<?xml version="1.0" encoding="utf-8"?>
<svg xmlns="http://www.w3.org/2000/svg" xmlns:xlink="http://www.w3.org/1999/xlink" width="600" height="400" viewBox="0 0 2400 1600">
<defs>
  <clipPath id="clip700">
    <rect x="0" y="0" width="2400" height="1600"/>
  </clipPath>
</defs>
<path clip-path="url(#clip700)" d="M0 1600 L2400 1600 L2400 0 L0 0  Z" fill="#ffffff" fill-rule="evenodd" fill-opacity="1"/>
<defs>
  <clipPath id="clip701">
    <rect x="480" y="0" width="1681" height="1600"/>
  </clipPath>
</defs>
<path clip-path="url(#clip700)" d="M186.274 1423.18 L2352.76 1423.18 L2352.76 47.2441 L186.274 47.2441  Z" fill="#ffffff" fill-rule="evenodd" fill-opacity="1"/>
<defs>
  <clipPath id="clip702">
    <rect x="186" y="47" width="2167" height="1377"/>
  </clipPath>
</defs>
<polyline clip-path="url(#clip702)" style="stroke:#000000; stroke-linecap:round; stroke-linejoin:round; stroke-width:2; stroke-opacity:0.1; fill:none" points="186.274,1423.18 186.274,47.2441 "/>
<polyline clip-path="url(#clip702)" style="stroke:#000000; stroke-linecap:round; stroke-linejoin:round; stroke-width:2; stroke-opacity:0.1; fill:none" points="619.57,1423.18 619.57,47.2441 "/>
<polyline clip-path="url(#clip702)" style="stroke:#000000; stroke-linecap:round; stroke-linejoin:round; stroke-width:2; stroke-opacity:0.1; fill:none" points="1052.87,1423.18 1052.87,47.2441 "/>
<polyline clip-path="url(#clip702)" style="stroke:#000000; stroke-linecap:round; stroke-linejoin:round; stroke-width:2; stroke-opacity:0.1; fill:none" points="1486.16,1423.18 1486.16,47.2441 "/>
<polyline clip-path="url(#clip702)" style="stroke:#000000; stroke-linecap:round; stroke-linejoin:round; stroke-width:2; stroke-opacity:0.1; fill:none" points="1919.46,1423.18 1919.46,47.2441 "/>
<polyline clip-path="url(#clip702)" style="stroke:#000000; stroke-linecap:round; stroke-linejoin:round; stroke-width:2; stroke-opacity:0.1; fill:none" points="2352.76,1423.18 2352.76,47.2441 "/>
<polyline clip-path="url(#clip700)" style="stroke:#000000; stroke-linecap:round; stroke-linejoin:round; stroke-width:4; stroke-opacity:1; fill:none" points="186.274,1423.18 2352.76,1423.18 "/>
<polyline clip-path="url(#clip700)" style="stroke:#000000; stroke-linecap:round; stroke-linejoin:round; stroke-width:4; stroke-opacity:1; fill:none" points="186.274,1423.18 186.274,1404.28 "/>
<polyline clip-path="url(#clip700)" style="stroke:#000000; stroke-linecap:round; stroke-linejoin:round; stroke-width:4; stroke-opacity:1; fill:none" points="619.57,1423.18 619.57,1404.28 "/>
<polyline clip-path="url(#clip700)" style="stroke:#000000; stroke-linecap:round; stroke-linejoin:round; stroke-width:4; stroke-opacity:1; fill:none" points="1052.87,1423.18 1052.87,1404.28 "/>
<polyline clip-path="url(#clip700)" style="stroke:#000000; stroke-linecap:round; stroke-linejoin:round; stroke-width:4; stroke-opacity:1; fill:none" points="1486.16,1423.18 1486.16,1404.28 "/>
<polyline clip-path="url(#clip700)" style="stroke:#000000; stroke-linecap:round; stroke-linejoin:round; stroke-width:4; stroke-opacity:1; fill:none" points="1919.46,1423.18 1919.46,1404.28 "/>
<polyline clip-path="url(#clip700)" style="stroke:#000000; stroke-linecap:round; stroke-linejoin:round; stroke-width:4; stroke-opacity:1; fill:none" points="2352.76,1423.18 2352.76,1404.28 "/>
<path clip-path="url(#clip700)" d="M186.274 1454.1 Q182.663 1454.1 180.834 1457.66 Q179.029 1461.2 179.029 1468.33 Q179.029 1475.44 180.834 1479.01 Q182.663 1482.55 186.274 1482.55 Q189.908 1482.55 191.714 1479.01 Q193.542 1475.44 193.542 1468.33 Q193.542 1461.2 191.714 1457.66 Q189.908 1454.1 186.274 1454.1 M186.274 1450.39 Q192.084 1450.39 195.14 1455 Q198.218 1459.58 198.218 1468.33 Q198.218 1477.06 195.14 1481.67 Q192.084 1486.25 186.274 1486.25 Q180.464 1486.25 177.385 1481.67 Q174.33 1477.06 174.33 1468.33 Q174.33 1459.58 177.385 1455 Q180.464 1450.39 186.274 1450.39 Z" fill="#000000" fill-rule="nonzero" fill-opacity="1" /><path clip-path="url(#clip700)" d="M614.223 1481.64 L630.543 1481.64 L630.543 1485.58 L608.598 1485.58 L608.598 1481.64 Q611.26 1478.89 615.844 1474.26 Q620.45 1469.61 621.631 1468.27 Q623.876 1465.74 624.756 1464.01 Q625.658 1462.25 625.658 1460.56 Q625.658 1457.8 623.714 1456.07 Q621.793 1454.33 618.691 1454.33 Q616.492 1454.33 614.038 1455.09 Q611.607 1455.86 608.83 1457.41 L608.83 1452.69 Q611.654 1451.55 614.107 1450.97 Q616.561 1450.39 618.598 1450.39 Q623.969 1450.39 627.163 1453.08 Q630.357 1455.77 630.357 1460.26 Q630.357 1462.39 629.547 1464.31 Q628.76 1466.2 626.654 1468.8 Q626.075 1469.47 622.973 1472.69 Q619.871 1475.88 614.223 1481.64 Z" fill="#000000" fill-rule="nonzero" fill-opacity="1" /><path clip-path="url(#clip700)" d="M1055.88 1455.09 L1044.07 1473.54 L1055.88 1473.54 L1055.88 1455.09 M1054.65 1451.02 L1060.53 1451.02 L1060.53 1473.54 L1065.46 1473.54 L1065.46 1477.43 L1060.53 1477.43 L1060.53 1485.58 L1055.88 1485.58 L1055.88 1477.43 L1040.27 1477.43 L1040.27 1472.92 L1054.65 1451.02 Z" fill="#000000" fill-rule="nonzero" fill-opacity="1" /><path clip-path="url(#clip700)" d="M1486.57 1466.44 Q1483.42 1466.44 1481.57 1468.59 Q1479.74 1470.74 1479.74 1474.49 Q1479.74 1478.22 1481.57 1480.39 Q1483.42 1482.55 1486.57 1482.55 Q1489.72 1482.55 1491.55 1480.39 Q1493.4 1478.22 1493.4 1474.49 Q1493.4 1470.74 1491.55 1468.59 Q1489.72 1466.44 1486.57 1466.44 M1495.85 1451.78 L1495.85 1456.04 Q1494.09 1455.21 1492.29 1454.77 Q1490.5 1454.33 1488.74 1454.33 Q1484.11 1454.33 1481.66 1457.45 Q1479.23 1460.58 1478.88 1466.9 Q1480.25 1464.89 1482.31 1463.82 Q1484.37 1462.73 1486.85 1462.73 Q1492.05 1462.73 1495.06 1465.9 Q1498.1 1469.05 1498.1 1474.49 Q1498.1 1479.82 1494.95 1483.03 Q1491.8 1486.25 1486.57 1486.25 Q1480.57 1486.25 1477.4 1481.67 Q1474.23 1477.06 1474.23 1468.33 Q1474.23 1460.14 1478.12 1455.28 Q1482.01 1450.39 1488.56 1450.39 Q1490.32 1450.39 1492.1 1450.74 Q1493.91 1451.09 1495.85 1451.78 Z" fill="#000000" fill-rule="nonzero" fill-opacity="1" /><path clip-path="url(#clip700)" d="M1919.46 1469.17 Q1916.13 1469.17 1914.2 1470.95 Q1912.31 1472.73 1912.31 1475.86 Q1912.31 1478.98 1914.2 1480.77 Q1916.13 1482.55 1919.46 1482.55 Q1922.79 1482.55 1924.71 1480.77 Q1926.64 1478.96 1926.64 1475.86 Q1926.64 1472.73 1924.71 1470.95 Q1922.82 1469.17 1919.46 1469.17 M1914.78 1467.18 Q1911.77 1466.44 1910.08 1464.38 Q1908.42 1462.32 1908.42 1459.35 Q1908.42 1455.21 1911.36 1452.8 Q1914.32 1450.39 1919.46 1450.39 Q1924.62 1450.39 1927.56 1452.8 Q1930.5 1455.21 1930.5 1459.35 Q1930.5 1462.32 1928.81 1464.38 Q1927.14 1466.44 1924.16 1467.18 Q1927.54 1467.96 1929.41 1470.26 Q1931.31 1472.55 1931.31 1475.86 Q1931.31 1480.88 1928.23 1483.57 Q1925.18 1486.25 1919.46 1486.25 Q1913.74 1486.25 1910.66 1483.57 Q1907.61 1480.88 1907.61 1475.86 Q1907.61 1472.55 1909.51 1470.26 Q1911.4 1467.96 1914.78 1467.18 M1913.07 1459.79 Q1913.07 1462.48 1914.74 1463.98 Q1916.43 1465.49 1919.46 1465.49 Q1922.47 1465.49 1924.16 1463.98 Q1925.87 1462.48 1925.87 1459.79 Q1925.87 1457.11 1924.16 1455.6 Q1922.47 1454.1 1919.46 1454.1 Q1916.43 1454.1 1914.74 1455.6 Q1913.07 1457.11 1913.07 1459.79 Z" fill="#000000" fill-rule="nonzero" fill-opacity="1" /><path clip-path="url(#clip700)" d="M2327.44 1481.64 L2335.08 1481.64 L2335.08 1455.28 L2326.77 1456.95 L2326.77 1452.69 L2335.04 1451.02 L2339.71 1451.02 L2339.71 1481.64 L2347.35 1481.64 L2347.35 1485.58 L2327.44 1485.58 L2327.44 1481.64 Z" fill="#000000" fill-rule="nonzero" fill-opacity="1" /><path clip-path="url(#clip700)" d="M2366.8 1454.1 Q2363.18 1454.1 2361.36 1457.66 Q2359.55 1461.2 2359.55 1468.33 Q2359.55 1475.44 2361.36 1479.01 Q2363.18 1482.55 2366.8 1482.55 Q2370.43 1482.55 2372.23 1479.01 Q2374.06 1475.44 2374.06 1468.33 Q2374.06 1461.2 2372.23 1457.66 Q2370.43 1454.1 2366.8 1454.1 M2366.8 1450.39 Q2372.61 1450.39 2375.66 1455 Q2378.74 1459.58 2378.74 1468.33 Q2378.74 1477.06 2375.66 1481.67 Q2372.61 1486.25 2366.8 1486.25 Q2360.99 1486.25 2357.91 1481.67 Q2354.85 1477.06 2354.85 1468.33 Q2354.85 1459.58 2357.91 1455 Q2360.99 1450.39 2366.8 1450.39 Z" fill="#000000" fill-rule="nonzero" fill-opacity="1" /><path clip-path="url(#clip700)" d="M1268.58 1522.27 L1268.58 1532.4 L1280.64 1532.4 L1280.64 1536.95 L1268.58 1536.95 L1268.58 1556.3 Q1268.58 1560.66 1269.75 1561.9 Q1270.96 1563.14 1274.62 1563.14 L1280.64 1563.14 L1280.64 1568.04 L1274.62 1568.04 Q1267.84 1568.04 1265.27 1565.53 Q1262.69 1562.98 1262.69 1556.3 L1262.69 1536.95 L1258.39 1536.95 L1258.39 1532.4 L1262.69 1532.4 L1262.69 1522.27 L1268.58 1522.27 Z" fill="#000000" fill-rule="nonzero" fill-opacity="1" /><polyline clip-path="url(#clip702)" style="stroke:#000000; stroke-linecap:round; stroke-linejoin:round; stroke-width:2; stroke-opacity:0.1; fill:none" points="186.274,1384.24 2352.76,1384.24 "/>
<polyline clip-path="url(#clip702)" style="stroke:#000000; stroke-linecap:round; stroke-linejoin:round; stroke-width:2; stroke-opacity:0.1; fill:none" points="186.274,1057.52 2352.76,1057.52 "/>
<polyline clip-path="url(#clip702)" style="stroke:#000000; stroke-linecap:round; stroke-linejoin:round; stroke-width:2; stroke-opacity:0.1; fill:none" points="186.274,730.807 2352.76,730.807 "/>
<polyline clip-path="url(#clip702)" style="stroke:#000000; stroke-linecap:round; stroke-linejoin:round; stroke-width:2; stroke-opacity:0.1; fill:none" points="186.274,404.091 2352.76,404.091 "/>
<polyline clip-path="url(#clip702)" style="stroke:#000000; stroke-linecap:round; stroke-linejoin:round; stroke-width:2; stroke-opacity:0.1; fill:none" points="186.274,77.3758 2352.76,77.3758 "/>
<polyline clip-path="url(#clip700)" style="stroke:#000000; stroke-linecap:round; stroke-linejoin:round; stroke-width:4; stroke-opacity:1; fill:none" points="186.274,1423.18 186.274,47.2441 "/>
<polyline clip-path="url(#clip700)" style="stroke:#000000; stroke-linecap:round; stroke-linejoin:round; stroke-width:4; stroke-opacity:1; fill:none" points="186.274,1384.24 205.172,1384.24 "/>
<polyline clip-path="url(#clip700)" style="stroke:#000000; stroke-linecap:round; stroke-linejoin:round; stroke-width:4; stroke-opacity:1; fill:none" points="186.274,1057.52 205.172,1057.52 "/>
<polyline clip-path="url(#clip700)" style="stroke:#000000; stroke-linecap:round; stroke-linejoin:round; stroke-width:4; stroke-opacity:1; fill:none" points="186.274,730.807 205.172,730.807 "/>
<polyline clip-path="url(#clip700)" style="stroke:#000000; stroke-linecap:round; stroke-linejoin:round; stroke-width:4; stroke-opacity:1; fill:none" points="186.274,404.091 205.172,404.091 "/>
<polyline clip-path="url(#clip700)" style="stroke:#000000; stroke-linecap:round; stroke-linejoin:round; stroke-width:4; stroke-opacity:1; fill:none" points="186.274,77.3758 205.172,77.3758 "/>
<path clip-path="url(#clip700)" d="M62.9365 1370.04 Q59.3254 1370.04 57.4967 1373.6 Q55.6912 1377.14 55.6912 1384.27 Q55.6912 1391.38 57.4967 1394.94 Q59.3254 1398.49 62.9365 1398.49 Q66.5707 1398.49 68.3763 1394.94 Q70.205 1391.38 70.205 1384.27 Q70.205 1377.14 68.3763 1373.6 Q66.5707 1370.04 62.9365 1370.04 M62.9365 1366.33 Q68.7467 1366.33 71.8022 1370.94 Q74.8809 1375.52 74.8809 1384.27 Q74.8809 1393 71.8022 1397.61 Q68.7467 1402.19 62.9365 1402.19 Q57.1264 1402.19 54.0477 1397.61 Q50.9921 1393 50.9921 1384.27 Q50.9921 1375.52 54.0477 1370.94 Q57.1264 1366.33 62.9365 1366.33 Z" fill="#000000" fill-rule="nonzero" fill-opacity="1" /><path clip-path="url(#clip700)" d="M83.0984 1395.64 L87.9827 1395.64 L87.9827 1401.52 L83.0984 1401.52 L83.0984 1395.64 Z" fill="#000000" fill-rule="nonzero" fill-opacity="1" /><path clip-path="url(#clip700)" d="M108.168 1370.04 Q104.557 1370.04 102.728 1373.6 Q100.922 1377.14 100.922 1384.27 Q100.922 1391.38 102.728 1394.94 Q104.557 1398.49 108.168 1398.49 Q111.802 1398.49 113.608 1394.94 Q115.436 1391.38 115.436 1384.27 Q115.436 1377.14 113.608 1373.6 Q111.802 1370.04 108.168 1370.04 M108.168 1366.33 Q113.978 1366.33 117.033 1370.94 Q120.112 1375.52 120.112 1384.27 Q120.112 1393 117.033 1397.61 Q113.978 1402.19 108.168 1402.19 Q102.358 1402.19 99.2789 1397.61 Q96.2234 1393 96.2234 1384.27 Q96.2234 1375.52 99.2789 1370.94 Q102.358 1366.33 108.168 1366.33 Z" fill="#000000" fill-rule="nonzero" fill-opacity="1" /><path clip-path="url(#clip700)" d="M138.33 1370.04 Q134.719 1370.04 132.89 1373.6 Q131.084 1377.14 131.084 1384.27 Q131.084 1391.38 132.89 1394.94 Q134.719 1398.49 138.33 1398.49 Q141.964 1398.49 143.769 1394.94 Q145.598 1391.38 145.598 1384.27 Q145.598 1377.14 143.769 1373.6 Q141.964 1370.04 138.33 1370.04 M138.33 1366.33 Q144.14 1366.33 147.195 1370.94 Q150.274 1375.52 150.274 1384.27 Q150.274 1393 147.195 1397.61 Q144.14 1402.19 138.33 1402.19 Q132.519 1402.19 129.441 1397.61 Q126.385 1393 126.385 1384.27 Q126.385 1375.52 129.441 1370.94 Q132.519 1366.33 138.33 1366.33 Z" fill="#000000" fill-rule="nonzero" fill-opacity="1" /><path clip-path="url(#clip700)" d="M63.9319 1043.32 Q60.3208 1043.32 58.4921 1046.89 Q56.6865 1050.43 56.6865 1057.56 Q56.6865 1064.66 58.4921 1068.23 Q60.3208 1071.77 63.9319 1071.77 Q67.5661 1071.77 69.3717 1068.23 Q71.2004 1064.66 71.2004 1057.56 Q71.2004 1050.43 69.3717 1046.89 Q67.5661 1043.32 63.9319 1043.32 M63.9319 1039.62 Q69.742 1039.62 72.7976 1044.22 Q75.8763 1048.81 75.8763 1057.56 Q75.8763 1066.28 72.7976 1070.89 Q69.742 1075.47 63.9319 1075.47 Q58.1217 1075.47 55.043 1070.89 Q51.9875 1066.28 51.9875 1057.56 Q51.9875 1048.81 55.043 1044.22 Q58.1217 1039.62 63.9319 1039.62 Z" fill="#000000" fill-rule="nonzero" fill-opacity="1" /><path clip-path="url(#clip700)" d="M84.0938 1068.92 L88.978 1068.92 L88.978 1074.8 L84.0938 1074.8 L84.0938 1068.92 Z" fill="#000000" fill-rule="nonzero" fill-opacity="1" /><path clip-path="url(#clip700)" d="M103.191 1070.87 L119.51 1070.87 L119.51 1074.8 L97.566 1074.8 L97.566 1070.87 Q100.228 1068.11 104.811 1063.48 Q109.418 1058.83 110.598 1057.49 Q112.844 1054.96 113.723 1053.23 Q114.626 1051.47 114.626 1049.78 Q114.626 1047.03 112.682 1045.29 Q110.76 1043.55 107.658 1043.55 Q105.459 1043.55 103.006 1044.32 Q100.575 1045.08 97.7974 1046.63 L97.7974 1041.91 Q100.621 1040.78 103.075 1040.2 Q105.529 1039.62 107.566 1039.62 Q112.936 1039.62 116.131 1042.3 Q119.325 1044.99 119.325 1049.48 Q119.325 1051.61 118.515 1053.53 Q117.728 1055.43 115.621 1058.02 Q115.043 1058.69 111.941 1061.91 Q108.839 1065.1 103.191 1070.87 Z" fill="#000000" fill-rule="nonzero" fill-opacity="1" /><path clip-path="url(#clip700)" d="M129.371 1040.24 L147.728 1040.24 L147.728 1044.18 L133.654 1044.18 L133.654 1052.65 Q134.672 1052.3 135.691 1052.14 Q136.709 1051.96 137.728 1051.96 Q143.515 1051.96 146.894 1055.13 Q150.274 1058.3 150.274 1063.71 Q150.274 1069.29 146.802 1072.4 Q143.33 1075.47 137.01 1075.47 Q134.834 1075.47 132.566 1075.1 Q130.32 1074.73 127.913 1073.99 L127.913 1069.29 Q129.996 1070.43 132.219 1070.98 Q134.441 1071.54 136.918 1071.54 Q140.922 1071.54 143.26 1069.43 Q145.598 1067.33 145.598 1063.71 Q145.598 1060.1 143.26 1058 Q140.922 1055.89 136.918 1055.89 Q135.043 1055.89 133.168 1056.31 Q131.316 1056.72 129.371 1057.6 L129.371 1040.24 Z" fill="#000000" fill-rule="nonzero" fill-opacity="1" /><path clip-path="url(#clip700)" d="M62.9365 716.606 Q59.3254 716.606 57.4967 720.171 Q55.6912 723.712 55.6912 730.842 Q55.6912 737.948 57.4967 741.513 Q59.3254 745.055 62.9365 745.055 Q66.5707 745.055 68.3763 741.513 Q70.205 737.948 70.205 730.842 Q70.205 723.712 68.3763 720.171 Q66.5707 716.606 62.9365 716.606 M62.9365 712.902 Q68.7467 712.902 71.8022 717.508 Q74.8809 722.092 74.8809 730.842 Q74.8809 739.569 71.8022 744.175 Q68.7467 748.758 62.9365 748.758 Q57.1264 748.758 54.0477 744.175 Q50.9921 739.569 50.9921 730.842 Q50.9921 722.092 54.0477 717.508 Q57.1264 712.902 62.9365 712.902 Z" fill="#000000" fill-rule="nonzero" fill-opacity="1" /><path clip-path="url(#clip700)" d="M83.0984 742.207 L87.9827 742.207 L87.9827 748.087 L83.0984 748.087 L83.0984 742.207 Z" fill="#000000" fill-rule="nonzero" fill-opacity="1" /><path clip-path="url(#clip700)" d="M98.2141 713.527 L116.57 713.527 L116.57 717.462 L102.496 717.462 L102.496 725.934 Q103.515 725.587 104.534 725.425 Q105.552 725.24 106.571 725.24 Q112.358 725.24 115.737 728.411 Q119.117 731.582 119.117 736.999 Q119.117 742.578 115.645 745.68 Q112.172 748.758 105.853 748.758 Q103.677 748.758 101.409 748.388 Q99.1632 748.018 96.7558 747.277 L96.7558 742.578 Q98.8391 743.712 101.061 744.268 Q103.284 744.823 105.76 744.823 Q109.765 744.823 112.103 742.717 Q114.441 740.61 114.441 736.999 Q114.441 733.388 112.103 731.282 Q109.765 729.175 105.76 729.175 Q103.885 729.175 102.01 729.592 Q100.159 730.008 98.2141 730.888 L98.2141 713.527 Z" fill="#000000" fill-rule="nonzero" fill-opacity="1" /><path clip-path="url(#clip700)" d="M138.33 716.606 Q134.719 716.606 132.89 720.171 Q131.084 723.712 131.084 730.842 Q131.084 737.948 132.89 741.513 Q134.719 745.055 138.33 745.055 Q141.964 745.055 143.769 741.513 Q145.598 737.948 145.598 730.842 Q145.598 723.712 143.769 720.171 Q141.964 716.606 138.33 716.606 M138.33 712.902 Q144.14 712.902 147.195 717.508 Q150.274 722.092 150.274 730.842 Q150.274 739.569 147.195 744.175 Q144.14 748.758 138.33 748.758 Q132.519 748.758 129.441 744.175 Q126.385 739.569 126.385 730.842 Q126.385 722.092 129.441 717.508 Q132.519 712.902 138.33 712.902 Z" fill="#000000" fill-rule="nonzero" fill-opacity="1" /><path clip-path="url(#clip700)" d="M63.9319 389.89 Q60.3208 389.89 58.4921 393.455 Q56.6865 396.997 56.6865 404.126 Q56.6865 411.233 58.4921 414.797 Q60.3208 418.339 63.9319 418.339 Q67.5661 418.339 69.3717 414.797 Q71.2004 411.233 71.2004 404.126 Q71.2004 396.997 69.3717 393.455 Q67.5661 389.89 63.9319 389.89 M63.9319 386.186 Q69.742 386.186 72.7976 390.793 Q75.8763 395.376 75.8763 404.126 Q75.8763 412.853 72.7976 417.459 Q69.742 422.043 63.9319 422.043 Q58.1217 422.043 55.043 417.459 Q51.9875 412.853 51.9875 404.126 Q51.9875 395.376 55.043 390.793 Q58.1217 386.186 63.9319 386.186 Z" fill="#000000" fill-rule="nonzero" fill-opacity="1" /><path clip-path="url(#clip700)" d="M84.0938 415.492 L88.978 415.492 L88.978 421.371 L84.0938 421.371 L84.0938 415.492 Z" fill="#000000" fill-rule="nonzero" fill-opacity="1" /><path clip-path="url(#clip700)" d="M97.9826 386.811 L120.205 386.811 L120.205 388.802 L107.658 421.371 L102.774 421.371 L114.58 390.747 L97.9826 390.747 L97.9826 386.811 Z" fill="#000000" fill-rule="nonzero" fill-opacity="1" /><path clip-path="url(#clip700)" d="M129.371 386.811 L147.728 386.811 L147.728 390.747 L133.654 390.747 L133.654 399.219 Q134.672 398.872 135.691 398.709 Q136.709 398.524 137.728 398.524 Q143.515 398.524 146.894 401.696 Q150.274 404.867 150.274 410.283 Q150.274 415.862 146.802 418.964 Q143.33 422.043 137.01 422.043 Q134.834 422.043 132.566 421.672 Q130.32 421.302 127.913 420.561 L127.913 415.862 Q129.996 416.996 132.219 417.552 Q134.441 418.108 136.918 418.108 Q140.922 418.108 143.26 416.001 Q145.598 413.895 145.598 410.283 Q145.598 406.672 143.26 404.566 Q140.922 402.459 136.918 402.459 Q135.043 402.459 133.168 402.876 Q131.316 403.293 129.371 404.172 L129.371 386.811 Z" fill="#000000" fill-rule="nonzero" fill-opacity="1" /><path clip-path="url(#clip700)" d="M53.7467 90.7206 L61.3856 90.7206 L61.3856 64.355 L53.0754 66.0217 L53.0754 61.7624 L61.3393 60.0958 L66.0152 60.0958 L66.0152 90.7206 L73.654 90.7206 L73.654 94.6558 L53.7467 94.6558 L53.7467 90.7206 Z" fill="#000000" fill-rule="nonzero" fill-opacity="1" /><path clip-path="url(#clip700)" d="M83.0984 88.7762 L87.9827 88.7762 L87.9827 94.6558 L83.0984 94.6558 L83.0984 88.7762 Z" fill="#000000" fill-rule="nonzero" fill-opacity="1" /><path clip-path="url(#clip700)" d="M108.168 63.1745 Q104.557 63.1745 102.728 66.7393 Q100.922 70.2809 100.922 77.4105 Q100.922 84.5169 102.728 88.0817 Q104.557 91.6234 108.168 91.6234 Q111.802 91.6234 113.608 88.0817 Q115.436 84.5169 115.436 77.4105 Q115.436 70.2809 113.608 66.7393 Q111.802 63.1745 108.168 63.1745 M108.168 59.4708 Q113.978 59.4708 117.033 64.0772 Q120.112 68.6605 120.112 77.4105 Q120.112 86.1373 117.033 90.7438 Q113.978 95.3271 108.168 95.3271 Q102.358 95.3271 99.2789 90.7438 Q96.2234 86.1373 96.2234 77.4105 Q96.2234 68.6605 99.2789 64.0772 Q102.358 59.4708 108.168 59.4708 Z" fill="#000000" fill-rule="nonzero" fill-opacity="1" /><path clip-path="url(#clip700)" d="M138.33 63.1745 Q134.719 63.1745 132.89 66.7393 Q131.084 70.2809 131.084 77.4105 Q131.084 84.5169 132.89 88.0817 Q134.719 91.6234 138.33 91.6234 Q141.964 91.6234 143.769 88.0817 Q145.598 84.5169 145.598 77.4105 Q145.598 70.2809 143.769 66.7393 Q141.964 63.1745 138.33 63.1745 M138.33 59.4708 Q144.14 59.4708 147.195 64.0772 Q150.274 68.6605 150.274 77.4105 Q150.274 86.1373 147.195 90.7438 Q144.14 95.3271 138.33 95.3271 Q132.519 95.3271 129.441 90.7438 Q126.385 86.1373 126.385 77.4105 Q126.385 68.6605 129.441 64.0772 Q132.519 59.4708 138.33 59.4708 Z" fill="#000000" fill-rule="nonzero" fill-opacity="1" /><polyline clip-path="url(#clip702)" style="stroke:#009af9; stroke-linecap:round; stroke-linejoin:round; stroke-width:4; stroke-opacity:1; fill:none" points="186.274,1384.24 188.443,1377.72 190.611,1371.24 192.78,1364.84 194.949,1358.49 197.117,1352.18 199.286,1345.89 201.455,1339.61 203.623,1333.32 205.792,1327 207.961,1320.63 210.129,1314.23 212.298,1308.09 214.466,1302.01 216.635,1296.01 218.804,1290.06 220.972,1284.17 223.141,1278.33 225.31,1272.53 227.478,1266.78 229.647,1261.05 231.816,1255.36 233.984,1249.68 236.153,1244.02 238.322,1238.37 240.49,1232.73 242.659,1227.08 244.828,1221.43 246.996,1215.76 249.165,1210.08 251.334,1204.37 253.502,1198.63 255.671,1192.86 257.839,1187.04 260.008,1181.18 262.177,1175.27 264.345,1169.3 266.514,1163.31 268.683,1157.92 270.851,1152.58 273.02,1147.31 275.189,1142.09 277.357,1136.93 279.526,1131.82 281.695,1126.76 283.863,1121.75 286.032,1116.78 288.201,1111.85 290.369,1106.95 292.538,1102.09 294.707,1097.26 296.875,1092.46 299.044,1087.68 301.212,1082.92 303.381,1078.18 305.55,1073.46 307.718,1068.74 309.887,1064.04 312.056,1059.34 314.224,1054.64 316.393,1049.95 318.562,1045.25 320.73,1040.54 322.899,1035.83 325.068,1031.1 327.236,1026.36 329.405,1021.59 331.574,1016.81 333.742,1012 335.911,1007.16 338.08,1002.29 340.248,997.389 342.417,992.449 344.585,987.469 346.754,982.445 348.923,977.375 351.091,972.255 353.26,967.082 355.429,961.854 357.597,957.45 359.766,953.102 361.935,948.804 364.103,944.554 366.272,940.35 368.441,936.19 370.609,932.073 372.778,927.996 374.947,923.958 377.115,919.956 379.284,915.989 381.453,912.054 383.621,908.151 385.79,904.276 387.959,900.429 390.127,896.606 392.296,892.806 394.464,889.028 396.633,885.269 398.802,881.528 400.97,877.801 403.139,874.089 405.308,870.388 407.476,866.696 409.645,863.013 411.814,859.335 413.982,855.661 416.151,851.989 418.32,848.317 420.488,844.643 422.657,840.966 424.826,837.282 426.994,833.591 429.163,829.891 431.332,826.179 433.5,822.453 435.669,818.713 437.837,814.955 440.006,811.178 442.175,807.379 444.343,803.558 446.512,799.712 448.681,795.839 450.849,791.937 453.018,788.004 455.187,784.039 457.355,780.039 459.524,776.003 461.693,771.928 463.861,767.813 466.03,763.656 468.199,759.454 470.367,755.775 472.536,752.415 474.705,749.092 476.873,745.807 479.042,742.559 481.21,739.345 483.379,736.166 485.548,733.02 487.716,729.905 489.885,726.822 492.054,723.768 494.222,720.743 496.391,717.745 498.56,714.773 500.728,711.827 502.897,708.906 505.066,706.007 507.234,703.13 509.403,700.275 511.572,697.439 513.74,694.622 515.909,691.823 518.078,689.04 520.246,686.273 522.415,683.52 524.583,680.78 526.752,678.053 528.921,675.337 531.089,672.63 533.258,669.933 535.427,667.244 537.595,664.561 539.764,661.884 541.933,659.211 544.101,656.542 546.27,653.875 548.439,651.21 550.607,648.545 552.776,645.878 554.945,643.21 557.113,640.539 559.282,637.863 561.451,635.182 563.619,632.495 565.788,629.801 567.956,627.097 570.125,624.384 572.294,621.661 574.462,618.925 576.631,616.176 578.8,613.414 580.968,610.636 583.137,607.842 585.306,605.031 587.474,602.201 589.643,599.352 591.812,596.482 593.98,593.591 596.149,590.676 598.318,587.738 600.486,584.775 602.655,581.785 604.824,578.769 606.992,575.724 609.161,572.65 611.33,569.546 613.498,566.409 615.667,563.241 617.835,560.073 620.004,557.671 622.173,555.297 624.341,552.949 626.51,550.627 628.679,548.331 630.847,546.059 633.016,543.811 635.185,541.587 637.353,539.385 639.522,537.206 641.691,535.049 643.859,532.912 646.028,530.796 648.197,528.699 650.365,526.622 652.534,524.563 654.703,522.523 656.871,520.499 659.04,518.492 661.208,516.502 663.377,514.526 665.546,512.566 667.714,510.62 669.883,508.687 672.052,506.768 674.22,504.86 676.389,502.965 678.558,501.081 680.726,499.207 682.895,497.343 685.064,495.489 687.232,493.643 689.401,491.806 691.57,489.975 693.738,488.152 695.907,486.335 698.076,484.524 700.244,482.717 702.413,480.915 704.581,479.117 706.75,477.322 708.919,475.529 711.087,473.738 713.256,471.949 715.425,470.161 717.593,468.372 719.762,466.583 721.931,464.793 724.099,463.001 726.268,461.207 728.437,459.409 730.605,457.608 732.774,455.803 734.943,453.993 737.111,452.178 739.28,450.356 741.449,448.528 743.617,446.693 745.786,444.849 747.954,442.998 750.123,441.137 752.292,439.266 754.46,437.385 756.629,435.493 758.798,433.589 760.966,431.673 763.135,429.744 765.304,427.802 767.472,425.846 769.641,423.875 771.81,421.889 773.978,419.886 776.147,417.868 778.316,415.832 780.484,413.779 782.653,411.707 784.822,409.616 786.99,407.505 789.159,405.375 791.328,403.223 793.496,401.05 795.665,398.855 797.833,396.638 800.002,394.397 802.171,392.819 804.339,391.259 806.508,389.715 808.677,388.188 810.845,386.678 813.014,385.184 815.183,383.705 817.351,382.242 819.52,380.794 821.689,379.36 823.857,377.942 826.026,376.537 828.195,375.146 830.363,373.769 832.532,372.405 834.701,371.053 836.869,369.715 839.038,368.388 841.206,367.073 843.375,365.77 845.544,364.479 847.712,363.198 849.881,361.928 852.05,360.668 854.218,359.418 856.387,358.178 858.556,356.947 860.724,355.725 862.893,354.512 865.062,353.308 867.23,352.111 869.399,350.922 871.568,349.741 873.736,348.566 875.905,347.399 878.074,346.238 880.242,345.083 882.411,343.934 884.579,342.79 886.748,341.652 888.917,340.519 891.085,339.39 893.254,338.265 895.423,337.144 897.591,336.027 899.76,334.913 901.929,333.802 904.097,332.694 906.266,331.588 908.435,330.484 910.603,329.382 912.772,328.281 914.941,327.181 917.109,326.082 919.278,324.983 921.447,323.884 923.615,322.785 925.784,321.686 927.952,320.585 930.121,319.484 932.29,318.381 934.458,317.276 936.627,316.169 938.796,315.059 940.964,313.947 943.133,312.831 945.302,311.712 947.47,310.589 949.639,309.463 951.808,308.331 953.976,307.195 956.145,306.055 958.314,304.908 960.482,303.756 962.651,302.598 964.82,301.434 966.988,300.263 969.157,299.085 971.326,297.9 973.494,296.707 975.663,295.506 977.831,294.298 980,293.08 982.169,291.854 984.337,290.618 986.506,289.373 988.675,288.118 990.843,286.853 993.012,285.578 995.181,284.291 997.349,282.994 999.518,281.685 1001.69,280.364 1003.86,279.032 1006.02,277.687 1008.19,276.329 1010.36,274.958 1012.53,273.574 1014.7,272.176 1016.87,270.764 1019.04,269.338 1021.2,267.897 1023.37,266.7 1025.54,265.76 1027.71,264.831 1029.88,263.911 1032.05,263 1034.22,262.1 1036.39,261.208 1038.55,260.326 1040.72,259.453 1042.89,258.589 1045.06,257.734 1047.23,256.887 1049.4,256.048 1051.57,255.218 1053.73,254.396 1055.9,253.582 1058.07,252.776 1060.24,251.978 1062.41,251.187 1064.58,250.403 1066.75,249.627 1068.91,248.857 1071.08,248.095 1073.25,247.339 1075.42,246.59 1077.59,245.847 1079.76,245.11 1081.93,244.38 1084.1,243.655 1086.26,242.937 1088.43,242.224 1090.6,241.516 1092.77,240.814 1094.94,240.117 1097.11,239.425 1099.28,238.738 1101.44,238.055 1103.61,237.377 1105.78,236.704 1107.95,236.035 1110.12,235.369 1112.29,234.708 1114.46,234.051 1116.63,233.397 1118.79,232.746 1120.96,232.099 1123.13,231.455 1125.3,230.815 1127.47,230.176 1129.64,229.541 1131.81,228.908 1133.97,228.278 1136.14,227.649 1138.31,227.023 1140.48,226.399 1142.65,225.776 1144.82,225.156 1146.99,224.536 1149.15,223.918 1151.32,223.301 1153.49,222.685 1155.66,222.069 1157.83,221.455 1160,220.841 1162.17,220.227 1164.34,219.613 1166.5,219 1168.67,218.386 1170.84,217.772 1173.01,217.158 1175.18,216.543 1177.35,215.928 1179.52,215.311 1181.68,214.694 1183.85,214.075 1186.02,213.455 1188.19,212.833 1190.36,212.21 1192.53,211.585 1194.7,210.958 1196.87,210.329 1199.03,209.697 1201.2,209.063 1203.37,208.427 1205.54,207.787 1207.71,207.145 1209.88,206.5 1212.05,205.851 1214.21,205.2 1216.38,204.544 1218.55,203.885 1220.72,203.222 1222.89,202.555 1225.06,201.884 1227.23,201.209 1229.39,200.529 1231.56,199.845 1233.73,199.155 1235.9,198.461 1238.07,197.762 1240.24,197.057 1242.41,196.347 1244.58,195.632 1246.74,194.911 1248.91,194.184 1251.08,193.451 1253.25,192.712 1255.42,191.966 1257.59,191.214 1259.76,190.455 1261.92,189.69 1264.09,188.917 1266.26,188.138 1268.43,187.351 1270.6,186.557 1272.77,185.755 1274.94,184.946 1277.11,184.128 1279.27,183.303 1281.44,182.469 1283.61,181.627 1285.78,180.777 1287.95,180.184 1290.12,179.675 1292.29,179.17 1294.45,178.671 1296.62,178.176 1298.79,177.687 1300.96,177.203 1303.13,176.723 1305.3,176.249 1307.47,175.779 1309.63,175.314 1311.8,174.853 1313.97,174.397 1316.14,173.946 1318.31,173.499 1320.48,173.056 1322.65,172.617 1324.82,172.183 1326.98,171.753 1329.15,171.327 1331.32,170.905 1333.49,170.486 1335.66,170.072 1337.83,169.662 1340,169.255 1342.16,168.852 1344.33,168.452 1346.5,168.056 1348.67,167.663 1350.84,167.274 1353.01,166.888 1355.18,166.506 1357.35,166.126 1359.51,165.75 1361.68,165.376 1363.85,165.006 1366.02,164.639 1368.19,164.274 1370.36,163.912 1372.53,163.553 1374.69,163.196 1376.86,162.842 1379.03,162.491 1381.2,162.142 1383.37,161.795 1385.54,161.45 1387.71,161.108 1389.88,160.768 1392.04,160.43 1394.21,160.094 1396.38,159.76 1398.55,159.428 1400.72,159.097 1402.89,158.769 1405.06,158.442 1407.22,158.116 1409.39,157.792 1411.56,157.47 1413.73,157.149 1415.9,156.829 1418.07,156.511 1420.24,156.194 1422.4,155.877 1424.57,155.562 1426.74,155.248 1428.91,154.935 1431.08,154.623 1433.25,154.311 1435.42,154 1437.59,153.69 1439.75,153.38 1441.92,153.071 1444.09,152.762 1446.26,152.454 1448.43,152.146 1450.6,151.838 1452.77,151.53 1454.93,151.223 1457.1,150.915 1459.27,150.607 1461.44,150.3 1463.61,149.992 1465.78,149.684 1467.95,149.375 1470.12,149.066 1472.28,148.757 1474.45,148.447 1476.62,148.136 1478.79,147.825 1480.96,147.513 1483.13,147.2 1485.3,146.887 1487.46,146.572 1489.63,146.257 1491.8,145.94 1493.97,145.622 1496.14,145.303 1498.31,144.983 1500.48,144.662 1502.64,144.339 1504.81,144.014 1506.98,143.688 1509.15,143.36 1511.32,143.031 1513.49,142.7 1515.66,142.367 1517.83,142.032 1519.99,141.695 1522.16,141.356 1524.33,141.015 1526.5,140.672 1528.67,140.326 1530.84,139.979 1533.01,139.629 1535.17,139.276 1537.34,138.921 1539.51,138.563 1541.68,138.203 1543.85,137.84 1546.02,137.474 1548.19,137.105 1550.36,136.734 1552.52,136.359 1554.69,135.981 1556.86,135.601 1559.03,135.217 1561.2,134.829 1563.37,134.439 1565.54,134.045 1567.7,133.647 1569.87,133.246 1572.04,132.841 1574.21,132.433 1576.38,132.021 1578.55,131.605 1580.72,131.185 1582.88,130.761 1585.05,130.333 1587.22,129.901 1589.39,129.465 1591.56,129.025 1593.73,128.58 1595.9,128.131 1598.07,127.678 1600.23,127.385 1602.4,127.137 1604.57,126.891 1606.74,126.648 1608.91,126.407 1611.08,126.168 1613.25,125.932 1615.41,125.698 1617.58,125.467 1619.75,125.238 1621.92,125.011 1624.09,124.786 1626.26,124.563 1628.43,124.343 1630.6,124.124 1632.76,123.908 1634.93,123.694 1637.1,123.482 1639.27,123.271 1641.44,123.063 1643.61,122.857 1645.78,122.653 1647.94,122.45 1650.11,122.25 1652.28,122.051 1654.45,121.854 1656.62,121.659 1658.79,121.466 1660.96,121.275 1663.13,121.085 1665.29,120.897 1667.46,120.71 1669.63,120.525 1671.8,120.342 1673.97,120.16 1676.14,119.98 1678.31,119.802 1680.47,119.625 1682.64,119.449 1684.81,119.275 1686.98,119.102 1689.15,118.931 1691.32,118.761 1693.49,118.592 1695.65,118.425 1697.82,118.259 1699.99,118.094 1702.16,117.931 1704.33,117.768 1706.5,117.607 1708.67,117.447 1710.84,117.288 1713,117.13 1715.17,116.973 1717.34,116.818 1719.51,116.663 1721.68,116.509 1723.85,116.356 1726.02,116.205 1728.18,116.054 1730.35,115.903 1732.52,115.754 1734.69,115.606 1736.86,115.458 1739.03,115.311 1741.2,115.165 1743.37,115.02 1745.53,114.875 1747.7,114.731 1749.87,114.588 1752.04,114.445 1754.21,114.302 1756.38,114.161 1758.55,114.02 1760.71,113.879 1762.88,113.739 1765.05,113.599 1767.22,113.459 1769.39,113.32 1771.56,113.182 1773.73,113.043 1775.89,112.905 1778.06,112.768 1780.23,112.63 1782.4,112.493 1784.57,112.356 1786.74,112.219 1788.91,112.082 1791.08,111.946 1793.24,111.809 1795.41,111.673 1797.58,111.536 1799.75,111.4 1801.92,111.263 1804.09,111.127 1806.26,110.99 1808.42,110.854 1810.59,110.717 1812.76,110.58 1814.93,110.443 1817.1,110.305 1819.27,110.168 1821.44,110.03 1823.61,109.892 1825.77,109.753 1827.94,109.614 1830.11,109.475 1832.28,109.335 1834.45,109.195 1836.62,109.055 1838.79,108.914 1840.95,108.772 1843.12,108.63 1845.29,108.488 1847.46,108.345 1849.63,108.201 1851.8,108.056 1853.97,107.911 1856.13,107.766 1858.3,107.619 1860.47,107.472 1862.64,107.324 1864.81,107.175 1866.98,107.025 1869.15,106.875 1871.32,106.723 1873.48,106.571 1875.65,106.417 1877.82,106.263 1879.99,106.108 1882.16,105.951 1884.33,105.794 1886.5,105.636 1888.66,105.476 1890.83,105.315 1893,105.154 1895.17,104.991 1897.34,104.826 1899.51,104.661 1901.68,104.494 1903.85,104.326 1906.01,104.157 1908.18,103.986 1910.35,103.814 1912.52,103.64 1914.69,103.465 1916.86,103.289 1919.03,103.111 1921.19,102.932 1923.36,102.751 1925.53,102.568 1927.7,102.384 1929.87,102.198 1932.04,102.011 1934.21,101.822 1936.37,101.631 1938.54,101.439 1940.71,101.244 1942.88,101.048 1945.05,100.851 1947.22,100.651 1949.39,100.449 1951.56,100.246 1953.72,100.041 1955.89,99.8332 1958.06,99.624 1960.23,99.4127 1962.4,99.1994 1964.57,98.984 1966.74,98.8428 1968.9,98.7362 1971.07,98.6307 1973.24,98.5262 1975.41,98.4227 1977.58,98.3202 1979.75,98.2187 1981.92,98.1182 1984.09,98.0187 1986.25,97.9201 1988.42,97.8225 1990.59,97.7258 1992.76,97.63 1994.93,97.5351 1997.1,97.4412 1999.27,97.3481 2001.43,97.256 2003.6,97.1647 2005.77,97.0742 2007.94,96.9847 2010.11,96.8959 2012.28,96.808 2014.45,96.7209 2016.62,96.6346 2018.78,96.5492 2020.95,96.4645 2023.12,96.3805 2025.29,96.2974 2027.46,96.215 2029.63,96.1333 2031.8,96.0524 2033.96,95.9722 2036.13,95.8927 2038.3,95.8139 2040.47,95.7358 2042.64,95.6584 2044.81,95.5816 2046.98,95.5055 2049.14,95.4301 2051.31,95.3553 2053.48,95.2811 2055.65,95.2075 2057.82,95.1345 2059.99,95.0621 2062.16,94.9903 2064.33,94.9191 2066.49,94.8484 2068.66,94.7783 2070.83,94.7087 2073,94.6396 2075.17,94.5711 2077.34,94.503 2079.51,94.4355 2081.67,94.3684 2083.84,94.3018 2086.01,94.2357 2088.18,94.17 2090.35,94.1048 2092.52,94.04 2094.69,93.9756 2096.86,93.9116 2099.02,93.848 2101.19,93.7848 2103.36,93.722 2105.53,93.6596 2107.7,93.5975 2109.87,93.5357 2112.04,93.4743 2114.2,93.4132 2116.37,93.3524 2118.54,93.2919 2120.71,93.2317 2122.88,93.1717 2125.05,93.1121 2127.22,93.0527 2129.38,92.9935 2131.55,92.9346 2133.72,92.8759 2135.89,92.8174 2138.06,92.7591 2140.23,92.701 2142.4,92.6431 2144.57,92.5854 2146.73,92.5278 2148.9,92.4703 2151.07,92.413 2153.24,92.3559 2155.41,92.2988 2157.58,92.2418 2159.75,92.185 2161.91,92.1282 2164.08,92.0715 2166.25,92.0149 2168.42,91.9583 2170.59,91.9017 2172.76,91.8452 2174.93,91.7887 2177.1,91.7322 2179.26,91.6757 2181.43,91.6192 2183.6,91.5626 2185.77,91.506 2187.94,91.4494 2190.11,91.3927 2192.28,91.336 2194.44,91.2792 2196.61,91.2222 2198.78,91.1652 2200.95,91.1081 2203.12,91.0508 2205.29,90.9935 2207.46,90.9359 2209.62,90.8782 2211.79,90.8204 2213.96,90.7624 2216.13,90.7041 2218.3,90.6457 2220.47,90.5871 2222.64,90.5283 2224.81,90.4692 2226.97,90.4099 2229.14,90.3503 2231.31,90.2905 2233.48,90.2304 2235.65,90.17 2237.82,90.1093 2239.99,90.0483 2242.15,89.987 2244.32,89.9253 2246.49,89.8634 2248.66,89.801 2250.83,89.7383 2253,89.6753 2255.17,89.6118 2257.34,89.548 2259.5,89.4838 2261.67,89.4191 2263.84,89.354 2266.01,89.2885 2268.18,89.2225 2270.35,89.1561 2272.52,89.0892 2274.68,89.0219 2276.85,88.954 2279.02,88.8856 2281.19,88.8168 2283.36,88.7474 2285.53,88.6774 2287.7,88.607 2289.87,88.5359 2292.03,88.4643 2294.2,88.3922 2296.37,88.3194 2298.54,88.246 2300.71,88.1721 2302.88,88.0975 2305.05,88.0222 2307.21,87.9464 2309.38,87.8698 2311.55,87.7927 2313.72,87.7148 2315.89,87.6363 2318.06,87.557 2320.23,87.4771 2322.39,87.3964 2324.56,87.315 2326.73,87.2329 2328.9,87.15 2331.07,87.0664 2333.24,86.9819 2335.41,86.8967 2337.58,86.8108 2339.74,86.724 2341.91,86.6363 2344.08,86.5479 2346.25,86.4586 2348.42,86.3685 2350.59,86.2775 2352.76,86.1857 "/>
<path clip-path="url(#clip700)" d="M258.49 196.789 L744.766 196.789 L744.766 93.1086 L258.49 93.1086  Z" fill="#ffffff" fill-rule="evenodd" fill-opacity="1"/>
<polyline clip-path="url(#clip700)" style="stroke:#000000; stroke-linecap:round; stroke-linejoin:round; stroke-width:4; stroke-opacity:1; fill:none" points="258.49,196.789 744.766,196.789 744.766,93.1086 258.49,93.1086 258.49,196.789 "/>
<polyline clip-path="url(#clip700)" style="stroke:#009af9; stroke-linecap:round; stroke-linejoin:round; stroke-width:4; stroke-opacity:1; fill:none" points="282.562,144.949 426.994,144.949 "/>
<path clip-path="url(#clip700)" d="M471.575 137.298 L471.575 141.28 Q469.77 140.284 467.941 139.798 Q466.136 139.289 464.284 139.289 Q460.14 139.289 457.849 141.928 Q455.557 144.544 455.557 149.289 Q455.557 154.034 457.849 156.673 Q460.14 159.289 464.284 159.289 Q466.136 159.289 467.941 158.803 Q469.77 158.293 471.575 157.298 L471.575 161.233 Q469.793 162.067 467.872 162.483 Q465.974 162.9 463.821 162.9 Q457.964 162.9 454.515 159.219 Q451.066 155.539 451.066 149.289 Q451.066 142.946 454.538 139.312 Q458.034 135.678 464.099 135.678 Q466.066 135.678 467.941 136.095 Q469.816 136.488 471.575 137.298 Z" fill="#000000" fill-rule="nonzero" fill-opacity="1" /><path clip-path="url(#clip700)" d="M490.765 149.196 Q485.603 149.196 483.612 150.377 Q481.622 151.557 481.622 154.405 Q481.622 156.673 483.103 158.016 Q484.608 159.335 487.177 159.335 Q490.719 159.335 492.848 156.835 Q495.001 154.312 495.001 150.145 L495.001 149.196 L490.765 149.196 M499.26 147.437 L499.26 162.229 L495.001 162.229 L495.001 158.293 Q493.543 160.655 491.367 161.789 Q489.191 162.9 486.043 162.9 Q482.061 162.9 479.7 160.678 Q477.362 158.432 477.362 154.682 Q477.362 150.307 480.279 148.085 Q483.219 145.863 489.029 145.863 L495.001 145.863 L495.001 145.446 Q495.001 142.507 493.057 140.909 Q491.135 139.289 487.64 139.289 Q485.418 139.289 483.311 139.821 Q481.205 140.354 479.261 141.419 L479.261 137.483 Q481.598 136.581 483.798 136.141 Q485.997 135.678 488.08 135.678 Q493.705 135.678 496.483 138.594 Q499.26 141.511 499.26 147.437 Z" fill="#000000" fill-rule="nonzero" fill-opacity="1" /><path clip-path="url(#clip700)" d="M512.154 158.34 L512.154 172.09 L507.871 172.09 L507.871 136.303 L512.154 136.303 L512.154 140.238 Q513.496 137.923 515.533 136.812 Q517.594 135.678 520.441 135.678 Q525.163 135.678 528.103 139.428 Q531.066 143.178 531.066 149.289 Q531.066 155.4 528.103 159.15 Q525.163 162.9 520.441 162.9 Q517.594 162.9 515.533 161.789 Q513.496 160.655 512.154 158.34 M526.645 149.289 Q526.645 144.59 524.7 141.928 Q522.779 139.243 519.399 139.243 Q516.02 139.243 514.075 141.928 Q512.154 144.59 512.154 149.289 Q512.154 153.988 514.075 156.673 Q516.02 159.335 519.399 159.335 Q522.779 159.335 524.7 156.673 Q526.645 153.988 526.645 149.289 Z" fill="#000000" fill-rule="nonzero" fill-opacity="1" /><path clip-path="url(#clip700)" d="M549.908 149.196 Q544.746 149.196 542.756 150.377 Q540.765 151.557 540.765 154.405 Q540.765 156.673 542.246 158.016 Q543.751 159.335 546.32 159.335 Q549.862 159.335 551.992 156.835 Q554.144 154.312 554.144 150.145 L554.144 149.196 L549.908 149.196 M558.404 147.437 L558.404 162.229 L554.144 162.229 L554.144 158.293 Q552.686 160.655 550.51 161.789 Q548.334 162.9 545.186 162.9 Q541.205 162.9 538.844 160.678 Q536.506 158.432 536.506 154.682 Q536.506 150.307 539.422 148.085 Q542.362 145.863 548.172 145.863 L554.144 145.863 L554.144 145.446 Q554.144 142.507 552.2 140.909 Q550.279 139.289 546.783 139.289 Q544.561 139.289 542.455 139.821 Q540.348 140.354 538.404 141.419 L538.404 137.483 Q540.742 136.581 542.941 136.141 Q545.14 135.678 547.223 135.678 Q552.848 135.678 555.626 138.594 Q558.404 141.511 558.404 147.437 Z" fill="#000000" fill-rule="nonzero" fill-opacity="1" /><path clip-path="url(#clip700)" d="M585.834 137.298 L585.834 141.28 Q584.028 140.284 582.2 139.798 Q580.394 139.289 578.542 139.289 Q574.399 139.289 572.107 141.928 Q569.816 144.544 569.816 149.289 Q569.816 154.034 572.107 156.673 Q574.399 159.289 578.542 159.289 Q580.394 159.289 582.2 158.803 Q584.028 158.293 585.834 157.298 L585.834 161.233 Q584.052 162.067 582.13 162.483 Q580.232 162.9 578.079 162.9 Q572.223 162.9 568.774 159.219 Q565.325 155.539 565.325 149.289 Q565.325 142.946 568.797 139.312 Q572.292 135.678 578.357 135.678 Q580.325 135.678 582.2 136.095 Q584.075 136.488 585.834 137.298 Z" fill="#000000" fill-rule="nonzero" fill-opacity="1" /><path clip-path="url(#clip700)" d="M593.241 136.303 L597.501 136.303 L597.501 162.229 L593.241 162.229 L593.241 136.303 M593.241 126.21 L597.501 126.21 L597.501 131.604 L593.241 131.604 L593.241 126.21 Z" fill="#000000" fill-rule="nonzero" fill-opacity="1" /><path clip-path="url(#clip700)" d="M610.626 128.942 L610.626 136.303 L619.399 136.303 L619.399 139.613 L610.626 139.613 L610.626 153.687 Q610.626 156.858 611.482 157.761 Q612.362 158.664 615.024 158.664 L619.399 158.664 L619.399 162.229 L615.024 162.229 Q610.093 162.229 608.218 160.4 Q606.343 158.548 606.343 153.687 L606.343 139.613 L603.218 139.613 L603.218 136.303 L606.343 136.303 L606.343 128.942 L610.626 128.942 Z" fill="#000000" fill-rule="nonzero" fill-opacity="1" /><path clip-path="url(#clip700)" d="M635.047 139.289 Q631.621 139.289 629.63 141.974 Q627.639 144.636 627.639 149.289 Q627.639 153.942 629.607 156.627 Q631.598 159.289 635.047 159.289 Q638.449 159.289 640.44 156.604 Q642.431 153.918 642.431 149.289 Q642.431 144.682 640.44 141.997 Q638.449 139.289 635.047 139.289 M635.047 135.678 Q640.602 135.678 643.774 139.289 Q646.945 142.9 646.945 149.289 Q646.945 155.655 643.774 159.289 Q640.602 162.9 635.047 162.9 Q629.468 162.9 626.297 159.289 Q623.149 155.655 623.149 149.289 Q623.149 142.9 626.297 139.289 Q629.468 135.678 635.047 135.678 Z" fill="#000000" fill-rule="nonzero" fill-opacity="1" /><path clip-path="url(#clip700)" d="M669.028 140.284 Q668.31 139.868 667.454 139.682 Q666.621 139.474 665.602 139.474 Q661.991 139.474 660.047 141.835 Q658.125 144.173 658.125 148.571 L658.125 162.229 L653.843 162.229 L653.843 136.303 L658.125 136.303 L658.125 140.331 Q659.468 137.969 661.621 136.835 Q663.773 135.678 666.852 135.678 Q667.292 135.678 667.824 135.747 Q668.357 135.794 669.005 135.909 L669.028 140.284 Z" fill="#000000" fill-rule="nonzero" fill-opacity="1" /><path clip-path="url(#clip700)" d="M682.755 145.585 L682.755 152.807 L690.88 152.807 L690.88 155.006 L682.755 155.006 L682.755 162.229 L680.324 162.229 L680.324 155.006 L672.199 155.006 L672.199 152.807 L680.324 152.807 L680.324 145.585 L682.755 145.585 Z" fill="#000000" fill-rule="nonzero" fill-opacity="1" /><path clip-path="url(#clip700)" d="M695.463 136.303 L699.977 136.303 L708.079 158.062 L716.181 136.303 L720.694 136.303 L710.972 162.229 L705.185 162.229 L695.463 136.303 Z" fill="#000000" fill-rule="nonzero" fill-opacity="1" /></svg>
