<?xml version="1.0" encoding="utf-8"?>
<svg xmlns="http://www.w3.org/2000/svg" xmlns:xlink="http://www.w3.org/1999/xlink" width="600" height="400" viewBox="0 0 2400 1600">
<defs>
  <clipPath id="clip380">
    <rect x="0" y="0" width="2400" height="1600"/>
  </clipPath>
</defs>
<path clip-path="url(#clip380)" d="M0 1600 L2400 1600 L2400 0 L0 0  Z" fill="#ffffff" fill-rule="evenodd" fill-opacity="1"/>
<defs>
  <clipPath id="clip381">
    <rect x="480" y="0" width="1681" height="1600"/>
  </clipPath>
</defs>
<path clip-path="url(#clip380)" d="M192.941 1423.18 L2352.76 1423.18 L2352.76 47.2441 L192.941 47.2441  Z" fill="#ffffff" fill-rule="evenodd" fill-opacity="1"/>
<defs>
  <clipPath id="clip382">
    <rect x="192" y="47" width="2161" height="1377"/>
  </clipPath>
</defs>
<polyline clip-path="url(#clip382)" style="stroke:#000000; stroke-linecap:round; stroke-linejoin:round; stroke-width:2; stroke-opacity:0.1; fill:none" points="192.941,1423.18 192.941,47.2441 "/>
<polyline clip-path="url(#clip382)" style="stroke:#000000; stroke-linecap:round; stroke-linejoin:round; stroke-width:2; stroke-opacity:0.1; fill:none" points="624.904,1423.18 624.904,47.2441 "/>
<polyline clip-path="url(#clip382)" style="stroke:#000000; stroke-linecap:round; stroke-linejoin:round; stroke-width:2; stroke-opacity:0.1; fill:none" points="1056.87,1423.18 1056.87,47.2441 "/>
<polyline clip-path="url(#clip382)" style="stroke:#000000; stroke-linecap:round; stroke-linejoin:round; stroke-width:2; stroke-opacity:0.1; fill:none" points="1488.83,1423.18 1488.83,47.2441 "/>
<polyline clip-path="url(#clip382)" style="stroke:#000000; stroke-linecap:round; stroke-linejoin:round; stroke-width:2; stroke-opacity:0.1; fill:none" points="1920.79,1423.18 1920.79,47.2441 "/>
<polyline clip-path="url(#clip382)" style="stroke:#000000; stroke-linecap:round; stroke-linejoin:round; stroke-width:2; stroke-opacity:0.1; fill:none" points="2352.76,1423.18 2352.76,47.2441 "/>
<polyline clip-path="url(#clip382)" style="stroke:#000000; stroke-linecap:round; stroke-linejoin:round; stroke-width:2; stroke-opacity:0.1; fill:none" points="192.941,1315.96 2352.76,1315.96 "/>
<polyline clip-path="url(#clip382)" style="stroke:#000000; stroke-linecap:round; stroke-linejoin:round; stroke-width:2; stroke-opacity:0.1; fill:none" points="192.941,957.842 2352.76,957.842 "/>
<polyline clip-path="url(#clip382)" style="stroke:#000000; stroke-linecap:round; stroke-linejoin:round; stroke-width:2; stroke-opacity:0.1; fill:none" points="192.941,599.728 2352.76,599.728 "/>
<polyline clip-path="url(#clip382)" style="stroke:#000000; stroke-linecap:round; stroke-linejoin:round; stroke-width:2; stroke-opacity:0.1; fill:none" points="192.941,241.615 2352.76,241.615 "/>
<polyline clip-path="url(#clip380)" style="stroke:#000000; stroke-linecap:round; stroke-linejoin:round; stroke-width:4; stroke-opacity:1; fill:none" points="192.941,1423.18 2352.76,1423.18 "/>
<polyline clip-path="url(#clip380)" style="stroke:#000000; stroke-linecap:round; stroke-linejoin:round; stroke-width:4; stroke-opacity:1; fill:none" points="192.941,1423.18 192.941,1404.28 "/>
<polyline clip-path="url(#clip380)" style="stroke:#000000; stroke-linecap:round; stroke-linejoin:round; stroke-width:4; stroke-opacity:1; fill:none" points="624.904,1423.18 624.904,1404.28 "/>
<polyline clip-path="url(#clip380)" style="stroke:#000000; stroke-linecap:round; stroke-linejoin:round; stroke-width:4; stroke-opacity:1; fill:none" points="1056.87,1423.18 1056.87,1404.28 "/>
<polyline clip-path="url(#clip380)" style="stroke:#000000; stroke-linecap:round; stroke-linejoin:round; stroke-width:4; stroke-opacity:1; fill:none" points="1488.83,1423.18 1488.83,1404.28 "/>
<polyline clip-path="url(#clip380)" style="stroke:#000000; stroke-linecap:round; stroke-linejoin:round; stroke-width:4; stroke-opacity:1; fill:none" points="1920.79,1423.18 1920.79,1404.28 "/>
<polyline clip-path="url(#clip380)" style="stroke:#000000; stroke-linecap:round; stroke-linejoin:round; stroke-width:4; stroke-opacity:1; fill:none" points="2352.76,1423.18 2352.76,1404.28 "/>
<path clip-path="url(#clip380)" d="M192.941 1454.1 Q189.33 1454.1 187.501 1457.66 Q185.695 1461.2 185.695 1468.33 Q185.695 1475.44 187.501 1479.01 Q189.33 1482.55 192.941 1482.55 Q196.575 1482.55 198.38 1479.01 Q200.209 1475.44 200.209 1468.33 Q200.209 1461.2 198.38 1457.66 Q196.575 1454.1 192.941 1454.1 M192.941 1450.39 Q198.751 1450.39 201.806 1455 Q204.885 1459.58 204.885 1468.33 Q204.885 1477.06 201.806 1481.67 Q198.751 1486.25 192.941 1486.25 Q187.13 1486.25 184.052 1481.67 Q180.996 1477.06 180.996 1468.33 Q180.996 1459.58 184.052 1455 Q187.13 1450.39 192.941 1450.39 Z" fill="#000000" fill-rule="nonzero" fill-opacity="1" /><path clip-path="url(#clip380)" d="M619.556 1481.64 L635.876 1481.64 L635.876 1485.58 L613.932 1485.58 L613.932 1481.64 Q616.594 1478.89 621.177 1474.26 Q625.783 1469.61 626.964 1468.27 Q629.209 1465.74 630.089 1464.01 Q630.992 1462.25 630.992 1460.56 Q630.992 1457.8 629.047 1456.07 Q627.126 1454.33 624.024 1454.33 Q621.825 1454.33 619.371 1455.09 Q616.941 1455.86 614.163 1457.41 L614.163 1452.69 Q616.987 1451.55 619.441 1450.97 Q621.894 1450.39 623.931 1450.39 Q629.302 1450.39 632.496 1453.08 Q635.691 1455.77 635.691 1460.26 Q635.691 1462.39 634.88 1464.31 Q634.093 1466.2 631.987 1468.8 Q631.408 1469.47 628.306 1472.69 Q625.205 1475.88 619.556 1481.64 Z" fill="#000000" fill-rule="nonzero" fill-opacity="1" /><path clip-path="url(#clip380)" d="M1059.88 1455.09 L1048.07 1473.54 L1059.88 1473.54 L1059.88 1455.09 M1058.65 1451.02 L1064.53 1451.02 L1064.53 1473.54 L1069.46 1473.54 L1069.46 1477.43 L1064.53 1477.43 L1064.53 1485.58 L1059.88 1485.58 L1059.88 1477.43 L1044.27 1477.43 L1044.27 1472.92 L1058.65 1451.02 Z" fill="#000000" fill-rule="nonzero" fill-opacity="1" /><path clip-path="url(#clip380)" d="M1489.23 1466.44 Q1486.09 1466.44 1484.23 1468.59 Q1482.41 1470.74 1482.41 1474.49 Q1482.41 1478.22 1484.23 1480.39 Q1486.09 1482.55 1489.23 1482.55 Q1492.38 1482.55 1494.21 1480.39 Q1496.06 1478.22 1496.06 1474.49 Q1496.06 1470.74 1494.21 1468.59 Q1492.38 1466.44 1489.23 1466.44 M1498.52 1451.78 L1498.52 1456.04 Q1496.76 1455.21 1494.95 1454.77 Q1493.17 1454.33 1491.41 1454.33 Q1486.78 1454.33 1484.33 1457.45 Q1481.9 1460.58 1481.55 1466.9 Q1482.92 1464.89 1484.98 1463.82 Q1487.04 1462.73 1489.51 1462.73 Q1494.72 1462.73 1497.73 1465.9 Q1500.76 1469.05 1500.76 1474.49 Q1500.76 1479.82 1497.61 1483.03 Q1494.47 1486.25 1489.23 1486.25 Q1483.24 1486.25 1480.07 1481.67 Q1476.9 1477.06 1476.9 1468.33 Q1476.9 1460.14 1480.79 1455.28 Q1484.67 1450.39 1491.23 1450.39 Q1492.98 1450.39 1494.77 1450.74 Q1496.57 1451.09 1498.52 1451.78 Z" fill="#000000" fill-rule="nonzero" fill-opacity="1" /><path clip-path="url(#clip380)" d="M1920.79 1469.17 Q1917.46 1469.17 1915.54 1470.95 Q1913.64 1472.73 1913.64 1475.86 Q1913.64 1478.98 1915.54 1480.77 Q1917.46 1482.55 1920.79 1482.55 Q1924.13 1482.55 1926.05 1480.77 Q1927.97 1478.96 1927.97 1475.86 Q1927.97 1472.73 1926.05 1470.95 Q1924.15 1469.17 1920.79 1469.17 M1916.12 1467.18 Q1913.11 1466.44 1911.42 1464.38 Q1909.75 1462.32 1909.75 1459.35 Q1909.75 1455.21 1912.69 1452.8 Q1915.65 1450.39 1920.79 1450.39 Q1925.95 1450.39 1928.89 1452.8 Q1931.83 1455.21 1931.83 1459.35 Q1931.83 1462.32 1930.14 1464.38 Q1928.48 1466.44 1925.49 1467.18 Q1928.87 1467.96 1930.75 1470.26 Q1932.64 1472.55 1932.64 1475.86 Q1932.64 1480.88 1929.57 1483.57 Q1926.51 1486.25 1920.79 1486.25 Q1915.08 1486.25 1912 1483.57 Q1908.94 1480.88 1908.94 1475.86 Q1908.94 1472.55 1910.84 1470.26 Q1912.74 1467.96 1916.12 1467.18 M1914.4 1459.79 Q1914.4 1462.48 1916.07 1463.98 Q1917.76 1465.49 1920.79 1465.49 Q1923.8 1465.49 1925.49 1463.98 Q1927.2 1462.48 1927.2 1459.79 Q1927.2 1457.11 1925.49 1455.6 Q1923.8 1454.1 1920.79 1454.1 Q1917.76 1454.1 1916.07 1455.6 Q1914.4 1457.11 1914.4 1459.79 Z" fill="#000000" fill-rule="nonzero" fill-opacity="1" /><path clip-path="url(#clip380)" d="M2327.44 1481.64 L2335.08 1481.64 L2335.08 1455.28 L2326.77 1456.95 L2326.77 1452.69 L2335.04 1451.02 L2339.71 1451.02 L2339.71 1481.64 L2347.35 1481.64 L2347.35 1485.58 L2327.44 1485.58 L2327.44 1481.64 Z" fill="#000000" fill-rule="nonzero" fill-opacity="1" /><path clip-path="url(#clip380)" d="M2366.8 1454.1 Q2363.18 1454.1 2361.36 1457.66 Q2359.55 1461.2 2359.55 1468.33 Q2359.55 1475.44 2361.36 1479.01 Q2363.18 1482.55 2366.8 1482.55 Q2370.43 1482.55 2372.23 1479.01 Q2374.06 1475.44 2374.06 1468.33 Q2374.06 1461.2 2372.23 1457.66 Q2370.43 1454.1 2366.8 1454.1 M2366.8 1450.39 Q2372.61 1450.39 2375.66 1455 Q2378.74 1459.58 2378.74 1468.33 Q2378.74 1477.06 2375.66 1481.67 Q2372.61 1486.25 2366.8 1486.25 Q2360.99 1486.25 2357.91 1481.67 Q2354.85 1477.06 2354.85 1468.33 Q2354.85 1459.58 2357.91 1455 Q2360.99 1450.39 2366.8 1450.39 Z" fill="#000000" fill-rule="nonzero" fill-opacity="1" /><path clip-path="url(#clip380)" d="M1271.91 1522.27 L1271.91 1532.4 L1283.97 1532.4 L1283.97 1536.95 L1271.91 1536.95 L1271.91 1556.3 Q1271.91 1560.66 1273.09 1561.9 Q1274.3 1563.14 1277.96 1563.14 L1283.97 1563.14 L1283.97 1568.04 L1277.96 1568.04 Q1271.18 1568.04 1268.6 1565.53 Q1266.02 1562.98 1266.02 1556.3 L1266.02 1536.95 L1261.72 1536.95 L1261.72 1532.4 L1266.02 1532.4 L1266.02 1522.27 L1271.91 1522.27 Z" fill="#000000" fill-rule="nonzero" fill-opacity="1" /><polyline clip-path="url(#clip380)" style="stroke:#000000; stroke-linecap:round; stroke-linejoin:round; stroke-width:4; stroke-opacity:1; fill:none" points="192.941,1423.18 192.941,47.2441 "/>
<polyline clip-path="url(#clip380)" style="stroke:#000000; stroke-linecap:round; stroke-linejoin:round; stroke-width:4; stroke-opacity:1; fill:none" points="192.941,1315.96 211.838,1315.96 "/>
<polyline clip-path="url(#clip380)" style="stroke:#000000; stroke-linecap:round; stroke-linejoin:round; stroke-width:4; stroke-opacity:1; fill:none" points="192.941,957.842 211.838,957.842 "/>
<polyline clip-path="url(#clip380)" style="stroke:#000000; stroke-linecap:round; stroke-linejoin:round; stroke-width:4; stroke-opacity:1; fill:none" points="192.941,599.728 211.838,599.728 "/>
<polyline clip-path="url(#clip380)" style="stroke:#000000; stroke-linecap:round; stroke-linejoin:round; stroke-width:4; stroke-opacity:1; fill:none" points="192.941,241.615 211.838,241.615 "/>
<path clip-path="url(#clip380)" d="M50.9921 1316.41 L80.6679 1316.41 L80.6679 1320.34 L50.9921 1320.34 L50.9921 1316.41 Z" fill="#000000" fill-rule="nonzero" fill-opacity="1" /><path clip-path="url(#clip380)" d="M100.76 1301.75 Q97.1493 1301.75 95.3206 1305.32 Q93.515 1308.86 93.515 1315.99 Q93.515 1323.1 95.3206 1326.66 Q97.1493 1330.2 100.76 1330.2 Q104.395 1330.2 106.2 1326.66 Q108.029 1323.1 108.029 1315.99 Q108.029 1308.86 106.2 1305.32 Q104.395 1301.75 100.76 1301.75 M100.76 1298.05 Q106.571 1298.05 109.626 1302.66 Q112.705 1307.24 112.705 1315.99 Q112.705 1324.72 109.626 1329.32 Q106.571 1333.91 100.76 1333.91 Q94.9502 1333.91 91.8715 1329.32 Q88.816 1324.72 88.816 1315.99 Q88.816 1307.24 91.8715 1302.66 Q94.9502 1298.05 100.76 1298.05 Z" fill="#000000" fill-rule="nonzero" fill-opacity="1" /><path clip-path="url(#clip380)" d="M120.922 1327.36 L125.807 1327.36 L125.807 1333.24 L120.922 1333.24 L120.922 1327.36 Z" fill="#000000" fill-rule="nonzero" fill-opacity="1" /><path clip-path="url(#clip380)" d="M136.038 1298.68 L154.394 1298.68 L154.394 1302.61 L140.32 1302.61 L140.32 1311.08 Q141.339 1310.74 142.357 1310.57 Q143.376 1310.39 144.394 1310.39 Q150.181 1310.39 153.561 1313.56 Q156.941 1316.73 156.941 1322.15 Q156.941 1327.73 153.468 1330.83 Q149.996 1333.91 143.677 1333.91 Q141.501 1333.91 139.232 1333.54 Q136.987 1333.17 134.58 1332.43 L134.58 1327.73 Q136.663 1328.86 138.885 1329.42 Q141.107 1329.97 143.584 1329.97 Q147.589 1329.97 149.927 1327.87 Q152.265 1325.76 152.265 1322.15 Q152.265 1318.54 149.927 1316.43 Q147.589 1314.32 143.584 1314.32 Q141.709 1314.32 139.834 1314.74 Q137.982 1315.16 136.038 1316.04 L136.038 1298.68 Z" fill="#000000" fill-rule="nonzero" fill-opacity="1" /><path clip-path="url(#clip380)" d="M99.765 943.641 Q96.1539 943.641 94.3252 947.205 Q92.5197 950.747 92.5197 957.877 Q92.5197 964.983 94.3252 968.548 Q96.1539 972.089 99.765 972.089 Q103.399 972.089 105.205 968.548 Q107.033 964.983 107.033 957.877 Q107.033 950.747 105.205 947.205 Q103.399 943.641 99.765 943.641 M99.765 939.937 Q105.575 939.937 108.631 944.543 Q111.709 949.127 111.709 957.877 Q111.709 966.603 108.631 971.21 Q105.575 975.793 99.765 975.793 Q93.9549 975.793 90.8762 971.21 Q87.8206 966.603 87.8206 957.877 Q87.8206 949.127 90.8762 944.543 Q93.9549 939.937 99.765 939.937 Z" fill="#000000" fill-rule="nonzero" fill-opacity="1" /><path clip-path="url(#clip380)" d="M119.927 969.242 L124.811 969.242 L124.811 975.122 L119.927 975.122 L119.927 969.242 Z" fill="#000000" fill-rule="nonzero" fill-opacity="1" /><path clip-path="url(#clip380)" d="M144.996 943.641 Q141.385 943.641 139.556 947.205 Q137.751 950.747 137.751 957.877 Q137.751 964.983 139.556 968.548 Q141.385 972.089 144.996 972.089 Q148.63 972.089 150.436 968.548 Q152.265 964.983 152.265 957.877 Q152.265 950.747 150.436 947.205 Q148.63 943.641 144.996 943.641 M144.996 939.937 Q150.806 939.937 153.862 944.543 Q156.941 949.127 156.941 957.877 Q156.941 966.603 153.862 971.21 Q150.806 975.793 144.996 975.793 Q139.186 975.793 136.107 971.21 Q133.052 966.603 133.052 957.877 Q133.052 949.127 136.107 944.543 Q139.186 939.937 144.996 939.937 Z" fill="#000000" fill-rule="nonzero" fill-opacity="1" /><path clip-path="url(#clip380)" d="M100.76 585.527 Q97.1493 585.527 95.3206 589.092 Q93.515 592.633 93.515 599.763 Q93.515 606.869 95.3206 610.434 Q97.1493 613.976 100.76 613.976 Q104.395 613.976 106.2 610.434 Q108.029 606.869 108.029 599.763 Q108.029 592.633 106.2 589.092 Q104.395 585.527 100.76 585.527 M100.76 581.823 Q106.571 581.823 109.626 586.43 Q112.705 591.013 112.705 599.763 Q112.705 608.49 109.626 613.096 Q106.571 617.68 100.76 617.68 Q94.9502 617.68 91.8715 613.096 Q88.816 608.49 88.816 599.763 Q88.816 591.013 91.8715 586.43 Q94.9502 581.823 100.76 581.823 Z" fill="#000000" fill-rule="nonzero" fill-opacity="1" /><path clip-path="url(#clip380)" d="M120.922 611.129 L125.807 611.129 L125.807 617.008 L120.922 617.008 L120.922 611.129 Z" fill="#000000" fill-rule="nonzero" fill-opacity="1" /><path clip-path="url(#clip380)" d="M136.038 582.448 L154.394 582.448 L154.394 586.383 L140.32 586.383 L140.32 594.856 Q141.339 594.508 142.357 594.346 Q143.376 594.161 144.394 594.161 Q150.181 594.161 153.561 597.332 Q156.941 600.504 156.941 605.92 Q156.941 611.499 153.468 614.601 Q149.996 617.68 143.677 617.68 Q141.501 617.68 139.232 617.309 Q136.987 616.939 134.58 616.198 L134.58 611.499 Q136.663 612.633 138.885 613.189 Q141.107 613.744 143.584 613.744 Q147.589 613.744 149.927 611.638 Q152.265 609.532 152.265 605.92 Q152.265 602.309 149.927 600.203 Q147.589 598.096 143.584 598.096 Q141.709 598.096 139.834 598.513 Q137.982 598.93 136.038 599.809 L136.038 582.448 Z" fill="#000000" fill-rule="nonzero" fill-opacity="1" /><path clip-path="url(#clip380)" d="M90.5752 254.96 L98.2141 254.96 L98.2141 228.594 L89.904 230.261 L89.904 226.001 L98.1678 224.335 L102.844 224.335 L102.844 254.96 L110.483 254.96 L110.483 258.895 L90.5752 258.895 L90.5752 254.96 Z" fill="#000000" fill-rule="nonzero" fill-opacity="1" /><path clip-path="url(#clip380)" d="M119.927 253.015 L124.811 253.015 L124.811 258.895 L119.927 258.895 L119.927 253.015 Z" fill="#000000" fill-rule="nonzero" fill-opacity="1" /><path clip-path="url(#clip380)" d="M144.996 227.413 Q141.385 227.413 139.556 230.978 Q137.751 234.52 137.751 241.65 Q137.751 248.756 139.556 252.321 Q141.385 255.862 144.996 255.862 Q148.63 255.862 150.436 252.321 Q152.265 248.756 152.265 241.65 Q152.265 234.52 150.436 230.978 Q148.63 227.413 144.996 227.413 M144.996 223.71 Q150.806 223.71 153.862 228.316 Q156.941 232.9 156.941 241.65 Q156.941 250.376 153.862 254.983 Q150.806 259.566 144.996 259.566 Q139.186 259.566 136.107 254.983 Q133.052 250.376 133.052 241.65 Q133.052 232.9 136.107 228.316 Q139.186 223.71 144.996 223.71 Z" fill="#000000" fill-rule="nonzero" fill-opacity="1" /><polyline clip-path="url(#clip382)" style="stroke:#009af9; stroke-linecap:round; stroke-linejoin:round; stroke-width:4; stroke-opacity:1; fill:none" points="192.941,957.842 195.103,948.833 197.265,939.943 199.427,931.171 201.589,922.515 203.751,913.974 205.912,905.547 208.074,897.231 210.236,889.025 212.398,880.928 214.56,872.939 216.722,865.055 218.884,857.276 221.046,849.6 223.208,842.026 225.37,834.552 227.532,827.177 229.694,819.9 231.856,812.72 234.018,805.635 236.18,798.643 238.342,791.745 240.504,784.938 242.666,778.221 244.828,771.593 246.99,765.053 249.152,758.6 251.314,752.232 253.476,745.949 255.638,739.749 257.8,733.631 259.962,727.594 262.124,721.638 264.286,715.76 266.448,709.96 268.61,704.238 270.772,698.591 272.934,693.018 275.096,687.52 277.258,682.095 279.42,676.741 281.582,671.459 283.744,666.246 285.906,661.103 288.068,656.028 290.23,651.02 292.392,646.079 294.554,641.203 296.716,636.392 298.878,631.644 301.039,626.96 303.201,622.337 305.363,617.776 307.525,613.276 309.687,608.835 311.849,604.453 314.011,600.129 316.173,595.862 318.335,591.652 320.497,587.497 322.659,583.398 324.821,579.353 326.983,575.362 329.145,571.423 331.307,567.537 333.469,563.703 335.631,559.919 337.793,556.185 339.955,552.501 342.117,548.866 344.279,545.279 346.441,541.739 348.603,538.247 350.765,534.801 352.927,531.4 355.089,528.045 357.251,524.734 359.413,521.467 361.575,518.243 363.737,515.062 365.899,511.923 368.061,508.826 370.223,505.77 372.385,502.754 374.547,499.778 376.709,496.842 378.871,493.945 381.033,491.086 383.195,488.265 385.357,485.481 387.519,482.735 389.681,480.024 391.843,477.35 394.005,474.711 396.166,472.107 398.328,469.923 400.49,469.269 402.652,469.988 404.814,471.845 406.976,474.624 409.138,478.129 411.3,482.179 413.462,486.617 415.624,491.3 417.786,496.107 419.948,500.934 422.11,505.698 424.272,510.331 426.434,514.788 428.596,519.041 430.758,523.079 432.92,526.913 435.082,530.571 437.244,534.1 439.406,537.566 441.568,541.055 443.73,544.621 445.892,548.153 448.054,551.639 450.216,555.079 452.378,558.473 454.54,561.822 456.702,565.127 458.864,568.388 461.026,571.605 463.188,574.78 465.35,577.913 467.512,581.005 469.674,584.055 471.836,587.066 473.998,590.036 476.16,592.967 478.322,595.859 480.484,598.713 482.646,601.529 484.808,604.308 486.97,607.049 489.132,609.755 491.293,612.424 493.455,615.058 495.617,617.657 497.779,620.222 499.941,622.752 502.103,625.249 504.265,627.713 506.427,630.144 508.589,632.543 510.751,634.91 512.913,637.245 515.075,639.55 517.237,641.823 519.399,644.067 521.561,646.281 523.723,648.466 525.885,650.621 528.047,652.748 530.209,654.847 532.371,656.918 534.533,658.962 536.695,660.978 538.857,662.968 541.019,664.931 543.181,666.869 545.343,668.78 547.505,670.667 549.667,672.528 551.829,674.365 553.991,676.178 556.153,677.966 558.315,679.731 560.477,681.473 562.639,683.191 564.801,684.887 566.963,686.56 569.125,688.211 571.287,689.84 573.449,691.447 575.611,693.033 577.773,694.598 579.935,696.143 582.097,697.667 584.259,699.17 586.42,700.654 588.582,702.118 590.744,703.562 592.906,704.988 595.068,706.394 597.23,707.782 599.392,709.152 601.554,710.503 603.716,711.836 605.878,713.152 608.04,714.45 610.202,715.732 612.364,716.996 614.526,718.243 616.688,719.474 618.85,720.688 621.012,721.887 623.174,723.07 625.336,724.346 627.498,725.783 629.66,727.364 631.822,729.075 633.984,730.901 636.146,732.83 638.308,734.847 640.47,736.942 642.632,739.102 644.794,741.315 646.956,743.572 649.118,745.862 651.28,748.176 653.442,750.504 655.604,752.84 657.766,755.175 659.928,757.503 662.09,759.816 664.252,762.109 666.414,764.377 668.576,766.615 670.738,768.819 672.9,770.986 675.062,773.113 677.224,775.197 679.386,777.237 681.547,779.231 683.709,781.18 685.871,783.084 688.033,784.942 690.195,786.757 692.357,788.53 694.519,790.264 696.681,791.962 698.843,793.627 701.005,795.264 703.167,796.878 705.329,798.474 707.491,800.058 709.653,801.636 711.815,803.214 713.977,804.773 716.139,806.312 718.301,807.83 720.463,809.329 722.625,810.807 724.787,812.266 726.949,813.705 729.111,815.126 731.273,816.527 733.435,817.91 735.597,819.275 737.759,820.621 739.921,821.95 742.083,823.261 744.245,824.555 746.407,825.831 748.569,827.091 750.731,828.334 752.893,829.56 755.055,830.77 757.217,831.964 759.379,833.142 761.541,834.305 763.703,835.452 765.865,836.584 768.027,837.701 770.189,838.804 772.351,839.891 774.513,840.964 776.674,842.023 778.836,843.068 780.998,844.099 783.16,845.117 785.322,846.121 787.484,847.111 789.646,848.089 791.808,849.053 793.97,850.005 796.132,850.944 798.294,851.871 800.456,852.785 802.618,853.687 804.78,854.578 806.942,855.456 809.104,856.323 811.266,857.178 813.428,858.022 815.59,858.855 817.752,859.677 819.914,860.488 822.076,861.288 824.238,862.077 826.4,862.856 828.562,863.625 830.724,864.383 832.886,865.132 835.048,865.87 837.21,866.599 839.372,867.318 841.534,868.477 843.696,870.487 845.858,873.232 848.02,876.6 850.182,880.487 852.344,884.799 854.506,889.446 856.668,894.346 858.83,899.426 860.992,904.619 863.154,909.866 865.316,915.114 867.478,920.319 869.64,925.442 871.801,930.455 873.963,935.334 876.125,940.063 878.287,944.635 880.449,949.048 882.611,953.309 884.773,957.432 886.935,961.438 889.097,965.354 891.259,969.218 893.421,973.072 895.583,976.963 897.745,980.84 899.907,984.665 902.069,988.44 904.231,992.164 906.393,995.839 908.555,999.465 910.717,1003.04 912.879,1006.57 915.041,1010.06 917.203,1013.5 919.365,1016.89 921.527,1020.24 923.689,1023.54 925.851,1026.8 928.013,1030.01 930.175,1033.19 932.337,1036.32 934.499,1039.41 936.661,1042.46 938.823,1045.46 940.985,1048.43 943.147,1051.36 945.309,1054.25 947.471,1057.1 949.633,1059.92 951.795,1062.7 953.957,1065.44 956.119,1068.14 958.281,1070.81 960.443,1073.44 962.605,1076.04 964.767,1078.6 966.928,1081.13 969.09,1083.62 971.252,1086.09 973.414,1088.52 975.576,1090.91 977.738,1093.28 979.9,1095.61 982.062,1097.92 984.224,1100.19 986.386,1102.43 988.548,1104.65 990.71,1106.83 992.872,1108.98 995.034,1111.11 997.196,1113.21 999.358,1115.28 1001.52,1117.32 1003.68,1119.34 1005.84,1121.33 1008.01,1123.29 1010.17,1125.23 1012.33,1127.14 1014.49,1129.02 1016.65,1130.88 1018.82,1132.72 1020.98,1134.53 1023.14,1136.32 1025.3,1138.08 1027.46,1139.82 1029.63,1141.54 1031.79,1143.23 1033.95,1144.91 1036.11,1146.56 1038.27,1148.18 1040.44,1149.79 1042.6,1151.38 1044.76,1152.94 1046.92,1154.48 1049.08,1156.01 1051.25,1157.51 1053.41,1158.99 1055.57,1160.24 1057.73,1160.62 1059.89,1160.17 1062.06,1159 1064.22,1157.2 1066.38,1154.86 1068.54,1152.06 1070.7,1148.87 1072.87,1145.37 1075.03,1141.62 1077.19,1137.69 1079.35,1133.63 1081.51,1129.49 1083.68,1125.32 1085.84,1121.16 1088,1117.04 1090.16,1113 1092.32,1109.05 1094.49,1105.22 1096.65,1101.52 1098.81,1097.96 1100.97,1094.55 1103.13,1091.28 1105.3,1088.15 1107.46,1085.14 1109.62,1082.24 1111.78,1079.42 1113.94,1076.67 1116.1,1073.94 1118.27,1071.19 1120.43,1068.4 1122.59,1065.58 1124.75,1062.81 1126.91,1060.07 1129.08,1057.37 1131.24,1054.71 1133.4,1052.08 1135.56,1049.48 1137.72,1046.92 1139.89,1044.39 1142.05,1041.9 1144.21,1039.44 1146.37,1037.01 1148.53,1034.62 1150.7,1032.25 1152.86,1029.92 1155.02,1027.62 1157.18,1025.35 1159.34,1023.11 1161.51,1020.89 1163.67,1018.71 1165.83,1016.56 1167.99,1014.44 1170.15,1012.34 1172.32,1010.27 1174.48,1008.23 1176.64,1006.21 1178.8,1004.23 1180.96,1002.27 1183.13,1000.33 1185.29,998.421 1187.45,996.537 1189.61,994.678 1191.77,992.844 1193.94,991.034 1196.1,989.248 1198.26,987.486 1200.42,985.747 1202.58,984.031 1204.75,982.338 1206.91,980.668 1209.07,979.019 1211.23,977.393 1213.39,975.788 1215.56,974.204 1217.72,972.642 1219.88,971.1 1222.04,969.579 1224.2,968.077 1226.37,966.596 1228.53,965.134 1230.69,963.692 1232.85,962.269 1235.01,960.864 1237.18,959.479 1239.34,958.111 1241.5,956.762 1243.66,955.431 1245.82,954.117 1247.99,952.82 1250.15,951.541 1252.31,950.279 1254.47,949.033 1256.63,947.804 1258.8,946.591 1260.96,945.394 1263.12,944.214 1265.28,943.048 1267.44,941.762 1269.61,938.841 1271.77,934.087 1273.93,927.768 1276.09,920.136 1278.25,911.425 1280.42,901.851 1282.58,891.612 1284.74,880.888 1286.9,869.844 1289.06,858.623 1291.23,847.355 1293.39,836.149 1295.55,825.098 1297.71,814.277 1299.87,803.743 1302.03,793.536 1304.2,783.677 1306.36,774.172 1308.52,765.006 1310.68,756.149 1312.84,747.553 1315.01,739.151 1317.17,730.86 1319.33,722.577 1321.49,714.202 1323.65,705.876 1325.82,697.66 1327.98,689.553 1330.14,681.554 1332.3,673.66 1334.46,665.871 1336.63,658.186 1338.79,650.602 1340.95,643.119 1343.11,635.735 1345.27,628.45 1347.44,621.26 1349.6,614.166 1351.76,607.166 1353.92,600.259 1356.08,593.444 1358.25,586.718 1360.41,580.082 1362.57,573.534 1364.73,567.073 1366.89,560.697 1369.06,554.406 1371.22,548.198 1373.38,542.073 1375.54,536.028 1377.7,530.064 1379.87,524.179 1382.03,518.371 1384.19,512.641 1386.35,506.987 1388.51,501.408 1390.68,495.903 1392.84,490.471 1395,485.111 1397.16,479.822 1399.32,474.603 1401.49,469.454 1403.65,464.372 1405.81,459.358 1407.97,454.411 1410.13,449.529 1412.3,444.712 1414.46,439.959 1416.62,435.269 1418.78,430.641 1420.94,426.075 1423.11,421.568 1425.27,417.122 1427.43,412.735 1429.59,408.405 1431.75,404.133 1433.92,399.918 1436.08,395.759 1438.24,391.654 1440.4,387.604 1442.56,383.608 1444.73,379.665 1446.89,375.774 1449.05,371.935 1451.21,368.146 1453.37,364.408 1455.54,360.719 1457.7,357.08 1459.86,353.488 1462.02,349.944 1464.18,346.447 1466.35,342.997 1468.51,339.592 1470.67,336.232 1472.83,332.917 1474.99,329.646 1477.16,326.418 1479.32,323.233 1481.48,321.208 1483.64,322.156 1485.8,325.558 1487.97,330.891 1490.13,337.685 1492.29,345.522 1494.45,354.036 1496.61,362.914 1498.77,371.898 1500.94,380.78 1503.1,389.405 1505.26,397.672 1507.42,405.532 1509.58,412.987 1511.75,420.095 1513.91,426.965 1516.07,433.757 1518.23,440.669 1520.39,447.577 1522.56,454.394 1524.72,461.12 1526.88,467.757 1529.04,474.305 1531.2,480.767 1533.37,487.144 1535.53,493.436 1537.69,499.644 1539.85,505.771 1542.01,511.816 1544.18,517.781 1546.34,523.667 1548.5,529.476 1550.66,535.207 1552.82,540.862 1554.99,546.442 1557.15,551.948 1559.31,557.381 1561.47,562.742 1563.63,568.032 1565.8,573.251 1567.96,578.402 1570.12,583.484 1572.28,588.498 1574.44,593.446 1576.61,598.329 1578.77,603.146 1580.93,607.9 1583.09,612.59 1585.25,617.219 1587.42,621.786 1589.58,626.292 1591.74,630.739 1593.9,635.126 1596.06,639.456 1598.23,643.728 1600.39,647.943 1602.55,652.103 1604.71,656.208 1606.87,660.258 1609.04,664.254 1611.2,668.198 1613.36,672.089 1615.52,675.929 1617.68,679.718 1619.85,683.457 1622.01,687.146 1624.17,690.786 1626.33,694.378 1628.49,697.923 1630.66,701.42 1632.82,704.871 1634.98,708.276 1637.14,711.637 1639.3,714.952 1641.47,718.224 1643.63,721.452 1645.79,724.637 1647.95,727.78 1650.11,730.882 1652.28,733.942 1654.44,736.962 1656.6,739.942 1658.76,742.882 1660.92,745.783 1663.09,748.646 1665.25,751.471 1667.41,754.258 1669.57,757.008 1671.73,759.722 1673.9,762.4 1676.06,765.043 1678.22,767.65 1680.38,770.223 1682.54,772.762 1684.7,775.267 1686.87,777.739 1689.03,780.178 1691.19,782.585 1693.35,784.96 1695.51,787.303 1697.68,789.615 1699.84,791.897 1702,794.838 1704.16,799.503 1706.32,805.491 1708.49,812.417 1710.65,819.947 1712.81,827.8 1714.97,835.747 1717.13,843.609 1719.3,851.262 1721.46,858.631 1723.62,865.694 1725.78,872.483 1727.94,879.077 1730.11,885.613 1732.27,892.206 1734.43,898.73 1736.59,905.166 1738.75,911.518 1740.92,917.785 1743.08,923.97 1745.24,930.072 1747.4,936.093 1749.56,942.035 1751.73,947.898 1753.89,953.683 1756.05,959.391 1758.21,965.024 1760.37,970.582 1762.54,976.066 1764.7,981.478 1766.86,986.818 1769.02,992.087 1771.18,997.286 1773.35,1002.42 1775.51,1007.48 1777.67,1012.47 1779.83,1017.4 1781.99,1022.27 1784.16,1027.06 1786.32,1031.8 1788.48,1036.47 1790.64,1041.08 1792.8,1045.63 1794.97,1050.12 1797.13,1054.55 1799.29,1058.92 1801.45,1063.24 1803.61,1067.49 1805.78,1071.69 1807.94,1075.83 1810.1,1079.92 1812.26,1083.96 1814.42,1087.94 1816.59,1091.87 1818.75,1095.74 1820.91,1099.57 1823.07,1103.34 1825.23,1107.07 1827.4,1110.74 1829.56,1114.37 1831.72,1117.95 1833.88,1121.48 1836.04,1124.96 1838.21,1128.4 1840.37,1131.79 1842.53,1135.14 1844.69,1138.44 1846.85,1141.7 1849.02,1144.91 1851.18,1148.09 1853.34,1151.22 1855.5,1154.31 1857.66,1157.35 1859.83,1160.36 1861.99,1163.33 1864.15,1166.26 1866.31,1169.15 1868.47,1172 1870.63,1174.82 1872.8,1177.59 1874.96,1180.33 1877.12,1183.03 1879.28,1185.7 1881.44,1188.33 1883.61,1190.93 1885.77,1193.49 1887.93,1196.02 1890.09,1198.52 1892.25,1200.98 1894.42,1203.41 1896.58,1205.81 1898.74,1208.17 1900.9,1210.51 1903.06,1212.81 1905.23,1215.08 1907.39,1217.33 1909.55,1219.54 1911.71,1221.72 1913.87,1223.88 1916.04,1226 1918.2,1227.83 1920.36,1226.93 1922.52,1223.11 1924.68,1216.81 1926.85,1208.43 1929.01,1198.35 1931.17,1186.91 1933.33,1174.42 1935.49,1161.18 1937.66,1147.45 1939.82,1133.44 1941.98,1119.36 1944.14,1105.39 1946.3,1091.65 1948.47,1078.27 1950.63,1065.32 1952.79,1052.86 1954.95,1040.91 1957.11,1029.47 1959.28,1018.5 1961.44,1007.94 1963.6,997.698 1965.76,987.645 1967.92,977.634 1970.09,967.483 1972.25,957.25 1974.41,947.152 1976.57,937.188 1978.73,927.356 1980.9,917.654 1983.06,908.082 1985.22,898.636 1987.38,889.315 1989.54,880.118 1991.71,871.043 1993.87,862.088 1996.03,853.252 1998.19,844.533 2000.35,835.929 2002.52,827.44 2004.68,819.063 2006.84,810.797 2009,802.641 2011.16,794.593 2013.33,786.651 2015.49,778.815 2017.65,771.082 2019.81,763.452 2021.97,755.924 2024.14,748.495 2026.3,741.165 2028.46,733.932 2030.62,726.795 2032.78,719.752 2034.95,712.803 2037.11,705.946 2039.27,699.18 2041.43,692.504 2043.59,685.917 2045.76,679.416 2047.92,673.002 2050.08,666.673 2052.24,660.428 2054.4,654.266 2056.57,648.185 2058.73,642.185 2060.89,636.264 2063.05,630.422 2065.21,624.657 2067.37,618.969 2069.54,613.356 2071.7,607.818 2073.86,602.353 2076.02,596.96 2078.18,591.639 2080.35,586.388 2082.51,581.207 2084.67,576.095 2086.83,571.05 2088.99,566.072 2091.16,561.161 2093.32,556.314 2095.48,551.532 2097.64,546.813 2099.8,542.157 2101.97,537.562 2104.13,533.029 2106.29,528.555 2108.45,524.141 2110.61,519.786 2112.78,515.488 2114.94,511.247 2117.1,507.063 2119.26,502.933 2121.42,498.859 2123.59,494.839 2125.75,490.872 2127.91,486.957 2130.07,483.094 2132.23,479.283 2134.4,475.522 2136.56,472.993 2138.72,472.941 2140.88,475.086 2143.04,479.158 2145.21,484.903 2147.37,492.082 2149.53,500.469 2151.69,509.853 2153.85,520.04 2156.02,530.848 2158.18,542.111 2160.34,553.677 2162.5,565.41 2164.66,577.188 2166.83,588.902 2168.99,600.459 2171.15,611.783 2173.31,622.809 2175.47,633.489 2177.64,643.789 2179.8,653.688 2181.96,663.183 2184.12,672.284 2186.28,681.015 2188.45,689.416 2190.61,697.541 2192.77,705.458 2194.93,713.252 2197.09,721.02 2199.26,728.875 2201.42,736.878 2203.58,744.809 2205.74,752.635 2207.9,760.357 2210.07,767.976 2212.23,775.494 2214.39,782.913 2216.55,790.233 2218.71,797.457 2220.88,804.584 2223.04,811.617 2225.2,818.557 2227.36,825.405 2229.52,832.162 2231.69,838.829 2233.85,845.408 2236.01,851.9 2238.17,858.306 2240.33,864.627 2242.5,870.864 2244.66,877.018 2246.82,883.092 2248.98,889.085 2251.14,894.998 2253.3,900.833 2255.47,906.591 2257.63,912.272 2259.79,917.879 2261.95,923.41 2264.11,928.869 2266.28,934.255 2268.44,939.569 2270.6,944.813 2272.76,949.987 2274.92,955.093 2277.09,960.131 2279.25,965.101 2281.41,970.006 2283.57,974.846 2285.73,979.622 2287.9,984.334 2290.06,988.983 2292.22,993.571 2294.38,998.098 2296.54,1002.57 2298.71,1006.97 2300.87,1011.32 2303.03,1015.61 2305.19,1019.85 2307.35,1024.03 2309.52,1028.15 2311.68,1032.22 2313.84,1036.23 2316,1040.19 2318.16,1044.1 2320.33,1047.96 2322.49,1051.77 2324.65,1055.52 2326.81,1059.23 2328.97,1062.88 2331.14,1066.49 2333.3,1070.05 2335.46,1073.57 2337.62,1077.03 2339.78,1080.45 2341.95,1083.83 2344.11,1087.16 2346.27,1090.45 2348.43,1093.69 2350.59,1096.89 2352.76,1100.05 "/>
<polyline clip-path="url(#clip382)" style="stroke:#e26f46; stroke-linecap:round; stroke-linejoin:round; stroke-width:4; stroke-opacity:1; fill:none" points="192.941,278.309 195.103,278.309 197.265,278.309 199.427,278.309 201.589,278.309 203.751,278.309 205.912,278.309 208.074,278.309 210.236,278.309 212.398,278.309 214.56,278.309 216.722,278.309 218.884,278.309 221.046,278.309 223.208,278.309 225.37,278.309 227.532,278.309 229.694,278.309 231.856,278.309 234.018,278.309 236.18,278.309 238.342,278.309 240.504,278.309 242.666,278.309 244.828,278.309 246.99,278.309 249.152,278.309 251.314,278.309 253.476,278.309 255.638,278.309 257.8,278.309 259.962,278.309 262.124,278.309 264.286,278.309 266.448,278.309 268.61,278.309 270.772,278.309 272.934,278.309 275.096,278.309 277.258,278.309 279.42,278.309 281.582,278.309 283.744,278.309 285.906,278.309 288.068,278.309 290.23,278.309 292.392,278.309 294.554,278.309 296.716,278.309 298.878,278.309 301.039,278.309 303.201,278.309 305.363,278.309 307.525,278.309 309.687,278.309 311.849,278.309 314.011,278.309 316.173,278.309 318.335,278.309 320.497,278.309 322.659,278.309 324.821,278.309 326.983,278.309 329.145,278.309 331.307,278.309 333.469,278.309 335.631,278.309 337.793,278.309 339.955,278.309 342.117,278.309 344.279,278.309 346.441,278.309 348.603,278.309 350.765,278.309 352.927,278.309 355.089,278.309 357.251,278.309 359.413,278.309 361.575,278.309 363.737,278.309 365.899,278.309 368.061,278.309 370.223,278.309 372.385,278.309 374.547,278.309 376.709,278.309 378.871,278.309 381.033,278.309 383.195,278.309 385.357,278.309 387.519,278.309 389.681,278.309 391.843,278.309 394.005,278.309 396.166,278.309 398.328,278.309 400.49,278.309 402.652,278.309 404.814,278.309 406.976,278.309 409.138,811.08 411.3,811.08 413.462,811.08 415.624,811.08 417.786,811.08 419.948,811.08 422.11,811.08 424.272,811.08 426.434,811.08 428.596,811.08 430.758,811.08 432.92,811.08 435.082,811.08 437.244,811.08 439.406,811.08 441.568,811.08 443.73,811.08 445.892,811.08 448.054,811.08 450.216,811.08 452.378,811.08 454.54,811.08 456.702,811.08 458.864,811.08 461.026,811.08 463.188,811.08 465.35,811.08 467.512,811.08 469.674,811.08 471.836,811.08 473.998,811.08 476.16,811.08 478.322,811.08 480.484,811.08 482.646,811.08 484.808,811.08 486.97,811.08 489.132,811.08 491.293,811.08 493.455,811.08 495.617,811.08 497.779,811.08 499.941,811.08 502.103,811.08 504.265,811.08 506.427,811.08 508.589,811.08 510.751,811.08 512.913,811.08 515.075,811.08 517.237,811.08 519.399,811.08 521.561,811.08 523.723,811.08 525.885,811.08 528.047,811.08 530.209,811.08 532.371,811.08 534.533,811.08 536.695,811.08 538.857,811.08 541.019,811.08 543.181,811.08 545.343,811.08 547.505,811.08 549.667,811.08 551.829,811.08 553.991,811.08 556.153,811.08 558.315,811.08 560.477,811.08 562.639,811.08 564.801,811.08 566.963,811.08 569.125,811.08 571.287,811.08 573.449,811.08 575.611,811.08 577.773,811.08 579.935,811.08 582.097,811.08 584.259,811.08 586.42,811.08 588.582,811.08 590.744,811.08 592.906,811.08 595.068,811.08 597.23,811.08 599.392,811.08 601.554,811.08 603.716,811.08 605.878,811.08 608.04,811.08 610.202,811.08 612.364,811.08 614.526,811.08 616.688,811.08 618.85,811.08 621.012,811.08 623.174,811.08 625.336,920.837 627.498,920.837 629.66,920.837 631.822,920.837 633.984,920.837 636.146,920.837 638.308,920.837 640.47,920.837 642.632,920.837 644.794,920.837 646.956,920.837 649.118,920.837 651.28,920.837 653.442,920.837 655.604,920.837 657.766,920.837 659.928,920.837 662.09,920.837 664.252,920.837 666.414,920.837 668.576,920.837 670.738,920.837 672.9,920.837 675.062,920.837 677.224,920.837 679.386,920.837 681.547,920.837 683.709,920.837 685.871,920.837 688.033,920.837 690.195,920.837 692.357,920.837 694.519,920.837 696.681,920.837 698.843,920.837 701.005,920.837 703.167,920.837 705.329,920.837 707.491,920.837 709.653,920.837 711.815,920.837 713.977,920.837 716.139,920.837 718.301,920.837 720.463,920.837 722.625,920.837 724.787,920.837 726.949,920.837 729.111,920.837 731.273,920.837 733.435,920.837 735.597,920.837 737.759,920.837 739.921,920.837 742.083,920.837 744.245,920.837 746.407,920.837 748.569,920.837 750.731,920.837 752.893,920.837 755.055,920.837 757.217,920.837 759.379,920.837 761.541,920.837 763.703,920.837 765.865,920.837 768.027,920.837 770.189,920.837 772.351,920.837 774.513,920.837 776.674,920.837 778.836,920.837 780.998,920.837 783.16,920.837 785.322,920.837 787.484,920.837 789.646,920.837 791.808,920.837 793.97,920.837 796.132,920.837 798.294,920.837 800.456,920.837 802.618,920.837 804.78,920.837 806.942,920.837 809.104,920.837 811.266,920.837 813.428,920.837 815.59,920.837 817.752,920.837 819.914,920.837 822.076,920.837 824.238,920.837 826.4,920.837 828.562,920.837 830.724,920.837 832.886,920.837 835.048,920.837 837.21,920.837 839.372,920.837 841.534,1269.36 843.696,1269.36 845.858,1269.36 848.02,1269.36 850.182,1269.36 852.344,1269.36 854.506,1269.36 856.668,1269.36 858.83,1269.36 860.992,1269.36 863.154,1269.36 865.316,1269.36 867.478,1269.36 869.64,1269.36 871.801,1269.36 873.963,1269.36 876.125,1269.36 878.287,1269.36 880.449,1269.36 882.611,1269.36 884.773,1269.36 886.935,1269.36 889.097,1269.36 891.259,1269.36 893.421,1269.36 895.583,1269.36 897.745,1269.36 899.907,1269.36 902.069,1269.36 904.231,1269.36 906.393,1269.36 908.555,1269.36 910.717,1269.36 912.879,1269.36 915.041,1269.36 917.203,1269.36 919.365,1269.36 921.527,1269.36 923.689,1269.36 925.851,1269.36 928.013,1269.36 930.175,1269.36 932.337,1269.36 934.499,1269.36 936.661,1269.36 938.823,1269.36 940.985,1269.36 943.147,1269.36 945.309,1269.36 947.471,1269.36 949.633,1269.36 951.795,1269.36 953.957,1269.36 956.119,1269.36 958.281,1269.36 960.443,1269.36 962.605,1269.36 964.767,1269.36 966.928,1269.36 969.09,1269.36 971.252,1269.36 973.414,1269.36 975.576,1269.36 977.738,1269.36 979.9,1269.36 982.062,1269.36 984.224,1269.36 986.386,1269.36 988.548,1269.36 990.71,1269.36 992.872,1269.36 995.034,1269.36 997.196,1269.36 999.358,1269.36 1001.52,1269.36 1003.68,1269.36 1005.84,1269.36 1008.01,1269.36 1010.17,1269.36 1012.33,1269.36 1014.49,1269.36 1016.65,1269.36 1018.82,1269.36 1020.98,1269.36 1023.14,1269.36 1025.3,1269.36 1027.46,1269.36 1029.63,1269.36 1031.79,1269.36 1033.95,1269.36 1036.11,1269.36 1038.27,1269.36 1040.44,1269.36 1042.6,1269.36 1044.76,1269.36 1046.92,1269.36 1049.08,1269.36 1051.25,1269.36 1053.41,1269.36 1055.57,1269.36 1057.73,856.328 1059.89,856.328 1062.06,856.328 1064.22,856.328 1066.38,856.328 1068.54,856.328 1070.7,856.328 1072.87,856.328 1075.03,856.328 1077.19,856.328 1079.35,856.328 1081.51,856.328 1083.68,856.328 1085.84,856.328 1088,856.328 1090.16,856.328 1092.32,856.328 1094.49,856.328 1096.65,856.328 1098.81,856.328 1100.97,856.328 1103.13,856.328 1105.3,856.328 1107.46,856.328 1109.62,856.328 1111.78,856.328 1113.94,856.328 1116.1,856.328 1118.27,856.328 1120.43,856.328 1122.59,856.328 1124.75,856.328 1126.91,856.328 1129.08,856.328 1131.24,856.328 1133.4,856.328 1135.56,856.328 1137.72,856.328 1139.89,856.328 1142.05,856.328 1144.21,856.328 1146.37,856.328 1148.53,856.328 1150.7,856.328 1152.86,856.328 1155.02,856.328 1157.18,856.328 1159.34,856.328 1161.51,856.328 1163.67,856.328 1165.83,856.328 1167.99,856.328 1170.15,856.328 1172.32,856.328 1174.48,856.328 1176.64,856.328 1178.8,856.328 1180.96,856.328 1183.13,856.328 1185.29,856.328 1187.45,856.328 1189.61,856.328 1191.77,856.328 1193.94,856.328 1196.1,856.328 1198.26,856.328 1200.42,856.328 1202.58,856.328 1204.75,856.328 1206.91,856.328 1209.07,856.328 1211.23,856.328 1213.39,856.328 1215.56,856.328 1217.72,856.328 1219.88,856.328 1222.04,856.328 1224.2,856.328 1226.37,856.328 1228.53,856.328 1230.69,856.328 1232.85,856.328 1235.01,856.328 1237.18,856.328 1239.34,856.328 1241.5,856.328 1243.66,856.328 1245.82,856.328 1247.99,856.328 1250.15,856.328 1252.31,856.328 1254.47,856.328 1256.63,856.328 1258.8,856.328 1260.96,856.328 1263.12,856.328 1265.28,856.328 1267.44,856.328 1269.61,856.328 1271.77,856.328 1273.93,86.1857 1276.09,86.1857 1278.25,86.1857 1280.42,86.1857 1282.58,86.1857 1284.74,86.1857 1286.9,86.1857 1289.06,86.1857 1291.23,86.1857 1293.39,86.1857 1295.55,86.1857 1297.71,86.1857 1299.87,86.1857 1302.03,86.1857 1304.2,86.1857 1306.36,86.1857 1308.52,86.1857 1310.68,86.1857 1312.84,86.1857 1315.01,86.1857 1317.17,86.1857 1319.33,86.1857 1321.49,86.1857 1323.65,86.1857 1325.82,86.1857 1327.98,86.1857 1330.14,86.1857 1332.3,86.1857 1334.46,86.1857 1336.63,86.1857 1338.79,86.1857 1340.95,86.1857 1343.11,86.1857 1345.27,86.1857 1347.44,86.1857 1349.6,86.1857 1351.76,86.1857 1353.92,86.1857 1356.08,86.1857 1358.25,86.1857 1360.41,86.1857 1362.57,86.1857 1364.73,86.1857 1366.89,86.1857 1369.06,86.1857 1371.22,86.1857 1373.38,86.1857 1375.54,86.1857 1377.7,86.1857 1379.87,86.1857 1382.03,86.1857 1384.19,86.1857 1386.35,86.1857 1388.51,86.1857 1390.68,86.1857 1392.84,86.1857 1395,86.1857 1397.16,86.1857 1399.32,86.1857 1401.49,86.1857 1403.65,86.1857 1405.81,86.1857 1407.97,86.1857 1410.13,86.1857 1412.3,86.1857 1414.46,86.1857 1416.62,86.1857 1418.78,86.1857 1420.94,86.1857 1423.11,86.1857 1425.27,86.1857 1427.43,86.1857 1429.59,86.1857 1431.75,86.1857 1433.92,86.1857 1436.08,86.1857 1438.24,86.1857 1440.4,86.1857 1442.56,86.1857 1444.73,86.1857 1446.89,86.1857 1449.05,86.1857 1451.21,86.1857 1453.37,86.1857 1455.54,86.1857 1457.7,86.1857 1459.86,86.1857 1462.02,86.1857 1464.18,86.1857 1466.35,86.1857 1468.51,86.1857 1470.67,86.1857 1472.83,86.1857 1474.99,86.1857 1477.16,86.1857 1479.32,86.1857 1481.48,86.1857 1483.64,86.1857 1485.8,86.1857 1487.97,86.1857 1490.13,961.714 1492.29,961.714 1494.45,961.714 1496.61,961.714 1498.77,961.714 1500.94,961.714 1503.1,961.714 1505.26,961.714 1507.42,961.714 1509.58,961.714 1511.75,961.714 1513.91,961.714 1516.07,961.714 1518.23,961.714 1520.39,961.714 1522.56,961.714 1524.72,961.714 1526.88,961.714 1529.04,961.714 1531.2,961.714 1533.37,961.714 1535.53,961.714 1537.69,961.714 1539.85,961.714 1542.01,961.714 1544.18,961.714 1546.34,961.714 1548.5,961.714 1550.66,961.714 1552.82,961.714 1554.99,961.714 1557.15,961.714 1559.31,961.714 1561.47,961.714 1563.63,961.714 1565.8,961.714 1567.96,961.714 1570.12,961.714 1572.28,961.714 1574.44,961.714 1576.61,961.714 1578.77,961.714 1580.93,961.714 1583.09,961.714 1585.25,961.714 1587.42,961.714 1589.58,961.714 1591.74,961.714 1593.9,961.714 1596.06,961.714 1598.23,961.714 1600.39,961.714 1602.55,961.714 1604.71,961.714 1606.87,961.714 1609.04,961.714 1611.2,961.714 1613.36,961.714 1615.52,961.714 1617.68,961.714 1619.85,961.714 1622.01,961.714 1624.17,961.714 1626.33,961.714 1628.49,961.714 1630.66,961.714 1632.82,961.714 1634.98,961.714 1637.14,961.714 1639.3,961.714 1641.47,961.714 1643.63,961.714 1645.79,961.714 1647.95,961.714 1650.11,961.714 1652.28,961.714 1654.44,961.714 1656.6,961.714 1658.76,961.714 1660.92,961.714 1663.09,961.714 1665.25,961.714 1667.41,961.714 1669.57,961.714 1671.73,961.714 1673.9,961.714 1676.06,961.714 1678.22,961.714 1680.38,961.714 1682.54,961.714 1684.7,961.714 1686.87,961.714 1689.03,961.714 1691.19,961.714 1693.35,961.714 1695.51,961.714 1697.68,961.714 1699.84,961.714 1702,961.714 1704.16,961.714 1706.32,1384.24 1708.49,1384.24 1710.65,1384.24 1712.81,1384.24 1714.97,1384.24 1717.13,1384.24 1719.3,1384.24 1721.46,1384.24 1723.62,1384.24 1725.78,1384.24 1727.94,1384.24 1730.11,1384.24 1732.27,1384.24 1734.43,1384.24 1736.59,1384.24 1738.75,1384.24 1740.92,1384.24 1743.08,1384.24 1745.24,1384.24 1747.4,1384.24 1749.56,1384.24 1751.73,1384.24 1753.89,1384.24 1756.05,1384.24 1758.21,1384.24 1760.37,1384.24 1762.54,1384.24 1764.7,1384.24 1766.86,1384.24 1769.02,1384.24 1771.18,1384.24 1773.35,1384.24 1775.51,1384.24 1777.67,1384.24 1779.83,1384.24 1781.99,1384.24 1784.16,1384.24 1786.32,1384.24 1788.48,1384.24 1790.64,1384.24 1792.8,1384.24 1794.97,1384.24 1797.13,1384.24 1799.29,1384.24 1801.45,1384.24 1803.61,1384.24 1805.78,1384.24 1807.94,1384.24 1810.1,1384.24 1812.26,1384.24 1814.42,1384.24 1816.59,1384.24 1818.75,1384.24 1820.91,1384.24 1823.07,1384.24 1825.23,1384.24 1827.4,1384.24 1829.56,1384.24 1831.72,1384.24 1833.88,1384.24 1836.04,1384.24 1838.21,1384.24 1840.37,1384.24 1842.53,1384.24 1844.69,1384.24 1846.85,1384.24 1849.02,1384.24 1851.18,1384.24 1853.34,1384.24 1855.5,1384.24 1857.66,1384.24 1859.83,1384.24 1861.99,1384.24 1864.15,1384.24 1866.31,1384.24 1868.47,1384.24 1870.63,1384.24 1872.8,1384.24 1874.96,1384.24 1877.12,1384.24 1879.28,1384.24 1881.44,1384.24 1883.61,1384.24 1885.77,1384.24 1887.93,1384.24 1890.09,1384.24 1892.25,1384.24 1894.42,1384.24 1896.58,1384.24 1898.74,1384.24 1900.9,1384.24 1903.06,1384.24 1905.23,1384.24 1907.39,1384.24 1909.55,1384.24 1911.71,1384.24 1913.87,1384.24 1916.04,1384.24 1918.2,1384.24 1920.36,1384.24 1922.52,195.611 1924.68,195.611 1926.85,195.611 1929.01,195.611 1931.17,195.611 1933.33,195.611 1935.49,195.611 1937.66,195.611 1939.82,195.611 1941.98,195.611 1944.14,195.611 1946.3,195.611 1948.47,195.611 1950.63,195.611 1952.79,195.611 1954.95,195.611 1957.11,195.611 1959.28,195.611 1961.44,195.611 1963.6,195.611 1965.76,195.611 1967.92,195.611 1970.09,195.611 1972.25,195.611 1974.41,195.611 1976.57,195.611 1978.73,195.611 1980.9,195.611 1983.06,195.611 1985.22,195.611 1987.38,195.611 1989.54,195.611 1991.71,195.611 1993.87,195.611 1996.03,195.611 1998.19,195.611 2000.35,195.611 2002.52,195.611 2004.68,195.611 2006.84,195.611 2009,195.611 2011.16,195.611 2013.33,195.611 2015.49,195.611 2017.65,195.611 2019.81,195.611 2021.97,195.611 2024.14,195.611 2026.3,195.611 2028.46,195.611 2030.62,195.611 2032.78,195.611 2034.95,195.611 2037.11,195.611 2039.27,195.611 2041.43,195.611 2043.59,195.611 2045.76,195.611 2047.92,195.611 2050.08,195.611 2052.24,195.611 2054.4,195.611 2056.57,195.611 2058.73,195.611 2060.89,195.611 2063.05,195.611 2065.21,195.611 2067.37,195.611 2069.54,195.611 2071.7,195.611 2073.86,195.611 2076.02,195.611 2078.18,195.611 2080.35,195.611 2082.51,195.611 2084.67,195.611 2086.83,195.611 2088.99,195.611 2091.16,195.611 2093.32,195.611 2095.48,195.611 2097.64,195.611 2099.8,195.611 2101.97,195.611 2104.13,195.611 2106.29,195.611 2108.45,195.611 2110.61,195.611 2112.78,195.611 2114.94,195.611 2117.1,195.611 2119.26,195.611 2121.42,195.611 2123.59,195.611 2125.75,195.611 2127.91,195.611 2130.07,195.611 2132.23,195.611 2134.4,195.611 2136.56,195.611 2138.72,1335.06 2140.88,1335.06 2143.04,1335.06 2145.21,1335.06 2147.37,1335.06 2149.53,1335.06 2151.69,1335.06 2153.85,1335.06 2156.02,1335.06 2158.18,1335.06 2160.34,1335.06 2162.5,1335.06 2164.66,1335.06 2166.83,1335.06 2168.99,1335.06 2171.15,1335.06 2173.31,1335.06 2175.47,1335.06 2177.64,1335.06 2179.8,1335.06 2181.96,1335.06 2184.12,1335.06 2186.28,1335.06 2188.45,1335.06 2190.61,1335.06 2192.77,1335.06 2194.93,1335.06 2197.09,1335.06 2199.26,1335.06 2201.42,1335.06 2203.58,1335.06 2205.74,1335.06 2207.9,1335.06 2210.07,1335.06 2212.23,1335.06 2214.39,1335.06 2216.55,1335.06 2218.71,1335.06 2220.88,1335.06 2223.04,1335.06 2225.2,1335.06 2227.36,1335.06 2229.52,1335.06 2231.69,1335.06 2233.85,1335.06 2236.01,1335.06 2238.17,1335.06 2240.33,1335.06 2242.5,1335.06 2244.66,1335.06 2246.82,1335.06 2248.98,1335.06 2251.14,1335.06 2253.3,1335.06 2255.47,1335.06 2257.63,1335.06 2259.79,1335.06 2261.95,1335.06 2264.11,1335.06 2266.28,1335.06 2268.44,1335.06 2270.6,1335.06 2272.76,1335.06 2274.92,1335.06 2277.09,1335.06 2279.25,1335.06 2281.41,1335.06 2283.57,1335.06 2285.73,1335.06 2287.9,1335.06 2290.06,1335.06 2292.22,1335.06 2294.38,1335.06 2296.54,1335.06 2298.71,1335.06 2300.87,1335.06 2303.03,1335.06 2305.19,1335.06 2307.35,1335.06 2309.52,1335.06 2311.68,1335.06 2313.84,1335.06 2316,1335.06 2318.16,1335.06 2320.33,1335.06 2322.49,1335.06 2324.65,1335.06 2326.81,1335.06 2328.97,1335.06 2331.14,1335.06 2333.3,1335.06 2335.46,1335.06 2337.62,1335.06 2339.78,1335.06 2341.95,1335.06 2344.11,1335.06 2346.27,1335.06 2348.43,1335.06 2350.59,1335.06 2352.76,1335.06 "/>
<path clip-path="url(#clip380)" d="M264.934 1377.32 L506.055 1377.32 L506.055 1221.8 L264.934 1221.8  Z" fill="#ffffff" fill-rule="evenodd" fill-opacity="1"/>
<polyline clip-path="url(#clip380)" style="stroke:#000000; stroke-linecap:round; stroke-linejoin:round; stroke-width:4; stroke-opacity:1; fill:none" points="264.934,1377.32 506.055,1377.32 506.055,1221.8 264.934,1221.8 264.934,1377.32 "/>
<polyline clip-path="url(#clip380)" style="stroke:#009af9; stroke-linecap:round; stroke-linejoin:round; stroke-width:4; stroke-opacity:1; fill:none" points="288.932,1273.64 432.92,1273.64 "/>
<path clip-path="url(#clip380)" d="M481.571 1264.99 L472.196 1277.61 L482.057 1290.92 L477.034 1290.92 L469.487 1280.73 L461.941 1290.92 L456.918 1290.92 L466.987 1277.35 L457.775 1264.99 L462.798 1264.99 L469.673 1274.23 L476.548 1264.99 L481.571 1264.99 Z" fill="#000000" fill-rule="nonzero" fill-opacity="1" /><polyline clip-path="url(#clip380)" style="stroke:#e26f46; stroke-linecap:round; stroke-linejoin:round; stroke-width:4; stroke-opacity:1; fill:none" points="288.932,1325.48 432.92,1325.48 "/>
<path clip-path="url(#clip380)" d="M473.423 1306.74 L473.423 1310.28 L469.349 1310.28 Q467.057 1310.28 466.154 1311.2 Q465.274 1312.13 465.274 1314.54 L465.274 1316.83 L472.288 1316.83 L472.288 1320.14 L465.274 1320.14 L465.274 1342.76 L460.992 1342.76 L460.992 1320.14 L456.918 1320.14 L456.918 1316.83 L460.992 1316.83 L460.992 1315.02 Q460.992 1310.7 463.006 1308.73 Q465.02 1306.74 469.395 1306.74 L473.423 1306.74 Z" fill="#000000" fill-rule="nonzero" fill-opacity="1" /></svg>
