<?xml version="1.0" encoding="utf-8"?>
<svg xmlns="http://www.w3.org/2000/svg" xmlns:xlink="http://www.w3.org/1999/xlink" width="600" height="400" viewBox="0 0 2400 1600">
<defs>
  <clipPath id="clip530">
    <rect x="0" y="0" width="2400" height="1600"/>
  </clipPath>
</defs>
<path clip-path="url(#clip530)" d="M0 1600 L2400 1600 L2400 0 L0 0  Z" fill="#ffffff" fill-rule="evenodd" fill-opacity="1"/>
<defs>
  <clipPath id="clip531">
    <rect x="480" y="0" width="1681" height="1600"/>
  </clipPath>
</defs>
<path clip-path="url(#clip530)" d="M147.478 1423.18 L2352.76 1423.18 L2352.76 47.2441 L147.478 47.2441  Z" fill="#ffffff" fill-rule="evenodd" fill-opacity="1"/>
<defs>
  <clipPath id="clip532">
    <rect x="147" y="47" width="2206" height="1377"/>
  </clipPath>
</defs>
<polyline clip-path="url(#clip532)" style="stroke:#000000; stroke-linecap:round; stroke-linejoin:round; stroke-width:2; stroke-opacity:0.1; fill:none" points="147.478,1423.18 147.478,47.2441 "/>
<polyline clip-path="url(#clip532)" style="stroke:#000000; stroke-linecap:round; stroke-linejoin:round; stroke-width:2; stroke-opacity:0.1; fill:none" points="588.534,1423.18 588.534,47.2441 "/>
<polyline clip-path="url(#clip532)" style="stroke:#000000; stroke-linecap:round; stroke-linejoin:round; stroke-width:2; stroke-opacity:0.1; fill:none" points="1029.59,1423.18 1029.59,47.2441 "/>
<polyline clip-path="url(#clip532)" style="stroke:#000000; stroke-linecap:round; stroke-linejoin:round; stroke-width:2; stroke-opacity:0.1; fill:none" points="1470.64,1423.18 1470.64,47.2441 "/>
<polyline clip-path="url(#clip532)" style="stroke:#000000; stroke-linecap:round; stroke-linejoin:round; stroke-width:2; stroke-opacity:0.1; fill:none" points="1911.7,1423.18 1911.7,47.2441 "/>
<polyline clip-path="url(#clip532)" style="stroke:#000000; stroke-linecap:round; stroke-linejoin:round; stroke-width:2; stroke-opacity:0.1; fill:none" points="2352.76,1423.18 2352.76,47.2441 "/>
<polyline clip-path="url(#clip530)" style="stroke:#000000; stroke-linecap:round; stroke-linejoin:round; stroke-width:4; stroke-opacity:1; fill:none" points="147.478,1423.18 2352.76,1423.18 "/>
<polyline clip-path="url(#clip530)" style="stroke:#000000; stroke-linecap:round; stroke-linejoin:round; stroke-width:4; stroke-opacity:1; fill:none" points="147.478,1423.18 147.478,1404.28 "/>
<polyline clip-path="url(#clip530)" style="stroke:#000000; stroke-linecap:round; stroke-linejoin:round; stroke-width:4; stroke-opacity:1; fill:none" points="588.534,1423.18 588.534,1404.28 "/>
<polyline clip-path="url(#clip530)" style="stroke:#000000; stroke-linecap:round; stroke-linejoin:round; stroke-width:4; stroke-opacity:1; fill:none" points="1029.59,1423.18 1029.59,1404.28 "/>
<polyline clip-path="url(#clip530)" style="stroke:#000000; stroke-linecap:round; stroke-linejoin:round; stroke-width:4; stroke-opacity:1; fill:none" points="1470.64,1423.18 1470.64,1404.28 "/>
<polyline clip-path="url(#clip530)" style="stroke:#000000; stroke-linecap:round; stroke-linejoin:round; stroke-width:4; stroke-opacity:1; fill:none" points="1911.7,1423.18 1911.7,1404.28 "/>
<polyline clip-path="url(#clip530)" style="stroke:#000000; stroke-linecap:round; stroke-linejoin:round; stroke-width:4; stroke-opacity:1; fill:none" points="2352.76,1423.18 2352.76,1404.28 "/>
<path clip-path="url(#clip530)" d="M147.478 1454.1 Q143.867 1454.1 142.038 1457.66 Q140.233 1461.2 140.233 1468.33 Q140.233 1475.44 142.038 1479.01 Q143.867 1482.55 147.478 1482.55 Q151.112 1482.55 152.918 1479.01 Q154.746 1475.44 154.746 1468.33 Q154.746 1461.2 152.918 1457.66 Q151.112 1454.1 147.478 1454.1 M147.478 1450.39 Q153.288 1450.39 156.344 1455 Q159.422 1459.58 159.422 1468.33 Q159.422 1477.06 156.344 1481.67 Q153.288 1486.25 147.478 1486.25 Q141.668 1486.25 138.589 1481.67 Q135.534 1477.06 135.534 1468.33 Q135.534 1459.58 138.589 1455 Q141.668 1450.39 147.478 1450.39 Z" fill="#000000" fill-rule="nonzero" fill-opacity="1" /><path clip-path="url(#clip530)" d="M583.186 1481.64 L599.506 1481.64 L599.506 1485.58 L577.561 1485.58 L577.561 1481.64 Q580.223 1478.89 584.807 1474.26 Q589.413 1469.61 590.594 1468.27 Q592.839 1465.74 593.719 1464.01 Q594.621 1462.25 594.621 1460.56 Q594.621 1457.8 592.677 1456.07 Q590.756 1454.33 587.654 1454.33 Q585.455 1454.33 583.001 1455.09 Q580.571 1455.86 577.793 1457.41 L577.793 1452.69 Q580.617 1451.55 583.071 1450.97 Q585.524 1450.39 587.561 1450.39 Q592.932 1450.39 596.126 1453.08 Q599.32 1455.77 599.32 1460.26 Q599.32 1462.39 598.51 1464.31 Q597.723 1466.2 595.617 1468.8 Q595.038 1469.47 591.936 1472.69 Q588.834 1475.88 583.186 1481.64 Z" fill="#000000" fill-rule="nonzero" fill-opacity="1" /><path clip-path="url(#clip530)" d="M1032.6 1455.09 L1020.79 1473.54 L1032.6 1473.54 L1032.6 1455.09 M1031.37 1451.02 L1037.25 1451.02 L1037.25 1473.54 L1042.18 1473.54 L1042.18 1477.43 L1037.25 1477.43 L1037.25 1485.58 L1032.6 1485.58 L1032.6 1477.43 L1017 1477.43 L1017 1472.92 L1031.37 1451.02 Z" fill="#000000" fill-rule="nonzero" fill-opacity="1" /><path clip-path="url(#clip530)" d="M1471.05 1466.44 Q1467.9 1466.44 1466.05 1468.59 Q1464.22 1470.74 1464.22 1474.49 Q1464.22 1478.22 1466.05 1480.39 Q1467.9 1482.55 1471.05 1482.55 Q1474.2 1482.55 1476.03 1480.39 Q1477.88 1478.22 1477.88 1474.49 Q1477.88 1470.74 1476.03 1468.59 Q1474.2 1466.44 1471.05 1466.44 M1480.33 1451.78 L1480.33 1456.04 Q1478.57 1455.21 1476.77 1454.77 Q1474.98 1454.33 1473.23 1454.33 Q1468.6 1454.33 1466.14 1457.45 Q1463.71 1460.58 1463.36 1466.9 Q1464.73 1464.89 1466.79 1463.82 Q1468.85 1462.73 1471.33 1462.73 Q1476.54 1462.73 1479.55 1465.9 Q1482.58 1469.05 1482.58 1474.49 Q1482.58 1479.82 1479.43 1483.03 Q1476.28 1486.25 1471.05 1486.25 Q1465.05 1486.25 1461.88 1481.67 Q1458.71 1477.06 1458.71 1468.33 Q1458.71 1460.14 1462.6 1455.28 Q1466.49 1450.39 1473.04 1450.39 Q1474.8 1450.39 1476.58 1450.74 Q1478.39 1451.09 1480.33 1451.78 Z" fill="#000000" fill-rule="nonzero" fill-opacity="1" /><path clip-path="url(#clip530)" d="M1911.7 1469.17 Q1908.37 1469.17 1906.45 1470.95 Q1904.55 1472.73 1904.55 1475.86 Q1904.55 1478.98 1906.45 1480.77 Q1908.37 1482.55 1911.7 1482.55 Q1915.03 1482.55 1916.95 1480.77 Q1918.88 1478.96 1918.88 1475.86 Q1918.88 1472.73 1916.95 1470.95 Q1915.06 1469.17 1911.7 1469.17 M1907.02 1467.18 Q1904.02 1466.44 1902.33 1464.38 Q1900.66 1462.32 1900.66 1459.35 Q1900.66 1455.21 1903.6 1452.8 Q1906.56 1450.39 1911.7 1450.39 Q1916.86 1450.39 1919.8 1452.8 Q1922.74 1455.21 1922.74 1459.35 Q1922.74 1462.32 1921.05 1464.38 Q1919.39 1466.44 1916.4 1467.18 Q1919.78 1467.96 1921.65 1470.26 Q1923.55 1472.55 1923.55 1475.86 Q1923.55 1480.88 1920.47 1483.57 Q1917.42 1486.25 1911.7 1486.25 Q1905.98 1486.25 1902.9 1483.57 Q1899.85 1480.88 1899.85 1475.86 Q1899.85 1472.55 1901.75 1470.26 Q1903.64 1467.96 1907.02 1467.18 M1905.31 1459.79 Q1905.31 1462.48 1906.98 1463.98 Q1908.67 1465.49 1911.7 1465.49 Q1914.71 1465.49 1916.4 1463.98 Q1918.11 1462.48 1918.11 1459.79 Q1918.11 1457.11 1916.4 1455.6 Q1914.71 1454.1 1911.7 1454.1 Q1908.67 1454.1 1906.98 1455.6 Q1905.31 1457.11 1905.31 1459.79 Z" fill="#000000" fill-rule="nonzero" fill-opacity="1" /><path clip-path="url(#clip530)" d="M2327.44 1481.64 L2335.08 1481.64 L2335.08 1455.28 L2326.77 1456.95 L2326.77 1452.69 L2335.04 1451.02 L2339.71 1451.02 L2339.71 1481.64 L2347.35 1481.64 L2347.35 1485.58 L2327.44 1485.58 L2327.44 1481.64 Z" fill="#000000" fill-rule="nonzero" fill-opacity="1" /><path clip-path="url(#clip530)" d="M2366.8 1454.1 Q2363.18 1454.1 2361.36 1457.66 Q2359.55 1461.2 2359.55 1468.33 Q2359.55 1475.44 2361.36 1479.01 Q2363.18 1482.55 2366.8 1482.55 Q2370.43 1482.55 2372.23 1479.01 Q2374.06 1475.44 2374.06 1468.33 Q2374.06 1461.2 2372.23 1457.66 Q2370.43 1454.1 2366.8 1454.1 M2366.8 1450.39 Q2372.61 1450.39 2375.66 1455 Q2378.74 1459.58 2378.74 1468.33 Q2378.74 1477.06 2375.66 1481.67 Q2372.61 1486.25 2366.8 1486.25 Q2360.99 1486.25 2357.91 1481.67 Q2354.85 1477.06 2354.85 1468.33 Q2354.85 1459.58 2357.91 1455 Q2360.99 1450.39 2366.8 1450.39 Z" fill="#000000" fill-rule="nonzero" fill-opacity="1" /><path clip-path="url(#clip530)" d="M1249.18 1522.27 L1249.18 1532.4 L1261.24 1532.4 L1261.24 1536.95 L1249.18 1536.95 L1249.18 1556.3 Q1249.18 1560.66 1250.36 1561.9 Q1251.57 1563.14 1255.23 1563.14 L1261.24 1563.14 L1261.24 1568.04 L1255.23 1568.04 Q1248.45 1568.04 1245.87 1565.53 Q1243.29 1562.98 1243.29 1556.3 L1243.29 1536.95 L1238.99 1536.95 L1238.99 1532.4 L1243.29 1532.4 L1243.29 1522.27 L1249.18 1522.27 Z" fill="#000000" fill-rule="nonzero" fill-opacity="1" /><polyline clip-path="url(#clip532)" style="stroke:#000000; stroke-linecap:round; stroke-linejoin:round; stroke-width:2; stroke-opacity:0.1; fill:none" points="147.478,1274.06 2352.76,1274.06 "/>
<polyline clip-path="url(#clip532)" style="stroke:#000000; stroke-linecap:round; stroke-linejoin:round; stroke-width:2; stroke-opacity:0.1; fill:none" points="147.478,907.014 2352.76,907.014 "/>
<polyline clip-path="url(#clip532)" style="stroke:#000000; stroke-linecap:round; stroke-linejoin:round; stroke-width:2; stroke-opacity:0.1; fill:none" points="147.478,539.971 2352.76,539.971 "/>
<polyline clip-path="url(#clip532)" style="stroke:#000000; stroke-linecap:round; stroke-linejoin:round; stroke-width:2; stroke-opacity:0.1; fill:none" points="147.478,172.928 2352.76,172.928 "/>
<polyline clip-path="url(#clip530)" style="stroke:#000000; stroke-linecap:round; stroke-linejoin:round; stroke-width:4; stroke-opacity:1; fill:none" points="147.478,1423.18 147.478,47.2441 "/>
<polyline clip-path="url(#clip530)" style="stroke:#000000; stroke-linecap:round; stroke-linejoin:round; stroke-width:4; stroke-opacity:1; fill:none" points="147.478,1274.06 166.376,1274.06 "/>
<polyline clip-path="url(#clip530)" style="stroke:#000000; stroke-linecap:round; stroke-linejoin:round; stroke-width:4; stroke-opacity:1; fill:none" points="147.478,907.014 166.376,907.014 "/>
<polyline clip-path="url(#clip530)" style="stroke:#000000; stroke-linecap:round; stroke-linejoin:round; stroke-width:4; stroke-opacity:1; fill:none" points="147.478,539.971 166.376,539.971 "/>
<polyline clip-path="url(#clip530)" style="stroke:#000000; stroke-linecap:round; stroke-linejoin:round; stroke-width:4; stroke-opacity:1; fill:none" points="147.478,172.928 166.376,172.928 "/>
<path clip-path="url(#clip530)" d="M51.3625 1274.51 L81.0383 1274.51 L81.0383 1278.44 L51.3625 1278.44 L51.3625 1274.51 Z" fill="#000000" fill-rule="nonzero" fill-opacity="1" /><path clip-path="url(#clip530)" d="M95.1586 1287.4 L111.478 1287.4 L111.478 1291.34 L89.5336 1291.34 L89.5336 1287.4 Q92.1956 1284.65 96.7789 1280.02 Q101.385 1275.36 102.566 1274.02 Q104.811 1271.5 105.691 1269.76 Q106.594 1268 106.594 1266.31 Q106.594 1263.56 104.649 1261.82 Q102.728 1260.09 99.6261 1260.09 Q97.4271 1260.09 94.9734 1260.85 Q92.5428 1261.61 89.7651 1263.17 L89.7651 1258.44 Q92.5891 1257.31 95.0428 1256.73 Q97.4965 1256.15 99.5335 1256.15 Q104.904 1256.15 108.098 1258.84 Q111.293 1261.52 111.293 1266.01 Q111.293 1268.14 110.483 1270.06 Q109.696 1271.96 107.589 1274.55 Q107.01 1275.23 103.909 1278.44 Q100.807 1281.64 95.1586 1287.4 Z" fill="#000000" fill-rule="nonzero" fill-opacity="1" /><path clip-path="url(#clip530)" d="M50.9921 907.465 L80.6679 907.465 L80.6679 911.4 L50.9921 911.4 L50.9921 907.465 Z" fill="#000000" fill-rule="nonzero" fill-opacity="1" /><path clip-path="url(#clip530)" d="M91.5706 920.359 L99.2095 920.359 L99.2095 893.993 L90.8993 895.66 L90.8993 891.4 L99.1632 889.734 L103.839 889.734 L103.839 920.359 L111.478 920.359 L111.478 924.294 L91.5706 924.294 L91.5706 920.359 Z" fill="#000000" fill-rule="nonzero" fill-opacity="1" /><path clip-path="url(#clip530)" d="M99.5335 525.77 Q95.9224 525.77 94.0937 529.334 Q92.2882 532.876 92.2882 540.006 Q92.2882 547.112 94.0937 550.677 Q95.9224 554.219 99.5335 554.219 Q103.168 554.219 104.973 550.677 Q106.802 547.112 106.802 540.006 Q106.802 532.876 104.973 529.334 Q103.168 525.77 99.5335 525.77 M99.5335 522.066 Q105.344 522.066 108.399 526.672 Q111.478 531.256 111.478 540.006 Q111.478 548.732 108.399 553.339 Q105.344 557.922 99.5335 557.922 Q93.7234 557.922 90.6447 553.339 Q87.5892 548.732 87.5892 540.006 Q87.5892 531.256 90.6447 526.672 Q93.7234 522.066 99.5335 522.066 Z" fill="#000000" fill-rule="nonzero" fill-opacity="1" /><path clip-path="url(#clip530)" d="M91.5706 186.273 L99.2095 186.273 L99.2095 159.907 L90.8993 161.574 L90.8993 157.315 L99.1632 155.648 L103.839 155.648 L103.839 186.273 L111.478 186.273 L111.478 190.208 L91.5706 190.208 L91.5706 186.273 Z" fill="#000000" fill-rule="nonzero" fill-opacity="1" /><polyline clip-path="url(#clip532)" style="stroke:#009af9; stroke-linecap:round; stroke-linejoin:round; stroke-width:4; stroke-opacity:1; fill:none" points="147.478,539.971 149.685,551.164 151.893,562.209 154.1,573.108 156.308,583.862 158.515,594.473 160.723,604.944 162.93,615.276 165.138,625.471 167.345,635.53 169.553,645.457 171.76,655.251 173.968,664.916 176.175,674.453 178.383,683.863 180.59,693.149 182.798,702.311 185.005,711.352 187.213,720.274 189.42,729.076 191.628,737.763 193.835,746.334 196.043,754.791 198.25,763.136 200.458,771.371 202.665,779.496 204.873,787.514 207.08,795.425 209.288,803.232 211.495,810.935 213.702,818.536 215.91,826.036 218.117,833.436 220.325,840.739 222.532,847.945 224.74,855.055 226.947,862.071 229.155,868.994 231.362,875.825 233.57,882.565 235.777,889.217 237.985,895.78 240.192,902.256 242.4,908.646 244.607,914.951 246.815,921.173 249.022,927.312 251.23,933.37 253.437,939.348 255.645,945.246 257.852,951.066 260.06,956.809 262.267,962.476 264.475,968.068 266.682,973.585 268.89,979.03 271.097,984.402 273.305,989.703 275.512,994.934 277.72,1000.1 279.927,1005.19 282.135,1010.21 284.342,1015.17 286.549,1020.07 288.757,1024.89 290.964,1029.66 293.172,1034.36 295.379,1039 297.587,1043.58 299.794,1048.09 302.002,1052.55 304.209,1056.95 306.417,1061.29 308.624,1065.57 310.832,1069.79 313.039,1073.96 315.247,1078.07 317.454,1082.13 319.662,1086.14 321.869,1090.09 324.077,1093.99 326.284,1097.84 328.492,1101.64 330.699,1105.38 332.907,1109.08 335.114,1112.73 337.322,1116.54 339.529,1120.61 341.737,1124.84 343.944,1129.13 346.152,1133.37 348.359,1137.5 350.567,1141.44 352.774,1145.12 354.982,1148.49 357.189,1151.51 359.397,1154.13 361.604,1156.33 363.811,1158.09 366.019,1159.39 368.226,1160.24 370.434,1160.64 372.641,1160.61 374.849,1160.17 377.056,1159.36 379.264,1158.22 381.471,1156.8 383.679,1155.17 385.886,1153.38 388.094,1151.52 390.301,1149.68 392.509,1147.96 394.716,1146.44 396.924,1145.05 399.131,1143.67 401.339,1142.3 403.546,1140.96 405.754,1139.64 407.961,1138.33 410.169,1137.04 412.376,1135.76 414.584,1134.51 416.791,1133.27 418.999,1132.05 421.206,1130.84 423.414,1129.65 425.621,1128.47 427.829,1127.31 430.036,1126.17 432.244,1125.04 434.451,1123.92 436.659,1122.82 438.866,1121.74 441.073,1120.67 443.281,1119.61 445.488,1118.57 447.696,1117.54 449.903,1116.52 452.111,1115.52 454.318,1114.53 456.526,1113.56 458.733,1112.59 460.941,1111.64 463.148,1110.71 465.356,1109.78 467.563,1108.87 469.771,1107.97 471.978,1107.08 474.186,1106.2 476.393,1105.34 478.601,1104.49 480.808,1103.64 483.016,1102.81 485.223,1101.99 487.431,1101.18 489.638,1100.39 491.846,1099.6 494.053,1098.82 496.261,1098.06 498.468,1097.3 500.676,1096.55 502.883,1095.82 505.091,1095.09 507.298,1094.37 509.506,1093.67 511.713,1092.97 513.921,1092.28 516.128,1091.6 518.335,1090.93 520.543,1090.27 522.75,1089.62 524.958,1088.97 527.165,1088.34 529.373,1087.71 531.58,1087.09 533.788,1086.48 535.995,1085.88 538.203,1085.29 540.41,1084.7 542.618,1084.12 544.825,1083.55 547.033,1082.98 549.24,1082.43 551.448,1081.88 553.655,1081.34 555.863,1080.8 558.07,1080.28 560.278,1079.75 562.485,1079.24 564.693,1078.73 566.9,1078.23 569.108,1077.74 571.315,1077.25 573.523,1076.77 575.73,1076.3 577.938,1077.33 580.145,1079.07 582.353,1079.01 584.56,1075.62 586.768,1068.28 588.975,1057.33 591.182,1044.07 593.39,1030.71 595.597,1018.19 597.805,1005.83 600.012,993.641 602.22,981.61 604.427,969.738 606.635,958.024 608.842,946.465 611.05,935.059 613.257,923.804 615.465,912.699 617.672,901.741 619.88,890.928 622.087,880.259 624.295,869.731 626.502,859.343 628.71,849.092 630.917,838.978 633.125,828.997 635.332,819.149 637.54,809.432 639.747,799.843 641.955,790.381 644.162,781.045 646.37,771.833 648.577,762.743 650.785,753.773 652.992,744.922 655.2,736.189 657.407,727.571 659.615,719.068 661.822,710.677 664.03,702.398 666.237,694.228 668.444,686.166 670.652,678.212 672.859,670.362 675.067,662.617 677.274,654.975 679.482,647.434 681.689,639.993 683.897,632.65 686.104,625.405 688.312,618.256 690.519,611.202 692.727,604.242 694.934,597.373 697.142,590.596 699.349,583.909 701.557,577.31 703.764,570.799 705.972,564.374 708.179,558.034 710.387,551.778 712.594,545.605 714.802,539.514 717.009,533.504 719.217,527.573 721.424,521.721 723.632,515.947 725.839,510.249 728.047,504.627 730.254,499.079 732.462,493.604 734.669,488.203 736.877,482.873 739.084,477.613 741.292,472.424 743.499,467.303 745.706,462.25 747.914,457.264 750.121,452.345 752.329,447.49 754.536,442.7 756.744,437.974 758.951,433.31 761.159,428.708 763.366,424.167 765.574,419.686 767.781,415.264 769.989,410.902 772.196,406.597 774.404,402.349 776.611,398.157 778.819,394.021 781.026,389.94 783.234,385.912 785.441,381.939 787.649,378.017 789.856,374.148 792.064,370.331 794.271,366.563 796.479,362.846 798.686,359.178 800.894,355.559 803.101,351.987 805.309,348.606 807.516,346.755 809.724,346.416 811.931,347.196 814.139,348.75 816.346,350.786 818.553,353.06 820.761,355.382 822.968,357.611 825.176,359.656 827.383,361.479 829.591,363.09 831.798,364.553 834.006,365.979 836.213,367.514 838.421,369.077 840.628,370.62 842.836,372.143 845.043,373.645 847.251,375.127 849.458,376.59 851.666,378.033 853.873,379.457 856.081,380.862 858.288,382.249 860.496,383.617 862.703,384.967 864.911,386.3 867.118,387.614 869.326,388.911 871.533,390.191 873.741,391.454 875.948,392.701 878.156,393.93 880.363,395.144 882.571,396.341 884.778,397.522 886.986,398.688 889.193,399.838 891.401,400.973 893.608,402.093 895.815,403.198 898.023,404.289 900.23,405.364 902.438,406.426 904.645,407.474 906.853,408.507 909.06,409.527 911.268,410.534 913.475,411.527 915.683,412.507 917.89,413.474 920.098,414.428 922.305,415.37 924.513,416.299 926.72,417.215 928.928,418.12 931.135,419.013 933.343,419.893 935.55,420.763 937.758,421.62 939.965,422.466 942.173,423.301 944.38,424.125 946.588,424.938 948.795,425.741 951.003,426.532 953.21,427.313 955.418,428.084 957.625,428.845 959.833,429.595 962.04,430.336 964.248,431.066 966.455,431.787 968.663,432.499 970.87,433.201 973.077,433.893 975.285,434.577 977.492,435.251 979.7,435.917 981.907,436.573 984.115,437.221 986.322,437.861 988.53,438.491 990.737,439.114 992.945,439.728 995.152,440.334 997.36,440.932 999.567,441.523 1001.77,442.105 1003.98,442.68 1006.19,443.247 1008.4,443.806 1010.6,444.358 1012.81,444.903 1015.02,445.44 1017.23,445.971 1019.43,446.494 1021.64,447.011 1023.85,447.563 1026.06,449.493 1028.26,452.907 1030.47,457.188 1032.68,461.853 1034.89,466.555 1037.09,471.081 1039.3,475.354 1041.51,479.432 1043.72,483.494 1045.92,487.55 1048.13,491.552 1050.34,495.501 1052.55,499.398 1054.75,503.243 1056.96,507.037 1059.17,510.781 1061.38,514.475 1063.58,518.12 1065.79,521.717 1068,525.266 1070.21,528.768 1072.41,532.224 1074.62,535.633 1076.83,538.998 1079.04,542.318 1081.24,545.594 1083.45,548.826 1085.66,552.016 1087.87,555.163 1090.07,558.269 1092.28,561.333 1094.49,564.357 1096.7,567.341 1098.9,570.285 1101.11,573.19 1103.32,576.057 1105.53,578.885 1107.73,581.677 1109.94,584.431 1112.15,587.148 1114.36,589.83 1116.56,592.476 1118.77,595.087 1120.98,597.663 1123.19,600.205 1125.39,602.714 1127.6,605.189 1129.81,607.631 1132.02,610.041 1134.22,612.42 1136.43,614.766 1138.64,617.081 1140.85,619.366 1143.05,621.621 1145.26,623.845 1147.47,626.04 1149.68,628.206 1151.88,630.343 1154.09,632.452 1156.3,634.533 1158.51,636.587 1160.71,638.613 1162.92,640.612 1165.13,642.585 1167.34,644.532 1169.54,646.453 1171.75,648.348 1173.96,650.218 1176.17,652.064 1178.37,653.885 1180.58,655.681 1182.79,657.454 1185,659.204 1187.2,660.93 1189.41,662.633 1191.62,664.314 1193.83,665.973 1196.03,667.609 1198.24,669.224 1200.45,670.817 1202.66,672.389 1204.86,673.941 1207.07,675.472 1209.28,676.982 1211.49,678.473 1213.69,679.944 1215.9,681.395 1218.11,682.827 1220.32,684.248 1222.52,685.664 1224.73,687.071 1226.94,688.467 1229.15,689.847 1231.35,691.211 1233.56,692.554 1235.77,693.875 1237.98,695.172 1240.18,696.442 1242.39,697.686 1244.6,698.9 1246.81,700.085 1249.01,701.239 1251.22,702.362 1253.43,703.453 1255.64,704.512 1257.84,705.54 1260.05,706.536 1262.26,707.501 1264.47,708.437 1266.67,709.344 1268.88,710.222 1271.09,711.075 1273.3,711.904 1275.5,712.71 1277.71,713.495 1279.92,714.263 1282.13,715.016 1284.33,715.757 1286.54,716.489 1288.75,717.215 1290.96,717.939 1293.16,718.66 1295.37,719.372 1297.58,720.075 1299.79,720.768 1301.99,721.452 1304.2,722.127 1306.41,722.793 1308.62,723.45 1310.82,724.098 1313.03,724.738 1315.24,725.37 1317.45,725.993 1319.65,726.607 1321.86,727.214 1324.07,727.812 1326.28,728.403 1328.48,728.986 1330.69,729.561 1332.9,730.128 1335.11,730.688 1337.31,731.241 1339.52,731.786 1341.73,732.324 1343.94,732.855 1346.14,733.378 1348.35,733.895 1350.56,734.405 1352.76,734.908 1354.97,735.405 1357.18,735.895 1359.39,736.378 1361.59,736.855 1363.8,737.326 1366.01,737.79 1368.22,738.249 1370.42,738.701 1372.63,739.147 1374.84,739.588 1377.05,740.022 1379.25,740.451 1381.46,740.874 1383.67,741.291 1385.88,741.703 1388.08,742.11 1390.29,742.511 1392.5,742.906 1394.71,743.297 1396.91,743.682 1399.12,744.062 1401.33,744.437 1403.54,744.808 1405.74,745.173 1407.95,745.533 1410.16,745.889 1412.37,746.24 1414.57,746.586 1416.78,746.928 1418.99,747.265 1421.2,747.598 1423.4,747.926 1425.61,748.25 1427.82,748.57 1430.03,748.885 1432.23,749.196 1434.44,749.503 1436.65,749.806 1438.86,750.105 1441.06,750.4 1443.27,750.692 1445.48,750.979 1447.69,751.262 1449.89,751.542 1452.1,751.818 1454.31,752.09 1456.52,752.359 1458.72,752.624 1460.93,752.886 1463.14,753.647 1465.35,755.031 1467.55,752.828 1469.76,745.947 1471.97,737.162 1474.18,728.898 1476.38,720.744 1478.59,712.698 1480.8,704.759 1483.01,696.924 1485.21,689.194 1487.42,681.566 1489.63,674.04 1491.84,666.613 1494.04,659.285 1496.25,652.054 1498.46,644.918 1500.67,637.878 1502.87,630.93 1505.08,624.075 1507.29,617.311 1509.5,610.636 1511.7,604.05 1513.91,597.551 1516.12,591.138 1518.33,584.81 1520.53,578.567 1522.74,572.406 1524.95,566.326 1527.16,560.328 1529.36,554.408 1531.57,548.568 1533.78,542.804 1535.99,537.117 1538.19,531.506 1540.4,525.969 1542.61,520.505 1544.82,515.114 1547.02,509.794 1549.23,504.545 1551.44,499.365 1553.65,494.254 1555.85,489.211 1558.06,484.235 1560.27,479.324 1562.48,474.479 1564.68,469.698 1566.89,464.981 1569.1,460.325 1571.31,455.732 1573.51,451.199 1575.72,446.727 1577.93,442.314 1580.14,437.959 1582.34,433.662 1584.55,429.423 1586.76,425.239 1588.97,421.111 1591.17,417.037 1593.38,413.018 1595.59,409.052 1597.8,405.138 1600,401.276 1602.21,397.466 1604.42,393.706 1606.63,389.996 1608.83,386.335 1611.04,382.723 1613.25,379.158 1615.46,375.641 1617.66,372.17 1619.87,368.745 1622.08,365.366 1624.29,362.032 1626.49,358.741 1628.7,355.495 1630.91,352.291 1633.12,349.13 1635.32,346.011 1637.53,342.933 1639.74,339.896 1641.95,336.899 1644.15,333.942 1646.36,331.024 1648.57,328.145 1650.78,325.304 1652.98,322.501 1655.19,319.735 1657.4,317.006 1659.61,314.313 1661.81,311.655 1664.02,309.033 1666.23,306.446 1668.44,303.892 1670.64,301.373 1672.85,298.887 1675.06,296.434 1677.27,294.014 1679.47,291.625 1681.68,289.457 1683.89,288.092 1686.1,287.488 1688.3,287.558 1690.51,288.218 1692.72,289.389 1694.93,290.996 1697.13,292.971 1699.34,295.247 1701.55,297.765 1703.76,300.469 1705.96,303.308 1708.17,306.235 1710.38,309.208 1712.59,312.19 1714.79,315.15 1717,318.058 1719.21,320.892 1721.42,323.632 1723.62,326.266 1725.83,328.783 1728.04,331.179 1730.25,333.454 1732.45,335.612 1734.66,337.663 1736.87,339.62 1739.07,341.502 1741.28,343.332 1743.49,345.138 1745.7,346.952 1747.9,348.812 1750.11,350.722 1752.32,352.612 1754.53,354.477 1756.73,356.317 1758.94,358.132 1761.15,359.924 1763.36,361.691 1765.56,363.436 1767.77,365.157 1769.98,366.855 1772.19,368.531 1774.39,370.185 1776.6,371.816 1778.81,373.426 1781.02,375.015 1783.22,376.583 1785.43,378.129 1787.64,379.656 1789.85,381.162 1792.05,382.648 1794.26,384.114 1796.47,385.562 1798.68,386.99 1800.88,388.399 1803.09,389.789 1805.3,391.161 1807.51,392.515 1809.71,393.851 1811.92,395.17 1814.13,396.471 1816.34,397.754 1818.54,399.021 1820.75,400.271 1822.96,401.504 1825.17,402.721 1827.37,403.921 1829.58,405.106 1831.79,406.275 1834,407.428 1836.2,408.566 1838.41,409.689 1840.62,410.797 1842.83,411.89 1845.03,412.969 1847.24,414.034 1849.45,415.084 1851.66,416.12 1853.86,417.143 1856.07,418.151 1858.28,419.147 1860.49,420.129 1862.69,421.098 1864.9,422.055 1867.11,422.998 1869.32,423.929 1871.52,424.848 1873.73,425.755 1875.94,426.649 1878.15,427.532 1880.35,428.403 1882.56,429.263 1884.77,430.111 1886.98,430.948 1889.18,431.773 1891.39,432.588 1893.6,433.392 1895.81,434.186 1898.01,434.969 1900.22,435.741 1902.43,436.504 1904.64,437.228 1906.84,437.794 1909.05,438.203 1911.26,438.47 1913.47,438.608 1915.67,438.632 1917.88,438.554 1920.09,438.386 1922.3,438.14 1924.5,437.827 1926.71,437.457 1928.92,437.04 1931.13,436.585 1933.33,436.101 1935.54,435.595 1937.75,435.074 1939.96,434.545 1942.16,434.014 1944.37,433.487 1946.58,432.967 1948.79,432.459 1950.99,431.967 1953.2,431.492 1955.41,431.038 1957.62,430.606 1959.82,430.196 1962.03,429.81 1964.24,429.446 1966.45,429.103 1968.65,428.78 1970.86,428.475 1973.07,428.185 1975.28,427.906 1977.48,427.634 1979.69,427.364 1981.9,427.092 1984.11,426.81 1986.31,426.514 1988.52,426.218 1990.73,425.927 1992.94,425.639 1995.14,425.354 1997.35,425.074 1999.56,424.797 2001.77,424.524 2003.97,424.255 2006.18,423.989 2008.39,423.727 2010.6,423.468 2012.8,423.212 2015.01,422.96 2017.22,422.712 2019.43,422.466 2021.63,422.224 2023.84,421.985 2026.05,421.749 2028.26,421.517 2030.46,421.287 2032.67,421.061 2034.88,420.837 2037.09,420.617 2039.29,420.399 2041.5,420.184 2043.71,419.972 2045.92,419.763 2048.12,419.535 2050.33,419.287 2052.54,419.022 2054.75,418.744 2056.95,418.458 2059.16,418.167 2061.37,417.876 2063.58,417.587 2065.78,417.303 2067.99,417.029 2070.2,416.766 2072.41,416.518 2074.61,416.287 2076.82,416.075 2079.03,415.883 2081.24,415.715 2083.44,415.572 2085.65,415.454 2087.86,415.364 2090.07,415.302 2092.27,415.269 2094.48,415.265 2096.69,415.292 2098.9,415.349 2101.1,415.436 2103.31,415.554 2105.52,415.701 2107.73,415.877 2109.93,416.082 2112.14,416.313 2114.35,416.571 2116.55,416.853 2118.76,417.158 2120.97,417.484 2123.18,417.83 2125.38,418.192 2127.59,418.568 2129.8,418.956 2132.01,419.353 2134.21,419.756 2136.42,420.161 2138.63,420.566 2140.84,420.965 2143.04,421.356 2145.25,421.735 2147.46,422.096 2149.67,422.437 2151.87,422.76 2154.08,423.079 2156.29,423.393 2158.5,423.704 2160.7,424.01 2162.91,424.312 2165.12,424.611 2167.33,424.905 2169.53,425.195 2171.74,425.482 2173.95,425.765 2176.16,426.044 2178.36,426.319 2180.57,426.591 2182.78,426.859 2184.99,427.123 2187.19,427.384 2189.4,427.642 2191.61,427.896 2193.82,428.146 2196.02,428.394 2198.23,428.638 2200.44,428.879 2202.65,429.117 2204.85,429.351 2207.06,429.583 2209.27,429.811 2211.48,430.037 2213.68,430.259 2215.89,430.479 2218.1,430.695 2220.31,430.909 2222.51,431.12 2224.72,431.329 2226.93,431.534 2229.14,431.737 2231.34,431.937 2233.55,432.134 2235.76,432.329 2237.97,432.521 2240.17,432.711 2242.38,432.898 2244.59,433.083 2246.8,433.265 2249,433.445 2251.21,433.622 2253.42,433.797 2255.63,433.97 2257.83,434.14 2260.04,434.308 2262.25,434.474 2264.46,434.637 2266.66,434.799 2268.87,434.958 2271.08,435.115 2273.29,435.27 2275.49,435.423 2277.7,435.574 2279.91,435.723 2282.12,435.87 2284.32,436.015 2286.53,436.158 2288.74,436.299 2290.95,436.438 2293.15,436.575 2295.36,436.711 2297.57,436.844 2299.78,436.976 2301.98,437.106 2304.19,437.235 2306.4,437.361 2308.61,437.486 2310.81,437.61 2313.02,437.731 2315.23,437.852 2317.44,437.97 2319.64,438.087 2321.85,438.202 2324.06,438.316 2326.27,438.429 2328.47,438.54 2330.68,438.649 2332.89,438.757 2335.1,438.864 2337.3,438.969 2339.51,439.073 2341.72,439.175 2343.93,439.276 2346.13,439.376 2348.34,439.475 2350.55,439.572 2352.76,439.668 "/>
<polyline clip-path="url(#clip532)" style="stroke:#e26f46; stroke-linecap:round; stroke-linejoin:round; stroke-width:4; stroke-opacity:1; fill:none" points="147.478,1384.24 149.685,1384.24 151.893,1384.24 154.1,1384.24 156.308,1384.24 158.515,1384.24 160.723,1384.24 162.93,1384.24 165.138,1384.24 167.345,1384.24 169.553,1384.24 171.76,1384.24 173.968,1384.24 176.175,1384.24 178.383,1384.24 180.59,1384.24 182.798,1384.24 185.005,1384.24 187.213,1384.24 189.42,1384.24 191.628,1384.24 193.835,1384.24 196.043,1384.24 198.25,1384.24 200.458,1384.24 202.665,1384.24 204.873,1384.24 207.08,1384.24 209.288,1384.24 211.495,1384.24 213.702,1384.24 215.91,1384.24 218.117,1384.24 220.325,1384.24 222.532,1384.24 224.74,1384.24 226.947,1384.24 229.155,1384.24 231.362,1384.24 233.57,1384.24 235.777,1384.24 237.985,1384.24 240.192,1384.24 242.4,1384.24 244.607,1384.24 246.815,1384.24 249.022,1384.24 251.23,1384.24 253.437,1384.24 255.645,1384.24 257.852,1384.24 260.06,1384.24 262.267,1384.24 264.475,1384.24 266.682,1384.24 268.89,1384.24 271.097,1384.24 273.305,1384.24 275.512,1384.24 277.72,1384.24 279.927,1384.24 282.135,1384.24 284.342,1384.24 286.549,1384.24 288.757,1384.24 290.964,1384.24 293.172,1384.24 295.379,1384.24 297.587,1384.24 299.794,1384.24 302.002,1384.24 304.209,1384.24 306.417,1384.24 308.624,1384.24 310.832,1384.24 313.039,1384.24 315.247,1384.24 317.454,1384.24 319.662,1384.24 321.869,1384.24 324.077,1384.24 326.284,1384.24 328.492,1384.24 330.699,1384.24 332.907,1384.24 335.114,1384.24 337.322,1384.24 339.529,1384.24 341.737,1384.24 343.944,1384.24 346.152,1384.24 348.359,1384.24 350.567,1384.24 352.774,1384.24 354.982,1384.24 357.189,1384.24 359.397,1384.24 361.604,1384.24 363.811,1384.24 366.019,1384.24 368.226,1041 370.434,1041 372.641,1041 374.849,1041 377.056,1041 379.264,1041 381.471,1041 383.679,1041 385.886,1041 388.094,1041 390.301,1041 392.509,1041 394.716,1041 396.924,1041 399.131,1041 401.339,1041 403.546,1041 405.754,1041 407.961,1041 410.169,1041 412.376,1041 414.584,1041 416.791,1041 418.999,1041 421.206,1041 423.414,1041 425.621,1041 427.829,1041 430.036,1041 432.244,1041 434.451,1041 436.659,1041 438.866,1041 441.073,1041 443.281,1041 445.488,1041 447.696,1041 449.903,1041 452.111,1041 454.318,1041 456.526,1041 458.733,1041 460.941,1041 463.148,1041 465.356,1041 467.563,1041 469.771,1041 471.978,1041 474.186,1041 476.393,1041 478.601,1041 480.808,1041 483.016,1041 485.223,1041 487.431,1041 489.638,1041 491.846,1041 494.053,1041 496.261,1041 498.468,1041 500.676,1041 502.883,1041 505.091,1041 507.298,1041 509.506,1041 511.713,1041 513.921,1041 516.128,1041 518.335,1041 520.543,1041 522.75,1041 524.958,1041 527.165,1041 529.373,1041 531.58,1041 533.788,1041 535.995,1041 538.203,1041 540.41,1041 542.618,1041 544.825,1041 547.033,1041 549.24,1041 551.448,1041 553.655,1041 555.863,1041 558.07,1041 560.278,1041 562.485,1041 564.693,1041 566.9,1041 569.108,1041 571.315,1041 573.523,1041 575.73,1041 577.938,1041 580.145,1041 582.353,1041 584.56,1041 586.768,1041 588.975,86.1857 591.182,86.1857 593.39,86.1857 595.597,86.1857 597.805,86.1857 600.012,86.1857 602.22,86.1857 604.427,86.1857 606.635,86.1857 608.842,86.1857 611.05,86.1857 613.257,86.1857 615.465,86.1857 617.672,86.1857 619.88,86.1857 622.087,86.1857 624.295,86.1857 626.502,86.1857 628.71,86.1857 630.917,86.1857 633.125,86.1857 635.332,86.1857 637.54,86.1857 639.747,86.1857 641.955,86.1857 644.162,86.1857 646.37,86.1857 648.577,86.1857 650.785,86.1857 652.992,86.1857 655.2,86.1857 657.407,86.1857 659.615,86.1857 661.822,86.1857 664.03,86.1857 666.237,86.1857 668.444,86.1857 670.652,86.1857 672.859,86.1857 675.067,86.1857 677.274,86.1857 679.482,86.1857 681.689,86.1857 683.897,86.1857 686.104,86.1857 688.312,86.1857 690.519,86.1857 692.727,86.1857 694.934,86.1857 697.142,86.1857 699.349,86.1857 701.557,86.1857 703.764,86.1857 705.972,86.1857 708.179,86.1857 710.387,86.1857 712.594,86.1857 714.802,86.1857 717.009,86.1857 719.217,86.1857 721.424,86.1857 723.632,86.1857 725.839,86.1857 728.047,86.1857 730.254,86.1857 732.462,86.1857 734.669,86.1857 736.877,86.1857 739.084,86.1857 741.292,86.1857 743.499,86.1857 745.706,86.1857 747.914,86.1857 750.121,86.1857 752.329,86.1857 754.536,86.1857 756.744,86.1857 758.951,86.1857 761.159,86.1857 763.366,86.1857 765.574,86.1857 767.781,86.1857 769.989,86.1857 772.196,86.1857 774.404,86.1857 776.611,86.1857 778.819,86.1857 781.026,86.1857 783.234,86.1857 785.441,86.1857 787.649,86.1857 789.856,86.1857 792.064,86.1857 794.271,86.1857 796.479,86.1857 798.686,86.1857 800.894,86.1857 803.101,86.1857 805.309,86.1857 807.516,86.1857 809.724,485.447 811.931,485.447 814.139,485.447 816.346,485.447 818.553,485.447 820.761,485.447 822.968,485.447 825.176,485.447 827.383,485.447 829.591,485.447 831.798,485.447 834.006,485.447 836.213,485.447 838.421,485.447 840.628,485.447 842.836,485.447 845.043,485.447 847.251,485.447 849.458,485.447 851.666,485.447 853.873,485.447 856.081,485.447 858.288,485.447 860.496,485.447 862.703,485.447 864.911,485.447 867.118,485.447 869.326,485.447 871.533,485.447 873.741,485.447 875.948,485.447 878.156,485.447 880.363,485.447 882.571,485.447 884.778,485.447 886.986,485.447 889.193,485.447 891.401,485.447 893.608,485.447 895.815,485.447 898.023,485.447 900.23,485.447 902.438,485.447 904.645,485.447 906.853,485.447 909.06,485.447 911.268,485.447 913.475,485.447 915.683,485.447 917.89,485.447 920.098,485.447 922.305,485.447 924.513,485.447 926.72,485.447 928.928,485.447 931.135,485.447 933.343,485.447 935.55,485.447 937.758,485.447 939.965,485.447 942.173,485.447 944.38,485.447 946.588,485.447 948.795,485.447 951.003,485.447 953.21,485.447 955.418,485.447 957.625,485.447 959.833,485.447 962.04,485.447 964.248,485.447 966.455,485.447 968.663,485.447 970.87,485.447 973.077,485.447 975.285,485.447 977.492,485.447 979.7,485.447 981.907,485.447 984.115,485.447 986.322,485.447 988.53,485.447 990.737,485.447 992.945,485.447 995.152,485.447 997.36,485.447 999.567,485.447 1001.77,485.447 1003.98,485.447 1006.19,485.447 1008.4,485.447 1010.6,485.447 1012.81,485.447 1015.02,485.447 1017.23,485.447 1019.43,485.447 1021.64,485.447 1023.85,485.447 1026.06,485.447 1028.26,485.447 1030.47,789.41 1032.68,789.41 1034.89,789.41 1037.09,789.41 1039.3,789.41 1041.51,789.41 1043.72,789.41 1045.92,789.41 1048.13,789.41 1050.34,789.41 1052.55,789.41 1054.75,789.41 1056.96,789.41 1059.17,789.41 1061.38,789.41 1063.58,789.41 1065.79,789.41 1068,789.41 1070.21,789.41 1072.41,789.41 1074.62,789.41 1076.83,789.41 1079.04,789.41 1081.24,789.41 1083.45,789.41 1085.66,789.41 1087.87,789.41 1090.07,789.41 1092.28,789.41 1094.49,789.41 1096.7,789.41 1098.9,789.41 1101.11,789.41 1103.32,789.41 1105.53,789.41 1107.73,789.41 1109.94,789.41 1112.15,789.41 1114.36,789.41 1116.56,789.41 1118.77,789.41 1120.98,789.41 1123.19,789.41 1125.39,789.41 1127.6,789.41 1129.81,789.41 1132.02,789.41 1134.22,789.41 1136.43,789.41 1138.64,789.41 1140.85,789.41 1143.05,789.41 1145.26,789.41 1147.47,789.41 1149.68,789.41 1151.88,789.41 1154.09,789.41 1156.3,789.41 1158.51,789.41 1160.71,789.41 1162.92,789.41 1165.13,789.41 1167.34,789.41 1169.54,789.41 1171.75,789.41 1173.96,789.41 1176.17,789.41 1178.37,789.41 1180.58,789.41 1182.79,789.41 1185,789.41 1187.2,789.41 1189.41,789.41 1191.62,789.41 1193.83,789.41 1196.03,789.41 1198.24,789.41 1200.45,789.41 1202.66,789.41 1204.86,789.41 1207.07,789.41 1209.28,789.41 1211.49,789.41 1213.69,789.41 1215.9,789.41 1218.11,789.41 1220.32,789.41 1222.52,789.41 1224.73,789.41 1226.94,789.41 1229.15,789.41 1231.35,789.41 1233.56,789.41 1235.77,789.41 1237.98,789.41 1240.18,789.41 1242.39,789.41 1244.6,789.41 1246.81,789.41 1249.01,789.41 1251.22,772.359 1253.43,772.359 1255.64,772.359 1257.84,772.359 1260.05,772.359 1262.26,772.359 1264.47,772.359 1266.67,772.359 1268.88,772.359 1271.09,772.359 1273.3,772.359 1275.5,772.359 1277.71,772.359 1279.92,772.359 1282.13,772.359 1284.33,772.359 1286.54,772.359 1288.75,772.359 1290.96,772.359 1293.16,772.359 1295.37,772.359 1297.58,772.359 1299.79,772.359 1301.99,772.359 1304.2,772.359 1306.41,772.359 1308.62,772.359 1310.82,772.359 1313.03,772.359 1315.24,772.359 1317.45,772.359 1319.65,772.359 1321.86,772.359 1324.07,772.359 1326.28,772.359 1328.48,772.359 1330.69,772.359 1332.9,772.359 1335.11,772.359 1337.31,772.359 1339.52,772.359 1341.73,772.359 1343.94,772.359 1346.14,772.359 1348.35,772.359 1350.56,772.359 1352.76,772.359 1354.97,772.359 1357.18,772.359 1359.39,772.359 1361.59,772.359 1363.8,772.359 1366.01,772.359 1368.22,772.359 1370.42,772.359 1372.63,772.359 1374.84,772.359 1377.05,772.359 1379.25,772.359 1381.46,772.359 1383.67,772.359 1385.88,772.359 1388.08,772.359 1390.29,772.359 1392.5,772.359 1394.71,772.359 1396.91,772.359 1399.12,772.359 1401.33,772.359 1403.54,772.359 1405.74,772.359 1407.95,772.359 1410.16,772.359 1412.37,772.359 1414.57,772.359 1416.78,772.359 1418.99,772.359 1421.2,772.359 1423.4,772.359 1425.61,772.359 1427.82,772.359 1430.03,772.359 1432.23,772.359 1434.44,772.359 1436.65,772.359 1438.86,772.359 1441.06,772.359 1443.27,772.359 1445.48,772.359 1447.69,772.359 1449.89,772.359 1452.1,772.359 1454.31,772.359 1456.52,772.359 1458.72,772.359 1460.93,772.359 1463.14,772.359 1465.35,772.359 1467.55,772.359 1469.76,772.359 1471.97,113.865 1474.18,113.865 1476.38,113.865 1478.59,113.865 1480.8,113.865 1483.01,113.865 1485.21,113.865 1487.42,113.865 1489.63,113.865 1491.84,113.865 1494.04,113.865 1496.25,113.865 1498.46,113.865 1500.67,113.865 1502.87,113.865 1505.08,113.865 1507.29,113.865 1509.5,113.865 1511.7,113.865 1513.91,113.865 1516.12,113.865 1518.33,113.865 1520.53,113.865 1522.74,113.865 1524.95,113.865 1527.16,113.865 1529.36,113.865 1531.57,113.865 1533.78,113.865 1535.99,113.865 1538.19,113.865 1540.4,113.865 1542.61,113.865 1544.82,113.865 1547.02,113.865 1549.23,113.865 1551.44,113.865 1553.65,113.865 1555.85,113.865 1558.06,113.865 1560.27,113.865 1562.48,113.865 1564.68,113.865 1566.89,113.865 1569.1,113.865 1571.31,113.865 1573.51,113.865 1575.72,113.865 1577.93,113.865 1580.14,113.865 1582.34,113.865 1584.55,113.865 1586.76,113.865 1588.97,113.865 1591.17,113.865 1593.38,113.865 1595.59,113.865 1597.8,113.865 1600,113.865 1602.21,113.865 1604.42,113.865 1606.63,113.865 1608.83,113.865 1611.04,113.865 1613.25,113.865 1615.46,113.865 1617.66,113.865 1619.87,113.865 1622.08,113.865 1624.29,113.865 1626.49,113.865 1628.7,113.865 1630.91,113.865 1633.12,113.865 1635.32,113.865 1637.53,113.865 1639.74,113.865 1641.95,113.865 1644.15,113.865 1646.36,113.865 1648.57,113.865 1650.78,113.865 1652.98,113.865 1655.19,113.865 1657.4,113.865 1659.61,113.865 1661.81,113.865 1664.02,113.865 1666.23,113.865 1668.44,113.865 1670.64,113.865 1672.85,113.865 1675.06,113.865 1677.27,113.865 1679.47,113.865 1681.68,113.865 1683.89,113.865 1686.1,113.865 1688.3,113.865 1690.51,113.865 1692.72,493.255 1694.93,493.255 1697.13,493.255 1699.34,493.255 1701.55,493.255 1703.76,493.255 1705.96,493.255 1708.17,493.255 1710.38,493.255 1712.59,493.255 1714.79,493.255 1717,493.255 1719.21,493.255 1721.42,493.255 1723.62,493.255 1725.83,493.255 1728.04,493.255 1730.25,493.255 1732.45,493.255 1734.66,493.255 1736.87,493.255 1739.07,493.255 1741.28,493.255 1743.49,493.255 1745.7,493.255 1747.9,493.255 1750.11,493.255 1752.32,493.255 1754.53,493.255 1756.73,493.255 1758.94,493.255 1761.15,493.255 1763.36,493.255 1765.56,493.255 1767.77,493.255 1769.98,493.255 1772.19,493.255 1774.39,493.255 1776.6,493.255 1778.81,493.255 1781.02,493.255 1783.22,493.255 1785.43,493.255 1787.64,493.255 1789.85,493.255 1792.05,493.255 1794.26,493.255 1796.47,493.255 1798.68,493.255 1800.88,493.255 1803.09,493.255 1805.3,493.255 1807.51,493.255 1809.71,493.255 1811.92,493.255 1814.13,493.255 1816.34,493.255 1818.54,493.255 1820.75,493.255 1822.96,493.255 1825.17,493.255 1827.37,493.255 1829.58,493.255 1831.79,493.255 1834,493.255 1836.2,493.255 1838.41,493.255 1840.62,493.255 1842.83,493.255 1845.03,493.255 1847.24,493.255 1849.45,493.255 1851.66,493.255 1853.86,493.255 1856.07,493.255 1858.28,493.255 1860.49,493.255 1862.69,493.255 1864.9,493.255 1867.11,493.255 1869.32,493.255 1871.52,493.255 1873.73,493.255 1875.94,493.255 1878.15,493.255 1880.35,493.255 1882.56,493.255 1884.77,493.255 1886.98,493.255 1889.18,493.255 1891.39,493.255 1893.6,493.255 1895.81,493.255 1898.01,493.255 1900.22,493.255 1902.43,493.255 1904.64,493.255 1906.84,493.255 1909.05,493.255 1911.26,493.255 1913.47,404.203 1915.67,404.203 1917.88,404.203 1920.09,404.203 1922.3,404.203 1924.5,404.203 1926.71,404.203 1928.92,404.203 1931.13,404.203 1933.33,404.203 1935.54,404.203 1937.75,404.203 1939.96,404.203 1942.16,404.203 1944.37,404.203 1946.58,404.203 1948.79,404.203 1950.99,404.203 1953.2,404.203 1955.41,404.203 1957.62,404.203 1959.82,404.203 1962.03,404.203 1964.24,404.203 1966.45,404.203 1968.65,404.203 1970.86,404.203 1973.07,404.203 1975.28,404.203 1977.48,404.203 1979.69,404.203 1981.9,404.203 1984.11,404.203 1986.31,404.203 1988.52,404.203 1990.73,404.203 1992.94,404.203 1995.14,404.203 1997.35,404.203 1999.56,404.203 2001.77,404.203 2003.97,404.203 2006.18,404.203 2008.39,404.203 2010.6,404.203 2012.8,404.203 2015.01,404.203 2017.22,404.203 2019.43,404.203 2021.63,404.203 2023.84,404.203 2026.05,404.203 2028.26,404.203 2030.46,404.203 2032.67,404.203 2034.88,404.203 2037.09,404.203 2039.29,404.203 2041.5,404.203 2043.71,404.203 2045.92,404.203 2048.12,404.203 2050.33,404.203 2052.54,404.203 2054.75,404.203 2056.95,404.203 2059.16,404.203 2061.37,404.203 2063.58,404.203 2065.78,404.203 2067.99,404.203 2070.2,404.203 2072.41,404.203 2074.61,404.203 2076.82,404.203 2079.03,404.203 2081.24,404.203 2083.44,404.203 2085.65,404.203 2087.86,404.203 2090.07,404.203 2092.27,404.203 2094.48,404.203 2096.69,404.203 2098.9,404.203 2101.1,404.203 2103.31,404.203 2105.52,404.203 2107.73,404.203 2109.93,404.203 2112.14,404.203 2114.35,404.203 2116.55,404.203 2118.76,404.203 2120.97,404.203 2123.18,404.203 2125.38,404.203 2127.59,404.203 2129.8,404.203 2132.01,404.203 2134.21,446.808 2136.42,446.808 2138.63,446.808 2140.84,446.808 2143.04,446.808 2145.25,446.808 2147.46,446.808 2149.67,446.808 2151.87,446.808 2154.08,446.808 2156.29,446.808 2158.5,446.808 2160.7,446.808 2162.91,446.808 2165.12,446.808 2167.33,446.808 2169.53,446.808 2171.74,446.808 2173.95,446.808 2176.16,446.808 2178.36,446.808 2180.57,446.808 2182.78,446.808 2184.99,446.808 2187.19,446.808 2189.4,446.808 2191.61,446.808 2193.82,446.808 2196.02,446.808 2198.23,446.808 2200.44,446.808 2202.65,446.808 2204.85,446.808 2207.06,446.808 2209.27,446.808 2211.48,446.808 2213.68,446.808 2215.89,446.808 2218.1,446.808 2220.31,446.808 2222.51,446.808 2224.72,446.808 2226.93,446.808 2229.14,446.808 2231.34,446.808 2233.55,446.808 2235.76,446.808 2237.97,446.808 2240.17,446.808 2242.38,446.808 2244.59,446.808 2246.8,446.808 2249,446.808 2251.21,446.808 2253.42,446.808 2255.63,446.808 2257.83,446.808 2260.04,446.808 2262.25,446.808 2264.46,446.808 2266.66,446.808 2268.87,446.808 2271.08,446.808 2273.29,446.808 2275.49,446.808 2277.7,446.808 2279.91,446.808 2282.12,446.808 2284.32,446.808 2286.53,446.808 2288.74,446.808 2290.95,446.808 2293.15,446.808 2295.36,446.808 2297.57,446.808 2299.78,446.808 2301.98,446.808 2304.19,446.808 2306.4,446.808 2308.61,446.808 2310.81,446.808 2313.02,446.808 2315.23,446.808 2317.44,446.808 2319.64,446.808 2321.85,446.808 2324.06,446.808 2326.27,446.808 2328.47,446.808 2330.68,446.808 2332.89,446.808 2335.1,446.808 2337.3,446.808 2339.51,446.808 2341.72,446.808 2343.93,446.808 2346.13,446.808 2348.34,446.808 2350.55,446.808 2352.76,446.808 "/>
<path clip-path="url(#clip530)" d="M2033.58 1377.32 L2279.25 1377.32 L2279.25 1221.8 L2033.58 1221.8  Z" fill="#ffffff" fill-rule="evenodd" fill-opacity="1"/>
<polyline clip-path="url(#clip530)" style="stroke:#000000; stroke-linecap:round; stroke-linejoin:round; stroke-width:4; stroke-opacity:1; fill:none" points="2033.58,1377.32 2279.25,1377.32 2279.25,1221.8 2033.58,1221.8 2033.58,1377.32 "/>
<polyline clip-path="url(#clip530)" style="stroke:#009af9; stroke-linecap:round; stroke-linejoin:round; stroke-width:4; stroke-opacity:1; fill:none" points="2058.08,1273.64 2205.1,1273.64 "/>
<path clip-path="url(#clip530)" d="M2254.26 1264.99 L2244.88 1277.61 L2254.74 1290.92 L2249.72 1290.92 L2242.17 1280.73 L2234.63 1290.92 L2229.6 1290.92 L2239.67 1277.35 L2230.46 1264.99 L2235.48 1264.99 L2242.36 1274.23 L2249.23 1264.99 L2254.26 1264.99 Z" fill="#000000" fill-rule="nonzero" fill-opacity="1" /><polyline clip-path="url(#clip530)" style="stroke:#e26f46; stroke-linecap:round; stroke-linejoin:round; stroke-width:4; stroke-opacity:1; fill:none" points="2058.08,1325.48 2205.1,1325.48 "/>
<path clip-path="url(#clip530)" d="M2246.11 1306.74 L2246.11 1310.28 L2242.04 1310.28 Q2239.74 1310.28 2238.84 1311.2 Q2237.96 1312.13 2237.96 1314.54 L2237.96 1316.83 L2244.98 1316.83 L2244.98 1320.14 L2237.96 1320.14 L2237.96 1342.76 L2233.68 1342.76 L2233.68 1320.14 L2229.6 1320.14 L2229.6 1316.83 L2233.68 1316.83 L2233.68 1315.02 Q2233.68 1310.7 2235.69 1308.73 Q2237.71 1306.74 2242.08 1306.74 L2246.11 1306.74 Z" fill="#000000" fill-rule="nonzero" fill-opacity="1" /></svg>
