<?xml version="1.0" encoding="utf-8"?>
<svg xmlns="http://www.w3.org/2000/svg" xmlns:xlink="http://www.w3.org/1999/xlink" width="600" height="400" viewBox="0 0 2400 1600">
<defs>
  <clipPath id="clip500">
    <rect x="0" y="0" width="2400" height="1600"/>
  </clipPath>
</defs>
<path clip-path="url(#clip500)" d="M0 1600 L2400 1600 L2400 0 L0 0  Z" fill="#ffffff" fill-rule="evenodd" fill-opacity="1"/>
<defs>
  <clipPath id="clip501">
    <rect x="480" y="0" width="1681" height="1600"/>
  </clipPath>
</defs>
<path clip-path="url(#clip500)" d="M147.478 1423.18 L2352.76 1423.18 L2352.76 47.2441 L147.478 47.2441  Z" fill="#ffffff" fill-rule="evenodd" fill-opacity="1"/>
<defs>
  <clipPath id="clip502">
    <rect x="147" y="47" width="2206" height="1377"/>
  </clipPath>
</defs>
<polyline clip-path="url(#clip502)" style="stroke:#000000; stroke-linecap:round; stroke-linejoin:round; stroke-width:2; stroke-opacity:0.1; fill:none" points="147.478,1423.18 147.478,47.2441 "/>
<polyline clip-path="url(#clip502)" style="stroke:#000000; stroke-linecap:round; stroke-linejoin:round; stroke-width:2; stroke-opacity:0.1; fill:none" points="588.534,1423.18 588.534,47.2441 "/>
<polyline clip-path="url(#clip502)" style="stroke:#000000; stroke-linecap:round; stroke-linejoin:round; stroke-width:2; stroke-opacity:0.1; fill:none" points="1029.59,1423.18 1029.59,47.2441 "/>
<polyline clip-path="url(#clip502)" style="stroke:#000000; stroke-linecap:round; stroke-linejoin:round; stroke-width:2; stroke-opacity:0.1; fill:none" points="1470.64,1423.18 1470.64,47.2441 "/>
<polyline clip-path="url(#clip502)" style="stroke:#000000; stroke-linecap:round; stroke-linejoin:round; stroke-width:2; stroke-opacity:0.1; fill:none" points="1911.7,1423.18 1911.7,47.2441 "/>
<polyline clip-path="url(#clip502)" style="stroke:#000000; stroke-linecap:round; stroke-linejoin:round; stroke-width:2; stroke-opacity:0.1; fill:none" points="2352.76,1423.18 2352.76,47.2441 "/>
<polyline clip-path="url(#clip502)" style="stroke:#000000; stroke-linecap:round; stroke-linejoin:round; stroke-width:2; stroke-opacity:0.1; fill:none" points="147.478,1093.1 2352.76,1093.1 "/>
<polyline clip-path="url(#clip502)" style="stroke:#000000; stroke-linecap:round; stroke-linejoin:round; stroke-width:2; stroke-opacity:0.1; fill:none" points="147.478,760.898 2352.76,760.898 "/>
<polyline clip-path="url(#clip502)" style="stroke:#000000; stroke-linecap:round; stroke-linejoin:round; stroke-width:2; stroke-opacity:0.1; fill:none" points="147.478,428.696 2352.76,428.696 "/>
<polyline clip-path="url(#clip502)" style="stroke:#000000; stroke-linecap:round; stroke-linejoin:round; stroke-width:2; stroke-opacity:0.1; fill:none" points="147.478,96.4946 2352.76,96.4946 "/>
<polyline clip-path="url(#clip500)" style="stroke:#000000; stroke-linecap:round; stroke-linejoin:round; stroke-width:4; stroke-opacity:1; fill:none" points="147.478,1423.18 2352.76,1423.18 "/>
<polyline clip-path="url(#clip500)" style="stroke:#000000; stroke-linecap:round; stroke-linejoin:round; stroke-width:4; stroke-opacity:1; fill:none" points="147.478,1423.18 147.478,1404.28 "/>
<polyline clip-path="url(#clip500)" style="stroke:#000000; stroke-linecap:round; stroke-linejoin:round; stroke-width:4; stroke-opacity:1; fill:none" points="588.534,1423.18 588.534,1404.28 "/>
<polyline clip-path="url(#clip500)" style="stroke:#000000; stroke-linecap:round; stroke-linejoin:round; stroke-width:4; stroke-opacity:1; fill:none" points="1029.59,1423.18 1029.59,1404.28 "/>
<polyline clip-path="url(#clip500)" style="stroke:#000000; stroke-linecap:round; stroke-linejoin:round; stroke-width:4; stroke-opacity:1; fill:none" points="1470.64,1423.18 1470.64,1404.28 "/>
<polyline clip-path="url(#clip500)" style="stroke:#000000; stroke-linecap:round; stroke-linejoin:round; stroke-width:4; stroke-opacity:1; fill:none" points="1911.7,1423.18 1911.7,1404.28 "/>
<polyline clip-path="url(#clip500)" style="stroke:#000000; stroke-linecap:round; stroke-linejoin:round; stroke-width:4; stroke-opacity:1; fill:none" points="2352.76,1423.18 2352.76,1404.28 "/>
<path clip-path="url(#clip500)" d="M147.478 1454.1 Q143.867 1454.1 142.038 1457.66 Q140.233 1461.2 140.233 1468.33 Q140.233 1475.44 142.038 1479.01 Q143.867 1482.55 147.478 1482.55 Q151.112 1482.55 152.918 1479.01 Q154.746 1475.44 154.746 1468.33 Q154.746 1461.2 152.918 1457.66 Q151.112 1454.1 147.478 1454.1 M147.478 1450.39 Q153.288 1450.39 156.344 1455 Q159.422 1459.58 159.422 1468.33 Q159.422 1477.06 156.344 1481.67 Q153.288 1486.25 147.478 1486.25 Q141.668 1486.25 138.589 1481.67 Q135.534 1477.06 135.534 1468.33 Q135.534 1459.58 138.589 1455 Q141.668 1450.39 147.478 1450.39 Z" fill="#000000" fill-rule="nonzero" fill-opacity="1" /><path clip-path="url(#clip500)" d="M583.186 1481.64 L599.506 1481.64 L599.506 1485.58 L577.561 1485.58 L577.561 1481.64 Q580.223 1478.89 584.807 1474.26 Q589.413 1469.61 590.594 1468.27 Q592.839 1465.74 593.719 1464.01 Q594.621 1462.25 594.621 1460.56 Q594.621 1457.8 592.677 1456.07 Q590.756 1454.33 587.654 1454.33 Q585.455 1454.33 583.001 1455.09 Q580.571 1455.86 577.793 1457.41 L577.793 1452.69 Q580.617 1451.55 583.071 1450.97 Q585.524 1450.39 587.561 1450.39 Q592.932 1450.39 596.126 1453.08 Q599.32 1455.77 599.32 1460.26 Q599.32 1462.39 598.51 1464.31 Q597.723 1466.2 595.617 1468.8 Q595.038 1469.47 591.936 1472.69 Q588.834 1475.88 583.186 1481.64 Z" fill="#000000" fill-rule="nonzero" fill-opacity="1" /><path clip-path="url(#clip500)" d="M1032.6 1455.09 L1020.79 1473.54 L1032.6 1473.54 L1032.6 1455.09 M1031.37 1451.02 L1037.25 1451.02 L1037.25 1473.54 L1042.18 1473.54 L1042.18 1477.43 L1037.25 1477.43 L1037.25 1485.58 L1032.6 1485.58 L1032.6 1477.43 L1017 1477.43 L1017 1472.92 L1031.37 1451.02 Z" fill="#000000" fill-rule="nonzero" fill-opacity="1" /><path clip-path="url(#clip500)" d="M1471.05 1466.44 Q1467.9 1466.44 1466.05 1468.59 Q1464.22 1470.74 1464.22 1474.49 Q1464.22 1478.22 1466.05 1480.39 Q1467.9 1482.55 1471.05 1482.55 Q1474.2 1482.55 1476.03 1480.39 Q1477.88 1478.22 1477.88 1474.49 Q1477.88 1470.74 1476.03 1468.59 Q1474.2 1466.44 1471.05 1466.44 M1480.33 1451.78 L1480.33 1456.04 Q1478.57 1455.21 1476.77 1454.77 Q1474.98 1454.33 1473.23 1454.33 Q1468.6 1454.33 1466.14 1457.45 Q1463.71 1460.58 1463.36 1466.9 Q1464.73 1464.89 1466.79 1463.82 Q1468.85 1462.73 1471.33 1462.73 Q1476.54 1462.73 1479.55 1465.9 Q1482.58 1469.05 1482.58 1474.49 Q1482.58 1479.82 1479.43 1483.03 Q1476.28 1486.25 1471.05 1486.25 Q1465.05 1486.25 1461.88 1481.67 Q1458.71 1477.06 1458.71 1468.33 Q1458.71 1460.14 1462.6 1455.28 Q1466.49 1450.39 1473.04 1450.39 Q1474.8 1450.39 1476.58 1450.74 Q1478.39 1451.09 1480.33 1451.78 Z" fill="#000000" fill-rule="nonzero" fill-opacity="1" /><path clip-path="url(#clip500)" d="M1911.7 1469.17 Q1908.37 1469.17 1906.45 1470.95 Q1904.55 1472.73 1904.55 1475.86 Q1904.55 1478.98 1906.45 1480.77 Q1908.37 1482.55 1911.7 1482.55 Q1915.03 1482.55 1916.95 1480.77 Q1918.88 1478.96 1918.88 1475.86 Q1918.88 1472.73 1916.95 1470.95 Q1915.06 1469.17 1911.7 1469.17 M1907.02 1467.18 Q1904.02 1466.44 1902.33 1464.38 Q1900.66 1462.32 1900.66 1459.35 Q1900.66 1455.21 1903.6 1452.8 Q1906.56 1450.39 1911.7 1450.39 Q1916.86 1450.39 1919.8 1452.8 Q1922.74 1455.21 1922.74 1459.35 Q1922.74 1462.32 1921.05 1464.38 Q1919.39 1466.44 1916.4 1467.18 Q1919.78 1467.96 1921.65 1470.26 Q1923.55 1472.55 1923.55 1475.86 Q1923.55 1480.88 1920.47 1483.57 Q1917.42 1486.25 1911.7 1486.25 Q1905.98 1486.25 1902.9 1483.57 Q1899.85 1480.88 1899.85 1475.86 Q1899.85 1472.55 1901.75 1470.26 Q1903.64 1467.96 1907.02 1467.18 M1905.31 1459.79 Q1905.31 1462.48 1906.98 1463.98 Q1908.67 1465.49 1911.7 1465.49 Q1914.71 1465.49 1916.4 1463.98 Q1918.11 1462.48 1918.11 1459.79 Q1918.11 1457.11 1916.4 1455.6 Q1914.71 1454.1 1911.7 1454.1 Q1908.67 1454.1 1906.98 1455.6 Q1905.31 1457.11 1905.31 1459.79 Z" fill="#000000" fill-rule="nonzero" fill-opacity="1" /><path clip-path="url(#clip500)" d="M2327.44 1481.64 L2335.08 1481.64 L2335.08 1455.28 L2326.77 1456.95 L2326.77 1452.69 L2335.04 1451.02 L2339.71 1451.02 L2339.71 1481.64 L2347.35 1481.64 L2347.35 1485.58 L2327.44 1485.58 L2327.44 1481.64 Z" fill="#000000" fill-rule="nonzero" fill-opacity="1" /><path clip-path="url(#clip500)" d="M2366.8 1454.1 Q2363.18 1454.1 2361.36 1457.66 Q2359.55 1461.2 2359.55 1468.33 Q2359.55 1475.44 2361.36 1479.01 Q2363.18 1482.55 2366.8 1482.55 Q2370.43 1482.55 2372.23 1479.01 Q2374.06 1475.44 2374.06 1468.33 Q2374.06 1461.2 2372.23 1457.66 Q2370.43 1454.1 2366.8 1454.1 M2366.8 1450.39 Q2372.61 1450.39 2375.66 1455 Q2378.74 1459.58 2378.74 1468.33 Q2378.74 1477.06 2375.66 1481.67 Q2372.61 1486.25 2366.8 1486.25 Q2360.99 1486.25 2357.91 1481.67 Q2354.85 1477.06 2354.85 1468.33 Q2354.85 1459.58 2357.91 1455 Q2360.99 1450.39 2366.8 1450.39 Z" fill="#000000" fill-rule="nonzero" fill-opacity="1" /><path clip-path="url(#clip500)" d="M1249.18 1522.27 L1249.18 1532.4 L1261.24 1532.4 L1261.24 1536.95 L1249.18 1536.95 L1249.18 1556.3 Q1249.18 1560.66 1250.36 1561.9 Q1251.57 1563.14 1255.23 1563.14 L1261.24 1563.14 L1261.24 1568.04 L1255.23 1568.04 Q1248.45 1568.04 1245.87 1565.53 Q1243.29 1562.98 1243.29 1556.3 L1243.29 1536.95 L1238.99 1536.95 L1238.99 1532.4 L1243.29 1532.4 L1243.29 1522.27 L1249.18 1522.27 Z" fill="#000000" fill-rule="nonzero" fill-opacity="1" /><polyline clip-path="url(#clip500)" style="stroke:#000000; stroke-linecap:round; stroke-linejoin:round; stroke-width:4; stroke-opacity:1; fill:none" points="147.478,1423.18 147.478,47.2441 "/>
<polyline clip-path="url(#clip500)" style="stroke:#000000; stroke-linecap:round; stroke-linejoin:round; stroke-width:4; stroke-opacity:1; fill:none" points="147.478,1093.1 166.376,1093.1 "/>
<polyline clip-path="url(#clip500)" style="stroke:#000000; stroke-linecap:round; stroke-linejoin:round; stroke-width:4; stroke-opacity:1; fill:none" points="147.478,760.898 166.376,760.898 "/>
<polyline clip-path="url(#clip500)" style="stroke:#000000; stroke-linecap:round; stroke-linejoin:round; stroke-width:4; stroke-opacity:1; fill:none" points="147.478,428.696 166.376,428.696 "/>
<polyline clip-path="url(#clip500)" style="stroke:#000000; stroke-linecap:round; stroke-linejoin:round; stroke-width:4; stroke-opacity:1; fill:none" points="147.478,96.4946 166.376,96.4946 "/>
<path clip-path="url(#clip500)" d="M50.9921 1093.55 L80.6679 1093.55 L80.6679 1097.49 L50.9921 1097.49 L50.9921 1093.55 Z" fill="#000000" fill-rule="nonzero" fill-opacity="1" /><path clip-path="url(#clip500)" d="M91.5706 1106.44 L99.2095 1106.44 L99.2095 1080.08 L90.8993 1081.75 L90.8993 1077.49 L99.1632 1075.82 L103.839 1075.82 L103.839 1106.44 L111.478 1106.44 L111.478 1110.38 L91.5706 1110.38 L91.5706 1106.44 Z" fill="#000000" fill-rule="nonzero" fill-opacity="1" /><path clip-path="url(#clip500)" d="M99.5335 746.697 Q95.9224 746.697 94.0937 750.261 Q92.2882 753.803 92.2882 760.933 Q92.2882 768.039 94.0937 771.604 Q95.9224 775.145 99.5335 775.145 Q103.168 775.145 104.973 771.604 Q106.802 768.039 106.802 760.933 Q106.802 753.803 104.973 750.261 Q103.168 746.697 99.5335 746.697 M99.5335 742.993 Q105.344 742.993 108.399 747.599 Q111.478 752.183 111.478 760.933 Q111.478 769.659 108.399 774.266 Q105.344 778.849 99.5335 778.849 Q93.7234 778.849 90.6447 774.266 Q87.5892 769.659 87.5892 760.933 Q87.5892 752.183 90.6447 747.599 Q93.7234 742.993 99.5335 742.993 Z" fill="#000000" fill-rule="nonzero" fill-opacity="1" /><path clip-path="url(#clip500)" d="M91.5706 442.041 L99.2095 442.041 L99.2095 415.675 L90.8993 417.342 L90.8993 413.083 L99.1632 411.416 L103.839 411.416 L103.839 442.041 L111.478 442.041 L111.478 445.976 L91.5706 445.976 L91.5706 442.041 Z" fill="#000000" fill-rule="nonzero" fill-opacity="1" /><path clip-path="url(#clip500)" d="M95.1586 109.839 L111.478 109.839 L111.478 113.775 L89.5336 113.775 L89.5336 109.839 Q92.1956 107.085 96.7789 102.455 Q101.385 97.8024 102.566 96.4599 Q104.811 93.9367 105.691 92.2006 Q106.594 90.4414 106.594 88.7516 Q106.594 85.9969 104.649 84.2608 Q102.728 82.5247 99.6261 82.5247 Q97.4271 82.5247 94.9734 83.2886 Q92.5428 84.0525 89.7651 85.6034 L89.7651 80.8812 Q92.5891 79.747 95.0428 79.1683 Q97.4965 78.5896 99.5335 78.5896 Q104.904 78.5896 108.098 81.2747 Q111.293 83.9599 111.293 88.4506 Q111.293 90.5803 110.483 92.5015 Q109.696 94.3997 107.589 96.9923 Q107.01 97.6635 103.909 100.881 Q100.807 104.076 95.1586 109.839 Z" fill="#000000" fill-rule="nonzero" fill-opacity="1" /><polyline clip-path="url(#clip502)" style="stroke:#009af9; stroke-linecap:round; stroke-linejoin:round; stroke-width:4; stroke-opacity:1; fill:none" points="147.478,760.898 149.685,756.718 151.893,752.593 154.1,748.524 156.308,744.508 158.515,740.545 160.723,736.635 162.93,732.777 165.138,728.969 167.345,725.213 169.553,721.506 171.76,717.848 173.968,714.239 176.175,710.678 178.383,707.164 180.59,703.696 182.798,700.274 185.005,696.898 187.213,693.567 189.42,690.279 191.628,687.036 193.835,683.835 196.043,680.677 198.25,677.56 200.458,674.485 202.665,671.451 204.873,668.457 207.08,665.503 209.288,662.587 211.495,659.711 213.702,656.872 215.91,654.072 218.117,651.308 220.325,648.581 222.532,645.89 224.74,643.235 226.947,640.615 229.155,638.03 231.362,635.479 233.57,632.961 235.777,630.478 237.985,628.027 240.192,625.608 242.4,623.222 244.607,620.867 246.815,618.544 249.022,616.251 251.23,613.989 253.437,611.757 255.645,609.554 257.852,607.381 260.06,605.236 262.267,603.12 264.475,601.032 266.682,598.971 268.89,596.938 271.097,594.932 273.305,592.953 275.512,590.999 277.72,589.072 279.927,587.17 282.135,585.293 284.342,583.441 286.549,581.614 288.757,579.811 290.964,578.032 293.172,576.276 295.379,574.544 297.587,572.835 299.794,571.148 302.002,569.484 304.209,567.842 306.417,566.221 308.624,564.622 310.832,563.045 313.039,561.488 315.247,559.952 317.454,558.436 319.662,556.94 321.869,555.464 324.077,554.008 326.284,552.571 328.492,551.153 330.699,549.754 332.907,548.373 335.114,547.011 337.322,545.667 339.529,544.34 341.737,543.032 343.944,541.74 346.152,540.466 348.359,539.208 350.567,537.967 352.774,536.743 354.982,535.535 357.189,534.662 359.397,534.353 361.604,534.529 363.811,535.115 366.019,536.043 368.226,537.249 370.434,538.673 372.641,540.263 374.849,541.971 377.056,543.752 379.264,545.572 381.471,547.396 383.679,549.198 385.886,550.956 388.094,552.654 390.301,554.28 392.509,555.83 394.716,557.301 396.924,558.699 399.131,560.034 401.339,561.321 403.546,562.581 405.754,563.838 407.961,565.125 410.169,566.422 412.376,567.703 414.584,568.966 416.791,570.213 418.999,571.443 421.206,572.657 423.414,573.854 425.621,575.036 427.829,576.202 430.036,577.353 432.244,578.488 434.451,579.609 436.659,580.714 438.866,581.806 441.073,582.882 443.281,583.944 445.488,584.993 447.696,586.027 449.903,587.048 452.111,588.055 454.318,589.049 456.526,590.029 458.733,590.997 460.941,591.951 463.148,592.894 465.356,593.823 467.563,594.74 469.771,595.645 471.978,596.538 474.186,597.419 476.393,598.289 478.601,599.147 480.808,599.993 483.016,600.828 485.223,601.652 487.431,602.466 489.638,603.268 491.846,604.06 494.053,604.841 496.261,605.612 498.468,606.372 500.676,607.123 502.883,607.863 505.091,608.594 507.298,609.315 509.506,610.027 511.713,610.729 513.921,611.422 516.128,612.105 518.335,612.78 520.543,613.445 522.75,614.102 524.958,614.75 527.165,615.39 529.373,616.021 531.58,616.644 533.788,617.258 535.995,617.865 538.203,618.463 540.41,619.053 542.618,619.636 544.825,620.211 547.033,620.778 549.24,621.338 551.448,621.89 553.655,622.435 555.863,622.973 558.07,623.503 560.278,624.027 562.485,624.543 564.693,625.053 566.9,625.556 569.108,626.053 571.315,626.542 573.523,627.026 575.73,627.503 577.938,627.973 580.145,628.437 582.353,628.896 584.56,629.348 586.768,630.042 588.975,631.587 591.182,633.91 593.39,636.904 595.597,640.471 597.805,644.518 600.012,648.957 602.22,653.708 604.427,658.697 606.635,663.858 608.842,669.127 611.05,674.45 613.257,679.778 615.465,685.069 617.672,690.287 619.88,695.402 622.087,700.39 624.295,705.234 626.502,709.923 628.71,714.453 630.917,718.826 633.125,723.049 635.332,727.137 637.54,731.11 639.747,734.997 641.955,738.83 644.162,742.648 646.37,746.499 648.577,750.359 650.785,754.169 652.992,757.928 655.2,761.637 657.407,765.297 659.615,768.909 661.822,772.472 664.03,775.988 666.237,779.458 668.444,782.882 670.652,786.26 672.859,789.594 675.067,792.883 677.274,796.129 679.482,799.331 681.689,802.491 683.897,805.61 686.104,808.687 688.312,811.723 690.519,814.719 692.727,817.676 694.934,820.593 697.142,823.471 699.349,826.311 701.557,829.114 703.764,831.879 705.972,834.608 708.179,837.301 710.387,839.958 712.594,842.579 714.802,845.166 717.009,847.719 719.217,850.237 721.424,852.722 723.632,855.175 725.839,857.594 728.047,859.982 730.254,862.338 732.462,864.663 734.669,866.957 736.877,869.22 739.084,871.454 741.292,873.658 743.499,875.832 745.706,877.978 747.914,880.096 750.121,882.185 752.329,884.247 754.536,886.281 756.744,888.289 758.951,890.27 761.159,892.224 763.366,894.153 765.574,896.056 767.781,897.934 769.989,899.787 772.196,901.615 774.404,903.419 776.611,905.199 778.819,906.956 781.026,908.689 783.234,910.4 785.441,912.087 787.649,913.753 789.856,915.396 792.064,917.017 794.271,918.617 796.479,920.196 798.686,921.754 800.894,923.291 803.101,924.366 805.309,924.394 807.516,923.493 809.724,921.782 811.931,919.376 814.139,916.379 816.346,912.891 818.553,909.002 820.761,904.8 822.968,900.36 825.176,895.756 827.383,891.051 829.591,886.303 831.798,881.563 834.006,876.873 836.213,872.272 838.421,867.789 840.628,863.447 842.836,859.262 845.043,855.244 847.251,851.394 849.458,847.709 851.666,844.177 853.873,840.78 856.081,837.492 858.288,834.281 860.496,831.109 862.703,827.93 864.911,824.69 867.118,821.427 869.326,818.208 871.533,815.032 873.741,811.897 875.948,808.804 878.156,805.752 880.363,802.741 882.571,799.769 884.778,796.837 886.986,793.944 889.193,791.089 891.401,788.272 893.608,785.493 895.815,782.75 898.023,780.043 900.23,777.373 902.438,774.737 904.645,772.137 906.853,769.571 909.06,767.039 911.268,764.541 913.475,762.076 915.683,759.643 917.89,757.243 920.098,754.874 922.305,752.537 924.513,750.231 926.72,747.956 928.928,745.71 931.135,743.495 933.343,741.309 935.55,739.152 937.758,737.023 939.965,734.923 942.173,732.851 944.38,730.806 946.588,728.788 948.795,726.797 951.003,724.833 953.21,722.894 955.418,720.982 957.625,719.094 959.833,717.232 962.04,715.394 964.248,713.581 966.455,711.792 968.663,710.026 970.87,708.284 973.077,706.565 975.285,704.869 977.492,703.195 979.7,701.543 981.907,699.913 984.115,698.305 986.322,696.718 988.53,695.152 990.737,693.607 992.945,692.083 995.152,690.578 997.36,689.094 999.567,687.629 1001.77,686.184 1003.98,684.757 1006.19,683.35 1008.4,681.961 1010.6,680.591 1012.81,679.112 1015.02,677.53 1017.23,675.977 1019.43,674.559 1021.64,673.354 1023.85,672.416 1026.06,671.769 1028.26,671.412 1030.47,671.317 1032.68,671.429 1034.89,671.667 1037.09,671.921 1039.3,672.089 1041.51,672.239 1043.72,672.387 1045.92,672.533 1048.13,672.678 1050.34,672.82 1052.55,672.96 1054.75,673.099 1056.96,673.236 1059.17,673.371 1061.38,673.504 1063.58,673.635 1065.79,673.765 1068,673.893 1070.21,674.019 1072.41,674.143 1074.62,674.266 1076.83,674.387 1079.04,674.507 1081.24,674.625 1083.45,674.742 1085.66,674.856 1087.87,674.97 1090.07,675.082 1092.28,675.192 1094.49,675.301 1096.7,675.409 1098.9,675.515 1101.11,675.619 1103.32,675.723 1105.53,675.825 1107.73,675.925 1109.94,676.024 1112.15,676.122 1114.36,676.219 1116.56,676.314 1118.77,676.408 1120.98,676.501 1123.19,676.593 1125.39,676.683 1127.6,676.772 1129.81,676.86 1132.02,676.947 1134.22,677.033 1136.43,677.117 1138.64,677.201 1140.85,677.283 1143.05,677.364 1145.26,677.444 1147.47,677.523 1149.68,677.601 1151.88,677.678 1154.09,677.754 1156.3,677.829 1158.51,677.903 1160.71,677.976 1162.92,678.048 1165.13,678.119 1167.34,678.19 1169.54,678.259 1171.75,678.327 1173.96,678.394 1176.17,678.461 1178.37,678.527 1180.58,678.591 1182.79,678.655 1185,678.718 1187.2,678.78 1189.41,678.842 1191.62,678.902 1193.83,678.962 1196.03,679.021 1198.24,679.079 1200.45,679.137 1202.66,679.193 1204.86,679.249 1207.07,679.304 1209.28,679.359 1211.49,679.413 1213.69,679.466 1215.9,679.518 1218.11,679.569 1220.32,679.62 1222.52,679.671 1224.73,679.72 1226.94,679.769 1229.15,679.817 1231.35,679.865 1233.56,679.912 1235.77,679.958 1237.98,680.004 1240.18,680.049 1242.39,680.229 1244.6,681.669 1246.81,684.462 1249.01,688.421 1251.22,693.371 1253.43,699.149 1255.64,705.603 1257.84,712.592 1260.05,719.988 1262.26,727.673 1264.47,735.54 1266.67,743.496 1268.88,751.457 1271.09,759.351 1273.3,767.119 1275.5,774.712 1277.71,782.093 1279.92,789.236 1282.13,796.128 1284.33,802.764 1286.54,809.155 1288.75,815.321 1290.96,821.293 1293.16,827.115 1295.37,832.842 1297.58,838.539 1299.79,844.286 1301.99,850.074 1304.2,855.789 1306.41,861.427 1308.62,866.991 1310.82,872.481 1313.03,877.898 1315.24,883.243 1317.45,888.517 1319.65,893.722 1321.86,898.857 1324.07,903.925 1326.28,908.925 1328.48,913.859 1330.69,918.727 1332.9,923.531 1335.11,928.272 1337.31,932.949 1339.52,937.565 1341.73,942.119 1343.94,946.613 1346.14,951.048 1348.35,955.424 1350.56,959.742 1352.76,964.003 1354.97,968.207 1357.18,972.355 1359.39,976.448 1361.59,980.487 1363.8,984.473 1366.01,988.405 1368.22,992.286 1370.42,996.114 1372.63,999.892 1374.84,1003.62 1377.05,1007.3 1379.25,1010.93 1381.46,1014.51 1383.67,1018.04 1385.88,1021.53 1388.08,1024.97 1390.29,1028.37 1392.5,1031.72 1394.71,1035.02 1396.91,1038.28 1399.12,1041.5 1401.33,1044.68 1403.54,1047.81 1405.74,1050.9 1407.95,1053.96 1410.16,1056.97 1412.37,1059.94 1414.57,1062.87 1416.78,1065.76 1418.99,1068.62 1421.2,1071.43 1423.4,1074.16 1425.61,1076.77 1427.82,1079.29 1430.03,1081.73 1432.23,1084.12 1434.44,1086.47 1436.65,1088.8 1438.86,1091.13 1441.06,1093.47 1443.27,1095.84 1445.48,1098.25 1447.69,1100.69 1449.89,1103.2 1452.1,1105.76 1454.31,1108.39 1456.52,1111.09 1458.72,1113.86 1460.93,1116.7 1463.14,1119.62 1465.35,1122.6 1467.55,1125.65 1469.76,1128.75 1471.97,1131.91 1474.18,1135.12 1476.38,1138.35 1478.59,1141.61 1480.8,1144.88 1483.01,1148.15 1485.21,1151.39 1487.42,1154.6 1489.63,1157.74 1491.84,1160.81 1494.04,1163.79 1496.25,1166.71 1498.46,1169.59 1500.67,1172.44 1502.87,1175.25 1505.08,1178.02 1507.29,1180.75 1509.5,1183.45 1511.7,1186.11 1513.91,1188.74 1516.12,1191.33 1518.33,1193.89 1520.53,1196.41 1522.74,1198.9 1524.95,1201.36 1527.16,1203.78 1529.36,1206.18 1531.57,1208.54 1533.78,1210.87 1535.99,1213.16 1538.19,1215.43 1540.4,1217.67 1542.61,1219.88 1544.82,1222.06 1547.02,1224.21 1549.23,1226.33 1551.44,1228.42 1553.65,1230.49 1555.85,1232.53 1558.06,1234.54 1560.27,1236.53 1562.48,1238.49 1564.68,1240.42 1566.89,1242.33 1569.1,1244.21 1571.31,1246.07 1573.51,1247.9 1575.72,1249.71 1577.93,1251.49 1580.14,1253.25 1582.34,1254.99 1584.55,1256.71 1586.76,1258.4 1588.97,1260.07 1591.17,1261.71 1593.38,1263.34 1595.59,1264.94 1597.8,1266.52 1600,1268.08 1602.21,1269.62 1604.42,1271.14 1606.63,1272.64 1608.83,1274.12 1611.04,1275.58 1613.25,1277.02 1615.46,1278.44 1617.66,1279.85 1619.87,1281.23 1622.08,1282.59 1624.29,1283.94 1626.49,1285.27 1628.7,1286.58 1630.91,1287.88 1633.12,1289.15 1635.32,1290.41 1637.53,1291.65 1639.74,1292.88 1641.95,1294.09 1644.15,1295.29 1646.36,1296.46 1648.57,1297.63 1650.78,1298.77 1652.98,1299.91 1655.19,1301.02 1657.4,1302.13 1659.61,1303.22 1661.81,1304.29 1664.02,1305.35 1666.23,1306.39 1668.44,1307.43 1670.64,1308.39 1672.85,1309.21 1675.06,1309.91 1677.27,1310.49 1679.47,1310.97 1681.68,1311.35 1683.89,1311.64 1686.1,1311.85 1688.3,1311.99 1690.51,1312.06 1692.72,1312.07 1694.93,1312.03 1697.13,1311.95 1699.34,1311.83 1701.55,1311.68 1703.76,1311.51 1705.96,1311.31 1708.17,1311.09 1710.38,1310.86 1712.59,1310.63 1714.79,1310.39 1717,1310.15 1719.21,1309.92 1721.42,1309.68 1723.62,1309.46 1725.83,1309.25 1728.04,1309.05 1730.25,1308.86 1732.45,1308.68 1734.66,1308.52 1736.87,1308.38 1739.07,1308.25 1741.28,1308.14 1743.49,1308.04 1745.7,1307.95 1747.9,1307.88 1750.11,1307.81 1752.32,1307.76 1754.53,1307.71 1756.73,1307.66 1758.94,1307.61 1761.15,1307.56 1763.36,1307.5 1765.56,1307.43 1767.77,1307.35 1769.98,1307.26 1772.19,1307.17 1774.39,1307.08 1776.6,1306.99 1778.81,1306.91 1781.02,1306.82 1783.22,1306.74 1785.43,1306.66 1787.64,1306.58 1789.85,1306.5 1792.05,1306.42 1794.26,1306.34 1796.47,1306.27 1798.68,1306.19 1800.88,1306.12 1803.09,1306.04 1805.3,1305.97 1807.51,1305.9 1809.71,1305.83 1811.92,1305.76 1814.13,1305.69 1816.34,1305.62 1818.54,1305.55 1820.75,1305.49 1822.96,1305.42 1825.17,1305.36 1827.37,1305.29 1829.58,1305.23 1831.79,1305.17 1834,1305.11 1836.2,1305.05 1838.41,1304.99 1840.62,1304.93 1842.83,1304.87 1845.03,1304.82 1847.24,1304.76 1849.45,1304.7 1851.66,1304.65 1853.86,1304.59 1856.07,1304.54 1858.28,1304.49 1860.49,1304.44 1862.69,1304.39 1864.9,1304.33 1867.11,1304.28 1869.32,1304.24 1871.52,1304.19 1873.73,1304.14 1875.94,1304.09 1878.15,1304.04 1880.35,1304 1882.56,1303.97 1884.77,1304.3 1886.98,1304.97 1889.18,1305.81 1891.39,1306.66 1893.6,1307.39 1895.81,1307.88 1898.01,1308.02 1900.22,1307.75 1902.43,1306.99 1904.64,1305.7 1906.84,1303.86 1909.05,1301.47 1911.26,1298.52 1913.47,1295.06 1915.67,1291.13 1917.88,1286.79 1920.09,1282.15 1922.3,1277.29 1924.5,1272.34 1926.71,1267.45 1928.92,1262.77 1931.13,1258.37 1933.33,1254.05 1935.54,1249.78 1937.75,1245.57 1939.96,1241.42 1942.16,1237.32 1944.37,1233.28 1946.58,1229.29 1948.79,1225.35 1950.99,1221.47 1953.2,1217.64 1955.41,1213.85 1957.62,1210.12 1959.82,1206.44 1962.03,1202.8 1964.24,1199.22 1966.45,1195.68 1968.65,1192.19 1970.86,1188.74 1973.07,1185.34 1975.28,1181.99 1977.48,1178.68 1979.69,1175.41 1981.9,1172.19 1984.11,1169.01 1986.31,1165.87 1988.52,1162.77 1990.73,1159.72 1992.94,1156.7 1995.14,1153.73 1997.35,1150.79 1999.56,1147.9 2001.77,1145.04 2003.97,1142.22 2006.18,1139.44 2008.39,1136.69 2010.6,1133.98 2012.8,1131.31 2015.01,1128.67 2017.22,1126.07 2019.43,1123.5 2021.63,1120.97 2023.84,1118.47 2026.05,1116 2028.26,1113.57 2030.46,1111.16 2032.67,1108.79 2034.88,1106.45 2037.09,1104.15 2039.29,1101.87 2041.5,1099.62 2043.71,1097.4 2045.92,1095.21 2048.12,1093.05 2050.33,1090.92 2052.54,1088.82 2054.75,1086.75 2056.95,1084.7 2059.16,1082.68 2061.37,1080.69 2063.58,1078.72 2065.78,1076.78 2067.99,1074.86 2070.2,1072.97 2072.41,1071.11 2074.61,1069.27 2076.82,1067.45 2079.03,1065.66 2081.24,1063.9 2083.44,1062.15 2085.65,1060.43 2087.86,1058.73 2090.07,1057.06 2092.27,1055.4 2094.48,1053.77 2096.69,1052.16 2098.9,1050.57 2101.1,1049.01 2103.31,1047.46 2105.52,1045.93 2107.73,1044.43 2109.93,1042.94 2112.14,1041.47 2114.35,1040.03 2116.55,1038.6 2118.76,1037.19 2120.97,1035.8 2123.18,1034.43 2125.38,1033.08 2127.59,1031.72 2129.8,1028.07 2132.01,1021.12 2134.21,1011.7 2136.42,1000.56 2138.63,988.309 2140.84,975.488 2143.04,962.524 2145.25,949.745 2147.46,937.379 2149.67,925.554 2151.87,914.296 2154.08,903.531 2156.29,893.086 2158.5,882.684 2160.7,872.141 2162.91,861.721 2165.12,851.439 2167.33,841.293 2169.53,831.282 2171.74,821.404 2173.95,811.656 2176.16,802.038 2178.36,792.547 2180.57,783.182 2182.78,773.941 2184.99,764.823 2187.19,755.825 2189.4,746.947 2191.61,738.186 2193.82,729.542 2196.02,721.012 2198.23,712.596 2200.44,704.291 2202.65,696.096 2204.85,688.01 2207.06,680.031 2209.27,672.158 2211.48,664.389 2213.68,656.723 2215.89,649.159 2218.1,641.696 2220.31,634.331 2222.51,627.064 2224.72,619.893 2226.93,612.817 2229.14,605.835 2231.34,598.945 2233.55,592.147 2235.76,585.439 2237.97,578.82 2240.17,572.289 2242.38,565.844 2244.59,559.484 2246.8,553.209 2249,547.018 2251.21,540.908 2253.42,534.879 2255.63,528.93 2257.83,523.06 2260.04,517.268 2262.25,511.553 2264.46,505.914 2266.66,500.349 2268.87,494.858 2271.08,489.44 2273.29,484.093 2275.49,478.818 2277.7,473.612 2279.91,468.476 2282.12,463.408 2284.32,458.406 2286.53,453.471 2288.74,448.602 2290.95,443.796 2293.15,439.055 2295.36,434.376 2297.57,429.76 2299.78,425.205 2301.98,420.71 2304.19,416.275 2306.4,411.898 2308.61,407.58 2310.81,403.319 2313.02,399.114 2315.23,394.965 2317.44,390.872 2319.64,386.832 2321.85,382.846 2324.06,378.913 2326.27,375.033 2328.47,371.203 2330.68,367.425 2332.89,363.696 2335.1,360.017 2337.3,356.387 2339.51,352.804 2341.72,349.27 2343.93,345.782 2346.13,342.34 2348.34,338.944 2350.55,335.593 2352.76,332.286 "/>
<polyline clip-path="url(#clip502)" style="stroke:#e26f46; stroke-linecap:round; stroke-linejoin:round; stroke-width:4; stroke-opacity:1; fill:none" points="147.478,445.62 149.685,445.62 151.893,445.62 154.1,445.62 156.308,445.62 158.515,445.62 160.723,445.62 162.93,445.62 165.138,445.62 167.345,445.62 169.553,445.62 171.76,445.62 173.968,445.62 176.175,445.62 178.383,445.62 180.59,445.62 182.798,445.62 185.005,445.62 187.213,445.62 189.42,445.62 191.628,445.62 193.835,445.62 196.043,445.62 198.25,445.62 200.458,445.62 202.665,445.62 204.873,445.62 207.08,445.62 209.288,445.62 211.495,445.62 213.702,445.62 215.91,445.62 218.117,445.62 220.325,445.62 222.532,445.62 224.74,445.62 226.947,445.62 229.155,445.62 231.362,445.62 233.57,445.62 235.777,445.62 237.985,445.62 240.192,445.62 242.4,445.62 244.607,445.62 246.815,445.62 249.022,445.62 251.23,445.62 253.437,445.62 255.645,445.62 257.852,445.62 260.06,445.62 262.267,445.62 264.475,445.62 266.682,445.62 268.89,445.62 271.097,445.62 273.305,445.62 275.512,445.62 277.72,445.62 279.927,445.62 282.135,445.62 284.342,445.62 286.549,445.62 288.757,445.62 290.964,445.62 293.172,445.62 295.379,445.62 297.587,445.62 299.794,445.62 302.002,445.62 304.209,445.62 306.417,445.62 308.624,445.62 310.832,445.62 313.039,445.62 315.247,445.62 317.454,445.62 319.662,445.62 321.869,445.62 324.077,445.62 326.284,445.62 328.492,445.62 330.699,445.62 332.907,445.62 335.114,445.62 337.322,445.62 339.529,445.62 341.737,445.62 343.944,445.62 346.152,445.62 348.359,445.62 350.567,445.62 352.774,445.62 354.982,445.62 357.189,445.62 359.397,445.62 361.604,445.62 363.811,445.62 366.019,445.62 368.226,662.994 370.434,662.994 372.641,662.994 374.849,662.994 377.056,662.994 379.264,662.994 381.471,662.994 383.679,662.994 385.886,662.994 388.094,662.994 390.301,662.994 392.509,662.994 394.716,662.994 396.924,662.994 399.131,662.994 401.339,662.994 403.546,662.994 405.754,662.994 407.961,662.994 410.169,662.994 412.376,662.994 414.584,662.994 416.791,662.994 418.999,662.994 421.206,662.994 423.414,662.994 425.621,662.994 427.829,662.994 430.036,662.994 432.244,662.994 434.451,662.994 436.659,662.994 438.866,662.994 441.073,662.994 443.281,662.994 445.488,662.994 447.696,662.994 449.903,662.994 452.111,662.994 454.318,662.994 456.526,662.994 458.733,662.994 460.941,662.994 463.148,662.994 465.356,662.994 467.563,662.994 469.771,662.994 471.978,662.994 474.186,662.994 476.393,662.994 478.601,662.994 480.808,662.994 483.016,662.994 485.223,662.994 487.431,662.994 489.638,662.994 491.846,662.994 494.053,662.994 496.261,662.994 498.468,662.994 500.676,662.994 502.883,662.994 505.091,662.994 507.298,662.994 509.506,662.994 511.713,662.994 513.921,662.994 516.128,662.994 518.335,662.994 520.543,662.994 522.75,662.994 524.958,662.994 527.165,662.994 529.373,662.994 531.58,662.994 533.788,662.994 535.995,662.994 538.203,662.994 540.41,662.994 542.618,662.994 544.825,662.994 547.033,662.994 549.24,662.994 551.448,662.994 553.655,662.994 555.863,662.994 558.07,662.994 560.278,662.994 562.485,662.994 564.693,662.994 566.9,662.994 569.108,662.994 571.315,662.994 573.523,662.994 575.73,662.994 577.938,662.994 580.145,662.994 582.353,662.994 584.56,662.994 586.768,662.994 588.975,1037.69 591.182,1037.69 593.39,1037.69 595.597,1037.69 597.805,1037.69 600.012,1037.69 602.22,1037.69 604.427,1037.69 606.635,1037.69 608.842,1037.69 611.05,1037.69 613.257,1037.69 615.465,1037.69 617.672,1037.69 619.88,1037.69 622.087,1037.69 624.295,1037.69 626.502,1037.69 628.71,1037.69 630.917,1037.69 633.125,1037.69 635.332,1037.69 637.54,1037.69 639.747,1037.69 641.955,1037.69 644.162,1037.69 646.37,1037.69 648.577,1037.69 650.785,1037.69 652.992,1037.69 655.2,1037.69 657.407,1037.69 659.615,1037.69 661.822,1037.69 664.03,1037.69 666.237,1037.69 668.444,1037.69 670.652,1037.69 672.859,1037.69 675.067,1037.69 677.274,1037.69 679.482,1037.69 681.689,1037.69 683.897,1037.69 686.104,1037.69 688.312,1037.69 690.519,1037.69 692.727,1037.69 694.934,1037.69 697.142,1037.69 699.349,1037.69 701.557,1037.69 703.764,1037.69 705.972,1037.69 708.179,1037.69 710.387,1037.69 712.594,1037.69 714.802,1037.69 717.009,1037.69 719.217,1037.69 721.424,1037.69 723.632,1037.69 725.839,1037.69 728.047,1037.69 730.254,1037.69 732.462,1037.69 734.669,1037.69 736.877,1037.69 739.084,1037.69 741.292,1037.69 743.499,1037.69 745.706,1037.69 747.914,1037.69 750.121,1037.69 752.329,1037.69 754.536,1037.69 756.744,1037.69 758.951,1037.69 761.159,1037.69 763.366,1037.69 765.574,1037.69 767.781,1037.69 769.989,1037.69 772.196,1037.69 774.404,1037.69 776.611,1037.69 778.819,1037.69 781.026,1037.69 783.234,1037.69 785.441,1037.69 787.649,1037.69 789.856,1037.69 792.064,1037.69 794.271,1037.69 796.479,1037.69 798.686,1037.69 800.894,1037.69 803.101,1037.69 805.309,1037.69 807.516,1037.69 809.724,578.612 811.931,578.612 814.139,578.612 816.346,578.612 818.553,578.612 820.761,578.612 822.968,578.612 825.176,578.612 827.383,578.612 829.591,578.612 831.798,578.612 834.006,578.612 836.213,578.612 838.421,578.612 840.628,578.612 842.836,578.612 845.043,578.612 847.251,578.612 849.458,578.612 851.666,578.612 853.873,578.612 856.081,578.612 858.288,578.612 860.496,578.612 862.703,578.612 864.911,578.612 867.118,578.612 869.326,578.612 871.533,578.612 873.741,578.612 875.948,578.612 878.156,578.612 880.363,578.612 882.571,578.612 884.778,578.612 886.986,578.612 889.193,578.612 891.401,578.612 893.608,578.612 895.815,578.612 898.023,578.612 900.23,578.612 902.438,578.612 904.645,578.612 906.853,578.612 909.06,578.612 911.268,578.612 913.475,578.612 915.683,578.612 917.89,578.612 920.098,578.612 922.305,578.612 924.513,578.612 926.72,578.612 928.928,578.612 931.135,578.612 933.343,578.612 935.55,578.612 937.758,578.612 939.965,578.612 942.173,578.612 944.38,578.612 946.588,578.612 948.795,578.612 951.003,578.612 953.21,578.612 955.418,578.612 957.625,578.612 959.833,578.612 962.04,578.612 964.248,578.612 966.455,578.612 968.663,578.612 970.87,578.612 973.077,578.612 975.285,578.612 977.492,578.612 979.7,578.612 981.907,578.612 984.115,578.612 986.322,578.612 988.53,578.612 990.737,578.612 992.945,578.612 995.152,578.612 997.36,578.612 999.567,578.612 1001.77,578.612 1003.98,578.612 1006.19,578.612 1008.4,578.612 1010.6,578.612 1012.81,578.612 1015.02,578.612 1017.23,578.612 1019.43,578.612 1021.64,578.612 1023.85,578.612 1026.06,578.612 1028.26,578.612 1030.47,683.41 1032.68,683.41 1034.89,683.41 1037.09,683.41 1039.3,683.41 1041.51,683.41 1043.72,683.41 1045.92,683.41 1048.13,683.41 1050.34,683.41 1052.55,683.41 1054.75,683.41 1056.96,683.41 1059.17,683.41 1061.38,683.41 1063.58,683.41 1065.79,683.41 1068,683.41 1070.21,683.41 1072.41,683.41 1074.62,683.41 1076.83,683.41 1079.04,683.41 1081.24,683.41 1083.45,683.41 1085.66,683.41 1087.87,683.41 1090.07,683.41 1092.28,683.41 1094.49,683.41 1096.7,683.41 1098.9,683.41 1101.11,683.41 1103.32,683.41 1105.53,683.41 1107.73,683.41 1109.94,683.41 1112.15,683.41 1114.36,683.41 1116.56,683.41 1118.77,683.41 1120.98,683.41 1123.19,683.41 1125.39,683.41 1127.6,683.41 1129.81,683.41 1132.02,683.41 1134.22,683.41 1136.43,683.41 1138.64,683.41 1140.85,683.41 1143.05,683.41 1145.26,683.41 1147.47,683.41 1149.68,683.41 1151.88,683.41 1154.09,683.41 1156.3,683.41 1158.51,683.41 1160.71,683.41 1162.92,683.41 1165.13,683.41 1167.34,683.41 1169.54,683.41 1171.75,683.41 1173.96,683.41 1176.17,683.41 1178.37,683.41 1180.58,683.41 1182.79,683.41 1185,683.41 1187.2,683.41 1189.41,683.41 1191.62,683.41 1193.83,683.41 1196.03,683.41 1198.24,683.41 1200.45,683.41 1202.66,683.41 1204.86,683.41 1207.07,683.41 1209.28,683.41 1211.49,683.41 1213.69,683.41 1215.9,683.41 1218.11,683.41 1220.32,683.41 1222.52,683.41 1224.73,683.41 1226.94,683.41 1229.15,683.41 1231.35,683.41 1233.56,683.41 1235.77,683.41 1237.98,683.41 1240.18,683.41 1242.39,683.41 1244.6,683.41 1246.81,683.41 1249.01,683.41 1251.22,1281.07 1253.43,1281.07 1255.64,1281.07 1257.84,1281.07 1260.05,1281.07 1262.26,1281.07 1264.47,1281.07 1266.67,1281.07 1268.88,1281.07 1271.09,1281.07 1273.3,1281.07 1275.5,1281.07 1277.71,1281.07 1279.92,1281.07 1282.13,1281.07 1284.33,1281.07 1286.54,1281.07 1288.75,1281.07 1290.96,1281.07 1293.16,1281.07 1295.37,1281.07 1297.58,1281.07 1299.79,1281.07 1301.99,1281.07 1304.2,1281.07 1306.41,1281.07 1308.62,1281.07 1310.82,1281.07 1313.03,1281.07 1315.24,1281.07 1317.45,1281.07 1319.65,1281.07 1321.86,1281.07 1324.07,1281.07 1326.28,1281.07 1328.48,1281.07 1330.69,1281.07 1332.9,1281.07 1335.11,1281.07 1337.31,1281.07 1339.52,1281.07 1341.73,1281.07 1343.94,1281.07 1346.14,1281.07 1348.35,1281.07 1350.56,1281.07 1352.76,1281.07 1354.97,1281.07 1357.18,1281.07 1359.39,1281.07 1361.59,1281.07 1363.8,1281.07 1366.01,1281.07 1368.22,1281.07 1370.42,1281.07 1372.63,1281.07 1374.84,1281.07 1377.05,1281.07 1379.25,1281.07 1381.46,1281.07 1383.67,1281.07 1385.88,1281.07 1388.08,1281.07 1390.29,1281.07 1392.5,1281.07 1394.71,1281.07 1396.91,1281.07 1399.12,1281.07 1401.33,1281.07 1403.54,1281.07 1405.74,1281.07 1407.95,1281.07 1410.16,1281.07 1412.37,1281.07 1414.57,1281.07 1416.78,1281.07 1418.99,1281.07 1421.2,1281.07 1423.4,1281.07 1425.61,1281.07 1427.82,1281.07 1430.03,1281.07 1432.23,1281.07 1434.44,1281.07 1436.65,1281.07 1438.86,1281.07 1441.06,1281.07 1443.27,1281.07 1445.48,1281.07 1447.69,1281.07 1449.89,1281.07 1452.1,1281.07 1454.31,1281.07 1456.52,1281.07 1458.72,1281.07 1460.93,1281.07 1463.14,1281.07 1465.35,1281.07 1467.55,1281.07 1469.76,1281.07 1471.97,1384.24 1474.18,1384.24 1476.38,1384.24 1478.59,1384.24 1480.8,1384.24 1483.01,1384.24 1485.21,1384.24 1487.42,1384.24 1489.63,1384.24 1491.84,1384.24 1494.04,1384.24 1496.25,1384.24 1498.46,1384.24 1500.67,1384.24 1502.87,1384.24 1505.08,1384.24 1507.29,1384.24 1509.5,1384.24 1511.7,1384.24 1513.91,1384.24 1516.12,1384.24 1518.33,1384.24 1520.53,1384.24 1522.74,1384.24 1524.95,1384.24 1527.16,1384.24 1529.36,1384.24 1531.57,1384.24 1533.78,1384.24 1535.99,1384.24 1538.19,1384.24 1540.4,1384.24 1542.61,1384.24 1544.82,1384.24 1547.02,1384.24 1549.23,1384.24 1551.44,1384.24 1553.65,1384.24 1555.85,1384.24 1558.06,1384.24 1560.27,1384.24 1562.48,1384.24 1564.68,1384.24 1566.89,1384.24 1569.1,1384.24 1571.31,1384.24 1573.51,1384.24 1575.72,1384.24 1577.93,1384.24 1580.14,1384.24 1582.34,1384.24 1584.55,1384.24 1586.76,1384.24 1588.97,1384.24 1591.17,1384.24 1593.38,1384.24 1595.59,1384.24 1597.8,1384.24 1600,1384.24 1602.21,1384.24 1604.42,1384.24 1606.63,1384.24 1608.83,1384.24 1611.04,1384.24 1613.25,1384.24 1615.46,1384.24 1617.66,1384.24 1619.87,1384.24 1622.08,1384.24 1624.29,1384.24 1626.49,1384.24 1628.7,1384.24 1630.91,1384.24 1633.12,1384.24 1635.32,1384.24 1637.53,1384.24 1639.74,1384.24 1641.95,1384.24 1644.15,1384.24 1646.36,1384.24 1648.57,1384.24 1650.78,1384.24 1652.98,1384.24 1655.19,1384.24 1657.4,1384.24 1659.61,1384.24 1661.81,1384.24 1664.02,1384.24 1666.23,1384.24 1668.44,1384.24 1670.64,1384.24 1672.85,1384.24 1675.06,1384.24 1677.27,1384.24 1679.47,1384.24 1681.68,1384.24 1683.89,1384.24 1686.1,1384.24 1688.3,1384.24 1690.51,1384.24 1692.72,1300.57 1694.93,1300.57 1697.13,1300.57 1699.34,1300.57 1701.55,1300.57 1703.76,1300.57 1705.96,1300.57 1708.17,1300.57 1710.38,1300.57 1712.59,1300.57 1714.79,1300.57 1717,1300.57 1719.21,1300.57 1721.42,1300.57 1723.62,1300.57 1725.83,1300.57 1728.04,1300.57 1730.25,1300.57 1732.45,1300.57 1734.66,1300.57 1736.87,1300.57 1739.07,1300.57 1741.28,1300.57 1743.49,1300.57 1745.7,1300.57 1747.9,1300.57 1750.11,1300.57 1752.32,1300.57 1754.53,1300.57 1756.73,1300.57 1758.94,1300.57 1761.15,1300.57 1763.36,1300.57 1765.56,1300.57 1767.77,1300.57 1769.98,1300.57 1772.19,1300.57 1774.39,1300.57 1776.6,1300.57 1778.81,1300.57 1781.02,1300.57 1783.22,1300.57 1785.43,1300.57 1787.64,1300.57 1789.85,1300.57 1792.05,1300.57 1794.26,1300.57 1796.47,1300.57 1798.68,1300.57 1800.88,1300.57 1803.09,1300.57 1805.3,1300.57 1807.51,1300.57 1809.71,1300.57 1811.92,1300.57 1814.13,1300.57 1816.34,1300.57 1818.54,1300.57 1820.75,1300.57 1822.96,1300.57 1825.17,1300.57 1827.37,1300.57 1829.58,1300.57 1831.79,1300.57 1834,1300.57 1836.2,1300.57 1838.41,1300.57 1840.62,1300.57 1842.83,1300.57 1845.03,1300.57 1847.24,1300.57 1849.45,1300.57 1851.66,1300.57 1853.86,1300.57 1856.07,1300.57 1858.28,1300.57 1860.49,1300.57 1862.69,1300.57 1864.9,1300.57 1867.11,1300.57 1869.32,1300.57 1871.52,1300.57 1873.73,1300.57 1875.94,1300.57 1878.15,1300.57 1880.35,1300.57 1882.56,1300.57 1884.77,1300.57 1886.98,1300.57 1889.18,1300.57 1891.39,1300.57 1893.6,1300.57 1895.81,1300.57 1898.01,1300.57 1900.22,1300.57 1902.43,1300.57 1904.64,1300.57 1906.84,1300.57 1909.05,1300.57 1911.26,1300.57 1913.47,932.341 1915.67,932.341 1917.88,932.341 1920.09,932.341 1922.3,932.341 1924.5,932.341 1926.71,932.341 1928.92,932.341 1931.13,932.341 1933.33,932.341 1935.54,932.341 1937.75,932.341 1939.96,932.341 1942.16,932.341 1944.37,932.341 1946.58,932.341 1948.79,932.341 1950.99,932.341 1953.2,932.341 1955.41,932.341 1957.62,932.341 1959.82,932.341 1962.03,932.341 1964.24,932.341 1966.45,932.341 1968.65,932.341 1970.86,932.341 1973.07,932.341 1975.28,932.341 1977.48,932.341 1979.69,932.341 1981.9,932.341 1984.11,932.341 1986.31,932.341 1988.52,932.341 1990.73,932.341 1992.94,932.341 1995.14,932.341 1997.35,932.341 1999.56,932.341 2001.77,932.341 2003.97,932.341 2006.18,932.341 2008.39,932.341 2010.6,932.341 2012.8,932.341 2015.01,932.341 2017.22,932.341 2019.43,932.341 2021.63,932.341 2023.84,932.341 2026.05,932.341 2028.26,932.341 2030.46,932.341 2032.67,932.341 2034.88,932.341 2037.09,932.341 2039.29,932.341 2041.5,932.341 2043.71,932.341 2045.92,932.341 2048.12,932.341 2050.33,932.341 2052.54,932.341 2054.75,932.341 2056.95,932.341 2059.16,932.341 2061.37,932.341 2063.58,932.341 2065.78,932.341 2067.99,932.341 2070.2,932.341 2072.41,932.341 2074.61,932.341 2076.82,932.341 2079.03,932.341 2081.24,932.341 2083.44,932.341 2085.65,932.341 2087.86,932.341 2090.07,932.341 2092.27,932.341 2094.48,932.341 2096.69,932.341 2098.9,932.341 2101.1,932.341 2103.31,932.341 2105.52,932.341 2107.73,932.341 2109.93,932.341 2112.14,932.341 2114.35,932.341 2116.55,932.341 2118.76,932.341 2120.97,932.341 2123.18,932.341 2125.38,932.341 2127.59,932.341 2129.8,932.341 2132.01,932.341 2134.21,86.1857 2136.42,86.1857 2138.63,86.1857 2140.84,86.1857 2143.04,86.1857 2145.25,86.1857 2147.46,86.1857 2149.67,86.1857 2151.87,86.1857 2154.08,86.1857 2156.29,86.1857 2158.5,86.1857 2160.7,86.1857 2162.91,86.1857 2165.12,86.1857 2167.33,86.1857 2169.53,86.1857 2171.74,86.1857 2173.95,86.1857 2176.16,86.1857 2178.36,86.1857 2180.57,86.1857 2182.78,86.1857 2184.99,86.1857 2187.19,86.1857 2189.4,86.1857 2191.61,86.1857 2193.82,86.1857 2196.02,86.1857 2198.23,86.1857 2200.44,86.1857 2202.65,86.1857 2204.85,86.1857 2207.06,86.1857 2209.27,86.1857 2211.48,86.1857 2213.68,86.1857 2215.89,86.1857 2218.1,86.1857 2220.31,86.1857 2222.51,86.1857 2224.72,86.1857 2226.93,86.1857 2229.14,86.1857 2231.34,86.1857 2233.55,86.1857 2235.76,86.1857 2237.97,86.1857 2240.17,86.1857 2242.38,86.1857 2244.59,86.1857 2246.8,86.1857 2249,86.1857 2251.21,86.1857 2253.42,86.1857 2255.63,86.1857 2257.83,86.1857 2260.04,86.1857 2262.25,86.1857 2264.46,86.1857 2266.66,86.1857 2268.87,86.1857 2271.08,86.1857 2273.29,86.1857 2275.49,86.1857 2277.7,86.1857 2279.91,86.1857 2282.12,86.1857 2284.32,86.1857 2286.53,86.1857 2288.74,86.1857 2290.95,86.1857 2293.15,86.1857 2295.36,86.1857 2297.57,86.1857 2299.78,86.1857 2301.98,86.1857 2304.19,86.1857 2306.4,86.1857 2308.61,86.1857 2310.81,86.1857 2313.02,86.1857 2315.23,86.1857 2317.44,86.1857 2319.64,86.1857 2321.85,86.1857 2324.06,86.1857 2326.27,86.1857 2328.47,86.1857 2330.68,86.1857 2332.89,86.1857 2335.1,86.1857 2337.3,86.1857 2339.51,86.1857 2341.72,86.1857 2343.93,86.1857 2346.13,86.1857 2348.34,86.1857 2350.55,86.1857 2352.76,86.1857 "/>
<path clip-path="url(#clip500)" d="M220.987 248.629 L466.654 248.629 L466.654 93.1086 L220.987 93.1086  Z" fill="#ffffff" fill-rule="evenodd" fill-opacity="1"/>
<polyline clip-path="url(#clip500)" style="stroke:#000000; stroke-linecap:round; stroke-linejoin:round; stroke-width:4; stroke-opacity:1; fill:none" points="220.987,248.629 466.654,248.629 466.654,93.1086 220.987,93.1086 220.987,248.629 "/>
<polyline clip-path="url(#clip500)" style="stroke:#009af9; stroke-linecap:round; stroke-linejoin:round; stroke-width:4; stroke-opacity:1; fill:none" points="245.49,144.949 392.509,144.949 "/>
<path clip-path="url(#clip500)" d="M441.665 136.303 L432.29 148.919 L442.151 162.229 L437.128 162.229 L429.581 152.043 L422.035 162.229 L417.012 162.229 L427.081 148.664 L417.868 136.303 L422.891 136.303 L429.766 145.539 L436.641 136.303 L441.665 136.303 Z" fill="#000000" fill-rule="nonzero" fill-opacity="1" /><polyline clip-path="url(#clip500)" style="stroke:#e26f46; stroke-linecap:round; stroke-linejoin:round; stroke-width:4; stroke-opacity:1; fill:none" points="245.49,196.789 392.509,196.789 "/>
<path clip-path="url(#clip500)" d="M433.516 178.05 L433.516 181.592 L429.442 181.592 Q427.151 181.592 426.248 182.518 Q425.368 183.444 425.368 185.851 L425.368 188.143 L432.382 188.143 L432.382 191.453 L425.368 191.453 L425.368 214.069 L421.086 214.069 L421.086 191.453 L417.012 191.453 L417.012 188.143 L421.086 188.143 L421.086 186.337 Q421.086 182.009 423.1 180.041 Q425.114 178.05 429.489 178.05 L433.516 178.05 Z" fill="#000000" fill-rule="nonzero" fill-opacity="1" /></svg>
