<?xml version="1.0" encoding="utf-8"?>
<svg xmlns="http://www.w3.org/2000/svg" xmlns:xlink="http://www.w3.org/1999/xlink" width="600" height="400" viewBox="0 0 2400 1600">
<defs>
  <clipPath id="clip740">
    <rect x="0" y="0" width="2400" height="1600"/>
  </clipPath>
</defs>
<path clip-path="url(#clip740)" d="M0 1600 L2400 1600 L2400 0 L0 0  Z" fill="#ffffff" fill-rule="evenodd" fill-opacity="1"/>
<defs>
  <clipPath id="clip741">
    <rect x="480" y="0" width="1681" height="1600"/>
  </clipPath>
</defs>
<path clip-path="url(#clip740)" d="M193.936 1423.18 L2352.76 1423.18 L2352.76 47.2441 L193.936 47.2441  Z" fill="#ffffff" fill-rule="evenodd" fill-opacity="1"/>
<defs>
  <clipPath id="clip742">
    <rect x="193" y="47" width="2160" height="1377"/>
  </clipPath>
</defs>
<polyline clip-path="url(#clip742)" style="stroke:#000000; stroke-linecap:round; stroke-linejoin:round; stroke-width:2; stroke-opacity:0.1; fill:none" points="193.936,1423.18 193.936,47.2441 "/>
<polyline clip-path="url(#clip742)" style="stroke:#000000; stroke-linecap:round; stroke-linejoin:round; stroke-width:2; stroke-opacity:0.1; fill:none" points="625.7,1423.18 625.7,47.2441 "/>
<polyline clip-path="url(#clip742)" style="stroke:#000000; stroke-linecap:round; stroke-linejoin:round; stroke-width:2; stroke-opacity:0.1; fill:none" points="1057.46,1423.18 1057.46,47.2441 "/>
<polyline clip-path="url(#clip742)" style="stroke:#000000; stroke-linecap:round; stroke-linejoin:round; stroke-width:2; stroke-opacity:0.1; fill:none" points="1489.23,1423.18 1489.23,47.2441 "/>
<polyline clip-path="url(#clip742)" style="stroke:#000000; stroke-linecap:round; stroke-linejoin:round; stroke-width:2; stroke-opacity:0.1; fill:none" points="1920.99,1423.18 1920.99,47.2441 "/>
<polyline clip-path="url(#clip742)" style="stroke:#000000; stroke-linecap:round; stroke-linejoin:round; stroke-width:2; stroke-opacity:0.1; fill:none" points="2352.76,1423.18 2352.76,47.2441 "/>
<polyline clip-path="url(#clip742)" style="stroke:#000000; stroke-linecap:round; stroke-linejoin:round; stroke-width:2; stroke-opacity:0.1; fill:none" points="193.936,1392.46 2352.76,1392.46 "/>
<polyline clip-path="url(#clip742)" style="stroke:#000000; stroke-linecap:round; stroke-linejoin:round; stroke-width:2; stroke-opacity:0.1; fill:none" points="193.936,1167.72 2352.76,1167.72 "/>
<polyline clip-path="url(#clip742)" style="stroke:#000000; stroke-linecap:round; stroke-linejoin:round; stroke-width:2; stroke-opacity:0.1; fill:none" points="193.936,942.984 2352.76,942.984 "/>
<polyline clip-path="url(#clip742)" style="stroke:#000000; stroke-linecap:round; stroke-linejoin:round; stroke-width:2; stroke-opacity:0.1; fill:none" points="193.936,718.248 2352.76,718.248 "/>
<polyline clip-path="url(#clip742)" style="stroke:#000000; stroke-linecap:round; stroke-linejoin:round; stroke-width:2; stroke-opacity:0.1; fill:none" points="193.936,493.511 2352.76,493.511 "/>
<polyline clip-path="url(#clip742)" style="stroke:#000000; stroke-linecap:round; stroke-linejoin:round; stroke-width:2; stroke-opacity:0.1; fill:none" points="193.936,268.775 2352.76,268.775 "/>
<polyline clip-path="url(#clip740)" style="stroke:#000000; stroke-linecap:round; stroke-linejoin:round; stroke-width:4; stroke-opacity:1; fill:none" points="193.936,1423.18 2352.76,1423.18 "/>
<polyline clip-path="url(#clip740)" style="stroke:#000000; stroke-linecap:round; stroke-linejoin:round; stroke-width:4; stroke-opacity:1; fill:none" points="193.936,1423.18 193.936,1404.28 "/>
<polyline clip-path="url(#clip740)" style="stroke:#000000; stroke-linecap:round; stroke-linejoin:round; stroke-width:4; stroke-opacity:1; fill:none" points="625.7,1423.18 625.7,1404.28 "/>
<polyline clip-path="url(#clip740)" style="stroke:#000000; stroke-linecap:round; stroke-linejoin:round; stroke-width:4; stroke-opacity:1; fill:none" points="1057.46,1423.18 1057.46,1404.28 "/>
<polyline clip-path="url(#clip740)" style="stroke:#000000; stroke-linecap:round; stroke-linejoin:round; stroke-width:4; stroke-opacity:1; fill:none" points="1489.23,1423.18 1489.23,1404.28 "/>
<polyline clip-path="url(#clip740)" style="stroke:#000000; stroke-linecap:round; stroke-linejoin:round; stroke-width:4; stroke-opacity:1; fill:none" points="1920.99,1423.18 1920.99,1404.28 "/>
<polyline clip-path="url(#clip740)" style="stroke:#000000; stroke-linecap:round; stroke-linejoin:round; stroke-width:4; stroke-opacity:1; fill:none" points="2352.76,1423.18 2352.76,1404.28 "/>
<path clip-path="url(#clip740)" d="M193.936 1454.1 Q190.325 1454.1 188.496 1457.66 Q186.691 1461.2 186.691 1468.33 Q186.691 1475.44 188.496 1479.01 Q190.325 1482.55 193.936 1482.55 Q197.57 1482.55 199.376 1479.01 Q201.204 1475.44 201.204 1468.33 Q201.204 1461.2 199.376 1457.66 Q197.57 1454.1 193.936 1454.1 M193.936 1450.39 Q199.746 1450.39 202.802 1455 Q205.88 1459.58 205.88 1468.33 Q205.88 1477.06 202.802 1481.67 Q199.746 1486.25 193.936 1486.25 Q188.126 1486.25 185.047 1481.67 Q181.992 1477.06 181.992 1468.33 Q181.992 1459.58 185.047 1455 Q188.126 1450.39 193.936 1450.39 Z" fill="#000000" fill-rule="nonzero" fill-opacity="1" /><path clip-path="url(#clip740)" d="M620.353 1481.64 L636.672 1481.64 L636.672 1485.58 L614.728 1485.58 L614.728 1481.64 Q617.39 1478.89 621.973 1474.26 Q626.58 1469.61 627.76 1468.27 Q630.006 1465.74 630.885 1464.01 Q631.788 1462.25 631.788 1460.56 Q631.788 1457.8 629.843 1456.07 Q627.922 1454.33 624.82 1454.33 Q622.621 1454.33 620.168 1455.09 Q617.737 1455.86 614.959 1457.41 L614.959 1452.69 Q617.783 1451.55 620.237 1450.97 Q622.691 1450.39 624.728 1450.39 Q630.098 1450.39 633.293 1453.08 Q636.487 1455.77 636.487 1460.26 Q636.487 1462.39 635.677 1464.31 Q634.89 1466.2 632.783 1468.8 Q632.205 1469.47 629.103 1472.69 Q626.001 1475.88 620.353 1481.64 Z" fill="#000000" fill-rule="nonzero" fill-opacity="1" /><path clip-path="url(#clip740)" d="M1060.47 1455.09 L1048.67 1473.54 L1060.47 1473.54 L1060.47 1455.09 M1059.25 1451.02 L1065.13 1451.02 L1065.13 1473.54 L1070.06 1473.54 L1070.06 1477.43 L1065.13 1477.43 L1065.13 1485.58 L1060.47 1485.58 L1060.47 1477.43 L1044.87 1477.43 L1044.87 1472.92 L1059.25 1451.02 Z" fill="#000000" fill-rule="nonzero" fill-opacity="1" /><path clip-path="url(#clip740)" d="M1489.63 1466.44 Q1486.48 1466.44 1484.63 1468.59 Q1482.8 1470.74 1482.8 1474.49 Q1482.8 1478.22 1484.63 1480.39 Q1486.48 1482.55 1489.63 1482.55 Q1492.78 1482.55 1494.61 1480.39 Q1496.46 1478.22 1496.46 1474.49 Q1496.46 1470.74 1494.61 1468.59 Q1492.78 1466.44 1489.63 1466.44 M1498.92 1451.78 L1498.92 1456.04 Q1497.16 1455.21 1495.35 1454.77 Q1493.57 1454.33 1491.81 1454.33 Q1487.18 1454.33 1484.73 1457.45 Q1482.3 1460.58 1481.95 1466.9 Q1483.31 1464.89 1485.37 1463.82 Q1487.43 1462.73 1489.91 1462.73 Q1495.12 1462.73 1498.13 1465.9 Q1501.16 1469.05 1501.16 1474.49 Q1501.16 1479.82 1498.01 1483.03 Q1494.86 1486.25 1489.63 1486.25 Q1483.64 1486.25 1480.47 1481.67 Q1477.3 1477.06 1477.3 1468.33 Q1477.3 1460.14 1481.18 1455.28 Q1485.07 1450.39 1491.62 1450.39 Q1493.38 1450.39 1495.17 1450.74 Q1496.97 1451.09 1498.92 1451.78 Z" fill="#000000" fill-rule="nonzero" fill-opacity="1" /><path clip-path="url(#clip740)" d="M1920.99 1469.17 Q1917.66 1469.17 1915.74 1470.95 Q1913.84 1472.73 1913.84 1475.86 Q1913.84 1478.98 1915.74 1480.77 Q1917.66 1482.55 1920.99 1482.55 Q1924.33 1482.55 1926.25 1480.77 Q1928.17 1478.96 1928.17 1475.86 Q1928.17 1472.73 1926.25 1470.95 Q1924.35 1469.17 1920.99 1469.17 M1916.32 1467.18 Q1913.31 1466.44 1911.62 1464.38 Q1909.95 1462.32 1909.95 1459.35 Q1909.95 1455.21 1912.89 1452.8 Q1915.85 1450.39 1920.99 1450.39 Q1926.15 1450.39 1929.09 1452.8 Q1932.03 1455.21 1932.03 1459.35 Q1932.03 1462.32 1930.34 1464.38 Q1928.68 1466.44 1925.69 1467.18 Q1929.07 1467.96 1930.95 1470.26 Q1932.84 1472.55 1932.84 1475.86 Q1932.84 1480.88 1929.77 1483.57 Q1926.71 1486.25 1920.99 1486.25 Q1915.27 1486.25 1912.2 1483.57 Q1909.14 1480.88 1909.14 1475.86 Q1909.14 1472.55 1911.04 1470.26 Q1912.94 1467.96 1916.32 1467.18 M1914.6 1459.79 Q1914.6 1462.48 1916.27 1463.98 Q1917.96 1465.49 1920.99 1465.49 Q1924 1465.49 1925.69 1463.98 Q1927.4 1462.48 1927.4 1459.79 Q1927.4 1457.11 1925.69 1455.6 Q1924 1454.1 1920.99 1454.1 Q1917.96 1454.1 1916.27 1455.6 Q1914.6 1457.11 1914.6 1459.79 Z" fill="#000000" fill-rule="nonzero" fill-opacity="1" /><path clip-path="url(#clip740)" d="M2327.44 1481.64 L2335.08 1481.64 L2335.08 1455.28 L2326.77 1456.95 L2326.77 1452.69 L2335.04 1451.02 L2339.71 1451.02 L2339.71 1481.64 L2347.35 1481.64 L2347.35 1485.58 L2327.44 1485.58 L2327.44 1481.64 Z" fill="#000000" fill-rule="nonzero" fill-opacity="1" /><path clip-path="url(#clip740)" d="M2366.8 1454.1 Q2363.18 1454.1 2361.36 1457.66 Q2359.55 1461.2 2359.55 1468.33 Q2359.55 1475.44 2361.36 1479.01 Q2363.18 1482.55 2366.8 1482.55 Q2370.43 1482.55 2372.23 1479.01 Q2374.06 1475.44 2374.06 1468.33 Q2374.06 1461.2 2372.23 1457.66 Q2370.43 1454.1 2366.8 1454.1 M2366.8 1450.39 Q2372.61 1450.39 2375.66 1455 Q2378.74 1459.58 2378.74 1468.33 Q2378.74 1477.06 2375.66 1481.67 Q2372.61 1486.25 2366.8 1486.25 Q2360.99 1486.25 2357.91 1481.67 Q2354.85 1477.06 2354.85 1468.33 Q2354.85 1459.58 2357.91 1455 Q2360.99 1450.39 2366.8 1450.39 Z" fill="#000000" fill-rule="nonzero" fill-opacity="1" /><path clip-path="url(#clip740)" d="M1272.41 1522.27 L1272.41 1532.4 L1284.47 1532.4 L1284.47 1536.95 L1272.41 1536.95 L1272.41 1556.3 Q1272.41 1560.66 1273.58 1561.9 Q1274.79 1563.14 1278.45 1563.14 L1284.47 1563.14 L1284.47 1568.04 L1278.45 1568.04 Q1271.67 1568.04 1269.1 1565.53 Q1266.52 1562.98 1266.52 1556.3 L1266.52 1536.95 L1262.22 1536.95 L1262.22 1532.4 L1266.52 1532.4 L1266.52 1522.27 L1272.41 1522.27 Z" fill="#000000" fill-rule="nonzero" fill-opacity="1" /><polyline clip-path="url(#clip740)" style="stroke:#000000; stroke-linecap:round; stroke-linejoin:round; stroke-width:4; stroke-opacity:1; fill:none" points="193.936,1423.18 193.936,47.2441 "/>
<polyline clip-path="url(#clip740)" style="stroke:#000000; stroke-linecap:round; stroke-linejoin:round; stroke-width:4; stroke-opacity:1; fill:none" points="193.936,1392.46 212.834,1392.46 "/>
<polyline clip-path="url(#clip740)" style="stroke:#000000; stroke-linecap:round; stroke-linejoin:round; stroke-width:4; stroke-opacity:1; fill:none" points="193.936,1167.72 212.834,1167.72 "/>
<polyline clip-path="url(#clip740)" style="stroke:#000000; stroke-linecap:round; stroke-linejoin:round; stroke-width:4; stroke-opacity:1; fill:none" points="193.936,942.984 212.834,942.984 "/>
<polyline clip-path="url(#clip740)" style="stroke:#000000; stroke-linecap:round; stroke-linejoin:round; stroke-width:4; stroke-opacity:1; fill:none" points="193.936,718.248 212.834,718.248 "/>
<polyline clip-path="url(#clip740)" style="stroke:#000000; stroke-linecap:round; stroke-linejoin:round; stroke-width:4; stroke-opacity:1; fill:none" points="193.936,493.511 212.834,493.511 "/>
<polyline clip-path="url(#clip740)" style="stroke:#000000; stroke-linecap:round; stroke-linejoin:round; stroke-width:4; stroke-opacity:1; fill:none" points="193.936,268.775 212.834,268.775 "/>
<path clip-path="url(#clip740)" d="M51.9875 1392.91 L81.6633 1392.91 L81.6633 1396.84 L51.9875 1396.84 L51.9875 1392.91 Z" fill="#000000" fill-rule="nonzero" fill-opacity="1" /><path clip-path="url(#clip740)" d="M92.566 1405.8 L100.205 1405.8 L100.205 1379.44 L91.8947 1381.1 L91.8947 1376.84 L100.159 1375.18 L104.834 1375.18 L104.834 1405.8 L112.473 1405.8 L112.473 1409.74 L92.566 1409.74 L92.566 1405.8 Z" fill="#000000" fill-rule="nonzero" fill-opacity="1" /><path clip-path="url(#clip740)" d="M121.918 1403.86 L126.802 1403.86 L126.802 1409.74 L121.918 1409.74 L121.918 1403.86 Z" fill="#000000" fill-rule="nonzero" fill-opacity="1" /><path clip-path="url(#clip740)" d="M137.033 1375.18 L155.39 1375.18 L155.39 1379.11 L141.316 1379.11 L141.316 1387.58 Q142.334 1387.24 143.353 1387.08 Q144.371 1386.89 145.39 1386.89 Q151.177 1386.89 154.556 1390.06 Q157.936 1393.23 157.936 1398.65 Q157.936 1404.23 154.464 1407.33 Q150.992 1410.41 144.672 1410.41 Q142.496 1410.41 140.228 1410.04 Q137.982 1409.67 135.575 1408.93 L135.575 1404.23 Q137.658 1405.36 139.881 1405.92 Q142.103 1406.47 144.58 1406.47 Q148.584 1406.47 150.922 1404.37 Q153.26 1402.26 153.26 1398.65 Q153.26 1395.04 150.922 1392.93 Q148.584 1390.83 144.58 1390.83 Q142.705 1390.83 140.83 1391.24 Q138.978 1391.66 137.033 1392.54 L137.033 1375.18 Z" fill="#000000" fill-rule="nonzero" fill-opacity="1" /><path clip-path="url(#clip740)" d="M50.9921 1168.17 L80.6679 1168.17 L80.6679 1172.11 L50.9921 1172.11 L50.9921 1168.17 Z" fill="#000000" fill-rule="nonzero" fill-opacity="1" /><path clip-path="url(#clip740)" d="M91.5706 1181.07 L99.2095 1181.07 L99.2095 1154.7 L90.8993 1156.37 L90.8993 1152.11 L99.1632 1150.44 L103.839 1150.44 L103.839 1181.07 L111.478 1181.07 L111.478 1185 L91.5706 1185 L91.5706 1181.07 Z" fill="#000000" fill-rule="nonzero" fill-opacity="1" /><path clip-path="url(#clip740)" d="M120.922 1179.12 L125.807 1179.12 L125.807 1185 L120.922 1185 L120.922 1179.12 Z" fill="#000000" fill-rule="nonzero" fill-opacity="1" /><path clip-path="url(#clip740)" d="M145.992 1153.52 Q142.381 1153.52 140.552 1157.08 Q138.746 1160.63 138.746 1167.76 Q138.746 1174.86 140.552 1178.43 Q142.381 1181.97 145.992 1181.97 Q149.626 1181.97 151.431 1178.43 Q153.26 1174.86 153.26 1167.76 Q153.26 1160.63 151.431 1157.08 Q149.626 1153.52 145.992 1153.52 M145.992 1149.82 Q151.802 1149.82 154.857 1154.42 Q157.936 1159.01 157.936 1167.76 Q157.936 1176.48 154.857 1181.09 Q151.802 1185.67 145.992 1185.67 Q140.181 1185.67 137.103 1181.09 Q134.047 1176.48 134.047 1167.76 Q134.047 1159.01 137.103 1154.42 Q140.181 1149.82 145.992 1149.82 Z" fill="#000000" fill-rule="nonzero" fill-opacity="1" /><path clip-path="url(#clip740)" d="M51.9875 943.436 L81.6633 943.436 L81.6633 947.371 L51.9875 947.371 L51.9875 943.436 Z" fill="#000000" fill-rule="nonzero" fill-opacity="1" /><path clip-path="url(#clip740)" d="M101.756 928.783 Q98.1447 928.783 96.316 932.348 Q94.5104 935.89 94.5104 943.019 Q94.5104 950.126 96.316 953.69 Q98.1447 957.232 101.756 957.232 Q105.39 957.232 107.196 953.69 Q109.024 950.126 109.024 943.019 Q109.024 935.89 107.196 932.348 Q105.39 928.783 101.756 928.783 M101.756 925.079 Q107.566 925.079 110.621 929.686 Q113.7 934.269 113.7 943.019 Q113.7 951.746 110.621 956.352 Q107.566 960.936 101.756 960.936 Q95.9456 960.936 92.8669 956.352 Q89.8114 951.746 89.8114 943.019 Q89.8114 934.269 92.8669 929.686 Q95.9456 925.079 101.756 925.079 Z" fill="#000000" fill-rule="nonzero" fill-opacity="1" /><path clip-path="url(#clip740)" d="M121.918 954.385 L126.802 954.385 L126.802 960.264 L121.918 960.264 L121.918 954.385 Z" fill="#000000" fill-rule="nonzero" fill-opacity="1" /><path clip-path="url(#clip740)" d="M137.033 925.704 L155.39 925.704 L155.39 929.64 L141.316 929.64 L141.316 938.112 Q142.334 937.764 143.353 937.602 Q144.371 937.417 145.39 937.417 Q151.177 937.417 154.556 940.589 Q157.936 943.76 157.936 949.176 Q157.936 954.755 154.464 957.857 Q150.992 960.936 144.672 960.936 Q142.496 960.936 140.228 960.565 Q137.982 960.195 135.575 959.454 L135.575 954.755 Q137.658 955.889 139.881 956.445 Q142.103 957.001 144.58 957.001 Q148.584 957.001 150.922 954.894 Q153.26 952.788 153.26 949.176 Q153.26 945.565 150.922 943.459 Q148.584 941.352 144.58 941.352 Q142.705 941.352 140.83 941.769 Q138.978 942.186 137.033 943.065 L137.033 925.704 Z" fill="#000000" fill-rule="nonzero" fill-opacity="1" /><path clip-path="url(#clip740)" d="M100.76 704.046 Q97.1493 704.046 95.3206 707.611 Q93.515 711.153 93.515 718.283 Q93.515 725.389 95.3206 728.954 Q97.1493 732.495 100.76 732.495 Q104.395 732.495 106.2 728.954 Q108.029 725.389 108.029 718.283 Q108.029 711.153 106.2 707.611 Q104.395 704.046 100.76 704.046 M100.76 700.343 Q106.571 700.343 109.626 704.949 Q112.705 709.533 112.705 718.283 Q112.705 727.009 109.626 731.616 Q106.571 736.199 100.76 736.199 Q94.9502 736.199 91.8715 731.616 Q88.816 727.009 88.816 718.283 Q88.816 709.533 91.8715 704.949 Q94.9502 700.343 100.76 700.343 Z" fill="#000000" fill-rule="nonzero" fill-opacity="1" /><path clip-path="url(#clip740)" d="M120.922 729.648 L125.807 729.648 L125.807 735.528 L120.922 735.528 L120.922 729.648 Z" fill="#000000" fill-rule="nonzero" fill-opacity="1" /><path clip-path="url(#clip740)" d="M145.992 704.046 Q142.381 704.046 140.552 707.611 Q138.746 711.153 138.746 718.283 Q138.746 725.389 140.552 728.954 Q142.381 732.495 145.992 732.495 Q149.626 732.495 151.431 728.954 Q153.26 725.389 153.26 718.283 Q153.26 711.153 151.431 707.611 Q149.626 704.046 145.992 704.046 M145.992 700.343 Q151.802 700.343 154.857 704.949 Q157.936 709.533 157.936 718.283 Q157.936 727.009 154.857 731.616 Q151.802 736.199 145.992 736.199 Q140.181 736.199 137.103 731.616 Q134.047 727.009 134.047 718.283 Q134.047 709.533 137.103 704.949 Q140.181 700.343 145.992 700.343 Z" fill="#000000" fill-rule="nonzero" fill-opacity="1" /><path clip-path="url(#clip740)" d="M101.756 479.31 Q98.1447 479.31 96.316 482.875 Q94.5104 486.416 94.5104 493.546 Q94.5104 500.652 96.316 504.217 Q98.1447 507.759 101.756 507.759 Q105.39 507.759 107.196 504.217 Q109.024 500.652 109.024 493.546 Q109.024 486.416 107.196 482.875 Q105.39 479.31 101.756 479.31 M101.756 475.606 Q107.566 475.606 110.621 480.213 Q113.7 484.796 113.7 493.546 Q113.7 502.273 110.621 506.879 Q107.566 511.462 101.756 511.462 Q95.9456 511.462 92.8669 506.879 Q89.8114 502.273 89.8114 493.546 Q89.8114 484.796 92.8669 480.213 Q95.9456 475.606 101.756 475.606 Z" fill="#000000" fill-rule="nonzero" fill-opacity="1" /><path clip-path="url(#clip740)" d="M121.918 504.912 L126.802 504.912 L126.802 510.791 L121.918 510.791 L121.918 504.912 Z" fill="#000000" fill-rule="nonzero" fill-opacity="1" /><path clip-path="url(#clip740)" d="M137.033 476.231 L155.39 476.231 L155.39 480.166 L141.316 480.166 L141.316 488.639 Q142.334 488.291 143.353 488.129 Q144.371 487.944 145.39 487.944 Q151.177 487.944 154.556 491.115 Q157.936 494.287 157.936 499.703 Q157.936 505.282 154.464 508.384 Q150.992 511.462 144.672 511.462 Q142.496 511.462 140.228 511.092 Q137.982 510.722 135.575 509.981 L135.575 505.282 Q137.658 506.416 139.881 506.972 Q142.103 507.527 144.58 507.527 Q148.584 507.527 150.922 505.421 Q153.26 503.314 153.26 499.703 Q153.26 496.092 150.922 493.986 Q148.584 491.879 144.58 491.879 Q142.705 491.879 140.83 492.296 Q138.978 492.713 137.033 493.592 L137.033 476.231 Z" fill="#000000" fill-rule="nonzero" fill-opacity="1" /><path clip-path="url(#clip740)" d="M91.5706 282.119 L99.2095 282.119 L99.2095 255.754 L90.8993 257.42 L90.8993 253.161 L99.1632 251.495 L103.839 251.495 L103.839 282.119 L111.478 282.119 L111.478 286.055 L91.5706 286.055 L91.5706 282.119 Z" fill="#000000" fill-rule="nonzero" fill-opacity="1" /><path clip-path="url(#clip740)" d="M120.922 280.175 L125.807 280.175 L125.807 286.055 L120.922 286.055 L120.922 280.175 Z" fill="#000000" fill-rule="nonzero" fill-opacity="1" /><path clip-path="url(#clip740)" d="M145.992 254.573 Q142.381 254.573 140.552 258.138 Q138.746 261.68 138.746 268.809 Q138.746 275.916 140.552 279.481 Q142.381 283.022 145.992 283.022 Q149.626 283.022 151.431 279.481 Q153.26 275.916 153.26 268.809 Q153.26 261.68 151.431 258.138 Q149.626 254.573 145.992 254.573 M145.992 250.87 Q151.802 250.87 154.857 255.476 Q157.936 260.059 157.936 268.809 Q157.936 277.536 154.857 282.143 Q151.802 286.726 145.992 286.726 Q140.181 286.726 137.103 282.143 Q134.047 277.536 134.047 268.809 Q134.047 260.059 137.103 255.476 Q140.181 250.87 145.992 250.87 Z" fill="#000000" fill-rule="nonzero" fill-opacity="1" /><polyline clip-path="url(#clip742)" style="stroke:#009af9; stroke-linecap:round; stroke-linejoin:round; stroke-width:4; stroke-opacity:1; fill:none" points="193.936,718.248 196.097,727.077 198.258,735.79 200.419,744.387 202.58,752.87 204.741,761.241 206.902,769.501 209.063,777.651 211.224,785.693 213.385,793.629 215.546,801.459 217.707,809.185 219.868,816.81 222.029,824.332 224.19,831.756 226.351,839.081 228.512,846.308 230.673,853.44 232.834,860.477 234.995,867.421 237.156,874.273 239.317,881.035 241.478,887.706 243.639,894.289 245.8,900.785 247.961,907.194 250.122,913.519 252.282,919.76 254.443,925.918 256.604,931.994 258.765,937.99 260.926,943.907 263.087,949.744 265.248,955.505 267.409,961.189 269.57,966.798 271.731,972.332 273.892,977.793 276.053,983.182 278.214,988.499 280.375,993.746 282.536,998.923 284.697,1004.03 286.858,1009.07 289.019,1014.05 291.18,1018.95 293.341,1023.8 295.502,1028.58 297.663,1033.29 299.824,1037.94 301.985,1042.54 304.146,1047.07 306.307,1051.54 308.468,1055.95 310.629,1060.3 312.79,1064.59 314.951,1068.83 317.112,1073.01 319.273,1077.14 321.434,1081.21 323.595,1085.23 325.756,1089.19 327.917,1093.11 330.078,1096.97 332.239,1100.77 334.4,1104.53 336.561,1108.24 338.722,1111.9 340.883,1115.51 343.044,1119.07 345.205,1122.59 347.366,1126.06 349.527,1129.48 351.688,1132.86 353.849,1136.19 356.01,1139.48 358.171,1142.72 360.332,1145.93 362.493,1149.09 364.653,1152.2 366.814,1155.28 368.975,1158.32 371.136,1161.31 373.297,1164.27 375.458,1167.18 377.619,1170.06 379.78,1172.9 381.941,1175.7 384.102,1178.47 386.263,1181.19 388.424,1183.89 390.585,1186.54 392.746,1189.16 394.907,1191.75 397.068,1194.3 399.229,1196.82 401.39,1199.31 403.551,1201.49 405.712,1200.35 407.873,1195.82 410.034,1188.77 412.195,1179.95 414.356,1170.03 416.517,1159.55 418.678,1148.94 420.839,1138.53 423,1128.53 425.161,1119.05 427.322,1110.08 429.483,1101.52 431.644,1093.13 433.805,1084.63 435.966,1076.15 438.127,1067.77 440.288,1059.51 442.449,1051.36 444.61,1043.32 446.771,1035.38 448.932,1027.55 451.093,1019.82 453.254,1012.19 455.415,1004.67 457.576,997.245 459.737,989.918 461.898,982.689 464.059,975.555 466.22,968.516 468.381,961.571 470.542,954.717 472.703,947.955 474.864,941.282 477.024,934.697 479.185,928.2 481.346,921.79 483.507,915.464 485.668,909.222 487.829,903.063 489.99,896.986 492.151,890.989 494.312,885.072 496.473,879.233 498.634,873.471 500.795,867.786 502.956,862.177 505.117,856.641 507.278,851.179 509.439,845.79 511.6,840.472 513.761,835.224 515.922,830.046 518.083,824.936 520.244,819.894 522.405,814.919 524.566,810.01 526.727,805.166 528.888,800.387 531.049,795.67 533.21,791.016 535.371,786.424 537.532,781.893 539.693,777.422 541.854,773.01 544.015,768.657 546.176,764.361 548.337,760.122 550.498,755.94 552.659,751.813 554.82,747.741 556.981,743.722 559.142,739.757 561.303,735.845 563.464,731.984 565.625,728.175 567.786,724.416 569.947,720.707 572.108,717.047 574.269,713.436 576.43,709.872 578.591,706.356 580.752,702.886 582.913,699.463 585.074,696.084 587.235,692.751 589.396,689.461 591.556,686.216 593.717,683.013 595.878,679.853 598.039,676.735 600.2,673.658 602.361,670.622 604.522,667.626 606.683,664.67 608.844,661.753 611.005,658.874 613.166,656.034 615.327,653.232 617.488,650.466 619.649,647.738 621.81,644.814 623.971,642.136 626.132,643.105 628.293,645.402 630.454,647.541 632.615,649.651 634.776,651.734 636.937,653.789 639.098,655.817 641.259,657.818 643.42,659.793 645.581,661.741 647.742,663.664 649.903,665.561 652.064,667.432 654.225,669.279 656.386,671.102 658.547,672.9 660.708,674.675 662.869,676.426 665.03,678.154 667.191,679.859 669.352,681.541 671.513,683.201 673.674,684.839 675.835,686.455 677.996,688.05 680.157,689.624 682.318,691.176 684.479,692.709 686.64,694.221 688.801,695.712 690.962,697.184 693.123,698.637 695.284,700.07 697.445,701.485 699.606,702.88 701.767,704.257 703.927,705.616 706.088,706.957 708.249,708.28 710.41,709.585 712.571,710.874 714.732,712.145 716.893,713.399 719.054,714.636 721.215,715.858 723.376,717.063 725.537,718.252 727.698,719.425 729.859,720.583 732.02,721.725 734.181,722.852 736.342,723.964 738.503,725.062 740.664,726.145 742.825,727.214 744.986,728.268 747.147,729.309 749.308,730.335 751.469,731.348 753.63,732.348 755.791,733.334 757.952,734.308 760.113,735.268 762.274,736.216 764.435,737.151 766.596,738.073 768.757,738.984 770.918,739.882 773.079,740.769 775.24,741.644 777.401,742.507 779.562,743.358 781.723,744.199 783.884,745.028 786.045,745.846 788.206,746.654 790.367,747.45 792.528,748.237 794.689,749.012 796.85,749.778 799.011,750.533 801.172,751.278 803.333,752.014 805.494,752.739 807.655,753.455 809.816,754.162 811.977,754.859 814.138,755.547 816.298,756.226 818.459,756.896 820.62,757.556 822.781,758.209 824.942,758.852 827.103,759.487 829.264,760.114 831.425,760.732 833.586,761.342 835.747,761.944 837.908,762.538 840.069,763.124 842.23,763.23 844.391,757.955 846.552,750.789 848.713,744.392 850.874,738.077 853.035,731.818 855.196,725.642 857.357,719.547 859.518,713.533 861.679,707.599 863.84,701.744 866.001,695.966 868.162,690.265 870.323,684.64 872.484,679.089 874.645,673.611 876.806,668.207 878.967,662.874 881.128,657.611 883.289,652.419 885.45,647.295 887.611,642.239 889.772,637.25 891.933,632.328 894.094,627.47 896.255,622.677 898.416,617.948 900.577,613.281 902.738,608.676 904.899,604.133 907.06,599.649 909.221,595.225 911.382,590.859 913.543,586.552 915.704,582.301 917.865,578.107 920.026,573.969 922.187,569.885 924.348,565.856 926.509,561.879 928.669,557.956 930.83,554.085 932.991,550.265 935.152,546.495 937.313,542.776 939.474,539.106 941.635,535.484 943.796,531.911 945.957,528.385 948.118,524.905 950.279,521.472 952.44,518.085 954.601,514.742 956.762,511.443 958.923,508.189 961.084,504.977 963.245,501.808 965.406,498.681 967.567,495.596 969.728,492.551 971.889,489.547 974.05,486.583 976.211,483.658 978.372,480.771 980.533,477.923 982.694,475.113 984.855,472.34 987.016,469.604 989.177,466.904 991.338,464.239 993.499,461.61 995.66,459.016 997.821,456.457 999.982,453.931 1002.14,451.439 1004.3,448.98 1006.46,446.553 1008.63,444.159 1010.79,441.796 1012.95,439.465 1015.11,437.165 1017.27,434.895 1019.43,432.655 1021.59,430.445 1023.75,428.264 1025.91,426.112 1028.07,423.989 1030.24,421.894 1032.4,419.826 1034.56,417.786 1036.72,415.773 1038.88,413.787 1041.04,411.827 1043.2,409.893 1045.36,407.985 1047.52,406.102 1049.68,404.263 1051.85,403.951 1054.01,405.839 1056.17,409.599 1058.33,414.92 1060.49,421.517 1062.65,429.128 1064.81,437.513 1066.97,446.455 1069.13,455.76 1071.29,465.257 1073.46,474.798 1075.62,484.258 1077.78,493.533 1079.94,502.545 1082.1,511.236 1084.26,519.574 1086.42,527.547 1088.58,535.167 1090.74,542.47 1092.9,549.512 1095.07,556.375 1097.23,563.162 1099.39,570 1101.55,576.965 1103.71,583.862 1105.87,590.669 1108.03,597.385 1110.19,604.012 1112.35,610.551 1114.51,617.004 1116.67,623.371 1118.84,629.653 1121,635.852 1123.16,641.969 1125.32,648.005 1127.48,653.961 1129.64,659.838 1131.8,665.637 1133.96,671.36 1136.12,677.006 1138.28,682.578 1140.45,688.076 1142.61,693.5 1144.77,698.853 1146.93,704.135 1149.09,709.347 1151.25,714.49 1153.41,719.565 1155.57,724.572 1157.73,729.513 1159.89,734.388 1162.06,739.199 1164.22,743.945 1166.38,748.629 1168.54,753.251 1170.7,757.811 1172.86,762.311 1175.02,766.752 1177.18,771.133 1179.34,775.456 1181.5,779.722 1183.67,783.932 1185.83,788.085 1187.99,792.184 1190.15,796.228 1192.31,800.219 1194.47,804.157 1196.63,808.043 1198.79,811.877 1200.95,815.66 1203.11,819.393 1205.28,823.077 1207.44,826.712 1209.6,830.298 1211.76,833.837 1213.92,837.33 1216.08,840.776 1218.24,844.176 1220.4,847.531 1222.56,850.841 1224.72,854.108 1226.88,857.331 1229.05,860.512 1231.21,863.651 1233.37,866.747 1235.53,869.803 1237.69,872.819 1239.85,875.794 1242.01,878.73 1244.17,881.627 1246.33,884.485 1248.49,887.306 1250.66,890.075 1252.82,892.64 1254.98,894.977 1257.14,897.107 1259.3,899.05 1261.46,900.825 1263.62,902.451 1265.78,903.944 1267.94,905.322 1270.1,906.599 1272.27,907.79 1274.43,908.907 1276.59,909.964 1278.75,910.971 1280.91,911.939 1283.07,912.877 1285.23,913.794 1287.39,914.696 1289.55,915.59 1291.71,916.481 1293.88,917.373 1296.04,918.271 1298.2,919.176 1300.36,920.09 1302.52,921.012 1304.68,921.943 1306.84,922.88 1309,923.821 1311.16,924.763 1313.32,925.7 1315.49,926.627 1317.65,927.538 1319.81,928.424 1321.97,929.278 1324.13,930.109 1326.29,930.929 1328.45,931.738 1330.61,932.536 1332.77,933.324 1334.93,934.101 1337.09,934.868 1339.26,935.624 1341.42,936.371 1343.58,937.108 1345.74,937.835 1347.9,938.552 1350.06,939.26 1352.22,939.959 1354.38,940.648 1356.54,941.328 1358.7,941.999 1360.87,942.661 1363.03,943.315 1365.19,943.96 1367.35,944.596 1369.51,945.224 1371.67,945.843 1373.83,946.454 1375.99,947.057 1378.15,947.653 1380.31,948.24 1382.48,948.819 1384.64,949.391 1386.8,949.955 1388.96,950.512 1391.12,951.061 1393.28,951.603 1395.44,952.138 1397.6,952.666 1399.76,953.187 1401.92,953.701 1404.09,954.208 1406.25,954.708 1408.41,955.202 1410.57,955.689 1412.73,956.17 1414.89,956.644 1417.05,957.112 1419.21,957.574 1421.37,958.029 1423.53,958.479 1425.7,958.923 1427.86,959.361 1430.02,959.793 1432.18,960.219 1434.34,960.64 1436.5,961.055 1438.66,961.464 1440.82,961.868 1442.98,962.267 1445.14,962.661 1447.3,963.049 1449.47,963.432 1451.63,963.81 1453.79,964.183 1455.95,964.551 1458.11,964.914 1460.27,965.194 1462.43,965.231 1464.59,965.121 1466.75,964.965 1468.91,964.847 1471.08,964.844 1473.24,965.018 1475.4,965.422 1477.56,966.095 1479.72,967.066 1481.88,968.352 1484.04,969.957 1486.2,971.876 1488.36,974.089 1490.52,976.567 1492.69,979.267 1494.85,982.137 1497.01,985.111 1499.17,988.114 1501.33,991.055 1503.49,993.837 1505.65,996.507 1507.81,999.143 1509.97,1001.74 1512.13,1004.31 1514.3,1006.84 1516.46,1009.34 1518.62,1011.81 1520.78,1014.24 1522.94,1016.64 1525.1,1019.01 1527.26,1021.34 1529.42,1023.65 1531.58,1025.93 1533.74,1028.17 1535.91,1030.39 1538.07,1032.57 1540.23,1034.73 1542.39,1036.86 1544.55,1038.96 1546.71,1041.04 1548.87,1043.08 1551.03,1045.1 1553.19,1047.09 1555.35,1049.06 1557.51,1050.99 1559.68,1052.91 1561.84,1054.79 1564,1056.66 1566.16,1058.5 1568.32,1060.31 1570.48,1062.1 1572.64,1063.86 1574.8,1065.61 1576.96,1067.33 1579.12,1069.02 1581.29,1070.7 1583.45,1072.35 1585.61,1073.98 1587.77,1075.59 1589.93,1077.17 1592.09,1078.74 1594.25,1080.28 1596.41,1081.81 1598.57,1083.31 1600.73,1084.8 1602.9,1086.26 1605.06,1087.71 1607.22,1089.13 1609.38,1090.54 1611.54,1091.93 1613.7,1093.3 1615.86,1094.65 1618.02,1095.99 1620.18,1097.3 1622.34,1098.6 1624.51,1099.88 1626.67,1101.15 1628.83,1102.4 1630.99,1103.63 1633.15,1104.84 1635.31,1106.04 1637.47,1107.23 1639.63,1108.39 1641.79,1109.55 1643.95,1110.68 1646.12,1111.8 1648.28,1112.91 1650.44,1114 1652.6,1115.08 1654.76,1116.14 1656.92,1117.19 1659.08,1118.23 1661.24,1119.25 1663.4,1120.26 1665.56,1121.25 1667.72,1122.24 1669.89,1123.2 1672.05,1124.16 1674.21,1125.1 1676.37,1126.03 1678.53,1126.95 1680.69,1127.86 1682.85,1128.75 1685.01,1129.63 1687.17,1130.5 1689.33,1131.36 1691.5,1132.21 1693.66,1133.05 1695.82,1133.87 1697.98,1134.32 1700.14,1132.37 1702.3,1128.02 1704.46,1121.57 1706.62,1113.33 1708.78,1103.59 1710.94,1092.6 1713.11,1080.62 1715.27,1067.87 1717.43,1054.55 1719.59,1040.85 1721.75,1026.94 1723.91,1012.98 1726.07,999.082 1728.23,985.366 1730.39,971.924 1732.55,958.829 1734.72,946.133 1736.88,933.873 1739.04,922.063 1741.2,910.701 1743.36,899.764 1745.52,889.211 1747.68,878.98 1749.84,868.993 1752,859.151 1754.16,849.336 1756.33,839.41 1758.49,829.424 1760.65,819.57 1762.81,809.847 1764.97,800.253 1767.13,790.786 1769.29,781.444 1771.45,772.226 1773.61,763.131 1775.77,754.156 1777.93,745.3 1780.1,736.562 1782.26,727.939 1784.42,719.43 1786.58,711.035 1788.74,702.751 1790.9,694.576 1793.06,686.51 1795.22,678.55 1797.38,670.696 1799.54,662.947 1801.71,655.3 1803.87,647.754 1806.03,640.308 1808.19,632.962 1810.35,625.712 1812.51,618.559 1814.67,611.501 1816.83,604.536 1818.99,597.664 1821.15,590.883 1823.32,584.192 1825.48,577.589 1827.64,571.075 1829.8,564.646 1831.96,558.303 1834.12,552.044 1836.28,545.868 1838.44,539.774 1840.6,533.76 1842.76,527.826 1844.93,521.971 1847.09,516.194 1849.25,510.493 1851.41,504.867 1853.57,499.317 1855.73,493.839 1857.89,488.435 1860.05,483.102 1862.21,477.839 1864.37,472.646 1866.54,467.523 1868.7,462.467 1870.86,457.478 1873.02,452.555 1875.18,447.698 1877.34,442.905 1879.5,438.176 1881.66,433.509 1883.82,428.904 1885.98,424.36 1888.15,419.877 1890.31,415.453 1892.47,411.087 1894.63,406.78 1896.79,402.53 1898.95,398.336 1901.11,394.197 1903.27,390.114 1905.43,386.084 1907.59,382.108 1909.75,378.185 1911.92,374.314 1914.08,370.494 1916.24,366.801 1918.4,364.383 1920.56,363.482 1922.72,363.927 1924.88,365.551 1927.04,368.2 1929.2,371.726 1931.36,375.993 1933.53,380.871 1935.69,386.241 1937.85,391.992 1940.01,398.024 1942.17,404.243 1944.33,410.566 1946.49,416.918 1948.65,423.235 1950.81,429.459 1952.97,435.544 1955.14,441.45 1957.3,447.149 1959.46,452.62 1961.62,457.852 1963.78,462.842 1965.94,467.598 1968.1,472.134 1970.26,476.476 1972.42,480.658 1974.58,484.721 1976.75,488.719 1978.91,492.711 1981.07,496.768 1983.23,500.934 1985.39,505.07 1987.55,509.151 1989.71,513.178 1991.87,517.151 1994.03,521.072 1996.19,524.94 1998.36,528.758 2000.52,532.525 2002.68,536.242 2004.84,539.909 2007,543.528 2009.16,547.099 2011.32,550.623 2013.48,554.1 2015.64,557.531 2017.8,560.916 2019.96,564.257 2022.13,567.553 2024.29,570.806 2026.45,574.015 2028.61,577.182 2030.77,580.308 2032.93,583.392 2035.09,586.435 2037.25,589.438 2039.41,592.401 2041.57,595.324 2043.74,598.209 2045.9,601.056 2048.06,603.865 2050.22,606.637 2052.38,609.371 2054.54,612.07 2056.7,614.733 2058.86,617.36 2061.02,619.952 2063.18,622.51 2065.35,625.034 2067.51,627.525 2069.67,629.982 2071.83,632.407 2073.99,634.799 2076.15,637.16 2078.31,639.489 2080.47,641.788 2082.63,644.056 2084.79,646.293 2086.96,648.501 2089.12,650.68 2091.28,652.83 2093.44,654.952 2095.6,657.045 2097.76,659.11 2099.92,661.149 2102.08,663.16 2104.24,665.144 2106.4,667.102 2108.57,669.035 2110.73,670.941 2112.89,672.823 2115.05,674.68 2117.21,676.512 2119.37,678.319 2121.53,680.103 2123.69,681.864 2125.85,683.601 2128.01,685.315 2130.17,687.006 2132.34,688.675 2134.5,690.321 2136.66,691.946 2138.82,692.195 2140.98,690.236 2143.14,687.461 2145.3,684.731 2147.46,682.36 2149.62,680.12 2151.78,677.817 2153.95,675.545 2156.11,673.302 2158.27,671.09 2160.43,668.907 2162.59,666.752 2164.75,664.626 2166.91,662.529 2169.07,660.459 2171.23,658.416 2173.39,656.401 2175.56,654.413 2177.72,652.45 2179.88,650.514 2182.04,648.604 2184.2,646.719 2186.36,644.858 2188.52,643.023 2190.68,641.212 2192.84,639.425 2195,637.661 2197.17,635.921 2199.33,634.204 2201.49,632.51 2203.65,630.838 2205.81,629.188 2207.97,627.56 2210.13,625.954 2212.29,624.369 2214.45,622.805 2216.61,621.262 2218.78,619.739 2220.94,618.237 2223.1,616.754 2225.26,615.291 2227.42,613.848 2229.58,612.424 2231.74,611.018 2233.9,609.631 2236.06,608.263 2238.22,606.912 2240.38,605.58 2242.55,604.265 2244.71,602.968 2246.87,601.688 2249.03,600.424 2251.19,599.178 2253.35,597.948 2255.51,596.735 2257.67,595.537 2259.83,594.355 2261.99,593.189 2264.16,592.039 2266.32,590.903 2268.48,589.783 2270.64,588.678 2272.8,587.587 2274.96,586.511 2277.12,585.449 2279.28,584.401 2281.44,583.367 2283.6,582.347 2285.77,581.34 2287.93,580.347 2290.09,579.366 2292.25,578.399 2294.41,577.445 2296.57,576.503 2298.73,575.574 2300.89,574.657 2303.05,573.752 2305.21,572.859 2307.38,571.978 2309.54,571.109 2311.7,570.251 2313.86,569.405 2316.02,568.57 2318.18,567.746 2320.34,566.933 2322.5,566.13 2324.66,565.338 2326.82,564.557 2328.99,563.786 2331.15,563.026 2333.31,562.275 2335.47,561.534 2337.63,560.804 2339.79,560.082 2341.95,559.371 2344.11,558.669 2346.27,557.976 2348.43,557.292 2350.59,556.618 2352.76,555.952 "/>
<polyline clip-path="url(#clip742)" style="stroke:#e26f46; stroke-linecap:round; stroke-linejoin:round; stroke-width:4; stroke-opacity:1; fill:none" points="193.936,1384.24 196.097,1384.24 198.258,1384.24 200.419,1384.24 202.58,1384.24 204.741,1384.24 206.902,1384.24 209.063,1384.24 211.224,1384.24 213.385,1384.24 215.546,1384.24 217.707,1384.24 219.868,1384.24 222.029,1384.24 224.19,1384.24 226.351,1384.24 228.512,1384.24 230.673,1384.24 232.834,1384.24 234.995,1384.24 237.156,1384.24 239.317,1384.24 241.478,1384.24 243.639,1384.24 245.8,1384.24 247.961,1384.24 250.122,1384.24 252.282,1384.24 254.443,1384.24 256.604,1384.24 258.765,1384.24 260.926,1384.24 263.087,1384.24 265.248,1384.24 267.409,1384.24 269.57,1384.24 271.731,1384.24 273.892,1384.24 276.053,1384.24 278.214,1384.24 280.375,1384.24 282.536,1384.24 284.697,1384.24 286.858,1384.24 289.019,1384.24 291.18,1384.24 293.341,1384.24 295.502,1384.24 297.663,1384.24 299.824,1384.24 301.985,1384.24 304.146,1384.24 306.307,1384.24 308.468,1384.24 310.629,1384.24 312.79,1384.24 314.951,1384.24 317.112,1384.24 319.273,1384.24 321.434,1384.24 323.595,1384.24 325.756,1384.24 327.917,1384.24 330.078,1384.24 332.239,1384.24 334.4,1384.24 336.561,1384.24 338.722,1384.24 340.883,1384.24 343.044,1384.24 345.205,1384.24 347.366,1384.24 349.527,1384.24 351.688,1384.24 353.849,1384.24 356.01,1384.24 358.171,1384.24 360.332,1384.24 362.493,1384.24 364.653,1384.24 366.814,1384.24 368.975,1384.24 371.136,1384.24 373.297,1384.24 375.458,1384.24 377.619,1384.24 379.78,1384.24 381.941,1384.24 384.102,1384.24 386.263,1384.24 388.424,1384.24 390.585,1384.24 392.746,1384.24 394.907,1384.24 397.068,1384.24 399.229,1384.24 401.39,1384.24 403.551,1384.24 405.712,1384.24 407.873,1384.24 410.034,444.653 412.195,444.653 414.356,444.653 416.517,444.653 418.678,444.653 420.839,444.653 423,444.653 425.161,444.653 427.322,444.653 429.483,444.653 431.644,444.653 433.805,444.653 435.966,444.653 438.127,444.653 440.288,444.653 442.449,444.653 444.61,444.653 446.771,444.653 448.932,444.653 451.093,444.653 453.254,444.653 455.415,444.653 457.576,444.653 459.737,444.653 461.898,444.653 464.059,444.653 466.22,444.653 468.381,444.653 470.542,444.653 472.703,444.653 474.864,444.653 477.024,444.653 479.185,444.653 481.346,444.653 483.507,444.653 485.668,444.653 487.829,444.653 489.99,444.653 492.151,444.653 494.312,444.653 496.473,444.653 498.634,444.653 500.795,444.653 502.956,444.653 505.117,444.653 507.278,444.653 509.439,444.653 511.6,444.653 513.761,444.653 515.922,444.653 518.083,444.653 520.244,444.653 522.405,444.653 524.566,444.653 526.727,444.653 528.888,444.653 531.049,444.653 533.21,444.653 535.371,444.653 537.532,444.653 539.693,444.653 541.854,444.653 544.015,444.653 546.176,444.653 548.337,444.653 550.498,444.653 552.659,444.653 554.82,444.653 556.981,444.653 559.142,444.653 561.303,444.653 563.464,444.653 565.625,444.653 567.786,444.653 569.947,444.653 572.108,444.653 574.269,444.653 576.43,444.653 578.591,444.653 580.752,444.653 582.913,444.653 585.074,444.653 587.235,444.653 589.396,444.653 591.556,444.653 593.717,444.653 595.878,444.653 598.039,444.653 600.2,444.653 602.361,444.653 604.522,444.653 606.683,444.653 608.844,444.653 611.005,444.653 613.166,444.653 615.327,444.653 617.488,444.653 619.649,444.653 621.81,444.653 623.971,444.653 626.132,806.746 628.293,806.746 630.454,806.746 632.615,806.746 634.776,806.746 636.937,806.746 639.098,806.746 641.259,806.746 643.42,806.746 645.581,806.746 647.742,806.746 649.903,806.746 652.064,806.746 654.225,806.746 656.386,806.746 658.547,806.746 660.708,806.746 662.869,806.746 665.03,806.746 667.191,806.746 669.352,806.746 671.513,806.746 673.674,806.746 675.835,806.746 677.996,806.746 680.157,806.746 682.318,806.746 684.479,806.746 686.64,806.746 688.801,806.746 690.962,806.746 693.123,806.746 695.284,806.746 697.445,806.746 699.606,806.746 701.767,806.746 703.927,806.746 706.088,806.746 708.249,806.746 710.41,806.746 712.571,806.746 714.732,806.746 716.893,806.746 719.054,806.746 721.215,806.746 723.376,806.746 725.537,806.746 727.698,806.746 729.859,806.746 732.02,806.746 734.181,806.746 736.342,806.746 738.503,806.746 740.664,806.746 742.825,806.746 744.986,806.746 747.147,806.746 749.308,806.746 751.469,806.746 753.63,806.746 755.791,806.746 757.952,806.746 760.113,806.746 762.274,806.746 764.435,806.746 766.596,806.746 768.757,806.746 770.918,806.746 773.079,806.746 775.24,806.746 777.401,806.746 779.562,806.746 781.723,806.746 783.884,806.746 786.045,806.746 788.206,806.746 790.367,806.746 792.528,806.746 794.689,806.746 796.85,806.746 799.011,806.746 801.172,806.746 803.333,806.746 805.494,806.746 807.655,806.746 809.816,806.746 811.977,806.746 814.138,806.746 816.298,806.746 818.459,806.746 820.62,806.746 822.781,806.746 824.942,806.746 827.103,806.746 829.264,806.746 831.425,806.746 833.586,806.746 835.747,806.746 837.908,806.746 840.069,806.746 842.23,265.955 844.391,265.955 846.552,265.955 848.713,265.955 850.874,265.955 853.035,265.955 855.196,265.955 857.357,265.955 859.518,265.955 861.679,265.955 863.84,265.955 866.001,265.955 868.162,265.955 870.323,265.955 872.484,265.955 874.645,265.955 876.806,265.955 878.967,265.955 881.128,265.955 883.289,265.955 885.45,265.955 887.611,265.955 889.772,265.955 891.933,265.955 894.094,265.955 896.255,265.955 898.416,265.955 900.577,265.955 902.738,265.955 904.899,265.955 907.06,265.955 909.221,265.955 911.382,265.955 913.543,265.955 915.704,265.955 917.865,265.955 920.026,265.955 922.187,265.955 924.348,265.955 926.509,265.955 928.669,265.955 930.83,265.955 932.991,265.955 935.152,265.955 937.313,265.955 939.474,265.955 941.635,265.955 943.796,265.955 945.957,265.955 948.118,265.955 950.279,265.955 952.44,265.955 954.601,265.955 956.762,265.955 958.923,265.955 961.084,265.955 963.245,265.955 965.406,265.955 967.567,265.955 969.728,265.955 971.889,265.955 974.05,265.955 976.211,265.955 978.372,265.955 980.533,265.955 982.694,265.955 984.855,265.955 987.016,265.955 989.177,265.955 991.338,265.955 993.499,265.955 995.66,265.955 997.821,265.955 999.982,265.955 1002.14,265.955 1004.3,265.955 1006.46,265.955 1008.63,265.955 1010.79,265.955 1012.95,265.955 1015.11,265.955 1017.27,265.955 1019.43,265.955 1021.59,265.955 1023.75,265.955 1025.91,265.955 1028.07,265.955 1030.24,265.955 1032.4,265.955 1034.56,265.955 1036.72,265.955 1038.88,265.955 1041.04,265.955 1043.2,265.955 1045.36,265.955 1047.52,265.955 1049.68,265.955 1051.85,265.955 1054.01,265.955 1056.17,265.955 1058.33,1097.24 1060.49,1097.24 1062.65,1097.24 1064.81,1097.24 1066.97,1097.24 1069.13,1097.24 1071.29,1097.24 1073.46,1097.24 1075.62,1097.24 1077.78,1097.24 1079.94,1097.24 1082.1,1097.24 1084.26,1097.24 1086.42,1097.24 1088.58,1097.24 1090.74,1097.24 1092.9,1097.24 1095.07,1097.24 1097.23,1097.24 1099.39,1097.24 1101.55,1097.24 1103.71,1097.24 1105.87,1097.24 1108.03,1097.24 1110.19,1097.24 1112.35,1097.24 1114.51,1097.24 1116.67,1097.24 1118.84,1097.24 1121,1097.24 1123.16,1097.24 1125.32,1097.24 1127.48,1097.24 1129.64,1097.24 1131.8,1097.24 1133.96,1097.24 1136.12,1097.24 1138.28,1097.24 1140.45,1097.24 1142.61,1097.24 1144.77,1097.24 1146.93,1097.24 1149.09,1097.24 1151.25,1097.24 1153.41,1097.24 1155.57,1097.24 1157.73,1097.24 1159.89,1097.24 1162.06,1097.24 1164.22,1097.24 1166.38,1097.24 1168.54,1097.24 1170.7,1097.24 1172.86,1097.24 1175.02,1097.24 1177.18,1097.24 1179.34,1097.24 1181.5,1097.24 1183.67,1097.24 1185.83,1097.24 1187.99,1097.24 1190.15,1097.24 1192.31,1097.24 1194.47,1097.24 1196.63,1097.24 1198.79,1097.24 1200.95,1097.24 1203.11,1097.24 1205.28,1097.24 1207.44,1097.24 1209.6,1097.24 1211.76,1097.24 1213.92,1097.24 1216.08,1097.24 1218.24,1097.24 1220.4,1097.24 1222.56,1097.24 1224.72,1097.24 1226.88,1097.24 1229.05,1097.24 1231.21,1097.24 1233.37,1097.24 1235.53,1097.24 1237.69,1097.24 1239.85,1097.24 1242.01,1097.24 1244.17,1097.24 1246.33,1097.24 1248.49,1097.24 1250.66,1097.24 1252.82,1097.24 1254.98,1097.24 1257.14,1097.24 1259.3,1097.24 1261.46,1097.24 1263.62,1097.24 1265.78,1097.24 1267.94,1097.24 1270.1,1097.24 1272.27,1097.24 1274.43,991.946 1276.59,991.946 1278.75,991.946 1280.91,991.946 1283.07,991.946 1285.23,991.946 1287.39,991.946 1289.55,991.946 1291.71,991.946 1293.88,991.946 1296.04,991.946 1298.2,991.946 1300.36,991.946 1302.52,991.946 1304.68,991.946 1306.84,991.946 1309,991.946 1311.16,991.946 1313.32,991.946 1315.49,991.946 1317.65,991.946 1319.81,991.946 1321.97,991.946 1324.13,991.946 1326.29,991.946 1328.45,991.946 1330.61,991.946 1332.77,991.946 1334.93,991.946 1337.09,991.946 1339.26,991.946 1341.42,991.946 1343.58,991.946 1345.74,991.946 1347.9,991.946 1350.06,991.946 1352.22,991.946 1354.38,991.946 1356.54,991.946 1358.7,991.946 1360.87,991.946 1363.03,991.946 1365.19,991.946 1367.35,991.946 1369.51,991.946 1371.67,991.946 1373.83,991.946 1375.99,991.946 1378.15,991.946 1380.31,991.946 1382.48,991.946 1384.64,991.946 1386.8,991.946 1388.96,991.946 1391.12,991.946 1393.28,991.946 1395.44,991.946 1397.6,991.946 1399.76,991.946 1401.92,991.946 1404.09,991.946 1406.25,991.946 1408.41,991.946 1410.57,991.946 1412.73,991.946 1414.89,991.946 1417.05,991.946 1419.21,991.946 1421.37,991.946 1423.53,991.946 1425.7,991.946 1427.86,991.946 1430.02,991.946 1432.18,991.946 1434.34,991.946 1436.5,991.946 1438.66,991.946 1440.82,991.946 1442.98,991.946 1445.14,991.946 1447.3,991.946 1449.47,991.946 1451.63,991.946 1453.79,991.946 1455.95,991.946 1458.11,991.946 1460.27,991.946 1462.43,991.946 1464.59,991.946 1466.75,991.946 1468.91,991.946 1471.08,991.946 1473.24,991.946 1475.4,991.946 1477.56,991.946 1479.72,991.946 1481.88,991.946 1484.04,991.946 1486.2,991.946 1488.36,991.946 1490.52,1195.29 1492.69,1195.29 1494.85,1195.29 1497.01,1195.29 1499.17,1195.29 1501.33,1195.29 1503.49,1195.29 1505.65,1195.29 1507.81,1195.29 1509.97,1195.29 1512.13,1195.29 1514.3,1195.29 1516.46,1195.29 1518.62,1195.29 1520.78,1195.29 1522.94,1195.29 1525.1,1195.29 1527.26,1195.29 1529.42,1195.29 1531.58,1195.29 1533.74,1195.29 1535.91,1195.29 1538.07,1195.29 1540.23,1195.29 1542.39,1195.29 1544.55,1195.29 1546.71,1195.29 1548.87,1195.29 1551.03,1195.29 1553.19,1195.29 1555.35,1195.29 1557.51,1195.29 1559.68,1195.29 1561.84,1195.29 1564,1195.29 1566.16,1195.29 1568.32,1195.29 1570.48,1195.29 1572.64,1195.29 1574.8,1195.29 1576.96,1195.29 1579.12,1195.29 1581.29,1195.29 1583.45,1195.29 1585.61,1195.29 1587.77,1195.29 1589.93,1195.29 1592.09,1195.29 1594.25,1195.29 1596.41,1195.29 1598.57,1195.29 1600.73,1195.29 1602.9,1195.29 1605.06,1195.29 1607.22,1195.29 1609.38,1195.29 1611.54,1195.29 1613.7,1195.29 1615.86,1195.29 1618.02,1195.29 1620.18,1195.29 1622.34,1195.29 1624.51,1195.29 1626.67,1195.29 1628.83,1195.29 1630.99,1195.29 1633.15,1195.29 1635.31,1195.29 1637.47,1195.29 1639.63,1195.29 1641.79,1195.29 1643.95,1195.29 1646.12,1195.29 1648.28,1195.29 1650.44,1195.29 1652.6,1195.29 1654.76,1195.29 1656.92,1195.29 1659.08,1195.29 1661.24,1195.29 1663.4,1195.29 1665.56,1195.29 1667.72,1195.29 1669.89,1195.29 1672.05,1195.29 1674.21,1195.29 1676.37,1195.29 1678.53,1195.29 1680.69,1195.29 1682.85,1195.29 1685.01,1195.29 1687.17,1195.29 1689.33,1195.29 1691.5,1195.29 1693.66,1195.29 1695.82,1195.29 1697.98,1195.29 1700.14,1195.29 1702.3,1195.29 1704.46,1195.29 1706.62,86.1857 1708.78,86.1857 1710.94,86.1857 1713.11,86.1857 1715.27,86.1857 1717.43,86.1857 1719.59,86.1857 1721.75,86.1857 1723.91,86.1857 1726.07,86.1857 1728.23,86.1857 1730.39,86.1857 1732.55,86.1857 1734.72,86.1857 1736.88,86.1857 1739.04,86.1857 1741.2,86.1857 1743.36,86.1857 1745.52,86.1857 1747.68,86.1857 1749.84,86.1857 1752,86.1857 1754.16,86.1857 1756.33,86.1857 1758.49,86.1857 1760.65,86.1857 1762.81,86.1857 1764.97,86.1857 1767.13,86.1857 1769.29,86.1857 1771.45,86.1857 1773.61,86.1857 1775.77,86.1857 1777.93,86.1857 1780.1,86.1857 1782.26,86.1857 1784.42,86.1857 1786.58,86.1857 1788.74,86.1857 1790.9,86.1857 1793.06,86.1857 1795.22,86.1857 1797.38,86.1857 1799.54,86.1857 1801.71,86.1857 1803.87,86.1857 1806.03,86.1857 1808.19,86.1857 1810.35,86.1857 1812.51,86.1857 1814.67,86.1857 1816.83,86.1857 1818.99,86.1857 1821.15,86.1857 1823.32,86.1857 1825.48,86.1857 1827.64,86.1857 1829.8,86.1857 1831.96,86.1857 1834.12,86.1857 1836.28,86.1857 1838.44,86.1857 1840.6,86.1857 1842.76,86.1857 1844.93,86.1857 1847.09,86.1857 1849.25,86.1857 1851.41,86.1857 1853.57,86.1857 1855.73,86.1857 1857.89,86.1857 1860.05,86.1857 1862.21,86.1857 1864.37,86.1857 1866.54,86.1857 1868.7,86.1857 1870.86,86.1857 1873.02,86.1857 1875.18,86.1857 1877.34,86.1857 1879.5,86.1857 1881.66,86.1857 1883.82,86.1857 1885.98,86.1857 1888.15,86.1857 1890.31,86.1857 1892.47,86.1857 1894.63,86.1857 1896.79,86.1857 1898.95,86.1857 1901.11,86.1857 1903.27,86.1857 1905.43,86.1857 1907.59,86.1857 1909.75,86.1857 1911.92,86.1857 1914.08,86.1857 1916.24,86.1857 1918.4,86.1857 1920.56,86.1857 1922.72,812.878 1924.88,812.878 1927.04,812.878 1929.2,812.878 1931.36,812.878 1933.53,812.878 1935.69,812.878 1937.85,812.878 1940.01,812.878 1942.17,812.878 1944.33,812.878 1946.49,812.878 1948.65,812.878 1950.81,812.878 1952.97,812.878 1955.14,812.878 1957.3,812.878 1959.46,812.878 1961.62,812.878 1963.78,812.878 1965.94,812.878 1968.1,812.878 1970.26,812.878 1972.42,812.878 1974.58,812.878 1976.75,812.878 1978.91,812.878 1981.07,812.878 1983.23,812.878 1985.39,812.878 1987.55,812.878 1989.71,812.878 1991.87,812.878 1994.03,812.878 1996.19,812.878 1998.36,812.878 2000.52,812.878 2002.68,812.878 2004.84,812.878 2007,812.878 2009.16,812.878 2011.32,812.878 2013.48,812.878 2015.64,812.878 2017.8,812.878 2019.96,812.878 2022.13,812.878 2024.29,812.878 2026.45,812.878 2028.61,812.878 2030.77,812.878 2032.93,812.878 2035.09,812.878 2037.25,812.878 2039.41,812.878 2041.57,812.878 2043.74,812.878 2045.9,812.878 2048.06,812.878 2050.22,812.878 2052.38,812.878 2054.54,812.878 2056.7,812.878 2058.86,812.878 2061.02,812.878 2063.18,812.878 2065.35,812.878 2067.51,812.878 2069.67,812.878 2071.83,812.878 2073.99,812.878 2076.15,812.878 2078.31,812.878 2080.47,812.878 2082.63,812.878 2084.79,812.878 2086.96,812.878 2089.12,812.878 2091.28,812.878 2093.44,812.878 2095.6,812.878 2097.76,812.878 2099.92,812.878 2102.08,812.878 2104.24,812.878 2106.4,812.878 2108.57,812.878 2110.73,812.878 2112.89,812.878 2115.05,812.878 2117.21,812.878 2119.37,812.878 2121.53,812.878 2123.69,812.878 2125.85,812.878 2128.01,812.878 2130.17,812.878 2132.34,812.878 2134.5,812.878 2136.66,812.878 2138.82,506.411 2140.98,506.411 2143.14,506.411 2145.3,506.411 2147.46,506.411 2149.62,506.411 2151.78,506.411 2153.95,506.411 2156.11,506.411 2158.27,506.411 2160.43,506.411 2162.59,506.411 2164.75,506.411 2166.91,506.411 2169.07,506.411 2171.23,506.411 2173.39,506.411 2175.56,506.411 2177.72,506.411 2179.88,506.411 2182.04,506.411 2184.2,506.411 2186.36,506.411 2188.52,506.411 2190.68,506.411 2192.84,506.411 2195,506.411 2197.17,506.411 2199.33,506.411 2201.49,506.411 2203.65,506.411 2205.81,506.411 2207.97,506.411 2210.13,506.411 2212.29,506.411 2214.45,506.411 2216.61,506.411 2218.78,506.411 2220.94,506.411 2223.1,506.411 2225.26,506.411 2227.42,506.411 2229.58,506.411 2231.74,506.411 2233.9,506.411 2236.06,506.411 2238.22,506.411 2240.38,506.411 2242.55,506.411 2244.71,506.411 2246.87,506.411 2249.03,506.411 2251.19,506.411 2253.35,506.411 2255.51,506.411 2257.67,506.411 2259.83,506.411 2261.99,506.411 2264.16,506.411 2266.32,506.411 2268.48,506.411 2270.64,506.411 2272.8,506.411 2274.96,506.411 2277.12,506.411 2279.28,506.411 2281.44,506.411 2283.6,506.411 2285.77,506.411 2287.93,506.411 2290.09,506.411 2292.25,506.411 2294.41,506.411 2296.57,506.411 2298.73,506.411 2300.89,506.411 2303.05,506.411 2305.21,506.411 2307.38,506.411 2309.54,506.411 2311.7,506.411 2313.86,506.411 2316.02,506.411 2318.18,506.411 2320.34,506.411 2322.5,506.411 2324.66,506.411 2326.82,506.411 2328.99,506.411 2331.15,506.411 2333.31,506.411 2335.47,506.411 2337.63,506.411 2339.79,506.411 2341.95,506.411 2344.11,506.411 2346.27,506.411 2348.43,506.411 2350.59,506.411 2352.76,506.411 "/>
<path clip-path="url(#clip740)" d="M265.897 248.629 L506.917 248.629 L506.917 93.1086 L265.897 93.1086  Z" fill="#ffffff" fill-rule="evenodd" fill-opacity="1"/>
<polyline clip-path="url(#clip740)" style="stroke:#000000; stroke-linecap:round; stroke-linejoin:round; stroke-width:4; stroke-opacity:1; fill:none" points="265.897,248.629 506.917,248.629 506.917,93.1086 265.897,93.1086 265.897,248.629 "/>
<polyline clip-path="url(#clip740)" style="stroke:#009af9; stroke-linecap:round; stroke-linejoin:round; stroke-width:4; stroke-opacity:1; fill:none" points="289.884,144.949 433.805,144.949 "/>
<path clip-path="url(#clip740)" d="M482.444 136.303 L473.069 148.919 L482.931 162.229 L477.907 162.229 L470.361 152.043 L462.815 162.229 L457.792 162.229 L467.861 148.664 L458.648 136.303 L463.671 136.303 L470.546 145.539 L477.421 136.303 L482.444 136.303 Z" fill="#000000" fill-rule="nonzero" fill-opacity="1" /><polyline clip-path="url(#clip740)" style="stroke:#e26f46; stroke-linecap:round; stroke-linejoin:round; stroke-width:4; stroke-opacity:1; fill:none" points="289.884,196.789 433.805,196.789 "/>
<path clip-path="url(#clip740)" d="M474.296 178.05 L474.296 181.592 L470.222 181.592 Q467.931 181.592 467.028 182.518 Q466.148 183.444 466.148 185.851 L466.148 188.143 L473.162 188.143 L473.162 191.453 L466.148 191.453 L466.148 214.069 L461.866 214.069 L461.866 191.453 L457.792 191.453 L457.792 188.143 L461.866 188.143 L461.866 186.337 Q461.866 182.009 463.88 180.041 Q465.894 178.05 470.269 178.05 L474.296 178.05 Z" fill="#000000" fill-rule="nonzero" fill-opacity="1" /></svg>
