<?xml version="1.0" encoding="utf-8"?>
<svg xmlns="http://www.w3.org/2000/svg" xmlns:xlink="http://www.w3.org/1999/xlink" width="600" height="400" viewBox="0 0 2400 1600">
<defs>
  <clipPath id="clip810">
    <rect x="0" y="0" width="2400" height="1600"/>
  </clipPath>
</defs>
<path clip-path="url(#clip810)" d="M0 1600 L2400 1600 L2400 0 L0 0  Z" fill="#ffffff" fill-rule="evenodd" fill-opacity="1"/>
<defs>
  <clipPath id="clip811">
    <rect x="480" y="0" width="1681" height="1600"/>
  </clipPath>
</defs>
<path clip-path="url(#clip810)" d="M192.941 1423.18 L2352.76 1423.18 L2352.76 47.2441 L192.941 47.2441  Z" fill="#ffffff" fill-rule="evenodd" fill-opacity="1"/>
<defs>
  <clipPath id="clip812">
    <rect x="192" y="47" width="2161" height="1377"/>
  </clipPath>
</defs>
<polyline clip-path="url(#clip812)" style="stroke:#000000; stroke-linecap:round; stroke-linejoin:round; stroke-width:2; stroke-opacity:0.1; fill:none" points="192.941,1423.18 192.941,47.2441 "/>
<polyline clip-path="url(#clip812)" style="stroke:#000000; stroke-linecap:round; stroke-linejoin:round; stroke-width:2; stroke-opacity:0.1; fill:none" points="624.904,1423.18 624.904,47.2441 "/>
<polyline clip-path="url(#clip812)" style="stroke:#000000; stroke-linecap:round; stroke-linejoin:round; stroke-width:2; stroke-opacity:0.1; fill:none" points="1056.87,1423.18 1056.87,47.2441 "/>
<polyline clip-path="url(#clip812)" style="stroke:#000000; stroke-linecap:round; stroke-linejoin:round; stroke-width:2; stroke-opacity:0.1; fill:none" points="1488.83,1423.18 1488.83,47.2441 "/>
<polyline clip-path="url(#clip812)" style="stroke:#000000; stroke-linecap:round; stroke-linejoin:round; stroke-width:2; stroke-opacity:0.1; fill:none" points="1920.79,1423.18 1920.79,47.2441 "/>
<polyline clip-path="url(#clip812)" style="stroke:#000000; stroke-linecap:round; stroke-linejoin:round; stroke-width:2; stroke-opacity:0.1; fill:none" points="2352.76,1423.18 2352.76,47.2441 "/>
<polyline clip-path="url(#clip810)" style="stroke:#000000; stroke-linecap:round; stroke-linejoin:round; stroke-width:4; stroke-opacity:1; fill:none" points="192.941,1423.18 2352.76,1423.18 "/>
<polyline clip-path="url(#clip810)" style="stroke:#000000; stroke-linecap:round; stroke-linejoin:round; stroke-width:4; stroke-opacity:1; fill:none" points="192.941,1423.18 192.941,1404.28 "/>
<polyline clip-path="url(#clip810)" style="stroke:#000000; stroke-linecap:round; stroke-linejoin:round; stroke-width:4; stroke-opacity:1; fill:none" points="624.904,1423.18 624.904,1404.28 "/>
<polyline clip-path="url(#clip810)" style="stroke:#000000; stroke-linecap:round; stroke-linejoin:round; stroke-width:4; stroke-opacity:1; fill:none" points="1056.87,1423.18 1056.87,1404.28 "/>
<polyline clip-path="url(#clip810)" style="stroke:#000000; stroke-linecap:round; stroke-linejoin:round; stroke-width:4; stroke-opacity:1; fill:none" points="1488.83,1423.18 1488.83,1404.28 "/>
<polyline clip-path="url(#clip810)" style="stroke:#000000; stroke-linecap:round; stroke-linejoin:round; stroke-width:4; stroke-opacity:1; fill:none" points="1920.79,1423.18 1920.79,1404.28 "/>
<polyline clip-path="url(#clip810)" style="stroke:#000000; stroke-linecap:round; stroke-linejoin:round; stroke-width:4; stroke-opacity:1; fill:none" points="2352.76,1423.18 2352.76,1404.28 "/>
<path clip-path="url(#clip810)" d="M192.941 1454.1 Q189.33 1454.1 187.501 1457.66 Q185.695 1461.2 185.695 1468.33 Q185.695 1475.44 187.501 1479.01 Q189.33 1482.55 192.941 1482.55 Q196.575 1482.55 198.38 1479.01 Q200.209 1475.44 200.209 1468.33 Q200.209 1461.2 198.38 1457.66 Q196.575 1454.1 192.941 1454.1 M192.941 1450.39 Q198.751 1450.39 201.806 1455 Q204.885 1459.58 204.885 1468.33 Q204.885 1477.06 201.806 1481.67 Q198.751 1486.25 192.941 1486.25 Q187.13 1486.25 184.052 1481.67 Q180.996 1477.06 180.996 1468.33 Q180.996 1459.58 184.052 1455 Q187.13 1450.39 192.941 1450.39 Z" fill="#000000" fill-rule="nonzero" fill-opacity="1" /><path clip-path="url(#clip810)" d="M619.556 1481.64 L635.876 1481.64 L635.876 1485.58 L613.932 1485.58 L613.932 1481.64 Q616.594 1478.89 621.177 1474.26 Q625.783 1469.61 626.964 1468.27 Q629.209 1465.74 630.089 1464.01 Q630.992 1462.25 630.992 1460.56 Q630.992 1457.8 629.047 1456.07 Q627.126 1454.33 624.024 1454.33 Q621.825 1454.33 619.371 1455.09 Q616.941 1455.86 614.163 1457.41 L614.163 1452.69 Q616.987 1451.55 619.441 1450.97 Q621.894 1450.39 623.931 1450.39 Q629.302 1450.39 632.496 1453.08 Q635.691 1455.77 635.691 1460.26 Q635.691 1462.39 634.88 1464.31 Q634.093 1466.2 631.987 1468.8 Q631.408 1469.47 628.306 1472.69 Q625.205 1475.88 619.556 1481.64 Z" fill="#000000" fill-rule="nonzero" fill-opacity="1" /><path clip-path="url(#clip810)" d="M1059.88 1455.09 L1048.07 1473.54 L1059.88 1473.54 L1059.88 1455.09 M1058.65 1451.02 L1064.53 1451.02 L1064.53 1473.54 L1069.46 1473.54 L1069.46 1477.43 L1064.53 1477.43 L1064.53 1485.58 L1059.88 1485.58 L1059.88 1477.43 L1044.27 1477.43 L1044.27 1472.92 L1058.65 1451.02 Z" fill="#000000" fill-rule="nonzero" fill-opacity="1" /><path clip-path="url(#clip810)" d="M1489.23 1466.44 Q1486.09 1466.44 1484.23 1468.59 Q1482.41 1470.74 1482.41 1474.49 Q1482.41 1478.22 1484.23 1480.39 Q1486.09 1482.55 1489.23 1482.55 Q1492.38 1482.55 1494.21 1480.39 Q1496.06 1478.22 1496.06 1474.49 Q1496.06 1470.74 1494.21 1468.59 Q1492.38 1466.44 1489.23 1466.44 M1498.52 1451.78 L1498.52 1456.04 Q1496.76 1455.21 1494.95 1454.77 Q1493.17 1454.33 1491.41 1454.33 Q1486.78 1454.33 1484.33 1457.45 Q1481.9 1460.58 1481.55 1466.9 Q1482.92 1464.89 1484.98 1463.82 Q1487.04 1462.73 1489.51 1462.73 Q1494.72 1462.73 1497.73 1465.9 Q1500.76 1469.05 1500.76 1474.49 Q1500.76 1479.82 1497.61 1483.03 Q1494.47 1486.25 1489.23 1486.25 Q1483.24 1486.25 1480.07 1481.67 Q1476.9 1477.06 1476.9 1468.33 Q1476.9 1460.14 1480.79 1455.28 Q1484.67 1450.39 1491.23 1450.39 Q1492.98 1450.39 1494.77 1450.74 Q1496.57 1451.09 1498.52 1451.78 Z" fill="#000000" fill-rule="nonzero" fill-opacity="1" /><path clip-path="url(#clip810)" d="M1920.79 1469.17 Q1917.46 1469.17 1915.54 1470.95 Q1913.64 1472.73 1913.64 1475.86 Q1913.64 1478.98 1915.54 1480.77 Q1917.46 1482.55 1920.79 1482.55 Q1924.13 1482.55 1926.05 1480.77 Q1927.97 1478.96 1927.97 1475.86 Q1927.97 1472.73 1926.05 1470.95 Q1924.15 1469.17 1920.79 1469.17 M1916.12 1467.18 Q1913.11 1466.44 1911.42 1464.38 Q1909.75 1462.32 1909.75 1459.35 Q1909.75 1455.21 1912.69 1452.8 Q1915.65 1450.39 1920.79 1450.39 Q1925.95 1450.39 1928.89 1452.8 Q1931.83 1455.21 1931.83 1459.35 Q1931.83 1462.32 1930.14 1464.38 Q1928.48 1466.44 1925.49 1467.18 Q1928.87 1467.96 1930.75 1470.26 Q1932.64 1472.55 1932.64 1475.86 Q1932.64 1480.88 1929.57 1483.57 Q1926.51 1486.25 1920.79 1486.25 Q1915.08 1486.25 1912 1483.57 Q1908.94 1480.88 1908.94 1475.86 Q1908.94 1472.55 1910.84 1470.26 Q1912.74 1467.96 1916.12 1467.18 M1914.4 1459.79 Q1914.4 1462.48 1916.07 1463.98 Q1917.76 1465.49 1920.79 1465.49 Q1923.8 1465.49 1925.49 1463.98 Q1927.2 1462.48 1927.2 1459.79 Q1927.2 1457.11 1925.49 1455.6 Q1923.8 1454.1 1920.79 1454.1 Q1917.76 1454.1 1916.07 1455.6 Q1914.4 1457.11 1914.4 1459.79 Z" fill="#000000" fill-rule="nonzero" fill-opacity="1" /><path clip-path="url(#clip810)" d="M2327.44 1481.64 L2335.08 1481.64 L2335.08 1455.28 L2326.77 1456.95 L2326.77 1452.69 L2335.04 1451.02 L2339.71 1451.02 L2339.71 1481.64 L2347.35 1481.64 L2347.35 1485.58 L2327.44 1485.58 L2327.44 1481.64 Z" fill="#000000" fill-rule="nonzero" fill-opacity="1" /><path clip-path="url(#clip810)" d="M2366.8 1454.1 Q2363.18 1454.1 2361.36 1457.66 Q2359.55 1461.2 2359.55 1468.33 Q2359.55 1475.44 2361.36 1479.01 Q2363.18 1482.55 2366.8 1482.55 Q2370.43 1482.55 2372.23 1479.01 Q2374.06 1475.44 2374.06 1468.33 Q2374.06 1461.2 2372.23 1457.66 Q2370.43 1454.1 2366.8 1454.1 M2366.8 1450.39 Q2372.61 1450.39 2375.66 1455 Q2378.74 1459.58 2378.74 1468.33 Q2378.74 1477.06 2375.66 1481.67 Q2372.61 1486.25 2366.8 1486.25 Q2360.99 1486.25 2357.91 1481.67 Q2354.85 1477.06 2354.85 1468.33 Q2354.85 1459.58 2357.91 1455 Q2360.99 1450.39 2366.8 1450.39 Z" fill="#000000" fill-rule="nonzero" fill-opacity="1" /><path clip-path="url(#clip810)" d="M1271.91 1522.27 L1271.91 1532.4 L1283.97 1532.4 L1283.97 1536.95 L1271.91 1536.95 L1271.91 1556.3 Q1271.91 1560.66 1273.09 1561.9 Q1274.3 1563.14 1277.96 1563.14 L1283.97 1563.14 L1283.97 1568.04 L1277.96 1568.04 Q1271.18 1568.04 1268.6 1565.53 Q1266.02 1562.98 1266.02 1556.3 L1266.02 1536.95 L1261.72 1536.95 L1261.72 1532.4 L1266.02 1532.4 L1266.02 1522.27 L1271.91 1522.27 Z" fill="#000000" fill-rule="nonzero" fill-opacity="1" /><polyline clip-path="url(#clip812)" style="stroke:#000000; stroke-linecap:round; stroke-linejoin:round; stroke-width:2; stroke-opacity:0.1; fill:none" points="192.941,1384.77 2352.76,1384.77 "/>
<polyline clip-path="url(#clip812)" style="stroke:#000000; stroke-linecap:round; stroke-linejoin:round; stroke-width:2; stroke-opacity:0.1; fill:none" points="192.941,1143.1 2352.76,1143.1 "/>
<polyline clip-path="url(#clip812)" style="stroke:#000000; stroke-linecap:round; stroke-linejoin:round; stroke-width:2; stroke-opacity:0.1; fill:none" points="192.941,901.434 2352.76,901.434 "/>
<polyline clip-path="url(#clip812)" style="stroke:#000000; stroke-linecap:round; stroke-linejoin:round; stroke-width:2; stroke-opacity:0.1; fill:none" points="192.941,659.764 2352.76,659.764 "/>
<polyline clip-path="url(#clip812)" style="stroke:#000000; stroke-linecap:round; stroke-linejoin:round; stroke-width:2; stroke-opacity:0.1; fill:none" points="192.941,418.095 2352.76,418.095 "/>
<polyline clip-path="url(#clip812)" style="stroke:#000000; stroke-linecap:round; stroke-linejoin:round; stroke-width:2; stroke-opacity:0.1; fill:none" points="192.941,176.425 2352.76,176.425 "/>
<polyline clip-path="url(#clip810)" style="stroke:#000000; stroke-linecap:round; stroke-linejoin:round; stroke-width:4; stroke-opacity:1; fill:none" points="192.941,1423.18 192.941,47.2441 "/>
<polyline clip-path="url(#clip810)" style="stroke:#000000; stroke-linecap:round; stroke-linejoin:round; stroke-width:4; stroke-opacity:1; fill:none" points="192.941,1384.77 211.838,1384.77 "/>
<polyline clip-path="url(#clip810)" style="stroke:#000000; stroke-linecap:round; stroke-linejoin:round; stroke-width:4; stroke-opacity:1; fill:none" points="192.941,1143.1 211.838,1143.1 "/>
<polyline clip-path="url(#clip810)" style="stroke:#000000; stroke-linecap:round; stroke-linejoin:round; stroke-width:4; stroke-opacity:1; fill:none" points="192.941,901.434 211.838,901.434 "/>
<polyline clip-path="url(#clip810)" style="stroke:#000000; stroke-linecap:round; stroke-linejoin:round; stroke-width:4; stroke-opacity:1; fill:none" points="192.941,659.764 211.838,659.764 "/>
<polyline clip-path="url(#clip810)" style="stroke:#000000; stroke-linecap:round; stroke-linejoin:round; stroke-width:4; stroke-opacity:1; fill:none" points="192.941,418.095 211.838,418.095 "/>
<polyline clip-path="url(#clip810)" style="stroke:#000000; stroke-linecap:round; stroke-linejoin:round; stroke-width:4; stroke-opacity:1; fill:none" points="192.941,176.425 211.838,176.425 "/>
<path clip-path="url(#clip810)" d="M50.9921 1385.23 L80.6679 1385.23 L80.6679 1389.16 L50.9921 1389.16 L50.9921 1385.23 Z" fill="#000000" fill-rule="nonzero" fill-opacity="1" /><path clip-path="url(#clip810)" d="M100.76 1370.57 Q97.1493 1370.57 95.3206 1374.14 Q93.515 1377.68 93.515 1384.81 Q93.515 1391.91 95.3206 1395.48 Q97.1493 1399.02 100.76 1399.02 Q104.395 1399.02 106.2 1395.48 Q108.029 1391.91 108.029 1384.81 Q108.029 1377.68 106.2 1374.14 Q104.395 1370.57 100.76 1370.57 M100.76 1366.87 Q106.571 1366.87 109.626 1371.48 Q112.705 1376.06 112.705 1384.81 Q112.705 1393.54 109.626 1398.14 Q106.571 1402.73 100.76 1402.73 Q94.9502 1402.73 91.8715 1398.14 Q88.816 1393.54 88.816 1384.81 Q88.816 1376.06 91.8715 1371.48 Q94.9502 1366.87 100.76 1366.87 Z" fill="#000000" fill-rule="nonzero" fill-opacity="1" /><path clip-path="url(#clip810)" d="M120.922 1396.17 L125.807 1396.17 L125.807 1402.05 L120.922 1402.05 L120.922 1396.17 Z" fill="#000000" fill-rule="nonzero" fill-opacity="1" /><path clip-path="url(#clip810)" d="M136.038 1367.49 L154.394 1367.49 L154.394 1371.43 L140.32 1371.43 L140.32 1379.9 Q141.339 1379.55 142.357 1379.39 Q143.376 1379.21 144.394 1379.21 Q150.181 1379.21 153.561 1382.38 Q156.941 1385.55 156.941 1390.97 Q156.941 1396.54 153.468 1399.65 Q149.996 1402.73 143.677 1402.73 Q141.501 1402.73 139.232 1402.35 Q136.987 1401.98 134.58 1401.24 L134.58 1396.54 Q136.663 1397.68 138.885 1398.23 Q141.107 1398.79 143.584 1398.79 Q147.589 1398.79 149.927 1396.68 Q152.265 1394.58 152.265 1390.97 Q152.265 1387.35 149.927 1385.25 Q147.589 1383.14 143.584 1383.14 Q141.709 1383.14 139.834 1383.56 Q137.982 1383.98 136.038 1384.85 L136.038 1367.49 Z" fill="#000000" fill-rule="nonzero" fill-opacity="1" /><path clip-path="url(#clip810)" d="M99.765 1128.9 Q96.1539 1128.9 94.3252 1132.47 Q92.5197 1136.01 92.5197 1143.14 Q92.5197 1150.25 94.3252 1153.81 Q96.1539 1157.35 99.765 1157.35 Q103.399 1157.35 105.205 1153.81 Q107.033 1150.25 107.033 1143.14 Q107.033 1136.01 105.205 1132.47 Q103.399 1128.9 99.765 1128.9 M99.765 1125.2 Q105.575 1125.2 108.631 1129.81 Q111.709 1134.39 111.709 1143.14 Q111.709 1151.87 108.631 1156.47 Q105.575 1161.06 99.765 1161.06 Q93.9549 1161.06 90.8762 1156.47 Q87.8206 1151.87 87.8206 1143.14 Q87.8206 1134.39 90.8762 1129.81 Q93.9549 1125.2 99.765 1125.2 Z" fill="#000000" fill-rule="nonzero" fill-opacity="1" /><path clip-path="url(#clip810)" d="M119.927 1154.5 L124.811 1154.5 L124.811 1160.38 L119.927 1160.38 L119.927 1154.5 Z" fill="#000000" fill-rule="nonzero" fill-opacity="1" /><path clip-path="url(#clip810)" d="M144.996 1128.9 Q141.385 1128.9 139.556 1132.47 Q137.751 1136.01 137.751 1143.14 Q137.751 1150.25 139.556 1153.81 Q141.385 1157.35 144.996 1157.35 Q148.63 1157.35 150.436 1153.81 Q152.265 1150.25 152.265 1143.14 Q152.265 1136.01 150.436 1132.47 Q148.63 1128.9 144.996 1128.9 M144.996 1125.2 Q150.806 1125.2 153.862 1129.81 Q156.941 1134.39 156.941 1143.14 Q156.941 1151.87 153.862 1156.47 Q150.806 1161.06 144.996 1161.06 Q139.186 1161.06 136.107 1156.47 Q133.052 1151.87 133.052 1143.14 Q133.052 1134.39 136.107 1129.81 Q139.186 1125.2 144.996 1125.2 Z" fill="#000000" fill-rule="nonzero" fill-opacity="1" /><path clip-path="url(#clip810)" d="M100.76 887.233 Q97.1493 887.233 95.3206 890.798 Q93.515 894.339 93.515 901.469 Q93.515 908.575 95.3206 912.14 Q97.1493 915.682 100.76 915.682 Q104.395 915.682 106.2 912.14 Q108.029 908.575 108.029 901.469 Q108.029 894.339 106.2 890.798 Q104.395 887.233 100.76 887.233 M100.76 883.529 Q106.571 883.529 109.626 888.136 Q112.705 892.719 112.705 901.469 Q112.705 910.196 109.626 914.802 Q106.571 919.385 100.76 919.385 Q94.9502 919.385 91.8715 914.802 Q88.816 910.196 88.816 901.469 Q88.816 892.719 91.8715 888.136 Q94.9502 883.529 100.76 883.529 Z" fill="#000000" fill-rule="nonzero" fill-opacity="1" /><path clip-path="url(#clip810)" d="M120.922 912.835 L125.807 912.835 L125.807 918.714 L120.922 918.714 L120.922 912.835 Z" fill="#000000" fill-rule="nonzero" fill-opacity="1" /><path clip-path="url(#clip810)" d="M136.038 884.154 L154.394 884.154 L154.394 888.089 L140.32 888.089 L140.32 896.561 Q141.339 896.214 142.357 896.052 Q143.376 895.867 144.394 895.867 Q150.181 895.867 153.561 899.038 Q156.941 902.21 156.941 907.626 Q156.941 913.205 153.468 916.307 Q149.996 919.385 143.677 919.385 Q141.501 919.385 139.232 919.015 Q136.987 918.645 134.58 917.904 L134.58 913.205 Q136.663 914.339 138.885 914.895 Q141.107 915.45 143.584 915.45 Q147.589 915.45 149.927 913.344 Q152.265 911.237 152.265 907.626 Q152.265 904.015 149.927 901.909 Q147.589 899.802 143.584 899.802 Q141.709 899.802 139.834 900.219 Q137.982 900.636 136.038 901.515 L136.038 884.154 Z" fill="#000000" fill-rule="nonzero" fill-opacity="1" /><path clip-path="url(#clip810)" d="M90.5752 673.109 L98.2141 673.109 L98.2141 646.744 L89.904 648.41 L89.904 644.151 L98.1678 642.484 L102.844 642.484 L102.844 673.109 L110.483 673.109 L110.483 677.044 L90.5752 677.044 L90.5752 673.109 Z" fill="#000000" fill-rule="nonzero" fill-opacity="1" /><path clip-path="url(#clip810)" d="M119.927 671.165 L124.811 671.165 L124.811 677.044 L119.927 677.044 L119.927 671.165 Z" fill="#000000" fill-rule="nonzero" fill-opacity="1" /><path clip-path="url(#clip810)" d="M144.996 645.563 Q141.385 645.563 139.556 649.128 Q137.751 652.669 137.751 659.799 Q137.751 666.905 139.556 670.47 Q141.385 674.012 144.996 674.012 Q148.63 674.012 150.436 670.47 Q152.265 666.905 152.265 659.799 Q152.265 652.669 150.436 649.128 Q148.63 645.563 144.996 645.563 M144.996 641.859 Q150.806 641.859 153.862 646.466 Q156.941 651.049 156.941 659.799 Q156.941 668.526 153.862 673.132 Q150.806 677.716 144.996 677.716 Q139.186 677.716 136.107 673.132 Q133.052 668.526 133.052 659.799 Q133.052 651.049 136.107 646.466 Q139.186 641.859 144.996 641.859 Z" fill="#000000" fill-rule="nonzero" fill-opacity="1" /><path clip-path="url(#clip810)" d="M91.5706 431.439 L99.2095 431.439 L99.2095 405.074 L90.8993 406.74 L90.8993 402.481 L99.1632 400.815 L103.839 400.815 L103.839 431.439 L111.478 431.439 L111.478 435.375 L91.5706 435.375 L91.5706 431.439 Z" fill="#000000" fill-rule="nonzero" fill-opacity="1" /><path clip-path="url(#clip810)" d="M120.922 429.495 L125.807 429.495 L125.807 435.375 L120.922 435.375 L120.922 429.495 Z" fill="#000000" fill-rule="nonzero" fill-opacity="1" /><path clip-path="url(#clip810)" d="M136.038 400.815 L154.394 400.815 L154.394 404.75 L140.32 404.75 L140.32 413.222 Q141.339 412.875 142.357 412.713 Q143.376 412.527 144.394 412.527 Q150.181 412.527 153.561 415.699 Q156.941 418.87 156.941 424.287 Q156.941 429.865 153.468 432.967 Q149.996 436.046 143.677 436.046 Q141.501 436.046 139.232 435.675 Q136.987 435.305 134.58 434.564 L134.58 429.865 Q136.663 431 138.885 431.555 Q141.107 432.111 143.584 432.111 Q147.589 432.111 149.927 430.004 Q152.265 427.898 152.265 424.287 Q152.265 420.676 149.927 418.569 Q147.589 416.463 143.584 416.463 Q141.709 416.463 139.834 416.879 Q137.982 417.296 136.038 418.176 L136.038 400.815 Z" fill="#000000" fill-rule="nonzero" fill-opacity="1" /><path clip-path="url(#clip810)" d="M93.7928 189.77 L110.112 189.77 L110.112 193.705 L88.1679 193.705 L88.1679 189.77 Q90.8299 187.015 95.4132 182.385 Q100.02 177.733 101.2 176.39 Q103.446 173.867 104.325 172.131 Q105.228 170.371 105.228 168.682 Q105.228 165.927 103.284 164.191 Q101.362 162.455 98.2604 162.455 Q96.0613 162.455 93.6076 163.219 Q91.1771 163.983 88.3993 165.534 L88.3993 160.811 Q91.2234 159.677 93.6771 159.098 Q96.1308 158.52 98.1678 158.52 Q103.538 158.52 106.733 161.205 Q109.927 163.89 109.927 168.381 Q109.927 170.51 109.117 172.432 Q108.33 174.33 106.223 176.922 Q105.645 177.594 102.543 180.811 Q99.4409 184.006 93.7928 189.77 Z" fill="#000000" fill-rule="nonzero" fill-opacity="1" /><path clip-path="url(#clip810)" d="M119.927 187.825 L124.811 187.825 L124.811 193.705 L119.927 193.705 L119.927 187.825 Z" fill="#000000" fill-rule="nonzero" fill-opacity="1" /><path clip-path="url(#clip810)" d="M144.996 162.223 Q141.385 162.223 139.556 165.788 Q137.751 169.33 137.751 176.459 Q137.751 183.566 139.556 187.131 Q141.385 190.672 144.996 190.672 Q148.63 190.672 150.436 187.131 Q152.265 183.566 152.265 176.459 Q152.265 169.33 150.436 165.788 Q148.63 162.223 144.996 162.223 M144.996 158.52 Q150.806 158.52 153.862 163.126 Q156.941 167.709 156.941 176.459 Q156.941 185.186 153.862 189.793 Q150.806 194.376 144.996 194.376 Q139.186 194.376 136.107 189.793 Q133.052 185.186 133.052 176.459 Q133.052 167.709 136.107 163.126 Q139.186 158.52 144.996 158.52 Z" fill="#000000" fill-rule="nonzero" fill-opacity="1" /><polyline clip-path="url(#clip812)" style="stroke:#009af9; stroke-linecap:round; stroke-linejoin:round; stroke-width:4; stroke-opacity:1; fill:none" points="192.941,1143.1 195.103,1133.58 197.265,1124.23 199.427,1115.12 201.589,1106.12 203.751,1097.13 205.912,1088.04 208.074,1078.97 210.236,1070.41 212.398,1062.1 214.56,1053.96 216.722,1045.97 218.884,1038.07 221.046,1030.21 223.208,1022.35 225.37,1014.44 227.532,1006.43 229.694,998.285 231.856,989.945 234.018,982.036 236.18,974.776 238.342,967.721 240.504,960.842 242.666,954.114 244.828,947.509 246.99,940.999 249.152,934.557 251.314,928.157 253.476,921.77 255.638,915.371 257.8,908.93 259.962,902.422 262.124,895.819 264.286,889.094 266.448,882.22 268.61,875.169 270.772,868.742 272.934,862.959 275.096,857.341 277.258,851.873 279.42,846.539 281.582,841.32 283.744,836.202 285.906,831.167 288.068,826.199 290.23,821.282 292.392,816.399 294.554,811.534 296.716,806.67 298.878,801.791 301.039,796.881 303.201,791.922 305.363,786.899 307.525,781.795 309.687,776.593 311.849,771.278 314.011,765.832 316.173,760.24 318.335,755.567 320.497,751.266 322.659,747.089 324.821,743.025 326.983,739.065 329.145,735.199 331.307,731.419 333.469,727.716 335.631,724.079 337.793,720.499 339.955,716.968 342.117,713.475 344.279,710.012 346.441,706.569 348.603,703.136 350.765,699.705 352.927,696.266 355.089,692.809 357.251,689.326 359.413,685.806 361.575,682.242 363.737,678.623 365.899,674.939 368.061,671.182 370.223,667.343 372.385,663.411 374.547,659.378 376.709,655.234 378.871,652.159 381.033,649.205 383.195,646.314 385.357,643.466 387.519,640.64 389.681,637.814 391.843,634.968 394.005,632.08 396.166,629.129 398.328,626.598 400.49,625.645 402.652,626.134 404.814,627.906 406.976,630.802 409.138,634.663 411.3,639.333 413.462,644.651 415.624,650.459 417.786,656.598 419.948,662.911 422.11,669.238 424.272,675.421 426.434,681.302 428.596,686.721 430.758,691.52 432.92,695.541 435.082,698.625 437.244,700.613 439.406,701.347 441.568,700.669 443.73,700.251 445.892,703.725 448.054,707.108 450.216,710.426 452.378,713.703 454.54,716.963 456.702,720.231 458.864,723.531 461.026,726.888 463.188,730.326 465.35,733.434 467.512,736.448 469.674,739.378 471.836,742.229 473.998,745.003 476.16,747.706 478.322,750.341 480.484,752.912 482.646,755.424 484.808,757.879 486.97,760.282 489.132,762.636 491.293,764.947 493.455,767.217 495.617,769.45 497.779,771.652 499.941,773.824 502.103,775.972 504.265,778.1 506.427,780.21 508.589,782.308 510.751,784.397 512.913,786.481 515.075,788.564 517.237,790.65 519.399,792.742 521.561,794.846 523.723,796.964 525.885,799.101 528.047,801.26 530.209,803.446 532.371,805.662 534.533,807.913 536.695,810.202 538.857,812.533 541.019,814.911 543.181,817.338 545.343,819.82 547.505,822.36 549.667,824.961 551.829,827.628 553.991,830.365 556.153,833.176 558.315,834.988 560.477,836.681 562.639,838.33 564.801,839.942 566.963,841.523 569.125,843.081 571.287,844.623 573.449,846.157 575.611,847.689 577.773,849.226 579.935,850.777 582.097,852.348 584.259,853.946 586.42,855.578 588.582,857.253 590.744,858.763 592.906,860.154 595.068,861.507 597.23,862.827 599.392,864.12 601.554,865.39 603.716,866.644 605.878,867.887 608.04,869.124 610.202,870.36 612.364,871.602 614.526,872.854 616.688,874.122 618.85,875.412 621.012,876.728 623.174,878.077 625.336,879.368 627.498,880.193 629.66,880.62 631.822,880.671 633.984,880.367 636.146,879.729 638.308,878.778 640.47,877.536 642.632,876.024 644.794,874.262 646.956,872.272 649.118,870.076 651.28,867.694 653.442,865.147 655.604,862.457 657.766,859.644 659.928,856.731 662.09,853.738 664.252,850.686 666.414,847.597 668.576,844.491 670.738,841.39 672.9,838.315 675.062,835.287 677.224,832.328 679.386,829.458 681.547,826.842 683.709,824.919 685.871,823.053 688.033,821.236 690.195,819.461 692.357,817.722 694.519,816.011 696.681,814.322 698.843,812.648 701.005,810.981 703.167,809.316 705.329,807.644 707.491,805.959 709.653,804.254 711.815,802.523 713.977,800.757 716.139,798.951 718.301,797.097 720.463,795.483 722.625,793.982 724.787,792.523 726.949,791.103 729.111,789.721 731.273,788.376 733.435,787.064 735.597,785.784 737.759,784.535 739.921,783.313 742.083,782.117 744.245,780.946 746.407,779.796 748.569,778.667 750.731,777.556 752.893,776.461 755.055,775.38 757.217,774.311 759.379,773.253 761.541,772.203 763.703,771.159 765.865,770.12 768.027,769.083 770.189,768.047 772.351,767.008 774.513,765.967 776.674,764.92 778.836,763.865 780.998,762.801 783.16,761.725 785.322,760.636 787.484,759.531 789.646,758.41 791.808,757.268 793.97,756.106 796.132,754.92 798.294,753.709 800.456,752.471 802.618,751.203 804.78,749.904 806.942,748.573 809.104,747.206 811.266,745.913 813.428,745.049 815.59,744.207 817.752,743.376 819.914,742.55 822.076,741.719 824.238,740.877 826.4,739.975 828.562,737.928 830.724,734.503 832.886,730.048 835.048,724.91 837.21,719.435 839.372,713.971 841.534,708.863 843.696,704.46 845.858,701.108 848.02,699.154 850.182,692.491 852.344,684.58 854.506,676.741 856.668,668.858 858.83,660.931 860.992,653.409 863.154,646.105 865.316,639.005 867.478,632.096 869.64,625.364 871.801,618.794 873.963,612.373 876.125,606.087 878.287,599.922 880.449,593.863 882.611,587.897 884.773,582.009 886.935,576.187 889.097,570.415 891.259,564.679 893.421,558.967 895.583,553.264 897.745,547.555 899.907,541.827 902.069,536.066 904.231,530.258 906.393,524.388 908.555,518.444 910.717,512.41 912.879,506.273 915.041,500.019 917.203,493.635 919.365,487.105 921.527,480.416 923.689,473.553 925.851,466.504 928.013,461.18 930.175,456.322 932.337,451.601 934.499,447.009 936.661,442.534 938.823,438.167 940.985,433.896 943.147,429.711 945.309,425.601 947.471,421.557 949.633,417.567 951.795,413.622 953.957,409.71 956.119,405.822 958.281,401.947 960.443,398.073 962.605,394.192 964.767,390.292 966.928,386.363 969.09,382.394 971.252,378.375 973.414,374.296 975.576,370.146 977.738,365.914 979.9,361.591 982.062,357.165 984.224,352.626 986.386,347.964 988.548,344.245 990.71,340.897 992.872,337.644 995.034,334.481 997.196,331.4 999.358,328.395 1001.52,325.46 1003.68,322.589 1005.84,319.775 1008.01,317.011 1010.17,314.291 1012.33,311.609 1014.49,308.959 1016.65,306.333 1018.82,303.725 1020.98,301.13 1023.14,298.54 1025.3,295.95 1027.46,293.352 1029.63,290.741 1031.79,288.109 1033.95,285.451 1036.11,282.76 1038.27,280.03 1040.44,277.253 1042.6,274.425 1044.76,271.538 1046.92,268.586 1049.08,265.562 1051.25,262.461 1053.41,259.275 1055.57,257.152 1057.73,256.32 1059.89,256.57 1062.06,257.861 1064.22,260.15 1066.38,263.393 1068.54,267.549 1070.7,272.573 1072.87,278.424 1075.03,285.058 1077.19,292.434 1079.35,300.507 1081.51,309.236 1083.68,318.578 1085.84,328.489 1088,338.927 1090.16,349.849 1092.32,361.213 1094.49,372.976 1096.65,385.095 1098.81,397.527 1100.97,410.229 1103.13,423.159 1105.3,436.273 1107.46,449.53 1109.62,462.886 1111.78,476.299 1113.94,489.726 1116.1,503.123 1118.27,516.449 1120.43,529.66 1122.59,542.714 1124.75,555.568 1126.91,566.475 1129.08,574.599 1131.24,582.488 1133.4,590.17 1135.56,597.671 1137.72,605.018 1139.89,612.238 1142.05,619.358 1144.21,626.405 1146.37,633.406 1148.53,640.387 1150.7,647.376 1152.86,654.4 1155.02,661.484 1157.18,668.657 1159.34,675.945 1161.51,683.375 1163.67,690.973 1165.83,698.768 1167.99,705.985 1170.15,712.299 1172.32,718.439 1174.48,724.413 1176.64,730.226 1178.8,735.888 1180.96,741.404 1183.13,746.781 1185.29,752.028 1187.45,757.15 1189.61,762.155 1191.77,767.051 1193.94,771.844 1196.1,776.541 1198.26,781.15 1200.42,785.678 1202.58,790.131 1204.75,794.518 1206.91,798.844 1209.07,803.118 1211.23,807.346 1213.39,811.536 1215.56,815.694 1217.72,819.827 1219.88,823.944 1222.04,828.05 1224.2,832.154 1226.37,836.262 1228.53,840.381 1230.69,844.518 1232.85,848.681 1235.01,852.877 1237.18,857.112 1239.34,861.395 1241.5,865.731 1243.66,870.129 1245.82,874.595 1247.99,879.136 1250.15,883.76 1252.31,888.474 1254.47,893.284 1256.63,898.198 1258.8,903.224 1260.96,908.367 1263.12,913.636 1265.28,919.037 1267.44,924.578 1269.61,930.266 1271.77,934.541 1273.93,937.388 1276.09,939.733 1278.25,941.598 1280.42,943.008 1282.58,943.986 1284.74,944.556 1286.9,944.741 1289.06,944.566 1291.23,944.053 1293.39,943.227 1295.55,942.11 1297.71,940.728 1299.87,939.102 1302.03,937.258 1304.2,935.218 1306.36,933.006 1308.52,930.646 1310.68,928.161 1312.84,925.575 1315.01,922.912 1317.17,920.196 1319.33,917.449 1321.49,914.696 1323.65,911.96 1325.82,909.265 1327.98,906.635 1330.14,904.093 1332.3,901.662 1334.46,899.367 1336.63,897.231 1338.79,895.881 1340.95,894.596 1343.11,893.347 1345.27,892.131 1347.44,890.945 1349.6,889.785 1351.76,888.648 1353.92,887.531 1356.08,886.43 1358.25,885.342 1360.41,884.263 1362.57,883.191 1364.73,882.123 1366.89,881.054 1369.06,879.981 1371.22,878.902 1373.38,877.813 1375.54,876.71 1377.7,875.59 1379.87,874.451 1382.03,873.288 1384.19,872.098 1386.35,870.878 1388.51,869.625 1390.68,868.633 1392.84,867.697 1395,866.788 1397.16,865.903 1399.32,865.042 1401.49,864.203 1403.65,863.384 1405.81,862.586 1407.97,861.806 1410.13,861.042 1412.3,860.295 1414.46,859.561 1416.62,858.841 1418.78,858.132 1420.94,857.433 1423.11,856.744 1425.27,856.062 1427.43,855.386 1429.59,854.716 1431.75,854.049 1433.92,853.385 1436.08,852.721 1438.24,852.058 1440.4,851.392 1442.56,850.724 1444.73,850.052 1446.89,849.374 1449.05,848.69 1451.21,847.997 1453.37,847.294 1455.54,846.581 1457.7,845.856 1459.86,845.117 1462.02,844.363 1464.18,843.594 1466.35,842.806 1468.51,842 1470.67,841.174 1472.83,840.327 1474.99,839.457 1477.16,839.297 1479.32,841.214 1481.48,844.569 1483.64,848.674 1485.8,852.84 1487.97,856.377 1490.13,858.598 1492.29,860.162 1494.45,867.036 1496.61,873.785 1498.77,880.514 1500.94,887.326 1503.1,893.967 1505.26,900.334 1507.42,906.519 1509.58,912.534 1511.75,918.392 1513.91,924.106 1516.07,929.689 1518.23,935.154 1520.39,940.513 1522.56,945.779 1524.72,950.965 1526.88,956.083 1529.04,961.147 1531.2,966.169 1533.37,971.162 1535.53,976.138 1537.69,981.112 1539.85,986.094 1542.01,991.098 1544.18,996.138 1546.34,1001.22 1548.5,1006.37 1550.66,1011.59 1552.82,1016.9 1554.99,1022.3 1557.15,1027.82 1559.31,1033.46 1561.47,1039.24 1563.63,1045.16 1565.8,1051.25 1567.96,1055.71 1570.12,1059.96 1572.28,1064.09 1574.44,1068.11 1576.61,1072.03 1578.77,1075.86 1580.93,1079.61 1583.09,1083.3 1585.25,1086.93 1587.42,1090.52 1589.58,1094.07 1591.74,1097.6 1593.9,1101.12 1596.06,1104.63 1598.23,1108.15 1600.39,1111.69 1602.55,1115.25 1604.71,1118.86 1606.87,1122.52 1609.04,1126.24 1611.2,1130.03 1613.36,1133.91 1615.52,1137.87 1617.68,1141.94 1619.85,1145.78 1622.01,1148.9 1624.17,1151.92 1626.33,1154.87 1628.49,1157.73 1630.66,1160.52 1632.82,1163.24 1634.98,1165.91 1637.14,1168.52 1639.3,1171.08 1641.47,1173.59 1643.63,1176.07 1645.79,1178.52 1647.95,1180.95 1650.11,1183.35 1652.28,1185.74 1654.44,1188.13 1656.6,1190.51 1658.76,1192.9 1660.92,1195.3 1663.09,1197.71 1665.25,1200.15 1667.41,1202.61 1669.57,1205.11 1671.73,1207.65 1673.9,1210.24 1676.06,1212.88 1678.22,1215.58 1680.38,1218.34 1682.54,1221.17 1684.7,1224.07 1686.87,1226.57 1689.03,1228.63 1691.19,1230.64 1693.35,1232.61 1695.51,1234.58 1697.68,1236.56 1699.84,1238.56 1702,1240.6 1704.16,1242.37 1706.32,1243.47 1708.49,1243.95 1710.65,1243.85 1712.81,1243.2 1714.97,1242.04 1717.13,1240.39 1719.3,1238.3 1721.46,1235.79 1723.62,1232.91 1725.78,1229.68 1727.94,1226.14 1730.11,1222.32 1732.27,1218.27 1734.43,1214 1736.59,1209.56 1738.75,1204.98 1740.92,1200.3 1743.08,1195.54 1745.24,1190.75 1747.4,1185.95 1749.56,1181.19 1751.73,1176.49 1753.89,1171.89 1756.05,1167.42 1758.21,1163.13 1760.37,1160 1762.54,1157.1 1764.7,1154.28 1766.86,1151.52 1769.02,1148.81 1771.18,1146.13 1773.35,1143.48 1775.51,1140.84 1777.67,1138.2 1779.83,1135.54 1781.99,1132.85 1784.16,1130.12 1786.32,1127.34 1788.48,1124.48 1790.64,1121.8 1792.8,1119.38 1794.97,1117.03 1797.13,1114.75 1799.29,1112.52 1801.45,1110.35 1803.61,1108.23 1805.78,1106.15 1807.94,1104.11 1810.1,1102.11 1812.26,1100.13 1814.42,1098.18 1816.59,1096.25 1818.75,1094.33 1820.91,1092.42 1823.07,1090.51 1825.23,1088.6 1827.4,1086.69 1829.56,1084.76 1831.72,1082.82 1833.88,1080.85 1836.04,1078.86 1838.21,1076.83 1840.37,1074.77 1842.53,1072.66 1844.69,1070.51 1846.85,1068.3 1849.02,1066.04 1851.18,1063.85 1853.34,1062.18 1855.5,1060.55 1857.66,1058.97 1859.83,1057.43 1861.99,1055.93 1864.15,1054.47 1866.31,1053.04 1868.47,1051.63 1870.63,1050.26 1872.8,1048.9 1874.96,1047.56 1877.12,1046.24 1879.28,1044.93 1881.44,1043.62 1883.61,1042.32 1885.77,1041.03 1887.93,1039.73 1890.09,1038.42 1892.25,1037.11 1894.42,1035.78 1896.58,1034.44 1898.74,1033.07 1900.9,1031.69 1903.06,1030.28 1905.23,1028.84 1907.39,1027.37 1909.55,1025.86 1911.71,1024.31 1913.87,1022.81 1916.04,1021.68 1918.2,1020.6 1920.36,1019.56 1922.52,1018.56 1924.68,1017.6 1926.85,1016.68 1929.01,1015.8 1931.17,1014.94 1933.33,1014.12 1935.49,1013.33 1937.66,1012.57 1939.82,1011.83 1941.98,1011.11 1944.14,1010.41 1946.3,1009.74 1948.47,1009.07 1950.63,1008.43 1952.79,1007.79 1954.95,1007.17 1957.11,1006.55 1959.28,1005.94 1961.44,1005.33 1963.6,1004.73 1965.76,1004.12 1967.92,1003.51 1970.09,1002.9 1972.25,1002.28 1974.41,1001.65 1976.57,1001.02 1978.73,1000.36 1980.9,999.696 1983.06,999.012 1985.22,998.309 1987.38,997.584 1989.54,996.835 1991.71,996.061 1993.87,995.259 1996.03,994.461 1998.19,993.913 2000.35,993.381 2002.52,992.865 2004.68,992.362 2006.84,991.872 2009,991.394 2011.16,990.926 2013.33,990.468 2015.49,990.018 2017.65,989.575 2019.81,989.139 2021.97,988.708 2024.14,988.28 2026.3,987.856 2028.46,987.434 2030.62,987.012 2032.78,986.59 2034.95,986.166 2037.11,985.74 2039.27,985.31 2041.43,984.875 2043.59,984.435 2045.76,983.987 2047.92,983.532 2050.08,983.067 2052.24,982.592 2054.4,982.106 2056.57,981.607 2058.73,981.095 2060.89,980.687 2063.05,980.324 2065.21,979.971 2067.37,979.628 2069.54,979.294 2071.7,978.968 2073.86,978.65 2076.02,978.339 2078.18,978.033 2080.35,977.734 2082.51,977.438 2084.67,977.147 2086.83,976.86 2088.99,976.574 2091.16,976.291 2093.32,976.009 2095.48,975.727 2097.64,975.446 2099.8,975.163 2101.97,974.879 2104.13,974.592 2106.29,974.302 2108.45,974.009 2110.61,973.711 2112.78,973.408 2114.94,973.099 2117.1,972.784 2119.26,972.461 2121.42,972.131 2123.59,971.791 2125.75,971.451 2127.91,970.895 2130.07,969.863 2132.23,968.373 2134.4,966.441 2136.56,964.084 2138.72,961.321 2140.88,958.169 2143.04,954.644 2145.21,950.764 2147.37,946.547 2149.53,942.009 2151.69,937.168 2153.85,932.042 2156.02,926.647 2158.18,921.001 2160.34,915.12 2162.5,909.024 2164.66,902.728 2166.83,896.25 2168.99,889.607 2171.15,882.817 2173.31,875.896 2175.47,868.863 2177.64,861.734 2179.8,854.527 2181.96,847.259 2184.12,839.947 2186.28,832.609 2188.45,825.262 2190.61,817.923 2192.77,810.61 2194.93,803.339 2197.09,796.128 2199.26,789.895 2201.42,785.283 2203.58,780.803 2205.74,776.44 2207.9,772.177 2210.07,767.996 2212.23,763.883 2214.39,759.819 2216.55,755.79 2218.71,751.777 2220.88,747.766 2223.04,743.738 2225.2,739.678 2227.36,735.57 2229.52,731.396 2231.69,727.14 2233.85,722.787 2236.01,718.318 2238.17,714.418 2240.33,710.801 2242.5,707.282 2244.66,703.858 2246.82,700.525 2248.98,697.279 2251.14,694.116 2253.3,691.032 2255.47,688.023 2257.63,685.085 2259.79,682.214 2261.95,679.406 2264.11,676.658 2266.28,673.965 2268.44,671.324 2270.6,668.73 2272.76,666.179 2274.92,663.668 2277.09,661.193 2279.25,658.749 2281.41,656.333 2283.57,653.941 2285.73,651.568 2287.9,649.212 2290.06,646.867 2292.22,644.531 2294.38,642.198 2296.54,639.865 2298.71,637.529 2300.87,635.185 2303.03,632.829 2305.19,630.457 2307.35,628.065 2309.52,625.65 2311.68,623.208 2313.84,620.734 2316,618.224 2318.16,615.676 2320.33,613.083 2322.49,610.444 2324.65,607.753 2326.81,605.007 2328.97,602.202 2331.14,599.334 2333.3,596.399 2335.46,593.393 2337.62,590.312 2339.78,587.152 2341.95,583.909 2344.11,580.967 2346.27,579.073 2348.43,577.209 2350.59,575.345 2352.76,573.451 "/>
<polyline clip-path="url(#clip812)" style="stroke:#e26f46; stroke-linecap:round; stroke-linejoin:round; stroke-width:4; stroke-opacity:1; fill:none" points="192.941,423.911 195.103,423.911 197.265,423.911 199.427,423.911 201.589,423.911 203.751,423.911 205.912,423.911 208.074,423.911 210.236,423.911 212.398,423.911 214.56,423.911 216.722,423.911 218.884,423.911 221.046,423.911 223.208,423.911 225.37,423.911 227.532,423.911 229.694,423.911 231.856,423.911 234.018,423.911 236.18,423.911 238.342,423.911 240.504,423.911 242.666,423.911 244.828,423.911 246.99,423.911 249.152,423.911 251.314,423.911 253.476,423.911 255.638,423.911 257.8,423.911 259.962,423.911 262.124,423.911 264.286,423.911 266.448,423.911 268.61,423.911 270.772,423.911 272.934,423.911 275.096,423.911 277.258,423.911 279.42,423.911 281.582,423.911 283.744,423.911 285.906,423.911 288.068,423.911 290.23,423.911 292.392,423.911 294.554,423.911 296.716,423.911 298.878,423.911 301.039,423.911 303.201,423.911 305.363,423.911 307.525,423.911 309.687,423.911 311.849,423.911 314.011,423.911 316.173,423.911 318.335,423.911 320.497,423.911 322.659,423.911 324.821,423.911 326.983,423.911 329.145,423.911 331.307,423.911 333.469,423.911 335.631,423.911 337.793,423.911 339.955,423.911 342.117,423.911 344.279,423.911 346.441,423.911 348.603,423.911 350.765,423.911 352.927,423.911 355.089,423.911 357.251,423.911 359.413,423.911 361.575,423.911 363.737,423.911 365.899,423.911 368.061,423.911 370.223,423.911 372.385,423.911 374.547,423.911 376.709,423.911 378.871,423.911 381.033,423.911 383.195,423.911 385.357,423.911 387.519,423.911 389.681,423.911 391.843,423.911 394.005,423.911 396.166,423.911 398.328,423.911 400.49,423.911 402.652,423.911 404.814,423.911 406.976,423.911 409.138,965.999 411.3,965.999 413.462,965.999 415.624,965.999 417.786,965.999 419.948,965.999 422.11,965.999 424.272,965.999 426.434,965.999 428.596,965.999 430.758,965.999 432.92,965.999 435.082,965.999 437.244,965.999 439.406,965.999 441.568,965.999 443.73,965.999 445.892,965.999 448.054,965.999 450.216,965.999 452.378,965.999 454.54,965.999 456.702,965.999 458.864,965.999 461.026,965.999 463.188,965.999 465.35,965.999 467.512,965.999 469.674,965.999 471.836,965.999 473.998,965.999 476.16,965.999 478.322,965.999 480.484,965.999 482.646,965.999 484.808,965.999 486.97,965.999 489.132,965.999 491.293,965.999 493.455,965.999 495.617,965.999 497.779,965.999 499.941,965.999 502.103,965.999 504.265,965.999 506.427,965.999 508.589,965.999 510.751,965.999 512.913,965.999 515.075,965.999 517.237,965.999 519.399,965.999 521.561,965.999 523.723,965.999 525.885,965.999 528.047,965.999 530.209,965.999 532.371,965.999 534.533,965.999 536.695,965.999 538.857,965.999 541.019,965.999 543.181,965.999 545.343,965.999 547.505,965.999 549.667,965.999 551.829,965.999 553.991,965.999 556.153,965.999 558.315,965.999 560.477,965.999 562.639,965.999 564.801,965.999 566.963,965.999 569.125,965.999 571.287,965.999 573.449,965.999 575.611,965.999 577.773,965.999 579.935,965.999 582.097,965.999 584.259,965.999 586.42,965.999 588.582,965.999 590.744,965.999 592.906,965.999 595.068,965.999 597.23,965.999 599.392,965.999 601.554,965.999 603.716,965.999 605.878,965.999 608.04,965.999 610.202,965.999 612.364,965.999 614.526,965.999 616.688,965.999 618.85,965.999 621.012,965.999 623.174,965.999 625.336,679.972 627.498,679.972 629.66,679.972 631.822,679.972 633.984,679.972 636.146,679.972 638.308,679.972 640.47,679.972 642.632,679.972 644.794,679.972 646.956,679.972 649.118,679.972 651.28,679.972 653.442,679.972 655.604,679.972 657.766,679.972 659.928,679.972 662.09,679.972 664.252,679.972 666.414,679.972 668.576,679.972 670.738,679.972 672.9,679.972 675.062,679.972 677.224,679.972 679.386,679.972 681.547,679.972 683.709,679.972 685.871,679.972 688.033,679.972 690.195,679.972 692.357,679.972 694.519,679.972 696.681,679.972 698.843,679.972 701.005,679.972 703.167,679.972 705.329,679.972 707.491,679.972 709.653,679.972 711.815,679.972 713.977,679.972 716.139,679.972 718.301,679.972 720.463,679.972 722.625,679.972 724.787,679.972 726.949,679.972 729.111,679.972 731.273,679.972 733.435,679.972 735.597,679.972 737.759,679.972 739.921,679.972 742.083,679.972 744.245,679.972 746.407,679.972 748.569,679.972 750.731,679.972 752.893,679.972 755.055,679.972 757.217,679.972 759.379,679.972 761.541,679.972 763.703,679.972 765.865,679.972 768.027,679.972 770.189,679.972 772.351,679.972 774.513,679.972 776.674,679.972 778.836,679.972 780.998,679.972 783.16,679.972 785.322,679.972 787.484,679.972 789.646,679.972 791.808,679.972 793.97,679.972 796.132,679.972 798.294,679.972 800.456,679.972 802.618,679.972 804.78,679.972 806.942,679.972 809.104,679.972 811.266,679.972 813.428,679.972 815.59,679.972 817.752,679.972 819.914,679.972 822.076,679.972 824.238,679.972 826.4,679.972 828.562,679.972 830.724,679.972 832.886,679.972 835.048,679.972 837.21,679.972 839.372,679.972 841.534,86.1857 843.696,86.1857 845.858,86.1857 848.02,86.1857 850.182,86.1857 852.344,86.1857 854.506,86.1857 856.668,86.1857 858.83,86.1857 860.992,86.1857 863.154,86.1857 865.316,86.1857 867.478,86.1857 869.64,86.1857 871.801,86.1857 873.963,86.1857 876.125,86.1857 878.287,86.1857 880.449,86.1857 882.611,86.1857 884.773,86.1857 886.935,86.1857 889.097,86.1857 891.259,86.1857 893.421,86.1857 895.583,86.1857 897.745,86.1857 899.907,86.1857 902.069,86.1857 904.231,86.1857 906.393,86.1857 908.555,86.1857 910.717,86.1857 912.879,86.1857 915.041,86.1857 917.203,86.1857 919.365,86.1857 921.527,86.1857 923.689,86.1857 925.851,86.1857 928.013,86.1857 930.175,86.1857 932.337,86.1857 934.499,86.1857 936.661,86.1857 938.823,86.1857 940.985,86.1857 943.147,86.1857 945.309,86.1857 947.471,86.1857 949.633,86.1857 951.795,86.1857 953.957,86.1857 956.119,86.1857 958.281,86.1857 960.443,86.1857 962.605,86.1857 964.767,86.1857 966.928,86.1857 969.09,86.1857 971.252,86.1857 973.414,86.1857 975.576,86.1857 977.738,86.1857 979.9,86.1857 982.062,86.1857 984.224,86.1857 986.386,86.1857 988.548,86.1857 990.71,86.1857 992.872,86.1857 995.034,86.1857 997.196,86.1857 999.358,86.1857 1001.52,86.1857 1003.68,86.1857 1005.84,86.1857 1008.01,86.1857 1010.17,86.1857 1012.33,86.1857 1014.49,86.1857 1016.65,86.1857 1018.82,86.1857 1020.98,86.1857 1023.14,86.1857 1025.3,86.1857 1027.46,86.1857 1029.63,86.1857 1031.79,86.1857 1033.95,86.1857 1036.11,86.1857 1038.27,86.1857 1040.44,86.1857 1042.6,86.1857 1044.76,86.1857 1046.92,86.1857 1049.08,86.1857 1051.25,86.1857 1053.41,86.1857 1055.57,86.1857 1057.73,1189.33 1059.89,1189.33 1062.06,1189.33 1064.22,1189.33 1066.38,1189.33 1068.54,1189.33 1070.7,1189.33 1072.87,1189.33 1075.03,1189.33 1077.19,1189.33 1079.35,1189.33 1081.51,1189.33 1083.68,1189.33 1085.84,1189.33 1088,1189.33 1090.16,1189.33 1092.32,1189.33 1094.49,1189.33 1096.65,1189.33 1098.81,1189.33 1100.97,1189.33 1103.13,1189.33 1105.3,1189.33 1107.46,1189.33 1109.62,1189.33 1111.78,1189.33 1113.94,1189.33 1116.1,1189.33 1118.27,1189.33 1120.43,1189.33 1122.59,1189.33 1124.75,1189.33 1126.91,1189.33 1129.08,1189.33 1131.24,1189.33 1133.4,1189.33 1135.56,1189.33 1137.72,1189.33 1139.89,1189.33 1142.05,1189.33 1144.21,1189.33 1146.37,1189.33 1148.53,1189.33 1150.7,1189.33 1152.86,1189.33 1155.02,1189.33 1157.18,1189.33 1159.34,1189.33 1161.51,1189.33 1163.67,1189.33 1165.83,1189.33 1167.99,1189.33 1170.15,1189.33 1172.32,1189.33 1174.48,1189.33 1176.64,1189.33 1178.8,1189.33 1180.96,1189.33 1183.13,1189.33 1185.29,1189.33 1187.45,1189.33 1189.61,1189.33 1191.77,1189.33 1193.94,1189.33 1196.1,1189.33 1198.26,1189.33 1200.42,1189.33 1202.58,1189.33 1204.75,1189.33 1206.91,1189.33 1209.07,1189.33 1211.23,1189.33 1213.39,1189.33 1215.56,1189.33 1217.72,1189.33 1219.88,1189.33 1222.04,1189.33 1224.2,1189.33 1226.37,1189.33 1228.53,1189.33 1230.69,1189.33 1232.85,1189.33 1235.01,1189.33 1237.18,1189.33 1239.34,1189.33 1241.5,1189.33 1243.66,1189.33 1245.82,1189.33 1247.99,1189.33 1250.15,1189.33 1252.31,1189.33 1254.47,1189.33 1256.63,1189.33 1258.8,1189.33 1260.96,1189.33 1263.12,1189.33 1265.28,1189.33 1267.44,1189.33 1269.61,1189.33 1271.77,1189.33 1273.93,796.473 1276.09,796.473 1278.25,796.473 1280.42,796.473 1282.58,796.473 1284.74,796.473 1286.9,796.473 1289.06,796.473 1291.23,796.473 1293.39,796.473 1295.55,796.473 1297.71,796.473 1299.87,796.473 1302.03,796.473 1304.2,796.473 1306.36,796.473 1308.52,796.473 1310.68,796.473 1312.84,796.473 1315.01,796.473 1317.17,796.473 1319.33,796.473 1321.49,796.473 1323.65,796.473 1325.82,796.473 1327.98,796.473 1330.14,796.473 1332.3,796.473 1334.46,796.473 1336.63,796.473 1338.79,796.473 1340.95,796.473 1343.11,796.473 1345.27,796.473 1347.44,796.473 1349.6,796.473 1351.76,796.473 1353.92,796.473 1356.08,796.473 1358.25,796.473 1360.41,796.473 1362.57,796.473 1364.73,796.473 1366.89,796.473 1369.06,796.473 1371.22,796.473 1373.38,796.473 1375.54,796.473 1377.7,796.473 1379.87,796.473 1382.03,796.473 1384.19,796.473 1386.35,796.473 1388.51,796.473 1390.68,796.473 1392.84,796.473 1395,796.473 1397.16,796.473 1399.32,796.473 1401.49,796.473 1403.65,796.473 1405.81,796.473 1407.97,796.473 1410.13,796.473 1412.3,796.473 1414.46,796.473 1416.62,796.473 1418.78,796.473 1420.94,796.473 1423.11,796.473 1425.27,796.473 1427.43,796.473 1429.59,796.473 1431.75,796.473 1433.92,796.473 1436.08,796.473 1438.24,796.473 1440.4,796.473 1442.56,796.473 1444.73,796.473 1446.89,796.473 1449.05,796.473 1451.21,796.473 1453.37,796.473 1455.54,796.473 1457.7,796.473 1459.86,796.473 1462.02,796.473 1464.18,796.473 1466.35,796.473 1468.51,796.473 1470.67,796.473 1472.83,796.473 1474.99,796.473 1477.16,796.473 1479.32,796.473 1481.48,796.473 1483.64,796.473 1485.8,796.473 1487.97,796.473 1490.13,1384.24 1492.29,1384.24 1494.45,1384.24 1496.61,1384.24 1498.77,1384.24 1500.94,1384.24 1503.1,1384.24 1505.26,1384.24 1507.42,1384.24 1509.58,1384.24 1511.75,1384.24 1513.91,1384.24 1516.07,1384.24 1518.23,1384.24 1520.39,1384.24 1522.56,1384.24 1524.72,1384.24 1526.88,1384.24 1529.04,1384.24 1531.2,1384.24 1533.37,1384.24 1535.53,1384.24 1537.69,1384.24 1539.85,1384.24 1542.01,1384.24 1544.18,1384.24 1546.34,1384.24 1548.5,1384.24 1550.66,1384.24 1552.82,1384.24 1554.99,1384.24 1557.15,1384.24 1559.31,1384.24 1561.47,1384.24 1563.63,1384.24 1565.8,1384.24 1567.96,1384.24 1570.12,1384.24 1572.28,1384.24 1574.44,1384.24 1576.61,1384.24 1578.77,1384.24 1580.93,1384.24 1583.09,1384.24 1585.25,1384.24 1587.42,1384.24 1589.58,1384.24 1591.74,1384.24 1593.9,1384.24 1596.06,1384.24 1598.23,1384.24 1600.39,1384.24 1602.55,1384.24 1604.71,1384.24 1606.87,1384.24 1609.04,1384.24 1611.2,1384.24 1613.36,1384.24 1615.52,1384.24 1617.68,1384.24 1619.85,1384.24 1622.01,1384.24 1624.17,1384.24 1626.33,1384.24 1628.49,1384.24 1630.66,1384.24 1632.82,1384.24 1634.98,1384.24 1637.14,1384.24 1639.3,1384.24 1641.47,1384.24 1643.63,1384.24 1645.79,1384.24 1647.95,1384.24 1650.11,1384.24 1652.28,1384.24 1654.44,1384.24 1656.6,1384.24 1658.76,1384.24 1660.92,1384.24 1663.09,1384.24 1665.25,1384.24 1667.41,1384.24 1669.57,1384.24 1671.73,1384.24 1673.9,1384.24 1676.06,1384.24 1678.22,1384.24 1680.38,1384.24 1682.54,1384.24 1684.7,1384.24 1686.87,1384.24 1689.03,1384.24 1691.19,1384.24 1693.35,1384.24 1695.51,1384.24 1697.68,1384.24 1699.84,1384.24 1702,1384.24 1704.16,1384.24 1706.32,935.966 1708.49,935.966 1710.65,935.966 1712.81,935.966 1714.97,935.966 1717.13,935.966 1719.3,935.966 1721.46,935.966 1723.62,935.966 1725.78,935.966 1727.94,935.966 1730.11,935.966 1732.27,935.966 1734.43,935.966 1736.59,935.966 1738.75,935.966 1740.92,935.966 1743.08,935.966 1745.24,935.966 1747.4,935.966 1749.56,935.966 1751.73,935.966 1753.89,935.966 1756.05,935.966 1758.21,935.966 1760.37,935.966 1762.54,935.966 1764.7,935.966 1766.86,935.966 1769.02,935.966 1771.18,935.966 1773.35,935.966 1775.51,935.966 1777.67,935.966 1779.83,935.966 1781.99,935.966 1784.16,935.966 1786.32,935.966 1788.48,935.966 1790.64,935.966 1792.8,935.966 1794.97,935.966 1797.13,935.966 1799.29,935.966 1801.45,935.966 1803.61,935.966 1805.78,935.966 1807.94,935.966 1810.1,935.966 1812.26,935.966 1814.42,935.966 1816.59,935.966 1818.75,935.966 1820.91,935.966 1823.07,935.966 1825.23,935.966 1827.4,935.966 1829.56,935.966 1831.72,935.966 1833.88,935.966 1836.04,935.966 1838.21,935.966 1840.37,935.966 1842.53,935.966 1844.69,935.966 1846.85,935.966 1849.02,935.966 1851.18,935.966 1853.34,935.966 1855.5,935.966 1857.66,935.966 1859.83,935.966 1861.99,935.966 1864.15,935.966 1866.31,935.966 1868.47,935.966 1870.63,935.966 1872.8,935.966 1874.96,935.966 1877.12,935.966 1879.28,935.966 1881.44,935.966 1883.61,935.966 1885.77,935.966 1887.93,935.966 1890.09,935.966 1892.25,935.966 1894.42,935.966 1896.58,935.966 1898.74,935.966 1900.9,935.966 1903.06,935.966 1905.23,935.966 1907.39,935.966 1909.55,935.966 1911.71,935.966 1913.87,935.966 1916.04,935.966 1918.2,935.966 1920.36,935.966 1922.52,952.711 1924.68,952.711 1926.85,952.711 1929.01,952.711 1931.17,952.711 1933.33,952.711 1935.49,952.711 1937.66,952.711 1939.82,952.711 1941.98,952.711 1944.14,952.711 1946.3,952.711 1948.47,952.711 1950.63,952.711 1952.79,952.711 1954.95,952.711 1957.11,952.711 1959.28,952.711 1961.44,952.711 1963.6,952.711 1965.76,952.711 1967.92,952.711 1970.09,952.711 1972.25,952.711 1974.41,952.711 1976.57,952.711 1978.73,952.711 1980.9,952.711 1983.06,952.711 1985.22,952.711 1987.38,952.711 1989.54,952.711 1991.71,952.711 1993.87,952.711 1996.03,952.711 1998.19,952.711 2000.35,952.711 2002.52,952.711 2004.68,952.711 2006.84,952.711 2009,952.711 2011.16,952.711 2013.33,952.711 2015.49,952.711 2017.65,952.711 2019.81,952.711 2021.97,952.711 2024.14,952.711 2026.3,952.711 2028.46,952.711 2030.62,952.711 2032.78,952.711 2034.95,952.711 2037.11,952.711 2039.27,952.711 2041.43,952.711 2043.59,952.711 2045.76,952.711 2047.92,952.711 2050.08,952.711 2052.24,952.711 2054.4,952.711 2056.57,952.711 2058.73,952.711 2060.89,952.711 2063.05,952.711 2065.21,952.711 2067.37,952.711 2069.54,952.711 2071.7,952.711 2073.86,952.711 2076.02,952.711 2078.18,952.711 2080.35,952.711 2082.51,952.711 2084.67,952.711 2086.83,952.711 2088.99,952.711 2091.16,952.711 2093.32,952.711 2095.48,952.711 2097.64,952.711 2099.8,952.711 2101.97,952.711 2104.13,952.711 2106.29,952.711 2108.45,952.711 2110.61,952.711 2112.78,952.711 2114.94,952.711 2117.1,952.711 2119.26,952.711 2121.42,952.711 2123.59,952.711 2125.75,952.711 2127.91,952.711 2130.07,952.711 2132.23,952.711 2134.4,952.711 2136.56,952.711 2138.72,436.42 2140.88,436.42 2143.04,436.42 2145.21,436.42 2147.37,436.42 2149.53,436.42 2151.69,436.42 2153.85,436.42 2156.02,436.42 2158.18,436.42 2160.34,436.42 2162.5,436.42 2164.66,436.42 2166.83,436.42 2168.99,436.42 2171.15,436.42 2173.31,436.42 2175.47,436.42 2177.64,436.42 2179.8,436.42 2181.96,436.42 2184.12,436.42 2186.28,436.42 2188.45,436.42 2190.61,436.42 2192.77,436.42 2194.93,436.42 2197.09,436.42 2199.26,436.42 2201.42,436.42 2203.58,436.42 2205.74,436.42 2207.9,436.42 2210.07,436.42 2212.23,436.42 2214.39,436.42 2216.55,436.42 2218.71,436.42 2220.88,436.42 2223.04,436.42 2225.2,436.42 2227.36,436.42 2229.52,436.42 2231.69,436.42 2233.85,436.42 2236.01,436.42 2238.17,436.42 2240.33,436.42 2242.5,436.42 2244.66,436.42 2246.82,436.42 2248.98,436.42 2251.14,436.42 2253.3,436.42 2255.47,436.42 2257.63,436.42 2259.79,436.42 2261.95,436.42 2264.11,436.42 2266.28,436.42 2268.44,436.42 2270.6,436.42 2272.76,436.42 2274.92,436.42 2277.09,436.42 2279.25,436.42 2281.41,436.42 2283.57,436.42 2285.73,436.42 2287.9,436.42 2290.06,436.42 2292.22,436.42 2294.38,436.42 2296.54,436.42 2298.71,436.42 2300.87,436.42 2303.03,436.42 2305.19,436.42 2307.35,436.42 2309.52,436.42 2311.68,436.42 2313.84,436.42 2316,436.42 2318.16,436.42 2320.33,436.42 2322.49,436.42 2324.65,436.42 2326.81,436.42 2328.97,436.42 2331.14,436.42 2333.3,436.42 2335.46,436.42 2337.62,436.42 2339.78,436.42 2341.95,436.42 2344.11,436.42 2346.27,436.42 2348.43,436.42 2350.59,436.42 2352.76,436.42 "/>
<path clip-path="url(#clip810)" d="M2039.64 248.629 L2280.76 248.629 L2280.76 93.1086 L2039.64 93.1086  Z" fill="#ffffff" fill-rule="evenodd" fill-opacity="1"/>
<polyline clip-path="url(#clip810)" style="stroke:#000000; stroke-linecap:round; stroke-linejoin:round; stroke-width:4; stroke-opacity:1; fill:none" points="2039.64,248.629 2280.76,248.629 2280.76,93.1086 2039.64,93.1086 2039.64,248.629 "/>
<polyline clip-path="url(#clip810)" style="stroke:#009af9; stroke-linecap:round; stroke-linejoin:round; stroke-width:4; stroke-opacity:1; fill:none" points="2063.64,144.949 2207.63,144.949 "/>
<path clip-path="url(#clip810)" d="M2256.28 136.303 L2246.9 148.919 L2256.76 162.229 L2251.74 162.229 L2244.19 152.043 L2236.65 162.229 L2231.63 162.229 L2241.69 148.664 L2232.48 136.303 L2237.5 136.303 L2244.38 145.539 L2251.25 136.303 L2256.28 136.303 Z" fill="#000000" fill-rule="nonzero" fill-opacity="1" /><polyline clip-path="url(#clip810)" style="stroke:#e26f46; stroke-linecap:round; stroke-linejoin:round; stroke-width:4; stroke-opacity:1; fill:none" points="2063.64,196.789 2207.63,196.789 "/>
<path clip-path="url(#clip810)" d="M2248.13 178.05 L2248.13 181.592 L2244.06 181.592 Q2241.76 181.592 2240.86 182.518 Q2239.98 183.444 2239.98 185.851 L2239.98 188.143 L2247 188.143 L2247 191.453 L2239.98 191.453 L2239.98 214.069 L2235.7 214.069 L2235.7 191.453 L2231.63 191.453 L2231.63 188.143 L2235.7 188.143 L2235.7 186.337 Q2235.7 182.009 2237.71 180.041 Q2239.73 178.05 2244.1 178.05 L2248.13 178.05 Z" fill="#000000" fill-rule="nonzero" fill-opacity="1" /></svg>
