<?xml version="1.0" encoding="utf-8"?>
<svg xmlns="http://www.w3.org/2000/svg" xmlns:xlink="http://www.w3.org/1999/xlink" width="600" height="400" viewBox="0 0 2400 1600">
<defs>
  <clipPath id="clip770">
    <rect x="0" y="0" width="2400" height="1600"/>
  </clipPath>
</defs>
<path clip-path="url(#clip770)" d="M0 1600 L2400 1600 L2400 0 L0 0  Z" fill="#ffffff" fill-rule="evenodd" fill-opacity="1"/>
<defs>
  <clipPath id="clip771">
    <rect x="480" y="0" width="1681" height="1600"/>
  </clipPath>
</defs>
<defs>
  <clipPath id="clip772">
    <rect x="155" y="47" width="2198" height="1440"/>
  </clipPath>
</defs>
<path clip-path="url(#clip772)" d="M-1096.88 2560.64 L-1096.88 2280.09 L-961.149 2139.81 L-726.05 2220.8 L-726.05 2501.35 L-861.784 2641.63 L-1096.88 2560.64  Z" fill="#ffffff" fill-rule="evenodd" fill-opacity="1"/>
<polyline clip-path="url(#clip772)" style="stroke:#000000; stroke-linecap:round; stroke-linejoin:round; stroke-width:2; stroke-opacity:0.1; fill:none" points="689.816,1203.57 1105.28,843.772 1105.28,124.17 "/>
<polyline clip-path="url(#clip772)" style="stroke:#000000; stroke-linecap:round; stroke-linejoin:round; stroke-width:2; stroke-opacity:0.1; fill:none" points="807.366,1237.51 1222.83,877.706 1222.83,158.104 "/>
<polyline clip-path="url(#clip772)" style="stroke:#000000; stroke-linecap:round; stroke-linejoin:round; stroke-width:2; stroke-opacity:0.1; fill:none" points="924.915,1271.44 1340.38,911.639 1340.38,192.038 "/>
<polyline clip-path="url(#clip772)" style="stroke:#000000; stroke-linecap:round; stroke-linejoin:round; stroke-width:2; stroke-opacity:0.1; fill:none" points="1042.46,1305.37 1457.93,945.573 1457.93,225.971 "/>
<polyline clip-path="url(#clip772)" style="stroke:#000000; stroke-linecap:round; stroke-linejoin:round; stroke-width:2; stroke-opacity:0.1; fill:none" points="1160.01,1339.31 1575.48,979.507 1575.48,259.905 "/>
<polyline clip-path="url(#clip772)" style="stroke:#000000; stroke-linecap:round; stroke-linejoin:round; stroke-width:2; stroke-opacity:0.1; fill:none" points="1277.56,1373.24 1693.03,1013.44 1693.03,293.838 "/>
<polyline clip-path="url(#clip772)" style="stroke:#000000; stroke-linecap:round; stroke-linejoin:round; stroke-width:2; stroke-opacity:0.1; fill:none" points="1395.11,1407.17 1810.58,1047.37 1810.58,327.772 "/>
<polyline clip-path="url(#clip772)" style="stroke:#000000; stroke-linecap:round; stroke-linejoin:round; stroke-width:2; stroke-opacity:0.1; fill:none" points="1469.25,1355.92 749.646,1148.19 749.646,428.592 "/>
<polyline clip-path="url(#clip772)" style="stroke:#000000; stroke-linecap:round; stroke-linejoin:round; stroke-width:2; stroke-opacity:0.1; fill:none" points="1550.24,1285.79 830.635,1078.05 830.635,358.453 "/>
<polyline clip-path="url(#clip772)" style="stroke:#000000; stroke-linecap:round; stroke-linejoin:round; stroke-width:2; stroke-opacity:0.1; fill:none" points="1631.23,1215.65 911.625,1007.92 911.625,288.314 "/>
<polyline clip-path="url(#clip772)" style="stroke:#000000; stroke-linecap:round; stroke-linejoin:round; stroke-width:2; stroke-opacity:0.1; fill:none" points="1712.22,1145.51 992.614,937.777 992.614,218.175 "/>
<polyline clip-path="url(#clip772)" style="stroke:#000000; stroke-linecap:round; stroke-linejoin:round; stroke-width:2; stroke-opacity:0.1; fill:none" points="1793.21,1075.37 1073.6,867.638 1073.6,148.036 "/>
<polyline clip-path="url(#clip772)" style="stroke:#000000; stroke-linecap:round; stroke-linejoin:round; stroke-width:2; stroke-opacity:0.1; fill:none" points="686.728,1159.25 1102.19,799.448 1821.79,1007.18 "/>
<polyline clip-path="url(#clip772)" style="stroke:#000000; stroke-linecap:round; stroke-linejoin:round; stroke-width:2; stroke-opacity:0.1; fill:none" points="686.728,1011.45 1102.19,651.648 1821.79,859.379 "/>
<polyline clip-path="url(#clip772)" style="stroke:#000000; stroke-linecap:round; stroke-linejoin:round; stroke-width:2; stroke-opacity:0.1; fill:none" points="686.728,863.648 1102.19,503.847 1821.79,711.579 "/>
<polyline clip-path="url(#clip772)" style="stroke:#000000; stroke-linecap:round; stroke-linejoin:round; stroke-width:2; stroke-opacity:0.1; fill:none" points="686.728,715.848 1102.19,356.047 1821.79,563.779 "/>
<polyline clip-path="url(#clip772)" style="stroke:#000000; stroke-linecap:round; stroke-linejoin:round; stroke-width:2; stroke-opacity:0.1; fill:none" points="686.728,568.048 1102.19,208.247 1821.79,415.979 "/>
<polyline clip-path="url(#clip770)" style="stroke:#000000; stroke-linecap:round; stroke-linejoin:round; stroke-width:4; stroke-opacity:1; fill:none" points="686.728,1202.68 1406.33,1410.41 "/>
<polyline clip-path="url(#clip770)" style="stroke:#000000; stroke-linecap:round; stroke-linejoin:round; stroke-width:4; stroke-opacity:1; fill:none" points="689.816,1203.57 694.802,1199.26 "/>
<polyline clip-path="url(#clip770)" style="stroke:#000000; stroke-linecap:round; stroke-linejoin:round; stroke-width:4; stroke-opacity:1; fill:none" points="807.366,1237.51 812.351,1233.19 "/>
<polyline clip-path="url(#clip770)" style="stroke:#000000; stroke-linecap:round; stroke-linejoin:round; stroke-width:4; stroke-opacity:1; fill:none" points="924.915,1271.44 929.901,1267.12 "/>
<polyline clip-path="url(#clip770)" style="stroke:#000000; stroke-linecap:round; stroke-linejoin:round; stroke-width:4; stroke-opacity:1; fill:none" points="1042.46,1305.37 1047.45,1301.06 "/>
<polyline clip-path="url(#clip770)" style="stroke:#000000; stroke-linecap:round; stroke-linejoin:round; stroke-width:4; stroke-opacity:1; fill:none" points="1160.01,1339.31 1165,1334.99 "/>
<polyline clip-path="url(#clip770)" style="stroke:#000000; stroke-linecap:round; stroke-linejoin:round; stroke-width:4; stroke-opacity:1; fill:none" points="1277.56,1373.24 1282.55,1368.92 "/>
<polyline clip-path="url(#clip770)" style="stroke:#000000; stroke-linecap:round; stroke-linejoin:round; stroke-width:4; stroke-opacity:1; fill:none" points="1395.11,1407.17 1400.1,1402.86 "/>
<path clip-path="url(#clip770)" d="M673.306 1229.45 Q676.663 1230.17 678.538 1232.43 Q680.436 1234.7 680.436 1238.04 Q680.436 1243.15 676.917 1245.95 Q673.399 1248.75 666.917 1248.75 Q664.741 1248.75 662.427 1248.31 Q660.135 1247.9 657.681 1247.04 L657.681 1242.53 Q659.626 1243.66 661.94 1244.24 Q664.255 1244.82 666.778 1244.82 Q671.177 1244.82 673.468 1243.08 Q675.783 1241.35 675.783 1238.04 Q675.783 1234.98 673.63 1233.27 Q671.501 1231.53 667.681 1231.53 L663.653 1231.53 L663.653 1227.69 L667.866 1227.69 Q671.315 1227.69 673.144 1226.32 Q674.973 1224.93 674.973 1222.34 Q674.973 1219.68 673.075 1218.27 Q671.2 1216.83 667.681 1216.83 Q665.76 1216.83 663.561 1217.25 Q661.362 1217.67 658.723 1218.55 L658.723 1214.38 Q661.385 1213.64 663.7 1213.27 Q666.038 1212.9 668.098 1212.9 Q673.422 1212.9 676.524 1215.33 Q679.626 1217.74 679.626 1221.86 Q679.626 1224.73 677.982 1226.72 Q676.339 1228.68 673.306 1229.45 Z" fill="#000000" fill-rule="nonzero" fill-opacity="1" /><path clip-path="url(#clip770)" d="M788.402 1251.53 L776.596 1269.98 L788.402 1269.98 L788.402 1251.53 M787.175 1247.46 L793.055 1247.46 L793.055 1269.98 L797.985 1269.98 L797.985 1273.87 L793.055 1273.87 L793.055 1282.02 L788.402 1282.02 L788.402 1273.87 L772.8 1273.87 L772.8 1269.35 L787.175 1247.46 Z" fill="#000000" fill-rule="nonzero" fill-opacity="1" /><path clip-path="url(#clip770)" d="M894.632 1281.39 L912.989 1281.39 L912.989 1285.33 L898.915 1285.33 L898.915 1293.8 Q899.933 1293.45 900.952 1293.29 Q901.97 1293.1 902.989 1293.1 Q908.776 1293.1 912.155 1296.27 Q915.535 1299.45 915.535 1304.86 Q915.535 1310.44 912.063 1313.54 Q908.59 1316.62 902.271 1316.62 Q900.095 1316.62 897.827 1316.25 Q895.581 1315.88 893.174 1315.14 L893.174 1310.44 Q895.257 1311.58 897.479 1312.13 Q899.702 1312.69 902.178 1312.69 Q906.183 1312.69 908.521 1310.58 Q910.859 1308.47 910.859 1304.86 Q910.859 1301.25 908.521 1299.14 Q906.183 1297.04 902.178 1297.04 Q900.303 1297.04 898.428 1297.45 Q896.577 1297.87 894.632 1298.75 L894.632 1281.39 Z" fill="#000000" fill-rule="nonzero" fill-opacity="1" /><path clip-path="url(#clip770)" d="M1021.56 1330.74 Q1018.41 1330.74 1016.56 1332.89 Q1014.73 1335.05 1014.73 1338.8 Q1014.73 1342.52 1016.56 1344.7 Q1018.41 1346.85 1021.56 1346.85 Q1024.7 1346.85 1026.53 1344.7 Q1028.39 1342.52 1028.39 1338.8 Q1028.39 1335.05 1026.53 1332.89 Q1024.7 1330.74 1021.56 1330.74 M1030.84 1316.09 L1030.84 1320.35 Q1029.08 1319.51 1027.27 1319.07 Q1025.49 1318.63 1023.73 1318.63 Q1019.1 1318.63 1016.65 1321.76 Q1014.22 1324.88 1013.87 1331.2 Q1015.24 1329.19 1017.3 1328.12 Q1019.36 1327.04 1021.83 1327.04 Q1027.04 1327.04 1030.05 1330.21 Q1033.08 1333.36 1033.08 1338.8 Q1033.08 1344.12 1029.94 1347.34 Q1026.79 1350.55 1021.56 1350.55 Q1015.56 1350.55 1012.39 1345.97 Q1009.22 1341.37 1009.22 1332.64 Q1009.22 1324.44 1013.11 1319.58 Q1017 1314.7 1023.55 1314.7 Q1025.31 1314.7 1027.09 1315.05 Q1028.89 1315.39 1030.84 1316.09 Z" fill="#000000" fill-rule="nonzero" fill-opacity="1" /><path clip-path="url(#clip770)" d="M1128.41 1349.26 L1150.63 1349.26 L1150.63 1351.25 L1138.09 1383.82 L1133.2 1383.82 L1145.01 1353.19 L1128.41 1353.19 L1128.41 1349.26 Z" fill="#000000" fill-rule="nonzero" fill-opacity="1" /><path clip-path="url(#clip770)" d="M1256.33 1401.34 Q1253 1401.34 1251.08 1403.12 Q1249.18 1404.9 1249.18 1408.03 Q1249.18 1411.15 1251.08 1412.94 Q1253 1414.72 1256.33 1414.72 Q1259.66 1414.72 1261.59 1412.94 Q1263.51 1411.13 1263.51 1408.03 Q1263.51 1404.9 1261.59 1403.12 Q1259.69 1401.34 1256.33 1401.34 M1251.66 1399.35 Q1248.65 1398.61 1246.96 1396.55 Q1245.29 1394.49 1245.29 1391.52 Q1245.29 1387.38 1248.23 1384.97 Q1251.19 1382.57 1256.33 1382.57 Q1261.49 1382.57 1264.43 1384.97 Q1267.37 1387.38 1267.37 1391.52 Q1267.37 1394.49 1265.68 1396.55 Q1264.02 1398.61 1261.03 1399.35 Q1264.41 1400.14 1266.29 1402.43 Q1268.18 1404.72 1268.18 1408.03 Q1268.18 1413.05 1265.1 1415.74 Q1262.05 1418.42 1256.33 1418.42 Q1250.61 1418.42 1247.54 1415.74 Q1244.48 1413.05 1244.48 1408.03 Q1244.48 1404.72 1246.38 1402.43 Q1248.28 1400.14 1251.66 1399.35 M1249.94 1391.96 Q1249.94 1394.65 1251.61 1396.15 Q1253.3 1397.66 1256.33 1397.66 Q1259.34 1397.66 1261.03 1396.15 Q1262.74 1394.65 1262.74 1391.96 Q1262.74 1389.28 1261.03 1387.77 Q1259.34 1386.27 1256.33 1386.27 Q1253.3 1386.27 1251.61 1387.77 Q1249.94 1389.28 1249.94 1391.96 Z" fill="#000000" fill-rule="nonzero" fill-opacity="1" /><path clip-path="url(#clip770)" d="M1364.11 1450.97 L1364.11 1446.71 Q1365.87 1447.54 1367.68 1447.98 Q1369.48 1448.42 1371.22 1448.42 Q1375.85 1448.42 1378.28 1445.32 Q1380.73 1442.19 1381.08 1435.85 Q1379.74 1437.84 1377.68 1438.91 Q1375.62 1439.97 1373.12 1439.97 Q1367.93 1439.97 1364.9 1436.85 Q1361.89 1433.7 1361.89 1428.26 Q1361.89 1422.93 1365.04 1419.72 Q1368.19 1416.5 1373.42 1416.5 Q1379.41 1416.5 1382.56 1421.11 Q1385.73 1425.69 1385.73 1434.44 Q1385.73 1442.61 1381.84 1447.49 Q1377.98 1452.36 1371.43 1452.36 Q1369.67 1452.36 1367.86 1452.01 Q1366.06 1451.66 1364.11 1450.97 M1373.42 1436.31 Q1376.57 1436.31 1378.39 1434.16 Q1380.25 1432.01 1380.25 1428.26 Q1380.25 1424.53 1378.39 1422.38 Q1376.57 1420.2 1373.42 1420.2 Q1370.27 1420.2 1368.42 1422.38 Q1366.59 1424.53 1366.59 1428.26 Q1366.59 1432.01 1368.42 1434.16 Q1370.27 1436.31 1373.42 1436.31 Z" fill="#000000" fill-rule="nonzero" fill-opacity="1" /><polyline clip-path="url(#clip770)" style="stroke:#000000; stroke-linecap:round; stroke-linejoin:round; stroke-width:4; stroke-opacity:1; fill:none" points="1406.33,1410.41 1821.79,1050.61 "/>
<polyline clip-path="url(#clip770)" style="stroke:#000000; stroke-linecap:round; stroke-linejoin:round; stroke-width:4; stroke-opacity:1; fill:none" points="1469.25,1355.92 1460.61,1353.43 "/>
<polyline clip-path="url(#clip770)" style="stroke:#000000; stroke-linecap:round; stroke-linejoin:round; stroke-width:4; stroke-opacity:1; fill:none" points="1550.24,1285.79 1541.6,1283.29 "/>
<polyline clip-path="url(#clip770)" style="stroke:#000000; stroke-linecap:round; stroke-linejoin:round; stroke-width:4; stroke-opacity:1; fill:none" points="1631.23,1215.65 1622.59,1213.15 "/>
<polyline clip-path="url(#clip770)" style="stroke:#000000; stroke-linecap:round; stroke-linejoin:round; stroke-width:4; stroke-opacity:1; fill:none" points="1712.22,1145.51 1703.58,1143.02 "/>
<polyline clip-path="url(#clip770)" style="stroke:#000000; stroke-linecap:round; stroke-linejoin:round; stroke-width:4; stroke-opacity:1; fill:none" points="1793.21,1075.37 1784.57,1072.88 "/>
<path clip-path="url(#clip770)" d="M1505.55 1362.75 L1493.74 1381.19 L1505.55 1381.19 L1505.55 1362.75 M1504.32 1358.67 L1510.2 1358.67 L1510.2 1381.19 L1515.13 1381.19 L1515.13 1385.08 L1510.2 1385.08 L1510.2 1393.23 L1505.55 1393.23 L1505.55 1385.08 L1489.94 1385.08 L1489.94 1380.57 L1504.32 1358.67 Z" fill="#000000" fill-rule="nonzero" fill-opacity="1" /><path clip-path="url(#clip770)" d="M1572.39 1288.53 L1590.75 1288.53 L1590.75 1292.47 L1576.68 1292.47 L1576.68 1300.94 Q1577.69 1300.59 1578.71 1300.43 Q1579.73 1300.25 1580.75 1300.25 Q1586.54 1300.25 1589.92 1303.42 Q1593.3 1306.59 1593.3 1312 Q1593.3 1317.58 1589.82 1320.69 Q1586.35 1323.76 1580.03 1323.76 Q1577.86 1323.76 1575.59 1323.39 Q1573.34 1323.02 1570.93 1322.28 L1570.93 1317.58 Q1573.02 1318.72 1575.24 1319.27 Q1577.46 1319.83 1579.94 1319.83 Q1583.94 1319.83 1586.28 1317.72 Q1588.62 1315.62 1588.62 1312 Q1588.62 1308.39 1586.28 1306.29 Q1583.94 1304.18 1579.94 1304.18 Q1578.06 1304.18 1576.19 1304.6 Q1574.34 1305.01 1572.39 1305.89 L1572.39 1288.53 Z" fill="#000000" fill-rule="nonzero" fill-opacity="1" /><path clip-path="url(#clip770)" d="M1664.26 1233.81 Q1661.11 1233.81 1659.26 1235.96 Q1657.43 1238.12 1657.43 1241.87 Q1657.43 1245.59 1659.26 1247.77 Q1661.11 1249.92 1664.26 1249.92 Q1667.41 1249.92 1669.24 1247.77 Q1671.09 1245.59 1671.09 1241.87 Q1671.09 1238.12 1669.24 1235.96 Q1667.41 1233.81 1664.26 1233.81 M1673.54 1219.16 L1673.54 1223.42 Q1671.78 1222.58 1669.98 1222.14 Q1668.2 1221.7 1666.44 1221.7 Q1661.81 1221.7 1659.35 1224.83 Q1656.92 1227.95 1656.58 1234.27 Q1657.94 1232.26 1660 1231.19 Q1662.06 1230.11 1664.54 1230.11 Q1669.75 1230.11 1672.76 1233.28 Q1675.79 1236.43 1675.79 1241.87 Q1675.79 1247.19 1672.64 1250.41 Q1669.49 1253.62 1664.26 1253.62 Q1658.27 1253.62 1655.1 1249.04 Q1651.92 1244.44 1651.92 1235.71 Q1651.92 1227.51 1655.81 1222.65 Q1659.7 1217.77 1666.25 1217.77 Q1668.01 1217.77 1669.79 1218.12 Q1671.6 1218.46 1673.54 1219.16 Z" fill="#000000" fill-rule="nonzero" fill-opacity="1" /><path clip-path="url(#clip770)" d="M1732.91 1148.25 L1755.14 1148.25 L1755.14 1150.25 L1742.59 1182.81 L1737.71 1182.81 L1749.51 1152.19 L1732.91 1152.19 L1732.91 1148.25 Z" fill="#000000" fill-rule="nonzero" fill-opacity="1" /><path clip-path="url(#clip770)" d="M1825.75 1096.26 Q1822.42 1096.26 1820.5 1098.05 Q1818.6 1099.83 1818.6 1102.95 Q1818.6 1106.08 1820.5 1107.86 Q1822.42 1109.64 1825.75 1109.64 Q1829.09 1109.64 1831.01 1107.86 Q1832.93 1106.06 1832.93 1102.95 Q1832.93 1099.83 1831.01 1098.05 Q1829.11 1096.26 1825.75 1096.26 M1821.08 1094.27 Q1818.07 1093.53 1816.38 1091.47 Q1814.71 1089.41 1814.71 1086.45 Q1814.71 1082.31 1817.65 1079.9 Q1820.62 1077.49 1825.75 1077.49 Q1830.92 1077.49 1833.86 1079.9 Q1836.8 1082.31 1836.8 1086.45 Q1836.8 1089.41 1835.11 1091.47 Q1833.44 1093.53 1830.45 1094.27 Q1833.83 1095.06 1835.71 1097.35 Q1837.61 1099.64 1837.61 1102.95 Q1837.61 1107.98 1834.53 1110.66 Q1831.47 1113.35 1825.75 1113.35 Q1820.04 1113.35 1816.96 1110.66 Q1813.9 1107.98 1813.9 1102.95 Q1813.9 1099.64 1815.8 1097.35 Q1817.7 1095.06 1821.08 1094.27 M1819.37 1086.89 Q1819.37 1089.57 1821.03 1091.08 Q1822.72 1092.58 1825.75 1092.58 Q1828.76 1092.58 1830.45 1091.08 Q1832.17 1089.57 1832.17 1086.89 Q1832.17 1084.2 1830.45 1082.7 Q1828.76 1081.19 1825.75 1081.19 Q1822.72 1081.19 1821.03 1082.7 Q1819.37 1084.2 1819.37 1086.89 Z" fill="#000000" fill-rule="nonzero" fill-opacity="1" /><polyline clip-path="url(#clip770)" style="stroke:#000000; stroke-linecap:round; stroke-linejoin:round; stroke-width:4; stroke-opacity:1; fill:none" points="686.728,1202.68 686.728,483.08 "/>
<polyline clip-path="url(#clip770)" style="stroke:#000000; stroke-linecap:round; stroke-linejoin:round; stroke-width:4; stroke-opacity:1; fill:none" points="686.728,1159.25 691.714,1154.93 "/>
<polyline clip-path="url(#clip770)" style="stroke:#000000; stroke-linecap:round; stroke-linejoin:round; stroke-width:4; stroke-opacity:1; fill:none" points="686.728,1011.45 691.714,1007.13 "/>
<polyline clip-path="url(#clip770)" style="stroke:#000000; stroke-linecap:round; stroke-linejoin:round; stroke-width:4; stroke-opacity:1; fill:none" points="686.728,863.648 691.714,859.331 "/>
<polyline clip-path="url(#clip770)" style="stroke:#000000; stroke-linecap:round; stroke-linejoin:round; stroke-width:4; stroke-opacity:1; fill:none" points="686.728,715.848 691.714,711.531 "/>
<polyline clip-path="url(#clip770)" style="stroke:#000000; stroke-linecap:round; stroke-linejoin:round; stroke-width:4; stroke-opacity:1; fill:none" points="686.728,568.048 691.714,563.731 "/>
<path clip-path="url(#clip770)" d="M601.748 1145.05 Q598.137 1145.05 596.308 1148.61 Q594.503 1152.15 594.503 1159.28 Q594.503 1166.39 596.308 1169.95 Q598.137 1173.5 601.748 1173.5 Q605.382 1173.5 607.188 1169.95 Q609.017 1166.39 609.017 1159.28 Q609.017 1152.15 607.188 1148.61 Q605.382 1145.05 601.748 1145.05 M601.748 1141.34 Q607.558 1141.34 610.614 1145.95 Q613.692 1150.53 613.692 1159.28 Q613.692 1168.01 610.614 1172.62 Q607.558 1177.2 601.748 1177.2 Q595.938 1177.2 592.859 1172.62 Q589.804 1168.01 589.804 1159.28 Q589.804 1150.53 592.859 1145.95 Q595.938 1141.34 601.748 1141.34 Z" fill="#000000" fill-rule="nonzero" fill-opacity="1" /><path clip-path="url(#clip770)" d="M621.91 1170.65 L626.794 1170.65 L626.794 1176.53 L621.91 1176.53 L621.91 1170.65 Z" fill="#000000" fill-rule="nonzero" fill-opacity="1" /><path clip-path="url(#clip770)" d="M637.026 1141.97 L655.382 1141.97 L655.382 1145.9 L641.308 1145.9 L641.308 1154.38 Q642.327 1154.03 643.345 1153.87 Q644.364 1153.68 645.382 1153.68 Q651.169 1153.68 654.549 1156.85 Q657.928 1160.02 657.928 1165.44 Q657.928 1171.02 654.456 1174.12 Q650.984 1177.2 644.664 1177.2 Q642.489 1177.2 640.22 1176.83 Q637.975 1176.46 635.567 1175.72 L635.567 1171.02 Q637.651 1172.15 639.873 1172.71 Q642.095 1173.26 644.572 1173.26 Q648.576 1173.26 650.914 1171.16 Q653.252 1169.05 653.252 1165.44 Q653.252 1161.83 650.914 1159.72 Q648.576 1157.62 644.572 1157.62 Q642.697 1157.62 640.822 1158.03 Q638.97 1158.45 637.026 1159.33 L637.026 1141.97 Z" fill="#000000" fill-rule="nonzero" fill-opacity="1" /><path clip-path="url(#clip770)" d="M591.563 1024.79 L599.202 1024.79 L599.202 998.428 L590.892 1000.09 L590.892 995.835 L599.155 994.169 L603.831 994.169 L603.831 1024.79 L611.47 1024.79 L611.47 1028.73 L591.563 1028.73 L591.563 1024.79 Z" fill="#000000" fill-rule="nonzero" fill-opacity="1" /><path clip-path="url(#clip770)" d="M620.915 1022.85 L625.799 1022.85 L625.799 1028.73 L620.915 1028.73 L620.915 1022.85 Z" fill="#000000" fill-rule="nonzero" fill-opacity="1" /><path clip-path="url(#clip770)" d="M645.984 997.247 Q642.373 997.247 640.544 1000.81 Q638.739 1004.35 638.739 1011.48 Q638.739 1018.59 640.544 1022.15 Q642.373 1025.7 645.984 1025.7 Q649.618 1025.7 651.424 1022.15 Q653.252 1018.59 653.252 1011.48 Q653.252 1004.35 651.424 1000.81 Q649.618 997.247 645.984 997.247 M645.984 993.544 Q651.794 993.544 654.85 998.15 Q657.928 1002.73 657.928 1011.48 Q657.928 1020.21 654.85 1024.82 Q651.794 1029.4 645.984 1029.4 Q640.174 1029.4 637.095 1024.82 Q634.04 1020.21 634.04 1011.48 Q634.04 1002.73 637.095 998.15 Q640.174 993.544 645.984 993.544 Z" fill="#000000" fill-rule="nonzero" fill-opacity="1" /><path clip-path="url(#clip770)" d="M592.558 876.993 L600.197 876.993 L600.197 850.628 L591.887 852.294 L591.887 848.035 L600.151 846.368 L604.827 846.368 L604.827 876.993 L612.466 876.993 L612.466 880.928 L592.558 880.928 L592.558 876.993 Z" fill="#000000" fill-rule="nonzero" fill-opacity="1" /><path clip-path="url(#clip770)" d="M621.91 875.049 L626.794 875.049 L626.794 880.928 L621.91 880.928 L621.91 875.049 Z" fill="#000000" fill-rule="nonzero" fill-opacity="1" /><path clip-path="url(#clip770)" d="M637.026 846.368 L655.382 846.368 L655.382 850.304 L641.308 850.304 L641.308 858.776 Q642.327 858.429 643.345 858.267 Q644.364 858.081 645.382 858.081 Q651.169 858.081 654.549 861.253 Q657.928 864.424 657.928 869.841 Q657.928 875.419 654.456 878.521 Q650.984 881.6 644.664 881.6 Q642.489 881.6 640.22 881.229 Q637.975 880.859 635.567 880.118 L635.567 875.419 Q637.651 876.553 639.873 877.109 Q642.095 877.665 644.572 877.665 Q648.576 877.665 650.914 875.558 Q653.252 873.452 653.252 869.841 Q653.252 866.229 650.914 864.123 Q648.576 862.017 644.572 862.017 Q642.697 862.017 640.822 862.433 Q638.97 862.85 637.026 863.729 L637.026 846.368 Z" fill="#000000" fill-rule="nonzero" fill-opacity="1" /><path clip-path="url(#clip770)" d="M594.78 729.193 L611.1 729.193 L611.1 733.128 L589.156 733.128 L589.156 729.193 Q591.818 726.439 596.401 721.809 Q601.007 717.156 602.188 715.814 Q604.433 713.291 605.313 711.554 Q606.216 709.795 606.216 708.105 Q606.216 705.351 604.271 703.615 Q602.35 701.879 599.248 701.879 Q597.049 701.879 594.595 702.642 Q592.165 703.406 589.387 704.957 L589.387 700.235 Q592.211 699.101 594.665 698.522 Q597.118 697.943 599.155 697.943 Q604.526 697.943 607.72 700.629 Q610.915 703.314 610.915 707.804 Q610.915 709.934 610.104 711.855 Q609.317 713.753 607.211 716.346 Q606.632 717.017 603.53 720.235 Q600.429 723.429 594.78 729.193 Z" fill="#000000" fill-rule="nonzero" fill-opacity="1" /><path clip-path="url(#clip770)" d="M620.915 727.249 L625.799 727.249 L625.799 733.128 L620.915 733.128 L620.915 727.249 Z" fill="#000000" fill-rule="nonzero" fill-opacity="1" /><path clip-path="url(#clip770)" d="M645.984 701.647 Q642.373 701.647 640.544 705.212 Q638.739 708.754 638.739 715.883 Q638.739 722.99 640.544 726.554 Q642.373 730.096 645.984 730.096 Q649.618 730.096 651.424 726.554 Q653.252 722.99 653.252 715.883 Q653.252 708.754 651.424 705.212 Q649.618 701.647 645.984 701.647 M645.984 697.943 Q651.794 697.943 654.85 702.55 Q657.928 707.133 657.928 715.883 Q657.928 724.61 654.85 729.216 Q651.794 733.8 645.984 733.8 Q640.174 733.8 637.095 729.216 Q634.04 724.61 634.04 715.883 Q634.04 707.133 637.095 702.55 Q640.174 697.943 645.984 697.943 Z" fill="#000000" fill-rule="nonzero" fill-opacity="1" /><path clip-path="url(#clip770)" d="M595.776 581.393 L612.095 581.393 L612.095 585.328 L590.151 585.328 L590.151 581.393 Q592.813 578.639 597.396 574.009 Q602.003 569.356 603.183 568.014 Q605.429 565.49 606.308 563.754 Q607.211 561.995 607.211 560.305 Q607.211 557.551 605.267 555.815 Q603.345 554.078 600.243 554.078 Q598.044 554.078 595.591 554.842 Q593.16 555.606 590.382 557.157 L590.382 552.435 Q593.206 551.301 595.66 550.722 Q598.114 550.143 600.151 550.143 Q605.521 550.143 608.716 552.828 Q611.91 555.514 611.91 560.004 Q611.91 562.134 611.1 564.055 Q610.313 565.953 608.206 568.546 Q607.628 569.217 604.526 572.435 Q601.424 575.629 595.776 581.393 Z" fill="#000000" fill-rule="nonzero" fill-opacity="1" /><path clip-path="url(#clip770)" d="M621.91 579.449 L626.794 579.449 L626.794 585.328 L621.91 585.328 L621.91 579.449 Z" fill="#000000" fill-rule="nonzero" fill-opacity="1" /><path clip-path="url(#clip770)" d="M637.026 550.768 L655.382 550.768 L655.382 554.703 L641.308 554.703 L641.308 563.176 Q642.327 562.828 643.345 562.666 Q644.364 562.481 645.382 562.481 Q651.169 562.481 654.549 565.653 Q657.928 568.824 657.928 574.24 Q657.928 579.819 654.456 582.921 Q650.984 586 644.664 586 Q642.489 586 640.22 585.629 Q637.975 585.259 635.567 584.518 L635.567 579.819 Q637.651 580.953 639.873 581.509 Q642.095 582.064 644.572 582.064 Q648.576 582.064 650.914 579.958 Q653.252 577.852 653.252 574.24 Q653.252 570.629 650.914 568.523 Q648.576 566.416 644.572 566.416 Q642.697 566.416 640.822 566.833 Q638.97 567.25 637.026 568.129 L637.026 550.768 Z" fill="#000000" fill-rule="nonzero" fill-opacity="1" /><polyline clip-path="url(#clip772)" style="stroke:#009af9; stroke-linecap:round; stroke-linejoin:round; stroke-width:4; stroke-opacity:1; fill:none" points="1068.82,955.58 1068.24,956.057 1065.49,957.505 1070.03,955.487 1081.93,949.894 1085.2,948.416 1093.62,944.447 1104.93,939.052 1118.13,932.613 1124.25,929.461 1142.49,920.324 1110.71,935.318 1102.47,939.278 1070.31,954.893 1078.41,951.432 1095.21,943.574 1112.09,935.324 1115.44,933.297 1137.69,921.926 1120.1,929.455 1101.74,937.729 1136.85,920.198 1107.23,933.277 1107.49,933.039 1060.9,956.734 1032.73,973.32 1044.64,969.963 1033.4,978.472 1054.52,970.562 1109.62,944.156 1073.89,960.778 1107.01,941.531 1115.95,931.936 1048.68,968.322 1002.05,996.229 1053.31,971.267 973.571,1014.98 1023.08,994.785 1034.46,983.997 1013.95,995.579 1109.98,934.367 1180.08,896.185 1255.09,825.903 1254.9,822.687 1293.99,796.111 1261.39,821.335 1159.69,888.903 1201.01,863.158 1205.66,840.861 1204.96,837.773 1203.25,854.255 1179.55,873.206 1228.54,843.288 1247.36,829.608 1351.12,758.175 1331.17,752.464 1394.21,708.596 1351.07,732.247 1258.15,796.183 1138.82,872.38 1298.61,785.566 1356.82,743.261 1218.84,830.028 1235.49,836.011 1290.93,802.248 1341.76,760.422 1313.25,765.704 1251.02,810.522 1164.1,873.045 1069.76,936.347 1053.48,960.96 1055.54,966.656 1000.57,999.023 1009.19,999.237 1130.85,929.292 1132.19,911.003 1118.8,925.511 1149.86,903.639 1261.88,824.118 1265.28,817.519 1319.81,787.608 1306.21,781.794 1255.49,809.647 1217.1,835.49 1113.58,901.577 1122.46,911.263 1061.63,955.234 1107.34,939.622 1052.15,968.038 1182.69,898.723 1138.93,899.985 1173.32,881.397 1105.54,911.539 1084.19,942.228 1014.12,987.217 1067.97,967.019 999.583,1004.13 965.197,1021.4 901.05,1068.52 890.395,1080.13 842.837,1109.65 796.525,1134.37 793.796,1138.69 887.643,1091.25 825.716,1121.1 775.899,1150.04 793.068,1141.97 759.36,1156.83 838.663,1119.22 827.809,1124.13 718.853,1178.01 792.821,1144.27 847.841,1114.51 856.771,1102.13 923.221,1066.32 992.556,1026.43 904.168,1069.05 859.746,1095.38 936.211,1057.02 956.23,1040.11 984.51,1018.64 1050.99,963.684 1134.78,914.408 1185.15,885.439 1138.05,907.342 1138.41,904.959 1125.21,914.935 1194.88,859.306 1181.88,875.646 1150.37,900.957 1078.26,945.404 1143.68,888.756 1000.73,977.033 1058.46,956.967 1140.38,899.142 1115.4,917.598 1067.77,955.788 1208.02,867.706 1311.61,800.981 1346.94,748.171 1296.79,781.514 1245.12,819.094 1165.18,890.015 1295.76,810.293 1341.24,757.234 1398.86,706.446 1423.45,691.191 1434.22,676.77 1500.31,616.261 1503.89,604.758 1365.02,712.772 1288.18,773.557 1360.92,728.01 1429.64,673.273 1497.63,626.051 1471.63,625.939 1457.26,644.418 1427.8,660.402 1447.7,659.759 1449.07,662.284 1418.99,686.229 1301.89,769.592 1320.47,773.037 1290.11,788.721 1311.2,768.211 1214.62,851.221 1224.75,847.886 1365.42,751.29 1356.02,744.065 1198.81,842.835 1194.73,854.258 1326.98,772.852 1355.21,747.62 1288.73,790.778 1238.1,823.189 1270.56,795.631 1278.14,792.959 1218.5,829.117 1205.23,844.089 1067.47,943.532 1055.9,961.338 1175.25,894.344 1205.34,878.991 1108.18,948.139 1034.88,1005.39 1083.42,962.627 948.023,1047.18 906.871,1068.84 874.258,1090.64 794.357,1137.22 871.123,1101.19 1004.49,1018.73 940.361,1053.18 985.034,1020.64 966.853,1023.82 962.947,1032.57 1001.72,1012.05 981.903,1017.02 957.676,1028.87 990.017,1016.49 958.371,1029.29 1022.09,990.476 1056.26,983.889 1128.61,928.633 1244.17,854.983 1297.36,797.173 1173.68,871.519 1173.83,872.495 1142.35,888.107 1065.09,950.201 999.93,995.133 987.71,1011.36 1043.27,978.458 1096.32,947.828 1077.41,965.814 1201.68,873.198 1229.8,845.432 1238.07,837.582 1186.15,868.439 1091.03,945.304 1046.63,971.084 1048.84,967.483 961.639,1016.84 999.391,1001.41 1046.43,974.596 1028.98,984.78 1050.56,980.969 1022.72,995.584 1139.6,923.599 1197.47,876.322 1194.08,870.691 1168.18,879.106 1213.95,855.04 1195.66,853.854 1211.26,833.688 1329.05,758.159 1428.96,664.955 1429.53,667.495 1401.31,689.896 1426.6,685.132 1475.41,641.62 1432.17,674.854 1436.99,668.911 1394.22,698.582 1379.94,705.088 1369.14,732.809 1299.82,782.102 1316.31,776.214 1282.12,796.226 1287.45,791.779 1361.86,721.073 1216.82,838.191 1276.85,800.738 1188.7,864.592 1274.48,818.4 1196.58,864.763 1188.24,875.235 1146.16,899.148 1190.84,866.706 1143.01,902.831 1181.61,878.442 1206.27,864.397 1213.01,845.605 1203.65,860.604 1069.18,949.657 1171.65,888.814 1251.59,838.235 1193.41,891.669 1048.12,984.018 1044.38,992.678 1028.12,1003.44 1012,1009.17 980.363,1022.85 1017.8,992.706 1075.25,963.605 1162.03,898.564 1083.99,933.705 1115.69,924.626 1071.61,943.182 1111.77,928.149 1101.61,915.309 1088.17,939.973 1239.54,837.296 1212.11,857.119 1176.41,867.368 1283.38,801.662 1234.67,828.158 1277.47,807.325 1387.8,720.596 1320.24,761.599 1278.22,793.329 1237.84,826.957 1265.61,801.658 1303.89,788.698 1266.7,825.617 1263.45,828.169 1222.71,840.676 1240.32,819.272 1411.02,687.88 1241.71,812.029 1168.96,868.183 1171.65,871.009 1314.3,785.388 1264.37,817.394 1300.13,790.417 1325.88,762.909 1285.4,795.515 1218.32,806.058 1164.09,845.571 1129.31,888.801 1221.99,844.626 1116.34,921.214 1136.25,919.378 1172.24,889.552 1131.41,905.109 1115.26,922.499 1107.89,933.069 1169.03,889.508 1144.94,913.731 1179.61,882.402 1190.86,865.247 1209.27,842.611 1217.32,837.97 1233.06,844.166 1350.7,744.524 1261.67,798.402 1305.96,780.773 1247.13,816.51 1255.94,815.604 1299.66,800.992 1319.26,785.468 1258.23,819.582 1277.44,817.898 1333.57,755.265 1420.49,685.276 1430.79,675.156 1412.75,687.931 1415.39,695.683 1416.29,672.163 1389.33,697.059 1401.8,664.603 1486.67,606.584 1355.21,711.728 1470.77,639.475 1461.95,635.779 1465.54,638.232 1385.7,696.055 1366.95,716.191 1283.19,779.256 1260.93,809.397 1328.96,771.887 1298.32,774.507 1223.19,829.409 1238.78,831.299 1252.97,818.761 1226.58,842.753 1287.97,798.438 1310.11,787.635 1284.95,804.754 1279.96,802.287 1252.16,817.57 1239.11,827.818 1171.4,890.153 1173.83,889.545 1070.81,959.63 1121.79,935.085 1171.91,902.871 1293.51,817.815 1271.17,817.566 1340,765.72 1202.28,854.343 1229.59,839.548 1357.6,756.841 1360.9,743.113 1382.33,722.737 1451.39,671.807 1330.5,746.965 1440.5,674.812 1464.5,630.727 1465.05,621.009 1485.79,610.252 1407.83,666.063 1411.75,673.781 1381.31,704.33 1306.72,757.111 1327.17,757.683 1253.45,813.411 1286.37,792.087 1166.31,868.981 1192.41,865.221 1267.31,817.173 1256.9,815.481 1313.03,763.513 1318.45,757.89 1292.19,766.088 1341.3,748.058 1337.28,756.502 1258.42,797.47 1183.79,860.523 1130.03,902.315 1054.92,959.326 1005.85,997.976 1040.34,979.552 1043.03,983.668 1066.86,970.383 1089.72,949.143 1106.24,936.282 1155.49,913.038 1013.18,1006.54 968.199,1031.05 984.104,1024.32 1063.61,983.287 1107.37,937.662 998.441,1003.51 1012.72,999.052 997.661,1006.96 1067.51,961.167 1024.65,989.09 1082.16,959.477 1154.94,899.074 1175.98,878.1 1264.09,820.846 1223.26,856.441 1206.28,870.11 1320.02,781.131 1145.75,887.894 1056.95,956.034 1075.14,953.182 980.819,1002.59 1021,990.306 1011.38,1001.84 989.74,1017.02 925.097,1051.26 875.104,1083.05 879.984,1088.01 841.005,1112.8 832.637,1116.69 912.574,1075.34 871.329,1088.78 925.441,1062.83 986.179,1029.65 961.875,1038.85 928.319,1059.73 972.388,1031.98 1043.76,986.013 1019.49,992.588 1115.52,936.753 1144.62,908.755 1117.19,924.547 1223.49,849.49 1204.86,855.49 1160.63,880.671 1196.68,861.453 1255.88,822.853 1287.2,797.487 1268.52,801.175 1433.03,674.407 1447.5,667.265 1300.67,790.281 1217.22,836.308 1169.49,870.799 1137.33,899.967 1187.58,879.593 1182.8,869.721 1199.46,862.274 1384.88,733.394 1354.29,744.435 1382.08,716.166 1277.48,784.266 1314.37,767.387 1358.96,734.111 1365.23,727.538 1261.65,812.545 1273.44,805.739 1183.1,868.236 1148.55,895.1 1169.95,887.041 1154.14,894.104 1139.18,906.712 1218.91,845.066 1194.37,863.677 1177.73,876.311 1221.8,827.014 1365.22,735.848 1467.35,649.29 1516.1,615.131 1477.89,621.193 1539.69,568.45 1529.43,568.778 1561.41,552.72 1599.17,519.366 1759.23,378.601 1705.22,408.583 1736.93,378.963 1627.53,461.665 1618.82,475.975 1619.24,479.341 1724.16,410.016 1604.3,500.355 1647.75,475.627 1590.58,519.635 1551.61,548.647 1490,596.92 1464.84,621.783 1526.91,587.965 1615.73,525.771 1609.09,511.157 1538.74,562.342 1411.66,659.682 1475.9,630.672 1464.09,640.375 1511.11,594.817 1570.69,556.287 1533.67,568.132 1499.69,599.685 1514.4,601.473 1472.01,630.021 1386.14,698.025 1390.35,702.772 1414.65,696.728 1356.13,736.475 1319.43,763.256 1282.74,793.135 1234.59,832.705 1248.59,823.937 1178.01,870.473 1148.39,897.001 1118.67,924.383 1154.79,902.877 1241.95,847.896 1312.06,788.127 1328.02,766.472 1380.9,719.756 1270.53,785.985 1274.31,783.125 1273.32,782.415 1240.26,808.371 1164.03,872.956 1157.14,890.862 1218.89,849.158 1203.69,858.477 1116.68,926.64 1142.91,909.684 1131.56,916.656 1070.28,948.968 1148.6,910.205 1254,840.145 1159.11,888.089 1209.04,847.937 1349.26,759.841 1373.99,731.572 1468.25,664.847 1529.47,589.022 1486.61,612.554 1438.47,654.314 1362.76,715.469 1274.4,780.056 1231.11,821.987 1263.46,802.11 1256.92,807.57 1246.27,821.603 1332.8,768.429 1446.33,650.95 1439.11,658.484 1435.51,659.497 1406.48,679.523 1493.69,627.782 1421.41,668.375 1386.48,705.025 1395.85,691.123 1303.51,764.798 1226.33,820.526 1283.74,792.874 1256.22,812.865 1248.03,821.601 1334.57,775.378 1381.36,729.08 1436.79,681.45 1323.21,748.307 1362.23,725.286 1394.8,701.344 1397,701.682 1464.98,654.125 1430.54,677.031 1393.28,706.639 1453.67,653.031 1292.85,779.229 1271.82,790.588 1204.15,846.045 1128.58,898.744 1143.8,889.141 1197.8,864.431 1101.49,920.341 1134.84,909.724 1068.84,955.174 1183.48,872.803 1190.4,859.888 1181.89,871.564 1134.72,905.827 1199.31,861.151 1274.91,805.29 1321.98,764.658 1435.9,668.644 1422.45,676.214 1260.45,805.963 1290.09,785.363 1340.09,750.161 1168.86,864.603 1150.63,885.991 1182.33,875.184 1249.1,826.679 1241.65,834.075 1187.99,850.442 1207.52,851.307 1150.68,890.497 1143.87,899.123 1115.21,918.095 1034.68,979.136 1083,951.929 998.546,995.997 1011.84,993.305 1090.93,947.564 1076.52,957.386 1126.85,921.446 1271.64,812.54 1291.15,795.821 1390.3,723.92 1277.74,797.455 1223.66,841.328 1198.85,863.786 1156.91,897.393 1164.83,894.331 1233.7,852.343 1129.17,917.34 1158.95,899.363 1113.11,922.894 1113.65,936.222 1034.4,988.985 1202.27,876.002 1291.66,818.669 1357.73,749.538 1420.54,697.762 1428.42,672.746 1345.57,742.462 1189.16,855.787 1236.04,833.416 1159.3,892.864 1183.21,876.832 1113.6,928.839 1128,921.306 1095.47,932.507 1114.75,922.003 1138.19,910.068 1075.95,960.162 1022.99,990.62 986.593,1000.56 953.28,1035.6 973.68,1032.45 1120.23,940.294 1121.12,933.642 1087.95,950.126 1101.66,935.841 1077.7,949.987 1102.61,939.064 1166.14,891.823 1142.59,913.553 1141.12,918.411 1233.28,848.501 1127.29,903.795 1072.86,939.571 1071.18,953.624 1126.03,920.235 1093.96,944.044 1112.74,936.64 1140.54,913.077 1173.5,884.558 1192.89,863.433 1112.24,935.284 1136.34,923.984 1073.73,973.064 1044.12,982.068 1063.58,966.717 1043.73,989.803 1024.96,998.434 1049.13,993.176 949.401,1052.27 1006.79,1011.71 1024.86,1000.51 984.8,1010.65 1001.46,1008.15 1012.72,1000.04 981.015,1026.99 981.288,1023.98 998.218,1015.75 1026.39,999.876 1151.44,915.211 1134.37,915.183 1237.3,840.066 1302.06,786.334 1315.09,775.341 1338.94,747.417 1215.01,832.526 1299.11,777.908 1361.21,718.965 1325.54,739.759 1448.32,656.075 1481.62,633.961 1460.97,626.442 1369.92,691.512 1428.95,657.885 1371.93,715.163 1352.74,730.936 1345.49,738.858 1412.77,694.807 1322.54,755.483 1390.78,705.842 1306.67,767.662 1393.39,709.194 1503.14,639.818 1517.68,606.825 1529.39,589.983 1465.55,623.488 1562.73,562.823 1563.75,552.14 1402.76,667.61 1559.07,571.206 1466.69,637.815 1362.65,710.707 1497.25,620.388 1350.72,712.322 1237.92,800.56 1360.93,742.555 1316.29,762.22 1334.24,755.423 1411.87,694.012 1456.07,645.575 1532.73,583.133 1549.81,569.846 1613.39,513.242 1711.36,427.234 1645.57,463.295 1616.22,479.309 1650.71,458.359 1477.47,595.683 1392.23,665.107 1372.82,692.479 1408.76,678.971 1438.82,669.718 1446.29,653.81 1337.42,730.762 1358.89,724.834 1308.54,760.358 1244.72,810.037 1266.74,804.573 1363.17,748.482 1331.02,764.587 1411.77,705.748 1315.38,764.169 1305.03,772.712 1293.48,781.205 1300.38,796.578 1286.23,810.093 1156.7,895.151 1146.77,899.469 1199.21,862.366 1274.55,801.116 1167.18,863.928 1107.39,912.671 1045.79,956.884 1016.42,984.13 1003.4,997.324 1006.72,1004.84 922.369,1045.11 937.708,1042.98 1034.35,992.178 981.198,1020.82 988.21,1006.95 898.809,1064.7 884.299,1080.53 894.922,1077.74 872.171,1092.18 830.421,1117.26 844.888,1109.42 799.096,1135.08 938.267,1064.16 873.941,1096.32 902.9,1076.13 879.274,1089.62 949.104,1056.04 971.597,1036.47 1040.88,985.247 1051.06,975.714 1084.8,951.817 1030.25,985.765 1098.96,925.898 1096.15,931.485 1112.49,925.366 1165.85,887.331 1216.29,843.018 1208.68,854.216 1202.16,861.971 1332.54,776.344 1452.73,680.082 1415.59,686.249 1421.23,674.968 1408.21,666.395 1321.5,747.849 1321.16,761.595 1256.77,795.243 1355.89,742.851 1306.32,768.049 1496.63,643.234 1430.66,667.873 1359.9,717.27 1359.52,733.729 1451.97,668.672 1544.69,584.077 1486.52,619.127 1453.09,627.242 1420.36,665.054 1372.82,702.024 1470.36,640.903 1507.99,602.623 1497.23,601.702 1535.72,579.325 1491.21,604.066 1439.74,652.141 1427.28,667.66 1434.93,664.921 1479.87,634.229 1401.68,680.958 1316.65,743.678 1291.92,781.737 1355.88,752.447 1217.04,842.869 1322.97,766.995 1371.75,719.836 1355.82,719.703 1289.3,787.055 1246.45,825.19 1223.75,837.415 1202.65,838.591 1250.1,826.582 1423.64,712.22 1513.2,634.694 1473.36,623.404 1549.63,569.482 1582.62,545.008 1624.19,497.272 1698.42,437.143 1789.67,355.68 1737.92,385.059 1661.36,449.125 1618.95,477.75 1609.43,490.439 1602.55,503.492 1504.7,583.439 1495.05,602.59 1403.2,674.352 1346.04,722.465 1340.96,735.595 1326.74,751.927 1170.49,856.473 1180.86,861.263 1109.05,909.896 1076.35,941.817 1070.25,952.101 1059.11,965.195 1041.89,977.117 1108.56,938.566 1033.56,980.549 1069.02,965.069 1128.42,922.433 1081.62,945.792 1134.6,921.248 1187.74,889.248 1184.77,884.577 1174.56,884.237 1119.32,925.806 1095.44,941.163 1033.28,966.797 958.585,1015.51 1027.14,987.408 1138.47,920.985 1161.43,895.474 1053.68,960.509 1037.82,984.959 967.691,1023.64 869.204,1084.29 921.46,1063.92 844.046,1105.74 854.711,1101.73 825.833,1119.49 903.047,1083.68 937.451,1059.01 925.105,1063.83 852.56,1103.18 807.127,1126.71 767.389,1145.21 783.369,1145.47 840.848,1121.19 879.508,1100.47 876.07,1096.41 868.819,1098.9 868.046,1100.02 927.502,1066 976.252,1036.75 996.28,1018.78 1102.14,958.323 1136.26,924.674 1153.55,902.337 1079.54,946.055 1083.34,953.924 1118.25,933.184 1256.62,829.556 1272.95,806.705 1204.88,852.489 1147.1,894.811 1146.66,900.276 1297.49,799.315 1304.45,782.535 1279.2,794.527 1400.72,710.274 1404.39,702.385 1451.81,660.967 1400.89,689.698 1489.36,624.089 1447.77,639.349 1330.62,734.396 1272.85,786.963 1236.21,810.477 1181.53,861.469 1206.76,857.937 1172.67,881.81 1134.75,911.965 1162.17,901.922 1177.94,885.108 1122.58,915.338 1167.94,888.662 1157.58,891.089 1142.09,903.04 1232.3,841.493 1095.18,932.758 1090.99,928.703 1134.06,906.823 1284.03,803.885 1198.2,868.36 1060.28,943.13 1136.94,899.109 1197.7,857.974 1243.47,822.6 1269.93,791.818 1331.52,749.527 1436.25,681.214 1566.55,580.442 1419.98,699.452 1534.1,578.119 1447.35,655.745 1483.39,613.278 1562.46,564.82 1528.14,555.133 1435.26,636.335 1403.39,662.809 1328.14,731.813 1343.8,732.945 1339.22,743.263 1313.03,763.619 1304.05,772.852 1360.68,745.744 1329.19,776.37 1354.79,740.922 1387.21,709.575 1429.32,682.239 1532.87,611.573 1495.14,597.961 1472.53,621.601 1509.29,594.114 1372.33,699.601 1256.63,794.736 1167.44,866.231 1146.67,888.86 1164.11,887.12 1204.61,862.132 1135.05,903.533 1186.1,875.035 1248.47,839.937 1285.73,800.778 1256.8,821.597 1223.55,834.517 1190.32,859.054 1234.67,838.993 1152.89,886.834 1203.28,861.769 1349.4,757.651 1378.92,728.856 1390.07,710.442 1324.17,753.822 1192.32,853.476 1166.91,877.628 1135.67,908.573 1132,913.078 1225.54,859.234 1233.39,844.764 1312.96,785.294 1263.03,808.269 1223.59,839.996 1310.52,780.883 1366.76,733.362 1491.18,640.211 1535.07,586.314 1422.92,664.314 1413.08,686.127 1275.7,774.122 1267.83,788.014 1363.46,735.641 1219.13,840.126 1188.48,872.971 1247.16,838.649 1177.13,885.068 1125.62,915.593 1213.04,867.416 1257.92,817.236 1146.77,899.261 1230.3,843.714 1172.01,880.317 1218.79,859.896 1176.94,873.917 973.542,1010.86 957.411,1034.07 968.695,1031.96 864.106,1089.45 919.413,1067.33 941.792,1048.47 966.484,1033.82 1000.17,1015.49 992.923,1013.73 1030.96,987.654 1014.82,996.574 1093.65,964.414 1090.16,953.269 1115.61,939.556 1153.98,911.946 1194.86,875.678 1191.31,867.505 1401.81,715.303 1518.37,624.947 1497.76,617.335 1375.24,701.013 1414.64,674.713 1458.78,637.149 1486.27,628.586 1366.09,706.427 1409.99,679.959 1306.98,766.837 1331.49,756.144 1300.55,780.14 1262.75,812.135 1381.88,728.813 1387.52,708.4 1299.3,767.019 1231.26,829.823 1263.51,820.481 1273.15,805.361 1180.98,858.665 1341.81,752.449 1308.31,776.43 1247.68,813.966 1283.94,791.509 1181.41,878.431 1181.41,881.337 1028.01,971.346 1069.13,958.147 1047.97,967.619 1085.21,954.717 1205.2,884.414 1215.62,870.081 1276.27,823.219 1164.29,880.423 1207.02,862.652 1160.07,887.642 1177.71,878.28 1175.75,880.704 1114.03,922.18 931.043,1045.8 976.604,1026.38 1008.26,1002.37 1033.54,997.191 976.526,1026.5 1017.57,1004.29 1024.54,989.728 1086.08,957.206 1137.12,919.592 1080.73,945.465 1044.52,977.275 1072.3,960.988 1029.02,981.47 1155.52,897.788 1174.34,876.301 1294.33,793.448 1332.67,758.7 1372.39,711.51 1263.93,785.332 1266.62,810.918 1328,771.583 1363.2,747.679 1344.52,727.884 1317.34,753.946 1384.44,694.417 1288.95,775.486 1366.72,737.177 1339.98,758.756 1279.53,790.126 1271.31,812.529 1247.66,824.752 1269.44,806.132 1240.08,823.648 1255.89,822.039 1311.6,791.679 1339.59,770.582 1391.56,722.093 1329,751.947 1290.95,786.234 1446.59,674.48 1449.12,661.177 1378.28,703.299 1330.49,742.028 1176.35,855.993 1209.89,848.205 1131.54,902.203 1125.25,918.348 1114.5,926.18 1153.12,909.069 1139.7,914.644 1117.1,923.718 1120.78,922.341 1228.36,845.582 1157.39,888.688 1118.54,893.052 1146.57,887.144 1134.7,905.007 1103.85,927.571 962.766,1021.42 956.376,1026.25 966.251,1035.71 951.367,1040.24 962.408,1035.86 991.535,1013.9 981.362,1021.17 930.259,1054.95 913.394,1061.4 939.948,1039.68 929.041,1050.18 924.001,1057.87 985.38,1029.91 984.344,1022.95 992.484,1012.79 1088.99,949.73 1138.7,919.806 1027.45,985.2 1035.8,987.769 1108.82,957.429 1138.94,933.266 1246.09,847.278 1458.84,692.855 1458.08,666.837 1455.2,656.041 1483.94,632.146 1500.59,604.649 1385.02,695.97 1491.81,636.042 1527.54,586.103 1575.91,544.806 1648.64,455.203 1545.26,524.862 1629.75,476.774 1492.59,579.693 1495.84,596.375 1425.12,655.544 1430.29,662.815 1413.99,681.164 1419.81,680.869 1437.61,664.838 1456.97,648.639 1488.63,623.018 1536.84,578.764 1485.04,628.144 1445.09,656.233 1377.89,705.381 1351.01,728.826 1482.03,652.238 1513.05,617.693 1546.55,579.364 1532.82,596.597 1529.77,588.33 1478.78,613.77 1415.4,672.222 1508.06,616.674 1431.65,666.26 1318.52,746.151 1269.26,794.324 1207.62,842.986 1264.1,821.439 1274.26,811.648 1266.31,811.995 1383,730.556 1268.51,796.391 1314.02,780.224 1244.92,820.797 1197.89,855.792 1276.82,811.028 1269.07,807.303 1281.12,806.118 1312.28,779.491 1293.3,785.843 1410.58,695.164 1291.06,771.135 1308.7,776.241 1305.67,777.685 1154.3,869.981 1166.24,876.535 1103.25,916.656 1145.16,901.007 1192.75,877.617 1070.06,948.15 1144.68,907.451 1182.52,881.084 1197.52,867.584 1291.58,795.436 1184.76,864.629 1185.35,864.023 1232.45,842.97 1233.18,845.029 1365.42,737.873 1325.34,746.971 1381.04,720.24 1334.11,739.637 1257.88,798.111 1279.12,796.064 1238.02,830.858 1193,859.54 1185.48,879.568 1153.42,902.32 1145.42,901.703 1069.46,949.226 1122.95,914.193 1155.42,895.295 1122.67,918.236 1218.76,839.046 1280.4,797.468 1283.23,788.837 1225.02,845.023 1165.29,874.496 1176.09,866.183 1255.54,816.892 1381.77,720.409 1339.77,739.055 1451.28,655.827 1444.97,655.058 1538.71,595.341 1564.87,555.163 1429.13,649.792 1436.38,666.476 1464.61,642.993 1454.9,646.371 1429.1,662.972 1344.55,713.383 1302.83,756.13 1481.33,642.568 1465.45,639.271 1479.36,619.329 1502.16,598.39 1414.61,652.958 1362.87,709.355 1330.1,743.324 1289.26,783.193 1234.06,823.099 1233.3,830.794 1254.76,824.965 1242.94,838.748 1336.25,768.089 1299.45,789.213 1458.53,663.919 1537.65,592.953 1548.69,571.809 1440.81,643.793 1381.61,682.734 1455.36,649.091 1470.27,633.818 1499.81,630.953 1526.63,611.088 1413.41,685.965 1546.51,598.175 1511.57,594.829 1465.56,638.182 1437.79,645.662 1382.98,702.324 1285.39,766.317 1443.5,678.679 1537.41,604.556 1414.17,677.578 1261.22,785.136 1359.82,739.773 1304.51,772.685 1282.82,799.386 1297,788.233 1136.11,893.403 1136.73,897.361 1075.7,939.505 1031.86,974.271 993.498,1001.02 1056.45,972.815 1047.4,979.326 1090.1,949.517 1134.24,919.256 1122.46,916.737 1158.32,894.813 1119.9,915.335 1120.58,918.856 1248.91,841.034 1306.49,776.221 1171.96,863.075 1174.7,871.549 1204.93,854.87 1379.98,748.205 1416.7,707.595 1511.51,627.592 1618.88,526.014 1503.74,587.766 1458.94,623.252 1338.83,715.483 1409.07,679.995 1342.37,722.025 1294.72,767.441 1264.36,797.255 1329.15,764.977 1232.56,823.548 1250.89,822.197 1202.8,851.154 1252.57,825.386 1300,799.055 1148.19,895.329 1211.45,861.723 1249.74,801.635 1263.81,805.046 1235.01,837.84 1293.58,794.145 1307.41,773.218 1431.29,681.593 1452.51,653.596 1352.84,724.706 1491.4,640.646 1541.11,563.425 1445.25,645.02 1381.9,688.66 1387.13,695.744 1330.76,744.494 1360.44,730.696 1307.99,762.802 1516.47,618.716 1512.01,604.045 1318.39,755.001 1278.74,789.912 1281.17,801.588 1290.03,777.426 1311.98,762.295 1263.99,789.917 1259.11,794.212 1361.87,708.365 1473.71,640.739 1522.88,625.136 1492.34,634.502 1506,625.011 1398.56,702.597 1296.65,786.635 1180.62,872.478 1124.13,908.878 1091.6,937.78 1083.45,948.274 1083.37,949.173 1194.02,882.806 1172.35,888.381 1169.07,898.913 1158.92,899.766 1227.92,846.697 1213.65,857.976 1338.66,774.917 1343.95,751.083 1312.98,765.658 1318.46,759.55 1244.7,817.632 1318.92,771.07 1239.01,818.427 1145.77,883.175 1187.96,866.346 1176.92,876.391 1170.47,882.839 1181.34,880.269 1175.13,887.553 1078.69,949.451 1011.14,988.149 1040.7,973.381 1032.45,982.673 979.274,1020.96 1052.03,977.608 909.973,1073.78 912.724,1066.71 840.898,1105.9 771.565,1148.74 863.098,1108.47 801.022,1140.37 827.341,1126.5 873.726,1097.85 805.315,1135.18 847.289,1108.89 844.204,1106.96 801.303,1133.24 866.999,1105.22 872.602,1097.68 958.853,1053.17 910.159,1069.26 893.549,1078.67 989.349,1031.19 974.349,1038.03 1045.13,990.797 1081.77,950.412 1150.63,908.046 1157.83,900.789 1176.25,885.864 1147.01,907.669 1170.01,888.526 1142.27,905.11 1107.26,929.912 1038.32,979.101 961.368,1026.63 876.688,1080.28 873.6,1085.18 854.005,1101.28 1000.74,1020.14 1001,1015.37 993.228,1006.79 973.365,1014.32 894.835,1062.48 990.434,1021.44 941.962,1047.32 1028.9,992.795 1063.34,969.171 1063.11,968.134 1007.84,994.473 1004.45,994.471 1031.7,988.605 914.012,1054.04 952.646,1026.7 906.773,1059.35 890.652,1069.52 1005.1,1010.83 1035.57,990.188 1002.58,1005.97 1029.6,997.235 1069.26,964.515 1201.28,874.132 1205.72,852.456 1305.8,784.261 1232.48,835.59 1195.6,864.98 1238.91,821.535 1321.94,757.95 1188.52,860.989 1184.94,861.418 1180.57,861.493 1208,828.72 1236.57,821.649 1212.53,842.047 1271.25,776.027 1336.3,753.502 1629.38,545.608 1663.93,474.695 1574.11,530.706 1598.3,518.905 1557.9,549.424 1502.66,590.006 1461.82,624.736 1378.36,697.292 1274.93,769.781 1390.67,709.151 1384.99,710.029 1265.73,785.784 1384.45,717.507 1430.52,684.584 1512.31,619.615 1591.73,543.57 1506.82,593.048 1461.25,642.915 1355.33,711.345 1411.85,687.705 1248.52,799.801 1203.44,841.812 1183.73,868.104 1178.74,877.885 1277.09,823.781 1284.65,812.419 1287.46,803.512 1192.33,852.578 1179.19,868.571 1189.48,861.839 1048.78,956.611 1112.11,929.411 1167.88,899.143 1204.88,874.357 1184.21,880.722 1109.12,924.67 1069.28,947.905 1060.1,958.693 1008.07,995.103 1076.09,962.982 1172,904.306 1158.76,902.986 1168.8,891.413 1178.97,877.806 1192.66,865.28 1244.61,834.547 1263.81,807.09 1342.99,749.421 1322.39,771.103 1236.8,826.77 1226.89,834.123 1174.41,878.634 1201.54,858.932 1260.71,807.986 1208.11,852.099 1169.66,879.535 1148.69,893.99 1249.57,829.792 1224.92,837.176 1273,798.49 1178.1,872.614 1227.58,836.698 1167.12,889.102 1151.65,893.09 1024.5,987.45 1098.86,948.878 1161.85,909.706 1272.45,822.459 1270.65,818.006 1263.96,823.623 1323.66,776.31 1296,783.975 1247.86,819.617 1218.79,840.972 1172.76,895.257 1184.71,880.764 1177.06,877.865 1145.1,897.941 1134.94,910.771 1214.77,853.506 1253.07,822.885 1247.26,819.923 1224.67,845.8 1125.34,909.32 1201.54,865.903 1165.29,887.833 1063.28,952.498 976.222,1012.84 976.265,1016.35 1081.53,958.266 1081.03,951.51 1029.45,983.832 1150.89,907.716 1205.57,863.938 1263.28,809.122 1074.61,945.013 1019.03,978.949 975.633,1013.38 1083.93,951.279 1275.46,825.38 1410.03,717.258 1305.71,761.599 1268.97,783.957 1387.98,700.739 1460.11,645.703 1448.35,647.4 1433.35,652.49 1347.92,718.042 1323.66,749.928 1268.54,788.829 1261.74,808.262 1259.83,820.464 1074.47,948.151 1146.1,917.879 1247.28,847.373 1249.56,834.683 1185.14,871.537 1139.42,910.466 1109.14,924.378 1057.31,958.239 929.285,1028.27 1028.78,989.817 1048.23,977.923 1074.31,965.287 1004.89,1002.42 1037.58,977.944 985.617,1012.05 932.478,1043.93 958.391,1030.03 975.902,1028.77 963.19,1041.54 1085.23,960.39 1174.49,889.455 1252.63,831.23 1323.17,783.27 1321.73,780.104 1281.67,805.055 1386.65,704.85 1344.9,735.958 1449.29,662.446 1398.38,703.391 1323.55,756.334 1316.89,774.64 1214.39,850.968 1169.3,878.53 1251.54,819.389 1264.85,832.131 1323.03,766.066 1458.28,656.53 1574.97,553.147 1532.14,554.911 1622.2,495.656 1567.2,519.217 1555.66,542.928 1625.61,505.564 1546.3,557.632 1517.01,586.112 1626.81,511.787 1627.68,501.491 1482.17,591.26 1470.56,613.425 1303.38,738.39 1385.58,704.596 1367.98,718.875 1284.81,780.257 1229.03,817.244 1279.02,794.459 1194.55,847.606 1176,875.809 1218.88,855.995 1185.89,876.736 1157.36,893.836 1126.74,911.579 1104.27,926.198 1116.07,921.935 1106.12,933.32 1064.96,971.69 1105.95,944.466 1161.03,904.772 1223.04,866.634 1185.08,882.964 1332.04,767.953 1296.04,783.918 1280.02,783.078 1236.99,820.12 1323.2,774.346 1342.21,747.618 1483.56,651.766 1532.24,600.2 1571.18,566.763 1550.9,541.351 1700.62,435.073 1718.57,407.763 1544.13,531.969 1519.55,557.262 1443.28,624.531 1297.31,737.113 1261.69,780.095 1199.58,830.862 1170.88,863.138 1144.36,889.215 1075.93,937.768 1104.54,929.363 1081.3,950.575 1076.72,954.776 1084.99,952.172 1103.08,938.058 1053.87,966.41 1064.54,966.482 1088.17,950.948 1109.29,944.072 983.907,1028.85 1056.1,982.443 1004.48,1000.31 961.332,1028.8 1029.52,991.3 1060.77,972.939 1016.49,991.984 1008.53,1004.45 1107,945.184 1205.66,872.845 1229.17,859.422 1244.24,835.537 1220.73,840.586 1263.98,807.349 1321.5,756.266 1338.75,735.168 1289.93,788.933 1282.54,785.342 1269.44,809.589 1354.74,749.643 1362.54,738.568 1353.66,733.886 1245.17,825.074 1202.94,855.232 1343.93,761.422 1449.21,660.563 1505.02,626.443 1436.8,662.677 1373.86,720.106 1307.44,759.936 1280.77,783.316 1269.29,806.596 1255.57,814.207 1182.88,865.984 1303.1,799.096 1316.8,780.306 1291.42,786.964 1226.84,826.245 1181.26,855.502 1139.17,890.134 1142.92,901.229 1106.26,924.208 1079.31,941.811 1156.92,904.134 1182.89,871.382 1101.96,922.065 1166.02,892.697 1132.08,906.758 1052.25,952.338 1099.53,934.715 1120.53,923.335 999.068,1002.55 1022.92,993.314 992.099,1017.69 914.744,1068.82 909.418,1074.98 962.333,1044.27 1031.5,995.466 1086.34,952.051 1154.2,905.729 1286.65,810.52 1349,759.956 1275.19,804.774 1220.3,837.453 1226.83,830.732 1182.74,870.322 1192.75,872.337 1204,862.931 1086.61,932.748 1119.73,917.868 1159.91,904.588 1126.72,921.261 1095.45,943.006 1066.26,966.343 1106.03,942.539 1202.6,871.508 1161.31,889.52 1146.46,900.569 1125.71,919.555 1074.34,953.473 1000.24,1012.65 1152.22,918.289 1190.14,891.557 1213.69,867.414 1219.44,839.447 1175.5,867.893 1272.27,813.918 1234.41,855.985 1209.73,862.67 1164.75,893.778 1178.7,869.1 1157.54,886.154 1187.18,871.284 1278.51,801.965 1383.48,738.075 1326.62,768.363 1296.84,794.532 1382.44,723.68 1291.43,777.729 1243.68,818.01 1178.75,861.22 1198.04,859.433 1293.81,807.139 1310.41,783.017 1331.57,766.327 1310.04,768.203 1272.41,795.871 1323.09,767.721 1374.53,729.286 1459.69,671.379 1401.2,693.176 1454.61,641.755 1298.63,755.846 1305.78,755.479 1317.65,760.445 1325.94,760.204 1346.11,744.094 1321.13,764.198 1215.33,833.358 1178.08,859.392 1137.42,897.598 1167.94,893.197 1197.06,871.203 1176.74,871.354 1263.06,829.431 1376.39,722.956 1311.94,761.59 1279.65,788.125 1270.27,791.382 1220.94,834.72 1196.4,850.665 1308.77,792.201 1346.4,765.317 1316.42,774.009 1319.5,768.261 1286.35,787.939 1268.02,802.975 1265.5,808.133 1340.18,756.801 1331.36,759.927 1420.53,700.407 1523.91,617.682 1558.98,574.269 1574.72,558.358 1656.33,474.163 1599.72,499.072 1524.02,549.628 1482.24,595.59 1390.67,672.979 1403.6,680.669 1362.68,713.362 1356.58,724.817 1428.51,684.092 1275.55,780.62 1240.56,815.212 1299.16,783.983 1195.32,849.58 1175.31,872.344 1117.12,913.766 1138.14,911.943 1095.27,934.161 1057.33,960.008 1175.31,898.935 1316.11,787.373 1308.62,786.694 1290.72,791.669 1294.12,787.54 1402.77,715.196 1384.78,709.107 1394.78,690.872 1495.1,628.549 1575.91,558.141 1575.06,539.453 1448.34,625.897 1346.44,710.682 1285.08,765.432 1322.5,755.456 1305.65,768.593 1131.01,882.458 1156.47,882.453 1144.8,899.787 1167.83,893.352 1158.67,897.625 1118.83,924.258 1109.22,929.673 1138.95,903.873 1055.09,958.925 1042.92,974.167 1041.01,977.504 1045.25,969.892 1119.97,927.203 1193.63,866.438 1214.43,841.929 1150.66,877.69 1218.94,839.8 1322.53,768.957 1310.5,771.213 1278.38,796.689 1158.48,887.913 1200.76,859.474 1180.44,885.544 1337.92,779.28 1353.95,753.329 1351.66,735.413 1339.08,727.086 1313.51,745.017 1329.24,749.658 1163.95,869.611 1151.12,892.424 1109.9,915.338 1170.31,891.356 1198.56,869.497 1267.13,819.016 1300.88,786.967 1275.72,802.336 1375.52,721.702 1442.45,666.497 1510.69,604.283 1430.51,669.298 1409.81,679.865 1330.57,741.734 1361.9,714.019 1290.88,773.237 1350.55,741.797 1299.08,776.663 1410.44,693.766 1292.1,782.616 1280.64,791.515 1219.81,841.654 1315.74,778.655 1356.39,744.726 1329.42,764.881 1344.27,754.867 1345.26,745.862 1369.58,732.284 1525.76,590.189 1359.94,693.222 1439.94,655.638 1449.19,643.783 1484.88,617.838 1425.74,668.695 1401.1,700.488 1326.47,754.926 1336.82,741.26 1194.97,842.014 1150.64,880.295 1188.33,866.298 1216.31,846.722 1298.63,785.19 1320.27,771.746 1391.99,725.324 1313.67,763.35 1324.35,755.043 1267.84,795.979 1228.68,829.294 1234.15,836.282 1189.26,866.683 1217.67,850.174 1211.56,854.79 1276.33,787.676 1229.66,823.141 1215.11,831.201 1228.6,824.298 1196.89,854.119 1282.02,802.566 1255.61,813.873 1382.19,741.107 1371.75,741.195 1313.99,779.43 1426.27,698.279 1387.09,715.442 1400.04,702.242 1432.19,679.249 1384.29,704.679 1246.25,816.516 1219.8,834.736 1171.15,876.586 1157.33,886.495 1099.33,926.925 1074.82,947.023 960.972,1019.08 969.118,1022.28 1037.46,995.67 971.682,1027.22 1010.64,1008.68 1049.75,984.585 1078.43,966.235 1005.2,1006.55 1046.74,983.884 1052.18,985.169 1051.86,973.306 1140.1,924.813 1174.29,894.523 1175.81,874.829 1244.98,832.244 1172.64,863.565 1216.16,853.315 1187.51,870.774 1068.98,954.833 1009.37,990.573 1076.27,948.971 1164.43,893.091 1195.85,871.287 1102.08,944.449 1139.04,918.095 1263.63,836.203 1252.94,826.268 1228.63,830.49 1208.45,841.424 1072.2,946.597 1086.39,945.984 1099.74,941.424 1047.04,968.457 1015.62,989.466 929.309,1041.82 1017.04,1008.2 993.941,1013.85 925.554,1051.25 907.055,1067.02 953.168,1042.14 997.675,1016.87 951.103,1045.89 1005.47,1015.25 1031.71,983.167 1125.61,931.123 1086.16,947.967 1095.03,939.858 1218.42,861.02 1213.89,853.81 1175.78,884.799 1135.68,916.896 1149.76,910.051 1201.31,863.936 1157.65,888.949 1214.03,852.743 1206.79,846.131 1219.69,817.285 1185.09,849.12 1231.46,805.741 1290.86,777.232 1213.54,853.367 1167.13,885.632 1205.27,860.317 1170.69,872.788 1077.83,939.539 973.255,1006.07 1117.94,937.109 1094.47,933.398 1053.32,962.76 937.306,1037.59 986.652,1021.65 958.691,1037.14 1001.79,1009.57 1090.55,953.204 1091.48,940.352 1018.99,981.692 1000.53,1005.3 1051.51,978.474 914.435,1056.02 956.977,1030.57 1035.16,992.205 1026.68,988.453 1015.24,995.207 1089.77,939.31 1012.65,988.598 988.277,1000.73 942.178,1033.33 913.94,1057.2 969.185,1031.23 1095.3,952.708 1162.58,900.132 1251.42,828.239 1345.39,759.309 1317.15,763.2 1370.46,726.289 1305.26,765.778 1233.27,832.921 1125.4,907.476 1080.5,946.644 1097.58,941.29 1080.17,954.976 1081.22,953.227 984.353,1005.63 1008.54,1010.37 1061.88,983.166 1085.82,958.543 990.999,1005.81 992.146,1005.93 999.057,999.748 1128,931.638 1160.12,888.646 1148.93,899.148 1175.28,883.754 1095.7,936.228 1142.38,903.767 1058.2,958.512 1040.6,982.255 1036.07,979.929 1082.75,933.466 1070.4,948.663 1131.38,905.322 1100.64,931.628 1094.62,933.371 1148.15,895.08 1231.99,833.291 1229.31,816.928 1295.38,787.147 1250.24,818.934 1236.26,840.846 1130.66,907.294 1012.39,995.666 931.475,1044.12 937.288,1048.75 1057.26,987.54 939.751,1046.47 977.262,1029.71 1022,998.183 1072.72,966.585 981.679,1011.67 959.564,1021.42 954.761,1030 901.682,1069.81 897.173,1077.62 967.447,1035.41 1033.22,999.695 1180.35,906.098 1089.76,944.35 1150.39,910.785 1146.95,913.108 1091.03,942.911 1199.08,872.887 1216.8,844.464 1272.76,803.489 1369.66,725.776 1362.62,731.606 1311.5,772.591 1312.84,777.415 1342.87,737.158 1299.03,765.813 1221.9,832.425 1215.07,844.527 1173.08,877.273 1186.3,870.715 1205.4,846.361 1166.41,882.153 1204.08,856.22 1212.74,864.018 1144.29,901.689 1146.56,901.595 1228.1,839.198 1436.56,698.971 1343.11,742.402 1482.28,623.344 1489.08,619.62 1463.11,632.615 1452.43,640.276 1440.14,645.212 1466.26,638.985 1381.5,690.153 1382.72,701.241 1284.74,787.728 1330.67,766.873 1293.06,788.69 1310.09,763.244 1250.97,816.462 1252.11,813.397 1265.05,805.431 1170.38,881.525 1217.96,859.52 1124.22,908.562 1090.55,935.877 1124.53,922.109 1051.6,964.16 1065.47,960.886 1037.41,980.539 1048.14,970.672 1025.99,977.592 900.1,1063.04 912.334,1065.38 913.113,1070.82 984.576,1035.67 978.357,1030.6 1004.99,1012.07 1118.45,940.408 1086.92,950.522 1098.64,938.028 1151.93,903.65 1173.34,882.004 1103.05,926.16 1013.28,994.964 964.033,1023.11 958.279,1032.96 1021.43,1003.88 1003.95,1007.41 1028.4,989.376 1146.62,915.139 1187.49,881.704 1169.74,886.194 1276.76,823.106 1311.93,798.114 1396.3,723.165 1216.02,830.679 1152.97,879.353 1149.08,890.706 1203.64,849.716 1230.23,837.372 1373.51,730.584 1333.46,753.473 1288.74,783.693 1331.16,770.412 1338,758.39 1329.18,774.012 1317.06,771.701 1282.44,797.236 1249.91,808.466 1259.26,802.606 1299.52,782.441 1189.77,874.158 1069.75,954.868 1042.68,981.812 1033.36,976.399 1054.47,969.322 1202.75,865.165 1294.08,793.824 1348.49,738.366 1326.82,757.968 1396.59,682.815 1461.88,660.073 1557,579.599 1535.63,569.358 1550.2,566.114 1509.33,599.103 1444.96,656.75 1416.14,678.031 1506.74,620.22 1465.77,634.858 1405.99,679.611 1347.16,731.884 1400.25,705.515 1417.21,703.221 1464.43,655.443 1379.22,710.949 1441.47,677.156 1443.42,656.112 1250.37,796.729 1220.21,830.612 1209.53,846.118 1256.11,823.053 1258.96,814.858 1224.34,828.237 1285.49,791.215 1095.77,930.398 1101.15,936.956 1083.14,948.67 1067.04,957.296 1135.02,912.205 1075.03,944.688 1067.91,956.192 1078.56,954.447 1023.07,985.162 1012.45,991.154 977.173,1015.32 1028.37,992.225 1093.11,943.846 1119.71,930.288 1212.67,860.444 1258.01,823.441 1162.24,869.281 1309.08,777.363 1261.03,806.095 1227.66,830.196 1159.9,899.773 1257.99,836.049 1175.21,877.318 1223.79,833.451 1192.39,872.499 1228.43,847.862 1249.26,832.206 1155.48,901.031 1133.62,916.026 1051.73,976.319 1080.1,952.353 1026.32,1003.21 980.416,1021.92 1043.17,983.58 1118.65,923.393 1193.28,866.99 1178.74,888.7 1268.92,815.8 1221.5,844.394 1177.95,870.464 1230.54,844.082 1314.03,787.221 1342.92,763.265 1468.38,665.054 1409.94,687.837 1467.1,646.512 1415.5,666.125 1404.1,696.053 1352.19,734.014 1279.4,782.764 1310.91,763.34 1147.76,874.457 1113.83,913.804 1108.4,923.916 1158.35,901.534 1126.61,918.992 1192.65,871.472 1150.2,893.106 1063.66,948.274 1061.36,960.545 1145.62,909.958 1140.83,921.331 1265.94,827.802 1390.5,737.328 1323.12,759.845 1309.03,765.467 1272.01,789.83 1356.36,745.102 1375.82,726.76 1362.44,735.775 1201.33,839.899 1195.48,860.928 1158.5,883.476 1111.84,908.521 1000.99,985.161 976.608,1008.18 966.869,1024.22 981.356,1019.53 937.071,1046.34 965.109,1034.5 1054.83,982.957 1042.86,979.53 945.329,1035.18 1065.82,972.35 1063.62,965.799 1042.2,981.965 928.855,1050.5 1025.97,1004.28 1018.3,1001.13 1070.87,970.511 1007.17,1007.07 1064.21,972.783 1033.67,995.567 1091.01,949.3 1116.62,928.796 1205.53,860.108 1259.24,804.971 1187.81,852.931 1160,889.215 1034.69,966.327 1038.5,976.737 1022.26,986.146 1080.72,955.21 1047.33,974.315 1082.46,962.799 1060.75,960.933 1041.55,963.325 1019.01,977.402 1047.27,969.513 1249.14,841.815 1234.46,833.819 1278.07,796.335 1234.27,821.385 1218.56,832.374 1308.54,783.945 1319.04,761.069 1227.23,818.205 1236.59,827.856 1245.48,822.638 1246.73,821.752 1248.34,824.202 1236.57,834.774 1272.21,810.861 1395.9,714.204 1441.84,671.416 1363.73,708.342 1370.95,710.579 1192.38,839.983 1108.87,898.962 1111.35,912.23 1095.43,930.448 1053.34,965.765 1113.47,935.99 1109.15,928.557 1083.4,942.43 1098.54,947.916 1232.2,862.863 1173.66,889.876 1143.16,904.727 1146.21,909.841 1193.9,882.624 1255.58,830.809 1260.49,819.714 1187.44,861.588 1251.2,833.124 1212.08,856.969 1272.98,819.878 1267.64,808.279 1150.53,890.114 1099.13,934.419 1070.09,956.697 1081.92,961.176 962.396,1039.46 979.938,1031.86 992.046,1014.1 939.935,1047.55 935.121,1050.77 911.78,1062.05 1013.09,999.228 1011.55,994.579 1076.06,965.887 1221.31,865.693 1228.58,841.9 1328.54,773.169 1244.4,833.567 1319.37,780.892 1207.62,860.649 1185.71,880.952 1247.72,834.031 1224.49,837.489 1144.9,904.824 1251.57,828.241 1316.12,776.031 1410.01,702.326 1462.03,646.501 1476.09,632.293 1534.21,564.837 1361.61,697.258 1314.39,744.585 1192.93,839.544 1156.35,874.091 1151.59,881.198 1099.88,929.933 1045.45,961.548 1001.05,996.826 1012.72,994.932 1004.28,1002.18 1007.37,1001.46 1078.65,964.316 1074.45,964.47 1109.5,945.829 1087.75,955.032 1118.34,933.856 1230.22,856.642 1253.67,821.023 1302.76,782.732 1251.44,814.56 1151.16,903.466 1130.15,916.67 1018.8,983.02 1050.59,970.654 1036.52,979.025 987.191,1012.51 984.422,1021.24 1018.15,1002.01 1090.83,954.096 1115.35,934.284 1152.14,905.19 1163.26,899.437 1121.42,920.085 1137.48,907.574 1138.5,910.807 1148.32,894.882 1110.13,919.664 1123.48,905.755 1198.02,846.739 1115.5,910.217 1164.09,884.315 1155.75,890.572 1076.05,947.654 1002.99,986.45 991.314,998.545 973.16,1024.26 1014.14,1010.32 1038.39,983.982 966.457,1033.03 921.643,1060.45 917.129,1064.63 903.018,1073.23 895.487,1079.24 885.435,1084.15 940.578,1054.2 973.622,1034.94 1082.8,964.031 1150.61,909.588 1217,861.667 1177.96,891.805 1221.97,856.5 1279.42,800.195 1276.54,794.87 1249.21,807.276 1156.58,873.234 1120.97,903.68 1057.57,947.035 1009.91,990.001 1000.8,1001.35 926.688,1046.8 874.789,1083.25 825.276,1112.69 862.454,1093.95 844.418,1106.44 879.696,1087.34 862.861,1094.25 984.669,1030.24 980.162,1025.53 947.441,1043.23 993.656,1019.81 960.322,1033.84 934.287,1051.27 867.765,1091.97 851.778,1102.97 887.725,1089.04 892.662,1088.97 944.99,1047.21 867.539,1093.95 817.213,1114.8 861.104,1095.87 863.395,1094.67 909.634,1072.87 955.82,1042.03 943.561,1055.12 979.265,1027.34 950.289,1045.28 953.588,1042.89 955.557,1038.6 980.793,1028.17 998.02,1014.06 932.269,1052.49 1043.95,996.5 1116.37,939.838 1161.38,896.999 1216.69,855.636 1277.33,813.522 1094.56,932.875 1118.59,918.383 1116.27,920.008 1035.7,970.819 1168.86,892.332 1260.01,821.309 1246.23,829.611 1328.13,759.118 1459.7,658.724 1442.91,665.823 1546.9,570.656 1594.38,535.173 1471.76,629.094 1424.63,670.313 1468.08,647.234 1359.69,721.676 1443.95,672.044 1418.59,684.3 1436.02,671.233 1297.59,778.281 1299.95,793.246 1353.42,754.966 1303.38,776.542 1181.35,866.075 1232.93,841.326 1307.71,766.965 1360.97,735.283 1323.62,759.394 1247.05,820.231 1256.14,811.44 1314.02,774.645 1394.89,721.432 1323.22,759.09 1300.03,783.313 1261.55,813.207 1299.71,778.536 1390.5,714.536 1373.29,736.907 1238.77,837.259 1300.72,784.662 1391.89,722.262 1324.79,795.659 1388.89,729.45 1321.71,767.58 1366.69,715.976 1293.94,778.359 1292.37,782.298 1135.88,893.495 1235.63,843.374 1344.33,771.769 1281.14,795.17 1297.3,787.569 1327.6,753.16 1258.11,799.269 1221.63,829.75 1242.97,838.141 1209.73,868.09 1187.51,877.007 1169.01,890.184 1091.24,940.374 1054.49,969.357 1080.57,949.217 1145.14,909.194 1034.4,986.504 1024.36,992.871 1002.27,996.069 1068.47,959.907 1077.81,955.872 1139.3,898.305 1092.23,940.086 1031.9,977.927 1015.18,966.008 1045.9,951.987 1151.76,899.532 1163.09,893.889 1188.52,883.985 1177.7,884.108 1144.59,888.44 1061.17,943.791 1228.56,834.894 1303.71,777.41 1339.76,744.361 1365.07,734.613 1234.97,784.349 1271.7,775.313 1268.06,795.911 1393.29,705.774 1259.31,830.487 1172.79,881.379 1128.73,911.408 1171.43,884.585 1174.18,882.975 1312.5,765.827 1318.22,763.114 1321.51,749.231 1310,761.701 1296.73,776.813 1375.23,733.16 1314.8,766.925 1243.55,820.662 1287.74,805.785 1285.46,791.872 1417.21,702.443 1392.69,698.677 1396.23,686.29 1508.4,604.42 1552.24,564.129 1524.58,579.848 1433.82,652.11 1341.9,724.578 1357.12,730.866 1488.47,640.596 1433.53,682.531 1360.32,727.998 1229.38,809.424 1264.79,799.722 1264.35,797.575 1131.3,894.345 1142.81,898.965 1064,948.613 1025.91,979.164 1089.82,947.748 1028.63,981.619 1085.48,946.42 1164.48,899.825 1047.35,981.088 1079.44,954.843 1097.38,939.887 1020.26,984.673 991.838,998.444 928.338,1045.97 956.712,1032.36 1016.27,997.908 1075.76,954.393 1150.63,908.217 1099.79,941.706 987.434,1017.15 973.778,1005.83 1043.79,979.084 1128.89,928.504 1181.46,897.982 1037.68,994.069 1062.57,966.688 1037.85,984.123 960.655,1034.38 958.998,1038.03 990.417,1017.4 1102.28,939.982 1027.03,984.393 1074.86,956.823 897.894,1062.03 880.365,1077.25 890.269,1072.29 935.977,1048.2 879.212,1081.9 932.937,1059.72 944.865,1048.36 964.705,1026.77 991.143,1012.76 1076.94,959.317 1095.8,944.491 1149.14,916.739 1110.49,922.14 1202.71,855.055 1236.91,821.222 1226.08,834.094 1161.82,872.731 1120.34,913.266 1074.12,946.074 1104.95,932.87 1102.22,948.359 1034.81,978.603 903.921,1059.12 889.818,1075.13 918.207,1063.22 931.742,1055.39 937.583,1042.87 891.408,1075.51 950.638,1052.18 991.649,1017.71 1083.81,962.067 1183.39,892.426 1227.23,850.688 1196.29,862.602 1176.78,883.042 1188.14,878.288 1230.75,830.908 1132.28,894.632 1197.68,863.814 1032.55,973.402 1065.93,964.591 1120.54,923.691 993.234,1003.5 973.458,1013.79 923.101,1050.79 930.481,1050.03 890.046,1080.25 1020.67,1009.89 969.944,1031.82 941,1051.48 996.377,1006.61 1010.44,999.808 975.335,1019.8 940.678,1044.47 986.574,1018.15 1015,995.503 1058.79,978.619 1045.79,975.725 1014.25,993.262 1001.84,1011.48 1024.61,988.618 946.496,1040.18 926.132,1057.38 907.9,1071.79 "/>
<path clip-path="url(#clip770)" d="M228.998 198.898 L588.673 198.898 L588.673 95.2176 L228.998 95.2176  Z" fill="#ffffff" fill-rule="evenodd" fill-opacity="1"/>
<polyline clip-path="url(#clip770)" style="stroke:#000000; stroke-linecap:round; stroke-linejoin:round; stroke-width:4; stroke-opacity:1; fill:none" points="228.998,198.898 588.673,198.898 588.673,95.2176 228.998,95.2176 228.998,198.898 "/>
<polyline clip-path="url(#clip770)" style="stroke:#009af9; stroke-linecap:round; stroke-linejoin:round; stroke-width:4; stroke-opacity:1; fill:none" points="253.409,147.058 399.875,147.058 "/>
<path clip-path="url(#clip770)" d="M434.911 128.366 Q431.809 133.69 430.305 138.898 Q428.8 144.106 428.8 149.453 Q428.8 154.801 430.305 160.055 Q431.832 165.287 434.911 170.588 L431.207 170.588 Q427.735 165.148 425.999 159.893 Q424.286 154.639 424.286 149.453 Q424.286 144.291 425.999 139.06 Q427.712 133.828 431.207 128.366 L434.911 128.366 Z" fill="#000000" fill-rule="nonzero" fill-opacity="1" /><path clip-path="url(#clip770)" d="M464.726 138.412 L455.351 151.027 L465.212 164.338 L460.189 164.338 L452.642 154.152 L445.096 164.338 L440.073 164.338 L450.142 150.773 L440.929 138.412 L445.953 138.412 L452.828 147.648 L459.703 138.412 L464.726 138.412 Z" fill="#000000" fill-rule="nonzero" fill-opacity="1" /><path clip-path="url(#clip770)" d="M472.318 158.458 L477.202 158.458 L477.202 162.439 L473.406 169.847 L470.42 169.847 L472.318 162.439 L472.318 158.458 Z" fill="#000000" fill-rule="nonzero" fill-opacity="1" /><path clip-path="url(#clip770)" d="M497.087 166.745 Q495.281 171.375 493.568 172.787 Q491.855 174.199 488.985 174.199 L485.582 174.199 L485.582 170.634 L488.082 170.634 Q489.841 170.634 490.813 169.8 Q491.786 168.967 492.966 165.865 L493.73 163.921 L483.244 138.412 L487.758 138.412 L495.86 158.689 L503.962 138.412 L508.475 138.412 L497.087 166.745 Z" fill="#000000" fill-rule="nonzero" fill-opacity="1" /><path clip-path="url(#clip770)" d="M515.443 158.458 L520.327 158.458 L520.327 162.439 L516.531 169.847 L513.545 169.847 L515.443 162.439 L515.443 158.458 Z" fill="#000000" fill-rule="nonzero" fill-opacity="1" /><path clip-path="url(#clip770)" d="M527.573 138.412 L547.804 138.412 L547.804 142.301 L531.785 160.935 L547.804 160.935 L547.804 164.338 L526.994 164.338 L526.994 160.449 L543.012 141.815 L527.573 141.815 L527.573 138.412 Z" fill="#000000" fill-rule="nonzero" fill-opacity="1" /><path clip-path="url(#clip770)" d="M553.637 128.366 L557.341 128.366 Q560.813 133.828 562.526 139.06 Q564.262 144.291 564.262 149.453 Q564.262 154.639 562.526 159.893 Q560.813 165.148 557.341 170.588 L553.637 170.588 Q556.716 165.287 558.22 160.055 Q559.748 154.801 559.748 149.453 Q559.748 144.106 558.22 138.898 Q556.716 133.69 553.637 128.366 Z" fill="#000000" fill-rule="nonzero" fill-opacity="1" /></svg>
