<?xml version="1.0" encoding="utf-8"?>
<svg xmlns="http://www.w3.org/2000/svg" xmlns:xlink="http://www.w3.org/1999/xlink" width="600" height="400" viewBox="0 0 2400 1600">
<defs>
  <clipPath id="clip260">
    <rect x="0" y="0" width="2400" height="1600"/>
  </clipPath>
</defs>
<path clip-path="url(#clip260)" d="M0 1600 L2400 1600 L2400 0 L0 0  Z" fill="#ffffff" fill-rule="evenodd" fill-opacity="1"/>
<defs>
  <clipPath id="clip261">
    <rect x="480" y="0" width="1681" height="1600"/>
  </clipPath>
</defs>
<defs>
  <clipPath id="clip262">
    <rect x="112" y="47" width="2242" height="1440"/>
  </clipPath>
</defs>
<path clip-path="url(#clip262)" d="M-684.511 2663.68 L-684.511 2380.63 L-369.213 2239.1 L176.901 2320.81 L176.901 2603.86 L-138.398 2745.38 L-684.511 2663.68  Z" fill="#ffffff" fill-rule="evenodd" fill-opacity="1"/>
<polyline clip-path="url(#clip262)" style="stroke:#000000; stroke-linecap:round; stroke-linejoin:round; stroke-width:2; stroke-opacity:0.1; fill:none" points="683.921,1208.16 1099.38,848.362 1099.38,128.76 "/>
<polyline clip-path="url(#clip262)" style="stroke:#000000; stroke-linecap:round; stroke-linejoin:round; stroke-width:2; stroke-opacity:0.1; fill:none" points="820.449,1247.58 1235.91,887.774 1235.91,168.172 "/>
<polyline clip-path="url(#clip262)" style="stroke:#000000; stroke-linecap:round; stroke-linejoin:round; stroke-width:2; stroke-opacity:0.1; fill:none" points="956.978,1286.99 1372.44,927.186 1372.44,207.585 "/>
<polyline clip-path="url(#clip262)" style="stroke:#000000; stroke-linecap:round; stroke-linejoin:round; stroke-width:2; stroke-opacity:0.1; fill:none" points="1093.51,1326.4 1508.97,966.599 1508.97,246.997 "/>
<polyline clip-path="url(#clip262)" style="stroke:#000000; stroke-linecap:round; stroke-linejoin:round; stroke-width:2; stroke-opacity:0.1; fill:none" points="1230.03,1365.81 1645.5,1006.01 1645.5,286.409 "/>
<polyline clip-path="url(#clip262)" style="stroke:#000000; stroke-linecap:round; stroke-linejoin:round; stroke-width:2; stroke-opacity:0.1; fill:none" points="1366.56,1405.22 1782.02,1045.42 1782.02,325.822 "/>
<polyline clip-path="url(#clip262)" style="stroke:#000000; stroke-linecap:round; stroke-linejoin:round; stroke-width:2; stroke-opacity:0.1; fill:none" points="1421.02,1378.81 701.422,1171.08 701.422,451.481 "/>
<polyline clip-path="url(#clip262)" style="stroke:#000000; stroke-linecap:round; stroke-linejoin:round; stroke-width:2; stroke-opacity:0.1; fill:none" points="1502.73,1308.05 783.131,1100.32 783.131,380.719 "/>
<polyline clip-path="url(#clip262)" style="stroke:#000000; stroke-linecap:round; stroke-linejoin:round; stroke-width:2; stroke-opacity:0.1; fill:none" points="1584.44,1237.29 864.84,1029.56 864.84,309.957 "/>
<polyline clip-path="url(#clip262)" style="stroke:#000000; stroke-linecap:round; stroke-linejoin:round; stroke-width:2; stroke-opacity:0.1; fill:none" points="1666.15,1166.53 946.549,958.797 946.549,239.195 "/>
<polyline clip-path="url(#clip262)" style="stroke:#000000; stroke-linecap:round; stroke-linejoin:round; stroke-width:2; stroke-opacity:0.1; fill:none" points="1747.86,1095.77 1028.26,888.035 1028.26,168.433 "/>
<polyline clip-path="url(#clip262)" style="stroke:#000000; stroke-linecap:round; stroke-linejoin:round; stroke-width:2; stroke-opacity:0.1; fill:none" points="664.934,1123.91 1080.4,764.112 1800,971.843 "/>
<polyline clip-path="url(#clip262)" style="stroke:#000000; stroke-linecap:round; stroke-linejoin:round; stroke-width:2; stroke-opacity:0.1; fill:none" points="664.934,1009.21 1080.4,649.411 1800,857.143 "/>
<polyline clip-path="url(#clip262)" style="stroke:#000000; stroke-linecap:round; stroke-linejoin:round; stroke-width:2; stroke-opacity:0.1; fill:none" points="664.934,894.512 1080.4,534.711 1800,742.442 "/>
<polyline clip-path="url(#clip262)" style="stroke:#000000; stroke-linecap:round; stroke-linejoin:round; stroke-width:2; stroke-opacity:0.1; fill:none" points="664.934,779.811 1080.4,420.01 1800,627.742 "/>
<polyline clip-path="url(#clip262)" style="stroke:#000000; stroke-linecap:round; stroke-linejoin:round; stroke-width:2; stroke-opacity:0.1; fill:none" points="664.934,665.111 1080.4,305.31 1800,513.041 "/>
<polyline clip-path="url(#clip262)" style="stroke:#000000; stroke-linecap:round; stroke-linejoin:round; stroke-width:2; stroke-opacity:0.1; fill:none" points="664.934,550.41 1080.4,190.61 1800,398.341 "/>
<polyline clip-path="url(#clip260)" style="stroke:#000000; stroke-linecap:round; stroke-linejoin:round; stroke-width:4; stroke-opacity:1; fill:none" points="664.934,1202.68 1384.54,1410.41 "/>
<polyline clip-path="url(#clip260)" style="stroke:#000000; stroke-linecap:round; stroke-linejoin:round; stroke-width:4; stroke-opacity:1; fill:none" points="683.921,1208.16 688.906,1203.85 "/>
<polyline clip-path="url(#clip260)" style="stroke:#000000; stroke-linecap:round; stroke-linejoin:round; stroke-width:4; stroke-opacity:1; fill:none" points="820.449,1247.58 825.435,1243.26 "/>
<polyline clip-path="url(#clip260)" style="stroke:#000000; stroke-linecap:round; stroke-linejoin:round; stroke-width:4; stroke-opacity:1; fill:none" points="956.978,1286.99 961.963,1282.67 "/>
<polyline clip-path="url(#clip260)" style="stroke:#000000; stroke-linecap:round; stroke-linejoin:round; stroke-width:4; stroke-opacity:1; fill:none" points="1093.51,1326.4 1098.49,1322.08 "/>
<polyline clip-path="url(#clip260)" style="stroke:#000000; stroke-linecap:round; stroke-linejoin:round; stroke-width:4; stroke-opacity:1; fill:none" points="1230.03,1365.81 1235.02,1361.49 "/>
<polyline clip-path="url(#clip260)" style="stroke:#000000; stroke-linecap:round; stroke-linejoin:round; stroke-width:4; stroke-opacity:1; fill:none" points="1366.56,1405.22 1371.55,1400.91 "/>
<path clip-path="url(#clip260)" d="M623.479 1222.44 Q619.868 1222.44 618.039 1226.01 Q616.234 1229.55 616.234 1236.68 Q616.234 1243.79 618.039 1247.35 Q619.868 1250.89 623.479 1250.89 Q627.113 1250.89 628.919 1247.35 Q630.748 1243.79 630.748 1236.68 Q630.748 1229.55 628.919 1226.01 Q627.113 1222.44 623.479 1222.44 M623.479 1218.74 Q629.289 1218.74 632.345 1223.35 Q635.423 1227.93 635.423 1236.68 Q635.423 1245.41 632.345 1250.01 Q629.289 1254.6 623.479 1254.6 Q617.669 1254.6 614.59 1250.01 Q611.535 1245.41 611.535 1236.68 Q611.535 1227.93 614.59 1223.35 Q617.669 1218.74 623.479 1218.74 Z" fill="#000000" fill-rule="nonzero" fill-opacity="1" /><path clip-path="url(#clip260)" d="M643.641 1248.05 L648.525 1248.05 L648.525 1253.93 L643.641 1253.93 L643.641 1248.05 Z" fill="#000000" fill-rule="nonzero" fill-opacity="1" /><path clip-path="url(#clip260)" d="M658.757 1219.37 L677.113 1219.37 L677.113 1223.3 L663.039 1223.3 L663.039 1231.77 Q664.058 1231.43 665.076 1231.26 Q666.095 1231.08 667.113 1231.08 Q672.9 1231.08 676.28 1234.25 Q679.659 1237.42 679.659 1242.84 Q679.659 1248.42 676.187 1251.52 Q672.715 1254.6 666.396 1254.6 Q664.22 1254.6 661.951 1254.23 Q659.706 1253.86 657.298 1253.12 L657.298 1248.42 Q659.382 1249.55 661.604 1250.11 Q663.826 1250.66 666.303 1250.66 Q670.308 1250.66 672.645 1248.56 Q674.983 1246.45 674.983 1242.84 Q674.983 1239.23 672.645 1237.12 Q670.308 1235.01 666.303 1235.01 Q664.428 1235.01 662.553 1235.43 Q660.701 1235.85 658.757 1236.73 L658.757 1219.37 Z" fill="#000000" fill-rule="nonzero" fill-opacity="1" /><path clip-path="url(#clip260)" d="M749.822 1289.4 L757.461 1289.4 L757.461 1263.04 L749.151 1264.7 L749.151 1260.44 L757.415 1258.78 L762.091 1258.78 L762.091 1289.4 L769.73 1289.4 L769.73 1293.34 L749.822 1293.34 L749.822 1289.4 Z" fill="#000000" fill-rule="nonzero" fill-opacity="1" /><path clip-path="url(#clip260)" d="M779.174 1287.46 L784.058 1287.46 L784.058 1293.34 L779.174 1293.34 L779.174 1287.46 Z" fill="#000000" fill-rule="nonzero" fill-opacity="1" /><path clip-path="url(#clip260)" d="M804.243 1261.86 Q800.632 1261.86 798.803 1265.42 Q796.998 1268.96 796.998 1276.09 Q796.998 1283.2 798.803 1286.76 Q800.632 1290.31 804.243 1290.31 Q807.877 1290.31 809.683 1286.76 Q811.512 1283.2 811.512 1276.09 Q811.512 1268.96 809.683 1265.42 Q807.877 1261.86 804.243 1261.86 M804.243 1258.15 Q810.053 1258.15 813.109 1262.76 Q816.188 1267.34 816.188 1276.09 Q816.188 1284.82 813.109 1289.43 Q810.053 1294.01 804.243 1294.01 Q798.433 1294.01 795.354 1289.43 Q792.299 1284.82 792.299 1276.09 Q792.299 1267.34 795.354 1262.76 Q798.433 1258.15 804.243 1258.15 Z" fill="#000000" fill-rule="nonzero" fill-opacity="1" /><path clip-path="url(#clip260)" d="M887.346 1328.82 L894.985 1328.82 L894.985 1302.45 L886.675 1304.12 L886.675 1299.86 L894.938 1298.19 L899.614 1298.19 L899.614 1328.82 L907.253 1328.82 L907.253 1332.75 L887.346 1332.75 L887.346 1328.82 Z" fill="#000000" fill-rule="nonzero" fill-opacity="1" /><path clip-path="url(#clip260)" d="M916.698 1326.87 L921.582 1326.87 L921.582 1332.75 L916.698 1332.75 L916.698 1326.87 Z" fill="#000000" fill-rule="nonzero" fill-opacity="1" /><path clip-path="url(#clip260)" d="M931.813 1298.19 L950.17 1298.19 L950.17 1302.13 L936.096 1302.13 L936.096 1310.6 Q937.114 1310.25 938.133 1310.09 Q939.151 1309.9 940.17 1309.9 Q945.957 1309.9 949.336 1313.07 Q952.716 1316.25 952.716 1321.66 Q952.716 1327.24 949.244 1330.34 Q945.772 1333.42 939.452 1333.42 Q937.276 1333.42 935.008 1333.05 Q932.762 1332.68 930.355 1331.94 L930.355 1327.24 Q932.438 1328.38 934.66 1328.93 Q936.883 1329.49 939.36 1329.49 Q943.364 1329.49 945.702 1327.38 Q948.04 1325.27 948.04 1321.66 Q948.04 1318.05 945.702 1315.94 Q943.364 1313.84 939.36 1313.84 Q937.485 1313.84 935.61 1314.26 Q933.758 1314.67 931.813 1315.55 L931.813 1298.19 Z" fill="#000000" fill-rule="nonzero" fill-opacity="1" /><path clip-path="url(#clip260)" d="M1026.1 1368.23 L1042.42 1368.23 L1042.42 1372.16 L1020.47 1372.16 L1020.47 1368.23 Q1023.13 1365.47 1027.72 1360.84 Q1032.32 1356.19 1033.5 1354.85 Q1035.75 1352.32 1036.63 1350.59 Q1037.53 1348.83 1037.53 1347.14 Q1037.53 1344.39 1035.59 1342.65 Q1033.67 1340.91 1030.56 1340.91 Q1028.36 1340.91 1025.91 1341.68 Q1023.48 1342.44 1020.7 1343.99 L1020.7 1339.27 Q1023.53 1338.14 1025.98 1337.56 Q1028.43 1336.98 1030.47 1336.98 Q1035.84 1336.98 1039.04 1339.66 Q1042.23 1342.35 1042.23 1346.84 Q1042.23 1348.97 1041.42 1350.89 Q1040.63 1352.79 1038.53 1355.38 Q1037.95 1356.05 1034.85 1359.27 Q1031.74 1362.46 1026.1 1368.23 Z" fill="#000000" fill-rule="nonzero" fill-opacity="1" /><path clip-path="url(#clip260)" d="M1052.23 1366.28 L1057.11 1366.28 L1057.11 1372.16 L1052.23 1372.16 L1052.23 1366.28 Z" fill="#000000" fill-rule="nonzero" fill-opacity="1" /><path clip-path="url(#clip260)" d="M1077.3 1340.68 Q1073.69 1340.68 1071.86 1344.25 Q1070.05 1347.79 1070.05 1354.92 Q1070.05 1362.02 1071.86 1365.59 Q1073.69 1369.13 1077.3 1369.13 Q1080.93 1369.13 1082.74 1365.59 Q1084.57 1362.02 1084.57 1354.92 Q1084.57 1347.79 1082.74 1344.25 Q1080.93 1340.68 1077.3 1340.68 M1077.3 1336.98 Q1083.11 1336.98 1086.17 1341.58 Q1089.24 1346.17 1089.24 1354.92 Q1089.24 1363.64 1086.17 1368.25 Q1083.11 1372.83 1077.3 1372.83 Q1071.49 1372.83 1068.41 1368.25 Q1065.36 1363.64 1065.36 1354.92 Q1065.36 1346.17 1068.41 1341.58 Q1071.49 1336.98 1077.3 1336.98 Z" fill="#000000" fill-rule="nonzero" fill-opacity="1" /><path clip-path="url(#clip260)" d="M1163.62 1407.64 L1179.94 1407.64 L1179.94 1411.58 L1158 1411.58 L1158 1407.64 Q1160.66 1404.89 1165.24 1400.26 Q1169.85 1395.6 1171.03 1394.26 Q1173.27 1391.74 1174.15 1390 Q1175.06 1388.24 1175.06 1386.55 Q1175.06 1383.8 1173.11 1382.06 Q1171.19 1380.33 1168.09 1380.33 Q1165.89 1380.33 1163.43 1381.09 Q1161 1381.85 1158.23 1383.4 L1158.23 1378.68 Q1161.05 1377.55 1163.5 1376.97 Q1165.96 1376.39 1168 1376.39 Q1173.37 1376.39 1176.56 1379.08 Q1179.75 1381.76 1179.75 1386.25 Q1179.75 1388.38 1178.94 1390.3 Q1178.16 1392.2 1176.05 1394.79 Q1175.47 1395.46 1172.37 1398.68 Q1169.27 1401.88 1163.62 1407.64 Z" fill="#000000" fill-rule="nonzero" fill-opacity="1" /><path clip-path="url(#clip260)" d="M1189.75 1405.7 L1194.64 1405.7 L1194.64 1411.58 L1189.75 1411.58 L1189.75 1405.7 Z" fill="#000000" fill-rule="nonzero" fill-opacity="1" /><path clip-path="url(#clip260)" d="M1204.87 1377.02 L1223.23 1377.02 L1223.23 1380.95 L1209.15 1380.95 L1209.15 1389.42 Q1210.17 1389.08 1211.19 1388.91 Q1212.21 1388.73 1213.23 1388.73 Q1219.01 1388.73 1222.39 1391.9 Q1225.77 1395.07 1225.77 1400.49 Q1225.77 1406.07 1222.3 1409.17 Q1218.83 1412.25 1212.51 1412.25 Q1210.33 1412.25 1208.06 1411.88 Q1205.82 1411.51 1203.41 1410.76 L1203.41 1406.07 Q1205.49 1407.2 1207.72 1407.76 Q1209.94 1408.31 1212.42 1408.31 Q1216.42 1408.31 1218.76 1406.2 Q1221.1 1404.1 1221.1 1400.49 Q1221.1 1396.88 1218.76 1394.77 Q1216.42 1392.66 1212.42 1392.66 Q1210.54 1392.66 1208.67 1393.08 Q1206.81 1393.5 1204.87 1394.38 L1204.87 1377.02 Z" fill="#000000" fill-rule="nonzero" fill-opacity="1" /><path clip-path="url(#clip260)" d="M1309.29 1432.35 Q1312.65 1433.07 1314.52 1435.34 Q1316.42 1437.61 1316.42 1440.94 Q1316.42 1446.06 1312.9 1448.86 Q1309.38 1451.66 1302.9 1451.66 Q1300.73 1451.66 1298.41 1451.22 Q1296.12 1450.8 1293.67 1449.95 L1293.67 1445.43 Q1295.61 1446.57 1297.93 1447.14 Q1300.24 1447.72 1302.76 1447.72 Q1307.16 1447.72 1309.45 1445.99 Q1311.77 1444.25 1311.77 1440.94 Q1311.77 1437.89 1309.62 1436.17 Q1307.49 1434.44 1303.67 1434.44 L1299.64 1434.44 L1299.64 1430.59 L1303.85 1430.59 Q1307.3 1430.59 1309.13 1429.23 Q1310.96 1427.84 1310.96 1425.25 Q1310.96 1422.58 1309.06 1421.17 Q1307.19 1419.74 1303.67 1419.74 Q1301.75 1419.74 1299.55 1420.15 Q1297.35 1420.57 1294.71 1421.45 L1294.71 1417.28 Q1297.37 1416.54 1299.69 1416.17 Q1302.02 1415.8 1304.08 1415.8 Q1309.41 1415.8 1312.51 1418.23 Q1315.61 1420.64 1315.61 1424.76 Q1315.61 1427.63 1313.97 1429.62 Q1312.32 1431.59 1309.29 1432.35 Z" fill="#000000" fill-rule="nonzero" fill-opacity="1" /><path clip-path="url(#clip260)" d="M1325.29 1445.11 L1330.17 1445.11 L1330.17 1450.99 L1325.29 1450.99 L1325.29 1445.11 Z" fill="#000000" fill-rule="nonzero" fill-opacity="1" /><path clip-path="url(#clip260)" d="M1350.36 1419.51 Q1346.75 1419.51 1344.92 1423.07 Q1343.11 1426.61 1343.11 1433.74 Q1343.11 1440.85 1344.92 1444.41 Q1346.75 1447.95 1350.36 1447.95 Q1353.99 1447.95 1355.8 1444.41 Q1357.62 1440.85 1357.62 1433.74 Q1357.62 1426.61 1355.8 1423.07 Q1353.99 1419.51 1350.36 1419.51 M1350.36 1415.8 Q1356.17 1415.8 1359.22 1420.41 Q1362.3 1424.99 1362.3 1433.74 Q1362.3 1442.47 1359.22 1447.08 Q1356.17 1451.66 1350.36 1451.66 Q1344.55 1451.66 1341.47 1447.08 Q1338.41 1442.47 1338.41 1433.74 Q1338.41 1424.99 1341.47 1420.41 Q1344.55 1415.8 1350.36 1415.8 Z" fill="#000000" fill-rule="nonzero" fill-opacity="1" /><polyline clip-path="url(#clip260)" style="stroke:#000000; stroke-linecap:round; stroke-linejoin:round; stroke-width:4; stroke-opacity:1; fill:none" points="1384.54,1410.41 1800,1050.61 "/>
<polyline clip-path="url(#clip260)" style="stroke:#000000; stroke-linecap:round; stroke-linejoin:round; stroke-width:4; stroke-opacity:1; fill:none" points="1421.02,1378.81 1412.39,1376.32 "/>
<polyline clip-path="url(#clip260)" style="stroke:#000000; stroke-linecap:round; stroke-linejoin:round; stroke-width:4; stroke-opacity:1; fill:none" points="1502.73,1308.05 1494.1,1305.56 "/>
<polyline clip-path="url(#clip260)" style="stroke:#000000; stroke-linecap:round; stroke-linejoin:round; stroke-width:4; stroke-opacity:1; fill:none" points="1584.44,1237.29 1575.81,1234.8 "/>
<polyline clip-path="url(#clip260)" style="stroke:#000000; stroke-linecap:round; stroke-linejoin:round; stroke-width:4; stroke-opacity:1; fill:none" points="1666.15,1166.53 1657.52,1164.04 "/>
<polyline clip-path="url(#clip260)" style="stroke:#000000; stroke-linecap:round; stroke-linejoin:round; stroke-width:4; stroke-opacity:1; fill:none" points="1747.86,1095.77 1739.22,1093.27 "/>
<path clip-path="url(#clip260)" d="M1448.42 1391.88 L1436.61 1410.33 L1448.42 1410.33 L1448.42 1391.88 M1447.19 1387.81 L1453.07 1387.81 L1453.07 1410.33 L1458 1410.33 L1458 1414.22 L1453.07 1414.22 L1453.07 1422.37 L1448.42 1422.37 L1448.42 1414.22 L1432.82 1414.22 L1432.82 1409.71 L1447.19 1387.81 Z" fill="#000000" fill-rule="nonzero" fill-opacity="1" /><path clip-path="url(#clip260)" d="M1515.98 1317.05 L1534.34 1317.05 L1534.34 1320.98 L1520.27 1320.98 L1520.27 1329.45 Q1521.29 1329.11 1522.3 1328.94 Q1523.32 1328.76 1524.34 1328.76 Q1530.13 1328.76 1533.51 1331.93 Q1536.89 1335.1 1536.89 1340.52 Q1536.89 1346.1 1533.41 1349.2 Q1529.94 1352.28 1523.62 1352.28 Q1521.45 1352.28 1519.18 1351.91 Q1516.93 1351.54 1514.53 1350.8 L1514.53 1346.1 Q1516.61 1347.23 1518.83 1347.79 Q1521.05 1348.34 1523.53 1348.34 Q1527.54 1348.34 1529.87 1346.24 Q1532.21 1344.13 1532.21 1340.52 Q1532.21 1336.91 1529.87 1334.8 Q1527.54 1332.69 1523.53 1332.69 Q1521.66 1332.69 1519.78 1333.11 Q1517.93 1333.53 1515.98 1334.41 L1515.98 1317.05 Z" fill="#000000" fill-rule="nonzero" fill-opacity="1" /><path clip-path="url(#clip260)" d="M1608.57 1261.7 Q1605.42 1261.7 1603.57 1263.85 Q1601.74 1266.01 1601.74 1269.76 Q1601.74 1273.48 1603.57 1275.66 Q1605.42 1277.81 1608.57 1277.81 Q1611.72 1277.81 1613.55 1275.66 Q1615.4 1273.48 1615.4 1269.76 Q1615.4 1266.01 1613.55 1263.85 Q1611.72 1261.7 1608.57 1261.7 M1617.86 1247.05 L1617.86 1251.31 Q1616.1 1250.47 1614.29 1250.03 Q1612.51 1249.59 1610.75 1249.59 Q1606.12 1249.59 1603.67 1252.72 Q1601.24 1255.84 1600.89 1262.16 Q1602.25 1260.15 1604.31 1259.09 Q1606.37 1258 1608.85 1258 Q1614.06 1258 1617.07 1261.17 Q1620.1 1264.32 1620.1 1269.76 Q1620.1 1275.08 1616.95 1278.3 Q1613.8 1281.52 1608.57 1281.52 Q1602.58 1281.52 1599.41 1276.93 Q1596.24 1272.33 1596.24 1263.6 Q1596.24 1255.4 1600.12 1250.54 Q1604.01 1245.66 1610.56 1245.66 Q1612.32 1245.66 1614.11 1246.01 Q1615.91 1246.35 1617.86 1247.05 Z" fill="#000000" fill-rule="nonzero" fill-opacity="1" /><path clip-path="url(#clip260)" d="M1677.94 1175.52 L1700.17 1175.52 L1700.17 1177.51 L1687.62 1210.08 L1682.74 1210.08 L1694.54 1179.46 L1677.94 1179.46 L1677.94 1175.52 Z" fill="#000000" fill-rule="nonzero" fill-opacity="1" /><path clip-path="url(#clip260)" d="M1771.5 1122.91 Q1768.17 1122.91 1766.25 1124.69 Q1764.35 1126.47 1764.35 1129.6 Q1764.35 1132.72 1766.25 1134.51 Q1768.17 1136.29 1771.5 1136.29 Q1774.84 1136.29 1776.76 1134.51 Q1778.68 1132.7 1778.68 1129.6 Q1778.68 1126.47 1776.76 1124.69 Q1774.86 1122.91 1771.5 1122.91 M1766.83 1120.92 Q1763.82 1120.18 1762.13 1118.12 Q1760.46 1116.06 1760.46 1113.09 Q1760.46 1108.95 1763.4 1106.54 Q1766.37 1104.14 1771.5 1104.14 Q1776.67 1104.14 1779.61 1106.54 Q1782.55 1108.95 1782.55 1113.09 Q1782.55 1116.06 1780.86 1118.12 Q1779.19 1120.18 1776.2 1120.92 Q1779.58 1121.7 1781.46 1124 Q1783.36 1126.29 1783.36 1129.6 Q1783.36 1134.62 1780.28 1137.31 Q1777.22 1139.99 1771.5 1139.99 Q1765.79 1139.99 1762.71 1137.31 Q1759.65 1134.62 1759.65 1129.6 Q1759.65 1126.29 1761.55 1124 Q1763.45 1121.7 1766.83 1120.92 M1765.12 1113.53 Q1765.12 1116.22 1766.78 1117.72 Q1768.47 1119.23 1771.5 1119.23 Q1774.51 1119.23 1776.2 1117.72 Q1777.92 1116.22 1777.92 1113.53 Q1777.92 1110.85 1776.2 1109.34 Q1774.51 1107.84 1771.5 1107.84 Q1768.47 1107.84 1766.78 1109.34 Q1765.12 1110.85 1765.12 1113.53 Z" fill="#000000" fill-rule="nonzero" fill-opacity="1" /><polyline clip-path="url(#clip260)" style="stroke:#000000; stroke-linecap:round; stroke-linejoin:round; stroke-width:4; stroke-opacity:1; fill:none" points="664.934,1202.68 664.934,483.08 "/>
<polyline clip-path="url(#clip260)" style="stroke:#000000; stroke-linecap:round; stroke-linejoin:round; stroke-width:4; stroke-opacity:1; fill:none" points="664.934,1123.91 669.92,1119.6 "/>
<polyline clip-path="url(#clip260)" style="stroke:#000000; stroke-linecap:round; stroke-linejoin:round; stroke-width:4; stroke-opacity:1; fill:none" points="664.934,1009.21 669.92,1004.89 "/>
<polyline clip-path="url(#clip260)" style="stroke:#000000; stroke-linecap:round; stroke-linejoin:round; stroke-width:4; stroke-opacity:1; fill:none" points="664.934,894.512 669.92,890.194 "/>
<polyline clip-path="url(#clip260)" style="stroke:#000000; stroke-linecap:round; stroke-linejoin:round; stroke-width:4; stroke-opacity:1; fill:none" points="664.934,779.811 669.92,775.494 "/>
<polyline clip-path="url(#clip260)" style="stroke:#000000; stroke-linecap:round; stroke-linejoin:round; stroke-width:4; stroke-opacity:1; fill:none" points="664.934,665.111 669.92,660.793 "/>
<polyline clip-path="url(#clip260)" style="stroke:#000000; stroke-linecap:round; stroke-linejoin:round; stroke-width:4; stroke-opacity:1; fill:none" points="664.934,550.41 669.92,546.093 "/>
<path clip-path="url(#clip260)" d="M626.551 1110.71 L614.746 1129.16 L626.551 1129.16 L626.551 1110.71 M625.324 1106.63 L631.204 1106.63 L631.204 1129.16 L636.134 1129.16 L636.134 1133.04 L631.204 1133.04 L631.204 1141.19 L626.551 1141.19 L626.551 1133.04 L610.949 1133.04 L610.949 1128.53 L625.324 1106.63 Z" fill="#000000" fill-rule="nonzero" fill-opacity="1" /><path clip-path="url(#clip260)" d="M615.232 991.932 L633.588 991.932 L633.588 995.868 L619.514 995.868 L619.514 1004.34 Q620.533 1003.99 621.551 1003.83 Q622.57 1003.65 623.588 1003.65 Q629.375 1003.65 632.755 1006.82 Q636.134 1009.99 636.134 1015.4 Q636.134 1020.98 632.662 1024.08 Q629.19 1027.16 622.871 1027.16 Q620.695 1027.16 618.426 1026.79 Q616.181 1026.42 613.773 1025.68 L613.773 1020.98 Q615.857 1022.12 618.079 1022.67 Q620.301 1023.23 622.778 1023.23 Q626.783 1023.23 629.121 1021.12 Q631.459 1019.02 631.459 1015.4 Q631.459 1011.79 629.121 1009.69 Q626.783 1007.58 622.778 1007.58 Q620.903 1007.58 619.028 1008 Q617.176 1008.41 615.232 1009.29 L615.232 991.932 Z" fill="#000000" fill-rule="nonzero" fill-opacity="1" /><path clip-path="url(#clip260)" d="M624.607 892.648 Q621.459 892.648 619.607 894.801 Q617.778 896.954 617.778 900.704 Q617.778 904.431 619.607 906.607 Q621.459 908.759 624.607 908.759 Q627.755 908.759 629.584 906.607 Q631.435 904.431 631.435 900.704 Q631.435 896.954 629.584 894.801 Q627.755 892.648 624.607 892.648 M633.889 877.996 L633.889 882.255 Q632.13 881.422 630.324 880.982 Q628.542 880.542 626.783 880.542 Q622.153 880.542 619.699 883.667 Q617.269 886.792 616.922 893.111 Q618.287 891.098 620.347 890.033 Q622.408 888.945 624.884 888.945 Q630.093 888.945 633.102 892.116 Q636.134 895.264 636.134 900.704 Q636.134 906.028 632.986 909.246 Q629.838 912.463 624.607 912.463 Q618.611 912.463 615.44 907.88 Q612.269 903.273 612.269 894.547 Q612.269 886.352 616.158 881.491 Q620.047 876.607 626.597 876.607 Q628.357 876.607 630.139 876.954 Q631.945 877.301 633.889 877.996 Z" fill="#000000" fill-rule="nonzero" fill-opacity="1" /><path clip-path="url(#clip260)" d="M613.912 762.531 L636.134 762.531 L636.134 764.522 L623.588 797.091 L618.704 797.091 L630.509 766.467 L613.912 766.467 L613.912 762.531 Z" fill="#000000" fill-rule="nonzero" fill-opacity="1" /><path clip-path="url(#clip260)" d="M624.283 665.979 Q620.949 665.979 619.028 667.761 Q617.13 669.544 617.13 672.669 Q617.13 675.794 619.028 677.576 Q620.949 679.359 624.283 679.359 Q627.616 679.359 629.537 677.576 Q631.459 675.771 631.459 672.669 Q631.459 669.544 629.537 667.761 Q627.639 665.979 624.283 665.979 M619.607 663.988 Q616.597 663.248 614.908 661.187 Q613.241 659.127 613.241 656.164 Q613.241 652.021 616.181 649.613 Q619.144 647.206 624.283 647.206 Q629.445 647.206 632.384 649.613 Q635.324 652.021 635.324 656.164 Q635.324 659.127 633.634 661.187 Q631.968 663.248 628.982 663.988 Q632.361 664.775 634.236 667.067 Q636.134 669.359 636.134 672.669 Q636.134 677.692 633.056 680.377 Q630 683.062 624.283 683.062 Q618.565 683.062 615.486 680.377 Q612.431 677.692 612.431 672.669 Q612.431 669.359 614.329 667.067 Q616.227 664.775 619.607 663.988 M617.894 656.604 Q617.894 659.289 619.56 660.794 Q621.25 662.298 624.283 662.298 Q627.292 662.298 628.982 660.794 Q630.695 659.289 630.695 656.604 Q630.695 653.919 628.982 652.414 Q627.292 650.91 624.283 650.91 Q621.25 650.91 619.56 652.414 Q617.894 653.919 617.894 656.604 Z" fill="#000000" fill-rule="nonzero" fill-opacity="1" /><path clip-path="url(#clip260)" d="M614.514 566.973 L614.514 562.714 Q616.273 563.547 618.079 563.987 Q619.885 564.427 621.621 564.427 Q626.25 564.427 628.681 561.325 Q631.134 558.2 631.482 551.857 Q630.139 553.848 628.079 554.913 Q626.019 555.978 623.519 555.978 Q618.334 555.978 615.301 552.853 Q612.292 549.704 612.292 544.265 Q612.292 538.941 615.44 535.723 Q618.588 532.505 623.82 532.505 Q629.815 532.505 632.963 537.112 Q636.134 541.695 636.134 550.445 Q636.134 558.616 632.246 563.501 Q628.38 568.362 621.829 568.362 Q620.07 568.362 618.264 568.015 Q616.459 567.667 614.514 566.973 M623.82 552.32 Q626.968 552.32 628.796 550.167 Q630.648 548.015 630.648 544.265 Q630.648 540.538 628.796 538.385 Q626.968 536.209 623.82 536.209 Q620.672 536.209 618.82 538.385 Q616.991 540.538 616.991 544.265 Q616.991 548.015 618.82 550.167 Q620.672 552.32 623.82 552.32 Z" fill="#000000" fill-rule="nonzero" fill-opacity="1" /><polyline clip-path="url(#clip262)" style="stroke:#009af9; stroke-linecap:round; stroke-linejoin:round; stroke-width:4; stroke-opacity:1; fill:none" points="938.646,951.745 940.118,949.664 940.577,948.911 943.708,944.83 943.373,945.056 942.105,946.411 944.276,943.534 939.363,949.407 939.705,948.672 949.078,936.708 950.832,934.451 965.062,916.68 970.439,910.311 971.632,909.398 964.322,919.048 959.64,924.846 957.901,927.008 938.272,951.158 946.685,940.181 930.711,958.795 915.837,975.308 902.615,989.288 898.947,990.512 882.547,1007.59 870.241,1018.7 847.091,1043.43 886.594,988.766 851,1031.7 873.169,1000.48 844.828,1036.54 794.135,1093.1 754.669,1132.55 755.128,1122.88 743.387,1131.51 759.941,1104.58 747.59,1123.8 706.309,1170.15 697.059,1178.01 723.704,1138.79 717.406,1147.99 700.35,1173.24 709.17,1156.16 781.66,1067.99 790.044,1071.03 843.05,1015.96 890.477,978.419 937.83,938.896 975.318,899.338 994.261,888.561 1015.5,876.51 978.875,920.054 1111.52,793.059 1061.38,849.532 1062.61,852.884 1035.06,870.933 1032.69,869.76 994.501,894.141 952.64,927.77 1034.97,836.597 1098.15,806.619 1123.14,795.883 1182.43,740.252 1146.56,785.85 1175.6,763.161 1121.56,811.505 1169.52,777.327 1053.92,861.232 993.215,918.547 940.436,954.652 933.433,956.242 963.301,922.529 1014.76,871.687 1083.91,811.466 1160.02,745.531 1148.21,772.09 1164.2,762.269 1098.73,816.537 1247.95,677.408 1226.91,714.868 1217.44,731.287 1230.95,714.356 1203.37,740.624 1048.09,877.246 1101.71,806.834 1015.83,874.19 1069.71,824.613 1038.42,872.341 949.592,938.666 941.75,941.34 935.596,943.276 1081.93,808.634 1093.8,817.536 1063.56,848.928 1083.49,841.182 1068.81,844.822 964.715,950.613 1108.98,797.613 1144.03,768.314 1124.25,800.412 1024.65,884.729 970.946,925.663 1008.62,886.505 978.626,907.1 978.691,900.163 956.488,933.806 991.462,909.667 1106.34,795.986 1153.54,765.228 1120.95,795.703 1165.5,760.462 1035.33,880.174 1035.74,884.1 1036.79,858.017 1100.34,819.991 1016.57,898.587 994.743,905.909 998.959,889.766 972.326,908.981 901.268,972.024 880.214,995.971 837.185,1025.09 751.906,1113.82 772.587,1088.54 791.128,1076.67 851.949,1020.25 868.361,999.973 856.212,1015.65 800.233,1074.62 820.548,1046.18 856.654,1005.5 801.426,1075 751.954,1122.63 756.026,1123.59 721.826,1164.03 742.685,1129.56 788.683,1073.88 868.413,999.028 866.208,1001.17 815.676,1059.89 820.917,1052.41 784.526,1081.15 782.521,1093.19 793.367,1079.21 778.948,1097.63 813.899,1050.66 869.479,994.548 978.039,893.126 1013.58,871.592 1064.35,831.554 1107.77,799.883 1073.86,830.536 1057.69,834.86 1033.37,866.527 980.612,916.203 898.665,979.862 925.392,954.866 851.794,1032.89 791.557,1091.63 783.058,1087.38 841.592,1019.41 772.345,1102.7 741.715,1126.51 735.416,1128.67 775.631,1085.19 843.656,1012.96 854.059,1007.16 872.461,997.463 912.133,953.681 904.96,967.536 924.317,957.002 880.764,1009.14 885.456,992.656 941.303,942.569 952.317,929.259 1028.55,854.194 1099.07,787.873 1074.86,827.526 1103.01,810.057 1184.9,750.172 1137.22,792.179 1184.82,729.546 1200.75,719.071 1111.56,805.081 1112.88,803.565 1115.69,800.658 1155.38,790.793 1239.4,721.607 1164.31,780.087 1197.43,750.049 1145.31,787.075 1092.3,825.447 1017.39,895.149 955.767,946.69 870.854,1015.55 857.164,1018 861.43,1010.11 873.146,999.923 962.076,913.583 958.272,932.976 1021.32,873.034 1037.21,863.902 1123.08,789.306 1119.64,798.065 1154.48,751.94 1154.9,767.1 1152.71,780.265 1115.69,810.257 1090.06,824.486 1154.59,759.621 1166.38,762.288 1107.22,830.997 1063.96,864.419 1005.66,909.787 1004.71,905.776 1035.96,861.644 1070.88,820.183 989.827,907.352 1022.96,882.076 1032.67,866.742 1034,876.589 985.657,912.795 1081.15,813.906 1123.8,778.936 1076.78,825.318 1075.27,838.303 1008.19,917.523 982.527,911.314 951.638,940.293 969.019,919.267 1010.55,872.34 1022.15,871.433 1030.83,866.05 1017.46,878.791 1055.06,840.759 1051.96,853.701 985.112,915.254 951.098,947.174 1003.84,889.805 1035.27,861.199 1131.98,785.518 1193.32,733.839 1228.68,692.386 1187.18,751.654 1212.21,732.49 1252.45,699.371 1218.86,743.978 1073.57,863.901 1023.6,898.133 1037.01,873.359 1046.84,861.806 1123.92,786.429 1198.74,722.999 1189.98,746.387 1252.34,709.883 1247.38,715.743 1235.93,713.382 1203.41,743.419 1212.78,738.263 1179.49,758.293 1166.45,771.163 1203.11,749.962 1185.98,762.43 1220.43,740.85 1140.18,787.596 1183.7,754.43 1194.48,743.418 1219.6,729.594 1152.44,785.281 1129.67,793.093 1223.37,702.395 1201.32,739.755 1200.14,742.717 1128.19,796.092 1146.91,770.078 1134.15,791.492 1139.62,784.78 1109.64,799.683 1202.63,715.091 1166.81,763.397 1198.94,745.866 1229.45,702.158 1102.47,811.654 969.816,917.68 1010.77,878.884 1106.23,805.595 1096.11,812.76 1049.46,859.905 1104.82,801.042 1087.56,816.372 1178.25,761.476 1176.1,749.332 1123.72,799.518 1068.83,845.077 1016.14,891.861 938.53,968.378 923.007,970.457 937.258,946.687 864.664,1021.69 893.628,981.304 887.108,987.521 902.393,961.856 927.352,946.271 898.799,980.144 882.262,1003.58 852.868,1022.97 862.26,1013.62 950.081,907.74 1052.25,827.634 1076.77,816.625 1182.58,719.677 1159.33,760.519 1152.31,770.303 1148.95,769.088 1233.28,699.267 1342.97,603.775 1339.3,622.843 1329.55,645.178 1203.3,756.932 1165.61,778.62 1136.64,794.786 1265.73,672.853 1252.85,689.864 1184.44,757.619 1157.91,779.527 1125.65,807.998 1168.44,767.248 1241.83,707.005 1371.23,617.636 1324.65,655.79 1379.57,608.808 1210.24,739.342 1187.65,763.437 1115.63,826.733 1173.36,757.731 1220.56,718.967 1200.75,743.554 1196.26,741.258 1130.57,792.52 1017.1,897.987 937.522,962.426 984.056,902.696 930.949,964.849 936.36,955.435 957.357,934.142 838.782,1043.63 821.223,1057.69 842.414,1033.33 808.404,1063.77 793.621,1076.01 832.493,1049.05 887.368,982.398 855.271,1018.87 872.576,997.891 977.549,896.772 972.992,914.956 1027.82,858.832 1104.65,783.946 1119.37,777.985 1163.83,756.696 1195.25,749.927 1206.69,742.058 1139.82,803.692 1160.06,780.921 1190.45,754.128 1144.75,801.338 1078.19,841.352 1119.27,797.71 1141.77,779.128 1081.97,837.847 1143.79,781.499 1222.69,726.155 1214.54,743.543 1242.06,715.869 1250.9,708.774 1185.96,764.199 1115.12,836.733 1083.76,849.303 1210.01,719.643 1197.17,734.05 1159.8,785.973 1250.78,713.895 1241.92,702.083 1225.15,716.135 1195.99,738.328 1157,770.662 1095.47,804.322 1067.36,855.605 993.073,915.159 957.075,938.034 956.833,948.997 1025.37,885.837 1059.19,850.032 1087.44,813.309 1113.5,790.811 1139.63,787.857 1106.01,812.2 1046.27,864.155 1136.16,779.701 1130.88,803.206 1195.61,736.223 1273.55,673.357 1269.18,676.235 1210.03,727.298 1095.93,816.574 981.175,920.373 934.817,957.003 1042.59,848.009 1130.78,799.169 1084.43,838.829 1142.62,773.56 1065.69,839.169 1084.63,816.439 1243.55,662.193 1253.57,675.167 1232.8,713.836 1265.86,674.901 1289.62,664.901 1331.66,631.791 1326.3,646.349 1310.17,667.502 1254.32,720.072 1220.84,736.106 1130.49,814.357 1161,772.07 1193.73,735.39 1113.29,812.06 1135.13,787.355 1171.28,750.939 1102.99,816.361 1182.99,727.238 1295.01,662.208 1295.15,676.877 1337.53,634.917 1312.77,665.02 1281.23,692.678 1255.4,702.756 1186.69,765.937 1245.52,709.164 1228.47,735.625 1114.52,836.749 1050.42,883.422 1022.56,890.799 1042.89,861.67 1042.9,853.851 1071.85,834.615 1071.7,829.951 1185.17,737.699 1206.94,729.548 1178.51,763.54 1197.35,741.068 1187.61,752.712 1205.79,745.738 1288,693.223 1217.59,757.501 1151.06,791.218 1072.85,861.818 993.87,922.016 935.665,977.5 963.931,931.665 951.856,938.737 943.313,944.45 995.364,898.754 1009.8,888.963 1010.86,889.181 1009.26,889.34 996.799,905.72 923.357,968.044 929.127,962.947 860.439,1027.81 854.813,1026.41 897.85,977.192 928.544,950.242 1020.78,869.885 1129.92,771.306 1304.16,619.374 1363.06,593.06 1449.37,538.569 1491.25,526.836 1452.2,556.736 1428.3,588.897 1443.4,569.699 1525.17,504.964 1541.5,514.163 1583.66,494.091 1557.17,514.395 1543.51,525.574 1557.22,505.46 1530.28,520.146 1457.92,572.579 1473.57,560.615 1404.2,623.943 1339.81,675.687 1325.5,667.696 1283.7,693.271 1250.73,712.819 1138.06,815.299 1159.21,780.115 1197.94,737.644 1180.08,759.504 1179.42,759.18 1175.26,752.459 1108.58,820.802 1127.36,786.006 1125.87,797.439 1091.36,838.141 1031.83,886.159 978.365,928.998 1004.41,890.044 1045.21,846.361 1057.62,843.713 1093.39,808.841 1162.25,750.961 1303.64,635.095 1345.48,615.19 1309.18,674.966 1371.7,612.224 1494.85,520.211 1373.89,642.164 1301.1,691.251 1215.97,751.934 1209.46,746.437 1153.13,787.401 1046.52,876.912 1083.3,824.661 1053.78,850.611 1041.02,862.704 958.424,941.652 913.545,979.67 920.265,959.789 944.785,940.4 982.358,902.559 1010.39,882.822 988.372,912.321 1093.49,802.17 1101.28,807.82 1011.74,889.18 974.104,938.233 996.463,892.788 976.585,919.75 991.882,902.987 945.444,944.261 928.112,961.248 998.008,882.856 1003.2,885.325 1050.37,833.365 1195.36,715.541 1191,737.16 1284.92,653.451 1195.01,748.584 1227.31,716.066 1142.79,781.864 1075.41,842.715 1058.31,858.377 1182.02,737.444 1204.53,729.983 1243.81,695.407 1117.84,795.745 1169.8,735.223 1131.93,787.561 1133.57,798.335 1129.51,810.55 1110,834.686 1043.49,883.96 1148.98,766.192 1141.75,775.252 1230.03,709.041 1206.32,732.632 1148.97,787.844 1091.76,830.993 1150.36,764.409 1194.39,733.066 1156.25,774.295 1150.25,776.548 1166.77,752.278 1106.95,800.826 1155.98,755.083 1164.34,749.77 1178.58,742.971 1193.65,741.342 1120.61,816.05 974.795,947.05 949.523,955.997 900.486,992.73 877.432,1004.81 912.561,962.621 936.094,934.99 997.207,875.754 953.085,927.061 984.585,898.011 1038.57,856.519 999.528,899.942 949.446,945.804 936.111,944.062 929.35,957.441 907.807,967.534 904.955,972.996 913.86,962.037 917.654,971.048 902.359,978.679 898.174,980.549 857.664,1010.26 795.839,1076.2 776.785,1098.93 816.287,1053.47 821.391,1052.03 816.879,1051.38 861.902,1011.36 859.273,1020.94 856.192,1023.78 806.707,1068.6 813.8,1047.52 786.171,1075.17 790.804,1076.2 845.178,1018.55 859.733,1007.69 843.184,1031.93 888.826,981.993 925.598,942.588 941.226,941.296 947.255,933.535 997.035,874.024 980.704,896.203 904.653,970.362 879.205,1002 849.364,1037.42 835.948,1032.61 842.166,1024.23 836.764,1034.77 755.478,1123.79 720.01,1159.54 751.378,1119.12 736.265,1131.72 772.378,1086.6 774.254,1089.24 782.574,1082.66 783.536,1085.72 888.001,972.525 952.913,916.963 1052.11,831.036 1086.31,802.648 1171.36,738.097 1254.81,685.608 1319.49,637.028 1309.79,650.579 1333.12,647.402 1307.35,667.861 1335.76,641.784 1280.72,681.887 1116.68,820.433 1099.11,817.708 1091.02,823.153 1076.54,830.775 1122.05,788.734 1176.69,743.923 1230.16,712.497 1160.27,781.59 1128.7,800.639 1171.9,753.44 1048.22,858.504 1064.84,843.727 1032.08,881.575 1005.07,897.551 966.055,931.391 927.982,969.627 896.728,996.651 863.904,1019.32 913.151,961.405 911.914,960.486 912.858,965.391 902.856,983.341 889.91,985.24 981.48,887.064 993.525,878.312 1014.23,867.576 1049.08,841.807 1025.68,865.641 1040.02,849.378 949.285,941.113 979.07,900.552 939.176,941.606 908.337,970.909 903.343,990.981 909.544,993.261 1010.6,887.001 985.437,912.994 1093.81,816.269 1100.67,829.174 1105.63,816.643 1119.52,819.832 1086.16,833.27 1125.53,803.018 1243.36,698.005 1192.72,773.847 1147.54,797.328 1111.75,823.433 1132.58,800.309 1193.63,760.564 1071.88,848.902 959.027,957.393 921.968,982.489 899.066,989.049 900.514,975.807 968.721,906.701 1000.72,880.357 1038.78,854.359 1015.94,879.483 986.573,899.567 986.37,900.243 1039.12,854.797 1110.07,796.577 1100.38,808.348 1247.64,684.956 1269.72,683.253 1219.07,738.591 1258.81,698.246 1139.23,786.083 1090.42,832.585 1127.95,791.601 1115.84,814.054 1036.24,866.922 1084.59,815.869 1089.33,814.077 1194.91,730.385 1150.29,783.528 1151.75,781.374 1196.4,736.616 1204.82,743.619 1205.21,737.864 1214.79,734.7 1255.78,697.689 1218.89,724.867 1171.52,765.522 1124.46,815.574 1272.69,679.606 1290.45,673.504 1339.48,644.016 1235.48,713.531 1266.52,691.428 1251.71,707.831 1188.64,753.654 1173.59,756.088 1153.88,772.18 1072.84,834.893 1052.18,854.499 1001.33,898.557 991.241,917.518 934.035,953.031 1000.05,876.357 984.093,905.682 1012.57,875.682 1075.43,810.793 1038.39,860.249 1100.16,799.357 1176.25,738.354 1141.03,773.75 1212.23,714.346 1196.26,739.572 1223.23,717.956 1266.84,685.469 1377.2,600.673 1337.24,629.958 1336.03,633.404 1322.75,648.129 1258.09,706.365 1364.26,617.157 1361.21,634.089 1331.55,654.914 1310.88,664.978 1361.37,607.197 1333.41,654.243 1481.68,529.841 1437.99,590.96 1357.33,649.551 1448.02,568.696 1339.45,665.68 1321,662.328 1283.39,691.568 1259.58,700.628 1123.7,830.339 1046.67,892.533 1021.56,898.707 994.068,909.412 961.784,940.741 980.935,916.343 980.615,910.143 999.151,900.284 964.66,924.809 1001.5,888.998 1083.4,804.247 1126.04,788.588 1254.4,676.009 1173.07,762.561 1129.05,792.832 1258.51,700.904 1152.27,790.301 1200.39,745.367 1108.35,811.755 1113.16,808.465 1133.72,784.793 1086.78,837.866 1067.23,851.019 1046.61,862.987 1146.73,767.431 1195.67,742.302 1138.33,807.333 1216.26,728.496 1224.49,742.278 1214.05,741.344 1279.55,666.69 1272.11,685.747 1276.44,675.198 1296.61,678.315 1186.17,767.342 1081.73,860.429 1066.55,858.565 1038.38,876.422 1075.34,838.228 1048.61,881.556 965.949,944.973 956.155,944.842 954.712,942.113 966.582,913.403 925.615,959.157 923.134,964.473 929.425,951.234 871.21,1007.3 878.714,999.536 941.841,940.362 939.241,947.557 915.841,964.633 867.43,1007.54 901.825,962.428 926.266,952.081 932.355,951.076 899.01,982.562 913.683,958.222 884.18,996.212 888.424,1003.82 892.998,997.923 957.86,929.94 941.435,946.201 960.274,936.261 972.564,921.67 934.842,962.41 943.13,951.361 1056.86,854.747 1012.32,896.456 918.9,980.327 876.661,1013.37 903.673,982.974 1053.56,834.336 1016.06,877.939 1063.64,833.715 1048.66,855.331 942.195,949.724 993.374,882.812 1069.7,818.904 1027.56,869.364 1012.46,886.251 999.22,893.326 955.961,926.162 952.068,909.384 942.473,918.966 943.577,930.303 951.498,934.918 937.881,949.86 979.01,916.16 1020.08,876.451 919.618,967.608 842.235,1029.09 807.876,1066.32 870.403,990.759 812.169,1061.23 856.503,1016.14 829.116,1041.22 888.186,973.54 965.077,899.169 932.899,947.154 912.43,970.79 979.11,891.392 1033.25,866.922 1043.76,863.453 1053.49,847.407 1011.72,891.599 1007.78,900.083 935.495,965.051 901.4,990.643 951.345,932.204 1046.88,847.529 1149.62,747.05 1182.37,746.024 1143.45,790.329 1186.09,748.421 1135.39,804.39 1146.57,782.239 1088,838.089 1133.49,788.665 1130.52,786.772 1198.48,728.56 1189.94,747.969 1291.3,689.214 1275.66,697.645 1123.31,818.331 1109.83,817.564 1173.17,755.652 1136.89,788.708 1177.55,749.235 1111.99,822.051 1155.42,759.42 1130.17,798.944 1168.88,773.184 1077.01,840.671 1018.84,882.568 957.819,940.158 989.778,913.713 983.903,915.217 959.61,927.174 963.718,913.808 933.638,946.911 838.394,1045.53 941.918,946.18 980.21,901.433 971.918,906.143 1041.61,843.597 1144.31,758.152 1128.05,774.292 1042.85,869.89 1017.58,869.378 1005.23,909.146 1046.32,872.24 1026.59,873.691 1155.07,770.128 1176.45,752.18 1154.69,779.697 1182.56,741.601 1227.8,698.831 1343.32,625.584 1339.8,649.232 1303.37,666.623 1276.6,686.455 1137.44,806.865 1087.53,846.21 987.906,927.823 926.475,982.33 871.647,1024.44 859.8,1022.26 891.265,978.25 863.696,1011.95 856.428,1016.05 824.507,1046.3 832.355,1042.33 858.33,1011.89 886.414,984.592 988.598,877.089 1046.45,834.205 1060.01,838.294 1086.87,830.258 1077.03,841.531 1093.23,799.969 1138.67,766.623 1169.71,759.649 1142.08,782.229 1163.31,756.87 1176.66,754.634 1078.82,838.525 1048.51,855.227 1083.21,829.154 1003.8,898.939 1044.41,850.334 1110.91,800.541 1064.38,855.39 1049.22,859.99 1045.58,854.879 985.609,913.739 1005.35,895.507 1050.4,847.891 1082.97,818.138 1068.83,831.12 1025.13,876.014 1060.47,832.75 1024.43,871.992 1025.26,879.341 1039.8,865.157 1090.96,843.908 1013.18,913.468 1011.74,903.205 1050.18,850.509 1107.09,822.253 1097.11,823.08 1105.09,825.904 1149.11,791.971 1302.7,670.583 1343.23,645.991 1266.19,710.754 1201.29,752.19 1165.33,773.756 1060.89,863.829 1059.2,850.286 998.157,908.059 1057.23,839.638 1089.83,811.593 982.952,905.366 958.312,932.091 909.462,972.449 883.056,993.782 862.767,1006.63 938.824,921.849 993.251,882.964 1032.41,860.455 1077.72,825.319 1133.51,786.487 1116.23,806.6 1093.48,829.52 1085.13,829.066 1006.35,903.556 1000.21,911.38 940.933,974.83 925.319,971.383 890.237,999.33 855.639,1027.47 859.348,1017.74 790.979,1082.51 821.506,1047.9 804.244,1072.07 763.683,1111.18 742.768,1127.99 759.546,1108.63 751.54,1116.12 792.315,1073.72 747.507,1123.19 773.268,1087.83 789.08,1079.66 773.263,1101.8 794.908,1074.29 785.666,1082.28 795.803,1077.67 809.379,1060.08 824.68,1043.38 848.779,1023.5 807.494,1064.68 810.069,1052.63 836.361,1035.06 881.125,1000.36 888.404,999.341 934.875,943.777 993.83,894.816 981.07,918.098 962.227,935.861 888.562,987.691 914.954,960.361 915.231,966.581 943.984,934.565 838.44,1040.44 859.552,1015.1 881.216,994.04 960.392,931.013 955.541,932.835 1007.55,882.229 998.998,893.089 997.076,890.788 1048.24,846.782 1123.35,787.87 1019.4,884.221 1009.95,895.153 1030.08,867.037 1069.66,831.474 1055.23,843.217 881.002,987.941 934.921,938.986 915.173,967.384 919.134,965.809 949.445,929.181 964.125,916.009 963.513,917.56 1016.33,880.208 969.282,930.058 1037.56,864.329 970.275,932.924 1020.7,892.178 1071.77,848.786 998.019,913.509 944.102,957.796 891.223,995.247 927.661,957.503 998.864,904.916 961.274,939.417 933.568,965.088 945.429,938.969 1006.34,865.469 982.73,899.568 1121.33,773.02 1088.15,827.006 1021.98,882.989 1060.19,860.029 1018.92,900.581 1102.61,797.356 982.228,901.105 1036.98,837.701 1079.96,809.022 1086.33,810.43 1203.5,728.371 1215.59,737.51 1184.52,766.18 1173.26,762.762 1174.97,771.49 1207.01,748.248 1190.95,752.573 1188.29,745.08 1160.16,764.579 1126.02,804.487 1222.82,743.097 1260.37,701.6 1355.01,630.5 1369.72,626.879 1388.65,606.319 1305.92,683.407 1331.3,647.239 1391.53,596.444 1268.71,691.583 1284.22,677.628 1282.6,688.127 1141.65,805.254 1086.29,841.349 1075.43,845.787 1046.58,866.291 1083.22,834.269 1107.3,805.839 1025.54,874.754 1057.38,847.67 1081.33,833.492 1096.52,815.001 1123.77,793.831 1184.84,727.347 1198.52,722.24 1170.92,762.612 1097.7,823.706 1060.42,852.352 1067.31,840.515 1110.37,789.751 1149.15,786.138 1121.47,815.619 1105.18,824.71 1094.77,823.387 1110.14,804.216 1183.62,732.08 1270.46,667.996 1309.49,644.926 1317.24,648.438 1281.11,682.709 1228.19,733.012 1168.08,780.888 1136.25,801.169 1054.01,866.439 1007.62,897.095 1017.62,881.686 1015.96,888.354 975.191,917.641 936.515,954.509 982.191,896.716 1030.96,855.036 976.091,923.648 1019.96,872.204 1050.29,837.694 1030.34,871.7 1050.23,852.667 1007.92,884.755 983.236,922.155 964.18,929.436 968.301,919.734 1024.09,867.919 1025.33,869.49 1009.23,884.449 1033.68,869.436 1059.8,842.064 1123.61,784.581 1207.91,716.261 1076.55,840.349 1094.09,821.793 1223.99,696.029 1254.61,679.529 1297.17,650.433 1236.8,716.896 1147.11,802.124 1051.53,879.883 999.225,920.044 1040.61,863.134 1099.72,801.356 1273.14,649.696 1301.31,653.63 1282.07,684.694 1287.29,682.141 1294.72,678.073 1273.7,688.579 1304.44,663.911 1328.38,659.579 1443.67,556.634 1400.07,623.531 1421.15,601.801 1445.87,574.423 1330.84,678.844 1217.67,763.279 1161.09,796.963 1116.68,827.069 1091.9,835.819 1100.29,819.44 1061.75,854.108 1014.52,888.895 1048.31,850.445 1033.51,866.64 992.297,904.759 1030.53,862.563 952.842,945.778 1012.67,876.837 1052.33,846.09 1016.1,886.957 1042.17,853.366 1026.27,880.951 1055.14,852.897 1121.52,777.245 1139.36,771.805 1146.42,776.418 1092.9,829.967 1066.08,847.001 992.373,916.36 1130.27,782.372 1179.65,739.398 1145.31,779.275 1088.11,839.172 1118.13,793.671 1102.22,809.598 1107.44,798.657 959.895,927.529 899.203,995.979 874.983,1011.75 875.923,1003.77 852.402,1019.47 841.811,1030.35 839.746,1029.35 883.715,985.845 868.843,1010.77 831.207,1050.88 828.864,1048.04 799.733,1067.02 859.936,1006.81 871.825,997.622 927.454,938.758 998.943,881.604 969.34,920.847 894.587,1000.75 940.078,948.048 951.488,945.889 1016.48,873.145 1049.92,849.397 1150.3,772.516 1173.66,757.414 1187.21,756.278 1049.29,865.016 1125.88,798.972 1010.46,895.223 1086.38,820.76 1137.9,788.836 1043.45,888.276 1050.35,864.883 1123.32,782.49 1134.21,783.351 1035.3,889.302 1068.88,840.864 1118.09,788.454 1193.98,719.303 1184.59,744.089 1192.15,742.825 1194.28,743.252 1192.2,748.293 1160.57,783.903 1118.53,820.258 972.795,949.664 948.125,958.717 947.598,950.063 915.627,985.684 833.686,1059.23 850.575,1030.29 803.019,1081.16 817.999,1059.17 873.826,991.529 869.232,1010.29 838.365,1040.03 759.132,1126.75 760.318,1113.96 781.349,1084.82 852.368,1006.01 862.002,1005.03 905.162,965.58 892.646,984.622 920.162,959.116 1003.28,886.402 1014.01,879.869 970.435,934.493 1078.97,818.302 1177.35,733.519 1099.62,809.572 1074.15,825.555 1091.33,809.18 1113.67,788.087 1127.15,796.787 1100.63,833.271 1193.67,743.901 1188.5,755.219 1188.19,759.844 1146.2,783.518 1190.01,755.237 1160.3,777.524 1233.48,732.896 1207.1,732.817 1207.89,740.403 1248.66,701.761 1355.75,602.974 1372.69,613.821 1332.86,656.07 1320.05,663.535 1422.2,567.672 1468.02,551.722 1388.14,613.718 1363.58,636.791 1438,567.73 1385.13,630.864 1353.37,638.004 1310.14,670.882 1274.49,697.239 1296.55,678.218 1184.78,769.689 1170.73,777.33 1136.65,802.726 1020.75,900.026 994.553,913.339 1027.07,876.285 1054.21,840.023 1107.98,799.325 1030.99,879.667 1013.63,883.887 1015.15,878.603 1014.87,878.624 957.702,942.904 959.023,933.179 979.095,912.203 980.268,903.885 982.972,908.814 974.309,907.95 915.999,975.852 876.637,1003.51 931.288,938.264 921.031,947.445 1056.61,814.044 1051.68,847.121 1056.86,842.931 1025.19,873.866 1163.68,738.468 1199.67,716.303 1302.79,641.522 1264.88,695.032 1319.54,644.095 1260.29,703.977 1169.22,777.977 1138.22,804.983 1154.04,778.236 1193.71,735.283 1258.24,706.221 1172.08,778.502 1089.41,847.824 1141.48,781.141 1269.96,665.746 1171.12,773.091 1184.62,739.933 1204.5,732.711 1239.87,710.184 1093.16,839.026 1129.56,786.998 1049.77,858.608 1014.49,889.947 934.006,955.245 914.225,965.864 856.294,1022.53 899.238,980.462 890.369,987.961 921.431,969.432 978.955,898.894 1090.77,797.918 1089.78,814.55 1099.14,815.329 1087.43,829.359 1085.77,833.105 1184.73,741.957 1214.8,726.52 1216.92,723.966 1254.72,686.3 1142.14,778.179 1144.02,789.457 1083.39,847.711 1072.75,836.856 1001.15,906.472 962.453,936.728 1006.13,890.223 980.319,916.332 950.825,944.905 912.781,976.718 889.404,993.262 886.482,995.619 917.343,968.198 955.38,936.492 1032.75,855.587 1068.25,836.467 1080.5,812.864 1256.14,663.367 1312.93,621.41 1362.66,602.014 1308.01,655.394 1340.22,630.991 1328.66,643.201 1360.93,625.707 1436.25,570.29 1495.51,513.533 1481.53,556.028 1326.65,687.065 1338.66,657.024 1295.32,678.315 1377.44,597.931 1266.01,713.481 1214.39,748.98 1199.99,747.56 1131.3,802.077 1154.67,769.074 1161.99,768.74 1281.39,661.718 1383.77,574.94 1416.69,577.209 1350.22,647.044 1302.21,691.057 1372.15,626.208 1415.75,584.025 1355.14,649.114 1269.07,708.864 1309.35,669.64 1308.02,667.646 1276.25,703.425 1190.19,773.887 1266.26,692.005 1321.47,644.581 1337.67,638.661 1223.88,736.097 1225.49,718.604 1207.03,741.498 1135.7,800.832 1130.45,797.769 1078.68,846.735 1065.61,841.46 1108.77,796.211 1008.83,895.992 1015.87,884.212 1083.76,828.477 1012.63,895.178 1046.71,854.896 928.328,969.297 945.538,944.997 966.67,921.317 923.288,967.187 862.764,1032.7 857.644,1022.66 890.402,975.885 931.274,942.05 913.86,966.158 923.351,956.062 968.795,908.959 1048.84,839.884 1063.15,834.04 1068.83,829.577 1101.47,799.764 1064.07,827.744 1095.62,818.473 1110.79,803.565 1104.75,816.061 1133.07,799.744 1265.68,684.43 1240.94,714.882 1213.66,727.956 1277.21,670.015 1329.11,629.432 1248.53,709.063 1255.32,709.77 1218.05,728.195 1269.71,676.427 1282.47,671.872 1269.24,700.825 1261.42,702.926 1236.26,717.49 1217.8,726.056 1202.31,741.784 1135.3,803.633 1163.55,773.741 1271.43,686.318 1263.91,714.726 1185.28,767.254 1151.58,785.975 1048.7,871.235 1056.26,849.944 1049.49,869.147 1123.32,792.539 1098.53,824.922 1114.13,811.573 1016.03,876.369 1002.38,891.701 969.541,924.071 944.241,948.292 1022.82,869.415 993.295,903.027 997.236,900.462 872.857,1020.47 875.961,1001.7 838.785,1046.22 804.097,1085.81 842.75,1025.69 905.497,965.422 891.312,986.335 909.954,972.452 946.032,931.302 972.322,909.507 967.863,929.186 891.718,996.014 883.142,989.864 1019.45,850.512 1030.45,866.551 1074.92,823.273 998.399,902.438 976.19,917.566 1016.23,866.63 1065.42,832.6 1052.26,844.092 1091.57,806.716 1119.29,783.327 1087.17,812.439 1050.56,857.373 1100.55,813.931 1012.34,888.591 1097.24,805.444 1178.45,762.199 1163.39,783.916 1169.8,782.813 1049.24,879.705 1008.24,910.893 992.449,918.54 1047.19,854.315 1197.78,711.35 1130.67,795.036 1121.82,796.791 1045.08,867.886 1033.77,872.165 1045.32,848.616 1008.48,891.468 968.841,917.977 972.024,915.136 915.221,975.358 969.731,914.56 1026.7,857.223 1055.7,837.014 1074.77,829.018 1049.34,859.061 1135.31,783.021 1164.97,770.537 1103.3,809.271 1160.16,747.153 1260.12,663.666 1309.77,644.047 1296.73,669.801 1321.22,658.142 1299.17,681.904 1446.21,561.135 1421.37,596.623 1299.2,696.762 1276.2,702.999 1248.36,713.358 1202.92,741.388 1147.67,797.172 1182.47,748.584 1161.72,766.025 1167.67,760.311 1287.18,644.472 1188.23,734.839 1057.98,853.482 1000.68,914.103 1044.29,871.149 1114.84,804.556 1040.46,859.438 1073.4,818.459 993.643,908.941 961.257,934.424 1076.67,831.958 1066.39,841.916 1125,787.126 1090.15,826.516 1164.58,752.859 1125.76,790.225 1168.44,764.691 1164.36,783.675 1090.81,853.938 1031.36,888.499 952.041,950.314 945.957,943.812 913.218,971.919 872.785,1003.75 872.21,998.896 904.06,960.659 935.503,932.611 983.059,896.157 902.788,978.984 973.226,914.868 952.496,948.835 984.698,905.789 1085.58,811.948 1025.96,886.006 1066.77,840.522 1045.96,854.691 1066.74,852.836 1118.22,798.421 1288.05,653.326 1325.04,643.79 1339.87,637.348 1288.48,680.487 1244.02,713.934 1209.28,743.116 1143.9,789.356 1112.97,812.602 1074.53,847.744 1077.88,842.293 1152.73,766.622 1181.19,749.607 1054.18,853.443 1054.15,855.057 975.395,924.486 1037.25,850.274 1078.68,806.555 1168.6,740.62 1183.57,735.422 1125.02,796.91 1171.79,749.146 1137.56,786.104 1079.14,842.881 1048.64,871.409 1107.7,797.129 1093.7,812.507 981.736,920.925 1022.04,872.955 938.444,940.324 952.103,931.204 1007.7,886.388 942.18,956.591 990.907,894.835 964.287,933.784 926.411,975.592 902.413,982.933 870.209,1010.88 913.913,961.923 934.67,942.858 983.208,896.913 1019.36,877.89 977.941,916.999 899.484,980.992 984.182,900.486 1084.09,811.843 1116.4,791.219 1157.8,756.912 1200.9,721.634 1121.09,800.593 1144.14,777.574 1157.26,796.516 1230.4,725.568 1253.14,706.877 1301.52,671.857 1241.12,720.212 1307.85,668.517 1187.7,770.724 1123.57,817.864 1129.25,786.733 1168.54,757.677 1178.11,747.924 1237.16,707.265 1371.92,588.233 1385.98,606.017 1365.61,625.565 1243.88,730.323 1223.07,726.742 1236.13,718.194 1304.88,655.866 1217.56,727.466 1174.48,766.217 1151.03,779.319 1068.42,851.301 1097.08,817.002 1054.46,850.858 1046.57,856.888 1103.07,805.175 1079.2,836.079 976.576,928.095 940.223,961.577 889.307,1000.85 892.608,987.84 952.19,920.425 905.426,964.78 973.979,909.194 938.274,950.972 941.099,947.655 981.534,901.509 914.032,973.724 952.49,932.491 915.363,969.661 900.248,981.662 983.475,898.376 964.314,937.207 993.278,891.654 1075.84,834.443 1118.84,787.443 1117.2,812.086 1172.39,759.487 1138.04,791.781 1216.94,726.907 1180.68,764.567 1088.49,841.581 1125.04,789.186 1228.12,699.387 1239.92,702.485 1219.99,728.553 1187.16,751.116 1151.09,774.492 1124.54,785.713 1128.39,795.702 1111.36,824.615 1002.56,909.743 924.993,987.238 934.02,961.833 964.176,921.061 956.678,930.036 1057.48,822.377 1129.68,765.957 1095.51,816.85 1039.3,874.476 1010.74,900.609 956.207,949.329 929.776,969.257 887.359,1004.84 949.45,927.043 946.392,935.597 950.529,936.538 941.682,940.393 952.173,935.937 979.631,907.559 991.581,893.21 1045.5,843.25 1015.11,884.422 1008.36,890.183 1088.76,822.028 1154.8,773.996 1032.95,892.57 1054.54,859.596 1060.68,852.028 1151.98,774.931 1211.51,742.119 1206.04,750.985 1260.38,691.786 1351.44,614.748 1384.3,621.104 1202.96,768.892 1224.49,732.079 1315.51,642.061 1282.24,667.236 1280.39,690.933 1298.53,665.792 1202.55,743.374 1182.4,760.702 1262.48,679.145 1299.05,656.672 1185.17,748.785 1194.31,745.104 1095,824.421 1101.98,812.658 993.451,919.34 1038.96,853.512 1059.56,850.309 1095.94,804.777 1144.81,776.168 1055.51,864.407 977.549,930.813 961.795,938.479 932.854,957.425 929.387,951.11 981.101,892.54 961.861,928.131 893.546,1003.69 857.873,1023.37 875.736,998.383 859.805,1014.91 935.409,928.328 930.263,936.914 987.472,875.452 1044.17,836.401 1044.3,847.353 1122.52,779.538 1201.33,716.939 1178.86,751.948 1179.8,746.727 1138.85,793.667 1010.83,905.549 998.826,911.469 949.806,949.566 921.412,974.72 948.714,936.395 951.426,930.802 863.973,1027.34 858.389,1023.52 905.085,965.135 918.094,953.927 1017.48,868.325 969.331,928.384 1011.25,881.684 1084.1,806.144 1091.81,808.394 1159.44,755.239 1136.98,782.802 1140.48,781.53 1162.11,764.397 1189.82,740.65 1073.58,849.079 1097.65,809.141 1045.97,865.112 1033.35,860.39 1045.46,848.221 1061.18,838.197 1084.82,821.922 1094.92,813.253 1107,800.951 1090.86,815.455 1154.42,752.103 1124.02,790.985 1200.97,741.602 1217.05,724.818 1173.55,776.337 1193.18,750.558 1335.44,626.38 1249.01,715.553 1126.05,812.524 1118.92,816.777 1075.07,852.46 1148.89,776.59 1162.77,761.198 1109.19,797.389 1069.98,831.631 1092.59,821.419 1172.43,763.839 1265.92,693.693 1324.18,636.23 1227.33,721.049 1257.04,705.824 1308.82,659.83 1333.21,653.132 1335.96,653.14 1200.14,759.722 1298.78,651.547 1298.42,658.505 1335.52,653.339 1338.18,653.569 1339.42,642.376 1348.09,635.748 1253.99,730.015 1221.2,742.815 1169.93,778.965 1075.77,864.148 1038.08,885.543 1063.63,843.98 1004.94,905.682 950.469,946.329 1015.02,868.685 996.579,894.703 1075.84,814.202 1130.48,767.236 1212.36,697.484 1277.36,661.223 1188.3,754.384 1170.7,769.519 1146.07,794.251 1109.15,831.298 1028.17,895.723 1077.97,827.367 1009.49,891.722 994.591,909.699 994.195,896.841 1006.89,881.576 988.985,890.482 1002.23,877.487 1039.78,857.343 1107.48,790.139 1135.64,781.348 1129.85,799.928 1138.4,792.056 1022.6,879.193 969.261,933.96 957.661,937.49 950.518,937.396 947.039,940.332 991.039,886.653 960.036,925.333 995.02,901.193 1025.04,860.515 1081.31,833.064 1106.57,812.401 1109.31,810.906 1141.29,785.167 1156.39,769.753 1136.22,790.237 1158.61,766.565 1174.48,760.413 1078.54,847.562 1125.19,792.932 1090.16,827.542 1091.12,806.495 1087.63,812.872 1045.37,861.224 996.972,906.03 982.39,918.968 1001.12,899.388 963.18,931.825 978.959,913.444 877.582,1005.77 895.683,976.619 879.026,995.595 957.721,919.604 958.502,918.609 1010.18,869.168 1023.48,859.196 1100.74,791.2 1166.71,743.253 1245.56,679.46 1213.04,722.609 1174.56,760.842 1032.37,887.702 1044.24,866.403 945.808,961.776 920.225,973.296 899.363,988.828 909.125,968.864 901.729,979.124 913.337,962.582 833.348,1045.07 821.329,1052.97 826.876,1048.51 876.653,995.094 910.75,966.708 908.61,966.917 927.503,939.428 989.732,895.876 1104.74,798.174 1130.55,781.326 1081.4,827.037 1011.23,899.698 993.595,913.207 978.198,918.283 894.377,988.941 913.347,960.69 948.022,928.068 990.374,894.556 884.065,1004.96 873.992,1013.07 932.236,944.747 853.288,1018.98 815.456,1069.82 796.348,1085.68 846.006,1026.91 895.128,989.544 972.569,908.878 993.152,908.134 985.282,913.388 1023.07,872.935 1035.12,860.268 1021.03,883.585 1048.41,855.811 1121.81,785.641 1157.51,746.036 1220.8,716.144 1320.88,655.815 1243.87,720.986 1253.76,699.827 1159.85,783.811 1119.3,804.886 1099.58,802.487 1028.35,867.003 1006.76,881.026 1064.14,828.693 1106.03,803.384 1160.89,772.268 1335.73,625.451 1424.33,596.135 1372.22,647.192 1326.6,669.732 1220.6,754.326 1319.92,644.287 1403.07,590.732 1385.58,611.258 1339.99,662.146 1384.64,621.665 1332.36,673.582 1305.71,673.778 1350.35,635.272 1331,655.046 1265.36,711.792 1221.66,743.099 1208.96,745.574 1144.43,806.145 1112.76,826.427 1093.68,832.065 1061.72,850.219 1073.84,839.195 1118.61,796.062 1057.72,857.063 1106.58,812.729 1165.91,761.332 1199.87,741.583 1170.73,760.363 1178.01,748.899 1220.93,742.786 1107.16,827.956 1112.86,805.807 1100.36,829.471 1061.09,851.576 1067.55,843.242 999.02,901.492 1029.64,868.288 1009.51,892.006 998.154,897.855 1018.47,876.65 917.51,977.952 889.23,1000.61 872.552,1009.64 857.633,1023.49 839.846,1040.02 860.78,1016.12 860.379,1009.15 867.448,999.428 846.792,1043.65 851.999,1028.57 895.967,983.058 875.248,995.336 815.764,1056.71 884.339,983.952 881.23,975.501 903.52,959.948 942.466,929.743 903.724,979.331 877.142,1002.9 810.25,1069.4 878.612,996.703 944.1,941.545 1041.73,836.666 1127.86,771.455 1005.99,895.415 1050.7,845.563 1058.75,834.764 1105.06,798.681 1171.88,750.905 1195.06,744.356 1154.75,765.94 1040.26,867.002 1123.36,785.278 1093.6,808.534 1083.47,830.198 1085.09,831.089 1072.33,831.615 1058.87,836.5 1000.68,888.194 1081.63,815.697 1105.97,805.802 1127.08,799.753 1142.41,774.363 1107.48,820.597 1141.04,797.142 1067.54,851.621 1049.99,861.307 1075.28,829.577 1030.66,867.413 922.738,967.181 954.552,944.465 904.459,980.315 833.451,1045.8 810.697,1059.42 881.037,980.293 832.949,1029.63 849.599,1019.99 864.746,1006.53 890.184,983.815 880.732,1000.56 959.479,921.515 997.987,896.762 1008.27,899.859 950.785,949.561 981.706,905.058 995.188,887.071 1049.27,862.114 1028.16,879.312 1100.42,794.838 1161.53,748.708 1127.68,800.088 1111.87,815.543 1085.29,820.405 1063.18,848.183 1020.84,881.58 1074.65,822.012 1137.8,763.185 1201.02,713.311 1255.74,672.15 1270.27,679.287 1216.66,736.821 1199.92,744.056 1151.34,778.798 1066.58,865.762 1161.11,747.574 1057.37,847.664 1108.87,797.797 1071.12,843.088 1067.87,854.104 1054.83,862.629 1058.33,848.881 1049.47,853.11 916.376,966.807 921.052,963.177 956.594,928.366 967.237,908.652 939.603,941.02 876.162,1007.09 921.257,961.432 937.207,937.508 997.036,882.225 1016.97,871.254 1032.22,853.442 1113.82,802.31 1117.82,792.305 1044.13,854.268 1049.04,839.716 996.968,899.832 1027.42,880.248 1031.22,868.034 1094.23,809.005 1139.32,780.656 1090.84,812.8 1137.18,775.934 1020.47,875.417 952.611,919.665 934.882,944.089 1062.95,832.104 1044.46,854.035 977.99,914.992 1005.18,895.654 996.121,900.072 945.179,936.064 844.714,1027.14 845.642,1026.77 949.779,919.9 953.532,928.092 958.919,924.9 946.056,944.276 957.384,931.596 964.493,932.395 954.082,936.541 869.064,1009.86 858.572,1015.69 814.137,1055.14 763.757,1104.63 764.427,1105.29 726.207,1148.88 726.005,1148.68 761.369,1103.32 762.263,1106.34 876.421,974.76 843.6,1018.78 853.145,1016.35 892.137,971.69 1018.11,855.273 1067.51,824.128 1057.77,845.932 1092.39,823.816 985.468,924.726 1004.57,896.079 1126.75,798.94 1110.81,817.989 1200.1,732.116 1133.13,791.124 1104.71,810.725 1117.44,812.902 989.653,924.755 915.735,984.391 890.974,999.274 881.437,1003.19 869.18,1013.62 889.21,986.324 872.003,1007.42 945.883,934.834 1006.35,886.216 1030.93,867.988 1170.25,750.773 1155.45,769.17 1174.64,745.827 1185.23,742.581 1099.69,822.151 1115.96,807.842 1023.57,882.091 1061.66,834.131 1139.75,761.537 1197.66,715.355 1197.76,737.886 1178.2,758.383 1226.28,709.122 1181.31,760.338 1110.64,824.08 1069.64,849.474 1040.21,872.436 1058.3,844.8 1033.73,858.711 1005.17,898.816 1041.67,869.096 1101.05,817.15 1178.41,742.133 1232.85,710.651 1223.81,732.927 1172.25,773.375 1167.26,772.686 1141.21,786.512 1071.27,838.351 1016.92,900.074 936.349,972.32 891.035,1000.47 906.942,982.666 935.198,953.397 941.761,944.237 904.696,969.723 902.986,966.302 907.728,979.696 897.123,976.455 914.13,963.542 1004.26,890.799 1056.08,848.563 1133.55,779.594 1115.01,788.667 1111.97,819.693 1103.46,814.897 1205.97,724.336 1148.04,783.402 1211.22,730.786 1229.19,720.169 1234.78,736.402 1275.11,685.714 1248.86,706.678 1279.65,705.698 1188.17,763.386 1189.07,750.881 1132.06,805.047 1110.83,818.484 1162.16,752.25 1174.37,751.11 1189.85,752.866 1141.85,788.052 1117.12,797.628 1154.9,766.505 1120.9,792.859 1079.18,830.961 1055.89,832.427 1140.42,762.19 1119.25,802.642 1152.7,778.951 1300.93,668.356 1343.65,650.953 1308.76,699.957 1381.17,630.43 1264.44,715.109 1304.94,659.836 1283.4,687.636 1354.7,630.986 1412.96,598.862 1483.51,529.066 1620.92,435.607 1518.23,542.545 1601.12,479.797 1405.48,639.32 1330.28,681.709 1283.09,711.62 1247.5,732.976 1218.65,748.269 1202.89,750.153 1306.77,639.411 1344.1,615.57 1261.51,701.105 1250.96,695.879 1252.32,693.976 1241.9,710.596 1289.96,663.672 1215.5,739.038 1111.54,823.569 1104.49,813.18 1128.17,782.31 1107.11,800.848 1124.22,787.523 1114.25,789.072 1222.81,716.05 1185.7,771.821 1277.47,671.965 1255.29,697.908 1331.85,638.473 1325.52,653.258 1218.11,745.159 1160.77,784.183 1134.41,804.183 1083.03,840.612 986.437,924.198 1013.75,885.456 1012.06,880.07 1127.97,788.122 1134.84,783.29 1075.27,841.687 1036.09,877.49 1029.03,873.492 1030.47,870.059 1040.05,863.445 1086.18,828.152 1055.42,856.273 1121.14,792.772 1087.63,826.463 1008.65,887.298 963.732,936.64 930.194,963.791 929.992,955.87 995.79,883.461 969.823,921.181 971.861,927.284 965.335,923.366 950.092,944.664 1046.37,844.352 1002.83,890.374 893.232,1003.7 809.778,1078.44 799.297,1073.61 847.13,1018.45 872.461,991.116 847.587,1032.66 876.851,995.798 917.362,949.855 902.694,968.524 884.831,1001.51 913.923,968.651 900.066,974.595 897.631,976.831 919.078,957.938 978.805,890.498 1017.23,879.354 1090.51,811.112 1041.62,855.28 1001.23,903.663 963.469,932.037 968.189,934.57 1023,884.196 1121.15,811.298 1150.45,790.452 1180.95,772.352 1391.27,609.705 1338.51,654.143 1330.37,658.371 1373.9,623.559 1475.08,532.525 1530.26,517.735 1544.64,511.662 1526.31,520.404 1513.86,525.369 1445.08,590.898 1329.19,687.104 1362.25,628.416 1354.5,636.092 1327.57,658.583 1336.58,638.788 1321.12,654.629 1274.14,697.603 1248.73,717.519 1293.47,671.828 1220.04,721.408 1263,680.405 1184.96,757.368 1169.82,769.883 1086.96,840.036 1002.93,909.682 1044.03,861.85 1000.94,910.041 974.855,926.25 948.586,952.402 993.744,900.402 1012.59,881.397 1061.61,838.777 1080.81,821.022 1125.69,785.191 1092.54,839.414 1021.18,890.259 957.477,940.424 929.433,961.959 903.106,989.312 933.412,952.621 997.901,905.236 1028.96,868.315 1053.84,846.543 1121.84,792.239 1016.73,897.315 965.049,940.963 1051.8,837.98 1096.88,799.272 1172.47,736.313 1193.5,724.648 1216.95,718.745 1241.82,701.983 1282.22,676.79 1219.58,732.98 1159.71,782.081 1119.37,818.896 1066.25,866.925 1123.95,800.963 1088.24,835.613 1134.97,787.839 1099.91,820.114 1149.57,767.099 1274.74,680.847 1368,601.856 1380.31,607.897 1352.2,639.88 1341.06,650.195 1358.75,640.334 1386.69,599.095 1295.03,696.914 1201.49,767.04 1217.44,735.037 1222.5,725.664 1195.81,750.316 1170.48,766.088 1168.95,763.932 1145.84,786.641 1167.7,757.632 1301.38,664.96 1468.78,520.329 1403.92,596.366 1394.7,609.933 1472.65,545.753 1374.41,639.334 1291.83,692.582 1340.59,641.318 1321.98,666.043 1252.13,710.646 1220.95,737.134 1168.51,774.704 1217.95,719.241 1197.9,740.138 1161.16,775.213 1100.42,828.471 1139.94,785.877 1042.13,868.924 1068.1,839.088 1026.9,879.184 1012.23,891.571 962.461,930.82 953.321,932.894 997.328,882.407 998.241,888.332 924.996,971.911 930.409,959.607 955.194,930.965 912.336,982.952 935.203,951.106 967.576,915.757 1015.84,863.691 1039.67,857.2 1102.28,796.049 1146.4,767.157 1236.46,711.919 1249.55,698.616 1297.68,663.328 1323.35,643.876 1280.14,686.259 1353.82,620.918 1313.48,670.422 1429.71,545.874 1332.07,626.833 1171.41,775.019 1279.71,676.886 1258.21,683.504 1188.47,754.405 1176.2,760.442 1221.6,734.239 1166.05,790.901 1153.85,782.938 1064.79,849.265 1099.05,793.775 1158.47,749.735 1145.09,769.775 1071.1,847.211 1042.13,853.623 1029.73,874.654 1072.05,830.597 1090.79,819.346 1018,888.877 995.257,894.394 1008.8,880.33 993.338,896.562 988.249,896.51 973.468,903.748 1028.5,860.712 1157.68,752.162 1129.28,779.802 1108.51,799.305 1060.05,853.33 1065.45,848.433 1057.69,856.419 1091.16,846.894 1044.11,875.926 1067.66,836.118 1151.21,774.025 1047.34,863.831 1054.52,852.77 962.142,936.51 930.944,966.029 926.519,965.064 874.346,1001.45 856.605,1020.96 859.194,1006.96 841.871,1023.29 895.942,972.049 902.955,968.985 1033.2,852.603 1167.72,734.608 1096.89,835.653 1025.03,892.331 1017.99,877.799 1121.4,788.008 1070.88,836.744 1072.6,830.115 1192.6,740.608 1238.57,701.655 1222.84,725.02 1303.28,646.605 1230.22,720.753 1312.53,650.069 1377.24,618.701 1496.53,507.383 1645.72,406.141 1574.27,496.888 1592.74,477.635 1767.87,355.68 1716.72,419.28 1690.45,447.301 1664.05,458.739 1640.88,479.653 1632.79,471.944 1553.49,529.66 1522.61,548.339 1379.27,665.532 1349.3,673.641 1319.04,682.234 1277.62,709.988 1229.68,745.992 1159.48,803.07 1134.18,813.871 1175.55,760.727 1135.28,801.561 1101.72,832.268 1098.06,822.579 1006.53,914.067 1031.2,874.707 1038.17,859.27 1075.82,826.303 1078.14,830.769 1062.91,847.003 1028.21,888.057 1013.21,900.054 1062.61,837.525 1077.8,836.71 1014.9,885.886 1097.42,798.973 1260.19,673.107 1309.54,646.395 1244.94,709.277 1291.77,674.638 1311.75,667.228 1364.08,631.113 1313.95,679.145 1282.14,706.344 1217.6,738.977 1176.05,770.822 1185.97,755.887 1118.08,813.662 1182.73,740.132 1116.97,815.038 1169.16,747.429 1149.81,772.944 1125.11,798.288 1039.79,884.469 1042.75,862.179 1007.05,889.115 929.345,963.039 870.289,1018.51 878.92,996.71 774.261,1107.82 783.937,1093.25 866.889,1000.79 809.633,1064.53 737.216,1139.42 760.732,1106 716.049,1161.4 731.573,1132.75 719.6,1149.32 753.845,1114.04 759.001,1109.09 798.575,1063.06 848.42,1010.71 853.323,1023.27 848.867,1027.56 844.849,1025.67 876.193,990.198 920.598,949.897 1062.64,807.317 1044.9,845.088 1099.78,794.806 1089.14,815.618 1051.8,852.315 1094.99,802.004 1198.26,731.408 1192.3,752.954 1222.7,727.922 1294.18,664.172 1334.02,637.608 1415.57,579.856 1392.21,604.28 1381.6,625.667 1465.08,565.923 1280.85,720.92 1257.82,716.948 1164.42,786.318 1187.78,750.766 1291.5,658.51 1332.33,645.337 1278.75,693.635 1235.01,723.069 1232.02,718.746 1219.14,724.697 1195.26,746.493 1103.83,817.865 1144.9,772.629 1053.11,864.275 1097.87,806.097 1072.46,830.074 1113.26,791.633 1076.53,829.989 1165.68,764.006 1140.78,794.909 1248.82,687.188 1210.41,732.726 1218.56,730.603 1150.55,791.43 1127.04,801.205 1091,820.864 1117.69,804.443 1069.31,847.287 1015.13,884.706 956.073,928.491 959.506,915.518 912.248,960.293 984.439,908.233 929.899,959.148 980.904,905.139 1006.34,887.864 902.085,988.64 954.963,923.182 932.417,936.786 923.206,957.715 969.086,898.193 997.352,888.437 911.424,968.649 865.533,1011.64 883.626,991.32 954.213,937.547 1097.12,792.101 1113.84,779.262 1045.6,850.938 1011.52,892.112 1119.21,814.593 1121.05,806.259 1151.33,777.089 1123.65,813.603 1064.67,871.133 1063.2,847.895 1193.81,712.76 1147.61,772.361 1206.13,718.832 1284.66,652.914 1285.45,659.16 1357.94,600.331 1471.91,526.896 1519.62,519.456 1577.35,483.495 1450.51,583.234 1465.17,555.415 1376.96,637.887 1396.76,601.655 1310.43,680.369 1238.94,728.836 1154.09,800.941 1188.66,753.134 1167.94,771.381 1118.11,818.047 1110.71,811.747 1093.43,824.536 1059.8,850.485 1004.46,904.759 994.596,906.928 993.013,904.759 966.682,927.822 1016.44,880.696 1036.26,870.162 1082,833.868 1132,788.347 1162.64,778.81 1084.48,838.773 1124.39,801.175 1024.13,870.114 953.797,946.963 893.053,994.097 891.087,990.429 937.284,937.712 992.348,874.733 1043.48,831.064 1103.89,786.038 1086.03,817.203 1105.96,802.975 1029.18,885.152 1049.26,855.361 1099.41,810.948 1096.38,823.635 1200.94,734.223 1170.62,781.4 1180.82,759.054 1065.57,864.124 1087.21,837.84 1078.74,845.794 1127.15,787.343 1210.87,745.186 1261.22,701.227 1245.78,705.569 1283.5,669.469 "/>
<path clip-path="url(#clip260)" d="M186.863 198.898 L550.897 198.898 L550.897 95.2176 L186.863 95.2176  Z" fill="#ffffff" fill-rule="evenodd" fill-opacity="1"/>
<polyline clip-path="url(#clip260)" style="stroke:#000000; stroke-linecap:round; stroke-linejoin:round; stroke-width:4; stroke-opacity:1; fill:none" points="186.863,198.898 550.897,198.898 550.897,95.2176 186.863,95.2176 186.863,198.898 "/>
<polyline clip-path="url(#clip260)" style="stroke:#009af9; stroke-linecap:round; stroke-linejoin:round; stroke-width:4; stroke-opacity:1; fill:none" points="211.758,147.058 361.13,147.058 "/>
<path clip-path="url(#clip260)" d="M396.651 128.366 Q393.549 133.69 392.044 138.898 Q390.54 144.106 390.54 149.453 Q390.54 154.801 392.044 160.055 Q393.572 165.287 396.651 170.588 L392.947 170.588 Q389.475 165.148 387.739 159.893 Q386.026 154.639 386.026 149.453 Q386.026 144.291 387.739 139.06 Q389.452 133.828 392.947 128.366 L396.651 128.366 Z" fill="#000000" fill-rule="nonzero" fill-opacity="1" /><path clip-path="url(#clip260)" d="M403.063 138.412 L423.294 138.412 L423.294 142.301 L407.276 160.935 L423.294 160.935 L423.294 164.338 L402.484 164.338 L402.484 160.449 L418.502 141.815 L403.063 141.815 L403.063 138.412 Z" fill="#000000" fill-rule="nonzero" fill-opacity="1" /><path clip-path="url(#clip260)" d="M430.887 158.458 L435.771 158.458 L435.771 162.439 L431.975 169.847 L428.988 169.847 L430.887 162.439 L430.887 158.458 Z" fill="#000000" fill-rule="nonzero" fill-opacity="1" /><path clip-path="url(#clip260)" d="M455.655 166.745 Q453.849 171.375 452.136 172.787 Q450.423 174.199 447.553 174.199 L444.15 174.199 L444.15 170.634 L446.65 170.634 Q448.41 170.634 449.382 169.8 Q450.354 168.967 451.535 165.865 L452.298 163.921 L441.812 138.412 L446.326 138.412 L454.428 158.689 L462.53 138.412 L467.044 138.412 L455.655 166.745 Z" fill="#000000" fill-rule="nonzero" fill-opacity="1" /><path clip-path="url(#clip260)" d="M474.011 158.458 L478.896 158.458 L478.896 162.439 L475.099 169.847 L472.113 169.847 L474.011 162.439 L474.011 158.458 Z" fill="#000000" fill-rule="nonzero" fill-opacity="1" /><path clip-path="url(#clip260)" d="M509.544 138.412 L500.169 151.027 L510.03 164.338 L505.007 164.338 L497.46 154.152 L489.914 164.338 L484.891 164.338 L494.96 150.773 L485.747 138.412 L490.77 138.412 L497.645 147.648 L504.52 138.412 L509.544 138.412 Z" fill="#000000" fill-rule="nonzero" fill-opacity="1" /><path clip-path="url(#clip260)" d="M515.377 128.366 L519.081 128.366 Q522.553 133.828 524.266 139.06 Q526.002 144.291 526.002 149.453 Q526.002 154.639 524.266 159.893 Q522.553 165.148 519.081 170.588 L515.377 170.588 Q518.456 165.287 519.96 160.055 Q521.488 154.801 521.488 149.453 Q521.488 144.106 519.96 138.898 Q518.456 133.69 515.377 128.366 Z" fill="#000000" fill-rule="nonzero" fill-opacity="1" /></svg>
