<?xml version="1.0" encoding="utf-8"?>
<svg xmlns="http://www.w3.org/2000/svg" xmlns:xlink="http://www.w3.org/1999/xlink" width="600" height="400" viewBox="0 0 2400 1600">
<defs>
  <clipPath id="clip210">
    <rect x="0" y="0" width="2400" height="1600"/>
  </clipPath>
</defs>
<path clip-path="url(#clip210)" d="M0 1600 L2400 1600 L2400 0 L0 0  Z" fill="#ffffff" fill-rule="evenodd" fill-opacity="1"/>
<defs>
  <clipPath id="clip211">
    <rect x="192" y="47" width="2161" height="1377"/>
  </clipPath>
</defs>
<path clip-path="url(#clip210)" d="M192.941 1423.18 L2352.76 1423.18 L2352.76 47.2441 L192.941 47.2441  Z" fill="#ffffff" fill-rule="evenodd" fill-opacity="1"/>
<polyline clip-path="url(#clip211)" style="stroke:#000000; stroke-linecap:round; stroke-linejoin:round; stroke-width:2; stroke-opacity:0.1; fill:none" points="192.941,1423.18 192.941,47.2441 "/>
<polyline clip-path="url(#clip211)" style="stroke:#000000; stroke-linecap:round; stroke-linejoin:round; stroke-width:2; stroke-opacity:0.1; fill:none" points="624.904,1423.18 624.904,47.2441 "/>
<polyline clip-path="url(#clip211)" style="stroke:#000000; stroke-linecap:round; stroke-linejoin:round; stroke-width:2; stroke-opacity:0.1; fill:none" points="1056.87,1423.18 1056.87,47.2441 "/>
<polyline clip-path="url(#clip211)" style="stroke:#000000; stroke-linecap:round; stroke-linejoin:round; stroke-width:2; stroke-opacity:0.1; fill:none" points="1488.83,1423.18 1488.83,47.2441 "/>
<polyline clip-path="url(#clip211)" style="stroke:#000000; stroke-linecap:round; stroke-linejoin:round; stroke-width:2; stroke-opacity:0.1; fill:none" points="1920.79,1423.18 1920.79,47.2441 "/>
<polyline clip-path="url(#clip211)" style="stroke:#000000; stroke-linecap:round; stroke-linejoin:round; stroke-width:2; stroke-opacity:0.1; fill:none" points="2352.76,1423.18 2352.76,47.2441 "/>
<polyline clip-path="url(#clip211)" style="stroke:#000000; stroke-linecap:round; stroke-linejoin:round; stroke-width:2; stroke-opacity:0.1; fill:none" points="192.941,1322.23 2352.76,1322.23 "/>
<polyline clip-path="url(#clip211)" style="stroke:#000000; stroke-linecap:round; stroke-linejoin:round; stroke-width:2; stroke-opacity:0.1; fill:none" points="192.941,1109.49 2352.76,1109.49 "/>
<polyline clip-path="url(#clip211)" style="stroke:#000000; stroke-linecap:round; stroke-linejoin:round; stroke-width:2; stroke-opacity:0.1; fill:none" points="192.941,896.746 2352.76,896.746 "/>
<polyline clip-path="url(#clip211)" style="stroke:#000000; stroke-linecap:round; stroke-linejoin:round; stroke-width:2; stroke-opacity:0.1; fill:none" points="192.941,684.004 2352.76,684.004 "/>
<polyline clip-path="url(#clip211)" style="stroke:#000000; stroke-linecap:round; stroke-linejoin:round; stroke-width:2; stroke-opacity:0.1; fill:none" points="192.941,471.261 2352.76,471.261 "/>
<polyline clip-path="url(#clip211)" style="stroke:#000000; stroke-linecap:round; stroke-linejoin:round; stroke-width:2; stroke-opacity:0.1; fill:none" points="192.941,258.519 2352.76,258.519 "/>
<polyline clip-path="url(#clip210)" style="stroke:#000000; stroke-linecap:round; stroke-linejoin:round; stroke-width:4; stroke-opacity:1; fill:none" points="192.941,1423.18 2352.76,1423.18 "/>
<polyline clip-path="url(#clip210)" style="stroke:#000000; stroke-linecap:round; stroke-linejoin:round; stroke-width:4; stroke-opacity:1; fill:none" points="192.941,1423.18 192.941,1404.28 "/>
<polyline clip-path="url(#clip210)" style="stroke:#000000; stroke-linecap:round; stroke-linejoin:round; stroke-width:4; stroke-opacity:1; fill:none" points="624.904,1423.18 624.904,1404.28 "/>
<polyline clip-path="url(#clip210)" style="stroke:#000000; stroke-linecap:round; stroke-linejoin:round; stroke-width:4; stroke-opacity:1; fill:none" points="1056.87,1423.18 1056.87,1404.28 "/>
<polyline clip-path="url(#clip210)" style="stroke:#000000; stroke-linecap:round; stroke-linejoin:round; stroke-width:4; stroke-opacity:1; fill:none" points="1488.83,1423.18 1488.83,1404.28 "/>
<polyline clip-path="url(#clip210)" style="stroke:#000000; stroke-linecap:round; stroke-linejoin:round; stroke-width:4; stroke-opacity:1; fill:none" points="1920.79,1423.18 1920.79,1404.28 "/>
<polyline clip-path="url(#clip210)" style="stroke:#000000; stroke-linecap:round; stroke-linejoin:round; stroke-width:4; stroke-opacity:1; fill:none" points="2352.76,1423.18 2352.76,1404.28 "/>
<path clip-path="url(#clip210)" d="M192.941 1454.1 Q189.33 1454.1 187.501 1457.66 Q185.695 1461.2 185.695 1468.33 Q185.695 1475.44 187.501 1479.01 Q189.33 1482.55 192.941 1482.55 Q196.575 1482.55 198.38 1479.01 Q200.209 1475.44 200.209 1468.33 Q200.209 1461.2 198.38 1457.66 Q196.575 1454.1 192.941 1454.1 M192.941 1450.39 Q198.751 1450.39 201.806 1455 Q204.885 1459.58 204.885 1468.33 Q204.885 1477.06 201.806 1481.67 Q198.751 1486.25 192.941 1486.25 Q187.13 1486.25 184.052 1481.67 Q180.996 1477.06 180.996 1468.33 Q180.996 1459.58 184.052 1455 Q187.13 1450.39 192.941 1450.39 Z" fill="#000000" fill-rule="nonzero" fill-opacity="1" /><path clip-path="url(#clip210)" d="M619.556 1481.64 L635.876 1481.64 L635.876 1485.58 L613.932 1485.58 L613.932 1481.64 Q616.594 1478.89 621.177 1474.26 Q625.783 1469.61 626.964 1468.27 Q629.209 1465.74 630.089 1464.01 Q630.992 1462.25 630.992 1460.56 Q630.992 1457.8 629.047 1456.07 Q627.126 1454.33 624.024 1454.33 Q621.825 1454.33 619.371 1455.09 Q616.941 1455.86 614.163 1457.41 L614.163 1452.69 Q616.987 1451.55 619.441 1450.97 Q621.894 1450.39 623.931 1450.39 Q629.302 1450.39 632.496 1453.08 Q635.691 1455.77 635.691 1460.26 Q635.691 1462.39 634.88 1464.31 Q634.093 1466.2 631.987 1468.8 Q631.408 1469.47 628.306 1472.69 Q625.205 1475.88 619.556 1481.64 Z" fill="#000000" fill-rule="nonzero" fill-opacity="1" /><path clip-path="url(#clip210)" d="M1059.88 1455.09 L1048.07 1473.54 L1059.88 1473.54 L1059.88 1455.09 M1058.65 1451.02 L1064.53 1451.02 L1064.53 1473.54 L1069.46 1473.54 L1069.46 1477.43 L1064.53 1477.43 L1064.53 1485.58 L1059.88 1485.58 L1059.88 1477.43 L1044.27 1477.43 L1044.27 1472.92 L1058.65 1451.02 Z" fill="#000000" fill-rule="nonzero" fill-opacity="1" /><path clip-path="url(#clip210)" d="M1489.23 1466.44 Q1486.09 1466.44 1484.23 1468.59 Q1482.41 1470.74 1482.41 1474.49 Q1482.41 1478.22 1484.23 1480.39 Q1486.09 1482.55 1489.23 1482.55 Q1492.38 1482.55 1494.21 1480.39 Q1496.06 1478.22 1496.06 1474.49 Q1496.06 1470.74 1494.21 1468.59 Q1492.38 1466.44 1489.23 1466.44 M1498.52 1451.78 L1498.52 1456.04 Q1496.76 1455.21 1494.95 1454.77 Q1493.17 1454.33 1491.41 1454.33 Q1486.78 1454.33 1484.33 1457.45 Q1481.9 1460.58 1481.55 1466.9 Q1482.92 1464.89 1484.98 1463.82 Q1487.04 1462.73 1489.51 1462.73 Q1494.72 1462.73 1497.73 1465.9 Q1500.76 1469.05 1500.76 1474.49 Q1500.76 1479.82 1497.61 1483.03 Q1494.47 1486.25 1489.23 1486.25 Q1483.24 1486.25 1480.07 1481.67 Q1476.9 1477.06 1476.9 1468.33 Q1476.9 1460.14 1480.79 1455.28 Q1484.67 1450.39 1491.23 1450.39 Q1492.98 1450.39 1494.77 1450.74 Q1496.57 1451.09 1498.52 1451.78 Z" fill="#000000" fill-rule="nonzero" fill-opacity="1" /><path clip-path="url(#clip210)" d="M1920.79 1469.17 Q1917.46 1469.17 1915.54 1470.95 Q1913.64 1472.73 1913.64 1475.86 Q1913.64 1478.98 1915.54 1480.77 Q1917.46 1482.55 1920.79 1482.55 Q1924.13 1482.55 1926.05 1480.77 Q1927.97 1478.96 1927.97 1475.86 Q1927.97 1472.73 1926.05 1470.95 Q1924.15 1469.17 1920.79 1469.17 M1916.12 1467.18 Q1913.11 1466.44 1911.42 1464.38 Q1909.75 1462.32 1909.75 1459.35 Q1909.75 1455.21 1912.69 1452.8 Q1915.65 1450.39 1920.79 1450.39 Q1925.95 1450.39 1928.89 1452.8 Q1931.83 1455.21 1931.83 1459.35 Q1931.83 1462.32 1930.14 1464.38 Q1928.48 1466.44 1925.49 1467.18 Q1928.87 1467.96 1930.75 1470.26 Q1932.64 1472.55 1932.64 1475.86 Q1932.64 1480.88 1929.57 1483.57 Q1926.51 1486.25 1920.79 1486.25 Q1915.08 1486.25 1912 1483.57 Q1908.94 1480.88 1908.94 1475.86 Q1908.94 1472.55 1910.84 1470.26 Q1912.74 1467.96 1916.12 1467.18 M1914.4 1459.79 Q1914.4 1462.48 1916.07 1463.98 Q1917.76 1465.49 1920.79 1465.49 Q1923.8 1465.49 1925.49 1463.98 Q1927.2 1462.48 1927.2 1459.79 Q1927.2 1457.11 1925.49 1455.6 Q1923.8 1454.1 1920.79 1454.1 Q1917.76 1454.1 1916.07 1455.6 Q1914.4 1457.11 1914.4 1459.79 Z" fill="#000000" fill-rule="nonzero" fill-opacity="1" /><path clip-path="url(#clip210)" d="M2327.44 1481.64 L2335.08 1481.64 L2335.08 1455.28 L2326.77 1456.95 L2326.77 1452.69 L2335.04 1451.02 L2339.71 1451.02 L2339.71 1481.64 L2347.35 1481.64 L2347.35 1485.58 L2327.44 1485.58 L2327.44 1481.64 Z" fill="#000000" fill-rule="nonzero" fill-opacity="1" /><path clip-path="url(#clip210)" d="M2366.8 1454.1 Q2363.18 1454.1 2361.36 1457.66 Q2359.55 1461.2 2359.55 1468.33 Q2359.55 1475.44 2361.36 1479.01 Q2363.18 1482.55 2366.8 1482.55 Q2370.43 1482.55 2372.23 1479.01 Q2374.06 1475.44 2374.06 1468.33 Q2374.06 1461.2 2372.23 1457.66 Q2370.43 1454.1 2366.8 1454.1 M2366.8 1450.39 Q2372.61 1450.39 2375.66 1455 Q2378.74 1459.58 2378.74 1468.33 Q2378.74 1477.06 2375.66 1481.67 Q2372.61 1486.25 2366.8 1486.25 Q2360.99 1486.25 2357.91 1481.67 Q2354.85 1477.06 2354.85 1468.33 Q2354.85 1459.58 2357.91 1455 Q2360.99 1450.39 2366.8 1450.39 Z" fill="#000000" fill-rule="nonzero" fill-opacity="1" /><path clip-path="url(#clip210)" d="M1271.91 1522.27 L1271.91 1532.4 L1283.97 1532.4 L1283.97 1536.95 L1271.91 1536.95 L1271.91 1556.3 Q1271.91 1560.66 1273.09 1561.9 Q1274.3 1563.14 1277.96 1563.14 L1283.97 1563.14 L1283.97 1568.04 L1277.96 1568.04 Q1271.18 1568.04 1268.6 1565.53 Q1266.02 1562.98 1266.02 1556.3 L1266.02 1536.95 L1261.72 1536.95 L1261.72 1532.4 L1266.02 1532.4 L1266.02 1522.27 L1271.91 1522.27 Z" fill="#000000" fill-rule="nonzero" fill-opacity="1" /><polyline clip-path="url(#clip210)" style="stroke:#000000; stroke-linecap:round; stroke-linejoin:round; stroke-width:4; stroke-opacity:1; fill:none" points="192.941,1423.18 192.941,47.2441 "/>
<polyline clip-path="url(#clip210)" style="stroke:#000000; stroke-linecap:round; stroke-linejoin:round; stroke-width:4; stroke-opacity:1; fill:none" points="192.941,1322.23 211.838,1322.23 "/>
<polyline clip-path="url(#clip210)" style="stroke:#000000; stroke-linecap:round; stroke-linejoin:round; stroke-width:4; stroke-opacity:1; fill:none" points="192.941,1109.49 211.838,1109.49 "/>
<polyline clip-path="url(#clip210)" style="stroke:#000000; stroke-linecap:round; stroke-linejoin:round; stroke-width:4; stroke-opacity:1; fill:none" points="192.941,896.746 211.838,896.746 "/>
<polyline clip-path="url(#clip210)" style="stroke:#000000; stroke-linecap:round; stroke-linejoin:round; stroke-width:4; stroke-opacity:1; fill:none" points="192.941,684.004 211.838,684.004 "/>
<polyline clip-path="url(#clip210)" style="stroke:#000000; stroke-linecap:round; stroke-linejoin:round; stroke-width:4; stroke-opacity:1; fill:none" points="192.941,471.261 211.838,471.261 "/>
<polyline clip-path="url(#clip210)" style="stroke:#000000; stroke-linecap:round; stroke-linejoin:round; stroke-width:4; stroke-opacity:1; fill:none" points="192.941,258.519 211.838,258.519 "/>
<path clip-path="url(#clip210)" d="M50.9921 1322.68 L80.6679 1322.68 L80.6679 1326.62 L50.9921 1326.62 L50.9921 1322.68 Z" fill="#000000" fill-rule="nonzero" fill-opacity="1" /><path clip-path="url(#clip210)" d="M100.76 1308.03 Q97.1493 1308.03 95.3206 1311.59 Q93.515 1315.14 93.515 1322.27 Q93.515 1329.37 95.3206 1332.94 Q97.1493 1336.48 100.76 1336.48 Q104.395 1336.48 106.2 1332.94 Q108.029 1329.37 108.029 1322.27 Q108.029 1315.14 106.2 1311.59 Q104.395 1308.03 100.76 1308.03 M100.76 1304.33 Q106.571 1304.33 109.626 1308.93 Q112.705 1313.52 112.705 1322.27 Q112.705 1330.99 109.626 1335.6 Q106.571 1340.18 100.76 1340.18 Q94.9502 1340.18 91.8715 1335.6 Q88.816 1330.99 88.816 1322.27 Q88.816 1313.52 91.8715 1308.93 Q94.9502 1304.33 100.76 1304.33 Z" fill="#000000" fill-rule="nonzero" fill-opacity="1" /><path clip-path="url(#clip210)" d="M120.922 1333.63 L125.807 1333.63 L125.807 1339.51 L120.922 1339.51 L120.922 1333.63 Z" fill="#000000" fill-rule="nonzero" fill-opacity="1" /><path clip-path="url(#clip210)" d="M136.038 1304.95 L154.394 1304.95 L154.394 1308.89 L140.32 1308.89 L140.32 1317.36 Q141.339 1317.01 142.357 1316.85 Q143.376 1316.66 144.394 1316.66 Q150.181 1316.66 153.561 1319.83 Q156.941 1323.01 156.941 1328.42 Q156.941 1334 153.468 1337.1 Q149.996 1340.18 143.677 1340.18 Q141.501 1340.18 139.232 1339.81 Q136.987 1339.44 134.58 1338.7 L134.58 1334 Q136.663 1335.14 138.885 1335.69 Q141.107 1336.25 143.584 1336.25 Q147.589 1336.25 149.927 1334.14 Q152.265 1332.03 152.265 1328.42 Q152.265 1324.81 149.927 1322.71 Q147.589 1320.6 143.584 1320.6 Q141.709 1320.6 139.834 1321.02 Q137.982 1321.43 136.038 1322.31 L136.038 1304.95 Z" fill="#000000" fill-rule="nonzero" fill-opacity="1" /><path clip-path="url(#clip210)" d="M99.765 1095.29 Q96.1539 1095.29 94.3252 1098.85 Q92.5197 1102.39 92.5197 1109.52 Q92.5197 1116.63 94.3252 1120.19 Q96.1539 1123.74 99.765 1123.74 Q103.399 1123.74 105.205 1120.19 Q107.033 1116.63 107.033 1109.52 Q107.033 1102.39 105.205 1098.85 Q103.399 1095.29 99.765 1095.29 M99.765 1091.58 Q105.575 1091.58 108.631 1096.19 Q111.709 1100.77 111.709 1109.52 Q111.709 1118.25 108.631 1122.86 Q105.575 1127.44 99.765 1127.44 Q93.9549 1127.44 90.8762 1122.86 Q87.8206 1118.25 87.8206 1109.52 Q87.8206 1100.77 90.8762 1096.19 Q93.9549 1091.58 99.765 1091.58 Z" fill="#000000" fill-rule="nonzero" fill-opacity="1" /><path clip-path="url(#clip210)" d="M119.927 1120.89 L124.811 1120.89 L124.811 1126.77 L119.927 1126.77 L119.927 1120.89 Z" fill="#000000" fill-rule="nonzero" fill-opacity="1" /><path clip-path="url(#clip210)" d="M144.996 1095.29 Q141.385 1095.29 139.556 1098.85 Q137.751 1102.39 137.751 1109.52 Q137.751 1116.63 139.556 1120.19 Q141.385 1123.74 144.996 1123.74 Q148.63 1123.74 150.436 1120.19 Q152.265 1116.63 152.265 1109.52 Q152.265 1102.39 150.436 1098.85 Q148.63 1095.29 144.996 1095.29 M144.996 1091.58 Q150.806 1091.58 153.862 1096.19 Q156.941 1100.77 156.941 1109.52 Q156.941 1118.25 153.862 1122.86 Q150.806 1127.44 144.996 1127.44 Q139.186 1127.44 136.107 1122.86 Q133.052 1118.25 133.052 1109.52 Q133.052 1100.77 136.107 1096.19 Q139.186 1091.58 144.996 1091.58 Z" fill="#000000" fill-rule="nonzero" fill-opacity="1" /><path clip-path="url(#clip210)" d="M100.76 882.545 Q97.1493 882.545 95.3206 886.11 Q93.515 889.651 93.515 896.781 Q93.515 903.887 95.3206 907.452 Q97.1493 910.994 100.76 910.994 Q104.395 910.994 106.2 907.452 Q108.029 903.887 108.029 896.781 Q108.029 889.651 106.2 886.11 Q104.395 882.545 100.76 882.545 M100.76 878.841 Q106.571 878.841 109.626 883.447 Q112.705 888.031 112.705 896.781 Q112.705 905.508 109.626 910.114 Q106.571 914.697 100.76 914.697 Q94.9502 914.697 91.8715 910.114 Q88.816 905.508 88.816 896.781 Q88.816 888.031 91.8715 883.447 Q94.9502 878.841 100.76 878.841 Z" fill="#000000" fill-rule="nonzero" fill-opacity="1" /><path clip-path="url(#clip210)" d="M120.922 908.146 L125.807 908.146 L125.807 914.026 L120.922 914.026 L120.922 908.146 Z" fill="#000000" fill-rule="nonzero" fill-opacity="1" /><path clip-path="url(#clip210)" d="M136.038 879.466 L154.394 879.466 L154.394 883.401 L140.32 883.401 L140.32 891.873 Q141.339 891.526 142.357 891.364 Q143.376 891.179 144.394 891.179 Q150.181 891.179 153.561 894.35 Q156.941 897.521 156.941 902.938 Q156.941 908.517 153.468 911.619 Q149.996 914.697 143.677 914.697 Q141.501 914.697 139.232 914.327 Q136.987 913.957 134.58 913.216 L134.58 908.517 Q136.663 909.651 138.885 910.207 Q141.107 910.762 143.584 910.762 Q147.589 910.762 149.927 908.656 Q152.265 906.549 152.265 902.938 Q152.265 899.327 149.927 897.221 Q147.589 895.114 143.584 895.114 Q141.709 895.114 139.834 895.531 Q137.982 895.947 136.038 896.827 L136.038 879.466 Z" fill="#000000" fill-rule="nonzero" fill-opacity="1" /><path clip-path="url(#clip210)" d="M90.5752 697.349 L98.2141 697.349 L98.2141 670.983 L89.904 672.65 L89.904 668.39 L98.1678 666.724 L102.844 666.724 L102.844 697.349 L110.483 697.349 L110.483 701.284 L90.5752 701.284 L90.5752 697.349 Z" fill="#000000" fill-rule="nonzero" fill-opacity="1" /><path clip-path="url(#clip210)" d="M119.927 695.404 L124.811 695.404 L124.811 701.284 L119.927 701.284 L119.927 695.404 Z" fill="#000000" fill-rule="nonzero" fill-opacity="1" /><path clip-path="url(#clip210)" d="M144.996 669.802 Q141.385 669.802 139.556 673.367 Q137.751 676.909 137.751 684.038 Q137.751 691.145 139.556 694.71 Q141.385 698.251 144.996 698.251 Q148.63 698.251 150.436 694.71 Q152.265 691.145 152.265 684.038 Q152.265 676.909 150.436 673.367 Q148.63 669.802 144.996 669.802 M144.996 666.099 Q150.806 666.099 153.862 670.705 Q156.941 675.288 156.941 684.038 Q156.941 692.765 153.862 697.372 Q150.806 701.955 144.996 701.955 Q139.186 701.955 136.107 697.372 Q133.052 692.765 133.052 684.038 Q133.052 675.288 136.107 670.705 Q139.186 666.099 144.996 666.099 Z" fill="#000000" fill-rule="nonzero" fill-opacity="1" /><path clip-path="url(#clip210)" d="M91.5706 484.606 L99.2095 484.606 L99.2095 458.241 L90.8993 459.907 L90.8993 455.648 L99.1632 453.981 L103.839 453.981 L103.839 484.606 L111.478 484.606 L111.478 488.541 L91.5706 488.541 L91.5706 484.606 Z" fill="#000000" fill-rule="nonzero" fill-opacity="1" /><path clip-path="url(#clip210)" d="M120.922 482.662 L125.807 482.662 L125.807 488.541 L120.922 488.541 L120.922 482.662 Z" fill="#000000" fill-rule="nonzero" fill-opacity="1" /><path clip-path="url(#clip210)" d="M136.038 453.981 L154.394 453.981 L154.394 457.917 L140.32 457.917 L140.32 466.389 Q141.339 466.042 142.357 465.88 Q143.376 465.694 144.394 465.694 Q150.181 465.694 153.561 468.866 Q156.941 472.037 156.941 477.454 Q156.941 483.032 153.468 486.134 Q149.996 489.213 143.677 489.213 Q141.501 489.213 139.232 488.842 Q136.987 488.472 134.58 487.731 L134.58 483.032 Q136.663 484.166 138.885 484.722 Q141.107 485.278 143.584 485.278 Q147.589 485.278 149.927 483.171 Q152.265 481.065 152.265 477.454 Q152.265 473.842 149.927 471.736 Q147.589 469.629 143.584 469.629 Q141.709 469.629 139.834 470.046 Q137.982 470.463 136.038 471.342 L136.038 453.981 Z" fill="#000000" fill-rule="nonzero" fill-opacity="1" /><path clip-path="url(#clip210)" d="M93.7928 271.864 L110.112 271.864 L110.112 275.799 L88.1679 275.799 L88.1679 271.864 Q90.8299 269.109 95.4132 264.48 Q100.02 259.827 101.2 258.484 Q103.446 255.961 104.325 254.225 Q105.228 252.466 105.228 250.776 Q105.228 248.022 103.284 246.285 Q101.362 244.549 98.2604 244.549 Q96.0613 244.549 93.6076 245.313 Q91.1771 246.077 88.3993 247.628 L88.3993 242.906 Q91.2234 241.772 93.6771 241.193 Q96.1308 240.614 98.1678 240.614 Q103.538 240.614 106.733 243.299 Q109.927 245.984 109.927 250.475 Q109.927 252.605 109.117 254.526 Q108.33 256.424 106.223 259.017 Q105.645 259.688 102.543 262.906 Q99.4409 266.1 93.7928 271.864 Z" fill="#000000" fill-rule="nonzero" fill-opacity="1" /><path clip-path="url(#clip210)" d="M119.927 269.92 L124.811 269.92 L124.811 275.799 L119.927 275.799 L119.927 269.92 Z" fill="#000000" fill-rule="nonzero" fill-opacity="1" /><path clip-path="url(#clip210)" d="M144.996 244.318 Q141.385 244.318 139.556 247.883 Q137.751 251.424 137.751 258.554 Q137.751 265.66 139.556 269.225 Q141.385 272.767 144.996 272.767 Q148.63 272.767 150.436 269.225 Q152.265 265.66 152.265 258.554 Q152.265 251.424 150.436 247.883 Q148.63 244.318 144.996 244.318 M144.996 240.614 Q150.806 240.614 153.862 245.221 Q156.941 249.804 156.941 258.554 Q156.941 267.281 153.862 271.887 Q150.806 276.47 144.996 276.47 Q139.186 276.47 136.107 271.887 Q133.052 267.281 133.052 258.554 Q133.052 249.804 136.107 245.221 Q139.186 240.614 144.996 240.614 Z" fill="#000000" fill-rule="nonzero" fill-opacity="1" /><polyline clip-path="url(#clip211)" style="stroke:#009af9; stroke-linecap:round; stroke-linejoin:round; stroke-width:4; stroke-opacity:1; fill:none" points="192.941,1109.49 195.103,1110.18 197.265,1110.86 199.427,1111.53 201.589,1112.2 203.751,1112.85 205.912,1113.5 208.074,1114.13 210.236,1114.76 212.398,1115.38 214.56,1116 216.722,1116.6 218.884,1117.2 221.046,1117.78 223.208,1118.36 225.37,1118.94 227.532,1119.5 229.694,1120.06 231.856,1120.61 234.018,1121.15 236.18,1121.69 238.342,1122.22 240.504,1122.74 242.666,1123.25 244.828,1123.76 246.99,1124.26 249.152,1124.76 251.314,1125.25 253.476,1125.73 255.638,1126.2 257.8,1126.67 259.962,1127.13 262.124,1127.59 264.286,1128.04 266.448,1128.49 268.61,1128.92 270.772,1129.36 272.934,1129.78 275.096,1130.21 277.258,1130.62 279.42,1131.03 281.582,1131.44 283.744,1131.84 285.906,1132.23 288.068,1132.62 290.23,1133 292.392,1133.38 294.554,1133.76 296.716,1134.12 298.878,1134.49 301.039,1134.85 303.201,1135.2 305.363,1135.55 307.525,1135.9 309.687,1136.24 311.849,1136.57 314.011,1136.9 316.173,1137.23 318.335,1137.55 320.497,1137.87 322.659,1138.19 324.821,1138.5 326.983,1138.8 329.145,1139.1 331.307,1139.4 333.469,1139.69 335.631,1139.98 337.793,1140.27 339.955,1140.55 342.117,1140.83 344.279,1141.11 346.441,1141.38 348.603,1141.65 350.765,1141.91 352.927,1142.17 355.089,1142.43 357.251,1142.68 359.413,1142.93 361.575,1143.18 363.737,1143.42 365.899,1143.66 368.061,1143.9 370.223,1144.13 372.385,1144.37 374.547,1144.59 376.709,1144.82 378.871,1145.04 381.033,1145.26 383.195,1145.48 385.357,1145.69 387.519,1145.9 389.681,1146.11 391.843,1146.31 394.005,1146.52 396.166,1146.71 398.328,1146.91 400.49,1147.11 402.652,1147.3 404.814,1147.49 406.976,1147.67 409.138,1147.87 411.3,1148.44 413.462,1149.47 415.624,1150.91 417.786,1152.71 419.948,1154.82 422.11,1157.18 424.272,1159.75 426.434,1162.49 428.596,1165.37 430.758,1168.34 432.92,1171.37 435.082,1174.44 437.244,1177.52 439.406,1180.58 441.568,1183.61 443.73,1186.58 445.892,1189.49 448.054,1192.33 450.216,1195.07 452.378,1197.73 454.54,1200.31 456.702,1202.79 458.864,1205.19 461.026,1207.51 463.188,1209.77 465.35,1211.98 467.512,1214.15 469.674,1216.31 471.836,1218.49 473.998,1220.68 476.16,1222.85 478.322,1224.99 480.484,1227.1 482.646,1229.18 484.808,1231.24 486.97,1233.27 489.132,1235.27 491.293,1237.25 493.455,1239.19 495.617,1241.12 497.779,1243.01 499.941,1244.89 502.103,1246.73 504.265,1248.56 506.427,1250.36 508.589,1252.13 510.751,1253.88 512.913,1255.61 515.075,1257.32 517.237,1259 519.399,1260.66 521.561,1262.3 523.723,1263.92 525.885,1265.51 528.047,1267.09 530.209,1268.64 532.371,1270.17 534.533,1271.68 536.695,1273.18 538.857,1274.65 541.019,1276.1 543.181,1277.54 545.343,1278.95 547.505,1280.35 549.667,1281.72 551.829,1283.08 553.991,1284.42 556.153,1285.75 558.315,1287.05 560.477,1288.34 562.639,1289.61 564.801,1290.87 566.963,1292.1 569.125,1293.33 571.287,1294.53 573.449,1295.72 575.611,1296.89 577.773,1298.05 579.935,1299.19 582.097,1300.32 584.259,1301.43 586.42,1302.53 588.582,1303.61 590.744,1304.68 592.906,1305.74 595.068,1306.78 597.23,1307.97 599.392,1309.34 601.554,1310.76 603.716,1312.14 605.878,1313.39 608.04,1314.43 610.202,1315.22 612.364,1315.7 614.526,1315.87 616.688,1315.7 618.85,1315.2 621.012,1314.41 623.174,1313.34 625.336,1312.06 627.498,1310.64 629.66,1309.16 631.822,1307.71 633.984,1306.4 636.146,1305.15 638.308,1303.92 640.47,1302.7 642.632,1301.5 644.794,1300.31 646.956,1299.14 649.118,1297.98 651.28,1296.85 653.442,1295.72 655.604,1294.61 657.766,1293.52 659.928,1292.44 662.09,1291.37 664.252,1290.32 666.414,1289.28 668.576,1288.25 670.738,1287.24 672.9,1286.25 675.062,1285.26 677.224,1284.29 679.386,1283.33 681.547,1282.39 683.709,1281.45 685.871,1280.53 688.033,1279.62 690.195,1278.73 692.357,1277.84 694.519,1276.97 696.681,1276.11 698.843,1275.26 701.005,1274.42 703.167,1273.59 705.329,1272.78 707.491,1271.97 709.653,1271.18 711.815,1270.39 713.977,1269.62 716.139,1268.85 718.301,1268.1 720.463,1267.36 722.625,1266.62 724.787,1265.9 726.949,1265.19 729.111,1264.48 731.273,1263.79 733.435,1263.1 735.597,1262.42 737.759,1261.75 739.921,1261.1 742.083,1260.44 744.245,1259.8 746.407,1259.17 748.569,1258.54 750.731,1257.93 752.893,1257.32 755.055,1256.72 757.217,1256.13 759.379,1255.54 761.541,1254.96 763.703,1254.39 765.865,1253.83 768.027,1253.28 770.189,1252.73 772.351,1252.19 774.513,1251.66 776.674,1251.13 778.836,1250.61 780.998,1250.1 783.16,1249.6 785.322,1249.1 787.484,1248.61 789.646,1248.12 791.808,1247.64 793.97,1247.17 796.132,1246.71 798.294,1246.25 800.456,1245.79 802.618,1245.34 804.78,1244.9 806.942,1244.47 809.104,1244.04 811.266,1243.61 813.428,1243.19 815.59,1242.78 817.752,1242.37 819.914,1241.97 822.076,1241.57 824.238,1241.18 826.4,1240.79 828.562,1240.41 830.724,1240.04 832.886,1239.66 835.048,1239.3 837.21,1238.89 839.372,1237.64 841.534,1235.32 843.696,1232.09 845.858,1228.08 848.02,1223.41 850.182,1218.21 852.344,1212.58 854.506,1206.61 856.668,1200.41 858.83,1194.05 860.992,1187.6 863.154,1181.14 865.316,1174.71 867.478,1168.38 869.64,1162.16 871.801,1156.11 873.963,1150.24 876.125,1144.56 878.287,1139.08 880.449,1133.8 882.611,1128.7 884.773,1123.77 886.935,1118.97 889.097,1114.27 891.259,1109.62 893.421,1104.97 895.583,1100.27 897.745,1095.59 899.907,1090.97 902.069,1086.42 904.231,1081.93 906.393,1077.49 908.555,1073.12 910.717,1068.8 912.879,1064.54 915.041,1060.33 917.203,1056.19 919.365,1052.09 921.527,1048.05 923.689,1044.07 925.851,1040.14 928.013,1036.26 930.175,1032.43 932.337,1028.65 934.499,1024.92 936.661,1021.24 938.823,1017.61 940.985,1014.03 943.147,1010.5 945.309,1007.01 947.471,1003.57 949.633,1000.17 951.795,996.82 953.957,993.513 956.119,990.251 958.281,987.032 960.443,983.855 962.605,980.721 964.767,977.628 966.928,974.577 969.09,971.565 971.252,968.594 973.414,965.662 975.576,962.77 977.738,959.915 979.9,957.098 982.062,954.319 984.224,951.577 986.386,948.871 988.548,946.2 990.71,943.566 992.872,940.966 995.034,938.4 997.196,935.869 999.358,933.371 1001.52,930.907 1003.68,928.474 1005.84,926.075 1008.01,923.707 1010.17,921.37 1012.33,919.064 1014.49,916.789 1016.65,914.544 1018.82,912.329 1020.98,910.143 1023.14,907.986 1025.3,905.857 1027.46,903.757 1029.63,901.685 1031.79,899.64 1033.95,897.623 1036.11,895.632 1038.27,893.667 1040.44,891.729 1042.6,889.816 1044.76,887.929 1046.92,886.066 1049.08,884.228 1051.25,882.415 1053.41,880.626 1055.57,878.546 1057.73,875.209 1059.89,870.677 1062.06,865.089 1064.22,858.576 1066.38,851.263 1068.54,843.268 1070.7,834.701 1072.87,825.666 1075.03,816.26 1077.19,806.574 1079.35,796.691 1081.51,786.686 1083.68,776.63 1085.84,766.584 1088,756.604 1090.16,746.74 1092.32,737.031 1094.49,727.514 1096.65,718.216 1098.81,709.158 1100.97,700.355 1103.13,691.812 1105.3,683.531 1107.46,675.505 1109.62,667.72 1111.78,660.156 1113.94,652.785 1116.1,645.573 1118.27,638.479 1120.43,631.454 1122.59,624.443 1124.75,617.386 1126.91,610.343 1129.08,603.394 1131.24,596.537 1133.4,589.77 1135.56,583.094 1137.72,576.506 1139.89,570.005 1142.05,563.591 1144.21,557.261 1146.37,551.016 1148.53,544.853 1150.7,538.772 1152.86,532.772 1155.02,526.851 1157.18,521.009 1159.34,515.244 1161.51,509.555 1163.67,503.942 1165.83,498.403 1167.99,492.937 1170.15,487.543 1172.32,482.221 1174.48,476.969 1176.64,471.787 1178.8,466.673 1180.96,461.627 1183.13,456.648 1185.29,451.736 1187.45,446.888 1189.61,442.105 1191.77,437.385 1193.94,432.728 1196.1,428.133 1198.26,423.599 1200.42,419.125 1202.58,414.71 1204.75,410.355 1206.91,406.057 1209.07,401.816 1211.23,397.632 1213.39,393.503 1215.56,389.429 1217.72,385.409 1219.88,381.443 1222.04,377.529 1224.2,373.667 1226.37,369.857 1228.53,366.097 1230.69,362.387 1232.85,358.726 1235.01,355.113 1237.18,351.549 1239.34,348.032 1241.5,344.561 1243.66,341.137 1245.82,337.757 1247.99,334.423 1250.15,331.132 1252.31,327.886 1254.47,324.682 1256.63,321.52 1258.8,318.4 1260.96,315.322 1263.12,312.527 1265.28,312.094 1267.44,314.244 1269.61,318.674 1271.77,325.1 1273.93,333.249 1276.09,342.868 1278.25,353.718 1280.42,365.576 1282.58,378.235 1284.74,391.503 1286.9,405.204 1289.06,419.178 1291.23,433.282 1293.39,447.386 1295.55,461.378 1297.71,475.162 1299.87,488.656 1302.03,501.795 1304.2,514.528 1306.36,526.824 1308.52,538.662 1310.68,550.042 1312.84,560.977 1315.01,571.495 1317.17,581.643 1319.33,591.48 1321.49,601.084 1323.65,610.547 1325.82,619.977 1327.98,629.497 1330.14,639.168 1332.3,648.743 1334.46,658.191 1336.63,667.514 1338.79,676.713 1340.95,685.79 1343.11,694.747 1345.27,703.585 1347.44,712.306 1349.6,720.912 1351.76,729.403 1353.92,737.781 1356.08,746.049 1358.25,754.207 1360.41,762.256 1362.57,770.199 1364.73,778.037 1366.89,785.771 1369.06,793.402 1371.22,800.932 1373.38,808.362 1375.54,815.694 1377.7,822.928 1379.87,830.067 1382.03,837.112 1384.19,844.063 1386.35,850.923 1388.51,857.692 1390.68,864.371 1392.84,870.961 1395,877.465 1397.16,883.882 1399.32,890.214 1401.49,896.462 1403.65,902.627 1405.81,908.711 1407.97,914.713 1410.13,920.636 1412.3,926.48 1414.46,932.247 1416.62,937.937 1418.78,943.551 1420.94,949.091 1423.11,954.557 1425.27,959.95 1427.43,965.272 1429.59,970.523 1431.75,975.704 1433.92,980.817 1436.08,985.861 1438.24,990.839 1440.4,995.75 1442.56,1000.6 1444.73,1005.38 1446.89,1010.1 1449.05,1014.75 1451.21,1019.35 1453.37,1023.88 1455.54,1028.35 1457.7,1032.77 1459.86,1037.12 1462.02,1041.42 1464.18,1045.66 1466.35,1049.85 1468.51,1053.97 1470.67,1058.05 1472.83,1062.07 1474.99,1066.04 1477.16,1069.95 1479.32,1073.82 1481.48,1077.63 1483.64,1081.39 1485.8,1085.1 1487.97,1088.77 1490.13,1092.03 1492.29,1094.2 1494.45,1095.79 1496.61,1097.21 1498.77,1098.71 1500.94,1100.32 1503.1,1101.91 1505.26,1103.45 1507.42,1104.97 1509.58,1106.47 1511.75,1107.95 1513.91,1109.4 1516.07,1110.84 1518.23,1112.26 1520.39,1113.66 1522.56,1115.05 1524.72,1116.41 1526.88,1117.76 1529.04,1119.08 1531.2,1120.39 1533.37,1121.69 1535.53,1122.96 1537.69,1124.22 1539.85,1125.46 1542.01,1126.69 1544.18,1127.9 1546.34,1129.09 1548.5,1130.27 1550.66,1131.43 1552.82,1132.58 1554.99,1133.71 1557.15,1134.83 1559.31,1135.93 1561.47,1137.02 1563.63,1138.09 1565.8,1139.15 1567.96,1140.19 1570.12,1141.22 1572.28,1142.24 1574.44,1143.24 1576.61,1144.23 1578.77,1145.21 1580.93,1146.17 1583.09,1147.13 1585.25,1148.06 1587.42,1148.99 1589.58,1149.91 1591.74,1150.81 1593.9,1151.7 1596.06,1152.57 1598.23,1153.44 1600.39,1154.3 1602.55,1155.14 1604.71,1155.97 1606.87,1156.79 1609.04,1157.6 1611.2,1158.4 1613.36,1159.19 1615.52,1159.97 1617.68,1160.74 1619.85,1161.5 1622.01,1162.25 1624.17,1162.98 1626.33,1163.71 1628.49,1164.43 1630.66,1165.14 1632.82,1165.84 1634.98,1166.53 1637.14,1167.21 1639.3,1167.89 1641.47,1168.55 1643.63,1169.2 1645.79,1169.85 1647.95,1170.49 1650.11,1171.12 1652.28,1171.74 1654.44,1172.35 1656.6,1172.95 1658.76,1173.55 1660.92,1174.14 1663.09,1174.72 1665.25,1175.29 1667.41,1175.86 1669.57,1176.41 1671.73,1176.96 1673.9,1177.51 1676.06,1178.04 1678.22,1178.57 1680.38,1179.09 1682.54,1179.61 1684.7,1180.12 1686.87,1180.62 1689.03,1181.11 1691.19,1181.6 1693.35,1182.08 1695.51,1182.56 1697.68,1183.03 1699.84,1183.49 1702,1183.76 1704.16,1183.54 1706.32,1182.88 1708.49,1181.84 1710.65,1180.47 1712.81,1178.82 1714.97,1176.95 1717.13,1174.89 1719.3,1172.69 1721.46,1170.38 1723.62,1168 1725.78,1165.58 1727.94,1163.14 1730.11,1160.71 1732.27,1158.32 1734.43,1155.97 1736.59,1153.68 1738.75,1151.47 1740.92,1149.33 1743.08,1147.28 1745.24,1145.3 1747.4,1143.41 1749.56,1141.59 1751.73,1139.83 1753.89,1138.12 1756.05,1136.44 1758.21,1134.77 1760.37,1133.1 1762.54,1131.39 1764.7,1129.7 1766.86,1128.02 1769.02,1126.37 1771.18,1124.75 1773.35,1123.14 1775.51,1121.56 1777.67,1119.99 1779.83,1118.45 1781.99,1116.93 1784.16,1115.43 1786.32,1113.94 1788.48,1112.48 1790.64,1111.04 1792.8,1109.61 1794.97,1108.21 1797.13,1106.82 1799.29,1105.45 1801.45,1104.1 1803.61,1102.77 1805.78,1101.46 1807.94,1100.16 1810.1,1098.88 1812.26,1097.62 1814.42,1096.37 1816.59,1095.14 1818.75,1093.93 1820.91,1092.73 1823.07,1091.55 1825.23,1090.38 1827.4,1089.23 1829.56,1088.1 1831.72,1086.98 1833.88,1085.87 1836.04,1084.78 1838.21,1083.7 1840.37,1082.64 1842.53,1081.6 1844.69,1080.56 1846.85,1079.54 1849.02,1078.53 1851.18,1077.54 1853.34,1076.56 1855.5,1075.59 1857.66,1074.64 1859.83,1073.7 1861.99,1072.77 1864.15,1071.85 1866.31,1070.95 1868.47,1070.06 1870.63,1069.17 1872.8,1068.31 1874.96,1067.45 1877.12,1066.6 1879.28,1065.77 1881.44,1064.94 1883.61,1064.13 1885.77,1063.33 1887.93,1062.54 1890.09,1061.75 1892.25,1060.98 1894.42,1060.22 1896.58,1059.47 1898.74,1058.73 1900.9,1058 1903.06,1057.28 1905.23,1056.57 1907.39,1055.87 1909.55,1055.17 1911.71,1054.49 1913.87,1053.82 1916.04,1052.69 1918.2,1050.02 1920.36,1045.95 1922.52,1040.65 1924.68,1034.28 1926.85,1027.01 1929.01,1018.98 1931.17,1010.32 1933.33,1001.18 1935.49,991.652 1937.66,981.861 1939.82,971.902 1941.98,961.864 1944.14,951.827 1946.3,941.861 1948.47,932.026 1950.63,922.372 1952.79,912.942 1954.95,903.765 1957.11,894.864 1959.28,886.251 1961.44,877.928 1963.6,869.887 1965.76,862.111 1967.92,854.574 1970.09,847.239 1972.25,840.06 1974.41,832.982 1976.57,825.939 1978.73,818.855 1980.9,811.717 1983.06,804.665 1985.22,797.706 1987.38,790.84 1989.54,784.065 1991.71,777.38 1993.87,770.783 1996.03,764.274 1998.19,757.851 2000.35,751.513 2002.52,745.259 2004.68,739.088 2006.84,732.999 2009,726.991 2011.16,721.062 2013.33,715.212 2015.49,709.44 2017.65,703.744 2019.81,698.123 2021.97,692.576 2024.14,687.103 2026.3,681.702 2028.46,676.373 2030.62,671.115 2032.78,665.926 2034.95,660.806 2037.11,655.754 2039.27,650.769 2041.43,645.85 2043.59,640.996 2045.76,636.207 2047.92,631.482 2050.08,626.819 2052.24,622.218 2054.4,617.678 2056.57,613.199 2058.73,608.779 2060.89,604.418 2063.05,600.114 2065.21,595.868 2067.37,591.678 2069.54,587.544 2071.7,583.465 2073.86,579.44 2076.02,575.468 2078.18,571.549 2080.35,567.682 2082.51,563.866 2084.67,560.101 2086.83,556.386 2088.99,552.72 2091.16,549.102 2093.32,545.533 2095.48,542.01 2097.64,538.535 2099.8,535.105 2101.97,531.721 2104.13,528.381 2106.29,525.086 2108.45,521.834 2110.61,518.626 2112.78,515.46 2114.94,512.335 2117.1,509.253 2119.26,506.211 2121.42,503.209 2123.59,500.248 2125.75,497.104 2127.91,492.046 2130.07,486.984 2132.23,484.091 2134.4,484.719 2136.56,489.391 2138.72,497.806 2140.88,508.842 2143.04,520.548 2145.21,531.22 2147.37,541.692 2149.53,552.025 2151.69,562.221 2153.85,572.282 2156.02,582.21 2158.18,592.006 2160.34,601.673 2162.5,611.211 2164.66,620.623 2166.83,629.91 2168.99,639.074 2171.15,648.116 2173.31,657.038 2175.47,665.842 2177.64,674.529 2179.8,683.102 2181.96,691.56 2184.12,699.906 2186.28,708.141 2188.45,716.268 2190.61,724.286 2192.77,732.198 2194.93,740.006 2197.09,747.709 2199.26,755.311 2201.42,762.812 2203.58,770.213 2205.74,777.517 2207.9,784.723 2210.07,791.834 2212.23,798.851 2214.39,805.775 2216.55,812.607 2218.71,819.348 2220.88,826 2223.04,832.564 2225.2,839.041 2227.36,845.432 2229.52,851.739 2231.69,857.961 2233.85,864.101 2236.01,870.16 2238.17,876.139 2240.33,882.038 2242.5,887.859 2244.66,893.602 2246.82,899.27 2248.98,904.862 2251.14,910.38 2253.3,915.825 2255.47,921.198 2257.63,926.5 2259.79,931.731 2261.95,936.893 2264.11,941.987 2266.28,947.013 2268.44,951.972 2270.6,956.866 2272.76,961.695 2274.92,966.46 2277.09,971.162 2279.25,975.801 2281.41,980.379 2283.57,984.896 2285.73,989.354 2287.9,993.752 2290.06,998.092 2292.22,1002.37 2294.38,1006.6 2296.54,1010.77 2298.71,1014.88 2300.87,1018.94 2303.03,1022.95 2305.19,1026.9 2307.35,1030.8 2309.52,1034.65 2311.68,1038.45 2313.84,1042.2 2316,1045.89 2318.16,1049.54 2320.33,1053.14 2322.49,1056.69 2324.65,1060.2 2326.81,1063.66 2328.97,1067.07 2331.14,1070.44 2333.3,1073.76 2335.46,1077.04 2337.62,1080.27 2339.78,1083.47 2341.95,1086.62 2344.11,1089.73 2346.27,1092.79 2348.43,1095.82 2350.59,1098.81 2352.76,1101.75 "/>
<polyline clip-path="url(#clip211)" style="stroke:#e26f46; stroke-linecap:round; stroke-linejoin:round; stroke-width:4; stroke-opacity:1; fill:none" points="192.941,1161.57 195.103,1161.57 197.265,1161.57 199.427,1161.57 201.589,1161.57 203.751,1161.57 205.912,1161.57 208.074,1161.57 210.236,1161.57 212.398,1161.57 214.56,1161.57 216.722,1161.57 218.884,1161.57 221.046,1161.57 223.208,1161.57 225.37,1161.57 227.532,1161.57 229.694,1161.57 231.856,1161.57 234.018,1161.57 236.18,1161.57 238.342,1161.57 240.504,1161.57 242.666,1161.57 244.828,1161.57 246.99,1161.57 249.152,1161.57 251.314,1161.57 253.476,1161.57 255.638,1161.57 257.8,1161.57 259.962,1161.57 262.124,1161.57 264.286,1161.57 266.448,1161.57 268.61,1161.57 270.772,1161.57 272.934,1161.57 275.096,1161.57 277.258,1161.57 279.42,1161.57 281.582,1161.57 283.744,1161.57 285.906,1161.57 288.068,1161.57 290.23,1161.57 292.392,1161.57 294.554,1161.57 296.716,1161.57 298.878,1161.57 301.039,1161.57 303.201,1161.57 305.363,1161.57 307.525,1161.57 309.687,1161.57 311.849,1161.57 314.011,1161.57 316.173,1161.57 318.335,1161.57 320.497,1161.57 322.659,1161.57 324.821,1161.57 326.983,1161.57 329.145,1161.57 331.307,1161.57 333.469,1161.57 335.631,1161.57 337.793,1161.57 339.955,1161.57 342.117,1161.57 344.279,1161.57 346.441,1161.57 348.603,1161.57 350.765,1161.57 352.927,1161.57 355.089,1161.57 357.251,1161.57 359.413,1161.57 361.575,1161.57 363.737,1161.57 365.899,1161.57 368.061,1161.57 370.223,1161.57 372.385,1161.57 374.547,1161.57 376.709,1161.57 378.871,1161.57 381.033,1161.57 383.195,1161.57 385.357,1161.57 387.519,1161.57 389.681,1161.57 391.843,1161.57 394.005,1161.57 396.166,1161.57 398.328,1161.57 400.49,1161.57 402.652,1161.57 404.814,1161.57 406.976,1161.57 409.138,1384.24 411.3,1384.24 413.462,1384.24 415.624,1384.24 417.786,1384.24 419.948,1384.24 422.11,1384.24 424.272,1384.24 426.434,1384.24 428.596,1384.24 430.758,1384.24 432.92,1384.24 435.082,1384.24 437.244,1384.24 439.406,1384.24 441.568,1384.24 443.73,1384.24 445.892,1384.24 448.054,1384.24 450.216,1384.24 452.378,1384.24 454.54,1384.24 456.702,1384.24 458.864,1384.24 461.026,1384.24 463.188,1384.24 465.35,1384.24 467.512,1384.24 469.674,1384.24 471.836,1384.24 473.998,1384.24 476.16,1384.24 478.322,1384.24 480.484,1384.24 482.646,1384.24 484.808,1384.24 486.97,1384.24 489.132,1384.24 491.293,1384.24 493.455,1384.24 495.617,1384.24 497.779,1384.24 499.941,1384.24 502.103,1384.24 504.265,1384.24 506.427,1384.24 508.589,1384.24 510.751,1384.24 512.913,1384.24 515.075,1384.24 517.237,1384.24 519.399,1384.24 521.561,1384.24 523.723,1384.24 525.885,1384.24 528.047,1384.24 530.209,1384.24 532.371,1384.24 534.533,1384.24 536.695,1384.24 538.857,1384.24 541.019,1384.24 543.181,1384.24 545.343,1384.24 547.505,1384.24 549.667,1384.24 551.829,1384.24 553.991,1384.24 556.153,1384.24 558.315,1384.24 560.477,1384.24 562.639,1384.24 564.801,1384.24 566.963,1384.24 569.125,1384.24 571.287,1384.24 573.449,1384.24 575.611,1384.24 577.773,1384.24 579.935,1384.24 582.097,1384.24 584.259,1384.24 586.42,1384.24 588.582,1384.24 590.744,1384.24 592.906,1384.24 595.068,1384.24 597.23,1384.24 599.392,1384.24 601.554,1384.24 603.716,1384.24 605.878,1384.24 608.04,1384.24 610.202,1384.24 612.364,1384.24 614.526,1384.24 616.688,1384.24 618.85,1384.24 621.012,1384.24 623.174,1384.24 625.336,1212.02 627.498,1212.02 629.66,1212.02 631.822,1212.02 633.984,1212.02 636.146,1212.02 638.308,1212.02 640.47,1212.02 642.632,1212.02 644.794,1212.02 646.956,1212.02 649.118,1212.02 651.28,1212.02 653.442,1212.02 655.604,1212.02 657.766,1212.02 659.928,1212.02 662.09,1212.02 664.252,1212.02 666.414,1212.02 668.576,1212.02 670.738,1212.02 672.9,1212.02 675.062,1212.02 677.224,1212.02 679.386,1212.02 681.547,1212.02 683.709,1212.02 685.871,1212.02 688.033,1212.02 690.195,1212.02 692.357,1212.02 694.519,1212.02 696.681,1212.02 698.843,1212.02 701.005,1212.02 703.167,1212.02 705.329,1212.02 707.491,1212.02 709.653,1212.02 711.815,1212.02 713.977,1212.02 716.139,1212.02 718.301,1212.02 720.463,1212.02 722.625,1212.02 724.787,1212.02 726.949,1212.02 729.111,1212.02 731.273,1212.02 733.435,1212.02 735.597,1212.02 737.759,1212.02 739.921,1212.02 742.083,1212.02 744.245,1212.02 746.407,1212.02 748.569,1212.02 750.731,1212.02 752.893,1212.02 755.055,1212.02 757.217,1212.02 759.379,1212.02 761.541,1212.02 763.703,1212.02 765.865,1212.02 768.027,1212.02 770.189,1212.02 772.351,1212.02 774.513,1212.02 776.674,1212.02 778.836,1212.02 780.998,1212.02 783.16,1212.02 785.322,1212.02 787.484,1212.02 789.646,1212.02 791.808,1212.02 793.97,1212.02 796.132,1212.02 798.294,1212.02 800.456,1212.02 802.618,1212.02 804.78,1212.02 806.942,1212.02 809.104,1212.02 811.266,1212.02 813.428,1212.02 815.59,1212.02 817.752,1212.02 819.914,1212.02 822.076,1212.02 824.238,1212.02 826.4,1212.02 828.562,1212.02 830.724,1212.02 832.886,1212.02 835.048,1212.02 837.21,1212.02 839.372,1212.02 841.534,747.455 843.696,747.455 845.858,747.455 848.02,747.455 850.182,747.455 852.344,747.455 854.506,747.455 856.668,747.455 858.83,747.455 860.992,747.455 863.154,747.455 865.316,747.455 867.478,747.455 869.64,747.455 871.801,747.455 873.963,747.455 876.125,747.455 878.287,747.455 880.449,747.455 882.611,747.455 884.773,747.455 886.935,747.455 889.097,747.455 891.259,747.455 893.421,747.455 895.583,747.455 897.745,747.455 899.907,747.455 902.069,747.455 904.231,747.455 906.393,747.455 908.555,747.455 910.717,747.455 912.879,747.455 915.041,747.455 917.203,747.455 919.365,747.455 921.527,747.455 923.689,747.455 925.851,747.455 928.013,747.455 930.175,747.455 932.337,747.455 934.499,747.455 936.661,747.455 938.823,747.455 940.985,747.455 943.147,747.455 945.309,747.455 947.471,747.455 949.633,747.455 951.795,747.455 953.957,747.455 956.119,747.455 958.281,747.455 960.443,747.455 962.605,747.455 964.767,747.455 966.928,747.455 969.09,747.455 971.252,747.455 973.414,747.455 975.576,747.455 977.738,747.455 979.9,747.455 982.062,747.455 984.224,747.455 986.386,747.455 988.548,747.455 990.71,747.455 992.872,747.455 995.034,747.455 997.196,747.455 999.358,747.455 1001.52,747.455 1003.68,747.455 1005.84,747.455 1008.01,747.455 1010.17,747.455 1012.33,747.455 1014.49,747.455 1016.65,747.455 1018.82,747.455 1020.98,747.455 1023.14,747.455 1025.3,747.455 1027.46,747.455 1029.63,747.455 1031.79,747.455 1033.95,747.455 1036.11,747.455 1038.27,747.455 1040.44,747.455 1042.6,747.455 1044.76,747.455 1046.92,747.455 1049.08,747.455 1051.25,747.455 1053.41,747.455 1055.57,747.455 1057.73,86.1857 1059.89,86.1857 1062.06,86.1857 1064.22,86.1857 1066.38,86.1857 1068.54,86.1857 1070.7,86.1857 1072.87,86.1857 1075.03,86.1857 1077.19,86.1857 1079.35,86.1857 1081.51,86.1857 1083.68,86.1857 1085.84,86.1857 1088,86.1857 1090.16,86.1857 1092.32,86.1857 1094.49,86.1857 1096.65,86.1857 1098.81,86.1857 1100.97,86.1857 1103.13,86.1857 1105.3,86.1857 1107.46,86.1857 1109.62,86.1857 1111.78,86.1857 1113.94,86.1857 1116.1,86.1857 1118.27,86.1857 1120.43,86.1857 1122.59,86.1857 1124.75,86.1857 1126.91,86.1857 1129.08,86.1857 1131.24,86.1857 1133.4,86.1857 1135.56,86.1857 1137.72,86.1857 1139.89,86.1857 1142.05,86.1857 1144.21,86.1857 1146.37,86.1857 1148.53,86.1857 1150.7,86.1857 1152.86,86.1857 1155.02,86.1857 1157.18,86.1857 1159.34,86.1857 1161.51,86.1857 1163.67,86.1857 1165.83,86.1857 1167.99,86.1857 1170.15,86.1857 1172.32,86.1857 1174.48,86.1857 1176.64,86.1857 1178.8,86.1857 1180.96,86.1857 1183.13,86.1857 1185.29,86.1857 1187.45,86.1857 1189.61,86.1857 1191.77,86.1857 1193.94,86.1857 1196.1,86.1857 1198.26,86.1857 1200.42,86.1857 1202.58,86.1857 1204.75,86.1857 1206.91,86.1857 1209.07,86.1857 1211.23,86.1857 1213.39,86.1857 1215.56,86.1857 1217.72,86.1857 1219.88,86.1857 1222.04,86.1857 1224.2,86.1857 1226.37,86.1857 1228.53,86.1857 1230.69,86.1857 1232.85,86.1857 1235.01,86.1857 1237.18,86.1857 1239.34,86.1857 1241.5,86.1857 1243.66,86.1857 1245.82,86.1857 1247.99,86.1857 1250.15,86.1857 1252.31,86.1857 1254.47,86.1857 1256.63,86.1857 1258.8,86.1857 1260.96,86.1857 1263.12,86.1857 1265.28,86.1857 1267.44,86.1857 1269.61,86.1857 1271.77,86.1857 1273.93,1361.37 1276.09,1361.37 1278.25,1361.37 1280.42,1361.37 1282.58,1361.37 1284.74,1361.37 1286.9,1361.37 1289.06,1361.37 1291.23,1361.37 1293.39,1361.37 1295.55,1361.37 1297.71,1361.37 1299.87,1361.37 1302.03,1361.37 1304.2,1361.37 1306.36,1361.37 1308.52,1361.37 1310.68,1361.37 1312.84,1361.37 1315.01,1361.37 1317.17,1361.37 1319.33,1361.37 1321.49,1361.37 1323.65,1361.37 1325.82,1361.37 1327.98,1361.37 1330.14,1361.37 1332.3,1361.37 1334.46,1361.37 1336.63,1361.37 1338.79,1361.37 1340.95,1361.37 1343.11,1361.37 1345.27,1361.37 1347.44,1361.37 1349.6,1361.37 1351.76,1361.37 1353.92,1361.37 1356.08,1361.37 1358.25,1361.37 1360.41,1361.37 1362.57,1361.37 1364.73,1361.37 1366.89,1361.37 1369.06,1361.37 1371.22,1361.37 1373.38,1361.37 1375.54,1361.37 1377.7,1361.37 1379.87,1361.37 1382.03,1361.37 1384.19,1361.37 1386.35,1361.37 1388.51,1361.37 1390.68,1361.37 1392.84,1361.37 1395,1361.37 1397.16,1361.37 1399.32,1361.37 1401.49,1361.37 1403.65,1361.37 1405.81,1361.37 1407.97,1361.37 1410.13,1361.37 1412.3,1361.37 1414.46,1361.37 1416.62,1361.37 1418.78,1361.37 1420.94,1361.37 1423.11,1361.37 1425.27,1361.37 1427.43,1361.37 1429.59,1361.37 1431.75,1361.37 1433.92,1361.37 1436.08,1361.37 1438.24,1361.37 1440.4,1361.37 1442.56,1361.37 1444.73,1361.37 1446.89,1361.37 1449.05,1361.37 1451.21,1361.37 1453.37,1361.37 1455.54,1361.37 1457.7,1361.37 1459.86,1361.37 1462.02,1361.37 1464.18,1361.37 1466.35,1361.37 1468.51,1361.37 1470.67,1361.37 1472.83,1361.37 1474.99,1361.37 1477.16,1361.37 1479.32,1361.37 1481.48,1361.37 1483.64,1361.37 1485.8,1361.37 1487.97,1361.37 1490.13,1217.93 1492.29,1217.93 1494.45,1217.93 1496.61,1217.93 1498.77,1217.93 1500.94,1217.93 1503.1,1217.93 1505.26,1217.93 1507.42,1217.93 1509.58,1217.93 1511.75,1217.93 1513.91,1217.93 1516.07,1217.93 1518.23,1217.93 1520.39,1217.93 1522.56,1217.93 1524.72,1217.93 1526.88,1217.93 1529.04,1217.93 1531.2,1217.93 1533.37,1217.93 1535.53,1217.93 1537.69,1217.93 1539.85,1217.93 1542.01,1217.93 1544.18,1217.93 1546.34,1217.93 1548.5,1217.93 1550.66,1217.93 1552.82,1217.93 1554.99,1217.93 1557.15,1217.93 1559.31,1217.93 1561.47,1217.93 1563.63,1217.93 1565.8,1217.93 1567.96,1217.93 1570.12,1217.93 1572.28,1217.93 1574.44,1217.93 1576.61,1217.93 1578.77,1217.93 1580.93,1217.93 1583.09,1217.93 1585.25,1217.93 1587.42,1217.93 1589.58,1217.93 1591.74,1217.93 1593.9,1217.93 1596.06,1217.93 1598.23,1217.93 1600.39,1217.93 1602.55,1217.93 1604.71,1217.93 1606.87,1217.93 1609.04,1217.93 1611.2,1217.93 1613.36,1217.93 1615.52,1217.93 1617.68,1217.93 1619.85,1217.93 1622.01,1217.93 1624.17,1217.93 1626.33,1217.93 1628.49,1217.93 1630.66,1217.93 1632.82,1217.93 1634.98,1217.93 1637.14,1217.93 1639.3,1217.93 1641.47,1217.93 1643.63,1217.93 1645.79,1217.93 1647.95,1217.93 1650.11,1217.93 1652.28,1217.93 1654.44,1217.93 1656.6,1217.93 1658.76,1217.93 1660.92,1217.93 1663.09,1217.93 1665.25,1217.93 1667.41,1217.93 1669.57,1217.93 1671.73,1217.93 1673.9,1217.93 1676.06,1217.93 1678.22,1217.93 1680.38,1217.93 1682.54,1217.93 1684.7,1217.93 1686.87,1217.93 1689.03,1217.93 1691.19,1217.93 1693.35,1217.93 1695.51,1217.93 1697.68,1217.93 1699.84,1217.93 1702,1217.93 1704.16,1217.93 1706.32,1003.62 1708.49,1003.62 1710.65,1003.62 1712.81,1003.62 1714.97,1003.62 1717.13,1003.62 1719.3,1003.62 1721.46,1003.62 1723.62,1003.62 1725.78,1003.62 1727.94,1003.62 1730.11,1003.62 1732.27,1003.62 1734.43,1003.62 1736.59,1003.62 1738.75,1003.62 1740.92,1003.62 1743.08,1003.62 1745.24,1003.62 1747.4,1003.62 1749.56,1003.62 1751.73,1003.62 1753.89,1003.62 1756.05,1003.62 1758.21,1003.62 1760.37,1003.62 1762.54,1003.62 1764.7,1003.62 1766.86,1003.62 1769.02,1003.62 1771.18,1003.62 1773.35,1003.62 1775.51,1003.62 1777.67,1003.62 1779.83,1003.62 1781.99,1003.62 1784.16,1003.62 1786.32,1003.62 1788.48,1003.62 1790.64,1003.62 1792.8,1003.62 1794.97,1003.62 1797.13,1003.62 1799.29,1003.62 1801.45,1003.62 1803.61,1003.62 1805.78,1003.62 1807.94,1003.62 1810.1,1003.62 1812.26,1003.62 1814.42,1003.62 1816.59,1003.62 1818.75,1003.62 1820.91,1003.62 1823.07,1003.62 1825.23,1003.62 1827.4,1003.62 1829.56,1003.62 1831.72,1003.62 1833.88,1003.62 1836.04,1003.62 1838.21,1003.62 1840.37,1003.62 1842.53,1003.62 1844.69,1003.62 1846.85,1003.62 1849.02,1003.62 1851.18,1003.62 1853.34,1003.62 1855.5,1003.62 1857.66,1003.62 1859.83,1003.62 1861.99,1003.62 1864.15,1003.62 1866.31,1003.62 1868.47,1003.62 1870.63,1003.62 1872.8,1003.62 1874.96,1003.62 1877.12,1003.62 1879.28,1003.62 1881.44,1003.62 1883.61,1003.62 1885.77,1003.62 1887.93,1003.62 1890.09,1003.62 1892.25,1003.62 1894.42,1003.62 1896.58,1003.62 1898.74,1003.62 1900.9,1003.62 1903.06,1003.62 1905.23,1003.62 1907.39,1003.62 1909.55,1003.62 1911.71,1003.62 1913.87,1003.62 1916.04,1003.62 1918.2,1003.62 1920.36,1003.62 1922.52,279.816 1924.68,279.816 1926.85,279.816 1929.01,279.816 1931.17,279.816 1933.33,279.816 1935.49,279.816 1937.66,279.816 1939.82,279.816 1941.98,279.816 1944.14,279.816 1946.3,279.816 1948.47,279.816 1950.63,279.816 1952.79,279.816 1954.95,279.816 1957.11,279.816 1959.28,279.816 1961.44,279.816 1963.6,279.816 1965.76,279.816 1967.92,279.816 1970.09,279.816 1972.25,279.816 1974.41,279.816 1976.57,279.816 1978.73,279.816 1980.9,279.816 1983.06,279.816 1985.22,279.816 1987.38,279.816 1989.54,279.816 1991.71,279.816 1993.87,279.816 1996.03,279.816 1998.19,279.816 2000.35,279.816 2002.52,279.816 2004.68,279.816 2006.84,279.816 2009,279.816 2011.16,279.816 2013.33,279.816 2015.49,279.816 2017.65,279.816 2019.81,279.816 2021.97,279.816 2024.14,279.816 2026.3,279.816 2028.46,279.816 2030.62,279.816 2032.78,279.816 2034.95,279.816 2037.11,279.816 2039.27,279.816 2041.43,279.816 2043.59,279.816 2045.76,279.816 2047.92,279.816 2050.08,279.816 2052.24,279.816 2054.4,279.816 2056.57,279.816 2058.73,279.816 2060.89,279.816 2063.05,279.816 2065.21,279.816 2067.37,279.816 2069.54,279.816 2071.7,279.816 2073.86,279.816 2076.02,279.816 2078.18,279.816 2080.35,279.816 2082.51,279.816 2084.67,279.816 2086.83,279.816 2088.99,279.816 2091.16,279.816 2093.32,279.816 2095.48,279.816 2097.64,279.816 2099.8,279.816 2101.97,279.816 2104.13,279.816 2106.29,279.816 2108.45,279.816 2110.61,279.816 2112.78,279.816 2114.94,279.816 2117.1,279.816 2119.26,279.816 2121.42,279.816 2123.59,279.816 2125.75,279.816 2127.91,279.816 2130.07,279.816 2132.23,279.816 2134.4,279.816 2136.56,279.816 2138.72,1321.09 2140.88,1321.09 2143.04,1321.09 2145.21,1321.09 2147.37,1321.09 2149.53,1321.09 2151.69,1321.09 2153.85,1321.09 2156.02,1321.09 2158.18,1321.09 2160.34,1321.09 2162.5,1321.09 2164.66,1321.09 2166.83,1321.09 2168.99,1321.09 2171.15,1321.09 2173.31,1321.09 2175.47,1321.09 2177.64,1321.09 2179.8,1321.09 2181.96,1321.09 2184.12,1321.09 2186.28,1321.09 2188.45,1321.09 2190.61,1321.09 2192.77,1321.09 2194.93,1321.09 2197.09,1321.09 2199.26,1321.09 2201.42,1321.09 2203.58,1321.09 2205.74,1321.09 2207.9,1321.09 2210.07,1321.09 2212.23,1321.09 2214.39,1321.09 2216.55,1321.09 2218.71,1321.09 2220.88,1321.09 2223.04,1321.09 2225.2,1321.09 2227.36,1321.09 2229.52,1321.09 2231.69,1321.09 2233.85,1321.09 2236.01,1321.09 2238.17,1321.09 2240.33,1321.09 2242.5,1321.09 2244.66,1321.09 2246.82,1321.09 2248.98,1321.09 2251.14,1321.09 2253.3,1321.09 2255.47,1321.09 2257.63,1321.09 2259.79,1321.09 2261.95,1321.09 2264.11,1321.09 2266.28,1321.09 2268.44,1321.09 2270.6,1321.09 2272.76,1321.09 2274.92,1321.09 2277.09,1321.09 2279.25,1321.09 2281.41,1321.09 2283.57,1321.09 2285.73,1321.09 2287.9,1321.09 2290.06,1321.09 2292.22,1321.09 2294.38,1321.09 2296.54,1321.09 2298.71,1321.09 2300.87,1321.09 2303.03,1321.09 2305.19,1321.09 2307.35,1321.09 2309.52,1321.09 2311.68,1321.09 2313.84,1321.09 2316,1321.09 2318.16,1321.09 2320.33,1321.09 2322.49,1321.09 2324.65,1321.09 2326.81,1321.09 2328.97,1321.09 2331.14,1321.09 2333.3,1321.09 2335.46,1321.09 2337.62,1321.09 2339.78,1321.09 2341.95,1321.09 2344.11,1321.09 2346.27,1321.09 2348.43,1321.09 2350.59,1321.09 2352.76,1321.09 "/>
<path clip-path="url(#clip210)" d="M264.934 248.629 L506.055 248.629 L506.055 93.1086 L264.934 93.1086  Z" fill="#ffffff" fill-rule="evenodd" fill-opacity="1"/>
<polyline clip-path="url(#clip210)" style="stroke:#000000; stroke-linecap:round; stroke-linejoin:round; stroke-width:4; stroke-opacity:1; fill:none" points="264.934,248.629 506.055,248.629 506.055,93.1086 264.934,93.1086 264.934,248.629 "/>
<polyline clip-path="url(#clip210)" style="stroke:#009af9; stroke-linecap:round; stroke-linejoin:round; stroke-width:4; stroke-opacity:1; fill:none" points="288.932,144.949 432.92,144.949 "/>
<path clip-path="url(#clip210)" d="M481.571 136.303 L472.196 148.919 L482.057 162.229 L477.034 162.229 L469.487 152.043 L461.941 162.229 L456.918 162.229 L466.987 148.664 L457.775 136.303 L462.798 136.303 L469.673 145.539 L476.548 136.303 L481.571 136.303 Z" fill="#000000" fill-rule="nonzero" fill-opacity="1" /><polyline clip-path="url(#clip210)" style="stroke:#e26f46; stroke-linecap:round; stroke-linejoin:round; stroke-width:4; stroke-opacity:1; fill:none" points="288.932,196.789 432.92,196.789 "/>
<path clip-path="url(#clip210)" d="M473.423 178.05 L473.423 181.592 L469.349 181.592 Q467.057 181.592 466.154 182.518 Q465.274 183.444 465.274 185.851 L465.274 188.143 L472.288 188.143 L472.288 191.453 L465.274 191.453 L465.274 214.069 L460.992 214.069 L460.992 191.453 L456.918 191.453 L456.918 188.143 L460.992 188.143 L460.992 186.337 Q460.992 182.009 463.006 180.041 Q465.02 178.05 469.395 178.05 L473.423 178.05 Z" fill="#000000" fill-rule="nonzero" fill-opacity="1" /></svg>
