<?xml version="1.0" encoding="utf-8"?>
<svg xmlns="http://www.w3.org/2000/svg" xmlns:xlink="http://www.w3.org/1999/xlink" width="600" height="400" viewBox="0 0 2400 1600">
<defs>
  <clipPath id="clip330">
    <rect x="0" y="0" width="2400" height="1600"/>
  </clipPath>
</defs>
<path clip-path="url(#clip330)" d="M0 1600 L2400 1600 L2400 0 L0 0  Z" fill="#ffffff" fill-rule="evenodd" fill-opacity="1"/>
<defs>
  <clipPath id="clip331">
    <rect x="480" y="0" width="1681" height="1600"/>
  </clipPath>
</defs>
<path clip-path="url(#clip330)" d="M193.936 1423.18 L2352.76 1423.18 L2352.76 47.2441 L193.936 47.2441  Z" fill="#ffffff" fill-rule="evenodd" fill-opacity="1"/>
<defs>
  <clipPath id="clip332">
    <rect x="193" y="47" width="2160" height="1377"/>
  </clipPath>
</defs>
<polyline clip-path="url(#clip332)" style="stroke:#000000; stroke-linecap:round; stroke-linejoin:round; stroke-width:2; stroke-opacity:0.1; fill:none" points="193.936,1423.18 193.936,47.2441 "/>
<polyline clip-path="url(#clip332)" style="stroke:#000000; stroke-linecap:round; stroke-linejoin:round; stroke-width:2; stroke-opacity:0.1; fill:none" points="625.7,1423.18 625.7,47.2441 "/>
<polyline clip-path="url(#clip332)" style="stroke:#000000; stroke-linecap:round; stroke-linejoin:round; stroke-width:2; stroke-opacity:0.1; fill:none" points="1057.46,1423.18 1057.46,47.2441 "/>
<polyline clip-path="url(#clip332)" style="stroke:#000000; stroke-linecap:round; stroke-linejoin:round; stroke-width:2; stroke-opacity:0.1; fill:none" points="1489.23,1423.18 1489.23,47.2441 "/>
<polyline clip-path="url(#clip332)" style="stroke:#000000; stroke-linecap:round; stroke-linejoin:round; stroke-width:2; stroke-opacity:0.1; fill:none" points="1920.99,1423.18 1920.99,47.2441 "/>
<polyline clip-path="url(#clip332)" style="stroke:#000000; stroke-linecap:round; stroke-linejoin:round; stroke-width:2; stroke-opacity:0.1; fill:none" points="2352.76,1423.18 2352.76,47.2441 "/>
<polyline clip-path="url(#clip332)" style="stroke:#000000; stroke-linecap:round; stroke-linejoin:round; stroke-width:2; stroke-opacity:0.1; fill:none" points="193.936,1292.83 2352.76,1292.83 "/>
<polyline clip-path="url(#clip332)" style="stroke:#000000; stroke-linecap:round; stroke-linejoin:round; stroke-width:2; stroke-opacity:0.1; fill:none" points="193.936,1068.86 2352.76,1068.86 "/>
<polyline clip-path="url(#clip332)" style="stroke:#000000; stroke-linecap:round; stroke-linejoin:round; stroke-width:2; stroke-opacity:0.1; fill:none" points="193.936,844.883 2352.76,844.883 "/>
<polyline clip-path="url(#clip332)" style="stroke:#000000; stroke-linecap:round; stroke-linejoin:round; stroke-width:2; stroke-opacity:0.1; fill:none" points="193.936,620.907 2352.76,620.907 "/>
<polyline clip-path="url(#clip332)" style="stroke:#000000; stroke-linecap:round; stroke-linejoin:round; stroke-width:2; stroke-opacity:0.1; fill:none" points="193.936,396.931 2352.76,396.931 "/>
<polyline clip-path="url(#clip332)" style="stroke:#000000; stroke-linecap:round; stroke-linejoin:round; stroke-width:2; stroke-opacity:0.1; fill:none" points="193.936,172.955 2352.76,172.955 "/>
<polyline clip-path="url(#clip330)" style="stroke:#000000; stroke-linecap:round; stroke-linejoin:round; stroke-width:4; stroke-opacity:1; fill:none" points="193.936,1423.18 2352.76,1423.18 "/>
<polyline clip-path="url(#clip330)" style="stroke:#000000; stroke-linecap:round; stroke-linejoin:round; stroke-width:4; stroke-opacity:1; fill:none" points="193.936,1423.18 193.936,1404.28 "/>
<polyline clip-path="url(#clip330)" style="stroke:#000000; stroke-linecap:round; stroke-linejoin:round; stroke-width:4; stroke-opacity:1; fill:none" points="625.7,1423.18 625.7,1404.28 "/>
<polyline clip-path="url(#clip330)" style="stroke:#000000; stroke-linecap:round; stroke-linejoin:round; stroke-width:4; stroke-opacity:1; fill:none" points="1057.46,1423.18 1057.46,1404.28 "/>
<polyline clip-path="url(#clip330)" style="stroke:#000000; stroke-linecap:round; stroke-linejoin:round; stroke-width:4; stroke-opacity:1; fill:none" points="1489.23,1423.18 1489.23,1404.28 "/>
<polyline clip-path="url(#clip330)" style="stroke:#000000; stroke-linecap:round; stroke-linejoin:round; stroke-width:4; stroke-opacity:1; fill:none" points="1920.99,1423.18 1920.99,1404.28 "/>
<polyline clip-path="url(#clip330)" style="stroke:#000000; stroke-linecap:round; stroke-linejoin:round; stroke-width:4; stroke-opacity:1; fill:none" points="2352.76,1423.18 2352.76,1404.28 "/>
<path clip-path="url(#clip330)" d="M193.936 1454.1 Q190.325 1454.1 188.496 1457.66 Q186.691 1461.2 186.691 1468.33 Q186.691 1475.44 188.496 1479.01 Q190.325 1482.55 193.936 1482.55 Q197.57 1482.55 199.376 1479.01 Q201.204 1475.44 201.204 1468.33 Q201.204 1461.2 199.376 1457.66 Q197.57 1454.1 193.936 1454.1 M193.936 1450.39 Q199.746 1450.39 202.802 1455 Q205.88 1459.58 205.88 1468.33 Q205.88 1477.06 202.802 1481.67 Q199.746 1486.25 193.936 1486.25 Q188.126 1486.25 185.047 1481.67 Q181.992 1477.06 181.992 1468.33 Q181.992 1459.58 185.047 1455 Q188.126 1450.39 193.936 1450.39 Z" fill="#000000" fill-rule="nonzero" fill-opacity="1" /><path clip-path="url(#clip330)" d="M620.353 1481.64 L636.672 1481.64 L636.672 1485.58 L614.728 1485.58 L614.728 1481.64 Q617.39 1478.89 621.973 1474.26 Q626.58 1469.61 627.76 1468.27 Q630.006 1465.74 630.885 1464.01 Q631.788 1462.25 631.788 1460.56 Q631.788 1457.8 629.843 1456.07 Q627.922 1454.33 624.82 1454.33 Q622.621 1454.33 620.168 1455.09 Q617.737 1455.86 614.959 1457.41 L614.959 1452.69 Q617.783 1451.55 620.237 1450.97 Q622.691 1450.39 624.728 1450.39 Q630.098 1450.39 633.293 1453.08 Q636.487 1455.77 636.487 1460.26 Q636.487 1462.39 635.677 1464.31 Q634.89 1466.2 632.783 1468.8 Q632.205 1469.47 629.103 1472.69 Q626.001 1475.88 620.353 1481.64 Z" fill="#000000" fill-rule="nonzero" fill-opacity="1" /><path clip-path="url(#clip330)" d="M1060.47 1455.09 L1048.67 1473.54 L1060.47 1473.54 L1060.47 1455.09 M1059.25 1451.02 L1065.13 1451.02 L1065.13 1473.54 L1070.06 1473.54 L1070.06 1477.43 L1065.13 1477.43 L1065.13 1485.58 L1060.47 1485.58 L1060.47 1477.43 L1044.87 1477.43 L1044.87 1472.92 L1059.25 1451.02 Z" fill="#000000" fill-rule="nonzero" fill-opacity="1" /><path clip-path="url(#clip330)" d="M1489.63 1466.44 Q1486.48 1466.44 1484.63 1468.59 Q1482.8 1470.74 1482.8 1474.49 Q1482.8 1478.22 1484.63 1480.39 Q1486.48 1482.55 1489.63 1482.55 Q1492.78 1482.55 1494.61 1480.39 Q1496.46 1478.22 1496.46 1474.49 Q1496.46 1470.74 1494.61 1468.59 Q1492.78 1466.44 1489.63 1466.44 M1498.92 1451.78 L1498.92 1456.04 Q1497.16 1455.21 1495.35 1454.77 Q1493.57 1454.33 1491.81 1454.33 Q1487.18 1454.33 1484.73 1457.45 Q1482.3 1460.58 1481.95 1466.9 Q1483.31 1464.89 1485.37 1463.82 Q1487.43 1462.73 1489.91 1462.73 Q1495.12 1462.73 1498.13 1465.9 Q1501.16 1469.05 1501.16 1474.49 Q1501.16 1479.82 1498.01 1483.03 Q1494.86 1486.25 1489.63 1486.25 Q1483.64 1486.25 1480.47 1481.67 Q1477.3 1477.06 1477.3 1468.33 Q1477.3 1460.14 1481.18 1455.28 Q1485.07 1450.39 1491.62 1450.39 Q1493.38 1450.39 1495.17 1450.74 Q1496.97 1451.09 1498.92 1451.78 Z" fill="#000000" fill-rule="nonzero" fill-opacity="1" /><path clip-path="url(#clip330)" d="M1920.99 1469.17 Q1917.66 1469.17 1915.74 1470.95 Q1913.84 1472.73 1913.84 1475.86 Q1913.84 1478.98 1915.74 1480.77 Q1917.66 1482.55 1920.99 1482.55 Q1924.33 1482.55 1926.25 1480.77 Q1928.17 1478.96 1928.17 1475.86 Q1928.17 1472.73 1926.25 1470.95 Q1924.35 1469.17 1920.99 1469.17 M1916.32 1467.18 Q1913.31 1466.44 1911.62 1464.38 Q1909.95 1462.32 1909.95 1459.35 Q1909.95 1455.21 1912.89 1452.8 Q1915.85 1450.39 1920.99 1450.39 Q1926.15 1450.39 1929.09 1452.8 Q1932.03 1455.21 1932.03 1459.35 Q1932.03 1462.32 1930.34 1464.38 Q1928.68 1466.44 1925.69 1467.18 Q1929.07 1467.96 1930.95 1470.26 Q1932.84 1472.55 1932.84 1475.86 Q1932.84 1480.88 1929.77 1483.57 Q1926.71 1486.25 1920.99 1486.25 Q1915.27 1486.25 1912.2 1483.57 Q1909.14 1480.88 1909.14 1475.86 Q1909.14 1472.55 1911.04 1470.26 Q1912.94 1467.96 1916.32 1467.18 M1914.6 1459.79 Q1914.6 1462.48 1916.27 1463.98 Q1917.96 1465.49 1920.99 1465.49 Q1924 1465.49 1925.69 1463.98 Q1927.4 1462.48 1927.4 1459.79 Q1927.4 1457.11 1925.69 1455.6 Q1924 1454.1 1920.99 1454.1 Q1917.96 1454.1 1916.27 1455.6 Q1914.6 1457.11 1914.6 1459.79 Z" fill="#000000" fill-rule="nonzero" fill-opacity="1" /><path clip-path="url(#clip330)" d="M2327.44 1481.64 L2335.08 1481.64 L2335.08 1455.28 L2326.77 1456.95 L2326.77 1452.69 L2335.04 1451.02 L2339.71 1451.02 L2339.71 1481.64 L2347.35 1481.64 L2347.35 1485.58 L2327.44 1485.58 L2327.44 1481.64 Z" fill="#000000" fill-rule="nonzero" fill-opacity="1" /><path clip-path="url(#clip330)" d="M2366.8 1454.1 Q2363.18 1454.1 2361.36 1457.66 Q2359.55 1461.2 2359.55 1468.33 Q2359.55 1475.44 2361.36 1479.01 Q2363.18 1482.55 2366.8 1482.55 Q2370.43 1482.55 2372.23 1479.01 Q2374.06 1475.44 2374.06 1468.33 Q2374.06 1461.2 2372.23 1457.66 Q2370.43 1454.1 2366.8 1454.1 M2366.8 1450.39 Q2372.61 1450.39 2375.66 1455 Q2378.74 1459.58 2378.74 1468.33 Q2378.74 1477.06 2375.66 1481.67 Q2372.61 1486.25 2366.8 1486.25 Q2360.99 1486.25 2357.91 1481.67 Q2354.85 1477.06 2354.85 1468.33 Q2354.85 1459.58 2357.91 1455 Q2360.99 1450.39 2366.8 1450.39 Z" fill="#000000" fill-rule="nonzero" fill-opacity="1" /><path clip-path="url(#clip330)" d="M1272.41 1522.27 L1272.41 1532.4 L1284.47 1532.4 L1284.47 1536.95 L1272.41 1536.95 L1272.41 1556.3 Q1272.41 1560.66 1273.58 1561.9 Q1274.79 1563.14 1278.45 1563.14 L1284.47 1563.14 L1284.47 1568.04 L1278.45 1568.04 Q1271.67 1568.04 1269.1 1565.53 Q1266.52 1562.98 1266.52 1556.3 L1266.52 1536.95 L1262.22 1536.95 L1262.22 1532.4 L1266.52 1532.4 L1266.52 1522.27 L1272.41 1522.27 Z" fill="#000000" fill-rule="nonzero" fill-opacity="1" /><polyline clip-path="url(#clip330)" style="stroke:#000000; stroke-linecap:round; stroke-linejoin:round; stroke-width:4; stroke-opacity:1; fill:none" points="193.936,1423.18 193.936,47.2441 "/>
<polyline clip-path="url(#clip330)" style="stroke:#000000; stroke-linecap:round; stroke-linejoin:round; stroke-width:4; stroke-opacity:1; fill:none" points="193.936,1292.83 212.834,1292.83 "/>
<polyline clip-path="url(#clip330)" style="stroke:#000000; stroke-linecap:round; stroke-linejoin:round; stroke-width:4; stroke-opacity:1; fill:none" points="193.936,1068.86 212.834,1068.86 "/>
<polyline clip-path="url(#clip330)" style="stroke:#000000; stroke-linecap:round; stroke-linejoin:round; stroke-width:4; stroke-opacity:1; fill:none" points="193.936,844.883 212.834,844.883 "/>
<polyline clip-path="url(#clip330)" style="stroke:#000000; stroke-linecap:round; stroke-linejoin:round; stroke-width:4; stroke-opacity:1; fill:none" points="193.936,620.907 212.834,620.907 "/>
<polyline clip-path="url(#clip330)" style="stroke:#000000; stroke-linecap:round; stroke-linejoin:round; stroke-width:4; stroke-opacity:1; fill:none" points="193.936,396.931 212.834,396.931 "/>
<polyline clip-path="url(#clip330)" style="stroke:#000000; stroke-linecap:round; stroke-linejoin:round; stroke-width:4; stroke-opacity:1; fill:none" points="193.936,172.955 212.834,172.955 "/>
<path clip-path="url(#clip330)" d="M50.9921 1293.29 L80.6679 1293.29 L80.6679 1297.22 L50.9921 1297.22 L50.9921 1293.29 Z" fill="#000000" fill-rule="nonzero" fill-opacity="1" /><path clip-path="url(#clip330)" d="M91.5706 1306.18 L99.2095 1306.18 L99.2095 1279.81 L90.8993 1281.48 L90.8993 1277.22 L99.1632 1275.55 L103.839 1275.55 L103.839 1306.18 L111.478 1306.18 L111.478 1310.11 L91.5706 1310.11 L91.5706 1306.18 Z" fill="#000000" fill-rule="nonzero" fill-opacity="1" /><path clip-path="url(#clip330)" d="M120.922 1304.23 L125.807 1304.23 L125.807 1310.11 L120.922 1310.11 L120.922 1304.23 Z" fill="#000000" fill-rule="nonzero" fill-opacity="1" /><path clip-path="url(#clip330)" d="M145.992 1278.63 Q142.381 1278.63 140.552 1282.2 Q138.746 1285.74 138.746 1292.87 Q138.746 1299.98 140.552 1303.54 Q142.381 1307.08 145.992 1307.08 Q149.626 1307.08 151.431 1303.54 Q153.26 1299.98 153.26 1292.87 Q153.26 1285.74 151.431 1282.2 Q149.626 1278.63 145.992 1278.63 M145.992 1274.93 Q151.802 1274.93 154.857 1279.54 Q157.936 1284.12 157.936 1292.87 Q157.936 1301.6 154.857 1306.2 Q151.802 1310.79 145.992 1310.79 Q140.181 1310.79 137.103 1306.2 Q134.047 1301.6 134.047 1292.87 Q134.047 1284.12 137.103 1279.54 Q140.181 1274.93 145.992 1274.93 Z" fill="#000000" fill-rule="nonzero" fill-opacity="1" /><path clip-path="url(#clip330)" d="M51.9875 1069.31 L81.6633 1069.31 L81.6633 1073.25 L51.9875 1073.25 L51.9875 1069.31 Z" fill="#000000" fill-rule="nonzero" fill-opacity="1" /><path clip-path="url(#clip330)" d="M101.756 1054.66 Q98.1447 1054.66 96.316 1058.22 Q94.5104 1061.76 94.5104 1068.89 Q94.5104 1076 96.316 1079.56 Q98.1447 1083.11 101.756 1083.11 Q105.39 1083.11 107.196 1079.56 Q109.024 1076 109.024 1068.89 Q109.024 1061.76 107.196 1058.22 Q105.39 1054.66 101.756 1054.66 M101.756 1050.95 Q107.566 1050.95 110.621 1055.56 Q113.7 1060.14 113.7 1068.89 Q113.7 1077.62 110.621 1082.23 Q107.566 1086.81 101.756 1086.81 Q95.9456 1086.81 92.8669 1082.23 Q89.8114 1077.62 89.8114 1068.89 Q89.8114 1060.14 92.8669 1055.56 Q95.9456 1050.95 101.756 1050.95 Z" fill="#000000" fill-rule="nonzero" fill-opacity="1" /><path clip-path="url(#clip330)" d="M121.918 1080.26 L126.802 1080.26 L126.802 1086.14 L121.918 1086.14 L121.918 1080.26 Z" fill="#000000" fill-rule="nonzero" fill-opacity="1" /><path clip-path="url(#clip330)" d="M137.033 1051.58 L155.39 1051.58 L155.39 1055.51 L141.316 1055.51 L141.316 1063.99 Q142.334 1063.64 143.353 1063.48 Q144.371 1063.29 145.39 1063.29 Q151.177 1063.29 154.556 1066.46 Q157.936 1069.63 157.936 1075.05 Q157.936 1080.63 154.464 1083.73 Q150.992 1086.81 144.672 1086.81 Q142.496 1086.81 140.228 1086.44 Q137.982 1086.07 135.575 1085.33 L135.575 1080.63 Q137.658 1081.76 139.881 1082.32 Q142.103 1082.87 144.58 1082.87 Q148.584 1082.87 150.922 1080.77 Q153.26 1078.66 153.26 1075.05 Q153.26 1071.44 150.922 1069.33 Q148.584 1067.23 144.58 1067.23 Q142.705 1067.23 140.83 1067.64 Q138.978 1068.06 137.033 1068.94 L137.033 1051.58 Z" fill="#000000" fill-rule="nonzero" fill-opacity="1" /><path clip-path="url(#clip330)" d="M100.76 830.682 Q97.1493 830.682 95.3206 834.246 Q93.515 837.788 93.515 844.918 Q93.515 852.024 95.3206 855.589 Q97.1493 859.13 100.76 859.13 Q104.395 859.13 106.2 855.589 Q108.029 852.024 108.029 844.918 Q108.029 837.788 106.2 834.246 Q104.395 830.682 100.76 830.682 M100.76 826.978 Q106.571 826.978 109.626 831.584 Q112.705 836.168 112.705 844.918 Q112.705 853.644 109.626 858.251 Q106.571 862.834 100.76 862.834 Q94.9502 862.834 91.8715 858.251 Q88.816 853.644 88.816 844.918 Q88.816 836.168 91.8715 831.584 Q94.9502 826.978 100.76 826.978 Z" fill="#000000" fill-rule="nonzero" fill-opacity="1" /><path clip-path="url(#clip330)" d="M120.922 856.283 L125.807 856.283 L125.807 862.163 L120.922 862.163 L120.922 856.283 Z" fill="#000000" fill-rule="nonzero" fill-opacity="1" /><path clip-path="url(#clip330)" d="M145.992 830.682 Q142.381 830.682 140.552 834.246 Q138.746 837.788 138.746 844.918 Q138.746 852.024 140.552 855.589 Q142.381 859.13 145.992 859.13 Q149.626 859.13 151.431 855.589 Q153.26 852.024 153.26 844.918 Q153.26 837.788 151.431 834.246 Q149.626 830.682 145.992 830.682 M145.992 826.978 Q151.802 826.978 154.857 831.584 Q157.936 836.168 157.936 844.918 Q157.936 853.644 154.857 858.251 Q151.802 862.834 145.992 862.834 Q140.181 862.834 137.103 858.251 Q134.047 853.644 134.047 844.918 Q134.047 836.168 137.103 831.584 Q140.181 826.978 145.992 826.978 Z" fill="#000000" fill-rule="nonzero" fill-opacity="1" /><path clip-path="url(#clip330)" d="M101.756 606.706 Q98.1447 606.706 96.316 610.27 Q94.5104 613.812 94.5104 620.942 Q94.5104 628.048 96.316 631.613 Q98.1447 635.155 101.756 635.155 Q105.39 635.155 107.196 631.613 Q109.024 628.048 109.024 620.942 Q109.024 613.812 107.196 610.27 Q105.39 606.706 101.756 606.706 M101.756 603.002 Q107.566 603.002 110.621 607.608 Q113.7 612.192 113.7 620.942 Q113.7 629.668 110.621 634.275 Q107.566 638.858 101.756 638.858 Q95.9456 638.858 92.8669 634.275 Q89.8114 629.668 89.8114 620.942 Q89.8114 612.192 92.8669 607.608 Q95.9456 603.002 101.756 603.002 Z" fill="#000000" fill-rule="nonzero" fill-opacity="1" /><path clip-path="url(#clip330)" d="M121.918 632.307 L126.802 632.307 L126.802 638.187 L121.918 638.187 L121.918 632.307 Z" fill="#000000" fill-rule="nonzero" fill-opacity="1" /><path clip-path="url(#clip330)" d="M137.033 603.627 L155.39 603.627 L155.39 607.562 L141.316 607.562 L141.316 616.034 Q142.334 615.687 143.353 615.525 Q144.371 615.34 145.39 615.34 Q151.177 615.34 154.556 618.511 Q157.936 621.682 157.936 627.099 Q157.936 632.678 154.464 635.78 Q150.992 638.858 144.672 638.858 Q142.496 638.858 140.228 638.488 Q137.982 638.118 135.575 637.377 L135.575 632.678 Q137.658 633.812 139.881 634.368 Q142.103 634.923 144.58 634.923 Q148.584 634.923 150.922 632.817 Q153.26 630.71 153.26 627.099 Q153.26 623.488 150.922 621.381 Q148.584 619.275 144.58 619.275 Q142.705 619.275 140.83 619.692 Q138.978 620.108 137.033 620.988 L137.033 603.627 Z" fill="#000000" fill-rule="nonzero" fill-opacity="1" /><path clip-path="url(#clip330)" d="M91.5706 410.276 L99.2095 410.276 L99.2095 383.91 L90.8993 385.577 L90.8993 381.318 L99.1632 379.651 L103.839 379.651 L103.839 410.276 L111.478 410.276 L111.478 414.211 L91.5706 414.211 L91.5706 410.276 Z" fill="#000000" fill-rule="nonzero" fill-opacity="1" /><path clip-path="url(#clip330)" d="M120.922 408.331 L125.807 408.331 L125.807 414.211 L120.922 414.211 L120.922 408.331 Z" fill="#000000" fill-rule="nonzero" fill-opacity="1" /><path clip-path="url(#clip330)" d="M145.992 382.73 Q142.381 382.73 140.552 386.295 Q138.746 389.836 138.746 396.966 Q138.746 404.072 140.552 407.637 Q142.381 411.179 145.992 411.179 Q149.626 411.179 151.431 407.637 Q153.26 404.072 153.26 396.966 Q153.26 389.836 151.431 386.295 Q149.626 382.73 145.992 382.73 M145.992 379.026 Q151.802 379.026 154.857 383.633 Q157.936 388.216 157.936 396.966 Q157.936 405.693 154.857 410.299 Q151.802 414.882 145.992 414.882 Q140.181 414.882 137.103 410.299 Q134.047 405.693 134.047 396.966 Q134.047 388.216 137.103 383.633 Q140.181 379.026 145.992 379.026 Z" fill="#000000" fill-rule="nonzero" fill-opacity="1" /><path clip-path="url(#clip330)" d="M92.566 186.3 L100.205 186.3 L100.205 159.934 L91.8947 161.601 L91.8947 157.342 L100.159 155.675 L104.834 155.675 L104.834 186.3 L112.473 186.3 L112.473 190.235 L92.566 190.235 L92.566 186.3 Z" fill="#000000" fill-rule="nonzero" fill-opacity="1" /><path clip-path="url(#clip330)" d="M121.918 184.356 L126.802 184.356 L126.802 190.235 L121.918 190.235 L121.918 184.356 Z" fill="#000000" fill-rule="nonzero" fill-opacity="1" /><path clip-path="url(#clip330)" d="M137.033 155.675 L155.39 155.675 L155.39 159.61 L141.316 159.61 L141.316 168.083 Q142.334 167.735 143.353 167.573 Q144.371 167.388 145.39 167.388 Q151.177 167.388 154.556 170.559 Q157.936 173.731 157.936 179.147 Q157.936 184.726 154.464 187.828 Q150.992 190.907 144.672 190.907 Q142.496 190.907 140.228 190.536 Q137.982 190.166 135.575 189.425 L135.575 184.726 Q137.658 185.86 139.881 186.416 Q142.103 186.971 144.58 186.971 Q148.584 186.971 150.922 184.865 Q153.26 182.758 153.26 179.147 Q153.26 175.536 150.922 173.43 Q148.584 171.323 144.58 171.323 Q142.705 171.323 140.83 171.74 Q138.978 172.157 137.033 173.036 L137.033 155.675 Z" fill="#000000" fill-rule="nonzero" fill-opacity="1" /><polyline clip-path="url(#clip332)" style="stroke:#009af9; stroke-linecap:round; stroke-linejoin:round; stroke-width:4; stroke-opacity:1; fill:none" points="193.936,844.883 196.097,852.034 198.258,859.09 200.419,866.052 202.58,872.922 204.741,879.701 206.902,886.39 209.063,892.991 211.224,899.504 213.385,905.93 215.546,912.272 217.707,918.529 219.868,924.703 222.029,930.796 224.19,936.808 226.351,942.74 228.512,948.593 230.673,954.369 232.834,960.068 234.995,965.692 237.156,971.241 239.317,976.716 241.478,982.119 243.639,987.451 245.8,992.711 247.961,997.902 250.122,1003.02 252.282,1008.08 254.443,1013.07 256.604,1017.99 258.765,1022.84 260.926,1027.63 263.087,1032.36 265.248,1037.03 267.409,1041.63 269.57,1046.17 271.731,1050.65 273.892,1055.08 276.053,1059.44 278.214,1063.75 280.375,1068 282.536,1072.19 284.697,1076.33 286.858,1080.41 289.019,1084.44 291.18,1088.41 293.341,1092.33 295.502,1096.2 297.663,1100.02 299.824,1103.79 301.985,1107.51 304.146,1111.18 306.307,1114.8 308.468,1118.37 310.629,1121.89 312.79,1125.37 314.951,1128.81 317.112,1132.19 319.273,1135.53 321.434,1138.83 323.595,1142.08 325.756,1145.29 327.917,1148.46 330.078,1151.59 332.239,1154.67 334.4,1157.72 336.561,1160.72 338.722,1163.68 340.883,1166.61 343.044,1169.49 345.205,1172.34 347.366,1175.15 349.527,1177.92 351.688,1180.66 353.849,1183.36 356.01,1186.02 358.171,1188.65 360.332,1191.24 362.493,1193.8 364.653,1196.32 366.814,1198.82 368.975,1201.27 371.136,1203.7 373.297,1206.09 375.458,1208.45 377.619,1210.79 379.78,1213.08 381.941,1215.35 384.102,1217.59 386.263,1219.8 388.424,1221.98 390.585,1224.13 392.746,1226.26 394.907,1228.35 397.068,1230.42 399.229,1232.46 401.39,1234.47 403.551,1236.45 405.712,1238.41 407.873,1240.1 410.034,1239.83 412.195,1237.5 414.356,1233.36 416.517,1227.63 418.678,1220.52 420.839,1212.24 423,1202.97 425.161,1192.9 427.322,1182.19 429.483,1170.99 431.644,1159.45 433.805,1147.68 435.966,1135.81 438.127,1123.93 440.288,1112.15 442.449,1100.53 444.61,1089.15 446.771,1078.05 448.932,1067.28 451.093,1056.87 453.254,1046.82 455.415,1037.15 457.576,1027.85 459.737,1018.9 461.898,1010.25 464.059,1001.88 466.22,993.706 468.381,985.673 470.542,977.694 472.703,969.672 474.864,961.521 477.024,953.409 479.185,945.406 481.346,937.508 483.507,929.715 485.668,922.026 487.829,914.438 489.99,906.951 492.151,899.563 494.312,892.273 496.473,885.08 498.634,877.982 500.795,870.979 502.956,864.068 505.117,857.248 507.278,850.519 509.439,843.88 511.6,837.328 513.761,830.863 515.922,824.483 518.083,818.188 520.244,811.977 522.405,805.848 524.566,799.8 526.727,793.833 528.888,787.944 531.049,782.134 533.21,776.401 535.371,770.744 537.532,765.162 539.693,759.654 541.854,754.22 544.015,748.857 546.176,743.565 548.337,738.344 550.498,733.192 552.659,728.108 554.82,723.092 556.981,718.142 559.142,713.258 561.303,708.438 563.464,703.683 565.625,698.99 567.786,694.36 569.947,689.791 572.108,685.282 574.269,680.834 576.43,676.444 578.591,672.112 580.752,667.838 582.913,663.62 585.074,659.458 587.235,655.352 589.396,651.3 591.556,647.301 593.717,643.356 595.878,639.463 598.039,635.622 600.2,631.831 602.361,628.091 604.522,624.4 606.683,620.759 608.844,617.165 611.005,613.619 613.166,610.121 615.327,606.668 617.488,603.262 619.649,599.9 621.81,596.583 623.971,593.41 626.132,591.33 628.293,590.457 630.454,590.65 632.615,591.772 634.776,593.695 636.937,596.3 639.098,599.475 641.259,603.114 643.42,607.121 645.581,611.407 647.742,615.89 649.903,620.497 652.064,625.163 654.225,629.828 656.386,634.443 658.547,638.965 660.708,643.36 662.869,647.6 665.03,651.665 667.191,655.546 669.352,659.236 671.513,662.741 673.674,666.073 675.835,669.25 677.996,672.299 680.157,675.257 682.318,678.164 684.479,681.073 686.64,684.04 688.801,687.093 690.962,690.119 693.123,693.105 695.284,696.051 697.445,698.958 699.606,701.827 701.767,704.657 703.927,707.45 706.088,710.206 708.249,712.926 710.41,715.609 712.571,718.257 714.732,720.87 716.893,723.448 719.054,725.992 721.215,728.502 723.376,730.979 725.537,733.424 727.698,735.835 729.859,738.215 732.02,740.564 734.181,742.881 736.342,745.168 738.503,747.424 740.664,749.651 742.825,751.848 744.986,754.016 747.147,756.155 749.308,758.265 751.469,760.348 753.63,762.403 755.791,764.43 757.952,766.431 760.113,768.405 762.274,770.353 764.435,772.275 766.596,774.172 768.757,776.043 770.918,777.89 773.079,779.712 775.24,781.51 777.401,783.284 779.562,785.034 781.723,786.761 783.884,788.466 786.045,790.147 788.206,791.807 790.367,793.444 792.528,795.06 794.689,796.654 796.85,798.227 799.011,799.779 801.172,801.311 803.333,802.822 805.494,804.314 807.655,805.786 809.816,807.238 811.977,808.671 814.138,810.085 816.298,811.48 818.459,812.857 820.62,814.215 822.781,815.556 824.942,816.879 827.103,818.184 829.264,819.472 831.425,820.743 833.586,821.997 835.747,823.234 837.908,824.455 840.069,825.66 842.23,825.675 844.391,818.731 846.552,811.876 848.713,805.16 850.874,798.534 853.035,791.995 855.196,785.543 857.357,779.176 859.518,772.894 861.679,766.696 863.84,760.579 866.001,754.543 868.162,748.588 870.323,742.711 872.484,736.913 874.645,731.191 876.806,725.545 878.967,719.974 881.128,714.477 883.289,709.052 885.45,703.7 887.611,698.419 889.772,693.207 891.933,688.065 894.094,682.991 896.255,677.984 898.416,673.043 900.577,668.168 902.738,663.358 904.899,658.611 907.06,653.928 909.221,649.306 911.382,644.746 913.543,640.246 915.704,635.806 917.865,631.425 920.026,627.101 922.187,622.835 924.348,618.626 926.509,614.473 928.669,610.374 930.83,606.33 932.991,602.34 935.152,598.402 937.313,594.517 939.474,590.683 941.635,586.9 943.796,583.167 945.957,579.483 948.118,575.849 950.279,572.262 952.44,568.723 954.601,565.232 956.762,561.786 958.923,558.386 961.084,555.031 963.245,551.721 965.406,548.454 967.567,545.231 969.728,542.05 971.889,538.912 974.05,535.815 976.211,532.76 978.372,529.745 980.533,526.77 982.694,523.834 984.855,520.937 987.016,518.079 989.177,515.258 991.338,512.475 993.499,509.729 995.66,507.019 997.821,504.346 999.982,501.707 1002.14,499.104 1004.3,496.535 1006.46,494.002 1008.63,491.515 1010.79,489.073 1012.95,486.673 1015.11,484.311 1017.27,481.981 1019.43,479.682 1021.59,477.41 1023.75,475.162 1025.91,472.935 1028.07,470.727 1030.24,468.536 1032.4,466.36 1034.56,464.197 1036.72,462.047 1038.88,459.908 1041.04,457.779 1043.2,455.66 1045.36,453.55 1047.52,451.45 1049.68,449.36 1051.85,447.281 1054.01,445.213 1056.17,443.157 1058.33,441.115 1060.49,439.089 1062.65,437.08 1064.81,435.091 1066.97,433.123 1069.13,431.18 1071.29,429.265 1073.46,427.381 1075.62,425.531 1077.78,423.709 1079.94,421.91 1082.1,420.136 1084.26,418.385 1086.42,416.657 1088.58,414.953 1090.74,413.271 1092.9,411.611 1095.07,409.973 1097.23,408.357 1099.39,406.762 1101.55,405.188 1103.71,403.636 1105.87,402.104 1108.03,400.592 1110.19,399.1 1112.35,397.628 1114.51,396.176 1116.67,394.743 1118.84,393.328 1121,391.933 1123.16,390.556 1125.32,389.197 1127.48,387.857 1129.64,386.534 1131.8,385.228 1133.96,383.94 1136.12,382.669 1138.28,381.414 1140.45,380.177 1142.61,378.955 1144.77,377.75 1146.93,376.56 1149.09,375.387 1151.25,374.229 1153.41,373.086 1155.57,371.959 1157.73,370.846 1159.89,369.748 1162.06,368.665 1164.22,367.596 1166.38,366.542 1168.54,365.501 1170.7,364.474 1172.86,363.461 1175.02,362.462 1177.18,361.475 1179.34,360.502 1181.5,359.542 1183.67,358.594 1185.83,357.659 1187.99,356.737 1190.15,355.827 1192.31,354.929 1194.47,354.043 1196.63,353.168 1198.79,352.306 1200.95,351.454 1203.11,350.614 1205.28,349.786 1207.44,348.968 1209.6,348.161 1211.76,347.365 1213.92,346.579 1216.08,345.804 1218.24,345.039 1220.4,344.284 1222.56,343.539 1224.72,342.804 1226.88,342.079 1229.05,341.363 1231.21,340.657 1233.37,339.96 1235.53,339.272 1237.69,338.594 1239.85,337.924 1242.01,337.263 1244.17,336.611 1246.33,335.967 1248.49,335.332 1250.66,334.706 1252.82,334.088 1254.98,333.478 1257.14,332.876 1259.3,332.282 1261.46,331.696 1263.62,331.117 1265.78,330.547 1267.94,329.984 1270.1,329.428 1272.27,328.88 1274.43,328.727 1276.59,329.62 1278.75,331.47 1280.91,334.175 1283.07,337.643 1285.23,341.78 1287.39,346.502 1289.55,351.727 1291.71,357.378 1293.88,363.382 1296.04,369.67 1298.2,376.18 1300.36,382.853 1302.52,389.634 1304.68,396.473 1306.84,403.324 1309,410.148 1311.16,416.907 1313.32,423.57 1315.49,430.109 1317.65,436.502 1319.81,442.731 1321.97,448.782 1324.13,454.646 1326.29,460.318 1328.45,465.799 1330.61,471.092 1332.77,476.206 1334.93,481.157 1337.09,485.96 1339.26,490.64 1341.42,495.222 1343.58,499.739 1345.74,504.228 1347.9,508.728 1350.06,513.284 1352.22,517.833 1354.38,522.322 1356.54,526.751 1358.7,531.121 1360.87,535.434 1363.03,539.689 1365.19,543.888 1367.35,548.032 1369.51,552.12 1371.67,556.154 1373.83,560.135 1375.99,564.063 1378.15,567.939 1380.31,571.763 1382.48,575.537 1384.64,579.261 1386.8,582.936 1388.96,586.562 1391.12,590.14 1393.28,593.67 1395.44,597.154 1397.6,600.592 1399.76,603.985 1401.92,607.332 1404.09,610.635 1406.25,613.894 1408.41,617.11 1410.57,620.283 1412.73,623.415 1414.89,626.504 1417.05,629.553 1419.21,632.561 1421.37,635.529 1423.53,638.457 1425.7,641.347 1427.86,644.198 1430.02,647.012 1432.18,649.788 1434.34,652.527 1436.5,655.23 1438.66,657.897 1440.82,660.528 1442.98,663.124 1445.14,665.687 1447.3,668.215 1449.47,670.709 1451.63,673.17 1453.79,675.599 1455.95,677.996 1458.11,680.36 1460.27,682.694 1462.43,684.996 1464.59,687.268 1466.75,689.51 1468.91,691.722 1471.08,693.905 1473.24,696.059 1475.4,698.185 1477.56,700.282 1479.72,702.352 1481.88,704.394 1484.04,706.417 1486.2,708.688 1488.36,711.307 1490.52,714.234 1492.69,717.427 1494.85,720.849 1497.01,724.465 1499.17,728.241 1501.33,732.144 1503.49,736.147 1505.65,740.222 1507.81,744.343 1509.97,748.487 1512.13,752.635 1514.3,756.766 1516.46,760.864 1518.62,764.914 1520.78,768.905 1522.94,772.825 1525.1,776.666 1527.26,780.423 1529.42,784.091 1531.58,787.667 1533.74,791.154 1535.91,794.551 1538.07,797.865 1540.23,801.101 1542.39,804.268 1544.55,807.377 1546.71,810.44 1548.87,813.472 1551.03,816.491 1553.19,819.513 1555.35,822.507 1557.51,825.462 1559.68,828.377 1561.84,831.254 1564,834.092 1566.16,836.893 1568.32,839.657 1570.48,842.385 1572.64,845.076 1574.8,847.731 1576.96,850.351 1579.12,852.936 1581.29,855.488 1583.45,858.005 1585.61,860.489 1587.77,862.94 1589.93,865.358 1592.09,867.745 1594.25,870.099 1596.41,872.423 1598.57,874.716 1600.73,876.978 1602.9,879.21 1605.06,881.413 1607.22,883.587 1609.38,885.732 1611.54,887.848 1613.7,889.937 1615.86,891.997 1618.02,894.031 1620.18,896.037 1622.34,898.017 1624.51,899.971 1626.67,901.899 1628.83,903.801 1630.99,905.678 1633.15,907.53 1635.31,909.357 1637.47,911.16 1639.63,912.94 1641.79,914.695 1643.95,916.428 1646.12,918.137 1648.28,919.824 1650.44,921.488 1652.6,923.13 1654.76,924.75 1656.92,926.349 1659.08,927.927 1661.24,929.484 1663.4,931.02 1665.56,932.536 1667.72,934.031 1669.89,935.507 1672.05,936.963 1674.21,938.4 1676.37,939.818 1678.53,941.217 1680.69,942.598 1682.85,943.96 1685.01,945.304 1687.17,946.631 1689.33,947.94 1691.5,949.231 1693.66,950.506 1695.82,951.763 1697.98,953.004 1700.14,954.229 1702.3,955.437 1704.46,955.649 1706.62,953.548 1708.78,949.419 1710.94,943.548 1713.11,936.203 1715.27,927.632 1717.43,918.068 1719.59,907.725 1721.75,896.797 1723.91,885.464 1726.07,873.886 1728.23,862.204 1730.39,850.543 1732.55,839.009 1734.72,827.691 1736.88,816.66 1739.04,805.968 1741.2,795.65 1743.36,785.724 1745.52,776.188 1747.68,767.024 1749.84,758.194 1752,749.645 1754.16,741.303 1756.33,733.079 1758.49,724.864 1760.65,716.533 1762.81,708.176 1764.97,699.93 1767.13,691.793 1769.29,683.763 1771.45,675.841 1773.61,668.023 1775.77,660.309 1777.93,652.697 1780.1,645.186 1782.26,637.775 1784.42,630.462 1786.58,623.246 1788.74,616.126 1790.9,609.1 1793.06,602.167 1795.22,595.325 1797.38,588.575 1799.54,581.914 1801.71,575.341 1803.87,568.855 1806.03,562.455 1808.19,556.14 1810.35,549.909 1812.51,543.761 1814.67,537.694 1816.83,531.708 1818.99,525.801 1821.15,519.973 1823.32,514.222 1825.48,508.547 1827.64,502.947 1829.8,497.422 1831.96,491.97 1834.12,486.59 1836.28,481.282 1838.44,476.044 1840.6,470.876 1842.76,465.776 1844.93,460.744 1847.09,455.778 1849.25,450.879 1851.41,446.044 1853.57,441.273 1855.73,436.566 1857.89,431.921 1860.05,427.337 1862.21,422.814 1864.37,418.351 1866.54,413.947 1868.7,409.602 1870.86,405.314 1873.02,401.083 1875.18,396.908 1877.34,392.788 1879.5,388.723 1881.66,384.712 1883.82,380.754 1885.98,376.849 1888.15,372.995 1890.31,369.193 1892.47,365.441 1894.63,361.739 1896.79,358.085 1898.95,354.48 1901.11,350.923 1903.27,347.414 1905.43,343.95 1907.59,340.533 1909.75,337.161 1911.92,333.833 1914.08,330.55 1916.24,327.883 1918.4,326.644 1920.56,326.693 1922.72,327.887 1924.88,330.089 1927.04,333.169 1929.2,337.006 1931.36,341.485 1933.53,346.498 1935.69,351.944 1937.85,357.73 1940.01,363.769 1942.17,369.983 1944.33,376.299 1946.49,382.652 1948.65,388.985 1950.81,395.247 1952.97,401.396 1955.14,407.394 1957.3,413.212 1959.46,418.829 1961.62,424.231 1963.78,429.408 1965.94,434.362 1968.1,439.098 1970.26,443.631 1972.42,447.982 1974.58,452.178 1976.75,456.256 1978.91,460.258 1981.07,464.233 1983.23,468.239 1985.39,472.338 1987.55,476.466 1989.71,480.539 1991.87,484.558 1994.03,488.524 1996.19,492.437 1998.36,496.298 2000.52,500.108 2002.68,503.868 2004.84,507.578 2007,511.238 2009.16,514.85 2011.32,518.414 2013.48,521.931 2015.64,525.401 2017.8,528.826 2019.96,532.204 2022.13,535.538 2024.29,538.828 2026.45,542.075 2028.61,545.278 2030.77,548.44 2032.93,551.559 2035.09,554.637 2037.25,557.675 2039.41,560.672 2041.57,563.629 2043.74,566.548 2045.9,569.427 2048.06,572.269 2050.22,575.072 2052.38,577.839 2054.54,580.568 2056.7,583.262 2058.86,585.919 2061.02,588.542 2063.18,591.129 2065.35,593.682 2067.51,596.201 2069.67,598.687 2071.83,601.139 2073.99,603.559 2076.15,605.947 2078.31,608.303 2080.47,610.628 2082.63,612.922 2084.79,615.186 2086.96,617.419 2089.12,619.623 2091.28,621.797 2093.44,623.943 2095.6,626.06 2097.76,628.149 2099.92,630.21 2102.08,632.244 2104.24,634.251 2106.4,636.232 2108.57,638.186 2110.73,640.114 2112.89,642.017 2115.05,643.895 2117.21,645.748 2119.37,647.576 2121.53,649.38 2123.69,651.16 2125.85,652.917 2128.01,654.612 2130.17,655.933 2132.34,656.846 2134.5,657.391 2136.66,657.61 2138.82,657.538 2140.98,657.213 2143.14,656.666 2145.3,655.931 2147.46,655.036 2149.62,654.011 2151.78,652.88 2153.95,651.668 2156.11,650.398 2158.27,649.089 2160.43,647.76 2162.59,646.427 2164.75,645.105 2166.91,643.806 2169.07,642.542 2171.23,641.321 2173.39,640.15 2175.56,639.034 2177.72,637.976 2179.88,636.977 2182.04,636.036 2184.2,635.151 2186.36,634.318 2188.52,633.529 2190.68,632.777 2192.84,632.05 2195,631.338 2197.17,630.625 2199.33,629.895 2201.49,629.132 2203.65,628.355 2205.81,627.589 2207.97,626.832 2210.13,626.086 2212.29,625.349 2214.45,624.623 2216.61,623.906 2218.78,623.198 2220.94,622.5 2223.1,621.811 2225.26,621.131 2227.42,620.46 2229.58,619.799 2231.74,619.145 2233.9,618.501 2236.06,617.865 2238.22,617.238 2240.38,616.619 2242.55,616.008 2244.71,615.405 2246.87,614.81 2249.03,614.223 2251.19,613.644 2253.35,613.072 2255.51,612.508 2257.67,611.952 2259.83,611.403 2261.99,610.861 2264.16,610.326 2266.32,609.799 2268.48,609.278 2270.64,608.764 2272.8,608.258 2274.96,607.757 2277.12,607.264 2279.28,606.777 2281.44,606.296 2283.6,605.822 2285.77,605.354 2287.93,604.893 2290.09,604.437 2292.25,603.988 2294.41,603.544 2296.57,603.106 2298.73,602.675 2300.89,602.249 2303.05,601.828 2305.21,601.413 2307.38,601.004 2309.54,600.6 2311.7,600.202 2313.86,599.808 2316.02,599.42 2318.18,599.038 2320.34,598.66 2322.5,598.287 2324.66,597.919 2326.82,597.556 2328.99,597.198 2331.15,596.845 2333.31,596.496 2335.47,596.152 2337.63,595.812 2339.79,595.477 2341.95,595.147 2344.11,594.821 2346.27,594.499 2348.43,594.181 2350.59,593.868 2352.76,593.558 "/>
<polyline clip-path="url(#clip332)" style="stroke:#e26f46; stroke-linecap:round; stroke-linejoin:round; stroke-width:4; stroke-opacity:1; fill:none" points="193.936,1384.24 196.097,1384.24 198.258,1384.24 200.419,1384.24 202.58,1384.24 204.741,1384.24 206.902,1384.24 209.063,1384.24 211.224,1384.24 213.385,1384.24 215.546,1384.24 217.707,1384.24 219.868,1384.24 222.029,1384.24 224.19,1384.24 226.351,1384.24 228.512,1384.24 230.673,1384.24 232.834,1384.24 234.995,1384.24 237.156,1384.24 239.317,1384.24 241.478,1384.24 243.639,1384.24 245.8,1384.24 247.961,1384.24 250.122,1384.24 252.282,1384.24 254.443,1384.24 256.604,1384.24 258.765,1384.24 260.926,1384.24 263.087,1384.24 265.248,1384.24 267.409,1384.24 269.57,1384.24 271.731,1384.24 273.892,1384.24 276.053,1384.24 278.214,1384.24 280.375,1384.24 282.536,1384.24 284.697,1384.24 286.858,1384.24 289.019,1384.24 291.18,1384.24 293.341,1384.24 295.502,1384.24 297.663,1384.24 299.824,1384.24 301.985,1384.24 304.146,1384.24 306.307,1384.24 308.468,1384.24 310.629,1384.24 312.79,1384.24 314.951,1384.24 317.112,1384.24 319.273,1384.24 321.434,1384.24 323.595,1384.24 325.756,1384.24 327.917,1384.24 330.078,1384.24 332.239,1384.24 334.4,1384.24 336.561,1384.24 338.722,1384.24 340.883,1384.24 343.044,1384.24 345.205,1384.24 347.366,1384.24 349.527,1384.24 351.688,1384.24 353.849,1384.24 356.01,1384.24 358.171,1384.24 360.332,1384.24 362.493,1384.24 364.653,1384.24 366.814,1384.24 368.975,1384.24 371.136,1384.24 373.297,1384.24 375.458,1384.24 377.619,1384.24 379.78,1384.24 381.941,1384.24 384.102,1384.24 386.263,1384.24 388.424,1384.24 390.585,1384.24 392.746,1384.24 394.907,1384.24 397.068,1384.24 399.229,1384.24 401.39,1384.24 403.551,1384.24 405.712,1384.24 407.873,1384.24 410.034,349.72 412.195,349.72 414.356,349.72 416.517,349.72 418.678,349.72 420.839,349.72 423,349.72 425.161,349.72 427.322,349.72 429.483,349.72 431.644,349.72 433.805,349.72 435.966,349.72 438.127,349.72 440.288,349.72 442.449,349.72 444.61,349.72 446.771,349.72 448.932,349.72 451.093,349.72 453.254,349.72 455.415,349.72 457.576,349.72 459.737,349.72 461.898,349.72 464.059,349.72 466.22,349.72 468.381,349.72 470.542,349.72 472.703,349.72 474.864,349.72 477.024,349.72 479.185,349.72 481.346,349.72 483.507,349.72 485.668,349.72 487.829,349.72 489.99,349.72 492.151,349.72 494.312,349.72 496.473,349.72 498.634,349.72 500.795,349.72 502.956,349.72 505.117,349.72 507.278,349.72 509.439,349.72 511.6,349.72 513.761,349.72 515.922,349.72 518.083,349.72 520.244,349.72 522.405,349.72 524.566,349.72 526.727,349.72 528.888,349.72 531.049,349.72 533.21,349.72 535.371,349.72 537.532,349.72 539.693,349.72 541.854,349.72 544.015,349.72 546.176,349.72 548.337,349.72 550.498,349.72 552.659,349.72 554.82,349.72 556.981,349.72 559.142,349.72 561.303,349.72 563.464,349.72 565.625,349.72 567.786,349.72 569.947,349.72 572.108,349.72 574.269,349.72 576.43,349.72 578.591,349.72 580.752,349.72 582.913,349.72 585.074,349.72 587.235,349.72 589.396,349.72 591.556,349.72 593.717,349.72 595.878,349.72 598.039,349.72 600.2,349.72 602.361,349.72 604.522,349.72 606.683,349.72 608.844,349.72 611.005,349.72 613.166,349.72 615.327,349.72 617.488,349.72 619.649,349.72 621.81,349.72 623.971,349.72 626.132,915.329 628.293,915.329 630.454,915.329 632.615,915.329 634.776,915.329 636.937,915.329 639.098,915.329 641.259,915.329 643.42,915.329 645.581,915.329 647.742,915.329 649.903,915.329 652.064,915.329 654.225,915.329 656.386,915.329 658.547,915.329 660.708,915.329 662.869,915.329 665.03,915.329 667.191,915.329 669.352,915.329 671.513,915.329 673.674,915.329 675.835,915.329 677.996,915.329 680.157,915.329 682.318,915.329 684.479,915.329 686.64,915.329 688.801,915.329 690.962,915.329 693.123,915.329 695.284,915.329 697.445,915.329 699.606,915.329 701.767,915.329 703.927,915.329 706.088,915.329 708.249,915.329 710.41,915.329 712.571,915.329 714.732,915.329 716.893,915.329 719.054,915.329 721.215,915.329 723.376,915.329 725.537,915.329 727.698,915.329 729.859,915.329 732.02,915.329 734.181,915.329 736.342,915.329 738.503,915.329 740.664,915.329 742.825,915.329 744.986,915.329 747.147,915.329 749.308,915.329 751.469,915.329 753.63,915.329 755.791,915.329 757.952,915.329 760.113,915.329 762.274,915.329 764.435,915.329 766.596,915.329 768.757,915.329 770.918,915.329 773.079,915.329 775.24,915.329 777.401,915.329 779.562,915.329 781.723,915.329 783.884,915.329 786.045,915.329 788.206,915.329 790.367,915.329 792.528,915.329 794.689,915.329 796.85,915.329 799.011,915.329 801.172,915.329 803.333,915.329 805.494,915.329 807.655,915.329 809.816,915.329 811.977,915.329 814.138,915.329 816.298,915.329 818.459,915.329 820.62,915.329 822.781,915.329 824.942,915.329 827.103,915.329 829.264,915.329 831.425,915.329 833.586,915.329 835.747,915.329 837.908,915.329 840.069,915.329 842.23,305.342 844.391,305.342 846.552,305.342 848.713,305.342 850.874,305.342 853.035,305.342 855.196,305.342 857.357,305.342 859.518,305.342 861.679,305.342 863.84,305.342 866.001,305.342 868.162,305.342 870.323,305.342 872.484,305.342 874.645,305.342 876.806,305.342 878.967,305.342 881.128,305.342 883.289,305.342 885.45,305.342 887.611,305.342 889.772,305.342 891.933,305.342 894.094,305.342 896.255,305.342 898.416,305.342 900.577,305.342 902.738,305.342 904.899,305.342 907.06,305.342 909.221,305.342 911.382,305.342 913.543,305.342 915.704,305.342 917.865,305.342 920.026,305.342 922.187,305.342 924.348,305.342 926.509,305.342 928.669,305.342 930.83,305.342 932.991,305.342 935.152,305.342 937.313,305.342 939.474,305.342 941.635,305.342 943.796,305.342 945.957,305.342 948.118,305.342 950.279,305.342 952.44,305.342 954.601,305.342 956.762,305.342 958.923,305.342 961.084,305.342 963.245,305.342 965.406,305.342 967.567,305.342 969.728,305.342 971.889,305.342 974.05,305.342 976.211,305.342 978.372,305.342 980.533,305.342 982.694,305.342 984.855,305.342 987.016,305.342 989.177,305.342 991.338,305.342 993.499,305.342 995.66,305.342 997.821,305.342 999.982,305.342 1002.14,305.342 1004.3,305.342 1006.46,305.342 1008.63,305.342 1010.79,305.342 1012.95,305.342 1015.11,305.342 1017.27,305.342 1019.43,305.342 1021.59,305.342 1023.75,305.342 1025.91,305.342 1028.07,305.342 1030.24,305.342 1032.4,305.342 1034.56,305.342 1036.72,305.342 1038.88,305.342 1041.04,305.342 1043.2,305.342 1045.36,305.342 1047.52,305.342 1049.68,305.342 1051.85,305.342 1054.01,305.342 1056.17,305.342 1058.33,288.075 1060.49,288.075 1062.65,288.075 1064.81,288.075 1066.97,288.075 1069.13,288.075 1071.29,288.075 1073.46,288.075 1075.62,288.075 1077.78,288.075 1079.94,288.075 1082.1,288.075 1084.26,288.075 1086.42,288.075 1088.58,288.075 1090.74,288.075 1092.9,288.075 1095.07,288.075 1097.23,288.075 1099.39,288.075 1101.55,288.075 1103.71,288.075 1105.87,288.075 1108.03,288.075 1110.19,288.075 1112.35,288.075 1114.51,288.075 1116.67,288.075 1118.84,288.075 1121,288.075 1123.16,288.075 1125.32,288.075 1127.48,288.075 1129.64,288.075 1131.8,288.075 1133.96,288.075 1136.12,288.075 1138.28,288.075 1140.45,288.075 1142.61,288.075 1144.77,288.075 1146.93,288.075 1149.09,288.075 1151.25,288.075 1153.41,288.075 1155.57,288.075 1157.73,288.075 1159.89,288.075 1162.06,288.075 1164.22,288.075 1166.38,288.075 1168.54,288.075 1170.7,288.075 1172.86,288.075 1175.02,288.075 1177.18,288.075 1179.34,288.075 1181.5,288.075 1183.67,288.075 1185.83,288.075 1187.99,288.075 1190.15,288.075 1192.31,288.075 1194.47,288.075 1196.63,288.075 1198.79,288.075 1200.95,288.075 1203.11,288.075 1205.28,288.075 1207.44,288.075 1209.6,288.075 1211.76,288.075 1213.92,288.075 1216.08,288.075 1218.24,288.075 1220.4,288.075 1222.56,288.075 1224.72,288.075 1226.88,288.075 1229.05,288.075 1231.21,288.075 1233.37,288.075 1235.53,288.075 1237.69,288.075 1239.85,288.075 1242.01,288.075 1244.17,288.075 1246.33,288.075 1248.49,288.075 1250.66,288.075 1252.82,288.075 1254.98,288.075 1257.14,288.075 1259.3,288.075 1261.46,288.075 1263.62,288.075 1265.78,288.075 1267.94,288.075 1270.1,288.075 1272.27,288.075 1274.43,856.405 1276.59,856.405 1278.75,856.405 1280.91,856.405 1283.07,856.405 1285.23,856.405 1287.39,856.405 1289.55,856.405 1291.71,856.405 1293.88,856.405 1296.04,856.405 1298.2,856.405 1300.36,856.405 1302.52,856.405 1304.68,856.405 1306.84,856.405 1309,856.405 1311.16,856.405 1313.32,856.405 1315.49,856.405 1317.65,856.405 1319.81,856.405 1321.97,856.405 1324.13,856.405 1326.29,856.405 1328.45,856.405 1330.61,856.405 1332.77,856.405 1334.93,856.405 1337.09,856.405 1339.26,856.405 1341.42,856.405 1343.58,856.405 1345.74,856.405 1347.9,856.405 1350.06,856.405 1352.22,856.405 1354.38,856.405 1356.54,856.405 1358.7,856.405 1360.87,856.405 1363.03,856.405 1365.19,856.405 1367.35,856.405 1369.51,856.405 1371.67,856.405 1373.83,856.405 1375.99,856.405 1378.15,856.405 1380.31,856.405 1382.48,856.405 1384.64,856.405 1386.8,856.405 1388.96,856.405 1391.12,856.405 1393.28,856.405 1395.44,856.405 1397.6,856.405 1399.76,856.405 1401.92,856.405 1404.09,856.405 1406.25,856.405 1408.41,856.405 1410.57,856.405 1412.73,856.405 1414.89,856.405 1417.05,856.405 1419.21,856.405 1421.37,856.405 1423.53,856.405 1425.7,856.405 1427.86,856.405 1430.02,856.405 1432.18,856.405 1434.34,856.405 1436.5,856.405 1438.66,856.405 1440.82,856.405 1442.98,856.405 1445.14,856.405 1447.3,856.405 1449.47,856.405 1451.63,856.405 1453.79,856.405 1455.95,856.405 1458.11,856.405 1460.27,856.405 1462.43,856.405 1464.59,856.405 1466.75,856.405 1468.91,856.405 1471.08,856.405 1473.24,856.405 1475.4,856.405 1477.56,856.405 1479.72,856.405 1481.88,856.405 1484.04,856.405 1486.2,856.405 1488.36,856.405 1490.52,1045.36 1492.69,1045.36 1494.85,1045.36 1497.01,1045.36 1499.17,1045.36 1501.33,1045.36 1503.49,1045.36 1505.65,1045.36 1507.81,1045.36 1509.97,1045.36 1512.13,1045.36 1514.3,1045.36 1516.46,1045.36 1518.62,1045.36 1520.78,1045.36 1522.94,1045.36 1525.1,1045.36 1527.26,1045.36 1529.42,1045.36 1531.58,1045.36 1533.74,1045.36 1535.91,1045.36 1538.07,1045.36 1540.23,1045.36 1542.39,1045.36 1544.55,1045.36 1546.71,1045.36 1548.87,1045.36 1551.03,1045.36 1553.19,1045.36 1555.35,1045.36 1557.51,1045.36 1559.68,1045.36 1561.84,1045.36 1564,1045.36 1566.16,1045.36 1568.32,1045.36 1570.48,1045.36 1572.64,1045.36 1574.8,1045.36 1576.96,1045.36 1579.12,1045.36 1581.29,1045.36 1583.45,1045.36 1585.61,1045.36 1587.77,1045.36 1589.93,1045.36 1592.09,1045.36 1594.25,1045.36 1596.41,1045.36 1598.57,1045.36 1600.73,1045.36 1602.9,1045.36 1605.06,1045.36 1607.22,1045.36 1609.38,1045.36 1611.54,1045.36 1613.7,1045.36 1615.86,1045.36 1618.02,1045.36 1620.18,1045.36 1622.34,1045.36 1624.51,1045.36 1626.67,1045.36 1628.83,1045.36 1630.99,1045.36 1633.15,1045.36 1635.31,1045.36 1637.47,1045.36 1639.63,1045.36 1641.79,1045.36 1643.95,1045.36 1646.12,1045.36 1648.28,1045.36 1650.44,1045.36 1652.6,1045.36 1654.76,1045.36 1656.92,1045.36 1659.08,1045.36 1661.24,1045.36 1663.4,1045.36 1665.56,1045.36 1667.72,1045.36 1669.89,1045.36 1672.05,1045.36 1674.21,1045.36 1676.37,1045.36 1678.53,1045.36 1680.69,1045.36 1682.85,1045.36 1685.01,1045.36 1687.17,1045.36 1689.33,1045.36 1691.5,1045.36 1693.66,1045.36 1695.82,1045.36 1697.98,1045.36 1700.14,1045.36 1702.3,1045.36 1704.46,1045.36 1706.62,86.1857 1708.78,86.1857 1710.94,86.1857 1713.11,86.1857 1715.27,86.1857 1717.43,86.1857 1719.59,86.1857 1721.75,86.1857 1723.91,86.1857 1726.07,86.1857 1728.23,86.1857 1730.39,86.1857 1732.55,86.1857 1734.72,86.1857 1736.88,86.1857 1739.04,86.1857 1741.2,86.1857 1743.36,86.1857 1745.52,86.1857 1747.68,86.1857 1749.84,86.1857 1752,86.1857 1754.16,86.1857 1756.33,86.1857 1758.49,86.1857 1760.65,86.1857 1762.81,86.1857 1764.97,86.1857 1767.13,86.1857 1769.29,86.1857 1771.45,86.1857 1773.61,86.1857 1775.77,86.1857 1777.93,86.1857 1780.1,86.1857 1782.26,86.1857 1784.42,86.1857 1786.58,86.1857 1788.74,86.1857 1790.9,86.1857 1793.06,86.1857 1795.22,86.1857 1797.38,86.1857 1799.54,86.1857 1801.71,86.1857 1803.87,86.1857 1806.03,86.1857 1808.19,86.1857 1810.35,86.1857 1812.51,86.1857 1814.67,86.1857 1816.83,86.1857 1818.99,86.1857 1821.15,86.1857 1823.32,86.1857 1825.48,86.1857 1827.64,86.1857 1829.8,86.1857 1831.96,86.1857 1834.12,86.1857 1836.28,86.1857 1838.44,86.1857 1840.6,86.1857 1842.76,86.1857 1844.93,86.1857 1847.09,86.1857 1849.25,86.1857 1851.41,86.1857 1853.57,86.1857 1855.73,86.1857 1857.89,86.1857 1860.05,86.1857 1862.21,86.1857 1864.37,86.1857 1866.54,86.1857 1868.7,86.1857 1870.86,86.1857 1873.02,86.1857 1875.18,86.1857 1877.34,86.1857 1879.5,86.1857 1881.66,86.1857 1883.82,86.1857 1885.98,86.1857 1888.15,86.1857 1890.31,86.1857 1892.47,86.1857 1894.63,86.1857 1896.79,86.1857 1898.95,86.1857 1901.11,86.1857 1903.27,86.1857 1905.43,86.1857 1907.59,86.1857 1909.75,86.1857 1911.92,86.1857 1914.08,86.1857 1916.24,86.1857 1918.4,86.1857 1920.56,86.1857 1922.72,783.679 1924.88,783.679 1927.04,783.679 1929.2,783.679 1931.36,783.679 1933.53,783.679 1935.69,783.679 1937.85,783.679 1940.01,783.679 1942.17,783.679 1944.33,783.679 1946.49,783.679 1948.65,783.679 1950.81,783.679 1952.97,783.679 1955.14,783.679 1957.3,783.679 1959.46,783.679 1961.62,783.679 1963.78,783.679 1965.94,783.679 1968.1,783.679 1970.26,783.679 1972.42,783.679 1974.58,783.679 1976.75,783.679 1978.91,783.679 1981.07,783.679 1983.23,783.679 1985.39,783.679 1987.55,783.679 1989.71,783.679 1991.87,783.679 1994.03,783.679 1996.19,783.679 1998.36,783.679 2000.52,783.679 2002.68,783.679 2004.84,783.679 2007,783.679 2009.16,783.679 2011.32,783.679 2013.48,783.679 2015.64,783.679 2017.8,783.679 2019.96,783.679 2022.13,783.679 2024.29,783.679 2026.45,783.679 2028.61,783.679 2030.77,783.679 2032.93,783.679 2035.09,783.679 2037.25,783.679 2039.41,783.679 2041.57,783.679 2043.74,783.679 2045.9,783.679 2048.06,783.679 2050.22,783.679 2052.38,783.679 2054.54,783.679 2056.7,783.679 2058.86,783.679 2061.02,783.679 2063.18,783.679 2065.35,783.679 2067.51,783.679 2069.67,783.679 2071.83,783.679 2073.99,783.679 2076.15,783.679 2078.31,783.679 2080.47,783.679 2082.63,783.679 2084.79,783.679 2086.96,783.679 2089.12,783.679 2091.28,783.679 2093.44,783.679 2095.6,783.679 2097.76,783.679 2099.92,783.679 2102.08,783.679 2104.24,783.679 2106.4,783.679 2108.57,783.679 2110.73,783.679 2112.89,783.679 2115.05,783.679 2117.21,783.679 2119.37,783.679 2121.53,783.679 2123.69,783.679 2125.85,783.679 2128.01,783.679 2130.17,783.679 2132.34,783.679 2134.5,783.679 2136.66,783.679 2138.82,570.538 2140.98,570.538 2143.14,570.538 2145.3,570.538 2147.46,570.538 2149.62,570.538 2151.78,570.538 2153.95,570.538 2156.11,570.538 2158.27,570.538 2160.43,570.538 2162.59,570.538 2164.75,570.538 2166.91,570.538 2169.07,570.538 2171.23,570.538 2173.39,570.538 2175.56,570.538 2177.72,570.538 2179.88,570.538 2182.04,570.538 2184.2,570.538 2186.36,570.538 2188.52,570.538 2190.68,570.538 2192.84,570.538 2195,570.538 2197.17,570.538 2199.33,570.538 2201.49,570.538 2203.65,570.538 2205.81,570.538 2207.97,570.538 2210.13,570.538 2212.29,570.538 2214.45,570.538 2216.61,570.538 2218.78,570.538 2220.94,570.538 2223.1,570.538 2225.26,570.538 2227.42,570.538 2229.58,570.538 2231.74,570.538 2233.9,570.538 2236.06,570.538 2238.22,570.538 2240.38,570.538 2242.55,570.538 2244.71,570.538 2246.87,570.538 2249.03,570.538 2251.19,570.538 2253.35,570.538 2255.51,570.538 2257.67,570.538 2259.83,570.538 2261.99,570.538 2264.16,570.538 2266.32,570.538 2268.48,570.538 2270.64,570.538 2272.8,570.538 2274.96,570.538 2277.12,570.538 2279.28,570.538 2281.44,570.538 2283.6,570.538 2285.77,570.538 2287.93,570.538 2290.09,570.538 2292.25,570.538 2294.41,570.538 2296.57,570.538 2298.73,570.538 2300.89,570.538 2303.05,570.538 2305.21,570.538 2307.38,570.538 2309.54,570.538 2311.7,570.538 2313.86,570.538 2316.02,570.538 2318.18,570.538 2320.34,570.538 2322.5,570.538 2324.66,570.538 2326.82,570.538 2328.99,570.538 2331.15,570.538 2333.31,570.538 2335.47,570.538 2337.63,570.538 2339.79,570.538 2341.95,570.538 2344.11,570.538 2346.27,570.538 2348.43,570.538 2350.59,570.538 2352.76,570.538 "/>
<path clip-path="url(#clip330)" d="M2039.77 1377.32 L2280.8 1377.32 L2280.8 1221.8 L2039.77 1221.8  Z" fill="#ffffff" fill-rule="evenodd" fill-opacity="1"/>
<polyline clip-path="url(#clip330)" style="stroke:#000000; stroke-linecap:round; stroke-linejoin:round; stroke-width:4; stroke-opacity:1; fill:none" points="2039.77,1377.32 2280.8,1377.32 2280.8,1221.8 2039.77,1221.8 2039.77,1377.32 "/>
<polyline clip-path="url(#clip330)" style="stroke:#009af9; stroke-linecap:round; stroke-linejoin:round; stroke-width:4; stroke-opacity:1; fill:none" points="2063.76,1273.64 2207.68,1273.64 "/>
<path clip-path="url(#clip330)" d="M2256.32 1264.99 L2246.95 1277.61 L2256.81 1290.92 L2251.79 1290.92 L2244.24 1280.73 L2236.69 1290.92 L2231.67 1290.92 L2241.74 1277.35 L2232.53 1264.99 L2237.55 1264.99 L2244.42 1274.23 L2251.3 1264.99 L2256.32 1264.99 Z" fill="#000000" fill-rule="nonzero" fill-opacity="1" /><polyline clip-path="url(#clip330)" style="stroke:#e26f46; stroke-linecap:round; stroke-linejoin:round; stroke-width:4; stroke-opacity:1; fill:none" points="2063.76,1325.48 2207.68,1325.48 "/>
<path clip-path="url(#clip330)" d="M2248.17 1306.74 L2248.17 1310.28 L2244.1 1310.28 Q2241.81 1310.28 2240.91 1311.2 Q2240.03 1312.13 2240.03 1314.54 L2240.03 1316.83 L2247.04 1316.83 L2247.04 1320.14 L2240.03 1320.14 L2240.03 1342.76 L2235.74 1342.76 L2235.74 1320.14 L2231.67 1320.14 L2231.67 1316.83 L2235.74 1316.83 L2235.74 1315.02 Q2235.74 1310.7 2237.76 1308.73 Q2239.77 1306.74 2244.15 1306.74 L2248.17 1306.74 Z" fill="#000000" fill-rule="nonzero" fill-opacity="1" /></svg>
