<?xml version="1.0" encoding="utf-8"?>
<svg xmlns="http://www.w3.org/2000/svg" xmlns:xlink="http://www.w3.org/1999/xlink" width="600" height="400" viewBox="0 0 2400 1600">
<defs>
  <clipPath id="clip390">
    <rect x="0" y="0" width="2400" height="1600"/>
  </clipPath>
</defs>
<path clip-path="url(#clip390)" d="M0 1600 L2400 1600 L2400 0 L0 0  Z" fill="#ffffff" fill-rule="evenodd" fill-opacity="1"/>
<defs>
  <clipPath id="clip391">
    <rect x="147" y="47" width="2206" height="1377"/>
  </clipPath>
</defs>
<path clip-path="url(#clip390)" d="M147.478 1423.18 L2352.76 1423.18 L2352.76 47.2441 L147.478 47.2441  Z" fill="#ffffff" fill-rule="evenodd" fill-opacity="1"/>
<polyline clip-path="url(#clip391)" style="stroke:#000000; stroke-linecap:round; stroke-linejoin:round; stroke-width:2; stroke-opacity:0.1; fill:none" points="147.478,1423.18 147.478,47.2441 "/>
<polyline clip-path="url(#clip391)" style="stroke:#000000; stroke-linecap:round; stroke-linejoin:round; stroke-width:2; stroke-opacity:0.1; fill:none" points="588.534,1423.18 588.534,47.2441 "/>
<polyline clip-path="url(#clip391)" style="stroke:#000000; stroke-linecap:round; stroke-linejoin:round; stroke-width:2; stroke-opacity:0.1; fill:none" points="1029.59,1423.18 1029.59,47.2441 "/>
<polyline clip-path="url(#clip391)" style="stroke:#000000; stroke-linecap:round; stroke-linejoin:round; stroke-width:2; stroke-opacity:0.1; fill:none" points="1470.64,1423.18 1470.64,47.2441 "/>
<polyline clip-path="url(#clip391)" style="stroke:#000000; stroke-linecap:round; stroke-linejoin:round; stroke-width:2; stroke-opacity:0.1; fill:none" points="1911.7,1423.18 1911.7,47.2441 "/>
<polyline clip-path="url(#clip391)" style="stroke:#000000; stroke-linecap:round; stroke-linejoin:round; stroke-width:2; stroke-opacity:0.1; fill:none" points="2352.76,1423.18 2352.76,47.2441 "/>
<polyline clip-path="url(#clip391)" style="stroke:#000000; stroke-linecap:round; stroke-linejoin:round; stroke-width:2; stroke-opacity:0.1; fill:none" points="147.478,1380.37 2352.76,1380.37 "/>
<polyline clip-path="url(#clip391)" style="stroke:#000000; stroke-linecap:round; stroke-linejoin:round; stroke-width:2; stroke-opacity:0.1; fill:none" points="147.478,963.008 2352.76,963.008 "/>
<polyline clip-path="url(#clip391)" style="stroke:#000000; stroke-linecap:round; stroke-linejoin:round; stroke-width:2; stroke-opacity:0.1; fill:none" points="147.478,545.642 2352.76,545.642 "/>
<polyline clip-path="url(#clip391)" style="stroke:#000000; stroke-linecap:round; stroke-linejoin:round; stroke-width:2; stroke-opacity:0.1; fill:none" points="147.478,128.277 2352.76,128.277 "/>
<polyline clip-path="url(#clip390)" style="stroke:#000000; stroke-linecap:round; stroke-linejoin:round; stroke-width:4; stroke-opacity:1; fill:none" points="147.478,1423.18 2352.76,1423.18 "/>
<polyline clip-path="url(#clip390)" style="stroke:#000000; stroke-linecap:round; stroke-linejoin:round; stroke-width:4; stroke-opacity:1; fill:none" points="147.478,1423.18 147.478,1404.28 "/>
<polyline clip-path="url(#clip390)" style="stroke:#000000; stroke-linecap:round; stroke-linejoin:round; stroke-width:4; stroke-opacity:1; fill:none" points="588.534,1423.18 588.534,1404.28 "/>
<polyline clip-path="url(#clip390)" style="stroke:#000000; stroke-linecap:round; stroke-linejoin:round; stroke-width:4; stroke-opacity:1; fill:none" points="1029.59,1423.18 1029.59,1404.28 "/>
<polyline clip-path="url(#clip390)" style="stroke:#000000; stroke-linecap:round; stroke-linejoin:round; stroke-width:4; stroke-opacity:1; fill:none" points="1470.64,1423.18 1470.64,1404.28 "/>
<polyline clip-path="url(#clip390)" style="stroke:#000000; stroke-linecap:round; stroke-linejoin:round; stroke-width:4; stroke-opacity:1; fill:none" points="1911.7,1423.18 1911.7,1404.28 "/>
<polyline clip-path="url(#clip390)" style="stroke:#000000; stroke-linecap:round; stroke-linejoin:round; stroke-width:4; stroke-opacity:1; fill:none" points="2352.76,1423.18 2352.76,1404.28 "/>
<path clip-path="url(#clip390)" d="M147.478 1454.1 Q143.867 1454.1 142.038 1457.66 Q140.233 1461.2 140.233 1468.33 Q140.233 1475.44 142.038 1479.01 Q143.867 1482.55 147.478 1482.55 Q151.112 1482.55 152.918 1479.01 Q154.746 1475.44 154.746 1468.33 Q154.746 1461.2 152.918 1457.66 Q151.112 1454.1 147.478 1454.1 M147.478 1450.39 Q153.288 1450.39 156.344 1455 Q159.422 1459.58 159.422 1468.33 Q159.422 1477.06 156.344 1481.67 Q153.288 1486.25 147.478 1486.25 Q141.668 1486.25 138.589 1481.67 Q135.534 1477.06 135.534 1468.33 Q135.534 1459.58 138.589 1455 Q141.668 1450.39 147.478 1450.39 Z" fill="#000000" fill-rule="nonzero" fill-opacity="1" /><path clip-path="url(#clip390)" d="M583.186 1481.64 L599.506 1481.64 L599.506 1485.58 L577.561 1485.58 L577.561 1481.64 Q580.223 1478.89 584.807 1474.26 Q589.413 1469.61 590.594 1468.27 Q592.839 1465.74 593.719 1464.01 Q594.621 1462.25 594.621 1460.56 Q594.621 1457.8 592.677 1456.07 Q590.756 1454.33 587.654 1454.33 Q585.455 1454.33 583.001 1455.09 Q580.571 1455.86 577.793 1457.41 L577.793 1452.69 Q580.617 1451.55 583.071 1450.97 Q585.524 1450.39 587.561 1450.39 Q592.932 1450.39 596.126 1453.08 Q599.32 1455.77 599.32 1460.26 Q599.32 1462.39 598.51 1464.31 Q597.723 1466.2 595.617 1468.8 Q595.038 1469.47 591.936 1472.69 Q588.834 1475.88 583.186 1481.64 Z" fill="#000000" fill-rule="nonzero" fill-opacity="1" /><path clip-path="url(#clip390)" d="M1032.6 1455.09 L1020.79 1473.54 L1032.6 1473.54 L1032.6 1455.09 M1031.37 1451.02 L1037.25 1451.02 L1037.25 1473.54 L1042.18 1473.54 L1042.18 1477.43 L1037.25 1477.43 L1037.25 1485.58 L1032.6 1485.58 L1032.6 1477.43 L1017 1477.43 L1017 1472.92 L1031.37 1451.02 Z" fill="#000000" fill-rule="nonzero" fill-opacity="1" /><path clip-path="url(#clip390)" d="M1471.05 1466.44 Q1467.9 1466.44 1466.05 1468.59 Q1464.22 1470.74 1464.22 1474.49 Q1464.22 1478.22 1466.05 1480.39 Q1467.9 1482.55 1471.05 1482.55 Q1474.2 1482.55 1476.03 1480.39 Q1477.88 1478.22 1477.88 1474.49 Q1477.88 1470.74 1476.03 1468.59 Q1474.2 1466.44 1471.05 1466.44 M1480.33 1451.78 L1480.33 1456.04 Q1478.57 1455.21 1476.77 1454.77 Q1474.98 1454.33 1473.23 1454.33 Q1468.6 1454.33 1466.14 1457.45 Q1463.71 1460.58 1463.36 1466.9 Q1464.73 1464.89 1466.79 1463.82 Q1468.85 1462.73 1471.33 1462.73 Q1476.54 1462.73 1479.55 1465.9 Q1482.58 1469.05 1482.58 1474.49 Q1482.58 1479.82 1479.43 1483.03 Q1476.28 1486.25 1471.05 1486.25 Q1465.05 1486.25 1461.88 1481.67 Q1458.71 1477.06 1458.71 1468.33 Q1458.71 1460.14 1462.6 1455.28 Q1466.49 1450.39 1473.04 1450.39 Q1474.8 1450.39 1476.58 1450.74 Q1478.39 1451.09 1480.33 1451.78 Z" fill="#000000" fill-rule="nonzero" fill-opacity="1" /><path clip-path="url(#clip390)" d="M1911.7 1469.17 Q1908.37 1469.17 1906.45 1470.95 Q1904.55 1472.73 1904.55 1475.86 Q1904.55 1478.98 1906.45 1480.77 Q1908.37 1482.55 1911.7 1482.55 Q1915.03 1482.55 1916.95 1480.77 Q1918.88 1478.96 1918.88 1475.86 Q1918.88 1472.73 1916.95 1470.95 Q1915.06 1469.17 1911.7 1469.17 M1907.02 1467.18 Q1904.02 1466.44 1902.33 1464.38 Q1900.66 1462.32 1900.66 1459.35 Q1900.66 1455.21 1903.6 1452.8 Q1906.56 1450.39 1911.7 1450.39 Q1916.86 1450.39 1919.8 1452.8 Q1922.74 1455.21 1922.74 1459.35 Q1922.74 1462.32 1921.05 1464.38 Q1919.39 1466.44 1916.4 1467.18 Q1919.78 1467.96 1921.65 1470.26 Q1923.55 1472.55 1923.55 1475.86 Q1923.55 1480.88 1920.47 1483.57 Q1917.42 1486.25 1911.7 1486.25 Q1905.98 1486.25 1902.9 1483.57 Q1899.85 1480.88 1899.85 1475.86 Q1899.85 1472.55 1901.75 1470.26 Q1903.64 1467.96 1907.02 1467.18 M1905.31 1459.79 Q1905.31 1462.48 1906.98 1463.98 Q1908.67 1465.49 1911.7 1465.49 Q1914.71 1465.49 1916.4 1463.98 Q1918.11 1462.48 1918.11 1459.79 Q1918.11 1457.11 1916.4 1455.6 Q1914.71 1454.1 1911.7 1454.1 Q1908.67 1454.1 1906.98 1455.6 Q1905.31 1457.11 1905.31 1459.79 Z" fill="#000000" fill-rule="nonzero" fill-opacity="1" /><path clip-path="url(#clip390)" d="M2327.44 1481.64 L2335.08 1481.64 L2335.08 1455.28 L2326.77 1456.95 L2326.77 1452.69 L2335.04 1451.02 L2339.71 1451.02 L2339.71 1481.64 L2347.35 1481.64 L2347.35 1485.58 L2327.44 1485.58 L2327.44 1481.64 Z" fill="#000000" fill-rule="nonzero" fill-opacity="1" /><path clip-path="url(#clip390)" d="M2366.8 1454.1 Q2363.18 1454.1 2361.36 1457.66 Q2359.55 1461.2 2359.55 1468.33 Q2359.55 1475.44 2361.36 1479.01 Q2363.18 1482.55 2366.8 1482.55 Q2370.43 1482.55 2372.23 1479.01 Q2374.06 1475.44 2374.06 1468.33 Q2374.06 1461.2 2372.23 1457.66 Q2370.43 1454.1 2366.8 1454.1 M2366.8 1450.39 Q2372.61 1450.39 2375.66 1455 Q2378.74 1459.58 2378.74 1468.33 Q2378.74 1477.06 2375.66 1481.67 Q2372.61 1486.25 2366.8 1486.25 Q2360.99 1486.25 2357.91 1481.67 Q2354.85 1477.06 2354.85 1468.33 Q2354.85 1459.58 2357.91 1455 Q2360.99 1450.39 2366.8 1450.39 Z" fill="#000000" fill-rule="nonzero" fill-opacity="1" /><path clip-path="url(#clip390)" d="M1249.18 1522.27 L1249.18 1532.4 L1261.24 1532.4 L1261.24 1536.95 L1249.18 1536.95 L1249.18 1556.3 Q1249.18 1560.66 1250.36 1561.9 Q1251.57 1563.14 1255.23 1563.14 L1261.24 1563.14 L1261.24 1568.04 L1255.23 1568.04 Q1248.45 1568.04 1245.87 1565.53 Q1243.29 1562.98 1243.29 1556.3 L1243.29 1536.95 L1238.99 1536.95 L1238.99 1532.4 L1243.29 1532.4 L1243.29 1522.27 L1249.18 1522.27 Z" fill="#000000" fill-rule="nonzero" fill-opacity="1" /><polyline clip-path="url(#clip390)" style="stroke:#000000; stroke-linecap:round; stroke-linejoin:round; stroke-width:4; stroke-opacity:1; fill:none" points="147.478,1423.18 147.478,47.2441 "/>
<polyline clip-path="url(#clip390)" style="stroke:#000000; stroke-linecap:round; stroke-linejoin:round; stroke-width:4; stroke-opacity:1; fill:none" points="147.478,1380.37 166.376,1380.37 "/>
<polyline clip-path="url(#clip390)" style="stroke:#000000; stroke-linecap:round; stroke-linejoin:round; stroke-width:4; stroke-opacity:1; fill:none" points="147.478,963.008 166.376,963.008 "/>
<polyline clip-path="url(#clip390)" style="stroke:#000000; stroke-linecap:round; stroke-linejoin:round; stroke-width:4; stroke-opacity:1; fill:none" points="147.478,545.642 166.376,545.642 "/>
<polyline clip-path="url(#clip390)" style="stroke:#000000; stroke-linecap:round; stroke-linejoin:round; stroke-width:4; stroke-opacity:1; fill:none" points="147.478,128.277 166.376,128.277 "/>
<path clip-path="url(#clip390)" d="M51.3625 1380.82 L81.0383 1380.82 L81.0383 1384.76 L51.3625 1384.76 L51.3625 1380.82 Z" fill="#000000" fill-rule="nonzero" fill-opacity="1" /><path clip-path="url(#clip390)" d="M95.1586 1393.72 L111.478 1393.72 L111.478 1397.65 L89.5336 1397.65 L89.5336 1393.72 Q92.1956 1390.96 96.7789 1386.33 Q101.385 1381.68 102.566 1380.34 Q104.811 1377.82 105.691 1376.08 Q106.594 1374.32 106.594 1372.63 Q106.594 1369.88 104.649 1368.14 Q102.728 1366.4 99.6261 1366.4 Q97.4271 1366.4 94.9734 1367.17 Q92.5428 1367.93 89.7651 1369.48 L89.7651 1364.76 Q92.5891 1363.63 95.0428 1363.05 Q97.4965 1362.47 99.5335 1362.47 Q104.904 1362.47 108.098 1365.15 Q111.293 1367.84 111.293 1372.33 Q111.293 1374.46 110.483 1376.38 Q109.696 1378.28 107.589 1380.87 Q107.01 1381.54 103.909 1384.76 Q100.807 1387.95 95.1586 1393.72 Z" fill="#000000" fill-rule="nonzero" fill-opacity="1" /><path clip-path="url(#clip390)" d="M50.9921 963.459 L80.6679 963.459 L80.6679 967.394 L50.9921 967.394 L50.9921 963.459 Z" fill="#000000" fill-rule="nonzero" fill-opacity="1" /><path clip-path="url(#clip390)" d="M91.5706 976.352 L99.2095 976.352 L99.2095 949.987 L90.8993 951.654 L90.8993 947.394 L99.1632 945.728 L103.839 945.728 L103.839 976.352 L111.478 976.352 L111.478 980.288 L91.5706 980.288 L91.5706 976.352 Z" fill="#000000" fill-rule="nonzero" fill-opacity="1" /><path clip-path="url(#clip390)" d="M99.5335 531.441 Q95.9224 531.441 94.0937 535.006 Q92.2882 538.547 92.2882 545.677 Q92.2882 552.783 94.0937 556.348 Q95.9224 559.89 99.5335 559.89 Q103.168 559.89 104.973 556.348 Q106.802 552.783 106.802 545.677 Q106.802 538.547 104.973 535.006 Q103.168 531.441 99.5335 531.441 M99.5335 527.737 Q105.344 527.737 108.399 532.344 Q111.478 536.927 111.478 545.677 Q111.478 554.404 108.399 559.01 Q105.344 563.594 99.5335 563.594 Q93.7234 563.594 90.6447 559.01 Q87.5892 554.404 87.5892 545.677 Q87.5892 536.927 90.6447 532.344 Q93.7234 527.737 99.5335 527.737 Z" fill="#000000" fill-rule="nonzero" fill-opacity="1" /><path clip-path="url(#clip390)" d="M91.5706 141.622 L99.2095 141.622 L99.2095 115.256 L90.8993 116.923 L90.8993 112.664 L99.1632 110.997 L103.839 110.997 L103.839 141.622 L111.478 141.622 L111.478 145.557 L91.5706 145.557 L91.5706 141.622 Z" fill="#000000" fill-rule="nonzero" fill-opacity="1" /><polyline clip-path="url(#clip391)" style="stroke:#009af9; stroke-linecap:round; stroke-linejoin:round; stroke-width:4; stroke-opacity:1; fill:none" points="147.478,545.642 149.685,549.218 151.893,552.747 154.1,556.229 156.308,559.665 158.515,563.055 160.723,566.4 162.93,569.701 165.138,572.958 167.345,576.172 169.553,579.344 171.76,582.473 173.968,585.561 176.175,588.608 178.383,591.614 180.59,594.581 182.798,597.508 185.005,600.397 187.213,603.247 189.42,606.06 191.628,608.835 193.835,611.573 196.043,614.275 198.25,616.941 200.458,619.572 202.665,622.168 204.873,624.73 207.08,627.257 209.288,629.751 211.495,632.212 213.702,634.641 215.91,637.037 218.117,639.401 220.325,641.735 222.532,644.037 224.74,646.308 226.947,648.55 229.155,650.762 231.362,652.944 233.57,655.098 235.777,657.223 237.985,659.319 240.192,661.388 242.4,663.43 244.607,665.444 246.815,667.432 249.022,669.394 251.23,671.329 253.437,673.239 255.645,675.123 257.852,676.983 260.06,678.818 262.267,680.628 264.475,682.415 266.682,684.178 268.89,685.917 271.097,687.634 273.305,689.327 275.512,690.998 277.72,692.647 279.927,694.275 282.135,695.88 284.342,697.464 286.549,699.028 288.757,700.57 290.964,702.092 293.172,703.594 295.379,705.076 297.587,706.539 299.794,707.981 302.002,709.405 304.209,710.81 306.417,712.197 308.624,713.565 310.832,714.914 313.039,716.246 315.247,717.561 317.454,718.857 319.662,720.137 321.869,721.4 324.077,722.646 326.284,723.875 328.492,725.088 330.699,726.285 332.907,727.467 335.114,728.632 337.322,729.782 339.529,730.917 341.737,732.037 343.944,733.142 346.152,734.232 348.359,735.308 350.567,736.369 352.774,737.417 354.982,738.45 357.189,739.47 359.397,740.477 361.604,741.47 363.811,741.899 366.019,741.193 368.226,739.491 370.434,736.922 372.641,733.61 374.849,729.671 377.056,725.212 379.264,720.335 381.471,715.131 383.679,709.687 385.886,704.078 388.094,698.376 390.301,692.642 392.509,686.931 394.716,681.29 396.924,675.758 399.131,670.367 401.339,665.14 403.546,660.094 405.754,655.239 407.961,650.574 410.169,646.094 412.376,641.784 414.584,637.622 416.791,633.579 418.999,629.618 421.206,625.694 423.414,621.756 425.621,617.749 427.829,613.754 430.036,609.812 432.244,605.922 434.451,602.084 436.659,598.297 438.866,594.56 441.073,590.872 443.281,587.234 445.488,583.643 447.696,580.1 449.903,576.605 452.111,573.155 454.318,569.752 456.526,566.393 458.733,563.079 460.941,559.809 463.148,556.582 465.356,553.398 467.563,550.256 469.771,547.156 471.978,544.096 474.186,541.078 476.393,538.099 478.601,535.16 480.808,532.26 483.016,529.398 485.223,526.574 487.431,523.788 489.638,521.039 491.846,518.326 494.053,515.649 496.261,513.008 498.468,510.402 500.676,507.83 502.883,505.293 505.091,502.789 507.298,500.318 509.506,497.88 511.713,495.475 513.921,493.101 516.128,490.759 518.335,488.448 520.543,486.167 522.75,483.917 524.958,481.696 527.165,479.505 529.373,477.344 531.58,475.21 533.788,473.105 535.995,471.028 538.203,468.978 540.41,466.957 542.618,465.005 544.825,463.132 547.033,461.318 549.24,459.548 551.448,457.806 553.655,456.08 555.863,454.356 558.07,452.624 560.278,450.875 562.485,449.099 564.693,447.291 566.9,445.444 569.108,443.554 571.315,441.618 573.523,439.635 575.73,437.604 577.938,435.526 580.145,433.404 582.353,431.242 584.56,429.043 586.768,426.816 588.975,424.567 591.182,422.305 593.39,420.041 595.597,417.787 597.805,415.555 600.012,413.36 602.22,411.218 604.427,409.138 606.635,407.09 608.842,405.07 611.05,403.076 613.257,401.109 615.465,399.167 617.672,397.252 619.88,395.362 622.087,393.497 624.295,391.656 626.502,389.841 628.71,388.049 630.917,386.281 633.125,384.536 635.332,382.815 637.54,381.116 639.747,379.44 641.955,377.786 644.162,376.154 646.37,374.544 648.577,372.955 650.785,371.387 652.992,369.839 655.2,368.312 657.407,366.806 659.615,365.319 661.822,363.852 664.03,362.404 666.237,360.976 668.444,359.566 670.652,358.175 672.859,356.802 675.067,355.448 677.274,354.112 679.482,352.793 681.689,351.492 683.897,350.209 686.104,348.942 688.312,347.692 690.519,346.459 692.727,345.242 694.934,344.041 697.142,342.857 699.349,341.688 701.557,340.534 703.764,339.396 705.972,338.273 708.179,337.165 710.387,336.072 712.594,334.993 714.802,333.929 717.009,332.879 719.217,331.842 721.424,330.82 723.632,329.811 725.839,328.815 728.047,327.833 730.254,326.864 732.462,325.907 734.669,324.964 736.877,324.032 739.084,323.113 741.292,322.207 743.499,321.312 745.706,320.429 747.914,319.558 750.121,318.698 752.329,317.85 754.536,317.012 756.744,316.186 758.951,315.371 761.159,314.567 763.366,313.773 765.574,312.989 767.781,312.217 769.989,311.454 772.196,310.701 774.404,309.959 776.611,309.226 778.819,308.503 781.026,307.79 783.234,307.086 785.441,306.391 787.649,305.705 789.856,305.029 792.064,304.362 794.271,303.703 796.479,303.053 798.686,302.412 800.894,301.78 803.101,301.155 805.309,301.226 807.516,303.1 809.724,306.572 811.931,311.421 814.139,317.442 816.346,324.442 818.553,332.24 820.761,340.672 822.968,349.584 825.176,358.838 827.383,368.306 829.591,377.878 831.798,387.454 834.006,396.949 836.213,406.291 838.421,415.421 840.628,424.293 842.836,432.877 845.043,441.153 847.251,449.117 849.458,456.777 851.666,464.155 853.873,471.287 856.081,478.221 858.288,485.019 860.496,491.758 862.703,498.526 864.911,505.392 867.118,512.205 869.326,518.928 871.533,525.561 873.741,532.106 875.948,538.565 878.156,544.938 880.363,551.226 882.571,557.431 884.778,563.554 886.986,569.596 889.193,575.558 891.401,581.44 893.608,587.245 895.815,592.972 898.023,598.624 900.23,604.201 902.438,609.704 904.645,615.134 906.853,620.491 909.06,625.778 911.268,630.995 913.475,636.143 915.683,641.222 917.89,646.234 920.098,651.18 922.305,656.06 924.513,660.875 926.72,665.626 928.928,670.315 931.135,674.941 933.343,679.505 935.55,684.01 937.758,688.454 939.965,692.84 942.173,697.167 944.38,701.437 946.588,705.651 948.795,709.809 951.003,713.911 953.21,717.959 955.418,721.954 957.625,725.895 959.833,729.785 962.04,733.623 964.248,737.409 966.455,741.146 968.663,744.833 970.87,748.472 973.077,752.062 975.285,755.604 977.492,759.1 979.7,762.549 981.907,765.953 984.115,769.311 986.322,772.625 988.53,775.894 990.737,779.121 992.945,782.304 995.152,785.446 997.36,788.546 999.567,791.604 1001.77,794.622 1003.98,797.6 1006.19,800.539 1008.4,803.439 1010.6,806.3 1012.81,809.123 1015.02,811.909 1017.23,814.658 1019.43,817.37 1021.64,820.047 1023.85,822.688 1026.06,825.063 1028.26,826.74 1030.47,827.779 1032.68,828.249 1034.89,828.215 1037.09,827.739 1039.3,826.881 1041.51,825.697 1043.72,824.237 1045.92,822.552 1048.13,820.686 1050.34,818.682 1052.55,816.577 1054.75,814.408 1056.96,812.204 1059.17,809.996 1061.38,807.807 1063.58,805.659 1065.79,803.57 1068,801.555 1070.21,799.624 1072.41,797.786 1074.62,796.045 1076.83,794.402 1079.04,792.854 1081.24,791.395 1083.45,790.016 1085.66,788.705 1087.87,787.444 1090.07,786.216 1092.28,784.995 1094.49,783.758 1096.7,782.472 1098.9,781.147 1101.11,779.838 1103.32,778.547 1105.53,777.273 1107.73,776.016 1109.94,774.775 1112.15,773.551 1114.36,772.343 1116.56,771.151 1118.77,769.975 1120.98,768.814 1123.19,767.669 1125.39,766.539 1127.6,765.424 1129.81,764.324 1132.02,763.239 1134.22,762.167 1136.43,761.11 1138.64,760.067 1140.85,759.038 1143.05,758.023 1145.26,757.021 1147.47,756.032 1149.68,755.056 1151.88,754.093 1154.09,753.143 1156.3,752.206 1158.51,751.281 1160.71,750.368 1162.92,749.468 1165.13,748.579 1167.34,747.702 1169.54,746.837 1171.75,745.983 1173.96,745.141 1176.17,744.309 1178.37,743.489 1180.58,742.68 1182.79,741.881 1185,741.093 1187.2,740.315 1189.41,739.548 1191.62,738.791 1193.83,738.044 1196.03,737.307 1198.24,736.58 1200.45,735.862 1202.66,735.154 1204.86,734.455 1207.07,733.766 1209.28,733.085 1211.49,732.414 1213.69,731.751 1215.9,731.098 1218.11,730.452 1220.32,729.816 1222.52,729.188 1224.73,728.568 1226.94,727.957 1229.15,727.353 1231.35,726.758 1233.56,726.17 1235.77,725.59 1237.98,725.018 1240.18,724.454 1242.39,723.897 1244.6,723.347 1246.81,722.805 1249.01,721.517 1251.22,718.841 1253.43,714.96 1255.64,710.042 1257.84,704.248 1260.05,697.726 1262.26,690.615 1264.47,683.043 1266.67,675.127 1268.88,666.974 1271.09,658.68 1273.3,650.332 1275.5,642.005 1277.71,633.764 1279.92,625.663 1282.13,617.745 1284.33,610.045 1286.54,602.584 1288.75,595.376 1290.96,588.422 1293.16,581.713 1295.37,575.229 1297.58,568.942 1299.79,562.81 1301.99,556.784 1304.2,550.8 1306.41,544.789 1308.62,538.72 1310.82,532.72 1313.03,526.8 1315.24,520.958 1317.45,515.194 1319.65,509.506 1321.86,503.894 1324.07,498.356 1326.28,492.891 1328.48,487.499 1330.69,482.179 1332.9,476.929 1335.11,471.748 1337.31,466.636 1339.52,461.592 1341.73,456.615 1343.94,451.704 1346.14,446.857 1348.35,442.075 1350.56,437.357 1352.76,432.701 1354.97,428.107 1357.18,423.573 1359.39,419.1 1361.59,414.686 1363.8,410.331 1366.01,406.033 1368.22,401.793 1370.42,397.608 1372.63,393.48 1374.84,389.406 1377.05,385.386 1379.25,381.419 1381.46,377.505 1383.67,373.643 1385.88,369.832 1388.08,366.071 1390.29,362.361 1392.5,358.699 1394.71,355.086 1396.91,351.521 1399.12,348.004 1401.33,344.533 1403.54,341.108 1405.74,337.728 1407.95,334.393 1410.16,331.102 1412.37,327.855 1414.57,324.651 1416.78,321.489 1418.99,318.37 1421.2,315.291 1423.4,312.254 1425.61,309.257 1427.82,306.299 1430.03,303.381 1432.23,300.501 1434.44,297.66 1436.65,294.856 1438.86,292.09 1441.06,289.36 1443.27,286.666 1445.48,284.008 1447.69,281.385 1449.89,278.798 1452.1,276.244 1454.31,273.724 1456.52,271.238 1458.72,268.784 1460.93,266.363 1463.14,263.975 1465.35,261.617 1467.55,259.292 1469.76,259.027 1471.97,264.702 1474.18,274.873 1476.38,288.096 1478.59,303.15 1480.8,319.041 1483.01,334.996 1485.21,350.469 1487.42,365.137 1489.63,378.902 1491.84,391.888 1494.04,404.445 1496.25,417.142 1498.46,429.964 1500.67,442.615 1502.87,455.099 1505.08,467.418 1507.29,479.573 1509.5,491.567 1511.7,503.402 1513.91,515.081 1516.12,526.604 1518.33,537.975 1520.53,549.195 1522.74,560.266 1524.95,571.19 1527.16,581.97 1529.36,592.606 1531.57,603.102 1533.78,613.458 1535.99,623.677 1538.19,633.76 1540.4,643.71 1542.61,653.528 1544.82,663.216 1547.02,672.775 1549.23,682.207 1551.44,691.515 1553.65,700.699 1555.85,709.761 1558.06,718.703 1560.27,727.527 1562.48,736.233 1564.68,744.825 1566.89,753.302 1569.1,761.667 1571.31,769.921 1573.51,778.066 1575.72,786.103 1577.93,794.033 1580.14,801.858 1582.34,809.579 1584.55,817.198 1586.76,824.715 1588.97,832.134 1591.17,839.453 1593.38,846.676 1595.59,853.803 1597.8,860.836 1600,867.775 1602.21,874.622 1604.42,881.379 1606.63,888.045 1608.83,894.624 1611.04,901.115 1613.25,907.521 1615.46,913.841 1617.66,920.078 1619.87,926.232 1622.08,932.304 1624.29,938.296 1626.49,944.209 1628.7,950.043 1630.91,955.8 1633.12,961.48 1635.32,967.085 1637.53,972.616 1639.74,978.073 1641.95,983.458 1644.15,988.772 1646.36,994.015 1648.57,999.189 1650.78,1004.29 1652.98,1009.33 1655.19,1014.3 1657.4,1019.21 1659.61,1024.04 1661.81,1028.82 1664.02,1033.53 1666.23,1038.18 1668.44,1042.77 1670.64,1047.3 1672.85,1051.76 1675.06,1056.17 1677.27,1060.52 1679.47,1064.81 1681.68,1069.05 1683.89,1073.23 1686.1,1076.83 1688.3,1078.1 1690.51,1077.11 1692.72,1074.17 1694.93,1069.51 1697.13,1063.4 1699.34,1056.05 1701.55,1047.68 1703.76,1038.5 1705.96,1028.68 1708.17,1018.39 1710.38,1007.79 1712.59,997.02 1714.79,986.197 1717,975.431 1719.21,964.816 1721.42,954.428 1723.62,944.33 1725.83,934.57 1728.04,925.179 1730.25,916.174 1732.45,907.556 1734.66,899.313 1736.87,891.415 1739.07,883.818 1741.28,876.462 1743.49,869.275 1745.7,862.165 1747.9,855.028 1750.11,847.744 1752.32,840.408 1754.53,833.169 1756.73,826.027 1758.94,818.978 1761.15,812.024 1763.36,805.161 1765.56,798.39 1767.77,791.708 1769.98,785.115 1772.19,778.609 1774.39,772.19 1776.6,765.855 1778.81,759.605 1781.02,753.437 1783.22,747.352 1785.43,741.346 1787.64,735.421 1789.85,729.574 1792.05,723.805 1794.26,718.112 1796.47,712.494 1798.68,706.951 1800.88,701.481 1803.09,696.083 1805.3,690.757 1807.51,685.501 1809.71,680.315 1811.92,675.198 1814.13,670.149 1816.34,665.166 1818.54,660.25 1820.75,655.399 1822.96,650.612 1825.17,645.889 1827.37,641.229 1829.58,636.63 1831.79,632.093 1834,627.616 1836.2,623.198 1838.41,618.839 1840.62,614.538 1842.83,610.294 1845.03,606.106 1847.24,601.974 1849.45,597.897 1851.66,593.874 1853.86,589.904 1856.07,585.987 1858.28,582.122 1860.49,578.308 1862.69,574.545 1864.9,570.832 1867.11,567.168 1869.32,563.552 1871.52,559.985 1873.73,556.465 1875.94,552.991 1878.15,549.563 1880.35,546.181 1882.56,542.843 1884.77,539.55 1886.98,536.3 1889.18,533.093 1891.39,529.929 1893.6,526.806 1895.81,523.725 1898.01,520.685 1900.22,517.685 1902.43,514.725 1904.64,511.804 1906.84,508.922 1909.05,506.078 1911.26,503.325 1913.47,506.91 1915.67,510.765 1917.88,514.57 1920.09,518.324 1922.3,522.028 1924.5,525.683 1926.71,529.29 1928.92,532.849 1931.13,536.361 1933.33,539.826 1935.54,543.245 1937.75,546.619 1939.96,549.948 1942.16,553.233 1944.37,556.475 1946.58,559.673 1948.79,562.829 1950.99,565.944 1953.2,569.017 1955.41,572.049 1957.62,575.041 1959.82,577.993 1962.03,580.906 1964.24,583.781 1966.45,586.617 1968.65,589.416 1970.86,592.178 1973.07,594.903 1975.28,597.592 1977.48,600.246 1979.69,602.864 1981.9,605.447 1984.11,607.996 1986.31,610.512 1988.52,612.994 1990.73,615.443 1992.94,617.86 1995.14,620.244 1997.35,622.598 1999.56,624.919 2001.77,627.21 2003.97,629.471 2006.18,631.702 2008.39,633.903 2010.6,636.075 2012.8,638.218 2015.01,640.333 2017.22,642.419 2019.43,644.479 2021.63,646.51 2023.84,648.515 2026.05,650.493 2028.26,652.445 2030.46,654.371 2032.67,656.272 2034.88,658.147 2037.09,659.998 2039.29,661.824 2041.5,663.626 2043.71,665.404 2045.92,667.158 2048.12,668.889 2050.33,670.597 2052.54,672.283 2054.75,673.946 2056.95,675.587 2059.16,677.206 2061.37,678.804 2063.58,680.381 2065.78,681.936 2067.99,683.471 2070.2,684.986 2072.41,686.481 2074.61,687.956 2076.82,689.411 2079.03,690.847 2081.24,692.264 2083.44,693.662 2085.65,695.042 2087.86,696.403 2090.07,697.747 2092.27,699.072 2094.48,700.38 2096.69,701.671 2098.9,702.944 2101.1,704.201 2103.31,705.441 2105.52,706.664 2107.73,707.871 2109.93,709.063 2112.14,710.238 2114.35,711.398 2116.55,712.543 2118.76,713.672 2120.97,714.786 2123.18,715.892 2125.38,717.857 2127.59,719.273 2129.8,718.358 2132.01,714.806 2134.21,709.784 2136.42,705.082 2138.63,700.479 2140.84,695.937 2143.04,691.455 2145.25,687.033 2147.46,682.669 2149.67,678.363 2151.87,674.114 2154.08,669.921 2156.29,665.785 2158.5,661.702 2160.7,657.675 2162.91,653.7 2165.12,649.778 2167.33,645.908 2169.53,642.09 2171.74,638.322 2173.95,634.604 2176.16,630.935 2178.36,627.315 2180.57,623.743 2182.78,620.219 2184.99,616.741 2187.19,613.309 2189.4,609.923 2191.61,606.581 2193.82,603.284 2196.02,600.031 2198.23,596.82 2200.44,593.652 2202.65,590.527 2204.85,587.442 2207.06,584.399 2209.27,581.396 2211.48,578.433 2213.68,575.509 2215.89,572.624 2218.1,569.777 2220.31,566.968 2222.51,564.196 2224.72,561.46 2226.93,558.762 2229.14,556.098 2231.34,553.471 2233.55,550.878 2235.76,548.319 2237.97,545.794 2240.17,543.303 2242.38,540.845 2244.59,538.419 2246.8,536.026 2249,533.664 2251.21,531.334 2253.42,529.034 2255.63,526.765 2257.83,524.526 2260.04,522.317 2262.25,520.137 2264.46,517.986 2266.66,515.863 2268.87,513.769 2271.08,511.702 2273.29,509.663 2275.49,507.651 2277.7,505.665 2279.91,503.706 2282.12,501.773 2284.32,499.865 2286.53,497.983 2288.74,496.126 2290.95,494.293 2293.15,492.485 2295.36,490.7 2297.57,488.939 2299.78,487.202 2301.98,485.488 2304.19,483.796 2306.4,482.127 2308.61,480.479 2310.81,478.854 2313.02,477.25 2315.23,475.668 2317.44,474.106 2319.64,472.566 2321.85,471.045 2324.06,469.545 2326.27,468.065 2328.47,466.604 2330.68,465.163 2332.89,463.741 2335.1,462.337 2337.3,460.952 2339.51,459.586 2341.72,458.238 2343.93,456.907 2346.13,455.595 2348.34,454.299 2350.55,453.021 2352.76,451.76 "/>
<polyline clip-path="url(#clip391)" style="stroke:#e26f46; stroke-linecap:round; stroke-linejoin:round; stroke-width:4; stroke-opacity:1; fill:none" points="147.478,815.377 149.685,815.377 151.893,815.377 154.1,815.377 156.308,815.377 158.515,815.377 160.723,815.377 162.93,815.377 165.138,815.377 167.345,815.377 169.553,815.377 171.76,815.377 173.968,815.377 176.175,815.377 178.383,815.377 180.59,815.377 182.798,815.377 185.005,815.377 187.213,815.377 189.42,815.377 191.628,815.377 193.835,815.377 196.043,815.377 198.25,815.377 200.458,815.377 202.665,815.377 204.873,815.377 207.08,815.377 209.288,815.377 211.495,815.377 213.702,815.377 215.91,815.377 218.117,815.377 220.325,815.377 222.532,815.377 224.74,815.377 226.947,815.377 229.155,815.377 231.362,815.377 233.57,815.377 235.777,815.377 237.985,815.377 240.192,815.377 242.4,815.377 244.607,815.377 246.815,815.377 249.022,815.377 251.23,815.377 253.437,815.377 255.645,815.377 257.852,815.377 260.06,815.377 262.267,815.377 264.475,815.377 266.682,815.377 268.89,815.377 271.097,815.377 273.305,815.377 275.512,815.377 277.72,815.377 279.927,815.377 282.135,815.377 284.342,815.377 286.549,815.377 288.757,815.377 290.964,815.377 293.172,815.377 295.379,815.377 297.587,815.377 299.794,815.377 302.002,815.377 304.209,815.377 306.417,815.377 308.624,815.377 310.832,815.377 313.039,815.377 315.247,815.377 317.454,815.377 319.662,815.377 321.869,815.377 324.077,815.377 326.284,815.377 328.492,815.377 330.699,815.377 332.907,815.377 335.114,815.377 337.322,815.377 339.529,815.377 341.737,815.377 343.944,815.377 346.152,815.377 348.359,815.377 350.567,815.377 352.774,815.377 354.982,815.377 357.189,815.377 359.397,815.377 361.604,815.377 363.811,815.377 366.019,815.377 368.226,316.427 370.434,316.427 372.641,316.427 374.849,316.427 377.056,316.427 379.264,316.427 381.471,316.427 383.679,316.427 385.886,316.427 388.094,316.427 390.301,316.427 392.509,316.427 394.716,316.427 396.924,316.427 399.131,316.427 401.339,316.427 403.546,316.427 405.754,316.427 407.961,316.427 410.169,316.427 412.376,316.427 414.584,316.427 416.791,316.427 418.999,316.427 421.206,316.427 423.414,316.427 425.621,316.427 427.829,316.427 430.036,316.427 432.244,316.427 434.451,316.427 436.659,316.427 438.866,316.427 441.073,316.427 443.281,316.427 445.488,316.427 447.696,316.427 449.903,316.427 452.111,316.427 454.318,316.427 456.526,316.427 458.733,316.427 460.941,316.427 463.148,316.427 465.356,316.427 467.563,316.427 469.771,316.427 471.978,316.427 474.186,316.427 476.393,316.427 478.601,316.427 480.808,316.427 483.016,316.427 485.223,316.427 487.431,316.427 489.638,316.427 491.846,316.427 494.053,316.427 496.261,316.427 498.468,316.427 500.676,316.427 502.883,316.427 505.091,316.427 507.298,316.427 509.506,316.427 511.713,316.427 513.921,316.427 516.128,316.427 518.335,316.427 520.543,316.427 522.75,316.427 524.958,316.427 527.165,316.427 529.373,316.427 531.58,316.427 533.788,316.427 535.995,316.427 538.203,316.427 540.41,316.427 542.618,316.427 544.825,316.427 547.033,316.427 549.24,316.427 551.448,316.427 553.655,316.427 555.863,316.427 558.07,316.427 560.278,316.427 562.485,316.427 564.693,316.427 566.9,316.427 569.108,316.427 571.315,316.427 573.523,316.427 575.73,316.427 577.938,316.427 580.145,316.427 582.353,316.427 584.56,316.427 586.768,316.427 588.975,254.691 591.182,254.691 593.39,254.691 595.597,254.691 597.805,254.691 600.012,254.691 602.22,254.691 604.427,254.691 606.635,254.691 608.842,254.691 611.05,254.691 613.257,254.691 615.465,254.691 617.672,254.691 619.88,254.691 622.087,254.691 624.295,254.691 626.502,254.691 628.71,254.691 630.917,254.691 633.125,254.691 635.332,254.691 637.54,254.691 639.747,254.691 641.955,254.691 644.162,254.691 646.37,254.691 648.577,254.691 650.785,254.691 652.992,254.691 655.2,254.691 657.407,254.691 659.615,254.691 661.822,254.691 664.03,254.691 666.237,254.691 668.444,254.691 670.652,254.691 672.859,254.691 675.067,254.691 677.274,254.691 679.482,254.691 681.689,254.691 683.897,254.691 686.104,254.691 688.312,254.691 690.519,254.691 692.727,254.691 694.934,254.691 697.142,254.691 699.349,254.691 701.557,254.691 703.764,254.691 705.972,254.691 708.179,254.691 710.387,254.691 712.594,254.691 714.802,254.691 717.009,254.691 719.217,254.691 721.424,254.691 723.632,254.691 725.839,254.691 728.047,254.691 730.254,254.691 732.462,254.691 734.669,254.691 736.877,254.691 739.084,254.691 741.292,254.691 743.499,254.691 745.706,254.691 747.914,254.691 750.121,254.691 752.329,254.691 754.536,254.691 756.744,254.691 758.951,254.691 761.159,254.691 763.366,254.691 765.574,254.691 767.781,254.691 769.989,254.691 772.196,254.691 774.404,254.691 776.611,254.691 778.819,254.691 781.026,254.691 783.234,254.691 785.441,254.691 787.649,254.691 789.856,254.691 792.064,254.691 794.271,254.691 796.479,254.691 798.686,254.691 800.894,254.691 803.101,254.691 805.309,254.691 807.516,254.691 809.724,1019.25 811.931,1019.25 814.139,1019.25 816.346,1019.25 818.553,1019.25 820.761,1019.25 822.968,1019.25 825.176,1019.25 827.383,1019.25 829.591,1019.25 831.798,1019.25 834.006,1019.25 836.213,1019.25 838.421,1019.25 840.628,1019.25 842.836,1019.25 845.043,1019.25 847.251,1019.25 849.458,1019.25 851.666,1019.25 853.873,1019.25 856.081,1019.25 858.288,1019.25 860.496,1019.25 862.703,1019.25 864.911,1019.25 867.118,1019.25 869.326,1019.25 871.533,1019.25 873.741,1019.25 875.948,1019.25 878.156,1019.25 880.363,1019.25 882.571,1019.25 884.778,1019.25 886.986,1019.25 889.193,1019.25 891.401,1019.25 893.608,1019.25 895.815,1019.25 898.023,1019.25 900.23,1019.25 902.438,1019.25 904.645,1019.25 906.853,1019.25 909.06,1019.25 911.268,1019.25 913.475,1019.25 915.683,1019.25 917.89,1019.25 920.098,1019.25 922.305,1019.25 924.513,1019.25 926.72,1019.25 928.928,1019.25 931.135,1019.25 933.343,1019.25 935.55,1019.25 937.758,1019.25 939.965,1019.25 942.173,1019.25 944.38,1019.25 946.588,1019.25 948.795,1019.25 951.003,1019.25 953.21,1019.25 955.418,1019.25 957.625,1019.25 959.833,1019.25 962.04,1019.25 964.248,1019.25 966.455,1019.25 968.663,1019.25 970.87,1019.25 973.077,1019.25 975.285,1019.25 977.492,1019.25 979.7,1019.25 981.907,1019.25 984.115,1019.25 986.322,1019.25 988.53,1019.25 990.737,1019.25 992.945,1019.25 995.152,1019.25 997.36,1019.25 999.567,1019.25 1001.77,1019.25 1003.98,1019.25 1006.19,1019.25 1008.4,1019.25 1010.6,1019.25 1012.81,1019.25 1015.02,1019.25 1017.23,1019.25 1019.43,1019.25 1021.64,1019.25 1023.85,1019.25 1026.06,1019.25 1028.26,1019.25 1030.47,682.442 1032.68,682.442 1034.89,682.442 1037.09,682.442 1039.3,682.442 1041.51,682.442 1043.72,682.442 1045.92,682.442 1048.13,682.442 1050.34,682.442 1052.55,682.442 1054.75,682.442 1056.96,682.442 1059.17,682.442 1061.38,682.442 1063.58,682.442 1065.79,682.442 1068,682.442 1070.21,682.442 1072.41,682.442 1074.62,682.442 1076.83,682.442 1079.04,682.442 1081.24,682.442 1083.45,682.442 1085.66,682.442 1087.87,682.442 1090.07,682.442 1092.28,682.442 1094.49,682.442 1096.7,682.442 1098.9,682.442 1101.11,682.442 1103.32,682.442 1105.53,682.442 1107.73,682.442 1109.94,682.442 1112.15,682.442 1114.36,682.442 1116.56,682.442 1118.77,682.442 1120.98,682.442 1123.19,682.442 1125.39,682.442 1127.6,682.442 1129.81,682.442 1132.02,682.442 1134.22,682.442 1136.43,682.442 1138.64,682.442 1140.85,682.442 1143.05,682.442 1145.26,682.442 1147.47,682.442 1149.68,682.442 1151.88,682.442 1154.09,682.442 1156.3,682.442 1158.51,682.442 1160.71,682.442 1162.92,682.442 1165.13,682.442 1167.34,682.442 1169.54,682.442 1171.75,682.442 1173.96,682.442 1176.17,682.442 1178.37,682.442 1180.58,682.442 1182.79,682.442 1185,682.442 1187.2,682.442 1189.41,682.442 1191.62,682.442 1193.83,682.442 1196.03,682.442 1198.24,682.442 1200.45,682.442 1202.66,682.442 1204.86,682.442 1207.07,682.442 1209.28,682.442 1211.49,682.442 1213.69,682.442 1215.9,682.442 1218.11,682.442 1220.32,682.442 1222.52,682.442 1224.73,682.442 1226.94,682.442 1229.15,682.442 1231.35,682.442 1233.56,682.442 1235.77,682.442 1237.98,682.442 1240.18,682.442 1242.39,682.442 1244.6,682.442 1246.81,682.442 1249.01,682.442 1251.22,86.1857 1253.43,86.1857 1255.64,86.1857 1257.84,86.1857 1260.05,86.1857 1262.26,86.1857 1264.47,86.1857 1266.67,86.1857 1268.88,86.1857 1271.09,86.1857 1273.3,86.1857 1275.5,86.1857 1277.71,86.1857 1279.92,86.1857 1282.13,86.1857 1284.33,86.1857 1286.54,86.1857 1288.75,86.1857 1290.96,86.1857 1293.16,86.1857 1295.37,86.1857 1297.58,86.1857 1299.79,86.1857 1301.99,86.1857 1304.2,86.1857 1306.41,86.1857 1308.62,86.1857 1310.82,86.1857 1313.03,86.1857 1315.24,86.1857 1317.45,86.1857 1319.65,86.1857 1321.86,86.1857 1324.07,86.1857 1326.28,86.1857 1328.48,86.1857 1330.69,86.1857 1332.9,86.1857 1335.11,86.1857 1337.31,86.1857 1339.52,86.1857 1341.73,86.1857 1343.94,86.1857 1346.14,86.1857 1348.35,86.1857 1350.56,86.1857 1352.76,86.1857 1354.97,86.1857 1357.18,86.1857 1359.39,86.1857 1361.59,86.1857 1363.8,86.1857 1366.01,86.1857 1368.22,86.1857 1370.42,86.1857 1372.63,86.1857 1374.84,86.1857 1377.05,86.1857 1379.25,86.1857 1381.46,86.1857 1383.67,86.1857 1385.88,86.1857 1388.08,86.1857 1390.29,86.1857 1392.5,86.1857 1394.71,86.1857 1396.91,86.1857 1399.12,86.1857 1401.33,86.1857 1403.54,86.1857 1405.74,86.1857 1407.95,86.1857 1410.16,86.1857 1412.37,86.1857 1414.57,86.1857 1416.78,86.1857 1418.99,86.1857 1421.2,86.1857 1423.4,86.1857 1425.61,86.1857 1427.82,86.1857 1430.03,86.1857 1432.23,86.1857 1434.44,86.1857 1436.65,86.1857 1438.86,86.1857 1441.06,86.1857 1443.27,86.1857 1445.48,86.1857 1447.69,86.1857 1449.89,86.1857 1452.1,86.1857 1454.31,86.1857 1456.52,86.1857 1458.72,86.1857 1460.93,86.1857 1463.14,86.1857 1465.35,86.1857 1467.55,86.1857 1469.76,86.1857 1471.97,1384.24 1474.18,1384.24 1476.38,1384.24 1478.59,1384.24 1480.8,1384.24 1483.01,1384.24 1485.21,1384.24 1487.42,1384.24 1489.63,1384.24 1491.84,1384.24 1494.04,1384.24 1496.25,1384.24 1498.46,1384.24 1500.67,1384.24 1502.87,1384.24 1505.08,1384.24 1507.29,1384.24 1509.5,1384.24 1511.7,1384.24 1513.91,1384.24 1516.12,1384.24 1518.33,1384.24 1520.53,1384.24 1522.74,1384.24 1524.95,1384.24 1527.16,1384.24 1529.36,1384.24 1531.57,1384.24 1533.78,1384.24 1535.99,1384.24 1538.19,1384.24 1540.4,1384.24 1542.61,1384.24 1544.82,1384.24 1547.02,1384.24 1549.23,1384.24 1551.44,1384.24 1553.65,1384.24 1555.85,1384.24 1558.06,1384.24 1560.27,1384.24 1562.48,1384.24 1564.68,1384.24 1566.89,1384.24 1569.1,1384.24 1571.31,1384.24 1573.51,1384.24 1575.72,1384.24 1577.93,1384.24 1580.14,1384.24 1582.34,1384.24 1584.55,1384.24 1586.76,1384.24 1588.97,1384.24 1591.17,1384.24 1593.38,1384.24 1595.59,1384.24 1597.8,1384.24 1600,1384.24 1602.21,1384.24 1604.42,1384.24 1606.63,1384.24 1608.83,1384.24 1611.04,1384.24 1613.25,1384.24 1615.46,1384.24 1617.66,1384.24 1619.87,1384.24 1622.08,1384.24 1624.29,1384.24 1626.49,1384.24 1628.7,1384.24 1630.91,1384.24 1633.12,1384.24 1635.32,1384.24 1637.53,1384.24 1639.74,1384.24 1641.95,1384.24 1644.15,1384.24 1646.36,1384.24 1648.57,1384.24 1650.78,1384.24 1652.98,1384.24 1655.19,1384.24 1657.4,1384.24 1659.61,1384.24 1661.81,1384.24 1664.02,1384.24 1666.23,1384.24 1668.44,1384.24 1670.64,1384.24 1672.85,1384.24 1675.06,1384.24 1677.27,1384.24 1679.47,1384.24 1681.68,1384.24 1683.89,1384.24 1686.1,1384.24 1688.3,1384.24 1690.51,1384.24 1692.72,294.411 1694.93,294.411 1697.13,294.411 1699.34,294.411 1701.55,294.411 1703.76,294.411 1705.96,294.411 1708.17,294.411 1710.38,294.411 1712.59,294.411 1714.79,294.411 1717,294.411 1719.21,294.411 1721.42,294.411 1723.62,294.411 1725.83,294.411 1728.04,294.411 1730.25,294.411 1732.45,294.411 1734.66,294.411 1736.87,294.411 1739.07,294.411 1741.28,294.411 1743.49,294.411 1745.7,294.411 1747.9,294.411 1750.11,294.411 1752.32,294.411 1754.53,294.411 1756.73,294.411 1758.94,294.411 1761.15,294.411 1763.36,294.411 1765.56,294.411 1767.77,294.411 1769.98,294.411 1772.19,294.411 1774.39,294.411 1776.6,294.411 1778.81,294.411 1781.02,294.411 1783.22,294.411 1785.43,294.411 1787.64,294.411 1789.85,294.411 1792.05,294.411 1794.26,294.411 1796.47,294.411 1798.68,294.411 1800.88,294.411 1803.09,294.411 1805.3,294.411 1807.51,294.411 1809.71,294.411 1811.92,294.411 1814.13,294.411 1816.34,294.411 1818.54,294.411 1820.75,294.411 1822.96,294.411 1825.17,294.411 1827.37,294.411 1829.58,294.411 1831.79,294.411 1834,294.411 1836.2,294.411 1838.41,294.411 1840.62,294.411 1842.83,294.411 1845.03,294.411 1847.24,294.411 1849.45,294.411 1851.66,294.411 1853.86,294.411 1856.07,294.411 1858.28,294.411 1860.49,294.411 1862.69,294.411 1864.9,294.411 1867.11,294.411 1869.32,294.411 1871.52,294.411 1873.73,294.411 1875.94,294.411 1878.15,294.411 1880.35,294.411 1882.56,294.411 1884.77,294.411 1886.98,294.411 1889.18,294.411 1891.39,294.411 1893.6,294.411 1895.81,294.411 1898.01,294.411 1900.22,294.411 1902.43,294.411 1904.64,294.411 1906.84,294.411 1909.05,294.411 1911.26,294.411 1913.47,797.725 1915.67,797.725 1917.88,797.725 1920.09,797.725 1922.3,797.725 1924.5,797.725 1926.71,797.725 1928.92,797.725 1931.13,797.725 1933.33,797.725 1935.54,797.725 1937.75,797.725 1939.96,797.725 1942.16,797.725 1944.37,797.725 1946.58,797.725 1948.79,797.725 1950.99,797.725 1953.2,797.725 1955.41,797.725 1957.62,797.725 1959.82,797.725 1962.03,797.725 1964.24,797.725 1966.45,797.725 1968.65,797.725 1970.86,797.725 1973.07,797.725 1975.28,797.725 1977.48,797.725 1979.69,797.725 1981.9,797.725 1984.11,797.725 1986.31,797.725 1988.52,797.725 1990.73,797.725 1992.94,797.725 1995.14,797.725 1997.35,797.725 1999.56,797.725 2001.77,797.725 2003.97,797.725 2006.18,797.725 2008.39,797.725 2010.6,797.725 2012.8,797.725 2015.01,797.725 2017.22,797.725 2019.43,797.725 2021.63,797.725 2023.84,797.725 2026.05,797.725 2028.26,797.725 2030.46,797.725 2032.67,797.725 2034.88,797.725 2037.09,797.725 2039.29,797.725 2041.5,797.725 2043.71,797.725 2045.92,797.725 2048.12,797.725 2050.33,797.725 2052.54,797.725 2054.75,797.725 2056.95,797.725 2059.16,797.725 2061.37,797.725 2063.58,797.725 2065.78,797.725 2067.99,797.725 2070.2,797.725 2072.41,797.725 2074.61,797.725 2076.82,797.725 2079.03,797.725 2081.24,797.725 2083.44,797.725 2085.65,797.725 2087.86,797.725 2090.07,797.725 2092.27,797.725 2094.48,797.725 2096.69,797.725 2098.9,797.725 2101.1,797.725 2103.31,797.725 2105.52,797.725 2107.73,797.725 2109.93,797.725 2112.14,797.725 2114.35,797.725 2116.55,797.725 2118.76,797.725 2120.97,797.725 2123.18,797.725 2125.38,797.725 2127.59,797.725 2129.8,797.725 2132.01,797.725 2134.21,357.891 2136.42,357.891 2138.63,357.891 2140.84,357.891 2143.04,357.891 2145.25,357.891 2147.46,357.891 2149.67,357.891 2151.87,357.891 2154.08,357.891 2156.29,357.891 2158.5,357.891 2160.7,357.891 2162.91,357.891 2165.12,357.891 2167.33,357.891 2169.53,357.891 2171.74,357.891 2173.95,357.891 2176.16,357.891 2178.36,357.891 2180.57,357.891 2182.78,357.891 2184.99,357.891 2187.19,357.891 2189.4,357.891 2191.61,357.891 2193.82,357.891 2196.02,357.891 2198.23,357.891 2200.44,357.891 2202.65,357.891 2204.85,357.891 2207.06,357.891 2209.27,357.891 2211.48,357.891 2213.68,357.891 2215.89,357.891 2218.1,357.891 2220.31,357.891 2222.51,357.891 2224.72,357.891 2226.93,357.891 2229.14,357.891 2231.34,357.891 2233.55,357.891 2235.76,357.891 2237.97,357.891 2240.17,357.891 2242.38,357.891 2244.59,357.891 2246.8,357.891 2249,357.891 2251.21,357.891 2253.42,357.891 2255.63,357.891 2257.83,357.891 2260.04,357.891 2262.25,357.891 2264.46,357.891 2266.66,357.891 2268.87,357.891 2271.08,357.891 2273.29,357.891 2275.49,357.891 2277.7,357.891 2279.91,357.891 2282.12,357.891 2284.32,357.891 2286.53,357.891 2288.74,357.891 2290.95,357.891 2293.15,357.891 2295.36,357.891 2297.57,357.891 2299.78,357.891 2301.98,357.891 2304.19,357.891 2306.4,357.891 2308.61,357.891 2310.81,357.891 2313.02,357.891 2315.23,357.891 2317.44,357.891 2319.64,357.891 2321.85,357.891 2324.06,357.891 2326.27,357.891 2328.47,357.891 2330.68,357.891 2332.89,357.891 2335.1,357.891 2337.3,357.891 2339.51,357.891 2341.72,357.891 2343.93,357.891 2346.13,357.891 2348.34,357.891 2350.55,357.891 2352.76,357.891 "/>
<path clip-path="url(#clip390)" d="M2033.58 1377.32 L2279.25 1377.32 L2279.25 1221.8 L2033.58 1221.8  Z" fill="#ffffff" fill-rule="evenodd" fill-opacity="1"/>
<polyline clip-path="url(#clip390)" style="stroke:#000000; stroke-linecap:round; stroke-linejoin:round; stroke-width:4; stroke-opacity:1; fill:none" points="2033.58,1377.32 2279.25,1377.32 2279.25,1221.8 2033.58,1221.8 2033.58,1377.32 "/>
<polyline clip-path="url(#clip390)" style="stroke:#009af9; stroke-linecap:round; stroke-linejoin:round; stroke-width:4; stroke-opacity:1; fill:none" points="2058.08,1273.64 2205.1,1273.64 "/>
<path clip-path="url(#clip390)" d="M2254.26 1264.99 L2244.88 1277.61 L2254.74 1290.92 L2249.72 1290.92 L2242.17 1280.73 L2234.63 1290.92 L2229.6 1290.92 L2239.67 1277.35 L2230.46 1264.99 L2235.48 1264.99 L2242.36 1274.23 L2249.23 1264.99 L2254.26 1264.99 Z" fill="#000000" fill-rule="nonzero" fill-opacity="1" /><polyline clip-path="url(#clip390)" style="stroke:#e26f46; stroke-linecap:round; stroke-linejoin:round; stroke-width:4; stroke-opacity:1; fill:none" points="2058.08,1325.48 2205.1,1325.48 "/>
<path clip-path="url(#clip390)" d="M2246.11 1306.74 L2246.11 1310.28 L2242.04 1310.28 Q2239.74 1310.28 2238.84 1311.2 Q2237.96 1312.13 2237.96 1314.54 L2237.96 1316.83 L2244.98 1316.83 L2244.98 1320.14 L2237.96 1320.14 L2237.96 1342.76 L2233.68 1342.76 L2233.68 1320.14 L2229.6 1320.14 L2229.6 1316.83 L2233.68 1316.83 L2233.68 1315.02 Q2233.68 1310.7 2235.69 1308.73 Q2237.71 1306.74 2242.08 1306.74 L2246.11 1306.74 Z" fill="#000000" fill-rule="nonzero" fill-opacity="1" /></svg>
