<?xml version="1.0" encoding="utf-8"?>
<svg xmlns="http://www.w3.org/2000/svg" xmlns:xlink="http://www.w3.org/1999/xlink" width="600" height="400" viewBox="0 0 2400 1600">
<defs>
  <clipPath id="clip280">
    <rect x="0" y="0" width="2400" height="1600"/>
  </clipPath>
</defs>
<path clip-path="url(#clip280)" d="M0 1600 L2400 1600 L2400 0 L0 0  Z" fill="#ffffff" fill-rule="evenodd" fill-opacity="1"/>
<defs>
  <clipPath id="clip281">
    <rect x="480" y="0" width="1681" height="1600"/>
  </clipPath>
</defs>
<path clip-path="url(#clip280)" d="M147.478 1423.18 L2352.76 1423.18 L2352.76 47.2441 L147.478 47.2441  Z" fill="#ffffff" fill-rule="evenodd" fill-opacity="1"/>
<defs>
  <clipPath id="clip282">
    <rect x="147" y="47" width="2206" height="1377"/>
  </clipPath>
</defs>
<polyline clip-path="url(#clip282)" style="stroke:#000000; stroke-linecap:round; stroke-linejoin:round; stroke-width:2; stroke-opacity:0.1; fill:none" points="147.478,1423.18 147.478,47.2441 "/>
<polyline clip-path="url(#clip282)" style="stroke:#000000; stroke-linecap:round; stroke-linejoin:round; stroke-width:2; stroke-opacity:0.1; fill:none" points="588.534,1423.18 588.534,47.2441 "/>
<polyline clip-path="url(#clip282)" style="stroke:#000000; stroke-linecap:round; stroke-linejoin:round; stroke-width:2; stroke-opacity:0.1; fill:none" points="1029.59,1423.18 1029.59,47.2441 "/>
<polyline clip-path="url(#clip282)" style="stroke:#000000; stroke-linecap:round; stroke-linejoin:round; stroke-width:2; stroke-opacity:0.1; fill:none" points="1470.64,1423.18 1470.64,47.2441 "/>
<polyline clip-path="url(#clip282)" style="stroke:#000000; stroke-linecap:round; stroke-linejoin:round; stroke-width:2; stroke-opacity:0.1; fill:none" points="1911.7,1423.18 1911.7,47.2441 "/>
<polyline clip-path="url(#clip282)" style="stroke:#000000; stroke-linecap:round; stroke-linejoin:round; stroke-width:2; stroke-opacity:0.1; fill:none" points="2352.76,1423.18 2352.76,47.2441 "/>
<polyline clip-path="url(#clip282)" style="stroke:#000000; stroke-linecap:round; stroke-linejoin:round; stroke-width:2; stroke-opacity:0.1; fill:none" points="147.478,1354.96 2352.76,1354.96 "/>
<polyline clip-path="url(#clip282)" style="stroke:#000000; stroke-linecap:round; stroke-linejoin:round; stroke-width:2; stroke-opacity:0.1; fill:none" points="147.478,1020.06 2352.76,1020.06 "/>
<polyline clip-path="url(#clip282)" style="stroke:#000000; stroke-linecap:round; stroke-linejoin:round; stroke-width:2; stroke-opacity:0.1; fill:none" points="147.478,685.161 2352.76,685.161 "/>
<polyline clip-path="url(#clip282)" style="stroke:#000000; stroke-linecap:round; stroke-linejoin:round; stroke-width:2; stroke-opacity:0.1; fill:none" points="147.478,350.26 2352.76,350.26 "/>
<polyline clip-path="url(#clip280)" style="stroke:#000000; stroke-linecap:round; stroke-linejoin:round; stroke-width:4; stroke-opacity:1; fill:none" points="147.478,1423.18 2352.76,1423.18 "/>
<polyline clip-path="url(#clip280)" style="stroke:#000000; stroke-linecap:round; stroke-linejoin:round; stroke-width:4; stroke-opacity:1; fill:none" points="147.478,1423.18 147.478,1404.28 "/>
<polyline clip-path="url(#clip280)" style="stroke:#000000; stroke-linecap:round; stroke-linejoin:round; stroke-width:4; stroke-opacity:1; fill:none" points="588.534,1423.18 588.534,1404.28 "/>
<polyline clip-path="url(#clip280)" style="stroke:#000000; stroke-linecap:round; stroke-linejoin:round; stroke-width:4; stroke-opacity:1; fill:none" points="1029.59,1423.18 1029.59,1404.28 "/>
<polyline clip-path="url(#clip280)" style="stroke:#000000; stroke-linecap:round; stroke-linejoin:round; stroke-width:4; stroke-opacity:1; fill:none" points="1470.64,1423.18 1470.64,1404.28 "/>
<polyline clip-path="url(#clip280)" style="stroke:#000000; stroke-linecap:round; stroke-linejoin:round; stroke-width:4; stroke-opacity:1; fill:none" points="1911.7,1423.18 1911.7,1404.28 "/>
<polyline clip-path="url(#clip280)" style="stroke:#000000; stroke-linecap:round; stroke-linejoin:round; stroke-width:4; stroke-opacity:1; fill:none" points="2352.76,1423.18 2352.76,1404.28 "/>
<path clip-path="url(#clip280)" d="M147.478 1454.1 Q143.867 1454.1 142.038 1457.66 Q140.233 1461.2 140.233 1468.33 Q140.233 1475.44 142.038 1479.01 Q143.867 1482.55 147.478 1482.55 Q151.112 1482.55 152.918 1479.01 Q154.746 1475.44 154.746 1468.33 Q154.746 1461.2 152.918 1457.66 Q151.112 1454.1 147.478 1454.1 M147.478 1450.39 Q153.288 1450.39 156.344 1455 Q159.422 1459.58 159.422 1468.33 Q159.422 1477.06 156.344 1481.67 Q153.288 1486.25 147.478 1486.25 Q141.668 1486.25 138.589 1481.67 Q135.534 1477.06 135.534 1468.33 Q135.534 1459.58 138.589 1455 Q141.668 1450.39 147.478 1450.39 Z" fill="#000000" fill-rule="nonzero" fill-opacity="1" /><path clip-path="url(#clip280)" d="M583.186 1481.64 L599.506 1481.64 L599.506 1485.58 L577.561 1485.58 L577.561 1481.64 Q580.223 1478.89 584.807 1474.26 Q589.413 1469.61 590.594 1468.27 Q592.839 1465.74 593.719 1464.01 Q594.621 1462.25 594.621 1460.56 Q594.621 1457.8 592.677 1456.07 Q590.756 1454.33 587.654 1454.33 Q585.455 1454.33 583.001 1455.09 Q580.571 1455.86 577.793 1457.41 L577.793 1452.69 Q580.617 1451.55 583.071 1450.97 Q585.524 1450.39 587.561 1450.39 Q592.932 1450.39 596.126 1453.08 Q599.32 1455.77 599.32 1460.26 Q599.32 1462.39 598.51 1464.31 Q597.723 1466.2 595.617 1468.8 Q595.038 1469.47 591.936 1472.69 Q588.834 1475.88 583.186 1481.64 Z" fill="#000000" fill-rule="nonzero" fill-opacity="1" /><path clip-path="url(#clip280)" d="M1032.6 1455.09 L1020.79 1473.54 L1032.6 1473.54 L1032.6 1455.09 M1031.37 1451.02 L1037.25 1451.02 L1037.25 1473.54 L1042.18 1473.54 L1042.18 1477.43 L1037.25 1477.43 L1037.25 1485.58 L1032.6 1485.58 L1032.6 1477.43 L1017 1477.43 L1017 1472.92 L1031.37 1451.02 Z" fill="#000000" fill-rule="nonzero" fill-opacity="1" /><path clip-path="url(#clip280)" d="M1471.05 1466.44 Q1467.9 1466.44 1466.05 1468.59 Q1464.22 1470.74 1464.22 1474.49 Q1464.22 1478.22 1466.05 1480.39 Q1467.9 1482.55 1471.05 1482.55 Q1474.2 1482.55 1476.03 1480.39 Q1477.88 1478.22 1477.88 1474.49 Q1477.88 1470.74 1476.03 1468.59 Q1474.2 1466.44 1471.05 1466.44 M1480.33 1451.78 L1480.33 1456.04 Q1478.57 1455.21 1476.77 1454.77 Q1474.98 1454.33 1473.23 1454.33 Q1468.6 1454.33 1466.14 1457.45 Q1463.71 1460.58 1463.36 1466.9 Q1464.73 1464.89 1466.79 1463.82 Q1468.85 1462.73 1471.33 1462.73 Q1476.54 1462.73 1479.55 1465.9 Q1482.58 1469.05 1482.58 1474.49 Q1482.58 1479.82 1479.43 1483.03 Q1476.28 1486.25 1471.05 1486.25 Q1465.05 1486.25 1461.88 1481.67 Q1458.71 1477.06 1458.71 1468.33 Q1458.71 1460.14 1462.6 1455.28 Q1466.49 1450.39 1473.04 1450.39 Q1474.8 1450.39 1476.58 1450.74 Q1478.39 1451.09 1480.33 1451.78 Z" fill="#000000" fill-rule="nonzero" fill-opacity="1" /><path clip-path="url(#clip280)" d="M1911.7 1469.17 Q1908.37 1469.17 1906.45 1470.95 Q1904.55 1472.73 1904.55 1475.86 Q1904.55 1478.98 1906.45 1480.77 Q1908.37 1482.55 1911.7 1482.55 Q1915.03 1482.55 1916.95 1480.77 Q1918.88 1478.96 1918.88 1475.86 Q1918.88 1472.73 1916.95 1470.95 Q1915.06 1469.17 1911.7 1469.17 M1907.02 1467.18 Q1904.02 1466.44 1902.33 1464.38 Q1900.66 1462.32 1900.66 1459.35 Q1900.66 1455.21 1903.6 1452.8 Q1906.56 1450.39 1911.7 1450.39 Q1916.86 1450.39 1919.8 1452.8 Q1922.74 1455.21 1922.74 1459.35 Q1922.74 1462.32 1921.05 1464.38 Q1919.39 1466.44 1916.4 1467.18 Q1919.78 1467.96 1921.65 1470.26 Q1923.55 1472.55 1923.55 1475.86 Q1923.55 1480.88 1920.47 1483.57 Q1917.42 1486.25 1911.7 1486.25 Q1905.98 1486.25 1902.9 1483.57 Q1899.85 1480.88 1899.85 1475.86 Q1899.85 1472.55 1901.75 1470.26 Q1903.64 1467.96 1907.02 1467.18 M1905.31 1459.79 Q1905.31 1462.48 1906.98 1463.98 Q1908.67 1465.49 1911.7 1465.49 Q1914.71 1465.49 1916.4 1463.98 Q1918.11 1462.48 1918.11 1459.79 Q1918.11 1457.11 1916.4 1455.6 Q1914.71 1454.1 1911.7 1454.1 Q1908.67 1454.1 1906.98 1455.6 Q1905.31 1457.11 1905.31 1459.79 Z" fill="#000000" fill-rule="nonzero" fill-opacity="1" /><path clip-path="url(#clip280)" d="M2327.44 1481.64 L2335.08 1481.64 L2335.08 1455.28 L2326.77 1456.95 L2326.77 1452.69 L2335.04 1451.02 L2339.71 1451.02 L2339.71 1481.64 L2347.35 1481.64 L2347.35 1485.58 L2327.44 1485.58 L2327.44 1481.64 Z" fill="#000000" fill-rule="nonzero" fill-opacity="1" /><path clip-path="url(#clip280)" d="M2366.8 1454.1 Q2363.18 1454.1 2361.36 1457.66 Q2359.55 1461.2 2359.55 1468.33 Q2359.55 1475.44 2361.36 1479.01 Q2363.18 1482.55 2366.8 1482.55 Q2370.43 1482.55 2372.23 1479.01 Q2374.06 1475.44 2374.06 1468.33 Q2374.06 1461.2 2372.23 1457.66 Q2370.43 1454.1 2366.8 1454.1 M2366.8 1450.39 Q2372.61 1450.39 2375.66 1455 Q2378.74 1459.58 2378.74 1468.33 Q2378.74 1477.06 2375.66 1481.67 Q2372.61 1486.25 2366.8 1486.25 Q2360.99 1486.25 2357.91 1481.67 Q2354.85 1477.06 2354.85 1468.33 Q2354.85 1459.58 2357.91 1455 Q2360.99 1450.39 2366.8 1450.39 Z" fill="#000000" fill-rule="nonzero" fill-opacity="1" /><path clip-path="url(#clip280)" d="M1249.18 1522.27 L1249.18 1532.4 L1261.24 1532.4 L1261.24 1536.95 L1249.18 1536.95 L1249.18 1556.3 Q1249.18 1560.66 1250.36 1561.9 Q1251.57 1563.14 1255.23 1563.14 L1261.24 1563.14 L1261.24 1568.04 L1255.23 1568.04 Q1248.45 1568.04 1245.87 1565.53 Q1243.29 1562.98 1243.29 1556.3 L1243.29 1536.95 L1238.99 1536.95 L1238.99 1532.4 L1243.29 1532.4 L1243.29 1522.27 L1249.18 1522.27 Z" fill="#000000" fill-rule="nonzero" fill-opacity="1" /><polyline clip-path="url(#clip280)" style="stroke:#000000; stroke-linecap:round; stroke-linejoin:round; stroke-width:4; stroke-opacity:1; fill:none" points="147.478,1423.18 147.478,47.2441 "/>
<polyline clip-path="url(#clip280)" style="stroke:#000000; stroke-linecap:round; stroke-linejoin:round; stroke-width:4; stroke-opacity:1; fill:none" points="147.478,1354.96 166.376,1354.96 "/>
<polyline clip-path="url(#clip280)" style="stroke:#000000; stroke-linecap:round; stroke-linejoin:round; stroke-width:4; stroke-opacity:1; fill:none" points="147.478,1020.06 166.376,1020.06 "/>
<polyline clip-path="url(#clip280)" style="stroke:#000000; stroke-linecap:round; stroke-linejoin:round; stroke-width:4; stroke-opacity:1; fill:none" points="147.478,685.161 166.376,685.161 "/>
<polyline clip-path="url(#clip280)" style="stroke:#000000; stroke-linecap:round; stroke-linejoin:round; stroke-width:4; stroke-opacity:1; fill:none" points="147.478,350.26 166.376,350.26 "/>
<path clip-path="url(#clip280)" d="M51.3625 1355.42 L81.0383 1355.42 L81.0383 1359.35 L51.3625 1359.35 L51.3625 1355.42 Z" fill="#000000" fill-rule="nonzero" fill-opacity="1" /><path clip-path="url(#clip280)" d="M95.1586 1368.31 L111.478 1368.31 L111.478 1372.24 L89.5336 1372.24 L89.5336 1368.31 Q92.1956 1365.55 96.7789 1360.92 Q101.385 1356.27 102.566 1354.93 Q104.811 1352.41 105.691 1350.67 Q106.594 1348.91 106.594 1347.22 Q106.594 1344.47 104.649 1342.73 Q102.728 1340.99 99.6261 1340.99 Q97.4271 1340.99 94.9734 1341.76 Q92.5428 1342.52 89.7651 1344.07 L89.7651 1339.35 Q92.5891 1338.22 95.0428 1337.64 Q97.4965 1337.06 99.5335 1337.06 Q104.904 1337.06 108.098 1339.74 Q111.293 1342.43 111.293 1346.92 Q111.293 1349.05 110.483 1350.97 Q109.696 1352.87 107.589 1355.46 Q107.01 1356.13 103.909 1359.35 Q100.807 1362.54 95.1586 1368.31 Z" fill="#000000" fill-rule="nonzero" fill-opacity="1" /><path clip-path="url(#clip280)" d="M50.9921 1020.51 L80.6679 1020.51 L80.6679 1024.45 L50.9921 1024.45 L50.9921 1020.51 Z" fill="#000000" fill-rule="nonzero" fill-opacity="1" /><path clip-path="url(#clip280)" d="M91.5706 1033.41 L99.2095 1033.41 L99.2095 1007.04 L90.8993 1008.71 L90.8993 1004.45 L99.1632 1002.78 L103.839 1002.78 L103.839 1033.41 L111.478 1033.41 L111.478 1037.34 L91.5706 1037.34 L91.5706 1033.41 Z" fill="#000000" fill-rule="nonzero" fill-opacity="1" /><path clip-path="url(#clip280)" d="M99.5335 670.96 Q95.9224 670.96 94.0937 674.525 Q92.2882 678.066 92.2882 685.196 Q92.2882 692.302 94.0937 695.867 Q95.9224 699.409 99.5335 699.409 Q103.168 699.409 104.973 695.867 Q106.802 692.302 106.802 685.196 Q106.802 678.066 104.973 674.525 Q103.168 670.96 99.5335 670.96 M99.5335 667.256 Q105.344 667.256 108.399 671.863 Q111.478 676.446 111.478 685.196 Q111.478 693.923 108.399 698.529 Q105.344 703.113 99.5335 703.113 Q93.7234 703.113 90.6447 698.529 Q87.5892 693.923 87.5892 685.196 Q87.5892 676.446 90.6447 671.863 Q93.7234 667.256 99.5335 667.256 Z" fill="#000000" fill-rule="nonzero" fill-opacity="1" /><path clip-path="url(#clip280)" d="M91.5706 363.605 L99.2095 363.605 L99.2095 337.239 L90.8993 338.906 L90.8993 334.647 L99.1632 332.98 L103.839 332.98 L103.839 363.605 L111.478 363.605 L111.478 367.54 L91.5706 367.54 L91.5706 363.605 Z" fill="#000000" fill-rule="nonzero" fill-opacity="1" /><polyline clip-path="url(#clip282)" style="stroke:#009af9; stroke-linecap:round; stroke-linejoin:round; stroke-width:4; stroke-opacity:1; fill:none" points="147.478,685.161 149.685,685.574 151.893,685.981 154.1,686.383 156.308,686.779 158.515,687.17 160.723,687.556 162.93,687.937 165.138,688.313 167.345,688.683 169.553,689.049 171.76,689.41 173.968,689.767 176.175,690.118 178.383,690.465 180.59,690.807 182.798,691.145 185.005,691.478 187.213,691.807 189.42,692.131 191.628,692.452 193.835,692.768 196.043,693.079 198.25,693.387 200.458,693.69 202.665,693.99 204.873,694.285 207.08,694.577 209.288,694.865 211.495,695.149 213.702,695.429 215.91,695.705 218.117,695.978 220.325,696.247 222.532,696.513 224.74,696.775 226.947,697.034 229.155,697.289 231.362,697.54 233.57,697.789 235.777,698.034 237.985,698.276 240.192,698.515 242.4,698.75 244.607,698.983 246.815,699.212 249.022,699.438 251.23,699.662 253.437,699.882 255.645,700.099 257.852,700.314 260.06,700.526 262.267,700.734 264.475,700.94 266.682,701.144 268.89,701.345 271.097,701.543 273.305,701.738 275.512,701.931 277.72,702.121 279.927,702.309 282.135,702.494 284.342,702.677 286.549,702.857 288.757,703.035 290.964,703.211 293.172,703.384 295.379,703.555 297.587,703.724 299.794,703.89 302.002,704.054 304.209,704.216 306.417,704.376 308.624,704.534 310.832,704.69 313.039,704.844 315.247,704.995 317.454,705.145 319.662,705.292 321.869,705.438 324.077,705.582 326.284,705.724 328.492,705.864 330.699,706.002 332.907,706.138 335.114,706.273 337.322,706.405 339.529,706.536 341.737,706.665 343.944,706.793 346.152,706.919 348.359,707.043 350.567,707.165 352.774,707.286 354.982,707.405 357.189,707.523 359.397,707.639 361.604,707.754 363.811,707.867 366.019,707.978 368.226,707.988 370.434,707.11 372.641,705.285 374.849,702.646 377.056,699.315 379.264,695.407 381.471,691.029 383.679,686.279 385.886,681.247 388.094,676.016 390.301,670.66 392.509,665.245 394.716,659.828 396.924,654.46 399.131,649.182 401.339,644.028 403.546,639.022 405.754,634.182 407.961,629.517 410.169,625.028 412.376,620.708 414.584,616.541 416.791,612.504 418.999,608.566 421.206,604.685 423.414,600.816 425.621,596.9 427.829,592.974 430.036,589.099 432.244,585.276 434.451,581.503 436.659,577.78 438.866,574.107 441.073,570.483 443.281,566.906 445.488,563.377 447.696,559.895 449.903,556.459 452.111,553.068 454.318,549.723 456.526,546.421 458.733,543.164 460.941,539.949 463.148,536.777 465.356,533.648 467.563,530.559 469.771,527.512 471.978,524.505 474.186,521.538 476.393,518.61 478.601,515.721 480.808,512.87 483.016,510.058 485.223,507.282 487.431,504.543 489.638,501.841 491.846,499.175 494.053,496.544 496.261,493.947 498.468,491.386 500.676,488.858 502.883,486.364 505.091,483.903 507.298,481.474 509.506,479.078 511.713,476.714 513.921,474.381 516.128,472.078 518.335,469.807 520.543,467.565 522.75,465.353 524.958,463.171 527.165,461.017 529.373,458.892 531.58,456.795 533.788,454.726 535.995,452.684 538.203,450.669 540.41,448.681 542.618,446.72 544.825,444.784 547.033,442.874 549.24,440.989 551.448,439.13 553.655,437.295 555.863,435.484 558.07,433.697 560.278,431.934 562.485,430.195 564.693,428.478 566.9,426.784 569.108,425.113 571.315,423.464 573.523,421.836 575.73,420.231 577.938,418.646 580.145,417.083 582.353,416.808 584.56,419.048 586.768,423.487 588.975,429.828 591.182,437.788 593.39,447.107 595.597,457.538 597.805,468.856 600.012,480.851 602.22,493.333 604.427,506.129 606.635,519.085 608.842,532.063 611.05,544.946 613.257,557.633 615.465,570.04 617.672,582.103 619.88,593.775 622.087,605.029 624.295,615.852 626.502,626.253 628.71,636.257 630.917,645.907 633.125,655.264 635.332,664.407 637.54,673.435 639.747,682.462 641.955,691.621 644.162,700.804 646.37,709.865 648.577,718.806 650.785,727.628 652.992,736.333 655.2,744.923 657.407,753.399 659.615,761.763 661.822,770.016 664.03,778.159 666.237,786.194 668.444,794.123 670.652,801.947 672.859,809.667 675.067,817.285 677.274,824.802 679.482,832.219 681.689,839.538 683.897,846.76 686.104,853.886 688.312,860.918 690.519,867.857 692.727,874.703 694.934,881.459 697.142,888.125 699.349,894.703 701.557,901.193 703.764,907.598 705.972,913.917 708.179,920.152 710.387,926.305 712.594,932.376 714.802,938.367 717.009,944.278 719.217,950.111 721.424,955.866 723.632,961.545 725.839,967.149 728.047,972.678 730.254,978.135 732.462,983.518 734.669,988.831 736.877,994.073 739.084,999.246 741.292,1004.35 743.499,1009.39 745.706,1014.36 747.914,1019.26 750.121,1024.1 752.329,1028.87 754.536,1033.58 756.744,1038.23 758.951,1042.82 761.159,1047.35 763.366,1051.81 765.574,1056.22 767.781,1060.57 769.989,1064.86 772.196,1069.1 774.404,1073.27 776.611,1077.4 778.819,1081.46 781.026,1085.48 783.234,1089.44 785.441,1093.35 787.649,1097.2 789.856,1101.01 792.064,1104.77 794.271,1108.47 796.479,1112.13 798.686,1115.73 800.894,1119.29 803.101,1122.81 805.309,1124.97 807.516,1122.74 809.724,1116.78 811.931,1107.87 814.139,1096.71 816.346,1083.92 818.553,1070.07 820.761,1055.62 822.968,1040.97 825.176,1026.46 827.383,1012.33 829.591,998.755 831.798,985.833 834.006,973.587 836.213,961.964 838.421,950.835 840.628,939.994 842.836,929.163 845.043,918.072 847.251,907.043 849.458,896.16 851.666,885.421 853.873,874.825 856.081,864.369 858.288,854.052 860.496,843.872 862.703,833.826 864.911,823.914 867.118,814.133 869.326,804.482 871.533,794.958 873.741,785.561 875.948,776.288 878.156,767.139 880.363,758.11 882.571,749.202 884.778,740.411 886.986,731.737 889.193,723.178 891.401,714.733 893.608,706.4 895.815,698.177 898.023,690.063 900.23,682.057 902.438,674.157 904.645,666.362 906.853,658.671 909.06,651.081 911.268,643.592 913.475,636.202 915.683,628.91 917.89,621.715 920.098,614.615 922.305,607.609 924.513,600.696 926.72,593.875 928.928,587.144 931.135,580.502 933.343,573.949 935.55,567.482 937.758,561.101 939.965,554.804 942.173,548.591 944.38,542.461 946.588,536.412 948.795,530.442 951.003,524.552 953.21,518.741 955.418,513.006 957.625,507.347 959.833,501.763 962.04,496.254 964.248,490.817 966.455,485.452 968.663,480.159 970.87,474.936 973.077,469.782 975.285,464.696 977.492,459.678 979.7,454.726 981.907,449.84 984.115,445.018 986.322,440.261 988.53,435.567 990.737,430.934 992.945,426.364 995.152,421.854 997.36,417.403 999.567,413.012 1001.77,408.679 1003.98,404.403 1006.19,400.184 1008.4,396.022 1010.6,391.914 1012.81,387.86 1015.02,383.861 1017.23,379.914 1019.43,376.02 1021.64,372.177 1023.85,368.386 1026.06,364.693 1028.26,361.915 1030.47,360.244 1032.68,359.553 1034.89,359.722 1037.09,360.637 1039.3,362.192 1041.51,364.286 1043.72,366.826 1045.92,369.726 1048.13,372.905 1050.34,376.29 1052.55,379.814 1054.75,383.417 1056.96,387.045 1059.17,390.652 1061.38,394.198 1063.58,397.649 1065.79,400.979 1068,404.167 1070.21,407.2 1072.41,410.072 1074.62,412.781 1076.83,415.336 1079.04,417.748 1081.24,420.039 1083.45,422.234 1085.66,424.366 1087.87,426.476 1090.07,428.611 1092.28,430.823 1094.49,433.091 1096.7,435.329 1098.9,437.538 1101.11,439.717 1103.32,441.868 1105.53,443.99 1107.73,446.083 1109.94,448.149 1112.15,450.188 1114.36,452.2 1116.56,454.185 1118.77,456.143 1120.98,458.076 1123.19,459.983 1125.39,461.865 1127.6,463.721 1129.81,465.554 1132.02,467.361 1134.22,469.146 1136.43,470.906 1138.64,472.643 1140.85,474.358 1143.05,476.049 1145.26,477.718 1147.47,479.365 1149.68,480.991 1151.88,482.594 1154.09,484.177 1156.3,485.738 1158.51,487.279 1160.71,488.799 1162.92,490.299 1165.13,491.779 1167.34,493.24 1169.54,494.681 1171.75,496.103 1173.96,497.505 1176.17,498.89 1178.37,500.256 1180.58,501.604 1182.79,502.933 1185,504.246 1187.2,505.54 1189.41,506.818 1191.62,508.078 1193.83,509.322 1196.03,510.55 1198.24,511.761 1200.45,512.956 1202.66,514.135 1204.86,515.298 1207.07,516.446 1209.28,517.579 1211.49,518.697 1213.69,519.8 1215.9,520.888 1218.11,521.962 1220.32,523.022 1222.52,524.067 1224.73,525.099 1226.94,526.117 1229.15,527.122 1231.35,528.114 1233.56,529.092 1235.77,530.057 1237.98,531.099 1240.18,532.365 1242.39,533.829 1244.6,535.462 1246.81,537.238 1249.01,539.131 1251.22,541.118 1253.43,543.176 1255.64,545.285 1257.84,547.429 1260.05,549.589 1262.26,551.752 1264.47,553.905 1266.67,556.037 1268.88,558.138 1271.09,560.201 1273.3,562.221 1275.5,564.193 1277.71,566.115 1279.92,567.987 1282.13,569.81 1284.33,571.588 1286.54,573.326 1288.75,575.03 1290.96,576.709 1293.16,578.373 1295.37,580.035 1297.58,581.691 1299.79,583.325 1301.99,584.937 1304.2,586.528 1306.41,588.098 1308.62,589.647 1310.82,591.176 1313.03,592.684 1315.24,594.173 1317.45,595.641 1319.65,597.09 1321.86,598.52 1324.07,599.931 1326.28,601.324 1328.48,602.697 1330.69,604.053 1332.9,605.39 1335.11,606.71 1337.31,608.013 1339.52,609.298 1341.73,610.566 1343.94,611.818 1346.14,613.052 1348.35,614.271 1350.56,615.473 1352.76,616.66 1354.97,617.831 1357.18,618.986 1359.39,620.126 1361.59,621.251 1363.8,622.361 1366.01,623.456 1368.22,624.536 1370.42,625.603 1372.63,626.655 1374.84,627.693 1377.05,628.717 1379.25,629.728 1381.46,630.725 1383.67,631.709 1385.88,632.68 1388.08,633.638 1390.29,634.584 1392.5,635.516 1394.71,636.437 1396.91,637.345 1399.12,638.241 1401.33,639.125 1403.54,639.997 1405.74,640.858 1407.95,641.708 1410.16,642.546 1412.37,643.373 1414.57,644.189 1416.78,644.994 1418.99,645.789 1421.2,646.573 1423.4,647.346 1425.61,648.11 1427.82,648.863 1430.03,649.606 1432.23,650.34 1434.44,651.064 1436.65,651.778 1438.86,652.483 1441.06,653.178 1443.27,653.865 1445.48,654.574 1447.69,655.314 1449.89,656.049 1452.1,656.752 1454.31,657.401 1456.52,657.98 1458.72,658.479 1460.93,658.894 1463.14,659.227 1465.35,659.487 1467.55,659.687 1469.76,659.847 1471.97,659.994 1474.18,660.159 1476.38,660.335 1478.59,660.507 1480.8,660.678 1483.01,660.846 1485.21,661.012 1487.42,661.176 1489.63,661.338 1491.84,661.497 1494.04,661.655 1496.25,661.81 1498.46,661.964 1500.67,662.115 1502.87,662.264 1505.08,662.411 1507.29,662.557 1509.5,662.7 1511.7,662.842 1513.91,662.981 1516.12,663.119 1518.33,663.255 1520.53,663.389 1522.74,663.522 1524.95,663.652 1527.16,663.781 1529.36,663.908 1531.57,664.034 1533.78,664.158 1535.99,664.28 1538.19,664.4 1540.4,664.519 1542.61,664.637 1544.82,664.752 1547.02,664.867 1549.23,664.98 1551.44,665.091 1553.65,665.201 1555.85,665.309 1558.06,665.416 1560.27,665.521 1562.48,665.625 1564.68,665.728 1566.89,665.829 1569.1,665.929 1571.31,666.028 1573.51,666.125 1575.72,666.221 1577.93,666.316 1580.14,666.41 1582.34,666.502 1584.55,666.593 1586.76,666.683 1588.97,666.772 1591.17,666.859 1593.38,666.945 1595.59,667.031 1597.8,667.115 1600,667.198 1602.21,667.28 1604.42,667.36 1606.63,667.44 1608.83,667.519 1611.04,667.596 1613.25,667.673 1615.46,667.748 1617.66,667.823 1619.87,667.897 1622.08,667.969 1624.29,668.041 1626.49,668.112 1628.7,668.181 1630.91,668.25 1633.12,668.318 1635.32,668.385 1637.53,668.451 1639.74,668.516 1641.95,668.581 1644.15,668.644 1646.36,668.707 1648.57,668.769 1650.78,668.83 1652.98,668.89 1655.19,668.949 1657.4,669.008 1659.61,669.066 1661.81,669.123 1664.02,669.179 1666.23,669.235 1668.44,669.29 1670.64,669.344 1672.85,669.397 1675.06,669.45 1677.27,669.502 1679.47,669.553 1681.68,669.604 1683.89,669.654 1686.1,669.703 1688.3,669.718 1690.51,669.375 1692.72,668.636 1694.93,667.55 1697.13,666.163 1699.34,664.518 1701.55,662.656 1703.76,660.615 1705.96,658.431 1708.17,656.136 1710.38,653.76 1712.59,651.331 1714.79,648.873 1717,646.41 1719.21,643.959 1721.42,641.539 1723.62,639.162 1725.83,636.841 1728.04,634.585 1730.25,632.399 1732.45,630.288 1734.66,628.251 1736.87,626.287 1739.07,624.392 1741.28,622.559 1743.49,620.777 1745.7,619.034 1747.9,617.316 1750.11,615.603 1752.32,613.877 1754.53,612.136 1756.73,610.417 1758.94,608.721 1761.15,607.047 1763.36,605.396 1765.56,603.766 1767.77,602.158 1769.98,600.571 1772.19,599.005 1774.39,597.46 1776.6,595.936 1778.81,594.432 1781.02,592.947 1783.22,591.483 1785.43,590.037 1787.64,588.611 1789.85,587.204 1792.05,585.815 1794.26,584.445 1796.47,583.093 1798.68,581.759 1800.88,580.442 1803.09,579.143 1805.3,577.862 1807.51,576.597 1809.71,575.349 1811.92,574.117 1814.13,572.902 1816.34,571.703 1818.54,570.52 1820.75,569.353 1822.96,568.201 1825.17,567.064 1827.37,565.943 1829.58,564.836 1831.79,563.745 1834,562.667 1836.2,561.604 1838.41,560.555 1840.62,559.52 1842.83,558.499 1845.03,557.491 1847.24,556.497 1849.45,555.515 1851.66,554.547 1853.86,553.592 1856.07,552.649 1858.28,551.719 1860.49,550.801 1862.69,549.895 1864.9,549.001 1867.11,548.119 1869.32,547.249 1871.52,546.39 1873.73,545.543 1875.94,544.707 1878.15,543.882 1880.35,543.068 1882.56,542.264 1884.77,541.472 1886.98,540.689 1889.18,539.918 1891.39,539.156 1893.6,538.405 1895.81,537.663 1898.01,536.931 1900.22,536.209 1902.43,535.497 1904.64,534.794 1906.84,534.1 1909.05,533.416 1911.26,532.961 1913.47,532.953 1915.67,533.346 1917.88,534.093 1920.09,535.149 1922.3,536.475 1924.5,538.03 1926.71,539.779 1928.92,541.686 1931.13,543.721 1933.33,545.852 1935.54,548.054 1937.75,550.301 1939.96,552.57 1942.16,554.842 1944.37,557.098 1946.58,559.324 1948.79,561.505 1950.99,563.631 1953.2,565.694 1955.41,567.688 1957.62,569.609 1959.82,571.455 1962.03,573.227 1964.24,574.929 1966.45,576.566 1968.65,578.147 1970.86,579.682 1973.07,581.183 1975.28,582.665 1977.48,584.147 1979.69,585.647 1981.9,587.17 1984.11,588.677 1986.31,590.164 1988.52,591.631 1990.73,593.079 1992.94,594.507 1995.14,595.917 1997.35,597.307 1999.56,598.68 2001.77,600.034 2003.97,601.37 2006.18,602.689 2008.39,603.99 2010.6,605.273 2012.8,606.54 2015.01,607.79 2017.22,609.024 2019.43,610.241 2021.63,611.442 2023.84,612.627 2026.05,613.796 2028.26,614.95 2030.46,616.089 2032.67,617.213 2034.88,618.321 2037.09,619.415 2039.29,620.495 2041.5,621.56 2043.71,622.611 2045.92,623.648 2048.12,624.671 2050.33,625.681 2052.54,626.677 2054.75,627.66 2056.95,628.63 2059.16,629.587 2061.37,630.531 2063.58,631.463 2065.78,632.382 2067.99,633.29 2070.2,634.185 2072.41,635.068 2074.61,635.94 2076.82,636.8 2079.03,637.648 2081.24,638.486 2083.44,639.312 2085.65,640.127 2087.86,640.932 2090.07,641.726 2092.27,642.509 2094.48,643.282 2096.69,644.045 2098.9,644.797 2101.1,645.54 2103.31,646.273 2105.52,646.996 2107.73,647.709 2109.93,648.414 2112.14,649.108 2114.35,649.794 2116.55,650.47 2118.76,651.138 2120.97,651.797 2123.18,652.447 2125.38,653.088 2127.59,653.721 2129.8,654.345 2132.01,654.784 2134.21,654.431 2136.42,653.322 2138.63,651.548 2140.84,649.198 2143.04,646.352 2145.25,643.089 2147.46,639.481 2149.67,635.595 2151.87,631.493 2154.08,627.233 2156.29,622.867 2158.5,618.442 2160.7,614 2162.91,609.579 2165.12,605.211 2167.33,600.923 2169.53,596.738 2171.74,592.673 2173.95,588.739 2176.16,584.946 2178.36,581.293 2180.57,577.78 2182.78,574.398 2184.99,571.134 2187.19,567.971 2189.4,564.886 2191.61,561.851 2193.82,558.833 2196.02,555.796 2198.23,552.712 2200.44,549.653 2202.65,546.635 2204.85,543.658 2207.06,540.719 2209.27,537.82 2211.48,534.959 2213.68,532.136 2215.89,529.35 2218.1,526.602 2220.31,523.889 2222.51,521.213 2224.72,518.572 2226.93,515.967 2229.14,513.395 2231.34,510.858 2233.55,508.354 2235.76,505.884 2237.97,503.446 2240.17,501.04 2242.38,498.667 2244.59,496.325 2246.8,494.013 2249,491.733 2251.21,489.483 2253.42,487.262 2255.63,485.072 2257.83,482.91 2260.04,480.777 2262.25,478.672 2264.46,476.595 2266.66,474.546 2268.87,472.524 2271.08,470.528 2273.29,468.56 2275.49,466.617 2277.7,464.7 2279.91,462.809 2282.12,460.943 2284.32,459.101 2286.53,457.284 2288.74,455.491 2290.95,453.722 2293.15,451.977 2295.36,450.254 2297.57,448.554 2299.78,446.877 2301.98,445.222 2304.19,443.589 2306.4,441.978 2308.61,440.388 2310.81,438.819 2313.02,437.27 2315.23,435.743 2317.44,434.235 2319.64,432.747 2321.85,431.28 2324.06,429.831 2326.27,428.402 2328.47,426.992 2330.68,425.6 2332.89,424.227 2335.1,422.872 2337.3,421.535 2339.51,420.216 2341.72,418.914 2343.93,417.63 2346.13,416.362 2348.34,415.112 2350.55,413.877 2352.76,412.66 "/>
<polyline clip-path="url(#clip282)" style="stroke:#e26f46; stroke-linecap:round; stroke-linejoin:round; stroke-width:4; stroke-opacity:1; fill:none" points="147.478,716.28 149.685,716.28 151.893,716.28 154.1,716.28 156.308,716.28 158.515,716.28 160.723,716.28 162.93,716.28 165.138,716.28 167.345,716.28 169.553,716.28 171.76,716.28 173.968,716.28 176.175,716.28 178.383,716.28 180.59,716.28 182.798,716.28 185.005,716.28 187.213,716.28 189.42,716.28 191.628,716.28 193.835,716.28 196.043,716.28 198.25,716.28 200.458,716.28 202.665,716.28 204.873,716.28 207.08,716.28 209.288,716.28 211.495,716.28 213.702,716.28 215.91,716.28 218.117,716.28 220.325,716.28 222.532,716.28 224.74,716.28 226.947,716.28 229.155,716.28 231.362,716.28 233.57,716.28 235.777,716.28 237.985,716.28 240.192,716.28 242.4,716.28 244.607,716.28 246.815,716.28 249.022,716.28 251.23,716.28 253.437,716.28 255.645,716.28 257.852,716.28 260.06,716.28 262.267,716.28 264.475,716.28 266.682,716.28 268.89,716.28 271.097,716.28 273.305,716.28 275.512,716.28 277.72,716.28 279.927,716.28 282.135,716.28 284.342,716.28 286.549,716.28 288.757,716.28 290.964,716.28 293.172,716.28 295.379,716.28 297.587,716.28 299.794,716.28 302.002,716.28 304.209,716.28 306.417,716.28 308.624,716.28 310.832,716.28 313.039,716.28 315.247,716.28 317.454,716.28 319.662,716.28 321.869,716.28 324.077,716.28 326.284,716.28 328.492,716.28 330.699,716.28 332.907,716.28 335.114,716.28 337.322,716.28 339.529,716.28 341.737,716.28 343.944,716.28 346.152,716.28 348.359,716.28 350.567,716.28 352.774,716.28 354.982,716.28 357.189,716.28 359.397,716.28 361.604,716.28 363.811,716.28 366.019,716.28 368.226,300.722 370.434,300.722 372.641,300.722 374.849,300.722 377.056,300.722 379.264,300.722 381.471,300.722 383.679,300.722 385.886,300.722 388.094,300.722 390.301,300.722 392.509,300.722 394.716,300.722 396.924,300.722 399.131,300.722 401.339,300.722 403.546,300.722 405.754,300.722 407.961,300.722 410.169,300.722 412.376,300.722 414.584,300.722 416.791,300.722 418.999,300.722 421.206,300.722 423.414,300.722 425.621,300.722 427.829,300.722 430.036,300.722 432.244,300.722 434.451,300.722 436.659,300.722 438.866,300.722 441.073,300.722 443.281,300.722 445.488,300.722 447.696,300.722 449.903,300.722 452.111,300.722 454.318,300.722 456.526,300.722 458.733,300.722 460.941,300.722 463.148,300.722 465.356,300.722 467.563,300.722 469.771,300.722 471.978,300.722 474.186,300.722 476.393,300.722 478.601,300.722 480.808,300.722 483.016,300.722 485.223,300.722 487.431,300.722 489.638,300.722 491.846,300.722 494.053,300.722 496.261,300.722 498.468,300.722 500.676,300.722 502.883,300.722 505.091,300.722 507.298,300.722 509.506,300.722 511.713,300.722 513.921,300.722 516.128,300.722 518.335,300.722 520.543,300.722 522.75,300.722 524.958,300.722 527.165,300.722 529.373,300.722 531.58,300.722 533.788,300.722 535.995,300.722 538.203,300.722 540.41,300.722 542.618,300.722 544.825,300.722 547.033,300.722 549.24,300.722 551.448,300.722 553.655,300.722 555.863,300.722 558.07,300.722 560.278,300.722 562.485,300.722 564.693,300.722 566.9,300.722 569.108,300.722 571.315,300.722 573.523,300.722 575.73,300.722 577.938,300.722 580.145,300.722 582.353,300.722 584.56,300.722 586.768,300.722 588.975,1384.24 591.182,1384.24 593.39,1384.24 595.597,1384.24 597.805,1384.24 600.012,1384.24 602.22,1384.24 604.427,1384.24 606.635,1384.24 608.842,1384.24 611.05,1384.24 613.257,1384.24 615.465,1384.24 617.672,1384.24 619.88,1384.24 622.087,1384.24 624.295,1384.24 626.502,1384.24 628.71,1384.24 630.917,1384.24 633.125,1384.24 635.332,1384.24 637.54,1384.24 639.747,1384.24 641.955,1384.24 644.162,1384.24 646.37,1384.24 648.577,1384.24 650.785,1384.24 652.992,1384.24 655.2,1384.24 657.407,1384.24 659.615,1384.24 661.822,1384.24 664.03,1384.24 666.237,1384.24 668.444,1384.24 670.652,1384.24 672.859,1384.24 675.067,1384.24 677.274,1384.24 679.482,1384.24 681.689,1384.24 683.897,1384.24 686.104,1384.24 688.312,1384.24 690.519,1384.24 692.727,1384.24 694.934,1384.24 697.142,1384.24 699.349,1384.24 701.557,1384.24 703.764,1384.24 705.972,1384.24 708.179,1384.24 710.387,1384.24 712.594,1384.24 714.802,1384.24 717.009,1384.24 719.217,1384.24 721.424,1384.24 723.632,1384.24 725.839,1384.24 728.047,1384.24 730.254,1384.24 732.462,1384.24 734.669,1384.24 736.877,1384.24 739.084,1384.24 741.292,1384.24 743.499,1384.24 745.706,1384.24 747.914,1384.24 750.121,1384.24 752.329,1384.24 754.536,1384.24 756.744,1384.24 758.951,1384.24 761.159,1384.24 763.366,1384.24 765.574,1384.24 767.781,1384.24 769.989,1384.24 772.196,1384.24 774.404,1384.24 776.611,1384.24 778.819,1384.24 781.026,1384.24 783.234,1384.24 785.441,1384.24 787.649,1384.24 789.856,1384.24 792.064,1384.24 794.271,1384.24 796.479,1384.24 798.686,1384.24 800.894,1384.24 803.101,1384.24 805.309,1384.24 807.516,1384.24 809.724,86.1857 811.931,86.1857 814.139,86.1857 816.346,86.1857 818.553,86.1857 820.761,86.1857 822.968,86.1857 825.176,86.1857 827.383,86.1857 829.591,86.1857 831.798,86.1857 834.006,86.1857 836.213,86.1857 838.421,86.1857 840.628,86.1857 842.836,86.1857 845.043,86.1857 847.251,86.1857 849.458,86.1857 851.666,86.1857 853.873,86.1857 856.081,86.1857 858.288,86.1857 860.496,86.1857 862.703,86.1857 864.911,86.1857 867.118,86.1857 869.326,86.1857 871.533,86.1857 873.741,86.1857 875.948,86.1857 878.156,86.1857 880.363,86.1857 882.571,86.1857 884.778,86.1857 886.986,86.1857 889.193,86.1857 891.401,86.1857 893.608,86.1857 895.815,86.1857 898.023,86.1857 900.23,86.1857 902.438,86.1857 904.645,86.1857 906.853,86.1857 909.06,86.1857 911.268,86.1857 913.475,86.1857 915.683,86.1857 917.89,86.1857 920.098,86.1857 922.305,86.1857 924.513,86.1857 926.72,86.1857 928.928,86.1857 931.135,86.1857 933.343,86.1857 935.55,86.1857 937.758,86.1857 939.965,86.1857 942.173,86.1857 944.38,86.1857 946.588,86.1857 948.795,86.1857 951.003,86.1857 953.21,86.1857 955.418,86.1857 957.625,86.1857 959.833,86.1857 962.04,86.1857 964.248,86.1857 966.455,86.1857 968.663,86.1857 970.87,86.1857 973.077,86.1857 975.285,86.1857 977.492,86.1857 979.7,86.1857 981.907,86.1857 984.115,86.1857 986.322,86.1857 988.53,86.1857 990.737,86.1857 992.945,86.1857 995.152,86.1857 997.36,86.1857 999.567,86.1857 1001.77,86.1857 1003.98,86.1857 1006.19,86.1857 1008.4,86.1857 1010.6,86.1857 1012.81,86.1857 1015.02,86.1857 1017.23,86.1857 1019.43,86.1857 1021.64,86.1857 1023.85,86.1857 1026.06,86.1857 1028.26,86.1857 1030.47,601.916 1032.68,601.916 1034.89,601.916 1037.09,601.916 1039.3,601.916 1041.51,601.916 1043.72,601.916 1045.92,601.916 1048.13,601.916 1050.34,601.916 1052.55,601.916 1054.75,601.916 1056.96,601.916 1059.17,601.916 1061.38,601.916 1063.58,601.916 1065.79,601.916 1068,601.916 1070.21,601.916 1072.41,601.916 1074.62,601.916 1076.83,601.916 1079.04,601.916 1081.24,601.916 1083.45,601.916 1085.66,601.916 1087.87,601.916 1090.07,601.916 1092.28,601.916 1094.49,601.916 1096.7,601.916 1098.9,601.916 1101.11,601.916 1103.32,601.916 1105.53,601.916 1107.73,601.916 1109.94,601.916 1112.15,601.916 1114.36,601.916 1116.56,601.916 1118.77,601.916 1120.98,601.916 1123.19,601.916 1125.39,601.916 1127.6,601.916 1129.81,601.916 1132.02,601.916 1134.22,601.916 1136.43,601.916 1138.64,601.916 1140.85,601.916 1143.05,601.916 1145.26,601.916 1147.47,601.916 1149.68,601.916 1151.88,601.916 1154.09,601.916 1156.3,601.916 1158.51,601.916 1160.71,601.916 1162.92,601.916 1165.13,601.916 1167.34,601.916 1169.54,601.916 1171.75,601.916 1173.96,601.916 1176.17,601.916 1178.37,601.916 1180.58,601.916 1182.79,601.916 1185,601.916 1187.2,601.916 1189.41,601.916 1191.62,601.916 1193.83,601.916 1196.03,601.916 1198.24,601.916 1200.45,601.916 1202.66,601.916 1204.86,601.916 1207.07,601.916 1209.28,601.916 1211.49,601.916 1213.69,601.916 1215.9,601.916 1218.11,601.916 1220.32,601.916 1222.52,601.916 1224.73,601.916 1226.94,601.916 1229.15,601.916 1231.35,601.916 1233.56,601.916 1235.77,601.916 1237.98,601.916 1240.18,601.916 1242.39,601.916 1244.6,601.916 1246.81,601.916 1249.01,601.916 1251.22,704.944 1253.43,704.944 1255.64,704.944 1257.84,704.944 1260.05,704.944 1262.26,704.944 1264.47,704.944 1266.67,704.944 1268.88,704.944 1271.09,704.944 1273.3,704.944 1275.5,704.944 1277.71,704.944 1279.92,704.944 1282.13,704.944 1284.33,704.944 1286.54,704.944 1288.75,704.944 1290.96,704.944 1293.16,704.944 1295.37,704.944 1297.58,704.944 1299.79,704.944 1301.99,704.944 1304.2,704.944 1306.41,704.944 1308.62,704.944 1310.82,704.944 1313.03,704.944 1315.24,704.944 1317.45,704.944 1319.65,704.944 1321.86,704.944 1324.07,704.944 1326.28,704.944 1328.48,704.944 1330.69,704.944 1332.9,704.944 1335.11,704.944 1337.31,704.944 1339.52,704.944 1341.73,704.944 1343.94,704.944 1346.14,704.944 1348.35,704.944 1350.56,704.944 1352.76,704.944 1354.97,704.944 1357.18,704.944 1359.39,704.944 1361.59,704.944 1363.8,704.944 1366.01,704.944 1368.22,704.944 1370.42,704.944 1372.63,704.944 1374.84,704.944 1377.05,704.944 1379.25,704.944 1381.46,704.944 1383.67,704.944 1385.88,704.944 1388.08,704.944 1390.29,704.944 1392.5,704.944 1394.71,704.944 1396.91,704.944 1399.12,704.944 1401.33,704.944 1403.54,704.944 1405.74,704.944 1407.95,704.944 1410.16,704.944 1412.37,704.944 1414.57,704.944 1416.78,704.944 1418.99,704.944 1421.2,704.944 1423.4,704.944 1425.61,704.944 1427.82,704.944 1430.03,704.944 1432.23,704.944 1434.44,704.944 1436.65,704.944 1438.86,704.944 1441.06,704.944 1443.27,704.944 1445.48,704.944 1447.69,704.944 1449.89,704.944 1452.1,704.944 1454.31,704.944 1456.52,704.944 1458.72,704.944 1460.93,704.944 1463.14,704.944 1465.35,704.944 1467.55,704.944 1469.76,704.944 1471.97,673.372 1474.18,673.372 1476.38,673.372 1478.59,673.372 1480.8,673.372 1483.01,673.372 1485.21,673.372 1487.42,673.372 1489.63,673.372 1491.84,673.372 1494.04,673.372 1496.25,673.372 1498.46,673.372 1500.67,673.372 1502.87,673.372 1505.08,673.372 1507.29,673.372 1509.5,673.372 1511.7,673.372 1513.91,673.372 1516.12,673.372 1518.33,673.372 1520.53,673.372 1522.74,673.372 1524.95,673.372 1527.16,673.372 1529.36,673.372 1531.57,673.372 1533.78,673.372 1535.99,673.372 1538.19,673.372 1540.4,673.372 1542.61,673.372 1544.82,673.372 1547.02,673.372 1549.23,673.372 1551.44,673.372 1553.65,673.372 1555.85,673.372 1558.06,673.372 1560.27,673.372 1562.48,673.372 1564.68,673.372 1566.89,673.372 1569.1,673.372 1571.31,673.372 1573.51,673.372 1575.72,673.372 1577.93,673.372 1580.14,673.372 1582.34,673.372 1584.55,673.372 1586.76,673.372 1588.97,673.372 1591.17,673.372 1593.38,673.372 1595.59,673.372 1597.8,673.372 1600,673.372 1602.21,673.372 1604.42,673.372 1606.63,673.372 1608.83,673.372 1611.04,673.372 1613.25,673.372 1615.46,673.372 1617.66,673.372 1619.87,673.372 1622.08,673.372 1624.29,673.372 1626.49,673.372 1628.7,673.372 1630.91,673.372 1633.12,673.372 1635.32,673.372 1637.53,673.372 1639.74,673.372 1641.95,673.372 1644.15,673.372 1646.36,673.372 1648.57,673.372 1650.78,673.372 1652.98,673.372 1655.19,673.372 1657.4,673.372 1659.61,673.372 1661.81,673.372 1664.02,673.372 1666.23,673.372 1668.44,673.372 1670.64,673.372 1672.85,673.372 1675.06,673.372 1677.27,673.372 1679.47,673.372 1681.68,673.372 1683.89,673.372 1686.1,673.372 1688.3,673.372 1690.51,673.372 1692.72,482.475 1694.93,482.475 1697.13,482.475 1699.34,482.475 1701.55,482.475 1703.76,482.475 1705.96,482.475 1708.17,482.475 1710.38,482.475 1712.59,482.475 1714.79,482.475 1717,482.475 1719.21,482.475 1721.42,482.475 1723.62,482.475 1725.83,482.475 1728.04,482.475 1730.25,482.475 1732.45,482.475 1734.66,482.475 1736.87,482.475 1739.07,482.475 1741.28,482.475 1743.49,482.475 1745.7,482.475 1747.9,482.475 1750.11,482.475 1752.32,482.475 1754.53,482.475 1756.73,482.475 1758.94,482.475 1761.15,482.475 1763.36,482.475 1765.56,482.475 1767.77,482.475 1769.98,482.475 1772.19,482.475 1774.39,482.475 1776.6,482.475 1778.81,482.475 1781.02,482.475 1783.22,482.475 1785.43,482.475 1787.64,482.475 1789.85,482.475 1792.05,482.475 1794.26,482.475 1796.47,482.475 1798.68,482.475 1800.88,482.475 1803.09,482.475 1805.3,482.475 1807.51,482.475 1809.71,482.475 1811.92,482.475 1814.13,482.475 1816.34,482.475 1818.54,482.475 1820.75,482.475 1822.96,482.475 1825.17,482.475 1827.37,482.475 1829.58,482.475 1831.79,482.475 1834,482.475 1836.2,482.475 1838.41,482.475 1840.62,482.475 1842.83,482.475 1845.03,482.475 1847.24,482.475 1849.45,482.475 1851.66,482.475 1853.86,482.475 1856.07,482.475 1858.28,482.475 1860.49,482.475 1862.69,482.475 1864.9,482.475 1867.11,482.475 1869.32,482.475 1871.52,482.475 1873.73,482.475 1875.94,482.475 1878.15,482.475 1880.35,482.475 1882.56,482.475 1884.77,482.475 1886.98,482.475 1889.18,482.475 1891.39,482.475 1893.6,482.475 1895.81,482.475 1898.01,482.475 1900.22,482.475 1902.43,482.475 1904.64,482.475 1906.84,482.475 1909.05,482.475 1911.26,482.475 1913.47,700.819 1915.67,700.819 1917.88,700.819 1920.09,700.819 1922.3,700.819 1924.5,700.819 1926.71,700.819 1928.92,700.819 1931.13,700.819 1933.33,700.819 1935.54,700.819 1937.75,700.819 1939.96,700.819 1942.16,700.819 1944.37,700.819 1946.58,700.819 1948.79,700.819 1950.99,700.819 1953.2,700.819 1955.41,700.819 1957.62,700.819 1959.82,700.819 1962.03,700.819 1964.24,700.819 1966.45,700.819 1968.65,700.819 1970.86,700.819 1973.07,700.819 1975.28,700.819 1977.48,700.819 1979.69,700.819 1981.9,700.819 1984.11,700.819 1986.31,700.819 1988.52,700.819 1990.73,700.819 1992.94,700.819 1995.14,700.819 1997.35,700.819 1999.56,700.819 2001.77,700.819 2003.97,700.819 2006.18,700.819 2008.39,700.819 2010.6,700.819 2012.8,700.819 2015.01,700.819 2017.22,700.819 2019.43,700.819 2021.63,700.819 2023.84,700.819 2026.05,700.819 2028.26,700.819 2030.46,700.819 2032.67,700.819 2034.88,700.819 2037.09,700.819 2039.29,700.819 2041.5,700.819 2043.71,700.819 2045.92,700.819 2048.12,700.819 2050.33,700.819 2052.54,700.819 2054.75,700.819 2056.95,700.819 2059.16,700.819 2061.37,700.819 2063.58,700.819 2065.78,700.819 2067.99,700.819 2070.2,700.819 2072.41,700.819 2074.61,700.819 2076.82,700.819 2079.03,700.819 2081.24,700.819 2083.44,700.819 2085.65,700.819 2087.86,700.819 2090.07,700.819 2092.27,700.819 2094.48,700.819 2096.69,700.819 2098.9,700.819 2101.1,700.819 2103.31,700.819 2105.52,700.819 2107.73,700.819 2109.93,700.819 2112.14,700.819 2114.35,700.819 2116.55,700.819 2118.76,700.819 2120.97,700.819 2123.18,700.819 2125.38,700.819 2127.59,700.819 2129.8,700.819 2132.01,700.819 2134.21,322.03 2136.42,322.03 2138.63,322.03 2140.84,322.03 2143.04,322.03 2145.25,322.03 2147.46,322.03 2149.67,322.03 2151.87,322.03 2154.08,322.03 2156.29,322.03 2158.5,322.03 2160.7,322.03 2162.91,322.03 2165.12,322.03 2167.33,322.03 2169.53,322.03 2171.74,322.03 2173.95,322.03 2176.16,322.03 2178.36,322.03 2180.57,322.03 2182.78,322.03 2184.99,322.03 2187.19,322.03 2189.4,322.03 2191.61,322.03 2193.82,322.03 2196.02,322.03 2198.23,322.03 2200.44,322.03 2202.65,322.03 2204.85,322.03 2207.06,322.03 2209.27,322.03 2211.48,322.03 2213.68,322.03 2215.89,322.03 2218.1,322.03 2220.31,322.03 2222.51,322.03 2224.72,322.03 2226.93,322.03 2229.14,322.03 2231.34,322.03 2233.55,322.03 2235.76,322.03 2237.97,322.03 2240.17,322.03 2242.38,322.03 2244.59,322.03 2246.8,322.03 2249,322.03 2251.21,322.03 2253.42,322.03 2255.63,322.03 2257.83,322.03 2260.04,322.03 2262.25,322.03 2264.46,322.03 2266.66,322.03 2268.87,322.03 2271.08,322.03 2273.29,322.03 2275.49,322.03 2277.7,322.03 2279.91,322.03 2282.12,322.03 2284.32,322.03 2286.53,322.03 2288.74,322.03 2290.95,322.03 2293.15,322.03 2295.36,322.03 2297.57,322.03 2299.78,322.03 2301.98,322.03 2304.19,322.03 2306.4,322.03 2308.61,322.03 2310.81,322.03 2313.02,322.03 2315.23,322.03 2317.44,322.03 2319.64,322.03 2321.85,322.03 2324.06,322.03 2326.27,322.03 2328.47,322.03 2330.68,322.03 2332.89,322.03 2335.1,322.03 2337.3,322.03 2339.51,322.03 2341.72,322.03 2343.93,322.03 2346.13,322.03 2348.34,322.03 2350.55,322.03 2352.76,322.03 "/>
<path clip-path="url(#clip280)" d="M2033.58 1377.32 L2279.25 1377.32 L2279.25 1221.8 L2033.58 1221.8  Z" fill="#ffffff" fill-rule="evenodd" fill-opacity="1"/>
<polyline clip-path="url(#clip280)" style="stroke:#000000; stroke-linecap:round; stroke-linejoin:round; stroke-width:4; stroke-opacity:1; fill:none" points="2033.58,1377.32 2279.25,1377.32 2279.25,1221.8 2033.58,1221.8 2033.58,1377.32 "/>
<polyline clip-path="url(#clip280)" style="stroke:#009af9; stroke-linecap:round; stroke-linejoin:round; stroke-width:4; stroke-opacity:1; fill:none" points="2058.08,1273.64 2205.1,1273.64 "/>
<path clip-path="url(#clip280)" d="M2254.26 1264.99 L2244.88 1277.61 L2254.74 1290.92 L2249.72 1290.92 L2242.17 1280.73 L2234.63 1290.92 L2229.6 1290.92 L2239.67 1277.35 L2230.46 1264.99 L2235.48 1264.99 L2242.36 1274.23 L2249.23 1264.99 L2254.26 1264.99 Z" fill="#000000" fill-rule="nonzero" fill-opacity="1" /><polyline clip-path="url(#clip280)" style="stroke:#e26f46; stroke-linecap:round; stroke-linejoin:round; stroke-width:4; stroke-opacity:1; fill:none" points="2058.08,1325.48 2205.1,1325.48 "/>
<path clip-path="url(#clip280)" d="M2246.11 1306.74 L2246.11 1310.28 L2242.04 1310.28 Q2239.74 1310.28 2238.84 1311.2 Q2237.96 1312.13 2237.96 1314.54 L2237.96 1316.83 L2244.98 1316.83 L2244.98 1320.14 L2237.96 1320.14 L2237.96 1342.76 L2233.68 1342.76 L2233.68 1320.14 L2229.6 1320.14 L2229.6 1316.83 L2233.68 1316.83 L2233.68 1315.02 Q2233.68 1310.7 2235.69 1308.73 Q2237.71 1306.74 2242.08 1306.74 L2246.11 1306.74 Z" fill="#000000" fill-rule="nonzero" fill-opacity="1" /></svg>
