<?xml version="1.0" encoding="utf-8"?>
<svg xmlns="http://www.w3.org/2000/svg" xmlns:xlink="http://www.w3.org/1999/xlink" width="600" height="400" viewBox="0 0 2400 1600">
<defs>
  <clipPath id="clip260">
    <rect x="0" y="0" width="2400" height="1600"/>
  </clipPath>
</defs>
<path clip-path="url(#clip260)" d="M0 1600 L2400 1600 L2400 0 L0 0  Z" fill="#ffffff" fill-rule="evenodd" fill-opacity="1"/>
<defs>
  <clipPath id="clip261">
    <rect x="112" y="47" width="2242" height="1440"/>
  </clipPath>
</defs>
<path clip-path="url(#clip261)" d="M-622.054 2515.13 L-622.054 2235.16 L-281.282 2095.17 L308.952 2175.99 L308.952 2455.97 L-31.8201 2595.95 L-622.054 2515.13  Z" fill="#ffffff" fill-rule="evenodd" fill-opacity="1"/>
<polyline clip-path="url(#clip261)" style="stroke:#000000; stroke-linecap:round; stroke-linejoin:round; stroke-width:2; stroke-opacity:0.1; fill:none" points="726.186,1220.36 1141.65,860.563 1141.65,140.961 "/>
<polyline clip-path="url(#clip261)" style="stroke:#000000; stroke-linecap:round; stroke-linejoin:round; stroke-width:2; stroke-opacity:0.1; fill:none" points="873.744,1262.96 1289.21,903.159 1289.21,183.557 "/>
<polyline clip-path="url(#clip261)" style="stroke:#000000; stroke-linecap:round; stroke-linejoin:round; stroke-width:2; stroke-opacity:0.1; fill:none" points="1021.3,1305.56 1436.77,945.756 1436.77,226.154 "/>
<polyline clip-path="url(#clip261)" style="stroke:#000000; stroke-linecap:round; stroke-linejoin:round; stroke-width:2; stroke-opacity:0.1; fill:none" points="1168.86,1348.15 1584.32,988.352 1584.32,268.75 "/>
<polyline clip-path="url(#clip261)" style="stroke:#000000; stroke-linecap:round; stroke-linejoin:round; stroke-width:2; stroke-opacity:0.1; fill:none" points="1316.42,1390.75 1731.88,1030.95 1731.88,311.347 "/>
<polyline clip-path="url(#clip261)" style="stroke:#000000; stroke-linecap:round; stroke-linejoin:round; stroke-width:2; stroke-opacity:0.1; fill:none" points="1459.82,1345.22 740.217,1137.49 740.217,417.884 "/>
<polyline clip-path="url(#clip261)" style="stroke:#000000; stroke-linecap:round; stroke-linejoin:round; stroke-width:2; stroke-opacity:0.1; fill:none" points="1540.64,1275.22 821.038,1067.49 821.038,347.89 "/>
<polyline clip-path="url(#clip261)" style="stroke:#000000; stroke-linecap:round; stroke-linejoin:round; stroke-width:2; stroke-opacity:0.1; fill:none" points="1621.46,1205.23 901.86,997.498 901.86,277.896 "/>
<polyline clip-path="url(#clip261)" style="stroke:#000000; stroke-linecap:round; stroke-linejoin:round; stroke-width:2; stroke-opacity:0.1; fill:none" points="1702.28,1135.24 982.682,927.505 982.682,207.903 "/>
<polyline clip-path="url(#clip261)" style="stroke:#000000; stroke-linecap:round; stroke-linejoin:round; stroke-width:2; stroke-opacity:0.1; fill:none" points="1783.11,1065.24 1063.5,857.511 1063.5,137.909 "/>
<polyline clip-path="url(#clip261)" style="stroke:#000000; stroke-linecap:round; stroke-linejoin:round; stroke-width:2; stroke-opacity:0.1; fill:none" points="664.934,1180.95 1080.4,821.149 1800,1028.88 "/>
<polyline clip-path="url(#clip261)" style="stroke:#000000; stroke-linecap:round; stroke-linejoin:round; stroke-width:2; stroke-opacity:0.1; fill:none" points="664.934,1061.54 1080.4,701.738 1800,909.469 "/>
<polyline clip-path="url(#clip261)" style="stroke:#000000; stroke-linecap:round; stroke-linejoin:round; stroke-width:2; stroke-opacity:0.1; fill:none" points="664.934,942.128 1080.4,582.327 1800,790.058 "/>
<polyline clip-path="url(#clip261)" style="stroke:#000000; stroke-linecap:round; stroke-linejoin:round; stroke-width:2; stroke-opacity:0.1; fill:none" points="664.934,822.717 1080.4,462.916 1800,670.647 "/>
<polyline clip-path="url(#clip261)" style="stroke:#000000; stroke-linecap:round; stroke-linejoin:round; stroke-width:2; stroke-opacity:0.1; fill:none" points="664.934,703.306 1080.4,343.505 1800,551.236 "/>
<polyline clip-path="url(#clip261)" style="stroke:#000000; stroke-linecap:round; stroke-linejoin:round; stroke-width:2; stroke-opacity:0.1; fill:none" points="664.934,583.895 1080.4,224.094 1800,431.825 "/>
<polyline clip-path="url(#clip260)" style="stroke:#000000; stroke-linecap:round; stroke-linejoin:round; stroke-width:4; stroke-opacity:1; fill:none" points="664.934,1202.68 1384.54,1410.41 "/>
<polyline clip-path="url(#clip260)" style="stroke:#000000; stroke-linecap:round; stroke-linejoin:round; stroke-width:4; stroke-opacity:1; fill:none" points="726.186,1220.36 731.171,1216.05 "/>
<polyline clip-path="url(#clip260)" style="stroke:#000000; stroke-linecap:round; stroke-linejoin:round; stroke-width:4; stroke-opacity:1; fill:none" points="873.744,1262.96 878.73,1258.64 "/>
<polyline clip-path="url(#clip260)" style="stroke:#000000; stroke-linecap:round; stroke-linejoin:round; stroke-width:4; stroke-opacity:1; fill:none" points="1021.3,1305.56 1026.29,1301.24 "/>
<polyline clip-path="url(#clip260)" style="stroke:#000000; stroke-linecap:round; stroke-linejoin:round; stroke-width:4; stroke-opacity:1; fill:none" points="1168.86,1348.15 1173.85,1343.84 "/>
<polyline clip-path="url(#clip260)" style="stroke:#000000; stroke-linecap:round; stroke-linejoin:round; stroke-width:4; stroke-opacity:1; fill:none" points="1316.42,1390.75 1321.41,1386.43 "/>
<path clip-path="url(#clip260)" d="M666.099 1234.7 Q662.487 1234.7 660.659 1238.26 Q658.853 1241.8 658.853 1248.93 Q658.853 1256.04 660.659 1259.6 Q662.487 1263.14 666.099 1263.14 Q669.733 1263.14 671.538 1259.6 Q673.367 1256.04 673.367 1248.93 Q673.367 1241.8 671.538 1238.26 Q669.733 1234.7 666.099 1234.7 M666.099 1230.99 Q671.909 1230.99 674.964 1235.6 Q678.043 1240.18 678.043 1248.93 Q678.043 1257.66 674.964 1262.27 Q671.909 1266.85 666.099 1266.85 Q660.288 1266.85 657.21 1262.27 Q654.154 1257.66 654.154 1248.93 Q654.154 1240.18 657.21 1235.6 Q660.288 1230.99 666.099 1230.99 Z" fill="#000000" fill-rule="nonzero" fill-opacity="1" /><path clip-path="url(#clip260)" d="M686.26 1260.3 L691.145 1260.3 L691.145 1266.18 L686.26 1266.18 L686.26 1260.3 Z" fill="#000000" fill-rule="nonzero" fill-opacity="1" /><path clip-path="url(#clip260)" d="M701.376 1231.62 L719.732 1231.62 L719.732 1235.55 L705.658 1235.55 L705.658 1244.02 Q706.677 1243.68 707.696 1243.52 Q708.714 1243.33 709.733 1243.33 Q715.52 1243.33 718.899 1246.5 Q722.279 1249.67 722.279 1255.09 Q722.279 1260.67 718.807 1263.77 Q715.334 1266.85 709.015 1266.85 Q706.839 1266.85 704.571 1266.48 Q702.325 1266.11 699.918 1265.37 L699.918 1260.67 Q702.001 1261.8 704.223 1262.36 Q706.446 1262.91 708.922 1262.91 Q712.927 1262.91 715.265 1260.81 Q717.603 1258.7 717.603 1255.09 Q717.603 1251.48 715.265 1249.37 Q712.927 1247.27 708.922 1247.27 Q707.047 1247.27 705.172 1247.68 Q703.321 1248.1 701.376 1248.98 L701.376 1231.62 Z" fill="#000000" fill-rule="nonzero" fill-opacity="1" /><path clip-path="url(#clip260)" d="M803.472 1304.84 L811.111 1304.84 L811.111 1278.47 L802.801 1280.14 L802.801 1275.88 L811.064 1274.21 L815.74 1274.21 L815.74 1304.84 L823.379 1304.84 L823.379 1308.77 L803.472 1308.77 L803.472 1304.84 Z" fill="#000000" fill-rule="nonzero" fill-opacity="1" /><path clip-path="url(#clip260)" d="M832.824 1302.89 L837.708 1302.89 L837.708 1308.77 L832.824 1308.77 L832.824 1302.89 Z" fill="#000000" fill-rule="nonzero" fill-opacity="1" /><path clip-path="url(#clip260)" d="M857.893 1277.29 Q854.282 1277.29 852.453 1280.86 Q850.648 1284.4 850.648 1291.53 Q850.648 1298.63 852.453 1302.2 Q854.282 1305.74 857.893 1305.74 Q861.527 1305.74 863.333 1302.2 Q865.161 1298.63 865.161 1291.53 Q865.161 1284.4 863.333 1280.86 Q861.527 1277.29 857.893 1277.29 M857.893 1273.59 Q863.703 1273.59 866.759 1278.2 Q869.837 1282.78 869.837 1291.53 Q869.837 1300.26 866.759 1304.86 Q863.703 1309.45 857.893 1309.45 Q852.083 1309.45 849.004 1304.86 Q845.948 1300.26 845.948 1291.53 Q845.948 1282.78 849.004 1278.2 Q852.083 1273.59 857.893 1273.59 Z" fill="#000000" fill-rule="nonzero" fill-opacity="1" /><path clip-path="url(#clip260)" d="M952.026 1347.44 L959.664 1347.44 L959.664 1321.07 L951.354 1322.74 L951.354 1318.48 L959.618 1316.81 L964.294 1316.81 L964.294 1347.44 L971.933 1347.44 L971.933 1351.37 L952.026 1351.37 L952.026 1347.44 Z" fill="#000000" fill-rule="nonzero" fill-opacity="1" /><path clip-path="url(#clip260)" d="M981.377 1345.49 L986.262 1345.49 L986.262 1351.37 L981.377 1351.37 L981.377 1345.49 Z" fill="#000000" fill-rule="nonzero" fill-opacity="1" /><path clip-path="url(#clip260)" d="M996.493 1316.81 L1014.85 1316.81 L1014.85 1320.75 L1000.78 1320.75 L1000.78 1329.22 Q1001.79 1328.87 1002.81 1328.71 Q1003.83 1328.52 1004.85 1328.52 Q1010.64 1328.52 1014.02 1331.69 Q1017.4 1334.87 1017.4 1340.28 Q1017.4 1345.86 1013.92 1348.96 Q1010.45 1352.04 1004.13 1352.04 Q1001.96 1352.04 999.687 1351.67 Q997.442 1351.3 995.035 1350.56 L995.035 1345.86 Q997.118 1347 999.34 1347.55 Q1001.56 1348.11 1004.04 1348.11 Q1008.04 1348.11 1010.38 1346 Q1012.72 1343.89 1012.72 1340.28 Q1012.72 1336.67 1010.38 1334.56 Q1008.04 1332.46 1004.04 1332.46 Q1002.16 1332.46 1000.29 1332.87 Q998.437 1333.29 996.493 1334.17 L996.493 1316.81 Z" fill="#000000" fill-rule="nonzero" fill-opacity="1" /><path clip-path="url(#clip260)" d="M1101.81 1390.03 L1118.13 1390.03 L1118.13 1393.97 L1096.18 1393.97 L1096.18 1390.03 Q1098.84 1387.28 1103.43 1382.65 Q1108.03 1377.99 1109.21 1376.65 Q1111.46 1374.13 1112.34 1372.39 Q1113.24 1370.63 1113.24 1368.94 Q1113.24 1366.19 1111.3 1364.45 Q1109.38 1362.72 1106.27 1362.72 Q1104.07 1362.72 1101.62 1363.48 Q1099.19 1364.24 1096.41 1365.8 L1096.41 1361.07 Q1099.24 1359.94 1101.69 1359.36 Q1104.14 1358.78 1106.18 1358.78 Q1111.55 1358.78 1114.75 1361.47 Q1117.94 1364.15 1117.94 1368.64 Q1117.94 1370.77 1117.13 1372.69 Q1116.34 1374.59 1114.24 1377.18 Q1113.66 1377.86 1110.56 1381.07 Q1107.45 1384.27 1101.81 1390.03 Z" fill="#000000" fill-rule="nonzero" fill-opacity="1" /><path clip-path="url(#clip260)" d="M1127.94 1388.09 L1132.82 1388.09 L1132.82 1393.97 L1127.94 1393.97 L1127.94 1388.09 Z" fill="#000000" fill-rule="nonzero" fill-opacity="1" /><path clip-path="url(#clip260)" d="M1153.01 1362.49 Q1149.4 1362.49 1147.57 1366.05 Q1145.76 1369.59 1145.76 1376.72 Q1145.76 1383.83 1147.57 1387.39 Q1149.4 1390.93 1153.01 1390.93 Q1156.64 1390.93 1158.45 1387.39 Q1160.28 1383.83 1160.28 1376.72 Q1160.28 1369.59 1158.45 1366.05 Q1156.64 1362.49 1153.01 1362.49 M1153.01 1358.78 Q1158.82 1358.78 1161.88 1363.39 Q1164.95 1367.97 1164.95 1376.72 Q1164.95 1385.45 1161.88 1390.05 Q1158.82 1394.64 1153.01 1394.64 Q1147.2 1394.64 1144.12 1390.05 Q1141.07 1385.45 1141.07 1376.72 Q1141.07 1367.97 1144.12 1363.39 Q1147.2 1358.78 1153.01 1358.78 Z" fill="#000000" fill-rule="nonzero" fill-opacity="1" /><path clip-path="url(#clip260)" d="M1250.36 1432.63 L1266.68 1432.63 L1266.68 1436.56 L1244.74 1436.56 L1244.74 1432.63 Q1247.4 1429.87 1251.98 1425.24 Q1256.59 1420.59 1257.77 1419.25 Q1260.01 1416.73 1260.89 1414.99 Q1261.8 1413.23 1261.8 1411.54 Q1261.8 1408.79 1259.85 1407.05 Q1257.93 1405.31 1254.83 1405.31 Q1252.63 1405.31 1250.17 1406.08 Q1247.74 1406.84 1244.97 1408.39 L1244.97 1403.67 Q1247.79 1402.54 1250.24 1401.96 Q1252.7 1401.38 1254.74 1401.38 Q1260.11 1401.38 1263.3 1404.06 Q1266.49 1406.75 1266.49 1411.24 Q1266.49 1413.37 1265.68 1415.29 Q1264.9 1417.19 1262.79 1419.78 Q1262.21 1420.45 1259.11 1423.67 Q1256.01 1426.86 1250.36 1432.63 Z" fill="#000000" fill-rule="nonzero" fill-opacity="1" /><path clip-path="url(#clip260)" d="M1276.49 1430.68 L1281.38 1430.68 L1281.38 1436.56 L1276.49 1436.56 L1276.49 1430.68 Z" fill="#000000" fill-rule="nonzero" fill-opacity="1" /><path clip-path="url(#clip260)" d="M1291.61 1402 L1309.97 1402 L1309.97 1405.94 L1295.89 1405.94 L1295.89 1414.41 Q1296.91 1414.06 1297.93 1413.9 Q1298.95 1413.72 1299.97 1413.72 Q1305.75 1413.72 1309.13 1416.89 Q1312.51 1420.06 1312.51 1425.48 Q1312.51 1431.05 1309.04 1434.16 Q1305.57 1437.23 1299.25 1437.23 Q1297.07 1437.23 1294.8 1436.86 Q1292.56 1436.49 1290.15 1435.75 L1290.15 1431.05 Q1292.23 1432.19 1294.46 1432.74 Q1296.68 1433.3 1299.16 1433.3 Q1303.16 1433.3 1305.5 1431.19 Q1307.84 1429.09 1307.84 1425.48 Q1307.84 1421.86 1305.5 1419.76 Q1303.16 1417.65 1299.16 1417.65 Q1297.28 1417.65 1295.41 1418.07 Q1293.55 1418.48 1291.61 1419.36 L1291.61 1402 Z" fill="#000000" fill-rule="nonzero" fill-opacity="1" /><polyline clip-path="url(#clip260)" style="stroke:#000000; stroke-linecap:round; stroke-linejoin:round; stroke-width:4; stroke-opacity:1; fill:none" points="1384.54,1410.41 1800,1050.61 "/>
<polyline clip-path="url(#clip260)" style="stroke:#000000; stroke-linecap:round; stroke-linejoin:round; stroke-width:4; stroke-opacity:1; fill:none" points="1459.82,1345.22 1451.18,1342.72 "/>
<polyline clip-path="url(#clip260)" style="stroke:#000000; stroke-linecap:round; stroke-linejoin:round; stroke-width:4; stroke-opacity:1; fill:none" points="1540.64,1275.22 1532,1272.73 "/>
<polyline clip-path="url(#clip260)" style="stroke:#000000; stroke-linecap:round; stroke-linejoin:round; stroke-width:4; stroke-opacity:1; fill:none" points="1621.46,1205.23 1612.83,1202.74 "/>
<polyline clip-path="url(#clip260)" style="stroke:#000000; stroke-linecap:round; stroke-linejoin:round; stroke-width:4; stroke-opacity:1; fill:none" points="1702.28,1135.24 1693.65,1132.74 "/>
<polyline clip-path="url(#clip260)" style="stroke:#000000; stroke-linecap:round; stroke-linejoin:round; stroke-width:4; stroke-opacity:1; fill:none" points="1783.11,1065.24 1774.47,1062.75 "/>
<path clip-path="url(#clip260)" d="M1486.36 1358.65 L1474.56 1377.1 L1486.36 1377.1 L1486.36 1358.65 M1485.14 1354.58 L1491.02 1354.58 L1491.02 1377.1 L1495.95 1377.1 L1495.95 1380.99 L1491.02 1380.99 L1491.02 1389.14 L1486.36 1389.14 L1486.36 1380.99 L1470.76 1380.99 L1470.76 1376.47 L1485.14 1354.58 Z" fill="#000000" fill-rule="nonzero" fill-opacity="1" /><path clip-path="url(#clip260)" d="M1553.04 1284.58 L1571.4 1284.58 L1571.4 1288.52 L1557.32 1288.52 L1557.32 1296.99 Q1558.34 1296.64 1559.36 1296.48 Q1560.38 1296.3 1561.4 1296.3 Q1567.19 1296.3 1570.57 1299.47 Q1573.94 1302.64 1573.94 1308.06 Q1573.94 1313.63 1570.47 1316.74 Q1567 1319.81 1560.68 1319.81 Q1558.5 1319.81 1556.24 1319.44 Q1553.99 1319.07 1551.58 1318.33 L1551.58 1313.63 Q1553.67 1314.77 1555.89 1315.32 Q1558.11 1315.88 1560.59 1315.88 Q1564.59 1315.88 1566.93 1313.77 Q1569.27 1311.67 1569.27 1308.06 Q1569.27 1304.44 1566.93 1302.34 Q1564.59 1300.23 1560.59 1300.23 Q1558.71 1300.23 1556.84 1300.65 Q1554.99 1301.06 1553.04 1301.94 L1553.04 1284.58 Z" fill="#000000" fill-rule="nonzero" fill-opacity="1" /><path clip-path="url(#clip260)" d="M1644.74 1230.01 Q1641.6 1230.01 1639.74 1232.16 Q1637.91 1234.31 1637.91 1238.06 Q1637.91 1241.79 1639.74 1243.96 Q1641.6 1246.12 1644.74 1246.12 Q1647.89 1246.12 1649.72 1243.96 Q1651.57 1241.79 1651.57 1238.06 Q1651.57 1234.31 1649.72 1232.16 Q1647.89 1230.01 1644.74 1230.01 M1654.03 1215.35 L1654.03 1219.61 Q1652.27 1218.78 1650.46 1218.34 Q1648.68 1217.9 1646.92 1217.9 Q1642.29 1217.9 1639.84 1221.02 Q1637.41 1224.15 1637.06 1230.47 Q1638.42 1228.45 1640.48 1227.39 Q1642.54 1226.3 1645.02 1226.3 Q1650.23 1226.3 1653.24 1229.47 Q1656.27 1232.62 1656.27 1238.06 Q1656.27 1243.39 1653.12 1246.6 Q1649.97 1249.82 1644.74 1249.82 Q1638.75 1249.82 1635.58 1245.24 Q1632.41 1240.63 1632.41 1231.9 Q1632.41 1223.71 1636.29 1218.85 Q1640.18 1213.96 1646.73 1213.96 Q1648.49 1213.96 1650.28 1214.31 Q1652.08 1214.66 1654.03 1215.35 Z" fill="#000000" fill-rule="nonzero" fill-opacity="1" /><path clip-path="url(#clip260)" d="M1713.23 1144.6 L1735.45 1144.6 L1735.45 1146.59 L1722.9 1179.16 L1718.02 1179.16 L1729.82 1148.53 L1713.23 1148.53 L1713.23 1144.6 Z" fill="#000000" fill-rule="nonzero" fill-opacity="1" /><path clip-path="url(#clip260)" d="M1805.9 1092.75 Q1802.57 1092.75 1800.65 1094.53 Q1798.75 1096.31 1798.75 1099.44 Q1798.75 1102.56 1800.65 1104.35 Q1802.57 1106.13 1805.9 1106.13 Q1809.23 1106.13 1811.16 1104.35 Q1813.08 1102.54 1813.08 1099.44 Q1813.08 1096.31 1811.16 1094.53 Q1809.26 1092.75 1805.9 1092.75 M1801.22 1090.76 Q1798.22 1090.02 1796.53 1087.96 Q1794.86 1085.9 1794.86 1082.94 Q1794.86 1078.79 1797.8 1076.38 Q1800.76 1073.98 1805.9 1073.98 Q1811.06 1073.98 1814 1076.38 Q1816.94 1078.79 1816.94 1082.94 Q1816.94 1085.9 1815.25 1087.96 Q1813.59 1090.02 1810.6 1090.76 Q1813.98 1091.55 1815.85 1093.84 Q1817.75 1096.13 1817.75 1099.44 Q1817.75 1104.46 1814.67 1107.15 Q1811.62 1109.83 1805.9 1109.83 Q1800.18 1109.83 1797.1 1107.15 Q1794.05 1104.46 1794.05 1099.44 Q1794.05 1096.13 1795.95 1093.84 Q1797.85 1091.55 1801.22 1090.76 M1799.51 1083.37 Q1799.51 1086.06 1801.18 1087.56 Q1802.87 1089.07 1805.9 1089.07 Q1808.91 1089.07 1810.6 1087.56 Q1812.31 1086.06 1812.31 1083.37 Q1812.31 1080.69 1810.6 1079.19 Q1808.91 1077.68 1805.9 1077.68 Q1802.87 1077.68 1801.18 1079.19 Q1799.51 1080.69 1799.51 1083.37 Z" fill="#000000" fill-rule="nonzero" fill-opacity="1" /><polyline clip-path="url(#clip260)" style="stroke:#000000; stroke-linecap:round; stroke-linejoin:round; stroke-width:4; stroke-opacity:1; fill:none" points="664.934,1202.68 664.934,483.08 "/>
<polyline clip-path="url(#clip260)" style="stroke:#000000; stroke-linecap:round; stroke-linejoin:round; stroke-width:4; stroke-opacity:1; fill:none" points="664.934,1180.95 669.92,1176.63 "/>
<polyline clip-path="url(#clip260)" style="stroke:#000000; stroke-linecap:round; stroke-linejoin:round; stroke-width:4; stroke-opacity:1; fill:none" points="664.934,1061.54 669.92,1057.22 "/>
<polyline clip-path="url(#clip260)" style="stroke:#000000; stroke-linecap:round; stroke-linejoin:round; stroke-width:4; stroke-opacity:1; fill:none" points="664.934,942.128 669.92,937.81 "/>
<polyline clip-path="url(#clip260)" style="stroke:#000000; stroke-linecap:round; stroke-linejoin:round; stroke-width:4; stroke-opacity:1; fill:none" points="664.934,822.717 669.92,818.399 "/>
<polyline clip-path="url(#clip260)" style="stroke:#000000; stroke-linecap:round; stroke-linejoin:round; stroke-width:4; stroke-opacity:1; fill:none" points="664.934,703.306 669.92,698.988 "/>
<polyline clip-path="url(#clip260)" style="stroke:#000000; stroke-linecap:round; stroke-linejoin:round; stroke-width:4; stroke-opacity:1; fill:none" points="664.934,583.895 669.92,579.577 "/>
<path clip-path="url(#clip260)" d="M629.005 1179.6 Q632.361 1180.31 634.236 1182.58 Q636.134 1184.85 636.134 1188.18 Q636.134 1193.3 632.616 1196.1 Q629.097 1198.9 622.616 1198.9 Q620.44 1198.9 618.125 1198.46 Q615.834 1198.04 613.38 1197.19 L613.38 1192.67 Q615.324 1193.81 617.639 1194.39 Q619.954 1194.97 622.477 1194.97 Q626.875 1194.97 629.167 1193.23 Q631.482 1191.49 631.482 1188.18 Q631.482 1185.13 629.329 1183.42 Q627.199 1181.68 623.38 1181.68 L619.352 1181.68 L619.352 1177.84 L623.565 1177.84 Q627.014 1177.84 628.843 1176.47 Q630.671 1175.08 630.671 1172.49 Q630.671 1169.83 628.773 1168.42 Q626.898 1166.98 623.38 1166.98 Q621.459 1166.98 619.26 1167.4 Q617.06 1167.81 614.422 1168.69 L614.422 1164.53 Q617.084 1163.79 619.398 1163.42 Q621.736 1163.05 623.797 1163.05 Q629.121 1163.05 632.222 1165.48 Q635.324 1167.88 635.324 1172 Q635.324 1174.87 633.681 1176.86 Q632.037 1178.83 629.005 1179.6 Z" fill="#000000" fill-rule="nonzero" fill-opacity="1" /><path clip-path="url(#clip260)" d="M626.551 1048.33 L614.746 1066.78 L626.551 1066.78 L626.551 1048.33 M625.324 1044.26 L631.204 1044.26 L631.204 1066.78 L636.134 1066.78 L636.134 1070.67 L631.204 1070.67 L631.204 1078.82 L626.551 1078.82 L626.551 1070.67 L610.949 1070.67 L610.949 1066.16 L625.324 1044.26 Z" fill="#000000" fill-rule="nonzero" fill-opacity="1" /><path clip-path="url(#clip260)" d="M615.232 924.848 L633.588 924.848 L633.588 928.783 L619.514 928.783 L619.514 937.255 Q620.533 936.908 621.551 936.746 Q622.57 936.561 623.588 936.561 Q629.375 936.561 632.755 939.732 Q636.134 942.903 636.134 948.32 Q636.134 953.899 632.662 957 Q629.19 960.079 622.871 960.079 Q620.695 960.079 618.426 959.709 Q616.181 959.338 613.773 958.598 L613.773 953.899 Q615.857 955.033 618.079 955.588 Q620.301 956.144 622.778 956.144 Q626.783 956.144 629.121 954.038 Q631.459 951.931 631.459 948.32 Q631.459 944.709 629.121 942.602 Q626.783 940.496 622.778 940.496 Q620.903 940.496 619.028 940.913 Q617.176 941.329 615.232 942.209 L615.232 924.848 Z" fill="#000000" fill-rule="nonzero" fill-opacity="1" /><path clip-path="url(#clip260)" d="M624.607 820.853 Q621.459 820.853 619.607 823.006 Q617.778 825.159 617.778 828.909 Q617.778 832.636 619.607 834.812 Q621.459 836.964 624.607 836.964 Q627.755 836.964 629.584 834.812 Q631.435 832.636 631.435 828.909 Q631.435 825.159 629.584 823.006 Q627.755 820.853 624.607 820.853 M633.889 806.201 L633.889 810.46 Q632.13 809.627 630.324 809.187 Q628.542 808.747 626.783 808.747 Q622.153 808.747 619.699 811.872 Q617.269 814.997 616.922 821.316 Q618.287 819.302 620.347 818.238 Q622.408 817.15 624.884 817.15 Q630.093 817.15 633.102 820.321 Q636.134 823.469 636.134 828.909 Q636.134 834.233 632.986 837.45 Q629.838 840.668 624.607 840.668 Q618.611 840.668 615.44 836.085 Q612.269 831.478 612.269 822.751 Q612.269 814.557 616.158 809.696 Q620.047 804.812 626.597 804.812 Q628.357 804.812 630.139 805.159 Q631.945 805.506 633.889 806.201 Z" fill="#000000" fill-rule="nonzero" fill-opacity="1" /><path clip-path="url(#clip260)" d="M613.912 686.026 L636.134 686.026 L636.134 688.016 L623.588 720.586 L618.704 720.586 L630.509 689.961 L613.912 689.961 L613.912 686.026 Z" fill="#000000" fill-rule="nonzero" fill-opacity="1" /><path clip-path="url(#clip260)" d="M624.283 584.763 Q620.949 584.763 619.028 586.545 Q617.13 588.327 617.13 591.452 Q617.13 594.577 619.028 596.36 Q620.949 598.142 624.283 598.142 Q627.616 598.142 629.537 596.36 Q631.459 594.554 631.459 591.452 Q631.459 588.327 629.537 586.545 Q627.639 584.763 624.283 584.763 M619.607 582.772 Q616.597 582.031 614.908 579.971 Q613.241 577.911 613.241 574.948 Q613.241 570.804 616.181 568.397 Q619.144 565.99 624.283 565.99 Q629.445 565.99 632.384 568.397 Q635.324 570.804 635.324 574.948 Q635.324 577.911 633.634 579.971 Q631.968 582.031 628.982 582.772 Q632.361 583.559 634.236 585.851 Q636.134 588.142 636.134 591.452 Q636.134 596.475 633.056 599.161 Q630 601.846 624.283 601.846 Q618.565 601.846 615.486 599.161 Q612.431 596.475 612.431 591.452 Q612.431 588.142 614.329 585.851 Q616.227 583.559 619.607 582.772 M617.894 575.388 Q617.894 578.073 619.56 579.577 Q621.25 581.082 624.283 581.082 Q627.292 581.082 628.982 579.577 Q630.695 578.073 630.695 575.388 Q630.695 572.702 628.982 571.198 Q627.292 569.693 624.283 569.693 Q621.25 569.693 619.56 571.198 Q617.894 572.702 617.894 575.388 Z" fill="#000000" fill-rule="nonzero" fill-opacity="1" /><polyline clip-path="url(#clip261)" style="stroke:#009af9; stroke-linecap:round; stroke-linejoin:round; stroke-width:4; stroke-opacity:1; fill:none" points="1029.85,867.216 1028.56,868.464 1025.03,872.583 1029.48,866.812 1033.94,861.065 1028.3,867.788 1027.93,867.939 1032.52,861.942 1027.62,867.691 1028.08,866.783 1024.1,871.178 1039.65,851.588 1031.89,860.858 1032.46,859.763 1035.64,855.571 1040.81,849.211 1032.19,859.544 1008.47,887.767 1005.19,890.069 1017,874.552 1018.01,872.764 1048.97,834.457 1048.39,836.084 1111.54,761.95 1098.61,783.619 1081.32,809.726 1111.35,775.866 1089.88,804.634 1126.09,768.149 1169.05,726.344 1179.15,723.714 1107.55,805.984 1093.38,815.822 1080.38,826.627 1107.68,793.003 1148.78,759.006 1138.9,774.611 1117.52,797.181 1133.54,777.322 1179.8,739.207 1155.72,770.764 1163.52,759.479 1157.81,757.654 1189.2,731.094 1336.66,598.193 1311.62,645.072 1222.1,736.576 1195.73,750.383 1245.57,699.593 1293.61,656.719 1245.66,701.625 1197.77,736.317 1204.5,722.592 1076.66,842.925 1154.33,754.05 1130.74,787.449 1194.54,726.112 1137.1,774.357 1147.83,777.52 1139.95,786.933 1122.09,776.811 1114.64,786.794 1118.91,791.578 1100.61,803.899 1193.13,710.578 1177.67,727.053 1209.85,699.69 1278.69,660.732 1176.69,743.892 1127,782.159 1346.18,587.873 1442.71,535.012 1543.62,464.259 1561.95,456.045 1654.62,414.355 1633.77,437.942 1620.28,466.299 1557.55,504.373 1484.48,554.48 1484.42,542.371 1391.27,613.301 1238.69,748.002 1169.67,786.557 1170.6,769.992 1141.56,783.408 1058.49,862.455 1091.92,813.872 1022.37,882.047 1021.7,869.937 997.813,891.876 1010.89,881.12 1063.16,821.721 1109.02,783.876 1055.53,851.955 1033.74,868.209 1105.58,794.699 1019.36,862.859 1039.93,847.854 1071.37,815.384 1128.06,792.491 1139.44,777.93 1120.24,792.829 1109.27,796.8 1234.11,710.641 1316.71,634.908 1336.19,618.563 1376.4,598.417 1477.6,526.623 1467.3,548.148 1427.77,579.91 1369.84,630.407 1427.82,570.592 1305.49,672.61 1219.29,741.944 1220.14,714.991 1182.27,750.263 1179.54,747.431 1170.15,763.776 1122.68,802.533 1063.71,852.297 999.472,909.808 969.1,923.376 969.867,914.923 982.34,898.731 973.239,910.282 967.088,914.082 1014.22,870.914 996.355,888.189 998.415,879.429 994.639,887.464 969.662,919.491 932.47,938.865 976.084,884.809 1047.14,833.194 1040.44,852.024 939.04,953.954 924.681,957.971 924.571,953.949 991.869,885.575 906.313,968.817 886.595,982.392 897.824,961.92 981.414,878.366 1013.77,858.773 1059.63,824.699 1051.45,832.084 1139.8,757.142 1172.04,740.778 1286.48,641.919 1284.08,670.079 1294.98,653.824 1306.52,654.249 1381.84,592.732 1142.68,793.766 1121.88,803.252 1095.27,807.851 1058.92,850.794 1005.89,886.242 944.352,947.974 939.299,948.538 910.972,975.308 908.185,965.003 956.812,920.186 913.76,973.242 896.587,986.919 922.353,958.514 921.173,966.914 872.746,1017.66 842.787,1038.93 862.346,1011.17 863.206,1007.64 915.958,944.324 906.552,963.069 855.397,1018.53 871.462,1004.34 851.408,1022.3 840.98,1038.51 913.188,958.403 964.617,911.239 1040.7,832.949 1043.61,836.957 1053.04,831.319 1076.93,806.742 1163.46,752.632 1102.3,810.733 1017.52,882.991 941.495,950.259 957.638,926.723 954.37,928.424 994.131,881.085 969.917,911.497 967.097,908.489 995.894,874.563 976.285,889.448 926.874,944.898 905.04,962.265 942.938,930.972 951.463,913.677 948.461,925.904 978.407,895.452 1067.1,820.874 1193.74,706.566 1290.25,649.321 1348.82,602.641 1322.31,648.443 1260.32,702.664 1328.69,637.618 1234.99,708.911 1231.62,705.781 1207.95,711.514 1277.19,659.279 1194.63,741.735 1235.95,704.091 1202.44,739.776 1108.21,824.697 1090.59,824.629 1161.01,749.172 1158.04,756.828 1079.44,811.372 1014.22,888.964 992.991,895.49 979.76,909.545 1005.65,880.565 977.808,912.913 979.562,911.76 977.195,906.098 957.698,916.397 972.081,898.339 978.026,894.409 1017.85,864.637 1155.49,717.223 1194.43,705.994 1117.5,796.056 1173.74,748.395 1079.24,830.683 1064.63,843.973 902.19,995.99 876.621,1006.66 831.129,1048.3 839.228,1028.85 877.408,994.772 944.756,914.734 1074.84,791.693 1056.46,828.639 1085.92,802.454 1054.92,832.867 1133.94,770.329 1107.68,806.235 1059.62,851.178 1081.28,818.956 1101.93,809.915 1110.09,806.483 1081.69,832.75 1084.28,819.756 1086.09,816.536 1024.31,865.354 1032.61,878.2 1028.02,850.225 976.005,910.906 924.272,972.626 977.807,917.25 1078.89,823.07 1127.91,778.168 1007.76,885.804 1048.74,840.812 1122.88,762.795 1140.27,771.659 1189.52,731.654 1152.42,755.082 1210.76,715.979 1144.48,768.313 1160.51,765.286 1157.24,772.954 1187.37,764.184 1316,637.519 1281.4,649.009 1249.12,696.935 1121.73,797.158 1109.39,796.99 1103.54,800.766 1180.54,735.827 1285.21,659.6 1357.84,599.525 1367.36,597.869 1457.53,546.375 1335.26,642.198 1364.28,624.864 1298.54,655.298 1279.13,667.158 1312.5,655.031 1269.25,687.329 1246.8,679.371 1253.6,684.434 1186.99,754.546 1178.91,755.599 1196.04,734.791 1087.92,835.387 1119.44,791.573 1185.8,724.297 1085.49,819.001 1189.19,728.948 1153.59,766.447 1119.87,789.399 1139.13,771.207 1136.46,768.786 1179.4,739.815 1258.8,664.311 1285.48,667.601 1260.54,692.314 1291.93,661.143 1211.95,735.401 1186.42,755.14 1230.63,711.385 1239.89,704.347 1222.02,695.892 1292.06,636.997 1309.06,635.087 1364.62,604.292 1377.68,591.865 1320.41,657.404 1212.87,734.6 1136.21,800.725 1073.83,847.622 1069.87,839.753 1147,750.984 1189.04,714.589 1160.64,751.244 1182.42,739.924 1108.57,817.87 1106.85,813.038 1094.55,808.405 1089.18,817.104 1095.35,809.974 1053.76,853.937 1096.37,807.105 1060.89,856.296 1021.65,888.387 1016.88,887.505 1110.81,779.442 1120.3,788.558 1286.83,648.386 1350.57,610.9 1389.14,591.838 1333.94,626.501 1352.27,613.638 1273.38,660.856 1242.07,689.432 1383.58,587.72 1527.99,472.99 1322.2,647.701 1343.48,634.311 1400.43,571.688 1440.56,562.977 1397.87,601.964 1242.96,730.972 1158.39,787.066 1253.06,674.251 1282.72,649.248 1305.84,651.409 1331.35,626.254 1338.3,625.169 1330.66,624.896 1389.28,589.479 1370.61,624.332 1368.81,614.869 1305.74,650.013 1312.08,649.308 1216.89,722.781 1197.78,735.583 1170.61,757.023 1202.76,715.566 1198.79,720.632 1252.48,662.653 1326.21,614.972 1312.21,639.989 1358.36,596.923 1410.66,560.932 1486.08,512.208 1506.12,508.342 1429.7,573.678 1337.79,657.822 1293.32,684.729 1313.5,648.709 1238.88,708.973 1273.82,676.223 1315.49,622.088 1319.88,629.966 1414.78,574.506 1453.9,550.494 1433.98,554.719 1485.48,526.848 1481.19,535.275 1526.63,484.332 1472.74,538.249 1451.51,565.926 1421.5,589.977 1288.79,689.824 1281.24,679.942 1200.22,742.242 1159.67,772.485 1107.55,806.915 1057.53,850.088 1063.02,836.069 1004.11,890.583 956.104,937.334 935.377,958.191 942.068,942.88 914.806,966.866 895.437,984.64 906.492,979.467 938.865,934.191 948.293,931.292 998.439,867.563 1012.62,857.445 1028.1,846.206 1001.97,878.685 1003.84,877.628 993.7,882.77 1107.41,788.105 1163.1,747.217 1177.06,740.617 1196.99,724.564 1182.72,733.044 1241.91,690.647 1300.25,663.735 1294.74,665.026 1394.92,577.824 1535.65,479.324 1512.49,504.521 1367.15,633.318 1310.08,676.463 1239.02,724.151 1251.15,700.527 1229.63,712.226 1241.97,685.46 1162.98,762.951 1158.79,755.118 1174.18,743.366 1161.82,758.887 1170.64,753.733 1144.08,765.276 1263.82,647.252 1256.53,680.81 1290.47,654.715 1253.12,700.996 1187.06,750.252 1086.61,824.7 1040.84,865.237 1113.82,786.852 1118.04,781.108 1066.16,831.562 1034.98,865.795 1021.19,880.164 1046.92,880.123 979.706,924.241 957.456,935.21 988.136,896.666 1017.3,854.122 1052.43,824.329 1122.85,762.138 1074.86,822.192 1041.95,852.883 1097.57,799.534 1081.91,832.481 1211.66,721.206 1343.66,605.279 1316.26,651.947 1285.84,690.521 1198.26,744.009 1103.17,823.505 1131.26,788.907 1138,779.966 1127.1,792.329 1204.51,728.902 1172.97,763.067 1213.57,713.73 1302.6,648.041 1365.77,594.551 1357.88,613.899 1384.4,609.754 1363.05,628.873 1288.45,680.989 1270.25,692.977 1286.78,664.692 1255.9,693.848 1336.45,621.991 1297.68,653.831 1223.15,717.88 1271.7,678.04 1292.67,663.441 1253,695.811 1170.33,763.507 1227.46,708.137 1418.29,569.136 1430.87,555.218 1461.08,536.2 1422.18,580.366 1508.56,496.088 1617.1,428.991 1659.2,418.389 1565.91,503.262 1504.58,548.958 1528.34,520.504 1475.19,555.84 1397.83,608.701 1413.45,586.34 1399.16,588.692 1351.33,633.913 1382.99,590.206 1382.35,590.094 1450.96,530.957 1470.47,545.583 1409.18,601.654 1352.42,645.497 1452.5,544.874 1390.41,603.35 1415.18,574.857 1464.38,540.93 1333.42,655.532 1375.65,613.067 1364.88,626.018 1230.71,730.772 1275.55,675.252 1284.56,678.485 1300.75,669.122 1330.7,643.807 1327.86,648.073 1386.48,588.814 1280,678.202 1283.63,680.31 1400.14,590.954 1442.37,561.453 1356.85,619.631 1314.19,674.739 1301.38,661.923 1289.82,671.5 1246.42,714.22 1241.8,721.217 1243.43,709.764 1226.74,718.288 1228.52,702.528 1323.31,632.201 1258.97,665.256 1252.79,675.147 1195.64,730.222 1144.66,764.772 1148.35,767.186 1308.03,638.686 1312.07,645.386 1346.62,618.197 1346.62,618.839 1273.47,677.796 1220.73,720.961 1235.04,690.734 1293.75,654.987 1381.71,575.779 1433.4,554.821 1547.96,477.38 1555.29,506.734 1460.86,566.596 1389.09,618.146 1334.74,652.324 1267.09,700.559 1149.09,796.231 1125.1,804.353 1060.71,854.138 1094.03,812.673 1122.81,784.422 1165.83,748.618 1155.66,771.265 1195.43,719.455 1224.81,687.536 1226.47,708.753 1207.27,724.989 1244.71,690.314 1284.47,668.077 1364.92,601.722 1422.58,569.538 1380.3,609.621 1359.61,615.514 1301.46,665.342 1260.45,684.033 1293.66,646.545 1358.62,623.322 1295.12,682.886 1288.61,675.422 1300.41,657.409 1307.66,666.572 1297.58,672.236 1281.97,671.823 1151.48,791.388 1133.61,797.782 1184.52,731.797 1145.2,769.182 1178.28,726.442 1223.75,701.764 1232.54,696.15 1326.04,634.663 1276.86,680.519 1177.34,771.391 1129.39,805.287 1124.31,798.621 1181.01,730.261 1217.08,696.583 1171.35,746.253 1201.45,720.823 1137.95,777.345 1183.64,733.693 1121.61,790.6 1087.58,812.585 1011.77,885.491 993.527,904.791 1022.76,863.027 1072.38,836.378 999.015,902.043 1161.77,746.46 1145.12,758.49 1112.73,793.668 1131.02,775.199 1128.05,781.612 1106.55,783.451 1106.23,800.326 1278.51,658.535 1264.91,679.927 1212.8,719.494 1268.55,691.243 1302.47,646.171 1371.9,601.761 1313.15,654.247 1307.37,637.892 1256.06,694.215 1163.58,779.606 1213.13,712.625 1284.32,661.853 1267.08,677.466 1243.57,703.496 1114.91,800.15 1105.92,802.998 1144.18,765.605 1109.92,794.633 1165.66,746.876 1156.75,765.252 1044.53,870.923 1050.92,855.044 1065.76,833.373 1091.29,821.492 1104.28,804.241 1207.8,701.716 1185.44,731.584 1184.83,741.914 1251.12,695.907 1333.33,599.255 1265.42,667.933 1292.33,649.112 1276.31,668.531 1389.06,578.244 1412.44,570.784 1348.67,625.553 1342.07,637.231 1529.71,488.139 1486.64,529.505 1395.07,618.784 1372.97,610.001 1348.73,630.919 1343.07,628.81 1370.02,596.028 1419.21,571.511 1473.48,537.505 1309.88,665.416 1294.37,674.465 1279.86,676.617 1233.06,711.929 1267.63,683.373 1344.78,601.744 1453.36,512.299 1266.52,685.897 1278.63,668.753 1298.16,651.756 1437.58,545.385 1382.34,604.69 1253.96,718.804 1173.99,766.363 1195.6,732.96 1183.7,736.341 1231.17,696.217 1259.04,671.748 1240.29,690.47 1245.98,685.238 1061.13,830.988 1116.27,770.507 1114.28,784.166 1085.82,814.704 1102.03,802.598 1047.02,856.959 1017.27,873.219 1068.83,812.495 1052.36,826.994 1088.6,799.816 1121.99,777.921 1157.23,752.601 1201.46,734.261 1264.73,678.575 1216.48,716.06 1181.58,754.176 1116.32,802.373 1091.22,819.305 1089.31,816.166 1091.23,810.078 1046.67,856.407 1017.08,869.702 1055.4,829.746 1034.69,851.794 1016.08,874.63 969.227,907.446 987.391,900.367 937.383,951.621 959.114,920.395 967.806,909.93 988.369,907.481 1026.87,869.465 964.832,920.878 905.679,984.913 825.067,1056.03 823.71,1045.28 816.884,1054.14 793.739,1074.31 802.064,1061.67 896.053,959.42 935.42,926.852 920.843,956.407 931.857,950.68 956.835,919.751 978.777,899.611 966.133,907.065 1050.07,829.568 1090.45,804.229 1110.7,784.798 1213.6,701.756 1199.68,729.1 1197.86,723.02 1170.77,748.187 1102.75,798.695 1056.81,848.598 1022.3,866.329 922.251,970.645 879.402,1011.59 924.648,946.147 887.546,990.862 860.759,1017.21 859.554,1009.12 851.972,1023.06 858.007,1013.58 902.962,970.61 874.044,1001.67 844.318,1030.52 904.012,966.65 964.664,898.917 995.599,882.585 1061.87,826.695 1057.81,828.127 1112.93,780.843 1086.41,806.839 1128.61,779.01 1229,676.607 1239.89,687.954 1291.64,648.106 1327.53,629.954 1352.79,608.886 1445.3,546.817 1463.34,547.02 1510,515.927 1384.21,627.45 1391.6,621.979 1247.92,734.866 1210.29,754.298 1186.56,765.242 1210.07,722.532 1168.46,761.615 1185.87,738.958 1144.99,772.123 1131.69,783.642 1133.43,780.714 1129.45,782.226 1132.76,778.511 1054.73,836.163 1037.7,854.534 1015.57,887.031 1011.82,867.42 1058.46,828.926 1127.4,768.825 1245.97,669.287 1262.78,669.225 1332.83,610.896 1303.18,652.996 1180.17,745.011 1118.75,802.213 1059.14,859.929 1045.36,861.232 1080.23,821.31 1016.25,878.561 1046.89,849.232 1080.07,809.82 896.76,975.388 949.757,937.171 949.749,933.349 989.537,893.114 1023.2,858.575 966.104,926.137 960.099,933.201 1006.36,885.375 926.345,957.715 927.877,968.178 963.009,925.433 1006.74,903.306 996.656,894.446 925.088,955.58 912.445,969.152 815.437,1070.63 785.024,1092.06 801.612,1067.83 875.229,986.45 895.456,967.926 916.104,953.787 865.267,1004.08 854.415,1025.97 814.019,1064.44 878.694,982.534 1002.68,861.904 1042.13,838.736 1046.02,842.666 983.376,908.017 1001.96,882.44 1090.64,802.419 1093.86,807.488 1194.9,706.458 1160.14,755.218 1171.01,742.565 1076.16,842.08 1168.73,757.669 1177.58,754.502 1258.35,675.911 1331.94,623.077 1225.24,720.308 1183.54,764.078 1077.86,847.815 982.488,933.338 956.189,942.697 923.713,960.602 913.23,966.416 885.574,993.616 901.785,969.407 880.286,999.8 895.015,971.063 869.807,1003.12 812.726,1066.11 821.117,1057.02 787.417,1083.92 791.119,1081.56 852.682,1018.12 893.793,975.769 894.707,971.775 979.513,887.537 989.282,890.53 1026.05,859.311 973.821,914.176 1064.04,810.391 1096.81,789.048 1119.46,774.808 1282.97,623.495 1291.3,645.709 1322.98,624.133 1240.18,705.798 1181.19,752.057 1069.12,844.324 1086.01,822.989 1057.48,848.794 1062.37,840.233 1060.93,839.424 1151.74,744.161 1229.08,695.873 1296.75,640.032 1245.94,686.311 1227.92,726.322 1176.25,760.739 1091.1,831.791 1096.75,805.535 1111.71,787.832 1028.46,875.688 1012.12,876.879 983.608,908.604 971.573,913.507 997.895,884.422 965.976,916.721 954.341,928.324 964.105,911.465 956.05,917.239 902.453,980.179 897.645,972.867 940.698,935.551 941.683,932.777 924.228,933.784 949.993,921.731 977.317,901.117 968.04,906.398 888.762,994.302 920.091,946.256 918.852,949.928 928.466,936.302 879.159,1000.1 887.059,986.439 944.172,924.07 952.023,910.605 881.491,992.179 850.129,1032.42 809.992,1070.69 795.91,1081.12 825.168,1048.87 788.254,1080.45 828.892,1037.97 783.079,1095.09 749.503,1128.27 800.651,1061.07 884.286,974.038 837.923,1033.72 834.87,1034.55 885.401,979.582 886.699,980.697 930.105,930.345 975.687,899.446 1071.1,800.183 1038.54,855.992 1095.15,802.605 1057.31,836.58 1034.63,858.089 1060.98,839.502 1185.98,730.13 1178.29,746.357 1313.74,630.823 1275.87,687.046 1230.88,726.62 1217.29,732.638 1265.61,687.079 1250.98,692.427 1146.69,778.059 1151.55,771.648 1300.99,650.834 1225.01,728.873 1152.2,786.164 1157.36,772.157 1129.72,796.04 1131.71,783.222 1228.54,683.216 1277.08,647.09 1370.79,578.758 1393.55,576.191 1473.29,523.793 1558.62,471.502 1514.19,532.516 1331.78,669.225 1372.48,611.992 1331.36,649.496 1326.63,642.845 1321.23,646.966 1332.64,627.767 1398,579.859 1411.25,566.023 1281.08,678.606 1248.61,700.773 1181.92,761.413 1137.31,781.326 1149.86,769.28 1198.57,722.367 1184.58,729.305 1165.88,758.366 1148.34,750.939 1080.53,815.966 1129.78,777.123 1160.1,756.018 1207.84,712.899 1305.28,645.1 1305.24,668.565 1319.81,637.928 1336.56,628.316 1420.34,576.761 1447.75,539.702 1443.51,549.698 1411.78,559.265 1380.49,593.653 1397.85,588.291 1497.04,527.206 1355.99,639.896 1402.24,582.135 1334.03,628.506 1316.03,661.656 1202.88,757.633 1178.87,758.419 1115.97,804.363 1058.22,851.863 1045.31,847.276 1023.09,874.588 991.175,901.181 1006.7,882.147 1077.85,800.385 1098.84,789.051 1069.46,827.263 1012.48,877.685 880.438,1000.1 892.111,976.761 957.591,911.7 892.405,984.913 917.067,949.163 919.33,950.995 875.159,999.028 914.622,943.373 938.113,932.807 871.22,1010.75 904.532,973.651 856.416,1023.92 880.521,989.143 942.19,922.738 923.382,954.845 995.984,868.867 1024.02,856.356 1080.61,803.61 1141.95,755.982 1157.15,738.086 1091.63,813.847 1096.17,814.528 1034.36,876.135 1108.94,788.4 1143.66,745.276 1037.42,832.88 1056.58,826.628 1100.45,804.65 1063.12,845.868 990.55,899.206 1009.6,871.185 1122.18,768.799 1168.32,735.543 1183.13,732.862 1078.6,849.78 1031.58,869.104 1060.07,832.313 1055.22,841.635 1048.47,843.4 1054.13,828.518 1019.43,859.325 1027.59,853.278 1159.24,741.873 1163.55,753.163 1111.35,800.11 1072.68,838.353 1103.43,804.854 1179.6,736.782 1124.8,784.579 1214.99,711.323 1163.75,758.622 1228.16,685.771 1257.94,675.297 1317.84,622.459 1412.71,549.818 1461.5,519.13 1511.47,502.336 1427.29,592.735 1425.57,575.455 1413.29,589.827 1453.78,557.219 1343.09,649.159 1390.57,585.71 1344.54,630.903 1347.85,631.095 1317.18,646.54 1354.18,612.117 1339.32,630.355 1262.44,697.566 1217.86,710.966 1159.52,762.051 1168.38,740.439 1124.35,792.466 1114.05,791.285 1113.53,791.88 1121.37,783.505 1147.8,757.111 1123.71,782.371 1129.56,791.718 1175.82,731.009 1138.82,766.208 1048.12,845.083 1071.6,825.279 1102.27,802.052 1267.75,663.228 1258.15,686.193 1214.82,725.536 1166.18,744.567 1130.41,778.973 1023.09,879.24 1032.09,857.723 1092.64,783.726 1087.25,805.39 1167.33,728.621 1125.64,776.268 1092.26,813.674 981.862,923.435 910.337,986.801 889.726,994.772 904.275,968.13 942.484,923.12 917.428,961.003 927.173,955.632 945.373,938.406 980.066,892.701 964.825,924.48 954.39,928.322 1024.32,858.175 1051.27,831.198 1076.92,804.94 1171.4,728.764 1174.61,744.358 1182.09,732.788 1234.17,716.625 1168.31,780 1089.45,848.133 1118.99,796.507 1138.78,769.551 1069.24,844.769 1056.17,852.942 1054.66,840.585 1114.29,797.396 1112.41,805.44 1021.06,884.852 1112.61,775.446 1087.05,814.438 1126.41,769.543 1129.85,766.549 1178.29,724.433 1197.91,720.628 1213.83,710.887 1275.42,655.218 1229.49,705.68 1241.92,687.159 1294.99,642.522 1307.92,653.185 1343.75,615.317 1423.2,550.706 1314.74,660.015 1321.3,635.244 1323.7,638.256 1309.59,657.903 1385.86,583.688 1479.31,520.504 1442.44,562.934 1502.37,533.863 1603.01,459.18 1522.68,520.274 1440.89,579.041 1269.26,719.217 1231.35,731.757 1171.43,773.923 1154.57,777.569 1091.32,831.07 1053.56,854.811 1052.28,847.081 1071.42,825.315 1067.52,830.169 1067.01,839.254 1177.77,734.276 1195.59,719.754 1172.62,745.961 1186.05,730.344 1124.56,789.072 1102.79,798.328 1118.6,784.869 1233.93,668.724 1223.12,709.088 1188.33,746.939 1298.14,644.896 1303.19,651.055 1378.42,583.351 1332.45,646.029 1212.41,747.705 1161.17,784.674 1029.43,896.226 1060.39,842.001 1113.3,784.432 1157.21,746.82 1164.39,744.015 1230.44,685.464 1193.08,734.532 1195.43,738.668 1298.36,636.485 1398.53,577.889 1384.02,599.856 1408.97,579.168 1412.32,584.847 1367,618.811 1331.66,644.226 1260.48,708.816 1248.29,703.416 1199.34,737.113 1197.6,726.422 1153.82,784.459 1172.73,749.665 1108.44,806.591 1089.36,818.89 1051.7,860.66 1022.22,882.517 1175.71,727.908 1271.09,653.279 1231.09,699.756 1219.19,722.125 1241.92,710.501 1322.34,624.45 1467.73,539.141 1435.91,581.826 1309.14,685.272 1237.52,733.097 1190.29,760.849 1174.09,763.537 1140.76,783.738 1179.03,747.036 1234.51,697.852 1216.71,721.709 1151.98,777.879 1197.16,723.375 1299.82,624.386 1329.53,621.494 1239.56,717.262 1261.99,683.639 1262.05,690.042 1324.73,627.37 1379.91,594.489 1325.93,649.732 1349.44,622.334 1217.38,740.836 1164.8,780.748 1099.82,830.797 1145.24,772.45 1162.45,756.928 1118.73,799.388 1146.96,766.075 1176.06,732.054 1260.75,653.507 1266.27,664.341 1221.09,708.239 1200.07,728.918 1259.4,670.438 1338.59,612.2 1394.76,566.449 1494.42,498.479 1537.24,482.308 1568.64,469.117 1501.35,533.516 1501.34,542.215 1454.61,573.738 1486.69,532.837 1463.81,560.555 1605.71,445.323 1670.98,411.311 1673.18,416.701 1573.27,507.375 1500.13,551.647 1519.52,523.076 1466,557.588 1473.64,544.328 1402.08,599.864 1418.35,574.363 1417.93,574.63 1441.68,553.709 1412.23,593.737 1405.24,582.158 1437.52,552.339 1386.69,614.588 1285.47,693.086 1186.29,770.734 1205.29,729.577 1275.3,650.999 1342.17,603.607 1312.94,649.383 1287.89,686.387 1405.01,574.657 1534.01,481.208 1446.34,576.008 1351.34,645.606 1346.4,638.935 1284.64,694.361 1366.24,591.744 1299.01,660.607 1210.51,731.076 1157.06,776.64 1149.84,769.546 1108.05,813.736 1043.16,860.614 1046.29,848.723 1062.67,831.852 1119.91,778.167 1140.92,761.655 1189.82,720.266 1274.6,655.399 1324.57,632.053 1304.77,662.472 1387.62,585.832 1447.3,545.404 1362.26,621.954 1366.16,616.24 1374.04,613.523 1348.25,628.328 1307.41,671.121 1283.16,672.665 1348.51,608.852 1242.39,699.716 1220.25,718.719 1181.52,736.701 1181.37,735.767 1238.74,686.802 1136.62,789.798 1157.36,745.248 1149.54,757.187 1253.52,668.19 1302.02,630.69 1326.19,616.257 1415.06,552.759 1390.82,588.429 1347.99,637.271 1261.84,706.325 1217.73,731.684 1129.78,809.726 1125.89,789.047 1089.21,823.342 1080.32,822.281 1067.08,834.767 1076.26,817.339 1152.53,770.249 1199.29,725.792 1201.16,718.964 1129.8,789.507 1143.67,776.28 1168.12,745.323 1134.91,784.546 1037.64,865.699 1046.79,836.601 1080.29,814.964 1098.2,811.778 1089.14,820.529 1149.91,769.998 1122.04,797.191 1123.56,787.998 1124.7,768.528 1033.68,856.741 1052.07,837.097 1004.42,876.648 1099.28,805.582 1090.79,827.44 996.329,901.817 989.408,898.667 991.001,888.983 1085.17,805.35 1167.14,726.44 1085.01,814.398 1099.98,801.519 1186.38,730.067 1262.81,678.129 1444.99,536.647 1495.97,512.619 1459.52,548.508 1486.83,530.304 1453.56,562.282 1537.99,504.189 1512.53,519.58 1412.11,611.896 1403.94,589.018 1433.27,566.012 1475.78,527.823 1521.05,506 1426.15,581.101 1331.31,663.699 1391.15,592.399 1231.43,720.588 1227.92,713.369 1295.55,640.487 1390.38,565.201 1318.14,648.476 1298.18,672.983 1331.69,632.586 1375.79,612.286 1367.58,623.389 1398.17,597.404 1455.6,553.762 1295.08,678.889 1215.57,743.161 1232.64,710.639 1228.66,704.892 1316.92,626.306 1384.31,588.91 1339.72,637.415 1436.87,563.818 1426.43,556.847 1406.2,577.814 1427.95,559.783 1468.98,524.866 1355.62,627.652 1360.61,609.483 1519.72,487.785 1479.4,529.113 1381.41,604.929 1395.39,581.533 1454.22,529.353 1504.11,509.652 1270.92,704.352 1261.98,707.489 1163.48,776.873 1162.2,762.161 1179.58,735.827 1112.83,796.771 1110.65,801.529 1250.06,675.479 1290.71,643.414 1307.07,635.73 1272.58,674.511 1144.26,797.743 1088.95,832.27 1170.78,734.652 1148.87,770.691 1172.42,735.816 1137.12,773.277 1164.29,747.198 1136.26,781.61 1103.72,806.036 1156.66,749.747 1162.42,757.923 1152.54,778.969 1147.07,767.889 1112.32,801.809 1169.69,744.121 1251.79,695.296 1286.63,661.276 1202.71,736.196 1191.53,738.619 1183.92,749.014 1281.56,649.525 1309.74,632.984 1371.68,591.766 1351.49,618.249 1321.39,651.176 1281.7,673.647 1308.74,650.177 1260.77,686.315 1298.16,655.28 1242.47,701.517 1246.89,693.938 1247.16,698.243 1195.21,745.957 1132.98,795.471 1159.77,750.825 1184.02,729.103 1161.1,760.05 1160.8,753.325 1225.01,696.882 1303.84,640.739 1270.78,677.174 1316.36,630.553 1239.58,703.058 1153.47,764.452 1178.03,738.256 1132.56,790.433 1139.63,767.437 1120.02,791.135 1128.19,776.427 1116.23,790.311 1071.27,841.275 1050.37,853.295 1063.91,826.403 977.092,919.252 992.751,898.252 979.705,901.911 912.332,978.113 979.4,900.459 1029.09,851.741 1072.28,816.04 1065.92,827.083 1016.3,871.671 980.951,897.416 1069.28,807.805 1048.28,841.549 1125.09,784.063 1160.97,744.877 1081.09,826.218 1066.87,823.958 1003.61,909.036 1073.58,844.516 1053.84,842.548 1073.99,842.025 1046.31,871.461 1130.06,795.691 1165.3,769.537 1330.81,633.721 1427.87,567.748 1412.2,587.821 1382.74,610.367 1301.35,673.184 1229.34,721.169 1166.78,763.476 1070.24,839.15 1073.48,829.383 1097.84,801.069 1117.6,785.528 1160.04,762.362 1163.75,748.305 1160.84,760.772 1041.88,861.389 1023.7,872.671 1045.03,843.61 998.122,881.637 963.313,910.302 1047.94,820.124 1109.48,781.489 1184.32,716.294 1238.14,687.586 1376.27,585.035 1339.55,624.848 1321.4,644.695 1273.29,689.581 1247.15,712.467 1257.05,696.957 1418.06,554.211 1474.66,528.443 1495.15,519.992 1483.27,537.522 1493.32,519.62 1447.48,551.584 1507.12,502.704 1519.95,507.366 1603.68,441.661 1672.48,410.437 1580.05,489.038 1563.82,491.072 1553.06,492.812 1575.68,471.817 1599.66,451.551 1468.33,573.078 1399.05,620.287 1368.21,623.002 1335.71,640.296 1261.83,699.486 1218.73,733.224 1198.7,736.97 1223.03,707.894 1351.35,599.04 1285.53,670.835 1243.85,715.011 1202.26,742.828 1201.98,733.043 1157.97,768.405 1074.99,841.764 1111.63,802.969 1104.59,803.131 1073.44,836.723 965.484,933.554 919.388,972.905 934.179,940.642 955.927,914.097 897.168,979.793 955.213,909.757 967.328,902.208 943.446,932.67 1011.93,867.153 1007.21,878.178 992.385,887.34 1037.55,848.338 1110.82,776.299 1179.27,733.942 1272.09,651.591 1241.33,688.878 1265.19,663.989 1208.19,721.404 1330.54,640.417 1351.42,616.925 1262.87,711.282 1292.09,675.616 1288.97,662.088 1367,600.746 1351.53,619.373 1316.79,634.707 1364.61,609.042 1469.59,527.942 1640.42,410.046 1723.03,364.432 1656.97,415.405 1482.76,563.064 1491.18,531.608 1402.6,593.171 1430.95,554.821 1492.62,501.141 1400.65,580.598 1375.51,598.18 1454.7,545.086 1401.15,588.277 1317.7,651.338 1306.47,658.4 1239.22,705.483 1209.18,724.627 1228.05,709.727 1199.52,733.189 1219.31,720.423 1171.72,761.139 1066.67,851.386 1034.62,877.305 1031.36,871.507 1074.25,810.662 1050.58,839.042 1071.21,815.34 1026.26,853.889 989.786,878.698 1017.94,848.413 1013.73,863.842 960.297,926.35 932.003,950.601 1070.97,806.087 1077.42,804.24 1006.71,870.587 1066.32,812.459 1026.37,858.856 998.395,883.224 968.556,920.356 929.511,953.275 951.572,925.709 1048.82,823.121 1067.19,817.005 1090.76,808.158 1085.16,814.211 1041.73,855.339 1203.35,704.739 1323.85,617.323 1327.92,625.446 1300.83,663.821 1313.09,674.369 1321.93,644.442 1291.5,656.649 1407.96,575.806 1380.74,597.376 1374.91,598.689 1527.33,448.716 1565.54,465.327 1487.51,550.431 1397.83,614.803 1322.85,664.181 1284.36,688.404 1302.96,662.001 1277.23,678.65 1241.4,704.509 1201.24,744.362 1075.85,857.384 1091.51,823.847 1061.23,843.539 1061.44,833.901 1075.27,813.74 1155.89,738.248 1161.01,742.535 1110.69,794.746 1093.32,802.981 1105.49,797.715 1183.29,710.383 1283.89,654.894 1275.21,674.568 1246.61,704.637 1148.09,792.009 1172.37,754.198 1116.92,805.112 1108.19,806.547 1046.66,858.561 1028.99,872.037 1017.24,878.216 1001.01,887.759 990.058,892.944 1021.16,862.962 1017.18,870.232 1068.07,824.361 1171.33,729.169 1176.34,744.337 1182.93,741.645 1172.28,759.135 1107.93,792.083 1120.06,785.338 1129.93,776.29 1064.64,839.308 936.393,954.783 944.279,934.349 973.028,899.064 933.494,942.303 913.035,966.86 912.84,962.917 907.883,968.697 1029.15,854.645 1077.8,817.42 1075.87,828.472 1042.51,855.167 1092.88,812.808 1089.48,808.778 1111.26,785.792 1117.96,790.694 1226.29,679.859 1191.16,701.521 1250.31,646.708 1115.35,772.231 1137.11,749.312 1111.21,762.089 1187.46,712.158 1116.56,797.238 1099.17,790.411 1219.16,698.543 1180.92,731.554 1096.65,802.952 1113.92,788.745 1280.71,655.529 1374.51,584.667 1306.76,647.639 1397.73,571.663 1392.13,593.294 1240.96,728.907 1191.92,758.142 1128.31,803.417 1192.71,725.211 1206.71,718.43 1141.26,770.891 1203.24,716.05 1314.1,629.49 1415.4,546.683 1412.13,556.848 1479.1,522.349 1290.05,679.329 1200.65,748.787 1156.32,792.673 1086.82,842.807 1115.3,794.272 1056.96,850.645 1089.39,819.514 1145.18,769.697 1177.8,739.007 1311.14,645.499 1337.73,629.855 1414.96,563.782 1282.19,684.157 1201.88,750.215 1220.7,717.33 1189.25,736.347 1174.56,752.389 1062.84,852.47 1015.18,888.339 989.273,898.485 986.575,898.999 988.54,898.975 939.771,940.8 910.758,965.587 872.36,1005.75 833.72,1046.48 808.066,1068.22 874.888,985.029 871.017,987.259 862.381,1003.86 900.261,959.31 899.07,978.503 868.614,1006.7 925.894,947.924 971.994,916.153 1023.81,850.569 1082.08,809.798 1055,839.38 1018.28,875.192 1047.04,844.171 1058.39,848.469 1049.44,838.199 1103.81,778.207 1063.45,828.881 1087.62,816.259 1097.55,804.327 1042.52,849.399 1002.82,875.633 957.602,923.878 893.335,990.81 898.961,981.813 875.78,1013.12 907.884,964.962 884.377,991.751 917.723,945.903 849.718,1019.7 802.303,1073.22 794.529,1073.24 829.778,1031.84 902.789,959.47 900.479,962.485 911.897,963.524 936.279,940.342 1011.69,866.409 1061.56,824.041 1045.01,836.113 1104.75,786.431 1158.5,739.828 1161.43,745.354 1175.31,748.262 1105.93,814.392 1077.94,818.181 1154.49,745.201 1160.85,752.986 1105.19,808.521 1106,802.755 1085.81,826.627 1107.51,784.339 1126.85,773.663 1039.35,853.642 1076.47,821.249 1095.41,813.934 954.786,926.309 999.393,880.782 1118.93,777.246 1116.66,785.701 1102.43,806.306 1040,872.779 927.933,971.475 918.192,965.41 880.728,999.802 837.62,1046.23 859.408,1013.31 853.095,1019.54 834.737,1036.7 781.709,1092.21 794.876,1074.81 762.274,1107.83 742.758,1132.2 741.555,1130.49 780.98,1079.47 769.27,1097.38 802.928,1058.44 836.164,1021.59 825.518,1042.42 809.843,1063.37 833.072,1036.77 822.959,1047.72 858.646,1010.81 849.057,1018.77 905.372,965.304 946.049,916.509 1012.69,854.923 1013.73,868.104 1045.36,836.418 1078.77,796.655 1107.94,789.07 1140.09,763.469 1137.77,775.093 1173.31,746.695 1139.22,782.868 1154.11,770.597 1141.62,779.185 1155.61,784.656 1065.62,857.523 1042.95,866.087 1031.82,865.831 960.438,931.971 924.321,955.139 862.926,1024.51 862.819,1016.74 881.412,993.326 908.722,957.147 990.113,875.388 917.647,952.547 888.389,980.693 855.038,1018.27 968.396,897.941 977.952,892.423 1000.77,876.877 985.185,895.228 976.897,907.8 1004.09,884.936 963.148,915.644 885.286,990.765 876.478,999.332 888.434,977.841 920.291,943.729 923.995,938.52 955.423,909.783 1054.67,826.258 1125.73,771.471 1176.92,734.518 1257.42,664.348 1337.11,622.022 1308.3,658.037 1358.04,619.25 1293.84,666.198 1189.17,745.829 1187.45,739.902 1174.42,748.451 1169.01,749.563 1116.83,789.021 999.143,890.192 1024.64,872.312 1051.74,852.241 1147.34,749.109 1181.59,717.659 1199.01,711.827 1276.09,636.403 1292.75,661.235 1276.41,668.148 1226.76,718.78 1249.25,684.14 1190.05,743.25 1112.95,814.48 1145.71,775.036 1167.22,751.288 1100.65,803.683 1089.39,809.047 1128.08,784.139 1084.56,827.807 1046.67,861.161 998.991,899.559 1018.75,865.171 1061.78,821.65 1069.48,824.011 1168.69,733.668 1149.7,761.23 1224.39,697.024 1220.13,709.428 1253.8,690.287 1251.79,686.327 1230.01,696.388 1147.48,767.598 1037.66,863.343 1027.71,855.12 1024.21,850.187 998.914,869.072 996.257,872.029 1102.26,780.46 1075.76,811.609 1139.83,760.351 1209.73,722.885 1178.73,749.967 1079.68,831.947 1128.65,780.089 1213.7,691.525 1297.85,635.709 1334.48,619.845 1329.44,633.426 1269.62,688.996 1322.15,629.208 1268.11,687.209 1293.14,671.046 1386.43,590.47 1342.44,635.395 1229.84,712.16 1332.3,617.022 1246.93,691.38 1271.73,681.11 1308.16,656.309 1278.06,648.475 1281.91,656.547 1188.61,745.312 1106.41,807.677 1008.92,892.494 1074.5,817.694 1018.87,880.324 1049.88,853.576 1100.22,793.492 1102.22,780.984 1061.59,831.776 1164.58,746.944 1135.28,787.532 1118.43,795.085 1200.76,740.168 1207.24,726.664 1165.12,755.386 1131.97,779.939 1127.04,790.759 1149.44,775.982 1076.69,830.434 1023.57,883.219 1046.01,841.08 1117.55,795.815 1093.44,817.867 1087.97,815.812 1119.74,797.665 1129.74,795.853 1102.48,815.057 1065.3,820.889 984.353,903.082 937.703,942.527 957.023,915.264 1015.51,857.591 1024.2,857.591 1083.37,804.939 1012.79,882.861 1061.49,825.442 1023.47,862.125 1013.29,883.532 982.078,903.716 1002.33,887.588 1135.96,757.03 1238.95,688.646 1262.08,684.491 1322.19,631.956 1279.94,673.418 1343.61,607.214 1316.6,630.275 1203.57,715.751 1208.53,721.057 1309.62,636.729 1231.74,700.115 1241.89,703.78 1169.07,740.196 1189.09,723.465 1159.75,761.059 1192.36,734.748 1223.85,709.01 1253.31,676.142 1171.45,738.677 1085.99,827.275 1012.65,882.828 998.144,886.482 1046.6,833.734 1082.22,809.223 1049.57,840.57 1035.93,852.105 1037.88,837.011 1103.73,779.841 1157.99,738.49 1170.94,727.582 1209.09,692.822 1183.28,725.887 1191.83,719.972 1173.02,732.686 1160.45,738.685 1085.63,814.996 940.198,938.119 938.36,938.991 1052.4,829.163 1079.05,813.982 1081.37,822.267 1058.07,839.66 1148.82,777.212 1193.28,730.849 1135.01,775.274 1156.75,749.075 1183.28,748.444 1105.47,816.448 1074.41,830.919 1069.17,829.788 1073.99,818.766 1062.93,825.028 1011.23,875.524 1146.79,738.594 1058.66,835.627 1051.65,835.557 1120.59,781.979 1145.77,751.387 1091.89,814.97 1140.55,765.524 1189.34,720.937 1397.53,536.292 1461.51,513.883 1500.15,487.545 1536.59,490.435 1615.34,450.82 1634.44,430.118 1597.36,471.964 1555.25,511.055 1558.3,497.859 1531.9,508.869 1404.13,619.543 1359.64,642.764 1329.79,653.667 1273.96,692.776 1223.82,728.241 1180.67,757.702 1146.89,777.152 1133.09,784.092 1152.98,757.068 1175.79,743.286 1148.82,769.25 1080.19,835.474 1148.48,752.58 1129.62,786.132 1105.15,806.374 1082.89,827.77 1067.95,839.096 1082.21,822.533 1079.36,820.535 1013.03,891.06 1096.36,807.336 979.674,907.445 1107.42,781.493 1084.31,818.9 1145.23,750.818 1171.87,723.279 1255.37,676.83 1224.18,727.908 1200.67,732.849 1211.58,713.577 1283.25,663.984 1202.14,747.227 1222.89,726.024 1160.37,757.477 1195.04,725.881 1250.53,680.424 1222.67,719.804 1188.16,744.698 1113.17,808.254 1176.48,731.96 1130.3,789.551 1122.37,792.757 1203.95,724.585 1220.14,712.725 1220.83,715.542 1238.63,703.384 1303.28,644.317 1384.15,577.76 1300.2,673.888 1206.84,743.333 1157.63,768.866 1121.52,816.595 1110.92,816.158 1181.27,730.105 1189,727.083 1162.94,763.557 1184.11,740.71 1143.61,768.87 1158.82,759.012 1169.22,747.619 1175.06,739.903 1112.44,809.877 1002.27,908.888 987.16,911.101 969.334,922.715 999.821,882.466 1054.41,826.787 1206.57,696.056 1194.67,724.149 1113.54,806.319 1087.54,822.24 1132.06,765.395 1173.42,728.214 1207.57,705.207 1299.48,627.822 1280.02,672.682 1214.76,732.8 1267.05,670.445 1290.11,653.271 1348.29,620.18 1443.65,538.687 1380.56,593.456 1449.9,531.594 1515.08,499.756 1428.14,567.335 1454.38,541.983 1462.83,535.626 1393.09,597.312 1411.4,572.885 1447.36,556.557 1282.5,690.177 1272.05,689.668 1277.05,669.552 1292.14,653.079 1232.83,701.048 1204.08,724.373 1249.19,686.582 1179.05,769.586 1169.57,758.895 1105.42,811.139 1135.32,780.671 1224.28,693.273 1293.07,661.631 1347.77,615.696 1277.18,689.953 1439.19,540.994 1437.81,564.815 1404.51,583.442 1444.22,554.199 1643.72,428.05 1651.6,432.61 1541.29,522.719 1451.68,578.245 1412.4,602.92 1412.02,587.874 1347.25,650.412 1227.86,744.7 1183.14,769.558 1131.93,799.034 1114.2,803.608 1091.61,822.735 1059.81,844.939 999.116,900.266 953.604,944.934 1005.06,876.072 1037.32,842.645 998.786,887.301 1000.41,884.4 1111.92,771.439 1172.98,737.456 1084.57,811.672 1154.74,747.881 1076.68,828.95 1137.42,767.661 1228.7,692.079 1093.73,819.264 1048.13,860.68 997.07,905.408 1012.29,875.492 1038.35,836.806 1060.59,830.515 1025.76,871.276 1059.65,838.247 1056.68,835.901 1022.59,862.602 1066.39,831.457 1113.55,800.112 1193.08,723.397 1056.6,833.352 1063.72,838.86 1060.72,834.88 1079.61,827.934 1002.7,918.905 1005.55,913.532 1033.89,851.017 1055.99,848.086 1076.52,825.863 1153.35,773.279 1157.98,769.852 1155.06,774.09 1152.14,775.528 1062.13,828.64 1054.65,850.615 1147.6,746.549 1088.04,811.668 1095.89,802.676 1124.82,781.92 1186.84,730.726 1167.92,757.238 1206.8,711.729 1213.64,700.426 1265.63,684.517 1296.82,662.184 1247,682.679 1305.73,643.057 1309.35,651.884 1242.62,701.709 1239.64,696.064 1196.35,755.169 1184.65,748.271 1233.61,693.67 1291.06,652.69 1306.53,641.741 1204.28,740.592 1180.86,751.927 1128.29,795.223 1151.68,762.991 1186.35,729.292 1114.16,800.388 1175.44,745.804 1257.13,677.274 1265.17,678.435 1327.41,650.917 1247.81,717.479 1284.53,654.183 1289.38,649.512 1256.33,677.206 1316.2,627.455 1297.89,641.38 1125.01,772.127 1100.22,805.256 1110.51,792.228 1090.65,806.323 1153.18,758.621 1201.84,730.122 1182.97,745.996 1219.24,720.155 1252.5,687.981 1447.89,533.551 1582.07,438.45 1496.25,533.194 1579.51,455.75 1747.55,358.94 1690.6,411.93 1634.61,456.589 1578.74,492.257 1554.31,502.273 1426.28,600.721 1389.22,617.044 1386.05,601.635 1402.87,580.713 1344.76,636.272 1379.95,598.704 1286.63,684.121 1292.37,668.888 1327.77,632.525 1247.41,700.573 1144.65,796.813 1081.66,847.351 1155.24,758.082 1146.27,771.998 1104.85,804.62 1101.51,797.895 1074.65,822.673 1047.95,843.515 1029.23,856.405 950.33,941.551 906.662,980.288 909.057,966.793 974.251,895.625 987.937,887.529 985.95,894.495 1009.65,868.702 1103.12,786.996 1143.96,763.831 1121.97,786.029 1125.09,783.992 1097.95,833.649 1178.64,759.748 1117.91,803.965 1070.78,836.213 978.465,914.572 943.766,948.735 972.36,908.242 991.93,879.657 867.689,990.572 782.195,1081.96 792.576,1073.97 824.922,1038.71 890.64,974.815 872.67,1001.79 921.525,952.112 896.618,974.743 870.894,996.113 863.405,999.019 912.547,947.392 954.094,914.388 1030.8,848.656 982.877,906.262 956.423,923.512 984.887,886.266 904.841,964.285 934.792,937.327 918.083,954.369 992.826,895.737 1034.93,856.225 1072.71,829.216 1041,856.556 1040.66,839.593 949.016,929.418 987.197,890.563 1003.98,890.283 1098.75,799.034 1046.92,849.403 1054.37,836.347 1039.2,857.488 994.375,893.793 1185.85,708.302 1272.35,638.896 1217.14,709.169 1256.21,684.392 1356.24,595.033 1323.25,628.319 1522,489.366 1523.66,502.037 1535.77,492.586 1596.07,465.591 1500.99,551.083 1581.29,470.395 1576.06,470.369 1427.91,590.844 1398.22,599.276 1429.53,568.11 1346.77,638.481 1306.01,658.301 1355.23,610.945 1273.35,675.449 1230.75,715.941 1198.01,744.532 1149.65,790.305 1162.93,766.709 1085.59,831.333 1115.57,791.999 1066.79,837.751 1043.95,853.125 1056.95,829.998 1097.65,811.284 1128.25,779.861 1062.93,842.944 1120.67,779.858 1072.75,823 1156.89,751.255 1159.05,750.147 1217.48,695.861 1284.51,648.74 1284.99,661.878 1197.4,744.97 1116.96,801.727 1053.39,855.277 1030.29,870.745 1044.81,859.439 1092.19,807.294 1055.21,827.266 1087.35,803.716 1188.45,716.266 1070.5,820.69 982.467,901.084 909.081,969.955 934.217,935.376 938.79,934.68 960.327,915.495 985.279,894.048 955.727,916.65 1019.85,858.403 1112.69,773.644 1136.81,769.104 1108.62,808.391 1118.2,802.75 1109.07,803.028 1062.72,842.255 1029.2,849.049 1069.43,818.322 990.581,880.251 914.473,947.921 893.05,976.078 839.196,1040.41 768.089,1107.05 731.505,1147.62 757.412,1105.88 768.486,1092.52 725.137,1147.46 697.059,1178.01 722.533,1143.68 736.658,1130.37 759.337,1101.68 746.241,1120.38 782.518,1079.05 805.181,1055.5 821.871,1041.2 902.196,955.377 950.249,913.002 913.179,961.872 953.189,913.016 926.899,945.897 1008.28,855.562 1128.12,736.052 1231.18,662.9 1137.78,779.428 1152.15,770.301 1086.52,834.07 1063.74,842.03 1170.3,726.804 1175.2,735.46 1311.71,607.374 1299.19,639.517 1277.47,662.656 1317.32,638.486 1227.27,724.273 1178.52,762.617 1107.48,815.162 1071.25,848.198 946.138,974.489 937.498,962.181 996.654,884.881 966.154,921.6 1015.94,860.257 1007.2,881.516 990.046,898.494 966.539,913.641 979.797,899.481 994.878,886.72 959.298,926.034 944.739,936.496 988.991,886.732 1036.4,849.364 979.831,910.688 987.74,894.941 941.365,935.686 945.779,936.918 1022.48,859.137 1107.92,781.118 1103.9,789.617 1150.17,768.578 1240.53,688.311 1113.51,780.719 1236.21,664.097 1361.05,583.101 1367.72,599.458 1360.12,607.159 1371.49,599.5 1214.07,731.408 1151.1,784.719 1091.83,822.54 1064.48,850.182 1034,865.962 1028.69,856.664 1029.59,861.268 941.634,951.572 960.417,919.001 891.563,992.561 873.059,1005.21 883.931,987.154 935.37,935.242 958.532,916.864 956.863,932.366 969.691,916.108 1024.5,869.06 1029.15,863.593 1034.1,863.097 1204.77,710.706 1147.4,765.363 1168.57,756.754 1168.63,749.942 1217.71,726.732 1167.58,768.89 1192.8,734.751 1179.28,737.316 1264.04,673.131 1305.29,633.467 1226.53,724.751 1185.66,757.095 1160.45,762.334 1186.16,731.653 1160.47,752.027 1211.56,712.723 1206.54,724.551 1196.4,730.612 1216.59,727.891 1092.53,842.202 1032.17,882.48 983.131,923.887 1000.3,889.557 931.169,951.84 958.207,916.549 951.425,925.816 908.148,968.552 937.893,931.8 984.984,890.009 968.062,907.351 978.982,895.527 1005.91,864.933 993.917,882.148 1050.85,832.816 940.84,945.615 855.712,1031.41 844.758,1034.17 840.317,1036.46 902.741,957.873 853.426,1017.2 821.888,1056.32 853.545,1013.43 843.699,1016.3 909.745,941.973 961.563,907.076 1014.75,858.425 1064.97,809.039 1052.92,831.381 1125.6,772.71 1133.49,772.997 1178.21,743.558 1070.26,834.728 1090.08,809.911 1086.17,809.592 1041.79,849.078 1092,808.621 1050.27,848.606 1113.28,819.547 1076.22,833.748 1109.85,806.432 1034.81,882.965 1053.94,859.833 974.194,919.569 898.696,988.173 899.238,979.957 933.22,942.012 955.173,918.116 874.294,1005.61 891.938,984.204 896.813,973.856 832.753,1046.96 818.349,1048.06 850.191,1008.83 830.223,1038.72 846.442,1015.87 860.588,998.494 896.153,961.644 978.155,892.512 1053.75,826.782 1115.27,782.508 1134.67,776.163 1247.58,659.395 1399.21,545.241 1318.32,637.892 1210.88,745.294 1264.32,665.723 1272.14,664.176 1286.54,655.328 1236.51,716.036 1118.14,807.338 1137.25,777.813 1165.67,745.943 1264.16,657.95 1305.71,630.289 1283.06,666.312 1328.85,615.28 1288.26,659.092 1197.78,734.877 1129.23,799.551 1171.4,742.424 1151,767.7 1218.17,688.628 1297.53,651.592 1323.8,631.632 1325.17,631.196 1414.55,568.106 1417.85,570.594 1377.42,613.437 1411.49,578.576 1419.35,574.905 1414.42,575.989 1433.97,560.439 1412.45,583.324 1426.95,570.478 1553.91,453.634 1529.69,514.339 1497.37,529.909 1490.1,518.299 1446.2,551.189 1533.78,483.269 1641.86,409.074 1758.38,363.901 1700.75,432.52 1633.5,475.614 1612.39,480.142 1616.37,457.889 1547.67,514.283 1509.92,533.221 1424.18,595.653 1437.26,563.453 1406.27,591.268 1345.92,639.931 1311.97,657.668 1263.93,699.637 1221.43,725.548 1131.55,806.207 1164.77,757.378 1194.94,724.084 1230.67,695.095 1236.12,693.424 1250.17,688.51 1234.98,695.43 1206.6,729.147 1115.35,802.91 1112.26,807.474 1081.88,824.564 1199.94,696.569 1197.92,716.539 1238.23,677.081 1265.95,664.058 1309.97,636.503 1268.53,682.919 1311.15,651.903 1314.06,655.045 1304.9,668.952 1312.8,650.369 1366.95,601.235 1365.15,615.696 1376.54,591.211 1462.13,527.643 1472.03,534.598 1415.66,590.724 1414.15,595.304 1511.91,508.962 1450.93,540.362 1444.72,558.18 1482.42,523.814 1410.15,580.093 1474.19,532.375 1327.87,642.485 1306.03,652.319 1266.97,677.066 1307.13,654.503 1424.82,555.527 1364.8,612.319 1208.21,735.582 1163.99,767.858 1166.21,753.94 1152.16,761.97 1041,864.321 1012.34,890.994 979.152,921.615 966.884,925.266 959.483,929.927 1006.46,876.568 1024.91,859.226 996.654,894.041 1008.87,866.589 937.653,937.299 958.217,923.31 1089.03,805.697 1030.35,859.457 1083.45,807.835 1225.91,679.108 1329.55,612.199 1386.54,578.007 1379.32,600.891 1303.32,652.801 1397.85,589.947 1338.31,644.456 1226.26,720.43 1142.95,793.037 1165.83,750.613 1171.67,738.158 1135.99,783.109 1088.41,817.408 1134.93,772.913 1084.63,821.942 1081.28,822.924 1024.32,868.399 1027.78,862.706 974.176,914.066 995.241,885.517 1002.08,878.453 1074.8,804.721 1142.98,751.947 1087.43,814.755 1081.6,827.801 1092.72,798.569 1113.33,795.611 1123.2,781.334 1092.21,821.943 1123.11,779.46 1063.17,827.93 1094.47,813.317 1087.33,815.639 1136.24,753.679 1094.51,774.252 1151.86,754.667 1178.11,738.165 1204.38,712.128 1191.54,722.441 1131.64,783.703 1126.92,793.639 1179.94,749.806 1177.26,741.905 1234.94,698.971 1330.08,643.352 1340.43,624.118 1355.25,615.882 1330.83,636.444 1310.65,657.429 1395.15,570.103 1239.61,674.335 1250.21,686.265 1115.09,792.48 1196.71,715.471 1239.26,685.814 1192.9,719.651 1132.85,783.957 1254.25,699.389 1202.99,750.496 1247.5,694.744 1111.26,808.466 1163.71,746.427 1137.85,774.825 1179.45,731.329 1237.56,677.18 1288.29,648.157 1254.69,699.725 1290.03,653.668 1267.5,686.142 1233.03,701.238 1225.18,707.731 1264.94,681.773 1182.88,759.358 1291.08,653.492 1320.93,641.132 1340.86,628.707 1298.43,652.526 1326.11,638.322 1316.41,649.781 1539.1,469.134 1545.45,485.597 1510.38,526.357 1422.68,585.926 1389.26,601.058 1299.12,667.958 1259.26,699.375 "/>
<path clip-path="url(#clip260)" d="M186.863 198.898 L550.897 198.898 L550.897 95.2176 L186.863 95.2176  Z" fill="#ffffff" fill-rule="evenodd" fill-opacity="1"/>
<polyline clip-path="url(#clip260)" style="stroke:#000000; stroke-linecap:round; stroke-linejoin:round; stroke-width:4; stroke-opacity:1; fill:none" points="186.863,198.898 550.897,198.898 550.897,95.2176 186.863,95.2176 186.863,198.898 "/>
<polyline clip-path="url(#clip260)" style="stroke:#009af9; stroke-linecap:round; stroke-linejoin:round; stroke-width:4; stroke-opacity:1; fill:none" points="211.758,147.058 361.13,147.058 "/>
<path clip-path="url(#clip260)" d="M396.651 128.366 Q393.549 133.69 392.044 138.898 Q390.54 144.106 390.54 149.453 Q390.54 154.801 392.044 160.055 Q393.572 165.287 396.651 170.588 L392.947 170.588 Q389.475 165.148 387.739 159.893 Q386.026 154.639 386.026 149.453 Q386.026 144.291 387.739 139.06 Q389.452 133.828 392.947 128.366 L396.651 128.366 Z" fill="#000000" fill-rule="nonzero" fill-opacity="1" /><path clip-path="url(#clip260)" d="M403.063 138.412 L423.294 138.412 L423.294 142.301 L407.276 160.935 L423.294 160.935 L423.294 164.338 L402.484 164.338 L402.484 160.449 L418.502 141.815 L403.063 141.815 L403.063 138.412 Z" fill="#000000" fill-rule="nonzero" fill-opacity="1" /><path clip-path="url(#clip260)" d="M430.887 158.458 L435.771 158.458 L435.771 162.439 L431.975 169.847 L428.988 169.847 L430.887 162.439 L430.887 158.458 Z" fill="#000000" fill-rule="nonzero" fill-opacity="1" /><path clip-path="url(#clip260)" d="M455.655 166.745 Q453.849 171.375 452.136 172.787 Q450.423 174.199 447.553 174.199 L444.15 174.199 L444.15 170.634 L446.65 170.634 Q448.41 170.634 449.382 169.8 Q450.354 168.967 451.535 165.865 L452.298 163.921 L441.812 138.412 L446.326 138.412 L454.428 158.689 L462.53 138.412 L467.044 138.412 L455.655 166.745 Z" fill="#000000" fill-rule="nonzero" fill-opacity="1" /><path clip-path="url(#clip260)" d="M474.011 158.458 L478.896 158.458 L478.896 162.439 L475.099 169.847 L472.113 169.847 L474.011 162.439 L474.011 158.458 Z" fill="#000000" fill-rule="nonzero" fill-opacity="1" /><path clip-path="url(#clip260)" d="M509.544 138.412 L500.169 151.027 L510.03 164.338 L505.007 164.338 L497.46 154.152 L489.914 164.338 L484.891 164.338 L494.96 150.773 L485.747 138.412 L490.77 138.412 L497.645 147.648 L504.52 138.412 L509.544 138.412 Z" fill="#000000" fill-rule="nonzero" fill-opacity="1" /><path clip-path="url(#clip260)" d="M515.377 128.366 L519.081 128.366 Q522.553 133.828 524.266 139.06 Q526.002 144.291 526.002 149.453 Q526.002 154.639 524.266 159.893 Q522.553 165.148 519.081 170.588 L515.377 170.588 Q518.456 165.287 519.96 160.055 Q521.488 154.801 521.488 149.453 Q521.488 144.106 519.96 138.898 Q518.456 133.69 515.377 128.366 Z" fill="#000000" fill-rule="nonzero" fill-opacity="1" /></svg>
