<?xml version="1.0" encoding="utf-8"?>
<svg xmlns="http://www.w3.org/2000/svg" xmlns:xlink="http://www.w3.org/1999/xlink" width="600" height="400" viewBox="0 0 2400 1600">
<defs>
  <clipPath id="clip060">
    <rect x="0" y="0" width="2400" height="1600"/>
  </clipPath>
</defs>
<path clip-path="url(#clip060)" d="M0 1600 L2400 1600 L2400 0 L0 0  Z" fill="#ffffff" fill-rule="evenodd" fill-opacity="1"/>
<defs>
  <clipPath id="clip061">
    <rect x="112" y="47" width="2242" height="1440"/>
  </clipPath>
</defs>
<path clip-path="url(#clip061)" d="M-636.565 2683.15 L-636.565 2393.04 L-338.23 2247.99 L178.501 2331.73 L178.501 2621.84 L-119.834 2766.89 L-636.565 2683.15  Z" fill="#ffffff" fill-rule="evenodd" fill-opacity="1"/>
<polyline clip-path="url(#clip061)" style="stroke:#000000; stroke-linecap:round; stroke-linejoin:round; stroke-width:2; stroke-opacity:0.1; fill:none" points="684.532,1208.34 1099.99,848.538 1099.99,128.936 "/>
<polyline clip-path="url(#clip061)" style="stroke:#000000; stroke-linecap:round; stroke-linejoin:round; stroke-width:2; stroke-opacity:0.1; fill:none" points="813.715,1245.63 1229.18,885.83 1229.18,166.228 "/>
<polyline clip-path="url(#clip061)" style="stroke:#000000; stroke-linecap:round; stroke-linejoin:round; stroke-width:2; stroke-opacity:0.1; fill:none" points="942.898,1282.92 1358.36,923.122 1358.36,203.52 "/>
<polyline clip-path="url(#clip061)" style="stroke:#000000; stroke-linecap:round; stroke-linejoin:round; stroke-width:2; stroke-opacity:0.1; fill:none" points="1072.08,1320.21 1487.54,960.414 1487.54,240.812 "/>
<polyline clip-path="url(#clip061)" style="stroke:#000000; stroke-linecap:round; stroke-linejoin:round; stroke-width:2; stroke-opacity:0.1; fill:none" points="1201.26,1357.51 1616.73,997.706 1616.73,278.104 "/>
<polyline clip-path="url(#clip061)" style="stroke:#000000; stroke-linecap:round; stroke-linejoin:round; stroke-width:2; stroke-opacity:0.1; fill:none" points="1330.45,1394.8 1745.91,1035 1745.91,315.396 "/>
<polyline clip-path="url(#clip061)" style="stroke:#000000; stroke-linecap:round; stroke-linejoin:round; stroke-width:2; stroke-opacity:0.1; fill:none" points="1424.79,1375.55 705.187,1167.82 705.187,448.22 "/>
<polyline clip-path="url(#clip061)" style="stroke:#000000; stroke-linecap:round; stroke-linejoin:round; stroke-width:2; stroke-opacity:0.1; fill:none" points="1508.54,1303.03 788.934,1095.3 788.934,375.693 "/>
<polyline clip-path="url(#clip061)" style="stroke:#000000; stroke-linecap:round; stroke-linejoin:round; stroke-width:2; stroke-opacity:0.1; fill:none" points="1592.28,1230.5 872.681,1022.77 872.681,303.166 "/>
<polyline clip-path="url(#clip061)" style="stroke:#000000; stroke-linecap:round; stroke-linejoin:round; stroke-width:2; stroke-opacity:0.1; fill:none" points="1676.03,1157.97 956.428,950.241 956.428,230.639 "/>
<polyline clip-path="url(#clip061)" style="stroke:#000000; stroke-linecap:round; stroke-linejoin:round; stroke-width:2; stroke-opacity:0.1; fill:none" points="1759.78,1085.45 1040.17,877.714 1040.17,158.112 "/>
<polyline clip-path="url(#clip061)" style="stroke:#000000; stroke-linecap:round; stroke-linejoin:round; stroke-width:2; stroke-opacity:0.1; fill:none" points="664.934,1123.63 1080.4,763.83 1800,971.562 "/>
<polyline clip-path="url(#clip061)" style="stroke:#000000; stroke-linecap:round; stroke-linejoin:round; stroke-width:2; stroke-opacity:0.1; fill:none" points="664.934,1011.42 1080.4,651.618 1800,859.349 "/>
<polyline clip-path="url(#clip061)" style="stroke:#000000; stroke-linecap:round; stroke-linejoin:round; stroke-width:2; stroke-opacity:0.1; fill:none" points="664.934,899.206 1080.4,539.405 1800,747.136 "/>
<polyline clip-path="url(#clip061)" style="stroke:#000000; stroke-linecap:round; stroke-linejoin:round; stroke-width:2; stroke-opacity:0.1; fill:none" points="664.934,786.993 1080.4,427.192 1800,634.924 "/>
<polyline clip-path="url(#clip061)" style="stroke:#000000; stroke-linecap:round; stroke-linejoin:round; stroke-width:2; stroke-opacity:0.1; fill:none" points="664.934,674.781 1080.4,314.98 1800,522.711 "/>
<polyline clip-path="url(#clip061)" style="stroke:#000000; stroke-linecap:round; stroke-linejoin:round; stroke-width:2; stroke-opacity:0.1; fill:none" points="664.934,562.568 1080.4,202.767 1800,410.498 "/>
<polyline clip-path="url(#clip060)" style="stroke:#000000; stroke-linecap:round; stroke-linejoin:round; stroke-width:4; stroke-opacity:1; fill:none" points="664.934,1202.68 1384.54,1410.41 "/>
<polyline clip-path="url(#clip060)" style="stroke:#000000; stroke-linecap:round; stroke-linejoin:round; stroke-width:4; stroke-opacity:1; fill:none" points="684.532,1208.34 689.517,1204.02 "/>
<polyline clip-path="url(#clip060)" style="stroke:#000000; stroke-linecap:round; stroke-linejoin:round; stroke-width:4; stroke-opacity:1; fill:none" points="813.715,1245.63 818.7,1241.31 "/>
<polyline clip-path="url(#clip060)" style="stroke:#000000; stroke-linecap:round; stroke-linejoin:round; stroke-width:4; stroke-opacity:1; fill:none" points="942.898,1282.92 947.883,1278.61 "/>
<polyline clip-path="url(#clip060)" style="stroke:#000000; stroke-linecap:round; stroke-linejoin:round; stroke-width:4; stroke-opacity:1; fill:none" points="1072.08,1320.21 1077.07,1315.9 "/>
<polyline clip-path="url(#clip060)" style="stroke:#000000; stroke-linecap:round; stroke-linejoin:round; stroke-width:4; stroke-opacity:1; fill:none" points="1201.26,1357.51 1206.25,1353.19 "/>
<polyline clip-path="url(#clip060)" style="stroke:#000000; stroke-linecap:round; stroke-linejoin:round; stroke-width:4; stroke-opacity:1; fill:none" points="1330.45,1394.8 1335.43,1390.48 "/>
<path clip-path="url(#clip060)" d="M623.744 1222.57 Q620.133 1222.57 618.304 1226.13 Q616.499 1229.67 616.499 1236.8 Q616.499 1243.91 618.304 1247.47 Q620.133 1251.02 623.744 1251.02 Q627.378 1251.02 629.184 1247.47 Q631.013 1243.91 631.013 1236.8 Q631.013 1229.67 629.184 1226.13 Q627.378 1222.57 623.744 1222.57 M623.744 1218.86 Q629.554 1218.86 632.61 1223.47 Q635.689 1228.05 635.689 1236.8 Q635.689 1245.53 632.61 1250.14 Q629.554 1254.72 623.744 1254.72 Q617.934 1254.72 614.855 1250.14 Q611.8 1245.53 611.8 1236.8 Q611.8 1228.05 614.855 1223.47 Q617.934 1218.86 623.744 1218.86 Z" fill="#000000" fill-rule="nonzero" fill-opacity="1" /><path clip-path="url(#clip060)" d="M643.906 1248.17 L648.79 1248.17 L648.79 1254.05 L643.906 1254.05 L643.906 1248.17 Z" fill="#000000" fill-rule="nonzero" fill-opacity="1" /><path clip-path="url(#clip060)" d="M659.022 1219.49 L677.378 1219.49 L677.378 1223.42 L663.304 1223.42 L663.304 1231.9 Q664.323 1231.55 665.341 1231.39 Q666.36 1231.2 667.378 1231.2 Q673.165 1231.2 676.545 1234.37 Q679.924 1237.54 679.924 1242.96 Q679.924 1248.54 676.452 1251.64 Q672.98 1254.72 666.661 1254.72 Q664.485 1254.72 662.216 1254.35 Q659.971 1253.98 657.563 1253.24 L657.563 1248.54 Q659.647 1249.67 661.869 1250.23 Q664.091 1250.78 666.568 1250.78 Q670.573 1250.78 672.911 1248.68 Q675.248 1246.57 675.248 1242.96 Q675.248 1239.35 672.911 1237.24 Q670.573 1235.14 666.568 1235.14 Q664.693 1235.14 662.818 1235.55 Q660.966 1235.97 659.022 1236.85 L659.022 1219.49 Z" fill="#000000" fill-rule="nonzero" fill-opacity="1" /><path clip-path="url(#clip060)" d="M742.742 1287.4 L750.381 1287.4 L750.381 1261.04 L742.071 1262.71 L742.071 1258.45 L750.334 1256.78 L755.01 1256.78 L755.01 1287.4 L762.649 1287.4 L762.649 1291.34 L742.742 1291.34 L742.742 1287.4 Z" fill="#000000" fill-rule="nonzero" fill-opacity="1" /><path clip-path="url(#clip060)" d="M772.094 1285.46 L776.978 1285.46 L776.978 1291.34 L772.094 1291.34 L772.094 1285.46 Z" fill="#000000" fill-rule="nonzero" fill-opacity="1" /><path clip-path="url(#clip060)" d="M797.163 1259.86 Q793.552 1259.86 791.723 1263.42 Q789.917 1266.97 789.917 1274.09 Q789.917 1281.2 791.723 1284.77 Q793.552 1288.31 797.163 1288.31 Q800.797 1288.31 802.603 1284.77 Q804.431 1281.2 804.431 1274.09 Q804.431 1266.97 802.603 1263.42 Q800.797 1259.86 797.163 1259.86 M797.163 1256.16 Q802.973 1256.16 806.029 1260.76 Q809.107 1265.34 809.107 1274.09 Q809.107 1282.82 806.029 1287.43 Q802.973 1292.01 797.163 1292.01 Q791.353 1292.01 788.274 1287.43 Q785.218 1282.82 785.218 1274.09 Q785.218 1265.34 788.274 1260.76 Q791.353 1256.16 797.163 1256.16 Z" fill="#000000" fill-rule="nonzero" fill-opacity="1" /><path clip-path="url(#clip060)" d="M872.92 1324.7 L880.559 1324.7 L880.559 1298.33 L872.249 1300 L872.249 1295.74 L880.513 1294.07 L885.188 1294.07 L885.188 1324.7 L892.827 1324.7 L892.827 1328.63 L872.92 1328.63 L872.92 1324.7 Z" fill="#000000" fill-rule="nonzero" fill-opacity="1" /><path clip-path="url(#clip060)" d="M902.272 1322.75 L907.156 1322.75 L907.156 1328.63 L902.272 1328.63 L902.272 1322.75 Z" fill="#000000" fill-rule="nonzero" fill-opacity="1" /><path clip-path="url(#clip060)" d="M917.387 1294.07 L935.744 1294.07 L935.744 1298.01 L921.67 1298.01 L921.67 1306.48 Q922.688 1306.13 923.707 1305.97 Q924.725 1305.78 925.744 1305.78 Q931.531 1305.78 934.91 1308.96 Q938.29 1312.13 938.29 1317.54 Q938.29 1323.12 934.818 1326.22 Q931.346 1329.3 925.026 1329.3 Q922.85 1329.3 920.582 1328.93 Q918.336 1328.56 915.929 1327.82 L915.929 1323.12 Q918.012 1324.26 920.235 1324.81 Q922.457 1325.37 924.934 1325.37 Q928.938 1325.37 931.276 1323.26 Q933.614 1321.16 933.614 1317.54 Q933.614 1313.93 931.276 1311.83 Q928.938 1309.72 924.934 1309.72 Q923.059 1309.72 921.184 1310.14 Q919.332 1310.55 917.387 1311.43 L917.387 1294.07 Z" fill="#000000" fill-rule="nonzero" fill-opacity="1" /><path clip-path="url(#clip060)" d="M1004.32 1361.99 L1020.64 1361.99 L1020.64 1365.92 L998.7 1365.92 L998.7 1361.99 Q1001.36 1359.23 1005.95 1354.6 Q1010.55 1349.95 1011.73 1348.61 Q1013.98 1346.09 1014.86 1344.35 Q1015.76 1342.59 1015.76 1340.9 Q1015.76 1338.15 1013.82 1336.41 Q1011.89 1334.67 1008.79 1334.67 Q1006.59 1334.67 1004.14 1335.44 Q1001.71 1336.2 998.931 1337.75 L998.931 1333.03 Q1001.76 1331.9 1004.21 1331.32 Q1006.66 1330.74 1008.7 1330.74 Q1014.07 1330.74 1017.26 1333.42 Q1020.46 1336.11 1020.46 1340.6 Q1020.46 1342.73 1019.65 1344.65 Q1018.86 1346.55 1016.76 1349.14 Q1016.18 1349.81 1013.07 1353.03 Q1009.97 1356.22 1004.32 1361.99 Z" fill="#000000" fill-rule="nonzero" fill-opacity="1" /><path clip-path="url(#clip060)" d="M1030.46 1360.04 L1035.34 1360.04 L1035.34 1365.92 L1030.46 1365.92 L1030.46 1360.04 Z" fill="#000000" fill-rule="nonzero" fill-opacity="1" /><path clip-path="url(#clip060)" d="M1055.53 1334.44 Q1051.92 1334.44 1050.09 1338.01 Q1048.28 1341.55 1048.28 1348.68 Q1048.28 1355.78 1050.09 1359.35 Q1051.92 1362.89 1055.53 1362.89 Q1059.16 1362.89 1060.97 1359.35 Q1062.8 1355.78 1062.8 1348.68 Q1062.8 1341.55 1060.97 1338.01 Q1059.16 1334.44 1055.53 1334.44 M1055.53 1330.74 Q1061.34 1330.74 1064.39 1335.35 Q1067.47 1339.93 1067.47 1348.68 Q1067.47 1357.41 1064.39 1362.01 Q1061.34 1366.6 1055.53 1366.6 Q1049.72 1366.6 1046.64 1362.01 Q1043.58 1357.41 1043.58 1348.68 Q1043.58 1339.93 1046.64 1335.35 Q1049.72 1330.74 1055.53 1330.74 Z" fill="#000000" fill-rule="nonzero" fill-opacity="1" /><path clip-path="url(#clip060)" d="M1134.5 1399.28 L1150.82 1399.28 L1150.82 1403.22 L1128.88 1403.22 L1128.88 1399.28 Q1131.54 1396.53 1136.12 1391.9 Q1140.73 1387.24 1141.91 1385.9 Q1144.16 1383.38 1145.04 1381.64 Q1145.94 1379.88 1145.94 1378.19 Q1145.94 1375.44 1143.99 1373.7 Q1142.07 1371.97 1138.97 1371.97 Q1136.77 1371.97 1134.32 1372.73 Q1131.89 1373.49 1129.11 1375.04 L1129.11 1370.32 Q1131.93 1369.19 1134.39 1368.61 Q1136.84 1368.03 1138.88 1368.03 Q1144.25 1368.03 1147.44 1370.72 Q1150.64 1373.4 1150.64 1377.89 Q1150.64 1380.02 1149.83 1381.94 Q1149.04 1383.84 1146.93 1386.43 Q1146.35 1387.1 1143.25 1390.32 Q1140.15 1393.52 1134.5 1399.28 Z" fill="#000000" fill-rule="nonzero" fill-opacity="1" /><path clip-path="url(#clip060)" d="M1160.64 1397.34 L1165.52 1397.34 L1165.52 1403.22 L1160.64 1403.22 L1160.64 1397.34 Z" fill="#000000" fill-rule="nonzero" fill-opacity="1" /><path clip-path="url(#clip060)" d="M1175.75 1368.66 L1194.11 1368.66 L1194.11 1372.59 L1180.04 1372.59 L1180.04 1381.06 Q1181.05 1380.72 1182.07 1380.55 Q1183.09 1380.37 1184.11 1380.37 Q1189.9 1380.37 1193.28 1383.54 Q1196.66 1386.71 1196.66 1392.13 Q1196.66 1397.71 1193.18 1400.81 Q1189.71 1403.89 1183.39 1403.89 Q1181.22 1403.89 1178.95 1403.52 Q1176.7 1403.15 1174.29 1402.41 L1174.29 1397.71 Q1176.38 1398.84 1178.6 1399.4 Q1180.82 1399.95 1183.3 1399.95 Q1187.3 1399.95 1189.64 1397.85 Q1191.98 1395.74 1191.98 1392.13 Q1191.98 1388.52 1189.64 1386.41 Q1187.3 1384.3 1183.3 1384.3 Q1181.42 1384.3 1179.55 1384.72 Q1177.7 1385.14 1175.75 1386.02 L1175.75 1368.66 Z" fill="#000000" fill-rule="nonzero" fill-opacity="1" /><path clip-path="url(#clip060)" d="M1272.83 1421.87 Q1276.19 1422.59 1278.06 1424.86 Q1279.96 1427.13 1279.96 1430.46 Q1279.96 1435.58 1276.44 1438.38 Q1272.92 1441.18 1266.44 1441.18 Q1264.26 1441.18 1261.95 1440.74 Q1259.66 1440.32 1257.2 1439.47 L1257.2 1434.95 Q1259.15 1436.09 1261.46 1436.66 Q1263.78 1437.24 1266.3 1437.24 Q1270.7 1437.24 1272.99 1435.51 Q1275.31 1433.77 1275.31 1430.46 Q1275.31 1427.41 1273.15 1425.69 Q1271.02 1423.96 1267.2 1423.96 L1263.18 1423.96 L1263.18 1420.11 L1267.39 1420.11 Q1270.84 1420.11 1272.67 1418.75 Q1274.5 1417.36 1274.5 1414.77 Q1274.5 1412.1 1272.6 1410.69 Q1270.72 1409.26 1267.2 1409.26 Q1265.28 1409.26 1263.08 1409.67 Q1260.89 1410.09 1258.25 1410.97 L1258.25 1406.8 Q1260.91 1406.06 1263.22 1405.69 Q1265.56 1405.32 1267.62 1405.32 Q1272.95 1405.32 1276.05 1407.75 Q1279.15 1410.16 1279.15 1414.28 Q1279.15 1417.15 1277.51 1419.14 Q1275.86 1421.11 1272.83 1421.87 Z" fill="#000000" fill-rule="nonzero" fill-opacity="1" /><path clip-path="url(#clip060)" d="M1288.82 1434.63 L1293.71 1434.63 L1293.71 1440.51 L1288.82 1440.51 L1288.82 1434.63 Z" fill="#000000" fill-rule="nonzero" fill-opacity="1" /><path clip-path="url(#clip060)" d="M1313.89 1409.03 Q1310.28 1409.03 1308.45 1412.59 Q1306.65 1416.13 1306.65 1423.26 Q1306.65 1430.37 1308.45 1433.93 Q1310.28 1437.48 1313.89 1437.48 Q1317.53 1437.48 1319.33 1433.93 Q1321.16 1430.37 1321.16 1423.26 Q1321.16 1416.13 1319.33 1412.59 Q1317.53 1409.03 1313.89 1409.03 M1313.89 1405.32 Q1319.7 1405.32 1322.76 1409.93 Q1325.84 1414.51 1325.84 1423.26 Q1325.84 1431.99 1322.76 1436.6 Q1319.7 1441.18 1313.89 1441.18 Q1308.08 1441.18 1305.01 1436.6 Q1301.95 1431.99 1301.95 1423.26 Q1301.95 1414.51 1305.01 1409.93 Q1308.08 1405.32 1313.89 1405.32 Z" fill="#000000" fill-rule="nonzero" fill-opacity="1" /><polyline clip-path="url(#clip060)" style="stroke:#000000; stroke-linecap:round; stroke-linejoin:round; stroke-width:4; stroke-opacity:1; fill:none" points="1384.54,1410.41 1800,1050.61 "/>
<polyline clip-path="url(#clip060)" style="stroke:#000000; stroke-linecap:round; stroke-linejoin:round; stroke-width:4; stroke-opacity:1; fill:none" points="1424.79,1375.55 1416.15,1373.06 "/>
<polyline clip-path="url(#clip060)" style="stroke:#000000; stroke-linecap:round; stroke-linejoin:round; stroke-width:4; stroke-opacity:1; fill:none" points="1508.54,1303.03 1499.9,1300.53 "/>
<polyline clip-path="url(#clip060)" style="stroke:#000000; stroke-linecap:round; stroke-linejoin:round; stroke-width:4; stroke-opacity:1; fill:none" points="1592.28,1230.5 1583.65,1228.01 "/>
<polyline clip-path="url(#clip060)" style="stroke:#000000; stroke-linecap:round; stroke-linejoin:round; stroke-width:4; stroke-opacity:1; fill:none" points="1676.03,1157.97 1667.39,1155.48 "/>
<polyline clip-path="url(#clip060)" style="stroke:#000000; stroke-linecap:round; stroke-linejoin:round; stroke-width:4; stroke-opacity:1; fill:none" points="1759.78,1085.45 1751.14,1082.95 "/>
<path clip-path="url(#clip060)" d="M1452.98 1388.25 L1441.18 1406.7 L1452.98 1406.7 L1452.98 1388.25 M1451.76 1384.17 L1457.64 1384.17 L1457.64 1406.7 L1462.57 1406.7 L1462.57 1410.59 L1457.64 1410.59 L1457.64 1418.73 L1452.98 1418.73 L1452.98 1410.59 L1437.38 1410.59 L1437.38 1406.07 L1451.76 1384.17 Z" fill="#000000" fill-rule="nonzero" fill-opacity="1" /><path clip-path="url(#clip060)" d="M1522.59 1311.65 L1540.94 1311.65 L1540.94 1315.58 L1526.87 1315.58 L1526.87 1324.05 Q1527.89 1323.71 1528.91 1323.55 Q1529.93 1323.36 1530.94 1323.36 Q1536.73 1323.36 1540.11 1326.53 Q1543.49 1329.7 1543.49 1335.12 Q1543.49 1340.7 1540.02 1343.8 Q1536.55 1346.88 1530.23 1346.88 Q1528.05 1346.88 1525.78 1346.51 Q1523.54 1346.14 1521.13 1345.4 L1521.13 1340.7 Q1523.21 1341.83 1525.43 1342.39 Q1527.66 1342.94 1530.13 1342.94 Q1534.14 1342.94 1536.48 1340.84 Q1538.81 1338.73 1538.81 1335.12 Q1538.81 1331.51 1536.48 1329.4 Q1534.14 1327.3 1530.13 1327.3 Q1528.26 1327.3 1526.38 1327.71 Q1524.53 1328.13 1522.59 1329.01 L1522.59 1311.65 Z" fill="#000000" fill-rule="nonzero" fill-opacity="1" /><path clip-path="url(#clip060)" d="M1617.21 1254.54 Q1614.07 1254.54 1612.21 1256.69 Q1610.39 1258.84 1610.39 1262.59 Q1610.39 1266.32 1612.21 1268.5 Q1614.07 1270.65 1617.21 1270.65 Q1620.36 1270.65 1622.19 1268.5 Q1624.04 1266.32 1624.04 1262.59 Q1624.04 1258.84 1622.19 1256.69 Q1620.36 1254.54 1617.21 1254.54 M1626.5 1239.88 L1626.5 1244.14 Q1624.74 1243.31 1622.93 1242.87 Q1621.15 1242.43 1619.39 1242.43 Q1614.76 1242.43 1612.31 1245.56 Q1609.88 1248.68 1609.53 1255 Q1610.89 1252.99 1612.95 1251.92 Q1615.01 1250.83 1617.49 1250.83 Q1622.7 1250.83 1625.71 1254 Q1628.74 1257.15 1628.74 1262.59 Q1628.74 1267.92 1625.59 1271.13 Q1622.45 1274.35 1617.21 1274.35 Q1611.22 1274.35 1608.05 1269.77 Q1604.88 1265.16 1604.88 1256.43 Q1604.88 1248.24 1608.76 1243.38 Q1612.65 1238.5 1619.2 1238.5 Q1620.96 1238.5 1622.75 1238.84 Q1624.55 1239.19 1626.5 1239.88 Z" fill="#000000" fill-rule="nonzero" fill-opacity="1" /><path clip-path="url(#clip060)" d="M1688.62 1166.59 L1710.84 1166.59 L1710.84 1168.58 L1698.3 1201.15 L1693.41 1201.15 L1705.22 1170.53 L1688.62 1170.53 L1688.62 1166.59 Z" fill="#000000" fill-rule="nonzero" fill-opacity="1" /><path clip-path="url(#clip060)" d="M1784.22 1112.21 Q1780.89 1112.21 1778.97 1114 Q1777.07 1115.78 1777.07 1118.9 Q1777.07 1122.03 1778.97 1123.81 Q1780.89 1125.59 1784.22 1125.59 Q1787.55 1125.59 1789.48 1123.81 Q1791.4 1122.01 1791.4 1118.9 Q1791.4 1115.78 1789.48 1114 Q1787.58 1112.21 1784.22 1112.21 M1779.55 1110.22 Q1776.54 1109.48 1774.85 1107.42 Q1773.18 1105.36 1773.18 1102.4 Q1773.18 1098.26 1776.12 1095.85 Q1779.08 1093.44 1784.22 1093.44 Q1789.38 1093.44 1792.32 1095.85 Q1795.26 1098.26 1795.26 1102.4 Q1795.26 1105.36 1793.57 1107.42 Q1791.91 1109.48 1788.92 1110.22 Q1792.3 1111.01 1794.18 1113.3 Q1796.07 1115.59 1796.07 1118.9 Q1796.07 1123.93 1792.99 1126.61 Q1789.94 1129.3 1784.22 1129.3 Q1778.5 1129.3 1775.43 1126.61 Q1772.37 1123.93 1772.37 1118.9 Q1772.37 1115.59 1774.27 1113.3 Q1776.17 1111.01 1779.55 1110.22 M1777.83 1102.84 Q1777.83 1105.52 1779.5 1107.03 Q1781.19 1108.53 1784.22 1108.53 Q1787.23 1108.53 1788.92 1107.03 Q1790.63 1105.52 1790.63 1102.84 Q1790.63 1100.15 1788.92 1098.65 Q1787.23 1097.14 1784.22 1097.14 Q1781.19 1097.14 1779.5 1098.65 Q1777.83 1100.15 1777.83 1102.84 Z" fill="#000000" fill-rule="nonzero" fill-opacity="1" /><polyline clip-path="url(#clip060)" style="stroke:#000000; stroke-linecap:round; stroke-linejoin:round; stroke-width:4; stroke-opacity:1; fill:none" points="664.934,1202.68 664.934,483.08 "/>
<polyline clip-path="url(#clip060)" style="stroke:#000000; stroke-linecap:round; stroke-linejoin:round; stroke-width:4; stroke-opacity:1; fill:none" points="664.934,1123.63 669.92,1119.31 "/>
<polyline clip-path="url(#clip060)" style="stroke:#000000; stroke-linecap:round; stroke-linejoin:round; stroke-width:4; stroke-opacity:1; fill:none" points="664.934,1011.42 669.92,1007.1 "/>
<polyline clip-path="url(#clip060)" style="stroke:#000000; stroke-linecap:round; stroke-linejoin:round; stroke-width:4; stroke-opacity:1; fill:none" points="664.934,899.206 669.92,894.888 "/>
<polyline clip-path="url(#clip060)" style="stroke:#000000; stroke-linecap:round; stroke-linejoin:round; stroke-width:4; stroke-opacity:1; fill:none" points="664.934,786.993 669.92,782.676 "/>
<polyline clip-path="url(#clip060)" style="stroke:#000000; stroke-linecap:round; stroke-linejoin:round; stroke-width:4; stroke-opacity:1; fill:none" points="664.934,674.781 669.92,670.463 "/>
<polyline clip-path="url(#clip060)" style="stroke:#000000; stroke-linecap:round; stroke-linejoin:round; stroke-width:4; stroke-opacity:1; fill:none" points="664.934,562.568 669.92,558.25 "/>
<path clip-path="url(#clip060)" d="M626.551 1110.43 L614.746 1128.87 L626.551 1128.87 L626.551 1110.43 M625.324 1106.35 L631.204 1106.35 L631.204 1128.87 L636.134 1128.87 L636.134 1132.76 L631.204 1132.76 L631.204 1140.91 L626.551 1140.91 L626.551 1132.76 L610.949 1132.76 L610.949 1128.25 L625.324 1106.35 Z" fill="#000000" fill-rule="nonzero" fill-opacity="1" /><path clip-path="url(#clip060)" d="M615.232 994.139 L633.588 994.139 L633.588 998.074 L619.514 998.074 L619.514 1006.55 Q620.533 1006.2 621.551 1006.04 Q622.57 1005.85 623.588 1005.85 Q629.375 1005.85 632.755 1009.02 Q636.134 1012.19 636.134 1017.61 Q636.134 1023.19 632.662 1026.29 Q629.19 1029.37 622.871 1029.37 Q620.695 1029.37 618.426 1029 Q616.181 1028.63 613.773 1027.89 L613.773 1023.19 Q615.857 1024.32 618.079 1024.88 Q620.301 1025.43 622.778 1025.43 Q626.783 1025.43 629.121 1023.33 Q631.459 1021.22 631.459 1017.61 Q631.459 1014 629.121 1011.89 Q626.783 1009.79 622.778 1009.79 Q620.903 1009.79 619.028 1010.2 Q617.176 1010.62 615.232 1011.5 L615.232 994.139 Z" fill="#000000" fill-rule="nonzero" fill-opacity="1" /><path clip-path="url(#clip060)" d="M624.607 897.343 Q621.459 897.343 619.607 899.495 Q617.778 901.648 617.778 905.398 Q617.778 909.125 619.607 911.301 Q621.459 913.454 624.607 913.454 Q627.755 913.454 629.584 911.301 Q631.435 909.125 631.435 905.398 Q631.435 901.648 629.584 899.495 Q627.755 897.343 624.607 897.343 M633.889 882.69 L633.889 886.949 Q632.13 886.116 630.324 885.676 Q628.542 885.236 626.783 885.236 Q622.153 885.236 619.699 888.361 Q617.269 891.486 616.922 897.806 Q618.287 895.792 620.347 894.727 Q622.408 893.639 624.884 893.639 Q630.093 893.639 633.102 896.81 Q636.134 899.958 636.134 905.398 Q636.134 910.722 632.986 913.94 Q629.838 917.157 624.607 917.157 Q618.611 917.157 615.44 912.574 Q612.269 907.968 612.269 899.241 Q612.269 891.046 616.158 886.185 Q620.047 881.301 626.597 881.301 Q628.357 881.301 630.139 881.648 Q631.945 881.996 633.889 882.69 Z" fill="#000000" fill-rule="nonzero" fill-opacity="1" /><path clip-path="url(#clip060)" d="M613.912 769.713 L636.134 769.713 L636.134 771.704 L623.588 804.273 L618.704 804.273 L630.509 773.649 L613.912 773.649 L613.912 769.713 Z" fill="#000000" fill-rule="nonzero" fill-opacity="1" /><path clip-path="url(#clip060)" d="M624.283 675.649 Q620.949 675.649 619.028 677.431 Q617.13 679.214 617.13 682.339 Q617.13 685.464 619.028 687.246 Q620.949 689.028 624.283 689.028 Q627.616 689.028 629.537 687.246 Q631.459 685.44 631.459 682.339 Q631.459 679.214 629.537 677.431 Q627.639 675.649 624.283 675.649 M619.607 673.658 Q616.597 672.917 614.908 670.857 Q613.241 668.797 613.241 665.834 Q613.241 661.69 616.181 659.283 Q619.144 656.876 624.283 656.876 Q629.445 656.876 632.384 659.283 Q635.324 661.69 635.324 665.834 Q635.324 668.797 633.634 670.857 Q631.968 672.917 628.982 673.658 Q632.361 674.445 634.236 676.737 Q636.134 679.028 636.134 682.339 Q636.134 687.362 633.056 690.047 Q630 692.732 624.283 692.732 Q618.565 692.732 615.486 690.047 Q612.431 687.362 612.431 682.339 Q612.431 679.028 614.329 676.737 Q616.227 674.445 619.607 673.658 M617.894 666.274 Q617.894 668.959 619.56 670.464 Q621.25 671.968 624.283 671.968 Q627.292 671.968 628.982 670.464 Q630.695 668.959 630.695 666.274 Q630.695 663.589 628.982 662.084 Q627.292 660.579 624.283 660.579 Q621.25 660.579 619.56 662.084 Q617.894 663.589 617.894 666.274 Z" fill="#000000" fill-rule="nonzero" fill-opacity="1" /><path clip-path="url(#clip060)" d="M614.514 579.13 L614.514 574.871 Q616.273 575.705 618.079 576.144 Q619.885 576.584 621.621 576.584 Q626.25 576.584 628.681 573.482 Q631.134 570.357 631.482 564.015 Q630.139 566.006 628.079 567.07 Q626.019 568.135 623.519 568.135 Q618.334 568.135 615.301 565.01 Q612.292 561.862 612.292 556.422 Q612.292 551.098 615.44 547.881 Q618.588 544.663 623.82 544.663 Q629.815 544.663 632.963 549.269 Q636.134 553.853 636.134 562.603 Q636.134 570.774 632.246 575.658 Q628.38 580.519 621.829 580.519 Q620.07 580.519 618.264 580.172 Q616.459 579.825 614.514 579.13 M623.82 564.478 Q626.968 564.478 628.796 562.325 Q630.648 560.172 630.648 556.422 Q630.648 552.695 628.796 550.543 Q626.968 548.367 623.82 548.367 Q620.672 548.367 618.82 550.543 Q616.991 552.695 616.991 556.422 Q616.991 560.172 618.82 562.325 Q620.672 564.478 623.82 564.478 Z" fill="#000000" fill-rule="nonzero" fill-opacity="1" /><polyline clip-path="url(#clip061)" style="stroke:#009af9; stroke-linecap:round; stroke-linejoin:round; stroke-width:4; stroke-opacity:1; fill:none" points="937.714,946.981 930.107,956.241 927.572,959.194 922.372,965.402 924.942,961.846 927.804,957.908 931.029,953.507 926.714,958.568 931.39,952.281 923.011,962.309 932.444,949.926 922.247,962.361 921.361,962.797 917.158,967.293 922.127,960.236 901.423,985.261 914.23,967.896 897.786,987.236 884.647,1001.77 865.357,1023.31 849.15,1040.69 857.801,1025.64 847.174,1036.14 862.736,1013.21 858.883,1016.68 901.556,961.801 888.593,979.649 895.767,972.055 872.998,1000.82 900.23,967.728 955.913,904.988 933.813,939.949 915.016,963.167 863.906,1020.63 841.933,1042.99 845.781,1030 910.026,952.963 917.556,954.288 1007.26,863.296 1040.55,837.636 1081.48,797.567 1091.32,803.913 1095.27,803.741 1153.38,760.792 1175.72,740.232 1199.5,730.917 1224.62,709.374 1238.17,703.249 1266.24,680.015 1279.13,665.684 1261.42,683.929 1259.09,674.026 1412.8,579.145 1379.6,603.521 1444.12,549.115 1418.44,571.719 1249.7,720.727 1209.44,742.762 1114.7,822.578 1165.96,751.837 1096.36,817.87 1033.88,870.839 1023.03,867.455 974.82,913.505 950.5,937.129 1065.41,811.943 1077.49,810.469 1142.04,760.104 1099.84,811.713 1065.03,832.981 1184.04,722.788 1168.1,740.579 1197.32,709.263 1251.53,699.437 1174.99,770.763 1174.98,752.638 1157.25,762.352 1241.38,679.319 1137.33,783.951 1210.47,726.766 1208.93,739.135 1201.58,746.4 1223.67,695.077 1147,761.298 1318,635.844 1312.16,647.003 1277.21,685.883 1223.54,722.502 1216.81,720.058 1321.55,626.348 1330.94,635.495 1314.32,650.629 1365.04,613.755 1434.06,554.524 1402.46,600.954 1363.24,617.956 1316.26,655.137 1305.9,668.437 1204.77,754.823 1262.76,674.236 1309.26,634.674 1328.4,632.361 1228.19,716.122 1202.64,732.231 1105.86,824.031 1033.01,880.52 1021.46,873.476 1014.38,880.469 947.383,945.685 888.917,998.949 863.35,1016.87 811.676,1066.22 809.802,1060.06 806.008,1062.94 824.714,1041.87 877.125,987.227 939.156,934.339 987.837,894.5 1002.29,887.218 983.72,902.076 924.444,961.107 909.732,965.8 957.599,909.018 944.948,933.42 1001.79,857.68 1033.52,851.02 1134.74,761.768 1057.15,849.791 977.266,916.937 1051.42,832.357 1049.78,836.92 1100.17,780.988 1173.98,733.6 1132.02,781.147 1143.24,772.913 1058.46,858.643 994.79,902.412 933.59,962.761 962.66,922.158 986.86,899.887 951.061,928.889 970.885,910.681 909.747,979.002 873.165,1008.86 901.382,968.195 918.782,949.594 971.091,906.549 1035.86,842.936 1061.14,822.058 1070.78,811.571 996.278,880.254 946.549,943.275 911.565,984.215 879.164,1002.76 845.714,1036.51 846.638,1031.77 892.955,964.892 890.197,970.917 915.527,958.896 931.218,938.69 924.087,961.554 922.162,963.643 863.764,1015.49 910.066,960.368 867.864,1009.32 886.981,995.832 888.308,993.242 868.696,1012.79 996.323,870.293 1041.32,847.14 1146.13,760.647 1114.54,801.618 1160.18,770.821 1057.54,846.108 994.26,901.053 927.472,959.656 973.489,901.789 1002.89,878.726 949.562,944.826 1010.43,867.675 1010.38,883.944 1040.41,850.905 1079.91,805.111 1060.03,835.265 1070.08,818.468 1048.78,854.184 1006.75,896.804 953.869,948.257 944.256,944.154 950.521,924.832 1007.45,867.799 1011.16,868.47 1013.96,867.742 1038.87,833.526 1079.31,823.78 1083.88,820.474 1121.65,783.89 1210.79,689.734 1391.46,545.462 1487.31,481.559 1478.63,515.971 1424.44,575.523 1404.3,596.403 1446.42,558.118 1491.62,520.595 1536.6,496.693 1515.39,516.89 1429.52,577.992 1479.95,524.885 1414.83,590.445 1364.9,629.626 1429.56,560.701 1466.23,525.822 1390.42,610.215 1402.08,587.262 1310.56,674.048 1187.11,779.805 1189.47,759.91 1189.26,750.208 1153.02,776.077 1127.52,790.96 1141.93,770.627 1169.22,742.272 1187.41,726.998 1157.08,750.976 1149.11,755.635 1144.51,782.897 1034.49,885.52 1007.55,891.676 1000,897.436 961.481,919.509 965.622,918.225 1009.11,866.792 1084.09,808.057 1112.67,787.475 1039.09,866.391 1084.12,814.214 1180.88,717.389 1127.56,784.81 1129.37,782.866 1225.99,697.076 1162.24,768.343 1121.71,806.266 1113.49,810.11 1129.11,789.544 1201.37,710.787 1201.18,721.306 1230.69,695.268 1242.95,693.883 1254.76,687 1162.54,777.046 1240.55,690.184 1258.78,674.86 1319.12,624.71 1320.25,637.565 1398.63,574.403 1315.77,664.716 1269.07,709.04 1223.96,734.051 1197.36,744.58 1108.8,817.84 1071.01,840.889 1070.74,833.976 1053.25,844.785 991.907,907.005 1049.81,841.558 1104.04,795.335 1019.6,878.215 1025.04,871.824 933.403,955.771 943.603,936.062 962.275,914.1 973.785,911.459 982.093,899.839 890.039,990.815 877.407,1001.07 863.46,1011.9 883.575,983.35 919.358,956.35 909.474,968.505 948.785,930.433 1013.81,870.659 943.798,930.535 834.442,1044.99 897.174,969.554 995.061,875.142 1000.8,879.888 1021.39,860.814 966.237,919.175 959.503,916.796 1017.5,861.513 959.931,919.314 1074.42,823.836 1101.95,787.294 1078.34,825.72 1122.02,778.076 1081.67,816.438 1077.89,826.517 1034.54,869.117 1010.74,879.913 1078.49,813.488 1089.39,800.03 1203.33,699.728 1173.42,756.046 1293.51,649.033 1273.58,665.54 1239.34,699.787 1197.15,736.033 1258.01,673.579 1090.67,821.445 1136.06,771.583 1098.81,803.813 1091.09,802.021 1190.03,725.827 1221.68,701.772 1272.48,681.072 1194.21,754.922 1083.98,842.829 1060.05,845.286 1035.02,862.97 1001.5,887.557 1085.7,796.855 1056.95,845.183 1121.99,780.893 1173.15,724.353 1232.76,691.043 1168.97,764.499 1118,793.527 1156.98,756.521 1186.52,735.507 1259.52,667.264 1212.03,722.373 1115.79,813.127 994.565,922.494 931.541,974.107 967.307,919.937 1007.33,864.027 999.886,884.663 1012.68,869.088 988.881,888.719 1004.5,885.968 1016.76,861.646 1056.91,831.255 1045.56,854.382 1069.74,816.991 1199.85,702.708 1177.26,743.91 1212.75,713.575 1177.59,743.985 1088.84,828.399 1033.71,878.01 1021.83,877.666 1054.52,841.524 1050.6,858.704 1089.16,821.171 1213.74,705.945 1287.47,650.937 1331.55,627.292 1332.68,635.682 1261.41,700.827 1172.74,786.402 1193.21,748.676 1187.98,738.147 1145.65,777.275 1222.1,705.795 1142.75,778.799 1056.75,848.929 1039.71,861.689 1036.17,858.789 1116.87,792.18 1204.66,721.364 1183.51,747.766 1253.59,687.161 1241.55,703.866 1210.08,743.548 1129.76,800.796 1099.69,815.276 1223.29,697.173 1327.18,620.616 1322.23,639.873 1446.63,531.772 1324.26,642.986 1214.91,734.264 1152.11,789.81 1123.59,805.784 1110.93,804.264 1061.67,841.014 952.057,939.041 1033.57,849.527 1045.3,845.624 989.703,905.372 987.608,910.39 1081,813.665 1189.17,716.585 1134,780.358 1021.29,874.273 994.545,891.589 1057.36,833.557 1083.33,844.802 1104.21,800.81 1176.64,740.764 1113.69,795.338 1078.15,822.605 1128.42,773.553 1089.95,787.836 1242.36,666.058 1204.53,722.485 1223.18,713.958 1213.03,725.425 1232.74,710.743 1278.2,680.997 1280.91,678.861 1236.02,713.78 1262.92,681.352 1200.47,736.191 1221.09,724.298 1163.74,757.828 1206.48,720.121 1163.57,766.218 1141.01,783.618 1077.26,830.486 1129.06,778.237 1123.91,776.42 1105.3,795.992 1084.99,829.475 1098.25,814.092 1151.76,766.332 1149.46,782.072 1207.95,706.601 1275.89,660.886 1247.71,713.609 1361.53,617.406 1242.33,719.881 1134.03,808.572 1142.98,782.442 1078.6,839.079 1004.59,895.467 996.972,894.589 960.971,922.898 952.585,926.71 966.758,918.791 871.525,1006.41 968.212,890.235 1021.8,853.98 1027.99,851.288 1110.22,776.244 1076.39,815.004 1052.28,836.744 1101.21,801.641 1120.73,786.383 1152.35,755.011 1139.11,768.987 1161.75,748.49 1130.48,788.479 1105.7,800.287 1156.14,762.063 1213.41,729.563 1219.61,724.414 1221.36,719.923 1124.77,802.169 1136.2,781.568 1123.83,783.168 1134.1,807.441 1110.9,806.797 1077.94,830.142 1108.79,792.865 1098.7,804.796 1080.12,833.068 1008.12,894.342 1034.85,852.836 1111.24,773.932 1232.23,688.647 1233.97,699.145 1257.14,682.663 1301.87,650.27 1311.3,642.082 1381.32,594.636 1505.76,498.289 1442.1,556.277 1467.19,561.229 1427.71,597.373 1312.95,685.363 1303.66,671.473 1280.12,689.625 1257.82,694.982 1232.87,710.67 1216.73,721.826 1254.1,685.655 1280.96,666.452 1194.32,732.789 1208.03,720.503 1193.38,739.19 1164.97,755.235 1177.09,741.773 1225.55,695.767 1243.62,685.049 1388.11,560.839 1373.45,599.497 1427.54,560.279 1494.1,516.121 1412.68,584.339 1361.22,631.677 1268.9,712.527 1205.55,748.417 1213.96,725.613 1129.13,801.918 1093.33,824.641 1075.21,836.986 1094.96,811.172 1104.25,800.626 1109.89,790.245 1173.77,736.489 1168.53,747.942 1229.04,706.629 1252.61,684.687 1166.63,761.213 1204.76,723.214 1300.18,632.748 1372.08,591.852 1346.66,627.529 1315.71,650.025 1407.12,573.083 1418.25,584.064 1521.67,509.098 1602.66,470.263 1568.92,495.506 1575.07,488.577 1493.2,547.819 1399.91,614.512 1356.13,639.475 1328.98,648.16 1302.77,659.787 1309.5,651.501 1360.11,602.383 1367.96,590.8 1312.6,653.686 1192.62,757.711 1185.31,755.639 1153.46,782.61 1172.55,755.47 1220.26,703.055 1101.24,820.106 1044.78,867.16 1040.08,866.237 1145.03,748.175 1152.07,749.508 1130.67,774.308 1176.06,740.819 1143.4,777.538 1142.29,771.988 1207.66,711.571 1197.99,721.074 1213.48,722.824 1217.8,717.896 1134.37,791.405 1184.73,722.487 1076.44,845.004 1005.9,908.401 1026.27,872.183 960.958,931.037 932.226,958.006 938.36,947.884 1001.1,880.994 1066.52,808.952 1135.73,761.272 1124.41,771.045 1184.11,729.353 1093.27,827.998 1155.96,756.278 1108.95,798.987 1062.23,846.8 1078.65,814.532 1110.4,795.524 1158.99,757.944 1169.74,754.825 1093.57,824.007 1088.67,830.442 1135.04,802.525 1127.25,789.894 1115.87,803.618 1080.35,820.843 1081.37,827.68 1119.64,787.549 1134.73,781.159 1108.84,797.951 1115.54,789.942 1090.93,824.224 1066.75,842.549 1059.12,843.031 1080.68,817.671 1082.5,810.742 1056.61,846.846 1092.38,809.033 1067.08,840.469 1109.89,788.417 1165.16,735.831 1033.27,853.5 948.461,933.551 897.007,982.761 907.064,971.594 919.329,964.733 918.055,962.479 899.762,978.036 977.74,892.501 968.798,889.314 967.206,886.359 1060.02,802.775 1162.87,726.841 1261.19,660.409 1175.51,760.03 1161.65,762.942 1099.05,825.023 1034.45,875.927 1059.56,833.937 1109.81,780.285 1031.93,861.088 923.433,963.165 1002.45,868.564 985.572,900.729 1004.44,875.917 1015.62,864.368 1053.36,829.326 1167.76,723.822 1109.39,796.008 1180.46,730.954 1193.62,729.177 1070.78,840.798 1076.55,824.652 1022.27,870.63 1020.06,881.707 917.028,970.882 993.187,876.607 1030.49,850.022 975.671,916.503 949.658,939.913 964.088,909.846 947.751,932.487 971.376,910.637 1040.17,840.407 1009.48,881.676 1063.88,825.902 1156.58,752.512 1095.81,819.575 1001.35,899.9 1055.26,837.008 1163.83,737.635 1217.25,692.16 1183.71,740.946 1131.54,792.954 1151.6,762.603 1148.22,769.126 1125.92,783.126 1236.95,677.951 1114.73,803.025 1055.03,851.06 1043.01,865.186 1006.57,896.085 1021.54,869.275 1109.64,780.085 1122.91,791.046 1098.59,815.883 1063.58,843.84 988.049,921.015 980.952,915.526 960.709,926.051 990.708,889.612 1016.66,861.357 972.453,906.071 1007.19,871.873 1165.56,732.835 1155.5,761.836 1063.11,854.638 1021.74,887.637 977.824,924.437 944.79,943.298 912.95,974.845 951.537,921.923 1090.38,788.151 1010.32,885.545 1069.72,821.688 1081.86,814.589 1021.23,880.036 965.81,924.077 947.223,942.917 1055.31,820.713 1051.19,838.749 1072.33,821.804 1071.12,828.19 1085.32,818.328 1042.28,858.367 1046.29,851.002 1067.77,820.842 1140.06,773.458 1167.84,752.866 1128.17,791.463 1086.26,819.842 1105.57,795.258 1138.73,770.107 1110.49,796.027 1141.83,761.514 1235.71,700.814 1225.45,711.042 1182.59,752.651 1149.27,776.822 1113.37,808.198 1146,768.824 1214.85,700.094 1233.23,695.172 1275.97,664.744 1289.18,668.721 1274.88,687.67 1150.74,786.044 1145.41,780.923 1207.97,715.018 1201.67,731.067 1162.12,774.641 1110.55,815.975 1094.8,819.213 1032.74,880.289 976.365,929.823 922.441,968.285 986.717,893.353 989.559,897.579 1016.36,866.892 1043.37,844.93 1055.89,844.476 1003.79,888.508 988.179,894.566 920.3,969.409 850.232,1025.99 951.152,910.515 929.319,945.015 960.122,924.696 977.203,901.606 950.064,949.995 922.063,963.596 851.376,1025.9 819.744,1056.78 828.838,1038.78 853.616,1012.51 882.825,981.049 860.473,1015.31 850.261,1024.05 841.52,1030.44 850.701,1020.74 792.217,1083.92 824.525,1045.84 898.154,970.737 1012.62,856.189 1002.19,876.173 968.991,915.601 949.558,928.34 938.524,939.392 893.979,1005.09 880.415,1008.97 994.255,866.555 981.9,884.974 1028.89,847.255 1124.63,761.925 1166.5,728.858 1209.01,726.318 1148.91,795.173 1074.81,859.563 1068.74,844.236 1058.33,851.348 1104.56,799.748 1184.35,732.229 1193.31,727.242 1264.07,660.494 1296.07,638.785 1331.82,624.224 1335.97,630.832 1335.55,635.639 1278.93,687.252 1245.41,703.591 1188.74,760.319 1182.9,751.679 1197.59,732.87 1187.2,743.617 1189.78,743.062 1168.65,754.152 1167.24,752.79 1075.78,849.254 1061.32,845.026 1067.31,835.612 1090.15,804.923 1144.14,748.932 1217.45,681.103 1357.03,577.89 1304.29,642.667 1244.75,705.26 1246.36,695.705 1216.6,724.95 1239.23,691.182 1374.66,581.618 1298.13,663.815 1263.92,685.629 1239.91,704.951 1044.81,877.227 986.044,920.889 967.139,928.682 1014.63,863.198 976.538,903.117 957.023,921.455 969.221,912.318 1060.38,817.618 1087.6,799.297 1273.01,634.59 1261.42,669.595 1177.15,758.117 1195.31,739.998 1097.87,807.691 1134.64,771.698 1133.85,772.201 1164.94,750.471 1172.04,747.857 1124.32,802.09 1037.03,877.306 986.771,922.983 966.199,933.9 937.107,953.893 923.718,963.574 947.813,928.989 951.899,921.804 961.66,918.459 1002.92,873.308 971.809,918.678 961.502,927.95 910.596,980.595 876.602,1006.07 914.417,948.717 923.739,948.62 909.532,979.956 921.877,954.72 933.831,944.335 944.598,932.23 950.395,924.552 911.986,983.198 920.298,970.759 968.063,943.099 865.238,1035.09 856.403,1024.57 853.697,1015.13 840.067,1034.24 793.533,1085.9 783.408,1089.05 823.479,1045.16 871.289,995.778 940.961,923.802 862.26,1016.94 869.224,997.356 942.636,919.547 945.795,919.781 958.107,913.014 984.727,891.312 1009.24,869.687 1115.76,789.179 1121.14,804.787 1084.97,831.223 1046.23,859.706 1142.93,762.668 1334.5,596.605 1370.81,592.195 1347.76,629.171 1360.82,613.674 1339.21,624.173 1349.24,616.673 1336.4,643.77 1230.27,735.17 1294.3,664.49 1261.68,691.277 1293.9,653.311 1240.44,697.561 1161.67,772.364 1088.06,822.754 1062.35,843.994 1068.58,831.609 994.063,904.575 924.202,966.801 883.916,1001.78 885.146,990.945 861.053,1012.71 895.943,961.546 854.153,1007.07 850.203,1016.34 935.283,922.902 999.171,872.425 911.474,967.933 975.702,905.906 961.991,921.222 1000.87,881.14 1049.07,845.272 1099.52,795.433 1111.37,782.458 1091.72,812.608 1038.79,869.463 995.836,913.03 944.115,961.1 879.769,1012.54 946.756,922.8 924.326,945.693 946.084,923.088 954.243,919.447 986.764,888.777 1040.23,848.937 999.608,896.407 1037.01,847.896 988.804,902.938 1043.08,838.433 1087.69,811.514 1090.27,804.558 1091.64,790.006 1069.78,827.264 1047.86,860.039 965.922,935.096 985.43,900.303 999.5,880.211 983.592,906.909 996.125,886.268 1042.95,839.165 968.631,918.984 941.11,939.679 901.662,973.144 956.085,919.517 954.429,936.134 1003,879.377 924.53,963.806 962.547,925.008 915.588,967.214 886.115,997.396 860.08,1016.84 953.905,919.717 1003.57,882.05 1052.95,842.529 1104.94,787.077 1225.56,697.752 1291.22,634.626 1338.75,618.404 1301.96,666.172 1172.83,766.216 1160.36,767.691 1253.24,665.948 1301.74,648.19 1276.46,673.838 1275.2,672.8 1304.4,648.864 1292.37,674.388 1284.86,675.228 1177.6,773.134 1205.79,733.017 1207.33,721.863 1238.49,699.563 1202.87,727.122 1149.91,777.162 1221.64,689.472 1291.44,647.653 1210.87,745.013 1155.06,780.659 1215.18,711.607 1204.93,722.754 1183.87,741.077 1202.1,719.777 1152.19,753.527 1159.87,758.074 1115.42,801.762 1079.83,828.364 974.981,926.37 1124.12,774.936 1049.51,845.396 1049.85,844.261 945.809,929.52 951.931,931.597 926.637,941.621 965.578,918.966 1067.52,815.266 973.47,917.731 922.733,954.931 912.824,969.126 912.556,971.094 940.059,945.502 935.205,946.156 955.436,930.304 990.999,887.524 1015.11,861.561 957.705,910.268 999.806,881.946 916.006,963.333 882.352,1001.74 844.981,1040.37 834.763,1032.81 898.044,964.037 946.172,920.067 962.324,908.491 916.509,957.638 864.66,1004.71 996.936,863.695 1020.97,864.188 993.277,901.087 871.077,1011.75 812.514,1070.08 848.466,1027.87 852.757,1013.72 889.056,976.55 878.137,1000.71 872.783,1003.94 841.351,1034.51 813.094,1069.72 864.776,1006.52 779.37,1098.17 815.802,1052.16 875.58,999.505 958.777,912.842 914.372,958.094 977.752,910.674 956.972,933.459 936.961,947.126 930.411,944.977 970.726,912.626 943.418,931.977 1161.49,710.412 1109.48,789.76 1138.81,768.516 1186.12,724.327 1092.39,826.262 1072.07,834.73 1125.35,777.314 1076.1,830.75 1124.97,784.419 1113.45,797.12 1105.92,804.235 1154.26,781.085 1128.23,797.856 1199.83,716.678 1117.34,808.526 1052.16,864.414 994.123,912.272 989.662,907.798 983.2,904.467 1032.17,848.955 1100.53,787.368 1141.4,755.807 1224.66,691.218 1194.16,735.384 1204.92,727.896 1221.42,718.834 1265.92,684.222 1186.78,753.818 1149.23,781.098 1161.5,751.98 1126.31,781.396 1049.61,853.421 1024.6,874.805 990.095,900.292 1067.3,840.052 1107.05,807.305 1093.93,821.352 1150.21,764.958 1022.46,885.698 956.51,932.655 922.026,965.777 942.154,928.122 988.256,891.538 1038.06,856.279 1163.05,732.686 1268.09,649.262 1289,659.617 1290.76,667.474 1206.32,734.599 1218.97,730.65 1257.71,685.287 1161.66,777.457 1083.06,831.356 991.436,917.595 1044.76,855.39 1011.35,887.726 919.465,982.607 908.878,982.151 897.637,987.613 860.741,1016.73 878.946,996.425 933.585,927.651 976.414,894.34 977.403,899.047 1046.65,834.356 1098.13,793.317 1072.19,822.957 1100.08,799.415 1046.07,859.008 1069.55,841.031 1234.52,686.36 1243.36,691.787 1317.95,619.784 1407.54,585.982 1547.07,468.164 1491.45,534.902 1403.98,603.3 1432.49,566.447 1314.25,666.684 1212.19,749.528 1127.23,812.243 1144.71,777.287 1169.81,742.78 1194.98,712.461 1245.31,678.946 1225.82,698.283 1216.26,716.801 1174.53,756.886 1219.83,703.595 1152.05,768.608 1143.55,772.625 1122.26,800.556 1086.42,821.846 1223.54,689.983 1196.81,717.358 1246.01,674.603 1324.87,649.632 1386.13,595.395 1458.8,531.173 1535.45,469.606 1463.76,553.388 1389.35,622.075 1384.07,604.82 1445.6,552.151 1426.5,587.013 1397.19,604.991 1399.33,591.621 1375.64,611.769 1265.3,706.661 1299.97,661.95 1230.76,721.543 1168.89,771.292 1149.36,774.915 1116.81,803.461 1067.77,844.378 1008.85,894.051 976.8,913.466 1006.47,871.407 1044.04,833.911 1041.51,842.005 1088.94,816.97 1068,830.411 1004.3,896.315 951.466,945.021 942.88,940.739 943.114,937.503 996.531,871.091 1007.79,866.57 998.5,883.958 965.906,915.618 951.862,929.295 975.521,912.338 1113.14,773.944 1141.79,756.321 1120.48,792.468 1054.48,853.682 1057.23,846.766 1025.05,878.123 1101.47,813.809 1094.03,806.888 1109.44,803.599 1085.36,819.706 1038.53,861.368 1034.51,890.72 1032.34,904.728 956.601,957.181 934.127,969.345 923.907,963.38 903.587,979.156 920.212,955.397 903.034,980.401 904.825,974.262 897.278,975.848 864.096,1003.77 926.092,945.659 895.177,983.211 919.878,949.607 965.029,907.635 1040.92,844.477 955.699,940.842 922.88,967.362 946.489,932.097 958.889,916.058 1117.69,754.043 1113.42,776.858 1149.26,749.816 1077.37,833.15 1067.19,835.704 1154.68,758.015 1198.01,734.574 1254.1,697.83 1218.84,717.405 1113.52,809.096 1129.8,799.74 1209.33,723.941 1055.4,850.989 1046.17,857.663 1098.07,801.625 1054.72,845.404 954.057,939.959 951.856,928.594 922.53,962.086 929.176,945.097 937.971,936.537 942.542,935.868 972.98,912.973 1001.59,875.454 969.401,913.017 935.565,963.32 984.69,908.327 929.728,951.785 938.262,940.504 1054.69,825.053 1001.66,884.467 994.85,897.164 977.92,904.6 993.525,886.539 951.609,918.115 993.416,878.637 963.715,910.199 911.79,970.066 959.465,913.522 936.815,929.303 985.425,894.833 997.697,885.922 953.255,921.831 907.445,967.395 866.065,998.287 931.786,936.155 982.445,892.968 1014.07,863.589 1077.7,803.732 945.827,929.638 896.901,980.833 853.305,1032.55 813.624,1065.3 859.031,1011.55 809.6,1060.19 828.173,1047.1 792.893,1082.75 785.381,1081.58 825.406,1038.46 863.295,1007.32 834.293,1041.14 803.399,1063.62 838.114,1024.34 917.751,944.114 894.43,974.733 885.663,991.598 923.539,951.841 919.448,944.93 918.879,962.658 894.483,986.437 856.397,1017.84 902.599,969.68 901.338,967.839 901.869,970.872 860.418,1008.91 819.109,1051.66 857.13,1020.23 913.813,954.28 1004.12,865.22 1062.39,815.332 1071.01,820.527 1098.2,807.241 1125.83,769.284 1244.12,670.262 1231.06,707.319 1252.19,695.351 1308.2,655.698 1288.88,665.185 1216.55,729.774 1223.21,718.263 1164.46,772.612 1143.98,766.616 1119.3,796.023 1092.88,823.269 1135.14,785.668 1167.73,761.308 1100.29,812.542 999.235,907.037 939.696,952.784 951.324,923.258 1020.95,857.424 921.992,962.566 951.243,924.885 994.233,885.472 1015.37,871.364 1017.1,868.375 889.026,992.788 934.225,936.95 923.213,954.321 921.176,950.366 1012.1,870.447 955.159,932.565 967.29,919.583 1090.76,817.338 1076.39,825.977 1050.99,845.59 928.842,949.663 898.258,977.925 956.648,913.151 963.618,915.244 940.271,940.827 963.439,915.925 994.449,890.895 946.64,934.066 1017.93,858.037 1058.44,846.089 978.263,915.452 979.423,906.119 964.534,911.034 956.835,912.676 954.996,896.894 1084.15,778.529 1142.31,742.319 1179.3,732.302 1235.78,686.762 1345.81,599.968 1359.64,606.308 1287.56,676.44 1319.58,640.935 1206.15,749.716 1216.02,727.305 1267.82,667.367 1276.95,668.841 1210.65,720.675 1223.22,709.918 1143.11,778.604 1227.54,692.325 1262.41,672.638 1265.77,686.026 1224.18,717.333 1256.42,683.899 1242.21,698.353 1248.25,688.575 1267.53,670.871 1288,642.932 1273.32,643.978 1223.04,710.945 1270.12,681.335 1514.68,497.172 1580.94,467.52 1482.39,551.758 1334.76,669.683 1221.94,756.677 1153.48,805.057 1120.22,817.229 1110.02,812.952 1031.93,885.362 1037.36,869.278 1016.26,882.721 946.927,951.966 933.607,952.1 936.29,942.113 984.363,890.638 960.257,923.29 984.125,892.797 1019.85,861.176 1001.05,884.658 1022.63,869.312 1079.07,817.657 1117.78,785.972 1124.2,778.803 1110.53,786.474 1104.1,811.574 1037.75,866.495 1038.45,858.106 1068.81,824.433 1075.38,815.233 1076.08,832.254 1066.28,847.312 1054.87,856.838 1147.09,753.723 1168.54,737.239 1125.81,786.25 1111.23,797.045 996.734,907.724 954.38,937.389 945.4,934.659 927.2,956.199 915.737,960.794 940.948,931.888 937.405,938.619 934.133,943.664 939.422,943.433 960.368,937.691 912.534,973.001 841.795,1047.88 887.722,992.045 885.496,986.36 995.472,879.55 1011.25,883.703 1031.27,867.818 964.396,912.696 991.405,884.574 1018.95,862.152 1044.13,862.9 994.056,900.324 923.967,965.183 934.654,945.218 933.766,940.797 994.327,877.552 1177.73,706.8 1168.08,746.046 1162.03,767.325 1110.76,808.299 1218.97,706.939 1250.23,697.007 1260.34,680.875 1288.93,664.974 1513.54,482.645 1416.94,582.828 1345.48,653.151 1289.65,684.697 1269.17,693.672 1282.09,660.79 1246.79,691.32 1231.3,703.242 1200.63,723.765 1181.34,755.195 1102.74,808.553 1149.24,756.961 1133.25,777.028 1121.11,786.042 1205.01,707.979 1250.56,668.355 1258.11,679.211 1235.9,708.428 1162.05,772.555 1079.99,839.077 1113.39,799.748 1137.28,769.346 1114.81,796.21 1202.59,714.186 1142.24,775.431 1132.56,782.708 1143.05,769.821 1158.7,780.25 1147.52,784.705 1098.99,821.376 1085.14,822.9 1063.66,824.917 1012.57,881.829 947.159,924.322 934.63,940.997 933.08,942.251 998.205,875.215 1064.19,818.656 1085.17,805.934 1094.55,797.464 1120.92,780.856 1079.06,826.394 1002.43,893.649 1032.75,852.962 1095.45,794.78 1037.55,858.819 999.839,900.426 1035.52,852.456 1019.88,869.531 993.171,890.925 1187.29,706.734 1195.08,718.057 1221.72,713.403 1231.54,693.689 1403.91,551.829 1333.98,633.376 1293.96,670.954 1381.4,583.56 1422.98,566.336 1305.12,672.368 1382.69,602.315 1334.64,647.698 1276.1,701.116 1263.6,703.5 1206.38,738.845 1135.88,801.959 1040.37,882.602 1061.09,841.12 1064.45,831.208 968.134,927.385 947.477,947.446 931.301,955.034 980.725,892.257 997.21,876.26 1069.76,809.536 1124.9,767.15 1179.59,729.817 1096.81,822.003 1088.42,817.534 1073.34,841.324 1105.18,806.905 1086.8,829.066 1103.44,802.787 1137.19,773.918 1189.15,723.89 988.042,916.098 978.496,910.222 1010.08,868.505 958.114,929.024 974.031,919.897 1043.05,859.112 1024.21,872.291 984.307,903.374 1080.6,801.251 1058.83,840.139 994.399,901.581 1061.89,837.717 1083.32,828.05 1137.58,760.041 948.926,920.878 985.208,895.465 937.736,941.589 927.338,945.135 896.103,980.319 1030.31,857.825 959.105,932.325 964.489,921.68 936.349,936.799 972.598,905.927 948.968,928.287 963.936,904.464 1044.32,845.68 939.839,950.109 956.623,933.798 932.197,960.308 920.591,951.364 962.579,911.523 952.899,924.891 971.305,927.535 910.397,990.459 857.916,1029.95 877.26,998.283 847.3,1028.05 837.528,1034.52 879.437,993.772 929.213,943.75 963.159,914.299 1004.8,880.449 1066.8,840.17 1109.57,805.174 1107.87,807.219 1143.53,773.607 1143.52,743.852 1136.22,777.566 1158.78,747.824 1140.6,778.741 1048.65,860.525 1047.62,864.156 1044.99,858.044 996.403,903.453 1023.22,864.398 1105.32,784.773 1103.05,792.819 1101.52,792.553 1099.21,811.148 1203.28,712.293 1164.4,764.383 1164.47,759.709 1176.06,745.009 1060.79,844.249 1034.8,865.519 1034.54,860.105 1034.98,846.572 1132.07,750.092 1178.39,739.815 1135.32,797.756 1248.99,661.278 1310.6,649.994 1326.44,640.639 1379.88,597.764 1269.36,703.3 1253.35,707.446 1258.87,691.869 1314.98,637.783 1287.07,678.466 1247.4,705.269 1154.66,784.777 1105.88,822.534 1138.43,774.538 1172.7,734.905 1261.07,653.971 1251.41,688.749 1199.7,734.948 1224.42,709.094 1151.2,772.161 1140.6,767.586 1192.59,724.683 1196.4,726.72 1247.26,702.527 1266.97,687.075 1259.26,682.5 1314.26,643.896 1345.45,628.174 1258.23,687.181 1196.62,741.481 1113.24,813.777 1104.35,816.821 1122.77,803.378 1180.75,734.176 1111.62,814.99 1197.84,733.235 1243.6,682.512 1484.35,478.728 1608.33,417.49 1615.82,444.363 1540.75,510.331 1407.01,611.51 1370.84,634.525 1299.79,682.401 1321.81,649.533 1243.04,717.477 1232.43,716.713 1289.68,656.858 1202.48,742.372 1202.62,734.221 1210.39,719.614 1158.63,772.964 1153.6,768.727 1056.94,855.786 989.84,920.405 978.385,918.413 1061.01,816.84 1159.83,736.473 1106.46,800.214 1182.6,724.001 1211.97,711.941 1223.98,719.513 1124.98,816.576 1135.1,799.564 1080.97,831.139 1008.38,899.749 975.316,922.82 951.374,941.112 963.955,920.499 998.661,877.225 974.279,913.22 986.823,905.103 1037.17,853.713 1097.41,789.865 1206.31,704.828 1254,681.057 1181.27,737.648 1059.8,855.407 1129.05,786.808 1255.95,681.34 1248.3,688.191 1218.59,715.935 1218.94,720.36 1133.16,790.7 1169.67,752.71 1274.63,667.84 1446.54,528.724 1405.3,585.287 1432.16,569.262 1530.54,489.865 1664.76,385.639 1694.32,390.774 1717.65,375.637 1766.4,356.96 1624.85,477.329 1583.33,495.691 1604.4,466.837 1527.03,531.372 1475.66,560.206 1409.33,612.353 1375.22,627.71 1330.68,654.815 1325.94,649.616 1325.53,645.21 1392.87,575.976 1338.45,639.938 1364.51,607.151 1416.88,562.118 1380.39,597.054 1251.61,716.714 1181.8,772.367 1089.84,848.765 1045.94,877.332 999.234,914.95 980.922,919.486 975.693,919.691 912.586,979.829 931.616,947.273 898.852,980.385 974.995,887.206 995.885,879.464 1022.18,854.869 1021.31,864.093 987.545,902.105 989.125,892.647 1021.2,853.609 952.313,932.898 958.942,921.36 970.511,907.413 1044.68,823.014 1079.55,822.958 1117.61,782.577 1026.19,878.284 1034.32,860.351 1007.56,880.94 1023.53,869.305 1133.56,764.903 1138.33,770.499 1117.05,797.187 1208.27,720.679 1241.12,699.15 1314.03,645.809 1278.32,687.579 1244.33,706.684 1217.71,724.192 1170.23,758.914 1147.08,759.682 1137.17,772.977 1191.8,721.507 1062.53,833.915 998.895,900.881 1003.05,881.279 1020.92,862.561 1081.75,812.65 1111.99,788.513 1265.17,647.463 1251.04,684.832 1220.51,714.08 1211.7,722.001 1268.03,659.771 1219.15,729.463 1196.35,744.63 1262.36,681.715 1274.2,674.03 1237.72,714.289 1216.96,731.283 1197.05,755.364 1198.25,743.768 1279.28,665.504 1373.77,592.978 1307.79,641.181 1281.81,664.074 1318.65,633.858 1252.58,689.832 1316.4,616.478 1204.19,724.171 1170.47,757.665 1171.38,748.748 1299.12,635.99 1463.54,529.109 1573.5,445.436 1520.17,528.39 1405.97,610.867 1379.99,618.33 1385.65,599.346 1331.45,644.108 1371.38,600.057 1377.82,590.037 1368.48,614.618 1245.53,717.212 1161.73,783.152 1170.83,756.134 1049.27,875.611 1088.66,820.657 1074.32,831.777 1062.46,844.976 1021.62,886.508 1123.54,769.24 1198.96,704.827 1231.24,688.751 1174.85,759.435 1228.92,699.114 1203.06,724.573 1175.48,746.492 1211.62,703.514 1199.83,722.244 1176.14,751.001 1082.13,844.374 1046.09,858.095 1056.24,839.592 1001.92,888.876 1064.9,816.908 1069.23,819.153 1074.21,815.585 1144.12,765.271 1178.58,745.013 1128.59,788.306 1109.13,809.136 1277.26,666.512 1324.89,623.811 1258.73,696.519 1300.17,656.177 1256.4,702.555 1167.51,779.388 1216.16,716.432 1205.27,721.631 1204.12,729.098 1264.17,706.741 1218.45,730.355 1302.95,641.544 1294.81,649.738 1198.06,734.062 1177.5,752.137 1220.09,705.471 1246.1,696.665 1251.84,698.794 1175.75,757.016 1202.41,731.1 1134.14,793.605 1109.59,807.191 1127.92,792.483 1071.05,836.446 1039.7,866.493 1080.96,816.365 1115.82,785.305 1203.57,707.04 1234.13,692.592 1304.07,634.09 1241.77,692.63 1167.91,757.271 1081.26,838.897 984.01,920.016 957.237,936.431 875.265,1013.09 877.62,1000.07 897.021,973.063 914.914,958.629 930.56,940.54 893.078,973.709 897.052,967.007 954.547,922.333 1076.68,793.881 1194.12,695.847 1271.43,651.25 1214.55,723.097 1223.85,718.014 1254.21,692.535 1287.22,668.905 1261.47,685.207 1144.8,778.483 1114.01,804.773 1108.36,801.171 1099.37,815.096 1062.18,848.58 1070.35,826.403 1031.64,867.479 1025.47,872.914 1050.5,854.243 977.292,915.902 950.039,939.208 955.002,937.437 857.474,1025.7 901.307,971.474 939.76,940.328 900.467,989.688 893.356,991.042 856.451,1025.99 832.787,1045.14 808.665,1066.09 775.369,1094.67 761.411,1103.44 770.41,1097.13 743.005,1130.26 808.4,1049.25 812.183,1051.8 816.958,1046.52 839.676,1018.44 819.844,1042.62 867.833,999.065 834.146,1032.37 830.535,1031.57 850.497,1008.12 809.302,1061.06 830.138,1044.65 917.279,959.288 883.636,987.487 909.279,970.221 877.684,1002.17 836.648,1039.91 771.436,1107.48 769.339,1097.3 819.17,1045.21 852.974,1013.63 822.034,1046.59 853.244,1010.04 805.43,1062.24 844.961,1015.05 873.546,985.267 905.719,970.836 946.841,922.185 923.629,957.059 958.558,920.643 1023.34,860.213 1015.91,875.356 1042.38,865.511 1039.52,857.739 943.476,955.78 986.451,890.782 1003.27,874.722 1115.46,763.115 1134.16,781.724 1176.05,758.044 1231.98,702.086 1259.98,671.31 1209.52,716.322 1213.77,715.628 1226.12,717.708 1294.6,650.058 1224.43,706.767 1228.58,703.705 1166.39,752.04 1242.18,687.281 1268.94,687.917 1303.38,645.103 1359.35,597.028 1320.05,651.691 1207.53,740.493 1156.53,777.198 1092.89,822.234 1074.69,830.337 1066.74,836.194 1087.79,801.809 1161.62,730.549 1234.82,689.657 1222.99,707.507 1180.74,753.562 1218.58,710.387 1259.88,679.231 1260.71,670.605 1297.07,629.949 1254.32,680.591 1296.99,652.956 1196.16,751.557 1141.06,779.726 1121.75,790.344 1127.16,790.231 1195.37,734.746 1236,711.882 1260.43,685.685 1216.92,711.581 1226.59,701.82 1089.8,806.735 1149.71,755.585 1108.14,795.437 969.797,928.735 974.541,909.33 1019.11,861.255 1054.64,837.985 1037.15,853.917 1067.49,826.972 1044.33,843.899 1087.59,804.758 955.353,938.001 963.82,914.66 956.752,928 987.273,893.426 973.257,910.465 982.366,907.82 948.888,938.299 947.944,928.564 991.815,891.082 993.571,894.576 908.996,981.601 933.063,953.42 915.04,959.893 934.194,949.594 866.295,1017.17 1030.11,848.696 1093.99,812.937 1117.74,785.651 1141.74,793.981 1064.52,863.54 1101.38,808.712 1110.71,793.562 1245.78,664.099 1150.31,777.824 1106.95,807.674 1067.35,844.26 984.154,919.642 984.246,915.198 919.144,981.658 868.765,1025.6 835.686,1050.76 868.265,1001.04 811.308,1067.32 858.021,1013.62 846.719,1036.14 801.118,1076.61 780.152,1094.1 735.907,1141.36 747.61,1119.3 714.42,1158.84 706.47,1162.43 709.39,1158.15 731.713,1131.24 759.098,1097.29 808.254,1050.06 800.146,1070.01 802.688,1072.58 759.79,1114.65 771.909,1092.28 777.254,1083.37 761.177,1109.33 776.313,1093.64 752.177,1120.65 778.374,1081.83 850.462,1002.66 866.246,988.531 855.928,1013.52 828.148,1047.39 845.364,1024.98 861.415,1006.34 923.629,944.25 953.656,917.728 1060.76,813.286 1050.35,837.784 996.136,892.094 1015.94,872.395 1058.98,824.07 1023.85,868.059 1026.65,867.281 1166.77,730.263 1200.09,709.733 1044.71,869.459 1050.13,826.764 1053.58,831.048 1071.49,820.908 1022.03,878.151 1112.74,789.865 1147.54,754.018 1087.12,825.367 1056.64,844.071 1106.29,793.006 1197.22,707.993 1284.54,640.105 1291.16,661.402 1336.9,624.411 1263.14,690.149 1205.92,736.981 1170.6,762.831 1147.01,779.067 1016.15,890.317 1012.31,884.977 1013.19,874.09 1096.02,793.572 1098.69,790.311 1225.91,691.829 1193.54,746.987 1141.71,793.793 1163.86,760.145 1097,810.218 1116.6,781.27 1172.78,739.04 1170.14,747.325 1134.3,779.308 1145.1,780.963 1201.99,730.822 1279.7,681.656 1350.71,616.957 1368.86,613.687 1350.14,620.211 1248.63,712.11 1369.45,603.467 1489.55,519.207 1324.24,662.299 1328.82,635.377 1311.74,654.121 1298,658.911 1219.72,731.376 1241.55,697.406 1166.06,761.143 1170.42,754.204 1186.05,738.213 1101.87,816.955 1104.06,798.804 1030.73,870.706 972.177,926 970.753,911.655 1005.43,866.61 998.291,883.967 1003.25,877.928 1052.2,833.382 1079.34,820.18 1181,722.93 1236.92,701.698 1255.47,681.408 1282.79,676.781 1286.41,669.085 1272.64,692.304 1301.64,648.734 1248.99,701.924 1265.35,681.909 1196.63,742.453 1219.58,724.12 1190.51,766.097 1118.99,818.826 1113.83,813 1138.22,774.225 1154.15,767.523 1171.45,750.206 1174.53,757.937 1222.09,721.653 1225.71,723.682 1378.88,600.102 1278.56,683.167 1173.43,761.516 1063.35,857.959 1102.53,810.446 1077.04,827.179 1112.09,798.392 1192.29,720.149 1345.33,589.416 1275.55,664.093 1178.52,756.401 1161.7,785.47 1122.99,808.055 1200.81,719.772 1134.01,776.064 1141.25,762.343 1123.08,793.998 1115.2,797.17 1120.35,782.16 1069.81,836.197 1053.3,859.603 1053.36,854.581 1004.22,912.404 1003.5,885.92 1029.89,852.315 1151.04,742.501 1216.96,691.127 1296.82,629.086 1287.85,657.512 1250.17,695.663 1310.92,641.888 1267.84,692.416 1185.84,756.148 1160.41,770.522 1158.01,760.168 1217.71,698.509 1283.78,656.551 1267.84,682.61 1124.02,807.793 1125.58,792.793 1155.63,752.674 1186.69,723.511 1165.95,754.06 1135.02,788.786 1142.87,775.165 1148.93,765.248 1270.49,679.557 1291.29,655.623 1347.76,610.467 1434.56,552.533 1429.8,568.498 1347.56,630.586 1314.63,647.878 1268.06,688.273 1247.77,698.485 1328.07,613.16 1262.94,684.367 1245.35,688.521 1243.5,686.559 1181.06,748.733 1196.61,724.479 1241.76,700.667 1254.39,706.682 1184.37,769.639 1197.55,732.127 1190.99,722.781 1175.44,759.153 1140.36,766.388 1043.94,874.029 1064.92,845.816 1025.61,862.598 973.152,923.571 996.919,891.804 1048.85,827.122 1064.79,839.478 1073.86,829.621 1024.27,882.761 965.783,929.913 968.459,918.871 925.063,967.046 872.272,1016.2 850.961,1031.7 881.365,990.784 890.903,976.078 823.233,1059.01 778.463,1104.07 828.157,1035.62 900.227,956.169 952.308,903.926 1020.59,844.735 997.914,882.889 981.56,911.084 926.117,961.054 957.508,918.703 947.803,933.012 999.99,871.515 1148.54,739.225 1210.27,705.541 1162.34,767.902 1169.08,757.553 1144.91,781.273 1233.92,696.658 1258.07,678.751 1354.55,627.63 1345.91,633.209 1452.7,530.09 1594.31,450.543 1674.55,398.47 1724.01,373.85 1610.38,475.739 1592.3,483.395 1567.39,500.384 1506.49,540.857 1398.37,622.402 1336.07,660.624 1310.47,666.797 1183.71,778.102 1140.69,809.302 1153.52,779.581 1128.33,796.121 1079.05,835.471 1000.86,911.791 991.212,905.22 970.462,922.722 970.491,912.668 997.124,876.332 1052.39,825.001 1054.1,833.309 1047.69,842.045 1056.74,845.125 1030.93,867.538 969.418,933.042 963.663,927.778 997.812,883.082 1018.98,861.668 1008.96,880.306 1024.35,866.514 1072.72,821.319 1094.5,798.739 1193.46,720.649 1219.71,705.536 1206.25,726.923 1241.48,696.294 1285.98,653.62 1267.23,663.732 1237.54,710.221 1374.62,589.873 1267.31,664.218 1112.81,788.794 1114.49,773.385 1209.52,705.086 1189.93,743.617 1275.21,682.14 1152.46,779.432 1118.24,800.954 1078.79,824.733 1012.35,877.499 1024.99,880.754 1046.11,861.913 1150.61,765.552 1153.12,766.808 1212.45,707.313 1268.11,678.566 1275.22,677.184 1331.45,628.437 1223.3,731.103 1298.35,660.698 1306.17,665.116 1336.53,619.543 1484.65,492.969 1598.2,431.57 1666.93,397.81 1685.23,410.13 1733.46,370.258 1568.83,509.1 1482.78,566.018 1454.08,569.334 1402.46,612.776 1359.39,630.825 1283.47,698.542 1204.08,760.299 1196.58,752.901 1186.21,752.646 1151.72,778.292 1078.57,842.43 1012.62,906.409 1015.05,883.352 991.304,905.577 975.561,916.076 989.427,893.982 1026.72,856.204 1095.82,790.612 1097.64,799.675 1046.44,855.005 1050.63,852.435 1111.91,780.679 1120.07,775.704 1101.51,806.194 1052.29,850.071 1014.44,881.002 1056.21,831.248 1096.74,804.329 1139.86,764.455 1134.88,775.274 1154.12,765.868 1040.41,858.889 1038.92,848.781 919.689,972.038 948.477,933.275 940.085,936.6 929.023,942.346 956.804,912.351 1096.32,781.94 1029.21,856.332 1096.25,788.924 1057.6,835.91 973.947,910.631 975.822,902.698 988.442,882.633 1052.17,842.766 1068.97,832.308 1124.35,790.066 1108.09,828.971 1048.43,866.394 929.921,969.451 966.973,916.275 1056.51,823.517 1069.39,813.39 1008.55,861.445 1068.36,820.239 1102.75,786.223 1081.19,808.621 1128.11,776.598 1155.08,749.484 1128.42,772.4 1145.09,760.111 1018.49,875.247 1025.61,870.875 1065.2,840.007 905.975,984.624 849.731,1041.68 877.816,995.621 836.037,1040.91 785.234,1090.24 778.875,1094.78 886.531,967.53 856.933,1019 900.737,965.839 875.074,996.611 895.383,970.772 868.707,1002.03 944.153,919.692 1068.58,806.052 1046.54,853.641 1128.25,768.015 1301.29,617.105 1302.58,647.307 1227.47,728.611 1140.63,799.179 1033.7,895.647 1064.17,845.515 1087.63,814.832 1129.3,775.862 1242.71,684.948 1202.39,735.401 1177.89,754.081 1133.12,799.493 1134.15,790.991 1096.44,813.916 1078.39,822.801 1040.1,849.944 1093.42,797.789 972.302,919.504 1051.27,840.409 1035.96,860.053 1091.39,816.012 1073.45,828.262 1001.75,892.267 905.639,978.606 868.093,1012.01 844.883,1029.06 836.155,1041.18 844.697,1022.57 896.063,971.14 946.42,918.533 943.985,921.241 1014.5,861.287 990.823,896.942 1008.93,885.71 912.515,971.137 867.335,1010.69 869.634,1008.28 855.96,1020.54 930.142,935.976 932.149,933.881 956.158,916.974 1056.38,816.204 1132.56,765.549 1190.89,720.155 1170.88,748.766 1089.8,816.115 1069.84,845.76 1099.51,823.754 1198.88,752.306 1166.99,767.706 1119.17,798.788 1160.02,754.023 1144.6,761.325 1142.65,765.591 1171,734.504 1303.06,632.458 1474.9,494.429 1377.23,605.584 1391.88,597.939 1268.7,696.202 1267.84,684.777 1226.78,729.863 1305.3,654.003 1169.28,774.87 1178.05,758.063 1127.51,788.233 1141.63,777.718 1128.12,784.509 1157.64,761.127 1167.93,753.133 1177.16,740.936 1268.04,650.819 1298.67,633.504 1163.8,764.98 1092.93,817.32 1104.89,802.931 1040.98,870.496 948.161,966.489 961.64,929.161 947.8,933.238 916.907,976.59 871.16,1013.2 938.451,930.659 947.312,925.056 1084.34,790.805 1146.93,746.428 1102.66,802.538 1059.49,845.876 1040.45,866.031 1053.54,839.667 983.415,919.74 1034.51,855.471 971.127,919.954 881.718,1005.07 885.343,990.223 892.498,978.022 800.012,1072.34 727.005,1155.71 701.654,1179.34 723.008,1144.11 739.921,1122.48 793.194,1059.17 854.845,1007.11 845.764,1020.73 838.75,1036.76 802.111,1072.19 864.497,1003.01 942.719,932.928 951.096,929.102 842.774,1043.2 834.205,1038.19 800.736,1074.42 830.322,1035.13 799.729,1067.74 852.826,1007.22 941.28,918.291 941.614,932.949 943.873,931.094 1027.85,852.147 1083.1,804.295 1095.33,799.447 1034.46,863.803 1070.92,846.449 1134.31,772.239 1103.4,800.823 1109.01,788.443 1082.51,841.244 1085.08,829.444 1054.04,850.893 1021.44,872.714 972.859,911.461 1058.76,814.347 1096.41,796.212 1161.45,750.576 1135.47,772.855 1081.22,822.947 1051.21,851.964 974.272,923.717 1002.92,877.592 983.187,912.811 1042.74,863.15 1014.35,877.229 1080.28,810.164 1162.19,738.97 1137.51,778.66 1095.19,813.14 1085.99,835.699 1225.7,701.588 1243.24,684.469 1207.34,724.026 1105.43,807.721 1125.61,778.539 969.32,910.791 1044.25,833.164 1083.63,808.442 1042.67,841.338 982.418,902.406 996.266,887.465 967.846,921.776 980.68,909.899 984.002,888.675 988.904,898.126 1019.46,888.524 1087.8,814.772 1099.23,814.061 1022.81,877.215 975.759,909.872 949.116,951.482 873.149,1024.32 883.047,1005.6 855.073,1019.35 906.164,955.147 1013.45,851.704 993.081,882.799 939.136,936.981 921.901,958.598 1011.35,886.141 1053.63,837.135 925.265,958.075 938.659,934.597 915.787,961.761 995.941,869.773 978.725,887.395 957.994,919.24 908.05,972.927 925.933,951.555 943.109,943.827 924.442,949.529 863.259,1024.07 986.796,891.638 981.942,896.636 1018.76,870.258 998.943,883.415 963.225,929.603 937.29,946.428 933.234,948.233 983.881,901.557 1053.62,837.273 1037.13,854.229 1071.82,828.85 964.009,926.772 986.594,911.66 897.707,988.08 921.758,958.622 914.63,964.389 949.905,928.82 887.464,986.156 932.423,928.925 971.535,890.451 962.476,913.688 996.085,884.146 1043.52,843.312 1041.34,832.952 1109.84,794.625 1161.23,759.858 1084.12,825.861 1040.72,869.767 1067.35,840.552 1168.04,752.449 1171.27,748.922 1140.32,774.687 1130.04,784.247 1260.48,669.252 1228.21,702.672 1251.87,678.259 1285.51,662.488 1229.56,716.2 1145.34,793.002 1156.78,769.359 1120.6,795.535 970.075,935.699 911.537,985.372 943.727,940.948 971.419,906.038 957.238,913.702 918.272,959.169 950.94,932.622 979.912,901.514 937.165,939.778 1046.11,830.33 1015.43,870.758 1054.79,838.391 997.862,888.053 923.097,951.113 950.326,930.408 956.117,936.749 966.283,924.933 904.824,972.864 989.247,875.962 1066.87,814.358 1119.96,789.429 1196.39,728.779 1136.99,784.181 1115.18,801.535 1086.87,823.819 1098.9,802.43 987.906,884.753 1080.5,801.957 1140.25,759.504 1063.46,852.127 994.663,897.305 988.063,900.756 938.243,951.582 955.555,913.415 995.039,866.649 1100.41,774.7 1088,804.754 958.347,938.205 938.425,950.319 963.902,916.33 976.236,902.307 966.204,914.236 922.914,946.992 978.319,896.088 983.498,895.126 1008.55,876.499 961.601,927.95 999.154,897.907 964.32,932.602 1053.36,840.658 971.132,916.49 950.772,926.632 973.52,913.199 1068.66,819.859 1054.57,826.975 1154,756.368 1219.44,712.352 1300.53,642.065 1306.49,638.657 1169.48,745.326 1183.37,731.546 1197.51,714.921 1106.24,806.622 1124.67,777.852 924.454,960.367 902.076,973.103 918.807,954.74 838.104,1029.73 890.905,986.04 890.848,982.263 875.111,989.304 928.904,938.372 934.038,947.566 900.934,978.514 994.011,888.31 981.585,910.41 960.223,916.884 955.592,904.826 961.703,908.503 998.845,886.432 966.182,913.938 889.439,974.769 955.863,906.793 984.739,901.384 984.781,893.067 1003.99,873.024 1027.75,863.666 1073.75,818.647 1027.41,861.051 1075.1,824.683 1060.29,835.247 1011.9,889.738 965.332,925.89 926.305,961.211 975.825,906.427 948.542,933.778 914.906,957.28 975.448,895.249 1004.09,874.311 932.296,957.09 916.374,962.048 895.453,980.903 907.804,960.853 875.078,993.094 881.393,991.503 1007.06,868.097 1002.5,887.507 1056.14,830.167 1016.89,861.031 959.808,916.463 989.523,915.398 1055.05,842.626 1046.4,848.896 1113.38,793.077 1086.15,824.426 968.372,933.045 960.572,933.416 908.341,984.132 951.196,936.906 993.847,890.41 1090.52,794.513 1022.28,859.322 989.358,911.427 1036.05,855.773 1024.28,860.949 1028.59,858.418 1003.37,886.089 1161.86,737.802 1110.13,796.025 1125.54,791.77 1178.89,750.2 1287.76,645.031 1418.06,567.15 1298.49,688.328 1198.81,759.456 1157.18,785.66 1081.5,842.351 1081.82,831.017 1151.31,751.565 1092.09,823.752 1092.3,812.139 1129.23,770.226 1104.61,809.561 1106.18,807.207 1115.55,795.706 1078.1,836.633 1002.79,907.981 1023,877.741 1022.64,873.978 986.806,905.104 986.168,899.948 966.717,922.638 904.694,985.041 909.942,973.453 890.916,983.556 905.846,969.131 972.504,895.159 919.785,959.824 959.83,921.085 1049.21,834.963 1160,737.067 1283.06,655.972 1271.51,669.158 1314.01,644.863 1316.91,645.033 1340.47,619.638 1172.25,767.692 1168.18,760.632 1106.34,813.374 1015.29,896.475 1053.98,839.872 1041.19,855.531 976.48,920.838 961.332,927.706 1016.56,873.322 1070.4,819.35 1099.71,807.893 1082.09,823.811 1059.17,842.335 1013.44,878.576 1055.12,829.816 1061.58,833.763 1020.09,874.575 1025.16,867.919 1088.4,809.521 1068.62,837.033 959.46,936.072 1047.73,834.897 1034.51,853.529 1001.48,887.102 945.736,946.304 934.594,941.843 1023.63,851.249 1022.78,858.86 1057.62,829.153 1137.52,749.918 1182.21,723.716 1268.73,659.99 1228.59,710.082 1318.52,633.358 1253.84,703.002 1212.08,756.795 1207.89,741.113 1208.58,728.954 1167.55,765.328 1186.64,749.856 1059.12,859.042 1030.69,876.14 968.502,930.609 962.548,931.958 1044.48,837.708 1061.23,826.671 1120.76,775.239 1125.92,770.953 1279.78,655.407 1309.21,644.572 1280.4,670.513 1225.63,726.458 1181.39,748.968 1229.86,693.655 1172.71,754.769 1224.22,701.644 1270.37,664.383 1340.36,621.116 1332.26,633.191 1305.46,667.958 1293.82,663.739 1220.71,726.356 1152.18,785.465 1028.2,889.332 1026.61,872.848 987.666,910.276 972.574,923.255 905.741,983.903 899.296,981.718 880.659,998.296 1007.59,863.199 1064.77,812.592 1024.64,866.912 1055.85,843.107 1020.02,868.258 1010.97,874.114 1019.68,861.382 1024.45,856.161 1033.16,846.668 1007.58,868.636 1062.2,821.449 1006.33,878.284 1045.43,838.203 1174,719.367 1293.75,636.026 1246.67,699.58 1377.54,586.921 1287.56,663.352 1225.09,716.58 1143.1,790.362 1049.43,866.868 938.264,970.88 936.823,962.096 "/>
<path clip-path="url(#clip060)" d="M186.863 198.898 L550.897 198.898 L550.897 95.2176 L186.863 95.2176  Z" fill="#ffffff" fill-rule="evenodd" fill-opacity="1"/>
<polyline clip-path="url(#clip060)" style="stroke:#000000; stroke-linecap:round; stroke-linejoin:round; stroke-width:4; stroke-opacity:1; fill:none" points="186.863,198.898 550.897,198.898 550.897,95.2176 186.863,95.2176 186.863,198.898 "/>
<polyline clip-path="url(#clip060)" style="stroke:#009af9; stroke-linecap:round; stroke-linejoin:round; stroke-width:4; stroke-opacity:1; fill:none" points="211.758,147.058 361.13,147.058 "/>
<path clip-path="url(#clip060)" d="M396.651 128.366 Q393.549 133.69 392.044 138.898 Q390.54 144.106 390.54 149.453 Q390.54 154.801 392.044 160.055 Q393.572 165.287 396.651 170.588 L392.947 170.588 Q389.475 165.148 387.739 159.893 Q386.026 154.639 386.026 149.453 Q386.026 144.291 387.739 139.06 Q389.452 133.828 392.947 128.366 L396.651 128.366 Z" fill="#000000" fill-rule="nonzero" fill-opacity="1" /><path clip-path="url(#clip060)" d="M403.063 138.412 L423.294 138.412 L423.294 142.301 L407.276 160.935 L423.294 160.935 L423.294 164.338 L402.484 164.338 L402.484 160.449 L418.502 141.815 L403.063 141.815 L403.063 138.412 Z" fill="#000000" fill-rule="nonzero" fill-opacity="1" /><path clip-path="url(#clip060)" d="M430.887 158.458 L435.771 158.458 L435.771 162.439 L431.975 169.847 L428.988 169.847 L430.887 162.439 L430.887 158.458 Z" fill="#000000" fill-rule="nonzero" fill-opacity="1" /><path clip-path="url(#clip060)" d="M455.655 166.745 Q453.849 171.375 452.136 172.787 Q450.423 174.199 447.553 174.199 L444.15 174.199 L444.15 170.634 L446.65 170.634 Q448.41 170.634 449.382 169.8 Q450.354 168.967 451.535 165.865 L452.298 163.921 L441.812 138.412 L446.326 138.412 L454.428 158.689 L462.53 138.412 L467.044 138.412 L455.655 166.745 Z" fill="#000000" fill-rule="nonzero" fill-opacity="1" /><path clip-path="url(#clip060)" d="M474.011 158.458 L478.896 158.458 L478.896 162.439 L475.099 169.847 L472.113 169.847 L474.011 162.439 L474.011 158.458 Z" fill="#000000" fill-rule="nonzero" fill-opacity="1" /><path clip-path="url(#clip060)" d="M509.544 138.412 L500.169 151.027 L510.03 164.338 L505.007 164.338 L497.46 154.152 L489.914 164.338 L484.891 164.338 L494.96 150.773 L485.747 138.412 L490.77 138.412 L497.645 147.648 L504.52 138.412 L509.544 138.412 Z" fill="#000000" fill-rule="nonzero" fill-opacity="1" /><path clip-path="url(#clip060)" d="M515.377 128.366 L519.081 128.366 Q522.553 133.828 524.266 139.06 Q526.002 144.291 526.002 149.453 Q526.002 154.639 524.266 159.893 Q522.553 165.148 519.081 170.588 L515.377 170.588 Q518.456 165.287 519.96 160.055 Q521.488 154.801 521.488 149.453 Q521.488 144.106 519.96 138.898 Q518.456 133.69 515.377 128.366 Z" fill="#000000" fill-rule="nonzero" fill-opacity="1" /></svg>
