<?xml version="1.0" encoding="utf-8"?>
<svg xmlns="http://www.w3.org/2000/svg" xmlns:xlink="http://www.w3.org/1999/xlink" width="600" height="400" viewBox="0 0 2400 1600">
<defs>
  <clipPath id="clip980">
    <rect x="0" y="0" width="2400" height="1600"/>
  </clipPath>
</defs>
<path clip-path="url(#clip980)" d="M0 1600 L2400 1600 L2400 0 L0 0  Z" fill="#ffffff" fill-rule="evenodd" fill-opacity="1"/>
<defs>
  <clipPath id="clip981">
    <rect x="112" y="47" width="2242" height="1440"/>
  </clipPath>
</defs>
<path clip-path="url(#clip981)" d="M-738.423 2655.5 L-738.423 2365.55 L-394.359 2220.57 L201.579 2304.27 L201.579 2594.23 L-142.486 2739.21 L-738.423 2655.5  Z" fill="#ffffff" fill-rule="evenodd" fill-opacity="1"/>
<polyline clip-path="url(#clip981)" style="stroke:#000000; stroke-linecap:round; stroke-linejoin:round; stroke-width:2; stroke-opacity:0.1; fill:none" points="691.683,1210.4 1107.14,850.602 1107.14,131 "/>
<polyline clip-path="url(#clip981)" style="stroke:#000000; stroke-linecap:round; stroke-linejoin:round; stroke-width:2; stroke-opacity:0.1; fill:none" points="840.667,1253.41 1256.13,893.61 1256.13,174.009 "/>
<polyline clip-path="url(#clip981)" style="stroke:#000000; stroke-linecap:round; stroke-linejoin:round; stroke-width:2; stroke-opacity:0.1; fill:none" points="989.651,1296.42 1405.11,936.619 1405.11,217.017 "/>
<polyline clip-path="url(#clip981)" style="stroke:#000000; stroke-linecap:round; stroke-linejoin:round; stroke-width:2; stroke-opacity:0.1; fill:none" points="1138.64,1339.43 1554.1,979.627 1554.1,260.025 "/>
<polyline clip-path="url(#clip981)" style="stroke:#000000; stroke-linecap:round; stroke-linejoin:round; stroke-width:2; stroke-opacity:0.1; fill:none" points="1287.62,1382.44 1703.08,1022.63 1703.08,303.033 "/>
<polyline clip-path="url(#clip981)" style="stroke:#000000; stroke-linecap:round; stroke-linejoin:round; stroke-width:2; stroke-opacity:0.1; fill:none" points="1432.57,1368.82 712.964,1161.09 712.964,441.485 "/>
<polyline clip-path="url(#clip981)" style="stroke:#000000; stroke-linecap:round; stroke-linejoin:round; stroke-width:2; stroke-opacity:0.1; fill:none" points="1516.27,1296.33 796.667,1088.6 796.667,368.997 "/>
<polyline clip-path="url(#clip981)" style="stroke:#000000; stroke-linecap:round; stroke-linejoin:round; stroke-width:2; stroke-opacity:0.1; fill:none" points="1599.97,1223.84 880.369,1016.11 880.369,296.508 "/>
<polyline clip-path="url(#clip981)" style="stroke:#000000; stroke-linecap:round; stroke-linejoin:round; stroke-width:2; stroke-opacity:0.1; fill:none" points="1683.67,1151.35 964.072,943.621 964.072,224.019 "/>
<polyline clip-path="url(#clip981)" style="stroke:#000000; stroke-linecap:round; stroke-linejoin:round; stroke-width:2; stroke-opacity:0.1; fill:none" points="1767.38,1078.86 1047.77,871.132 1047.77,151.531 "/>
<polyline clip-path="url(#clip981)" style="stroke:#000000; stroke-linecap:round; stroke-linejoin:round; stroke-width:2; stroke-opacity:0.1; fill:none" points="664.934,1102.69 1080.4,742.893 1800,950.625 "/>
<polyline clip-path="url(#clip981)" style="stroke:#000000; stroke-linecap:round; stroke-linejoin:round; stroke-width:2; stroke-opacity:0.1; fill:none" points="664.934,982.446 1080.4,622.645 1800,830.376 "/>
<polyline clip-path="url(#clip981)" style="stroke:#000000; stroke-linecap:round; stroke-linejoin:round; stroke-width:2; stroke-opacity:0.1; fill:none" points="664.934,862.197 1080.4,502.396 1800,710.128 "/>
<polyline clip-path="url(#clip981)" style="stroke:#000000; stroke-linecap:round; stroke-linejoin:round; stroke-width:2; stroke-opacity:0.1; fill:none" points="664.934,741.949 1080.4,382.148 1800,589.879 "/>
<polyline clip-path="url(#clip981)" style="stroke:#000000; stroke-linecap:round; stroke-linejoin:round; stroke-width:2; stroke-opacity:0.1; fill:none" points="664.934,621.7 1080.4,261.899 1800,469.631 "/>
<polyline clip-path="url(#clip981)" style="stroke:#000000; stroke-linecap:round; stroke-linejoin:round; stroke-width:2; stroke-opacity:0.1; fill:none" points="664.934,501.452 1080.4,141.651 1800,349.382 "/>
<polyline clip-path="url(#clip980)" style="stroke:#000000; stroke-linecap:round; stroke-linejoin:round; stroke-width:4; stroke-opacity:1; fill:none" points="664.934,1202.68 1384.54,1410.41 "/>
<polyline clip-path="url(#clip980)" style="stroke:#000000; stroke-linecap:round; stroke-linejoin:round; stroke-width:4; stroke-opacity:1; fill:none" points="691.683,1210.4 696.668,1206.09 "/>
<polyline clip-path="url(#clip980)" style="stroke:#000000; stroke-linecap:round; stroke-linejoin:round; stroke-width:4; stroke-opacity:1; fill:none" points="840.667,1253.41 845.652,1249.09 "/>
<polyline clip-path="url(#clip980)" style="stroke:#000000; stroke-linecap:round; stroke-linejoin:round; stroke-width:4; stroke-opacity:1; fill:none" points="989.651,1296.42 994.637,1292.1 "/>
<polyline clip-path="url(#clip980)" style="stroke:#000000; stroke-linecap:round; stroke-linejoin:round; stroke-width:4; stroke-opacity:1; fill:none" points="1138.64,1339.43 1143.62,1335.11 "/>
<polyline clip-path="url(#clip980)" style="stroke:#000000; stroke-linecap:round; stroke-linejoin:round; stroke-width:4; stroke-opacity:1; fill:none" points="1287.62,1382.44 1292.61,1378.12 "/>
<path clip-path="url(#clip980)" d="M631.496 1224.72 Q627.885 1224.72 626.057 1228.29 Q624.251 1231.83 624.251 1238.96 Q624.251 1246.06 626.057 1249.63 Q627.885 1253.17 631.496 1253.17 Q635.131 1253.17 636.936 1249.63 Q638.765 1246.06 638.765 1238.96 Q638.765 1231.83 636.936 1228.29 Q635.131 1224.72 631.496 1224.72 M631.496 1221.02 Q637.307 1221.02 640.362 1225.62 Q643.441 1230.21 643.441 1238.96 Q643.441 1247.68 640.362 1252.29 Q637.307 1256.87 631.496 1256.87 Q625.686 1256.87 622.608 1252.29 Q619.552 1247.68 619.552 1238.96 Q619.552 1230.21 622.608 1225.62 Q625.686 1221.02 631.496 1221.02 Z" fill="#000000" fill-rule="nonzero" fill-opacity="1" /><path clip-path="url(#clip980)" d="M651.658 1250.32 L656.543 1250.32 L656.543 1256.2 L651.658 1256.2 L651.658 1250.32 Z" fill="#000000" fill-rule="nonzero" fill-opacity="1" /><path clip-path="url(#clip980)" d="M666.774 1221.64 L685.13 1221.64 L685.13 1225.58 L671.056 1225.58 L671.056 1234.05 Q672.075 1233.7 673.093 1233.54 Q674.112 1233.36 675.131 1233.36 Q680.918 1233.36 684.297 1236.53 Q687.677 1239.7 687.677 1245.12 Q687.677 1250.69 684.205 1253.8 Q680.732 1256.87 674.413 1256.87 Q672.237 1256.87 669.968 1256.5 Q667.723 1256.13 665.316 1255.39 L665.316 1250.69 Q667.399 1251.83 669.621 1252.38 Q671.843 1252.94 674.32 1252.94 Q678.325 1252.94 680.663 1250.83 Q683.001 1248.73 683.001 1245.12 Q683.001 1241.5 680.663 1239.4 Q678.325 1237.29 674.32 1237.29 Q672.445 1237.29 670.57 1237.71 Q668.718 1238.12 666.774 1239 L666.774 1221.64 Z" fill="#000000" fill-rule="nonzero" fill-opacity="1" /><path clip-path="url(#clip980)" d="M770.296 1295.28 L777.935 1295.28 L777.935 1268.91 L769.624 1270.58 L769.624 1266.32 L777.888 1264.65 L782.564 1264.65 L782.564 1295.28 L790.203 1295.28 L790.203 1299.21 L770.296 1299.21 L770.296 1295.28 Z" fill="#000000" fill-rule="nonzero" fill-opacity="1" /><path clip-path="url(#clip980)" d="M799.647 1293.33 L804.532 1293.33 L804.532 1299.21 L799.647 1299.21 L799.647 1293.33 Z" fill="#000000" fill-rule="nonzero" fill-opacity="1" /><path clip-path="url(#clip980)" d="M824.717 1267.73 Q821.106 1267.73 819.277 1271.29 Q817.471 1274.84 817.471 1281.97 Q817.471 1289.07 819.277 1292.64 Q821.106 1296.18 824.717 1296.18 Q828.351 1296.18 830.157 1292.64 Q831.985 1289.07 831.985 1281.97 Q831.985 1274.84 830.157 1271.29 Q828.351 1267.73 824.717 1267.73 M824.717 1264.03 Q830.527 1264.03 833.582 1268.63 Q836.661 1273.22 836.661 1281.97 Q836.661 1290.69 833.582 1295.3 Q830.527 1299.88 824.717 1299.88 Q818.907 1299.88 815.828 1295.3 Q812.772 1290.69 812.772 1281.97 Q812.772 1273.22 815.828 1268.63 Q818.907 1264.03 824.717 1264.03 Z" fill="#000000" fill-rule="nonzero" fill-opacity="1" /><path clip-path="url(#clip980)" d="M920.276 1338.28 L927.914 1338.28 L927.914 1311.92 L919.604 1313.59 L919.604 1309.33 L927.868 1307.66 L932.544 1307.66 L932.544 1338.28 L940.183 1338.28 L940.183 1342.22 L920.276 1342.22 L920.276 1338.28 Z" fill="#000000" fill-rule="nonzero" fill-opacity="1" /><path clip-path="url(#clip980)" d="M949.627 1336.34 L954.511 1336.34 L954.511 1342.22 L949.627 1342.22 L949.627 1336.34 Z" fill="#000000" fill-rule="nonzero" fill-opacity="1" /><path clip-path="url(#clip980)" d="M964.743 1307.66 L983.099 1307.66 L983.099 1311.59 L969.025 1311.59 L969.025 1320.07 Q970.044 1319.72 971.062 1319.56 Q972.081 1319.37 973.099 1319.37 Q978.886 1319.37 982.266 1322.54 Q985.646 1325.72 985.646 1331.13 Q985.646 1336.71 982.173 1339.81 Q978.701 1342.89 972.382 1342.89 Q970.206 1342.89 967.937 1342.52 Q965.692 1342.15 963.285 1341.41 L963.285 1336.71 Q965.368 1337.84 967.59 1338.4 Q969.812 1338.96 972.289 1338.96 Q976.294 1338.96 978.632 1336.85 Q980.97 1334.74 980.97 1331.13 Q980.97 1327.52 978.632 1325.41 Q976.294 1323.31 972.289 1323.31 Q970.414 1323.31 968.539 1323.72 Q966.687 1324.14 964.743 1325.02 L964.743 1307.66 Z" fill="#000000" fill-rule="nonzero" fill-opacity="1" /><path clip-path="url(#clip980)" d="M1071.48 1381.29 L1087.8 1381.29 L1087.8 1385.23 L1065.86 1385.23 L1065.86 1381.29 Q1068.52 1378.54 1073.1 1373.91 Q1077.71 1369.26 1078.89 1367.91 Q1081.13 1365.39 1082.01 1363.65 Q1082.92 1361.89 1082.92 1360.2 Q1082.92 1357.45 1080.97 1355.71 Q1079.05 1353.98 1075.95 1353.98 Q1073.75 1353.98 1071.3 1354.74 Q1068.87 1355.51 1066.09 1357.06 L1066.09 1352.33 Q1068.91 1351.2 1071.37 1350.62 Q1073.82 1350.04 1075.86 1350.04 Q1081.23 1350.04 1084.42 1352.73 Q1087.62 1355.41 1087.62 1359.9 Q1087.62 1362.03 1086.81 1363.95 Q1086.02 1365.85 1083.91 1368.45 Q1083.33 1369.12 1080.23 1372.33 Q1077.13 1375.53 1071.48 1381.29 Z" fill="#000000" fill-rule="nonzero" fill-opacity="1" /><path clip-path="url(#clip980)" d="M1097.62 1379.35 L1102.5 1379.35 L1102.5 1385.23 L1097.62 1385.23 L1097.62 1379.35 Z" fill="#000000" fill-rule="nonzero" fill-opacity="1" /><path clip-path="url(#clip980)" d="M1122.69 1353.75 Q1119.07 1353.75 1117.25 1357.31 Q1115.44 1360.85 1115.44 1367.98 Q1115.44 1375.09 1117.25 1378.65 Q1119.07 1382.2 1122.69 1382.2 Q1126.32 1382.2 1128.13 1378.65 Q1129.95 1375.09 1129.95 1367.98 Q1129.95 1360.85 1128.13 1357.31 Q1126.32 1353.75 1122.69 1353.75 M1122.69 1350.04 Q1128.5 1350.04 1131.55 1354.65 Q1134.63 1359.23 1134.63 1367.98 Q1134.63 1376.71 1131.55 1381.32 Q1128.5 1385.9 1122.69 1385.9 Q1116.88 1385.9 1113.8 1381.32 Q1110.74 1376.71 1110.74 1367.98 Q1110.74 1359.23 1113.8 1354.65 Q1116.88 1350.04 1122.69 1350.04 Z" fill="#000000" fill-rule="nonzero" fill-opacity="1" /><path clip-path="url(#clip980)" d="M1221.46 1424.3 L1237.78 1424.3 L1237.78 1428.24 L1215.84 1428.24 L1215.84 1424.3 Q1218.5 1421.55 1223.08 1416.92 Q1227.69 1412.26 1228.87 1410.92 Q1231.11 1408.4 1231.99 1406.66 Q1232.9 1404.9 1232.9 1403.21 Q1232.9 1400.46 1230.95 1398.72 Q1229.03 1396.99 1225.93 1396.99 Q1223.73 1396.99 1221.28 1397.75 Q1218.85 1398.51 1216.07 1400.06 L1216.07 1395.34 Q1218.89 1394.21 1221.35 1393.63 Q1223.8 1393.05 1225.84 1393.05 Q1231.21 1393.05 1234.4 1395.74 Q1237.6 1398.42 1237.6 1402.91 Q1237.6 1405.04 1236.79 1406.96 Q1236 1408.86 1233.89 1411.45 Q1233.31 1412.12 1230.21 1415.34 Q1227.11 1418.54 1221.46 1424.3 Z" fill="#000000" fill-rule="nonzero" fill-opacity="1" /><path clip-path="url(#clip980)" d="M1247.6 1422.36 L1252.48 1422.36 L1252.48 1428.24 L1247.6 1428.24 L1247.6 1422.36 Z" fill="#000000" fill-rule="nonzero" fill-opacity="1" /><path clip-path="url(#clip980)" d="M1262.71 1393.68 L1281.07 1393.68 L1281.07 1397.61 L1266.99 1397.61 L1266.99 1406.08 Q1268.01 1405.74 1269.03 1405.57 Q1270.05 1405.39 1271.07 1405.39 Q1276.86 1405.39 1280.23 1408.56 Q1283.61 1411.73 1283.61 1417.15 Q1283.61 1422.73 1280.14 1425.83 Q1276.67 1428.91 1270.35 1428.91 Q1268.17 1428.91 1265.91 1428.54 Q1263.66 1428.17 1261.25 1427.43 L1261.25 1422.73 Q1263.34 1423.86 1265.56 1424.42 Q1267.78 1424.97 1270.26 1424.97 Q1274.26 1424.97 1276.6 1422.87 Q1278.94 1420.76 1278.94 1417.15 Q1278.94 1413.54 1276.6 1411.43 Q1274.26 1409.32 1270.26 1409.32 Q1268.38 1409.32 1266.51 1409.74 Q1264.66 1410.16 1262.71 1411.04 L1262.71 1393.68 Z" fill="#000000" fill-rule="nonzero" fill-opacity="1" /><polyline clip-path="url(#clip980)" style="stroke:#000000; stroke-linecap:round; stroke-linejoin:round; stroke-width:4; stroke-opacity:1; fill:none" points="1384.54,1410.41 1800,1050.61 "/>
<polyline clip-path="url(#clip980)" style="stroke:#000000; stroke-linecap:round; stroke-linejoin:round; stroke-width:4; stroke-opacity:1; fill:none" points="1432.57,1368.82 1423.93,1366.33 "/>
<polyline clip-path="url(#clip980)" style="stroke:#000000; stroke-linecap:round; stroke-linejoin:round; stroke-width:4; stroke-opacity:1; fill:none" points="1516.27,1296.33 1507.63,1293.84 "/>
<polyline clip-path="url(#clip980)" style="stroke:#000000; stroke-linecap:round; stroke-linejoin:round; stroke-width:4; stroke-opacity:1; fill:none" points="1599.97,1223.84 1591.34,1221.35 "/>
<polyline clip-path="url(#clip980)" style="stroke:#000000; stroke-linecap:round; stroke-linejoin:round; stroke-width:4; stroke-opacity:1; fill:none" points="1683.67,1151.35 1675.04,1148.86 "/>
<polyline clip-path="url(#clip980)" style="stroke:#000000; stroke-linecap:round; stroke-linejoin:round; stroke-width:4; stroke-opacity:1; fill:none" points="1767.38,1078.86 1758.74,1076.37 "/>
<path clip-path="url(#clip980)" d="M1459.35 1382.15 L1447.55 1400.6 L1459.35 1400.6 L1459.35 1382.15 M1458.12 1378.08 L1464 1378.08 L1464 1400.6 L1468.93 1400.6 L1468.93 1404.49 L1464 1404.49 L1464 1412.64 L1459.35 1412.64 L1459.35 1404.49 L1443.75 1404.49 L1443.75 1399.98 L1458.12 1378.08 Z" fill="#000000" fill-rule="nonzero" fill-opacity="1" /><path clip-path="url(#clip980)" d="M1528.91 1305.59 L1547.27 1305.59 L1547.27 1309.52 L1533.19 1309.52 L1533.19 1318 Q1534.21 1317.65 1535.23 1317.49 Q1536.25 1317.3 1537.27 1317.3 Q1543.05 1317.3 1546.43 1320.47 Q1549.81 1323.65 1549.81 1329.06 Q1549.81 1334.64 1546.34 1337.74 Q1542.87 1340.82 1536.55 1340.82 Q1534.37 1340.82 1532.1 1340.45 Q1529.86 1340.08 1527.45 1339.34 L1527.45 1334.64 Q1529.53 1335.77 1531.76 1336.33 Q1533.98 1336.89 1536.46 1336.89 Q1540.46 1336.89 1542.8 1334.78 Q1545.14 1332.67 1545.14 1329.06 Q1545.14 1325.45 1542.8 1323.34 Q1540.46 1321.24 1536.46 1321.24 Q1534.58 1321.24 1532.71 1321.65 Q1530.85 1322.07 1528.91 1322.95 L1528.91 1305.59 Z" fill="#000000" fill-rule="nonzero" fill-opacity="1" /><path clip-path="url(#clip980)" d="M1623.49 1248.52 Q1620.34 1248.52 1618.49 1250.67 Q1616.66 1252.82 1616.66 1256.57 Q1616.66 1260.3 1618.49 1262.48 Q1620.34 1264.63 1623.49 1264.63 Q1626.64 1264.63 1628.47 1262.48 Q1630.32 1260.3 1630.32 1256.57 Q1630.32 1252.82 1628.47 1250.67 Q1626.64 1248.52 1623.49 1248.52 M1632.77 1233.86 L1632.77 1238.12 Q1631.02 1237.29 1629.21 1236.85 Q1627.43 1236.41 1625.67 1236.41 Q1621.04 1236.41 1618.58 1239.54 Q1616.15 1242.66 1615.81 1248.98 Q1617.17 1246.97 1619.23 1245.9 Q1621.29 1244.81 1623.77 1244.81 Q1628.98 1244.81 1631.99 1247.99 Q1635.02 1251.13 1635.02 1256.57 Q1635.02 1261.9 1631.87 1265.11 Q1628.72 1268.33 1623.49 1268.33 Q1617.5 1268.33 1614.33 1263.75 Q1611.15 1259.14 1611.15 1250.42 Q1611.15 1242.22 1615.04 1237.36 Q1618.93 1232.48 1625.48 1232.48 Q1627.24 1232.48 1629.02 1232.82 Q1630.83 1233.17 1632.77 1233.86 Z" fill="#000000" fill-rule="nonzero" fill-opacity="1" /><path clip-path="url(#clip980)" d="M1694.86 1160.61 L1717.08 1160.61 L1717.08 1162.6 L1704.53 1195.17 L1699.65 1195.17 L1711.45 1164.55 L1694.86 1164.55 L1694.86 1160.61 Z" fill="#000000" fill-rule="nonzero" fill-opacity="1" /><path clip-path="url(#clip980)" d="M1790.41 1106.27 Q1787.08 1106.27 1785.16 1108.05 Q1783.26 1109.84 1783.26 1112.96 Q1783.26 1116.09 1785.16 1117.87 Q1787.08 1119.65 1790.41 1119.65 Q1793.74 1119.65 1795.67 1117.87 Q1797.59 1116.06 1797.59 1112.96 Q1797.59 1109.84 1795.67 1108.05 Q1793.77 1106.27 1790.41 1106.27 M1785.74 1104.28 Q1782.73 1103.54 1781.04 1101.48 Q1779.37 1099.42 1779.37 1096.46 Q1779.37 1092.31 1782.31 1089.91 Q1785.27 1087.5 1790.41 1087.5 Q1795.57 1087.5 1798.51 1089.91 Q1801.45 1092.31 1801.45 1096.46 Q1801.45 1099.42 1799.76 1101.48 Q1798.1 1103.54 1795.11 1104.28 Q1798.49 1105.07 1800.37 1107.36 Q1802.26 1109.65 1802.26 1112.96 Q1802.26 1117.98 1799.18 1120.67 Q1796.13 1123.36 1790.41 1123.36 Q1784.69 1123.36 1781.62 1120.67 Q1778.56 1117.98 1778.56 1112.96 Q1778.56 1109.65 1780.46 1107.36 Q1782.36 1105.07 1785.74 1104.28 M1784.02 1096.9 Q1784.02 1099.58 1785.69 1101.09 Q1787.38 1102.59 1790.41 1102.59 Q1793.42 1102.59 1795.11 1101.09 Q1796.82 1099.58 1796.82 1096.9 Q1796.82 1094.21 1795.11 1092.71 Q1793.42 1091.2 1790.41 1091.2 Q1787.38 1091.2 1785.69 1092.71 Q1784.02 1094.21 1784.02 1096.9 Z" fill="#000000" fill-rule="nonzero" fill-opacity="1" /><polyline clip-path="url(#clip980)" style="stroke:#000000; stroke-linecap:round; stroke-linejoin:round; stroke-width:4; stroke-opacity:1; fill:none" points="664.934,1202.68 664.934,483.08 "/>
<polyline clip-path="url(#clip980)" style="stroke:#000000; stroke-linecap:round; stroke-linejoin:round; stroke-width:4; stroke-opacity:1; fill:none" points="664.934,1102.69 669.92,1098.38 "/>
<polyline clip-path="url(#clip980)" style="stroke:#000000; stroke-linecap:round; stroke-linejoin:round; stroke-width:4; stroke-opacity:1; fill:none" points="664.934,982.446 669.92,978.128 "/>
<polyline clip-path="url(#clip980)" style="stroke:#000000; stroke-linecap:round; stroke-linejoin:round; stroke-width:4; stroke-opacity:1; fill:none" points="664.934,862.197 669.92,857.88 "/>
<polyline clip-path="url(#clip980)" style="stroke:#000000; stroke-linecap:round; stroke-linejoin:round; stroke-width:4; stroke-opacity:1; fill:none" points="664.934,741.949 669.92,737.631 "/>
<polyline clip-path="url(#clip980)" style="stroke:#000000; stroke-linecap:round; stroke-linejoin:round; stroke-width:4; stroke-opacity:1; fill:none" points="664.934,621.7 669.92,617.383 "/>
<polyline clip-path="url(#clip980)" style="stroke:#000000; stroke-linecap:round; stroke-linejoin:round; stroke-width:4; stroke-opacity:1; fill:none" points="664.934,501.452 669.92,497.134 "/>
<path clip-path="url(#clip980)" d="M626.551 1089.49 L614.746 1107.94 L626.551 1107.94 L626.551 1089.49 M625.324 1085.41 L631.204 1085.41 L631.204 1107.94 L636.134 1107.94 L636.134 1111.83 L631.204 1111.83 L631.204 1119.97 L626.551 1119.97 L626.551 1111.83 L610.949 1111.83 L610.949 1107.31 L625.324 1085.41 Z" fill="#000000" fill-rule="nonzero" fill-opacity="1" /><path clip-path="url(#clip980)" d="M615.232 965.166 L633.588 965.166 L633.588 969.101 L619.514 969.101 L619.514 977.573 Q620.533 977.226 621.551 977.064 Q622.57 976.879 623.588 976.879 Q629.375 976.879 632.755 980.05 Q636.134 983.221 636.134 988.638 Q636.134 994.217 632.662 997.318 Q629.19 1000.4 622.871 1000.4 Q620.695 1000.4 618.426 1000.03 Q616.181 999.656 613.773 998.916 L613.773 994.217 Q615.857 995.351 618.079 995.906 Q620.301 996.462 622.778 996.462 Q626.783 996.462 629.121 994.356 Q631.459 992.249 631.459 988.638 Q631.459 985.027 629.121 982.92 Q626.783 980.814 622.778 980.814 Q620.903 980.814 619.028 981.231 Q617.176 981.647 615.232 982.527 L615.232 965.166 Z" fill="#000000" fill-rule="nonzero" fill-opacity="1" /><path clip-path="url(#clip980)" d="M624.607 860.334 Q621.459 860.334 619.607 862.487 Q617.778 864.64 617.778 868.389 Q617.778 872.116 619.607 874.292 Q621.459 876.445 624.607 876.445 Q627.755 876.445 629.584 874.292 Q631.435 872.116 631.435 868.389 Q631.435 864.64 629.584 862.487 Q627.755 860.334 624.607 860.334 M633.889 845.681 L633.889 849.941 Q632.13 849.107 630.324 848.667 Q628.542 848.228 626.783 848.228 Q622.153 848.228 619.699 851.353 Q617.269 854.478 616.922 860.797 Q618.287 858.783 620.347 857.718 Q622.408 856.63 624.884 856.63 Q630.093 856.63 633.102 859.802 Q636.134 862.95 636.134 868.389 Q636.134 873.714 632.986 876.931 Q629.838 880.149 624.607 880.149 Q618.611 880.149 615.44 875.565 Q612.269 870.959 612.269 862.232 Q612.269 854.038 616.158 849.177 Q620.047 844.292 626.597 844.292 Q628.357 844.292 630.139 844.64 Q631.945 844.987 633.889 845.681 Z" fill="#000000" fill-rule="nonzero" fill-opacity="1" /><path clip-path="url(#clip980)" d="M613.912 724.669 L636.134 724.669 L636.134 726.66 L623.588 759.229 L618.704 759.229 L630.509 728.604 L613.912 728.604 L613.912 724.669 Z" fill="#000000" fill-rule="nonzero" fill-opacity="1" /><path clip-path="url(#clip980)" d="M624.283 622.568 Q620.949 622.568 619.028 624.351 Q617.13 626.133 617.13 629.258 Q617.13 632.383 619.028 634.166 Q620.949 635.948 624.283 635.948 Q627.616 635.948 629.537 634.166 Q631.459 632.36 631.459 629.258 Q631.459 626.133 629.537 624.351 Q627.639 622.568 624.283 622.568 M619.607 620.578 Q616.597 619.837 614.908 617.777 Q613.241 615.717 613.241 612.754 Q613.241 608.61 616.181 606.203 Q619.144 603.795 624.283 603.795 Q629.445 603.795 632.384 606.203 Q635.324 608.61 635.324 612.754 Q635.324 615.717 633.634 617.777 Q631.968 619.837 628.982 620.578 Q632.361 621.365 634.236 623.656 Q636.134 625.948 636.134 629.258 Q636.134 634.281 633.056 636.967 Q630 639.652 624.283 639.652 Q618.565 639.652 615.486 636.967 Q612.431 634.281 612.431 629.258 Q612.431 625.948 614.329 623.656 Q616.227 621.365 619.607 620.578 M617.894 613.193 Q617.894 615.879 619.56 617.383 Q621.25 618.888 624.283 618.888 Q627.292 618.888 628.982 617.383 Q630.695 615.879 630.695 613.193 Q630.695 610.508 628.982 609.004 Q627.292 607.499 624.283 607.499 Q621.25 607.499 619.56 609.004 Q617.894 610.508 617.894 613.193 Z" fill="#000000" fill-rule="nonzero" fill-opacity="1" /><path clip-path="url(#clip980)" d="M614.514 518.014 L614.514 513.755 Q616.273 514.588 618.079 515.028 Q619.885 515.468 621.621 515.468 Q626.25 515.468 628.681 512.366 Q631.134 509.241 631.482 502.899 Q630.139 504.889 628.079 505.954 Q626.019 507.019 623.519 507.019 Q618.334 507.019 615.301 503.894 Q612.292 500.746 612.292 495.306 Q612.292 489.982 615.44 486.764 Q618.588 483.547 623.82 483.547 Q629.815 483.547 632.963 488.153 Q636.134 492.737 636.134 501.487 Q636.134 509.658 632.246 514.542 Q628.38 519.403 621.829 519.403 Q620.07 519.403 618.264 519.056 Q616.459 518.709 614.514 518.014 M623.82 503.362 Q626.968 503.362 628.796 501.209 Q630.648 499.056 630.648 495.306 Q630.648 491.579 628.796 489.427 Q626.968 487.251 623.82 487.251 Q620.672 487.251 618.82 489.427 Q616.991 491.579 616.991 495.306 Q616.991 499.056 618.82 501.209 Q620.672 503.362 623.82 503.362 Z" fill="#000000" fill-rule="nonzero" fill-opacity="1" /><polyline clip-path="url(#clip981)" style="stroke:#009af9; stroke-linecap:round; stroke-linejoin:round; stroke-width:4; stroke-opacity:1; fill:none" points="972.399,919.092 976.724,913.512 968.386,923.513 969.518,921.863 969.525,921.556 982.643,905.212 994.356,890.731 999.985,883.891 995.398,889.638 1001.44,882.281 1018.67,861.541 995.514,890.268 999.91,885.022 1013.9,868.244 1019.84,861.833 1028.55,852.088 1020.35,863.091 1015.44,869.682 995.661,893.813 977.544,914.893 994.067,893.572 975.235,915.682 953.753,939.23 968.484,919.179 989.826,893.074 991.873,892.66 969.069,919.63 943.28,945.987 984.392,895.618 955.855,932.968 957.759,925.216 970.815,907.032 968.211,913.646 947.625,938.588 966.54,915.452 947.201,935 1053.12,830.981 1105.68,785.842 1191.34,717.088 1208.51,715.294 1204.3,734.754 1346.14,607.085 1389.19,604.991 1400.34,607.538 1314.72,681.646 1290.58,700.29 1196.45,758.393 1155.53,785.045 1114.32,821.188 1050.24,874.622 1073.34,840.43 1057.9,848.55 1063.01,839.646 1104.75,789.539 1203.71,725.152 1134.36,806.443 1111.16,814.354 1126.63,794.635 1121.9,800.374 1078,839.67 1077.08,837.196 1083.39,824.657 1034.08,876.288 1044.01,865.184 1014.4,885.721 1034,852.22 1093.24,794.476 1086.08,822.993 1095.84,812.921 1083.09,830.299 1095.9,817.09 1116.69,798.65 1177.38,749.325 1203.26,725.735 1302.81,656.552 1382.56,591.71 1319.86,665.352 1363,618.234 1406.47,585.266 1387.64,596.897 1339.3,659.535 1464.5,539.602 1594.79,466.341 1592.96,460.677 1406.91,603.288 1472.04,543.811 1531.57,506.293 1552.95,498.906 1507.62,536.246 1445.74,578.645 1421.66,602.229 1403.34,616.911 1278.98,712.047 1226.02,741.731 1177.07,771.445 1149.59,787.413 1227.84,707.812 1295.15,660.594 1334.44,633.42 1265.85,700.153 1179.98,772.054 1203.98,740.627 1150.13,786.818 1196.09,726.678 1232.78,700.215 1163.4,765.776 1207.59,732.944 1353.6,624.655 1362.54,608.916 1356.35,620.619 1416.79,573.634 1470.81,538.604 1431.88,593.591 1341.11,662.35 1293.04,688.801 1276.64,698.394 1285,684.661 1339.03,624.535 1242.06,714.949 1225.83,711.12 1223.49,711.672 1210.95,749.122 1231.06,721.497 1166.01,765.816 1211.77,727.68 1255.96,679.562 1321.69,637.273 1384.3,596.062 1281.76,670.249 1203.81,723.118 1198.83,730.062 1204.82,731.471 1231.38,712.155 1315.67,639.011 1241.84,703.969 1283.01,683.228 1287.9,679.915 1336.48,625.278 1219.71,708.107 1259.97,682.532 1144.05,765.466 1109.51,806.837 1082.15,830.446 1171.82,722.119 1163.49,747.331 1271.42,675.723 1130.57,793.199 1021.27,894.605 973.749,917.453 1003.88,882.585 1040.45,855.379 1168.77,731.948 1076.75,836.736 1124.83,789.647 1070.47,844.342 1098.24,814.094 1198.53,718.919 1216.71,712.134 1213.5,725.324 1207.06,723.412 1197.53,753.454 1275.81,702.463 1396.54,608.66 1338.04,659.796 1253.08,724.372 1261.38,706.842 1162.22,796.92 1103.18,831.308 1076.46,838.032 1094.36,811.251 1073.32,827.616 1020.19,876.673 1036.37,861.323 1099.38,809.06 1130.94,788.526 1170.65,761.698 1124.65,788.475 1029.09,861.808 1046.46,848.838 1105.97,782.077 1112,774.636 1152.06,777.152 1172.7,750.73 1182.65,742.536 1062.27,833.986 1049.89,847.21 989.195,912.874 1031.12,852.693 973.406,923.52 1006.73,887.219 979.699,912.726 955.629,921.755 915.022,959.133 856.103,1017.33 865.054,1009.88 832.388,1044.2 800.106,1075.69 751.225,1115.07 722.573,1140.48 735.288,1126.83 719.55,1148.6 734.753,1123.54 742.687,1121.57 697.059,1178.01 711.093,1155.96 750.487,1112.09 726.308,1137.99 747.581,1115.44 804.529,1045.67 798.497,1063.5 843.655,1014.61 895.978,969.867 907.292,966.095 946.271,930.943 911.869,968.534 921.956,964.282 929.281,935.831 885.286,983.131 876.006,1004.73 1032.31,855.377 916.223,970.318 859.524,1027.12 846.272,1032.29 896.311,977.681 855.656,1018.23 841.222,1038.73 844.766,1021.62 764.673,1103.91 768.637,1089 752.437,1103.59 782.3,1082.04 773.356,1087.53 740.697,1124.43 770.522,1084.72 788.924,1072.24 773.852,1082.59 824.507,1035.35 848.147,1009.78 879.647,988.515 891.463,981.07 884.434,989.927 815.648,1055.69 824.695,1035.16 832.082,1025.65 786.184,1080.17 833.795,1025.67 834.123,1028.84 868.158,992.402 861.34,1005.48 874.639,977.501 905.795,970.423 872.64,1004.92 941.111,930.21 925.119,950.661 939.345,940.937 994.537,878.858 1111.14,784.837 1209.16,704.576 1157.79,767.525 1209.38,741.207 1141.26,782.565 1054.69,868.039 992.766,903.361 1008.5,879.876 1015.47,865.896 1146.04,748.933 1182.5,727.833 1194.62,721.07 1255.74,680.912 1271.33,673.481 1211.47,751.706 1221.05,738.786 1160.74,789.444 1166.37,775.49 1065.32,860.473 1123.93,792.64 1121.76,796.508 1248.37,687.878 1289.51,657.498 1365.58,593.78 1361.93,608.127 1306.26,672.835 1272.62,708.234 1291.03,681.015 1320.83,659.702 1313.52,659.168 1301.92,672.31 1311.18,658.805 1302.75,679.472 1202.6,765.084 1151.76,806.225 1117.63,805.429 1130.04,791.063 1155.44,763.106 1153.6,763.696 1144.15,766.596 1104.23,811.775 1110.75,813.772 1057.05,847.096 1023.98,877.265 1068.18,828.951 1178.23,733.648 1161.99,766.766 1131.53,799.851 1104.75,813.891 1091.77,826.559 1052.93,863.595 1073.98,839.885 1032.01,878.048 1082.04,816.495 1076.38,826.872 1206.34,699.087 1126.95,799.534 1077.49,842.324 1109.41,803.822 1188.68,720.966 1157.33,768.757 1189.51,732.574 1129.82,793.693 1152.33,765.55 1166.91,757.276 1314.5,644.679 1337.42,641.142 1440.07,560.641 1215.2,763.862 1188.88,760.612 1215.8,728.353 1243.05,703.11 1270.7,695.784 1179.43,763.628 1096.75,830.819 1131.89,787.219 1139.57,780.209 1218.52,711.104 1207.25,721.549 1161.86,769.055 1180.91,754.883 1178.99,748.78 1150.04,787.17 1237.98,696.852 1202.27,732.499 1267.54,689.777 1328.12,635.985 1426.93,572.795 1304.76,681.265 1234.43,733.475 1290.29,663.553 1357.12,627.895 1337.35,628.887 1288.65,677.998 1275.94,690.155 1140.14,811.055 1193.8,744.471 1193.5,755.647 1164.66,792.995 1181.91,756.365 1236.97,703.944 1255.81,693.756 1386.35,613.863 1365.67,619.574 1446.12,555.7 1476.16,550.292 1466.33,557.431 1556.78,498.191 1368.46,659.445 1343.87,658.636 1278.53,696.654 1289.99,676.474 1188.87,757.709 1149.23,785.471 1168.94,756.538 1199.12,725.918 1254.08,688.897 1323.7,634.753 1450.85,535.324 1486.69,517.885 1522.02,539.874 1506.38,552.882 1491.62,557.375 1400.45,623.207 1282.18,717.852 1276.41,693.97 1264.75,696.525 1268.28,691.046 1291.39,680.789 1133.05,819.781 1217.83,718.21 1284.91,660.248 1299.33,647.152 1315.38,645.176 1220.67,733.385 1123.67,799.845 1152.47,757.037 1118.19,800.303 1154.3,765.441 1152.83,757.538 1112.85,800.391 1037.53,885.83 1058.48,857.065 1075.37,828.803 1118.15,786.6 1053.21,847.65 1252.31,669.242 1207.78,724.013 1196.14,736.302 1183.33,754.357 1237.93,699.37 1196.85,723.542 1179,743.667 1124.46,795.273 1197.59,754.965 1179.5,762.258 1206.25,746.197 1183.68,764.821 1153.23,788.988 1134.26,781.301 1116.71,810.905 1054.51,864.989 1079.64,818.036 1133.08,774.485 1118.57,800.576 1129.03,785.931 1135.29,788.288 1101.64,801.179 1040.79,848.836 1060.7,839.284 1110.26,800.911 1114.06,792.568 1050.12,846.307 1019.93,880.366 1007.93,853.574 1024.02,857.741 997.705,885.979 1061.94,853.098 998.883,902.087 942.993,947.949 926.369,957.6 913.99,966.311 939.984,952.564 884.502,999.29 920.368,961.425 979.606,901.971 993.408,891.151 1011.52,869.552 1057.23,849.029 1058.68,851.287 1062.27,845.645 1105.65,803.348 1223.49,721.788 1258.42,702.454 1360.84,635.181 1315.71,660.056 1367.18,624.664 1385.8,609.153 1321.21,667.82 1456.78,570.252 1452.17,588.56 1371.23,643.848 1335.92,648.916 1266.63,707.183 1266.53,702.625 1240.61,721.736 1241.71,711.98 1167.02,773.046 1179.87,749.6 1106.25,812.643 1115.68,792.081 1040.05,863.953 975.399,911.889 932.998,958.925 944.328,938.72 903.681,987.963 901.761,975.276 1024.11,863.504 965.768,918.726 925.587,948.7 990.175,887.096 992.623,873.761 1022.31,857.909 1115.7,775.058 1149.25,756.705 1168.27,754.875 1175.09,758.506 1223.13,731.132 1237.26,720.115 1268.68,714.063 1198.42,774.05 1279.04,688.012 1258.67,705.144 1226.82,724.757 1197.39,757.046 1159.38,790.497 1163.07,764.161 1111.3,803.462 1287.45,645.721 1286.97,659.654 1293.08,661.373 1259.33,710.06 1166.13,777.196 1101.43,815.731 1083.31,827.647 1024.99,888.114 958.023,934.882 915.745,968.336 884.92,995.566 846.109,1033.49 787.377,1085.45 802.439,1059.58 865.56,992.656 903.537,958.641 946.488,925.838 965.932,909.351 998.811,876.472 1033.8,838.546 1143.12,758.52 1138.04,777.635 1136.27,778.245 1134.75,791.677 1174.04,749.742 1226.81,706.778 1305.62,659.879 1298.48,672.814 1302.87,675.145 1419.51,568.816 1422.4,577.82 1349.94,644.301 1288.83,692.708 1373.49,611.987 1466.9,548.559 1377.91,622.247 1248.31,723.175 1245.74,712.111 1242.54,714.236 1270.75,678.992 1235.59,708.495 1210.13,730.483 1162.08,776.311 1173.62,747.421 1218.89,726.651 1112.35,815.401 1116.89,806.336 1124.24,782.955 1221.29,710.916 1224.48,699.255 1276.05,647.759 1410.39,574.736 1410.06,593.912 1409.99,590.244 1414.2,588.753 1390.08,601.424 1398.31,610.827 1398.47,613.026 1248.52,728.609 1164.64,792.204 1163.41,775.569 1159.76,770.058 1173.02,754.419 1222.04,699.077 1153.73,780.328 1148.35,776.23 1102.05,806.751 1250.96,677.269 1270.71,684.843 1116.66,811.1 1182.87,749.593 1087.32,812.644 1128.73,777.82 1163.5,751.897 1117.49,798.269 1089.68,816.135 1106.68,801.283 1105.57,804.118 1052.36,855.776 1010.55,899.486 1078.37,816.687 1166.48,750.045 1084.07,835.668 1153.14,773.396 1150.89,771.79 1164.13,768.124 1185.04,743.861 1191.5,746.746 1203.62,731.41 1185.85,744.255 1152.87,784.231 1131.9,800.141 1049.56,864.782 1026.05,885.785 1060.72,838.824 1046.7,849.82 1017.59,878.985 1047.59,848.547 952.261,934.882 975.947,912.17 908.321,968.608 935.175,937.127 990.041,889.448 955.665,925.061 948.142,939.751 1001.68,890.063 1046.46,835.005 1083.64,805.696 1158.59,745.542 1154.09,770.091 1107,816.971 1108.21,805.435 1231.25,698.851 1284.89,664.342 1289.7,664.593 1318.55,652.224 1324.41,645.383 1255.09,723.139 1296.75,677.255 1154.27,787.155 1055.31,869.826 972.616,940.515 969.035,929.435 946.257,943.565 935.043,948.22 909.62,976.071 894.271,996.17 921.662,963.148 935.669,942.283 969.706,909.368 879.526,1003.64 901.104,966.087 926.614,946.876 985.757,891.063 950.835,927.172 1009.81,874.419 1081.68,821.409 1147.38,768.246 1113.97,800.399 1108.79,782.451 1151.23,744.407 997.934,874.138 977.869,901.568 938.636,945.896 820.752,1061.75 918.693,936.726 936.456,932.72 939.488,936.424 974.742,898.196 924.918,953.025 968.781,907.94 1119.63,773.959 1065.38,835.794 1049.77,845.955 1056.2,844.556 1138.34,788.386 1139.08,772.092 1037.51,877.794 975.848,926.821 959.867,935.371 884.601,1007.69 922.481,950.184 956.248,908.842 940.341,940.408 999.05,884.465 957.449,924.746 942.61,939.065 993.396,884.968 1058.69,819.445 1079.15,819.73 1160.61,747.204 1172.18,743.299 1221.07,715.991 1157.64,776.851 1225.24,721.381 1226.55,723.507 1340.25,617.493 1367.1,614.398 1389.47,591.044 1323.72,640.924 1353.98,632.882 1345.51,617.933 1352.26,638.477 1478.85,533.88 1345.88,633.453 1222.86,732.857 1154.29,777.897 1090.91,829.888 999.966,903.558 925.318,974.143 918.49,957.663 971.848,893.321 980.79,891.087 971.743,905.042 963.72,915.216 1022.19,857.274 969.132,907.98 954.405,926.619 1042.55,843.195 996.611,903.168 1048.01,847.721 1133.29,792.336 1161.98,753.538 1071.72,843.277 1033.65,882.457 1048,848.836 1021.15,866.448 1035.88,859.771 1092.69,808.583 1089.75,824.111 1036.94,853.164 1177.54,742.822 1162.87,754.179 1151.63,773.211 1256.33,691.213 1253.34,698.055 1155.99,771.726 1177.91,745.788 1234.69,700.551 1166.38,771.513 1038.11,878.803 979.789,933.339 965.134,937.693 945.259,946.896 992.184,889.234 972.611,915.464 1050.05,847.765 1108.48,799.211 1154.94,766.466 1193.03,720.98 1294.39,647.283 1343.44,620.839 1330.23,650.772 1355.13,618.5 1329.82,661.143 1322.98,661.237 1435,574.565 1467.05,547.537 1320.71,657.851 1267.14,697.488 1358.97,621.546 1252.41,710.99 1311.52,663.689 1455.37,531.398 1443.78,572.755 1399.01,598.404 1365.7,621.726 1261.18,712.333 1223.99,734.678 1105.32,831.613 1171.56,757.955 1173,757.849 1135.93,788.403 1079.83,840.463 1301.03,613.1 1270.14,672.877 1337.47,627.687 1318.85,646.185 1271.02,692.993 1454.25,529.75 1464.92,546.702 1576.51,482.754 1626.82,458.65 1757.45,352.672 1652.94,465.517 1544.15,550.749 1607.09,475.384 1746.46,377.182 1604.92,498.698 1428.74,637.3 1396.33,637.111 1370.21,644.825 1336.3,663.637 1289.26,693.153 1227.65,746.154 1187.1,768.62 1103.44,841.697 1139,788.752 1094.24,827.25 1133.66,777.913 1120.88,795.078 1157.94,754.721 1228.4,698.226 1172.39,758.079 1245.88,692.78 1295.28,651.935 1214.8,731.534 1307.7,642.986 1333.32,632.916 1213.45,731.626 1182.69,768.025 1096.37,824.53 1134.89,779.157 1145.13,765.955 1109.36,809.772 1052.67,856.273 1016.24,889.519 940.862,958.894 933.717,956.414 971.666,913.212 978.835,907.066 971.991,910.904 944.672,952.881 979.857,909.905 896.807,980.78 916.243,951.283 945.54,936.248 1017.44,857.773 1100.11,782.766 1094.66,808.442 1126.18,786.629 1111.71,810.649 1056.37,842.906 1042.07,855.711 986.829,905.568 966.652,927.04 1098.99,788.162 1213.86,693.394 1251.51,675.536 1232.31,701.453 1263.05,690.208 1378.87,586.978 1370.37,606.3 1490.97,537.333 1463.05,557.119 1414.64,600.069 1423.94,596.846 1420.14,607.186 1401.08,598.358 1302.39,685.042 1300.62,669.792 1331.75,652.473 1387.77,609.793 1300.85,675.822 1161.92,794.065 1131.36,801.161 1048.53,867.372 1048.22,854.419 1092.36,812.272 1020.67,884.495 962.311,923.511 926.329,958.399 947.676,940.164 905.644,983.157 910.882,964.438 975.999,897.512 928.745,952.517 922.054,956.84 918.393,956.467 878.947,979.25 853.029,1005.84 908.935,956.096 915.038,961.12 897.646,976.522 900.622,979.693 851.792,1023.56 881.064,988.341 905.16,959.668 853.776,1009.31 866.274,997.548 914.899,950.651 964.294,908.803 920.441,950.102 848.634,1024.84 812.116,1058.29 802.965,1074.63 906.09,957.195 947.726,917.871 929.691,949.825 989.822,901.464 987.345,908.817 978.89,932.329 1047.02,854.419 1083.87,837.022 1151.73,758.376 1088.45,816.456 1113.04,807.542 1031.96,869.317 1057.86,833.268 1053.33,849.352 992.179,907.174 1083.98,822.503 1194.86,730.654 1288.18,662.374 1303.75,660.458 1309.4,656.056 1278.49,678.21 1222.59,740.584 1173.89,766.821 1218.06,710.605 1309.41,650.011 1336.02,641.191 1322.1,641.094 1213.63,737.765 1219.58,742.953 1345.06,650.018 1275.79,677.576 1347.88,626.353 1303.92,670.631 1230.52,717.917 1166.98,760.427 1156.96,771.604 1096.2,819.286 1038.28,872.296 1136.16,759.387 1252.94,660.676 1356.61,588.547 1245.29,711.338 1216.4,734.075 1250.96,699.376 1243.07,706.954 1149.89,783.389 1119.59,802.785 1073.15,842.596 961.601,934.359 1021.11,859.686 1017.26,871.402 1059.15,828.968 1098.89,798.882 1193.85,720.681 1309.29,630.116 1352.7,627.627 1313.19,662.331 1233.48,724.891 1187.76,753.74 1157.72,779.156 1284.41,657.539 1311.34,661.123 1208.5,754.629 1180.95,761.458 1112.95,821.548 1155.76,765.446 1146.63,764.045 1097.19,811.47 1253.57,687.265 1282.56,668.043 1302.73,661.644 1273.82,685.931 1175,775.436 1316.57,627.694 1333.84,618.78 1374.28,597.522 1370.55,615.362 1325.8,665.122 1230.83,734.154 1292.97,664.039 1362.31,619.855 1264.31,709.704 1295.18,671.251 1303.52,667.109 1412.87,584.075 1441.81,558.915 1630.8,437.892 1446.51,589.154 1374.57,636.637 1368.33,629.652 1325.06,658.352 1144.87,811.888 1113.77,815.853 1190.32,724.923 1200.76,724.684 1269.2,664.541 1294.26,655.597 1282.26,680.241 1451.96,532.834 1441.78,575.974 1371.08,632.519 1520.39,506.393 1527.63,526.955 1547.23,522.578 1520.7,535.044 1527.44,518.829 1473.24,563.967 1440.52,579.086 1345.67,664.215 1309.61,686.773 1284.71,698.373 1301.23,675.47 1358.22,612.114 1312.66,671.908 1316.44,656.869 1327.06,641.619 1373.88,595.929 1383.65,630.311 1401.4,610.431 1309.52,674.922 1204.05,754.664 1204.67,740.133 1162.39,776.915 1152.75,781.581 1245.61,692.758 1414.61,591.989 1443.7,576.509 1419.54,596.316 1379.67,631.994 1243.91,730.579 1150.17,813.673 1157.14,786.814 1094.6,834.816 1087.99,825.582 1050.09,856.628 1095.96,811.849 1040.79,865.362 1076.56,830.434 1054.36,850.13 1106.71,808.909 1071.2,838.023 1072.05,820.764 1076.56,814.991 948.819,937.577 965.586,950.988 961.417,928.994 1003.94,880.847 1049.64,842.8 1063.14,835.784 959.573,910.022 1069.92,803.438 1081.05,806.889 1176.25,748.131 1253.89,685.019 1254.82,692.062 1248.76,721.594 1339.5,637.69 1193.56,744.898 1219.04,727.891 1211.2,723.262 1165.09,760.83 1161.46,762.386 1083.76,827.397 1050.83,852.19 1031.9,863.151 1019.69,867.255 976.538,912.968 1024.9,891.557 1041.9,860.193 951.398,928.859 904.861,981.722 854.41,1025.56 802.561,1073.14 870.224,992.528 863.268,1009.33 863.948,1001.07 854.505,1009.72 922.021,934.496 934.303,924.934 991.4,875.95 969.335,905.531 1017.87,861.855 1014.05,880.506 1071.05,823.185 1260.54,660.26 1136.77,793.997 1109.69,817.605 1054.85,851.211 998.315,902.286 1051.53,849.188 1066.13,840.687 902.891,997.629 897.244,990.986 890.395,991.583 882.291,991.968 842.928,1036.01 833.426,1058.02 830.092,1044.94 934.683,933.257 994.824,889.702 973.19,902.606 981.822,898.017 1030.73,849.945 1015.07,875.535 1063.2,838.882 1039.9,875.065 985.77,915.43 996.222,894.831 975.148,921.52 1094.5,809.141 1152.29,776.583 1120.4,807.079 1088.2,839.017 1009.5,911.397 1022.88,877.652 1101.13,794.299 1196.96,717.697 1199.38,736.894 1166.15,757.835 1156.09,761.509 1116.41,798.792 1170.17,751.86 1151.53,773.18 1232.55,697.158 1159.17,777.681 1109.8,816.583 1027.47,889.359 1051.95,853.619 973.883,928.206 968.571,916.196 960.677,929.025 1111.3,799.965 1158.28,751.644 1207.59,709.277 1123.28,802.873 1209.14,712.243 1294.92,652.812 1293.91,673.391 1286.71,686.139 1207.85,749.964 1169.75,775.159 1114.69,816.482 1132.26,785.483 1148.53,762.628 1083.05,821.2 1029.37,874.463 970.544,920.71 989.484,905.895 1017.88,877.957 1039.7,865.887 1009.42,883.159 1143.96,761.851 1121.06,786.735 1095.93,799.467 1057.6,838.442 1163.91,736.837 1143.73,763.822 1088.1,814.753 1116.27,796.263 999.417,898.431 1016.26,860.425 892.347,990.368 902.487,971.786 913.395,957.254 968.402,912.541 961.779,913.661 1027.72,858.903 1029.88,857.549 1073.15,816.964 1046.68,852.596 1036.88,854.248 969.117,897.639 1011.05,861.248 1042.84,841.311 1047.71,847.215 1088.13,821.782 1117.93,797.781 1019.87,887.065 1027.25,848.425 1068.82,837.271 1111.88,788.034 1070.15,837.385 1163.2,748.121 1118.14,792.005 1085.02,803.987 1071.14,820.241 971.774,899.332 1060.36,844.373 1054.48,836.387 1099.58,805.014 1157.41,757.797 1156.48,765.659 1260.59,684.88 1286.55,675.51 1273.57,679.629 1198.44,733.2 1234.03,709.978 1274.09,707.382 1225.59,730.251 1073.36,853.957 1118.17,792.897 1150.62,768.615 1171.31,758.541 1115.54,807.968 942.059,957.893 965.892,917.21 934.462,951.092 912.659,964.093 933.69,935.303 1065.97,809.394 1108.71,778.244 1102.2,807.107 1093.86,812.305 1141.51,774.039 1123.12,792.149 1119.32,804.195 1112.01,808.684 1145.94,764.011 1092.22,832.995 1140.09,770.04 1141.7,794.244 1145.88,777.83 1087.82,832.663 1160.1,758.282 1023.26,853.241 1101.74,784.367 1068.59,824.912 1103.37,803.358 1053.12,848.926 1059.53,847.612 1194.86,739.821 1189.76,744.387 1150.55,781.431 1195.79,726.66 1227.84,713.985 1269.76,676.779 1228.07,719.114 1213.29,742.15 1237.75,706.273 1298.94,659.007 1298.24,665.935 1176.3,768.465 1235.97,707.216 1390.7,590.494 1389.05,609.004 1373.84,633.406 1292.85,702.211 1212.28,750.782 1258.02,687.151 1190.37,747.258 1097.41,824.596 1156.09,763.654 1187.35,749.068 1207.66,727.232 1221.54,725.929 1223.12,718.61 1372.1,583.053 1328.25,647.531 1318.78,655.614 1310.12,665.84 1238.42,712.885 1284.85,667.978 1166.56,777.287 1214.99,719.746 1163.56,769.741 1188.68,736.463 1187.94,732.568 1208.84,725.575 1191.97,742.598 1162.98,769.498 1155.97,782.498 1158.17,790.816 1097.67,835.538 1115.28,795.562 1042.77,868.801 1009.81,894.124 1017.45,873.794 949.627,941.261 983.759,899.011 1030.53,876.276 999.498,900.979 945.924,948.243 937.7,940.916 921.726,946.095 913.579,956.867 860.164,1013.54 906.637,952.768 998.752,867.977 1014.91,880.98 972.845,922.151 958.532,921.327 948.347,938.83 963.587,920.847 898.294,989.494 854.886,1021.75 790.6,1076.17 882.004,970.323 852.248,1011.18 821.045,1046.6 820.377,1045.32 814.352,1043.09 791.27,1067.58 814.969,1046.18 906.033,954.811 877.111,991.02 853.489,1017.51 890.359,985.722 868.063,1000.45 928.349,934.456 885.871,990.308 877.149,1002.99 889.047,978.212 838.808,1039.3 834.596,1036.64 806.966,1065.42 800.725,1057.39 801.654,1058.87 778.573,1081.08 846.101,1016.74 889.249,972.725 963.182,902.826 1063.34,818.032 1112.1,786.189 1074.46,838.762 1004.66,903.652 968.238,916.712 1103.53,783.836 1119.25,782.097 1113.24,802.167 1018.41,875.821 1102.18,787.817 1151.04,770.99 1209.46,737.309 1293.16,662.259 1360.65,626.698 1358.29,628.551 1318.25,670.01 1248.04,720.872 1191.5,756.07 1156.53,790.73 1202.91,724.059 1229.28,705.37 1262.9,690.427 1181.5,761.622 1200.71,727.79 1110.8,816.648 1188.62,747.647 1187.83,738.065 1290.96,644.152 1341.01,616.076 1495.89,504.643 1547.9,493.61 1403.24,605.594 1363.21,633.773 1442.79,568.427 1345,658.061 1451.85,553.136 1244.85,721.836 1209,743.518 1138.13,805.032 1100.19,823.18 1013.26,902.619 949.754,948.664 925.776,955.479 907.278,970 904.691,972.453 905.804,972.445 906.413,967.36 869.789,997.13 878.879,987.313 928.074,945.401 994.484,885.071 997.534,891.312 904,982.027 769.481,1112.63 824.739,1036.04 800.156,1070.9 860.343,1002.42 898.397,957.79 958.181,919.863 953.494,925.088 956.918,920.925 952.209,934.728 963.831,918.037 969.085,910.163 934.672,945.578 895.743,977.486 900.598,972.606 882.367,993.45 880.204,982.7 908.363,954.375 928.385,929.408 979.372,872.418 922.353,947.665 998.076,877.321 1021.75,856.595 1068.19,817.474 1106.71,790.145 1113.12,789.25 1160.48,763.989 1118.86,785.855 1128.57,802.7 1109.95,804.2 1118.47,805.534 1082.34,831.301 1051.67,850.938 1126.04,795.584 1231.3,712.994 1220.62,725.865 1196.71,737.977 1257.5,717.03 1254.39,721.005 1321.75,686.12 1320.15,673.342 1315.88,670.778 1395.49,614.377 1415,613.941 1425.05,593.499 1409.35,603.946 1422.53,586.191 1617.99,431.73 1698.44,395.427 1743.67,372.944 1667.16,438.907 1701.9,418.829 1683.25,444.741 1595.71,514.973 1523.75,554.876 1474.43,580.218 1395.75,642.166 1285.27,720.979 1270.23,716.061 1234.74,730.566 1160.84,796.805 1185.19,750.102 1252.53,683.833 1212.54,722.505 1238.03,695.777 1276.44,668.706 1151.52,786.835 1175.9,751.401 1345.19,601.547 1413.34,555.493 1590.54,427.269 1424.4,606.092 1383.38,632.742 1446.22,561.673 1456.33,566.763 1294.1,693.706 1222.03,747.485 1184.08,761.851 1146.54,791.176 1159.96,764.476 1110.98,810.352 1128.04,780.508 1177.91,739.795 1243.25,679.665 1428.5,555.309 1530.01,501.503 1479.48,549.181 1367.03,637.564 1367.95,627.896 1338.05,650.295 1229.02,742.148 1152.32,797.478 1107.31,820.83 1092.69,827.871 1080.42,831.356 1036.85,865.52 991.399,907.438 1042.1,853.308 1073.75,841.215 1025.79,883.2 1064.2,837.448 1102.54,817.933 1124.18,796.812 1137.75,782.819 1173.7,742.552 1315.62,637.839 1311.25,645.32 1161.26,785.995 1150.86,783.77 1173.83,761.538 1261.1,681.998 1236.29,716.783 1196.3,757.273 1103.41,817.911 1174.26,746.107 1113.46,807.074 1056.51,860.07 1025.43,882.633 1015.85,888.391 997.423,897.513 998.183,894.573 1006.31,881.994 1012.43,882.602 939.152,952.699 998.236,886.739 1169.99,740 1163.49,756.378 1138.36,788.295 1036.68,880.315 1069.73,836.393 1071.22,843.301 1089.39,815.371 1044.36,859.136 1080.52,837.325 1051.52,852.874 1006.71,876.757 967.351,916.338 950.961,925.986 1131.83,758.579 1200.95,707.329 1241.71,689.802 1201.98,752.168 1147.8,778.754 1162.47,757.296 1184.84,742.02 1162.28,763.47 1177.87,744.439 1166.05,766.751 1176.49,762.49 1185.29,748.534 1059.38,841.526 1101.32,790.465 1134.84,757.084 1170.1,757.03 1094.4,834.326 1064.95,851.006 1035.73,875.611 1044.59,850.963 1015.73,885.266 1054.26,842.75 966.044,934.695 950.811,946.9 1010,876.679 1037.76,863.63 1021.69,873.316 986.021,901.965 949.914,932.707 838.797,1047.71 799.54,1073.64 744.133,1130.72 766.823,1092.75 772.674,1081.15 739.84,1120.84 749.585,1112.81 811.913,1041.89 802.733,1054.21 736.897,1129.33 705.028,1161.1 767.522,1083.43 793.315,1057.41 821.979,1042.62 797.838,1078.35 795.865,1071.59 787.013,1083.68 777.977,1089.98 781.43,1082.61 774.152,1090.4 780.392,1082.75 833.882,1026.54 886.242,976.246 902.222,966.971 826.694,1041.49 863.252,1004.73 875.241,994.295 862.382,1009.6 937.039,936.107 993.063,885.442 1004.61,884.78 1040.36,862.415 1107.88,792.948 1139.09,771.093 1093.27,810.918 1104.67,795.288 1095.24,806.932 1083.13,818.168 1068.6,828.636 1053.72,835.193 1076.87,834.251 1109.96,804.91 1210.46,705.709 1117.99,742.837 1143.46,694.987 1159.7,716.92 1203.01,697.243 1207.44,711.686 1195.28,731.355 1271.64,670.585 1262.71,692.537 1196.8,754.376 1181.55,758.389 1202.44,741.796 1158.47,784.999 1121.16,805.364 1150.51,762.312 1086.66,838.97 1107.84,808.486 1032.5,872.392 1042.31,859.495 1076.27,826.94 1089.06,829.2 1201.23,717.083 1255.27,686.963 1282.53,674.951 1450.44,535.354 1557.58,484.467 1567.14,491.781 1444.43,595.481 1389.03,623.448 1357.42,652.405 1355.71,647.949 1425.49,588.199 1404.59,593.603 1390.84,612.185 1242.94,743.727 1203.22,751.777 1162.36,776.097 1174.43,760.17 1134.14,796.441 1092.17,826.123 1071.65,837.709 1083.4,824.013 1009.39,896.352 913.349,981.703 933.594,951.234 890.354,997.715 856.924,1025.84 891.681,978.923 908.861,966.601 913.444,961.374 959.389,911.081 1008.81,859.36 1013.98,868.488 1018.11,875.265 1046.6,848.502 1034.6,866.836 1105.35,803.954 1059.05,843.188 1177.17,743.994 1112.73,801.483 1006.06,903.238 1019.76,875.119 1001.19,881.39 1048.68,847.07 1069.82,837.651 1140.04,775.845 1052.85,858.752 1093.51,813.843 1253.56,686.188 1226.74,722.194 1155.23,786.456 1173.11,772.125 1126.25,800.053 1157.37,761.197 1165.06,757.68 1284.63,650.589 1330.14,622.757 1298,667.761 1393.15,587.076 1390.39,595.302 1391.97,610.808 1362.54,634.629 1388.01,613.34 1305.05,683.884 1329.59,636.929 1319.94,663.336 1295.02,677.616 1198.44,757.463 1167.85,775.009 1140.58,781.244 1118.7,800.888 1206.57,715.471 1284.59,668.564 1521.88,452.036 1401.22,591.998 1379.7,617.153 1295.87,685.566 1236.33,729.714 1207.14,737.044 1228.01,711.076 1311.25,640.726 1241.89,714.809 1151.96,783.412 1043.15,881.496 1031.8,872.46 1081.21,816.475 1073.68,829.185 1154.09,751.089 1147.86,766.142 1108.64,805.63 1124.28,782.772 1123.34,799.499 1176.87,739.298 1077.06,840.543 1053.92,857.3 1031.88,874.805 985.527,919.109 992.081,899.675 1007.39,887.267 1047.48,840.908 1032.99,861.892 996.098,908.688 1015.62,879.393 1069.45,821.89 1064.45,839.164 1058.05,830.876 1140.77,787.446 1094.51,817.209 1155.28,756.922 1084.95,827.954 1141.88,761.701 1266.33,680.632 1193.11,750.973 1287.79,657.87 1218.43,734.685 1102.54,842.321 1116.27,805.487 1135.15,775.503 1140.73,769.52 1130.26,786.62 1134.59,784.25 1119.88,795.518 1209.39,745.546 1184.9,765.9 1164.88,778.893 1209.73,728.394 1175.06,769.041 1139.06,782.318 1151.68,769.487 1185.54,730.76 1199.77,730.858 1179.56,751.965 1168.82,765.583 1260.87,668.984 1247.92,689.802 1318.86,629.442 1265.72,696.364 1271.17,686.859 1282.51,672.974 1286.24,681.578 1318.17,637.773 1343.87,633.198 1408.25,575.787 1290.68,679.099 1385.52,582.762 1384.8,600.703 1428.12,572.303 1465.38,543.932 1530.31,514.097 1582.04,474.65 1503.26,546.49 1443.3,600.273 1506.07,544.913 1443.4,584.532 1458.67,572.713 1408.55,608.92 1411.63,602.2 1451.08,554.192 1392.52,613.424 1381.63,632.932 1312.83,679.963 1269.31,702.921 1307.99,645.093 1260.55,696.83 1225.64,719.997 1182.77,755.158 1150.68,774.507 1174.96,763.745 1136.44,797.321 1099.29,829.684 977.79,929.999 960.094,933.993 996.654,883.434 1024.92,865.603 1003.56,884.995 952.486,924.221 943.94,946.158 981.395,898.839 985.317,905.767 1045.48,846.996 1166.35,743.019 1029.21,888.005 1092.61,821.692 1102.83,812.392 1036.43,872.959 1055.72,853.346 979.068,932.521 971.791,905.459 992.692,893.764 971.469,911.186 965.201,925.589 1017.25,878.756 995.566,886.638 987.242,907.272 1025.83,859.235 985.04,891.135 1001.54,883.187 1005.67,889.331 1002.77,890.352 1098.07,828.81 995.812,898.7 1059.73,832.018 974.792,908.81 953.84,923.277 820.936,1041.36 865.54,993.859 888.208,979.853 856.644,1013.69 938.101,937.566 944.393,935.376 859.637,1027.51 855.701,1016.14 838.711,1043.1 859.658,1019.72 796.061,1068.22 845.403,1006.44 890.78,969.68 942.868,934.376 891.682,994.709 935.271,947.197 966.034,915.894 940.115,945.513 941.509,942.962 866.973,1007.15 856.393,1013.78 838.598,1031.01 875.057,992.804 926.212,941.594 897.038,984.122 919.699,955.051 970.744,899.318 988.209,877.811 943.883,936.029 1040.35,845.882 1056.43,823.575 1038.08,839.898 1001.45,892.404 944.074,947.283 996.347,901.771 934.849,957.634 971.738,929.548 937.777,957.348 978.738,899.039 1018.7,865.986 954.026,924.012 955.911,916.31 947.563,919.112 892.89,969.777 1018.24,845.733 871.094,987.179 907.014,964.84 959.676,906.668 943.712,950.233 932.925,948.453 964.546,908.047 941.221,934.238 1000.73,870.529 983.744,888.377 1036.02,822.324 1045.84,839.94 1125.75,761.646 1189.19,745.328 1189.66,744.465 1175.26,766.133 1139.96,796.543 1151.84,777.759 1327.99,621.921 1316.08,645.108 1280.54,686.675 1246.84,705.812 1185.03,763.356 1135.7,793.029 1111.53,808.782 1145.12,783.064 1132.39,799.644 1025.43,884.153 1025.64,877.752 1068.72,825.012 1134.78,759.138 1164,746.017 1133.15,790.728 1058.85,866.23 1068.05,837.636 1033.51,873.797 983.45,919.136 930.844,965.732 913.531,971.09 942.967,929.473 973.467,899.617 948.693,938.201 987.932,897.132 1010.77,883.404 1019.05,870.835 976.847,914.151 999.904,897.077 1039.54,857.333 1152.62,762.358 1124.59,794.845 1003.24,904.822 1040.93,861.576 1079.59,810.345 1098.76,791.142 1125.7,797.234 1044.45,873.932 1014.16,892.977 1075.75,830.902 1050.11,844.485 1086.39,820.95 1089.94,819.846 999.997,895.236 987.722,918.886 971.429,907.342 998.375,882.657 1044.75,836.708 1064.06,839.742 1060.65,844.123 1068.52,836.832 1038.12,856.141 1137.86,768.867 1133.63,782.392 1160.13,774.454 1304.11,636.808 1268.35,695.169 1135.43,810.169 1079.39,837.529 1065.63,845.466 1050.4,853.598 1032.76,859.828 1000.59,893.976 1026.97,858.879 1000.06,892.616 1041.21,869.81 1018.74,884.248 1009.05,874.496 1032.44,871.175 1036.93,883.252 936.162,965.083 907.403,984.079 901.859,982.798 997.262,881.381 994.214,898.942 1117.19,797.442 1051.81,853.478 1063.36,830.037 1080.43,833.401 1077.64,835.119 1089.46,818.487 1145.58,762.81 1120.26,786.66 1217.62,713.742 1277.59,661.738 1205.18,734.478 1214.2,712.324 1159.31,757.516 1200.63,763.479 1159.63,774.066 1125.43,801.539 1148.07,776.921 1072.22,851.172 1094.7,820.58 1043.02,881.602 1187.85,761.927 1183.13,755.149 1188.06,759.211 1053.58,864.212 1067.97,842.69 1033.61,871.162 1005.89,895.953 985.44,897.245 916.249,974.628 858.622,1024.01 773.473,1112.18 776.422,1096.88 803.086,1058.81 796.734,1066.84 812.569,1055.11 844.812,1018.18 936.869,922.986 972.983,898.503 985.407,903.17 1021.82,857.762 1111.41,775.455 1080.56,819.175 1084.52,834.699 1114.46,799.877 1062.78,843.045 1101.24,820.703 1098.41,815.693 1074.04,841.402 1210.66,715.375 1149.87,779.467 1060.71,848.811 1044.29,859.215 1055.33,848.069 1030.49,870.576 1023.6,876.098 1077.21,823.875 1098.36,807.484 1050.41,843.718 987.789,901.428 1005.85,889.604 952.26,929.058 1092.05,803.983 1028.14,866.167 1039.68,855.326 1071,827.723 953.552,936.711 893.892,1021.26 881.432,1005.38 873.691,1002.38 963.844,906.065 947.339,928.094 904.693,974.874 920.845,953.501 887.045,982.301 894.209,973.409 849.638,1022.38 798.465,1076.06 711.728,1159 722.904,1135.08 769.942,1089.83 752.028,1110.11 747.497,1116.17 767.867,1092.89 791.03,1065.35 744.384,1123.81 783.842,1082.73 802.062,1053.36 761.598,1098.2 878.577,965.408 870.015,994.269 871.782,992.644 998.259,867.015 952.442,925.844 932.735,948.115 917.481,958.796 891.265,983.356 924.583,939.377 1006.44,882.165 1038.89,848.795 1170.28,734.903 1237.87,691.18 1292.48,659.947 1297.93,659.419 1199.01,741.503 1145.2,792.889 1216.77,725.877 1253.32,691.226 1301.85,670.777 1159.59,778.318 1109.39,814.349 1144.78,773.413 1079.84,828.778 1197.46,720.989 1204.09,724.459 1219.05,732.444 1204.01,732.181 1149.51,775.971 1067.5,835.982 1083.36,815.634 985.831,898.044 935.348,946.241 1022.45,864.707 1075.51,816.622 1194.3,723.269 1243.39,696.12 1208.51,726.597 1223.81,734.119 1182.9,767.834 1275.79,679.367 1272.36,702.362 1257.65,690.493 1253.24,693.194 1164.03,758.494 1102.28,813.349 1184.04,731.442 1273.86,669.892 1186.7,754.532 1215.41,715.862 1283.97,661.083 1228.13,728.893 1179.73,774.471 1166.51,771.352 1125.27,799.901 1086.43,836.848 1061.23,855.69 1031.57,866.859 1090.2,809.035 1226.53,702.603 1147.23,781.316 1259.95,680.426 1314.6,643.236 1255.57,704.883 1329.73,634.991 1301.8,676.865 1267.74,697.66 1324.16,642.312 1379.08,610.098 1270.37,693.994 1194.69,757.342 1152.17,782.195 1122.07,807.727 1080.68,829.951 1065.94,832.376 1039.61,856.684 1032.95,852.354 1080.9,811.993 1091.49,807.721 1055.61,841.565 1011.8,869.682 968.804,909.771 1037.47,857.943 961.58,924.541 919.594,952.518 899.822,962.134 954.039,910.676 908.195,967.024 882.517,992.322 850.968,1028.06 832.678,1043.81 802.055,1073.5 811.074,1054.19 755.136,1109.64 755.713,1109.78 762.314,1105.03 754.346,1106.61 776.737,1087.62 800.277,1056.13 847.295,1009.9 868.234,998.051 855.03,1021.41 848.481,1024.45 845.253,1017.35 867.228,989.456 908.735,957.744 1002.24,869.577 1002.67,870.795 1097.42,786.183 1057.55,836.67 1096.65,800.254 1072.28,813.542 1042.79,857.943 1122.28,782.521 1087.66,826.262 1040.6,860.138 1127.47,797.13 1222.8,716.85 1244.92,698.891 1301.9,653.965 1259.22,688.265 1368.62,591.954 1476.63,544.693 1591.28,464.98 1405.15,611.225 1282.17,711.473 1233.59,728.88 1161.69,779.14 1102.81,826.293 1023.61,889.89 1058.63,836.471 1061.95,837.16 1025.49,871.381 1029.99,861.192 966.405,928.598 1094.65,801.114 1087.31,807.699 1119.32,794.127 1109.45,802.443 1122.73,786.838 1125.4,779.727 1066.2,831.334 1031.76,864.234 1030.63,857.564 1034.31,849.664 1062.75,861.437 1000.61,901.983 954.605,942.972 1012.16,882.785 1008.79,890.652 1148.29,766.656 1126.32,794.15 1062.63,853.384 1082.78,832.761 1056.03,845.877 1038.97,855.816 1160.06,762.158 1222.15,706.056 1360.04,603.286 1430.7,568.942 1335.85,658.118 1407.03,602.751 1315.13,673.541 1326.48,649.408 1349.86,635.021 1311.72,657.342 1347.21,634.475 1267.51,716.56 1233.22,736.387 1138.29,816.448 1160.67,765.178 1185.24,734.829 1195.29,739.806 1325.92,635.092 1244.94,723.695 1259.23,704.75 1321.46,653.946 1282.36,676.753 1343.47,646.887 1331.21,630.693 1290.77,671.408 1347.4,624.767 1239.53,723.192 1100.54,831.887 1150.1,770.668 1113.5,807.732 1096.06,820.874 1048.88,847.934 1020.45,872.729 1016.69,877.184 957.463,923.312 1014.66,867.838 940.079,962 917.305,974.476 975.142,903.979 972.63,913.836 941.576,943.411 957.788,931.311 1028.54,849.397 1158.29,738.478 1162.65,749.667 1117.73,803.339 1131.19,787.499 1112.66,809.559 1053.92,868.36 1078.05,852.922 1132.99,782.902 951.118,921.128 943.926,929.853 958.28,924.934 993.063,911.041 1024.37,876.632 1055.39,851.103 1101.92,814.093 1129.28,786.153 1085.42,825.059 1057.11,837.201 1120.41,779.688 924.133,941.317 1085.2,778.691 1153.95,739.878 1160.33,747.868 1084.01,833.356 1028.46,881.314 1030.85,873.689 1028.95,869.69 1042.52,852.594 996.498,905.664 1058.58,864.776 1245.49,688.578 1273.73,675.231 1331.75,625.725 1338.52,662.379 1274.2,699.764 1196.99,766.152 1216.32,742.134 1158.97,779.398 1086.99,833.099 1053.13,862.726 1124.32,796.758 1128.01,787.28 1088.28,820.588 1157.96,791.007 1095.01,838.079 1041.93,873.461 1057.97,844.828 1051.34,862.796 1145.86,780.051 1030.75,879.145 975.421,906.796 1009.47,891.945 980.94,905.318 999.351,901.357 1026.44,903.026 1035.26,863.35 1126.06,767.613 1079.9,822.261 1029.02,857.461 1099.08,820.09 1078.04,843.905 1163.35,752.652 1132.71,787.865 1293.72,655.139 1330.92,656.298 1299.17,679.133 1185.57,765.351 1118.58,813.123 1160.09,772.217 1236.7,693.055 1281.41,664.117 1263.23,694.647 1284.15,684.767 1372.11,612.472 1475.77,554.241 1366.45,645.228 1300.94,692.709 1296.34,674.41 1304.06,663.959 1314.05,654.096 1361.12,618.076 1350.64,627.918 1374.79,611.342 1453.62,579.106 1593.03,475.676 1419.21,621.064 1408.1,614.626 1486.58,546.174 1474.91,565.15 1490.36,543.848 1476.12,546.31 1374.34,636.809 1369.63,628.995 1270.12,720.761 1191.14,777.663 1138.83,801.221 1130.99,792.854 1097.79,820.57 1086.21,830.328 1142.76,770.01 1094.74,822.074 1230.44,685.837 1157.59,768.838 1145.46,791.66 1122.04,801.126 1078.19,839.811 1100.43,813.326 1065.52,841.182 1197.66,718.704 1156.84,766.813 1272.09,667.408 1249.99,694.658 1217.88,713.753 1272.71,666.233 1223.04,724.619 1313.69,649.009 1374.86,634.335 1362.67,628.458 1423.77,570.28 1407.42,591.11 1316.89,649.309 1172.12,769.153 1216.18,702.246 1318.61,636.535 1250.47,709.062 1250.37,703.347 1139.56,777.248 1227.66,693.88 1289.88,665.079 1315.48,641.135 1240.26,722.727 1307.68,667.465 1325.09,649.019 1480.95,539.957 1480.99,551.189 1366.12,650.551 1333.6,658.959 1173.68,791.736 1120.96,820.993 1076.86,849.045 1096.26,819.445 1137.96,780.751 1160.21,772.826 1121.69,794.849 1049.71,867.658 1046.72,850.864 1071.29,826.356 1067.1,834.852 1093.93,798.809 1161.13,747.591 1165.79,760.286 1082.51,840.612 1141.24,779.459 1246.51,684.216 1344.83,605.461 1414.44,573.145 1334.59,651.258 1345.65,637.777 1282.06,693.802 1255.01,711.267 1252.28,713.926 1253.9,707.383 1186.44,764.813 1149.79,789.916 1059.46,862.138 991.766,916.852 921.203,967.487 832.579,1048.6 855.43,1014.51 806.84,1063.51 804.674,1062.38 826.36,1039.57 864.879,999.224 877.321,994.693 950.153,910.544 981.775,909.062 1044,841.282 1073.83,816.444 1055.84,842.36 950.73,947.948 960.485,931.172 884.48,1004.73 873.433,1001.67 933.422,944.023 876.052,1002.16 856.959,1022.88 944.993,935.66 974.362,913.335 944.837,940.047 1049.79,846.156 930.868,949.391 932.41,941.456 943.191,919.091 952.278,927.743 1104.55,783.594 1221.89,706.052 1229.16,717.847 1288.76,673.507 1400.9,589.769 1452.52,550.249 1558.3,486.283 1591.33,478.055 1402.88,628.863 1314.05,689.063 1391.32,612.298 1407.97,591.56 1501.36,509.778 1431.27,586.192 1445.74,567.536 1415.72,600.3 1343.82,653.509 1327.49,653.879 1207.93,758.444 1130.97,810.679 1091.85,831.696 1068.25,840.659 1067.1,833.616 1100.84,805.398 1168.31,743.265 1261.11,676.207 1293.88,659.023 1243.12,720.599 1281.32,672.997 1290.12,675.186 1304.69,664.056 1283.6,696.604 1343.4,648.466 1418.69,607.082 1328.73,666.68 1337.6,650.04 1234.75,738.094 1329.04,635.033 1298.18,664.235 1225.12,718.734 1220.32,720.86 1137.09,792.968 1088.35,825.969 1049.62,857.774 1148.53,764.73 1093.71,814.468 1024.52,859.691 984.192,910.614 967.067,916.052 943.385,940.104 1013.02,863.657 1038.65,857.091 1045.74,850.361 1043.75,845.799 971.627,915.724 1025.42,863.967 1127.17,764.304 1225.67,704.638 1269.84,675.67 1354.04,619.69 1371.48,605.653 1422.26,570.02 1400.89,593.775 1411.2,613.888 1331.47,680.891 1395.34,616.905 1266.49,714.502 1160.48,800.682 1089.25,848.18 1054.64,860.758 969.355,934.762 985.108,898.651 961.397,921.943 963.41,923.13 996.805,891.15 904.414,989.105 862.322,1019.85 899.562,967.522 871.672,1001.79 872.334,993.166 807.133,1056.47 753.976,1119.08 774.202,1086.69 794.664,1063.53 811.937,1049.96 913.585,939.029 959.359,916.278 946.608,927.855 968.183,918.597 912.329,975.037 891.172,991.299 910.252,965.895 921.934,950.469 831.083,1047.47 794.407,1076.62 792.404,1077.88 787.894,1072.25 748.765,1115.63 735.823,1131.02 784.149,1077.61 838.842,1025.15 859.099,1001.35 926.841,942.907 812.038,1067.8 775.264,1095.35 776.174,1088.96 771.181,1090.34 803.911,1050.88 827.919,1029.68 886.55,974.141 898.1,965.896 944.187,924.015 953.64,920.12 897.401,986.097 914.981,963.912 940.68,935.035 1018.22,866.852 937.362,950.646 886.108,997.968 961.725,927.132 1040.82,846.059 1060.99,844.748 1188.01,734.593 1143.9,802.655 1081.45,837.566 1087.22,817.362 1146.44,764.316 1148.07,784.651 1067.65,841.334 1000.79,896.452 991.506,910.694 1013.98,885.702 956.344,935.901 876.31,1009.13 842.711,1037.43 874.574,996.514 835.348,1031.36 914.149,962.868 876.239,1002.38 868.628,1008.8 825.98,1051.53 826.883,1040.36 825.585,1039.81 783.482,1098.3 822.919,1045.02 834.376,1023.46 873.438,980.715 888.742,965.673 935.098,933.188 963.123,916.145 1045.78,839.331 976.392,915.886 980.502,907.249 975.843,894.486 1041.16,846.769 1022.75,869.294 1111.11,790.113 1043.29,857.539 975.979,926.009 998.158,886.255 997.692,895.888 1005.7,882.385 1093.65,816.578 1056.88,854.792 1077.19,834.103 1164.71,764.074 1150.5,778.462 1219.89,707.361 1266.69,684.636 1318.98,637.617 1227.28,724.988 1240.83,699.084 1040.49,864.647 1020.03,878.969 998.304,893.981 1008.29,880.223 993.895,884.659 1081.33,823.02 1151.98,747.081 1170.74,767.162 1179.97,746.293 1239.4,701.604 1368.56,588.494 1444.17,552.671 1430.48,582.464 1451.17,569.057 1247.19,728.494 1177.1,779.717 1163.21,769.747 1110.46,811.952 1083.87,832.854 1146.97,771.435 1110.51,803.399 1082.5,834.861 1133.25,779.96 1098.62,811.143 1199.06,749.314 1219.28,717.36 1226.52,713.097 1105.87,826.079 1135.47,787.123 1114.96,793.077 1228.39,696.625 1252.71,690.012 1149.41,785.076 963.727,950.737 923.45,973.699 905.558,980.426 911.402,968.813 899.603,980.139 843.352,1033.52 885.669,985.01 924.799,946.484 969.772,913.759 1000.96,885.212 1107.82,793.193 1119.85,777.639 1113.13,796.503 1088.22,824.599 1122.73,793.987 1066.45,852.663 1010.25,906.037 1001.95,902.696 952.778,945.35 936.888,950.435 891.975,980.6 879.242,994.605 832.024,1035.97 819.107,1051.99 846.061,1011.41 921.724,944.602 981.389,890.845 993.475,878.036 1001.99,877.479 1103.94,806.994 1082.78,828.35 1002.48,903.991 955.337,943.509 1016.82,872.542 980.682,909.548 1016.81,878.127 1065.97,827.957 1176.91,743.256 1155.52,767.13 1059.29,846.109 1034.92,876.403 936.248,965.693 926.221,958.419 997.803,873.517 1033.17,844.922 1101.48,782.069 1159.91,754.078 1157.34,770.402 1115.62,802.984 1142.94,785.264 1110.39,819.605 1140.71,780.501 1006.81,901.084 970.634,934.709 986.408,898.784 979.677,912.985 1025.78,861.282 1174.8,728.26 1188.52,741.35 1300.05,647.274 1283.6,690.225 1356.32,620.851 1431.03,561.089 1418.75,607.797 1333.81,679.482 1363.33,645.741 1241.08,742.586 1225.03,737.875 1210.7,728.453 1246.24,692.03 1231.38,705.685 1202.96,740.516 1231.79,721.825 1196.9,755.654 1100.32,832.181 1033.82,877 993.447,902.264 968.503,926.162 1026.84,855.325 1029.36,859.111 1061.57,824.255 1038.41,856.471 1102.5,811.425 1122.47,780.302 1175.02,751.369 1294.67,645.526 1288.49,660.949 1228.48,717.856 1277.13,673.773 1142.69,782.809 1249.72,691.675 1223.37,719.25 1216.18,723.011 1252.43,700.378 1255.05,702.522 1398.35,593.929 1389.44,584.968 1410.45,595.551 1669.78,391.721 1603.26,494.419 1514.69,552.512 1425.53,610.152 1497.78,531.59 1436.54,586.733 1469.26,542.868 1373.95,631.769 1408.7,580.74 1393.66,601 1401.96,589.864 1297,679.64 1287.52,687.44 1264.25,697.089 1165.72,781.682 1220.06,710.624 1236.41,703.293 1208.5,728.758 1148.9,798.915 1258.4,693.559 1244.62,736.378 1146.95,803.586 1087.37,851.061 1081.21,838.524 1154.69,753.852 1189.54,734.939 1144.62,785.875 1171.75,756.626 1216.78,712.556 1195.72,747.341 1246.87,699.52 1281.31,674.255 1263.32,690.09 1366.04,606.563 1386.67,599.063 "/>
<path clip-path="url(#clip980)" d="M186.863 198.898 L550.897 198.898 L550.897 95.2176 L186.863 95.2176  Z" fill="#ffffff" fill-rule="evenodd" fill-opacity="1"/>
<polyline clip-path="url(#clip980)" style="stroke:#000000; stroke-linecap:round; stroke-linejoin:round; stroke-width:4; stroke-opacity:1; fill:none" points="186.863,198.898 550.897,198.898 550.897,95.2176 186.863,95.2176 186.863,198.898 "/>
<polyline clip-path="url(#clip980)" style="stroke:#009af9; stroke-linecap:round; stroke-linejoin:round; stroke-width:4; stroke-opacity:1; fill:none" points="211.758,147.058 361.13,147.058 "/>
<path clip-path="url(#clip980)" d="M396.651 128.366 Q393.549 133.69 392.044 138.898 Q390.54 144.106 390.54 149.453 Q390.54 154.801 392.044 160.055 Q393.572 165.287 396.651 170.588 L392.947 170.588 Q389.475 165.148 387.739 159.893 Q386.026 154.639 386.026 149.453 Q386.026 144.291 387.739 139.06 Q389.452 133.828 392.947 128.366 L396.651 128.366 Z" fill="#000000" fill-rule="nonzero" fill-opacity="1" /><path clip-path="url(#clip980)" d="M403.063 138.412 L423.294 138.412 L423.294 142.301 L407.276 160.935 L423.294 160.935 L423.294 164.338 L402.484 164.338 L402.484 160.449 L418.502 141.815 L403.063 141.815 L403.063 138.412 Z" fill="#000000" fill-rule="nonzero" fill-opacity="1" /><path clip-path="url(#clip980)" d="M430.887 158.458 L435.771 158.458 L435.771 162.439 L431.975 169.847 L428.988 169.847 L430.887 162.439 L430.887 158.458 Z" fill="#000000" fill-rule="nonzero" fill-opacity="1" /><path clip-path="url(#clip980)" d="M455.655 166.745 Q453.849 171.375 452.136 172.787 Q450.423 174.199 447.553 174.199 L444.15 174.199 L444.15 170.634 L446.65 170.634 Q448.41 170.634 449.382 169.8 Q450.354 168.967 451.535 165.865 L452.298 163.921 L441.812 138.412 L446.326 138.412 L454.428 158.689 L462.53 138.412 L467.044 138.412 L455.655 166.745 Z" fill="#000000" fill-rule="nonzero" fill-opacity="1" /><path clip-path="url(#clip980)" d="M474.011 158.458 L478.896 158.458 L478.896 162.439 L475.099 169.847 L472.113 169.847 L474.011 162.439 L474.011 158.458 Z" fill="#000000" fill-rule="nonzero" fill-opacity="1" /><path clip-path="url(#clip980)" d="M509.544 138.412 L500.169 151.027 L510.03 164.338 L505.007 164.338 L497.46 154.152 L489.914 164.338 L484.891 164.338 L494.96 150.773 L485.747 138.412 L490.77 138.412 L497.645 147.648 L504.52 138.412 L509.544 138.412 Z" fill="#000000" fill-rule="nonzero" fill-opacity="1" /><path clip-path="url(#clip980)" d="M515.377 128.366 L519.081 128.366 Q522.553 133.828 524.266 139.06 Q526.002 144.291 526.002 149.453 Q526.002 154.639 524.266 159.893 Q522.553 165.148 519.081 170.588 L515.377 170.588 Q518.456 165.287 519.96 160.055 Q521.488 154.801 521.488 149.453 Q521.488 144.106 519.96 138.898 Q518.456 133.69 515.377 128.366 Z" fill="#000000" fill-rule="nonzero" fill-opacity="1" /></svg>
