<?xml version="1.0" encoding="utf-8"?>
<svg xmlns="http://www.w3.org/2000/svg" xmlns:xlink="http://www.w3.org/1999/xlink" width="600" height="400" viewBox="0 0 2400 1600">
<defs>
  <clipPath id="clip900">
    <rect x="0" y="0" width="2400" height="1600"/>
  </clipPath>
</defs>
<path clip-path="url(#clip900)" d="M0 1600 L2400 1600 L2400 0 L0 0  Z" fill="#ffffff" fill-rule="evenodd" fill-opacity="1"/>
<defs>
  <clipPath id="clip901">
    <rect x="480" y="0" width="1681" height="1600"/>
  </clipPath>
</defs>
<path clip-path="url(#clip900)" d="M147.478 1423.18 L2352.76 1423.18 L2352.76 47.2441 L147.478 47.2441  Z" fill="#ffffff" fill-rule="evenodd" fill-opacity="1"/>
<defs>
  <clipPath id="clip902">
    <rect x="147" y="47" width="2206" height="1377"/>
  </clipPath>
</defs>
<polyline clip-path="url(#clip902)" style="stroke:#000000; stroke-linecap:round; stroke-linejoin:round; stroke-width:2; stroke-opacity:0.1; fill:none" points="147.478,1423.18 147.478,47.2441 "/>
<polyline clip-path="url(#clip902)" style="stroke:#000000; stroke-linecap:round; stroke-linejoin:round; stroke-width:2; stroke-opacity:0.1; fill:none" points="588.534,1423.18 588.534,47.2441 "/>
<polyline clip-path="url(#clip902)" style="stroke:#000000; stroke-linecap:round; stroke-linejoin:round; stroke-width:2; stroke-opacity:0.1; fill:none" points="1029.59,1423.18 1029.59,47.2441 "/>
<polyline clip-path="url(#clip902)" style="stroke:#000000; stroke-linecap:round; stroke-linejoin:round; stroke-width:2; stroke-opacity:0.1; fill:none" points="1470.64,1423.18 1470.64,47.2441 "/>
<polyline clip-path="url(#clip902)" style="stroke:#000000; stroke-linecap:round; stroke-linejoin:round; stroke-width:2; stroke-opacity:0.1; fill:none" points="1911.7,1423.18 1911.7,47.2441 "/>
<polyline clip-path="url(#clip902)" style="stroke:#000000; stroke-linecap:round; stroke-linejoin:round; stroke-width:2; stroke-opacity:0.1; fill:none" points="2352.76,1423.18 2352.76,47.2441 "/>
<polyline clip-path="url(#clip902)" style="stroke:#000000; stroke-linecap:round; stroke-linejoin:round; stroke-width:2; stroke-opacity:0.1; fill:none" points="147.478,1279.8 2352.76,1279.8 "/>
<polyline clip-path="url(#clip902)" style="stroke:#000000; stroke-linecap:round; stroke-linejoin:round; stroke-width:2; stroke-opacity:0.1; fill:none" points="147.478,947.636 2352.76,947.636 "/>
<polyline clip-path="url(#clip902)" style="stroke:#000000; stroke-linecap:round; stroke-linejoin:round; stroke-width:2; stroke-opacity:0.1; fill:none" points="147.478,615.476 2352.76,615.476 "/>
<polyline clip-path="url(#clip902)" style="stroke:#000000; stroke-linecap:round; stroke-linejoin:round; stroke-width:2; stroke-opacity:0.1; fill:none" points="147.478,283.315 2352.76,283.315 "/>
<polyline clip-path="url(#clip900)" style="stroke:#000000; stroke-linecap:round; stroke-linejoin:round; stroke-width:4; stroke-opacity:1; fill:none" points="147.478,1423.18 2352.76,1423.18 "/>
<polyline clip-path="url(#clip900)" style="stroke:#000000; stroke-linecap:round; stroke-linejoin:round; stroke-width:4; stroke-opacity:1; fill:none" points="147.478,1423.18 147.478,1404.28 "/>
<polyline clip-path="url(#clip900)" style="stroke:#000000; stroke-linecap:round; stroke-linejoin:round; stroke-width:4; stroke-opacity:1; fill:none" points="588.534,1423.18 588.534,1404.28 "/>
<polyline clip-path="url(#clip900)" style="stroke:#000000; stroke-linecap:round; stroke-linejoin:round; stroke-width:4; stroke-opacity:1; fill:none" points="1029.59,1423.18 1029.59,1404.28 "/>
<polyline clip-path="url(#clip900)" style="stroke:#000000; stroke-linecap:round; stroke-linejoin:round; stroke-width:4; stroke-opacity:1; fill:none" points="1470.64,1423.18 1470.64,1404.28 "/>
<polyline clip-path="url(#clip900)" style="stroke:#000000; stroke-linecap:round; stroke-linejoin:round; stroke-width:4; stroke-opacity:1; fill:none" points="1911.7,1423.18 1911.7,1404.28 "/>
<polyline clip-path="url(#clip900)" style="stroke:#000000; stroke-linecap:round; stroke-linejoin:round; stroke-width:4; stroke-opacity:1; fill:none" points="2352.76,1423.18 2352.76,1404.28 "/>
<path clip-path="url(#clip900)" d="M147.478 1454.1 Q143.867 1454.1 142.038 1457.66 Q140.233 1461.2 140.233 1468.33 Q140.233 1475.44 142.038 1479.01 Q143.867 1482.55 147.478 1482.55 Q151.112 1482.55 152.918 1479.01 Q154.746 1475.44 154.746 1468.33 Q154.746 1461.2 152.918 1457.66 Q151.112 1454.1 147.478 1454.1 M147.478 1450.39 Q153.288 1450.39 156.344 1455 Q159.422 1459.58 159.422 1468.33 Q159.422 1477.06 156.344 1481.67 Q153.288 1486.25 147.478 1486.25 Q141.668 1486.25 138.589 1481.67 Q135.534 1477.06 135.534 1468.33 Q135.534 1459.58 138.589 1455 Q141.668 1450.39 147.478 1450.39 Z" fill="#000000" fill-rule="nonzero" fill-opacity="1" /><path clip-path="url(#clip900)" d="M583.186 1481.64 L599.506 1481.64 L599.506 1485.58 L577.561 1485.58 L577.561 1481.64 Q580.223 1478.89 584.807 1474.26 Q589.413 1469.61 590.594 1468.27 Q592.839 1465.74 593.719 1464.01 Q594.621 1462.25 594.621 1460.56 Q594.621 1457.8 592.677 1456.07 Q590.756 1454.33 587.654 1454.33 Q585.455 1454.33 583.001 1455.09 Q580.571 1455.86 577.793 1457.41 L577.793 1452.69 Q580.617 1451.55 583.071 1450.97 Q585.524 1450.39 587.561 1450.39 Q592.932 1450.39 596.126 1453.08 Q599.32 1455.77 599.32 1460.26 Q599.32 1462.39 598.51 1464.31 Q597.723 1466.2 595.617 1468.8 Q595.038 1469.47 591.936 1472.69 Q588.834 1475.88 583.186 1481.64 Z" fill="#000000" fill-rule="nonzero" fill-opacity="1" /><path clip-path="url(#clip900)" d="M1032.6 1455.09 L1020.79 1473.54 L1032.6 1473.54 L1032.6 1455.09 M1031.37 1451.02 L1037.25 1451.02 L1037.25 1473.54 L1042.18 1473.54 L1042.18 1477.43 L1037.25 1477.43 L1037.25 1485.58 L1032.6 1485.58 L1032.6 1477.43 L1017 1477.43 L1017 1472.92 L1031.37 1451.02 Z" fill="#000000" fill-rule="nonzero" fill-opacity="1" /><path clip-path="url(#clip900)" d="M1471.05 1466.44 Q1467.9 1466.44 1466.05 1468.59 Q1464.22 1470.74 1464.22 1474.49 Q1464.22 1478.22 1466.05 1480.39 Q1467.9 1482.55 1471.05 1482.55 Q1474.2 1482.55 1476.03 1480.39 Q1477.88 1478.22 1477.88 1474.49 Q1477.88 1470.74 1476.03 1468.59 Q1474.2 1466.44 1471.05 1466.44 M1480.33 1451.78 L1480.33 1456.04 Q1478.57 1455.21 1476.77 1454.77 Q1474.98 1454.33 1473.23 1454.33 Q1468.6 1454.33 1466.14 1457.45 Q1463.71 1460.58 1463.36 1466.9 Q1464.73 1464.89 1466.79 1463.82 Q1468.85 1462.73 1471.33 1462.73 Q1476.54 1462.73 1479.55 1465.9 Q1482.58 1469.05 1482.58 1474.49 Q1482.58 1479.82 1479.43 1483.03 Q1476.28 1486.25 1471.05 1486.25 Q1465.05 1486.25 1461.88 1481.67 Q1458.71 1477.06 1458.71 1468.33 Q1458.71 1460.14 1462.6 1455.28 Q1466.49 1450.39 1473.04 1450.39 Q1474.8 1450.39 1476.58 1450.74 Q1478.39 1451.09 1480.33 1451.78 Z" fill="#000000" fill-rule="nonzero" fill-opacity="1" /><path clip-path="url(#clip900)" d="M1911.7 1469.17 Q1908.37 1469.17 1906.45 1470.95 Q1904.55 1472.73 1904.55 1475.86 Q1904.55 1478.98 1906.45 1480.77 Q1908.37 1482.55 1911.7 1482.55 Q1915.03 1482.55 1916.95 1480.77 Q1918.88 1478.96 1918.88 1475.86 Q1918.88 1472.73 1916.95 1470.95 Q1915.06 1469.17 1911.7 1469.17 M1907.02 1467.18 Q1904.02 1466.44 1902.33 1464.38 Q1900.66 1462.32 1900.66 1459.35 Q1900.66 1455.21 1903.6 1452.8 Q1906.56 1450.39 1911.7 1450.39 Q1916.86 1450.39 1919.8 1452.8 Q1922.74 1455.21 1922.74 1459.35 Q1922.74 1462.32 1921.05 1464.38 Q1919.39 1466.44 1916.4 1467.18 Q1919.78 1467.96 1921.65 1470.26 Q1923.55 1472.55 1923.55 1475.86 Q1923.55 1480.88 1920.47 1483.57 Q1917.42 1486.25 1911.7 1486.25 Q1905.98 1486.25 1902.9 1483.57 Q1899.85 1480.88 1899.85 1475.86 Q1899.85 1472.55 1901.75 1470.26 Q1903.64 1467.96 1907.02 1467.18 M1905.31 1459.79 Q1905.31 1462.48 1906.98 1463.98 Q1908.67 1465.49 1911.7 1465.49 Q1914.71 1465.49 1916.4 1463.98 Q1918.11 1462.48 1918.11 1459.79 Q1918.11 1457.11 1916.4 1455.6 Q1914.71 1454.1 1911.7 1454.1 Q1908.67 1454.1 1906.98 1455.6 Q1905.31 1457.11 1905.31 1459.79 Z" fill="#000000" fill-rule="nonzero" fill-opacity="1" /><path clip-path="url(#clip900)" d="M2327.44 1481.64 L2335.08 1481.64 L2335.08 1455.28 L2326.77 1456.95 L2326.77 1452.69 L2335.04 1451.02 L2339.71 1451.02 L2339.71 1481.64 L2347.35 1481.64 L2347.35 1485.58 L2327.44 1485.58 L2327.44 1481.64 Z" fill="#000000" fill-rule="nonzero" fill-opacity="1" /><path clip-path="url(#clip900)" d="M2366.8 1454.1 Q2363.18 1454.1 2361.36 1457.66 Q2359.55 1461.2 2359.55 1468.33 Q2359.55 1475.44 2361.36 1479.01 Q2363.18 1482.55 2366.8 1482.55 Q2370.43 1482.55 2372.23 1479.01 Q2374.06 1475.44 2374.06 1468.33 Q2374.06 1461.2 2372.23 1457.66 Q2370.43 1454.1 2366.8 1454.1 M2366.8 1450.39 Q2372.61 1450.39 2375.66 1455 Q2378.74 1459.58 2378.74 1468.33 Q2378.74 1477.06 2375.66 1481.67 Q2372.61 1486.25 2366.8 1486.25 Q2360.99 1486.25 2357.91 1481.67 Q2354.85 1477.06 2354.85 1468.33 Q2354.85 1459.58 2357.91 1455 Q2360.99 1450.39 2366.8 1450.39 Z" fill="#000000" fill-rule="nonzero" fill-opacity="1" /><path clip-path="url(#clip900)" d="M1249.18 1522.27 L1249.18 1532.4 L1261.24 1532.4 L1261.24 1536.95 L1249.18 1536.95 L1249.18 1556.3 Q1249.18 1560.66 1250.36 1561.9 Q1251.57 1563.14 1255.23 1563.14 L1261.24 1563.14 L1261.24 1568.04 L1255.23 1568.04 Q1248.45 1568.04 1245.87 1565.53 Q1243.29 1562.98 1243.29 1556.3 L1243.29 1536.95 L1238.99 1536.95 L1238.99 1532.4 L1243.29 1532.4 L1243.29 1522.27 L1249.18 1522.27 Z" fill="#000000" fill-rule="nonzero" fill-opacity="1" /><polyline clip-path="url(#clip900)" style="stroke:#000000; stroke-linecap:round; stroke-linejoin:round; stroke-width:4; stroke-opacity:1; fill:none" points="147.478,1423.18 147.478,47.2441 "/>
<polyline clip-path="url(#clip900)" style="stroke:#000000; stroke-linecap:round; stroke-linejoin:round; stroke-width:4; stroke-opacity:1; fill:none" points="147.478,1279.8 166.376,1279.8 "/>
<polyline clip-path="url(#clip900)" style="stroke:#000000; stroke-linecap:round; stroke-linejoin:round; stroke-width:4; stroke-opacity:1; fill:none" points="147.478,947.636 166.376,947.636 "/>
<polyline clip-path="url(#clip900)" style="stroke:#000000; stroke-linecap:round; stroke-linejoin:round; stroke-width:4; stroke-opacity:1; fill:none" points="147.478,615.476 166.376,615.476 "/>
<polyline clip-path="url(#clip900)" style="stroke:#000000; stroke-linecap:round; stroke-linejoin:round; stroke-width:4; stroke-opacity:1; fill:none" points="147.478,283.315 166.376,283.315 "/>
<path clip-path="url(#clip900)" d="M51.3625 1280.25 L81.0383 1280.25 L81.0383 1284.18 L51.3625 1284.18 L51.3625 1280.25 Z" fill="#000000" fill-rule="nonzero" fill-opacity="1" /><path clip-path="url(#clip900)" d="M95.1586 1293.14 L111.478 1293.14 L111.478 1297.08 L89.5336 1297.08 L89.5336 1293.14 Q92.1956 1290.39 96.7789 1285.76 Q101.385 1281.1 102.566 1279.76 Q104.811 1277.24 105.691 1275.5 Q106.594 1273.74 106.594 1272.05 Q106.594 1269.3 104.649 1267.56 Q102.728 1265.83 99.6261 1265.83 Q97.4271 1265.83 94.9734 1266.59 Q92.5428 1267.35 89.7651 1268.91 L89.7651 1264.18 Q92.5891 1263.05 95.0428 1262.47 Q97.4965 1261.89 99.5335 1261.89 Q104.904 1261.89 108.098 1264.58 Q111.293 1267.26 111.293 1271.75 Q111.293 1273.88 110.483 1275.8 Q109.696 1277.7 107.589 1280.29 Q107.01 1280.97 103.909 1284.18 Q100.807 1287.38 95.1586 1293.14 Z" fill="#000000" fill-rule="nonzero" fill-opacity="1" /><path clip-path="url(#clip900)" d="M50.9921 948.088 L80.6679 948.088 L80.6679 952.023 L50.9921 952.023 L50.9921 948.088 Z" fill="#000000" fill-rule="nonzero" fill-opacity="1" /><path clip-path="url(#clip900)" d="M91.5706 960.981 L99.2095 960.981 L99.2095 934.616 L90.8993 936.282 L90.8993 932.023 L99.1632 930.356 L103.839 930.356 L103.839 960.981 L111.478 960.981 L111.478 964.916 L91.5706 964.916 L91.5706 960.981 Z" fill="#000000" fill-rule="nonzero" fill-opacity="1" /><path clip-path="url(#clip900)" d="M99.5335 601.274 Q95.9224 601.274 94.0937 604.839 Q92.2882 608.381 92.2882 615.51 Q92.2882 622.617 94.0937 626.182 Q95.9224 629.723 99.5335 629.723 Q103.168 629.723 104.973 626.182 Q106.802 622.617 106.802 615.51 Q106.802 608.381 104.973 604.839 Q103.168 601.274 99.5335 601.274 M99.5335 597.571 Q105.344 597.571 108.399 602.177 Q111.478 606.76 111.478 615.51 Q111.478 624.237 108.399 628.844 Q105.344 633.427 99.5335 633.427 Q93.7234 633.427 90.6447 628.844 Q87.5892 624.237 87.5892 615.51 Q87.5892 606.76 90.6447 602.177 Q93.7234 597.571 99.5335 597.571 Z" fill="#000000" fill-rule="nonzero" fill-opacity="1" /><path clip-path="url(#clip900)" d="M91.5706 296.66 L99.2095 296.66 L99.2095 270.294 L90.8993 271.961 L90.8993 267.702 L99.1632 266.035 L103.839 266.035 L103.839 296.66 L111.478 296.66 L111.478 300.595 L91.5706 300.595 L91.5706 296.66 Z" fill="#000000" fill-rule="nonzero" fill-opacity="1" /><polyline clip-path="url(#clip902)" style="stroke:#009af9; stroke-linecap:round; stroke-linejoin:round; stroke-width:4; stroke-opacity:1; fill:none" points="147.478,615.476 149.685,622.715 151.893,629.859 154.1,636.908 156.308,643.864 158.515,650.727 160.723,657.5 162.93,664.182 165.138,670.776 167.345,677.283 169.553,683.703 171.76,690.038 173.968,696.289 176.175,702.458 178.383,708.544 180.59,714.55 182.798,720.476 185.005,726.324 187.213,732.094 189.42,737.788 191.628,743.406 193.835,748.95 196.043,754.42 198.25,759.817 200.458,765.143 202.665,770.399 204.873,775.585 207.08,780.702 209.288,785.751 211.495,790.733 213.702,795.649 215.91,800.5 218.117,805.287 220.325,810.01 222.532,814.671 224.74,819.27 226.947,823.807 229.155,828.285 231.362,832.704 233.57,837.063 235.777,841.365 237.985,845.61 240.192,849.799 242.4,853.932 244.607,858.01 246.815,862.034 249.022,866.005 251.23,869.924 253.437,873.79 255.645,877.605 257.852,881.369 260.06,885.084 262.267,888.749 264.475,892.366 266.682,895.934 268.89,899.456 271.097,902.931 273.305,906.359 275.512,909.742 277.72,913.081 279.927,916.375 282.135,919.625 284.342,922.833 286.549,925.998 288.757,929.121 290.964,932.202 293.172,935.243 295.379,938.243 297.587,941.204 299.794,944.125 302.002,947.007 304.209,949.852 306.417,952.658 308.624,955.427 310.832,958.16 313.039,960.857 315.247,963.517 317.454,966.143 319.662,968.733 321.869,971.289 324.077,973.812 326.284,976.301 328.492,978.756 330.699,981.18 332.907,983.571 335.114,985.931 337.322,988.159 339.529,990.183 341.737,992.049 343.944,993.8 346.152,995.476 348.359,997.114 350.567,998.75 352.774,1000.41 354.982,1002.13 357.189,1003.94 359.397,1005.85 361.604,1007.88 363.811,1010.06 366.019,1012.39 368.226,1014.9 370.434,1017.58 372.641,1020.44 374.849,1023.49 377.056,1026.73 379.264,1030.14 381.471,1033.74 383.679,1037.5 385.886,1041.42 388.094,1045.47 390.301,1049.66 392.509,1053.94 394.716,1058.31 396.924,1062.73 399.131,1067.18 401.339,1071.62 403.546,1076.03 405.754,1080.35 407.961,1084.55 410.169,1088.6 412.376,1092.51 414.584,1096.38 416.791,1100.2 418.999,1103.96 421.206,1107.68 423.414,1111.35 425.621,1114.97 427.829,1118.54 430.036,1122.06 432.244,1125.53 434.451,1128.96 436.659,1132.35 438.866,1135.69 441.073,1138.98 443.281,1142.23 445.488,1145.44 447.696,1148.61 449.903,1151.73 452.111,1154.82 454.318,1157.86 456.526,1160.86 458.733,1163.82 460.941,1166.74 463.148,1169.63 465.356,1172.48 467.563,1175.28 469.771,1178.06 471.978,1180.79 474.186,1183.49 476.393,1186.15 478.601,1188.78 480.808,1191.37 483.016,1193.93 485.223,1196.45 487.431,1198.95 489.638,1201.4 491.846,1203.83 494.053,1206.22 496.261,1208.58 498.468,1210.91 500.676,1213.21 502.883,1215.48 505.091,1217.71 507.298,1219.92 509.506,1222.1 511.713,1224.25 513.921,1226.37 516.128,1228.46 518.335,1230.53 520.543,1232.57 522.75,1234.58 524.958,1236.56 527.165,1238.52 529.373,1240.45 531.58,1242.35 533.788,1244.23 535.995,1246.09 538.203,1247.92 540.41,1249.72 542.618,1251.51 544.825,1253.27 547.033,1255 549.24,1256.71 551.448,1258.4 553.655,1260.07 555.863,1261.72 558.07,1263.34 560.278,1264.94 562.485,1266.52 564.693,1268.08 566.9,1269.62 569.108,1271.14 571.315,1272.69 573.523,1275.88 575.73,1279.67 577.938,1282.08 580.145,1281.76 582.353,1278.01 584.56,1270.74 586.768,1260.51 588.975,1248.52 591.182,1236.6 593.39,1225.55 595.597,1214.64 597.805,1203.87 600.012,1193.25 602.22,1182.77 604.427,1172.42 606.635,1162.22 608.842,1152.15 611.05,1142.21 613.257,1132.4 615.465,1122.73 617.672,1113.18 619.88,1103.76 622.087,1094.46 624.295,1085.29 626.502,1076.24 628.71,1067.31 630.917,1058.5 633.125,1049.8 635.332,1041.22 637.54,1032.75 639.747,1024.4 641.955,1016.16 644.162,1008.02 646.37,999.996 648.577,992.077 650.785,984.262 652.992,976.551 655.2,968.943 657.407,961.435 659.615,954.027 661.822,946.717 664.03,939.504 666.237,932.387 668.444,925.364 670.652,918.434 672.859,911.595 675.067,904.848 677.274,898.19 679.482,891.62 681.689,885.137 683.897,878.74 686.104,872.428 688.312,866.199 690.519,860.053 692.727,853.989 694.934,848.004 697.142,842.1 699.349,836.273 701.557,830.524 703.764,824.851 705.972,819.253 708.179,813.73 710.387,808.28 712.594,802.902 714.802,797.595 717.009,792.359 719.217,787.192 721.424,782.094 723.632,777.063 725.839,772.099 728.047,767.201 730.254,762.367 732.462,757.598 734.669,752.892 736.877,748.248 739.084,743.666 741.292,739.145 743.499,734.691 745.706,730.304 747.914,725.982 750.121,721.722 752.329,717.521 754.536,713.377 756.744,709.286 758.951,705.248 761.159,701.26 763.366,697.319 765.574,693.425 767.781,689.575 769.989,685.768 772.196,682.002 774.404,678.276 776.611,674.59 778.819,670.941 781.026,667.33 783.234,663.755 785.441,660.216 787.649,656.713 789.856,653.245 792.064,649.811 794.271,646.413 796.479,643.049 798.686,639.721 800.894,636.429 803.101,633.173 805.309,629.953 807.516,626.772 809.724,623.629 811.931,620.526 814.139,617.463 816.346,614.443 818.553,611.467 820.761,608.536 822.968,605.647 825.176,602.795 827.383,599.982 829.591,597.205 831.798,594.466 834.006,591.763 836.213,589.096 838.421,586.464 840.628,583.867 842.836,581.304 845.043,578.776 847.251,576.281 849.458,573.819 851.666,571.39 853.873,568.993 856.081,566.627 858.288,564.293 860.496,561.99 862.703,559.718 864.911,557.476 867.118,555.263 869.326,553.08 871.533,550.925 873.741,548.8 875.948,546.702 878.156,544.632 880.363,542.59 882.571,540.575 884.778,538.586 886.986,536.624 889.193,534.687 891.401,532.777 893.608,530.891 895.815,529.031 898.023,527.195 900.23,525.384 902.438,523.596 904.645,521.833 906.853,520.093 909.06,518.375 911.268,516.681 913.475,515.009 915.683,513.359 917.89,511.732 920.098,510.126 922.305,508.541 924.513,506.977 926.72,505.434 928.928,503.911 931.135,502.409 933.343,500.927 935.55,499.464 937.758,498.02 939.965,496.596 942.173,495.191 944.38,493.804 946.588,492.436 948.795,491.086 951.003,489.754 953.21,488.439 955.418,487.142 957.625,485.862 959.833,484.599 962.04,483.353 964.248,482.123 966.455,480.909 968.663,479.712 970.87,478.53 973.077,477.364 975.285,476.214 977.492,475.078 979.7,473.958 981.907,472.853 984.115,471.762 986.322,470.686 988.53,469.624 990.737,468.576 992.945,467.542 995.152,466.522 997.36,465.515 999.567,464.522 1001.77,463.541 1003.98,462.574 1006.19,461.62 1008.4,460.678 1010.6,459.749 1012.81,458.832 1015.02,457.927 1017.23,457.034 1019.43,456.153 1021.64,455.284 1023.85,454.426 1026.06,453.58 1028.26,452.63 1030.47,451.162 1032.68,449.185 1034.89,446.754 1037.09,443.92 1039.3,440.731 1041.51,437.234 1043.72,433.472 1045.92,429.486 1048.13,425.317 1050.34,420.999 1052.55,416.569 1054.75,412.056 1056.96,407.492 1059.17,402.902 1061.38,398.312 1063.58,393.744 1065.79,389.217 1068,384.749 1070.21,380.354 1072.41,376.047 1074.62,371.836 1076.83,367.729 1079.04,363.733 1081.24,359.85 1083.45,356.08 1085.66,352.421 1087.87,348.871 1090.07,345.421 1092.28,342.063 1094.49,338.786 1096.7,335.576 1098.9,332.416 1101.11,329.287 1103.32,326.17 1105.53,323.04 1107.73,319.902 1109.94,316.803 1112.15,313.746 1114.36,310.729 1116.56,307.752 1118.77,304.814 1120.98,301.915 1123.19,299.055 1125.39,296.233 1127.6,293.448 1129.81,290.7 1132.02,287.989 1134.22,285.313 1136.43,282.673 1138.64,280.068 1140.85,277.498 1143.05,274.961 1145.26,272.459 1147.47,269.989 1149.68,267.552 1151.88,265.148 1154.09,262.775 1156.3,260.433 1158.51,258.123 1160.71,255.843 1162.92,253.594 1165.13,251.374 1167.34,249.184 1169.54,247.023 1171.75,244.89 1173.96,242.786 1176.17,240.71 1178.37,238.661 1180.58,236.64 1182.79,234.645 1185,232.677 1187.2,230.734 1189.41,228.818 1191.62,226.927 1193.83,225.061 1196.03,223.22 1198.24,221.403 1200.45,219.611 1202.66,217.842 1204.86,216.097 1207.07,214.374 1209.28,212.675 1211.49,210.998 1213.69,209.343 1215.9,207.711 1218.11,206.1 1220.32,204.51 1222.52,202.941 1224.73,201.393 1226.94,199.866 1229.15,198.359 1231.35,196.872 1233.56,195.404 1235.77,193.956 1237.98,192.527 1240.18,191.117 1242.39,189.897 1244.6,190.134 1246.81,191.914 1249.01,195.04 1251.22,199.322 1253.43,204.587 1255.64,210.668 1257.84,217.413 1260.05,224.682 1262.26,232.343 1264.47,240.278 1266.67,248.381 1268.88,256.557 1271.09,264.72 1273.3,272.8 1275.5,280.735 1277.71,288.477 1279.92,295.986 1282.13,303.238 1284.33,310.217 1286.54,316.919 1288.75,323.355 1290.96,329.542 1293.16,335.514 1295.37,341.311 1297.58,346.989 1299.79,352.614 1301.99,358.263 1304.2,364.011 1306.41,369.735 1308.62,375.384 1310.82,380.957 1313.03,386.457 1315.24,391.883 1317.45,397.238 1319.65,402.522 1321.86,407.735 1324.07,412.88 1326.28,417.956 1328.48,422.965 1330.69,427.908 1332.9,432.785 1335.11,437.597 1337.31,442.346 1339.52,447.032 1341.73,451.655 1343.94,456.218 1346.14,460.72 1348.35,465.163 1350.56,469.546 1352.76,473.871 1354.97,478.14 1357.18,482.351 1359.39,486.507 1361.59,490.607 1363.8,494.653 1366.01,498.645 1368.22,502.585 1370.42,506.472 1372.63,510.307 1374.84,514.092 1377.05,517.826 1379.25,521.511 1381.46,525.147 1383.67,528.735 1385.88,532.275 1388.08,535.768 1390.29,539.215 1392.5,542.616 1394.71,545.972 1396.91,549.283 1399.12,552.551 1401.33,555.775 1403.54,558.956 1405.74,562.096 1407.95,565.193 1410.16,568.25 1412.37,571.266 1414.57,574.243 1416.78,577.179 1418.99,580.077 1421.2,582.937 1423.4,585.759 1425.61,588.543 1427.82,591.29 1430.03,594.001 1432.23,596.676 1434.44,599.316 1436.65,601.92 1438.86,604.49 1441.06,607.026 1443.27,609.529 1445.48,611.998 1447.69,614.434 1449.89,616.838 1452.1,619.21 1454.31,621.551 1456.52,623.861 1458.72,626.14 1460.93,628.389 1463.14,630.608 1465.35,632.798 1467.55,634.958 1469.76,637.09 1471.97,638.664 1474.18,638.785 1476.38,638.327 1478.59,637.879 1480.8,637.634 1483.01,637.417 1485.21,637.163 1487.42,636.913 1489.63,636.667 1491.84,636.423 1494.04,636.183 1496.25,635.946 1498.46,635.712 1500.67,635.481 1502.87,635.253 1505.08,635.029 1507.29,634.807 1509.5,634.588 1511.7,634.372 1513.91,634.159 1516.12,633.949 1518.33,633.742 1520.53,633.537 1522.74,633.335 1524.95,633.136 1527.16,632.939 1529.36,632.745 1531.57,632.554 1533.78,632.365 1535.99,632.179 1538.19,631.995 1540.4,631.813 1542.61,631.634 1544.82,631.457 1547.02,631.283 1549.23,631.111 1551.44,630.941 1553.65,630.774 1555.85,630.608 1558.06,630.445 1560.27,630.284 1562.48,630.125 1564.68,629.969 1566.89,629.814 1569.1,629.662 1571.31,629.511 1573.51,629.362 1575.72,629.216 1577.93,629.071 1580.14,628.928 1582.34,628.788 1584.55,628.649 1586.76,628.512 1588.97,628.376 1591.17,628.243 1593.38,628.111 1595.59,627.981 1597.8,627.853 1600,627.726 1602.21,627.601 1604.42,627.478 1606.63,627.356 1608.83,627.236 1611.04,627.118 1613.25,627.001 1615.46,626.886 1617.66,626.772 1619.87,626.66 1622.08,626.549 1624.29,626.44 1626.49,626.332 1628.7,626.225 1630.91,626.12 1633.12,626.017 1635.32,625.915 1637.53,625.814 1639.74,625.714 1641.95,625.616 1644.15,625.519 1646.36,625.423 1648.57,625.329 1650.78,625.236 1652.98,625.144 1655.19,625.053 1657.4,624.964 1659.61,624.876 1661.81,624.789 1664.02,624.703 1666.23,624.618 1668.44,624.534 1670.64,624.452 1672.85,624.37 1675.06,624.29 1677.27,624.21 1679.47,624.132 1681.68,624.055 1683.89,623.979 1686.1,623.903 1688.3,623.829 1690.51,623.756 1692.72,624.857 1694.93,627.981 1697.13,630.999 1699.34,633.858 1701.55,636.712 1703.76,639.529 1705.96,642.308 1708.17,645.05 1710.38,647.756 1712.59,650.426 1714.79,653.06 1717,655.66 1719.21,658.225 1721.42,660.756 1723.62,663.254 1725.83,665.718 1728.04,668.15 1730.25,670.55 1732.45,672.917 1734.66,675.254 1736.87,677.559 1739.07,679.834 1741.28,682.079 1743.49,684.294 1745.7,686.479 1747.9,688.636 1750.11,690.764 1752.32,692.863 1754.53,694.935 1756.73,696.98 1758.94,698.997 1761.15,700.988 1763.36,702.952 1765.56,704.89 1767.77,706.803 1769.98,708.69 1772.19,710.552 1774.39,712.389 1776.6,714.202 1778.81,715.991 1781.02,717.757 1783.22,719.498 1785.43,721.217 1787.64,722.913 1789.85,724.587 1792.05,726.238 1794.26,727.868 1796.47,729.475 1798.68,731.062 1800.88,732.627 1803.09,734.172 1805.3,735.696 1807.51,737.2 1809.71,738.684 1811.92,740.149 1814.13,741.594 1816.34,743.02 1818.54,744.427 1820.75,745.815 1822.96,747.185 1825.17,748.537 1827.37,749.87 1829.58,751.187 1831.79,752.485 1834,753.767 1836.2,755.031 1838.41,756.279 1840.62,757.51 1842.83,758.725 1845.03,759.924 1847.24,761.107 1849.45,762.274 1851.66,763.425 1853.86,764.562 1856.07,765.683 1858.28,766.79 1860.49,767.881 1862.69,768.959 1864.9,770.022 1867.11,771.071 1869.32,772.106 1871.52,773.127 1873.73,774.135 1875.94,775.129 1878.15,776.11 1880.35,777.079 1882.56,778.034 1884.77,778.977 1886.98,779.907 1889.18,780.818 1891.39,781.644 1893.6,782.376 1895.81,783.02 1898.01,783.586 1900.22,784.081 1902.43,784.513 1904.64,784.889 1906.84,785.216 1909.05,785.499 1911.26,785.744 1913.47,785.958 1915.67,786.145 1917.88,786.311 1920.09,786.459 1922.3,786.594 1924.5,786.719 1926.71,786.838 1928.92,786.954 1931.13,787.069 1933.33,787.186 1935.54,787.306 1937.75,787.432 1939.96,787.563 1942.16,787.701 1944.37,787.847 1946.58,787.999 1948.79,788.159 1950.99,788.324 1953.2,788.495 1955.41,788.669 1957.62,788.845 1959.82,789.021 1962.03,789.193 1964.24,789.36 1966.45,789.517 1968.65,789.662 1970.86,789.803 1973.07,789.943 1975.28,790.08 1977.48,790.215 1979.69,790.349 1981.9,790.481 1984.11,790.611 1986.31,790.74 1988.52,790.867 1990.73,790.992 1992.94,791.115 1995.14,791.237 1997.35,791.357 1999.56,791.476 2001.77,791.593 2003.97,791.708 2006.18,791.822 2008.39,791.935 2010.6,792.046 2012.8,792.155 2015.01,792.263 2017.22,792.37 2019.43,792.475 2021.63,792.579 2023.84,792.681 2026.05,792.782 2028.26,792.882 2030.46,792.98 2032.67,793.077 2034.88,793.173 2037.09,793.268 2039.29,793.361 2041.5,793.453 2043.71,793.544 2045.92,793.633 2048.12,793.722 2050.33,793.809 2052.54,793.895 2054.75,793.98 2056.95,794.064 2059.16,794.147 2061.37,794.228 2063.58,794.309 2065.78,794.388 2067.99,794.467 2070.2,794.544 2072.41,794.62 2074.61,794.696 2076.82,794.77 2079.03,794.843 2081.24,794.916 2083.44,794.987 2085.65,795.058 2087.86,795.127 2090.07,795.196 2092.27,795.264 2094.48,795.33 2096.69,795.396 2098.9,795.461 2101.1,795.525 2103.31,795.589 2105.52,795.651 2107.73,795.713 2109.93,795.774 2112.14,795.834 2114.35,795.893 2116.55,795.952 2118.76,796.009 2120.97,796.066 2123.18,796.122 2125.38,796.178 2127.59,796.229 2129.8,796.016 2132.01,795.403 2134.21,794.434 2136.42,793.147 2138.63,791.58 2140.84,789.768 2143.04,787.746 2145.25,785.544 2147.46,783.194 2149.67,780.724 2151.87,778.159 2154.08,775.524 2156.29,772.842 2158.5,770.133 2160.7,767.416 2162.91,764.707 2165.12,762.022 2167.33,759.374 2169.53,756.773 2171.74,754.23 2173.95,751.752 2176.16,749.343 2178.36,747.008 2180.57,744.749 2182.78,742.565 2184.99,740.454 2187.19,738.413 2189.4,736.435 2191.61,734.514 2193.82,732.638 2196.02,730.798 2198.23,728.979 2200.44,727.167 2202.65,725.344 2204.85,723.502 2207.06,721.68 2209.27,719.882 2211.48,718.108 2213.68,716.357 2215.89,714.63 2218.1,712.925 2220.31,711.243 2222.51,709.583 2224.72,707.946 2226.93,706.33 2229.14,704.735 2231.34,703.162 2233.55,701.609 2235.76,700.077 2237.97,698.566 2240.17,697.074 2242.38,695.602 2244.59,694.15 2246.8,692.716 2249,691.302 2251.21,689.907 2253.42,688.529 2255.63,687.171 2257.83,685.83 2260.04,684.507 2262.25,683.201 2264.46,681.913 2266.66,680.642 2268.87,679.388 2271.08,678.15 2273.29,676.929 2275.49,675.724 2277.7,674.536 2279.91,673.362 2282.12,672.205 2284.32,671.063 2286.53,669.936 2288.74,668.824 2290.95,667.727 2293.15,666.644 2295.36,665.576 2297.57,664.522 2299.78,663.482 2301.98,662.455 2304.19,661.443 2306.4,660.443 2308.61,659.457 2310.81,658.485 2313.02,657.525 2315.23,656.577 2317.44,655.643 2319.64,654.72 2321.85,653.81 2324.06,652.912 2326.27,652.026 2328.47,651.151 2330.68,650.288 2332.89,649.437 2335.1,648.597 2337.3,647.768 2339.51,646.95 2341.72,646.142 2343.93,645.346 2346.13,644.56 2348.34,643.784 2350.55,643.019 2352.76,642.264 "/>
<polyline clip-path="url(#clip902)" style="stroke:#e26f46; stroke-linecap:round; stroke-linejoin:round; stroke-width:4; stroke-opacity:1; fill:none" points="147.478,1161.54 149.685,1161.54 151.893,1161.54 154.1,1161.54 156.308,1161.54 158.515,1161.54 160.723,1161.54 162.93,1161.54 165.138,1161.54 167.345,1161.54 169.553,1161.54 171.76,1161.54 173.968,1161.54 176.175,1161.54 178.383,1161.54 180.59,1161.54 182.798,1161.54 185.005,1161.54 187.213,1161.54 189.42,1161.54 191.628,1161.54 193.835,1161.54 196.043,1161.54 198.25,1161.54 200.458,1161.54 202.665,1161.54 204.873,1161.54 207.08,1161.54 209.288,1161.54 211.495,1161.54 213.702,1161.54 215.91,1161.54 218.117,1161.54 220.325,1161.54 222.532,1161.54 224.74,1161.54 226.947,1161.54 229.155,1161.54 231.362,1161.54 233.57,1161.54 235.777,1161.54 237.985,1161.54 240.192,1161.54 242.4,1161.54 244.607,1161.54 246.815,1161.54 249.022,1161.54 251.23,1161.54 253.437,1161.54 255.645,1161.54 257.852,1161.54 260.06,1161.54 262.267,1161.54 264.475,1161.54 266.682,1161.54 268.89,1161.54 271.097,1161.54 273.305,1161.54 275.512,1161.54 277.72,1161.54 279.927,1161.54 282.135,1161.54 284.342,1161.54 286.549,1161.54 288.757,1161.54 290.964,1161.54 293.172,1161.54 295.379,1161.54 297.587,1161.54 299.794,1161.54 302.002,1161.54 304.209,1161.54 306.417,1161.54 308.624,1161.54 310.832,1161.54 313.039,1161.54 315.247,1161.54 317.454,1161.54 319.662,1161.54 321.869,1161.54 324.077,1161.54 326.284,1161.54 328.492,1161.54 330.699,1161.54 332.907,1161.54 335.114,1161.54 337.322,1161.54 339.529,1161.54 341.737,1161.54 343.944,1161.54 346.152,1161.54 348.359,1161.54 350.567,1161.54 352.774,1161.54 354.982,1161.54 357.189,1161.54 359.397,1161.54 361.604,1161.54 363.811,1161.54 366.019,1161.54 368.226,1384.24 370.434,1384.24 372.641,1384.24 374.849,1384.24 377.056,1384.24 379.264,1384.24 381.471,1384.24 383.679,1384.24 385.886,1384.24 388.094,1384.24 390.301,1384.24 392.509,1384.24 394.716,1384.24 396.924,1384.24 399.131,1384.24 401.339,1384.24 403.546,1384.24 405.754,1384.24 407.961,1384.24 410.169,1384.24 412.376,1384.24 414.584,1384.24 416.791,1384.24 418.999,1384.24 421.206,1384.24 423.414,1384.24 425.621,1384.24 427.829,1384.24 430.036,1384.24 432.244,1384.24 434.451,1384.24 436.659,1384.24 438.866,1384.24 441.073,1384.24 443.281,1384.24 445.488,1384.24 447.696,1384.24 449.903,1384.24 452.111,1384.24 454.318,1384.24 456.526,1384.24 458.733,1384.24 460.941,1384.24 463.148,1384.24 465.356,1384.24 467.563,1384.24 469.771,1384.24 471.978,1384.24 474.186,1384.24 476.393,1384.24 478.601,1384.24 480.808,1384.24 483.016,1384.24 485.223,1384.24 487.431,1384.24 489.638,1384.24 491.846,1384.24 494.053,1384.24 496.261,1384.24 498.468,1384.24 500.676,1384.24 502.883,1384.24 505.091,1384.24 507.298,1384.24 509.506,1384.24 511.713,1384.24 513.921,1384.24 516.128,1384.24 518.335,1384.24 520.543,1384.24 522.75,1384.24 524.958,1384.24 527.165,1384.24 529.373,1384.24 531.58,1384.24 533.788,1384.24 535.995,1384.24 538.203,1384.24 540.41,1384.24 542.618,1384.24 544.825,1384.24 547.033,1384.24 549.24,1384.24 551.448,1384.24 553.655,1384.24 555.863,1384.24 558.07,1384.24 560.278,1384.24 562.485,1384.24 564.693,1384.24 566.9,1384.24 569.108,1384.24 571.315,1384.24 573.523,1384.24 575.73,1384.24 577.938,1384.24 580.145,1384.24 582.353,1384.24 584.56,1384.24 586.768,1384.24 588.975,402.638 591.182,402.638 593.39,402.638 595.597,402.638 597.805,402.638 600.012,402.638 602.22,402.638 604.427,402.638 606.635,402.638 608.842,402.638 611.05,402.638 613.257,402.638 615.465,402.638 617.672,402.638 619.88,402.638 622.087,402.638 624.295,402.638 626.502,402.638 628.71,402.638 630.917,402.638 633.125,402.638 635.332,402.638 637.54,402.638 639.747,402.638 641.955,402.638 644.162,402.638 646.37,402.638 648.577,402.638 650.785,402.638 652.992,402.638 655.2,402.638 657.407,402.638 659.615,402.638 661.822,402.638 664.03,402.638 666.237,402.638 668.444,402.638 670.652,402.638 672.859,402.638 675.067,402.638 677.274,402.638 679.482,402.638 681.689,402.638 683.897,402.638 686.104,402.638 688.312,402.638 690.519,402.638 692.727,402.638 694.934,402.638 697.142,402.638 699.349,402.638 701.557,402.638 703.764,402.638 705.972,402.638 708.179,402.638 710.387,402.638 712.594,402.638 714.802,402.638 717.009,402.638 719.217,402.638 721.424,402.638 723.632,402.638 725.839,402.638 728.047,402.638 730.254,402.638 732.462,402.638 734.669,402.638 736.877,402.638 739.084,402.638 741.292,402.638 743.499,402.638 745.706,402.638 747.914,402.638 750.121,402.638 752.329,402.638 754.536,402.638 756.744,402.638 758.951,402.638 761.159,402.638 763.366,402.638 765.574,402.638 767.781,402.638 769.989,402.638 772.196,402.638 774.404,402.638 776.611,402.638 778.819,402.638 781.026,402.638 783.234,402.638 785.441,402.638 787.649,402.638 789.856,402.638 792.064,402.638 794.271,402.638 796.479,402.638 798.686,402.638 800.894,402.638 803.101,402.638 805.309,402.638 807.516,402.638 809.724,390.586 811.931,390.586 814.139,390.586 816.346,390.586 818.553,390.586 820.761,390.586 822.968,390.586 825.176,390.586 827.383,390.586 829.591,390.586 831.798,390.586 834.006,390.586 836.213,390.586 838.421,390.586 840.628,390.586 842.836,390.586 845.043,390.586 847.251,390.586 849.458,390.586 851.666,390.586 853.873,390.586 856.081,390.586 858.288,390.586 860.496,390.586 862.703,390.586 864.911,390.586 867.118,390.586 869.326,390.586 871.533,390.586 873.741,390.586 875.948,390.586 878.156,390.586 880.363,390.586 882.571,390.586 884.778,390.586 886.986,390.586 889.193,390.586 891.401,390.586 893.608,390.586 895.815,390.586 898.023,390.586 900.23,390.586 902.438,390.586 904.645,390.586 906.853,390.586 909.06,390.586 911.268,390.586 913.475,390.586 915.683,390.586 917.89,390.586 920.098,390.586 922.305,390.586 924.513,390.586 926.72,390.586 928.928,390.586 931.135,390.586 933.343,390.586 935.55,390.586 937.758,390.586 939.965,390.586 942.173,390.586 944.38,390.586 946.588,390.586 948.795,390.586 951.003,390.586 953.21,390.586 955.418,390.586 957.625,390.586 959.833,390.586 962.04,390.586 964.248,390.586 966.455,390.586 968.663,390.586 970.87,390.586 973.077,390.586 975.285,390.586 977.492,390.586 979.7,390.586 981.907,390.586 984.115,390.586 986.322,390.586 988.53,390.586 990.737,390.586 992.945,390.586 995.152,390.586 997.36,390.586 999.567,390.586 1001.77,390.586 1003.98,390.586 1006.19,390.586 1008.4,390.586 1010.6,390.586 1012.81,390.586 1015.02,390.586 1017.23,390.586 1019.43,390.586 1021.64,390.586 1023.85,390.586 1026.06,390.586 1028.26,390.586 1030.47,86.1857 1032.68,86.1857 1034.89,86.1857 1037.09,86.1857 1039.3,86.1857 1041.51,86.1857 1043.72,86.1857 1045.92,86.1857 1048.13,86.1857 1050.34,86.1857 1052.55,86.1857 1054.75,86.1857 1056.96,86.1857 1059.17,86.1857 1061.38,86.1857 1063.58,86.1857 1065.79,86.1857 1068,86.1857 1070.21,86.1857 1072.41,86.1857 1074.62,86.1857 1076.83,86.1857 1079.04,86.1857 1081.24,86.1857 1083.45,86.1857 1085.66,86.1857 1087.87,86.1857 1090.07,86.1857 1092.28,86.1857 1094.49,86.1857 1096.7,86.1857 1098.9,86.1857 1101.11,86.1857 1103.32,86.1857 1105.53,86.1857 1107.73,86.1857 1109.94,86.1857 1112.15,86.1857 1114.36,86.1857 1116.56,86.1857 1118.77,86.1857 1120.98,86.1857 1123.19,86.1857 1125.39,86.1857 1127.6,86.1857 1129.81,86.1857 1132.02,86.1857 1134.22,86.1857 1136.43,86.1857 1138.64,86.1857 1140.85,86.1857 1143.05,86.1857 1145.26,86.1857 1147.47,86.1857 1149.68,86.1857 1151.88,86.1857 1154.09,86.1857 1156.3,86.1857 1158.51,86.1857 1160.71,86.1857 1162.92,86.1857 1165.13,86.1857 1167.34,86.1857 1169.54,86.1857 1171.75,86.1857 1173.96,86.1857 1176.17,86.1857 1178.37,86.1857 1180.58,86.1857 1182.79,86.1857 1185,86.1857 1187.2,86.1857 1189.41,86.1857 1191.62,86.1857 1193.83,86.1857 1196.03,86.1857 1198.24,86.1857 1200.45,86.1857 1202.66,86.1857 1204.86,86.1857 1207.07,86.1857 1209.28,86.1857 1211.49,86.1857 1213.69,86.1857 1215.9,86.1857 1218.11,86.1857 1220.32,86.1857 1222.52,86.1857 1224.73,86.1857 1226.94,86.1857 1229.15,86.1857 1231.35,86.1857 1233.56,86.1857 1235.77,86.1857 1237.98,86.1857 1240.18,86.1857 1242.39,86.1857 1244.6,86.1857 1246.81,86.1857 1249.01,86.1857 1251.22,795.766 1253.43,795.766 1255.64,795.766 1257.84,795.766 1260.05,795.766 1262.26,795.766 1264.47,795.766 1266.67,795.766 1268.88,795.766 1271.09,795.766 1273.3,795.766 1275.5,795.766 1277.71,795.766 1279.92,795.766 1282.13,795.766 1284.33,795.766 1286.54,795.766 1288.75,795.766 1290.96,795.766 1293.16,795.766 1295.37,795.766 1297.58,795.766 1299.79,795.766 1301.99,795.766 1304.2,795.766 1306.41,795.766 1308.62,795.766 1310.82,795.766 1313.03,795.766 1315.24,795.766 1317.45,795.766 1319.65,795.766 1321.86,795.766 1324.07,795.766 1326.28,795.766 1328.48,795.766 1330.69,795.766 1332.9,795.766 1335.11,795.766 1337.31,795.766 1339.52,795.766 1341.73,795.766 1343.94,795.766 1346.14,795.766 1348.35,795.766 1350.56,795.766 1352.76,795.766 1354.97,795.766 1357.18,795.766 1359.39,795.766 1361.59,795.766 1363.8,795.766 1366.01,795.766 1368.22,795.766 1370.42,795.766 1372.63,795.766 1374.84,795.766 1377.05,795.766 1379.25,795.766 1381.46,795.766 1383.67,795.766 1385.88,795.766 1388.08,795.766 1390.29,795.766 1392.5,795.766 1394.71,795.766 1396.91,795.766 1399.12,795.766 1401.33,795.766 1403.54,795.766 1405.74,795.766 1407.95,795.766 1410.16,795.766 1412.37,795.766 1414.57,795.766 1416.78,795.766 1418.99,795.766 1421.2,795.766 1423.4,795.766 1425.61,795.766 1427.82,795.766 1430.03,795.766 1432.23,795.766 1434.44,795.766 1436.65,795.766 1438.86,795.766 1441.06,795.766 1443.27,795.766 1445.48,795.766 1447.69,795.766 1449.89,795.766 1452.1,795.766 1454.31,795.766 1456.52,795.766 1458.72,795.766 1460.93,795.766 1463.14,795.766 1465.35,795.766 1467.55,795.766 1469.76,795.766 1471.97,618.306 1474.18,618.306 1476.38,618.306 1478.59,618.306 1480.8,618.306 1483.01,618.306 1485.21,618.306 1487.42,618.306 1489.63,618.306 1491.84,618.306 1494.04,618.306 1496.25,618.306 1498.46,618.306 1500.67,618.306 1502.87,618.306 1505.08,618.306 1507.29,618.306 1509.5,618.306 1511.7,618.306 1513.91,618.306 1516.12,618.306 1518.33,618.306 1520.53,618.306 1522.74,618.306 1524.95,618.306 1527.16,618.306 1529.36,618.306 1531.57,618.306 1533.78,618.306 1535.99,618.306 1538.19,618.306 1540.4,618.306 1542.61,618.306 1544.82,618.306 1547.02,618.306 1549.23,618.306 1551.44,618.306 1553.65,618.306 1555.85,618.306 1558.06,618.306 1560.27,618.306 1562.48,618.306 1564.68,618.306 1566.89,618.306 1569.1,618.306 1571.31,618.306 1573.51,618.306 1575.72,618.306 1577.93,618.306 1580.14,618.306 1582.34,618.306 1584.55,618.306 1586.76,618.306 1588.97,618.306 1591.17,618.306 1593.38,618.306 1595.59,618.306 1597.8,618.306 1600,618.306 1602.21,618.306 1604.42,618.306 1606.63,618.306 1608.83,618.306 1611.04,618.306 1613.25,618.306 1615.46,618.306 1617.66,618.306 1619.87,618.306 1622.08,618.306 1624.29,618.306 1626.49,618.306 1628.7,618.306 1630.91,618.306 1633.12,618.306 1635.32,618.306 1637.53,618.306 1639.74,618.306 1641.95,618.306 1644.15,618.306 1646.36,618.306 1648.57,618.306 1650.78,618.306 1652.98,618.306 1655.19,618.306 1657.4,618.306 1659.61,618.306 1661.81,618.306 1664.02,618.306 1666.23,618.306 1668.44,618.306 1670.64,618.306 1672.85,618.306 1675.06,618.306 1677.27,618.306 1679.47,618.306 1681.68,618.306 1683.89,618.306 1686.1,618.306 1688.3,618.306 1690.51,618.306 1692.72,849.14 1694.93,849.14 1697.13,849.14 1699.34,849.14 1701.55,849.14 1703.76,849.14 1705.96,849.14 1708.17,849.14 1710.38,849.14 1712.59,849.14 1714.79,849.14 1717,849.14 1719.21,849.14 1721.42,849.14 1723.62,849.14 1725.83,849.14 1728.04,849.14 1730.25,849.14 1732.45,849.14 1734.66,849.14 1736.87,849.14 1739.07,849.14 1741.28,849.14 1743.49,849.14 1745.7,849.14 1747.9,849.14 1750.11,849.14 1752.32,849.14 1754.53,849.14 1756.73,849.14 1758.94,849.14 1761.15,849.14 1763.36,849.14 1765.56,849.14 1767.77,849.14 1769.98,849.14 1772.19,849.14 1774.39,849.14 1776.6,849.14 1778.81,849.14 1781.02,849.14 1783.22,849.14 1785.43,849.14 1787.64,849.14 1789.85,849.14 1792.05,849.14 1794.26,849.14 1796.47,849.14 1798.68,849.14 1800.88,849.14 1803.09,849.14 1805.3,849.14 1807.51,849.14 1809.71,849.14 1811.92,849.14 1814.13,849.14 1816.34,849.14 1818.54,849.14 1820.75,849.14 1822.96,849.14 1825.17,849.14 1827.37,849.14 1829.58,849.14 1831.79,849.14 1834,849.14 1836.2,849.14 1838.41,849.14 1840.62,849.14 1842.83,849.14 1845.03,849.14 1847.24,849.14 1849.45,849.14 1851.66,849.14 1853.86,849.14 1856.07,849.14 1858.28,849.14 1860.49,849.14 1862.69,849.14 1864.9,849.14 1867.11,849.14 1869.32,849.14 1871.52,849.14 1873.73,849.14 1875.94,849.14 1878.15,849.14 1880.35,849.14 1882.56,849.14 1884.77,849.14 1886.98,849.14 1889.18,849.14 1891.39,849.14 1893.6,849.14 1895.81,849.14 1898.01,849.14 1900.22,849.14 1902.43,849.14 1904.64,849.14 1906.84,849.14 1909.05,849.14 1911.26,849.14 1913.47,800.303 1915.67,800.303 1917.88,800.303 1920.09,800.303 1922.3,800.303 1924.5,800.303 1926.71,800.303 1928.92,800.303 1931.13,800.303 1933.33,800.303 1935.54,800.303 1937.75,800.303 1939.96,800.303 1942.16,800.303 1944.37,800.303 1946.58,800.303 1948.79,800.303 1950.99,800.303 1953.2,800.303 1955.41,800.303 1957.62,800.303 1959.82,800.303 1962.03,800.303 1964.24,800.303 1966.45,800.303 1968.65,800.303 1970.86,800.303 1973.07,800.303 1975.28,800.303 1977.48,800.303 1979.69,800.303 1981.9,800.303 1984.11,800.303 1986.31,800.303 1988.52,800.303 1990.73,800.303 1992.94,800.303 1995.14,800.303 1997.35,800.303 1999.56,800.303 2001.77,800.303 2003.97,800.303 2006.18,800.303 2008.39,800.303 2010.6,800.303 2012.8,800.303 2015.01,800.303 2017.22,800.303 2019.43,800.303 2021.63,800.303 2023.84,800.303 2026.05,800.303 2028.26,800.303 2030.46,800.303 2032.67,800.303 2034.88,800.303 2037.09,800.303 2039.29,800.303 2041.5,800.303 2043.71,800.303 2045.92,800.303 2048.12,800.303 2050.33,800.303 2052.54,800.303 2054.75,800.303 2056.95,800.303 2059.16,800.303 2061.37,800.303 2063.58,800.303 2065.78,800.303 2067.99,800.303 2070.2,800.303 2072.41,800.303 2074.61,800.303 2076.82,800.303 2079.03,800.303 2081.24,800.303 2083.44,800.303 2085.65,800.303 2087.86,800.303 2090.07,800.303 2092.27,800.303 2094.48,800.303 2096.69,800.303 2098.9,800.303 2101.1,800.303 2103.31,800.303 2105.52,800.303 2107.73,800.303 2109.93,800.303 2112.14,800.303 2114.35,800.303 2116.55,800.303 2118.76,800.303 2120.97,800.303 2123.18,800.303 2125.38,800.303 2127.59,800.303 2129.8,800.303 2132.01,800.303 2134.21,586.059 2136.42,586.059 2138.63,586.059 2140.84,586.059 2143.04,586.059 2145.25,586.059 2147.46,586.059 2149.67,586.059 2151.87,586.059 2154.08,586.059 2156.29,586.059 2158.5,586.059 2160.7,586.059 2162.91,586.059 2165.12,586.059 2167.33,586.059 2169.53,586.059 2171.74,586.059 2173.95,586.059 2176.16,586.059 2178.36,586.059 2180.57,586.059 2182.78,586.059 2184.99,586.059 2187.19,586.059 2189.4,586.059 2191.61,586.059 2193.82,586.059 2196.02,586.059 2198.23,586.059 2200.44,586.059 2202.65,586.059 2204.85,586.059 2207.06,586.059 2209.27,586.059 2211.48,586.059 2213.68,586.059 2215.89,586.059 2218.1,586.059 2220.31,586.059 2222.51,586.059 2224.72,586.059 2226.93,586.059 2229.14,586.059 2231.34,586.059 2233.55,586.059 2235.76,586.059 2237.97,586.059 2240.17,586.059 2242.38,586.059 2244.59,586.059 2246.8,586.059 2249,586.059 2251.21,586.059 2253.42,586.059 2255.63,586.059 2257.83,586.059 2260.04,586.059 2262.25,586.059 2264.46,586.059 2266.66,586.059 2268.87,586.059 2271.08,586.059 2273.29,586.059 2275.49,586.059 2277.7,586.059 2279.91,586.059 2282.12,586.059 2284.32,586.059 2286.53,586.059 2288.74,586.059 2290.95,586.059 2293.15,586.059 2295.36,586.059 2297.57,586.059 2299.78,586.059 2301.98,586.059 2304.19,586.059 2306.4,586.059 2308.61,586.059 2310.81,586.059 2313.02,586.059 2315.23,586.059 2317.44,586.059 2319.64,586.059 2321.85,586.059 2324.06,586.059 2326.27,586.059 2328.47,586.059 2330.68,586.059 2332.89,586.059 2335.1,586.059 2337.3,586.059 2339.51,586.059 2341.72,586.059 2343.93,586.059 2346.13,586.059 2348.34,586.059 2350.55,586.059 2352.76,586.059 "/>
<path clip-path="url(#clip900)" d="M2033.58 248.629 L2279.25 248.629 L2279.25 93.1086 L2033.58 93.1086  Z" fill="#ffffff" fill-rule="evenodd" fill-opacity="1"/>
<polyline clip-path="url(#clip900)" style="stroke:#000000; stroke-linecap:round; stroke-linejoin:round; stroke-width:4; stroke-opacity:1; fill:none" points="2033.58,248.629 2279.25,248.629 2279.25,93.1086 2033.58,93.1086 2033.58,248.629 "/>
<polyline clip-path="url(#clip900)" style="stroke:#009af9; stroke-linecap:round; stroke-linejoin:round; stroke-width:4; stroke-opacity:1; fill:none" points="2058.08,144.949 2205.1,144.949 "/>
<path clip-path="url(#clip900)" d="M2254.26 136.303 L2244.88 148.919 L2254.74 162.229 L2249.72 162.229 L2242.17 152.043 L2234.63 162.229 L2229.6 162.229 L2239.67 148.664 L2230.46 136.303 L2235.48 136.303 L2242.36 145.539 L2249.23 136.303 L2254.26 136.303 Z" fill="#000000" fill-rule="nonzero" fill-opacity="1" /><polyline clip-path="url(#clip900)" style="stroke:#e26f46; stroke-linecap:round; stroke-linejoin:round; stroke-width:4; stroke-opacity:1; fill:none" points="2058.08,196.789 2205.1,196.789 "/>
<path clip-path="url(#clip900)" d="M2246.11 178.05 L2246.11 181.592 L2242.04 181.592 Q2239.74 181.592 2238.84 182.518 Q2237.96 183.444 2237.96 185.851 L2237.96 188.143 L2244.98 188.143 L2244.98 191.453 L2237.96 191.453 L2237.96 214.069 L2233.68 214.069 L2233.68 191.453 L2229.6 191.453 L2229.6 188.143 L2233.68 188.143 L2233.68 186.337 Q2233.68 182.009 2235.69 180.041 Q2237.71 178.05 2242.08 178.05 L2246.11 178.05 Z" fill="#000000" fill-rule="nonzero" fill-opacity="1" /></svg>
