<?xml version="1.0" encoding="utf-8"?>
<svg xmlns="http://www.w3.org/2000/svg" xmlns:xlink="http://www.w3.org/1999/xlink" width="600" height="400" viewBox="0 0 2400 1600">
<defs>
  <clipPath id="clip940">
    <rect x="0" y="0" width="2400" height="1600"/>
  </clipPath>
</defs>
<path clip-path="url(#clip940)" d="M0 1600 L2400 1600 L2400 0 L0 0  Z" fill="#ffffff" fill-rule="evenodd" fill-opacity="1"/>
<defs>
  <clipPath id="clip941">
    <rect x="112" y="47" width="2242" height="1440"/>
  </clipPath>
</defs>
<path clip-path="url(#clip941)" d="M-570.18 2493.51 L-570.18 2209.22 L-243.319 2067.08 L322.821 2149.15 L322.821 2433.44 L-4.04009 2575.58 L-570.18 2493.51  Z" fill="#ffffff" fill-rule="evenodd" fill-opacity="1"/>
<polyline clip-path="url(#clip941)" style="stroke:#000000; stroke-linecap:round; stroke-linejoin:round; stroke-width:2; stroke-opacity:0.1; fill:none" points="730.72,1221.67 1146.18,861.871 1146.18,142.27 "/>
<polyline clip-path="url(#clip941)" style="stroke:#000000; stroke-linecap:round; stroke-linejoin:round; stroke-width:2; stroke-opacity:0.1; fill:none" points="872.255,1262.53 1287.72,902.729 1287.72,183.127 "/>
<polyline clip-path="url(#clip941)" style="stroke:#000000; stroke-linecap:round; stroke-linejoin:round; stroke-width:2; stroke-opacity:0.1; fill:none" points="1013.79,1303.39 1429.25,943.587 1429.25,223.985 "/>
<polyline clip-path="url(#clip941)" style="stroke:#000000; stroke-linecap:round; stroke-linejoin:round; stroke-width:2; stroke-opacity:0.1; fill:none" points="1155.32,1344.25 1570.79,984.444 1570.79,264.842 "/>
<polyline clip-path="url(#clip941)" style="stroke:#000000; stroke-linecap:round; stroke-linejoin:round; stroke-width:2; stroke-opacity:0.1; fill:none" points="1296.86,1385.1 1712.32,1025.3 1712.32,305.7 "/>
<polyline clip-path="url(#clip941)" style="stroke:#000000; stroke-linecap:round; stroke-linejoin:round; stroke-width:2; stroke-opacity:0.1; fill:none" points="1389.73,1405.92 670.127,1198.19 670.127,478.583 "/>
<polyline clip-path="url(#clip941)" style="stroke:#000000; stroke-linecap:round; stroke-linejoin:round; stroke-width:2; stroke-opacity:0.1; fill:none" points="1471.8,1334.84 752.194,1127.11 752.194,407.511 "/>
<polyline clip-path="url(#clip941)" style="stroke:#000000; stroke-linecap:round; stroke-linejoin:round; stroke-width:2; stroke-opacity:0.1; fill:none" points="1553.86,1263.77 834.262,1056.04 834.262,336.438 "/>
<polyline clip-path="url(#clip941)" style="stroke:#000000; stroke-linecap:round; stroke-linejoin:round; stroke-width:2; stroke-opacity:0.1; fill:none" points="1635.93,1192.7 916.329,984.968 916.329,265.366 "/>
<polyline clip-path="url(#clip941)" style="stroke:#000000; stroke-linecap:round; stroke-linejoin:round; stroke-width:2; stroke-opacity:0.1; fill:none" points="1718,1121.63 998.396,913.895 998.396,194.293 "/>
<polyline clip-path="url(#clip941)" style="stroke:#000000; stroke-linecap:round; stroke-linejoin:round; stroke-width:2; stroke-opacity:0.1; fill:none" points="664.934,1165.31 1080.4,805.506 1800,1013.24 "/>
<polyline clip-path="url(#clip941)" style="stroke:#000000; stroke-linecap:round; stroke-linejoin:round; stroke-width:2; stroke-opacity:0.1; fill:none" points="664.934,1049.44 1080.4,689.643 1800,897.375 "/>
<polyline clip-path="url(#clip941)" style="stroke:#000000; stroke-linecap:round; stroke-linejoin:round; stroke-width:2; stroke-opacity:0.1; fill:none" points="664.934,933.582 1080.4,573.781 1800,781.512 "/>
<polyline clip-path="url(#clip941)" style="stroke:#000000; stroke-linecap:round; stroke-linejoin:round; stroke-width:2; stroke-opacity:0.1; fill:none" points="664.934,817.72 1080.4,457.919 1800,665.65 "/>
<polyline clip-path="url(#clip941)" style="stroke:#000000; stroke-linecap:round; stroke-linejoin:round; stroke-width:2; stroke-opacity:0.1; fill:none" points="664.934,701.858 1080.4,342.057 1800,549.788 "/>
<polyline clip-path="url(#clip941)" style="stroke:#000000; stroke-linecap:round; stroke-linejoin:round; stroke-width:2; stroke-opacity:0.1; fill:none" points="664.934,585.995 1080.4,226.194 1800,433.926 "/>
<polyline clip-path="url(#clip940)" style="stroke:#000000; stroke-linecap:round; stroke-linejoin:round; stroke-width:4; stroke-opacity:1; fill:none" points="664.934,1202.68 1384.54,1410.41 "/>
<polyline clip-path="url(#clip940)" style="stroke:#000000; stroke-linecap:round; stroke-linejoin:round; stroke-width:4; stroke-opacity:1; fill:none" points="730.72,1221.67 735.705,1217.35 "/>
<polyline clip-path="url(#clip940)" style="stroke:#000000; stroke-linecap:round; stroke-linejoin:round; stroke-width:4; stroke-opacity:1; fill:none" points="872.255,1262.53 877.24,1258.21 "/>
<polyline clip-path="url(#clip940)" style="stroke:#000000; stroke-linecap:round; stroke-linejoin:round; stroke-width:4; stroke-opacity:1; fill:none" points="1013.79,1303.39 1018.78,1299.07 "/>
<polyline clip-path="url(#clip940)" style="stroke:#000000; stroke-linecap:round; stroke-linejoin:round; stroke-width:4; stroke-opacity:1; fill:none" points="1155.32,1344.25 1160.31,1339.93 "/>
<polyline clip-path="url(#clip940)" style="stroke:#000000; stroke-linecap:round; stroke-linejoin:round; stroke-width:4; stroke-opacity:1; fill:none" points="1296.86,1385.1 1301.84,1380.79 "/>
<path clip-path="url(#clip940)" d="M670.408 1235.97 Q666.797 1235.97 664.968 1239.54 Q663.163 1243.08 663.163 1250.21 Q663.163 1257.32 664.968 1260.88 Q666.797 1264.42 670.408 1264.42 Q674.042 1264.42 675.848 1260.88 Q677.676 1257.32 677.676 1250.21 Q677.676 1243.08 675.848 1239.54 Q674.042 1235.97 670.408 1235.97 M670.408 1232.27 Q676.218 1232.27 679.274 1236.88 Q682.352 1241.46 682.352 1250.21 Q682.352 1258.94 679.274 1263.54 Q676.218 1268.13 670.408 1268.13 Q664.598 1268.13 661.519 1263.54 Q658.463 1258.94 658.463 1250.21 Q658.463 1241.46 661.519 1236.88 Q664.598 1232.27 670.408 1232.27 Z" fill="#000000" fill-rule="nonzero" fill-opacity="1" /><path clip-path="url(#clip940)" d="M690.57 1261.57 L695.454 1261.57 L695.454 1267.45 L690.57 1267.45 L690.57 1261.57 Z" fill="#000000" fill-rule="nonzero" fill-opacity="1" /><path clip-path="url(#clip940)" d="M705.685 1232.89 L724.042 1232.89 L724.042 1236.83 L709.968 1236.83 L709.968 1245.3 Q710.986 1244.95 712.005 1244.79 Q713.023 1244.61 714.042 1244.61 Q719.829 1244.61 723.208 1247.78 Q726.588 1250.95 726.588 1256.37 Q726.588 1261.95 723.116 1265.05 Q719.644 1268.13 713.324 1268.13 Q711.148 1268.13 708.88 1267.76 Q706.634 1267.39 704.227 1266.64 L704.227 1261.95 Q706.31 1263.08 708.533 1263.64 Q710.755 1264.19 713.232 1264.19 Q717.236 1264.19 719.574 1262.08 Q721.912 1259.98 721.912 1256.37 Q721.912 1252.76 719.574 1250.65 Q717.236 1248.54 713.232 1248.54 Q711.357 1248.54 709.482 1248.96 Q707.63 1249.38 705.685 1250.26 L705.685 1232.89 Z" fill="#000000" fill-rule="nonzero" fill-opacity="1" /><path clip-path="url(#clip940)" d="M801.758 1304.38 L809.396 1304.38 L809.396 1278.01 L801.086 1279.68 L801.086 1275.42 L809.35 1273.75 L814.026 1273.75 L814.026 1304.38 L821.665 1304.38 L821.665 1308.31 L801.758 1308.31 L801.758 1304.38 Z" fill="#000000" fill-rule="nonzero" fill-opacity="1" /><path clip-path="url(#clip940)" d="M831.109 1302.43 L835.994 1302.43 L835.994 1308.31 L831.109 1308.31 L831.109 1302.43 Z" fill="#000000" fill-rule="nonzero" fill-opacity="1" /><path clip-path="url(#clip940)" d="M856.179 1276.83 Q852.568 1276.83 850.739 1280.4 Q848.933 1283.94 848.933 1291.07 Q848.933 1298.17 850.739 1301.74 Q852.568 1305.28 856.179 1305.28 Q859.813 1305.28 861.618 1301.74 Q863.447 1298.17 863.447 1291.07 Q863.447 1283.94 861.618 1280.4 Q859.813 1276.83 856.179 1276.83 M856.179 1273.13 Q861.989 1273.13 865.044 1277.73 Q868.123 1282.32 868.123 1291.07 Q868.123 1299.79 865.044 1304.4 Q861.989 1308.98 856.179 1308.98 Q850.368 1308.98 847.29 1304.4 Q844.234 1299.79 844.234 1291.07 Q844.234 1282.32 847.29 1277.73 Q850.368 1273.13 856.179 1273.13 Z" fill="#000000" fill-rule="nonzero" fill-opacity="1" /><path clip-path="url(#clip940)" d="M944.288 1345.23 L951.927 1345.23 L951.927 1318.87 L943.617 1320.54 L943.617 1316.28 L951.88 1314.61 L956.556 1314.61 L956.556 1345.23 L964.195 1345.23 L964.195 1349.17 L944.288 1349.17 L944.288 1345.23 Z" fill="#000000" fill-rule="nonzero" fill-opacity="1" /><path clip-path="url(#clip940)" d="M973.64 1343.29 L978.524 1343.29 L978.524 1349.17 L973.64 1349.17 L973.64 1343.29 Z" fill="#000000" fill-rule="nonzero" fill-opacity="1" /><path clip-path="url(#clip940)" d="M988.755 1314.61 L1007.11 1314.61 L1007.11 1318.54 L993.038 1318.54 L993.038 1327.02 Q994.056 1326.67 995.075 1326.51 Q996.093 1326.32 997.112 1326.32 Q1002.9 1326.32 1006.28 1329.49 Q1009.66 1332.67 1009.66 1338.08 Q1009.66 1343.66 1006.19 1346.76 Q1002.71 1349.84 996.394 1349.84 Q994.218 1349.84 991.95 1349.47 Q989.704 1349.1 987.297 1348.36 L987.297 1343.66 Q989.38 1344.79 991.602 1345.35 Q993.825 1345.91 996.301 1345.91 Q1000.31 1345.91 1002.64 1343.8 Q1004.98 1341.69 1004.98 1338.08 Q1004.98 1334.47 1002.64 1332.36 Q1000.31 1330.26 996.301 1330.26 Q994.426 1330.26 992.551 1330.67 Q990.7 1331.09 988.755 1331.97 L988.755 1314.61 Z" fill="#000000" fill-rule="nonzero" fill-opacity="1" /><path clip-path="url(#clip940)" d="M1088.04 1386.09 L1104.36 1386.09 L1104.36 1390.03 L1082.42 1390.03 L1082.42 1386.09 Q1085.08 1383.34 1089.67 1378.71 Q1094.27 1374.06 1095.45 1372.71 Q1097.7 1370.19 1098.58 1368.45 Q1099.48 1366.69 1099.48 1365 Q1099.48 1362.25 1097.54 1360.51 Q1095.61 1358.78 1092.51 1358.78 Q1090.31 1358.78 1087.86 1359.54 Q1085.43 1360.31 1082.65 1361.86 L1082.65 1357.13 Q1085.48 1356 1087.93 1355.42 Q1090.38 1354.84 1092.42 1354.84 Q1097.79 1354.84 1100.98 1357.53 Q1104.18 1360.21 1104.18 1364.7 Q1104.18 1366.83 1103.37 1368.75 Q1102.58 1370.65 1100.48 1373.24 Q1099.9 1373.92 1096.79 1377.13 Q1093.69 1380.33 1088.04 1386.09 Z" fill="#000000" fill-rule="nonzero" fill-opacity="1" /><path clip-path="url(#clip940)" d="M1114.18 1384.15 L1119.06 1384.15 L1119.06 1390.03 L1114.18 1390.03 L1114.18 1384.15 Z" fill="#000000" fill-rule="nonzero" fill-opacity="1" /><path clip-path="url(#clip940)" d="M1139.25 1358.55 Q1135.64 1358.55 1133.81 1362.11 Q1132 1365.65 1132 1372.78 Q1132 1379.89 1133.81 1383.45 Q1135.64 1386.99 1139.25 1386.99 Q1142.88 1386.99 1144.69 1383.45 Q1146.52 1379.89 1146.52 1372.78 Q1146.52 1365.65 1144.69 1362.11 Q1142.88 1358.55 1139.25 1358.55 M1139.25 1354.84 Q1145.06 1354.84 1148.11 1359.45 Q1151.19 1364.03 1151.19 1372.78 Q1151.19 1381.51 1148.11 1386.12 Q1145.06 1390.7 1139.25 1390.7 Q1133.44 1390.7 1130.36 1386.12 Q1127.3 1381.51 1127.3 1372.78 Q1127.3 1364.03 1130.36 1359.45 Q1133.44 1354.84 1139.25 1354.84 Z" fill="#000000" fill-rule="nonzero" fill-opacity="1" /><path clip-path="url(#clip940)" d="M1230.58 1426.95 L1246.89 1426.95 L1246.89 1430.88 L1224.95 1430.88 L1224.95 1426.95 Q1227.61 1424.2 1232.2 1419.57 Q1236.8 1414.91 1237.98 1413.57 Q1240.23 1411.05 1241.11 1409.31 Q1242.01 1407.55 1242.01 1405.86 Q1242.01 1403.11 1240.07 1401.37 Q1238.14 1399.64 1235.04 1399.64 Q1232.84 1399.64 1230.39 1400.4 Q1227.96 1401.16 1225.18 1402.71 L1225.18 1397.99 Q1228.01 1396.86 1230.46 1396.28 Q1232.91 1395.7 1234.95 1395.7 Q1240.32 1395.7 1243.51 1398.39 Q1246.71 1401.07 1246.71 1405.56 Q1246.71 1407.69 1245.9 1409.61 Q1245.11 1411.51 1243.01 1414.1 Q1242.43 1414.77 1239.33 1417.99 Q1236.22 1421.19 1230.58 1426.95 Z" fill="#000000" fill-rule="nonzero" fill-opacity="1" /><path clip-path="url(#clip940)" d="M1256.71 1425.01 L1261.59 1425.01 L1261.59 1430.88 L1256.71 1430.88 L1256.71 1425.01 Z" fill="#000000" fill-rule="nonzero" fill-opacity="1" /><path clip-path="url(#clip940)" d="M1271.82 1396.32 L1290.18 1396.32 L1290.18 1400.26 L1276.11 1400.26 L1276.11 1408.73 Q1277.13 1408.39 1278.14 1408.22 Q1279.16 1408.04 1280.18 1408.04 Q1285.97 1408.04 1289.35 1411.21 Q1292.73 1414.38 1292.73 1419.8 Q1292.73 1425.38 1289.26 1428.48 Q1285.78 1431.56 1279.46 1431.56 Q1277.29 1431.56 1275.02 1431.19 Q1272.77 1430.82 1270.37 1430.07 L1270.37 1425.38 Q1272.45 1426.51 1274.67 1427.07 Q1276.89 1427.62 1279.37 1427.62 Q1283.38 1427.62 1285.71 1425.51 Q1288.05 1423.41 1288.05 1419.8 Q1288.05 1416.19 1285.71 1414.08 Q1283.38 1411.97 1279.37 1411.97 Q1277.5 1411.97 1275.62 1412.39 Q1273.77 1412.81 1271.82 1413.69 L1271.82 1396.32 Z" fill="#000000" fill-rule="nonzero" fill-opacity="1" /><polyline clip-path="url(#clip940)" style="stroke:#000000; stroke-linecap:round; stroke-linejoin:round; stroke-width:4; stroke-opacity:1; fill:none" points="1384.54,1410.41 1800,1050.61 "/>
<polyline clip-path="url(#clip940)" style="stroke:#000000; stroke-linecap:round; stroke-linejoin:round; stroke-width:4; stroke-opacity:1; fill:none" points="1389.73,1405.92 1381.09,1403.42 "/>
<polyline clip-path="url(#clip940)" style="stroke:#000000; stroke-linecap:round; stroke-linejoin:round; stroke-width:4; stroke-opacity:1; fill:none" points="1471.8,1334.84 1463.16,1332.35 "/>
<polyline clip-path="url(#clip940)" style="stroke:#000000; stroke-linecap:round; stroke-linejoin:round; stroke-width:4; stroke-opacity:1; fill:none" points="1553.86,1263.77 1545.23,1261.28 "/>
<polyline clip-path="url(#clip940)" style="stroke:#000000; stroke-linecap:round; stroke-linejoin:round; stroke-width:4; stroke-opacity:1; fill:none" points="1635.93,1192.7 1627.3,1190.21 "/>
<polyline clip-path="url(#clip940)" style="stroke:#000000; stroke-linecap:round; stroke-linejoin:round; stroke-width:4; stroke-opacity:1; fill:none" points="1718,1121.63 1709.36,1119.13 "/>
<path clip-path="url(#clip940)" d="M1416.84 1430.97 Q1420.2 1431.69 1422.07 1433.96 Q1423.97 1436.23 1423.97 1439.56 Q1423.97 1444.68 1420.45 1447.48 Q1416.93 1450.28 1410.45 1450.28 Q1408.27 1450.28 1405.96 1449.84 Q1403.67 1449.42 1401.21 1448.57 L1401.21 1444.05 Q1403.16 1445.19 1405.47 1445.76 Q1407.79 1446.34 1410.31 1446.34 Q1414.71 1446.34 1417 1444.61 Q1419.32 1442.87 1419.32 1439.56 Q1419.32 1436.51 1417.16 1434.79 Q1415.03 1433.06 1411.21 1433.06 L1407.19 1433.06 L1407.19 1429.21 L1411.4 1429.21 Q1414.85 1429.21 1416.68 1427.85 Q1418.51 1426.46 1418.51 1423.87 Q1418.51 1421.2 1416.61 1419.79 Q1414.73 1418.36 1411.21 1418.36 Q1409.29 1418.36 1407.09 1418.77 Q1404.89 1419.19 1402.26 1420.07 L1402.26 1415.9 Q1404.92 1415.16 1407.23 1414.79 Q1409.57 1414.42 1411.63 1414.42 Q1416.95 1414.42 1420.06 1416.85 Q1423.16 1419.26 1423.16 1423.38 Q1423.16 1426.25 1421.52 1428.24 Q1419.87 1430.21 1416.84 1430.97 Z" fill="#000000" fill-rule="nonzero" fill-opacity="1" /><path clip-path="url(#clip940)" d="M1498.88 1348.05 L1487.08 1366.5 L1498.88 1366.5 L1498.88 1348.05 M1497.66 1343.97 L1503.54 1343.97 L1503.54 1366.5 L1508.47 1366.5 L1508.47 1370.39 L1503.54 1370.39 L1503.54 1378.53 L1498.88 1378.53 L1498.88 1370.39 L1483.28 1370.39 L1483.28 1365.87 L1497.66 1343.97 Z" fill="#000000" fill-rule="nonzero" fill-opacity="1" /><path clip-path="url(#clip940)" d="M1566.81 1272.9 L1585.16 1272.9 L1585.16 1276.84 L1571.09 1276.84 L1571.09 1285.31 Q1572.11 1284.96 1573.13 1284.8 Q1574.15 1284.61 1575.16 1284.61 Q1580.95 1284.61 1584.33 1287.79 Q1587.71 1290.96 1587.71 1296.37 Q1587.71 1301.95 1584.24 1305.05 Q1580.77 1308.13 1574.45 1308.13 Q1572.27 1308.13 1570 1307.76 Q1567.76 1307.39 1565.35 1306.65 L1565.35 1301.95 Q1567.43 1303.09 1569.65 1303.64 Q1571.88 1304.2 1574.35 1304.2 Q1578.36 1304.2 1580.7 1302.09 Q1583.03 1299.99 1583.03 1296.37 Q1583.03 1292.76 1580.7 1290.66 Q1578.36 1288.55 1574.35 1288.55 Q1572.48 1288.55 1570.6 1288.97 Q1568.75 1289.38 1566.81 1290.26 L1566.81 1272.9 Z" fill="#000000" fill-rule="nonzero" fill-opacity="1" /><path clip-path="url(#clip940)" d="M1659.75 1217.25 Q1656.61 1217.25 1654.75 1219.4 Q1652.93 1221.55 1652.93 1225.3 Q1652.93 1229.03 1654.75 1231.2 Q1656.61 1233.36 1659.75 1233.36 Q1662.9 1233.36 1664.73 1231.2 Q1666.58 1229.03 1666.58 1225.3 Q1666.58 1221.55 1664.73 1219.4 Q1662.9 1217.25 1659.75 1217.25 M1669.04 1202.59 L1669.04 1206.85 Q1667.28 1206.02 1665.47 1205.58 Q1663.69 1205.14 1661.93 1205.14 Q1657.3 1205.14 1654.85 1208.26 Q1652.42 1211.39 1652.07 1217.71 Q1653.43 1215.7 1655.5 1214.63 Q1657.56 1213.54 1660.03 1213.54 Q1665.24 1213.54 1668.25 1216.71 Q1671.28 1219.86 1671.28 1225.3 Q1671.28 1230.63 1668.13 1233.84 Q1664.99 1237.06 1659.75 1237.06 Q1653.76 1237.06 1650.59 1232.48 Q1647.42 1227.87 1647.42 1219.14 Q1647.42 1210.95 1651.31 1206.09 Q1655.19 1201.2 1661.75 1201.2 Q1663.5 1201.2 1665.29 1201.55 Q1667.09 1201.9 1669.04 1202.59 Z" fill="#000000" fill-rule="nonzero" fill-opacity="1" /><path clip-path="url(#clip940)" d="M1729.48 1130.76 L1751.71 1130.76 L1751.71 1132.75 L1739.16 1165.32 L1734.28 1165.32 L1746.08 1134.69 L1729.48 1134.69 L1729.48 1130.76 Z" fill="#000000" fill-rule="nonzero" fill-opacity="1" /><polyline clip-path="url(#clip940)" style="stroke:#000000; stroke-linecap:round; stroke-linejoin:round; stroke-width:4; stroke-opacity:1; fill:none" points="664.934,1202.68 664.934,483.08 "/>
<polyline clip-path="url(#clip940)" style="stroke:#000000; stroke-linecap:round; stroke-linejoin:round; stroke-width:4; stroke-opacity:1; fill:none" points="664.934,1165.31 669.92,1160.99 "/>
<polyline clip-path="url(#clip940)" style="stroke:#000000; stroke-linecap:round; stroke-linejoin:round; stroke-width:4; stroke-opacity:1; fill:none" points="664.934,1049.44 669.92,1045.13 "/>
<polyline clip-path="url(#clip940)" style="stroke:#000000; stroke-linecap:round; stroke-linejoin:round; stroke-width:4; stroke-opacity:1; fill:none" points="664.934,933.582 669.92,929.264 "/>
<polyline clip-path="url(#clip940)" style="stroke:#000000; stroke-linecap:round; stroke-linejoin:round; stroke-width:4; stroke-opacity:1; fill:none" points="664.934,817.72 669.92,813.402 "/>
<polyline clip-path="url(#clip940)" style="stroke:#000000; stroke-linecap:round; stroke-linejoin:round; stroke-width:4; stroke-opacity:1; fill:none" points="664.934,701.858 669.92,697.54 "/>
<polyline clip-path="url(#clip940)" style="stroke:#000000; stroke-linecap:round; stroke-linejoin:round; stroke-width:4; stroke-opacity:1; fill:none" points="664.934,585.995 669.92,581.678 "/>
<path clip-path="url(#clip940)" d="M629.005 1163.95 Q632.361 1164.67 634.236 1166.94 Q636.134 1169.21 636.134 1172.54 Q636.134 1177.66 632.616 1180.46 Q629.097 1183.26 622.616 1183.26 Q620.44 1183.26 618.125 1182.82 Q615.834 1182.4 613.38 1181.54 L613.38 1177.03 Q615.324 1178.17 617.639 1178.74 Q619.954 1179.32 622.477 1179.32 Q626.875 1179.32 629.167 1177.59 Q631.482 1175.85 631.482 1172.54 Q631.482 1169.48 629.329 1167.77 Q627.199 1166.04 623.38 1166.04 L619.352 1166.04 L619.352 1162.19 L623.565 1162.19 Q627.014 1162.19 628.843 1160.83 Q630.671 1159.44 630.671 1156.85 Q630.671 1154.18 628.773 1152.77 Q626.898 1151.34 623.38 1151.34 Q621.459 1151.34 619.26 1151.75 Q617.06 1152.17 614.422 1153.05 L614.422 1148.88 Q617.084 1148.14 619.398 1147.77 Q621.736 1147.4 623.797 1147.4 Q629.121 1147.4 632.222 1149.83 Q635.324 1152.24 635.324 1156.36 Q635.324 1159.23 633.681 1161.22 Q632.037 1163.19 629.005 1163.95 Z" fill="#000000" fill-rule="nonzero" fill-opacity="1" /><path clip-path="url(#clip940)" d="M626.551 1036.24 L614.746 1054.69 L626.551 1054.69 L626.551 1036.24 M625.324 1032.16 L631.204 1032.16 L631.204 1054.69 L636.134 1054.69 L636.134 1058.58 L631.204 1058.58 L631.204 1066.72 L626.551 1066.72 L626.551 1058.58 L610.949 1058.58 L610.949 1054.06 L625.324 1032.16 Z" fill="#000000" fill-rule="nonzero" fill-opacity="1" /><path clip-path="url(#clip940)" d="M615.232 916.302 L633.588 916.302 L633.588 920.237 L619.514 920.237 L619.514 928.709 Q620.533 928.362 621.551 928.2 Q622.57 928.015 623.588 928.015 Q629.375 928.015 632.755 931.186 Q636.134 934.358 636.134 939.774 Q636.134 945.353 632.662 948.455 Q629.19 951.533 622.871 951.533 Q620.695 951.533 618.426 951.163 Q616.181 950.793 613.773 950.052 L613.773 945.353 Q615.857 946.487 618.079 947.043 Q620.301 947.598 622.778 947.598 Q626.783 947.598 629.121 945.492 Q631.459 943.385 631.459 939.774 Q631.459 936.163 629.121 934.057 Q626.783 931.95 622.778 931.95 Q620.903 931.95 619.028 932.367 Q617.176 932.783 615.232 933.663 L615.232 916.302 Z" fill="#000000" fill-rule="nonzero" fill-opacity="1" /><path clip-path="url(#clip940)" d="M624.607 815.856 Q621.459 815.856 619.607 818.009 Q617.778 820.162 617.778 823.912 Q617.778 827.639 619.607 829.815 Q621.459 831.967 624.607 831.967 Q627.755 831.967 629.584 829.815 Q631.435 827.639 631.435 823.912 Q631.435 820.162 629.584 818.009 Q627.755 815.856 624.607 815.856 M633.889 801.204 L633.889 805.463 Q632.13 804.63 630.324 804.19 Q628.542 803.75 626.783 803.75 Q622.153 803.75 619.699 806.875 Q617.269 810 616.922 816.319 Q618.287 814.305 620.347 813.241 Q622.408 812.153 624.884 812.153 Q630.093 812.153 633.102 815.324 Q636.134 818.472 636.134 823.912 Q636.134 829.236 632.986 832.454 Q629.838 835.671 624.607 835.671 Q618.611 835.671 615.44 831.088 Q612.269 826.481 612.269 817.755 Q612.269 809.56 616.158 804.699 Q620.047 799.815 626.597 799.815 Q628.357 799.815 630.139 800.162 Q631.945 800.509 633.889 801.204 Z" fill="#000000" fill-rule="nonzero" fill-opacity="1" /><path clip-path="url(#clip940)" d="M613.912 684.578 L636.134 684.578 L636.134 686.568 L623.588 719.138 L618.704 719.138 L630.509 688.513 L613.912 688.513 L613.912 684.578 Z" fill="#000000" fill-rule="nonzero" fill-opacity="1" /><path clip-path="url(#clip940)" d="M624.283 586.863 Q620.949 586.863 619.028 588.646 Q617.13 590.428 617.13 593.553 Q617.13 596.678 619.028 598.461 Q620.949 600.243 624.283 600.243 Q627.616 600.243 629.537 598.461 Q631.459 596.655 631.459 593.553 Q631.459 590.428 629.537 588.646 Q627.639 586.863 624.283 586.863 M619.607 584.873 Q616.597 584.132 614.908 582.072 Q613.241 580.012 613.241 577.049 Q613.241 572.905 616.181 570.498 Q619.144 568.09 624.283 568.09 Q629.445 568.09 632.384 570.498 Q635.324 572.905 635.324 577.049 Q635.324 580.012 633.634 582.072 Q631.968 584.132 628.982 584.873 Q632.361 585.66 634.236 587.951 Q636.134 590.243 636.134 593.553 Q636.134 598.576 633.056 601.261 Q630 603.947 624.283 603.947 Q618.565 603.947 615.486 601.261 Q612.431 598.576 612.431 593.553 Q612.431 590.243 614.329 587.951 Q616.227 585.66 619.607 584.873 M617.894 577.488 Q617.894 580.174 619.56 581.678 Q621.25 583.183 624.283 583.183 Q627.292 583.183 628.982 581.678 Q630.695 580.174 630.695 577.488 Q630.695 574.803 628.982 573.299 Q627.292 571.794 624.283 571.794 Q621.25 571.794 619.56 573.299 Q617.894 574.803 617.894 577.488 Z" fill="#000000" fill-rule="nonzero" fill-opacity="1" /><polyline clip-path="url(#clip941)" style="stroke:#009af9; stroke-linecap:round; stroke-linejoin:round; stroke-width:4; stroke-opacity:1; fill:none" points="1041.58,846.789 1036.86,852.285 1034.62,854.793 1037.14,851.421 1037.03,851.263 1021.88,869.539 1022.13,868.697 1026.2,863.15 1030.72,857.062 1033.1,853.627 1048.5,834.239 1055.6,825.414 1051.24,830.872 1026.89,860.451 1019.58,868.393 1012.01,876.512 1028.24,855.569 1029.76,852.881 1044.19,834.81 1054.26,822.706 1057.73,818.95 1069.98,805.524 1087.36,786.731 1096.77,779.687 1099.1,779.825 1102.98,778.587 1095.08,789.297 1125.99,755.127 1115.81,772.297 1119.36,772.574 1154.29,733.135 1172.15,721.221 1197.07,699.42 1223.45,682.324 1207.43,709.749 1209.77,715.389 1265.5,657.658 1341.91,598.922 1421.38,530.388 1381.75,576.99 1326.23,628.894 1270.3,673.624 1283.19,656.264 1303.34,640.533 1309.21,644.559 1350.93,601.908 1316.14,661.405 1255.14,699.566 1285.31,663.055 1286.22,653.736 1310.97,624.22 1389.58,552.333 1393.01,581.028 1336.71,640.996 1333.54,639.752 1238.81,707.953 1138.02,786.445 1142.47,767.398 1189.84,720.948 1184.22,730.958 1187.48,716.835 1166.54,745.076 1207.11,700.945 1233.12,689.36 1226.38,692.668 1190.78,731.18 1169.31,747.614 1193.88,720.515 1143.03,766.358 1193.69,711.203 1159.94,748.904 1144.07,761.566 1107.2,799.558 1160.09,736.131 1137.53,763.638 1134.48,764.901 1151.55,741.475 1176.92,718.887 1179.05,719.612 1252.58,643.619 1314.83,609.53 1415.7,533.861 1336.81,624.699 1334.43,617.289 1303.9,655.235 1215.79,722.852 1182.95,739.837 1118.98,795.937 1028.88,871.036 963.627,927.022 995.793,877.274 975.016,900.611 994.716,879.792 976.52,898.972 1058.74,815.435 1056.23,819.239 1162.23,724.309 1164.32,732.746 1178.9,725.64 1186.73,725.686 1114.99,785.076 1064.47,826.253 1146.6,759.944 1230.52,697.296 1191.43,727.122 1195.92,736.126 1336.1,637.387 1388.76,600.783 1287.24,663.408 1234.85,709.892 1149.44,773.919 1131.91,777.132 1148.71,754.215 1149.5,746.077 1193.45,711.062 1166.38,735.4 1097.02,802.732 1045.01,854.611 1015.13,872.477 997.73,885.804 1005.29,876.086 949.624,928.546 965.112,904.776 973.694,894.039 1039.7,834.168 1089.33,788.776 1145,757.897 1210.08,694.243 1140.18,769.903 1175.09,723.5 1211.09,696.259 1275.22,632.623 1236.59,675.813 1274.29,659.086 1322.51,621.031 1445.41,511.554 1497.07,502.158 1443.01,550.106 1348.12,614.363 1352.57,595.333 1283.97,651.538 1286.4,651.873 1077.99,836.983 1050.19,846.221 1101.95,783.1 1204.15,675.832 1187.33,723.3 1218.81,698.186 1188.21,728.229 1234.29,675.34 1331.28,601.814 1378.54,562.989 1427.07,526.251 1498.86,470.665 1611.93,388.014 1555.69,465.466 1524.66,499.292 1555.65,471.449 1471.51,545.725 1504.38,506.149 1529.85,492.521 1568.35,472.508 1505.29,525.472 1463.28,556.564 1444.48,559.563 1460.65,537.588 1419.47,575.535 1412.61,569.089 1372.28,602.861 1301.75,655.25 1471.03,496.958 1416.86,566.858 1422.07,570.585 1444.69,535.744 1339.43,641.684 1459.5,510.377 1319.03,638.483 1235.69,706.635 1183.31,738.077 1218.34,690.196 1301.31,610.545 1271.48,656.843 1282.09,651.328 1297.66,640.198 1204.46,714.13 1261.67,667.95 1228.91,702.588 1170.63,744.321 1095.56,809.42 1080.94,817.17 1146.74,748.356 1216.75,691.932 1233.74,675.998 1227.46,691.296 1244.05,676.589 1219.07,699.751 1259.34,682.895 1234.59,698.675 1308.99,622.574 1359.77,588.378 1409.53,542.175 1482.45,510.039 1480.01,522.464 1408.09,590.663 1399.85,592.445 1339.29,640.046 1322.7,642.339 1277.54,676.784 1199.77,743.244 1160.91,760.911 1199.54,714.684 1131.71,783.994 1153.33,753.367 1221.66,676.653 1155.91,740.176 1223.67,668.587 1271.57,638.562 1189.88,730.662 1293.99,638.712 1237.01,690.401 1182.52,729.451 1174.98,729.141 1165.65,743.902 1178.7,719.423 1131.27,768.695 1140.62,761.19 1051.11,840.976 1063.34,823.247 1056.51,821.737 1092.87,777.829 1196.46,704.814 1247.86,659.036 1197.17,714.178 1163.47,741.095 1241,673.808 1315.2,609.829 1296.32,629.005 1269.08,663.689 1263.37,666.184 1369.66,579.405 1357.93,596.597 1294.14,664.085 1263.97,669.566 1305.96,638.22 1307.43,622.727 1322.84,623.397 1394.87,584.546 1382.2,590.75 1298.54,666.841 1330.91,614.619 1157.87,773.703 1160.88,743.546 1176.6,718.378 1234.14,668.044 1212.61,697.711 1192.85,716.735 1361.38,562.1 1368.02,575.129 1361.42,592.568 1334.67,623.772 1260.24,681.806 1178.41,755.049 1257.16,661.695 1247,685.493 1330.3,605.37 1250.75,674.183 1127.59,767.818 1148.95,749.465 1103.3,792.258 1123.96,765.379 1241.82,651.206 1310.95,610.011 1237.7,689.306 1237.32,689.094 1286.78,643.602 1221.2,709.479 1272.84,659.535 1234.58,699.609 1235.4,676.398 1182.6,730.414 1143.14,763.473 1152.49,754.169 1219.47,683.644 1242,674.089 1278.4,646.644 1254.32,680.802 1204.58,726.274 1167.45,749.166 1160.12,762.325 1142.36,776.008 1126.42,779.861 1095.32,806.659 1165.15,735.109 1203.44,695.096 1236.01,668.131 1223.29,696.395 1214.36,701.608 1154.12,761.051 1147.26,758.472 1238.62,671.899 1289.08,634.083 1352.58,593.765 1187.45,741.817 1213.58,692.898 1194.73,700.664 1181.84,721.104 1053.03,833.804 1045.19,837.124 1065.74,816.865 1161.02,743.932 1110.71,785.676 1158.34,747.13 1076.16,825.544 983.244,910.911 970.067,910.469 988.947,882.656 994.918,876.552 1063.71,812.596 1109.74,781.776 1110.12,782.733 1046,845.26 1112.57,778.246 976.667,904.515 981.171,899.573 957.162,913.67 1047,822.547 1020.87,850.995 974.648,891.644 1021.02,854.515 1029.82,849.119 1088.11,796.573 1175.07,714.28 1258.48,652.634 1327.91,610.972 1315.9,637.061 1337.08,633.143 1201.75,745.901 1190.78,734.795 1236.34,684.159 1212.63,703.795 1134.45,774.633 1162.32,737.364 1110.03,781.576 1193.09,705.653 1289.57,637.272 1229.67,704.213 1263.49,653.209 1228.57,695.895 1242.03,696.694 1246.27,691.441 1388.49,599.984 1303.33,663.758 1336.86,627.241 1289.29,645.694 1206.98,724.472 1147.36,764.616 1226.55,681 1218.27,696.03 1244.16,675.57 1292.22,631.367 1390.55,587.949 1395.35,581.014 1426.3,550.797 1422.06,557.43 1407.87,572.537 1384.3,587.765 1468.52,519.229 1371.78,601.548 1272.83,680.242 1245.28,699.854 1210.55,717.144 1185.25,725.892 1159.08,746.67 1217.34,691.448 1255.89,666.28 1191.55,731.011 1288.27,619.871 1389.89,566.987 1374.18,596.096 1314.7,646.396 1290.78,659.602 1323.98,624.959 1300.04,643.272 1202.28,730.255 1229.07,700.926 1219.07,713.47 1286.58,650.727 1285.02,661.789 1199.48,724.542 1139.75,777.356 1149.56,758.557 1048.57,845.835 1094.56,798.126 1099.27,789.309 1142.98,758.528 1035.22,858.679 995.474,884.522 981.563,895.061 1045.73,821.13 1045.05,832.352 1067.83,833.938 1119,781.323 1166.08,729.944 1094.67,783.216 1209.17,673.845 1203.73,693.709 1207.84,698.889 1315.76,619.929 1359.59,582.065 1455.19,515.678 1472.13,524.189 1343.34,625.263 1380.49,571.616 1345.74,611.117 1346.82,612.211 1406.01,580.013 1305.09,649.351 1205.88,726.241 1164.5,749.878 1147.39,763.814 1112.73,794.811 1098.21,805.831 1066.68,814.46 1131.34,750.33 1081.09,802.253 1150.65,747.118 1148.44,753.553 1132.71,775.526 1066,833.953 1020.23,873.159 984.52,900.255 915.439,970.128 939.223,935.037 961.818,913.764 1025.2,845.404 1087.34,792.135 1012.22,870.68 1062.6,820.098 1098.2,790.266 1101.62,779.285 1071.43,816.638 1112.91,785.26 1173.47,726.373 1260.96,647.223 1396.99,547.68 1344.19,608.229 1253.43,683.789 1159.75,775.2 1117.96,796.901 1086.7,813.812 1130.63,763.657 1142.86,756.25 1192.37,736.618 1261.55,674.233 1323.42,603.749 1270.9,660.493 1359.24,593.477 1444.14,529.983 1360.66,603.449 1356.17,606.132 1413.08,546.403 1558.05,458.511 1615.4,439.717 1486.58,541.716 1409.86,597.298 1267.1,718.942 1216.43,736.262 1278.43,657.228 1270.56,663.69 1320.25,616.504 1303.5,637.744 1196.13,736.914 1247.36,668.893 1273.18,647.52 1335.18,605.066 1356.05,589.231 1403.58,559.88 1407.57,571.102 1453.08,529.111 1530.31,482.089 1525.73,486.211 1450.33,554.209 1341.02,633.449 1255.38,693.303 1288.03,646.479 1342.78,591.428 1363.17,587.934 1350.69,604.942 1377.1,574.951 1412.83,546.801 1446.1,527.927 1413.69,564.247 1323.78,634.8 1222.39,718.103 1205.48,726.566 1253.77,665.634 1352.89,597.804 1298.37,642.576 1287.12,666.043 1300.21,638.467 1381.76,570.258 1328.33,618.464 1470.49,527.668 1530.18,475.118 1472.68,526.588 1495.92,498.342 1439.1,558.774 1396.33,584.74 1263.5,689.821 1199.76,738.073 1114.54,802.825 1136.73,770.182 1071.98,832.096 1041.2,854.98 1029.64,852.742 983.064,901.449 999.557,877.637 1005.13,866.738 975.845,896.647 1000.27,871.102 1004.18,874.489 1067.48,814.131 1065.07,821.454 1016.76,867.572 983.831,885.377 1034.16,833.769 1042.23,829.851 1075.36,803.905 1082.09,806.046 1091.68,803.158 1134.52,763.625 1293.69,626.121 1385.98,567.223 1372.31,580.693 1304.8,628.864 1298.57,640.166 1265.5,696.365 1174.13,766.018 1136.91,778.04 1202.47,699.376 1173.61,733.465 1155.54,753.777 1090.23,813.143 1145.2,743.153 1144.73,750.811 1157.51,735.858 1214.88,677.95 1227.37,694.637 1263.41,657.547 1186.76,736.397 1173.53,745.061 1179.93,734.043 1120.06,789.165 1098.5,809.691 1115.74,790.14 1154,750.519 1177.16,725.451 1173.4,740.341 1141.33,766.313 1226,692.649 1206.04,711.107 1207.93,707.634 1217.71,713.565 1181.2,739.746 1173.86,739.6 1142.53,754.716 1147.52,754.382 1240.75,669.596 1299.3,639.078 1365.74,580.804 1409.14,562.141 1376.06,599.318 1343.51,623.567 1344.92,614.029 1448.04,521.82 1455.01,528.687 1497.99,498.353 1550.9,475.95 1392.23,598.532 1349.35,627.54 1301.76,657.848 1243.54,704.175 1240.93,707.668 1183.85,738.408 1240.06,674.258 1216.41,700.738 1140.5,768.51 1162.14,738.327 1195.04,712.065 1134.66,776.775 1097.62,812.88 1046.02,855.049 974.629,921.945 994.468,888.138 978.838,896.873 1088.27,785.388 1072.7,812.515 1062.96,823.881 1057.89,822.247 1053.6,824.391 1080.18,789.331 1112.82,782.85 1194.75,709.548 1295.03,639.861 1247.11,690.759 1164.12,764.044 1057.33,853.476 1025.84,872.403 1070.24,808.046 1002.65,881.316 1009.63,871.633 994.617,881.541 963.182,913.241 1032.49,845.406 1004.45,867.279 1018.27,857.956 1115.86,760.189 1054.58,831.947 1041.81,844.101 1022.37,861.066 1111.23,773.43 1184.29,709.4 1216.18,687.743 1108.8,793.389 1131.74,784.714 1151.48,761.93 1290.61,631.108 1242.31,683.181 1326.06,609.449 1351.25,591.982 1239.43,692.805 1343.81,597.704 1216.64,678.804 1244.73,669.688 1222.14,711.412 1184.57,740.047 1217.23,699.642 1191.44,712.205 1240.98,689.645 1297.47,639.781 1242.65,666.84 1334.92,589.155 1382.08,597.743 1529.65,478.699 1530.86,504.491 1591.48,465.944 1668.11,434.462 1585.19,487.502 1518.86,534.043 1517.38,521.135 1576.07,450.577 1608.75,429.148 1469.17,537.211 1412.7,579.288 1400.28,585.144 1402.37,573.21 1419.74,544.102 1489.61,495.506 1579.48,435.88 1666.69,381.237 1655.68,415.183 1695.06,395.77 1729.93,366.015 1760.52,362.049 1637.83,456.192 1513.12,548.504 1424.93,605.894 1319.94,680.24 1322.36,652.644 1288.43,669.858 1268.97,676.536 1264.4,674.742 1238.97,692.761 1260.79,664.992 1221.29,709.275 1234.02,688.241 1238.41,681.39 1186.25,734.58 1144.28,763.815 1163.26,738.228 1143.05,761.312 1011.35,890.389 956.331,940.443 971.235,908.782 919.295,955.545 927.636,942.321 960.309,898.649 967.687,895.665 934.459,942.022 947.944,925.862 963.787,904.347 959.246,911.958 1011.29,858.06 1028.51,857.073 1035.69,844.026 1074.21,801.002 1036.18,838.538 1170.74,724.798 1168.31,736.368 1196.07,705.243 1230.86,690.733 1170.33,737.621 1166.42,735.934 1264.22,656.868 1282.54,642.336 1318.9,616.878 1418.07,538.718 1397.67,577.219 1325.8,642.951 1316.8,636.346 1329.14,625.334 1234.39,701.176 1133,798.554 1045.68,867.573 1014.66,885.077 1062.73,814.091 1072.29,808.275 1048.15,842.944 1095.75,798.773 1147.3,736.211 1181.08,716.019 1235.37,665.018 1196.42,712.004 1220.12,696.512 1242.14,686.711 1294.15,635.698 1427.35,550.446 1387.1,586.57 1463.14,519.182 1367.21,605.371 1378.49,587.835 1349.04,613.65 1336.94,616.432 1275.48,674.535 1234.78,694.602 1252.83,676.004 1221.54,701.638 1299.62,632.043 1321.51,600.825 1343.74,607.556 1293.29,649.879 1242.21,682.865 1265.56,669.074 1319.5,628.102 1230.05,701.485 1262.23,668.34 1219.37,698.366 1211.55,701.446 1191.73,736.725 1169.37,768.987 1281.46,653.344 1281.26,664.006 1340.71,612.293 1445.09,570.491 1420.47,582.743 1348.44,624.941 1352.54,603.581 1285.23,659.384 1336.95,613.247 1270.12,670.197 1267.87,657.833 1154.64,762.862 1256.39,664.939 1261.18,673.761 1073.82,836.226 1094.21,794.362 1030.81,856.812 1003.17,876.095 996.348,884.61 1021.23,850.122 1021.09,850.127 1016.78,875.676 1028.05,861.602 1020.58,864.757 1193.74,695.118 1172.09,722.181 1035.66,848.857 1083.83,805.775 1133.55,759.783 1096.81,775.323 1136.4,759.947 1077.81,810.427 1197.21,699.393 1191.81,716.646 1178.24,723.608 1282.37,623.459 1277.09,645.898 1279.53,646.983 1253.12,676.614 1265.9,661.043 1204.13,723.135 1214.84,718.574 1177.79,733.06 1133.52,768.855 1091.66,809.664 1114.27,775.862 1156.93,730.633 1186.82,715.595 1290.97,620.159 1510.28,438.511 1530.03,457.149 1603.09,414.649 1571.54,456.799 1479.26,547.382 1384.87,612.266 1382.84,598.209 1374.94,591.368 1351.88,613.247 1338.17,615.773 1419.44,536.488 1457.03,522.857 1411.54,571.781 1385.82,585.503 1356,615.861 1384.74,584.436 1292.31,660.266 1268.16,667.71 1227.71,698.653 1308.8,620.685 1414.46,543.74 1319.99,625.401 1450.71,519.762 1448.67,534.314 1578.46,432.464 1622.03,419.356 1552.09,487.355 1399.19,607.454 1300.67,683.454 1195.39,763.143 1155.4,778.702 1145.2,773.232 1116.26,784.643 1131.52,763.734 1185.36,707.869 1177.84,718.792 1201.6,718.428 1149.75,768.96 1224.66,684.841 1304.97,612.289 1331.08,601.014 1403.76,541.442 1379.68,586.83 1502.77,475.002 1473.59,521.855 1484.28,517.552 1509,493.975 1376.22,611.889 1395.08,570.983 1350.87,615.971 1401.04,572.625 1377.52,586.098 1321.41,647.823 1210.51,737.782 1220,711.22 1200.27,729.107 1236.13,680.882 1262.94,660.25 1211.17,719.065 1229.32,692.971 1122.05,788.22 1078.09,821.864 1040.53,851.663 1008.35,884.81 1060.83,826.173 1149.65,736.314 1267.2,644.276 1285.06,638.623 1244.53,675.012 1329.21,605.578 1359.4,600.658 1364.16,592.602 1299.25,658.218 1248.57,667.903 1277.78,654.703 1268.99,659.301 1258.65,674.749 1244.39,689.29 1142.78,771.461 1138.74,760.248 1182.01,714.884 1194.37,715.22 1175.29,731.128 1170.16,738.199 1165.86,748.811 1183.39,725.584 1223.9,691.883 1134.21,773.607 1127,787.736 1115.45,786.781 1034.87,859.579 1012.07,871.541 1023.69,856.875 1009.05,876.493 996.583,883.217 1016.29,874.124 917.231,961.5 891.096,981.601 1013.28,842.558 954.026,921.187 949.469,929.966 910.15,974.433 906.873,966.747 918.932,945.242 981.19,888.723 1051.39,812.296 1053.57,828.297 1052.93,833.252 1094.32,795.479 1215.49,691.976 1236.06,689.688 1216.63,702.138 1265.97,656.734 1339.27,577.076 1261.28,649.656 1239.7,682.174 1343.74,605.871 1424.77,551.374 1390.92,575.925 1370.48,600.336 1388.68,586.625 1341.74,640.287 1400.13,577.94 1433.57,538.925 1439.19,554.034 1440.87,544.232 1504.35,506.362 1428.45,564.186 1469.44,540.186 1409.88,587.129 1323.45,644.298 1256.6,699.44 1317.87,614.184 1200.12,728.57 1195.82,718.288 1255.99,662.622 1206.26,716.634 1149.04,754.084 1098.37,801.46 1105.69,796.182 1085.72,809.776 1164.55,724.563 1184.2,729.619 1209.26,703.426 1234.82,682.634 1126.56,794.105 1051.03,847.995 1052.15,839.491 1077.99,802.147 1077.51,808.253 1082.19,804.441 1086.85,805.556 1044.33,847.334 1062.69,840.652 1004.18,883.272 987.868,895.463 1003.91,870.472 1011.49,861.327 978.285,912.16 989.998,889.856 953.702,921.121 987.647,877.852 899.872,974.185 895.451,973.647 969.773,884.901 1077.7,788.876 1113.56,770.406 1168.68,725.324 1196.89,702.919 1201.41,720.705 1106.1,801.37 1077.27,825.316 1010.43,870.394 1055.82,819.961 1008.73,871.976 1096.92,775.685 1014.15,868.079 1009.72,866.53 1060.45,811.659 1064.43,808.904 1133.17,749.642 1194.95,715.206 1216.2,695.186 1300.81,630.348 1277.61,658.922 1300.45,663.038 1238.4,718.375 1209.9,708.705 1118.56,791.99 1036.42,871.813 1043.52,849.39 1090.96,793.501 1133.15,762.931 1100.54,797.134 1128.05,776.895 1129.81,773.671 1180.23,727.495 1152.51,757.695 1152.01,755.453 1033.23,858.215 1010.51,880.363 1028.92,845.698 1014.84,866.72 1017.99,866.253 989.554,906.593 915.501,963.469 931.41,940.124 888.637,977.065 868.728,1000.79 948.148,904.413 1000.27,847.175 1042.17,822.426 1073.12,800.289 1143.91,734.701 1153.4,741.15 1147.1,754.539 1180.01,731.698 1142.12,766.612 1202.29,704.609 1270.14,646.744 1261.65,665.968 1307.39,629.699 1362.17,597.386 1464.21,513.379 1357.86,607.629 1293.88,649.872 1418.17,538.813 1427.69,569.479 1472.29,520.514 1395.33,600.128 1443.14,560.784 1458.26,541.939 1302.02,666.321 1167.79,775.371 1133.22,791.818 1103.95,808.974 1120.56,775.864 1131.92,764.393 1104.17,783.467 1166.03,730.94 1175.48,723.151 1191.09,720.103 1222.36,681.382 1183.76,712.607 1116.14,774.548 1134.55,759.722 1156.36,746.018 1154.7,757.101 1147.96,760.309 1106.14,793.244 1130.28,763.673 1168.79,716.994 1119.08,746.298 1118.13,786.439 1111.27,788.954 1037.46,866.286 1071.09,822.651 1087.48,803.961 973.927,907.966 982.65,894.347 972.688,896.582 1087.83,774.326 1100.11,776.503 1119.62,768.725 1148.2,739.163 1178.02,729.482 1257.51,662.741 1219.72,705.746 1263.45,669.11 1390.41,561.274 1479.37,511.227 1364.11,610.208 1453.2,530.37 1395.81,601.338 1290.33,679.472 1146.02,800.759 1144.58,779.585 1134.42,777.004 1108.92,797.813 1132.96,758.997 1234.19,667.049 1289.83,636.784 1186.28,733.562 1093.96,827.533 1120.19,783.537 1068.12,825.031 1044.71,845.881 1104.2,793.099 1158.53,742.88 1248.96,681.983 1299.04,644.76 1321.57,613.88 1370.71,583.386 1426.78,551.297 1411.65,562.94 1408.71,563.39 1467.24,527.629 1392.41,563.369 1326.95,641.41 1331.38,625.688 1269.48,667.918 1169.09,756.614 1136.57,772.271 1079.74,813.227 1143.16,748.61 1160.86,749.005 1120.47,786.932 1142.81,757.893 1132.91,772.231 1178.37,726.186 1179.61,711.583 1111.71,777.271 1105.54,776.62 1131.96,757.295 1133.52,747.641 1099.88,770.921 1150.48,746.951 1153.29,734.546 1209.29,703.339 1141.02,766.848 1124.65,755.816 1150.22,738.781 1105.41,791.59 1207.75,703.171 1224.43,688.493 1166.91,750.378 1214.08,691.183 1234.69,681.943 1408.52,531.575 1488.5,498.996 1477.18,512.865 1471.33,525.31 1417.68,567.123 1495.21,504.51 1519.76,485.273 1501.68,512.033 1492.28,515.821 1436.57,572.604 1395.98,607.586 1335.55,648.566 1227.62,734.614 1181.44,754.272 1206,717.846 1109.56,809.563 1105.76,799.47 1145.3,756.714 1218.42,679.631 1256.89,654.969 1245.13,677.388 1351.1,585.256 1298.09,648.269 1342.71,599.191 1390.08,569.229 1497.14,475.265 1474.78,510.967 1368.58,614.397 1319.41,646.263 1308.96,653.114 1200.18,739.178 1201.22,720.224 1193.61,732.651 1187.79,729.981 1169.19,747.273 1132.11,782.348 1143.48,760.465 1120.14,781.992 1090.25,814.058 955.462,932.906 931.434,946.454 963.672,901.985 924.447,942.424 929.82,930.277 933.067,926.228 936.628,924.299 957.08,906.539 943.415,923.008 921.413,944.007 896.286,979.541 926.102,943.891 970.575,896.137 1046.04,823.724 941.835,931.923 872.344,1000.68 821.692,1050.06 860.262,1005.88 814.11,1049.24 892.477,959.258 912.705,951.603 928.058,932.122 974.061,884.66 955.617,907.508 901.168,969.518 948.28,913.823 1012.08,843.223 992.86,883.556 979.693,895.95 1038.33,843.271 1043.91,839.219 1051.69,830.72 1048.57,837.283 1144.16,744.617 1081.57,813.055 1169.1,721.004 1218.28,702.015 1335.81,604.922 1427.1,545.31 1325.08,632.591 1378.01,585.986 1392.01,574.879 1281.59,658.483 1301.79,640.189 1257.29,678.716 1342.68,609.053 1326.6,636.072 1338.73,616.487 1412.06,577.477 1341.22,621.923 1291.12,649.431 1314.12,622.125 1408.35,563.259 1431.37,543.251 1348.87,629.639 1287.4,668.234 1183.79,755.977 1104.28,808.844 1112.44,788.613 1158.46,739.373 1188.55,709.143 1199.93,699.132 1206.25,704.9 1237.73,674.518 1231.67,667.921 1219.5,709.639 1325.66,609.123 1325.42,622.215 1371.58,596.014 1435.4,539.849 1397.35,574.8 1382.4,593.057 1494.71,512.611 1532.7,475.963 1487.04,497.317 1395.21,577.661 1430.63,543.521 1388.6,593.206 1369.54,605.71 1448.28,537.924 1386.2,581.789 1316.94,649.693 1230.87,708.663 1248.98,686.992 1260.44,676.842 1368.23,570.338 1432.51,525.09 1396.97,580.51 1253.67,692.052 1208.62,728.628 1110.52,811.677 1092.12,816.07 1117.45,775.174 1067.6,829.613 1123.95,778.193 1120.28,777.349 1077.37,822.342 1007.39,881.465 978.38,908.341 1043.4,833.504 1079.67,807.929 1040.23,841.264 1034.15,848.482 1032.75,842.38 996.452,866.517 967.959,910.68 923.805,951.379 864.619,1009.66 904.786,963.033 917.186,946.304 934.44,933.115 919.089,953.245 884.038,978.076 883.281,975.844 893.396,969.738 896.017,972.399 864.978,1009.45 886.53,984.913 850.353,1022.33 844.317,1022.63 859.617,1018.49 851.033,1022.05 842.002,1026.73 864.598,1001.86 902.02,959.922 859.568,1009.73 865.707,994.396 918.526,940.245 964.46,889.985 998.82,870.899 981.262,895.162 959.771,911.396 951.574,918.121 986.563,885.75 949.943,916.958 941.541,933.322 912.377,965.806 893.004,992.343 880.766,984.805 851.051,1016.16 843.36,1027.02 792.083,1075.65 798.759,1063.39 768.371,1097.12 719.205,1155.85 719.355,1151.54 746.279,1119.01 745.888,1114.54 777.195,1083.67 809.09,1048.11 826.528,1027.45 785.375,1084.3 745.727,1125.69 762.265,1104.21 813.339,1041.05 874.698,975.382 863.214,994.827 840.036,1026.36 863.452,994.999 812.981,1059.11 784.963,1088.04 809.406,1045.05 793.365,1076.54 810.447,1054.9 823.987,1038.71 811.081,1056.85 850.103,1011.32 866.791,987.843 854.772,1005.64 881.103,973.068 891.619,965.054 869.574,999.724 869.869,998.293 974.765,882.514 1046.43,818.16 1088.46,791.966 1115.8,760.717 1101.84,782.28 1109.9,792.31 1092.42,800.589 1108.07,778.111 1134.27,763.527 1154.98,753.361 1092.77,803.457 1170.72,752.398 1231.12,681.599 1205.34,714.384 1204.42,702.91 1273.82,665.996 1063.2,865.554 1076.05,828.159 1044.36,858.389 1066.11,822.633 1039.43,834.209 1014.97,860.113 1063.88,814.514 1102.45,786.187 1125.2,767.157 1091.95,793.7 1115.02,774.315 1156.27,725.629 1237.34,652.291 1333.06,596.585 1329.93,617.56 1422.6,549.98 1284.11,672.518 1319.44,622.711 1360.53,579.713 1301.82,634.123 1291.64,645.589 1304.95,660.728 1363.11,596.003 1280.54,640.726 1242.64,680.398 1303.54,656.009 1209.3,727.026 1188.17,734.859 1287.81,630.214 1276.19,652.724 1290.66,648.879 1318.75,623.187 1371.47,582.592 1450.81,514.444 1513.93,511.464 1586.03,453.344 1698.47,384.467 1607.58,463.143 1624.61,433.401 1661.51,397.799 1651.12,416.822 1578.04,471.424 1573.64,465.303 1515.9,515.763 1474.92,538.786 1431.36,574.393 1450.16,544.803 1417.91,567.092 1391.3,593.23 1337.79,630.303 1364.57,594.499 1365.41,590.739 1276.75,671.715 1286.58,660.433 1259.34,670.958 1270.56,655.189 1239.07,695.357 1161.73,751.078 1112.13,797.248 1137.3,758.825 1118.16,775.507 1106.43,783.796 1174.18,707.531 1223.36,676.309 1212.12,695.725 1290.67,619.822 1344.07,610.625 1372.77,584.027 1447.7,512.935 1417.74,559.435 1427.22,557.491 1498.07,504.555 1641.28,391.506 1666.84,396.597 1646.42,429.676 1522.24,525.304 1385.63,623.957 1345.06,638.407 1457.72,515.054 1378.44,591.76 1473.17,499.748 1489,497.444 1428.16,552.275 1362.14,608.394 1291.94,662.277 1244.78,706.484 1181.7,752.881 1231.82,686.557 1270.73,654.323 1240.05,689.794 1177.29,741.382 1214.12,695.895 1195.94,717.345 1223.32,701.36 1277.4,639.752 1198.71,725.415 1158.81,758.407 1136.44,769.13 1117.33,785.675 1047.25,851.411 1007.65,888.96 980.085,901.381 967.769,916.916 976.967,898.58 973.76,892.676 949.321,921.987 935.442,929.835 979.544,885.762 947.244,927.145 1039.81,820.734 1065.63,811.371 1090.93,785.445 1117.45,779.269 1131.32,762.168 1128.09,768.98 1054.51,843.425 1136.03,761.155 1024.32,864.699 1078.7,792.263 1167.58,720.983 1242.59,670.819 1380.24,549.244 1526.7,455.128 1423.29,562.731 1369.88,604.548 1426.17,552.318 1343.17,628.928 1313.11,649.015 1354.05,606.65 1234.72,701.268 1154.96,768.182 1186.1,724.488 1279.68,640.164 1278.85,636.371 1288.9,651.421 1311.26,638.289 1300.98,649.545 1349.63,610.68 1310.85,658.675 1262.54,689.448 1352.49,601.165 1308.55,646.588 1258.41,682.78 1257.87,673.361 1226.63,701.172 1173.39,747.496 1235.84,667.707 1175.23,730.134 1166.1,731.156 1138.07,767.366 1112.28,776.654 1186.41,722.72 1252.74,677.034 1208.09,707.13 1242.43,691.874 1195.19,722.918 1310.42,638.269 1377.47,584.972 1349.73,607.815 1287.69,646.304 1240.13,682.845 1410.5,518.85 1514.34,466.138 1570.16,460.731 1520.56,493.761 1430.38,561.077 1324.33,651.626 1349.75,600.244 1367.13,595.656 1307.59,646.904 1349.8,603.98 1326.49,623.574 1260.5,691.126 1146.09,778.256 1157.19,748.283 1158.49,753.188 1218.41,682.813 1218.2,689.072 1176.09,730.65 1313.61,601.705 1283.18,651.792 1331.68,613.244 1347.62,611.878 1329.73,635.385 1344.16,616.803 1424.63,544.414 1298.38,645.351 1293.7,646.29 1367.45,578.085 1487.71,494.287 1450.56,537.416 1385.82,598.98 1272.84,684.909 1210.09,726.866 1166.47,758.38 1248.95,668.776 1182.56,732.761 1232.22,679.592 1235.14,690.642 1315.17,607.165 1302.32,644.019 1260.07,687.135 1278.03,668.883 1354.16,596.528 1350.15,620.738 1356.54,611.979 1239.05,717.353 1245.83,700.435 1165.44,762.735 1151.93,758.805 1189.03,720.49 1240.93,675.197 1212.88,699.89 1213.92,701.314 1211.71,703.127 1168.67,744.917 1212.94,701.34 1271.9,650.765 1370.63,576.243 1365.52,588.921 1402.8,554.473 1333.97,626.372 1330.57,642.666 1226.19,724.555 1195.34,731.909 1174.68,747.004 1151.16,761.735 1162.12,744.311 1170.88,737.93 1111.29,796.408 1110.93,800.181 1056.06,845.625 1028.02,867.896 1026.89,858.362 1065.9,813.922 1060.2,819.025 1032.43,849.585 1089.53,794.509 1131.28,764.173 1109.41,776.345 1087.38,801.372 1034.02,857.246 1074.12,825.521 1236.57,663.862 1326.85,604.901 1303.2,645.462 1298.24,651.117 1130.98,787.994 1153.67,755.513 1165.24,739.451 1183.89,725.372 1191.41,710.277 1278,633.157 1208.25,713.036 1221.36,700.357 1215.73,711.595 1226.71,685.897 1154.65,757.545 1253.95,651.309 1322.55,608.342 1361.04,591.251 1262.92,684.49 1171.49,761.593 1216.25,704.305 1202.08,716.969 1175.5,740.738 1197.83,721.701 1213.02,704.494 1248.39,665.365 1263.35,659.411 1228.9,707.099 1140.59,777.837 1120.43,788.915 1154.43,750.5 1172.94,730.954 1216.22,690.854 1237.35,678.348 1242.56,677.604 1230.26,688.947 1275.68,653.905 1287.35,647.544 1251.67,677.042 1222.67,706.015 1146.07,776.908 1112.86,799.063 1098.87,798.021 1138.63,760.315 1123.66,776.417 1159.84,733.691 1217.13,692.626 1192.36,716.412 1142.07,759.142 1086.39,816.503 1042.15,858.41 1059.11,819.74 1056,824.27 1165.71,716.716 1117.26,768.347 1171.3,716.711 1267.39,644.75 1047.55,855.897 1008.84,875.971 940.009,939.797 915.534,958.627 815.839,1056.05 805.861,1063.67 802.114,1065.41 828.098,1032.29 828.167,1028.95 826.334,1032.11 798.644,1070.41 761.37,1108.64 757.086,1111.49 742.213,1124 716.324,1153.31 708.459,1160.82 697.059,1178.01 716.299,1148.61 745.121,1111.76 740.621,1122.97 739.195,1125.69 746.904,1113.8 759.285,1103.14 785.415,1076.07 757.279,1110.71 818.562,1028.99 862.443,985.427 889.603,965.182 910.517,948.247 999.647,854.878 1069.32,799.916 1103.42,781.539 1162.57,730.39 1226.23,680.447 1243.92,672.872 1258.64,675.347 1323.42,610.757 1356.21,601.282 1393.99,566.028 1489.13,503.751 1501.55,505.193 1425.57,581.831 1431.78,566.958 1403.63,586.303 1452.07,538.317 1502.09,493.128 1465.16,522.691 1515.54,495.39 1617.87,437.842 1534.53,517.759 1712.43,361.054 1668.34,422.806 1627.94,446.654 1645.41,415.233 1630.45,424.133 1626.76,427.899 1543.33,499.54 1470.03,559.512 1355.8,643.887 1297.86,676.669 1308.63,648.07 1232.02,712.247 1191.86,737.261 1137.92,782.971 1039.04,873.353 1057.82,835.772 1071.18,811.609 1063.17,813.026 1078.22,806.167 1095.68,787.477 1088.03,807.814 1072.28,820.828 1093.84,802.757 1086.61,817.712 1147.58,753.948 1071.1,810.535 1121.39,769.575 1114.16,773.942 1182.31,717.835 1163.65,743.884 1163.49,728.762 1194.59,701.678 1269.48,660.368 1255.39,677.525 1184.08,732.492 1160.25,766.385 1219.73,703.745 1191.76,717.25 1161.55,751.331 1184.18,724.845 1178.88,735.14 1174.04,728.092 1139.79,768.265 1120.2,786.603 1124.86,776.274 1196.42,715.35 1110.51,796.599 1173.04,725.307 1162.51,763.251 1127.06,790.973 1118.17,790.135 1201.11,715.544 1344.45,582.97 1278.89,661.973 1219.3,710.916 1102.03,809.461 1064.99,838.337 1069.47,815.496 1060.37,822.726 1159.32,750.873 1153.05,756.52 1190.26,724.301 1140.15,770.05 1179.66,732.594 1122.2,793.265 1138.56,766.65 1040.91,847.747 1021.75,866.365 1022.78,860.133 939.043,934.681 962.714,904.799 997.893,872.207 1047.51,813.185 1069.94,807.499 1035.73,847.586 1108.52,766.356 996.449,886.959 1020.65,860.253 961.971,913.337 940.671,928.068 864.394,1010.41 841.584,1024.91 892.317,972.343 911.243,949.103 962.013,893.092 1038.38,809.322 1108.03,755.561 1080.06,807.113 1111.98,777.597 1155.81,741.15 1165.8,742.74 1142.35,768.584 1168.58,734.578 1097.5,801.968 1163.68,743.086 1262.15,667.266 1218.3,711.349 1284.5,655.58 1251.79,675.733 1164.42,753.197 1204.68,714.546 1044.9,846.214 1107.05,773.451 1099.56,795.184 1075.43,818.317 1088.97,798.732 1060.77,835.592 1081.47,806.628 1014.03,869.537 1071.05,810.327 1055.56,821.906 1083.12,795.928 1079.33,821.954 1020.3,865.911 1073.97,804.857 1107.77,773.802 1203.28,703.076 1237.13,679.41 1184.84,729.767 1291.68,625.812 1379.45,574.194 1317.66,633.708 1349.7,603.908 1307.9,648.97 1276.89,680.349 1194.71,738.539 1189.64,733.966 1211.88,715.859 1170.7,745.717 1134.73,772.081 1064.9,837.332 1102.93,791.658 1044.29,847.231 1037.91,848.883 1010.78,866.35 1090.84,779.978 1144.36,736.396 1254.4,643.44 1170.24,743.439 1037.83,868.284 980.044,918.177 927.393,962.861 943.925,931.826 908.806,967.193 859.818,1012.7 839.372,1031.97 839.346,1025.62 875.913,975.433 895.723,956.935 892.015,971.499 966.382,890.846 986.634,878.576 1132.18,730.813 1076.94,801.885 1159.62,726.061 1096.66,805.008 1098.12,800.966 1089.8,799.69 1101.76,783.465 1127.71,758.9 1094.88,794.716 1210.8,706.076 1401.8,545.179 1484.13,495.826 1409.09,563.512 1465.84,526.052 1433.32,551.007 1463.85,529.8 1425.95,574.791 1333.85,636.011 1278.78,670.716 1249.07,698.965 1378.81,557.172 1363.23,575.914 1498.64,483.359 1522.05,486.498 1549.13,482.049 1407.18,588.921 1409.74,573.448 1405.21,575.099 1404.41,578.814 1361.82,609.865 1298.35,650.495 1381.92,577.645 1287.03,658.478 1343.36,602.713 1440.79,513.453 1392.11,579.82 1552.94,441.799 1501.65,509.533 1531.37,484.714 1514.49,504.047 1482.09,532.471 1354.43,626.718 1374.55,593.194 1282.97,675.407 1238.62,702.12 1196.57,729.4 1186.43,734.503 1194.52,718.814 1224.37,691.068 1178.4,730.988 1218.37,690.664 1117.22,804.989 1121.83,788.898 1102.31,804.178 1124.2,775.716 1091.92,811.719 1059.65,834.152 1056.73,831.557 1042.14,846.828 1060.8,833.977 1103.85,786.448 1131.37,765.741 1155.72,737.09 1151.63,761.884 1141.3,778.289 1134.19,770.163 1159.93,737.738 1093.25,804.659 1125.86,768.322 1156.56,739.701 1203.66,697.938 1188.72,721.951 1249.66,692.92 1184.38,733.708 1206.63,720.708 1233.69,686.926 1235.19,694.46 1189.39,738.993 1281.91,671.152 1118.75,809.339 1078.7,829.09 1042.03,852.982 988.803,903.041 926.133,959.403 952.737,919.519 1027.23,835.229 1004.52,861.216 970.128,894.04 1046.92,820.654 1073.86,803.471 1146.79,747.292 1235.51,686.576 1311.75,618.083 1237.68,690.929 1168.09,743.598 1150.79,756.061 1140.77,778.765 1244.12,653.613 1146.06,734.587 1120.01,759.588 1136.23,759.408 1156.29,751.18 1166.68,745.041 1135.31,767.967 1158.4,751.746 1221.64,722.281 1224.32,707.247 1179.08,750.9 1222.54,714.631 1216.03,728.044 1252.2,685.525 1241.06,686.707 1195.97,720.27 1303.89,637.406 1158.8,751.012 1192.56,704.468 1244.73,690.557 1338.74,602.404 1379.2,575.264 1369.58,592.933 1339.41,647.161 1406.7,601.41 1351.19,624.066 1327.89,628.586 1324.51,617.664 1305.02,633.842 1255.66,673.007 1155.18,748.479 1192.57,728.197 1195.08,738.749 1107.65,803.168 1070.71,833.544 1126.38,771.558 1106.25,786.665 987.144,900.709 1013.17,868.074 951.502,930.737 969.504,908.372 979.357,895.123 1010.93,863.216 990.2,883.316 1078.44,785.09 1121.71,767.119 1101.82,799.511 1200.95,700.522 1151.24,748.972 1214.56,685.795 1223.39,699.909 1203.43,728.28 1209.27,712.752 1269.68,642.533 1224.62,701.679 1313.7,615.393 1355.4,591.672 1428.16,539.237 1485.58,505.966 1426.2,562.804 1258.22,691.616 1179.87,758.63 1183.75,739.189 1151.04,763.788 1228.22,675.044 1159.67,743.384 1135.89,766.473 1193.35,715.851 1210.85,706.678 1126.55,773.355 1073.99,815.195 1075.36,818.95 1062,831.314 1102.22,799.142 1017.18,867.52 1085.75,800.392 1018.15,853.416 1056.63,828.993 1079.15,801.087 996.368,890.891 966.821,909.01 870.587,1004.26 821.19,1058.51 829.835,1040.57 827.212,1037.77 823.912,1036.93 813.44,1049.21 819.988,1042.16 825.799,1037.29 820.702,1044.56 859.413,992.168 876.825,974.499 878.367,981.729 968.07,891.436 1019.64,847.224 1045.44,827.241 996.401,892.727 1041.5,839.12 1034.27,845.202 1118.12,763.78 1131.49,759.352 1155.78,728.767 1183.11,725.617 1243.43,668.933 1339.43,597.668 1370.41,570.625 1336.85,613.105 1170.08,751.408 1191.47,722.17 1238.23,685.851 1279.84,654.989 1321.19,619.426 1366.5,581.712 1449.62,524.273 1515.37,489.889 1510.07,499.724 1302.19,669.967 1249.68,700.371 1314.93,622.154 1307.75,640.421 1322.1,622.526 1269.46,676.857 1159.51,765.103 1097.24,809.513 1046.23,855.831 995.607,897.218 989.657,888.548 1053.3,815.498 993.083,877.465 987.996,878.22 975.746,897.289 1006.24,871.184 1083.93,794.545 1049.48,826.183 1210.61,683.535 1225.37,684.808 1339.31,608.607 1315.54,637.54 1321.49,629.936 1277.59,664.849 1200.02,730.804 1126.51,789.802 1124.5,794.783 1127.5,778.253 1078.56,816.841 1125.19,762.274 1245.97,646.875 1267.42,644.985 1214.02,709.821 1205.72,721.103 1160.28,762.825 1166.99,743.631 1168.38,748.404 1189.85,725.062 1197.39,717.562 1195.2,716.285 1135.87,771.087 1049.98,854.092 987.309,907.975 983.704,897.949 994.232,872.316 988.927,885.354 983.363,888.188 984.114,883.451 1030.72,838.168 1023.82,853.384 1112.39,758.247 1108.58,795.964 1026.01,875.038 1072.38,809.793 1148.23,738.612 1148.61,745.24 1130.87,761.061 1292.48,621.85 1371.55,565.348 1412.29,555.348 1466.04,522.517 1464.48,537.857 1281.22,678.631 1320.59,629.768 1281.95,665.113 1284.36,653.803 1422.41,531.354 1441.07,523.724 1367.01,590.857 1401.19,565.44 1553.5,444.496 1472.59,520.622 1371.72,606.995 1303.52,645.314 1295.41,644.431 1256.12,675.271 1258,667.467 1271.17,659.132 1243.42,676.995 1299.38,623.374 1274.5,645.298 1241.05,672.588 1313.08,603.348 1459.3,505.538 1430.08,556.536 1349.19,621.373 1323.03,626.577 1268.37,670.328 1303.87,628.109 1267.06,664.059 1258.66,670.446 1251.5,667.812 1184.79,719.976 1066.49,812.141 1108.62,767.196 1060.44,818.839 1103.58,774.499 1142.11,750.702 1123.15,762.224 1055.58,838.119 1015.88,873.516 1082.65,807.534 1111.81,775.003 1112.25,789.83 975.201,898.38 919.669,952.817 926.31,950.959 905.394,960.029 957.108,892.518 904.628,950.032 955.105,896.808 982.978,876.716 954.292,907.472 961.529,902.07 942.148,926.894 1014.1,858.734 1033.04,843.005 1005.06,883.738 945.94,950.536 977.644,913.195 1007.76,890.232 1111.33,785.291 1017.19,862.903 1014.36,870.027 1134.85,762.435 1095.94,779.787 1053.7,820.595 990.218,880.179 1022.52,864.884 967.946,916.118 1000.39,873.178 908.39,952.686 996.735,859.474 1058.18,813.374 1094.7,792.335 1217.01,691.96 1186.51,733.275 1151.94,773.072 1131.02,778.171 1070,830.41 1125.11,771.569 1177.93,724.073 1153.6,751.902 1123.22,779.281 1233.62,683.575 1200.25,719.493 1251.59,670.342 1186.03,723.45 1173.43,739.745 1064.75,819.778 1005.11,888.692 973.397,910.367 927.833,956.885 924.847,951.139 1006.55,847.811 998.432,875.628 978.266,902.83 1013.12,857.182 1022.11,849.591 1054.94,824.798 1104.84,776.25 1118.49,770.003 1153.06,745.884 1211.07,691.321 1278.36,635.552 1237.99,705.543 1153.34,771.073 1100.96,802.717 1079.81,815.119 1021.13,863.752 1046.25,837.815 1002.16,873.272 1026.99,859.223 946.912,936.604 968.968,898.413 957.307,902.737 978.849,890.066 960.099,911.33 931.343,934.297 900.682,966.03 922.457,939.737 876.573,986.758 827.192,1048.03 862.438,1006.17 874.812,992.418 891.68,968.28 952.009,915.69 887.359,982.526 945.074,914.756 1012.54,859.89 959.062,916.692 965.157,916.853 984.981,896.235 970.639,910.573 906.388,977.762 860.085,1014.21 814.243,1059.58 798.036,1072.01 829.119,1031.13 869.982,994.88 852.459,1016.47 847.594,1012.89 843.522,1025.58 938.538,910.095 897.23,972.196 902.309,955.805 876.607,980.858 913.574,946.662 938.038,919.832 1030.95,819.984 1070.31,803.77 1064.31,821.081 1059.08,817.317 1034.91,845.669 1072.72,816.62 1131.2,763.824 1065.18,835.38 996.053,887.259 988.479,889.216 1108.53,764.993 1071.47,814.751 1098.57,781.122 1158.91,733.639 1264.68,644.55 1276.38,647.404 1187.93,737.186 1183.25,729.585 1180.1,732.155 1161.23,747.691 1164.78,746.866 1174.63,737.564 1134.26,776.027 1243.75,673.857 1303.15,632.974 1326.7,611.184 1452.66,545.277 1498.03,502.724 1513.34,492.636 1580.92,443.819 1637.84,427.693 1491.88,537.77 1481.02,534.209 1534.4,481.635 1445.2,559.548 1315.07,662.764 1212.75,736.9 1146.07,786.564 1153.91,763.087 1177.19,730.644 1188.86,721.118 1203.45,704.813 1183.22,720.671 1162.57,740.251 1130.08,770.9 1187.44,716.181 1235.18,673.329 1113.82,767.675 988.622,868.821 963.997,925.916 917.024,958.296 893.723,987.674 901.91,976.484 900.52,975.435 929.403,938.177 1050.73,819.308 1069.57,821.695 1061.08,829.428 1037.93,847.168 1018.72,854.194 1074.54,811.36 1128.75,745.395 1185.47,709.519 1163.46,745.184 1223.36,684.46 1272.49,664.124 1311.08,635.682 1379.05,590.898 1397.24,582.001 1375.93,587.281 1348.24,606.754 1243.56,701.079 1183.01,749.285 1140.89,772.244 1140.36,770.38 1132.5,771.116 1226.59,673.746 1224,695.666 1255.42,669.142 1263.54,661.39 1162.16,746.365 1269.46,642.016 1234.67,681.082 1265.68,656.226 1205.68,717.232 1177.01,736.796 1175.35,734.114 1119.01,786.822 1189.91,716.832 1227.94,700.26 1188.32,720.45 1199.22,705.505 1157.32,742.762 1246.16,680.581 1213.21,718.666 1248.59,674.39 1244.56,684.615 1167.02,734.982 1213.04,688.85 1226.42,684.528 1236.01,682.892 1234.42,688.586 1220.27,705.628 1254.64,663.558 1225.77,720.679 1111.35,811.751 1071.31,836.682 1068.93,831.108 1125.06,759.265 1164.59,721.879 1073.98,822.348 1062.08,829.276 1073.98,812.497 1032.31,851.046 1186.54,699.278 1209.07,705.341 1244.01,670.755 1238.89,676.608 1196.54,711.774 1272.76,664.931 1227.57,707.995 1277.7,650.329 1322.58,623.546 1257.36,685.698 1324.54,607.122 1325.54,611.263 1326.43,625.002 1167.22,766.715 1162.42,764.641 1232.52,683.257 1327.18,601.646 1302.34,628.675 1220.64,706.884 1255.48,687.249 1201.01,733.792 1279.91,657.198 1144.12,768.769 1170.87,735.41 1284.89,627.067 1227.62,697.276 1333.38,587.812 1333.05,613.792 1288.34,657.919 1305.03,650.456 1269.64,667.709 1343.75,601.063 1249.87,702.974 1177.08,761.876 1175.14,747.505 1143.8,772.412 1160.7,740.499 1142.19,763.565 1091.55,811.747 1076.16,818.328 1046.27,848.951 1053.64,836.155 1098.24,790.328 1183.91,711.265 1202.02,700.481 1268.85,656.732 1195.48,723.225 1082.14,828.718 1073.1,822.368 1079.64,812.62 1056.63,836.51 1005.62,874.482 1004.58,872.221 1025.87,844.462 1025.99,857.882 1046.02,828.13 996.498,871.839 989.548,880.766 967.179,901.56 898.959,968.937 925.239,940.06 917.573,953.517 941.084,923.62 945.809,910.646 942.062,929.891 911.247,955.071 910.895,953.513 953.397,919.078 972.188,900.693 983.319,876.353 1008.22,860.084 986.673,889.3 950.127,919.899 974.283,897.591 1053.09,814.499 1059.91,819 1029.56,852.798 1109.22,779.948 1019.98,865.594 976.963,905.343 1061.52,814.191 1149.6,728.608 1232.44,664.299 1311.29,612.301 1254.88,682.173 1275.67,664.583 1358.91,600.72 1301.15,654.772 1143.29,785.256 1098.14,818.842 1063.22,838.849 1072.48,819.586 1055.62,831.663 1081.07,805.843 1064.97,816.052 1009.02,869.657 1007.26,860.278 980.993,889.086 1047.18,845.269 1098.02,790.196 1028.47,862.698 1033.27,842.641 1033.08,846.754 975.569,895.033 861.736,1014.49 867.661,996.617 839.334,1024.8 852.462,1009.17 858.299,1007.1 826.298,1043.46 858.269,1003.97 856.36,1007.35 900.769,958.088 878.49,974.958 937.257,914.786 967.868,885.052 980.552,882.506 1067.96,805.406 1145.58,741.319 1173.36,729.049 1183.11,719.019 1178.53,725.635 1163.98,752.064 1080.53,840.81 1030.55,870.685 945.548,948.206 944.972,935.262 971.032,900.167 986.74,876.331 1046.46,813.281 1013.81,862.578 1066.58,812.749 1119.96,796.182 1134.42,775.873 1114.18,791.206 1136.95,756.827 1046.44,833.077 1084.78,798.847 1067.91,813.043 1030.38,838.223 1030.17,830.67 1004.17,859.709 995.067,878.592 1018.61,858.829 1080.26,797.729 1077.91,797.283 957.719,903.358 951.54,900.798 967.619,893.757 962.729,904.188 940.019,925.946 978.29,893.453 995.654,880.629 1037.72,835.743 1003.96,876.182 1099.99,802.546 957.794,930.271 939.083,942.06 942.738,934.684 947.457,934.635 979.648,899.92 1077.12,802.165 1129.53,747.385 1183.06,705.24 1130.81,771.783 1112.74,768.08 1203.11,681.167 1199.39,698.63 1084.23,804.119 1216.86,688.191 1262.86,656.189 1302.57,622.967 1353.26,590.069 1412.42,563.206 1322.65,629.121 1384.98,570.67 1361.9,585.796 1295.18,654.219 1243.03,693.171 1198.93,729.413 1217.84,717.368 1212.95,718.084 1139.75,759.482 1068.5,828.722 1113.29,778.217 1108.31,797.567 1068.03,834.731 1085.09,799.635 1153.34,725.335 1057.91,811.028 1076.56,805.208 1073.46,811.763 1112.8,784.441 1133.06,763.537 1144.2,752.017 1270.9,651.331 1222.75,705.156 1195.12,729.575 1111.31,804.379 1066.59,836.303 1018.98,878.546 1009,871.15 1099.27,766.207 1029.5,850.742 960.605,923.996 975.854,889.997 1035.89,838.661 999.863,880.647 991.96,886.439 913.07,965.083 887.926,983.965 913.02,946.89 986.952,876.043 983.898,892.159 997.789,871.789 1069.15,809.925 1072.83,806.879 1072.23,826.344 1109.59,786.42 1136.35,761.412 1170.79,734.891 1041.15,850.795 1067.46,827.1 1129.69,769.464 1076.19,810.798 1049.68,833.556 1000.92,883.257 983.055,901.425 991.317,886.89 982.242,907.898 953.616,928.213 875.977,992.037 906.259,957.096 940.226,925.312 980.977,874.322 985.389,883.853 999.011,873.388 1086.11,792.536 1171.96,726.025 1174.64,743.767 1172.62,735.805 1254.8,662.535 1225.28,690.822 1162.65,751.972 1305.45,643.251 1301.67,638.333 1342.51,604.2 1223.62,715.996 1240.73,692.495 1175.03,752.662 1154.53,755.454 1031.41,859.964 1065.7,820.705 1122.97,764.5 1144.75,750.68 1099.04,800.567 1087.91,800.488 1123.91,759.791 1087.11,808.655 1004.17,889.888 1021.75,856.855 1067.68,815.281 1118.97,768.162 1216.12,683.358 1086.21,798.416 1098.85,783.446 1025.61,845.826 1047.46,829.142 1088.47,799.528 1125.05,774.023 1216.6,699.658 1237.5,693.132 1189.25,718.689 1301,636.185 1381.55,584.692 1244.64,699.696 1266.22,668.025 1308.2,635.965 1456.25,529.061 1310.58,658.857 1414.25,562.885 1464.09,552.896 1328.12,657.488 1384.29,579.53 1410.35,565.202 1328.8,642.374 1441.81,538.732 1404.15,567.475 1468.9,515.275 1534.37,466.144 1495.06,510.129 1598.34,424.574 1521.15,511.078 1558.04,462.771 1445.42,552.202 1386.65,595.183 1312.93,649.845 1325.27,636.812 1293.95,657.95 1399.28,545.23 1308.31,640.141 1330.97,612.591 1290.87,651.614 1272.62,669.798 1284.2,656.504 1218.01,711.058 1155.43,756.258 1152.7,746.12 1178.97,734.552 1144.68,768.43 1220.03,711.861 1112.24,797.321 1128.53,781.284 1068.92,820.228 1118.6,764.194 1067.1,827.052 1087.8,797.011 1177.12,715.371 1154.1,751.112 1209.42,705.165 1195.25,719.645 1144.01,761.173 1250.82,642.729 1275.36,649.485 1292.96,636.542 1337.13,594.35 1394.73,552.977 1500.08,473.24 1376.22,606.13 1317.49,650.411 1379.87,598.259 1390.65,582.809 1433.69,542.114 1280.04,669.22 1269.36,668.345 1176.22,747.633 1114.69,792.348 1158.98,737.289 1115.1,783.736 1084.76,814.137 1039.17,858.681 1074.09,817.922 1212.07,706.732 1241.09,681.909 1233.59,690.304 1271.2,661.15 1245.55,682.748 1216.51,709.196 1139.18,779.534 1086.96,819.019 1071,825.965 1042.08,856.842 978.616,906.572 954.466,926.465 1037.68,830.084 1002.82,875.757 1017.52,854.992 1092.67,785.015 1091.89,792.618 1169.56,714.924 1238.8,663.852 1196.47,717.817 1165.13,757.15 1232.41,691.448 1228.31,689.759 1239.29,677.12 1291.6,646.431 1190.81,737.944 1142.51,770.292 1165.8,739.918 1202.33,705.077 1203.66,723.295 1190.95,729.183 1137.14,761.668 1169.18,731.549 1142.88,761.206 1176.31,719.863 1161.05,747.81 1180.59,724.889 1171.45,737.57 1254.11,663.526 1172.32,753.739 1237.48,681.435 1208.02,706.134 1214.67,710.878 1262.66,667.365 1313.27,656.69 1215.28,730.864 1175.05,752.859 1172.96,746.101 1191.52,719.158 1139.32,768.213 1124.05,774.446 1179.83,708.161 1271.56,652.684 1278.13,646.337 1315.87,630.444 1310.07,640.943 1245.39,694.195 1292.77,639.316 1232.63,697.602 1251.48,676.304 1325.25,608.239 1235.94,691.608 1167.54,748.055 1178.88,725.111 1138.29,760.736 1130.3,766.778 1106.92,788.038 1160.9,740.851 1318.28,607.882 1260.06,668.417 1235.28,698.489 1237.09,691.327 1333.1,615.12 1391.39,562.548 1532.04,485.688 1465.3,543.317 1462.74,546.335 1473.93,541.692 1360.36,624.8 1299.94,665.535 1235.94,708.155 1245.94,686.439 1211.47,703.403 1151.3,757.297 1168.66,735.267 1191.76,721.165 1243.96,673.811 1182.54,734.573 1201.09,708.03 1146.81,755.525 997.692,883.001 946.144,930.757 971.794,899.358 1002.2,871.774 1039.86,840.038 1048.07,836.224 992.408,899.764 931.278,959.58 956.057,917.259 925.654,952.946 954.698,912.573 1055.58,807.296 1156.34,729.904 1150.84,748.055 1217.67,687.855 1221,706.779 1177.23,744.817 1166.62,753.962 "/>
<path clip-path="url(#clip940)" d="M186.863 198.898 L550.897 198.898 L550.897 95.2176 L186.863 95.2176  Z" fill="#ffffff" fill-rule="evenodd" fill-opacity="1"/>
<polyline clip-path="url(#clip940)" style="stroke:#000000; stroke-linecap:round; stroke-linejoin:round; stroke-width:4; stroke-opacity:1; fill:none" points="186.863,198.898 550.897,198.898 550.897,95.2176 186.863,95.2176 186.863,198.898 "/>
<polyline clip-path="url(#clip940)" style="stroke:#009af9; stroke-linecap:round; stroke-linejoin:round; stroke-width:4; stroke-opacity:1; fill:none" points="211.758,147.058 361.13,147.058 "/>
<path clip-path="url(#clip940)" d="M396.651 128.366 Q393.549 133.69 392.044 138.898 Q390.54 144.106 390.54 149.453 Q390.54 154.801 392.044 160.055 Q393.572 165.287 396.651 170.588 L392.947 170.588 Q389.475 165.148 387.739 159.893 Q386.026 154.639 386.026 149.453 Q386.026 144.291 387.739 139.06 Q389.452 133.828 392.947 128.366 L396.651 128.366 Z" fill="#000000" fill-rule="nonzero" fill-opacity="1" /><path clip-path="url(#clip940)" d="M403.063 138.412 L423.294 138.412 L423.294 142.301 L407.276 160.935 L423.294 160.935 L423.294 164.338 L402.484 164.338 L402.484 160.449 L418.502 141.815 L403.063 141.815 L403.063 138.412 Z" fill="#000000" fill-rule="nonzero" fill-opacity="1" /><path clip-path="url(#clip940)" d="M430.887 158.458 L435.771 158.458 L435.771 162.439 L431.975 169.847 L428.988 169.847 L430.887 162.439 L430.887 158.458 Z" fill="#000000" fill-rule="nonzero" fill-opacity="1" /><path clip-path="url(#clip940)" d="M455.655 166.745 Q453.849 171.375 452.136 172.787 Q450.423 174.199 447.553 174.199 L444.15 174.199 L444.15 170.634 L446.65 170.634 Q448.41 170.634 449.382 169.8 Q450.354 168.967 451.535 165.865 L452.298 163.921 L441.812 138.412 L446.326 138.412 L454.428 158.689 L462.53 138.412 L467.044 138.412 L455.655 166.745 Z" fill="#000000" fill-rule="nonzero" fill-opacity="1" /><path clip-path="url(#clip940)" d="M474.011 158.458 L478.896 158.458 L478.896 162.439 L475.099 169.847 L472.113 169.847 L474.011 162.439 L474.011 158.458 Z" fill="#000000" fill-rule="nonzero" fill-opacity="1" /><path clip-path="url(#clip940)" d="M509.544 138.412 L500.169 151.027 L510.03 164.338 L505.007 164.338 L497.46 154.152 L489.914 164.338 L484.891 164.338 L494.96 150.773 L485.747 138.412 L490.77 138.412 L497.645 147.648 L504.52 138.412 L509.544 138.412 Z" fill="#000000" fill-rule="nonzero" fill-opacity="1" /><path clip-path="url(#clip940)" d="M515.377 128.366 L519.081 128.366 Q522.553 133.828 524.266 139.06 Q526.002 144.291 526.002 149.453 Q526.002 154.639 524.266 159.893 Q522.553 165.148 519.081 170.588 L515.377 170.588 Q518.456 165.287 519.96 160.055 Q521.488 154.801 521.488 149.453 Q521.488 144.106 519.96 138.898 Q518.456 133.69 515.377 128.366 Z" fill="#000000" fill-rule="nonzero" fill-opacity="1" /></svg>
