<?xml version="1.0" encoding="utf-8"?>
<svg xmlns="http://www.w3.org/2000/svg" xmlns:xlink="http://www.w3.org/1999/xlink" width="600" height="400" viewBox="0 0 2400 1600">
<defs>
  <clipPath id="clip360">
    <rect x="0" y="0" width="2400" height="1600"/>
  </clipPath>
</defs>
<path clip-path="url(#clip360)" d="M0 1600 L2400 1600 L2400 0 L0 0  Z" fill="#ffffff" fill-rule="evenodd" fill-opacity="1"/>
<defs>
  <clipPath id="clip361">
    <rect x="193" y="47" width="2160" height="1377"/>
  </clipPath>
</defs>
<path clip-path="url(#clip360)" d="M193.936 1423.18 L2352.76 1423.18 L2352.76 47.2441 L193.936 47.2441  Z" fill="#ffffff" fill-rule="evenodd" fill-opacity="1"/>
<polyline clip-path="url(#clip361)" style="stroke:#000000; stroke-linecap:round; stroke-linejoin:round; stroke-width:2; stroke-opacity:0.1; fill:none" points="193.936,1423.18 193.936,47.2441 "/>
<polyline clip-path="url(#clip361)" style="stroke:#000000; stroke-linecap:round; stroke-linejoin:round; stroke-width:2; stroke-opacity:0.1; fill:none" points="625.7,1423.18 625.7,47.2441 "/>
<polyline clip-path="url(#clip361)" style="stroke:#000000; stroke-linecap:round; stroke-linejoin:round; stroke-width:2; stroke-opacity:0.1; fill:none" points="1057.46,1423.18 1057.46,47.2441 "/>
<polyline clip-path="url(#clip361)" style="stroke:#000000; stroke-linecap:round; stroke-linejoin:round; stroke-width:2; stroke-opacity:0.1; fill:none" points="1489.23,1423.18 1489.23,47.2441 "/>
<polyline clip-path="url(#clip361)" style="stroke:#000000; stroke-linecap:round; stroke-linejoin:round; stroke-width:2; stroke-opacity:0.1; fill:none" points="1920.99,1423.18 1920.99,47.2441 "/>
<polyline clip-path="url(#clip361)" style="stroke:#000000; stroke-linecap:round; stroke-linejoin:round; stroke-width:2; stroke-opacity:0.1; fill:none" points="2352.76,1423.18 2352.76,47.2441 "/>
<polyline clip-path="url(#clip361)" style="stroke:#000000; stroke-linecap:round; stroke-linejoin:round; stroke-width:2; stroke-opacity:0.1; fill:none" points="193.936,1265.94 2352.76,1265.94 "/>
<polyline clip-path="url(#clip361)" style="stroke:#000000; stroke-linecap:round; stroke-linejoin:round; stroke-width:2; stroke-opacity:0.1; fill:none" points="193.936,1047.1 2352.76,1047.1 "/>
<polyline clip-path="url(#clip361)" style="stroke:#000000; stroke-linecap:round; stroke-linejoin:round; stroke-width:2; stroke-opacity:0.1; fill:none" points="193.936,828.263 2352.76,828.263 "/>
<polyline clip-path="url(#clip361)" style="stroke:#000000; stroke-linecap:round; stroke-linejoin:round; stroke-width:2; stroke-opacity:0.1; fill:none" points="193.936,609.422 2352.76,609.422 "/>
<polyline clip-path="url(#clip361)" style="stroke:#000000; stroke-linecap:round; stroke-linejoin:round; stroke-width:2; stroke-opacity:0.1; fill:none" points="193.936,390.581 2352.76,390.581 "/>
<polyline clip-path="url(#clip361)" style="stroke:#000000; stroke-linecap:round; stroke-linejoin:round; stroke-width:2; stroke-opacity:0.1; fill:none" points="193.936,171.741 2352.76,171.741 "/>
<polyline clip-path="url(#clip360)" style="stroke:#000000; stroke-linecap:round; stroke-linejoin:round; stroke-width:4; stroke-opacity:1; fill:none" points="193.936,1423.18 2352.76,1423.18 "/>
<polyline clip-path="url(#clip360)" style="stroke:#000000; stroke-linecap:round; stroke-linejoin:round; stroke-width:4; stroke-opacity:1; fill:none" points="193.936,1423.18 193.936,1404.28 "/>
<polyline clip-path="url(#clip360)" style="stroke:#000000; stroke-linecap:round; stroke-linejoin:round; stroke-width:4; stroke-opacity:1; fill:none" points="625.7,1423.18 625.7,1404.28 "/>
<polyline clip-path="url(#clip360)" style="stroke:#000000; stroke-linecap:round; stroke-linejoin:round; stroke-width:4; stroke-opacity:1; fill:none" points="1057.46,1423.18 1057.46,1404.28 "/>
<polyline clip-path="url(#clip360)" style="stroke:#000000; stroke-linecap:round; stroke-linejoin:round; stroke-width:4; stroke-opacity:1; fill:none" points="1489.23,1423.18 1489.23,1404.28 "/>
<polyline clip-path="url(#clip360)" style="stroke:#000000; stroke-linecap:round; stroke-linejoin:round; stroke-width:4; stroke-opacity:1; fill:none" points="1920.99,1423.18 1920.99,1404.28 "/>
<polyline clip-path="url(#clip360)" style="stroke:#000000; stroke-linecap:round; stroke-linejoin:round; stroke-width:4; stroke-opacity:1; fill:none" points="2352.76,1423.18 2352.76,1404.28 "/>
<path clip-path="url(#clip360)" d="M193.936 1454.1 Q190.325 1454.1 188.496 1457.66 Q186.691 1461.2 186.691 1468.33 Q186.691 1475.44 188.496 1479.01 Q190.325 1482.55 193.936 1482.55 Q197.57 1482.55 199.376 1479.01 Q201.204 1475.44 201.204 1468.33 Q201.204 1461.2 199.376 1457.66 Q197.57 1454.1 193.936 1454.1 M193.936 1450.39 Q199.746 1450.39 202.802 1455 Q205.88 1459.58 205.88 1468.33 Q205.88 1477.06 202.802 1481.67 Q199.746 1486.25 193.936 1486.25 Q188.126 1486.25 185.047 1481.67 Q181.992 1477.06 181.992 1468.33 Q181.992 1459.58 185.047 1455 Q188.126 1450.39 193.936 1450.39 Z" fill="#000000" fill-rule="nonzero" fill-opacity="1" /><path clip-path="url(#clip360)" d="M620.353 1481.64 L636.672 1481.64 L636.672 1485.58 L614.728 1485.58 L614.728 1481.64 Q617.39 1478.89 621.973 1474.26 Q626.58 1469.61 627.76 1468.27 Q630.006 1465.74 630.885 1464.01 Q631.788 1462.25 631.788 1460.56 Q631.788 1457.8 629.843 1456.07 Q627.922 1454.33 624.82 1454.33 Q622.621 1454.33 620.168 1455.09 Q617.737 1455.86 614.959 1457.41 L614.959 1452.69 Q617.783 1451.55 620.237 1450.97 Q622.691 1450.39 624.728 1450.39 Q630.098 1450.39 633.293 1453.08 Q636.487 1455.77 636.487 1460.26 Q636.487 1462.39 635.677 1464.31 Q634.89 1466.2 632.783 1468.8 Q632.205 1469.47 629.103 1472.69 Q626.001 1475.88 620.353 1481.64 Z" fill="#000000" fill-rule="nonzero" fill-opacity="1" /><path clip-path="url(#clip360)" d="M1060.47 1455.09 L1048.67 1473.54 L1060.47 1473.54 L1060.47 1455.09 M1059.25 1451.02 L1065.13 1451.02 L1065.13 1473.54 L1070.06 1473.54 L1070.06 1477.43 L1065.13 1477.43 L1065.13 1485.58 L1060.47 1485.58 L1060.47 1477.43 L1044.87 1477.43 L1044.87 1472.92 L1059.25 1451.02 Z" fill="#000000" fill-rule="nonzero" fill-opacity="1" /><path clip-path="url(#clip360)" d="M1489.63 1466.44 Q1486.48 1466.44 1484.63 1468.59 Q1482.8 1470.74 1482.8 1474.49 Q1482.8 1478.22 1484.63 1480.39 Q1486.48 1482.55 1489.63 1482.55 Q1492.78 1482.55 1494.61 1480.39 Q1496.46 1478.22 1496.46 1474.49 Q1496.46 1470.74 1494.61 1468.59 Q1492.78 1466.44 1489.63 1466.44 M1498.92 1451.78 L1498.92 1456.04 Q1497.16 1455.21 1495.35 1454.77 Q1493.57 1454.33 1491.81 1454.33 Q1487.18 1454.33 1484.73 1457.45 Q1482.3 1460.58 1481.95 1466.9 Q1483.31 1464.89 1485.37 1463.82 Q1487.43 1462.73 1489.91 1462.73 Q1495.12 1462.73 1498.13 1465.9 Q1501.16 1469.05 1501.16 1474.49 Q1501.16 1479.82 1498.01 1483.03 Q1494.86 1486.25 1489.63 1486.25 Q1483.64 1486.25 1480.47 1481.67 Q1477.3 1477.06 1477.3 1468.33 Q1477.3 1460.14 1481.18 1455.28 Q1485.07 1450.39 1491.62 1450.39 Q1493.38 1450.39 1495.17 1450.74 Q1496.97 1451.09 1498.92 1451.78 Z" fill="#000000" fill-rule="nonzero" fill-opacity="1" /><path clip-path="url(#clip360)" d="M1920.99 1469.17 Q1917.66 1469.17 1915.74 1470.95 Q1913.84 1472.73 1913.84 1475.86 Q1913.84 1478.98 1915.74 1480.77 Q1917.66 1482.55 1920.99 1482.55 Q1924.33 1482.55 1926.25 1480.77 Q1928.17 1478.96 1928.17 1475.86 Q1928.17 1472.73 1926.25 1470.95 Q1924.35 1469.17 1920.99 1469.17 M1916.32 1467.18 Q1913.31 1466.44 1911.62 1464.38 Q1909.95 1462.32 1909.95 1459.35 Q1909.95 1455.21 1912.89 1452.8 Q1915.85 1450.39 1920.99 1450.39 Q1926.15 1450.39 1929.09 1452.8 Q1932.03 1455.21 1932.03 1459.35 Q1932.03 1462.32 1930.34 1464.38 Q1928.68 1466.44 1925.69 1467.18 Q1929.07 1467.96 1930.95 1470.26 Q1932.84 1472.55 1932.84 1475.86 Q1932.84 1480.88 1929.77 1483.57 Q1926.71 1486.25 1920.99 1486.25 Q1915.27 1486.25 1912.2 1483.57 Q1909.14 1480.88 1909.14 1475.86 Q1909.14 1472.55 1911.04 1470.26 Q1912.94 1467.96 1916.32 1467.18 M1914.6 1459.79 Q1914.6 1462.48 1916.27 1463.98 Q1917.96 1465.49 1920.99 1465.49 Q1924 1465.49 1925.69 1463.98 Q1927.4 1462.48 1927.4 1459.79 Q1927.4 1457.11 1925.69 1455.6 Q1924 1454.1 1920.99 1454.1 Q1917.96 1454.1 1916.27 1455.6 Q1914.6 1457.11 1914.6 1459.79 Z" fill="#000000" fill-rule="nonzero" fill-opacity="1" /><path clip-path="url(#clip360)" d="M2327.44 1481.64 L2335.08 1481.64 L2335.08 1455.28 L2326.77 1456.95 L2326.77 1452.69 L2335.04 1451.02 L2339.71 1451.02 L2339.71 1481.64 L2347.35 1481.64 L2347.35 1485.58 L2327.44 1485.58 L2327.44 1481.64 Z" fill="#000000" fill-rule="nonzero" fill-opacity="1" /><path clip-path="url(#clip360)" d="M2366.8 1454.1 Q2363.18 1454.1 2361.36 1457.66 Q2359.55 1461.2 2359.55 1468.33 Q2359.55 1475.44 2361.36 1479.01 Q2363.18 1482.55 2366.8 1482.55 Q2370.43 1482.55 2372.23 1479.01 Q2374.06 1475.44 2374.06 1468.33 Q2374.06 1461.2 2372.23 1457.66 Q2370.43 1454.1 2366.8 1454.1 M2366.8 1450.39 Q2372.61 1450.39 2375.66 1455 Q2378.74 1459.58 2378.74 1468.33 Q2378.74 1477.06 2375.66 1481.67 Q2372.61 1486.25 2366.8 1486.25 Q2360.99 1486.25 2357.91 1481.67 Q2354.85 1477.06 2354.85 1468.33 Q2354.85 1459.58 2357.91 1455 Q2360.99 1450.39 2366.8 1450.39 Z" fill="#000000" fill-rule="nonzero" fill-opacity="1" /><path clip-path="url(#clip360)" d="M1272.41 1522.27 L1272.41 1532.4 L1284.47 1532.4 L1284.47 1536.95 L1272.41 1536.95 L1272.41 1556.3 Q1272.41 1560.66 1273.58 1561.9 Q1274.79 1563.14 1278.45 1563.14 L1284.47 1563.14 L1284.47 1568.04 L1278.45 1568.04 Q1271.67 1568.04 1269.1 1565.53 Q1266.52 1562.98 1266.52 1556.3 L1266.52 1536.95 L1262.22 1536.95 L1262.22 1532.4 L1266.52 1532.4 L1266.52 1522.27 L1272.41 1522.27 Z" fill="#000000" fill-rule="nonzero" fill-opacity="1" /><polyline clip-path="url(#clip360)" style="stroke:#000000; stroke-linecap:round; stroke-linejoin:round; stroke-width:4; stroke-opacity:1; fill:none" points="193.936,1423.18 193.936,47.2441 "/>
<polyline clip-path="url(#clip360)" style="stroke:#000000; stroke-linecap:round; stroke-linejoin:round; stroke-width:4; stroke-opacity:1; fill:none" points="193.936,1265.94 212.834,1265.94 "/>
<polyline clip-path="url(#clip360)" style="stroke:#000000; stroke-linecap:round; stroke-linejoin:round; stroke-width:4; stroke-opacity:1; fill:none" points="193.936,1047.1 212.834,1047.1 "/>
<polyline clip-path="url(#clip360)" style="stroke:#000000; stroke-linecap:round; stroke-linejoin:round; stroke-width:4; stroke-opacity:1; fill:none" points="193.936,828.263 212.834,828.263 "/>
<polyline clip-path="url(#clip360)" style="stroke:#000000; stroke-linecap:round; stroke-linejoin:round; stroke-width:4; stroke-opacity:1; fill:none" points="193.936,609.422 212.834,609.422 "/>
<polyline clip-path="url(#clip360)" style="stroke:#000000; stroke-linecap:round; stroke-linejoin:round; stroke-width:4; stroke-opacity:1; fill:none" points="193.936,390.581 212.834,390.581 "/>
<polyline clip-path="url(#clip360)" style="stroke:#000000; stroke-linecap:round; stroke-linejoin:round; stroke-width:4; stroke-opacity:1; fill:none" points="193.936,171.741 212.834,171.741 "/>
<path clip-path="url(#clip360)" d="M50.9921 1266.4 L80.6679 1266.4 L80.6679 1270.33 L50.9921 1270.33 L50.9921 1266.4 Z" fill="#000000" fill-rule="nonzero" fill-opacity="1" /><path clip-path="url(#clip360)" d="M91.5706 1279.29 L99.2095 1279.29 L99.2095 1252.92 L90.8993 1254.59 L90.8993 1250.33 L99.1632 1248.66 L103.839 1248.66 L103.839 1279.29 L111.478 1279.29 L111.478 1283.22 L91.5706 1283.22 L91.5706 1279.29 Z" fill="#000000" fill-rule="nonzero" fill-opacity="1" /><path clip-path="url(#clip360)" d="M120.922 1277.34 L125.807 1277.34 L125.807 1283.22 L120.922 1283.22 L120.922 1277.34 Z" fill="#000000" fill-rule="nonzero" fill-opacity="1" /><path clip-path="url(#clip360)" d="M145.992 1251.74 Q142.381 1251.74 140.552 1255.31 Q138.746 1258.85 138.746 1265.98 Q138.746 1273.09 140.552 1276.65 Q142.381 1280.19 145.992 1280.19 Q149.626 1280.19 151.431 1276.65 Q153.26 1273.09 153.26 1265.98 Q153.26 1258.85 151.431 1255.31 Q149.626 1251.74 145.992 1251.74 M145.992 1248.04 Q151.802 1248.04 154.857 1252.65 Q157.936 1257.23 157.936 1265.98 Q157.936 1274.71 154.857 1279.31 Q151.802 1283.9 145.992 1283.9 Q140.181 1283.9 137.103 1279.31 Q134.047 1274.71 134.047 1265.98 Q134.047 1257.23 137.103 1252.65 Q140.181 1248.04 145.992 1248.04 Z" fill="#000000" fill-rule="nonzero" fill-opacity="1" /><path clip-path="url(#clip360)" d="M51.9875 1047.55 L81.6633 1047.55 L81.6633 1051.49 L51.9875 1051.49 L51.9875 1047.55 Z" fill="#000000" fill-rule="nonzero" fill-opacity="1" /><path clip-path="url(#clip360)" d="M101.756 1032.9 Q98.1447 1032.9 96.316 1036.47 Q94.5104 1040.01 94.5104 1047.14 Q94.5104 1054.24 96.316 1057.81 Q98.1447 1061.35 101.756 1061.35 Q105.39 1061.35 107.196 1057.81 Q109.024 1054.24 109.024 1047.14 Q109.024 1040.01 107.196 1036.47 Q105.39 1032.9 101.756 1032.9 M101.756 1029.2 Q107.566 1029.2 110.621 1033.8 Q113.7 1038.39 113.7 1047.14 Q113.7 1055.86 110.621 1060.47 Q107.566 1065.05 101.756 1065.05 Q95.9456 1065.05 92.8669 1060.47 Q89.8114 1055.86 89.8114 1047.14 Q89.8114 1038.39 92.8669 1033.8 Q95.9456 1029.2 101.756 1029.2 Z" fill="#000000" fill-rule="nonzero" fill-opacity="1" /><path clip-path="url(#clip360)" d="M121.918 1058.5 L126.802 1058.5 L126.802 1064.38 L121.918 1064.38 L121.918 1058.5 Z" fill="#000000" fill-rule="nonzero" fill-opacity="1" /><path clip-path="url(#clip360)" d="M137.033 1029.82 L155.39 1029.82 L155.39 1033.76 L141.316 1033.76 L141.316 1042.23 Q142.334 1041.88 143.353 1041.72 Q144.371 1041.54 145.39 1041.54 Q151.177 1041.54 154.556 1044.71 Q157.936 1047.88 157.936 1053.3 Q157.936 1058.87 154.464 1061.98 Q150.992 1065.05 144.672 1065.05 Q142.496 1065.05 140.228 1064.68 Q137.982 1064.31 135.575 1063.57 L135.575 1058.87 Q137.658 1060.01 139.881 1060.56 Q142.103 1061.12 144.58 1061.12 Q148.584 1061.12 150.922 1059.01 Q153.26 1056.91 153.26 1053.3 Q153.26 1049.68 150.922 1047.58 Q148.584 1045.47 144.58 1045.47 Q142.705 1045.47 140.83 1045.89 Q138.978 1046.3 137.033 1047.18 L137.033 1029.82 Z" fill="#000000" fill-rule="nonzero" fill-opacity="1" /><path clip-path="url(#clip360)" d="M100.76 814.061 Q97.1493 814.061 95.3206 817.626 Q93.515 821.168 93.515 828.297 Q93.515 835.404 95.3206 838.969 Q97.1493 842.51 100.76 842.51 Q104.395 842.51 106.2 838.969 Q108.029 835.404 108.029 828.297 Q108.029 821.168 106.2 817.626 Q104.395 814.061 100.76 814.061 M100.76 810.358 Q106.571 810.358 109.626 814.964 Q112.705 819.547 112.705 828.297 Q112.705 837.024 109.626 841.631 Q106.571 846.214 100.76 846.214 Q94.9502 846.214 91.8715 841.631 Q88.816 837.024 88.816 828.297 Q88.816 819.547 91.8715 814.964 Q94.9502 810.358 100.76 810.358 Z" fill="#000000" fill-rule="nonzero" fill-opacity="1" /><path clip-path="url(#clip360)" d="M120.922 839.663 L125.807 839.663 L125.807 845.543 L120.922 845.543 L120.922 839.663 Z" fill="#000000" fill-rule="nonzero" fill-opacity="1" /><path clip-path="url(#clip360)" d="M145.992 814.061 Q142.381 814.061 140.552 817.626 Q138.746 821.168 138.746 828.297 Q138.746 835.404 140.552 838.969 Q142.381 842.51 145.992 842.51 Q149.626 842.51 151.431 838.969 Q153.26 835.404 153.26 828.297 Q153.26 821.168 151.431 817.626 Q149.626 814.061 145.992 814.061 M145.992 810.358 Q151.802 810.358 154.857 814.964 Q157.936 819.547 157.936 828.297 Q157.936 837.024 154.857 841.631 Q151.802 846.214 145.992 846.214 Q140.181 846.214 137.103 841.631 Q134.047 837.024 134.047 828.297 Q134.047 819.547 137.103 814.964 Q140.181 810.358 145.992 810.358 Z" fill="#000000" fill-rule="nonzero" fill-opacity="1" /><path clip-path="url(#clip360)" d="M101.756 595.221 Q98.1447 595.221 96.316 598.785 Q94.5104 602.327 94.5104 609.457 Q94.5104 616.563 96.316 620.128 Q98.1447 623.67 101.756 623.67 Q105.39 623.67 107.196 620.128 Q109.024 616.563 109.024 609.457 Q109.024 602.327 107.196 598.785 Q105.39 595.221 101.756 595.221 M101.756 591.517 Q107.566 591.517 110.621 596.123 Q113.7 600.707 113.7 609.457 Q113.7 618.183 110.621 622.79 Q107.566 627.373 101.756 627.373 Q95.9456 627.373 92.8669 622.79 Q89.8114 618.183 89.8114 609.457 Q89.8114 600.707 92.8669 596.123 Q95.9456 591.517 101.756 591.517 Z" fill="#000000" fill-rule="nonzero" fill-opacity="1" /><path clip-path="url(#clip360)" d="M121.918 620.822 L126.802 620.822 L126.802 626.702 L121.918 626.702 L121.918 620.822 Z" fill="#000000" fill-rule="nonzero" fill-opacity="1" /><path clip-path="url(#clip360)" d="M137.033 592.142 L155.39 592.142 L155.39 596.077 L141.316 596.077 L141.316 604.549 Q142.334 604.202 143.353 604.04 Q144.371 603.855 145.39 603.855 Q151.177 603.855 154.556 607.026 Q157.936 610.197 157.936 615.614 Q157.936 621.193 154.464 624.295 Q150.992 627.373 144.672 627.373 Q142.496 627.373 140.228 627.003 Q137.982 626.633 135.575 625.892 L135.575 621.193 Q137.658 622.327 139.881 622.883 Q142.103 623.438 144.58 623.438 Q148.584 623.438 150.922 621.332 Q153.26 619.225 153.26 615.614 Q153.26 612.003 150.922 609.896 Q148.584 607.79 144.58 607.79 Q142.705 607.79 140.83 608.207 Q138.978 608.623 137.033 609.503 L137.033 592.142 Z" fill="#000000" fill-rule="nonzero" fill-opacity="1" /><path clip-path="url(#clip360)" d="M91.5706 403.926 L99.2095 403.926 L99.2095 377.561 L90.8993 379.227 L90.8993 374.968 L99.1632 373.301 L103.839 373.301 L103.839 403.926 L111.478 403.926 L111.478 407.861 L91.5706 407.861 L91.5706 403.926 Z" fill="#000000" fill-rule="nonzero" fill-opacity="1" /><path clip-path="url(#clip360)" d="M120.922 401.982 L125.807 401.982 L125.807 407.861 L120.922 407.861 L120.922 401.982 Z" fill="#000000" fill-rule="nonzero" fill-opacity="1" /><path clip-path="url(#clip360)" d="M145.992 376.38 Q142.381 376.38 140.552 379.945 Q138.746 383.486 138.746 390.616 Q138.746 397.722 140.552 401.287 Q142.381 404.829 145.992 404.829 Q149.626 404.829 151.431 401.287 Q153.26 397.722 153.26 390.616 Q153.26 383.486 151.431 379.945 Q149.626 376.38 145.992 376.38 M145.992 372.676 Q151.802 372.676 154.857 377.283 Q157.936 381.866 157.936 390.616 Q157.936 399.343 154.857 403.949 Q151.802 408.533 145.992 408.533 Q140.181 408.533 137.103 403.949 Q134.047 399.343 134.047 390.616 Q134.047 381.866 137.103 377.283 Q140.181 372.676 145.992 372.676 Z" fill="#000000" fill-rule="nonzero" fill-opacity="1" /><path clip-path="url(#clip360)" d="M92.566 185.086 L100.205 185.086 L100.205 158.72 L91.8947 160.387 L91.8947 156.127 L100.159 154.461 L104.834 154.461 L104.834 185.086 L112.473 185.086 L112.473 189.021 L92.566 189.021 L92.566 185.086 Z" fill="#000000" fill-rule="nonzero" fill-opacity="1" /><path clip-path="url(#clip360)" d="M121.918 183.141 L126.802 183.141 L126.802 189.021 L121.918 189.021 L121.918 183.141 Z" fill="#000000" fill-rule="nonzero" fill-opacity="1" /><path clip-path="url(#clip360)" d="M137.033 154.461 L155.39 154.461 L155.39 158.396 L141.316 158.396 L141.316 166.868 Q142.334 166.521 143.353 166.359 Q144.371 166.174 145.39 166.174 Q151.177 166.174 154.556 169.345 Q157.936 172.516 157.936 177.933 Q157.936 183.511 154.464 186.613 Q150.992 189.692 144.672 189.692 Q142.496 189.692 140.228 189.322 Q137.982 188.951 135.575 188.211 L135.575 183.511 Q137.658 184.646 139.881 185.201 Q142.103 185.757 144.58 185.757 Q148.584 185.757 150.922 183.65 Q153.26 181.544 153.26 177.933 Q153.26 174.322 150.922 172.215 Q148.584 170.109 144.58 170.109 Q142.705 170.109 140.83 170.525 Q138.978 170.942 137.033 171.822 L137.033 154.461 Z" fill="#000000" fill-rule="nonzero" fill-opacity="1" /><polyline clip-path="url(#clip361)" style="stroke:#009af9; stroke-linecap:round; stroke-linejoin:round; stroke-width:4; stroke-opacity:1; fill:none" points="193.936,828.263 196.097,832.62 198.258,836.921 200.419,841.164 202.58,845.35 204.741,849.482 206.902,853.558 209.063,857.581 211.224,861.55 213.385,865.466 215.546,869.331 217.707,873.144 219.868,876.907 222.029,880.62 224.19,884.284 226.351,887.899 228.512,891.466 230.673,894.986 232.834,898.459 234.995,901.886 237.156,905.268 239.317,908.605 241.478,911.898 243.639,915.147 245.8,918.353 247.961,921.516 250.122,924.637 252.282,927.718 254.443,930.757 256.604,933.756 258.765,936.715 260.926,939.635 263.087,942.516 265.248,945.359 267.409,948.165 269.57,950.933 271.731,953.664 273.892,956.36 276.053,959.019 278.214,961.643 280.375,964.233 282.536,966.788 284.697,969.309 286.858,971.797 289.019,974.252 291.18,976.674 293.341,979.064 295.502,981.423 297.663,983.75 299.824,986.047 301.985,988.313 304.146,990.548 306.307,992.755 308.468,994.932 310.629,997.08 312.79,999.2 314.951,1001.29 317.112,1003.36 319.273,1005.39 321.434,1007.4 323.595,1009.38 325.756,1011.34 327.917,1013.27 330.078,1015.18 332.239,1017.06 334.4,1018.91 336.561,1020.74 338.722,1022.55 340.883,1024.33 343.044,1026.09 345.205,1027.82 347.366,1029.53 349.527,1031.22 351.688,1032.89 353.849,1034.54 356.01,1036.16 358.171,1037.76 360.332,1039.34 362.493,1040.9 364.653,1042.44 366.814,1043.96 368.975,1045.45 371.136,1046.93 373.297,1048.39 375.458,1049.83 377.619,1051.25 379.78,1052.65 381.941,1054.04 384.102,1055.4 386.263,1056.75 388.424,1058.08 390.585,1059.39 392.746,1060.68 394.907,1061.96 397.068,1063.22 399.229,1064.46 401.39,1065.69 403.551,1066.9 405.712,1068.08 407.873,1068.33 410.034,1067.2 412.195,1064.86 414.356,1061.47 416.517,1057.19 418.678,1052.15 420.839,1046.48 423,1040.32 425.161,1033.77 427.322,1026.94 429.483,1019.92 431.644,1012.8 433.805,1005.65 435.966,998.548 438.127,991.538 440.288,984.672 442.449,977.987 444.61,971.512 446.771,965.264 448.932,959.254 451.093,953.48 453.254,947.933 455.415,942.594 457.576,937.433 459.737,932.412 461.898,927.483 464.059,922.589 466.22,917.663 468.381,912.654 470.542,907.683 472.703,902.779 474.864,897.939 477.024,893.164 479.185,888.452 481.346,883.802 483.507,879.214 485.668,874.687 487.829,870.22 489.99,865.812 492.151,861.463 494.312,857.171 496.473,852.936 498.634,848.757 500.795,844.634 502.956,840.565 505.117,836.551 507.278,832.589 509.439,828.68 511.6,824.822 513.761,821.016 515.922,817.26 518.083,813.554 520.244,809.897 522.405,806.289 524.566,802.729 526.727,799.215 528.888,795.749 531.049,792.328 533.21,788.953 535.371,785.622 537.532,782.336 539.693,779.094 541.854,775.894 544.015,772.737 546.176,769.621 548.337,766.548 550.498,763.514 552.659,760.521 554.82,757.568 556.981,754.654 559.142,751.778 561.303,748.941 563.464,746.141 565.625,743.379 567.786,740.653 569.947,737.963 572.108,735.308 574.269,732.689 576.43,730.105 578.591,727.555 580.752,725.038 582.913,722.555 585.074,720.105 587.235,717.687 589.396,715.302 591.556,712.948 593.717,710.625 595.878,708.333 598.039,706.071 600.2,703.84 602.361,701.638 604.522,699.465 606.683,697.321 608.844,695.206 611.005,693.118 613.166,691.058 615.327,689.026 617.488,687.02 619.649,685.876 621.81,686.861 623.971,689.713 626.132,694.158 628.293,699.944 630.454,706.834 632.615,714.61 634.776,723.072 636.937,732.035 639.098,741.337 641.259,750.829 643.42,760.382 645.581,769.884 647.742,779.242 649.903,788.38 652.064,797.239 654.225,805.779 656.386,813.978 658.547,821.83 660.708,829.348 662.869,836.564 665.03,843.525 667.191,850.299 669.352,856.968 671.513,863.636 673.674,870.42 675.835,877.232 677.996,883.954 680.157,890.587 682.318,897.132 684.479,903.59 686.64,909.962 688.801,916.25 690.962,922.455 693.123,928.577 695.284,934.618 697.445,940.579 699.606,946.461 701.767,952.265 703.927,957.992 706.088,963.644 708.249,969.22 710.41,974.722 712.571,980.152 714.732,985.509 716.893,990.796 719.054,996.012 721.215,1001.16 723.376,1006.24 725.537,1011.25 727.698,1016.2 729.859,1021.08 732.02,1025.89 734.181,1030.64 736.342,1035.33 738.503,1039.96 740.664,1044.52 742.825,1049.02 744.986,1053.47 747.147,1057.85 749.308,1062.18 751.469,1066.45 753.63,1070.66 755.791,1074.82 757.952,1078.92 760.113,1082.97 762.274,1086.96 764.435,1090.91 766.596,1094.79 768.757,1098.63 770.918,1102.42 773.079,1106.15 775.24,1109.84 777.401,1113.48 779.562,1117.07 781.723,1120.61 783.884,1124.11 786.045,1127.55 788.206,1130.96 790.367,1134.32 792.528,1137.63 794.689,1140.9 796.85,1144.13 799.011,1147.31 801.172,1150.45 803.333,1153.55 805.494,1156.61 807.655,1159.63 809.816,1162.6 811.977,1165.54 814.138,1168.44 816.298,1171.3 818.459,1174.13 820.62,1176.91 822.781,1179.66 824.942,1182.37 827.103,1185.05 829.264,1187.69 831.425,1190.28 833.586,1191.77 835.747,1191.67 837.908,1190.16 840.069,1187.43 842.23,1183.62 844.391,1178.9 846.552,1173.41 848.713,1167.28 850.874,1160.65 853.035,1153.62 855.196,1146.31 857.357,1138.8 859.518,1131.2 861.679,1123.57 863.84,1115.99 866.001,1108.51 868.162,1101.19 870.323,1094.06 872.484,1087.17 874.645,1080.52 876.806,1074.13 878.967,1068 881.128,1062.13 883.289,1056.5 885.45,1051.09 887.611,1045.85 889.772,1040.75 891.933,1035.73 894.094,1030.73 896.255,1025.67 898.416,1020.51 900.577,1015.39 902.738,1010.34 904.899,1005.36 907.06,1000.44 909.221,995.592 911.382,990.805 913.543,986.083 915.704,981.422 917.865,976.824 920.026,972.286 922.187,967.809 924.348,963.391 926.509,959.031 928.669,954.73 930.83,950.485 932.991,946.297 935.152,942.164 937.313,938.085 939.474,934.061 941.635,930.09 943.796,926.171 945.957,922.305 948.118,918.49 950.279,914.725 952.44,911.01 954.601,907.345 956.762,903.728 958.923,900.159 961.084,896.637 963.245,893.162 965.406,889.734 967.567,886.351 969.728,883.012 971.889,879.719 974.05,876.468 976.211,873.261 978.372,870.097 980.533,866.975 982.694,863.894 984.855,860.854 987.016,857.854 989.177,854.894 991.338,851.973 993.499,849.091 995.66,846.248 997.821,843.442 999.982,840.673 1002.14,837.941 1004.3,835.245 1006.46,832.585 1008.63,829.96 1010.79,827.37 1012.95,824.814 1015.11,822.292 1017.27,819.804 1019.43,817.348 1021.59,814.925 1023.75,812.534 1025.91,810.174 1028.07,807.846 1030.24,805.549 1032.4,803.282 1034.56,801.045 1036.72,798.838 1038.88,796.66 1041.04,794.511 1043.2,792.391 1045.36,790.299 1047.52,788.234 1049.68,786.197 1051.85,784.315 1054.01,783.052 1056.17,782.372 1058.33,782.192 1060.49,782.436 1062.65,783.033 1064.81,783.915 1066.97,785.023 1069.13,786.3 1071.29,787.697 1073.46,789.17 1075.62,790.678 1077.78,792.19 1079.94,793.675 1082.1,795.112 1084.26,796.483 1086.42,797.776 1088.58,798.984 1090.74,800.107 1092.9,801.149 1095.07,802.119 1097.23,803.032 1099.39,803.909 1101.55,804.776 1103.71,805.664 1105.87,806.605 1108.03,807.551 1110.19,808.485 1112.35,809.406 1114.51,810.315 1116.67,811.212 1118.84,812.098 1121,812.971 1123.16,813.833 1125.32,814.683 1127.48,815.522 1129.64,816.351 1131.8,817.168 1133.96,817.974 1136.12,818.769 1138.28,819.554 1140.45,820.329 1142.61,821.093 1144.77,821.847 1146.93,822.592 1149.09,823.326 1151.25,824.051 1153.41,824.766 1155.57,825.471 1157.73,826.167 1159.89,826.854 1162.06,827.532 1164.22,828.201 1166.38,828.861 1168.54,829.512 1170.7,830.155 1172.86,830.789 1175.02,831.414 1177.18,832.032 1179.34,832.641 1181.5,833.242 1183.67,833.835 1185.83,834.42 1187.99,834.998 1190.15,835.568 1192.31,836.13 1194.47,836.685 1196.63,837.232 1198.79,837.772 1200.95,838.305 1203.11,838.831 1205.28,839.35 1207.44,839.862 1209.6,840.368 1211.76,840.866 1213.92,841.359 1216.08,841.844 1218.24,842.323 1220.4,842.796 1222.56,843.262 1224.72,843.723 1226.88,844.177 1229.05,844.625 1231.21,845.067 1233.37,845.503 1235.53,845.934 1237.69,846.359 1239.85,846.778 1242.01,847.192 1244.17,847.6 1246.33,848.003 1248.49,848.4 1250.66,848.792 1252.82,849.179 1254.98,849.561 1257.14,849.938 1259.3,850.31 1261.46,850.676 1263.62,851.038 1265.78,851.396 1267.94,851.748 1270.1,852.096 1272.27,852.439 1274.43,852.316 1276.59,850.478 1278.75,847.047 1280.91,842.227 1283.07,836.207 1285.23,829.166 1287.39,821.274 1289.55,812.687 1291.71,803.551 1293.88,793.999 1296.04,784.154 1298.2,774.129 1300.36,764.022 1302.52,753.923 1304.68,743.908 1306.84,734.045 1309,724.387 1311.16,714.979 1313.32,705.851 1315.49,697.026 1317.65,688.511 1319.81,680.305 1321.97,672.395 1324.13,664.755 1326.29,657.351 1328.45,650.133 1330.61,643.045 1332.77,636.014 1334.93,628.961 1337.09,621.812 1339.26,614.711 1341.42,607.704 1343.58,600.789 1345.74,593.967 1347.9,587.235 1350.06,580.592 1352.22,574.037 1354.38,567.569 1356.54,561.187 1358.7,554.889 1360.87,548.675 1363.03,542.543 1365.19,536.493 1367.35,530.523 1369.51,524.632 1371.67,518.819 1373.83,513.083 1375.99,507.423 1378.15,501.838 1380.31,496.327 1382.48,490.888 1384.64,485.522 1386.8,480.227 1388.96,475.001 1391.12,469.845 1393.28,464.758 1395.44,459.738 1397.6,454.784 1399.76,449.897 1401.92,445.074 1404.09,440.315 1406.25,435.619 1408.41,430.986 1410.57,426.414 1412.73,421.903 1414.89,417.452 1417.05,413.06 1419.21,408.726 1421.37,404.45 1423.53,400.231 1425.7,396.068 1427.86,391.96 1430.02,387.906 1432.18,383.907 1434.34,379.96 1436.5,376.066 1438.66,372.224 1440.82,368.432 1442.98,364.691 1445.14,360.999 1447.3,357.357 1449.47,353.762 1451.63,350.215 1453.79,346.716 1455.95,343.262 1458.11,339.854 1460.27,336.492 1462.43,333.174 1464.59,329.899 1466.75,326.668 1468.91,323.48 1471.08,320.334 1473.24,317.23 1475.4,314.167 1477.56,311.144 1479.72,308.162 1481.88,305.222 1484.04,303.622 1486.2,304.237 1488.36,306.8 1490.52,311.06 1492.69,316.777 1494.85,323.73 1497.01,331.71 1499.17,340.522 1501.33,349.988 1503.49,359.942 1505.65,370.235 1507.81,380.729 1509.97,391.305 1512.13,401.854 1514.3,412.285 1516.46,422.52 1518.62,432.496 1520.78,442.164 1522.94,451.49 1525.1,460.454 1527.26,469.051 1529.42,477.291 1531.58,485.198 1533.74,492.809 1535.91,500.179 1538.07,507.375 1540.23,514.478 1542.39,521.586 1544.55,528.809 1546.71,536.101 1548.87,543.298 1551.03,550.399 1553.19,557.406 1555.35,564.32 1557.51,571.142 1559.68,577.874 1561.84,584.516 1564,591.071 1566.16,597.538 1568.32,603.92 1570.48,610.217 1572.64,616.431 1574.8,622.563 1576.96,628.613 1579.12,634.583 1581.29,640.474 1583.45,646.287 1585.61,652.023 1587.77,657.683 1589.93,663.268 1592.09,668.779 1594.25,674.217 1596.41,679.583 1598.57,684.877 1600.73,690.102 1602.9,695.257 1605.06,700.343 1607.22,705.362 1609.38,710.315 1611.54,715.202 1613.7,720.023 1615.86,724.781 1618.02,729.476 1620.18,734.109 1622.34,738.679 1624.51,743.19 1626.67,747.64 1628.83,752.032 1630.99,756.365 1633.15,760.64 1635.31,764.86 1637.47,769.023 1639.63,773.13 1641.79,777.184 1643.95,781.184 1646.12,785.13 1648.28,789.025 1650.44,792.868 1652.6,796.66 1654.76,800.401 1656.92,804.094 1659.08,807.737 1661.24,811.332 1663.4,814.879 1665.56,818.38 1667.72,821.834 1669.89,825.242 1672.05,828.605 1674.21,831.923 1676.37,835.198 1678.53,838.429 1680.69,841.617 1682.85,844.763 1685.01,847.867 1687.17,850.93 1689.33,853.952 1691.5,856.934 1693.66,859.877 1695.82,862.781 1697.98,865.646 1700.14,868.473 1702.3,871.263 1704.46,874.016 1706.62,876.916 1708.78,880.183 1710.94,883.773 1713.11,887.643 1715.27,891.752 1717.43,896.061 1719.59,900.535 1721.75,905.139 1723.91,909.841 1726.07,914.612 1728.23,919.425 1730.39,924.256 1732.55,929.082 1734.72,933.884 1736.88,938.642 1739.04,943.343 1741.2,947.973 1743.36,952.522 1745.52,956.98 1747.68,961.342 1749.84,965.604 1752,969.765 1754.16,973.826 1756.33,977.789 1758.49,981.661 1760.65,985.449 1762.81,989.164 1764.97,992.818 1767.13,996.425 1769.29,1000 1771.45,1003.57 1773.61,1007.13 1775.77,1010.64 1777.93,1014.1 1780.1,1017.52 1782.26,1020.89 1784.42,1024.21 1786.58,1027.5 1788.74,1030.74 1790.9,1033.93 1793.06,1037.08 1795.22,1040.2 1797.38,1043.27 1799.54,1046.3 1801.71,1049.29 1803.87,1052.24 1806.03,1055.15 1808.19,1058.02 1810.35,1060.85 1812.51,1063.65 1814.67,1066.41 1816.83,1069.13 1818.99,1071.82 1821.15,1074.47 1823.32,1077.09 1825.48,1079.67 1827.64,1082.22 1829.8,1084.73 1831.96,1087.21 1834.12,1089.66 1836.28,1092.07 1838.44,1094.46 1840.6,1096.81 1842.76,1099.13 1844.93,1101.42 1847.09,1103.68 1849.25,1105.91 1851.41,1108.11 1853.57,1110.28 1855.73,1112.42 1857.89,1114.53 1860.05,1116.62 1862.21,1118.67 1864.37,1120.7 1866.54,1122.71 1868.7,1124.68 1870.86,1126.63 1873.02,1128.56 1875.18,1130.46 1877.34,1132.33 1879.5,1134.18 1881.66,1136 1883.82,1137.8 1885.98,1139.58 1888.15,1141.33 1890.31,1143.06 1892.47,1144.77 1894.63,1146.45 1896.79,1148.11 1898.95,1149.75 1901.11,1151.37 1903.27,1152.97 1905.43,1154.54 1907.59,1156.09 1909.75,1157.63 1911.92,1159.14 1914.08,1160.63 1916.24,1162.11 1918.4,1163.3 1920.56,1163.44 1922.72,1162.58 1924.88,1160.85 1927.04,1158.34 1929.2,1155.17 1931.36,1151.42 1933.53,1147.19 1935.69,1142.57 1937.85,1137.62 1940.01,1132.44 1942.17,1127.07 1944.33,1121.6 1946.49,1116.06 1948.65,1110.51 1950.81,1105 1952.97,1099.57 1955.14,1094.24 1957.3,1089.04 1959.46,1084 1961.62,1079.12 1963.78,1074.42 1965.94,1069.9 1968.1,1065.57 1970.26,1061.4 1972.42,1057.38 1974.58,1053.5 1976.75,1049.74 1978.91,1046.05 1981.07,1042.4 1983.23,1038.74 1985.39,1035.04 1987.55,1031.29 1989.71,1027.59 1991.87,1023.94 1994.03,1020.34 1996.19,1016.79 1998.36,1013.29 2000.52,1009.83 2002.68,1006.41 2004.84,1003.05 2007,999.723 2009.16,996.444 2011.32,993.208 2013.48,990.015 2015.64,986.865 2017.8,983.756 2019.96,980.689 2022.13,977.662 2024.29,974.675 2026.45,971.728 2028.61,968.82 2030.77,965.951 2032.93,963.119 2035.09,960.325 2037.25,957.569 2039.41,954.848 2041.57,952.164 2043.74,949.515 2045.9,946.902 2048.06,944.323 2050.22,941.778 2052.38,939.267 2054.54,936.789 2056.7,934.345 2058.86,931.932 2061.02,929.552 2063.18,927.203 2065.35,924.885 2067.51,922.598 2069.67,920.342 2071.83,918.115 2073.99,915.918 2076.15,913.75 2078.31,911.61 2080.47,909.499 2082.63,907.416 2084.79,905.361 2086.96,903.333 2089.12,901.332 2091.28,899.357 2093.44,897.408 2095.6,895.486 2097.76,893.589 2099.92,891.717 2102.08,889.869 2104.24,888.047 2106.4,886.248 2108.57,884.473 2110.73,882.722 2112.89,880.994 2115.05,879.289 2117.21,877.607 2119.37,875.946 2121.53,874.372 2123.69,872.884 2125.85,871.415 2128.01,869.908 2130.17,868.323 2132.34,866.631 2134.5,864.818 2136.66,862.884 2138.82,860.84 2140.98,858.713 2143.14,856.542 2145.3,854.381 2147.46,852.289 2149.62,850.238 2151.78,848.215 2153.95,846.218 2156.11,844.248 2158.27,842.304 2160.43,840.386 2162.59,838.494 2164.75,836.626 2166.91,834.783 2169.07,832.965 2171.23,831.17 2173.39,829.4 2175.56,827.653 2177.72,825.929 2179.88,824.228 2182.04,822.549 2184.2,820.893 2186.36,819.259 2188.52,817.646 2190.68,816.055 2192.84,814.485 2195,812.936 2197.17,811.407 2199.33,809.899 2201.49,808.41 2203.65,806.942 2205.81,805.492 2207.97,804.062 2210.13,802.651 2212.29,801.259 2214.45,799.885 2216.61,798.529 2218.78,797.191 2220.94,795.871 2223.1,794.569 2225.26,793.284 2227.42,792.016 2229.58,790.764 2231.74,789.529 2233.9,788.311 2236.06,787.109 2238.22,785.922 2240.38,784.752 2242.55,783.597 2244.71,782.457 2246.87,781.332 2249.03,780.223 2251.19,779.128 2253.35,778.047 2255.51,776.981 2257.67,775.929 2259.83,774.891 2261.99,773.866 2264.16,772.856 2266.32,771.858 2268.48,770.874 2270.64,769.903 2272.8,768.945 2274.96,767.999 2277.12,767.066 2279.28,766.145 2281.44,765.237 2283.6,764.341 2285.77,763.456 2287.93,762.583 2290.09,761.722 2292.25,760.872 2294.41,760.034 2296.57,759.207 2298.73,758.39 2300.89,757.585 2303.05,756.79 2305.21,756.005 2307.38,755.232 2309.54,754.468 2311.7,753.714 2313.86,752.971 2316.02,752.237 2318.18,751.513 2320.34,750.799 2322.5,750.094 2324.66,749.398 2326.82,748.712 2328.99,748.035 2331.15,747.366 2333.31,746.707 2335.47,746.056 2337.63,745.414 2339.79,744.781 2341.95,744.156 2344.11,743.539 2346.27,742.93 2348.43,742.329 2350.59,741.737 2352.76,741.152 "/>
<polyline clip-path="url(#clip361)" style="stroke:#e26f46; stroke-linecap:round; stroke-linejoin:round; stroke-width:4; stroke-opacity:1; fill:none" points="193.936,1156.96 196.097,1156.96 198.258,1156.96 200.419,1156.96 202.58,1156.96 204.741,1156.96 206.902,1156.96 209.063,1156.96 211.224,1156.96 213.385,1156.96 215.546,1156.96 217.707,1156.96 219.868,1156.96 222.029,1156.96 224.19,1156.96 226.351,1156.96 228.512,1156.96 230.673,1156.96 232.834,1156.96 234.995,1156.96 237.156,1156.96 239.317,1156.96 241.478,1156.96 243.639,1156.96 245.8,1156.96 247.961,1156.96 250.122,1156.96 252.282,1156.96 254.443,1156.96 256.604,1156.96 258.765,1156.96 260.926,1156.96 263.087,1156.96 265.248,1156.96 267.409,1156.96 269.57,1156.96 271.731,1156.96 273.892,1156.96 276.053,1156.96 278.214,1156.96 280.375,1156.96 282.536,1156.96 284.697,1156.96 286.858,1156.96 289.019,1156.96 291.18,1156.96 293.341,1156.96 295.502,1156.96 297.663,1156.96 299.824,1156.96 301.985,1156.96 304.146,1156.96 306.307,1156.96 308.468,1156.96 310.629,1156.96 312.79,1156.96 314.951,1156.96 317.112,1156.96 319.273,1156.96 321.434,1156.96 323.595,1156.96 325.756,1156.96 327.917,1156.96 330.078,1156.96 332.239,1156.96 334.4,1156.96 336.561,1156.96 338.722,1156.96 340.883,1156.96 343.044,1156.96 345.205,1156.96 347.366,1156.96 349.527,1156.96 351.688,1156.96 353.849,1156.96 356.01,1156.96 358.171,1156.96 360.332,1156.96 362.493,1156.96 364.653,1156.96 366.814,1156.96 368.975,1156.96 371.136,1156.96 373.297,1156.96 375.458,1156.96 377.619,1156.96 379.78,1156.96 381.941,1156.96 384.102,1156.96 386.263,1156.96 388.424,1156.96 390.585,1156.96 392.746,1156.96 394.907,1156.96 397.068,1156.96 399.229,1156.96 401.39,1156.96 403.551,1156.96 405.712,1156.96 407.873,1156.96 410.034,537.751 412.195,537.751 414.356,537.751 416.517,537.751 418.678,537.751 420.839,537.751 423,537.751 425.161,537.751 427.322,537.751 429.483,537.751 431.644,537.751 433.805,537.751 435.966,537.751 438.127,537.751 440.288,537.751 442.449,537.751 444.61,537.751 446.771,537.751 448.932,537.751 451.093,537.751 453.254,537.751 455.415,537.751 457.576,537.751 459.737,537.751 461.898,537.751 464.059,537.751 466.22,537.751 468.381,537.751 470.542,537.751 472.703,537.751 474.864,537.751 477.024,537.751 479.185,537.751 481.346,537.751 483.507,537.751 485.668,537.751 487.829,537.751 489.99,537.751 492.151,537.751 494.312,537.751 496.473,537.751 498.634,537.751 500.795,537.751 502.956,537.751 505.117,537.751 507.278,537.751 509.439,537.751 511.6,537.751 513.761,537.751 515.922,537.751 518.083,537.751 520.244,537.751 522.405,537.751 524.566,537.751 526.727,537.751 528.888,537.751 531.049,537.751 533.21,537.751 535.371,537.751 537.532,537.751 539.693,537.751 541.854,537.751 544.015,537.751 546.176,537.751 548.337,537.751 550.498,537.751 552.659,537.751 554.82,537.751 556.981,537.751 559.142,537.751 561.303,537.751 563.464,537.751 565.625,537.751 567.786,537.751 569.947,537.751 572.108,537.751 574.269,537.751 576.43,537.751 578.591,537.751 580.752,537.751 582.913,537.751 585.074,537.751 587.235,537.751 589.396,537.751 591.556,537.751 593.717,537.751 595.878,537.751 598.039,537.751 600.2,537.751 602.361,537.751 604.522,537.751 606.683,537.751 608.844,537.751 611.005,537.751 613.166,537.751 615.327,537.751 617.488,537.751 619.649,537.751 621.81,537.751 623.971,537.751 626.132,1384.24 628.293,1384.24 630.454,1384.24 632.615,1384.24 634.776,1384.24 636.937,1384.24 639.098,1384.24 641.259,1384.24 643.42,1384.24 645.581,1384.24 647.742,1384.24 649.903,1384.24 652.064,1384.24 654.225,1384.24 656.386,1384.24 658.547,1384.24 660.708,1384.24 662.869,1384.24 665.03,1384.24 667.191,1384.24 669.352,1384.24 671.513,1384.24 673.674,1384.24 675.835,1384.24 677.996,1384.24 680.157,1384.24 682.318,1384.24 684.479,1384.24 686.64,1384.24 688.801,1384.24 690.962,1384.24 693.123,1384.24 695.284,1384.24 697.445,1384.24 699.606,1384.24 701.767,1384.24 703.927,1384.24 706.088,1384.24 708.249,1384.24 710.41,1384.24 712.571,1384.24 714.732,1384.24 716.893,1384.24 719.054,1384.24 721.215,1384.24 723.376,1384.24 725.537,1384.24 727.698,1384.24 729.859,1384.24 732.02,1384.24 734.181,1384.24 736.342,1384.24 738.503,1384.24 740.664,1384.24 742.825,1384.24 744.986,1384.24 747.147,1384.24 749.308,1384.24 751.469,1384.24 753.63,1384.24 755.791,1384.24 757.952,1384.24 760.113,1384.24 762.274,1384.24 764.435,1384.24 766.596,1384.24 768.757,1384.24 770.918,1384.24 773.079,1384.24 775.24,1384.24 777.401,1384.24 779.562,1384.24 781.723,1384.24 783.884,1384.24 786.045,1384.24 788.206,1384.24 790.367,1384.24 792.528,1384.24 794.689,1384.24 796.85,1384.24 799.011,1384.24 801.172,1384.24 803.333,1384.24 805.494,1384.24 807.655,1384.24 809.816,1384.24 811.977,1384.24 814.138,1384.24 816.298,1384.24 818.459,1384.24 820.62,1384.24 822.781,1384.24 824.942,1384.24 827.103,1384.24 829.264,1384.24 831.425,1384.24 833.586,1384.24 835.747,1384.24 837.908,1384.24 840.069,1384.24 842.23,634.572 844.391,634.572 846.552,634.572 848.713,634.572 850.874,634.572 853.035,634.572 855.196,634.572 857.357,634.572 859.518,634.572 861.679,634.572 863.84,634.572 866.001,634.572 868.162,634.572 870.323,634.572 872.484,634.572 874.645,634.572 876.806,634.572 878.967,634.572 881.128,634.572 883.289,634.572 885.45,634.572 887.611,634.572 889.772,634.572 891.933,634.572 894.094,634.572 896.255,634.572 898.416,634.572 900.577,634.572 902.738,634.572 904.899,634.572 907.06,634.572 909.221,634.572 911.382,634.572 913.543,634.572 915.704,634.572 917.865,634.572 920.026,634.572 922.187,634.572 924.348,634.572 926.509,634.572 928.669,634.572 930.83,634.572 932.991,634.572 935.152,634.572 937.313,634.572 939.474,634.572 941.635,634.572 943.796,634.572 945.957,634.572 948.118,634.572 950.279,634.572 952.44,634.572 954.601,634.572 956.762,634.572 958.923,634.572 961.084,634.572 963.245,634.572 965.406,634.572 967.567,634.572 969.728,634.572 971.889,634.572 974.05,634.572 976.211,634.572 978.372,634.572 980.533,634.572 982.694,634.572 984.855,634.572 987.016,634.572 989.177,634.572 991.338,634.572 993.499,634.572 995.66,634.572 997.821,634.572 999.982,634.572 1002.14,634.572 1004.3,634.572 1006.46,634.572 1008.63,634.572 1010.79,634.572 1012.95,634.572 1015.11,634.572 1017.27,634.572 1019.43,634.572 1021.59,634.572 1023.75,634.572 1025.91,634.572 1028.07,634.572 1030.24,634.572 1032.4,634.572 1034.56,634.572 1036.72,634.572 1038.88,634.572 1041.04,634.572 1043.2,634.572 1045.36,634.572 1047.52,634.572 1049.68,634.572 1051.85,634.572 1054.01,634.572 1056.17,634.572 1058.33,877.979 1060.49,877.979 1062.65,877.979 1064.81,877.979 1066.97,877.979 1069.13,877.979 1071.29,877.979 1073.46,877.979 1075.62,877.979 1077.78,877.979 1079.94,877.979 1082.1,877.979 1084.26,877.979 1086.42,877.979 1088.58,877.979 1090.74,877.979 1092.9,877.979 1095.07,877.979 1097.23,877.979 1099.39,877.979 1101.55,877.979 1103.71,877.979 1105.87,877.979 1108.03,877.979 1110.19,877.979 1112.35,877.979 1114.51,877.979 1116.67,877.979 1118.84,877.979 1121,877.979 1123.16,877.979 1125.32,877.979 1127.48,877.979 1129.64,877.979 1131.8,877.979 1133.96,877.979 1136.12,877.979 1138.28,877.979 1140.45,877.979 1142.61,877.979 1144.77,877.979 1146.93,877.979 1149.09,877.979 1151.25,877.979 1153.41,877.979 1155.57,877.979 1157.73,877.979 1159.89,877.979 1162.06,877.979 1164.22,877.979 1166.38,877.979 1168.54,877.979 1170.7,877.979 1172.86,877.979 1175.02,877.979 1177.18,877.979 1179.34,877.979 1181.5,877.979 1183.67,877.979 1185.83,877.979 1187.99,877.979 1190.15,877.979 1192.31,877.979 1194.47,877.979 1196.63,877.979 1198.79,877.979 1200.95,877.979 1203.11,877.979 1205.28,877.979 1207.44,877.979 1209.6,877.979 1211.76,877.979 1213.92,877.979 1216.08,877.979 1218.24,877.979 1220.4,877.979 1222.56,877.979 1224.72,877.979 1226.88,877.979 1229.05,877.979 1231.21,877.979 1233.37,877.979 1235.53,877.979 1237.69,877.979 1239.85,877.979 1242.01,877.979 1244.17,877.979 1246.33,877.979 1248.49,877.979 1250.66,877.979 1252.82,877.979 1254.98,877.979 1257.14,877.979 1259.3,877.979 1261.46,877.979 1263.62,877.979 1265.78,877.979 1267.94,877.979 1270.1,877.979 1272.27,877.979 1274.43,86.1857 1276.59,86.1857 1278.75,86.1857 1280.91,86.1857 1283.07,86.1857 1285.23,86.1857 1287.39,86.1857 1289.55,86.1857 1291.71,86.1857 1293.88,86.1857 1296.04,86.1857 1298.2,86.1857 1300.36,86.1857 1302.52,86.1857 1304.68,86.1857 1306.84,86.1857 1309,86.1857 1311.16,86.1857 1313.32,86.1857 1315.49,86.1857 1317.65,86.1857 1319.81,86.1857 1321.97,86.1857 1324.13,86.1857 1326.29,86.1857 1328.45,86.1857 1330.61,86.1857 1332.77,86.1857 1334.93,86.1857 1337.09,86.1857 1339.26,86.1857 1341.42,86.1857 1343.58,86.1857 1345.74,86.1857 1347.9,86.1857 1350.06,86.1857 1352.22,86.1857 1354.38,86.1857 1356.54,86.1857 1358.7,86.1857 1360.87,86.1857 1363.03,86.1857 1365.19,86.1857 1367.35,86.1857 1369.51,86.1857 1371.67,86.1857 1373.83,86.1857 1375.99,86.1857 1378.15,86.1857 1380.31,86.1857 1382.48,86.1857 1384.64,86.1857 1386.8,86.1857 1388.96,86.1857 1391.12,86.1857 1393.28,86.1857 1395.44,86.1857 1397.6,86.1857 1399.76,86.1857 1401.92,86.1857 1404.09,86.1857 1406.25,86.1857 1408.41,86.1857 1410.57,86.1857 1412.73,86.1857 1414.89,86.1857 1417.05,86.1857 1419.21,86.1857 1421.37,86.1857 1423.53,86.1857 1425.7,86.1857 1427.86,86.1857 1430.02,86.1857 1432.18,86.1857 1434.34,86.1857 1436.5,86.1857 1438.66,86.1857 1440.82,86.1857 1442.98,86.1857 1445.14,86.1857 1447.3,86.1857 1449.47,86.1857 1451.63,86.1857 1453.79,86.1857 1455.95,86.1857 1458.11,86.1857 1460.27,86.1857 1462.43,86.1857 1464.59,86.1857 1466.75,86.1857 1468.91,86.1857 1471.08,86.1857 1473.24,86.1857 1475.4,86.1857 1477.56,86.1857 1479.72,86.1857 1481.88,86.1857 1484.04,86.1857 1486.2,86.1857 1488.36,86.1857 1490.52,1078.9 1492.69,1078.9 1494.85,1078.9 1497.01,1078.9 1499.17,1078.9 1501.33,1078.9 1503.49,1078.9 1505.65,1078.9 1507.81,1078.9 1509.97,1078.9 1512.13,1078.9 1514.3,1078.9 1516.46,1078.9 1518.62,1078.9 1520.78,1078.9 1522.94,1078.9 1525.1,1078.9 1527.26,1078.9 1529.42,1078.9 1531.58,1078.9 1533.74,1078.9 1535.91,1078.9 1538.07,1078.9 1540.23,1078.9 1542.39,1078.9 1544.55,1078.9 1546.71,1078.9 1548.87,1078.9 1551.03,1078.9 1553.19,1078.9 1555.35,1078.9 1557.51,1078.9 1559.68,1078.9 1561.84,1078.9 1564,1078.9 1566.16,1078.9 1568.32,1078.9 1570.48,1078.9 1572.64,1078.9 1574.8,1078.9 1576.96,1078.9 1579.12,1078.9 1581.29,1078.9 1583.45,1078.9 1585.61,1078.9 1587.77,1078.9 1589.93,1078.9 1592.09,1078.9 1594.25,1078.9 1596.41,1078.9 1598.57,1078.9 1600.73,1078.9 1602.9,1078.9 1605.06,1078.9 1607.22,1078.9 1609.38,1078.9 1611.54,1078.9 1613.7,1078.9 1615.86,1078.9 1618.02,1078.9 1620.18,1078.9 1622.34,1078.9 1624.51,1078.9 1626.67,1078.9 1628.83,1078.9 1630.99,1078.9 1633.15,1078.9 1635.31,1078.9 1637.47,1078.9 1639.63,1078.9 1641.79,1078.9 1643.95,1078.9 1646.12,1078.9 1648.28,1078.9 1650.44,1078.9 1652.6,1078.9 1654.76,1078.9 1656.92,1078.9 1659.08,1078.9 1661.24,1078.9 1663.4,1078.9 1665.56,1078.9 1667.72,1078.9 1669.89,1078.9 1672.05,1078.9 1674.21,1078.9 1676.37,1078.9 1678.53,1078.9 1680.69,1078.9 1682.85,1078.9 1685.01,1078.9 1687.17,1078.9 1689.33,1078.9 1691.5,1078.9 1693.66,1078.9 1695.82,1078.9 1697.98,1078.9 1700.14,1078.9 1702.3,1078.9 1704.46,1078.9 1706.62,1271.79 1708.78,1271.79 1710.94,1271.79 1713.11,1271.79 1715.27,1271.79 1717.43,1271.79 1719.59,1271.79 1721.75,1271.79 1723.91,1271.79 1726.07,1271.79 1728.23,1271.79 1730.39,1271.79 1732.55,1271.79 1734.72,1271.79 1736.88,1271.79 1739.04,1271.79 1741.2,1271.79 1743.36,1271.79 1745.52,1271.79 1747.68,1271.79 1749.84,1271.79 1752,1271.79 1754.16,1271.79 1756.33,1271.79 1758.49,1271.79 1760.65,1271.79 1762.81,1271.79 1764.97,1271.79 1767.13,1271.79 1769.29,1271.79 1771.45,1271.79 1773.61,1271.79 1775.77,1271.79 1777.93,1271.79 1780.1,1271.79 1782.26,1271.79 1784.42,1271.79 1786.58,1271.79 1788.74,1271.79 1790.9,1271.79 1793.06,1271.79 1795.22,1271.79 1797.38,1271.79 1799.54,1271.79 1801.71,1271.79 1803.87,1271.79 1806.03,1271.79 1808.19,1271.79 1810.35,1271.79 1812.51,1271.79 1814.67,1271.79 1816.83,1271.79 1818.99,1271.79 1821.15,1271.79 1823.32,1271.79 1825.48,1271.79 1827.64,1271.79 1829.8,1271.79 1831.96,1271.79 1834.12,1271.79 1836.28,1271.79 1838.44,1271.79 1840.6,1271.79 1842.76,1271.79 1844.93,1271.79 1847.09,1271.79 1849.25,1271.79 1851.41,1271.79 1853.57,1271.79 1855.73,1271.79 1857.89,1271.79 1860.05,1271.79 1862.21,1271.79 1864.37,1271.79 1866.54,1271.79 1868.7,1271.79 1870.86,1271.79 1873.02,1271.79 1875.18,1271.79 1877.34,1271.79 1879.5,1271.79 1881.66,1271.79 1883.82,1271.79 1885.98,1271.79 1888.15,1271.79 1890.31,1271.79 1892.47,1271.79 1894.63,1271.79 1896.79,1271.79 1898.95,1271.79 1901.11,1271.79 1903.27,1271.79 1905.43,1271.79 1907.59,1271.79 1909.75,1271.79 1911.92,1271.79 1914.08,1271.79 1916.24,1271.79 1918.4,1271.79 1920.56,1271.79 1922.72,752.387 1924.88,752.387 1927.04,752.387 1929.2,752.387 1931.36,752.387 1933.53,752.387 1935.69,752.387 1937.85,752.387 1940.01,752.387 1942.17,752.387 1944.33,752.387 1946.49,752.387 1948.65,752.387 1950.81,752.387 1952.97,752.387 1955.14,752.387 1957.3,752.387 1959.46,752.387 1961.62,752.387 1963.78,752.387 1965.94,752.387 1968.1,752.387 1970.26,752.387 1972.42,752.387 1974.58,752.387 1976.75,752.387 1978.91,752.387 1981.07,752.387 1983.23,752.387 1985.39,752.387 1987.55,752.387 1989.71,752.387 1991.87,752.387 1994.03,752.387 1996.19,752.387 1998.36,752.387 2000.52,752.387 2002.68,752.387 2004.84,752.387 2007,752.387 2009.16,752.387 2011.32,752.387 2013.48,752.387 2015.64,752.387 2017.8,752.387 2019.96,752.387 2022.13,752.387 2024.29,752.387 2026.45,752.387 2028.61,752.387 2030.77,752.387 2032.93,752.387 2035.09,752.387 2037.25,752.387 2039.41,752.387 2041.57,752.387 2043.74,752.387 2045.9,752.387 2048.06,752.387 2050.22,752.387 2052.38,752.387 2054.54,752.387 2056.7,752.387 2058.86,752.387 2061.02,752.387 2063.18,752.387 2065.35,752.387 2067.51,752.387 2069.67,752.387 2071.83,752.387 2073.99,752.387 2076.15,752.387 2078.31,752.387 2080.47,752.387 2082.63,752.387 2084.79,752.387 2086.96,752.387 2089.12,752.387 2091.28,752.387 2093.44,752.387 2095.6,752.387 2097.76,752.387 2099.92,752.387 2102.08,752.387 2104.24,752.387 2106.4,752.387 2108.57,752.387 2110.73,752.387 2112.89,752.387 2115.05,752.387 2117.21,752.387 2119.37,752.387 2121.53,752.387 2123.69,752.387 2125.85,752.387 2128.01,752.387 2130.17,752.387 2132.34,752.387 2134.5,752.387 2136.66,752.387 2138.82,697.629 2140.98,697.629 2143.14,697.629 2145.3,697.629 2147.46,697.629 2149.62,697.629 2151.78,697.629 2153.95,697.629 2156.11,697.629 2158.27,697.629 2160.43,697.629 2162.59,697.629 2164.75,697.629 2166.91,697.629 2169.07,697.629 2171.23,697.629 2173.39,697.629 2175.56,697.629 2177.72,697.629 2179.88,697.629 2182.04,697.629 2184.2,697.629 2186.36,697.629 2188.52,697.629 2190.68,697.629 2192.84,697.629 2195,697.629 2197.17,697.629 2199.33,697.629 2201.49,697.629 2203.65,697.629 2205.81,697.629 2207.97,697.629 2210.13,697.629 2212.29,697.629 2214.45,697.629 2216.61,697.629 2218.78,697.629 2220.94,697.629 2223.1,697.629 2225.26,697.629 2227.42,697.629 2229.58,697.629 2231.74,697.629 2233.9,697.629 2236.06,697.629 2238.22,697.629 2240.38,697.629 2242.55,697.629 2244.71,697.629 2246.87,697.629 2249.03,697.629 2251.19,697.629 2253.35,697.629 2255.51,697.629 2257.67,697.629 2259.83,697.629 2261.99,697.629 2264.16,697.629 2266.32,697.629 2268.48,697.629 2270.64,697.629 2272.8,697.629 2274.96,697.629 2277.12,697.629 2279.28,697.629 2281.44,697.629 2283.6,697.629 2285.77,697.629 2287.93,697.629 2290.09,697.629 2292.25,697.629 2294.41,697.629 2296.57,697.629 2298.73,697.629 2300.89,697.629 2303.05,697.629 2305.21,697.629 2307.38,697.629 2309.54,697.629 2311.7,697.629 2313.86,697.629 2316.02,697.629 2318.18,697.629 2320.34,697.629 2322.5,697.629 2324.66,697.629 2326.82,697.629 2328.99,697.629 2331.15,697.629 2333.31,697.629 2335.47,697.629 2337.63,697.629 2339.79,697.629 2341.95,697.629 2344.11,697.629 2346.27,697.629 2348.43,697.629 2350.59,697.629 2352.76,697.629 "/>
<path clip-path="url(#clip360)" d="M2039.77 248.629 L2280.8 248.629 L2280.8 93.1086 L2039.77 93.1086  Z" fill="#ffffff" fill-rule="evenodd" fill-opacity="1"/>
<polyline clip-path="url(#clip360)" style="stroke:#000000; stroke-linecap:round; stroke-linejoin:round; stroke-width:4; stroke-opacity:1; fill:none" points="2039.77,248.629 2280.8,248.629 2280.8,93.1086 2039.77,93.1086 2039.77,248.629 "/>
<polyline clip-path="url(#clip360)" style="stroke:#009af9; stroke-linecap:round; stroke-linejoin:round; stroke-width:4; stroke-opacity:1; fill:none" points="2063.76,144.949 2207.68,144.949 "/>
<path clip-path="url(#clip360)" d="M2256.32 136.303 L2246.95 148.919 L2256.81 162.229 L2251.79 162.229 L2244.24 152.043 L2236.69 162.229 L2231.67 162.229 L2241.74 148.664 L2232.53 136.303 L2237.55 136.303 L2244.42 145.539 L2251.3 136.303 L2256.32 136.303 Z" fill="#000000" fill-rule="nonzero" fill-opacity="1" /><polyline clip-path="url(#clip360)" style="stroke:#e26f46; stroke-linecap:round; stroke-linejoin:round; stroke-width:4; stroke-opacity:1; fill:none" points="2063.76,196.789 2207.68,196.789 "/>
<path clip-path="url(#clip360)" d="M2248.17 178.05 L2248.17 181.592 L2244.1 181.592 Q2241.81 181.592 2240.91 182.518 Q2240.03 183.444 2240.03 185.851 L2240.03 188.143 L2247.04 188.143 L2247.04 191.453 L2240.03 191.453 L2240.03 214.069 L2235.74 214.069 L2235.74 191.453 L2231.67 191.453 L2231.67 188.143 L2235.74 188.143 L2235.74 186.337 Q2235.74 182.009 2237.76 180.041 Q2239.77 178.05 2244.15 178.05 L2248.17 178.05 Z" fill="#000000" fill-rule="nonzero" fill-opacity="1" /></svg>
