<?xml version="1.0" encoding="utf-8"?>
<svg xmlns="http://www.w3.org/2000/svg" xmlns:xlink="http://www.w3.org/1999/xlink" width="600" height="400" viewBox="0 0 2400 1600">
<defs>
  <clipPath id="clip080">
    <rect x="0" y="0" width="2400" height="1600"/>
  </clipPath>
</defs>
<path clip-path="url(#clip080)" d="M0 1600 L2400 1600 L2400 0 L0 0  Z" fill="#ffffff" fill-rule="evenodd" fill-opacity="1"/>
<defs>
  <clipPath id="clip081">
    <rect x="480" y="0" width="1681" height="1600"/>
  </clipPath>
</defs>
<path clip-path="url(#clip080)" d="M147.478 1423.18 L2352.76 1423.18 L2352.76 47.2441 L147.478 47.2441  Z" fill="#ffffff" fill-rule="evenodd" fill-opacity="1"/>
<defs>
  <clipPath id="clip082">
    <rect x="147" y="47" width="2206" height="1377"/>
  </clipPath>
</defs>
<polyline clip-path="url(#clip082)" style="stroke:#000000; stroke-linecap:round; stroke-linejoin:round; stroke-width:2; stroke-opacity:0.1; fill:none" points="147.478,1423.18 147.478,47.2441 "/>
<polyline clip-path="url(#clip082)" style="stroke:#000000; stroke-linecap:round; stroke-linejoin:round; stroke-width:2; stroke-opacity:0.1; fill:none" points="588.534,1423.18 588.534,47.2441 "/>
<polyline clip-path="url(#clip082)" style="stroke:#000000; stroke-linecap:round; stroke-linejoin:round; stroke-width:2; stroke-opacity:0.1; fill:none" points="1029.59,1423.18 1029.59,47.2441 "/>
<polyline clip-path="url(#clip082)" style="stroke:#000000; stroke-linecap:round; stroke-linejoin:round; stroke-width:2; stroke-opacity:0.1; fill:none" points="1470.64,1423.18 1470.64,47.2441 "/>
<polyline clip-path="url(#clip082)" style="stroke:#000000; stroke-linecap:round; stroke-linejoin:round; stroke-width:2; stroke-opacity:0.1; fill:none" points="1911.7,1423.18 1911.7,47.2441 "/>
<polyline clip-path="url(#clip082)" style="stroke:#000000; stroke-linecap:round; stroke-linejoin:round; stroke-width:2; stroke-opacity:0.1; fill:none" points="2352.76,1423.18 2352.76,47.2441 "/>
<polyline clip-path="url(#clip080)" style="stroke:#000000; stroke-linecap:round; stroke-linejoin:round; stroke-width:4; stroke-opacity:1; fill:none" points="147.478,1423.18 2352.76,1423.18 "/>
<polyline clip-path="url(#clip080)" style="stroke:#000000; stroke-linecap:round; stroke-linejoin:round; stroke-width:4; stroke-opacity:1; fill:none" points="147.478,1423.18 147.478,1404.28 "/>
<polyline clip-path="url(#clip080)" style="stroke:#000000; stroke-linecap:round; stroke-linejoin:round; stroke-width:4; stroke-opacity:1; fill:none" points="588.534,1423.18 588.534,1404.28 "/>
<polyline clip-path="url(#clip080)" style="stroke:#000000; stroke-linecap:round; stroke-linejoin:round; stroke-width:4; stroke-opacity:1; fill:none" points="1029.59,1423.18 1029.59,1404.28 "/>
<polyline clip-path="url(#clip080)" style="stroke:#000000; stroke-linecap:round; stroke-linejoin:round; stroke-width:4; stroke-opacity:1; fill:none" points="1470.64,1423.18 1470.64,1404.28 "/>
<polyline clip-path="url(#clip080)" style="stroke:#000000; stroke-linecap:round; stroke-linejoin:round; stroke-width:4; stroke-opacity:1; fill:none" points="1911.7,1423.18 1911.7,1404.28 "/>
<polyline clip-path="url(#clip080)" style="stroke:#000000; stroke-linecap:round; stroke-linejoin:round; stroke-width:4; stroke-opacity:1; fill:none" points="2352.76,1423.18 2352.76,1404.28 "/>
<path clip-path="url(#clip080)" d="M147.478 1454.1 Q143.867 1454.1 142.038 1457.66 Q140.233 1461.2 140.233 1468.33 Q140.233 1475.44 142.038 1479.01 Q143.867 1482.55 147.478 1482.55 Q151.112 1482.55 152.918 1479.01 Q154.746 1475.44 154.746 1468.33 Q154.746 1461.2 152.918 1457.66 Q151.112 1454.1 147.478 1454.1 M147.478 1450.39 Q153.288 1450.39 156.344 1455 Q159.422 1459.58 159.422 1468.33 Q159.422 1477.06 156.344 1481.67 Q153.288 1486.25 147.478 1486.25 Q141.668 1486.25 138.589 1481.67 Q135.534 1477.06 135.534 1468.33 Q135.534 1459.58 138.589 1455 Q141.668 1450.39 147.478 1450.39 Z" fill="#000000" fill-rule="nonzero" fill-opacity="1" /><path clip-path="url(#clip080)" d="M583.186 1481.64 L599.506 1481.64 L599.506 1485.58 L577.561 1485.58 L577.561 1481.64 Q580.223 1478.89 584.807 1474.26 Q589.413 1469.61 590.594 1468.27 Q592.839 1465.74 593.719 1464.01 Q594.621 1462.25 594.621 1460.56 Q594.621 1457.8 592.677 1456.07 Q590.756 1454.33 587.654 1454.33 Q585.455 1454.33 583.001 1455.09 Q580.571 1455.86 577.793 1457.41 L577.793 1452.69 Q580.617 1451.55 583.071 1450.97 Q585.524 1450.39 587.561 1450.39 Q592.932 1450.39 596.126 1453.08 Q599.32 1455.77 599.32 1460.26 Q599.32 1462.39 598.51 1464.31 Q597.723 1466.2 595.617 1468.8 Q595.038 1469.47 591.936 1472.69 Q588.834 1475.88 583.186 1481.64 Z" fill="#000000" fill-rule="nonzero" fill-opacity="1" /><path clip-path="url(#clip080)" d="M1032.6 1455.09 L1020.79 1473.54 L1032.6 1473.54 L1032.6 1455.09 M1031.37 1451.02 L1037.25 1451.02 L1037.25 1473.54 L1042.18 1473.54 L1042.18 1477.43 L1037.25 1477.43 L1037.25 1485.58 L1032.6 1485.58 L1032.6 1477.43 L1017 1477.43 L1017 1472.92 L1031.37 1451.02 Z" fill="#000000" fill-rule="nonzero" fill-opacity="1" /><path clip-path="url(#clip080)" d="M1471.05 1466.44 Q1467.9 1466.44 1466.05 1468.59 Q1464.22 1470.74 1464.22 1474.49 Q1464.22 1478.22 1466.05 1480.39 Q1467.9 1482.55 1471.05 1482.55 Q1474.2 1482.55 1476.03 1480.39 Q1477.88 1478.22 1477.88 1474.49 Q1477.88 1470.74 1476.03 1468.59 Q1474.2 1466.44 1471.05 1466.44 M1480.33 1451.78 L1480.33 1456.04 Q1478.57 1455.21 1476.77 1454.77 Q1474.98 1454.33 1473.23 1454.33 Q1468.6 1454.33 1466.14 1457.45 Q1463.71 1460.58 1463.36 1466.9 Q1464.73 1464.89 1466.79 1463.82 Q1468.85 1462.73 1471.33 1462.73 Q1476.54 1462.73 1479.55 1465.9 Q1482.58 1469.05 1482.58 1474.49 Q1482.58 1479.82 1479.43 1483.03 Q1476.28 1486.25 1471.05 1486.25 Q1465.05 1486.25 1461.88 1481.67 Q1458.71 1477.06 1458.71 1468.33 Q1458.71 1460.14 1462.6 1455.28 Q1466.49 1450.39 1473.04 1450.39 Q1474.8 1450.39 1476.58 1450.74 Q1478.39 1451.09 1480.33 1451.78 Z" fill="#000000" fill-rule="nonzero" fill-opacity="1" /><path clip-path="url(#clip080)" d="M1911.7 1469.17 Q1908.37 1469.17 1906.45 1470.95 Q1904.55 1472.73 1904.55 1475.86 Q1904.55 1478.98 1906.45 1480.77 Q1908.37 1482.55 1911.7 1482.55 Q1915.03 1482.55 1916.95 1480.77 Q1918.88 1478.96 1918.88 1475.86 Q1918.88 1472.73 1916.95 1470.95 Q1915.06 1469.17 1911.7 1469.17 M1907.02 1467.18 Q1904.02 1466.44 1902.33 1464.38 Q1900.66 1462.32 1900.66 1459.35 Q1900.66 1455.21 1903.6 1452.8 Q1906.56 1450.39 1911.7 1450.39 Q1916.86 1450.39 1919.8 1452.8 Q1922.74 1455.21 1922.74 1459.35 Q1922.74 1462.32 1921.05 1464.38 Q1919.39 1466.44 1916.4 1467.18 Q1919.78 1467.96 1921.65 1470.26 Q1923.55 1472.55 1923.55 1475.86 Q1923.55 1480.88 1920.47 1483.57 Q1917.42 1486.25 1911.7 1486.25 Q1905.98 1486.25 1902.9 1483.57 Q1899.85 1480.88 1899.85 1475.86 Q1899.85 1472.55 1901.75 1470.26 Q1903.64 1467.96 1907.02 1467.18 M1905.31 1459.79 Q1905.31 1462.48 1906.98 1463.98 Q1908.67 1465.49 1911.7 1465.49 Q1914.71 1465.49 1916.4 1463.98 Q1918.11 1462.48 1918.11 1459.79 Q1918.11 1457.11 1916.4 1455.6 Q1914.71 1454.1 1911.7 1454.1 Q1908.67 1454.1 1906.98 1455.6 Q1905.31 1457.11 1905.31 1459.79 Z" fill="#000000" fill-rule="nonzero" fill-opacity="1" /><path clip-path="url(#clip080)" d="M2327.44 1481.64 L2335.08 1481.64 L2335.08 1455.28 L2326.77 1456.95 L2326.77 1452.69 L2335.04 1451.02 L2339.71 1451.02 L2339.71 1481.64 L2347.35 1481.64 L2347.35 1485.58 L2327.44 1485.58 L2327.44 1481.64 Z" fill="#000000" fill-rule="nonzero" fill-opacity="1" /><path clip-path="url(#clip080)" d="M2366.8 1454.1 Q2363.18 1454.1 2361.36 1457.66 Q2359.55 1461.2 2359.55 1468.33 Q2359.55 1475.44 2361.36 1479.01 Q2363.18 1482.55 2366.8 1482.55 Q2370.43 1482.55 2372.23 1479.01 Q2374.06 1475.44 2374.06 1468.33 Q2374.06 1461.2 2372.23 1457.66 Q2370.43 1454.1 2366.8 1454.1 M2366.8 1450.39 Q2372.61 1450.39 2375.66 1455 Q2378.74 1459.58 2378.74 1468.33 Q2378.74 1477.06 2375.66 1481.67 Q2372.61 1486.25 2366.8 1486.25 Q2360.99 1486.25 2357.91 1481.67 Q2354.85 1477.06 2354.85 1468.33 Q2354.85 1459.58 2357.91 1455 Q2360.99 1450.39 2366.8 1450.39 Z" fill="#000000" fill-rule="nonzero" fill-opacity="1" /><path clip-path="url(#clip080)" d="M1249.18 1522.27 L1249.18 1532.4 L1261.24 1532.4 L1261.24 1536.95 L1249.18 1536.95 L1249.18 1556.3 Q1249.18 1560.66 1250.36 1561.9 Q1251.57 1563.14 1255.23 1563.14 L1261.24 1563.14 L1261.24 1568.04 L1255.23 1568.04 Q1248.45 1568.04 1245.87 1565.53 Q1243.29 1562.98 1243.29 1556.3 L1243.29 1536.95 L1238.99 1536.95 L1238.99 1532.4 L1243.29 1532.4 L1243.29 1522.27 L1249.18 1522.27 Z" fill="#000000" fill-rule="nonzero" fill-opacity="1" /><polyline clip-path="url(#clip082)" style="stroke:#000000; stroke-linecap:round; stroke-linejoin:round; stroke-width:2; stroke-opacity:0.1; fill:none" points="147.478,1333.74 2352.76,1333.74 "/>
<polyline clip-path="url(#clip082)" style="stroke:#000000; stroke-linecap:round; stroke-linejoin:round; stroke-width:2; stroke-opacity:0.1; fill:none" points="147.478,963.191 2352.76,963.191 "/>
<polyline clip-path="url(#clip082)" style="stroke:#000000; stroke-linecap:round; stroke-linejoin:round; stroke-width:2; stroke-opacity:0.1; fill:none" points="147.478,592.638 2352.76,592.638 "/>
<polyline clip-path="url(#clip082)" style="stroke:#000000; stroke-linecap:round; stroke-linejoin:round; stroke-width:2; stroke-opacity:0.1; fill:none" points="147.478,222.085 2352.76,222.085 "/>
<polyline clip-path="url(#clip080)" style="stroke:#000000; stroke-linecap:round; stroke-linejoin:round; stroke-width:4; stroke-opacity:1; fill:none" points="147.478,1423.18 147.478,47.2441 "/>
<polyline clip-path="url(#clip080)" style="stroke:#000000; stroke-linecap:round; stroke-linejoin:round; stroke-width:4; stroke-opacity:1; fill:none" points="147.478,1333.74 166.376,1333.74 "/>
<polyline clip-path="url(#clip080)" style="stroke:#000000; stroke-linecap:round; stroke-linejoin:round; stroke-width:4; stroke-opacity:1; fill:none" points="147.478,963.191 166.376,963.191 "/>
<polyline clip-path="url(#clip080)" style="stroke:#000000; stroke-linecap:round; stroke-linejoin:round; stroke-width:4; stroke-opacity:1; fill:none" points="147.478,592.638 166.376,592.638 "/>
<polyline clip-path="url(#clip080)" style="stroke:#000000; stroke-linecap:round; stroke-linejoin:round; stroke-width:4; stroke-opacity:1; fill:none" points="147.478,222.085 166.376,222.085 "/>
<path clip-path="url(#clip080)" d="M50.9921 1334.19 L80.6679 1334.19 L80.6679 1338.13 L50.9921 1338.13 L50.9921 1334.19 Z" fill="#000000" fill-rule="nonzero" fill-opacity="1" /><path clip-path="url(#clip080)" d="M91.5706 1347.09 L99.2095 1347.09 L99.2095 1320.72 L90.8993 1322.39 L90.8993 1318.13 L99.1632 1316.46 L103.839 1316.46 L103.839 1347.09 L111.478 1347.09 L111.478 1351.02 L91.5706 1351.02 L91.5706 1347.09 Z" fill="#000000" fill-rule="nonzero" fill-opacity="1" /><path clip-path="url(#clip080)" d="M99.5335 948.989 Q95.9224 948.989 94.0937 952.554 Q92.2882 956.096 92.2882 963.225 Q92.2882 970.332 94.0937 973.897 Q95.9224 977.438 99.5335 977.438 Q103.168 977.438 104.973 973.897 Q106.802 970.332 106.802 963.225 Q106.802 956.096 104.973 952.554 Q103.168 948.989 99.5335 948.989 M99.5335 945.286 Q105.344 945.286 108.399 949.892 Q111.478 954.475 111.478 963.225 Q111.478 971.952 108.399 976.559 Q105.344 981.142 99.5335 981.142 Q93.7234 981.142 90.6447 976.559 Q87.5892 971.952 87.5892 963.225 Q87.5892 954.475 90.6447 949.892 Q93.7234 945.286 99.5335 945.286 Z" fill="#000000" fill-rule="nonzero" fill-opacity="1" /><path clip-path="url(#clip080)" d="M91.5706 605.983 L99.2095 605.983 L99.2095 579.617 L90.8993 581.284 L90.8993 577.025 L99.1632 575.358 L103.839 575.358 L103.839 605.983 L111.478 605.983 L111.478 609.918 L91.5706 609.918 L91.5706 605.983 Z" fill="#000000" fill-rule="nonzero" fill-opacity="1" /><path clip-path="url(#clip080)" d="M95.1586 235.43 L111.478 235.43 L111.478 239.365 L89.5336 239.365 L89.5336 235.43 Q92.1956 232.676 96.7789 228.046 Q101.385 223.393 102.566 222.051 Q104.811 219.527 105.691 217.791 Q106.594 216.032 106.594 214.342 Q106.594 211.588 104.649 209.852 Q102.728 208.116 99.6261 208.116 Q97.4271 208.116 94.9734 208.879 Q92.5428 209.643 89.7651 211.194 L89.7651 206.472 Q92.5891 205.338 95.0428 204.759 Q97.4965 204.18 99.5335 204.18 Q104.904 204.18 108.098 206.866 Q111.293 209.551 111.293 214.041 Q111.293 216.171 110.483 218.092 Q109.696 219.99 107.589 222.583 Q107.01 223.254 103.909 226.472 Q100.807 229.666 95.1586 235.43 Z" fill="#000000" fill-rule="nonzero" fill-opacity="1" /><polyline clip-path="url(#clip082)" style="stroke:#009af9; stroke-linecap:round; stroke-linejoin:round; stroke-width:4; stroke-opacity:1; fill:none" points="147.478,963.191 149.685,964.605 151.893,966.001 154.1,967.379 156.308,968.738 158.515,970.079 160.723,971.402 162.93,972.708 165.138,973.997 167.345,975.268 169.553,976.523 171.76,977.761 173.968,978.982 176.175,980.187 178.383,981.377 180.59,982.55 182.798,983.708 185.005,984.851 187.213,985.978 189.42,987.091 191.628,988.189 193.835,989.272 196.043,990.341 198.25,991.396 200.458,992.436 202.665,993.463 204.873,994.477 207.08,995.477 209.288,996.463 211.495,997.437 213.702,998.397 215.91,999.345 218.117,1000.28 220.325,1001.2 222.532,1002.11 224.74,1003.01 226.947,1003.9 229.155,1004.77 231.362,1005.64 233.57,1006.49 235.777,1007.33 237.985,1008.16 240.192,1008.98 242.4,1009.79 244.607,1010.58 246.815,1011.37 249.022,1012.15 251.23,1012.91 253.437,1013.67 255.645,1014.41 257.852,1015.15 260.06,1015.87 262.267,1016.59 264.475,1017.3 266.682,1017.99 268.89,1018.68 271.097,1019.36 273.305,1020.03 275.512,1020.69 277.72,1021.34 279.927,1021.99 282.135,1022.62 284.342,1023.25 286.549,1023.87 288.757,1024.48 290.964,1025.08 293.172,1025.67 295.379,1026.26 297.587,1026.84 299.794,1027.41 302.002,1027.97 304.209,1028.53 306.417,1029.08 308.624,1029.62 310.832,1030.15 313.039,1030.68 315.247,1031.2 317.454,1031.71 319.662,1032.22 321.869,1032.72 324.077,1033.21 326.284,1033.7 328.492,1034.18 330.699,1034.65 332.907,1035.12 335.114,1035.58 337.322,1036.03 339.529,1036.49 341.737,1036.95 343.944,1037.42 346.152,1037.88 348.359,1038.34 350.567,1038.79 352.774,1039.23 354.982,1039.67 357.189,1040.1 359.397,1040.51 361.604,1040.91 363.811,1041.29 366.019,1041.66 368.226,1042.02 370.434,1042.35 372.641,1042.67 374.849,1042.97 377.056,1043.26 379.264,1043.52 381.471,1043.77 383.679,1044.01 385.886,1044.22 388.094,1044.42 390.301,1044.61 392.509,1044.78 394.716,1044.94 396.924,1045.09 399.131,1045.24 401.339,1045.37 403.546,1045.5 405.754,1045.63 407.961,1045.75 410.169,1045.88 412.376,1046.02 414.584,1046.15 416.791,1046.29 418.999,1046.42 421.206,1046.55 423.414,1046.68 425.621,1046.8 427.829,1046.93 430.036,1047.05 432.244,1047.18 434.451,1047.3 436.659,1047.42 438.866,1047.53 441.073,1047.65 443.281,1047.76 445.488,1047.88 447.696,1047.99 449.903,1048.1 452.111,1048.2 454.318,1048.31 456.526,1048.42 458.733,1048.52 460.941,1048.62 463.148,1048.72 465.356,1048.82 467.563,1048.92 469.771,1049.02 471.978,1049.12 474.186,1049.21 476.393,1049.3 478.601,1049.4 480.808,1049.49 483.016,1049.58 485.223,1049.67 487.431,1049.75 489.638,1049.84 491.846,1049.93 494.053,1050.01 496.261,1050.09 498.468,1050.17 500.676,1050.25 502.883,1050.33 505.091,1050.41 507.298,1050.49 509.506,1050.57 511.713,1050.64 513.921,1050.72 516.128,1050.79 518.335,1050.86 520.543,1050.93 522.75,1051.01 524.958,1051.07 527.165,1051.14 529.373,1051.21 531.58,1051.28 533.788,1051.34 535.995,1051.41 538.203,1051.47 540.41,1051.54 542.618,1051.6 544.825,1051.66 547.033,1051.72 549.24,1051.78 551.448,1051.84 553.655,1051.9 555.863,1051.96 558.07,1052.02 560.278,1052.07 562.485,1052.13 564.693,1052.18 566.9,1052.24 569.108,1052.29 571.315,1052.34 573.523,1052.39 575.73,1052.45 577.938,1052.5 580.145,1052.55 582.353,1052.6 584.56,1052.64 586.768,1052.48 588.975,1051.23 591.182,1048.93 593.39,1045.75 595.597,1041.81 597.805,1037.26 600.012,1032.2 602.22,1026.75 604.427,1021.02 606.635,1015.1 608.842,1009.06 611.05,1002.98 613.257,996.924 615.465,990.946 617.672,985.089 619.88,979.387 622.087,973.864 624.295,968.535 626.502,963.406 628.71,958.471 630.917,953.718 633.125,949.121 635.332,944.648 637.54,940.255 639.747,935.89 641.955,931.49 644.162,927.049 646.37,922.664 648.577,918.337 650.785,914.068 652.992,909.855 655.2,905.698 657.407,901.596 659.615,897.549 661.822,893.555 664.03,889.614 666.237,885.725 668.444,881.888 670.652,878.102 672.859,874.366 675.067,870.68 677.274,867.042 679.482,863.453 681.689,859.911 683.897,856.416 686.104,852.967 688.312,849.564 690.519,846.206 692.727,842.893 694.934,839.624 697.142,836.398 699.349,833.215 701.557,830.074 703.764,826.975 705.972,823.916 708.179,820.899 710.387,817.921 712.594,814.983 714.802,812.084 717.009,809.224 719.217,806.401 721.424,803.616 723.632,800.867 725.839,798.155 728.047,795.48 730.254,792.839 732.462,790.234 734.669,787.663 736.877,785.126 739.084,782.623 741.292,780.152 743.499,777.715 745.706,775.31 747.914,772.937 750.121,770.595 752.329,768.284 754.536,766.004 756.744,763.755 758.951,761.535 761.159,759.344 763.366,757.182 765.574,755.05 767.781,752.945 769.989,750.868 772.196,748.819 774.404,746.797 776.611,744.802 778.819,742.834 781.026,740.891 783.234,738.974 785.441,737.083 787.649,735.216 789.856,733.375 792.064,731.558 794.271,729.765 796.479,727.995 798.686,726.249 800.894,724.527 803.101,722.827 805.309,721.15 807.516,719.501 809.724,717.882 811.931,716.292 814.139,714.73 816.346,713.195 818.553,711.686 820.761,710.203 822.968,708.744 825.176,707.309 827.383,705.896 829.591,704.506 831.798,703.137 834.006,701.788 836.213,700.459 838.421,699.15 840.628,697.859 842.836,696.586 845.043,695.331 847.251,694.093 849.458,692.872 851.666,691.667 853.873,690.477 856.081,689.303 858.288,688.143 860.496,686.999 862.703,685.868 864.911,684.752 867.118,683.65 869.326,682.561 871.533,681.486 873.741,680.425 875.948,679.376 878.156,678.341 880.363,677.319 882.571,676.31 884.778,675.315 886.986,674.332 889.193,673.363 891.401,672.408 893.608,671.466 895.815,670.537 898.023,669.62 900.23,668.715 902.438,667.823 904.645,666.942 906.853,666.073 909.06,665.215 911.268,664.369 913.475,663.534 915.683,662.71 917.89,661.897 920.098,661.095 922.305,660.303 924.513,659.522 926.72,658.751 928.928,657.991 931.135,657.24 933.343,656.5 935.55,655.769 937.758,655.048 939.965,654.337 942.173,653.635 944.38,652.942 946.588,652.259 948.795,651.584 951.003,650.919 953.21,650.262 955.418,649.614 957.625,648.975 959.833,648.344 962.04,647.722 964.248,647.107 966.455,646.501 968.663,645.903 970.87,645.313 973.077,644.731 975.285,644.156 977.492,643.589 979.7,643.03 981.907,642.478 984.115,641.933 986.322,641.395 988.53,640.865 990.737,640.341 992.945,639.825 995.152,639.315 997.36,638.813 999.567,638.316 1001.77,637.827 1003.98,637.344 1006.19,636.867 1008.4,636.397 1010.6,635.933 1012.81,635.475 1015.02,635.023 1017.23,634.577 1019.43,634.137 1021.64,633.703 1023.85,633.274 1026.06,633.045 1028.26,633.628 1030.47,634.991 1032.68,637.048 1034.89,639.721 1037.09,642.933 1039.3,646.611 1041.51,650.688 1043.72,655.099 1045.92,659.784 1048.13,664.687 1050.34,669.755 1052.55,674.94 1054.75,680.197 1056.96,685.487 1059.17,690.773 1061.38,696.023 1063.58,701.207 1065.79,706.303 1068,711.289 1070.21,716.148 1072.41,720.869 1074.62,725.443 1076.83,729.865 1079.04,734.135 1081.24,738.256 1083.45,742.235 1085.66,746.085 1087.87,749.82 1090.07,753.46 1092.28,757.028 1094.49,760.552 1096.7,764.062 1098.9,767.595 1101.11,771.17 1103.32,774.713 1105.53,778.209 1107.73,781.658 1109.94,785.062 1112.15,788.42 1114.36,791.734 1116.56,795.004 1118.77,798.231 1120.98,801.414 1123.19,804.556 1125.39,807.656 1127.6,810.715 1129.81,813.733 1132.02,816.712 1134.22,819.651 1136.43,822.55 1138.64,825.412 1140.85,828.236 1143.05,831.022 1145.26,833.772 1147.47,836.485 1149.68,839.162 1151.88,841.804 1154.09,844.41 1156.3,846.983 1158.51,849.521 1160.71,852.025 1162.92,854.496 1165.13,856.934 1167.34,859.34 1169.54,861.714 1171.75,864.057 1173.96,866.368 1176.17,868.649 1178.37,870.899 1180.58,873.119 1182.79,875.31 1185,877.472 1187.2,879.605 1189.41,881.71 1191.62,883.787 1193.83,885.836 1196.03,887.858 1198.24,889.854 1200.45,891.822 1202.66,893.765 1204.86,895.682 1207.07,897.573 1209.28,899.44 1211.49,901.281 1213.69,903.098 1215.9,904.892 1218.11,906.661 1220.32,908.407 1222.52,910.13 1224.73,911.83 1226.94,913.507 1229.15,915.163 1231.35,916.796 1233.56,918.408 1235.77,919.999 1237.98,921.568 1240.18,923.117 1242.39,924.645 1244.6,926.176 1246.81,927.896 1249.01,929.817 1251.22,931.903 1253.43,934.118 1255.64,936.434 1257.84,938.822 1260.05,941.257 1262.26,943.717 1264.47,946.181 1266.67,948.633 1268.88,951.058 1271.09,953.446 1273.3,955.786 1275.5,958.074 1277.71,960.305 1279.92,962.48 1282.13,964.6 1284.33,966.671 1286.54,968.699 1288.75,970.696 1290.96,972.674 1293.16,974.649 1295.37,976.608 1297.58,978.54 1299.79,980.448 1301.99,982.33 1304.2,984.186 1306.41,986.019 1308.62,987.827 1310.82,989.611 1313.03,991.371 1315.24,993.108 1317.45,994.822 1319.65,996.514 1321.86,998.183 1324.07,999.829 1326.28,1001.45 1328.48,1003.06 1330.69,1004.64 1332.9,1006.2 1335.11,1007.74 1337.31,1009.26 1339.52,1010.76 1341.73,1012.24 1343.94,1013.7 1346.14,1015.14 1348.35,1016.57 1350.56,1017.97 1352.76,1019.35 1354.97,1020.72 1357.18,1022.07 1359.39,1023.4 1361.59,1024.71 1363.8,1026 1366.01,1027.28 1368.22,1028.54 1370.42,1029.79 1372.63,1031.01 1374.84,1032.23 1377.05,1033.42 1379.25,1034.6 1381.46,1035.77 1383.67,1036.91 1385.88,1038.05 1388.08,1039.17 1390.29,1040.27 1392.5,1041.36 1394.71,1042.43 1396.91,1043.49 1399.12,1044.54 1401.33,1045.57 1403.54,1046.59 1405.74,1047.59 1407.95,1048.59 1410.16,1049.56 1412.37,1050.53 1414.57,1051.48 1416.78,1052.42 1418.99,1053.35 1421.2,1054.27 1423.4,1055.17 1425.61,1056.06 1427.82,1056.94 1430.03,1057.81 1432.23,1058.66 1434.44,1059.51 1436.65,1060.34 1438.86,1061.16 1441.06,1061.98 1443.27,1062.78 1445.48,1063.57 1447.69,1064.35 1449.89,1065.12 1452.1,1065.88 1454.31,1066.63 1456.52,1067.37 1458.72,1068.09 1460.93,1068.81 1463.14,1069.12 1465.35,1068.74 1467.55,1067.82 1469.76,1066.5 1471.97,1064.9 1474.18,1063.13 1476.38,1061.27 1478.59,1059.39 1480.8,1057.54 1483.01,1055.77 1485.21,1054.09 1487.42,1052.51 1489.63,1051 1491.84,1049.55 1494.04,1048.1 1496.25,1046.63 1498.46,1045.17 1500.67,1043.73 1502.87,1042.31 1505.08,1040.9 1507.29,1039.52 1509.5,1038.15 1511.7,1036.81 1513.91,1035.48 1516.12,1034.16 1518.33,1032.87 1520.53,1031.59 1522.74,1030.33 1524.95,1029.09 1527.16,1027.86 1529.36,1026.65 1531.57,1025.45 1533.78,1024.27 1535.99,1023.11 1538.19,1021.96 1540.4,1020.83 1542.61,1019.71 1544.82,1018.61 1547.02,1017.52 1549.23,1016.45 1551.44,1015.39 1553.65,1014.34 1555.85,1013.31 1558.06,1012.29 1560.27,1011.29 1562.48,1010.29 1564.68,1009.32 1566.89,1008.35 1569.1,1007.4 1571.31,1006.46 1573.51,1005.53 1575.72,1004.62 1577.93,1003.71 1580.14,1002.82 1582.34,1001.94 1584.55,1001.08 1586.76,1000.22 1588.97,999.376 1591.17,998.542 1593.38,997.72 1595.59,996.908 1597.8,996.108 1600,995.317 1602.21,994.538 1604.42,993.768 1606.63,993.009 1608.83,992.26 1611.04,991.521 1613.25,990.792 1615.46,990.072 1617.66,989.362 1619.87,988.661 1622.08,987.97 1624.29,987.288 1626.49,986.615 1628.7,985.95 1630.91,985.295 1633.12,984.648 1635.32,984.01 1637.53,983.38 1639.74,982.759 1641.95,982.146 1644.15,981.541 1646.36,980.944 1648.57,980.355 1650.78,979.773 1652.98,979.2 1655.19,978.634 1657.4,978.075 1659.61,977.524 1661.81,976.98 1664.02,976.444 1666.23,975.914 1668.44,975.392 1670.64,974.877 1672.85,974.368 1675.06,973.866 1677.27,973.371 1679.47,972.882 1681.68,972.4 1683.89,971.924 1686.1,971.455 1688.3,970.991 1690.51,970.534 1692.72,973.086 1694.93,977.521 1697.13,981.813 1699.34,986.048 1701.55,990.227 1703.76,994.35 1705.96,998.419 1708.17,1002.43 1710.38,1006.4 1712.59,1010.31 1714.79,1014.16 1717,1017.97 1719.21,1021.72 1721.42,1025.43 1723.62,1029.09 1725.83,1032.7 1728.04,1036.26 1730.25,1039.77 1732.45,1043.24 1734.66,1046.66 1736.87,1050.03 1739.07,1053.36 1741.28,1056.65 1743.49,1059.89 1745.7,1063.09 1747.9,1066.25 1750.11,1069.36 1752.32,1072.44 1754.53,1075.47 1756.73,1078.47 1758.94,1081.42 1761.15,1084.33 1763.36,1087.21 1765.56,1090.05 1767.77,1092.85 1769.98,1095.61 1772.19,1098.34 1774.39,1101.03 1776.6,1103.68 1778.81,1106.3 1781.02,1108.89 1783.22,1111.44 1785.43,1113.95 1787.64,1116.44 1789.85,1118.89 1792.05,1121.3 1794.26,1123.69 1796.47,1126.04 1798.68,1128.37 1800.88,1130.66 1803.09,1132.92 1805.3,1135.15 1807.51,1137.35 1809.71,1139.53 1811.92,1141.67 1814.13,1143.79 1816.34,1145.87 1818.54,1147.93 1820.75,1149.97 1822.96,1151.97 1825.17,1153.95 1827.37,1155.9 1829.58,1157.83 1831.79,1159.73 1834,1161.61 1836.2,1163.46 1838.41,1165.29 1840.62,1167.09 1842.83,1168.87 1845.03,1170.62 1847.24,1172.36 1849.45,1174.06 1851.66,1175.75 1853.86,1177.41 1856.07,1179.06 1858.28,1180.68 1860.49,1182.27 1862.69,1183.85 1864.9,1185.41 1867.11,1186.94 1869.32,1188.46 1871.52,1189.95 1873.73,1191.43 1875.94,1192.89 1878.15,1194.32 1880.35,1195.74 1882.56,1197.14 1884.77,1198.52 1886.98,1199.88 1889.18,1201.23 1891.39,1202.55 1893.6,1203.86 1895.81,1205.15 1898.01,1206.43 1900.22,1207.68 1902.43,1208.92 1904.64,1210.15 1906.84,1211.35 1909.05,1212.55 1911.26,1213.64 1913.47,1212.36 1915.67,1208.07 1917.88,1201.18 1920.09,1192.13 1922.3,1181.27 1924.5,1168.98 1926.71,1155.57 1928.92,1141.34 1931.13,1126.56 1933.33,1111.45 1935.54,1096.24 1937.75,1081.09 1939.96,1066.15 1942.16,1051.56 1944.37,1037.39 1946.58,1023.71 1948.79,1010.56 1950.99,997.943 1953.2,985.828 1955.41,974.165 1957.62,962.872 1959.82,951.836 1962.03,940.919 1964.24,929.949 1966.45,918.81 1968.65,907.771 1970.86,896.878 1973.07,886.13 1975.28,875.525 1977.48,865.059 1979.69,854.733 1981.9,844.544 1984.11,834.489 1986.31,824.568 1988.52,814.779 1990.73,805.119 1992.94,795.588 1995.14,786.182 1997.35,776.902 1999.56,767.744 2001.77,758.708 2003.97,749.792 2006.18,740.993 2008.39,732.311 2010.6,723.745 2012.8,715.292 2015.01,706.951 2017.22,698.72 2019.43,690.599 2021.63,682.586 2023.84,674.679 2026.05,666.876 2028.26,659.178 2030.46,651.581 2032.67,644.085 2034.88,636.688 2037.09,629.39 2039.29,622.188 2041.5,615.082 2043.71,608.07 2045.92,601.151 2048.12,594.324 2050.33,587.588 2052.54,580.94 2054.75,574.381 2056.95,567.909 2059.16,561.522 2061.37,555.22 2063.58,549.002 2065.78,542.866 2067.99,536.811 2070.2,530.836 2072.41,524.941 2074.61,519.124 2076.82,513.384 2079.03,507.72 2081.24,502.131 2083.44,496.616 2085.65,491.175 2087.86,485.805 2090.07,480.507 2092.27,475.279 2094.48,470.121 2096.69,465.03 2098.9,460.008 2101.1,455.052 2103.31,450.161 2105.52,445.336 2107.73,440.574 2109.93,435.876 2112.14,431.24 2114.35,426.665 2116.55,422.151 2118.76,417.697 2120.97,413.302 2123.18,408.965 2125.38,404.686 2127.59,400.463 2129.8,396.297 2132.01,392.185 2134.21,389.569 2136.42,389.749 2138.63,392.407 2140.84,397.24 2143.04,403.962 2145.25,412.303 2147.46,422.009 2149.67,432.843 2151.87,444.585 2154.08,457.032 2156.29,469.995 2158.5,483.303 2160.7,496.802 2162.91,510.353 2165.12,523.835 2167.33,537.142 2169.53,550.187 2171.74,562.895 2173.95,575.212 2176.16,587.097 2178.36,598.528 2180.57,609.499 2182.78,620.019 2184.99,630.114 2187.19,639.828 2189.4,649.219 2191.61,658.364 2193.82,667.354 2196.02,676.298 2198.23,685.321 2200.44,694.524 2202.65,703.668 2204.85,712.691 2207.06,721.594 2209.27,730.38 2211.48,739.048 2213.68,747.602 2215.89,756.043 2218.1,764.372 2220.31,772.59 2222.51,780.699 2224.72,788.701 2226.93,796.596 2229.14,804.387 2231.34,812.075 2233.55,819.661 2235.76,827.146 2237.97,834.532 2240.17,841.82 2242.38,849.011 2244.59,856.108 2246.8,863.11 2249,870.02 2251.21,876.839 2253.42,883.567 2255.63,890.205 2257.83,896.756 2260.04,903.22 2262.25,909.599 2264.46,915.892 2266.66,922.102 2268.87,928.23 2271.08,934.276 2273.29,940.242 2275.49,946.129 2277.7,951.938 2279.91,957.67 2282.12,963.325 2284.32,968.905 2286.53,974.412 2288.74,979.845 2290.95,985.206 2293.15,990.496 2295.36,995.715 2297.57,1000.87 2299.78,1005.95 2301.98,1010.96 2304.19,1015.91 2306.4,1020.79 2308.61,1025.61 2310.81,1030.36 2313.02,1035.06 2315.23,1039.68 2317.44,1044.25 2319.64,1048.76 2321.85,1053.21 2324.06,1057.59 2326.27,1061.92 2328.47,1066.2 2330.68,1070.41 2332.89,1074.57 2335.1,1078.68 2337.3,1082.73 2339.51,1086.73 2341.72,1090.67 2343.93,1094.57 2346.13,1098.41 2348.34,1102.2 2350.55,1105.93 2352.76,1109.62 "/>
<polyline clip-path="url(#clip082)" style="stroke:#e26f46; stroke-linecap:round; stroke-linejoin:round; stroke-width:4; stroke-opacity:1; fill:none" points="147.478,1069.89 149.685,1069.89 151.893,1069.89 154.1,1069.89 156.308,1069.89 158.515,1069.89 160.723,1069.89 162.93,1069.89 165.138,1069.89 167.345,1069.89 169.553,1069.89 171.76,1069.89 173.968,1069.89 176.175,1069.89 178.383,1069.89 180.59,1069.89 182.798,1069.89 185.005,1069.89 187.213,1069.89 189.42,1069.89 191.628,1069.89 193.835,1069.89 196.043,1069.89 198.25,1069.89 200.458,1069.89 202.665,1069.89 204.873,1069.89 207.08,1069.89 209.288,1069.89 211.495,1069.89 213.702,1069.89 215.91,1069.89 218.117,1069.89 220.325,1069.89 222.532,1069.89 224.74,1069.89 226.947,1069.89 229.155,1069.89 231.362,1069.89 233.57,1069.89 235.777,1069.89 237.985,1069.89 240.192,1069.89 242.4,1069.89 244.607,1069.89 246.815,1069.89 249.022,1069.89 251.23,1069.89 253.437,1069.89 255.645,1069.89 257.852,1069.89 260.06,1069.89 262.267,1069.89 264.475,1069.89 266.682,1069.89 268.89,1069.89 271.097,1069.89 273.305,1069.89 275.512,1069.89 277.72,1069.89 279.927,1069.89 282.135,1069.89 284.342,1069.89 286.549,1069.89 288.757,1069.89 290.964,1069.89 293.172,1069.89 295.379,1069.89 297.587,1069.89 299.794,1069.89 302.002,1069.89 304.209,1069.89 306.417,1069.89 308.624,1069.89 310.832,1069.89 313.039,1069.89 315.247,1069.89 317.454,1069.89 319.662,1069.89 321.869,1069.89 324.077,1069.89 326.284,1069.89 328.492,1069.89 330.699,1069.89 332.907,1069.89 335.114,1069.89 337.322,1069.89 339.529,1069.89 341.737,1069.89 343.944,1069.89 346.152,1069.89 348.359,1069.89 350.567,1069.89 352.774,1069.89 354.982,1069.89 357.189,1069.89 359.397,1069.89 361.604,1069.89 363.811,1069.89 366.019,1069.89 368.226,1056.26 370.434,1056.26 372.641,1056.26 374.849,1056.26 377.056,1056.26 379.264,1056.26 381.471,1056.26 383.679,1056.26 385.886,1056.26 388.094,1056.26 390.301,1056.26 392.509,1056.26 394.716,1056.26 396.924,1056.26 399.131,1056.26 401.339,1056.26 403.546,1056.26 405.754,1056.26 407.961,1056.26 410.169,1056.26 412.376,1056.26 414.584,1056.26 416.791,1056.26 418.999,1056.26 421.206,1056.26 423.414,1056.26 425.621,1056.26 427.829,1056.26 430.036,1056.26 432.244,1056.26 434.451,1056.26 436.659,1056.26 438.866,1056.26 441.073,1056.26 443.281,1056.26 445.488,1056.26 447.696,1056.26 449.903,1056.26 452.111,1056.26 454.318,1056.26 456.526,1056.26 458.733,1056.26 460.941,1056.26 463.148,1056.26 465.356,1056.26 467.563,1056.26 469.771,1056.26 471.978,1056.26 474.186,1056.26 476.393,1056.26 478.601,1056.26 480.808,1056.26 483.016,1056.26 485.223,1056.26 487.431,1056.26 489.638,1056.26 491.846,1056.26 494.053,1056.26 496.261,1056.26 498.468,1056.26 500.676,1056.26 502.883,1056.26 505.091,1056.26 507.298,1056.26 509.506,1056.26 511.713,1056.26 513.921,1056.26 516.128,1056.26 518.335,1056.26 520.543,1056.26 522.75,1056.26 524.958,1056.26 527.165,1056.26 529.373,1056.26 531.58,1056.26 533.788,1056.26 535.995,1056.26 538.203,1056.26 540.41,1056.26 542.618,1056.26 544.825,1056.26 547.033,1056.26 549.24,1056.26 551.448,1056.26 553.655,1056.26 555.863,1056.26 558.07,1056.26 560.278,1056.26 562.485,1056.26 564.693,1056.26 566.9,1056.26 569.108,1056.26 571.315,1056.26 573.523,1056.26 575.73,1056.26 577.938,1056.26 580.145,1056.26 582.353,1056.26 584.56,1056.26 586.768,1056.26 588.975,596.311 591.182,596.311 593.39,596.311 595.597,596.311 597.805,596.311 600.012,596.311 602.22,596.311 604.427,596.311 606.635,596.311 608.842,596.311 611.05,596.311 613.257,596.311 615.465,596.311 617.672,596.311 619.88,596.311 622.087,596.311 624.295,596.311 626.502,596.311 628.71,596.311 630.917,596.311 633.125,596.311 635.332,596.311 637.54,596.311 639.747,596.311 641.955,596.311 644.162,596.311 646.37,596.311 648.577,596.311 650.785,596.311 652.992,596.311 655.2,596.311 657.407,596.311 659.615,596.311 661.822,596.311 664.03,596.311 666.237,596.311 668.444,596.311 670.652,596.311 672.859,596.311 675.067,596.311 677.274,596.311 679.482,596.311 681.689,596.311 683.897,596.311 686.104,596.311 688.312,596.311 690.519,596.311 692.727,596.311 694.934,596.311 697.142,596.311 699.349,596.311 701.557,596.311 703.764,596.311 705.972,596.311 708.179,596.311 710.387,596.311 712.594,596.311 714.802,596.311 717.009,596.311 719.217,596.311 721.424,596.311 723.632,596.311 725.839,596.311 728.047,596.311 730.254,596.311 732.462,596.311 734.669,596.311 736.877,596.311 739.084,596.311 741.292,596.311 743.499,596.311 745.706,596.311 747.914,596.311 750.121,596.311 752.329,596.311 754.536,596.311 756.744,596.311 758.951,596.311 761.159,596.311 763.366,596.311 765.574,596.311 767.781,596.311 769.989,596.311 772.196,596.311 774.404,596.311 776.611,596.311 778.819,596.311 781.026,596.311 783.234,596.311 785.441,596.311 787.649,596.311 789.856,596.311 792.064,596.311 794.271,596.311 796.479,596.311 798.686,596.311 800.894,596.311 803.101,596.311 805.309,596.311 807.516,596.311 809.724,601.389 811.931,601.389 814.139,601.389 816.346,601.389 818.553,601.389 820.761,601.389 822.968,601.389 825.176,601.389 827.383,601.389 829.591,601.389 831.798,601.389 834.006,601.389 836.213,601.389 838.421,601.389 840.628,601.389 842.836,601.389 845.043,601.389 847.251,601.389 849.458,601.389 851.666,601.389 853.873,601.389 856.081,601.389 858.288,601.389 860.496,601.389 862.703,601.389 864.911,601.389 867.118,601.389 869.326,601.389 871.533,601.389 873.741,601.389 875.948,601.389 878.156,601.389 880.363,601.389 882.571,601.389 884.778,601.389 886.986,601.389 889.193,601.389 891.401,601.389 893.608,601.389 895.815,601.389 898.023,601.389 900.23,601.389 902.438,601.389 904.645,601.389 906.853,601.389 909.06,601.389 911.268,601.389 913.475,601.389 915.683,601.389 917.89,601.389 920.098,601.389 922.305,601.389 924.513,601.389 926.72,601.389 928.928,601.389 931.135,601.389 933.343,601.389 935.55,601.389 937.758,601.389 939.965,601.389 942.173,601.389 944.38,601.389 946.588,601.389 948.795,601.389 951.003,601.389 953.21,601.389 955.418,601.389 957.625,601.389 959.833,601.389 962.04,601.389 964.248,601.389 966.455,601.389 968.663,601.389 970.87,601.389 973.077,601.389 975.285,601.389 977.492,601.389 979.7,601.389 981.907,601.389 984.115,601.389 986.322,601.389 988.53,601.389 990.737,601.389 992.945,601.389 995.152,601.389 997.36,601.389 999.567,601.389 1001.77,601.389 1003.98,601.389 1006.19,601.389 1008.4,601.389 1010.6,601.389 1012.81,601.389 1015.02,601.389 1017.23,601.389 1019.43,601.389 1021.64,601.389 1023.85,601.389 1026.06,601.389 1028.26,601.389 1030.47,1038.38 1032.68,1038.38 1034.89,1038.38 1037.09,1038.38 1039.3,1038.38 1041.51,1038.38 1043.72,1038.38 1045.92,1038.38 1048.13,1038.38 1050.34,1038.38 1052.55,1038.38 1054.75,1038.38 1056.96,1038.38 1059.17,1038.38 1061.38,1038.38 1063.58,1038.38 1065.79,1038.38 1068,1038.38 1070.21,1038.38 1072.41,1038.38 1074.62,1038.38 1076.83,1038.38 1079.04,1038.38 1081.24,1038.38 1083.45,1038.38 1085.66,1038.38 1087.87,1038.38 1090.07,1038.38 1092.28,1038.38 1094.49,1038.38 1096.7,1038.38 1098.9,1038.38 1101.11,1038.38 1103.32,1038.38 1105.53,1038.38 1107.73,1038.38 1109.94,1038.38 1112.15,1038.38 1114.36,1038.38 1116.56,1038.38 1118.77,1038.38 1120.98,1038.38 1123.19,1038.38 1125.39,1038.38 1127.6,1038.38 1129.81,1038.38 1132.02,1038.38 1134.22,1038.38 1136.43,1038.38 1138.64,1038.38 1140.85,1038.38 1143.05,1038.38 1145.26,1038.38 1147.47,1038.38 1149.68,1038.38 1151.88,1038.38 1154.09,1038.38 1156.3,1038.38 1158.51,1038.38 1160.71,1038.38 1162.92,1038.38 1165.13,1038.38 1167.34,1038.38 1169.54,1038.38 1171.75,1038.38 1173.96,1038.38 1176.17,1038.38 1178.37,1038.38 1180.58,1038.38 1182.79,1038.38 1185,1038.38 1187.2,1038.38 1189.41,1038.38 1191.62,1038.38 1193.83,1038.38 1196.03,1038.38 1198.24,1038.38 1200.45,1038.38 1202.66,1038.38 1204.86,1038.38 1207.07,1038.38 1209.28,1038.38 1211.49,1038.38 1213.69,1038.38 1215.9,1038.38 1218.11,1038.38 1220.32,1038.38 1222.52,1038.38 1224.73,1038.38 1226.94,1038.38 1229.15,1038.38 1231.35,1038.38 1233.56,1038.38 1235.77,1038.38 1237.98,1038.38 1240.18,1038.38 1242.39,1038.38 1244.6,1038.38 1246.81,1038.38 1249.01,1038.38 1251.22,1122.39 1253.43,1122.39 1255.64,1122.39 1257.84,1122.39 1260.05,1122.39 1262.26,1122.39 1264.47,1122.39 1266.67,1122.39 1268.88,1122.39 1271.09,1122.39 1273.3,1122.39 1275.5,1122.39 1277.71,1122.39 1279.92,1122.39 1282.13,1122.39 1284.33,1122.39 1286.54,1122.39 1288.75,1122.39 1290.96,1122.39 1293.16,1122.39 1295.37,1122.39 1297.58,1122.39 1299.79,1122.39 1301.99,1122.39 1304.2,1122.39 1306.41,1122.39 1308.62,1122.39 1310.82,1122.39 1313.03,1122.39 1315.24,1122.39 1317.45,1122.39 1319.65,1122.39 1321.86,1122.39 1324.07,1122.39 1326.28,1122.39 1328.48,1122.39 1330.69,1122.39 1332.9,1122.39 1335.11,1122.39 1337.31,1122.39 1339.52,1122.39 1341.73,1122.39 1343.94,1122.39 1346.14,1122.39 1348.35,1122.39 1350.56,1122.39 1352.76,1122.39 1354.97,1122.39 1357.18,1122.39 1359.39,1122.39 1361.59,1122.39 1363.8,1122.39 1366.01,1122.39 1368.22,1122.39 1370.42,1122.39 1372.63,1122.39 1374.84,1122.39 1377.05,1122.39 1379.25,1122.39 1381.46,1122.39 1383.67,1122.39 1385.88,1122.39 1388.08,1122.39 1390.29,1122.39 1392.5,1122.39 1394.71,1122.39 1396.91,1122.39 1399.12,1122.39 1401.33,1122.39 1403.54,1122.39 1405.74,1122.39 1407.95,1122.39 1410.16,1122.39 1412.37,1122.39 1414.57,1122.39 1416.78,1122.39 1418.99,1122.39 1421.2,1122.39 1423.4,1122.39 1425.61,1122.39 1427.82,1122.39 1430.03,1122.39 1432.23,1122.39 1434.44,1122.39 1436.65,1122.39 1438.86,1122.39 1441.06,1122.39 1443.27,1122.39 1445.48,1122.39 1447.69,1122.39 1449.89,1122.39 1452.1,1122.39 1454.31,1122.39 1456.52,1122.39 1458.72,1122.39 1460.93,1122.39 1463.14,1122.39 1465.35,1122.39 1467.55,1122.39 1469.76,1122.39 1471.97,936.511 1474.18,936.511 1476.38,936.511 1478.59,936.511 1480.8,936.511 1483.01,936.511 1485.21,936.511 1487.42,936.511 1489.63,936.511 1491.84,936.511 1494.04,936.511 1496.25,936.511 1498.46,936.511 1500.67,936.511 1502.87,936.511 1505.08,936.511 1507.29,936.511 1509.5,936.511 1511.7,936.511 1513.91,936.511 1516.12,936.511 1518.33,936.511 1520.53,936.511 1522.74,936.511 1524.95,936.511 1527.16,936.511 1529.36,936.511 1531.57,936.511 1533.78,936.511 1535.99,936.511 1538.19,936.511 1540.4,936.511 1542.61,936.511 1544.82,936.511 1547.02,936.511 1549.23,936.511 1551.44,936.511 1553.65,936.511 1555.85,936.511 1558.06,936.511 1560.27,936.511 1562.48,936.511 1564.68,936.511 1566.89,936.511 1569.1,936.511 1571.31,936.511 1573.51,936.511 1575.72,936.511 1577.93,936.511 1580.14,936.511 1582.34,936.511 1584.55,936.511 1586.76,936.511 1588.97,936.511 1591.17,936.511 1593.38,936.511 1595.59,936.511 1597.8,936.511 1600,936.511 1602.21,936.511 1604.42,936.511 1606.63,936.511 1608.83,936.511 1611.04,936.511 1613.25,936.511 1615.46,936.511 1617.66,936.511 1619.87,936.511 1622.08,936.511 1624.29,936.511 1626.49,936.511 1628.7,936.511 1630.91,936.511 1633.12,936.511 1635.32,936.511 1637.53,936.511 1639.74,936.511 1641.95,936.511 1644.15,936.511 1646.36,936.511 1648.57,936.511 1650.78,936.511 1652.98,936.511 1655.19,936.511 1657.4,936.511 1659.61,936.511 1661.81,936.511 1664.02,936.511 1666.23,936.511 1668.44,936.511 1670.64,936.511 1672.85,936.511 1675.06,936.511 1677.27,936.511 1679.47,936.511 1681.68,936.511 1683.89,936.511 1686.1,936.511 1688.3,936.511 1690.51,936.511 1692.72,1301.25 1694.93,1301.25 1697.13,1301.25 1699.34,1301.25 1701.55,1301.25 1703.76,1301.25 1705.96,1301.25 1708.17,1301.25 1710.38,1301.25 1712.59,1301.25 1714.79,1301.25 1717,1301.25 1719.21,1301.25 1721.42,1301.25 1723.62,1301.25 1725.83,1301.25 1728.04,1301.25 1730.25,1301.25 1732.45,1301.25 1734.66,1301.25 1736.87,1301.25 1739.07,1301.25 1741.28,1301.25 1743.49,1301.25 1745.7,1301.25 1747.9,1301.25 1750.11,1301.25 1752.32,1301.25 1754.53,1301.25 1756.73,1301.25 1758.94,1301.25 1761.15,1301.25 1763.36,1301.25 1765.56,1301.25 1767.77,1301.25 1769.98,1301.25 1772.19,1301.25 1774.39,1301.25 1776.6,1301.25 1778.81,1301.25 1781.02,1301.25 1783.22,1301.25 1785.43,1301.25 1787.64,1301.25 1789.85,1301.25 1792.05,1301.25 1794.26,1301.25 1796.47,1301.25 1798.68,1301.25 1800.88,1301.25 1803.09,1301.25 1805.3,1301.25 1807.51,1301.25 1809.71,1301.25 1811.92,1301.25 1814.13,1301.25 1816.34,1301.25 1818.54,1301.25 1820.75,1301.25 1822.96,1301.25 1825.17,1301.25 1827.37,1301.25 1829.58,1301.25 1831.79,1301.25 1834,1301.25 1836.2,1301.25 1838.41,1301.25 1840.62,1301.25 1842.83,1301.25 1845.03,1301.25 1847.24,1301.25 1849.45,1301.25 1851.66,1301.25 1853.86,1301.25 1856.07,1301.25 1858.28,1301.25 1860.49,1301.25 1862.69,1301.25 1864.9,1301.25 1867.11,1301.25 1869.32,1301.25 1871.52,1301.25 1873.73,1301.25 1875.94,1301.25 1878.15,1301.25 1880.35,1301.25 1882.56,1301.25 1884.77,1301.25 1886.98,1301.25 1889.18,1301.25 1891.39,1301.25 1893.6,1301.25 1895.81,1301.25 1898.01,1301.25 1900.22,1301.25 1902.43,1301.25 1904.64,1301.25 1906.84,1301.25 1909.05,1301.25 1911.26,1301.25 1913.47,86.1857 1915.67,86.1857 1917.88,86.1857 1920.09,86.1857 1922.3,86.1857 1924.5,86.1857 1926.71,86.1857 1928.92,86.1857 1931.13,86.1857 1933.33,86.1857 1935.54,86.1857 1937.75,86.1857 1939.96,86.1857 1942.16,86.1857 1944.37,86.1857 1946.58,86.1857 1948.79,86.1857 1950.99,86.1857 1953.2,86.1857 1955.41,86.1857 1957.62,86.1857 1959.82,86.1857 1962.03,86.1857 1964.24,86.1857 1966.45,86.1857 1968.65,86.1857 1970.86,86.1857 1973.07,86.1857 1975.28,86.1857 1977.48,86.1857 1979.69,86.1857 1981.9,86.1857 1984.11,86.1857 1986.31,86.1857 1988.52,86.1857 1990.73,86.1857 1992.94,86.1857 1995.14,86.1857 1997.35,86.1857 1999.56,86.1857 2001.77,86.1857 2003.97,86.1857 2006.18,86.1857 2008.39,86.1857 2010.6,86.1857 2012.8,86.1857 2015.01,86.1857 2017.22,86.1857 2019.43,86.1857 2021.63,86.1857 2023.84,86.1857 2026.05,86.1857 2028.26,86.1857 2030.46,86.1857 2032.67,86.1857 2034.88,86.1857 2037.09,86.1857 2039.29,86.1857 2041.5,86.1857 2043.71,86.1857 2045.92,86.1857 2048.12,86.1857 2050.33,86.1857 2052.54,86.1857 2054.75,86.1857 2056.95,86.1857 2059.16,86.1857 2061.37,86.1857 2063.58,86.1857 2065.78,86.1857 2067.99,86.1857 2070.2,86.1857 2072.41,86.1857 2074.61,86.1857 2076.82,86.1857 2079.03,86.1857 2081.24,86.1857 2083.44,86.1857 2085.65,86.1857 2087.86,86.1857 2090.07,86.1857 2092.27,86.1857 2094.48,86.1857 2096.69,86.1857 2098.9,86.1857 2101.1,86.1857 2103.31,86.1857 2105.52,86.1857 2107.73,86.1857 2109.93,86.1857 2112.14,86.1857 2114.35,86.1857 2116.55,86.1857 2118.76,86.1857 2120.97,86.1857 2123.18,86.1857 2125.38,86.1857 2127.59,86.1857 2129.8,86.1857 2132.01,86.1857 2134.21,1384.24 2136.42,1384.24 2138.63,1384.24 2140.84,1384.24 2143.04,1384.24 2145.25,1384.24 2147.46,1384.24 2149.67,1384.24 2151.87,1384.24 2154.08,1384.24 2156.29,1384.24 2158.5,1384.24 2160.7,1384.24 2162.91,1384.24 2165.12,1384.24 2167.33,1384.24 2169.53,1384.24 2171.74,1384.24 2173.95,1384.24 2176.16,1384.24 2178.36,1384.24 2180.57,1384.24 2182.78,1384.24 2184.99,1384.24 2187.19,1384.24 2189.4,1384.24 2191.61,1384.24 2193.82,1384.24 2196.02,1384.24 2198.23,1384.24 2200.44,1384.24 2202.65,1384.24 2204.85,1384.24 2207.06,1384.24 2209.27,1384.24 2211.48,1384.24 2213.68,1384.24 2215.89,1384.24 2218.1,1384.24 2220.31,1384.24 2222.51,1384.24 2224.72,1384.24 2226.93,1384.24 2229.14,1384.24 2231.34,1384.24 2233.55,1384.24 2235.76,1384.24 2237.97,1384.24 2240.17,1384.24 2242.38,1384.24 2244.59,1384.24 2246.8,1384.24 2249,1384.24 2251.21,1384.24 2253.42,1384.24 2255.63,1384.24 2257.83,1384.24 2260.04,1384.24 2262.25,1384.24 2264.46,1384.24 2266.66,1384.24 2268.87,1384.24 2271.08,1384.24 2273.29,1384.24 2275.49,1384.24 2277.7,1384.24 2279.91,1384.24 2282.12,1384.24 2284.32,1384.24 2286.53,1384.24 2288.74,1384.24 2290.95,1384.24 2293.15,1384.24 2295.36,1384.24 2297.57,1384.24 2299.78,1384.24 2301.98,1384.24 2304.19,1384.24 2306.4,1384.24 2308.61,1384.24 2310.81,1384.24 2313.02,1384.24 2315.23,1384.24 2317.44,1384.24 2319.64,1384.24 2321.85,1384.24 2324.06,1384.24 2326.27,1384.24 2328.47,1384.24 2330.68,1384.24 2332.89,1384.24 2335.1,1384.24 2337.3,1384.24 2339.51,1384.24 2341.72,1384.24 2343.93,1384.24 2346.13,1384.24 2348.34,1384.24 2350.55,1384.24 2352.76,1384.24 "/>
<path clip-path="url(#clip080)" d="M220.987 248.629 L466.654 248.629 L466.654 93.1086 L220.987 93.1086  Z" fill="#ffffff" fill-rule="evenodd" fill-opacity="1"/>
<polyline clip-path="url(#clip080)" style="stroke:#000000; stroke-linecap:round; stroke-linejoin:round; stroke-width:4; stroke-opacity:1; fill:none" points="220.987,248.629 466.654,248.629 466.654,93.1086 220.987,93.1086 220.987,248.629 "/>
<polyline clip-path="url(#clip080)" style="stroke:#009af9; stroke-linecap:round; stroke-linejoin:round; stroke-width:4; stroke-opacity:1; fill:none" points="245.49,144.949 392.509,144.949 "/>
<path clip-path="url(#clip080)" d="M441.665 136.303 L432.29 148.919 L442.151 162.229 L437.128 162.229 L429.581 152.043 L422.035 162.229 L417.012 162.229 L427.081 148.664 L417.868 136.303 L422.891 136.303 L429.766 145.539 L436.641 136.303 L441.665 136.303 Z" fill="#000000" fill-rule="nonzero" fill-opacity="1" /><polyline clip-path="url(#clip080)" style="stroke:#e26f46; stroke-linecap:round; stroke-linejoin:round; stroke-width:4; stroke-opacity:1; fill:none" points="245.49,196.789 392.509,196.789 "/>
<path clip-path="url(#clip080)" d="M433.516 178.05 L433.516 181.592 L429.442 181.592 Q427.151 181.592 426.248 182.518 Q425.368 183.444 425.368 185.851 L425.368 188.143 L432.382 188.143 L432.382 191.453 L425.368 191.453 L425.368 214.069 L421.086 214.069 L421.086 191.453 L417.012 191.453 L417.012 188.143 L421.086 188.143 L421.086 186.337 Q421.086 182.009 423.1 180.041 Q425.114 178.05 429.489 178.05 L433.516 178.05 Z" fill="#000000" fill-rule="nonzero" fill-opacity="1" /></svg>
