<?xml version="1.0" encoding="utf-8"?>
<svg xmlns="http://www.w3.org/2000/svg" xmlns:xlink="http://www.w3.org/1999/xlink" width="600" height="400" viewBox="0 0 2400 1600">
<defs>
  <clipPath id="clip450">
    <rect x="0" y="0" width="2400" height="1600"/>
  </clipPath>
</defs>
<path clip-path="url(#clip450)" d="M0 1600 L2400 1600 L2400 0 L0 0  Z" fill="#ffffff" fill-rule="evenodd" fill-opacity="1"/>
<defs>
  <clipPath id="clip451">
    <rect x="156" y="47" width="2198" height="1377"/>
  </clipPath>
</defs>
<path clip-path="url(#clip450)" d="M156.112 1423.18 L2352.76 1423.18 L2352.76 47.2441 L156.112 47.2441  Z" fill="#ffffff" fill-rule="evenodd" fill-opacity="1"/>
<polyline clip-path="url(#clip451)" style="stroke:#000000; stroke-linecap:round; stroke-linejoin:round; stroke-width:2; stroke-opacity:0.1; fill:none" points="156.112,1423.18 156.112,47.2441 "/>
<polyline clip-path="url(#clip451)" style="stroke:#000000; stroke-linecap:round; stroke-linejoin:round; stroke-width:2; stroke-opacity:0.1; fill:none" points="595.441,1423.18 595.441,47.2441 "/>
<polyline clip-path="url(#clip451)" style="stroke:#000000; stroke-linecap:round; stroke-linejoin:round; stroke-width:2; stroke-opacity:0.1; fill:none" points="1034.77,1423.18 1034.77,47.2441 "/>
<polyline clip-path="url(#clip451)" style="stroke:#000000; stroke-linecap:round; stroke-linejoin:round; stroke-width:2; stroke-opacity:0.1; fill:none" points="1474.1,1423.18 1474.1,47.2441 "/>
<polyline clip-path="url(#clip451)" style="stroke:#000000; stroke-linecap:round; stroke-linejoin:round; stroke-width:2; stroke-opacity:0.1; fill:none" points="1913.43,1423.18 1913.43,47.2441 "/>
<polyline clip-path="url(#clip451)" style="stroke:#000000; stroke-linecap:round; stroke-linejoin:round; stroke-width:2; stroke-opacity:0.1; fill:none" points="2352.76,1423.18 2352.76,47.2441 "/>
<polyline clip-path="url(#clip451)" style="stroke:#000000; stroke-linecap:round; stroke-linejoin:round; stroke-width:2; stroke-opacity:0.1; fill:none" points="156.112,1384.24 2352.76,1384.24 "/>
<polyline clip-path="url(#clip451)" style="stroke:#000000; stroke-linecap:round; stroke-linejoin:round; stroke-width:2; stroke-opacity:0.1; fill:none" points="156.112,1125.35 2352.76,1125.35 "/>
<polyline clip-path="url(#clip451)" style="stroke:#000000; stroke-linecap:round; stroke-linejoin:round; stroke-width:2; stroke-opacity:0.1; fill:none" points="156.112,866.46 2352.76,866.46 "/>
<polyline clip-path="url(#clip451)" style="stroke:#000000; stroke-linecap:round; stroke-linejoin:round; stroke-width:2; stroke-opacity:0.1; fill:none" points="156.112,607.571 2352.76,607.571 "/>
<polyline clip-path="url(#clip451)" style="stroke:#000000; stroke-linecap:round; stroke-linejoin:round; stroke-width:2; stroke-opacity:0.1; fill:none" points="156.112,348.681 2352.76,348.681 "/>
<polyline clip-path="url(#clip451)" style="stroke:#000000; stroke-linecap:round; stroke-linejoin:round; stroke-width:2; stroke-opacity:0.1; fill:none" points="156.112,89.7921 2352.76,89.7921 "/>
<polyline clip-path="url(#clip450)" style="stroke:#000000; stroke-linecap:round; stroke-linejoin:round; stroke-width:4; stroke-opacity:1; fill:none" points="156.112,1423.18 2352.76,1423.18 "/>
<polyline clip-path="url(#clip450)" style="stroke:#000000; stroke-linecap:round; stroke-linejoin:round; stroke-width:4; stroke-opacity:1; fill:none" points="156.112,1423.18 156.112,1404.28 "/>
<polyline clip-path="url(#clip450)" style="stroke:#000000; stroke-linecap:round; stroke-linejoin:round; stroke-width:4; stroke-opacity:1; fill:none" points="595.441,1423.18 595.441,1404.28 "/>
<polyline clip-path="url(#clip450)" style="stroke:#000000; stroke-linecap:round; stroke-linejoin:round; stroke-width:4; stroke-opacity:1; fill:none" points="1034.77,1423.18 1034.77,1404.28 "/>
<polyline clip-path="url(#clip450)" style="stroke:#000000; stroke-linecap:round; stroke-linejoin:round; stroke-width:4; stroke-opacity:1; fill:none" points="1474.1,1423.18 1474.1,1404.28 "/>
<polyline clip-path="url(#clip450)" style="stroke:#000000; stroke-linecap:round; stroke-linejoin:round; stroke-width:4; stroke-opacity:1; fill:none" points="1913.43,1423.18 1913.43,1404.28 "/>
<polyline clip-path="url(#clip450)" style="stroke:#000000; stroke-linecap:round; stroke-linejoin:round; stroke-width:4; stroke-opacity:1; fill:none" points="2352.76,1423.18 2352.76,1404.28 "/>
<path clip-path="url(#clip450)" d="M156.112 1454.1 Q152.501 1454.1 150.672 1457.66 Q148.867 1461.2 148.867 1468.33 Q148.867 1475.44 150.672 1479.01 Q152.501 1482.55 156.112 1482.55 Q159.746 1482.55 161.552 1479.01 Q163.381 1475.44 163.381 1468.33 Q163.381 1461.2 161.552 1457.66 Q159.746 1454.1 156.112 1454.1 M156.112 1450.39 Q161.922 1450.39 164.978 1455 Q168.057 1459.58 168.057 1468.33 Q168.057 1477.06 164.978 1481.67 Q161.922 1486.25 156.112 1486.25 Q150.302 1486.25 147.223 1481.67 Q144.168 1477.06 144.168 1468.33 Q144.168 1459.58 147.223 1455 Q150.302 1450.39 156.112 1450.39 Z" fill="#000000" fill-rule="nonzero" fill-opacity="1" /><path clip-path="url(#clip450)" d="M590.094 1481.64 L606.413 1481.64 L606.413 1485.58 L584.469 1485.58 L584.469 1481.64 Q587.131 1478.89 591.714 1474.26 Q596.321 1469.61 597.501 1468.27 Q599.746 1465.74 600.626 1464.01 Q601.529 1462.25 601.529 1460.56 Q601.529 1457.8 599.584 1456.07 Q597.663 1454.33 594.561 1454.33 Q592.362 1454.33 589.909 1455.09 Q587.478 1455.86 584.7 1457.41 L584.7 1452.69 Q587.524 1451.55 589.978 1450.97 Q592.432 1450.39 594.469 1450.39 Q599.839 1450.39 603.033 1453.08 Q606.228 1455.77 606.228 1460.26 Q606.228 1462.39 605.418 1464.31 Q604.631 1466.2 602.524 1468.8 Q601.945 1469.47 598.844 1472.69 Q595.742 1475.88 590.094 1481.64 Z" fill="#000000" fill-rule="nonzero" fill-opacity="1" /><path clip-path="url(#clip450)" d="M1037.78 1455.09 L1025.97 1473.54 L1037.78 1473.54 L1037.78 1455.09 M1036.55 1451.02 L1042.43 1451.02 L1042.43 1473.54 L1047.36 1473.54 L1047.36 1477.43 L1042.43 1477.43 L1042.43 1485.58 L1037.78 1485.58 L1037.78 1477.43 L1022.18 1477.43 L1022.18 1472.92 L1036.55 1451.02 Z" fill="#000000" fill-rule="nonzero" fill-opacity="1" /><path clip-path="url(#clip450)" d="M1474.5 1466.44 Q1471.36 1466.44 1469.5 1468.59 Q1467.67 1470.74 1467.67 1474.49 Q1467.67 1478.22 1469.5 1480.39 Q1471.36 1482.55 1474.5 1482.55 Q1477.65 1482.55 1479.48 1480.39 Q1481.33 1478.22 1481.33 1474.49 Q1481.33 1470.74 1479.48 1468.59 Q1477.65 1466.44 1474.5 1466.44 M1483.79 1451.78 L1483.79 1456.04 Q1482.03 1455.21 1480.22 1454.77 Q1478.44 1454.33 1476.68 1454.33 Q1472.05 1454.33 1469.6 1457.45 Q1467.17 1460.58 1466.82 1466.9 Q1468.18 1464.89 1470.24 1463.82 Q1472.3 1462.73 1474.78 1462.73 Q1479.99 1462.73 1483 1465.9 Q1486.03 1469.05 1486.03 1474.49 Q1486.03 1479.82 1482.88 1483.03 Q1479.73 1486.25 1474.5 1486.25 Q1468.51 1486.25 1465.34 1481.67 Q1462.17 1477.06 1462.17 1468.33 Q1462.17 1460.14 1466.05 1455.28 Q1469.94 1450.39 1476.49 1450.39 Q1478.25 1450.39 1480.04 1450.74 Q1481.84 1451.09 1483.79 1451.78 Z" fill="#000000" fill-rule="nonzero" fill-opacity="1" /><path clip-path="url(#clip450)" d="M1913.43 1469.17 Q1910.09 1469.17 1908.17 1470.95 Q1906.27 1472.73 1906.27 1475.86 Q1906.27 1478.98 1908.17 1480.77 Q1910.09 1482.55 1913.43 1482.55 Q1916.76 1482.55 1918.68 1480.77 Q1920.6 1478.96 1920.6 1475.86 Q1920.6 1472.73 1918.68 1470.95 Q1916.78 1469.17 1913.43 1469.17 M1908.75 1467.18 Q1905.74 1466.44 1904.05 1464.38 Q1902.39 1462.32 1902.39 1459.35 Q1902.39 1455.21 1905.33 1452.8 Q1908.29 1450.39 1913.43 1450.39 Q1918.59 1450.39 1921.53 1452.8 Q1924.47 1455.21 1924.47 1459.35 Q1924.47 1462.32 1922.78 1464.38 Q1921.11 1466.44 1918.13 1467.18 Q1921.51 1467.96 1923.38 1470.26 Q1925.28 1472.55 1925.28 1475.86 Q1925.28 1480.88 1922.2 1483.57 Q1919.14 1486.25 1913.43 1486.25 Q1907.71 1486.25 1904.63 1483.57 Q1901.58 1480.88 1901.58 1475.86 Q1901.58 1472.55 1903.47 1470.26 Q1905.37 1467.96 1908.75 1467.18 M1907.04 1459.79 Q1907.04 1462.48 1908.7 1463.98 Q1910.39 1465.49 1913.43 1465.49 Q1916.44 1465.49 1918.13 1463.98 Q1919.84 1462.48 1919.84 1459.79 Q1919.84 1457.11 1918.13 1455.6 Q1916.44 1454.1 1913.43 1454.1 Q1910.39 1454.1 1908.7 1455.6 Q1907.04 1457.11 1907.04 1459.79 Z" fill="#000000" fill-rule="nonzero" fill-opacity="1" /><path clip-path="url(#clip450)" d="M2327.44 1481.64 L2335.08 1481.64 L2335.08 1455.28 L2326.77 1456.95 L2326.77 1452.69 L2335.04 1451.02 L2339.71 1451.02 L2339.71 1481.64 L2347.35 1481.64 L2347.35 1485.58 L2327.44 1485.58 L2327.44 1481.64 Z" fill="#000000" fill-rule="nonzero" fill-opacity="1" /><path clip-path="url(#clip450)" d="M2366.8 1454.1 Q2363.18 1454.1 2361.36 1457.66 Q2359.55 1461.2 2359.55 1468.33 Q2359.55 1475.44 2361.36 1479.01 Q2363.18 1482.55 2366.8 1482.55 Q2370.43 1482.55 2372.23 1479.01 Q2374.06 1475.44 2374.06 1468.33 Q2374.06 1461.2 2372.23 1457.66 Q2370.43 1454.1 2366.8 1454.1 M2366.8 1450.39 Q2372.61 1450.39 2375.66 1455 Q2378.74 1459.58 2378.74 1468.33 Q2378.74 1477.06 2375.66 1481.67 Q2372.61 1486.25 2366.8 1486.25 Q2360.99 1486.25 2357.91 1481.67 Q2354.85 1477.06 2354.85 1468.33 Q2354.85 1459.58 2357.91 1455 Q2360.99 1450.39 2366.8 1450.39 Z" fill="#000000" fill-rule="nonzero" fill-opacity="1" /><path clip-path="url(#clip450)" d="M1253.5 1522.27 L1253.5 1532.4 L1265.56 1532.4 L1265.56 1536.95 L1253.5 1536.95 L1253.5 1556.3 Q1253.5 1560.66 1254.67 1561.9 Q1255.88 1563.14 1259.54 1563.14 L1265.56 1563.14 L1265.56 1568.04 L1259.54 1568.04 Q1252.76 1568.04 1250.18 1565.53 Q1247.61 1562.98 1247.61 1556.3 L1247.61 1536.95 L1243.31 1536.95 L1243.31 1532.4 L1247.61 1532.4 L1247.61 1522.27 L1253.5 1522.27 Z" fill="#000000" fill-rule="nonzero" fill-opacity="1" /><polyline clip-path="url(#clip450)" style="stroke:#000000; stroke-linecap:round; stroke-linejoin:round; stroke-width:4; stroke-opacity:1; fill:none" points="156.112,1423.18 156.112,47.2441 "/>
<polyline clip-path="url(#clip450)" style="stroke:#000000; stroke-linecap:round; stroke-linejoin:round; stroke-width:4; stroke-opacity:1; fill:none" points="156.112,1384.24 175.01,1384.24 "/>
<polyline clip-path="url(#clip450)" style="stroke:#000000; stroke-linecap:round; stroke-linejoin:round; stroke-width:4; stroke-opacity:1; fill:none" points="156.112,1125.35 175.01,1125.35 "/>
<polyline clip-path="url(#clip450)" style="stroke:#000000; stroke-linecap:round; stroke-linejoin:round; stroke-width:4; stroke-opacity:1; fill:none" points="156.112,866.46 175.01,866.46 "/>
<polyline clip-path="url(#clip450)" style="stroke:#000000; stroke-linecap:round; stroke-linejoin:round; stroke-width:4; stroke-opacity:1; fill:none" points="156.112,607.571 175.01,607.571 "/>
<polyline clip-path="url(#clip450)" style="stroke:#000000; stroke-linecap:round; stroke-linejoin:round; stroke-width:4; stroke-opacity:1; fill:none" points="156.112,348.681 175.01,348.681 "/>
<polyline clip-path="url(#clip450)" style="stroke:#000000; stroke-linecap:round; stroke-linejoin:round; stroke-width:4; stroke-opacity:1; fill:none" points="156.112,89.7921 175.01,89.7921 "/>
<path clip-path="url(#clip450)" d="M62.9365 1370.04 Q59.3254 1370.04 57.4967 1373.6 Q55.6912 1377.14 55.6912 1384.27 Q55.6912 1391.38 57.4967 1394.94 Q59.3254 1398.49 62.9365 1398.49 Q66.5707 1398.49 68.3763 1394.94 Q70.205 1391.38 70.205 1384.27 Q70.205 1377.14 68.3763 1373.6 Q66.5707 1370.04 62.9365 1370.04 M62.9365 1366.33 Q68.7467 1366.33 71.8022 1370.94 Q74.8809 1375.52 74.8809 1384.27 Q74.8809 1393 71.8022 1397.61 Q68.7467 1402.19 62.9365 1402.19 Q57.1264 1402.19 54.0477 1397.61 Q50.9921 1393 50.9921 1384.27 Q50.9921 1375.52 54.0477 1370.94 Q57.1264 1366.33 62.9365 1366.33 Z" fill="#000000" fill-rule="nonzero" fill-opacity="1" /><path clip-path="url(#clip450)" d="M83.0984 1395.64 L87.9827 1395.64 L87.9827 1401.52 L83.0984 1401.52 L83.0984 1395.64 Z" fill="#000000" fill-rule="nonzero" fill-opacity="1" /><path clip-path="url(#clip450)" d="M108.168 1370.04 Q104.557 1370.04 102.728 1373.6 Q100.922 1377.14 100.922 1384.27 Q100.922 1391.38 102.728 1394.94 Q104.557 1398.49 108.168 1398.49 Q111.802 1398.49 113.608 1394.94 Q115.436 1391.38 115.436 1384.27 Q115.436 1377.14 113.608 1373.6 Q111.802 1370.04 108.168 1370.04 M108.168 1366.33 Q113.978 1366.33 117.033 1370.94 Q120.112 1375.52 120.112 1384.27 Q120.112 1393 117.033 1397.61 Q113.978 1402.19 108.168 1402.19 Q102.358 1402.19 99.2789 1397.61 Q96.2234 1393 96.2234 1384.27 Q96.2234 1375.52 99.2789 1370.94 Q102.358 1366.33 108.168 1366.33 Z" fill="#000000" fill-rule="nonzero" fill-opacity="1" /><path clip-path="url(#clip450)" d="M63.9319 1111.15 Q60.3208 1111.15 58.4921 1114.71 Q56.6865 1118.25 56.6865 1125.38 Q56.6865 1132.49 58.4921 1136.05 Q60.3208 1139.6 63.9319 1139.6 Q67.5661 1139.6 69.3717 1136.05 Q71.2004 1132.49 71.2004 1125.38 Q71.2004 1118.25 69.3717 1114.71 Q67.5661 1111.15 63.9319 1111.15 M63.9319 1107.44 Q69.742 1107.44 72.7976 1112.05 Q75.8763 1116.63 75.8763 1125.38 Q75.8763 1134.11 72.7976 1138.72 Q69.742 1143.3 63.9319 1143.3 Q58.1217 1143.3 55.043 1138.72 Q51.9875 1134.11 51.9875 1125.38 Q51.9875 1116.63 55.043 1112.05 Q58.1217 1107.44 63.9319 1107.44 Z" fill="#000000" fill-rule="nonzero" fill-opacity="1" /><path clip-path="url(#clip450)" d="M84.0938 1136.75 L88.978 1136.75 L88.978 1142.63 L84.0938 1142.63 L84.0938 1136.75 Z" fill="#000000" fill-rule="nonzero" fill-opacity="1" /><path clip-path="url(#clip450)" d="M99.2095 1108.07 L117.566 1108.07 L117.566 1112 L103.492 1112 L103.492 1120.48 Q104.51 1120.13 105.529 1119.97 Q106.547 1119.78 107.566 1119.78 Q113.353 1119.78 116.733 1122.95 Q120.112 1126.12 120.112 1131.54 Q120.112 1137.12 116.64 1140.22 Q113.168 1143.3 106.848 1143.3 Q104.672 1143.3 102.404 1142.93 Q100.159 1142.56 97.7511 1141.82 L97.7511 1137.12 Q99.8345 1138.25 102.057 1138.81 Q104.279 1139.37 106.756 1139.37 Q110.76 1139.37 113.098 1137.26 Q115.436 1135.15 115.436 1131.54 Q115.436 1127.93 113.098 1125.82 Q110.76 1123.72 106.756 1123.72 Q104.881 1123.72 103.006 1124.13 Q101.154 1124.55 99.2095 1125.43 L99.2095 1108.07 Z" fill="#000000" fill-rule="nonzero" fill-opacity="1" /><path clip-path="url(#clip450)" d="M53.7467 879.805 L61.3856 879.805 L61.3856 853.439 L53.0754 855.106 L53.0754 850.846 L61.3393 849.18 L66.0152 849.18 L66.0152 879.805 L73.654 879.805 L73.654 883.74 L53.7467 883.74 L53.7467 879.805 Z" fill="#000000" fill-rule="nonzero" fill-opacity="1" /><path clip-path="url(#clip450)" d="M83.0984 877.86 L87.9827 877.86 L87.9827 883.74 L83.0984 883.74 L83.0984 877.86 Z" fill="#000000" fill-rule="nonzero" fill-opacity="1" /><path clip-path="url(#clip450)" d="M108.168 852.258 Q104.557 852.258 102.728 855.823 Q100.922 859.365 100.922 866.495 Q100.922 873.601 102.728 877.166 Q104.557 880.707 108.168 880.707 Q111.802 880.707 113.608 877.166 Q115.436 873.601 115.436 866.495 Q115.436 859.365 113.608 855.823 Q111.802 852.258 108.168 852.258 M108.168 848.555 Q113.978 848.555 117.033 853.161 Q120.112 857.745 120.112 866.495 Q120.112 875.221 117.033 879.828 Q113.978 884.411 108.168 884.411 Q102.358 884.411 99.2789 879.828 Q96.2234 875.221 96.2234 866.495 Q96.2234 857.745 99.2789 853.161 Q102.358 848.555 108.168 848.555 Z" fill="#000000" fill-rule="nonzero" fill-opacity="1" /><path clip-path="url(#clip450)" d="M54.7421 620.915 L62.381 620.915 L62.381 594.55 L54.0708 596.216 L54.0708 591.957 L62.3347 590.291 L67.0106 590.291 L67.0106 620.915 L74.6494 620.915 L74.6494 624.851 L54.7421 624.851 L54.7421 620.915 Z" fill="#000000" fill-rule="nonzero" fill-opacity="1" /><path clip-path="url(#clip450)" d="M84.0938 618.971 L88.978 618.971 L88.978 624.851 L84.0938 624.851 L84.0938 618.971 Z" fill="#000000" fill-rule="nonzero" fill-opacity="1" /><path clip-path="url(#clip450)" d="M99.2095 590.291 L117.566 590.291 L117.566 594.226 L103.492 594.226 L103.492 602.698 Q104.51 602.351 105.529 602.189 Q106.547 602.003 107.566 602.003 Q113.353 602.003 116.733 605.175 Q120.112 608.346 120.112 613.763 Q120.112 619.341 116.64 622.443 Q113.168 625.522 106.848 625.522 Q104.672 625.522 102.404 625.151 Q100.159 624.781 97.7511 624.04 L97.7511 619.341 Q99.8345 620.476 102.057 621.031 Q104.279 621.587 106.756 621.587 Q110.76 621.587 113.098 619.48 Q115.436 617.374 115.436 613.763 Q115.436 610.152 113.098 608.045 Q110.76 605.939 106.756 605.939 Q104.881 605.939 103.006 606.355 Q101.154 606.772 99.2095 607.652 L99.2095 590.291 Z" fill="#000000" fill-rule="nonzero" fill-opacity="1" /><path clip-path="url(#clip450)" d="M56.9643 362.026 L73.2837 362.026 L73.2837 365.961 L51.3393 365.961 L51.3393 362.026 Q54.0014 359.272 58.5847 354.642 Q63.1911 349.989 64.3717 348.647 Q66.617 346.123 67.4967 344.387 Q68.3994 342.628 68.3994 340.938 Q68.3994 338.184 66.455 336.448 Q64.5337 334.712 61.4319 334.712 Q59.2328 334.712 56.7791 335.475 Q54.3486 336.239 51.5708 337.79 L51.5708 333.068 Q54.3949 331.934 56.8486 331.355 Q59.3023 330.776 61.3393 330.776 Q66.7096 330.776 69.9041 333.462 Q73.0985 336.147 73.0985 340.637 Q73.0985 342.767 72.2883 344.688 Q71.5013 346.586 69.3948 349.179 Q68.8161 349.85 65.7143 353.068 Q62.6124 356.262 56.9643 362.026 Z" fill="#000000" fill-rule="nonzero" fill-opacity="1" /><path clip-path="url(#clip450)" d="M83.0984 360.082 L87.9827 360.082 L87.9827 365.961 L83.0984 365.961 L83.0984 360.082 Z" fill="#000000" fill-rule="nonzero" fill-opacity="1" /><path clip-path="url(#clip450)" d="M108.168 334.48 Q104.557 334.48 102.728 338.045 Q100.922 341.586 100.922 348.716 Q100.922 355.823 102.728 359.387 Q104.557 362.929 108.168 362.929 Q111.802 362.929 113.608 359.387 Q115.436 355.823 115.436 348.716 Q115.436 341.586 113.608 338.045 Q111.802 334.48 108.168 334.48 M108.168 330.776 Q113.978 330.776 117.033 335.383 Q120.112 339.966 120.112 348.716 Q120.112 357.443 117.033 362.049 Q113.978 366.633 108.168 366.633 Q102.358 366.633 99.2789 362.049 Q96.2234 357.443 96.2234 348.716 Q96.2234 339.966 99.2789 335.383 Q102.358 330.776 108.168 330.776 Z" fill="#000000" fill-rule="nonzero" fill-opacity="1" /><path clip-path="url(#clip450)" d="M57.9597 103.137 L74.279 103.137 L74.279 107.072 L52.3347 107.072 L52.3347 103.137 Q54.9967 100.382 59.58 95.7527 Q64.1865 91.1 65.367 89.7574 Q67.6124 87.2342 68.492 85.4981 Q69.3948 83.7389 69.3948 82.0491 Q69.3948 79.2945 67.4504 77.5584 Q65.5291 75.8223 62.4272 75.8223 Q60.2282 75.8223 57.7745 76.5862 Q55.344 77.35 52.5662 78.901 L52.5662 74.1788 Q55.3903 73.0445 57.8439 72.4658 Q60.2976 71.8871 62.3347 71.8871 Q67.705 71.8871 70.8994 74.5723 Q74.0939 77.2575 74.0939 81.7482 Q74.0939 83.8778 73.2837 85.7991 Q72.4966 87.6972 70.3902 90.2898 Q69.8115 90.9611 66.7096 94.1787 Q63.6078 97.3731 57.9597 103.137 Z" fill="#000000" fill-rule="nonzero" fill-opacity="1" /><path clip-path="url(#clip450)" d="M84.0938 101.193 L88.978 101.193 L88.978 107.072 L84.0938 107.072 L84.0938 101.193 Z" fill="#000000" fill-rule="nonzero" fill-opacity="1" /><path clip-path="url(#clip450)" d="M99.2095 72.5121 L117.566 72.5121 L117.566 76.4473 L103.492 76.4473 L103.492 84.9194 Q104.51 84.5722 105.529 84.4102 Q106.547 84.225 107.566 84.225 Q113.353 84.225 116.733 87.3963 Q120.112 90.5676 120.112 95.9842 Q120.112 101.563 116.64 104.665 Q113.168 107.743 106.848 107.743 Q104.672 107.743 102.404 107.373 Q100.159 107.003 97.7511 106.262 L97.7511 101.563 Q99.8345 102.697 102.057 103.253 Q104.279 103.808 106.756 103.808 Q110.76 103.808 113.098 101.702 Q115.436 99.5953 115.436 95.9842 Q115.436 92.3731 113.098 90.2666 Q110.76 88.1602 106.756 88.1602 Q104.881 88.1602 103.006 88.5768 Q101.154 88.9935 99.2095 89.8731 L99.2095 72.5121 Z" fill="#000000" fill-rule="nonzero" fill-opacity="1" /><polyline clip-path="url(#clip451)" style="stroke:#009af9; stroke-linecap:round; stroke-linejoin:round; stroke-width:4; stroke-opacity:1; fill:none" points="156.112,1384.24 158.311,1367.03 160.51,1350.05 162.709,1333.29 164.907,1316.76 167.106,1300.44 169.305,1284.34 171.504,1268.46 173.703,1252.78 175.902,1237.32 178.101,1222.06 180.299,1207 182.498,1192.14 184.697,1177.47 186.896,1163 189.095,1148.73 191.294,1134.64 193.492,1120.74 195.691,1107.02 197.89,1093.49 200.089,1080.14 202.288,1066.96 204.487,1053.95 206.686,1041.12 208.884,1028.46 211.083,1015.97 213.282,1003.64 215.481,991.48 217.68,979.477 219.879,967.634 222.077,955.948 224.276,944.417 226.475,933.038 228.674,921.811 230.873,910.732 233.072,899.8 235.27,889.013 237.469,878.369 239.668,867.866 241.867,857.503 244.066,847.277 246.265,837.186 248.464,827.229 250.662,817.404 252.861,807.71 255.06,798.144 257.259,788.705 259.458,779.391 261.657,770.2 263.855,761.132 266.054,752.183 268.253,743.354 270.452,734.641 272.651,726.044 274.85,717.561 277.048,709.19 279.247,700.93 281.446,692.78 283.645,684.737 285.844,676.802 288.043,668.971 290.242,661.244 292.44,653.62 294.639,646.097 296.838,638.674 299.037,631.349 301.236,624.121 303.435,616.989 305.633,609.951 307.832,603.007 310.031,596.155 312.23,589.394 314.429,582.723 316.628,576.14 318.826,569.644 321.025,563.234 323.224,556.91 325.423,550.669 327.622,544.511 329.821,538.435 332.02,532.439 334.218,526.522 336.417,520.684 338.616,514.924 340.815,509.24 343.014,503.629 345.213,497.472 347.411,490.598 349.61,483.445 351.809,476.399 354.008,469.792 356.207,463.905 358.406,458.963 360.604,455.14 362.803,452.556 365.002,451.278 367.201,451.322 369.4,452.647 371.599,455.163 373.798,458.724 375.996,463.133 378.195,468.138 380.394,473.437 382.593,478.671 384.792,483.432 386.991,487.804 389.189,492.117 391.388,496.373 393.587,500.573 395.786,504.717 397.985,508.806 400.184,512.841 402.382,516.823 404.581,520.752 406.78,524.628 408.979,528.453 411.178,532.228 413.377,535.953 415.576,539.629 417.774,543.256 419.973,546.835 422.172,550.367 424.371,553.851 426.57,557.29 428.769,560.683 430.967,564.031 433.166,567.335 435.365,570.595 437.564,573.812 439.763,576.985 441.962,580.117 444.161,583.207 446.359,586.256 448.558,589.265 450.757,592.233 452.956,595.163 455.155,598.053 457.354,600.904 459.552,603.718 461.751,606.495 463.95,609.234 466.149,611.937 468.348,614.605 470.547,617.236 472.745,619.833 474.944,622.396 477.143,624.924 479.342,627.419 481.541,629.88 483.74,632.309 485.939,634.706 488.137,637.071 490.336,639.405 492.535,641.708 494.734,643.98 496.933,646.222 499.132,648.435 501.33,650.618 503.529,652.772 505.728,654.898 507.927,656.996 510.126,659.066 512.325,661.108 514.523,663.124 516.722,665.113 518.921,667.076 521.12,669.013 523.319,670.924 525.518,672.81 527.717,674.67 529.915,676.506 532.114,678.318 534.313,680.106 536.512,681.87 538.711,683.61 540.91,685.328 543.108,687.023 545.307,688.695 547.506,690.345 549.705,691.973 551.904,693.58 554.103,695.165 556.301,696.729 558.5,698.272 560.699,699.795 562.898,701.298 565.097,702.781 567.296,704.244 569.495,705.688 571.693,707.113 573.892,708.518 576.091,709.905 578.29,711.274 580.489,712.625 582.688,713.957 584.886,715.272 587.085,716.57 589.284,717.85 591.483,719.114 593.682,720.351 595.881,721.386 598.079,722.17 600.278,722.72 602.477,723.055 604.676,723.191 606.875,723.145 609.074,722.932 611.273,722.569 613.471,722.07 615.67,721.449 617.869,720.719 620.068,719.894 622.267,718.986 624.466,718.007 626.664,716.967 628.863,715.878 631.062,714.749 633.261,713.59 635.46,712.41 637.659,711.216 639.858,710.016 642.056,708.818 644.255,707.628 646.454,706.45 648.653,705.292 650.852,704.157 653.051,703.049 655.249,701.971 657.448,700.928 659.647,699.92 661.846,698.949 664.045,698.017 666.244,697.123 668.442,696.268 670.641,695.452 672.84,694.671 675.039,693.925 677.238,693.212 679.437,692.527 681.636,691.867 683.834,691.228 686.033,690.605 688.232,689.992 690.431,689.384 692.63,688.773 694.829,688.152 697.027,687.514 699.226,686.867 701.425,686.229 703.624,685.6 705.823,684.978 708.022,684.365 710.22,683.76 712.419,683.164 714.618,682.575 716.817,681.993 719.016,681.42 721.215,680.854 723.414,680.296 725.612,679.745 727.811,679.201 730.01,678.665 732.209,678.136 734.408,677.613 736.607,677.098 738.805,676.589 741.004,676.088 743.203,675.593 745.402,675.104 747.601,674.622 749.8,674.146 751.998,673.677 754.197,673.214 756.396,672.757 758.595,672.306 760.794,671.861 762.993,671.422 765.192,670.988 767.39,670.561 769.589,670.139 771.788,669.723 773.987,669.312 776.186,668.907 778.385,668.507 780.583,668.112 782.782,667.723 784.981,667.338 787.18,666.959 789.379,666.585 791.578,666.216 793.776,665.852 795.975,665.492 798.174,665.138 800.373,664.788 802.572,664.442 804.771,664.102 806.97,663.765 809.168,663.434 811.367,663.106 813.566,662.783 815.765,662.751 817.964,663.601 820.163,665.271 822.361,667.678 824.56,670.744 826.759,674.394 828.958,678.554 831.157,683.158 833.356,688.14 835.554,693.44 837.753,699 839.952,704.766 842.151,710.689 844.35,716.722 846.549,722.822 848.748,728.949 850.946,735.068 853.145,741.147 855.344,747.158 857.543,753.075 859.742,758.878 861.941,764.548 864.139,770.073 866.338,775.44 868.537,780.645 870.736,785.683 872.935,790.555 875.134,795.265 877.333,799.821 879.531,804.233 881.73,808.518 883.929,812.693 886.128,816.781 888.327,820.808 890.526,824.802 892.724,828.796 894.923,832.828 897.122,836.879 899.321,840.877 901.52,844.822 903.719,848.715 905.917,852.556 908.116,856.346 910.315,860.086 912.514,863.777 914.713,867.418 916.912,871.011 919.111,874.557 921.309,878.055 923.508,881.507 925.707,884.914 927.906,888.275 930.105,891.591 932.304,894.864 934.502,898.093 936.701,901.28 938.9,904.424 941.099,907.527 943.298,910.589 945.497,913.61 947.695,916.59 949.894,919.532 952.093,922.434 954.292,925.298 956.491,928.124 958.69,930.913 960.889,933.664 963.087,936.379 965.286,939.058 967.485,941.701 969.684,944.309 971.883,946.883 974.082,949.423 976.28,951.928 978.479,954.401 980.678,956.841 982.877,959.248 985.076,961.624 987.275,963.968 989.473,966.281 991.672,968.563 993.871,970.815 996.07,973.037 998.269,975.23 1000.47,977.393 1002.67,979.528 1004.87,981.635 1007.06,983.714 1009.26,985.765 1011.46,987.789 1013.66,989.773 1015.86,991.681 1018.06,993.516 1020.26,995.285 1022.46,996.993 1024.65,998.644 1026.85,1000.24 1029.05,1001.8 1031.25,1003.31 1033.45,1004.78 1035.65,1006.21 1037.85,1007.62 1040.05,1008.99 1042.25,1010.34 1044.44,1011.67 1046.64,1012.98 1048.84,1014.27 1051.04,1015.54 1053.24,1016.8 1055.44,1018.04 1057.64,1019.27 1059.84,1020.49 1062.04,1021.7 1064.23,1022.9 1066.43,1024.08 1068.63,1025.26 1070.83,1026.43 1073.03,1027.58 1075.23,1028.72 1077.43,1029.84 1079.63,1030.95 1081.82,1032.04 1084.02,1033.11 1086.22,1034.17 1088.42,1035.21 1090.62,1036.23 1092.82,1037.25 1095.02,1038.25 1097.22,1039.23 1099.42,1040.2 1101.61,1041.17 1103.81,1042.11 1106.01,1043.05 1108.21,1043.97 1110.41,1044.88 1112.61,1045.78 1114.81,1046.67 1117.01,1047.54 1119.21,1048.4 1121.4,1049.26 1123.6,1050.1 1125.8,1050.93 1128,1051.74 1130.2,1052.55 1132.4,1053.35 1134.6,1054.13 1136.8,1054.91 1138.99,1055.68 1141.19,1056.43 1143.39,1057.18 1145.59,1057.91 1147.79,1058.64 1149.99,1059.35 1152.19,1060.06 1154.39,1060.76 1156.59,1061.45 1158.78,1062.12 1160.98,1062.79 1163.18,1063.46 1165.38,1064.11 1167.58,1064.75 1169.78,1065.39 1171.98,1066.01 1174.18,1066.63 1176.38,1067.24 1178.57,1067.84 1180.77,1068.44 1182.97,1069.02 1185.17,1069.6 1187.37,1070.17 1189.57,1070.73 1191.77,1071.29 1193.97,1071.84 1196.16,1072.38 1198.36,1072.91 1200.56,1073.44 1202.76,1073.96 1204.96,1074.47 1207.16,1074.98 1209.36,1075.48 1211.56,1075.97 1213.76,1076.39 1215.95,1076.72 1218.15,1077 1220.35,1077.23 1222.55,1077.43 1224.75,1077.61 1226.95,1077.79 1229.15,1077.97 1231.35,1078.18 1233.55,1078.41 1235.74,1078.67 1237.94,1078.99 1240.14,1079.35 1242.34,1079.78 1244.54,1080.27 1246.74,1080.84 1248.94,1081.48 1251.14,1082.2 1253.33,1083.01 1255.53,1083.89 1257.73,1084.86 1259.93,1085.92 1262.13,1087.06 1264.33,1088.28 1266.53,1089.57 1268.73,1090.95 1270.93,1092.39 1273.12,1093.9 1275.32,1095.47 1277.52,1097.09 1279.72,1098.75 1281.92,1100.45 1284.12,1102.17 1286.32,1103.92 1288.52,1105.66 1290.71,1107.4 1292.91,1109.11 1295.11,1110.79 1297.31,1112.42 1299.51,1113.99 1301.71,1115.49 1303.91,1116.96 1306.11,1118.42 1308.31,1119.85 1310.5,1121.27 1312.7,1122.67 1314.9,1124.04 1317.1,1125.41 1319.3,1126.75 1321.5,1128.07 1323.7,1129.38 1325.9,1130.67 1328.1,1131.94 1330.29,1133.2 1332.49,1134.44 1334.69,1135.66 1336.89,1136.87 1339.09,1138.06 1341.29,1139.23 1343.49,1140.39 1345.69,1141.54 1347.88,1142.67 1350.08,1143.78 1352.28,1144.88 1354.48,1145.96 1356.68,1147.03 1358.88,1148.09 1361.08,1149.13 1363.28,1150.16 1365.48,1151.17 1367.67,1152.18 1369.87,1153.16 1372.07,1154.14 1374.27,1155.1 1376.47,1156.05 1378.67,1156.99 1380.87,1157.91 1383.07,1158.82 1385.27,1159.72 1387.46,1160.61 1389.66,1161.48 1391.86,1162.35 1394.06,1163.2 1396.26,1164.04 1398.46,1164.87 1400.66,1165.69 1402.86,1166.5 1405.05,1167.3 1407.25,1168.09 1409.45,1168.86 1411.65,1169.63 1413.85,1170.39 1416.05,1171.13 1418.25,1171.87 1420.45,1172.6 1422.65,1173.31 1424.84,1174.02 1427.04,1174.72 1429.24,1175.41 1431.44,1176.09 1433.64,1176.76 1435.84,1177.42 1438.04,1178.07 1440.24,1178.72 1442.44,1179.35 1444.63,1179.98 1446.83,1180.6 1449.03,1181.21 1451.23,1181.81 1453.43,1182.41 1455.63,1183 1457.83,1183.57 1460.03,1184.15 1462.22,1184.71 1464.42,1185.27 1466.62,1185.82 1468.82,1185.75 1471.02,1183.9 1473.22,1180.61 1475.42,1176.23 1477.62,1171.1 1479.82,1165.48 1482.01,1159.62 1484.21,1153.69 1486.41,1147.85 1488.61,1142.19 1490.81,1136.78 1493.01,1131.62 1495.21,1126.7 1497.41,1121.93 1499.6,1117.21 1501.8,1112.43 1504,1107.69 1506.2,1103.01 1508.4,1098.4 1510.6,1093.84 1512.8,1089.35 1515,1084.92 1517.2,1080.55 1519.39,1076.23 1521.59,1071.97 1523.79,1067.77 1525.99,1063.62 1528.19,1059.53 1530.39,1055.49 1532.59,1051.51 1534.79,1047.58 1536.99,1043.7 1539.18,1039.87 1541.38,1036.09 1543.58,1032.37 1545.78,1028.69 1547.98,1025.06 1550.18,1021.48 1552.38,1017.95 1554.58,1014.46 1556.77,1011.02 1558.97,1007.63 1561.17,1004.28 1563.37,1000.97 1565.57,997.711 1567.77,994.494 1569.97,991.319 1572.17,988.186 1574.37,985.095 1576.56,982.044 1578.76,979.034 1580.96,976.064 1583.16,973.133 1585.36,970.242 1587.56,967.388 1589.76,964.572 1591.96,961.794 1594.16,959.052 1596.35,956.347 1598.55,953.677 1600.75,951.043 1602.95,948.444 1605.15,945.88 1607.35,943.349 1609.55,940.852 1611.75,938.388 1613.94,935.956 1616.14,933.557 1618.34,931.19 1620.54,928.854 1622.74,926.549 1624.94,924.275 1627.14,922.031 1629.34,919.816 1631.54,917.631 1633.73,915.475 1635.93,913.348 1638.13,911.248 1640.33,909.177 1642.53,907.133 1644.73,905.116 1646.93,903.126 1649.13,901.162 1651.33,899.224 1653.52,897.312 1655.72,895.426 1657.92,893.553 1660.12,891.513 1662.32,889.294 1664.52,886.963 1666.72,884.582 1668.92,882.208 1671.11,879.891 1673.31,877.679 1675.51,875.613 1677.71,873.73 1679.91,872.061 1682.11,870.635 1684.31,869.472 1686.51,868.59 1688.71,868.001 1690.9,867.711 1693.1,867.724 1695.3,868.035 1697.5,868.638 1699.7,869.52 1701.9,870.662 1704.1,872.043 1706.3,873.635 1708.5,875.406 1710.69,877.317 1712.89,879.327 1715.09,881.388 1717.29,883.448 1719.49,885.45 1721.69,887.332 1723.89,889.047 1726.09,890.712 1728.28,892.355 1730.48,893.976 1732.68,895.576 1734.88,897.154 1737.08,898.712 1739.28,900.248 1741.48,901.765 1743.68,903.261 1745.88,904.738 1748.07,906.195 1750.27,907.632 1752.47,909.051 1754.67,910.45 1756.87,911.832 1759.07,913.194 1761.27,914.539 1763.47,915.867 1765.66,917.176 1767.86,918.469 1770.06,919.744 1772.26,921.003 1774.46,922.245 1776.66,923.47 1778.86,924.68 1781.06,925.873 1783.26,927.05 1785.45,928.212 1787.65,929.359 1789.85,930.49 1792.05,931.606 1794.25,932.708 1796.45,933.794 1798.65,934.867 1800.85,935.925 1803.05,936.968 1805.24,937.998 1807.44,939.015 1809.64,940.018 1811.84,941.007 1814.04,941.983 1816.24,942.946 1818.44,943.897 1820.64,944.834 1822.83,945.76 1825.03,946.672 1827.23,947.573 1829.43,948.462 1831.63,949.339 1833.83,950.204 1836.03,951.057 1838.23,951.9 1840.43,952.731 1842.62,953.551 1844.82,954.36 1847.02,955.158 1849.22,955.946 1851.42,956.723 1853.62,957.491 1855.82,958.247 1858.02,958.994 1860.22,959.731 1862.41,960.458 1864.61,961.176 1866.81,961.884 1869.01,962.583 1871.21,963.272 1873.41,963.953 1875.61,964.624 1877.81,965.287 1880,965.941 1882.2,966.586 1884.4,967.223 1886.6,967.816 1888.8,968.255 1891,968.566 1893.2,968.783 1895.4,968.939 1897.6,969.067 1899.79,969.194 1901.99,969.347 1904.19,969.55 1906.39,969.826 1908.59,970.194 1910.79,970.671 1912.99,971.273 1915.19,972.013 1917.39,972.9 1919.58,973.945 1921.78,975.151 1923.98,976.525 1926.18,978.066 1928.38,979.775 1930.58,981.648 1932.78,983.68 1934.98,985.865 1937.17,988.191 1939.37,990.647 1941.57,993.219 1943.77,995.889 1945.97,998.641 1948.17,1001.45 1950.37,1004.3 1952.57,1007.15 1954.77,1009.99 1956.96,1012.78 1959.16,1015.5 1961.36,1018.09 1963.56,1020.57 1965.76,1023.01 1967.96,1025.42 1970.16,1027.8 1972.36,1030.15 1974.55,1032.46 1976.75,1034.75 1978.95,1037 1981.15,1039.22 1983.35,1041.42 1985.55,1043.58 1987.75,1045.72 1989.95,1047.83 1992.15,1049.91 1994.34,1051.96 1996.54,1053.99 1998.74,1055.98 2000.94,1057.96 2003.14,1059.9 2005.34,1061.82 2007.54,1063.72 2009.74,1065.59 2011.94,1067.43 2014.13,1069.25 2016.33,1071.05 2018.53,1072.82 2020.73,1074.57 2022.93,1076.3 2025.13,1078 2027.33,1079.68 2029.53,1081.34 2031.72,1082.97 2033.92,1084.59 2036.12,1086.18 2038.32,1087.75 2040.52,1089.3 2042.72,1090.83 2044.92,1092.35 2047.12,1093.84 2049.32,1095.31 2051.51,1096.76 2053.71,1098.19 2055.91,1099.6 2058.11,1100.99 2060.31,1102.37 2062.51,1103.73 2064.71,1105.07 2066.91,1106.39 2069.11,1107.69 2071.3,1108.98 2073.5,1110.25 2075.7,1111.5 2077.9,1112.74 2080.1,1113.96 2082.3,1115.16 2084.5,1116.35 2086.7,1117.59 2088.89,1118.89 2091.09,1120.24 2093.29,1121.61 2095.49,1122.98 2097.69,1124.35 2099.89,1125.69 2102.09,1126.99 2104.29,1128.25 2106.49,1129.44 2108.68,1130.57 2110.88,1131.61 2113.08,1132.57 2115.28,1133.43 2117.48,1134.19 2119.68,1134.85 2121.88,1135.41 2124.08,1135.85 2126.28,1136.18 2128.47,1136.41 2130.67,1136.53 2132.87,1136.54 2135.07,1136.45 2137.27,1136.26 2139.47,1135.98 2141.67,1135.62 2143.87,1135.19 2146.06,1134.69 2148.26,1134.13 2150.46,1133.53 2152.66,1132.9 2154.86,1132.26 2157.06,1131.62 2159.26,1130.99 2161.46,1130.39 2163.66,1129.85 2165.85,1129.36 2168.05,1128.88 2170.25,1128.41 2172.45,1127.95 2174.65,1127.49 2176.85,1127.04 2179.05,1126.59 2181.25,1126.15 2183.45,1125.72 2185.64,1125.29 2187.84,1124.87 2190.04,1124.45 2192.24,1124.04 2194.44,1123.63 2196.64,1123.23 2198.84,1122.84 2201.04,1122.45 2203.23,1122.06 2205.43,1121.68 2207.63,1121.31 2209.83,1120.94 2212.03,1120.57 2214.23,1120.21 2216.43,1119.86 2218.63,1119.51 2220.83,1119.16 2223.02,1118.82 2225.22,1118.48 2227.42,1118.15 2229.62,1117.82 2231.82,1117.5 2234.02,1117.18 2236.22,1116.86 2238.42,1116.55 2240.61,1116.24 2242.81,1115.94 2245.01,1115.64 2247.21,1115.35 2249.41,1115.06 2251.61,1114.77 2253.81,1114.49 2256.01,1114.21 2258.21,1113.93 2260.4,1113.66 2262.6,1113.39 2264.8,1113.12 2267,1112.86 2269.2,1112.6 2271.4,1112.35 2273.6,1112.1 2275.8,1111.85 2278,1111.61 2280.19,1111.36 2282.39,1111.13 2284.59,1110.89 2286.79,1110.66 2288.99,1110.43 2291.19,1110.21 2293.39,1109.98 2295.59,1109.76 2297.78,1109.55 2299.98,1109.33 2302.18,1109.12 2304.38,1108.92 2306.58,1108.71 2308.78,1108.51 2310.98,1108.31 2313.18,1108.11 2315.38,1107.92 2317.57,1107.72 2319.77,1107.53 2321.97,1107.35 2324.17,1107.16 2326.37,1106.98 2328.57,1106.8 2330.77,1106.62 2332.97,1106.45 2335.17,1106.28 2337.36,1106.11 2339.56,1105.94 2341.76,1105.77 2343.96,1105.61 2346.16,1105.45 2348.36,1105.29 2350.56,1105.13 2352.76,1104.98 "/>
<polyline clip-path="url(#clip451)" style="stroke:#e26f46; stroke-linecap:round; stroke-linejoin:round; stroke-width:4; stroke-opacity:1; fill:none" points="156.112,86.1857 158.311,86.1857 160.51,86.1857 162.709,86.1857 164.907,86.1857 167.106,86.1857 169.305,86.1857 171.504,86.1857 173.703,86.1857 175.902,86.1857 178.101,86.1857 180.299,86.1857 182.498,86.1857 184.697,86.1857 186.896,86.1857 189.095,86.1857 191.294,86.1857 193.492,86.1857 195.691,86.1857 197.89,86.1857 200.089,86.1857 202.288,86.1857 204.487,86.1857 206.686,86.1857 208.884,86.1857 211.083,86.1857 213.282,86.1857 215.481,86.1857 217.68,86.1857 219.879,86.1857 222.077,86.1857 224.276,86.1857 226.475,86.1857 228.674,86.1857 230.873,86.1857 233.072,86.1857 235.27,86.1857 237.469,86.1857 239.668,86.1857 241.867,86.1857 244.066,86.1857 246.265,86.1857 248.464,86.1857 250.662,86.1857 252.861,86.1857 255.06,86.1857 257.259,86.1857 259.458,86.1857 261.657,86.1857 263.855,86.1857 266.054,86.1857 268.253,86.1857 270.452,86.1857 272.651,86.1857 274.85,86.1857 277.048,86.1857 279.247,86.1857 281.446,86.1857 283.645,86.1857 285.844,86.1857 288.043,86.1857 290.242,86.1857 292.44,86.1857 294.639,86.1857 296.838,86.1857 299.037,86.1857 301.236,86.1857 303.435,86.1857 305.633,86.1857 307.832,86.1857 310.031,86.1857 312.23,86.1857 314.429,86.1857 316.628,86.1857 318.826,86.1857 321.025,86.1857 323.224,86.1857 325.423,86.1857 327.622,86.1857 329.821,86.1857 332.02,86.1857 334.218,86.1857 336.417,86.1857 338.616,86.1857 340.815,86.1857 343.014,86.1857 345.213,86.1857 347.411,86.1857 349.61,86.1857 351.809,86.1857 354.008,86.1857 356.207,86.1857 358.406,86.1857 360.604,86.1857 362.803,86.1857 365.002,86.1857 367.201,86.1857 369.4,86.1857 371.599,86.1857 373.798,86.1857 375.996,813.149 378.195,813.149 380.394,813.149 382.593,813.149 384.792,813.149 386.991,813.149 389.189,813.149 391.388,813.149 393.587,813.149 395.786,813.149 397.985,813.149 400.184,813.149 402.382,813.149 404.581,813.149 406.78,813.149 408.979,813.149 411.178,813.149 413.377,813.149 415.576,813.149 417.774,813.149 419.973,813.149 422.172,813.149 424.371,813.149 426.57,813.149 428.769,813.149 430.967,813.149 433.166,813.149 435.365,813.149 437.564,813.149 439.763,813.149 441.962,813.149 444.161,813.149 446.359,813.149 448.558,813.149 450.757,813.149 452.956,813.149 455.155,813.149 457.354,813.149 459.552,813.149 461.751,813.149 463.95,813.149 466.149,813.149 468.348,813.149 470.547,813.149 472.745,813.149 474.944,813.149 477.143,813.149 479.342,813.149 481.541,813.149 483.74,813.149 485.939,813.149 488.137,813.149 490.336,813.149 492.535,813.149 494.734,813.149 496.933,813.149 499.132,813.149 501.33,813.149 503.529,813.149 505.728,813.149 507.927,813.149 510.126,813.149 512.325,813.149 514.523,813.149 516.722,813.149 518.921,813.149 521.12,813.149 523.319,813.149 525.518,813.149 527.717,813.149 529.915,813.149 532.114,813.149 534.313,813.149 536.512,813.149 538.711,813.149 540.91,813.149 543.108,813.149 545.307,813.149 547.506,813.149 549.705,813.149 551.904,813.149 554.103,813.149 556.301,813.149 558.5,813.149 560.699,813.149 562.898,813.149 565.097,813.149 567.296,813.149 569.495,813.149 571.693,813.149 573.892,813.149 576.091,813.149 578.29,813.149 580.489,813.149 582.688,813.149 584.886,813.149 587.085,813.149 589.284,813.149 591.483,813.149 593.682,813.149 595.881,638.742 598.079,638.742 600.278,638.742 602.477,638.742 604.676,638.742 606.875,638.742 609.074,638.742 611.273,638.742 613.471,638.742 615.67,638.742 617.869,638.742 620.068,638.742 622.267,638.742 624.466,638.742 626.664,638.742 628.863,638.742 631.062,638.742 633.261,638.742 635.46,638.742 637.659,638.742 639.858,638.742 642.056,638.742 644.255,638.742 646.454,638.742 648.653,638.742 650.852,638.742 653.051,638.742 655.249,638.742 657.448,638.742 659.647,638.742 661.846,638.742 664.045,638.742 666.244,638.742 668.442,638.742 670.641,638.742 672.84,638.742 675.039,638.742 677.238,638.742 679.437,638.742 681.636,638.742 683.834,638.742 686.033,638.742 688.232,638.742 690.431,638.742 692.63,638.742 694.829,638.742 697.027,638.742 699.226,638.742 701.425,638.742 703.624,638.742 705.823,638.742 708.022,638.742 710.22,638.742 712.419,638.742 714.618,638.742 716.817,638.742 719.016,638.742 721.215,638.742 723.414,638.742 725.612,638.742 727.811,638.742 730.01,638.742 732.209,638.742 734.408,638.742 736.607,638.742 738.805,638.742 741.004,638.742 743.203,638.742 745.402,638.742 747.601,638.742 749.8,638.742 751.998,638.742 754.197,638.742 756.396,638.742 758.595,638.742 760.794,638.742 762.993,638.742 765.192,638.742 767.39,638.742 769.589,638.742 771.788,638.742 773.987,638.742 776.186,638.742 778.385,638.742 780.583,638.742 782.782,638.742 784.981,638.742 787.18,638.742 789.379,638.742 791.578,638.742 793.776,638.742 795.975,638.742 798.174,638.742 800.373,638.742 802.572,638.742 804.771,638.742 806.97,638.742 809.168,638.742 811.367,638.742 813.566,638.742 815.765,1138.43 817.964,1138.43 820.163,1138.43 822.361,1138.43 824.56,1138.43 826.759,1138.43 828.958,1138.43 831.157,1138.43 833.356,1138.43 835.554,1138.43 837.753,1138.43 839.952,1138.43 842.151,1138.43 844.35,1138.43 846.549,1138.43 848.748,1138.43 850.946,1138.43 853.145,1138.43 855.344,1138.43 857.543,1138.43 859.742,1138.43 861.941,1138.43 864.139,1138.43 866.338,1138.43 868.537,1138.43 870.736,1138.43 872.935,1138.43 875.134,1138.43 877.333,1138.43 879.531,1138.43 881.73,1138.43 883.929,1138.43 886.128,1138.43 888.327,1138.43 890.526,1138.43 892.724,1138.43 894.923,1138.43 897.122,1138.43 899.321,1138.43 901.52,1138.43 903.719,1138.43 905.917,1138.43 908.116,1138.43 910.315,1138.43 912.514,1138.43 914.713,1138.43 916.912,1138.43 919.111,1138.43 921.309,1138.43 923.508,1138.43 925.707,1138.43 927.906,1138.43 930.105,1138.43 932.304,1138.43 934.502,1138.43 936.701,1138.43 938.9,1138.43 941.099,1138.43 943.298,1138.43 945.497,1138.43 947.695,1138.43 949.894,1138.43 952.093,1138.43 954.292,1138.43 956.491,1138.43 958.69,1138.43 960.889,1138.43 963.087,1138.43 965.286,1138.43 967.485,1138.43 969.684,1138.43 971.883,1138.43 974.082,1138.43 976.28,1138.43 978.479,1138.43 980.678,1138.43 982.877,1138.43 985.076,1138.43 987.275,1138.43 989.473,1138.43 991.672,1138.43 993.871,1138.43 996.07,1138.43 998.269,1138.43 1000.47,1138.43 1002.67,1138.43 1004.87,1138.43 1007.06,1138.43 1009.26,1138.43 1011.46,1138.43 1013.66,1138.43 1015.86,1138.43 1018.06,1138.43 1020.26,1138.43 1022.46,1138.43 1024.65,1138.43 1026.85,1138.43 1029.05,1138.43 1031.25,1138.43 1033.45,1138.43 1035.65,1112.65 1037.85,1112.65 1040.05,1112.65 1042.25,1112.65 1044.44,1112.65 1046.64,1112.65 1048.84,1112.65 1051.04,1112.65 1053.24,1112.65 1055.44,1112.65 1057.64,1112.65 1059.84,1112.65 1062.04,1112.65 1064.23,1112.65 1066.43,1112.65 1068.63,1112.65 1070.83,1112.65 1073.03,1112.65 1075.23,1112.65 1077.43,1112.65 1079.63,1112.65 1081.82,1112.65 1084.02,1112.65 1086.22,1112.65 1088.42,1112.65 1090.62,1112.65 1092.82,1112.65 1095.02,1112.65 1097.22,1112.65 1099.42,1112.65 1101.61,1112.65 1103.81,1112.65 1106.01,1112.65 1108.21,1112.65 1110.41,1112.65 1112.61,1112.65 1114.81,1112.65 1117.01,1112.65 1119.21,1112.65 1121.4,1112.65 1123.6,1112.65 1125.8,1112.65 1128,1112.65 1130.2,1112.65 1132.4,1112.65 1134.6,1112.65 1136.8,1112.65 1138.99,1112.65 1141.19,1112.65 1143.39,1112.65 1145.59,1112.65 1147.79,1112.65 1149.99,1112.65 1152.19,1112.65 1154.39,1112.65 1156.59,1112.65 1158.78,1112.65 1160.98,1112.65 1163.18,1112.65 1165.38,1112.65 1167.58,1112.65 1169.78,1112.65 1171.98,1112.65 1174.18,1112.65 1176.38,1112.65 1178.57,1112.65 1180.77,1112.65 1182.97,1112.65 1185.17,1112.65 1187.37,1112.65 1189.57,1112.65 1191.77,1112.65 1193.97,1112.65 1196.16,1112.65 1198.36,1112.65 1200.56,1112.65 1202.76,1112.65 1204.96,1112.65 1207.16,1112.65 1209.36,1112.65 1211.56,1112.65 1213.76,1112.65 1215.95,1112.65 1218.15,1112.65 1220.35,1112.65 1222.55,1112.65 1224.75,1112.65 1226.95,1112.65 1229.15,1112.65 1231.35,1112.65 1233.55,1112.65 1235.74,1112.65 1237.94,1112.65 1240.14,1112.65 1242.34,1112.65 1244.54,1112.65 1246.74,1112.65 1248.94,1112.65 1251.14,1112.65 1253.33,1112.65 1255.53,1226.68 1257.73,1226.68 1259.93,1226.68 1262.13,1226.68 1264.33,1226.68 1266.53,1226.68 1268.73,1226.68 1270.93,1226.68 1273.12,1226.68 1275.32,1226.68 1277.52,1226.68 1279.72,1226.68 1281.92,1226.68 1284.12,1226.68 1286.32,1226.68 1288.52,1226.68 1290.71,1226.68 1292.91,1226.68 1295.11,1226.68 1297.31,1226.68 1299.51,1226.68 1301.71,1226.68 1303.91,1226.68 1306.11,1226.68 1308.31,1226.68 1310.5,1226.68 1312.7,1226.68 1314.9,1226.68 1317.1,1226.68 1319.3,1226.68 1321.5,1226.68 1323.7,1226.68 1325.9,1226.68 1328.1,1226.68 1330.29,1226.68 1332.49,1226.68 1334.69,1226.68 1336.89,1226.68 1339.09,1226.68 1341.29,1226.68 1343.49,1226.68 1345.69,1226.68 1347.88,1226.68 1350.08,1226.68 1352.28,1226.68 1354.48,1226.68 1356.68,1226.68 1358.88,1226.68 1361.08,1226.68 1363.28,1226.68 1365.48,1226.68 1367.67,1226.68 1369.87,1226.68 1372.07,1226.68 1374.27,1226.68 1376.47,1226.68 1378.67,1226.68 1380.87,1226.68 1383.07,1226.68 1385.27,1226.68 1387.46,1226.68 1389.66,1226.68 1391.86,1226.68 1394.06,1226.68 1396.26,1226.68 1398.46,1226.68 1400.66,1226.68 1402.86,1226.68 1405.05,1226.68 1407.25,1226.68 1409.45,1226.68 1411.65,1226.68 1413.85,1226.68 1416.05,1226.68 1418.25,1226.68 1420.45,1226.68 1422.65,1226.68 1424.84,1226.68 1427.04,1226.68 1429.24,1226.68 1431.44,1226.68 1433.64,1226.68 1435.84,1226.68 1438.04,1226.68 1440.24,1226.68 1442.44,1226.68 1444.63,1226.68 1446.83,1226.68 1449.03,1226.68 1451.23,1226.68 1453.43,1226.68 1455.63,1226.68 1457.83,1226.68 1460.03,1226.68 1462.22,1226.68 1464.42,1226.68 1466.62,1226.68 1468.82,1226.68 1471.02,1226.68 1473.22,1226.68 1475.42,755.004 1477.62,755.004 1479.82,755.004 1482.01,755.004 1484.21,755.004 1486.41,755.004 1488.61,755.004 1490.81,755.004 1493.01,755.004 1495.21,755.004 1497.41,755.004 1499.6,755.004 1501.8,755.004 1504,755.004 1506.2,755.004 1508.4,755.004 1510.6,755.004 1512.8,755.004 1515,755.004 1517.2,755.004 1519.39,755.004 1521.59,755.004 1523.79,755.004 1525.99,755.004 1528.19,755.004 1530.39,755.004 1532.59,755.004 1534.79,755.004 1536.99,755.004 1539.18,755.004 1541.38,755.004 1543.58,755.004 1545.78,755.004 1547.98,755.004 1550.18,755.004 1552.38,755.004 1554.58,755.004 1556.77,755.004 1558.97,755.004 1561.17,755.004 1563.37,755.004 1565.57,755.004 1567.77,755.004 1569.97,755.004 1572.17,755.004 1574.37,755.004 1576.56,755.004 1578.76,755.004 1580.96,755.004 1583.16,755.004 1585.36,755.004 1587.56,755.004 1589.76,755.004 1591.96,755.004 1594.16,755.004 1596.35,755.004 1598.55,755.004 1600.75,755.004 1602.95,755.004 1605.15,755.004 1607.35,755.004 1609.55,755.004 1611.75,755.004 1613.94,755.004 1616.14,755.004 1618.34,755.004 1620.54,755.004 1622.74,755.004 1624.94,755.004 1627.14,755.004 1629.34,755.004 1631.54,755.004 1633.73,755.004 1635.93,755.004 1638.13,755.004 1640.33,755.004 1642.53,755.004 1644.73,755.004 1646.93,755.004 1649.13,755.004 1651.33,755.004 1653.52,755.004 1655.72,755.004 1657.92,755.004 1660.12,755.004 1662.32,755.004 1664.52,755.004 1666.72,755.004 1668.92,755.004 1671.11,755.004 1673.31,755.004 1675.51,755.004 1677.71,755.004 1679.91,755.004 1682.11,755.004 1684.31,755.004 1686.51,755.004 1688.71,755.004 1690.9,755.004 1693.1,755.004 1695.3,1014.63 1697.5,1014.63 1699.7,1014.63 1701.9,1014.63 1704.1,1014.63 1706.3,1014.63 1708.5,1014.63 1710.69,1014.63 1712.89,1014.63 1715.09,1014.63 1717.29,1014.63 1719.49,1014.63 1721.69,1014.63 1723.89,1014.63 1726.09,1014.63 1728.28,1014.63 1730.48,1014.63 1732.68,1014.63 1734.88,1014.63 1737.08,1014.63 1739.28,1014.63 1741.48,1014.63 1743.68,1014.63 1745.88,1014.63 1748.07,1014.63 1750.27,1014.63 1752.47,1014.63 1754.67,1014.63 1756.87,1014.63 1759.07,1014.63 1761.27,1014.63 1763.47,1014.63 1765.66,1014.63 1767.86,1014.63 1770.06,1014.63 1772.26,1014.63 1774.46,1014.63 1776.66,1014.63 1778.86,1014.63 1781.06,1014.63 1783.26,1014.63 1785.45,1014.63 1787.65,1014.63 1789.85,1014.63 1792.05,1014.63 1794.25,1014.63 1796.45,1014.63 1798.65,1014.63 1800.85,1014.63 1803.05,1014.63 1805.24,1014.63 1807.44,1014.63 1809.64,1014.63 1811.84,1014.63 1814.04,1014.63 1816.24,1014.63 1818.44,1014.63 1820.64,1014.63 1822.83,1014.63 1825.03,1014.63 1827.23,1014.63 1829.43,1014.63 1831.63,1014.63 1833.83,1014.63 1836.03,1014.63 1838.23,1014.63 1840.43,1014.63 1842.62,1014.63 1844.82,1014.63 1847.02,1014.63 1849.22,1014.63 1851.42,1014.63 1853.62,1014.63 1855.82,1014.63 1858.02,1014.63 1860.22,1014.63 1862.41,1014.63 1864.61,1014.63 1866.81,1014.63 1869.01,1014.63 1871.21,1014.63 1873.41,1014.63 1875.61,1014.63 1877.81,1014.63 1880,1014.63 1882.2,1014.63 1884.4,1014.63 1886.6,1014.63 1888.8,1014.63 1891,1014.63 1893.2,1014.63 1895.4,1014.63 1897.6,1014.63 1899.79,1014.63 1901.99,1014.63 1904.19,1014.63 1906.39,1014.63 1908.59,1014.63 1910.79,1014.63 1912.99,1014.63 1915.19,1204.74 1917.39,1204.74 1919.58,1204.74 1921.78,1204.74 1923.98,1204.74 1926.18,1204.74 1928.38,1204.74 1930.58,1204.74 1932.78,1204.74 1934.98,1204.74 1937.17,1204.74 1939.37,1204.74 1941.57,1204.74 1943.77,1204.74 1945.97,1204.74 1948.17,1204.74 1950.37,1204.74 1952.57,1204.74 1954.77,1204.74 1956.96,1204.74 1959.16,1204.74 1961.36,1204.74 1963.56,1204.74 1965.76,1204.74 1967.96,1204.74 1970.16,1204.74 1972.36,1204.74 1974.55,1204.74 1976.75,1204.74 1978.95,1204.74 1981.15,1204.74 1983.35,1204.74 1985.55,1204.74 1987.75,1204.74 1989.95,1204.74 1992.15,1204.74 1994.34,1204.74 1996.54,1204.74 1998.74,1204.74 2000.94,1204.74 2003.14,1204.74 2005.34,1204.74 2007.54,1204.74 2009.74,1204.74 2011.94,1204.74 2014.13,1204.74 2016.33,1204.74 2018.53,1204.74 2020.73,1204.74 2022.93,1204.74 2025.13,1204.74 2027.33,1204.74 2029.53,1204.74 2031.72,1204.74 2033.92,1204.74 2036.12,1204.74 2038.32,1204.74 2040.52,1204.74 2042.72,1204.74 2044.92,1204.74 2047.12,1204.74 2049.32,1204.74 2051.51,1204.74 2053.71,1204.74 2055.91,1204.74 2058.11,1204.74 2060.31,1204.74 2062.51,1204.74 2064.71,1204.74 2066.91,1204.74 2069.11,1204.74 2071.3,1204.74 2073.5,1204.74 2075.7,1204.74 2077.9,1204.74 2080.1,1204.74 2082.3,1204.74 2084.5,1204.74 2086.7,1204.74 2088.89,1204.74 2091.09,1204.74 2093.29,1204.74 2095.49,1204.74 2097.69,1204.74 2099.89,1204.74 2102.09,1204.74 2104.29,1204.74 2106.49,1204.74 2108.68,1204.74 2110.88,1204.74 2113.08,1204.74 2115.28,1204.74 2117.48,1204.74 2119.68,1204.74 2121.88,1204.74 2124.08,1204.74 2126.28,1204.74 2128.47,1204.74 2130.67,1204.74 2132.87,1204.74 2135.07,1093.41 2137.27,1093.41 2139.47,1093.41 2141.67,1093.41 2143.87,1093.41 2146.06,1093.41 2148.26,1093.41 2150.46,1093.41 2152.66,1093.41 2154.86,1093.41 2157.06,1093.41 2159.26,1093.41 2161.46,1093.41 2163.66,1093.41 2165.85,1093.41 2168.05,1093.41 2170.25,1093.41 2172.45,1093.41 2174.65,1093.41 2176.85,1093.41 2179.05,1093.41 2181.25,1093.41 2183.45,1093.41 2185.64,1093.41 2187.84,1093.41 2190.04,1093.41 2192.24,1093.41 2194.44,1093.41 2196.64,1093.41 2198.84,1093.41 2201.04,1093.41 2203.23,1093.41 2205.43,1093.41 2207.63,1093.41 2209.83,1093.41 2212.03,1093.41 2214.23,1093.41 2216.43,1093.41 2218.63,1093.41 2220.83,1093.41 2223.02,1093.41 2225.22,1093.41 2227.42,1093.41 2229.62,1093.41 2231.82,1093.41 2234.02,1093.41 2236.22,1093.41 2238.42,1093.41 2240.61,1093.41 2242.81,1093.41 2245.01,1093.41 2247.21,1093.41 2249.41,1093.41 2251.61,1093.41 2253.81,1093.41 2256.01,1093.41 2258.21,1093.41 2260.4,1093.41 2262.6,1093.41 2264.8,1093.41 2267,1093.41 2269.2,1093.41 2271.4,1093.41 2273.6,1093.41 2275.8,1093.41 2278,1093.41 2280.19,1093.41 2282.39,1093.41 2284.59,1093.41 2286.79,1093.41 2288.99,1093.41 2291.19,1093.41 2293.39,1093.41 2295.59,1093.41 2297.78,1093.41 2299.98,1093.41 2302.18,1093.41 2304.38,1093.41 2306.58,1093.41 2308.78,1093.41 2310.98,1093.41 2313.18,1093.41 2315.38,1093.41 2317.57,1093.41 2319.77,1093.41 2321.97,1093.41 2324.17,1093.41 2326.37,1093.41 2328.57,1093.41 2330.77,1093.41 2332.97,1093.41 2335.17,1093.41 2337.36,1093.41 2339.56,1093.41 2341.76,1093.41 2343.96,1093.41 2346.16,1093.41 2348.36,1093.41 2350.56,1093.41 2352.76,1093.41 "/>
<path clip-path="url(#clip450)" d="M2034.73 248.629 L2279.53 248.629 L2279.53 93.1086 L2034.73 93.1086  Z" fill="#ffffff" fill-rule="evenodd" fill-opacity="1"/>
<polyline clip-path="url(#clip450)" style="stroke:#000000; stroke-linecap:round; stroke-linejoin:round; stroke-width:4; stroke-opacity:1; fill:none" points="2034.73,248.629 2279.53,248.629 2279.53,93.1086 2034.73,93.1086 2034.73,248.629 "/>
<polyline clip-path="url(#clip450)" style="stroke:#009af9; stroke-linecap:round; stroke-linejoin:round; stroke-width:4; stroke-opacity:1; fill:none" points="2059.14,144.949 2205.58,144.949 "/>
<path clip-path="url(#clip450)" d="M2254.64 136.303 L2245.27 148.919 L2255.13 162.229 L2250.1 162.229 L2242.56 152.043 L2235.01 162.229 L2229.99 162.229 L2240.06 148.664 L2230.85 136.303 L2235.87 136.303 L2242.74 145.539 L2249.62 136.303 L2254.64 136.303 Z" fill="#000000" fill-rule="nonzero" fill-opacity="1" /><polyline clip-path="url(#clip450)" style="stroke:#e26f46; stroke-linecap:round; stroke-linejoin:round; stroke-width:4; stroke-opacity:1; fill:none" points="2059.14,196.789 2205.58,196.789 "/>
<path clip-path="url(#clip450)" d="M2246.49 178.05 L2246.49 181.592 L2242.42 181.592 Q2240.13 181.592 2239.22 182.518 Q2238.34 183.444 2238.34 185.851 L2238.34 188.143 L2245.36 188.143 L2245.36 191.453 L2238.34 191.453 L2238.34 214.069 L2234.06 214.069 L2234.06 191.453 L2229.99 191.453 L2229.99 188.143 L2234.06 188.143 L2234.06 186.337 Q2234.06 182.009 2236.08 180.041 Q2238.09 178.05 2242.47 178.05 L2246.49 178.05 Z" fill="#000000" fill-rule="nonzero" fill-opacity="1" /></svg>
