<?xml version="1.0" encoding="utf-8"?>
<svg xmlns="http://www.w3.org/2000/svg" xmlns:xlink="http://www.w3.org/1999/xlink" width="600" height="400" viewBox="0 0 2400 1600">
<defs>
  <clipPath id="clip290">
    <rect x="0" y="0" width="2400" height="1600"/>
  </clipPath>
</defs>
<path clip-path="url(#clip290)" d="M0 1600 L2400 1600 L2400 0 L0 0  Z" fill="#ffffff" fill-rule="evenodd" fill-opacity="1"/>
<defs>
  <clipPath id="clip291">
    <rect x="112" y="47" width="2242" height="1440"/>
  </clipPath>
</defs>
<path clip-path="url(#clip291)" d="M-446.954 2316.7 L-446.954 2074.89 L-168.347 1953.98 L314.214 2023.79 L314.214 2265.6 L35.6071 2386.5 L-446.954 2316.7  Z" fill="#ffffff" fill-rule="evenodd" fill-opacity="1"/>
<polyline clip-path="url(#clip291)" style="stroke:#000000; stroke-linecap:round; stroke-linejoin:round; stroke-width:2; stroke-opacity:0.1; fill:none" points="728.231,1220.95 1143.69,861.153 1143.69,141.551 "/>
<polyline clip-path="url(#clip291)" style="stroke:#000000; stroke-linecap:round; stroke-linejoin:round; stroke-width:2; stroke-opacity:0.1; fill:none" points="848.871,1255.78 1264.33,895.979 1264.33,176.377 "/>
<polyline clip-path="url(#clip291)" style="stroke:#000000; stroke-linecap:round; stroke-linejoin:round; stroke-width:2; stroke-opacity:0.1; fill:none" points="969.511,1290.61 1384.97,930.805 1384.97,211.203 "/>
<polyline clip-path="url(#clip291)" style="stroke:#000000; stroke-linecap:round; stroke-linejoin:round; stroke-width:2; stroke-opacity:0.1; fill:none" points="1090.15,1325.43 1505.61,965.631 1505.61,246.029 "/>
<polyline clip-path="url(#clip291)" style="stroke:#000000; stroke-linecap:round; stroke-linejoin:round; stroke-width:2; stroke-opacity:0.1; fill:none" points="1210.79,1360.26 1626.25,1000.46 1626.25,280.854 "/>
<polyline clip-path="url(#clip291)" style="stroke:#000000; stroke-linecap:round; stroke-linejoin:round; stroke-width:2; stroke-opacity:0.1; fill:none" points="1331.43,1395.08 1746.89,1035.28 1746.89,315.68 "/>
<polyline clip-path="url(#clip291)" style="stroke:#000000; stroke-linecap:round; stroke-linejoin:round; stroke-width:2; stroke-opacity:0.1; fill:none" points="1396.56,1400 676.956,1192.27 676.956,472.669 "/>
<polyline clip-path="url(#clip291)" style="stroke:#000000; stroke-linecap:round; stroke-linejoin:round; stroke-width:2; stroke-opacity:0.1; fill:none" points="1466.36,1339.55 746.762,1131.82 746.762,412.216 "/>
<polyline clip-path="url(#clip291)" style="stroke:#000000; stroke-linecap:round; stroke-linejoin:round; stroke-width:2; stroke-opacity:0.1; fill:none" points="1536.17,1279.1 816.567,1071.36 816.567,351.762 "/>
<polyline clip-path="url(#clip291)" style="stroke:#000000; stroke-linecap:round; stroke-linejoin:round; stroke-width:2; stroke-opacity:0.1; fill:none" points="1605.97,1218.64 886.372,1010.91 886.372,291.309 "/>
<polyline clip-path="url(#clip291)" style="stroke:#000000; stroke-linecap:round; stroke-linejoin:round; stroke-width:2; stroke-opacity:0.1; fill:none" points="1675.78,1158.19 956.178,950.458 956.178,230.856 "/>
<polyline clip-path="url(#clip291)" style="stroke:#000000; stroke-linecap:round; stroke-linejoin:round; stroke-width:2; stroke-opacity:0.1; fill:none" points="1745.59,1097.74 1025.98,890.004 1025.98,170.403 "/>
<polyline clip-path="url(#clip291)" style="stroke:#000000; stroke-linecap:round; stroke-linejoin:round; stroke-width:2; stroke-opacity:0.1; fill:none" points="664.934,1159.7 1080.4,799.899 1800,1007.63 "/>
<polyline clip-path="url(#clip291)" style="stroke:#000000; stroke-linecap:round; stroke-linejoin:round; stroke-width:2; stroke-opacity:0.1; fill:none" points="664.934,1058.42 1080.4,698.615 1800,906.346 "/>
<polyline clip-path="url(#clip291)" style="stroke:#000000; stroke-linecap:round; stroke-linejoin:round; stroke-width:2; stroke-opacity:0.1; fill:none" points="664.934,957.132 1080.4,597.331 1800,805.062 "/>
<polyline clip-path="url(#clip291)" style="stroke:#000000; stroke-linecap:round; stroke-linejoin:round; stroke-width:2; stroke-opacity:0.1; fill:none" points="664.934,855.848 1080.4,496.047 1800,703.778 "/>
<polyline clip-path="url(#clip291)" style="stroke:#000000; stroke-linecap:round; stroke-linejoin:round; stroke-width:2; stroke-opacity:0.1; fill:none" points="664.934,754.564 1080.4,394.763 1800,602.495 "/>
<polyline clip-path="url(#clip291)" style="stroke:#000000; stroke-linecap:round; stroke-linejoin:round; stroke-width:2; stroke-opacity:0.1; fill:none" points="664.934,653.281 1080.4,293.48 1800,501.211 "/>
<polyline clip-path="url(#clip291)" style="stroke:#000000; stroke-linecap:round; stroke-linejoin:round; stroke-width:2; stroke-opacity:0.1; fill:none" points="664.934,551.997 1080.4,192.196 1800,399.927 "/>
<polyline clip-path="url(#clip290)" style="stroke:#000000; stroke-linecap:round; stroke-linejoin:round; stroke-width:4; stroke-opacity:1; fill:none" points="664.934,1202.68 1384.54,1410.41 "/>
<polyline clip-path="url(#clip290)" style="stroke:#000000; stroke-linecap:round; stroke-linejoin:round; stroke-width:4; stroke-opacity:1; fill:none" points="728.231,1220.95 733.217,1216.64 "/>
<polyline clip-path="url(#clip290)" style="stroke:#000000; stroke-linecap:round; stroke-linejoin:round; stroke-width:4; stroke-opacity:1; fill:none" points="848.871,1255.78 853.857,1251.46 "/>
<polyline clip-path="url(#clip290)" style="stroke:#000000; stroke-linecap:round; stroke-linejoin:round; stroke-width:4; stroke-opacity:1; fill:none" points="969.511,1290.61 974.497,1286.29 "/>
<polyline clip-path="url(#clip290)" style="stroke:#000000; stroke-linecap:round; stroke-linejoin:round; stroke-width:4; stroke-opacity:1; fill:none" points="1090.15,1325.43 1095.14,1321.11 "/>
<polyline clip-path="url(#clip290)" style="stroke:#000000; stroke-linecap:round; stroke-linejoin:round; stroke-width:4; stroke-opacity:1; fill:none" points="1210.79,1360.26 1215.78,1355.94 "/>
<polyline clip-path="url(#clip290)" style="stroke:#000000; stroke-linecap:round; stroke-linejoin:round; stroke-width:4; stroke-opacity:1; fill:none" points="1331.43,1395.08 1336.42,1390.77 "/>
<path clip-path="url(#clip290)" d="M667.928 1235.26 Q664.316 1235.26 662.488 1238.82 Q660.682 1242.36 660.682 1249.49 Q660.682 1256.6 662.488 1260.16 Q664.316 1263.7 667.928 1263.7 Q671.562 1263.7 673.367 1260.16 Q675.196 1256.6 675.196 1249.49 Q675.196 1242.36 673.367 1238.82 Q671.562 1235.26 667.928 1235.26 M667.928 1231.55 Q673.738 1231.55 676.793 1236.16 Q679.872 1240.74 679.872 1249.49 Q679.872 1258.22 676.793 1262.83 Q673.738 1267.41 667.928 1267.41 Q662.117 1267.41 659.039 1262.83 Q655.983 1258.22 655.983 1249.49 Q655.983 1240.74 659.039 1236.16 Q662.117 1231.55 667.928 1231.55 Z" fill="#000000" fill-rule="nonzero" fill-opacity="1" /><path clip-path="url(#clip290)" d="M688.089 1260.86 L692.974 1260.86 L692.974 1266.74 L688.089 1266.74 L688.089 1260.86 Z" fill="#000000" fill-rule="nonzero" fill-opacity="1" /><path clip-path="url(#clip290)" d="M703.205 1232.18 L721.562 1232.18 L721.562 1236.11 L707.488 1236.11 L707.488 1244.58 Q708.506 1244.24 709.525 1244.08 Q710.543 1243.89 711.562 1243.89 Q717.349 1243.89 720.728 1247.06 Q724.108 1250.23 724.108 1255.65 Q724.108 1261.23 720.636 1264.33 Q717.163 1267.41 710.844 1267.41 Q708.668 1267.41 706.4 1267.04 Q704.154 1266.67 701.747 1265.93 L701.747 1261.23 Q703.83 1262.36 706.052 1262.92 Q708.275 1263.47 710.751 1263.47 Q714.756 1263.47 717.094 1261.37 Q719.432 1259.26 719.432 1255.65 Q719.432 1252.04 717.094 1249.93 Q714.756 1247.83 710.751 1247.83 Q708.876 1247.83 707.001 1248.24 Q705.15 1248.66 703.205 1249.54 L703.205 1232.18 Z" fill="#000000" fill-rule="nonzero" fill-opacity="1" /><path clip-path="url(#clip290)" d="M778.383 1297.63 L786.021 1297.63 L786.021 1271.26 L777.711 1272.93 L777.711 1268.67 L785.975 1267 L790.651 1267 L790.651 1297.63 L798.29 1297.63 L798.29 1301.56 L778.383 1301.56 L778.383 1297.63 Z" fill="#000000" fill-rule="nonzero" fill-opacity="1" /><path clip-path="url(#clip290)" d="M807.734 1295.68 L812.619 1295.68 L812.619 1301.56 L807.734 1301.56 L807.734 1295.68 Z" fill="#000000" fill-rule="nonzero" fill-opacity="1" /><path clip-path="url(#clip290)" d="M832.804 1270.08 Q829.193 1270.08 827.364 1273.65 Q825.558 1277.19 825.558 1284.32 Q825.558 1291.42 827.364 1294.99 Q829.193 1298.53 832.804 1298.53 Q836.438 1298.53 838.243 1294.99 Q840.072 1291.42 840.072 1284.32 Q840.072 1277.19 838.243 1273.65 Q836.438 1270.08 832.804 1270.08 M832.804 1266.38 Q838.614 1266.38 841.669 1270.98 Q844.748 1275.57 844.748 1284.32 Q844.748 1293.04 841.669 1297.65 Q838.614 1302.23 832.804 1302.23 Q826.993 1302.23 823.915 1297.65 Q820.859 1293.04 820.859 1284.32 Q820.859 1275.57 823.915 1270.98 Q826.993 1266.38 832.804 1266.38 Z" fill="#000000" fill-rule="nonzero" fill-opacity="1" /><path clip-path="url(#clip290)" d="M900.018 1332.45 L907.657 1332.45 L907.657 1306.09 L899.347 1307.75 L899.347 1303.5 L907.611 1301.83 L912.287 1301.83 L912.287 1332.45 L919.926 1332.45 L919.926 1336.39 L900.018 1336.39 L900.018 1332.45 Z" fill="#000000" fill-rule="nonzero" fill-opacity="1" /><path clip-path="url(#clip290)" d="M929.37 1330.51 L934.254 1330.51 L934.254 1336.39 L929.37 1336.39 L929.37 1330.51 Z" fill="#000000" fill-rule="nonzero" fill-opacity="1" /><path clip-path="url(#clip290)" d="M944.486 1301.83 L962.842 1301.83 L962.842 1305.76 L948.768 1305.76 L948.768 1314.24 Q949.786 1313.89 950.805 1313.73 Q951.823 1313.54 952.842 1313.54 Q958.629 1313.54 962.009 1316.71 Q965.388 1319.88 965.388 1325.3 Q965.388 1330.88 961.916 1333.98 Q958.444 1337.06 952.124 1337.06 Q949.949 1337.06 947.68 1336.69 Q945.435 1336.32 943.027 1335.58 L943.027 1330.88 Q945.111 1332.01 947.333 1332.57 Q949.555 1333.13 952.032 1333.13 Q956.036 1333.13 958.374 1331.02 Q960.712 1328.91 960.712 1325.3 Q960.712 1321.69 958.374 1319.58 Q956.036 1317.48 952.032 1317.48 Q950.157 1317.48 948.282 1317.89 Q946.43 1318.31 944.486 1319.19 L944.486 1301.83 Z" fill="#000000" fill-rule="nonzero" fill-opacity="1" /><path clip-path="url(#clip290)" d="M1022.88 1367.28 L1039.2 1367.28 L1039.2 1371.21 L1017.26 1371.21 L1017.26 1367.28 Q1019.92 1364.52 1024.5 1359.9 Q1029.11 1355.24 1030.29 1353.9 Q1032.53 1351.38 1033.41 1349.64 Q1034.32 1347.88 1034.32 1346.19 Q1034.32 1343.44 1032.37 1341.7 Q1030.45 1339.96 1027.35 1339.96 Q1025.15 1339.96 1022.7 1340.73 Q1020.26 1341.49 1017.49 1343.04 L1017.49 1338.32 Q1020.31 1337.19 1022.76 1336.61 Q1025.22 1336.03 1027.26 1336.03 Q1032.63 1336.03 1035.82 1338.71 Q1039.01 1341.4 1039.01 1345.89 Q1039.01 1348.02 1038.2 1349.94 Q1037.42 1351.84 1035.31 1354.43 Q1034.73 1355.1 1031.63 1358.32 Q1028.53 1361.52 1022.88 1367.28 Z" fill="#000000" fill-rule="nonzero" fill-opacity="1" /><path clip-path="url(#clip290)" d="M1049.01 1365.34 L1053.9 1365.34 L1053.9 1371.21 L1049.01 1371.21 L1049.01 1365.34 Z" fill="#000000" fill-rule="nonzero" fill-opacity="1" /><path clip-path="url(#clip290)" d="M1074.08 1339.73 Q1070.47 1339.73 1068.64 1343.3 Q1066.84 1346.84 1066.84 1353.97 Q1066.84 1361.08 1068.64 1364.64 Q1070.47 1368.18 1074.08 1368.18 Q1077.72 1368.18 1079.52 1364.64 Q1081.35 1361.08 1081.35 1353.97 Q1081.35 1346.84 1079.52 1343.3 Q1077.72 1339.73 1074.08 1339.73 M1074.08 1336.03 Q1079.89 1336.03 1082.95 1340.64 Q1086.03 1345.22 1086.03 1353.97 Q1086.03 1362.7 1082.95 1367.3 Q1079.89 1371.89 1074.08 1371.89 Q1068.27 1371.89 1065.2 1367.3 Q1062.14 1362.7 1062.14 1353.97 Q1062.14 1345.22 1065.2 1340.64 Q1068.27 1336.03 1074.08 1336.03 Z" fill="#000000" fill-rule="nonzero" fill-opacity="1" /><path clip-path="url(#clip290)" d="M1144.52 1402.11 L1160.84 1402.11 L1160.84 1406.04 L1138.89 1406.04 L1138.89 1402.11 Q1141.55 1399.35 1146.14 1394.72 Q1150.74 1390.07 1151.92 1388.73 Q1154.17 1386.2 1155.05 1384.47 Q1155.95 1382.71 1155.95 1381.02 Q1155.95 1378.26 1154.01 1376.53 Q1152.09 1374.79 1148.98 1374.79 Q1146.78 1374.79 1144.33 1375.55 Q1141.9 1376.32 1139.12 1377.87 L1139.12 1373.15 Q1141.95 1372.01 1144.4 1371.43 Q1146.85 1370.86 1148.89 1370.86 Q1154.26 1370.86 1157.46 1373.54 Q1160.65 1376.23 1160.65 1380.72 Q1160.65 1382.85 1159.84 1384.77 Q1159.05 1386.67 1156.95 1389.26 Q1156.37 1389.93 1153.27 1393.15 Q1150.16 1396.34 1144.52 1402.11 Z" fill="#000000" fill-rule="nonzero" fill-opacity="1" /><path clip-path="url(#clip290)" d="M1170.65 1400.16 L1175.53 1400.16 L1175.53 1406.04 L1170.65 1406.04 L1170.65 1400.16 Z" fill="#000000" fill-rule="nonzero" fill-opacity="1" /><path clip-path="url(#clip290)" d="M1185.77 1371.48 L1204.12 1371.48 L1204.12 1375.42 L1190.05 1375.42 L1190.05 1383.89 Q1191.07 1383.54 1192.09 1383.38 Q1193.1 1383.19 1194.12 1383.19 Q1199.91 1383.19 1203.29 1386.36 Q1206.67 1389.54 1206.67 1394.95 Q1206.67 1400.53 1203.2 1403.63 Q1199.72 1406.71 1193.4 1406.71 Q1191.23 1406.71 1188.96 1406.34 Q1186.72 1405.97 1184.31 1405.23 L1184.31 1400.53 Q1186.39 1401.67 1188.61 1402.22 Q1190.84 1402.78 1193.31 1402.78 Q1197.32 1402.78 1199.65 1400.67 Q1201.99 1398.56 1201.99 1394.95 Q1201.99 1391.34 1199.65 1389.24 Q1197.32 1387.13 1193.31 1387.13 Q1191.44 1387.13 1189.56 1387.55 Q1187.71 1387.96 1185.77 1388.84 L1185.77 1371.48 Z" fill="#000000" fill-rule="nonzero" fill-opacity="1" /><path clip-path="url(#clip290)" d="M1274.3 1422.23 Q1277.66 1422.95 1279.53 1425.22 Q1281.43 1427.49 1281.43 1430.82 Q1281.43 1435.94 1277.91 1438.74 Q1274.39 1441.54 1267.91 1441.54 Q1265.74 1441.54 1263.42 1441.1 Q1261.13 1440.68 1258.67 1439.82 L1258.67 1435.31 Q1260.62 1436.45 1262.93 1437.02 Q1265.25 1437.6 1267.77 1437.6 Q1272.17 1437.6 1274.46 1435.87 Q1276.78 1434.13 1276.78 1430.82 Q1276.78 1427.76 1274.62 1426.05 Q1272.49 1424.32 1268.67 1424.32 L1264.65 1424.32 L1264.65 1420.47 L1268.86 1420.47 Q1272.31 1420.47 1274.14 1419.11 Q1275.97 1417.72 1275.97 1415.13 Q1275.97 1412.46 1274.07 1411.05 Q1272.19 1409.62 1268.67 1409.62 Q1266.75 1409.62 1264.55 1410.03 Q1262.36 1410.45 1259.72 1411.33 L1259.72 1407.16 Q1262.38 1406.42 1264.69 1406.05 Q1267.03 1405.68 1269.09 1405.68 Q1274.42 1405.68 1277.52 1408.11 Q1280.62 1410.52 1280.62 1414.64 Q1280.62 1417.51 1278.98 1419.5 Q1277.33 1421.47 1274.3 1422.23 Z" fill="#000000" fill-rule="nonzero" fill-opacity="1" /><path clip-path="url(#clip290)" d="M1290.3 1434.99 L1295.18 1434.99 L1295.18 1440.87 L1290.3 1440.87 L1290.3 1434.99 Z" fill="#000000" fill-rule="nonzero" fill-opacity="1" /><path clip-path="url(#clip290)" d="M1315.36 1409.39 Q1311.75 1409.39 1309.92 1412.95 Q1308.12 1416.49 1308.12 1423.62 Q1308.12 1430.73 1309.92 1434.29 Q1311.75 1437.83 1315.36 1437.83 Q1319 1437.83 1320.8 1434.29 Q1322.63 1430.73 1322.63 1423.62 Q1322.63 1416.49 1320.8 1412.95 Q1319 1409.39 1315.36 1409.39 M1315.36 1405.68 Q1321.17 1405.68 1324.23 1410.29 Q1327.31 1414.87 1327.31 1423.62 Q1327.31 1432.35 1324.23 1436.95 Q1321.17 1441.54 1315.36 1441.54 Q1309.55 1441.54 1306.48 1436.95 Q1303.42 1432.35 1303.42 1423.62 Q1303.42 1414.87 1306.48 1410.29 Q1309.55 1405.68 1315.36 1405.68 Z" fill="#000000" fill-rule="nonzero" fill-opacity="1" /><polyline clip-path="url(#clip290)" style="stroke:#000000; stroke-linecap:round; stroke-linejoin:round; stroke-width:4; stroke-opacity:1; fill:none" points="1384.54,1410.41 1800,1050.61 "/>
<polyline clip-path="url(#clip290)" style="stroke:#000000; stroke-linecap:round; stroke-linejoin:round; stroke-width:4; stroke-opacity:1; fill:none" points="1396.56,1400 1387.92,1397.51 "/>
<polyline clip-path="url(#clip290)" style="stroke:#000000; stroke-linecap:round; stroke-linejoin:round; stroke-width:4; stroke-opacity:1; fill:none" points="1466.36,1339.55 1457.73,1337.06 "/>
<polyline clip-path="url(#clip290)" style="stroke:#000000; stroke-linecap:round; stroke-linejoin:round; stroke-width:4; stroke-opacity:1; fill:none" points="1536.17,1279.1 1527.53,1276.6 "/>
<polyline clip-path="url(#clip290)" style="stroke:#000000; stroke-linecap:round; stroke-linejoin:round; stroke-width:4; stroke-opacity:1; fill:none" points="1605.97,1218.64 1597.34,1216.15 "/>
<polyline clip-path="url(#clip290)" style="stroke:#000000; stroke-linecap:round; stroke-linejoin:round; stroke-width:4; stroke-opacity:1; fill:none" points="1675.78,1158.19 1667.14,1155.7 "/>
<polyline clip-path="url(#clip290)" style="stroke:#000000; stroke-linecap:round; stroke-linejoin:round; stroke-width:4; stroke-opacity:1; fill:none" points="1745.59,1097.74 1736.95,1095.24 "/>
<path clip-path="url(#clip290)" d="M1423.65 1425.07 Q1427 1425.78 1428.88 1428.05 Q1430.78 1430.32 1430.78 1433.66 Q1430.78 1438.77 1427.26 1441.57 Q1423.74 1444.37 1417.26 1444.37 Q1415.08 1444.37 1412.77 1443.93 Q1410.48 1443.52 1408.02 1442.66 L1408.02 1438.15 Q1409.97 1439.28 1412.28 1439.86 Q1414.6 1440.44 1417.12 1440.44 Q1421.52 1440.44 1423.81 1438.7 Q1426.13 1436.97 1426.13 1433.66 Q1426.13 1430.6 1423.97 1428.89 Q1421.84 1427.15 1418.02 1427.15 L1414 1427.15 L1414 1423.31 L1418.21 1423.31 Q1421.66 1423.31 1423.49 1421.94 Q1425.31 1420.55 1425.31 1417.96 Q1425.31 1415.3 1423.42 1413.89 Q1421.54 1412.45 1418.02 1412.45 Q1416.1 1412.45 1413.9 1412.87 Q1411.7 1413.28 1409.06 1414.16 L1409.06 1410 Q1411.73 1409.26 1414.04 1408.89 Q1416.38 1408.52 1418.44 1408.52 Q1423.76 1408.52 1426.87 1410.95 Q1429.97 1413.35 1429.97 1417.47 Q1429.97 1420.34 1428.32 1422.34 Q1426.68 1424.3 1423.65 1425.07 Z" fill="#000000" fill-rule="nonzero" fill-opacity="1" /><path clip-path="url(#clip290)" d="M1493.43 1352.76 L1481.62 1371.21 L1493.43 1371.21 L1493.43 1352.76 M1492.2 1348.69 L1498.08 1348.69 L1498.08 1371.21 L1503.01 1371.21 L1503.01 1375.1 L1498.08 1375.1 L1498.08 1383.25 L1493.43 1383.25 L1493.43 1375.1 L1477.83 1375.1 L1477.83 1370.59 L1492.2 1348.69 Z" fill="#000000" fill-rule="nonzero" fill-opacity="1" /><path clip-path="url(#clip290)" d="M1549.09 1288.23 L1567.45 1288.23 L1567.45 1292.17 L1553.37 1292.17 L1553.37 1300.64 Q1554.39 1300.29 1555.41 1300.13 Q1556.43 1299.95 1557.45 1299.95 Q1563.24 1299.95 1566.62 1303.12 Q1570 1306.29 1570 1311.71 Q1570 1317.29 1566.52 1320.39 Q1563.05 1323.47 1556.73 1323.47 Q1554.56 1323.47 1552.29 1323.1 Q1550.04 1322.73 1547.63 1321.98 L1547.63 1317.29 Q1549.72 1318.42 1551.94 1318.98 Q1554.16 1319.53 1556.64 1319.53 Q1560.64 1319.53 1562.98 1317.42 Q1565.32 1315.32 1565.32 1311.71 Q1565.32 1308.1 1562.98 1305.99 Q1560.64 1303.88 1556.64 1303.88 Q1554.76 1303.88 1552.89 1304.3 Q1551.04 1304.72 1549.09 1305.6 L1549.09 1288.23 Z" fill="#000000" fill-rule="nonzero" fill-opacity="1" /><path clip-path="url(#clip290)" d="M1629.78 1243.2 Q1626.63 1243.2 1624.78 1245.35 Q1622.95 1247.5 1622.95 1251.25 Q1622.95 1254.98 1624.78 1257.16 Q1626.63 1259.31 1629.78 1259.31 Q1632.93 1259.31 1634.75 1257.16 Q1636.61 1254.98 1636.61 1251.25 Q1636.61 1247.5 1634.75 1245.35 Q1632.93 1243.2 1629.78 1243.2 M1639.06 1228.55 L1639.06 1232.8 Q1637.3 1231.97 1635.49 1231.53 Q1633.71 1231.09 1631.95 1231.09 Q1627.32 1231.09 1624.87 1234.22 Q1622.44 1237.34 1622.09 1243.66 Q1623.46 1241.65 1625.52 1240.58 Q1627.58 1239.49 1630.06 1239.49 Q1635.26 1239.49 1638.27 1242.67 Q1641.31 1245.81 1641.31 1251.25 Q1641.31 1256.58 1638.16 1259.8 Q1635.01 1263.01 1629.78 1263.01 Q1623.78 1263.01 1620.61 1258.43 Q1617.44 1253.82 1617.44 1245.1 Q1617.44 1236.9 1621.33 1232.04 Q1625.22 1227.16 1631.77 1227.16 Q1633.53 1227.16 1635.31 1227.5 Q1637.12 1227.85 1639.06 1228.55 Z" fill="#000000" fill-rule="nonzero" fill-opacity="1" /><path clip-path="url(#clip290)" d="M1687.24 1167.33 L1709.47 1167.33 L1709.47 1169.32 L1696.92 1201.89 L1692.04 1201.89 L1703.84 1171.26 L1687.24 1171.26 L1687.24 1167.33 Z" fill="#000000" fill-rule="nonzero" fill-opacity="1" /><path clip-path="url(#clip290)" d="M1768.9 1125.02 Q1765.57 1125.02 1763.65 1126.81 Q1761.75 1128.59 1761.75 1131.71 Q1761.75 1134.84 1763.65 1136.62 Q1765.57 1138.4 1768.9 1138.4 Q1772.24 1138.4 1774.16 1136.62 Q1776.08 1134.81 1776.08 1131.71 Q1776.08 1128.59 1774.16 1126.81 Q1772.26 1125.02 1768.9 1125.02 M1764.23 1123.03 Q1761.22 1122.29 1759.53 1120.23 Q1757.86 1118.17 1757.86 1115.21 Q1757.86 1111.06 1760.8 1108.66 Q1763.76 1106.25 1768.9 1106.25 Q1774.06 1106.25 1777 1108.66 Q1779.94 1111.06 1779.94 1115.21 Q1779.94 1118.17 1778.25 1120.23 Q1776.59 1122.29 1773.6 1123.03 Q1776.98 1123.82 1778.86 1126.11 Q1780.75 1128.4 1780.75 1131.71 Q1780.75 1136.74 1777.68 1139.42 Q1774.62 1142.11 1768.9 1142.11 Q1763.18 1142.11 1760.11 1139.42 Q1757.05 1136.74 1757.05 1131.71 Q1757.05 1128.4 1758.95 1126.11 Q1760.85 1123.82 1764.23 1123.03 M1762.51 1115.65 Q1762.51 1118.33 1764.18 1119.84 Q1765.87 1121.34 1768.9 1121.34 Q1771.91 1121.34 1773.6 1119.84 Q1775.31 1118.33 1775.31 1115.65 Q1775.31 1112.96 1773.6 1111.46 Q1771.91 1109.95 1768.9 1109.95 Q1765.87 1109.95 1764.18 1111.46 Q1762.51 1112.96 1762.51 1115.65 Z" fill="#000000" fill-rule="nonzero" fill-opacity="1" /><polyline clip-path="url(#clip290)" style="stroke:#000000; stroke-linecap:round; stroke-linejoin:round; stroke-width:4; stroke-opacity:1; fill:none" points="664.934,1202.68 664.934,483.08 "/>
<polyline clip-path="url(#clip290)" style="stroke:#000000; stroke-linecap:round; stroke-linejoin:round; stroke-width:4; stroke-opacity:1; fill:none" points="664.934,1159.7 669.92,1155.38 "/>
<polyline clip-path="url(#clip290)" style="stroke:#000000; stroke-linecap:round; stroke-linejoin:round; stroke-width:4; stroke-opacity:1; fill:none" points="664.934,1058.42 669.92,1054.1 "/>
<polyline clip-path="url(#clip290)" style="stroke:#000000; stroke-linecap:round; stroke-linejoin:round; stroke-width:4; stroke-opacity:1; fill:none" points="664.934,957.132 669.92,952.814 "/>
<polyline clip-path="url(#clip290)" style="stroke:#000000; stroke-linecap:round; stroke-linejoin:round; stroke-width:4; stroke-opacity:1; fill:none" points="664.934,855.848 669.92,851.531 "/>
<polyline clip-path="url(#clip290)" style="stroke:#000000; stroke-linecap:round; stroke-linejoin:round; stroke-width:4; stroke-opacity:1; fill:none" points="664.934,754.564 669.92,750.247 "/>
<polyline clip-path="url(#clip290)" style="stroke:#000000; stroke-linecap:round; stroke-linejoin:round; stroke-width:4; stroke-opacity:1; fill:none" points="664.934,653.281 669.92,648.963 "/>
<polyline clip-path="url(#clip290)" style="stroke:#000000; stroke-linecap:round; stroke-linejoin:round; stroke-width:4; stroke-opacity:1; fill:none" points="664.934,551.997 669.92,547.679 "/>
<path clip-path="url(#clip290)" d="M629.005 1158.35 Q632.361 1159.06 634.236 1161.33 Q636.134 1163.6 636.134 1166.93 Q636.134 1172.05 632.616 1174.85 Q629.097 1177.65 622.616 1177.65 Q620.44 1177.65 618.125 1177.21 Q615.834 1176.79 613.38 1175.94 L613.38 1171.42 Q615.324 1172.56 617.639 1173.14 Q619.954 1173.72 622.477 1173.72 Q626.875 1173.72 629.167 1171.98 Q631.482 1170.24 631.482 1166.93 Q631.482 1163.88 629.329 1162.16 Q627.199 1160.43 623.38 1160.43 L619.352 1160.43 L619.352 1156.59 L623.565 1156.59 Q627.014 1156.59 628.843 1155.22 Q630.671 1153.83 630.671 1151.24 Q630.671 1148.58 628.773 1147.16 Q626.898 1145.73 623.38 1145.73 Q621.459 1145.73 619.26 1146.15 Q617.06 1146.56 614.422 1147.44 L614.422 1143.28 Q617.084 1142.54 619.398 1142.16 Q621.736 1141.79 623.797 1141.79 Q629.121 1141.79 632.222 1144.23 Q635.324 1146.63 635.324 1150.75 Q635.324 1153.62 633.681 1155.61 Q632.037 1157.58 629.005 1158.35 Z" fill="#000000" fill-rule="nonzero" fill-opacity="1" /><path clip-path="url(#clip290)" d="M626.551 1045.21 L614.746 1063.66 L626.551 1063.66 L626.551 1045.21 M625.324 1041.14 L631.204 1041.14 L631.204 1063.66 L636.134 1063.66 L636.134 1067.55 L631.204 1067.55 L631.204 1075.7 L626.551 1075.7 L626.551 1067.55 L610.949 1067.55 L610.949 1063.03 L625.324 1041.14 Z" fill="#000000" fill-rule="nonzero" fill-opacity="1" /><path clip-path="url(#clip290)" d="M615.232 939.852 L633.588 939.852 L633.588 943.787 L619.514 943.787 L619.514 952.259 Q620.533 951.912 621.551 951.75 Q622.57 951.565 623.588 951.565 Q629.375 951.565 632.755 954.736 Q636.134 957.907 636.134 963.324 Q636.134 968.903 632.662 972.005 Q629.19 975.083 622.871 975.083 Q620.695 975.083 618.426 974.713 Q616.181 974.343 613.773 973.602 L613.773 968.903 Q615.857 970.037 618.079 970.593 Q620.301 971.148 622.778 971.148 Q626.783 971.148 629.121 969.042 Q631.459 966.935 631.459 963.324 Q631.459 959.713 629.121 957.607 Q626.783 955.5 622.778 955.5 Q620.903 955.5 619.028 955.917 Q617.176 956.333 615.232 957.213 L615.232 939.852 Z" fill="#000000" fill-rule="nonzero" fill-opacity="1" /><path clip-path="url(#clip290)" d="M624.607 853.985 Q621.459 853.985 619.607 856.138 Q617.778 858.29 617.778 862.04 Q617.778 865.767 619.607 867.943 Q621.459 870.096 624.607 870.096 Q627.755 870.096 629.584 867.943 Q631.435 865.767 631.435 862.04 Q631.435 858.29 629.584 856.138 Q627.755 853.985 624.607 853.985 M633.889 839.332 L633.889 843.591 Q632.13 842.758 630.324 842.318 Q628.542 841.878 626.783 841.878 Q622.153 841.878 619.699 845.003 Q617.269 848.128 616.922 854.448 Q618.287 852.434 620.347 851.369 Q622.408 850.281 624.884 850.281 Q630.093 850.281 633.102 853.452 Q636.134 856.601 636.134 862.04 Q636.134 867.364 632.986 870.582 Q629.838 873.8 624.607 873.8 Q618.611 873.8 615.44 869.216 Q612.269 864.61 612.269 855.883 Q612.269 847.689 616.158 842.827 Q620.047 837.943 626.597 837.943 Q628.357 837.943 630.139 838.29 Q631.945 838.638 633.889 839.332 Z" fill="#000000" fill-rule="nonzero" fill-opacity="1" /><path clip-path="url(#clip290)" d="M613.912 737.284 L636.134 737.284 L636.134 739.275 L623.588 771.844 L618.704 771.844 L630.509 741.22 L613.912 741.22 L613.912 737.284 Z" fill="#000000" fill-rule="nonzero" fill-opacity="1" /><path clip-path="url(#clip290)" d="M624.283 654.149 Q620.949 654.149 619.028 655.931 Q617.13 657.713 617.13 660.838 Q617.13 663.963 619.028 665.746 Q620.949 667.528 624.283 667.528 Q627.616 667.528 629.537 665.746 Q631.459 663.94 631.459 660.838 Q631.459 657.713 629.537 655.931 Q627.639 654.149 624.283 654.149 M619.607 652.158 Q616.597 651.417 614.908 649.357 Q613.241 647.297 613.241 644.334 Q613.241 640.19 616.181 637.783 Q619.144 635.376 624.283 635.376 Q629.445 635.376 632.384 637.783 Q635.324 640.19 635.324 644.334 Q635.324 647.297 633.634 649.357 Q631.968 651.417 628.982 652.158 Q632.361 652.945 634.236 655.237 Q636.134 657.528 636.134 660.838 Q636.134 665.862 633.056 668.547 Q630 671.232 624.283 671.232 Q618.565 671.232 615.486 668.547 Q612.431 665.862 612.431 660.838 Q612.431 657.528 614.329 655.237 Q616.227 652.945 619.607 652.158 M617.894 644.774 Q617.894 647.459 619.56 648.964 Q621.25 650.468 624.283 650.468 Q627.292 650.468 628.982 648.964 Q630.695 647.459 630.695 644.774 Q630.695 642.089 628.982 640.584 Q627.292 639.079 624.283 639.079 Q621.25 639.079 619.56 640.584 Q617.894 642.089 617.894 644.774 Z" fill="#000000" fill-rule="nonzero" fill-opacity="1" /><path clip-path="url(#clip290)" d="M614.514 568.559 L614.514 564.3 Q616.273 565.133 618.079 565.573 Q619.885 566.013 621.621 566.013 Q626.25 566.013 628.681 562.911 Q631.134 559.786 631.482 553.444 Q630.139 555.434 628.079 556.499 Q626.019 557.564 623.519 557.564 Q618.334 557.564 615.301 554.439 Q612.292 551.291 612.292 545.851 Q612.292 540.527 615.44 537.309 Q618.588 534.092 623.82 534.092 Q629.815 534.092 632.963 538.698 Q636.134 543.282 636.134 552.032 Q636.134 560.203 632.246 565.087 Q628.38 569.948 621.829 569.948 Q620.07 569.948 618.264 569.601 Q616.459 569.254 614.514 568.559 M623.82 553.907 Q626.968 553.907 628.796 551.754 Q630.648 549.601 630.648 545.851 Q630.648 542.124 628.796 539.971 Q626.968 537.796 623.82 537.796 Q620.672 537.796 618.82 539.971 Q616.991 542.124 616.991 545.851 Q616.991 549.601 618.82 551.754 Q620.672 553.907 623.82 553.907 Z" fill="#000000" fill-rule="nonzero" fill-opacity="1" /><polyline clip-path="url(#clip291)" style="stroke:#009af9; stroke-linecap:round; stroke-linejoin:round; stroke-width:4; stroke-opacity:1; fill:none" points="1000.5,878.912 1004.76,873.369 1002.99,875.43 995.598,884.495 992.313,888.329 982.991,899.658 982.496,899.763 988.842,891.303 983.104,897.973 989.315,889.638 987.174,891.864 975.281,906.089 978.489,901.144 983.027,894.723 989.517,885.714 996.753,876.22 990.562,883.793 983.792,891.556 987.584,885.864 990.44,881.266 1000.38,868.671 1021.53,842.947 1046.38,815.814 1041.97,824.986 1080.28,781.583 1043.77,831 1038.28,838.725 1061.7,812.204 1050.9,830.195 1063.08,815.792 1053.09,829.986 1075.39,806.385 1055.85,832.847 1035.98,845.162 1018.11,866.076 993.211,887.732 995.03,880.163 1006.4,863.758 986.02,879.44 995.086,878.529 1042.72,828.534 1061.72,816.386 1080.67,804.199 971.726,905.021 990.306,880.362 1002.8,878.477 991.746,886.062 1047.47,827.526 1025.41,839.766 1080.42,802.891 1058.76,822.763 1106.66,794.932 1178.62,712.621 1205.69,695.302 1240.74,669.547 1312.61,617.554 1325.94,615.694 1290.71,652.907 1253.61,687.858 1189.01,736.572 1125.42,790.094 1115.86,785.881 1145.31,749.816 1143.65,754.245 1148.65,760.167 1183.91,742.147 1228.8,688.933 1159.95,754.918 1145.06,764.586 1111.82,788.887 1069.35,825.047 1025.25,863.469 1047.94,830.282 1054.22,823.302 1085.93,811.171 1078.69,821.944 1216.84,702.059 1095.38,815.67 1083.73,818.759 1164.95,728.377 1283.1,637.931 1276.77,650.386 1291.24,641.03 1290.36,654.488 1300.83,644.275 1264.83,666.09 1163.83,750.465 1126.47,783.618 1130.56,774.748 1083.79,805.836 1093.61,798.895 1074.57,812.334 1089.8,797.785 1093.72,800.159 974.299,907.26 962.672,915.292 957.964,912.353 1013.48,848.486 1005.51,862.457 986.084,887.419 985.503,890.767 943.324,932.42 888.005,989.434 902.704,967.207 922.165,944.4 861.199,1006.3 921.896,929.028 970.1,888.075 966.033,908.324 963.572,912.362 914.866,958.153 878.836,989.359 909.074,958.174 947.099,912.792 915.758,945.058 940.254,917.515 1015.95,841.717 983.941,888.68 996.531,877.367 1006.27,869.253 1020.88,849.156 987.893,876.848 1083.82,777.735 1118.64,760.97 1151.44,738.933 1273.38,652.728 1326.26,616.155 1337.68,619.034 1301.7,644.196 1344.09,604.162 1439.22,552.617 1497.39,509.215 1468.58,537.114 1388.38,595.505 1349.77,618.283 1374.57,591.619 1275.52,674.767 1185.05,756.051 1110.09,809.052 1142.73,761.566 1195.15,702.918 1164.19,747.142 1202.89,701.465 1171.07,730.955 1083.87,816.817 1008.4,886.926 1001.01,882.386 1101.08,774.894 1070.36,809.394 1144.28,736.497 1221,676.972 1155.6,752.305 1133.43,770.529 1133.05,765.441 1147.97,760.138 1133.42,770.415 1112.85,786.247 991.81,888.306 946.813,927.709 1006.39,853.648 1021.85,844.232 909.322,967.72 902.383,961.811 914.856,944.57 934.645,924.348 923.776,933.67 945.888,919.919 948.776,917.174 951.733,915.06 980.364,879.648 939.282,928.435 905.897,961.339 923.417,947.741 879.091,988.907 888.902,978.46 866.893,999.472 889.211,970.558 939.235,922.875 963.411,899.681 973.356,898.865 930.279,945.624 954.622,919.683 932.645,949.041 953.145,920.223 924.77,943.236 971.496,893.725 981.622,881.819 1052.79,810.524 1029.01,834.709 1069.04,822.721 1016.02,864.669 1090.27,798.822 1168.82,731.582 1295.4,633.63 1310.7,641.435 1258.33,690.511 1283.25,664.919 1186.44,737.456 1161.09,750.752 1122.41,775.871 1069.49,808.37 1087.85,795.027 1044.84,838.506 1050.68,839.116 1071.52,831.489 1121.83,781.93 1162.74,731.752 1191.96,685.135 1224.56,658.412 1255.43,657.97 1216.9,709.915 1290.58,642.236 1345.94,602.465 1317.87,647.849 1432.24,559.556 1376.56,599.891 1335.35,637.025 1317.23,628.695 1310.19,633.284 1307.87,645.106 1218.97,713.494 1232.64,695.436 1229.12,693.878 1145.6,767.083 1216.36,688.324 1177.5,728.95 1125.78,774.183 1136.84,755.028 1193.43,712.221 1152.52,749.056 1212.91,705.065 1152.97,754.646 1175.81,728.93 1133.81,764.276 1138,757.441 1101.79,799.188 1152.72,748.925 1120.64,772.941 1161.1,737.561 1204.84,699.162 1239.11,698.246 1195.77,728.322 1139.58,762.874 1170.13,727.008 1219.6,692.263 1248.88,667.576 1182.46,744.253 1119.19,788.309 1098.49,805.828 1197.48,695.639 1183.06,707.414 1187.21,720.696 1172.48,725.736 1216.41,685.054 1215.85,708.922 1355.15,594.417 1286.31,667.314 1207.01,742.788 1167.52,756.914 1123.36,784.58 1112.57,792.719 1097.89,800.676 1071.36,822.256 956.684,935.991 998.106,872.843 1028.5,840.837 964.507,915.701 948.933,918.805 978.715,890.085 899.3,972.069 980.646,874.585 1002.16,859.755 918.887,955.656 929.034,934.735 922.547,945.129 978.783,879.722 951.003,920.989 924.496,946.567 1036.87,825.059 1043.86,822.987 1034.12,845.606 954.993,932.133 997.011,866.882 1011.57,862.358 1083.6,801.184 1044.86,839.597 1005.77,877.13 1003.71,870.822 977.307,892.033 971.869,900.988 928.604,940.73 910.382,954.581 907.871,950.961 944.428,922.304 951.773,909.328 1005.37,860.324 1113.93,759.896 1071.78,816.998 1116.09,781.612 1190.23,703.114 1063.63,823.26 1052.1,838.31 1059.66,828.14 1048.4,831.918 1104.67,809.292 1136.38,767.313 1195.7,738.616 1274.42,675.457 1177.44,738.366 1237.07,690.032 1138.64,779.395 1160.91,757.058 1101.58,818.27 1102.78,800.446 1085.95,807.723 1124.74,761.08 1081.87,806.675 1080.66,809.624 1090.5,794.869 1097.05,778.111 1100.38,765.302 1003.68,842.178 1045.16,802.055 951.588,901.833 1011.53,855.247 1060.66,814.413 1095.98,799.186 1033.35,849.334 993.641,892.887 1033.95,854.907 955.132,935.861 965.499,915.497 949.266,925.828 993.726,877.51 986.88,888.883 1098.84,784.029 1066.48,823.574 1027.75,861.54 1008.24,868.887 1076.59,812.866 1030.36,853.235 1027.18,862.985 1159.64,739.159 1213.43,698.115 1202.26,735.045 1140.3,770.254 1119.27,778.79 1101.08,795.643 1120.17,764.923 1150,749.696 1115.94,780.514 1189.99,705.649 1150.3,744.7 1204.23,692.494 1226.68,681.715 1304.66,625.576 1329.01,618.254 1243.72,686.773 1309.85,634.685 1264.75,674.178 1256.07,688.65 1209.42,721.161 1244.59,678.52 1224.1,698.943 1216.83,709.528 1234.49,705.11 1329.68,639.945 1286.46,656.375 1340.17,602.666 1304.87,641.903 1229.42,704.896 1279.34,648.691 1387.8,555.233 1413.65,556.948 1466.11,514.505 1470.45,532.165 1455.32,545.007 1401.43,588.411 1370.69,610.503 1252.27,706.503 1179.82,759.014 1102.32,823.395 1077.13,832.156 1082.22,810.343 1038.15,856.608 1036.4,848.615 1059.05,822.692 1073.22,811.035 1103.54,784.759 1127.14,766.81 1128.46,769.155 1176.18,735.129 1212.83,692.577 1250.89,669.314 1237.71,681.277 1245.6,678.164 1263.17,673.193 1267.98,665.529 1288.29,658.016 1301.38,647.401 1268.47,665.469 1301.09,640.807 1376.43,574.889 1414.26,552.408 1473.47,526.68 1332.86,646.95 1273.02,678.912 1265.47,676.944 1214.93,721.721 1247.36,690.051 1203.78,729.943 1162.18,757.687 1083.48,826.618 1059.14,838.823 1073.82,810.7 1118.02,767.275 1109.58,783.018 1179,713.49 1241.73,664.601 1191.36,724.354 1124.84,782.053 1151.22,748.219 1091,801.978 1024.05,849.311 1063.54,812.522 1036.41,847.371 1025.3,845.378 1007.77,861.449 1081.94,801.959 1159.32,739.839 1133.54,764.888 1118.37,777.164 1148.68,753.717 1248.33,670.247 1203.89,717.774 1179.53,732.887 1171.54,738.624 1107.37,802.886 1047.43,849.475 1081.04,802.496 1138.2,754.641 1081.42,825.337 1046.51,847.073 1092.21,790.167 1149.23,734.257 1204.65,691.737 1192.39,708.756 1207.38,699.213 1166.95,746.478 1082.3,825.902 1126.99,764.65 1162.06,733.059 1189.07,713.922 1216.88,697.3 1284.47,648.1 1413.75,554.209 1381.88,591.54 1314.59,660.854 1203.82,747.186 1163.66,767.125 1143.55,773.862 1100.46,804.347 1111.82,786.838 1153.66,735.987 1105.03,796.755 1101.87,799.535 1136.59,771.444 1167.11,737.873 1117.26,800.455 1169.25,739.239 1199.82,711.489 1083.31,806.032 1109.98,781.682 1121.52,778.568 1090.12,805.785 1064.91,821.741 1066.07,818.627 1031.67,852.802 950.504,929.802 933.638,933.305 1011.11,849.597 989.634,875.366 1029.14,831.979 1091.29,787.778 1083.22,805.464 1069.68,814.786 1119.66,768.135 1135.59,759.948 1035.51,858.286 1075.63,823.276 1138.13,782.637 1173.05,739.227 1255.19,688.754 1299.21,641.137 1287.12,650.346 1295.3,649.876 1218.08,711.106 1136.77,780.643 1071.95,833.529 1066.45,830.263 1015.23,867.537 1036.45,840.027 1060.88,815.118 1084.72,794.989 1076,804.81 1175.74,728.109 1155.58,748.64 1167.81,732.279 1054.24,845.592 1074.74,818.38 1055.39,832.142 1038.06,845.021 1114.94,761.656 1182.22,707.078 1233.9,671.099 1263.2,648.015 1327.84,597.904 1297.8,643.785 1275.33,670.634 1234.08,708.061 1190.42,730.019 1165.05,753.745 1111.79,795.864 1088.01,813.425 1114.69,780.209 1071.1,823.016 1078.53,811.567 1005.47,891.943 1027.13,856.073 1051.89,834.308 1037.53,853.728 1084.6,809.5 1065.18,816.804 1187.22,716.472 1191.27,710.826 1150.42,747.236 1072.37,824.616 1132.91,768.711 1092.97,792.879 1055.24,831.599 1104,803.834 1024.52,873.568 948.758,937.025 950.048,921.309 994.884,876.71 1061.2,824.841 1149.77,728.042 1133.04,753.619 1176.61,721.117 1137.38,753.504 1222.46,671.566 1192.68,712.867 1253.11,654.509 1279.44,653.069 1287.56,654.39 1291.86,670.958 1281.78,667.015 1306.06,644.633 1230.17,702.964 1197.03,732.65 1221.12,702.417 1251.07,672.956 1361.59,579.164 1498.73,477.541 1493.24,515.365 1415.24,585.614 1447.79,563.152 1426.02,578.284 1438.61,561.355 1388.19,601.232 1280,694.775 1303.31,646.451 1293.92,650.199 1239.53,693.541 1223.58,707.91 1255.71,674.842 1211.25,712.766 1251.54,670.448 1194.5,721.864 1283.7,639.226 1244.23,690.272 1266.01,671.192 1228.02,700.025 1202.18,713.545 1210.6,702.161 1251.72,672.603 1275.01,654.437 1212.98,712.08 1279.87,647.834 1381.23,605.411 1362.1,615.511 1363.62,609.644 1398.54,580.234 1407.55,560.76 1456.13,538.545 1472.93,549.872 1416.53,598.025 1404.63,587.054 1303.66,669.834 1242.36,709.824 1173.83,760.834 1187.37,732.037 1203.56,712.442 1201.15,710.992 1248.02,670.776 1231.46,699.414 1204.22,716.834 1232.5,685.177 1218.12,714.355 1177.29,738.604 1146.71,764.776 1030.79,868.822 1005.33,883.382 992.801,882.32 1023.81,848.868 1012.68,862.791 1034.67,845.532 1086.94,792.129 1158.47,735.608 1251.11,648.757 1250.02,658.223 1301.78,626.527 1209.66,713.116 1256.39,673.569 1278.74,652.42 1296.59,628.359 1406.64,565.969 1404.71,587.006 1371.14,619.148 1376.35,592.371 1329.91,637.632 1261.18,683.244 1254.73,678.66 1262.42,665.77 1107.96,806.253 1178.36,717.496 1165.23,740.054 1128.05,774.294 1134.06,767.067 1154.02,746.172 1152.45,735.255 1203.47,685.936 1200.99,724.762 1173.05,743.52 1137.34,780.444 1103.63,801.657 1076.38,825.838 1087.08,805.859 1101.29,787.789 1121.11,773.074 1076.93,823.046 1109.9,791.116 1088.8,801.087 1150,749.784 1269.47,649.637 1186.11,728.196 1207.65,707.522 1256.17,679.563 1280.51,657.843 1350.89,588.412 1344.38,595.473 1361.68,582.947 1357.42,600.391 1399.54,580.321 1356.33,626.063 1484,516.11 1553.42,470.467 1616.86,447.928 1652.09,440.489 1635.3,446.621 1553.73,499.536 1512.44,531.135 1510.42,526.32 1560.27,479.461 1539.47,496.217 1525.94,503.695 1419.01,596.349 1412.48,582.616 1392.1,594.637 1349.79,627.408 1244.73,715.375 1234.87,710.148 1215.3,718.103 1179.37,748.655 1199.83,716.199 1242.81,665.183 1189.69,723.12 1190.86,718.091 1177.7,725.557 1219.59,687.31 1183.42,729.792 1207,715.107 1278.81,656.084 1200.98,722.467 1233.1,698.689 1165.77,755.883 1093.8,813.395 1104.61,793.915 1124.15,779.804 1092.97,800.182 1080.16,811.931 1112.35,776.55 1123.75,777.226 1198.66,703.122 1174.46,731.002 1251.07,670.893 1242.55,688.261 1228.02,701.662 1251.37,673.56 1346.96,605.22 1287.39,664.865 1266.95,678.501 1294.04,651.62 1301.1,647.416 1293.06,653.86 1297.35,647.131 1308.99,640.33 1267.66,688.541 1241.28,697.777 1314.2,638.78 1097.65,830.432 1111.06,797.889 1114.22,781.892 1089.4,807.582 1073.18,819.096 1115.24,775.894 1118.11,770.192 1102.87,784.842 1128.24,757.167 1142.87,761.604 1143.7,751.043 1194.21,708.851 1159.23,752.395 1037.04,862.141 1025.5,865.244 1092.76,789.958 1076.68,811.303 1067.07,815.965 1130.58,757.835 1169.2,731.798 1201.21,700.005 1274.83,650.909 1312.07,632.957 1257.71,675.152 1227.01,695.216 1325.16,622.866 1272.26,679.061 1205.14,722.476 1129.63,785.58 1178.55,722.934 1234.74,684.362 1231.76,685.492 1137.12,779.896 1196.62,711.385 1151.28,754.391 1143.42,772.344 1181.88,755.268 1203.39,722.32 1160.34,752.669 1119.81,786.906 1140.6,766.233 1187.9,719.741 1151.81,743.109 1073.99,812.339 947.097,922.846 1009.17,864.614 1039.95,836.352 1061.37,818.018 1056.39,806.143 1124.43,744.104 1105.35,781.17 1165.35,736.522 1146.57,768.665 1204.18,729.392 1265.8,676.071 1313.45,653.836 1283.76,657.057 1255.98,683.378 1308.15,632.513 1224.13,696.859 1229.33,683.151 1148.97,726.917 1134.1,750.816 1184.55,715.614 1172.84,722.534 1256.37,670.376 1220.87,708.704 1235.66,689.659 1244.03,678.964 1210.94,702.699 1239.24,678.986 1344.47,606.688 1373.63,582.066 1408.35,560.868 1341.04,624.149 1219.92,728.177 1187.98,741.897 1192.19,730.085 1219.26,700.326 1085.03,824.945 1009.91,894.392 986.264,905.06 958.363,922.197 993.139,871.654 990.141,880.017 993.154,875.86 1004.67,859.312 986.939,881.042 962.578,901.804 948.781,917.184 977.937,879.619 1028.93,836.991 1046.25,825.141 1041.85,832.339 1041.36,832.694 1030.72,849.915 995.054,876.182 948.986,912.668 1002.59,872.126 1077.1,801.036 1110.98,778.956 1102.75,798.197 1126.9,774.448 1108.18,784.82 1162.98,729.898 1359.02,559.768 1361.18,586.024 1314.52,645.011 1279.67,669.581 1276.76,662.152 1269.15,677.414 1243.06,698.489 1272.12,659.225 1342.24,603.957 1306.61,636.058 1416.69,544.343 1473.63,517.964 1330.17,626.85 1305.39,643.493 1217.63,710.015 1314.3,605.286 1293.86,638.033 1182.5,743.979 1154.2,759.068 1105.18,803.59 1115.44,779.295 1118.79,772.582 1145.71,747.825 1198.25,712.778 1165.01,745.653 1152.46,746.736 1137.35,756.831 1146.03,745.184 1067.78,823.058 1048.85,842.258 1018.39,871.169 978.719,907.768 1000.35,874.68 1067.67,808.275 1110.1,771.871 1114.2,769.451 1025.33,861.38 1053.32,822.319 1029.39,841.897 1019.41,859.589 1017.35,860.521 1012.1,867.906 1036.43,845.079 999.888,885.236 997.202,891.441 1087.21,816.921 1083.51,815.298 1050.28,849.381 1089.25,812.255 1136.62,781.994 1336.6,602.854 1437.73,541.299 1667.34,378.295 1660.01,428.662 1747.21,361.155 1757.18,364.94 1662.47,444.176 1627.71,464.41 1490.68,566.782 1498.89,540.018 1506.74,526.216 1499.51,523.195 1431.75,577.111 1436.05,563.559 1450.88,541.634 1426.73,566.882 1439.76,548.554 1369.36,613.973 1306.74,659.997 1258.48,697.805 1255.23,689.571 1316.63,619.666 1302.91,636.434 1298.23,641.319 1277.3,660.395 1243.77,691.739 1241.07,681.212 1163.57,753.728 1162.54,745.638 1122.89,782.944 1090.19,800.723 999.881,887.689 1015.56,858.931 1010.33,876.067 1108.48,763.993 1072.84,821.903 1162.79,721.181 1196.9,706.452 1170.93,737.429 1194.98,716.241 1156.6,762.652 1179.04,742.274 1093.45,804.6 1085.34,809.567 1077.53,818.164 1064.9,828.379 1063.85,826.849 1047.97,836.476 1005.71,880.089 973.429,900.018 1029.24,832.404 1084.57,783.117 1099.14,777.432 1136.69,749.103 1165.63,722.278 1212.75,690.961 1193.14,719.242 1219.87,696.463 1120.77,786.811 1073.73,828.505 1132.66,755.357 1173.23,717.779 1146.37,750.466 1105.5,786.145 1090.04,803.107 1101.28,799.924 1145.03,759.246 1153.37,724.3 1189.27,706.743 1220.72,681.812 1157.83,741.661 1082.09,813.313 1038.53,859.847 1048.03,833.596 1181.17,719.616 1052.21,839.008 1105.9,773.537 1094.93,797.715 1094.4,785.107 1017.4,852.388 1033.02,844.333 1034.67,839.029 1073.46,813.259 1160.21,731.795 1068.04,808.685 1093.13,786.522 1147.6,735.277 1161.77,750.538 1177.98,721.571 1155.02,737.792 1170.97,746.131 1168.42,744.954 1209.98,704.122 1172.96,743.721 1058.65,840.472 1021.88,872.628 1018.49,865.986 1081.33,789.091 1067.44,817.864 1045.57,841.251 1068.96,814.316 1109.06,772.895 1149.55,740.425 1182.77,712.155 1244.66,658.492 1227.23,689.681 1160.04,753.109 1202.67,711.313 1205.23,705.67 1198.28,705.797 1241.73,687.52 1243.77,686.982 1167.81,757.652 1113.46,809.364 1093.74,816.181 1140.36,751.057 1166.03,731.112 1217.61,698.15 1238.73,677.13 1282.42,647.029 1217.1,710.616 1294.55,644.515 1200.64,731.139 1199.88,721.655 1257.46,669.053 1228.83,684.279 1230.65,695.944 1150.41,765.73 1194.29,719.812 1184.12,734.048 1195.01,715.946 1178.73,733.889 1068.2,820.397 1047.54,843.906 1155.33,722.537 1117.53,766.723 1168.1,714.201 1280.36,634.996 1239.28,690.094 1178.41,747.816 1141.79,768.097 1137.08,770.846 1126.02,778.775 1086.28,808.964 1093.43,802.052 1050.3,848.977 1115.02,774.445 1145.75,751.356 1034.1,864.385 1072.75,811.918 1089.98,790.689 1074.99,816.386 1060.91,824.041 1088.42,806.096 1058.64,844.712 1000.91,887.973 988.493,892.384 947.295,927.305 959.213,908.652 912.067,959.542 936.25,921.688 975.059,887.027 996.963,863.595 1038.53,829.136 1076.11,808.166 1194.86,686.56 1241.97,662.738 1219.77,691.927 1227,696.591 1215.86,706.153 1215.4,708.618 1141.41,777.121 1112.84,795.3 1089.82,809.557 1047.12,841.261 1089.54,795.223 1038,847.735 971.618,918.754 932.016,953.416 964.364,910.054 906.951,966.867 930.277,932.997 936.17,924.331 965.193,898.232 996.504,870.701 1041.09,825.052 1084.88,795.808 1074.93,817.345 1067.73,835.913 1251.66,663.102 1276.68,640.5 1257.24,677.744 1223.52,710.33 1244.83,686.293 1114.16,798.359 1087.32,810.389 1031.02,863.636 980.729,902.568 956.421,916.215 979.664,890.752 965.02,904.557 986.158,876.984 985.075,876.014 938.554,929.901 993.613,871.234 1081.33,792.518 1041.03,833.832 1030.24,846.104 1071.28,807.617 1192.14,701.927 1190.47,711.297 1250.73,661.849 1133.93,773.431 1252.61,686.684 1268.72,663.217 1233.68,690.844 1281.61,649.618 1165.41,744.065 1175.61,731.12 1125.91,780.846 1086.02,817.816 1025.83,868.516 1055.59,823.742 1045.87,836.543 1039.03,839.551 1076.24,810.327 1032,839.538 1123.28,775.293 1061.32,824.446 1012.75,872.796 1095.22,792.172 1050.46,834.934 1074.56,803.327 963.229,909.485 954.748,914.235 1004.39,860.25 1039.92,834.558 1064.83,815.353 972.073,896.27 1034.35,828.059 1018.02,838.539 896.525,958.518 834.331,1024.63 908.009,956.315 955.785,911.795 933.615,933.878 948.507,916.729 921.575,942.261 963.461,906.341 921.347,957.564 1017.62,858.321 1077.74,806.267 1048.6,845.358 1009.93,873.469 1004.11,870.126 998.061,875.843 1002.5,863.343 1091.8,791.614 1131.92,760.975 1133.81,760.725 1032.08,858.924 1121.9,762.399 1141.54,754.409 1200.81,705.252 1338.15,605.901 1300.06,636.314 1259.59,679.719 1212.81,702.94 1148.82,753.08 1083.52,818.969 1081.21,809.183 1015.36,860.985 976.75,902.797 948.385,934.358 936.95,933.963 960.372,912.927 977.818,886.114 930.564,937.067 953.062,905.096 929.796,927.218 925.645,921.729 943.807,913.714 1009.33,855.903 1033.71,852.339 1066.74,810.609 984.285,888.125 940.621,932.763 969.94,908.245 861.242,1014.2 910.445,951.171 888.066,973.313 864.843,997.634 864.337,992.437 856.969,1007.16 845.491,1021.05 845.79,1018.39 866.321,993.904 925.426,937.264 981.471,873.655 1042.8,827.845 1045.83,840.141 1026.51,855.631 1140.86,749.074 1191.63,716.85 1118.11,792.14 1085.96,818.688 1080.77,820.107 1094.11,800.129 1095.16,799.594 1033.36,858.188 1002.79,888.309 970.389,912.249 1025.06,841.699 1047.1,822.446 1065.99,811.174 1070.99,816.664 1104.43,783.622 1124.59,772.019 1205.69,693.4 1314.03,623.357 1271.09,674.149 1298.71,655.01 1291.92,670.98 1325.36,627.888 1285.45,647.379 1294.99,649.215 1347.24,602.491 1348.96,597.262 1288.76,651.078 1241.3,685.543 1205.52,721.448 1193.71,730.029 1113.63,795.195 1059.1,837.422 1073.29,810.117 1075.53,805.458 1094.57,785.068 1065.36,818.004 1017.47,867.298 947.221,932.032 951.841,924.381 959.519,919.292 941.643,928.427 885.858,990.659 899.204,970.16 917.885,947.379 925.43,947.941 972.462,900.349 915.033,954.407 940.139,927.74 956.781,917.292 972.613,885.51 1021.72,848.508 986.506,889.393 979.702,899.41 951.347,918.962 895.154,967.061 941.13,923.694 1026.32,837.102 1063.24,808.974 1046.93,830.172 1044.43,834.568 1148.34,737.259 1126.66,765.568 1095.69,799.417 1104.84,790.315 1026.11,847.876 998.647,868.081 1021.8,854.768 1087.01,786.026 1067.72,822.026 1061.54,828.347 1002.58,879.012 1008.91,865.776 990.42,885.268 977.304,886.931 1015.71,862.142 986.185,889.204 1009.88,869.345 1011.65,868.294 976.986,901.535 948.206,927.536 1000,872.276 1063.2,817.517 1028.59,849.406 1009.64,857.246 1068.66,814.108 1022.16,863.067 960.429,914.933 987.393,876.867 989.758,873.784 933.943,929.233 935.567,931.417 1038.8,821.496 1066.88,799.621 1093.08,783.658 1107.94,770.637 1099.98,784.561 1119.81,769.651 1171.05,732.103 1180.25,725.247 1073.36,804.363 1144.54,743.852 1042.81,841.415 1017.2,856.867 1025.46,846.567 1121.83,761.562 1133.24,765.225 1161.28,741.615 1171.49,740.879 1109.78,791.089 1072.84,807.201 1153.94,724.853 1126.53,764.391 1128.42,754.35 1079.6,802.855 1077.76,818.024 1057.28,837.815 1044.8,836.647 1032.14,845.157 1091.71,783.124 1135.63,761.023 1119.58,786.21 1100.4,795.047 1036.07,859.366 1060.3,823.565 1227.41,670.946 1186.75,720.552 1102.32,807.27 1137.78,762.49 1214.08,692.357 1253.78,656.912 1239.31,686.529 1178.57,724.057 1202.4,715.627 1225.51,685.802 1157.06,757.37 1226.76,686.993 1189.68,725.206 1395.6,557.524 1376.2,588.45 1326.88,629.972 1266.67,673.034 1236.82,710.193 1163.4,768.2 1070.51,846.352 1035.3,865.958 959.906,931.433 963.697,911.665 974.579,893.597 961.59,906.627 936.942,934.811 889.762,984.235 908.82,952.675 899.867,962.889 903.85,959.734 913.807,945.925 907.3,957.058 904.917,952.902 881.11,975.518 857.605,1005.05 820.564,1051.1 842.324,1018.85 895.6,964.634 935.99,925.481 906.662,961.158 955.079,905.844 926.903,939.105 841.439,1023.04 821.52,1049.04 806.883,1056.69 831.324,1026.51 891.596,957.065 946.321,913.714 981.885,882.409 1086.43,785.05 1006.78,875.894 1045.56,830.013 1088.92,798.292 982.163,905.769 983.226,898.873 996.043,877.859 1013.18,852.581 1027.45,849.17 1033.95,839.895 1030.12,845.356 1035.73,830.98 1066.1,817.939 1007.9,867.685 1070.31,800.492 1121.13,776.742 1137.62,771.179 1202.63,705.503 1194.41,726.115 1195.02,720.502 1139.32,762.815 1098.61,787.82 1048.22,840.699 1022.7,855.964 1008.12,875.657 986.98,892.968 1004.46,867.544 977.606,891.933 1037.93,824.644 1158.69,726.065 1198.41,705.943 1301.17,622.259 1342.32,599.254 1390.12,575.493 1425.08,547.516 1329.97,644.339 1283.12,660.835 1258.89,675.565 1193.56,729.2 1229.65,686.389 1184.63,725.951 1254.09,674.13 1244.67,686.753 1298.08,634.613 1445.43,535.447 1451.09,544.894 1510.96,497.11 1478,531.231 1537.51,487.008 1422.21,593.984 1361.62,626.591 1357.51,614.702 1308.48,652.077 1279.08,673.806 1268.23,678.555 1250,687.947 1209.96,727.878 1224.56,702.761 1293.04,634.856 1225.53,700.743 1257.79,664.942 1212.4,718.546 1153.54,766.287 1163.35,752.807 1094.82,810.383 1033,865.067 1048.97,833.706 1001.78,876.335 978.204,902.522 1006.67,860.413 941.242,927.684 938.062,932.117 951.04,909.83 948.054,911.266 893.641,969.509 807.21,1062.82 810.944,1057.17 802.667,1063.5 804.372,1061.93 804.274,1056.58 805.9,1053.22 786.056,1077.76 771.135,1097.63 784.326,1078.01 836.78,1017.29 870.974,984.835 911.359,941.267 937.311,916.792 925.745,943.768 1011.86,849.756 1015.24,852.927 1065.36,813.743 1094.01,789.738 1178.22,720.448 1046.58,845.485 1008.03,882.206 1057.41,829.837 1095.88,790.509 1113.6,774.103 1092.99,802.933 1005.28,886.21 1057.7,836.027 1099.72,782.688 1195.83,697.263 1157.67,729.399 1095.84,787.676 1156.19,739.545 1234.99,695.655 1329.79,616.2 1401.85,565.001 1453.79,532.103 1504.77,507.815 1528.34,501.557 1491.03,530.388 1518.91,510.506 1438.09,568.374 1441.68,552.408 1386.98,595.317 1296.65,671.941 1334.98,620.821 1309.65,640.045 1300.78,645.331 1245.63,700.208 1155.65,779.655 1088.42,837.626 1107.27,791.866 1126.42,765.762 1099.09,790.132 1054.53,834.104 1033.57,850.519 1067.76,816.291 1107.99,769.139 1220.5,679.127 1222.11,690.508 1155.3,757.053 1120.57,785.363 1098.19,802.692 1132.42,759.683 1181.67,718.346 1177.65,729.946 1171.47,740.581 1114.85,797.538 1082.55,818.459 1059.54,837.406 993.887,901.735 1006.37,877.195 993.52,887.663 956.593,921.185 945.343,929.143 956.08,908.65 1031.94,838.733 982.136,892.116 948.713,923.601 1004.66,854.636 1014.89,846.642 984.946,885.261 909.72,957.905 947.778,915.463 952.14,922.378 978.881,889.809 944.557,922.395 1043.62,820.201 1075.29,797.791 1154.51,727.36 1222.25,676.098 1158.66,754.419 1205.01,727.427 1163.56,759.718 1160.8,757.222 1110.43,773.694 1119.57,779.012 1053.72,840.724 998.336,880.06 1032.38,836.705 1089.88,784.954 1033.38,848.618 1017.27,867.147 973.954,901.531 1033.6,834.208 1066.77,798.223 1108.23,766.121 1075.46,811.32 1040.35,844.244 1042.65,834.838 1146.15,749.776 1107.17,790.98 1164.84,734.488 1146.36,771.945 1119.31,785.917 1158.65,743.785 1123.01,771.558 1181.16,717.618 1185.35,720.005 1216.37,699.313 1274.51,658.978 1211.55,717.059 1202.68,727.171 1247.32,677.579 1186.7,719.25 1185.21,713.515 1134.92,768.718 1163.4,767.291 1098.76,807.372 1056.04,839.403 1078.9,798.002 1117.31,770.845 1148.14,749.457 1132.56,774.611 1039.73,851.834 990.779,890.316 953.306,924.148 900.997,973.854 957.469,906.117 952.19,908.319 945.105,913.842 959.637,908.44 971.988,897.035 949.231,920.894 1028.64,844.927 1087.97,789.378 1054.65,828.971 1063.75,822.638 1055.25,829.699 1045.56,847.426 985.101,898.269 1028.28,854.667 1079.07,810.702 1098.07,798.653 1071.14,834.05 1117.1,800.249 1043.61,851.889 1073.7,807.196 1092.12,786.388 1123.65,772.29 1046.34,841.465 1057.85,836.745 1079.87,804.505 1013.54,854.363 977.475,883.621 966.818,909.295 948.295,919.836 994.646,872.738 977.379,893.361 913.075,947.527 912.671,945.365 914.731,943.607 918.04,947.496 884.289,990.793 890.782,976.98 836.525,1029.6 850.235,1011.77 914.394,932.683 860.799,990.251 901.201,962.691 881.083,979.822 903.058,958.039 912.341,944.037 923.75,930.796 983.034,875.446 983.803,889.992 1000.22,876.404 999.931,878.859 1044.4,836.634 1025.19,857.658 1079.42,815.2 1092.21,809.882 1085.88,799.158 972.388,909.371 1089.64,792.954 989.568,895.648 981.975,896.454 959.416,907.998 913.27,957.038 927.819,945.729 963.174,896.316 1021.53,846.896 1016.65,861.507 1016.03,862.394 1007.24,861.461 907.579,955.842 900.321,966.474 915.499,952.301 926.735,933.792 975.398,892.825 928.385,937.401 956.242,915.399 1070.08,800.812 1042.01,835.578 1000.25,874.423 908.043,953.105 990.094,867.919 983.21,890.43 988.117,885.701 1035.27,841.797 1005.97,870.055 971.801,903.57 991.531,885.687 1035.36,837.455 1072.19,809.062 1070.99,807.112 1069.65,804.499 1003.98,860.6 1050.94,815.021 1017.29,857.959 1048.13,812.399 1035.34,826.528 957.916,893.511 1042.79,828.166 1127.57,746.135 1140.81,745.336 1182.99,720.168 1142.75,762.49 1140.67,758.05 1187.6,728.945 1275.88,645.057 1230.66,690.78 1236.28,675.198 1079.63,812.43 1035.33,846.596 1041.09,838.818 1036.74,845.305 1037.41,849.805 1036.84,845.082 1050.75,836.318 1105.34,774.236 1057.46,834.989 1027.29,846.564 977.672,896.037 974.53,896.7 922.868,932.376 904.73,960.067 896.962,962.555 889.48,969.435 954.503,909.475 975.366,894.363 953.078,913.537 953.866,916.241 915.12,952.19 961.344,897.783 976.21,888.19 950.218,919.896 926.077,942.974 913.072,941.507 925.359,936.957 972.718,894.665 1030.4,850.224 1063.37,815.863 965.761,904.377 950.226,926.42 942.836,939.624 882.276,989.402 884.313,980.687 936.055,920.718 911.084,947.339 866.08,996.455 833.645,1028.15 867.311,986.997 913.343,935.677 893.24,968.216 878.731,984.582 892.069,972.549 928.123,933.271 966.748,897.879 1009.66,851.811 1091.1,774.291 1090.32,799.337 1064.9,822.03 1087.28,789.685 1193.45,692.079 1259.51,643.192 1250.67,676.331 1213.75,722.858 1231.57,705.157 1139.45,784.174 1200.92,713.428 1244.22,675.168 1255.82,665.343 1262.38,670.191 1215.81,712.35 1222.51,712.803 1165.92,741.997 1153.95,747.703 1148.16,752.886 1166.92,729.523 1149.53,742.276 1222.68,689.66 1227.41,694.309 1238.93,682.288 1172.59,752.211 1148.72,768.635 1131.56,778.416 1205.65,704.764 1254.95,665.992 1259.13,671.15 1225.65,701.838 1287.1,646.96 1274.01,680.476 1315.01,625.727 1254.75,680.311 1230.48,692.476 1337.96,611.611 1378.91,612.369 1320.36,649.538 1367.16,596.143 1416.65,571.117 1322.18,647.461 1309.33,642.391 1294.46,652.889 1222.66,721.055 1238.22,693.803 1181.36,748.173 1218.46,701.449 1238.74,672.558 1219.75,714.558 1196.97,719.378 1153.07,763.94 1196.3,712.714 1090.98,803.702 1145.15,752.187 1243.35,672.96 1248.76,680.143 1221.78,704.461 1217.85,701.984 1348.13,600.829 1363.11,590.024 1263.78,682.351 1242.42,688.104 1268.94,675.355 1244.44,685.081 1305.72,634.17 1191.16,740.512 1171.65,741.821 1207.48,709.164 1212.85,710.091 1134.59,773.024 1204.65,694.199 1166.05,736.437 1177.36,735.581 1177.37,730.363 1242.5,668.979 1253.23,676.372 1262.13,675.393 1116.69,804.024 1083.9,819.03 1045.94,845.738 1014.14,867.226 1013.47,867.782 1074.26,803.534 1090.24,809.46 1104.15,792.629 1045.33,841.91 999.09,885.868 999.091,882.104 1034.71,837.816 1039.59,837.864 1110.64,769.9 1167.25,725.058 1137.14,772.249 1189.99,716.545 1162.46,751.095 1193.57,719.747 1296.19,627.63 1243.51,685.59 1191.14,742.757 1111.12,803.653 1063.21,843.308 1055.98,832.756 1104.19,775.215 1151.74,738.797 1176.01,721.349 1126.19,777.103 1138.04,757.522 1118.24,783.405 1160.23,736.243 1162.4,741.781 1182.07,717.891 1195.67,708.5 1201.33,704.711 1217.18,697.644 1240.03,674.981 1221.82,695.644 1222.49,698.579 1336.43,608.083 1290.21,660.042 1269.55,677.952 1302.41,636.94 1349.47,606.89 1326.91,631.656 1295.18,663.46 1277.94,658.399 1290.81,654.353 1235,693.745 1235.42,690.452 1282.88,643.908 1218.94,706.025 1222.85,693.918 1233.45,695.746 1203.78,719.769 1203.76,720.507 1208.16,701.417 1166.08,750.228 1262.17,660.469 1266.05,656.205 1291.02,640.356 1383.88,562.482 1262.5,669.367 1213.03,714.336 1197.37,724.015 1253.49,668.67 1404.91,552.569 1394.79,578.253 1393.78,594.2 1448.34,520.037 1379.46,594.633 1360.33,602.449 1373.57,596.349 1487.17,514.106 1406.14,570.667 1454.67,529.942 1346.05,635.738 1358.29,612.5 1289.09,663.122 1233.02,707.513 1176.58,749.905 1193.8,723.903 1206.04,710.224 1257.1,659.955 1321.5,608.962 1316.18,638.099 1338.2,628.7 1271.56,680.269 1265.14,680.145 1201.02,722.798 1202.28,706.634 1159.99,748.609 1143.66,757.527 1115.1,781.75 1058.31,830.313 1023.2,859.58 1027.56,852.679 1007.26,867.715 1025.58,849.522 986.235,881.208 971.862,892.88 912.224,966.613 976.527,894.494 1013.97,857.293 1037.11,836.149 1079.11,783.747 1159.46,723.239 1194,709.617 1207.08,714.154 1272.99,661.955 1270.05,668.713 1320.56,618.038 1348.25,605.583 1385.01,578.766 1362.16,612.296 1411.1,551.4 1503.8,506.014 1476.21,519.083 1574.31,446.734 1643.06,423.142 1561.8,487.526 1511.42,535.16 1442.19,576.972 1455.69,547.341 1533.88,478.319 1523.61,494.155 1480.13,538.852 1453.62,551.212 1452.4,547.395 1438.14,559.717 1375.63,613.721 1354.9,615.598 1341.44,618.393 1354.73,603.794 1396.83,569.773 1420.45,558.458 1428.53,548.834 1425.65,566.602 1351.2,621.571 1319.6,642.493 1280.81,670.072 1288.04,655.031 1337.18,600.179 1310.14,626.356 1259.6,678.047 1320.7,628.68 1200.76,727.688 1144.52,768.305 1112.49,794.574 1086.15,815.15 1086.91,807.947 1034.59,853.081 998.433,886.342 1017.54,852.713 1001.54,867.22 1005.87,867.408 963.625,901.788 1009.41,864.086 904.965,964.391 873.226,992.151 844.955,1024.19 858.544,1004.18 829.11,1025.96 861.008,991.208 829.276,1030.24 855.719,1001.64 786.273,1077.91 803.033,1054.56 788.464,1068.29 829.459,1016.56 859.736,988.886 832.094,1029.18 889.827,961.306 896.45,963.597 872.74,992.212 842.653,1025.01 852.623,1005.04 945.86,909.628 928.444,935.494 912.924,957.011 912.593,956.812 956.902,906.81 1033.21,825.581 1042.03,823.427 1025.75,854.335 1041.11,831.223 1066.64,808.836 1009.53,874.05 1022.97,848.487 966.701,915.505 941.929,932.282 952.217,920.587 955.906,915.278 1057.82,827.493 1067.43,829.106 1060.88,828.186 1051.25,837.974 1133.06,770.927 1102.75,798.837 1079.01,828.271 1046.39,843.039 1032.23,854.787 944.227,939.586 932.665,941.828 906.459,966.239 875.684,995.599 888.563,970.335 899.974,961.703 872.65,986.134 864.597,997.493 860.625,1000.96 854.174,1009.62 872.427,985.611 925.357,936.434 860.601,1007.18 850.828,1018.01 857.088,1004.98 875.919,984.189 872.573,987.382 838.402,1024.56 826.833,1033.22 768.813,1098.1 760.948,1105.65 716.586,1160.4 703.41,1171.52 697.059,1178.01 704.262,1166.97 766.891,1082.37 766.467,1093.76 781.205,1075.77 800.146,1049.64 829.343,1019.6 823.801,1033.89 800.734,1062.49 787.608,1074.31 792.842,1067.86 820.49,1036.55 835.928,1019.33 831.98,1024.53 849.118,1007.45 858.353,1003.42 824.851,1040.87 807.469,1062.09 832.47,1030.27 804.134,1055.74 903.761,938.905 962.817,881.576 936.437,924.741 938.357,925.563 968.464,893.167 961.581,901.512 924.118,953.954 926.259,941.252 910.633,950.206 898.357,960.888 916.703,945.659 938.692,929.127 1001.16,864.642 1110.08,773.52 1097.07,798.189 1120.61,772.583 1150.82,754.23 1154.53,746.856 1083.04,812.783 1075.12,814.279 1092.77,792.04 1069.57,811.349 1117.54,784.567 1148.41,755.831 1125.69,778.124 1036.43,846.125 1064.29,813.816 1070.75,812.959 1054.86,828.362 1052.58,833.958 1039.39,855.76 1089.85,803.154 1078.58,813.636 1007.21,885.226 1005.88,877.233 1002.95,881.195 1038.4,844.419 1078.55,793.066 1067.19,823.868 989.681,894.879 1018.53,854.771 1013.59,855.572 982.46,880.878 1024.28,839.833 1056.09,824.165 1039.43,843.077 1001.35,870.791 1022.06,854.576 1082.46,793.049 1049.34,834.391 1109.31,766.227 1127.74,758.493 1170.28,759.151 1240.79,680.02 1306.63,624.62 1269.04,671.715 1208.91,726.086 1180.53,742.15 1169.44,747.624 1188.82,717.919 1151.15,745.105 1092.52,797.877 1070.29,812.403 987.565,878.687 1024.78,846.804 989.478,871.798 1020.74,844.979 1005.61,866.396 1014.38,845.498 956.224,894.589 1041.46,819.357 1103.6,776.036 1094.53,798.416 1106,782.154 1075.9,816.359 1006.9,876.498 1044.6,825.096 1003.64,871.315 1084.23,787.537 1110.01,778.516 1088.44,794.911 1145.99,752.207 1092.87,808.476 1117.54,780.872 1136.06,761.415 1123.63,781.38 1031.11,855.125 1036.44,847.034 1056.63,826.785 1063.04,824.257 1043.65,840.697 1083.26,822.191 1097.75,786.521 1029.3,852.42 996.209,878.115 1017.82,853.761 1104.77,776.421 1235.94,663.579 1245.71,670.13 1257.54,657.969 1184.77,736.667 1111.84,800.545 1118.76,790.112 1071.86,817.909 1069.71,818.261 1129.35,755.237 1182.11,717.787 1289.86,629.678 1255.53,683.759 1233.76,699.604 1171.49,753.698 1140.52,772.491 1197.84,712.267 1211.63,700.198 1272.34,645.791 1282.95,646.114 1194.56,727.297 1095.59,817.703 1059.83,832.829 1034.3,857.345 1009.43,877.324 995.271,883.675 993.237,884.172 1024.83,848.504 980.95,894.052 989.925,874.5 986.689,875.526 993.729,866.108 979.846,873.656 1062.69,798.526 1076.13,799.662 1045.91,848.489 1061.01,834.144 1078.48,815.435 1151.14,748.285 1216,683.116 1198.18,701.643 1266.65,663.854 1187.85,727.682 1162.46,763.435 1145.64,779.747 1127.27,790.632 1076.91,824.896 1021.22,872.381 1006.75,881.431 954.298,931.926 895.608,981.439 932.249,933.085 913.828,957.027 922.016,935.523 915.908,938.729 945.066,917.418 974.654,892.403 939.762,928.53 958.154,907.864 955.146,914.972 996.509,876.952 1023.73,860.43 1069.07,819.262 1072.07,813.21 1099.19,784.34 1114.25,774.499 1133.29,758.293 1088.44,802.695 1199.91,727.09 1168.56,756.98 1216.89,701.069 1140.45,752.519 1198.85,712.207 1196.29,706.395 1247.53,667.685 1285.97,647.344 1229.37,704.252 1221.23,704.708 1316.22,612.611 1288.25,653.062 1300.69,636.469 1340.4,640.366 1360.01,611.771 1242.57,699.959 1194.07,731.427 1217.05,712.46 1221.93,703.537 1175.03,737.734 1153.36,752.255 1159.45,742.972 1205.02,699.864 1197.87,714.859 1171.01,730.079 1132.71,775.963 1194.34,714.445 1208.69,716.427 1161.49,745.582 1162.69,742.016 1045.1,845.948 1051.94,838.466 1070.34,815.297 1057.65,824.612 998.246,884.925 1084.28,788.194 1057.52,818.806 983.069,895.116 993.198,887.626 1060.31,828.902 1126.04,771.194 1258.63,659.651 1364.69,598.981 1322.68,639.726 1204.3,742.133 1266.65,666.38 1224.88,696.984 1218.97,713.048 1211.83,714.749 1154.38,769.058 1184.79,734.86 1140.4,765.559 1121.73,782.722 1073.72,838.411 1033.98,854.27 1042.07,837.854 1032.49,855.681 1111.29,760.114 1151.94,730.763 1154.35,742.835 1157.76,742.961 1085.99,813.427 1006.61,882.987 1016,866.718 1019.39,859.669 1051.79,828.638 1029.47,851.487 1024.03,854.724 1048.58,829.613 1056.11,831.125 1069.2,818.483 1141.01,755.261 1128.55,767.523 1163.36,741.806 1173.6,726.885 1250.03,671.395 1246.92,680.476 1292.12,643.229 1266.34,668.734 1229.22,702.953 1240.63,680.948 1248.9,680.555 1308.1,622.369 1198.96,718.257 1214.21,708.107 1149.81,775.718 1112.33,793.617 1087.1,809.01 1095.26,788.209 1043.51,843.758 978.222,907.695 917.128,964.484 903.949,970.126 915.425,948.496 904.957,957.659 903.433,957.085 848.43,1017.17 811.279,1056.53 790.385,1077.65 791.257,1069.78 833.843,1022.57 822.633,1037.19 814.61,1049.89 782.815,1080.51 837.394,1015.94 864.036,991.402 867.155,987.463 832.766,1026.72 827.644,1034.39 844.578,1010.78 896.694,956.466 940.442,917.365 869.315,993.645 841.257,1026.72 824.344,1041.35 819.738,1045.34 793.663,1071.01 769.976,1096.69 805.046,1047.74 834.903,1013.68 903.901,944.45 930.068,927.017 973.038,885.13 972.606,884.615 1003.25,867.112 982.041,893.51 950.172,922.035 995.204,878.544 1017.89,857.778 1052.2,824.44 1047.84,829.915 1060.61,811.23 985.156,898.452 996.969,872.954 1005.89,863.248 917.357,941.855 911.25,947.617 951.708,913.298 972.808,897.342 921.08,945.737 957.14,928.822 965.186,919.89 1011.45,852.46 981.528,892.377 891.463,975.824 910.064,957.592 915.332,961.914 940.049,935.406 962.855,913.602 969.237,902.936 1062.92,814.958 1114.02,779.049 1172.28,728.672 1087.57,806.363 1134.11,754.707 1232.48,670.633 1231.9,683.712 1201.12,715.876 1252.62,684.558 1263.87,666.629 1265.5,675.578 1330.96,599.659 1339.32,603.169 1234.93,671.916 1251.24,665.438 1276.17,665.659 1311.15,642.255 1350.07,609.558 1483.82,524.881 1394.33,592.242 1305.01,658.436 1296.57,649.692 1206.75,728.348 1145.92,776.433 1112.51,797.571 1118.41,782.126 1131.58,767.907 1104.3,782.585 1100.31,794.448 1080.25,808.545 1112.06,774.24 1135.64,757.041 1119.74,769.385 1224.27,676.058 1176.87,735.686 1126.34,784.087 1089.02,817.142 1070.16,821.736 1052.17,839.259 1124.61,757.083 1131.47,764.898 1152.42,743.779 1182.51,720.601 1118.22,790.151 1069.48,829.106 1081.62,808.707 1100.01,791.12 1108.38,785.143 1100.44,788.854 1098.62,797.266 1143.17,754.65 1149.72,752.639 1140.92,759.379 1128.29,776.972 1084.47,814.226 1112.31,772.936 1181.56,702.036 1181.75,726.295 1206.55,709.538 1168.03,741.455 1091.32,815.771 1159.81,741.313 1214.59,693.699 1229.05,684.354 1240.77,681.83 1238.19,698.464 1228.27,708.751 1175.71,750.826 1199.42,716.026 1123.15,781.003 1241.95,657.656 1274.64,643.768 1095.76,803.093 998.695,885.374 993.159,880.319 991.46,880.509 1057.15,819.849 1092.38,787.223 1113.33,777.021 1123.17,763.012 1199.05,704.642 1161.69,747.442 1218.57,691.001 1237.13,692.258 1204.24,716.535 1249.4,671.501 1291.85,637.942 1272.31,662.705 1283.88,653.689 1362.11,588.21 1457.85,528.06 1429.3,566.342 1479.24,529.638 1400.4,599.817 1361.79,618.992 1354.93,614.841 1279.3,675.011 1180.42,757.922 1147.96,768.7 1133.72,776.05 1195.3,710.138 1187.07,712.407 1100.12,805.774 1054.2,845.576 1041.61,846.947 1098.67,781.444 1040.57,846.928 1053.93,824.984 1112.62,776.868 1096.81,798.485 1103.96,788.447 1078.77,819.683 1089.85,800.358 1080.21,806.974 1177.5,715.488 1136.02,762.612 1221.95,683.406 1234.73,681.885 1169.17,749.091 1123.42,788.498 1152.65,760.026 1238.97,673.391 1203.1,710.132 1218.21,700.377 1250.47,676.334 1129.06,792.307 1134.5,777.87 1106.76,804.88 1060.21,837.73 1041.93,843.158 1060.43,825.788 1009.15,872.636 1015.15,859.362 1033.91,851.765 1034.93,845.833 1024.89,863.859 1129.59,754.547 1219.92,686.84 1248.28,679.056 1136.58,777.375 1105.08,783.463 1096.73,792.332 1182.88,720.763 1115.29,796.063 1088.5,817.789 1124.13,774.779 1088.51,809.004 1073.8,819.664 1134.82,753.506 1137.82,755.882 1195.89,703.521 1304.5,610.899 1315.08,623.506 1356.26,593.315 1297.03,662.966 1272.77,685.299 1274.67,667.076 1323.86,626.377 1377.62,590.754 1444.38,547.488 1410.72,578.723 1422.89,573.326 1349.1,638.652 1326.68,638.834 1272.28,684.913 1271.29,671.736 1218.81,712.546 1184.7,740.288 1165.78,750.329 1212.28,709.803 1257.47,661.728 1215.08,701.847 1077.05,824.607 1054.21,833.907 1081.57,808.863 1162.39,722.287 1152.34,736.959 1249.25,661.473 1300.42,633.644 1336.89,608.589 1318.82,634.048 1318.85,650.639 1227.2,720.172 1210.52,719.724 1278.87,654.954 1289.18,646.259 1328.75,620.616 1372.95,588.542 1484.79,530.838 1628.22,425.217 1590.25,472.458 1582.77,490.037 1593.19,468.326 1511.1,527.161 1456.43,563.465 1369.99,625.489 1292.29,684.677 1272.83,682.881 1275.48,669.582 1267.79,673.758 1229.46,708.486 1212.49,715.955 1180.26,740.624 1113.02,798.266 1085.38,822.43 1023.76,872.83 1046.66,837.469 1062.19,813.273 1009.98,871.825 1004.83,870.434 998.017,881.107 963.26,914.287 978.318,893.625 970.823,898.343 985.811,876.474 986.34,881.43 1138.15,719.981 1189.96,696.357 1160.56,742.393 1178.05,727.102 1146.98,763.601 1131.11,772.285 1130.25,767.482 1121.38,775.709 1197.18,713.108 1239.56,671.229 1212.7,705.733 1249.27,672.699 1230.04,688.082 1234.59,690.173 1141.92,782.137 1065.81,840.3 1023.38,871.339 958.164,934.321 916.325,968.286 907.907,964.07 873.629,999.683 882.97,972.148 849.075,1015.16 874.669,985.915 897.301,954.61 839.047,1026.64 880,973.826 863.975,994.197 851.216,1014.43 915.694,940.404 905.189,950.563 880.611,981.041 923.863,930.897 913.072,945.534 943.785,908.75 955.782,904.736 1044.51,810.002 1088.18,790.453 1060.59,823.364 1022.59,860.343 1039.61,839.015 1109.42,770.176 1134.2,757.222 1109.77,786.071 1078.59,815.239 1046.65,838.674 986.345,895.267 1068.54,811.349 986.483,895.999 1047.76,821.622 1039.84,842.549 1032.23,837.926 1146.51,744.124 1212,691.002 1228.79,686.749 1205.44,708.731 1212.92,714.792 1223.47,691.599 1253.87,643.716 1294.62,626.429 1263.67,649.815 1255.74,676.607 1242.89,681.236 1167.66,760.017 1156.92,752.098 1141.91,764.265 1027.22,858.251 1035.95,847.318 1011.84,873.078 1062.77,815.066 1066.29,808.51 1026.22,845.283 996.644,865.022 1033,842.684 1057.51,825.5 1079.66,810.839 1107.26,773.149 1080.43,805.015 1031.35,853.036 1050.62,833.009 1035.49,866.962 1059.09,833.657 1058.14,822.28 992.832,876.41 1079.82,802.759 1080.54,804.93 1122.12,768.119 1225.51,673.521 1130.76,755.741 1126.87,767.051 1140.35,760.94 1063.34,820.975 1088.85,782.429 1164.41,724.372 1206.09,706.017 1189.52,727.603 1248.84,673.537 1234.5,683.319 1318.66,618.333 1217,710.549 1211.27,703.653 1271.06,662.361 1316.38,635.671 1179.31,738.519 1158.78,756.764 1169.97,745.108 1188.1,738.398 1269.71,658.442 1219.02,694.272 1235.74,690.675 1287.72,665.305 1213.59,715.877 1304.07,619.477 1419.26,546.153 1463.84,520.116 1428.48,564.799 1456.01,543.153 1391.34,594.711 1385.24,585.912 1273.51,677.781 1279.27,664.03 1256.68,680.162 1254.45,678.634 1299.04,632.064 1214.34,711.054 1200.07,719.001 1164.36,749.872 1141.18,768.779 1157.38,742.009 1200.51,704.212 1173.09,739.646 1115.45,796.578 1071.34,822.683 1065.67,825.281 1050.95,833.686 979.577,907.81 918.456,964.009 967.279,902.2 1057.72,807.278 1061.16,815.209 1084.75,802.377 944.96,935.577 976.355,887.774 1009.81,856.839 933.744,937.98 939.212,928.181 936.78,937.469 932.633,933.15 954.768,917.744 985.932,894.575 1059.51,821.967 971.242,912.331 960.634,908.579 "/>
<path clip-path="url(#clip290)" d="M186.863 198.898 L550.897 198.898 L550.897 95.2176 L186.863 95.2176  Z" fill="#ffffff" fill-rule="evenodd" fill-opacity="1"/>
<polyline clip-path="url(#clip290)" style="stroke:#000000; stroke-linecap:round; stroke-linejoin:round; stroke-width:4; stroke-opacity:1; fill:none" points="186.863,198.898 550.897,198.898 550.897,95.2176 186.863,95.2176 186.863,198.898 "/>
<polyline clip-path="url(#clip290)" style="stroke:#009af9; stroke-linecap:round; stroke-linejoin:round; stroke-width:4; stroke-opacity:1; fill:none" points="211.758,147.058 361.13,147.058 "/>
<path clip-path="url(#clip290)" d="M396.651 128.366 Q393.549 133.69 392.044 138.898 Q390.54 144.106 390.54 149.453 Q390.54 154.801 392.044 160.055 Q393.572 165.287 396.651 170.588 L392.947 170.588 Q389.475 165.148 387.739 159.893 Q386.026 154.639 386.026 149.453 Q386.026 144.291 387.739 139.06 Q389.452 133.828 392.947 128.366 L396.651 128.366 Z" fill="#000000" fill-rule="nonzero" fill-opacity="1" /><path clip-path="url(#clip290)" d="M403.063 138.412 L423.294 138.412 L423.294 142.301 L407.276 160.935 L423.294 160.935 L423.294 164.338 L402.484 164.338 L402.484 160.449 L418.502 141.815 L403.063 141.815 L403.063 138.412 Z" fill="#000000" fill-rule="nonzero" fill-opacity="1" /><path clip-path="url(#clip290)" d="M430.887 158.458 L435.771 158.458 L435.771 162.439 L431.975 169.847 L428.988 169.847 L430.887 162.439 L430.887 158.458 Z" fill="#000000" fill-rule="nonzero" fill-opacity="1" /><path clip-path="url(#clip290)" d="M455.655 166.745 Q453.849 171.375 452.136 172.787 Q450.423 174.199 447.553 174.199 L444.15 174.199 L444.15 170.634 L446.65 170.634 Q448.41 170.634 449.382 169.8 Q450.354 168.967 451.535 165.865 L452.298 163.921 L441.812 138.412 L446.326 138.412 L454.428 158.689 L462.53 138.412 L467.044 138.412 L455.655 166.745 Z" fill="#000000" fill-rule="nonzero" fill-opacity="1" /><path clip-path="url(#clip290)" d="M474.011 158.458 L478.896 158.458 L478.896 162.439 L475.099 169.847 L472.113 169.847 L474.011 162.439 L474.011 158.458 Z" fill="#000000" fill-rule="nonzero" fill-opacity="1" /><path clip-path="url(#clip290)" d="M509.544 138.412 L500.169 151.027 L510.03 164.338 L505.007 164.338 L497.46 154.152 L489.914 164.338 L484.891 164.338 L494.96 150.773 L485.747 138.412 L490.77 138.412 L497.645 147.648 L504.52 138.412 L509.544 138.412 Z" fill="#000000" fill-rule="nonzero" fill-opacity="1" /><path clip-path="url(#clip290)" d="M515.377 128.366 L519.081 128.366 Q522.553 133.828 524.266 139.06 Q526.002 144.291 526.002 149.453 Q526.002 154.639 524.266 159.893 Q522.553 165.148 519.081 170.588 L515.377 170.588 Q518.456 165.287 519.96 160.055 Q521.488 154.801 521.488 149.453 Q521.488 144.106 519.96 138.898 Q518.456 133.69 515.377 128.366 Z" fill="#000000" fill-rule="nonzero" fill-opacity="1" /></svg>
