<?xml version="1.0" encoding="utf-8"?>
<svg xmlns="http://www.w3.org/2000/svg" xmlns:xlink="http://www.w3.org/1999/xlink" width="600" height="400" viewBox="0 0 2400 1600">
<defs>
  <clipPath id="clip920">
    <rect x="0" y="0" width="2400" height="1600"/>
  </clipPath>
</defs>
<path clip-path="url(#clip920)" d="M0 1600 L2400 1600 L2400 0 L0 0  Z" fill="#ffffff" fill-rule="evenodd" fill-opacity="1"/>
<defs>
  <clipPath id="clip921">
    <rect x="480" y="0" width="1681" height="1600"/>
  </clipPath>
</defs>
<defs>
  <clipPath id="clip922">
    <rect x="155" y="47" width="2198" height="1440"/>
  </clipPath>
</defs>
<path clip-path="url(#clip922)" d="M-899.794 2411.68 L-899.794 2150.62 L-777.09 2020.1 L-564.561 2095.46 L-564.561 2356.51 L-687.264 2487.04 L-899.794 2411.68  Z" fill="#ffffff" fill-rule="evenodd" fill-opacity="1"/>
<polyline clip-path="url(#clip922)" style="stroke:#000000; stroke-linecap:round; stroke-linejoin:round; stroke-width:2; stroke-opacity:0.1; fill:none" points="714.686,1210.75 1130.15,850.952 1130.15,131.35 "/>
<polyline clip-path="url(#clip922)" style="stroke:#000000; stroke-linecap:round; stroke-linejoin:round; stroke-width:2; stroke-opacity:0.1; fill:none" points="820.951,1241.43 1236.41,881.628 1236.41,162.026 "/>
<polyline clip-path="url(#clip922)" style="stroke:#000000; stroke-linecap:round; stroke-linejoin:round; stroke-width:2; stroke-opacity:0.1; fill:none" points="927.215,1272.1 1342.68,912.304 1342.68,192.702 "/>
<polyline clip-path="url(#clip922)" style="stroke:#000000; stroke-linecap:round; stroke-linejoin:round; stroke-width:2; stroke-opacity:0.1; fill:none" points="1033.48,1302.78 1448.94,942.979 1448.94,223.378 "/>
<polyline clip-path="url(#clip922)" style="stroke:#000000; stroke-linecap:round; stroke-linejoin:round; stroke-width:2; stroke-opacity:0.1; fill:none" points="1139.74,1333.46 1555.21,973.655 1555.21,254.054 "/>
<polyline clip-path="url(#clip922)" style="stroke:#000000; stroke-linecap:round; stroke-linejoin:round; stroke-width:2; stroke-opacity:0.1; fill:none" points="1246.01,1364.13 1661.47,1004.33 1661.47,284.73 "/>
<polyline clip-path="url(#clip922)" style="stroke:#000000; stroke-linecap:round; stroke-linejoin:round; stroke-width:2; stroke-opacity:0.1; fill:none" points="1352.27,1394.81 1767.74,1035.01 1767.74,315.405 "/>
<polyline clip-path="url(#clip922)" style="stroke:#000000; stroke-linecap:round; stroke-linejoin:round; stroke-width:2; stroke-opacity:0.1; fill:none" points="1410.96,1406.4 691.36,1198.67 691.36,479.068 "/>
<polyline clip-path="url(#clip922)" style="stroke:#000000; stroke-linecap:round; stroke-linejoin:round; stroke-width:2; stroke-opacity:0.1; fill:none" points="1486.32,1341.14 766.72,1133.41 766.72,413.805 "/>
<polyline clip-path="url(#clip922)" style="stroke:#000000; stroke-linecap:round; stroke-linejoin:round; stroke-width:2; stroke-opacity:0.1; fill:none" points="1561.68,1275.87 842.081,1068.14 842.081,348.541 "/>
<polyline clip-path="url(#clip922)" style="stroke:#000000; stroke-linecap:round; stroke-linejoin:round; stroke-width:2; stroke-opacity:0.1; fill:none" points="1637.04,1210.61 917.441,1002.88 917.441,283.277 "/>
<polyline clip-path="url(#clip922)" style="stroke:#000000; stroke-linecap:round; stroke-linejoin:round; stroke-width:2; stroke-opacity:0.1; fill:none" points="1712.4,1145.35 992.801,937.615 992.801,218.013 "/>
<polyline clip-path="url(#clip922)" style="stroke:#000000; stroke-linecap:round; stroke-linejoin:round; stroke-width:2; stroke-opacity:0.1; fill:none" points="1787.76,1080.08 1068.16,872.352 1068.16,152.75 "/>
<polyline clip-path="url(#clip922)" style="stroke:#000000; stroke-linecap:round; stroke-linejoin:round; stroke-width:2; stroke-opacity:0.1; fill:none" points="686.728,1155.43 1102.19,795.631 1821.79,1003.36 "/>
<polyline clip-path="url(#clip922)" style="stroke:#000000; stroke-linecap:round; stroke-linejoin:round; stroke-width:2; stroke-opacity:0.1; fill:none" points="686.728,1024.59 1102.19,664.785 1821.79,872.516 "/>
<polyline clip-path="url(#clip922)" style="stroke:#000000; stroke-linecap:round; stroke-linejoin:round; stroke-width:2; stroke-opacity:0.1; fill:none" points="686.728,893.74 1102.19,533.939 1821.79,741.67 "/>
<polyline clip-path="url(#clip922)" style="stroke:#000000; stroke-linecap:round; stroke-linejoin:round; stroke-width:2; stroke-opacity:0.1; fill:none" points="686.728,762.894 1102.19,403.093 1821.79,610.824 "/>
<polyline clip-path="url(#clip922)" style="stroke:#000000; stroke-linecap:round; stroke-linejoin:round; stroke-width:2; stroke-opacity:0.1; fill:none" points="686.728,632.048 1102.19,272.247 1821.79,479.978 "/>
<polyline clip-path="url(#clip922)" style="stroke:#000000; stroke-linecap:round; stroke-linejoin:round; stroke-width:2; stroke-opacity:0.1; fill:none" points="686.728,501.202 1102.19,141.401 1821.79,349.132 "/>
<polyline clip-path="url(#clip920)" style="stroke:#000000; stroke-linecap:round; stroke-linejoin:round; stroke-width:4; stroke-opacity:1; fill:none" points="686.728,1202.68 1406.33,1410.41 "/>
<polyline clip-path="url(#clip920)" style="stroke:#000000; stroke-linecap:round; stroke-linejoin:round; stroke-width:4; stroke-opacity:1; fill:none" points="714.686,1210.75 719.672,1206.43 "/>
<polyline clip-path="url(#clip920)" style="stroke:#000000; stroke-linecap:round; stroke-linejoin:round; stroke-width:4; stroke-opacity:1; fill:none" points="820.951,1241.43 825.936,1237.11 "/>
<polyline clip-path="url(#clip920)" style="stroke:#000000; stroke-linecap:round; stroke-linejoin:round; stroke-width:4; stroke-opacity:1; fill:none" points="927.215,1272.1 932.201,1267.79 "/>
<polyline clip-path="url(#clip920)" style="stroke:#000000; stroke-linecap:round; stroke-linejoin:round; stroke-width:4; stroke-opacity:1; fill:none" points="1033.48,1302.78 1038.47,1298.46 "/>
<polyline clip-path="url(#clip920)" style="stroke:#000000; stroke-linecap:round; stroke-linejoin:round; stroke-width:4; stroke-opacity:1; fill:none" points="1139.74,1333.46 1144.73,1329.14 "/>
<polyline clip-path="url(#clip920)" style="stroke:#000000; stroke-linecap:round; stroke-linejoin:round; stroke-width:4; stroke-opacity:1; fill:none" points="1246.01,1364.13 1250.99,1359.81 "/>
<polyline clip-path="url(#clip920)" style="stroke:#000000; stroke-linecap:round; stroke-linejoin:round; stroke-width:4; stroke-opacity:1; fill:none" points="1352.27,1394.81 1357.26,1390.49 "/>
<path clip-path="url(#clip920)" d="M697.931 1236.54 Q701.288 1237.26 703.163 1239.53 Q705.061 1241.8 705.061 1245.13 Q705.061 1250.25 701.543 1253.05 Q698.024 1255.85 691.543 1255.85 Q689.367 1255.85 687.052 1255.41 Q684.76 1254.99 682.307 1254.13 L682.307 1249.62 Q684.251 1250.76 686.566 1251.33 Q688.881 1251.91 691.404 1251.91 Q695.802 1251.91 698.094 1250.18 Q700.408 1248.44 700.408 1245.13 Q700.408 1242.07 698.256 1240.36 Q696.126 1238.63 692.307 1238.63 L688.279 1238.63 L688.279 1234.78 L692.492 1234.78 Q695.941 1234.78 697.769 1233.42 Q699.598 1232.03 699.598 1229.44 Q699.598 1226.77 697.7 1225.36 Q695.825 1223.93 692.307 1223.93 Q690.385 1223.93 688.186 1224.34 Q685.987 1224.76 683.348 1225.64 L683.348 1221.47 Q686.01 1220.73 688.325 1220.36 Q690.663 1219.99 692.723 1219.99 Q698.047 1219.99 701.149 1222.42 Q704.251 1224.83 704.251 1228.95 Q704.251 1231.82 702.607 1233.81 Q700.964 1235.78 697.931 1236.54 Z" fill="#000000" fill-rule="nonzero" fill-opacity="1" /><path clip-path="url(#clip920)" d="M801.742 1255.37 L789.937 1273.82 L801.742 1273.82 L801.742 1255.37 M800.516 1251.29 L806.395 1251.29 L806.395 1273.82 L811.326 1273.82 L811.326 1277.7 L806.395 1277.7 L806.395 1285.85 L801.742 1285.85 L801.742 1277.7 L786.141 1277.7 L786.141 1273.19 L800.516 1251.29 Z" fill="#000000" fill-rule="nonzero" fill-opacity="1" /><path clip-path="url(#clip920)" d="M896.688 1281.97 L915.044 1281.97 L915.044 1285.9 L900.97 1285.9 L900.97 1294.38 Q901.989 1294.03 903.007 1293.87 Q904.026 1293.68 905.044 1293.68 Q910.831 1293.68 914.211 1296.85 Q917.59 1300.02 917.59 1305.44 Q917.59 1311.02 914.118 1314.12 Q910.646 1317.2 904.327 1317.2 Q902.151 1317.2 899.882 1316.83 Q897.637 1316.46 895.229 1315.72 L895.229 1311.02 Q897.313 1312.15 899.535 1312.71 Q901.757 1313.26 904.234 1313.26 Q908.239 1313.26 910.577 1311.16 Q912.915 1309.05 912.915 1305.44 Q912.915 1301.83 910.577 1299.72 Q908.239 1297.62 904.234 1297.62 Q902.359 1297.62 900.484 1298.03 Q898.632 1298.45 896.688 1299.33 L896.688 1281.97 Z" fill="#000000" fill-rule="nonzero" fill-opacity="1" /><path clip-path="url(#clip920)" d="M1012.33 1328.06 Q1009.18 1328.06 1007.33 1330.21 Q1005.5 1332.37 1005.5 1336.12 Q1005.5 1339.84 1007.33 1342.02 Q1009.18 1344.17 1012.33 1344.17 Q1015.48 1344.17 1017.3 1342.02 Q1019.16 1339.84 1019.16 1336.12 Q1019.16 1332.37 1017.3 1330.21 Q1015.48 1328.06 1012.33 1328.06 M1021.61 1313.41 L1021.61 1317.67 Q1019.85 1316.83 1018.04 1316.39 Q1016.26 1315.95 1014.5 1315.95 Q1009.87 1315.95 1007.42 1319.08 Q1004.99 1322.2 1004.64 1328.52 Q1006.01 1326.51 1008.07 1325.45 Q1010.13 1324.36 1012.61 1324.36 Q1017.81 1324.36 1020.82 1327.53 Q1023.86 1330.68 1023.86 1336.12 Q1023.86 1341.44 1020.71 1344.66 Q1017.56 1347.88 1012.33 1347.88 Q1006.33 1347.88 1003.16 1343.29 Q999.989 1338.69 999.989 1329.96 Q999.989 1321.76 1003.88 1316.9 Q1007.77 1312.02 1014.32 1312.02 Q1016.08 1312.02 1017.86 1312.37 Q1019.67 1312.71 1021.61 1313.41 Z" fill="#000000" fill-rule="nonzero" fill-opacity="1" /><path clip-path="url(#clip920)" d="M1107.9 1343.32 L1130.12 1343.32 L1130.12 1345.31 L1117.57 1377.88 L1112.69 1377.88 L1124.49 1347.26 L1107.9 1347.26 L1107.9 1343.32 Z" fill="#000000" fill-rule="nonzero" fill-opacity="1" /><path clip-path="url(#clip920)" d="M1224.53 1392.14 Q1221.2 1392.14 1219.28 1393.93 Q1217.38 1395.71 1217.38 1398.83 Q1217.38 1401.96 1219.28 1403.74 Q1221.2 1405.52 1224.53 1405.52 Q1227.87 1405.52 1229.79 1403.74 Q1231.71 1401.94 1231.71 1398.83 Q1231.71 1395.71 1229.79 1393.93 Q1227.89 1392.14 1224.53 1392.14 M1219.86 1390.15 Q1216.85 1389.41 1215.16 1387.35 Q1213.49 1385.29 1213.49 1382.33 Q1213.49 1378.19 1216.43 1375.78 Q1219.39 1373.37 1224.53 1373.37 Q1229.69 1373.37 1232.63 1375.78 Q1235.57 1378.19 1235.57 1382.33 Q1235.57 1385.29 1233.88 1387.35 Q1232.22 1389.41 1229.23 1390.15 Q1232.61 1390.94 1234.49 1393.23 Q1236.38 1395.52 1236.38 1398.83 Q1236.38 1403.86 1233.31 1406.54 Q1230.25 1409.23 1224.53 1409.23 Q1218.82 1409.23 1215.74 1406.54 Q1212.68 1403.86 1212.68 1398.83 Q1212.68 1395.52 1214.58 1393.23 Q1216.48 1390.94 1219.86 1390.15 M1218.14 1382.77 Q1218.14 1385.45 1219.81 1386.96 Q1221.5 1388.46 1224.53 1388.46 Q1227.54 1388.46 1229.23 1386.96 Q1230.94 1385.45 1230.94 1382.77 Q1230.94 1380.08 1229.23 1378.58 Q1227.54 1377.08 1224.53 1377.08 Q1221.5 1377.08 1219.81 1378.58 Q1218.14 1380.08 1218.14 1382.77 Z" fill="#000000" fill-rule="nonzero" fill-opacity="1" /><path clip-path="url(#clip920)" d="M1321.03 1438.51 L1321.03 1434.26 Q1322.79 1435.09 1324.59 1435.53 Q1326.4 1435.97 1328.14 1435.97 Q1332.76 1435.97 1335.2 1432.87 Q1337.65 1429.74 1338 1423.4 Q1336.65 1425.39 1334.59 1426.45 Q1332.53 1427.52 1330.03 1427.52 Q1324.85 1427.52 1321.82 1424.39 Q1318.81 1421.25 1318.81 1415.81 Q1318.81 1410.48 1321.95 1407.26 Q1325.1 1404.05 1330.33 1404.05 Q1336.33 1404.05 1339.48 1408.65 Q1342.65 1413.24 1342.65 1421.99 Q1342.65 1430.16 1338.76 1435.04 Q1334.89 1439.9 1328.34 1439.9 Q1326.58 1439.9 1324.78 1439.56 Q1322.97 1439.21 1321.03 1438.51 M1330.33 1423.86 Q1333.48 1423.86 1335.31 1421.71 Q1337.16 1419.56 1337.16 1415.81 Q1337.16 1412.08 1335.31 1409.93 Q1333.48 1407.75 1330.33 1407.75 Q1327.19 1407.75 1325.33 1409.93 Q1323.51 1412.08 1323.51 1415.81 Q1323.51 1419.56 1325.33 1421.71 Q1327.19 1423.86 1330.33 1423.86 Z" fill="#000000" fill-rule="nonzero" fill-opacity="1" /><polyline clip-path="url(#clip920)" style="stroke:#000000; stroke-linecap:round; stroke-linejoin:round; stroke-width:4; stroke-opacity:1; fill:none" points="1406.33,1410.41 1821.79,1050.61 "/>
<polyline clip-path="url(#clip920)" style="stroke:#000000; stroke-linecap:round; stroke-linejoin:round; stroke-width:4; stroke-opacity:1; fill:none" points="1410.96,1406.4 1402.33,1403.91 "/>
<polyline clip-path="url(#clip920)" style="stroke:#000000; stroke-linecap:round; stroke-linejoin:round; stroke-width:4; stroke-opacity:1; fill:none" points="1486.32,1341.14 1477.69,1338.65 "/>
<polyline clip-path="url(#clip920)" style="stroke:#000000; stroke-linecap:round; stroke-linejoin:round; stroke-width:4; stroke-opacity:1; fill:none" points="1561.68,1275.87 1553.05,1273.38 "/>
<polyline clip-path="url(#clip920)" style="stroke:#000000; stroke-linecap:round; stroke-linejoin:round; stroke-width:4; stroke-opacity:1; fill:none" points="1637.04,1210.61 1628.41,1208.12 "/>
<polyline clip-path="url(#clip920)" style="stroke:#000000; stroke-linecap:round; stroke-linejoin:round; stroke-width:4; stroke-opacity:1; fill:none" points="1712.4,1145.35 1703.77,1142.85 "/>
<polyline clip-path="url(#clip920)" style="stroke:#000000; stroke-linecap:round; stroke-linejoin:round; stroke-width:4; stroke-opacity:1; fill:none" points="1787.76,1080.08 1779.13,1077.59 "/>
<path clip-path="url(#clip920)" d="M1447.57 1424.77 Q1450.93 1425.49 1452.8 1427.76 Q1454.7 1430.03 1454.7 1433.36 Q1454.7 1438.48 1451.18 1441.28 Q1447.66 1444.08 1441.18 1444.08 Q1439.01 1444.08 1436.69 1443.64 Q1434.4 1443.22 1431.95 1442.37 L1431.95 1437.85 Q1433.89 1438.99 1436.21 1439.57 Q1438.52 1440.14 1441.04 1440.14 Q1445.44 1440.14 1447.73 1438.41 Q1450.05 1436.67 1450.05 1433.36 Q1450.05 1430.31 1447.9 1428.59 Q1445.77 1426.86 1441.95 1426.86 L1437.92 1426.86 L1437.92 1423.01 L1442.13 1423.01 Q1445.58 1423.01 1447.41 1421.65 Q1449.24 1420.26 1449.24 1417.67 Q1449.24 1415.01 1447.34 1413.59 Q1445.46 1412.16 1441.95 1412.16 Q1440.02 1412.16 1437.83 1412.57 Q1435.63 1412.99 1432.99 1413.87 L1432.99 1409.7 Q1435.65 1408.96 1437.96 1408.59 Q1440.3 1408.22 1442.36 1408.22 Q1447.69 1408.22 1450.79 1410.65 Q1453.89 1413.06 1453.89 1417.18 Q1453.89 1420.05 1452.25 1422.04 Q1450.6 1424.01 1447.57 1424.77 Z" fill="#000000" fill-rule="nonzero" fill-opacity="1" /><path clip-path="url(#clip920)" d="M1522.91 1347.66 L1511.1 1366.11 L1522.91 1366.11 L1522.91 1347.66 M1521.68 1343.58 L1527.56 1343.58 L1527.56 1366.11 L1532.49 1366.11 L1532.49 1370 L1527.56 1370 L1527.56 1378.14 L1522.91 1378.14 L1522.91 1370 L1507.31 1370 L1507.31 1365.48 L1521.68 1343.58 Z" fill="#000000" fill-rule="nonzero" fill-opacity="1" /><path clip-path="url(#clip920)" d="M1584.12 1278.32 L1602.48 1278.32 L1602.48 1282.26 L1588.41 1282.26 L1588.41 1290.73 Q1589.43 1290.38 1590.44 1290.22 Q1591.46 1290.03 1592.48 1290.03 Q1598.27 1290.03 1601.65 1293.2 Q1605.03 1296.38 1605.03 1301.79 Q1605.03 1307.37 1601.56 1310.47 Q1598.08 1313.55 1591.76 1313.55 Q1589.59 1313.55 1587.32 1313.18 Q1585.07 1312.81 1582.67 1312.07 L1582.67 1307.37 Q1584.75 1308.51 1586.97 1309.06 Q1589.19 1309.62 1591.67 1309.62 Q1595.68 1309.62 1598.01 1307.51 Q1600.35 1305.4 1600.35 1301.79 Q1600.35 1298.18 1598.01 1296.07 Q1595.68 1293.97 1591.67 1293.97 Q1589.8 1293.97 1587.92 1294.38 Q1586.07 1294.8 1584.12 1295.68 L1584.12 1278.32 Z" fill="#000000" fill-rule="nonzero" fill-opacity="1" /><path clip-path="url(#clip920)" d="M1670.36 1228.47 Q1667.22 1228.47 1665.36 1230.63 Q1663.54 1232.78 1663.54 1236.53 Q1663.54 1240.26 1665.36 1242.43 Q1667.22 1244.58 1670.36 1244.58 Q1673.51 1244.58 1675.34 1242.43 Q1677.19 1240.26 1677.19 1236.53 Q1677.19 1232.78 1675.34 1230.63 Q1673.51 1228.47 1670.36 1228.47 M1679.65 1213.82 L1679.65 1218.08 Q1677.89 1217.25 1676.08 1216.81 Q1674.3 1216.37 1672.54 1216.37 Q1667.91 1216.37 1665.46 1219.49 Q1663.03 1222.62 1662.68 1228.94 Q1664.04 1226.92 1666.11 1225.86 Q1668.17 1224.77 1670.64 1224.77 Q1675.85 1224.77 1678.86 1227.94 Q1681.89 1231.09 1681.89 1236.53 Q1681.89 1241.85 1678.74 1245.07 Q1675.6 1248.29 1670.36 1248.29 Q1664.37 1248.29 1661.2 1243.7 Q1658.03 1239.1 1658.03 1230.37 Q1658.03 1222.18 1661.92 1217.32 Q1665.8 1212.43 1672.35 1212.43 Q1674.11 1212.43 1675.9 1212.78 Q1677.7 1213.13 1679.65 1213.82 Z" fill="#000000" fill-rule="nonzero" fill-opacity="1" /><path clip-path="url(#clip920)" d="M1733.39 1147.79 L1755.61 1147.79 L1755.61 1149.78 L1743.06 1182.35 L1738.18 1182.35 L1749.98 1151.73 L1733.39 1151.73 L1733.39 1147.79 Z" fill="#000000" fill-rule="nonzero" fill-opacity="1" /><path clip-path="url(#clip920)" d="M1820.6 1100.68 Q1817.27 1100.68 1815.34 1102.46 Q1813.45 1104.24 1813.45 1107.37 Q1813.45 1110.49 1815.34 1112.27 Q1817.27 1114.06 1820.6 1114.06 Q1823.93 1114.06 1825.85 1112.27 Q1827.77 1110.47 1827.77 1107.37 Q1827.77 1104.24 1825.85 1102.46 Q1823.95 1100.68 1820.6 1100.68 M1815.92 1098.69 Q1812.91 1097.95 1811.22 1095.89 Q1809.56 1093.83 1809.56 1090.86 Q1809.56 1086.72 1812.5 1084.31 Q1815.46 1081.9 1820.6 1081.9 Q1825.76 1081.9 1828.7 1084.31 Q1831.64 1086.72 1831.64 1090.86 Q1831.64 1093.83 1829.95 1095.89 Q1828.28 1097.95 1825.3 1098.69 Q1828.68 1099.47 1830.55 1101.76 Q1832.45 1104.06 1832.45 1107.37 Q1832.45 1112.39 1829.37 1115.07 Q1826.32 1117.76 1820.6 1117.76 Q1814.88 1117.76 1811.8 1115.07 Q1808.75 1112.39 1808.75 1107.37 Q1808.75 1104.06 1810.64 1101.76 Q1812.54 1099.47 1815.92 1098.69 M1814.21 1091.3 Q1814.21 1093.99 1815.88 1095.49 Q1817.57 1097 1820.6 1097 Q1823.61 1097 1825.3 1095.49 Q1827.01 1093.99 1827.01 1091.3 Q1827.01 1088.62 1825.3 1087.11 Q1823.61 1085.61 1820.6 1085.61 Q1817.57 1085.61 1815.88 1087.11 Q1814.21 1088.62 1814.21 1091.3 Z" fill="#000000" fill-rule="nonzero" fill-opacity="1" /><polyline clip-path="url(#clip920)" style="stroke:#000000; stroke-linecap:round; stroke-linejoin:round; stroke-width:4; stroke-opacity:1; fill:none" points="686.728,1202.68 686.728,483.08 "/>
<polyline clip-path="url(#clip920)" style="stroke:#000000; stroke-linecap:round; stroke-linejoin:round; stroke-width:4; stroke-opacity:1; fill:none" points="686.728,1155.43 691.714,1151.11 "/>
<polyline clip-path="url(#clip920)" style="stroke:#000000; stroke-linecap:round; stroke-linejoin:round; stroke-width:4; stroke-opacity:1; fill:none" points="686.728,1024.59 691.714,1020.27 "/>
<polyline clip-path="url(#clip920)" style="stroke:#000000; stroke-linecap:round; stroke-linejoin:round; stroke-width:4; stroke-opacity:1; fill:none" points="686.728,893.74 691.714,889.422 "/>
<polyline clip-path="url(#clip920)" style="stroke:#000000; stroke-linecap:round; stroke-linejoin:round; stroke-width:4; stroke-opacity:1; fill:none" points="686.728,762.894 691.714,758.576 "/>
<polyline clip-path="url(#clip920)" style="stroke:#000000; stroke-linecap:round; stroke-linejoin:round; stroke-width:4; stroke-opacity:1; fill:none" points="686.728,632.048 691.714,627.73 "/>
<polyline clip-path="url(#clip920)" style="stroke:#000000; stroke-linecap:round; stroke-linejoin:round; stroke-width:4; stroke-opacity:1; fill:none" points="686.728,501.202 691.714,496.884 "/>
<path clip-path="url(#clip920)" d="M601.748 1141.23 Q598.137 1141.23 596.308 1144.8 Q594.503 1148.34 594.503 1155.47 Q594.503 1162.57 596.308 1166.14 Q598.137 1169.68 601.748 1169.68 Q605.382 1169.68 607.188 1166.14 Q609.017 1162.57 609.017 1155.47 Q609.017 1148.34 607.188 1144.8 Q605.382 1141.23 601.748 1141.23 M601.748 1137.53 Q607.558 1137.53 610.614 1142.13 Q613.692 1146.72 613.692 1155.47 Q613.692 1164.19 610.614 1168.8 Q607.558 1173.38 601.748 1173.38 Q595.938 1173.38 592.859 1168.8 Q589.804 1164.19 589.804 1155.47 Q589.804 1146.72 592.859 1142.13 Q595.938 1137.53 601.748 1137.53 Z" fill="#000000" fill-rule="nonzero" fill-opacity="1" /><path clip-path="url(#clip920)" d="M621.91 1166.83 L626.794 1166.83 L626.794 1172.71 L621.91 1172.71 L621.91 1166.83 Z" fill="#000000" fill-rule="nonzero" fill-opacity="1" /><path clip-path="url(#clip920)" d="M637.026 1138.15 L655.382 1138.15 L655.382 1142.09 L641.308 1142.09 L641.308 1150.56 Q642.327 1150.21 643.345 1150.05 Q644.364 1149.86 645.382 1149.86 Q651.169 1149.86 654.549 1153.04 Q657.928 1156.21 657.928 1161.62 Q657.928 1167.2 654.456 1170.3 Q650.984 1173.38 644.664 1173.38 Q642.489 1173.38 640.22 1173.01 Q637.975 1172.64 635.567 1171.9 L635.567 1167.2 Q637.651 1168.34 639.873 1168.89 Q642.095 1169.45 644.572 1169.45 Q648.576 1169.45 650.914 1167.34 Q653.252 1165.24 653.252 1161.62 Q653.252 1158.01 650.914 1155.91 Q648.576 1153.8 644.572 1153.8 Q642.697 1153.8 640.822 1154.22 Q638.97 1154.63 637.026 1155.51 L637.026 1138.15 Z" fill="#000000" fill-rule="nonzero" fill-opacity="1" /><path clip-path="url(#clip920)" d="M591.563 1037.93 L599.202 1037.93 L599.202 1011.57 L590.892 1013.23 L590.892 1008.97 L599.155 1007.31 L603.831 1007.31 L603.831 1037.93 L611.47 1037.93 L611.47 1041.87 L591.563 1041.87 L591.563 1037.93 Z" fill="#000000" fill-rule="nonzero" fill-opacity="1" /><path clip-path="url(#clip920)" d="M620.915 1035.99 L625.799 1035.99 L625.799 1041.87 L620.915 1041.87 L620.915 1035.99 Z" fill="#000000" fill-rule="nonzero" fill-opacity="1" /><path clip-path="url(#clip920)" d="M645.984 1010.38 Q642.373 1010.38 640.544 1013.95 Q638.739 1017.49 638.739 1024.62 Q638.739 1031.73 640.544 1035.29 Q642.373 1038.83 645.984 1038.83 Q649.618 1038.83 651.424 1035.29 Q653.252 1031.73 653.252 1024.62 Q653.252 1017.49 651.424 1013.95 Q649.618 1010.38 645.984 1010.38 M645.984 1006.68 Q651.794 1006.68 654.85 1011.29 Q657.928 1015.87 657.928 1024.62 Q657.928 1033.35 654.85 1037.95 Q651.794 1042.54 645.984 1042.54 Q640.174 1042.54 637.095 1037.95 Q634.04 1033.35 634.04 1024.62 Q634.04 1015.87 637.095 1011.29 Q640.174 1006.68 645.984 1006.68 Z" fill="#000000" fill-rule="nonzero" fill-opacity="1" /><path clip-path="url(#clip920)" d="M592.558 907.085 L600.197 907.085 L600.197 880.719 L591.887 882.386 L591.887 878.127 L600.151 876.46 L604.827 876.46 L604.827 907.085 L612.466 907.085 L612.466 911.02 L592.558 911.02 L592.558 907.085 Z" fill="#000000" fill-rule="nonzero" fill-opacity="1" /><path clip-path="url(#clip920)" d="M621.91 905.14 L626.794 905.14 L626.794 911.02 L621.91 911.02 L621.91 905.14 Z" fill="#000000" fill-rule="nonzero" fill-opacity="1" /><path clip-path="url(#clip920)" d="M637.026 876.46 L655.382 876.46 L655.382 880.395 L641.308 880.395 L641.308 888.867 Q642.327 888.52 643.345 888.358 Q644.364 888.173 645.382 888.173 Q651.169 888.173 654.549 891.344 Q657.928 894.515 657.928 899.932 Q657.928 905.511 654.456 908.612 Q650.984 911.691 644.664 911.691 Q642.489 911.691 640.22 911.321 Q637.975 910.95 635.567 910.21 L635.567 905.511 Q637.651 906.645 639.873 907.2 Q642.095 907.756 644.572 907.756 Q648.576 907.756 650.914 905.65 Q653.252 903.543 653.252 899.932 Q653.252 896.321 650.914 894.214 Q648.576 892.108 644.572 892.108 Q642.697 892.108 640.822 892.525 Q638.97 892.941 637.026 893.821 L637.026 876.46 Z" fill="#000000" fill-rule="nonzero" fill-opacity="1" /><path clip-path="url(#clip920)" d="M594.78 776.239 L611.1 776.239 L611.1 780.174 L589.156 780.174 L589.156 776.239 Q591.818 773.484 596.401 768.854 Q601.007 764.202 602.188 762.859 Q604.433 760.336 605.313 758.6 Q606.216 756.841 606.216 755.151 Q606.216 752.396 604.271 750.66 Q602.35 748.924 599.248 748.924 Q597.049 748.924 594.595 749.688 Q592.165 750.452 589.387 752.003 L589.387 747.28 Q592.211 746.146 594.665 745.568 Q597.118 744.989 599.155 744.989 Q604.526 744.989 607.72 747.674 Q610.915 750.359 610.915 754.85 Q610.915 756.979 610.104 758.901 Q609.317 760.799 607.211 763.391 Q606.632 764.063 603.53 767.28 Q600.429 770.475 594.78 776.239 Z" fill="#000000" fill-rule="nonzero" fill-opacity="1" /><path clip-path="url(#clip920)" d="M620.915 774.294 L625.799 774.294 L625.799 780.174 L620.915 780.174 L620.915 774.294 Z" fill="#000000" fill-rule="nonzero" fill-opacity="1" /><path clip-path="url(#clip920)" d="M645.984 748.692 Q642.373 748.692 640.544 752.257 Q638.739 755.799 638.739 762.929 Q638.739 770.035 640.544 773.6 Q642.373 777.141 645.984 777.141 Q649.618 777.141 651.424 773.6 Q653.252 770.035 653.252 762.929 Q653.252 755.799 651.424 752.257 Q649.618 748.692 645.984 748.692 M645.984 744.989 Q651.794 744.989 654.85 749.595 Q657.928 754.179 657.928 762.929 Q657.928 771.655 654.85 776.262 Q651.794 780.845 645.984 780.845 Q640.174 780.845 637.095 776.262 Q634.04 771.655 634.04 762.929 Q634.04 754.179 637.095 749.595 Q640.174 744.989 645.984 744.989 Z" fill="#000000" fill-rule="nonzero" fill-opacity="1" /><path clip-path="url(#clip920)" d="M595.776 645.393 L612.095 645.393 L612.095 649.328 L590.151 649.328 L590.151 645.393 Q592.813 642.638 597.396 638.008 Q602.003 633.356 603.183 632.013 Q605.429 629.49 606.308 627.754 Q607.211 625.995 607.211 624.305 Q607.211 621.55 605.267 619.814 Q603.345 618.078 600.243 618.078 Q598.044 618.078 595.591 618.842 Q593.16 619.606 590.382 621.157 L590.382 616.434 Q593.206 615.3 595.66 614.721 Q598.114 614.143 600.151 614.143 Q605.521 614.143 608.716 616.828 Q611.91 619.513 611.91 624.004 Q611.91 626.133 611.1 628.055 Q610.313 629.953 608.206 632.545 Q607.628 633.217 604.526 636.434 Q601.424 639.629 595.776 645.393 Z" fill="#000000" fill-rule="nonzero" fill-opacity="1" /><path clip-path="url(#clip920)" d="M621.91 643.448 L626.794 643.448 L626.794 649.328 L621.91 649.328 L621.91 643.448 Z" fill="#000000" fill-rule="nonzero" fill-opacity="1" /><path clip-path="url(#clip920)" d="M637.026 614.768 L655.382 614.768 L655.382 618.703 L641.308 618.703 L641.308 627.175 Q642.327 626.828 643.345 626.666 Q644.364 626.481 645.382 626.481 Q651.169 626.481 654.549 629.652 Q657.928 632.823 657.928 638.24 Q657.928 643.819 654.456 646.92 Q650.984 649.999 644.664 649.999 Q642.489 649.999 640.22 649.629 Q637.975 649.258 635.567 648.518 L635.567 643.819 Q637.651 644.953 639.873 645.508 Q642.095 646.064 644.572 646.064 Q648.576 646.064 650.914 643.957 Q653.252 641.851 653.252 638.24 Q653.252 634.629 650.914 632.522 Q648.576 630.416 644.572 630.416 Q642.697 630.416 640.822 630.832 Q638.97 631.249 637.026 632.129 L637.026 614.768 Z" fill="#000000" fill-rule="nonzero" fill-opacity="1" /><path clip-path="url(#clip920)" d="M604.919 499.848 Q608.276 500.565 610.151 502.834 Q612.049 505.102 612.049 508.435 Q612.049 513.551 608.53 516.352 Q605.012 519.153 598.53 519.153 Q596.355 519.153 594.04 518.713 Q591.748 518.296 589.294 517.44 L589.294 512.926 Q591.239 514.06 593.554 514.639 Q595.868 515.218 598.392 515.218 Q602.79 515.218 605.081 513.482 Q607.396 511.746 607.396 508.435 Q607.396 505.38 605.243 503.667 Q603.114 501.931 599.294 501.931 L595.267 501.931 L595.267 498.088 L599.48 498.088 Q602.929 498.088 604.757 496.723 Q606.586 495.334 606.586 492.741 Q606.586 490.079 604.688 488.667 Q602.813 487.232 599.294 487.232 Q597.373 487.232 595.174 487.648 Q592.975 488.065 590.336 488.945 L590.336 484.778 Q592.998 484.037 595.313 483.667 Q597.651 483.297 599.711 483.297 Q605.035 483.297 608.137 485.727 Q611.239 488.135 611.239 492.255 Q611.239 495.125 609.595 497.116 Q607.952 499.084 604.919 499.848 Z" fill="#000000" fill-rule="nonzero" fill-opacity="1" /><path clip-path="url(#clip920)" d="M620.915 512.602 L625.799 512.602 L625.799 518.482 L620.915 518.482 L620.915 512.602 Z" fill="#000000" fill-rule="nonzero" fill-opacity="1" /><path clip-path="url(#clip920)" d="M645.984 487 Q642.373 487 640.544 490.565 Q638.739 494.107 638.739 501.236 Q638.739 508.343 640.544 511.908 Q642.373 515.449 645.984 515.449 Q649.618 515.449 651.424 511.908 Q653.252 508.343 653.252 501.236 Q653.252 494.107 651.424 490.565 Q649.618 487 645.984 487 M645.984 483.297 Q651.794 483.297 654.85 487.903 Q657.928 492.486 657.928 501.236 Q657.928 509.963 654.85 514.57 Q651.794 519.153 645.984 519.153 Q640.174 519.153 637.095 514.57 Q634.04 509.963 634.04 501.236 Q634.04 492.486 637.095 487.903 Q640.174 483.297 645.984 483.297 Z" fill="#000000" fill-rule="nonzero" fill-opacity="1" /><polyline clip-path="url(#clip922)" style="stroke:#009af9; stroke-linecap:round; stroke-linejoin:round; stroke-width:4; stroke-opacity:1; fill:none" points="1082.57,959.47 1085.34,958.294 1096.09,953.246 1091.72,955.423 1095.06,953.899 1116.94,943.458 1129.85,937.186 1132.31,935.831 1120.52,941.33 1115.34,943.753 1111.73,945.444 1105.61,948.375 1116.06,943.326 1132.68,935.175 1123.42,939.423 1127.04,937.478 1120.21,940.457 1125.01,938.055 1125.4,937.742 1156.47,921.914 1166.67,915.115 1172.85,910.48 1151.24,919.355 1169.91,909.204 1190.04,897.234 1178.58,901.138 1215.41,878.535 1267.82,847.427 1303.43,819.863 1250.59,842.965 1228.02,852.546 1160.39,891.182 1251.95,845.235 1213.36,860.2 1211.43,862.281 1204.96,867.634 1311.93,803.444 1277.48,813.206 1339.99,775.325 1268,813.379 1251.83,823.82 1244.6,832.785 1208.5,864.332 1276.22,827.998 1265.99,828.199 1243.67,839.739 1298.75,807.745 1304.3,800.639 1289.55,806.348 1200.3,860.278 1282.69,818.318 1345.76,767.644 1301.86,793.96 1375.96,750.487 1522.32,639.07 1674.15,520.468 1585.3,550.198 1608.5,531.996 1592.29,532.808 1497.34,598.939 1458.97,636.913 1528.23,601.162 1490.69,629.819 1487.07,633.875 1426.51,674.858 1363.18,723.936 1350.1,738.323 1211.37,836.857 1229.02,842.777 1250.48,833.749 1264.3,828.143 1241.8,843.066 1175.02,879.593 1140.44,909.26 1112.23,934.225 1100.95,948.724 1105.98,948.745 1108.83,942.006 1177.01,904.44 1140.78,930.931 1071.03,969.646 1099.08,948.344 1211.92,871.059 1319.98,792.769 1297.82,794.288 1361.52,746.286 1291.21,824.211 1292.56,827.539 1313.39,789.152 1445.08,702.38 1456.88,674.862 1409.53,692.843 1423.87,695.419 1368.23,735.285 1298.72,794.323 1313.92,790.243 1169.43,882.942 1191.7,884.124 1181.28,891.371 1188.15,881.301 1239.5,849.122 1315.93,795.549 1242.56,837.081 1246.33,835.165 1226.96,854.099 1283.16,810.984 1289.68,814.842 1254.9,837.002 1185.91,878.686 1142.62,907.091 1193.45,885.338 1193.94,882.598 1186.41,885.367 1143.79,913.264 1145.51,917.779 1171.07,899.158 1241.06,846.406 1174.94,890.107 1312.5,790.083 1199.64,865.639 1303.44,804.04 1313.71,806.216 1337,779.834 1353.18,755.794 1320.47,780.143 1293.67,793.099 1304.06,792.641 1232.43,855.231 1172.76,893.058 1165.77,903.281 1282.2,814.987 1189.24,869.713 1138.28,899.601 1104.85,932.408 1105.11,941.277 1089.01,956.356 1095.74,950.238 1112.08,942.374 1215.31,874.999 1206.3,874.628 1130.59,917.726 1287.4,811.754 1360.31,764.029 1434.33,702.335 1388.78,726.348 1427.46,698.476 1318.58,760.073 1289.41,788.056 1326.4,769.323 1325.02,762.331 1272.97,809.198 1363.32,754.999 1277.56,802.653 1308.92,785.377 1345.92,759.131 1389.23,723.167 1326.24,765.401 1275.75,802.73 1244.18,835.994 1233.61,842.313 1257.33,838.453 1235.47,850.765 1275.34,824.277 1372.36,750.922 1339.62,764.753 1254.22,820.41 1275.74,803.7 1254.8,816.313 1299.9,787.357 1230.38,847.377 1205.8,864.689 1178.39,883.457 1059.88,958.983 1114.81,937.521 1074.9,961.251 1157.41,921.593 1246.24,858.243 1253.47,843.81 1261.05,837.683 1271.86,826.899 1230.75,855.977 1106.55,935.849 1191.6,892.406 1135.44,920.963 1209.31,870.621 1177.84,884.081 1290.8,811.22 1347.34,766.056 1373.67,744.064 1412.86,712.514 1336.19,753.198 1359.07,741.863 1320.68,781.211 1262.86,821.244 1354.72,766.748 1412.92,728.593 1435.94,689.765 1480.84,650.46 1604.17,544.237 1676.58,481.187 1636.15,497.226 1687.93,450.21 1679.06,452.345 1789.67,366.322 1748.18,389.72 1749.32,387.06 1711.01,415.725 1759.06,376.363 1716.12,411.851 1634.2,478.62 1673.31,457.792 1661.44,470.063 1685.77,455.422 1653.58,483.13 1588.4,528.735 1633.35,506.464 1604.01,528.931 1583.32,547.911 1458.03,638.739 1484.62,632.528 1401.34,691.315 1309.38,760.777 1255.58,804.133 1251.79,818.338 1169.09,875.72 1232.75,849.351 1276.9,828.763 1192.26,876.881 1214.75,866.862 1265.71,836.201 1208.19,869.108 1171.24,889.141 1130.77,916.809 1238.75,859.767 1288.38,815.368 1247.55,836.791 1210.76,856.325 1150.22,896.274 1114.13,922.46 1133.52,919.245 1167.86,902.691 1241.33,859.171 1375.37,774.826 1305.2,802.866 1262.04,822.264 1261.4,822.897 1188.82,870.532 1207.11,864.969 1207.86,867.892 1199.39,872.958 1214.41,866.598 1266.79,837.68 1262.81,834.187 1246.67,844.732 1164.53,894.318 1174.66,891.278 1160.48,901.122 1149.21,908.025 1240.86,865.299 1276.18,832.892 1234.71,853.103 1231.43,851.298 1186.27,876.813 1135.4,910.914 1163.97,900.803 1182.57,896.426 1149.33,915.574 1152.46,907.762 1192.2,885.936 1156.35,906.168 1111.75,936.385 1156.49,913.486 1041.84,980.5 1074.69,964.272 1148.96,912.293 1146.93,906.333 1153.63,899.029 1165.92,892.347 1140.77,901.606 1246.85,826.136 1271.9,791.09 1164.42,877.058 1141.46,900.701 1109.6,929.476 1092.41,956.181 1075.32,965.095 1071.28,970.588 1050.84,983.602 1060.02,980.491 1045.81,978.054 1065.28,971.171 1045.34,992.284 995.382,1015.89 1024.15,1004.77 1022.87,1007.15 1003.45,1020.96 1020.65,1007.55 1010.34,1006.3 1069.63,969.346 1002.94,1010.75 1046.29,978.66 1156.42,903.822 1150.05,905.44 1168.62,900.054 1247.72,834.971 1436.31,705.529 1444.22,674.437 1484.55,644.607 1591.91,567.663 1428.7,674.921 1383.39,715.903 1485.53,643.859 1431.06,678.922 1369.8,715.908 1381.58,721.059 1355.28,745.653 1337.52,766.053 1325.91,774.025 1259.41,826.752 1220.23,852.345 1166.46,895.104 1178.2,892.801 1149.76,908.954 1198.39,883.043 1220.59,858.157 1213.7,869.129 1277.59,830.582 1299.74,804.34 1250.64,830.605 1230.86,842.662 1146.68,901.668 1211.75,872.447 1213.61,869.299 1269.77,835.326 1268.36,821.764 1341.5,772.16 1385.08,738.831 1340.73,762.896 1211.13,852.369 1258.85,828.506 1288.28,802.645 1315.16,787.034 1156.96,894.603 1136.59,910.761 1121.03,930.699 1152.19,908.992 1198.28,886.289 1315.97,789.097 1284.48,808.031 1261.98,823.204 1242.96,831.065 1203.66,862.297 1215.13,860.511 1232.51,848.306 1276.79,818.84 1254.33,827.32 1288.48,808.35 1240.01,838.766 1251.98,837.314 1225.5,858.118 1132.78,922.609 1050.54,974.292 1124.71,938.039 1131.32,933.023 1188.08,893.797 1209.12,877.376 1191.24,866.078 1172.74,882.671 1171.05,893.288 1237.35,843.695 1168.32,897.851 1173.87,898.506 1059.29,985.608 987.133,1028.12 985.509,1029.4 965.33,1035.13 949.701,1052.99 903.612,1081.16 996.461,1035.86 1041.64,1002.91 1062.59,977.424 1041.64,982.446 1055.15,974.035 1016.03,1008.64 997.288,1018.55 1022,996.352 1054,979.758 1130.29,939.369 1171.59,906.011 1057.44,972.838 913.073,1063.87 954.705,1051.09 975.612,1039.66 958.659,1043.37 966.351,1047.08 1028.24,1010.79 1093.41,966.879 1039.93,987.711 1296.12,847.555 1256.07,846.933 1250.86,838.286 1357.47,769.145 1450.25,699.874 1464.35,676.689 1498.64,641.449 1482.93,632.55 1587.65,561.148 1501.77,615.276 1513.97,608.592 1504.22,609.075 1480.94,622.96 1455.97,652.068 1375.57,709.646 1340.51,746.649 1431.71,698.923 1534.35,621.338 1425.22,678.359 1476.11,654.154 1481.85,642.192 1437.18,674.855 1320.09,749.301 1342.33,749.637 1380.24,730.325 1342.36,753.018 1411.75,721.204 1395.98,721.803 1235.31,832.396 1191.28,869.706 1217.54,860.365 1214.5,862.992 1227.13,860.597 1283.86,807.991 1336.15,765.129 1261.56,819.03 1251.49,819.87 1215.77,848.347 1284.37,810.118 1296.79,796.359 1391.71,729.012 1382.65,734.03 1357.59,746.62 1242.67,835.951 1235.06,848.931 1198.21,870.06 1088.29,947.51 1095.11,953.674 1004.5,1005.39 993.42,1017.25 1036.39,999.885 1045.09,995.802 1070.46,977.835 1064.44,977.881 1009.99,1008.47 1050.5,990.44 1080.67,965.492 1111.11,948.364 1136.2,929.888 1013.56,1004.29 946.727,1042.05 927.633,1065.9 915.473,1074.71 944.685,1060.05 954.036,1054.14 1039.6,1004.65 1048.86,994.424 986.663,1028.48 982.261,1032.97 934.656,1063.23 936.133,1055.93 930.137,1062.43 958.906,1046.88 890.159,1082.83 922.585,1074.04 941.619,1062.78 957.846,1049.28 979.855,1029.48 1022.26,1006.32 1039.26,991.237 1056.18,973.71 1004.66,1004.11 983.709,1014.54 1019.53,999.304 1041.17,979.313 1014.57,997.475 985.237,1018.79 945.083,1042.22 913.738,1065.99 929.213,1064.45 938.284,1064.08 969.981,1041.22 1057.28,993.019 956.945,1048.75 929.473,1072.74 984.595,1035.75 1006.78,1010.75 1048.11,992.407 1015.02,1003.55 1078.01,967.214 1129.03,939.236 1167.06,903.174 1283.52,819.759 1321.73,793.119 1176.5,894.884 1112.19,944.571 1096.76,955.509 1140.39,932.76 1206.39,882.747 1226.08,860.524 1227.61,855.649 1250.2,850.66 1190.43,875.298 1133.6,917.45 1106.7,950.317 1069.26,969.525 1056.5,976.194 1017.93,1004.72 970.197,1032.4 968.33,1031.89 1097.04,958.058 1125.56,934.42 1107.18,946.659 1036.45,991.534 1085.16,959.195 1096.59,953.108 1077.71,962.794 1083.32,957.305 1113.85,941.757 1244.76,850.44 1322.36,788.923 1318.63,779.964 1217.36,859.542 1195.78,879.081 1113.95,943.481 1164.37,903.879 1193.26,885.726 1279.26,815.996 1320.03,778.979 1351.86,762.497 1336.23,765.236 1366.03,726.071 1378.26,732.503 1397.05,709.395 1293.44,780.07 1269.32,808.04 1253.7,820.775 1241.49,833.117 1200.44,868.905 1269.35,825.427 1246.03,843.866 1268.66,815.276 1429.9,710.205 1262.12,817.432 1213.15,858.963 1345.75,768.617 1298.05,795.31 1238.53,834.94 1183.2,879.416 1133.43,906.319 1163.81,902.562 1210.42,870.045 1242.08,853.108 1253.36,836.64 1175.93,879.79 1144.49,903.487 1128.44,915.313 1169.14,897.172 1184.86,882.463 1267.72,833.774 1282.12,815.783 1214.7,853.209 1262.87,827.059 1247.41,839.543 1279.89,805.939 1277.8,812.136 1264.31,819.03 1323.43,778.491 1320.48,770.921 1384.15,719.423 1471.14,665.341 1510.9,619.04 1521.1,596.058 1529.6,602.919 1358.59,725.678 1444.95,671.767 1451.76,661.86 1489.31,624.807 1559.78,567.696 1490.13,631.598 1418.41,678.096 1312.39,761.874 1286.52,797.673 1300.69,794.874 1388.8,729.838 1411.58,712.877 1564.52,594.506 1507.89,621.392 1482.55,639.066 1369.85,710.417 1295.54,778.434 1264,807.658 1188.79,862.371 1173.05,882.904 1178.41,888.333 1178.45,886.714 1185.29,884.236 1210.18,871.619 1246.86,840.005 1269.04,820.536 1219.46,859.818 1187.57,881.361 1179.57,888.12 1191.89,876.087 1176.06,896.946 1122.88,928.929 1101.28,950.978 1175.59,901.561 1263.49,843.983 1313.53,797.798 1294.18,803.25 1445.68,687.15 1449.53,679.022 1477.05,657.954 1465.77,665.637 1400.21,704.9 1234.03,827.084 1196.17,857.264 1226.4,845.035 1239.8,837.612 1258.44,818.52 1272.45,812.545 1269.39,807.322 1213.87,866.142 1221.37,863.799 1231.21,856.524 1260.93,836.994 1248.46,837.789 1232.98,849.089 1278.3,814.624 1159.03,890.462 1266.99,828.654 1390.2,736.418 1490.85,660.635 1414.99,704.63 1378.07,731.486 1443.18,674.062 1500.65,625.57 1594.38,530.807 1647.02,484.705 1555.46,562.686 1635.34,509.251 1517.06,598.518 1422.9,673.028 1400.46,694.575 1526.71,616.446 1548.22,591.794 1565.33,572.06 1513.92,611.242 1551.43,582.503 1498.27,616.084 1481.8,634.56 1386.15,707.938 1418.6,693.084 1476.29,661.555 1520.84,618.55 1450.92,658.063 1441.08,668.651 1363.09,724.44 1454.34,675.966 1405.66,710.884 1497.55,653.279 1518.85,615.472 1421.23,683.27 1481.42,645.223 1492.71,633.109 1513.41,618.958 1497.41,640.204 1532.79,610.134 1529.72,604.598 1433.96,671.437 1451.76,666.41 1525.2,609.639 1442.07,671.469 1384.16,723.593 1410.69,705.936 1425.55,697.816 1463.45,682.029 1554.9,599.68 1448.66,659.263 1416.45,690.627 1430.4,687.332 1482.78,655.79 1361,743.385 1327.11,772.227 1268.26,819.039 1292.55,811.153 1291.37,803.558 1268.63,818.288 1266.1,826.65 1199.44,863.163 1154.76,889.918 1143.96,914.052 1110.48,940.785 1110.06,946.11 972.57,1034.53 1017.23,1010.24 992.012,1024.06 1102.64,960.604 1186.07,905.113 1112.07,937.671 1128.25,926.255 1103.43,940.02 1209.19,874.408 1181.41,891.833 1161.63,898.763 1225.84,865.541 1190.3,874.601 1152.35,899.442 1092.51,950.037 1078.17,962.839 1046.41,981.987 977.453,1027.95 1067.93,980.737 1003.65,1013 968.063,1040.28 957.973,1041.91 974.74,1034.21 906.047,1075.99 947.246,1056.03 958.008,1051.82 1016.32,1012.63 982.183,1025.08 1037.82,993.896 1085.99,966.076 1053.65,987.408 1084.75,947.991 1147.21,915.991 1184.19,877.338 1190.31,873.693 1151.89,896.439 1176.5,883.912 1096.76,934.874 1148.3,915.663 1163.46,899.844 1142.57,908.535 1062.12,971.283 1125.73,944.371 1149.82,925.208 1202.02,886.631 1233.79,861.014 1237.48,850.211 1240.86,851.734 1164.22,888.941 1197.25,865.405 1196.04,877.579 1180.59,892.268 1219.74,871.037 1260.6,836.577 1291.34,800.194 1350.79,768.302 1260.78,811.047 1218.59,849.971 1211.19,859.292 1222.36,853.634 1195.58,875.178 1157.82,902.601 1158.79,904.334 1165.59,902.96 1103.02,949.228 1043.19,978.29 1011.48,1000.94 1035.46,993.684 1048.84,985.241 1051.57,982.495 1027.97,1002.65 1056.27,985.384 1053.03,992.641 1128.88,938.759 1122.91,939.134 1202.1,881.258 1326.22,799.082 1343.21,778.957 1241.97,837.118 1229.96,855.558 1073.05,973.549 1040.46,988.91 1142.15,930.171 1143.32,927.177 1152.51,920.246 1146.37,926.287 1132.3,924.478 1112.59,937.071 1052.13,974.374 1129.36,922.012 1129.91,931.287 1134.3,940.155 1256.67,854.143 1315.43,808.083 1432.8,717.774 1507.94,652.836 1493.09,646.575 1542.81,600.499 1520.24,607.024 1498.5,623.249 1462.98,636.122 1360.97,724.255 1455.34,670.368 1408.91,697.805 1473.18,650.396 1611.84,552.935 1703.84,465.73 1674.8,472.226 1575.21,534.139 1543.08,565.57 1580.8,552.036 1596.06,535.766 1516.08,593.928 1443.39,645.05 1354.5,718.565 1368.86,723.944 1488.53,654.546 1439.95,676.806 1398.53,704.814 1367.43,728.002 1278.02,794.602 1233.55,834.392 1256.09,828.396 1240.74,844.407 1227.7,852.62 1158.78,898.839 1183.76,887.088 1207.98,877.191 1223.87,868.781 1246.8,843.457 1275.17,827.183 1252.22,835.823 1205.3,863.846 1234.09,851.164 1269.88,822.762 1286.57,811.124 1272.22,818.988 1147.3,894.837 1106.14,931.544 1032,977.856 1087.13,956.505 1077.32,966.935 1070.17,967.093 1012.64,1006.73 1066.16,981.367 1040.87,995.663 1071.12,976.751 1035.97,1000.93 1031.06,1001.68 971.637,1034.78 908.688,1073.66 1026.9,1019.52 984.718,1035.97 954.555,1053.46 904.926,1074.3 952.525,1050.72 954.936,1047.63 982.233,1032.31 1019.69,1010.96 997.147,1018.16 1043.19,994.499 1084.95,968.317 1156.93,916.681 1135.65,926.113 1077.77,958.695 1097.58,940.372 1117.43,936.932 1207.75,876.666 1311.67,810.355 1260.97,830.179 1329.55,775.417 1331.41,778.905 1378.6,737.439 1287.16,805.486 1297.12,807.656 1309.04,784.659 1386.66,736.2 1398.58,694.38 1456.49,654.107 1328.46,751.512 1258.8,804.685 1230.35,837.187 1258.15,825.6 1306.42,798.794 1321.09,791.603 1314.17,786.54 1461.23,668.343 1459.71,664.872 1466.82,654.903 1410.36,702.954 1463.27,665.78 1514.62,628.231 1409.74,698.596 1355.29,748.679 1293.61,794.854 1224.67,843.853 1275.33,825.009 1285.62,816.459 1438.15,706.074 1395.15,713.688 1345.85,748.838 1317.27,772.651 1263.99,802.528 1155.61,885.542 1113.26,920.951 1091.91,946.524 1168.58,910.572 1100.07,947.654 1090.98,958.183 1079.87,964.917 1120.51,947.404 1140.26,927.456 1225.17,872.499 1250.22,851.681 1255.59,842.59 1355.22,770.795 1438.72,700.561 1436.41,676.589 1393.09,704.906 1346.37,753.496 1353.27,752.801 1328.21,758.919 1286.13,803.506 1236.98,836.454 1179.48,874.235 1195.72,874.302 1195.6,875.924 1071.57,954.775 1089.49,953.869 1031.04,991.523 1054.58,986.799 1013.73,1009.83 1080.36,969.757 1185.19,900.549 1162.86,905.152 1163.15,904.4 1074.74,955.864 1106.41,945.515 1092.29,959.464 1075.03,966.465 1035.27,996.136 1059.05,990.657 964.851,1033.44 931.16,1055.83 1002.33,1014.17 1024.19,1001.35 989.098,1026.94 1024.76,1001.57 1155.63,926.927 1194.38,896.483 1302.69,818 1297.99,805.181 1321.6,785.087 1306.73,793.975 1371.31,744.048 1290.89,798.66 1185.13,884.128 1209.27,869.719 1192.88,875.969 1218.1,863.458 1211.34,863.831 1216.28,853.136 1231.48,833.989 1230.35,838.756 1305.87,767.115 1357.84,738.732 1332.92,759.767 1375.55,722.957 1468.49,642.869 1431.79,677.779 1403.25,703.388 1386.39,725.048 1311.78,779.526 1259.72,827.847 1235.08,847.944 1330.34,766.167 1367.69,744.457 1446.83,684.685 1612.61,563 1681.41,480.518 1591.18,533.038 1602.26,528.735 1657.05,479.537 1687.8,443.461 1725.97,412.101 1625.39,479.627 1728.02,414.515 1661.93,465.445 1593.05,521.109 1613.41,513.85 1515.88,584.555 1514.25,597.607 1504.59,613.994 1429.47,665.424 1335.25,740.212 1285.28,783.64 1227.96,830.459 1252.19,828.303 1215.51,855.549 1206.29,866.962 1168.22,896.017 1180.06,894.839 1176.39,901.339 1148.29,918.183 1153.48,918.106 1168.93,905.084 1147.97,914.031 1113.6,940.465 1105.15,947.202 1115.08,937.927 1097.57,951.814 1036.52,984.698 1116.66,938.473 1201.7,878.934 1158.3,907.121 1145.93,916.45 1136.47,925.497 1180.51,896.033 1184.43,898.76 1292.49,810.345 1280.98,809.074 1171.91,878.744 1174.17,895.146 1194.25,883.776 1203.58,873.131 1224.65,857.381 1229.61,847.663 1251.27,829.062 1225.86,840.627 1167.16,893.788 1154.68,905.788 1188.09,890.057 1124.93,920.091 1079.29,951.704 1059.86,972.299 1037.19,987.302 1067.54,973.414 1164.01,916.14 1189.07,893.185 1199.7,882.012 1208.6,876.785 1274.85,822.664 1268.73,825.785 1239.02,839.975 1254.15,828.621 1273.09,799.739 1226.79,838.425 1161.2,889.694 1175.04,894.001 1145.52,913.823 1160.15,903.542 1194.65,874.501 1156.89,899.127 1284.22,828.835 1253.6,840.993 1232.97,846.942 1302.49,801.625 1333.56,769.872 1425.26,706.131 1339.7,751.263 1302.43,786.604 1332.16,764.394 1246.75,834.87 1220.22,853.489 1258.25,835.603 1189.53,869.789 1141.22,915.82 1169.9,899.347 1136.67,919.356 1093.2,946.165 1103.77,945.577 1091.41,956.018 1083.02,962.635 1094.01,951.603 1162.03,920.355 1187.73,899.133 1216.56,872.921 1253.11,845.606 1175.74,891.909 1226.68,857.278 1231.52,855.1 1327.06,785.597 1307.75,798.661 1397.89,730.244 1302.92,780.651 1220.06,847.635 1178.86,879.723 1199.29,875.857 1154.47,901.086 1231.25,859.466 1237.94,854.583 1367.74,767.703 1310.37,795.512 1354.84,765.082 1253.55,828.411 1203.39,873.428 1278.8,829.93 1360.89,766.234 1392.53,736.75 1304.72,782.668 1227.27,837.097 1308.93,789.672 1316.5,781.377 1255.06,823.846 1233.36,844.552 1206.61,862.733 1237.99,849.56 1355.73,783.705 1467.71,678.465 1485.26,654.598 1495.96,633.812 1547.12,592.775 1629.31,529.954 1503.78,605.773 1556.6,576.111 1433.11,667.203 1454.22,666.24 1516.38,627.346 1584.3,568.641 1516.56,607.51 1524.16,600.107 1550.83,575.877 1566.73,560.222 1429.53,667.738 1364.48,721.776 1338.82,758.343 1330.69,765.215 1344.45,758.001 1308.92,782.323 1243.82,829.428 1245.82,833.924 1212.42,857.342 1169.15,890.073 1138.6,909.705 1088.42,942.135 1039.57,983.236 1013.36,1005.09 1065.12,981.413 1025.88,1003.46 1064.87,981.72 1097.34,960.288 1121.88,944.649 1120.94,937.489 1104.49,946.831 1179.57,899.35 1306.09,823.474 1319.84,788.474 1308.74,794.861 1431.24,711.644 1319.47,772.463 1342.62,760.746 1429.33,702.054 1450.02,677.422 1449.78,676.784 1458.2,665.52 1500.22,633.13 1415.13,702.635 1456.05,670.953 1382.94,717.024 1336.13,750.799 1331.48,759.474 1374.39,732.259 1309.16,777.055 1258.58,814.582 1337.97,765.02 1329.04,775.381 1333.56,776.332 1402.62,740.038 1478.38,671.802 1503.56,640.826 1437.87,671.912 1398.29,706.815 1397.46,711.797 1460.65,677.223 1496.2,632.922 1373.43,722.388 1278.51,799.34 1282.93,809.511 1252.03,835.809 1474.92,682.72 1587.6,590.297 1675.82,498.49 1713.76,437.664 1713.29,415.524 1661.51,435.832 1591.44,505.389 1635.7,475.995 1562.93,541.095 1542.34,565.294 1493.51,607.332 1474.84,626.43 1441.42,655.129 1506.5,624.072 1398.33,698.612 1399.33,707.054 1470.73,660.577 1418.62,692.389 1398.56,710.114 1370.64,734.1 1437.2,699.488 1507.33,645.999 1490.22,646.785 1511.97,634.748 1449.33,667.128 1349.03,752.682 1315.7,778.959 1259.24,817.441 1241.85,836.261 1174.49,883.782 1121.38,923.111 1072.83,956.087 1079.91,960.323 1163.82,918.471 1118.69,935.442 1163.39,912.301 1251.42,852.432 1237.18,844.207 1304.02,801.405 1338.28,774.203 1306.56,786.334 1230.87,847.227 1230.36,856.452 1169.94,895.188 1128.28,923.078 1254.59,854.89 1357.93,772.936 1328.81,777.94 1451.92,687.052 1416.12,704.05 1420.24,689.996 1456.32,647.753 1463.32,639.489 1545.64,591.06 1594.12,543.963 1597.11,530.859 1626.36,510.351 1595.31,530.972 1536.93,585.595 1574.58,555.751 1470.59,633.581 1346,722.784 1341.89,737.991 1459.36,672.023 1460.04,672.263 1435.96,685.355 1462.83,660.12 1390.15,706.669 1470.54,650.996 1373.86,724 1413.94,702.072 1362.8,734.956 1318.46,766.244 1274.7,805.063 1272.49,814.828 1332.36,775.602 1334.41,769.948 1401.08,718.387 1367.88,740.762 1491.73,643.112 1522.35,616.173 1539.74,603.558 1467.26,656.293 1524,610.528 1567.74,577.179 1580.15,560.112 1533.96,591.582 1392.17,691.849 1305.78,763.085 1306.35,780.367 1264.06,809.809 1206.81,856.835 1195.12,872.756 1216.3,866.069 1185.11,886.697 1195.82,879.445 1130.33,919.017 1077.25,959.66 1097.78,954.4 1174.19,910.213 1161.96,909.485 1084.02,950.676 1080.11,958.798 1066.25,968.667 1086.86,961.955 1170.21,899.045 1190.31,887.499 1150.39,906.366 1176.32,898.411 1200.94,869.157 1124.58,921.781 1102.41,945.882 1164.73,905.518 1072.57,965.369 1035.27,985.338 998.851,1010.11 1040.63,993.914 993.184,1020.14 1141.63,926.621 1180.27,897.588 1233.58,854.718 1183.38,886.616 1198.88,867.365 1182.6,876.791 1121.04,917.47 1147.41,907.28 1147.16,907.724 1142.17,916.858 1260.92,846.954 1264.99,841.915 1371.89,759.548 1400.69,725.78 1407.13,700.182 1381.88,715.704 1481.67,633.372 1398.43,694.071 1338.85,751.494 1210.91,843.21 1166.39,884.159 1191.12,879.41 1234.83,853.959 1232.93,846.827 1159.18,893.135 1075.08,960.401 1101.76,952.695 1068.6,974.882 1099.24,953.298 1123.6,943.731 1238.36,861.507 1263.8,832.219 1280.8,814.472 1298.75,796.447 1293.59,805.282 1240.82,844.096 1216.97,868.299 1322.53,784.989 1295.73,795.523 1294.27,793.581 1315.56,778.15 1177.31,870.616 1078.21,944.879 1060.39,968.108 999.29,1007.64 1009.21,1007.89 1060.47,989.111 1186.59,908.208 1072.82,963.459 1030.28,987.616 1084.27,960.889 1107.95,944.955 1090.49,951.519 1190.35,896.304 1310.59,815.64 1254.93,838.764 1250.73,838.594 1291.99,803.232 1196.97,866.397 1134.22,908.041 1113.19,929.388 1157.83,908.223 1319.54,810.328 1249.95,846.325 1177.6,888.134 1153.16,900.179 1086.55,954.608 1049.84,978.922 1056.9,979.928 1032.03,994.097 1085.59,969.638 1119.67,940.707 1067.28,964.844 1193.62,894.216 1187.85,878.346 1137.63,909.583 1128.1,922.191 1207.21,881.542 1293.43,813.702 1232.02,849.326 1230.04,848.63 1289.64,814.279 1244.44,839.87 1268.52,814.661 1304.9,792.592 1341.88,766.237 1381.73,727.854 1374,725.916 1406.29,719.387 1332.4,761.332 1353.03,743.103 1314.79,764.52 1260.84,813.633 1248.27,826.845 1280.62,817.012 1391.98,739.318 1342.71,750.642 1258.31,801.439 1249.2,810.113 1248.21,815.896 1303.23,795.863 1264,836.449 1249.31,849.325 1412.91,726.674 1591.25,596.362 1555.3,589.393 1504.54,610.283 1568.86,566.906 1520.57,597.396 1585.85,555.565 1581.5,550.643 1602,531.816 1435.94,655.551 1441.45,665.921 1300.69,762.977 1355.97,750.178 1388.64,730.294 1330.04,764.411 1356.02,753.259 1337.54,763.935 1183.88,869.423 1142.27,902.314 1086.63,947.363 1103.33,944.185 1066.03,969.025 1072.45,967.969 1066.89,974.387 1095.71,959.713 1081.11,964.503 1088.93,960.943 1108.89,953.349 1120.27,940.671 1117.71,938.469 1236.81,846.468 1239.23,842.691 1244.23,837.054 1344.73,791.596 1328.14,790.323 1319.18,786.608 1362.12,756.042 1425.95,706.654 1415.67,701.262 1441.29,689.485 1368.33,727.737 1436.65,676.272 1490.72,647.533 1482.38,638.534 1545.18,566.816 1519.27,589.606 1449.06,653.279 1400.98,700.553 1314.39,763.11 1265.74,809.275 1216.1,852.292 1220.6,853.798 1162.7,898.645 1101.97,935.592 1085.36,952.117 1067.97,968.481 1094.41,959.434 1118.75,945.511 1095.18,960.79 1097.54,957.111 1094.75,956.283 1059.6,973.254 1033.2,984.588 1107.08,942.64 974.063,1028.76 944.403,1053.32 893.842,1080.29 895.143,1079.39 937.269,1055.1 976.973,1032.49 944.925,1058.46 959.279,1050.04 1115.9,958.247 1168.81,910.669 1333.07,806.148 1367.59,758.788 1327.26,774.243 1261.29,816.254 1319.15,779.694 1231.16,843.86 1252.79,833.569 1097.62,932.265 1105.2,940.206 1101.03,948.448 1087.4,957.925 1018.49,1000.06 1123.58,946.271 1146.75,932.792 1153.27,920.582 1133.69,930.029 1103.17,941.115 1107.25,941.832 1199.69,888.954 1199.32,876.243 1269.27,839.354 1382.47,759.568 1412.2,717.719 1475.31,671.233 1513.86,625.312 1494.05,627.766 1445.18,662.421 1453.84,658.092 1436.59,681.609 1365.45,725.419 1321.18,763.065 1310.03,772.886 1256.21,816.747 1145.94,892.413 1157.4,895.974 1145.49,907.569 1160.02,905.616 1144.23,918.572 1105.78,956.41 1171.91,919.385 1218.95,885.253 1269.3,844.223 1249.69,847.204 1275.53,821.867 1150.87,900.304 1161.25,903.65 1169.36,901.417 1159.71,899.472 1138.75,920.118 1134.78,925.647 1133.47,930.839 1181.42,884.374 1214.38,859.474 1219.22,860.661 1193.01,871.312 1284.95,804.8 1364.54,753.23 1277.4,810.38 1363.69,736.234 1299.52,778.553 1326.51,760.733 1308.22,790.584 1360.89,753.881 1369.55,747.406 1359.7,753.462 1328.78,773.987 1373.11,726.682 1311.75,770.57 1297.45,801.008 1223.55,851.336 1125.86,919.812 1142.47,915.217 1178.99,905.339 1183.21,897.98 1228.82,862.961 1253.15,840.829 1211.82,874.219 1237.29,840.702 1251.47,828.779 1284.23,800.402 1303.72,796.643 1202.97,863.298 1154.08,905.349 1017.26,991.412 1026.19,997.802 1027.1,999.044 1017.58,1005.94 1006.42,1015.8 1001.08,1019.13 1007.01,1011.29 982.418,1023.43 1101.4,941.593 1046.16,986.589 1088.18,960.847 1044.51,983.442 1042.7,995.396 1079.39,969.442 994.46,1022.12 1103.33,961.919 1172.61,902.79 1200.95,869.432 1174.93,891.668 1170.74,890.161 1132.05,927.428 1127.17,924.93 1186.73,893.731 1186.88,882.727 1191.77,876.755 1181.27,880.605 1041.13,975.898 1018.91,999.05 1079.9,973.094 1021.26,1008.35 1077.91,975.208 1106.57,951.906 1114.15,948.338 1202.52,891.753 1156.69,915.614 1218.27,863.35 1181.68,874.472 1061.45,962.649 970.87,1021.83 982.774,1024.56 987.604,1027.45 938.427,1049.68 1002.88,1023.74 1068.08,983.706 1150.99,928.631 1168.21,908.068 1224.56,867.039 1244.92,852.076 1249.85,842.002 1067.12,966.246 1015.23,1003.99 1022.88,997.627 1144.6,920.829 1078.15,966.228 1194.25,896.649 1112.12,938.239 1074.15,957.108 1078.9,959.616 1075.62,975.036 1062.49,972.993 1020.89,1004.15 1038.89,1001.18 1016.52,1009.68 1040.21,991.503 985.198,1029.66 890.546,1086.19 898.533,1088.32 872.188,1106.46 931.619,1072.72 925.76,1075.91 909.951,1081.64 991.967,1037.75 895.388,1083.3 814.865,1128.54 873.439,1103.4 878.247,1101.14 917.113,1081.42 964.656,1050.08 928.184,1068.73 1052.49,999.942 1096.68,972.032 1110.03,957.34 1138.39,935.135 1220.3,884.303 1209.72,874.274 1225.8,859.523 1198.99,878.783 1179.93,886.666 1142.69,912.2 1121.18,934.205 1084.43,950.949 1117.9,934.02 1220.6,862.656 1181.77,895.957 1231.15,866.115 1261.34,826.042 1214.61,856.823 1170.5,896.081 1190.12,881.022 1149.75,908.095 1113.27,936.002 1057.58,976.379 985.011,1017.34 968.639,1034.3 1036.49,1001.32 1023.08,1012.51 1023.33,1010.9 1030.49,1003.99 975.74,1034.75 960.223,1046.35 1043.3,1001.53 1119.08,946.771 1115.97,943.927 1106.8,939.234 1089.05,951.904 1123.94,940.665 1169.2,900.512 1169.29,901.408 1278.43,836.461 1196.6,880.908 1091.88,951.663 1096.47,950.864 1051.64,968.659 1069.71,974.608 1114.15,944.907 1147.94,913.283 1198.68,874.271 1324.71,781.741 1232.31,833.193 1294.37,796.951 1470.2,666.089 1499.05,631.372 1426.36,673.919 1409.8,690.178 1384.91,717.763 1483.1,657.438 1440.97,672.543 1414.1,689.64 1402.61,707.845 1388.39,720.554 1350.45,757.839 1294.62,793.697 1321.75,786.36 1313.48,784.577 1196.75,860.877 1159.4,896.817 1150.16,905.879 1160.02,899.982 1163.49,903.948 1137.4,920.616 1130.95,925.443 1141.82,921.05 1166.61,902.866 1153,913.408 1111.17,934.664 1145.83,921.934 1257.78,835.276 1233.89,851.648 1239.38,843.503 1188.7,880.545 1148.46,913.324 1171.06,908.931 1200.71,879.262 1436.95,732.433 1453.22,691.224 1433.19,688.266 1420.96,699.293 1461.23,660.841 1544.37,605.008 1512.76,611.546 1485.27,630.625 1434.27,673.83 1459.86,656.606 1457.83,662.141 1457.73,672.764 1487.65,650.152 1569.64,588.695 1559.09,583.488 1565.52,575.551 1602.67,542.707 1429.95,669.79 1418.82,684.871 1341.69,747.616 1316.43,768.062 1361.15,745.681 1381.4,730.479 1416.18,698.449 1338.16,764.382 1381.31,732.535 1418.46,708.034 1436.45,679.94 1572.51,583.227 1559,581.675 1445.88,656.192 1416.48,671.288 1351,726.867 1388.7,719.935 1398.03,718.547 1426.15,687.142 1353.67,737.192 1346.99,755.648 1382.58,741.814 1430.13,707.635 1273.07,810.749 1253.67,836.578 1264.18,826.953 1258.84,832.326 1127.3,919.699 1109.28,937.067 1035.28,987.637 1085.13,962.934 1026.89,990.854 1001.4,1010.92 990.779,1022.65 919.325,1064.55 890.294,1084.13 875.767,1094.84 913.581,1078.78 915.446,1077.94 948.359,1059.55 990.378,1038.21 979.095,1040.74 968.606,1041.76 1043.32,999.53 1089.29,968.614 1178.67,900.788 1193.64,890.291 1199.2,881.897 1281.7,827.707 1262,825.959 1277.87,803.264 1347.31,747.016 1285.78,791.391 1300.82,775.578 1282.14,783.245 1375.05,726.492 1310.34,790.55 1225.78,855.614 1077.82,948.737 1108.47,940.958 1097.66,942.599 1018.81,997.681 1023.16,998.445 997.42,1017.48 1010.9,1011.26 970.628,1036.13 932.252,1063.05 984.645,1038.47 986.937,1035.62 1045.74,1002.48 1049.1,990.423 1031.04,1001 1145.85,935.999 1193.33,898.762 1177.87,893.143 1144.51,909.449 1104.13,943.109 1090.24,943.011 1038.74,983.628 1102.96,951.646 1101.1,943.582 1076.04,962.438 1018.89,996.21 1058.33,982.189 1057.67,978.982 1140.63,931.962 1145.32,924.777 1134.73,922.183 1086.51,951.858 1098.35,947.127 1110.5,951.222 1054.74,985.316 1065.73,993.651 1075.87,980.44 1108.69,946.562 1161.2,914.178 1200.74,889.851 1326.13,802.323 1372.36,756.877 1343.74,767.36 1308.26,774.349 1361.11,745.704 1464.17,665.077 1304.78,788.079 1290.71,802.154 1256.64,841.729 1205.22,869.635 1313.06,806.382 1191,874.101 1250.74,826.091 1248.2,833.005 1207.88,880.917 1191.84,883.953 1187.58,887.369 1182.37,897.49 1261.23,829.721 1291.59,803.029 1281.8,812.745 1180.78,892.707 1136.55,921.037 1167.18,908.931 1214.84,881.723 1330.37,797.348 1305.46,803.834 1374.92,750.104 1330.88,771.043 1273.34,800.638 1276.77,801.358 1329.34,772.079 1410.77,710.887 1460.19,636.035 1427.81,666.571 1526.02,613.895 1477.02,645.485 1509.65,627.289 1554.22,590.321 1552.16,575.763 1643.36,495.011 1588.57,530.761 1530.5,572.074 1429.37,656.066 1474.04,642.79 1454.14,661.515 1423.62,689.481 1430.27,686.379 1431.22,688.156 1455.01,673.761 1418.71,699.221 1367.57,730.57 1340.64,759.001 1303.15,781.248 1294.45,788.288 1236.77,837.466 1168.61,885.527 1088.9,947.356 1121.5,935.172 1044.16,980.997 994.192,1014.26 1023.29,1005.15 968.242,1035.49 996.83,1021.91 961.476,1042.72 915.464,1074.49 834.369,1115.72 892.481,1094.9 935.253,1073.96 967.829,1048.59 1024.12,1013.83 1094.36,967.376 1085.9,962.486 1036.47,991.739 1036.64,991.3 997.52,1014.29 1019.13,1007.98 1101.85,959.243 1129.74,932.918 1157.06,910.206 1115.6,938.451 1044.99,981.822 1026.02,996.522 1108.28,944.24 1078.34,959.235 1079.73,958.123 1112.24,928.204 1027.23,990.434 1124.48,942.311 1284.15,832.66 1276.99,818.353 1313.28,785.875 1274.03,807.53 1219.02,854.758 1273.48,829.741 1236.94,844.747 1268.23,819.567 1330.22,766.351 1448.97,683.033 1424.34,678.572 1492.71,637.743 1473.27,637.445 1453.65,637.607 1432.47,668.892 1376.87,706.852 1292.04,782.184 1250.38,823.25 1217.35,853.564 1242.29,844.406 1156.24,897.674 1123.03,925.069 1127.57,925.215 1183.94,898.488 1186.93,897.552 1154.33,907.95 1147.93,913.006 1097.84,941.794 1166.78,904.875 1241.22,844.278 1269.66,825.955 1282.54,813.565 1237.1,830.398 1267.82,823.269 1234.42,854.414 1292.01,805.958 1167.43,897.747 1120.81,920.396 1148.07,912.077 1149.87,916.138 1161.94,907.532 1291.5,808.087 1313.98,798.309 1345.54,754.012 1367.64,744.66 1385.38,735.144 1349.08,753.216 1460.51,676.729 1462.16,660.756 1442.15,668.124 1529.94,584.085 1516.22,602.364 1561,574.926 1340.99,737.129 1298.12,777.398 1253.98,819.795 1180.94,876.129 1256.08,841.996 1248.23,848.564 1315.73,803.269 1309.65,798.571 1233.18,843.175 1303.23,803.936 1271.48,826.884 1229.4,854.713 1168.62,887.02 1110.62,938.497 1085.84,954.718 1026.43,991.442 960.146,1036.91 946.713,1052.05 998.317,1028.41 1043.6,1001.27 1085.61,970.879 1079.44,970.827 1090.29,963.143 1088.12,960.146 1108.69,952.474 1097.64,954.694 1056.29,974.104 1009.51,1002.51 1060.42,983.246 1030.32,997.474 1012.52,1009.45 1079.17,960.87 1039.99,984.987 1010.12,1003.17 1038.86,988.208 1137.36,922.021 1163.81,901.679 1091.27,940.337 1125.85,920.799 1232.03,848.843 1203.29,883.621 1131.96,928.988 1173.39,878.799 1189.02,877.898 1168.98,897.604 1154.76,898.942 1181.22,895.001 1140.11,914.309 1138.31,917.667 1183.36,900.01 1172.75,916.66 1186,928.295 1217.32,886.269 1244.99,860.742 1286.63,824.21 1336.35,776.243 1341.27,766.199 1362.81,750.743 1357.99,763.323 1453.11,683.666 1342.48,746.214 1281.99,799.351 1305.51,790.261 1334.02,775.901 1276.86,816.347 1322.94,792.7 1337.88,768.16 1314.23,780.119 1424.4,712.808 1433.08,693.722 1421.22,694.975 1395.89,711.696 1405.35,700.165 1373.48,721.093 1350.14,739.834 1446.41,672.645 1513.56,617.699 1441.98,670.024 1494.39,640.489 1402.27,706.475 1343.57,758.256 1354.58,747.392 1323.26,773.881 1280.31,802.372 1301.57,792.375 1351.6,755.571 1436.93,687.853 1467.01,650.077 1419.18,691.351 1482.83,649.674 1384.19,722.637 1276.44,796.206 1196.57,862.611 1116.66,919.958 1136,919.494 1068.1,962.931 1110.74,944.675 1173.42,911.962 1196.09,896.648 1226.99,873.45 1207.7,872.349 1248.13,849.281 1350.89,769.845 1443.02,701.578 1497.45,652.531 1554.03,586.105 1635.13,508.72 1632.29,498.135 1674.48,461.333 1727.23,408.146 1694.88,417.782 1587.86,501.925 1545.84,554.395 1502.92,597.152 1480.35,625.812 1435.28,664.59 1374.9,712.662 1345.25,739.258 1235.49,815.188 1260.48,813.885 1293.93,802.249 1242.43,833.698 1226.33,848.764 1185.84,870.826 1246.2,844.449 1229.55,851.533 1210.47,867.715 1205.81,875.086 1240.43,854.851 1198.23,867.792 1237.51,852.909 1136.95,914.423 1121.18,934.911 1133.07,928.761 1183.86,897.84 1263.06,847.745 1275.93,829.071 1218.57,859.854 1262.4,833.855 1299.29,805.079 1233.91,852.097 1303.2,808.736 1270.27,818.537 1329.83,766.987 1373.87,731.224 1335.09,761.552 1393.16,714.352 1390.67,712.81 1364.16,710.154 1436.77,668.565 1364.85,715.959 1444.48,680.468 1359.14,749.817 1314.42,795.44 1294.33,801.625 1150.56,906.919 1202.28,878.847 1162.91,899.426 1089.64,946.398 1153.25,918.558 1214.72,878.462 1238.18,851.969 1252.5,835.225 1216.81,860.187 1191.86,869.818 1243.23,842.565 1220.65,866.257 1149.7,902.891 1101.8,936.795 1092.76,947.995 1122.37,936.132 1080.57,960.664 1012.19,1004.48 1080.63,962.609 1042.02,990.995 1049.53,991.233 1012.53,1010.53 1033.86,998.758 1079.06,968.14 1147.09,906.792 1198.66,883.092 1118.93,934.753 1089.29,956.599 1074.43,974.159 1039.7,991.545 1011.1,1008.09 1057.73,984.828 942.231,1068.15 985.662,1041.15 1045.93,997.616 1006.68,1018.29 1105.39,963.72 1103.69,953.484 1132.29,937.179 1239.28,860.139 1325.53,791.723 1301.81,795.765 1346.72,757.868 1286.78,794.257 1255.99,813.063 1257.1,831.097 1252.83,841.477 1346.72,767.413 1349.56,759.83 1362.51,744.441 1413.49,701.458 1434.03,690.047 1415.71,708.608 1306.64,785.384 1280.36,815.039 1187.2,866.972 1159.12,895.105 1174.78,891.521 1136.64,912.005 1140.97,921.819 1166.9,903.93 1157.62,911.309 1138.22,915.913 1076.21,954.383 1114.55,944.138 1159.9,917.238 1171.24,903.325 1093.41,952.681 949.261,1053.43 959.796,1050.68 1052.83,994.35 1077.26,975.335 1030.68,1000.49 976.634,1031.92 973.188,1041.66 1014.72,1016.25 1025.6,1012.61 1087.25,967.278 1130.26,935.751 1177.61,892.264 1278.5,822.341 1291.39,804.055 1281.72,813.219 1365.95,744.23 1355.92,748.931 1242.19,818.277 1228.36,837.809 1197,855.745 1253.96,831.027 1332.43,779.918 1254.63,829.309 1334.42,784.766 1392.12,718.03 1367.2,727.883 1282.34,787.592 1253.72,815.249 1222.68,842.517 1183.76,873.788 1231.63,850.411 1205.53,860.164 1199.35,872.52 1214.45,869 1225.66,859.991 1261.21,839.002 1227.35,853.733 1186.77,874.202 1197.99,871.902 1223.13,855.38 1176.02,882.017 1137.19,915.048 1148.46,914.99 1090.64,949.392 1107.44,947.38 1173.45,909.883 1209.14,882.457 1126.67,929.668 1080.51,957.848 1069.68,961.92 1057.59,976.794 989.53,1015.54 1039.33,994.092 1006.91,1014.77 910.701,1071.83 955.851,1054.35 968.432,1038.78 973.23,1032.6 1030.54,995.227 1133.04,932.727 1189.24,890.988 1254.65,842.709 1200.46,873.765 1144.03,917.969 1118.07,931.582 1207.9,866.726 1293.93,818.03 1282.73,817.955 1438.87,706.415 1455.81,659.677 1438.85,680.91 1578.81,581.833 1550.56,590.082 1432.63,667.242 1293.68,773.556 1295.4,788.502 1343.77,765.112 1285.77,804.832 1328.67,773.348 1225.73,836.611 1199.02,867.165 1141.96,906.396 1058.98,960.107 1098.31,947.415 1082.26,961.209 1049.41,983.817 1049.47,985.164 1026.03,997.686 1098.41,960.527 1205.49,895.003 1145.47,910.31 1156.79,897.394 1133.8,920.163 1119.43,934.585 1043.18,988.736 1029.23,996.265 1058.93,981.235 1065.73,975.023 1039.35,989.582 1007.46,1015.39 1031.34,995.603 1086.88,970.315 1063.84,975.746 1161.38,918.457 1158.37,902.733 1216.37,858.574 1298.6,798.195 1279.07,802.415 1294.87,799.079 1295.77,799.963 1246.88,835.693 1246.84,851.539 1261.99,830.572 1337.51,772.705 1282.85,806.715 1456.8,683.073 1406.08,708.212 1457.35,636.431 1425.66,679.13 1393.31,703.478 1318.17,768.849 1325.69,775.716 1239.52,839.646 1115.17,924.629 1176.92,898.818 1157.02,910.921 1249.73,854.432 1215.44,877.542 1091.85,957.97 1091.19,963.384 1081.03,968.525 1153.59,915.991 1162.04,907.16 1131.93,929.759 1164.57,897.822 1099.7,939.334 1093.89,947.384 1071.43,961.125 1091.43,959.057 1100.78,939.007 1105.03,951.746 1125.77,936.433 1223.76,872.283 1180.87,907.439 1269.13,834.566 1360.3,765.831 1309.51,791.074 1315.73,790.155 1303.23,784.153 1300.64,797.474 1224.27,843.899 1274.97,818.667 1230.58,852.382 1126.91,927.328 1086.54,965.454 1130.85,943.498 1140.06,920.104 1078.98,959.033 1088.61,954.827 1090.99,961.016 1047.6,982.577 1032.62,993.648 1066.92,973.052 1149.15,924.371 1184.8,884.179 1140.75,915.547 1153.76,924.509 1090.6,957.031 1176.12,898.391 1196.71,880.378 1162.12,888.997 1138.93,919.624 1137.51,923.098 1099.34,944.551 1148.67,911.287 1133.69,925.543 1111.93,948.908 1057.34,985.462 1069.32,975.22 1114.93,951.701 1178.91,914.932 1196.47,892.958 1144.36,918.359 1090.42,961.627 1132.34,936.911 1126.4,942.363 1083.61,973.799 1141.95,930.959 1137.46,934.522 1179.39,903.338 1107.54,947.079 1115.16,937.241 1123.32,924.581 1116.47,933.239 1149.71,912.723 1148.7,922.193 1106.25,963.795 1134.06,942.285 1097.66,949.055 1157.66,899.501 1249.49,833.054 1230.11,857.333 1212.24,872.679 1324.4,784.141 1239.11,848.621 1346.23,778.279 1359.35,766.506 1313.65,790.039 1332.32,760.783 1315.73,787.904 1296.78,785.649 1477.14,657.684 1361.51,747.495 1281.02,813.118 1235.67,845.65 1330.47,780.647 1230.58,843.005 1240.17,819.788 1329.35,761.591 1463.5,666.995 1519.6,592.09 1524.8,572.269 1489.08,606.835 1451.87,644.57 1450.94,654.207 1475.03,646.362 1487.43,626.301 1583.38,559.947 1472.6,638.544 1447.33,655.26 1422.91,690.633 1464.9,666.224 1417.71,694.878 1428.79,688.494 1426.1,683.045 1533.82,601.813 1525.11,597.748 1498.01,616.019 1437.02,656.826 1418.16,687.158 1412.32,700.52 1330.5,757.563 1358.04,752.289 1321.08,775.933 1237.15,834.089 1171.71,888.012 1202.83,878.695 1155.36,902.558 1189.3,889.779 1217.07,872.888 1172.06,898.384 1194.81,888.325 1256.81,839.119 1143.73,905.901 1334.16,798.297 1392.63,750.259 1362.81,752.996 1268.33,812.909 1257.8,822.243 1283.08,809.966 1310.32,802.106 1311.15,791.705 1298.47,794.352 1238.33,850.224 1315.34,803.438 1311.46,798.983 1379.13,748.01 1258.14,824.537 1324.8,788.421 1313.96,799.728 1227.45,851.295 1248.71,837.381 1129.1,934.645 1158.9,916.454 1230.57,871.12 1311.1,815.44 1258.23,833.348 1311.78,797.206 1285.3,806.333 1369.63,751.29 1403.05,722.291 1342.2,750.729 1312.17,775.734 1333.06,772.931 1215.7,853.476 1279.28,819.904 1386.62,732.374 1396.54,717.678 1380.2,721.837 1462.11,655.353 1527.1,615.896 1598.06,523.398 1506.28,592.769 1535.52,595.681 1529.43,601.373 1585,558.504 1392.84,702.296 1351.27,735.715 1399,711.835 1399.92,716.746 1440.05,694.983 1529.27,615.364 1501.3,625.288 1442.06,663.695 1323.36,746.999 1272.05,800.5 1234.07,837.719 1263,826.869 1260.77,828.311 1229.93,850.163 1180.57,883.888 1184.24,891.379 1199.53,880.803 1119.88,925.949 1039.46,985.185 1026.24,997.292 986.343,1022.06 1068.85,978.178 1000.21,1016.05 899.098,1071.47 842.517,1111.41 859.191,1109.68 877.18,1099.83 883.664,1099.95 903.587,1088.89 899.389,1094.79 909.139,1081.03 939.96,1060.92 938.132,1061.95 941.53,1058.89 1003.93,1031.11 1006.75,1020.02 1002.87,1017.93 1008.92,1018.38 1061.5,984.249 1079.91,972.547 1137.92,923.96 1175.96,904.713 1212.59,877.629 1216.95,872.708 1174.27,887.569 1324.4,799.366 1303.41,808.584 1497.1,675.554 1513.68,622.23 1516.29,611.511 1429.74,672.945 1447.25,660.517 1440.93,670.913 1421.94,681.87 1468.71,653.281 1462.39,656.792 1462.07,660.972 1488.96,633.587 1490.62,628.166 1476.55,638.793 1356.22,728.397 1425.67,698.877 1345.99,749.368 1350.43,755.785 1468.65,675.377 1474.78,663.701 1515.54,632.713 1541.42,587.957 1453.14,660.69 1429.96,671.552 1317.07,762.32 1246.78,818.063 1266.55,816.228 1221.47,848.207 1264.88,833.033 1166.34,891.871 1123.15,925.303 1129.76,923.965 1120.74,930.777 1069.42,964.997 1050.8,980.2 1047.26,982.156 1041.5,992.028 1106.76,952.746 1087.77,962.679 1089.24,969.342 1052.99,981.542 1066.79,977.402 1159.03,914.381 1233.36,859.904 1181.05,888.888 1084.01,959.628 1059.64,974.07 1100.58,949.848 1105.23,945.569 1067.56,981.24 1152.52,927.33 1114.39,944.402 1180.81,893.042 1072.92,967.802 1063.99,973.954 1078.49,976.091 1146.94,919.63 1015.84,993.78 890.593,1071.09 813.915,1118.27 786.527,1140.87 718.853,1178.01 754.722,1168.59 786.556,1155.24 793.86,1152.52 799.167,1150.06 803.633,1144.82 796.573,1147.72 831.733,1131.56 894.31,1096.04 933.172,1067.95 988.289,1035.65 990.139,1030.35 1011.88,1015.67 1062.04,982.263 1096.93,961.505 1047.79,986.104 1039.78,991.135 1081.19,967.897 1120.97,948.649 1116.18,942.101 1067.02,972.024 1037.91,988.602 909.566,1069.13 944.701,1058.78 965.693,1053.79 1050.79,1000.04 1071.14,980.685 1131.77,937.561 1087.59,958.11 1098.19,954.004 1110.16,947.437 1111.75,946.876 1147.83,922.249 1204.89,881.535 1273.79,832.437 1172.4,893.696 1098.23,941.902 1109.59,935.457 1116.87,914.907 1200.83,871.829 1269.31,809.606 1287.12,799.524 1266.72,813.051 1291.62,803.28 1282.09,800.905 1412.2,695.316 1411.76,703.052 1384.56,718.127 1343.29,742.674 1236.13,826.779 1206.69,859.617 1176.15,884.619 1155.24,903.197 1081.28,958.115 1040.12,994.773 1144.65,936.06 1113.71,938.964 1177.56,903.943 1193.07,879.029 1156.53,903.26 1148.65,909.868 1343.44,790.153 1360.4,760.92 1323.91,776.881 1394.6,736.018 1331.04,769.857 1329.36,772.766 1288.28,803.641 1277.61,811.611 1318.72,784.132 1287.38,803.642 1333.3,775.323 1357.11,747.854 1422.73,702.498 1380.81,735.988 1311.94,789.589 1316.54,787.107 1222.47,847.224 1250.97,835.759 1237.57,850.252 1196.95,865.628 1357.76,745.742 1423.19,704.466 1371.59,719.089 1412.97,696.109 1325.3,757.429 1335.5,762.437 1246.09,827.043 1313.87,787.721 1214.2,852.454 1191.03,877.819 1111.65,927.879 1102.24,938.688 1083.06,956.49 1087.7,957.468 1149.41,922.058 1201.44,886.279 1214.32,874.374 1236.86,843.729 1285.43,812.311 1275.12,826.385 1203.97,868.037 1258.56,834.435 1290.76,798.47 1280.5,801.403 1249.22,833.2 1177.79,876.014 1130.49,916.054 1110.2,932.873 1120.7,933.777 1132.6,931.876 1208.35,884.734 1236.17,867.313 1167.88,902.852 1210.68,877.863 1149.66,922.561 1102.85,949.366 1115.03,949.214 1166.36,918.605 1079.78,972.059 1140.71,937.597 1235.72,862.929 1184.99,885.718 1123.3,929.163 1015.8,1006.81 1017.23,1013.93 1096.24,968.984 1097.76,958.516 1125.91,936.731 1063.53,967.911 1072.92,968.862 1160.68,899.928 1144.64,905.238 1189.81,882.119 1297.97,812.669 1253.98,837.528 1193.2,884.109 1315.03,796.704 1263.44,825.611 1381.82,750.451 1249.1,847.859 1171.63,896.893 1166.73,899.645 1179.8,899.178 1226.39,867.623 1273.81,840.478 1260.53,829.389 1251.48,837.14 1178.21,896.012 1143.9,924.362 1122.85,937.444 1152.7,923.431 1225.16,878.704 1335.6,785.428 1389.5,742.03 1381.45,733.969 1423.28,700.261 1424.56,698.568 1419.61,677.759 1337.21,747.87 1416.93,694.627 1418.33,698.659 1459.48,669.025 1449.47,668.319 1534.84,614.005 1411.58,703.827 1401.69,696.73 1307,772.34 1369.44,741.171 1308.25,775.828 1250.1,818.295 1245.93,834.307 1208.6,861.459 1262.34,833.229 1151.28,906.979 1121.43,932.38 1053.84,970.548 942.011,1040.87 996.777,1020.34 1007.95,1016.33 1014.02,1011.91 989.289,1024.43 1020.75,1014.11 1082.27,971.4 1025.42,998.388 1046.6,991.824 1086.61,960.549 1146.35,922.995 1136.32,924.388 1186.65,885.349 1265.69,829.829 1277.17,818.396 1087.41,946.712 1152.58,907.476 1207.01,871.845 1209.16,868.288 1176.33,903.771 1164.18,907.739 1201.39,872.504 1276.92,827.99 1295.54,817.678 1234.36,858.618 1149.49,927.26 1164.09,927.465 1159.42,918.884 1144.56,917.015 1085.84,958.916 1136.17,922.614 1062.01,964.189 1098.16,952.001 1225.82,865.192 1236.17,843.515 1195.85,863.171 1216.49,835.682 1144.44,896.105 1268.44,828.235 1363.57,759.915 1331.49,767.098 1409.02,724.684 1496.42,650.618 1559.4,586.049 1509.86,617.673 1493.41,634.28 1415.74,692.141 1398.17,716.419 1382.17,728.294 1357.88,744.769 1361.07,753.774 1284.6,805.237 1419,727.916 1369.17,746.896 1246.77,826.123 1302.7,811.098 1261.42,826.004 1319.49,780.624 1299.76,790.404 1311.93,775.78 1342.69,744.154 1336.07,762.923 1452.28,671.914 1425.29,688.423 1304.66,771.539 1440.7,694.92 1423.42,703.907 1360.25,753.521 1322.42,783.5 1169.04,883.469 1194.89,870.668 1239.21,845.006 1147.8,910.829 1139.74,914.312 1088.46,947.994 1030.6,989.874 1088.52,960.443 1073.7,968.432 974.611,1027.99 984.631,1027.77 998.229,1023.99 959.546,1047.87 979.494,1031.64 972.143,1033.46 938.394,1055.64 955.982,1051.81 990.132,1035.12 1010.5,1020.32 1007.56,1019.08 1021.98,1000.86 1017.94,1008.54 1028.44,1001.98 1092.18,966.843 1022.01,1001.17 1089.2,963.116 1111.89,949.089 1112.51,950.491 1173.5,915.445 1042.26,998.955 980.096,1037.85 895.027,1081.67 977.305,1044.49 916.772,1076.61 898.623,1084.12 "/>
<path clip-path="url(#clip920)" d="M228.998 198.898 L588.673 198.898 L588.673 95.2176 L228.998 95.2176  Z" fill="#ffffff" fill-rule="evenodd" fill-opacity="1"/>
<polyline clip-path="url(#clip920)" style="stroke:#000000; stroke-linecap:round; stroke-linejoin:round; stroke-width:4; stroke-opacity:1; fill:none" points="228.998,198.898 588.673,198.898 588.673,95.2176 228.998,95.2176 228.998,198.898 "/>
<polyline clip-path="url(#clip920)" style="stroke:#009af9; stroke-linecap:round; stroke-linejoin:round; stroke-width:4; stroke-opacity:1; fill:none" points="253.409,147.058 399.875,147.058 "/>
<path clip-path="url(#clip920)" d="M434.911 128.366 Q431.809 133.69 430.305 138.898 Q428.8 144.106 428.8 149.453 Q428.8 154.801 430.305 160.055 Q431.832 165.287 434.911 170.588 L431.207 170.588 Q427.735 165.148 425.999 159.893 Q424.286 154.639 424.286 149.453 Q424.286 144.291 425.999 139.06 Q427.712 133.828 431.207 128.366 L434.911 128.366 Z" fill="#000000" fill-rule="nonzero" fill-opacity="1" /><path clip-path="url(#clip920)" d="M464.726 138.412 L455.351 151.027 L465.212 164.338 L460.189 164.338 L452.642 154.152 L445.096 164.338 L440.073 164.338 L450.142 150.773 L440.929 138.412 L445.953 138.412 L452.828 147.648 L459.703 138.412 L464.726 138.412 Z" fill="#000000" fill-rule="nonzero" fill-opacity="1" /><path clip-path="url(#clip920)" d="M472.318 158.458 L477.202 158.458 L477.202 162.439 L473.406 169.847 L470.42 169.847 L472.318 162.439 L472.318 158.458 Z" fill="#000000" fill-rule="nonzero" fill-opacity="1" /><path clip-path="url(#clip920)" d="M497.087 166.745 Q495.281 171.375 493.568 172.787 Q491.855 174.199 488.985 174.199 L485.582 174.199 L485.582 170.634 L488.082 170.634 Q489.841 170.634 490.813 169.8 Q491.786 168.967 492.966 165.865 L493.73 163.921 L483.244 138.412 L487.758 138.412 L495.86 158.689 L503.962 138.412 L508.475 138.412 L497.087 166.745 Z" fill="#000000" fill-rule="nonzero" fill-opacity="1" /><path clip-path="url(#clip920)" d="M515.443 158.458 L520.327 158.458 L520.327 162.439 L516.531 169.847 L513.545 169.847 L515.443 162.439 L515.443 158.458 Z" fill="#000000" fill-rule="nonzero" fill-opacity="1" /><path clip-path="url(#clip920)" d="M527.573 138.412 L547.804 138.412 L547.804 142.301 L531.785 160.935 L547.804 160.935 L547.804 164.338 L526.994 164.338 L526.994 160.449 L543.012 141.815 L527.573 141.815 L527.573 138.412 Z" fill="#000000" fill-rule="nonzero" fill-opacity="1" /><path clip-path="url(#clip920)" d="M553.637 128.366 L557.341 128.366 Q560.813 133.828 562.526 139.06 Q564.262 144.291 564.262 149.453 Q564.262 154.639 562.526 159.893 Q560.813 165.148 557.341 170.588 L553.637 170.588 Q556.716 165.287 558.22 160.055 Q559.748 154.801 559.748 149.453 Q559.748 144.106 558.22 138.898 Q556.716 133.69 553.637 128.366 Z" fill="#000000" fill-rule="nonzero" fill-opacity="1" /></svg>
