<?xml version="1.0" encoding="utf-8"?>
<svg xmlns="http://www.w3.org/2000/svg" xmlns:xlink="http://www.w3.org/1999/xlink" width="600" height="400" viewBox="0 0 2400 1600">
<defs>
  <clipPath id="clip450">
    <rect x="0" y="0" width="2400" height="1600"/>
  </clipPath>
</defs>
<path clip-path="url(#clip450)" d="M0 1600 L2400 1600 L2400 0 L0 0  Z" fill="#ffffff" fill-rule="evenodd" fill-opacity="1"/>
<defs>
  <clipPath id="clip451">
    <rect x="138" y="47" width="2215" height="1440"/>
  </clipPath>
</defs>
<path clip-path="url(#clip451)" d="M-469.697 2458.83 L-469.697 2208.77 L-208.991 2083.74 L242.566 2155.92 L242.566 2405.98 L-18.1405 2531.01 L-469.697 2458.83  Z" fill="#ffffff" fill-rule="evenodd" fill-opacity="1"/>
<polyline clip-path="url(#clip451)" style="stroke:#000000; stroke-linecap:round; stroke-linejoin:round; stroke-width:2; stroke-opacity:0.1; fill:none" points="709.131,1211.57 1124.59,851.774 1124.59,132.172 "/>
<polyline clip-path="url(#clip451)" style="stroke:#000000; stroke-linecap:round; stroke-linejoin:round; stroke-width:2; stroke-opacity:0.1; fill:none" points="822.02,1244.16 1237.48,884.362 1237.48,164.76 "/>
<polyline clip-path="url(#clip451)" style="stroke:#000000; stroke-linecap:round; stroke-linejoin:round; stroke-width:2; stroke-opacity:0.1; fill:none" points="934.909,1276.75 1350.37,916.95 1350.37,197.348 "/>
<polyline clip-path="url(#clip451)" style="stroke:#000000; stroke-linecap:round; stroke-linejoin:round; stroke-width:2; stroke-opacity:0.1; fill:none" points="1047.8,1309.34 1463.26,949.538 1463.26,229.936 "/>
<polyline clip-path="url(#clip451)" style="stroke:#000000; stroke-linecap:round; stroke-linejoin:round; stroke-width:2; stroke-opacity:0.1; fill:none" points="1160.69,1341.93 1576.15,982.127 1576.15,262.525 "/>
<polyline clip-path="url(#clip451)" style="stroke:#000000; stroke-linecap:round; stroke-linejoin:round; stroke-width:2; stroke-opacity:0.1; fill:none" points="1273.58,1374.52 1689.04,1014.71 1689.04,295.113 "/>
<polyline clip-path="url(#clip451)" style="stroke:#000000; stroke-linecap:round; stroke-linejoin:round; stroke-width:2; stroke-opacity:0.1; fill:none" points="1386.47,1407.1 1801.93,1047.3 1801.93,327.701 "/>
<polyline clip-path="url(#clip451)" style="stroke:#000000; stroke-linecap:round; stroke-linejoin:round; stroke-width:2; stroke-opacity:0.1; fill:none" points="1449.69,1365.59 730.087,1157.86 730.087,438.254 "/>
<polyline clip-path="url(#clip451)" style="stroke:#000000; stroke-linecap:round; stroke-linejoin:round; stroke-width:2; stroke-opacity:0.1; fill:none" points="1521.87,1303.07 802.272,1095.34 802.272,375.739 "/>
<polyline clip-path="url(#clip451)" style="stroke:#000000; stroke-linecap:round; stroke-linejoin:round; stroke-width:2; stroke-opacity:0.1; fill:none" points="1594.06,1240.56 874.458,1032.83 874.458,313.224 "/>
<polyline clip-path="url(#clip451)" style="stroke:#000000; stroke-linecap:round; stroke-linejoin:round; stroke-width:2; stroke-opacity:0.1; fill:none" points="1666.25,1178.04 946.643,970.312 946.643,250.71 "/>
<polyline clip-path="url(#clip451)" style="stroke:#000000; stroke-linecap:round; stroke-linejoin:round; stroke-width:2; stroke-opacity:0.1; fill:none" points="1738.43,1115.53 1018.83,907.797 1018.83,188.195 "/>
<polyline clip-path="url(#clip451)" style="stroke:#000000; stroke-linecap:round; stroke-linejoin:round; stroke-width:2; stroke-opacity:0.1; fill:none" points="1810.62,1053.01 1091.01,845.283 1091.01,125.681 "/>
<polyline clip-path="url(#clip451)" style="stroke:#000000; stroke-linecap:round; stroke-linejoin:round; stroke-width:2; stroke-opacity:0.1; fill:none" points="678.326,1109.46 1093.79,749.658 1813.39,957.389 "/>
<polyline clip-path="url(#clip451)" style="stroke:#000000; stroke-linecap:round; stroke-linejoin:round; stroke-width:2; stroke-opacity:0.1; fill:none" points="678.326,1012.2 1093.79,652.396 1813.39,860.127 "/>
<polyline clip-path="url(#clip451)" style="stroke:#000000; stroke-linecap:round; stroke-linejoin:round; stroke-width:2; stroke-opacity:0.1; fill:none" points="678.326,914.935 1093.79,555.134 1813.39,762.865 "/>
<polyline clip-path="url(#clip451)" style="stroke:#000000; stroke-linecap:round; stroke-linejoin:round; stroke-width:2; stroke-opacity:0.1; fill:none" points="678.326,817.673 1093.79,457.872 1813.39,665.603 "/>
<polyline clip-path="url(#clip451)" style="stroke:#000000; stroke-linecap:round; stroke-linejoin:round; stroke-width:2; stroke-opacity:0.1; fill:none" points="678.326,720.411 1093.79,360.61 1813.39,568.342 "/>
<polyline clip-path="url(#clip451)" style="stroke:#000000; stroke-linecap:round; stroke-linejoin:round; stroke-width:2; stroke-opacity:0.1; fill:none" points="678.326,623.149 1093.79,263.348 1813.39,471.08 "/>
<polyline clip-path="url(#clip451)" style="stroke:#000000; stroke-linecap:round; stroke-linejoin:round; stroke-width:2; stroke-opacity:0.1; fill:none" points="678.326,525.887 1093.79,166.087 1813.39,373.818 "/>
<polyline clip-path="url(#clip450)" style="stroke:#000000; stroke-linecap:round; stroke-linejoin:round; stroke-width:4; stroke-opacity:1; fill:none" points="678.326,1202.68 1397.93,1410.41 "/>
<polyline clip-path="url(#clip450)" style="stroke:#000000; stroke-linecap:round; stroke-linejoin:round; stroke-width:4; stroke-opacity:1; fill:none" points="709.131,1211.57 714.116,1207.26 "/>
<polyline clip-path="url(#clip450)" style="stroke:#000000; stroke-linecap:round; stroke-linejoin:round; stroke-width:4; stroke-opacity:1; fill:none" points="822.02,1244.16 827.005,1239.85 "/>
<polyline clip-path="url(#clip450)" style="stroke:#000000; stroke-linecap:round; stroke-linejoin:round; stroke-width:4; stroke-opacity:1; fill:none" points="934.909,1276.75 939.894,1272.43 "/>
<polyline clip-path="url(#clip450)" style="stroke:#000000; stroke-linecap:round; stroke-linejoin:round; stroke-width:4; stroke-opacity:1; fill:none" points="1047.8,1309.34 1052.78,1305.02 "/>
<polyline clip-path="url(#clip450)" style="stroke:#000000; stroke-linecap:round; stroke-linejoin:round; stroke-width:4; stroke-opacity:1; fill:none" points="1160.69,1341.93 1165.67,1337.61 "/>
<polyline clip-path="url(#clip450)" style="stroke:#000000; stroke-linecap:round; stroke-linejoin:round; stroke-width:4; stroke-opacity:1; fill:none" points="1273.58,1374.52 1278.56,1370.2 "/>
<polyline clip-path="url(#clip450)" style="stroke:#000000; stroke-linecap:round; stroke-linejoin:round; stroke-width:4; stroke-opacity:1; fill:none" points="1386.47,1407.1 1391.45,1402.79 "/>
<path clip-path="url(#clip450)" d="M648.404 1225.81 Q644.793 1225.81 642.964 1229.38 Q641.159 1232.92 641.159 1240.05 Q641.159 1247.15 642.964 1250.72 Q644.793 1254.26 648.404 1254.26 Q652.038 1254.26 653.844 1250.72 Q655.673 1247.15 655.673 1240.05 Q655.673 1232.92 653.844 1229.38 Q652.038 1225.81 648.404 1225.81 M648.404 1222.11 Q654.214 1222.11 657.27 1226.71 Q660.348 1231.3 660.348 1240.05 Q660.348 1248.77 657.27 1253.38 Q654.214 1257.96 648.404 1257.96 Q642.594 1257.96 639.515 1253.38 Q636.46 1248.77 636.46 1240.05 Q636.46 1231.3 639.515 1226.71 Q642.594 1222.11 648.404 1222.11 Z" fill="#000000" fill-rule="nonzero" fill-opacity="1" /><path clip-path="url(#clip450)" d="M668.566 1251.41 L673.45 1251.41 L673.45 1257.29 L668.566 1257.29 L668.566 1251.41 Z" fill="#000000" fill-rule="nonzero" fill-opacity="1" /><path clip-path="url(#clip450)" d="M683.682 1222.73 L702.038 1222.73 L702.038 1226.67 L687.964 1226.67 L687.964 1235.14 Q688.983 1234.79 690.001 1234.63 Q691.02 1234.45 692.038 1234.45 Q697.825 1234.45 701.205 1237.62 Q704.584 1240.79 704.584 1246.21 Q704.584 1251.78 701.112 1254.89 Q697.64 1257.96 691.32 1257.96 Q689.145 1257.96 686.876 1257.59 Q684.631 1257.22 682.223 1256.48 L682.223 1251.78 Q684.307 1252.92 686.529 1253.47 Q688.751 1254.03 691.228 1254.03 Q695.233 1254.03 697.57 1251.92 Q699.908 1249.82 699.908 1246.21 Q699.908 1242.59 697.57 1240.49 Q695.233 1238.38 691.228 1238.38 Q689.353 1238.38 687.478 1238.8 Q685.626 1239.21 683.682 1240.09 L683.682 1222.73 Z" fill="#000000" fill-rule="nonzero" fill-opacity="1" /><path clip-path="url(#clip450)" d="M751.108 1285.95 L758.747 1285.95 L758.747 1259.58 L750.437 1261.25 L750.437 1256.99 L758.701 1255.32 L763.376 1255.32 L763.376 1285.95 L771.015 1285.95 L771.015 1289.88 L751.108 1289.88 L751.108 1285.95 Z" fill="#000000" fill-rule="nonzero" fill-opacity="1" /><path clip-path="url(#clip450)" d="M780.46 1284 L785.344 1284 L785.344 1289.88 L780.46 1289.88 L780.46 1284 Z" fill="#000000" fill-rule="nonzero" fill-opacity="1" /><path clip-path="url(#clip450)" d="M805.529 1258.4 Q801.918 1258.4 800.089 1261.97 Q798.284 1265.51 798.284 1272.64 Q798.284 1279.74 800.089 1283.31 Q801.918 1286.85 805.529 1286.85 Q809.163 1286.85 810.969 1283.31 Q812.798 1279.74 812.798 1272.64 Q812.798 1265.51 810.969 1261.97 Q809.163 1258.4 805.529 1258.4 M805.529 1254.7 Q811.339 1254.7 814.395 1259.3 Q817.473 1263.89 817.473 1272.64 Q817.473 1281.36 814.395 1285.97 Q811.339 1290.55 805.529 1290.55 Q799.719 1290.55 796.64 1285.97 Q793.585 1281.36 793.585 1272.64 Q793.585 1263.89 796.64 1259.3 Q799.719 1254.7 805.529 1254.7 Z" fill="#000000" fill-rule="nonzero" fill-opacity="1" /><path clip-path="url(#clip450)" d="M864.992 1318.53 L872.631 1318.53 L872.631 1292.17 L864.321 1293.84 L864.321 1289.58 L872.585 1287.91 L877.261 1287.91 L877.261 1318.53 L884.9 1318.53 L884.9 1322.47 L864.992 1322.47 L864.992 1318.53 Z" fill="#000000" fill-rule="nonzero" fill-opacity="1" /><path clip-path="url(#clip450)" d="M894.344 1316.59 L899.228 1316.59 L899.228 1322.47 L894.344 1322.47 L894.344 1316.59 Z" fill="#000000" fill-rule="nonzero" fill-opacity="1" /><path clip-path="url(#clip450)" d="M909.46 1287.91 L927.816 1287.91 L927.816 1291.85 L913.742 1291.85 L913.742 1300.32 Q914.761 1299.97 915.779 1299.81 Q916.798 1299.62 917.816 1299.62 Q923.603 1299.62 926.983 1302.79 Q930.363 1305.97 930.363 1311.38 Q930.363 1316.96 926.89 1320.06 Q923.418 1323.14 917.099 1323.14 Q914.923 1323.14 912.654 1322.77 Q910.409 1322.4 908.002 1321.66 L908.002 1316.96 Q910.085 1318.09 912.307 1318.65 Q914.529 1319.21 917.006 1319.21 Q921.011 1319.21 923.349 1317.1 Q925.687 1314.99 925.687 1311.38 Q925.687 1307.77 923.349 1305.66 Q921.011 1303.56 917.006 1303.56 Q915.131 1303.56 913.256 1303.97 Q911.404 1304.39 909.46 1305.27 L909.46 1287.91 Z" fill="#000000" fill-rule="nonzero" fill-opacity="1" /><path clip-path="url(#clip450)" d="M980.104 1351.12 L996.423 1351.12 L996.423 1355.06 L974.479 1355.06 L974.479 1351.12 Q977.141 1348.37 981.724 1343.74 Q986.331 1339.09 987.511 1337.74 Q989.757 1335.22 990.636 1333.48 Q991.539 1331.72 991.539 1330.04 Q991.539 1327.28 989.594 1325.54 Q987.673 1323.81 984.571 1323.81 Q982.372 1323.81 979.919 1324.57 Q977.488 1325.34 974.71 1326.89 L974.71 1322.16 Q977.534 1321.03 979.988 1320.45 Q982.442 1319.87 984.479 1319.87 Q989.849 1319.87 993.044 1322.56 Q996.238 1325.24 996.238 1329.73 Q996.238 1331.86 995.428 1333.79 Q994.641 1335.68 992.534 1338.28 Q991.956 1338.95 988.854 1342.16 Q985.752 1345.36 980.104 1351.12 Z" fill="#000000" fill-rule="nonzero" fill-opacity="1" /><path clip-path="url(#clip450)" d="M1006.24 1349.18 L1011.12 1349.18 L1011.12 1355.06 L1006.24 1355.06 L1006.24 1349.18 Z" fill="#000000" fill-rule="nonzero" fill-opacity="1" /><path clip-path="url(#clip450)" d="M1031.31 1323.58 Q1027.7 1323.58 1025.87 1327.14 Q1024.06 1330.68 1024.06 1337.81 Q1024.06 1344.92 1025.87 1348.48 Q1027.7 1352.03 1031.31 1352.03 Q1034.94 1352.03 1036.75 1348.48 Q1038.58 1344.92 1038.58 1337.81 Q1038.58 1330.68 1036.75 1327.14 Q1034.94 1323.58 1031.31 1323.58 M1031.31 1319.87 Q1037.12 1319.87 1040.17 1324.48 Q1043.25 1329.06 1043.25 1337.81 Q1043.25 1346.54 1040.17 1351.15 Q1037.12 1355.73 1031.31 1355.73 Q1025.5 1355.73 1022.42 1351.15 Q1019.36 1346.54 1019.36 1337.81 Q1019.36 1329.06 1022.42 1324.48 Q1025.5 1319.87 1031.31 1319.87 Z" fill="#000000" fill-rule="nonzero" fill-opacity="1" /><path clip-path="url(#clip450)" d="M1093.99 1383.71 L1110.31 1383.71 L1110.31 1387.65 L1088.36 1387.65 L1088.36 1383.71 Q1091.03 1380.96 1095.61 1376.33 Q1100.22 1371.67 1101.4 1370.33 Q1103.64 1367.81 1104.52 1366.07 Q1105.42 1364.31 1105.42 1362.62 Q1105.42 1359.87 1103.48 1358.13 Q1101.56 1356.4 1098.46 1356.4 Q1096.26 1356.4 1093.8 1357.16 Q1091.37 1357.92 1088.59 1359.48 L1088.59 1354.75 Q1091.42 1353.62 1093.87 1353.04 Q1096.33 1352.46 1098.36 1352.46 Q1103.73 1352.46 1106.93 1355.15 Q1110.12 1357.83 1110.12 1362.32 Q1110.12 1364.45 1109.31 1366.37 Q1108.53 1368.27 1106.42 1370.86 Q1105.84 1371.54 1102.74 1374.75 Q1099.64 1377.95 1093.99 1383.71 Z" fill="#000000" fill-rule="nonzero" fill-opacity="1" /><path clip-path="url(#clip450)" d="M1120.12 1381.77 L1125.01 1381.77 L1125.01 1387.65 L1120.12 1387.65 L1120.12 1381.77 Z" fill="#000000" fill-rule="nonzero" fill-opacity="1" /><path clip-path="url(#clip450)" d="M1135.24 1353.09 L1153.59 1353.09 L1153.59 1357.02 L1139.52 1357.02 L1139.52 1365.49 Q1140.54 1365.15 1141.56 1364.98 Q1142.58 1364.8 1143.59 1364.8 Q1149.38 1364.8 1152.76 1367.97 Q1156.14 1371.14 1156.14 1376.56 Q1156.14 1382.14 1152.67 1385.24 Q1149.2 1388.32 1142.88 1388.32 Q1140.7 1388.32 1138.43 1387.95 Q1136.19 1387.58 1133.78 1386.84 L1133.78 1382.14 Q1135.86 1383.27 1138.09 1383.83 Q1140.31 1384.38 1142.78 1384.38 Q1146.79 1384.38 1149.13 1382.28 Q1151.46 1380.17 1151.46 1376.56 Q1151.46 1372.95 1149.13 1370.84 Q1146.79 1368.73 1142.78 1368.73 Q1140.91 1368.73 1139.03 1369.15 Q1137.18 1369.57 1135.24 1370.45 L1135.24 1353.09 Z" fill="#000000" fill-rule="nonzero" fill-opacity="1" /><path clip-path="url(#clip450)" d="M1216.02 1401.6 Q1219.38 1402.32 1221.25 1404.59 Q1223.15 1406.86 1223.15 1410.19 Q1223.15 1415.3 1219.63 1418.11 Q1216.11 1420.91 1209.63 1420.91 Q1207.46 1420.91 1205.14 1420.47 Q1202.85 1420.05 1200.4 1419.19 L1200.4 1414.68 Q1202.34 1415.81 1204.66 1416.39 Q1206.97 1416.97 1209.49 1416.97 Q1213.89 1416.97 1216.18 1415.23 Q1218.5 1413.5 1218.5 1410.19 Q1218.5 1407.13 1216.34 1405.42 Q1214.22 1403.68 1210.4 1403.68 L1206.37 1403.68 L1206.37 1399.84 L1210.58 1399.84 Q1214.03 1399.84 1215.86 1398.48 Q1217.69 1397.09 1217.69 1394.49 Q1217.69 1391.83 1215.79 1390.42 Q1213.91 1388.98 1210.4 1388.98 Q1208.47 1388.98 1206.28 1389.4 Q1204.08 1389.82 1201.44 1390.7 L1201.44 1386.53 Q1204.1 1385.79 1206.41 1385.42 Q1208.75 1385.05 1210.81 1385.05 Q1216.14 1385.05 1219.24 1387.48 Q1222.34 1389.89 1222.34 1394.01 Q1222.34 1396.88 1220.7 1398.87 Q1219.05 1400.84 1216.02 1401.6 Z" fill="#000000" fill-rule="nonzero" fill-opacity="1" /><path clip-path="url(#clip450)" d="M1232.02 1414.36 L1236.9 1414.36 L1236.9 1420.23 L1232.02 1420.23 L1232.02 1414.36 Z" fill="#000000" fill-rule="nonzero" fill-opacity="1" /><path clip-path="url(#clip450)" d="M1257.09 1388.75 Q1253.47 1388.75 1251.65 1392.32 Q1249.84 1395.86 1249.84 1402.99 Q1249.84 1410.1 1251.65 1413.66 Q1253.47 1417.2 1257.09 1417.2 Q1260.72 1417.2 1262.53 1413.66 Q1264.35 1410.1 1264.35 1402.99 Q1264.35 1395.86 1262.53 1392.32 Q1260.72 1388.75 1257.09 1388.75 M1257.09 1385.05 Q1262.9 1385.05 1265.95 1389.66 Q1269.03 1394.24 1269.03 1402.99 Q1269.03 1411.72 1265.95 1416.32 Q1262.9 1420.91 1257.09 1420.91 Q1251.28 1420.91 1248.2 1416.32 Q1245.14 1411.72 1245.14 1402.99 Q1245.14 1394.24 1248.2 1389.66 Q1251.28 1385.05 1257.09 1385.05 Z" fill="#000000" fill-rule="nonzero" fill-opacity="1" /><path clip-path="url(#clip450)" d="M1329.91 1434.19 Q1333.26 1434.91 1335.14 1437.17 Q1337.03 1439.44 1337.03 1442.78 Q1337.03 1447.89 1333.52 1450.69 Q1330 1453.49 1323.52 1453.49 Q1321.34 1453.49 1319.03 1453.05 Q1316.73 1452.64 1314.28 1451.78 L1314.28 1447.27 Q1316.22 1448.4 1318.54 1448.98 Q1320.85 1449.56 1323.38 1449.56 Q1327.78 1449.56 1330.07 1447.82 Q1332.38 1446.09 1332.38 1442.78 Q1332.38 1439.72 1330.23 1438.01 Q1328.1 1436.27 1324.28 1436.27 L1320.25 1436.27 L1320.25 1432.43 L1324.47 1432.43 Q1327.91 1432.43 1329.74 1431.06 Q1331.57 1429.67 1331.57 1427.08 Q1331.57 1424.42 1329.67 1423.01 Q1327.8 1421.57 1324.28 1421.57 Q1322.36 1421.57 1320.16 1421.99 Q1317.96 1422.41 1315.32 1423.29 L1315.32 1419.12 Q1317.98 1418.38 1320.3 1418.01 Q1322.64 1417.64 1324.7 1417.64 Q1330.02 1417.64 1333.12 1420.07 Q1336.22 1422.48 1336.22 1426.6 Q1336.22 1429.47 1334.58 1431.46 Q1332.94 1433.42 1329.91 1434.19 Z" fill="#000000" fill-rule="nonzero" fill-opacity="1" /><path clip-path="url(#clip450)" d="M1345.9 1446.94 L1350.78 1446.94 L1350.78 1452.82 L1345.9 1452.82 L1345.9 1446.94 Z" fill="#000000" fill-rule="nonzero" fill-opacity="1" /><path clip-path="url(#clip450)" d="M1361.02 1418.26 L1379.37 1418.26 L1379.37 1422.2 L1365.3 1422.2 L1365.3 1430.67 Q1366.32 1430.32 1367.34 1430.16 Q1368.35 1429.98 1369.37 1429.98 Q1375.16 1429.98 1378.54 1433.15 Q1381.92 1436.32 1381.92 1441.74 Q1381.92 1447.31 1378.45 1450.42 Q1374.97 1453.49 1368.66 1453.49 Q1366.48 1453.49 1364.21 1453.12 Q1361.97 1452.75 1359.56 1452.01 L1359.56 1447.31 Q1361.64 1448.45 1363.86 1449 Q1366.09 1449.56 1368.56 1449.56 Q1372.57 1449.56 1374.91 1447.45 Q1377.24 1445.35 1377.24 1441.74 Q1377.24 1438.12 1374.91 1436.02 Q1372.57 1433.91 1368.56 1433.91 Q1366.69 1433.91 1364.81 1434.33 Q1362.96 1434.74 1361.02 1435.62 L1361.02 1418.26 Z" fill="#000000" fill-rule="nonzero" fill-opacity="1" /><polyline clip-path="url(#clip450)" style="stroke:#000000; stroke-linecap:round; stroke-linejoin:round; stroke-width:4; stroke-opacity:1; fill:none" points="1397.93,1410.41 1813.39,1050.61 "/>
<polyline clip-path="url(#clip450)" style="stroke:#000000; stroke-linecap:round; stroke-linejoin:round; stroke-width:4; stroke-opacity:1; fill:none" points="1449.69,1365.59 1441.05,1363.09 "/>
<polyline clip-path="url(#clip450)" style="stroke:#000000; stroke-linecap:round; stroke-linejoin:round; stroke-width:4; stroke-opacity:1; fill:none" points="1521.87,1303.07 1513.24,1300.58 "/>
<polyline clip-path="url(#clip450)" style="stroke:#000000; stroke-linecap:round; stroke-linejoin:round; stroke-width:4; stroke-opacity:1; fill:none" points="1594.06,1240.56 1585.42,1238.06 "/>
<polyline clip-path="url(#clip450)" style="stroke:#000000; stroke-linecap:round; stroke-linejoin:round; stroke-width:4; stroke-opacity:1; fill:none" points="1666.25,1178.04 1657.61,1175.55 "/>
<polyline clip-path="url(#clip450)" style="stroke:#000000; stroke-linecap:round; stroke-linejoin:round; stroke-width:4; stroke-opacity:1; fill:none" points="1738.43,1115.53 1729.8,1113.04 "/>
<polyline clip-path="url(#clip450)" style="stroke:#000000; stroke-linecap:round; stroke-linejoin:round; stroke-width:4; stroke-opacity:1; fill:none" points="1810.62,1053.01 1801.98,1050.52 "/>
<path clip-path="url(#clip450)" d="M1477.74 1378.35 L1465.94 1396.8 L1477.74 1396.8 L1477.74 1378.35 M1476.52 1374.27 L1482.4 1374.27 L1482.4 1396.8 L1487.33 1396.8 L1487.33 1400.69 L1482.4 1400.69 L1482.4 1408.83 L1477.74 1408.83 L1477.74 1400.69 L1462.14 1400.69 L1462.14 1396.17 L1476.52 1374.27 Z" fill="#000000" fill-rule="nonzero" fill-opacity="1" /><path clip-path="url(#clip450)" d="M1535.79 1311.76 L1554.14 1311.76 L1554.14 1315.7 L1540.07 1315.7 L1540.07 1324.17 Q1541.09 1323.82 1542.11 1323.66 Q1543.12 1323.47 1544.14 1323.47 Q1549.93 1323.47 1553.31 1326.64 Q1556.69 1329.82 1556.69 1335.23 Q1556.69 1340.81 1553.22 1343.91 Q1549.74 1346.99 1543.42 1346.99 Q1541.25 1346.99 1538.98 1346.62 Q1536.74 1346.25 1534.33 1345.51 L1534.33 1340.81 Q1536.41 1341.95 1538.63 1342.5 Q1540.86 1343.06 1543.33 1343.06 Q1547.34 1343.06 1549.67 1340.95 Q1552.01 1338.84 1552.01 1335.23 Q1552.01 1331.62 1549.67 1329.51 Q1547.34 1327.41 1543.33 1327.41 Q1541.46 1327.41 1539.58 1327.82 Q1537.73 1328.24 1535.79 1329.12 L1535.79 1311.76 Z" fill="#000000" fill-rule="nonzero" fill-opacity="1" /><path clip-path="url(#clip450)" d="M1618.85 1264.66 Q1615.7 1264.66 1613.85 1266.82 Q1612.02 1268.97 1612.02 1272.72 Q1612.02 1276.44 1613.85 1278.62 Q1615.7 1280.77 1618.85 1280.77 Q1622 1280.77 1623.83 1278.62 Q1625.68 1276.44 1625.68 1272.72 Q1625.68 1268.97 1623.83 1266.82 Q1622 1264.66 1618.85 1264.66 M1628.13 1250.01 L1628.13 1254.27 Q1626.37 1253.44 1624.57 1253 Q1622.79 1252.56 1621.03 1252.56 Q1616.4 1252.56 1613.94 1255.68 Q1611.51 1258.81 1611.17 1265.13 Q1612.53 1263.11 1614.59 1262.05 Q1616.65 1260.96 1619.13 1260.96 Q1624.34 1260.96 1627.35 1264.13 Q1630.38 1267.28 1630.38 1272.72 Q1630.38 1278.04 1627.23 1281.26 Q1624.08 1284.48 1618.85 1284.48 Q1612.86 1284.48 1609.68 1279.89 Q1606.51 1275.29 1606.51 1266.56 Q1606.51 1258.37 1610.4 1253.5 Q1614.29 1248.62 1620.84 1248.62 Q1622.6 1248.62 1624.38 1248.97 Q1626.19 1249.32 1628.13 1250.01 Z" fill="#000000" fill-rule="nonzero" fill-opacity="1" /><path clip-path="url(#clip450)" d="M1678.7 1186.73 L1700.92 1186.73 L1700.92 1188.72 L1688.37 1221.29 L1683.49 1221.29 L1695.3 1190.67 L1678.7 1190.67 L1678.7 1186.73 Z" fill="#000000" fill-rule="nonzero" fill-opacity="1" /><path clip-path="url(#clip450)" d="M1762.74 1142.36 Q1759.4 1142.36 1757.48 1144.15 Q1755.58 1145.93 1755.58 1149.05 Q1755.58 1152.18 1757.48 1153.96 Q1759.4 1155.74 1762.74 1155.74 Q1766.07 1155.74 1767.99 1153.96 Q1769.91 1152.16 1769.91 1149.05 Q1769.91 1145.93 1767.99 1144.15 Q1766.09 1142.36 1762.74 1142.36 M1758.06 1140.37 Q1755.05 1139.63 1753.36 1137.57 Q1751.69 1135.51 1751.69 1132.55 Q1751.69 1128.41 1754.63 1126 Q1757.6 1123.59 1762.74 1123.59 Q1767.9 1123.59 1770.84 1126 Q1773.78 1128.41 1773.78 1132.55 Q1773.78 1135.51 1772.09 1137.57 Q1770.42 1139.63 1767.44 1140.37 Q1770.82 1141.16 1772.69 1143.45 Q1774.59 1145.74 1774.59 1149.05 Q1774.59 1154.08 1771.51 1156.76 Q1768.45 1159.45 1762.74 1159.45 Q1757.02 1159.45 1753.94 1156.76 Q1750.88 1154.08 1750.88 1149.05 Q1750.88 1145.74 1752.78 1143.45 Q1754.68 1141.16 1758.06 1140.37 M1756.35 1132.99 Q1756.35 1135.67 1758.01 1137.18 Q1759.7 1138.68 1762.74 1138.68 Q1765.75 1138.68 1767.44 1137.18 Q1769.15 1135.67 1769.15 1132.99 Q1769.15 1130.3 1767.44 1128.8 Q1765.75 1127.3 1762.74 1127.3 Q1759.7 1127.3 1758.01 1128.8 Q1756.35 1130.3 1756.35 1132.99 Z" fill="#000000" fill-rule="nonzero" fill-opacity="1" /><path clip-path="url(#clip450)" d="M1825.29 1095.54 L1825.29 1091.29 Q1827.05 1092.12 1828.86 1092.56 Q1830.66 1093 1832.4 1093 Q1837.03 1093 1839.46 1089.9 Q1841.91 1086.77 1842.26 1080.43 Q1840.92 1082.42 1838.86 1083.48 Q1836.8 1084.55 1834.3 1084.55 Q1829.11 1084.55 1826.08 1081.42 Q1823.07 1078.28 1823.07 1072.84 Q1823.07 1067.51 1826.22 1064.29 Q1829.37 1061.08 1834.6 1061.08 Q1840.59 1061.08 1843.74 1065.68 Q1846.91 1070.27 1846.91 1079.02 Q1846.91 1087.19 1843.02 1092.07 Q1839.16 1096.93 1832.61 1096.93 Q1830.85 1096.93 1829.04 1096.59 Q1827.24 1096.24 1825.29 1095.54 M1834.6 1080.89 Q1837.75 1080.89 1839.57 1078.74 Q1841.43 1076.59 1841.43 1072.84 Q1841.43 1069.11 1839.57 1066.96 Q1837.75 1064.78 1834.6 1064.78 Q1831.45 1064.78 1829.6 1066.96 Q1827.77 1069.11 1827.77 1072.84 Q1827.77 1076.59 1829.6 1078.74 Q1831.45 1080.89 1834.6 1080.89 Z" fill="#000000" fill-rule="nonzero" fill-opacity="1" /><polyline clip-path="url(#clip450)" style="stroke:#000000; stroke-linecap:round; stroke-linejoin:round; stroke-width:4; stroke-opacity:1; fill:none" points="678.326,1202.68 678.326,483.08 "/>
<polyline clip-path="url(#clip450)" style="stroke:#000000; stroke-linecap:round; stroke-linejoin:round; stroke-width:4; stroke-opacity:1; fill:none" points="678.326,1109.46 683.311,1105.14 "/>
<polyline clip-path="url(#clip450)" style="stroke:#000000; stroke-linecap:round; stroke-linejoin:round; stroke-width:4; stroke-opacity:1; fill:none" points="678.326,1012.2 683.311,1007.88 "/>
<polyline clip-path="url(#clip450)" style="stroke:#000000; stroke-linecap:round; stroke-linejoin:round; stroke-width:4; stroke-opacity:1; fill:none" points="678.326,914.935 683.311,910.618 "/>
<polyline clip-path="url(#clip450)" style="stroke:#000000; stroke-linecap:round; stroke-linejoin:round; stroke-width:4; stroke-opacity:1; fill:none" points="678.326,817.673 683.311,813.356 "/>
<polyline clip-path="url(#clip450)" style="stroke:#000000; stroke-linecap:round; stroke-linejoin:round; stroke-width:4; stroke-opacity:1; fill:none" points="678.326,720.411 683.311,716.094 "/>
<polyline clip-path="url(#clip450)" style="stroke:#000000; stroke-linecap:round; stroke-linejoin:round; stroke-width:4; stroke-opacity:1; fill:none" points="678.326,623.149 683.311,618.832 "/>
<polyline clip-path="url(#clip450)" style="stroke:#000000; stroke-linecap:round; stroke-linejoin:round; stroke-width:4; stroke-opacity:1; fill:none" points="678.326,525.887 683.311,521.57 "/>
<path clip-path="url(#clip450)" d="M639.942 1096.25 L628.137 1114.7 L639.942 1114.7 L639.942 1096.25 M638.715 1092.18 L644.595 1092.18 L644.595 1114.7 L649.526 1114.7 L649.526 1118.59 L644.595 1118.59 L644.595 1126.74 L639.942 1126.74 L639.942 1118.59 L624.341 1118.59 L624.341 1114.08 L638.715 1092.18 Z" fill="#000000" fill-rule="nonzero" fill-opacity="1" /><path clip-path="url(#clip450)" d="M628.623 994.917 L646.979 994.917 L646.979 998.852 L632.905 998.852 L632.905 1007.32 Q633.924 1006.98 634.942 1006.82 Q635.961 1006.63 636.979 1006.63 Q642.766 1006.63 646.146 1009.8 Q649.526 1012.97 649.526 1018.39 Q649.526 1023.97 646.053 1027.07 Q642.581 1030.15 636.262 1030.15 Q634.086 1030.15 631.817 1029.78 Q629.572 1029.41 627.165 1028.67 L627.165 1023.97 Q629.248 1025.1 631.47 1025.66 Q633.692 1026.21 636.169 1026.21 Q640.174 1026.21 642.512 1024.11 Q644.85 1022 644.85 1018.39 Q644.85 1014.78 642.512 1012.67 Q640.174 1010.57 636.169 1010.57 Q634.294 1010.57 632.419 1010.98 Q630.567 1011.4 628.623 1012.28 L628.623 994.917 Z" fill="#000000" fill-rule="nonzero" fill-opacity="1" /><path clip-path="url(#clip450)" d="M637.998 913.072 Q634.85 913.072 632.998 915.225 Q631.169 917.377 631.169 921.127 Q631.169 924.854 632.998 927.03 Q634.85 929.183 637.998 929.183 Q641.146 929.183 642.975 927.03 Q644.827 924.854 644.827 921.127 Q644.827 917.377 642.975 915.225 Q641.146 913.072 637.998 913.072 M647.28 898.419 L647.28 902.678 Q645.521 901.845 643.715 901.405 Q641.933 900.965 640.174 900.965 Q635.544 900.965 633.09 904.09 Q630.66 907.215 630.313 913.535 Q631.678 911.521 633.739 910.456 Q635.799 909.368 638.276 909.368 Q643.484 909.368 646.493 912.539 Q649.526 915.687 649.526 921.127 Q649.526 926.451 646.377 929.669 Q643.229 932.886 637.998 932.886 Q632.003 932.886 628.831 928.303 Q625.66 923.697 625.66 914.97 Q625.66 906.775 629.549 901.914 Q633.438 897.03 639.989 897.03 Q641.748 897.03 643.53 897.377 Q645.336 897.725 647.28 898.419 Z" fill="#000000" fill-rule="nonzero" fill-opacity="1" /><path clip-path="url(#clip450)" d="M627.303 800.393 L649.526 800.393 L649.526 802.384 L636.979 834.953 L632.095 834.953 L643.901 804.328 L627.303 804.328 L627.303 800.393 Z" fill="#000000" fill-rule="nonzero" fill-opacity="1" /><path clip-path="url(#clip450)" d="M637.674 721.279 Q634.34 721.279 632.419 723.062 Q630.521 724.844 630.521 727.969 Q630.521 731.094 632.419 732.877 Q634.34 734.659 637.674 734.659 Q641.007 734.659 642.928 732.877 Q644.85 731.071 644.85 727.969 Q644.85 724.844 642.928 723.062 Q641.03 721.279 637.674 721.279 M632.998 719.289 Q629.989 718.548 628.299 716.488 Q626.632 714.428 626.632 711.465 Q626.632 707.321 629.572 704.914 Q632.535 702.506 637.674 702.506 Q642.836 702.506 645.776 704.914 Q648.715 707.321 648.715 711.465 Q648.715 714.428 647.026 716.488 Q645.359 718.548 642.373 719.289 Q645.752 720.076 647.627 722.367 Q649.526 724.659 649.526 727.969 Q649.526 732.992 646.447 735.677 Q643.391 738.363 637.674 738.363 Q631.956 738.363 628.878 735.677 Q625.822 732.992 625.822 727.969 Q625.822 724.659 627.72 722.367 Q629.618 720.076 632.998 719.289 M631.285 711.904 Q631.285 714.59 632.952 716.094 Q634.641 717.599 637.674 717.599 Q640.683 717.599 642.373 716.094 Q644.086 714.59 644.086 711.904 Q644.086 709.219 642.373 707.715 Q640.683 706.21 637.674 706.21 Q634.641 706.21 632.952 707.715 Q631.285 709.219 631.285 711.904 Z" fill="#000000" fill-rule="nonzero" fill-opacity="1" /><path clip-path="url(#clip450)" d="M627.905 639.712 L627.905 635.453 Q629.665 636.286 631.47 636.726 Q633.276 637.166 635.012 637.166 Q639.641 637.166 642.072 634.064 Q644.526 630.939 644.873 624.596 Q643.53 626.587 641.47 627.652 Q639.41 628.716 636.91 628.716 Q631.725 628.716 628.692 625.592 Q625.683 622.443 625.683 617.004 Q625.683 611.68 628.831 608.462 Q631.979 605.244 637.211 605.244 Q643.206 605.244 646.354 609.851 Q649.526 614.434 649.526 623.184 Q649.526 631.355 645.637 636.24 Q641.771 641.101 635.22 641.101 Q633.461 641.101 631.655 640.753 Q629.85 640.406 627.905 639.712 M637.211 625.059 Q640.359 625.059 642.188 622.906 Q644.039 620.754 644.039 617.004 Q644.039 613.277 642.188 611.124 Q640.359 608.948 637.211 608.948 Q634.063 608.948 632.211 611.124 Q630.382 613.277 630.382 617.004 Q630.382 620.754 632.211 622.906 Q634.063 625.059 637.211 625.059 Z" fill="#000000" fill-rule="nonzero" fill-opacity="1" /><path clip-path="url(#clip450)" d="M598.23 539.232 L605.868 539.232 L605.868 512.867 L597.558 514.533 L597.558 510.274 L605.822 508.607 L610.498 508.607 L610.498 539.232 L618.137 539.232 L618.137 543.167 L598.23 543.167 L598.23 539.232 Z" fill="#000000" fill-rule="nonzero" fill-opacity="1" /><path clip-path="url(#clip450)" d="M637.581 511.686 Q633.97 511.686 632.141 515.251 Q630.336 518.793 630.336 525.922 Q630.336 533.029 632.141 536.593 Q633.97 540.135 637.581 540.135 Q641.215 540.135 643.021 536.593 Q644.85 533.029 644.85 525.922 Q644.85 518.793 643.021 515.251 Q641.215 511.686 637.581 511.686 M637.581 507.982 Q643.391 507.982 646.447 512.589 Q649.526 517.172 649.526 525.922 Q649.526 534.649 646.447 539.255 Q643.391 543.839 637.581 543.839 Q631.771 543.839 628.692 539.255 Q625.637 534.649 625.637 525.922 Q625.637 517.172 628.692 512.589 Q631.771 507.982 637.581 507.982 Z" fill="#000000" fill-rule="nonzero" fill-opacity="1" /><polyline clip-path="url(#clip451)" style="stroke:#009af9; stroke-linecap:round; stroke-linejoin:round; stroke-width:4; stroke-opacity:1; fill:none" points="945.966,946.337 949.754,941.388 950.391,940.445 946.299,945.392 948.149,942.889 959.309,928.8 958.576,929.642 956.03,932.724 949.347,940.87 938.637,953.962 942.914,948.213 949.329,939.778 946.753,942.659 943.103,946.821 946.471,942.178 952.5,934.43 953.732,932.74 941.448,947.854 944.824,943.009 966.236,916.42 958.131,927.138 947.053,940.861 957.318,928.397 954.506,931.954 958.07,927.943 921.197,972.315 938.545,947.816 938.6,947.186 940.861,944.849 952.513,933.459 989.147,890.242 1016.59,868.786 995.062,898.592 980.363,912.827 981.288,910.129 972.592,918.957 942.32,950.845 948.468,940.338 912.935,976.156 890.397,997.18 894.361,985.89 869.719,1015.01 863.414,1017.94 851.046,1029.32 875.28,992.262 921.432,946.437 907.927,975.369 953.554,924.592 970.64,911.864 966.761,931.479 951.071,941.019 978.268,901.081 994.64,895.78 982.207,903.176 1058.65,839.962 1076.46,829.186 1051.8,855.494 1187.41,733.697 1144.6,785.102 1102.56,819.645 1062.32,850.421 1078.07,829.965 1081.12,824.934 1117.44,791.407 1126.22,788.013 1135.3,783.817 1142.22,779.852 1174.39,760.028 1109.58,824.56 1162.57,764.634 1254.93,687.193 1205.74,743.119 1128.8,807.863 1095.87,834.791 1069.48,850.868 1148.49,771.15 1149.27,780.212 1194.72,725.748 1148.5,783.774 1146.2,777.468 1041.66,864.725 1053.46,847.724 1084.21,813.967 1050.89,850.297 1057.61,829.764 1081.12,815.14 1108.86,802.433 1094.19,833.384 1094.71,831.931 1062.51,847.971 1094.24,806.931 1186.17,734.952 1230.37,696.86 1258.43,683.908 1244.26,707.173 1223.93,723.961 1200.68,743.479 1258.08,689.348 1254.25,708.485 1268.82,677.567 1253.3,698.776 1314.43,653.996 1259.75,691.244 1281.18,664.992 1178.19,766.737 1166.58,773.914 1190.52,741.751 1139.29,793.362 1060,850.397 1093.2,810.828 1141.51,774.019 1096.16,820.865 1070.87,848.546 1041.71,870.143 1068.94,838.088 1035.87,873.654 1085.1,824.156 1084.05,820.811 1086.72,826.482 1096.9,812.349 1051.34,854.052 1000.47,912.202 951.568,945.986 901.361,996.596 918.176,969.214 969.268,910.955 985.632,899.509 1000.25,886.851 1026.51,870.01 1048.01,854.49 1014.73,888.217 966.355,921.826 935.752,957.038 960.737,923.337 969.89,921.802 969.147,919.752 1019.22,876.552 1006.76,895.672 1062.67,830.072 1071.5,828.075 1140.2,770.291 1100.22,816.485 1115.33,800.952 1117.87,795.653 1118.12,799.821 1138.36,779.213 1087.31,831.272 1082.15,835.722 1052.83,869.221 1053.87,845.251 1119.3,785.092 1149.49,763.919 1140.21,774.54 1139.87,786.958 1129.73,801.154 1084.48,830.818 1061.51,846.895 987.48,913.908 989.746,901.39 945.451,953.698 999.954,877.313 1071.62,826.887 1030.94,872.258 1003.12,897.397 986.259,911.066 973.259,918.057 1043.21,856.251 1095.04,793.539 1066.01,832.697 1017.92,884.48 981.504,915.009 966.23,928.229 982.026,912.431 960.479,938.313 981.442,920.226 964.26,935.314 997.813,907.489 1023.33,887.474 1069.35,847.843 995.471,897.246 982.427,918.408 1050.93,850.581 1044.1,856.953 1176.93,744.604 1218.04,716.847 1307.27,642.888 1338.36,635.494 1423.72,571.1 1312.43,671.723 1291.02,681.584 1327.91,645.817 1278.73,699.582 1316.02,650.95 1314.92,661.934 1413.04,575.594 1299.41,669.586 1296.34,668.487 1319.1,637.385 1387.26,589.943 1379.93,604.819 1402.46,595.329 1385.27,623.762 1412.92,599.952 1370.76,637.406 1294.02,695.659 1273.9,695.796 1248.19,709.705 1271.55,681.529 1242.03,714.084 1185.31,763.486 1153.83,781.655 1094.57,831.923 1076.38,836.346 1083.72,831.024 1025.85,885.706 975.368,928.922 987.726,910.345 982.622,909.84 982.922,909.136 981.144,915.06 1001.52,888.893 994.759,898.239 1088.54,814.096 1112.59,795.488 1009.93,903.465 1015.26,889.134 1015.11,882.293 1013.89,883.156 1001.29,890.54 1001.4,901.84 1106.19,802.986 1179.35,735.754 1142.45,791.304 1187.57,743.652 1373.3,595.941 1429.2,558.794 1415.56,583.854 1380.62,621.376 1472.1,537.309 1646.93,431.751 1624.58,467.589 1481.26,595.196 1401.86,644.533 1417.58,611.515 1386.92,629.887 1342.31,668.345 1269.92,724.073 1278.84,699.519 1280.95,688.604 1245.91,715.141 1198.58,755.575 1217.32,724.819 1332.77,615.139 1401.16,568.469 1401.78,586.757 1483.16,523.161 1452.77,573.583 1397.67,620.496 1334.68,669.185 1333.06,657.841 1256.35,719.824 1204.98,759.39 1164.6,784.063 1114.85,826.937 1082.23,839.689 1122.17,791.164 1151.49,761.037 1103.74,812.068 1093.49,824.399 1085.51,822.986 1055.11,851.163 1041.41,863.622 1052.69,847.227 1074.87,825.114 1046.79,855.953 1002.15,896.464 1006.93,886.469 975.979,914.782 966.902,934.76 896.65,1001.75 828.007,1063.45 849.051,1027.65 860.657,1016.06 832.969,1038.65 794.803,1085.4 820.118,1047.2 794.235,1077.21 847.491,1020.28 835.032,1037.46 864.648,1010.99 877.852,1002.33 942.794,931 930.792,952.222 932.094,954.893 937.345,953.038 977.92,906.816 943.663,941.697 865.922,1016.97 868.049,1016.09 898.062,981.184 938.467,932.813 1062.4,815.518 1081.23,817.75 1063.51,845.118 1153.55,763.425 1113.11,813.697 1087.88,850.352 1104.61,817.957 1157.24,759.376 1213.23,720.373 1262.79,678.551 1295.92,662.864 1358.42,607.92 1287.96,681.049 1251.98,717.481 1301.62,673.656 1334.76,646.848 1287.96,685.948 1254.41,720.525 1241.97,727.177 1235.63,730.827 1163.91,779.485 1133.44,807.499 1087.65,835.884 1053.35,861.233 1023.96,886.363 1042.24,860.417 982.831,912.578 988.812,902.884 956.8,936.565 960.564,931.473 957.644,927.889 1006.55,877.188 961.934,926.584 927.694,950.88 975.087,915.012 963.623,926.642 934.76,949.558 925.566,964.615 941.561,945.686 961.801,923.853 990.674,902.899 998.319,890.369 966.568,918.444 911.773,969.523 997.551,881.694 1018.18,865.152 978.661,932.216 1015.53,886.827 1072.16,824.121 1049.98,849.371 971.694,918.067 1010.22,877.754 1090.56,825.797 1144.29,775.928 1124.22,802.152 1166.76,765.156 1098.72,816.301 1093.46,828.431 1111.9,813.916 1082.27,832.124 1097.87,811.582 1074.88,826.652 1139.53,775.275 1107.81,803.618 1123.42,791.876 1055.18,857.291 1116.14,803.195 1043.74,874.483 1033.82,886.917 1058.95,858.781 1015.51,882.795 1064.69,848.776 1004.32,894.803 1006.88,885.804 1019.9,879.128 1074.74,830.029 993.811,909.21 1064.99,853.189 1103.51,808.925 1170.23,757.247 1145.25,782.519 1134.97,793.596 1197.04,731.235 1224.44,726.702 1216.19,731.147 1234.93,708.882 1262.15,690.084 1193.06,756.5 1125.54,812.605 1102.24,822.258 1040.6,875.944 1017,891.106 1010.33,887.189 1024.29,863.644 1063.79,832.517 1108.09,805.61 1140.33,790.341 1070.6,842.925 1053.73,841.709 1055.4,845.184 1059.15,855.221 1120.02,802.28 1162.23,754.4 1322.3,631.239 1314.25,655.289 1298.57,674.998 1293.53,679.64 1356.77,624.346 1381.88,605.606 1309.87,676.006 1326.76,660.493 1264.65,706.516 1289.23,678.028 1276.12,693.209 1292.39,665.554 1295.76,664.115 1277.81,683.494 1314.27,650.455 1305.21,662.104 1308.11,662.384 1292.94,673.65 1279.86,687.39 1271.7,696.669 1180.49,776.72 1120.84,816.176 1141.59,782.159 1254.77,679.885 1335.71,623.096 1277.71,686.982 1293.78,662.247 1367.96,609.425 1406.11,593.49 1367.72,624.55 1383.99,618.96 1456.12,567.639 1456.69,573.327 1461.49,551.522 1393.15,611.036 1379.48,620.609 1339.88,662.285 1311.77,678.617 1331.31,646.382 1385.03,591.028 1330.41,647.59 1344.33,632.655 1334,648.941 1289.55,679.496 1281.65,686.802 1300.97,675.672 1334.21,641.693 1235.95,729.623 1118.23,830.864 1077.84,853.666 1043.99,872.623 1060.53,851.146 1090.37,815.101 1121,786.069 1133.74,782.583 1076.99,843.362 1115.12,796.951 1173.96,745.518 1190.01,741.181 1130.84,800.477 1105.46,812.121 1095.34,826.667 957.889,953.1 963.585,932.043 966.962,926.997 952.122,940.964 917.335,971.987 946.497,931.485 1002.87,874.31 1055.46,825.278 1055.05,836.164 1092.88,804.012 1024.46,883.318 1112.54,790.535 1115.76,804.293 1095.56,813.449 1005.44,902.243 994.165,893.094 969.807,923.111 931.135,962.368 942.442,942.225 1018.87,879.015 1046.97,851.384 1047.28,849.031 980.832,922.224 945.781,955.657 941.324,953.99 977.624,912.227 991.484,904.31 961.243,932.615 984.654,906.269 996.057,889.631 996.261,873.779 978.69,890.602 997.875,882.784 981.74,900.268 1000.1,882.202 1103.53,798.11 1115.73,798.532 1127.22,784.476 1107.96,788.076 1154.52,781.754 1071.36,853.322 1095.4,819.229 1136.9,780.018 1069.46,837.041 1116.19,800.699 1122.43,801.425 1065.76,857.516 1130.86,810.221 1096.08,839.438 1055.56,858.201 1049.29,858.453 1126.35,789.906 1080.52,843.506 1020.82,887.216 1007.15,895.565 997.033,899.058 1069.96,826.299 999.766,891.379 1024.75,874.01 1040.53,860.517 1078.58,834.084 1022.63,886.413 1061.82,848.55 1082.12,825.175 1068.59,836.214 1084.55,816.145 983.351,896.322 982.658,907.718 949.415,934.454 950.498,926.774 943.102,944.431 988.647,894.582 941.439,942.426 931.055,947.6 896.231,978.46 978.089,907.35 869.845,1022.67 841.253,1035.29 909.977,959.808 907.154,978.685 978.161,900.354 945.82,940.066 904.606,985.203 899.702,992.602 992.671,911.063 950.94,948.011 993.307,905.557 956.702,936.494 966.982,934.32 975.776,923.172 996.99,895.636 990.377,899.907 1001.67,885.229 1030.05,861.96 1022.03,875.007 1058.94,862.988 1018.78,897.68 1145.75,773.677 1062.09,855.99 1016.14,900.822 1015.57,888.131 1069.32,826.4 1158.06,749.515 1148.96,771.26 1128.84,797.582 1067.63,857.902 1159.98,769.179 1261.9,689.324 1264.12,693.223 1305.75,661.95 1185.78,761.069 1142.16,793.651 1097.9,829.434 1012.26,902.877 979.765,922.867 918.434,979.44 867.72,1023.6 830.023,1058.37 826.538,1053.81 805.419,1074.4 838.659,1034.16 890.346,975.076 886.252,988.705 891.105,983.851 921.646,952.27 994.033,884.834 1016.66,878.686 1005.55,891.633 911.366,982.143 908.998,982.05 922.069,967.624 863.544,1025.66 872.253,1006.23 945.128,924.917 977.347,897.459 932.147,950.548 1009.37,879.356 1041.75,843.455 1070.46,827.711 1030.97,869.457 1068.74,835.717 1091.2,819.312 974.185,934.353 1057.22,846.902 1027.82,870.628 976.29,897.599 938.636,939.933 974.129,913.491 1026.02,871.448 965.729,931.422 968.775,923.261 935.787,950.967 929.678,948.808 946.196,939.098 936.045,959.963 975.878,919.374 1091.76,804.988 1222.77,695.644 1210.72,726.487 1248.58,692.903 1259.14,692.709 1191.68,763.529 1093.55,847.244 1140.12,782.599 1195.83,727.595 1172.88,740.352 1113.57,799.479 1052.58,856.322 1022.78,882.226 1055.63,854.599 1189.06,737.025 1182.61,749.481 1054.86,852.259 976.216,925.764 899.076,994.266 900.436,979.83 894.093,994.125 894.414,983.052 920.903,966.93 940.037,946.903 998.255,894.464 1067.26,824.676 1148.68,767.12 1095.18,823.834 1078.87,839.229 1079.93,838.693 1120.45,805.873 1143.69,777.484 1088.11,831.706 1095.46,815.9 996.439,912.832 934.588,962.249 926.336,967.385 902.633,984.372 865.503,1026.64 865.472,1019.07 925.348,948.44 948.779,926.124 1096.32,783.227 1140.47,769.08 1118.77,798.029 1055.42,863.429 1059.4,859.579 1019.08,891.698 1027.33,875.612 999.994,903.334 1048.3,839.237 1027.94,868.962 992.593,907.968 921.286,976.748 1000.44,883.125 1041.45,850.075 1079.84,811.061 1082.08,810.178 1061.43,844.883 1112.57,791.919 1117.29,797.937 1084.28,829.514 1045.81,866.526 973.983,936.439 972.179,928.133 973.972,917.678 1063.75,825.077 1046.66,849.55 1097.95,791.47 1160.18,745.759 1264.14,670.945 1243,703.637 1368.94,580.826 1315.1,661.489 1265.7,702.506 1180.69,773.829 1150.25,788.522 1174.87,762.896 1160.71,770.69 1162.67,766.33 1206.33,731.739 1153.35,783.224 1095.65,832.471 1035.24,878.158 984.623,921.444 986.473,910.808 997.478,898.744 972.641,908.909 937.443,952.06 897.652,990.115 947.436,930.473 935.477,942.744 893.209,997.613 880.524,1008.13 929.699,947.088 932.32,951.815 898.719,983.945 857.658,1018.9 866.73,1012.96 969.075,907.858 926.488,958.15 960.383,919.062 967.671,919.279 999.859,889.508 1010.04,880.04 1080.11,814.207 1084.8,817.311 1068.16,837.329 1090.58,832.711 1048.06,855.776 1057.74,850.664 1079.06,834.195 1002.83,899.217 1003.1,894.457 1089.39,810.979 1129.09,781.892 1166.35,749.156 1075.52,827.097 1094.83,803.898 1110.93,809.137 1150.64,777.507 1146.26,775.164 990.395,909.766 983.319,914.548 961.236,928.183 951.835,939.907 881.327,1014.19 861.687,1030.69 849.793,1035.04 798.17,1090.13 809.061,1073.38 839.158,1035.9 851.959,1019.51 872.829,1005.52 869.351,1017.31 866.788,1015.36 857.468,1027.21 886.921,988.3 942.28,946.016 962.338,931.646 883.513,1011.84 940.124,940.949 904.419,970.64 850.334,1029.23 822.313,1060.14 790.41,1086.15 805.369,1065.98 851.131,1015.69 922.915,944.797 965.008,917.348 958.234,928.578 988.647,893.656 991.07,904.355 992.715,899.887 1041.37,855.576 974.972,920.456 1034.1,860.178 1117.11,785.417 1067.54,836.352 1113.37,799.177 1074.89,834.673 1091.5,814.109 1046.32,859.446 1085.52,826.774 1038.22,866.262 1020.62,879.148 984.929,917.525 1010.19,895.508 977.204,920.791 979.85,916.851 1105.11,808.7 1154.45,765.923 1159.11,769.65 1169.44,761.823 1094.51,833.008 1105.98,817.884 1150.07,779.355 1117.69,809.074 1119.18,795.27 1032.87,866.949 1125.12,786.114 1134.26,766.934 1189.87,722.271 1121.71,800.658 1093.13,836.928 1212.36,725.661 1122.42,814.55 1077.71,848.038 1214.5,699.204 1258.17,675.868 1267.62,678.031 1304.43,649.04 1297.17,670.266 1271.87,690.787 1278.46,683.412 1204.89,745.592 1197.55,744.898 1190.49,753.028 1193.97,750.682 1234.64,695.774 1248.06,692.565 1194.88,742.268 1060.75,854.898 1060.88,846.124 1061.77,841.913 1025.41,880.119 1063.19,841.876 1005.08,898.792 965.96,935.156 977.888,914.072 936.976,957.25 930.685,961.32 915.667,977.664 959.793,939.536 942.43,950.946 955.304,918.285 972.985,892.793 968.72,917.517 953.714,937.57 967.173,917.549 987.266,910.313 1034.11,861.001 961.741,940.018 929.985,967.487 948.543,938.757 941.838,947.694 940.418,941.869 949.931,923.121 961.685,914.515 1068.29,820.927 1066.36,829.66 1012.19,882.912 1008.31,892.68 965.968,923.202 1005.2,883.352 1117.79,792.87 1177.51,740.227 1133.01,777.575 1116.23,786.673 1088.68,815.976 1025.07,881.204 1040.56,881.639 1072.64,842.565 1137.67,781.174 964.361,926.401 1045.5,843.932 1133.75,761.14 1157.64,761.446 1219.11,715.074 1137.03,791.856 1088.37,828.194 1032.94,876.075 956.989,938.43 920.469,970.18 905,982.286 866.451,1019.24 838.937,1035.54 862.92,1011.94 866.155,1011.61 889.489,985.279 873.418,1000.32 940.553,938.57 915.592,966.256 923.296,958.306 878.26,1004.18 934.635,942.148 933.01,950.327 870.069,1022.42 920.313,964.699 950.622,934.204 948.435,926.276 994.236,889.949 1103.69,800.858 1051.06,868.175 1051.03,858.532 1080.08,827.123 1080.56,822.628 1136.86,773.498 1157.06,762.844 1118.08,797.546 1063.81,849.823 999.858,907.063 1041.97,852.036 1064.74,833.631 1194.23,731.844 1279.23,663.6 1285.7,670.745 1187.42,763.19 1196.77,746.43 1185.26,756.521 1214.48,730.256 1211.98,746.496 1196.02,742.966 1173.82,755.012 1203.02,740.206 1140.67,790.356 1211.3,735.046 1279.86,696.97 1327.89,635.673 1288.57,676.25 1156.14,793.184 1133.62,798.294 1049.31,869.982 975.099,933.239 930.835,966.208 957.993,928.633 946.968,937.977 950.794,935.018 911.855,972.682 917.986,957.774 985.376,899.943 979.575,916.515 1002.59,892.679 1042.7,859.994 1064.85,831.617 1111.1,792.522 1080.55,817.984 1132.87,783.079 1116.43,808.653 1108.09,813.394 1132.24,792.711 1145.94,783.794 1198.86,744.15 1212.65,735.641 1123.55,812.244 1109.63,820.707 1128.86,794.288 1111.62,811.719 1015.54,900.522 946.951,957.798 958.3,931.492 943.681,942.233 1001.74,883.12 1062.16,825.714 1093.97,807.156 1038.14,870.552 1028.39,878.394 1141.02,765.973 1101.37,812.985 1210.5,716.446 1259.9,690.278 1298.01,661.764 1305.56,664.381 1291.75,687.39 1292.29,668.5 1236.49,714.692 1151.13,785.416 1121.2,811.841 1130.29,794.814 1163.36,766.521 1194.5,753.3 1177.11,760.566 1163.88,775.186 1110.36,821.707 1082.07,831.683 1100.04,814.996 1042.25,874.291 968.895,935.039 993.107,900.085 1027.03,860.519 1062.94,829.818 1042.13,861.677 1110.69,793.516 1135.21,778.41 1149.6,772.161 1204.15,733.308 1245.46,707.714 1231.74,722.58 1183.72,769.268 1142.38,788.215 1180.04,744.522 1152.16,774.146 1231.34,709.097 1290,663.052 1126.07,810.879 1101.86,814.671 1030.55,884.486 1025.3,875.377 1045.19,853.332 1027.71,874.453 1005.14,897.473 976.565,915.158 964.338,924.627 969.077,916.686 889.449,995.688 917.982,959.108 869.245,1011.15 872.81,1010.97 870.889,1011.87 864.831,1019.65 903.678,976.935 886.728,991.157 882.91,994.057 830.223,1048.23 816.078,1058.72 902.487,971.039 949.128,924.049 968.297,925.234 949.512,943.539 942.932,953.838 916.282,976.155 921.5,965.121 991.608,892.629 1098.88,805.813 1169.86,747.254 1204.94,725.656 1169.45,762.145 1116.15,804.559 1061.22,849.75 1055.74,844.85 1060.95,841.082 968.973,934.07 923.088,967.362 918.201,968.53 990.746,888.894 993.345,893.795 914.591,980.219 1015.11,862.25 937.857,948.073 959.766,928.427 864.146,1019.66 874.275,1006.34 927.549,951.947 925.23,970.344 871.256,1014.22 823.007,1062.1 879.828,993.429 889.212,985.367 912.667,968.552 932.2,947.976 936.998,933.996 957.069,924.343 1018.72,871.201 1044.97,849.471 985.437,923.574 979.146,912.195 946.927,938.429 952.427,932.132 962.846,921.017 1012.17,870.892 974.062,899.126 1035.06,857.172 1014.77,885.533 1000.29,897.499 988.474,904.707 862.589,1020.46 885.157,991.976 899.492,975.962 890.486,984.799 944.106,927.748 965.917,922.616 1034.97,858.041 1106.96,788.624 1098.95,795.294 1116.97,801.468 1190.71,730.799 1197.6,735.199 1283.89,657.455 1162.22,767.578 1166.69,748.478 1104.68,817.48 1003.37,903.951 946.264,958.726 957.169,943.736 934.307,952.406 944.981,939.249 939.662,948.618 861.37,1030.2 839.064,1048.4 778.011,1112.47 775.192,1108.66 759.971,1124.58 775.647,1102.95 795.876,1080.34 845.758,1018.97 848.613,1024.78 831.495,1041.51 873.998,999.233 872.108,1011.72 897.945,983.673 874.331,1009.66 900.982,976.228 863.483,1015.15 935.681,939.968 1029.06,856.671 1110.2,785.641 1195.55,721.434 1278.51,655.485 1302.83,645.36 1342.1,628.796 1281.51,687.474 1352.9,624.817 1423.45,574.981 1527.83,519.185 1561.56,490.628 1618.69,467.02 1567.88,515.04 1433.76,618.961 1349.94,673.721 1392.71,615.068 1390.69,611.04 1336.05,657.966 1274.02,708.888 1221.31,749.297 1228.74,728.039 1208.36,742.766 1166.15,775.909 1130.72,801.622 1105.39,819.935 1155.91,762.283 1130.17,792.303 1104.08,813.888 1067.19,847.68 1096.88,813.994 1148.71,771.084 1179.47,748.543 1105.54,826.174 1063.97,857.975 1058.36,857.81 1085.11,826.276 1014.2,891.445 983.947,921.297 996.409,898.709 933.075,960.671 981.495,905.257 989.566,897.888 984.074,907.789 931.227,951.354 907.776,981.231 927.178,959.538 907.946,969.325 869.376,1016.7 811.442,1071.17 841.766,1037.19 840.04,1034.32 882.98,997.948 968.775,900.758 919.937,953.498 959.45,921.518 1005.88,879.36 969.311,928.938 1013.38,889.375 1096.42,804.34 1095.48,805.095 1129.15,797.978 1220.77,729.61 1144.06,782.521 1230.51,711.33 1220.4,730.872 1192.75,745.546 1293.13,669.518 1383.17,593.22 1279.54,676.565 1325.34,650.524 1371.72,619.911 1285.39,691.497 1235.81,724.625 1162.99,778.921 1149.2,782.362 1091.7,830.112 1091.34,818.778 986.671,912.48 962.214,936.045 942.884,945.807 986.784,900.777 975.116,908.536 1002.59,886.71 1037.61,846.572 1061.94,829.815 1091.2,802.099 1020.06,873.373 1076.39,827.718 1058.54,855.582 1050.18,866.141 1016.91,895.795 991.719,908.941 1009.72,879.43 1042.82,849.567 1093.43,806.512 1130.45,781.227 1212.33,716.221 1154.49,782.147 1192.17,753.432 1074.62,853.138 1033.05,886.246 1068.38,838.453 1036.3,862.37 1178.94,725.441 1243.77,690.384 1255.78,693.543 1223.28,724.859 1267.17,697.995 1355.53,629.588 1323.78,667.694 1307.47,665.865 1352.99,622.366 1299.26,675.931 1272.46,693.027 1264.43,702.309 1214.12,740.349 1248.8,696.325 1185.84,760.381 1212.17,726.759 1090.66,840.299 1075.6,846.866 971.994,936.451 961.168,933.826 991.398,900.596 967.951,922.198 986.128,901.14 991.232,884.1 1053.61,833.864 1043.14,858.961 1073.93,829.359 1065.8,847.554 952.839,940.048 972.165,914.478 1007.53,876.451 1045.99,847.878 1018.01,887.123 1103.66,795.796 1097.94,805.376 1104.52,808.462 997.984,903.726 1029.53,868.469 1034.7,875.764 982.345,911.284 969.191,924.292 948.308,940.78 983.915,900.131 961.154,925.325 933.025,958.909 979.781,905.139 991.908,888.904 1057.51,843.513 1062.78,840.264 1027.17,870.293 969.995,918.498 1011.71,877.206 1026.2,860.223 974.766,917.573 945.416,939.732 954.316,936.236 932.019,960.067 928.769,978.785 982.809,912.099 1114.79,785.008 1197.81,718.511 1268.71,675.394 1305.91,647.557 1283.12,672.059 1360.48,624.136 1283.88,692.795 1238.64,725.862 1187.48,762.604 1165.63,773.906 1091.77,830.45 1134.19,785.491 1152.67,773.681 1091.4,834.375 1052,866.908 1026.01,887.26 1052.97,851.931 1008.27,904.925 982.29,911.445 1009.86,877.566 931.295,972.728 861.087,1036.86 880.852,1002.58 918.858,957.028 931.984,945.301 952.021,924.774 928.564,957.776 949.5,937.296 1050.86,829.927 1046.91,842.687 1132.18,766.057 1152.19,764.907 1102.12,819.429 1121.98,800.248 1102.82,822.754 1086.69,830.039 1089.71,818.102 1029.18,882.962 1055.05,847.451 1051.41,845.002 1014.89,882.937 1067.82,837.55 1094.71,813.804 1166.84,751.916 1150.12,776.937 1164.2,761.653 1145.8,779.944 1126.24,811.921 1077.83,848.963 1038.19,875.107 966.559,938.307 966.782,925.541 993.243,897.812 886.833,1006.46 889.753,995.025 970.497,907.414 1025.14,871.595 1049.51,858.097 1065.35,835.998 1121.91,782.248 1095.97,826.865 1110.87,815.714 1022.35,891.002 1081.52,823.609 1069.11,837.747 1045.94,862.016 1016.14,895.37 979.572,921.728 982.658,913.625 946.596,952.81 916.464,980.548 850.801,1044.24 855.25,1031.19 830.002,1057.12 814.677,1069.62 828.298,1050.93 892.902,973.306 883.848,984.179 903.729,965.871 905.773,973.78 895.354,986.143 924.895,952.458 934.203,949.852 907.763,986.518 899.059,985.983 901.319,980.881 874.353,1005.68 974.344,915.027 959.927,924.92 945.175,942.394 855.07,1034.09 869.587,1007.85 910.998,955.962 929.585,944.171 857.78,1028.38 811.082,1085.67 815.148,1065.31 867.941,998.319 896.979,977.959 884.915,995.356 904.276,977.932 864.316,1017.89 868.508,1011.6 873.982,1005.95 863.22,1019.7 880.408,992.019 928.053,937.149 1037.14,836.306 1029.83,860.652 983.776,911.128 988.124,911.01 1090.7,811.356 1113.65,800.084 1195.78,728.228 1185.09,738.255 1266.35,673.887 1372.23,608.519 1413.11,587.129 1240.29,724.466 1252.74,707.963 1201.46,758.621 1183.96,761.043 1121.18,809.795 1132.35,786.945 1130.78,798.918 1056.43,865.248 986.332,923.671 966.672,931.425 950.243,942.428 972.272,908.87 1008.35,869.058 1009.57,879.103 931.036,968.037 930.583,955.677 902.204,983.904 895.53,984.347 949.16,925.188 914.908,970.248 975.699,902.152 979.816,910.477 978.299,909.282 964.753,918.237 996.57,888.587 1008.11,880.477 921.775,965.174 839.777,1047.36 881.119,987.262 895.57,984.265 938.013,939.011 976.333,907.664 981.757,910.686 1013.55,879.742 1122.69,772.154 1176.3,740.122 1125.84,794.277 1023.73,886.541 1037.24,865.827 1076.54,827.966 1083.37,828.322 1053.1,849.379 1098.42,794.733 1206.68,707.385 1256.76,671.182 1206.56,739.28 1160.99,786.864 1100.07,834.679 1078.76,842.087 1106.76,803.831 1123.96,787.021 1100.9,809.472 1200.8,731.899 1178.22,764.168 1140.91,793.383 1200.59,730.603 1172.94,765.122 1121.6,806.601 1141.28,779.197 1100.12,810.944 1114.97,801.856 1071.1,845.495 1018.24,889.33 1004.64,905.78 1045.99,859.699 1108.71,805.417 1102.67,808.847 1121.61,789.522 1197.35,727.161 1234.66,704.277 1150.45,793.516 1135.25,796.347 1111.29,816.238 1124.56,802.147 1156.85,781.079 1217.07,723.954 1261.3,681.526 1327.82,637.624 1259.97,692.923 1247.96,707.73 1211.04,731.188 1257.82,691.712 1258.1,693.603 1181.13,763.618 1133.83,796.336 1172.43,754.417 1161.07,771.239 1138.32,780.757 1128.22,789.099 1171.77,746.542 1085.46,817.428 1070.54,837.1 1046.14,854.052 1079.63,822.121 1050.81,854.77 974.763,920.189 966.414,925.028 991.956,894.098 1050.06,840.801 1063.28,837.1 1070.33,828.114 1030.78,878.394 1005.75,900.904 978.84,926.508 937.279,967.245 957.594,930.672 996.238,888.801 1041.14,855.762 1096.73,799.749 1109.78,789.986 1126,786.8 1254.09,678.363 1266.02,688.786 1252.68,703.915 1205.53,741.699 1207.73,732.77 1187.22,754.812 1181.28,761.955 1198.4,741.176 1247.88,702.686 1138.07,805.025 1214.99,721.566 1143.67,791.702 1193.59,745.633 1212.96,751.886 1161.41,787.085 1202.55,732.029 1159.04,770.868 1107.52,818.601 1113.84,797.21 1138.43,771.422 994.207,898.956 970.9,922.973 985.596,899.698 1005.95,877.956 946.48,937.06 1024,867.365 1138.55,761.213 1106.63,795.273 1272.92,647.306 1287.9,663.571 1253.61,709.798 1315.1,654.084 1223.31,731.43 1202.75,742.93 1178.45,761.944 1134.87,792.562 1119.55,809.562 1080.82,839.58 1146.25,762.577 1173.46,753.075 1226.78,701.708 1257.37,677.799 1294.16,663.06 1388.85,590.907 1393.41,612.537 1401.06,600.54 1366.76,627.375 1380.78,617.514 1355.73,638.416 1254.54,726.686 1300.43,663.525 1273.95,691.834 1250,706.213 1344.79,611.783 1285.64,681.523 1296.95,670.185 1167.49,779.403 1098.35,840.787 1054.32,872.203 1005.44,913.28 950.218,955.672 994.319,896.612 988.127,903.02 917.849,979.046 949.585,933.553 929.833,959.346 891.506,1002.11 913.285,970.491 901.539,978.039 911.385,964.558 937.751,948.929 957.839,931.658 895.205,1001.11 968.13,908.207 985.723,899.464 1017.63,872.221 1046.22,851.035 1051.26,845.878 947.694,945.316 905.939,988.177 895.354,981.801 876.818,1007.32 874.171,1017.13 855.877,1018.08 877.923,999.36 886.67,987.97 959.392,925.574 1062,823.393 1087.43,821.568 1107.72,802.421 1117.94,793.822 1159.8,759.471 1213.75,724.506 1159.12,776.574 1194.35,739.213 1274.21,660.857 1329.83,638.107 1328.97,648.271 1345.29,623.641 1266.24,701.959 1162.29,783.948 1086.6,843.812 1097,817.843 1089.84,826.503 1113.42,795.065 1140.94,771.39 1105.28,814.244 1123.01,790.297 1197.21,757.315 1251.41,701.415 1129.89,805.114 1150.47,785.437 1161.37,775.382 1168.86,754.085 1150.88,769.413 1071.91,850.344 1095.24,827.854 1077.65,836.944 1076.88,833.908 1061.04,854.891 1023.67,884.313 1010.69,893.607 1014.36,884.909 1043.15,857.043 1096.6,805.78 1113.26,802.526 1084.18,834.836 1093.04,818.238 1150.41,754.332 1195.88,725.971 1200.56,731.136 1219.13,720.965 1224.02,721.015 1185.76,757.157 1186.19,747.458 1167.74,766.396 1115.11,806.45 1166.89,751.91 1198.67,731.497 1164.09,763.729 1153.6,773.661 1182.61,745.008 1161.95,771.995 1199.65,745.4 1174.22,762.109 1168.4,759.586 1170.84,741.743 1177.44,741.443 1133.45,794.912 1117.11,808.975 1055.92,856.232 1002,899.056 987.787,905.311 1089.76,823.992 1119.32,800.117 1219.83,710.54 1217.98,727.681 1176.95,760.399 1162.2,772.728 1172.91,751.814 1141.52,781.08 1124.32,803.801 1304.59,649.241 1256.14,692.694 1186.66,756.225 1250.74,683.086 1366.6,602.687 1455.21,544.151 1346.93,640.972 1237.47,736.139 1198.86,755.575 1271.1,681.902 1257.89,705.953 1232.73,726.983 1288.33,665.219 1277.68,679.648 1260.81,700.303 1183.55,765.304 1135.05,797.396 1120,800.04 1054.75,865.059 1067.66,838.455 1085.94,818.512 1142.35,784.397 1124.73,795.26 1188.09,738.103 1220.55,722.849 1160.9,777.74 1122.35,804.216 1134.84,792.421 1153.06,774.787 1199.74,738.481 1142.7,789.017 1054.19,862.56 1077.83,833.578 1089.93,823.193 1104.95,809.264 1052.78,856.512 982.197,920.62 1018.66,875.814 981.645,911.577 1052.83,834.259 990.407,900.616 994.93,906.465 944.615,942.382 887.102,993.607 862.33,1018.84 858.486,1022.76 844.235,1036.01 878.741,1002.08 907.278,971.252 924.999,956.838 936.945,943.592 958.617,930.38 1024.72,864.772 970.332,925.867 986.026,914.57 997.333,892.059 995.206,878.702 1031.81,856.586 985.662,892.51 940.314,940.614 1023.66,868.886 1050.41,856.819 905.3,984.456 904.713,976.449 924.098,953.84 886.773,1001.09 893.676,990.293 888.451,991.936 924.064,965.936 921.144,961.33 854.613,1022.02 844.882,1037.51 858.489,1011.65 886.556,1000.36 876.517,1004.75 943.81,924.269 900.302,977.143 915.182,965.599 964.432,921.765 927.126,961.744 917.82,964.849 937.396,945.098 928.452,955.427 985.479,900.139 1051.31,842.119 986.144,906.97 936.379,951.85 852.335,1030.71 856.594,1024.61 806.026,1075.72 875.929,999.691 925.404,960.168 889.163,1001.89 895.555,991.566 896.538,995.163 908.995,977.311 963.091,920.859 924.512,964.142 989.522,887.605 976.504,910.974 942.113,939.459 1037.17,855.197 1007.95,889.372 986.145,909.484 1034.35,864.098 1122.97,775.15 1101.81,815.086 1150.19,771.177 1104.94,820.603 1108.91,814.389 1029.37,874.828 974.414,927.188 1022,877.575 1035.65,868.939 1001.57,891.679 1069.42,824.838 1128.07,782.316 1180.68,755.817 1151.49,785.788 1136.67,799.705 1109.39,819.054 1179.64,757.175 1300.7,655.979 1164.24,779.022 1149.57,778.684 1175.9,742.405 1141.14,803.942 1223.24,721.017 1184.03,756.241 1181.59,760.945 1227.85,720.253 1208.71,742.636 1176.83,757.429 1143.3,787.784 1169.66,776.522 1189.6,743.582 1202.74,732.125 1334.26,646.627 1346.36,644.476 1362.2,622.656 1276,700.142 1163.25,797.129 1147.79,799.683 1089.97,841.364 1150.44,772.014 1119.88,804.192 1063.29,856.675 1049.42,862.252 1006.96,905.301 974.219,924.164 937.295,960.582 917.256,977.134 900.154,989.55 905.105,978.456 939.587,942.98 1021.32,864.261 995.061,906.401 1020.96,874.316 984.513,913.973 987.953,910.452 1058.05,843.099 1108.07,803.11 1095.36,805.947 1202.93,709.187 1302.83,650.6 1360.91,618.289 1272.51,704.696 1248.29,714.281 1155.44,793.123 1160.19,778.453 1198.28,745.783 1177.49,757.611 1154.74,780.188 1164.7,772.346 1126.63,802.569 1126.7,799.368 1058.79,855.815 1094.25,815.477 1094.86,814.579 1069.99,842.859 1079.08,827.977 1121.44,787.987 1134.2,778.564 1193.63,735.487 1282.25,669.738 1229.52,730.915 1331.33,637.812 1332.85,643.021 1348.77,643.317 1322.55,663.334 1289.05,693.555 1252.46,719.077 1151.76,800.96 1152.47,788.575 1123.65,813.457 1123.47,804.651 1139.75,783.172 1127.74,797.45 1063.65,849.105 1066.03,837.41 1060.35,845.234 1068.11,835.995 1017.9,889.117 1022.12,882.161 1106.83,798.761 1129.21,789.854 1114.1,805.036 1157.05,769.896 1238.33,695.223 1143.33,779.171 989.489,910.453 936.951,959.074 977.448,913.384 1022.48,875.529 1083.3,817.975 1017.4,882.011 1065.03,831.988 1052.32,834.457 1028.88,851.205 1019.86,864.578 1046.59,849.328 1019.51,881.964 998.988,911.185 1018.64,872.062 943.779,952.238 922.302,967.785 939.625,955.508 947.732,954.185 888.883,994.616 854.376,1025.84 901.686,977.224 932.629,949.025 959.486,924.845 958.323,926.139 1038.8,853.959 1076.38,820.647 1112.49,800.202 1093.55,819.869 1193.39,730.874 1232.11,707.634 1193.82,747.809 1189.47,748.077 1172.56,771.401 1214.29,733.263 1161.68,777.479 1139.88,791.923 1232.44,711.559 1153.01,773.504 1257.1,677.817 1372.23,602.616 1425.99,581.395 1338.11,655.362 1324.69,658.265 1226.05,737.81 1173.69,772.971 1100.16,831.862 1023.08,900.137 1059.11,853.302 1070.84,841.479 1138.9,765.595 1218.99,715.192 1198.53,738.473 1241.76,701.116 1303.35,652.027 1330.26,639.393 1238.47,726.411 1160.04,797.023 1182.11,753.74 1188.12,742.206 1203.37,725.991 1267.85,667.271 1348.47,620.086 1389.98,583.688 1346.48,636.712 1313.8,661.111 1186.4,777.362 1275.87,677.541 1299.2,664.81 1315.3,659.911 1276.24,701.568 1215.88,743.927 1164.06,784.581 1106.96,825.339 1135.55,785.405 1134.33,789.274 1128.2,791.099 1147.9,770.024 1252.02,677.379 1334.82,612.848 1320.55,651.992 1272.01,698.134 1262.66,698.135 1296.02,664.246 1263.15,703.066 1350.2,617.272 1351.63,624.256 1365.83,615.705 1390.32,601.582 1346.29,644.045 1291.76,684.919 1265.53,699.523 1208.35,737.753 1220.76,724.3 1201.02,742.41 1114.28,821.3 1011.17,912.983 1014.57,894.874 1039.3,859.849 1014.3,882.578 1141.53,748.483 1093.18,814.607 1131.78,779.52 1145.49,771.106 1140.11,778.886 1226.48,706.336 1215.36,723.559 1174.93,761.807 1203.06,743.298 1232.16,714.16 1200.2,730.506 1266.83,692.527 1247.74,708.991 1186.08,756.385 1162.14,784.656 1042.72,888.681 993.019,924.809 1056.68,845.438 1104.82,796.259 1137.96,765.113 1109.02,807.52 1026.05,887.687 1029.29,874.893 988.682,909.81 1015.17,873.899 961.977,926.621 981.299,892.662 948.907,934.282 1050.15,831.945 1033.7,853.384 1006.86,881.059 1130.9,773.606 1185.29,735.077 1279.26,659.807 1306.74,654.1 1319.76,646.01 1327.24,659.756 1326.31,652.146 1318.44,656.872 1276.48,692.233 1198.13,751.884 1124.2,821.061 1054.25,872.303 976.072,939.707 948.778,953.211 939.636,956.088 923.606,969.233 943.066,942.588 922.238,968.351 903.044,980.254 892.841,987.577 932.572,946.574 910.033,972.623 897.179,990.683 902.17,981.359 891.674,990.714 952.549,944.96 915.393,983.515 874.154,1016.12 865.283,1017.81 904.281,973.972 917.922,956.895 913.355,972.999 936.27,951.35 1000.1,891.519 995.128,909.466 948.548,948.497 903.171,989.586 929.573,957.327 901.554,982.757 928.62,949.594 963.139,925.572 954.629,929.098 1036.3,857.332 955.339,935.931 998.525,890.831 994.359,894.995 992.746,897.559 1061.64,850.079 1146.59,764.236 1132.62,781.288 1123.24,794.701 983.142,899.974 939.254,950.594 897.844,990.65 921.666,960.875 925.321,957.14 941.577,947.56 907.271,982.419 943.746,936.043 929.582,949.455 854.731,1026.34 858.121,1027.84 859.286,1029.9 847.001,1031.44 878.296,995.285 904.605,972.73 902.795,979.276 941.722,932.073 945.31,948.342 947.967,937.284 927.028,970.099 987.778,902.302 991.819,900.445 1076.84,832.387 1154.48,757.608 1143.77,782.18 1114.37,806.147 1221.65,725.162 1176.02,765.494 1157.53,772.025 1134.96,787.062 1176.87,755.242 1116.22,814.682 1155.41,766.843 1166.36,770.661 1194.31,746.125 1075.34,835.812 1050.79,849.473 1068.34,831.048 1079.68,839.917 1033.27,878.651 1073.81,827.166 1026.18,874.109 1018.86,878.483 1024.01,878.151 1020.65,873.609 1036.16,865.878 966.503,948.078 939.495,963.619 948.322,945.925 920.167,968.773 929.538,952.257 907.724,981.126 918.832,962.911 934.819,945.025 884.486,991.007 895.399,985.141 880.22,1002.59 926.362,968.652 873.004,1016.26 916.081,968.674 869.679,1024.22 884.078,993.659 901.715,981.7 931.254,954.611 892.603,982.192 1011.44,866.066 1017.81,873.321 1066.1,831.563 1075.02,822.087 1057.41,837.873 958.007,924.231 988.067,892.972 1066.16,839.548 1061.61,849.247 1082.17,820.997 1072.9,824.292 1040.2,851.191 1031.45,857.315 1045.56,857.996 1077.68,821.537 1124.97,795.835 1155.65,770.324 1180.21,752.043 1124.29,798.703 1138.1,785.728 1145.5,779.25 1060.96,864.005 1018.13,891.222 1049.82,847.695 1148.58,755.246 1162.16,754.052 1105.23,810.762 1031.45,882.953 976.484,927.026 1033.18,856.656 1114.75,777.487 1136.06,769.191 1134.7,777.387 1002.71,917.986 947.308,961.027 934.068,964.426 965.351,921.051 929.269,963.42 953.906,934.451 883.909,1011.44 860.587,1030.89 889.434,988.772 831.556,1053.02 828.165,1052.14 865.167,1005.26 883.92,984.804 932.906,946.182 933.986,949.142 934.626,953.077 945.572,944.464 979.11,906.849 963.101,916.922 954.694,928.918 1024.11,862.414 1055.16,831.489 1097.22,805.196 1141.21,770.609 1171.2,766.041 1161,765.781 1217.02,722.196 1256.68,698.398 1239.53,717.554 1194.38,743.696 1212.21,724.806 1299.46,668.542 1283.11,683.026 1329.3,647.52 1180.07,774.988 1244.32,704.652 1268.09,685.162 1270.62,689.53 1327.78,652.393 1306.92,676.239 1242.13,721.71 1240.23,717.221 1196.06,746.75 1140.23,794.698 1088.01,839.658 1102.71,811.124 1126.25,798.988 1044.57,867.069 1067.92,835.891 1062.52,842.455 1138.49,778.568 1209.38,718.626 1218.31,722.18 1195.43,739.797 1149.58,781.307 1188.52,744.133 1138.98,781.537 1153.35,780.451 1126.71,800.139 1069.68,849.045 1059.02,850.714 1003.63,898.131 975.302,923.026 971.645,925.763 1010.55,892.583 1033.68,861.985 1044.31,846.166 1054.62,834.791 1119.28,803.506 1155.32,776.742 1075.48,842.158 976.241,928.544 986.736,904.529 988.787,897.256 944.43,939.857 894.655,997.004 822.558,1066.26 872.239,996.542 894.594,984.969 952.943,928.103 987.918,898.811 982.474,901.551 970.421,922.028 996.571,895.306 952.506,946.921 1004.63,900.357 995.939,900.302 1006.24,888.182 952.718,948.775 930.622,975.199 974.287,923.456 1015.13,888.904 1019.07,864.581 1028.35,851.235 1012.48,874.37 1067.1,835.99 1143.84,793.139 1193.93,741.75 1151.99,778.619 1220.56,719.106 1253.37,700.858 1199.39,751.426 1254.84,695.268 1153.22,771.541 1153.93,771.099 1247.86,691.68 1292.9,663.234 1476.46,522.59 1423.67,565.366 1486.41,530.601 1579.27,469.509 1692.63,404.181 1781.27,355.68 1732.53,410.635 1676.85,457.793 1589.07,523.045 1544.93,548.239 1501.13,570.035 1460.12,592.606 1493.12,551.88 1468.88,564.538 1419.27,602.107 1415.26,597.691 1382.08,630.004 1392.75,607.804 1358.21,636.084 1308.82,677.211 1284.69,692.548 1255.53,712.439 1258.72,702.749 1244.67,711.89 1223.96,726.164 1247.23,695.445 1208.81,735.952 1197.97,745.015 1122.75,810.186 1104.15,821.964 1095.98,818.978 1092.76,819.489 1095.59,814.983 1087.98,825.811 1101.56,814.753 1079.32,827.613 1128.07,780.842 1080.72,835.261 1132.26,781.023 1160.52,761.704 1212.74,710.668 1234.39,709.689 1218.22,731.062 1215.66,740.593 1272.67,684.833 1212.18,741.682 1101.01,832.144 1050.85,867.944 1084.14,824.741 1046.26,867.744 1000.98,903.858 958.675,946.311 929.456,969.305 974.377,915.984 1064.19,826.683 1056.37,845.61 1082.11,821.073 1133.18,777.988 1097.08,821.973 1122.89,793.869 1151.42,760.657 1191.81,739.032 1186.69,747.964 1144.91,794.232 1201.37,734.503 1172.6,757.296 1092.91,839.039 1096.97,825.617 1099.87,817.236 1042.09,875.724 1010.5,905.81 972.555,931.536 996.022,899.276 961.738,927.608 957.664,928.347 944.599,938.734 991.168,889.613 998.454,884.727 1057.92,838.935 1135.61,770.553 1178.6,747.232 1188.01,746.817 1284.62,682.045 1127.76,815.045 1117.99,814.746 1134.45,787.844 1094.56,824.718 1114.43,800.788 1077.42,854.506 1014.37,911.299 999.762,909.537 1022.76,868.629 986.344,912.68 911.82,975.835 927.8,953.238 959.259,921.498 953.121,930.512 947.583,940.789 916.013,973.091 876.834,1010.62 907.41,980.986 859.441,1022.04 906.41,973.752 904.866,982.492 928.316,950.785 957.396,918.494 943.59,945.079 920.828,973.347 936.81,966.232 928.128,959.892 841.437,1049.78 759.514,1130.94 739.556,1152.1 710.45,1178.01 722.078,1158.09 723.449,1153.88 727.359,1149.65 829.706,1025.49 835.591,1027.5 855.464,1013.97 901.372,967.122 947.804,921.095 960.901,910.393 964.352,913.325 977.659,905.535 938.197,946.52 983.171,910.825 984.017,909.281 940.711,952.197 915.327,973.273 883.287,1003.91 877.364,1007.42 867.399,1010.9 881.743,994.836 941.942,944.49 968.635,921.005 992.786,891.362 955.793,924.885 891.873,993.297 1020.75,860.231 960.887,934.346 926.059,966.826 905.512,985.811 886.187,994.231 888.95,989.279 841.583,1047.02 818.572,1061.49 873.205,998.143 859.518,1020.78 887.378,985.726 879.363,1000.45 922.806,956.811 964.155,908.541 1044.2,839.085 1078.29,820.925 1142.67,767.202 1173.7,745.813 1077.35,835.731 1074.35,834.295 1062.84,841.324 1009.46,878.405 1052.47,848.269 1026.45,880.447 1151.26,767.468 1197.38,732.934 1157.68,781.545 1071.35,871.056 1039.28,883.252 977.187,935.952 1016.8,889.083 1075.74,834.393 1121.16,786.188 1094.79,823.083 1098.92,820.503 1039.13,872.925 1037.49,869.976 1045.09,858.689 1082.19,820.547 1027.22,882.223 1050.47,860.992 1045.13,864.8 1048.61,850.986 1057.14,845.876 1116.59,781.38 1067.85,838.909 1018.84,881.072 964.593,929.953 982.573,905.582 937.88,947.386 986.036,913.064 965.799,927.798 956.283,944.477 993.936,895.999 1063.85,831.872 1156.51,764.119 1198.88,731.502 1226.17,707.3 1262,685.387 1143.44,789.174 1130.87,795.373 1121.74,793.605 980.271,915.801 998.317,893.671 985.327,923.822 1038.71,864.06 1033.89,858.818 967.485,909.441 982.969,910.922 929.564,961.761 942.919,951.521 1009.16,892.256 1060.04,828.264 1069.23,819.375 1040.13,867.995 945.907,952.065 989.598,896.331 946.508,937.697 909.079,973.685 878.086,1013.57 885.98,984.605 875.445,1002.36 1000.86,871.82 1061.43,820.024 1065.91,827.743 1086.78,825.961 1030.48,884.627 1009.13,892.197 1014.42,877.88 1029.29,869.389 1061.24,843.629 1035.47,875.18 977.61,926.611 972.109,923.263 978.285,912.511 1037.62,849.345 1052.14,845.205 1137.18,775.037 1144.99,778.63 1083.34,845.393 1034.7,882.799 1015.37,891.832 1031.51,871.675 1055.06,848.52 1055.24,850.635 1009.54,889.05 1030.01,862.42 1035.14,864.655 1019.07,883.853 1039.22,863.111 1095.53,818.704 1132.18,784.109 1206.81,710.361 1282.72,659.715 1245.08,714.491 1326.99,638.255 1374.83,609.501 1257.68,717.795 1261.43,707.811 1222.26,727.58 1157.09,788.241 1126.09,806.633 1088.2,831.765 1121.4,793.38 1141.05,772.351 1185.37,740.269 1179.17,753.924 1187.56,757.497 1104.13,830.047 1106.02,821.831 1097.42,824.97 1032.14,881.665 1005.98,899.258 993.618,904.805 982.151,906.629 1035.37,851.646 1066.56,834.973 1020.08,883.085 1054.97,840.501 975.566,911.464 1055.95,830.823 1012,881.857 1006.08,883.973 1074.88,826.759 1109.31,800.159 1063.07,851.983 986.813,925.761 945.977,958.077 906.611,989.462 842.81,1044.31 834.484,1049.19 872.67,999.083 907.76,966.987 895.262,987.067 932.794,942.187 995.241,880.082 1023.03,860.84 968.845,924.88 1015.63,877.225 1011.38,880.949 1122.38,791.964 1139.36,782.922 1076.4,843.48 1115.9,802.493 1055.33,861.423 1000.83,914.752 1002.46,905.214 945.305,954.424 919.429,977.338 853.981,1043.59 854.405,1031.54 838.429,1043.38 822.655,1057.62 815.516,1064.13 840.723,1034.1 914.492,955.421 915.15,966.673 987.872,890.11 1011.04,884.157 983.573,915.861 983.363,917.903 991.936,895.036 1048.86,844.762 1071.35,822.142 1097.91,807.679 1017.86,878.777 1017.75,874.163 1031.79,865.058 973.433,912.014 1127.39,769.511 1170.02,747.498 1217.93,716.421 1169.71,761.658 1074.25,844.777 1021.21,877.802 1039.37,857.879 1058.5,837.201 1109.69,798.438 1100.11,811.675 1062,847.564 1029.53,879.09 1035.78,862.117 1080.63,818.369 1122.05,780.043 1118.7,796.426 1042,872.333 1065.14,852.54 1174.76,747.042 1196.08,733.088 1301.56,650.378 1302.13,671.052 1271.72,694.106 1267.94,698.549 1262.93,691.909 1237.51,714.003 1280.86,681.695 1396.25,593.89 1303.02,662.824 1237.4,721.481 1299.1,662.808 1257.4,717.242 1225.69,731.898 1095.49,849.969 1049.35,878.37 1073.25,834.916 994.616,909.477 1000.1,893.398 984.077,912.416 1038.48,862.334 965.48,933.197 995.612,893.308 1023.24,865.45 967.161,914.733 938.657,939.221 992.266,889.411 965.405,918.818 955.027,928.052 978.695,896.184 1047.01,840.611 1038.08,862.2 1031.99,867.643 1090.73,805.288 1089.94,800.098 1121.38,778.292 1126.81,795.752 1047.95,880.119 977.374,930.44 925.975,978.769 934.944,959.791 930.589,960.97 931.6,960.614 912.953,977.332 952.674,930.19 1003.42,883.543 1052.18,839.296 1051.63,849.25 1050.71,865.306 1042.82,876.216 1021.66,890.112 1006.12,890.608 978.698,916.197 998.662,888.877 976.154,919.7 979.247,922.741 1004.36,900.808 1048.09,843.448 1000.71,879.754 991.965,893.16 1036.7,847.595 1048.25,843.643 1122,798.579 1161.44,776.967 1100.59,840.854 1164.21,769.807 1205.56,734.472 1116.41,802.487 1093.44,819.353 1162.36,773.707 1163.85,764.713 1108.6,818.12 1093.91,827.356 1068.37,853.624 1047.3,874.023 1090.84,855.863 1059.16,863.046 1079.72,832.509 1155.08,751.323 1083.84,816.343 1114.04,789.085 1065.6,846.311 988.198,906.487 968.738,919.076 1085.39,815.158 1134.43,766.898 1113.14,798.868 1100.76,811.711 1129.17,805.053 1149.45,777.688 1130.8,792.505 1080.15,852.087 1080.73,838.497 1003.81,911.014 990.506,912.452 963.64,938.345 929.343,969.121 953.141,934.974 944.58,939.784 967.066,917.181 988.092,890.291 898.355,989.331 990.852,887.194 923.174,964.476 1033.08,857.637 1032.03,866.242 1050.11,850.485 1064.12,840.959 1039.76,861.037 1100.97,810.775 1058.69,848.25 1044.52,842.933 987.672,911.839 949.834,944.646 917.076,970.816 935.372,944.91 993.64,881.415 1000.88,886.944 1026.49,864.587 983.698,910.334 997.8,896.238 1010.76,888.902 1008.51,890.718 1043.43,874.397 1067.16,833.239 1156.04,761.115 1069.53,851.266 1054.24,862.854 1077.82,839.594 1060.9,845.442 1063.28,839.307 1103.91,810.115 1093.78,820.72 1103.66,810.023 1062.25,847.721 1024.23,881.963 1007.03,894.255 1043.19,853.424 1021.6,875.746 964.038,930.911 985.297,904.544 1042.88,842.464 1107.88,786.732 1131.65,776.043 1178.85,740.245 1146.81,776.204 1130.87,788.329 1156.38,765.187 1211.49,732.375 1274.5,669.033 1327.54,634.246 1276.79,683.868 1172.64,770.64 1164.32,774.732 1261.46,667.348 1172.45,752.805 1111.93,813.271 1115.91,803.764 1070.16,840.518 1136.29,781.587 1096.76,831.622 1229.01,708.198 1204.18,737.105 1167.53,749.772 1134.09,781.502 1071.2,840.368 1080.86,830.093 1045.57,851.804 1117.06,787.102 1113.92,804.285 1033.21,885.78 1018.47,876.077 1003.22,895.834 1028.98,870.764 999.411,896.737 1007.22,890.865 939.617,950.793 1046.43,835.349 1005.78,890.223 1049.06,849.764 1032.55,849.893 1045,848.398 1016.09,881.335 1007.58,889.725 977.281,910.818 1024.25,858.067 1058.72,839.515 1088.44,820.39 "/>
<path clip-path="url(#clip450)" d="M212.753 198.898 L574.108 198.898 L574.108 95.2176 L212.753 95.2176  Z" fill="#ffffff" fill-rule="evenodd" fill-opacity="1"/>
<polyline clip-path="url(#clip450)" style="stroke:#000000; stroke-linecap:round; stroke-linejoin:round; stroke-width:4; stroke-opacity:1; fill:none" points="212.753,198.898 574.108,198.898 574.108,95.2176 212.753,95.2176 212.753,198.898 "/>
<polyline clip-path="url(#clip450)" style="stroke:#009af9; stroke-linecap:round; stroke-linejoin:round; stroke-width:4; stroke-opacity:1; fill:none" points="237.35,147.058 384.937,147.058 "/>
<path clip-path="url(#clip450)" d="M420.16 128.366 Q417.058 133.69 415.553 138.898 Q414.048 144.106 414.048 149.453 Q414.048 154.801 415.553 160.055 Q417.081 165.287 420.16 170.588 L416.456 170.588 Q412.984 165.148 411.248 159.893 Q409.535 154.639 409.535 149.453 Q409.535 144.291 411.248 139.06 Q412.96 133.828 416.456 128.366 L420.16 128.366 Z" fill="#000000" fill-rule="nonzero" fill-opacity="1" /><path clip-path="url(#clip450)" d="M426.572 138.412 L446.803 138.412 L446.803 142.301 L430.784 160.935 L446.803 160.935 L446.803 164.338 L425.993 164.338 L425.993 160.449 L442.011 141.815 L426.572 141.815 L426.572 138.412 Z" fill="#000000" fill-rule="nonzero" fill-opacity="1" /><path clip-path="url(#clip450)" d="M454.395 158.458 L459.28 158.458 L459.28 162.439 L455.483 169.847 L452.497 169.847 L454.395 162.439 L454.395 158.458 Z" fill="#000000" fill-rule="nonzero" fill-opacity="1" /><path clip-path="url(#clip450)" d="M479.164 166.745 Q477.358 171.375 475.645 172.787 Q473.932 174.199 471.062 174.199 L467.659 174.199 L467.659 170.634 L470.159 170.634 Q471.918 170.634 472.891 169.8 Q473.863 168.967 475.043 165.865 L475.807 163.921 L465.321 138.412 L469.835 138.412 L477.937 158.689 L486.039 138.412 L490.553 138.412 L479.164 166.745 Z" fill="#000000" fill-rule="nonzero" fill-opacity="1" /><path clip-path="url(#clip450)" d="M497.52 158.458 L502.404 158.458 L502.404 162.439 L498.608 169.847 L495.622 169.847 L497.52 162.439 L497.52 158.458 Z" fill="#000000" fill-rule="nonzero" fill-opacity="1" /><path clip-path="url(#clip450)" d="M533.052 138.412 L523.677 151.027 L533.539 164.338 L528.515 164.338 L520.969 154.152 L513.423 164.338 L508.4 164.338 L518.469 150.773 L509.256 138.412 L514.279 138.412 L521.154 147.648 L528.029 138.412 L533.052 138.412 Z" fill="#000000" fill-rule="nonzero" fill-opacity="1" /><path clip-path="url(#clip450)" d="M538.886 128.366 L542.589 128.366 Q546.062 133.828 547.775 139.06 Q549.511 144.291 549.511 149.453 Q549.511 154.639 547.775 159.893 Q546.062 165.148 542.589 170.588 L538.886 170.588 Q541.964 165.287 543.469 160.055 Q544.997 154.801 544.997 149.453 Q544.997 144.106 543.469 138.898 Q541.964 133.69 538.886 128.366 Z" fill="#000000" fill-rule="nonzero" fill-opacity="1" /></svg>
