<?xml version="1.0" encoding="utf-8"?>
<svg xmlns="http://www.w3.org/2000/svg" xmlns:xlink="http://www.w3.org/1999/xlink" width="600" height="400" viewBox="0 0 2400 1600">
<defs>
  <clipPath id="clip170">
    <rect x="0" y="0" width="2400" height="1600"/>
  </clipPath>
</defs>
<path clip-path="url(#clip170)" d="M0 1600 L2400 1600 L2400 0 L0 0  Z" fill="#ffffff" fill-rule="evenodd" fill-opacity="1"/>
<defs>
  <clipPath id="clip171">
    <rect x="112" y="47" width="2242" height="1440"/>
  </clipPath>
</defs>
<path clip-path="url(#clip171)" d="M-612.504 2651.68 L-612.504 2368.99 L-317.296 2227.64 L194.019 2309.25 L194.019 2591.94 L-101.189 2733.29 L-612.504 2651.68  Z" fill="#ffffff" fill-rule="evenodd" fill-opacity="1"/>
<polyline clip-path="url(#clip171)" style="stroke:#000000; stroke-linecap:round; stroke-linejoin:round; stroke-width:2; stroke-opacity:0.1; fill:none" points="689.534,1209.78 1105,849.982 1105,130.38 "/>
<polyline clip-path="url(#clip171)" style="stroke:#000000; stroke-linecap:round; stroke-linejoin:round; stroke-width:2; stroke-opacity:0.1; fill:none" points="817.362,1246.68 1232.82,886.883 1232.82,167.281 "/>
<polyline clip-path="url(#clip171)" style="stroke:#000000; stroke-linecap:round; stroke-linejoin:round; stroke-width:2; stroke-opacity:0.1; fill:none" points="945.191,1283.58 1360.65,923.784 1360.65,204.182 "/>
<polyline clip-path="url(#clip171)" style="stroke:#000000; stroke-linecap:round; stroke-linejoin:round; stroke-width:2; stroke-opacity:0.1; fill:none" points="1073.02,1320.49 1488.48,960.685 1488.48,241.083 "/>
<polyline clip-path="url(#clip171)" style="stroke:#000000; stroke-linecap:round; stroke-linejoin:round; stroke-width:2; stroke-opacity:0.1; fill:none" points="1200.85,1357.39 1616.31,997.586 1616.31,277.984 "/>
<polyline clip-path="url(#clip171)" style="stroke:#000000; stroke-linecap:round; stroke-linejoin:round; stroke-width:2; stroke-opacity:0.1; fill:none" points="1328.68,1394.29 1744.14,1034.49 1744.14,314.885 "/>
<polyline clip-path="url(#clip171)" style="stroke:#000000; stroke-linecap:round; stroke-linejoin:round; stroke-width:2; stroke-opacity:0.1; fill:none" points="1424.02,1376.22 704.413,1168.49 704.413,448.89 "/>
<polyline clip-path="url(#clip171)" style="stroke:#000000; stroke-linecap:round; stroke-linejoin:round; stroke-width:2; stroke-opacity:0.1; fill:none" points="1505.62,1305.55 786.02,1097.82 786.02,378.217 "/>
<polyline clip-path="url(#clip171)" style="stroke:#000000; stroke-linecap:round; stroke-linejoin:round; stroke-width:2; stroke-opacity:0.1; fill:none" points="1587.23,1234.88 867.627,1027.14 867.627,307.543 "/>
<polyline clip-path="url(#clip171)" style="stroke:#000000; stroke-linecap:round; stroke-linejoin:round; stroke-width:2; stroke-opacity:0.1; fill:none" points="1668.84,1164.2 949.234,956.471 949.234,236.869 "/>
<polyline clip-path="url(#clip171)" style="stroke:#000000; stroke-linecap:round; stroke-linejoin:round; stroke-width:2; stroke-opacity:0.1; fill:none" points="1750.44,1093.53 1030.84,885.798 1030.84,166.196 "/>
<polyline clip-path="url(#clip171)" style="stroke:#000000; stroke-linecap:round; stroke-linejoin:round; stroke-width:2; stroke-opacity:0.1; fill:none" points="664.934,1121.16 1080.4,761.361 1800,969.092 "/>
<polyline clip-path="url(#clip171)" style="stroke:#000000; stroke-linecap:round; stroke-linejoin:round; stroke-width:2; stroke-opacity:0.1; fill:none" points="664.934,1011.47 1080.4,651.669 1800,859.4 "/>
<polyline clip-path="url(#clip171)" style="stroke:#000000; stroke-linecap:round; stroke-linejoin:round; stroke-width:2; stroke-opacity:0.1; fill:none" points="664.934,901.777 1080.4,541.976 1800,749.707 "/>
<polyline clip-path="url(#clip171)" style="stroke:#000000; stroke-linecap:round; stroke-linejoin:round; stroke-width:2; stroke-opacity:0.1; fill:none" points="664.934,792.085 1080.4,432.284 1800,640.015 "/>
<polyline clip-path="url(#clip171)" style="stroke:#000000; stroke-linecap:round; stroke-linejoin:round; stroke-width:2; stroke-opacity:0.1; fill:none" points="664.934,682.392 1080.4,322.591 1800,530.322 "/>
<polyline clip-path="url(#clip171)" style="stroke:#000000; stroke-linecap:round; stroke-linejoin:round; stroke-width:2; stroke-opacity:0.1; fill:none" points="664.934,572.7 1080.4,212.899 1800,420.63 "/>
<polyline clip-path="url(#clip170)" style="stroke:#000000; stroke-linecap:round; stroke-linejoin:round; stroke-width:4; stroke-opacity:1; fill:none" points="664.934,1202.68 1384.54,1410.41 "/>
<polyline clip-path="url(#clip170)" style="stroke:#000000; stroke-linecap:round; stroke-linejoin:round; stroke-width:4; stroke-opacity:1; fill:none" points="689.534,1209.78 694.519,1205.47 "/>
<polyline clip-path="url(#clip170)" style="stroke:#000000; stroke-linecap:round; stroke-linejoin:round; stroke-width:4; stroke-opacity:1; fill:none" points="817.362,1246.68 822.348,1242.37 "/>
<polyline clip-path="url(#clip170)" style="stroke:#000000; stroke-linecap:round; stroke-linejoin:round; stroke-width:4; stroke-opacity:1; fill:none" points="945.191,1283.58 950.177,1279.27 "/>
<polyline clip-path="url(#clip170)" style="stroke:#000000; stroke-linecap:round; stroke-linejoin:round; stroke-width:4; stroke-opacity:1; fill:none" points="1073.02,1320.49 1078.01,1316.17 "/>
<polyline clip-path="url(#clip170)" style="stroke:#000000; stroke-linecap:round; stroke-linejoin:round; stroke-width:4; stroke-opacity:1; fill:none" points="1200.85,1357.39 1205.83,1353.07 "/>
<polyline clip-path="url(#clip170)" style="stroke:#000000; stroke-linecap:round; stroke-linejoin:round; stroke-width:4; stroke-opacity:1; fill:none" points="1328.68,1394.29 1333.66,1389.97 "/>
<path clip-path="url(#clip170)" d="M628.814 1224.02 Q625.203 1224.02 623.374 1227.59 Q621.569 1231.13 621.569 1238.26 Q621.569 1245.36 623.374 1248.93 Q625.203 1252.47 628.814 1252.47 Q632.448 1252.47 634.254 1248.93 Q636.083 1245.36 636.083 1238.26 Q636.083 1231.13 634.254 1227.59 Q632.448 1224.02 628.814 1224.02 M628.814 1220.32 Q634.624 1220.32 637.68 1224.92 Q640.759 1229.51 640.759 1238.26 Q640.759 1246.98 637.68 1251.59 Q634.624 1256.17 628.814 1256.17 Q623.004 1256.17 619.925 1251.59 Q616.87 1246.98 616.87 1238.26 Q616.87 1229.51 619.925 1224.92 Q623.004 1220.32 628.814 1220.32 Z" fill="#000000" fill-rule="nonzero" fill-opacity="1" /><path clip-path="url(#clip170)" d="M648.976 1249.62 L653.86 1249.62 L653.86 1255.5 L648.976 1255.5 L648.976 1249.62 Z" fill="#000000" fill-rule="nonzero" fill-opacity="1" /><path clip-path="url(#clip170)" d="M664.092 1220.94 L682.448 1220.94 L682.448 1224.88 L668.374 1224.88 L668.374 1233.35 Q669.393 1233 670.411 1232.84 Q671.43 1232.66 672.448 1232.66 Q678.235 1232.66 681.615 1235.83 Q684.994 1239 684.994 1244.42 Q684.994 1249.99 681.522 1253.1 Q678.05 1256.17 671.731 1256.17 Q669.555 1256.17 667.286 1255.8 Q665.041 1255.43 662.633 1254.69 L662.633 1249.99 Q664.717 1251.13 666.939 1251.68 Q669.161 1252.24 671.638 1252.24 Q675.643 1252.24 677.981 1250.13 Q680.319 1248.03 680.319 1244.42 Q680.319 1240.8 677.981 1238.7 Q675.643 1236.59 671.638 1236.59 Q669.763 1236.59 667.888 1237.01 Q666.036 1237.42 664.092 1238.3 L664.092 1220.94 Z" fill="#000000" fill-rule="nonzero" fill-opacity="1" /><path clip-path="url(#clip170)" d="M746.458 1288.47 L754.097 1288.47 L754.097 1262.1 L745.786 1263.77 L745.786 1259.51 L754.05 1257.84 L758.726 1257.84 L758.726 1288.47 L766.365 1288.47 L766.365 1292.4 L746.458 1292.4 L746.458 1288.47 Z" fill="#000000" fill-rule="nonzero" fill-opacity="1" /><path clip-path="url(#clip170)" d="M775.809 1286.52 L780.694 1286.52 L780.694 1292.4 L775.809 1292.4 L775.809 1286.52 Z" fill="#000000" fill-rule="nonzero" fill-opacity="1" /><path clip-path="url(#clip170)" d="M800.879 1260.92 Q797.268 1260.92 795.439 1264.49 Q793.633 1268.03 793.633 1275.16 Q793.633 1282.27 795.439 1285.83 Q797.268 1289.37 800.879 1289.37 Q804.513 1289.37 806.319 1285.83 Q808.147 1282.27 808.147 1275.16 Q808.147 1268.03 806.319 1264.49 Q804.513 1260.92 800.879 1260.92 M800.879 1257.22 Q806.689 1257.22 809.744 1261.83 Q812.823 1266.41 812.823 1275.16 Q812.823 1283.89 809.744 1288.49 Q806.689 1293.08 800.879 1293.08 Q795.069 1293.08 791.99 1288.49 Q788.934 1283.89 788.934 1275.16 Q788.934 1266.41 791.99 1261.83 Q795.069 1257.22 800.879 1257.22 Z" fill="#000000" fill-rule="nonzero" fill-opacity="1" /><path clip-path="url(#clip170)" d="M875.282 1325.37 L882.921 1325.37 L882.921 1299 L874.611 1300.67 L874.611 1296.41 L882.874 1294.74 L887.55 1294.74 L887.55 1325.37 L895.189 1325.37 L895.189 1329.3 L875.282 1329.3 L875.282 1325.37 Z" fill="#000000" fill-rule="nonzero" fill-opacity="1" /><path clip-path="url(#clip170)" d="M904.634 1323.43 L909.518 1323.43 L909.518 1329.3 L904.634 1329.3 L904.634 1323.43 Z" fill="#000000" fill-rule="nonzero" fill-opacity="1" /><path clip-path="url(#clip170)" d="M919.749 1294.74 L938.106 1294.74 L938.106 1298.68 L924.032 1298.68 L924.032 1307.15 Q925.05 1306.81 926.069 1306.64 Q927.087 1306.46 928.106 1306.46 Q933.893 1306.46 937.272 1309.63 Q940.652 1312.8 940.652 1318.22 Q940.652 1323.8 937.18 1326.9 Q933.707 1329.98 927.388 1329.98 Q925.212 1329.98 922.944 1329.61 Q920.698 1329.24 918.291 1328.49 L918.291 1323.8 Q920.374 1324.93 922.596 1325.49 Q924.819 1326.04 927.295 1326.04 Q931.3 1326.04 933.638 1323.93 Q935.976 1321.83 935.976 1318.22 Q935.976 1314.61 933.638 1312.5 Q931.3 1310.39 927.295 1310.39 Q925.42 1310.39 923.545 1310.81 Q921.694 1311.23 919.749 1312.11 L919.749 1294.74 Z" fill="#000000" fill-rule="nonzero" fill-opacity="1" /><path clip-path="url(#clip170)" d="M1005.33 1362.27 L1021.65 1362.27 L1021.65 1366.21 L999.708 1366.21 L999.708 1362.27 Q1002.37 1359.52 1006.95 1354.89 Q1011.56 1350.23 1012.74 1348.89 Q1014.99 1346.37 1015.87 1344.63 Q1016.77 1342.87 1016.77 1341.18 Q1016.77 1338.43 1014.82 1336.69 Q1012.9 1334.96 1009.8 1334.96 Q1007.6 1334.96 1005.15 1335.72 Q1002.72 1336.48 999.939 1338.03 L999.939 1333.31 Q1002.76 1332.18 1005.22 1331.6 Q1007.67 1331.02 1009.71 1331.02 Q1015.08 1331.02 1018.27 1333.71 Q1021.47 1336.39 1021.47 1340.88 Q1021.47 1343.01 1020.66 1344.93 Q1019.87 1346.83 1017.76 1349.42 Q1017.18 1350.09 1014.08 1353.31 Q1010.98 1356.51 1005.33 1362.27 Z" fill="#000000" fill-rule="nonzero" fill-opacity="1" /><path clip-path="url(#clip170)" d="M1031.47 1360.33 L1036.35 1360.33 L1036.35 1366.21 L1031.47 1366.21 L1031.47 1360.33 Z" fill="#000000" fill-rule="nonzero" fill-opacity="1" /><path clip-path="url(#clip170)" d="M1056.54 1334.72 Q1052.93 1334.72 1051.1 1338.29 Q1049.29 1341.83 1049.29 1348.96 Q1049.29 1356.07 1051.1 1359.63 Q1052.93 1363.17 1056.54 1363.17 Q1060.17 1363.17 1061.98 1359.63 Q1063.8 1356.07 1063.8 1348.96 Q1063.8 1341.83 1061.98 1338.29 Q1060.17 1334.72 1056.54 1334.72 M1056.54 1331.02 Q1062.35 1331.02 1065.4 1335.63 Q1068.48 1340.21 1068.48 1348.96 Q1068.48 1357.69 1065.4 1362.29 Q1062.35 1366.88 1056.54 1366.88 Q1050.73 1366.88 1047.65 1362.29 Q1044.59 1357.69 1044.59 1348.96 Q1044.59 1340.21 1047.65 1335.63 Q1050.73 1331.02 1056.54 1331.02 Z" fill="#000000" fill-rule="nonzero" fill-opacity="1" /><path clip-path="url(#clip170)" d="M1134.16 1399.17 L1150.48 1399.17 L1150.48 1403.11 L1128.53 1403.11 L1128.53 1399.17 Q1131.19 1396.42 1135.78 1391.79 Q1140.38 1387.13 1141.56 1385.79 Q1143.81 1383.27 1144.69 1381.53 Q1145.59 1379.77 1145.59 1378.08 Q1145.59 1375.33 1143.65 1373.59 Q1141.73 1371.86 1138.62 1371.86 Q1136.43 1371.86 1133.97 1372.62 Q1131.54 1373.38 1128.76 1374.94 L1128.76 1370.21 Q1131.59 1369.08 1134.04 1368.5 Q1136.49 1367.92 1138.53 1367.92 Q1143.9 1367.92 1147.1 1370.61 Q1150.29 1373.29 1150.29 1377.78 Q1150.29 1379.91 1149.48 1381.83 Q1148.69 1383.73 1146.59 1386.32 Q1146.01 1387 1142.91 1390.21 Q1139.8 1393.41 1134.16 1399.17 Z" fill="#000000" fill-rule="nonzero" fill-opacity="1" /><path clip-path="url(#clip170)" d="M1160.29 1397.23 L1165.18 1397.23 L1165.18 1403.11 L1160.29 1403.11 L1160.29 1397.23 Z" fill="#000000" fill-rule="nonzero" fill-opacity="1" /><path clip-path="url(#clip170)" d="M1175.41 1368.55 L1193.76 1368.55 L1193.76 1372.48 L1179.69 1372.48 L1179.69 1380.95 Q1180.71 1380.61 1181.73 1380.44 Q1182.74 1380.26 1183.76 1380.26 Q1189.55 1380.26 1192.93 1383.43 Q1196.31 1386.6 1196.31 1392.02 Q1196.31 1397.6 1192.84 1400.7 Q1189.36 1403.78 1183.05 1403.78 Q1180.87 1403.78 1178.6 1403.41 Q1176.36 1403.04 1173.95 1402.3 L1173.95 1397.6 Q1176.03 1398.73 1178.25 1399.29 Q1180.48 1399.84 1182.95 1399.84 Q1186.96 1399.84 1189.3 1397.74 Q1191.63 1395.63 1191.63 1392.02 Q1191.63 1388.41 1189.3 1386.3 Q1186.96 1384.19 1182.95 1384.19 Q1181.08 1384.19 1179.2 1384.61 Q1177.35 1385.03 1175.41 1385.91 L1175.41 1368.55 Z" fill="#000000" fill-rule="nonzero" fill-opacity="1" /><path clip-path="url(#clip170)" d="M1271.13 1421.37 Q1274.49 1422.09 1276.36 1424.36 Q1278.26 1426.63 1278.26 1429.96 Q1278.26 1435.08 1274.74 1437.88 Q1271.22 1440.68 1264.74 1440.68 Q1262.56 1440.68 1260.25 1440.24 Q1257.96 1439.82 1255.5 1438.97 L1255.5 1434.45 Q1257.45 1435.59 1259.76 1436.17 Q1262.08 1436.74 1264.6 1436.74 Q1269 1436.74 1271.29 1435.01 Q1273.61 1433.27 1273.61 1429.96 Q1273.61 1426.91 1271.45 1425.19 Q1269.32 1423.46 1265.5 1423.46 L1261.48 1423.46 L1261.48 1419.61 L1265.69 1419.61 Q1269.14 1419.61 1270.97 1418.25 Q1272.8 1416.86 1272.8 1414.27 Q1272.8 1411.61 1270.9 1410.19 Q1269.02 1408.76 1265.5 1408.76 Q1263.58 1408.76 1261.38 1409.17 Q1259.18 1409.59 1256.55 1410.47 L1256.55 1406.3 Q1259.21 1405.56 1261.52 1405.19 Q1263.86 1404.82 1265.92 1404.82 Q1271.24 1404.82 1274.35 1407.25 Q1277.45 1409.66 1277.45 1413.78 Q1277.45 1416.65 1275.8 1418.64 Q1274.16 1420.61 1271.13 1421.37 Z" fill="#000000" fill-rule="nonzero" fill-opacity="1" /><path clip-path="url(#clip170)" d="M1287.12 1434.13 L1292.01 1434.13 L1292.01 1440.01 L1287.12 1440.01 L1287.12 1434.13 Z" fill="#000000" fill-rule="nonzero" fill-opacity="1" /><path clip-path="url(#clip170)" d="M1312.19 1408.53 Q1308.58 1408.53 1306.75 1412.09 Q1304.95 1415.63 1304.95 1422.76 Q1304.95 1429.87 1306.75 1433.43 Q1308.58 1436.98 1312.19 1436.98 Q1315.83 1436.98 1317.63 1433.43 Q1319.46 1429.87 1319.46 1422.76 Q1319.46 1415.63 1317.63 1412.09 Q1315.83 1408.53 1312.19 1408.53 M1312.19 1404.82 Q1318 1404.82 1321.06 1409.43 Q1324.14 1414.01 1324.14 1422.76 Q1324.14 1431.49 1321.06 1436.1 Q1318 1440.68 1312.19 1440.68 Q1306.38 1440.68 1303.3 1436.1 Q1300.25 1431.49 1300.25 1422.76 Q1300.25 1414.01 1303.3 1409.43 Q1306.38 1404.82 1312.19 1404.82 Z" fill="#000000" fill-rule="nonzero" fill-opacity="1" /><polyline clip-path="url(#clip170)" style="stroke:#000000; stroke-linecap:round; stroke-linejoin:round; stroke-width:4; stroke-opacity:1; fill:none" points="1384.54,1410.41 1800,1050.61 "/>
<polyline clip-path="url(#clip170)" style="stroke:#000000; stroke-linecap:round; stroke-linejoin:round; stroke-width:4; stroke-opacity:1; fill:none" points="1424.02,1376.22 1415.38,1373.73 "/>
<polyline clip-path="url(#clip170)" style="stroke:#000000; stroke-linecap:round; stroke-linejoin:round; stroke-width:4; stroke-opacity:1; fill:none" points="1505.62,1305.55 1496.99,1303.06 "/>
<polyline clip-path="url(#clip170)" style="stroke:#000000; stroke-linecap:round; stroke-linejoin:round; stroke-width:4; stroke-opacity:1; fill:none" points="1587.23,1234.88 1578.59,1232.38 "/>
<polyline clip-path="url(#clip170)" style="stroke:#000000; stroke-linecap:round; stroke-linejoin:round; stroke-width:4; stroke-opacity:1; fill:none" points="1668.84,1164.2 1660.2,1161.71 "/>
<polyline clip-path="url(#clip170)" style="stroke:#000000; stroke-linecap:round; stroke-linejoin:round; stroke-width:4; stroke-opacity:1; fill:none" points="1750.44,1093.53 1741.81,1091.04 "/>
<path clip-path="url(#clip170)" d="M1452.05 1388.99 L1440.25 1407.44 L1452.05 1407.44 L1452.05 1388.99 M1450.83 1384.92 L1456.71 1384.92 L1456.71 1407.44 L1461.64 1407.44 L1461.64 1411.33 L1456.71 1411.33 L1456.71 1419.48 L1452.05 1419.48 L1452.05 1411.33 L1436.45 1411.33 L1436.45 1406.82 L1450.83 1384.92 Z" fill="#000000" fill-rule="nonzero" fill-opacity="1" /><path clip-path="url(#clip170)" d="M1519.52 1314.25 L1537.87 1314.25 L1537.87 1318.18 L1523.8 1318.18 L1523.8 1326.65 Q1524.82 1326.31 1525.84 1326.14 Q1526.86 1325.96 1527.87 1325.96 Q1533.66 1325.96 1537.04 1329.13 Q1540.42 1332.3 1540.42 1337.72 Q1540.42 1343.3 1536.95 1346.4 Q1533.48 1349.48 1527.16 1349.48 Q1524.98 1349.48 1522.71 1349.11 Q1520.47 1348.74 1518.06 1348 L1518.06 1343.3 Q1520.14 1344.43 1522.37 1344.99 Q1524.59 1345.54 1527.06 1345.54 Q1531.07 1345.54 1533.41 1343.44 Q1535.74 1341.33 1535.74 1337.72 Q1535.74 1334.11 1533.41 1332 Q1531.07 1329.89 1527.06 1329.89 Q1525.19 1329.89 1523.31 1330.31 Q1521.46 1330.73 1519.52 1331.61 L1519.52 1314.25 Z" fill="#000000" fill-rule="nonzero" fill-opacity="1" /><path clip-path="url(#clip170)" d="M1612 1258.99 Q1608.86 1258.99 1607 1261.14 Q1605.18 1263.29 1605.18 1267.04 Q1605.18 1270.77 1607 1272.95 Q1608.86 1275.1 1612 1275.1 Q1615.15 1275.1 1616.98 1272.95 Q1618.83 1270.77 1618.83 1267.04 Q1618.83 1263.29 1616.98 1261.14 Q1615.15 1258.99 1612 1258.99 M1621.29 1244.34 L1621.29 1248.6 Q1619.53 1247.76 1617.72 1247.32 Q1615.94 1246.88 1614.18 1246.88 Q1609.55 1246.88 1607.1 1250.01 Q1604.67 1253.13 1604.32 1259.45 Q1605.68 1257.44 1607.75 1256.37 Q1609.81 1255.28 1612.28 1255.28 Q1617.49 1255.28 1620.5 1258.46 Q1623.53 1261.6 1623.53 1267.04 Q1623.53 1272.37 1620.38 1275.59 Q1617.24 1278.8 1612 1278.8 Q1606.01 1278.8 1602.84 1274.22 Q1599.67 1269.61 1599.67 1260.89 Q1599.67 1252.69 1603.56 1247.83 Q1607.44 1242.95 1614 1242.95 Q1615.75 1242.95 1617.54 1243.29 Q1619.34 1243.64 1621.29 1244.34 Z" fill="#000000" fill-rule="nonzero" fill-opacity="1" /><path clip-path="url(#clip170)" d="M1681.27 1172.9 L1703.5 1172.9 L1703.5 1174.89 L1690.95 1207.46 L1686.06 1207.46 L1697.87 1176.83 L1681.27 1176.83 L1681.27 1172.9 Z" fill="#000000" fill-rule="nonzero" fill-opacity="1" /><path clip-path="url(#clip170)" d="M1774.73 1120.37 Q1771.4 1120.37 1769.48 1122.16 Q1767.58 1123.94 1767.58 1127.06 Q1767.58 1130.19 1769.48 1131.97 Q1771.4 1133.75 1774.73 1133.75 Q1778.07 1133.75 1779.99 1131.97 Q1781.91 1130.16 1781.91 1127.06 Q1781.91 1123.94 1779.99 1122.16 Q1778.09 1120.37 1774.73 1120.37 M1770.06 1118.38 Q1767.05 1117.64 1765.36 1115.58 Q1763.69 1113.52 1763.69 1110.56 Q1763.69 1106.41 1766.63 1104.01 Q1769.59 1101.6 1774.73 1101.6 Q1779.89 1101.6 1782.83 1104.01 Q1785.77 1106.41 1785.77 1110.56 Q1785.77 1113.52 1784.08 1115.58 Q1782.42 1117.64 1779.43 1118.38 Q1782.81 1119.17 1784.69 1121.46 Q1786.58 1123.75 1786.58 1127.06 Q1786.58 1132.09 1783.51 1134.77 Q1780.45 1137.46 1774.73 1137.46 Q1769.01 1137.46 1765.94 1134.77 Q1762.88 1132.09 1762.88 1127.06 Q1762.88 1123.75 1764.78 1121.46 Q1766.68 1119.17 1770.06 1118.38 M1768.34 1111 Q1768.34 1113.68 1770.01 1115.19 Q1771.7 1116.69 1774.73 1116.69 Q1777.74 1116.69 1779.43 1115.19 Q1781.14 1113.68 1781.14 1111 Q1781.14 1108.31 1779.43 1106.81 Q1777.74 1105.3 1774.73 1105.3 Q1771.7 1105.3 1770.01 1106.81 Q1768.34 1108.31 1768.34 1111 Z" fill="#000000" fill-rule="nonzero" fill-opacity="1" /><polyline clip-path="url(#clip170)" style="stroke:#000000; stroke-linecap:round; stroke-linejoin:round; stroke-width:4; stroke-opacity:1; fill:none" points="664.934,1202.68 664.934,483.08 "/>
<polyline clip-path="url(#clip170)" style="stroke:#000000; stroke-linecap:round; stroke-linejoin:round; stroke-width:4; stroke-opacity:1; fill:none" points="664.934,1121.16 669.92,1116.84 "/>
<polyline clip-path="url(#clip170)" style="stroke:#000000; stroke-linecap:round; stroke-linejoin:round; stroke-width:4; stroke-opacity:1; fill:none" points="664.934,1011.47 669.92,1007.15 "/>
<polyline clip-path="url(#clip170)" style="stroke:#000000; stroke-linecap:round; stroke-linejoin:round; stroke-width:4; stroke-opacity:1; fill:none" points="664.934,901.777 669.92,897.459 "/>
<polyline clip-path="url(#clip170)" style="stroke:#000000; stroke-linecap:round; stroke-linejoin:round; stroke-width:4; stroke-opacity:1; fill:none" points="664.934,792.085 669.92,787.767 "/>
<polyline clip-path="url(#clip170)" style="stroke:#000000; stroke-linecap:round; stroke-linejoin:round; stroke-width:4; stroke-opacity:1; fill:none" points="664.934,682.392 669.92,678.075 "/>
<polyline clip-path="url(#clip170)" style="stroke:#000000; stroke-linecap:round; stroke-linejoin:round; stroke-width:4; stroke-opacity:1; fill:none" points="664.934,572.7 669.92,568.382 "/>
<path clip-path="url(#clip170)" d="M626.551 1107.96 L614.746 1126.41 L626.551 1126.41 L626.551 1107.96 M625.324 1103.88 L631.204 1103.88 L631.204 1126.41 L636.134 1126.41 L636.134 1130.29 L631.204 1130.29 L631.204 1138.44 L626.551 1138.44 L626.551 1130.29 L610.949 1130.29 L610.949 1125.78 L625.324 1103.88 Z" fill="#000000" fill-rule="nonzero" fill-opacity="1" /><path clip-path="url(#clip170)" d="M615.232 994.19 L633.588 994.19 L633.588 998.125 L619.514 998.125 L619.514 1006.6 Q620.533 1006.25 621.551 1006.09 Q622.57 1005.9 623.588 1005.9 Q629.375 1005.9 632.755 1009.07 Q636.134 1012.25 636.134 1017.66 Q636.134 1023.24 632.662 1026.34 Q629.19 1029.42 622.871 1029.42 Q620.695 1029.42 618.426 1029.05 Q616.181 1028.68 613.773 1027.94 L613.773 1023.24 Q615.857 1024.37 618.079 1024.93 Q620.301 1025.49 622.778 1025.49 Q626.783 1025.49 629.121 1023.38 Q631.459 1021.27 631.459 1017.66 Q631.459 1014.05 629.121 1011.94 Q626.783 1009.84 622.778 1009.84 Q620.903 1009.84 619.028 1010.25 Q617.176 1010.67 615.232 1011.55 L615.232 994.19 Z" fill="#000000" fill-rule="nonzero" fill-opacity="1" /><path clip-path="url(#clip170)" d="M624.607 899.914 Q621.459 899.914 619.607 902.066 Q617.778 904.219 617.778 907.969 Q617.778 911.696 619.607 913.872 Q621.459 916.025 624.607 916.025 Q627.755 916.025 629.584 913.872 Q631.435 911.696 631.435 907.969 Q631.435 904.219 629.584 902.066 Q627.755 899.914 624.607 899.914 M633.889 885.261 L633.889 889.52 Q632.13 888.687 630.324 888.247 Q628.542 887.807 626.783 887.807 Q622.153 887.807 619.699 890.932 Q617.269 894.057 616.922 900.377 Q618.287 898.363 620.347 897.298 Q622.408 896.21 624.884 896.21 Q630.093 896.21 633.102 899.381 Q636.134 902.529 636.134 907.969 Q636.134 913.293 632.986 916.511 Q629.838 919.728 624.607 919.728 Q618.611 919.728 615.44 915.145 Q612.269 910.539 612.269 901.812 Q612.269 893.617 616.158 888.756 Q620.047 883.872 626.597 883.872 Q628.357 883.872 630.139 884.219 Q631.945 884.567 633.889 885.261 Z" fill="#000000" fill-rule="nonzero" fill-opacity="1" /><path clip-path="url(#clip170)" d="M613.912 774.805 L636.134 774.805 L636.134 776.795 L623.588 809.365 L618.704 809.365 L630.509 778.74 L613.912 778.74 L613.912 774.805 Z" fill="#000000" fill-rule="nonzero" fill-opacity="1" /><path clip-path="url(#clip170)" d="M624.283 683.26 Q620.949 683.26 619.028 685.043 Q617.13 686.825 617.13 689.95 Q617.13 693.075 619.028 694.857 Q620.949 696.64 624.283 696.64 Q627.616 696.64 629.537 694.857 Q631.459 693.052 631.459 689.95 Q631.459 686.825 629.537 685.043 Q627.639 683.26 624.283 683.26 M619.607 681.269 Q616.597 680.529 614.908 678.469 Q613.241 676.408 613.241 673.445 Q613.241 669.302 616.181 666.895 Q619.144 664.487 624.283 664.487 Q629.445 664.487 632.384 666.895 Q635.324 669.302 635.324 673.445 Q635.324 676.408 633.634 678.469 Q631.968 680.529 628.982 681.269 Q632.361 682.057 634.236 684.348 Q636.134 686.64 636.134 689.95 Q636.134 694.973 633.056 697.658 Q630 700.343 624.283 700.343 Q618.565 700.343 615.486 697.658 Q612.431 694.973 612.431 689.95 Q612.431 686.64 614.329 684.348 Q616.227 682.057 619.607 681.269 M617.894 673.885 Q617.894 676.57 619.56 678.075 Q621.25 679.58 624.283 679.58 Q627.292 679.58 628.982 678.075 Q630.695 676.57 630.695 673.885 Q630.695 671.2 628.982 669.695 Q627.292 668.191 624.283 668.191 Q621.25 668.191 619.56 669.695 Q617.894 671.2 617.894 673.885 Z" fill="#000000" fill-rule="nonzero" fill-opacity="1" /><path clip-path="url(#clip170)" d="M614.514 589.262 L614.514 585.003 Q616.273 585.836 618.079 586.276 Q619.885 586.716 621.621 586.716 Q626.25 586.716 628.681 583.614 Q631.134 580.489 631.482 574.146 Q630.139 576.137 628.079 577.202 Q626.019 578.267 623.519 578.267 Q618.334 578.267 615.301 575.142 Q612.292 571.994 612.292 566.554 Q612.292 561.23 615.44 558.012 Q618.588 554.795 623.82 554.795 Q629.815 554.795 632.963 559.401 Q636.134 563.984 636.134 572.734 Q636.134 580.906 632.246 585.79 Q628.38 590.651 621.829 590.651 Q620.07 590.651 618.264 590.304 Q616.459 589.957 614.514 589.262 M623.82 574.609 Q626.968 574.609 628.796 572.457 Q630.648 570.304 630.648 566.554 Q630.648 562.827 628.796 560.674 Q626.968 558.498 623.82 558.498 Q620.672 558.498 618.82 560.674 Q616.991 562.827 616.991 566.554 Q616.991 570.304 618.82 572.457 Q620.672 574.609 623.82 574.609 Z" fill="#000000" fill-rule="nonzero" fill-opacity="1" /><polyline clip-path="url(#clip171)" style="stroke:#009af9; stroke-linecap:round; stroke-linejoin:round; stroke-width:4; stroke-opacity:1; fill:none" points="938.448,950.608 941.795,946.153 939.357,949.011 935.523,953.59 930.374,959.766 927.664,962.807 928.862,960.973 933.341,954.964 927.247,962.159 917.942,973.186 911.847,980.045 918.965,970.312 925.906,960.84 932.459,952.216 947.357,933.362 959.651,918.343 960.631,917.714 954.296,926.157 971.593,905.664 966.964,912.814 1009.05,862.673 1034.67,835.455 1040.14,834.308 1017.2,867.431 1022.14,863.708 988.26,905.476 969.029,927.324 970.335,922.827 980.499,907.52 945.073,948.331 922.93,968.458 946.051,938.063 909.101,978.432 909.813,974.552 898.372,988.086 932.133,946.024 879.719,1007.25 898.406,979.809 936.336,940.132 994.854,873.928 1019.31,865.808 1063.66,826.394 1006.51,885.868 947.181,953.922 945.969,941.554 904.877,984.6 842.867,1043.28 827.869,1051.48 849.609,1029.6 863.26,1012.96 929.337,945.086 922.894,961.703 864.652,1019.2 910.316,964.493 926.191,943.499 968.954,903.54 1045.32,847.955 1067.42,837.938 1039.56,862.062 961.323,917.96 953.795,931.396 1020.78,872.269 1056.46,838.987 1105.55,807.04 1140.55,774.405 1222.66,698.149 1326.04,627.88 1302.07,668.432 1308.35,670.206 1186.68,771.576 1178.58,757.53 1087.01,843.847 1077.08,841.2 1178.78,744.39 1088.55,831.268 1142.1,776.935 1137.2,785.712 1192.94,736.073 1342.14,599.745 1313.78,643.328 1261.12,699.064 1192.72,753.478 1171.7,765.533 1152.34,772.709 1065.9,852.302 1035.49,872.588 1066.52,835.418 1107.81,815.852 1094.43,814.838 1012.59,882.129 961.416,923.785 1082.22,811.572 1042.97,851.174 1086.79,817.069 993.738,905.492 983.331,918.202 1012.31,878.809 1080.16,808.592 1138.27,756.451 1057.8,839.277 1062.46,815.782 1202.76,697.155 1209.69,723.341 1197.33,735.59 1114.78,810.636 1079,835.494 1035.69,870.021 1037.93,863.498 1052.51,844.607 1101.53,800.497 1189.01,740.584 1122.42,810.789 1147.87,779.3 1154.25,774.885 1144.95,780.091 1143.35,780.812 1125.33,798.79 1191.89,739.503 1123,799.941 1145.81,775.073 1243.85,732.125 1218.24,731.991 1275.15,674.807 1262.83,712.828 1228.06,727.389 1139.87,791.149 1135.27,785.412 1199.35,719.589 1195.67,742.85 1234.85,703.24 1145.72,790.065 1189.9,740.558 1179.11,743.391 1106.97,822.529 1171.7,749.515 1241.24,705.183 1187.01,760.362 1246.19,701.854 1229.63,709.33 1118.02,802.897 1039.23,857.418 1032.89,867.431 1049.04,850.509 909.798,989.467 903,985.445 958.223,916.852 1001.9,871.997 971.448,909.057 966.337,913.196 959.484,923.674 917.36,965.506 912.742,968.019 987.531,896.56 952.035,930.469 905.57,979.453 925.658,946.799 853.407,1030.56 861.874,1021.82 808.62,1085.94 810.091,1071.15 815.171,1065.11 884.854,992.174 865.093,1022.15 822.995,1057.28 834.351,1039.54 797.153,1085.3 772.934,1105.58 760.466,1118.5 747.38,1131.84 779.984,1090.41 837.459,1035.74 816.163,1066.74 967.297,896.965 992.369,897.37 943.795,948.792 889.686,999.584 910.266,972.413 854.489,1031.9 925.182,951.582 927.677,953.953 929.518,947.294 975.987,910.378 976.162,916.799 945.274,944.702 962.408,935.776 849.056,1035.18 898.303,976.466 870.255,1005.99 911.461,972.066 899.715,983.722 971.128,915.864 994.485,899.875 965.47,933.483 937.884,942.804 1008.27,877.53 1056.47,835.62 1094.07,811.917 1092.35,830.189 1105.32,811.461 1118.18,800.526 1071.84,828.754 1146.92,762.233 1141.2,770.481 1238.5,695.623 1322.03,639.247 1388.81,591.012 1362.17,648.874 1422.4,611.025 1437.48,566.744 1435.96,576.409 1459.25,559.304 1541.14,488.512 1527.66,498.291 1572.61,466.988 1562.29,496.963 1576.22,488.559 1677.61,406.757 1687.5,409.628 1560.06,515.622 1463.91,588.073 1440.95,592.41 1354.18,663.889 1323.14,674.812 1268.32,709.808 1249.37,718.151 1248.67,709.634 1151.49,798.108 1168.08,765.961 1086.37,841.16 1047.91,870.597 1034.87,872.902 1018.46,881.885 1046.63,851.99 1063.93,839.013 963.873,937.439 967.724,923.445 978.059,907.08 1032.98,854.03 968.314,926.349 919.733,979.513 985.41,895.301 980.816,914.211 1003.84,888.819 1054.88,832.417 1022.2,870.965 1098.86,800.682 1121.4,787.52 1159.02,748.613 1129.65,800.807 1208.42,720.813 1204.82,728.298 1278.59,654.831 1225.97,716.313 1179.08,752.086 1252.62,683.062 1193.93,745.355 1110.01,813.434 1257.56,676.414 1227.98,717.487 1422.76,563.299 1415.12,594.51 1331.26,652.205 1242.49,731.073 1206.32,747.229 1282.91,672.812 1301.93,656.937 1255.34,699.875 1225.79,725.848 1216.66,726.747 1198.88,745.814 1061.46,866.151 1071.17,842.695 1032.62,869.771 1042.03,857.36 1132.27,780.294 1149.89,771.364 1118.06,804.747 1097.85,819.626 1067.75,843.074 1087.28,829.472 1126.55,784.117 1077.15,834.236 1037.31,862.232 1044.77,849.043 1027.64,873.228 994.381,909.765 1018.87,886.239 948.789,949.397 1002.73,889.661 997.163,902.726 955.646,940.03 988.016,893.952 1022.74,875.564 1000.87,908.386 994.852,909.44 972.601,932.286 946.902,960.811 972.012,941.222 1021.2,885.001 1172.64,752.373 1108.24,806.143 1169.49,762.878 1161.05,768.441 1124.77,804.307 1085.78,815.303 1060.9,835.429 1068.08,851.274 1022.98,889.643 1093.78,803.121 1141.87,768.173 1072.97,825.711 1035.92,863.82 1046.95,842.376 1136.92,755.61 1205.49,718.569 1190.2,738.91 1236.74,696.567 1129.4,798.886 1186.63,746.327 1058.18,867.55 1060.7,856.566 1055.17,852.831 1057.25,852.75 1093.62,814.362 1191.77,737.654 1208.33,722.914 1130.49,802.364 1022.38,900.307 1002.26,907.26 1029.68,866.991 976.317,923.735 1015.67,877.984 970.472,922.397 1011.1,872.206 1136.07,750.661 1091.21,818.505 1083.85,822.775 1172.27,733.51 1133,777.985 1140.95,776.897 1104.12,819.553 1065.76,851.204 1145.23,767.265 1245.71,672.948 1191.95,741.248 1182.23,746.787 1200.84,736.81 1095.76,832.234 1054.62,862.952 1040.74,864.333 1081.92,824.2 1107.24,801.147 1008.72,901.407 972.299,943.264 944.429,954.77 911.032,985.072 842.953,1045.7 903.211,964.531 829.72,1050.82 837.16,1038.83 848.501,1033 813.679,1068.88 884.654,981.778 824.842,1042.96 877.423,987.93 895.515,973.676 885.16,992.804 871.024,1004.72 861.857,1011.19 832.003,1041.74 935.202,938.918 1014.75,860.653 944.596,944.315 912.274,964.902 916.498,954.736 887.379,991.431 859.166,1023.07 829.657,1049.37 913.209,965.409 887.321,997.121 847.532,1034.04 937.997,944.429 985.617,903.063 1108.39,789.462 1196.15,719.601 1105.89,816.774 1089.8,841.798 1045.23,871.974 997.384,911.159 1029.16,874.652 1007.99,894.243 1025.82,868.643 1004.75,899.939 1001.34,899.336 1086.3,840.814 1167.17,759.302 1203.02,734.954 1261.27,691.726 1229.27,717.848 1157.19,780.789 1241.32,702.972 1330.54,629.768 1292.53,671.919 1202.33,747.524 1170.25,771.507 1171.53,753.942 1159.6,769.16 1117.68,800.583 1066.03,834.171 1162.03,748.163 1087.2,818.604 1149.72,778.366 1091.48,830.777 1131.31,790.336 1043.76,862.529 1048.51,847.172 1043.36,852.442 1027.02,869.149 1018.28,872.344 1030.98,867.679 1017.21,883.286 914.279,974.189 967.627,916.559 981.317,911.603 953.982,936.982 920.776,964.654 918.242,957.937 911.359,971.534 963.382,924.979 1058.97,821.394 1132.53,773.675 1053.54,858.672 1146.95,767.609 1220.82,701.044 1094.78,822.332 1011.16,894.133 978.301,921.058 978.414,914.054 1039.45,854.972 1061.48,838.822 1090.74,799.726 1122.38,781.44 1091.28,820.775 1003.75,902.243 1014,883.155 979.173,915.574 1043.91,860.732 1023.53,876.911 1044.53,856.82 1038.29,859.249 1167.1,757.581 1170.75,758.582 1212.3,721.065 1195.54,751.537 1249.64,699.468 1132.79,795.524 1088.02,836.245 1123.66,785.618 1125.2,783.654 1016.01,878.618 967.181,928.974 935.717,957.229 964.214,914.651 883.386,1005.27 846.727,1037.48 809.61,1068.8 793.236,1083 825.065,1042.23 849.191,1015.67 861.102,1005.57 940.164,928.359 944.974,925.684 952.678,924.797 1041.21,840.117 1032.74,860.508 1058.75,842.847 1023.69,875.058 942.23,945.029 951.226,925.67 929.016,947.738 865.585,1007.9 850.366,1017.94 919.542,958.664 958.168,925.666 1029.98,849.225 1125.42,765.825 1162.56,745.762 1160.21,762.885 1086.18,826.573 1097.66,796.901 1107.61,787.996 1082.59,804.69 1201.15,725.028 1266.68,667.169 1210.27,731.761 1226.51,713.017 1193.98,748.587 1189.12,754.068 1144.38,779.703 1108.43,813.096 1077.49,829.286 1027.34,876.728 1041.33,862.89 1079.73,824.871 1081.09,831.863 1047.54,861.934 985.016,928.635 977.349,910.237 999.424,892.009 1028.7,862.603 1093.91,803.655 1070.36,840.125 1090.79,812.805 1016.03,874.857 1031.25,871.215 1021.29,878.964 1007.76,901.836 1025.84,879.35 1084.1,834.243 1087.37,817.392 1088.78,826.103 957.571,937.728 895.75,995.312 835.353,1050.49 839.901,1036.89 829.431,1037.53 850.025,1014.46 862.008,1016.22 959.431,910.477 1010.97,862.104 1111.32,779.477 1070.72,837.972 1039.84,869.615 1150.07,764.869 1097.99,824.475 1128.73,791.895 1111.82,803.843 1068.35,843.53 1047.69,854.297 1041.99,858.619 1007.08,875.584 930.955,958.992 893.392,992.372 908.64,966.799 934.375,941.028 880.492,999.771 887.151,987.354 914.455,961.074 1005.94,879.111 1007.95,890.216 966.919,927.938 949.842,933.257 952.503,930.431 949.567,922.031 924.356,963.579 924.295,958.435 895.466,990.906 909.619,961.813 948.099,924.595 982.726,908.507 1013.92,882.794 1162.69,752.18 1158.24,770.637 1097.69,834.215 1118.01,786.582 1155.16,755.942 1181.67,737.503 1200.46,730.798 1219.75,713.515 1241.71,708.226 1198.03,756.674 1137.3,797.826 1074.44,849.059 1056.89,851.95 934.897,974.009 928.236,971.733 979.668,901.973 1036.21,846.795 1086.25,802.007 1054.3,843.325 1056.64,836.734 1042.4,840.37 969.386,916.166 861.313,1030.38 866.104,1021.11 928.113,952.049 863.248,1012.77 924.874,966.08 863.748,1014.43 910.944,967.488 848.539,1030.53 799.132,1074.75 837.601,1036.17 821.469,1041.27 813.231,1055.57 829.191,1038.13 895.623,975.287 931.602,940.059 904.464,982.455 859.479,1014.56 851.697,1029.19 838.289,1039.84 865.067,997.669 839.197,1034.37 846.441,1026.87 798.625,1071.62 771.312,1106.25 716.921,1160.92 704.698,1169.74 734.608,1132.9 786.441,1076.4 781.798,1081.32 838.543,1020.02 915.168,952.874 946.125,924.854 886.858,995.205 931.391,947.038 941.328,940.637 944.457,942.619 1009.37,889.095 1098.01,805.093 1085.85,828.701 991.633,908.89 987.327,903.534 972.442,917.086 1046.06,878.846 1093.55,817.216 986.276,902.756 1012.91,884.165 967.25,932.874 1044.74,845.295 1114.77,775.818 1276.39,643.138 1352.37,601.602 1330.44,633.809 1313.84,647.1 1420.64,551.09 1519.55,485.559 1484.39,537.741 1442.39,582.23 1371.23,642.945 1246.71,738.621 1260.68,706.392 1199.51,761.493 1178.03,764.011 1233.72,703.262 1339.48,603.313 1355.1,606.513 1372.87,599.357 1370.27,611.547 1369.85,604.884 1331.71,636.488 1307.06,662.37 1305.11,665.258 1200.82,750.053 1160.97,783.461 1091.43,843.254 1069.57,848.308 1098.44,811.051 1078.22,820.208 1060.41,842.216 1106.68,796.086 1156.31,764.967 1140.29,785.316 1065.54,857.519 1090.24,820.92 1093.89,811.422 1015.36,896.749 1098.86,802.289 1208.28,710.144 1109.65,812.284 1087.98,826.959 1136.78,778.869 1042.43,868.357 1025.72,880.662 996.397,898.984 1056.04,834.093 1136.45,759.703 1165.35,746.308 1174.05,750.83 1220.94,711.719 1206.62,733.973 1147.99,771.278 1074.64,842.291 1081.17,826.968 1136.01,772.472 1155.63,751.427 1163.5,741.822 1117.58,790.857 1093.73,826.676 1160.82,767.156 1154.64,781.874 1133.78,812.263 1109.71,829.103 1170.06,781.737 1160.79,782.378 1157.66,777.274 1220.05,699.803 1339.58,624.459 1263.43,693.727 1122.07,814.846 1014.49,903.421 962.791,942.911 883.273,1014.59 858.677,1028.18 898.937,973.002 951.202,921.924 1021.3,853.904 1121.03,767.892 1119.91,782.399 1158.3,761.921 1186.52,744.328 1314.8,640.307 1318.53,654.692 1325.4,639.104 1317.78,662.163 1253.95,719.114 1239.98,721 1144.92,794.828 1117.54,805.249 1034.79,880.911 965.23,941.645 940.521,952.684 972.64,904.925 1095.86,791.248 1110.64,792.369 1097.04,806.258 1061.25,853.698 1105.3,801.618 1098.77,814.573 1052.52,852.993 1133.89,771.131 1208.23,723.804 1236.93,714.75 1280.92,675.155 1240.24,706.917 1246.21,702.943 1182.05,766.231 1159.97,779.942 1143.79,792.898 1064.93,853.883 1119.71,799.535 1131.57,792.199 1047.2,859.896 1088.99,811.6 1060.79,846.337 1131,773.373 1098.64,804.874 1098.04,820.005 1108.69,812.332 1041.64,871.005 1049.89,854.707 1007.35,899.625 1032.89,867.013 1047.39,851.385 1014.09,880.498 1006.63,892.138 1032.04,870.04 1026.6,867.902 1015.71,875.369 981.301,919.861 950.025,933.9 906.56,979.348 917.197,966.504 930.519,947.125 962.574,932.003 992.462,892.816 986.416,904.544 1141.53,767.057 1109.74,811.657 1227.56,692.654 1260.71,662.615 1262.58,682.277 1187.29,760.694 1149.71,782.276 1084.01,844.677 1068.5,848.121 1046.81,868.998 1000.41,915.209 991.895,915.663 959.003,941.438 984.529,910.113 953.037,931.173 986.645,890.284 988.439,890.136 1031.66,858.471 1058.77,847.491 1028.57,873.847 1137.06,785.35 1044.68,863.991 1095.12,817.952 1002.14,897.619 1021.04,883.938 1000.06,890.505 1020.03,874.949 980.245,923.538 956.432,923.567 995.268,877.583 1028.32,861.058 985.434,911.435 970.835,924.146 994.184,895.525 989.555,902.495 948.549,949.852 935.626,943.603 860.793,1023.62 928.736,956.826 976.802,909.697 978.224,899.835 1141.2,741.642 1080.89,823.735 1062.95,845.251 1054.99,854.438 1096.05,811.52 1100.86,811.499 1226.5,706.378 1244.97,710.412 1311.59,639.083 1255.97,704.413 1312.16,650.838 1240.14,707.829 1205.15,744.238 1304.21,655.79 1360.11,609.289 1502.55,489.721 1511.04,515.47 1442.29,591.613 1378.77,642.193 1399.31,609.457 1454.47,549.563 1389.22,613.613 1319.23,663.57 1254.96,710.713 1298.71,658.653 1203.14,757.639 1163.69,788.265 1136.1,802.142 1103.21,821.049 1060.49,851.233 1075.67,826.131 1070.5,828.167 1097.86,799.099 1099.49,806.726 1070.87,837.564 1066.78,840.161 1116.94,789.278 1242.57,700.879 1142.95,800.514 1133.21,803.122 1143.04,777.216 1217.31,713.632 1114.32,802.143 1128.64,793.547 1097.05,811.506 969.673,936.709 924.828,967.669 941.758,942.125 968.628,913.315 915.517,970.341 895.102,986.966 839.348,1041.25 829.082,1042.45 908.689,954.074 846.47,1031.18 890.638,981.106 1014.79,859.301 1006.71,878.868 978.178,931.931 1074.74,823.467 1130.46,787.5 1148.21,782.434 1072.74,854.277 1062.18,846.532 1115.61,794.118 1289.02,650.905 1332.07,625.495 1400.62,584.16 1388.66,599.965 1393.97,611.554 1374.76,618.147 1430.42,563.919 1356.99,629.578 1436.18,561.292 1350.8,629.154 1396,594.742 1276.79,702.813 1330.61,644.075 1317.45,656.019 1262.44,704.964 1276.05,690.925 1249.61,706.97 1152.44,795.462 1194.8,742.807 1190.99,746.759 1099.42,828.875 1069.38,847.524 1006.45,903.41 1055.79,845.833 999.258,902.298 964.244,932.877 961.807,926.373 963.688,927.747 1000.48,892.396 1125.42,771.292 1143.61,764.688 1168.16,756.47 1208.11,720.321 1269.86,678.943 1321.71,636.804 1348.12,628.319 1331.91,661.741 1365.42,607.431 1303.28,672.303 1226.3,749.819 1358.24,626.853 1487.28,510.836 1427.9,565.789 1414.99,581.683 1365.33,625.845 1359.84,618.811 1305.9,673.763 1309.14,663.551 1292.79,662.189 1383.64,592.677 1462.14,552.867 1504.42,536.362 1404.96,628.741 1420.86,602.356 1375.89,624.766 1402.74,594.589 1485.46,526.025 1359.64,646.98 1341.32,650.941 1304.33,678.379 1268.16,698.442 1244.1,716.775 1206.94,747.826 1130.07,810.945 1104.62,824.646 1097.68,816.831 1106.21,808.339 1091.28,818.185 1073.46,832.828 1050.17,855.643 1045.91,867.935 1031.82,872.624 954.098,951.588 964.568,922.937 918.726,969.365 878.591,1001.15 861.062,1014.3 883.227,982.075 854.912,1022.73 895.948,974.439 941.936,928.158 929.64,946.735 988.854,891.241 998.037,897.752 1014.31,874.184 975.612,923.894 938.236,958.404 990.585,888.89 1050.95,826.614 996.587,890.117 978.081,905.833 1015.72,895.849 1004.52,889.247 969.083,928.91 983.541,907.095 1042.75,860.029 1059.24,848.907 1043.27,867.44 1085.17,822.898 1214.65,715.062 1235.62,711.12 1244.44,719.739 1111.92,821.921 1124.98,793.663 1110.96,808.286 1045.35,870.285 961.96,946.611 939.989,958.159 938.014,949.37 888.384,1002.01 868.737,1017.25 857.461,1021.86 952.787,918.977 909.389,971.614 910.602,983.935 901.968,978.485 926.29,942.892 917.445,961.144 955.156,913.273 978.299,903.839 1008.09,881.286 1081.99,813.232 980.617,916.327 970.023,923.362 1040.32,854.095 1133.62,778.269 1217.34,726.063 1382.34,577.925 1387,602.667 1386.35,608.354 1362.69,622.697 1305.44,668.668 1309.57,656.929 1341.27,622.714 1367.9,622.802 1302.01,673.317 1182.78,771.81 1192.08,746.3 1109.53,811.653 1090.99,819.898 1063.21,846.422 1064.7,840.21 1053.09,852.918 1027.34,880.81 950.618,953.607 921.754,973.814 970.498,918.054 967.173,924.883 1037.83,848.209 1021.66,866.911 1038.87,846.604 1007.74,878.541 937.325,954.989 965.288,934.675 1072.68,840.081 1077.4,834.988 1081.7,828.446 1027.63,882.973 1074.77,824.295 1165.96,767.352 1103.52,834.465 1026.45,893.52 1018.59,880.79 1077.01,821.456 1104.66,805.555 1090.63,818.294 1158.41,758.462 1150.32,771.933 1148.62,774.576 1182.31,741.179 1202.34,725.483 1197.69,735.632 1190.62,758.649 1118.46,798.438 1071.81,845.468 1148.11,760.392 1278.86,647.33 1276.34,662.066 1259.45,692.33 1246.51,710.448 1283.13,671.874 1269.81,687.176 1254.08,696.875 1205.45,748.55 1234.88,716.622 1275.13,680.17 1126.68,810.911 1154.52,770.391 1107,802.858 1223.41,692.685 1323.61,627.222 1345.15,613.695 1305.13,665.409 1276.99,694.983 1221.75,725.514 1184.67,751.458 1131.27,800.686 1027.38,885.073 926.243,978.117 946.331,939.059 921.219,961.147 928.313,952.036 908.82,974.947 853.392,1025.73 875.21,1001.02 918.167,955.397 931.048,943.681 1010.64,886.548 954.213,937.486 992.307,894.289 1013.19,877.728 1141.58,760.86 1132.16,775.987 1103.27,808.813 1074.46,836.77 1046.29,859.001 1031.04,871.532 1029.82,880.022 1044.5,858.738 1146.66,765.488 1160.86,749.475 1062.03,848.487 1096.66,849.683 1110.46,819.807 1066.16,848.246 1007.45,897.702 1027.32,866.748 1016.48,877.994 982.339,914.458 974.207,925.779 1017.7,876.931 1026.77,879.153 880.255,1008.21 951.038,936.601 905.346,977.911 855.022,1029.66 877.653,1004.95 869.067,1008.5 895.284,994.097 863.324,1018.29 890.376,985.207 867.295,1002.04 929.899,929.439 974.952,882.772 1000.07,870.609 1000.14,886.25 1059.2,834.562 1018.71,886.272 990.383,915.06 973.047,916.668 987.347,914.008 1075.85,834.107 1111.03,805.578 1157.05,750.799 1006.89,864.951 1031.1,858.819 965.451,931.512 973.21,934.526 1061.37,834.834 998.144,909.697 873.299,1021.13 832.976,1059.32 833.41,1044.3 872.789,999.63 906.385,959.866 820.618,1056.61 847.66,1023.12 857.969,1016.13 806.094,1077.35 798.502,1081.98 802.958,1064.29 846.694,1022.4 873.388,1002.43 827.846,1059.77 836.834,1049.76 829.857,1056.91 780.454,1101.75 754.961,1120.53 763.332,1106.64 775.92,1086.2 875.35,984.711 913.836,954.443 883.457,996.264 843.844,1040.09 846.672,1032.63 833.416,1048.72 803.561,1073.22 815.362,1055.72 879.236,1006.9 887.218,999.253 903.909,975.654 893.896,990.199 896.488,988.607 916.174,963.545 974.336,907.789 916.999,976.228 798.571,1091.9 737.403,1152.38 750.431,1127.16 728.562,1150.27 749.096,1120.13 788.111,1075.68 839.661,1024.6 818.788,1049.25 867.588,997.801 873.631,996.27 881.381,988 863.202,1013.28 882.899,996.26 861.787,1019.61 848.394,1031.34 858.044,1018.53 918.856,943.13 991.412,884.828 948.971,936.022 892.905,990.592 900.497,979.76 839.061,1031.86 785.215,1093.67 833.986,1038.81 822.38,1046.86 796.625,1070.97 792.979,1081.88 894.027,972.645 936.438,927.161 921.84,957.97 940.56,947.174 937.113,944.163 901.505,975.588 904.678,975.32 852.947,1019.32 904.473,965.88 878.439,1010.79 883.667,998.176 951.727,912.884 960.141,909.642 1096.81,783.096 1138.47,766.667 1197.65,725.79 1130.95,778.248 1199.29,715.299 1254.15,681.043 1183.43,760.83 1107.78,822.256 1103.75,813.736 1086.83,828.624 1080.4,833.825 1170.35,743.371 1213.23,713.671 1234.77,695.531 1276.68,666.703 1209.51,740.269 1170.43,755.757 1209.26,718.509 1234.7,683.769 1161.06,771.56 1222.17,720.908 1210.39,722.57 1258.19,677.882 1284.55,679.108 1294.8,659.503 1380.65,591.003 1473.13,534.168 1537.87,518.368 1533.95,528.798 1489.28,562.191 1464.77,569.055 1346.08,670.343 1302.12,684.985 1266.32,706.62 1299.82,660.455 1365.21,597.931 1488.9,491.53 1441.97,562.553 1353.23,639.194 1380.97,608.946 1346.84,628.543 1347.21,628.873 1282.69,685.183 1282.45,684.652 1259.11,700.411 1208.38,741.334 1175.35,766.129 1175.69,762.441 1160.11,777.652 1229.87,716.911 1149.46,785.909 1122,807.175 1177.6,754.548 1156.57,781 1347.1,613.87 1341.95,623.592 1364.44,618.092 1535.18,475.158 1471.48,554.712 1469.24,568.065 1427.35,590.815 1442.94,573.9 1421.95,587.815 1288.61,703.288 1267.02,702.567 1266.39,691.866 1259.27,700.991 1259.43,697.902 1248.88,708.19 1235.73,717.928 1273.05,675.016 1388.62,588.483 1375.99,607.513 1403.79,590.354 1324.13,664.064 1331.28,638.6 1299.06,662.817 1248.85,715.739 1217.82,738.752 1264.17,696.682 1177.73,767.811 1257.68,684.036 1307.53,649.006 1415.34,562.84 1458.73,547.621 1407.44,605.632 1440.26,572.859 1401.08,606.979 1312.43,680.068 1245.71,726.441 1150.16,807.806 1078.54,859.42 1055.77,865.938 994.277,921.629 952.737,949.35 958.87,932.684 987.423,898.061 994.013,893.039 997.888,890.218 1024.69,863.223 1059.86,832.565 1113.79,797.309 1097.02,825.184 1103.76,805.481 1172.08,745.001 1095.08,835.289 1096.48,829.083 1007.42,901.239 992.072,902.25 1087.69,806.337 1093.47,813.076 1129.25,787.353 1000.18,883.721 919.084,974.189 1030.25,851.012 1090.96,805.371 1135.79,760.935 1177.45,733.442 1167.13,763.792 1152.98,774.835 1344.18,612.677 1422.41,574.281 1432.07,575.024 1455.88,573.135 1379.82,635.41 1420.96,590.674 1379.99,628.818 1220.88,766.004 1111.93,852.072 1097.59,843.301 1083.89,844.312 1036.77,879.874 988.021,923.909 955.456,943.665 953.366,937.019 981.02,902.812 991.748,889.748 1085.76,799.633 1077.78,818.875 1058.16,845.616 988.642,916.447 984.085,913.401 970.015,922.566 942.132,939.264 902.123,982.135 891.333,994.949 811.557,1070.35 749.835,1133.47 779.02,1091.99 794.476,1077.08 769.892,1105.44 853.145,1007.17 875.254,992.358 909.433,961.148 951.232,920.39 1005.46,874.56 1006.05,881.653 984.673,908.333 967.396,921.866 879.039,1012.37 871.058,1014.28 881.987,995.925 919.228,970.982 900.861,985.73 853.942,1034.96 821.04,1063.23 818.449,1060.81 796.944,1082.62 863.884,1019.79 899.539,970.895 900.567,973.141 911.371,959.793 922.32,950.001 960.664,927.76 960.054,925.132 956.943,919.54 1035.9,866.998 1056.47,837.601 1098.69,797.936 1152.13,740.926 1108.63,802.204 1078.45,829.865 1049.09,851.313 1030.96,858.823 1070.74,832.829 1061.12,848.923 1071.1,827.003 1101.96,803.727 1125.82,779.081 1225.82,708.485 1222.74,722.012 1282.43,669.673 1326.17,645.782 1322.38,645.031 1220.04,728.916 1116.58,811.305 1058.41,855.745 1080.2,828.868 1062.1,844.302 1117.53,787.589 1181.05,745.597 1150.19,770.278 1137.78,789.153 1177.23,742.165 1064.39,841.973 1020.15,877.357 1041.52,861.406 1113.65,793.188 1129.81,793.677 1227.9,697.304 1115.05,791.772 1081.59,811.421 1199.6,723.584 1218.15,714.455 1293.43,645.494 1179.63,761.218 1068.67,855.179 1116.69,791.365 1063.89,832.564 1027.15,879.297 1030.62,876.854 1085.81,817.942 1082.84,818.953 966.951,918.51 998.682,891.016 965.049,924.128 970.118,907.151 1042.97,857.122 1067.97,835.011 1006.29,897.9 1038.01,866.208 1037.24,868.534 1075.39,828.014 1104.58,795.976 1159.43,765.818 1203.11,727.265 1239.16,730.955 1200.55,760.281 1122.32,820.004 1145.43,786.261 1145.44,776.182 1206.01,707.317 1227.34,695.365 1206.99,726.962 1231.05,699.378 1093.22,824.129 1000.99,907.362 967.016,925.51 959.643,932.961 947.05,938.07 948.444,930.476 989.855,892.49 1015.51,875.555 1008.54,901.326 974.718,922.673 967.726,917.115 1015.24,873.405 909.807,976.736 899.217,978.513 839.572,1042.28 842.781,1031.7 837.64,1040.68 805.081,1068.86 822.855,1051.89 844.356,1025.41 857.743,1022 904.674,978.293 867.628,1011 914.548,955.892 943.803,941.438 863.659,1028.37 912.319,972.718 1076.44,796.663 1159.68,742.214 1253.49,658.719 1266.97,668.148 1242.42,702.596 1245.35,706.555 1192.18,747.438 1173.29,763.555 1126.45,801.75 1145.74,779.844 1203.82,736.414 1190.45,750.329 1122.41,809.816 1091.27,828.774 1090.51,816 1190.27,724.323 1249.53,688.836 1254.75,684.193 1294.93,651.884 1285.81,668.568 1340.24,638.805 1465.57,529.645 1430.83,556.477 1465.64,546.102 1505.73,530.705 1426.9,591.869 1368.04,632.081 1320.32,671.611 1392.13,597.568 1414.48,589.773 1378.04,615.165 1368.31,614.566 1306.91,662.411 1252.28,714.802 1228.52,722.715 1253.08,694.658 1383.6,580.58 1333.24,640.555 1372.77,606.536 1308.54,672.343 1424.42,549.125 1434.7,568.591 1476.79,557.374 1523.67,509.432 1414.93,610.709 1284.3,712.45 1259.42,716.038 1290.53,675.618 1321.23,657.295 1253.05,710.326 1213.84,738.619 1211.37,727.351 1206.04,731.859 1195.67,739.542 1126.93,800.305 1091.65,831.352 1061.95,847.571 1094.71,800.764 1102.56,802.174 1050.81,851.083 1055.26,852.378 1105.77,803.197 1131.1,798.231 1174.55,759.632 1091.26,830.636 1070.71,839.505 1099.06,807.359 1122.87,787.344 1066.58,852.141 1032.98,879.765 982.194,924.06 889.675,1006.44 909.821,971.879 977.361,899.925 995.899,891.947 1028.99,864.288 1002.33,887.026 1023.13,878.683 975.826,934.91 1067.17,831.048 1109.89,787.551 1247.18,682.676 1265.19,674.6 1266.69,686.654 1156.46,782.453 1095.48,837.377 1080.3,839.691 1089.95,831.079 1022.64,899.149 1098.91,805.317 1158.49,761.541 1145.19,775.654 1154.46,772.37 1126.09,802.047 1107.15,815.663 1146.64,767.131 1200.28,730.009 1222.55,709.406 1166.64,772.471 1074.82,849.812 1056.92,863.548 1097.06,810.966 1124.98,780.781 1107.09,798.779 1160.58,754.149 1138.94,788.142 1165.75,751.596 1236.09,693.051 1163.87,771.713 1206.59,735.373 1253.77,693.685 1233.36,707.974 1277.84,683.191 1343.38,630.269 1189.81,760.244 1095.68,839.234 1128.4,788.602 1138.38,776.957 1086.31,827.783 1063.77,853.364 1051.83,864.318 968.091,935.895 900.02,995.703 844.641,1040.64 840.809,1036.06 854.102,1022.87 875.989,1002.67 998.198,886.423 1085.77,812.384 997.853,907.999 945.141,944.225 990.983,887.259 1048.99,840.53 1079.71,813.977 1116.14,788.579 1174.1,747.785 1088.67,840.134 1145.57,771.5 1171.38,755.252 1231.22,706.987 1199.67,743.199 1086.42,842.538 1115.92,795.366 1068.62,845.281 1090.42,819.31 1094.57,816.69 1103.58,808.819 1101.17,799.493 1139.85,768.047 1083.51,839.11 1053.76,857.572 1028.52,878.397 1000.66,901.917 1047.78,850.389 1082.3,833.648 1103.88,804.838 1095.22,824.163 1109.39,814.099 1130.81,804.887 1150.17,781.765 1101.49,825.584 1078.53,851.417 976.955,930.72 910.929,992.245 898.896,991.532 921.047,961.758 922.248,963.396 954.648,923.465 947.236,926.934 908.819,980.153 903.708,974.889 941.953,940.899 962.862,927.136 1052.61,842.7 1096.94,811.498 1066.54,854.725 1029.07,888.639 1083.7,837.698 1022.07,877.749 1082.36,821.681 1144.96,770.646 1090.96,817.156 997.047,905.166 1002.09,885.402 1023.71,866.797 1100.27,802.953 997.426,907.972 946.988,947.063 925.109,963.045 877.946,1008.41 873.332,1005.17 871.258,1004.72 910.082,954.428 937.174,924.533 895.881,981.085 993.902,878.126 929.255,966.973 917.578,968.179 941.298,933.37 979.15,903.803 950.047,942.859 970.586,917.861 965.069,906.785 984.216,900.565 1022.07,861.546 1106.35,806.163 1112.01,797.97 1060.69,848.206 966.029,936.067 941.489,955.862 963.298,923.722 1008.6,873.341 1000.22,883.137 985.064,914.953 976.023,907.254 954.482,933.71 896.275,987.884 913.385,961.707 834.943,1045.24 843.71,1034.5 837.675,1030.05 805.006,1069.18 779.108,1098.24 758.225,1111.14 760.647,1112.01 797.429,1072.02 824.943,1047.26 862.251,1008.68 869.999,995.722 843.086,1027.69 858.106,1018.72 892.73,977.31 895.936,982.668 897.737,990.725 922.557,966.404 1034,862.212 978.2,910.003 975.091,915.81 1041.19,840.584 1069.53,813.955 1082.05,824.553 1017.64,886.432 959.801,938.432 850.859,1037.21 835.638,1045.19 873.038,999.291 949.809,920.011 998.129,882.158 1108.17,783.86 1043.05,864.045 1018.49,888.111 1050.19,844.088 1035.57,861.462 1135.29,781.863 1129.28,788.903 1163.86,742.566 1076.49,834.122 1034.18,869.566 1043.37,840.557 1018.41,876.34 1095.76,802.25 1108.33,788.213 1068.51,842.19 1015.88,876.538 962.602,943.129 893.982,1002.71 871.509,1014.28 843.624,1038 860.693,1021.55 916.505,952.793 965.986,900.184 988.38,886.101 1010.68,872.037 1031.9,851.472 1042.33,844.025 1100.04,810.863 1106.8,799.358 1001.8,885.709 986.912,901.052 972.248,909.922 992.669,894.385 954.881,933.348 970.69,914.809 1034.52,865.413 1053.84,841.535 1092.51,819.413 1059.99,847.833 1066.01,836.733 1066.7,832.791 1241.95,677.178 1190.39,736.174 1169.3,766.521 1148.3,781.657 1083.83,840.796 1115.5,800.725 1087.27,825.961 1043.24,861.82 958.743,947.563 992.022,912.321 1004.52,889.734 994.041,903.533 938.139,957.667 975.3,919.212 1013.85,878.433 1055.66,839.772 1066.11,837.072 1041.22,858.246 1007.52,902.314 1017.48,887.333 1009.32,913.349 975.65,958.215 927.998,982.3 918.996,976.261 905.809,988.185 945.625,935.653 1015.48,868.893 1082.37,813.053 1121.1,784.477 1049.34,860.917 1071.37,828.737 1099.12,796.442 1135.62,766.093 1214.13,701.859 1160.76,760.105 1177.05,744.798 1131.74,792.166 1123.75,785.778 1075.98,836.85 1188.33,724.476 1327.34,611.226 1376.6,587.236 1363.27,616.682 1319.98,662.623 1387.86,598.162 1417.03,567.801 1370.8,629.908 1295.87,685.056 1266.46,692.303 1264.68,691.099 1286.22,677.455 1364.96,597.216 1363.07,601.331 1285.43,696.816 1219.99,736.025 1265.89,675.592 1201.85,742.334 1167.27,773.757 1107.39,837.662 1073.33,846.793 1101.81,809.662 1027.51,879.419 991.268,914.719 947.151,951.72 883.376,1013.1 929.979,947.943 920.003,970.501 887.276,1004.45 842.666,1050.21 845.49,1041.03 828.56,1053.15 861.927,1015.11 883.151,989.959 874.951,1010.93 930.058,953.738 901.732,985.571 956.606,919.357 998.768,890.788 933.486,952.488 888.735,981.441 853.789,1024.93 867.046,1018.88 953.342,923.286 951.558,927.022 1062.4,834.598 1055.74,853.067 1032.7,872.189 973.764,920.738 975.958,921.726 955.42,938.194 1121.43,753.635 1141.67,758.16 1181.77,742.227 1048.27,863.66 1081.83,828.885 1055.35,862.563 1075.46,838.118 1075.89,829.67 1088.83,814.245 1118.82,792.664 1081.69,832.714 1155.02,788.644 1094.14,834.996 1004.06,913.17 1006.98,901.585 1060.34,845.925 1009.18,888.631 1010.49,880.94 993.146,899.173 997.828,896.811 973.581,911.808 914.181,975.344 894.833,997.845 975.322,912.002 1007.73,876.032 954.84,933.539 942.283,942.854 966.3,919.081 930.715,955.609 865.977,1001.1 925.053,956.773 994.182,877.926 1023.88,861.995 965.585,926.644 901.753,988.185 882.694,1003.82 828.246,1047.46 861.125,1006.14 941.525,932.168 1015.2,861.289 1044.89,845.045 1124.83,772.773 1176.51,741.101 1250.65,675.277 1368.23,600.325 1490.66,509.664 1556.51,485.777 1604.1,456.594 1667.77,399.586 1565.13,500.78 1582.24,490.876 1707.81,386.995 1763.84,354.516 1747.31,382.122 1740.94,394.746 1678.18,451.106 1584.72,516.497 1551.89,528.461 1597.42,475.583 1522.52,536.442 1509.25,539.523 1525.56,517.216 1594.81,455.599 1626.11,441.545 1567.52,501.54 1534.27,522.228 1494.61,547.526 1512.1,521.978 1490.13,539.741 1496.79,530.28 1416.11,600.676 1444.47,566.353 1418.18,589.058 1345.71,655.638 1331.92,654.134 1322.8,654.402 1262.42,708.353 1190.84,767.211 1124.08,823.155 1085.38,848.288 1083.06,835.072 1093.78,815.337 1077.45,829.123 1069.74,836.47 1075.64,829.97 1103.58,804.956 1066.08,845.43 982.705,925.929 1029.31,869.517 1000.52,908.471 953.725,945.714 938.246,953.646 941.274,945.915 972.818,912.15 1013.88,867.154 1089.52,802.478 1140.33,762.301 1149.37,760.025 1194.6,729.591 1106.11,823.547 1137.25,784.085 1137.39,783.222 1196.69,725.561 1189.41,742.487 1274.38,678.095 1289.11,671.536 1237.72,705.375 1084.97,851.117 1108.47,825.776 1187.8,751.686 1119.22,820.84 1063.07,850.802 1069.53,832.789 1073,823.198 1189.81,710.776 1165.65,757.497 1279.19,646.535 1298.01,645.585 1359.46,605.235 1333.33,631.278 1291.58,682.312 1145.25,801.274 1039.19,889.884 1042.3,872.949 1072.69,835.117 1112.09,791.471 1215.17,692.804 1235.5,700.324 1229.57,712.81 1301.83,643.062 1314.86,648.154 1338.43,636.838 1208.31,754.782 1225.31,724.101 1213.63,729.501 1152.91,787.815 1111.87,816.038 1117.38,809.75 1258.21,676.984 1222.58,715.845 1208.15,735.353 1193.53,760.36 1080,847.52 1019.38,897.909 1004.67,903.437 953.227,945.153 1017.49,868.838 963.757,933.323 891.725,1002.14 920.489,959.336 954.947,922.728 981.147,900.32 974.756,916.511 1013.09,876.401 1170.1,717.116 1227.12,679.815 1189.02,737.452 1084.62,845.916 1054.87,863.828 1062.01,845.046 1144.05,759.638 1175.4,736.242 1145.7,776.787 1178.5,745.219 1175.19,749.15 1324.28,607.577 1168.72,771.778 1069.18,842.3 989.186,917.14 997.994,898.184 978.187,918.56 976.777,914.484 986.766,905.05 918.768,976.193 901.582,984.579 892.225,996.327 890.391,985.401 813.456,1066.94 856.271,1007.84 862.553,1007.24 847.811,1028.68 773.828,1101.3 708.732,1174.71 720.876,1153.23 700.039,1178.57 731.486,1135.43 777.358,1088.18 818.143,1038.7 821.1,1045.8 864.75,1000.86 898.837,965.201 865.095,1006.77 878.236,995.097 897.469,980.724 925.349,950.606 927.804,954.381 892.124,996.938 946.121,939.293 975.505,907.478 1002.58,904.058 1018.49,869.706 964.622,921.252 1048.63,836.57 997.585,892.554 1040.53,863.47 987.517,910.748 1030.91,869.498 1155.03,772.064 1135.08,790.39 1081.74,851.22 1061.7,864.436 1103.69,805.753 1127.38,794.778 1077.04,831.184 1111.85,809.21 1107.39,816.644 984.06,924.415 988.053,907.131 1048.63,848.19 968.42,932.11 918.847,978.112 866.027,1029.07 886.087,995.542 822.588,1059.44 797.872,1080.05 851.696,1011.52 845.665,1024.39 865.406,1007.61 862.85,1012.25 845.448,1032.19 865.564,1009.74 824.76,1056.98 821.756,1051.37 812.776,1063.92 908.2,957.535 951.406,920.343 1000.33,872.968 1033.16,857.126 1028.05,874.301 1089.05,813.662 1143.41,764.766 1201.18,725.307 1147.81,771.507 1179.23,747.686 1091.9,816.74 1114.28,791.561 1209.05,714.885 1180.77,743.022 1094.71,831.182 995.012,910.803 1056.79,834.357 1059.67,834.712 1063.29,839.458 1165.37,738.695 1243.73,673.644 1217.5,717.364 1305.74,649.757 1254.13,700.965 1320.61,650.67 1307.54,667.709 1239.12,727.416 1167.48,790.407 1100.64,837.499 1088.59,833.675 1092.13,818.654 1096.7,823.297 1159.12,763.319 1071.12,844.649 1072.97,833.923 1082.06,829.51 1138.94,786.413 1077.41,831.538 1068.25,837.399 1108.55,797.826 1054.41,864.345 1056.16,853.967 1046.3,862.217 991.083,906.957 1054.05,835.996 1042.28,858.278 976.172,917.585 930.538,956.495 885.322,985.685 841.595,1036.37 824.426,1046.89 822.078,1054.99 873.393,998.223 897.974,985.253 853.578,1024.95 910.889,973.148 971.239,912.119 1010.25,883.08 980.458,903.741 966.909,927.464 1010.59,871.607 981.44,911.993 896.589,999.601 879.589,1007.17 884.807,997.182 866.964,1001.2 902.939,973.926 950.216,923.905 982.638,897.122 988.617,900.441 1036.89,862.26 1016.65,886.112 949.452,949.146 957.81,940.499 920.642,984.529 938.081,955.24 928.015,971.054 876.224,1005.09 772.285,1111.33 772.4,1112.35 768.039,1107.2 777.418,1106.62 799.814,1070.99 775.736,1096.58 810.636,1056.65 799.838,1077.75 783.407,1094.28 748.258,1131.5 768.181,1096.54 701.218,1170.16 701.603,1169.66 719.054,1142.01 775.057,1088.2 846.764,1011.02 828.552,1038.89 875.977,983.201 844.744,1029.71 856.031,1012.2 843.974,1027.1 817.993,1054.74 781.858,1096.3 873.574,998.018 892.19,975.607 926.55,949.905 933.325,943.893 832.238,1052.61 794.719,1089.86 815.213,1060.34 777.657,1096.14 760.23,1120.04 702.467,1178.45 720.019,1150.28 749.972,1115.76 739.31,1129.89 749.083,1115.7 736.457,1134.16 774.398,1085.81 823.57,1038.53 865.071,991.875 883.199,981.633 905.318,974.294 925.908,958.047 931.836,947.768 992.475,889.34 940.975,947.751 874.668,1014.15 894.388,982.939 865.859,1020.16 784.454,1092.4 773.54,1101.94 724.379,1157.93 718.702,1155.21 760.531,1110 738.689,1131.1 785.685,1079.31 826.312,1035 804.936,1062.69 758.212,1114.55 759.288,1115.18 776.77,1090.09 827.215,1038.97 910.553,949.587 926.327,939.04 904.818,972.798 930.234,954.029 924.092,967.015 962.035,941.937 1023.96,868.867 939.568,954.987 926.741,959.542 905.693,987.067 970.762,919.357 1025.64,862.459 1018.01,868.628 1156.42,748.073 1219.87,713.587 1247.09,693.919 1332.37,627.76 1432.25,561.029 1431.74,571.303 1319.99,660.787 1341.8,639.676 1381.49,605.716 1239.71,743.897 1167.35,791.243 1171.9,762.985 1095.36,831.825 1103.13,810.509 1148.27,759.828 1143.66,781.315 1178.84,741.732 1167.14,774.073 1061.84,873.57 1046.24,870.863 1044.01,856.129 1072.95,824.085 1119.41,784.593 1147.35,766.329 1148.47,768.457 1105.22,812.581 1129.84,779.577 1113.76,804.435 1133.3,775.322 1082.71,810.632 1039.21,858.457 940.73,943.308 990.672,884.22 966.854,920.776 951.636,940.228 1020.9,853.561 949.092,921.491 1003.09,885.528 1022.76,866.447 1053.19,844.494 1088.97,821.008 1184.2,753.915 1137.52,790.334 1121.41,800.642 1066.51,849.298 1014.39,898.211 1030.86,881.647 981.425,924.947 987.78,907.294 963.144,926.966 924.489,963.941 936.651,961.088 876.871,1023.07 833.696,1049.8 848.547,1024.92 844.623,1024.82 895.205,977.991 899.986,975.137 971.18,901.487 983.788,890.942 979.526,899.259 967.284,934.142 1156.99,745.883 1097.18,821.918 1071.8,843.512 1055.41,855.211 1072.53,837.545 1105.56,806.528 1113.17,796.577 1100.23,812.048 1016.07,873.135 1079.53,819.338 1229.08,691.423 1186.82,744.686 1139.73,787.058 1110.33,819.55 1015.26,890.023 1056.1,848.547 1158.35,743.908 1128.38,789.553 1074.13,845.758 1046.25,861.445 1002.05,904.5 1029.36,867.642 993.635,906.582 1017.7,883.911 1037.29,858.705 1056.18,843.333 1143.18,789.988 1204.77,721.986 1223.06,720.338 1242.42,703.344 1173.79,771.245 1159.31,782.506 1125.59,807.1 1212.82,714.858 1263.2,670.716 1206.96,734.082 1166.67,767.432 1187.01,752.254 1142.75,803.431 1046.43,875.523 1032.59,884.55 1027.74,878.247 1019.78,878.306 1041.37,851.188 983.695,916.512 1024.56,866.513 1047.5,843.569 1046.27,848.321 1093.85,808.729 1099.07,811.859 964.921,929.226 1023.98,871.085 973.945,919.518 944.835,950.014 907.158,985.14 967.325,911.932 1088.48,807.957 1088.27,822.744 1197.26,710.33 1165.48,771.115 1229.24,720.385 1189.09,748.423 1248.66,701.792 1349.92,632.604 1446.13,557.144 1413.56,599.914 1417.26,595.769 1527,523.437 1459.31,573.983 1373.32,640.144 1306.6,687.854 1312.57,668.925 1277.67,688.791 1142.42,808.709 1072.43,860.775 1077.18,834.878 1061.99,843.248 1045.46,858.024 1008.47,889.386 1001.84,888.535 1002.17,888.304 1007.35,889.138 1057.48,837.324 1044.53,847.201 1090.73,822.74 1112.51,811.721 1008.03,907.644 996.655,905.918 1010.09,883.742 995.087,895.058 1084.39,800.523 1113.2,777.288 1137.56,780.773 1144.45,785.054 1160.13,764.154 1259.71,700.514 1225.62,732.664 1250.82,696.162 1269.49,681.378 1251.29,699.492 1203.88,741.369 1193.18,749.799 1239.13,703.443 1185.52,757.551 1217.67,715.649 1203.66,741.269 1183.8,762.457 1155.53,768.51 1161.73,766.841 1168.57,749.552 1198.47,730.859 1120.63,794.008 1168.03,756.591 1131.9,791.531 1109.72,811.893 1232.27,719.137 1252.83,703.073 1314.67,642.763 1191.39,739.241 1147.79,776.296 1101.38,811.337 1104.58,807.051 1046.24,856.051 1074.39,831.458 1013.22,883.496 953.576,945.224 1057.88,838.217 1070.63,831.96 958.665,937.433 1051.96,842.285 1040,853.194 1047.71,838.684 957.746,929.517 987.533,906.324 881.828,999.631 883.374,994.342 887.926,990.986 994.852,876.577 1041.47,844.449 1025.91,872.807 1068.66,839.51 1069.97,834.945 1192.92,737.226 1195.77,732.983 1235.29,708.926 1211.74,729.717 1194.82,742.201 1161.25,769.684 1186.84,735.315 1280.46,669.257 1246.65,692.636 1234.68,730.27 1142.29,798.479 1144.42,785.568 1182.11,754.09 1220.28,741.871 1202.8,747.376 1294.26,656.633 1175.98,766.666 1117.79,814.798 1104.18,812.165 1058.22,853.609 1154.06,745.84 1150.96,764.977 1154.23,768.764 1200.2,732.842 1217.31,715.636 1270.01,682.771 1336.89,635.513 1294.86,671.554 1264.38,694.695 1282.36,668.204 1262.99,701.206 1221.88,733.791 1190.78,755.511 1260.38,691.669 1304.59,650.063 1216.88,731.464 1271.46,680.403 1262.53,699.603 1200.64,759.117 1083.37,854.868 1007.77,918.356 974.691,931.854 959.93,939.24 987.334,899.527 878.569,1018.51 898.665,983.638 914.854,966.918 884.554,990.429 864.157,1013.46 989.115,877.829 1093.18,786.061 1016.43,889.287 1015.54,881.632 1007.56,889.713 1126.38,769.001 1180.48,738.006 1093.58,829.741 1035.58,879.221 1023.82,882.623 1004.93,904.07 993.087,911.647 1004.97,888.985 1104.51,782.148 1187.77,728.21 1101.66,824.153 1129.04,787.156 1106.31,814.371 1123.28,796.985 1112.33,808.784 1088.18,829.623 1041.88,866.225 1057.48,848.894 1101.21,805.058 1012.1,896.692 1081.4,818.207 1103.44,778.207 1139.47,762.396 1068.88,845.259 998.102,902.152 968.888,930.411 935.169,955.817 1039.85,841.447 997.6,890.153 999.189,892.239 999.433,898.112 1037.38,849.453 992.46,900.479 889.838,994.465 893.743,976.387 915.625,955.323 927.683,942.856 926.658,953.008 920.475,967.41 938.036,945.104 909.89,958.65 922.582,951.797 895.161,974.487 964.334,914.887 892.506,981.898 936.726,956.607 978.994,900.179 995.536,898.077 1005.32,893.7 955.597,933.764 966.285,927.304 1036.88,859.397 998.039,902.091 1063.13,832.993 1032.92,867.885 978.336,933.703 926.645,965.442 946.744,937.853 951.059,934.341 961.97,920.13 986.05,900.263 971.45,918.813 990.796,906.039 972.064,925.249 950.935,941.478 904.243,973.602 829.301,1047.99 867.103,996.158 807.172,1062.51 813.666,1059.13 840.423,1023.28 830.527,1037.26 844.896,1025.62 848.415,1033.17 805.677,1075.97 819.317,1056.34 824.167,1058.03 858.177,1021.48 891.247,972.302 892.864,989.099 939.72,936.871 965.832,921.888 1014.89,877.083 1039.41,877.684 938.302,967.921 1019.8,875.181 1023.21,895.952 1015.61,891.154 1004.4,892.213 1098.96,795.628 1187.9,721.079 1272.72,668.632 1308.59,644.464 1310.67,658.365 1289.69,665.942 1351.55,607.834 1396.18,588.493 1441.33,557.798 1354.58,620.008 1368.5,618.806 1257.47,707.388 1249.24,698.096 1240.32,706.36 1220.69,727.057 1177.13,764.204 1016.12,907.189 996.844,906.129 959.443,936.658 930.073,956.109 895.651,987.009 848.928,1033.99 857.139,1019.82 833.679,1047.2 867.723,1002.32 889.334,977.129 908.844,953.1 926,953.511 946.323,928.127 973.493,906.412 1000.78,876.423 973.279,926.932 910.347,979.232 895.378,994.194 922.552,955.465 1021.94,864.062 1056.03,836.959 1115.82,783.93 1061.94,857.513 1134.99,781.006 1297.45,633.048 1332.43,620.769 1193.74,760.952 1178.32,780.812 1130.15,802.891 1123.41,797.992 1154.79,764.917 1077.43,843.057 1051.15,865.328 991.033,917.498 1028.78,869.043 1039.12,855.075 1035.71,862.705 982.28,921.525 1046.46,845.641 1000.98,899.951 937.65,948.488 945.276,940.397 988.763,898.808 915.559,970.484 874.763,1006.99 953.685,921.311 1025.02,862.962 1072.28,811.003 1016.04,895.146 992.962,910.947 1001.46,896.173 1016.21,865.089 1009.85,873.534 965.379,918.164 947.643,942.942 1008.37,891.347 1038.39,859.754 1078.37,826.443 1096.43,804.271 1102.81,800.497 1150.49,764.655 1189.17,747.359 1281.74,682.323 1296.76,659.112 1316.53,626.839 1276.61,668.977 1258.27,693.8 1216.91,722.737 1192.4,739.923 1103.42,819.027 1067.29,830.386 1046.41,861.311 1096.53,798.081 1041.24,850.01 943.777,930.182 866.624,1016.93 871.791,1006.91 889.814,986.862 903.014,980.153 848.702,1032.05 900.56,964.9 948.35,922.553 1049.35,828.206 1019.26,867.563 1127.2,785.803 1168.21,752.773 1081.04,836.293 1050.36,864.053 1031.55,869.457 1078.18,821.672 1077.78,827.668 1025.89,875.305 1033.09,876.259 1107.47,806.046 973.369,904.928 952.784,929.831 908.217,975.147 902.802,985.522 956.699,927.543 975.189,913.567 951.783,936.626 874.776,995.108 862.961,1011.28 883.802,979.041 898.603,966.637 936.067,927.968 932.991,939.985 952.389,920.877 951.162,928.91 996.931,879.457 943.626,908.013 820.036,1022.14 883.885,965.063 933.36,923.227 907.564,965.899 947.703,923.337 1062.12,830.444 1064.61,840.282 1100.03,809.399 1096.25,832.007 1132.79,777.526 1137.94,777.37 1124.32,809.268 1127.05,805.111 1314.24,650.068 1278.61,692.346 1316.72,658.288 1268.1,688.982 1242.93,707.356 1243.79,712.77 1187.02,760.018 1255.24,687.1 1212.53,721.253 1263.51,687.962 1188.16,754.687 1189.02,748.793 1093.75,834.905 1108.93,808.88 1146.76,776.806 1101.97,825.789 1114.53,823.538 1193.15,726.943 1215.99,712.391 1207.31,735.685 1329.2,663.832 1296.89,706.257 1317.96,662.163 1222.42,745.188 1227.47,716.21 1308.39,651.946 1390.91,582.448 1381.7,617.834 1286.53,690.432 1246.05,718.856 1266.57,690.721 "/>
<path clip-path="url(#clip170)" d="M186.863 198.898 L550.897 198.898 L550.897 95.2176 L186.863 95.2176  Z" fill="#ffffff" fill-rule="evenodd" fill-opacity="1"/>
<polyline clip-path="url(#clip170)" style="stroke:#000000; stroke-linecap:round; stroke-linejoin:round; stroke-width:4; stroke-opacity:1; fill:none" points="186.863,198.898 550.897,198.898 550.897,95.2176 186.863,95.2176 186.863,198.898 "/>
<polyline clip-path="url(#clip170)" style="stroke:#009af9; stroke-linecap:round; stroke-linejoin:round; stroke-width:4; stroke-opacity:1; fill:none" points="211.758,147.058 361.13,147.058 "/>
<path clip-path="url(#clip170)" d="M396.651 128.366 Q393.549 133.69 392.044 138.898 Q390.54 144.106 390.54 149.453 Q390.54 154.801 392.044 160.055 Q393.572 165.287 396.651 170.588 L392.947 170.588 Q389.475 165.148 387.739 159.893 Q386.026 154.639 386.026 149.453 Q386.026 144.291 387.739 139.06 Q389.452 133.828 392.947 128.366 L396.651 128.366 Z" fill="#000000" fill-rule="nonzero" fill-opacity="1" /><path clip-path="url(#clip170)" d="M403.063 138.412 L423.294 138.412 L423.294 142.301 L407.276 160.935 L423.294 160.935 L423.294 164.338 L402.484 164.338 L402.484 160.449 L418.502 141.815 L403.063 141.815 L403.063 138.412 Z" fill="#000000" fill-rule="nonzero" fill-opacity="1" /><path clip-path="url(#clip170)" d="M430.887 158.458 L435.771 158.458 L435.771 162.439 L431.975 169.847 L428.988 169.847 L430.887 162.439 L430.887 158.458 Z" fill="#000000" fill-rule="nonzero" fill-opacity="1" /><path clip-path="url(#clip170)" d="M455.655 166.745 Q453.849 171.375 452.136 172.787 Q450.423 174.199 447.553 174.199 L444.15 174.199 L444.15 170.634 L446.65 170.634 Q448.41 170.634 449.382 169.8 Q450.354 168.967 451.535 165.865 L452.298 163.921 L441.812 138.412 L446.326 138.412 L454.428 158.689 L462.53 138.412 L467.044 138.412 L455.655 166.745 Z" fill="#000000" fill-rule="nonzero" fill-opacity="1" /><path clip-path="url(#clip170)" d="M474.011 158.458 L478.896 158.458 L478.896 162.439 L475.099 169.847 L472.113 169.847 L474.011 162.439 L474.011 158.458 Z" fill="#000000" fill-rule="nonzero" fill-opacity="1" /><path clip-path="url(#clip170)" d="M509.544 138.412 L500.169 151.027 L510.03 164.338 L505.007 164.338 L497.46 154.152 L489.914 164.338 L484.891 164.338 L494.96 150.773 L485.747 138.412 L490.77 138.412 L497.645 147.648 L504.52 138.412 L509.544 138.412 Z" fill="#000000" fill-rule="nonzero" fill-opacity="1" /><path clip-path="url(#clip170)" d="M515.377 128.366 L519.081 128.366 Q522.553 133.828 524.266 139.06 Q526.002 144.291 526.002 149.453 Q526.002 154.639 524.266 159.893 Q522.553 165.148 519.081 170.588 L515.377 170.588 Q518.456 165.287 519.96 160.055 Q521.488 154.801 521.488 149.453 Q521.488 144.106 519.96 138.898 Q518.456 133.69 515.377 128.366 Z" fill="#000000" fill-rule="nonzero" fill-opacity="1" /></svg>
