<?xml version="1.0" encoding="utf-8"?>
<svg xmlns="http://www.w3.org/2000/svg" xmlns:xlink="http://www.w3.org/1999/xlink" width="600" height="400" viewBox="0 0 2400 1600">
<defs>
  <clipPath id="clip700">
    <rect x="0" y="0" width="2400" height="1600"/>
  </clipPath>
</defs>
<path clip-path="url(#clip700)" d="M0 1600 L2400 1600 L2400 0 L0 0  Z" fill="#ffffff" fill-rule="evenodd" fill-opacity="1"/>
<defs>
  <clipPath id="clip701">
    <rect x="480" y="0" width="1681" height="1600"/>
  </clipPath>
</defs>
<path clip-path="url(#clip700)" d="M193.936 1423.18 L2352.76 1423.18 L2352.76 47.2441 L193.936 47.2441  Z" fill="#ffffff" fill-rule="evenodd" fill-opacity="1"/>
<defs>
  <clipPath id="clip702">
    <rect x="193" y="47" width="2160" height="1377"/>
  </clipPath>
</defs>
<polyline clip-path="url(#clip702)" style="stroke:#000000; stroke-linecap:round; stroke-linejoin:round; stroke-width:2; stroke-opacity:0.1; fill:none" points="193.936,1423.18 193.936,47.2441 "/>
<polyline clip-path="url(#clip702)" style="stroke:#000000; stroke-linecap:round; stroke-linejoin:round; stroke-width:2; stroke-opacity:0.1; fill:none" points="625.7,1423.18 625.7,47.2441 "/>
<polyline clip-path="url(#clip702)" style="stroke:#000000; stroke-linecap:round; stroke-linejoin:round; stroke-width:2; stroke-opacity:0.1; fill:none" points="1057.46,1423.18 1057.46,47.2441 "/>
<polyline clip-path="url(#clip702)" style="stroke:#000000; stroke-linecap:round; stroke-linejoin:round; stroke-width:2; stroke-opacity:0.1; fill:none" points="1489.23,1423.18 1489.23,47.2441 "/>
<polyline clip-path="url(#clip702)" style="stroke:#000000; stroke-linecap:round; stroke-linejoin:round; stroke-width:2; stroke-opacity:0.1; fill:none" points="1920.99,1423.18 1920.99,47.2441 "/>
<polyline clip-path="url(#clip702)" style="stroke:#000000; stroke-linecap:round; stroke-linejoin:round; stroke-width:2; stroke-opacity:0.1; fill:none" points="2352.76,1423.18 2352.76,47.2441 "/>
<polyline clip-path="url(#clip700)" style="stroke:#000000; stroke-linecap:round; stroke-linejoin:round; stroke-width:4; stroke-opacity:1; fill:none" points="193.936,1423.18 2352.76,1423.18 "/>
<polyline clip-path="url(#clip700)" style="stroke:#000000; stroke-linecap:round; stroke-linejoin:round; stroke-width:4; stroke-opacity:1; fill:none" points="193.936,1423.18 193.936,1404.28 "/>
<polyline clip-path="url(#clip700)" style="stroke:#000000; stroke-linecap:round; stroke-linejoin:round; stroke-width:4; stroke-opacity:1; fill:none" points="625.7,1423.18 625.7,1404.28 "/>
<polyline clip-path="url(#clip700)" style="stroke:#000000; stroke-linecap:round; stroke-linejoin:round; stroke-width:4; stroke-opacity:1; fill:none" points="1057.46,1423.18 1057.46,1404.28 "/>
<polyline clip-path="url(#clip700)" style="stroke:#000000; stroke-linecap:round; stroke-linejoin:round; stroke-width:4; stroke-opacity:1; fill:none" points="1489.23,1423.18 1489.23,1404.28 "/>
<polyline clip-path="url(#clip700)" style="stroke:#000000; stroke-linecap:round; stroke-linejoin:round; stroke-width:4; stroke-opacity:1; fill:none" points="1920.99,1423.18 1920.99,1404.28 "/>
<polyline clip-path="url(#clip700)" style="stroke:#000000; stroke-linecap:round; stroke-linejoin:round; stroke-width:4; stroke-opacity:1; fill:none" points="2352.76,1423.18 2352.76,1404.28 "/>
<path clip-path="url(#clip700)" d="M193.936 1454.1 Q190.325 1454.1 188.496 1457.66 Q186.691 1461.2 186.691 1468.33 Q186.691 1475.44 188.496 1479.01 Q190.325 1482.55 193.936 1482.55 Q197.57 1482.55 199.376 1479.01 Q201.204 1475.44 201.204 1468.33 Q201.204 1461.2 199.376 1457.66 Q197.57 1454.1 193.936 1454.1 M193.936 1450.39 Q199.746 1450.39 202.802 1455 Q205.88 1459.58 205.88 1468.33 Q205.88 1477.06 202.802 1481.67 Q199.746 1486.25 193.936 1486.25 Q188.126 1486.25 185.047 1481.67 Q181.992 1477.06 181.992 1468.33 Q181.992 1459.58 185.047 1455 Q188.126 1450.39 193.936 1450.39 Z" fill="#000000" fill-rule="nonzero" fill-opacity="1" /><path clip-path="url(#clip700)" d="M620.353 1481.64 L636.672 1481.64 L636.672 1485.58 L614.728 1485.58 L614.728 1481.64 Q617.39 1478.89 621.973 1474.26 Q626.58 1469.61 627.76 1468.27 Q630.006 1465.74 630.885 1464.01 Q631.788 1462.25 631.788 1460.56 Q631.788 1457.8 629.843 1456.07 Q627.922 1454.33 624.82 1454.33 Q622.621 1454.33 620.168 1455.09 Q617.737 1455.86 614.959 1457.41 L614.959 1452.69 Q617.783 1451.55 620.237 1450.97 Q622.691 1450.39 624.728 1450.39 Q630.098 1450.39 633.293 1453.08 Q636.487 1455.77 636.487 1460.26 Q636.487 1462.39 635.677 1464.31 Q634.89 1466.2 632.783 1468.8 Q632.205 1469.47 629.103 1472.69 Q626.001 1475.88 620.353 1481.64 Z" fill="#000000" fill-rule="nonzero" fill-opacity="1" /><path clip-path="url(#clip700)" d="M1060.47 1455.09 L1048.67 1473.54 L1060.47 1473.54 L1060.47 1455.09 M1059.25 1451.02 L1065.13 1451.02 L1065.13 1473.54 L1070.06 1473.54 L1070.06 1477.43 L1065.13 1477.43 L1065.13 1485.58 L1060.47 1485.58 L1060.47 1477.43 L1044.87 1477.43 L1044.87 1472.92 L1059.25 1451.02 Z" fill="#000000" fill-rule="nonzero" fill-opacity="1" /><path clip-path="url(#clip700)" d="M1489.63 1466.44 Q1486.48 1466.44 1484.63 1468.59 Q1482.8 1470.74 1482.8 1474.49 Q1482.8 1478.22 1484.63 1480.39 Q1486.48 1482.55 1489.63 1482.55 Q1492.78 1482.55 1494.61 1480.39 Q1496.46 1478.22 1496.46 1474.49 Q1496.46 1470.74 1494.61 1468.59 Q1492.78 1466.44 1489.63 1466.44 M1498.92 1451.78 L1498.92 1456.04 Q1497.16 1455.21 1495.35 1454.77 Q1493.57 1454.33 1491.81 1454.33 Q1487.18 1454.33 1484.73 1457.45 Q1482.3 1460.58 1481.95 1466.9 Q1483.31 1464.89 1485.37 1463.82 Q1487.43 1462.73 1489.91 1462.73 Q1495.12 1462.73 1498.13 1465.9 Q1501.16 1469.05 1501.16 1474.49 Q1501.16 1479.82 1498.01 1483.03 Q1494.86 1486.25 1489.63 1486.25 Q1483.64 1486.25 1480.47 1481.67 Q1477.3 1477.06 1477.3 1468.33 Q1477.3 1460.14 1481.18 1455.28 Q1485.07 1450.39 1491.62 1450.39 Q1493.38 1450.39 1495.17 1450.74 Q1496.97 1451.09 1498.92 1451.78 Z" fill="#000000" fill-rule="nonzero" fill-opacity="1" /><path clip-path="url(#clip700)" d="M1920.99 1469.17 Q1917.66 1469.17 1915.74 1470.95 Q1913.84 1472.73 1913.84 1475.86 Q1913.84 1478.98 1915.74 1480.77 Q1917.66 1482.55 1920.99 1482.55 Q1924.33 1482.55 1926.25 1480.77 Q1928.17 1478.96 1928.17 1475.86 Q1928.17 1472.73 1926.25 1470.95 Q1924.35 1469.17 1920.99 1469.17 M1916.32 1467.18 Q1913.31 1466.44 1911.62 1464.38 Q1909.95 1462.32 1909.95 1459.35 Q1909.95 1455.21 1912.89 1452.8 Q1915.85 1450.39 1920.99 1450.39 Q1926.15 1450.39 1929.09 1452.8 Q1932.03 1455.21 1932.03 1459.35 Q1932.03 1462.32 1930.34 1464.38 Q1928.68 1466.44 1925.69 1467.18 Q1929.07 1467.96 1930.95 1470.26 Q1932.84 1472.55 1932.84 1475.86 Q1932.84 1480.88 1929.77 1483.57 Q1926.71 1486.25 1920.99 1486.25 Q1915.27 1486.25 1912.2 1483.57 Q1909.14 1480.88 1909.14 1475.86 Q1909.14 1472.55 1911.04 1470.26 Q1912.94 1467.96 1916.32 1467.18 M1914.6 1459.79 Q1914.6 1462.48 1916.27 1463.98 Q1917.96 1465.49 1920.99 1465.49 Q1924 1465.49 1925.69 1463.98 Q1927.4 1462.48 1927.4 1459.79 Q1927.4 1457.11 1925.69 1455.6 Q1924 1454.1 1920.99 1454.1 Q1917.96 1454.1 1916.27 1455.6 Q1914.6 1457.11 1914.6 1459.79 Z" fill="#000000" fill-rule="nonzero" fill-opacity="1" /><path clip-path="url(#clip700)" d="M2327.44 1481.64 L2335.08 1481.64 L2335.08 1455.28 L2326.77 1456.95 L2326.77 1452.69 L2335.04 1451.02 L2339.71 1451.02 L2339.71 1481.64 L2347.35 1481.64 L2347.35 1485.58 L2327.44 1485.58 L2327.44 1481.64 Z" fill="#000000" fill-rule="nonzero" fill-opacity="1" /><path clip-path="url(#clip700)" d="M2366.8 1454.1 Q2363.18 1454.1 2361.36 1457.66 Q2359.55 1461.2 2359.55 1468.33 Q2359.55 1475.44 2361.36 1479.01 Q2363.18 1482.55 2366.8 1482.55 Q2370.43 1482.55 2372.23 1479.01 Q2374.06 1475.44 2374.06 1468.33 Q2374.06 1461.2 2372.23 1457.66 Q2370.43 1454.1 2366.8 1454.1 M2366.8 1450.39 Q2372.61 1450.39 2375.66 1455 Q2378.74 1459.58 2378.74 1468.33 Q2378.74 1477.06 2375.66 1481.67 Q2372.61 1486.25 2366.8 1486.25 Q2360.99 1486.25 2357.91 1481.67 Q2354.85 1477.06 2354.85 1468.33 Q2354.85 1459.58 2357.91 1455 Q2360.99 1450.39 2366.8 1450.39 Z" fill="#000000" fill-rule="nonzero" fill-opacity="1" /><path clip-path="url(#clip700)" d="M1272.41 1522.27 L1272.41 1532.4 L1284.47 1532.4 L1284.47 1536.95 L1272.41 1536.95 L1272.41 1556.3 Q1272.41 1560.66 1273.58 1561.9 Q1274.79 1563.14 1278.45 1563.14 L1284.47 1563.14 L1284.47 1568.04 L1278.45 1568.04 Q1271.67 1568.04 1269.1 1565.53 Q1266.52 1562.98 1266.52 1556.3 L1266.52 1536.95 L1262.22 1536.95 L1262.22 1532.4 L1266.52 1532.4 L1266.52 1522.27 L1272.41 1522.27 Z" fill="#000000" fill-rule="nonzero" fill-opacity="1" /><polyline clip-path="url(#clip702)" style="stroke:#000000; stroke-linecap:round; stroke-linejoin:round; stroke-width:2; stroke-opacity:0.1; fill:none" points="193.936,1362.94 2352.76,1362.94 "/>
<polyline clip-path="url(#clip702)" style="stroke:#000000; stroke-linecap:round; stroke-linejoin:round; stroke-width:2; stroke-opacity:0.1; fill:none" points="193.936,1147.57 2352.76,1147.57 "/>
<polyline clip-path="url(#clip702)" style="stroke:#000000; stroke-linecap:round; stroke-linejoin:round; stroke-width:2; stroke-opacity:0.1; fill:none" points="193.936,932.199 2352.76,932.199 "/>
<polyline clip-path="url(#clip702)" style="stroke:#000000; stroke-linecap:round; stroke-linejoin:round; stroke-width:2; stroke-opacity:0.1; fill:none" points="193.936,716.83 2352.76,716.83 "/>
<polyline clip-path="url(#clip702)" style="stroke:#000000; stroke-linecap:round; stroke-linejoin:round; stroke-width:2; stroke-opacity:0.1; fill:none" points="193.936,501.461 2352.76,501.461 "/>
<polyline clip-path="url(#clip702)" style="stroke:#000000; stroke-linecap:round; stroke-linejoin:round; stroke-width:2; stroke-opacity:0.1; fill:none" points="193.936,286.091 2352.76,286.091 "/>
<polyline clip-path="url(#clip702)" style="stroke:#000000; stroke-linecap:round; stroke-linejoin:round; stroke-width:2; stroke-opacity:0.1; fill:none" points="193.936,70.7221 2352.76,70.7221 "/>
<polyline clip-path="url(#clip700)" style="stroke:#000000; stroke-linecap:round; stroke-linejoin:round; stroke-width:4; stroke-opacity:1; fill:none" points="193.936,1423.18 193.936,47.2441 "/>
<polyline clip-path="url(#clip700)" style="stroke:#000000; stroke-linecap:round; stroke-linejoin:round; stroke-width:4; stroke-opacity:1; fill:none" points="193.936,1362.94 212.834,1362.94 "/>
<polyline clip-path="url(#clip700)" style="stroke:#000000; stroke-linecap:round; stroke-linejoin:round; stroke-width:4; stroke-opacity:1; fill:none" points="193.936,1147.57 212.834,1147.57 "/>
<polyline clip-path="url(#clip700)" style="stroke:#000000; stroke-linecap:round; stroke-linejoin:round; stroke-width:4; stroke-opacity:1; fill:none" points="193.936,932.199 212.834,932.199 "/>
<polyline clip-path="url(#clip700)" style="stroke:#000000; stroke-linecap:round; stroke-linejoin:round; stroke-width:4; stroke-opacity:1; fill:none" points="193.936,716.83 212.834,716.83 "/>
<polyline clip-path="url(#clip700)" style="stroke:#000000; stroke-linecap:round; stroke-linejoin:round; stroke-width:4; stroke-opacity:1; fill:none" points="193.936,501.461 212.834,501.461 "/>
<polyline clip-path="url(#clip700)" style="stroke:#000000; stroke-linecap:round; stroke-linejoin:round; stroke-width:4; stroke-opacity:1; fill:none" points="193.936,286.091 212.834,286.091 "/>
<polyline clip-path="url(#clip700)" style="stroke:#000000; stroke-linecap:round; stroke-linejoin:round; stroke-width:4; stroke-opacity:1; fill:none" points="193.936,70.7221 212.834,70.7221 "/>
<path clip-path="url(#clip700)" d="M51.9875 1363.39 L81.6633 1363.39 L81.6633 1367.32 L51.9875 1367.32 L51.9875 1363.39 Z" fill="#000000" fill-rule="nonzero" fill-opacity="1" /><path clip-path="url(#clip700)" d="M92.566 1376.28 L100.205 1376.28 L100.205 1349.92 L91.8947 1351.58 L91.8947 1347.32 L100.159 1345.66 L104.834 1345.66 L104.834 1376.28 L112.473 1376.28 L112.473 1380.22 L92.566 1380.22 L92.566 1376.28 Z" fill="#000000" fill-rule="nonzero" fill-opacity="1" /><path clip-path="url(#clip700)" d="M121.918 1374.34 L126.802 1374.34 L126.802 1380.22 L121.918 1380.22 L121.918 1374.34 Z" fill="#000000" fill-rule="nonzero" fill-opacity="1" /><path clip-path="url(#clip700)" d="M137.033 1345.66 L155.39 1345.66 L155.39 1349.59 L141.316 1349.59 L141.316 1358.07 Q142.334 1357.72 143.353 1357.56 Q144.371 1357.37 145.39 1357.37 Q151.177 1357.37 154.556 1360.54 Q157.936 1363.71 157.936 1369.13 Q157.936 1374.71 154.464 1377.81 Q150.992 1380.89 144.672 1380.89 Q142.496 1380.89 140.228 1380.52 Q137.982 1380.15 135.575 1379.41 L135.575 1374.71 Q137.658 1375.84 139.881 1376.4 Q142.103 1376.95 144.58 1376.95 Q148.584 1376.95 150.922 1374.85 Q153.26 1372.74 153.26 1369.13 Q153.26 1365.52 150.922 1363.41 Q148.584 1361.31 144.58 1361.31 Q142.705 1361.31 140.83 1361.72 Q138.978 1362.14 137.033 1363.02 L137.033 1345.66 Z" fill="#000000" fill-rule="nonzero" fill-opacity="1" /><path clip-path="url(#clip700)" d="M50.9921 1148.02 L80.6679 1148.02 L80.6679 1151.96 L50.9921 1151.96 L50.9921 1148.02 Z" fill="#000000" fill-rule="nonzero" fill-opacity="1" /><path clip-path="url(#clip700)" d="M91.5706 1160.91 L99.2095 1160.91 L99.2095 1134.55 L90.8993 1136.21 L90.8993 1131.96 L99.1632 1130.29 L103.839 1130.29 L103.839 1160.91 L111.478 1160.91 L111.478 1164.85 L91.5706 1164.85 L91.5706 1160.91 Z" fill="#000000" fill-rule="nonzero" fill-opacity="1" /><path clip-path="url(#clip700)" d="M120.922 1158.97 L125.807 1158.97 L125.807 1164.85 L120.922 1164.85 L120.922 1158.97 Z" fill="#000000" fill-rule="nonzero" fill-opacity="1" /><path clip-path="url(#clip700)" d="M145.992 1133.37 Q142.381 1133.37 140.552 1136.93 Q138.746 1140.47 138.746 1147.6 Q138.746 1154.71 140.552 1158.27 Q142.381 1161.82 145.992 1161.82 Q149.626 1161.82 151.431 1158.27 Q153.26 1154.71 153.26 1147.6 Q153.26 1140.47 151.431 1136.93 Q149.626 1133.37 145.992 1133.37 M145.992 1129.66 Q151.802 1129.66 154.857 1134.27 Q157.936 1138.85 157.936 1147.6 Q157.936 1156.33 154.857 1160.94 Q151.802 1165.52 145.992 1165.52 Q140.181 1165.52 137.103 1160.94 Q134.047 1156.33 134.047 1147.6 Q134.047 1138.85 137.103 1134.27 Q140.181 1129.66 145.992 1129.66 Z" fill="#000000" fill-rule="nonzero" fill-opacity="1" /><path clip-path="url(#clip700)" d="M51.9875 932.651 L81.6633 932.651 L81.6633 936.586 L51.9875 936.586 L51.9875 932.651 Z" fill="#000000" fill-rule="nonzero" fill-opacity="1" /><path clip-path="url(#clip700)" d="M101.756 917.998 Q98.1447 917.998 96.316 921.563 Q94.5104 925.104 94.5104 932.234 Q94.5104 939.341 96.316 942.905 Q98.1447 946.447 101.756 946.447 Q105.39 946.447 107.196 942.905 Q109.024 939.341 109.024 932.234 Q109.024 925.104 107.196 921.563 Q105.39 917.998 101.756 917.998 M101.756 914.294 Q107.566 914.294 110.621 918.901 Q113.7 923.484 113.7 932.234 Q113.7 940.961 110.621 945.567 Q107.566 950.151 101.756 950.151 Q95.9456 950.151 92.8669 945.567 Q89.8114 940.961 89.8114 932.234 Q89.8114 923.484 92.8669 918.901 Q95.9456 914.294 101.756 914.294 Z" fill="#000000" fill-rule="nonzero" fill-opacity="1" /><path clip-path="url(#clip700)" d="M121.918 943.6 L126.802 943.6 L126.802 949.479 L121.918 949.479 L121.918 943.6 Z" fill="#000000" fill-rule="nonzero" fill-opacity="1" /><path clip-path="url(#clip700)" d="M137.033 914.919 L155.39 914.919 L155.39 918.855 L141.316 918.855 L141.316 927.327 Q142.334 926.979 143.353 926.817 Q144.371 926.632 145.39 926.632 Q151.177 926.632 154.556 929.804 Q157.936 932.975 157.936 938.391 Q157.936 943.97 154.464 947.072 Q150.992 950.151 144.672 950.151 Q142.496 950.151 140.228 949.78 Q137.982 949.41 135.575 948.669 L135.575 943.97 Q137.658 945.104 139.881 945.66 Q142.103 946.215 144.58 946.215 Q148.584 946.215 150.922 944.109 Q153.26 942.003 153.26 938.391 Q153.26 934.78 150.922 932.674 Q148.584 930.567 144.58 930.567 Q142.705 930.567 140.83 930.984 Q138.978 931.401 137.033 932.28 L137.033 914.919 Z" fill="#000000" fill-rule="nonzero" fill-opacity="1" /><path clip-path="url(#clip700)" d="M100.76 702.629 Q97.1493 702.629 95.3206 706.194 Q93.515 709.735 93.515 716.865 Q93.515 723.971 95.3206 727.536 Q97.1493 731.078 100.76 731.078 Q104.395 731.078 106.2 727.536 Q108.029 723.971 108.029 716.865 Q108.029 709.735 106.2 706.194 Q104.395 702.629 100.76 702.629 M100.76 698.925 Q106.571 698.925 109.626 703.532 Q112.705 708.115 112.705 716.865 Q112.705 725.592 109.626 730.198 Q106.571 734.781 100.76 734.781 Q94.9502 734.781 91.8715 730.198 Q88.816 725.592 88.816 716.865 Q88.816 708.115 91.8715 703.532 Q94.9502 698.925 100.76 698.925 Z" fill="#000000" fill-rule="nonzero" fill-opacity="1" /><path clip-path="url(#clip700)" d="M120.922 728.23 L125.807 728.23 L125.807 734.11 L120.922 734.11 L120.922 728.23 Z" fill="#000000" fill-rule="nonzero" fill-opacity="1" /><path clip-path="url(#clip700)" d="M145.992 702.629 Q142.381 702.629 140.552 706.194 Q138.746 709.735 138.746 716.865 Q138.746 723.971 140.552 727.536 Q142.381 731.078 145.992 731.078 Q149.626 731.078 151.431 727.536 Q153.26 723.971 153.26 716.865 Q153.26 709.735 151.431 706.194 Q149.626 702.629 145.992 702.629 M145.992 698.925 Q151.802 698.925 154.857 703.532 Q157.936 708.115 157.936 716.865 Q157.936 725.592 154.857 730.198 Q151.802 734.781 145.992 734.781 Q140.181 734.781 137.103 730.198 Q134.047 725.592 134.047 716.865 Q134.047 708.115 137.103 703.532 Q140.181 698.925 145.992 698.925 Z" fill="#000000" fill-rule="nonzero" fill-opacity="1" /><path clip-path="url(#clip700)" d="M101.756 487.259 Q98.1447 487.259 96.316 490.824 Q94.5104 494.366 94.5104 501.495 Q94.5104 508.602 96.316 512.167 Q98.1447 515.708 101.756 515.708 Q105.39 515.708 107.196 512.167 Q109.024 508.602 109.024 501.495 Q109.024 494.366 107.196 490.824 Q105.39 487.259 101.756 487.259 M101.756 483.556 Q107.566 483.556 110.621 488.162 Q113.7 492.746 113.7 501.495 Q113.7 510.222 110.621 514.829 Q107.566 519.412 101.756 519.412 Q95.9456 519.412 92.8669 514.829 Q89.8114 510.222 89.8114 501.495 Q89.8114 492.746 92.8669 488.162 Q95.9456 483.556 101.756 483.556 Z" fill="#000000" fill-rule="nonzero" fill-opacity="1" /><path clip-path="url(#clip700)" d="M121.918 512.861 L126.802 512.861 L126.802 518.741 L121.918 518.741 L121.918 512.861 Z" fill="#000000" fill-rule="nonzero" fill-opacity="1" /><path clip-path="url(#clip700)" d="M137.033 484.181 L155.39 484.181 L155.39 488.116 L141.316 488.116 L141.316 496.588 Q142.334 496.241 143.353 496.079 Q144.371 495.894 145.39 495.894 Q151.177 495.894 154.556 499.065 Q157.936 502.236 157.936 507.653 Q157.936 513.232 154.464 516.333 Q150.992 519.412 144.672 519.412 Q142.496 519.412 140.228 519.042 Q137.982 518.671 135.575 517.931 L135.575 513.232 Q137.658 514.366 139.881 514.921 Q142.103 515.477 144.58 515.477 Q148.584 515.477 150.922 513.37 Q153.26 511.264 153.26 507.653 Q153.26 504.042 150.922 501.935 Q148.584 499.829 144.58 499.829 Q142.705 499.829 140.83 500.245 Q138.978 500.662 137.033 501.542 L137.033 484.181 Z" fill="#000000" fill-rule="nonzero" fill-opacity="1" /><path clip-path="url(#clip700)" d="M91.5706 299.436 L99.2095 299.436 L99.2095 273.071 L90.8993 274.737 L90.8993 270.478 L99.1632 268.811 L103.839 268.811 L103.839 299.436 L111.478 299.436 L111.478 303.371 L91.5706 303.371 L91.5706 299.436 Z" fill="#000000" fill-rule="nonzero" fill-opacity="1" /><path clip-path="url(#clip700)" d="M120.922 297.492 L125.807 297.492 L125.807 303.371 L120.922 303.371 L120.922 297.492 Z" fill="#000000" fill-rule="nonzero" fill-opacity="1" /><path clip-path="url(#clip700)" d="M145.992 271.89 Q142.381 271.89 140.552 275.455 Q138.746 278.997 138.746 286.126 Q138.746 293.233 140.552 296.797 Q142.381 300.339 145.992 300.339 Q149.626 300.339 151.431 296.797 Q153.26 293.233 153.26 286.126 Q153.26 278.997 151.431 275.455 Q149.626 271.89 145.992 271.89 M145.992 268.186 Q151.802 268.186 154.857 272.793 Q157.936 277.376 157.936 286.126 Q157.936 294.853 154.857 299.459 Q151.802 304.043 145.992 304.043 Q140.181 304.043 137.103 299.459 Q134.047 294.853 134.047 286.126 Q134.047 277.376 137.103 272.793 Q140.181 268.186 145.992 268.186 Z" fill="#000000" fill-rule="nonzero" fill-opacity="1" /><path clip-path="url(#clip700)" d="M92.566 84.067 L100.205 84.067 L100.205 57.7014 L91.8947 59.368 L91.8947 55.1088 L100.159 53.4421 L104.834 53.4421 L104.834 84.067 L112.473 84.067 L112.473 88.0021 L92.566 88.0021 L92.566 84.067 Z" fill="#000000" fill-rule="nonzero" fill-opacity="1" /><path clip-path="url(#clip700)" d="M121.918 82.1225 L126.802 82.1225 L126.802 88.0021 L121.918 88.0021 L121.918 82.1225 Z" fill="#000000" fill-rule="nonzero" fill-opacity="1" /><path clip-path="url(#clip700)" d="M137.033 53.4421 L155.39 53.4421 L155.39 57.3773 L141.316 57.3773 L141.316 65.8495 Q142.334 65.5023 143.353 65.3402 Q144.371 65.155 145.39 65.155 Q151.177 65.155 154.556 68.3263 Q157.936 71.4976 157.936 76.9142 Q157.936 82.4929 154.464 85.5948 Q150.992 88.6734 144.672 88.6734 Q142.496 88.6734 140.228 88.3031 Q137.982 87.9327 135.575 87.192 L135.575 82.4929 Q137.658 83.6272 139.881 84.1827 Q142.103 84.7383 144.58 84.7383 Q148.584 84.7383 150.922 82.6318 Q153.26 80.5253 153.26 76.9142 Q153.26 73.3032 150.922 71.1967 Q148.584 69.0902 144.58 69.0902 Q142.705 69.0902 140.83 69.5069 Q138.978 69.9235 137.033 70.8032 L137.033 53.4421 Z" fill="#000000" fill-rule="nonzero" fill-opacity="1" /><polyline clip-path="url(#clip702)" style="stroke:#009af9; stroke-linecap:round; stroke-linejoin:round; stroke-width:4; stroke-opacity:1; fill:none" points="193.936,716.83 196.097,723.475 198.258,729.997 200.419,736.353 202.58,742.627 204.741,748.895 206.902,755.235 209.063,761.57 211.224,767.536 213.385,773.339 215.546,779.012 217.707,784.588 219.868,790.1 222.029,795.58 224.19,801.061 226.351,806.576 228.512,812.157 230.673,817.839 232.834,823.652 234.995,829.183 237.156,834.249 239.317,839.172 241.478,843.971 243.639,848.665 245.8,853.273 247.961,857.813 250.122,862.306 252.282,866.769 254.443,871.223 256.604,875.685 258.765,880.174 260.926,884.711 263.087,889.313 265.248,894 267.409,898.79 269.57,903.703 271.731,908.211 273.892,912.247 276.053,916.167 278.214,919.983 280.375,923.705 282.536,927.346 284.697,930.917 286.858,934.429 289.019,937.894 291.18,941.323 293.341,944.728 295.502,948.12 297.663,951.511 299.824,954.912 301.985,958.334 304.146,961.79 306.307,965.29 308.468,968.846 310.629,972.469 312.79,976.171 314.951,979.964 317.112,983.859 319.273,987.156 321.434,990.158 323.595,993.074 325.756,995.911 327.917,998.675 330.078,1001.37 332.239,1004.01 334.4,1006.59 336.561,1009.13 338.722,1011.63 340.883,1014.09 343.044,1016.53 345.205,1018.94 347.366,1021.34 349.527,1023.74 351.688,1026.13 353.849,1028.52 356.01,1030.93 358.171,1033.36 360.332,1035.81 362.493,1038.29 364.653,1040.81 366.814,1043.38 368.975,1046 371.136,1048.67 373.297,1051.41 375.458,1054.21 377.619,1057.1 379.78,1059.29 381.941,1061.35 384.102,1063.37 386.263,1065.37 388.424,1067.35 390.585,1069.34 392.746,1071.34 394.907,1073.39 397.068,1075.36 399.229,1076.16 401.39,1075.68 403.551,1074.08 405.712,1071.49 407.873,1068.06 410.034,1063.93 412.195,1059.25 414.356,1054.17 416.517,1048.82 418.678,1043.35 420.839,1037.92 423,1032.65 425.161,1027.7 427.322,1023.21 429.483,1019.33 431.644,1016.2 433.805,1013.96 435.966,1012.77 438.127,1012.75 440.288,1013.39 442.449,1010.26 444.61,1007.22 446.771,1004.24 448.932,1001.29 451.093,998.35 453.254,995.402 455.415,992.418 457.576,989.376 459.737,986.394 461.898,983.63 464.059,980.944 466.22,978.332 468.381,975.791 470.542,973.316 472.703,970.904 474.864,968.551 477.024,966.254 479.185,964.007 481.346,961.809 483.507,959.654 485.668,957.539 487.829,955.461 489.99,953.415 492.151,951.398 494.312,949.406 496.473,947.435 498.634,945.481 500.795,943.541 502.956,941.61 505.117,939.686 507.278,937.763 509.439,935.839 511.6,933.91 513.761,931.971 515.922,930.019 518.083,928.051 520.244,926.062 522.405,924.049 524.566,922.007 526.727,919.934 528.888,917.825 531.049,915.676 533.21,913.484 535.371,911.245 537.532,908.955 539.693,906.61 541.854,904.207 544.015,901.741 546.176,899.21 548.337,897.243 550.498,895.651 552.659,894.105 554.82,892.602 556.981,891.138 559.142,889.711 561.303,888.317 563.464,886.953 565.625,885.616 567.786,884.303 569.947,883.011 572.108,881.737 574.269,880.477 576.43,879.229 578.591,877.99 580.752,876.756 582.913,875.525 585.074,874.292 587.235,873.056 589.396,871.813 591.556,870.56 593.717,869.293 595.878,868.011 598.039,866.709 600.2,865.384 602.361,864.034 604.522,862.655 606.683,861.245 608.844,859.8 611.005,858.317 613.166,856.855 615.327,855.779 617.488,854.727 619.649,853.686 621.81,852.642 623.971,851.584 626.132,850.392 628.293,848.445 630.454,845.686 632.615,842.161 634.776,837.917 636.937,832.998 639.098,827.452 641.259,821.323 643.42,814.659 645.581,807.504 647.742,799.905 649.903,791.908 652.064,783.558 654.225,774.902 656.386,765.985 658.547,756.853 660.708,747.553 662.869,738.13 665.03,728.63 667.191,719.099 669.352,709.583 671.513,700.128 673.674,690.78 675.835,681.584 677.996,674.093 680.157,667.55 682.318,661.179 684.479,654.946 686.64,648.818 688.801,642.762 690.962,636.743 693.123,630.729 695.284,624.686 697.445,618.581 699.606,612.379 701.767,606.048 703.927,599.553 706.088,593.849 708.249,588.365 710.41,583.037 712.571,577.854 714.732,572.806 716.893,567.883 719.054,563.075 721.215,558.371 723.376,553.761 725.537,549.236 727.698,544.784 729.859,540.396 732.02,536.062 734.181,531.771 736.342,527.514 738.503,523.279 740.664,519.057 742.825,514.838 744.986,510.611 747.147,506.366 749.308,502.093 751.469,497.782 753.63,493.423 755.791,489.005 757.952,484.518 760.113,479.953 762.274,475.298 764.435,470.544 766.596,465.68 768.757,460.697 770.918,455.584 773.079,450.33 775.24,446.6 777.401,443.026 779.562,439.553 781.723,436.174 783.884,432.881 786.045,429.666 788.206,426.521 790.367,423.438 792.528,420.41 794.689,417.429 796.85,414.488 799.011,411.578 801.172,408.691 803.333,405.821 805.494,402.959 807.655,400.097 809.816,397.228 811.977,394.344 814.138,391.437 816.298,388.499 818.459,385.524 820.62,382.502 822.781,379.426 824.942,376.289 827.103,373.082 829.264,369.799 831.425,366.43 833.586,362.969 835.747,360.838 837.908,359.643 840.069,359.328 842.23,359.855 844.391,361.182 846.552,363.271 848.713,366.081 850.874,369.574 853.035,373.708 855.196,378.444 857.357,383.743 859.518,389.565 861.679,395.87 863.84,402.618 866.001,409.77 868.162,417.286 870.323,425.126 872.484,433.25 874.645,441.618 876.806,450.192 878.967,458.931 881.128,467.794 883.289,476.744 885.45,485.739 887.611,494.741 889.772,503.709 891.933,512.603 894.094,521.385 896.255,530.013 898.416,538.449 900.577,545.62 902.738,551.066 904.899,556.355 907.06,561.507 909.221,566.54 911.382,571.475 913.543,576.329 915.704,581.123 917.865,585.875 920.026,590.604 922.187,595.33 924.348,600.071 926.509,604.848 928.669,609.678 930.83,614.582 932.991,619.578 935.152,624.685 937.313,629.923 939.474,634.789 941.635,639.075 943.796,643.241 945.957,647.293 948.118,651.236 950.279,655.075 952.44,658.817 954.601,662.466 956.762,666.029 958.923,669.512 961.084,672.92 963.245,676.258 965.406,679.532 967.567,682.748 969.728,685.912 971.889,689.029 974.05,692.105 976.211,695.146 978.372,698.156 980.533,701.143 982.694,704.11 984.855,707.065 987.016,710.013 989.177,712.959 991.338,715.909 993.499,718.869 995.66,721.844 997.821,724.841 999.982,727.864 1002.14,730.919 1004.3,734.012 1006.46,737.149 1008.63,740.335 1010.79,743.576 1012.95,746.877 1015.11,750.245 1017.27,753.685 1019.43,757.202 1021.59,760.802 1023.75,764.491 1025.91,768.275 1028.07,772.158 1030.24,775.698 1032.4,778.147 1034.56,780.529 1036.72,782.856 1038.88,785.14 1041.04,787.396 1043.2,789.635 1045.36,791.871 1047.52,794.117 1049.68,796.386 1051.85,798.69 1054.01,801.042 1056.17,803.443 1058.33,805.767 1060.49,808.435 1062.65,811.436 1064.81,814.759 1066.97,818.392 1069.13,822.324 1071.29,826.543 1073.46,831.037 1075.62,835.794 1077.78,840.804 1079.94,846.055 1082.1,851.534 1084.26,857.231 1086.42,863.134 1088.58,869.231 1090.74,875.51 1092.9,881.961 1095.07,888.571 1097.23,895.329 1099.39,902.224 1101.55,909.243 1103.71,916.376 1105.87,923.61 1108.03,930.934 1110.19,938.336 1112.35,945.805 1114.51,953.33 1116.67,960.898 1118.84,968.498 1121,976.119 1123.16,983.748 1125.32,991.375 1127.48,998.988 1129.64,1004.08 1131.8,1008.99 1133.96,1013.78 1136.12,1018.45 1138.28,1023.04 1140.45,1027.57 1142.61,1032.06 1144.77,1036.53 1146.93,1041 1149.09,1045.49 1151.25,1050.03 1153.41,1054.63 1155.57,1059.32 1157.73,1064.12 1159.89,1068.91 1162.06,1073.05 1164.22,1077.07 1166.38,1080.98 1168.54,1084.79 1170.7,1088.49 1172.86,1092.1 1175.02,1095.62 1177.18,1099.05 1179.34,1102.41 1181.5,1105.68 1183.67,1108.89 1185.83,1112.03 1187.99,1115.11 1190.15,1118.14 1192.31,1121.11 1194.47,1124.04 1196.63,1126.93 1198.79,1129.78 1200.95,1132.6 1203.11,1135.4 1205.28,1138.17 1207.44,1140.94 1209.6,1143.69 1211.76,1146.43 1213.92,1149.17 1216.08,1151.92 1218.24,1154.68 1220.4,1157.45 1222.56,1160.24 1224.72,1163.06 1226.88,1165.91 1229.05,1168.79 1231.21,1171.71 1233.37,1174.67 1235.53,1177.69 1237.69,1180.76 1239.85,1183.88 1242.01,1187.08 1244.17,1190.34 1246.33,1193.68 1248.49,1197.09 1250.66,1200.6 1252.82,1204.19 1254.98,1207.87 1257.14,1211.25 1259.3,1212.62 1261.46,1212.9 1263.62,1212.28 1265.78,1210.96 1267.94,1209.14 1270.1,1207.03 1272.27,1204.83 1274.43,1202.73 1276.59,1200.94 1278.75,1199.65 1280.91,1199.07 1283.07,1199.4 1285.23,1200.83 1287.39,1197.25 1289.55,1192.8 1291.71,1188.45 1293.88,1184.17 1296.04,1179.92 1298.2,1175.67 1300.36,1171.39 1302.52,1167.04 1304.68,1162.59 1306.84,1158.43 1309,1154.48 1311.16,1150.64 1313.32,1146.91 1315.49,1143.27 1317.65,1139.73 1319.81,1136.28 1321.97,1132.91 1324.13,1129.62 1326.29,1126.4 1328.45,1123.25 1330.61,1120.17 1332.77,1117.14 1334.93,1114.16 1337.09,1111.23 1339.26,1108.34 1341.42,1105.49 1343.58,1102.67 1345.74,1099.87 1347.9,1097.09 1350.06,1094.33 1352.22,1091.58 1354.38,1088.83 1356.54,1086.08 1358.7,1083.33 1360.87,1080.56 1363.03,1077.77 1365.19,1074.97 1367.35,1072.13 1369.51,1069.27 1371.67,1066.36 1373.83,1063.41 1375.99,1060.41 1378.15,1057.36 1380.31,1054.25 1382.48,1051.07 1384.64,1047.83 1386.8,1044.5 1388.96,1041.1 1391.12,1037.61 1393.28,1034.03 1395.44,1030.36 1397.6,1027.98 1399.76,1025.73 1401.92,1023.55 1404.09,1021.43 1406.25,1019.36 1408.41,1017.34 1410.57,1015.37 1412.73,1013.44 1414.89,1011.55 1417.05,1009.7 1419.21,1007.87 1421.37,1006.07 1423.53,1004.28 1425.7,1002.52 1427.86,1000.77 1430.02,999.023 1432.18,997.282 1434.34,995.541 1436.5,993.794 1438.66,992.039 1440.82,990.27 1442.98,988.483 1445.14,986.674 1447.3,984.839 1449.47,982.974 1451.63,981.073 1453.79,979.134 1455.95,977.151 1458.11,975.12 1460.27,973.037 1462.43,970.898 1464.59,969.092 1466.75,967.269 1468.91,965.238 1471.08,963.024 1473.24,960.652 1475.4,958.147 1477.56,955.535 1479.72,952.841 1481.88,950.09 1484.04,947.309 1486.2,944.521 1488.36,941.754 1490.52,939.031 1492.69,936.378 1494.85,933.821 1497.01,931.385 1499.17,929.096 1501.33,926.978 1503.49,925.057 1505.65,923.358 1507.81,920.68 1509.97,917.332 1512.13,914.07 1514.3,910.876 1516.46,907.731 1518.62,904.615 1520.78,901.51 1522.94,898.396 1525.1,895.256 1527.26,892.069 1529.42,888.817 1531.58,885.503 1533.74,882.58 1535.91,879.741 1538.07,876.98 1540.23,874.294 1542.39,871.68 1544.55,869.132 1546.71,866.649 1548.87,864.224 1551.03,861.856 1553.19,859.539 1555.35,857.27 1557.51,855.046 1559.68,852.861 1561.84,850.713 1564,848.597 1566.16,846.51 1568.32,844.447 1570.48,842.405 1572.64,840.381 1574.8,838.369 1576.96,836.366 1579.12,834.369 1581.29,832.373 1583.45,830.375 1585.61,828.37 1587.77,826.355 1589.93,824.326 1592.09,822.279 1594.25,820.21 1596.41,818.116 1598.57,815.992 1600.73,813.834 1602.9,811.639 1605.06,809.403 1607.22,807.122 1609.38,804.791 1611.54,802.408 1613.7,799.969 1615.86,797.468 1618.02,794.903 1620.18,792.27 1622.34,790.086 1624.51,788.432 1626.67,786.825 1628.83,785.263 1630.99,783.742 1633.15,782.258 1635.31,780.808 1637.47,779.389 1639.63,777.997 1641.79,776.629 1643.95,775.28 1646.12,773.948 1648.28,772.63 1650.44,771.321 1652.6,770.019 1654.76,768.719 1656.92,767.419 1659.08,766.114 1661.24,764.803 1663.4,763.48 1665.56,762.142 1667.72,760.787 1669.89,759.41 1672.05,758.008 1674.21,756.578 1676.37,755.116 1678.53,753.619 1680.69,752.083 1682.85,750.505 1685.01,749.348 1687.17,748.223 1689.33,747.104 1691.5,745.974 1693.66,744.86 1695.82,743.794 1697.98,742.747 1700.14,741.705 1702.3,740.656 1704.46,739.588 1706.62,735.154 1708.78,726.921 1710.94,719.783 1713.11,712.83 1715.27,706.06 1717.43,699.419 1719.59,692.854 1721.75,686.31 1723.91,679.734 1726.07,673.072 1728.23,666.27 1730.39,659.779 1732.55,653.67 1734.72,647.725 1736.88,641.915 1739.04,636.209 1741.2,630.58 1743.36,624.998 1745.52,619.434 1747.68,613.86 1749.84,608.244 1752,602.56 1754.16,596.778 1756.33,590.868 1758.49,584.834 1760.65,579.644 1762.81,574.607 1764.97,569.707 1767.13,564.926 1769.29,560.245 1771.45,555.646 1773.61,551.113 1775.77,546.626 1777.93,542.169 1780.1,537.723 1782.26,533.27 1784.42,528.793 1786.58,524.273 1788.74,519.693 1790.9,515.035 1793.06,510.282 1795.22,505.414 1797.38,500.415 1799.54,496.301 1801.71,492.335 1803.87,488.481 1806.03,484.727 1808.19,481.065 1810.35,477.483 1812.51,473.97 1814.67,470.518 1816.83,467.114 1818.99,463.749 1821.15,460.413 1823.32,457.094 1825.48,453.783 1827.64,450.47 1829.8,447.143 1831.96,443.792 1834.12,440.407 1836.28,436.978 1838.44,433.494 1840.6,429.944 1842.76,426.319 1844.93,422.608 1847.09,418.801 1849.25,415.16 1851.41,412.208 1853.57,409.341 1855.73,406.555 1857.89,403.843 1860.05,401.199 1862.21,398.617 1864.37,396.092 1866.54,393.617 1868.7,391.187 1870.86,388.796 1873.02,386.437 1875.18,384.105 1877.34,381.794 1879.5,379.498 1881.66,377.211 1883.82,374.927 1885.98,372.641 1888.15,370.345 1890.31,368.036 1892.47,365.705 1894.63,363.348 1896.79,360.958 1898.95,358.531 1901.11,356.059 1903.27,353.536 1905.43,350.958 1907.59,348.318 1909.75,345.609 1911.92,342.827 1914.08,340.993 1916.24,340.151 1918.4,340.153 1920.56,340.961 1922.72,342.538 1924.88,344.843 1927.04,347.838 1929.2,351.485 1931.36,355.745 1933.53,360.58 1935.69,365.951 1937.85,371.819 1940.01,378.146 1942.17,384.893 1944.33,392.021 1946.49,399.493 1948.65,407.269 1950.81,415.31 1952.97,423.579 1955.14,432.036 1957.3,440.643 1959.46,449.362 1961.62,458.153 1963.78,466.978 1965.94,475.799 1968.1,484.576 1970.26,493.272 1972.42,501.848 1974.58,510.264 1976.75,518.484 1978.91,524.29 1981.07,529.641 1983.23,534.846 1985.39,539.922 1987.55,544.889 1989.71,549.764 1991.87,554.567 1994.03,559.316 1996.19,564.031 1998.36,568.73 2000.52,573.431 2002.68,578.154 2004.84,582.917 2007,587.738 2009.16,592.638 2011.32,597.634 2013.48,602.745 2015.64,607.99 2017.8,612.646 2019.96,616.881 2022.13,620.996 2024.29,624.999 2026.45,628.895 2028.61,632.69 2030.77,636.388 2032.93,639.996 2035.09,643.52 2037.25,646.964 2039.41,650.334 2041.57,653.637 2043.74,656.877 2045.9,660.061 2048.06,663.193 2050.22,666.28 2052.38,669.326 2054.54,672.339 2056.7,675.322 2058.86,678.283 2061.02,681.226 2063.18,684.156 2065.35,687.081 2067.51,690.005 2069.67,692.933 2071.83,695.872 2073.99,698.827 2076.15,701.804 2078.31,704.807 2080.47,707.844 2082.63,710.919 2084.79,714.038 2086.96,717.206 2089.12,720.43 2091.28,723.715 2093.44,727.066 2095.6,730.489 2097.76,733.989 2099.92,737.573 2102.08,741.246 2104.24,745.013 2106.4,748.88 2108.57,752.24 2110.73,754.663 2112.89,757.025 2115.05,759.344 2117.21,761.637 2119.37,763.921 2121.53,766.214 2123.69,768.533 2125.85,770.896 2128.01,773.234 2130.17,774.633 2132.34,774.971 2134.5,774.297 2136.66,772.663 2138.82,770.12 2140.98,766.719 2143.14,762.51 2145.3,757.545 2147.46,751.875 2149.62,745.549 2151.78,738.621 2153.95,731.14 2156.11,723.157 2158.27,714.723 2160.43,705.889 2162.59,696.707 2164.75,687.227 2166.91,677.5 2169.07,667.576 2171.23,657.508 2173.39,647.346 2175.56,637.14 2177.72,626.942 2179.88,616.803 2182.04,606.773 2184.2,596.904 2186.36,587.247 2188.52,578.287 2190.68,571.842 2192.84,565.579 2195,559.465 2197.17,553.463 2199.33,547.541 2201.49,541.664 2203.65,535.798 2205.81,529.908 2207.97,523.962 2210.13,517.923 2212.29,511.758 2214.45,505.458 2216.61,499.946 2218.78,494.592 2220.94,489.388 2223.1,484.326 2225.26,479.398 2227.42,474.596 2229.58,469.912 2231.74,465.338 2233.9,460.866 2236.06,456.488 2238.22,452.197 2240.38,447.983 2242.55,443.84 2244.71,439.76 2246.87,435.733 2249.03,431.753 2251.19,427.812 2253.35,423.901 2255.51,420.012 2257.67,416.138 2259.83,412.27 2261.99,408.402 2264.16,404.524 2266.32,400.628 2268.48,396.707 2270.64,392.754 2272.8,388.759 2274.96,384.714 2277.12,380.613 2279.28,376.447 2281.44,372.208 2283.6,367.888 2285.77,363.479 2287.93,358.973 2290.09,354.362 2292.25,349.638 2294.41,344.794 2296.57,339.821 2298.73,335.326 2300.89,332.071 2303.05,328.912 2305.21,325.839 2307.38,322.846 2309.54,319.925 2311.7,317.068 2313.86,314.268 2316.02,311.516 2318.18,308.805 2320.34,306.126 2322.5,303.473 2324.66,300.838 2326.82,298.212 2328.99,295.589 2331.15,292.959 2333.31,290.317 2335.47,287.652 2337.63,284.959 2339.79,282.229 2341.95,279.454 2344.11,276.627 2346.27,273.74 2348.43,270.785 2350.59,267.755 2352.76,264.641 "/>
<polyline clip-path="url(#clip702)" style="stroke:#e26f46; stroke-linecap:round; stroke-linejoin:round; stroke-width:4; stroke-opacity:1; fill:none" points="193.936,1218.5 196.097,1218.5 198.258,1218.5 200.419,1218.5 202.58,1218.5 204.741,1218.5 206.902,1218.5 209.063,1218.5 211.224,1218.5 213.385,1218.5 215.546,1218.5 217.707,1218.5 219.868,1218.5 222.029,1218.5 224.19,1218.5 226.351,1218.5 228.512,1218.5 230.673,1218.5 232.834,1218.5 234.995,1218.5 237.156,1218.5 239.317,1218.5 241.478,1218.5 243.639,1218.5 245.8,1218.5 247.961,1218.5 250.122,1218.5 252.282,1218.5 254.443,1218.5 256.604,1218.5 258.765,1218.5 260.926,1218.5 263.087,1218.5 265.248,1218.5 267.409,1218.5 269.57,1218.5 271.731,1218.5 273.892,1218.5 276.053,1218.5 278.214,1218.5 280.375,1218.5 282.536,1218.5 284.697,1218.5 286.858,1218.5 289.019,1218.5 291.18,1218.5 293.341,1218.5 295.502,1218.5 297.663,1218.5 299.824,1218.5 301.985,1218.5 304.146,1218.5 306.307,1218.5 308.468,1218.5 310.629,1218.5 312.79,1218.5 314.951,1218.5 317.112,1218.5 319.273,1218.5 321.434,1218.5 323.595,1218.5 325.756,1218.5 327.917,1218.5 330.078,1218.5 332.239,1218.5 334.4,1218.5 336.561,1218.5 338.722,1218.5 340.883,1218.5 343.044,1218.5 345.205,1218.5 347.366,1218.5 349.527,1218.5 351.688,1218.5 353.849,1218.5 356.01,1218.5 358.171,1218.5 360.332,1218.5 362.493,1218.5 364.653,1218.5 366.814,1218.5 368.975,1218.5 371.136,1218.5 373.297,1218.5 375.458,1218.5 377.619,1218.5 379.78,1218.5 381.941,1218.5 384.102,1218.5 386.263,1218.5 388.424,1218.5 390.585,1218.5 392.746,1218.5 394.907,1218.5 397.068,1218.5 399.229,1218.5 401.39,1218.5 403.551,1218.5 405.712,1218.5 407.873,1218.5 410.034,774.846 412.195,774.846 414.356,774.846 416.517,774.846 418.678,774.846 420.839,774.846 423,774.846 425.161,774.846 427.322,774.846 429.483,774.846 431.644,774.846 433.805,774.846 435.966,774.846 438.127,774.846 440.288,774.846 442.449,774.846 444.61,774.846 446.771,774.846 448.932,774.846 451.093,774.846 453.254,774.846 455.415,774.846 457.576,774.846 459.737,774.846 461.898,774.846 464.059,774.846 466.22,774.846 468.381,774.846 470.542,774.846 472.703,774.846 474.864,774.846 477.024,774.846 479.185,774.846 481.346,774.846 483.507,774.846 485.668,774.846 487.829,774.846 489.99,774.846 492.151,774.846 494.312,774.846 496.473,774.846 498.634,774.846 500.795,774.846 502.956,774.846 505.117,774.846 507.278,774.846 509.439,774.846 511.6,774.846 513.761,774.846 515.922,774.846 518.083,774.846 520.244,774.846 522.405,774.846 524.566,774.846 526.727,774.846 528.888,774.846 531.049,774.846 533.21,774.846 535.371,774.846 537.532,774.846 539.693,774.846 541.854,774.846 544.015,774.846 546.176,774.846 548.337,774.846 550.498,774.846 552.659,774.846 554.82,774.846 556.981,774.846 559.142,774.846 561.303,774.846 563.464,774.846 565.625,774.846 567.786,774.846 569.947,774.846 572.108,774.846 574.269,774.846 576.43,774.846 578.591,774.846 580.752,774.846 582.913,774.846 585.074,774.846 587.235,774.846 589.396,774.846 591.556,774.846 593.717,774.846 595.878,774.846 598.039,774.846 600.2,774.846 602.361,774.846 604.522,774.846 606.683,774.846 608.844,774.846 611.005,774.846 613.166,774.846 615.327,774.846 617.488,774.846 619.649,774.846 621.81,774.846 623.971,774.846 626.132,170.219 628.293,170.219 630.454,170.219 632.615,170.219 634.776,170.219 636.937,170.219 639.098,170.219 641.259,170.219 643.42,170.219 645.581,170.219 647.742,170.219 649.903,170.219 652.064,170.219 654.225,170.219 656.386,170.219 658.547,170.219 660.708,170.219 662.869,170.219 665.03,170.219 667.191,170.219 669.352,170.219 671.513,170.219 673.674,170.219 675.835,170.219 677.996,170.219 680.157,170.219 682.318,170.219 684.479,170.219 686.64,170.219 688.801,170.219 690.962,170.219 693.123,170.219 695.284,170.219 697.445,170.219 699.606,170.219 701.767,170.219 703.927,170.219 706.088,170.219 708.249,170.219 710.41,170.219 712.571,170.219 714.732,170.219 716.893,170.219 719.054,170.219 721.215,170.219 723.376,170.219 725.537,170.219 727.698,170.219 729.859,170.219 732.02,170.219 734.181,170.219 736.342,170.219 738.503,170.219 740.664,170.219 742.825,170.219 744.986,170.219 747.147,170.219 749.308,170.219 751.469,170.219 753.63,170.219 755.791,170.219 757.952,170.219 760.113,170.219 762.274,170.219 764.435,170.219 766.596,170.219 768.757,170.219 770.918,170.219 773.079,170.219 775.24,170.219 777.401,170.219 779.562,170.219 781.723,170.219 783.884,170.219 786.045,170.219 788.206,170.219 790.367,170.219 792.528,170.219 794.689,170.219 796.85,170.219 799.011,170.219 801.172,170.219 803.333,170.219 805.494,170.219 807.655,170.219 809.816,170.219 811.977,170.219 814.138,170.219 816.298,170.219 818.459,170.219 820.62,170.219 822.781,170.219 824.942,170.219 827.103,170.219 829.264,170.219 831.425,170.219 833.586,170.219 835.747,170.219 837.908,170.219 840.069,170.219 842.23,963.161 844.391,963.161 846.552,963.161 848.713,963.161 850.874,963.161 853.035,963.161 855.196,963.161 857.357,963.161 859.518,963.161 861.679,963.161 863.84,963.161 866.001,963.161 868.162,963.161 870.323,963.161 872.484,963.161 874.645,963.161 876.806,963.161 878.967,963.161 881.128,963.161 883.289,963.161 885.45,963.161 887.611,963.161 889.772,963.161 891.933,963.161 894.094,963.161 896.255,963.161 898.416,963.161 900.577,963.161 902.738,963.161 904.899,963.161 907.06,963.161 909.221,963.161 911.382,963.161 913.543,963.161 915.704,963.161 917.865,963.161 920.026,963.161 922.187,963.161 924.348,963.161 926.509,963.161 928.669,963.161 930.83,963.161 932.991,963.161 935.152,963.161 937.313,963.161 939.474,963.161 941.635,963.161 943.796,963.161 945.957,963.161 948.118,963.161 950.279,963.161 952.44,963.161 954.601,963.161 956.762,963.161 958.923,963.161 961.084,963.161 963.245,963.161 965.406,963.161 967.567,963.161 969.728,963.161 971.889,963.161 974.05,963.161 976.211,963.161 978.372,963.161 980.533,963.161 982.694,963.161 984.855,963.161 987.016,963.161 989.177,963.161 991.338,963.161 993.499,963.161 995.66,963.161 997.821,963.161 999.982,963.161 1002.14,963.161 1004.3,963.161 1006.46,963.161 1008.63,963.161 1010.79,963.161 1012.95,963.161 1015.11,963.161 1017.27,963.161 1019.43,963.161 1021.59,963.161 1023.75,963.161 1025.91,963.161 1028.07,963.161 1030.24,963.161 1032.4,963.161 1034.56,963.161 1036.72,963.161 1038.88,963.161 1041.04,963.161 1043.2,963.161 1045.36,963.161 1047.52,963.161 1049.68,963.161 1051.85,963.161 1054.01,963.161 1056.17,963.161 1058.33,1384.24 1060.49,1384.24 1062.65,1384.24 1064.81,1384.24 1066.97,1384.24 1069.13,1384.24 1071.29,1384.24 1073.46,1384.24 1075.62,1384.24 1077.78,1384.24 1079.94,1384.24 1082.1,1384.24 1084.26,1384.24 1086.42,1384.24 1088.58,1384.24 1090.74,1384.24 1092.9,1384.24 1095.07,1384.24 1097.23,1384.24 1099.39,1384.24 1101.55,1384.24 1103.71,1384.24 1105.87,1384.24 1108.03,1384.24 1110.19,1384.24 1112.35,1384.24 1114.51,1384.24 1116.67,1384.24 1118.84,1384.24 1121,1384.24 1123.16,1384.24 1125.32,1384.24 1127.48,1384.24 1129.64,1384.24 1131.8,1384.24 1133.96,1384.24 1136.12,1384.24 1138.28,1384.24 1140.45,1384.24 1142.61,1384.24 1144.77,1384.24 1146.93,1384.24 1149.09,1384.24 1151.25,1384.24 1153.41,1384.24 1155.57,1384.24 1157.73,1384.24 1159.89,1384.24 1162.06,1384.24 1164.22,1384.24 1166.38,1384.24 1168.54,1384.24 1170.7,1384.24 1172.86,1384.24 1175.02,1384.24 1177.18,1384.24 1179.34,1384.24 1181.5,1384.24 1183.67,1384.24 1185.83,1384.24 1187.99,1384.24 1190.15,1384.24 1192.31,1384.24 1194.47,1384.24 1196.63,1384.24 1198.79,1384.24 1200.95,1384.24 1203.11,1384.24 1205.28,1384.24 1207.44,1384.24 1209.6,1384.24 1211.76,1384.24 1213.92,1384.24 1216.08,1384.24 1218.24,1384.24 1220.4,1384.24 1222.56,1384.24 1224.72,1384.24 1226.88,1384.24 1229.05,1384.24 1231.21,1384.24 1233.37,1384.24 1235.53,1384.24 1237.69,1384.24 1239.85,1384.24 1242.01,1384.24 1244.17,1384.24 1246.33,1384.24 1248.49,1384.24 1250.66,1384.24 1252.82,1384.24 1254.98,1384.24 1257.14,1384.24 1259.3,1384.24 1261.46,1384.24 1263.62,1384.24 1265.78,1384.24 1267.94,1384.24 1270.1,1384.24 1272.27,1384.24 1274.43,854.402 1276.59,854.402 1278.75,854.402 1280.91,854.402 1283.07,854.402 1285.23,854.402 1287.39,854.402 1289.55,854.402 1291.71,854.402 1293.88,854.402 1296.04,854.402 1298.2,854.402 1300.36,854.402 1302.52,854.402 1304.68,854.402 1306.84,854.402 1309,854.402 1311.16,854.402 1313.32,854.402 1315.49,854.402 1317.65,854.402 1319.81,854.402 1321.97,854.402 1324.13,854.402 1326.29,854.402 1328.45,854.402 1330.61,854.402 1332.77,854.402 1334.93,854.402 1337.09,854.402 1339.26,854.402 1341.42,854.402 1343.58,854.402 1345.74,854.402 1347.9,854.402 1350.06,854.402 1352.22,854.402 1354.38,854.402 1356.54,854.402 1358.7,854.402 1360.87,854.402 1363.03,854.402 1365.19,854.402 1367.35,854.402 1369.51,854.402 1371.67,854.402 1373.83,854.402 1375.99,854.402 1378.15,854.402 1380.31,854.402 1382.48,854.402 1384.64,854.402 1386.8,854.402 1388.96,854.402 1391.12,854.402 1393.28,854.402 1395.44,854.402 1397.6,854.402 1399.76,854.402 1401.92,854.402 1404.09,854.402 1406.25,854.402 1408.41,854.402 1410.57,854.402 1412.73,854.402 1414.89,854.402 1417.05,854.402 1419.21,854.402 1421.37,854.402 1423.53,854.402 1425.7,854.402 1427.86,854.402 1430.02,854.402 1432.18,854.402 1434.34,854.402 1436.5,854.402 1438.66,854.402 1440.82,854.402 1442.98,854.402 1445.14,854.402 1447.3,854.402 1449.47,854.402 1451.63,854.402 1453.79,854.402 1455.95,854.402 1458.11,854.402 1460.27,854.402 1462.43,854.402 1464.59,854.402 1466.75,854.402 1468.91,854.402 1471.08,854.402 1473.24,854.402 1475.4,854.402 1477.56,854.402 1479.72,854.402 1481.88,854.402 1484.04,854.402 1486.2,854.402 1488.36,854.402 1490.52,663.132 1492.69,663.132 1494.85,663.132 1497.01,663.132 1499.17,663.132 1501.33,663.132 1503.49,663.132 1505.65,663.132 1507.81,663.132 1509.97,663.132 1512.13,663.132 1514.3,663.132 1516.46,663.132 1518.62,663.132 1520.78,663.132 1522.94,663.132 1525.1,663.132 1527.26,663.132 1529.42,663.132 1531.58,663.132 1533.74,663.132 1535.91,663.132 1538.07,663.132 1540.23,663.132 1542.39,663.132 1544.55,663.132 1546.71,663.132 1548.87,663.132 1551.03,663.132 1553.19,663.132 1555.35,663.132 1557.51,663.132 1559.68,663.132 1561.84,663.132 1564,663.132 1566.16,663.132 1568.32,663.132 1570.48,663.132 1572.64,663.132 1574.8,663.132 1576.96,663.132 1579.12,663.132 1581.29,663.132 1583.45,663.132 1585.61,663.132 1587.77,663.132 1589.93,663.132 1592.09,663.132 1594.25,663.132 1596.41,663.132 1598.57,663.132 1600.73,663.132 1602.9,663.132 1605.06,663.132 1607.22,663.132 1609.38,663.132 1611.54,663.132 1613.7,663.132 1615.86,663.132 1618.02,663.132 1620.18,663.132 1622.34,663.132 1624.51,663.132 1626.67,663.132 1628.83,663.132 1630.99,663.132 1633.15,663.132 1635.31,663.132 1637.47,663.132 1639.63,663.132 1641.79,663.132 1643.95,663.132 1646.12,663.132 1648.28,663.132 1650.44,663.132 1652.6,663.132 1654.76,663.132 1656.92,663.132 1659.08,663.132 1661.24,663.132 1663.4,663.132 1665.56,663.132 1667.72,663.132 1669.89,663.132 1672.05,663.132 1674.21,663.132 1676.37,663.132 1678.53,663.132 1680.69,663.132 1682.85,663.132 1685.01,663.132 1687.17,663.132 1689.33,663.132 1691.5,663.132 1693.66,663.132 1695.82,663.132 1697.98,663.132 1700.14,663.132 1702.3,663.132 1704.46,663.132 1706.62,189.421 1708.78,189.421 1710.94,189.421 1713.11,189.421 1715.27,189.421 1717.43,189.421 1719.59,189.421 1721.75,189.421 1723.91,189.421 1726.07,189.421 1728.23,189.421 1730.39,189.421 1732.55,189.421 1734.72,189.421 1736.88,189.421 1739.04,189.421 1741.2,189.421 1743.36,189.421 1745.52,189.421 1747.68,189.421 1749.84,189.421 1752,189.421 1754.16,189.421 1756.33,189.421 1758.49,189.421 1760.65,189.421 1762.81,189.421 1764.97,189.421 1767.13,189.421 1769.29,189.421 1771.45,189.421 1773.61,189.421 1775.77,189.421 1777.93,189.421 1780.1,189.421 1782.26,189.421 1784.42,189.421 1786.58,189.421 1788.74,189.421 1790.9,189.421 1793.06,189.421 1795.22,189.421 1797.38,189.421 1799.54,189.421 1801.71,189.421 1803.87,189.421 1806.03,189.421 1808.19,189.421 1810.35,189.421 1812.51,189.421 1814.67,189.421 1816.83,189.421 1818.99,189.421 1821.15,189.421 1823.32,189.421 1825.48,189.421 1827.64,189.421 1829.8,189.421 1831.96,189.421 1834.12,189.421 1836.28,189.421 1838.44,189.421 1840.6,189.421 1842.76,189.421 1844.93,189.421 1847.09,189.421 1849.25,189.421 1851.41,189.421 1853.57,189.421 1855.73,189.421 1857.89,189.421 1860.05,189.421 1862.21,189.421 1864.37,189.421 1866.54,189.421 1868.7,189.421 1870.86,189.421 1873.02,189.421 1875.18,189.421 1877.34,189.421 1879.5,189.421 1881.66,189.421 1883.82,189.421 1885.98,189.421 1888.15,189.421 1890.31,189.421 1892.47,189.421 1894.63,189.421 1896.79,189.421 1898.95,189.421 1901.11,189.421 1903.27,189.421 1905.43,189.421 1907.59,189.421 1909.75,189.421 1911.92,189.421 1914.08,189.421 1916.24,189.421 1918.4,189.421 1920.56,189.421 1922.72,937.947 1924.88,937.947 1927.04,937.947 1929.2,937.947 1931.36,937.947 1933.53,937.947 1935.69,937.947 1937.85,937.947 1940.01,937.947 1942.17,937.947 1944.33,937.947 1946.49,937.947 1948.65,937.947 1950.81,937.947 1952.97,937.947 1955.14,937.947 1957.3,937.947 1959.46,937.947 1961.62,937.947 1963.78,937.947 1965.94,937.947 1968.1,937.947 1970.26,937.947 1972.42,937.947 1974.58,937.947 1976.75,937.947 1978.91,937.947 1981.07,937.947 1983.23,937.947 1985.39,937.947 1987.55,937.947 1989.71,937.947 1991.87,937.947 1994.03,937.947 1996.19,937.947 1998.36,937.947 2000.52,937.947 2002.68,937.947 2004.84,937.947 2007,937.947 2009.16,937.947 2011.32,937.947 2013.48,937.947 2015.64,937.947 2017.8,937.947 2019.96,937.947 2022.13,937.947 2024.29,937.947 2026.45,937.947 2028.61,937.947 2030.77,937.947 2032.93,937.947 2035.09,937.947 2037.25,937.947 2039.41,937.947 2041.57,937.947 2043.74,937.947 2045.9,937.947 2048.06,937.947 2050.22,937.947 2052.38,937.947 2054.54,937.947 2056.7,937.947 2058.86,937.947 2061.02,937.947 2063.18,937.947 2065.35,937.947 2067.51,937.947 2069.67,937.947 2071.83,937.947 2073.99,937.947 2076.15,937.947 2078.31,937.947 2080.47,937.947 2082.63,937.947 2084.79,937.947 2086.96,937.947 2089.12,937.947 2091.28,937.947 2093.44,937.947 2095.6,937.947 2097.76,937.947 2099.92,937.947 2102.08,937.947 2104.24,937.947 2106.4,937.947 2108.57,937.947 2110.73,937.947 2112.89,937.947 2115.05,937.947 2117.21,937.947 2119.37,937.947 2121.53,937.947 2123.69,937.947 2125.85,937.947 2128.01,937.947 2130.17,937.947 2132.34,937.947 2134.5,937.947 2136.66,937.947 2138.82,86.1857 2140.98,86.1857 2143.14,86.1857 2145.3,86.1857 2147.46,86.1857 2149.62,86.1857 2151.78,86.1857 2153.95,86.1857 2156.11,86.1857 2158.27,86.1857 2160.43,86.1857 2162.59,86.1857 2164.75,86.1857 2166.91,86.1857 2169.07,86.1857 2171.23,86.1857 2173.39,86.1857 2175.56,86.1857 2177.72,86.1857 2179.88,86.1857 2182.04,86.1857 2184.2,86.1857 2186.36,86.1857 2188.52,86.1857 2190.68,86.1857 2192.84,86.1857 2195,86.1857 2197.17,86.1857 2199.33,86.1857 2201.49,86.1857 2203.65,86.1857 2205.81,86.1857 2207.97,86.1857 2210.13,86.1857 2212.29,86.1857 2214.45,86.1857 2216.61,86.1857 2218.78,86.1857 2220.94,86.1857 2223.1,86.1857 2225.26,86.1857 2227.42,86.1857 2229.58,86.1857 2231.74,86.1857 2233.9,86.1857 2236.06,86.1857 2238.22,86.1857 2240.38,86.1857 2242.55,86.1857 2244.71,86.1857 2246.87,86.1857 2249.03,86.1857 2251.19,86.1857 2253.35,86.1857 2255.51,86.1857 2257.67,86.1857 2259.83,86.1857 2261.99,86.1857 2264.16,86.1857 2266.32,86.1857 2268.48,86.1857 2270.64,86.1857 2272.8,86.1857 2274.96,86.1857 2277.12,86.1857 2279.28,86.1857 2281.44,86.1857 2283.6,86.1857 2285.77,86.1857 2287.93,86.1857 2290.09,86.1857 2292.25,86.1857 2294.41,86.1857 2296.57,86.1857 2298.73,86.1857 2300.89,86.1857 2303.05,86.1857 2305.21,86.1857 2307.38,86.1857 2309.54,86.1857 2311.7,86.1857 2313.86,86.1857 2316.02,86.1857 2318.18,86.1857 2320.34,86.1857 2322.5,86.1857 2324.66,86.1857 2326.82,86.1857 2328.99,86.1857 2331.15,86.1857 2333.31,86.1857 2335.47,86.1857 2337.63,86.1857 2339.79,86.1857 2341.95,86.1857 2344.11,86.1857 2346.27,86.1857 2348.43,86.1857 2350.59,86.1857 2352.76,86.1857 "/>
<path clip-path="url(#clip700)" d="M2039.77 1377.32 L2280.8 1377.32 L2280.8 1221.8 L2039.77 1221.8  Z" fill="#ffffff" fill-rule="evenodd" fill-opacity="1"/>
<polyline clip-path="url(#clip700)" style="stroke:#000000; stroke-linecap:round; stroke-linejoin:round; stroke-width:4; stroke-opacity:1; fill:none" points="2039.77,1377.32 2280.8,1377.32 2280.8,1221.8 2039.77,1221.8 2039.77,1377.32 "/>
<polyline clip-path="url(#clip700)" style="stroke:#009af9; stroke-linecap:round; stroke-linejoin:round; stroke-width:4; stroke-opacity:1; fill:none" points="2063.76,1273.64 2207.68,1273.64 "/>
<path clip-path="url(#clip700)" d="M2256.32 1264.99 L2246.95 1277.61 L2256.81 1290.92 L2251.79 1290.92 L2244.24 1280.73 L2236.69 1290.92 L2231.67 1290.92 L2241.74 1277.35 L2232.53 1264.99 L2237.55 1264.99 L2244.42 1274.23 L2251.3 1264.99 L2256.32 1264.99 Z" fill="#000000" fill-rule="nonzero" fill-opacity="1" /><polyline clip-path="url(#clip700)" style="stroke:#e26f46; stroke-linecap:round; stroke-linejoin:round; stroke-width:4; stroke-opacity:1; fill:none" points="2063.76,1325.48 2207.68,1325.48 "/>
<path clip-path="url(#clip700)" d="M2248.17 1306.74 L2248.17 1310.28 L2244.1 1310.28 Q2241.81 1310.28 2240.91 1311.2 Q2240.03 1312.13 2240.03 1314.54 L2240.03 1316.83 L2247.04 1316.83 L2247.04 1320.14 L2240.03 1320.14 L2240.03 1342.76 L2235.74 1342.76 L2235.74 1320.14 L2231.67 1320.14 L2231.67 1316.83 L2235.74 1316.83 L2235.74 1315.02 Q2235.74 1310.7 2237.76 1308.73 Q2239.77 1306.74 2244.15 1306.74 L2248.17 1306.74 Z" fill="#000000" fill-rule="nonzero" fill-opacity="1" /></svg>
