<?xml version="1.0" encoding="utf-8"?>
<svg xmlns="http://www.w3.org/2000/svg" xmlns:xlink="http://www.w3.org/1999/xlink" width="600" height="400" viewBox="0 0 2400 1600">
<defs>
  <clipPath id="clip700">
    <rect x="0" y="0" width="2400" height="1600"/>
  </clipPath>
</defs>
<path clip-path="url(#clip700)" d="M0 1600 L2400 1600 L2400 0 L0 0  Z" fill="#ffffff" fill-rule="evenodd" fill-opacity="1"/>
<defs>
  <clipPath id="clip701">
    <rect x="147" y="47" width="2206" height="1377"/>
  </clipPath>
</defs>
<path clip-path="url(#clip700)" d="M147.478 1423.18 L2352.76 1423.18 L2352.76 47.2441 L147.478 47.2441  Z" fill="#ffffff" fill-rule="evenodd" fill-opacity="1"/>
<polyline clip-path="url(#clip701)" style="stroke:#000000; stroke-linecap:round; stroke-linejoin:round; stroke-width:2; stroke-opacity:0.1; fill:none" points="147.478,1423.18 147.478,47.2441 "/>
<polyline clip-path="url(#clip701)" style="stroke:#000000; stroke-linecap:round; stroke-linejoin:round; stroke-width:2; stroke-opacity:0.1; fill:none" points="588.534,1423.18 588.534,47.2441 "/>
<polyline clip-path="url(#clip701)" style="stroke:#000000; stroke-linecap:round; stroke-linejoin:round; stroke-width:2; stroke-opacity:0.1; fill:none" points="1029.59,1423.18 1029.59,47.2441 "/>
<polyline clip-path="url(#clip701)" style="stroke:#000000; stroke-linecap:round; stroke-linejoin:round; stroke-width:2; stroke-opacity:0.1; fill:none" points="1470.64,1423.18 1470.64,47.2441 "/>
<polyline clip-path="url(#clip701)" style="stroke:#000000; stroke-linecap:round; stroke-linejoin:round; stroke-width:2; stroke-opacity:0.1; fill:none" points="1911.7,1423.18 1911.7,47.2441 "/>
<polyline clip-path="url(#clip701)" style="stroke:#000000; stroke-linecap:round; stroke-linejoin:round; stroke-width:2; stroke-opacity:0.1; fill:none" points="2352.76,1423.18 2352.76,47.2441 "/>
<polyline clip-path="url(#clip701)" style="stroke:#000000; stroke-linecap:round; stroke-linejoin:round; stroke-width:2; stroke-opacity:0.1; fill:none" points="147.478,1334.96 2352.76,1334.96 "/>
<polyline clip-path="url(#clip701)" style="stroke:#000000; stroke-linecap:round; stroke-linejoin:round; stroke-width:2; stroke-opacity:0.1; fill:none" points="147.478,985.941 2352.76,985.941 "/>
<polyline clip-path="url(#clip701)" style="stroke:#000000; stroke-linecap:round; stroke-linejoin:round; stroke-width:2; stroke-opacity:0.1; fill:none" points="147.478,636.925 2352.76,636.925 "/>
<polyline clip-path="url(#clip701)" style="stroke:#000000; stroke-linecap:round; stroke-linejoin:round; stroke-width:2; stroke-opacity:0.1; fill:none" points="147.478,287.91 2352.76,287.91 "/>
<polyline clip-path="url(#clip700)" style="stroke:#000000; stroke-linecap:round; stroke-linejoin:round; stroke-width:4; stroke-opacity:1; fill:none" points="147.478,1423.18 2352.76,1423.18 "/>
<polyline clip-path="url(#clip700)" style="stroke:#000000; stroke-linecap:round; stroke-linejoin:round; stroke-width:4; stroke-opacity:1; fill:none" points="147.478,1423.18 147.478,1404.28 "/>
<polyline clip-path="url(#clip700)" style="stroke:#000000; stroke-linecap:round; stroke-linejoin:round; stroke-width:4; stroke-opacity:1; fill:none" points="588.534,1423.18 588.534,1404.28 "/>
<polyline clip-path="url(#clip700)" style="stroke:#000000; stroke-linecap:round; stroke-linejoin:round; stroke-width:4; stroke-opacity:1; fill:none" points="1029.59,1423.18 1029.59,1404.28 "/>
<polyline clip-path="url(#clip700)" style="stroke:#000000; stroke-linecap:round; stroke-linejoin:round; stroke-width:4; stroke-opacity:1; fill:none" points="1470.64,1423.18 1470.64,1404.28 "/>
<polyline clip-path="url(#clip700)" style="stroke:#000000; stroke-linecap:round; stroke-linejoin:round; stroke-width:4; stroke-opacity:1; fill:none" points="1911.7,1423.18 1911.7,1404.28 "/>
<polyline clip-path="url(#clip700)" style="stroke:#000000; stroke-linecap:round; stroke-linejoin:round; stroke-width:4; stroke-opacity:1; fill:none" points="2352.76,1423.18 2352.76,1404.28 "/>
<path clip-path="url(#clip700)" d="M147.478 1454.1 Q143.867 1454.1 142.038 1457.66 Q140.233 1461.2 140.233 1468.33 Q140.233 1475.44 142.038 1479.01 Q143.867 1482.55 147.478 1482.55 Q151.112 1482.55 152.918 1479.01 Q154.746 1475.44 154.746 1468.33 Q154.746 1461.2 152.918 1457.66 Q151.112 1454.1 147.478 1454.1 M147.478 1450.39 Q153.288 1450.39 156.344 1455 Q159.422 1459.58 159.422 1468.33 Q159.422 1477.06 156.344 1481.67 Q153.288 1486.25 147.478 1486.25 Q141.668 1486.25 138.589 1481.67 Q135.534 1477.06 135.534 1468.33 Q135.534 1459.58 138.589 1455 Q141.668 1450.39 147.478 1450.39 Z" fill="#000000" fill-rule="nonzero" fill-opacity="1" /><path clip-path="url(#clip700)" d="M583.186 1481.64 L599.506 1481.64 L599.506 1485.58 L577.561 1485.58 L577.561 1481.64 Q580.223 1478.89 584.807 1474.26 Q589.413 1469.61 590.594 1468.27 Q592.839 1465.74 593.719 1464.01 Q594.621 1462.25 594.621 1460.56 Q594.621 1457.8 592.677 1456.07 Q590.756 1454.33 587.654 1454.33 Q585.455 1454.33 583.001 1455.09 Q580.571 1455.86 577.793 1457.41 L577.793 1452.69 Q580.617 1451.55 583.071 1450.97 Q585.524 1450.39 587.561 1450.39 Q592.932 1450.39 596.126 1453.08 Q599.32 1455.77 599.32 1460.26 Q599.32 1462.39 598.51 1464.31 Q597.723 1466.2 595.617 1468.8 Q595.038 1469.47 591.936 1472.69 Q588.834 1475.88 583.186 1481.64 Z" fill="#000000" fill-rule="nonzero" fill-opacity="1" /><path clip-path="url(#clip700)" d="M1032.6 1455.09 L1020.79 1473.54 L1032.6 1473.54 L1032.6 1455.09 M1031.37 1451.02 L1037.25 1451.02 L1037.25 1473.54 L1042.18 1473.54 L1042.18 1477.43 L1037.25 1477.43 L1037.25 1485.58 L1032.6 1485.58 L1032.6 1477.43 L1017 1477.43 L1017 1472.92 L1031.37 1451.02 Z" fill="#000000" fill-rule="nonzero" fill-opacity="1" /><path clip-path="url(#clip700)" d="M1471.05 1466.44 Q1467.9 1466.44 1466.05 1468.59 Q1464.22 1470.74 1464.22 1474.49 Q1464.22 1478.22 1466.05 1480.39 Q1467.9 1482.55 1471.05 1482.55 Q1474.2 1482.55 1476.03 1480.39 Q1477.88 1478.22 1477.88 1474.49 Q1477.88 1470.74 1476.03 1468.59 Q1474.2 1466.44 1471.05 1466.44 M1480.33 1451.78 L1480.33 1456.04 Q1478.57 1455.21 1476.77 1454.77 Q1474.98 1454.33 1473.23 1454.33 Q1468.6 1454.33 1466.14 1457.45 Q1463.71 1460.58 1463.36 1466.9 Q1464.73 1464.89 1466.79 1463.82 Q1468.85 1462.73 1471.33 1462.73 Q1476.54 1462.73 1479.55 1465.9 Q1482.58 1469.05 1482.58 1474.49 Q1482.58 1479.82 1479.43 1483.03 Q1476.28 1486.25 1471.05 1486.25 Q1465.05 1486.25 1461.88 1481.67 Q1458.71 1477.06 1458.71 1468.33 Q1458.71 1460.14 1462.6 1455.28 Q1466.49 1450.39 1473.04 1450.39 Q1474.8 1450.39 1476.58 1450.74 Q1478.39 1451.09 1480.33 1451.78 Z" fill="#000000" fill-rule="nonzero" fill-opacity="1" /><path clip-path="url(#clip700)" d="M1911.7 1469.17 Q1908.37 1469.17 1906.45 1470.95 Q1904.55 1472.73 1904.55 1475.86 Q1904.55 1478.98 1906.45 1480.77 Q1908.37 1482.55 1911.7 1482.55 Q1915.03 1482.55 1916.95 1480.77 Q1918.88 1478.96 1918.88 1475.86 Q1918.88 1472.73 1916.95 1470.95 Q1915.06 1469.17 1911.7 1469.17 M1907.02 1467.18 Q1904.02 1466.44 1902.33 1464.38 Q1900.66 1462.32 1900.66 1459.35 Q1900.66 1455.21 1903.6 1452.8 Q1906.56 1450.39 1911.7 1450.39 Q1916.86 1450.39 1919.8 1452.8 Q1922.74 1455.21 1922.74 1459.35 Q1922.74 1462.32 1921.05 1464.38 Q1919.39 1466.44 1916.4 1467.18 Q1919.78 1467.96 1921.65 1470.26 Q1923.55 1472.55 1923.55 1475.86 Q1923.55 1480.88 1920.47 1483.57 Q1917.42 1486.25 1911.7 1486.25 Q1905.98 1486.25 1902.9 1483.57 Q1899.85 1480.88 1899.85 1475.86 Q1899.85 1472.55 1901.75 1470.26 Q1903.64 1467.96 1907.02 1467.18 M1905.31 1459.79 Q1905.31 1462.48 1906.98 1463.98 Q1908.67 1465.49 1911.7 1465.49 Q1914.71 1465.49 1916.4 1463.98 Q1918.11 1462.48 1918.11 1459.79 Q1918.11 1457.11 1916.4 1455.6 Q1914.71 1454.1 1911.7 1454.1 Q1908.67 1454.1 1906.98 1455.6 Q1905.31 1457.11 1905.31 1459.79 Z" fill="#000000" fill-rule="nonzero" fill-opacity="1" /><path clip-path="url(#clip700)" d="M2327.44 1481.64 L2335.08 1481.64 L2335.08 1455.28 L2326.77 1456.95 L2326.77 1452.69 L2335.04 1451.02 L2339.71 1451.02 L2339.71 1481.64 L2347.35 1481.64 L2347.35 1485.58 L2327.44 1485.58 L2327.44 1481.64 Z" fill="#000000" fill-rule="nonzero" fill-opacity="1" /><path clip-path="url(#clip700)" d="M2366.8 1454.1 Q2363.18 1454.1 2361.36 1457.66 Q2359.55 1461.2 2359.55 1468.33 Q2359.55 1475.44 2361.36 1479.01 Q2363.18 1482.55 2366.8 1482.55 Q2370.43 1482.55 2372.23 1479.01 Q2374.06 1475.44 2374.06 1468.33 Q2374.06 1461.2 2372.23 1457.66 Q2370.43 1454.1 2366.8 1454.1 M2366.8 1450.39 Q2372.61 1450.39 2375.66 1455 Q2378.74 1459.58 2378.74 1468.33 Q2378.74 1477.06 2375.66 1481.67 Q2372.61 1486.25 2366.8 1486.25 Q2360.99 1486.25 2357.91 1481.67 Q2354.85 1477.06 2354.85 1468.33 Q2354.85 1459.58 2357.91 1455 Q2360.99 1450.39 2366.8 1450.39 Z" fill="#000000" fill-rule="nonzero" fill-opacity="1" /><path clip-path="url(#clip700)" d="M1249.18 1522.27 L1249.18 1532.4 L1261.24 1532.4 L1261.24 1536.95 L1249.18 1536.95 L1249.18 1556.3 Q1249.18 1560.66 1250.36 1561.9 Q1251.57 1563.14 1255.23 1563.14 L1261.24 1563.14 L1261.24 1568.04 L1255.23 1568.04 Q1248.45 1568.04 1245.87 1565.53 Q1243.29 1562.98 1243.29 1556.3 L1243.29 1536.95 L1238.99 1536.95 L1238.99 1532.4 L1243.29 1532.4 L1243.29 1522.27 L1249.18 1522.27 Z" fill="#000000" fill-rule="nonzero" fill-opacity="1" /><polyline clip-path="url(#clip700)" style="stroke:#000000; stroke-linecap:round; stroke-linejoin:round; stroke-width:4; stroke-opacity:1; fill:none" points="147.478,1423.18 147.478,47.2441 "/>
<polyline clip-path="url(#clip700)" style="stroke:#000000; stroke-linecap:round; stroke-linejoin:round; stroke-width:4; stroke-opacity:1; fill:none" points="147.478,1334.96 166.376,1334.96 "/>
<polyline clip-path="url(#clip700)" style="stroke:#000000; stroke-linecap:round; stroke-linejoin:round; stroke-width:4; stroke-opacity:1; fill:none" points="147.478,985.941 166.376,985.941 "/>
<polyline clip-path="url(#clip700)" style="stroke:#000000; stroke-linecap:round; stroke-linejoin:round; stroke-width:4; stroke-opacity:1; fill:none" points="147.478,636.925 166.376,636.925 "/>
<polyline clip-path="url(#clip700)" style="stroke:#000000; stroke-linecap:round; stroke-linejoin:round; stroke-width:4; stroke-opacity:1; fill:none" points="147.478,287.91 166.376,287.91 "/>
<path clip-path="url(#clip700)" d="M51.3625 1335.41 L81.0383 1335.41 L81.0383 1339.34 L51.3625 1339.34 L51.3625 1335.41 Z" fill="#000000" fill-rule="nonzero" fill-opacity="1" /><path clip-path="url(#clip700)" d="M95.1586 1348.3 L111.478 1348.3 L111.478 1352.24 L89.5336 1352.24 L89.5336 1348.3 Q92.1956 1345.55 96.7789 1340.92 Q101.385 1336.26 102.566 1334.92 Q104.811 1332.4 105.691 1330.66 Q106.594 1328.9 106.594 1327.21 Q106.594 1324.46 104.649 1322.72 Q102.728 1320.99 99.6261 1320.99 Q97.4271 1320.99 94.9734 1321.75 Q92.5428 1322.51 89.7651 1324.07 L89.7651 1319.34 Q92.5891 1318.21 95.0428 1317.63 Q97.4965 1317.05 99.5335 1317.05 Q104.904 1317.05 108.098 1319.74 Q111.293 1322.42 111.293 1326.91 Q111.293 1329.04 110.483 1330.96 Q109.696 1332.86 107.589 1335.45 Q107.01 1336.13 103.909 1339.34 Q100.807 1342.54 95.1586 1348.3 Z" fill="#000000" fill-rule="nonzero" fill-opacity="1" /><path clip-path="url(#clip700)" d="M50.9921 986.392 L80.6679 986.392 L80.6679 990.328 L50.9921 990.328 L50.9921 986.392 Z" fill="#000000" fill-rule="nonzero" fill-opacity="1" /><path clip-path="url(#clip700)" d="M91.5706 999.286 L99.2095 999.286 L99.2095 972.92 L90.8993 974.587 L90.8993 970.328 L99.1632 968.661 L103.839 968.661 L103.839 999.286 L111.478 999.286 L111.478 1003.22 L91.5706 1003.22 L91.5706 999.286 Z" fill="#000000" fill-rule="nonzero" fill-opacity="1" /><path clip-path="url(#clip700)" d="M99.5335 622.724 Q95.9224 622.724 94.0937 626.289 Q92.2882 629.831 92.2882 636.96 Q92.2882 644.067 94.0937 647.631 Q95.9224 651.173 99.5335 651.173 Q103.168 651.173 104.973 647.631 Q106.802 644.067 106.802 636.96 Q106.802 629.831 104.973 626.289 Q103.168 622.724 99.5335 622.724 M99.5335 619.02 Q105.344 619.02 108.399 623.627 Q111.478 628.21 111.478 636.96 Q111.478 645.687 108.399 650.293 Q105.344 654.877 99.5335 654.877 Q93.7234 654.877 90.6447 650.293 Q87.5892 645.687 87.5892 636.96 Q87.5892 628.21 90.6447 623.627 Q93.7234 619.02 99.5335 619.02 Z" fill="#000000" fill-rule="nonzero" fill-opacity="1" /><path clip-path="url(#clip700)" d="M91.5706 301.255 L99.2095 301.255 L99.2095 274.889 L90.8993 276.556 L90.8993 272.297 L99.1632 270.63 L103.839 270.63 L103.839 301.255 L111.478 301.255 L111.478 305.19 L91.5706 305.19 L91.5706 301.255 Z" fill="#000000" fill-rule="nonzero" fill-opacity="1" /><polyline clip-path="url(#clip701)" style="stroke:#009af9; stroke-linecap:round; stroke-linejoin:round; stroke-width:4; stroke-opacity:1; fill:none" points="147.478,636.925 149.685,634.572 151.893,632.249 154.1,629.958 156.308,627.697 158.515,625.465 160.723,623.264 162.93,621.091 165.138,618.948 167.345,616.832 169.553,614.745 171.76,612.686 173.968,610.653 176.175,608.648 178.383,606.669 180.59,604.717 182.798,602.79 185.005,600.889 187.213,599.014 189.42,597.163 191.628,595.336 193.835,593.534 196.043,591.756 198.25,590.001 200.458,588.269 202.665,586.561 204.873,584.875 207.08,583.211 209.288,581.57 211.495,579.95 213.702,578.352 215.91,576.775 218.117,575.219 220.325,573.683 222.532,572.168 224.74,570.673 226.947,569.198 229.155,567.742 231.362,566.306 233.57,564.889 235.777,563.49 237.985,562.11 240.192,560.748 242.4,559.405 244.607,558.079 246.815,556.771 249.022,555.48 251.23,554.206 253.437,552.949 255.645,551.709 257.852,550.485 260.06,549.278 262.267,548.086 264.475,546.91 266.682,545.75 268.89,544.605 271.097,543.476 273.305,542.361 275.512,541.261 277.72,540.176 279.927,539.105 282.135,538.048 284.342,537.006 286.549,535.977 288.757,534.961 290.964,533.96 293.172,532.971 295.379,531.996 297.587,531.033 299.794,530.084 302.002,529.147 304.209,528.222 306.417,527.309 308.624,526.409 310.832,525.521 313.039,524.644 315.247,523.779 317.454,522.926 319.662,522.084 321.869,521.253 324.077,520.433 326.284,519.624 328.492,518.825 330.699,518.037 332.907,517.26 335.114,516.493 337.322,515.736 339.529,514.989 341.737,514.252 343.944,513.525 346.152,512.807 348.359,512.099 350.567,511.401 352.774,510.711 354.982,510.031 357.189,509.36 359.397,508.697 361.604,508.044 363.811,507.399 366.019,506.763 368.226,507.405 370.434,510.418 372.641,515.465 374.849,522.229 377.056,530.419 379.264,539.762 381.471,550.008 383.679,560.929 385.886,572.318 388.094,583.992 390.301,595.787 392.509,607.563 394.716,619.201 396.924,630.604 399.131,641.695 401.339,652.422 403.546,662.753 405.754,672.678 407.961,682.208 410.169,691.378 412.376,700.243 414.584,708.88 416.791,717.388 418.999,725.889 421.206,734.516 423.414,743.13 425.621,751.63 427.829,760.017 430.036,768.293 432.244,776.459 434.451,784.517 436.659,792.468 438.866,800.314 441.073,808.056 443.281,815.695 445.488,823.232 447.696,830.67 449.903,838.009 452.111,845.251 454.318,852.397 456.526,859.448 458.733,866.406 460.941,873.272 463.148,880.047 465.356,886.731 467.563,893.328 469.771,899.837 471.978,906.259 474.186,912.596 476.393,918.849 478.601,925.02 480.808,931.108 483.016,937.116 485.223,943.044 487.431,948.893 489.638,954.665 491.846,960.36 494.053,965.98 496.261,971.525 498.468,976.996 500.676,982.395 502.883,987.723 505.091,992.979 507.298,998.167 509.506,1003.28 511.713,1008.34 513.921,1013.32 516.128,1018.24 518.335,1023.09 520.543,1027.88 522.75,1032.6 524.958,1037.26 527.165,1041.86 529.373,1046.4 531.58,1050.88 533.788,1055.3 535.995,1059.66 538.203,1063.97 540.41,1068.21 542.618,1072.4 544.825,1076.54 547.033,1080.62 549.24,1084.64 551.448,1088.61 553.655,1092.53 555.863,1096.4 558.07,1100.22 560.278,1103.98 562.485,1107.7 564.693,1111.36 566.9,1114.98 569.108,1118.55 571.315,1122.07 573.523,1125.55 575.73,1128.98 577.938,1132.36 580.145,1135.7 582.353,1139 584.56,1142.25 586.768,1145.46 588.975,1147.17 591.182,1146.34 593.39,1143.35 595.597,1138.54 597.805,1132.27 600.012,1124.82 602.22,1116.47 604.427,1107.49 606.635,1098.08 608.842,1088.44 611.05,1078.75 613.257,1069.15 615.465,1059.75 617.672,1050.65 619.88,1041.9 622.087,1033.54 624.295,1025.58 626.502,1018.01 628.71,1010.76 630.917,1003.79 633.125,996.978 635.332,990.209 637.54,983.327 639.747,976.338 641.955,969.44 644.162,962.633 646.37,955.916 648.577,949.288 650.785,942.748 652.992,936.295 655.2,929.928 657.407,923.645 659.615,917.445 661.822,911.327 664.03,905.291 666.237,899.334 668.444,893.456 670.652,887.657 672.859,881.934 675.067,876.287 677.274,870.714 679.482,865.216 681.689,859.79 683.897,854.437 686.104,849.154 688.312,843.941 690.519,838.798 692.727,833.723 694.934,828.715 697.142,823.774 699.349,818.898 701.557,814.087 703.764,809.339 705.972,804.655 708.179,800.033 710.387,795.472 712.594,790.972 714.802,786.531 717.009,782.149 719.217,777.826 721.424,773.559 723.632,769.35 725.839,765.196 728.047,761.097 730.254,757.052 732.462,753.061 734.669,749.123 736.877,745.237 739.084,741.403 741.292,737.62 743.499,733.886 745.706,730.202 747.914,726.567 750.121,722.98 752.329,719.44 754.536,715.948 756.744,712.502 758.951,709.101 761.159,705.745 763.366,702.434 765.574,699.167 767.781,695.944 769.989,692.763 772.196,689.624 774.404,686.527 776.611,683.471 778.819,680.455 781.026,677.479 783.234,674.543 785.441,671.646 787.649,668.787 789.856,665.966 792.064,663.183 794.271,660.436 796.479,657.726 798.686,655.052 800.894,652.413 803.101,649.809 805.309,647.241 807.516,645.286 809.724,644.315 811.931,644.197 814.139,644.81 816.346,646.037 818.553,647.773 820.761,649.918 822.968,652.383 825.176,655.084 827.383,657.947 829.591,660.906 831.798,663.903 834.006,666.887 836.213,669.818 838.421,672.66 840.628,675.389 842.836,677.987 845.043,680.445 847.251,682.76 849.458,684.941 851.666,687.002 853.873,688.966 856.081,690.864 858.288,692.736 860.496,694.628 862.703,696.594 864.911,698.577 867.118,700.532 869.326,702.462 871.533,704.367 873.741,706.246 875.948,708.1 878.156,709.93 880.363,711.735 882.571,713.517 884.778,715.275 886.986,717.009 889.193,718.721 891.401,720.41 893.608,722.076 895.815,723.721 898.023,725.343 900.23,726.944 902.438,728.524 904.645,730.083 906.853,731.621 909.06,733.139 911.268,734.637 913.475,736.115 915.683,737.573 917.89,739.012 920.098,740.432 922.305,741.834 924.513,743.216 926.72,744.581 928.928,745.927 931.135,747.255 933.343,748.566 935.55,749.859 937.758,751.135 939.965,752.394 942.173,753.637 944.38,754.863 946.588,756.073 948.795,757.266 951.003,758.444 953.21,759.606 955.418,760.753 957.625,761.884 959.833,763.001 962.04,764.103 964.248,765.19 966.455,766.262 968.663,767.321 970.87,768.365 973.077,769.396 975.285,770.412 977.492,771.416 979.7,772.406 981.907,773.383 984.115,774.347 986.322,775.298 988.53,776.237 990.737,777.163 992.945,778.077 995.152,778.979 997.36,779.869 999.567,780.747 1001.77,781.614 1003.98,782.469 1006.19,783.312 1008.4,784.145 1010.6,784.966 1012.81,785.777 1015.02,786.577 1017.23,787.366 1019.43,788.145 1021.64,788.913 1023.85,789.671 1026.06,790.42 1028.26,790.984 1030.47,790.977 1032.68,790.444 1034.89,789.448 1037.09,788.049 1039.3,786.302 1041.51,784.26 1043.72,781.972 1045.92,779.486 1048.13,776.842 1050.34,774.081 1052.55,771.24 1054.75,768.349 1056.96,765.44 1059.17,762.538 1061.38,759.665 1063.58,756.842 1065.79,754.083 1068,751.403 1070.21,748.81 1072.41,746.311 1074.62,743.908 1076.83,741.6 1079.04,739.385 1081.24,737.253 1083.45,735.196 1085.66,733.198 1087.87,731.243 1090.07,729.311 1092.28,727.376 1094.49,725.413 1096.7,723.431 1098.9,721.475 1101.11,719.544 1103.32,717.64 1105.53,715.76 1107.73,713.906 1109.94,712.076 1112.15,710.27 1114.36,708.488 1116.56,706.73 1118.77,704.995 1120.98,703.283 1123.19,701.594 1125.39,699.928 1127.6,698.283 1129.81,696.66 1132.02,695.059 1134.22,693.478 1136.43,691.919 1138.64,690.38 1140.85,688.862 1143.05,687.364 1145.26,685.886 1147.47,684.427 1149.68,682.988 1151.88,681.568 1154.09,680.166 1156.3,678.784 1158.51,677.419 1160.71,676.073 1162.92,674.744 1165.13,673.434 1167.34,672.14 1169.54,670.864 1171.75,669.605 1173.96,668.362 1176.17,667.136 1178.37,665.926 1180.58,664.733 1182.79,663.555 1185,662.393 1187.2,661.246 1189.41,660.114 1191.62,658.997 1193.83,657.896 1196.03,656.808 1198.24,655.736 1200.45,654.677 1202.66,653.632 1204.86,652.602 1207.07,651.584 1209.28,650.581 1211.49,649.591 1213.69,648.613 1215.9,647.649 1218.11,646.697 1220.32,645.759 1222.52,644.832 1224.73,643.918 1226.94,643.016 1229.15,642.126 1231.35,641.247 1233.56,640.381 1235.77,639.526 1237.98,638.682 1240.18,637.849 1242.39,637.028 1244.6,636.217 1246.81,635.417 1249.01,634.628 1251.22,634.895 1253.43,636.407 1255.64,637.907 1257.84,639.387 1260.05,640.847 1262.26,642.287 1264.47,643.709 1266.67,645.112 1268.88,646.496 1271.09,647.862 1273.3,649.21 1275.5,650.539 1277.71,651.852 1279.92,653.147 1282.13,654.424 1284.33,655.685 1286.54,656.929 1288.75,658.156 1290.96,659.368 1293.16,660.563 1295.37,661.742 1297.58,662.906 1299.79,664.054 1301.99,665.187 1304.2,666.305 1306.41,667.408 1308.62,668.497 1310.82,669.571 1313.03,670.631 1315.24,671.677 1317.45,672.709 1319.65,673.727 1321.86,674.732 1324.07,675.724 1326.28,676.702 1328.48,677.667 1330.69,678.62 1332.9,679.56 1335.11,680.487 1337.31,681.402 1339.52,682.305 1341.73,683.197 1343.94,684.076 1346.14,684.943 1348.35,685.799 1350.56,686.644 1352.76,687.478 1354.97,688.3 1357.18,689.112 1359.39,689.913 1361.59,690.703 1363.8,691.483 1366.01,692.252 1368.22,693.011 1370.42,693.76 1372.63,694.5 1374.84,695.229 1377.05,695.949 1379.25,696.659 1381.46,697.36 1383.67,698.051 1385.88,698.734 1388.08,699.407 1390.29,700.071 1392.5,700.727 1394.71,701.373 1396.91,702.012 1399.12,702.642 1401.33,703.263 1403.54,703.876 1405.74,704.481 1407.95,705.078 1410.16,705.668 1412.37,706.249 1414.57,706.823 1416.78,707.389 1418.99,707.947 1421.2,708.498 1423.4,709.042 1425.61,709.579 1427.82,710.108 1430.03,710.631 1432.23,711.146 1434.44,711.655 1436.65,712.157 1438.86,712.652 1441.06,713.141 1443.27,713.623 1445.48,714.099 1447.69,714.568 1449.89,715.032 1452.1,715.489 1454.31,715.94 1456.52,716.385 1458.72,716.824 1460.93,717.258 1463.14,717.686 1465.35,718.108 1467.55,718.579 1469.76,719.971 1471.97,722.454 1474.18,725.866 1476.38,730.058 1478.59,734.89 1480.8,740.233 1483.01,745.968 1485.21,751.989 1487.42,758.197 1489.63,764.507 1491.84,770.844 1494.04,777.141 1496.25,783.346 1498.46,789.415 1500.67,795.314 1502.87,801.021 1505.08,806.526 1507.29,811.827 1509.5,816.934 1511.7,821.868 1513.91,826.659 1516.12,831.351 1518.33,835.994 1520.53,840.654 1522.74,845.364 1524.95,850.025 1527.16,854.624 1529.36,859.162 1531.57,863.64 1533.78,868.059 1535.99,872.419 1538.19,876.721 1540.4,880.966 1542.61,885.155 1544.82,889.288 1547.02,893.366 1549.23,897.391 1551.44,901.362 1553.65,905.28 1555.85,909.147 1558.06,912.962 1560.27,916.726 1562.48,920.441 1564.68,924.107 1566.89,927.724 1569.1,931.293 1571.31,934.815 1573.51,938.29 1575.72,941.719 1577.93,945.103 1580.14,948.441 1582.34,951.736 1584.55,954.986 1586.76,958.194 1588.97,961.359 1591.17,964.482 1593.38,967.563 1595.59,970.604 1597.8,973.604 1600,976.565 1602.21,979.486 1604.42,982.369 1606.63,985.213 1608.83,988.019 1611.04,990.789 1613.25,993.521 1615.46,996.218 1617.66,998.878 1619.87,1001.5 1622.08,1004.09 1624.29,1006.65 1626.49,1009.17 1628.7,1011.66 1630.91,1014.12 1633.12,1016.54 1635.32,1018.93 1637.53,1021.29 1639.74,1023.62 1641.95,1025.92 1644.15,1028.19 1646.36,1030.42 1648.57,1032.63 1650.78,1034.81 1652.98,1036.96 1655.19,1039.08 1657.4,1041.17 1659.61,1043.23 1661.81,1045.27 1664.02,1047.28 1666.23,1049.27 1668.44,1051.22 1670.64,1053.16 1672.85,1055.06 1675.06,1056.94 1677.27,1058.8 1679.47,1060.63 1681.68,1062.44 1683.89,1064.22 1686.1,1065.98 1688.3,1067.67 1690.51,1067.63 1692.72,1065.25 1694.93,1060.81 1697.13,1054.58 1699.34,1046.79 1701.55,1037.68 1703.76,1027.47 1705.96,1016.36 1708.17,1004.53 1710.38,992.169 1712.59,979.427 1714.79,966.45 1717,953.37 1719.21,940.301 1721.42,927.344 1723.62,914.587 1725.83,902.1 1728.04,889.943 1730.25,878.157 1732.45,866.77 1734.66,855.798 1736.87,845.239 1739.07,835.077 1741.28,825.284 1743.49,815.814 1745.7,806.61 1747.9,797.597 1750.11,788.688 1752.32,779.78 1754.53,770.757 1756.73,761.681 1758.94,752.725 1761.15,743.888 1763.36,735.168 1765.56,726.564 1767.77,718.074 1769.98,709.697 1772.19,701.43 1774.39,693.273 1776.6,685.224 1778.81,677.282 1781.02,669.446 1783.22,661.713 1785.43,654.082 1787.64,646.553 1789.85,639.124 1792.05,631.793 1794.26,624.559 1796.47,617.421 1798.68,610.377 1800.88,603.427 1803.09,596.569 1805.3,589.802 1807.51,583.124 1809.71,576.535 1811.92,570.034 1814.13,563.619 1816.34,557.289 1818.54,551.042 1820.75,544.879 1822.96,538.798 1825.17,532.797 1827.37,526.876 1829.58,521.034 1831.79,515.269 1834,509.58 1836.2,503.967 1838.41,498.428 1840.62,492.963 1842.83,487.57 1845.03,482.249 1847.24,476.999 1849.45,471.818 1851.66,466.705 1853.86,461.661 1856.07,456.683 1858.28,451.771 1860.49,446.924 1862.69,442.142 1864.9,437.423 1867.11,432.766 1869.32,428.171 1871.52,423.637 1873.73,419.163 1875.94,414.749 1878.15,410.393 1880.35,406.094 1882.56,401.853 1884.77,397.668 1886.98,393.538 1889.18,389.463 1891.39,385.442 1893.6,381.475 1895.81,377.56 1898.01,373.697 1900.22,369.885 1902.43,366.124 1904.64,362.412 1906.84,358.75 1909.05,355.136 1911.26,351.791 1913.47,351.156 1915.67,353.435 1917.88,358.07 1920.09,364.552 1922.3,372.423 1924.5,381.275 1926.71,390.751 1928.92,400.542 1931.13,410.393 1933.33,420.097 1935.54,429.496 1937.75,438.486 1939.96,447.011 1942.16,455.064 1944.37,462.692 1946.58,469.989 1948.79,477.101 1950.99,484.224 1953.2,491.543 1955.41,498.83 1957.62,506.019 1959.82,513.114 1962.03,520.114 1964.24,527.021 1966.45,533.837 1968.65,540.563 1970.86,547.199 1973.07,553.748 1975.28,560.209 1977.48,566.585 1979.69,572.877 1981.9,579.085 1984.11,585.211 1986.31,591.256 1988.52,597.22 1990.73,603.105 1992.94,608.913 1995.14,614.643 1997.35,620.297 1999.56,625.877 2001.77,631.382 2003.97,636.814 2006.18,642.174 2008.39,647.463 2010.6,652.682 2012.8,657.832 2015.01,662.914 2017.22,667.928 2019.43,672.875 2021.63,677.757 2023.84,682.574 2026.05,687.328 2028.26,692.018 2030.46,696.646 2032.67,701.213 2034.88,705.72 2037.09,710.166 2039.29,714.554 2041.5,718.884 2043.71,723.156 2045.92,727.371 2048.12,731.531 2050.33,735.636 2052.54,739.686 2054.75,743.682 2056.95,747.626 2059.16,751.517 2061.37,755.356 2063.58,759.145 2065.78,762.883 2067.99,766.572 2070.2,770.212 2072.41,773.804 2074.61,777.348 2076.82,780.845 2079.03,784.295 2081.24,787.7 2083.44,791.06 2085.65,794.375 2087.86,797.647 2090.07,800.875 2092.27,804.06 2094.48,807.203 2096.69,810.304 2098.9,813.364 2101.1,816.384 2103.31,819.363 2105.52,822.303 2107.73,825.204 2109.93,828.067 2112.14,830.891 2114.35,833.679 2116.55,836.429 2118.76,839.143 2120.97,841.82 2123.18,844.463 2125.38,847.07 2127.59,848.884 2129.8,849.071 2132.01,847.825 2134.21,845.336 2136.42,841.78 2138.63,837.324 2140.84,832.122 2143.04,826.319 2145.25,820.047 2147.46,813.428 2149.67,806.573 2151.87,799.58 2154.08,792.538 2156.29,785.525 2158.5,778.606 2160.7,771.836 2162.91,765.26 2165.12,758.908 2167.33,752.805 2169.53,746.958 2171.74,741.369 2173.95,736.025 2176.16,730.903 2178.36,725.969 2180.57,721.179 2182.78,716.475 2184.99,711.79 2187.19,707.046 2189.4,702.204 2191.61,697.408 2193.82,692.676 2196.02,688.007 2198.23,683.4 2200.44,678.853 2202.65,674.367 2204.85,669.941 2207.06,665.573 2209.27,661.263 2211.48,657.01 2213.68,652.814 2215.89,648.673 2218.1,644.587 2220.31,640.556 2222.51,636.577 2224.72,632.652 2226.93,628.778 2229.14,624.956 2231.34,621.184 2233.55,617.463 2235.76,613.79 2237.97,610.167 2240.17,606.591 2242.38,603.063 2244.59,599.582 2246.8,596.147 2249,592.757 2251.21,589.413 2253.42,586.112 2255.63,582.856 2257.83,579.643 2260.04,576.472 2262.25,573.344 2264.46,570.257 2266.66,567.211 2268.87,564.205 2271.08,561.239 2273.29,558.313 2275.49,555.425 2277.7,552.576 2279.91,549.764 2282.12,546.99 2284.32,544.252 2286.53,541.551 2288.74,538.885 2290.95,536.255 2293.15,533.66 2295.36,531.099 2297.57,528.571 2299.78,526.078 2301.98,523.617 2304.19,521.19 2306.4,518.794 2308.61,516.43 2310.81,514.097 2313.02,511.796 2315.23,509.524 2317.44,507.283 2319.64,505.072 2321.85,502.89 2324.06,500.737 2326.27,498.613 2328.47,496.516 2330.68,494.448 2332.89,492.407 2335.1,490.393 2337.3,488.405 2339.51,486.444 2341.72,484.509 2343.93,482.6 2346.13,480.716 2348.34,478.857 2350.55,477.022 2352.76,475.212 "/>
<polyline clip-path="url(#clip701)" style="stroke:#e26f46; stroke-linecap:round; stroke-linejoin:round; stroke-width:4; stroke-opacity:1; fill:none" points="147.478,459.403 149.685,459.403 151.893,459.403 154.1,459.403 156.308,459.403 158.515,459.403 160.723,459.403 162.93,459.403 165.138,459.403 167.345,459.403 169.553,459.403 171.76,459.403 173.968,459.403 176.175,459.403 178.383,459.403 180.59,459.403 182.798,459.403 185.005,459.403 187.213,459.403 189.42,459.403 191.628,459.403 193.835,459.403 196.043,459.403 198.25,459.403 200.458,459.403 202.665,459.403 204.873,459.403 207.08,459.403 209.288,459.403 211.495,459.403 213.702,459.403 215.91,459.403 218.117,459.403 220.325,459.403 222.532,459.403 224.74,459.403 226.947,459.403 229.155,459.403 231.362,459.403 233.57,459.403 235.777,459.403 237.985,459.403 240.192,459.403 242.4,459.403 244.607,459.403 246.815,459.403 249.022,459.403 251.23,459.403 253.437,459.403 255.645,459.403 257.852,459.403 260.06,459.403 262.267,459.403 264.475,459.403 266.682,459.403 268.89,459.403 271.097,459.403 273.305,459.403 275.512,459.403 277.72,459.403 279.927,459.403 282.135,459.403 284.342,459.403 286.549,459.403 288.757,459.403 290.964,459.403 293.172,459.403 295.379,459.403 297.587,459.403 299.794,459.403 302.002,459.403 304.209,459.403 306.417,459.403 308.624,459.403 310.832,459.403 313.039,459.403 315.247,459.403 317.454,459.403 319.662,459.403 321.869,459.403 324.077,459.403 326.284,459.403 328.492,459.403 330.699,459.403 332.907,459.403 335.114,459.403 337.322,459.403 339.529,459.403 341.737,459.403 343.944,459.403 346.152,459.403 348.359,459.403 350.567,459.403 352.774,459.403 354.982,459.403 357.189,459.403 359.397,459.403 361.604,459.403 363.811,459.403 366.019,459.403 368.226,1384.24 370.434,1384.24 372.641,1384.24 374.849,1384.24 377.056,1384.24 379.264,1384.24 381.471,1384.24 383.679,1384.24 385.886,1384.24 388.094,1384.24 390.301,1384.24 392.509,1384.24 394.716,1384.24 396.924,1384.24 399.131,1384.24 401.339,1384.24 403.546,1384.24 405.754,1384.24 407.961,1384.24 410.169,1384.24 412.376,1384.24 414.584,1384.24 416.791,1384.24 418.999,1384.24 421.206,1384.24 423.414,1384.24 425.621,1384.24 427.829,1384.24 430.036,1384.24 432.244,1384.24 434.451,1384.24 436.659,1384.24 438.866,1384.24 441.073,1384.24 443.281,1384.24 445.488,1384.24 447.696,1384.24 449.903,1384.24 452.111,1384.24 454.318,1384.24 456.526,1384.24 458.733,1384.24 460.941,1384.24 463.148,1384.24 465.356,1384.24 467.563,1384.24 469.771,1384.24 471.978,1384.24 474.186,1384.24 476.393,1384.24 478.601,1384.24 480.808,1384.24 483.016,1384.24 485.223,1384.24 487.431,1384.24 489.638,1384.24 491.846,1384.24 494.053,1384.24 496.261,1384.24 498.468,1384.24 500.676,1384.24 502.883,1384.24 505.091,1384.24 507.298,1384.24 509.506,1384.24 511.713,1384.24 513.921,1384.24 516.128,1384.24 518.335,1384.24 520.543,1384.24 522.75,1384.24 524.958,1384.24 527.165,1384.24 529.373,1384.24 531.58,1384.24 533.788,1384.24 535.995,1384.24 538.203,1384.24 540.41,1384.24 542.618,1384.24 544.825,1384.24 547.033,1384.24 549.24,1384.24 551.448,1384.24 553.655,1384.24 555.863,1384.24 558.07,1384.24 560.278,1384.24 562.485,1384.24 564.693,1384.24 566.9,1384.24 569.108,1384.24 571.315,1384.24 573.523,1384.24 575.73,1384.24 577.938,1384.24 580.145,1384.24 582.353,1384.24 584.56,1384.24 586.768,1384.24 588.975,456.014 591.182,456.014 593.39,456.014 595.597,456.014 597.805,456.014 600.012,456.014 602.22,456.014 604.427,456.014 606.635,456.014 608.842,456.014 611.05,456.014 613.257,456.014 615.465,456.014 617.672,456.014 619.88,456.014 622.087,456.014 624.295,456.014 626.502,456.014 628.71,456.014 630.917,456.014 633.125,456.014 635.332,456.014 637.54,456.014 639.747,456.014 641.955,456.014 644.162,456.014 646.37,456.014 648.577,456.014 650.785,456.014 652.992,456.014 655.2,456.014 657.407,456.014 659.615,456.014 661.822,456.014 664.03,456.014 666.237,456.014 668.444,456.014 670.652,456.014 672.859,456.014 675.067,456.014 677.274,456.014 679.482,456.014 681.689,456.014 683.897,456.014 686.104,456.014 688.312,456.014 690.519,456.014 692.727,456.014 694.934,456.014 697.142,456.014 699.349,456.014 701.557,456.014 703.764,456.014 705.972,456.014 708.179,456.014 710.387,456.014 712.594,456.014 714.802,456.014 717.009,456.014 719.217,456.014 721.424,456.014 723.632,456.014 725.839,456.014 728.047,456.014 730.254,456.014 732.462,456.014 734.669,456.014 736.877,456.014 739.084,456.014 741.292,456.014 743.499,456.014 745.706,456.014 747.914,456.014 750.121,456.014 752.329,456.014 754.536,456.014 756.744,456.014 758.951,456.014 761.159,456.014 763.366,456.014 765.574,456.014 767.781,456.014 769.989,456.014 772.196,456.014 774.404,456.014 776.611,456.014 778.819,456.014 781.026,456.014 783.234,456.014 785.441,456.014 787.649,456.014 789.856,456.014 792.064,456.014 794.271,456.014 796.479,456.014 798.686,456.014 800.894,456.014 803.101,456.014 805.309,456.014 807.516,456.014 809.724,846.105 811.931,846.105 814.139,846.105 816.346,846.105 818.553,846.105 820.761,846.105 822.968,846.105 825.176,846.105 827.383,846.105 829.591,846.105 831.798,846.105 834.006,846.105 836.213,846.105 838.421,846.105 840.628,846.105 842.836,846.105 845.043,846.105 847.251,846.105 849.458,846.105 851.666,846.105 853.873,846.105 856.081,846.105 858.288,846.105 860.496,846.105 862.703,846.105 864.911,846.105 867.118,846.105 869.326,846.105 871.533,846.105 873.741,846.105 875.948,846.105 878.156,846.105 880.363,846.105 882.571,846.105 884.778,846.105 886.986,846.105 889.193,846.105 891.401,846.105 893.608,846.105 895.815,846.105 898.023,846.105 900.23,846.105 902.438,846.105 904.645,846.105 906.853,846.105 909.06,846.105 911.268,846.105 913.475,846.105 915.683,846.105 917.89,846.105 920.098,846.105 922.305,846.105 924.513,846.105 926.72,846.105 928.928,846.105 931.135,846.105 933.343,846.105 935.55,846.105 937.758,846.105 939.965,846.105 942.173,846.105 944.38,846.105 946.588,846.105 948.795,846.105 951.003,846.105 953.21,846.105 955.418,846.105 957.625,846.105 959.833,846.105 962.04,846.105 964.248,846.105 966.455,846.105 968.663,846.105 970.87,846.105 973.077,846.105 975.285,846.105 977.492,846.105 979.7,846.105 981.907,846.105 984.115,846.105 986.322,846.105 988.53,846.105 990.737,846.105 992.945,846.105 995.152,846.105 997.36,846.105 999.567,846.105 1001.77,846.105 1003.98,846.105 1006.19,846.105 1008.4,846.105 1010.6,846.105 1012.81,846.105 1015.02,846.105 1017.23,846.105 1019.43,846.105 1021.64,846.105 1023.85,846.105 1026.06,846.105 1028.26,846.105 1030.47,575.879 1032.68,575.879 1034.89,575.879 1037.09,575.879 1039.3,575.879 1041.51,575.879 1043.72,575.879 1045.92,575.879 1048.13,575.879 1050.34,575.879 1052.55,575.879 1054.75,575.879 1056.96,575.879 1059.17,575.879 1061.38,575.879 1063.58,575.879 1065.79,575.879 1068,575.879 1070.21,575.879 1072.41,575.879 1074.62,575.879 1076.83,575.879 1079.04,575.879 1081.24,575.879 1083.45,575.879 1085.66,575.879 1087.87,575.879 1090.07,575.879 1092.28,575.879 1094.49,575.879 1096.7,575.879 1098.9,575.879 1101.11,575.879 1103.32,575.879 1105.53,575.879 1107.73,575.879 1109.94,575.879 1112.15,575.879 1114.36,575.879 1116.56,575.879 1118.77,575.879 1120.98,575.879 1123.19,575.879 1125.39,575.879 1127.6,575.879 1129.81,575.879 1132.02,575.879 1134.22,575.879 1136.43,575.879 1138.64,575.879 1140.85,575.879 1143.05,575.879 1145.26,575.879 1147.47,575.879 1149.68,575.879 1151.88,575.879 1154.09,575.879 1156.3,575.879 1158.51,575.879 1160.71,575.879 1162.92,575.879 1165.13,575.879 1167.34,575.879 1169.54,575.879 1171.75,575.879 1173.96,575.879 1176.17,575.879 1178.37,575.879 1180.58,575.879 1182.79,575.879 1185,575.879 1187.2,575.879 1189.41,575.879 1191.62,575.879 1193.83,575.879 1196.03,575.879 1198.24,575.879 1200.45,575.879 1202.66,575.879 1204.86,575.879 1207.07,575.879 1209.28,575.879 1211.49,575.879 1213.69,575.879 1215.9,575.879 1218.11,575.879 1220.32,575.879 1222.52,575.879 1224.73,575.879 1226.94,575.879 1229.15,575.879 1231.35,575.879 1233.56,575.879 1235.77,575.879 1237.98,575.879 1240.18,575.879 1242.39,575.879 1244.6,575.879 1246.81,575.879 1249.01,575.879 1251.22,749.516 1253.43,749.516 1255.64,749.516 1257.84,749.516 1260.05,749.516 1262.26,749.516 1264.47,749.516 1266.67,749.516 1268.88,749.516 1271.09,749.516 1273.3,749.516 1275.5,749.516 1277.71,749.516 1279.92,749.516 1282.13,749.516 1284.33,749.516 1286.54,749.516 1288.75,749.516 1290.96,749.516 1293.16,749.516 1295.37,749.516 1297.58,749.516 1299.79,749.516 1301.99,749.516 1304.2,749.516 1306.41,749.516 1308.62,749.516 1310.82,749.516 1313.03,749.516 1315.24,749.516 1317.45,749.516 1319.65,749.516 1321.86,749.516 1324.07,749.516 1326.28,749.516 1328.48,749.516 1330.69,749.516 1332.9,749.516 1335.11,749.516 1337.31,749.516 1339.52,749.516 1341.73,749.516 1343.94,749.516 1346.14,749.516 1348.35,749.516 1350.56,749.516 1352.76,749.516 1354.97,749.516 1357.18,749.516 1359.39,749.516 1361.59,749.516 1363.8,749.516 1366.01,749.516 1368.22,749.516 1370.42,749.516 1372.63,749.516 1374.84,749.516 1377.05,749.516 1379.25,749.516 1381.46,749.516 1383.67,749.516 1385.88,749.516 1388.08,749.516 1390.29,749.516 1392.5,749.516 1394.71,749.516 1396.91,749.516 1399.12,749.516 1401.33,749.516 1403.54,749.516 1405.74,749.516 1407.95,749.516 1410.16,749.516 1412.37,749.516 1414.57,749.516 1416.78,749.516 1418.99,749.516 1421.2,749.516 1423.4,749.516 1425.61,749.516 1427.82,749.516 1430.03,749.516 1432.23,749.516 1434.44,749.516 1436.65,749.516 1438.86,749.516 1441.06,749.516 1443.27,749.516 1445.48,749.516 1447.69,749.516 1449.89,749.516 1452.1,749.516 1454.31,749.516 1456.52,749.516 1458.72,749.516 1460.93,749.516 1463.14,749.516 1465.35,749.516 1467.55,749.516 1469.76,749.516 1471.97,1196.91 1474.18,1196.91 1476.38,1196.91 1478.59,1196.91 1480.8,1196.91 1483.01,1196.91 1485.21,1196.91 1487.42,1196.91 1489.63,1196.91 1491.84,1196.91 1494.04,1196.91 1496.25,1196.91 1498.46,1196.91 1500.67,1196.91 1502.87,1196.91 1505.08,1196.91 1507.29,1196.91 1509.5,1196.91 1511.7,1196.91 1513.91,1196.91 1516.12,1196.91 1518.33,1196.91 1520.53,1196.91 1522.74,1196.91 1524.95,1196.91 1527.16,1196.91 1529.36,1196.91 1531.57,1196.91 1533.78,1196.91 1535.99,1196.91 1538.19,1196.91 1540.4,1196.91 1542.61,1196.91 1544.82,1196.91 1547.02,1196.91 1549.23,1196.91 1551.44,1196.91 1553.65,1196.91 1555.85,1196.91 1558.06,1196.91 1560.27,1196.91 1562.48,1196.91 1564.68,1196.91 1566.89,1196.91 1569.1,1196.91 1571.31,1196.91 1573.51,1196.91 1575.72,1196.91 1577.93,1196.91 1580.14,1196.91 1582.34,1196.91 1584.55,1196.91 1586.76,1196.91 1588.97,1196.91 1591.17,1196.91 1593.38,1196.91 1595.59,1196.91 1597.8,1196.91 1600,1196.91 1602.21,1196.91 1604.42,1196.91 1606.63,1196.91 1608.83,1196.91 1611.04,1196.91 1613.25,1196.91 1615.46,1196.91 1617.66,1196.91 1619.87,1196.91 1622.08,1196.91 1624.29,1196.91 1626.49,1196.91 1628.7,1196.91 1630.91,1196.91 1633.12,1196.91 1635.32,1196.91 1637.53,1196.91 1639.74,1196.91 1641.95,1196.91 1644.15,1196.91 1646.36,1196.91 1648.57,1196.91 1650.78,1196.91 1652.98,1196.91 1655.19,1196.91 1657.4,1196.91 1659.61,1196.91 1661.81,1196.91 1664.02,1196.91 1666.23,1196.91 1668.44,1196.91 1670.64,1196.91 1672.85,1196.91 1675.06,1196.91 1677.27,1196.91 1679.47,1196.91 1681.68,1196.91 1683.89,1196.91 1686.1,1196.91 1688.3,1196.91 1690.51,1196.91 1692.72,86.1857 1694.93,86.1857 1697.13,86.1857 1699.34,86.1857 1701.55,86.1857 1703.76,86.1857 1705.96,86.1857 1708.17,86.1857 1710.38,86.1857 1712.59,86.1857 1714.79,86.1857 1717,86.1857 1719.21,86.1857 1721.42,86.1857 1723.62,86.1857 1725.83,86.1857 1728.04,86.1857 1730.25,86.1857 1732.45,86.1857 1734.66,86.1857 1736.87,86.1857 1739.07,86.1857 1741.28,86.1857 1743.49,86.1857 1745.7,86.1857 1747.9,86.1857 1750.11,86.1857 1752.32,86.1857 1754.53,86.1857 1756.73,86.1857 1758.94,86.1857 1761.15,86.1857 1763.36,86.1857 1765.56,86.1857 1767.77,86.1857 1769.98,86.1857 1772.19,86.1857 1774.39,86.1857 1776.6,86.1857 1778.81,86.1857 1781.02,86.1857 1783.22,86.1857 1785.43,86.1857 1787.64,86.1857 1789.85,86.1857 1792.05,86.1857 1794.26,86.1857 1796.47,86.1857 1798.68,86.1857 1800.88,86.1857 1803.09,86.1857 1805.3,86.1857 1807.51,86.1857 1809.71,86.1857 1811.92,86.1857 1814.13,86.1857 1816.34,86.1857 1818.54,86.1857 1820.75,86.1857 1822.96,86.1857 1825.17,86.1857 1827.37,86.1857 1829.58,86.1857 1831.79,86.1857 1834,86.1857 1836.2,86.1857 1838.41,86.1857 1840.62,86.1857 1842.83,86.1857 1845.03,86.1857 1847.24,86.1857 1849.45,86.1857 1851.66,86.1857 1853.86,86.1857 1856.07,86.1857 1858.28,86.1857 1860.49,86.1857 1862.69,86.1857 1864.9,86.1857 1867.11,86.1857 1869.32,86.1857 1871.52,86.1857 1873.73,86.1857 1875.94,86.1857 1878.15,86.1857 1880.35,86.1857 1882.56,86.1857 1884.77,86.1857 1886.98,86.1857 1889.18,86.1857 1891.39,86.1857 1893.6,86.1857 1895.81,86.1857 1898.01,86.1857 1900.22,86.1857 1902.43,86.1857 1904.64,86.1857 1906.84,86.1857 1909.05,86.1857 1911.26,86.1857 1913.47,1041.12 1915.67,1041.12 1917.88,1041.12 1920.09,1041.12 1922.3,1041.12 1924.5,1041.12 1926.71,1041.12 1928.92,1041.12 1931.13,1041.12 1933.33,1041.12 1935.54,1041.12 1937.75,1041.12 1939.96,1041.12 1942.16,1041.12 1944.37,1041.12 1946.58,1041.12 1948.79,1041.12 1950.99,1041.12 1953.2,1041.12 1955.41,1041.12 1957.62,1041.12 1959.82,1041.12 1962.03,1041.12 1964.24,1041.12 1966.45,1041.12 1968.65,1041.12 1970.86,1041.12 1973.07,1041.12 1975.28,1041.12 1977.48,1041.12 1979.69,1041.12 1981.9,1041.12 1984.11,1041.12 1986.31,1041.12 1988.52,1041.12 1990.73,1041.12 1992.94,1041.12 1995.14,1041.12 1997.35,1041.12 1999.56,1041.12 2001.77,1041.12 2003.97,1041.12 2006.18,1041.12 2008.39,1041.12 2010.6,1041.12 2012.8,1041.12 2015.01,1041.12 2017.22,1041.12 2019.43,1041.12 2021.63,1041.12 2023.84,1041.12 2026.05,1041.12 2028.26,1041.12 2030.46,1041.12 2032.67,1041.12 2034.88,1041.12 2037.09,1041.12 2039.29,1041.12 2041.5,1041.12 2043.71,1041.12 2045.92,1041.12 2048.12,1041.12 2050.33,1041.12 2052.54,1041.12 2054.75,1041.12 2056.95,1041.12 2059.16,1041.12 2061.37,1041.12 2063.58,1041.12 2065.78,1041.12 2067.99,1041.12 2070.2,1041.12 2072.41,1041.12 2074.61,1041.12 2076.82,1041.12 2079.03,1041.12 2081.24,1041.12 2083.44,1041.12 2085.65,1041.12 2087.86,1041.12 2090.07,1041.12 2092.27,1041.12 2094.48,1041.12 2096.69,1041.12 2098.9,1041.12 2101.1,1041.12 2103.31,1041.12 2105.52,1041.12 2107.73,1041.12 2109.93,1041.12 2112.14,1041.12 2114.35,1041.12 2116.55,1041.12 2118.76,1041.12 2120.97,1041.12 2123.18,1041.12 2125.38,1041.12 2127.59,1041.12 2129.8,1041.12 2132.01,1041.12 2134.21,340.493 2136.42,340.493 2138.63,340.493 2140.84,340.493 2143.04,340.493 2145.25,340.493 2147.46,340.493 2149.67,340.493 2151.87,340.493 2154.08,340.493 2156.29,340.493 2158.5,340.493 2160.7,340.493 2162.91,340.493 2165.12,340.493 2167.33,340.493 2169.53,340.493 2171.74,340.493 2173.95,340.493 2176.16,340.493 2178.36,340.493 2180.57,340.493 2182.78,340.493 2184.99,340.493 2187.19,340.493 2189.4,340.493 2191.61,340.493 2193.82,340.493 2196.02,340.493 2198.23,340.493 2200.44,340.493 2202.65,340.493 2204.85,340.493 2207.06,340.493 2209.27,340.493 2211.48,340.493 2213.68,340.493 2215.89,340.493 2218.1,340.493 2220.31,340.493 2222.51,340.493 2224.72,340.493 2226.93,340.493 2229.14,340.493 2231.34,340.493 2233.55,340.493 2235.76,340.493 2237.97,340.493 2240.17,340.493 2242.38,340.493 2244.59,340.493 2246.8,340.493 2249,340.493 2251.21,340.493 2253.42,340.493 2255.63,340.493 2257.83,340.493 2260.04,340.493 2262.25,340.493 2264.46,340.493 2266.66,340.493 2268.87,340.493 2271.08,340.493 2273.29,340.493 2275.49,340.493 2277.7,340.493 2279.91,340.493 2282.12,340.493 2284.32,340.493 2286.53,340.493 2288.74,340.493 2290.95,340.493 2293.15,340.493 2295.36,340.493 2297.57,340.493 2299.78,340.493 2301.98,340.493 2304.19,340.493 2306.4,340.493 2308.61,340.493 2310.81,340.493 2313.02,340.493 2315.23,340.493 2317.44,340.493 2319.64,340.493 2321.85,340.493 2324.06,340.493 2326.27,340.493 2328.47,340.493 2330.68,340.493 2332.89,340.493 2335.1,340.493 2337.3,340.493 2339.51,340.493 2341.72,340.493 2343.93,340.493 2346.13,340.493 2348.34,340.493 2350.55,340.493 2352.76,340.493 "/>
<path clip-path="url(#clip700)" d="M220.987 248.629 L466.654 248.629 L466.654 93.1086 L220.987 93.1086  Z" fill="#ffffff" fill-rule="evenodd" fill-opacity="1"/>
<polyline clip-path="url(#clip700)" style="stroke:#000000; stroke-linecap:round; stroke-linejoin:round; stroke-width:4; stroke-opacity:1; fill:none" points="220.987,248.629 466.654,248.629 466.654,93.1086 220.987,93.1086 220.987,248.629 "/>
<polyline clip-path="url(#clip700)" style="stroke:#009af9; stroke-linecap:round; stroke-linejoin:round; stroke-width:4; stroke-opacity:1; fill:none" points="245.49,144.949 392.509,144.949 "/>
<path clip-path="url(#clip700)" d="M441.665 136.303 L432.29 148.919 L442.151 162.229 L437.128 162.229 L429.581 152.043 L422.035 162.229 L417.012 162.229 L427.081 148.664 L417.868 136.303 L422.891 136.303 L429.766 145.539 L436.641 136.303 L441.665 136.303 Z" fill="#000000" fill-rule="nonzero" fill-opacity="1" /><polyline clip-path="url(#clip700)" style="stroke:#e26f46; stroke-linecap:round; stroke-linejoin:round; stroke-width:4; stroke-opacity:1; fill:none" points="245.49,196.789 392.509,196.789 "/>
<path clip-path="url(#clip700)" d="M433.516 178.05 L433.516 181.592 L429.442 181.592 Q427.151 181.592 426.248 182.518 Q425.368 183.444 425.368 185.851 L425.368 188.143 L432.382 188.143 L432.382 191.453 L425.368 191.453 L425.368 214.069 L421.086 214.069 L421.086 191.453 L417.012 191.453 L417.012 188.143 L421.086 188.143 L421.086 186.337 Q421.086 182.009 423.1 180.041 Q425.114 178.05 429.489 178.05 L433.516 178.05 Z" fill="#000000" fill-rule="nonzero" fill-opacity="1" /></svg>
