<?xml version="1.0" encoding="utf-8"?>
<svg xmlns="http://www.w3.org/2000/svg" xmlns:xlink="http://www.w3.org/1999/xlink" width="600" height="400" viewBox="0 0 2400 1600">
<defs>
  <clipPath id="clip530">
    <rect x="0" y="0" width="2400" height="1600"/>
  </clipPath>
</defs>
<path clip-path="url(#clip530)" d="M0 1600 L2400 1600 L2400 0 L0 0  Z" fill="#ffffff" fill-rule="evenodd" fill-opacity="1"/>
<defs>
  <clipPath id="clip531">
    <rect x="480" y="0" width="1681" height="1600"/>
  </clipPath>
</defs>
<path clip-path="url(#clip530)" d="M193.936 1423.18 L2352.76 1423.18 L2352.76 47.2441 L193.936 47.2441  Z" fill="#ffffff" fill-rule="evenodd" fill-opacity="1"/>
<defs>
  <clipPath id="clip532">
    <rect x="193" y="47" width="2160" height="1377"/>
  </clipPath>
</defs>
<polyline clip-path="url(#clip532)" style="stroke:#000000; stroke-linecap:round; stroke-linejoin:round; stroke-width:2; stroke-opacity:0.1; fill:none" points="193.936,1423.18 193.936,47.2441 "/>
<polyline clip-path="url(#clip532)" style="stroke:#000000; stroke-linecap:round; stroke-linejoin:round; stroke-width:2; stroke-opacity:0.1; fill:none" points="625.7,1423.18 625.7,47.2441 "/>
<polyline clip-path="url(#clip532)" style="stroke:#000000; stroke-linecap:round; stroke-linejoin:round; stroke-width:2; stroke-opacity:0.1; fill:none" points="1057.46,1423.18 1057.46,47.2441 "/>
<polyline clip-path="url(#clip532)" style="stroke:#000000; stroke-linecap:round; stroke-linejoin:round; stroke-width:2; stroke-opacity:0.1; fill:none" points="1489.23,1423.18 1489.23,47.2441 "/>
<polyline clip-path="url(#clip532)" style="stroke:#000000; stroke-linecap:round; stroke-linejoin:round; stroke-width:2; stroke-opacity:0.1; fill:none" points="1920.99,1423.18 1920.99,47.2441 "/>
<polyline clip-path="url(#clip532)" style="stroke:#000000; stroke-linecap:round; stroke-linejoin:round; stroke-width:2; stroke-opacity:0.1; fill:none" points="2352.76,1423.18 2352.76,47.2441 "/>
<polyline clip-path="url(#clip530)" style="stroke:#000000; stroke-linecap:round; stroke-linejoin:round; stroke-width:4; stroke-opacity:1; fill:none" points="193.936,1423.18 2352.76,1423.18 "/>
<polyline clip-path="url(#clip530)" style="stroke:#000000; stroke-linecap:round; stroke-linejoin:round; stroke-width:4; stroke-opacity:1; fill:none" points="193.936,1423.18 193.936,1404.28 "/>
<polyline clip-path="url(#clip530)" style="stroke:#000000; stroke-linecap:round; stroke-linejoin:round; stroke-width:4; stroke-opacity:1; fill:none" points="625.7,1423.18 625.7,1404.28 "/>
<polyline clip-path="url(#clip530)" style="stroke:#000000; stroke-linecap:round; stroke-linejoin:round; stroke-width:4; stroke-opacity:1; fill:none" points="1057.46,1423.18 1057.46,1404.28 "/>
<polyline clip-path="url(#clip530)" style="stroke:#000000; stroke-linecap:round; stroke-linejoin:round; stroke-width:4; stroke-opacity:1; fill:none" points="1489.23,1423.18 1489.23,1404.28 "/>
<polyline clip-path="url(#clip530)" style="stroke:#000000; stroke-linecap:round; stroke-linejoin:round; stroke-width:4; stroke-opacity:1; fill:none" points="1920.99,1423.18 1920.99,1404.28 "/>
<polyline clip-path="url(#clip530)" style="stroke:#000000; stroke-linecap:round; stroke-linejoin:round; stroke-width:4; stroke-opacity:1; fill:none" points="2352.76,1423.18 2352.76,1404.28 "/>
<path clip-path="url(#clip530)" d="M193.936 1454.1 Q190.325 1454.1 188.496 1457.66 Q186.691 1461.2 186.691 1468.33 Q186.691 1475.44 188.496 1479.01 Q190.325 1482.55 193.936 1482.55 Q197.57 1482.55 199.376 1479.01 Q201.204 1475.44 201.204 1468.33 Q201.204 1461.2 199.376 1457.66 Q197.57 1454.1 193.936 1454.1 M193.936 1450.39 Q199.746 1450.39 202.802 1455 Q205.88 1459.58 205.88 1468.33 Q205.88 1477.06 202.802 1481.67 Q199.746 1486.25 193.936 1486.25 Q188.126 1486.25 185.047 1481.67 Q181.992 1477.06 181.992 1468.33 Q181.992 1459.58 185.047 1455 Q188.126 1450.39 193.936 1450.39 Z" fill="#000000" fill-rule="nonzero" fill-opacity="1" /><path clip-path="url(#clip530)" d="M620.353 1481.64 L636.672 1481.64 L636.672 1485.58 L614.728 1485.58 L614.728 1481.64 Q617.39 1478.89 621.973 1474.26 Q626.58 1469.61 627.76 1468.27 Q630.006 1465.74 630.885 1464.01 Q631.788 1462.25 631.788 1460.56 Q631.788 1457.8 629.843 1456.07 Q627.922 1454.33 624.82 1454.33 Q622.621 1454.33 620.168 1455.09 Q617.737 1455.86 614.959 1457.41 L614.959 1452.69 Q617.783 1451.55 620.237 1450.97 Q622.691 1450.39 624.728 1450.39 Q630.098 1450.39 633.293 1453.08 Q636.487 1455.77 636.487 1460.26 Q636.487 1462.39 635.677 1464.31 Q634.89 1466.2 632.783 1468.8 Q632.205 1469.47 629.103 1472.69 Q626.001 1475.88 620.353 1481.64 Z" fill="#000000" fill-rule="nonzero" fill-opacity="1" /><path clip-path="url(#clip530)" d="M1060.47 1455.09 L1048.67 1473.54 L1060.47 1473.54 L1060.47 1455.09 M1059.25 1451.02 L1065.13 1451.02 L1065.13 1473.54 L1070.06 1473.54 L1070.06 1477.43 L1065.13 1477.43 L1065.13 1485.58 L1060.47 1485.58 L1060.47 1477.43 L1044.87 1477.43 L1044.87 1472.92 L1059.25 1451.02 Z" fill="#000000" fill-rule="nonzero" fill-opacity="1" /><path clip-path="url(#clip530)" d="M1489.63 1466.44 Q1486.48 1466.44 1484.63 1468.59 Q1482.8 1470.74 1482.8 1474.49 Q1482.8 1478.22 1484.63 1480.39 Q1486.48 1482.55 1489.63 1482.55 Q1492.78 1482.55 1494.61 1480.39 Q1496.46 1478.22 1496.46 1474.49 Q1496.46 1470.74 1494.61 1468.59 Q1492.78 1466.44 1489.63 1466.44 M1498.92 1451.78 L1498.92 1456.04 Q1497.16 1455.21 1495.35 1454.77 Q1493.57 1454.33 1491.81 1454.33 Q1487.18 1454.33 1484.73 1457.45 Q1482.3 1460.58 1481.95 1466.9 Q1483.31 1464.89 1485.37 1463.82 Q1487.43 1462.73 1489.91 1462.73 Q1495.12 1462.73 1498.13 1465.9 Q1501.16 1469.05 1501.16 1474.49 Q1501.16 1479.82 1498.01 1483.03 Q1494.86 1486.25 1489.63 1486.25 Q1483.64 1486.25 1480.47 1481.67 Q1477.3 1477.06 1477.3 1468.33 Q1477.3 1460.14 1481.18 1455.28 Q1485.07 1450.39 1491.62 1450.39 Q1493.38 1450.39 1495.17 1450.74 Q1496.97 1451.09 1498.92 1451.78 Z" fill="#000000" fill-rule="nonzero" fill-opacity="1" /><path clip-path="url(#clip530)" d="M1920.99 1469.17 Q1917.66 1469.17 1915.74 1470.95 Q1913.84 1472.73 1913.84 1475.86 Q1913.84 1478.98 1915.74 1480.77 Q1917.66 1482.55 1920.99 1482.55 Q1924.33 1482.55 1926.25 1480.77 Q1928.17 1478.96 1928.17 1475.86 Q1928.17 1472.73 1926.25 1470.95 Q1924.35 1469.17 1920.99 1469.17 M1916.32 1467.18 Q1913.31 1466.44 1911.62 1464.38 Q1909.95 1462.32 1909.95 1459.35 Q1909.95 1455.21 1912.89 1452.8 Q1915.85 1450.39 1920.99 1450.39 Q1926.15 1450.39 1929.09 1452.8 Q1932.03 1455.21 1932.03 1459.35 Q1932.03 1462.32 1930.34 1464.38 Q1928.68 1466.44 1925.69 1467.18 Q1929.07 1467.96 1930.95 1470.26 Q1932.84 1472.55 1932.84 1475.86 Q1932.84 1480.88 1929.77 1483.57 Q1926.71 1486.25 1920.99 1486.25 Q1915.27 1486.25 1912.2 1483.57 Q1909.14 1480.88 1909.14 1475.86 Q1909.14 1472.55 1911.04 1470.26 Q1912.94 1467.96 1916.32 1467.18 M1914.6 1459.79 Q1914.6 1462.48 1916.27 1463.98 Q1917.96 1465.49 1920.99 1465.49 Q1924 1465.49 1925.69 1463.98 Q1927.4 1462.48 1927.4 1459.79 Q1927.4 1457.11 1925.69 1455.6 Q1924 1454.1 1920.99 1454.1 Q1917.96 1454.1 1916.27 1455.6 Q1914.6 1457.11 1914.6 1459.79 Z" fill="#000000" fill-rule="nonzero" fill-opacity="1" /><path clip-path="url(#clip530)" d="M2327.44 1481.64 L2335.08 1481.64 L2335.08 1455.28 L2326.77 1456.95 L2326.77 1452.69 L2335.04 1451.02 L2339.71 1451.02 L2339.71 1481.64 L2347.35 1481.64 L2347.35 1485.58 L2327.44 1485.58 L2327.44 1481.64 Z" fill="#000000" fill-rule="nonzero" fill-opacity="1" /><path clip-path="url(#clip530)" d="M2366.8 1454.1 Q2363.18 1454.1 2361.36 1457.66 Q2359.55 1461.2 2359.55 1468.33 Q2359.55 1475.44 2361.36 1479.01 Q2363.18 1482.55 2366.8 1482.55 Q2370.43 1482.55 2372.23 1479.01 Q2374.06 1475.44 2374.06 1468.33 Q2374.06 1461.2 2372.23 1457.66 Q2370.43 1454.1 2366.8 1454.1 M2366.8 1450.39 Q2372.61 1450.39 2375.66 1455 Q2378.74 1459.58 2378.74 1468.33 Q2378.74 1477.06 2375.66 1481.67 Q2372.61 1486.25 2366.8 1486.25 Q2360.99 1486.25 2357.91 1481.67 Q2354.85 1477.06 2354.85 1468.33 Q2354.85 1459.58 2357.91 1455 Q2360.99 1450.39 2366.8 1450.39 Z" fill="#000000" fill-rule="nonzero" fill-opacity="1" /><path clip-path="url(#clip530)" d="M1272.41 1522.27 L1272.41 1532.4 L1284.47 1532.4 L1284.47 1536.95 L1272.41 1536.95 L1272.41 1556.3 Q1272.41 1560.66 1273.58 1561.9 Q1274.79 1563.14 1278.45 1563.14 L1284.47 1563.14 L1284.47 1568.04 L1278.45 1568.04 Q1271.67 1568.04 1269.1 1565.53 Q1266.52 1562.98 1266.52 1556.3 L1266.52 1536.95 L1262.22 1536.95 L1262.22 1532.4 L1266.52 1532.4 L1266.52 1522.27 L1272.41 1522.27 Z" fill="#000000" fill-rule="nonzero" fill-opacity="1" /><polyline clip-path="url(#clip532)" style="stroke:#000000; stroke-linecap:round; stroke-linejoin:round; stroke-width:2; stroke-opacity:0.1; fill:none" points="193.936,1184.67 2352.76,1184.67 "/>
<polyline clip-path="url(#clip532)" style="stroke:#000000; stroke-linecap:round; stroke-linejoin:round; stroke-width:2; stroke-opacity:0.1; fill:none" points="193.936,935.015 2352.76,935.015 "/>
<polyline clip-path="url(#clip532)" style="stroke:#000000; stroke-linecap:round; stroke-linejoin:round; stroke-width:2; stroke-opacity:0.1; fill:none" points="193.936,685.363 2352.76,685.363 "/>
<polyline clip-path="url(#clip532)" style="stroke:#000000; stroke-linecap:round; stroke-linejoin:round; stroke-width:2; stroke-opacity:0.1; fill:none" points="193.936,435.712 2352.76,435.712 "/>
<polyline clip-path="url(#clip532)" style="stroke:#000000; stroke-linecap:round; stroke-linejoin:round; stroke-width:2; stroke-opacity:0.1; fill:none" points="193.936,186.061 2352.76,186.061 "/>
<polyline clip-path="url(#clip530)" style="stroke:#000000; stroke-linecap:round; stroke-linejoin:round; stroke-width:4; stroke-opacity:1; fill:none" points="193.936,1423.18 193.936,47.2441 "/>
<polyline clip-path="url(#clip530)" style="stroke:#000000; stroke-linecap:round; stroke-linejoin:round; stroke-width:4; stroke-opacity:1; fill:none" points="193.936,1184.67 212.834,1184.67 "/>
<polyline clip-path="url(#clip530)" style="stroke:#000000; stroke-linecap:round; stroke-linejoin:round; stroke-width:4; stroke-opacity:1; fill:none" points="193.936,935.015 212.834,935.015 "/>
<polyline clip-path="url(#clip530)" style="stroke:#000000; stroke-linecap:round; stroke-linejoin:round; stroke-width:4; stroke-opacity:1; fill:none" points="193.936,685.363 212.834,685.363 "/>
<polyline clip-path="url(#clip530)" style="stroke:#000000; stroke-linecap:round; stroke-linejoin:round; stroke-width:4; stroke-opacity:1; fill:none" points="193.936,435.712 212.834,435.712 "/>
<polyline clip-path="url(#clip530)" style="stroke:#000000; stroke-linecap:round; stroke-linejoin:round; stroke-width:4; stroke-opacity:1; fill:none" points="193.936,186.061 212.834,186.061 "/>
<path clip-path="url(#clip530)" d="M51.9875 1185.12 L81.6633 1185.12 L81.6633 1189.05 L51.9875 1189.05 L51.9875 1185.12 Z" fill="#000000" fill-rule="nonzero" fill-opacity="1" /><path clip-path="url(#clip530)" d="M92.566 1198.01 L100.205 1198.01 L100.205 1171.65 L91.8947 1173.31 L91.8947 1169.05 L100.159 1167.39 L104.834 1167.39 L104.834 1198.01 L112.473 1198.01 L112.473 1201.95 L92.566 1201.95 L92.566 1198.01 Z" fill="#000000" fill-rule="nonzero" fill-opacity="1" /><path clip-path="url(#clip530)" d="M121.918 1196.07 L126.802 1196.07 L126.802 1201.95 L121.918 1201.95 L121.918 1196.07 Z" fill="#000000" fill-rule="nonzero" fill-opacity="1" /><path clip-path="url(#clip530)" d="M137.033 1167.39 L155.39 1167.39 L155.39 1171.32 L141.316 1171.32 L141.316 1179.79 Q142.334 1179.45 143.353 1179.28 Q144.371 1179.1 145.39 1179.1 Q151.177 1179.1 154.556 1182.27 Q157.936 1185.44 157.936 1190.86 Q157.936 1196.44 154.464 1199.54 Q150.992 1202.62 144.672 1202.62 Q142.496 1202.62 140.228 1202.25 Q137.982 1201.88 135.575 1201.14 L135.575 1196.44 Q137.658 1197.57 139.881 1198.13 Q142.103 1198.68 144.58 1198.68 Q148.584 1198.68 150.922 1196.58 Q153.26 1194.47 153.26 1190.86 Q153.26 1187.25 150.922 1185.14 Q148.584 1183.03 144.58 1183.03 Q142.705 1183.03 140.83 1183.45 Q138.978 1183.87 137.033 1184.75 L137.033 1167.39 Z" fill="#000000" fill-rule="nonzero" fill-opacity="1" /><path clip-path="url(#clip530)" d="M50.9921 935.466 L80.6679 935.466 L80.6679 939.401 L50.9921 939.401 L50.9921 935.466 Z" fill="#000000" fill-rule="nonzero" fill-opacity="1" /><path clip-path="url(#clip530)" d="M91.5706 948.36 L99.2095 948.36 L99.2095 921.994 L90.8993 923.661 L90.8993 919.402 L99.1632 917.735 L103.839 917.735 L103.839 948.36 L111.478 948.36 L111.478 952.295 L91.5706 952.295 L91.5706 948.36 Z" fill="#000000" fill-rule="nonzero" fill-opacity="1" /><path clip-path="url(#clip530)" d="M120.922 946.415 L125.807 946.415 L125.807 952.295 L120.922 952.295 L120.922 946.415 Z" fill="#000000" fill-rule="nonzero" fill-opacity="1" /><path clip-path="url(#clip530)" d="M145.992 920.814 Q142.381 920.814 140.552 924.378 Q138.746 927.92 138.746 935.05 Q138.746 942.156 140.552 945.721 Q142.381 949.262 145.992 949.262 Q149.626 949.262 151.431 945.721 Q153.26 942.156 153.26 935.05 Q153.26 927.92 151.431 924.378 Q149.626 920.814 145.992 920.814 M145.992 917.11 Q151.802 917.11 154.857 921.716 Q157.936 926.3 157.936 935.05 Q157.936 943.776 154.857 948.383 Q151.802 952.966 145.992 952.966 Q140.181 952.966 137.103 948.383 Q134.047 943.776 134.047 935.05 Q134.047 926.3 137.103 921.716 Q140.181 917.11 145.992 917.11 Z" fill="#000000" fill-rule="nonzero" fill-opacity="1" /><path clip-path="url(#clip530)" d="M51.9875 685.815 L81.6633 685.815 L81.6633 689.75 L51.9875 689.75 L51.9875 685.815 Z" fill="#000000" fill-rule="nonzero" fill-opacity="1" /><path clip-path="url(#clip530)" d="M101.756 671.162 Q98.1447 671.162 96.316 674.727 Q94.5104 678.269 94.5104 685.398 Q94.5104 692.505 96.316 696.069 Q98.1447 699.611 101.756 699.611 Q105.39 699.611 107.196 696.069 Q109.024 692.505 109.024 685.398 Q109.024 678.269 107.196 674.727 Q105.39 671.162 101.756 671.162 M101.756 667.458 Q107.566 667.458 110.621 672.065 Q113.7 676.648 113.7 685.398 Q113.7 694.125 110.621 698.731 Q107.566 703.315 101.756 703.315 Q95.9456 703.315 92.8669 698.731 Q89.8114 694.125 89.8114 685.398 Q89.8114 676.648 92.8669 672.065 Q95.9456 667.458 101.756 667.458 Z" fill="#000000" fill-rule="nonzero" fill-opacity="1" /><path clip-path="url(#clip530)" d="M121.918 696.764 L126.802 696.764 L126.802 702.643 L121.918 702.643 L121.918 696.764 Z" fill="#000000" fill-rule="nonzero" fill-opacity="1" /><path clip-path="url(#clip530)" d="M137.033 668.083 L155.39 668.083 L155.39 672.019 L141.316 672.019 L141.316 680.491 Q142.334 680.144 143.353 679.982 Q144.371 679.796 145.39 679.796 Q151.177 679.796 154.556 682.968 Q157.936 686.139 157.936 691.556 Q157.936 697.134 154.464 700.236 Q150.992 703.315 144.672 703.315 Q142.496 703.315 140.228 702.944 Q137.982 702.574 135.575 701.833 L135.575 697.134 Q137.658 698.269 139.881 698.824 Q142.103 699.38 144.58 699.38 Q148.584 699.38 150.922 697.273 Q153.26 695.167 153.26 691.556 Q153.26 687.944 150.922 685.838 Q148.584 683.732 144.58 683.732 Q142.705 683.732 140.83 684.148 Q138.978 684.565 137.033 685.445 L137.033 668.083 Z" fill="#000000" fill-rule="nonzero" fill-opacity="1" /><path clip-path="url(#clip530)" d="M100.76 421.511 Q97.1493 421.511 95.3206 425.076 Q93.515 428.617 93.515 435.747 Q93.515 442.853 95.3206 446.418 Q97.1493 449.96 100.76 449.96 Q104.395 449.96 106.2 446.418 Q108.029 442.853 108.029 435.747 Q108.029 428.617 106.2 425.076 Q104.395 421.511 100.76 421.511 M100.76 417.807 Q106.571 417.807 109.626 422.414 Q112.705 426.997 112.705 435.747 Q112.705 444.474 109.626 449.08 Q106.571 453.663 100.76 453.663 Q94.9502 453.663 91.8715 449.08 Q88.816 444.474 88.816 435.747 Q88.816 426.997 91.8715 422.414 Q94.9502 417.807 100.76 417.807 Z" fill="#000000" fill-rule="nonzero" fill-opacity="1" /><path clip-path="url(#clip530)" d="M120.922 447.112 L125.807 447.112 L125.807 452.992 L120.922 452.992 L120.922 447.112 Z" fill="#000000" fill-rule="nonzero" fill-opacity="1" /><path clip-path="url(#clip530)" d="M145.992 421.511 Q142.381 421.511 140.552 425.076 Q138.746 428.617 138.746 435.747 Q138.746 442.853 140.552 446.418 Q142.381 449.96 145.992 449.96 Q149.626 449.96 151.431 446.418 Q153.26 442.853 153.26 435.747 Q153.26 428.617 151.431 425.076 Q149.626 421.511 145.992 421.511 M145.992 417.807 Q151.802 417.807 154.857 422.414 Q157.936 426.997 157.936 435.747 Q157.936 444.474 154.857 449.08 Q151.802 453.663 145.992 453.663 Q140.181 453.663 137.103 449.08 Q134.047 444.474 134.047 435.747 Q134.047 426.997 137.103 422.414 Q140.181 417.807 145.992 417.807 Z" fill="#000000" fill-rule="nonzero" fill-opacity="1" /><path clip-path="url(#clip530)" d="M101.756 171.859 Q98.1447 171.859 96.316 175.424 Q94.5104 178.966 94.5104 186.095 Q94.5104 193.202 96.316 196.767 Q98.1447 200.308 101.756 200.308 Q105.39 200.308 107.196 196.767 Q109.024 193.202 109.024 186.095 Q109.024 178.966 107.196 175.424 Q105.39 171.859 101.756 171.859 M101.756 168.156 Q107.566 168.156 110.621 172.762 Q113.7 177.345 113.7 186.095 Q113.7 194.822 110.621 199.429 Q107.566 204.012 101.756 204.012 Q95.9456 204.012 92.8669 199.429 Q89.8114 194.822 89.8114 186.095 Q89.8114 177.345 92.8669 172.762 Q95.9456 168.156 101.756 168.156 Z" fill="#000000" fill-rule="nonzero" fill-opacity="1" /><path clip-path="url(#clip530)" d="M121.918 197.461 L126.802 197.461 L126.802 203.341 L121.918 203.341 L121.918 197.461 Z" fill="#000000" fill-rule="nonzero" fill-opacity="1" /><path clip-path="url(#clip530)" d="M137.033 168.781 L155.39 168.781 L155.39 172.716 L141.316 172.716 L141.316 181.188 Q142.334 180.841 143.353 180.679 Q144.371 180.494 145.39 180.494 Q151.177 180.494 154.556 183.665 Q157.936 186.836 157.936 192.253 Q157.936 197.831 154.464 200.933 Q150.992 204.012 144.672 204.012 Q142.496 204.012 140.228 203.642 Q137.982 203.271 135.575 202.53 L135.575 197.831 Q137.658 198.966 139.881 199.521 Q142.103 200.077 144.58 200.077 Q148.584 200.077 150.922 197.97 Q153.26 195.864 153.26 192.253 Q153.26 188.642 150.922 186.535 Q148.584 184.429 144.58 184.429 Q142.705 184.429 140.83 184.845 Q138.978 185.262 137.033 186.142 L137.033 168.781 Z" fill="#000000" fill-rule="nonzero" fill-opacity="1" /><polyline clip-path="url(#clip532)" style="stroke:#009af9; stroke-linecap:round; stroke-linejoin:round; stroke-width:4; stroke-opacity:1; fill:none" points="193.936,435.712 196.097,448.288 198.258,460.696 200.419,472.941 202.58,485.023 204.741,496.945 206.902,508.708 209.063,520.316 211.224,531.77 213.385,543.072 215.546,554.224 217.707,565.229 219.868,576.087 222.029,586.801 224.19,597.374 226.351,607.806 228.512,618.1 230.673,628.258 232.834,638.28 234.995,648.17 237.156,657.929 239.317,667.559 241.478,677.06 243.639,686.436 245.8,695.688 247.961,704.816 250.122,713.824 252.282,722.713 254.443,731.483 256.604,740.137 258.765,748.677 260.926,757.103 263.087,765.418 265.248,773.622 267.409,781.717 269.57,789.706 271.731,797.588 273.892,805.366 276.053,813.041 278.214,820.614 280.375,828.086 282.536,835.46 284.697,842.735 286.858,849.915 289.019,856.999 291.18,863.989 293.341,870.886 295.502,877.692 297.663,884.408 299.824,891.035 301.985,897.574 304.146,904.026 306.307,910.392 308.468,916.675 310.629,922.874 312.79,928.99 314.951,935.026 317.112,940.982 319.273,946.858 321.434,952.657 323.595,958.379 325.756,964.025 327.917,969.597 330.078,975.094 332.239,980.519 334.4,985.871 336.561,991.153 338.722,996.365 340.883,1001.51 343.044,1006.58 345.205,1011.59 347.366,1016.53 349.527,1021.4 351.688,1026.21 353.849,1030.96 356.01,1035.64 358.171,1040.27 360.332,1044.83 362.493,1049.33 364.653,1053.77 366.814,1058.15 368.975,1062.47 371.136,1066.74 373.297,1070.95 375.458,1075.1 377.619,1079.2 379.78,1083.24 381.941,1087.23 384.102,1091.17 386.263,1095.06 388.424,1098.89 390.585,1102.67 392.746,1106.41 394.907,1110.09 397.068,1113.72 399.229,1117.31 401.39,1120.85 403.551,1124.34 405.712,1127.79 407.873,1131.19 410.034,1133.98 412.195,1134.78 414.356,1133.74 416.517,1131.07 418.678,1126.97 420.839,1121.64 423,1115.24 425.161,1107.96 427.322,1099.94 429.483,1091.34 431.644,1082.29 433.805,1072.92 435.966,1063.34 438.127,1053.65 440.288,1043.94 442.449,1034.31 444.61,1024.81 446.771,1015.51 448.932,1006.45 451.093,997.673 453.254,989.206 455.415,981.063 457.576,973.249 459.737,965.758 461.898,958.572 464.059,951.662 466.22,944.991 468.381,938.506 470.542,932.149 472.703,925.845 474.864,919.513 477.024,913.059 479.185,906.57 481.346,900.167 483.507,893.849 485.668,887.615 487.829,881.464 489.99,875.394 492.151,869.404 494.312,863.494 496.473,857.663 498.634,851.908 500.795,846.23 502.956,840.627 505.117,835.099 507.278,829.644 509.439,824.261 511.6,818.949 513.761,813.708 515.922,808.535 518.083,803.432 520.244,798.395 522.405,793.426 524.566,788.522 526.727,783.684 528.888,778.909 531.049,774.198 533.21,769.55 535.371,764.963 537.532,760.437 539.693,755.971 541.854,751.564 544.015,747.216 546.176,742.926 548.337,738.692 550.498,734.515 552.659,730.394 554.82,726.327 556.981,722.314 559.142,718.354 561.303,714.447 563.464,710.592 565.625,706.788 567.786,703.035 569.947,699.331 572.108,695.676 574.269,692.07 576.43,688.512 578.591,685.001 580.752,681.536 582.913,678.118 585.074,674.745 587.235,671.416 589.396,668.131 591.556,664.89 593.717,661.692 595.878,658.536 598.039,655.422 600.2,652.35 602.361,649.317 604.522,646.33 606.683,643.454 608.844,640.693 611.005,638.023 613.166,635.421 615.327,632.865 617.488,630.337 619.649,627.817 621.81,625.291 623.971,622.743 626.132,620.162 628.293,617.536 630.454,614.857 632.615,612.117 634.776,609.311 636.937,606.435 639.098,603.486 641.259,600.465 643.42,597.373 645.581,594.213 647.742,590.99 649.903,587.711 652.064,584.383 654.225,581.018 656.386,577.627 658.547,574.223 660.708,570.822 662.869,567.441 665.03,564.099 667.191,560.816 669.352,557.615 671.513,554.509 673.674,551.451 675.835,548.434 677.996,545.456 680.157,542.519 682.318,539.62 684.479,536.759 686.64,533.937 688.801,531.152 690.962,528.404 693.123,525.692 695.284,523.016 697.445,520.376 699.606,517.771 701.767,515.2 703.927,512.664 706.088,510.161 708.249,507.691 710.41,505.254 712.571,502.849 714.732,500.476 716.893,498.135 719.054,495.824 721.215,493.545 723.376,491.295 725.537,489.075 727.698,486.884 729.859,484.723 732.02,482.59 734.181,480.485 736.342,478.408 738.503,476.359 740.664,474.337 742.825,472.341 744.986,470.372 747.147,468.43 749.308,466.513 751.469,464.621 753.63,462.755 755.791,460.914 757.952,459.097 760.113,457.304 762.274,455.535 764.435,453.789 766.596,452.067 768.757,450.367 770.918,448.69 773.079,447.036 775.24,445.403 777.401,443.792 779.562,442.203 781.723,440.634 783.884,439.087 786.045,437.559 788.206,436.053 790.367,434.566 792.528,433.099 794.689,431.651 796.85,430.222 799.011,428.813 801.172,427.422 803.333,426.049 805.494,424.695 807.655,423.359 809.816,422.04 811.977,420.738 814.138,419.454 816.298,418.187 818.459,416.937 820.62,415.715 822.781,414.524 824.942,413.364 827.103,412.231 829.264,411.125 831.425,410.043 833.586,408.985 835.747,407.948 837.908,406.932 840.069,405.936 842.23,404.957 844.391,403.994 846.552,403.048 848.713,402.116 850.874,401.199 853.035,400.294 855.196,399.402 857.357,398.521 859.518,397.651 861.679,396.792 863.84,395.943 866.001,395.104 868.162,394.274 870.323,393.454 872.484,392.643 874.645,391.841 876.806,391.048 878.967,390.265 881.128,389.492 883.289,388.728 885.45,387.975 887.611,387.232 889.772,386.5 891.933,385.78 894.094,385.07 896.255,384.368 898.416,383.676 900.577,382.994 902.738,382.32 904.899,381.655 907.06,380.999 909.221,380.352 911.382,379.713 913.543,379.083 915.704,378.461 917.865,377.848 920.026,377.242 922.187,376.645 924.348,376.056 926.509,375.474 928.669,374.9 930.83,374.334 932.991,373.775 935.152,373.223 937.313,372.679 939.474,372.142 941.635,371.613 943.796,371.09 945.957,370.574 948.118,370.065 950.279,369.563 952.44,369.067 954.601,368.578 956.762,368.096 958.923,367.619 961.084,367.15 963.245,366.686 965.406,366.229 967.567,365.777 969.728,365.332 971.889,364.892 974.05,364.458 976.211,364.031 978.372,363.608 980.533,363.192 982.694,362.78 984.855,362.375 987.016,361.974 989.177,361.579 991.338,361.19 993.499,360.805 995.66,360.426 997.821,360.051 999.982,359.682 1002.14,359.317 1004.3,358.957 1006.46,358.602 1008.63,358.252 1010.79,357.907 1012.95,357.566 1015.11,357.229 1017.27,356.897 1019.43,356.569 1021.59,356.246 1023.75,355.927 1025.91,355.612 1028.07,355.302 1030.24,354.995 1032.4,354.693 1034.56,354.394 1036.72,354.1 1038.88,353.809 1041.04,353.522 1043.2,353.239 1045.36,352.96 1047.52,352.685 1049.68,352.413 1051.85,352.145 1054.01,351.954 1056.17,352.458 1058.33,353.665 1060.49,355.426 1062.65,357.606 1064.81,360.085 1066.97,362.759 1069.13,365.537 1071.29,368.345 1073.46,371.122 1075.62,373.823 1077.78,376.419 1079.94,378.893 1082.1,381.244 1084.26,383.488 1086.42,385.654 1088.58,387.785 1090.74,389.941 1092.9,392.117 1095.07,394.265 1097.23,396.384 1099.39,398.475 1101.55,400.538 1103.71,402.574 1105.87,404.583 1108.03,406.565 1110.19,408.522 1112.35,410.452 1114.51,412.356 1116.67,414.236 1118.84,416.09 1121,417.92 1123.16,419.726 1125.32,421.507 1127.48,423.265 1129.64,425 1131.8,426.712 1133.96,428.401 1136.12,430.067 1138.28,431.712 1140.45,433.334 1142.61,434.935 1144.77,436.515 1146.93,438.074 1149.09,439.613 1151.25,441.13 1153.41,442.628 1155.57,444.106 1157.73,445.564 1159.89,447.003 1162.06,448.423 1164.22,449.824 1166.38,451.207 1168.54,452.571 1170.7,453.917 1172.86,455.245 1175.02,456.556 1177.18,457.849 1179.34,459.126 1181.5,460.385 1183.67,461.627 1185.83,462.853 1187.99,464.063 1190.15,465.257 1192.31,466.435 1194.47,467.597 1196.63,468.744 1198.79,469.876 1200.95,470.993 1203.11,472.094 1205.28,473.182 1207.44,474.255 1209.6,475.313 1211.76,476.358 1213.92,477.389 1216.08,478.406 1218.24,479.409 1220.4,480.4 1222.56,481.377 1224.72,482.341 1226.88,483.292 1229.05,484.231 1231.21,485.158 1233.37,486.072 1235.53,486.974 1237.69,487.864 1239.85,488.742 1242.01,489.608 1244.17,490.464 1246.33,491.307 1248.49,492.14 1250.66,492.961 1252.82,493.772 1254.98,494.572 1257.14,495.361 1259.3,496.14 1261.46,496.908 1263.62,497.667 1265.78,498.415 1267.94,499.153 1270.1,499.88 1272.27,500.26 1274.43,500.109 1276.59,499.516 1278.75,498.56 1280.91,497.317 1283.07,495.853 1285.23,494.229 1287.39,492.498 1289.55,490.709 1291.71,488.9 1293.88,487.107 1296.04,485.354 1298.2,483.663 1300.36,482.047 1302.52,480.512 1304.68,479.058 1306.84,477.678 1309,476.358 1311.16,475.077 1313.32,473.809 1315.49,472.519 1317.65,471.204 1319.81,469.906 1321.97,468.625 1324.13,467.361 1326.29,466.114 1328.45,464.883 1330.61,463.669 1332.77,462.47 1334.93,461.288 1337.09,460.121 1339.26,458.97 1341.42,457.834 1343.58,456.713 1345.74,455.607 1347.9,454.515 1350.06,453.438 1352.22,452.375 1354.38,451.327 1356.54,450.292 1358.7,449.271 1360.87,448.263 1363.03,447.269 1365.19,446.288 1367.35,445.32 1369.51,444.365 1371.67,443.423 1373.83,442.493 1375.99,441.575 1378.15,440.67 1380.31,439.777 1382.48,438.895 1384.64,438.025 1386.8,437.167 1388.96,436.32 1391.12,435.484 1393.28,434.66 1395.44,433.846 1397.6,433.043 1399.76,432.251 1401.92,431.469 1404.09,430.698 1406.25,429.937 1408.41,429.185 1410.57,428.444 1412.73,427.713 1414.89,426.991 1417.05,426.279 1419.21,425.577 1421.37,424.883 1423.53,424.199 1425.7,423.524 1427.86,422.858 1430.02,422.201 1432.18,421.552 1434.34,420.912 1436.5,420.281 1438.66,419.658 1440.82,419.043 1442.98,418.436 1445.14,417.838 1447.3,417.247 1449.47,416.664 1451.63,416.089 1453.79,415.521 1455.95,414.961 1458.11,414.409 1460.27,413.864 1462.43,413.326 1464.59,412.795 1466.75,412.271 1468.91,411.754 1471.08,411.244 1473.24,410.741 1475.4,410.244 1477.56,409.754 1479.72,409.271 1481.88,408.793 1484.04,408.323 1486.2,407.858 1488.36,407.4 1490.52,406.808 1492.69,405.697 1494.85,404.144 1497.01,402.253 1499.17,400.115 1501.33,397.811 1503.49,395.411 1505.65,392.974 1507.81,390.547 1509.97,388.168 1512.13,385.862 1514.3,383.644 1516.46,381.517 1518.62,379.475 1520.78,377.498 1522.94,375.557 1525.1,373.612 1527.26,371.653 1529.42,369.72 1531.58,367.813 1533.74,365.931 1535.91,364.074 1538.07,362.242 1540.23,360.434 1542.39,358.65 1544.55,356.889 1546.71,355.152 1548.87,353.438 1551.03,351.747 1553.19,350.078 1555.35,348.431 1557.51,346.806 1559.68,345.202 1561.84,343.62 1564,342.059 1566.16,340.518 1568.32,338.998 1570.48,337.498 1572.64,336.018 1574.8,334.558 1576.96,333.117 1579.12,331.695 1581.29,330.292 1583.45,328.907 1585.61,327.541 1587.77,326.193 1589.93,324.863 1592.09,323.551 1594.25,322.256 1596.41,320.978 1598.57,319.717 1600.73,318.473 1602.9,317.245 1605.06,316.033 1607.22,314.838 1609.38,313.659 1611.54,312.495 1613.7,311.346 1615.86,310.213 1618.02,309.094 1620.18,307.991 1622.34,306.902 1624.51,305.828 1626.67,304.768 1628.83,303.722 1630.99,302.689 1633.15,301.671 1635.31,300.666 1637.47,299.674 1639.63,298.696 1641.79,297.73 1643.95,296.777 1646.12,295.837 1648.28,294.909 1650.44,293.994 1652.6,293.091 1654.76,292.2 1656.92,291.32 1659.08,290.452 1661.24,289.596 1663.4,288.751 1665.56,287.917 1667.72,287.095 1669.89,286.283 1672.05,285.482 1674.21,284.692 1676.37,283.912 1678.53,283.142 1680.69,282.383 1682.85,281.634 1685.01,280.894 1687.17,280.165 1689.33,279.445 1691.5,278.734 1693.66,278.033 1695.82,277.342 1697.98,276.659 1700.14,275.986 1702.3,275.321 1704.46,274.736 1706.62,274.758 1708.78,275.429 1710.94,276.676 1713.11,278.427 1715.27,280.614 1717.43,283.176 1719.59,286.051 1721.75,289.184 1723.91,292.523 1726.07,296.021 1728.23,299.633 1730.39,303.319 1732.55,307.042 1734.72,310.77 1736.88,314.474 1739.04,318.129 1741.2,321.713 1743.36,325.21 1745.52,328.606 1747.68,331.892 1749.84,335.062 1752,338.113 1754.16,341.049 1756.33,343.874 1758.49,346.598 1760.65,349.236 1762.81,351.804 1764.97,354.323 1767.13,356.818 1769.29,359.319 1771.45,361.858 1773.61,364.404 1775.77,366.916 1777.93,369.395 1780.1,371.841 1782.26,374.254 1784.42,376.636 1786.58,378.986 1788.74,381.305 1790.9,383.593 1793.06,385.85 1795.22,388.078 1797.38,390.276 1799.54,392.446 1801.71,394.586 1803.87,396.698 1806.03,398.782 1808.19,400.838 1810.35,402.868 1812.51,404.87 1814.67,406.846 1816.83,408.795 1818.99,410.719 1821.15,412.617 1823.32,414.491 1825.48,416.339 1827.64,418.162 1829.8,419.962 1831.96,421.738 1834.12,423.49 1836.28,425.218 1838.44,426.924 1840.6,428.607 1842.76,430.268 1844.93,431.907 1847.09,433.524 1849.25,435.12 1851.41,436.694 1853.57,438.248 1855.73,439.781 1857.89,441.293 1860.05,442.786 1862.21,444.259 1864.37,445.712 1866.54,447.146 1868.7,448.561 1870.86,449.957 1873.02,451.335 1875.18,452.694 1877.34,454.036 1879.5,455.36 1881.66,456.666 1883.82,457.955 1885.98,459.226 1888.15,460.481 1890.31,461.72 1892.47,462.942 1894.63,464.147 1896.79,465.337 1898.95,466.511 1901.11,467.669 1903.27,468.812 1905.43,469.94 1907.59,471.053 1909.75,472.151 1911.92,473.235 1914.08,474.304 1916.24,475.359 1918.4,476.203 1920.56,475.934 1922.72,474.581 1924.88,472.299 1927.04,469.235 1929.2,465.522 1931.36,461.286 1933.53,456.641 1935.69,451.693 1937.85,446.537 1940.01,441.257 1942.17,435.929 1944.33,430.616 1946.49,425.374 1948.65,420.247 1950.81,415.269 1952.97,410.467 1955.14,405.853 1957.3,401.432 1959.46,397.199 1961.62,393.138 1963.78,389.224 1965.94,385.42 1968.1,381.681 1970.26,377.95 1972.42,374.163 1974.58,370.345 1976.75,366.578 1978.91,362.86 1981.07,359.192 1983.23,355.573 1985.39,352.001 1987.55,348.477 1989.71,344.999 1991.87,341.568 1994.03,338.182 1996.19,334.841 1998.36,331.545 2000.52,328.292 2002.68,325.082 2004.84,321.914 2007,318.789 2009.16,315.705 2011.32,312.662 2013.48,309.659 2015.64,306.696 2017.8,303.773 2019.96,300.888 2022.13,298.041 2024.29,295.232 2026.45,292.46 2028.61,289.725 2030.77,287.027 2032.93,284.364 2035.09,281.736 2037.25,279.144 2039.41,276.585 2041.57,274.061 2043.74,271.57 2045.9,269.113 2048.06,266.687 2050.22,264.294 2052.38,261.933 2054.54,259.603 2056.7,257.304 2058.86,255.036 2061.02,252.797 2063.18,250.588 2065.35,248.409 2067.51,246.258 2069.67,244.136 2071.83,242.042 2073.99,239.976 2076.15,237.937 2078.31,235.925 2080.47,233.94 2082.63,231.981 2084.79,230.048 2086.96,228.141 2089.12,226.259 2091.28,224.402 2093.44,222.569 2095.6,220.761 2097.76,218.977 2099.92,217.216 2102.08,215.479 2104.24,213.765 2106.4,212.073 2108.57,210.404 2110.73,208.757 2112.89,207.132 2115.05,205.529 2117.21,203.947 2119.37,202.385 2121.53,200.845 2123.69,199.325 2125.85,197.825 2128.01,196.345 2130.17,195.106 2132.34,195.434 2134.5,197.373 2136.66,200.721 2138.82,205.286 2140.98,210.888 2143.14,217.36 2145.3,224.544 2147.46,232.295 2149.62,240.478 2151.78,248.97 2153.95,257.661 2156.11,266.45 2158.27,275.248 2160.43,283.979 2162.59,292.577 2164.75,300.987 2166.91,309.166 2169.07,317.083 2171.23,324.718 2173.39,332.061 2175.56,339.116 2177.72,345.896 2179.88,352.427 2182.04,358.746 2184.2,364.901 2186.36,370.951 2188.52,376.968 2190.68,383.034 2192.84,389.195 2195,395.297 2197.17,401.318 2199.33,407.259 2201.49,413.121 2203.65,418.905 2205.81,424.613 2207.97,430.245 2210.13,435.803 2212.29,441.286 2214.45,446.697 2216.61,452.037 2218.78,457.305 2220.94,462.504 2223.1,467.634 2225.26,472.695 2227.42,477.69 2229.58,482.619 2231.74,487.482 2233.9,492.281 2236.06,497.016 2238.22,501.688 2240.38,506.299 2242.55,510.848 2244.71,515.337 2246.87,519.766 2249.03,524.137 2251.19,528.45 2253.35,532.705 2255.51,536.904 2257.67,541.048 2259.83,545.136 2261.99,549.17 2264.16,553.151 2266.32,557.079 2268.48,560.954 2270.64,564.779 2272.8,568.552 2274.96,572.276 2277.12,575.95 2279.28,579.576 2281.44,583.153 2283.6,586.683 2285.77,590.166 2287.93,593.604 2290.09,596.995 2292.25,600.342 2294.41,603.644 2296.57,606.903 2298.73,610.118 2300.89,613.291 2303.05,616.421 2305.21,619.51 2307.38,622.559 2309.54,625.566 2311.7,628.534 2313.86,631.463 2316.02,634.353 2318.18,637.204 2320.34,640.018 2322.5,642.794 2324.66,645.533 2326.82,648.236 2328.99,650.904 2331.15,653.536 2333.31,656.133 2335.47,658.695 2337.63,661.224 2339.79,663.719 2341.95,666.181 2344.11,668.61 2346.27,671.008 2348.43,673.373 2350.59,675.707 2352.76,678.01 "/>
<polyline clip-path="url(#clip532)" style="stroke:#e26f46; stroke-linecap:round; stroke-linejoin:round; stroke-width:4; stroke-opacity:1; fill:none" points="193.936,1384.24 196.097,1384.24 198.258,1384.24 200.419,1384.24 202.58,1384.24 204.741,1384.24 206.902,1384.24 209.063,1384.24 211.224,1384.24 213.385,1384.24 215.546,1384.24 217.707,1384.24 219.868,1384.24 222.029,1384.24 224.19,1384.24 226.351,1384.24 228.512,1384.24 230.673,1384.24 232.834,1384.24 234.995,1384.24 237.156,1384.24 239.317,1384.24 241.478,1384.24 243.639,1384.24 245.8,1384.24 247.961,1384.24 250.122,1384.24 252.282,1384.24 254.443,1384.24 256.604,1384.24 258.765,1384.24 260.926,1384.24 263.087,1384.24 265.248,1384.24 267.409,1384.24 269.57,1384.24 271.731,1384.24 273.892,1384.24 276.053,1384.24 278.214,1384.24 280.375,1384.24 282.536,1384.24 284.697,1384.24 286.858,1384.24 289.019,1384.24 291.18,1384.24 293.341,1384.24 295.502,1384.24 297.663,1384.24 299.824,1384.24 301.985,1384.24 304.146,1384.24 306.307,1384.24 308.468,1384.24 310.629,1384.24 312.79,1384.24 314.951,1384.24 317.112,1384.24 319.273,1384.24 321.434,1384.24 323.595,1384.24 325.756,1384.24 327.917,1384.24 330.078,1384.24 332.239,1384.24 334.4,1384.24 336.561,1384.24 338.722,1384.24 340.883,1384.24 343.044,1384.24 345.205,1384.24 347.366,1384.24 349.527,1384.24 351.688,1384.24 353.849,1384.24 356.01,1384.24 358.171,1384.24 360.332,1384.24 362.493,1384.24 364.653,1384.24 366.814,1384.24 368.975,1384.24 371.136,1384.24 373.297,1384.24 375.458,1384.24 377.619,1384.24 379.78,1384.24 381.941,1384.24 384.102,1384.24 386.263,1384.24 388.424,1384.24 390.585,1384.24 392.746,1384.24 394.907,1384.24 397.068,1384.24 399.229,1384.24 401.39,1384.24 403.551,1384.24 405.712,1384.24 407.873,1384.24 410.034,423.633 412.195,423.633 414.356,423.633 416.517,423.633 418.678,423.633 420.839,423.633 423,423.633 425.161,423.633 427.322,423.633 429.483,423.633 431.644,423.633 433.805,423.633 435.966,423.633 438.127,423.633 440.288,423.633 442.449,423.633 444.61,423.633 446.771,423.633 448.932,423.633 451.093,423.633 453.254,423.633 455.415,423.633 457.576,423.633 459.737,423.633 461.898,423.633 464.059,423.633 466.22,423.633 468.381,423.633 470.542,423.633 472.703,423.633 474.864,423.633 477.024,423.633 479.185,423.633 481.346,423.633 483.507,423.633 485.668,423.633 487.829,423.633 489.99,423.633 492.151,423.633 494.312,423.633 496.473,423.633 498.634,423.633 500.795,423.633 502.956,423.633 505.117,423.633 507.278,423.633 509.439,423.633 511.6,423.633 513.761,423.633 515.922,423.633 518.083,423.633 520.244,423.633 522.405,423.633 524.566,423.633 526.727,423.633 528.888,423.633 531.049,423.633 533.21,423.633 535.371,423.633 537.532,423.633 539.693,423.633 541.854,423.633 544.015,423.633 546.176,423.633 548.337,423.633 550.498,423.633 552.659,423.633 554.82,423.633 556.981,423.633 559.142,423.633 561.303,423.633 563.464,423.633 565.625,423.633 567.786,423.633 569.947,423.633 572.108,423.633 574.269,423.633 576.43,423.633 578.591,423.633 580.752,423.633 582.913,423.633 585.074,423.633 587.235,423.633 589.396,423.633 591.556,423.633 593.717,423.633 595.878,423.633 598.039,423.633 600.2,423.633 602.361,423.633 604.522,423.633 606.683,423.633 608.844,423.633 611.005,423.633 613.166,423.633 615.327,423.633 617.488,423.633 619.649,423.633 621.81,423.633 623.971,423.633 626.132,323.874 628.293,323.874 630.454,323.874 632.615,323.874 634.776,323.874 636.937,323.874 639.098,323.874 641.259,323.874 643.42,323.874 645.581,323.874 647.742,323.874 649.903,323.874 652.064,323.874 654.225,323.874 656.386,323.874 658.547,323.874 660.708,323.874 662.869,323.874 665.03,323.874 667.191,323.874 669.352,323.874 671.513,323.874 673.674,323.874 675.835,323.874 677.996,323.874 680.157,323.874 682.318,323.874 684.479,323.874 686.64,323.874 688.801,323.874 690.962,323.874 693.123,323.874 695.284,323.874 697.445,323.874 699.606,323.874 701.767,323.874 703.927,323.874 706.088,323.874 708.249,323.874 710.41,323.874 712.571,323.874 714.732,323.874 716.893,323.874 719.054,323.874 721.215,323.874 723.376,323.874 725.537,323.874 727.698,323.874 729.859,323.874 732.02,323.874 734.181,323.874 736.342,323.874 738.503,323.874 740.664,323.874 742.825,323.874 744.986,323.874 747.147,323.874 749.308,323.874 751.469,323.874 753.63,323.874 755.791,323.874 757.952,323.874 760.113,323.874 762.274,323.874 764.435,323.874 766.596,323.874 768.757,323.874 770.918,323.874 773.079,323.874 775.24,323.874 777.401,323.874 779.562,323.874 781.723,323.874 783.884,323.874 786.045,323.874 788.206,323.874 790.367,323.874 792.528,323.874 794.689,323.874 796.85,323.874 799.011,323.874 801.172,323.874 803.333,323.874 805.494,323.874 807.655,323.874 809.816,323.874 811.977,323.874 814.138,323.874 816.298,323.874 818.459,323.874 820.62,323.874 822.781,323.874 824.942,323.874 827.103,323.874 829.264,323.874 831.425,323.874 833.586,323.874 835.747,323.874 837.908,323.874 840.069,323.874 842.23,332.182 844.391,332.182 846.552,332.182 848.713,332.182 850.874,332.182 853.035,332.182 855.196,332.182 857.357,332.182 859.518,332.182 861.679,332.182 863.84,332.182 866.001,332.182 868.162,332.182 870.323,332.182 872.484,332.182 874.645,332.182 876.806,332.182 878.967,332.182 881.128,332.182 883.289,332.182 885.45,332.182 887.611,332.182 889.772,332.182 891.933,332.182 894.094,332.182 896.255,332.182 898.416,332.182 900.577,332.182 902.738,332.182 904.899,332.182 907.06,332.182 909.221,332.182 911.382,332.182 913.543,332.182 915.704,332.182 917.865,332.182 920.026,332.182 922.187,332.182 924.348,332.182 926.509,332.182 928.669,332.182 930.83,332.182 932.991,332.182 935.152,332.182 937.313,332.182 939.474,332.182 941.635,332.182 943.796,332.182 945.957,332.182 948.118,332.182 950.279,332.182 952.44,332.182 954.601,332.182 956.762,332.182 958.923,332.182 961.084,332.182 963.245,332.182 965.406,332.182 967.567,332.182 969.728,332.182 971.889,332.182 974.05,332.182 976.211,332.182 978.372,332.182 980.533,332.182 982.694,332.182 984.855,332.182 987.016,332.182 989.177,332.182 991.338,332.182 993.499,332.182 995.66,332.182 997.821,332.182 999.982,332.182 1002.14,332.182 1004.3,332.182 1006.46,332.182 1008.63,332.182 1010.79,332.182 1012.95,332.182 1015.11,332.182 1017.27,332.182 1019.43,332.182 1021.59,332.182 1023.75,332.182 1025.91,332.182 1028.07,332.182 1030.24,332.182 1032.4,332.182 1034.56,332.182 1036.72,332.182 1038.88,332.182 1041.04,332.182 1043.2,332.182 1045.36,332.182 1047.52,332.182 1049.68,332.182 1051.85,332.182 1054.01,332.182 1056.17,332.182 1058.33,554.104 1060.49,554.104 1062.65,554.104 1064.81,554.104 1066.97,554.104 1069.13,554.104 1071.29,554.104 1073.46,554.104 1075.62,554.104 1077.78,554.104 1079.94,554.104 1082.1,554.104 1084.26,554.104 1086.42,554.104 1088.58,554.104 1090.74,554.104 1092.9,554.104 1095.07,554.104 1097.23,554.104 1099.39,554.104 1101.55,554.104 1103.71,554.104 1105.87,554.104 1108.03,554.104 1110.19,554.104 1112.35,554.104 1114.51,554.104 1116.67,554.104 1118.84,554.104 1121,554.104 1123.16,554.104 1125.32,554.104 1127.48,554.104 1129.64,554.104 1131.8,554.104 1133.96,554.104 1136.12,554.104 1138.28,554.104 1140.45,554.104 1142.61,554.104 1144.77,554.104 1146.93,554.104 1149.09,554.104 1151.25,554.104 1153.41,554.104 1155.57,554.104 1157.73,554.104 1159.89,554.104 1162.06,554.104 1164.22,554.104 1166.38,554.104 1168.54,554.104 1170.7,554.104 1172.86,554.104 1175.02,554.104 1177.18,554.104 1179.34,554.104 1181.5,554.104 1183.67,554.104 1185.83,554.104 1187.99,554.104 1190.15,554.104 1192.31,554.104 1194.47,554.104 1196.63,554.104 1198.79,554.104 1200.95,554.104 1203.11,554.104 1205.28,554.104 1207.44,554.104 1209.6,554.104 1211.76,554.104 1213.92,554.104 1216.08,554.104 1218.24,554.104 1220.4,554.104 1222.56,554.104 1224.72,554.104 1226.88,554.104 1229.05,554.104 1231.21,554.104 1233.37,554.104 1235.53,554.104 1237.69,554.104 1239.85,554.104 1242.01,554.104 1244.17,554.104 1246.33,554.104 1248.49,554.104 1250.66,554.104 1252.82,554.104 1254.98,554.104 1257.14,554.104 1259.3,554.104 1261.46,554.104 1263.62,554.104 1265.78,554.104 1267.94,554.104 1270.1,554.104 1272.27,554.104 1274.43,373.283 1276.59,373.283 1278.75,373.283 1280.91,373.283 1283.07,373.283 1285.23,373.283 1287.39,373.283 1289.55,373.283 1291.71,373.283 1293.88,373.283 1296.04,373.283 1298.2,373.283 1300.36,373.283 1302.52,373.283 1304.68,373.283 1306.84,373.283 1309,373.283 1311.16,373.283 1313.32,373.283 1315.49,373.283 1317.65,373.283 1319.81,373.283 1321.97,373.283 1324.13,373.283 1326.29,373.283 1328.45,373.283 1330.61,373.283 1332.77,373.283 1334.93,373.283 1337.09,373.283 1339.26,373.283 1341.42,373.283 1343.58,373.283 1345.74,373.283 1347.9,373.283 1350.06,373.283 1352.22,373.283 1354.38,373.283 1356.54,373.283 1358.7,373.283 1360.87,373.283 1363.03,373.283 1365.19,373.283 1367.35,373.283 1369.51,373.283 1371.67,373.283 1373.83,373.283 1375.99,373.283 1378.15,373.283 1380.31,373.283 1382.48,373.283 1384.64,373.283 1386.8,373.283 1388.96,373.283 1391.12,373.283 1393.28,373.283 1395.44,373.283 1397.6,373.283 1399.76,373.283 1401.92,373.283 1404.09,373.283 1406.25,373.283 1408.41,373.283 1410.57,373.283 1412.73,373.283 1414.89,373.283 1417.05,373.283 1419.21,373.283 1421.37,373.283 1423.53,373.283 1425.7,373.283 1427.86,373.283 1430.02,373.283 1432.18,373.283 1434.34,373.283 1436.5,373.283 1438.66,373.283 1440.82,373.283 1442.98,373.283 1445.14,373.283 1447.3,373.283 1449.47,373.283 1451.63,373.283 1453.79,373.283 1455.95,373.283 1458.11,373.283 1460.27,373.283 1462.43,373.283 1464.59,373.283 1466.75,373.283 1468.91,373.283 1471.08,373.283 1473.24,373.283 1475.4,373.283 1477.56,373.283 1479.72,373.283 1481.88,373.283 1484.04,373.283 1486.2,373.283 1488.36,373.283 1490.52,225.866 1492.69,225.866 1494.85,225.866 1497.01,225.866 1499.17,225.866 1501.33,225.866 1503.49,225.866 1505.65,225.866 1507.81,225.866 1509.97,225.866 1512.13,225.866 1514.3,225.866 1516.46,225.866 1518.62,225.866 1520.78,225.866 1522.94,225.866 1525.1,225.866 1527.26,225.866 1529.42,225.866 1531.58,225.866 1533.74,225.866 1535.91,225.866 1538.07,225.866 1540.23,225.866 1542.39,225.866 1544.55,225.866 1546.71,225.866 1548.87,225.866 1551.03,225.866 1553.19,225.866 1555.35,225.866 1557.51,225.866 1559.68,225.866 1561.84,225.866 1564,225.866 1566.16,225.866 1568.32,225.866 1570.48,225.866 1572.64,225.866 1574.8,225.866 1576.96,225.866 1579.12,225.866 1581.29,225.866 1583.45,225.866 1585.61,225.866 1587.77,225.866 1589.93,225.866 1592.09,225.866 1594.25,225.866 1596.41,225.866 1598.57,225.866 1600.73,225.866 1602.9,225.866 1605.06,225.866 1607.22,225.866 1609.38,225.866 1611.54,225.866 1613.7,225.866 1615.86,225.866 1618.02,225.866 1620.18,225.866 1622.34,225.866 1624.51,225.866 1626.67,225.866 1628.83,225.866 1630.99,225.866 1633.15,225.866 1635.31,225.866 1637.47,225.866 1639.63,225.866 1641.79,225.866 1643.95,225.866 1646.12,225.866 1648.28,225.866 1650.44,225.866 1652.6,225.866 1654.76,225.866 1656.92,225.866 1659.08,225.866 1661.24,225.866 1663.4,225.866 1665.56,225.866 1667.72,225.866 1669.89,225.866 1672.05,225.866 1674.21,225.866 1676.37,225.866 1678.53,225.866 1680.69,225.866 1682.85,225.866 1685.01,225.866 1687.17,225.866 1689.33,225.866 1691.5,225.866 1693.66,225.866 1695.82,225.866 1697.98,225.866 1700.14,225.866 1702.3,225.866 1704.46,225.866 1706.62,553.883 1708.78,553.883 1710.94,553.883 1713.11,553.883 1715.27,553.883 1717.43,553.883 1719.59,553.883 1721.75,553.883 1723.91,553.883 1726.07,553.883 1728.23,553.883 1730.39,553.883 1732.55,553.883 1734.72,553.883 1736.88,553.883 1739.04,553.883 1741.2,553.883 1743.36,553.883 1745.52,553.883 1747.68,553.883 1749.84,553.883 1752,553.883 1754.16,553.883 1756.33,553.883 1758.49,553.883 1760.65,553.883 1762.81,553.883 1764.97,553.883 1767.13,553.883 1769.29,553.883 1771.45,553.883 1773.61,553.883 1775.77,553.883 1777.93,553.883 1780.1,553.883 1782.26,553.883 1784.42,553.883 1786.58,553.883 1788.74,553.883 1790.9,553.883 1793.06,553.883 1795.22,553.883 1797.38,553.883 1799.54,553.883 1801.71,553.883 1803.87,553.883 1806.03,553.883 1808.19,553.883 1810.35,553.883 1812.51,553.883 1814.67,553.883 1816.83,553.883 1818.99,553.883 1821.15,553.883 1823.32,553.883 1825.48,553.883 1827.64,553.883 1829.8,553.883 1831.96,553.883 1834.12,553.883 1836.28,553.883 1838.44,553.883 1840.6,553.883 1842.76,553.883 1844.93,553.883 1847.09,553.883 1849.25,553.883 1851.41,553.883 1853.57,553.883 1855.73,553.883 1857.89,553.883 1860.05,553.883 1862.21,553.883 1864.37,553.883 1866.54,553.883 1868.7,553.883 1870.86,553.883 1873.02,553.883 1875.18,553.883 1877.34,553.883 1879.5,553.883 1881.66,553.883 1883.82,553.883 1885.98,553.883 1888.15,553.883 1890.31,553.883 1892.47,553.883 1894.63,553.883 1896.79,553.883 1898.95,553.883 1901.11,553.883 1903.27,553.883 1905.43,553.883 1907.59,553.883 1909.75,553.883 1911.92,553.883 1914.08,553.883 1916.24,553.883 1918.4,553.883 1920.56,553.883 1922.72,86.1857 1924.88,86.1857 1927.04,86.1857 1929.2,86.1857 1931.36,86.1857 1933.53,86.1857 1935.69,86.1857 1937.85,86.1857 1940.01,86.1857 1942.17,86.1857 1944.33,86.1857 1946.49,86.1857 1948.65,86.1857 1950.81,86.1857 1952.97,86.1857 1955.14,86.1857 1957.3,86.1857 1959.46,86.1857 1961.62,86.1857 1963.78,86.1857 1965.94,86.1857 1968.1,86.1857 1970.26,86.1857 1972.42,86.1857 1974.58,86.1857 1976.75,86.1857 1978.91,86.1857 1981.07,86.1857 1983.23,86.1857 1985.39,86.1857 1987.55,86.1857 1989.71,86.1857 1991.87,86.1857 1994.03,86.1857 1996.19,86.1857 1998.36,86.1857 2000.52,86.1857 2002.68,86.1857 2004.84,86.1857 2007,86.1857 2009.16,86.1857 2011.32,86.1857 2013.48,86.1857 2015.64,86.1857 2017.8,86.1857 2019.96,86.1857 2022.13,86.1857 2024.29,86.1857 2026.45,86.1857 2028.61,86.1857 2030.77,86.1857 2032.93,86.1857 2035.09,86.1857 2037.25,86.1857 2039.41,86.1857 2041.57,86.1857 2043.74,86.1857 2045.9,86.1857 2048.06,86.1857 2050.22,86.1857 2052.38,86.1857 2054.54,86.1857 2056.7,86.1857 2058.86,86.1857 2061.02,86.1857 2063.18,86.1857 2065.35,86.1857 2067.51,86.1857 2069.67,86.1857 2071.83,86.1857 2073.99,86.1857 2076.15,86.1857 2078.31,86.1857 2080.47,86.1857 2082.63,86.1857 2084.79,86.1857 2086.96,86.1857 2089.12,86.1857 2091.28,86.1857 2093.44,86.1857 2095.6,86.1857 2097.76,86.1857 2099.92,86.1857 2102.08,86.1857 2104.24,86.1857 2106.4,86.1857 2108.57,86.1857 2110.73,86.1857 2112.89,86.1857 2115.05,86.1857 2117.21,86.1857 2119.37,86.1857 2121.53,86.1857 2123.69,86.1857 2125.85,86.1857 2128.01,86.1857 2130.17,86.1857 2132.34,86.1857 2134.5,86.1857 2136.66,86.1857 2138.82,849.421 2140.98,849.421 2143.14,849.421 2145.3,849.421 2147.46,849.421 2149.62,849.421 2151.78,849.421 2153.95,849.421 2156.11,849.421 2158.27,849.421 2160.43,849.421 2162.59,849.421 2164.75,849.421 2166.91,849.421 2169.07,849.421 2171.23,849.421 2173.39,849.421 2175.56,849.421 2177.72,849.421 2179.88,849.421 2182.04,849.421 2184.2,849.421 2186.36,849.421 2188.52,849.421 2190.68,849.421 2192.84,849.421 2195,849.421 2197.17,849.421 2199.33,849.421 2201.49,849.421 2203.65,849.421 2205.81,849.421 2207.97,849.421 2210.13,849.421 2212.29,849.421 2214.45,849.421 2216.61,849.421 2218.78,849.421 2220.94,849.421 2223.1,849.421 2225.26,849.421 2227.42,849.421 2229.58,849.421 2231.74,849.421 2233.9,849.421 2236.06,849.421 2238.22,849.421 2240.38,849.421 2242.55,849.421 2244.71,849.421 2246.87,849.421 2249.03,849.421 2251.19,849.421 2253.35,849.421 2255.51,849.421 2257.67,849.421 2259.83,849.421 2261.99,849.421 2264.16,849.421 2266.32,849.421 2268.48,849.421 2270.64,849.421 2272.8,849.421 2274.96,849.421 2277.12,849.421 2279.28,849.421 2281.44,849.421 2283.6,849.421 2285.77,849.421 2287.93,849.421 2290.09,849.421 2292.25,849.421 2294.41,849.421 2296.57,849.421 2298.73,849.421 2300.89,849.421 2303.05,849.421 2305.21,849.421 2307.38,849.421 2309.54,849.421 2311.7,849.421 2313.86,849.421 2316.02,849.421 2318.18,849.421 2320.34,849.421 2322.5,849.421 2324.66,849.421 2326.82,849.421 2328.99,849.421 2331.15,849.421 2333.31,849.421 2335.47,849.421 2337.63,849.421 2339.79,849.421 2341.95,849.421 2344.11,849.421 2346.27,849.421 2348.43,849.421 2350.59,849.421 2352.76,849.421 "/>
<path clip-path="url(#clip530)" d="M2039.77 1377.32 L2280.8 1377.32 L2280.8 1221.8 L2039.77 1221.8  Z" fill="#ffffff" fill-rule="evenodd" fill-opacity="1"/>
<polyline clip-path="url(#clip530)" style="stroke:#000000; stroke-linecap:round; stroke-linejoin:round; stroke-width:4; stroke-opacity:1; fill:none" points="2039.77,1377.32 2280.8,1377.32 2280.8,1221.8 2039.77,1221.8 2039.77,1377.32 "/>
<polyline clip-path="url(#clip530)" style="stroke:#009af9; stroke-linecap:round; stroke-linejoin:round; stroke-width:4; stroke-opacity:1; fill:none" points="2063.76,1273.64 2207.68,1273.64 "/>
<path clip-path="url(#clip530)" d="M2256.32 1264.99 L2246.95 1277.61 L2256.81 1290.92 L2251.79 1290.92 L2244.24 1280.73 L2236.69 1290.92 L2231.67 1290.92 L2241.74 1277.35 L2232.53 1264.99 L2237.55 1264.99 L2244.42 1274.23 L2251.3 1264.99 L2256.32 1264.99 Z" fill="#000000" fill-rule="nonzero" fill-opacity="1" /><polyline clip-path="url(#clip530)" style="stroke:#e26f46; stroke-linecap:round; stroke-linejoin:round; stroke-width:4; stroke-opacity:1; fill:none" points="2063.76,1325.48 2207.68,1325.48 "/>
<path clip-path="url(#clip530)" d="M2248.17 1306.74 L2248.17 1310.28 L2244.1 1310.28 Q2241.81 1310.28 2240.91 1311.2 Q2240.03 1312.13 2240.03 1314.54 L2240.03 1316.83 L2247.04 1316.83 L2247.04 1320.14 L2240.03 1320.14 L2240.03 1342.76 L2235.74 1342.76 L2235.74 1320.14 L2231.67 1320.14 L2231.67 1316.83 L2235.74 1316.83 L2235.74 1315.02 Q2235.74 1310.7 2237.76 1308.73 Q2239.77 1306.74 2244.15 1306.74 L2248.17 1306.74 Z" fill="#000000" fill-rule="nonzero" fill-opacity="1" /></svg>
