<?xml version="1.0" encoding="utf-8"?>
<svg xmlns="http://www.w3.org/2000/svg" xmlns:xlink="http://www.w3.org/1999/xlink" width="600" height="400" viewBox="0 0 2400 1600">
<defs>
  <clipPath id="clip430">
    <rect x="0" y="0" width="2400" height="1600"/>
  </clipPath>
</defs>
<path clip-path="url(#clip430)" d="M0 1600 L2400 1600 L2400 0 L0 0  Z" fill="#ffffff" fill-rule="evenodd" fill-opacity="1"/>
<defs>
  <clipPath id="clip431">
    <rect x="480" y="0" width="1681" height="1600"/>
  </clipPath>
</defs>
<path clip-path="url(#clip430)" d="M193.936 1423.18 L2352.76 1423.18 L2352.76 47.2441 L193.936 47.2441  Z" fill="#ffffff" fill-rule="evenodd" fill-opacity="1"/>
<defs>
  <clipPath id="clip432">
    <rect x="193" y="47" width="2160" height="1377"/>
  </clipPath>
</defs>
<polyline clip-path="url(#clip432)" style="stroke:#000000; stroke-linecap:round; stroke-linejoin:round; stroke-width:2; stroke-opacity:0.1; fill:none" points="193.936,1423.18 193.936,47.2441 "/>
<polyline clip-path="url(#clip432)" style="stroke:#000000; stroke-linecap:round; stroke-linejoin:round; stroke-width:2; stroke-opacity:0.1; fill:none" points="625.7,1423.18 625.7,47.2441 "/>
<polyline clip-path="url(#clip432)" style="stroke:#000000; stroke-linecap:round; stroke-linejoin:round; stroke-width:2; stroke-opacity:0.1; fill:none" points="1057.46,1423.18 1057.46,47.2441 "/>
<polyline clip-path="url(#clip432)" style="stroke:#000000; stroke-linecap:round; stroke-linejoin:round; stroke-width:2; stroke-opacity:0.1; fill:none" points="1489.23,1423.18 1489.23,47.2441 "/>
<polyline clip-path="url(#clip432)" style="stroke:#000000; stroke-linecap:round; stroke-linejoin:round; stroke-width:2; stroke-opacity:0.1; fill:none" points="1920.99,1423.18 1920.99,47.2441 "/>
<polyline clip-path="url(#clip432)" style="stroke:#000000; stroke-linecap:round; stroke-linejoin:round; stroke-width:2; stroke-opacity:0.1; fill:none" points="2352.76,1423.18 2352.76,47.2441 "/>
<polyline clip-path="url(#clip430)" style="stroke:#000000; stroke-linecap:round; stroke-linejoin:round; stroke-width:4; stroke-opacity:1; fill:none" points="193.936,1423.18 2352.76,1423.18 "/>
<polyline clip-path="url(#clip430)" style="stroke:#000000; stroke-linecap:round; stroke-linejoin:round; stroke-width:4; stroke-opacity:1; fill:none" points="193.936,1423.18 193.936,1404.28 "/>
<polyline clip-path="url(#clip430)" style="stroke:#000000; stroke-linecap:round; stroke-linejoin:round; stroke-width:4; stroke-opacity:1; fill:none" points="625.7,1423.18 625.7,1404.28 "/>
<polyline clip-path="url(#clip430)" style="stroke:#000000; stroke-linecap:round; stroke-linejoin:round; stroke-width:4; stroke-opacity:1; fill:none" points="1057.46,1423.18 1057.46,1404.28 "/>
<polyline clip-path="url(#clip430)" style="stroke:#000000; stroke-linecap:round; stroke-linejoin:round; stroke-width:4; stroke-opacity:1; fill:none" points="1489.23,1423.18 1489.23,1404.28 "/>
<polyline clip-path="url(#clip430)" style="stroke:#000000; stroke-linecap:round; stroke-linejoin:round; stroke-width:4; stroke-opacity:1; fill:none" points="1920.99,1423.18 1920.99,1404.28 "/>
<polyline clip-path="url(#clip430)" style="stroke:#000000; stroke-linecap:round; stroke-linejoin:round; stroke-width:4; stroke-opacity:1; fill:none" points="2352.76,1423.18 2352.76,1404.28 "/>
<path clip-path="url(#clip430)" d="M193.936 1454.1 Q190.325 1454.1 188.496 1457.66 Q186.691 1461.2 186.691 1468.33 Q186.691 1475.44 188.496 1479.01 Q190.325 1482.55 193.936 1482.55 Q197.57 1482.55 199.376 1479.01 Q201.204 1475.44 201.204 1468.33 Q201.204 1461.2 199.376 1457.66 Q197.57 1454.1 193.936 1454.1 M193.936 1450.39 Q199.746 1450.39 202.802 1455 Q205.88 1459.58 205.88 1468.33 Q205.88 1477.06 202.802 1481.67 Q199.746 1486.25 193.936 1486.25 Q188.126 1486.25 185.047 1481.67 Q181.992 1477.06 181.992 1468.33 Q181.992 1459.58 185.047 1455 Q188.126 1450.39 193.936 1450.39 Z" fill="#000000" fill-rule="nonzero" fill-opacity="1" /><path clip-path="url(#clip430)" d="M620.353 1481.64 L636.672 1481.64 L636.672 1485.58 L614.728 1485.58 L614.728 1481.64 Q617.39 1478.89 621.973 1474.26 Q626.58 1469.61 627.76 1468.27 Q630.006 1465.74 630.885 1464.01 Q631.788 1462.25 631.788 1460.56 Q631.788 1457.8 629.843 1456.07 Q627.922 1454.33 624.82 1454.33 Q622.621 1454.33 620.168 1455.09 Q617.737 1455.86 614.959 1457.41 L614.959 1452.69 Q617.783 1451.55 620.237 1450.97 Q622.691 1450.39 624.728 1450.39 Q630.098 1450.39 633.293 1453.08 Q636.487 1455.77 636.487 1460.26 Q636.487 1462.39 635.677 1464.31 Q634.89 1466.2 632.783 1468.8 Q632.205 1469.47 629.103 1472.69 Q626.001 1475.88 620.353 1481.64 Z" fill="#000000" fill-rule="nonzero" fill-opacity="1" /><path clip-path="url(#clip430)" d="M1060.47 1455.09 L1048.67 1473.54 L1060.47 1473.54 L1060.47 1455.09 M1059.25 1451.02 L1065.13 1451.02 L1065.13 1473.54 L1070.06 1473.54 L1070.06 1477.43 L1065.13 1477.43 L1065.13 1485.58 L1060.47 1485.58 L1060.47 1477.43 L1044.87 1477.43 L1044.87 1472.92 L1059.25 1451.02 Z" fill="#000000" fill-rule="nonzero" fill-opacity="1" /><path clip-path="url(#clip430)" d="M1489.63 1466.44 Q1486.48 1466.44 1484.63 1468.59 Q1482.8 1470.74 1482.8 1474.49 Q1482.8 1478.22 1484.63 1480.39 Q1486.48 1482.55 1489.63 1482.55 Q1492.78 1482.55 1494.61 1480.39 Q1496.46 1478.22 1496.46 1474.49 Q1496.46 1470.74 1494.61 1468.59 Q1492.78 1466.44 1489.63 1466.44 M1498.92 1451.78 L1498.92 1456.04 Q1497.16 1455.21 1495.35 1454.77 Q1493.57 1454.33 1491.81 1454.33 Q1487.18 1454.33 1484.73 1457.45 Q1482.3 1460.58 1481.95 1466.9 Q1483.31 1464.89 1485.37 1463.82 Q1487.43 1462.73 1489.91 1462.73 Q1495.12 1462.73 1498.13 1465.9 Q1501.16 1469.05 1501.16 1474.49 Q1501.16 1479.82 1498.01 1483.03 Q1494.86 1486.25 1489.63 1486.25 Q1483.64 1486.25 1480.47 1481.67 Q1477.3 1477.06 1477.3 1468.33 Q1477.3 1460.14 1481.18 1455.28 Q1485.07 1450.39 1491.62 1450.39 Q1493.38 1450.39 1495.17 1450.74 Q1496.97 1451.09 1498.92 1451.78 Z" fill="#000000" fill-rule="nonzero" fill-opacity="1" /><path clip-path="url(#clip430)" d="M1920.99 1469.17 Q1917.66 1469.17 1915.74 1470.95 Q1913.84 1472.73 1913.84 1475.86 Q1913.84 1478.98 1915.74 1480.77 Q1917.66 1482.55 1920.99 1482.55 Q1924.33 1482.55 1926.25 1480.77 Q1928.17 1478.96 1928.17 1475.86 Q1928.17 1472.73 1926.25 1470.95 Q1924.35 1469.17 1920.99 1469.17 M1916.32 1467.18 Q1913.31 1466.44 1911.62 1464.38 Q1909.95 1462.32 1909.95 1459.35 Q1909.95 1455.21 1912.89 1452.8 Q1915.85 1450.39 1920.99 1450.39 Q1926.15 1450.39 1929.09 1452.8 Q1932.03 1455.21 1932.03 1459.35 Q1932.03 1462.32 1930.34 1464.38 Q1928.68 1466.44 1925.69 1467.18 Q1929.07 1467.96 1930.95 1470.26 Q1932.84 1472.55 1932.84 1475.86 Q1932.84 1480.88 1929.77 1483.57 Q1926.71 1486.25 1920.99 1486.25 Q1915.27 1486.25 1912.2 1483.57 Q1909.14 1480.88 1909.14 1475.86 Q1909.14 1472.55 1911.04 1470.26 Q1912.94 1467.96 1916.32 1467.18 M1914.6 1459.79 Q1914.6 1462.48 1916.27 1463.98 Q1917.96 1465.49 1920.99 1465.49 Q1924 1465.49 1925.69 1463.98 Q1927.4 1462.48 1927.4 1459.79 Q1927.4 1457.11 1925.69 1455.6 Q1924 1454.1 1920.99 1454.1 Q1917.96 1454.1 1916.27 1455.6 Q1914.6 1457.11 1914.6 1459.79 Z" fill="#000000" fill-rule="nonzero" fill-opacity="1" /><path clip-path="url(#clip430)" d="M2327.44 1481.64 L2335.08 1481.64 L2335.08 1455.28 L2326.77 1456.95 L2326.77 1452.69 L2335.04 1451.02 L2339.71 1451.02 L2339.71 1481.64 L2347.35 1481.64 L2347.35 1485.58 L2327.44 1485.58 L2327.44 1481.64 Z" fill="#000000" fill-rule="nonzero" fill-opacity="1" /><path clip-path="url(#clip430)" d="M2366.8 1454.1 Q2363.18 1454.1 2361.36 1457.66 Q2359.55 1461.2 2359.55 1468.33 Q2359.55 1475.44 2361.36 1479.01 Q2363.18 1482.55 2366.8 1482.55 Q2370.43 1482.55 2372.23 1479.01 Q2374.06 1475.44 2374.06 1468.33 Q2374.06 1461.2 2372.23 1457.66 Q2370.43 1454.1 2366.8 1454.1 M2366.8 1450.39 Q2372.61 1450.39 2375.66 1455 Q2378.74 1459.58 2378.74 1468.33 Q2378.74 1477.06 2375.66 1481.67 Q2372.61 1486.25 2366.8 1486.25 Q2360.99 1486.25 2357.91 1481.67 Q2354.85 1477.06 2354.85 1468.33 Q2354.85 1459.58 2357.91 1455 Q2360.99 1450.39 2366.8 1450.39 Z" fill="#000000" fill-rule="nonzero" fill-opacity="1" /><path clip-path="url(#clip430)" d="M1272.41 1522.27 L1272.41 1532.4 L1284.47 1532.4 L1284.47 1536.95 L1272.41 1536.95 L1272.41 1556.3 Q1272.41 1560.66 1273.58 1561.9 Q1274.79 1563.14 1278.45 1563.14 L1284.47 1563.14 L1284.47 1568.04 L1278.45 1568.04 Q1271.67 1568.04 1269.1 1565.53 Q1266.52 1562.98 1266.52 1556.3 L1266.52 1536.95 L1262.22 1536.95 L1262.22 1532.4 L1266.52 1532.4 L1266.52 1522.27 L1272.41 1522.27 Z" fill="#000000" fill-rule="nonzero" fill-opacity="1" /><polyline clip-path="url(#clip432)" style="stroke:#000000; stroke-linecap:round; stroke-linejoin:round; stroke-width:2; stroke-opacity:0.1; fill:none" points="193.936,1393.65 2352.76,1393.65 "/>
<polyline clip-path="url(#clip432)" style="stroke:#000000; stroke-linecap:round; stroke-linejoin:round; stroke-width:2; stroke-opacity:0.1; fill:none" points="193.936,1125.46 2352.76,1125.46 "/>
<polyline clip-path="url(#clip432)" style="stroke:#000000; stroke-linecap:round; stroke-linejoin:round; stroke-width:2; stroke-opacity:0.1; fill:none" points="193.936,857.274 2352.76,857.274 "/>
<polyline clip-path="url(#clip432)" style="stroke:#000000; stroke-linecap:round; stroke-linejoin:round; stroke-width:2; stroke-opacity:0.1; fill:none" points="193.936,589.086 2352.76,589.086 "/>
<polyline clip-path="url(#clip432)" style="stroke:#000000; stroke-linecap:round; stroke-linejoin:round; stroke-width:2; stroke-opacity:0.1; fill:none" points="193.936,320.899 2352.76,320.899 "/>
<polyline clip-path="url(#clip432)" style="stroke:#000000; stroke-linecap:round; stroke-linejoin:round; stroke-width:2; stroke-opacity:0.1; fill:none" points="193.936,52.7111 2352.76,52.7111 "/>
<polyline clip-path="url(#clip430)" style="stroke:#000000; stroke-linecap:round; stroke-linejoin:round; stroke-width:4; stroke-opacity:1; fill:none" points="193.936,1423.18 193.936,47.2441 "/>
<polyline clip-path="url(#clip430)" style="stroke:#000000; stroke-linecap:round; stroke-linejoin:round; stroke-width:4; stroke-opacity:1; fill:none" points="193.936,1393.65 212.834,1393.65 "/>
<polyline clip-path="url(#clip430)" style="stroke:#000000; stroke-linecap:round; stroke-linejoin:round; stroke-width:4; stroke-opacity:1; fill:none" points="193.936,1125.46 212.834,1125.46 "/>
<polyline clip-path="url(#clip430)" style="stroke:#000000; stroke-linecap:round; stroke-linejoin:round; stroke-width:4; stroke-opacity:1; fill:none" points="193.936,857.274 212.834,857.274 "/>
<polyline clip-path="url(#clip430)" style="stroke:#000000; stroke-linecap:round; stroke-linejoin:round; stroke-width:4; stroke-opacity:1; fill:none" points="193.936,589.086 212.834,589.086 "/>
<polyline clip-path="url(#clip430)" style="stroke:#000000; stroke-linecap:round; stroke-linejoin:round; stroke-width:4; stroke-opacity:1; fill:none" points="193.936,320.899 212.834,320.899 "/>
<polyline clip-path="url(#clip430)" style="stroke:#000000; stroke-linecap:round; stroke-linejoin:round; stroke-width:4; stroke-opacity:1; fill:none" points="193.936,52.7111 212.834,52.7111 "/>
<path clip-path="url(#clip430)" d="M50.9921 1394.1 L80.6679 1394.1 L80.6679 1398.04 L50.9921 1398.04 L50.9921 1394.1 Z" fill="#000000" fill-rule="nonzero" fill-opacity="1" /><path clip-path="url(#clip430)" d="M94.7882 1406.99 L111.108 1406.99 L111.108 1410.93 L89.1632 1410.93 L89.1632 1406.99 Q91.8252 1404.24 96.4085 1399.61 Q101.015 1394.96 102.196 1393.61 Q104.441 1391.09 105.321 1389.36 Q106.223 1387.6 106.223 1385.91 Q106.223 1383.15 104.279 1381.42 Q102.358 1379.68 99.2558 1379.68 Q97.0567 1379.68 94.603 1380.44 Q92.1725 1381.21 89.3947 1382.76 L89.3947 1378.04 Q92.2188 1376.9 94.6724 1376.32 Q97.1261 1375.74 99.1632 1375.74 Q104.534 1375.74 107.728 1378.43 Q110.922 1381.11 110.922 1385.61 Q110.922 1387.73 110.112 1389.66 Q109.325 1391.55 107.219 1394.15 Q106.64 1394.82 103.538 1398.04 Q100.436 1401.23 94.7882 1406.99 Z" fill="#000000" fill-rule="nonzero" fill-opacity="1" /><path clip-path="url(#clip430)" d="M120.922 1405.05 L125.807 1405.05 L125.807 1410.93 L120.922 1410.93 L120.922 1405.05 Z" fill="#000000" fill-rule="nonzero" fill-opacity="1" /><path clip-path="url(#clip430)" d="M145.992 1379.45 Q142.381 1379.45 140.552 1383.01 Q138.746 1386.55 138.746 1393.68 Q138.746 1400.79 140.552 1404.36 Q142.381 1407.9 145.992 1407.9 Q149.626 1407.9 151.431 1404.36 Q153.26 1400.79 153.26 1393.68 Q153.26 1386.55 151.431 1383.01 Q149.626 1379.45 145.992 1379.45 M145.992 1375.74 Q151.802 1375.74 154.857 1380.35 Q157.936 1384.93 157.936 1393.68 Q157.936 1402.41 154.857 1407.02 Q151.802 1411.6 145.992 1411.6 Q140.181 1411.6 137.103 1407.02 Q134.047 1402.41 134.047 1393.68 Q134.047 1384.93 137.103 1380.35 Q140.181 1375.74 145.992 1375.74 Z" fill="#000000" fill-rule="nonzero" fill-opacity="1" /><path clip-path="url(#clip430)" d="M51.9875 1125.91 L81.6633 1125.91 L81.6633 1129.85 L51.9875 1129.85 L51.9875 1125.91 Z" fill="#000000" fill-rule="nonzero" fill-opacity="1" /><path clip-path="url(#clip430)" d="M92.566 1138.81 L100.205 1138.81 L100.205 1112.44 L91.8947 1114.11 L91.8947 1109.85 L100.159 1108.18 L104.834 1108.18 L104.834 1138.81 L112.473 1138.81 L112.473 1142.74 L92.566 1142.74 L92.566 1138.81 Z" fill="#000000" fill-rule="nonzero" fill-opacity="1" /><path clip-path="url(#clip430)" d="M121.918 1136.86 L126.802 1136.86 L126.802 1142.74 L121.918 1142.74 L121.918 1136.86 Z" fill="#000000" fill-rule="nonzero" fill-opacity="1" /><path clip-path="url(#clip430)" d="M137.033 1108.18 L155.39 1108.18 L155.39 1112.12 L141.316 1112.12 L141.316 1120.59 Q142.334 1120.24 143.353 1120.08 Q144.371 1119.89 145.39 1119.89 Q151.177 1119.89 154.556 1123.07 Q157.936 1126.24 157.936 1131.65 Q157.936 1137.23 154.464 1140.33 Q150.992 1143.41 144.672 1143.41 Q142.496 1143.41 140.228 1143.04 Q137.982 1142.67 135.575 1141.93 L135.575 1137.23 Q137.658 1138.37 139.881 1138.92 Q142.103 1139.48 144.58 1139.48 Q148.584 1139.48 150.922 1137.37 Q153.26 1135.26 153.26 1131.65 Q153.26 1128.04 150.922 1125.94 Q148.584 1123.83 144.58 1123.83 Q142.705 1123.83 140.83 1124.25 Q138.978 1124.66 137.033 1125.54 L137.033 1108.18 Z" fill="#000000" fill-rule="nonzero" fill-opacity="1" /><path clip-path="url(#clip430)" d="M50.9921 857.725 L80.6679 857.725 L80.6679 861.661 L50.9921 861.661 L50.9921 857.725 Z" fill="#000000" fill-rule="nonzero" fill-opacity="1" /><path clip-path="url(#clip430)" d="M91.5706 870.619 L99.2095 870.619 L99.2095 844.253 L90.8993 845.92 L90.8993 841.661 L99.1632 839.994 L103.839 839.994 L103.839 870.619 L111.478 870.619 L111.478 874.554 L91.5706 874.554 L91.5706 870.619 Z" fill="#000000" fill-rule="nonzero" fill-opacity="1" /><path clip-path="url(#clip430)" d="M120.922 868.674 L125.807 868.674 L125.807 874.554 L120.922 874.554 L120.922 868.674 Z" fill="#000000" fill-rule="nonzero" fill-opacity="1" /><path clip-path="url(#clip430)" d="M145.992 843.073 Q142.381 843.073 140.552 846.637 Q138.746 850.179 138.746 857.309 Q138.746 864.415 140.552 867.98 Q142.381 871.522 145.992 871.522 Q149.626 871.522 151.431 867.98 Q153.26 864.415 153.26 857.309 Q153.26 850.179 151.431 846.637 Q149.626 843.073 145.992 843.073 M145.992 839.369 Q151.802 839.369 154.857 843.975 Q157.936 848.559 157.936 857.309 Q157.936 866.036 154.857 870.642 Q151.802 875.225 145.992 875.225 Q140.181 875.225 137.103 870.642 Q134.047 866.036 134.047 857.309 Q134.047 848.559 137.103 843.975 Q140.181 839.369 145.992 839.369 Z" fill="#000000" fill-rule="nonzero" fill-opacity="1" /><path clip-path="url(#clip430)" d="M51.9875 589.538 L81.6633 589.538 L81.6633 593.473 L51.9875 593.473 L51.9875 589.538 Z" fill="#000000" fill-rule="nonzero" fill-opacity="1" /><path clip-path="url(#clip430)" d="M101.756 574.885 Q98.1447 574.885 96.316 578.45 Q94.5104 581.991 94.5104 589.121 Q94.5104 596.228 96.316 599.792 Q98.1447 603.334 101.756 603.334 Q105.39 603.334 107.196 599.792 Q109.024 596.228 109.024 589.121 Q109.024 581.991 107.196 578.45 Q105.39 574.885 101.756 574.885 M101.756 571.181 Q107.566 571.181 110.621 575.788 Q113.7 580.371 113.7 589.121 Q113.7 597.848 110.621 602.454 Q107.566 607.038 101.756 607.038 Q95.9456 607.038 92.8669 602.454 Q89.8114 597.848 89.8114 589.121 Q89.8114 580.371 92.8669 575.788 Q95.9456 571.181 101.756 571.181 Z" fill="#000000" fill-rule="nonzero" fill-opacity="1" /><path clip-path="url(#clip430)" d="M121.918 600.487 L126.802 600.487 L126.802 606.366 L121.918 606.366 L121.918 600.487 Z" fill="#000000" fill-rule="nonzero" fill-opacity="1" /><path clip-path="url(#clip430)" d="M137.033 571.806 L155.39 571.806 L155.39 575.742 L141.316 575.742 L141.316 584.214 Q142.334 583.866 143.353 583.704 Q144.371 583.519 145.39 583.519 Q151.177 583.519 154.556 586.691 Q157.936 589.862 157.936 595.278 Q157.936 600.857 154.464 603.959 Q150.992 607.038 144.672 607.038 Q142.496 607.038 140.228 606.667 Q137.982 606.297 135.575 605.556 L135.575 600.857 Q137.658 601.991 139.881 602.547 Q142.103 603.102 144.58 603.102 Q148.584 603.102 150.922 600.996 Q153.26 598.89 153.26 595.278 Q153.26 591.667 150.922 589.561 Q148.584 587.454 144.58 587.454 Q142.705 587.454 140.83 587.871 Q138.978 588.288 137.033 589.167 L137.033 571.806 Z" fill="#000000" fill-rule="nonzero" fill-opacity="1" /><path clip-path="url(#clip430)" d="M100.76 306.697 Q97.1493 306.697 95.3206 310.262 Q93.515 313.804 93.515 320.933 Q93.515 328.04 95.3206 331.605 Q97.1493 335.146 100.76 335.146 Q104.395 335.146 106.2 331.605 Q108.029 328.04 108.029 320.933 Q108.029 313.804 106.2 310.262 Q104.395 306.697 100.76 306.697 M100.76 302.994 Q106.571 302.994 109.626 307.6 Q112.705 312.183 112.705 320.933 Q112.705 329.66 109.626 334.267 Q106.571 338.85 100.76 338.85 Q94.9502 338.85 91.8715 334.267 Q88.816 329.66 88.816 320.933 Q88.816 312.183 91.8715 307.6 Q94.9502 302.994 100.76 302.994 Z" fill="#000000" fill-rule="nonzero" fill-opacity="1" /><path clip-path="url(#clip430)" d="M120.922 332.299 L125.807 332.299 L125.807 338.179 L120.922 338.179 L120.922 332.299 Z" fill="#000000" fill-rule="nonzero" fill-opacity="1" /><path clip-path="url(#clip430)" d="M145.992 306.697 Q142.381 306.697 140.552 310.262 Q138.746 313.804 138.746 320.933 Q138.746 328.04 140.552 331.605 Q142.381 335.146 145.992 335.146 Q149.626 335.146 151.431 331.605 Q153.26 328.04 153.26 320.933 Q153.26 313.804 151.431 310.262 Q149.626 306.697 145.992 306.697 M145.992 302.994 Q151.802 302.994 154.857 307.6 Q157.936 312.183 157.936 320.933 Q157.936 329.66 154.857 334.267 Q151.802 338.85 145.992 338.85 Q140.181 338.85 137.103 334.267 Q134.047 329.66 134.047 320.933 Q134.047 312.183 137.103 307.6 Q140.181 302.994 145.992 302.994 Z" fill="#000000" fill-rule="nonzero" fill-opacity="1" /><path clip-path="url(#clip430)" d="M101.756 38.5098 Q98.1447 38.5098 96.316 42.0746 Q94.5104 45.6162 94.5104 52.7458 Q94.5104 59.8522 96.316 63.417 Q98.1447 66.9587 101.756 66.9587 Q105.39 66.9587 107.196 63.417 Q109.024 59.8522 109.024 52.7458 Q109.024 45.6162 107.196 42.0746 Q105.39 38.5098 101.756 38.5098 M101.756 34.8061 Q107.566 34.8061 110.621 39.4125 Q113.7 43.9958 113.7 52.7458 Q113.7 61.4726 110.621 66.0791 Q107.566 70.6624 101.756 70.6624 Q95.9456 70.6624 92.8669 66.0791 Q89.8114 61.4726 89.8114 52.7458 Q89.8114 43.9958 92.8669 39.4125 Q95.9456 34.8061 101.756 34.8061 Z" fill="#000000" fill-rule="nonzero" fill-opacity="1" /><path clip-path="url(#clip430)" d="M121.918 64.1115 L126.802 64.1115 L126.802 69.9911 L121.918 69.9911 L121.918 64.1115 Z" fill="#000000" fill-rule="nonzero" fill-opacity="1" /><path clip-path="url(#clip430)" d="M137.033 35.4311 L155.39 35.4311 L155.39 39.3662 L141.316 39.3662 L141.316 47.8384 Q142.334 47.4912 143.353 47.3292 Q144.371 47.144 145.39 47.144 Q151.177 47.144 154.556 50.3152 Q157.936 53.4865 157.936 58.9032 Q157.936 64.4818 154.464 67.5837 Q150.992 70.6624 144.672 70.6624 Q142.496 70.6624 140.228 70.292 Q137.982 69.9216 135.575 69.1809 L135.575 64.4818 Q137.658 65.6161 139.881 66.1716 Q142.103 66.7272 144.58 66.7272 Q148.584 66.7272 150.922 64.6207 Q153.26 62.5143 153.26 58.9032 Q153.26 55.2921 150.922 53.1856 Q148.584 51.0791 144.58 51.0791 Q142.705 51.0791 140.83 51.4958 Q138.978 51.9125 137.033 52.7921 L137.033 35.4311 Z" fill="#000000" fill-rule="nonzero" fill-opacity="1" /><polyline clip-path="url(#clip432)" style="stroke:#009af9; stroke-linecap:round; stroke-linejoin:round; stroke-width:4; stroke-opacity:1; fill:none" points="193.936,320.899 196.097,323.928 198.258,326.916 200.419,329.865 202.58,332.775 204.741,335.647 206.902,338.48 209.063,341.276 211.224,344.034 213.385,346.756 215.546,349.442 217.707,352.093 219.868,354.708 222.029,357.289 224.19,359.835 226.351,362.348 228.512,364.827 230.673,367.273 232.834,369.687 234.995,372.069 237.156,374.42 239.317,376.739 241.478,379.028 243.639,381.286 245.8,383.514 247.961,385.713 250.122,387.882 252.282,390.023 254.443,392.135 256.604,394.22 258.765,396.276 260.926,398.306 263.087,400.308 265.248,402.284 267.409,404.234 269.57,406.158 271.731,408.057 273.892,409.93 276.053,411.778 278.214,413.602 280.375,415.402 282.536,417.178 284.697,418.93 286.858,420.66 289.019,422.366 291.18,424.049 293.341,425.711 295.502,427.35 297.663,428.967 299.824,430.563 301.985,432.138 304.146,433.692 306.307,435.226 308.468,436.739 310.629,438.232 312.79,439.705 314.951,441.159 317.112,442.593 319.273,444.009 321.434,445.405 323.595,446.783 325.756,448.143 327.917,449.485 330.078,450.809 332.239,452.116 334.4,453.405 336.561,454.677 338.722,455.932 340.883,457.171 343.044,458.393 345.205,459.599 347.366,460.789 349.527,461.963 351.688,463.121 353.849,464.265 356.01,465.393 358.171,466.506 360.332,467.604 362.493,468.688 364.653,469.757 366.814,470.813 368.975,471.854 371.136,472.881 373.297,473.895 375.458,474.896 377.619,475.883 379.78,476.857 381.941,477.818 384.102,478.766 386.263,479.702 388.424,480.626 390.585,481.537 392.746,482.436 394.907,483.323 397.068,484.198 399.229,485.062 401.39,485.915 403.551,486.756 405.712,487.585 407.873,488.399 410.034,488.54 412.195,487.652 414.356,485.865 416.517,483.301 418.678,480.076 420.839,476.298 423,472.067 425.161,467.476 427.322,462.612 429.483,457.552 431.644,452.367 433.805,447.119 435.966,441.867 438.127,436.656 440.288,431.529 442.449,426.519 444.61,421.653 446.771,416.948 448.932,412.416 451.093,408.061 453.254,403.879 455.415,399.86 457.576,395.984 459.737,392.225 461.898,388.551 464.059,384.92 466.22,381.284 468.381,377.589 470.542,373.891 472.703,370.242 474.864,366.641 477.024,363.088 479.185,359.582 481.346,356.122 483.507,352.708 485.668,349.34 487.829,346.016 489.99,342.737 492.151,339.5 494.312,336.307 496.473,333.156 498.634,330.047 500.795,326.979 502.956,323.952 505.117,320.964 507.278,318.017 509.439,315.108 511.6,312.238 513.761,309.406 515.922,306.612 518.083,303.854 520.244,301.134 522.405,298.449 524.566,295.8 526.727,293.186 528.888,290.607 531.049,288.062 533.21,285.55 535.371,283.072 537.532,280.627 539.693,278.215 541.854,275.834 544.015,273.485 546.176,271.167 548.337,268.88 550.498,266.623 552.659,264.396 554.82,262.198 556.981,260.03 559.142,257.891 561.303,255.779 563.464,253.696 565.625,251.64 567.786,249.612 569.947,247.61 572.108,245.635 574.269,243.687 576.43,241.764 578.591,239.866 580.752,237.994 582.913,236.146 585.074,234.323 587.235,232.524 589.396,230.749 591.556,228.998 593.717,227.27 595.878,225.564 598.039,223.882 600.2,222.221 602.361,220.583 604.522,218.966 606.683,217.371 608.844,215.797 611.005,214.244 613.166,212.711 615.327,211.199 617.488,209.707 619.649,208.234 621.81,206.781 623.971,205.347 626.132,204.006 628.293,203.593 630.454,204.174 632.615,205.545 634.776,207.523 636.937,209.944 639.098,212.664 641.259,215.558 643.42,218.522 645.581,221.471 647.742,224.339 649.903,227.081 652.064,229.672 654.225,232.104 656.386,234.392 658.547,236.57 660.708,238.689 662.869,240.824 665.03,243.025 667.191,245.206 669.352,247.359 671.513,249.484 673.674,251.58 675.835,253.648 677.996,255.689 680.157,257.703 682.318,259.69 684.479,261.651 686.64,263.586 688.801,265.495 690.962,267.379 693.123,269.238 695.284,271.073 697.445,272.883 699.606,274.669 701.767,276.431 703.927,278.17 706.088,279.886 708.249,281.579 710.41,283.25 712.571,284.898 714.732,286.525 716.893,288.13 719.054,289.714 721.215,291.277 723.376,292.819 725.537,294.34 727.698,295.842 729.859,297.323 732.02,298.785 734.181,300.227 736.342,301.651 738.503,303.055 740.664,304.441 742.825,305.809 744.986,307.158 747.147,308.49 749.308,309.803 751.469,311.1 753.63,312.379 755.791,313.641 757.952,314.887 760.113,316.116 762.274,317.329 764.435,318.526 766.596,319.706 768.757,320.872 770.918,322.021 773.079,323.156 775.24,324.275 777.401,325.38 779.562,326.47 781.723,327.545 783.884,328.607 786.045,329.654 788.206,330.687 790.367,331.707 792.528,332.713 794.689,333.705 796.85,334.685 799.011,335.651 801.172,336.605 803.333,337.546 805.494,338.475 807.655,339.391 809.816,340.296 811.977,341.188 814.138,342.068 816.298,342.937 818.459,343.794 820.62,344.64 822.781,345.474 824.942,346.298 827.103,347.111 829.264,347.912 831.425,348.704 833.586,349.484 835.747,350.255 837.908,351.015 840.069,351.955 842.23,350.397 844.391,347.21 846.552,344.066 848.713,340.964 850.874,337.903 853.035,334.883 855.196,331.903 857.357,328.963 859.518,326.061 861.679,323.198 863.84,320.373 866.001,317.585 868.162,314.834 870.323,312.12 872.484,309.442 874.645,306.799 876.806,304.191 878.967,301.618 881.128,299.079 883.289,296.573 885.45,294.101 887.611,291.662 889.772,289.255 891.933,286.88 894.094,284.536 896.255,282.223 898.416,279.941 900.577,277.69 902.738,275.468 904.899,273.276 907.06,271.112 909.221,268.978 911.382,266.871 913.543,264.793 915.704,262.742 917.865,260.718 920.026,258.722 922.187,256.751 924.348,254.807 926.509,252.889 928.669,250.996 930.83,249.128 932.991,247.285 935.152,245.466 937.313,243.671 939.474,241.9 941.635,240.153 943.796,238.429 945.957,236.728 948.118,235.049 950.279,233.392 952.44,231.758 954.601,230.145 956.762,228.554 958.923,226.983 961.084,225.434 963.245,223.905 965.406,222.396 967.567,220.907 969.728,219.438 971.889,217.989 974.05,216.558 976.211,215.147 978.372,213.754 980.533,212.38 982.694,211.024 984.855,209.686 987.016,208.366 989.177,207.063 991.338,205.778 993.499,204.509 995.66,203.258 997.821,202.023 999.982,200.804 1002.14,199.602 1004.3,198.415 1006.46,197.244 1008.63,196.089 1010.79,194.949 1012.95,193.824 1015.11,192.714 1017.27,191.619 1019.43,190.538 1021.59,189.472 1023.75,188.42 1025.91,187.382 1028.07,186.357 1030.24,185.346 1032.4,184.349 1034.56,183.364 1036.72,182.393 1038.88,181.435 1041.04,180.489 1043.2,179.556 1045.36,178.635 1047.52,177.727 1049.68,176.83 1051.85,175.945 1054.01,175.073 1056.17,174.562 1058.33,174.651 1060.49,175.272 1062.65,176.361 1064.81,177.856 1066.97,179.701 1069.13,181.841 1071.29,184.227 1073.46,186.811 1075.62,189.549 1077.78,192.401 1079.94,195.331 1082.1,198.305 1084.26,201.293 1086.42,204.27 1088.58,207.212 1090.74,210.099 1092.9,212.916 1095.07,215.65 1097.23,218.292 1099.39,220.836 1101.55,223.28 1103.71,225.625 1105.87,227.876 1108.03,230.04 1110.19,232.13 1112.35,234.16 1114.51,236.149 1116.67,238.118 1118.84,240.093 1121,242.102 1123.16,244.124 1125.32,246.119 1127.48,248.088 1129.64,250.03 1131.8,251.947 1133.96,253.839 1136.12,255.705 1138.28,257.546 1140.45,259.364 1142.61,261.157 1144.77,262.926 1146.93,264.672 1149.09,266.394 1151.25,268.094 1153.41,269.772 1155.57,271.427 1157.73,273.06 1159.89,274.672 1162.06,276.262 1164.22,277.831 1166.38,279.38 1168.54,280.908 1170.7,282.415 1172.86,283.903 1175.02,285.371 1177.18,286.819 1179.34,288.248 1181.5,289.659 1183.67,291.05 1185.83,292.423 1187.99,293.778 1190.15,295.115 1192.31,296.434 1194.47,297.735 1196.63,299.02 1198.79,300.287 1200.95,301.537 1203.11,302.771 1205.28,303.989 1207.44,305.19 1209.6,306.375 1211.76,307.545 1213.92,308.699 1216.08,309.838 1218.24,310.962 1220.4,312.07 1222.56,313.165 1224.72,314.244 1226.88,315.31 1229.05,316.361 1231.21,317.398 1233.37,318.422 1235.53,319.432 1237.69,320.429 1239.85,321.412 1242.01,322.382 1244.17,323.34 1246.33,324.285 1248.49,325.217 1250.66,326.137 1252.82,327.045 1254.98,327.941 1257.14,328.825 1259.3,329.697 1261.46,330.557 1263.62,331.407 1265.78,332.244 1267.94,333.071 1270.1,333.887 1272.27,334.692 1274.43,335.287 1276.59,335.116 1278.75,334.242 1280.91,332.768 1283.07,330.787 1285.23,328.39 1287.39,325.656 1289.55,322.662 1291.71,319.474 1293.88,316.157 1296.04,312.763 1298.2,309.342 1300.36,305.936 1302.52,302.579 1304.68,299.301 1306.84,296.123 1309,293.061 1311.16,290.122 1313.32,287.31 1315.49,284.62 1317.65,282.04 1319.81,279.553 1321.97,277.133 1324.13,274.75 1326.29,272.367 1328.45,269.939 1330.61,267.503 1332.77,265.099 1334.93,262.727 1337.09,260.386 1339.26,258.077 1341.42,255.798 1343.58,253.549 1345.74,251.33 1347.9,249.141 1350.06,246.98 1352.22,244.848 1354.38,242.745 1356.54,240.669 1358.7,238.621 1360.87,236.6 1363.03,234.606 1365.19,232.638 1367.35,230.696 1369.51,228.78 1371.67,226.89 1373.83,225.024 1375.99,223.183 1378.15,221.367 1380.31,219.575 1382.48,217.806 1384.64,216.061 1386.8,214.339 1388.96,212.64 1391.12,210.963 1393.28,209.309 1395.44,207.676 1397.6,206.065 1399.76,204.476 1401.92,202.908 1404.09,201.36 1406.25,199.833 1408.41,198.327 1410.57,196.84 1412.73,195.373 1414.89,193.925 1417.05,192.497 1419.21,191.088 1421.37,189.697 1423.53,188.325 1425.7,186.971 1427.86,185.635 1430.02,184.316 1432.18,183.015 1434.34,181.732 1436.5,180.465 1438.66,179.215 1440.82,177.982 1442.98,176.765 1445.14,175.564 1447.3,174.379 1449.47,173.21 1451.63,172.056 1453.79,170.917 1455.95,169.794 1458.11,168.686 1460.27,167.592 1462.43,166.512 1464.59,165.448 1466.75,164.397 1468.91,163.36 1471.08,162.337 1473.24,161.327 1475.4,160.331 1477.56,159.348 1479.72,158.378 1481.88,157.895 1484.04,158.982 1486.2,161.492 1488.36,165.229 1490.52,170.012 1492.69,175.67 1494.85,182.043 1497.01,188.986 1499.17,196.362 1501.33,204.048 1503.49,211.933 1505.65,219.918 1507.81,227.915 1509.97,235.848 1512.13,243.654 1514.3,251.28 1516.46,258.686 1518.62,265.844 1520.78,272.737 1522.94,279.362 1525.1,285.726 1527.26,291.847 1529.42,297.758 1531.58,303.501 1533.74,309.13 1535.91,314.714 1538.07,320.329 1540.23,326.034 1542.39,331.692 1544.55,337.274 1546.71,342.783 1548.87,348.218 1551.03,353.582 1553.19,358.874 1555.35,364.096 1557.51,369.249 1559.68,374.334 1561.84,379.351 1564,384.301 1566.16,389.186 1568.32,394.007 1570.48,398.763 1572.64,403.456 1574.8,408.088 1576.96,412.658 1579.12,417.167 1581.29,421.616 1583.45,426.007 1585.61,430.339 1587.77,434.614 1589.93,438.832 1592.09,442.994 1594.25,447.101 1596.41,451.153 1598.57,455.152 1600.73,459.098 1602.9,462.991 1605.06,466.833 1607.22,470.623 1609.38,474.364 1611.54,478.055 1613.7,481.696 1615.86,485.29 1618.02,488.836 1620.18,492.335 1622.34,495.787 1624.51,499.194 1626.67,502.556 1628.83,505.873 1630.99,509.146 1633.15,512.376 1635.31,515.563 1637.47,518.708 1639.63,521.811 1641.79,524.873 1643.95,527.894 1646.12,530.875 1648.28,533.817 1650.44,536.72 1652.6,539.584 1654.76,542.41 1656.92,545.199 1659.08,547.951 1661.24,550.666 1663.4,553.346 1665.56,555.99 1667.72,558.598 1669.89,561.173 1672.05,563.713 1674.21,566.219 1676.37,568.692 1678.53,571.132 1680.69,573.54 1682.85,575.916 1685.01,578.261 1687.17,580.574 1689.33,582.857 1691.5,585.109 1693.66,587.332 1695.82,589.525 1697.98,591.689 1700.14,593.825 1702.3,596.548 1704.46,600.449 1706.62,605.402 1708.78,611.287 1710.94,617.991 1713.11,625.406 1715.27,633.429 1717.43,641.965 1719.59,650.921 1721.75,660.214 1723.91,669.764 1726.07,679.497 1728.23,689.347 1730.39,699.251 1732.55,709.153 1734.72,719.002 1736.88,728.755 1739.04,738.372 1741.2,747.821 1743.36,757.073 1745.52,766.108 1747.68,774.91 1749.84,783.469 1752,791.781 1754.16,799.848 1756.33,807.676 1758.49,815.279 1760.65,822.676 1762.81,829.892 1764.97,836.956 1767.13,843.906 1769.29,850.784 1771.45,857.636 1773.61,864.517 1775.77,871.406 1777.93,878.205 1780.1,884.914 1782.26,891.534 1784.42,898.067 1786.58,904.512 1788.74,910.873 1790.9,917.148 1793.06,923.341 1795.22,929.452 1797.38,935.481 1799.54,941.431 1801.71,947.302 1803.87,953.094 1806.03,958.811 1808.19,964.451 1810.35,970.016 1812.51,975.508 1814.67,980.927 1816.83,986.274 1818.99,991.55 1821.15,996.757 1823.32,1001.89 1825.48,1006.96 1827.64,1011.97 1829.8,1016.9 1831.96,1021.77 1834.12,1026.58 1836.28,1031.32 1838.44,1036 1840.6,1040.61 1842.76,1045.17 1844.93,1049.67 1847.09,1054.1 1849.25,1058.48 1851.41,1062.8 1853.57,1067.06 1855.73,1071.26 1857.89,1075.41 1860.05,1079.51 1862.21,1083.55 1864.37,1087.53 1866.54,1091.47 1868.7,1095.35 1870.86,1099.18 1873.02,1102.96 1875.18,1106.69 1877.34,1110.37 1879.5,1114 1881.66,1117.58 1883.82,1121.12 1885.98,1124.61 1888.15,1128.05 1890.31,1131.44 1892.47,1134.8 1894.63,1138.1 1896.79,1141.37 1898.95,1144.59 1901.11,1147.76 1903.27,1150.9 1905.43,1153.99 1907.59,1157.04 1909.75,1160.06 1911.92,1163.03 1914.08,1165.96 1916.24,1168.59 1918.4,1169.06 1920.56,1167.24 1922.72,1163.37 1924.88,1157.67 1927.04,1150.38 1929.2,1141.7 1931.36,1131.83 1933.53,1120.95 1935.69,1109.24 1937.85,1096.87 1940.01,1083.99 1942.17,1070.73 1944.33,1057.23 1946.49,1043.6 1948.65,1029.95 1950.81,1016.38 1952.97,1002.96 1955.14,989.772 1957.3,976.874 1959.46,964.315 1961.62,952.131 1963.78,940.347 1965.94,928.979 1968.1,918.029 1970.26,907.487 1972.42,897.335 1974.58,887.539 1976.75,878.057 1978.91,868.834 1981.07,859.803 1983.23,850.888 1985.39,841.998 1987.55,833.033 1989.71,823.928 1991.87,814.899 1994.03,805.99 1996.19,797.199 1998.36,788.524 2000.52,779.965 2002.68,771.519 2004.84,763.185 2007,754.962 2009.16,746.847 2011.32,738.84 2013.48,730.94 2015.64,723.144 2017.8,715.451 2019.96,707.86 2022.13,700.37 2024.29,692.98 2026.45,685.686 2028.61,678.49 2030.77,671.388 2032.93,664.381 2035.09,657.466 2037.25,650.643 2039.41,643.91 2041.57,637.266 2043.74,630.711 2045.9,624.243 2048.06,617.86 2050.22,611.562 2052.38,605.348 2054.54,599.216 2056.7,593.166 2058.86,587.196 2061.02,581.306 2063.18,575.493 2065.35,569.758 2067.51,564.099 2069.67,558.515 2071.83,553.006 2073.99,547.569 2076.15,542.205 2078.31,536.912 2080.47,531.689 2082.63,526.536 2084.79,521.451 2086.96,516.433 2089.12,511.482 2091.28,506.597 2093.44,501.776 2095.6,497.019 2097.76,492.326 2099.92,487.694 2102.08,483.124 2104.24,478.615 2106.4,474.165 2108.57,469.774 2110.73,465.441 2112.89,461.165 2115.05,456.946 2117.21,452.783 2119.37,448.676 2121.53,444.704 2123.69,440.914 2125.85,437.289 2128.01,433.814 2130.17,430.478 2132.34,427.265 2134.5,424.165 2136.66,421.165 2138.82,418.254 2140.98,415.424 2143.14,412.664 2145.3,409.967 2147.46,407.323 2149.62,404.727 2151.78,402.172 2153.95,399.653 2156.11,397.164 2158.27,394.702 2160.43,392.264 2162.59,389.847 2164.75,387.45 2166.91,385.071 2169.07,382.71 2171.23,380.368 2173.39,378.045 2175.56,375.745 2177.72,373.47 2179.88,371.222 2182.04,369.008 2184.2,366.83 2186.36,364.695 2188.52,362.593 2190.68,360.518 2192.84,358.471 2195,356.451 2197.17,354.457 2199.33,352.49 2201.49,350.55 2203.65,348.634 2205.81,346.745 2207.97,344.88 2210.13,343.04 2212.29,341.225 2214.45,339.433 2216.61,337.665 2218.78,335.921 2220.94,334.2 2223.1,332.502 2225.26,330.826 2227.42,329.172 2229.58,327.541 2231.74,325.931 2233.9,324.342 2236.06,322.774 2238.22,321.227 2240.38,319.701 2242.55,318.195 2244.71,316.708 2246.87,315.242 2249.03,313.794 2251.19,312.366 2253.35,310.957 2255.51,309.567 2257.67,308.195 2259.83,306.841 2261.99,305.505 2264.16,304.187 2266.32,302.887 2268.48,301.603 2270.64,300.337 2272.8,299.088 2274.96,297.855 2277.12,296.638 2279.28,295.438 2281.44,294.254 2283.6,293.085 2285.77,291.932 2287.93,290.794 2290.09,289.671 2292.25,288.564 2294.41,287.47 2296.57,286.392 2298.73,285.327 2300.89,284.277 2303.05,283.241 2305.21,282.218 2307.38,281.209 2309.54,280.214 2311.7,279.231 2313.86,278.262 2316.02,277.305 2318.18,276.362 2320.34,275.43 2322.5,274.511 2324.66,273.604 2326.82,272.709 2328.99,271.826 2331.15,270.955 2333.31,270.095 2335.47,269.246 2337.63,268.409 2339.79,267.583 2341.95,266.768 2344.11,265.964 2346.27,265.17 2348.43,264.387 2350.59,263.614 2352.76,262.852 "/>
<polyline clip-path="url(#clip432)" style="stroke:#e26f46; stroke-linecap:round; stroke-linejoin:round; stroke-width:4; stroke-opacity:1; fill:none" points="193.936,549.352 196.097,549.352 198.258,549.352 200.419,549.352 202.58,549.352 204.741,549.352 206.902,549.352 209.063,549.352 211.224,549.352 213.385,549.352 215.546,549.352 217.707,549.352 219.868,549.352 222.029,549.352 224.19,549.352 226.351,549.352 228.512,549.352 230.673,549.352 232.834,549.352 234.995,549.352 237.156,549.352 239.317,549.352 241.478,549.352 243.639,549.352 245.8,549.352 247.961,549.352 250.122,549.352 252.282,549.352 254.443,549.352 256.604,549.352 258.765,549.352 260.926,549.352 263.087,549.352 265.248,549.352 267.409,549.352 269.57,549.352 271.731,549.352 273.892,549.352 276.053,549.352 278.214,549.352 280.375,549.352 282.536,549.352 284.697,549.352 286.858,549.352 289.019,549.352 291.18,549.352 293.341,549.352 295.502,549.352 297.663,549.352 299.824,549.352 301.985,549.352 304.146,549.352 306.307,549.352 308.468,549.352 310.629,549.352 312.79,549.352 314.951,549.352 317.112,549.352 319.273,549.352 321.434,549.352 323.595,549.352 325.756,549.352 327.917,549.352 330.078,549.352 332.239,549.352 334.4,549.352 336.561,549.352 338.722,549.352 340.883,549.352 343.044,549.352 345.205,549.352 347.366,549.352 349.527,549.352 351.688,549.352 353.849,549.352 356.01,549.352 358.171,549.352 360.332,549.352 362.493,549.352 364.653,549.352 366.814,549.352 368.975,549.352 371.136,549.352 373.297,549.352 375.458,549.352 377.619,549.352 379.78,549.352 381.941,549.352 384.102,549.352 386.263,549.352 388.424,549.352 390.585,549.352 392.746,549.352 394.907,549.352 397.068,549.352 399.229,549.352 401.39,549.352 403.551,549.352 405.712,549.352 407.873,549.352 410.034,98.6436 412.195,98.6436 414.356,98.6436 416.517,98.6436 418.678,98.6436 420.839,98.6436 423,98.6436 425.161,98.6436 427.322,98.6436 429.483,98.6436 431.644,98.6436 433.805,98.6436 435.966,98.6436 438.127,98.6436 440.288,98.6436 442.449,98.6436 444.61,98.6436 446.771,98.6436 448.932,98.6436 451.093,98.6436 453.254,98.6436 455.415,98.6436 457.576,98.6436 459.737,98.6436 461.898,98.6436 464.059,98.6436 466.22,98.6436 468.381,98.6436 470.542,98.6436 472.703,98.6436 474.864,98.6436 477.024,98.6436 479.185,98.6436 481.346,98.6436 483.507,98.6436 485.668,98.6436 487.829,98.6436 489.99,98.6436 492.151,98.6436 494.312,98.6436 496.473,98.6436 498.634,98.6436 500.795,98.6436 502.956,98.6436 505.117,98.6436 507.278,98.6436 509.439,98.6436 511.6,98.6436 513.761,98.6436 515.922,98.6436 518.083,98.6436 520.244,98.6436 522.405,98.6436 524.566,98.6436 526.727,98.6436 528.888,98.6436 531.049,98.6436 533.21,98.6436 535.371,98.6436 537.532,98.6436 539.693,98.6436 541.854,98.6436 544.015,98.6436 546.176,98.6436 548.337,98.6436 550.498,98.6436 552.659,98.6436 554.82,98.6436 556.981,98.6436 559.142,98.6436 561.303,98.6436 563.464,98.6436 565.625,98.6436 567.786,98.6436 569.947,98.6436 572.108,98.6436 574.269,98.6436 576.43,98.6436 578.591,98.6436 580.752,98.6436 582.913,98.6436 585.074,98.6436 587.235,98.6436 589.396,98.6436 591.556,98.6436 593.717,98.6436 595.878,98.6436 598.039,98.6436 600.2,98.6436 602.361,98.6436 604.522,98.6436 606.683,98.6436 608.844,98.6436 611.005,98.6436 613.166,98.6436 615.327,98.6436 617.488,98.6436 619.649,98.6436 621.81,98.6436 623.971,98.6436 626.132,407.59 628.293,407.59 630.454,407.59 632.615,407.59 634.776,407.59 636.937,407.59 639.098,407.59 641.259,407.59 643.42,407.59 645.581,407.59 647.742,407.59 649.903,407.59 652.064,407.59 654.225,407.59 656.386,407.59 658.547,407.59 660.708,407.59 662.869,407.59 665.03,407.59 667.191,407.59 669.352,407.59 671.513,407.59 673.674,407.59 675.835,407.59 677.996,407.59 680.157,407.59 682.318,407.59 684.479,407.59 686.64,407.59 688.801,407.59 690.962,407.59 693.123,407.59 695.284,407.59 697.445,407.59 699.606,407.59 701.767,407.59 703.927,407.59 706.088,407.59 708.249,407.59 710.41,407.59 712.571,407.59 714.732,407.59 716.893,407.59 719.054,407.59 721.215,407.59 723.376,407.59 725.537,407.59 727.698,407.59 729.859,407.59 732.02,407.59 734.181,407.59 736.342,407.59 738.503,407.59 740.664,407.59 742.825,407.59 744.986,407.59 747.147,407.59 749.308,407.59 751.469,407.59 753.63,407.59 755.791,407.59 757.952,407.59 760.113,407.59 762.274,407.59 764.435,407.59 766.596,407.59 768.757,407.59 770.918,407.59 773.079,407.59 775.24,407.59 777.401,407.59 779.562,407.59 781.723,407.59 783.884,407.59 786.045,407.59 788.206,407.59 790.367,407.59 792.528,407.59 794.689,407.59 796.85,407.59 799.011,407.59 801.172,407.59 803.333,407.59 805.494,407.59 807.655,407.59 809.816,407.59 811.977,407.59 814.138,407.59 816.298,407.59 818.459,407.59 820.62,407.59 822.781,407.59 824.942,407.59 827.103,407.59 829.264,407.59 831.425,407.59 833.586,407.59 835.747,407.59 837.908,407.59 840.069,407.59 842.23,110.106 844.391,110.106 846.552,110.106 848.713,110.106 850.874,110.106 853.035,110.106 855.196,110.106 857.357,110.106 859.518,110.106 861.679,110.106 863.84,110.106 866.001,110.106 868.162,110.106 870.323,110.106 872.484,110.106 874.645,110.106 876.806,110.106 878.967,110.106 881.128,110.106 883.289,110.106 885.45,110.106 887.611,110.106 889.772,110.106 891.933,110.106 894.094,110.106 896.255,110.106 898.416,110.106 900.577,110.106 902.738,110.106 904.899,110.106 907.06,110.106 909.221,110.106 911.382,110.106 913.543,110.106 915.704,110.106 917.865,110.106 920.026,110.106 922.187,110.106 924.348,110.106 926.509,110.106 928.669,110.106 930.83,110.106 932.991,110.106 935.152,110.106 937.313,110.106 939.474,110.106 941.635,110.106 943.796,110.106 945.957,110.106 948.118,110.106 950.279,110.106 952.44,110.106 954.601,110.106 956.762,110.106 958.923,110.106 961.084,110.106 963.245,110.106 965.406,110.106 967.567,110.106 969.728,110.106 971.889,110.106 974.05,110.106 976.211,110.106 978.372,110.106 980.533,110.106 982.694,110.106 984.855,110.106 987.016,110.106 989.177,110.106 991.338,110.106 993.499,110.106 995.66,110.106 997.821,110.106 999.982,110.106 1002.14,110.106 1004.3,110.106 1006.46,110.106 1008.63,110.106 1010.79,110.106 1012.95,110.106 1015.11,110.106 1017.27,110.106 1019.43,110.106 1021.59,110.106 1023.75,110.106 1025.91,110.106 1028.07,110.106 1030.24,110.106 1032.4,110.106 1034.56,110.106 1036.72,110.106 1038.88,110.106 1041.04,110.106 1043.2,110.106 1045.36,110.106 1047.52,110.106 1049.68,110.106 1051.85,110.106 1054.01,110.106 1056.17,110.106 1058.33,394.608 1060.49,394.608 1062.65,394.608 1064.81,394.608 1066.97,394.608 1069.13,394.608 1071.29,394.608 1073.46,394.608 1075.62,394.608 1077.78,394.608 1079.94,394.608 1082.1,394.608 1084.26,394.608 1086.42,394.608 1088.58,394.608 1090.74,394.608 1092.9,394.608 1095.07,394.608 1097.23,394.608 1099.39,394.608 1101.55,394.608 1103.71,394.608 1105.87,394.608 1108.03,394.608 1110.19,394.608 1112.35,394.608 1114.51,394.608 1116.67,394.608 1118.84,394.608 1121,394.608 1123.16,394.608 1125.32,394.608 1127.48,394.608 1129.64,394.608 1131.8,394.608 1133.96,394.608 1136.12,394.608 1138.28,394.608 1140.45,394.608 1142.61,394.608 1144.77,394.608 1146.93,394.608 1149.09,394.608 1151.25,394.608 1153.41,394.608 1155.57,394.608 1157.73,394.608 1159.89,394.608 1162.06,394.608 1164.22,394.608 1166.38,394.608 1168.54,394.608 1170.7,394.608 1172.86,394.608 1175.02,394.608 1177.18,394.608 1179.34,394.608 1181.5,394.608 1183.67,394.608 1185.83,394.608 1187.99,394.608 1190.15,394.608 1192.31,394.608 1194.47,394.608 1196.63,394.608 1198.79,394.608 1200.95,394.608 1203.11,394.608 1205.28,394.608 1207.44,394.608 1209.6,394.608 1211.76,394.608 1213.92,394.608 1216.08,394.608 1218.24,394.608 1220.4,394.608 1222.56,394.608 1224.72,394.608 1226.88,394.608 1229.05,394.608 1231.21,394.608 1233.37,394.608 1235.53,394.608 1237.69,394.608 1239.85,394.608 1242.01,394.608 1244.17,394.608 1246.33,394.608 1248.49,394.608 1250.66,394.608 1252.82,394.608 1254.98,394.608 1257.14,394.608 1259.3,394.608 1261.46,394.608 1263.62,394.608 1265.78,394.608 1267.94,394.608 1270.1,394.608 1272.27,394.608 1274.43,86.1857 1276.59,86.1857 1278.75,86.1857 1280.91,86.1857 1283.07,86.1857 1285.23,86.1857 1287.39,86.1857 1289.55,86.1857 1291.71,86.1857 1293.88,86.1857 1296.04,86.1857 1298.2,86.1857 1300.36,86.1857 1302.52,86.1857 1304.68,86.1857 1306.84,86.1857 1309,86.1857 1311.16,86.1857 1313.32,86.1857 1315.49,86.1857 1317.65,86.1857 1319.81,86.1857 1321.97,86.1857 1324.13,86.1857 1326.29,86.1857 1328.45,86.1857 1330.61,86.1857 1332.77,86.1857 1334.93,86.1857 1337.09,86.1857 1339.26,86.1857 1341.42,86.1857 1343.58,86.1857 1345.74,86.1857 1347.9,86.1857 1350.06,86.1857 1352.22,86.1857 1354.38,86.1857 1356.54,86.1857 1358.7,86.1857 1360.87,86.1857 1363.03,86.1857 1365.19,86.1857 1367.35,86.1857 1369.51,86.1857 1371.67,86.1857 1373.83,86.1857 1375.99,86.1857 1378.15,86.1857 1380.31,86.1857 1382.48,86.1857 1384.64,86.1857 1386.8,86.1857 1388.96,86.1857 1391.12,86.1857 1393.28,86.1857 1395.44,86.1857 1397.6,86.1857 1399.76,86.1857 1401.92,86.1857 1404.09,86.1857 1406.25,86.1857 1408.41,86.1857 1410.57,86.1857 1412.73,86.1857 1414.89,86.1857 1417.05,86.1857 1419.21,86.1857 1421.37,86.1857 1423.53,86.1857 1425.7,86.1857 1427.86,86.1857 1430.02,86.1857 1432.18,86.1857 1434.34,86.1857 1436.5,86.1857 1438.66,86.1857 1440.82,86.1857 1442.98,86.1857 1445.14,86.1857 1447.3,86.1857 1449.47,86.1857 1451.63,86.1857 1453.79,86.1857 1455.95,86.1857 1458.11,86.1857 1460.27,86.1857 1462.43,86.1857 1464.59,86.1857 1466.75,86.1857 1468.91,86.1857 1471.08,86.1857 1473.24,86.1857 1475.4,86.1857 1477.56,86.1857 1479.72,86.1857 1481.88,86.1857 1484.04,86.1857 1486.2,86.1857 1488.36,86.1857 1490.52,752.758 1492.69,752.758 1494.85,752.758 1497.01,752.758 1499.17,752.758 1501.33,752.758 1503.49,752.758 1505.65,752.758 1507.81,752.758 1509.97,752.758 1512.13,752.758 1514.3,752.758 1516.46,752.758 1518.62,752.758 1520.78,752.758 1522.94,752.758 1525.1,752.758 1527.26,752.758 1529.42,752.758 1531.58,752.758 1533.74,752.758 1535.91,752.758 1538.07,752.758 1540.23,752.758 1542.39,752.758 1544.55,752.758 1546.71,752.758 1548.87,752.758 1551.03,752.758 1553.19,752.758 1555.35,752.758 1557.51,752.758 1559.68,752.758 1561.84,752.758 1564,752.758 1566.16,752.758 1568.32,752.758 1570.48,752.758 1572.64,752.758 1574.8,752.758 1576.96,752.758 1579.12,752.758 1581.29,752.758 1583.45,752.758 1585.61,752.758 1587.77,752.758 1589.93,752.758 1592.09,752.758 1594.25,752.758 1596.41,752.758 1598.57,752.758 1600.73,752.758 1602.9,752.758 1605.06,752.758 1607.22,752.758 1609.38,752.758 1611.54,752.758 1613.7,752.758 1615.86,752.758 1618.02,752.758 1620.18,752.758 1622.34,752.758 1624.51,752.758 1626.67,752.758 1628.83,752.758 1630.99,752.758 1633.15,752.758 1635.31,752.758 1637.47,752.758 1639.63,752.758 1641.79,752.758 1643.95,752.758 1646.12,752.758 1648.28,752.758 1650.44,752.758 1652.6,752.758 1654.76,752.758 1656.92,752.758 1659.08,752.758 1661.24,752.758 1663.4,752.758 1665.56,752.758 1667.72,752.758 1669.89,752.758 1672.05,752.758 1674.21,752.758 1676.37,752.758 1678.53,752.758 1680.69,752.758 1682.85,752.758 1685.01,752.758 1687.17,752.758 1689.33,752.758 1691.5,752.758 1693.66,752.758 1695.82,752.758 1697.98,752.758 1700.14,752.758 1702.3,752.758 1704.46,752.758 1706.62,1384.24 1708.78,1384.24 1710.94,1384.24 1713.11,1384.24 1715.27,1384.24 1717.43,1384.24 1719.59,1384.24 1721.75,1384.24 1723.91,1384.24 1726.07,1384.24 1728.23,1384.24 1730.39,1384.24 1732.55,1384.24 1734.72,1384.24 1736.88,1384.24 1739.04,1384.24 1741.2,1384.24 1743.36,1384.24 1745.52,1384.24 1747.68,1384.24 1749.84,1384.24 1752,1384.24 1754.16,1384.24 1756.33,1384.24 1758.49,1384.24 1760.65,1384.24 1762.81,1384.24 1764.97,1384.24 1767.13,1384.24 1769.29,1384.24 1771.45,1384.24 1773.61,1384.24 1775.77,1384.24 1777.93,1384.24 1780.1,1384.24 1782.26,1384.24 1784.42,1384.24 1786.58,1384.24 1788.74,1384.24 1790.9,1384.24 1793.06,1384.24 1795.22,1384.24 1797.38,1384.24 1799.54,1384.24 1801.71,1384.24 1803.87,1384.24 1806.03,1384.24 1808.19,1384.24 1810.35,1384.24 1812.51,1384.24 1814.67,1384.24 1816.83,1384.24 1818.99,1384.24 1821.15,1384.24 1823.32,1384.24 1825.48,1384.24 1827.64,1384.24 1829.8,1384.24 1831.96,1384.24 1834.12,1384.24 1836.28,1384.24 1838.44,1384.24 1840.6,1384.24 1842.76,1384.24 1844.93,1384.24 1847.09,1384.24 1849.25,1384.24 1851.41,1384.24 1853.57,1384.24 1855.73,1384.24 1857.89,1384.24 1860.05,1384.24 1862.21,1384.24 1864.37,1384.24 1866.54,1384.24 1868.7,1384.24 1870.86,1384.24 1873.02,1384.24 1875.18,1384.24 1877.34,1384.24 1879.5,1384.24 1881.66,1384.24 1883.82,1384.24 1885.98,1384.24 1888.15,1384.24 1890.31,1384.24 1892.47,1384.24 1894.63,1384.24 1896.79,1384.24 1898.95,1384.24 1901.11,1384.24 1903.27,1384.24 1905.43,1384.24 1907.59,1384.24 1909.75,1384.24 1911.92,1384.24 1914.08,1384.24 1916.24,1384.24 1918.4,1384.24 1920.56,1384.24 1922.72,142.919 1924.88,142.919 1927.04,142.919 1929.2,142.919 1931.36,142.919 1933.53,142.919 1935.69,142.919 1937.85,142.919 1940.01,142.919 1942.17,142.919 1944.33,142.919 1946.49,142.919 1948.65,142.919 1950.81,142.919 1952.97,142.919 1955.14,142.919 1957.3,142.919 1959.46,142.919 1961.62,142.919 1963.78,142.919 1965.94,142.919 1968.1,142.919 1970.26,142.919 1972.42,142.919 1974.58,142.919 1976.75,142.919 1978.91,142.919 1981.07,142.919 1983.23,142.919 1985.39,142.919 1987.55,142.919 1989.71,142.919 1991.87,142.919 1994.03,142.919 1996.19,142.919 1998.36,142.919 2000.52,142.919 2002.68,142.919 2004.84,142.919 2007,142.919 2009.16,142.919 2011.32,142.919 2013.48,142.919 2015.64,142.919 2017.8,142.919 2019.96,142.919 2022.13,142.919 2024.29,142.919 2026.45,142.919 2028.61,142.919 2030.77,142.919 2032.93,142.919 2035.09,142.919 2037.25,142.919 2039.41,142.919 2041.57,142.919 2043.74,142.919 2045.9,142.919 2048.06,142.919 2050.22,142.919 2052.38,142.919 2054.54,142.919 2056.7,142.919 2058.86,142.919 2061.02,142.919 2063.18,142.919 2065.35,142.919 2067.51,142.919 2069.67,142.919 2071.83,142.919 2073.99,142.919 2076.15,142.919 2078.31,142.919 2080.47,142.919 2082.63,142.919 2084.79,142.919 2086.96,142.919 2089.12,142.919 2091.28,142.919 2093.44,142.919 2095.6,142.919 2097.76,142.919 2099.92,142.919 2102.08,142.919 2104.24,142.919 2106.4,142.919 2108.57,142.919 2110.73,142.919 2112.89,142.919 2115.05,142.919 2117.21,142.919 2119.37,142.919 2121.53,142.919 2123.69,142.919 2125.85,142.919 2128.01,142.919 2130.17,142.919 2132.34,142.919 2134.5,142.919 2136.66,142.919 2138.82,206.101 2140.98,206.101 2143.14,206.101 2145.3,206.101 2147.46,206.101 2149.62,206.101 2151.78,206.101 2153.95,206.101 2156.11,206.101 2158.27,206.101 2160.43,206.101 2162.59,206.101 2164.75,206.101 2166.91,206.101 2169.07,206.101 2171.23,206.101 2173.39,206.101 2175.56,206.101 2177.72,206.101 2179.88,206.101 2182.04,206.101 2184.2,206.101 2186.36,206.101 2188.52,206.101 2190.68,206.101 2192.84,206.101 2195,206.101 2197.17,206.101 2199.33,206.101 2201.49,206.101 2203.65,206.101 2205.81,206.101 2207.97,206.101 2210.13,206.101 2212.29,206.101 2214.45,206.101 2216.61,206.101 2218.78,206.101 2220.94,206.101 2223.1,206.101 2225.26,206.101 2227.42,206.101 2229.58,206.101 2231.74,206.101 2233.9,206.101 2236.06,206.101 2238.22,206.101 2240.38,206.101 2242.55,206.101 2244.71,206.101 2246.87,206.101 2249.03,206.101 2251.19,206.101 2253.35,206.101 2255.51,206.101 2257.67,206.101 2259.83,206.101 2261.99,206.101 2264.16,206.101 2266.32,206.101 2268.48,206.101 2270.64,206.101 2272.8,206.101 2274.96,206.101 2277.12,206.101 2279.28,206.101 2281.44,206.101 2283.6,206.101 2285.77,206.101 2287.93,206.101 2290.09,206.101 2292.25,206.101 2294.41,206.101 2296.57,206.101 2298.73,206.101 2300.89,206.101 2303.05,206.101 2305.21,206.101 2307.38,206.101 2309.54,206.101 2311.7,206.101 2313.86,206.101 2316.02,206.101 2318.18,206.101 2320.34,206.101 2322.5,206.101 2324.66,206.101 2326.82,206.101 2328.99,206.101 2331.15,206.101 2333.31,206.101 2335.47,206.101 2337.63,206.101 2339.79,206.101 2341.95,206.101 2344.11,206.101 2346.27,206.101 2348.43,206.101 2350.59,206.101 2352.76,206.101 "/>
<path clip-path="url(#clip430)" d="M265.897 1377.32 L506.917 1377.32 L506.917 1221.8 L265.897 1221.8  Z" fill="#ffffff" fill-rule="evenodd" fill-opacity="1"/>
<polyline clip-path="url(#clip430)" style="stroke:#000000; stroke-linecap:round; stroke-linejoin:round; stroke-width:4; stroke-opacity:1; fill:none" points="265.897,1377.32 506.917,1377.32 506.917,1221.8 265.897,1221.8 265.897,1377.32 "/>
<polyline clip-path="url(#clip430)" style="stroke:#009af9; stroke-linecap:round; stroke-linejoin:round; stroke-width:4; stroke-opacity:1; fill:none" points="289.884,1273.64 433.805,1273.64 "/>
<path clip-path="url(#clip430)" d="M482.444 1264.99 L473.069 1277.61 L482.931 1290.92 L477.907 1290.92 L470.361 1280.73 L462.815 1290.92 L457.792 1290.92 L467.861 1277.35 L458.648 1264.99 L463.671 1264.99 L470.546 1274.23 L477.421 1264.99 L482.444 1264.99 Z" fill="#000000" fill-rule="nonzero" fill-opacity="1" /><polyline clip-path="url(#clip430)" style="stroke:#e26f46; stroke-linecap:round; stroke-linejoin:round; stroke-width:4; stroke-opacity:1; fill:none" points="289.884,1325.48 433.805,1325.48 "/>
<path clip-path="url(#clip430)" d="M474.296 1306.74 L474.296 1310.28 L470.222 1310.28 Q467.931 1310.28 467.028 1311.2 Q466.148 1312.13 466.148 1314.54 L466.148 1316.83 L473.162 1316.83 L473.162 1320.14 L466.148 1320.14 L466.148 1342.76 L461.866 1342.76 L461.866 1320.14 L457.792 1320.14 L457.792 1316.83 L461.866 1316.83 L461.866 1315.02 Q461.866 1310.7 463.88 1308.73 Q465.894 1306.74 470.269 1306.74 L474.296 1306.74 Z" fill="#000000" fill-rule="nonzero" fill-opacity="1" /></svg>
