<?xml version="1.0" encoding="utf-8"?>
<svg xmlns="http://www.w3.org/2000/svg" xmlns:xlink="http://www.w3.org/1999/xlink" width="600" height="400" viewBox="0 0 2400 1600">
<defs>
  <clipPath id="clip580">
    <rect x="0" y="0" width="2400" height="1600"/>
  </clipPath>
</defs>
<path clip-path="url(#clip580)" d="M0 1600 L2400 1600 L2400 0 L0 0  Z" fill="#ffffff" fill-rule="evenodd" fill-opacity="1"/>
<defs>
  <clipPath id="clip581">
    <rect x="112" y="47" width="2242" height="1440"/>
  </clipPath>
</defs>
<path clip-path="url(#clip581)" d="M-733.338 2653.21 L-733.338 2361.47 L-384.68 2215.59 L219.212 2299.81 L219.212 2591.56 L-129.446 2737.44 L-733.338 2653.21  Z" fill="#ffffff" fill-rule="evenodd" fill-opacity="1"/>
<polyline clip-path="url(#clip581)" style="stroke:#000000; stroke-linecap:round; stroke-linejoin:round; stroke-width:2; stroke-opacity:0.1; fill:none" points="697.319,1212.03 1112.78,852.23 1112.78,132.628 "/>
<polyline clip-path="url(#clip581)" style="stroke:#000000; stroke-linecap:round; stroke-linejoin:round; stroke-width:2; stroke-opacity:0.1; fill:none" points="848.292,1255.61 1263.75,895.812 1263.75,176.21 "/>
<polyline clip-path="url(#clip581)" style="stroke:#000000; stroke-linecap:round; stroke-linejoin:round; stroke-width:2; stroke-opacity:0.1; fill:none" points="999.265,1299.19 1414.73,939.394 1414.73,219.792 "/>
<polyline clip-path="url(#clip581)" style="stroke:#000000; stroke-linecap:round; stroke-linejoin:round; stroke-width:2; stroke-opacity:0.1; fill:none" points="1150.24,1342.78 1565.7,982.976 1565.7,263.374 "/>
<polyline clip-path="url(#clip581)" style="stroke:#000000; stroke-linecap:round; stroke-linejoin:round; stroke-width:2; stroke-opacity:0.1; fill:none" points="1301.21,1386.36 1716.67,1026.56 1716.67,306.956 "/>
<polyline clip-path="url(#clip581)" style="stroke:#000000; stroke-linecap:round; stroke-linejoin:round; stroke-width:2; stroke-opacity:0.1; fill:none" points="1435.61,1366.18 716.009,1158.45 716.009,438.848 "/>
<polyline clip-path="url(#clip581)" style="stroke:#000000; stroke-linecap:round; stroke-linejoin:round; stroke-width:2; stroke-opacity:0.1; fill:none" points="1519.83,1293.24 800.229,1085.51 800.229,365.911 "/>
<polyline clip-path="url(#clip581)" style="stroke:#000000; stroke-linecap:round; stroke-linejoin:round; stroke-width:2; stroke-opacity:0.1; fill:none" points="1604.05,1220.31 884.45,1012.58 884.45,292.974 "/>
<polyline clip-path="url(#clip581)" style="stroke:#000000; stroke-linecap:round; stroke-linejoin:round; stroke-width:2; stroke-opacity:0.1; fill:none" points="1688.27,1147.37 968.67,939.639 968.67,220.037 "/>
<polyline clip-path="url(#clip581)" style="stroke:#000000; stroke-linecap:round; stroke-linejoin:round; stroke-width:2; stroke-opacity:0.1; fill:none" points="1772.49,1074.43 1052.89,866.702 1052.89,147.1 "/>
<polyline clip-path="url(#clip581)" style="stroke:#000000; stroke-linecap:round; stroke-linejoin:round; stroke-width:2; stroke-opacity:0.1; fill:none" points="664.934,1098.63 1080.4,738.824 1800,946.555 "/>
<polyline clip-path="url(#clip581)" style="stroke:#000000; stroke-linecap:round; stroke-linejoin:round; stroke-width:2; stroke-opacity:0.1; fill:none" points="664.934,976.205 1080.4,616.404 1800,824.135 "/>
<polyline clip-path="url(#clip581)" style="stroke:#000000; stroke-linecap:round; stroke-linejoin:round; stroke-width:2; stroke-opacity:0.1; fill:none" points="664.934,853.785 1080.4,493.984 1800,701.715 "/>
<polyline clip-path="url(#clip581)" style="stroke:#000000; stroke-linecap:round; stroke-linejoin:round; stroke-width:2; stroke-opacity:0.1; fill:none" points="664.934,731.364 1080.4,371.563 1800,579.294 "/>
<polyline clip-path="url(#clip581)" style="stroke:#000000; stroke-linecap:round; stroke-linejoin:round; stroke-width:2; stroke-opacity:0.1; fill:none" points="664.934,608.944 1080.4,249.143 1800,456.874 "/>
<polyline clip-path="url(#clip581)" style="stroke:#000000; stroke-linecap:round; stroke-linejoin:round; stroke-width:2; stroke-opacity:0.1; fill:none" points="664.934,486.524 1080.4,126.723 1800,334.454 "/>
<polyline clip-path="url(#clip580)" style="stroke:#000000; stroke-linecap:round; stroke-linejoin:round; stroke-width:4; stroke-opacity:1; fill:none" points="664.934,1202.68 1384.54,1410.41 "/>
<polyline clip-path="url(#clip580)" style="stroke:#000000; stroke-linecap:round; stroke-linejoin:round; stroke-width:4; stroke-opacity:1; fill:none" points="697.319,1212.03 702.305,1207.71 "/>
<polyline clip-path="url(#clip580)" style="stroke:#000000; stroke-linecap:round; stroke-linejoin:round; stroke-width:4; stroke-opacity:1; fill:none" points="848.292,1255.61 853.278,1251.3 "/>
<polyline clip-path="url(#clip580)" style="stroke:#000000; stroke-linecap:round; stroke-linejoin:round; stroke-width:4; stroke-opacity:1; fill:none" points="999.265,1299.19 1004.25,1294.88 "/>
<polyline clip-path="url(#clip580)" style="stroke:#000000; stroke-linecap:round; stroke-linejoin:round; stroke-width:4; stroke-opacity:1; fill:none" points="1150.24,1342.78 1155.22,1338.46 "/>
<polyline clip-path="url(#clip580)" style="stroke:#000000; stroke-linecap:round; stroke-linejoin:round; stroke-width:4; stroke-opacity:1; fill:none" points="1301.21,1386.36 1306.2,1382.04 "/>
<path clip-path="url(#clip580)" d="M637.161 1226.35 Q633.55 1226.35 631.721 1229.92 Q629.916 1233.46 629.916 1240.59 Q629.916 1247.7 631.721 1251.26 Q633.55 1254.8 637.161 1254.8 Q640.795 1254.8 642.601 1251.26 Q644.43 1247.7 644.43 1240.59 Q644.43 1233.46 642.601 1229.92 Q640.795 1226.35 637.161 1226.35 M637.161 1222.65 Q642.971 1222.65 646.027 1227.26 Q649.105 1231.84 649.105 1240.59 Q649.105 1249.32 646.027 1253.92 Q642.971 1258.51 637.161 1258.51 Q631.351 1258.51 628.272 1253.92 Q625.217 1249.32 625.217 1240.59 Q625.217 1231.84 628.272 1227.26 Q631.351 1222.65 637.161 1222.65 Z" fill="#000000" fill-rule="nonzero" fill-opacity="1" /><path clip-path="url(#clip580)" d="M657.323 1251.95 L662.207 1251.95 L662.207 1257.83 L657.323 1257.83 L657.323 1251.95 Z" fill="#000000" fill-rule="nonzero" fill-opacity="1" /><path clip-path="url(#clip580)" d="M672.439 1223.27 L690.795 1223.27 L690.795 1227.21 L676.721 1227.21 L676.721 1235.68 Q677.74 1235.33 678.758 1235.17 Q679.777 1234.99 680.795 1234.99 Q686.582 1234.99 689.962 1238.16 Q693.341 1241.33 693.341 1246.75 Q693.341 1252.33 689.869 1255.43 Q686.397 1258.51 680.078 1258.51 Q677.902 1258.51 675.633 1258.14 Q673.388 1257.77 670.98 1257.02 L670.98 1252.33 Q673.064 1253.46 675.286 1254.02 Q677.508 1254.57 679.985 1254.57 Q683.99 1254.57 686.327 1252.46 Q688.665 1250.36 688.665 1246.75 Q688.665 1243.14 686.327 1241.03 Q683.99 1238.92 679.985 1238.92 Q678.11 1238.92 676.235 1239.34 Q674.383 1239.76 672.439 1240.64 L672.439 1223.27 Z" fill="#000000" fill-rule="nonzero" fill-opacity="1" /><path clip-path="url(#clip580)" d="M777.949 1297.48 L785.588 1297.48 L785.588 1271.12 L777.278 1272.78 L777.278 1268.52 L785.541 1266.86 L790.217 1266.86 L790.217 1297.48 L797.856 1297.48 L797.856 1301.42 L777.949 1301.42 L777.949 1297.48 Z" fill="#000000" fill-rule="nonzero" fill-opacity="1" /><path clip-path="url(#clip580)" d="M807.301 1295.54 L812.185 1295.54 L812.185 1301.42 L807.301 1301.42 L807.301 1295.54 Z" fill="#000000" fill-rule="nonzero" fill-opacity="1" /><path clip-path="url(#clip580)" d="M832.37 1269.94 Q828.759 1269.94 826.93 1273.5 Q825.125 1277.04 825.125 1284.17 Q825.125 1291.28 826.93 1294.84 Q828.759 1298.38 832.37 1298.38 Q836.004 1298.38 837.81 1294.84 Q839.638 1291.28 839.638 1284.17 Q839.638 1277.04 837.81 1273.5 Q836.004 1269.94 832.37 1269.94 M832.37 1266.23 Q838.18 1266.23 841.236 1270.84 Q844.314 1275.42 844.314 1284.17 Q844.314 1292.9 841.236 1297.5 Q838.18 1302.09 832.37 1302.09 Q826.56 1302.09 823.481 1297.5 Q820.426 1292.9 820.426 1284.17 Q820.426 1275.42 823.481 1270.84 Q826.56 1266.23 832.37 1266.23 Z" fill="#000000" fill-rule="nonzero" fill-opacity="1" /><path clip-path="url(#clip580)" d="M929.917 1341.06 L937.556 1341.06 L937.556 1314.7 L929.246 1316.36 L929.246 1312.11 L937.51 1310.44 L942.186 1310.44 L942.186 1341.06 L949.825 1341.06 L949.825 1345 L929.917 1345 L929.917 1341.06 Z" fill="#000000" fill-rule="nonzero" fill-opacity="1" /><path clip-path="url(#clip580)" d="M959.269 1339.12 L964.153 1339.12 L964.153 1345 L959.269 1345 L959.269 1339.12 Z" fill="#000000" fill-rule="nonzero" fill-opacity="1" /><path clip-path="url(#clip580)" d="M974.385 1310.44 L992.741 1310.44 L992.741 1314.37 L978.667 1314.37 L978.667 1322.85 Q979.686 1322.5 980.704 1322.34 Q981.723 1322.15 982.741 1322.15 Q988.528 1322.15 991.908 1325.32 Q995.287 1328.49 995.287 1333.91 Q995.287 1339.49 991.815 1342.59 Q988.343 1345.67 982.024 1345.67 Q979.848 1345.67 977.579 1345.3 Q975.334 1344.93 972.926 1344.19 L972.926 1339.49 Q975.01 1340.62 977.232 1341.18 Q979.454 1341.73 981.931 1341.73 Q985.936 1341.73 988.273 1339.63 Q990.611 1337.52 990.611 1333.91 Q990.611 1330.3 988.273 1328.19 Q985.936 1326.09 981.931 1326.09 Q980.056 1326.09 978.181 1326.5 Q976.329 1326.92 974.385 1327.8 L974.385 1310.44 Z" fill="#000000" fill-rule="nonzero" fill-opacity="1" /><path clip-path="url(#clip580)" d="M1083.11 1384.65 L1099.43 1384.65 L1099.43 1388.58 L1077.49 1388.58 L1077.49 1384.65 Q1080.15 1381.89 1084.73 1377.26 Q1089.34 1372.61 1090.52 1371.27 Q1092.77 1368.74 1093.64 1367.01 Q1094.55 1365.25 1094.55 1363.56 Q1094.55 1360.8 1092.6 1359.07 Q1090.68 1357.33 1087.58 1357.33 Q1085.38 1357.33 1082.93 1358.09 Q1080.5 1358.86 1077.72 1360.41 L1077.72 1355.69 Q1080.54 1354.55 1083 1353.97 Q1085.45 1353.4 1087.49 1353.4 Q1092.86 1353.4 1096.05 1356.08 Q1099.25 1358.77 1099.25 1363.26 Q1099.25 1365.39 1098.44 1367.31 Q1097.65 1369.21 1095.54 1371.8 Q1094.96 1372.47 1091.86 1375.69 Q1088.76 1378.88 1083.11 1384.65 Z" fill="#000000" fill-rule="nonzero" fill-opacity="1" /><path clip-path="url(#clip580)" d="M1109.25 1382.7 L1114.13 1382.7 L1114.13 1388.58 L1109.25 1388.58 L1109.25 1382.7 Z" fill="#000000" fill-rule="nonzero" fill-opacity="1" /><path clip-path="url(#clip580)" d="M1134.32 1357.1 Q1130.7 1357.1 1128.88 1360.66 Q1127.07 1364.21 1127.07 1371.34 Q1127.07 1378.44 1128.88 1382.01 Q1130.7 1385.55 1134.32 1385.55 Q1137.95 1385.55 1139.76 1382.01 Q1141.58 1378.44 1141.58 1371.34 Q1141.58 1364.21 1139.76 1360.66 Q1137.95 1357.1 1134.32 1357.1 M1134.32 1353.4 Q1140.13 1353.4 1143.18 1358 Q1146.26 1362.59 1146.26 1371.34 Q1146.26 1380.06 1143.18 1384.67 Q1140.13 1389.25 1134.32 1389.25 Q1128.51 1389.25 1125.43 1384.67 Q1122.37 1380.06 1122.37 1371.34 Q1122.37 1362.59 1125.43 1358 Q1128.51 1353.4 1134.32 1353.4 Z" fill="#000000" fill-rule="nonzero" fill-opacity="1" /><path clip-path="url(#clip580)" d="M1235.08 1428.23 L1251.4 1428.23 L1251.4 1432.16 L1229.46 1432.16 L1229.46 1428.23 Q1232.12 1425.47 1236.7 1420.84 Q1241.31 1416.19 1242.49 1414.85 Q1244.73 1412.33 1245.61 1410.59 Q1246.52 1408.83 1246.52 1407.14 Q1246.52 1404.39 1244.57 1402.65 Q1242.65 1400.91 1239.55 1400.91 Q1237.35 1400.91 1234.9 1401.68 Q1232.47 1402.44 1229.69 1403.99 L1229.69 1399.27 Q1232.51 1398.14 1234.97 1397.56 Q1237.42 1396.98 1239.46 1396.98 Q1244.83 1396.98 1248.02 1399.66 Q1251.22 1402.35 1251.22 1406.84 Q1251.22 1408.97 1250.4 1410.89 Q1249.62 1412.79 1247.51 1415.38 Q1246.93 1416.05 1243.83 1419.27 Q1240.73 1422.46 1235.08 1428.23 Z" fill="#000000" fill-rule="nonzero" fill-opacity="1" /><path clip-path="url(#clip580)" d="M1261.21 1426.28 L1266.1 1426.28 L1266.1 1432.16 L1261.21 1432.16 L1261.21 1426.28 Z" fill="#000000" fill-rule="nonzero" fill-opacity="1" /><path clip-path="url(#clip580)" d="M1276.33 1397.6 L1294.69 1397.6 L1294.69 1401.54 L1280.61 1401.54 L1280.61 1410.01 Q1281.63 1409.66 1282.65 1409.5 Q1283.67 1409.32 1284.69 1409.32 Q1290.47 1409.32 1293.85 1412.49 Q1297.23 1415.66 1297.23 1421.08 Q1297.23 1426.65 1293.76 1429.76 Q1290.29 1432.83 1283.97 1432.83 Q1281.79 1432.83 1279.53 1432.46 Q1277.28 1432.09 1274.87 1431.35 L1274.87 1426.65 Q1276.96 1427.79 1279.18 1428.34 Q1281.4 1428.9 1283.88 1428.9 Q1287.88 1428.9 1290.22 1426.79 Q1292.56 1424.69 1292.56 1421.08 Q1292.56 1417.46 1290.22 1415.36 Q1287.88 1413.25 1283.88 1413.25 Q1282 1413.25 1280.13 1413.67 Q1278.28 1414.08 1276.33 1414.96 L1276.33 1397.6 Z" fill="#000000" fill-rule="nonzero" fill-opacity="1" /><polyline clip-path="url(#clip580)" style="stroke:#000000; stroke-linecap:round; stroke-linejoin:round; stroke-width:4; stroke-opacity:1; fill:none" points="1384.54,1410.41 1800,1050.61 "/>
<polyline clip-path="url(#clip580)" style="stroke:#000000; stroke-linecap:round; stroke-linejoin:round; stroke-width:4; stroke-opacity:1; fill:none" points="1435.61,1366.18 1426.98,1363.69 "/>
<polyline clip-path="url(#clip580)" style="stroke:#000000; stroke-linecap:round; stroke-linejoin:round; stroke-width:4; stroke-opacity:1; fill:none" points="1519.83,1293.24 1511.2,1290.75 "/>
<polyline clip-path="url(#clip580)" style="stroke:#000000; stroke-linecap:round; stroke-linejoin:round; stroke-width:4; stroke-opacity:1; fill:none" points="1604.05,1220.31 1595.42,1217.81 "/>
<polyline clip-path="url(#clip580)" style="stroke:#000000; stroke-linecap:round; stroke-linejoin:round; stroke-width:4; stroke-opacity:1; fill:none" points="1688.27,1147.37 1679.64,1144.88 "/>
<polyline clip-path="url(#clip580)" style="stroke:#000000; stroke-linecap:round; stroke-linejoin:round; stroke-width:4; stroke-opacity:1; fill:none" points="1772.49,1074.43 1763.86,1071.94 "/>
<path clip-path="url(#clip580)" d="M1462.33 1379.54 L1450.52 1397.99 L1462.33 1397.99 L1462.33 1379.54 M1461.1 1375.47 L1466.98 1375.47 L1466.98 1397.99 L1471.91 1397.99 L1471.91 1401.88 L1466.98 1401.88 L1466.98 1410.03 L1462.33 1410.03 L1462.33 1401.88 L1446.73 1401.88 L1446.73 1397.37 L1461.1 1375.47 Z" fill="#000000" fill-rule="nonzero" fill-opacity="1" /><path clip-path="url(#clip580)" d="M1532.41 1302.53 L1550.76 1302.53 L1550.76 1306.47 L1536.69 1306.47 L1536.69 1314.94 Q1537.71 1314.59 1538.72 1314.43 Q1539.74 1314.25 1540.76 1314.25 Q1546.55 1314.25 1549.93 1317.42 Q1553.31 1320.59 1553.31 1326 Q1553.31 1331.58 1549.84 1334.69 Q1546.36 1337.76 1540.04 1337.76 Q1537.87 1337.76 1535.6 1337.39 Q1533.35 1337.02 1530.95 1336.28 L1530.95 1331.58 Q1533.03 1332.72 1535.25 1333.27 Q1537.47 1333.83 1539.95 1333.83 Q1543.96 1333.83 1546.29 1331.72 Q1548.63 1329.62 1548.63 1326 Q1548.63 1322.39 1546.29 1320.29 Q1543.96 1318.18 1539.95 1318.18 Q1538.08 1318.18 1536.2 1318.6 Q1534.35 1319.01 1532.41 1319.89 L1532.41 1302.53 Z" fill="#000000" fill-rule="nonzero" fill-opacity="1" /><path clip-path="url(#clip580)" d="M1627.51 1245.01 Q1624.36 1245.01 1622.51 1247.16 Q1620.68 1249.32 1620.68 1253.07 Q1620.68 1256.79 1622.51 1258.97 Q1624.36 1261.12 1627.51 1261.12 Q1630.65 1261.12 1632.48 1258.97 Q1634.33 1256.79 1634.33 1253.07 Q1634.33 1249.32 1632.48 1247.16 Q1630.65 1245.01 1627.51 1245.01 M1636.79 1230.36 L1636.79 1234.62 Q1635.03 1233.79 1633.22 1233.35 Q1631.44 1232.91 1629.68 1232.91 Q1625.05 1232.91 1622.6 1236.03 Q1620.17 1239.16 1619.82 1245.48 Q1621.19 1243.46 1623.25 1242.4 Q1625.31 1241.31 1627.78 1241.31 Q1632.99 1241.31 1636 1244.48 Q1639.03 1247.63 1639.03 1253.07 Q1639.03 1258.39 1635.88 1261.61 Q1632.74 1264.83 1627.51 1264.83 Q1621.51 1264.83 1618.34 1260.24 Q1615.17 1255.64 1615.17 1246.91 Q1615.17 1238.72 1619.06 1233.85 Q1622.95 1228.97 1629.5 1228.97 Q1631.26 1228.97 1633.04 1229.32 Q1634.84 1229.66 1636.79 1230.36 Z" fill="#000000" fill-rule="nonzero" fill-opacity="1" /><path clip-path="url(#clip580)" d="M1699.39 1156.66 L1721.61 1156.66 L1721.61 1158.65 L1709.06 1191.22 L1704.18 1191.22 L1715.99 1160.59 L1699.39 1160.59 L1699.39 1156.66 Z" fill="#000000" fill-rule="nonzero" fill-opacity="1" /><path clip-path="url(#clip580)" d="M1795.46 1101.87 Q1792.13 1101.87 1790.21 1103.65 Q1788.31 1105.43 1788.31 1108.56 Q1788.31 1111.68 1790.21 1113.47 Q1792.13 1115.25 1795.46 1115.25 Q1798.79 1115.25 1800.71 1113.47 Q1802.64 1111.66 1802.64 1108.56 Q1802.64 1105.43 1800.71 1103.65 Q1798.82 1101.87 1795.46 1101.87 M1790.78 1099.88 Q1787.78 1099.14 1786.09 1097.08 Q1784.42 1095.02 1784.42 1092.05 Q1784.42 1087.91 1787.36 1085.5 Q1790.32 1083.1 1795.46 1083.1 Q1800.62 1083.1 1803.56 1085.5 Q1806.5 1087.91 1806.5 1092.05 Q1806.5 1095.02 1804.81 1097.08 Q1803.15 1099.14 1800.16 1099.88 Q1803.54 1100.67 1805.41 1102.96 Q1807.31 1105.25 1807.31 1108.56 Q1807.31 1113.58 1804.23 1116.27 Q1801.18 1118.95 1795.46 1118.95 Q1789.74 1118.95 1786.66 1116.27 Q1783.61 1113.58 1783.61 1108.56 Q1783.61 1105.25 1785.51 1102.96 Q1787.4 1100.67 1790.78 1099.88 M1789.07 1092.49 Q1789.07 1095.18 1790.74 1096.68 Q1792.43 1098.19 1795.46 1098.19 Q1798.47 1098.19 1800.16 1096.68 Q1801.87 1095.18 1801.87 1092.49 Q1801.87 1089.81 1800.16 1088.3 Q1798.47 1086.8 1795.46 1086.8 Q1792.43 1086.8 1790.74 1088.3 Q1789.07 1089.81 1789.07 1092.49 Z" fill="#000000" fill-rule="nonzero" fill-opacity="1" /><polyline clip-path="url(#clip580)" style="stroke:#000000; stroke-linecap:round; stroke-linejoin:round; stroke-width:4; stroke-opacity:1; fill:none" points="664.934,1202.68 664.934,483.08 "/>
<polyline clip-path="url(#clip580)" style="stroke:#000000; stroke-linecap:round; stroke-linejoin:round; stroke-width:4; stroke-opacity:1; fill:none" points="664.934,1098.63 669.92,1094.31 "/>
<polyline clip-path="url(#clip580)" style="stroke:#000000; stroke-linecap:round; stroke-linejoin:round; stroke-width:4; stroke-opacity:1; fill:none" points="664.934,976.205 669.92,971.887 "/>
<polyline clip-path="url(#clip580)" style="stroke:#000000; stroke-linecap:round; stroke-linejoin:round; stroke-width:4; stroke-opacity:1; fill:none" points="664.934,853.785 669.92,849.467 "/>
<polyline clip-path="url(#clip580)" style="stroke:#000000; stroke-linecap:round; stroke-linejoin:round; stroke-width:4; stroke-opacity:1; fill:none" points="664.934,731.364 669.92,727.047 "/>
<polyline clip-path="url(#clip580)" style="stroke:#000000; stroke-linecap:round; stroke-linejoin:round; stroke-width:4; stroke-opacity:1; fill:none" points="664.934,608.944 669.92,604.626 "/>
<polyline clip-path="url(#clip580)" style="stroke:#000000; stroke-linecap:round; stroke-linejoin:round; stroke-width:4; stroke-opacity:1; fill:none" points="664.934,486.524 669.92,482.206 "/>
<path clip-path="url(#clip580)" d="M626.551 1085.42 L614.746 1103.87 L626.551 1103.87 L626.551 1085.42 M625.324 1081.35 L631.204 1081.35 L631.204 1103.87 L636.134 1103.87 L636.134 1107.76 L631.204 1107.76 L631.204 1115.91 L626.551 1115.91 L626.551 1107.76 L610.949 1107.76 L610.949 1103.24 L625.324 1081.35 Z" fill="#000000" fill-rule="nonzero" fill-opacity="1" /><path clip-path="url(#clip580)" d="M615.232 958.925 L633.588 958.925 L633.588 962.86 L619.514 962.86 L619.514 971.332 Q620.533 970.985 621.551 970.823 Q622.57 970.638 623.588 970.638 Q629.375 970.638 632.755 973.809 Q636.134 976.98 636.134 982.397 Q636.134 987.976 632.662 991.077 Q629.19 994.156 622.871 994.156 Q620.695 994.156 618.426 993.786 Q616.181 993.415 613.773 992.675 L613.773 987.976 Q615.857 989.11 618.079 989.665 Q620.301 990.221 622.778 990.221 Q626.783 990.221 629.121 988.115 Q631.459 986.008 631.459 982.397 Q631.459 978.786 629.121 976.679 Q626.783 974.573 622.778 974.573 Q620.903 974.573 619.028 974.99 Q617.176 975.406 615.232 976.286 L615.232 958.925 Z" fill="#000000" fill-rule="nonzero" fill-opacity="1" /><path clip-path="url(#clip580)" d="M624.607 851.921 Q621.459 851.921 619.607 854.074 Q617.778 856.227 617.778 859.977 Q617.778 863.703 619.607 865.879 Q621.459 868.032 624.607 868.032 Q627.755 868.032 629.584 865.879 Q631.435 863.703 631.435 859.977 Q631.435 856.227 629.584 854.074 Q627.755 851.921 624.607 851.921 M633.889 837.268 L633.889 841.528 Q632.13 840.694 630.324 840.255 Q628.542 839.815 626.783 839.815 Q622.153 839.815 619.699 842.94 Q617.269 846.065 616.922 852.384 Q618.287 850.37 620.347 849.305 Q622.408 848.217 624.884 848.217 Q630.093 848.217 633.102 851.389 Q636.134 854.537 636.134 859.977 Q636.134 865.301 632.986 868.518 Q629.838 871.736 624.607 871.736 Q618.611 871.736 615.44 867.153 Q612.269 862.546 612.269 853.819 Q612.269 845.625 616.158 840.764 Q620.047 835.88 626.597 835.88 Q628.357 835.88 630.139 836.227 Q631.945 836.574 633.889 837.268 Z" fill="#000000" fill-rule="nonzero" fill-opacity="1" /><path clip-path="url(#clip580)" d="M613.912 714.084 L636.134 714.084 L636.134 716.075 L623.588 748.644 L618.704 748.644 L630.509 718.019 L613.912 718.019 L613.912 714.084 Z" fill="#000000" fill-rule="nonzero" fill-opacity="1" /><path clip-path="url(#clip580)" d="M624.283 609.812 Q620.949 609.812 619.028 611.594 Q617.13 613.377 617.13 616.502 Q617.13 619.627 619.028 621.409 Q620.949 623.191 624.283 623.191 Q627.616 623.191 629.537 621.409 Q631.459 619.604 631.459 616.502 Q631.459 613.377 629.537 611.594 Q627.639 609.812 624.283 609.812 M619.607 607.821 Q616.597 607.08 614.908 605.02 Q613.241 602.96 613.241 599.997 Q613.241 595.854 616.181 593.446 Q619.144 591.039 624.283 591.039 Q629.445 591.039 632.384 593.446 Q635.324 595.854 635.324 599.997 Q635.324 602.96 633.634 605.02 Q631.968 607.08 628.982 607.821 Q632.361 608.608 634.236 610.9 Q636.134 613.192 636.134 616.502 Q636.134 621.525 633.056 624.21 Q630 626.895 624.283 626.895 Q618.565 626.895 615.486 624.21 Q612.431 621.525 612.431 616.502 Q612.431 613.192 614.329 610.9 Q616.227 608.608 619.607 607.821 M617.894 600.437 Q617.894 603.122 619.56 604.627 Q621.25 606.131 624.283 606.131 Q627.292 606.131 628.982 604.627 Q630.695 603.122 630.695 600.437 Q630.695 597.752 628.982 596.247 Q627.292 594.743 624.283 594.743 Q621.25 594.743 619.56 596.247 Q617.894 597.752 617.894 600.437 Z" fill="#000000" fill-rule="nonzero" fill-opacity="1" /><path clip-path="url(#clip580)" d="M614.514 503.086 L614.514 498.827 Q616.273 499.66 618.079 500.1 Q619.885 500.54 621.621 500.54 Q626.25 500.54 628.681 497.438 Q631.134 494.313 631.482 487.97 Q630.139 489.961 628.079 491.026 Q626.019 492.091 623.519 492.091 Q618.334 492.091 615.301 488.966 Q612.292 485.818 612.292 480.378 Q612.292 475.054 615.44 471.836 Q618.588 468.619 623.82 468.619 Q629.815 468.619 632.963 473.225 Q636.134 477.808 636.134 486.558 Q636.134 494.73 632.246 499.614 Q628.38 504.475 621.829 504.475 Q620.07 504.475 618.264 504.128 Q616.459 503.78 614.514 503.086 M623.82 488.433 Q626.968 488.433 628.796 486.281 Q630.648 484.128 630.648 480.378 Q630.648 476.651 628.796 474.498 Q626.968 472.322 623.82 472.322 Q620.672 472.322 618.82 474.498 Q616.991 476.651 616.991 480.378 Q616.991 484.128 618.82 486.281 Q620.672 488.433 623.82 488.433 Z" fill="#000000" fill-rule="nonzero" fill-opacity="1" /><polyline clip-path="url(#clip581)" style="stroke:#009af9; stroke-linecap:round; stroke-linejoin:round; stroke-width:4; stroke-opacity:1; fill:none" points="983.587,911.967 982.469,913.043 983.986,910.959 984.762,909.785 984.306,910.074 983.823,910.386 978.014,917.192 970.4,926.089 965.471,931.577 960.849,936.468 966.168,929.129 959.338,936.717 966.954,926.347 957.36,937.247 967.843,923.383 974.508,914.818 981.627,905.557 982.988,903.703 961.16,929.606 960.653,928.796 960.077,928.294 979.438,903.187 983.504,899.496 1003.76,875.339 1003.06,879.428 973.718,915.84 985.395,901.265 976.076,912.346 990.68,895.313 1008,876.519 1012.18,876.25 1022.98,868.187 1008.26,885.881 993.534,901.44 1020.23,870.308 1007.42,887.136 998.133,894.075 1035.23,861.821 1109.97,788.422 1084.75,833.673 1044.03,866.985 1080.8,841.209 1096.16,807.837 1037.74,859.707 1051.88,850.52 1028.1,865.186 1003.39,889.167 949.603,929.557 1082.62,802.568 1127.36,777.414 1173.46,732.488 1225.93,708.507 1180.97,743.449 1160.21,792.541 1250.64,687.313 1280.89,682.784 1257.61,708.666 1297.56,682.035 1321.65,652.908 1240.8,732.302 1301.82,675.584 1309.61,670.864 1272.62,696.475 1147.08,783.168 1182.22,745.197 1196.37,732.509 1112.23,804.449 1094.86,817.242 1107.24,808.536 1163.79,751.848 1298.14,640.876 1267.33,679.665 1260.51,697.108 1253.14,713.566 1162.8,783.521 1217.94,716.088 1195.34,744.852 1074.36,852.867 1074.49,840.123 1081.34,817.83 1097.1,809.466 1185.96,726.72 1210.25,701.839 1292.42,638.403 1313.16,641.724 1206.4,747.565 1099.45,841.199 1135.27,788.916 1122.8,802.835 1043.7,876.832 1016.69,888.114 1004.28,900.69 916.024,980.806 930.574,958.776 945.595,941.031 997.555,878.505 1004.31,879.186 1019.21,867.729 1004.84,887.784 1010.72,879.554 1028.23,859.044 1089.12,798.28 1161.23,749.391 1187.08,733.757 1258.79,675.684 1212.49,723.84 1139.77,800.688 1161.8,776.565 1199.26,741.9 1214.5,722.599 1185.8,749.331 1229.02,737.963 1046.63,892.717 1074.85,839.713 1052.8,847.887 1062.59,842.694 1037.69,860.937 1024.62,870.178 1025.86,861.078 1127.57,791.01 1089.66,835.532 1051.54,862.72 1057.53,851.444 975.985,924.164 1009.05,879.934 1003.12,880.713 1011.75,883.25 1055.71,833.673 1089.7,808.611 1101.05,809.287 1091.25,815.707 1078.38,829.126 968.919,920.331 991.431,889.391 957.557,933.525 926.595,964.73 903.756,974.312 926.101,947.035 953.499,913.399 1006.96,874.144 979.369,904.203 958.129,926.035 977.436,906.201 1036.86,858.545 992.448,907.948 981.866,912.323 959.764,925.588 1016.08,859.283 1055.33,834.47 1128.31,758.88 1101.08,797.773 1228.33,686.717 1314.34,641.131 1319.56,645.682 1253.69,710.386 1409.42,579.51 1372.49,608.035 1261,699.915 1274.89,687.9 1191.02,759.093 1179.34,761.814 1256.08,705.898 1131.43,793.703 1116.19,799.218 1102.09,812.899 1052.7,858.714 989.948,916.343 923.391,975.033 858.298,1033.55 852.094,1023.86 861.496,1007.32 891.173,982.122 938.384,937.114 964.825,915.087 934.322,937.166 920.712,956.77 883.296,1001.61 870.885,997.231 888.47,981.656 860.789,1012.38 836.008,1032.01 770.392,1100.3 763.467,1095.72 778.799,1087.12 815.653,1045.95 849.11,1016.26 861.904,1001.76 887.048,980.989 904.489,976.526 916.3,964.868 914.692,967.338 1018.52,858.754 1134.63,755.529 1139.48,768.831 1118.77,797.48 1190.09,746.911 1068.6,847.723 1007.8,890.638 1006.82,892.904 965.076,935.14 953.08,953.485 1000.03,895.474 904.474,980.268 958.571,924.874 1101.07,781.503 1199.55,721.982 1170.4,765.967 1149.49,790.927 1184.65,757.751 1173.91,773.997 1093.06,826.497 1036.89,879.34 1007.4,896.801 1018.43,883.286 1028.97,865.597 1055.01,831.347 1050.78,859.519 1028.1,880.22 1053.88,849.539 1019.16,886.494 1107.93,796.145 1159.98,755.247 1215.67,716.831 1266.09,696.141 1347.91,634.012 1477.92,535.63 1383.17,623.063 1427.24,594.005 1354.86,662.958 1274.35,707.763 1279.11,687.098 1293.42,661.894 1371.33,599.292 1386.88,584.468 1401.09,588.43 1364.01,618.185 1410.12,595.313 1549.56,488.613 1518.47,523.107 1499.56,524.997 1438.44,577.108 1361.56,625.488 1311.21,669.555 1275.33,681.162 1261.8,685.454 1310.27,645.051 1317.6,661.572 1442.86,555.577 1444.85,568.277 1476.09,560.901 1300.53,698.567 1333.68,649.458 1276.27,689.976 1271.23,691.763 1305.81,656.024 1378.05,609.855 1421.83,576.206 1406.15,604.749 1293.81,679.355 1268.5,702.423 1218.83,735.794 1246.64,705.956 1319.45,640.998 1258.82,698.495 1202.63,748.079 1201.1,726.403 1222.78,722.93 1268,678.843 1211.85,725.575 1215.62,732.257 1077.75,847.292 1036.89,880.952 1022.7,885.809 1002.94,889.425 973.899,924.212 1143.66,745.269 1096.36,813.128 1086.71,821.944 1027.4,883.283 942.665,953.977 952.421,930.746 968.037,915.549 1002.39,882.28 1155.98,731.964 1114.94,791.619 1083.43,823.232 1043.12,864.939 1136.12,772.589 1028.9,884.674 1095.22,804.292 1099.98,807.007 1113.31,792.159 1106.78,799.024 1026.23,867.383 1017.34,869.843 1077.65,817.443 1111.62,794.04 1251.2,680.859 1300.58,645.53 1292.82,664.406 1416.27,575.135 1387.04,593.991 1173.83,772.157 1197.8,725.711 1336.95,612.924 1261.84,694.377 1350.62,628.588 1232.81,714.622 1193.22,744.17 1200.3,755.97 1126.01,805.734 1041,878.056 1006.3,896.906 1039.9,868.656 981.853,917.832 1031.05,871.674 1012.69,896.483 957.447,934.818 954.202,924.839 1016.96,867.961 1020.71,859.222 939.775,949.287 862,1016.6 872.007,1001.52 901.593,976.413 929.622,950.493 952.981,919.123 1038.45,856.991 1067.19,830.578 1076.83,813.844 1075.87,825.095 970.145,925.599 981.76,912.007 1049.67,838.376 1046.07,841.467 1067.64,830.509 1006.28,877.476 995.532,905.838 1051.37,855.674 1114.81,787.377 1131.94,775.396 1098.7,820.036 968.422,941.733 864.545,1030.22 852.437,1025.28 848.228,1019.3 860.054,1000.88 857.104,1004.4 891.294,968.759 961.915,907.345 923.508,959.876 968.063,920.217 979.3,913.602 892.908,999.252 877.978,1010.66 878.455,1003.76 933.859,935.404 987.199,909.174 990.089,904.626 1001.38,888.526 999.183,903.689 1070.38,846.574 1092.62,814.602 975.668,914.624 930.837,963.536 874.174,1017.45 915.905,966.25 891.909,995.648 985.365,890.556 962.602,927.266 991.467,893.398 1016.25,880.905 900.212,988.563 852.452,1029.59 891.784,986.976 935.729,944.074 986.768,894.428 987.027,894.999 1049.55,846.674 1093.91,799.905 1218.05,706.95 1305.14,646.056 1334.68,635.385 1469.26,548.343 1485.7,569.818 1393.11,618.352 1351.75,650.167 1281.66,708.472 1218.43,749.427 1147.34,803.087 1109.49,827.499 1082.08,833.879 1056.3,855.901 1080.69,824.605 973.579,930.664 957.98,936.637 919.818,970.733 963.614,920.012 954.888,934.633 934.427,950.547 999.591,883.127 986.032,900.517 1031.37,858.002 1076.24,833.349 1079.47,831.422 1016.89,886.219 999.391,908.204 942.075,949.059 938.849,945.811 1062.01,824.119 1190.98,709.113 1281.76,650.225 1173.47,760.956 1174.99,773.081 1275.41,682.033 1349.6,632.861 1375.16,605.231 1263.05,697.56 1077.75,856.746 1017.64,894.682 1029.19,870.917 1024.2,878.547 985.115,920.102 1103.9,793.646 1183.71,721.494 1174.72,749.559 1053.16,864.35 1090.25,816.482 1054.33,857.341 1113.03,795.59 1047.64,835.238 1061.44,830.196 1131.68,791.559 1105.81,818.335 1094.32,830.436 1178.18,760.684 1262.37,695.866 1351.73,630.725 1452.25,552.85 1568.46,512.083 1623.97,457.702 1485.92,567.496 1416.14,604.619 1363.4,635.463 1357.11,634.599 1405.42,597.052 1434.22,579.612 1385.39,611.058 1446.6,566.448 1376.66,622.098 1314.61,670.582 1297.59,667.809 1326.96,636.167 1375.6,601.022 1268.61,708.264 1230.28,739.931 1167.43,784.19 1079.51,847.12 1134.64,777.747 1169.58,741.975 1161.51,746.607 1167.18,752.757 1215.88,698.415 1208.31,720.618 1260.92,665.577 1323.92,619.657 1300.73,661.142 1357.34,613.712 1385.44,603.417 1351.54,646.839 1327.53,660.257 1342.26,650.576 1321.1,664.88 1200.09,767.315 1208,743.559 1150.92,788.586 1038.88,886.331 1058.72,851.911 1043.29,862.971 1137.49,767.103 1055.63,843.72 1079.4,810.567 1150.9,765.697 1137.03,784.76 1176.28,742.553 1234.47,699.12 1225.82,718.807 1180.95,758.777 1179.9,760.226 1186.48,748.923 1183.23,752.299 1228.52,701.201 1264,688.669 1281.81,686.54 1261.01,696.668 1205.98,744.26 1140.44,805.496 1070.03,862.805 1085.11,824.75 1027,879.391 966.897,923.887 1000.68,886.361 1050.39,839.869 1117.48,771.007 1201.73,722.088 1176.83,765.027 1233.78,692.871 1237.82,699.698 1278.07,678.587 1188.76,755.696 1213.1,751.57 1110,840.851 1094.75,831.413 1112.77,806.968 1058.66,854.708 1014.82,882.559 1001.64,907.385 930.904,965.387 885.475,1004.58 859.025,1020.98 871.361,997.877 868.953,1002.95 939.254,931.455 960.246,910.236 1028.21,850.859 965.296,927.575 925.59,964.499 1060.99,812.436 1072.84,819.181 1118.42,785.916 1149.42,764.295 1117.88,780.078 1154.31,774.062 1112.92,803.948 1073,833.599 1046.14,862.837 921.232,973.662 936.339,946.267 898.258,991.155 843.289,1039.62 834.142,1041.69 833.022,1036.15 821.643,1048.98 751.864,1129.42 791.905,1072.41 818.955,1048.85 770.764,1107.04 769.674,1101.7 769.319,1106.41 827.078,1033.59 886.021,970.251 906.523,955.558 955.505,913.782 897.902,977.849 909.615,961.258 953.195,925.276 975.761,906.666 1021.49,856.505 1024.8,866.377 1069.75,822.398 1045.64,862.864 1136.25,764.617 1247.89,691.238 1278.13,676.247 1289.47,681.451 1259.8,709.643 1260.67,703.789 1379.77,628.36 1336,662.485 1276.73,711.898 1183.38,782.564 1237.41,721.649 1204.93,741.013 1247.59,690.82 1331.27,626.963 1348.71,612.194 1380.58,616.729 1323.7,660.609 1268.52,694.106 1230.77,719.81 1107.09,825.999 1101.71,807.382 1041.66,867.378 964.667,929.936 919.687,970.664 907.79,975.919 902.228,969.571 930.138,950.479 917.011,961.152 898.885,970.646 878.701,998.886 883.425,986.809 922.388,943.496 892.665,985.818 926.973,949.173 1000.38,896.792 1078.42,824.871 967.613,929.912 943.393,939.311 1087.76,807.375 1127.06,789.885 1135.43,782.698 1200.1,731.899 1289.2,657.365 1359.42,621.883 1252.97,713.287 1260.76,702.257 1223.23,730.752 1178.77,764.865 1107.99,809.246 1099.93,804.432 1156.47,766.385 1047.58,856.196 1122.14,787.12 1090.85,817.235 1099.41,803.57 1107.19,789.909 1190.74,733.122 1202.94,742.829 1204.83,731.756 1183.02,750.478 1127.45,786.976 1209.6,705.719 1291.43,646.4 1213.33,733.611 1271.06,683.888 1199.72,743.305 1286.59,669.284 1240.32,712.327 1236.09,748.128 1318.45,650.948 1360.13,617.592 1377.04,636.726 1326.03,653.997 1307.73,655.665 1256.33,686.53 1138.28,800.348 1157.87,771.9 1041.47,868.449 983.119,909.106 997.851,888.087 1023.16,863.884 1019.38,865.114 966.627,915.063 1046.43,839.886 1088.65,811.184 1156.15,759.591 1213.1,725.873 1023.5,887.385 1069.21,828.628 1017.02,862.638 912.026,976.096 812.58,1066.69 785.443,1088.63 820.126,1036.25 789.651,1078.14 831.968,1030.31 862.022,1012.44 871.164,1000.32 886.832,991.073 954.239,918.349 931.967,939.14 960.771,914.433 947.383,926.582 1016.16,881.658 968.811,930.632 1010.79,888.582 1081.87,828.289 1058.99,851.744 1071.57,849.76 1034.56,878.92 1102.46,808.373 1067.42,826.391 1079.74,830.876 1078.69,823.155 1081.29,827.256 1113.64,803.989 1018.74,871.281 1015.97,860.56 959.184,908.059 920.375,954.11 959.604,924.412 895.804,976.843 928.579,962.333 1018.13,893.769 1065.11,849.537 988.648,904.835 1034.89,854.364 1059.74,847.074 1064.31,853.527 1114.83,799.696 1103.49,815.378 1124.2,804.869 1111.51,797.388 996.173,879.286 1112.22,790.951 1142.01,773.465 1116.74,789.983 1295.25,635.461 1356.19,596.724 1404.59,563.389 1446.82,549.455 1464.03,554 1388.95,619.805 1455.83,558.091 1494.67,529.4 1515.53,515.958 1398.43,622.369 1308.12,678.773 1297.47,667.278 1253.58,712.534 1204.31,750.174 1120.9,812.146 1077.97,846.025 1097.67,811.513 1215.77,692.97 1204.14,734.274 1244.95,699.406 1323.76,642.264 1273.52,688.334 1288.08,670.488 1355.48,623.504 1372.48,623.563 1263.15,715.314 1242.53,729.506 1124.55,825.921 998.509,929.791 970.064,938.678 957.336,940.862 964.868,923.383 994.222,882.521 1106.73,772.409 1185.32,713.812 1331.97,590.155 1334.73,613.073 1304.35,662.007 1293.16,676.035 1368.34,607.9 1301.46,673.442 1271.64,692.323 1321.8,648.759 1318.11,655.931 1358.86,639.995 1405.12,605.722 1309.67,674.866 1356.99,629.016 1479.79,537.444 1423.4,604.267 1354.73,645.084 1333.84,656.474 1264.96,710.263 1211.3,747.715 1227.75,711.685 1158.01,781.097 1061.04,859.593 986.516,918.568 963.384,932.545 927.281,960.482 932.092,945.209 972.468,907.991 1013.51,866.255 1058.36,832.002 1049.26,850.805 1019.52,880.818 993.912,901.672 956.308,925.789 1003.57,890.251 1072.47,832.501 1016.68,894.523 1074.21,821.933 1085.81,833.606 1095.32,822.862 1167.98,764.672 1076.27,841.898 1016.97,893.056 1109.44,811.724 1176.76,738.742 1144.01,784.879 1218.45,702.503 1237.91,716.38 1240.77,706.917 1240.69,718.066 1251.79,704.064 1155.79,790.487 1110.12,821.745 1110.65,812.171 1052.91,858.204 1011.85,889.44 1038.72,857.671 1134.16,768.426 1266.35,654.199 1283.27,659.761 1318.35,631.881 1346.09,626.83 1449.35,548.011 1447.79,559.977 1545.03,502.659 1456.95,592.288 1413.83,621.934 1345.42,659.419 1338.63,649.344 1306.34,665.05 1323.6,649.491 1299.15,672.671 1389.47,590.107 1292.42,681.565 1276.27,684.631 1312.08,646.628 1232.51,722.889 1074.69,855.528 999.476,911.31 971.112,926.158 1001.25,888.746 1020.39,867.085 1036.33,865.188 1074.11,822.683 1131.14,763.798 1204.08,720.084 1218.57,717.529 1230.18,714.73 1360.11,598.782 1379.27,607.278 1570.78,438.154 1625.22,447.038 1697.82,408.783 1726.01,391.537 1673.87,451.229 1670.46,445.415 1685.15,428.116 1572.29,523.029 1583.07,496.583 1434.17,614.21 1439.93,590.454 1316.38,692.251 1273.37,711.794 1293.76,674.778 1253.55,710.174 1096.48,851.516 1095.54,832.423 1076.3,843.912 1034.7,879.188 1018.59,883.763 993.277,901.349 1011.81,878.199 1095.72,794.474 1088.44,809.351 1067.74,842.528 1053.72,857.686 1060.45,841.371 1038.73,852.828 1089.37,823.158 1102.12,820.09 1052.2,863.403 1080.33,818.937 1029.8,873.817 1081.94,823.139 1031,886.4 1011.52,905.613 1017,877.527 1031.35,850.666 1047.37,850.672 1046.49,862.508 1178.81,756.336 1207.07,728.308 1192.36,742.699 1152.89,789.564 1133.31,815.895 1113.02,859.248 1258.87,737.893 1201.16,759.337 1189.48,758.842 1186.75,756.669 1282.35,668.462 1194.29,755.043 1262.19,684.009 1316.17,645.202 1417.73,561.775 1469.36,537.628 1366.69,639.987 1358.37,643.479 1480.89,533.565 1511.74,549.59 1457.36,578.683 1363.57,641.211 1430.36,573.244 1336.52,655.643 1220.79,757.471 1315.6,642.707 1341.22,630.897 1240.93,726.788 1215.45,749.302 1144.2,798.423 1124.99,802.826 1140.95,780.515 1145.72,775.287 1124.76,797.433 1093.68,818.821 1070.61,833.596 965.775,942.309 1064.72,834.525 1089.45,804.991 1207.06,723.642 1211.49,733.001 1288.87,660.645 1403.7,566.224 1487.16,543.2 1523.25,511.39 1428.75,600.003 1408.56,602.352 1385.79,615.257 1351.1,636.967 1342.67,637.758 1271.05,700.193 1170.44,781.035 1185.93,747.116 1189.2,740.644 1194.39,738.73 1214.5,718.188 1227.15,705.955 1204.96,726.581 1167.97,778.331 1047.48,878.006 929.869,979.509 947.079,938.592 960.889,918.957 1028.25,836.238 1108.67,792.101 1109.57,792.685 1143.54,768.306 1143.01,768.039 1214.94,713.979 1271.92,662.225 1239.28,709.963 1219.03,729.956 1197.82,753.305 1297.6,641.791 1218.8,729.665 1268.56,677.669 1324.73,634.614 1316.09,651.06 1288.44,676.379 1277.76,684.983 1178.6,764.023 1141.98,794.403 1159.67,768.182 1165.99,756.423 1219.8,721.048 1170.85,767.693 1132,807.556 1113.88,812.685 1060.19,859.144 956.085,945.441 957.678,930.089 943.609,938.535 962.914,919.362 918.123,963.301 842.559,1041.77 826.818,1051.97 799.311,1075.72 729.447,1147.47 758.837,1103.88 799.425,1073.5 802.142,1066.32 764.481,1104.3 849.25,1002.71 874.137,990.019 843.117,1031.76 820.969,1057.08 841.431,1035.64 906.101,967.163 902.886,964.1 927.383,937.638 974.844,892.151 961.042,912.203 914.28,974.727 981.037,894.22 952.772,916.88 931.458,959.392 935.814,949.172 945.044,942.954 899.003,977.484 862.209,1014.37 950.185,931.496 972.554,910.955 1065.98,833.683 1092.46,812.144 1093.23,818.127 1115.16,799.644 989.921,908.683 943.297,941.056 938.939,950.777 1059.34,848.428 1064.72,842.724 1063.04,835.896 1010.05,892.313 1127.57,787.151 1091.99,818.637 1073.55,846.888 1064,847.064 998.612,893.188 922.129,964.585 895.212,981.389 937.118,943.613 931.419,953.161 942.766,940.41 883.76,992.056 969.266,904.473 1071.02,805.552 1067.59,828.456 989.328,908.833 1053.93,839.836 1139.58,767.843 1136.44,781.876 1090.71,816.266 1106.79,814.389 1179.55,741.296 1216.54,706.444 1209.55,711.169 1100.44,783.723 1095.37,813.006 1189.35,731.138 1128.51,796.634 1055.38,890.465 1105.41,840.209 1039.61,875.358 1006.6,900.976 1008.36,887.773 995.454,894.093 1011.89,886.967 1045.2,856.76 960.066,919.986 875.609,994.961 921.636,943.849 907.793,965.504 895.365,987.062 915.081,972.62 854.487,1026.68 887.625,992.356 944.802,938.702 921.748,966.406 876.634,1006.16 893.374,987.707 839.807,1042.29 849.55,1030.43 867.524,1026.7 885.326,997 869.903,1003.49 863.939,1003.48 902.289,962.961 840.895,1037.59 856.222,1019.13 873.998,1009.61 903.914,966.523 888.183,987.809 904.691,967.798 941.787,946.536 955.664,946.784 950.243,945.196 985.744,912.64 852.76,1035.21 952.335,909.557 895.772,978.442 956.174,919.761 950.085,934.912 1027.77,854.283 1059.26,847.864 1014.03,886.66 883.186,1010.61 865.15,1021.76 817.468,1070.74 838.774,1043.86 899.97,985.226 898.377,993.545 911.804,970.573 856.785,1022.62 893.373,989.816 802.838,1082.68 828.742,1048 864.038,1009.42 881.176,996.729 819.385,1059.18 870.081,994.16 866.954,1006.63 893.438,980.071 825.042,1046.79 856.583,1015.88 849.985,1019.2 870.062,1009.69 899.37,977.071 854.22,1019.2 786.742,1081.52 887.951,977.358 904.514,966.237 944.183,926.906 989.271,881.245 970.811,909.876 985.083,903.827 1085.13,816.375 1004.11,893.589 1024.12,859.75 1081.11,808.129 1115.01,785.232 1175.69,739.591 1221.94,699.647 1166.72,759.907 1079.3,831.839 1213.92,719.282 1305.09,632.625 1167.64,722.556 1365.31,568.57 1513.38,475.915 1499.59,522.354 1486.21,548.997 1671.63,402.828 1627.28,457.014 1563.9,514.015 1408.19,632.967 1476.42,554.625 1374.47,645.28 1367.94,636.47 1386.88,609.894 1279.71,707.818 1322.26,657.37 1348.64,630.414 1318.23,667.478 1414.72,576.785 1552.92,479.408 1733.24,357.654 1763.88,359.143 1598.38,510.647 1522.11,561.613 1451.78,597.001 1464.01,575.933 1402.86,627.171 1360.38,643.153 1280.27,710.038 1256.63,723.952 1272.05,692.217 1286.06,672.741 1207.68,752.714 1153.89,782.546 1106.37,821.132 1117.26,802.606 1135.39,783.704 1132.44,800.419 1091.28,833.7 1132.98,781.822 1160.46,759.865 1127.93,802.687 1138.08,766.122 1148.92,765.415 1068.89,836.348 1070.87,832.835 1048.75,867.829 963.651,950.178 990.658,915.014 1026.13,862.497 1066.59,819.18 1156.35,760.945 1146.71,784.968 1066.91,856.832 1089.97,827.176 1073.79,849.382 1043.83,865.735 966.142,931.703 932.464,960.89 883.799,1006.24 908.985,960.853 1019.67,857.315 1111.64,790.435 1104.58,805.066 1134.36,780.371 1192.12,726.758 1196.62,724.747 1232.4,687.992 1286.18,654.763 1150.08,791.934 1219.73,730.394 1069.51,860.468 1053.45,868.619 1056.36,862.111 1052.89,859.45 1051.75,865.927 1119.53,788.051 1275.18,666.293 1401.62,588.954 1331.5,668.588 1240.83,740.136 1099.73,850.158 1049.58,875.718 1018.94,900.24 972.096,934.49 942.851,954.756 977.79,911.243 945.182,939.385 923.171,962.192 888.794,990.852 886.172,987.485 970.645,900.747 890.295,988.585 940.012,934.309 923.082,958.494 879.238,997.347 898.472,975.558 909.623,974.264 924.57,955.398 922.083,969.973 1015.14,865.131 930.17,956.336 993.333,895.908 1037.81,847.448 1050.55,850.657 1113.38,793.961 1299.48,640.356 1351.93,619.69 1322.14,630.295 1251.25,688.786 1354.1,625.025 1301.27,678.254 1394.81,613.571 1259.92,719.375 1190.44,760.238 1200.05,735.755 1114.18,813.99 1073.8,848.991 1107.03,801.463 1204.4,732.412 1179.22,760.026 1256.83,678.534 1181.81,747.852 1237.35,731.771 1294.22,668.796 1232.93,718.556 1180.72,771.951 1054.31,878.556 996.088,916.949 978.998,925.406 948.03,943.237 951.825,935.636 975.612,903.977 945.751,937.5 874.353,1005.07 915.779,958.963 908.317,969.481 874.176,999.155 914.559,968.302 868.677,1013.48 869.706,1015.75 884.996,997.071 909.072,972.706 932.761,948.448 883.801,1003.64 854.784,1029.24 853.408,1021.52 974.309,893.435 1130.01,748.823 1127.5,777.006 1127.9,784.854 1186.83,741.648 1216.45,718.339 1359.74,605.776 1507.67,504.813 1626.55,424.523 1636.91,441.079 1624.47,466.978 1578.06,485.753 1593.18,462.172 1504.53,554.365 1485.16,551.364 1502.33,538.383 1591.72,487.344 1563.34,521.628 1631.71,469.142 1506.79,561.244 1407.98,633.116 1350.68,666.761 1303.56,690.611 1236.4,739.139 1238.47,722.079 1297.57,653.33 1226.35,723.366 1228.55,703.714 1194.24,739.471 1228.07,692.904 1344.16,605.432 1344.66,626.962 1354.2,633.952 1417.58,573.058 1373.07,627.963 1264.41,710.464 1316.85,646.747 1336.65,635.829 1144.91,795.977 1112.29,816.858 1097.77,831.101 1054.73,873.051 1063.27,849.992 1082.97,817.295 1149.58,764.659 1041.87,876.016 1007.96,921.394 926.83,988.794 918.831,977.04 926.551,958.177 942.202,939.181 854.041,1029.24 852.57,1023.43 934.215,930.111 955.022,914.295 1034.55,844.693 1118.62,755.914 1219.59,694.09 1268.62,658.949 1231.02,710.798 1165.51,775.628 1167.83,776.263 1154.66,769.083 1094.28,830.554 1144.06,769.094 1093.57,817.712 1127.74,779.68 1090.18,826.051 1089.38,825.545 1086.66,813.595 1032.71,875.705 1090.81,817.957 1118.35,794.702 1192.77,737.543 1252.95,683.952 1199.39,733.476 1112.87,805.657 1099.73,816.72 1118.94,777.135 998.037,898.282 941.833,939.226 923.871,956.893 904.266,971.996 860.434,1014.38 927.867,940.499 878.333,990.925 876.376,991.422 911.214,965.908 942.48,931.395 937.293,938.553 1006.28,866.967 992.519,892.185 1082.78,805.558 1175.46,744.88 1143.9,777.62 1027.98,887.917 1051.61,840.818 1056.4,845.01 1160.41,750.753 1133.11,780.732 1125.02,786.37 1170.41,751.329 1264.51,690.028 1238.37,718.8 1197.2,746.556 1244.78,691.498 1140.3,788.077 1105.27,830.169 1076,851.468 1030.56,882.856 975.161,927.918 940.803,949.628 960.707,916.804 961.329,917.707 1070.62,806.895 1094.02,796.735 1066.21,830.242 955.362,948.635 960.427,926.436 900.857,991.037 987.508,902.253 1068.37,829.142 1037.56,856.062 1015.21,869.197 1006.14,897.76 900.73,1003.21 906.751,976.312 893.92,986.329 973.928,902.03 883.298,996.063 821.033,1054.14 906.616,964.742 907.696,977.293 933.92,944.357 973.061,911.828 990.018,901.02 1076.82,823.432 1143.38,778.36 1019.93,889.931 1028.42,887.106 1026.62,880.743 1032.94,864.142 878.469,993.753 877.817,990.922 927.782,940.561 999.652,885.114 1065.29,833.84 1133.52,777.357 1175.05,746.642 1250.06,673.125 1194.21,745.855 1140.39,789.958 1169.06,759.407 1167.81,751.083 1190.92,742.679 1168.82,751.046 1209.76,726.166 1185.45,767.214 1221.26,731.708 1374.75,602.979 1458.25,567.946 1500.48,555.538 1565.75,516.737 1611.54,489.499 1702.15,433.377 1627.81,479.712 1457.69,612.15 1409.79,630.71 1426.42,599.069 1423.69,595.443 1403.41,600.101 1354.7,636.268 1341.66,640.409 1273.52,698.488 1218.7,738.151 1261.3,692.71 1317.58,636.228 1244.23,702.851 1310.09,642.287 1281.33,672.876 1205.89,729.624 1261.04,678.456 1319.42,638.625 1421.56,564.959 1446.66,562.796 1302.46,683.087 1311.65,667.045 1314.72,647.968 1233.53,719.098 1277.03,668.086 1287.3,662.115 1353.83,625.62 1431.48,576.651 1485.59,536.277 1404.2,588.611 1392.85,599.272 1474.41,543.374 1265.64,709.457 1272.36,701.596 1302.45,657.56 1285.04,684.115 1235.8,717.418 1178.74,754.761 1213.69,717.639 1157.42,771.289 1175.3,750.114 1180.73,741.316 1186.09,743.645 1298.22,663.464 1314.34,652.729 1359.87,623.61 1287.56,681.249 1393.17,585.824 1450.3,563.293 1444.7,566.584 1434.86,573.398 1323.44,656.59 1250.35,715.467 1304.06,649.814 1188.16,751.804 1100,820.901 1006.77,895.577 1023.75,878.221 1025.24,880.538 1046.61,843.79 1020.97,873.27 1077.38,811.96 1152.79,754.158 1126.28,786.998 1176.58,740.076 1220.33,707.908 1258.59,689.091 1337.9,629.937 1262.6,691.027 1378.64,626.932 1269.85,712.386 1292.53,674.166 1405.06,604.043 1407.73,604.478 1375.18,616.043 1474.53,523.395 1439.64,552.422 1371.61,616.883 1423.53,563.919 1355.91,656.955 1268.42,713.657 1242.65,722.64 1278.14,689.465 1237.42,716.071 1202.39,752.804 1149.36,789.227 1236.43,697.261 1204.69,741.66 1254.51,700.394 1343.96,616.956 1393.98,581.6 1309.77,664.684 1153.35,789.35 1106.03,822.528 1104.53,825.714 1141.34,779.837 1082.47,823.691 1140.85,776.861 1210.79,730.593 1185.01,746.656 1289.02,663.098 1328.85,647.976 1207.18,754.603 1121.33,818.193 1105.79,820.636 1141.63,779.246 1168.82,751.889 1164.08,770.43 1141.79,793.601 1075.33,850.033 1020.08,894.074 969.008,932.243 1051.67,830.084 1020.32,871.497 972.945,921.653 972.908,916.191 1023.19,857.605 1038.22,852.987 1036.36,849.827 1076.36,830.832 1036.45,866.752 1077.55,828.487 1095.17,826.667 1139.49,782.573 1237.45,698.607 1252.82,700.714 1244.18,705.367 1245.66,709.877 1385.96,600.301 1381.18,611.539 1450.81,544.631 1454.78,568.214 1485.42,533.658 1421.72,611.633 1397.71,616.285 1438.95,575.597 1404.43,601.52 1311.06,676.725 1261.7,714.953 1214.5,744.959 1158.93,791.206 1115.03,813.711 1156.91,766.696 1180.56,739.554 1212.02,709.987 1260.86,688.588 1284.96,671.945 1372.44,590.875 1362.85,615.245 1206.81,750.009 1223.29,733.084 1186.4,751.844 1117.81,813.201 1033.84,891.057 1043.2,860.813 1034.07,866.233 1038.45,867.205 986.861,903.783 1021.74,861.783 1050.31,848.432 1052.4,850.114 1093.85,810.62 1033.94,870.098 1129.09,779.205 1166.17,749.705 1157.47,756.673 1228.09,704.412 1257.29,676.867 1216.89,720.916 1318.39,662.49 1274.89,693.21 1253.85,707.014 1301.27,641.726 1407,561.753 1356.58,640.284 1366.01,626.814 1292.98,687.191 1364.24,609.557 1210.21,729.713 1111.8,822.218 1111.25,811.063 1103.14,821.355 1090.58,829.194 1010.37,906.772 981.628,926.566 953.878,937.408 968.912,909.6 920.446,954.337 983.092,895.774 925.365,947.771 858.167,1025.06 877.065,992.293 918.964,946.125 1055.62,820.395 1135.34,753.24 1146.65,775.11 1093.27,822.488 1017.38,894.048 962.796,941.464 992.29,903.432 1063.86,829.962 1045.04,851.755 1040.89,853.05 1028.48,866.027 1143.06,755.223 1154.84,766.009 1108.38,820.733 1172.21,749.785 1135.12,788.047 1261.75,688.736 1226.16,719.651 1159.47,773.698 1196.68,733.298 1317.57,641.563 1285.6,678.307 1202.59,763.898 1226.5,722.762 1205.85,739.763 1154.8,783.222 1134.1,801.667 1107.86,820.096 1117.26,801.678 1115.08,801.122 1228.56,686.861 1253.45,681.536 1136.12,803.073 1070.2,855.651 1037.71,881.251 1101.94,801.115 1044.31,857.734 1020.59,883.942 1026.41,874.364 1083.13,811.819 1127.64,784.114 1212.08,709.402 1256.33,676.909 1199.82,733.978 1121.43,802.317 1084.17,840.412 1029.59,873.892 1055.01,842.921 1020.03,879.212 1016.01,886.038 1013.67,885.168 1003.74,894.598 979.265,921.444 903.354,998.521 899.688,987.544 838.664,1052.66 897.287,975.218 871.802,999.571 917.623,942.587 866.722,995.15 880.099,982.45 857.253,1006.19 933.04,936.551 1001.04,882.669 1015.61,880.386 959.463,932.911 1092.17,807.678 1035.77,876.382 1011.08,888.651 1020.42,876.665 1030.93,872.363 1130.34,785.648 1229.28,685.506 1216.41,714.509 1025.55,889.353 961.961,941.898 961.666,931.05 1041.72,835.517 992.902,888.103 1117.61,777.628 1204.58,714.076 1173.87,745.238 1207.14,736.968 1084.55,846.038 1098.78,826.983 1022.08,892.738 986.481,921.364 1026.47,871.714 980.911,906.698 1141.14,755.247 1046.08,859.104 982.5,920.82 1066.29,827.927 1091.13,818.556 1074.92,833.028 1010.05,884.258 966.433,931.433 1021.17,867.722 1000.59,900.312 980.361,917.85 904.113,991.133 951.291,930.373 1109.22,787.295 1196.44,724.654 1186.55,753.006 1205.66,713.215 1275.87,670.302 1352.97,624.124 1425.06,575.419 1233.27,728.847 1162.91,777.282 1211.77,714.806 1291.9,657.77 1366.14,608.063 1430.22,569.721 1493.58,520.826 1541.82,497.013 1731.38,381.3 1740.88,398.648 1633.58,484.728 1605.11,485.175 1542.14,523.42 1479.66,564.231 1456.74,588.873 1478.29,559.823 1488.84,545.832 1406.2,607.154 1415.57,591.302 1465.41,547.133 1397.18,621.328 1423.7,589.009 1379.51,630.147 1348.4,644.415 1347.12,642.424 1307.7,664.101 1337.92,642.938 1370.69,598.847 1308.86,665.25 1281.22,706.037 1219.2,741.949 1226.33,717.786 1176.01,762.606 1175.02,765.183 1159.26,774.427 1119.05,806.783 1101.35,819.589 990.857,920.634 965.244,932.124 928.405,961.514 1046.66,833.083 1010.43,882.581 1054.11,839.984 1062.61,824.637 972.652,909.674 962.596,918.639 921.478,947.155 984.569,894.941 1056.15,839.455 1010.44,886.88 1017.07,881.425 1101.4,788.936 1091.89,802.161 1137.34,795.01 1061.59,846.899 1149.22,778.751 1161.34,777.395 1283.69,693.249 1203.7,747.652 1300.88,654.468 1354.2,621.407 1332.96,625.044 1513.26,504.964 1466.82,547.37 1417.88,600.55 1339.21,654.184 1230.43,737.332 1182.34,765.866 1082.13,849.316 1063.83,852.92 1035.21,858.32 1118.4,771.085 1211.59,696.437 1211.1,722.125 1173.47,748.934 1135.79,784.953 1268.99,668.659 1202.33,749.312 1271.25,670.979 1287.34,665.42 1301.77,659.674 1275.62,676.241 1312.95,648.741 1334.84,629.444 1313.16,672.38 1179,783.899 1085.16,857.396 1070.92,852.327 1022.08,894.133 1048.68,855.123 1006.29,889 1021.29,872.926 971.545,916.726 959.94,921.916 915.92,960.431 924.411,958.062 956.628,931.805 846.231,1033.21 735.301,1147.5 755.212,1109.09 773.793,1083.42 779.563,1080.19 769.434,1098.42 789.132,1081.84 807.786,1051.04 855.04,1006 848.422,1018.83 872.818,991.453 917.836,948.496 957.081,913.095 955.776,924.265 951.773,928.919 966.839,917.607 885.97,997.379 828.833,1055.89 906.127,972.231 983.202,898.449 914.502,970.356 919.737,950.998 884.897,992.914 939.846,938.638 950.165,928.751 924.364,943.327 888.017,983.25 927.119,943.982 931.275,938.741 1001.89,891.347 1005.23,881.736 1062.4,820.247 1197.92,715.141 1216.47,716.167 1175.21,758.607 1121.67,810.308 1071.08,837.027 1034.87,873.873 981.758,919.664 988.655,899.918 1031.39,854.339 1001.37,885.787 1044.63,840.634 979.882,917.362 932.379,962.298 915.861,972.605 925.392,956.152 957.271,923.151 1005.49,876.998 1037.28,855.676 1040.71,858.851 1115.95,812.959 1112.44,813.844 1197.58,741.912 1224.89,716.485 1224.57,722.149 1104.82,806.053 1087.4,829.531 1111.26,800.015 1108.37,792.475 1064.2,848.189 953.859,942.909 976.421,908.266 942.919,946.287 950.835,931.966 991.49,903.792 1073.77,819.724 1027.17,853.967 991.244,894.195 998.864,886.955 993.381,906.406 956.118,933.168 984.734,891.043 1049.67,845.502 1073.45,820.461 967.438,914.463 950.887,938.528 966.804,932.061 919.424,957.793 1002.03,882.983 1033.37,862.774 978.563,907.558 1091.95,817.225 1070.91,825.613 1071.26,827.902 1081.34,819.263 1032.36,861.126 1127.62,778.91 1048.57,859.786 999.485,901.644 1025.85,863.673 1007.16,864.845 1148.17,742.7 1264.77,665.945 1350.09,622.626 1314.12,656.966 1282.68,693.503 1301,675.797 1248.53,725.199 1212.86,731.582 1226.42,710.58 1129.3,798.125 1316.15,633.573 1300.71,658.379 1321.79,640.264 1239.63,713.195 1296.81,680.525 1119.7,821.408 1170.91,748.736 1141.83,778.462 1189.41,731.795 1097.51,822.709 1120.71,802.375 1119.96,802.245 1097.1,829.461 1004.15,901.836 919.487,973.412 873.202,1010.4 864.681,1009.09 874.131,996.893 814.064,1058.95 828.602,1045.1 839.76,1025.15 871.461,994.534 956.568,905.992 1022.41,856.983 1042.07,846.723 1020.29,875.502 1054.55,834.319 1092.63,801.093 1134.9,772.348 1112.09,798.27 1077.45,833.255 1076.41,832.666 1132.53,785.059 1194.77,745.135 1175.03,755.294 1120.96,799.107 1207.59,744.597 1122.3,798.174 1126.97,792.788 1104.83,813.021 1068.07,857.823 1052.21,851.378 1037.27,862.292 1090.27,811.734 1110.93,794.639 1203.95,721.898 1173.86,769.516 1163.28,769.015 1303.45,643.305 1317,670.184 1343.18,629.518 1353.4,623.029 1339.83,640.205 1238.2,711.202 1241.98,705.073 1227.94,712.661 1387.44,583.648 1463.57,541.992 1288.93,695.615 1205.77,766.028 1244.86,704.474 1271.31,684.783 1204.67,737.453 1211.87,728.145 1236.14,709.886 1296.24,661.896 1375.79,598.564 1454.16,526.071 1427.18,582.898 1470.96,557.774 1672.24,396.775 1693.88,403.519 1629.13,481.3 1661.16,443.126 1615.17,490.044 1664.99,443.829 1623.13,487.451 1537.99,545.181 1483.07,570.077 1444.28,594.918 1403.37,619.144 1440.19,575.326 1432.13,575.033 1530.32,485.592 1496.42,535.847 1485.41,550.109 1402.64,610.945 1368.58,636.978 1334.17,666.381 1353.39,634.774 1393,599.1 1454.83,553.893 1348.02,657.721 1384.14,621.254 1442.33,569.018 1494.62,538.148 1343.75,665.83 1271.39,720.51 1259.28,698.747 1201.66,741.525 1107.72,825.017 1186.07,729.071 1272.98,653.239 1243.47,704.873 1186.26,751.466 1235.46,707.619 1309.46,665.525 1335.01,631.069 1402.61,578.679 1387.56,601.691 1355.26,622.759 1455.26,527.629 1480.74,533.35 1462.34,572.461 1542.67,499.08 1452.78,579.632 1370.11,638.752 1320.58,676.791 1229.38,747.457 1111.05,838.298 1049.56,880.091 1000.84,912.954 1031.86,863.561 990.314,902.976 1086.6,791.707 1056.79,846.419 1092.14,804.992 1029.01,879.011 1020.92,877.356 937.153,962.218 948.385,941.379 995.136,888.292 956.155,928.472 1034.28,848.063 1077.91,827.112 1064.31,848.637 1152.16,773.261 1049.48,857.243 1009.33,895.338 965.618,930.798 933.478,969.406 944.274,939.721 976.607,910.38 1083.79,794.496 1030.24,854.301 1068.32,826.224 1148.67,759.679 1209.23,725.265 1436.46,525.123 1315.41,653.62 1206.22,762.151 1170.57,768.556 1062.19,876.284 1079.83,832.683 1100.12,811.245 1104.26,808.207 1146.49,761.606 1125.2,809.569 1093.77,834.229 1037.04,881.496 1002.83,903.722 1029.15,869.73 964.27,934.326 881.321,1010.2 869.802,1013.2 895.085,974.923 926.345,937.322 977.065,891.457 1006.36,868.491 1080.82,811.359 1088.67,809.487 1094.82,806.079 994.965,908.013 997.231,895.72 956.672,933.431 948.39,928.49 966.454,904.081 932.61,953.054 894.715,988.558 945.711,929.624 884.761,992.656 892.936,994.125 949.554,929.225 913.144,966.257 878.457,1012.04 890.532,1002.35 903.784,973.014 954.355,915.632 969.117,926.888 1058.04,838.046 995.525,887.641 1061.15,832.511 1152.45,757.867 1151.01,768.623 1297.08,657.739 1505.4,497.444 1543.3,500.753 1492.01,562.275 1360.01,657.82 1349.92,647.679 1326.24,660.935 1290.5,676.314 1204.41,741.55 1082,847.619 1104.93,808.63 1053.5,853.711 1087.06,810.764 1082.85,813.092 1055.43,852.169 1008.87,884.87 1059.06,851.23 1069.54,844.53 1031.62,872.246 1030.2,880.22 1074.29,839.97 1123.18,795.843 1116.63,813.482 1143.31,796.309 1160.68,775.328 1282.82,670.527 1298.31,657.649 1162.35,735.241 1143.11,763.942 1224.71,717.305 1284.14,692.522 1191.28,756.954 1112.69,816.67 1156.68,776.705 1062.6,844.952 1033.93,871.508 1111.94,783.315 1171.75,738.893 1215.04,710.893 1217.91,718.544 1250.8,692.506 1212.88,730.557 1199.3,752.396 1293.36,662.106 1202.55,739.722 1206.86,734.653 1284.59,666.852 1290.36,661.225 1167.94,756.412 1191.42,757.061 1188.87,737.295 1061.58,837.53 1026.35,871.7 975.512,919.619 1034.64,875.963 1030.09,874.849 1024.16,863.895 1046.53,863.871 1036.97,866.275 1231.83,673.383 1173.65,756.154 1196.82,734.664 1286.67,665.111 1272.66,688.283 1288.32,659.299 1281.41,684.764 1239.58,724.126 1201.55,757.413 1167.62,783.436 1022.72,904.736 1008.92,897.162 966.641,933.188 997.949,885.263 916.367,971.661 872.591,1010.23 894.905,982.928 1034.81,852.727 1026.43,863.962 955.446,933.548 980.134,901.721 992.37,890.158 962.958,932.981 1034.47,852.508 1037.31,848.306 1070.67,826.522 1099.92,806.615 1143.23,770.965 1135.6,781.109 1264.58,688.611 1177.97,765.405 1086.09,840.715 1083.22,828.356 1169.57,752.594 1225.36,711.509 1111.38,803.573 1126.47,791.301 1131.68,775.723 1116.5,792.092 1065.13,830.263 1037.05,858.776 1007.31,882.606 1009.98,872.993 841.803,1007.52 887.018,979.737 876.535,980.279 865.831,1002.79 903.539,966.161 856.85,1013.27 929.001,943.862 937.219,936.534 1011.19,871.123 980.154,906.918 1000.33,880.727 1027.76,851.419 959.715,918.914 929.531,933.146 965.612,898.109 953.962,909.253 1032.96,852.067 1059.34,840.122 1054.98,839.666 1116.63,780.901 1098.57,792.712 1087.48,813.575 1129.45,793.869 1164.82,752.952 1220.68,714.537 1364.67,590.781 1318.86,652.074 1440.32,547.956 1384.72,615.533 1354.51,635.214 1371.52,613.419 1383.9,599.575 1477.84,551.995 1556.76,501.148 1416.83,618.803 1403.38,606.733 1352.05,641.705 1377,615.352 1499.64,514.972 1577.06,460.316 1590.75,477.392 1638.49,437.528 1503.82,552.951 1408.75,633.362 1401.22,626.009 1260.82,737.097 1218.77,750.308 1215.07,738.227 1178.45,766.511 1175.41,766.371 1262.69,675.468 1329.15,626.748 1371.47,600.127 1244.94,721.632 1284.14,674.037 1271.53,683.072 1158.04,771.154 1073.58,846.861 1045.9,862.7 966.111,936.651 1012.91,887.023 957.274,931.604 933.972,949.758 1039.62,840.568 914.888,972.212 960.804,912.005 1021.31,873.791 1019.31,876.057 1035.63,863.615 1068.89,827.375 983.186,908.264 912.354,976.333 1016.8,860.619 1087.52,807.238 1121.07,779.569 1073.34,829.448 1143.82,764.731 1115.48,799.631 1116.32,785.612 1099.97,806.818 1116.21,814.591 1100.65,829.235 1114.75,826.104 1138.77,800.041 1118.06,820.154 1100.34,844.028 991.16,928.582 990.646,911.306 950.516,944.936 965.186,913.123 998.56,881.062 986.355,905.731 993.712,894.777 947.683,947.8 992.349,901.995 996.185,903.08 1067.23,835.505 1055.21,848.497 1097.96,809.064 1148.97,762.528 1070.3,841.842 961.762,918.747 944.301,944.95 900.112,981.213 917.523,970.408 885.545,990.659 943.877,938.86 957.2,916.6 1022.63,847.713 1061.83,824.452 1051.13,846.531 1061.31,843.981 1229.78,697.296 1304.99,645.763 1284.41,681.722 1287.42,668.888 1210.39,706.121 1247.92,689.147 1256.02,694.352 1336.15,648.299 1300.66,672.505 1298.12,679.128 1256.5,689.147 1248.26,691.4 1212.57,737.663 1098.71,830.352 1045.56,871.841 1023,877.057 1162.58,748.944 1190.29,741.097 1125.19,794.489 1156.92,768.249 1125.96,798.43 1307.55,646.204 1318.52,644.304 1385.77,586.549 1337.81,643.997 1363.03,619.037 1288.13,683.658 1322.19,640.785 1191.8,754.548 1195.39,735.534 1200.19,722.899 1162.35,765.83 1127.55,782.795 1252.7,675.719 1287.89,673.799 1271.3,677.277 1423.77,570.772 1374.38,617.605 1350.5,627.922 1348.54,646.421 1410.1,589.465 1286.44,682.104 1247.81,722.982 1181.67,775.561 1170.33,774.941 1149.45,786.501 1087.4,832.144 1136.66,778.907 1156.83,770.326 1072.68,852.473 1103.36,801.36 1146.73,767.808 933.772,952.551 953.841,928.105 959.984,924.957 990.447,907.236 1019.07,881.644 953.853,941.013 1044.35,844.742 1060.22,826.647 1200.08,713.808 1215.65,717.564 1199.33,733.684 1162.59,772.056 1153.05,765.688 1175,754.936 1137.83,776.31 1201.59,724.266 1121.56,791.838 1033.82,860.344 1086.79,815.266 1131,784.586 1097.28,811.276 1018.31,895.931 926.659,965.976 914.248,974.446 943.552,936.769 960.894,919.615 999.524,888.328 1067.31,825.656 1016.28,884.254 1040.21,858.618 1096.54,792.586 1025.66,870.31 1037.33,849.885 1087.17,822.409 1140.42,775.256 1145.6,761.783 1199.8,721.918 1171.62,756.407 1139.17,785.511 1111.86,817.383 1048.49,864.837 1028.46,879.79 1037.44,862.912 1004.65,890.644 1044.14,842.506 1117.17,785.333 1140.66,771.334 1160.68,754.743 1160.37,761.827 1189.56,732.765 1113.3,803.386 1038.93,862.193 1097.67,800.028 1044.07,864.153 1151.04,747.885 1179.45,733.344 1269.95,668.104 1330.42,631.889 1403.73,579.017 1392.29,596.449 1495.58,540.933 1579.66,471.684 1674.28,405.158 1558.07,502.215 1498.64,554 1371.86,645.527 1380.06,622.515 1315.37,670.097 1249.79,720.515 1200.86,756.724 1103.64,834.797 1077.97,841.734 1056.47,855.458 1021.3,881.748 988.109,908.721 959.844,927.357 939.67,938.858 894.258,985.189 901.635,968.051 959.548,912.746 927.922,950.208 856.138,1034.63 852.492,1028.23 811.663,1061.77 780.369,1091.41 839.529,1029.08 885.299,971.544 865.455,1012.51 934.827,933.862 981.959,894.1 1007.12,879.177 990.675,904.301 948.958,953.961 958.223,944.82 861.64,1022.19 827.561,1055.72 832.362,1047.47 897.34,974.401 890.674,986.339 886.372,981.723 975.708,887.113 1100.45,779.175 1116.7,782.432 1201.71,715.389 1179,758.843 1246.79,701.12 1372.95,609.498 1429.31,576.582 1377.33,609.65 1403.06,597.266 1336.62,647.229 1266.76,707.558 1189.89,758.36 1105.31,823.839 1046.07,864.004 1069.8,833.161 1000.07,896.919 1100.73,792.427 1068.44,828.846 1123.9,766.64 1214.76,723.972 1288.77,656.99 1351.61,629.934 1427.01,562.117 1430.91,572.938 1494.33,516.784 1367.71,642.95 1434.5,573.386 1378.54,619.636 1294.05,686.476 1167.58,795.576 1215.32,725.988 1229.12,704.875 1234.43,701.283 1288.99,651 1352.52,614.619 1317.84,654.239 1277.32,686.258 1306.66,655.286 1223.23,732.346 1139.17,795.275 1089.59,832.958 1075.82,836.712 1038.18,883.603 1062.1,841.111 1024.6,879.051 1033.65,863.193 1064.01,830.457 1121.88,785.913 951.539,956.717 966.522,936.878 976.344,923.755 1127.66,762.003 1150.38,772.147 1121.23,808.675 1009.42,897.444 1031.01,864.582 1032.76,864.538 1142.37,757.618 1128.22,782.167 1147.25,765.13 1160.81,762.427 1094.48,820.089 1086.81,821.299 1101.29,842.817 1134.63,781.875 1025.57,885.412 1084.84,828.082 1009.71,885.873 1008.82,878.256 907.506,977.953 931.642,941.751 948.526,949.519 936.074,952.076 901.122,989.74 913.071,978.118 881.827,999.244 897.119,969.44 894.283,963.724 850.448,1013.05 882.824,979.853 952.267,914.574 900.676,970.406 862.208,1000.12 915.717,952.553 904.59,973.342 913.568,952.235 981.437,886.584 893.789,984.577 905.073,970.605 924.72,944.355 918.475,952.401 889.504,985.825 945.868,942.658 943.853,956.01 992.436,902.084 851.679,1016.45 867.462,1006.48 907.832,966.619 968.385,905.055 887.453,989.597 921.837,941.028 873.1,1007.69 892.694,985.442 919.122,950.604 994.762,899.301 1006.58,879.321 1045.69,830.504 1129.79,768.048 1133.24,777.15 1142.28,767.492 1185.18,740.757 1232.64,701.193 1384.85,588.705 1358.88,632.968 1308.28,678.992 1284.23,691.104 1228.88,742.076 1128.75,819.459 1029.5,902.856 1058.78,858.274 1076.95,828.886 1028.29,885.237 978.599,924.228 954.905,937.371 942.985,947.85 949.463,935.772 953.037,927.921 1033.99,853.122 1084.23,808.053 1015.53,868.65 979.825,907.119 976.512,921.242 950.58,936.171 952.729,925.81 1029.98,853.692 1042.1,852.377 1037.56,871.779 992.012,896.565 983.517,905.605 1050.43,845.729 1113.6,790.556 1100.18,810.078 1110.92,797.869 1249.28,697.418 1243.84,713.152 1246.94,713.244 1226.23,731.477 1224.82,723.269 1065.95,863.78 1064.38,851.822 1086.01,823.328 1160.7,753.224 1086.76,830.454 1121.47,783.057 1100.5,795.765 1094.82,797.143 1218.88,703.836 1151.68,768.648 1106.01,807.153 1069.85,838.548 1201.68,721.268 1219.8,716.523 1243.79,685.142 1206.64,716.379 1307.3,679.236 1265.06,707.093 1339.8,630.06 1242.17,734.696 1260.95,707.195 1206.51,753.045 1230.3,728.719 1351.31,639.94 1175.7,775.095 1139.59,801.838 1233.61,687.059 1196.92,730.455 1060.72,847.434 1058.99,851.504 1001.21,897.032 936.991,952.546 940.682,937.87 981.903,897.905 923.299,959.466 889.348,998.331 928.495,951.885 866.202,1002.1 957.938,910.992 1089.39,788.118 1143.26,769.605 1138.69,780.548 1128.46,793.68 1061.56,857.805 1133.16,772.824 1009.46,877.651 1016.52,891.025 949.145,944.752 935.977,956.651 920.728,971.806 901.594,984.035 897.326,984.51 854.795,1017.37 842.912,1030.63 903.406,973.56 931.281,946.117 967.077,913.749 979,914.032 970.39,913.579 938.229,946.212 912.732,958.206 932.055,943.127 880.475,1001.39 844.414,1029.72 927.297,935.46 856.032,1010.71 932.066,936.068 940.209,941.011 955.935,931.586 958.888,917.49 1032.57,855.516 999.409,879.907 935.75,934.358 887.658,972.247 928.871,949.255 901.5,984.52 826.216,1052.03 795.864,1082.48 857.467,1017.09 874.946,1002.16 888.373,987.086 866.902,1008.48 824.65,1060.74 783.943,1088.01 759.352,1110.5 816.679,1036.58 837.505,1021.4 870.827,995.96 877.149,987.967 825.17,1043.34 797.386,1067.3 787.173,1081.36 721.146,1149.35 697.059,1178.01 "/>
<path clip-path="url(#clip580)" d="M186.863 198.898 L550.897 198.898 L550.897 95.2176 L186.863 95.2176  Z" fill="#ffffff" fill-rule="evenodd" fill-opacity="1"/>
<polyline clip-path="url(#clip580)" style="stroke:#000000; stroke-linecap:round; stroke-linejoin:round; stroke-width:4; stroke-opacity:1; fill:none" points="186.863,198.898 550.897,198.898 550.897,95.2176 186.863,95.2176 186.863,198.898 "/>
<polyline clip-path="url(#clip580)" style="stroke:#009af9; stroke-linecap:round; stroke-linejoin:round; stroke-width:4; stroke-opacity:1; fill:none" points="211.758,147.058 361.13,147.058 "/>
<path clip-path="url(#clip580)" d="M396.651 128.366 Q393.549 133.69 392.044 138.898 Q390.54 144.106 390.54 149.453 Q390.54 154.801 392.044 160.055 Q393.572 165.287 396.651 170.588 L392.947 170.588 Q389.475 165.148 387.739 159.893 Q386.026 154.639 386.026 149.453 Q386.026 144.291 387.739 139.06 Q389.452 133.828 392.947 128.366 L396.651 128.366 Z" fill="#000000" fill-rule="nonzero" fill-opacity="1" /><path clip-path="url(#clip580)" d="M403.063 138.412 L423.294 138.412 L423.294 142.301 L407.276 160.935 L423.294 160.935 L423.294 164.338 L402.484 164.338 L402.484 160.449 L418.502 141.815 L403.063 141.815 L403.063 138.412 Z" fill="#000000" fill-rule="nonzero" fill-opacity="1" /><path clip-path="url(#clip580)" d="M430.887 158.458 L435.771 158.458 L435.771 162.439 L431.975 169.847 L428.988 169.847 L430.887 162.439 L430.887 158.458 Z" fill="#000000" fill-rule="nonzero" fill-opacity="1" /><path clip-path="url(#clip580)" d="M455.655 166.745 Q453.849 171.375 452.136 172.787 Q450.423 174.199 447.553 174.199 L444.15 174.199 L444.15 170.634 L446.65 170.634 Q448.41 170.634 449.382 169.8 Q450.354 168.967 451.535 165.865 L452.298 163.921 L441.812 138.412 L446.326 138.412 L454.428 158.689 L462.53 138.412 L467.044 138.412 L455.655 166.745 Z" fill="#000000" fill-rule="nonzero" fill-opacity="1" /><path clip-path="url(#clip580)" d="M474.011 158.458 L478.896 158.458 L478.896 162.439 L475.099 169.847 L472.113 169.847 L474.011 162.439 L474.011 158.458 Z" fill="#000000" fill-rule="nonzero" fill-opacity="1" /><path clip-path="url(#clip580)" d="M509.544 138.412 L500.169 151.027 L510.03 164.338 L505.007 164.338 L497.46 154.152 L489.914 164.338 L484.891 164.338 L494.96 150.773 L485.747 138.412 L490.77 138.412 L497.645 147.648 L504.52 138.412 L509.544 138.412 Z" fill="#000000" fill-rule="nonzero" fill-opacity="1" /><path clip-path="url(#clip580)" d="M515.377 128.366 L519.081 128.366 Q522.553 133.828 524.266 139.06 Q526.002 144.291 526.002 149.453 Q526.002 154.639 524.266 159.893 Q522.553 165.148 519.081 170.588 L515.377 170.588 Q518.456 165.287 519.96 160.055 Q521.488 154.801 521.488 149.453 Q521.488 144.106 519.96 138.898 Q518.456 133.69 515.377 128.366 Z" fill="#000000" fill-rule="nonzero" fill-opacity="1" /></svg>
