<?xml version="1.0" encoding="utf-8"?>
<svg xmlns="http://www.w3.org/2000/svg" xmlns:xlink="http://www.w3.org/1999/xlink" width="600" height="400" viewBox="0 0 2400 1600">
<defs>
  <clipPath id="clip080">
    <rect x="0" y="0" width="2400" height="1600"/>
  </clipPath>
</defs>
<path clip-path="url(#clip080)" d="M0 1600 L2400 1600 L2400 0 L0 0  Z" fill="#ffffff" fill-rule="evenodd" fill-opacity="1"/>
<defs>
  <clipPath id="clip081">
    <rect x="480" y="0" width="1681" height="1600"/>
  </clipPath>
</defs>
<path clip-path="url(#clip080)" d="M193.936 1423.18 L2352.76 1423.18 L2352.76 47.2441 L193.936 47.2441  Z" fill="#ffffff" fill-rule="evenodd" fill-opacity="1"/>
<defs>
  <clipPath id="clip082">
    <rect x="193" y="47" width="2160" height="1377"/>
  </clipPath>
</defs>
<polyline clip-path="url(#clip082)" style="stroke:#000000; stroke-linecap:round; stroke-linejoin:round; stroke-width:2; stroke-opacity:0.1; fill:none" points="193.936,1423.18 193.936,47.2441 "/>
<polyline clip-path="url(#clip082)" style="stroke:#000000; stroke-linecap:round; stroke-linejoin:round; stroke-width:2; stroke-opacity:0.1; fill:none" points="625.7,1423.18 625.7,47.2441 "/>
<polyline clip-path="url(#clip082)" style="stroke:#000000; stroke-linecap:round; stroke-linejoin:round; stroke-width:2; stroke-opacity:0.1; fill:none" points="1057.46,1423.18 1057.46,47.2441 "/>
<polyline clip-path="url(#clip082)" style="stroke:#000000; stroke-linecap:round; stroke-linejoin:round; stroke-width:2; stroke-opacity:0.1; fill:none" points="1489.23,1423.18 1489.23,47.2441 "/>
<polyline clip-path="url(#clip082)" style="stroke:#000000; stroke-linecap:round; stroke-linejoin:round; stroke-width:2; stroke-opacity:0.1; fill:none" points="1920.99,1423.18 1920.99,47.2441 "/>
<polyline clip-path="url(#clip082)" style="stroke:#000000; stroke-linecap:round; stroke-linejoin:round; stroke-width:2; stroke-opacity:0.1; fill:none" points="2352.76,1423.18 2352.76,47.2441 "/>
<polyline clip-path="url(#clip082)" style="stroke:#000000; stroke-linecap:round; stroke-linejoin:round; stroke-width:2; stroke-opacity:0.1; fill:none" points="193.936,1321.75 2352.76,1321.75 "/>
<polyline clip-path="url(#clip082)" style="stroke:#000000; stroke-linecap:round; stroke-linejoin:round; stroke-width:2; stroke-opacity:0.1; fill:none" points="193.936,1109.75 2352.76,1109.75 "/>
<polyline clip-path="url(#clip082)" style="stroke:#000000; stroke-linecap:round; stroke-linejoin:round; stroke-width:2; stroke-opacity:0.1; fill:none" points="193.936,897.751 2352.76,897.751 "/>
<polyline clip-path="url(#clip082)" style="stroke:#000000; stroke-linecap:round; stroke-linejoin:round; stroke-width:2; stroke-opacity:0.1; fill:none" points="193.936,685.751 2352.76,685.751 "/>
<polyline clip-path="url(#clip082)" style="stroke:#000000; stroke-linecap:round; stroke-linejoin:round; stroke-width:2; stroke-opacity:0.1; fill:none" points="193.936,473.751 2352.76,473.751 "/>
<polyline clip-path="url(#clip082)" style="stroke:#000000; stroke-linecap:round; stroke-linejoin:round; stroke-width:2; stroke-opacity:0.1; fill:none" points="193.936,261.751 2352.76,261.751 "/>
<polyline clip-path="url(#clip082)" style="stroke:#000000; stroke-linecap:round; stroke-linejoin:round; stroke-width:2; stroke-opacity:0.1; fill:none" points="193.936,49.7507 2352.76,49.7507 "/>
<polyline clip-path="url(#clip080)" style="stroke:#000000; stroke-linecap:round; stroke-linejoin:round; stroke-width:4; stroke-opacity:1; fill:none" points="193.936,1423.18 2352.76,1423.18 "/>
<polyline clip-path="url(#clip080)" style="stroke:#000000; stroke-linecap:round; stroke-linejoin:round; stroke-width:4; stroke-opacity:1; fill:none" points="193.936,1423.18 193.936,1404.28 "/>
<polyline clip-path="url(#clip080)" style="stroke:#000000; stroke-linecap:round; stroke-linejoin:round; stroke-width:4; stroke-opacity:1; fill:none" points="625.7,1423.18 625.7,1404.28 "/>
<polyline clip-path="url(#clip080)" style="stroke:#000000; stroke-linecap:round; stroke-linejoin:round; stroke-width:4; stroke-opacity:1; fill:none" points="1057.46,1423.18 1057.46,1404.28 "/>
<polyline clip-path="url(#clip080)" style="stroke:#000000; stroke-linecap:round; stroke-linejoin:round; stroke-width:4; stroke-opacity:1; fill:none" points="1489.23,1423.18 1489.23,1404.28 "/>
<polyline clip-path="url(#clip080)" style="stroke:#000000; stroke-linecap:round; stroke-linejoin:round; stroke-width:4; stroke-opacity:1; fill:none" points="1920.99,1423.18 1920.99,1404.28 "/>
<polyline clip-path="url(#clip080)" style="stroke:#000000; stroke-linecap:round; stroke-linejoin:round; stroke-width:4; stroke-opacity:1; fill:none" points="2352.76,1423.18 2352.76,1404.28 "/>
<path clip-path="url(#clip080)" d="M193.936 1454.1 Q190.325 1454.1 188.496 1457.66 Q186.691 1461.2 186.691 1468.33 Q186.691 1475.44 188.496 1479.01 Q190.325 1482.55 193.936 1482.55 Q197.57 1482.55 199.376 1479.01 Q201.204 1475.44 201.204 1468.33 Q201.204 1461.2 199.376 1457.66 Q197.57 1454.1 193.936 1454.1 M193.936 1450.39 Q199.746 1450.39 202.802 1455 Q205.88 1459.58 205.88 1468.33 Q205.88 1477.06 202.802 1481.67 Q199.746 1486.25 193.936 1486.25 Q188.126 1486.25 185.047 1481.67 Q181.992 1477.06 181.992 1468.33 Q181.992 1459.58 185.047 1455 Q188.126 1450.39 193.936 1450.39 Z" fill="#000000" fill-rule="nonzero" fill-opacity="1" /><path clip-path="url(#clip080)" d="M620.353 1481.64 L636.672 1481.64 L636.672 1485.58 L614.728 1485.58 L614.728 1481.64 Q617.39 1478.89 621.973 1474.26 Q626.58 1469.61 627.76 1468.27 Q630.006 1465.74 630.885 1464.01 Q631.788 1462.25 631.788 1460.56 Q631.788 1457.8 629.843 1456.07 Q627.922 1454.33 624.82 1454.33 Q622.621 1454.33 620.168 1455.09 Q617.737 1455.86 614.959 1457.41 L614.959 1452.69 Q617.783 1451.55 620.237 1450.97 Q622.691 1450.39 624.728 1450.39 Q630.098 1450.39 633.293 1453.08 Q636.487 1455.77 636.487 1460.26 Q636.487 1462.39 635.677 1464.31 Q634.89 1466.2 632.783 1468.8 Q632.205 1469.47 629.103 1472.69 Q626.001 1475.88 620.353 1481.64 Z" fill="#000000" fill-rule="nonzero" fill-opacity="1" /><path clip-path="url(#clip080)" d="M1060.47 1455.09 L1048.67 1473.54 L1060.47 1473.54 L1060.47 1455.09 M1059.25 1451.02 L1065.13 1451.02 L1065.13 1473.54 L1070.06 1473.54 L1070.06 1477.43 L1065.13 1477.43 L1065.13 1485.58 L1060.47 1485.58 L1060.47 1477.43 L1044.87 1477.43 L1044.87 1472.92 L1059.25 1451.02 Z" fill="#000000" fill-rule="nonzero" fill-opacity="1" /><path clip-path="url(#clip080)" d="M1489.63 1466.44 Q1486.48 1466.44 1484.63 1468.59 Q1482.8 1470.74 1482.8 1474.49 Q1482.8 1478.22 1484.63 1480.39 Q1486.48 1482.55 1489.63 1482.55 Q1492.78 1482.55 1494.61 1480.39 Q1496.46 1478.22 1496.46 1474.49 Q1496.46 1470.74 1494.61 1468.59 Q1492.78 1466.44 1489.63 1466.44 M1498.92 1451.78 L1498.92 1456.04 Q1497.16 1455.21 1495.35 1454.77 Q1493.57 1454.33 1491.81 1454.33 Q1487.18 1454.33 1484.73 1457.45 Q1482.3 1460.58 1481.95 1466.9 Q1483.31 1464.89 1485.37 1463.82 Q1487.43 1462.73 1489.91 1462.73 Q1495.12 1462.73 1498.13 1465.9 Q1501.16 1469.05 1501.16 1474.49 Q1501.16 1479.82 1498.01 1483.03 Q1494.86 1486.25 1489.63 1486.25 Q1483.64 1486.25 1480.47 1481.67 Q1477.3 1477.06 1477.3 1468.33 Q1477.3 1460.14 1481.18 1455.28 Q1485.07 1450.39 1491.62 1450.39 Q1493.38 1450.39 1495.17 1450.74 Q1496.97 1451.09 1498.92 1451.78 Z" fill="#000000" fill-rule="nonzero" fill-opacity="1" /><path clip-path="url(#clip080)" d="M1920.99 1469.17 Q1917.66 1469.17 1915.74 1470.95 Q1913.84 1472.73 1913.84 1475.86 Q1913.84 1478.98 1915.74 1480.77 Q1917.66 1482.55 1920.99 1482.55 Q1924.33 1482.55 1926.25 1480.77 Q1928.17 1478.96 1928.17 1475.86 Q1928.17 1472.73 1926.25 1470.95 Q1924.35 1469.17 1920.99 1469.17 M1916.32 1467.18 Q1913.31 1466.44 1911.62 1464.38 Q1909.95 1462.32 1909.95 1459.35 Q1909.95 1455.21 1912.89 1452.8 Q1915.85 1450.39 1920.99 1450.39 Q1926.15 1450.39 1929.09 1452.8 Q1932.03 1455.21 1932.03 1459.35 Q1932.03 1462.32 1930.34 1464.38 Q1928.68 1466.44 1925.69 1467.18 Q1929.07 1467.96 1930.95 1470.26 Q1932.84 1472.55 1932.84 1475.86 Q1932.84 1480.88 1929.77 1483.57 Q1926.71 1486.25 1920.99 1486.25 Q1915.27 1486.25 1912.2 1483.57 Q1909.14 1480.88 1909.14 1475.86 Q1909.14 1472.55 1911.04 1470.26 Q1912.94 1467.96 1916.32 1467.18 M1914.6 1459.79 Q1914.6 1462.48 1916.27 1463.98 Q1917.96 1465.49 1920.99 1465.49 Q1924 1465.49 1925.69 1463.98 Q1927.4 1462.48 1927.4 1459.79 Q1927.4 1457.11 1925.69 1455.6 Q1924 1454.1 1920.99 1454.1 Q1917.96 1454.1 1916.27 1455.6 Q1914.6 1457.11 1914.6 1459.79 Z" fill="#000000" fill-rule="nonzero" fill-opacity="1" /><path clip-path="url(#clip080)" d="M2327.44 1481.64 L2335.08 1481.64 L2335.08 1455.28 L2326.77 1456.95 L2326.77 1452.69 L2335.04 1451.02 L2339.71 1451.02 L2339.71 1481.64 L2347.35 1481.64 L2347.35 1485.58 L2327.44 1485.58 L2327.44 1481.64 Z" fill="#000000" fill-rule="nonzero" fill-opacity="1" /><path clip-path="url(#clip080)" d="M2366.8 1454.1 Q2363.18 1454.1 2361.36 1457.66 Q2359.55 1461.2 2359.55 1468.33 Q2359.55 1475.44 2361.36 1479.01 Q2363.18 1482.55 2366.8 1482.55 Q2370.43 1482.55 2372.23 1479.01 Q2374.06 1475.44 2374.06 1468.33 Q2374.06 1461.2 2372.23 1457.66 Q2370.43 1454.1 2366.8 1454.1 M2366.8 1450.39 Q2372.61 1450.39 2375.66 1455 Q2378.74 1459.58 2378.74 1468.33 Q2378.74 1477.06 2375.66 1481.67 Q2372.61 1486.25 2366.8 1486.25 Q2360.99 1486.25 2357.91 1481.67 Q2354.85 1477.06 2354.85 1468.33 Q2354.85 1459.58 2357.91 1455 Q2360.99 1450.39 2366.8 1450.39 Z" fill="#000000" fill-rule="nonzero" fill-opacity="1" /><path clip-path="url(#clip080)" d="M1272.41 1522.27 L1272.41 1532.4 L1284.47 1532.4 L1284.47 1536.95 L1272.41 1536.95 L1272.41 1556.3 Q1272.41 1560.66 1273.58 1561.9 Q1274.79 1563.14 1278.45 1563.14 L1284.47 1563.14 L1284.47 1568.04 L1278.45 1568.04 Q1271.67 1568.04 1269.1 1565.53 Q1266.52 1562.98 1266.52 1556.3 L1266.52 1536.95 L1262.22 1536.95 L1262.22 1532.4 L1266.52 1532.4 L1266.52 1522.27 L1272.41 1522.27 Z" fill="#000000" fill-rule="nonzero" fill-opacity="1" /><polyline clip-path="url(#clip080)" style="stroke:#000000; stroke-linecap:round; stroke-linejoin:round; stroke-width:4; stroke-opacity:1; fill:none" points="193.936,1423.18 193.936,47.2441 "/>
<polyline clip-path="url(#clip080)" style="stroke:#000000; stroke-linecap:round; stroke-linejoin:round; stroke-width:4; stroke-opacity:1; fill:none" points="193.936,1321.75 212.834,1321.75 "/>
<polyline clip-path="url(#clip080)" style="stroke:#000000; stroke-linecap:round; stroke-linejoin:round; stroke-width:4; stroke-opacity:1; fill:none" points="193.936,1109.75 212.834,1109.75 "/>
<polyline clip-path="url(#clip080)" style="stroke:#000000; stroke-linecap:round; stroke-linejoin:round; stroke-width:4; stroke-opacity:1; fill:none" points="193.936,897.751 212.834,897.751 "/>
<polyline clip-path="url(#clip080)" style="stroke:#000000; stroke-linecap:round; stroke-linejoin:round; stroke-width:4; stroke-opacity:1; fill:none" points="193.936,685.751 212.834,685.751 "/>
<polyline clip-path="url(#clip080)" style="stroke:#000000; stroke-linecap:round; stroke-linejoin:round; stroke-width:4; stroke-opacity:1; fill:none" points="193.936,473.751 212.834,473.751 "/>
<polyline clip-path="url(#clip080)" style="stroke:#000000; stroke-linecap:round; stroke-linejoin:round; stroke-width:4; stroke-opacity:1; fill:none" points="193.936,261.751 212.834,261.751 "/>
<polyline clip-path="url(#clip080)" style="stroke:#000000; stroke-linecap:round; stroke-linejoin:round; stroke-width:4; stroke-opacity:1; fill:none" points="193.936,49.7507 212.834,49.7507 "/>
<path clip-path="url(#clip080)" d="M51.9875 1322.2 L81.6633 1322.2 L81.6633 1326.14 L51.9875 1326.14 L51.9875 1322.2 Z" fill="#000000" fill-rule="nonzero" fill-opacity="1" /><path clip-path="url(#clip080)" d="M92.566 1335.1 L100.205 1335.1 L100.205 1308.73 L91.8947 1310.4 L91.8947 1306.14 L100.159 1304.47 L104.834 1304.47 L104.834 1335.1 L112.473 1335.1 L112.473 1339.03 L92.566 1339.03 L92.566 1335.1 Z" fill="#000000" fill-rule="nonzero" fill-opacity="1" /><path clip-path="url(#clip080)" d="M121.918 1333.15 L126.802 1333.15 L126.802 1339.03 L121.918 1339.03 L121.918 1333.15 Z" fill="#000000" fill-rule="nonzero" fill-opacity="1" /><path clip-path="url(#clip080)" d="M137.033 1304.47 L155.39 1304.47 L155.39 1308.41 L141.316 1308.41 L141.316 1316.88 Q142.334 1316.53 143.353 1316.37 Q144.371 1316.18 145.39 1316.18 Q151.177 1316.18 154.556 1319.36 Q157.936 1322.53 157.936 1327.94 Q157.936 1333.52 154.464 1336.62 Q150.992 1339.7 144.672 1339.7 Q142.496 1339.7 140.228 1339.33 Q137.982 1338.96 135.575 1338.22 L135.575 1333.52 Q137.658 1334.66 139.881 1335.21 Q142.103 1335.77 144.58 1335.77 Q148.584 1335.77 150.922 1333.66 Q153.26 1331.55 153.26 1327.94 Q153.26 1324.33 150.922 1322.23 Q148.584 1320.12 144.58 1320.12 Q142.705 1320.12 140.83 1320.54 Q138.978 1320.95 137.033 1321.83 L137.033 1304.47 Z" fill="#000000" fill-rule="nonzero" fill-opacity="1" /><path clip-path="url(#clip080)" d="M50.9921 1110.2 L80.6679 1110.2 L80.6679 1114.14 L50.9921 1114.14 L50.9921 1110.2 Z" fill="#000000" fill-rule="nonzero" fill-opacity="1" /><path clip-path="url(#clip080)" d="M91.5706 1123.1 L99.2095 1123.1 L99.2095 1096.73 L90.8993 1098.4 L90.8993 1094.14 L99.1632 1092.47 L103.839 1092.47 L103.839 1123.1 L111.478 1123.1 L111.478 1127.03 L91.5706 1127.03 L91.5706 1123.1 Z" fill="#000000" fill-rule="nonzero" fill-opacity="1" /><path clip-path="url(#clip080)" d="M120.922 1121.15 L125.807 1121.15 L125.807 1127.03 L120.922 1127.03 L120.922 1121.15 Z" fill="#000000" fill-rule="nonzero" fill-opacity="1" /><path clip-path="url(#clip080)" d="M145.992 1095.55 Q142.381 1095.55 140.552 1099.11 Q138.746 1102.66 138.746 1109.79 Q138.746 1116.89 140.552 1120.46 Q142.381 1124 145.992 1124 Q149.626 1124 151.431 1120.46 Q153.26 1116.89 153.26 1109.79 Q153.26 1102.66 151.431 1099.11 Q149.626 1095.55 145.992 1095.55 M145.992 1091.85 Q151.802 1091.85 154.857 1096.45 Q157.936 1101.04 157.936 1109.79 Q157.936 1118.51 154.857 1123.12 Q151.802 1127.7 145.992 1127.7 Q140.181 1127.7 137.103 1123.12 Q134.047 1118.51 134.047 1109.79 Q134.047 1101.04 137.103 1096.45 Q140.181 1091.85 145.992 1091.85 Z" fill="#000000" fill-rule="nonzero" fill-opacity="1" /><path clip-path="url(#clip080)" d="M51.9875 898.203 L81.6633 898.203 L81.6633 902.138 L51.9875 902.138 L51.9875 898.203 Z" fill="#000000" fill-rule="nonzero" fill-opacity="1" /><path clip-path="url(#clip080)" d="M101.756 883.55 Q98.1447 883.55 96.316 887.115 Q94.5104 890.656 94.5104 897.786 Q94.5104 904.893 96.316 908.457 Q98.1447 911.999 101.756 911.999 Q105.39 911.999 107.196 908.457 Q109.024 904.893 109.024 897.786 Q109.024 890.656 107.196 887.115 Q105.39 883.55 101.756 883.55 M101.756 879.846 Q107.566 879.846 110.621 884.453 Q113.7 889.036 113.7 897.786 Q113.7 906.513 110.621 911.119 Q107.566 915.703 101.756 915.703 Q95.9456 915.703 92.8669 911.119 Q89.8114 906.513 89.8114 897.786 Q89.8114 889.036 92.8669 884.453 Q95.9456 879.846 101.756 879.846 Z" fill="#000000" fill-rule="nonzero" fill-opacity="1" /><path clip-path="url(#clip080)" d="M121.918 909.152 L126.802 909.152 L126.802 915.031 L121.918 915.031 L121.918 909.152 Z" fill="#000000" fill-rule="nonzero" fill-opacity="1" /><path clip-path="url(#clip080)" d="M137.033 880.471 L155.39 880.471 L155.39 884.407 L141.316 884.407 L141.316 892.879 Q142.334 892.531 143.353 892.369 Q144.371 892.184 145.39 892.184 Q151.177 892.184 154.556 895.356 Q157.936 898.527 157.936 903.943 Q157.936 909.522 154.464 912.624 Q150.992 915.703 144.672 915.703 Q142.496 915.703 140.228 915.332 Q137.982 914.962 135.575 914.221 L135.575 909.522 Q137.658 910.656 139.881 911.212 Q142.103 911.767 144.58 911.767 Q148.584 911.767 150.922 909.661 Q153.26 907.555 153.26 903.943 Q153.26 900.332 150.922 898.226 Q148.584 896.119 144.58 896.119 Q142.705 896.119 140.83 896.536 Q138.978 896.953 137.033 897.832 L137.033 880.471 Z" fill="#000000" fill-rule="nonzero" fill-opacity="1" /><path clip-path="url(#clip080)" d="M100.76 671.55 Q97.1493 671.55 95.3206 675.115 Q93.515 678.656 93.515 685.786 Q93.515 692.892 95.3206 696.457 Q97.1493 699.999 100.76 699.999 Q104.395 699.999 106.2 696.457 Q108.029 692.892 108.029 685.786 Q108.029 678.656 106.2 675.115 Q104.395 671.55 100.76 671.55 M100.76 667.846 Q106.571 667.846 109.626 672.453 Q112.705 677.036 112.705 685.786 Q112.705 694.513 109.626 699.119 Q106.571 703.702 100.76 703.702 Q94.9502 703.702 91.8715 699.119 Q88.816 694.513 88.816 685.786 Q88.816 677.036 91.8715 672.453 Q94.9502 667.846 100.76 667.846 Z" fill="#000000" fill-rule="nonzero" fill-opacity="1" /><path clip-path="url(#clip080)" d="M120.922 697.152 L125.807 697.152 L125.807 703.031 L120.922 703.031 L120.922 697.152 Z" fill="#000000" fill-rule="nonzero" fill-opacity="1" /><path clip-path="url(#clip080)" d="M145.992 671.55 Q142.381 671.55 140.552 675.115 Q138.746 678.656 138.746 685.786 Q138.746 692.892 140.552 696.457 Q142.381 699.999 145.992 699.999 Q149.626 699.999 151.431 696.457 Q153.26 692.892 153.26 685.786 Q153.26 678.656 151.431 675.115 Q149.626 671.55 145.992 671.55 M145.992 667.846 Q151.802 667.846 154.857 672.453 Q157.936 677.036 157.936 685.786 Q157.936 694.513 154.857 699.119 Q151.802 703.702 145.992 703.702 Q140.181 703.702 137.103 699.119 Q134.047 694.513 134.047 685.786 Q134.047 677.036 137.103 672.453 Q140.181 667.846 145.992 667.846 Z" fill="#000000" fill-rule="nonzero" fill-opacity="1" /><path clip-path="url(#clip080)" d="M101.756 459.55 Q98.1447 459.55 96.316 463.115 Q94.5104 466.656 94.5104 473.786 Q94.5104 480.892 96.316 484.457 Q98.1447 487.999 101.756 487.999 Q105.39 487.999 107.196 484.457 Q109.024 480.892 109.024 473.786 Q109.024 466.656 107.196 463.115 Q105.39 459.55 101.756 459.55 M101.756 455.846 Q107.566 455.846 110.621 460.452 Q113.7 465.036 113.7 473.786 Q113.7 482.513 110.621 487.119 Q107.566 491.702 101.756 491.702 Q95.9456 491.702 92.8669 487.119 Q89.8114 482.513 89.8114 473.786 Q89.8114 465.036 92.8669 460.452 Q95.9456 455.846 101.756 455.846 Z" fill="#000000" fill-rule="nonzero" fill-opacity="1" /><path clip-path="url(#clip080)" d="M121.918 485.151 L126.802 485.151 L126.802 491.031 L121.918 491.031 L121.918 485.151 Z" fill="#000000" fill-rule="nonzero" fill-opacity="1" /><path clip-path="url(#clip080)" d="M137.033 456.471 L155.39 456.471 L155.39 460.406 L141.316 460.406 L141.316 468.878 Q142.334 468.531 143.353 468.369 Q144.371 468.184 145.39 468.184 Q151.177 468.184 154.556 471.355 Q157.936 474.526 157.936 479.943 Q157.936 485.522 154.464 488.624 Q150.992 491.702 144.672 491.702 Q142.496 491.702 140.228 491.332 Q137.982 490.962 135.575 490.221 L135.575 485.522 Q137.658 486.656 139.881 487.212 Q142.103 487.767 144.58 487.767 Q148.584 487.767 150.922 485.661 Q153.26 483.554 153.26 479.943 Q153.26 476.332 150.922 474.226 Q148.584 472.119 144.58 472.119 Q142.705 472.119 140.83 472.536 Q138.978 472.952 137.033 473.832 L137.033 456.471 Z" fill="#000000" fill-rule="nonzero" fill-opacity="1" /><path clip-path="url(#clip080)" d="M91.5706 275.096 L99.2095 275.096 L99.2095 248.73 L90.8993 250.397 L90.8993 246.138 L99.1632 244.471 L103.839 244.471 L103.839 275.096 L111.478 275.096 L111.478 279.031 L91.5706 279.031 L91.5706 275.096 Z" fill="#000000" fill-rule="nonzero" fill-opacity="1" /><path clip-path="url(#clip080)" d="M120.922 273.151 L125.807 273.151 L125.807 279.031 L120.922 279.031 L120.922 273.151 Z" fill="#000000" fill-rule="nonzero" fill-opacity="1" /><path clip-path="url(#clip080)" d="M145.992 247.55 Q142.381 247.55 140.552 251.114 Q138.746 254.656 138.746 261.786 Q138.746 268.892 140.552 272.457 Q142.381 275.998 145.992 275.998 Q149.626 275.998 151.431 272.457 Q153.26 268.892 153.26 261.786 Q153.26 254.656 151.431 251.114 Q149.626 247.55 145.992 247.55 M145.992 243.846 Q151.802 243.846 154.857 248.452 Q157.936 253.036 157.936 261.786 Q157.936 270.512 154.857 275.119 Q151.802 279.702 145.992 279.702 Q140.181 279.702 137.103 275.119 Q134.047 270.512 134.047 261.786 Q134.047 253.036 137.103 248.452 Q140.181 243.846 145.992 243.846 Z" fill="#000000" fill-rule="nonzero" fill-opacity="1" /><path clip-path="url(#clip080)" d="M92.566 63.0956 L100.205 63.0956 L100.205 36.73 L91.8947 38.3966 L91.8947 34.1374 L100.159 32.4707 L104.834 32.4707 L104.834 63.0956 L112.473 63.0956 L112.473 67.0307 L92.566 67.0307 L92.566 63.0956 Z" fill="#000000" fill-rule="nonzero" fill-opacity="1" /><path clip-path="url(#clip080)" d="M121.918 61.1511 L126.802 61.1511 L126.802 67.0307 L121.918 67.0307 L121.918 61.1511 Z" fill="#000000" fill-rule="nonzero" fill-opacity="1" /><path clip-path="url(#clip080)" d="M137.033 32.4707 L155.39 32.4707 L155.39 36.4059 L141.316 36.4059 L141.316 44.8781 Q142.334 44.5309 143.353 44.3688 Q144.371 44.1836 145.39 44.1836 Q151.177 44.1836 154.556 47.3549 Q157.936 50.5262 157.936 55.9428 Q157.936 61.5215 154.464 64.6233 Q150.992 67.702 144.672 67.702 Q142.496 67.702 140.228 67.3317 Q137.982 66.9613 135.575 66.2205 L135.575 61.5215 Q137.658 62.6558 139.881 63.2113 Q142.103 63.7669 144.58 63.7669 Q148.584 63.7669 150.922 61.6604 Q153.26 59.5539 153.26 55.9428 Q153.26 52.3317 150.922 50.2253 Q148.584 48.1188 144.58 48.1188 Q142.705 48.1188 140.83 48.5355 Q138.978 48.9521 137.033 49.8317 L137.033 32.4707 Z" fill="#000000" fill-rule="nonzero" fill-opacity="1" /><polyline clip-path="url(#clip082)" style="stroke:#009af9; stroke-linecap:round; stroke-linejoin:round; stroke-width:4; stroke-opacity:1; fill:none" points="193.936,685.751 196.097,695.012 198.258,704.15 200.419,713.166 202.58,722.063 204.741,730.842 206.902,739.505 209.063,748.053 211.224,756.487 213.385,764.81 215.546,773.023 217.707,781.126 219.868,789.122 222.029,797.012 224.19,804.798 226.351,812.48 228.512,820.06 230.673,827.54 232.834,834.921 234.995,842.204 237.156,849.39 239.317,856.481 241.478,863.478 243.639,870.382 245.8,877.195 247.961,883.917 250.122,890.551 252.282,897.096 254.443,903.555 256.604,909.927 258.765,916.216 260.926,922.421 263.087,928.544 265.248,934.585 267.409,940.547 269.57,946.429 271.731,952.234 273.892,957.961 276.053,963.613 278.214,969.19 280.375,974.692 282.536,980.122 284.697,985.48 286.858,990.767 289.019,995.983 291.18,1001.13 293.341,1006.21 295.502,1011.22 297.663,1016.17 299.824,1021.05 301.985,1025.86 304.146,1030.61 306.307,1035.3 308.468,1039.93 310.629,1044.49 312.79,1049 314.951,1053.44 317.112,1057.83 319.273,1062.16 321.434,1066.43 323.595,1070.64 325.756,1074.8 327.917,1078.9 330.078,1082.95 332.239,1086.94 334.4,1090.88 336.561,1094.77 338.722,1098.61 340.883,1102.4 343.044,1106.13 345.205,1109.82 347.366,1113.46 349.527,1117.05 351.688,1120.59 353.849,1124.09 356.01,1127.54 358.171,1130.94 360.332,1134.3 362.493,1137.61 364.653,1140.88 366.814,1144.11 368.975,1147.29 371.136,1150.43 373.297,1153.53 375.458,1156.59 377.619,1159.61 379.78,1162.59 381.941,1165.53 384.102,1168.43 386.263,1171.29 388.424,1174.11 390.585,1176.9 392.746,1179.65 394.907,1182.36 397.068,1185.03 399.229,1187.68 401.39,1190.28 403.551,1192.85 405.712,1195.39 407.873,1197.86 410.034,1198.54 412.195,1196.67 414.356,1192.55 416.517,1186.44 418.678,1178.61 420.839,1169.3 423,1158.74 425.161,1147.15 427.322,1134.71 429.483,1121.64 431.644,1108.08 433.805,1094.2 435.966,1080.14 438.127,1066.03 440.288,1051.99 442.449,1038.1 444.61,1024.46 446.771,1011.13 448.932,998.174 451.093,985.624 453.254,973.51 455.415,961.842 457.576,950.616 459.737,939.816 461.898,929.408 464.059,919.346 466.22,909.567 468.381,899.996 470.542,890.543 472.703,881.101 474.864,871.552 477.024,861.895 479.185,852.357 481.346,842.946 483.507,833.66 485.668,824.497 487.829,815.455 489.99,806.533 492.151,797.729 494.312,789.042 496.473,780.471 498.634,772.013 500.795,763.667 502.956,755.432 505.117,747.305 507.278,739.287 509.439,731.375 511.6,723.567 513.761,715.863 515.922,708.261 518.083,700.76 520.244,693.358 522.405,686.054 524.566,678.847 526.727,671.736 528.888,664.719 531.049,657.795 533.21,650.963 535.371,644.222 537.532,637.57 539.693,631.007 541.854,624.53 544.015,618.14 546.176,611.834 548.337,605.612 550.498,599.473 552.659,593.415 554.82,587.437 556.981,581.539 559.142,575.718 561.303,569.975 563.464,564.309 565.625,558.717 567.786,553.199 569.947,547.755 572.108,542.382 574.269,537.081 576.43,531.85 578.591,526.689 580.752,521.595 582.913,516.57 585.074,511.61 587.235,506.623 589.396,501.579 591.556,496.521 593.717,491.489 595.878,486.518 598.039,481.641 600.2,476.887 602.361,472.28 604.522,467.843 606.683,463.592 608.844,459.542 611.005,455.703 613.166,452.082 615.327,448.683 617.488,445.506 619.649,442.545 621.81,439.794 623.971,437.241 626.132,434.871 628.293,432.666 630.454,430.603 632.615,428.658 634.776,426.799 636.937,424.995 639.098,423.209 641.259,421.399 643.42,419.535 645.581,417.676 647.742,415.843 649.903,414.034 652.064,412.248 654.225,410.487 656.386,408.749 658.547,407.034 660.708,405.341 662.869,403.671 665.03,402.023 667.191,400.397 669.352,398.793 671.513,397.21 673.674,395.648 675.835,394.106 677.996,392.585 680.157,391.084 682.318,389.603 684.479,388.142 686.64,386.7 688.801,385.277 690.962,383.873 693.123,382.487 695.284,381.119 697.445,379.77 699.606,378.438 701.767,377.125 703.927,375.828 706.088,374.549 708.249,373.286 710.41,372.041 712.571,370.811 714.732,369.599 716.893,368.402 719.054,367.221 721.215,366.056 723.376,364.906 725.537,363.772 727.698,362.653 729.859,361.549 732.02,360.459 734.181,359.384 736.342,358.323 738.503,357.276 740.664,356.244 742.825,355.225 744.986,354.219 747.147,353.227 749.308,352.249 751.469,351.283 753.63,350.33 755.791,349.39 757.952,348.462 760.113,347.546 762.274,346.643 764.435,345.752 766.596,344.873 768.757,344.005 770.918,343.149 773.079,342.304 775.24,341.47 777.401,340.648 779.562,339.836 781.723,339.035 783.884,338.244 786.045,337.465 788.206,336.695 790.367,335.935 792.528,335.186 794.689,334.446 796.85,333.717 799.011,332.996 801.172,332.286 803.333,331.584 805.494,330.892 807.655,330.209 809.816,329.535 811.977,328.87 814.138,328.214 816.298,327.567 818.459,326.928 820.62,326.298 822.781,325.676 824.942,325.062 827.103,324.456 829.264,323.859 831.425,323.269 833.586,322.687 835.747,322.113 837.908,322.13 840.069,324.288 842.23,328.421 844.391,334.267 846.552,341.581 848.713,350.132 850.874,359.705 853.035,370.099 855.196,381.13 857.357,392.628 859.518,404.44 861.679,416.427 863.84,428.466 866.001,440.449 868.162,452.283 870.323,463.892 872.484,475.213 874.645,486.201 876.806,496.824 878.967,507.066 881.128,516.928 883.289,526.424 885.45,535.584 887.611,544.455 889.772,553.098 891.933,561.588 894.094,570.018 896.255,578.496 898.416,587.085 900.577,595.59 902.738,603.983 904.899,612.264 907.06,620.436 909.221,628.499 911.382,636.455 913.543,644.306 915.704,652.053 917.865,659.697 920.026,667.239 922.187,674.682 924.348,682.026 926.509,689.273 928.669,696.423 930.83,703.479 932.991,710.441 935.152,717.312 937.313,724.091 939.474,730.78 941.635,737.38 943.796,743.893 945.957,750.32 948.118,756.661 950.279,762.919 952.44,769.093 954.601,775.185 956.762,781.197 958.923,787.129 961.084,792.982 963.245,798.757 965.406,804.456 967.567,810.079 969.728,815.628 971.889,821.103 974.05,826.506 976.211,831.837 978.372,837.097 980.533,842.287 982.694,847.409 984.855,852.463 987.016,857.45 989.177,862.37 991.338,867.226 993.499,872.017 995.66,876.745 997.821,881.41 999.982,886.013 1002.14,890.555 1004.3,895.037 1006.46,899.46 1008.63,903.824 1010.79,908.13 1012.95,912.379 1015.11,916.572 1017.27,920.709 1019.43,924.791 1021.59,928.819 1023.75,932.793 1025.91,936.715 1028.07,940.585 1030.24,944.404 1032.4,948.172 1034.56,951.89 1036.72,955.559 1038.88,959.179 1041.04,962.751 1043.2,966.275 1045.36,969.753 1047.52,973.185 1049.68,976.572 1051.85,979.913 1054.01,983.21 1056.17,986.464 1058.33,989.42 1060.49,990.955 1062.65,991.084 1064.81,989.972 1066.97,987.777 1069.13,984.647 1071.29,980.721 1073.46,976.131 1075.62,970.997 1077.78,965.434 1079.94,959.544 1082.1,953.423 1084.26,947.158 1086.42,940.826 1088.58,934.496 1090.74,928.227 1092.9,922.071 1095.07,916.069 1097.23,910.256 1099.39,904.655 1101.55,899.282 1103.71,894.144 1105.87,889.239 1108.03,884.556 1110.19,880.075 1112.35,875.767 1114.51,871.595 1116.67,867.513 1118.84,863.465 1121,859.388 1123.16,855.21 1125.32,851.008 1127.48,846.862 1129.64,842.771 1131.8,838.734 1133.96,834.75 1136.12,830.82 1138.28,826.941 1140.45,823.114 1142.61,819.338 1144.77,815.611 1146.93,811.934 1149.09,808.306 1151.25,804.726 1153.41,801.194 1155.57,797.708 1157.73,794.268 1159.89,790.874 1162.06,787.525 1164.22,784.221 1166.38,780.96 1168.54,777.742 1170.7,774.567 1172.86,771.434 1175.02,768.342 1177.18,765.291 1179.34,762.281 1181.5,759.311 1183.67,756.38 1185.83,753.487 1187.99,750.634 1190.15,747.818 1192.31,745.039 1194.47,742.298 1196.63,739.593 1198.79,736.923 1200.95,734.289 1203.11,731.691 1205.28,729.126 1207.44,726.596 1209.6,724.099 1211.76,721.636 1213.92,719.205 1216.08,716.807 1218.24,714.44 1220.4,712.105 1222.56,709.8 1224.72,707.527 1226.88,705.283 1229.05,703.07 1231.21,700.885 1233.37,698.73 1235.53,696.603 1237.69,694.504 1239.85,692.433 1242.01,690.39 1244.17,688.373 1246.33,686.384 1248.49,684.42 1250.66,682.483 1252.82,680.571 1254.98,678.685 1257.14,676.823 1259.3,674.987 1261.46,673.174 1263.62,671.386 1265.78,669.621 1267.94,667.879 1270.1,666.093 1272.27,663.661 1274.43,660.663 1276.59,657.333 1278.75,653.859 1280.91,650.377 1283.07,646.978 1285.23,643.702 1287.39,640.54 1289.55,637.436 1291.71,634.335 1293.88,631.273 1296.04,628.252 1298.2,625.271 1300.36,622.329 1302.52,619.427 1304.68,616.563 1306.84,613.737 1309,610.948 1311.16,608.196 1313.32,605.481 1315.49,602.802 1317.65,600.158 1319.81,597.55 1321.97,594.976 1324.13,592.436 1326.29,589.93 1328.45,587.457 1330.61,585.017 1332.77,582.609 1334.93,580.233 1337.09,577.889 1339.26,575.575 1341.42,573.293 1343.58,571.04 1345.74,568.818 1347.9,566.625 1350.06,564.461 1352.22,562.326 1354.38,560.219 1356.54,558.14 1358.7,556.088 1360.87,554.064 1363.03,552.066 1365.19,550.095 1367.35,548.151 1369.51,546.231 1371.67,544.338 1373.83,542.469 1375.99,540.626 1378.15,538.806 1380.31,537.011 1382.48,535.24 1384.64,533.492 1386.8,531.767 1388.96,530.065 1391.12,528.386 1393.28,526.729 1395.44,525.094 1397.6,523.481 1399.76,521.889 1401.92,520.318 1404.09,518.768 1406.25,517.238 1408.41,515.729 1410.57,514.24 1412.73,512.77 1414.89,511.32 1417.05,509.89 1419.21,508.478 1421.37,507.085 1423.53,505.71 1425.7,504.353 1427.86,503.015 1430.02,501.694 1432.18,500.391 1434.34,499.105 1436.5,497.836 1438.66,496.584 1440.82,495.349 1442.98,494.13 1445.14,492.927 1447.3,491.74 1449.47,490.569 1451.63,489.414 1453.79,488.273 1455.95,487.148 1458.11,486.038 1460.27,484.942 1462.43,483.862 1464.59,482.795 1466.75,481.742 1468.91,480.704 1471.08,479.679 1473.24,478.668 1475.4,477.67 1477.56,476.685 1479.72,475.714 1481.88,474.755 1484.04,473.813 1486.2,472.93 1488.36,472.115 1490.52,471.363 1492.69,470.668 1494.85,470.025 1497.01,469.43 1499.17,468.878 1501.33,468.364 1503.49,467.886 1505.65,467.437 1507.81,467.016 1509.97,466.618 1512.13,466.24 1514.3,465.88 1516.46,465.534 1518.62,465.199 1520.78,464.875 1522.94,464.557 1525.1,464.245 1527.26,463.936 1529.42,463.629 1531.58,463.324 1533.74,463.018 1535.91,462.71 1538.07,462.402 1540.23,462.091 1542.39,461.778 1544.55,461.462 1546.71,461.145 1548.87,460.826 1551.03,460.506 1553.19,460.186 1555.35,459.867 1557.51,459.551 1559.68,459.239 1561.84,458.932 1564,458.634 1566.16,458.345 1568.32,458.065 1570.48,457.788 1572.64,457.515 1574.8,457.246 1576.96,456.98 1579.12,456.718 1581.29,456.459 1583.45,456.204 1585.61,455.952 1587.77,455.703 1589.93,455.458 1592.09,455.216 1594.25,454.977 1596.41,454.741 1598.57,454.509 1600.73,454.279 1602.9,454.053 1605.06,453.829 1607.22,453.609 1609.38,453.391 1611.54,453.177 1613.7,452.965 1615.86,452.756 1618.02,452.55 1620.18,452.346 1622.34,452.145 1624.51,451.947 1626.67,451.752 1628.83,451.559 1630.99,451.368 1633.15,451.18 1635.31,450.995 1637.47,450.812 1639.63,450.632 1641.79,450.454 1643.95,450.278 1646.12,450.104 1648.28,449.933 1650.44,449.765 1652.6,449.598 1654.76,449.434 1656.92,449.271 1659.08,449.111 1661.24,448.953 1663.4,448.798 1665.56,448.644 1667.72,448.492 1669.89,448.342 1672.05,448.195 1674.21,448.123 1676.37,448.241 1678.53,448.48 1680.69,448.769 1682.85,449.048 1685.01,449.262 1687.17,449.364 1689.33,449.314 1691.5,449.079 1693.66,448.632 1695.82,447.955 1697.98,447.037 1700.14,445.872 1702.3,444.464 1704.46,442.822 1706.62,440.962 1708.78,438.91 1710.94,436.695 1713.11,434.357 1715.27,431.94 1717.43,429.497 1719.59,427.087 1721.75,424.778 1723.91,422.603 1726.07,420.469 1728.23,418.362 1730.39,416.284 1732.55,414.233 1734.72,412.209 1736.88,410.212 1739.04,408.242 1741.2,406.298 1743.36,404.379 1745.52,402.486 1747.68,400.618 1749.84,398.774 1752,396.955 1754.16,395.161 1756.33,393.389 1758.49,391.642 1760.65,389.917 1762.81,388.215 1764.97,386.536 1767.13,384.88 1769.29,383.245 1771.45,381.632 1773.61,380.04 1775.77,378.469 1777.93,376.919 1780.1,375.39 1782.26,373.881 1784.42,372.393 1786.58,370.924 1788.74,369.474 1790.9,368.044 1793.06,366.633 1795.22,365.24 1797.38,363.866 1799.54,362.51 1801.71,361.172 1803.87,359.852 1806.03,358.55 1808.19,357.265 1810.35,355.996 1812.51,354.745 1814.67,353.51 1816.83,352.292 1818.99,351.09 1821.15,349.903 1823.32,348.733 1825.48,347.578 1827.64,346.438 1829.8,345.313 1831.96,344.203 1834.12,343.108 1836.28,342.027 1838.44,340.961 1840.6,339.909 1842.76,338.87 1844.93,337.846 1847.09,336.835 1849.25,335.837 1851.41,334.853 1853.57,333.881 1855.73,332.923 1857.89,331.977 1860.05,331.044 1862.21,330.123 1864.37,329.214 1866.54,328.318 1868.7,327.433 1870.86,326.56 1873.02,325.699 1875.18,324.849 1877.34,324.01 1879.5,323.183 1881.66,322.366 1883.82,321.56 1885.98,320.765 1888.15,319.981 1890.31,319.207 1892.47,318.443 1894.63,317.689 1896.79,316.945 1898.95,316.212 1901.11,315.488 1903.27,314.773 1905.43,314.068 1907.59,313.372 1909.75,312.686 1911.92,312.008 1914.08,311.34 1916.24,310.739 1918.4,310.274 1920.56,309.935 1922.72,309.714 1924.88,309.6 1927.04,309.586 1929.2,309.661 1931.36,309.819 1933.53,310.051 1935.69,310.349 1937.85,310.706 1940.01,311.115 1942.17,311.57 1944.33,312.063 1946.49,312.59 1948.65,313.144 1950.81,313.72 1952.97,314.313 1955.14,314.918 1957.3,315.53 1959.46,316.147 1961.62,316.763 1963.78,317.376 1965.94,317.982 1968.1,318.578 1970.26,319.163 1972.42,319.733 1974.58,320.287 1976.75,320.824 1978.91,321.342 1981.07,321.841 1983.23,322.319 1985.39,322.777 1987.55,323.215 1989.71,323.633 1991.87,324.032 1994.03,324.413 1996.19,324.777 1998.36,325.127 2000.52,325.463 2002.68,325.789 2004.84,326.107 2007,326.42 2009.16,326.732 2011.32,327.045 2013.48,327.365 2015.64,327.695 2017.8,328.026 2019.96,328.353 2022.13,328.676 2024.29,328.994 2026.45,329.308 2028.61,329.618 2030.77,329.924 2032.93,330.226 2035.09,330.524 2037.25,330.818 2039.41,331.108 2041.57,331.394 2043.74,331.677 2045.9,331.955 2048.06,332.23 2050.22,332.502 2052.38,332.769 2054.54,333.033 2056.7,333.294 2058.86,333.551 2061.02,333.805 2063.18,334.055 2065.35,334.302 2067.51,334.546 2069.67,334.787 2071.83,335.024 2073.99,335.259 2076.15,335.49 2078.31,335.718 2080.47,335.943 2082.63,336.165 2084.79,336.384 2086.96,336.6 2089.12,336.814 2091.28,337.024 2093.44,337.232 2095.6,337.437 2097.76,337.639 2099.92,337.839 2102.08,338.036 2104.24,338.23 2106.4,338.422 2108.57,338.611 2110.73,338.982 2112.89,339.635 2115.05,340.438 2117.21,341.272 2119.37,342.033 2121.53,342.63 2123.69,342.989 2125.85,343.045 2128.01,342.75 2130.17,342.07 2132.34,340.984 2134.5,339.486 2136.66,337.581 2138.82,335.292 2140.98,332.653 2143.14,329.713 2145.3,326.535 2147.46,323.196 2149.62,319.786 2151.78,316.409 2153.95,313.185 2156.11,310.164 2158.27,307.195 2160.43,304.264 2162.59,301.373 2164.75,298.52 2166.91,295.705 2169.07,292.927 2171.23,290.186 2173.39,287.482 2175.56,284.813 2177.72,282.179 2179.88,279.581 2182.04,277.016 2184.2,274.486 2186.36,271.989 2188.52,269.525 2190.68,267.094 2192.84,264.695 2195,262.328 2197.17,259.993 2199.33,257.688 2201.49,255.414 2203.65,253.17 2205.81,250.956 2207.97,248.771 2210.13,246.615 2212.29,244.488 2214.45,242.389 2216.61,240.318 2218.78,238.275 2220.94,236.259 2223.1,234.269 2225.26,232.306 2227.42,230.369 2229.58,228.457 2231.74,226.571 2233.9,224.71 2236.06,222.874 2238.22,221.062 2240.38,219.274 2242.55,217.51 2244.71,215.769 2246.87,214.052 2249.03,212.357 2251.19,210.684 2253.35,209.034 2255.51,207.406 2257.67,205.799 2259.83,204.213 2261.99,202.648 2264.16,201.104 2266.32,199.581 2268.48,198.077 2270.64,196.594 2272.8,195.13 2274.96,193.686 2277.12,192.26 2279.28,190.854 2281.44,189.466 2283.6,188.097 2285.77,186.746 2287.93,185.412 2290.09,184.097 2292.25,182.799 2294.41,181.518 2296.57,180.254 2298.73,179.007 2300.89,177.776 2303.05,176.562 2305.21,175.364 2307.38,174.181 2309.54,173.015 2311.7,171.863 2313.86,170.728 2316.02,169.607 2318.18,168.501 2320.34,167.41 2322.5,166.333 2324.66,165.27 2326.82,164.222 2328.99,163.187 2331.15,162.166 2333.31,161.159 2335.47,160.165 2337.63,159.184 2339.79,158.216 2341.95,157.261 2344.11,156.319 2346.27,155.389 2348.43,154.472 2350.59,153.566 2352.76,152.673 "/>
<polyline clip-path="url(#clip082)" style="stroke:#e26f46; stroke-linecap:round; stroke-linejoin:round; stroke-width:4; stroke-opacity:1; fill:none" points="193.936,1384.24 196.097,1384.24 198.258,1384.24 200.419,1384.24 202.58,1384.24 204.741,1384.24 206.902,1384.24 209.063,1384.24 211.224,1384.24 213.385,1384.24 215.546,1384.24 217.707,1384.24 219.868,1384.24 222.029,1384.24 224.19,1384.24 226.351,1384.24 228.512,1384.24 230.673,1384.24 232.834,1384.24 234.995,1384.24 237.156,1384.24 239.317,1384.24 241.478,1384.24 243.639,1384.24 245.8,1384.24 247.961,1384.24 250.122,1384.24 252.282,1384.24 254.443,1384.24 256.604,1384.24 258.765,1384.24 260.926,1384.24 263.087,1384.24 265.248,1384.24 267.409,1384.24 269.57,1384.24 271.731,1384.24 273.892,1384.24 276.053,1384.24 278.214,1384.24 280.375,1384.24 282.536,1384.24 284.697,1384.24 286.858,1384.24 289.019,1384.24 291.18,1384.24 293.341,1384.24 295.502,1384.24 297.663,1384.24 299.824,1384.24 301.985,1384.24 304.146,1384.24 306.307,1384.24 308.468,1384.24 310.629,1384.24 312.79,1384.24 314.951,1384.24 317.112,1384.24 319.273,1384.24 321.434,1384.24 323.595,1384.24 325.756,1384.24 327.917,1384.24 330.078,1384.24 332.239,1384.24 334.4,1384.24 336.561,1384.24 338.722,1384.24 340.883,1384.24 343.044,1384.24 345.205,1384.24 347.366,1384.24 349.527,1384.24 351.688,1384.24 353.849,1384.24 356.01,1384.24 358.171,1384.24 360.332,1384.24 362.493,1384.24 364.653,1384.24 366.814,1384.24 368.975,1384.24 371.136,1384.24 373.297,1384.24 375.458,1384.24 377.619,1384.24 379.78,1384.24 381.941,1384.24 384.102,1384.24 386.263,1384.24 388.424,1384.24 390.585,1384.24 392.746,1384.24 394.907,1384.24 397.068,1384.24 399.229,1384.24 401.39,1384.24 403.551,1384.24 405.712,1384.24 407.873,1384.24 410.034,142.512 412.195,142.512 414.356,142.512 416.517,142.512 418.678,142.512 420.839,142.512 423,142.512 425.161,142.512 427.322,142.512 429.483,142.512 431.644,142.512 433.805,142.512 435.966,142.512 438.127,142.512 440.288,142.512 442.449,142.512 444.61,142.512 446.771,142.512 448.932,142.512 451.093,142.512 453.254,142.512 455.415,142.512 457.576,142.512 459.737,142.512 461.898,142.512 464.059,142.512 466.22,142.512 468.381,142.512 470.542,142.512 472.703,142.512 474.864,142.512 477.024,142.512 479.185,142.512 481.346,142.512 483.507,142.512 485.668,142.512 487.829,142.512 489.99,142.512 492.151,142.512 494.312,142.512 496.473,142.512 498.634,142.512 500.795,142.512 502.956,142.512 505.117,142.512 507.278,142.512 509.439,142.512 511.6,142.512 513.761,142.512 515.922,142.512 518.083,142.512 520.244,142.512 522.405,142.512 524.566,142.512 526.727,142.512 528.888,142.512 531.049,142.512 533.21,142.512 535.371,142.512 537.532,142.512 539.693,142.512 541.854,142.512 544.015,142.512 546.176,142.512 548.337,142.512 550.498,142.512 552.659,142.512 554.82,142.512 556.981,142.512 559.142,142.512 561.303,142.512 563.464,142.512 565.625,142.512 567.786,142.512 569.947,142.512 572.108,142.512 574.269,142.512 576.43,142.512 578.591,142.512 580.752,142.512 582.913,142.512 585.074,142.512 587.235,142.512 589.396,142.512 591.556,142.512 593.717,142.512 595.878,142.512 598.039,142.512 600.2,142.512 602.361,142.512 604.522,142.512 606.683,142.512 608.844,142.512 611.005,142.512 613.166,142.512 615.327,142.512 617.488,142.512 619.649,142.512 621.81,142.512 623.971,142.512 626.132,279.381 628.293,279.381 630.454,279.381 632.615,279.381 634.776,279.381 636.937,279.381 639.098,279.381 641.259,279.381 643.42,279.381 645.581,279.381 647.742,279.381 649.903,279.381 652.064,279.381 654.225,279.381 656.386,279.381 658.547,279.381 660.708,279.381 662.869,279.381 665.03,279.381 667.191,279.381 669.352,279.381 671.513,279.381 673.674,279.381 675.835,279.381 677.996,279.381 680.157,279.381 682.318,279.381 684.479,279.381 686.64,279.381 688.801,279.381 690.962,279.381 693.123,279.381 695.284,279.381 697.445,279.381 699.606,279.381 701.767,279.381 703.927,279.381 706.088,279.381 708.249,279.381 710.41,279.381 712.571,279.381 714.732,279.381 716.893,279.381 719.054,279.381 721.215,279.381 723.376,279.381 725.537,279.381 727.698,279.381 729.859,279.381 732.02,279.381 734.181,279.381 736.342,279.381 738.503,279.381 740.664,279.381 742.825,279.381 744.986,279.381 747.147,279.381 749.308,279.381 751.469,279.381 753.63,279.381 755.791,279.381 757.952,279.381 760.113,279.381 762.274,279.381 764.435,279.381 766.596,279.381 768.757,279.381 770.918,279.381 773.079,279.381 775.24,279.381 777.401,279.381 779.562,279.381 781.723,279.381 783.884,279.381 786.045,279.381 788.206,279.381 790.367,279.381 792.528,279.381 794.689,279.381 796.85,279.381 799.011,279.381 801.172,279.381 803.333,279.381 805.494,279.381 807.655,279.381 809.816,279.381 811.977,279.381 814.138,279.381 816.298,279.381 818.459,279.381 820.62,279.381 822.781,279.381 824.942,279.381 827.103,279.381 829.264,279.381 831.425,279.381 833.586,279.381 835.747,279.381 837.908,279.381 840.069,279.381 842.23,1228.61 844.391,1228.61 846.552,1228.61 848.713,1228.61 850.874,1228.61 853.035,1228.61 855.196,1228.61 857.357,1228.61 859.518,1228.61 861.679,1228.61 863.84,1228.61 866.001,1228.61 868.162,1228.61 870.323,1228.61 872.484,1228.61 874.645,1228.61 876.806,1228.61 878.967,1228.61 881.128,1228.61 883.289,1228.61 885.45,1228.61 887.611,1228.61 889.772,1228.61 891.933,1228.61 894.094,1228.61 896.255,1228.61 898.416,1228.61 900.577,1228.61 902.738,1228.61 904.899,1228.61 907.06,1228.61 909.221,1228.61 911.382,1228.61 913.543,1228.61 915.704,1228.61 917.865,1228.61 920.026,1228.61 922.187,1228.61 924.348,1228.61 926.509,1228.61 928.669,1228.61 930.83,1228.61 932.991,1228.61 935.152,1228.61 937.313,1228.61 939.474,1228.61 941.635,1228.61 943.796,1228.61 945.957,1228.61 948.118,1228.61 950.279,1228.61 952.44,1228.61 954.601,1228.61 956.762,1228.61 958.923,1228.61 961.084,1228.61 963.245,1228.61 965.406,1228.61 967.567,1228.61 969.728,1228.61 971.889,1228.61 974.05,1228.61 976.211,1228.61 978.372,1228.61 980.533,1228.61 982.694,1228.61 984.855,1228.61 987.016,1228.61 989.177,1228.61 991.338,1228.61 993.499,1228.61 995.66,1228.61 997.821,1228.61 999.982,1228.61 1002.14,1228.61 1004.3,1228.61 1006.46,1228.61 1008.63,1228.61 1010.79,1228.61 1012.95,1228.61 1015.11,1228.61 1017.27,1228.61 1019.43,1228.61 1021.59,1228.61 1023.75,1228.61 1025.91,1228.61 1028.07,1228.61 1030.24,1228.61 1032.4,1228.61 1034.56,1228.61 1036.72,1228.61 1038.88,1228.61 1041.04,1228.61 1043.2,1228.61 1045.36,1228.61 1047.52,1228.61 1049.68,1228.61 1051.85,1228.61 1054.01,1228.61 1056.17,1228.61 1058.33,538.276 1060.49,538.276 1062.65,538.276 1064.81,538.276 1066.97,538.276 1069.13,538.276 1071.29,538.276 1073.46,538.276 1075.62,538.276 1077.78,538.276 1079.94,538.276 1082.1,538.276 1084.26,538.276 1086.42,538.276 1088.58,538.276 1090.74,538.276 1092.9,538.276 1095.07,538.276 1097.23,538.276 1099.39,538.276 1101.55,538.276 1103.71,538.276 1105.87,538.276 1108.03,538.276 1110.19,538.276 1112.35,538.276 1114.51,538.276 1116.67,538.276 1118.84,538.276 1121,538.276 1123.16,538.276 1125.32,538.276 1127.48,538.276 1129.64,538.276 1131.8,538.276 1133.96,538.276 1136.12,538.276 1138.28,538.276 1140.45,538.276 1142.61,538.276 1144.77,538.276 1146.93,538.276 1149.09,538.276 1151.25,538.276 1153.41,538.276 1155.57,538.276 1157.73,538.276 1159.89,538.276 1162.06,538.276 1164.22,538.276 1166.38,538.276 1168.54,538.276 1170.7,538.276 1172.86,538.276 1175.02,538.276 1177.18,538.276 1179.34,538.276 1181.5,538.276 1183.67,538.276 1185.83,538.276 1187.99,538.276 1190.15,538.276 1192.31,538.276 1194.47,538.276 1196.63,538.276 1198.79,538.276 1200.95,538.276 1203.11,538.276 1205.28,538.276 1207.44,538.276 1209.6,538.276 1211.76,538.276 1213.92,538.276 1216.08,538.276 1218.24,538.276 1220.4,538.276 1222.56,538.276 1224.72,538.276 1226.88,538.276 1229.05,538.276 1231.21,538.276 1233.37,538.276 1235.53,538.276 1237.69,538.276 1239.85,538.276 1242.01,538.276 1244.17,538.276 1246.33,538.276 1248.49,538.276 1250.66,538.276 1252.82,538.276 1254.98,538.276 1257.14,538.276 1259.3,538.276 1261.46,538.276 1263.62,538.276 1265.78,538.276 1267.94,538.276 1270.1,538.276 1272.27,538.276 1274.43,403.404 1276.59,403.404 1278.75,403.404 1280.91,403.404 1283.07,403.404 1285.23,403.404 1287.39,403.404 1289.55,403.404 1291.71,403.404 1293.88,403.404 1296.04,403.404 1298.2,403.404 1300.36,403.404 1302.52,403.404 1304.68,403.404 1306.84,403.404 1309,403.404 1311.16,403.404 1313.32,403.404 1315.49,403.404 1317.65,403.404 1319.81,403.404 1321.97,403.404 1324.13,403.404 1326.29,403.404 1328.45,403.404 1330.61,403.404 1332.77,403.404 1334.93,403.404 1337.09,403.404 1339.26,403.404 1341.42,403.404 1343.58,403.404 1345.74,403.404 1347.9,403.404 1350.06,403.404 1352.22,403.404 1354.38,403.404 1356.54,403.404 1358.7,403.404 1360.87,403.404 1363.03,403.404 1365.19,403.404 1367.35,403.404 1369.51,403.404 1371.67,403.404 1373.83,403.404 1375.99,403.404 1378.15,403.404 1380.31,403.404 1382.48,403.404 1384.64,403.404 1386.8,403.404 1388.96,403.404 1391.12,403.404 1393.28,403.404 1395.44,403.404 1397.6,403.404 1399.76,403.404 1401.92,403.404 1404.09,403.404 1406.25,403.404 1408.41,403.404 1410.57,403.404 1412.73,403.404 1414.89,403.404 1417.05,403.404 1419.21,403.404 1421.37,403.404 1423.53,403.404 1425.7,403.404 1427.86,403.404 1430.02,403.404 1432.18,403.404 1434.34,403.404 1436.5,403.404 1438.66,403.404 1440.82,403.404 1442.98,403.404 1445.14,403.404 1447.3,403.404 1449.47,403.404 1451.63,403.404 1453.79,403.404 1455.95,403.404 1458.11,403.404 1460.27,403.404 1462.43,403.404 1464.59,403.404 1466.75,403.404 1468.91,403.404 1471.08,403.404 1473.24,403.404 1475.4,403.404 1477.56,403.404 1479.72,403.404 1481.88,403.404 1484.04,403.404 1486.2,403.404 1488.36,403.404 1490.52,437.199 1492.69,437.199 1494.85,437.199 1497.01,437.199 1499.17,437.199 1501.33,437.199 1503.49,437.199 1505.65,437.199 1507.81,437.199 1509.97,437.199 1512.13,437.199 1514.3,437.199 1516.46,437.199 1518.62,437.199 1520.78,437.199 1522.94,437.199 1525.1,437.199 1527.26,437.199 1529.42,437.199 1531.58,437.199 1533.74,437.199 1535.91,437.199 1538.07,437.199 1540.23,437.199 1542.39,437.199 1544.55,437.199 1546.71,437.199 1548.87,437.199 1551.03,437.199 1553.19,437.199 1555.35,437.199 1557.51,437.199 1559.68,437.199 1561.84,437.199 1564,437.199 1566.16,437.199 1568.32,437.199 1570.48,437.199 1572.64,437.199 1574.8,437.199 1576.96,437.199 1579.12,437.199 1581.29,437.199 1583.45,437.199 1585.61,437.199 1587.77,437.199 1589.93,437.199 1592.09,437.199 1594.25,437.199 1596.41,437.199 1598.57,437.199 1600.73,437.199 1602.9,437.199 1605.06,437.199 1607.22,437.199 1609.38,437.199 1611.54,437.199 1613.7,437.199 1615.86,437.199 1618.02,437.199 1620.18,437.199 1622.34,437.199 1624.51,437.199 1626.67,437.199 1628.83,437.199 1630.99,437.199 1633.15,437.199 1635.31,437.199 1637.47,437.199 1639.63,437.199 1641.79,437.199 1643.95,437.199 1646.12,437.199 1648.28,437.199 1650.44,437.199 1652.6,437.199 1654.76,437.199 1656.92,437.199 1659.08,437.199 1661.24,437.199 1663.4,437.199 1665.56,437.199 1667.72,437.199 1669.89,437.199 1672.05,437.199 1674.21,437.199 1676.37,437.199 1678.53,437.199 1680.69,437.199 1682.85,437.199 1685.01,437.199 1687.17,437.199 1689.33,437.199 1691.5,437.199 1693.66,437.199 1695.82,437.199 1697.98,437.199 1700.14,437.199 1702.3,437.199 1704.46,437.199 1706.62,261.591 1708.78,261.591 1710.94,261.591 1713.11,261.591 1715.27,261.591 1717.43,261.591 1719.59,261.591 1721.75,261.591 1723.91,261.591 1726.07,261.591 1728.23,261.591 1730.39,261.591 1732.55,261.591 1734.72,261.591 1736.88,261.591 1739.04,261.591 1741.2,261.591 1743.36,261.591 1745.52,261.591 1747.68,261.591 1749.84,261.591 1752,261.591 1754.16,261.591 1756.33,261.591 1758.49,261.591 1760.65,261.591 1762.81,261.591 1764.97,261.591 1767.13,261.591 1769.29,261.591 1771.45,261.591 1773.61,261.591 1775.77,261.591 1777.93,261.591 1780.1,261.591 1782.26,261.591 1784.42,261.591 1786.58,261.591 1788.74,261.591 1790.9,261.591 1793.06,261.591 1795.22,261.591 1797.38,261.591 1799.54,261.591 1801.71,261.591 1803.87,261.591 1806.03,261.591 1808.19,261.591 1810.35,261.591 1812.51,261.591 1814.67,261.591 1816.83,261.591 1818.99,261.591 1821.15,261.591 1823.32,261.591 1825.48,261.591 1827.64,261.591 1829.8,261.591 1831.96,261.591 1834.12,261.591 1836.28,261.591 1838.44,261.591 1840.6,261.591 1842.76,261.591 1844.93,261.591 1847.09,261.591 1849.25,261.591 1851.41,261.591 1853.57,261.591 1855.73,261.591 1857.89,261.591 1860.05,261.591 1862.21,261.591 1864.37,261.591 1866.54,261.591 1868.7,261.591 1870.86,261.591 1873.02,261.591 1875.18,261.591 1877.34,261.591 1879.5,261.591 1881.66,261.591 1883.82,261.591 1885.98,261.591 1888.15,261.591 1890.31,261.591 1892.47,261.591 1894.63,261.591 1896.79,261.591 1898.95,261.591 1901.11,261.591 1903.27,261.591 1905.43,261.591 1907.59,261.591 1909.75,261.591 1911.92,261.591 1914.08,261.591 1916.24,261.591 1918.4,261.591 1920.56,261.591 1922.72,352.693 1924.88,352.693 1927.04,352.693 1929.2,352.693 1931.36,352.693 1933.53,352.693 1935.69,352.693 1937.85,352.693 1940.01,352.693 1942.17,352.693 1944.33,352.693 1946.49,352.693 1948.65,352.693 1950.81,352.693 1952.97,352.693 1955.14,352.693 1957.3,352.693 1959.46,352.693 1961.62,352.693 1963.78,352.693 1965.94,352.693 1968.1,352.693 1970.26,352.693 1972.42,352.693 1974.58,352.693 1976.75,352.693 1978.91,352.693 1981.07,352.693 1983.23,352.693 1985.39,352.693 1987.55,352.693 1989.71,352.693 1991.87,352.693 1994.03,352.693 1996.19,352.693 1998.36,352.693 2000.52,352.693 2002.68,352.693 2004.84,352.693 2007,352.693 2009.16,352.693 2011.32,352.693 2013.48,352.693 2015.64,352.693 2017.8,352.693 2019.96,352.693 2022.13,352.693 2024.29,352.693 2026.45,352.693 2028.61,352.693 2030.77,352.693 2032.93,352.693 2035.09,352.693 2037.25,352.693 2039.41,352.693 2041.57,352.693 2043.74,352.693 2045.9,352.693 2048.06,352.693 2050.22,352.693 2052.38,352.693 2054.54,352.693 2056.7,352.693 2058.86,352.693 2061.02,352.693 2063.18,352.693 2065.35,352.693 2067.51,352.693 2069.67,352.693 2071.83,352.693 2073.99,352.693 2076.15,352.693 2078.31,352.693 2080.47,352.693 2082.63,352.693 2084.79,352.693 2086.96,352.693 2089.12,352.693 2091.28,352.693 2093.44,352.693 2095.6,352.693 2097.76,352.693 2099.92,352.693 2102.08,352.693 2104.24,352.693 2106.4,352.693 2108.57,352.693 2110.73,352.693 2112.89,352.693 2115.05,352.693 2117.21,352.693 2119.37,352.693 2121.53,352.693 2123.69,352.693 2125.85,352.693 2128.01,352.693 2130.17,352.693 2132.34,352.693 2134.5,352.693 2136.66,352.693 2138.82,86.1857 2140.98,86.1857 2143.14,86.1857 2145.3,86.1857 2147.46,86.1857 2149.62,86.1857 2151.78,86.1857 2153.95,86.1857 2156.11,86.1857 2158.27,86.1857 2160.43,86.1857 2162.59,86.1857 2164.75,86.1857 2166.91,86.1857 2169.07,86.1857 2171.23,86.1857 2173.39,86.1857 2175.56,86.1857 2177.72,86.1857 2179.88,86.1857 2182.04,86.1857 2184.2,86.1857 2186.36,86.1857 2188.52,86.1857 2190.68,86.1857 2192.84,86.1857 2195,86.1857 2197.17,86.1857 2199.33,86.1857 2201.49,86.1857 2203.65,86.1857 2205.81,86.1857 2207.97,86.1857 2210.13,86.1857 2212.29,86.1857 2214.45,86.1857 2216.61,86.1857 2218.78,86.1857 2220.94,86.1857 2223.1,86.1857 2225.26,86.1857 2227.42,86.1857 2229.58,86.1857 2231.74,86.1857 2233.9,86.1857 2236.06,86.1857 2238.22,86.1857 2240.38,86.1857 2242.55,86.1857 2244.71,86.1857 2246.87,86.1857 2249.03,86.1857 2251.19,86.1857 2253.35,86.1857 2255.51,86.1857 2257.67,86.1857 2259.83,86.1857 2261.99,86.1857 2264.16,86.1857 2266.32,86.1857 2268.48,86.1857 2270.64,86.1857 2272.8,86.1857 2274.96,86.1857 2277.12,86.1857 2279.28,86.1857 2281.44,86.1857 2283.6,86.1857 2285.77,86.1857 2287.93,86.1857 2290.09,86.1857 2292.25,86.1857 2294.41,86.1857 2296.57,86.1857 2298.73,86.1857 2300.89,86.1857 2303.05,86.1857 2305.21,86.1857 2307.38,86.1857 2309.54,86.1857 2311.7,86.1857 2313.86,86.1857 2316.02,86.1857 2318.18,86.1857 2320.34,86.1857 2322.5,86.1857 2324.66,86.1857 2326.82,86.1857 2328.99,86.1857 2331.15,86.1857 2333.31,86.1857 2335.47,86.1857 2337.63,86.1857 2339.79,86.1857 2341.95,86.1857 2344.11,86.1857 2346.27,86.1857 2348.43,86.1857 2350.59,86.1857 2352.76,86.1857 "/>
<path clip-path="url(#clip080)" d="M2039.77 1377.32 L2280.8 1377.32 L2280.8 1221.8 L2039.77 1221.8  Z" fill="#ffffff" fill-rule="evenodd" fill-opacity="1"/>
<polyline clip-path="url(#clip080)" style="stroke:#000000; stroke-linecap:round; stroke-linejoin:round; stroke-width:4; stroke-opacity:1; fill:none" points="2039.77,1377.32 2280.8,1377.32 2280.8,1221.8 2039.77,1221.8 2039.77,1377.32 "/>
<polyline clip-path="url(#clip080)" style="stroke:#009af9; stroke-linecap:round; stroke-linejoin:round; stroke-width:4; stroke-opacity:1; fill:none" points="2063.76,1273.64 2207.68,1273.64 "/>
<path clip-path="url(#clip080)" d="M2256.32 1264.99 L2246.95 1277.61 L2256.81 1290.92 L2251.79 1290.92 L2244.24 1280.73 L2236.69 1290.92 L2231.67 1290.92 L2241.74 1277.35 L2232.53 1264.99 L2237.55 1264.99 L2244.42 1274.23 L2251.3 1264.99 L2256.32 1264.99 Z" fill="#000000" fill-rule="nonzero" fill-opacity="1" /><polyline clip-path="url(#clip080)" style="stroke:#e26f46; stroke-linecap:round; stroke-linejoin:round; stroke-width:4; stroke-opacity:1; fill:none" points="2063.76,1325.48 2207.68,1325.48 "/>
<path clip-path="url(#clip080)" d="M2248.17 1306.74 L2248.17 1310.28 L2244.1 1310.28 Q2241.81 1310.28 2240.91 1311.2 Q2240.03 1312.13 2240.03 1314.54 L2240.03 1316.83 L2247.04 1316.83 L2247.04 1320.14 L2240.03 1320.14 L2240.03 1342.76 L2235.74 1342.76 L2235.74 1320.14 L2231.67 1320.14 L2231.67 1316.83 L2235.74 1316.83 L2235.74 1315.02 Q2235.74 1310.7 2237.76 1308.73 Q2239.77 1306.74 2244.15 1306.74 L2248.17 1306.74 Z" fill="#000000" fill-rule="nonzero" fill-opacity="1" /></svg>
