<?xml version="1.0" encoding="utf-8"?>
<svg xmlns="http://www.w3.org/2000/svg" xmlns:xlink="http://www.w3.org/1999/xlink" width="600" height="400" viewBox="0 0 2400 1600">
<defs>
  <clipPath id="clip590">
    <rect x="0" y="0" width="2400" height="1600"/>
  </clipPath>
</defs>
<path clip-path="url(#clip590)" d="M0 1600 L2400 1600 L2400 0 L0 0  Z" fill="#ffffff" fill-rule="evenodd" fill-opacity="1"/>
<defs>
  <clipPath id="clip591">
    <rect x="147" y="47" width="2206" height="1377"/>
  </clipPath>
</defs>
<path clip-path="url(#clip590)" d="M147.478 1423.18 L2352.76 1423.18 L2352.76 47.2441 L147.478 47.2441  Z" fill="#ffffff" fill-rule="evenodd" fill-opacity="1"/>
<polyline clip-path="url(#clip591)" style="stroke:#000000; stroke-linecap:round; stroke-linejoin:round; stroke-width:2; stroke-opacity:0.1; fill:none" points="147.478,1423.18 147.478,47.2441 "/>
<polyline clip-path="url(#clip591)" style="stroke:#000000; stroke-linecap:round; stroke-linejoin:round; stroke-width:2; stroke-opacity:0.1; fill:none" points="588.534,1423.18 588.534,47.2441 "/>
<polyline clip-path="url(#clip591)" style="stroke:#000000; stroke-linecap:round; stroke-linejoin:round; stroke-width:2; stroke-opacity:0.1; fill:none" points="1029.59,1423.18 1029.59,47.2441 "/>
<polyline clip-path="url(#clip591)" style="stroke:#000000; stroke-linecap:round; stroke-linejoin:round; stroke-width:2; stroke-opacity:0.1; fill:none" points="1470.64,1423.18 1470.64,47.2441 "/>
<polyline clip-path="url(#clip591)" style="stroke:#000000; stroke-linecap:round; stroke-linejoin:round; stroke-width:2; stroke-opacity:0.1; fill:none" points="1911.7,1423.18 1911.7,47.2441 "/>
<polyline clip-path="url(#clip591)" style="stroke:#000000; stroke-linecap:round; stroke-linejoin:round; stroke-width:2; stroke-opacity:0.1; fill:none" points="2352.76,1423.18 2352.76,47.2441 "/>
<polyline clip-path="url(#clip591)" style="stroke:#000000; stroke-linecap:round; stroke-linejoin:round; stroke-width:2; stroke-opacity:0.1; fill:none" points="147.478,1292.3 2352.76,1292.3 "/>
<polyline clip-path="url(#clip591)" style="stroke:#000000; stroke-linecap:round; stroke-linejoin:round; stroke-width:2; stroke-opacity:0.1; fill:none" points="147.478,936.407 2352.76,936.407 "/>
<polyline clip-path="url(#clip591)" style="stroke:#000000; stroke-linecap:round; stroke-linejoin:round; stroke-width:2; stroke-opacity:0.1; fill:none" points="147.478,580.516 2352.76,580.516 "/>
<polyline clip-path="url(#clip591)" style="stroke:#000000; stroke-linecap:round; stroke-linejoin:round; stroke-width:2; stroke-opacity:0.1; fill:none" points="147.478,224.624 2352.76,224.624 "/>
<polyline clip-path="url(#clip590)" style="stroke:#000000; stroke-linecap:round; stroke-linejoin:round; stroke-width:4; stroke-opacity:1; fill:none" points="147.478,1423.18 2352.76,1423.18 "/>
<polyline clip-path="url(#clip590)" style="stroke:#000000; stroke-linecap:round; stroke-linejoin:round; stroke-width:4; stroke-opacity:1; fill:none" points="147.478,1423.18 147.478,1404.28 "/>
<polyline clip-path="url(#clip590)" style="stroke:#000000; stroke-linecap:round; stroke-linejoin:round; stroke-width:4; stroke-opacity:1; fill:none" points="588.534,1423.18 588.534,1404.28 "/>
<polyline clip-path="url(#clip590)" style="stroke:#000000; stroke-linecap:round; stroke-linejoin:round; stroke-width:4; stroke-opacity:1; fill:none" points="1029.59,1423.18 1029.59,1404.28 "/>
<polyline clip-path="url(#clip590)" style="stroke:#000000; stroke-linecap:round; stroke-linejoin:round; stroke-width:4; stroke-opacity:1; fill:none" points="1470.64,1423.18 1470.64,1404.28 "/>
<polyline clip-path="url(#clip590)" style="stroke:#000000; stroke-linecap:round; stroke-linejoin:round; stroke-width:4; stroke-opacity:1; fill:none" points="1911.7,1423.18 1911.7,1404.28 "/>
<polyline clip-path="url(#clip590)" style="stroke:#000000; stroke-linecap:round; stroke-linejoin:round; stroke-width:4; stroke-opacity:1; fill:none" points="2352.76,1423.18 2352.76,1404.28 "/>
<path clip-path="url(#clip590)" d="M147.478 1454.1 Q143.867 1454.1 142.038 1457.66 Q140.233 1461.2 140.233 1468.33 Q140.233 1475.44 142.038 1479.01 Q143.867 1482.55 147.478 1482.55 Q151.112 1482.55 152.918 1479.01 Q154.746 1475.44 154.746 1468.33 Q154.746 1461.2 152.918 1457.66 Q151.112 1454.1 147.478 1454.1 M147.478 1450.39 Q153.288 1450.39 156.344 1455 Q159.422 1459.58 159.422 1468.33 Q159.422 1477.06 156.344 1481.67 Q153.288 1486.25 147.478 1486.25 Q141.668 1486.25 138.589 1481.67 Q135.534 1477.06 135.534 1468.33 Q135.534 1459.58 138.589 1455 Q141.668 1450.39 147.478 1450.39 Z" fill="#000000" fill-rule="nonzero" fill-opacity="1" /><path clip-path="url(#clip590)" d="M583.186 1481.64 L599.506 1481.64 L599.506 1485.58 L577.561 1485.58 L577.561 1481.64 Q580.223 1478.89 584.807 1474.26 Q589.413 1469.61 590.594 1468.27 Q592.839 1465.74 593.719 1464.01 Q594.621 1462.25 594.621 1460.56 Q594.621 1457.8 592.677 1456.07 Q590.756 1454.33 587.654 1454.33 Q585.455 1454.33 583.001 1455.09 Q580.571 1455.86 577.793 1457.41 L577.793 1452.69 Q580.617 1451.55 583.071 1450.97 Q585.524 1450.39 587.561 1450.39 Q592.932 1450.39 596.126 1453.08 Q599.32 1455.77 599.32 1460.26 Q599.32 1462.39 598.51 1464.31 Q597.723 1466.2 595.617 1468.8 Q595.038 1469.47 591.936 1472.69 Q588.834 1475.88 583.186 1481.64 Z" fill="#000000" fill-rule="nonzero" fill-opacity="1" /><path clip-path="url(#clip590)" d="M1032.6 1455.09 L1020.79 1473.54 L1032.6 1473.54 L1032.6 1455.09 M1031.37 1451.02 L1037.25 1451.02 L1037.25 1473.54 L1042.18 1473.54 L1042.18 1477.43 L1037.25 1477.43 L1037.25 1485.58 L1032.6 1485.58 L1032.6 1477.43 L1017 1477.43 L1017 1472.92 L1031.37 1451.02 Z" fill="#000000" fill-rule="nonzero" fill-opacity="1" /><path clip-path="url(#clip590)" d="M1471.05 1466.44 Q1467.9 1466.44 1466.05 1468.59 Q1464.22 1470.74 1464.22 1474.49 Q1464.22 1478.22 1466.05 1480.39 Q1467.9 1482.55 1471.05 1482.55 Q1474.2 1482.55 1476.03 1480.39 Q1477.88 1478.22 1477.88 1474.49 Q1477.88 1470.74 1476.03 1468.59 Q1474.2 1466.44 1471.05 1466.44 M1480.33 1451.78 L1480.33 1456.04 Q1478.57 1455.21 1476.77 1454.77 Q1474.98 1454.33 1473.23 1454.33 Q1468.6 1454.33 1466.14 1457.45 Q1463.71 1460.58 1463.36 1466.9 Q1464.73 1464.89 1466.79 1463.82 Q1468.85 1462.73 1471.33 1462.73 Q1476.54 1462.73 1479.55 1465.9 Q1482.58 1469.05 1482.58 1474.49 Q1482.58 1479.82 1479.43 1483.03 Q1476.28 1486.25 1471.05 1486.25 Q1465.05 1486.25 1461.88 1481.67 Q1458.71 1477.06 1458.71 1468.33 Q1458.71 1460.14 1462.6 1455.28 Q1466.49 1450.39 1473.04 1450.39 Q1474.8 1450.39 1476.58 1450.74 Q1478.39 1451.09 1480.33 1451.78 Z" fill="#000000" fill-rule="nonzero" fill-opacity="1" /><path clip-path="url(#clip590)" d="M1911.7 1469.17 Q1908.37 1469.17 1906.45 1470.95 Q1904.55 1472.73 1904.55 1475.86 Q1904.55 1478.98 1906.45 1480.77 Q1908.37 1482.55 1911.7 1482.55 Q1915.03 1482.55 1916.95 1480.77 Q1918.88 1478.96 1918.88 1475.86 Q1918.88 1472.73 1916.95 1470.95 Q1915.06 1469.17 1911.7 1469.17 M1907.02 1467.18 Q1904.02 1466.44 1902.33 1464.38 Q1900.66 1462.32 1900.66 1459.35 Q1900.66 1455.21 1903.6 1452.8 Q1906.56 1450.39 1911.7 1450.39 Q1916.86 1450.39 1919.8 1452.8 Q1922.74 1455.21 1922.74 1459.35 Q1922.74 1462.32 1921.05 1464.38 Q1919.39 1466.44 1916.4 1467.18 Q1919.78 1467.96 1921.65 1470.26 Q1923.55 1472.55 1923.55 1475.86 Q1923.55 1480.88 1920.47 1483.57 Q1917.42 1486.25 1911.7 1486.25 Q1905.98 1486.25 1902.9 1483.57 Q1899.85 1480.88 1899.85 1475.86 Q1899.85 1472.55 1901.75 1470.26 Q1903.64 1467.96 1907.02 1467.18 M1905.31 1459.79 Q1905.31 1462.48 1906.98 1463.98 Q1908.67 1465.49 1911.7 1465.49 Q1914.71 1465.49 1916.4 1463.98 Q1918.11 1462.48 1918.11 1459.79 Q1918.11 1457.11 1916.4 1455.6 Q1914.71 1454.1 1911.7 1454.1 Q1908.67 1454.1 1906.98 1455.6 Q1905.31 1457.11 1905.31 1459.79 Z" fill="#000000" fill-rule="nonzero" fill-opacity="1" /><path clip-path="url(#clip590)" d="M2327.44 1481.64 L2335.08 1481.64 L2335.08 1455.28 L2326.77 1456.95 L2326.77 1452.69 L2335.04 1451.02 L2339.71 1451.02 L2339.71 1481.64 L2347.35 1481.64 L2347.35 1485.58 L2327.44 1485.58 L2327.44 1481.64 Z" fill="#000000" fill-rule="nonzero" fill-opacity="1" /><path clip-path="url(#clip590)" d="M2366.8 1454.1 Q2363.18 1454.1 2361.36 1457.66 Q2359.55 1461.2 2359.55 1468.33 Q2359.55 1475.44 2361.36 1479.01 Q2363.18 1482.55 2366.8 1482.55 Q2370.43 1482.55 2372.23 1479.01 Q2374.06 1475.44 2374.06 1468.33 Q2374.06 1461.2 2372.23 1457.66 Q2370.43 1454.1 2366.8 1454.1 M2366.8 1450.39 Q2372.61 1450.39 2375.66 1455 Q2378.74 1459.58 2378.74 1468.33 Q2378.74 1477.06 2375.66 1481.67 Q2372.61 1486.25 2366.8 1486.25 Q2360.99 1486.25 2357.91 1481.67 Q2354.85 1477.06 2354.85 1468.33 Q2354.85 1459.58 2357.91 1455 Q2360.99 1450.39 2366.8 1450.39 Z" fill="#000000" fill-rule="nonzero" fill-opacity="1" /><path clip-path="url(#clip590)" d="M1249.18 1522.27 L1249.18 1532.4 L1261.24 1532.4 L1261.24 1536.95 L1249.18 1536.95 L1249.18 1556.3 Q1249.18 1560.66 1250.36 1561.9 Q1251.57 1563.14 1255.23 1563.14 L1261.24 1563.14 L1261.24 1568.04 L1255.23 1568.04 Q1248.45 1568.04 1245.87 1565.53 Q1243.29 1562.98 1243.29 1556.3 L1243.29 1536.95 L1238.99 1536.95 L1238.99 1532.4 L1243.29 1532.4 L1243.29 1522.27 L1249.18 1522.27 Z" fill="#000000" fill-rule="nonzero" fill-opacity="1" /><polyline clip-path="url(#clip590)" style="stroke:#000000; stroke-linecap:round; stroke-linejoin:round; stroke-width:4; stroke-opacity:1; fill:none" points="147.478,1423.18 147.478,47.2441 "/>
<polyline clip-path="url(#clip590)" style="stroke:#000000; stroke-linecap:round; stroke-linejoin:round; stroke-width:4; stroke-opacity:1; fill:none" points="147.478,1292.3 166.376,1292.3 "/>
<polyline clip-path="url(#clip590)" style="stroke:#000000; stroke-linecap:round; stroke-linejoin:round; stroke-width:4; stroke-opacity:1; fill:none" points="147.478,936.407 166.376,936.407 "/>
<polyline clip-path="url(#clip590)" style="stroke:#000000; stroke-linecap:round; stroke-linejoin:round; stroke-width:4; stroke-opacity:1; fill:none" points="147.478,580.516 166.376,580.516 "/>
<polyline clip-path="url(#clip590)" style="stroke:#000000; stroke-linecap:round; stroke-linejoin:round; stroke-width:4; stroke-opacity:1; fill:none" points="147.478,224.624 166.376,224.624 "/>
<path clip-path="url(#clip590)" d="M51.3625 1292.75 L81.0383 1292.75 L81.0383 1296.69 L51.3625 1296.69 L51.3625 1292.75 Z" fill="#000000" fill-rule="nonzero" fill-opacity="1" /><path clip-path="url(#clip590)" d="M95.1586 1305.64 L111.478 1305.64 L111.478 1309.58 L89.5336 1309.58 L89.5336 1305.64 Q92.1956 1302.89 96.7789 1298.26 Q101.385 1293.61 102.566 1292.26 Q104.811 1289.74 105.691 1288 Q106.594 1286.25 106.594 1284.56 Q106.594 1281.8 104.649 1280.07 Q102.728 1278.33 99.6261 1278.33 Q97.4271 1278.33 94.9734 1279.09 Q92.5428 1279.86 89.7651 1281.41 L89.7651 1276.69 Q92.5891 1275.55 95.0428 1274.97 Q97.4965 1274.39 99.5335 1274.39 Q104.904 1274.39 108.098 1277.08 Q111.293 1279.76 111.293 1284.25 Q111.293 1286.38 110.483 1288.31 Q109.696 1290.2 107.589 1292.8 Q107.01 1293.47 103.909 1296.69 Q100.807 1299.88 95.1586 1305.64 Z" fill="#000000" fill-rule="nonzero" fill-opacity="1" /><path clip-path="url(#clip590)" d="M50.9921 936.859 L80.6679 936.859 L80.6679 940.794 L50.9921 940.794 L50.9921 936.859 Z" fill="#000000" fill-rule="nonzero" fill-opacity="1" /><path clip-path="url(#clip590)" d="M91.5706 949.752 L99.2095 949.752 L99.2095 923.387 L90.8993 925.053 L90.8993 920.794 L99.1632 919.127 L103.839 919.127 L103.839 949.752 L111.478 949.752 L111.478 953.687 L91.5706 953.687 L91.5706 949.752 Z" fill="#000000" fill-rule="nonzero" fill-opacity="1" /><path clip-path="url(#clip590)" d="M99.5335 566.315 Q95.9224 566.315 94.0937 569.879 Q92.2882 573.421 92.2882 580.551 Q92.2882 587.657 94.0937 591.222 Q95.9224 594.763 99.5335 594.763 Q103.168 594.763 104.973 591.222 Q106.802 587.657 106.802 580.551 Q106.802 573.421 104.973 569.879 Q103.168 566.315 99.5335 566.315 M99.5335 562.611 Q105.344 562.611 108.399 567.217 Q111.478 571.801 111.478 580.551 Q111.478 589.277 108.399 593.884 Q105.344 598.467 99.5335 598.467 Q93.7234 598.467 90.6447 593.884 Q87.5892 589.277 87.5892 580.551 Q87.5892 571.801 90.6447 567.217 Q93.7234 562.611 99.5335 562.611 Z" fill="#000000" fill-rule="nonzero" fill-opacity="1" /><path clip-path="url(#clip590)" d="M91.5706 237.969 L99.2095 237.969 L99.2095 211.604 L90.8993 213.27 L90.8993 209.011 L99.1632 207.344 L103.839 207.344 L103.839 237.969 L111.478 237.969 L111.478 241.904 L91.5706 241.904 L91.5706 237.969 Z" fill="#000000" fill-rule="nonzero" fill-opacity="1" /><polyline clip-path="url(#clip591)" style="stroke:#009af9; stroke-linecap:round; stroke-linejoin:round; stroke-width:4; stroke-opacity:1; fill:none" points="147.478,580.516 149.685,580.275 151.893,580.038 154.1,579.804 156.308,579.573 158.515,579.345 160.723,579.12 162.93,578.898 165.138,578.679 167.345,578.462 169.553,578.249 171.76,578.039 173.968,577.831 176.175,577.626 178.383,577.424 180.59,577.224 182.798,577.028 185.005,576.833 187.213,576.642 189.42,576.452 191.628,576.266 193.835,576.082 196.043,575.9 198.25,575.721 200.458,575.544 202.665,575.369 204.873,575.197 207.08,575.027 209.288,574.859 211.495,574.694 213.702,574.53 215.91,574.369 218.117,574.21 220.325,574.053 222.532,573.898 224.74,573.745 226.947,573.595 229.155,573.446 231.362,573.299 233.57,573.154 235.777,573.011 237.985,572.87 240.192,572.731 242.4,572.594 244.607,572.458 246.815,572.325 249.022,572.193 251.23,572.063 253.437,571.934 255.645,571.807 257.852,571.682 260.06,571.559 262.267,571.437 264.475,571.317 266.682,571.199 268.89,571.082 271.097,570.966 273.305,570.852 275.512,570.74 277.72,570.629 279.927,570.519 282.135,570.412 284.342,570.305 286.549,570.2 288.757,570.096 290.964,569.994 293.172,569.893 295.379,569.793 297.587,569.695 299.794,569.598 302.002,569.502 304.209,569.407 306.417,569.314 308.624,569.222 310.832,569.131 313.039,569.042 315.247,568.953 317.454,568.866 319.662,568.78 321.869,568.695 324.077,568.611 326.284,568.529 328.492,568.447 330.699,568.367 332.907,568.287 335.114,568.209 337.322,568.131 339.529,568.055 341.737,567.98 343.944,567.905 346.152,567.832 348.359,567.76 350.567,567.688 352.774,567.618 354.982,567.548 357.189,567.48 359.397,567.412 361.604,567.345 363.811,567.279 366.019,567.346 368.226,568.976 370.434,572.372 372.641,577.31 374.849,583.576 377.056,590.969 379.264,599.304 381.471,608.405 383.679,618.111 385.886,628.273 388.094,638.755 390.301,649.435 392.509,660.201 394.716,670.958 396.924,681.619 399.131,692.113 401.339,702.382 403.546,712.38 405.754,722.072 407.961,731.439 410.169,740.474 412.376,749.181 414.584,757.578 416.791,765.697 418.999,773.581 421.206,781.287 423.414,788.884 425.621,796.455 427.829,804.094 430.036,811.784 432.244,819.373 434.451,826.862 436.659,834.252 438.866,841.544 441.073,848.739 443.281,855.839 445.488,862.844 447.696,869.757 449.903,876.578 452.111,883.308 454.318,889.95 456.526,896.503 458.733,902.969 460.941,909.35 463.148,915.647 465.356,921.86 467.563,927.991 469.771,934.04 471.978,940.01 474.186,945.9 476.393,951.712 478.601,957.447 480.808,963.106 483.016,968.69 485.223,974.2 487.431,979.636 489.638,985.001 491.846,990.294 494.053,995.517 496.261,1000.67 498.468,1005.76 500.676,1010.77 502.883,1015.72 505.091,1020.61 507.298,1025.43 509.506,1030.19 511.713,1034.88 513.921,1039.51 516.128,1044.08 518.335,1048.59 520.543,1053.04 522.75,1057.43 524.958,1061.76 527.165,1066.04 529.373,1070.26 531.58,1074.42 533.788,1078.53 535.995,1082.58 538.203,1086.58 540.41,1090.53 542.618,1094.42 544.825,1098.26 547.033,1102.05 549.24,1105.79 551.448,1109.49 553.655,1113.13 555.863,1116.72 558.07,1120.27 560.278,1123.77 562.485,1127.22 564.693,1130.63 566.9,1133.99 569.108,1137.31 571.315,1140.58 573.523,1143.81 575.73,1147 577.938,1150.15 580.145,1153.25 582.353,1156.31 584.56,1159.19 586.768,1160.38 588.975,1159.66 591.182,1157.26 593.39,1153.37 595.597,1148.19 597.805,1141.9 600.012,1134.67 602.22,1126.66 604.427,1118.02 606.635,1108.89 608.842,1099.4 611.05,1089.66 613.257,1079.79 615.465,1069.86 617.672,1059.98 619.88,1050.22 622.087,1040.63 624.295,1031.27 626.502,1022.18 628.71,1013.4 630.917,1004.93 633.125,996.792 635.332,988.982 637.54,981.486 639.747,974.281 641.955,967.332 644.162,960.593 646.37,954.008 648.577,947.51 650.785,941.022 652.992,934.453 655.2,927.776 657.407,921.169 659.615,914.65 661.822,908.217 664.03,901.869 666.237,895.606 668.444,889.425 670.652,883.327 672.859,877.309 675.067,871.372 677.274,865.513 679.482,859.731 681.689,854.027 683.897,848.398 686.104,842.843 688.312,837.362 690.519,831.954 692.727,826.617 694.934,821.351 697.142,816.154 699.349,811.026 701.557,805.967 703.764,800.974 705.972,796.047 708.179,791.186 710.387,786.39 712.594,781.657 714.802,776.986 717.009,772.378 719.217,767.831 721.424,763.344 723.632,758.917 725.839,754.549 728.047,750.239 730.254,745.986 732.462,741.789 734.669,737.648 736.877,733.562 739.084,729.531 741.292,725.552 743.499,721.627 745.706,717.754 747.914,713.932 750.121,710.161 752.329,706.44 754.536,702.768 756.744,699.145 758.951,695.57 761.159,692.042 763.366,688.562 765.574,685.127 767.781,681.737 769.989,678.393 772.196,675.093 774.404,671.836 776.611,668.623 778.819,665.452 781.026,662.323 783.234,659.227 785.441,656.137 787.649,653.058 789.856,650.002 792.064,646.977 794.271,643.991 796.479,641.051 798.686,638.164 800.894,635.336 803.101,632.572 805.309,629.876 807.516,627.251 809.724,624.701 811.931,622.227 814.139,619.83 816.346,617.512 818.553,615.271 820.761,613.106 822.968,611.016 825.176,608.997 827.383,607.048 829.591,605.162 831.798,603.336 834.006,601.563 836.213,599.837 838.421,598.151 840.628,596.496 842.836,594.865 845.043,593.247 847.251,591.632 849.458,590.02 851.666,588.43 853.873,586.86 856.081,585.311 858.288,583.783 860.496,582.274 862.703,580.786 864.911,579.318 867.118,577.869 869.326,576.439 871.533,575.029 873.741,573.637 875.948,572.263 878.156,570.908 880.363,569.57 882.571,568.251 884.778,566.948 886.986,565.664 889.193,564.396 891.401,563.145 893.608,561.91 895.815,560.692 898.023,559.49 900.23,558.304 902.438,557.134 904.645,555.979 906.853,554.839 909.06,553.715 911.268,552.605 913.475,551.51 915.683,550.43 917.89,549.364 920.098,548.312 922.305,547.274 924.513,546.25 926.72,545.239 928.928,544.242 931.135,543.258 933.343,542.288 935.55,541.33 937.758,540.384 939.965,539.452 942.173,538.531 944.38,537.623 946.588,536.727 948.795,535.843 951.003,534.971 953.21,534.11 955.418,533.26 957.625,532.422 959.833,531.595 962.04,530.779 964.248,529.974 966.455,529.179 968.663,528.395 970.87,527.621 973.077,526.858 975.285,526.105 977.492,525.361 979.7,524.628 981.907,523.904 984.115,523.19 986.322,522.485 988.53,521.789 990.737,521.103 992.945,520.426 995.152,519.758 997.36,519.099 999.567,518.448 1001.77,517.806 1003.98,517.173 1006.19,516.548 1008.4,515.931 1010.6,515.323 1012.81,514.722 1015.02,514.13 1017.23,513.545 1019.43,512.968 1021.64,512.399 1023.85,511.837 1026.06,511.283 1028.26,510.88 1030.47,511.705 1032.68,513.784 1034.89,516.893 1037.09,520.827 1039.3,525.4 1041.51,530.443 1043.72,535.807 1045.92,541.359 1048.13,546.986 1050.34,552.592 1052.55,558.102 1054.75,563.456 1056.96,568.614 1059.17,573.555 1061.38,578.273 1063.58,582.785 1065.79,587.122 1068,591.337 1070.21,595.498 1072.41,599.693 1074.62,603.948 1076.83,608.149 1079.04,612.295 1081.24,616.387 1083.45,620.423 1085.66,624.407 1087.87,628.337 1090.07,632.215 1092.28,636.042 1094.49,639.819 1096.7,643.545 1098.9,647.222 1101.11,650.85 1103.32,654.43 1105.53,657.962 1107.73,661.448 1109.94,664.888 1112.15,668.281 1114.36,671.63 1116.56,674.935 1118.77,678.195 1120.98,681.413 1123.19,684.587 1125.39,687.72 1127.6,690.811 1129.81,693.861 1132.02,696.871 1134.22,699.84 1136.43,702.771 1138.64,705.662 1140.85,708.515 1143.05,711.33 1145.26,714.108 1147.47,716.85 1149.68,719.554 1151.88,722.223 1154.09,724.857 1156.3,727.456 1158.51,730.02 1160.71,732.55 1162.92,735.047 1165.13,737.51 1167.34,739.941 1169.54,742.34 1171.75,744.707 1173.96,747.043 1176.17,749.347 1178.37,751.621 1180.58,753.865 1182.79,756.079 1185,758.264 1187.2,760.42 1189.41,762.547 1191.62,764.646 1193.83,766.717 1196.03,768.761 1198.24,770.778 1200.45,772.767 1202.66,774.731 1204.86,776.668 1207.07,778.58 1209.28,780.467 1211.49,782.328 1213.69,784.165 1215.9,785.977 1218.11,787.758 1220.32,789.477 1222.52,791.141 1224.73,792.757 1226.94,794.333 1229.15,795.879 1231.35,797.4 1233.56,798.904 1235.77,800.398 1237.98,801.886 1240.18,803.375 1242.39,804.868 1244.6,806.372 1246.81,807.888 1249.01,809.422 1251.22,810.975 1253.43,812.55 1255.64,814.148 1257.84,815.772 1260.05,817.422 1262.26,819.099 1264.47,820.802 1266.67,822.531 1268.88,824.284 1271.09,826.061 1273.3,827.858 1275.5,829.675 1277.71,831.506 1279.92,833.35 1282.13,835.201 1284.33,837.056 1286.54,838.908 1288.75,840.754 1290.96,842.586 1293.16,844.399 1295.37,846.184 1297.58,847.935 1299.79,849.644 1301.99,851.305 1304.2,852.939 1306.41,854.551 1308.62,856.142 1310.82,857.712 1313.03,859.261 1315.24,860.789 1317.45,862.297 1319.65,863.786 1321.86,865.254 1324.07,866.703 1326.28,868.133 1328.48,869.544 1330.69,870.936 1332.9,872.309 1335.11,873.665 1337.31,875.002 1339.52,876.322 1341.73,877.624 1343.94,878.909 1346.14,880.177 1348.35,881.428 1350.56,882.663 1352.76,883.881 1354.97,885.083 1357.18,886.269 1359.39,887.439 1361.59,888.594 1363.8,889.734 1366.01,890.858 1368.22,891.968 1370.42,893.062 1372.63,894.143 1374.84,895.209 1377.05,896.26 1379.25,897.298 1381.46,898.322 1383.67,899.333 1385.88,900.33 1388.08,901.314 1390.29,902.285 1392.5,903.243 1394.71,904.188 1396.91,905.121 1399.12,906.041 1401.33,906.949 1403.54,907.846 1405.74,908.73 1407.95,909.602 1410.16,910.463 1412.37,911.313 1414.57,912.151 1416.78,912.979 1418.99,913.795 1421.2,914.6 1423.4,915.395 1425.61,916.179 1427.82,916.953 1430.03,917.716 1432.23,918.47 1434.44,919.213 1436.65,919.947 1438.86,920.671 1441.06,921.385 1443.27,922.09 1445.48,922.785 1447.69,923.471 1449.89,924.148 1452.1,924.817 1454.31,925.476 1456.52,926.126 1458.72,926.768 1460.93,927.293 1463.14,926.084 1465.35,922.973 1467.55,918.396 1469.76,912.746 1471.97,906.363 1474.18,899.542 1476.38,892.526 1478.59,885.512 1480.8,878.647 1483.01,872.029 1485.21,865.708 1487.42,859.686 1489.63,853.915 1491.84,848.299 1494.04,842.694 1496.25,837.029 1498.46,831.434 1500.67,825.914 1502.87,820.466 1505.08,815.091 1507.29,809.788 1509.5,804.554 1511.7,799.39 1513.91,794.295 1516.12,789.266 1518.33,784.305 1520.53,779.409 1522.74,774.578 1524.95,769.811 1527.16,765.108 1529.36,760.466 1531.57,755.887 1533.78,751.368 1535.99,746.909 1538.19,742.509 1540.4,738.167 1542.61,733.883 1544.82,729.656 1547.02,725.485 1549.23,721.37 1551.44,717.309 1553.65,713.302 1555.85,709.348 1558.06,705.446 1560.27,701.596 1562.48,697.797 1564.68,694.049 1566.89,690.35 1569.1,686.7 1571.31,683.099 1573.51,679.545 1575.72,676.039 1577.93,672.579 1580.14,669.165 1582.34,665.796 1584.55,662.471 1586.76,659.191 1588.97,655.954 1591.17,652.76 1593.38,649.609 1595.59,646.499 1597.8,643.43 1600,640.402 1602.21,637.415 1604.42,634.467 1606.63,631.558 1608.83,628.687 1611.04,625.855 1613.25,623.06 1615.46,620.302 1617.66,617.581 1619.87,614.896 1622.08,612.246 1624.29,609.632 1626.49,607.052 1628.7,604.507 1630.91,601.995 1633.12,599.517 1635.32,597.071 1637.53,594.658 1639.74,592.277 1641.95,589.927 1644.15,587.608 1646.36,585.321 1648.57,583.063 1650.78,580.836 1652.98,578.638 1655.19,576.469 1657.4,574.329 1659.61,572.217 1661.81,570.133 1664.02,568.077 1666.23,566.049 1668.44,564.047 1670.64,562.071 1672.85,560.122 1675.06,558.199 1677.27,556.301 1679.47,554.428 1681.68,552.58 1683.89,550.757 1686.1,549.05 1688.3,548.74 1690.51,550.064 1692.72,552.8 1694.93,556.744 1697.13,561.702 1699.34,567.495 1701.55,573.956 1703.76,580.934 1705.96,588.29 1708.17,595.896 1710.38,603.641 1712.59,611.425 1714.79,619.163 1717,626.783 1719.21,634.225 1721.42,641.443 1723.62,648.407 1725.83,655.096 1728.04,661.506 1730.25,667.643 1732.45,673.531 1734.66,679.202 1736.87,684.706 1739.07,690.103 1741.28,695.469 1743.49,700.891 1745.7,706.405 1747.9,711.859 1750.11,717.241 1752.32,722.552 1754.53,727.792 1756.73,732.963 1758.94,738.065 1761.15,743.099 1763.36,748.067 1765.56,752.969 1767.77,757.806 1769.98,762.579 1772.19,767.288 1774.39,771.935 1776.6,776.521 1778.81,781.045 1781.02,785.51 1783.22,789.916 1785.43,794.263 1787.64,798.553 1789.85,802.786 1792.05,806.962 1794.26,811.084 1796.47,815.151 1798.68,819.164 1800.88,823.124 1803.09,827.031 1805.3,830.886 1807.51,834.691 1809.71,838.445 1811.92,842.149 1814.13,845.803 1816.34,849.41 1818.54,852.968 1820.75,856.479 1822.96,859.944 1825.17,863.362 1827.37,866.736 1829.58,870.064 1831.79,873.348 1834,876.589 1836.2,879.787 1838.41,882.942 1840.62,886.055 1842.83,889.127 1845.03,892.159 1847.24,895.15 1849.45,898.101 1851.66,901.014 1853.86,903.887 1856.07,906.723 1858.28,909.521 1860.49,912.282 1862.69,915.007 1864.9,917.695 1867.11,920.348 1869.32,922.966 1871.52,925.549 1873.73,928.098 1875.94,930.613 1878.15,933.094 1880.35,935.543 1882.56,937.959 1884.77,940.344 1886.98,942.696 1889.18,945.018 1891.39,947.309 1893.6,949.569 1895.81,951.799 1898.01,954 1900.22,956.172 1902.43,958.315 1904.64,960.429 1906.84,962.516 1909.05,964.574 1911.26,966.5 1913.47,966.617 1915.67,964.554 1917.88,960.574 1920.09,954.925 1922.3,947.841 1924.5,939.543 1926.71,930.237 1928.92,920.115 1931.13,909.354 1933.33,898.118 1935.54,886.556 1937.75,874.803 1939.96,862.98 1942.16,851.194 1944.37,839.537 1946.58,828.087 1948.79,816.909 1950.99,806.052 1953.2,795.552 1955.41,785.431 1957.62,775.696 1959.82,766.34 1962.03,757.342 1964.24,748.667 1966.45,740.265 1968.65,732.073 1970.86,724.013 1973.07,715.993 1975.28,707.907 1977.48,699.695 1979.69,691.561 1981.9,683.535 1984.11,675.615 1986.31,667.8 1988.52,660.089 1990.73,652.48 1992.94,644.972 1995.14,637.564 1997.35,630.254 1999.56,623.041 2001.77,615.923 2003.97,608.9 2006.18,601.97 2008.39,595.131 2010.6,588.384 2012.8,581.725 2015.01,575.155 2017.22,568.672 2019.43,562.275 2021.63,555.962 2023.84,549.734 2026.05,543.587 2028.26,537.523 2030.46,531.539 2032.67,525.634 2034.88,519.808 2037.09,514.059 2039.29,508.386 2041.5,502.788 2043.71,497.265 2045.92,491.815 2048.12,486.437 2050.33,481.131 2052.54,475.895 2054.75,470.728 2056.95,465.63 2059.16,460.6 2061.37,455.636 2063.58,450.739 2065.78,445.906 2067.99,441.137 2070.2,436.431 2072.41,431.788 2074.61,427.206 2076.82,422.685 2079.03,418.224 2081.24,413.822 2083.44,409.478 2085.65,405.192 2087.86,400.962 2090.07,396.789 2092.27,392.671 2094.48,388.607 2096.69,384.598 2098.9,380.642 2101.1,376.738 2103.31,372.886 2105.52,369.084 2107.73,365.334 2109.93,361.633 2112.14,357.981 2114.35,354.378 2116.55,350.822 2118.76,347.313 2120.97,343.851 2123.18,340.435 2125.38,337.064 2127.59,333.738 2129.8,330.456 2132.01,327.487 2134.21,325.527 2136.42,324.506 2138.63,324.316 2140.84,324.852 2143.04,326.015 2145.25,327.715 2147.46,329.865 2149.67,332.383 2151.87,335.196 2154.08,338.235 2156.29,341.436 2158.5,344.743 2160.7,348.104 2162.91,351.474 2165.12,354.813 2167.33,358.086 2169.53,361.267 2171.74,364.333 2173.95,367.268 2176.16,370.06 2178.36,372.707 2180.57,375.207 2182.78,377.57 2184.99,379.807 2187.19,381.937 2189.4,383.985 2191.61,385.981 2193.82,387.961 2196.02,389.968 2198.23,392.048 2200.44,394.164 2202.65,396.251 2204.85,398.311 2207.06,400.344 2209.27,402.35 2211.48,404.329 2213.68,406.282 2215.89,408.209 2218.1,410.11 2220.31,411.987 2222.51,413.838 2224.72,415.665 2226.93,417.468 2229.14,419.246 2231.34,421.001 2233.55,422.733 2235.76,424.442 2237.97,426.128 2240.17,427.793 2242.38,429.435 2244.59,431.055 2246.8,432.654 2249,434.232 2251.21,435.788 2253.42,437.325 2255.63,438.84 2257.83,440.336 2260.04,441.812 2262.25,443.268 2264.46,444.705 2266.66,446.123 2268.87,447.522 2271.08,448.903 2273.29,450.265 2275.49,451.609 2277.7,452.935 2279.91,454.244 2282.12,455.535 2284.32,456.809 2286.53,458.066 2288.74,459.306 2290.95,460.53 2293.15,461.738 2295.36,462.93 2297.57,464.105 2299.78,465.266 2301.98,466.41 2304.19,467.54 2306.4,468.654 2308.61,469.754 2310.81,470.839 2313.02,471.91 2315.23,472.967 2317.44,474.009 2319.64,475.038 2321.85,476.053 2324.06,477.055 2326.27,478.043 2328.47,479.019 2330.68,479.981 2332.89,480.931 2335.1,481.868 2337.3,482.793 2339.51,483.706 2341.72,484.606 2343.93,485.495 2346.13,486.372 2348.34,487.237 2350.55,488.091 2352.76,488.933 "/>
<polyline clip-path="url(#clip591)" style="stroke:#e26f46; stroke-linecap:round; stroke-linejoin:round; stroke-width:4; stroke-opacity:1; fill:none" points="147.478,562.375 149.685,562.375 151.893,562.375 154.1,562.375 156.308,562.375 158.515,562.375 160.723,562.375 162.93,562.375 165.138,562.375 167.345,562.375 169.553,562.375 171.76,562.375 173.968,562.375 176.175,562.375 178.383,562.375 180.59,562.375 182.798,562.375 185.005,562.375 187.213,562.375 189.42,562.375 191.628,562.375 193.835,562.375 196.043,562.375 198.25,562.375 200.458,562.375 202.665,562.375 204.873,562.375 207.08,562.375 209.288,562.375 211.495,562.375 213.702,562.375 215.91,562.375 218.117,562.375 220.325,562.375 222.532,562.375 224.74,562.375 226.947,562.375 229.155,562.375 231.362,562.375 233.57,562.375 235.777,562.375 237.985,562.375 240.192,562.375 242.4,562.375 244.607,562.375 246.815,562.375 249.022,562.375 251.23,562.375 253.437,562.375 255.645,562.375 257.852,562.375 260.06,562.375 262.267,562.375 264.475,562.375 266.682,562.375 268.89,562.375 271.097,562.375 273.305,562.375 275.512,562.375 277.72,562.375 279.927,562.375 282.135,562.375 284.342,562.375 286.549,562.375 288.757,562.375 290.964,562.375 293.172,562.375 295.379,562.375 297.587,562.375 299.794,562.375 302.002,562.375 304.209,562.375 306.417,562.375 308.624,562.375 310.832,562.375 313.039,562.375 315.247,562.375 317.454,562.375 319.662,562.375 321.869,562.375 324.077,562.375 326.284,562.375 328.492,562.375 330.699,562.375 332.907,562.375 335.114,562.375 337.322,562.375 339.529,562.375 341.737,562.375 343.944,562.375 346.152,562.375 348.359,562.375 350.567,562.375 352.774,562.375 354.982,562.375 357.189,562.375 359.397,562.375 361.604,562.375 363.811,562.375 366.019,562.375 368.226,1384.24 370.434,1384.24 372.641,1384.24 374.849,1384.24 377.056,1384.24 379.264,1384.24 381.471,1384.24 383.679,1384.24 385.886,1384.24 388.094,1384.24 390.301,1384.24 392.509,1384.24 394.716,1384.24 396.924,1384.24 399.131,1384.24 401.339,1384.24 403.546,1384.24 405.754,1384.24 407.961,1384.24 410.169,1384.24 412.376,1384.24 414.584,1384.24 416.791,1384.24 418.999,1384.24 421.206,1384.24 423.414,1384.24 425.621,1384.24 427.829,1384.24 430.036,1384.24 432.244,1384.24 434.451,1384.24 436.659,1384.24 438.866,1384.24 441.073,1384.24 443.281,1384.24 445.488,1384.24 447.696,1384.24 449.903,1384.24 452.111,1384.24 454.318,1384.24 456.526,1384.24 458.733,1384.24 460.941,1384.24 463.148,1384.24 465.356,1384.24 467.563,1384.24 469.771,1384.24 471.978,1384.24 474.186,1384.24 476.393,1384.24 478.601,1384.24 480.808,1384.24 483.016,1384.24 485.223,1384.24 487.431,1384.24 489.638,1384.24 491.846,1384.24 494.053,1384.24 496.261,1384.24 498.468,1384.24 500.676,1384.24 502.883,1384.24 505.091,1384.24 507.298,1384.24 509.506,1384.24 511.713,1384.24 513.921,1384.24 516.128,1384.24 518.335,1384.24 520.543,1384.24 522.75,1384.24 524.958,1384.24 527.165,1384.24 529.373,1384.24 531.58,1384.24 533.788,1384.24 535.995,1384.24 538.203,1384.24 540.41,1384.24 542.618,1384.24 544.825,1384.24 547.033,1384.24 549.24,1384.24 551.448,1384.24 553.655,1384.24 555.863,1384.24 558.07,1384.24 560.278,1384.24 562.485,1384.24 564.693,1384.24 566.9,1384.24 569.108,1384.24 571.315,1384.24 573.523,1384.24 575.73,1384.24 577.938,1384.24 580.145,1384.24 582.353,1384.24 584.56,1384.24 586.768,1384.24 588.975,429.447 591.182,429.447 593.39,429.447 595.597,429.447 597.805,429.447 600.012,429.447 602.22,429.447 604.427,429.447 606.635,429.447 608.842,429.447 611.05,429.447 613.257,429.447 615.465,429.447 617.672,429.447 619.88,429.447 622.087,429.447 624.295,429.447 626.502,429.447 628.71,429.447 630.917,429.447 633.125,429.447 635.332,429.447 637.54,429.447 639.747,429.447 641.955,429.447 644.162,429.447 646.37,429.447 648.577,429.447 650.785,429.447 652.992,429.447 655.2,429.447 657.407,429.447 659.615,429.447 661.822,429.447 664.03,429.447 666.237,429.447 668.444,429.447 670.652,429.447 672.859,429.447 675.067,429.447 677.274,429.447 679.482,429.447 681.689,429.447 683.897,429.447 686.104,429.447 688.312,429.447 690.519,429.447 692.727,429.447 694.934,429.447 697.142,429.447 699.349,429.447 701.557,429.447 703.764,429.447 705.972,429.447 708.179,429.447 710.387,429.447 712.594,429.447 714.802,429.447 717.009,429.447 719.217,429.447 721.424,429.447 723.632,429.447 725.839,429.447 728.047,429.447 730.254,429.447 732.462,429.447 734.669,429.447 736.877,429.447 739.084,429.447 741.292,429.447 743.499,429.447 745.706,429.447 747.914,429.447 750.121,429.447 752.329,429.447 754.536,429.447 756.744,429.447 758.951,429.447 761.159,429.447 763.366,429.447 765.574,429.447 767.781,429.447 769.989,429.447 772.196,429.447 774.404,429.447 776.611,429.447 778.819,429.447 781.026,429.447 783.234,429.447 785.441,429.447 787.649,429.447 789.856,429.447 792.064,429.447 794.271,429.447 796.479,429.447 798.686,429.447 800.894,429.447 803.101,429.447 805.309,429.447 807.516,429.447 809.724,470.033 811.931,470.033 814.139,470.033 816.346,470.033 818.553,470.033 820.761,470.033 822.968,470.033 825.176,470.033 827.383,470.033 829.591,470.033 831.798,470.033 834.006,470.033 836.213,470.033 838.421,470.033 840.628,470.033 842.836,470.033 845.043,470.033 847.251,470.033 849.458,470.033 851.666,470.033 853.873,470.033 856.081,470.033 858.288,470.033 860.496,470.033 862.703,470.033 864.911,470.033 867.118,470.033 869.326,470.033 871.533,470.033 873.741,470.033 875.948,470.033 878.156,470.033 880.363,470.033 882.571,470.033 884.778,470.033 886.986,470.033 889.193,470.033 891.401,470.033 893.608,470.033 895.815,470.033 898.023,470.033 900.23,470.033 902.438,470.033 904.645,470.033 906.853,470.033 909.06,470.033 911.268,470.033 913.475,470.033 915.683,470.033 917.89,470.033 920.098,470.033 922.305,470.033 924.513,470.033 926.72,470.033 928.928,470.033 931.135,470.033 933.343,470.033 935.55,470.033 937.758,470.033 939.965,470.033 942.173,470.033 944.38,470.033 946.588,470.033 948.795,470.033 951.003,470.033 953.21,470.033 955.418,470.033 957.625,470.033 959.833,470.033 962.04,470.033 964.248,470.033 966.455,470.033 968.663,470.033 970.87,470.033 973.077,470.033 975.285,470.033 977.492,470.033 979.7,470.033 981.907,470.033 984.115,470.033 986.322,470.033 988.53,470.033 990.737,470.033 992.945,470.033 995.152,470.033 997.36,470.033 999.567,470.033 1001.77,470.033 1003.98,470.033 1006.19,470.033 1008.4,470.033 1010.6,470.033 1012.81,470.033 1015.02,470.033 1017.23,470.033 1019.43,470.033 1021.64,470.033 1023.85,470.033 1026.06,470.033 1028.26,470.033 1030.47,920.868 1032.68,920.868 1034.89,920.868 1037.09,920.868 1039.3,920.868 1041.51,920.868 1043.72,920.868 1045.92,920.868 1048.13,920.868 1050.34,920.868 1052.55,920.868 1054.75,920.868 1056.96,920.868 1059.17,920.868 1061.38,920.868 1063.58,920.868 1065.79,920.868 1068,920.868 1070.21,920.868 1072.41,920.868 1074.62,920.868 1076.83,920.868 1079.04,920.868 1081.24,920.868 1083.45,920.868 1085.66,920.868 1087.87,920.868 1090.07,920.868 1092.28,920.868 1094.49,920.868 1096.7,920.868 1098.9,920.868 1101.11,920.868 1103.32,920.868 1105.53,920.868 1107.73,920.868 1109.94,920.868 1112.15,920.868 1114.36,920.868 1116.56,920.868 1118.77,920.868 1120.98,920.868 1123.19,920.868 1125.39,920.868 1127.6,920.868 1129.81,920.868 1132.02,920.868 1134.22,920.868 1136.43,920.868 1138.64,920.868 1140.85,920.868 1143.05,920.868 1145.26,920.868 1147.47,920.868 1149.68,920.868 1151.88,920.868 1154.09,920.868 1156.3,920.868 1158.51,920.868 1160.71,920.868 1162.92,920.868 1165.13,920.868 1167.34,920.868 1169.54,920.868 1171.75,920.868 1173.96,920.868 1176.17,920.868 1178.37,920.868 1180.58,920.868 1182.79,920.868 1185,920.868 1187.2,920.868 1189.41,920.868 1191.62,920.868 1193.83,920.868 1196.03,920.868 1198.24,920.868 1200.45,920.868 1202.66,920.868 1204.86,920.868 1207.07,920.868 1209.28,920.868 1211.49,920.868 1213.69,920.868 1215.9,920.868 1218.11,920.868 1220.32,920.868 1222.52,920.868 1224.73,920.868 1226.94,920.868 1229.15,920.868 1231.35,920.868 1233.56,920.868 1235.77,920.868 1237.98,920.868 1240.18,920.868 1242.39,920.868 1244.6,920.868 1246.81,920.868 1249.01,920.868 1251.22,974.544 1253.43,974.544 1255.64,974.544 1257.84,974.544 1260.05,974.544 1262.26,974.544 1264.47,974.544 1266.67,974.544 1268.88,974.544 1271.09,974.544 1273.3,974.544 1275.5,974.544 1277.71,974.544 1279.92,974.544 1282.13,974.544 1284.33,974.544 1286.54,974.544 1288.75,974.544 1290.96,974.544 1293.16,974.544 1295.37,974.544 1297.58,974.544 1299.79,974.544 1301.99,974.544 1304.2,974.544 1306.41,974.544 1308.62,974.544 1310.82,974.544 1313.03,974.544 1315.24,974.544 1317.45,974.544 1319.65,974.544 1321.86,974.544 1324.07,974.544 1326.28,974.544 1328.48,974.544 1330.69,974.544 1332.9,974.544 1335.11,974.544 1337.31,974.544 1339.52,974.544 1341.73,974.544 1343.94,974.544 1346.14,974.544 1348.35,974.544 1350.56,974.544 1352.76,974.544 1354.97,974.544 1357.18,974.544 1359.39,974.544 1361.59,974.544 1363.8,974.544 1366.01,974.544 1368.22,974.544 1370.42,974.544 1372.63,974.544 1374.84,974.544 1377.05,974.544 1379.25,974.544 1381.46,974.544 1383.67,974.544 1385.88,974.544 1388.08,974.544 1390.29,974.544 1392.5,974.544 1394.71,974.544 1396.91,974.544 1399.12,974.544 1401.33,974.544 1403.54,974.544 1405.74,974.544 1407.95,974.544 1410.16,974.544 1412.37,974.544 1414.57,974.544 1416.78,974.544 1418.99,974.544 1421.2,974.544 1423.4,974.544 1425.61,974.544 1427.82,974.544 1430.03,974.544 1432.23,974.544 1434.44,974.544 1436.65,974.544 1438.86,974.544 1441.06,974.544 1443.27,974.544 1445.48,974.544 1447.69,974.544 1449.89,974.544 1452.1,974.544 1454.31,974.544 1456.52,974.544 1458.72,974.544 1460.93,974.544 1463.14,974.544 1465.35,974.544 1467.55,974.544 1469.76,974.544 1471.97,415.052 1474.18,415.052 1476.38,415.052 1478.59,415.052 1480.8,415.052 1483.01,415.052 1485.21,415.052 1487.42,415.052 1489.63,415.052 1491.84,415.052 1494.04,415.052 1496.25,415.052 1498.46,415.052 1500.67,415.052 1502.87,415.052 1505.08,415.052 1507.29,415.052 1509.5,415.052 1511.7,415.052 1513.91,415.052 1516.12,415.052 1518.33,415.052 1520.53,415.052 1522.74,415.052 1524.95,415.052 1527.16,415.052 1529.36,415.052 1531.57,415.052 1533.78,415.052 1535.99,415.052 1538.19,415.052 1540.4,415.052 1542.61,415.052 1544.82,415.052 1547.02,415.052 1549.23,415.052 1551.44,415.052 1553.65,415.052 1555.85,415.052 1558.06,415.052 1560.27,415.052 1562.48,415.052 1564.68,415.052 1566.89,415.052 1569.1,415.052 1571.31,415.052 1573.51,415.052 1575.72,415.052 1577.93,415.052 1580.14,415.052 1582.34,415.052 1584.55,415.052 1586.76,415.052 1588.97,415.052 1591.17,415.052 1593.38,415.052 1595.59,415.052 1597.8,415.052 1600,415.052 1602.21,415.052 1604.42,415.052 1606.63,415.052 1608.83,415.052 1611.04,415.052 1613.25,415.052 1615.46,415.052 1617.66,415.052 1619.87,415.052 1622.08,415.052 1624.29,415.052 1626.49,415.052 1628.7,415.052 1630.91,415.052 1633.12,415.052 1635.32,415.052 1637.53,415.052 1639.74,415.052 1641.95,415.052 1644.15,415.052 1646.36,415.052 1648.57,415.052 1650.78,415.052 1652.98,415.052 1655.19,415.052 1657.4,415.052 1659.61,415.052 1661.81,415.052 1664.02,415.052 1666.23,415.052 1668.44,415.052 1670.64,415.052 1672.85,415.052 1675.06,415.052 1677.27,415.052 1679.47,415.052 1681.68,415.052 1683.89,415.052 1686.1,415.052 1688.3,415.052 1690.51,415.052 1692.72,1117.8 1694.93,1117.8 1697.13,1117.8 1699.34,1117.8 1701.55,1117.8 1703.76,1117.8 1705.96,1117.8 1708.17,1117.8 1710.38,1117.8 1712.59,1117.8 1714.79,1117.8 1717,1117.8 1719.21,1117.8 1721.42,1117.8 1723.62,1117.8 1725.83,1117.8 1728.04,1117.8 1730.25,1117.8 1732.45,1117.8 1734.66,1117.8 1736.87,1117.8 1739.07,1117.8 1741.28,1117.8 1743.49,1117.8 1745.7,1117.8 1747.9,1117.8 1750.11,1117.8 1752.32,1117.8 1754.53,1117.8 1756.73,1117.8 1758.94,1117.8 1761.15,1117.8 1763.36,1117.8 1765.56,1117.8 1767.77,1117.8 1769.98,1117.8 1772.19,1117.8 1774.39,1117.8 1776.6,1117.8 1778.81,1117.8 1781.02,1117.8 1783.22,1117.8 1785.43,1117.8 1787.64,1117.8 1789.85,1117.8 1792.05,1117.8 1794.26,1117.8 1796.47,1117.8 1798.68,1117.8 1800.88,1117.8 1803.09,1117.8 1805.3,1117.8 1807.51,1117.8 1809.71,1117.8 1811.92,1117.8 1814.13,1117.8 1816.34,1117.8 1818.54,1117.8 1820.75,1117.8 1822.96,1117.8 1825.17,1117.8 1827.37,1117.8 1829.58,1117.8 1831.79,1117.8 1834,1117.8 1836.2,1117.8 1838.41,1117.8 1840.62,1117.8 1842.83,1117.8 1845.03,1117.8 1847.24,1117.8 1849.45,1117.8 1851.66,1117.8 1853.86,1117.8 1856.07,1117.8 1858.28,1117.8 1860.49,1117.8 1862.69,1117.8 1864.9,1117.8 1867.11,1117.8 1869.32,1117.8 1871.52,1117.8 1873.73,1117.8 1875.94,1117.8 1878.15,1117.8 1880.35,1117.8 1882.56,1117.8 1884.77,1117.8 1886.98,1117.8 1889.18,1117.8 1891.39,1117.8 1893.6,1117.8 1895.81,1117.8 1898.01,1117.8 1900.22,1117.8 1902.43,1117.8 1904.64,1117.8 1906.84,1117.8 1909.05,1117.8 1911.26,1117.8 1913.47,86.1857 1915.67,86.1857 1917.88,86.1857 1920.09,86.1857 1922.3,86.1857 1924.5,86.1857 1926.71,86.1857 1928.92,86.1857 1931.13,86.1857 1933.33,86.1857 1935.54,86.1857 1937.75,86.1857 1939.96,86.1857 1942.16,86.1857 1944.37,86.1857 1946.58,86.1857 1948.79,86.1857 1950.99,86.1857 1953.2,86.1857 1955.41,86.1857 1957.62,86.1857 1959.82,86.1857 1962.03,86.1857 1964.24,86.1857 1966.45,86.1857 1968.65,86.1857 1970.86,86.1857 1973.07,86.1857 1975.28,86.1857 1977.48,86.1857 1979.69,86.1857 1981.9,86.1857 1984.11,86.1857 1986.31,86.1857 1988.52,86.1857 1990.73,86.1857 1992.94,86.1857 1995.14,86.1857 1997.35,86.1857 1999.56,86.1857 2001.77,86.1857 2003.97,86.1857 2006.18,86.1857 2008.39,86.1857 2010.6,86.1857 2012.8,86.1857 2015.01,86.1857 2017.22,86.1857 2019.43,86.1857 2021.63,86.1857 2023.84,86.1857 2026.05,86.1857 2028.26,86.1857 2030.46,86.1857 2032.67,86.1857 2034.88,86.1857 2037.09,86.1857 2039.29,86.1857 2041.5,86.1857 2043.71,86.1857 2045.92,86.1857 2048.12,86.1857 2050.33,86.1857 2052.54,86.1857 2054.75,86.1857 2056.95,86.1857 2059.16,86.1857 2061.37,86.1857 2063.58,86.1857 2065.78,86.1857 2067.99,86.1857 2070.2,86.1857 2072.41,86.1857 2074.61,86.1857 2076.82,86.1857 2079.03,86.1857 2081.24,86.1857 2083.44,86.1857 2085.65,86.1857 2087.86,86.1857 2090.07,86.1857 2092.27,86.1857 2094.48,86.1857 2096.69,86.1857 2098.9,86.1857 2101.1,86.1857 2103.31,86.1857 2105.52,86.1857 2107.73,86.1857 2109.93,86.1857 2112.14,86.1857 2114.35,86.1857 2116.55,86.1857 2118.76,86.1857 2120.97,86.1857 2123.18,86.1857 2125.38,86.1857 2127.59,86.1857 2129.8,86.1857 2132.01,86.1857 2134.21,551.63 2136.42,551.63 2138.63,551.63 2140.84,551.63 2143.04,551.63 2145.25,551.63 2147.46,551.63 2149.67,551.63 2151.87,551.63 2154.08,551.63 2156.29,551.63 2158.5,551.63 2160.7,551.63 2162.91,551.63 2165.12,551.63 2167.33,551.63 2169.53,551.63 2171.74,551.63 2173.95,551.63 2176.16,551.63 2178.36,551.63 2180.57,551.63 2182.78,551.63 2184.99,551.63 2187.19,551.63 2189.4,551.63 2191.61,551.63 2193.82,551.63 2196.02,551.63 2198.23,551.63 2200.44,551.63 2202.65,551.63 2204.85,551.63 2207.06,551.63 2209.27,551.63 2211.48,551.63 2213.68,551.63 2215.89,551.63 2218.1,551.63 2220.31,551.63 2222.51,551.63 2224.72,551.63 2226.93,551.63 2229.14,551.63 2231.34,551.63 2233.55,551.63 2235.76,551.63 2237.97,551.63 2240.17,551.63 2242.38,551.63 2244.59,551.63 2246.8,551.63 2249,551.63 2251.21,551.63 2253.42,551.63 2255.63,551.63 2257.83,551.63 2260.04,551.63 2262.25,551.63 2264.46,551.63 2266.66,551.63 2268.87,551.63 2271.08,551.63 2273.29,551.63 2275.49,551.63 2277.7,551.63 2279.91,551.63 2282.12,551.63 2284.32,551.63 2286.53,551.63 2288.74,551.63 2290.95,551.63 2293.15,551.63 2295.36,551.63 2297.57,551.63 2299.78,551.63 2301.98,551.63 2304.19,551.63 2306.4,551.63 2308.61,551.63 2310.81,551.63 2313.02,551.63 2315.23,551.63 2317.44,551.63 2319.64,551.63 2321.85,551.63 2324.06,551.63 2326.27,551.63 2328.47,551.63 2330.68,551.63 2332.89,551.63 2335.1,551.63 2337.3,551.63 2339.51,551.63 2341.72,551.63 2343.93,551.63 2346.13,551.63 2348.34,551.63 2350.55,551.63 2352.76,551.63 "/>
<path clip-path="url(#clip590)" d="M220.987 248.629 L466.654 248.629 L466.654 93.1086 L220.987 93.1086  Z" fill="#ffffff" fill-rule="evenodd" fill-opacity="1"/>
<polyline clip-path="url(#clip590)" style="stroke:#000000; stroke-linecap:round; stroke-linejoin:round; stroke-width:4; stroke-opacity:1; fill:none" points="220.987,248.629 466.654,248.629 466.654,93.1086 220.987,93.1086 220.987,248.629 "/>
<polyline clip-path="url(#clip590)" style="stroke:#009af9; stroke-linecap:round; stroke-linejoin:round; stroke-width:4; stroke-opacity:1; fill:none" points="245.49,144.949 392.509,144.949 "/>
<path clip-path="url(#clip590)" d="M441.665 136.303 L432.29 148.919 L442.151 162.229 L437.128 162.229 L429.581 152.043 L422.035 162.229 L417.012 162.229 L427.081 148.664 L417.868 136.303 L422.891 136.303 L429.766 145.539 L436.641 136.303 L441.665 136.303 Z" fill="#000000" fill-rule="nonzero" fill-opacity="1" /><polyline clip-path="url(#clip590)" style="stroke:#e26f46; stroke-linecap:round; stroke-linejoin:round; stroke-width:4; stroke-opacity:1; fill:none" points="245.49,196.789 392.509,196.789 "/>
<path clip-path="url(#clip590)" d="M433.516 178.05 L433.516 181.592 L429.442 181.592 Q427.151 181.592 426.248 182.518 Q425.368 183.444 425.368 185.851 L425.368 188.143 L432.382 188.143 L432.382 191.453 L425.368 191.453 L425.368 214.069 L421.086 214.069 L421.086 191.453 L417.012 191.453 L417.012 188.143 L421.086 188.143 L421.086 186.337 Q421.086 182.009 423.1 180.041 Q425.114 178.05 429.489 178.05 L433.516 178.05 Z" fill="#000000" fill-rule="nonzero" fill-opacity="1" /></svg>
