<?xml version="1.0" encoding="utf-8"?>
<svg xmlns="http://www.w3.org/2000/svg" xmlns:xlink="http://www.w3.org/1999/xlink" width="600" height="400" viewBox="0 0 2400 1600">
<defs>
  <clipPath id="clip720">
    <rect x="0" y="0" width="2400" height="1600"/>
  </clipPath>
</defs>
<path clip-path="url(#clip720)" d="M0 1600 L2400 1600 L2400 0 L0 0  Z" fill="#ffffff" fill-rule="evenodd" fill-opacity="1"/>
<defs>
  <clipPath id="clip721">
    <rect x="147" y="47" width="2206" height="1377"/>
  </clipPath>
</defs>
<path clip-path="url(#clip720)" d="M147.478 1423.18 L2352.76 1423.18 L2352.76 47.2441 L147.478 47.2441  Z" fill="#ffffff" fill-rule="evenodd" fill-opacity="1"/>
<polyline clip-path="url(#clip721)" style="stroke:#000000; stroke-linecap:round; stroke-linejoin:round; stroke-width:2; stroke-opacity:0.1; fill:none" points="147.478,1423.18 147.478,47.2441 "/>
<polyline clip-path="url(#clip721)" style="stroke:#000000; stroke-linecap:round; stroke-linejoin:round; stroke-width:2; stroke-opacity:0.1; fill:none" points="588.534,1423.18 588.534,47.2441 "/>
<polyline clip-path="url(#clip721)" style="stroke:#000000; stroke-linecap:round; stroke-linejoin:round; stroke-width:2; stroke-opacity:0.1; fill:none" points="1029.59,1423.18 1029.59,47.2441 "/>
<polyline clip-path="url(#clip721)" style="stroke:#000000; stroke-linecap:round; stroke-linejoin:round; stroke-width:2; stroke-opacity:0.1; fill:none" points="1470.64,1423.18 1470.64,47.2441 "/>
<polyline clip-path="url(#clip721)" style="stroke:#000000; stroke-linecap:round; stroke-linejoin:round; stroke-width:2; stroke-opacity:0.1; fill:none" points="1911.7,1423.18 1911.7,47.2441 "/>
<polyline clip-path="url(#clip721)" style="stroke:#000000; stroke-linecap:round; stroke-linejoin:round; stroke-width:2; stroke-opacity:0.1; fill:none" points="2352.76,1423.18 2352.76,47.2441 "/>
<polyline clip-path="url(#clip721)" style="stroke:#000000; stroke-linecap:round; stroke-linejoin:round; stroke-width:2; stroke-opacity:0.1; fill:none" points="147.478,1269.73 2352.76,1269.73 "/>
<polyline clip-path="url(#clip721)" style="stroke:#000000; stroke-linecap:round; stroke-linejoin:round; stroke-width:2; stroke-opacity:0.1; fill:none" points="147.478,899.852 2352.76,899.852 "/>
<polyline clip-path="url(#clip721)" style="stroke:#000000; stroke-linecap:round; stroke-linejoin:round; stroke-width:2; stroke-opacity:0.1; fill:none" points="147.478,529.972 2352.76,529.972 "/>
<polyline clip-path="url(#clip721)" style="stroke:#000000; stroke-linecap:round; stroke-linejoin:round; stroke-width:2; stroke-opacity:0.1; fill:none" points="147.478,160.093 2352.76,160.093 "/>
<polyline clip-path="url(#clip720)" style="stroke:#000000; stroke-linecap:round; stroke-linejoin:round; stroke-width:4; stroke-opacity:1; fill:none" points="147.478,1423.18 2352.76,1423.18 "/>
<polyline clip-path="url(#clip720)" style="stroke:#000000; stroke-linecap:round; stroke-linejoin:round; stroke-width:4; stroke-opacity:1; fill:none" points="147.478,1423.18 147.478,1404.28 "/>
<polyline clip-path="url(#clip720)" style="stroke:#000000; stroke-linecap:round; stroke-linejoin:round; stroke-width:4; stroke-opacity:1; fill:none" points="588.534,1423.18 588.534,1404.28 "/>
<polyline clip-path="url(#clip720)" style="stroke:#000000; stroke-linecap:round; stroke-linejoin:round; stroke-width:4; stroke-opacity:1; fill:none" points="1029.59,1423.18 1029.59,1404.28 "/>
<polyline clip-path="url(#clip720)" style="stroke:#000000; stroke-linecap:round; stroke-linejoin:round; stroke-width:4; stroke-opacity:1; fill:none" points="1470.64,1423.18 1470.64,1404.28 "/>
<polyline clip-path="url(#clip720)" style="stroke:#000000; stroke-linecap:round; stroke-linejoin:round; stroke-width:4; stroke-opacity:1; fill:none" points="1911.7,1423.18 1911.7,1404.28 "/>
<polyline clip-path="url(#clip720)" style="stroke:#000000; stroke-linecap:round; stroke-linejoin:round; stroke-width:4; stroke-opacity:1; fill:none" points="2352.76,1423.18 2352.76,1404.28 "/>
<path clip-path="url(#clip720)" d="M147.478 1454.1 Q143.867 1454.1 142.038 1457.66 Q140.233 1461.2 140.233 1468.33 Q140.233 1475.44 142.038 1479.01 Q143.867 1482.55 147.478 1482.55 Q151.112 1482.55 152.918 1479.01 Q154.746 1475.44 154.746 1468.33 Q154.746 1461.2 152.918 1457.66 Q151.112 1454.1 147.478 1454.1 M147.478 1450.39 Q153.288 1450.39 156.344 1455 Q159.422 1459.58 159.422 1468.33 Q159.422 1477.06 156.344 1481.67 Q153.288 1486.25 147.478 1486.25 Q141.668 1486.25 138.589 1481.67 Q135.534 1477.06 135.534 1468.33 Q135.534 1459.58 138.589 1455 Q141.668 1450.39 147.478 1450.39 Z" fill="#000000" fill-rule="nonzero" fill-opacity="1" /><path clip-path="url(#clip720)" d="M583.186 1481.64 L599.506 1481.64 L599.506 1485.58 L577.561 1485.58 L577.561 1481.64 Q580.223 1478.89 584.807 1474.26 Q589.413 1469.61 590.594 1468.27 Q592.839 1465.74 593.719 1464.01 Q594.621 1462.25 594.621 1460.56 Q594.621 1457.8 592.677 1456.07 Q590.756 1454.33 587.654 1454.33 Q585.455 1454.33 583.001 1455.09 Q580.571 1455.86 577.793 1457.41 L577.793 1452.69 Q580.617 1451.55 583.071 1450.97 Q585.524 1450.39 587.561 1450.39 Q592.932 1450.39 596.126 1453.08 Q599.32 1455.77 599.32 1460.26 Q599.32 1462.39 598.51 1464.31 Q597.723 1466.2 595.617 1468.8 Q595.038 1469.47 591.936 1472.69 Q588.834 1475.88 583.186 1481.64 Z" fill="#000000" fill-rule="nonzero" fill-opacity="1" /><path clip-path="url(#clip720)" d="M1032.6 1455.09 L1020.79 1473.54 L1032.6 1473.54 L1032.6 1455.09 M1031.37 1451.02 L1037.25 1451.02 L1037.25 1473.54 L1042.18 1473.54 L1042.18 1477.43 L1037.25 1477.43 L1037.25 1485.58 L1032.6 1485.58 L1032.6 1477.43 L1017 1477.43 L1017 1472.92 L1031.37 1451.02 Z" fill="#000000" fill-rule="nonzero" fill-opacity="1" /><path clip-path="url(#clip720)" d="M1471.05 1466.44 Q1467.9 1466.44 1466.05 1468.59 Q1464.22 1470.74 1464.22 1474.49 Q1464.22 1478.22 1466.05 1480.39 Q1467.9 1482.55 1471.05 1482.55 Q1474.2 1482.55 1476.03 1480.39 Q1477.88 1478.22 1477.88 1474.49 Q1477.88 1470.74 1476.03 1468.59 Q1474.2 1466.44 1471.05 1466.44 M1480.33 1451.78 L1480.33 1456.04 Q1478.57 1455.21 1476.77 1454.77 Q1474.98 1454.33 1473.23 1454.33 Q1468.6 1454.33 1466.14 1457.45 Q1463.71 1460.58 1463.36 1466.9 Q1464.73 1464.89 1466.79 1463.82 Q1468.85 1462.73 1471.33 1462.73 Q1476.54 1462.73 1479.55 1465.9 Q1482.58 1469.05 1482.58 1474.49 Q1482.58 1479.82 1479.43 1483.03 Q1476.28 1486.25 1471.05 1486.25 Q1465.05 1486.25 1461.88 1481.67 Q1458.71 1477.06 1458.71 1468.33 Q1458.71 1460.14 1462.6 1455.28 Q1466.49 1450.39 1473.04 1450.39 Q1474.8 1450.39 1476.58 1450.74 Q1478.39 1451.09 1480.33 1451.78 Z" fill="#000000" fill-rule="nonzero" fill-opacity="1" /><path clip-path="url(#clip720)" d="M1911.7 1469.17 Q1908.37 1469.17 1906.45 1470.95 Q1904.55 1472.73 1904.55 1475.86 Q1904.55 1478.98 1906.45 1480.77 Q1908.37 1482.55 1911.7 1482.55 Q1915.03 1482.55 1916.95 1480.77 Q1918.88 1478.96 1918.88 1475.86 Q1918.88 1472.73 1916.95 1470.95 Q1915.06 1469.17 1911.7 1469.17 M1907.02 1467.18 Q1904.02 1466.44 1902.33 1464.38 Q1900.66 1462.32 1900.66 1459.35 Q1900.66 1455.21 1903.6 1452.8 Q1906.56 1450.39 1911.7 1450.39 Q1916.86 1450.39 1919.8 1452.8 Q1922.74 1455.21 1922.74 1459.35 Q1922.74 1462.32 1921.05 1464.38 Q1919.39 1466.44 1916.4 1467.18 Q1919.78 1467.96 1921.65 1470.26 Q1923.55 1472.55 1923.55 1475.86 Q1923.55 1480.88 1920.47 1483.57 Q1917.42 1486.25 1911.7 1486.25 Q1905.98 1486.25 1902.9 1483.57 Q1899.85 1480.88 1899.85 1475.86 Q1899.85 1472.55 1901.75 1470.26 Q1903.64 1467.96 1907.02 1467.18 M1905.31 1459.79 Q1905.31 1462.48 1906.98 1463.98 Q1908.67 1465.49 1911.7 1465.49 Q1914.71 1465.49 1916.4 1463.98 Q1918.11 1462.48 1918.11 1459.79 Q1918.11 1457.11 1916.4 1455.6 Q1914.71 1454.1 1911.7 1454.1 Q1908.67 1454.1 1906.98 1455.6 Q1905.31 1457.11 1905.31 1459.79 Z" fill="#000000" fill-rule="nonzero" fill-opacity="1" /><path clip-path="url(#clip720)" d="M2327.44 1481.64 L2335.08 1481.64 L2335.08 1455.28 L2326.77 1456.95 L2326.77 1452.69 L2335.04 1451.02 L2339.71 1451.02 L2339.71 1481.64 L2347.35 1481.64 L2347.35 1485.58 L2327.44 1485.58 L2327.44 1481.64 Z" fill="#000000" fill-rule="nonzero" fill-opacity="1" /><path clip-path="url(#clip720)" d="M2366.8 1454.1 Q2363.18 1454.1 2361.36 1457.66 Q2359.55 1461.2 2359.55 1468.33 Q2359.55 1475.44 2361.36 1479.01 Q2363.18 1482.55 2366.8 1482.55 Q2370.43 1482.55 2372.23 1479.01 Q2374.06 1475.44 2374.06 1468.33 Q2374.06 1461.2 2372.23 1457.66 Q2370.43 1454.1 2366.8 1454.1 M2366.8 1450.39 Q2372.61 1450.39 2375.66 1455 Q2378.74 1459.58 2378.74 1468.33 Q2378.74 1477.06 2375.66 1481.67 Q2372.61 1486.25 2366.8 1486.25 Q2360.99 1486.25 2357.91 1481.67 Q2354.85 1477.06 2354.85 1468.33 Q2354.85 1459.58 2357.91 1455 Q2360.99 1450.39 2366.8 1450.39 Z" fill="#000000" fill-rule="nonzero" fill-opacity="1" /><path clip-path="url(#clip720)" d="M1249.18 1522.27 L1249.18 1532.4 L1261.24 1532.4 L1261.24 1536.95 L1249.18 1536.95 L1249.18 1556.3 Q1249.18 1560.66 1250.36 1561.9 Q1251.57 1563.14 1255.23 1563.14 L1261.24 1563.14 L1261.24 1568.04 L1255.23 1568.04 Q1248.45 1568.04 1245.87 1565.53 Q1243.29 1562.98 1243.29 1556.3 L1243.29 1536.95 L1238.99 1536.95 L1238.99 1532.4 L1243.29 1532.4 L1243.29 1522.27 L1249.18 1522.27 Z" fill="#000000" fill-rule="nonzero" fill-opacity="1" /><polyline clip-path="url(#clip720)" style="stroke:#000000; stroke-linecap:round; stroke-linejoin:round; stroke-width:4; stroke-opacity:1; fill:none" points="147.478,1423.18 147.478,47.2441 "/>
<polyline clip-path="url(#clip720)" style="stroke:#000000; stroke-linecap:round; stroke-linejoin:round; stroke-width:4; stroke-opacity:1; fill:none" points="147.478,1269.73 166.376,1269.73 "/>
<polyline clip-path="url(#clip720)" style="stroke:#000000; stroke-linecap:round; stroke-linejoin:round; stroke-width:4; stroke-opacity:1; fill:none" points="147.478,899.852 166.376,899.852 "/>
<polyline clip-path="url(#clip720)" style="stroke:#000000; stroke-linecap:round; stroke-linejoin:round; stroke-width:4; stroke-opacity:1; fill:none" points="147.478,529.972 166.376,529.972 "/>
<polyline clip-path="url(#clip720)" style="stroke:#000000; stroke-linecap:round; stroke-linejoin:round; stroke-width:4; stroke-opacity:1; fill:none" points="147.478,160.093 166.376,160.093 "/>
<path clip-path="url(#clip720)" d="M51.3625 1270.18 L81.0383 1270.18 L81.0383 1274.12 L51.3625 1274.12 L51.3625 1270.18 Z" fill="#000000" fill-rule="nonzero" fill-opacity="1" /><path clip-path="url(#clip720)" d="M95.1586 1283.08 L111.478 1283.08 L111.478 1287.01 L89.5336 1287.01 L89.5336 1283.08 Q92.1956 1280.32 96.7789 1275.69 Q101.385 1271.04 102.566 1269.7 Q104.811 1267.17 105.691 1265.44 Q106.594 1263.68 106.594 1261.99 Q106.594 1259.23 104.649 1257.5 Q102.728 1255.76 99.6261 1255.76 Q97.4271 1255.76 94.9734 1256.53 Q92.5428 1257.29 89.7651 1258.84 L89.7651 1254.12 Q92.5891 1252.98 95.0428 1252.41 Q97.4965 1251.83 99.5335 1251.83 Q104.904 1251.83 108.098 1254.51 Q111.293 1257.2 111.293 1261.69 Q111.293 1263.82 110.483 1265.74 Q109.696 1267.64 107.589 1270.23 Q107.01 1270.9 103.909 1274.12 Q100.807 1277.31 95.1586 1283.08 Z" fill="#000000" fill-rule="nonzero" fill-opacity="1" /><path clip-path="url(#clip720)" d="M50.9921 900.303 L80.6679 900.303 L80.6679 904.238 L50.9921 904.238 L50.9921 900.303 Z" fill="#000000" fill-rule="nonzero" fill-opacity="1" /><path clip-path="url(#clip720)" d="M91.5706 913.197 L99.2095 913.197 L99.2095 886.831 L90.8993 888.498 L90.8993 884.238 L99.1632 882.572 L103.839 882.572 L103.839 913.197 L111.478 913.197 L111.478 917.132 L91.5706 917.132 L91.5706 913.197 Z" fill="#000000" fill-rule="nonzero" fill-opacity="1" /><path clip-path="url(#clip720)" d="M99.5335 515.771 Q95.9224 515.771 94.0937 519.336 Q92.2882 522.877 92.2882 530.007 Q92.2882 537.113 94.0937 540.678 Q95.9224 544.22 99.5335 544.22 Q103.168 544.22 104.973 540.678 Q106.802 537.113 106.802 530.007 Q106.802 522.877 104.973 519.336 Q103.168 515.771 99.5335 515.771 M99.5335 512.067 Q105.344 512.067 108.399 516.674 Q111.478 521.257 111.478 530.007 Q111.478 538.734 108.399 543.34 Q105.344 547.924 99.5335 547.924 Q93.7234 547.924 90.6447 543.34 Q87.5892 538.734 87.5892 530.007 Q87.5892 521.257 90.6447 516.674 Q93.7234 512.067 99.5335 512.067 Z" fill="#000000" fill-rule="nonzero" fill-opacity="1" /><path clip-path="url(#clip720)" d="M91.5706 173.438 L99.2095 173.438 L99.2095 147.072 L90.8993 148.739 L90.8993 144.479 L99.1632 142.813 L103.839 142.813 L103.839 173.438 L111.478 173.438 L111.478 177.373 L91.5706 177.373 L91.5706 173.438 Z" fill="#000000" fill-rule="nonzero" fill-opacity="1" /><polyline clip-path="url(#clip721)" style="stroke:#009af9; stroke-linecap:round; stroke-linejoin:round; stroke-width:4; stroke-opacity:1; fill:none" points="147.478,529.972 149.685,534.271 151.893,538.513 154.1,542.699 156.308,546.83 158.515,550.905 160.723,554.927 162.93,558.895 165.138,562.811 167.345,566.675 169.553,570.487 171.76,574.249 173.968,577.961 176.175,581.624 178.383,585.238 180.59,588.805 182.798,592.324 185.005,595.796 187.213,599.223 189.42,602.604 191.628,605.94 193.835,609.232 196.043,612.48 198.25,615.685 200.458,618.848 202.665,621.969 204.873,625.048 207.08,628.087 209.288,631.085 211.495,634.044 213.702,636.963 215.91,639.844 218.117,642.686 220.325,645.491 222.532,648.258 224.74,650.989 226.947,653.684 229.155,656.343 231.362,658.966 233.57,661.555 235.777,664.11 237.985,666.631 240.192,669.118 242.4,671.572 244.607,673.994 246.815,676.384 249.022,678.742 251.23,681.068 253.437,683.364 255.645,685.63 257.852,687.865 260.06,690.071 262.267,692.247 264.475,694.395 266.682,696.514 268.89,698.605 271.097,700.669 273.305,702.705 275.512,704.714 277.72,706.696 279.927,708.652 282.135,710.582 284.342,712.487 286.549,714.366 288.757,716.221 290.964,718.051 293.172,719.856 295.379,721.638 297.587,723.396 299.794,725.131 302.002,726.842 304.209,728.531 306.417,730.198 308.624,731.842 310.832,733.465 313.039,735.066 315.247,736.646 317.454,738.205 319.662,739.743 321.869,741.261 324.077,742.759 326.284,744.237 328.492,745.696 330.699,747.135 332.907,748.555 335.114,749.956 337.322,751.338 339.529,752.702 341.737,754.049 343.944,755.377 346.152,756.688 348.359,757.981 350.567,759.257 352.774,760.516 354.982,761.759 357.189,762.985 359.397,764.195 361.604,765.389 363.811,766.567 366.019,767.595 368.226,767.452 370.434,766.047 372.641,763.529 374.849,760.036 377.056,755.699 379.264,750.642 381.471,744.983 383.679,738.829 385.886,732.281 388.094,725.434 390.301,718.372 392.509,711.175 394.716,703.913 396.924,696.649 399.131,689.439 401.339,682.33 403.546,675.363 405.754,668.571 407.961,661.979 410.169,655.604 412.376,649.456 414.584,643.538 416.791,637.843 418.999,632.361 421.206,627.069 423.414,621.94 425.621,616.938 427.829,612.02 430.036,607.135 432.244,602.225 434.451,597.235 436.659,592.27 438.866,587.371 441.073,582.537 443.281,577.767 445.488,573.06 447.696,568.415 449.903,563.832 452.111,559.31 454.318,554.848 456.526,550.445 458.733,546.1 460.941,541.813 463.148,537.583 465.356,533.409 467.563,529.29 469.771,525.226 471.978,521.215 474.186,517.258 476.393,513.353 478.601,509.5 480.808,505.698 483.016,501.946 485.223,498.245 487.431,494.592 489.638,490.988 491.846,487.431 494.053,483.922 496.261,480.459 498.468,477.042 500.676,473.671 502.883,470.344 505.091,467.062 507.298,463.823 509.506,460.627 511.713,457.473 513.921,454.361 516.128,451.291 518.335,448.261 520.543,445.271 522.75,442.321 524.958,439.41 527.165,436.538 529.373,433.704 531.58,430.907 533.788,428.147 535.995,425.424 538.203,422.737 540.41,420.086 542.618,417.465 544.825,414.852 547.033,412.251 549.24,409.67 551.448,407.117 553.655,404.598 555.863,402.119 558.07,399.687 560.278,397.305 562.485,394.978 564.693,392.709 566.9,390.501 569.108,388.355 571.315,386.273 573.523,384.255 575.73,382.3 577.938,380.409 580.145,378.579 582.353,376.808 584.56,375.093 586.768,373.43 588.975,371.814 591.182,370.241 593.39,368.704 595.597,367.197 597.805,365.712 600.012,364.242 602.22,362.778 604.427,361.319 606.635,359.878 608.842,358.457 611.05,357.055 613.257,355.672 615.465,354.306 617.672,352.959 619.88,351.63 622.087,350.318 624.295,349.024 626.502,347.747 628.71,346.487 630.917,345.243 633.125,344.016 635.332,342.806 637.54,341.611 639.747,340.432 641.955,339.269 644.162,338.121 646.37,336.989 648.577,335.871 650.785,334.769 652.992,333.681 655.2,332.607 657.407,331.547 659.615,330.502 661.822,329.47 664.03,328.452 666.237,327.447 668.444,326.456 670.652,325.477 672.859,324.512 675.067,323.56 677.274,322.62 679.482,321.692 681.689,320.777 683.897,319.874 686.104,318.984 688.312,318.105 690.519,317.237 692.727,316.381 694.934,315.537 697.142,314.704 699.349,313.881 701.557,313.07 703.764,312.27 705.972,311.48 708.179,310.701 710.387,309.932 712.594,309.173 714.802,308.424 717.009,307.686 719.217,306.957 721.424,306.238 723.632,305.528 725.839,304.828 728.047,304.137 730.254,303.456 732.462,302.783 734.669,302.119 736.877,301.464 739.084,300.818 741.292,300.18 743.499,299.551 745.706,298.93 747.914,298.318 750.121,297.713 752.329,297.116 754.536,296.528 756.744,295.947 758.951,295.374 761.159,294.808 763.366,294.25 765.574,293.699 767.781,293.155 769.989,292.619 772.196,292.09 774.404,291.567 776.611,291.052 778.819,290.543 781.026,290.042 783.234,289.547 785.441,289.058 787.649,288.576 789.856,288.1 792.064,287.631 794.271,287.168 796.479,286.711 798.686,286.26 800.894,285.815 803.101,285.376 805.309,284.943 807.516,285.521 809.724,288.889 811.931,294.723 814.139,302.664 816.346,312.377 818.553,323.549 820.761,335.892 822.968,349.14 825.176,363.05 827.383,377.404 829.591,392.006 831.798,406.682 834.006,421.283 836.213,435.682 838.421,449.778 840.628,463.489 842.836,476.759 845.043,489.554 847.251,501.865 849.458,513.705 851.666,525.109 853.873,536.137 856.081,546.872 858.288,557.42 860.496,567.91 862.703,578.494 864.911,589.171 867.118,599.712 869.326,610.113 871.533,620.377 873.741,630.504 875.948,640.497 878.156,650.358 880.363,660.087 882.571,669.688 884.778,679.162 886.986,688.51 889.193,697.733 891.401,706.835 893.608,715.816 895.815,724.678 898.023,733.423 900.23,742.052 902.438,750.566 904.645,758.968 906.853,767.258 909.06,775.438 911.268,783.51 913.475,791.475 915.683,799.334 917.89,807.089 920.098,814.741 922.305,822.291 924.513,829.741 926.72,837.093 928.928,844.347 931.135,851.505 933.343,858.568 935.55,865.537 937.758,872.413 939.965,879.199 942.173,885.894 944.38,892.501 946.588,899.02 948.795,905.453 951.003,911.801 953.21,918.064 955.418,924.244 957.625,930.343 959.833,936.36 962.04,942.298 964.248,948.158 966.455,953.939 968.663,959.644 970.87,965.273 973.077,970.828 975.285,976.309 977.492,981.717 979.7,987.054 981.907,992.32 984.115,997.516 986.322,1002.64 988.53,1007.7 990.737,1012.69 992.945,1017.62 995.152,1022.48 997.36,1027.28 999.567,1032.01 1001.77,1036.68 1003.98,1041.29 1006.19,1045.83 1008.4,1050.32 1010.6,1054.75 1012.81,1059.12 1015.02,1063.43 1017.23,1067.76 1019.43,1074.04 1021.64,1080.26 1023.85,1083.67 1026.06,1082.75 1028.26,1077.22 1030.47,1068.06 1032.68,1057.45 1034.89,1047.82 1037.09,1038.42 1039.3,1029.14 1041.51,1019.99 1043.72,1010.96 1045.92,1002.04 1048.13,993.249 1050.34,984.571 1052.55,976.009 1054.75,967.56 1056.96,959.223 1059.17,950.996 1061.38,942.879 1063.58,934.869 1065.79,926.966 1068,919.167 1070.21,911.472 1072.41,903.879 1074.62,896.387 1076.83,888.994 1079.04,881.699 1081.24,874.5 1083.45,867.397 1085.66,860.389 1087.87,853.473 1090.07,846.649 1092.28,839.915 1094.49,833.271 1096.7,826.715 1098.9,820.245 1101.11,813.861 1103.32,807.562 1105.53,801.347 1107.73,795.214 1109.94,789.162 1112.15,783.19 1114.36,777.297 1116.56,771.483 1118.77,765.746 1120.98,760.085 1123.19,754.499 1125.39,748.986 1127.6,743.548 1129.81,738.181 1132.02,732.885 1134.22,727.66 1136.43,722.504 1138.64,717.416 1140.85,712.395 1143.05,707.442 1145.26,702.554 1147.47,697.73 1149.68,692.971 1151.88,688.275 1154.09,683.641 1156.3,679.068 1158.51,674.556 1160.71,670.104 1162.92,665.711 1165.13,661.376 1167.34,657.098 1169.54,652.877 1171.75,648.712 1173.96,644.603 1176.17,640.547 1178.37,636.546 1180.58,632.598 1182.79,628.702 1185,624.857 1187.2,621.064 1189.41,617.321 1191.62,613.628 1193.83,609.983 1196.03,606.387 1198.24,602.839 1200.45,599.338 1202.66,595.883 1204.86,592.474 1207.07,589.11 1209.28,585.791 1211.49,582.516 1213.69,579.284 1215.9,576.095 1218.11,572.949 1220.32,569.844 1222.52,566.78 1224.73,563.757 1226.94,560.774 1229.15,557.83 1231.35,554.926 1233.56,552.06 1235.77,549.231 1237.98,546.441 1240.18,543.687 1242.39,540.97 1244.6,538.289 1246.81,535.644 1249.01,533.033 1251.22,530.414 1253.43,527.648 1255.64,524.749 1257.84,521.748 1260.05,518.672 1262.26,515.545 1264.47,512.389 1266.67,509.223 1268.88,506.065 1271.09,502.93 1273.3,499.829 1275.5,496.772 1277.71,493.767 1279.92,490.82 1282.13,487.932 1284.33,485.103 1286.54,482.332 1288.75,479.614 1290.96,476.942 1293.16,474.306 1295.37,471.694 1297.58,469.099 1299.79,466.537 1301.99,464.01 1304.2,461.515 1306.41,459.054 1308.62,456.625 1310.82,454.229 1313.03,451.864 1315.24,449.531 1317.45,447.229 1319.65,444.957 1321.86,442.715 1324.07,440.503 1326.28,438.32 1328.48,436.167 1330.69,434.041 1332.9,431.944 1335.11,429.875 1337.31,427.833 1339.52,425.818 1341.73,423.83 1343.94,421.869 1346.14,419.933 1348.35,418.023 1350.56,416.138 1352.76,414.279 1354.97,412.444 1357.18,410.633 1359.39,408.846 1361.59,407.083 1363.8,405.344 1366.01,403.627 1368.22,401.934 1370.42,400.263 1372.63,398.613 1374.84,396.986 1377.05,395.381 1379.25,393.796 1381.46,392.233 1383.67,390.69 1385.88,389.168 1388.08,387.666 1390.29,386.184 1392.5,384.721 1394.71,383.278 1396.91,381.854 1399.12,380.449 1401.33,379.063 1403.54,377.695 1405.74,376.345 1407.95,375.013 1410.16,373.698 1412.37,372.401 1414.57,371.121 1416.78,369.859 1418.99,368.612 1421.2,367.383 1423.4,366.17 1425.61,364.973 1427.82,363.791 1430.03,362.626 1432.23,361.476 1434.44,360.341 1436.65,359.221 1438.86,358.116 1441.06,357.025 1443.27,355.949 1445.48,354.888 1447.69,353.84 1449.89,352.807 1452.1,351.787 1454.31,350.78 1456.52,349.787 1458.72,348.807 1460.93,347.84 1463.14,346.886 1465.35,345.945 1467.55,345.016 1469.76,344.099 1471.97,343.901 1474.18,345.6 1476.38,348.962 1478.59,353.733 1480.8,359.68 1483.01,366.584 1485.21,374.245 1487.42,382.48 1489.63,391.123 1491.84,400.024 1494.04,409.051 1496.25,418.09 1498.46,427.043 1500.67,435.829 1502.87,444.385 1505.08,452.665 1507.29,460.639 1509.5,468.295 1511.7,475.639 1513.91,482.692 1516.12,489.494 1518.33,496.101 1520.53,502.587 1522.74,509.042 1524.95,515.575 1527.16,522.162 1529.36,528.663 1531.57,535.077 1533.78,541.407 1535.99,547.653 1538.19,553.815 1540.4,559.897 1542.61,565.897 1544.82,571.818 1547.02,577.66 1549.23,583.425 1551.44,589.114 1553.65,594.727 1555.85,600.266 1558.06,605.731 1560.27,611.124 1562.48,616.445 1564.68,621.696 1566.89,626.877 1569.1,631.99 1571.31,637.035 1573.51,642.013 1575.72,646.925 1577.93,651.771 1580.14,656.554 1582.34,661.273 1584.55,665.93 1586.76,670.524 1588.97,675.058 1591.17,679.532 1593.38,683.946 1595.59,688.302 1597.8,692.6 1600,696.841 1602.21,701.026 1604.42,705.155 1606.63,709.23 1608.83,713.25 1611.04,717.218 1613.25,721.132 1615.46,724.995 1617.66,728.807 1619.87,732.568 1622.08,736.279 1624.29,739.941 1626.49,743.554 1628.7,747.12 1630.91,750.638 1633.12,754.11 1635.32,757.536 1637.53,760.916 1639.74,764.251 1641.95,767.542 1644.15,770.79 1646.36,773.994 1648.57,777.156 1650.78,780.276 1652.98,783.355 1655.19,786.393 1657.4,789.391 1659.61,792.349 1661.81,795.267 1664.02,798.147 1666.23,800.989 1668.44,803.793 1670.64,806.56 1672.85,809.29 1675.06,811.984 1677.27,814.643 1679.47,817.266 1681.68,819.854 1683.89,822.408 1686.1,824.928 1688.3,825.954 1690.51,824.36 1692.72,820.556 1694.93,814.924 1697.13,807.815 1699.34,799.55 1701.55,790.421 1703.76,780.689 1705.96,770.586 1708.17,760.315 1710.38,750.047 1712.59,739.924 1714.79,730.06 1717,720.536 1719.21,711.406 1721.42,702.692 1723.62,694.387 1725.83,686.455 1728.04,678.83 1730.25,671.413 1732.45,664.08 1734.66,656.674 1736.87,649.127 1739.07,641.664 1741.28,634.299 1743.49,627.033 1745.7,619.862 1747.9,612.786 1750.11,605.805 1752.32,598.916 1754.53,592.118 1756.73,585.41 1758.94,578.792 1761.15,572.261 1763.36,565.816 1765.56,559.457 1767.77,553.182 1769.98,546.991 1772.19,540.881 1774.39,534.852 1776.6,528.904 1778.81,523.034 1781.02,517.242 1783.22,511.527 1785.43,505.888 1787.64,500.323 1789.85,494.833 1792.05,489.415 1794.26,484.069 1796.47,478.794 1798.68,473.589 1800.88,468.453 1803.09,463.385 1805.3,458.384 1807.51,453.449 1809.71,448.58 1811.92,443.776 1814.13,439.035 1816.34,434.357 1818.54,429.741 1820.75,425.187 1822.96,420.692 1825.17,416.257 1827.37,411.881 1829.58,407.563 1831.79,403.302 1834,399.098 1836.2,394.949 1838.41,390.856 1840.62,386.816 1842.83,382.831 1845.03,378.898 1847.24,375.017 1849.45,371.188 1851.66,367.409 1853.86,363.681 1856.07,360.002 1858.28,356.371 1860.49,352.789 1862.69,349.255 1864.9,345.767 1867.11,342.325 1869.32,338.929 1871.52,335.579 1873.73,332.272 1875.94,329.01 1878.15,325.79 1880.35,322.614 1882.56,319.475 1884.77,316.35 1886.98,313.24 1889.18,310.15 1891.39,307.086 1893.6,304.055 1895.81,301.062 1898.01,298.11 1900.22,295.206 1902.43,292.352 1904.64,289.552 1906.84,286.81 1909.05,284.128 1911.26,281.509 1913.47,278.954 1915.67,276.466 1917.88,274.044 1920.09,271.691 1922.3,269.406 1924.5,267.19 1926.71,265.041 1928.92,262.959 1931.13,260.943 1933.33,258.991 1935.54,257.101 1937.75,255.271 1939.96,253.497 1942.16,251.777 1944.37,250.106 1946.58,248.48 1948.79,246.896 1950.99,245.347 1953.2,243.829 1955.41,242.337 1957.62,240.863 1959.82,239.401 1962.03,237.945 1964.24,236.488 1966.45,235.044 1968.65,233.62 1970.86,232.214 1973.07,230.827 1975.28,229.459 1977.48,228.109 1979.69,226.776 1981.9,225.461 1984.11,224.164 1986.31,222.884 1988.52,221.621 1990.73,220.374 1992.94,219.144 1995.14,217.931 1997.35,216.733 1999.56,215.551 2001.77,214.385 2003.97,213.235 2006.18,212.1 2008.39,210.979 2010.6,209.874 2012.8,208.783 2015.01,207.707 2017.22,206.645 2019.43,205.597 2021.63,204.563 2023.84,203.543 2026.05,202.536 2028.26,201.542 2030.46,200.562 2032.67,199.595 2034.88,198.64 2037.09,197.699 2039.29,196.769 2041.5,195.852 2043.71,194.948 2045.92,194.055 2048.12,193.174 2050.33,192.304 2052.54,191.447 2054.75,190.6 2056.95,189.765 2059.16,188.941 2061.37,188.128 2063.58,187.325 2065.78,186.534 2067.99,185.752 2070.2,184.981 2072.41,184.221 2074.61,183.47 2076.82,182.73 2079.03,181.999 2081.24,181.278 2083.44,180.566 2085.65,179.864 2087.86,179.171 2090.07,178.487 2092.27,177.813 2094.48,177.147 2096.69,176.49 2098.9,175.842 2101.1,175.203 2103.31,174.571 2105.52,173.949 2107.73,173.334 2109.93,172.728 2112.14,172.13 2114.35,171.54 2116.55,170.957 2118.76,170.382 2120.97,169.815 2123.18,169.256 2125.38,168.703 2127.59,168.551 2129.8,169.56 2132.01,171.627 2134.21,174.627 2136.42,178.442 2138.63,182.958 2140.84,188.072 2143.04,193.684 2145.25,199.701 2147.46,206.038 2149.67,212.615 2151.87,219.358 2154.08,226.202 2156.29,233.087 2158.5,239.958 2160.7,246.769 2162.91,253.48 2165.12,260.055 2167.33,266.469 2169.53,272.699 2171.74,278.731 2173.95,284.557 2176.16,290.176 2178.36,295.592 2180.57,300.816 2182.78,305.868 2184.99,310.771 2187.19,315.555 2189.4,320.259 2191.61,324.927 2193.82,329.608 2196.02,334.354 2198.23,339.084 2200.44,343.751 2202.65,348.357 2204.85,352.901 2207.06,357.385 2209.27,361.809 2211.48,366.175 2213.68,370.483 2215.89,374.734 2218.1,378.928 2220.31,383.067 2222.51,387.151 2224.72,391.181 2226.93,395.158 2229.14,399.081 2231.34,402.953 2233.55,406.774 2235.76,410.544 2237.97,414.264 2240.17,417.935 2242.38,421.557 2244.59,425.131 2246.8,428.658 2249,432.138 2251.21,435.572 2253.42,438.96 2255.63,442.304 2257.83,445.603 2260.04,448.858 2262.25,452.07 2264.46,455.239 2266.66,458.366 2268.87,461.452 2271.08,464.497 2273.29,467.501 2275.49,470.466 2277.7,473.391 2279.91,476.277 2282.12,479.125 2284.32,481.935 2286.53,484.708 2288.74,487.444 2290.95,490.144 2293.15,492.808 2295.36,495.437 2297.57,498.031 2299.78,500.59 2301.98,503.116 2304.19,505.608 2306.4,508.067 2308.61,510.493 2310.81,512.888 2313.02,515.251 2315.23,517.582 2317.44,519.883 2319.64,522.153 2321.85,524.393 2324.06,526.603 2326.27,528.784 2328.47,530.936 2330.68,533.06 2332.89,535.155 2335.1,537.223 2337.3,539.263 2339.51,541.276 2341.72,543.263 2343.93,545.223 2346.13,547.157 2348.34,549.065 2350.55,550.949 2352.76,552.807 "/>
<polyline clip-path="url(#clip721)" style="stroke:#e26f46; stroke-linecap:round; stroke-linejoin:round; stroke-width:4; stroke-opacity:1; fill:none" points="147.478,854.237 149.685,854.237 151.893,854.237 154.1,854.237 156.308,854.237 158.515,854.237 160.723,854.237 162.93,854.237 165.138,854.237 167.345,854.237 169.553,854.237 171.76,854.237 173.968,854.237 176.175,854.237 178.383,854.237 180.59,854.237 182.798,854.237 185.005,854.237 187.213,854.237 189.42,854.237 191.628,854.237 193.835,854.237 196.043,854.237 198.25,854.237 200.458,854.237 202.665,854.237 204.873,854.237 207.08,854.237 209.288,854.237 211.495,854.237 213.702,854.237 215.91,854.237 218.117,854.237 220.325,854.237 222.532,854.237 224.74,854.237 226.947,854.237 229.155,854.237 231.362,854.237 233.57,854.237 235.777,854.237 237.985,854.237 240.192,854.237 242.4,854.237 244.607,854.237 246.815,854.237 249.022,854.237 251.23,854.237 253.437,854.237 255.645,854.237 257.852,854.237 260.06,854.237 262.267,854.237 264.475,854.237 266.682,854.237 268.89,854.237 271.097,854.237 273.305,854.237 275.512,854.237 277.72,854.237 279.927,854.237 282.135,854.237 284.342,854.237 286.549,854.237 288.757,854.237 290.964,854.237 293.172,854.237 295.379,854.237 297.587,854.237 299.794,854.237 302.002,854.237 304.209,854.237 306.417,854.237 308.624,854.237 310.832,854.237 313.039,854.237 315.247,854.237 317.454,854.237 319.662,854.237 321.869,854.237 324.077,854.237 326.284,854.237 328.492,854.237 330.699,854.237 332.907,854.237 335.114,854.237 337.322,854.237 339.529,854.237 341.737,854.237 343.944,854.237 346.152,854.237 348.359,854.237 350.567,854.237 352.774,854.237 354.982,854.237 357.189,854.237 359.397,854.237 361.604,854.237 363.811,854.237 366.019,854.237 368.226,222.747 370.434,222.747 372.641,222.747 374.849,222.747 377.056,222.747 379.264,222.747 381.471,222.747 383.679,222.747 385.886,222.747 388.094,222.747 390.301,222.747 392.509,222.747 394.716,222.747 396.924,222.747 399.131,222.747 401.339,222.747 403.546,222.747 405.754,222.747 407.961,222.747 410.169,222.747 412.376,222.747 414.584,222.747 416.791,222.747 418.999,222.747 421.206,222.747 423.414,222.747 425.621,222.747 427.829,222.747 430.036,222.747 432.244,222.747 434.451,222.747 436.659,222.747 438.866,222.747 441.073,222.747 443.281,222.747 445.488,222.747 447.696,222.747 449.903,222.747 452.111,222.747 454.318,222.747 456.526,222.747 458.733,222.747 460.941,222.747 463.148,222.747 465.356,222.747 467.563,222.747 469.771,222.747 471.978,222.747 474.186,222.747 476.393,222.747 478.601,222.747 480.808,222.747 483.016,222.747 485.223,222.747 487.431,222.747 489.638,222.747 491.846,222.747 494.053,222.747 496.261,222.747 498.468,222.747 500.676,222.747 502.883,222.747 505.091,222.747 507.298,222.747 509.506,222.747 511.713,222.747 513.921,222.747 516.128,222.747 518.335,222.747 520.543,222.747 522.75,222.747 524.958,222.747 527.165,222.747 529.373,222.747 531.58,222.747 533.788,222.747 535.995,222.747 538.203,222.747 540.41,222.747 542.618,222.747 544.825,222.747 547.033,222.747 549.24,222.747 551.448,222.747 553.655,222.747 555.863,222.747 558.07,222.747 560.278,222.747 562.485,222.747 564.693,222.747 566.9,222.747 569.108,222.747 571.315,222.747 573.523,222.747 575.73,222.747 577.938,222.747 580.145,222.747 582.353,222.747 584.56,222.747 586.768,222.747 588.975,252.698 591.182,252.698 593.39,252.698 595.597,252.698 597.805,252.698 600.012,252.698 602.22,252.698 604.427,252.698 606.635,252.698 608.842,252.698 611.05,252.698 613.257,252.698 615.465,252.698 617.672,252.698 619.88,252.698 622.087,252.698 624.295,252.698 626.502,252.698 628.71,252.698 630.917,252.698 633.125,252.698 635.332,252.698 637.54,252.698 639.747,252.698 641.955,252.698 644.162,252.698 646.37,252.698 648.577,252.698 650.785,252.698 652.992,252.698 655.2,252.698 657.407,252.698 659.615,252.698 661.822,252.698 664.03,252.698 666.237,252.698 668.444,252.698 670.652,252.698 672.859,252.698 675.067,252.698 677.274,252.698 679.482,252.698 681.689,252.698 683.897,252.698 686.104,252.698 688.312,252.698 690.519,252.698 692.727,252.698 694.934,252.698 697.142,252.698 699.349,252.698 701.557,252.698 703.764,252.698 705.972,252.698 708.179,252.698 710.387,252.698 712.594,252.698 714.802,252.698 717.009,252.698 719.217,252.698 721.424,252.698 723.632,252.698 725.839,252.698 728.047,252.698 730.254,252.698 732.462,252.698 734.669,252.698 736.877,252.698 739.084,252.698 741.292,252.698 743.499,252.698 745.706,252.698 747.914,252.698 750.121,252.698 752.329,252.698 754.536,252.698 756.744,252.698 758.951,252.698 761.159,252.698 763.366,252.698 765.574,252.698 767.781,252.698 769.989,252.698 772.196,252.698 774.404,252.698 776.611,252.698 778.819,252.698 781.026,252.698 783.234,252.698 785.441,252.698 787.649,252.698 789.856,252.698 792.064,252.698 794.271,252.698 796.479,252.698 798.686,252.698 800.894,252.698 803.101,252.698 805.309,252.698 807.516,252.698 809.724,1384.24 811.931,1384.24 814.139,1384.24 816.346,1384.24 818.553,1384.24 820.761,1384.24 822.968,1384.24 825.176,1384.24 827.383,1384.24 829.591,1384.24 831.798,1384.24 834.006,1384.24 836.213,1384.24 838.421,1384.24 840.628,1384.24 842.836,1384.24 845.043,1384.24 847.251,1384.24 849.458,1384.24 851.666,1384.24 853.873,1384.24 856.081,1384.24 858.288,1384.24 860.496,1384.24 862.703,1384.24 864.911,1384.24 867.118,1384.24 869.326,1384.24 871.533,1384.24 873.741,1384.24 875.948,1384.24 878.156,1384.24 880.363,1384.24 882.571,1384.24 884.778,1384.24 886.986,1384.24 889.193,1384.24 891.401,1384.24 893.608,1384.24 895.815,1384.24 898.023,1384.24 900.23,1384.24 902.438,1384.24 904.645,1384.24 906.853,1384.24 909.06,1384.24 911.268,1384.24 913.475,1384.24 915.683,1384.24 917.89,1384.24 920.098,1384.24 922.305,1384.24 924.513,1384.24 926.72,1384.24 928.928,1384.24 931.135,1384.24 933.343,1384.24 935.55,1384.24 937.758,1384.24 939.965,1384.24 942.173,1384.24 944.38,1384.24 946.588,1384.24 948.795,1384.24 951.003,1384.24 953.21,1384.24 955.418,1384.24 957.625,1384.24 959.833,1384.24 962.04,1384.24 964.248,1384.24 966.455,1384.24 968.663,1384.24 970.87,1384.24 973.077,1384.24 975.285,1384.24 977.492,1384.24 979.7,1384.24 981.907,1384.24 984.115,1384.24 986.322,1384.24 988.53,1384.24 990.737,1384.24 992.945,1384.24 995.152,1384.24 997.36,1384.24 999.567,1384.24 1001.77,1384.24 1003.98,1384.24 1006.19,1384.24 1008.4,1384.24 1010.6,1384.24 1012.81,1384.24 1015.02,1384.24 1017.23,1384.24 1019.43,1384.24 1021.64,1384.24 1023.85,1384.24 1026.06,1384.24 1028.26,1384.24 1030.47,338.748 1032.68,338.748 1034.89,338.748 1037.09,338.748 1039.3,338.748 1041.51,338.748 1043.72,338.748 1045.92,338.748 1048.13,338.748 1050.34,338.748 1052.55,338.748 1054.75,338.748 1056.96,338.748 1059.17,338.748 1061.38,338.748 1063.58,338.748 1065.79,338.748 1068,338.748 1070.21,338.748 1072.41,338.748 1074.62,338.748 1076.83,338.748 1079.04,338.748 1081.24,338.748 1083.45,338.748 1085.66,338.748 1087.87,338.748 1090.07,338.748 1092.28,338.748 1094.49,338.748 1096.7,338.748 1098.9,338.748 1101.11,338.748 1103.32,338.748 1105.53,338.748 1107.73,338.748 1109.94,338.748 1112.15,338.748 1114.36,338.748 1116.56,338.748 1118.77,338.748 1120.98,338.748 1123.19,338.748 1125.39,338.748 1127.6,338.748 1129.81,338.748 1132.02,338.748 1134.22,338.748 1136.43,338.748 1138.64,338.748 1140.85,338.748 1143.05,338.748 1145.26,338.748 1147.47,338.748 1149.68,338.748 1151.88,338.748 1154.09,338.748 1156.3,338.748 1158.51,338.748 1160.71,338.748 1162.92,338.748 1165.13,338.748 1167.34,338.748 1169.54,338.748 1171.75,338.748 1173.96,338.748 1176.17,338.748 1178.37,338.748 1180.58,338.748 1182.79,338.748 1185,338.748 1187.2,338.748 1189.41,338.748 1191.62,338.748 1193.83,338.748 1196.03,338.748 1198.24,338.748 1200.45,338.748 1202.66,338.748 1204.86,338.748 1207.07,338.748 1209.28,338.748 1211.49,338.748 1213.69,338.748 1215.9,338.748 1218.11,338.748 1220.32,338.748 1222.52,338.748 1224.73,338.748 1226.94,338.748 1229.15,338.748 1231.35,338.748 1233.56,338.748 1235.77,338.748 1237.98,338.748 1240.18,338.748 1242.39,338.748 1244.6,338.748 1246.81,338.748 1249.01,338.748 1251.22,275.873 1253.43,275.873 1255.64,275.873 1257.84,275.873 1260.05,275.873 1262.26,275.873 1264.47,275.873 1266.67,275.873 1268.88,275.873 1271.09,275.873 1273.3,275.873 1275.5,275.873 1277.71,275.873 1279.92,275.873 1282.13,275.873 1284.33,275.873 1286.54,275.873 1288.75,275.873 1290.96,275.873 1293.16,275.873 1295.37,275.873 1297.58,275.873 1299.79,275.873 1301.99,275.873 1304.2,275.873 1306.41,275.873 1308.62,275.873 1310.82,275.873 1313.03,275.873 1315.24,275.873 1317.45,275.873 1319.65,275.873 1321.86,275.873 1324.07,275.873 1326.28,275.873 1328.48,275.873 1330.69,275.873 1332.9,275.873 1335.11,275.873 1337.31,275.873 1339.52,275.873 1341.73,275.873 1343.94,275.873 1346.14,275.873 1348.35,275.873 1350.56,275.873 1352.76,275.873 1354.97,275.873 1357.18,275.873 1359.39,275.873 1361.59,275.873 1363.8,275.873 1366.01,275.873 1368.22,275.873 1370.42,275.873 1372.63,275.873 1374.84,275.873 1377.05,275.873 1379.25,275.873 1381.46,275.873 1383.67,275.873 1385.88,275.873 1388.08,275.873 1390.29,275.873 1392.5,275.873 1394.71,275.873 1396.91,275.873 1399.12,275.873 1401.33,275.873 1403.54,275.873 1405.74,275.873 1407.95,275.873 1410.16,275.873 1412.37,275.873 1414.57,275.873 1416.78,275.873 1418.99,275.873 1421.2,275.873 1423.4,275.873 1425.61,275.873 1427.82,275.873 1430.03,275.873 1432.23,275.873 1434.44,275.873 1436.65,275.873 1438.86,275.873 1441.06,275.873 1443.27,275.873 1445.48,275.873 1447.69,275.873 1449.89,275.873 1452.1,275.873 1454.31,275.873 1456.52,275.873 1458.72,275.873 1460.93,275.873 1463.14,275.873 1465.35,275.873 1467.55,275.873 1469.76,275.873 1471.97,1012.49 1474.18,1012.49 1476.38,1012.49 1478.59,1012.49 1480.8,1012.49 1483.01,1012.49 1485.21,1012.49 1487.42,1012.49 1489.63,1012.49 1491.84,1012.49 1494.04,1012.49 1496.25,1012.49 1498.46,1012.49 1500.67,1012.49 1502.87,1012.49 1505.08,1012.49 1507.29,1012.49 1509.5,1012.49 1511.7,1012.49 1513.91,1012.49 1516.12,1012.49 1518.33,1012.49 1520.53,1012.49 1522.74,1012.49 1524.95,1012.49 1527.16,1012.49 1529.36,1012.49 1531.57,1012.49 1533.78,1012.49 1535.99,1012.49 1538.19,1012.49 1540.4,1012.49 1542.61,1012.49 1544.82,1012.49 1547.02,1012.49 1549.23,1012.49 1551.44,1012.49 1553.65,1012.49 1555.85,1012.49 1558.06,1012.49 1560.27,1012.49 1562.48,1012.49 1564.68,1012.49 1566.89,1012.49 1569.1,1012.49 1571.31,1012.49 1573.51,1012.49 1575.72,1012.49 1577.93,1012.49 1580.14,1012.49 1582.34,1012.49 1584.55,1012.49 1586.76,1012.49 1588.97,1012.49 1591.17,1012.49 1593.38,1012.49 1595.59,1012.49 1597.8,1012.49 1600,1012.49 1602.21,1012.49 1604.42,1012.49 1606.63,1012.49 1608.83,1012.49 1611.04,1012.49 1613.25,1012.49 1615.46,1012.49 1617.66,1012.49 1619.87,1012.49 1622.08,1012.49 1624.29,1012.49 1626.49,1012.49 1628.7,1012.49 1630.91,1012.49 1633.12,1012.49 1635.32,1012.49 1637.53,1012.49 1639.74,1012.49 1641.95,1012.49 1644.15,1012.49 1646.36,1012.49 1648.57,1012.49 1650.78,1012.49 1652.98,1012.49 1655.19,1012.49 1657.4,1012.49 1659.61,1012.49 1661.81,1012.49 1664.02,1012.49 1666.23,1012.49 1668.44,1012.49 1670.64,1012.49 1672.85,1012.49 1675.06,1012.49 1677.27,1012.49 1679.47,1012.49 1681.68,1012.49 1683.89,1012.49 1686.1,1012.49 1688.3,1012.49 1690.51,1012.49 1692.72,86.1857 1694.93,86.1857 1697.13,86.1857 1699.34,86.1857 1701.55,86.1857 1703.76,86.1857 1705.96,86.1857 1708.17,86.1857 1710.38,86.1857 1712.59,86.1857 1714.79,86.1857 1717,86.1857 1719.21,86.1857 1721.42,86.1857 1723.62,86.1857 1725.83,86.1857 1728.04,86.1857 1730.25,86.1857 1732.45,86.1857 1734.66,86.1857 1736.87,86.1857 1739.07,86.1857 1741.28,86.1857 1743.49,86.1857 1745.7,86.1857 1747.9,86.1857 1750.11,86.1857 1752.32,86.1857 1754.53,86.1857 1756.73,86.1857 1758.94,86.1857 1761.15,86.1857 1763.36,86.1857 1765.56,86.1857 1767.77,86.1857 1769.98,86.1857 1772.19,86.1857 1774.39,86.1857 1776.6,86.1857 1778.81,86.1857 1781.02,86.1857 1783.22,86.1857 1785.43,86.1857 1787.64,86.1857 1789.85,86.1857 1792.05,86.1857 1794.26,86.1857 1796.47,86.1857 1798.68,86.1857 1800.88,86.1857 1803.09,86.1857 1805.3,86.1857 1807.51,86.1857 1809.71,86.1857 1811.92,86.1857 1814.13,86.1857 1816.34,86.1857 1818.54,86.1857 1820.75,86.1857 1822.96,86.1857 1825.17,86.1857 1827.37,86.1857 1829.58,86.1857 1831.79,86.1857 1834,86.1857 1836.2,86.1857 1838.41,86.1857 1840.62,86.1857 1842.83,86.1857 1845.03,86.1857 1847.24,86.1857 1849.45,86.1857 1851.66,86.1857 1853.86,86.1857 1856.07,86.1857 1858.28,86.1857 1860.49,86.1857 1862.69,86.1857 1864.9,86.1857 1867.11,86.1857 1869.32,86.1857 1871.52,86.1857 1873.73,86.1857 1875.94,86.1857 1878.15,86.1857 1880.35,86.1857 1882.56,86.1857 1884.77,86.1857 1886.98,86.1857 1889.18,86.1857 1891.39,86.1857 1893.6,86.1857 1895.81,86.1857 1898.01,86.1857 1900.22,86.1857 1902.43,86.1857 1904.64,86.1857 1906.84,86.1857 1909.05,86.1857 1911.26,86.1857 1913.47,127.605 1915.67,127.605 1917.88,127.605 1920.09,127.605 1922.3,127.605 1924.5,127.605 1926.71,127.605 1928.92,127.605 1931.13,127.605 1933.33,127.605 1935.54,127.605 1937.75,127.605 1939.96,127.605 1942.16,127.605 1944.37,127.605 1946.58,127.605 1948.79,127.605 1950.99,127.605 1953.2,127.605 1955.41,127.605 1957.62,127.605 1959.82,127.605 1962.03,127.605 1964.24,127.605 1966.45,127.605 1968.65,127.605 1970.86,127.605 1973.07,127.605 1975.28,127.605 1977.48,127.605 1979.69,127.605 1981.9,127.605 1984.11,127.605 1986.31,127.605 1988.52,127.605 1990.73,127.605 1992.94,127.605 1995.14,127.605 1997.35,127.605 1999.56,127.605 2001.77,127.605 2003.97,127.605 2006.18,127.605 2008.39,127.605 2010.6,127.605 2012.8,127.605 2015.01,127.605 2017.22,127.605 2019.43,127.605 2021.63,127.605 2023.84,127.605 2026.05,127.605 2028.26,127.605 2030.46,127.605 2032.67,127.605 2034.88,127.605 2037.09,127.605 2039.29,127.605 2041.5,127.605 2043.71,127.605 2045.92,127.605 2048.12,127.605 2050.33,127.605 2052.54,127.605 2054.75,127.605 2056.95,127.605 2059.16,127.605 2061.37,127.605 2063.58,127.605 2065.78,127.605 2067.99,127.605 2070.2,127.605 2072.41,127.605 2074.61,127.605 2076.82,127.605 2079.03,127.605 2081.24,127.605 2083.44,127.605 2085.65,127.605 2087.86,127.605 2090.07,127.605 2092.27,127.605 2094.48,127.605 2096.69,127.605 2098.9,127.605 2101.1,127.605 2103.31,127.605 2105.52,127.605 2107.73,127.605 2109.93,127.605 2112.14,127.605 2114.35,127.605 2116.55,127.605 2118.76,127.605 2120.97,127.605 2123.18,127.605 2125.38,127.605 2127.59,127.605 2129.8,127.605 2132.01,127.605 2134.21,691.109 2136.42,691.109 2138.63,691.109 2140.84,691.109 2143.04,691.109 2145.25,691.109 2147.46,691.109 2149.67,691.109 2151.87,691.109 2154.08,691.109 2156.29,691.109 2158.5,691.109 2160.7,691.109 2162.91,691.109 2165.12,691.109 2167.33,691.109 2169.53,691.109 2171.74,691.109 2173.95,691.109 2176.16,691.109 2178.36,691.109 2180.57,691.109 2182.78,691.109 2184.99,691.109 2187.19,691.109 2189.4,691.109 2191.61,691.109 2193.82,691.109 2196.02,691.109 2198.23,691.109 2200.44,691.109 2202.65,691.109 2204.85,691.109 2207.06,691.109 2209.27,691.109 2211.48,691.109 2213.68,691.109 2215.89,691.109 2218.1,691.109 2220.31,691.109 2222.51,691.109 2224.72,691.109 2226.93,691.109 2229.14,691.109 2231.34,691.109 2233.55,691.109 2235.76,691.109 2237.97,691.109 2240.17,691.109 2242.38,691.109 2244.59,691.109 2246.8,691.109 2249,691.109 2251.21,691.109 2253.42,691.109 2255.63,691.109 2257.83,691.109 2260.04,691.109 2262.25,691.109 2264.46,691.109 2266.66,691.109 2268.87,691.109 2271.08,691.109 2273.29,691.109 2275.49,691.109 2277.7,691.109 2279.91,691.109 2282.12,691.109 2284.32,691.109 2286.53,691.109 2288.74,691.109 2290.95,691.109 2293.15,691.109 2295.36,691.109 2297.57,691.109 2299.78,691.109 2301.98,691.109 2304.19,691.109 2306.4,691.109 2308.61,691.109 2310.81,691.109 2313.02,691.109 2315.23,691.109 2317.44,691.109 2319.64,691.109 2321.85,691.109 2324.06,691.109 2326.27,691.109 2328.47,691.109 2330.68,691.109 2332.89,691.109 2335.1,691.109 2337.3,691.109 2339.51,691.109 2341.72,691.109 2343.93,691.109 2346.13,691.109 2348.34,691.109 2350.55,691.109 2352.76,691.109 "/>
<path clip-path="url(#clip720)" d="M2033.58 1377.32 L2279.25 1377.32 L2279.25 1221.8 L2033.58 1221.8  Z" fill="#ffffff" fill-rule="evenodd" fill-opacity="1"/>
<polyline clip-path="url(#clip720)" style="stroke:#000000; stroke-linecap:round; stroke-linejoin:round; stroke-width:4; stroke-opacity:1; fill:none" points="2033.58,1377.32 2279.25,1377.32 2279.25,1221.8 2033.58,1221.8 2033.58,1377.32 "/>
<polyline clip-path="url(#clip720)" style="stroke:#009af9; stroke-linecap:round; stroke-linejoin:round; stroke-width:4; stroke-opacity:1; fill:none" points="2058.08,1273.64 2205.1,1273.64 "/>
<path clip-path="url(#clip720)" d="M2254.26 1264.99 L2244.88 1277.61 L2254.74 1290.92 L2249.72 1290.92 L2242.17 1280.73 L2234.63 1290.92 L2229.6 1290.92 L2239.67 1277.35 L2230.46 1264.99 L2235.48 1264.99 L2242.36 1274.23 L2249.23 1264.99 L2254.26 1264.99 Z" fill="#000000" fill-rule="nonzero" fill-opacity="1" /><polyline clip-path="url(#clip720)" style="stroke:#e26f46; stroke-linecap:round; stroke-linejoin:round; stroke-width:4; stroke-opacity:1; fill:none" points="2058.08,1325.48 2205.1,1325.48 "/>
<path clip-path="url(#clip720)" d="M2246.11 1306.74 L2246.11 1310.28 L2242.04 1310.28 Q2239.74 1310.28 2238.84 1311.2 Q2237.96 1312.13 2237.96 1314.54 L2237.96 1316.83 L2244.98 1316.83 L2244.98 1320.14 L2237.96 1320.14 L2237.96 1342.76 L2233.68 1342.76 L2233.68 1320.14 L2229.6 1320.14 L2229.6 1316.83 L2233.68 1316.83 L2233.68 1315.02 Q2233.68 1310.7 2235.69 1308.73 Q2237.71 1306.74 2242.08 1306.74 L2246.11 1306.74 Z" fill="#000000" fill-rule="nonzero" fill-opacity="1" /></svg>
