<?xml version="1.0" encoding="utf-8"?>
<svg xmlns="http://www.w3.org/2000/svg" xmlns:xlink="http://www.w3.org/1999/xlink" width="600" height="400" viewBox="0 0 2400 1600">
<defs>
  <clipPath id="clip400">
    <rect x="0" y="0" width="2400" height="1600"/>
  </clipPath>
</defs>
<path clip-path="url(#clip400)" d="M0 1600 L2400 1600 L2400 0 L0 0  Z" fill="#ffffff" fill-rule="evenodd" fill-opacity="1"/>
<defs>
  <clipPath id="clip401">
    <rect x="112" y="47" width="2242" height="1440"/>
  </clipPath>
</defs>
<path clip-path="url(#clip401)" d="M-576.328 2533.46 L-576.328 2258.74 L-276.324 2121.38 L243.297 2200.69 L243.297 2475.41 L-56.7065 2612.76 L-576.328 2533.46  Z" fill="#ffffff" fill-rule="evenodd" fill-opacity="1"/>
<polyline clip-path="url(#clip401)" style="stroke:#000000; stroke-linecap:round; stroke-linejoin:round; stroke-width:2; stroke-opacity:0.1; fill:none" points="705.333,1214.34 1120.79,854.543 1120.79,134.941 "/>
<polyline clip-path="url(#clip401)" style="stroke:#000000; stroke-linecap:round; stroke-linejoin:round; stroke-width:2; stroke-opacity:0.1; fill:none" points="835.238,1251.84 1250.7,892.043 1250.7,172.441 "/>
<polyline clip-path="url(#clip401)" style="stroke:#000000; stroke-linecap:round; stroke-linejoin:round; stroke-width:2; stroke-opacity:0.1; fill:none" points="965.143,1289.34 1380.61,929.544 1380.61,209.942 "/>
<polyline clip-path="url(#clip401)" style="stroke:#000000; stroke-linecap:round; stroke-linejoin:round; stroke-width:2; stroke-opacity:0.1; fill:none" points="1095.05,1326.85 1510.51,967.044 1510.51,247.442 "/>
<polyline clip-path="url(#clip401)" style="stroke:#000000; stroke-linecap:round; stroke-linejoin:round; stroke-width:2; stroke-opacity:0.1; fill:none" points="1224.95,1364.35 1640.42,1004.54 1640.42,284.943 "/>
<polyline clip-path="url(#clip401)" style="stroke:#000000; stroke-linecap:round; stroke-linejoin:round; stroke-width:2; stroke-opacity:0.1; fill:none" points="1354.86,1401.85 1770.32,1042.04 1770.32,322.443 "/>
<polyline clip-path="url(#clip401)" style="stroke:#000000; stroke-linecap:round; stroke-linejoin:round; stroke-width:2; stroke-opacity:0.1; fill:none" points="1447.54,1355.85 727.937,1148.12 727.937,428.518 "/>
<polyline clip-path="url(#clip401)" style="stroke:#000000; stroke-linecap:round; stroke-linejoin:round; stroke-width:2; stroke-opacity:0.1; fill:none" points="1526.84,1287.17 807.241,1079.44 807.241,359.839 "/>
<polyline clip-path="url(#clip401)" style="stroke:#000000; stroke-linecap:round; stroke-linejoin:round; stroke-width:2; stroke-opacity:0.1; fill:none" points="1606.15,1218.49 886.546,1010.76 886.546,291.159 "/>
<polyline clip-path="url(#clip401)" style="stroke:#000000; stroke-linecap:round; stroke-linejoin:round; stroke-width:2; stroke-opacity:0.1; fill:none" points="1685.45,1149.81 965.85,942.081 965.85,222.48 "/>
<polyline clip-path="url(#clip401)" style="stroke:#000000; stroke-linecap:round; stroke-linejoin:round; stroke-width:2; stroke-opacity:0.1; fill:none" points="1764.76,1081.13 1045.15,873.402 1045.15,153.8 "/>
<polyline clip-path="url(#clip401)" style="stroke:#000000; stroke-linecap:round; stroke-linejoin:round; stroke-width:2; stroke-opacity:0.1; fill:none" points="664.934,1197.77 1080.4,837.965 1800,1045.7 "/>
<polyline clip-path="url(#clip401)" style="stroke:#000000; stroke-linecap:round; stroke-linejoin:round; stroke-width:2; stroke-opacity:0.1; fill:none" points="664.934,1089.03 1080.4,729.233 1800,936.964 "/>
<polyline clip-path="url(#clip401)" style="stroke:#000000; stroke-linecap:round; stroke-linejoin:round; stroke-width:2; stroke-opacity:0.1; fill:none" points="664.934,980.301 1080.4,620.5 1800,828.231 "/>
<polyline clip-path="url(#clip401)" style="stroke:#000000; stroke-linecap:round; stroke-linejoin:round; stroke-width:2; stroke-opacity:0.1; fill:none" points="664.934,871.569 1080.4,511.768 1800,719.499 "/>
<polyline clip-path="url(#clip401)" style="stroke:#000000; stroke-linecap:round; stroke-linejoin:round; stroke-width:2; stroke-opacity:0.1; fill:none" points="664.934,762.836 1080.4,403.035 1800,610.767 "/>
<polyline clip-path="url(#clip401)" style="stroke:#000000; stroke-linecap:round; stroke-linejoin:round; stroke-width:2; stroke-opacity:0.1; fill:none" points="664.934,654.104 1080.4,294.303 1800,502.034 "/>
<polyline clip-path="url(#clip401)" style="stroke:#000000; stroke-linecap:round; stroke-linejoin:round; stroke-width:2; stroke-opacity:0.1; fill:none" points="664.934,545.372 1080.4,185.571 1800,393.302 "/>
<polyline clip-path="url(#clip400)" style="stroke:#000000; stroke-linecap:round; stroke-linejoin:round; stroke-width:4; stroke-opacity:1; fill:none" points="664.934,1202.68 1384.54,1410.41 "/>
<polyline clip-path="url(#clip400)" style="stroke:#000000; stroke-linecap:round; stroke-linejoin:round; stroke-width:4; stroke-opacity:1; fill:none" points="705.333,1214.34 710.318,1210.03 "/>
<polyline clip-path="url(#clip400)" style="stroke:#000000; stroke-linecap:round; stroke-linejoin:round; stroke-width:4; stroke-opacity:1; fill:none" points="835.238,1251.84 840.223,1247.53 "/>
<polyline clip-path="url(#clip400)" style="stroke:#000000; stroke-linecap:round; stroke-linejoin:round; stroke-width:4; stroke-opacity:1; fill:none" points="965.143,1289.34 970.129,1285.03 "/>
<polyline clip-path="url(#clip400)" style="stroke:#000000; stroke-linecap:round; stroke-linejoin:round; stroke-width:4; stroke-opacity:1; fill:none" points="1095.05,1326.85 1100.03,1322.53 "/>
<polyline clip-path="url(#clip400)" style="stroke:#000000; stroke-linecap:round; stroke-linejoin:round; stroke-width:4; stroke-opacity:1; fill:none" points="1224.95,1364.35 1229.94,1360.03 "/>
<polyline clip-path="url(#clip400)" style="stroke:#000000; stroke-linecap:round; stroke-linejoin:round; stroke-width:4; stroke-opacity:1; fill:none" points="1354.86,1401.85 1359.84,1397.53 "/>
<path clip-path="url(#clip400)" d="M644.807 1228.61 Q641.196 1228.61 639.367 1232.18 Q637.562 1235.72 637.562 1242.85 Q637.562 1249.96 639.367 1253.52 Q641.196 1257.06 644.807 1257.06 Q648.441 1257.06 650.247 1253.52 Q652.076 1249.96 652.076 1242.85 Q652.076 1235.72 650.247 1232.18 Q648.441 1228.61 644.807 1228.61 M644.807 1224.91 Q650.617 1224.91 653.673 1229.52 Q656.752 1234.1 656.752 1242.85 Q656.752 1251.58 653.673 1256.18 Q650.617 1260.77 644.807 1260.77 Q638.997 1260.77 635.918 1256.18 Q632.863 1251.58 632.863 1242.85 Q632.863 1234.1 635.918 1229.52 Q638.997 1224.91 644.807 1224.91 Z" fill="#000000" fill-rule="nonzero" fill-opacity="1" /><path clip-path="url(#clip400)" d="M664.969 1254.21 L669.853 1254.21 L669.853 1260.09 L664.969 1260.09 L664.969 1254.21 Z" fill="#000000" fill-rule="nonzero" fill-opacity="1" /><path clip-path="url(#clip400)" d="M680.085 1225.53 L698.441 1225.53 L698.441 1229.47 L684.367 1229.47 L684.367 1237.94 Q685.386 1237.59 686.404 1237.43 Q687.423 1237.25 688.441 1237.25 Q694.228 1237.25 697.608 1240.42 Q700.987 1243.59 700.987 1249.01 Q700.987 1254.58 697.515 1257.69 Q694.043 1260.77 687.724 1260.77 Q685.548 1260.77 683.279 1260.4 Q681.034 1260.02 678.626 1259.28 L678.626 1254.58 Q680.71 1255.72 682.932 1256.27 Q685.154 1256.83 687.631 1256.83 Q691.636 1256.83 693.974 1254.72 Q696.312 1252.62 696.312 1249.01 Q696.312 1245.4 693.974 1243.29 Q691.636 1241.18 687.631 1241.18 Q685.756 1241.18 683.881 1241.6 Q682.029 1242.02 680.085 1242.9 L680.085 1225.53 Z" fill="#000000" fill-rule="nonzero" fill-opacity="1" /><path clip-path="url(#clip400)" d="M764.527 1293.66 L772.166 1293.66 L772.166 1267.29 L763.856 1268.96 L763.856 1264.7 L772.12 1263.03 L776.796 1263.03 L776.796 1293.66 L784.435 1293.66 L784.435 1297.59 L764.527 1297.59 L764.527 1293.66 Z" fill="#000000" fill-rule="nonzero" fill-opacity="1" /><path clip-path="url(#clip400)" d="M793.879 1291.71 L798.763 1291.71 L798.763 1297.59 L793.879 1297.59 L793.879 1291.71 Z" fill="#000000" fill-rule="nonzero" fill-opacity="1" /><path clip-path="url(#clip400)" d="M818.948 1266.11 Q815.337 1266.11 813.509 1269.68 Q811.703 1273.22 811.703 1280.35 Q811.703 1287.46 813.509 1291.02 Q815.337 1294.56 818.948 1294.56 Q822.583 1294.56 824.388 1291.02 Q826.217 1287.46 826.217 1280.35 Q826.217 1273.22 824.388 1269.68 Q822.583 1266.11 818.948 1266.11 M818.948 1262.41 Q824.759 1262.41 827.814 1267.02 Q830.893 1271.6 830.893 1280.35 Q830.893 1289.08 827.814 1293.68 Q824.759 1298.27 818.948 1298.27 Q813.138 1298.27 810.06 1293.68 Q807.004 1289.08 807.004 1280.35 Q807.004 1271.6 810.06 1267.02 Q813.138 1262.41 818.948 1262.41 Z" fill="#000000" fill-rule="nonzero" fill-opacity="1" /><path clip-path="url(#clip400)" d="M895.428 1331.16 L903.067 1331.16 L903.067 1304.79 L894.757 1306.46 L894.757 1302.2 L903.021 1300.53 L907.696 1300.53 L907.696 1331.16 L915.335 1331.16 L915.335 1335.09 L895.428 1335.09 L895.428 1331.16 Z" fill="#000000" fill-rule="nonzero" fill-opacity="1" /><path clip-path="url(#clip400)" d="M924.78 1329.22 L929.664 1329.22 L929.664 1335.09 L924.78 1335.09 L924.78 1329.22 Z" fill="#000000" fill-rule="nonzero" fill-opacity="1" /><path clip-path="url(#clip400)" d="M939.895 1300.53 L958.252 1300.53 L958.252 1304.47 L944.178 1304.47 L944.178 1312.94 Q945.196 1312.6 946.215 1312.43 Q947.233 1312.25 948.252 1312.25 Q954.039 1312.25 957.418 1315.42 Q960.798 1318.59 960.798 1324.01 Q960.798 1329.59 957.326 1332.69 Q953.854 1335.77 947.534 1335.77 Q945.358 1335.77 943.09 1335.4 Q940.844 1335.03 938.437 1334.28 L938.437 1329.59 Q940.52 1330.72 942.743 1331.28 Q944.965 1331.83 947.442 1331.83 Q951.446 1331.83 953.784 1329.72 Q956.122 1327.62 956.122 1324.01 Q956.122 1320.4 953.784 1318.29 Q951.446 1316.18 947.442 1316.18 Q945.567 1316.18 943.692 1316.6 Q941.84 1317.02 939.895 1317.9 L939.895 1300.53 Z" fill="#000000" fill-rule="nonzero" fill-opacity="1" /><path clip-path="url(#clip400)" d="M1027.56 1368.66 L1043.87 1368.66 L1043.87 1372.6 L1021.93 1372.6 L1021.93 1368.66 Q1024.59 1365.91 1029.18 1361.28 Q1033.78 1356.62 1034.96 1355.28 Q1037.21 1352.76 1038.09 1351.02 Q1038.99 1349.26 1038.99 1347.57 Q1038.99 1344.82 1037.05 1343.08 Q1035.12 1341.35 1032.02 1341.35 Q1029.82 1341.35 1027.37 1342.11 Q1024.94 1342.87 1022.16 1344.42 L1022.16 1339.7 Q1024.99 1338.57 1027.44 1337.99 Q1029.89 1337.41 1031.93 1337.41 Q1037.3 1337.41 1040.5 1340.1 Q1043.69 1342.78 1043.69 1347.27 Q1043.69 1349.4 1042.88 1351.32 Q1042.09 1353.22 1039.99 1355.81 Q1039.41 1356.48 1036.31 1359.7 Q1033.2 1362.9 1027.56 1368.66 Z" fill="#000000" fill-rule="nonzero" fill-opacity="1" /><path clip-path="url(#clip400)" d="M1053.69 1366.72 L1058.57 1366.72 L1058.57 1372.6 L1053.69 1372.6 L1053.69 1366.72 Z" fill="#000000" fill-rule="nonzero" fill-opacity="1" /><path clip-path="url(#clip400)" d="M1078.76 1341.11 Q1075.15 1341.11 1073.32 1344.68 Q1071.51 1348.22 1071.51 1355.35 Q1071.51 1362.46 1073.32 1366.02 Q1075.15 1369.56 1078.76 1369.56 Q1082.39 1369.56 1084.2 1366.02 Q1086.03 1362.46 1086.03 1355.35 Q1086.03 1348.22 1084.2 1344.68 Q1082.39 1341.11 1078.76 1341.11 M1078.76 1337.41 Q1084.57 1337.41 1087.62 1342.02 Q1090.7 1346.6 1090.7 1355.35 Q1090.7 1364.08 1087.62 1368.68 Q1084.57 1373.27 1078.76 1373.27 Q1072.95 1373.27 1069.87 1368.68 Q1066.81 1364.08 1066.81 1355.35 Q1066.81 1346.6 1069.87 1342.02 Q1072.95 1337.41 1078.76 1337.41 Z" fill="#000000" fill-rule="nonzero" fill-opacity="1" /><path clip-path="url(#clip400)" d="M1158.46 1406.16 L1174.78 1406.16 L1174.78 1410.1 L1152.83 1410.1 L1152.83 1406.16 Q1155.49 1403.41 1160.08 1398.78 Q1164.68 1394.12 1165.86 1392.78 Q1168.11 1390.26 1168.99 1388.52 Q1169.89 1386.76 1169.89 1385.07 Q1169.89 1382.32 1167.95 1380.58 Q1166.03 1378.85 1162.92 1378.85 Q1160.72 1378.85 1158.27 1379.61 Q1155.84 1380.37 1153.06 1381.92 L1153.06 1377.2 Q1155.89 1376.07 1158.34 1375.49 Q1160.79 1374.91 1162.83 1374.91 Q1168.2 1374.91 1171.4 1377.6 Q1174.59 1380.28 1174.59 1384.77 Q1174.59 1386.9 1173.78 1388.82 Q1172.99 1390.72 1170.89 1393.31 Q1170.31 1393.98 1167.21 1397.2 Q1164.1 1400.4 1158.46 1406.16 Z" fill="#000000" fill-rule="nonzero" fill-opacity="1" /><path clip-path="url(#clip400)" d="M1184.59 1404.22 L1189.47 1404.22 L1189.47 1410.1 L1184.59 1410.1 L1184.59 1404.22 Z" fill="#000000" fill-rule="nonzero" fill-opacity="1" /><path clip-path="url(#clip400)" d="M1199.71 1375.54 L1218.06 1375.54 L1218.06 1379.47 L1203.99 1379.47 L1203.99 1387.94 Q1205.01 1387.6 1206.03 1387.43 Q1207.04 1387.25 1208.06 1387.25 Q1213.85 1387.25 1217.23 1390.42 Q1220.61 1393.59 1220.61 1399.01 Q1220.61 1404.59 1217.14 1407.69 Q1213.66 1410.77 1207.34 1410.77 Q1205.17 1410.77 1202.9 1410.4 Q1200.66 1410.03 1198.25 1409.29 L1198.25 1404.59 Q1200.33 1405.72 1202.55 1406.28 Q1204.78 1406.83 1207.25 1406.83 Q1211.26 1406.83 1213.59 1404.73 Q1215.93 1402.62 1215.93 1399.01 Q1215.93 1395.4 1213.59 1393.29 Q1211.26 1391.18 1207.25 1391.18 Q1205.38 1391.18 1203.5 1391.6 Q1201.65 1392.02 1199.71 1392.9 L1199.71 1375.54 Z" fill="#000000" fill-rule="nonzero" fill-opacity="1" /><path clip-path="url(#clip400)" d="M1297.5 1428.96 Q1300.86 1429.68 1302.74 1431.95 Q1304.63 1434.22 1304.63 1437.55 Q1304.63 1442.67 1301.12 1445.47 Q1297.6 1448.27 1291.12 1448.27 Q1288.94 1448.27 1286.63 1447.83 Q1284.33 1447.41 1281.88 1446.55 L1281.88 1442.04 Q1283.82 1443.17 1286.14 1443.75 Q1288.45 1444.33 1290.98 1444.33 Q1295.38 1444.33 1297.67 1442.6 Q1299.98 1440.86 1299.98 1437.55 Q1299.98 1434.49 1297.83 1432.78 Q1295.7 1431.05 1291.88 1431.05 L1287.85 1431.05 L1287.85 1427.2 L1292.07 1427.2 Q1295.51 1427.2 1297.34 1425.84 Q1299.17 1424.45 1299.17 1421.86 Q1299.17 1419.19 1297.27 1417.78 Q1295.4 1416.35 1291.88 1416.35 Q1289.96 1416.35 1287.76 1416.76 Q1285.56 1417.18 1282.92 1418.06 L1282.92 1413.89 Q1285.58 1413.15 1287.9 1412.78 Q1290.24 1412.41 1292.3 1412.41 Q1297.62 1412.41 1300.72 1414.84 Q1303.82 1417.25 1303.82 1421.37 Q1303.82 1424.24 1302.18 1426.23 Q1300.54 1428.2 1297.5 1428.96 Z" fill="#000000" fill-rule="nonzero" fill-opacity="1" /><path clip-path="url(#clip400)" d="M1313.5 1441.72 L1318.38 1441.72 L1318.38 1447.6 L1313.5 1447.6 L1313.5 1441.72 Z" fill="#000000" fill-rule="nonzero" fill-opacity="1" /><path clip-path="url(#clip400)" d="M1338.57 1416.11 Q1334.96 1416.11 1333.13 1419.68 Q1331.32 1423.22 1331.32 1430.35 Q1331.32 1437.46 1333.13 1441.02 Q1334.96 1444.56 1338.57 1444.56 Q1342.2 1444.56 1344.01 1441.02 Q1345.84 1437.46 1345.84 1430.35 Q1345.84 1423.22 1344.01 1419.68 Q1342.2 1416.11 1338.57 1416.11 M1338.57 1412.41 Q1344.38 1412.41 1347.44 1417.02 Q1350.51 1421.6 1350.51 1430.35 Q1350.51 1439.08 1347.44 1443.68 Q1344.38 1448.27 1338.57 1448.27 Q1332.76 1448.27 1329.68 1443.68 Q1326.63 1439.08 1326.63 1430.35 Q1326.63 1421.6 1329.68 1417.02 Q1332.76 1412.41 1338.57 1412.41 Z" fill="#000000" fill-rule="nonzero" fill-opacity="1" /><polyline clip-path="url(#clip400)" style="stroke:#000000; stroke-linecap:round; stroke-linejoin:round; stroke-width:4; stroke-opacity:1; fill:none" points="1384.54,1410.41 1800,1050.61 "/>
<polyline clip-path="url(#clip400)" style="stroke:#000000; stroke-linecap:round; stroke-linejoin:round; stroke-width:4; stroke-opacity:1; fill:none" points="1447.54,1355.85 1438.9,1353.36 "/>
<polyline clip-path="url(#clip400)" style="stroke:#000000; stroke-linecap:round; stroke-linejoin:round; stroke-width:4; stroke-opacity:1; fill:none" points="1526.84,1287.17 1518.21,1284.68 "/>
<polyline clip-path="url(#clip400)" style="stroke:#000000; stroke-linecap:round; stroke-linejoin:round; stroke-width:4; stroke-opacity:1; fill:none" points="1606.15,1218.49 1597.51,1216 "/>
<polyline clip-path="url(#clip400)" style="stroke:#000000; stroke-linecap:round; stroke-linejoin:round; stroke-width:4; stroke-opacity:1; fill:none" points="1685.45,1149.81 1676.82,1147.32 "/>
<polyline clip-path="url(#clip400)" style="stroke:#000000; stroke-linecap:round; stroke-linejoin:round; stroke-width:4; stroke-opacity:1; fill:none" points="1764.76,1081.13 1756.12,1078.64 "/>
<path clip-path="url(#clip400)" d="M1475.13 1368.83 L1463.32 1387.28 L1475.13 1387.28 L1475.13 1368.83 M1473.9 1364.76 L1479.78 1364.76 L1479.78 1387.28 L1484.71 1387.28 L1484.71 1391.17 L1479.78 1391.17 L1479.78 1399.32 L1475.13 1399.32 L1475.13 1391.17 L1459.53 1391.17 L1459.53 1386.66 L1473.9 1364.76 Z" fill="#000000" fill-rule="nonzero" fill-opacity="1" /><path clip-path="url(#clip400)" d="M1540.29 1296.08 L1558.65 1296.08 L1558.65 1300.01 L1544.57 1300.01 L1544.57 1308.48 Q1545.59 1308.14 1546.61 1307.98 Q1547.63 1307.79 1548.65 1307.79 Q1554.43 1307.79 1557.81 1310.96 Q1561.19 1314.13 1561.19 1319.55 Q1561.19 1325.13 1557.72 1328.23 Q1554.25 1331.31 1547.93 1331.31 Q1545.75 1331.31 1543.49 1330.94 Q1541.24 1330.57 1538.83 1329.83 L1538.83 1325.13 Q1540.92 1326.26 1543.14 1326.82 Q1545.36 1327.37 1547.84 1327.37 Q1551.84 1327.37 1554.18 1325.27 Q1556.52 1323.16 1556.52 1319.55 Q1556.52 1315.94 1554.18 1313.83 Q1551.84 1311.73 1547.84 1311.73 Q1545.96 1311.73 1544.09 1312.14 Q1542.24 1312.56 1540.29 1313.44 L1540.29 1296.08 Z" fill="#000000" fill-rule="nonzero" fill-opacity="1" /><path clip-path="url(#clip400)" d="M1630.47 1242.81 Q1627.33 1242.81 1625.47 1244.97 Q1623.65 1247.12 1623.65 1250.87 Q1623.65 1254.6 1625.47 1256.77 Q1627.33 1258.93 1630.47 1258.93 Q1633.62 1258.93 1635.45 1256.77 Q1637.3 1254.6 1637.3 1250.87 Q1637.3 1247.12 1635.45 1244.97 Q1633.62 1242.81 1630.47 1242.81 M1639.76 1228.16 L1639.76 1232.42 Q1638 1231.59 1636.19 1231.15 Q1634.41 1230.71 1632.65 1230.71 Q1628.02 1230.71 1625.57 1233.83 Q1623.14 1236.96 1622.79 1243.28 Q1624.16 1241.26 1626.22 1240.2 Q1628.28 1239.11 1630.75 1239.11 Q1635.96 1239.11 1638.97 1242.28 Q1642 1245.43 1642 1250.87 Q1642 1256.19 1638.85 1259.41 Q1635.71 1262.63 1630.47 1262.63 Q1624.48 1262.63 1621.31 1258.05 Q1618.14 1253.44 1618.14 1244.71 Q1618.14 1236.52 1622.03 1231.66 Q1625.91 1226.77 1632.47 1226.77 Q1634.22 1226.77 1636.01 1227.12 Q1637.81 1227.47 1639.76 1228.16 Z" fill="#000000" fill-rule="nonzero" fill-opacity="1" /><path clip-path="url(#clip400)" d="M1697.44 1158.72 L1719.66 1158.72 L1719.66 1160.71 L1707.12 1193.28 L1702.23 1193.28 L1714.04 1162.65 L1697.44 1162.65 L1697.44 1158.72 Z" fill="#000000" fill-rule="nonzero" fill-opacity="1" /><path clip-path="url(#clip400)" d="M1788.6 1108.19 Q1785.26 1108.19 1783.34 1109.97 Q1781.44 1111.75 1781.44 1114.88 Q1781.44 1118 1783.34 1119.78 Q1785.26 1121.57 1788.6 1121.57 Q1791.93 1121.57 1793.85 1119.78 Q1795.77 1117.98 1795.77 1114.88 Q1795.77 1111.75 1793.85 1109.97 Q1791.95 1108.19 1788.6 1108.19 M1783.92 1106.2 Q1780.91 1105.46 1779.22 1103.4 Q1777.56 1101.34 1777.56 1098.37 Q1777.56 1094.23 1780.5 1091.82 Q1783.46 1089.41 1788.6 1089.41 Q1793.76 1089.41 1796.7 1091.82 Q1799.64 1094.23 1799.64 1098.37 Q1799.64 1101.34 1797.95 1103.4 Q1796.28 1105.46 1793.3 1106.2 Q1796.68 1106.98 1798.55 1109.27 Q1800.45 1111.57 1800.45 1114.88 Q1800.45 1119.9 1797.37 1122.58 Q1794.31 1125.27 1788.6 1125.27 Q1782.88 1125.27 1779.8 1122.58 Q1776.75 1119.9 1776.75 1114.88 Q1776.75 1111.57 1778.64 1109.27 Q1780.54 1106.98 1783.92 1106.2 M1782.21 1098.81 Q1782.21 1101.5 1783.87 1103 Q1785.56 1104.51 1788.6 1104.51 Q1791.61 1104.51 1793.3 1103 Q1795.01 1101.5 1795.01 1098.81 Q1795.01 1096.13 1793.3 1094.62 Q1791.61 1093.12 1788.6 1093.12 Q1785.56 1093.12 1783.87 1094.62 Q1782.21 1096.13 1782.21 1098.81 Z" fill="#000000" fill-rule="nonzero" fill-opacity="1" /><polyline clip-path="url(#clip400)" style="stroke:#000000; stroke-linecap:round; stroke-linejoin:round; stroke-width:4; stroke-opacity:1; fill:none" points="664.934,1202.68 664.934,483.08 "/>
<polyline clip-path="url(#clip400)" style="stroke:#000000; stroke-linecap:round; stroke-linejoin:round; stroke-width:4; stroke-opacity:1; fill:none" points="664.934,1197.77 669.92,1193.45 "/>
<polyline clip-path="url(#clip400)" style="stroke:#000000; stroke-linecap:round; stroke-linejoin:round; stroke-width:4; stroke-opacity:1; fill:none" points="664.934,1089.03 669.92,1084.72 "/>
<polyline clip-path="url(#clip400)" style="stroke:#000000; stroke-linecap:round; stroke-linejoin:round; stroke-width:4; stroke-opacity:1; fill:none" points="664.934,980.301 669.92,975.984 "/>
<polyline clip-path="url(#clip400)" style="stroke:#000000; stroke-linecap:round; stroke-linejoin:round; stroke-width:4; stroke-opacity:1; fill:none" points="664.934,871.569 669.92,867.251 "/>
<polyline clip-path="url(#clip400)" style="stroke:#000000; stroke-linecap:round; stroke-linejoin:round; stroke-width:4; stroke-opacity:1; fill:none" points="664.934,762.836 669.92,758.519 "/>
<polyline clip-path="url(#clip400)" style="stroke:#000000; stroke-linecap:round; stroke-linejoin:round; stroke-width:4; stroke-opacity:1; fill:none" points="664.934,654.104 669.92,649.786 "/>
<polyline clip-path="url(#clip400)" style="stroke:#000000; stroke-linecap:round; stroke-linejoin:round; stroke-width:4; stroke-opacity:1; fill:none" points="664.934,545.372 669.92,541.054 "/>
<path clip-path="url(#clip400)" d="M629.005 1196.41 Q632.361 1197.13 634.236 1199.4 Q636.134 1201.67 636.134 1205 Q636.134 1210.12 632.616 1212.92 Q629.097 1215.72 622.616 1215.72 Q620.44 1215.72 618.125 1215.28 Q615.834 1214.86 613.38 1214 L613.38 1209.49 Q615.324 1210.62 617.639 1211.2 Q619.954 1211.78 622.477 1211.78 Q626.875 1211.78 629.167 1210.05 Q631.482 1208.31 631.482 1205 Q631.482 1201.94 629.329 1200.23 Q627.199 1198.5 623.38 1198.5 L619.352 1198.5 L619.352 1194.65 L623.565 1194.65 Q627.014 1194.65 628.843 1193.29 Q630.671 1191.9 630.671 1189.31 Q630.671 1186.64 628.773 1185.23 Q626.898 1183.8 623.38 1183.8 Q621.459 1183.8 619.26 1184.21 Q617.06 1184.63 614.422 1185.51 L614.422 1181.34 Q617.084 1180.6 619.398 1180.23 Q621.736 1179.86 623.797 1179.86 Q629.121 1179.86 632.222 1182.29 Q635.324 1184.7 635.324 1188.82 Q635.324 1191.69 633.681 1193.68 Q632.037 1195.65 629.005 1196.41 Z" fill="#000000" fill-rule="nonzero" fill-opacity="1" /><path clip-path="url(#clip400)" d="M626.551 1075.83 L614.746 1094.28 L626.551 1094.28 L626.551 1075.83 M625.324 1071.75 L631.204 1071.75 L631.204 1094.28 L636.134 1094.28 L636.134 1098.17 L631.204 1098.17 L631.204 1106.31 L626.551 1106.31 L626.551 1098.17 L610.949 1098.17 L610.949 1093.65 L625.324 1071.75 Z" fill="#000000" fill-rule="nonzero" fill-opacity="1" /><path clip-path="url(#clip400)" d="M615.232 963.021 L633.588 963.021 L633.588 966.956 L619.514 966.956 L619.514 975.429 Q620.533 975.081 621.551 974.919 Q622.57 974.734 623.588 974.734 Q629.375 974.734 632.755 977.905 Q636.134 981.077 636.134 986.493 Q636.134 992.072 632.662 995.174 Q629.19 998.252 622.871 998.252 Q620.695 998.252 618.426 997.882 Q616.181 997.512 613.773 996.771 L613.773 992.072 Q615.857 993.206 618.079 993.762 Q620.301 994.317 622.778 994.317 Q626.783 994.317 629.121 992.211 Q631.459 990.104 631.459 986.493 Q631.459 982.882 629.121 980.776 Q626.783 978.669 622.778 978.669 Q620.903 978.669 619.028 979.086 Q617.176 979.503 615.232 980.382 L615.232 963.021 Z" fill="#000000" fill-rule="nonzero" fill-opacity="1" /><path clip-path="url(#clip400)" d="M624.607 869.705 Q621.459 869.705 619.607 871.858 Q617.778 874.011 617.778 877.761 Q617.778 881.488 619.607 883.664 Q621.459 885.816 624.607 885.816 Q627.755 885.816 629.584 883.664 Q631.435 881.488 631.435 877.761 Q631.435 874.011 629.584 871.858 Q627.755 869.705 624.607 869.705 M633.889 855.053 L633.889 859.312 Q632.13 858.479 630.324 858.039 Q628.542 857.599 626.783 857.599 Q622.153 857.599 619.699 860.724 Q617.269 863.849 616.922 870.168 Q618.287 868.154 620.347 867.09 Q622.408 866.002 624.884 866.002 Q630.093 866.002 633.102 869.173 Q636.134 872.321 636.134 877.761 Q636.134 883.085 632.986 886.302 Q629.838 889.52 624.607 889.52 Q618.611 889.52 615.44 884.937 Q612.269 880.33 612.269 871.603 Q612.269 863.409 616.158 858.548 Q620.047 853.664 626.597 853.664 Q628.357 853.664 630.139 854.011 Q631.945 854.358 633.889 855.053 Z" fill="#000000" fill-rule="nonzero" fill-opacity="1" /><path clip-path="url(#clip400)" d="M613.912 745.556 L636.134 745.556 L636.134 747.547 L623.588 780.116 L618.704 780.116 L630.509 749.492 L613.912 749.492 L613.912 745.556 Z" fill="#000000" fill-rule="nonzero" fill-opacity="1" /><path clip-path="url(#clip400)" d="M624.283 654.972 Q620.949 654.972 619.028 656.754 Q617.13 658.537 617.13 661.662 Q617.13 664.787 619.028 666.569 Q620.949 668.352 624.283 668.352 Q627.616 668.352 629.537 666.569 Q631.459 664.764 631.459 661.662 Q631.459 658.537 629.537 656.754 Q627.639 654.972 624.283 654.972 M619.607 652.981 Q616.597 652.241 614.908 650.18 Q613.241 648.12 613.241 645.157 Q613.241 641.014 616.181 638.606 Q619.144 636.199 624.283 636.199 Q629.445 636.199 632.384 638.606 Q635.324 641.014 635.324 645.157 Q635.324 648.12 633.634 650.18 Q631.968 652.241 628.982 652.981 Q632.361 653.768 634.236 656.06 Q636.134 658.352 636.134 661.662 Q636.134 666.685 633.056 669.37 Q630 672.055 624.283 672.055 Q618.565 672.055 615.486 669.37 Q612.431 666.685 612.431 661.662 Q612.431 658.352 614.329 656.06 Q616.227 653.768 619.607 652.981 M617.894 645.597 Q617.894 648.282 619.56 649.787 Q621.25 651.292 624.283 651.292 Q627.292 651.292 628.982 649.787 Q630.695 648.282 630.695 645.597 Q630.695 642.912 628.982 641.407 Q627.292 639.903 624.283 639.903 Q621.25 639.903 619.56 641.407 Q617.894 642.912 617.894 645.597 Z" fill="#000000" fill-rule="nonzero" fill-opacity="1" /><path clip-path="url(#clip400)" d="M614.514 561.934 L614.514 557.675 Q616.273 558.508 618.079 558.948 Q619.885 559.388 621.621 559.388 Q626.25 559.388 628.681 556.286 Q631.134 553.161 631.482 546.818 Q630.139 548.809 628.079 549.874 Q626.019 550.939 623.519 550.939 Q618.334 550.939 615.301 547.814 Q612.292 544.666 612.292 539.226 Q612.292 533.902 615.44 530.684 Q618.588 527.467 623.82 527.467 Q629.815 527.467 632.963 532.073 Q636.134 536.656 636.134 545.406 Q636.134 553.578 632.246 558.462 Q628.38 563.323 621.829 563.323 Q620.07 563.323 618.264 562.976 Q616.459 562.628 614.514 561.934 M623.82 547.281 Q626.968 547.281 628.796 545.129 Q630.648 542.976 630.648 539.226 Q630.648 535.499 628.796 533.346 Q626.968 531.17 623.82 531.17 Q620.672 531.17 618.82 533.346 Q616.991 535.499 616.991 539.226 Q616.991 542.976 618.82 545.129 Q620.672 547.281 623.82 547.281 Z" fill="#000000" fill-rule="nonzero" fill-opacity="1" /><polyline clip-path="url(#clip401)" style="stroke:#009af9; stroke-linecap:round; stroke-linejoin:round; stroke-width:4; stroke-opacity:1; fill:none" points="977.545,906.222 972.694,911.934 972.447,912.016 979.359,903.234 978.673,903.875 981.056,900.683 982.441,898.786 995.186,882.909 984.892,895.484 988.667,890.646 988.763,890.418 996.812,880.417 1004.56,871.005 1003.81,872.23 1006.25,869.429 1015.03,859.102 996.735,882.063 1002.67,874.83 988.31,892.173 995.279,883.028 1009.66,865.855 1029.28,843.134 1034.35,838.909 988.567,895.041 999.308,880.91 1004.37,874.991 1024.19,852.373 1032.64,844.335 998.896,887.274 994.206,889.308 991.614,892.853 1003.33,880.509 963.848,923.916 951.933,928.573 997.707,875.15 1051.49,817.914 965.351,918.404 978.406,899.754 966.275,912.155 929.456,943.332 965.73,904.081 891.399,982.367 870.971,1003.87 897.489,980.819 869.78,999.036 879.05,985.901 851.906,1013.42 868.889,996.436 809.102,1063.45 847.201,1019.12 879.199,990.031 931.109,930.968 955.862,906.196 1018.15,847.908 1043.35,834.602 1128.72,759.25 1055.38,835.67 1051.45,837.336 1036.77,843.99 1100.98,801.705 1021.26,875.25 925.636,974.457 952.157,937.586 896.067,982.244 799.227,1081.91 754.939,1124.55 747.948,1123.43 741.201,1129.7 769.468,1089.31 795.357,1060.24 762.99,1100.52 750.09,1116.91 808.325,1045 831.425,1026.92 779.31,1086.58 773.446,1091.79 764.767,1103.51 757.229,1106.33 757.51,1102.02 791.98,1062.13 752.942,1109.23 783.218,1070.79 789.025,1071.65 790.91,1066.69 819.269,1038.5 890.498,956.602 921.174,932.711 872.955,998.275 894.946,971.753 995.728,858.972 1021.12,853.901 1058.22,817.942 1120.73,760.521 1125.77,775.477 1076.71,833.456 997.738,905.757 1016.64,869.482 992.108,897.094 1004.92,870.109 1000.91,881.224 1007.23,873.85 1020.36,875.118 996.188,890.927 966.603,919.721 1057.33,834.083 1014.65,881.477 1008.53,862.137 1029.37,845.509 1105.44,778.314 1140.9,750.234 1168.48,752.02 1129.63,784.118 1093.6,818.998 1084.23,813.077 1077.33,818.369 1030.85,859.742 1077.85,804.69 1072,819.842 1062.44,830.374 1165.23,732.889 1292.51,619.194 1362.49,582.804 1383.17,582.319 1316.74,654.921 1307.26,664.7 1394.83,579.255 1346.18,630.857 1301.82,663.975 1312.71,650.973 1406.62,562.043 1372.26,602.083 1252.77,707.995 1263.35,679.989 1231.09,702.605 1201.25,722.363 1269.18,663.409 1334.02,636.738 1285.29,676.408 1217.46,733.244 1179.29,747.053 1150.26,777.076 1095.73,809.622 1122.25,782.47 1042.73,864.625 1016.09,879.476 1024.98,860.705 1032.96,845.326 1035.56,844.419 1097.28,781.779 1121.71,769.81 1161.48,741.688 1214.33,693.634 1152.36,761.741 1136.73,769.239 1141.04,767.28 1050.85,846.734 999.951,891.09 989.659,893.904 1007.82,873.936 999.501,886.698 992.466,885.588 1022.74,843.811 1088.1,803.638 1108.69,783.612 1103.76,794.006 1139.99,764.727 1240.08,692.129 1249.26,676.735 1304.46,655.725 1303.91,654.245 1295.3,656.894 1232.02,718.106 1269.73,665.92 1288.7,669.064 1215.58,737.995 1116.04,815.367 1024.61,888.376 1025.56,871.193 1056.36,838.18 1082.2,809.369 1074.07,825.037 1107.18,793.655 1118.86,777.543 1109.18,783.488 1036.08,839.439 1000.96,879.22 1018.03,856.22 1086.18,800.825 1215.94,677.112 1212.4,698.475 1157.42,750.268 997.554,890.514 1020.19,858.637 1059.5,825.567 1016.74,868.463 1040.14,842.197 990.211,893.661 941.109,944.251 927.184,958.472 895.568,979.354 960.556,895.774 1018.52,855.1 1048.42,833.363 1027.34,861.273 995.103,888.315 1088.19,793.905 1180.93,721.489 1153.48,758.154 1113.66,799.314 1131.66,776.782 1108,797.431 1176.07,741.034 1121.15,787.631 1065.25,834.536 1041.17,851.037 1170.62,729.99 1095.95,811.397 1033.54,864.943 980.39,905.049 967.332,911.295 1005.22,870.966 1021.45,868.534 991.793,908.075 943.514,936.546 933.142,942.862 948.462,914.566 960.424,907.5 988.363,885.783 1034.05,833.909 1028,858.952 1016.72,870.325 1041.87,849.047 1166.03,721.549 1199.31,715.004 1153.5,764.459 1145.87,774.257 1158.2,771.501 1196.39,731.265 1124.25,799.147 1081.04,827.235 1063.39,836.231 1029.79,860.392 1038.03,845.184 1032.94,855.967 1057.55,828.83 1031.64,859.63 1022.49,875.544 950.823,930.773 969.876,899.967 1095.56,766.104 1116.79,783.809 1220.81,683.81 1257.89,670.181 1197.92,733.659 1156,768.11 1176.36,733.928 1187.97,736.377 1130.29,787.799 1076.66,825.449 1135.85,751.89 1188.04,712.994 1215.64,699.402 1307.01,626.485 1348.9,615.049 1434.69,551.04 1502.64,501.403 1446.12,561.125 1351.94,633.351 1299.73,678.125 1215.78,735.891 1165.62,774.786 1186.63,740.973 1089.46,822.38 1098.33,802.298 1054.62,840.834 984.963,910.722 985.658,898.651 985.441,897.016 1045.4,832.261 1039.9,848.222 1023.64,871.173 1004.64,880.044 995.292,883.65 1027.11,848.737 1127.42,771.35 1126.19,782.443 1206.23,705.873 1262.92,660.111 1200.87,725.542 1235.14,706.741 1198.4,720.937 1299.56,634.895 1326.48,630.739 1446.97,547.494 1572.57,466.962 1633.98,446.659 1535.53,532.623 1506.4,530.923 1501.41,524.723 1506.72,516.828 1486.66,541.255 1373.12,632.602 1364.4,625.284 1334.91,646.053 1314.75,650.321 1291.93,665.848 1258.21,694.633 1219.61,733.214 1153.32,780.258 1148.27,773.745 1050,864.028 1028.47,871.815 1002.49,887.99 955.363,929.297 902.78,977.871 893.282,977.12 966.663,894.57 995.495,872.68 1039.98,833.23 1008.4,867.746 1004.73,877.673 986.224,898.413 1037.5,846.76 969.497,911.013 952.801,933.889 988.367,900.769 871.914,1008.4 856.487,1015.79 875.244,996.227 937.076,943.234 949.759,936.001 905.093,973.143 973.418,905.284 1059.9,822.042 1106.47,785.987 1128.36,765.78 1091.22,809.215 1017.37,871.912 1003.84,876.033 1119.04,786.48 1106.32,787.608 1172.86,720.331 1158.49,748.398 1144.47,772.237 1177.61,750.605 1166.42,759.154 1090.27,802.993 1077.73,814.597 1084.65,823.935 1088.78,812.973 1092.37,810.596 1080.68,823.86 1089.29,816.699 1087.75,823.719 1121.27,800.358 1248.11,663.061 1075.82,778.82 1184.32,698.424 1146.99,753.472 1196.2,717.12 1157.53,740.294 1080.85,801.585 1074.94,810.611 1046.37,833.199 1167.27,737.745 1319.27,603.207 1377.92,592.258 1354.84,615.046 1265.95,692.423 1239.45,701.134 1185.7,757.933 1107.17,820.29 1072.87,836.797 1098.65,804.332 1014.4,879.834 1025.55,859.509 1057.7,818.183 1050.54,827.783 1072.95,818.807 1090.41,805.103 1105.6,793.246 1128.78,772.384 1135.05,780.616 991.603,911.031 1029.49,857.047 1007.29,877.081 957.129,937.496 933.829,947.656 955.567,927.238 951.5,928.201 916.618,961.498 871.171,1010.8 898.816,968.717 980.739,891.087 1005.74,865.634 970.235,907.027 1050.62,839.781 1185.6,711.566 1377.46,550.715 1471.53,504.457 1498.68,504.71 1458.43,564.215 1444.3,576.075 1338.69,655.623 1241.1,727.996 1237.72,709.933 1186.42,751.836 1203.78,720.316 1260.12,659.525 1337.61,595.408 1265.86,674.655 1202.88,734.254 1215.47,707.018 1259.36,668.996 1258.06,682.926 1246.95,698.366 1245.85,704.2 1357.74,614.434 1261.73,698.604 1263.79,680.467 1221.83,717.07 1087.78,831.352 1058.97,841.77 1026.83,866.607 1054.05,841.081 991.323,884.449 943.398,932.85 885.36,993.808 844.593,1027.59 860.079,1002.51 940.917,907.621 950.712,908.816 951.729,916.806 972.153,899.153 1012.94,854.954 1057.17,815.997 1108.28,780.213 1082.77,807.918 1097.27,804.387 1095.63,802.167 1130.41,775.452 1216,695.61 1090.95,831.667 1049.32,853.132 1023.89,868.444 1028.99,863.929 993.479,895.767 1006.1,883.738 1034.38,850.311 1065.52,830.305 1096.83,815.71 1006.76,897.553 955.426,939.302 969.628,915.951 988.484,895.491 971.011,911.864 968.804,910.41 922.391,950.892 941.592,928.519 878.298,986.805 913.417,957.377 949.401,929.064 967.105,904.621 1035.02,852.266 1047.46,854.165 936.94,957.847 852.713,1039.52 911.466,963.285 944.617,937.669 905.346,963.82 945.016,932.793 867.769,1007.03 889.239,976.709 919.482,942.014 975.855,903.126 932.98,943.096 895.304,976.545 928.221,938.292 919.059,951.05 931.065,943.28 988.983,887.653 995.111,880.37 1032.85,844.088 1059.59,832.855 1091.65,806.521 1011.71,883.316 1015.6,873.571 1015.43,869.072 997.198,887.228 1066.44,788.957 1047.05,832.055 1091.48,791.999 1094.61,794.007 1050.69,840.348 1066.95,830.357 1064.99,824.68 964.119,925.053 1064.51,822.037 946.368,937.222 926.127,954.922 951.628,927.41 959.285,940.122 906.825,975.346 830.804,1044.69 858.111,1007.14 889.681,980.045 944.348,922.448 868.317,995.683 871.68,989.595 851.432,1014.63 849.662,1016.98 872.832,991.717 889.563,973.853 904.587,964.109 931.284,936.022 860.652,1004.07 811.166,1050.61 807.347,1054.69 841.237,1019.35 823.738,1042.63 812.103,1051.4 871.427,987.427 873.599,993.13 906.781,954.262 862.148,1009.58 985.994,875.903 1077.51,800.296 1060.06,824.681 1070.52,819.245 1051.06,838.026 955.381,927.894 971.598,913.55 990.84,880.264 995.594,886.211 975.839,899.454 1039.32,833.958 1064.14,832.211 1035.71,846.081 1148.18,734.442 1115.53,776.904 1092.87,802.606 1041.17,855.162 980.728,898.72 1009.03,864.461 1023.18,849.894 998.943,878.707 1026.3,856.706 1067.39,824.694 1011.38,881.705 1022.16,879.831 1020.91,862.084 1022.67,867.434 1091.9,822.034 1058.92,853.02 1062.71,832.92 1124.52,778.85 1133.44,775.405 1146.92,765.454 1227.23,722.169 1167,775.43 1124.52,799.835 1158.76,747.73 1131.34,780.337 1215.53,701.066 1305.14,626.656 1271.07,678.179 1290.3,657.669 1293.83,657.053 1410.25,581.807 1423.56,571.316 1502.04,526.721 1489.65,546.076 1576.69,480.479 1520.38,537.856 1508.37,531.592 1415.8,598.398 1426.66,575.092 1401.6,589.967 1291.25,682.775 1232.56,720.395 1207.09,731.912 1084.88,844.747 1090.88,817.159 1046.76,859.39 1019.61,874.142 1050.12,840.388 1047.9,839.229 1072.01,813.45 1106.78,786.771 1100.55,795.417 1150.85,746.551 1158.83,745.64 1204.83,710.761 1171.6,753.829 1118.02,789.68 1150.87,751.248 1170.73,734.12 1127.27,776.899 1114.94,786.437 1136.68,770.902 1076.72,825.701 1120.86,770.479 1125.79,772.841 1043.01,847.815 1087.08,796.479 1097.45,809.617 1066.82,828.778 1100.49,795.151 1127.22,788.011 1130.02,774.156 1145.56,760.262 1146.35,756.873 1123.57,779.832 1111.64,793.334 1166.37,768.989 1222.32,710.864 1195.62,738.385 1241.11,688.643 1235.59,691.182 1137.76,794.606 1125.38,788.605 1173.91,738.545 1173.76,754.4 1164.09,759.991 1160.18,751.65 1185.46,720.371 1125.86,787.292 1126.63,782.486 1172.64,734.283 1142.68,746.384 1052.14,839.101 1000.07,890.489 1051,838.039 1033.39,861.721 1035.29,855.188 1023.2,860.034 924.535,955.93 922.444,958.274 1012.98,878.616 1036.29,862.183 966.388,928.199 1031.73,859.676 1004.03,880.599 937.929,936.334 1099.61,776.259 1113.86,779.631 1197.6,692.431 1263.84,662.432 1211.31,725.208 1150.87,778.037 1132.99,784.418 1179.39,727.724 1146.33,762.288 1246.75,665.544 1135.68,770.962 1149.6,750.97 1084.08,817.975 1097.32,789.773 1125.69,775.789 1076.91,832.056 1036.81,857.039 1086.89,803.845 1068.13,825.199 942.554,948.205 947.336,932.747 964.852,910.935 981.81,891.909 979.83,890.93 1040.5,828.629 1067.11,811.987 1019.62,866.809 1032.88,850.402 1018.16,869.942 959.004,930.829 1058.45,823.512 1057.18,833.487 1189.24,708.43 1182.64,733.581 1248.95,676.29 1179.44,735.69 1258.91,678.299 1286.66,663.015 1117.91,814.365 1135.53,784.545 1072.35,838.398 1013.79,887.776 1045.97,855.362 1101.36,802.268 1068.22,833.369 1068.46,824.377 1014.49,871.518 1003.4,875.642 1014.32,889.93 1029.05,861.964 1194.87,697.933 1307.25,620.219 1323.56,629.59 1242.63,702.741 1081.39,845.928 1101.74,806.246 1063.7,838.475 1109.9,801.812 1039.98,859.713 1129.9,760.701 1109.62,783.891 1089.43,807.22 1085.26,807.599 1041.59,852.074 907.197,966.672 952.137,906.088 987.065,877.697 1001.23,871.379 1012.05,861.497 983.259,898.888 1032.5,845.503 1006.73,869.417 942.818,925.379 912.8,967.39 858.8,1012.36 799.284,1073.06 710.929,1167.42 701.013,1170.95 697.059,1178.01 737.043,1124.69 785.579,1071.72 850.733,996.715 933.268,921.561 879.68,986.465 895.633,975.435 879.816,990.783 869.729,995.777 904.73,964.556 1011.38,849.374 1021.34,854.1 1072.5,806.082 1133.42,766.464 1193.4,721.541 1160.8,765.831 1148.78,768.215 1076.99,825.572 1101.3,796.852 1143.2,758.14 1143.52,771.665 1124.3,780.81 1198.94,715.666 1207.85,725.515 1176.25,753.737 1209.86,719.148 1087.83,804.466 1037.65,847.166 1040.66,842.649 989.196,901.384 970.209,931.286 943.516,941.547 981.723,897.322 1034.99,851.763 1044.87,846.145 970.813,913.004 969.953,909.635 992.749,881.575 975.985,901.215 1064.83,807.991 1011.27,873.476 1108.11,765.974 1033.91,841.781 1030.56,852.915 1038.9,854.28 1025.05,858.268 1119.5,787.005 1086.96,816.533 1150.24,762.65 1250.94,679.778 1229.8,705.939 1269.76,676.039 1269.5,666.419 1344.91,597.579 1265.62,659.643 1212.62,700.962 1251.06,659.884 1253.51,682.364 1263.08,683.651 1288.52,670.1 1231.92,720.495 1264.56,670.736 1203.85,708.7 1198.9,717.837 1126.72,774.334 1167.86,720.275 1047.76,835.6 976.54,904.404 991.874,886.104 957.78,918.614 984.767,899.651 1020.76,851.587 849.895,1019.57 837.486,1024.08 849.187,1018.01 819.551,1056.34 892.161,983.801 923.527,946.077 894.546,973.708 942.773,927.781 1021.57,857.243 1004.8,887.984 1056.48,836.13 1105.14,795.39 1203.45,737.497 1191.9,743.831 1251.69,694.842 1213.33,718.621 1240.39,693.33 1390.63,592.51 1306.59,655.497 1405.37,575.928 1408.16,577.522 1381.52,613.173 1417.19,592.58 1497.13,526.43 1372.22,626.976 1342.42,638.888 1275.8,692.754 1247.95,704.239 1136.93,801.057 1106.1,816.812 1102.42,805.68 1131.71,769.792 1054.71,845.723 1021.15,876.083 1022.26,867.29 1050.33,843.935 1202.53,706.721 1171.39,744.734 1177.63,735.257 1183.52,746.42 1102.81,825.984 1081.56,825.927 1058.61,845.773 983.664,917.958 999.698,892.744 1027.61,854.1 1052.33,827.571 1123.35,761.612 1207.57,684.332 1243.37,674.129 1250.7,673.851 1225.8,703.205 1204.76,728.68 1231.53,697.359 1225.06,702.246 1182.54,730.122 1183.61,735.208 1100.37,808.219 1059.9,841.756 1049.63,847.307 993.007,896.344 932.17,951.092 866.69,1014.62 835.838,1040.3 881.388,976.113 817.573,1050.98 796.816,1069 789.721,1075.04 800.159,1066.31 854.384,992.776 858.761,994.923 830.073,1028.8 856.45,1006.96 889.252,985.509 863.466,1004.35 907.045,954.048 948.233,914.92 1020.18,848.953 950.178,930.012 942.363,931.002 893.531,981.686 863.876,1003.28 895.334,966.663 900.443,961 922.937,939.523 914.189,947.186 917.757,946.797 1008.96,859.075 1091.79,800.003 1164.89,746.704 1172.23,742.711 1100.04,813.712 1165.46,741.992 1106.89,782.505 1088.27,799.623 1056.59,834.704 1143.65,750.71 1265.16,663.7 1413.53,537.994 1468.7,524.636 1488.06,535.564 1333.48,659.265 1202.2,761.374 1193.59,750.053 1196.66,728.922 1190.14,731.254 1223.88,698.281 1199.5,729.563 1159.61,754.437 1151.72,757.933 1137.89,771.975 1176.99,735.2 1159.25,758.778 1175.66,746.774 1300.79,641.603 1344.23,619.436 1401.43,576.464 1381.27,602.02 1425.05,558.377 1404.3,583.464 1335.49,643.892 1254.88,694.095 1268.61,678.139 1230.07,714.156 1202.17,735.528 1169.34,755.807 1200.32,725.144 1213.4,713.117 1099.52,805.614 1120.2,785.718 1125.61,787.119 1065.04,835.566 1106.13,787.969 1178.79,724.124 1164.9,746.203 1211.76,701.603 1267.87,659.342 1288.32,650.667 1316.57,629.661 1282.36,675.624 1281.21,667.303 1290.09,660.575 1314.91,644.771 1286.78,668.29 1230.27,723.671 1126.33,800.778 1098.57,822.019 1132.98,773.109 1138.27,768.997 1284.04,649.975 1291.84,652.165 1292.38,655.53 1284.42,662.144 1332.64,618.971 1369.28,589.033 1407.85,567.747 1369.59,604.507 1311.3,649.366 1244.16,711.607 1160.24,777.947 1114.36,806.587 1104.14,808.402 1120.39,788.618 1140.09,761.444 1202.95,710.505 1192.36,727.175 1151.15,773.141 1134.58,781.792 1095.13,801.392 1085.6,817.422 1098.78,798.705 1166.36,740.587 1273.19,644.731 1278.27,653.606 1289.08,648.998 1282.95,655.533 1204.89,714.87 1137.23,778.746 1265.56,663.711 1267.22,673.839 1152.4,781.158 1099.14,813.715 1033.82,864.462 1051.31,841.553 1079.12,823.7 1073.66,831.267 1098.22,811.106 1283.74,655.125 1271.41,686.178 1312.54,643.155 1296.82,666.193 1331.85,625.507 1354.51,620.281 1387.51,597.931 1368.93,613.961 1295.94,666.196 1355.69,613.362 1215.27,720.661 1213.55,716.919 1239.85,690.837 1201.38,730.568 1322.8,611.022 1319.86,622.61 1153.5,773.401 1108.01,808.102 1063.85,838.902 1037.18,855.192 1014.98,874.324 975.759,904.354 929.717,953.901 910.606,960.497 981.471,887.335 1044.79,826.35 1107.48,771.202 1081.39,820.268 1138.73,762.476 1189.4,726.25 1203.56,716.14 1220.74,708.516 1270.36,673.462 1197.67,733.392 1174.88,752.504 1155.64,763.076 1122.46,783.92 1128.41,782.567 1161.06,752.07 1061.4,817.677 1020.71,869.323 1046.73,839.535 984.977,903.062 1029.22,853.782 1132.84,744.444 1114.72,777.613 1103.17,796.359 1064.89,828.016 1098.54,799.835 1118.4,807.539 1183.98,733.669 1138.64,789.383 1052.85,859.081 1011.86,883.064 1004.18,880.061 1002.11,888.408 966.993,923.299 967.791,915.83 1018.61,861.311 1020.48,862.561 1050.28,829.209 1099.05,786.788 1170.26,737.219 1139.01,777.245 1169.12,758.853 1152.12,775.009 1156.17,768.176 1017.14,887.162 981.553,910.485 931.322,950.451 934.997,939.531 923.184,950.45 1006.84,863.388 1109.12,779.97 1138.78,760.706 1118.8,788.282 1118.27,792.23 1150.46,764.194 1191,727.553 1174.21,731.9 1111.82,782.085 991.703,879.623 1023.07,864.973 1167.09,732.143 1177.11,720.626 1227.36,696.012 1125.8,797.516 1033.94,870.907 1013.47,877.368 1030.88,856.812 993.19,893.806 967.626,912.546 925.073,949.292 960.261,908.772 1008,858.966 1000.34,871.843 1102.61,778.431 1076.12,812.115 1160.44,749.316 1234.95,680.519 1209.14,724.869 1190.58,742.021 1178.52,751.549 1263.04,665.508 1259.33,687.502 1352.22,607.588 1473.95,518.582 1596.83,452.953 1473.28,564.68 1393.68,630.61 1329.69,662.769 1261.36,712.486 1220.03,733.254 1171.91,767.763 1144.01,782.736 1230.17,693.143 1261.91,675.339 1222.98,707.428 1191.64,735.529 1232.92,685.73 1354.07,588.919 1372.73,583.399 1388.27,588.8 1362.92,613.928 1369.06,611.147 1216.56,735.22 1146.46,782.998 1167.91,748.59 1114.63,799.24 1120.27,784.978 1197.88,718.412 1201.19,725.552 1165.8,746.11 1200.27,717.257 1081.85,826.309 1155.41,753.705 1169.53,740.453 1088.24,828.845 1050.04,857.393 1119.47,783.983 1027.91,862.412 1035.15,849.784 1069.06,818.172 1089.11,808.039 1036.82,860.745 1143.52,752.394 1266.82,655.231 1224.17,709.256 1211.42,729.39 1221.89,717.105 1099.7,824.047 1143.65,770.175 1142.52,772.234 1099.13,809.602 1134.98,773.079 1162.18,744.365 1222.64,689.116 1194.95,725.175 1230.17,685.649 1147.48,774.301 1174.2,745.495 1150.75,771.165 1069.1,845.972 1072.36,823.968 1127.79,763.451 1133.83,766.467 1101.9,795.439 1094.02,807.765 1106.55,784.569 1153.87,756.381 1203.16,717.802 1228.73,698.67 1282.48,644.686 1364.41,575.89 1381.41,583.806 1334.23,630.032 1300.32,662.868 1124.76,813.618 1134.09,785.087 1086.91,823.319 1048.66,855.12 1004.49,896.133 977.933,915.424 1000.64,878.188 1051.79,827.434 1062.48,823.442 1021.05,870.763 990.09,901.873 945.131,931.203 812.237,1060.2 795.983,1076.31 818.075,1043.84 798.65,1065.42 827.527,1034.19 883.475,974.465 887.724,975.302 926.579,928.193 964.099,897.055 929.829,943.884 935.008,927.892 1024.91,845.755 1088.84,791.985 1133.54,753.528 1200.28,714.604 1259.98,667.575 1372.4,565.555 1233.51,710.57 1258.31,687.726 1165.46,760.403 1139.32,779.072 1190,732.763 1125.57,794.064 1148.37,764.298 1172.53,740.057 1272.21,658.674 1194.98,735.651 1217,709.442 1187.22,734.827 1176.7,743.831 1241.99,694.944 1187.13,732.964 1202.5,717.335 1202.28,721.989 1182.95,744.172 1202.83,718.18 1199.83,717.623 1328.75,631.518 1251.06,688.617 1223.88,723.586 1226.05,730.726 1259.57,693.278 1330.93,651.081 1290.4,690.304 1087.78,870.268 1065.27,862.444 1040.85,871.044 1060.28,837.026 1076.97,808.511 1061.04,828.549 1075.1,809.859 1063.02,823.695 1033.38,855.934 1074.92,815.228 1112.61,789.533 1085.92,814.87 1140.26,762.108 1200.62,728.656 1145.64,776.978 1085.55,823.436 1100.26,795.609 1023.01,872.291 967.062,927.835 971.044,913.796 944.163,936.787 954.246,930.336 943.98,939.409 1070.81,804.516 1091.93,799.809 1121.57,786.761 1139.04,768.035 1139.2,781.197 1198.59,729.172 1309.36,641.155 1380.33,585.963 1401.68,601.975 1317.52,656.744 1386.61,589.737 1328.4,649.837 1393.72,575.104 1337.61,622.037 1254.92,702.169 1293.21,660.943 1250.54,691.674 1312.51,640.972 1300.78,647.431 1301.53,649.053 1169.99,744.707 1123.12,789.335 1048.54,851.916 973.344,917.159 961.026,922.266 963.605,905.593 873.112,1003.81 829.101,1044.17 796.233,1076.75 819.571,1045.99 803.323,1058.28 814,1044.81 772.933,1101.34 809.705,1046.04 836.776,1023.47 877.216,984.473 896.552,972.484 867.064,1001.95 850.243,1017.75 857.138,1010.78 882.974,986.118 873.069,997.789 877.47,991.327 799.26,1078.35 808.044,1061.56 863.986,997.083 854.433,1015.21 939.897,921.909 1032.54,846.918 1082.27,803.629 1024.75,865.881 979.74,912.969 977.598,916.558 987.205,905.334 983.141,913.178 977.704,899.732 955.428,911.231 1004.09,871.41 1061.96,821.141 1136.95,770.985 1199.14,722.881 1290.08,647.16 1479.07,505.212 1432.09,584.86 1529.86,497.678 1448.07,574.953 1394.51,601.541 1339.89,647.022 1371.45,605.955 1406.45,576.965 1410.27,590.538 1374.85,615.5 1345.52,632.209 1322.95,648.808 1371.55,605.644 1309.4,663.277 1317.69,639.682 1269.76,678.807 1211.49,719.819 1162.8,760.992 1128.62,779.355 1163.34,743.876 1157.74,744.709 1155.56,752.007 1078.16,822.265 1168.07,732.651 1183.32,717.917 1330.69,606.152 1306.59,653.275 1245.59,703.048 1235.93,700.206 1248.02,679.08 1273.97,682.324 1306.71,656.007 1199.33,753.631 1117.34,809.082 1211.67,709.644 1280.84,664.53 1230.77,712.504 1201.32,741.285 1215.39,719.69 1217.5,715.571 1296.05,650.011 1372.32,597.419 1318.14,646.943 1431.37,539.335 1422.2,570.34 1403.69,582.36 1395.75,584.632 1344.34,620.392 1306.43,655.292 1198.79,747.645 1191.87,734.896 1126.74,803.728 1165.16,744.705 1152.2,755.902 1147.6,759.779 1139.28,777.435 1116.65,788.869 1190.22,720.948 1169.13,726.681 1110.08,797.898 1192.5,734.523 1107.75,808.254 1229.81,680.354 1157.5,763.037 1124.04,795.579 1159.58,753.651 1145.88,773.016 1062.27,838.475 997.635,890.657 922.192,960.967 964.872,905.857 957.376,918.12 979.682,892.912 1035.1,838.631 1135.54,740.341 1149.34,752.368 1276.05,627.265 1230.34,685.081 1175.05,744.578 1096.51,813.215 1145.81,757.869 1017.51,878.656 998.768,892.383 1007.09,878.867 1025.64,856.997 1055.2,826.088 1054.74,836.579 1068.12,825.297 1090.62,806.377 1109.08,792.668 1160.29,728.654 1053.53,843.196 1035.41,850.098 1050.23,829.203 1067.48,828.86 1086.71,804.918 1054.97,843.123 1040.46,855.318 1040.15,861.899 1013.12,871.84 928.461,953.853 938.754,936.943 882.842,985.775 951.927,910.726 907.03,959.1 871.603,991.647 838.512,1021.89 801.855,1056.99 889.536,964.874 972.451,892.372 1033.26,836.836 1122.36,768.137 1144.97,758.092 1220.09,696.463 1187.57,729.868 1134.71,780.377 1178.13,726.155 1209.69,718.927 1202.62,725.699 1132.16,785.437 1096.2,812.784 1154.1,756.369 1162.3,746.228 1125.31,784.143 1201.72,708.767 1252.22,669.878 1311.57,628.173 1277.2,655.744 1315.57,655.214 1303.76,652.42 1301.4,654.256 1424.44,558.121 1405.71,586.867 1414.92,577.557 1401.77,596.425 1434.6,567.327 1497.4,514.17 1493.17,531.295 1427.7,586.365 1367.52,626.538 1342.73,633.684 1280.44,680.565 1266.79,682.125 1238.11,698.276 1225.89,709.134 1236.99,693.888 1297,641.269 1243.25,702.006 1329.48,623.018 1375.84,592.717 1471.38,531.32 1408.5,579.475 1240.47,726.902 1246.99,692.25 1169.71,762.208 1156.72,772.411 1118.18,793.579 1189.27,719.097 1172.56,745.619 1087.58,816.729 1047.38,850.613 1028.84,868.223 988.694,898.72 930.375,960.818 918.77,959.794 892.652,982.768 936.724,918.118 914.32,950.909 986.639,879.258 947.376,924.908 899.577,973.651 916.437,954.32 950.324,918.604 985.703,878.082 1016.82,856.546 1061.74,817.725 993.689,901.039 1015.35,881.526 1139.32,765.447 1151.16,757.658 1217,707.944 1203.29,723.835 1204.56,729.467 1203.45,732.945 1348.57,618.664 1336.8,646.993 1319.03,653.604 1278.88,678.599 1200.66,745.73 1289.24,652.696 1363.61,594.661 1340.82,626.857 1331.45,638.365 1252.91,709.875 1278.18,674.774 1335.77,642.318 1288.99,687.474 1317.96,637.992 1280.97,682.267 1158.61,778.803 1141.68,781.069 1112.08,800.958 1097.63,808.218 1067.81,833.372 1105.14,784.994 1221.58,693.274 1235.84,691.505 1164.77,763 1230.52,680.477 1320.52,624.152 1356.51,600.052 1394.35,573.987 1286.03,680.051 1291.68,676.25 1276.84,675.536 1206.28,734.301 1250.5,678.651 1208.23,717.719 1205.95,727.823 1114.1,806.571 1112.66,789.158 1143.67,769.48 1192.66,725.138 1218.22,699.535 1182.09,730.518 1132.1,763.726 1119.35,783.087 985.773,888.882 950.538,925.334 981.414,886.136 1001.92,863.814 1020.38,850.852 1056.43,817.714 1123.64,762.488 1122.82,780.823 1122.16,785.72 1107.01,793.891 1130.28,767.569 1269.02,644.123 1243.72,693.554 1260.42,683.016 1245.56,682.329 1306.04,630.158 1364.88,596.704 1451.04,537.847 1394.02,583.126 1282.34,684.443 1376.94,579.842 1327.88,631.449 1340.23,625.482 1470.37,520.311 1453.33,547.816 1444.62,556.559 1591.65,449.469 1637.01,449.838 1536.83,530.845 1590.08,467.067 1590.18,465.347 1512.15,530.45 1507.01,524.397 1406.01,601.064 1456.77,548.988 1526.55,485.969 1533.53,488.816 1542.72,488.254 1510.27,522.424 1471.76,552.359 1508.69,515.34 1471.21,544.863 1422.35,580.642 1314.45,670.528 1294.97,674.803 1310.21,649.472 1360.48,604.538 1309.39,656.898 1339.64,617.269 1218.37,725.199 1226.83,710.519 1261.72,671.99 1217.46,719.771 1268.29,668.439 1155.48,776.489 1099.01,820.424 1215.1,693.423 1177.7,740.874 1174.49,750.5 1142.52,782.615 1174.39,748.51 1177.47,752.772 1193.37,731.073 1388.83,571.803 1413.34,571.357 1384.11,605.365 1423.52,574.912 1382.39,602.148 1301.99,668.365 1275.82,681.5 1252.86,699.991 1248.79,679.465 1296.41,636.702 1262.78,683.003 1227.91,705.754 1134.29,790.628 1187.68,726.267 1194.39,728.162 1058.81,841.552 1011.94,880.129 1111.36,773.898 1119.89,783.853 1184.03,724.289 1183.48,727.907 1200.64,716.536 1161.38,746.133 1232.34,699.426 1221.25,708.998 1069.71,837.919 1024.2,876.069 999.348,891.597 1005.97,883.056 1056.66,831.523 1050.24,840.499 1121.45,772.824 1117.33,780.759 1215.51,703.644 1132.93,793.026 1123.04,805.842 1076.02,833.248 1069.18,838.992 996.384,903.898 1049.4,834.263 1055.67,833.706 1060.34,833.009 1085.68,808 1126.77,761.078 1151.26,757.382 1181.86,729.979 1191.52,726.429 1194.92,726.684 1139.16,779.092 1120.13,799.711 1106.48,796.378 1279.39,622.164 1286.66,643.011 1277.31,669.892 1236.51,707.215 1223.25,707.479 1340.42,592.117 1292.77,660.81 1330.03,618.15 1282.8,672.677 1197.48,744.128 1181.35,752.652 1255.16,671.036 1338.21,613.137 1295.08,663.818 1181.52,766.63 1202.53,729.498 1191.79,735.824 1244.51,682.818 1336.48,615.015 1314.81,646.71 1275.53,679.974 1228.91,713.24 1156.41,775.564 1265.03,660.408 1203.14,726.187 1208.62,721.317 1227.97,713.236 1278.37,673.049 1227.99,699.762 1219.2,710.791 1182.19,764.186 1140.2,775.373 1117.65,797.116 1153.29,758.468 1238.41,678.543 1294.12,632.816 1327.18,617.062 1309.29,642.469 1311.99,634.755 1177.68,761.922 1191.73,732.176 1072.71,845.901 1054.85,851.332 956.98,942.916 911.001,976.181 926.49,951.194 985.236,882.794 1048.9,828.738 1023.3,860.478 1030.43,850.592 1022.41,863.069 1064.75,818.656 1120.54,761.686 1175.83,721.107 1266.04,654.867 1219.81,711.412 1188.66,739.743 1230.74,688.137 1234.89,688.813 1013.64,878.103 1026.6,862.939 983.226,908.621 990.791,894.634 983.351,899.399 931.556,948.204 930.509,945.28 910.851,969.736 964.406,907.963 985.439,890.796 1024.47,872.044 1015.07,864.342 1099.84,789.159 1196.88,702.657 1207.83,716.006 1176.96,730.157 1285.71,637.103 1311.35,631.907 1319.43,649.708 1295.06,653.621 1266.8,673.265 1237.28,702.646 1297.55,654.901 1228.93,725.663 1188.7,756.122 1153.67,781.671 1021.71,895.255 988.396,911.836 1007.07,871.34 1010,864.342 1007.43,871.133 1128.39,755.931 1155.37,749.832 1213.87,691.881 1294.96,644.227 1236.61,703.055 1280.83,658.926 1304.76,652.517 1240.3,710.135 1223.89,717.26 1234.77,698.878 1243.67,696.463 1370.23,603.734 1283.61,684.381 1285.73,658.152 1316.86,641.873 1319.24,644.447 1303.92,661.218 1359.75,616.576 1323.69,648.967 1323.03,640.5 1340.31,625.799 1156.47,778.727 1146.58,778.655 1047.5,865.612 1015.61,883.983 1011.15,873.265 1014.58,866.746 968.764,914.098 1003.13,873.451 1069.51,799.18 1101.62,779.84 1118.04,781.899 1230.91,676.559 1312.84,627.804 1384.95,585.132 1329.99,633.503 1276.48,682.547 1171.1,776.897 1139.77,783.49 1149.19,767.258 1271.29,652.752 1298.14,640.267 1276.01,663.988 1309.61,635.34 1328.61,638.63 1200.93,736.352 1235.72,698.076 1199.62,735.459 1160.16,766.543 1159.93,771.948 1060.41,856.419 1017.44,888.926 1023.16,872.422 1006.35,879.431 1068.98,804.836 1043.52,848.37 1068.07,818.165 1077.56,808.633 1110.54,785.565 1125.99,774.891 1092.33,818.923 995.54,902.279 957.688,935.39 1000.25,879.55 1025.52,854.828 1000.59,878.732 926.954,954.478 909.224,967.551 913.673,961.11 924.068,942.397 972.378,895.932 1000.64,866.652 1091.02,786.362 1110.85,789.518 1105.58,795.415 1157.12,760.623 1166.88,766.368 1268.36,681.527 1184.12,756.621 1169.02,753.604 1126.89,786.254 1106.94,796.543 1199.64,715.579 1232.99,699.283 1299.45,642.237 1327.46,634.035 1205.94,728.653 1235.8,697.944 1144.43,778.069 1194.18,726.741 1142.6,766.779 1096.15,818.185 1127.01,773.027 1112.53,791.947 1076.04,831.614 1142.57,763.989 1274.9,653.291 1214.68,718.318 1149.18,773.127 1064.13,851.322 981.186,916.204 951.141,933.835 984.678,894.766 976.585,903.33 982.882,893.015 960.073,927.618 949.478,931.944 922.936,964.566 864.829,1022.61 886.456,987.535 889.977,978.562 897.35,975.205 892.291,997.213 891.574,982.47 890.34,978.152 942.695,916.573 892.658,973.658 909.775,963.197 922.661,937.827 979.169,889.649 1113.86,766.774 1168.38,725.363 1272.48,650.905 1273.76,658.88 1217.17,713.746 1191.86,756.341 1264.24,685.207 1212.92,723.003 1228.65,699.841 1231.07,705.383 1084.75,832.493 1044.68,861.927 1017.97,884.948 1022.81,869.196 1030.09,849.66 1031.34,845.157 1085.06,806.271 1082.93,802.735 1080.03,815.191 1225.34,680.012 1205.74,706.968 1192.47,736.208 1193.44,731.708 1243.52,695.831 1344.68,597.705 1411.07,547.725 1347.56,620.376 1330.79,629.531 1329.13,643.04 1381.34,597.893 1376.43,606.002 1356.35,629.644 1244.34,717.966 1222.13,723.088 1224.94,714.533 1190.88,737.901 1114.11,803.557 1062.11,839.542 1046.44,857.437 1050.8,848.177 1076.68,813.126 1095.32,797.828 1166.27,734.601 1180.44,729.064 1184.46,731.731 1306.26,638.433 1430.85,549.366 1453.4,560.495 1537.48,503.493 1590.74,454.269 1617.93,446.37 1693.43,393.575 1767.87,355.68 1728.7,406.475 1619.75,489.714 1471.96,598.05 1408.48,632.328 1314.06,698.339 1308.77,684.291 1281.89,691.27 1310.93,652.299 1302.24,657.11 1284.3,669.099 1274.35,672.299 1227.47,719.152 1233.23,704.433 1224.27,709.668 1205.92,723.384 1212.96,709.53 1217.38,704.238 1214.77,705.75 1287.88,645.507 1310.62,638.776 1335.46,622.117 1317.57,640.955 1309.44,648.324 1278.31,673.35 1335.16,605.005 1315.47,647.789 1356.74,631.08 1470.28,524.731 1334.36,632.746 1217.16,735.524 1232.14,705.14 1189.16,735.144 1260.76,665.994 1237.75,712.955 1228.51,720.998 1179.17,743.524 1216.15,709.857 1164.76,762.723 1173.01,754.965 1189.63,741.093 1196.94,725.649 1225.22,699.474 1258.45,680.53 1198.04,735.403 1261.78,674.384 1250.52,680.687 1168.11,758.218 1178.79,740.858 1051.72,851.127 1021.97,887.337 1063.69,828.839 1188.64,725.786 1252.16,684.022 1326.22,630.889 1294.46,670.379 1179.89,755.623 1187.21,746.324 1097.81,820.835 1086.72,820.933 1057.89,845.408 1137.45,758.373 1175.57,744.372 1099.32,819.485 1137.62,762.483 1177.61,722.81 1214.37,705.394 1169.33,758.505 1146.31,772.112 1124.86,789.071 1162.84,743.887 1156.84,756.988 1228.95,691.573 1241.08,686.68 1202.48,718.33 1195.83,713.784 1271.9,661.77 1267.05,674.318 1287.27,666.024 1183.26,747.06 1124.25,795.794 1085.87,825.162 1162.01,740.557 1184.96,729.284 1177.9,738.732 1129.66,772.062 1193.6,718.232 1218.52,712.082 1138.13,786.949 1094.1,817.971 1172.7,731.638 1161.93,748.602 1146.06,777.245 987.833,915.575 972.989,919.641 971.675,910.979 939.337,937.067 1016.16,854.078 960.829,919.52 943.897,935.602 844.918,1039.5 855.469,1014.41 905.684,952.147 1018.72,838.752 1055.27,817.159 1137.61,746.558 1117.67,786.986 1122.49,788.468 1260.46,663.411 1298.75,639.873 1290.87,661.004 1271.42,684.709 1320.89,639.756 1409.57,573.076 1365.83,598.731 1392.23,577.011 1600.21,412.888 1670.58,398.567 1641.95,434.518 1625.62,443.747 1577.14,478.897 1560.8,498.06 1524.2,515.566 1532.89,504.218 1527.87,506.122 1474.14,554.298 1422.44,584.844 1329.42,657.013 1277.37,689.819 1214.59,741.251 1143.38,799.367 1122.13,800.773 1151.51,762.712 1135.74,776.594 1132.72,779.485 1152.36,753.971 1218.38,692.547 1169.51,747.053 1167,750.282 1154.61,765.824 1133.06,780.759 1089.42,811.207 1109.38,790.794 1197.15,701.72 1215.48,697.993 1184.92,738.67 1108.35,810.585 1111.59,791.368 1237.09,671.345 1127.09,784.395 1100.62,823.003 1170.22,743.881 1304.25,638.852 1303.05,648.594 1292.22,646.153 1269.64,682.787 1278.04,670.68 1195.85,721.536 1292.55,630.913 1360.91,603.666 1421.81,562.092 1404.86,586.993 1361.23,628.096 1384.1,591.863 1319.27,657.373 1199.9,756.193 1179.51,755.087 1182.07,735.067 1164.56,754.787 1184.85,741.436 1098.19,809.97 1103.56,800.781 1034.25,862.777 1008.87,883.297 967.359,920.795 974.931,904.64 986.912,895.859 1002.96,877.624 978.67,900.849 1076.71,803.446 1085.86,803.639 1044.35,851.103 1006.47,890.009 994.326,897.586 978.437,911.665 975.63,903.015 963.161,905.158 1078.01,798.847 993.884,894.883 980.602,904.48 1004.4,872.783 1026.59,847.667 1081.8,803.214 1154.36,757.899 1106.68,806.331 1166.8,745.267 1062.61,842.65 1000.07,890.358 955.079,931.335 958.018,917.252 1007.11,888.854 989.657,899.773 946.064,948.052 942.842,933.032 958.521,911.815 963.623,905.555 975.065,891.661 1045.27,822.198 1061.15,815.618 1009.09,874.711 1073.75,818.448 1040.38,849.51 1065.45,834.73 1127.79,766.221 1095.08,799.082 1109.16,798.499 1136.23,748.969 1154.92,755.12 1304.07,650.176 1287.43,649.696 1318.1,625.802 1250.49,678.168 1208.74,718.644 1145.12,768.021 1243.07,685.189 1214.22,699.565 1279.08,652.046 1287.63,679.263 1184.66,759.973 1042.75,881.776 1034.32,868.981 1004.4,885.215 995.634,890.725 1005.48,872.611 1037.32,837.008 1004.47,875.932 1045.46,838.935 1048.58,830.395 1089.52,797.705 1125.58,770.248 1092.9,812.098 961.903,929.374 976.819,900.018 947.574,933.685 992.737,881.328 1006.62,869.436 979.606,898.834 991.922,889.478 1052.66,838.388 1075.39,821.043 1218.38,702.15 1150.2,776.308 1068.33,846.52 1052.41,847.45 1062.98,836.659 1107.44,781.209 1086.54,816.972 980.265,913.163 943.371,944.401 937.473,947.866 970.122,909.208 935.351,945.288 925.363,956.724 920.852,970.185 962.018,921.144 1012.41,865.235 984.039,907.142 1087.27,807.127 1170.57,726.079 1221.01,706.647 1200.51,722.505 1188.41,728.805 1337.43,616.249 1262.15,696.857 1132.41,805.64 1076.41,846.131 1034.16,877.276 997.594,900.201 1034.3,847.682 1006.15,870.45 1018.37,854.833 1072.48,803.97 1115.45,775.099 1129.52,783.45 1182.67,721.244 1196.6,718.123 1152.17,762.768 1112.08,804.59 1168.3,737.72 1180.54,725.021 1113.48,794.125 1006.19,889.648 973.917,914.625 1008.02,870.029 1025.36,851.859 1095.68,789.333 1073.25,816.583 1041.56,854.477 1073.12,811.058 1123.07,776.703 1130.08,768.52 1126.53,778.23 1056.78,847.082 1095.95,794.434 1105.02,792.764 1127.42,773.235 1122.57,779.974 1141.12,765.799 1112.68,792.012 1118.33,784.881 1123.63,777.841 1033.61,842.224 1147.51,748.258 1162.03,739.628 1102.32,799.761 1087.56,806.764 1107.28,794.216 1147.42,768.864 1120.49,785.713 1092.91,814.382 1138.82,763.664 1283.65,640.948 1335.74,607.993 1285.4,664.787 1274.62,659.777 1258.16,681.019 1326.04,625.948 1460.11,528.541 1544.1,477.054 1548.58,496.461 1423.77,591.65 1399.32,600.493 1352.42,637.063 1293.77,689.815 1288.95,672.379 1233.08,716.437 1182.47,753.634 1209.13,717.854 1243.44,687.434 1226.1,700.142 1279.97,646.241 1376.71,586.269 1342.78,628.143 1342.09,630.87 1407.52,575.459 1431.45,559.834 1412.38,569.548 1413.38,576.488 1453.13,534.65 1538.98,489.935 1441.29,575.108 1408.16,586.661 1405.15,581.894 1518.94,495.52 1553.16,475.652 1405.53,608.914 1431.7,565.196 1345.6,639.662 1216.36,745.12 1181.24,768.906 1094.47,835.506 1073.1,841.535 1051.84,853.299 1060.02,836.316 1070.64,821.807 1059.93,837.917 994.035,892.156 945.184,944.262 908.464,976.206 913.013,962.779 927.702,942.249 936.958,935.181 945.942,926.038 957.672,913.194 896.692,980.259 869.801,1001.07 866.39,1000.6 878.816,989.034 944.969,921.612 1013.14,853.919 954.935,921.286 933.231,935.917 916.372,949.399 894.512,971.19 887.761,968.863 938.118,924.602 913.733,962.677 864.464,1001.75 904.8,955.262 985.862,883.868 1037.52,841.314 1084.57,793.835 1039.36,845.738 990.235,885.297 987.284,885.158 980.465,893.464 946.062,922.595 919.242,948.575 912.547,953.767 907.225,961.264 948.582,922.006 947.493,933.289 1029.54,847.244 1027.79,862.486 1034,854.734 1101.56,793.891 1193.47,729.075 1313.79,630.304 1218.97,713.749 1378.73,581.232 1446.4,549.353 1449.65,551.51 1474.88,544.077 1433.99,568.043 1526.96,495.537 1655.07,406.334 1561.34,490.972 1581.01,480.289 1455.84,581.353 1482.1,543.96 1505.25,517.498 1517.42,503.745 1451.87,571.959 1409.06,599.856 1355.38,634.687 1320.86,649.361 1302.43,658.101 1336.87,622.028 1253.51,703.293 1282.42,663.09 1313.52,630.981 1310.42,640.93 1416.49,548.525 1341.55,635.124 1346.13,622.533 1359.88,613.651 1319.59,657.34 1177.46,773.476 1146.79,781.276 1112.38,803.767 1022.82,885.568 1009.84,885.301 1021.23,866.177 979.644,904.201 1014.07,860.564 970.473,902.659 1032.56,848.573 986.977,903.604 957.502,927.425 960.344,914.826 954.837,917.414 999.819,863.552 1034.08,839.23 957.778,921.364 956.035,927.905 1004.35,872.551 1031.03,842.634 1057.59,818.006 1029.85,848.394 964.683,916.494 1009.71,872.706 1028.42,848.25 1083.64,810.156 1064.78,818.604 1046.98,843.816 980.442,902.071 969.881,908.22 931.691,937.372 908.701,943.738 954.714,916.145 950.419,922.523 872.462,999.147 898.273,964.427 1000.22,867.417 971.884,897.549 1119.37,762.066 1077.37,817.039 1066.62,826.164 1092.12,797.445 1117.49,775.662 1089.92,803.57 1155.07,765.627 1148.42,765.001 1273.31,648.681 1228.39,704.381 1199.2,729.37 1190.26,736.777 1160.67,758.584 1230.63,694.352 1257.26,669.366 1374.66,583.988 1337.66,631.994 1367.5,614.727 1261.33,691.443 1270.68,670.562 1192.8,731.807 1301.08,626.965 1253.71,675.577 1259.89,674.005 1248.34,688.286 1320.09,620.391 1346.95,622.171 1220.96,718.24 1288.73,647.946 1116.97,803.316 1104.26,793.729 1064.24,834.289 993.534,899.9 1011.71,869.213 1021.98,859.14 1069.33,812.054 1176.3,720.965 1197.73,727.238 1210.96,717.281 1173.18,762.689 1234.1,703.046 1190.41,739.604 1188.51,734.179 1228.46,700.239 1217.64,712.216 1348.66,607.965 1380.34,603.606 1405.16,599.664 1423.32,568.285 1349.78,639.857 1240.4,719.852 1207.27,736.485 1212.28,720.173 1224.63,698.978 1205.78,712.253 1238.99,693.495 1231.35,701.643 1264.28,689.592 1312.65,646.49 1245.15,716.849 1248.98,717.235 1184.06,754.658 1152.57,777.769 1029.53,885.178 1053.97,835.504 1055.16,832.809 1057.46,838.222 1068.7,812.161 1093.54,790.822 1154.25,752.993 1138.58,772.724 1136.69,770.827 1123.49,786.574 1120.44,775.574 1154.16,758.999 1178.62,734.072 1133.34,777.013 1109.12,805.212 986.758,924.459 1027.3,866.688 1003.59,890.591 1026.25,864.104 1067.15,815.079 1136.87,748.714 1180.33,727.16 1131.16,782.391 1147.36,760.075 1170.89,736.728 1130.08,770.522 1071.05,831.523 1072.77,821.184 1116.88,791.934 1140.86,770.994 1158.21,755.364 1157.82,763.748 1256.99,683.539 1243.28,697.001 1248.21,693.283 1172.27,751.32 1125.02,796.545 1056.47,855.468 1015.24,884.329 1042.13,849.433 1066.04,822.671 1078.82,818.702 1145.61,752.508 1093.84,809.388 1137.93,759.849 1054.84,825.687 1016.45,865.887 1046.12,839.335 1063.25,818.087 1094.05,804.589 1130.38,769.802 1143.49,769.674 1087.81,814.218 1244.54,675.034 1216.1,703.475 1343.2,613.203 1408.29,558.163 1441.74,534.653 1474.7,530.414 1368.39,622.586 1337.43,643.594 1303.38,664.723 1370.61,605.494 1363.72,619.255 1283.33,671.582 1283.85,661.716 1160.27,778.559 1077.43,847.495 1106.72,803.697 1084.2,820.98 1078.81,816.769 1005.42,889.024 983.91,909.007 993.46,890.746 1029.7,860.707 1014.25,879.771 966.817,921.53 989.561,887.91 943.581,944.176 939.676,939.534 1010.82,864.431 1076.77,809.026 1071.21,822.583 1090.24,810.042 1048.31,850.655 949.034,930.816 956.296,919.025 948.969,928.823 923.859,956.766 998.109,884.461 1048.71,840.601 1016.5,870.447 1052.02,838.755 1034.78,846.118 935.007,926.463 918.83,943.854 915.949,954.939 878.114,995.804 939.663,934.917 973.845,912.98 958.432,915.775 1027.74,853.11 974.369,898.397 1045.89,825.832 949.892,917.543 986.673,882.982 1032.49,842.4 1091.07,794.618 1076.22,817.571 1145.96,750.509 1254.52,667.804 1216.57,698.441 1092.45,792.284 1171.79,722.033 1162.51,758.46 1242.69,680.125 1298.3,645.748 1398.21,573.734 1447.27,543.048 1389.31,601.798 1452.04,552.973 1515.6,514.782 1562.33,494.131 1633.56,444.077 1577.63,479.056 1566.8,489.683 1530.73,512.612 1534.32,510.774 1549.36,494.123 1621.99,428.876 1602.35,461.347 1466.54,569.017 1411.42,605.672 1367.2,633.249 1368.62,615.665 1349.11,625.743 1326.38,641.793 1337.83,626.24 1459.67,510.713 1491.85,508.585 1472.84,537.266 1346.05,649.375 1324.33,653.715 1369.89,601.239 1391.06,579.261 1485.22,499.475 1535.92,478.675 1496.18,528.259 1396.69,605.853 1347.06,636.72 1365.13,611.701 1337.31,633.688 1306.79,655.64 1314.1,644.18 1315.07,635.332 1348.33,610.556 1365.63,615.956 1401.16,585.388 1561.42,471.18 1641.97,414.653 1530.49,506.949 1473.51,561.539 1361.27,643.647 1308.79,676.254 1277.89,689.774 1241.64,711.027 1279.69,661.371 1288.65,655.656 1263.15,679.587 1201.53,735.854 1164.31,760.911 1154.18,759.436 1136.66,773.675 1160.11,752.251 1120.03,787.998 1071.71,825.838 1115.82,780.482 1199.28,710.281 1133.17,781.768 1184.45,722.955 1128.29,789.32 1087.37,816.242 1082.87,818.296 1113.35,784.987 1102.92,798.815 1047.89,857.803 1040.3,851.041 1056.6,836.646 1008.83,886.972 1065.34,820.638 1112.67,782.346 1098.74,803.538 1112.33,783.469 1266.57,641.799 1297.97,632.657 1233.1,712.554 1255.08,684.714 1287.37,662.597 1314.27,637.823 1335.4,621.363 1231.61,706.283 1274.08,662.89 1225.36,717.994 1137.6,789.508 1079.54,835.817 1056.09,841.001 1078.65,818.122 990.465,901.406 990.234,894.379 984.903,894.664 968.677,908.565 986.701,885.227 1036.12,839.341 1039.33,843.818 1091.19,798.007 1107.15,800.252 1095.58,803.819 1043.3,854.158 997.286,887.503 977.988,905.294 979.558,896.116 973.81,904.087 855.838,1031.29 852.223,1018.92 879.587,981.462 787.12,1084.37 806.446,1052.13 834.51,1011.85 860.12,1004.84 832.982,1031.67 838.125,1022.67 790.48,1080.88 825.433,1034.19 884.378,964.091 916.418,944.189 854.416,1019.79 869.087,992.195 882.13,979.745 850.42,1015.01 913.485,953.365 1036.38,836.455 1021.61,857.512 1005.34,882.916 1010.97,876.218 1053.35,838.234 1024.09,866.812 1104.49,794.574 1225.65,682.423 1230.98,697.048 1201.83,716.01 1218.55,723.165 1106.41,808.361 1065.39,841.241 1116.65,787.614 1079.28,825.867 1086.7,815.636 1072.91,817.444 1075.43,819.527 1142.85,749.259 1170.81,742.546 1344.4,606.299 1326.37,637.618 1288.26,675.772 1214.52,729.66 1220.79,714.76 1186.83,734.033 1152.63,768.989 1127.43,790.659 1147.53,762.468 1188.39,718.303 1076.36,814.648 1031.84,855.572 1007.73,876.561 1004.72,878.008 1034.9,855.276 1100.84,803.474 1114.54,781.445 1195.07,716.328 1265.55,665.064 1244.23,693.607 1183.86,758.539 1073.12,847.252 1030.16,881.452 1055.04,841.773 1094.72,794.654 1165.62,733.418 1186.39,718.583 1177.28,740.195 1188.47,735.488 1181.15,747.826 1179.83,744.08 1177.16,732.416 1124.03,781.783 1100.9,802.925 1071.96,827.228 1119.41,771.351 1058.82,828.876 942.793,944.624 913.275,964.389 953.466,913.76 881.119,991.853 900.406,974.776 896.512,973.078 920.875,956.826 896.399,976.641 886.109,984.358 954.207,909.97 1039.01,830.067 1079.51,802.648 1091.69,792.105 1118.65,777.268 1076.11,821.709 1132.15,769.72 1156.03,762.319 1240.05,676.939 1209.73,720.406 1200.55,726.291 1242.03,698.773 1228.8,708.826 1217.99,704.435 1294.57,646.168 1346.15,624.966 1341.57,620.799 1401.01,558.405 1274.91,649.692 1211.63,714.098 1214.13,692.764 1226.36,703.048 1193.14,745.02 1079.35,844.467 1045.98,861.528 1021.92,879.633 943.926,941.525 855.982,1028.72 798.995,1081.67 802.441,1064.95 779.078,1090.05 757.782,1111.03 767.661,1094.22 744.997,1121.77 785.048,1069.27 781.067,1079.76 789.681,1066.94 853.671,996.095 900.156,953.434 892.932,966.121 949.186,911.243 908.179,958.409 943.538,924.857 1041.59,831.494 1085.04,799.014 1116.63,775.167 1082.44,815.781 1115,791.448 1138.68,764.828 1238.49,695.809 1308.16,639.152 1280.92,681.307 1218.17,723.613 1320.45,630.122 1244.13,709.253 1186.3,745.085 1175.63,751.203 1138.07,779.17 1067.29,844.043 1081.18,814.683 1042.77,849.962 1023.53,878.098 966.401,920.2 947.928,935.052 899.089,983.497 866.31,1011.62 893.143,973.181 978.492,879.096 959.672,912.857 963.386,912.387 1001.08,875.535 1010.76,873.642 982.641,895.783 1035.64,842.481 1085.61,799.853 1039.41,856.183 1032.29,859.87 1038.47,845.311 949.629,924.947 1009.8,867.952 1029.42,863.439 889.97,996.868 892.196,992.653 938.353,949.389 1011.95,869.179 1095.6,788.894 1073.77,820.939 1051.77,835.205 963.294,910.556 981.477,897.529 1050.72,837.074 1071.37,814.114 961.692,906.887 976.962,888.254 1068.25,805.361 1045.31,838.766 1074.5,810.743 1074.47,835.202 1052.92,855.644 992.368,905.631 995.838,895.196 1023.5,859.633 1101.36,789.903 1037.16,850.715 1044.42,842.607 "/>
<path clip-path="url(#clip400)" d="M186.863 198.898 L550.897 198.898 L550.897 95.2176 L186.863 95.2176  Z" fill="#ffffff" fill-rule="evenodd" fill-opacity="1"/>
<polyline clip-path="url(#clip400)" style="stroke:#000000; stroke-linecap:round; stroke-linejoin:round; stroke-width:4; stroke-opacity:1; fill:none" points="186.863,198.898 550.897,198.898 550.897,95.2176 186.863,95.2176 186.863,198.898 "/>
<polyline clip-path="url(#clip400)" style="stroke:#009af9; stroke-linecap:round; stroke-linejoin:round; stroke-width:4; stroke-opacity:1; fill:none" points="211.758,147.058 361.13,147.058 "/>
<path clip-path="url(#clip400)" d="M396.651 128.366 Q393.549 133.69 392.044 138.898 Q390.54 144.106 390.54 149.453 Q390.54 154.801 392.044 160.055 Q393.572 165.287 396.651 170.588 L392.947 170.588 Q389.475 165.148 387.739 159.893 Q386.026 154.639 386.026 149.453 Q386.026 144.291 387.739 139.06 Q389.452 133.828 392.947 128.366 L396.651 128.366 Z" fill="#000000" fill-rule="nonzero" fill-opacity="1" /><path clip-path="url(#clip400)" d="M403.063 138.412 L423.294 138.412 L423.294 142.301 L407.276 160.935 L423.294 160.935 L423.294 164.338 L402.484 164.338 L402.484 160.449 L418.502 141.815 L403.063 141.815 L403.063 138.412 Z" fill="#000000" fill-rule="nonzero" fill-opacity="1" /><path clip-path="url(#clip400)" d="M430.887 158.458 L435.771 158.458 L435.771 162.439 L431.975 169.847 L428.988 169.847 L430.887 162.439 L430.887 158.458 Z" fill="#000000" fill-rule="nonzero" fill-opacity="1" /><path clip-path="url(#clip400)" d="M455.655 166.745 Q453.849 171.375 452.136 172.787 Q450.423 174.199 447.553 174.199 L444.15 174.199 L444.15 170.634 L446.65 170.634 Q448.41 170.634 449.382 169.8 Q450.354 168.967 451.535 165.865 L452.298 163.921 L441.812 138.412 L446.326 138.412 L454.428 158.689 L462.53 138.412 L467.044 138.412 L455.655 166.745 Z" fill="#000000" fill-rule="nonzero" fill-opacity="1" /><path clip-path="url(#clip400)" d="M474.011 158.458 L478.896 158.458 L478.896 162.439 L475.099 169.847 L472.113 169.847 L474.011 162.439 L474.011 158.458 Z" fill="#000000" fill-rule="nonzero" fill-opacity="1" /><path clip-path="url(#clip400)" d="M509.544 138.412 L500.169 151.027 L510.03 164.338 L505.007 164.338 L497.46 154.152 L489.914 164.338 L484.891 164.338 L494.96 150.773 L485.747 138.412 L490.77 138.412 L497.645 147.648 L504.52 138.412 L509.544 138.412 Z" fill="#000000" fill-rule="nonzero" fill-opacity="1" /><path clip-path="url(#clip400)" d="M515.377 128.366 L519.081 128.366 Q522.553 133.828 524.266 139.06 Q526.002 144.291 526.002 149.453 Q526.002 154.639 524.266 159.893 Q522.553 165.148 519.081 170.588 L515.377 170.588 Q518.456 165.287 519.96 160.055 Q521.488 154.801 521.488 149.453 Q521.488 144.106 519.96 138.898 Q518.456 133.69 515.377 128.366 Z" fill="#000000" fill-rule="nonzero" fill-opacity="1" /></svg>
