<?xml version="1.0" encoding="utf-8"?>
<svg xmlns="http://www.w3.org/2000/svg" xmlns:xlink="http://www.w3.org/1999/xlink" width="600" height="400" viewBox="0 0 2400 1600">
<defs>
  <clipPath id="clip140">
    <rect x="0" y="0" width="2400" height="1600"/>
  </clipPath>
</defs>
<path clip-path="url(#clip140)" d="M0 1600 L2400 1600 L2400 0 L0 0  Z" fill="#ffffff" fill-rule="evenodd" fill-opacity="1"/>
<defs>
  <clipPath id="clip141">
    <rect x="480" y="0" width="1681" height="1600"/>
  </clipPath>
</defs>
<path clip-path="url(#clip140)" d="M193.936 1423.18 L2352.76 1423.18 L2352.76 47.2441 L193.936 47.2441  Z" fill="#ffffff" fill-rule="evenodd" fill-opacity="1"/>
<defs>
  <clipPath id="clip142">
    <rect x="193" y="47" width="2160" height="1377"/>
  </clipPath>
</defs>
<polyline clip-path="url(#clip142)" style="stroke:#000000; stroke-linecap:round; stroke-linejoin:round; stroke-width:2; stroke-opacity:0.1; fill:none" points="193.936,1423.18 193.936,47.2441 "/>
<polyline clip-path="url(#clip142)" style="stroke:#000000; stroke-linecap:round; stroke-linejoin:round; stroke-width:2; stroke-opacity:0.1; fill:none" points="625.7,1423.18 625.7,47.2441 "/>
<polyline clip-path="url(#clip142)" style="stroke:#000000; stroke-linecap:round; stroke-linejoin:round; stroke-width:2; stroke-opacity:0.1; fill:none" points="1057.46,1423.18 1057.46,47.2441 "/>
<polyline clip-path="url(#clip142)" style="stroke:#000000; stroke-linecap:round; stroke-linejoin:round; stroke-width:2; stroke-opacity:0.1; fill:none" points="1489.23,1423.18 1489.23,47.2441 "/>
<polyline clip-path="url(#clip142)" style="stroke:#000000; stroke-linecap:round; stroke-linejoin:round; stroke-width:2; stroke-opacity:0.1; fill:none" points="1920.99,1423.18 1920.99,47.2441 "/>
<polyline clip-path="url(#clip142)" style="stroke:#000000; stroke-linecap:round; stroke-linejoin:round; stroke-width:2; stroke-opacity:0.1; fill:none" points="2352.76,1423.18 2352.76,47.2441 "/>
<polyline clip-path="url(#clip142)" style="stroke:#000000; stroke-linecap:round; stroke-linejoin:round; stroke-width:2; stroke-opacity:0.1; fill:none" points="193.936,1419.77 2352.76,1419.77 "/>
<polyline clip-path="url(#clip142)" style="stroke:#000000; stroke-linecap:round; stroke-linejoin:round; stroke-width:2; stroke-opacity:0.1; fill:none" points="193.936,1189.21 2352.76,1189.21 "/>
<polyline clip-path="url(#clip142)" style="stroke:#000000; stroke-linecap:round; stroke-linejoin:round; stroke-width:2; stroke-opacity:0.1; fill:none" points="193.936,958.655 2352.76,958.655 "/>
<polyline clip-path="url(#clip142)" style="stroke:#000000; stroke-linecap:round; stroke-linejoin:round; stroke-width:2; stroke-opacity:0.1; fill:none" points="193.936,728.1 2352.76,728.1 "/>
<polyline clip-path="url(#clip142)" style="stroke:#000000; stroke-linecap:round; stroke-linejoin:round; stroke-width:2; stroke-opacity:0.1; fill:none" points="193.936,497.545 2352.76,497.545 "/>
<polyline clip-path="url(#clip142)" style="stroke:#000000; stroke-linecap:round; stroke-linejoin:round; stroke-width:2; stroke-opacity:0.1; fill:none" points="193.936,266.99 2352.76,266.99 "/>
<polyline clip-path="url(#clip140)" style="stroke:#000000; stroke-linecap:round; stroke-linejoin:round; stroke-width:4; stroke-opacity:1; fill:none" points="193.936,1423.18 2352.76,1423.18 "/>
<polyline clip-path="url(#clip140)" style="stroke:#000000; stroke-linecap:round; stroke-linejoin:round; stroke-width:4; stroke-opacity:1; fill:none" points="193.936,1423.18 193.936,1404.28 "/>
<polyline clip-path="url(#clip140)" style="stroke:#000000; stroke-linecap:round; stroke-linejoin:round; stroke-width:4; stroke-opacity:1; fill:none" points="625.7,1423.18 625.7,1404.28 "/>
<polyline clip-path="url(#clip140)" style="stroke:#000000; stroke-linecap:round; stroke-linejoin:round; stroke-width:4; stroke-opacity:1; fill:none" points="1057.46,1423.18 1057.46,1404.28 "/>
<polyline clip-path="url(#clip140)" style="stroke:#000000; stroke-linecap:round; stroke-linejoin:round; stroke-width:4; stroke-opacity:1; fill:none" points="1489.23,1423.18 1489.23,1404.28 "/>
<polyline clip-path="url(#clip140)" style="stroke:#000000; stroke-linecap:round; stroke-linejoin:round; stroke-width:4; stroke-opacity:1; fill:none" points="1920.99,1423.18 1920.99,1404.28 "/>
<polyline clip-path="url(#clip140)" style="stroke:#000000; stroke-linecap:round; stroke-linejoin:round; stroke-width:4; stroke-opacity:1; fill:none" points="2352.76,1423.18 2352.76,1404.28 "/>
<path clip-path="url(#clip140)" d="M193.936 1454.1 Q190.325 1454.1 188.496 1457.66 Q186.691 1461.2 186.691 1468.33 Q186.691 1475.44 188.496 1479.01 Q190.325 1482.55 193.936 1482.55 Q197.57 1482.55 199.376 1479.01 Q201.204 1475.44 201.204 1468.33 Q201.204 1461.2 199.376 1457.66 Q197.57 1454.1 193.936 1454.1 M193.936 1450.39 Q199.746 1450.39 202.802 1455 Q205.88 1459.58 205.88 1468.33 Q205.88 1477.06 202.802 1481.67 Q199.746 1486.25 193.936 1486.25 Q188.126 1486.25 185.047 1481.67 Q181.992 1477.06 181.992 1468.33 Q181.992 1459.58 185.047 1455 Q188.126 1450.39 193.936 1450.39 Z" fill="#000000" fill-rule="nonzero" fill-opacity="1" /><path clip-path="url(#clip140)" d="M620.353 1481.64 L636.672 1481.64 L636.672 1485.58 L614.728 1485.58 L614.728 1481.64 Q617.39 1478.89 621.973 1474.26 Q626.58 1469.61 627.76 1468.27 Q630.006 1465.74 630.885 1464.01 Q631.788 1462.25 631.788 1460.56 Q631.788 1457.8 629.843 1456.07 Q627.922 1454.33 624.82 1454.33 Q622.621 1454.33 620.168 1455.09 Q617.737 1455.86 614.959 1457.41 L614.959 1452.69 Q617.783 1451.55 620.237 1450.97 Q622.691 1450.39 624.728 1450.39 Q630.098 1450.39 633.293 1453.08 Q636.487 1455.77 636.487 1460.26 Q636.487 1462.39 635.677 1464.31 Q634.89 1466.2 632.783 1468.8 Q632.205 1469.47 629.103 1472.69 Q626.001 1475.88 620.353 1481.64 Z" fill="#000000" fill-rule="nonzero" fill-opacity="1" /><path clip-path="url(#clip140)" d="M1060.47 1455.09 L1048.67 1473.54 L1060.47 1473.54 L1060.47 1455.09 M1059.25 1451.02 L1065.13 1451.02 L1065.13 1473.54 L1070.06 1473.54 L1070.06 1477.43 L1065.13 1477.43 L1065.13 1485.58 L1060.47 1485.58 L1060.47 1477.43 L1044.87 1477.43 L1044.87 1472.92 L1059.25 1451.02 Z" fill="#000000" fill-rule="nonzero" fill-opacity="1" /><path clip-path="url(#clip140)" d="M1489.63 1466.44 Q1486.48 1466.44 1484.63 1468.59 Q1482.8 1470.74 1482.8 1474.49 Q1482.8 1478.22 1484.63 1480.39 Q1486.48 1482.55 1489.63 1482.55 Q1492.78 1482.55 1494.61 1480.39 Q1496.46 1478.22 1496.46 1474.49 Q1496.46 1470.74 1494.61 1468.59 Q1492.78 1466.44 1489.63 1466.44 M1498.92 1451.78 L1498.92 1456.04 Q1497.16 1455.21 1495.35 1454.77 Q1493.57 1454.33 1491.81 1454.33 Q1487.18 1454.33 1484.73 1457.45 Q1482.3 1460.58 1481.95 1466.9 Q1483.31 1464.89 1485.37 1463.82 Q1487.43 1462.73 1489.91 1462.73 Q1495.12 1462.73 1498.13 1465.9 Q1501.16 1469.05 1501.16 1474.49 Q1501.16 1479.82 1498.01 1483.03 Q1494.86 1486.25 1489.63 1486.25 Q1483.64 1486.25 1480.47 1481.67 Q1477.3 1477.06 1477.3 1468.33 Q1477.3 1460.14 1481.18 1455.28 Q1485.07 1450.39 1491.62 1450.39 Q1493.38 1450.39 1495.17 1450.74 Q1496.97 1451.09 1498.92 1451.78 Z" fill="#000000" fill-rule="nonzero" fill-opacity="1" /><path clip-path="url(#clip140)" d="M1920.99 1469.17 Q1917.66 1469.17 1915.74 1470.95 Q1913.84 1472.73 1913.84 1475.86 Q1913.84 1478.98 1915.74 1480.77 Q1917.66 1482.55 1920.99 1482.55 Q1924.33 1482.55 1926.25 1480.77 Q1928.17 1478.96 1928.17 1475.86 Q1928.17 1472.73 1926.25 1470.95 Q1924.35 1469.17 1920.99 1469.17 M1916.32 1467.18 Q1913.31 1466.44 1911.62 1464.38 Q1909.95 1462.32 1909.95 1459.35 Q1909.95 1455.21 1912.89 1452.8 Q1915.85 1450.39 1920.99 1450.39 Q1926.15 1450.39 1929.09 1452.8 Q1932.03 1455.21 1932.03 1459.35 Q1932.03 1462.32 1930.34 1464.38 Q1928.68 1466.44 1925.69 1467.18 Q1929.07 1467.96 1930.95 1470.26 Q1932.84 1472.55 1932.84 1475.86 Q1932.84 1480.88 1929.77 1483.57 Q1926.71 1486.25 1920.99 1486.25 Q1915.27 1486.25 1912.2 1483.57 Q1909.14 1480.88 1909.14 1475.86 Q1909.14 1472.55 1911.04 1470.26 Q1912.94 1467.96 1916.32 1467.18 M1914.6 1459.79 Q1914.6 1462.48 1916.27 1463.98 Q1917.96 1465.49 1920.99 1465.49 Q1924 1465.49 1925.69 1463.98 Q1927.4 1462.48 1927.4 1459.79 Q1927.4 1457.11 1925.69 1455.6 Q1924 1454.1 1920.99 1454.1 Q1917.96 1454.1 1916.27 1455.6 Q1914.6 1457.11 1914.6 1459.79 Z" fill="#000000" fill-rule="nonzero" fill-opacity="1" /><path clip-path="url(#clip140)" d="M2327.44 1481.64 L2335.08 1481.64 L2335.08 1455.28 L2326.77 1456.95 L2326.77 1452.69 L2335.04 1451.02 L2339.71 1451.02 L2339.71 1481.64 L2347.35 1481.64 L2347.35 1485.58 L2327.44 1485.58 L2327.44 1481.64 Z" fill="#000000" fill-rule="nonzero" fill-opacity="1" /><path clip-path="url(#clip140)" d="M2366.8 1454.1 Q2363.18 1454.1 2361.36 1457.66 Q2359.55 1461.2 2359.55 1468.33 Q2359.55 1475.44 2361.36 1479.01 Q2363.18 1482.55 2366.8 1482.55 Q2370.43 1482.55 2372.23 1479.01 Q2374.06 1475.44 2374.06 1468.33 Q2374.06 1461.2 2372.23 1457.66 Q2370.43 1454.1 2366.8 1454.1 M2366.8 1450.39 Q2372.61 1450.39 2375.66 1455 Q2378.74 1459.58 2378.74 1468.33 Q2378.74 1477.06 2375.66 1481.67 Q2372.61 1486.25 2366.8 1486.25 Q2360.99 1486.25 2357.91 1481.67 Q2354.85 1477.06 2354.85 1468.33 Q2354.85 1459.58 2357.91 1455 Q2360.99 1450.39 2366.8 1450.39 Z" fill="#000000" fill-rule="nonzero" fill-opacity="1" /><path clip-path="url(#clip140)" d="M1272.41 1522.27 L1272.41 1532.4 L1284.47 1532.4 L1284.47 1536.95 L1272.41 1536.95 L1272.41 1556.3 Q1272.41 1560.66 1273.58 1561.9 Q1274.79 1563.14 1278.45 1563.14 L1284.47 1563.14 L1284.47 1568.04 L1278.45 1568.04 Q1271.67 1568.04 1269.1 1565.53 Q1266.52 1562.98 1266.52 1556.3 L1266.52 1536.95 L1262.22 1536.95 L1262.22 1532.4 L1266.52 1532.4 L1266.52 1522.27 L1272.41 1522.27 Z" fill="#000000" fill-rule="nonzero" fill-opacity="1" /><polyline clip-path="url(#clip140)" style="stroke:#000000; stroke-linecap:round; stroke-linejoin:round; stroke-width:4; stroke-opacity:1; fill:none" points="193.936,1423.18 193.936,47.2441 "/>
<polyline clip-path="url(#clip140)" style="stroke:#000000; stroke-linecap:round; stroke-linejoin:round; stroke-width:4; stroke-opacity:1; fill:none" points="193.936,1419.77 212.834,1419.77 "/>
<polyline clip-path="url(#clip140)" style="stroke:#000000; stroke-linecap:round; stroke-linejoin:round; stroke-width:4; stroke-opacity:1; fill:none" points="193.936,1189.21 212.834,1189.21 "/>
<polyline clip-path="url(#clip140)" style="stroke:#000000; stroke-linecap:round; stroke-linejoin:round; stroke-width:4; stroke-opacity:1; fill:none" points="193.936,958.655 212.834,958.655 "/>
<polyline clip-path="url(#clip140)" style="stroke:#000000; stroke-linecap:round; stroke-linejoin:round; stroke-width:4; stroke-opacity:1; fill:none" points="193.936,728.1 212.834,728.1 "/>
<polyline clip-path="url(#clip140)" style="stroke:#000000; stroke-linecap:round; stroke-linejoin:round; stroke-width:4; stroke-opacity:1; fill:none" points="193.936,497.545 212.834,497.545 "/>
<polyline clip-path="url(#clip140)" style="stroke:#000000; stroke-linecap:round; stroke-linejoin:round; stroke-width:4; stroke-opacity:1; fill:none" points="193.936,266.99 212.834,266.99 "/>
<path clip-path="url(#clip140)" d="M51.9875 1420.22 L81.6633 1420.22 L81.6633 1424.15 L51.9875 1424.15 L51.9875 1420.22 Z" fill="#000000" fill-rule="nonzero" fill-opacity="1" /><path clip-path="url(#clip140)" d="M92.566 1433.11 L100.205 1433.11 L100.205 1406.74 L91.8947 1408.41 L91.8947 1404.15 L100.159 1402.49 L104.834 1402.49 L104.834 1433.11 L112.473 1433.11 L112.473 1437.05 L92.566 1437.05 L92.566 1433.11 Z" fill="#000000" fill-rule="nonzero" fill-opacity="1" /><path clip-path="url(#clip140)" d="M121.918 1431.17 L126.802 1431.17 L126.802 1437.05 L121.918 1437.05 L121.918 1431.17 Z" fill="#000000" fill-rule="nonzero" fill-opacity="1" /><path clip-path="url(#clip140)" d="M137.033 1402.49 L155.39 1402.49 L155.39 1406.42 L141.316 1406.42 L141.316 1414.89 Q142.334 1414.55 143.353 1414.38 Q144.371 1414.2 145.39 1414.2 Q151.177 1414.2 154.556 1417.37 Q157.936 1420.54 157.936 1425.96 Q157.936 1431.54 154.464 1434.64 Q150.992 1437.72 144.672 1437.72 Q142.496 1437.72 140.228 1437.35 Q137.982 1436.98 135.575 1436.24 L135.575 1431.54 Q137.658 1432.67 139.881 1433.23 Q142.103 1433.78 144.58 1433.78 Q148.584 1433.78 150.922 1431.68 Q153.26 1429.57 153.26 1425.96 Q153.26 1422.35 150.922 1420.24 Q148.584 1418.13 144.58 1418.13 Q142.705 1418.13 140.83 1418.55 Q138.978 1418.97 137.033 1419.85 L137.033 1402.49 Z" fill="#000000" fill-rule="nonzero" fill-opacity="1" /><path clip-path="url(#clip140)" d="M50.9921 1189.66 L80.6679 1189.66 L80.6679 1193.6 L50.9921 1193.6 L50.9921 1189.66 Z" fill="#000000" fill-rule="nonzero" fill-opacity="1" /><path clip-path="url(#clip140)" d="M91.5706 1202.56 L99.2095 1202.56 L99.2095 1176.19 L90.8993 1177.86 L90.8993 1173.6 L99.1632 1171.93 L103.839 1171.93 L103.839 1202.56 L111.478 1202.56 L111.478 1206.49 L91.5706 1206.49 L91.5706 1202.56 Z" fill="#000000" fill-rule="nonzero" fill-opacity="1" /><path clip-path="url(#clip140)" d="M120.922 1200.61 L125.807 1200.61 L125.807 1206.49 L120.922 1206.49 L120.922 1200.61 Z" fill="#000000" fill-rule="nonzero" fill-opacity="1" /><path clip-path="url(#clip140)" d="M145.992 1175.01 Q142.381 1175.01 140.552 1178.57 Q138.746 1182.12 138.746 1189.24 Q138.746 1196.35 140.552 1199.92 Q142.381 1203.46 145.992 1203.46 Q149.626 1203.46 151.431 1199.92 Q153.26 1196.35 153.26 1189.24 Q153.26 1182.12 151.431 1178.57 Q149.626 1175.01 145.992 1175.01 M145.992 1171.31 Q151.802 1171.31 154.857 1175.91 Q157.936 1180.49 157.936 1189.24 Q157.936 1197.97 154.857 1202.58 Q151.802 1207.16 145.992 1207.16 Q140.181 1207.16 137.103 1202.58 Q134.047 1197.97 134.047 1189.24 Q134.047 1180.49 137.103 1175.91 Q140.181 1171.31 145.992 1171.31 Z" fill="#000000" fill-rule="nonzero" fill-opacity="1" /><path clip-path="url(#clip140)" d="M51.9875 959.106 L81.6633 959.106 L81.6633 963.042 L51.9875 963.042 L51.9875 959.106 Z" fill="#000000" fill-rule="nonzero" fill-opacity="1" /><path clip-path="url(#clip140)" d="M101.756 944.454 Q98.1447 944.454 96.316 948.019 Q94.5104 951.56 94.5104 958.69 Q94.5104 965.796 96.316 969.361 Q98.1447 972.903 101.756 972.903 Q105.39 972.903 107.196 969.361 Q109.024 965.796 109.024 958.69 Q109.024 951.56 107.196 948.019 Q105.39 944.454 101.756 944.454 M101.756 940.75 Q107.566 940.75 110.621 945.357 Q113.7 949.94 113.7 958.69 Q113.7 967.417 110.621 972.023 Q107.566 976.606 101.756 976.606 Q95.9456 976.606 92.8669 972.023 Q89.8114 967.417 89.8114 958.69 Q89.8114 949.94 92.8669 945.357 Q95.9456 940.75 101.756 940.75 Z" fill="#000000" fill-rule="nonzero" fill-opacity="1" /><path clip-path="url(#clip140)" d="M121.918 970.056 L126.802 970.056 L126.802 975.935 L121.918 975.935 L121.918 970.056 Z" fill="#000000" fill-rule="nonzero" fill-opacity="1" /><path clip-path="url(#clip140)" d="M137.033 941.375 L155.39 941.375 L155.39 945.31 L141.316 945.31 L141.316 953.782 Q142.334 953.435 143.353 953.273 Q144.371 953.088 145.39 953.088 Q151.177 953.088 154.556 956.259 Q157.936 959.431 157.936 964.847 Q157.936 970.426 154.464 973.528 Q150.992 976.606 144.672 976.606 Q142.496 976.606 140.228 976.236 Q137.982 975.866 135.575 975.125 L135.575 970.426 Q137.658 971.56 139.881 972.116 Q142.103 972.671 144.58 972.671 Q148.584 972.671 150.922 970.565 Q153.26 968.458 153.26 964.847 Q153.26 961.236 150.922 959.13 Q148.584 957.023 144.58 957.023 Q142.705 957.023 140.83 957.44 Q138.978 957.857 137.033 958.736 L137.033 941.375 Z" fill="#000000" fill-rule="nonzero" fill-opacity="1" /><path clip-path="url(#clip140)" d="M100.76 713.899 Q97.1493 713.899 95.3206 717.463 Q93.515 721.005 93.515 728.135 Q93.515 735.241 95.3206 738.806 Q97.1493 742.348 100.76 742.348 Q104.395 742.348 106.2 738.806 Q108.029 735.241 108.029 728.135 Q108.029 721.005 106.2 717.463 Q104.395 713.899 100.76 713.899 M100.76 710.195 Q106.571 710.195 109.626 714.801 Q112.705 719.385 112.705 728.135 Q112.705 736.862 109.626 741.468 Q106.571 746.051 100.76 746.051 Q94.9502 746.051 91.8715 741.468 Q88.816 736.862 88.816 728.135 Q88.816 719.385 91.8715 714.801 Q94.9502 710.195 100.76 710.195 Z" fill="#000000" fill-rule="nonzero" fill-opacity="1" /><path clip-path="url(#clip140)" d="M120.922 739.5 L125.807 739.5 L125.807 745.38 L120.922 745.38 L120.922 739.5 Z" fill="#000000" fill-rule="nonzero" fill-opacity="1" /><path clip-path="url(#clip140)" d="M145.992 713.899 Q142.381 713.899 140.552 717.463 Q138.746 721.005 138.746 728.135 Q138.746 735.241 140.552 738.806 Q142.381 742.348 145.992 742.348 Q149.626 742.348 151.431 738.806 Q153.26 735.241 153.26 728.135 Q153.26 721.005 151.431 717.463 Q149.626 713.899 145.992 713.899 M145.992 710.195 Q151.802 710.195 154.857 714.801 Q157.936 719.385 157.936 728.135 Q157.936 736.862 154.857 741.468 Q151.802 746.051 145.992 746.051 Q140.181 746.051 137.103 741.468 Q134.047 736.862 134.047 728.135 Q134.047 719.385 137.103 714.801 Q140.181 710.195 145.992 710.195 Z" fill="#000000" fill-rule="nonzero" fill-opacity="1" /><path clip-path="url(#clip140)" d="M101.756 483.344 Q98.1447 483.344 96.316 486.908 Q94.5104 490.45 94.5104 497.58 Q94.5104 504.686 96.316 508.251 Q98.1447 511.792 101.756 511.792 Q105.39 511.792 107.196 508.251 Q109.024 504.686 109.024 497.58 Q109.024 490.45 107.196 486.908 Q105.39 483.344 101.756 483.344 M101.756 479.64 Q107.566 479.64 110.621 484.246 Q113.7 488.83 113.7 497.58 Q113.7 506.306 110.621 510.913 Q107.566 515.496 101.756 515.496 Q95.9456 515.496 92.8669 510.913 Q89.8114 506.306 89.8114 497.58 Q89.8114 488.83 92.8669 484.246 Q95.9456 479.64 101.756 479.64 Z" fill="#000000" fill-rule="nonzero" fill-opacity="1" /><path clip-path="url(#clip140)" d="M121.918 508.945 L126.802 508.945 L126.802 514.825 L121.918 514.825 L121.918 508.945 Z" fill="#000000" fill-rule="nonzero" fill-opacity="1" /><path clip-path="url(#clip140)" d="M137.033 480.265 L155.39 480.265 L155.39 484.2 L141.316 484.2 L141.316 492.672 Q142.334 492.325 143.353 492.163 Q144.371 491.978 145.39 491.978 Q151.177 491.978 154.556 495.149 Q157.936 498.32 157.936 503.737 Q157.936 509.316 154.464 512.417 Q150.992 515.496 144.672 515.496 Q142.496 515.496 140.228 515.126 Q137.982 514.755 135.575 514.015 L135.575 509.316 Q137.658 510.45 139.881 511.005 Q142.103 511.561 144.58 511.561 Q148.584 511.561 150.922 509.455 Q153.26 507.348 153.26 503.737 Q153.26 500.126 150.922 498.019 Q148.584 495.913 144.58 495.913 Q142.705 495.913 140.83 496.33 Q138.978 496.746 137.033 497.626 L137.033 480.265 Z" fill="#000000" fill-rule="nonzero" fill-opacity="1" /><path clip-path="url(#clip140)" d="M91.5706 280.335 L99.2095 280.335 L99.2095 253.969 L90.8993 255.636 L90.8993 251.376 L99.1632 249.71 L103.839 249.71 L103.839 280.335 L111.478 280.335 L111.478 284.27 L91.5706 284.27 L91.5706 280.335 Z" fill="#000000" fill-rule="nonzero" fill-opacity="1" /><path clip-path="url(#clip140)" d="M120.922 278.39 L125.807 278.39 L125.807 284.27 L120.922 284.27 L120.922 278.39 Z" fill="#000000" fill-rule="nonzero" fill-opacity="1" /><path clip-path="url(#clip140)" d="M145.992 252.788 Q142.381 252.788 140.552 256.353 Q138.746 259.895 138.746 267.024 Q138.746 274.131 140.552 277.696 Q142.381 281.237 145.992 281.237 Q149.626 281.237 151.431 277.696 Q153.26 274.131 153.26 267.024 Q153.26 259.895 151.431 256.353 Q149.626 252.788 145.992 252.788 M145.992 249.085 Q151.802 249.085 154.857 253.691 Q157.936 258.275 157.936 267.024 Q157.936 275.751 154.857 280.358 Q151.802 284.941 145.992 284.941 Q140.181 284.941 137.103 280.358 Q134.047 275.751 134.047 267.024 Q134.047 258.275 137.103 253.691 Q140.181 249.085 145.992 249.085 Z" fill="#000000" fill-rule="nonzero" fill-opacity="1" /><polyline clip-path="url(#clip142)" style="stroke:#009af9; stroke-linecap:round; stroke-linejoin:round; stroke-width:4; stroke-opacity:1; fill:none" points="193.936,728.1 196.097,726.084 198.258,724.095 200.419,722.132 202.58,720.195 204.741,718.283 206.902,716.397 209.063,714.536 211.224,712.7 213.385,710.888 215.546,709.1 217.707,707.336 219.868,705.595 222.029,703.877 224.19,702.182 226.351,700.51 228.512,698.86 230.673,697.231 232.834,695.624 234.995,694.039 237.156,692.474 239.317,690.931 241.478,689.407 243.639,687.904 245.8,686.421 247.961,684.957 250.122,683.513 252.282,682.088 254.443,680.682 256.604,679.295 258.765,677.926 260.926,676.575 263.087,675.242 265.248,673.927 267.409,672.629 269.57,671.348 271.731,670.084 273.892,668.837 276.053,667.607 278.214,666.393 280.375,665.195 282.536,664.013 284.697,662.846 286.858,661.695 289.019,660.56 291.18,659.439 293.341,658.333 295.502,657.242 297.663,656.165 299.824,655.103 301.985,654.055 304.146,653.02 306.307,652 308.468,650.992 310.629,649.999 312.79,649.018 314.951,648.05 317.112,647.096 319.273,646.153 321.434,645.224 323.595,644.306 325.756,643.401 327.917,642.508 330.078,641.627 332.239,640.757 334.4,639.899 336.561,639.052 338.722,638.217 340.883,637.392 343.044,636.579 345.205,635.776 347.366,634.984 349.527,634.202 351.688,633.431 353.849,632.67 356.01,631.919 358.171,631.178 360.332,630.447 362.493,629.726 364.653,629.014 366.814,628.312 368.975,627.618 371.136,626.935 373.297,626.26 375.458,625.594 377.619,624.937 379.78,624.288 381.941,623.649 384.102,623.017 386.263,622.394 388.424,621.78 390.585,621.173 392.746,620.575 394.907,619.984 397.068,619.401 399.229,618.826 401.39,618.259 403.551,617.699 405.712,617.147 407.873,616.602 410.034,616.112 412.195,616.112 414.356,616.653 416.517,617.672 418.678,619.111 420.839,620.914 423,623.029 425.161,625.408 427.322,628.002 429.483,630.771 431.644,633.673 433.805,636.673 435.966,639.736 438.127,642.833 440.288,645.936 442.449,649.021 444.61,652.068 446.771,655.058 448.932,657.977 451.093,660.813 453.254,663.559 455.415,666.209 457.576,668.761 459.737,671.217 461.898,673.58 464.059,675.858 466.22,678.062 468.381,680.206 470.542,682.307 472.703,684.384 474.864,686.461 477.024,688.564 479.185,690.685 481.346,692.779 483.507,694.845 485.668,696.883 487.829,698.895 489.99,700.88 492.151,702.838 494.312,704.771 496.473,706.678 498.634,708.559 500.795,710.416 502.956,712.248 505.117,714.056 507.278,715.84 509.439,717.6 511.6,719.337 513.761,721.051 515.922,722.742 518.083,724.411 520.244,726.058 522.405,727.682 524.566,729.286 526.727,730.868 528.888,732.429 531.049,733.969 533.21,735.489 535.371,736.989 537.532,738.469 539.693,739.929 541.854,741.37 544.015,742.791 546.176,744.194 548.337,745.578 550.498,746.944 552.659,748.292 554.82,749.622 556.981,750.934 559.142,752.229 561.303,753.506 563.464,754.767 565.625,756.011 567.786,757.239 569.947,758.45 572.108,759.645 574.269,760.824 576.43,761.988 578.591,763.136 580.752,764.269 582.913,765.388 585.074,766.491 587.235,767.579 589.396,768.654 591.556,769.714 593.717,770.76 595.878,771.792 598.039,772.81 600.2,773.815 602.361,774.806 604.522,775.785 606.683,776.75 608.844,777.703 611.005,778.643 613.166,779.57 615.327,780.486 617.488,781.389 619.649,782.28 621.81,783.159 623.971,784.027 626.132,785.266 628.293,788.188 630.454,792.613 632.615,798.239 634.776,804.793 636.937,812.026 639.098,819.72 641.259,827.685 643.42,835.755 645.581,843.796 647.742,851.699 649.903,859.384 652.064,866.799 654.225,873.919 656.386,880.747 658.547,887.313 660.708,893.677 662.869,899.924 665.03,906.169 667.191,912.49 669.352,918.745 671.513,924.916 673.674,931.006 675.835,937.015 677.996,942.944 680.157,948.795 682.318,954.568 684.479,960.264 686.64,965.886 688.801,971.432 690.962,976.905 693.123,982.306 695.284,987.635 697.445,992.894 699.606,998.082 701.767,1003.2 703.927,1008.25 706.088,1013.24 708.249,1018.16 710.41,1023.01 712.571,1027.8 714.732,1032.53 716.893,1037.19 719.054,1041.79 721.215,1046.33 723.376,1050.81 725.537,1055.23 727.698,1059.59 729.859,1063.9 732.02,1068.14 734.181,1072.33 736.342,1076.47 738.503,1080.55 740.664,1084.58 742.825,1088.55 744.986,1092.47 747.147,1096.34 749.308,1100.15 751.469,1103.92 753.63,1107.64 755.791,1111.3 757.952,1114.92 760.113,1118.49 762.274,1122.02 764.435,1125.49 766.596,1128.92 768.757,1132.31 770.918,1135.65 773.079,1138.94 775.24,1142.2 777.401,1145.41 779.562,1148.57 781.723,1151.7 783.884,1154.78 786.045,1157.82 788.206,1160.82 790.367,1163.79 792.528,1166.71 794.689,1169.59 796.85,1172.44 799.011,1175.25 801.172,1178.02 803.333,1180.75 805.494,1183.45 807.655,1186.11 809.816,1188.74 811.977,1191.33 814.138,1193.89 816.298,1196.41 818.459,1198.9 820.62,1201.36 822.781,1203.78 824.942,1206.17 827.103,1208.54 829.264,1210.87 831.425,1213.83 833.586,1218.11 835.747,1221.58 837.908,1222.65 840.069,1220.48 842.23,1214.97 844.391,1206.76 846.552,1197.23 848.713,1188.28 850.874,1179.71 853.035,1171.26 855.196,1162.92 857.357,1154.69 859.518,1146.57 861.679,1138.56 863.84,1130.65 866.001,1122.85 868.162,1115.15 870.323,1107.56 872.484,1100.06 874.645,1092.67 876.806,1085.37 878.967,1078.17 881.128,1071.06 883.289,1064.05 885.45,1057.13 887.611,1050.31 889.772,1043.57 891.933,1036.92 894.094,1030.37 896.255,1023.89 898.416,1017.51 900.577,1011.21 902.738,1004.99 904.899,998.855 907.06,992.802 909.221,986.828 911.382,980.934 913.543,975.118 915.704,969.379 917.865,963.716 920.026,958.128 922.187,952.614 924.348,947.173 926.509,941.804 928.669,936.507 930.83,931.28 932.991,926.122 935.152,921.032 937.313,916.01 939.474,911.055 941.635,906.165 943.796,901.34 945.957,896.579 948.118,891.882 950.279,887.246 952.44,882.672 954.601,878.159 956.762,873.705 958.923,869.311 961.084,864.974 963.245,860.696 965.406,856.474 967.567,852.308 969.728,848.197 971.889,844.14 974.05,840.138 976.211,836.188 978.372,832.291 980.533,828.445 982.694,824.651 984.855,820.906 987.016,817.212 989.177,813.566 991.338,809.969 993.499,806.419 995.66,802.916 997.821,799.46 999.982,796.05 1002.14,792.685 1004.3,789.365 1006.46,786.088 1008.63,782.855 1010.79,779.665 1012.95,776.518 1015.11,773.412 1017.27,770.347 1019.43,767.323 1021.59,764.339 1023.75,761.394 1025.91,758.489 1028.07,755.622 1030.24,752.793 1032.4,750.002 1034.56,747.248 1036.72,744.53 1038.88,741.848 1041.04,739.201 1043.2,736.59 1045.36,734.013 1047.52,731.462 1049.68,728.935 1051.85,726.431 1054.01,723.953 1056.17,721.5 1058.33,719.073 1060.49,716.672 1062.65,714.298 1064.81,711.951 1066.97,709.632 1069.13,707.34 1071.29,705.077 1073.46,702.842 1075.62,700.635 1077.78,698.457 1079.94,696.307 1082.1,694.185 1084.26,692.092 1086.42,690.028 1088.58,687.991 1090.74,685.983 1092.9,684.002 1095.07,682.048 1097.23,680.121 1099.39,678.221 1101.55,676.347 1103.71,674.499 1105.87,672.676 1108.03,670.877 1110.19,669.102 1112.35,667.35 1114.51,665.621 1116.67,663.913 1118.84,662.228 1121,660.565 1123.16,658.925 1125.32,657.306 1127.48,655.708 1129.64,654.132 1131.8,652.576 1133.96,651.042 1136.12,649.527 1138.28,648.033 1140.45,646.558 1142.61,645.103 1144.77,643.668 1146.93,642.251 1149.09,640.853 1151.25,639.474 1153.41,638.113 1155.57,636.77 1157.73,635.445 1159.89,634.137 1162.06,632.847 1164.22,631.573 1166.38,630.317 1168.54,629.078 1170.7,627.854 1172.86,626.647 1175.02,625.456 1177.18,624.281 1179.34,623.121 1181.5,621.977 1183.67,620.848 1185.83,619.734 1187.99,618.635 1190.15,617.55 1192.31,616.479 1194.47,615.423 1196.63,614.381 1198.79,613.353 1200.95,612.338 1203.11,611.337 1205.28,610.349 1207.44,609.374 1209.6,608.412 1211.76,607.462 1213.92,606.526 1216.08,605.602 1218.24,604.69 1220.4,603.79 1222.56,602.902 1224.72,602.025 1226.88,601.161 1229.05,600.308 1231.21,599.466 1233.37,598.635 1235.53,597.816 1237.69,597.007 1239.85,596.209 1242.01,595.421 1244.17,594.644 1246.33,593.878 1248.49,593.121 1250.66,592.375 1252.82,591.638 1254.98,590.911 1257.14,590.194 1259.3,589.486 1261.46,588.788 1263.62,588.099 1265.78,587.419 1267.94,586.748 1270.1,586.086 1272.27,585.433 1274.43,585.18 1276.59,585.875 1278.75,587.38 1280.91,589.558 1283.07,592.283 1285.23,595.44 1287.39,598.924 1289.55,602.639 1291.71,606.502 1293.88,610.439 1296.04,614.386 1298.2,618.289 1300.36,622.108 1302.52,625.808 1304.68,629.37 1306.84,632.78 1309,636.038 1311.16,639.155 1313.32,642.148 1315.49,645.05 1317.65,647.901 1319.81,650.751 1321.97,653.656 1324.13,656.555 1326.29,659.416 1328.45,662.238 1330.61,665.023 1332.77,667.771 1334.93,670.483 1337.09,673.159 1339.26,675.799 1341.42,678.405 1343.58,680.976 1345.74,683.512 1347.9,686.015 1350.06,688.485 1352.22,690.923 1354.38,693.327 1356.54,695.701 1358.7,698.042 1360.87,700.353 1363.03,702.633 1365.19,704.882 1367.35,707.102 1369.51,709.293 1371.67,711.454 1373.83,713.587 1375.99,715.691 1378.15,717.768 1380.31,719.816 1382.48,721.838 1384.64,723.833 1386.8,725.802 1388.96,727.744 1391.12,729.661 1393.28,731.552 1395.44,733.418 1397.6,735.259 1399.76,737.076 1401.92,738.869 1404.09,740.638 1406.25,742.384 1408.41,744.106 1410.57,745.806 1412.73,747.483 1414.89,749.138 1417.05,750.771 1419.21,752.382 1421.37,753.972 1423.53,755.541 1425.7,757.089 1427.86,758.617 1430.02,760.124 1432.18,761.612 1434.34,763.08 1436.5,764.528 1438.66,765.957 1440.82,767.367 1442.98,768.758 1445.14,770.131 1447.3,771.486 1449.47,772.822 1451.63,774.141 1453.79,775.443 1455.95,776.727 1458.11,777.994 1460.27,779.245 1462.43,780.479 1464.59,781.696 1466.75,782.898 1468.91,784.083 1471.08,785.253 1473.24,786.407 1475.4,787.546 1477.56,788.67 1479.72,789.779 1481.88,790.873 1484.04,791.953 1486.2,793.008 1488.36,793.322 1490.52,792.66 1492.69,791.296 1494.85,789.462 1497.01,787.356 1499.17,785.137 1501.33,782.926 1503.49,780.808 1505.65,778.829 1507.81,776.999 1509.97,775.29 1512.13,773.636 1514.3,771.939 1516.46,770.224 1518.62,768.531 1520.78,766.861 1522.94,765.213 1525.1,763.587 1527.26,761.983 1529.42,760.4 1531.58,758.837 1533.74,757.296 1535.91,755.775 1538.07,754.274 1540.23,752.793 1542.39,751.331 1544.55,749.889 1546.71,748.466 1548.87,747.062 1551.03,745.677 1553.19,744.31 1555.35,742.961 1557.51,741.63 1559.68,740.317 1561.84,739.021 1564,737.742 1566.16,736.48 1568.32,735.235 1570.48,734.007 1572.64,732.794 1574.8,731.598 1576.96,730.418 1579.12,729.253 1581.29,728.104 1583.45,726.97 1585.61,725.851 1587.77,724.747 1589.93,723.657 1592.09,722.582 1594.25,721.521 1596.41,720.475 1598.57,719.442 1600.73,718.423 1602.9,717.417 1605.06,716.424 1607.22,715.445 1609.38,714.479 1611.54,713.526 1613.7,712.585 1615.86,711.657 1618.02,710.741 1620.18,709.837 1622.34,708.945 1624.51,708.065 1626.67,707.197 1628.83,706.34 1630.99,705.494 1633.15,704.66 1635.31,703.837 1637.47,703.025 1639.63,702.223 1641.79,701.432 1643.95,700.652 1646.12,699.882 1648.28,699.122 1650.44,698.372 1652.6,697.632 1654.76,696.902 1656.92,696.182 1659.08,695.471 1661.24,694.77 1663.4,694.077 1665.56,693.395 1667.72,692.721 1669.89,692.056 1672.05,691.4 1674.21,690.752 1676.37,690.113 1678.53,689.483 1680.69,688.861 1682.85,688.247 1685.01,687.642 1687.17,687.044 1689.33,686.454 1691.5,685.873 1693.66,685.298 1695.82,684.732 1697.98,684.173 1700.14,683.621 1702.3,683.077 1704.46,682.54 1706.62,681.833 1708.78,680.538 1710.94,678.757 1713.11,676.61 1715.27,674.202 1717.43,671.627 1719.59,668.962 1721.75,666.274 1723.91,663.613 1726.07,661.019 1728.23,658.515 1730.39,656.113 1732.55,653.81 1734.72,651.592 1736.88,649.427 1739.04,647.274 1741.2,645.098 1743.36,642.944 1745.52,640.819 1747.68,638.722 1749.84,636.652 1752,634.611 1754.16,632.596 1756.33,630.608 1758.49,628.646 1760.65,626.71 1762.81,624.8 1764.97,622.915 1767.13,621.056 1769.29,619.221 1771.45,617.41 1773.61,615.623 1775.77,613.86 1777.93,612.12 1780.1,610.403 1782.26,608.71 1784.42,607.038 1786.58,605.389 1788.74,603.762 1790.9,602.156 1793.06,600.571 1795.22,599.008 1797.38,597.465 1799.54,595.943 1801.71,594.441 1803.87,592.959 1806.03,591.496 1808.19,590.053 1810.35,588.629 1812.51,587.224 1814.67,585.838 1816.83,584.47 1818.99,583.12 1821.15,581.788 1823.32,580.473 1825.48,579.176 1827.64,577.896 1829.8,576.634 1831.96,575.387 1834.12,574.158 1836.28,572.945 1838.44,571.747 1840.6,570.566 1842.76,569.4 1844.93,568.25 1847.09,567.115 1849.25,565.995 1851.41,564.89 1853.57,563.8 1855.73,562.724 1857.89,561.662 1860.05,560.614 1862.21,559.581 1864.37,558.561 1866.54,557.554 1868.7,556.561 1870.86,555.581 1873.02,554.614 1875.18,553.66 1877.34,552.718 1879.5,551.789 1881.66,550.873 1883.82,549.968 1885.98,549.076 1888.15,548.195 1890.31,547.326 1892.47,546.468 1894.63,545.622 1896.79,544.787 1898.95,543.963 1901.11,543.15 1903.27,542.348 1905.43,541.557 1907.59,540.974 1909.75,541.131 1911.92,540.945 1914.08,539.534 1916.24,536.465 1918.4,531.752 1920.56,525.86 1922.72,519.698 1924.88,513.947 1927.04,508.275 1929.2,502.679 1931.36,497.157 1933.53,491.709 1935.69,486.332 1937.85,481.027 1940.01,475.792 1942.17,470.627 1944.33,465.53 1946.49,460.5 1948.65,455.537 1950.81,450.64 1952.97,445.809 1955.14,441.041 1957.3,436.336 1959.46,431.694 1961.62,427.113 1963.78,422.593 1965.94,418.133 1968.1,413.732 1970.26,409.39 1972.42,405.105 1974.58,400.876 1976.75,396.704 1978.91,392.588 1981.07,388.525 1983.23,384.517 1985.39,380.562 1987.55,376.659 1989.71,372.808 1991.87,369.008 1994.03,365.258 1996.19,361.558 1998.36,357.907 2000.52,354.304 2002.68,350.75 2004.84,347.242 2007,343.781 2009.16,340.366 2011.32,336.996 2013.48,333.671 2015.64,330.389 2017.8,327.152 2019.96,323.957 2022.13,320.805 2024.29,317.694 2026.45,314.625 2028.61,311.596 2030.77,308.608 2032.93,305.659 2035.09,302.749 2037.25,299.878 2039.41,297.045 2041.57,294.249 2043.74,291.491 2045.9,288.769 2048.06,286.083 2050.22,283.433 2052.38,280.817 2054.54,278.237 2056.7,275.69 2058.86,273.178 2061.02,270.698 2063.18,268.252 2065.35,265.838 2067.51,263.456 2069.67,261.106 2071.83,258.786 2073.99,256.498 2076.15,254.24 2078.31,252.012 2080.47,249.813 2082.63,247.644 2084.79,245.503 2086.96,243.391 2089.12,241.307 2091.28,239.251 2093.44,237.222 2095.6,235.219 2097.76,233.243 2099.92,231.294 2102.08,229.37 2104.24,227.472 2106.4,225.599 2108.57,223.751 2110.73,221.927 2112.89,220.127 2115.05,218.352 2117.21,216.6 2119.37,214.871 2121.53,213.164 2123.69,211.545 2125.85,211.114 2128.01,212.084 2130.17,214.228 2132.34,217.339 2134.5,221.222 2136.66,225.704 2138.82,230.625 2140.98,235.845 2143.14,241.239 2145.3,246.701 2147.46,252.141 2149.62,257.486 2151.78,262.681 2153.95,267.686 2156.11,272.482 2158.27,277.063 2160.43,281.442 2162.59,285.649 2164.75,289.732 2166.91,293.754 2169.07,297.796 2171.23,301.901 2173.39,305.962 2175.56,309.969 2177.72,313.922 2179.88,317.823 2182.04,321.673 2184.2,325.471 2186.36,329.219 2188.52,332.918 2190.68,336.567 2192.84,340.168 2195,343.721 2197.17,347.228 2199.33,350.687 2201.49,354.101 2203.65,357.47 2205.81,360.795 2207.97,364.075 2210.13,367.312 2212.29,370.506 2214.45,373.658 2216.61,376.768 2218.78,379.836 2220.94,382.864 2223.1,385.852 2225.26,388.8 2227.42,391.709 2229.58,394.58 2231.74,397.412 2233.9,400.207 2236.06,402.964 2238.22,405.685 2240.38,408.37 2242.55,411.019 2244.71,413.633 2246.87,416.212 2249.03,418.757 2251.19,421.268 2253.35,423.746 2255.51,426.191 2257.67,428.603 2259.83,430.983 2261.99,433.332 2264.16,435.65 2266.32,437.936 2268.48,440.193 2270.64,442.419 2272.8,444.617 2274.96,446.784 2277.12,448.924 2279.28,451.034 2281.44,453.117 2283.6,455.173 2285.77,457.201 2287.93,459.202 2290.09,461.177 2292.25,463.126 2294.41,465.048 2296.57,466.946 2298.73,468.818 2300.89,470.666 2303.05,472.489 2305.21,474.288 2307.38,476.063 2309.54,477.815 2311.7,479.543 2313.86,481.249 2316.02,482.931 2318.18,484.592 2320.34,486.23 2322.5,487.847 2324.66,489.442 2326.82,491.017 2328.99,492.57 2331.15,494.103 2333.31,495.615 2335.47,497.107 2337.63,498.58 2339.79,500.033 2341.95,501.467 2344.11,502.881 2346.27,504.277 2348.43,505.655 2350.59,507.014 2352.76,508.355 "/>
<polyline clip-path="url(#clip142)" style="stroke:#e26f46; stroke-linecap:round; stroke-linejoin:round; stroke-width:4; stroke-opacity:1; fill:none" points="193.936,576.033 196.097,576.033 198.258,576.033 200.419,576.033 202.58,576.033 204.741,576.033 206.902,576.033 209.063,576.033 211.224,576.033 213.385,576.033 215.546,576.033 217.707,576.033 219.868,576.033 222.029,576.033 224.19,576.033 226.351,576.033 228.512,576.033 230.673,576.033 232.834,576.033 234.995,576.033 237.156,576.033 239.317,576.033 241.478,576.033 243.639,576.033 245.8,576.033 247.961,576.033 250.122,576.033 252.282,576.033 254.443,576.033 256.604,576.033 258.765,576.033 260.926,576.033 263.087,576.033 265.248,576.033 267.409,576.033 269.57,576.033 271.731,576.033 273.892,576.033 276.053,576.033 278.214,576.033 280.375,576.033 282.536,576.033 284.697,576.033 286.858,576.033 289.019,576.033 291.18,576.033 293.341,576.033 295.502,576.033 297.663,576.033 299.824,576.033 301.985,576.033 304.146,576.033 306.307,576.033 308.468,576.033 310.629,576.033 312.79,576.033 314.951,576.033 317.112,576.033 319.273,576.033 321.434,576.033 323.595,576.033 325.756,576.033 327.917,576.033 330.078,576.033 332.239,576.033 334.4,576.033 336.561,576.033 338.722,576.033 340.883,576.033 343.044,576.033 345.205,576.033 347.366,576.033 349.527,576.033 351.688,576.033 353.849,576.033 356.01,576.033 358.171,576.033 360.332,576.033 362.493,576.033 364.653,576.033 366.814,576.033 368.975,576.033 371.136,576.033 373.297,576.033 375.458,576.033 377.619,576.033 379.78,576.033 381.941,576.033 384.102,576.033 386.263,576.033 388.424,576.033 390.585,576.033 392.746,576.033 394.907,576.033 397.068,576.033 399.229,576.033 401.39,576.033 403.551,576.033 405.712,576.033 407.873,576.033 410.034,848.604 412.195,848.604 414.356,848.604 416.517,848.604 418.678,848.604 420.839,848.604 423,848.604 425.161,848.604 427.322,848.604 429.483,848.604 431.644,848.604 433.805,848.604 435.966,848.604 438.127,848.604 440.288,848.604 442.449,848.604 444.61,848.604 446.771,848.604 448.932,848.604 451.093,848.604 453.254,848.604 455.415,848.604 457.576,848.604 459.737,848.604 461.898,848.604 464.059,848.604 466.22,848.604 468.381,848.604 470.542,848.604 472.703,848.604 474.864,848.604 477.024,848.604 479.185,848.604 481.346,848.604 483.507,848.604 485.668,848.604 487.829,848.604 489.99,848.604 492.151,848.604 494.312,848.604 496.473,848.604 498.634,848.604 500.795,848.604 502.956,848.604 505.117,848.604 507.278,848.604 509.439,848.604 511.6,848.604 513.761,848.604 515.922,848.604 518.083,848.604 520.244,848.604 522.405,848.604 524.566,848.604 526.727,848.604 528.888,848.604 531.049,848.604 533.21,848.604 535.371,848.604 537.532,848.604 539.693,848.604 541.854,848.604 544.015,848.604 546.176,848.604 548.337,848.604 550.498,848.604 552.659,848.604 554.82,848.604 556.981,848.604 559.142,848.604 561.303,848.604 563.464,848.604 565.625,848.604 567.786,848.604 569.947,848.604 572.108,848.604 574.269,848.604 576.43,848.604 578.591,848.604 580.752,848.604 582.913,848.604 585.074,848.604 587.235,848.604 589.396,848.604 591.556,848.604 593.717,848.604 595.878,848.604 598.039,848.604 600.2,848.604 602.361,848.604 604.522,848.604 606.683,848.604 608.844,848.604 611.005,848.604 613.166,848.604 615.327,848.604 617.488,848.604 619.649,848.604 621.81,848.604 623.971,848.604 626.132,1384.24 628.293,1384.24 630.454,1384.24 632.615,1384.24 634.776,1384.24 636.937,1384.24 639.098,1384.24 641.259,1384.24 643.42,1384.24 645.581,1384.24 647.742,1384.24 649.903,1384.24 652.064,1384.24 654.225,1384.24 656.386,1384.24 658.547,1384.24 660.708,1384.24 662.869,1384.24 665.03,1384.24 667.191,1384.24 669.352,1384.24 671.513,1384.24 673.674,1384.24 675.835,1384.24 677.996,1384.24 680.157,1384.24 682.318,1384.24 684.479,1384.24 686.64,1384.24 688.801,1384.24 690.962,1384.24 693.123,1384.24 695.284,1384.24 697.445,1384.24 699.606,1384.24 701.767,1384.24 703.927,1384.24 706.088,1384.24 708.249,1384.24 710.41,1384.24 712.571,1384.24 714.732,1384.24 716.893,1384.24 719.054,1384.24 721.215,1384.24 723.376,1384.24 725.537,1384.24 727.698,1384.24 729.859,1384.24 732.02,1384.24 734.181,1384.24 736.342,1384.24 738.503,1384.24 740.664,1384.24 742.825,1384.24 744.986,1384.24 747.147,1384.24 749.308,1384.24 751.469,1384.24 753.63,1384.24 755.791,1384.24 757.952,1384.24 760.113,1384.24 762.274,1384.24 764.435,1384.24 766.596,1384.24 768.757,1384.24 770.918,1384.24 773.079,1384.24 775.24,1384.24 777.401,1384.24 779.562,1384.24 781.723,1384.24 783.884,1384.24 786.045,1384.24 788.206,1384.24 790.367,1384.24 792.528,1384.24 794.689,1384.24 796.85,1384.24 799.011,1384.24 801.172,1384.24 803.333,1384.24 805.494,1384.24 807.655,1384.24 809.816,1384.24 811.977,1384.24 814.138,1384.24 816.298,1384.24 818.459,1384.24 820.62,1384.24 822.781,1384.24 824.942,1384.24 827.103,1384.24 829.264,1384.24 831.425,1384.24 833.586,1384.24 835.747,1384.24 837.908,1384.24 840.069,1384.24 842.23,542.242 844.391,542.242 846.552,542.242 848.713,542.242 850.874,542.242 853.035,542.242 855.196,542.242 857.357,542.242 859.518,542.242 861.679,542.242 863.84,542.242 866.001,542.242 868.162,542.242 870.323,542.242 872.484,542.242 874.645,542.242 876.806,542.242 878.967,542.242 881.128,542.242 883.289,542.242 885.45,542.242 887.611,542.242 889.772,542.242 891.933,542.242 894.094,542.242 896.255,542.242 898.416,542.242 900.577,542.242 902.738,542.242 904.899,542.242 907.06,542.242 909.221,542.242 911.382,542.242 913.543,542.242 915.704,542.242 917.865,542.242 920.026,542.242 922.187,542.242 924.348,542.242 926.509,542.242 928.669,542.242 930.83,542.242 932.991,542.242 935.152,542.242 937.313,542.242 939.474,542.242 941.635,542.242 943.796,542.242 945.957,542.242 948.118,542.242 950.279,542.242 952.44,542.242 954.601,542.242 956.762,542.242 958.923,542.242 961.084,542.242 963.245,542.242 965.406,542.242 967.567,542.242 969.728,542.242 971.889,542.242 974.05,542.242 976.211,542.242 978.372,542.242 980.533,542.242 982.694,542.242 984.855,542.242 987.016,542.242 989.177,542.242 991.338,542.242 993.499,542.242 995.66,542.242 997.821,542.242 999.982,542.242 1002.14,542.242 1004.3,542.242 1006.46,542.242 1008.63,542.242 1010.79,542.242 1012.95,542.242 1015.11,542.242 1017.27,542.242 1019.43,542.242 1021.59,542.242 1023.75,542.242 1025.91,542.242 1028.07,542.242 1030.24,542.242 1032.4,542.242 1034.56,542.242 1036.72,542.242 1038.88,542.242 1041.04,542.242 1043.2,542.242 1045.36,542.242 1047.52,542.242 1049.68,542.242 1051.85,542.242 1054.01,542.242 1056.17,542.242 1058.33,536.814 1060.49,536.814 1062.65,536.814 1064.81,536.814 1066.97,536.814 1069.13,536.814 1071.29,536.814 1073.46,536.814 1075.62,536.814 1077.78,536.814 1079.94,536.814 1082.1,536.814 1084.26,536.814 1086.42,536.814 1088.58,536.814 1090.74,536.814 1092.9,536.814 1095.07,536.814 1097.23,536.814 1099.39,536.814 1101.55,536.814 1103.71,536.814 1105.87,536.814 1108.03,536.814 1110.19,536.814 1112.35,536.814 1114.51,536.814 1116.67,536.814 1118.84,536.814 1121,536.814 1123.16,536.814 1125.32,536.814 1127.48,536.814 1129.64,536.814 1131.8,536.814 1133.96,536.814 1136.12,536.814 1138.28,536.814 1140.45,536.814 1142.61,536.814 1144.77,536.814 1146.93,536.814 1149.09,536.814 1151.25,536.814 1153.41,536.814 1155.57,536.814 1157.73,536.814 1159.89,536.814 1162.06,536.814 1164.22,536.814 1166.38,536.814 1168.54,536.814 1170.7,536.814 1172.86,536.814 1175.02,536.814 1177.18,536.814 1179.34,536.814 1181.5,536.814 1183.67,536.814 1185.83,536.814 1187.99,536.814 1190.15,536.814 1192.31,536.814 1194.47,536.814 1196.63,536.814 1198.79,536.814 1200.95,536.814 1203.11,536.814 1205.28,536.814 1207.44,536.814 1209.6,536.814 1211.76,536.814 1213.92,536.814 1216.08,536.814 1218.24,536.814 1220.4,536.814 1222.56,536.814 1224.72,536.814 1226.88,536.814 1229.05,536.814 1231.21,536.814 1233.37,536.814 1235.53,536.814 1237.69,536.814 1239.85,536.814 1242.01,536.814 1244.17,536.814 1246.33,536.814 1248.49,536.814 1250.66,536.814 1252.82,536.814 1254.98,536.814 1257.14,536.814 1259.3,536.814 1261.46,536.814 1263.62,536.814 1265.78,536.814 1267.94,536.814 1270.1,536.814 1272.27,536.814 1274.43,872.311 1276.59,872.311 1278.75,872.311 1280.91,872.311 1283.07,872.311 1285.23,872.311 1287.39,872.311 1289.55,872.311 1291.71,872.311 1293.88,872.311 1296.04,872.311 1298.2,872.311 1300.36,872.311 1302.52,872.311 1304.68,872.311 1306.84,872.311 1309,872.311 1311.16,872.311 1313.32,872.311 1315.49,872.311 1317.65,872.311 1319.81,872.311 1321.97,872.311 1324.13,872.311 1326.29,872.311 1328.45,872.311 1330.61,872.311 1332.77,872.311 1334.93,872.311 1337.09,872.311 1339.26,872.311 1341.42,872.311 1343.58,872.311 1345.74,872.311 1347.9,872.311 1350.06,872.311 1352.22,872.311 1354.38,872.311 1356.54,872.311 1358.7,872.311 1360.87,872.311 1363.03,872.311 1365.19,872.311 1367.35,872.311 1369.51,872.311 1371.67,872.311 1373.83,872.311 1375.99,872.311 1378.15,872.311 1380.31,872.311 1382.48,872.311 1384.64,872.311 1386.8,872.311 1388.96,872.311 1391.12,872.311 1393.28,872.311 1395.44,872.311 1397.6,872.311 1399.76,872.311 1401.92,872.311 1404.09,872.311 1406.25,872.311 1408.41,872.311 1410.57,872.311 1412.73,872.311 1414.89,872.311 1417.05,872.311 1419.21,872.311 1421.37,872.311 1423.53,872.311 1425.7,872.311 1427.86,872.311 1430.02,872.311 1432.18,872.311 1434.34,872.311 1436.5,872.311 1438.66,872.311 1440.82,872.311 1442.98,872.311 1445.14,872.311 1447.3,872.311 1449.47,872.311 1451.63,872.311 1453.79,872.311 1455.95,872.311 1458.11,872.311 1460.27,872.311 1462.43,872.311 1464.59,872.311 1466.75,872.311 1468.91,872.311 1471.08,872.311 1473.24,872.311 1475.4,872.311 1477.56,872.311 1479.72,872.311 1481.88,872.311 1484.04,872.311 1486.2,872.311 1488.36,872.311 1490.52,642.568 1492.69,642.568 1494.85,642.568 1497.01,642.568 1499.17,642.568 1501.33,642.568 1503.49,642.568 1505.65,642.568 1507.81,642.568 1509.97,642.568 1512.13,642.568 1514.3,642.568 1516.46,642.568 1518.62,642.568 1520.78,642.568 1522.94,642.568 1525.1,642.568 1527.26,642.568 1529.42,642.568 1531.58,642.568 1533.74,642.568 1535.91,642.568 1538.07,642.568 1540.23,642.568 1542.39,642.568 1544.55,642.568 1546.71,642.568 1548.87,642.568 1551.03,642.568 1553.19,642.568 1555.35,642.568 1557.51,642.568 1559.68,642.568 1561.84,642.568 1564,642.568 1566.16,642.568 1568.32,642.568 1570.48,642.568 1572.64,642.568 1574.8,642.568 1576.96,642.568 1579.12,642.568 1581.29,642.568 1583.45,642.568 1585.61,642.568 1587.77,642.568 1589.93,642.568 1592.09,642.568 1594.25,642.568 1596.41,642.568 1598.57,642.568 1600.73,642.568 1602.9,642.568 1605.06,642.568 1607.22,642.568 1609.38,642.568 1611.54,642.568 1613.7,642.568 1615.86,642.568 1618.02,642.568 1620.18,642.568 1622.34,642.568 1624.51,642.568 1626.67,642.568 1628.83,642.568 1630.99,642.568 1633.15,642.568 1635.31,642.568 1637.47,642.568 1639.63,642.568 1641.79,642.568 1643.95,642.568 1646.12,642.568 1648.28,642.568 1650.44,642.568 1652.6,642.568 1654.76,642.568 1656.92,642.568 1659.08,642.568 1661.24,642.568 1663.4,642.568 1665.56,642.568 1667.72,642.568 1669.89,642.568 1672.05,642.568 1674.21,642.568 1676.37,642.568 1678.53,642.568 1680.69,642.568 1682.85,642.568 1685.01,642.568 1687.17,642.568 1689.33,642.568 1691.5,642.568 1693.66,642.568 1695.82,642.568 1697.98,642.568 1700.14,642.568 1702.3,642.568 1704.46,642.568 1706.62,482.644 1708.78,482.644 1710.94,482.644 1713.11,482.644 1715.27,482.644 1717.43,482.644 1719.59,482.644 1721.75,482.644 1723.91,482.644 1726.07,482.644 1728.23,482.644 1730.39,482.644 1732.55,482.644 1734.72,482.644 1736.88,482.644 1739.04,482.644 1741.2,482.644 1743.36,482.644 1745.52,482.644 1747.68,482.644 1749.84,482.644 1752,482.644 1754.16,482.644 1756.33,482.644 1758.49,482.644 1760.65,482.644 1762.81,482.644 1764.97,482.644 1767.13,482.644 1769.29,482.644 1771.45,482.644 1773.61,482.644 1775.77,482.644 1777.93,482.644 1780.1,482.644 1782.26,482.644 1784.42,482.644 1786.58,482.644 1788.74,482.644 1790.9,482.644 1793.06,482.644 1795.22,482.644 1797.38,482.644 1799.54,482.644 1801.71,482.644 1803.87,482.644 1806.03,482.644 1808.19,482.644 1810.35,482.644 1812.51,482.644 1814.67,482.644 1816.83,482.644 1818.99,482.644 1821.15,482.644 1823.32,482.644 1825.48,482.644 1827.64,482.644 1829.8,482.644 1831.96,482.644 1834.12,482.644 1836.28,482.644 1838.44,482.644 1840.6,482.644 1842.76,482.644 1844.93,482.644 1847.09,482.644 1849.25,482.644 1851.41,482.644 1853.57,482.644 1855.73,482.644 1857.89,482.644 1860.05,482.644 1862.21,482.644 1864.37,482.644 1866.54,482.644 1868.7,482.644 1870.86,482.644 1873.02,482.644 1875.18,482.644 1877.34,482.644 1879.5,482.644 1881.66,482.644 1883.82,482.644 1885.98,482.644 1888.15,482.644 1890.31,482.644 1892.47,482.644 1894.63,482.644 1896.79,482.644 1898.95,482.644 1901.11,482.644 1903.27,482.644 1905.43,482.644 1907.59,482.644 1909.75,482.644 1911.92,482.644 1914.08,482.644 1916.24,482.644 1918.4,482.644 1920.56,482.644 1922.72,86.1857 1924.88,86.1857 1927.04,86.1857 1929.2,86.1857 1931.36,86.1857 1933.53,86.1857 1935.69,86.1857 1937.85,86.1857 1940.01,86.1857 1942.17,86.1857 1944.33,86.1857 1946.49,86.1857 1948.65,86.1857 1950.81,86.1857 1952.97,86.1857 1955.14,86.1857 1957.3,86.1857 1959.46,86.1857 1961.62,86.1857 1963.78,86.1857 1965.94,86.1857 1968.1,86.1857 1970.26,86.1857 1972.42,86.1857 1974.58,86.1857 1976.75,86.1857 1978.91,86.1857 1981.07,86.1857 1983.23,86.1857 1985.39,86.1857 1987.55,86.1857 1989.71,86.1857 1991.87,86.1857 1994.03,86.1857 1996.19,86.1857 1998.36,86.1857 2000.52,86.1857 2002.68,86.1857 2004.84,86.1857 2007,86.1857 2009.16,86.1857 2011.32,86.1857 2013.48,86.1857 2015.64,86.1857 2017.8,86.1857 2019.96,86.1857 2022.13,86.1857 2024.29,86.1857 2026.45,86.1857 2028.61,86.1857 2030.77,86.1857 2032.93,86.1857 2035.09,86.1857 2037.25,86.1857 2039.41,86.1857 2041.57,86.1857 2043.74,86.1857 2045.9,86.1857 2048.06,86.1857 2050.22,86.1857 2052.38,86.1857 2054.54,86.1857 2056.7,86.1857 2058.86,86.1857 2061.02,86.1857 2063.18,86.1857 2065.35,86.1857 2067.51,86.1857 2069.67,86.1857 2071.83,86.1857 2073.99,86.1857 2076.15,86.1857 2078.31,86.1857 2080.47,86.1857 2082.63,86.1857 2084.79,86.1857 2086.96,86.1857 2089.12,86.1857 2091.28,86.1857 2093.44,86.1857 2095.6,86.1857 2097.76,86.1857 2099.92,86.1857 2102.08,86.1857 2104.24,86.1857 2106.4,86.1857 2108.57,86.1857 2110.73,86.1857 2112.89,86.1857 2115.05,86.1857 2117.21,86.1857 2119.37,86.1857 2121.53,86.1857 2123.69,86.1857 2125.85,86.1857 2128.01,86.1857 2130.17,86.1857 2132.34,86.1857 2134.5,86.1857 2136.66,86.1857 2138.82,608.176 2140.98,608.176 2143.14,608.176 2145.3,608.176 2147.46,608.176 2149.62,608.176 2151.78,608.176 2153.95,608.176 2156.11,608.176 2158.27,608.176 2160.43,608.176 2162.59,608.176 2164.75,608.176 2166.91,608.176 2169.07,608.176 2171.23,608.176 2173.39,608.176 2175.56,608.176 2177.72,608.176 2179.88,608.176 2182.04,608.176 2184.2,608.176 2186.36,608.176 2188.52,608.176 2190.68,608.176 2192.84,608.176 2195,608.176 2197.17,608.176 2199.33,608.176 2201.49,608.176 2203.65,608.176 2205.81,608.176 2207.97,608.176 2210.13,608.176 2212.29,608.176 2214.45,608.176 2216.61,608.176 2218.78,608.176 2220.94,608.176 2223.1,608.176 2225.26,608.176 2227.42,608.176 2229.58,608.176 2231.74,608.176 2233.9,608.176 2236.06,608.176 2238.22,608.176 2240.38,608.176 2242.55,608.176 2244.71,608.176 2246.87,608.176 2249.03,608.176 2251.19,608.176 2253.35,608.176 2255.51,608.176 2257.67,608.176 2259.83,608.176 2261.99,608.176 2264.16,608.176 2266.32,608.176 2268.48,608.176 2270.64,608.176 2272.8,608.176 2274.96,608.176 2277.12,608.176 2279.28,608.176 2281.44,608.176 2283.6,608.176 2285.77,608.176 2287.93,608.176 2290.09,608.176 2292.25,608.176 2294.41,608.176 2296.57,608.176 2298.73,608.176 2300.89,608.176 2303.05,608.176 2305.21,608.176 2307.38,608.176 2309.54,608.176 2311.7,608.176 2313.86,608.176 2316.02,608.176 2318.18,608.176 2320.34,608.176 2322.5,608.176 2324.66,608.176 2326.82,608.176 2328.99,608.176 2331.15,608.176 2333.31,608.176 2335.47,608.176 2337.63,608.176 2339.79,608.176 2341.95,608.176 2344.11,608.176 2346.27,608.176 2348.43,608.176 2350.59,608.176 2352.76,608.176 "/>
<path clip-path="url(#clip140)" d="M265.897 248.629 L506.917 248.629 L506.917 93.1086 L265.897 93.1086  Z" fill="#ffffff" fill-rule="evenodd" fill-opacity="1"/>
<polyline clip-path="url(#clip140)" style="stroke:#000000; stroke-linecap:round; stroke-linejoin:round; stroke-width:4; stroke-opacity:1; fill:none" points="265.897,248.629 506.917,248.629 506.917,93.1086 265.897,93.1086 265.897,248.629 "/>
<polyline clip-path="url(#clip140)" style="stroke:#009af9; stroke-linecap:round; stroke-linejoin:round; stroke-width:4; stroke-opacity:1; fill:none" points="289.884,144.949 433.805,144.949 "/>
<path clip-path="url(#clip140)" d="M482.444 136.303 L473.069 148.919 L482.931 162.229 L477.907 162.229 L470.361 152.043 L462.815 162.229 L457.792 162.229 L467.861 148.664 L458.648 136.303 L463.671 136.303 L470.546 145.539 L477.421 136.303 L482.444 136.303 Z" fill="#000000" fill-rule="nonzero" fill-opacity="1" /><polyline clip-path="url(#clip140)" style="stroke:#e26f46; stroke-linecap:round; stroke-linejoin:round; stroke-width:4; stroke-opacity:1; fill:none" points="289.884,196.789 433.805,196.789 "/>
<path clip-path="url(#clip140)" d="M474.296 178.05 L474.296 181.592 L470.222 181.592 Q467.931 181.592 467.028 182.518 Q466.148 183.444 466.148 185.851 L466.148 188.143 L473.162 188.143 L473.162 191.453 L466.148 191.453 L466.148 214.069 L461.866 214.069 L461.866 191.453 L457.792 191.453 L457.792 188.143 L461.866 188.143 L461.866 186.337 Q461.866 182.009 463.88 180.041 Q465.894 178.05 470.269 178.05 L474.296 178.05 Z" fill="#000000" fill-rule="nonzero" fill-opacity="1" /></svg>
