<?xml version="1.0" encoding="utf-8"?>
<svg xmlns="http://www.w3.org/2000/svg" xmlns:xlink="http://www.w3.org/1999/xlink" width="600" height="400" viewBox="0 0 2400 1600">
<defs>
  <clipPath id="clip030">
    <rect x="0" y="0" width="2400" height="1600"/>
  </clipPath>
</defs>
<path clip-path="url(#clip030)" d="M0 1600 L2400 1600 L2400 0 L0 0  Z" fill="#ffffff" fill-rule="evenodd" fill-opacity="1"/>
<defs>
  <clipPath id="clip031">
    <rect x="480" y="0" width="1681" height="1600"/>
  </clipPath>
</defs>
<defs>
  <clipPath id="clip032">
    <rect x="112" y="47" width="2242" height="1440"/>
  </clipPath>
</defs>
<path clip-path="url(#clip032)" d="M-401.208 2272.83 L-401.208 2031.04 L-131.739 1910.15 L334.995 1979.95 L334.995 2221.74 L65.526 2342.63 L-401.208 2272.83  Z" fill="#ffffff" fill-rule="evenodd" fill-opacity="1"/>
<polyline clip-path="url(#clip032)" style="stroke:#000000; stroke-linecap:round; stroke-linejoin:round; stroke-width:2; stroke-opacity:0.1; fill:none" points="734.958,1222.9 1150.42,863.095 1150.42,143.493 "/>
<polyline clip-path="url(#clip032)" style="stroke:#000000; stroke-linecap:round; stroke-linejoin:round; stroke-width:2; stroke-opacity:0.1; fill:none" points="851.641,1256.58 1267.1,896.778 1267.1,177.177 "/>
<polyline clip-path="url(#clip032)" style="stroke:#000000; stroke-linecap:round; stroke-linejoin:round; stroke-width:2; stroke-opacity:0.1; fill:none" points="968.325,1290.26 1383.79,930.462 1383.79,210.86 "/>
<polyline clip-path="url(#clip032)" style="stroke:#000000; stroke-linecap:round; stroke-linejoin:round; stroke-width:2; stroke-opacity:0.1; fill:none" points="1085.01,1323.95 1500.47,964.146 1500.47,244.544 "/>
<polyline clip-path="url(#clip032)" style="stroke:#000000; stroke-linecap:round; stroke-linejoin:round; stroke-width:2; stroke-opacity:0.1; fill:none" points="1201.69,1357.63 1617.15,997.829 1617.15,278.227 "/>
<polyline clip-path="url(#clip032)" style="stroke:#000000; stroke-linecap:round; stroke-linejoin:round; stroke-width:2; stroke-opacity:0.1; fill:none" points="1318.38,1391.31 1733.84,1031.51 1733.84,311.911 "/>
<polyline clip-path="url(#clip032)" style="stroke:#000000; stroke-linecap:round; stroke-linejoin:round; stroke-width:2; stroke-opacity:0.1; fill:none" points="1409.2,1389.06 689.595,1181.33 689.595,461.723 "/>
<polyline clip-path="url(#clip032)" style="stroke:#000000; stroke-linecap:round; stroke-linejoin:round; stroke-width:2; stroke-opacity:0.1; fill:none" points="1479,1328.61 759.394,1120.88 759.394,401.276 "/>
<polyline clip-path="url(#clip032)" style="stroke:#000000; stroke-linecap:round; stroke-linejoin:round; stroke-width:2; stroke-opacity:0.1; fill:none" points="1548.79,1268.16 829.193,1060.43 829.193,340.828 "/>
<polyline clip-path="url(#clip032)" style="stroke:#000000; stroke-linecap:round; stroke-linejoin:round; stroke-width:2; stroke-opacity:0.1; fill:none" points="1618.59,1207.71 898.991,999.983 898.991,280.381 "/>
<polyline clip-path="url(#clip032)" style="stroke:#000000; stroke-linecap:round; stroke-linejoin:round; stroke-width:2; stroke-opacity:0.1; fill:none" points="1688.39,1147.27 968.79,939.535 968.79,219.933 "/>
<polyline clip-path="url(#clip032)" style="stroke:#000000; stroke-linecap:round; stroke-linejoin:round; stroke-width:2; stroke-opacity:0.1; fill:none" points="1758.19,1086.82 1038.59,879.087 1038.59,159.486 "/>
<polyline clip-path="url(#clip032)" style="stroke:#000000; stroke-linecap:round; stroke-linejoin:round; stroke-width:2; stroke-opacity:0.1; fill:none" points="664.934,1143.82 1080.4,784.022 1800,991.753 "/>
<polyline clip-path="url(#clip032)" style="stroke:#000000; stroke-linecap:round; stroke-linejoin:round; stroke-width:2; stroke-opacity:0.1; fill:none" points="664.934,1047.56 1080.4,687.756 1800,895.487 "/>
<polyline clip-path="url(#clip032)" style="stroke:#000000; stroke-linecap:round; stroke-linejoin:round; stroke-width:2; stroke-opacity:0.1; fill:none" points="664.934,951.291 1080.4,591.49 1800,799.221 "/>
<polyline clip-path="url(#clip032)" style="stroke:#000000; stroke-linecap:round; stroke-linejoin:round; stroke-width:2; stroke-opacity:0.1; fill:none" points="664.934,855.025 1080.4,495.224 1800,702.956 "/>
<polyline clip-path="url(#clip032)" style="stroke:#000000; stroke-linecap:round; stroke-linejoin:round; stroke-width:2; stroke-opacity:0.1; fill:none" points="664.934,758.76 1080.4,398.959 1800,606.69 "/>
<polyline clip-path="url(#clip032)" style="stroke:#000000; stroke-linecap:round; stroke-linejoin:round; stroke-width:2; stroke-opacity:0.1; fill:none" points="664.934,662.494 1080.4,302.693 1800,510.424 "/>
<polyline clip-path="url(#clip032)" style="stroke:#000000; stroke-linecap:round; stroke-linejoin:round; stroke-width:2; stroke-opacity:0.1; fill:none" points="664.934,566.228 1080.4,206.427 1800,414.158 "/>
<polyline clip-path="url(#clip030)" style="stroke:#000000; stroke-linecap:round; stroke-linejoin:round; stroke-width:4; stroke-opacity:1; fill:none" points="664.934,1202.68 1384.54,1410.41 "/>
<polyline clip-path="url(#clip030)" style="stroke:#000000; stroke-linecap:round; stroke-linejoin:round; stroke-width:4; stroke-opacity:1; fill:none" points="734.958,1222.9 739.943,1218.58 "/>
<polyline clip-path="url(#clip030)" style="stroke:#000000; stroke-linecap:round; stroke-linejoin:round; stroke-width:4; stroke-opacity:1; fill:none" points="851.641,1256.58 856.627,1252.26 "/>
<polyline clip-path="url(#clip030)" style="stroke:#000000; stroke-linecap:round; stroke-linejoin:round; stroke-width:4; stroke-opacity:1; fill:none" points="968.325,1290.26 973.31,1285.95 "/>
<polyline clip-path="url(#clip030)" style="stroke:#000000; stroke-linecap:round; stroke-linejoin:round; stroke-width:4; stroke-opacity:1; fill:none" points="1085.01,1323.95 1089.99,1319.63 "/>
<polyline clip-path="url(#clip030)" style="stroke:#000000; stroke-linecap:round; stroke-linejoin:round; stroke-width:4; stroke-opacity:1; fill:none" points="1201.69,1357.63 1206.68,1353.31 "/>
<polyline clip-path="url(#clip030)" style="stroke:#000000; stroke-linecap:round; stroke-linejoin:round; stroke-width:4; stroke-opacity:1; fill:none" points="1318.38,1391.31 1323.36,1387 "/>
<path clip-path="url(#clip030)" d="M674.518 1237.18 Q670.907 1237.18 669.078 1240.74 Q667.272 1244.28 667.272 1251.41 Q667.272 1258.52 669.078 1262.08 Q670.907 1265.63 674.518 1265.63 Q678.152 1265.63 679.957 1262.08 Q681.786 1258.52 681.786 1251.41 Q681.786 1244.28 679.957 1240.74 Q678.152 1237.18 674.518 1237.18 M674.518 1233.47 Q680.328 1233.47 683.383 1238.08 Q686.462 1242.66 686.462 1251.41 Q686.462 1260.14 683.383 1264.75 Q680.328 1269.33 674.518 1269.33 Q668.708 1269.33 665.629 1264.75 Q662.573 1260.14 662.573 1251.41 Q662.573 1242.66 665.629 1238.08 Q668.708 1233.47 674.518 1233.47 Z" fill="#000000" fill-rule="nonzero" fill-opacity="1" /><path clip-path="url(#clip030)" d="M694.68 1262.78 L699.564 1262.78 L699.564 1268.66 L694.68 1268.66 L694.68 1262.78 Z" fill="#000000" fill-rule="nonzero" fill-opacity="1" /><path clip-path="url(#clip030)" d="M709.795 1234.1 L728.152 1234.1 L728.152 1238.03 L714.078 1238.03 L714.078 1246.51 Q715.096 1246.16 716.115 1246 Q717.133 1245.81 718.152 1245.81 Q723.939 1245.81 727.318 1248.98 Q730.698 1252.15 730.698 1257.57 Q730.698 1263.15 727.226 1266.25 Q723.754 1269.33 717.434 1269.33 Q715.258 1269.33 712.99 1268.96 Q710.744 1268.59 708.337 1267.85 L708.337 1263.15 Q710.42 1264.28 712.642 1264.84 Q714.865 1265.4 717.342 1265.4 Q721.346 1265.4 723.684 1263.29 Q726.022 1261.18 726.022 1257.57 Q726.022 1253.96 723.684 1251.85 Q721.346 1249.75 717.342 1249.75 Q715.467 1249.75 713.592 1250.16 Q711.74 1250.58 709.795 1251.46 L709.795 1234.1 Z" fill="#000000" fill-rule="nonzero" fill-opacity="1" /><path clip-path="url(#clip030)" d="M781.016 1298.41 L788.655 1298.41 L788.655 1272.04 L780.345 1273.71 L780.345 1269.45 L788.609 1267.78 L793.285 1267.78 L793.285 1298.41 L800.923 1298.41 L800.923 1302.34 L781.016 1302.34 L781.016 1298.41 Z" fill="#000000" fill-rule="nonzero" fill-opacity="1" /><path clip-path="url(#clip030)" d="M810.368 1296.46 L815.252 1296.46 L815.252 1302.34 L810.368 1302.34 L810.368 1296.46 Z" fill="#000000" fill-rule="nonzero" fill-opacity="1" /><path clip-path="url(#clip030)" d="M835.437 1270.86 Q831.826 1270.86 829.997 1274.43 Q828.192 1277.97 828.192 1285.1 Q828.192 1292.2 829.997 1295.77 Q831.826 1299.31 835.437 1299.31 Q839.071 1299.31 840.877 1295.77 Q842.706 1292.2 842.706 1285.1 Q842.706 1277.97 840.877 1274.43 Q839.071 1270.86 835.437 1270.86 M835.437 1267.16 Q841.247 1267.16 844.303 1271.76 Q847.382 1276.35 847.382 1285.1 Q847.382 1293.82 844.303 1298.43 Q841.247 1303.01 835.437 1303.01 Q829.627 1303.01 826.548 1298.43 Q823.493 1293.82 823.493 1285.1 Q823.493 1276.35 826.548 1271.76 Q829.627 1267.16 835.437 1267.16 Z" fill="#000000" fill-rule="nonzero" fill-opacity="1" /><path clip-path="url(#clip030)" d="M898.695 1332.09 L906.334 1332.09 L906.334 1305.73 L898.024 1307.39 L898.024 1303.13 L906.288 1301.47 L910.964 1301.47 L910.964 1332.09 L918.602 1332.09 L918.602 1336.03 L898.695 1336.03 L898.695 1332.09 Z" fill="#000000" fill-rule="nonzero" fill-opacity="1" /><path clip-path="url(#clip030)" d="M928.047 1330.15 L932.931 1330.15 L932.931 1336.03 L928.047 1336.03 L928.047 1330.15 Z" fill="#000000" fill-rule="nonzero" fill-opacity="1" /><path clip-path="url(#clip030)" d="M943.162 1301.47 L961.519 1301.47 L961.519 1305.4 L947.445 1305.4 L947.445 1313.87 Q948.463 1313.53 949.482 1313.36 Q950.5 1313.18 951.519 1313.18 Q957.306 1313.18 960.685 1316.35 Q964.065 1319.52 964.065 1324.94 Q964.065 1330.52 960.593 1333.62 Q957.121 1336.7 950.801 1336.7 Q948.625 1336.7 946.357 1336.33 Q944.111 1335.96 941.704 1335.22 L941.704 1330.52 Q943.787 1331.65 946.01 1332.21 Q948.232 1332.76 950.709 1332.76 Q954.713 1332.76 957.051 1330.66 Q959.389 1328.55 959.389 1324.94 Q959.389 1321.33 957.051 1319.22 Q954.713 1317.11 950.709 1317.11 Q948.834 1317.11 946.959 1317.53 Q945.107 1317.95 943.162 1318.83 L943.162 1301.47 Z" fill="#000000" fill-rule="nonzero" fill-opacity="1" /><path clip-path="url(#clip030)" d="M1017.6 1365.77 L1033.92 1365.77 L1033.92 1369.71 L1011.98 1369.71 L1011.98 1365.77 Q1014.64 1363.02 1019.22 1358.39 Q1023.83 1353.74 1025.01 1352.4 Q1027.25 1349.87 1028.13 1348.14 Q1029.04 1346.38 1029.04 1344.69 Q1029.04 1341.93 1027.09 1340.2 Q1025.17 1338.46 1022.07 1338.46 Q1019.87 1338.46 1017.42 1339.22 Q1014.99 1339.99 1012.21 1341.54 L1012.21 1336.82 Q1015.03 1335.68 1017.49 1335.1 Q1019.94 1334.52 1021.98 1334.52 Q1027.35 1334.52 1030.54 1337.21 Q1033.73 1339.9 1033.73 1344.39 Q1033.73 1346.52 1032.92 1348.44 Q1032.14 1350.34 1030.03 1352.93 Q1029.45 1353.6 1026.35 1356.82 Q1023.25 1360.01 1017.6 1365.77 Z" fill="#000000" fill-rule="nonzero" fill-opacity="1" /><path clip-path="url(#clip030)" d="M1043.73 1363.83 L1048.62 1363.83 L1048.62 1369.71 L1043.73 1369.71 L1043.73 1363.83 Z" fill="#000000" fill-rule="nonzero" fill-opacity="1" /><path clip-path="url(#clip030)" d="M1068.8 1338.23 Q1065.19 1338.23 1063.36 1341.79 Q1061.56 1345.34 1061.56 1352.46 Q1061.56 1359.57 1063.36 1363.14 Q1065.19 1366.68 1068.8 1366.68 Q1072.44 1366.68 1074.24 1363.14 Q1076.07 1359.57 1076.07 1352.46 Q1076.07 1345.34 1074.24 1341.79 Q1072.44 1338.23 1068.8 1338.23 M1068.8 1334.52 Q1074.61 1334.52 1077.67 1339.13 Q1080.75 1343.71 1080.75 1352.46 Q1080.75 1361.19 1077.67 1365.8 Q1074.61 1370.38 1068.8 1370.38 Q1062.99 1370.38 1059.92 1365.8 Q1056.86 1361.19 1056.86 1352.46 Q1056.86 1343.71 1059.92 1339.13 Q1062.99 1334.52 1068.8 1334.52 Z" fill="#000000" fill-rule="nonzero" fill-opacity="1" /><path clip-path="url(#clip030)" d="M1135.28 1399.46 L1151.6 1399.46 L1151.6 1403.39 L1129.65 1403.39 L1129.65 1399.46 Q1132.32 1396.7 1136.9 1392.07 Q1141.51 1387.42 1142.69 1386.08 Q1144.93 1383.56 1145.81 1381.82 Q1146.71 1380.06 1146.71 1378.37 Q1146.71 1375.62 1144.77 1373.88 Q1142.85 1372.14 1139.75 1372.14 Q1137.55 1372.14 1135.09 1372.91 Q1132.66 1373.67 1129.89 1375.22 L1129.89 1370.5 Q1132.71 1369.37 1135.16 1368.79 Q1137.62 1368.21 1139.65 1368.21 Q1145.03 1368.21 1148.22 1370.89 Q1151.41 1373.58 1151.41 1378.07 Q1151.41 1380.2 1150.6 1382.12 Q1149.82 1384.02 1147.71 1386.61 Q1147.13 1387.28 1144.03 1390.5 Q1140.93 1393.69 1135.28 1399.46 Z" fill="#000000" fill-rule="nonzero" fill-opacity="1" /><path clip-path="url(#clip030)" d="M1161.41 1397.51 L1166.3 1397.51 L1166.3 1403.39 L1161.41 1403.39 L1161.41 1397.51 Z" fill="#000000" fill-rule="nonzero" fill-opacity="1" /><path clip-path="url(#clip030)" d="M1176.53 1368.83 L1194.89 1368.83 L1194.89 1372.77 L1180.81 1372.77 L1180.81 1381.24 Q1181.83 1380.89 1182.85 1380.73 Q1183.87 1380.55 1184.89 1380.55 Q1190.67 1380.55 1194.05 1383.72 Q1197.43 1386.89 1197.43 1392.31 Q1197.43 1397.88 1193.96 1400.99 Q1190.49 1404.06 1184.17 1404.06 Q1181.99 1404.06 1179.72 1403.69 Q1177.48 1403.32 1175.07 1402.58 L1175.07 1397.88 Q1177.15 1399.02 1179.38 1399.57 Q1181.6 1400.13 1184.08 1400.13 Q1188.08 1400.13 1190.42 1398.02 Q1192.76 1395.92 1192.76 1392.31 Q1192.76 1388.69 1190.42 1386.59 Q1188.08 1384.48 1184.08 1384.48 Q1182.2 1384.48 1180.33 1384.9 Q1178.47 1385.31 1176.53 1386.19 L1176.53 1368.83 Z" fill="#000000" fill-rule="nonzero" fill-opacity="1" /><path clip-path="url(#clip030)" d="M1261.11 1418.44 Q1264.46 1419.16 1266.34 1421.43 Q1268.24 1423.7 1268.24 1427.03 Q1268.24 1432.15 1264.72 1434.95 Q1261.2 1437.75 1254.72 1437.75 Q1252.54 1437.75 1250.23 1437.31 Q1247.94 1436.89 1245.48 1436.04 L1245.48 1431.52 Q1247.43 1432.66 1249.74 1433.23 Q1252.06 1433.81 1254.58 1433.81 Q1258.98 1433.81 1261.27 1432.08 Q1263.58 1430.34 1263.58 1427.03 Q1263.58 1423.98 1261.43 1422.26 Q1259.3 1420.53 1255.48 1420.53 L1251.45 1420.53 L1251.45 1416.68 L1255.67 1416.68 Q1259.12 1416.68 1260.94 1415.32 Q1262.77 1413.93 1262.77 1411.34 Q1262.77 1408.67 1260.88 1407.26 Q1259 1405.83 1255.48 1405.83 Q1253.56 1405.83 1251.36 1406.24 Q1249.16 1406.66 1246.52 1407.54 L1246.52 1403.37 Q1249.19 1402.63 1251.5 1402.26 Q1253.84 1401.89 1255.9 1401.89 Q1261.22 1401.89 1264.32 1404.32 Q1267.43 1406.73 1267.43 1410.85 Q1267.43 1413.72 1265.78 1415.71 Q1264.14 1417.68 1261.11 1418.44 Z" fill="#000000" fill-rule="nonzero" fill-opacity="1" /><path clip-path="url(#clip030)" d="M1277.1 1431.2 L1281.99 1431.2 L1281.99 1437.08 L1277.1 1437.08 L1277.1 1431.2 Z" fill="#000000" fill-rule="nonzero" fill-opacity="1" /><path clip-path="url(#clip030)" d="M1302.17 1405.6 Q1298.56 1405.6 1296.73 1409.16 Q1294.93 1412.7 1294.93 1419.83 Q1294.93 1426.94 1296.73 1430.5 Q1298.56 1434.04 1302.17 1434.04 Q1305.81 1434.04 1307.61 1430.5 Q1309.44 1426.94 1309.44 1419.83 Q1309.44 1412.7 1307.61 1409.16 Q1305.81 1405.6 1302.17 1405.6 M1302.17 1401.89 Q1307.98 1401.89 1311.04 1406.5 Q1314.12 1411.08 1314.12 1419.83 Q1314.12 1428.56 1311.04 1433.17 Q1307.98 1437.75 1302.17 1437.75 Q1296.36 1437.75 1293.28 1433.17 Q1290.23 1428.56 1290.23 1419.83 Q1290.23 1411.08 1293.28 1406.5 Q1296.36 1401.89 1302.17 1401.89 Z" fill="#000000" fill-rule="nonzero" fill-opacity="1" /><polyline clip-path="url(#clip030)" style="stroke:#000000; stroke-linecap:round; stroke-linejoin:round; stroke-width:4; stroke-opacity:1; fill:none" points="1384.54,1410.41 1800,1050.61 "/>
<polyline clip-path="url(#clip030)" style="stroke:#000000; stroke-linecap:round; stroke-linejoin:round; stroke-width:4; stroke-opacity:1; fill:none" points="1409.2,1389.06 1400.56,1386.56 "/>
<polyline clip-path="url(#clip030)" style="stroke:#000000; stroke-linecap:round; stroke-linejoin:round; stroke-width:4; stroke-opacity:1; fill:none" points="1479,1328.61 1470.36,1326.12 "/>
<polyline clip-path="url(#clip030)" style="stroke:#000000; stroke-linecap:round; stroke-linejoin:round; stroke-width:4; stroke-opacity:1; fill:none" points="1548.79,1268.16 1540.16,1265.67 "/>
<polyline clip-path="url(#clip030)" style="stroke:#000000; stroke-linecap:round; stroke-linejoin:round; stroke-width:4; stroke-opacity:1; fill:none" points="1618.59,1207.71 1609.96,1205.22 "/>
<polyline clip-path="url(#clip030)" style="stroke:#000000; stroke-linecap:round; stroke-linejoin:round; stroke-width:4; stroke-opacity:1; fill:none" points="1688.39,1147.27 1679.76,1144.77 "/>
<polyline clip-path="url(#clip030)" style="stroke:#000000; stroke-linecap:round; stroke-linejoin:round; stroke-width:4; stroke-opacity:1; fill:none" points="1758.19,1086.82 1749.56,1084.33 "/>
<path clip-path="url(#clip030)" d="M1436.61 1413.98 Q1439.97 1414.7 1441.84 1416.96 Q1443.74 1419.23 1443.74 1422.57 Q1443.74 1427.68 1440.22 1430.48 Q1436.7 1433.28 1430.22 1433.28 Q1428.05 1433.28 1425.73 1432.84 Q1423.44 1432.43 1420.99 1431.57 L1420.99 1427.06 Q1422.93 1428.19 1425.25 1428.77 Q1427.56 1429.35 1430.08 1429.35 Q1434.48 1429.35 1436.77 1427.61 Q1439.09 1425.88 1439.09 1422.57 Q1439.09 1419.51 1436.93 1417.8 Q1434.81 1416.06 1430.99 1416.06 L1426.96 1416.06 L1426.96 1412.22 L1431.17 1412.22 Q1434.62 1412.22 1436.45 1410.85 Q1438.28 1409.46 1438.28 1406.87 Q1438.28 1404.21 1436.38 1402.8 Q1434.5 1401.36 1430.99 1401.36 Q1429.06 1401.36 1426.87 1401.78 Q1424.67 1402.2 1422.03 1403.08 L1422.03 1398.91 Q1424.69 1398.17 1427 1397.8 Q1429.34 1397.43 1431.4 1397.43 Q1436.73 1397.43 1439.83 1399.86 Q1442.93 1402.27 1442.93 1406.39 Q1442.93 1409.26 1441.29 1411.25 Q1439.64 1413.21 1436.61 1413.98 Z" fill="#000000" fill-rule="nonzero" fill-opacity="1" /><path clip-path="url(#clip030)" d="M1506.39 1341.68 L1494.58 1360.13 L1506.39 1360.13 L1506.39 1341.68 M1505.16 1337.61 L1511.04 1337.61 L1511.04 1360.13 L1515.97 1360.13 L1515.97 1364.02 L1511.04 1364.02 L1511.04 1372.17 L1506.39 1372.17 L1506.39 1364.02 L1490.78 1364.02 L1490.78 1359.5 L1505.16 1337.61 Z" fill="#000000" fill-rule="nonzero" fill-opacity="1" /><path clip-path="url(#clip030)" d="M1562.04 1277.16 L1580.4 1277.16 L1580.4 1281.09 L1566.32 1281.09 L1566.32 1289.57 Q1567.34 1289.22 1568.36 1289.06 Q1569.38 1288.87 1570.4 1288.87 Q1576.19 1288.87 1579.56 1292.04 Q1582.94 1295.21 1582.94 1300.63 Q1582.94 1306.21 1579.47 1309.31 Q1576 1312.39 1569.68 1312.39 Q1567.5 1312.39 1565.24 1312.02 Q1562.99 1311.65 1560.58 1310.91 L1560.58 1306.21 Q1562.67 1307.34 1564.89 1307.9 Q1567.11 1308.45 1569.59 1308.45 Q1573.59 1308.45 1575.93 1306.35 Q1578.27 1304.24 1578.27 1300.63 Q1578.27 1297.02 1575.93 1294.91 Q1573.59 1292.81 1569.59 1292.81 Q1567.71 1292.81 1565.84 1293.22 Q1563.99 1293.64 1562.04 1294.52 L1562.04 1277.16 Z" fill="#000000" fill-rule="nonzero" fill-opacity="1" /><path clip-path="url(#clip030)" d="M1642.72 1232.13 Q1639.57 1232.13 1637.72 1234.28 Q1635.89 1236.43 1635.89 1240.18 Q1635.89 1243.91 1637.72 1246.09 Q1639.57 1248.24 1642.72 1248.24 Q1645.87 1248.24 1647.7 1246.09 Q1649.55 1243.91 1649.55 1240.18 Q1649.55 1236.43 1647.7 1234.28 Q1645.87 1232.13 1642.72 1232.13 M1652 1217.47 L1652 1221.73 Q1650.24 1220.9 1648.44 1220.46 Q1646.66 1220.02 1644.9 1220.02 Q1640.27 1220.02 1637.81 1223.15 Q1635.38 1226.27 1635.03 1232.59 Q1636.4 1230.58 1638.46 1229.51 Q1640.52 1228.42 1643 1228.42 Q1648.21 1228.42 1651.22 1231.59 Q1654.25 1234.74 1654.25 1240.18 Q1654.25 1245.51 1651.1 1248.72 Q1647.95 1251.94 1642.72 1251.94 Q1636.72 1251.94 1633.55 1247.36 Q1630.38 1242.75 1630.38 1234.03 Q1630.38 1225.83 1634.27 1220.97 Q1638.16 1216.09 1644.71 1216.09 Q1646.47 1216.09 1648.25 1216.43 Q1650.06 1216.78 1652 1217.47 Z" fill="#000000" fill-rule="nonzero" fill-opacity="1" /><path clip-path="url(#clip030)" d="M1700.18 1156.26 L1722.4 1156.26 L1722.4 1158.25 L1709.86 1190.82 L1704.97 1190.82 L1716.78 1160.2 L1700.18 1160.2 L1700.18 1156.26 Z" fill="#000000" fill-rule="nonzero" fill-opacity="1" /><path clip-path="url(#clip030)" d="M1781.83 1113.96 Q1778.5 1113.96 1776.58 1115.75 Q1774.68 1117.53 1774.68 1120.65 Q1774.68 1123.78 1776.58 1125.56 Q1778.5 1127.34 1781.83 1127.34 Q1785.16 1127.34 1787.09 1125.56 Q1789.01 1123.76 1789.01 1120.65 Q1789.01 1117.53 1787.09 1115.75 Q1785.19 1113.96 1781.83 1113.96 M1777.16 1111.97 Q1774.15 1111.23 1772.46 1109.17 Q1770.79 1107.11 1770.79 1104.15 Q1770.79 1100.01 1773.73 1097.6 Q1776.69 1095.19 1781.83 1095.19 Q1786.99 1095.19 1789.93 1097.6 Q1792.87 1100.01 1792.87 1104.15 Q1792.87 1107.11 1791.18 1109.17 Q1789.52 1111.23 1786.53 1111.97 Q1789.91 1112.76 1791.79 1115.05 Q1793.68 1117.34 1793.68 1120.65 Q1793.68 1125.68 1790.6 1128.36 Q1787.55 1131.05 1781.83 1131.05 Q1776.11 1131.05 1773.04 1128.36 Q1769.98 1125.68 1769.98 1120.65 Q1769.98 1117.34 1771.88 1115.05 Q1773.78 1112.76 1777.16 1111.97 M1775.44 1104.59 Q1775.44 1107.27 1777.11 1108.78 Q1778.8 1110.28 1781.83 1110.28 Q1784.84 1110.28 1786.53 1108.78 Q1788.24 1107.27 1788.24 1104.59 Q1788.24 1101.9 1786.53 1100.4 Q1784.84 1098.89 1781.83 1098.89 Q1778.8 1098.89 1777.11 1100.4 Q1775.44 1101.9 1775.44 1104.59 Z" fill="#000000" fill-rule="nonzero" fill-opacity="1" /><polyline clip-path="url(#clip030)" style="stroke:#000000; stroke-linecap:round; stroke-linejoin:round; stroke-width:4; stroke-opacity:1; fill:none" points="664.934,1202.68 664.934,483.08 "/>
<polyline clip-path="url(#clip030)" style="stroke:#000000; stroke-linecap:round; stroke-linejoin:round; stroke-width:4; stroke-opacity:1; fill:none" points="664.934,1143.82 669.92,1139.5 "/>
<polyline clip-path="url(#clip030)" style="stroke:#000000; stroke-linecap:round; stroke-linejoin:round; stroke-width:4; stroke-opacity:1; fill:none" points="664.934,1047.56 669.92,1043.24 "/>
<polyline clip-path="url(#clip030)" style="stroke:#000000; stroke-linecap:round; stroke-linejoin:round; stroke-width:4; stroke-opacity:1; fill:none" points="664.934,951.291 669.92,946.973 "/>
<polyline clip-path="url(#clip030)" style="stroke:#000000; stroke-linecap:round; stroke-linejoin:round; stroke-width:4; stroke-opacity:1; fill:none" points="664.934,855.025 669.92,850.708 "/>
<polyline clip-path="url(#clip030)" style="stroke:#000000; stroke-linecap:round; stroke-linejoin:round; stroke-width:4; stroke-opacity:1; fill:none" points="664.934,758.76 669.92,754.442 "/>
<polyline clip-path="url(#clip030)" style="stroke:#000000; stroke-linecap:round; stroke-linejoin:round; stroke-width:4; stroke-opacity:1; fill:none" points="664.934,662.494 669.92,658.176 "/>
<polyline clip-path="url(#clip030)" style="stroke:#000000; stroke-linecap:round; stroke-linejoin:round; stroke-width:4; stroke-opacity:1; fill:none" points="664.934,566.228 669.92,561.91 "/>
<path clip-path="url(#clip030)" d="M629.005 1142.47 Q632.361 1143.19 634.236 1145.45 Q636.134 1147.72 636.134 1151.06 Q636.134 1156.17 632.616 1158.97 Q629.097 1161.77 622.616 1161.77 Q620.44 1161.77 618.125 1161.33 Q615.834 1160.92 613.38 1160.06 L613.38 1155.55 Q615.324 1156.68 617.639 1157.26 Q619.954 1157.84 622.477 1157.84 Q626.875 1157.84 629.167 1156.1 Q631.482 1154.37 631.482 1151.06 Q631.482 1148 629.329 1146.29 Q627.199 1144.55 623.38 1144.55 L619.352 1144.55 L619.352 1140.71 L623.565 1140.71 Q627.014 1140.71 628.843 1139.34 Q630.671 1137.95 630.671 1135.36 Q630.671 1132.7 628.773 1131.29 Q626.898 1129.85 623.38 1129.85 Q621.459 1129.85 619.26 1130.27 Q617.06 1130.69 614.422 1131.57 L614.422 1127.4 Q617.084 1126.66 619.398 1126.29 Q621.736 1125.92 623.797 1125.92 Q629.121 1125.92 632.222 1128.35 Q635.324 1130.76 635.324 1134.88 Q635.324 1137.75 633.681 1139.74 Q632.037 1141.7 629.005 1142.47 Z" fill="#000000" fill-rule="nonzero" fill-opacity="1" /><path clip-path="url(#clip030)" d="M626.551 1034.35 L614.746 1052.8 L626.551 1052.8 L626.551 1034.35 M625.324 1030.28 L631.204 1030.28 L631.204 1052.8 L636.134 1052.8 L636.134 1056.69 L631.204 1056.69 L631.204 1064.84 L626.551 1064.84 L626.551 1056.69 L610.949 1056.69 L610.949 1052.17 L625.324 1030.28 Z" fill="#000000" fill-rule="nonzero" fill-opacity="1" /><path clip-path="url(#clip030)" d="M615.232 934.011 L633.588 934.011 L633.588 937.946 L619.514 937.946 L619.514 946.418 Q620.533 946.071 621.551 945.909 Q622.57 945.724 623.588 945.724 Q629.375 945.724 632.755 948.895 Q636.134 952.066 636.134 957.483 Q636.134 963.062 632.662 966.164 Q629.19 969.242 622.871 969.242 Q620.695 969.242 618.426 968.872 Q616.181 968.502 613.773 967.761 L613.773 963.062 Q615.857 964.196 618.079 964.752 Q620.301 965.307 622.778 965.307 Q626.783 965.307 629.121 963.201 Q631.459 961.094 631.459 957.483 Q631.459 953.872 629.121 951.766 Q626.783 949.659 622.778 949.659 Q620.903 949.659 619.028 950.076 Q617.176 950.492 615.232 951.372 L615.232 934.011 Z" fill="#000000" fill-rule="nonzero" fill-opacity="1" /><path clip-path="url(#clip030)" d="M624.607 853.162 Q621.459 853.162 619.607 855.315 Q617.778 857.467 617.778 861.217 Q617.778 864.944 619.607 867.12 Q621.459 869.273 624.607 869.273 Q627.755 869.273 629.584 867.12 Q631.435 864.944 631.435 861.217 Q631.435 857.467 629.584 855.315 Q627.755 853.162 624.607 853.162 M633.889 838.509 L633.889 842.768 Q632.13 841.935 630.324 841.495 Q628.542 841.055 626.783 841.055 Q622.153 841.055 619.699 844.18 Q617.269 847.305 616.922 853.625 Q618.287 851.611 620.347 850.546 Q622.408 849.458 624.884 849.458 Q630.093 849.458 633.102 852.629 Q636.134 855.778 636.134 861.217 Q636.134 866.541 632.986 869.759 Q629.838 872.977 624.607 872.977 Q618.611 872.977 615.44 868.393 Q612.269 863.787 612.269 855.06 Q612.269 846.866 616.158 842.005 Q620.047 837.12 626.597 837.12 Q628.357 837.12 630.139 837.468 Q631.945 837.815 633.889 838.509 Z" fill="#000000" fill-rule="nonzero" fill-opacity="1" /><path clip-path="url(#clip030)" d="M613.912 741.48 L636.134 741.48 L636.134 743.47 L623.588 776.04 L618.704 776.04 L630.509 745.415 L613.912 745.415 L613.912 741.48 Z" fill="#000000" fill-rule="nonzero" fill-opacity="1" /><path clip-path="url(#clip030)" d="M624.283 663.362 Q620.949 663.362 619.028 665.144 Q617.13 666.927 617.13 670.052 Q617.13 673.177 619.028 674.959 Q620.949 676.741 624.283 676.741 Q627.616 676.741 629.537 674.959 Q631.459 673.153 631.459 670.052 Q631.459 666.927 629.537 665.144 Q627.639 663.362 624.283 663.362 M619.607 661.371 Q616.597 660.63 614.908 658.57 Q613.241 656.51 613.241 653.547 Q613.241 649.404 616.181 646.996 Q619.144 644.589 624.283 644.589 Q629.445 644.589 632.384 646.996 Q635.324 649.404 635.324 653.547 Q635.324 656.51 633.634 658.57 Q631.968 660.63 628.982 661.371 Q632.361 662.158 634.236 664.45 Q636.134 666.741 636.134 670.052 Q636.134 675.075 633.056 677.76 Q630 680.445 624.283 680.445 Q618.565 680.445 615.486 677.76 Q612.431 675.075 612.431 670.052 Q612.431 666.741 614.329 664.45 Q616.227 662.158 619.607 661.371 M617.894 653.987 Q617.894 656.672 619.56 658.177 Q621.25 659.681 624.283 659.681 Q627.292 659.681 628.982 658.177 Q630.695 656.672 630.695 653.987 Q630.695 651.302 628.982 649.797 Q627.292 648.292 624.283 648.292 Q621.25 648.292 619.56 649.797 Q617.894 651.302 617.894 653.987 Z" fill="#000000" fill-rule="nonzero" fill-opacity="1" /><path clip-path="url(#clip030)" d="M614.514 582.79 L614.514 578.531 Q616.273 579.365 618.079 579.804 Q619.885 580.244 621.621 580.244 Q626.25 580.244 628.681 577.142 Q631.134 574.017 631.482 567.675 Q630.139 569.666 628.079 570.73 Q626.019 571.795 623.519 571.795 Q618.334 571.795 615.301 568.67 Q612.292 565.522 612.292 560.082 Q612.292 554.758 615.44 551.541 Q618.588 548.323 623.82 548.323 Q629.815 548.323 632.963 552.929 Q636.134 557.513 636.134 566.263 Q636.134 574.434 632.246 579.318 Q628.38 584.179 621.829 584.179 Q620.07 584.179 618.264 583.832 Q616.459 583.485 614.514 582.79 M623.82 568.138 Q626.968 568.138 628.796 565.985 Q630.648 563.832 630.648 560.082 Q630.648 556.355 628.796 554.203 Q626.968 552.027 623.82 552.027 Q620.672 552.027 618.82 554.203 Q616.991 556.355 616.991 560.082 Q616.991 563.832 618.82 565.985 Q620.672 568.138 623.82 568.138 Z" fill="#000000" fill-rule="nonzero" fill-opacity="1" /><polyline clip-path="url(#clip032)" style="stroke:#009af9; stroke-linecap:round; stroke-linejoin:round; stroke-width:4; stroke-opacity:1; fill:none" points="1015.9,862.937 1014.1,864.918 1019.11,858.598 1020.12,857.217 1024.53,851.662 1018.21,859.306 1014.06,864.157 1022.08,854.054 1028.52,845.966 1028.59,845.827 1036.72,835.86 1026.27,848.655 1024.79,850.234 1017.54,858.861 1015.65,860.91 1019.45,855.783 1018.24,856.955 1012.56,863.461 1042.94,825.822 1025.37,848.148 1052.39,815.634 1063.63,803.769 1070.52,798.394 1082.98,786.831 1063.85,813.216 1057.48,820.83 1091.42,782.757 1166.86,700.449 1170.99,708.058 1194.36,690.998 1186.3,707.642 1165.04,737.624 1180.69,722.599 1177.03,730.507 1170.14,734.008 1153.76,754.976 1099.93,800.548 1104.74,790.428 1080.99,815.565 1114.84,777.147 1117.18,775.999 1140.18,760.886 1194.54,706.67 1108.38,794.785 1080.37,812.938 1114.71,772.819 1165.48,727.159 1163.9,733.479 1150.04,753.648 1142.58,759.669 1126.65,773.937 1136.66,756.786 1092.11,801.783 1033.32,856.281 1013.66,867.749 1058.61,817.544 1136.81,741.4 1134.2,752.305 1080.72,809.367 1076.18,813.7 1031.1,853.787 1008.61,867.303 1093.78,776.901 1134.06,749.1 1084.15,803.303 1082.73,810.69 1056.12,836.838 1098.37,791.435 1051.55,830.167 1035.58,841.379 988.997,882.721 1034.51,825.683 1067.67,794.515 1134.66,750.457 1154.3,747.322 1069.33,820.129 1061.71,820.887 1051.4,833.523 1105.32,778.985 1219.78,693.817 1162.7,741.833 1166.95,742.928 1076.82,810.812 1088.91,793.79 1057.93,826.71 1144.89,744.241 1136.52,752.53 1157.61,735.714 1192.07,703.932 1260.15,650.266 1294,633.535 1321.76,616.495 1310.61,631.004 1196.83,724.162 1151.07,767.51 1101.88,801.581 1047.85,846.83 1030.36,851.857 1031.85,846.742 971.505,903.101 974.386,895.956 982.695,884.629 984.936,879.707 963.55,901.263 1017.22,843.136 1048.52,819.074 1107.16,772.404 1055.59,830.332 1076.2,803.289 1018.88,862.434 994.118,881.133 1007.77,867.175 949.048,914.228 1012.74,857.576 1026.12,845.978 1153.61,738.351 1120.86,773.558 1147.74,744.159 1228.73,666.409 1265.82,643.274 1307.9,623.891 1308.89,641.088 1239.97,695.775 1138.05,777.254 1085.88,819.227 1098.32,800.727 1091.18,806.945 1117.9,772.448 1112.18,778.821 1246.65,663.425 1273.94,648.705 1334.51,604.512 1285.47,656.718 1357.58,603.764 1348.32,625.409 1373.74,607.364 1485.08,521.127 1454.15,553.224 1403.55,587.916 1318.69,661.029 1322.16,638.165 1321.46,645.589 1320.91,629.265 1248.76,692.418 1228.78,698.148 1235.91,695.441 1187.31,732.234 1190.23,720.873 1145.6,762.529 1126.9,779.668 1108.89,785.213 1096.65,792.161 1122.58,761.859 1042.37,847.791 1044.01,833.933 1047.85,829.328 1081.49,805.086 1142.06,744.35 1154.93,738.29 1092.07,803.443 1121.77,769.56 1144.79,755.111 1174.36,735.77 1130.53,772.912 1115.75,791.231 1130.36,769.675 1164.86,730.45 1152.7,737.334 1110.03,782.594 1062.9,820.56 1045.32,834.266 1047.4,826.964 1026.86,838.657 947.707,911.218 961.15,904.797 1015.77,856.282 993.082,878.26 935.019,933.321 909.637,959.536 918.547,950.833 980.45,899.129 1030.62,835.995 1092.34,783.617 1190.62,687.313 1208.78,687.519 1255.74,655.484 1263.47,662.835 1236.2,686.014 1251.52,683.3 1219.35,716.716 1173.44,750.241 1190.69,729.371 1259.22,670.848 1142.24,765.867 1129.48,768.53 1103.15,789.356 1196.66,714.243 1252.45,672.49 1339.46,598.745 1372.17,585.49 1329.32,642.691 1290.88,659.052 1247.13,696.166 1165.33,753.933 1251.2,667.053 1281,637.055 1251.16,681.757 1297.63,634.582 1344.38,595.116 1226.52,699.677 1221.89,698.832 1238.74,680.434 1228.45,705.322 1195.2,716.537 1251.2,656.56 1316.51,605.225 1317.8,622.062 1298.43,643.382 1321.18,617.557 1380.16,571.965 1403.87,571.024 1396.48,587.005 1397.75,595.357 1428.52,561.692 1293.23,669.37 1254.85,689.702 1268.23,668.498 1240.43,690.692 1250.63,670.262 1261.86,654.235 1288.74,642.318 1281.38,658.418 1192.51,733.568 1252.44,667.076 1278.14,665.168 1304.18,627.307 1370.48,571.812 1397.5,554.749 1614.41,407.514 1659.31,395.85 1652.83,417.867 1591.41,474.408 1505.26,538.293 1390.02,622.658 1317.45,671.462 1272.65,694.901 1265.93,685.803 1269.01,668.962 1296.29,642.199 1226.68,704.551 1239.11,689.156 1215.35,709.813 1145.78,773.049 1116.96,789.704 1147.57,749.702 1125.82,775.187 1127.97,768.491 1124.73,771.803 1167.55,727.988 1145.92,745.36 1168.23,727.871 1200.44,713.863 1221.19,687.4 1192.13,723.076 1326.51,595.804 1228.07,701.705 1231.15,681.258 1188.34,738.543 1197.58,722.175 1211.44,705.108 1231.66,703.068 1233.38,699.31 1233.87,703.441 1308.98,654.236 1223.39,714.1 1227.94,688.089 1282.32,643.231 1275.3,661.386 1284.85,643.343 1174.93,744.923 1171.28,728.517 1222.04,681.459 1209.87,704.404 1253,673.402 1266.39,668.68 1382.58,594.234 1455.25,549.395 1389.94,590.852 1331.9,638.112 1351.89,626.444 1367.81,606.655 1394.5,588.605 1324.66,641.567 1308.17,642.372 1335.56,619.745 1226.91,706.851 1196.36,728.715 1256.4,664.867 1270.06,658.345 1261.34,668.354 1214.55,712.778 1159.22,753.809 1157.87,749.157 1228.48,686.828 1283.95,643.085 1401.17,547.976 1376.53,585.966 1407.12,564.286 1334.67,615.517 1296.85,642.08 1253.92,680.079 1353.85,583.343 1396.29,586.448 1331.8,630.736 1338.32,604.803 1363.33,596.717 1310.59,638.149 1300.38,645.252 1367.25,594.092 1265.05,674.414 1285.68,652.691 1203.42,717.646 1214.98,702.614 1244.52,670.943 1251.11,668.087 1329.93,596.423 1319.1,619.244 1343.14,620.772 1314.48,644.092 1319.6,649.177 1337.97,626.243 1291.25,647.81 1338.2,598.571 1319.19,627.063 1230.65,702.093 1148.91,765.241 1157.57,743.949 1243.12,665.802 1352.17,595.784 1332.3,623.153 1365.81,595.883 1344.37,615.691 1399.61,571.623 1337.26,618.85 1260.79,687.54 1205.76,715.505 1268.29,653.235 1186.41,731.81 1173.57,739.355 1092.43,816.221 1056.43,837.882 1026.24,856.033 1043.53,835.888 1028.41,849.094 998.952,879.478 969.401,905.668 932.739,938.345 974.738,883.108 992.921,860.911 1055.11,801.676 1115.31,755.333 1111.33,774.733 1155.96,728.843 1130.65,765.454 1038.46,851.345 989.768,886.733 988.304,880.485 1065.88,800.008 1060.81,820.725 1093.09,793.816 1103.34,786.398 1122.89,772.56 1240.37,670.25 1264.91,668.613 1270.51,665.329 1286.83,653.611 1159.2,759.425 1108.32,804.14 1065.23,829.811 1037.42,850.492 1009.94,875.935 1029.83,849.057 984.139,892.557 982.226,883.342 980.602,882.695 976.329,892.809 901.603,966.506 876.042,993.276 862.294,1000.58 861.898,1002.53 887.368,969.422 907.024,948.051 889.482,974.771 882.97,987.842 905.639,953.005 857.772,995.876 841.824,1015.93 852.807,997.201 901.172,944.579 967.334,884.258 1034.19,823.245 1082.59,794.406 1086.48,796.479 1120.82,772.845 1138.25,757.93 1148.44,767.055 1123.31,781.134 1124.26,765.65 1036.89,852.258 1006.68,877.479 1024.65,845.362 1078.97,792.383 1094.8,800.968 1075.91,813.502 1230.74,671.824 1283.97,633.976 1287.32,650.496 1236.14,709.535 1201.2,720.97 1189.26,722 1223.81,686.846 1222.09,698.14 1272.57,647.275 1297.13,632.294 1270.8,654.244 1283.73,646.367 1371.4,572.016 1288.41,657.19 1271.9,664.321 1213.32,709.423 1260.98,673.896 1155.48,759.047 1109.39,793.925 1099.19,792.154 1064.91,828.79 1100.44,796.008 1042.3,850.411 1048.44,844.038 1022.8,857.622 1032.24,837.687 1022.4,855.39 1004.29,874.481 1104.54,765.102 1082.5,808.978 1127.15,758.875 1153.85,737.154 1193.68,714.992 1135.23,774.215 1126.96,769.334 1127.31,772.457 1168.92,730.206 1209.57,695.021 1196.72,716.43 1113.32,799.108 1216.26,692.881 1244.87,686.148 1156.5,758.921 1154.9,748.749 1143.13,761.256 1243.75,674.822 1190.29,726.437 1185.56,726.419 1204.73,705.247 1149.27,754.6 1136.75,760.054 1111.33,791.039 1073.04,822.623 1085.96,798.244 1080.17,798.22 1092.37,789.967 1070.12,811.39 1110.09,769.616 1055.34,825.782 1104.99,789.351 1135.86,764.393 1138.83,751.62 1044.98,843.672 1075.3,820.218 1092.29,792.274 1051.27,825.358 1030,838.813 994.361,874.358 1064.87,818.612 1102.42,778.283 1122.24,756.245 1086.24,805.487 1102.05,790.977 1081.11,808.154 1077.57,797.651 1048.92,815.643 1138.56,745.889 1172.73,726.765 1074.09,824.237 978.311,908.923 964.971,913.091 972.615,896.514 1012.43,854.131 1026.32,847.264 981.726,890.518 1006.47,862.73 1027.27,845.226 1050.99,821.845 1002.73,867.699 1001.97,867.668 967.616,896.967 962.183,899.91 928.158,925.202 905.207,953.01 964.709,891.109 1061.38,797.416 1014.13,859.742 982.465,891.394 985.361,882.876 1050.75,821.083 1076.43,796.893 1059.32,818.729 1048.11,823.332 1029.03,854.926 960.136,910.799 972.573,896.658 950.532,912.343 947.757,910.091 966.58,895.734 1019.71,836.444 1046.23,832.069 1030.33,850.777 959.532,919.613 881.489,999.981 847.598,1027.9 810.574,1061.1 800.13,1067.19 822.557,1036.63 848.58,1004.25 877.826,969.826 946.539,900.252 1004.75,843.125 1023.88,833.491 1065.31,797.756 1049.9,823.345 1028.49,848.408 995.307,885.687 977.078,896.568 1044.95,818.925 1062.32,808.826 1115.12,751.469 1095.53,791.61 1115.75,766.688 1212.47,684.42 1192.59,722.746 1223.37,698.949 1229.29,685.886 1169.36,739.642 1240.37,673.008 1370.18,562.042 1543.12,439.258 1539.14,482.894 1559.22,479.856 1528.87,512.402 1538.73,497.563 1490.38,535.663 1448.68,554.05 1406.73,590.372 1381.24,602.956 1365.47,606.872 1333.44,639.127 1283.95,674.493 1272.09,676.764 1274.77,666.351 1258.44,676.739 1275.73,656.353 1286.02,652.761 1244.78,700.356 1180.07,745.223 1171.03,745.003 1138.72,765.956 1195.75,699.551 1183.8,716.616 1195.91,717.824 1231.74,681.511 1241.96,680.343 1253.37,672.838 1226.82,684.659 1309.84,617.166 1383.74,573.272 1288.4,661.638 1336.81,616.835 1318.81,619.367 1306.96,630.643 1177.17,739.447 1147.63,753.718 1124.43,772.502 1094.4,799.381 1098.25,785.707 1166.88,726.296 1113.72,783.566 1018.55,862.465 1052.88,822.18 1070.48,805.775 1144.78,730.796 1185.85,710.506 1177.73,727.457 1204.39,700.251 1184.79,721.581 1190.6,706.149 1250.52,643.315 1270.4,646.771 1314.65,623.477 1267.73,673.311 1256.02,685.864 1307.51,623.051 1315.36,623.981 1308.8,630.618 1209.23,724.32 1246.28,680.41 1151.74,764.509 1153.63,748.306 1124.26,768.257 1136.72,750.766 1165.49,739.688 1159.52,731.822 1119.25,773.913 1124.8,763.904 1138.84,758.616 1178.55,727.816 1075.76,810.495 1066.74,812.614 1159.24,739.035 1056.08,835.083 1061.43,825.143 992.494,892.91 1014.29,853.998 1000.85,879.592 1007.52,858.168 1132.21,742.856 1197.7,696.669 1244.1,666.523 1258.94,667.421 1185.25,741.024 1163.59,747.355 1162.82,747.482 1201.39,721.604 1205.32,718.564 1232.44,690.876 1294.23,639.36 1264.94,680.331 1234.11,700.285 1260.73,670.776 1155.94,762.1 1116.95,790.722 1027.88,866.203 1066.03,813.447 1054.59,822.03 1051.72,833.345 1048.22,830.211 1067.39,814.07 1038.84,844.44 1041.13,826.901 1097,779.884 1141.38,737.653 1264.66,636.832 1290.26,627.479 1305.27,631.093 1292.31,660.334 1194.75,732.394 1208.67,705.24 1208.71,709.088 1252.5,676.775 1111.85,792.458 1046.52,846.92 1074.43,812.462 1113.72,769.733 1127.39,764.189 1070.11,824.616 1077.23,809.64 1071.47,813.395 1087.29,810.237 1080.52,806.157 1062.06,822.642 1013.94,858.056 1050.08,818.239 1095.38,779.588 1118.76,765.109 1141.3,749.342 1167.33,736.775 1166.38,747.111 1179.43,726.613 1277.71,648.786 1227.88,694.038 1248.08,682.753 1243.31,686.849 1262.74,670.51 1358.07,586.494 1355.95,586.042 1298.7,644.505 1178.89,745.649 1156.4,745.551 1109.64,786.111 1150.15,751.216 1110.94,789.879 1079.63,814.36 1031.27,853.616 1040.31,835.201 961.212,908.521 996.744,868.815 985.088,880.036 1050.5,823.896 1075.97,805.948 1033.71,841.475 1076.88,804.488 1031.44,857.26 989.707,880.37 1003.01,870.031 975.955,898.733 960.793,908.537 996.597,868.381 1022.36,845.431 1100.24,772.064 1069.85,803.215 1116.99,769.771 1133.6,767.959 1148.15,752.429 1070.84,819.863 1022.87,860.715 973.956,894.487 1015.76,853.371 1037.32,843.773 1034.34,844.429 1040.32,832.364 992.385,877.244 1028.29,838.452 1098.46,785.774 1071.22,814.314 1088.69,796.809 1144.14,735.852 1163.41,741.638 1156.26,750.1 1135.21,764.703 1071.2,820.62 1061.98,828.709 1123.54,763.762 1107.47,787.099 1075.19,816.64 996.488,889.787 930.596,957.446 908.616,961.867 895.711,966.717 918.827,942.975 980.034,881.288 964,903.968 967.674,900.747 985.07,881.839 1078.99,794.54 1192.3,690.902 1125.77,764.69 1028.55,853.36 1031.02,844.969 1025.64,851.091 1045.35,837.31 1024.36,852.55 1043.62,833.776 1050,831.78 1058.58,822.541 1038.79,829.156 1054.72,819.759 1062.85,824.832 1137.02,755.083 1223.1,690.787 1286.32,666.008 1268.36,684.011 1292.64,663.335 1423.43,566.216 1419.38,583.545 1435.13,564.548 1444.77,545.473 1365.4,603.683 1315.63,637.827 1301.86,649.643 1229.16,699.994 1249.82,681.408 1265.53,667.351 1225.23,703.477 1226.88,695.729 1165.99,747.449 1081.24,817.316 1051.74,839.545 1060.82,825.447 1094.94,788.213 1119.93,766.222 1047.63,826.006 1088.85,781.299 1074.89,800.648 1080.18,789.599 1100.64,792.789 1039.72,849.312 997.568,882.58 992.972,877.767 985.787,889.57 970.226,902.774 1051.89,820.104 1029.26,844.086 1034.88,852.414 1014.53,863.928 1014.21,867.289 1058.73,833.395 1025.69,857.877 1003.99,876.474 1083.52,810.349 1031.65,848.44 1036.8,832.084 1019.48,854.006 1113.26,764.328 1066.2,812.885 1128.95,769.179 1149.53,744.579 1139.86,754.663 1158.66,753.099 1181.09,727.579 1056.14,845.696 1047.64,847.68 995.697,887.994 994.849,888.384 958.441,913.527 977.607,887.319 1026,839.085 1022.04,848.628 1003.21,868.773 958.166,922.284 949.124,926.444 1024.7,839.758 983.736,890.927 944.434,919.626 920.814,944.291 960.801,900.003 967.331,897.819 977.631,887.669 1011.62,854.912 1022,846.961 1102.23,781.062 1073.06,803.301 989.252,881.974 999.996,871.854 980.28,895.285 1014.87,868.637 1079.26,798.763 1048.78,832.662 1063.29,808.614 1075.12,804.586 1107.44,778.457 1194.66,712.449 1150.18,765.259 1052.84,848.045 1000.43,884.689 1026.64,845.695 1040.94,825.681 1099.94,780.24 1055.21,834.085 1003.15,882.244 1004.15,869.703 1026.17,847.882 1074.93,807.231 1212.1,683.291 1214.26,696.019 1280.82,646.923 1199.13,730.447 1260.42,661.998 1306.71,610.997 1438.05,522.024 1477.99,505.568 1568.24,445.963 1581.99,452.652 1630.52,430.863 1692.25,391.341 1709.82,401.8 1708.17,403.565 1767.87,355.68 1626.59,483.352 1559.69,519.209 1493.55,557.726 1407,615.551 1413.2,591.131 1506.33,495.852 1511.76,494.64 1482.06,527.539 1424.02,577.389 1438.26,556.7 1475.11,521.328 1387.65,603.872 1370.56,611.26 1318.2,651.34 1252.8,703.102 1293.61,647.038 1312.4,628.607 1338.28,604.801 1335.59,615.288 1389.92,573.013 1311.69,649.223 1270.63,672.233 1169.65,758.109 1175.35,737.693 1203,707.164 1250.77,667.427 1286.98,647.463 1231.87,694.223 1206.72,726.406 1166.88,756.81 1161.95,756.66 1236.76,672.476 1232.56,684.802 1183,731.084 1185.33,716.382 1139.31,765.163 1141.48,743.713 1170.36,718.962 1204.55,701.667 1220.38,686.6 1215.88,691.235 1296.01,622.834 1306.72,623.429 1404.51,546.6 1450.06,536.23 1419.2,576.43 1526.35,490.257 1551.07,477.696 1637.35,418.201 1689.36,388.202 1718.05,376.313 1690.48,411.768 1615.82,465.359 1611.59,462.478 1503.13,543.672 1450.37,576.486 1461.93,546.52 1456.39,550.345 1400.58,594.871 1421.09,562.424 1436.52,542.843 1395.07,588.553 1376.47,602.242 1332.9,637.722 1339.04,625.652 1277.09,673.556 1277.05,665.96 1281.84,655.85 1277.88,652.878 1196.47,726.938 1192.64,727.741 1211.23,702.296 1194.62,722.843 1189.98,726.384 1190.28,720.866 1225.52,702.045 1276.25,651.835 1357.72,595.934 1313.11,644.975 1240.77,691.777 1215.14,703.207 1180.76,731.645 1137.97,774.484 1110.43,787.796 1074.39,819.443 1027.79,863.98 1047.26,830.006 1020.4,857.44 1039.17,832.302 990.204,876.125 952.356,913.328 971.395,893.823 1026.18,847.935 1102.46,777.274 1011.13,860.631 984.901,878.223 985.315,880.694 873.835,983.743 843.415,1017.01 869.077,986.238 891.078,961.921 872.218,982.893 846.36,1014.11 828.737,1032.67 851.266,997.874 853.781,999.954 911.49,935.731 973.421,883.24 1036.49,822.948 981.876,883.825 997.233,873.022 1050.43,811.842 1067.37,801.41 1146.16,735.088 1145.94,744.052 1129.31,770.14 1196.22,696.426 1115.05,763.566 1232.03,677.479 1288.07,636.088 1225.6,706.684 1194.85,723.772 1165.23,745.234 1202.12,712.49 1188.45,727.017 1162.66,747.053 1099.78,793.677 1106.42,786.616 1035.05,855.427 1039.8,844.441 1035.62,841.318 1044.53,831.843 1020.91,865.262 1043.86,836.33 1009.17,854.449 1022.99,842.526 1070.53,806.541 1083.23,799.793 1018.16,864.96 1097.97,783.333 1080.92,803.094 1117.13,765.559 1199.99,708.281 1217.93,689.321 1278.3,633.039 1219.92,699.004 1236.67,685.63 1139.55,770.621 1083.68,810.729 1093.88,798.479 1085.21,799.163 1064.53,813.706 1133.52,756.961 1041.85,844.966 968.045,917.152 997.514,871.88 1011.16,856.675 1010.82,858.117 1036.94,841.472 1012.16,867.753 1019.55,850.929 1017.96,854.451 1041.97,840.55 1117.63,759.354 1156.84,736.244 1289.22,614.834 1336.2,594.024 1305.4,649.073 1286.94,661.534 1247.73,701.756 1224.77,712.129 1353.41,590.707 1430.94,556.652 1434.37,558.791 1418.8,555.952 1377.36,589.781 1382.6,590.696 1301.47,668.071 1260.15,696.766 1259.38,690.559 1190.55,737.105 1180.93,735.34 1190.55,717.228 1155.78,751.348 1097.88,800.504 1171.82,716.979 1173.81,728.899 1226.88,681.458 1185.74,728.8 1087.74,817.185 1078.38,817.13 1058.57,829.027 1069.69,811.553 1086.06,795.366 1120.21,766.405 1134.57,758.271 1026.32,857.442 1047.76,824.544 1040.44,838.965 1088.32,799.694 1076.06,810.184 1126.03,769.399 1158.12,731.948 1162.52,741.872 1233.48,680.384 1253.99,667.917 1234.17,693.037 1205.71,719.674 1145.05,767.431 1179.41,728.198 1172.39,747.811 1125.34,777.743 1169.75,722.974 1118.92,778.645 1237.86,665.371 1202.55,711.304 1332.94,589.087 1302.02,649.831 1229.37,707.82 1232.11,700.116 1277.67,650.76 1250.33,683.607 1256.24,677.428 1286.14,667.065 1225.93,698.092 1289.39,635.839 1260.66,683.385 1294.62,654.118 1253.62,681.517 1272.94,656.34 1276.27,653.361 1349.94,592.762 1367.35,589.481 1310.32,644.804 1371.63,592.003 1394.59,578.356 1379.97,598.586 1360.27,611.94 1440.77,543.894 1322.12,642.665 1256.81,691.388 1200.21,736.234 1130.9,787.898 1156.56,747.979 1098.91,801.606 1115.82,782.877 1154.1,744.365 1133.63,759.93 1130.62,767.855 1105.68,786.893 1157.54,735.466 1195.56,720.285 1165.45,738.392 1264.01,656.996 1303.42,636.219 1297.58,653.354 1194.18,727.29 1182.96,737.579 1180.62,731.312 1124.22,779.455 1093.11,798.204 1127.1,758.929 1087.62,802.64 1098.41,790.566 1040.89,843.932 985.605,891.327 944.046,932.265 954.626,915.324 956.561,907.822 985.078,882.489 979.659,889.941 1020.98,850.897 1009.42,864.74 918.175,953.167 923.317,939.481 930.624,933.857 983.735,875.569 994.373,873.521 995.901,876.414 989.67,880.084 1090.21,793.347 1106.11,775.322 1151.91,748.649 1181.14,720.421 1261.05,656.164 1273.28,650.28 1331.68,596.97 1221.66,710.359 1272.47,653.577 1368.22,582.631 1441.11,535.779 1424.65,559.027 1358.27,609.613 1378.87,587.457 1386.39,588.865 1346.97,628.59 1358.8,603.428 1294.08,656.854 1143.65,788.775 1121.34,786.131 1134.55,760.675 1191.2,702.983 1217.5,693.212 1270.55,648.544 1278.35,650.946 1300.01,631.915 1296.64,638.167 1265.86,660.719 1356.71,602.578 1310.87,648.988 1391.05,585.166 1341.21,619.219 1269.06,675.374 1222.53,705.565 1150.86,766.566 1100.23,803.15 1103.87,785.194 1053.79,829.483 1078.48,801.356 1055.49,823.827 1058.33,823.781 1049.96,837.551 1006.48,867.065 1060.02,824.098 1147.38,746.462 1208.02,706.428 1119.62,774.218 1114.26,782.393 1143.82,747.585 1077.57,798.591 1142.13,745.697 1129.52,761.201 1094.62,789.192 1073.51,811.085 1078.39,805.092 1061.55,813.223 1164.77,717.072 1202.07,693.091 1135.49,750.153 1148.16,752.38 1143.81,760.822 1081.74,802.445 1041.82,837.089 1043.4,833.634 1064,815.395 1059.14,825.006 1111.39,784.314 1110.05,777.224 1220.11,674.259 1293.45,621.497 1272.53,655.073 1253.11,675.001 1207.96,718.777 1138.88,773.205 1210.33,695.544 1194.01,718.052 1206.84,708.336 1174.39,753.542 1188,734.234 1187.04,733.253 1180.53,728.181 1168.08,744.834 1184.59,723.261 1180.18,737.836 1093.4,808.656 1096.41,798.13 1075.8,811.258 1144.28,738.287 1126.77,770.649 1088.36,798.234 1021.42,865.93 1088.08,793.871 1133.82,754.485 1094.76,785.455 1136,752.454 1145.28,746.458 1133.73,759.463 1150.68,732.651 1069.61,803.739 986.859,872.337 1004.15,859.437 1084.19,799.468 1108.98,778.736 1107.47,783.445 1081.74,815.872 1122.44,774.188 1050.02,824.64 1026.36,852.551 937.992,937.883 914.888,956.875 945.152,912.705 954.766,904.098 1009.25,855.481 954.637,914.396 952.171,908.977 1007.37,849.156 1047.07,814.274 1095.29,782.714 1011.44,868.648 1004.43,862.746 1006.97,866.368 1025.52,848.392 1097.33,777.177 1064.84,815.454 1075.73,804.027 1073.09,816.079 1146.37,737.742 1175.09,726.257 1220.82,687.053 1097.91,785.657 1094.39,780.438 1064.91,825.039 1101.52,784.519 1124.57,759.227 1084.87,809.012 1098.02,794.126 1146.15,754.077 1099.28,784 1146.56,748.564 1230.59,686.614 1228.61,687.871 1179.91,735.76 1135.75,764.698 1101.54,793.841 1086.38,800.599 1145.97,742.129 1203.98,683.595 1174.87,696.345 1098,758.751 1143.69,739.603 1067.8,804.584 1147.8,746.402 1173.53,721.004 1173.64,732.543 1168.2,737.413 1137.11,759.782 1084.62,808.986 1172.15,720.843 1162.15,736.888 1234.47,681.909 1238.79,682.276 1309.27,644.74 1324.33,634.178 1367.87,595.65 1377.46,584.641 1336.68,613.207 1247.12,689.698 1221.19,708.769 1167.83,751.441 1131.83,775.826 1243.18,653.152 1305.95,617.398 1305.32,623.823 1316.27,624.379 1273.92,666.94 1287.93,649.373 1230.87,698.004 1282.7,647.359 1305.38,629.537 1301.63,650.345 1217.42,713.344 1160.01,761.518 1140.85,773.646 1065.33,838.882 1038.22,854.539 993.802,888.337 968.521,907.021 986.643,881.419 990.599,876.381 1062.01,803.108 1073.83,808.241 1090.54,789.031 1064.74,815.611 1051.58,832.03 1110.89,769.903 1189.83,712.46 1198.08,711.683 1212.57,701.455 1272.89,660.106 1329.05,609.286 1254.08,677.247 1351.69,593.915 1468.39,510.524 1485.92,514.612 1499.66,520.147 1460.62,545.976 1402.25,597.386 1328.28,646.354 1354.64,609.896 1414.19,561.687 1446.08,534.992 1368.12,607.186 1359.22,606.539 1326.49,628.041 1350.49,599.842 1380.6,585.767 1473.66,510.918 1484.5,517.947 1483.47,526.635 1483.56,521.244 1444.64,557.352 1375.38,603.249 1350,621.437 1296.99,657.233 1315.04,631.169 1267.23,671.215 1272.04,671.24 1307.82,639.601 1311.56,627.726 1311.33,625.626 1379.08,587.945 1407.82,565.685 1358.33,602.41 1405.35,563.356 1343.98,637.04 1277.91,684.143 1290.86,655.206 1374.53,583.822 1324.24,636.637 1264.08,677.451 1259.8,674.427 1236,695.381 1182.67,739.006 1178.31,732.38 1183.1,726.435 1235.3,675.081 1237.12,677.608 1357.46,579.589 1396.64,560.463 1311.15,633.899 1264.72,667.453 1344.28,599.522 1331.95,628.851 1359.21,598.844 1426.23,556.277 1342.56,624.407 1309.28,645.428 1227.5,702.98 1228.42,688.66 1287.15,617.995 1254.27,658.57 1219.5,701.528 1176.79,730.741 1203.23,696.199 1280.38,633.697 1274.56,652.955 1220.25,698.637 1266.72,671.425 1245.51,694.208 1157.47,771.072 1089.87,817.236 1093.55,799.974 1072.67,814.013 1018.41,866.086 1089.83,777.011 1190.93,686.505 1289.55,610.863 1169.1,743.792 1143.29,768.273 1152.72,753.926 1093.13,800.646 1120.16,770.979 1167.06,740.369 1208.84,702.71 1157.29,750.848 1189.32,713.145 1199.3,710.154 1214.7,700.763 1122.89,784.984 1100.05,799.629 1102.69,794.912 1071.61,815.912 1060.94,822.388 1110.23,769.465 1155.14,730.993 1158.43,738.563 1156.41,744.195 1088.87,813.48 1071.72,819.114 1056.98,829.186 992.493,895.371 947.299,930.177 946.641,921.209 992.07,870.431 987.231,882.707 998.564,871.127 1001.6,865.471 1097.22,776.356 1132.74,751.023 1142.57,758.031 1160.09,741.547 1193.34,710.488 1204.12,707.677 1187.72,734.821 1248.11,682.416 1249.84,689.731 1253.69,679.325 1200.14,725.526 1136.09,767.424 1117.97,784.64 1132.26,759.312 1074.13,816.621 1116.41,765.267 1208.74,691.932 1255.46,651.121 1358.27,590.911 1355.6,601.206 1394.54,577.741 1324.3,636.321 1376.05,585.627 1372.88,590.379 1290.19,654.604 1259.35,679.819 1250.16,683.283 1298.68,647.403 1270.35,662.254 1227.23,699.846 1078.09,834.782 1036.71,862.237 1013.51,871.029 1031.31,841.373 977.764,899.956 955.243,917.801 943.902,924.896 918.811,949.138 865.597,1003.19 862.056,999.47 867.737,988.946 858.86,997.744 852.902,1005.73 808.54,1056.44 816.055,1044.61 841.945,1010.98 860.919,992.474 867.276,989.752 830.588,1029.74 841.344,1019.03 869.205,983.726 893.029,955.955 923.858,927.532 915.773,939.882 945.294,904.573 931.607,934.048 957.632,903.33 954.985,903.039 979.825,881.636 1062.47,813.574 1112.32,765.47 1135.65,750.898 1109.89,783.966 1160.84,729.561 1157.11,736.016 1174.2,725.069 1241.08,669.839 1229.31,693.467 1197.27,708.772 1144.81,759.88 1141.79,784.157 1078.21,826.097 995.336,899.021 937.769,945.441 936.13,934.96 931.902,933.771 917.108,941.825 940.029,920.028 951.953,913.824 942.636,929.07 933.634,934.279 1038.74,824.626 1093.62,781.495 1116.12,760.361 1159.88,738.093 1163.43,745.231 1182.32,735.17 1141.9,766.212 1121.42,778.224 1073.91,819.988 1135.48,762.492 1140.21,752.746 1009.13,880.345 981.051,901.145 946.656,924.038 857.488,1015.5 798.434,1077.34 800.361,1070.92 777.142,1090.56 788.66,1071.6 769.944,1093.58 743.684,1126.85 731.307,1137.01 712.693,1160.01 727.553,1137.59 697.059,1178.01 707.844,1164.81 744.306,1114.94 742.602,1117.44 783.304,1064.46 819.78,1029.51 802.891,1056.69 787.944,1073.06 777.381,1082.86 774.51,1089.44 782.002,1077.4 769.829,1093.04 825.319,1021.01 819.3,1034.85 790.497,1070.46 773.559,1085.42 778.011,1079.81 779.262,1079.3 824.141,1018.51 819.098,1033.13 795.25,1065.53 783.407,1078.69 785.232,1077.62 778.906,1081.55 793.201,1066.05 775.724,1087.44 784.293,1077.78 771.702,1094.51 803.08,1049.86 819.988,1038.64 828.077,1029.59 807.368,1057.53 774.045,1094.07 771.213,1088.31 789.766,1071.21 846.922,996.258 858.918,993.152 871.654,978.244 964.698,880.058 1073.54,779.609 1107.32,764.333 1067.2,814.404 1066.29,821.05 1068.25,814.015 1085.57,799.214 1112.22,772.731 1168.7,723.94 1181.27,718.759 1091.13,806.134 1129.57,761.987 1149.17,751.223 1171.02,744.127 1076.53,820.254 1070.02,818.929 1066.99,815.142 1032.63,849.945 1065.77,811.473 1089.89,799.218 1044.49,840.77 1019.54,868.544 960.885,923.196 972.646,890.467 1071.54,800.626 1097.6,786.326 1061.22,826.687 1030.15,852.539 953.469,937.254 956.035,907.646 931.818,935.271 932.326,929.917 978.413,883.361 1045.1,816.376 1053.94,815.238 1023.46,857.639 1023.29,852.177 955.914,926.145 908.033,969.679 864.978,1007.74 910.038,945.294 918.1,936.549 933.267,923.749 949.316,909.493 959.531,902.721 976.467,885.098 1040.29,830.256 1018.72,854.303 1014.55,850.114 989.681,881.393 1053.13,828.555 1054.93,825.176 1148.9,738.031 1185.15,711.624 1238.7,686.931 1275.97,653.475 1303.77,627.122 1372.87,572.241 1378.49,591.092 1251.92,697.056 1238.73,685.481 1219.59,700.414 1232.36,692.504 1228.9,690.413 1275.47,656.621 1335.78,599.674 1224.81,693.146 1185.97,721.705 1190.09,716.407 1159.34,753.639 1092.05,807.847 1078.53,811.153 1043.12,846.796 989.888,890.688 988.05,883.801 1004.96,862.407 995.762,869.338 1079.31,796.693 1102.55,778.622 1168.93,723.741 1264.81,634.952 1303.81,624.052 1255.82,678.394 1262.88,667.944 1366.92,585.485 1335.05,622.772 1300.21,647.593 1287.24,649.392 1319.89,612.585 1446.33,521.76 1375.04,588.616 1264.54,686.497 1192.95,739.757 1161.38,750.793 1170.35,739.439 1151.44,747.562 1123.79,777.468 1121.37,775.932 1192.36,703.408 1178.83,715.112 1139.71,753.745 1139.88,751.545 1078.44,807.305 1112.55,767.302 1059.18,819.13 1053.98,824.628 1092.07,791.515 1100.02,784.347 1054.71,829.463 1088.67,802.16 1065.51,805.014 1076.39,810.041 1020.15,857.798 981.993,889.626 1062.05,809.549 1049.55,835.305 1047.66,836.364 1132.45,774.074 1191.92,722.689 1135.27,773.548 1119.31,786.971 1029.62,855.518 1029,855.03 1079.75,795.994 1152.03,730.966 1118.43,768.602 1110.03,780.437 1194.71,705.199 1278.68,631.426 1198.73,703.642 1305.35,622.535 1239.02,695.037 1301.07,634.011 1258.98,668.455 1289.24,642.527 1314.35,619.685 1298.88,648.41 1364.87,585.169 1369.48,588.309 1346.08,612.323 1394.27,578.323 1433.34,537.755 1441.18,566.428 1448.12,559.144 1394.95,591.701 1384.66,590.702 1261.13,690.117 1298.6,645.489 1297.28,647.299 1309.41,646.417 1279.88,656.98 1289.52,655.789 1214.65,713.025 1189.28,734.001 1216.95,702.596 1180.62,734.692 1167.92,739.098 1188.89,710.306 1230.06,672.155 1218.35,703.398 1189.26,733.138 1173.44,749.733 1212.1,712.499 1196.01,711.852 1259.69,652.687 1364.58,571.23 1337.35,604 1287.46,659.358 1265.32,678.937 1240,696.18 1263.99,675.323 1329.27,615.704 1238.72,687.815 1201.2,723.538 1230.95,693.153 1211.74,716.084 1182.15,732.862 1083.51,823.876 1089.96,808.228 1129,763.69 1071.26,817.873 1165.49,726.368 1141.98,763.843 1202.02,705.875 1104.57,790.702 1137.75,749.211 1285.74,632.367 1296.39,635.457 1375.16,570.732 1285.71,660.426 1349.46,613.152 1256.04,692.539 1246.28,682.872 1248.66,685.138 1199.62,729.965 1224.58,708.632 1138.62,784.739 1119.88,791.072 1067.6,831.73 1094.15,799.506 1119.33,770.116 1093.29,794.384 1096.83,789.303 1116.42,780.173 1182.38,705.202 1258.79,663.001 1298.41,632.779 1324.35,616.817 1271.48,672.643 1239.13,700.112 1230.08,702.075 1254.24,679.328 1288.74,649.374 1203,720.896 1146.9,760.32 1130.09,771.152 1180.48,720.712 1149.51,752.644 1160.21,748.809 1183.15,730.731 1145.26,750.259 1151.22,739.877 1176.38,715.423 1119.63,781.142 1083.03,804.704 1085.21,803.816 1098.72,787.886 1168.88,726.479 1240.43,669.408 1302.35,621.502 1263.13,668.355 1243.56,688.567 1275.75,667.532 1289.52,663.379 1292.86,650.99 1321.29,636.515 1229.5,709.018 1178.37,740.282 1192.14,717.843 1194.87,725.43 1267.24,652.774 1247.87,674.631 1277.23,651.046 1259.95,673.359 1306.6,643.63 1244.7,702.15 1160.49,760.405 1197.9,714.762 1161.01,743.29 1082.43,820.799 1003.13,885.296 977.676,903.035 984.278,889.513 1015.22,852.105 1082.87,791.438 1091.61,789.087 1031.67,852.658 977.407,902.874 1023.01,844.724 1036.95,835.254 981.926,897.737 976.028,894.811 982.109,886.494 985.752,884.053 1058.23,806.024 1041.45,831.858 1072.78,800.11 1039.77,849.45 1023.42,857.405 1014.99,859.909 972.406,904.342 1026.97,847.001 1031.63,841.619 961.028,895.946 1064.36,795.808 1083.14,792.654 1036.38,849.801 1060.86,821.979 1076.01,823.216 1119.84,777.767 1166.04,734.112 1168.35,733.63 1139.23,755.833 1045.78,821.739 1099.52,780.993 991.517,882.059 1016.89,845.024 1010.58,855.403 945.318,921.285 951.609,902.721 978.979,884.444 1015.03,854.654 974.088,898.741 975.942,895.825 1020.98,838.361 1060.44,800.842 1114.23,758.189 1105.25,778.698 1045.98,835.75 1046.63,818.042 1143.6,731.381 1140.02,752.904 1138.98,751.983 1078.46,812.887 1103.48,783.267 1209.08,698.318 1368.2,552.657 1464.29,506.394 1389.71,586.92 1361.1,611.988 1381.49,586.057 1240.38,714.112 1214.87,718.576 1176.34,743.528 1236.78,669.396 1251.1,670.815 1360.74,577.143 1411.47,557.307 1304.29,667.201 1351.02,613.913 1330.56,627.297 1365.39,597.77 1367.99,603.822 1282.33,671.456 1322.38,626.374 1402.11,564.892 1473.51,502.779 1367.38,606.908 1314.79,642.368 1319.56,629.074 1316.15,633.175 1280.7,658.097 1218.34,712.361 1274.63,655.452 1251.38,681.057 1268.71,658.502 1351.76,589.726 1410.66,539.382 1341.47,603.256 1357.64,599.311 1307.05,619.078 1401.43,547.354 1422.79,553.831 1290.42,662.602 1209.71,722.913 1249.53,669.212 1254.87,669.279 1273.81,664.042 1221.24,711.822 1142.42,768.402 1133.61,766.744 1120.05,782.104 1106.92,790.902 1085.31,813.397 1035.31,860.934 1003.15,878.519 1064.11,805.187 1081.66,799.386 1042.1,843.391 1088.37,794.99 1109.81,771.764 1094.97,794.729 1101.72,785.603 1074.22,815.341 1111.54,783.987 1229.59,673.769 1205.55,709.603 1206.64,708.062 1211.38,716.583 1240.38,682.226 1206.17,716.208 1308.65,622.904 1404.82,548.471 1347.65,615.109 1305.24,646.021 1207.35,731.024 1202.62,713.249 1135.54,767.485 1063.03,834.687 1088.91,800.52 1098.86,781.649 1064.43,812.975 1085.93,810.376 1178.2,712.927 1156.41,734.109 1128.59,756.581 1125.99,759.731 1129.89,760.194 1094.92,793.458 1017.84,861.88 1043.99,825.908 1125.34,747.794 1117.14,775.252 1130.73,764.1 1159.46,745.891 1083.46,811.977 1172.25,722.252 1294.69,625.873 1428.55,531.224 1462.75,529.223 1451.12,539.399 1540.37,474.592 1434.22,573.657 1375.06,607.056 1332.43,637.223 1262.66,688.313 1316.57,624.073 1274.36,670.816 1247.68,684.77 1284.67,644.492 1227.8,702.976 1223.15,699.861 1245.81,671.722 1254.19,674.421 1246.1,685.163 1231.72,686.85 1207.94,711.282 1132.71,785.685 1224.38,696.912 1321.95,623.425 1281.92,670.434 1226.27,711.764 1172.52,755.784 1084.03,824.356 1061.89,833.281 1109.35,773.153 1132.61,752.207 1153.95,738.435 1194.46,698.777 1180.63,727.664 1207.5,698.52 1146.54,744.442 1149.59,749.417 1146.97,755.336 1156.76,745.347 1069.4,823.262 1064.42,825.991 1102.73,781.862 1111.44,771.861 1082.44,803.888 1078.94,804.938 1027.63,858.192 1026.34,853.305 1032.38,838.062 1052.52,816.598 927.639,936.487 936.257,927.58 981.677,881.775 980.642,888.079 1014.01,846.659 1030.66,846.584 1089.6,778.838 1099.45,781.695 1118.48,766.893 1081.98,806.613 1127.66,766.509 1105.6,787.884 1033.64,853.295 1062.56,815.128 1067.62,819.755 1128.41,759.068 1059.84,816.296 1098.39,793.743 1145.41,747.241 1237.5,683.436 1324.85,606.602 1330.13,614.834 1306.28,636.684 1339.11,622.437 1232.46,703.8 1202.74,722.99 1141.67,769.893 1114.97,790.569 1078.2,821.075 1044.74,845.022 1086.78,797.416 1116.91,772.049 1182.89,709.406 1165.98,737.201 1209.99,678.895 1146.49,752.883 1109.15,787.989 1117.64,769.833 1078.4,795.234 1059.23,813.479 1069.27,809.284 1043.84,838.5 1069.52,803.292 1233.82,649.732 1297.19,617.076 1213.97,703.253 1237.01,685.097 1192.63,731.032 1154.87,762.498 1126.97,780.67 1070.65,826.7 1100.49,785.732 1063.11,812.459 1141.03,739.522 1187.96,716.184 1153.68,761.614 1087.98,812.072 1039.1,851.593 1042.58,842.996 986.712,904.37 998.905,874.181 1000.52,872.601 1029.31,841.512 1064.75,811.615 983.481,893.516 1008.66,864.949 1047.14,830.221 1062.99,818.38 1059.9,827.115 1081.57,802.898 1123.88,776.917 1097.61,796.031 1188.06,730.169 1075.78,828.835 1078.45,820.888 1002.49,882.951 989.979,890.635 1027.98,841.328 1048.87,814.397 1061.28,807.819 1046.04,830.759 999.87,877.989 1001.26,861.104 1028.83,843.687 1096.5,779.1 1041.61,836.929 1034.5,839.066 1069.57,808.934 1062.97,814.747 1024.64,837.256 1033.46,843.353 1167.5,709.114 1185.47,706.302 1177.02,721.906 1207.5,711.078 1257.15,665.184 1235.55,686.544 1258.47,683.719 1260.52,676.269 1154.43,753.501 1165.27,740.817 1174.74,718.852 1203.5,691.51 1344.39,585.732 1422.6,538.776 1450,540.503 1472.62,524.109 1456.96,530.797 1553.61,468.14 1578.32,453.971 1640,416.423 1621.02,445.809 1504.66,542.93 1469.81,553.629 1409.24,595.147 1398.27,593.244 1356.12,620.502 1445.32,529.069 1430.47,550.583 1459.03,530.159 1480.98,515.944 1439.46,561.716 1460.29,538.043 1475.42,520.746 1466.97,531.695 1507.8,496.125 1583.87,441.671 1533.99,495.404 1493.07,534.293 1417.11,585.983 1369.68,618.163 1311.76,656.629 1300.37,655.966 1225.37,719.453 1197.89,734.541 1166.71,751.973 1159.67,750.06 1104.7,798.259 1094.19,801.063 1119.2,767.29 1103.72,785.143 1128.8,758.121 1194.85,701.947 1178.73,723.463 1152.91,750.931 1127.03,778.073 1146.26,755.67 1201.02,706.598 1121.81,784.169 1070.67,818.19 1047.84,832.842 972.261,909.242 973.709,897.061 999.897,868.097 995.142,869.733 959.062,902.829 986.376,879.118 980.27,898.683 996.393,877.529 1006.4,871.811 1123.69,761.833 1086.84,809.842 1112.68,767.325 1096.18,780.766 1100.2,786.721 1144.89,750.605 1289.85,626.503 1253.56,668.636 1133.87,761.359 1155.03,747.169 1116.63,783.186 1005.47,874.351 1021.68,852.995 1014.85,861.396 999.279,873.641 953.144,918.906 961.528,905.641 922.069,948.881 944.97,918.799 953.719,906.614 890.191,975.274 930.958,938.225 965.607,900.852 990.989,872.391 1034.86,828.329 996.038,876.307 976.026,896.053 1011.07,862.58 1010.43,861.932 1014.62,847.336 1012.42,854.224 972.566,903.29 1017.55,852.513 1067.66,809.932 1046.77,828.226 1109.22,786.442 1110.46,787.098 1147.1,753.489 1216.55,697.565 1222.21,687.749 1319.64,620.397 1271.8,670.467 1299.38,647.601 1269.57,676.304 1303.84,641.278 1259.41,682.546 1250.07,678.284 1298.13,638.288 1331.44,644.778 1321.16,642.272 1244.8,694.462 1254.15,673.029 1184.35,734.102 1200.58,709.39 1222.33,695.578 1098.11,806.165 1109.99,782.071 1112.45,772.105 1141.17,746.85 1163.57,741.659 1146.36,762.394 1170.32,730.153 1174.55,730.305 1221.63,688.167 1174.57,737.161 1125.38,787.486 1119.09,780.257 1048.39,848.447 1063.44,822.4 1105.96,773.57 1098.61,783.189 1082.37,816.617 1059.05,841.382 1006.32,874.651 988.061,891.997 989.057,887.175 1029.23,840.617 997.176,876.038 1018.48,848.849 1024.1,852.152 1065.99,812.603 1068.92,813.889 1086.64,799.622 975.139,883.652 963.397,897.198 929.435,934.378 971.366,890.225 1017.63,839.852 1050.95,824.925 1058.12,829.598 1138.73,747.123 1044.84,841.25 1063.08,814.152 1102.8,788.374 1047.62,839.085 1051.93,824.053 1006.69,868.986 1015.96,876.071 1016.46,868.896 976.892,918.881 977.494,910.551 1003.13,877.059 1096.84,799.375 1095.61,783.278 1178.44,721.948 1192.22,709.363 1242.5,665.583 1341.67,596.863 1271.08,669.327 1185.25,745.634 1144.2,776.943 1175.58,736.051 1110.18,795.547 1089.06,807.779 1104.66,792.314 1074.09,819.538 1040.15,848 1054.75,831.464 1080.37,801.168 1173.33,726.983 1193.78,713.886 1133.59,771.968 1135.97,762.593 1125.77,773.729 1082.56,805.025 1057.21,830.75 1015.67,867.187 1013.95,865.483 978.331,898.578 939.642,934.075 895.729,977.294 940.491,917.147 941.43,916.603 926.643,930.465 940.255,918.245 970.648,892.053 958.365,910.41 923.911,942.516 914.07,954.551 908.182,954.33 938.778,920.03 995.579,872.127 1049.65,821.725 1045.51,823.834 1148.74,736.05 1129.86,759.736 1191.11,709.308 1199.26,702.73 1102.83,794.779 1134.19,763.353 1134.76,765.085 1089.08,808.671 1035.67,841.031 1014.83,862.649 1041.24,833.874 1028.71,855.799 1022.47,851.516 971.535,899.371 968.242,901.967 961.662,902.915 1004.12,857.105 911.785,946.033 970.33,898.645 957.86,909.684 1050.97,822.599 1073.25,791.249 1157.33,724.848 1260.93,652.177 1234.26,686.698 1234.3,696.741 1290.2,638.64 1256.18,684.587 1233.28,690.069 1277.73,646.475 1257.73,674.203 1276.47,663.893 1293.1,641.766 1253.27,684.573 1187.12,734.693 1139.95,771.743 1126.35,783.043 1208.55,718.104 1181.2,734.094 1179.1,739.39 1139.43,760.984 1121.93,776.696 1164.26,731.21 1130.19,771.13 1092.1,800.638 1074.86,815.065 1081.9,807.428 1112.42,769.357 1114.81,765.861 1174.4,715.74 1196.82,705.629 1179.84,727.291 1086.7,790.236 1076.16,806.031 1109.25,777.346 1086.69,800.715 1049.58,829.271 1080.05,793.691 1139.27,737.248 1124.29,764.592 1176.46,720.023 1187.17,718.782 1230.55,674.913 1281.55,641.79 1169.44,748.292 1143,759.838 1150.66,750.536 1146.56,751.681 1202.11,701.022 1263.83,646.794 1271.05,646.426 1249.78,651.687 1236.68,677.716 1352.3,593.694 1263.98,679.213 1317.52,618.8 1270.03,674.996 1328.92,629.393 1220.86,735.794 1201.65,729.291 1153.24,766.465 1168.19,742.204 1162.73,747.546 1285.35,636.342 1321.26,618.96 1335.87,614.78 1252.36,679.976 1191.01,729.652 1138.67,762.787 1135.73,763.602 1086.53,808.462 1091.71,799.685 1153.74,735.716 1153.65,747.613 1124.75,769.763 1085.63,804.95 1138.33,761.894 1027.22,859.798 995.224,881.224 993.143,880.215 1009.76,866.569 1003.96,862.14 1055.8,814.729 1021.24,861.546 1007.84,868.538 1010.25,863.218 1085.76,801.151 1054.61,821.795 1012.59,861.762 962.427,906.485 997.268,881.641 1034.44,836.967 1140.04,752.771 1152.95,739.9 1213.49,702.831 1186.58,732.94 1238.58,679.575 1304.48,626.033 1290.17,653.04 1256.54,685.662 1209.44,725.361 1115.83,799.605 1041.17,862.793 1014.88,877.52 1062.86,818.225 1039.17,839.325 1088.07,790.533 1119.92,763.912 1140.17,744.075 1117.31,778.851 1048.27,840.975 1006.84,862.976 997.501,871.718 1076.32,786.148 1142.61,732.584 1179.49,718.867 1156.04,741.216 1234.68,675.009 1243.19,682.31 1294.59,637.091 1428.19,531.986 1535.41,456.663 1528.02,489.915 1601.36,435.036 1534.2,507.811 1489.38,540.199 1444.94,566.274 1447.01,558.46 1334.76,647.107 1295.7,670.509 1270.41,681.268 1192.32,742.012 1207.11,714.59 1184.73,728.155 1163.74,743.329 1123.06,781.339 1113.9,779.508 1136.28,762.044 1171.27,720.624 1175.08,721.776 1209.25,691.951 1243.57,667.195 1282.64,649.727 1262.64,679.941 1276.9,659.667 1313.59,637.361 1328.29,624.288 1274.52,669.845 1165.25,757.683 1102.73,800.411 1118.33,773.247 1121.07,779.426 1114.73,782.557 1136.1,760.798 1119.48,774.04 1105.62,782.678 1183.92,722.89 1193.09,713.07 1154.82,746.568 1188.84,710.894 1272.86,656.927 1316.63,619.415 1240.39,683.436 1228.26,686.955 1201.5,703.664 1188.85,710.623 1176.22,720.383 1058.69,812.481 1089.46,781.834 1137.79,744.707 1050.07,838.659 988.973,895.148 1028.08,840.943 1054.78,812.742 1070.99,806.705 1139.53,741.76 1134.06,762.49 1100.41,797.925 1059.77,827.295 1081.16,804.726 1111.23,772.472 1143.81,745.276 1113.17,781.998 1128.22,765.136 1140.11,762.194 1061.25,835.722 1000.54,894.838 1002.5,875.098 980.579,890.741 930.292,944.229 910.168,962.004 904.144,960.453 896.201,968.79 907.005,950.905 946.939,906.162 983.896,883.673 1058.83,807.239 1059.26,812.093 990.237,882.424 1006.07,863.656 1038.62,840.263 1064.4,819.177 1055.55,827.743 1075.51,797.553 1077.99,793.45 1129.36,753.033 1152.16,736.981 1168.91,721.219 1154.54,747.447 1125.27,774.81 1151.43,753.974 1224.26,683.318 1265.18,651.786 1206.52,697.4 1158.49,717.522 1204.55,687.665 1295.32,629.878 1335.33,598.586 1406.99,564.482 1390.31,592.995 1457.92,538.406 1319.52,650.871 1239.11,706.759 1192.08,736.206 1146.72,772.832 1161.98,742.045 1181.88,721.691 1195.32,712.617 1165.51,736.268 1177.82,729.203 1191.29,717.962 1222.01,682.263 1254.16,660.499 1204.13,712.545 1287.46,659.831 1204.36,736.493 1168.76,745.249 1139.31,770.249 1090.36,811.093 1123.37,773.608 1156.45,745.553 1127.28,773.472 1142.13,750.069 1048.97,838.555 986.381,898.415 971.699,903.488 979.259,885.556 979.722,877.835 947.49,920.451 968.314,895.016 992.058,874.113 1036.13,836.462 1036.23,839.3 1076.31,796.048 1020.9,848.835 1057.55,814.804 1093.64,778.229 1238.43,650.915 1247.89,665.566 1176.22,739.171 1160.82,748.027 1155.93,745.169 1134.82,771.19 1102.58,788.878 1089.45,798.133 1063.27,826.209 1091.78,794.101 1098.06,790.134 1115.84,768.202 1139.05,748.347 1092.02,802.944 1138.52,762.183 1055.89,843.656 973.223,909.409 938.019,940.478 987.533,874.203 924.463,945.847 906.363,961.594 926.938,931.92 971.222,885.937 1020.27,841.347 1059.37,809.834 1076.97,799.005 1049.06,825.698 1091.45,803.228 1088.11,805.529 1046.29,838.953 1065.95,819.161 1047.1,836.624 1071.46,804.812 1137.96,743.514 1149.95,745.138 1224.8,670.093 1217,699.007 1072.04,839.497 1028.64,860.354 977.99,906.144 959.268,918.12 978.332,889.747 1016.68,847.547 1047.06,823.711 1079.4,794.661 1093.35,783.907 1180.67,712.007 1236.22,668.785 1277.52,644.598 1247.01,680.746 1360.18,588.358 1392.33,567.559 1553.2,462.964 1503.57,525.975 1498.87,519.362 1504.87,509.277 1668.78,399.084 1539.02,515.543 1546.59,502.984 1502.3,534.178 1388.28,621.006 1316.12,665.773 1315.2,649.853 1320.27,638.567 1311.81,640.492 1278.04,666.105 1287.17,654.351 1239.55,697.402 1224.26,699.296 1283.08,636.649 1232.19,693.916 1167.65,752.305 1107.17,799.03 1104.54,792.358 1074.44,820.386 1034.61,858.339 1044.99,841.583 1024.56,849.421 943.222,936.411 943.54,924.689 938.194,924.802 890.367,975.254 895.708,965.063 872.14,985.318 884.283,973.144 865.589,990.956 823.094,1038.91 785.88,1083.07 765.999,1103.01 741.066,1130.07 738.166,1132.01 731.043,1139.94 766.647,1092.77 769.783,1091.02 789.168,1067.93 817.138,1033.87 862.474,984.31 864.351,994.824 911.252,940.451 969.666,886.02 1027.95,831.506 1002.05,867.864 1020.49,849.748 1014.9,852.379 984.474,885.77 978.447,894.204 926.406,944.579 956.904,903.532 1035.53,831.042 1046.65,828.764 1068.82,812.878 1091.8,776.899 1144.15,735.235 1006.53,867.757 1015.5,860.177 1024.83,849.974 1080.14,795.237 1005.47,870.155 1055.98,818.402 1190.14,701.232 1244.21,665.858 1189.14,716.748 1101.33,795.358 1080.9,796.49 1061.43,814.262 1051.11,823.555 1076.72,792.511 1173.37,707.696 1265.3,643.342 1307.7,624.491 1297.93,647.397 1309.88,632.675 1163.89,752.859 1142.29,764.157 1191.3,712.955 1131.27,771.491 1152.78,751.416 1182.53,725.823 1212.41,697.456 1216.65,695.657 1301.16,624.876 1403.25,578.738 1394.15,580.124 1390.49,582.889 1437.62,542.661 1364.45,601.172 1382.39,581.539 1337.7,612.217 1393.83,572.147 1381.57,559.03 1518.21,457.534 1485.08,517.737 1394.04,592.16 1354.3,625.261 1312.1,659.166 1317.39,641.488 1301.25,650.34 1254.4,693.857 1196.3,733.213 1166.26,753.017 1179.1,727.538 1097.62,806.832 1133.72,758.19 1104.81,782.275 1069.37,807.79 1084.94,796.438 1141.16,739.78 1246.47,657.341 1229.01,678.522 1124.84,773.57 1084.93,815.021 1092.04,803.652 1098.95,796.465 1206.93,676.981 1253.79,665.211 1330.38,605.269 1349.09,603.571 1327.35,625.439 1253.86,676.651 1253.06,675.978 1261.35,659.257 1269.51,653.206 1270.1,658.537 1335.42,623.294 1287.42,653.814 1226.98,712.549 1185.52,727.806 1156.34,754.233 1102.07,800.592 1098.42,793.46 1078.56,809.639 1128.99,763.33 1117.08,771.285 1162.23,722.171 1191.72,710.104 1101.42,797.135 1101.27,791.927 1102.88,790.166 1061.58,831.269 1064.03,819.519 1133.7,748.255 1155.1,731.666 "/>
<path clip-path="url(#clip030)" d="M186.863 198.898 L550.897 198.898 L550.897 95.2176 L186.863 95.2176  Z" fill="#ffffff" fill-rule="evenodd" fill-opacity="1"/>
<polyline clip-path="url(#clip030)" style="stroke:#000000; stroke-linecap:round; stroke-linejoin:round; stroke-width:4; stroke-opacity:1; fill:none" points="186.863,198.898 550.897,198.898 550.897,95.2176 186.863,95.2176 186.863,198.898 "/>
<polyline clip-path="url(#clip030)" style="stroke:#009af9; stroke-linecap:round; stroke-linejoin:round; stroke-width:4; stroke-opacity:1; fill:none" points="211.758,147.058 361.13,147.058 "/>
<path clip-path="url(#clip030)" d="M396.651 128.366 Q393.549 133.69 392.044 138.898 Q390.54 144.106 390.54 149.453 Q390.54 154.801 392.044 160.055 Q393.572 165.287 396.651 170.588 L392.947 170.588 Q389.475 165.148 387.739 159.893 Q386.026 154.639 386.026 149.453 Q386.026 144.291 387.739 139.06 Q389.452 133.828 392.947 128.366 L396.651 128.366 Z" fill="#000000" fill-rule="nonzero" fill-opacity="1" /><path clip-path="url(#clip030)" d="M403.063 138.412 L423.294 138.412 L423.294 142.301 L407.276 160.935 L423.294 160.935 L423.294 164.338 L402.484 164.338 L402.484 160.449 L418.502 141.815 L403.063 141.815 L403.063 138.412 Z" fill="#000000" fill-rule="nonzero" fill-opacity="1" /><path clip-path="url(#clip030)" d="M430.887 158.458 L435.771 158.458 L435.771 162.439 L431.975 169.847 L428.988 169.847 L430.887 162.439 L430.887 158.458 Z" fill="#000000" fill-rule="nonzero" fill-opacity="1" /><path clip-path="url(#clip030)" d="M455.655 166.745 Q453.849 171.375 452.136 172.787 Q450.423 174.199 447.553 174.199 L444.15 174.199 L444.15 170.634 L446.65 170.634 Q448.41 170.634 449.382 169.8 Q450.354 168.967 451.535 165.865 L452.298 163.921 L441.812 138.412 L446.326 138.412 L454.428 158.689 L462.53 138.412 L467.044 138.412 L455.655 166.745 Z" fill="#000000" fill-rule="nonzero" fill-opacity="1" /><path clip-path="url(#clip030)" d="M474.011 158.458 L478.896 158.458 L478.896 162.439 L475.099 169.847 L472.113 169.847 L474.011 162.439 L474.011 158.458 Z" fill="#000000" fill-rule="nonzero" fill-opacity="1" /><path clip-path="url(#clip030)" d="M509.544 138.412 L500.169 151.027 L510.03 164.338 L505.007 164.338 L497.46 154.152 L489.914 164.338 L484.891 164.338 L494.96 150.773 L485.747 138.412 L490.77 138.412 L497.645 147.648 L504.52 138.412 L509.544 138.412 Z" fill="#000000" fill-rule="nonzero" fill-opacity="1" /><path clip-path="url(#clip030)" d="M515.377 128.366 L519.081 128.366 Q522.553 133.828 524.266 139.06 Q526.002 144.291 526.002 149.453 Q526.002 154.639 524.266 159.893 Q522.553 165.148 519.081 170.588 L515.377 170.588 Q518.456 165.287 519.96 160.055 Q521.488 154.801 521.488 149.453 Q521.488 144.106 519.96 138.898 Q518.456 133.69 515.377 128.366 Z" fill="#000000" fill-rule="nonzero" fill-opacity="1" /></svg>
