<?xml version="1.0" encoding="utf-8"?>
<svg xmlns="http://www.w3.org/2000/svg" xmlns:xlink="http://www.w3.org/1999/xlink" width="600" height="400" viewBox="0 0 2400 1600">
<defs>
  <clipPath id="clip140">
    <rect x="0" y="0" width="2400" height="1600"/>
  </clipPath>
</defs>
<path clip-path="url(#clip140)" d="M0 1600 L2400 1600 L2400 0 L0 0  Z" fill="#ffffff" fill-rule="evenodd" fill-opacity="1"/>
<defs>
  <clipPath id="clip141">
    <rect x="480" y="0" width="1681" height="1600"/>
  </clipPath>
</defs>
<path clip-path="url(#clip140)" d="M193.936 1423.18 L2352.76 1423.18 L2352.76 47.2441 L193.936 47.2441  Z" fill="#ffffff" fill-rule="evenodd" fill-opacity="1"/>
<defs>
  <clipPath id="clip142">
    <rect x="193" y="47" width="2160" height="1377"/>
  </clipPath>
</defs>
<polyline clip-path="url(#clip142)" style="stroke:#000000; stroke-linecap:round; stroke-linejoin:round; stroke-width:2; stroke-opacity:0.1; fill:none" points="193.936,1423.18 193.936,47.2441 "/>
<polyline clip-path="url(#clip142)" style="stroke:#000000; stroke-linecap:round; stroke-linejoin:round; stroke-width:2; stroke-opacity:0.1; fill:none" points="625.7,1423.18 625.7,47.2441 "/>
<polyline clip-path="url(#clip142)" style="stroke:#000000; stroke-linecap:round; stroke-linejoin:round; stroke-width:2; stroke-opacity:0.1; fill:none" points="1057.46,1423.18 1057.46,47.2441 "/>
<polyline clip-path="url(#clip142)" style="stroke:#000000; stroke-linecap:round; stroke-linejoin:round; stroke-width:2; stroke-opacity:0.1; fill:none" points="1489.23,1423.18 1489.23,47.2441 "/>
<polyline clip-path="url(#clip142)" style="stroke:#000000; stroke-linecap:round; stroke-linejoin:round; stroke-width:2; stroke-opacity:0.1; fill:none" points="1920.99,1423.18 1920.99,47.2441 "/>
<polyline clip-path="url(#clip142)" style="stroke:#000000; stroke-linecap:round; stroke-linejoin:round; stroke-width:2; stroke-opacity:0.1; fill:none" points="2352.76,1423.18 2352.76,47.2441 "/>
<polyline clip-path="url(#clip140)" style="stroke:#000000; stroke-linecap:round; stroke-linejoin:round; stroke-width:4; stroke-opacity:1; fill:none" points="193.936,1423.18 2352.76,1423.18 "/>
<polyline clip-path="url(#clip140)" style="stroke:#000000; stroke-linecap:round; stroke-linejoin:round; stroke-width:4; stroke-opacity:1; fill:none" points="193.936,1423.18 193.936,1404.28 "/>
<polyline clip-path="url(#clip140)" style="stroke:#000000; stroke-linecap:round; stroke-linejoin:round; stroke-width:4; stroke-opacity:1; fill:none" points="625.7,1423.18 625.7,1404.28 "/>
<polyline clip-path="url(#clip140)" style="stroke:#000000; stroke-linecap:round; stroke-linejoin:round; stroke-width:4; stroke-opacity:1; fill:none" points="1057.46,1423.18 1057.46,1404.28 "/>
<polyline clip-path="url(#clip140)" style="stroke:#000000; stroke-linecap:round; stroke-linejoin:round; stroke-width:4; stroke-opacity:1; fill:none" points="1489.23,1423.18 1489.23,1404.28 "/>
<polyline clip-path="url(#clip140)" style="stroke:#000000; stroke-linecap:round; stroke-linejoin:round; stroke-width:4; stroke-opacity:1; fill:none" points="1920.99,1423.18 1920.99,1404.28 "/>
<polyline clip-path="url(#clip140)" style="stroke:#000000; stroke-linecap:round; stroke-linejoin:round; stroke-width:4; stroke-opacity:1; fill:none" points="2352.76,1423.18 2352.76,1404.28 "/>
<path clip-path="url(#clip140)" d="M193.936 1454.1 Q190.325 1454.1 188.496 1457.66 Q186.691 1461.2 186.691 1468.33 Q186.691 1475.44 188.496 1479.01 Q190.325 1482.55 193.936 1482.55 Q197.57 1482.55 199.376 1479.01 Q201.204 1475.44 201.204 1468.33 Q201.204 1461.2 199.376 1457.66 Q197.57 1454.1 193.936 1454.1 M193.936 1450.39 Q199.746 1450.39 202.802 1455 Q205.88 1459.58 205.88 1468.33 Q205.88 1477.06 202.802 1481.67 Q199.746 1486.25 193.936 1486.25 Q188.126 1486.25 185.047 1481.67 Q181.992 1477.06 181.992 1468.33 Q181.992 1459.58 185.047 1455 Q188.126 1450.39 193.936 1450.39 Z" fill="#000000" fill-rule="nonzero" fill-opacity="1" /><path clip-path="url(#clip140)" d="M620.353 1481.64 L636.672 1481.64 L636.672 1485.58 L614.728 1485.58 L614.728 1481.64 Q617.39 1478.89 621.973 1474.26 Q626.58 1469.61 627.76 1468.27 Q630.006 1465.74 630.885 1464.01 Q631.788 1462.25 631.788 1460.56 Q631.788 1457.8 629.843 1456.07 Q627.922 1454.33 624.82 1454.33 Q622.621 1454.33 620.168 1455.09 Q617.737 1455.86 614.959 1457.41 L614.959 1452.69 Q617.783 1451.55 620.237 1450.97 Q622.691 1450.39 624.728 1450.39 Q630.098 1450.39 633.293 1453.08 Q636.487 1455.77 636.487 1460.26 Q636.487 1462.39 635.677 1464.31 Q634.89 1466.2 632.783 1468.8 Q632.205 1469.47 629.103 1472.69 Q626.001 1475.88 620.353 1481.64 Z" fill="#000000" fill-rule="nonzero" fill-opacity="1" /><path clip-path="url(#clip140)" d="M1060.47 1455.09 L1048.67 1473.54 L1060.47 1473.54 L1060.47 1455.09 M1059.25 1451.02 L1065.13 1451.02 L1065.13 1473.54 L1070.06 1473.54 L1070.06 1477.43 L1065.13 1477.43 L1065.13 1485.58 L1060.47 1485.58 L1060.47 1477.43 L1044.87 1477.43 L1044.87 1472.92 L1059.25 1451.02 Z" fill="#000000" fill-rule="nonzero" fill-opacity="1" /><path clip-path="url(#clip140)" d="M1489.63 1466.44 Q1486.48 1466.44 1484.63 1468.59 Q1482.8 1470.74 1482.8 1474.49 Q1482.8 1478.22 1484.63 1480.39 Q1486.48 1482.55 1489.63 1482.55 Q1492.78 1482.55 1494.61 1480.39 Q1496.46 1478.22 1496.46 1474.49 Q1496.46 1470.74 1494.61 1468.59 Q1492.78 1466.44 1489.63 1466.44 M1498.92 1451.78 L1498.92 1456.04 Q1497.16 1455.21 1495.35 1454.77 Q1493.57 1454.33 1491.81 1454.33 Q1487.18 1454.33 1484.73 1457.45 Q1482.3 1460.58 1481.95 1466.9 Q1483.31 1464.89 1485.37 1463.82 Q1487.43 1462.73 1489.91 1462.73 Q1495.12 1462.73 1498.13 1465.9 Q1501.16 1469.05 1501.16 1474.49 Q1501.16 1479.82 1498.01 1483.03 Q1494.86 1486.25 1489.63 1486.25 Q1483.64 1486.25 1480.47 1481.67 Q1477.3 1477.06 1477.3 1468.33 Q1477.3 1460.14 1481.18 1455.28 Q1485.07 1450.39 1491.62 1450.39 Q1493.38 1450.39 1495.17 1450.74 Q1496.97 1451.09 1498.92 1451.78 Z" fill="#000000" fill-rule="nonzero" fill-opacity="1" /><path clip-path="url(#clip140)" d="M1920.99 1469.17 Q1917.66 1469.17 1915.74 1470.95 Q1913.84 1472.73 1913.84 1475.86 Q1913.84 1478.98 1915.74 1480.77 Q1917.66 1482.55 1920.99 1482.55 Q1924.33 1482.55 1926.25 1480.77 Q1928.17 1478.96 1928.17 1475.86 Q1928.17 1472.73 1926.25 1470.95 Q1924.35 1469.17 1920.99 1469.17 M1916.32 1467.18 Q1913.31 1466.44 1911.62 1464.38 Q1909.95 1462.32 1909.95 1459.35 Q1909.95 1455.21 1912.89 1452.8 Q1915.85 1450.39 1920.99 1450.39 Q1926.15 1450.39 1929.09 1452.8 Q1932.03 1455.21 1932.03 1459.35 Q1932.03 1462.32 1930.34 1464.38 Q1928.68 1466.44 1925.69 1467.18 Q1929.07 1467.96 1930.95 1470.26 Q1932.84 1472.55 1932.84 1475.86 Q1932.84 1480.88 1929.77 1483.57 Q1926.71 1486.25 1920.99 1486.25 Q1915.27 1486.25 1912.2 1483.57 Q1909.14 1480.88 1909.14 1475.86 Q1909.14 1472.55 1911.04 1470.26 Q1912.94 1467.96 1916.32 1467.18 M1914.6 1459.79 Q1914.6 1462.48 1916.27 1463.98 Q1917.96 1465.49 1920.99 1465.49 Q1924 1465.49 1925.69 1463.98 Q1927.4 1462.48 1927.4 1459.79 Q1927.4 1457.11 1925.69 1455.6 Q1924 1454.1 1920.99 1454.1 Q1917.96 1454.1 1916.27 1455.6 Q1914.6 1457.11 1914.6 1459.79 Z" fill="#000000" fill-rule="nonzero" fill-opacity="1" /><path clip-path="url(#clip140)" d="M2327.44 1481.64 L2335.08 1481.64 L2335.08 1455.28 L2326.77 1456.95 L2326.77 1452.69 L2335.04 1451.02 L2339.71 1451.02 L2339.71 1481.64 L2347.35 1481.64 L2347.35 1485.58 L2327.44 1485.58 L2327.44 1481.64 Z" fill="#000000" fill-rule="nonzero" fill-opacity="1" /><path clip-path="url(#clip140)" d="M2366.8 1454.1 Q2363.18 1454.1 2361.36 1457.66 Q2359.55 1461.2 2359.55 1468.33 Q2359.55 1475.44 2361.36 1479.01 Q2363.18 1482.55 2366.8 1482.55 Q2370.43 1482.55 2372.23 1479.01 Q2374.06 1475.44 2374.06 1468.33 Q2374.06 1461.2 2372.23 1457.66 Q2370.43 1454.1 2366.8 1454.1 M2366.8 1450.39 Q2372.61 1450.39 2375.66 1455 Q2378.74 1459.58 2378.74 1468.33 Q2378.74 1477.06 2375.66 1481.67 Q2372.61 1486.25 2366.8 1486.25 Q2360.99 1486.25 2357.91 1481.67 Q2354.85 1477.06 2354.85 1468.33 Q2354.85 1459.58 2357.91 1455 Q2360.99 1450.39 2366.8 1450.39 Z" fill="#000000" fill-rule="nonzero" fill-opacity="1" /><path clip-path="url(#clip140)" d="M1272.41 1522.27 L1272.41 1532.4 L1284.47 1532.4 L1284.47 1536.95 L1272.41 1536.95 L1272.41 1556.3 Q1272.41 1560.66 1273.58 1561.9 Q1274.79 1563.14 1278.45 1563.14 L1284.47 1563.14 L1284.47 1568.04 L1278.45 1568.04 Q1271.67 1568.04 1269.1 1565.53 Q1266.52 1562.98 1266.52 1556.3 L1266.52 1536.95 L1262.22 1536.95 L1262.22 1532.4 L1266.52 1532.4 L1266.52 1522.27 L1272.41 1522.27 Z" fill="#000000" fill-rule="nonzero" fill-opacity="1" /><polyline clip-path="url(#clip142)" style="stroke:#000000; stroke-linecap:round; stroke-linejoin:round; stroke-width:2; stroke-opacity:0.1; fill:none" points="193.936,1397.63 2352.76,1397.63 "/>
<polyline clip-path="url(#clip142)" style="stroke:#000000; stroke-linecap:round; stroke-linejoin:round; stroke-width:2; stroke-opacity:0.1; fill:none" points="193.936,1028.06 2352.76,1028.06 "/>
<polyline clip-path="url(#clip142)" style="stroke:#000000; stroke-linecap:round; stroke-linejoin:round; stroke-width:2; stroke-opacity:0.1; fill:none" points="193.936,658.493 2352.76,658.493 "/>
<polyline clip-path="url(#clip142)" style="stroke:#000000; stroke-linecap:round; stroke-linejoin:round; stroke-width:2; stroke-opacity:0.1; fill:none" points="193.936,288.926 2352.76,288.926 "/>
<polyline clip-path="url(#clip140)" style="stroke:#000000; stroke-linecap:round; stroke-linejoin:round; stroke-width:4; stroke-opacity:1; fill:none" points="193.936,1423.18 193.936,47.2441 "/>
<polyline clip-path="url(#clip140)" style="stroke:#000000; stroke-linecap:round; stroke-linejoin:round; stroke-width:4; stroke-opacity:1; fill:none" points="193.936,1397.63 212.834,1397.63 "/>
<polyline clip-path="url(#clip140)" style="stroke:#000000; stroke-linecap:round; stroke-linejoin:round; stroke-width:4; stroke-opacity:1; fill:none" points="193.936,1028.06 212.834,1028.06 "/>
<polyline clip-path="url(#clip140)" style="stroke:#000000; stroke-linecap:round; stroke-linejoin:round; stroke-width:4; stroke-opacity:1; fill:none" points="193.936,658.493 212.834,658.493 "/>
<polyline clip-path="url(#clip140)" style="stroke:#000000; stroke-linecap:round; stroke-linejoin:round; stroke-width:4; stroke-opacity:1; fill:none" points="193.936,288.926 212.834,288.926 "/>
<path clip-path="url(#clip140)" d="M50.9921 1398.08 L80.6679 1398.08 L80.6679 1402.01 L50.9921 1402.01 L50.9921 1398.08 Z" fill="#000000" fill-rule="nonzero" fill-opacity="1" /><path clip-path="url(#clip140)" d="M91.5706 1410.97 L99.2095 1410.97 L99.2095 1384.61 L90.8993 1386.27 L90.8993 1382.01 L99.1632 1380.35 L103.839 1380.35 L103.839 1410.97 L111.478 1410.97 L111.478 1414.91 L91.5706 1414.91 L91.5706 1410.97 Z" fill="#000000" fill-rule="nonzero" fill-opacity="1" /><path clip-path="url(#clip140)" d="M120.922 1409.03 L125.807 1409.03 L125.807 1414.91 L120.922 1414.91 L120.922 1409.03 Z" fill="#000000" fill-rule="nonzero" fill-opacity="1" /><path clip-path="url(#clip140)" d="M145.992 1383.43 Q142.381 1383.43 140.552 1386.99 Q138.746 1390.53 138.746 1397.66 Q138.746 1404.77 140.552 1408.33 Q142.381 1411.87 145.992 1411.87 Q149.626 1411.87 151.431 1408.33 Q153.26 1404.77 153.26 1397.66 Q153.26 1390.53 151.431 1386.99 Q149.626 1383.43 145.992 1383.43 M145.992 1379.72 Q151.802 1379.72 154.857 1384.33 Q157.936 1388.91 157.936 1397.66 Q157.936 1406.39 154.857 1410.99 Q151.802 1415.58 145.992 1415.58 Q140.181 1415.58 137.103 1410.99 Q134.047 1406.39 134.047 1397.66 Q134.047 1388.91 137.103 1384.33 Q140.181 1379.72 145.992 1379.72 Z" fill="#000000" fill-rule="nonzero" fill-opacity="1" /><path clip-path="url(#clip140)" d="M51.9875 1028.51 L81.6633 1028.51 L81.6633 1032.45 L51.9875 1032.45 L51.9875 1028.51 Z" fill="#000000" fill-rule="nonzero" fill-opacity="1" /><path clip-path="url(#clip140)" d="M101.756 1013.86 Q98.1447 1013.86 96.316 1017.42 Q94.5104 1020.97 94.5104 1028.09 Q94.5104 1035.2 96.316 1038.77 Q98.1447 1042.31 101.756 1042.31 Q105.39 1042.31 107.196 1038.77 Q109.024 1035.2 109.024 1028.09 Q109.024 1020.97 107.196 1017.42 Q105.39 1013.86 101.756 1013.86 M101.756 1010.15 Q107.566 1010.15 110.621 1014.76 Q113.7 1019.34 113.7 1028.09 Q113.7 1036.82 110.621 1041.43 Q107.566 1046.01 101.756 1046.01 Q95.9456 1046.01 92.8669 1041.43 Q89.8114 1036.82 89.8114 1028.09 Q89.8114 1019.34 92.8669 1014.76 Q95.9456 1010.15 101.756 1010.15 Z" fill="#000000" fill-rule="nonzero" fill-opacity="1" /><path clip-path="url(#clip140)" d="M121.918 1039.46 L126.802 1039.46 L126.802 1045.34 L121.918 1045.34 L121.918 1039.46 Z" fill="#000000" fill-rule="nonzero" fill-opacity="1" /><path clip-path="url(#clip140)" d="M137.033 1010.78 L155.39 1010.78 L155.39 1014.72 L141.316 1014.72 L141.316 1023.19 Q142.334 1022.84 143.353 1022.68 Q144.371 1022.49 145.39 1022.49 Q151.177 1022.49 154.556 1025.66 Q157.936 1028.84 157.936 1034.25 Q157.936 1039.83 154.464 1042.93 Q150.992 1046.01 144.672 1046.01 Q142.496 1046.01 140.228 1045.64 Q137.982 1045.27 135.575 1044.53 L135.575 1039.83 Q137.658 1040.96 139.881 1041.52 Q142.103 1042.08 144.58 1042.08 Q148.584 1042.08 150.922 1039.97 Q153.26 1037.86 153.26 1034.25 Q153.26 1030.64 150.922 1028.53 Q148.584 1026.43 144.58 1026.43 Q142.705 1026.43 140.83 1026.84 Q138.978 1027.26 137.033 1028.14 L137.033 1010.78 Z" fill="#000000" fill-rule="nonzero" fill-opacity="1" /><path clip-path="url(#clip140)" d="M100.76 644.292 Q97.1493 644.292 95.3206 647.857 Q93.515 651.398 93.515 658.528 Q93.515 665.634 95.3206 669.199 Q97.1493 672.741 100.76 672.741 Q104.395 672.741 106.2 669.199 Q108.029 665.634 108.029 658.528 Q108.029 651.398 106.2 647.857 Q104.395 644.292 100.76 644.292 M100.76 640.588 Q106.571 640.588 109.626 645.195 Q112.705 649.778 112.705 658.528 Q112.705 667.255 109.626 671.861 Q106.571 676.444 100.76 676.444 Q94.9502 676.444 91.8715 671.861 Q88.816 667.255 88.816 658.528 Q88.816 649.778 91.8715 645.195 Q94.9502 640.588 100.76 640.588 Z" fill="#000000" fill-rule="nonzero" fill-opacity="1" /><path clip-path="url(#clip140)" d="M120.922 669.893 L125.807 669.893 L125.807 675.773 L120.922 675.773 L120.922 669.893 Z" fill="#000000" fill-rule="nonzero" fill-opacity="1" /><path clip-path="url(#clip140)" d="M145.992 644.292 Q142.381 644.292 140.552 647.857 Q138.746 651.398 138.746 658.528 Q138.746 665.634 140.552 669.199 Q142.381 672.741 145.992 672.741 Q149.626 672.741 151.431 669.199 Q153.26 665.634 153.26 658.528 Q153.26 651.398 151.431 647.857 Q149.626 644.292 145.992 644.292 M145.992 640.588 Q151.802 640.588 154.857 645.195 Q157.936 649.778 157.936 658.528 Q157.936 667.255 154.857 671.861 Q151.802 676.444 145.992 676.444 Q140.181 676.444 137.103 671.861 Q134.047 667.255 134.047 658.528 Q134.047 649.778 137.103 645.195 Q140.181 640.588 145.992 640.588 Z" fill="#000000" fill-rule="nonzero" fill-opacity="1" /><path clip-path="url(#clip140)" d="M101.756 274.725 Q98.1447 274.725 96.316 278.29 Q94.5104 281.831 94.5104 288.961 Q94.5104 296.067 96.316 299.632 Q98.1447 303.174 101.756 303.174 Q105.39 303.174 107.196 299.632 Q109.024 296.067 109.024 288.961 Q109.024 281.831 107.196 278.29 Q105.39 274.725 101.756 274.725 M101.756 271.021 Q107.566 271.021 110.621 275.628 Q113.7 280.211 113.7 288.961 Q113.7 297.688 110.621 302.294 Q107.566 306.877 101.756 306.877 Q95.9456 306.877 92.8669 302.294 Q89.8114 297.688 89.8114 288.961 Q89.8114 280.211 92.8669 275.628 Q95.9456 271.021 101.756 271.021 Z" fill="#000000" fill-rule="nonzero" fill-opacity="1" /><path clip-path="url(#clip140)" d="M121.918 300.327 L126.802 300.327 L126.802 306.206 L121.918 306.206 L121.918 300.327 Z" fill="#000000" fill-rule="nonzero" fill-opacity="1" /><path clip-path="url(#clip140)" d="M137.033 271.646 L155.39 271.646 L155.39 275.581 L141.316 275.581 L141.316 284.054 Q142.334 283.706 143.353 283.544 Q144.371 283.359 145.39 283.359 Q151.177 283.359 154.556 286.53 Q157.936 289.702 157.936 295.118 Q157.936 300.697 154.464 303.799 Q150.992 306.877 144.672 306.877 Q142.496 306.877 140.228 306.507 Q137.982 306.137 135.575 305.396 L135.575 300.697 Q137.658 301.831 139.881 302.387 Q142.103 302.942 144.58 302.942 Q148.584 302.942 150.922 300.836 Q153.26 298.729 153.26 295.118 Q153.26 291.507 150.922 289.401 Q148.584 287.294 144.58 287.294 Q142.705 287.294 140.83 287.711 Q138.978 288.128 137.033 289.007 L137.033 271.646 Z" fill="#000000" fill-rule="nonzero" fill-opacity="1" /><polyline clip-path="url(#clip142)" style="stroke:#009af9; stroke-linecap:round; stroke-linejoin:round; stroke-width:4; stroke-opacity:1; fill:none" points="193.936,658.493 196.097,668.115 198.258,677.609 200.419,686.978 202.58,696.222 204.741,705.344 206.902,714.345 209.063,723.226 211.224,731.99 213.385,740.637 215.546,749.17 217.707,757.59 219.868,765.898 222.029,774.096 224.19,782.185 226.351,790.167 228.512,798.044 230.673,805.815 232.834,813.484 234.995,821.051 237.156,828.518 239.317,835.886 241.478,843.156 243.639,850.329 245.8,857.408 247.961,864.393 250.122,871.285 252.282,878.086 254.443,884.796 256.604,891.418 258.765,897.951 260.926,904.399 263.087,910.76 265.248,917.038 267.409,923.232 269.57,929.344 271.731,935.375 273.892,941.326 276.053,947.198 278.214,952.992 280.375,958.71 282.536,964.352 284.697,969.919 286.858,975.412 289.019,980.832 291.18,986.18 293.341,991.458 295.502,996.665 297.663,1001.8 299.824,1006.87 301.985,1011.88 304.146,1016.81 306.307,1021.68 308.468,1026.49 310.629,1031.23 312.79,1035.91 314.951,1040.53 317.112,1045.09 319.273,1049.59 321.434,1054.02 323.595,1058.4 325.756,1062.72 327.917,1066.98 330.078,1071.19 332.239,1075.34 334.4,1079.44 336.561,1083.48 338.722,1087.46 340.883,1091.4 343.044,1095.28 345.205,1099.11 347.366,1102.89 349.527,1106.62 351.688,1110.3 353.849,1113.94 356.01,1117.52 358.171,1121.06 360.332,1124.54 362.493,1127.99 364.653,1131.38 366.814,1134.74 368.975,1138.04 371.136,1141.31 373.297,1144.53 375.458,1147.71 377.619,1150.84 379.78,1153.94 381.941,1156.99 384.102,1160 386.263,1162.98 388.424,1165.91 390.585,1168.8 392.746,1171.66 394.907,1174.48 397.068,1177.62 399.229,1182.51 401.39,1186.9 403.551,1188.78 405.712,1187 407.873,1181.34 410.034,1172.47 412.195,1161.97 414.356,1152.07 416.517,1142.63 418.678,1133.3 420.839,1124.1 423,1115.02 425.161,1106.07 427.322,1097.23 429.483,1088.51 431.644,1079.9 433.805,1071.41 435.966,1063.03 438.127,1054.76 440.288,1046.6 442.449,1038.55 444.61,1030.61 446.771,1022.77 448.932,1015.03 451.093,1007.4 453.254,999.871 455.415,992.44 457.576,985.107 459.737,977.872 461.898,970.733 464.059,963.689 466.22,956.738 468.381,949.879 470.542,943.111 472.703,936.433 474.864,929.843 477.024,923.34 479.185,916.924 481.346,910.593 483.507,904.346 485.668,898.181 487.829,892.098 489.99,886.096 492.151,880.174 494.312,874.33 496.473,868.563 498.634,862.873 500.795,857.258 502.956,851.718 505.117,846.251 507.278,840.857 509.439,835.535 511.6,830.282 513.761,825.1 515.922,819.986 518.083,814.94 520.244,809.961 522.405,805.048 524.566,800.2 526.727,795.417 528.888,790.696 531.049,786.039 533.21,781.443 535.371,776.908 537.532,772.433 539.693,768.017 541.854,763.66 544.015,759.361 546.176,755.119 548.337,750.932 550.498,746.802 552.659,742.726 554.82,738.704 556.981,734.735 559.142,730.82 561.303,726.956 563.464,723.143 565.625,719.381 567.786,715.669 569.947,712.006 572.108,708.391 574.269,704.825 576.43,701.306 578.591,697.833 580.752,694.407 582.913,691.026 585.074,687.69 587.235,684.398 589.396,681.15 591.556,677.945 593.717,674.782 595.878,671.661 598.039,668.582 600.2,665.543 602.361,662.545 604.522,659.586 606.683,656.667 608.844,653.786 611.005,650.944 613.166,648.139 615.327,645.371 617.488,642.64 619.649,639.945 621.81,637.286 623.971,634.663 626.132,632.804 628.293,638.829 630.454,644.62 632.615,650.409 634.776,656.12 636.937,661.756 639.098,667.317 641.259,672.805 643.42,678.22 645.581,683.563 647.742,688.835 649.903,694.037 652.064,699.17 654.225,704.235 656.386,709.234 658.547,714.165 660.708,719.032 662.869,723.834 665.03,728.572 667.191,733.247 669.352,737.861 671.513,742.413 673.674,746.905 675.835,751.337 677.996,755.711 680.157,760.026 682.318,764.285 684.479,768.487 686.64,772.633 688.801,776.724 690.962,780.761 693.123,784.744 695.284,788.675 697.445,792.554 699.606,796.381 701.767,800.157 703.927,803.883 706.088,807.56 708.249,811.188 710.41,814.769 712.571,818.301 714.732,821.787 716.893,825.227 719.054,828.62 721.215,831.969 723.376,835.274 725.537,838.535 727.698,841.752 729.859,844.927 732.02,848.06 734.181,851.151 736.342,854.201 738.503,857.211 740.664,860.181 742.825,863.111 744.986,866.003 747.147,868.856 749.308,871.672 751.469,874.45 753.63,877.191 755.791,879.896 757.952,882.566 760.113,885.199 762.274,887.798 764.435,890.363 766.596,892.893 768.757,895.39 770.918,897.854 773.079,900.285 775.24,902.684 777.401,905.051 779.562,907.386 781.723,909.691 783.884,911.965 786.045,914.209 788.206,916.423 790.367,918.608 792.528,920.764 794.689,922.891 796.85,924.99 799.011,927.061 801.172,929.105 803.333,931.122 805.494,933.112 807.655,935.075 809.816,937.013 811.977,938.925 814.138,940.811 816.298,942.673 818.459,944.51 820.62,946.322 822.781,948.111 824.942,949.875 827.103,951.617 829.264,953.335 831.425,955.031 833.586,956.704 835.747,958.354 837.908,959.544 840.069,957.216 842.23,951.513 844.391,943.246 846.552,933.133 848.713,921.8 850.874,909.781 853.035,897.516 855.196,885.353 857.357,873.548 859.518,862.265 861.679,851.574 863.84,841.454 866.001,831.79 868.162,822.375 870.323,812.911 872.484,803.282 874.645,793.775 876.806,784.394 878.967,775.137 881.128,766.003 883.289,756.99 885.45,748.096 887.611,739.321 889.772,730.661 891.933,722.117 894.094,713.685 896.255,705.366 898.416,697.156 900.577,689.056 902.738,681.063 904.899,673.176 907.06,665.393 909.221,657.714 911.382,650.137 913.543,642.66 915.704,635.282 917.865,628.002 920.026,620.819 922.187,613.731 924.348,606.737 926.509,599.836 928.669,593.026 930.83,586.306 932.991,579.676 935.152,573.133 937.313,566.678 939.474,560.307 941.635,554.021 943.796,547.819 945.957,541.699 948.118,535.659 950.279,529.7 952.44,523.82 954.601,518.018 956.762,512.293 958.923,506.643 961.084,501.069 963.245,495.568 965.406,490.141 967.567,484.785 969.728,479.5 971.889,474.286 974.05,469.14 976.211,464.063 978.372,459.053 980.533,454.11 982.694,449.232 984.855,444.419 987.016,439.669 989.177,434.983 991.338,430.359 993.499,425.795 995.66,421.293 997.821,416.85 999.982,412.466 1002.14,408.14 1004.3,403.872 1006.46,399.66 1008.63,395.504 1010.79,391.403 1012.95,387.356 1015.11,383.363 1017.27,379.423 1019.43,375.535 1021.59,371.699 1023.75,367.914 1025.91,364.179 1028.07,360.493 1030.24,356.856 1032.4,353.268 1034.56,349.727 1036.72,346.233 1038.88,342.785 1041.04,339.383 1043.2,336.026 1045.36,332.714 1047.52,329.446 1049.68,326.379 1051.85,324.477 1054.01,323.787 1056.17,324.173 1058.33,325.508 1060.49,327.672 1062.65,330.55 1064.81,334.035 1066.97,338.027 1069.13,342.432 1071.29,347.162 1073.46,352.137 1075.62,357.284 1077.78,362.535 1079.94,367.83 1082.1,373.116 1084.26,378.345 1086.42,383.478 1088.58,388.481 1090.74,393.328 1092.9,397.997 1095.07,402.477 1097.23,406.761 1099.39,410.848 1101.55,414.746 1103.71,418.468 1105.87,422.035 1108.03,425.473 1110.19,428.817 1112.35,432.106 1114.51,435.388 1116.67,438.718 1118.84,442.139 1121,445.549 1123.16,448.914 1125.32,452.234 1127.48,455.511 1129.64,458.743 1131.8,461.933 1133.96,465.081 1136.12,468.187 1138.28,471.251 1140.45,474.275 1142.61,477.259 1144.77,480.204 1146.93,483.109 1149.09,485.976 1151.25,488.805 1153.41,491.596 1155.57,494.35 1157.73,497.068 1159.89,499.75 1162.06,502.397 1164.22,505.008 1166.38,507.585 1168.54,510.128 1170.7,512.637 1172.86,515.113 1175.02,517.556 1177.18,519.967 1179.34,522.346 1181.5,524.693 1183.67,527.009 1185.83,529.295 1187.99,531.55 1190.15,533.775 1192.31,535.97 1194.47,538.136 1196.63,540.274 1198.79,542.383 1200.95,544.464 1203.11,546.517 1205.28,548.544 1207.44,550.543 1209.6,552.515 1211.76,554.462 1213.92,556.383 1216.08,558.278 1218.24,560.147 1220.4,561.993 1222.56,563.813 1224.72,565.61 1226.88,567.382 1229.05,569.131 1231.21,570.857 1233.37,572.56 1235.53,574.24 1237.69,575.899 1239.85,577.535 1242.01,579.149 1244.17,580.742 1246.33,582.315 1248.49,583.866 1250.66,585.397 1252.82,586.907 1254.98,588.398 1257.14,589.868 1259.3,591.313 1261.46,592.611 1263.62,593.737 1265.78,594.714 1267.94,595.563 1270.1,596.302 1272.27,596.951 1274.43,597.526 1276.59,598.041 1278.75,598.512 1280.91,598.949 1283.07,599.363 1285.23,599.765 1287.39,600.16 1289.55,600.557 1291.71,600.959 1293.88,601.369 1296.04,601.791 1298.2,602.223 1300.36,602.665 1302.52,603.115 1304.68,603.567 1306.84,604.018 1309,604.459 1311.16,604.882 1313.32,605.289 1315.49,605.69 1317.65,606.086 1319.81,606.477 1321.97,606.863 1324.13,607.243 1326.29,607.619 1328.45,607.99 1330.61,608.355 1332.77,608.716 1334.93,609.072 1337.09,609.423 1339.26,609.77 1341.42,610.112 1343.58,610.449 1345.74,610.782 1347.9,611.111 1350.06,611.435 1352.22,611.755 1354.38,612.071 1356.54,612.382 1358.7,612.69 1360.87,612.993 1363.03,613.293 1365.19,613.588 1367.35,613.88 1369.51,614.167 1371.67,614.451 1373.83,614.731 1375.99,615.008 1378.15,615.28 1380.31,615.549 1382.48,615.815 1384.64,616.077 1386.8,616.335 1388.96,616.59 1391.12,616.842 1393.28,617.09 1395.44,617.335 1397.6,617.577 1399.76,617.816 1401.92,618.051 1404.09,618.283 1406.25,618.512 1408.41,618.738 1410.57,618.961 1412.73,619.182 1414.89,619.399 1417.05,619.613 1419.21,619.824 1421.37,620.033 1423.53,620.239 1425.7,620.442 1427.86,620.643 1430.02,620.84 1432.18,621.035 1434.34,621.228 1436.5,621.418 1438.66,621.605 1440.82,621.79 1442.98,621.973 1445.14,622.153 1447.3,622.331 1449.47,622.506 1451.63,622.679 1453.79,622.85 1455.95,623.019 1458.11,623.185 1460.27,623.349 1462.43,623.511 1464.59,623.671 1466.75,623.829 1468.91,623.984 1471.08,624.138 1473.24,624.289 1475.4,624.439 1477.56,624.587 1479.72,624.654 1481.88,624.554 1484.04,624.304 1486.2,623.92 1488.36,623.418 1490.52,622.814 1492.69,622.123 1494.85,621.356 1497.01,620.528 1499.17,619.65 1501.33,618.733 1503.49,617.787 1505.65,616.822 1507.81,615.846 1509.97,614.868 1512.13,613.893 1514.3,612.928 1516.46,611.978 1518.62,611.048 1520.78,610.141 1522.94,609.26 1525.1,608.407 1527.26,607.584 1529.42,606.79 1531.58,606.024 1533.74,605.287 1535.91,604.575 1538.07,603.885 1540.23,603.214 1542.39,602.557 1544.55,601.908 1546.71,601.262 1548.87,600.611 1551.03,599.95 1553.19,599.296 1555.35,598.65 1557.51,598.013 1559.68,597.384 1561.84,596.764 1564,596.151 1566.16,595.547 1568.32,594.951 1570.48,594.363 1572.64,593.783 1574.8,593.21 1576.96,592.645 1579.12,592.087 1581.29,591.537 1583.45,590.994 1585.61,590.458 1587.77,589.93 1589.93,589.408 1592.09,588.893 1594.25,588.385 1596.41,587.884 1598.57,587.389 1600.73,586.901 1602.9,586.42 1605.06,585.945 1607.22,585.476 1609.38,585.013 1611.54,584.557 1613.7,584.106 1615.86,583.662 1618.02,583.223 1620.18,582.79 1622.34,582.363 1624.51,581.942 1626.67,581.526 1628.83,581.116 1630.99,580.711 1633.15,580.312 1635.31,579.918 1637.47,579.529 1639.63,579.145 1641.79,578.767 1643.95,578.393 1646.12,578.025 1648.28,577.661 1650.44,577.302 1652.6,576.948 1654.76,576.599 1656.92,576.254 1659.08,575.914 1661.24,575.578 1663.4,575.247 1665.56,574.92 1667.72,574.598 1669.89,574.279 1672.05,573.965 1674.21,573.655 1676.37,573.35 1678.53,573.048 1680.69,572.75 1682.85,572.456 1685.01,572.166 1687.17,571.88 1689.33,571.598 1691.5,571.319 1693.66,571.045 1695.82,570.773 1697.98,570.506 1700.14,570.242 1702.3,569.981 1704.46,569.699 1706.62,568.844 1708.78,567.258 1710.94,565.026 1713.11,562.229 1715.27,558.943 1717.43,555.242 1719.59,551.193 1721.75,546.859 1723.91,542.301 1726.07,537.572 1728.23,532.722 1730.39,527.799 1732.55,522.842 1734.72,517.89 1736.88,512.974 1739.04,508.124 1741.2,503.362 1743.36,498.709 1745.52,494.178 1747.68,489.782 1749.84,485.526 1752,481.411 1754.16,477.435 1756.33,473.592 1758.49,469.869 1760.65,466.25 1762.81,462.716 1764.97,459.241 1767.13,455.797 1769.29,452.35 1771.45,448.865 1773.61,445.396 1775.77,441.974 1777.93,438.596 1780.1,435.264 1782.26,431.975 1784.42,428.731 1786.58,425.529 1788.74,422.37 1790.9,419.252 1793.06,416.176 1795.22,413.141 1797.38,410.146 1799.54,407.191 1801.71,404.275 1803.87,401.397 1806.03,398.558 1808.19,395.756 1810.35,392.991 1812.51,390.263 1814.67,387.571 1816.83,384.914 1818.99,382.293 1821.15,379.706 1823.32,377.154 1825.48,374.636 1827.64,372.151 1829.8,369.699 1831.96,367.28 1834.12,364.892 1836.28,362.537 1838.44,360.213 1840.6,357.919 1842.76,355.656 1844.93,353.423 1847.09,351.22 1849.25,349.046 1851.41,346.901 1853.57,344.784 1855.73,342.696 1857.89,340.635 1860.05,338.602 1862.21,336.595 1864.37,334.615 1866.54,332.662 1868.7,330.734 1870.86,328.832 1873.02,326.955 1875.18,325.103 1877.34,323.276 1879.5,321.473 1881.66,319.693 1883.82,317.937 1885.98,316.205 1888.15,314.495 1890.31,312.808 1892.47,311.144 1894.63,309.501 1896.79,307.875 1898.95,305.912 1901.11,303.617 1903.27,301.265 1905.43,299.092 1907.59,297.288 1909.75,296.001 1911.92,295.338 1914.08,295.36 1916.24,296.088 1918.4,297.497 1920.56,299.524 1922.72,302.057 1924.88,304.946 1927.04,307.997 1929.2,310.971 1931.36,313.664 1933.53,316.279 1935.69,318.86 1937.85,321.406 1940.01,323.918 1942.17,326.397 1944.33,328.844 1946.49,331.257 1948.65,333.639 1950.81,335.989 1952.97,338.308 1955.14,340.597 1957.3,342.855 1959.46,345.083 1961.62,347.282 1963.78,349.452 1965.94,351.592 1968.1,353.705 1970.26,355.79 1972.42,357.847 1974.58,359.876 1976.75,361.879 1978.91,363.855 1981.07,365.805 1983.23,367.729 1985.39,369.628 1987.55,371.501 1989.71,373.349 1991.87,375.173 1994.03,376.973 1996.19,378.748 1998.36,380.501 2000.52,382.229 2002.68,383.935 2004.84,385.619 2007,387.279 2009.16,388.918 2011.32,390.535 2013.48,392.131 2015.64,393.705 2017.8,395.259 2019.96,396.792 2022.13,398.304 2024.29,399.797 2026.45,401.27 2028.61,402.723 2030.77,404.157 2032.93,405.572 2035.09,406.968 2037.25,408.346 2039.41,409.705 2041.57,411.047 2043.74,412.371 2045.9,413.677 2048.06,414.966 2050.22,416.238 2052.38,417.493 2054.54,418.731 2056.7,419.954 2058.86,421.159 2061.02,422.349 2063.18,423.524 2065.35,424.682 2067.51,425.825 2069.67,426.953 2071.83,428.066 2073.99,429.165 2076.15,430.248 2078.31,431.318 2080.47,432.373 2082.63,433.414 2084.79,434.442 2086.96,435.455 2089.12,436.456 2091.28,437.443 2093.44,438.417 2095.6,439.378 2097.76,440.326 2099.92,441.262 2102.08,442.185 2104.24,443.096 2106.4,443.995 2108.57,444.882 2110.73,445.757 2112.89,446.621 2115.05,447.473 2117.21,448.314 2119.37,449.144 2121.53,449.963 2123.69,450.771 2125.85,451.568 2128.01,452.355 2130.17,452.245 2132.34,452.315 2134.5,455.752 2136.66,463.098 2138.82,472.175 2140.98,480.718 2143.14,489.147 2145.3,497.465 2147.46,505.672 2149.62,513.77 2151.78,521.761 2153.95,529.647 2156.11,537.427 2158.27,545.105 2160.43,552.68 2162.59,560.155 2164.75,567.531 2166.91,574.81 2169.07,581.991 2171.23,589.078 2173.39,596.07 2175.56,602.97 2177.72,609.779 2179.88,616.497 2182.04,623.126 2184.2,629.667 2186.36,636.122 2188.52,642.491 2190.68,648.775 2192.84,654.976 2195,661.095 2197.17,667.133 2199.33,673.091 2201.49,678.97 2203.65,684.77 2205.81,690.494 2207.97,696.142 2210.13,701.715 2212.29,707.215 2214.45,712.641 2216.61,717.995 2218.78,723.279 2220.94,728.492 2223.1,733.636 2225.26,738.712 2227.42,743.721 2229.58,748.663 2231.74,753.54 2233.9,758.352 2236.06,763.101 2238.22,767.786 2240.38,772.41 2242.55,776.972 2244.71,781.473 2246.87,785.915 2249.03,790.298 2251.19,794.623 2253.35,798.891 2255.51,803.101 2257.67,807.257 2259.83,811.356 2261.99,815.402 2264.16,819.394 2266.32,823.333 2268.48,827.22 2270.64,831.055 2272.8,834.84 2274.96,838.574 2277.12,842.259 2279.28,845.894 2281.44,849.482 2283.6,853.022 2285.77,856.516 2287.93,859.963 2290.09,863.364 2292.25,866.72 2294.41,870.032 2296.57,873.299 2298.73,876.524 2300.89,879.706 2303.05,882.845 2305.21,885.943 2307.38,889 2309.54,892.016 2311.7,894.993 2313.86,897.929 2316.02,900.827 2318.18,903.687 2320.34,906.508 2322.5,909.292 2324.66,912.039 2326.82,914.75 2328.99,917.425 2331.15,920.064 2333.31,922.668 2335.47,925.238 2337.63,927.774 2339.79,930.276 2341.95,932.745 2344.11,935.181 2346.27,937.585 2348.43,939.957 2350.59,942.298 2352.76,944.607 "/>
<polyline clip-path="url(#clip142)" style="stroke:#e26f46; stroke-linecap:round; stroke-linejoin:round; stroke-width:4; stroke-opacity:1; fill:none" points="193.936,1384.24 196.097,1384.24 198.258,1384.24 200.419,1384.24 202.58,1384.24 204.741,1384.24 206.902,1384.24 209.063,1384.24 211.224,1384.24 213.385,1384.24 215.546,1384.24 217.707,1384.24 219.868,1384.24 222.029,1384.24 224.19,1384.24 226.351,1384.24 228.512,1384.24 230.673,1384.24 232.834,1384.24 234.995,1384.24 237.156,1384.24 239.317,1384.24 241.478,1384.24 243.639,1384.24 245.8,1384.24 247.961,1384.24 250.122,1384.24 252.282,1384.24 254.443,1384.24 256.604,1384.24 258.765,1384.24 260.926,1384.24 263.087,1384.24 265.248,1384.24 267.409,1384.24 269.57,1384.24 271.731,1384.24 273.892,1384.24 276.053,1384.24 278.214,1384.24 280.375,1384.24 282.536,1384.24 284.697,1384.24 286.858,1384.24 289.019,1384.24 291.18,1384.24 293.341,1384.24 295.502,1384.24 297.663,1384.24 299.824,1384.24 301.985,1384.24 304.146,1384.24 306.307,1384.24 308.468,1384.24 310.629,1384.24 312.79,1384.24 314.951,1384.24 317.112,1384.24 319.273,1384.24 321.434,1384.24 323.595,1384.24 325.756,1384.24 327.917,1384.24 330.078,1384.24 332.239,1384.24 334.4,1384.24 336.561,1384.24 338.722,1384.24 340.883,1384.24 343.044,1384.24 345.205,1384.24 347.366,1384.24 349.527,1384.24 351.688,1384.24 353.849,1384.24 356.01,1384.24 358.171,1384.24 360.332,1384.24 362.493,1384.24 364.653,1384.24 366.814,1384.24 368.975,1384.24 371.136,1384.24 373.297,1384.24 375.458,1384.24 377.619,1384.24 379.78,1384.24 381.941,1384.24 384.102,1384.24 386.263,1384.24 388.424,1384.24 390.585,1384.24 392.746,1384.24 394.907,1384.24 397.068,1384.24 399.229,1384.24 401.39,1384.24 403.551,1384.24 405.712,1384.24 407.873,1384.24 410.034,439.386 412.195,439.386 414.356,439.386 416.517,439.386 418.678,439.386 420.839,439.386 423,439.386 425.161,439.386 427.322,439.386 429.483,439.386 431.644,439.386 433.805,439.386 435.966,439.386 438.127,439.386 440.288,439.386 442.449,439.386 444.61,439.386 446.771,439.386 448.932,439.386 451.093,439.386 453.254,439.386 455.415,439.386 457.576,439.386 459.737,439.386 461.898,439.386 464.059,439.386 466.22,439.386 468.381,439.386 470.542,439.386 472.703,439.386 474.864,439.386 477.024,439.386 479.185,439.386 481.346,439.386 483.507,439.386 485.668,439.386 487.829,439.386 489.99,439.386 492.151,439.386 494.312,439.386 496.473,439.386 498.634,439.386 500.795,439.386 502.956,439.386 505.117,439.386 507.278,439.386 509.439,439.386 511.6,439.386 513.761,439.386 515.922,439.386 518.083,439.386 520.244,439.386 522.405,439.386 524.566,439.386 526.727,439.386 528.888,439.386 531.049,439.386 533.21,439.386 535.371,439.386 537.532,439.386 539.693,439.386 541.854,439.386 544.015,439.386 546.176,439.386 548.337,439.386 550.498,439.386 552.659,439.386 554.82,439.386 556.981,439.386 559.142,439.386 561.303,439.386 563.464,439.386 565.625,439.386 567.786,439.386 569.947,439.386 572.108,439.386 574.269,439.386 576.43,439.386 578.591,439.386 580.752,439.386 582.913,439.386 585.074,439.386 587.235,439.386 589.396,439.386 591.556,439.386 593.717,439.386 595.878,439.386 598.039,439.386 600.2,439.386 602.361,439.386 604.522,439.386 606.683,439.386 608.844,439.386 611.005,439.386 613.166,439.386 615.327,439.386 617.488,439.386 619.649,439.386 621.81,439.386 623.971,439.386 626.132,1081.22 628.293,1081.22 630.454,1081.22 632.615,1081.22 634.776,1081.22 636.937,1081.22 639.098,1081.22 641.259,1081.22 643.42,1081.22 645.581,1081.22 647.742,1081.22 649.903,1081.22 652.064,1081.22 654.225,1081.22 656.386,1081.22 658.547,1081.22 660.708,1081.22 662.869,1081.22 665.03,1081.22 667.191,1081.22 669.352,1081.22 671.513,1081.22 673.674,1081.22 675.835,1081.22 677.996,1081.22 680.157,1081.22 682.318,1081.22 684.479,1081.22 686.64,1081.22 688.801,1081.22 690.962,1081.22 693.123,1081.22 695.284,1081.22 697.445,1081.22 699.606,1081.22 701.767,1081.22 703.927,1081.22 706.088,1081.22 708.249,1081.22 710.41,1081.22 712.571,1081.22 714.732,1081.22 716.893,1081.22 719.054,1081.22 721.215,1081.22 723.376,1081.22 725.537,1081.22 727.698,1081.22 729.859,1081.22 732.02,1081.22 734.181,1081.22 736.342,1081.22 738.503,1081.22 740.664,1081.22 742.825,1081.22 744.986,1081.22 747.147,1081.22 749.308,1081.22 751.469,1081.22 753.63,1081.22 755.791,1081.22 757.952,1081.22 760.113,1081.22 762.274,1081.22 764.435,1081.22 766.596,1081.22 768.757,1081.22 770.918,1081.22 773.079,1081.22 775.24,1081.22 777.401,1081.22 779.562,1081.22 781.723,1081.22 783.884,1081.22 786.045,1081.22 788.206,1081.22 790.367,1081.22 792.528,1081.22 794.689,1081.22 796.85,1081.22 799.011,1081.22 801.172,1081.22 803.333,1081.22 805.494,1081.22 807.655,1081.22 809.816,1081.22 811.977,1081.22 814.138,1081.22 816.298,1081.22 818.459,1081.22 820.62,1081.22 822.781,1081.22 824.942,1081.22 827.103,1081.22 829.264,1081.22 831.425,1081.22 833.586,1081.22 835.747,1081.22 837.908,1081.22 840.069,1081.22 842.23,86.1857 844.391,86.1857 846.552,86.1857 848.713,86.1857 850.874,86.1857 853.035,86.1857 855.196,86.1857 857.357,86.1857 859.518,86.1857 861.679,86.1857 863.84,86.1857 866.001,86.1857 868.162,86.1857 870.323,86.1857 872.484,86.1857 874.645,86.1857 876.806,86.1857 878.967,86.1857 881.128,86.1857 883.289,86.1857 885.45,86.1857 887.611,86.1857 889.772,86.1857 891.933,86.1857 894.094,86.1857 896.255,86.1857 898.416,86.1857 900.577,86.1857 902.738,86.1857 904.899,86.1857 907.06,86.1857 909.221,86.1857 911.382,86.1857 913.543,86.1857 915.704,86.1857 917.865,86.1857 920.026,86.1857 922.187,86.1857 924.348,86.1857 926.509,86.1857 928.669,86.1857 930.83,86.1857 932.991,86.1857 935.152,86.1857 937.313,86.1857 939.474,86.1857 941.635,86.1857 943.796,86.1857 945.957,86.1857 948.118,86.1857 950.279,86.1857 952.44,86.1857 954.601,86.1857 956.762,86.1857 958.923,86.1857 961.084,86.1857 963.245,86.1857 965.406,86.1857 967.567,86.1857 969.728,86.1857 971.889,86.1857 974.05,86.1857 976.211,86.1857 978.372,86.1857 980.533,86.1857 982.694,86.1857 984.855,86.1857 987.016,86.1857 989.177,86.1857 991.338,86.1857 993.499,86.1857 995.66,86.1857 997.821,86.1857 999.982,86.1857 1002.14,86.1857 1004.3,86.1857 1006.46,86.1857 1008.63,86.1857 1010.79,86.1857 1012.95,86.1857 1015.11,86.1857 1017.27,86.1857 1019.43,86.1857 1021.59,86.1857 1023.75,86.1857 1025.91,86.1857 1028.07,86.1857 1030.24,86.1857 1032.4,86.1857 1034.56,86.1857 1036.72,86.1857 1038.88,86.1857 1041.04,86.1857 1043.2,86.1857 1045.36,86.1857 1047.52,86.1857 1049.68,86.1857 1051.85,86.1857 1054.01,86.1857 1056.17,86.1857 1058.33,699.344 1060.49,699.344 1062.65,699.344 1064.81,699.344 1066.97,699.344 1069.13,699.344 1071.29,699.344 1073.46,699.344 1075.62,699.344 1077.78,699.344 1079.94,699.344 1082.1,699.344 1084.26,699.344 1086.42,699.344 1088.58,699.344 1090.74,699.344 1092.9,699.344 1095.07,699.344 1097.23,699.344 1099.39,699.344 1101.55,699.344 1103.71,699.344 1105.87,699.344 1108.03,699.344 1110.19,699.344 1112.35,699.344 1114.51,699.344 1116.67,699.344 1118.84,699.344 1121,699.344 1123.16,699.344 1125.32,699.344 1127.48,699.344 1129.64,699.344 1131.8,699.344 1133.96,699.344 1136.12,699.344 1138.28,699.344 1140.45,699.344 1142.61,699.344 1144.77,699.344 1146.93,699.344 1149.09,699.344 1151.25,699.344 1153.41,699.344 1155.57,699.344 1157.73,699.344 1159.89,699.344 1162.06,699.344 1164.22,699.344 1166.38,699.344 1168.54,699.344 1170.7,699.344 1172.86,699.344 1175.02,699.344 1177.18,699.344 1179.34,699.344 1181.5,699.344 1183.67,699.344 1185.83,699.344 1187.99,699.344 1190.15,699.344 1192.31,699.344 1194.47,699.344 1196.63,699.344 1198.79,699.344 1200.95,699.344 1203.11,699.344 1205.28,699.344 1207.44,699.344 1209.6,699.344 1211.76,699.344 1213.92,699.344 1216.08,699.344 1218.24,699.344 1220.4,699.344 1222.56,699.344 1224.72,699.344 1226.88,699.344 1229.05,699.344 1231.21,699.344 1233.37,699.344 1235.53,699.344 1237.69,699.344 1239.85,699.344 1242.01,699.344 1244.17,699.344 1246.33,699.344 1248.49,699.344 1250.66,699.344 1252.82,699.344 1254.98,699.344 1257.14,699.344 1259.3,699.344 1261.46,699.344 1263.62,699.344 1265.78,699.344 1267.94,699.344 1270.1,699.344 1272.27,699.344 1274.43,635.567 1276.59,635.567 1278.75,635.567 1280.91,635.567 1283.07,635.567 1285.23,635.567 1287.39,635.567 1289.55,635.567 1291.71,635.567 1293.88,635.567 1296.04,635.567 1298.2,635.567 1300.36,635.567 1302.52,635.567 1304.68,635.567 1306.84,635.567 1309,635.567 1311.16,635.567 1313.32,635.567 1315.49,635.567 1317.65,635.567 1319.81,635.567 1321.97,635.567 1324.13,635.567 1326.29,635.567 1328.45,635.567 1330.61,635.567 1332.77,635.567 1334.93,635.567 1337.09,635.567 1339.26,635.567 1341.42,635.567 1343.58,635.567 1345.74,635.567 1347.9,635.567 1350.06,635.567 1352.22,635.567 1354.38,635.567 1356.54,635.567 1358.7,635.567 1360.87,635.567 1363.03,635.567 1365.19,635.567 1367.35,635.567 1369.51,635.567 1371.67,635.567 1373.83,635.567 1375.99,635.567 1378.15,635.567 1380.31,635.567 1382.48,635.567 1384.64,635.567 1386.8,635.567 1388.96,635.567 1391.12,635.567 1393.28,635.567 1395.44,635.567 1397.6,635.567 1399.76,635.567 1401.92,635.567 1404.09,635.567 1406.25,635.567 1408.41,635.567 1410.57,635.567 1412.73,635.567 1414.89,635.567 1417.05,635.567 1419.21,635.567 1421.37,635.567 1423.53,635.567 1425.7,635.567 1427.86,635.567 1430.02,635.567 1432.18,635.567 1434.34,635.567 1436.5,635.567 1438.66,635.567 1440.82,635.567 1442.98,635.567 1445.14,635.567 1447.3,635.567 1449.47,635.567 1451.63,635.567 1453.79,635.567 1455.95,635.567 1458.11,635.567 1460.27,635.567 1462.43,635.567 1464.59,635.567 1466.75,635.567 1468.91,635.567 1471.08,635.567 1473.24,635.567 1475.4,635.567 1477.56,635.567 1479.72,635.567 1481.88,635.567 1484.04,635.567 1486.2,635.567 1488.36,635.567 1490.52,550.587 1492.69,550.587 1494.85,550.587 1497.01,550.587 1499.17,550.587 1501.33,550.587 1503.49,550.587 1505.65,550.587 1507.81,550.587 1509.97,550.587 1512.13,550.587 1514.3,550.587 1516.46,550.587 1518.62,550.587 1520.78,550.587 1522.94,550.587 1525.1,550.587 1527.26,550.587 1529.42,550.587 1531.58,550.587 1533.74,550.587 1535.91,550.587 1538.07,550.587 1540.23,550.587 1542.39,550.587 1544.55,550.587 1546.71,550.587 1548.87,550.587 1551.03,550.587 1553.19,550.587 1555.35,550.587 1557.51,550.587 1559.68,550.587 1561.84,550.587 1564,550.587 1566.16,550.587 1568.32,550.587 1570.48,550.587 1572.64,550.587 1574.8,550.587 1576.96,550.587 1579.12,550.587 1581.29,550.587 1583.45,550.587 1585.61,550.587 1587.77,550.587 1589.93,550.587 1592.09,550.587 1594.25,550.587 1596.41,550.587 1598.57,550.587 1600.73,550.587 1602.9,550.587 1605.06,550.587 1607.22,550.587 1609.38,550.587 1611.54,550.587 1613.7,550.587 1615.86,550.587 1618.02,550.587 1620.18,550.587 1622.34,550.587 1624.51,550.587 1626.67,550.587 1628.83,550.587 1630.99,550.587 1633.15,550.587 1635.31,550.587 1637.47,550.587 1639.63,550.587 1641.79,550.587 1643.95,550.587 1646.12,550.587 1648.28,550.587 1650.44,550.587 1652.6,550.587 1654.76,550.587 1656.92,550.587 1659.08,550.587 1661.24,550.587 1663.4,550.587 1665.56,550.587 1667.72,550.587 1669.89,550.587 1672.05,550.587 1674.21,550.587 1676.37,550.587 1678.53,550.587 1680.69,550.587 1682.85,550.587 1685.01,550.587 1687.17,550.587 1689.33,550.587 1691.5,550.587 1693.66,550.587 1695.82,550.587 1697.98,550.587 1700.14,550.587 1702.3,550.587 1704.46,550.587 1706.62,187.239 1708.78,187.239 1710.94,187.239 1713.11,187.239 1715.27,187.239 1717.43,187.239 1719.59,187.239 1721.75,187.239 1723.91,187.239 1726.07,187.239 1728.23,187.239 1730.39,187.239 1732.55,187.239 1734.72,187.239 1736.88,187.239 1739.04,187.239 1741.2,187.239 1743.36,187.239 1745.52,187.239 1747.68,187.239 1749.84,187.239 1752,187.239 1754.16,187.239 1756.33,187.239 1758.49,187.239 1760.65,187.239 1762.81,187.239 1764.97,187.239 1767.13,187.239 1769.29,187.239 1771.45,187.239 1773.61,187.239 1775.77,187.239 1777.93,187.239 1780.1,187.239 1782.26,187.239 1784.42,187.239 1786.58,187.239 1788.74,187.239 1790.9,187.239 1793.06,187.239 1795.22,187.239 1797.38,187.239 1799.54,187.239 1801.71,187.239 1803.87,187.239 1806.03,187.239 1808.19,187.239 1810.35,187.239 1812.51,187.239 1814.67,187.239 1816.83,187.239 1818.99,187.239 1821.15,187.239 1823.32,187.239 1825.48,187.239 1827.64,187.239 1829.8,187.239 1831.96,187.239 1834.12,187.239 1836.28,187.239 1838.44,187.239 1840.6,187.239 1842.76,187.239 1844.93,187.239 1847.09,187.239 1849.25,187.239 1851.41,187.239 1853.57,187.239 1855.73,187.239 1857.89,187.239 1860.05,187.239 1862.21,187.239 1864.37,187.239 1866.54,187.239 1868.7,187.239 1870.86,187.239 1873.02,187.239 1875.18,187.239 1877.34,187.239 1879.5,187.239 1881.66,187.239 1883.82,187.239 1885.98,187.239 1888.15,187.239 1890.31,187.239 1892.47,187.239 1894.63,187.239 1896.79,187.239 1898.95,187.239 1901.11,187.239 1903.27,187.239 1905.43,187.239 1907.59,187.239 1909.75,187.239 1911.92,187.239 1914.08,187.239 1916.24,187.239 1918.4,187.239 1920.56,187.239 1922.72,510.906 1924.88,510.906 1927.04,510.906 1929.2,510.906 1931.36,510.906 1933.53,510.906 1935.69,510.906 1937.85,510.906 1940.01,510.906 1942.17,510.906 1944.33,510.906 1946.49,510.906 1948.65,510.906 1950.81,510.906 1952.97,510.906 1955.14,510.906 1957.3,510.906 1959.46,510.906 1961.62,510.906 1963.78,510.906 1965.94,510.906 1968.1,510.906 1970.26,510.906 1972.42,510.906 1974.58,510.906 1976.75,510.906 1978.91,510.906 1981.07,510.906 1983.23,510.906 1985.39,510.906 1987.55,510.906 1989.71,510.906 1991.87,510.906 1994.03,510.906 1996.19,510.906 1998.36,510.906 2000.52,510.906 2002.68,510.906 2004.84,510.906 2007,510.906 2009.16,510.906 2011.32,510.906 2013.48,510.906 2015.64,510.906 2017.8,510.906 2019.96,510.906 2022.13,510.906 2024.29,510.906 2026.45,510.906 2028.61,510.906 2030.77,510.906 2032.93,510.906 2035.09,510.906 2037.25,510.906 2039.41,510.906 2041.57,510.906 2043.74,510.906 2045.9,510.906 2048.06,510.906 2050.22,510.906 2052.38,510.906 2054.54,510.906 2056.7,510.906 2058.86,510.906 2061.02,510.906 2063.18,510.906 2065.35,510.906 2067.51,510.906 2069.67,510.906 2071.83,510.906 2073.99,510.906 2076.15,510.906 2078.31,510.906 2080.47,510.906 2082.63,510.906 2084.79,510.906 2086.96,510.906 2089.12,510.906 2091.28,510.906 2093.44,510.906 2095.6,510.906 2097.76,510.906 2099.92,510.906 2102.08,510.906 2104.24,510.906 2106.4,510.906 2108.57,510.906 2110.73,510.906 2112.89,510.906 2115.05,510.906 2117.21,510.906 2119.37,510.906 2121.53,510.906 2123.69,510.906 2125.85,510.906 2128.01,510.906 2130.17,510.906 2132.34,510.906 2134.5,510.906 2136.66,510.906 2138.82,1116.5 2140.98,1116.5 2143.14,1116.5 2145.3,1116.5 2147.46,1116.5 2149.62,1116.5 2151.78,1116.5 2153.95,1116.5 2156.11,1116.5 2158.27,1116.5 2160.43,1116.5 2162.59,1116.5 2164.75,1116.5 2166.91,1116.5 2169.07,1116.5 2171.23,1116.5 2173.39,1116.5 2175.56,1116.5 2177.72,1116.5 2179.88,1116.5 2182.04,1116.5 2184.2,1116.5 2186.36,1116.5 2188.52,1116.5 2190.68,1116.5 2192.84,1116.5 2195,1116.5 2197.17,1116.5 2199.33,1116.5 2201.49,1116.5 2203.65,1116.5 2205.81,1116.5 2207.97,1116.5 2210.13,1116.5 2212.29,1116.5 2214.45,1116.5 2216.61,1116.5 2218.78,1116.5 2220.94,1116.5 2223.1,1116.5 2225.26,1116.5 2227.42,1116.5 2229.58,1116.5 2231.74,1116.5 2233.9,1116.5 2236.06,1116.5 2238.22,1116.5 2240.38,1116.5 2242.55,1116.5 2244.71,1116.5 2246.87,1116.5 2249.03,1116.5 2251.19,1116.5 2253.35,1116.5 2255.51,1116.5 2257.67,1116.5 2259.83,1116.5 2261.99,1116.5 2264.16,1116.5 2266.32,1116.5 2268.48,1116.5 2270.64,1116.5 2272.8,1116.5 2274.96,1116.5 2277.12,1116.5 2279.28,1116.5 2281.44,1116.5 2283.6,1116.5 2285.77,1116.5 2287.93,1116.5 2290.09,1116.5 2292.25,1116.5 2294.41,1116.5 2296.57,1116.5 2298.73,1116.5 2300.89,1116.5 2303.05,1116.5 2305.21,1116.5 2307.38,1116.5 2309.54,1116.5 2311.7,1116.5 2313.86,1116.5 2316.02,1116.5 2318.18,1116.5 2320.34,1116.5 2322.5,1116.5 2324.66,1116.5 2326.82,1116.5 2328.99,1116.5 2331.15,1116.5 2333.31,1116.5 2335.47,1116.5 2337.63,1116.5 2339.79,1116.5 2341.95,1116.5 2344.11,1116.5 2346.27,1116.5 2348.43,1116.5 2350.59,1116.5 2352.76,1116.5 "/>
<path clip-path="url(#clip140)" d="M265.897 248.629 L559.973 248.629 L559.973 93.1086 L265.897 93.1086  Z" fill="#ffffff" fill-rule="evenodd" fill-opacity="1"/>
<polyline clip-path="url(#clip140)" style="stroke:#000000; stroke-linecap:round; stroke-linejoin:round; stroke-width:4; stroke-opacity:1; fill:none" points="265.897,248.629 559.973,248.629 559.973,93.1086 265.897,93.1086 265.897,248.629 "/>
<polyline clip-path="url(#clip140)" style="stroke:#009af9; stroke-linecap:round; stroke-linejoin:round; stroke-width:4; stroke-opacity:1; fill:none" points="289.884,144.949 433.805,144.949 "/>
<path clip-path="url(#clip140)" d="M482.444 136.303 L473.069 148.919 L482.931 162.229 L477.907 162.229 L470.361 152.043 L462.815 162.229 L457.792 162.229 L467.861 148.664 L458.648 136.303 L463.671 136.303 L470.546 145.539 L477.421 136.303 L482.444 136.303 Z" fill="#000000" fill-rule="nonzero" fill-opacity="1" /><path clip-path="url(#clip140)" d="M499.18 126.257 Q496.079 131.581 494.574 136.789 Q493.069 141.997 493.069 147.344 Q493.069 152.692 494.574 157.946 Q496.102 163.178 499.18 168.479 L495.477 168.479 Q492.005 163.039 490.268 157.784 Q488.555 152.53 488.555 147.344 Q488.555 142.182 490.268 136.951 Q491.981 131.72 495.477 126.257 L499.18 126.257 Z" fill="#000000" fill-rule="nonzero" fill-opacity="1" /><path clip-path="url(#clip140)" d="M511.657 128.942 L511.657 136.303 L520.43 136.303 L520.43 139.613 L511.657 139.613 L511.657 153.687 Q511.657 156.858 512.514 157.761 Q513.393 158.664 516.055 158.664 L520.43 158.664 L520.43 162.229 L516.055 162.229 Q511.125 162.229 509.25 160.4 Q507.375 158.548 507.375 153.687 L507.375 139.613 L504.25 139.613 L504.25 136.303 L507.375 136.303 L507.375 128.942 L511.657 128.942 Z" fill="#000000" fill-rule="nonzero" fill-opacity="1" /><path clip-path="url(#clip140)" d="M525.361 126.257 L529.065 126.257 Q532.537 131.72 534.25 136.951 Q535.986 142.182 535.986 147.344 Q535.986 152.53 534.25 157.784 Q532.537 163.039 529.065 168.479 L525.361 168.479 Q528.44 163.178 529.944 157.946 Q531.472 152.692 531.472 147.344 Q531.472 141.997 529.944 136.789 Q528.44 131.581 525.361 126.257 Z" fill="#000000" fill-rule="nonzero" fill-opacity="1" /><polyline clip-path="url(#clip140)" style="stroke:#e26f46; stroke-linecap:round; stroke-linejoin:round; stroke-width:4; stroke-opacity:1; fill:none" points="289.884,196.789 433.805,196.789 "/>
<path clip-path="url(#clip140)" d="M474.296 178.05 L474.296 181.592 L470.222 181.592 Q467.931 181.592 467.028 182.518 Q466.148 183.444 466.148 185.851 L466.148 188.143 L473.162 188.143 L473.162 191.453 L466.148 191.453 L466.148 214.069 L461.866 214.069 L461.866 191.453 L457.792 191.453 L457.792 188.143 L461.866 188.143 L461.866 186.337 Q461.866 182.009 463.88 180.041 Q465.894 178.05 470.269 178.05 L474.296 178.05 Z" fill="#000000" fill-rule="nonzero" fill-opacity="1" /><path clip-path="url(#clip140)" d="M488.093 178.097 Q484.991 183.421 483.486 188.629 Q481.981 193.837 481.981 199.184 Q481.981 204.532 483.486 209.786 Q485.014 215.018 488.093 220.319 L484.389 220.319 Q480.917 214.879 479.181 209.624 Q477.468 204.37 477.468 199.184 Q477.468 194.022 479.181 188.791 Q480.893 183.56 484.389 178.097 L488.093 178.097 Z" fill="#000000" fill-rule="nonzero" fill-opacity="1" /><path clip-path="url(#clip140)" d="M500.569 180.782 L500.569 188.143 L509.342 188.143 L509.342 191.453 L500.569 191.453 L500.569 205.527 Q500.569 208.698 501.426 209.601 Q502.305 210.504 504.967 210.504 L509.342 210.504 L509.342 214.069 L504.967 214.069 Q500.037 214.069 498.162 212.24 Q496.287 210.388 496.287 205.527 L496.287 191.453 L493.162 191.453 L493.162 188.143 L496.287 188.143 L496.287 180.782 L500.569 180.782 Z" fill="#000000" fill-rule="nonzero" fill-opacity="1" /><path clip-path="url(#clip140)" d="M514.273 178.097 L517.977 178.097 Q521.449 183.56 523.162 188.791 Q524.898 194.022 524.898 199.184 Q524.898 204.37 523.162 209.624 Q521.449 214.879 517.977 220.319 L514.273 220.319 Q517.352 215.018 518.856 209.786 Q520.384 204.532 520.384 199.184 Q520.384 193.837 518.856 188.629 Q517.352 183.421 514.273 178.097 Z" fill="#000000" fill-rule="nonzero" fill-opacity="1" /></svg>
