<?xml version="1.0" encoding="utf-8"?>
<svg xmlns="http://www.w3.org/2000/svg" xmlns:xlink="http://www.w3.org/1999/xlink" width="600" height="400" viewBox="0 0 2400 1600">
<defs>
  <clipPath id="clip480">
    <rect x="0" y="0" width="2400" height="1600"/>
  </clipPath>
</defs>
<path clip-path="url(#clip480)" d="M0 1600 L2400 1600 L2400 0 L0 0  Z" fill="#ffffff" fill-rule="evenodd" fill-opacity="1"/>
<defs>
  <clipPath id="clip481">
    <rect x="480" y="0" width="1681" height="1600"/>
  </clipPath>
</defs>
<defs>
  <clipPath id="clip482">
    <rect x="155" y="47" width="2198" height="1440"/>
  </clipPath>
</defs>
<path clip-path="url(#clip482)" d="M-1173.38 2636.19 L-1173.38 2344.45 L-1033.9 2198.58 L-792.311 2282.8 L-792.311 2574.54 L-931.793 2720.41 L-1173.38 2636.19  Z" fill="#ffffff" fill-rule="evenodd" fill-opacity="1"/>
<polyline clip-path="url(#clip482)" style="stroke:#000000; stroke-linecap:round; stroke-linejoin:round; stroke-width:2; stroke-opacity:0.1; fill:none" points="796.968,1234.51 1212.43,874.704 1212.43,155.103 "/>
<polyline clip-path="url(#clip482)" style="stroke:#000000; stroke-linecap:round; stroke-linejoin:round; stroke-width:2; stroke-opacity:0.1; fill:none" points="917.763,1269.38 1333.23,909.575 1333.23,189.973 "/>
<polyline clip-path="url(#clip482)" style="stroke:#000000; stroke-linecap:round; stroke-linejoin:round; stroke-width:2; stroke-opacity:0.1; fill:none" points="1038.56,1304.25 1454.02,944.446 1454.02,224.844 "/>
<polyline clip-path="url(#clip482)" style="stroke:#000000; stroke-linecap:round; stroke-linejoin:round; stroke-width:2; stroke-opacity:0.1; fill:none" points="1159.35,1339.12 1574.82,979.316 1574.82,259.714 "/>
<polyline clip-path="url(#clip482)" style="stroke:#000000; stroke-linecap:round; stroke-linejoin:round; stroke-width:2; stroke-opacity:0.1; fill:none" points="1280.15,1373.99 1695.61,1014.19 1695.61,294.585 "/>
<polyline clip-path="url(#clip482)" style="stroke:#000000; stroke-linecap:round; stroke-linejoin:round; stroke-width:2; stroke-opacity:0.1; fill:none" points="1400.94,1408.86 1816.41,1049.06 1816.41,329.455 "/>
<polyline clip-path="url(#clip482)" style="stroke:#000000; stroke-linecap:round; stroke-linejoin:round; stroke-width:2; stroke-opacity:0.1; fill:none" points="1462.31,1361.93 742.709,1154.2 742.709,434.599 "/>
<polyline clip-path="url(#clip482)" style="stroke:#000000; stroke-linecap:round; stroke-linejoin:round; stroke-width:2; stroke-opacity:0.1; fill:none" points="1546.53,1289 826.928,1081.27 826.928,361.663 "/>
<polyline clip-path="url(#clip482)" style="stroke:#000000; stroke-linecap:round; stroke-linejoin:round; stroke-width:2; stroke-opacity:0.1; fill:none" points="1630.75,1216.06 911.147,1008.33 911.147,288.728 "/>
<polyline clip-path="url(#clip482)" style="stroke:#000000; stroke-linecap:round; stroke-linejoin:round; stroke-width:2; stroke-opacity:0.1; fill:none" points="1714.97,1143.12 995.366,935.394 995.366,215.792 "/>
<polyline clip-path="url(#clip482)" style="stroke:#000000; stroke-linecap:round; stroke-linejoin:round; stroke-width:2; stroke-opacity:0.1; fill:none" points="1799.19,1070.19 1079.58,862.458 1079.58,142.856 "/>
<polyline clip-path="url(#clip482)" style="stroke:#000000; stroke-linecap:round; stroke-linejoin:round; stroke-width:2; stroke-opacity:0.1; fill:none" points="686.728,1167.32 1102.19,807.524 1821.79,1015.25 "/>
<polyline clip-path="url(#clip482)" style="stroke:#000000; stroke-linecap:round; stroke-linejoin:round; stroke-width:2; stroke-opacity:0.1; fill:none" points="686.728,1023.27 1102.19,663.47 1821.79,871.201 "/>
<polyline clip-path="url(#clip482)" style="stroke:#000000; stroke-linecap:round; stroke-linejoin:round; stroke-width:2; stroke-opacity:0.1; fill:none" points="686.728,879.217 1102.19,519.416 1821.79,727.147 "/>
<polyline clip-path="url(#clip482)" style="stroke:#000000; stroke-linecap:round; stroke-linejoin:round; stroke-width:2; stroke-opacity:0.1; fill:none" points="686.728,735.163 1102.19,375.362 1821.79,583.093 "/>
<polyline clip-path="url(#clip482)" style="stroke:#000000; stroke-linecap:round; stroke-linejoin:round; stroke-width:2; stroke-opacity:0.1; fill:none" points="686.728,591.109 1102.19,231.308 1821.79,439.039 "/>
<polyline clip-path="url(#clip480)" style="stroke:#000000; stroke-linecap:round; stroke-linejoin:round; stroke-width:4; stroke-opacity:1; fill:none" points="686.728,1202.68 1406.33,1410.41 "/>
<polyline clip-path="url(#clip480)" style="stroke:#000000; stroke-linecap:round; stroke-linejoin:round; stroke-width:4; stroke-opacity:1; fill:none" points="796.968,1234.51 801.954,1230.19 "/>
<polyline clip-path="url(#clip480)" style="stroke:#000000; stroke-linecap:round; stroke-linejoin:round; stroke-width:4; stroke-opacity:1; fill:none" points="917.763,1269.38 922.749,1265.06 "/>
<polyline clip-path="url(#clip480)" style="stroke:#000000; stroke-linecap:round; stroke-linejoin:round; stroke-width:4; stroke-opacity:1; fill:none" points="1038.56,1304.25 1043.54,1299.93 "/>
<polyline clip-path="url(#clip480)" style="stroke:#000000; stroke-linecap:round; stroke-linejoin:round; stroke-width:4; stroke-opacity:1; fill:none" points="1159.35,1339.12 1164.34,1334.8 "/>
<polyline clip-path="url(#clip480)" style="stroke:#000000; stroke-linecap:round; stroke-linejoin:round; stroke-width:4; stroke-opacity:1; fill:none" points="1280.15,1373.99 1285.13,1369.67 "/>
<polyline clip-path="url(#clip480)" style="stroke:#000000; stroke-linecap:round; stroke-linejoin:round; stroke-width:4; stroke-opacity:1; fill:none" points="1400.94,1408.86 1405.93,1404.54 "/>
<path clip-path="url(#clip480)" d="M777.905 1248.49 L766.099 1266.94 L777.905 1266.94 L777.905 1248.49 M776.678 1244.42 L782.558 1244.42 L782.558 1266.94 L787.488 1266.94 L787.488 1270.83 L782.558 1270.83 L782.558 1278.98 L777.905 1278.98 L777.905 1270.83 L762.303 1270.83 L762.303 1266.32 L776.678 1244.42 Z" fill="#000000" fill-rule="nonzero" fill-opacity="1" /><path clip-path="url(#clip480)" d="M887.381 1279.29 L905.737 1279.29 L905.737 1283.23 L891.663 1283.23 L891.663 1291.7 Q892.681 1291.35 893.7 1291.19 Q894.718 1291 895.737 1291 Q901.524 1291 904.904 1294.18 Q908.283 1297.35 908.283 1302.76 Q908.283 1308.34 904.811 1311.44 Q901.339 1314.52 895.019 1314.52 Q892.843 1314.52 890.575 1314.15 Q888.33 1313.78 885.922 1313.04 L885.922 1308.34 Q888.006 1309.48 890.228 1310.03 Q892.45 1310.59 894.927 1310.59 Q898.931 1310.59 901.269 1308.48 Q903.607 1306.37 903.607 1302.76 Q903.607 1299.15 901.269 1297.05 Q898.931 1294.94 894.927 1294.94 Q893.052 1294.94 891.177 1295.36 Q889.325 1295.77 887.381 1296.65 L887.381 1279.29 Z" fill="#000000" fill-rule="nonzero" fill-opacity="1" /><path clip-path="url(#clip480)" d="M1017.55 1329.58 Q1014.4 1329.58 1012.55 1331.73 Q1010.72 1333.88 1010.72 1337.63 Q1010.72 1341.36 1012.55 1343.54 Q1014.4 1345.69 1017.55 1345.69 Q1020.7 1345.69 1022.53 1343.54 Q1024.38 1341.36 1024.38 1337.63 Q1024.38 1333.88 1022.53 1331.73 Q1020.7 1329.58 1017.55 1329.58 M1026.83 1314.93 L1026.83 1319.18 Q1025.07 1318.35 1023.27 1317.91 Q1021.49 1317.47 1019.73 1317.47 Q1015.1 1317.47 1012.64 1320.6 Q1010.21 1323.72 1009.87 1330.04 Q1011.23 1328.03 1013.29 1326.96 Q1015.35 1325.87 1017.83 1325.87 Q1023.04 1325.87 1026.05 1329.05 Q1029.08 1332.19 1029.08 1337.63 Q1029.08 1342.96 1025.93 1346.18 Q1022.78 1349.39 1017.55 1349.39 Q1011.56 1349.39 1008.38 1344.81 Q1005.21 1340.2 1005.21 1331.48 Q1005.21 1323.28 1009.1 1318.42 Q1012.99 1313.54 1019.54 1313.54 Q1021.3 1313.54 1023.08 1313.88 Q1024.89 1314.23 1026.83 1314.93 Z" fill="#000000" fill-rule="nonzero" fill-opacity="1" /><path clip-path="url(#clip480)" d="M1127.65 1349.03 L1149.87 1349.03 L1149.87 1351.02 L1137.33 1383.59 L1132.44 1383.59 L1144.25 1352.97 L1127.65 1352.97 L1127.65 1349.03 Z" fill="#000000" fill-rule="nonzero" fill-opacity="1" /><path clip-path="url(#clip480)" d="M1258.82 1402.05 Q1255.48 1402.05 1253.56 1403.83 Q1251.66 1405.62 1251.66 1408.74 Q1251.66 1411.87 1253.56 1413.65 Q1255.48 1415.43 1258.82 1415.43 Q1262.15 1415.43 1264.07 1413.65 Q1265.99 1411.84 1265.99 1408.74 Q1265.99 1405.62 1264.07 1403.83 Q1262.17 1402.05 1258.82 1402.05 M1254.14 1400.06 Q1251.13 1399.32 1249.44 1397.26 Q1247.78 1395.2 1247.78 1392.24 Q1247.78 1388.09 1250.72 1385.68 Q1253.68 1383.28 1258.82 1383.28 Q1263.98 1383.28 1266.92 1385.68 Q1269.86 1388.09 1269.86 1392.24 Q1269.86 1395.2 1268.17 1397.26 Q1266.5 1399.32 1263.52 1400.06 Q1266.9 1400.85 1268.77 1403.14 Q1270.67 1405.43 1270.67 1408.74 Q1270.67 1413.76 1267.59 1416.45 Q1264.53 1419.13 1258.82 1419.13 Q1253.1 1419.13 1250.02 1416.45 Q1246.97 1413.76 1246.97 1408.74 Q1246.97 1405.43 1248.86 1403.14 Q1250.76 1400.85 1254.14 1400.06 M1252.43 1392.68 Q1252.43 1395.36 1254.09 1396.87 Q1255.78 1398.37 1258.82 1398.37 Q1261.83 1398.37 1263.52 1396.87 Q1265.23 1395.36 1265.23 1392.68 Q1265.23 1389.99 1263.52 1388.49 Q1261.83 1386.98 1258.82 1386.98 Q1255.78 1386.98 1254.09 1388.49 Q1252.43 1389.99 1252.43 1392.68 Z" fill="#000000" fill-rule="nonzero" fill-opacity="1" /><path clip-path="url(#clip480)" d="M1369.84 1452.62 L1369.84 1448.36 Q1371.6 1449.19 1373.41 1449.63 Q1375.21 1450.07 1376.95 1450.07 Q1381.58 1450.07 1384.01 1446.97 Q1386.46 1443.84 1386.81 1437.5 Q1385.47 1439.49 1383.41 1440.56 Q1381.35 1441.62 1378.85 1441.62 Q1373.66 1441.62 1370.63 1438.5 Q1367.62 1435.35 1367.62 1429.91 Q1367.62 1424.58 1370.77 1421.37 Q1373.92 1418.15 1379.15 1418.15 Q1385.14 1418.15 1388.29 1422.75 Q1391.46 1427.34 1391.46 1436.09 Q1391.46 1444.26 1387.58 1449.14 Q1383.71 1454 1377.16 1454 Q1375.4 1454 1373.59 1453.66 Q1371.79 1453.31 1369.84 1452.62 M1379.15 1437.96 Q1382.3 1437.96 1384.13 1435.81 Q1385.98 1433.66 1385.98 1429.91 Q1385.98 1426.18 1384.13 1424.03 Q1382.3 1421.85 1379.15 1421.85 Q1376 1421.85 1374.15 1424.03 Q1372.32 1426.18 1372.32 1429.91 Q1372.32 1433.66 1374.15 1435.81 Q1376 1437.96 1379.15 1437.96 Z" fill="#000000" fill-rule="nonzero" fill-opacity="1" /><polyline clip-path="url(#clip480)" style="stroke:#000000; stroke-linecap:round; stroke-linejoin:round; stroke-width:4; stroke-opacity:1; fill:none" points="1406.33,1410.41 1821.79,1050.61 "/>
<polyline clip-path="url(#clip480)" style="stroke:#000000; stroke-linecap:round; stroke-linejoin:round; stroke-width:4; stroke-opacity:1; fill:none" points="1462.31,1361.93 1453.68,1359.44 "/>
<polyline clip-path="url(#clip480)" style="stroke:#000000; stroke-linecap:round; stroke-linejoin:round; stroke-width:4; stroke-opacity:1; fill:none" points="1546.53,1289 1537.89,1286.5 "/>
<polyline clip-path="url(#clip480)" style="stroke:#000000; stroke-linecap:round; stroke-linejoin:round; stroke-width:4; stroke-opacity:1; fill:none" points="1630.75,1216.06 1622.11,1213.57 "/>
<polyline clip-path="url(#clip480)" style="stroke:#000000; stroke-linecap:round; stroke-linejoin:round; stroke-width:4; stroke-opacity:1; fill:none" points="1714.97,1143.12 1706.33,1140.63 "/>
<polyline clip-path="url(#clip480)" style="stroke:#000000; stroke-linecap:round; stroke-linejoin:round; stroke-width:4; stroke-opacity:1; fill:none" points="1799.19,1070.19 1790.55,1067.7 "/>
<path clip-path="url(#clip480)" d="M1498.73 1368.63 L1486.92 1387.08 L1498.73 1387.08 L1498.73 1368.63 M1497.5 1364.56 L1503.38 1364.56 L1503.38 1387.08 L1508.31 1387.08 L1508.31 1390.97 L1503.38 1390.97 L1503.38 1399.12 L1498.73 1399.12 L1498.73 1390.97 L1483.13 1390.97 L1483.13 1386.45 L1497.5 1364.56 Z" fill="#000000" fill-rule="nonzero" fill-opacity="1" /><path clip-path="url(#clip480)" d="M1568.8 1291.62 L1587.16 1291.62 L1587.16 1295.56 L1573.09 1295.56 L1573.09 1304.03 Q1574.1 1303.68 1575.12 1303.52 Q1576.14 1303.33 1577.16 1303.33 Q1582.95 1303.33 1586.33 1306.5 Q1589.71 1309.68 1589.71 1315.09 Q1589.71 1320.67 1586.23 1323.77 Q1582.76 1326.85 1576.44 1326.85 Q1574.27 1326.85 1572 1326.48 Q1569.75 1326.11 1567.35 1325.37 L1567.35 1320.67 Q1569.43 1321.81 1571.65 1322.36 Q1573.87 1322.92 1576.35 1322.92 Q1580.35 1322.92 1582.69 1320.81 Q1585.03 1318.7 1585.03 1315.09 Q1585.03 1311.48 1582.69 1309.37 Q1580.35 1307.27 1576.35 1307.27 Q1574.48 1307.27 1572.6 1307.68 Q1570.75 1308.1 1568.8 1308.98 L1568.8 1291.62 Z" fill="#000000" fill-rule="nonzero" fill-opacity="1" /><path clip-path="url(#clip480)" d="M1663.9 1234.1 Q1660.75 1234.1 1658.9 1236.25 Q1657.07 1238.41 1657.07 1242.16 Q1657.07 1245.88 1658.9 1248.06 Q1660.75 1250.21 1663.9 1250.21 Q1667.05 1250.21 1668.88 1248.06 Q1670.73 1245.88 1670.73 1242.16 Q1670.73 1238.41 1668.88 1236.25 Q1667.05 1234.1 1663.9 1234.1 M1673.18 1219.45 L1673.18 1223.71 Q1671.43 1222.87 1669.62 1222.43 Q1667.84 1221.99 1666.08 1221.99 Q1661.45 1221.99 1658.99 1225.12 Q1656.56 1228.24 1656.22 1234.56 Q1657.58 1232.55 1659.64 1231.49 Q1661.7 1230.4 1664.18 1230.4 Q1669.39 1230.4 1672.4 1233.57 Q1675.43 1236.72 1675.43 1242.16 Q1675.43 1247.48 1672.28 1250.7 Q1669.13 1253.92 1663.9 1253.92 Q1657.91 1253.92 1654.74 1249.33 Q1651.56 1244.73 1651.56 1236 Q1651.56 1227.8 1655.45 1222.94 Q1659.34 1218.06 1665.89 1218.06 Q1667.65 1218.06 1669.43 1218.41 Q1671.24 1218.75 1673.18 1219.45 Z" fill="#000000" fill-rule="nonzero" fill-opacity="1" /><path clip-path="url(#clip480)" d="M1735.78 1145.75 L1758.01 1145.75 L1758.01 1147.74 L1745.46 1180.31 L1740.57 1180.31 L1752.38 1149.68 L1735.78 1149.68 L1735.78 1145.75 Z" fill="#000000" fill-rule="nonzero" fill-opacity="1" /><path clip-path="url(#clip480)" d="M1831.85 1090.96 Q1828.52 1090.96 1826.6 1092.74 Q1824.7 1094.53 1824.7 1097.65 Q1824.7 1100.78 1826.6 1102.56 Q1828.52 1104.34 1831.85 1104.34 Q1835.19 1104.34 1837.11 1102.56 Q1839.03 1100.75 1839.03 1097.65 Q1839.03 1094.53 1837.11 1092.74 Q1835.21 1090.96 1831.85 1090.96 M1827.18 1088.97 Q1824.17 1088.23 1822.48 1086.17 Q1820.81 1084.11 1820.81 1081.15 Q1820.81 1077 1823.75 1074.6 Q1826.72 1072.19 1831.85 1072.19 Q1837.02 1072.19 1839.96 1074.6 Q1842.9 1077 1842.9 1081.15 Q1842.9 1084.11 1841.21 1086.17 Q1839.54 1088.23 1836.55 1088.97 Q1839.93 1089.76 1841.81 1092.05 Q1843.71 1094.34 1843.71 1097.65 Q1843.71 1102.67 1840.63 1105.36 Q1837.57 1108.04 1831.85 1108.04 Q1826.14 1108.04 1823.06 1105.36 Q1820 1102.67 1820 1097.65 Q1820 1094.34 1821.9 1092.05 Q1823.8 1089.76 1827.18 1088.97 M1825.47 1081.59 Q1825.47 1084.27 1827.13 1085.78 Q1828.82 1087.28 1831.85 1087.28 Q1834.86 1087.28 1836.55 1085.78 Q1838.27 1084.27 1838.27 1081.59 Q1838.27 1078.9 1836.55 1077.4 Q1834.86 1075.89 1831.85 1075.89 Q1828.82 1075.89 1827.13 1077.4 Q1825.47 1078.9 1825.47 1081.59 Z" fill="#000000" fill-rule="nonzero" fill-opacity="1" /><polyline clip-path="url(#clip480)" style="stroke:#000000; stroke-linecap:round; stroke-linejoin:round; stroke-width:4; stroke-opacity:1; fill:none" points="686.728,1202.68 686.728,483.08 "/>
<polyline clip-path="url(#clip480)" style="stroke:#000000; stroke-linecap:round; stroke-linejoin:round; stroke-width:4; stroke-opacity:1; fill:none" points="686.728,1167.32 691.714,1163.01 "/>
<polyline clip-path="url(#clip480)" style="stroke:#000000; stroke-linecap:round; stroke-linejoin:round; stroke-width:4; stroke-opacity:1; fill:none" points="686.728,1023.27 691.714,1018.95 "/>
<polyline clip-path="url(#clip480)" style="stroke:#000000; stroke-linecap:round; stroke-linejoin:round; stroke-width:4; stroke-opacity:1; fill:none" points="686.728,879.217 691.714,874.899 "/>
<polyline clip-path="url(#clip480)" style="stroke:#000000; stroke-linecap:round; stroke-linejoin:round; stroke-width:4; stroke-opacity:1; fill:none" points="686.728,735.163 691.714,730.845 "/>
<polyline clip-path="url(#clip480)" style="stroke:#000000; stroke-linecap:round; stroke-linejoin:round; stroke-width:4; stroke-opacity:1; fill:none" points="686.728,591.109 691.714,586.791 "/>
<path clip-path="url(#clip480)" d="M601.748 1153.12 Q598.137 1153.12 596.308 1156.69 Q594.503 1160.23 594.503 1167.36 Q594.503 1174.47 596.308 1178.03 Q598.137 1181.57 601.748 1181.57 Q605.382 1181.57 607.188 1178.03 Q609.017 1174.47 609.017 1167.36 Q609.017 1160.23 607.188 1156.69 Q605.382 1153.12 601.748 1153.12 M601.748 1149.42 Q607.558 1149.42 610.614 1154.03 Q613.692 1158.61 613.692 1167.36 Q613.692 1176.09 610.614 1180.69 Q607.558 1185.28 601.748 1185.28 Q595.938 1185.28 592.859 1180.69 Q589.804 1176.09 589.804 1167.36 Q589.804 1158.61 592.859 1154.03 Q595.938 1149.42 601.748 1149.42 Z" fill="#000000" fill-rule="nonzero" fill-opacity="1" /><path clip-path="url(#clip480)" d="M621.91 1178.73 L626.794 1178.73 L626.794 1184.6 L621.91 1184.6 L621.91 1178.73 Z" fill="#000000" fill-rule="nonzero" fill-opacity="1" /><path clip-path="url(#clip480)" d="M637.026 1150.04 L655.382 1150.04 L655.382 1153.98 L641.308 1153.98 L641.308 1162.45 Q642.327 1162.1 643.345 1161.94 Q644.364 1161.76 645.382 1161.76 Q651.169 1161.76 654.549 1164.93 Q657.928 1168.1 657.928 1173.52 Q657.928 1179.1 654.456 1182.2 Q650.984 1185.28 644.664 1185.28 Q642.489 1185.28 640.22 1184.91 Q637.975 1184.54 635.567 1183.79 L635.567 1179.1 Q637.651 1180.23 639.873 1180.79 Q642.095 1181.34 644.572 1181.34 Q648.576 1181.34 650.914 1179.23 Q653.252 1177.13 653.252 1173.52 Q653.252 1169.91 650.914 1167.8 Q648.576 1165.69 644.572 1165.69 Q642.697 1165.69 640.822 1166.11 Q638.97 1166.53 637.026 1167.41 L637.026 1150.04 Z" fill="#000000" fill-rule="nonzero" fill-opacity="1" /><path clip-path="url(#clip480)" d="M591.563 1036.62 L599.202 1036.62 L599.202 1010.25 L590.892 1011.92 L590.892 1007.66 L599.155 1005.99 L603.831 1005.99 L603.831 1036.62 L611.47 1036.62 L611.47 1040.55 L591.563 1040.55 L591.563 1036.62 Z" fill="#000000" fill-rule="nonzero" fill-opacity="1" /><path clip-path="url(#clip480)" d="M620.915 1034.67 L625.799 1034.67 L625.799 1040.55 L620.915 1040.55 L620.915 1034.67 Z" fill="#000000" fill-rule="nonzero" fill-opacity="1" /><path clip-path="url(#clip480)" d="M645.984 1009.07 Q642.373 1009.07 640.544 1012.63 Q638.739 1016.18 638.739 1023.31 Q638.739 1030.41 640.544 1033.98 Q642.373 1037.52 645.984 1037.52 Q649.618 1037.52 651.424 1033.98 Q653.252 1030.41 653.252 1023.31 Q653.252 1016.18 651.424 1012.63 Q649.618 1009.07 645.984 1009.07 M645.984 1005.37 Q651.794 1005.37 654.85 1009.97 Q657.928 1014.56 657.928 1023.31 Q657.928 1032.03 654.85 1036.64 Q651.794 1041.22 645.984 1041.22 Q640.174 1041.22 637.095 1036.64 Q634.04 1032.03 634.04 1023.31 Q634.04 1014.56 637.095 1009.97 Q640.174 1005.37 645.984 1005.37 Z" fill="#000000" fill-rule="nonzero" fill-opacity="1" /><path clip-path="url(#clip480)" d="M592.558 892.562 L600.197 892.562 L600.197 866.196 L591.887 867.863 L591.887 863.603 L600.151 861.937 L604.827 861.937 L604.827 892.562 L612.466 892.562 L612.466 896.497 L592.558 896.497 L592.558 892.562 Z" fill="#000000" fill-rule="nonzero" fill-opacity="1" /><path clip-path="url(#clip480)" d="M621.91 890.617 L626.794 890.617 L626.794 896.497 L621.91 896.497 L621.91 890.617 Z" fill="#000000" fill-rule="nonzero" fill-opacity="1" /><path clip-path="url(#clip480)" d="M637.026 861.937 L655.382 861.937 L655.382 865.872 L641.308 865.872 L641.308 874.344 Q642.327 873.997 643.345 873.835 Q644.364 873.65 645.382 873.65 Q651.169 873.65 654.549 876.821 Q657.928 879.992 657.928 885.409 Q657.928 890.987 654.456 894.089 Q650.984 897.168 644.664 897.168 Q642.489 897.168 640.22 896.798 Q637.975 896.427 635.567 895.687 L635.567 890.987 Q637.651 892.122 639.873 892.677 Q642.095 893.233 644.572 893.233 Q648.576 893.233 650.914 891.126 Q653.252 889.02 653.252 885.409 Q653.252 881.798 650.914 879.691 Q648.576 877.585 644.572 877.585 Q642.697 877.585 640.822 878.001 Q638.97 878.418 637.026 879.298 L637.026 861.937 Z" fill="#000000" fill-rule="nonzero" fill-opacity="1" /><path clip-path="url(#clip480)" d="M594.78 748.507 L611.1 748.507 L611.1 752.443 L589.156 752.443 L589.156 748.507 Q591.818 745.753 596.401 741.123 Q601.007 736.471 602.188 735.128 Q604.433 732.605 605.313 730.869 Q606.216 729.109 606.216 727.42 Q606.216 724.665 604.271 722.929 Q602.35 721.193 599.248 721.193 Q597.049 721.193 594.595 721.957 Q592.165 722.721 589.387 724.272 L589.387 719.549 Q592.211 718.415 594.665 717.836 Q597.118 717.258 599.155 717.258 Q604.526 717.258 607.72 719.943 Q610.915 722.628 610.915 727.119 Q610.915 729.248 610.104 731.17 Q609.317 733.068 607.211 735.66 Q606.632 736.332 603.53 739.549 Q600.429 742.744 594.78 748.507 Z" fill="#000000" fill-rule="nonzero" fill-opacity="1" /><path clip-path="url(#clip480)" d="M620.915 746.563 L625.799 746.563 L625.799 752.443 L620.915 752.443 L620.915 746.563 Z" fill="#000000" fill-rule="nonzero" fill-opacity="1" /><path clip-path="url(#clip480)" d="M645.984 720.961 Q642.373 720.961 640.544 724.526 Q638.739 728.068 638.739 735.197 Q638.739 742.304 640.544 745.869 Q642.373 749.41 645.984 749.41 Q649.618 749.41 651.424 745.869 Q653.252 742.304 653.252 735.197 Q653.252 728.068 651.424 724.526 Q649.618 720.961 645.984 720.961 M645.984 717.258 Q651.794 717.258 654.85 721.864 Q657.928 726.447 657.928 735.197 Q657.928 743.924 654.85 748.531 Q651.794 753.114 645.984 753.114 Q640.174 753.114 637.095 748.531 Q634.04 743.924 634.04 735.197 Q634.04 726.447 637.095 721.864 Q640.174 717.258 645.984 717.258 Z" fill="#000000" fill-rule="nonzero" fill-opacity="1" /><path clip-path="url(#clip480)" d="M595.776 604.453 L612.095 604.453 L612.095 608.389 L590.151 608.389 L590.151 604.453 Q592.813 601.699 597.396 597.069 Q602.003 592.416 603.183 591.074 Q605.429 588.551 606.308 586.815 Q607.211 585.055 607.211 583.366 Q607.211 580.611 605.267 578.875 Q603.345 577.139 600.243 577.139 Q598.044 577.139 595.591 577.903 Q593.16 578.667 590.382 580.217 L590.382 575.495 Q593.206 574.361 595.66 573.782 Q598.114 573.204 600.151 573.204 Q605.521 573.204 608.716 575.889 Q611.91 578.574 611.91 583.065 Q611.91 585.194 611.1 587.116 Q610.313 589.014 608.206 591.606 Q607.628 592.278 604.526 595.495 Q601.424 598.69 595.776 604.453 Z" fill="#000000" fill-rule="nonzero" fill-opacity="1" /><path clip-path="url(#clip480)" d="M621.91 602.509 L626.794 602.509 L626.794 608.389 L621.91 608.389 L621.91 602.509 Z" fill="#000000" fill-rule="nonzero" fill-opacity="1" /><path clip-path="url(#clip480)" d="M637.026 573.829 L655.382 573.829 L655.382 577.764 L641.308 577.764 L641.308 586.236 Q642.327 585.889 643.345 585.727 Q644.364 585.542 645.382 585.542 Q651.169 585.542 654.549 588.713 Q657.928 591.884 657.928 597.301 Q657.928 602.879 654.456 605.981 Q650.984 609.06 644.664 609.06 Q642.489 609.06 640.22 608.69 Q637.975 608.319 635.567 607.578 L635.567 602.879 Q637.651 604.014 639.873 604.569 Q642.095 605.125 644.572 605.125 Q648.576 605.125 650.914 603.018 Q653.252 600.912 653.252 597.301 Q653.252 593.69 650.914 591.583 Q648.576 589.477 644.572 589.477 Q642.697 589.477 640.822 589.893 Q638.97 590.31 637.026 591.19 L637.026 573.829 Z" fill="#000000" fill-rule="nonzero" fill-opacity="1" /><polyline clip-path="url(#clip482)" style="stroke:#009af9; stroke-linecap:round; stroke-linejoin:round; stroke-width:4; stroke-opacity:1; fill:none" points="1057.96,968.548 1058.79,968.329 1057.34,969.144 1072.04,962.397 1069.76,963.573 1067.44,964.77 1085.05,956.622 1090.01,954.328 1087.48,955.511 1096.17,951.413 1107.33,946.054 1126.02,937.014 1139.19,930.348 1136.82,930.819 1135.48,930.63 1165.16,915.667 1184.29,905.015 1148.84,920.464 1192.13,898.403 1237.02,873.894 1259.47,858.49 1252.29,857.359 1252.57,853.091 1305.62,820.765 1335.31,797.416 1353.9,779.11 1319.08,791.542 1321.07,784.955 1286.96,801.192 1283.43,805.032 1267.78,815.565 1322.27,785.849 1315.82,783.615 1294.02,794.321 1314.62,784.656 1399.42,733.297 1366.25,743.315 1300.51,778.897 1263.37,807.291 1321.78,776.956 1302.49,787.541 1255.28,815.889 1212.06,849.107 1331.94,778.321 1392.89,735.849 1493.86,637.235 1526.49,613.967 1470.43,647.108 1310.57,761.897 1303.96,777.182 1290.54,792.11 1297.28,788.127 1338.14,764.377 1269.45,811.18 1210.92,848.766 1222.86,851.295 1205.27,868.618 1218.72,858.193 1181.42,885.533 1265.02,818.741 1423.79,716.685 1335.49,756.196 1298.29,783.91 1304.72,789.982 1171.82,878.682 1074.69,953.37 1001.13,1004.54 986.058,1014.14 902.36,1070.6 906.561,1071.95 931.229,1057.12 941.026,1054.62 873.261,1089.49 892.206,1080.28 880.514,1082.21 961.376,1043.01 900.763,1073.54 1022.02,1012.61 1071.78,979.066 1063.51,973.976 989.345,1014.76 1042.08,985.966 1068.9,966.423 1097.12,956.439 1070.75,965.992 1118.13,937.86 1093.33,957.42 1184.06,879.127 1232.15,849.35 1236.87,844.158 1320.11,779.569 1362.69,739.048 1441.29,680.273 1283.37,785.731 1269.29,801.567 1186.42,858.635 1182.91,878.396 1150.74,904.947 1065.99,956.976 1103.44,933.346 1231.86,860.618 1198.71,872.865 1094.52,937.884 1143.5,909.057 1131.81,908.362 1134.36,900.325 1122.54,896.908 1177.5,868.47 1207.9,828.525 1170.4,813.622 1139.69,826.053 1167.29,845.264 1177.05,859.412 1183.81,869.471 1213.96,851.206 1126.83,912.225 1147.6,904.023 1123.2,920.979 1162.97,898.145 1233.94,853.36 1189.57,871.111 1188.2,875.929 1152.12,896.435 1203.17,859.219 1195.3,864.338 1198.83,873.917 1276.14,817.674 1231.25,845.297 1301.85,800.305 1305.8,788.841 1191.64,853.604 1182.44,866.145 1091.78,928.165 1101.37,928.481 1120,924.764 1189.99,891.524 1175.7,895.611 1122.08,923.124 1100.7,942.328 1143.45,911.533 1143.04,916.203 1174.63,883.532 1160.46,898.256 1270.13,826.251 1362.37,760.381 1296.97,795.429 1337.23,772.397 1303.55,794.757 1316.7,772.504 1354,746.899 1436.94,682.191 1366.17,733.828 1330.18,758.136 1239.39,821.399 1314.89,788.29 1169.01,883.292 1128.24,904.994 1119.04,926.371 1064.3,959.869 1019.72,989.489 1021.71,992.706 972.635,1024.17 974.684,1026.89 940.32,1050.09 935.476,1053.37 1014.69,1011.26 1004.94,1006.17 963.359,1035.63 968.743,1029.35 920.81,1065.7 911.915,1071.26 897.653,1073.8 911.033,1067.71 863.031,1089.39 843.805,1103.95 931.032,1065.4 912.554,1072.98 853.183,1108.09 752.535,1163.49 782.043,1154.81 805.088,1139.34 766.555,1151.22 870.569,1107.23 862.085,1104.09 904.958,1080.28 846.385,1106.78 819.211,1121.93 837.483,1115.24 843.579,1114.21 869.932,1101.07 836.564,1115.8 856.788,1101.75 835.806,1112.49 876.962,1091.48 935.133,1057.12 933.269,1054.15 1049.78,992.067 989.213,1018.91 1008.49,1007.3 1075.12,965.924 1168,905.784 1201.2,879.296 1129.79,921.399 1063.59,959.511 1098.29,946.314 1098.36,938.36 1190.45,887.9 1181.71,897.831 1116.02,958.72 1123.7,954.37 1103.73,958.344 1135.33,934.145 1200.89,881.938 1149.54,913.698 1048.76,986.191 1140.33,919.833 1126.93,924.567 1221.1,861.987 1083.95,948.7 1267.54,847.144 1239.68,860.133 1223.45,859.785 1329.9,783.927 1342.83,761.893 1297.35,782.068 1159.78,887.251 1114.27,921.628 1134.54,911.35 1120.44,917.828 1231.69,864.146 1326.03,789.359 1326.7,778.092 1349.28,756.595 1429.28,698.99 1395.24,714.729 1357.91,735.546 1442.62,685.162 1283.03,808.767 1308.6,795.843 1313.49,786.914 1276.18,808.119 1157.06,889.914 1045.56,964.472 992.948,1008.4 1010.55,1006.97 1003.82,1012.41 1060.48,977.766 1108.6,937.615 1012.68,993.886 940.775,1040.83 977.839,1023.44 1053.51,980.473 1026.7,993.42 983.532,1020.14 1081.22,953.927 1049.17,974.465 1125.08,931.96 1153.88,908.193 1137.5,919.219 1145.11,914.47 1078.78,951.092 1149.33,915.081 1323.22,791.288 1392.48,732.768 1372.97,737.791 1328.58,766.019 1225.19,829.129 1269.91,801.845 1347.35,757.114 1426.65,709.855 1418.17,724.376 1406.79,738.288 1442.19,697.816 1448.12,686.562 1576.94,557.209 1457.1,627.567 1396.41,693.165 1380.58,715.097 1355.38,737.255 1291.8,780.523 1268.09,801.241 1241.35,825.766 1276.73,811.283 1271.64,817.385 1255.04,835.934 1284.52,808.148 1376.74,749.131 1414.05,712.368 1415.56,700.335 1540.35,599.305 1477.68,634.712 1580.4,567.232 1513.62,620.959 1421.54,688.885 1409.34,690.038 1488.67,649.532 1383.51,721.282 1444.79,674.168 1589.57,569.688 1608.91,550.296 1572.49,559.578 1667.75,493.648 1563.77,570.479 1496.77,604.839 1450.88,638.1 1460.26,643.21 1364.65,716.232 1392.31,717.307 1407.33,715.406 1315.92,781.405 1390.32,735.234 1312.6,790.476 1401.5,732.94 1416.58,706.22 1362.14,739.861 1347.71,748.601 1358.73,745.793 1170.7,874.142 1243.43,840.984 1238.57,841.043 1297.37,807.779 1391.2,729.721 1395.62,722.198 1335.92,751.332 1420.46,703.053 1489.47,663.724 1351.25,745.484 1320.16,775.623 1332.15,768.305 1473.23,677.447 1534.6,614.821 1628.76,528.671 1561.88,567.699 1516.43,599.254 1484.97,631.6 1378.32,708.49 1437.36,674.708 1406.25,693.883 1314.63,765.581 1314.56,772.753 1320.73,780.599 1312.27,785.233 1319.6,778.892 1384.22,742.404 1428.2,699.815 1278.16,788.642 1300.89,777.142 1298.85,790.096 1280.7,807.148 1260.45,810.719 1292.11,797.049 1341.35,772.85 1286.23,794.885 1369.72,742.901 1337.55,736.336 1376.21,721.341 1256.59,806.992 1250.23,820.079 1266.97,824.487 1274.23,826.269 1309.52,787.996 1361.52,753.584 1312.12,785.155 1368.19,746.359 1334.91,786.216 1339.77,765.541 1427.27,711.257 1479.4,662.23 1410.06,696.77 1389.5,714.925 1604.57,567.039 1765.24,429.793 1768.71,380.523 1714.11,426.691 1773.36,377.897 1646.09,468.912 1598.07,512.882 1483.88,604.536 1499.47,611.66 1465.31,646.391 1429.02,672.414 1406.41,691.882 1406.06,698.879 1327.06,760.789 1430.64,707.046 1380.47,732.528 1376.52,731.035 1404.19,716.392 1386.56,725.478 1416.53,710.1 1448.48,678.799 1221,836.507 1179.46,870.326 1163.34,895.5 1296.25,822.684 1199.44,875.54 1205.59,862.196 1239.49,841.087 1338.9,772.696 1444.19,706.461 1490.13,654.845 1528.21,615.608 1475.91,630.551 1460.57,642.469 1370.08,712.002 1249.65,803.904 1235.28,819.337 1230.47,835.216 1219.27,849.053 1310.52,798.213 1361.89,764.695 1328.35,761.109 1308.5,776.246 1339.56,769.343 1362.62,753.285 1297.36,779.967 1242.92,822.739 1299.18,807.141 1220.63,856.951 1179.12,876.954 1063.75,952.396 1065.99,958.753 1127.78,930.787 1076.19,955.012 1084.09,953.981 1043.92,974.574 1050.94,980.339 1022.02,997.526 1052.58,974.427 1065.27,971.172 1097.92,949.057 1129.29,922.946 1176.49,893.307 1167.08,903.317 1178,887.346 1135.05,908.066 1110.43,932.975 1105.82,942.153 1197.23,875.86 1209.07,869.162 1247.88,838.061 1288.8,817.936 1404.31,727.046 1510.17,652.938 1480.48,654.852 1481.01,648.058 1525.93,612.192 1470.97,644.581 1635.74,526.825 1490.65,622.695 1474.86,647.546 1447.34,663.373 1418.95,690.55 1351.18,736.571 1409.27,710.67 1365.16,735.283 1413.9,712.01 1457.24,667.284 1494.54,626.972 1440.92,676.098 1447.51,671.703 1553.64,586.117 1367.6,715.549 1386.57,711.726 1281.07,787.261 1174.91,868.432 1136.18,907.793 1196.45,878.624 1210.93,873.847 1214.16,872.248 1358.47,772.275 1305.38,794.425 1371.03,746.948 1424.14,707.44 1446.41,679.295 1454.99,669.686 1389.98,706.479 1456.73,654.986 1436.19,676.376 1549.23,600.435 1466.53,648.626 1564.25,604.432 1468.8,653.211 1409.15,708.982 1284.45,792.975 1303.54,786.768 1394.84,723.774 1296.54,788.354 1221.95,838.623 1316.32,792.659 1232.5,841.197 1207.43,854.564 1128.69,913.286 1128.81,910.738 1099.06,938.436 1149.89,914.322 1092.92,941.526 982.351,1011.53 1014.47,1001.32 933.685,1050.45 983.705,1028.71 1014.02,1005.68 1098.17,964.06 1143.06,922.099 1183.91,896.168 1234.34,862.414 1388.69,756.963 1356.77,759.428 1422.19,705.9 1294.98,776.857 1248.76,818.808 1330.69,777.638 1302.23,784.234 1309.32,776.576 1382.94,733.863 1460.84,672.951 1581.24,582.18 1599.18,548.49 1553.5,571.676 1631.65,517.786 1594.06,539.329 1550.46,572.129 1534.02,579.85 1449.41,642.837 1438.57,665.715 1424.29,681.888 1351.99,735.124 1268.04,795.739 1326.28,776.897 1441.08,702.912 1502.47,656.04 1561.7,600.26 1452.89,661.574 1448.69,664.683 1505.69,627.797 1513.99,592.616 1544.56,562.963 1440.3,651.058 1386.04,699.694 1321.99,752.908 1327.58,758.78 1267.48,802.583 1363.07,756.278 1321.68,774.263 1402.97,722.091 1292.08,800.116 1259.06,818.794 1203.76,853.733 1182.27,876.121 1168.71,888.19 1214.19,859.324 1388.9,740.749 1509.2,654.963 1389.97,720.87 1360.91,733.737 1312.51,772.522 1236.78,825.597 1282.9,810.552 1199.73,861.622 1208.59,849.22 1080.13,944.353 1068.6,955.984 1120.85,934.222 1150.32,920.529 1185.15,891.728 1173.93,892.871 1108.66,928.047 1117.07,927.384 1198.83,882.941 1159.81,899.42 1163.92,894.695 1259.6,847.147 1269.22,825.443 1313.72,791.164 1253.75,820.879 1294.16,799.569 1339.81,759.725 1334.93,765.454 1165.5,874.321 1250.03,834.627 1254.24,832.39 1220.54,853.607 1213.15,858.752 1200.61,864.376 1147.77,908.759 1158.17,905.239 1156.18,907.259 1109.59,932.382 1144.36,912.905 1091.87,938.458 1169.38,894.434 1156.78,901.602 1077.99,948.559 1090.76,947.833 1103.71,944.543 1043.69,974.629 1173.44,897.576 1229.87,849.584 1280.99,817.297 1266.5,819.786 1239.33,850.123 1268.32,841.957 1266.99,849.793 1228.29,856.577 1106.47,930.396 1191.17,887.223 1202.79,874.121 1167.81,901.052 1078.84,954.066 1059.17,964.178 1050.52,976.366 993.054,1011.12 1016.64,990.49 950.446,1029.43 1097.87,954.149 1116.04,928.692 1144.48,909.089 1119.14,922.676 1099.36,939.092 1123,901.133 1165.23,885.5 1152.32,901.463 1180.84,889.725 996.024,1022.98 1020.88,994.795 1078.24,957.073 1132.03,918.785 1080.76,941.11 1143.65,910.264 1235.93,836.13 1301.1,773.562 1235.61,834.074 1052.97,963.772 1069.23,967.907 1093.59,947.638 1056.73,969.54 1058.88,968.033 1118.11,914.702 1095.37,935.646 1113.7,918.911 1108.58,922.572 1218.08,837.467 1400.22,717.936 1459.5,656.73 1370.28,735.136 1402.48,730.539 1447.72,687.722 1526.17,587.417 1427.41,669.195 1344.14,737.422 1315.2,757.822 1239.5,823.796 1174.99,874.451 1168.72,885.356 1099.82,927.322 1041.91,973.154 1029.17,988.877 1034.74,988.871 1047.26,984.219 1020.57,1003.4 972.464,1032.39 1016.25,1005.66 1058.03,979.81 959.3,1041.39 943.131,1045.92 919.19,1059.18 967.167,1038.97 952.816,1053.73 991.619,1029.52 921.833,1060.53 920.931,1055.71 1006.26,1006.86 1028.46,992.635 1130.58,941.097 1064.16,970.868 966.663,1035.73 940.43,1047.76 923.691,1054.82 923.53,1063.73 995.903,1017.97 1070.08,987.168 1174.58,913.932 1144.51,915.522 1052.77,965.065 1106.73,937.285 1016.14,991.197 1053.38,968.97 1053.49,977.737 1103.64,942.886 1065.19,963.93 1179.69,884.674 1118.61,921.425 1092.74,937.257 1117,917.482 1209.87,844.462 1175.51,883.331 1068.11,955.44 1018.34,989.042 1034.73,988.338 975.067,1024.47 1076.49,965.648 1068.81,973.292 930.491,1055.36 949.605,1036.41 1033.96,994.409 1044.14,985.222 1045.67,987.109 1111.69,942.121 1087.76,949.945 1136.7,903.174 1167,901.295 1238.65,839.339 1277.66,801.769 1350.81,735.354 1352.14,744.525 1303.24,784.369 1292.29,808.749 1221.79,849.743 1358.43,739.349 1423.76,693.978 1457.42,662.408 1328.33,755.309 1357.57,747.758 1337.33,755.756 1364.11,745.504 1394.44,713.716 1326.04,771.413 1319.93,773.851 1367.09,741.707 1340.78,745.407 1363.23,733.765 1404.8,680.823 1344.5,733.15 1227.59,825.265 1238.97,829.406 1273,818.095 1181.17,882.155 1156.1,895.204 1171.13,896.743 1131.76,919.314 1147.33,906.988 1179.39,882.458 1299.91,815.338 1366.99,752.219 1429.03,708.183 1402.3,719.525 1326.47,756.811 1297.83,761.78 1224.9,812.477 1147.69,880.227 1215.43,854.585 1232.87,837.931 1265.23,815.279 1285.88,804.627 1206.2,861.294 1153.56,895.099 1157.5,895.407 1191.77,880.964 1235.58,844.879 1346.43,770.618 1408.49,730.39 1431.22,697.048 1433.21,670.282 1499.27,623.217 1536.97,577.609 1574.42,555.106 1660.9,504.777 1641.02,507.49 1657.15,491.952 1575.05,557.832 1606.34,537.057 1598.91,536.705 1613.88,524.381 1679.28,480.662 1528.63,570.551 1529.27,580.958 1556.93,568.92 1451.83,646.996 1534.66,604.563 1409.68,679.208 1387.42,705.745 1266.66,789.915 1343.28,759.62 1383.24,739.897 1373.27,741.909 1341.84,747.302 1370.23,738.603 1327.73,765.87 1184.33,858.509 1189.6,867.93 1208.58,864.368 1173.54,882.159 1137.6,894 1126.22,916.013 1147.46,908.705 1138.69,912.39 1106.24,932.561 1113.4,933.7 1106.26,939.187 1065.62,968.55 1157.28,918.138 1107.13,939.13 1115.62,940.561 1158.97,906.448 1141.12,920.08 1283.82,827.271 1217.9,853.106 1154.05,893.541 1163.49,893.683 1253.48,837.023 1207.69,868.387 1286.18,796.471 1232.46,831.275 1221.3,842.181 1208.98,857.458 1293.97,805.372 1311.34,781.383 1214.41,840.408 1128.87,900.328 1106.81,925.868 1106.94,931.475 1112.39,941.024 1096.22,949.762 1110.09,937.974 1155.9,902.887 1141.99,912.4 1058.9,962.25 1034.94,984.96 1052.69,978.446 1053.25,974.2 1102.24,930.692 1104.68,928.62 1063.42,956.409 1084.34,951.874 1025.05,989.517 1073.74,960.034 1061.12,967.864 1194.34,874.786 1223.26,842.015 1290.82,803.489 1332.22,777.281 1247.25,847.768 1162.66,914.907 1297.01,820.2 1406.47,731.532 1325.51,767.325 1452.53,684.206 1545.26,595.091 1561.5,574.558 1531.01,595.436 1484.13,642.851 1476.46,638.452 1355.91,723.984 1351.43,744.376 1260.35,806.605 1272.87,810.222 1210.36,851.063 1183.34,880.225 1121.27,922.608 1061.7,961.646 1103.82,943.094 1038.35,987.263 965.606,1033.15 1042.42,995.183 1079.67,971.12 1128.63,934.775 1009.38,1008.61 1021.32,1004.11 1042.91,986.856 1025.42,994.306 990.147,1021.1 1106.25,952.04 1010.64,1011.92 1031.36,995.413 1104.08,958.198 1120.99,943.674 1202.22,885.683 1135.33,920.001 1030.34,982.179 1141.8,923.31 1095.71,954.951 1022.71,991.242 997.482,1013.01 970.221,1025.72 952.476,1042.78 980.441,1030.62 926.77,1067.52 980.531,1027.62 952.498,1050.02 1050.98,994.694 1054.32,976.436 1133.37,926.836 1138.04,920.637 1273.79,834.241 1397.55,740.731 1416.54,712.265 1498.09,651.513 1558.62,590.569 1520.65,615.96 1496.51,624.242 1390.45,697.236 1335.47,755.092 1340.98,762.288 1433.48,709.898 1416.57,714.418 1331.42,774.133 1337.7,775.782 1336.41,767.03 1207.42,861.481 1230.28,847.841 1279.81,813.802 1185.95,875.397 1215.29,855.559 1220.99,853.934 1291.25,817.822 1377.68,753.29 1443.11,704.045 1546.44,622.52 1369.23,721.785 1393.51,709.179 1455.39,668.949 1484.79,641.719 1502.86,618.403 1459.13,648.472 1422.35,691.136 1417.29,702.755 1326.79,760.953 1332.85,759.631 1207.91,853.434 1271.6,816.481 1284.52,802.923 1389.72,731.956 1407.8,707.841 1320.71,766.555 1406.39,729.631 1369.47,745.324 1406.94,701.92 1367.94,731.171 1274.42,812.701 1317.34,796.464 1238.73,835.557 1234.9,838.378 1360.77,748.501 1441.32,692.68 1308.9,786.686 1300.93,787.52 1130.74,912.41 1100.29,935.578 1054.69,964.66 1003.43,1000.56 1032.04,994.031 1030.99,991.798 1071.34,977.306 1102.89,950.072 1087.72,955.475 1153.42,913.653 1123.27,930.75 1274.18,828.773 1258.49,826.954 1314.77,788.779 1436.51,695.012 1405.49,707.066 1623.27,555.304 1657.58,498.881 1562.63,558.453 1553.91,567.044 1479.67,623.51 1425.39,672.514 1431.62,678.835 1321.59,754.759 1200.42,842.303 1205.82,853.739 1165.96,888.302 1135.05,915.074 1174.05,894.539 1156.14,907.644 1121.45,927.118 1065.68,962.16 1087.77,950.019 1104.27,943.454 1030.28,982.276 901.509,1066.99 922.717,1060.52 932.106,1054.28 878.046,1083.81 819.263,1117.04 819.871,1121.21 829.616,1118.17 851.616,1106.58 895.822,1077.06 941.867,1051.95 909.852,1068.6 1072.23,988.394 1118.21,942.974 1098.19,950.593 1027.64,986.515 1048.87,985.381 1082.09,961.663 1050.55,979.059 992.331,1003.45 1014.24,1007.65 1165.91,918.592 1256.9,842.966 1221.35,857.089 1174.16,880.461 1154.94,893.327 1187.17,880.119 1154.07,902.076 1195.76,868.719 1221.3,844.598 1325.19,771.594 1375.63,734.725 1269.33,801.265 1160.4,869.843 1200.56,865.015 1175.5,882.385 1203.96,873.429 1227.22,838.656 1254.27,829.421 1332.72,764.964 1459.66,676.864 1363.75,724.624 1350.47,725.949 1497.91,625.898 1567.23,553.881 1566.35,573.414 1445.46,662.586 1352.39,736.616 1325.95,763.359 1201.54,856.63 1275.95,819.441 1228.23,854.491 1162.26,898.024 1180,894.907 1228.72,858.417 1153.95,892.111 1152.75,899.574 1127.16,916.93 1167.61,889.61 1111.02,947.848 1119.39,935.524 1128.93,925.682 1079.69,958.006 1085.81,956.693 1196.81,879.582 1140.85,906.998 1199.94,874.803 1141.73,902.761 1150.48,899.019 1056.91,977.211 1047.5,984.342 893.289,1078.91 873.357,1096.34 949.294,1055.93 1094.38,962.54 940.715,1040.25 944.131,1039.81 904.063,1071.47 897.682,1076.08 909.057,1070.72 906.905,1070.55 945.89,1051.66 947.152,1047.1 866.759,1092.58 889.021,1083.37 906.386,1077.12 876.544,1091.08 943.074,1051.57 959.665,1048.11 917.533,1064.29 868.968,1088.08 900.753,1072.61 992.793,1028.56 1043.4,1005.52 1118.71,946.208 1089,957.276 1095.07,948.729 1097.63,951.395 1094.72,952.17 1035.68,984.708 987.783,1014.54 919.344,1058.64 988.364,1027.47 1026.35,998.746 1039.14,986.395 1039.01,984.983 1191.6,893.424 1171.07,890.807 1268.02,830.857 1219.59,847.196 1175.37,886.157 1123.63,936.654 1156.11,911.491 1099.52,941.738 1042.48,979.86 1090.02,955.472 1053.71,989.403 1111.24,953.909 1153.26,918.994 1153.17,905.232 1154.94,909.185 1205.94,870.681 1260.09,833.823 1261.87,838.042 1306.17,794.528 1241.78,840.351 1379.22,738.782 1452.44,683.847 1280.77,797.817 1431.96,693.351 1405.93,694.609 1359.41,731.61 1404.33,716.433 1366.54,734.219 1357.87,729.458 1305.81,782.078 1253.36,826.527 1333.21,770.909 1183.92,875.897 1217.96,860.04 1132.54,914.485 1100.02,935.75 1057.81,966.434 1074.62,955.539 1147.22,911.337 1092.09,948.45 1221.75,867.3 1287.5,807.038 1277.24,815.008 1211.27,855.387 1199.06,867.59 1207.44,872.2 1239.59,846.895 1231.63,847.559 1139.51,911.05 1183.42,870.804 1258.64,827.123 1341.22,750.571 1391.66,717.173 1430.79,692.517 1290.76,777.615 1313.05,762.366 1374.95,728.915 1404.51,718.835 1418.04,688.247 1446.19,680.775 1418.6,698.243 1416.98,719.282 1428.13,703.793 1458.83,677.414 1268.57,804.973 1210.27,844.619 1296.23,810.376 1234.55,839.217 1201.56,872.67 1290.32,806.35 1258.82,826.577 1187.55,869.027 1128.45,912.766 1166.86,886.161 1183.36,882.58 1212.41,863.562 1204.48,872.509 1233.13,851.851 1112.32,921.68 1070.74,953.159 1083.65,951.972 1158.15,907.628 1172.53,897.104 1163.65,894.952 1209.4,878.624 1160.47,913.905 1076.97,985.48 1060.31,986.68 946.775,1051.01 1100.47,954.849 1077.65,963.561 1002.16,1007.92 992.938,1023.58 1128.12,940.702 1147,908.484 1045.51,972.17 930.125,1044.39 906.265,1063.27 846.747,1099.8 848.3,1106.68 855.343,1103.8 774.328,1146.18 774.344,1147.32 821.96,1124.88 846.198,1111.25 892.868,1088.84 878.63,1097.2 815.37,1123.96 774.672,1146.97 718.853,1178.01 764.191,1158.49 805.289,1133.41 898.64,1083.49 996.725,1024.62 978.021,1021.54 993.748,1013.25 1032.93,989.44 1027.26,993.572 1101.57,948.147 1097.02,943.173 1180.47,895.044 1170.9,899.25 1074.34,956.421 1079.19,955.684 1202.12,889.668 1115.24,936.865 1127.83,925.245 1193.05,888.082 1166.03,912.429 1063.81,977.956 1064.21,959.061 1054.18,966.867 1083.79,960.077 1034.62,1007.1 1184.78,909.197 1269.96,842.396 1207.27,864.665 1237.58,850.974 1235.46,849.368 1152.94,886.792 1071.3,943.779 1016.25,988.223 1059.98,971.449 1201.46,891.018 1263.94,843.651 1218.44,864.758 1312.03,800.669 1286.03,803.136 1398.18,725.483 1452.5,676.451 1377.69,719.663 1371.36,729.366 1531.05,617.988 1417.94,692.869 1520.41,621.345 1508.13,611.876 1659.69,509.765 1458.66,660.409 1520.06,624.603 1544.96,587.734 1556.71,577.906 1431.78,671.822 1389.81,718.829 1369.2,735.821 1336.58,752.497 1342.26,751.2 1266.04,806.686 1302.05,786.23 1288.79,786.464 1256.03,813.272 1283.39,796.284 1286.6,800.16 1216.89,846.973 1108.51,923.982 1077.71,951.649 982.207,1013.77 987.692,1020.11 912.307,1061.93 1034.68,998.237 974.653,1028.8 1078.97,966.69 1147.23,927.288 1109.14,939.817 1157.64,913.478 1191.77,887.807 1209.56,868.154 1321.74,791.274 1494.97,659.726 1446.26,673.629 1576.89,571.448 1574.23,567.59 1517.95,585.402 1451.55,640.044 1530.78,600.398 1479.24,647.279 1401.85,695.026 1418.82,695.498 1278.26,791.172 1262.94,809.918 1259.09,816.395 1295.05,792.44 1193.74,859.657 1192.41,873.016 1192.19,877.804 1179.34,894.063 1162.06,899.526 1143.17,905.958 1144.17,905.944 1209.88,868.184 1236.85,815.257 1254.09,812.52 1280.04,797.993 1441.56,693.84 1507.68,637.583 1549.52,595.178 1612.21,538.892 1693.92,465.814 1535.4,572.874 1538.84,577.763 1478.64,624.856 1518.97,600.624 1469.58,632.943 1329.52,743.202 1327.42,754.423 1388.02,726.682 1427.2,701.494 1323.99,762.157 1305,781.728 1252.84,816.216 1258.59,819.074 1306.63,794.863 1192.83,860.704 1164.82,895.232 1185.83,883.674 1214.53,867.688 1160.42,896.148 1146.98,905.537 1056.5,960.653 1105.91,938.725 1022.21,990.166 1034.44,987.776 1069.74,963.625 1117.58,927.818 1102.07,933.359 1119.87,925.405 1113.87,941.049 1167.19,908.241 1133.8,909.744 1059,958.649 984.73,1020.67 1027.23,1000.71 987.965,1019.06 1090.99,956.851 1197.98,897.666 1189.89,887.168 1196.3,879.886 1228.53,855.983 1301.41,806.447 1324.75,783.529 1285.28,809.039 1285.42,797.921 1354.73,770.036 1416.58,708.707 1410.99,701.939 1369.91,728.132 1386.14,731.725 1363.18,749.82 1497.72,628.862 1354.23,724.104 1350.25,737.425 1347.82,750.691 1335.89,761.492 1383.9,713.726 1264.99,802.358 1261.4,817.533 1281.42,805.241 1401.56,723.269 1358.65,756.305 1328.45,772.73 1342.44,758.44 1279.81,800.892 1303.24,796.689 1370.94,744.685 1431.77,725.791 1444.39,685.437 1447.67,676.252 1423.48,707.588 1365.82,748.876 1333.85,774.004 1362.72,730.442 1272.77,790.864 1394.92,715.172 1444.04,660.412 1474.55,640.271 1315.53,759.056 1315.31,775.643 1355.15,746.466 1252.25,819.201 1223.6,843.01 1179.17,872.125 1171.56,890.336 1067.18,952.825 1092.18,944.077 1069.69,955.541 1084.6,950.17 1085.65,952.837 1052.28,976.325 1081.33,950.761 1152.49,909.202 1167.72,900.563 1130.82,917.63 1047.57,988.693 951.22,1039.91 944.63,1043.79 941.358,1044.78 1048.82,985.694 1003.92,999.26 1020.27,991.052 1038.45,972.623 1023.45,988.641 1063.35,968.562 1094.62,954.807 1145.31,914.628 1202.69,864.896 1211.03,871.103 1193.69,878.726 1160.4,901.993 1104.21,934.91 1130.92,922.826 1085.29,952.874 1027.29,994.419 1080.92,959.713 1205.82,879.585 1177.89,892.808 1033.01,983.968 952.097,1026.13 1115.07,943.067 1079.94,961.476 1189.72,884.584 1151.95,897.703 1387.46,746.915 1303.27,794.278 1388.51,743.182 1225.42,865.362 1254.12,831.82 1193.8,886.548 1119.63,951.071 1104.98,943.021 1197.76,884.607 1182.84,873.8 1126.56,928.683 973.07,1022.43 1003.97,999.887 1058.09,978.801 974.408,1031.27 953.81,1040.58 1125.07,940.838 1120.05,927.512 1219.76,860.655 1227.44,830.129 1247.18,821.913 1428.85,713.787 1436.87,685.55 1479.02,652.05 1590.64,556.412 1601.76,541.19 1618.82,518.465 1638.55,487.391 1757.64,401.368 1774.31,362.547 1664.18,452.836 1673.54,456.324 1555.4,544.612 1714.16,457.117 1699.02,457.371 1612.57,510.286 1603.03,523.867 1532.71,578.695 1560,571.617 1461.81,638.971 1442.54,667.363 1433,677.641 1372.33,717.087 1360.38,737.441 1281.47,791.815 1248.13,818.942 1273.16,811.095 1186.9,868.249 1222.48,853.45 1132.68,906.047 1114.83,923.87 1167.59,899.731 1217.47,868.266 1136.87,913.426 1174.72,892.653 1199.23,882.625 1129.46,927.095 1194.17,887.785 1131.07,915.749 1069.94,958.479 1083.31,953.676 1176.46,893.5 1098.1,939.028 1199.89,877.091 1226.02,854.53 1079.79,955.879 1146.3,906.537 1309.37,796.158 1246.23,823.707 1524.65,639.119 1477,630.439 1547.62,579.812 1548.11,578.952 1579.44,556.216 1578.19,553.325 1602.4,523.056 1416.45,661.141 1413.84,682.887 1341.96,737.703 1304.14,771.085 1253.42,812.732 1318.52,786.893 1351.34,766.385 1368.72,747.193 1326.3,767.927 1250.86,819.423 1257.71,822.912 1302.92,801.002 1238.09,847.474 1297.24,805.222 1300.89,765.382 1351.84,747.604 1336.83,763.61 1272.47,801.471 1343.53,758.303 1444.59,697.964 1292.39,810.366 1230.65,840.957 1206.22,852.091 1234.16,844.215 1185.85,870.686 1122.88,911.551 1038.91,966.693 1092.36,944.852 1138.24,908.933 1060.56,954.348 994.126,1006.74 958.591,1028.88 1030.29,999.738 1125.14,936.069 1060.75,969.342 1075.9,958.67 1074.79,951.35 1135.72,905.515 1188.34,879.26 1229.3,856.611 1114.06,923.652 995.79,998.743 1116.73,935.786 1095.09,942 1142.8,917.343 1180.21,906.47 1188.29,889.3 1165.81,884.105 1258.53,834.791 1238.15,844.168 1384.71,743.918 1335.54,764.789 1484.91,661.447 1448.2,685.829 1459.54,649.623 1456.7,651.894 1376.99,703.522 1555.81,591.639 1423.33,689.358 1378.01,712.178 1378.08,721.114 1434.81,665.659 1619.06,541.964 1603.34,542.559 1541.78,584.213 1437.61,651.692 1322.77,743.396 1279.48,782.677 1244.5,818.993 1202.64,853.048 1149.43,893.568 1097.69,931.381 1100.59,938.404 1037.38,973.072 1074.8,960.765 1050.48,982.435 1098.98,956.897 1094.76,953.508 995.519,1013.86 1064.89,981.816 1067.8,972.266 1080.71,958.66 1136.77,917.791 1169.69,897.236 1174.14,901.277 1117.6,930.797 1066.28,964.975 1117.33,926.37 1041.11,970.906 1013.82,997.558 1045.63,981.374 862.87,1096.43 814.523,1128.97 841.186,1114.55 872.111,1100.71 859.813,1106.11 920.919,1071.62 953.055,1048.53 1001.02,1020.43 1012.23,1010.91 971.207,1029.09 1012.12,1010.54 884.13,1078.52 1009.6,1017.74 1000.32,1024.04 1058.88,984.91 993.972,1005.33 968.701,1020.76 969.144,1028.4 1009.09,1009.58 982.062,1022.4 1167.02,916.634 1204.53,873.095 1172.01,886.578 1200.67,868.142 1268.92,822.795 1235.01,835.075 1197.66,867.031 1292.36,799.349 1166.73,876.752 1210.23,858.495 1161.56,877.985 1360.24,742.684 1471.35,653.702 1325.42,749.137 1305.19,784.582 1402.28,723.271 1434.84,692.605 1334.92,762.95 1286.04,801.958 1218.29,869.673 1168.15,898.798 1112.94,920.991 1178.69,884.804 1252.73,833.123 1152,900.936 1016.72,987.945 1023.84,987.937 980.313,1020.34 943.419,1044.64 1025.37,995.911 1013.46,999.576 1110.84,943.311 1117.42,936.093 1106.72,937.626 1156.93,908.102 1191.5,891.939 1224.85,864.008 1173.17,894.848 1058.67,976.903 1089.37,962.31 1145.22,932.511 1168.2,902.158 1157.56,902.999 1199.63,875.82 1098.83,937.145 1175.84,889.769 1222.95,859.125 1284.43,811.698 1227.7,825.922 1160.26,883.992 1110.34,924.806 1059.08,950.349 1128.62,912.844 1147.83,912.019 1066.7,957.784 1126.45,927.758 990.285,1023.62 1006.85,1017.15 1040.16,984.079 933.71,1049.17 872.246,1086.37 904.572,1068.61 944.641,1056.84 950.76,1044.86 979.671,1029.35 1023.37,996.183 938.483,1043.45 912.01,1066.95 854.644,1100.69 920.969,1068.39 1013.47,1005.54 1119.65,945.05 1136.09,924.218 1221.32,876.447 1113.34,929.685 1139.65,918.233 1213.79,861.523 1131.65,907.675 1049.77,958.097 1026.25,982.569 1009.83,997.421 1021.75,995.432 1000.47,1016.38 982.741,1027.96 936.306,1050.54 907.369,1063.24 1084.15,968.891 1037.01,985.235 1044.9,977.813 1105.87,945.884 1056.22,962.156 1103.02,942.021 1141.01,906.463 1183.44,875.418 1166.66,877.861 1067.83,948.09 1010.83,997.833 1017.96,1002.29 973.202,1029.9 1079.36,973.987 1002.65,1005.79 1127.83,935.071 1120.57,933.669 1124.13,924.013 1104.1,941.155 997.331,1010.99 868.487,1085.76 839.115,1111.33 875.308,1091.66 867.067,1100.66 860.871,1105.37 873.968,1101.38 904.699,1074.31 847.644,1108.64 847.735,1102.45 781.396,1136.57 818.046,1125.78 861.281,1099.47 803.65,1130.83 959.118,1054.01 901.012,1078 895.558,1083.95 926.622,1065.87 864.846,1099.41 846.861,1103.81 891.08,1084.07 887.435,1088.32 909.797,1074.72 979.582,1033.41 1000.46,1011.16 1035.54,997.679 969.719,1032.15 1056.9,980.716 1101.47,948.132 1148.47,914.744 1144.66,918.704 1152.01,895.324 1183.76,882.049 1164.71,891.888 1194.15,875.374 1196.43,870.641 1183.21,873.555 1215.6,842.677 1176.26,877.272 1261.02,845.428 1223.99,853.079 1232.68,864.372 1153.53,911.728 1157.17,913.47 1236.25,845.607 1421.81,717.189 1431.71,699.588 1415.24,715.624 1448.22,672.665 1471.69,649.993 1432.39,685.228 1425.22,683.018 1432.24,668.941 1443.48,647.18 1517.32,629.979 1531.76,598.274 1494.05,615.176 1464.37,645.678 1416.43,675.634 1431.43,661.955 1374.28,704.773 1386.79,715.008 1310.42,769.503 1421.29,697.53 1480.59,671.155 1466.33,666.639 1437.29,689.486 1320.45,763.378 1403.87,707.224 1383.39,718.039 1332.71,743.567 1321.72,748.948 1229.9,822.019 1238.99,835.444 1120.58,916.54 1032.34,977.162 1035.44,985.224 1042.68,987.415 1018.44,1008.82 938.573,1046.89 957.483,1040 1004.75,1019.19 1083.4,968.916 1154.89,918.754 1175.72,904.217 1263.13,832.784 1324.44,778.549 1304.89,780.671 1316.53,759.956 1390.79,716.775 1274.16,807.813 1171.07,881.646 1113.74,916.103 1163.57,890.918 1091.62,938.726 1084.54,950.28 1083.34,954.044 1099.49,939.202 1157.64,903.778 1102.44,932.445 1145.75,913.538 1201.84,865.28 1125.15,926.2 1031.47,992.59 1013.27,988.543 1057.61,952.913 1063.51,949.418 1302.81,815.322 1213.89,884.873 1196.3,880.936 1199.88,878.951 1227.24,850.684 1398.54,739.219 1345.07,793.181 1356.77,775.779 1381.93,740.201 1287.25,793.167 1298.28,801.103 1194.26,864.238 1241.86,843.661 1305.12,806.223 1297.57,783.45 1252.39,804.848 1119.39,901.629 1148.79,896.14 1175.79,886.591 1142.16,905.75 1080.91,941.941 1086.13,937.925 997.458,990.579 966.706,1018.59 959.671,1026.23 943.365,1041.76 943.258,1047.18 889.398,1075.57 861.702,1096.09 902.692,1079.02 938.505,1061.28 967.465,1047.01 957.411,1042.64 929.886,1057.53 1021.54,1012.27 1058.82,987.249 1082.91,968.547 1127.61,939.614 1091.11,950.352 1233.27,864.979 1205.86,867.507 1267.15,825.003 1383.23,751.796 1286.92,802.286 1430.55,700.243 1323.85,762.368 1215.72,836.927 1201.69,859.805 1270.8,823.225 1375.77,749.994 1301.9,793.779 1322.48,776.035 1422.52,713.328 1396.97,721.075 1355.32,739.049 1228.22,840.597 1292.18,807.975 1355.14,760.509 1373.72,743.607 1272.33,799.532 1369.02,741.142 1404.26,714.85 1391.64,713.121 1419.95,691.521 1402.98,705.012 1341.17,741.321 1387.13,732.134 1423.03,700.57 1339.81,754.441 1266.71,805.119 1425.39,696.584 1392.43,725.838 1507.43,634.638 1420.99,708.721 1432.78,684.204 1354.02,736.821 1333.31,758.431 1343.35,752.483 1240.38,820.196 1165.79,879.132 1225.75,856.179 1337.14,786.837 1442.49,702.659 1414.37,706.839 1444.06,675.153 1413.58,702.819 1503.63,643.203 1458.31,665.642 1453.57,671.63 1455.52,667.073 1410.85,706.544 1391.55,722.793 1237.41,824.125 1158.9,886.153 1198.54,869.907 1105.37,927.331 1152.56,904.691 1312.65,806.516 1335.07,777.687 1281.44,791.743 1471.24,682.954 1249.12,821.326 1135.85,907.15 1134.16,912.446 1062.35,955.626 1070.38,961.784 1110.98,940.754 1073.99,964.339 1007.99,999.344 999.289,1004.34 873.991,1079.27 947.929,1048.5 1028.91,1004.54 1027.04,1000.22 1161.05,911.671 1226.19,857.086 1201.62,872.068 1160.01,894.291 1055.51,970.362 1100.82,949.57 1111.98,937.772 1064.55,961.955 1005.12,996.574 1001.79,1004.57 990.259,1012.92 1030.67,985.53 917.679,1054.09 889.42,1080.04 845.861,1105.28 994.628,1026.29 966.033,1037.15 905.336,1070.46 916.046,1070.66 970.123,1037.37 1022.7,1010.08 1037.46,987.694 1073.56,968.943 1091.13,951.692 1052.54,967.933 1106.31,936.308 1110.14,928.754 1075.97,947.838 1195.58,881.325 1069.19,966.289 1074.9,961.389 1255.39,843.468 1254.93,838.226 1268.31,817.747 1250.86,829.44 1125.87,910.368 1185.87,883.96 1130.81,919.26 1060.2,966.071 1085.26,955.906 1097.56,948.753 1206.76,879.808 1171.9,890.967 1217.75,864.706 1130.49,919.951 1150.51,902.487 1133.81,910.961 1162.81,909.921 1265.29,844.535 1249.76,840.694 1199.19,871.069 1133.14,915.677 1163.54,896.036 1174.38,878.42 1158.51,897.886 1062.7,959.589 1098.16,935.918 1147.88,900.975 1192.06,882.826 1219.21,880.07 1029.18,1031.23 1154.7,943.125 1177.11,913.754 1219.81,879.347 1311.66,807.456 1265.21,821.679 1291.46,803.051 1315.08,788.656 1234.08,843.997 1207.24,856.024 1178.76,883.596 1174.27,889.636 1118.2,920.416 1145.55,905.387 1193.87,871.224 1237.88,847.47 1192.15,874.47 1066.51,952.801 1098.67,940.905 1058.84,961.402 1043.3,969.004 975.946,1018.69 1067.53,973.352 1168.55,914.293 1168.9,901.897 1213.01,866.873 1133.04,909.164 1160.81,901.682 1161.21,904.677 1094.92,949.851 1076.75,957.865 1136.36,927.851 1214.75,875.78 1237.17,854.713 1297.67,792.047 1232.73,831.605 1204.92,854.833 1145.37,910.359 1129.79,924.762 1090.29,945.674 1102.16,942.824 1039.36,979.983 1046.78,972.543 1036.08,978.316 1064.26,961.596 1131.85,927.699 1164.75,903.733 1140.39,919.515 1189.75,880.879 1187.71,880.509 1288.97,798.359 1225.43,829.338 1136.77,891.097 1242.01,836.368 1122.07,915.475 1105.75,926.078 1197.1,878.881 1199.55,876.269 1187.95,884.933 1190.22,868.826 1147.16,898.914 1186.43,877.49 1186.42,874.447 1124.16,910.261 1205.52,862.888 1153.12,901.194 1166.36,902.345 1123.07,927.436 1184.61,879.091 1121.86,913.614 1180.2,859.618 1138.27,903.064 1227.74,855.181 1246.48,837.449 1236.99,840.911 1312.33,794.309 1290.36,789.015 1295.12,794.453 1275.84,804.35 1276.98,807.28 1277.41,798.929 1294.17,806.912 1270.1,817.87 1384.73,745.648 1419.27,716.879 1429.05,697.152 1420.05,688.836 1295.67,788.199 1149.98,886.05 1216.18,852.242 1244.91,835.026 1082.47,947.236 1104.16,939.591 1099.92,942.908 1185.62,894.453 1305.13,815.915 1239.05,842.469 1176.95,885.92 1204.82,866.607 1295.28,808.144 1264.67,812.826 1177.23,876.123 1289.71,804.987 1344.06,766.783 1298.73,785.986 1431.5,678.24 1391.48,720.526 1472.57,655.168 1441.86,675.822 1423.11,693.392 1493.26,642.684 1380.24,737.813 1402.89,723.308 1190.79,864.564 1189.24,876.755 1322.09,792.921 1416.4,711.432 1378.09,718.272 1357.47,736.985 1425.04,697.277 1366.75,719.66 1454.37,669.227 1388.18,701.229 1224.12,817.553 1188.4,854.347 1301.5,793.748 1369.69,734.153 1310.3,771.833 1265.25,804.676 1340.44,768.965 1358.79,755.589 1341.41,764.491 1315.26,777.543 1276.25,809.538 1348.18,763.778 1254.16,827.133 1114.01,919.06 1086.64,938.844 1144.49,913.909 1088.57,944.873 1064.37,961.426 1207.54,877.021 1223.71,852.147 1263.48,822.814 1168.56,889.01 1251.34,808.628 1224.09,834.148 1162.48,885.143 1191.44,871.295 1289.2,808.047 1268.51,808.748 1233.83,843.572 1188.03,881.706 1229.15,845.388 1272.73,804.115 1179.37,865.899 1291.43,802.609 1242.71,834.097 1356.69,736.543 1312.46,758.822 1175.08,864.217 1132.85,896.366 1163.46,889.095 1104.18,925.155 1108.33,929.492 1131.29,922.475 991.597,1001.44 1001.78,1008.35 938.917,1043.93 1057.1,980.531 1025.79,1000.1 1021.74,1000.49 903.864,1067.76 1091.33,968.078 1219.71,886.016 1236.51,859.127 1163.9,901.431 1279.71,829.976 1279.11,822.883 1303.36,808.705 1446.41,695.363 1665.27,538.916 1564.96,571.831 1516.77,609.798 1644.42,523.205 1656.6,498.56 1539.26,568.811 1516.92,595.679 1551.25,578.664 1514.46,608.354 1572.14,568.316 1543.49,592.01 1528.76,600.808 1458.89,652.329 1414.2,685.825 1565,595.434 1624.03,534.843 1581.9,546.844 1595.11,541.604 1639.92,498.503 1657.65,497.187 1588.63,540.441 1443.18,637.673 1407.82,683.159 1359.84,717.796 1407.83,699.386 1399.51,710.553 1402.6,713.44 1440.54,680.013 1391.35,720.418 1421.43,702.601 1409.84,706.842 1360.31,733.348 1411.02,701.796 1274.88,799.314 1315.46,777.499 1204.6,849.922 1202.38,856.414 1180.32,877.884 1144.84,901.535 1114,929.937 1161.59,907.699 1147.68,910.862 1199.57,882.222 1230.4,850.898 1160.26,894.17 1260.35,839.811 1218.16,851.249 1101.96,924.169 1079.56,945.647 1002.28,995.605 987.343,1009.47 1005.79,1001.65 997.707,1012.34 1054.5,979.279 1146.97,916.426 1156.35,898.525 1078.96,949.18 1094.14,945.45 1032.63,985.31 1126.3,926.396 1161.73,901.723 1266.31,823.972 1316.18,775.867 1291.95,787.161 1222,850.989 1169.54,888.737 1213.68,868.914 1200.16,856.501 1172.78,881.184 1120.37,921.542 1124.28,923.273 1012.16,986.464 1034.02,986.934 1064.76,972.861 949.742,1031.49 934.089,1047.92 935.426,1049.71 841.365,1104.78 821.198,1119.63 853.476,1104.26 738.398,1169.79 724.759,1176.88 786.352,1152.17 783.488,1149.76 771.282,1156.78 764.373,1157.44 817.099,1129.48 822.279,1125.24 806.623,1132.01 796.061,1142.68 752.005,1161.16 800.651,1139.31 852.574,1111.59 902.133,1083.69 929.799,1062.17 1013.87,1014.5 1062.89,985.682 1135.5,929.046 982.972,1010.51 1074.2,955.218 1106.14,940.66 1202.38,893.724 1142.39,911.627 1166.56,891.279 1145.36,903.378 1148.39,907.777 1253.76,843.926 1381.35,750.915 1455.33,688.82 1509.4,638.868 1526.17,610.937 1526.79,603.074 1481.13,637.927 1523.08,602.316 1603.52,528.486 1481.13,629.453 1476.17,640.487 1477.6,644.024 1373.99,715.705 1264.71,791.643 1236.44,824.706 1229.72,840.057 1197.34,863.549 1241,839.267 1178.52,879.697 1209.36,868.786 1261.32,835.315 1285.8,812.047 1450.05,698.387 1344.13,757.874 1427.72,707.717 1557.86,595.6 1710.73,477.876 1664.41,476.321 1624.85,502.923 1422.91,651.191 1462.18,643.115 1486.02,641.631 1412.37,687.412 1428.99,681.816 1312.4,760.984 1218.11,827.398 1317.66,779.93 1319.87,774.171 1384.59,732.95 1360.05,742.884 1472,684.092 1463.07,670.639 1489.45,642.388 1432.37,672.365 1394.44,697.004 1306.57,768.774 1254.85,815.371 1244.29,827.599 1371.1,742.926 1275.07,803.467 1329.34,755.225 1534.52,611.653 1485.98,638.15 1390.89,696.595 1410.2,684.628 1310.76,766.297 1286.68,795.605 1240.19,838.083 1211.84,856.149 1246.99,835.55 1196.43,877.078 1166.58,895.079 1235.39,851.661 1287.61,807.322 1245.21,827.912 1255.51,825.948 1256.35,828.138 1225.57,829.132 1189.21,863.244 1173.16,877.495 1199.21,865.597 1201.47,871.935 1276.9,834.736 1221.1,861.133 1254.95,833.605 1141.41,901.101 1206.95,857.533 1247.29,835.46 1290.59,793.665 1235.63,825.626 1275.1,807.377 1220.04,842.924 1256.77,823.535 1271.75,812.74 1191.03,866.479 1234.24,842.065 1290.86,808.425 1373.15,747.169 1455.18,689.631 1444.11,680.872 1556.9,595.989 1490.44,628.792 1479.58,637.077 1412.72,687.805 1430.57,673.998 1372.07,730.213 1503.7,655.958 1577.64,587.911 1546,586.395 1578.88,564.873 1657.2,496.377 1656.25,481.088 1654.26,476.482 1682.18,470.158 1657.22,485.767 1546.37,566.122 1530.57,587.357 1525.98,605.568 1472.1,644.294 1406.45,690.985 1475.05,660.262 1451.95,675.876 1301.27,775.821 1379.58,735.503 1313.23,770.682 1240.63,812.09 1240.57,829.467 1231.5,836.669 1133.61,902.334 1182.93,880.023 1112.78,925.328 996.728,994.17 949.5,1026.48 966.304,1028.74 923.603,1055.83 904.462,1069.78 997.689,1025.01 1105.94,958.091 1080.24,965.605 1071.31,967.915 1054.95,971.482 1068.31,961.871 1215.21,872.115 1114.05,926.47 1243.73,858.191 1180.1,879.034 1167.24,890.448 1171.23,889.864 1108.88,929.013 1132.64,932.832 1170.73,908.007 1253.64,851.305 1261.59,835.143 1212.28,850.321 1142.51,901.282 1094.86,935.777 1141.27,915.202 1165.13,902.396 1243.12,828.408 1291.66,795.991 1260.67,812.568 1213.53,852.65 1186.07,870.561 1087.52,927.869 1050.32,968.084 1095.03,949.415 1146.99,921.12 1178.15,897.693 1248.28,848.872 1245.56,841.124 1211.71,858.382 1219.86,855.38 1182.91,881.209 1190.79,874.603 1153.75,913.064 1064.82,965.04 998.555,1007.37 942.138,1040.82 981.902,1028.61 912.482,1071.14 997.614,1020.24 957.547,1045.89 907.412,1069.96 1075.2,980.771 1117.71,949.821 1279.91,843.58 1287.71,823.772 1274.64,820.661 1131.43,909.895 1089.75,942.54 1038.81,972.416 953.661,1024.98 918.34,1051.03 917.471,1054.05 864.855,1086.95 917.177,1066.47 990.415,1029.98 904.821,1071.67 901.777,1071.72 982.558,1032.11 945.511,1046.54 929.465,1057.08 927.74,1058.71 997.031,1022.08 877.112,1088.74 914.832,1068.42 927.559,1067.1 944.662,1054.46 949.852,1051.74 1007.18,1008.23 1095.4,958.513 1027.35,987.021 1116.45,937.6 1147.96,902.188 1282.53,815.94 1207.14,863.585 1190.83,879.973 1150.47,895.419 1234.4,853.164 1190.54,891.388 1208.05,883.606 1408.74,740.963 1388.37,731.212 1459.53,668.779 1547.13,585.694 1361.4,728.15 1239.7,812.34 1285.67,800.996 1328.53,775.154 1297.33,791.366 1280.93,814.013 1398.98,727.836 1268.38,806.917 1348.51,755.781 1392.02,728.01 1400.04,715.312 1397.92,700.909 1566.27,580.404 1532.16,586.695 1430.39,666.21 1449.66,668.273 1443.78,681.951 1323.56,759.125 1292.34,783.035 1241.81,826.081 1207.74,855.895 1259.57,828.143 1184.84,863.779 1135.97,911.225 1103.44,932.433 1125.84,921.745 1094.94,936.9 1125.05,920.766 1195.29,878.971 1127.61,910.727 1129.31,914.194 1119.03,916.397 1129.08,916.988 1105.72,923.295 1086.23,938.96 1089.42,946.939 1093.61,932.459 1025.19,985.961 1048.01,974.666 1005.73,987.552 958.518,1002.7 977.554,989.724 968.751,1000.11 1113.48,918.265 1037.11,967.634 1069.29,975.07 1124.79,936.587 1076.76,955.139 1103.14,945.553 1068.52,956.993 1154.55,912.413 1212.37,857.556 1290.86,806.578 1376.43,736.686 1306.13,774.372 1373.3,730.521 1362.77,742.785 1295.11,779.748 1390.02,721.401 1384.27,714.828 1412.9,694.931 1225.42,833.046 1252.61,829.325 1282.12,814.189 1232.78,841.259 1231.71,839.844 1211.77,858.008 1343.23,767.655 1200.75,852.444 1181.31,875.782 1122.56,913.134 1060.35,953.882 1057.87,965.767 1097.05,944.12 1152.91,913.295 1117.53,933.877 1061.29,969.358 1136.03,919.983 1092.53,950.901 1067.57,964.833 1149.35,918.116 1128.42,917.386 1235.27,854.269 981.311,1040.28 937.814,1057.56 1110.87,955.449 1040.23,984.779 1116.8,937.76 992.029,1008.53 1091.08,950.503 1029.9,981.723 1111.69,932.096 1194.73,884.71 1176.72,893.901 1113.82,913.098 1200.88,881.909 1238.15,842.95 1176.04,887.446 1222.49,853.843 1383.29,734.03 1386.62,719.462 1340.13,750.449 1407.42,712.439 1307.57,776.576 1293.77,791.062 1309.94,771.413 1402.18,706.397 1396.43,713.779 1395.07,718.554 1340.16,746.27 1345.14,740.186 1286.7,780.559 1268.83,789.506 1125.91,893.846 1122.8,907.36 1061.63,950.278 1006.26,993.207 933.423,1040.14 940.132,1044.02 965.323,1037.25 948.114,1044.05 1043.02,989.061 1004.72,1007.46 977.747,1015.81 1100.74,954.723 1230,859.878 1304.03,802.769 1305.82,786.965 1380.02,736.904 1369.4,737.942 1334.28,752.009 1519.83,624.855 1474.54,644.505 1348.94,731.499 1311.12,776.063 1455.34,678.363 1508.6,632.49 1377.07,720.519 1492.42,638.01 1412.18,702.318 1415.44,701.308 1356.18,740.489 1295.14,789.697 1279.1,807.128 1129.74,905.696 1025.12,978.997 972.999,1014.93 1015.04,1004.16 1033.45,996.993 1026.77,995.461 1012.93,1005.83 984.87,1021.6 1021.49,1009.95 1068.18,977.299 1095.93,957.671 1035.48,990.625 1040.68,992.102 1021.53,1000.13 982.454,1023.1 907.34,1074.98 1019.66,1010.32 1030.86,998.527 1026.95,1005.15 1086.03,962.282 993.108,1015.13 958.17,1036.27 937.462,1057.68 884.684,1087.1 926.664,1061.58 960.573,1039.93 956.452,1037.53 1003.51,1005.87 1007.03,1009.08 941.331,1045.76 909.948,1071.89 927.897,1063.53 915.509,1059.15 905.502,1070.22 890.241,1082.82 913.111,1070.9 930.265,1060.73 905.124,1075.49 854.014,1104.73 884.593,1084.43 959.792,1050.95 1011.38,1013.59 1120.59,947.08 1094.02,956.343 1118.29,934.567 1172.05,896.549 1287.77,815.997 1353.54,767.643 1408.31,709.462 1408.29,704.357 1361,738.545 1426.7,681.649 1307.7,774.817 1255.89,820.288 1315.93,779.129 1232.39,839.168 1274.35,823.352 1189.09,878.022 1222.86,846.591 1222.95,861.839 1149.5,910.591 1134.28,928.766 1237.79,851.34 1376.15,753.618 1267.33,816.443 1215.26,842.403 1127.45,905.983 1062.65,951.185 1077.72,953.445 1082.97,954.896 1068.1,970.126 1079.12,965.385 1076.43,959.652 1094.76,953.859 1097.51,952.823 1192.53,890.609 1227.08,859.989 1245.57,847.291 1364.05,752.126 1308.53,782.696 1415.21,712.153 "/>
<path clip-path="url(#clip480)" d="M228.998 198.898 L588.673 198.898 L588.673 95.2176 L228.998 95.2176  Z" fill="#ffffff" fill-rule="evenodd" fill-opacity="1"/>
<polyline clip-path="url(#clip480)" style="stroke:#000000; stroke-linecap:round; stroke-linejoin:round; stroke-width:4; stroke-opacity:1; fill:none" points="228.998,198.898 588.673,198.898 588.673,95.2176 228.998,95.2176 228.998,198.898 "/>
<polyline clip-path="url(#clip480)" style="stroke:#009af9; stroke-linecap:round; stroke-linejoin:round; stroke-width:4; stroke-opacity:1; fill:none" points="253.409,147.058 399.875,147.058 "/>
<path clip-path="url(#clip480)" d="M434.911 128.366 Q431.809 133.69 430.305 138.898 Q428.8 144.106 428.8 149.453 Q428.8 154.801 430.305 160.055 Q431.832 165.287 434.911 170.588 L431.207 170.588 Q427.735 165.148 425.999 159.893 Q424.286 154.639 424.286 149.453 Q424.286 144.291 425.999 139.06 Q427.712 133.828 431.207 128.366 L434.911 128.366 Z" fill="#000000" fill-rule="nonzero" fill-opacity="1" /><path clip-path="url(#clip480)" d="M464.726 138.412 L455.351 151.027 L465.212 164.338 L460.189 164.338 L452.642 154.152 L445.096 164.338 L440.073 164.338 L450.142 150.773 L440.929 138.412 L445.953 138.412 L452.828 147.648 L459.703 138.412 L464.726 138.412 Z" fill="#000000" fill-rule="nonzero" fill-opacity="1" /><path clip-path="url(#clip480)" d="M472.318 158.458 L477.202 158.458 L477.202 162.439 L473.406 169.847 L470.42 169.847 L472.318 162.439 L472.318 158.458 Z" fill="#000000" fill-rule="nonzero" fill-opacity="1" /><path clip-path="url(#clip480)" d="M497.087 166.745 Q495.281 171.375 493.568 172.787 Q491.855 174.199 488.985 174.199 L485.582 174.199 L485.582 170.634 L488.082 170.634 Q489.841 170.634 490.813 169.8 Q491.786 168.967 492.966 165.865 L493.73 163.921 L483.244 138.412 L487.758 138.412 L495.86 158.689 L503.962 138.412 L508.475 138.412 L497.087 166.745 Z" fill="#000000" fill-rule="nonzero" fill-opacity="1" /><path clip-path="url(#clip480)" d="M515.443 158.458 L520.327 158.458 L520.327 162.439 L516.531 169.847 L513.545 169.847 L515.443 162.439 L515.443 158.458 Z" fill="#000000" fill-rule="nonzero" fill-opacity="1" /><path clip-path="url(#clip480)" d="M527.573 138.412 L547.804 138.412 L547.804 142.301 L531.785 160.935 L547.804 160.935 L547.804 164.338 L526.994 164.338 L526.994 160.449 L543.012 141.815 L527.573 141.815 L527.573 138.412 Z" fill="#000000" fill-rule="nonzero" fill-opacity="1" /><path clip-path="url(#clip480)" d="M553.637 128.366 L557.341 128.366 Q560.813 133.828 562.526 139.06 Q564.262 144.291 564.262 149.453 Q564.262 154.639 562.526 159.893 Q560.813 165.148 557.341 170.588 L553.637 170.588 Q556.716 165.287 558.22 160.055 Q559.748 154.801 559.748 149.453 Q559.748 144.106 558.22 138.898 Q556.716 133.69 553.637 128.366 Z" fill="#000000" fill-rule="nonzero" fill-opacity="1" /></svg>
