<?xml version="1.0" encoding="utf-8"?>
<svg xmlns="http://www.w3.org/2000/svg" xmlns:xlink="http://www.w3.org/1999/xlink" width="600" height="400" viewBox="0 0 2400 1600">
<defs>
  <clipPath id="clip000">
    <rect x="0" y="0" width="2400" height="1600"/>
  </clipPath>
</defs>
<path clip-path="url(#clip000)" d="M0 1600 L2400 1600 L2400 0 L0 0  Z" fill="#ffffff" fill-rule="evenodd" fill-opacity="1"/>
<defs>
  <clipPath id="clip001">
    <rect x="193" y="47" width="2160" height="1377"/>
  </clipPath>
</defs>
<path clip-path="url(#clip000)" d="M193.936 1423.18 L2352.76 1423.18 L2352.76 47.2441 L193.936 47.2441  Z" fill="#ffffff" fill-rule="evenodd" fill-opacity="1"/>
<polyline clip-path="url(#clip001)" style="stroke:#000000; stroke-linecap:round; stroke-linejoin:round; stroke-width:2; stroke-opacity:0.1; fill:none" points="193.936,1423.18 193.936,47.2441 "/>
<polyline clip-path="url(#clip001)" style="stroke:#000000; stroke-linecap:round; stroke-linejoin:round; stroke-width:2; stroke-opacity:0.1; fill:none" points="625.7,1423.18 625.7,47.2441 "/>
<polyline clip-path="url(#clip001)" style="stroke:#000000; stroke-linecap:round; stroke-linejoin:round; stroke-width:2; stroke-opacity:0.1; fill:none" points="1057.46,1423.18 1057.46,47.2441 "/>
<polyline clip-path="url(#clip001)" style="stroke:#000000; stroke-linecap:round; stroke-linejoin:round; stroke-width:2; stroke-opacity:0.1; fill:none" points="1489.23,1423.18 1489.23,47.2441 "/>
<polyline clip-path="url(#clip001)" style="stroke:#000000; stroke-linecap:round; stroke-linejoin:round; stroke-width:2; stroke-opacity:0.1; fill:none" points="1920.99,1423.18 1920.99,47.2441 "/>
<polyline clip-path="url(#clip001)" style="stroke:#000000; stroke-linecap:round; stroke-linejoin:round; stroke-width:2; stroke-opacity:0.1; fill:none" points="2352.76,1423.18 2352.76,47.2441 "/>
<polyline clip-path="url(#clip001)" style="stroke:#000000; stroke-linecap:round; stroke-linejoin:round; stroke-width:2; stroke-opacity:0.1; fill:none" points="193.936,1220.48 2352.76,1220.48 "/>
<polyline clip-path="url(#clip001)" style="stroke:#000000; stroke-linecap:round; stroke-linejoin:round; stroke-width:2; stroke-opacity:0.1; fill:none" points="193.936,1011.09 2352.76,1011.09 "/>
<polyline clip-path="url(#clip001)" style="stroke:#000000; stroke-linecap:round; stroke-linejoin:round; stroke-width:2; stroke-opacity:0.1; fill:none" points="193.936,801.694 2352.76,801.694 "/>
<polyline clip-path="url(#clip001)" style="stroke:#000000; stroke-linecap:round; stroke-linejoin:round; stroke-width:2; stroke-opacity:0.1; fill:none" points="193.936,592.303 2352.76,592.303 "/>
<polyline clip-path="url(#clip001)" style="stroke:#000000; stroke-linecap:round; stroke-linejoin:round; stroke-width:2; stroke-opacity:0.1; fill:none" points="193.936,382.911 2352.76,382.911 "/>
<polyline clip-path="url(#clip001)" style="stroke:#000000; stroke-linecap:round; stroke-linejoin:round; stroke-width:2; stroke-opacity:0.1; fill:none" points="193.936,173.52 2352.76,173.52 "/>
<polyline clip-path="url(#clip000)" style="stroke:#000000; stroke-linecap:round; stroke-linejoin:round; stroke-width:4; stroke-opacity:1; fill:none" points="193.936,1423.18 2352.76,1423.18 "/>
<polyline clip-path="url(#clip000)" style="stroke:#000000; stroke-linecap:round; stroke-linejoin:round; stroke-width:4; stroke-opacity:1; fill:none" points="193.936,1423.18 193.936,1404.28 "/>
<polyline clip-path="url(#clip000)" style="stroke:#000000; stroke-linecap:round; stroke-linejoin:round; stroke-width:4; stroke-opacity:1; fill:none" points="625.7,1423.18 625.7,1404.28 "/>
<polyline clip-path="url(#clip000)" style="stroke:#000000; stroke-linecap:round; stroke-linejoin:round; stroke-width:4; stroke-opacity:1; fill:none" points="1057.46,1423.18 1057.46,1404.28 "/>
<polyline clip-path="url(#clip000)" style="stroke:#000000; stroke-linecap:round; stroke-linejoin:round; stroke-width:4; stroke-opacity:1; fill:none" points="1489.23,1423.18 1489.23,1404.28 "/>
<polyline clip-path="url(#clip000)" style="stroke:#000000; stroke-linecap:round; stroke-linejoin:round; stroke-width:4; stroke-opacity:1; fill:none" points="1920.99,1423.18 1920.99,1404.28 "/>
<polyline clip-path="url(#clip000)" style="stroke:#000000; stroke-linecap:round; stroke-linejoin:round; stroke-width:4; stroke-opacity:1; fill:none" points="2352.76,1423.18 2352.76,1404.28 "/>
<path clip-path="url(#clip000)" d="M193.936 1454.1 Q190.325 1454.1 188.496 1457.66 Q186.691 1461.2 186.691 1468.33 Q186.691 1475.44 188.496 1479.01 Q190.325 1482.55 193.936 1482.55 Q197.57 1482.55 199.376 1479.01 Q201.204 1475.44 201.204 1468.33 Q201.204 1461.2 199.376 1457.66 Q197.57 1454.1 193.936 1454.1 M193.936 1450.39 Q199.746 1450.39 202.802 1455 Q205.88 1459.58 205.88 1468.33 Q205.88 1477.06 202.802 1481.67 Q199.746 1486.25 193.936 1486.25 Q188.126 1486.25 185.047 1481.67 Q181.992 1477.06 181.992 1468.33 Q181.992 1459.58 185.047 1455 Q188.126 1450.39 193.936 1450.39 Z" fill="#000000" fill-rule="nonzero" fill-opacity="1" /><path clip-path="url(#clip000)" d="M620.353 1481.64 L636.672 1481.64 L636.672 1485.58 L614.728 1485.58 L614.728 1481.64 Q617.39 1478.89 621.973 1474.26 Q626.58 1469.61 627.76 1468.27 Q630.006 1465.74 630.885 1464.01 Q631.788 1462.25 631.788 1460.56 Q631.788 1457.8 629.843 1456.07 Q627.922 1454.33 624.82 1454.33 Q622.621 1454.33 620.168 1455.09 Q617.737 1455.86 614.959 1457.41 L614.959 1452.69 Q617.783 1451.55 620.237 1450.97 Q622.691 1450.39 624.728 1450.39 Q630.098 1450.39 633.293 1453.08 Q636.487 1455.77 636.487 1460.26 Q636.487 1462.39 635.677 1464.31 Q634.89 1466.2 632.783 1468.8 Q632.205 1469.47 629.103 1472.69 Q626.001 1475.88 620.353 1481.64 Z" fill="#000000" fill-rule="nonzero" fill-opacity="1" /><path clip-path="url(#clip000)" d="M1060.47 1455.09 L1048.67 1473.54 L1060.47 1473.54 L1060.47 1455.09 M1059.25 1451.02 L1065.13 1451.02 L1065.13 1473.54 L1070.06 1473.54 L1070.06 1477.43 L1065.13 1477.43 L1065.13 1485.58 L1060.47 1485.58 L1060.47 1477.43 L1044.87 1477.43 L1044.87 1472.92 L1059.25 1451.02 Z" fill="#000000" fill-rule="nonzero" fill-opacity="1" /><path clip-path="url(#clip000)" d="M1489.63 1466.44 Q1486.48 1466.44 1484.63 1468.59 Q1482.8 1470.74 1482.8 1474.49 Q1482.8 1478.22 1484.63 1480.39 Q1486.48 1482.55 1489.63 1482.55 Q1492.78 1482.55 1494.61 1480.39 Q1496.46 1478.22 1496.46 1474.49 Q1496.46 1470.74 1494.61 1468.59 Q1492.78 1466.44 1489.63 1466.44 M1498.92 1451.78 L1498.92 1456.04 Q1497.16 1455.21 1495.35 1454.77 Q1493.57 1454.33 1491.81 1454.33 Q1487.18 1454.33 1484.73 1457.45 Q1482.3 1460.58 1481.95 1466.9 Q1483.31 1464.89 1485.37 1463.82 Q1487.43 1462.73 1489.91 1462.73 Q1495.12 1462.73 1498.13 1465.9 Q1501.16 1469.05 1501.16 1474.49 Q1501.16 1479.82 1498.01 1483.03 Q1494.86 1486.25 1489.63 1486.25 Q1483.64 1486.25 1480.47 1481.67 Q1477.3 1477.06 1477.3 1468.33 Q1477.3 1460.14 1481.18 1455.28 Q1485.07 1450.39 1491.62 1450.39 Q1493.38 1450.39 1495.17 1450.74 Q1496.97 1451.09 1498.92 1451.78 Z" fill="#000000" fill-rule="nonzero" fill-opacity="1" /><path clip-path="url(#clip000)" d="M1920.99 1469.17 Q1917.66 1469.17 1915.74 1470.95 Q1913.84 1472.73 1913.84 1475.86 Q1913.84 1478.98 1915.74 1480.77 Q1917.66 1482.55 1920.99 1482.55 Q1924.33 1482.55 1926.25 1480.77 Q1928.17 1478.96 1928.17 1475.86 Q1928.17 1472.73 1926.25 1470.95 Q1924.35 1469.17 1920.99 1469.17 M1916.32 1467.18 Q1913.31 1466.44 1911.62 1464.38 Q1909.95 1462.32 1909.95 1459.35 Q1909.95 1455.21 1912.89 1452.8 Q1915.85 1450.39 1920.99 1450.39 Q1926.15 1450.39 1929.09 1452.8 Q1932.03 1455.21 1932.03 1459.35 Q1932.03 1462.32 1930.34 1464.38 Q1928.68 1466.44 1925.69 1467.18 Q1929.07 1467.96 1930.95 1470.26 Q1932.84 1472.55 1932.84 1475.86 Q1932.84 1480.88 1929.77 1483.57 Q1926.71 1486.25 1920.99 1486.25 Q1915.27 1486.25 1912.2 1483.57 Q1909.14 1480.88 1909.14 1475.86 Q1909.14 1472.55 1911.04 1470.26 Q1912.94 1467.96 1916.32 1467.18 M1914.6 1459.79 Q1914.6 1462.48 1916.27 1463.98 Q1917.96 1465.49 1920.99 1465.49 Q1924 1465.49 1925.69 1463.98 Q1927.4 1462.48 1927.4 1459.79 Q1927.4 1457.11 1925.69 1455.6 Q1924 1454.1 1920.99 1454.1 Q1917.96 1454.1 1916.27 1455.6 Q1914.6 1457.11 1914.6 1459.79 Z" fill="#000000" fill-rule="nonzero" fill-opacity="1" /><path clip-path="url(#clip000)" d="M2327.44 1481.64 L2335.08 1481.64 L2335.08 1455.28 L2326.77 1456.95 L2326.77 1452.69 L2335.04 1451.02 L2339.71 1451.02 L2339.71 1481.64 L2347.35 1481.64 L2347.35 1485.58 L2327.44 1485.58 L2327.44 1481.64 Z" fill="#000000" fill-rule="nonzero" fill-opacity="1" /><path clip-path="url(#clip000)" d="M2366.8 1454.1 Q2363.18 1454.1 2361.36 1457.66 Q2359.55 1461.2 2359.55 1468.33 Q2359.55 1475.44 2361.36 1479.01 Q2363.18 1482.55 2366.8 1482.55 Q2370.43 1482.55 2372.23 1479.01 Q2374.06 1475.44 2374.06 1468.33 Q2374.06 1461.2 2372.23 1457.66 Q2370.43 1454.1 2366.8 1454.1 M2366.8 1450.39 Q2372.61 1450.39 2375.66 1455 Q2378.74 1459.58 2378.74 1468.33 Q2378.74 1477.06 2375.66 1481.67 Q2372.61 1486.25 2366.8 1486.25 Q2360.99 1486.25 2357.91 1481.67 Q2354.85 1477.06 2354.85 1468.33 Q2354.85 1459.58 2357.91 1455 Q2360.99 1450.39 2366.8 1450.39 Z" fill="#000000" fill-rule="nonzero" fill-opacity="1" /><path clip-path="url(#clip000)" d="M1272.41 1522.27 L1272.41 1532.4 L1284.47 1532.4 L1284.47 1536.95 L1272.41 1536.95 L1272.41 1556.3 Q1272.41 1560.66 1273.58 1561.9 Q1274.79 1563.14 1278.45 1563.14 L1284.47 1563.14 L1284.47 1568.04 L1278.45 1568.04 Q1271.67 1568.04 1269.1 1565.53 Q1266.52 1562.98 1266.52 1556.3 L1266.52 1536.95 L1262.22 1536.95 L1262.22 1532.4 L1266.52 1532.4 L1266.52 1522.27 L1272.41 1522.27 Z" fill="#000000" fill-rule="nonzero" fill-opacity="1" /><polyline clip-path="url(#clip000)" style="stroke:#000000; stroke-linecap:round; stroke-linejoin:round; stroke-width:4; stroke-opacity:1; fill:none" points="193.936,1423.18 193.936,47.2441 "/>
<polyline clip-path="url(#clip000)" style="stroke:#000000; stroke-linecap:round; stroke-linejoin:round; stroke-width:4; stroke-opacity:1; fill:none" points="193.936,1220.48 212.834,1220.48 "/>
<polyline clip-path="url(#clip000)" style="stroke:#000000; stroke-linecap:round; stroke-linejoin:round; stroke-width:4; stroke-opacity:1; fill:none" points="193.936,1011.09 212.834,1011.09 "/>
<polyline clip-path="url(#clip000)" style="stroke:#000000; stroke-linecap:round; stroke-linejoin:round; stroke-width:4; stroke-opacity:1; fill:none" points="193.936,801.694 212.834,801.694 "/>
<polyline clip-path="url(#clip000)" style="stroke:#000000; stroke-linecap:round; stroke-linejoin:round; stroke-width:4; stroke-opacity:1; fill:none" points="193.936,592.303 212.834,592.303 "/>
<polyline clip-path="url(#clip000)" style="stroke:#000000; stroke-linecap:round; stroke-linejoin:round; stroke-width:4; stroke-opacity:1; fill:none" points="193.936,382.911 212.834,382.911 "/>
<polyline clip-path="url(#clip000)" style="stroke:#000000; stroke-linecap:round; stroke-linejoin:round; stroke-width:4; stroke-opacity:1; fill:none" points="193.936,173.52 212.834,173.52 "/>
<path clip-path="url(#clip000)" d="M50.9921 1220.93 L80.6679 1220.93 L80.6679 1224.86 L50.9921 1224.86 L50.9921 1220.93 Z" fill="#000000" fill-rule="nonzero" fill-opacity="1" /><path clip-path="url(#clip000)" d="M91.5706 1233.82 L99.2095 1233.82 L99.2095 1207.46 L90.8993 1209.12 L90.8993 1204.86 L99.1632 1203.2 L103.839 1203.2 L103.839 1233.82 L111.478 1233.82 L111.478 1237.76 L91.5706 1237.76 L91.5706 1233.82 Z" fill="#000000" fill-rule="nonzero" fill-opacity="1" /><path clip-path="url(#clip000)" d="M120.922 1231.88 L125.807 1231.88 L125.807 1237.76 L120.922 1237.76 L120.922 1231.88 Z" fill="#000000" fill-rule="nonzero" fill-opacity="1" /><path clip-path="url(#clip000)" d="M145.992 1206.27 Q142.381 1206.27 140.552 1209.84 Q138.746 1213.38 138.746 1220.51 Q138.746 1227.62 140.552 1231.18 Q142.381 1234.72 145.992 1234.72 Q149.626 1234.72 151.431 1231.18 Q153.26 1227.62 153.26 1220.51 Q153.26 1213.38 151.431 1209.84 Q149.626 1206.27 145.992 1206.27 M145.992 1202.57 Q151.802 1202.57 154.857 1207.18 Q157.936 1211.76 157.936 1220.51 Q157.936 1229.24 154.857 1233.84 Q151.802 1238.43 145.992 1238.43 Q140.181 1238.43 137.103 1233.84 Q134.047 1229.24 134.047 1220.51 Q134.047 1211.76 137.103 1207.18 Q140.181 1202.57 145.992 1202.57 Z" fill="#000000" fill-rule="nonzero" fill-opacity="1" /><path clip-path="url(#clip000)" d="M51.9875 1011.54 L81.6633 1011.54 L81.6633 1015.47 L51.9875 1015.47 L51.9875 1011.54 Z" fill="#000000" fill-rule="nonzero" fill-opacity="1" /><path clip-path="url(#clip000)" d="M101.756 996.884 Q98.1447 996.884 96.316 1000.45 Q94.5104 1003.99 94.5104 1011.12 Q94.5104 1018.23 96.316 1021.79 Q98.1447 1025.33 101.756 1025.33 Q105.39 1025.33 107.196 1021.79 Q109.024 1018.23 109.024 1011.12 Q109.024 1003.99 107.196 1000.45 Q105.39 996.884 101.756 996.884 M101.756 993.18 Q107.566 993.18 110.621 997.786 Q113.7 1002.37 113.7 1011.12 Q113.7 1019.85 110.621 1024.45 Q107.566 1029.04 101.756 1029.04 Q95.9456 1029.04 92.8669 1024.45 Q89.8114 1019.85 89.8114 1011.12 Q89.8114 1002.37 92.8669 997.786 Q95.9456 993.18 101.756 993.18 Z" fill="#000000" fill-rule="nonzero" fill-opacity="1" /><path clip-path="url(#clip000)" d="M121.918 1022.49 L126.802 1022.49 L126.802 1028.37 L121.918 1028.37 L121.918 1022.49 Z" fill="#000000" fill-rule="nonzero" fill-opacity="1" /><path clip-path="url(#clip000)" d="M137.033 993.805 L155.39 993.805 L155.39 997.74 L141.316 997.74 L141.316 1006.21 Q142.334 1005.87 143.353 1005.7 Q144.371 1005.52 145.39 1005.52 Q151.177 1005.52 154.556 1008.69 Q157.936 1011.86 157.936 1017.28 Q157.936 1022.86 154.464 1025.96 Q150.992 1029.04 144.672 1029.04 Q142.496 1029.04 140.228 1028.67 Q137.982 1028.3 135.575 1027.55 L135.575 1022.86 Q137.658 1023.99 139.881 1024.55 Q142.103 1025.1 144.58 1025.1 Q148.584 1025.1 150.922 1022.99 Q153.26 1020.89 153.26 1017.28 Q153.26 1013.67 150.922 1011.56 Q148.584 1009.45 144.58 1009.45 Q142.705 1009.45 140.83 1009.87 Q138.978 1010.29 137.033 1011.17 L137.033 993.805 Z" fill="#000000" fill-rule="nonzero" fill-opacity="1" /><path clip-path="url(#clip000)" d="M100.76 787.492 Q97.1493 787.492 95.3206 791.057 Q93.515 794.599 93.515 801.729 Q93.515 808.835 95.3206 812.4 Q97.1493 815.941 100.76 815.941 Q104.395 815.941 106.2 812.4 Q108.029 808.835 108.029 801.729 Q108.029 794.599 106.2 791.057 Q104.395 787.492 100.76 787.492 M100.76 783.789 Q106.571 783.789 109.626 788.395 Q112.705 792.979 112.705 801.729 Q112.705 810.455 109.626 815.062 Q106.571 819.645 100.76 819.645 Q94.9502 819.645 91.8715 815.062 Q88.816 810.455 88.816 801.729 Q88.816 792.979 91.8715 788.395 Q94.9502 783.789 100.76 783.789 Z" fill="#000000" fill-rule="nonzero" fill-opacity="1" /><path clip-path="url(#clip000)" d="M120.922 813.094 L125.807 813.094 L125.807 818.974 L120.922 818.974 L120.922 813.094 Z" fill="#000000" fill-rule="nonzero" fill-opacity="1" /><path clip-path="url(#clip000)" d="M145.992 787.492 Q142.381 787.492 140.552 791.057 Q138.746 794.599 138.746 801.729 Q138.746 808.835 140.552 812.4 Q142.381 815.941 145.992 815.941 Q149.626 815.941 151.431 812.4 Q153.26 808.835 153.26 801.729 Q153.26 794.599 151.431 791.057 Q149.626 787.492 145.992 787.492 M145.992 783.789 Q151.802 783.789 154.857 788.395 Q157.936 792.979 157.936 801.729 Q157.936 810.455 154.857 815.062 Q151.802 819.645 145.992 819.645 Q140.181 819.645 137.103 815.062 Q134.047 810.455 134.047 801.729 Q134.047 792.979 137.103 788.395 Q140.181 783.789 145.992 783.789 Z" fill="#000000" fill-rule="nonzero" fill-opacity="1" /><path clip-path="url(#clip000)" d="M101.756 578.101 Q98.1447 578.101 96.316 581.666 Q94.5104 585.208 94.5104 592.337 Q94.5104 599.444 96.316 603.009 Q98.1447 606.55 101.756 606.55 Q105.39 606.55 107.196 603.009 Q109.024 599.444 109.024 592.337 Q109.024 585.208 107.196 581.666 Q105.39 578.101 101.756 578.101 M101.756 574.398 Q107.566 574.398 110.621 579.004 Q113.7 583.587 113.7 592.337 Q113.7 601.064 110.621 605.671 Q107.566 610.254 101.756 610.254 Q95.9456 610.254 92.8669 605.671 Q89.8114 601.064 89.8114 592.337 Q89.8114 583.587 92.8669 579.004 Q95.9456 574.398 101.756 574.398 Z" fill="#000000" fill-rule="nonzero" fill-opacity="1" /><path clip-path="url(#clip000)" d="M121.918 603.703 L126.802 603.703 L126.802 609.583 L121.918 609.583 L121.918 603.703 Z" fill="#000000" fill-rule="nonzero" fill-opacity="1" /><path clip-path="url(#clip000)" d="M137.033 575.023 L155.39 575.023 L155.39 578.958 L141.316 578.958 L141.316 587.43 Q142.334 587.083 143.353 586.921 Q144.371 586.735 145.39 586.735 Q151.177 586.735 154.556 589.907 Q157.936 593.078 157.936 598.495 Q157.936 604.073 154.464 607.175 Q150.992 610.254 144.672 610.254 Q142.496 610.254 140.228 609.883 Q137.982 609.513 135.575 608.772 L135.575 604.073 Q137.658 605.208 139.881 605.763 Q142.103 606.319 144.58 606.319 Q148.584 606.319 150.922 604.212 Q153.26 602.106 153.26 598.495 Q153.26 594.884 150.922 592.777 Q148.584 590.671 144.58 590.671 Q142.705 590.671 140.83 591.087 Q138.978 591.504 137.033 592.384 L137.033 575.023 Z" fill="#000000" fill-rule="nonzero" fill-opacity="1" /><path clip-path="url(#clip000)" d="M91.5706 396.256 L99.2095 396.256 L99.2095 369.891 L90.8993 371.557 L90.8993 367.298 L99.1632 365.631 L103.839 365.631 L103.839 396.256 L111.478 396.256 L111.478 400.191 L91.5706 400.191 L91.5706 396.256 Z" fill="#000000" fill-rule="nonzero" fill-opacity="1" /><path clip-path="url(#clip000)" d="M120.922 394.312 L125.807 394.312 L125.807 400.191 L120.922 400.191 L120.922 394.312 Z" fill="#000000" fill-rule="nonzero" fill-opacity="1" /><path clip-path="url(#clip000)" d="M145.992 368.71 Q142.381 368.71 140.552 372.275 Q138.746 375.816 138.746 382.946 Q138.746 390.053 140.552 393.617 Q142.381 397.159 145.992 397.159 Q149.626 397.159 151.431 393.617 Q153.26 390.053 153.26 382.946 Q153.26 375.816 151.431 372.275 Q149.626 368.71 145.992 368.71 M145.992 365.006 Q151.802 365.006 154.857 369.613 Q157.936 374.196 157.936 382.946 Q157.936 391.673 154.857 396.279 Q151.802 400.863 145.992 400.863 Q140.181 400.863 137.103 396.279 Q134.047 391.673 134.047 382.946 Q134.047 374.196 137.103 369.613 Q140.181 365.006 145.992 365.006 Z" fill="#000000" fill-rule="nonzero" fill-opacity="1" /><path clip-path="url(#clip000)" d="M92.566 186.865 L100.205 186.865 L100.205 160.499 L91.8947 162.166 L91.8947 157.907 L100.159 156.24 L104.834 156.24 L104.834 186.865 L112.473 186.865 L112.473 190.8 L92.566 190.8 L92.566 186.865 Z" fill="#000000" fill-rule="nonzero" fill-opacity="1" /><path clip-path="url(#clip000)" d="M121.918 184.921 L126.802 184.921 L126.802 190.8 L121.918 190.8 L121.918 184.921 Z" fill="#000000" fill-rule="nonzero" fill-opacity="1" /><path clip-path="url(#clip000)" d="M137.033 156.24 L155.39 156.24 L155.39 160.175 L141.316 160.175 L141.316 168.647 Q142.334 168.3 143.353 168.138 Q144.371 167.953 145.39 167.953 Q151.177 167.953 154.556 171.124 Q157.936 174.296 157.936 179.712 Q157.936 185.291 154.464 188.393 Q150.992 191.471 144.672 191.471 Q142.496 191.471 140.228 191.101 Q137.982 190.731 135.575 189.99 L135.575 185.291 Q137.658 186.425 139.881 186.981 Q142.103 187.536 144.58 187.536 Q148.584 187.536 150.922 185.43 Q153.26 183.323 153.26 179.712 Q153.26 176.101 150.922 173.995 Q148.584 171.888 144.58 171.888 Q142.705 171.888 140.83 172.305 Q138.978 172.722 137.033 173.601 L137.033 156.24 Z" fill="#000000" fill-rule="nonzero" fill-opacity="1" /><polyline clip-path="url(#clip001)" style="stroke:#009af9; stroke-linecap:round; stroke-linejoin:round; stroke-width:4; stroke-opacity:1; fill:none" points="193.936,801.694 196.097,809.161 198.258,816.529 200.419,823.8 202.58,830.974 204.741,838.053 206.902,845.038 209.063,851.931 211.224,858.732 213.385,865.443 215.546,872.065 217.707,878.599 219.868,885.047 222.029,891.409 224.19,897.687 226.351,903.881 228.512,909.994 230.673,916.025 232.834,921.976 234.995,927.849 237.156,933.644 239.317,939.361 241.478,945.003 243.639,950.571 245.8,956.064 247.961,961.485 250.122,966.833 252.282,972.111 254.443,977.319 256.604,982.458 258.765,987.528 260.926,992.532 263.087,997.469 265.248,1002.34 267.409,1007.15 269.57,1011.89 271.731,1016.57 273.892,1021.19 276.053,1025.75 278.214,1030.24 280.375,1034.68 282.536,1039.06 284.697,1043.38 286.858,1047.64 289.019,1051.85 291.18,1056 293.341,1060.09 295.502,1064.14 297.663,1068.12 299.824,1072.06 301.985,1075.94 304.146,1079.77 306.307,1083.55 308.468,1087.28 310.629,1090.96 312.79,1094.6 314.951,1098.18 317.112,1101.72 319.273,1105.21 321.434,1108.65 323.595,1112.05 325.756,1115.4 327.917,1118.71 330.078,1121.97 332.239,1125.19 334.4,1128.37 336.561,1131.51 338.722,1134.6 340.883,1137.66 343.044,1140.67 345.205,1143.64 347.366,1146.58 349.527,1149.47 351.688,1152.33 353.849,1155.14 356.01,1157.93 358.171,1160.67 360.332,1163.38 362.493,1166.05 364.653,1168.69 366.814,1171.29 368.975,1173.86 371.136,1176.39 373.297,1178.89 375.458,1181.35 377.619,1183.79 379.78,1186.19 381.941,1188.56 384.102,1190.9 386.263,1193.2 388.424,1195.48 390.585,1197.73 392.746,1199.94 394.907,1202.13 397.068,1204.29 399.229,1206.42 401.39,1208.52 403.551,1210.59 405.712,1212.12 407.873,1210.84 410.034,1206.81 412.195,1200.39 414.356,1191.92 416.517,1181.72 418.678,1170.1 420.839,1157.32 423,1143.64 425.161,1129.29 427.322,1114.5 429.483,1099.45 431.644,1084.3 433.805,1069.22 435.966,1054.32 438.127,1039.72 440.288,1025.49 442.449,1011.7 444.61,998.401 446.771,985.601 448.932,973.303 451.093,961.487 453.254,950.108 455.415,939.101 457.576,928.381 459.737,917.841 461.898,907.351 464.059,896.761 466.22,886.032 468.381,875.427 470.542,864.964 472.703,854.638 474.864,844.45 477.024,834.397 479.185,824.477 481.346,814.689 483.507,805.031 485.668,795.5 487.829,786.096 489.99,776.817 492.151,767.66 494.312,758.625 496.473,749.71 498.634,740.913 500.795,732.233 502.956,723.667 505.117,715.215 507.278,706.875 509.439,698.646 511.6,690.525 513.761,682.513 515.922,674.606 518.083,666.805 520.244,659.107 522.405,651.511 524.566,644.015 526.727,636.62 528.888,629.322 531.049,622.121 533.21,615.016 535.371,608.005 537.532,601.087 539.693,594.26 541.854,587.525 544.015,580.878 546.176,574.32 548.337,567.848 550.498,561.463 552.659,555.162 554.82,548.944 556.981,542.809 559.142,536.755 561.303,530.782 563.464,524.887 565.625,519.071 567.786,513.329 569.947,507.543 572.108,501.686 574.269,495.802 576.43,489.933 578.591,484.117 580.752,478.389 582.913,472.781 585.074,467.321 587.235,462.034 589.396,456.942 591.556,452.064 593.717,447.415 595.878,443.006 598.039,438.847 600.2,434.943 602.361,431.295 604.522,427.903 606.683,424.763 608.844,421.865 611.005,419.2 613.166,416.754 615.327,414.507 617.488,412.44 619.649,410.528 621.81,408.744 623.971,407.057 626.132,405.433 628.293,403.835 630.454,402.221 632.615,400.548 634.776,398.814 636.937,397.098 639.098,395.405 641.259,393.735 643.42,392.087 645.581,390.46 647.742,388.855 649.903,387.272 652.064,385.709 654.225,384.167 656.386,382.646 658.547,381.145 660.708,379.663 662.869,378.202 665.03,376.759 667.191,375.336 669.352,373.932 671.513,372.546 673.674,371.179 675.835,369.829 677.996,368.498 680.157,367.184 682.318,365.888 684.479,364.608 686.64,363.345 688.801,362.099 690.962,360.87 693.123,359.656 695.284,358.459 697.445,357.278 699.606,356.112 701.767,354.962 703.927,353.826 706.088,352.706 708.249,351.601 710.41,350.511 712.571,349.435 714.732,348.373 716.893,347.326 719.054,346.292 721.215,345.272 723.376,344.266 725.537,343.273 727.698,342.294 729.859,341.327 732.02,340.373 734.181,339.432 736.342,338.504 738.503,337.588 740.664,336.684 742.825,335.793 744.986,334.913 747.147,334.045 749.308,333.188 751.469,332.343 753.63,331.509 755.791,330.687 757.952,329.875 760.113,329.074 762.274,328.283 764.435,327.504 766.596,326.734 768.757,325.975 770.918,325.226 773.079,324.487 775.24,323.757 777.401,323.037 779.562,322.327 781.723,321.626 783.884,320.935 786.045,320.252 788.206,319.579 790.367,318.914 792.528,318.259 794.689,317.611 796.85,316.973 799.011,316.342 801.172,315.72 803.333,315.107 805.494,314.501 807.655,313.903 809.816,313.313 811.977,312.731 814.138,312.157 816.298,311.59 818.459,311.031 820.62,310.479 822.781,309.935 824.942,309.397 827.103,308.867 829.264,308.344 831.425,307.828 833.586,307.319 835.747,306.816 837.908,306.32 840.069,305.831 842.23,305.595 844.391,307.54 846.552,311.825 848.713,318.157 850.874,326.258 853.035,335.867 855.196,346.739 857.357,358.646 859.518,371.375 861.679,384.732 863.84,398.537 866.001,412.627 868.162,426.857 870.323,441.096 872.484,455.231 874.645,469.165 876.806,482.817 878.967,496.124 881.128,509.036 883.289,521.524 885.45,533.571 887.611,545.18 889.772,556.368 891.933,567.17 894.094,577.636 896.255,587.833 898.416,597.846 900.577,607.773 902.738,617.732 904.899,627.825 907.06,637.854 909.221,647.749 911.382,657.514 913.543,667.149 915.704,676.656 917.865,686.037 920.026,695.294 922.187,704.428 924.348,713.441 926.509,722.334 928.669,731.11 930.83,739.769 932.991,748.313 935.152,756.744 937.313,765.064 939.474,773.273 941.635,781.374 943.796,789.367 945.957,797.254 948.118,805.037 950.279,812.716 952.44,820.294 954.601,827.771 956.762,835.149 958.923,842.429 961.084,849.613 963.245,856.701 965.406,863.695 967.567,870.597 969.728,877.406 971.889,884.126 974.05,890.756 976.211,897.298 978.372,903.754 980.533,910.124 982.694,916.409 984.855,922.612 987.016,928.732 989.177,934.77 991.338,940.729 993.499,946.609 995.66,952.41 997.821,958.135 999.982,963.784 1002.14,969.359 1004.3,974.859 1006.46,980.286 1008.63,985.642 1010.79,990.927 1012.95,996.141 1015.11,1001.29 1017.27,1006.36 1019.43,1011.37 1021.59,1016.32 1023.75,1021.2 1025.91,1026.01 1028.07,1030.76 1030.24,1035.44 1032.4,1040.07 1034.56,1044.63 1036.72,1049.13 1038.88,1053.58 1041.04,1057.96 1043.2,1062.29 1045.36,1066.55 1047.52,1070.77 1049.68,1074.92 1051.85,1079.02 1054.01,1083.07 1056.17,1086.99 1058.33,1090.21 1060.49,1092.66 1062.65,1094.42 1064.81,1095.57 1066.97,1096.19 1069.13,1096.34 1071.29,1096.09 1073.46,1095.51 1075.62,1094.64 1077.78,1093.55 1079.94,1092.28 1082.1,1090.88 1084.26,1089.4 1086.42,1087.85 1088.58,1086.29 1090.74,1084.74 1092.9,1083.22 1095.07,1081.75 1097.23,1080.36 1099.39,1079.06 1101.55,1077.84 1103.71,1076.73 1105.87,1075.72 1108.03,1074.8 1110.19,1073.97 1112.35,1073.22 1114.51,1072.53 1116.67,1071.88 1118.84,1071.25 1121,1070.61 1123.16,1069.94 1125.32,1069.18 1127.48,1068.41 1129.64,1067.64 1131.8,1066.89 1133.96,1066.14 1136.12,1065.41 1138.28,1064.68 1140.45,1063.97 1142.61,1063.26 1144.77,1062.56 1146.93,1061.88 1149.09,1061.2 1151.25,1060.53 1153.41,1059.87 1155.57,1059.22 1157.73,1058.57 1159.89,1057.94 1162.06,1057.31 1164.22,1056.69 1166.38,1056.08 1168.54,1055.48 1170.7,1054.89 1172.86,1054.3 1175.02,1053.73 1177.18,1053.16 1179.34,1052.59 1181.5,1052.04 1183.67,1051.49 1185.83,1050.95 1187.99,1050.41 1190.15,1049.89 1192.31,1049.37 1194.47,1048.86 1196.63,1048.35 1198.79,1047.85 1200.95,1047.36 1203.11,1046.87 1205.28,1046.39 1207.44,1045.92 1209.6,1045.45 1211.76,1044.99 1213.92,1044.54 1216.08,1044.09 1218.24,1043.65 1220.4,1043.21 1222.56,1042.78 1224.72,1042.36 1226.88,1041.94 1229.05,1041.52 1231.21,1041.11 1233.37,1040.71 1235.53,1040.31 1237.69,1039.92 1239.85,1039.53 1242.01,1039.15 1244.17,1038.77 1246.33,1038.4 1248.49,1038.03 1250.66,1037.67 1252.82,1037.32 1254.98,1036.96 1257.14,1036.61 1259.3,1036.28 1261.46,1036.4 1263.62,1036.8 1265.78,1037 1267.94,1036.67 1270.1,1035.58 1272.27,1033.61 1274.43,1030.75 1276.59,1027.12 1278.75,1022.95 1280.91,1018.57 1283.07,1014.41 1285.23,1010.43 1287.39,1006.5 1289.55,1002.62 1291.71,998.794 1293.88,995.019 1296.04,991.295 1298.2,987.619 1300.36,983.993 1302.52,980.414 1304.68,976.883 1306.84,973.398 1309,969.96 1311.16,966.568 1313.32,963.22 1315.49,959.917 1317.65,956.657 1319.81,953.441 1321.97,950.268 1324.13,947.136 1326.29,944.046 1328.45,940.997 1330.61,937.989 1332.77,935.02 1334.93,932.091 1337.09,929.201 1339.26,926.349 1341.42,923.535 1343.58,920.758 1345.74,918.018 1347.9,915.314 1350.06,912.647 1352.22,910.014 1354.38,907.417 1356.54,904.854 1358.7,902.325 1360.87,899.829 1363.03,897.366 1365.19,894.936 1367.35,892.539 1369.51,890.173 1371.67,887.838 1373.83,885.534 1375.99,883.261 1378.15,881.018 1380.31,878.805 1382.48,876.621 1384.64,874.466 1386.8,872.34 1388.96,870.242 1391.12,868.171 1393.28,866.128 1395.44,864.112 1397.6,862.123 1399.76,860.161 1401.92,858.224 1404.09,856.313 1406.25,854.427 1408.41,852.566 1410.57,850.73 1412.73,848.919 1414.89,847.131 1417.05,845.367 1419.21,843.627 1421.37,841.909 1423.53,840.214 1425.7,838.542 1427.86,836.892 1430.02,835.264 1432.18,833.657 1434.34,832.072 1436.5,830.508 1438.66,828.964 1440.82,827.441 1442.98,825.938 1445.14,824.455 1447.3,822.992 1449.47,821.548 1451.63,820.123 1453.79,818.717 1455.95,817.33 1458.11,815.961 1460.27,814.61 1462.43,813.277 1464.59,811.962 1466.75,810.665 1468.91,809.384 1471.08,808.121 1473.24,806.874 1475.4,805.644 1477.56,804.43 1479.72,803.232 1481.88,801.723 1484.04,799.507 1486.2,796.669 1488.36,793.292 1490.52,789.452 1492.69,785.225 1494.85,780.677 1497.01,775.873 1499.17,770.872 1501.33,765.729 1503.49,760.492 1505.65,755.207 1507.81,749.914 1509.97,744.648 1512.13,739.44 1514.3,734.315 1516.46,729.295 1518.62,724.397 1520.78,719.632 1522.94,715.007 1525.1,710.525 1527.26,706.182 1529.42,701.972 1531.58,697.882 1533.74,693.896 1535.91,689.994 1538.07,686.147 1540.23,682.326 1542.39,678.495 1544.55,674.647 1546.71,670.845 1548.87,667.094 1551.03,663.393 1553.19,659.741 1555.35,656.137 1557.51,652.581 1559.68,649.072 1561.84,645.61 1564,642.194 1566.16,638.823 1568.32,635.496 1570.48,632.214 1572.64,628.975 1574.8,625.779 1576.96,622.626 1579.12,619.514 1581.29,616.444 1583.45,613.414 1585.61,610.424 1587.77,607.474 1589.93,604.563 1592.09,601.69 1594.25,598.856 1596.41,596.059 1598.57,593.299 1600.73,590.576 1602.9,587.888 1605.06,585.237 1607.22,582.62 1609.38,580.038 1611.54,577.491 1613.7,574.977 1615.86,572.497 1618.02,570.05 1620.18,567.635 1622.34,565.252 1624.51,562.901 1626.67,560.581 1628.83,558.292 1630.99,556.034 1633.15,553.805 1635.31,551.606 1637.47,549.436 1639.63,547.295 1641.79,545.183 1643.95,543.098 1646.12,541.041 1648.28,539.011 1650.44,537.009 1652.6,535.033 1654.76,533.083 1656.92,531.159 1659.08,529.26 1661.24,527.387 1663.4,525.538 1665.56,523.714 1667.72,521.914 1669.89,520.138 1672.05,518.385 1674.21,516.655 1676.37,514.949 1678.53,513.265 1680.69,511.412 1682.85,509.125 1685.01,506.743 1687.17,504.567 1689.33,502.835 1691.5,501.723 1693.66,501.343 1695.82,501.744 1697.98,502.91 1700.14,504.766 1702.3,507.169 1704.46,509.917 1706.62,512.742 1708.78,515.33 1710.94,517.769 1713.11,520.175 1715.27,522.55 1717.43,524.893 1719.59,527.205 1721.75,529.486 1723.91,531.737 1726.07,533.958 1728.23,536.15 1730.39,538.313 1732.55,540.447 1734.72,542.552 1736.88,544.63 1739.04,546.681 1741.2,548.704 1743.36,550.701 1745.52,552.671 1747.68,554.615 1749.84,556.533 1752,558.426 1754.16,560.293 1756.33,562.136 1758.49,563.954 1760.65,565.748 1762.81,567.519 1764.97,569.266 1767.13,570.989 1769.29,572.69 1771.45,574.368 1773.61,576.024 1775.77,577.658 1777.93,579.27 1780.1,580.861 1782.26,582.431 1784.42,583.98 1786.58,585.508 1788.74,587.016 1790.9,588.504 1793.06,589.972 1795.22,591.421 1797.38,592.851 1799.54,594.261 1801.71,595.653 1803.87,597.027 1806.03,598.382 1808.19,599.72 1810.35,601.039 1812.51,602.341 1814.67,603.626 1816.83,604.894 1818.99,606.146 1821.15,607.38 1823.32,608.598 1825.48,609.801 1827.64,610.987 1829.8,612.157 1831.96,613.312 1834.12,614.452 1836.28,615.577 1838.44,616.686 1840.6,617.781 1842.76,618.862 1844.93,619.928 1847.09,620.98 1849.25,622.017 1851.41,623.042 1853.57,624.052 1855.73,625.05 1857.89,626.034 1860.05,627.004 1862.21,627.963 1864.37,628.908 1866.54,629.841 1868.7,630.761 1870.86,631.669 1873.02,632.566 1875.18,633.45 1877.34,634.323 1879.5,635.184 1881.66,636.033 1883.82,636.872 1885.98,637.699 1888.15,638.515 1890.31,639.329 1892.47,640.285 1894.63,641.359 1896.79,642.462 1898.95,643.517 1901.11,644.457 1903.27,645.23 1905.43,645.795 1907.59,646.123 1909.75,646.198 1911.92,646.014 1914.08,645.579 1916.24,644.914 1918.4,644.05 1920.56,643.03 1922.72,641.912 1924.88,640.764 1927.04,639.666 1929.2,638.676 1931.36,637.711 1933.53,636.759 1935.69,635.819 1937.85,634.892 1940.01,633.977 1942.17,633.075 1944.33,632.184 1946.49,631.305 1948.65,630.438 1950.81,629.582 1952.97,628.738 1955.14,627.905 1957.3,627.083 1959.46,626.271 1961.62,625.471 1963.78,624.681 1965.94,623.901 1968.1,623.132 1970.26,622.373 1972.42,621.624 1974.58,620.885 1976.75,620.156 1978.91,619.436 1981.07,618.726 1983.23,618.026 1985.39,617.335 1987.55,616.652 1989.71,615.979 1991.87,615.315 1994.03,614.66 1996.19,614.014 1998.36,613.376 2000.52,612.746 2002.68,612.125 2004.84,611.512 2007,610.908 2009.16,610.311 2011.32,609.722 2013.48,609.141 2015.64,608.568 2017.8,608.003 2019.96,607.445 2022.13,606.894 2024.29,606.35 2026.45,605.814 2028.61,605.285 2030.77,604.763 2032.93,604.248 2035.09,603.74 2037.25,603.238 2039.41,602.743 2041.57,602.255 2043.74,601.773 2045.9,601.297 2048.06,600.828 2050.22,600.365 2052.38,599.908 2054.54,599.457 2056.7,599.012 2058.86,598.573 2061.02,598.139 2063.18,597.712 2065.35,597.29 2067.51,596.874 2069.67,596.463 2071.83,596.058 2073.99,595.658 2076.15,595.263 2078.31,594.874 2080.47,594.49 2082.63,594.111 2084.79,593.737 2086.96,593.367 2089.12,593.003 2091.28,592.644 2093.44,592.289 2095.6,591.939 2097.76,591.594 2099.92,591.253 2102.08,590.917 2104.24,590.586 2106.4,590.258 2108.57,589.935 2110.73,589.617 2112.89,589.302 2115.05,588.992 2117.21,588.686 2119.37,588.384 2121.53,588.085 2123.69,587.791 2125.85,587.501 2128.01,587.221 2130.17,587.468 2132.34,588.497 2134.5,590.217 2136.66,592.541 2138.82,595.389 2140.98,598.682 2143.14,602.35 2145.3,606.324 2147.46,610.542 2149.62,614.945 2151.78,619.482 2153.95,624.102 2156.11,628.762 2158.27,633.423 2160.43,638.051 2162.59,642.616 2164.75,647.093 2166.91,651.462 2169.07,655.707 2171.23,659.818 2173.39,663.788 2175.56,667.616 2177.72,671.306 2179.88,674.865 2182.04,678.307 2184.2,681.648 2186.36,684.912 2188.52,688.126 2190.68,691.32 2192.84,694.531 2195,697.785 2197.17,701.01 2199.33,704.192 2201.49,707.333 2203.65,710.431 2205.81,713.489 2207.97,716.506 2210.13,719.483 2212.29,722.42 2214.45,725.319 2216.61,728.179 2218.78,731.001 2220.94,733.786 2223.1,736.534 2225.26,739.245 2227.42,741.92 2229.58,744.56 2231.74,747.165 2233.9,749.736 2236.06,752.272 2238.22,754.775 2240.38,757.245 2242.55,759.682 2244.71,762.087 2246.87,764.46 2249.03,766.802 2251.19,769.112 2253.35,771.392 2255.51,773.641 2257.67,775.861 2259.83,778.051 2261.99,780.213 2264.16,782.345 2266.32,784.449 2268.48,786.526 2270.64,788.574 2272.8,790.596 2274.96,792.59 2277.12,794.559 2279.28,796.501 2281.44,798.417 2283.6,800.308 2285.77,802.173 2287.93,804.014 2290.09,805.831 2292.25,807.623 2294.41,809.392 2296.57,811.137 2298.73,812.859 2300.89,814.559 2303.05,816.235 2305.21,817.89 2307.38,819.522 2309.54,821.133 2311.7,822.723 2313.86,824.292 2316.02,825.839 2318.18,827.367 2320.34,828.874 2322.5,830.361 2324.66,831.828 2326.82,833.276 2328.99,834.705 2331.15,836.115 2333.31,837.506 2335.47,838.879 2337.63,840.233 2339.79,841.57 2341.95,842.889 2344.11,844.19 2346.27,845.474 2348.43,846.741 2350.59,847.992 2352.76,849.225 "/>
<polyline clip-path="url(#clip001)" style="stroke:#e26f46; stroke-linecap:round; stroke-linejoin:round; stroke-width:4; stroke-opacity:1; fill:none" points="193.936,1364.92 196.097,1364.92 198.258,1364.92 200.419,1364.92 202.58,1364.92 204.741,1364.92 206.902,1364.92 209.063,1364.92 211.224,1364.92 213.385,1364.92 215.546,1364.92 217.707,1364.92 219.868,1364.92 222.029,1364.92 224.19,1364.92 226.351,1364.92 228.512,1364.92 230.673,1364.92 232.834,1364.92 234.995,1364.92 237.156,1364.92 239.317,1364.92 241.478,1364.92 243.639,1364.92 245.8,1364.92 247.961,1364.92 250.122,1364.92 252.282,1364.92 254.443,1364.92 256.604,1364.92 258.765,1364.92 260.926,1364.92 263.087,1364.92 265.248,1364.92 267.409,1364.92 269.57,1364.92 271.731,1364.92 273.892,1364.92 276.053,1364.92 278.214,1364.92 280.375,1364.92 282.536,1364.92 284.697,1364.92 286.858,1364.92 289.019,1364.92 291.18,1364.92 293.341,1364.92 295.502,1364.92 297.663,1364.92 299.824,1364.92 301.985,1364.92 304.146,1364.92 306.307,1364.92 308.468,1364.92 310.629,1364.92 312.79,1364.92 314.951,1364.92 317.112,1364.92 319.273,1364.92 321.434,1364.92 323.595,1364.92 325.756,1364.92 327.917,1364.92 330.078,1364.92 332.239,1364.92 334.4,1364.92 336.561,1364.92 338.722,1364.92 340.883,1364.92 343.044,1364.92 345.205,1364.92 347.366,1364.92 349.527,1364.92 351.688,1364.92 353.849,1364.92 356.01,1364.92 358.171,1364.92 360.332,1364.92 362.493,1364.92 364.653,1364.92 366.814,1364.92 368.975,1364.92 371.136,1364.92 373.297,1364.92 375.458,1364.92 377.619,1364.92 379.78,1364.92 381.941,1364.92 384.102,1364.92 386.263,1364.92 388.424,1364.92 390.585,1364.92 392.746,1364.92 394.907,1364.92 397.068,1364.92 399.229,1364.92 401.39,1364.92 403.551,1364.92 405.712,1364.92 407.873,1364.92 410.034,86.1857 412.195,86.1857 414.356,86.1857 416.517,86.1857 418.678,86.1857 420.839,86.1857 423,86.1857 425.161,86.1857 427.322,86.1857 429.483,86.1857 431.644,86.1857 433.805,86.1857 435.966,86.1857 438.127,86.1857 440.288,86.1857 442.449,86.1857 444.61,86.1857 446.771,86.1857 448.932,86.1857 451.093,86.1857 453.254,86.1857 455.415,86.1857 457.576,86.1857 459.737,86.1857 461.898,86.1857 464.059,86.1857 466.22,86.1857 468.381,86.1857 470.542,86.1857 472.703,86.1857 474.864,86.1857 477.024,86.1857 479.185,86.1857 481.346,86.1857 483.507,86.1857 485.668,86.1857 487.829,86.1857 489.99,86.1857 492.151,86.1857 494.312,86.1857 496.473,86.1857 498.634,86.1857 500.795,86.1857 502.956,86.1857 505.117,86.1857 507.278,86.1857 509.439,86.1857 511.6,86.1857 513.761,86.1857 515.922,86.1857 518.083,86.1857 520.244,86.1857 522.405,86.1857 524.566,86.1857 526.727,86.1857 528.888,86.1857 531.049,86.1857 533.21,86.1857 535.371,86.1857 537.532,86.1857 539.693,86.1857 541.854,86.1857 544.015,86.1857 546.176,86.1857 548.337,86.1857 550.498,86.1857 552.659,86.1857 554.82,86.1857 556.981,86.1857 559.142,86.1857 561.303,86.1857 563.464,86.1857 565.625,86.1857 567.786,86.1857 569.947,86.1857 572.108,86.1857 574.269,86.1857 576.43,86.1857 578.591,86.1857 580.752,86.1857 582.913,86.1857 585.074,86.1857 587.235,86.1857 589.396,86.1857 591.556,86.1857 593.717,86.1857 595.878,86.1857 598.039,86.1857 600.2,86.1857 602.361,86.1857 604.522,86.1857 606.683,86.1857 608.844,86.1857 611.005,86.1857 613.166,86.1857 615.327,86.1857 617.488,86.1857 619.649,86.1857 621.81,86.1857 623.971,86.1857 626.132,269.412 628.293,269.412 630.454,269.412 632.615,269.412 634.776,269.412 636.937,269.412 639.098,269.412 641.259,269.412 643.42,269.412 645.581,269.412 647.742,269.412 649.903,269.412 652.064,269.412 654.225,269.412 656.386,269.412 658.547,269.412 660.708,269.412 662.869,269.412 665.03,269.412 667.191,269.412 669.352,269.412 671.513,269.412 673.674,269.412 675.835,269.412 677.996,269.412 680.157,269.412 682.318,269.412 684.479,269.412 686.64,269.412 688.801,269.412 690.962,269.412 693.123,269.412 695.284,269.412 697.445,269.412 699.606,269.412 701.767,269.412 703.927,269.412 706.088,269.412 708.249,269.412 710.41,269.412 712.571,269.412 714.732,269.412 716.893,269.412 719.054,269.412 721.215,269.412 723.376,269.412 725.537,269.412 727.698,269.412 729.859,269.412 732.02,269.412 734.181,269.412 736.342,269.412 738.503,269.412 740.664,269.412 742.825,269.412 744.986,269.412 747.147,269.412 749.308,269.412 751.469,269.412 753.63,269.412 755.791,269.412 757.952,269.412 760.113,269.412 762.274,269.412 764.435,269.412 766.596,269.412 768.757,269.412 770.918,269.412 773.079,269.412 775.24,269.412 777.401,269.412 779.562,269.412 781.723,269.412 783.884,269.412 786.045,269.412 788.206,269.412 790.367,269.412 792.528,269.412 794.689,269.412 796.85,269.412 799.011,269.412 801.172,269.412 803.333,269.412 805.494,269.412 807.655,269.412 809.816,269.412 811.977,269.412 814.138,269.412 816.298,269.412 818.459,269.412 820.62,269.412 822.781,269.412 824.942,269.412 827.103,269.412 829.264,269.412 831.425,269.412 833.586,269.412 835.747,269.412 837.908,269.412 840.069,269.412 842.23,1384.24 844.391,1384.24 846.552,1384.24 848.713,1384.24 850.874,1384.24 853.035,1384.24 855.196,1384.24 857.357,1384.24 859.518,1384.24 861.679,1384.24 863.84,1384.24 866.001,1384.24 868.162,1384.24 870.323,1384.24 872.484,1384.24 874.645,1384.24 876.806,1384.24 878.967,1384.24 881.128,1384.24 883.289,1384.24 885.45,1384.24 887.611,1384.24 889.772,1384.24 891.933,1384.24 894.094,1384.24 896.255,1384.24 898.416,1384.24 900.577,1384.24 902.738,1384.24 904.899,1384.24 907.06,1384.24 909.221,1384.24 911.382,1384.24 913.543,1384.24 915.704,1384.24 917.865,1384.24 920.026,1384.24 922.187,1384.24 924.348,1384.24 926.509,1384.24 928.669,1384.24 930.83,1384.24 932.991,1384.24 935.152,1384.24 937.313,1384.24 939.474,1384.24 941.635,1384.24 943.796,1384.24 945.957,1384.24 948.118,1384.24 950.279,1384.24 952.44,1384.24 954.601,1384.24 956.762,1384.24 958.923,1384.24 961.084,1384.24 963.245,1384.24 965.406,1384.24 967.567,1384.24 969.728,1384.24 971.889,1384.24 974.05,1384.24 976.211,1384.24 978.372,1384.24 980.533,1384.24 982.694,1384.24 984.855,1384.24 987.016,1384.24 989.177,1384.24 991.338,1384.24 993.499,1384.24 995.66,1384.24 997.821,1384.24 999.982,1384.24 1002.14,1384.24 1004.3,1384.24 1006.46,1384.24 1008.63,1384.24 1010.79,1384.24 1012.95,1384.24 1015.11,1384.24 1017.27,1384.24 1019.43,1384.24 1021.59,1384.24 1023.75,1384.24 1025.91,1384.24 1028.07,1384.24 1030.24,1384.24 1032.4,1384.24 1034.56,1384.24 1036.72,1384.24 1038.88,1384.24 1041.04,1384.24 1043.2,1384.24 1045.36,1384.24 1047.52,1384.24 1049.68,1384.24 1051.85,1384.24 1054.01,1384.24 1056.17,1384.24 1058.33,1010.71 1060.49,1010.71 1062.65,1010.71 1064.81,1010.71 1066.97,1010.71 1069.13,1010.71 1071.29,1010.71 1073.46,1010.71 1075.62,1010.71 1077.78,1010.71 1079.94,1010.71 1082.1,1010.71 1084.26,1010.71 1086.42,1010.71 1088.58,1010.71 1090.74,1010.71 1092.9,1010.71 1095.07,1010.71 1097.23,1010.71 1099.39,1010.71 1101.55,1010.71 1103.71,1010.71 1105.87,1010.71 1108.03,1010.71 1110.19,1010.71 1112.35,1010.71 1114.51,1010.71 1116.67,1010.71 1118.84,1010.71 1121,1010.71 1123.16,1010.71 1125.32,1010.71 1127.48,1010.71 1129.64,1010.71 1131.8,1010.71 1133.96,1010.71 1136.12,1010.71 1138.28,1010.71 1140.45,1010.71 1142.61,1010.71 1144.77,1010.71 1146.93,1010.71 1149.09,1010.71 1151.25,1010.71 1153.41,1010.71 1155.57,1010.71 1157.73,1010.71 1159.89,1010.71 1162.06,1010.71 1164.22,1010.71 1166.38,1010.71 1168.54,1010.71 1170.7,1010.71 1172.86,1010.71 1175.02,1010.71 1177.18,1010.71 1179.34,1010.71 1181.5,1010.71 1183.67,1010.71 1185.83,1010.71 1187.99,1010.71 1190.15,1010.71 1192.31,1010.71 1194.47,1010.71 1196.63,1010.71 1198.79,1010.71 1200.95,1010.71 1203.11,1010.71 1205.28,1010.71 1207.44,1010.71 1209.6,1010.71 1211.76,1010.71 1213.92,1010.71 1216.08,1010.71 1218.24,1010.71 1220.4,1010.71 1222.56,1010.71 1224.72,1010.71 1226.88,1010.71 1229.05,1010.71 1231.21,1010.71 1233.37,1010.71 1235.53,1010.71 1237.69,1010.71 1239.85,1010.71 1242.01,1010.71 1244.17,1010.71 1246.33,1010.71 1248.49,1010.71 1250.66,1010.71 1252.82,1010.71 1254.98,1010.71 1257.14,1010.71 1259.3,1010.71 1261.46,1010.71 1263.62,1010.71 1265.78,1010.71 1267.94,1010.71 1270.1,1010.71 1272.27,1010.71 1274.43,714.082 1276.59,714.082 1278.75,714.082 1280.91,714.082 1283.07,714.082 1285.23,714.082 1287.39,714.082 1289.55,714.082 1291.71,714.082 1293.88,714.082 1296.04,714.082 1298.2,714.082 1300.36,714.082 1302.52,714.082 1304.68,714.082 1306.84,714.082 1309,714.082 1311.16,714.082 1313.32,714.082 1315.49,714.082 1317.65,714.082 1319.81,714.082 1321.97,714.082 1324.13,714.082 1326.29,714.082 1328.45,714.082 1330.61,714.082 1332.77,714.082 1334.93,714.082 1337.09,714.082 1339.26,714.082 1341.42,714.082 1343.58,714.082 1345.74,714.082 1347.9,714.082 1350.06,714.082 1352.22,714.082 1354.38,714.082 1356.54,714.082 1358.7,714.082 1360.87,714.082 1363.03,714.082 1365.19,714.082 1367.35,714.082 1369.51,714.082 1371.67,714.082 1373.83,714.082 1375.99,714.082 1378.15,714.082 1380.31,714.082 1382.48,714.082 1384.64,714.082 1386.8,714.082 1388.96,714.082 1391.12,714.082 1393.28,714.082 1395.44,714.082 1397.6,714.082 1399.76,714.082 1401.92,714.082 1404.09,714.082 1406.25,714.082 1408.41,714.082 1410.57,714.082 1412.73,714.082 1414.89,714.082 1417.05,714.082 1419.21,714.082 1421.37,714.082 1423.53,714.082 1425.7,714.082 1427.86,714.082 1430.02,714.082 1432.18,714.082 1434.34,714.082 1436.5,714.082 1438.66,714.082 1440.82,714.082 1442.98,714.082 1445.14,714.082 1447.3,714.082 1449.47,714.082 1451.63,714.082 1453.79,714.082 1455.95,714.082 1458.11,714.082 1460.27,714.082 1462.43,714.082 1464.59,714.082 1466.75,714.082 1468.91,714.082 1471.08,714.082 1473.24,714.082 1475.4,714.082 1477.56,714.082 1479.72,714.082 1481.88,714.082 1484.04,714.082 1486.2,714.082 1488.36,714.082 1490.52,387.925 1492.69,387.925 1494.85,387.925 1497.01,387.925 1499.17,387.925 1501.33,387.925 1503.49,387.925 1505.65,387.925 1507.81,387.925 1509.97,387.925 1512.13,387.925 1514.3,387.925 1516.46,387.925 1518.62,387.925 1520.78,387.925 1522.94,387.925 1525.1,387.925 1527.26,387.925 1529.42,387.925 1531.58,387.925 1533.74,387.925 1535.91,387.925 1538.07,387.925 1540.23,387.925 1542.39,387.925 1544.55,387.925 1546.71,387.925 1548.87,387.925 1551.03,387.925 1553.19,387.925 1555.35,387.925 1557.51,387.925 1559.68,387.925 1561.84,387.925 1564,387.925 1566.16,387.925 1568.32,387.925 1570.48,387.925 1572.64,387.925 1574.8,387.925 1576.96,387.925 1579.12,387.925 1581.29,387.925 1583.45,387.925 1585.61,387.925 1587.77,387.925 1589.93,387.925 1592.09,387.925 1594.25,387.925 1596.41,387.925 1598.57,387.925 1600.73,387.925 1602.9,387.925 1605.06,387.925 1607.22,387.925 1609.38,387.925 1611.54,387.925 1613.7,387.925 1615.86,387.925 1618.02,387.925 1620.18,387.925 1622.34,387.925 1624.51,387.925 1626.67,387.925 1628.83,387.925 1630.99,387.925 1633.15,387.925 1635.31,387.925 1637.47,387.925 1639.63,387.925 1641.79,387.925 1643.95,387.925 1646.12,387.925 1648.28,387.925 1650.44,387.925 1652.6,387.925 1654.76,387.925 1656.92,387.925 1659.08,387.925 1661.24,387.925 1663.4,387.925 1665.56,387.925 1667.72,387.925 1669.89,387.925 1672.05,387.925 1674.21,387.925 1676.37,387.925 1678.53,387.925 1680.69,387.925 1682.85,387.925 1685.01,387.925 1687.17,387.925 1689.33,387.925 1691.5,387.925 1693.66,387.925 1695.82,387.925 1697.98,387.925 1700.14,387.925 1702.3,387.925 1704.46,387.925 1706.62,699.27 1708.78,699.27 1710.94,699.27 1713.11,699.27 1715.27,699.27 1717.43,699.27 1719.59,699.27 1721.75,699.27 1723.91,699.27 1726.07,699.27 1728.23,699.27 1730.39,699.27 1732.55,699.27 1734.72,699.27 1736.88,699.27 1739.04,699.27 1741.2,699.27 1743.36,699.27 1745.52,699.27 1747.68,699.27 1749.84,699.27 1752,699.27 1754.16,699.27 1756.33,699.27 1758.49,699.27 1760.65,699.27 1762.81,699.27 1764.97,699.27 1767.13,699.27 1769.29,699.27 1771.45,699.27 1773.61,699.27 1775.77,699.27 1777.93,699.27 1780.1,699.27 1782.26,699.27 1784.42,699.27 1786.58,699.27 1788.74,699.27 1790.9,699.27 1793.06,699.27 1795.22,699.27 1797.38,699.27 1799.54,699.27 1801.71,699.27 1803.87,699.27 1806.03,699.27 1808.19,699.27 1810.35,699.27 1812.51,699.27 1814.67,699.27 1816.83,699.27 1818.99,699.27 1821.15,699.27 1823.32,699.27 1825.48,699.27 1827.64,699.27 1829.8,699.27 1831.96,699.27 1834.12,699.27 1836.28,699.27 1838.44,699.27 1840.6,699.27 1842.76,699.27 1844.93,699.27 1847.09,699.27 1849.25,699.27 1851.41,699.27 1853.57,699.27 1855.73,699.27 1857.89,699.27 1860.05,699.27 1862.21,699.27 1864.37,699.27 1866.54,699.27 1868.7,699.27 1870.86,699.27 1873.02,699.27 1875.18,699.27 1877.34,699.27 1879.5,699.27 1881.66,699.27 1883.82,699.27 1885.98,699.27 1888.15,699.27 1890.31,699.27 1892.47,699.27 1894.63,699.27 1896.79,699.27 1898.95,699.27 1901.11,699.27 1903.27,699.27 1905.43,699.27 1907.59,699.27 1909.75,699.27 1911.92,699.27 1914.08,699.27 1916.24,699.27 1918.4,699.27 1920.56,699.27 1922.72,565.897 1924.88,565.897 1927.04,565.897 1929.2,565.897 1931.36,565.897 1933.53,565.897 1935.69,565.897 1937.85,565.897 1940.01,565.897 1942.17,565.897 1944.33,565.897 1946.49,565.897 1948.65,565.897 1950.81,565.897 1952.97,565.897 1955.14,565.897 1957.3,565.897 1959.46,565.897 1961.62,565.897 1963.78,565.897 1965.94,565.897 1968.1,565.897 1970.26,565.897 1972.42,565.897 1974.58,565.897 1976.75,565.897 1978.91,565.897 1981.07,565.897 1983.23,565.897 1985.39,565.897 1987.55,565.897 1989.71,565.897 1991.87,565.897 1994.03,565.897 1996.19,565.897 1998.36,565.897 2000.52,565.897 2002.68,565.897 2004.84,565.897 2007,565.897 2009.16,565.897 2011.32,565.897 2013.48,565.897 2015.64,565.897 2017.8,565.897 2019.96,565.897 2022.13,565.897 2024.29,565.897 2026.45,565.897 2028.61,565.897 2030.77,565.897 2032.93,565.897 2035.09,565.897 2037.25,565.897 2039.41,565.897 2041.57,565.897 2043.74,565.897 2045.9,565.897 2048.06,565.897 2050.22,565.897 2052.38,565.897 2054.54,565.897 2056.7,565.897 2058.86,565.897 2061.02,565.897 2063.18,565.897 2065.35,565.897 2067.51,565.897 2069.67,565.897 2071.83,565.897 2073.99,565.897 2076.15,565.897 2078.31,565.897 2080.47,565.897 2082.63,565.897 2084.79,565.897 2086.96,565.897 2089.12,565.897 2091.28,565.897 2093.44,565.897 2095.6,565.897 2097.76,565.897 2099.92,565.897 2102.08,565.897 2104.24,565.897 2106.4,565.897 2108.57,565.897 2110.73,565.897 2112.89,565.897 2115.05,565.897 2117.21,565.897 2119.37,565.897 2121.53,565.897 2123.69,565.897 2125.85,565.897 2128.01,565.897 2130.17,565.897 2132.34,565.897 2134.5,565.897 2136.66,565.897 2138.82,941.046 2140.98,941.046 2143.14,941.046 2145.3,941.046 2147.46,941.046 2149.62,941.046 2151.78,941.046 2153.95,941.046 2156.11,941.046 2158.27,941.046 2160.43,941.046 2162.59,941.046 2164.75,941.046 2166.91,941.046 2169.07,941.046 2171.23,941.046 2173.39,941.046 2175.56,941.046 2177.72,941.046 2179.88,941.046 2182.04,941.046 2184.2,941.046 2186.36,941.046 2188.52,941.046 2190.68,941.046 2192.84,941.046 2195,941.046 2197.17,941.046 2199.33,941.046 2201.49,941.046 2203.65,941.046 2205.81,941.046 2207.97,941.046 2210.13,941.046 2212.29,941.046 2214.45,941.046 2216.61,941.046 2218.78,941.046 2220.94,941.046 2223.1,941.046 2225.26,941.046 2227.42,941.046 2229.58,941.046 2231.74,941.046 2233.9,941.046 2236.06,941.046 2238.22,941.046 2240.38,941.046 2242.55,941.046 2244.71,941.046 2246.87,941.046 2249.03,941.046 2251.19,941.046 2253.35,941.046 2255.51,941.046 2257.67,941.046 2259.83,941.046 2261.99,941.046 2264.16,941.046 2266.32,941.046 2268.48,941.046 2270.64,941.046 2272.8,941.046 2274.96,941.046 2277.12,941.046 2279.28,941.046 2281.44,941.046 2283.6,941.046 2285.77,941.046 2287.93,941.046 2290.09,941.046 2292.25,941.046 2294.41,941.046 2296.57,941.046 2298.73,941.046 2300.89,941.046 2303.05,941.046 2305.21,941.046 2307.38,941.046 2309.54,941.046 2311.7,941.046 2313.86,941.046 2316.02,941.046 2318.18,941.046 2320.34,941.046 2322.5,941.046 2324.66,941.046 2326.82,941.046 2328.99,941.046 2331.15,941.046 2333.31,941.046 2335.47,941.046 2337.63,941.046 2339.79,941.046 2341.95,941.046 2344.11,941.046 2346.27,941.046 2348.43,941.046 2350.59,941.046 2352.76,941.046 "/>
<path clip-path="url(#clip000)" d="M2039.77 248.629 L2280.8 248.629 L2280.8 93.1086 L2039.77 93.1086  Z" fill="#ffffff" fill-rule="evenodd" fill-opacity="1"/>
<polyline clip-path="url(#clip000)" style="stroke:#000000; stroke-linecap:round; stroke-linejoin:round; stroke-width:4; stroke-opacity:1; fill:none" points="2039.77,248.629 2280.8,248.629 2280.8,93.1086 2039.77,93.1086 2039.77,248.629 "/>
<polyline clip-path="url(#clip000)" style="stroke:#009af9; stroke-linecap:round; stroke-linejoin:round; stroke-width:4; stroke-opacity:1; fill:none" points="2063.76,144.949 2207.68,144.949 "/>
<path clip-path="url(#clip000)" d="M2256.32 136.303 L2246.95 148.919 L2256.81 162.229 L2251.79 162.229 L2244.24 152.043 L2236.69 162.229 L2231.67 162.229 L2241.74 148.664 L2232.53 136.303 L2237.55 136.303 L2244.42 145.539 L2251.3 136.303 L2256.32 136.303 Z" fill="#000000" fill-rule="nonzero" fill-opacity="1" /><polyline clip-path="url(#clip000)" style="stroke:#e26f46; stroke-linecap:round; stroke-linejoin:round; stroke-width:4; stroke-opacity:1; fill:none" points="2063.76,196.789 2207.68,196.789 "/>
<path clip-path="url(#clip000)" d="M2248.17 178.05 L2248.17 181.592 L2244.1 181.592 Q2241.81 181.592 2240.91 182.518 Q2240.03 183.444 2240.03 185.851 L2240.03 188.143 L2247.04 188.143 L2247.04 191.453 L2240.03 191.453 L2240.03 214.069 L2235.74 214.069 L2235.74 191.453 L2231.67 191.453 L2231.67 188.143 L2235.74 188.143 L2235.74 186.337 Q2235.74 182.009 2237.76 180.041 Q2239.77 178.05 2244.15 178.05 L2248.17 178.05 Z" fill="#000000" fill-rule="nonzero" fill-opacity="1" /></svg>
