<?xml version="1.0" encoding="utf-8"?>
<svg xmlns="http://www.w3.org/2000/svg" xmlns:xlink="http://www.w3.org/1999/xlink" width="600" height="400" viewBox="0 0 2400 1600">
<defs>
  <clipPath id="clip660">
    <rect x="0" y="0" width="2400" height="1600"/>
  </clipPath>
</defs>
<path clip-path="url(#clip660)" d="M0 1600 L2400 1600 L2400 0 L0 0  Z" fill="#ffffff" fill-rule="evenodd" fill-opacity="1"/>
<defs>
  <clipPath id="clip661">
    <rect x="138" y="47" width="2215" height="1440"/>
  </clipPath>
</defs>
<path clip-path="url(#clip661)" d="M-412.755 2364.26 L-412.755 2122.52 L-153.413 2001.65 L295.78 2071.44 L295.78 2313.17 L36.4382 2434.04 L-412.755 2364.26  Z" fill="#ffffff" fill-rule="evenodd" fill-opacity="1"/>
<polyline clip-path="url(#clip661)" style="stroke:#000000; stroke-linecap:round; stroke-linejoin:round; stroke-width:2; stroke-opacity:0.1; fill:none" points="726.443,1216.57 1141.91,856.771 1141.91,137.169 "/>
<polyline clip-path="url(#clip661)" style="stroke:#000000; stroke-linecap:round; stroke-linejoin:round; stroke-width:2; stroke-opacity:0.1; fill:none" points="838.741,1248.99 1254.2,889.189 1254.2,169.587 "/>
<polyline clip-path="url(#clip661)" style="stroke:#000000; stroke-linecap:round; stroke-linejoin:round; stroke-width:2; stroke-opacity:0.1; fill:none" points="951.04,1281.41 1366.5,921.607 1366.5,202.005 "/>
<polyline clip-path="url(#clip661)" style="stroke:#000000; stroke-linecap:round; stroke-linejoin:round; stroke-width:2; stroke-opacity:0.1; fill:none" points="1063.34,1313.83 1478.8,954.024 1478.8,234.423 "/>
<polyline clip-path="url(#clip661)" style="stroke:#000000; stroke-linecap:round; stroke-linejoin:round; stroke-width:2; stroke-opacity:0.1; fill:none" points="1175.64,1346.24 1591.1,986.442 1591.1,266.84 "/>
<polyline clip-path="url(#clip661)" style="stroke:#000000; stroke-linecap:round; stroke-linejoin:round; stroke-width:2; stroke-opacity:0.1; fill:none" points="1287.93,1378.66 1703.4,1018.86 1703.4,299.258 "/>
<polyline clip-path="url(#clip661)" style="stroke:#000000; stroke-linecap:round; stroke-linejoin:round; stroke-width:2; stroke-opacity:0.1; fill:none" points="1465.92,1351.53 746.32,1143.8 746.32,424.195 "/>
<polyline clip-path="url(#clip661)" style="stroke:#000000; stroke-linecap:round; stroke-linejoin:round; stroke-width:2; stroke-opacity:0.1; fill:none" points="1535.71,1291.09 816.103,1083.36 816.103,363.761 "/>
<polyline clip-path="url(#clip661)" style="stroke:#000000; stroke-linecap:round; stroke-linejoin:round; stroke-width:2; stroke-opacity:0.1; fill:none" points="1605.49,1230.66 885.886,1022.93 885.886,303.327 "/>
<polyline clip-path="url(#clip661)" style="stroke:#000000; stroke-linecap:round; stroke-linejoin:round; stroke-width:2; stroke-opacity:0.1; fill:none" points="1675.27,1170.23 955.669,962.495 955.669,242.893 "/>
<polyline clip-path="url(#clip661)" style="stroke:#000000; stroke-linecap:round; stroke-linejoin:round; stroke-width:2; stroke-opacity:0.1; fill:none" points="1745.05,1109.79 1025.45,902.062 1025.45,182.46 "/>
<polyline clip-path="url(#clip661)" style="stroke:#000000; stroke-linecap:round; stroke-linejoin:round; stroke-width:2; stroke-opacity:0.1; fill:none" points="678.326,1083.45 1093.79,723.644 1813.39,931.376 "/>
<polyline clip-path="url(#clip661)" style="stroke:#000000; stroke-linecap:round; stroke-linejoin:round; stroke-width:2; stroke-opacity:0.1; fill:none" points="678.326,890.376 1093.79,530.575 1813.39,738.306 "/>
<polyline clip-path="url(#clip661)" style="stroke:#000000; stroke-linecap:round; stroke-linejoin:round; stroke-width:2; stroke-opacity:0.1; fill:none" points="678.326,697.306 1093.79,337.505 1813.39,545.236 "/>
<polyline clip-path="url(#clip661)" style="stroke:#000000; stroke-linecap:round; stroke-linejoin:round; stroke-width:2; stroke-opacity:0.1; fill:none" points="678.326,504.236 1093.79,144.435 1813.39,352.166 "/>
<polyline clip-path="url(#clip660)" style="stroke:#000000; stroke-linecap:round; stroke-linejoin:round; stroke-width:4; stroke-opacity:1; fill:none" points="678.326,1202.68 1397.93,1410.41 "/>
<polyline clip-path="url(#clip660)" style="stroke:#000000; stroke-linecap:round; stroke-linejoin:round; stroke-width:4; stroke-opacity:1; fill:none" points="726.443,1216.57 731.429,1212.25 "/>
<polyline clip-path="url(#clip660)" style="stroke:#000000; stroke-linecap:round; stroke-linejoin:round; stroke-width:4; stroke-opacity:1; fill:none" points="838.741,1248.99 843.727,1244.67 "/>
<polyline clip-path="url(#clip660)" style="stroke:#000000; stroke-linecap:round; stroke-linejoin:round; stroke-width:4; stroke-opacity:1; fill:none" points="951.04,1281.41 956.025,1277.09 "/>
<polyline clip-path="url(#clip660)" style="stroke:#000000; stroke-linecap:round; stroke-linejoin:round; stroke-width:4; stroke-opacity:1; fill:none" points="1063.34,1313.83 1068.32,1309.51 "/>
<polyline clip-path="url(#clip660)" style="stroke:#000000; stroke-linecap:round; stroke-linejoin:round; stroke-width:4; stroke-opacity:1; fill:none" points="1175.64,1346.24 1180.62,1341.93 "/>
<polyline clip-path="url(#clip660)" style="stroke:#000000; stroke-linecap:round; stroke-linejoin:round; stroke-width:4; stroke-opacity:1; fill:none" points="1287.93,1378.66 1292.92,1374.34 "/>
<path clip-path="url(#clip660)" d="M665.842 1230.83 Q662.231 1230.83 660.402 1234.39 Q658.596 1237.94 658.596 1245.07 Q658.596 1252.17 660.402 1255.74 Q662.231 1259.28 665.842 1259.28 Q669.476 1259.28 671.282 1255.74 Q673.11 1252.17 673.11 1245.07 Q673.11 1237.94 671.282 1234.39 Q669.476 1230.83 665.842 1230.83 M665.842 1227.13 Q671.652 1227.13 674.707 1231.73 Q677.786 1236.32 677.786 1245.07 Q677.786 1253.79 674.707 1258.4 Q671.652 1262.98 665.842 1262.98 Q660.032 1262.98 656.953 1258.4 Q653.897 1253.79 653.897 1245.07 Q653.897 1236.32 656.953 1231.73 Q660.032 1227.13 665.842 1227.13 Z" fill="#000000" fill-rule="nonzero" fill-opacity="1" /><path clip-path="url(#clip660)" d="M686.004 1256.43 L690.888 1256.43 L690.888 1262.31 L686.004 1262.31 L686.004 1256.43 Z" fill="#000000" fill-rule="nonzero" fill-opacity="1" /><path clip-path="url(#clip660)" d="M701.119 1227.75 L719.476 1227.75 L719.476 1231.69 L705.402 1231.69 L705.402 1240.16 Q706.42 1239.81 707.439 1239.65 Q708.457 1239.46 709.476 1239.46 Q715.263 1239.46 718.642 1242.63 Q722.022 1245.81 722.022 1251.22 Q722.022 1256.8 718.55 1259.9 Q715.078 1262.98 708.758 1262.98 Q706.582 1262.98 704.314 1262.61 Q702.068 1262.24 699.661 1261.5 L699.661 1256.8 Q701.744 1257.94 703.967 1258.49 Q706.189 1259.05 708.666 1259.05 Q712.67 1259.05 715.008 1256.94 Q717.346 1254.83 717.346 1251.22 Q717.346 1247.61 715.008 1245.51 Q712.67 1243.4 708.666 1243.4 Q706.791 1243.4 704.916 1243.82 Q703.064 1244.23 701.119 1245.11 L701.119 1227.75 Z" fill="#000000" fill-rule="nonzero" fill-opacity="1" /><path clip-path="url(#clip660)" d="M767.955 1290.79 L775.594 1290.79 L775.594 1264.43 L767.284 1266.09 L767.284 1261.84 L775.548 1260.17 L780.223 1260.17 L780.223 1290.79 L787.862 1290.79 L787.862 1294.73 L767.955 1294.73 L767.955 1290.79 Z" fill="#000000" fill-rule="nonzero" fill-opacity="1" /><path clip-path="url(#clip660)" d="M797.307 1288.85 L802.191 1288.85 L802.191 1294.73 L797.307 1294.73 L797.307 1288.85 Z" fill="#000000" fill-rule="nonzero" fill-opacity="1" /><path clip-path="url(#clip660)" d="M822.376 1263.25 Q818.765 1263.25 816.936 1266.81 Q815.131 1270.35 815.131 1277.48 Q815.131 1284.59 816.936 1288.15 Q818.765 1291.7 822.376 1291.7 Q826.01 1291.7 827.816 1288.15 Q829.644 1284.59 829.644 1277.48 Q829.644 1270.35 827.816 1266.81 Q826.01 1263.25 822.376 1263.25 M822.376 1259.54 Q828.186 1259.54 831.242 1264.15 Q834.32 1268.73 834.32 1277.48 Q834.32 1286.21 831.242 1290.82 Q828.186 1295.4 822.376 1295.4 Q816.566 1295.4 813.487 1290.82 Q810.432 1286.21 810.432 1277.48 Q810.432 1268.73 813.487 1264.15 Q816.566 1259.54 822.376 1259.54 Z" fill="#000000" fill-rule="nonzero" fill-opacity="1" /><path clip-path="url(#clip660)" d="M881.249 1323.21 L888.888 1323.21 L888.888 1296.85 L880.577 1298.51 L880.577 1294.25 L888.841 1292.59 L893.517 1292.59 L893.517 1323.21 L901.156 1323.21 L901.156 1327.15 L881.249 1327.15 L881.249 1323.21 Z" fill="#000000" fill-rule="nonzero" fill-opacity="1" /><path clip-path="url(#clip660)" d="M910.6 1321.27 L915.485 1321.27 L915.485 1327.15 L910.6 1327.15 L910.6 1321.27 Z" fill="#000000" fill-rule="nonzero" fill-opacity="1" /><path clip-path="url(#clip660)" d="M925.716 1292.59 L944.072 1292.59 L944.072 1296.52 L929.998 1296.52 L929.998 1304.99 Q931.017 1304.65 932.035 1304.48 Q933.054 1304.3 934.072 1304.3 Q939.859 1304.3 943.239 1307.47 Q946.619 1310.64 946.619 1316.06 Q946.619 1321.64 943.147 1324.74 Q939.674 1327.82 933.355 1327.82 Q931.179 1327.82 928.91 1327.45 Q926.665 1327.08 924.258 1326.34 L924.258 1321.64 Q926.341 1322.77 928.563 1323.33 Q930.785 1323.88 933.262 1323.88 Q937.267 1323.88 939.605 1321.78 Q941.943 1319.67 941.943 1316.06 Q941.943 1312.45 939.605 1310.34 Q937.267 1308.23 933.262 1308.23 Q931.387 1308.23 929.512 1308.65 Q927.66 1309.07 925.716 1309.95 L925.716 1292.59 Z" fill="#000000" fill-rule="nonzero" fill-opacity="1" /><path clip-path="url(#clip660)" d="M995.769 1355.63 L1012.09 1355.63 L1012.09 1359.56 L990.144 1359.56 L990.144 1355.63 Q992.806 1352.87 997.39 1348.24 Q1002 1343.59 1003.18 1342.25 Q1005.42 1339.73 1006.3 1337.99 Q1007.2 1336.23 1007.2 1334.54 Q1007.2 1331.79 1005.26 1330.05 Q1003.34 1328.31 1000.24 1328.31 Q998.038 1328.31 995.584 1329.08 Q993.154 1329.84 990.376 1331.39 L990.376 1326.67 Q993.2 1325.54 995.654 1324.96 Q998.107 1324.38 1000.14 1324.38 Q1005.51 1324.38 1008.71 1327.06 Q1011.9 1329.75 1011.9 1334.24 Q1011.9 1336.37 1011.09 1338.29 Q1010.31 1340.19 1008.2 1342.78 Q1007.62 1343.45 1004.52 1346.67 Q1001.42 1349.86 995.769 1355.63 Z" fill="#000000" fill-rule="nonzero" fill-opacity="1" /><path clip-path="url(#clip660)" d="M1021.9 1353.68 L1026.79 1353.68 L1026.79 1359.56 L1021.9 1359.56 L1021.9 1353.68 Z" fill="#000000" fill-rule="nonzero" fill-opacity="1" /><path clip-path="url(#clip660)" d="M1046.97 1328.08 Q1043.36 1328.08 1041.53 1331.65 Q1039.73 1335.19 1039.73 1342.32 Q1039.73 1349.43 1041.53 1352.99 Q1043.36 1356.53 1046.97 1356.53 Q1050.61 1356.53 1052.41 1352.99 Q1054.24 1349.43 1054.24 1342.32 Q1054.24 1335.19 1052.41 1331.65 Q1050.61 1328.08 1046.97 1328.08 M1046.97 1324.38 Q1052.78 1324.38 1055.84 1328.99 Q1058.92 1333.57 1058.92 1342.32 Q1058.92 1351.05 1055.84 1355.65 Q1052.78 1360.24 1046.97 1360.24 Q1041.16 1360.24 1038.08 1355.65 Q1035.03 1351.05 1035.03 1342.32 Q1035.03 1333.57 1038.08 1328.99 Q1041.16 1324.38 1046.97 1324.38 Z" fill="#000000" fill-rule="nonzero" fill-opacity="1" /><path clip-path="url(#clip660)" d="M1109.06 1388.05 L1125.38 1388.05 L1125.38 1391.98 L1103.44 1391.98 L1103.44 1388.05 Q1106.1 1385.29 1110.68 1380.66 Q1115.29 1376.01 1116.47 1374.67 Q1118.72 1372.14 1119.6 1370.41 Q1120.5 1368.65 1120.5 1366.96 Q1120.5 1364.2 1118.55 1362.47 Q1116.63 1360.73 1113.53 1360.73 Q1111.33 1360.73 1108.88 1361.5 Q1106.45 1362.26 1103.67 1363.81 L1103.67 1359.09 Q1106.49 1357.95 1108.95 1357.38 Q1111.4 1356.8 1113.44 1356.8 Q1118.81 1356.8 1122 1359.48 Q1125.2 1362.17 1125.2 1366.66 Q1125.2 1368.79 1124.39 1370.71 Q1123.6 1372.61 1121.49 1375.2 Q1120.91 1375.87 1117.81 1379.09 Q1114.71 1382.28 1109.06 1388.05 Z" fill="#000000" fill-rule="nonzero" fill-opacity="1" /><path clip-path="url(#clip660)" d="M1135.2 1386.1 L1140.08 1386.1 L1140.08 1391.98 L1135.2 1391.98 L1135.2 1386.1 Z" fill="#000000" fill-rule="nonzero" fill-opacity="1" /><path clip-path="url(#clip660)" d="M1150.31 1357.42 L1168.67 1357.42 L1168.67 1361.36 L1154.6 1361.36 L1154.6 1369.83 Q1155.61 1369.48 1156.63 1369.32 Q1157.65 1369.13 1158.67 1369.13 Q1164.46 1369.13 1167.84 1372.31 Q1171.22 1375.48 1171.22 1380.89 Q1171.22 1386.47 1167.74 1389.57 Q1164.27 1392.65 1157.95 1392.65 Q1155.78 1392.65 1153.51 1392.28 Q1151.26 1391.91 1148.85 1391.17 L1148.85 1386.47 Q1150.94 1387.61 1153.16 1388.16 Q1155.38 1388.72 1157.86 1388.72 Q1161.86 1388.72 1164.2 1386.61 Q1166.54 1384.5 1166.54 1380.89 Q1166.54 1377.28 1164.2 1375.18 Q1161.86 1373.07 1157.86 1373.07 Q1155.98 1373.07 1154.11 1373.49 Q1152.26 1373.9 1150.31 1374.78 L1150.31 1357.42 Z" fill="#000000" fill-rule="nonzero" fill-opacity="1" /><path clip-path="url(#clip660)" d="M1230.5 1405.77 Q1233.86 1406.48 1235.74 1408.75 Q1237.63 1411.02 1237.63 1414.35 Q1237.63 1419.47 1234.12 1422.27 Q1230.6 1425.07 1224.12 1425.07 Q1221.94 1425.07 1219.63 1424.63 Q1217.33 1424.21 1214.88 1423.36 L1214.88 1418.84 Q1216.82 1419.98 1219.14 1420.56 Q1221.45 1421.14 1223.98 1421.14 Q1228.38 1421.14 1230.67 1419.4 Q1232.98 1417.66 1232.98 1414.35 Q1232.98 1411.3 1230.83 1409.58 Q1228.7 1407.85 1224.88 1407.85 L1220.85 1407.85 L1220.85 1404.01 L1225.06 1404.01 Q1228.51 1404.01 1230.34 1402.64 Q1232.17 1401.25 1232.17 1398.66 Q1232.17 1396 1230.27 1394.58 Q1228.4 1393.15 1224.88 1393.15 Q1222.96 1393.15 1220.76 1393.57 Q1218.56 1393.98 1215.92 1394.86 L1215.92 1390.7 Q1218.58 1389.96 1220.9 1389.58 Q1223.24 1389.21 1225.3 1389.21 Q1230.62 1389.21 1233.72 1391.65 Q1236.82 1394.05 1236.82 1398.17 Q1236.82 1401.04 1235.18 1403.03 Q1233.54 1405 1230.5 1405.77 Z" fill="#000000" fill-rule="nonzero" fill-opacity="1" /><path clip-path="url(#clip660)" d="M1246.5 1418.52 L1251.38 1418.52 L1251.38 1424.4 L1246.5 1424.4 L1246.5 1418.52 Z" fill="#000000" fill-rule="nonzero" fill-opacity="1" /><path clip-path="url(#clip660)" d="M1271.57 1392.92 Q1267.96 1392.92 1266.13 1396.48 Q1264.32 1400.02 1264.32 1407.15 Q1264.32 1414.26 1266.13 1417.83 Q1267.96 1421.37 1271.57 1421.37 Q1275.2 1421.37 1277.01 1417.83 Q1278.84 1414.26 1278.84 1407.15 Q1278.84 1400.02 1277.01 1396.48 Q1275.2 1392.92 1271.57 1392.92 M1271.57 1389.21 Q1277.38 1389.21 1280.44 1393.82 Q1283.51 1398.4 1283.51 1407.15 Q1283.51 1415.88 1280.44 1420.49 Q1277.38 1425.07 1271.57 1425.07 Q1265.76 1425.07 1262.68 1420.49 Q1259.62 1415.88 1259.62 1407.15 Q1259.62 1398.4 1262.68 1393.82 Q1265.76 1389.21 1271.57 1389.21 Z" fill="#000000" fill-rule="nonzero" fill-opacity="1" /><polyline clip-path="url(#clip660)" style="stroke:#000000; stroke-linecap:round; stroke-linejoin:round; stroke-width:4; stroke-opacity:1; fill:none" points="1397.93,1410.41 1813.39,1050.61 "/>
<polyline clip-path="url(#clip660)" style="stroke:#000000; stroke-linecap:round; stroke-linejoin:round; stroke-width:4; stroke-opacity:1; fill:none" points="1465.92,1351.53 1457.29,1349.03 "/>
<polyline clip-path="url(#clip660)" style="stroke:#000000; stroke-linecap:round; stroke-linejoin:round; stroke-width:4; stroke-opacity:1; fill:none" points="1535.71,1291.09 1527.07,1288.6 "/>
<polyline clip-path="url(#clip660)" style="stroke:#000000; stroke-linecap:round; stroke-linejoin:round; stroke-width:4; stroke-opacity:1; fill:none" points="1605.49,1230.66 1596.85,1228.17 "/>
<polyline clip-path="url(#clip660)" style="stroke:#000000; stroke-linecap:round; stroke-linejoin:round; stroke-width:4; stroke-opacity:1; fill:none" points="1675.27,1170.23 1666.64,1167.73 "/>
<polyline clip-path="url(#clip660)" style="stroke:#000000; stroke-linecap:round; stroke-linejoin:round; stroke-width:4; stroke-opacity:1; fill:none" points="1745.05,1109.79 1736.42,1107.3 "/>
<path clip-path="url(#clip660)" d="M1493.69 1364.43 L1481.88 1382.87 L1493.69 1382.87 L1493.69 1364.43 M1492.46 1360.35 L1498.34 1360.35 L1498.34 1382.87 L1503.27 1382.87 L1503.27 1386.76 L1498.34 1386.76 L1498.34 1394.91 L1493.69 1394.91 L1493.69 1386.76 L1478.09 1386.76 L1478.09 1382.25 L1492.46 1360.35 Z" fill="#000000" fill-rule="nonzero" fill-opacity="1" /><path clip-path="url(#clip660)" d="M1549.33 1299.92 L1567.69 1299.92 L1567.69 1303.85 L1553.61 1303.85 L1553.61 1312.33 Q1554.63 1311.98 1555.65 1311.82 Q1556.67 1311.63 1557.69 1311.63 Q1563.47 1311.63 1566.85 1314.8 Q1570.23 1317.97 1570.23 1323.39 Q1570.23 1328.97 1566.76 1332.07 Q1563.29 1335.15 1556.97 1335.15 Q1554.79 1335.15 1552.52 1334.78 Q1550.28 1334.41 1547.87 1333.67 L1547.87 1328.97 Q1549.95 1330.1 1552.18 1330.66 Q1554.4 1331.21 1556.88 1331.21 Q1560.88 1331.21 1563.22 1329.11 Q1565.56 1327 1565.56 1323.39 Q1565.56 1319.78 1563.22 1317.67 Q1560.88 1315.57 1556.88 1315.57 Q1555 1315.57 1553.13 1315.98 Q1551.27 1316.4 1549.33 1317.28 L1549.33 1299.92 Z" fill="#000000" fill-rule="nonzero" fill-opacity="1" /><path clip-path="url(#clip660)" d="M1629.99 1254.9 Q1626.84 1254.9 1624.99 1257.05 Q1623.16 1259.21 1623.16 1262.96 Q1623.16 1266.68 1624.99 1268.86 Q1626.84 1271.01 1629.99 1271.01 Q1633.14 1271.01 1634.97 1268.86 Q1636.82 1266.68 1636.82 1262.96 Q1636.82 1259.21 1634.97 1257.05 Q1633.14 1254.9 1629.99 1254.9 M1639.27 1240.25 L1639.27 1244.51 Q1637.52 1243.67 1635.71 1243.23 Q1633.93 1242.79 1632.17 1242.79 Q1627.54 1242.79 1625.08 1245.92 Q1622.65 1249.04 1622.31 1255.36 Q1623.67 1253.35 1625.73 1252.29 Q1627.79 1251.2 1630.27 1251.2 Q1635.48 1251.2 1638.49 1254.37 Q1641.52 1257.52 1641.52 1262.96 Q1641.52 1268.28 1638.37 1271.5 Q1635.22 1274.72 1629.99 1274.72 Q1624 1274.72 1620.83 1270.13 Q1617.65 1265.53 1617.65 1256.8 Q1617.65 1248.6 1621.54 1243.74 Q1625.43 1238.86 1631.98 1238.86 Q1633.74 1238.86 1635.52 1239.21 Q1637.33 1239.55 1639.27 1240.25 Z" fill="#000000" fill-rule="nonzero" fill-opacity="1" /><path clip-path="url(#clip660)" d="M1687.44 1179.05 L1709.66 1179.05 L1709.66 1181.04 L1697.11 1213.61 L1692.23 1213.61 L1704.03 1182.99 L1687.44 1182.99 L1687.44 1179.05 Z" fill="#000000" fill-rule="nonzero" fill-opacity="1" /><path clip-path="url(#clip660)" d="M1769.07 1136.76 Q1765.74 1136.76 1763.82 1138.55 Q1761.92 1140.33 1761.92 1143.45 Q1761.92 1146.58 1763.82 1148.36 Q1765.74 1150.14 1769.07 1150.14 Q1772.4 1150.14 1774.33 1148.36 Q1776.25 1146.56 1776.25 1143.45 Q1776.25 1140.33 1774.33 1138.55 Q1772.43 1136.76 1769.07 1136.76 M1764.4 1134.77 Q1761.39 1134.03 1759.7 1131.97 Q1758.03 1129.91 1758.03 1126.95 Q1758.03 1122.81 1760.97 1120.4 Q1763.93 1117.99 1769.07 1117.99 Q1774.23 1117.99 1777.17 1120.4 Q1780.11 1122.81 1780.11 1126.95 Q1780.11 1129.91 1778.42 1131.97 Q1776.76 1134.03 1773.77 1134.77 Q1777.15 1135.56 1779.03 1137.85 Q1780.92 1140.14 1780.92 1143.45 Q1780.92 1148.48 1777.84 1151.16 Q1774.79 1153.85 1769.07 1153.85 Q1763.35 1153.85 1760.28 1151.16 Q1757.22 1148.48 1757.22 1143.45 Q1757.22 1140.14 1759.12 1137.85 Q1761.02 1135.56 1764.4 1134.77 M1762.68 1127.39 Q1762.68 1130.08 1764.35 1131.58 Q1766.04 1133.08 1769.07 1133.08 Q1772.08 1133.08 1773.77 1131.58 Q1775.48 1130.08 1775.48 1127.39 Q1775.48 1124.7 1773.77 1123.2 Q1772.08 1121.7 1769.07 1121.7 Q1766.04 1121.7 1764.35 1123.2 Q1762.68 1124.7 1762.68 1127.39 Z" fill="#000000" fill-rule="nonzero" fill-opacity="1" /><polyline clip-path="url(#clip660)" style="stroke:#000000; stroke-linecap:round; stroke-linejoin:round; stroke-width:4; stroke-opacity:1; fill:none" points="678.326,1202.68 678.326,483.08 "/>
<polyline clip-path="url(#clip660)" style="stroke:#000000; stroke-linecap:round; stroke-linejoin:round; stroke-width:4; stroke-opacity:1; fill:none" points="678.326,1083.45 683.311,1079.13 "/>
<polyline clip-path="url(#clip660)" style="stroke:#000000; stroke-linecap:round; stroke-linejoin:round; stroke-width:4; stroke-opacity:1; fill:none" points="678.326,890.376 683.311,886.058 "/>
<polyline clip-path="url(#clip660)" style="stroke:#000000; stroke-linecap:round; stroke-linejoin:round; stroke-width:4; stroke-opacity:1; fill:none" points="678.326,697.306 683.311,692.988 "/>
<polyline clip-path="url(#clip660)" style="stroke:#000000; stroke-linecap:round; stroke-linejoin:round; stroke-width:4; stroke-opacity:1; fill:none" points="678.326,504.236 683.311,499.918 "/>
<path clip-path="url(#clip660)" d="M639.942 1070.24 L628.137 1088.69 L639.942 1088.69 L639.942 1070.24 M638.715 1066.17 L644.595 1066.17 L644.595 1088.69 L649.526 1088.69 L649.526 1092.58 L644.595 1092.58 L644.595 1100.73 L639.942 1100.73 L639.942 1092.58 L624.341 1092.58 L624.341 1088.06 L638.715 1066.17 Z" fill="#000000" fill-rule="nonzero" fill-opacity="1" /><path clip-path="url(#clip660)" d="M637.998 888.512 Q634.85 888.512 632.998 890.665 Q631.169 892.818 631.169 896.568 Q631.169 900.294 632.998 902.47 Q634.85 904.623 637.998 904.623 Q641.146 904.623 642.975 902.47 Q644.827 900.294 644.827 896.568 Q644.827 892.818 642.975 890.665 Q641.146 888.512 637.998 888.512 M647.28 873.859 L647.28 878.119 Q645.521 877.285 643.715 876.846 Q641.933 876.406 640.174 876.406 Q635.544 876.406 633.09 879.531 Q630.66 882.656 630.313 888.975 Q631.678 886.961 633.739 885.896 Q635.799 884.808 638.276 884.808 Q643.484 884.808 646.493 887.98 Q649.526 891.128 649.526 896.568 Q649.526 901.892 646.377 905.109 Q643.229 908.327 637.998 908.327 Q632.003 908.327 628.831 903.744 Q625.66 899.137 625.66 890.41 Q625.66 882.216 629.549 877.355 Q633.438 872.471 639.989 872.471 Q641.748 872.471 643.53 872.818 Q645.336 873.165 647.28 873.859 Z" fill="#000000" fill-rule="nonzero" fill-opacity="1" /><path clip-path="url(#clip660)" d="M637.674 698.174 Q634.34 698.174 632.419 699.956 Q630.521 701.738 630.521 704.863 Q630.521 707.988 632.419 709.771 Q634.34 711.553 637.674 711.553 Q641.007 711.553 642.928 709.771 Q644.85 707.965 644.85 704.863 Q644.85 701.738 642.928 699.956 Q641.03 698.174 637.674 698.174 M632.998 696.183 Q629.989 695.442 628.299 693.382 Q626.632 691.322 626.632 688.359 Q626.632 684.215 629.572 681.808 Q632.535 679.401 637.674 679.401 Q642.836 679.401 645.776 681.808 Q648.715 684.215 648.715 688.359 Q648.715 691.322 647.026 693.382 Q645.359 695.442 642.373 696.183 Q645.752 696.97 647.627 699.262 Q649.526 701.553 649.526 704.863 Q649.526 709.887 646.447 712.572 Q643.391 715.257 637.674 715.257 Q631.956 715.257 628.878 712.572 Q625.822 709.887 625.822 704.863 Q625.822 701.553 627.72 699.262 Q629.618 696.97 632.998 696.183 M631.285 688.799 Q631.285 691.484 632.952 692.989 Q634.641 694.493 637.674 694.493 Q640.683 694.493 642.373 692.989 Q644.086 691.484 644.086 688.799 Q644.086 686.114 642.373 684.609 Q640.683 683.104 637.674 683.104 Q634.641 683.104 632.952 684.609 Q631.285 686.114 631.285 688.799 Z" fill="#000000" fill-rule="nonzero" fill-opacity="1" /><path clip-path="url(#clip660)" d="M598.23 517.581 L605.868 517.581 L605.868 491.215 L597.558 492.882 L597.558 488.622 L605.822 486.956 L610.498 486.956 L610.498 517.581 L618.137 517.581 L618.137 521.516 L598.23 521.516 L598.23 517.581 Z" fill="#000000" fill-rule="nonzero" fill-opacity="1" /><path clip-path="url(#clip660)" d="M637.581 490.034 Q633.97 490.034 632.141 493.599 Q630.336 497.141 630.336 504.27 Q630.336 511.377 632.141 514.942 Q633.97 518.483 637.581 518.483 Q641.215 518.483 643.021 514.942 Q644.85 511.377 644.85 504.27 Q644.85 497.141 643.021 493.599 Q641.215 490.034 637.581 490.034 M637.581 486.331 Q643.391 486.331 646.447 490.937 Q649.526 495.52 649.526 504.27 Q649.526 512.997 646.447 517.604 Q643.391 522.187 637.581 522.187 Q631.771 522.187 628.692 517.604 Q625.637 512.997 625.637 504.27 Q625.637 495.52 628.692 490.937 Q631.771 486.331 637.581 486.331 Z" fill="#000000" fill-rule="nonzero" fill-opacity="1" /><polyline clip-path="url(#clip661)" style="stroke:#009af9; stroke-linecap:round; stroke-linejoin:round; stroke-width:4; stroke-opacity:1; fill:none" points="976.519,913.9 974.927,915.672 975.2,915.165 977.64,911.912 982.629,905.461 979.896,908.738 979.39,909.181 977.767,911.024 979.572,908.519 980.815,906.695 990.788,894.025 987.396,898.276 977.055,911.025 967.401,922.631 964.459,925.558 956.477,934.78 957.471,932.497 949.544,941.301 941.68,949.484 941.078,948.511 945.075,941.752 972.82,906.511 955.272,928.601 958.792,923.392 967.639,912.663 964.407,917.414 944.743,940.74 962.115,917.519 935.441,949.505 944.233,937.4 938.375,944.505 922.796,960.146 899.012,982.971 885.735,995.247 925.352,944.613 906.54,975.278 868.154,1020.06 885.431,993.481 938.006,932.193 977.524,896.483 1005.39,873.345 959.063,926.863 911.224,977.644 905.024,975.603 921.053,962.823 878.793,1003.97 921.715,937.703 960.071,907.472 1029.02,845.333 1047.75,843.331 1113.37,782.878 1182.53,719.722 1217.15,721.219 1224.55,714.212 1240.17,694.993 1232.88,718.593 1165.54,767.29 1138.7,791.982 1146.69,770.84 1183.48,743.641 1139.2,783.626 1084.99,835.222 1067.46,843.956 1051.47,856.806 1112.84,784.497 1041.41,859.139 1107.9,794.25 1095.34,811.722 1193.96,710.704 1135.63,768.697 1190.03,719.586 1236.94,687.987 1323.08,624.557 1256.88,694.997 1182.84,746.609 1233.26,703.428 1241.37,694.022 1220.56,716.13 1170.27,765.602 1186.56,750.791 1156.68,771.766 1194.95,726.008 1275.6,672.652 1245.42,709.006 1227.79,726.09 1230.14,712.198 1175.78,742.485 1109.96,801.45 1182.84,722.205 1094.92,811.891 1055.37,839.42 1009.4,889.502 1056.98,837.467 1077,824.154 1057.02,846.799 1005.9,884.336 994.296,883.189 1036.11,844.143 1127.69,757.263 1119.19,782.836 1115.16,797.646 1097.41,816.407 1047.16,859.367 1044.75,859.16 1049.01,853.118 1016.16,881.807 1073.26,811.96 1093.83,802.086 1056.43,845.094 1042.74,855.477 1073.28,826.292 1104.33,787.355 1130.39,775.518 1122.4,785.627 1167.43,741.625 1161.25,754.897 1128.37,789.325 1222.7,698.766 1172.65,764.24 1161.02,773.96 1096.34,831.979 1096.34,820.431 1066.54,849.38 1114.29,794.304 1050.59,856.201 1006.65,896.412 1018.89,876.463 985.406,907.133 1001.18,886.99 996.946,892.714 967.776,921.66 955.831,928.691 975.653,908.646 926.167,953.459 916.702,960.693 992.911,887.422 984.254,900.069 921.88,961.509 982.403,892.94 960.607,912.604 971.507,918.123 1004.01,882.498 917.193,970.301 898.966,986.772 927.293,957.38 915.72,969.285 899.311,978.939 888.928,992.914 960.665,919.53 915.307,968.48 887.673,992.931 934.272,940.639 964.716,917.645 953.969,938.458 1019.43,864.666 945.722,927.748 1037.34,850.001 1000.34,891.823 976.053,919.3 954.12,940.99 921.306,963.198 927.776,955.948 943.805,932.494 930.708,951.174 881.728,1005.2 857.054,1030.46 895.634,981.853 950.333,915.648 953.267,912.184 1034.56,835.66 1102.31,773.508 1035.23,851.108 1055.64,839.57 1034.73,853.753 1072.28,817.496 1122.35,770.448 1026.91,854.432 1018.42,879.88 1004.67,892.348 995.399,884.639 965.339,922.326 1044.93,839.059 1098.09,790.298 1070.7,826.017 1046.92,850.189 1134.26,763.633 1155.3,748.011 1224.25,691.758 1241.02,694.913 1334.05,624.018 1186.16,754.085 1297.7,647.378 1301.05,642.933 1263.4,683.334 1374.89,599.578 1399.55,592.842 1438.59,572.769 1377.44,624.34 1289.13,686.314 1336.06,633.838 1405.28,570.969 1476.45,515.173 1560.71,465.718 1519.47,529.199 1453.65,577.955 1387.79,624.885 1347.75,646.593 1311.79,670.01 1295.53,674.901 1299.63,666.212 1340.41,623.92 1317.84,645.06 1344.9,621.009 1338.77,619.875 1316.67,640.576 1375.71,583.297 1302.26,669.807 1360.52,603.799 1281.94,685.183 1249.19,708.748 1164,778.227 1160.89,761.966 1139.55,785.521 1185.49,739.814 1202.75,728.714 1216.88,719.406 1302.8,655.916 1340.83,617.989 1378.02,596.603 1290.95,680.059 1187.47,764.952 1120.26,813.976 1071.93,850.131 1123.82,780.392 1106.61,803.074 1081.52,829.171 1039.69,871.872 1019.01,884.311 1007.76,883.147 1093.99,802.872 1084.03,817.115 1000.43,911.827 1085.94,819.894 1079.94,818.909 1062.13,842.065 1148.13,774.239 1215.34,718.861 1202.36,721.787 1248.83,697.787 1181.38,765.493 1120.27,811.587 1159.42,760.449 1134.3,787.317 1077,837.825 1007.99,902.186 1014.71,885.194 1016.08,879.318 1013.49,881.882 1085.03,814.627 1097.99,808.89 1163.4,745.308 1132.61,781.592 1150.66,771.498 1110.58,810.634 1062.73,841.493 1025.42,881.596 989.632,913.335 1022.28,883.937 1037.68,863.939 1109.34,781.949 1085.44,813.743 1078.56,821.763 991.32,899.866 927.219,964.904 941.745,943.426 944.87,939.929 933.825,952.631 959.446,922.997 979.816,903.311 1005.57,890.178 1007.8,884.215 1052.29,838.485 1038.05,864.048 1024.32,867.644 1046.65,846.68 1114.13,788.5 1124.66,778.616 1099.24,797.605 1142.73,769.692 1220.99,707.595 1280.48,665.759 1305.36,647.043 1222.02,724.011 1293.84,661.107 1256.18,690.25 1219.15,727.705 1181.61,757.958 1133.69,792.451 1086.97,825.001 1175.1,735.032 1203.78,709.489 1235.75,697.65 1215.74,730.258 1202.47,729.337 1157.59,767.392 1119.05,795.341 1066.32,843.384 1104.12,814.592 1172.71,762.976 1186.23,744.898 1118.24,796.133 1208.03,713.127 1231.67,712.835 1276.24,667.507 1278.34,675.517 1247.92,707.441 1301.19,653.358 1214.1,726.459 1114.29,807.817 1185.49,732.137 1260.07,682.449 1216.11,723.764 1249.99,688.981 1214.61,718.839 1243.01,689.539 1165.63,766.635 1198.02,730.816 1173.06,752.689 1104.63,807.521 1043.35,864.542 1033.58,861.947 1027.07,869.802 1035.43,858.393 994.478,902.955 1005.47,876.233 995.781,895.575 1007.04,889.677 951.759,939.671 869.457,1023.17 800.725,1090.44 797.592,1087.2 789.459,1092.17 800.38,1072.43 790.226,1083.88 818.931,1050.2 838.283,1031.72 810.936,1067.57 811.284,1060.27 830.408,1037.36 884.364,975.523 900.545,965.708 885.294,991.815 879.723,995.097 922.212,953.686 946.351,930.203 917.333,967.078 892.392,991.678 953.103,919.41 990.054,887.461 961.915,923.968 980.695,904.162 957.031,928.102 1059.85,830.035 1094.23,805.89 1108.71,792.67 1149.54,760.98 1133.89,792.71 1212.06,702.956 1150.84,740.153 1132.37,773.945 1056.45,847.395 1075.67,827.22 1156.01,769.458 1188.16,732.424 1197,732.902 1154.88,778.741 1110.66,813.644 1095.49,821.151 1047.01,864.389 997.416,907.481 1005.19,888.019 964.206,928.113 971.923,917.421 1006.16,875.041 948.672,943.663 926.725,957.148 935.981,943.86 924.511,964.411 952.116,930.644 915.732,965.414 840.241,1045.64 891.935,982.698 907.597,964.96 947.959,923.013 1046.99,833.377 1051.34,852.705 1112.39,795.319 1096.21,803.861 1131.76,785.894 1109.94,807.197 1086.45,821.804 1128.34,779.795 1192.57,722.24 1199.02,724.182 1195.07,723.032 1195.49,728.641 1227.36,696.888 1302.13,645.387 1347.84,611.718 1453.33,549.534 1465.23,552.526 1460.14,564.924 1388.24,612.307 1398.68,598.608 1389.81,600.732 1320.28,660.772 1319.58,651.166 1300.06,670.636 1309.14,658.809 1268.64,689.403 1177.78,766.359 1177.38,750.054 1145.35,776.627 1163.66,754.166 1135.36,783.723 1085.8,829.005 1080.36,824.886 1065.57,834.45 1086.5,802.183 1153.92,751.332 1148.49,762.196 1148.8,769.368 1172.47,741.39 1244.64,682.508 1224.15,711.646 1231.03,707.436 1284.33,665.83 1166.47,773.723 1070.19,855.378 1032.42,880.722 1032.17,864.161 1021.67,875.109 1048.97,851.833 1089.15,808.447 1060.25,839.616 1135.09,772.223 1092.29,817.51 1135.75,777.075 1143.86,764.066 1217.34,708.157 1180.53,750.351 1149.93,778.032 1161.31,759.206 1181.89,741.561 1150.36,770.244 1114.32,803.721 1013.39,892.677 968.59,925.265 976.696,912.07 1006.55,873.241 992.471,897.28 973.104,917.36 964.183,926.618 948.868,937.928 992.647,891.877 993.816,888.858 987.674,902.415 981.734,905.373 968.735,919.846 1008.64,877.051 1005.8,880.846 976.073,900.262 1040.92,841.593 983.54,903.999 1122.33,775.477 1162.75,742.682 1208.91,723.237 1234.84,696.392 1316.34,624.98 1454.6,535.188 1411.55,593.725 1519.2,509.526 1557.31,489.563 1490.54,554.5 1448.5,573.311 1413.81,597.895 1345.35,649.98 1288.34,688.532 1281.26,683.851 1324.75,633.71 1355.36,610.43 1349.92,617.66 1234.19,722.303 1248.01,702.892 1296.73,653.286 1340.17,621.889 1362.39,607.894 1328.62,633.372 1293.2,669.792 1292.34,668.387 1301.94,661.792 1236.19,711.093 1229.86,712.94 1256.05,689.171 1226.52,706.377 1244.68,686.024 1238.59,694.474 1300.99,653.596 1327.92,637.065 1265.66,694.069 1254.56,703.013 1273.77,674.068 1264.68,683.087 1276.71,658.751 1291.56,655.375 1282.02,677.212 1302.06,645.411 1288.12,657.903 1289.6,676.283 1316.34,636.489 1159.8,772.338 1126.6,801.146 1125.6,783.64 1158.44,755.857 1178.18,746.445 1120.16,794.786 1134.91,778.531 1203.67,718.953 1328.75,616.596 1292.1,659.467 1348.45,625.137 1349.78,619.673 1248.32,703.023 1195.5,744.505 1120.3,810.242 1047.77,863.094 1023.47,879.323 1026.04,869.851 1053.35,842.149 1072.2,823.678 1090.64,816.983 1103.21,803.825 1076.1,833.489 1069.58,841.407 1055.04,841.092 1025.69,873.884 1028.65,868.867 1115.18,777.136 1097.43,809.244 1100.31,810.784 1127.76,784.787 1184.45,736.884 1205.79,724.69 1157.36,773.124 1042.38,866.119 1041.7,857.77 1042.9,854.657 1040.36,853.662 1054.69,844.672 1187.41,705.21 1248.59,681.136 1207.44,725.731 1264.27,674.906 1194.29,741.601 1076.31,843.695 1093,819.014 1084.11,822.304 1038.76,864.289 1101.36,794.409 1128.05,769.069 1078.06,822.897 1098.33,798.159 1106.71,801.079 1113.42,799.911 1090.91,820.687 1106.21,808.374 1033.23,883.613 996.577,908.582 947.818,951.535 961.297,928.21 936.349,947.314 978.79,900.203 993.504,886.875 1033.56,852.154 1130.7,767.928 1148.13,762.131 1179.24,740.577 1178.59,752.696 1179.73,753.959 1131.98,802.7 1045.98,877.356 1032.3,874.72 1017.13,886.524 1065.47,835.887 1096.28,801.966 1130.47,767.552 1161.34,744.154 1234.9,698.308 1190.81,748.766 1153.18,775.211 1053.64,869.733 1061.13,845.354 1060.9,844.211 1125.54,774.076 1196.69,721.307 1137.62,786.193 1110.79,808.675 1151.25,757.386 1096.54,817.11 1141.93,771.999 1062.08,852.21 1163.52,750.393 1137.02,779.284 1234.01,679.628 1224.38,710.034 1222.23,714.477 1241.54,693.965 1287.17,641.244 1375.54,571.15 1333.28,626.512 1307.49,646.016 1189.71,760.592 1189.23,747.606 1180.68,749.451 1177.49,751.681 1155.56,768.807 1087.71,832.299 1067.52,842.276 1113.52,785.764 1127.63,774.959 1186.17,719.788 1176.52,734.9 1092.51,817.328 1158.64,757.318 1165.04,742.001 1130.67,775.401 1018.81,853.375 1016.64,860.683 1126.73,773.838 1088.18,815.463 1054.75,851.082 1128.94,783.638 1093.22,820.253 1067.76,842.566 1005.25,897.9 1001.54,892.715 1045.38,839.161 1037.51,855.942 1094.18,794.511 1044.47,860.117 1041.26,865.913 1131.87,767.333 1108.04,806.344 1138.29,771.117 1148.72,770.068 1180.05,736.664 1229.71,692.195 1265.81,662.557 1236.14,707.479 1297.61,647.937 1344.98,612.041 1334.54,631.996 1405.67,576.796 1374.51,611.084 1332.12,645.908 1262.71,699.176 1232.43,722.917 1177.7,769.047 1215.52,713.432 1254.39,677.075 1207.25,733.547 1156.6,776.802 1149.51,777.283 1175.95,744.612 1284.92,649.367 1271.77,675.825 1230.46,694.426 1222.71,714.135 1233.69,711.822 1220.01,724.443 1173.22,747.629 1134,783.528 1162.02,753.631 1241.45,680.139 1166.36,756.586 1193.01,732.91 1249.68,698.38 1252.61,694.754 1306.11,653.586 1297.26,667.833 1221.39,725.795 1190.35,746.283 1140.98,776.277 1197.05,721.097 1196.39,721.534 1214.29,709.291 1170.33,760.074 1272.63,666.97 1160.64,760.139 1127.79,781.806 1119.36,781.121 1141.64,767.67 1185.14,728.519 1087.2,793.651 1170.43,745.431 1205.76,715.361 1142.38,778.921 1218.33,698.056 1196.74,707.421 1374.54,570.063 1422.98,543.997 1415.78,563.629 1426.3,566.96 1412.62,582.202 1321.7,661.717 1333.9,642.624 1367.96,617.026 1310.96,666.772 1241.67,717.268 1162.03,786.197 1189.36,742.955 1226.88,706.342 1180.89,746.971 1179.24,745.713 1174.72,747.659 1117.02,802.97 1127.66,777.555 1063.74,838.042 1107.03,803.73 1079.02,816.219 1069.79,839.722 1042.53,857.461 1017.51,875.05 1022.7,873.745 1052.59,831.046 1012.6,884.841 1032.34,857.413 1048.27,848.782 1093.75,818.541 941.602,953.54 961.348,926.504 901.744,982.113 891.041,989.856 882.8,994.593 897.524,975.587 941.802,929.107 998.855,879.817 1125.69,764.374 1138.99,763.752 1164.24,753.663 1187.02,732.878 1177.04,743.648 1289.7,649.12 1226.07,725.34 1202.08,747.992 1227.54,716.31 1220.99,710.083 1239.04,704.493 1102.03,817.935 1049.7,862.775 1087.18,811.966 1128.04,775.345 1123.16,781.059 1110,801.875 1069.41,859.911 1038.31,874.751 1013.26,886.091 1032.06,859.809 1066.12,823.739 1086.88,811.061 1091.41,814.79 1149.17,754.223 1190.37,736.779 1147.3,783.223 1198.29,728.825 1160.25,767.185 1212.44,703.257 1198.32,727.098 1211.97,725.958 1271.99,666.701 1279.21,667.723 1242.07,712.796 1187.62,747.035 1097.7,822.886 1172.84,745.13 1142.51,776.494 1138.49,781.025 1204.61,725.87 1192.72,734.792 1225.93,713.644 1201.6,726.616 1129.11,798.839 1041.15,872.113 1023.44,871.941 1021.02,866.116 1042.61,851.881 1027.43,870.934 1100.52,808.364 1067.36,841.954 976.473,927.934 976.652,918.845 987.091,903.542 992.097,895.62 993.898,891.525 978.995,905.495 978.533,896.714 1014.4,870.887 1050.54,833.467 1047.79,846.935 1019.87,872.867 986.645,909.316 1019.37,874.317 1025.43,873.202 1110.19,798.821 1088.96,808.05 1056.73,838.077 983.256,914.838 927.114,962.382 989.701,885.898 1065.12,835.448 1069.91,826.61 1059.96,837.488 1054.37,844.674 1066.12,832.904 1074.69,820.994 1152.71,753.708 1147.65,763.591 1119.29,796.328 1151.68,774.037 1137.17,787.565 1121.67,782.257 1140.03,769.566 1126.91,788.962 1162.02,758.987 1146.26,771.364 1031.16,860.271 1071.24,813.752 1095.48,793.697 1049.65,845.332 1019.23,873.829 1021.63,869.506 989.896,894.148 962.401,929.858 965.572,918.069 1019.78,868.527 1035.82,849.846 1093.08,797.202 1136.52,764.053 1204.27,704.422 1132.09,778.754 1074.84,839.957 977.366,920.049 964.333,929.962 972.294,912.809 948.202,939.951 937.425,946.197 1003.33,871.18 976.191,908.248 978.482,904.134 981.077,898.73 1056.67,834.412 1058.55,836.302 1039.7,860.027 1118.92,783.965 1048.74,851.304 1044.38,858.892 1027.41,866.436 1024.86,869.268 1024.43,867.46 1057.49,841.604 1091.45,797.147 1092.07,798.284 1163.29,739.66 1169.57,742.709 1099.54,810.714 1078.52,827.306 1118.05,782.136 1085.4,796.592 1071.88,824.378 1037.94,859.037 1067.65,824.902 1070.1,820.951 1043.32,853.735 974.347,909.003 927.824,957.498 914.634,963.082 922.099,954.764 897.477,976.291 851.82,1030.04 864.707,1010.37 893.163,979.708 930.255,943.938 946.617,935.591 967.823,904.659 1095.84,781.37 1161.07,738.801 1163.92,750.702 1144.12,769.922 1167.03,744.985 1150.86,758.805 1180.5,731.889 1136.53,777.569 1141.08,764.875 1151.54,766.299 1178.04,728.449 1269.78,678.558 1263.22,691.244 1280.18,682.077 1213.84,726.619 1231.74,698.962 1143.33,775.284 1121.68,787.652 1094.91,813.357 1101.05,817.286 1108.71,814.553 1048.18,862.042 1081.3,826.142 1073.84,829.633 1028.95,880.885 1015.92,887.16 967.965,932.841 974.553,916.49 969.762,913.616 1004.54,878.205 1005.36,877.109 1009.42,877.175 1000.31,877.855 1033.82,858.278 1026.64,863.888 977.725,915.588 1039.69,846.78 1037.73,868.897 1030.96,868.099 1110.05,810.826 1109.83,799.729 985.64,915.133 974.389,917.031 986.099,894.655 989.588,899.874 1015.82,874.258 1003.78,891.229 936.174,960.02 918.183,971.199 865.847,1016.01 829.372,1049.17 859.631,1014.52 851.522,1024.93 889.719,983.522 900.489,978.621 888.053,993.83 893.798,991.645 919.928,975.453 949.256,927.895 935.32,949.215 928.577,954.326 916.716,956.355 952.836,921.4 916.642,961.368 864.21,1013.39 879.02,997.308 885.991,990.238 883.254,990.029 995.307,876.914 946.868,936.641 951.808,925.471 982.383,902.156 972.534,918.41 978.01,913.937 935.38,953.452 955.247,926.841 1042.24,847.543 943.733,943.655 906.983,978.184 942.507,937.479 952.651,925.629 1041.51,832.782 1111.58,777.691 1073.81,819.177 1010.13,894.996 1038.4,862.939 1044.58,860.926 1025.01,880.377 968.591,933.128 1002.77,883.298 929.75,949.219 966.167,916.385 1023.13,867.668 1076.42,829.952 1121.47,792.091 1221.45,712.697 1193.58,743.279 1343.41,622.537 1367.06,624.69 1368.85,618.642 1299.16,663.132 1352.42,610.612 1254.09,710.914 1233.39,725.253 1190.3,756.373 1205.1,729.567 1179.49,755.672 1118.08,809.003 1127.8,797.567 1088.38,834.823 1089.56,821.058 1082.86,819.299 1148.13,753.402 1196.55,712.823 1116.29,799.982 1036.39,869.189 1002.62,900.152 967.205,934.05 1033.18,857.911 1017.84,867.453 1024.05,872.313 1007.04,884.539 1050.37,839.983 1061.25,828.796 1086.37,802.182 1046.97,844.878 1039.08,861.53 1030.28,885.864 1029.88,895.174 997.264,904.213 939.038,959.908 942.953,944.434 951.665,929.569 1062.55,816.499 1069.52,823.676 1069,829.394 1013.75,885.082 1049.02,847.34 968.179,929.286 893.585,1003.52 845.086,1045.96 869.605,1002.57 885.695,986.714 830.808,1050.66 777.135,1108.13 816.951,1053.62 857.987,1003.5 863.455,1002.78 911.718,952.024 959.848,905.654 965.8,916.663 1003.23,879.227 1016.39,870.627 1057.31,830.277 1041.25,851.132 991.982,904.908 1048.38,845.823 1052.62,842.294 1043.5,843.663 1025.99,865.955 1093.21,798.978 1101.54,795.914 1144.11,769.013 1087.29,813.396 1018.76,872.511 1037.99,854.485 1065.47,847.246 1218.54,703.971 1254.13,679.931 1346.08,626.396 1233.06,718.654 1288.08,659.552 1338.71,623.744 1423.94,558.035 1541.59,492.271 1482.45,542.895 1415.45,598.889 1363.14,636.493 1365.93,628.583 1281.07,695.288 1232.12,730.794 1170.42,778.222 1177.73,752.295 1192.53,734.07 1173.61,750.605 1230.13,690.388 1327.19,623.396 1276.7,678.118 1363.95,586.293 1352.52,630.101 1309.25,659.454 1328.09,637.317 1345.03,625.149 1403.48,585.372 1278.1,696.091 1228.31,726.685 1182.84,759.831 1196.53,736.142 1168.32,767.105 1184.41,739.389 1197.8,725.016 1345.44,592.61 1404.42,564.546 1394.59,592.673 1378.97,613.681 1298.49,675.816 1273.5,690.326 1222.68,729.876 1198.64,742.784 1189.58,743.406 1144.23,793.897 1147.09,778.988 1139.84,787.731 1229.29,689.063 1208.07,713.051 1143.33,777.691 1149.14,774.867 1143.41,775.934 1128.04,786.2 1249.76,686.305 1276.39,668.652 1245.91,697.048 1179.95,762.148 1159.37,765.546 1134.06,784.343 1146.9,768.868 1163.52,765.899 1206.86,726.54 1231.66,717.395 1191.5,735.01 1144.41,774.374 1167.21,759.931 1153.87,762.802 1173.19,744.541 1217.03,730.319 1200.41,742.124 1089.75,839.78 1044.98,871.135 1027.52,873.282 1003.15,893.577 978.335,908.757 1002.94,882.699 974.247,919.238 999.765,888.576 993.322,896.577 1030.54,866.669 1097.1,800.27 1156.41,766.167 1205.36,723.888 1204.78,727.741 1168.77,764.192 1195.82,734.326 1168.31,772.31 1217.68,724.581 1305.95,645.994 1351.24,635.582 1308.5,665.701 1296.34,661.604 1304.87,675.008 1308,657.241 1227.35,725.195 1211.15,734.089 1109.76,822.674 1061.28,851.472 1019.13,888.31 977.333,923.999 954.998,937.451 943.275,943.208 936.738,950.905 894.654,993.333 903.101,979.894 907.72,965.576 920.968,957.125 980.141,896.064 987.679,890.987 996.71,892.196 998.641,888.547 1058.23,827.677 1077.65,805.343 1096.65,798.196 1115.1,787.914 1090.19,805.605 1093.96,808.583 1094.99,817.153 1059.51,849.693 1073.26,828.487 1026.81,865.828 1015.79,872.948 1008.17,884.751 1003.1,892.917 1018.09,887.731 966.095,924.215 884.504,1002.07 829.738,1054.63 859.913,1016.36 851.366,1017.33 816.129,1059.95 822.205,1050.94 788.303,1091.93 845.412,1016.86 850.445,1016.6 890.047,981.135 933.107,936.967 883.87,988.97 901.983,979.757 928.766,950.564 912.602,963.429 912.152,957.81 991.881,888.633 1004.35,881.071 938.387,944.804 911.156,979.458 935.208,945.971 985.543,888.211 952.418,932.513 960.231,926.626 903.612,980.146 841.757,1041.03 884.53,990.75 912.867,965.099 900.362,978.75 886.029,1000.53 866.198,1012.37 864.933,1018.61 820.514,1063.42 832.675,1045.36 819.642,1055.96 835.616,1030.78 853.433,1017.43 883.994,997.746 860.932,1021.44 877.364,994.172 831.622,1040.69 838.523,1039.79 844.041,1030.84 926.773,941.211 986.316,882.647 1003.28,873.24 1021.28,868.036 1055.88,831.248 1034.88,869.258 1031.55,870.988 1032.34,868.697 960.084,944.532 984.333,904.316 949.2,940.821 913.196,970.697 941.583,934.717 913.955,970.52 931.845,948.552 949.539,930.502 983.971,895.859 1024.05,864.189 1079,825.332 1070.57,839.103 1097.89,818.605 1158.9,770.09 1113.09,812.938 1113.49,820.356 1116.56,816.003 1083.77,827.784 1139,769.111 1097.21,815.146 1088.05,818.653 1075.93,833.306 1040.71,865.451 1053.44,846.363 1079.11,817.661 1085.36,819.241 1052.59,853.797 1081.61,817.235 1058.97,837.418 1042.14,852.984 1091.63,803.302 1104.37,797.19 1086.87,823.834 1048.62,857.078 945.978,945.589 903.213,987.312 905.521,978.946 925.722,952.214 848.578,1031.38 887.912,985.568 908.153,963.45 930.531,938.441 897.013,983.576 844.441,1035.74 820.517,1056.28 851.048,1021.45 839.141,1031.27 847.971,1019.24 881.696,985.727 943.795,926.648 964.613,912.488 933.582,952.217 1020.2,864.591 1014.44,872.508 1002.69,890.499 942.213,940.072 908.915,975.65 921.034,956.23 899.129,979.808 954.564,922.694 969.432,908.996 949.338,934.793 930.013,952.379 910.489,983.385 845.605,1040.31 849.823,1030.6 901.29,978.492 875.224,1004.36 925.734,946.654 994.06,881.82 1081.09,797.449 1116.69,776.915 1119.27,786.936 1099.34,806.786 1061.55,842.238 1162.74,755.917 1117.23,801.39 1100.66,811.45 1100.62,813.937 1058.05,847.714 1041.67,861.475 1031.97,871.527 1064.87,829.999 1114.03,790.518 1117.17,790.694 1177.98,731.223 1164.91,754.498 1162.91,757.863 1142.82,777.896 1100.18,814.497 1073.8,838.196 1007.24,898.48 1025.17,869.056 1078.89,810.258 1126.61,767.567 1175.87,729.837 1164.35,752.55 1128.56,791.21 1100.62,806.275 1080.11,825.689 1040.46,867.069 1020.77,880.926 956.741,947.522 950.191,941.656 929.422,960.122 874.563,1017.15 861.251,1022.14 853.387,1026.94 832.206,1051.75 805.891,1077.97 853.371,1013.06 828.274,1048.4 835.671,1041.36 827.416,1052.87 783.102,1102.29 745.881,1144 728.607,1158.4 744.999,1133.33 747.488,1132.18 738.198,1144.01 748.904,1125.56 744.284,1134.91 774.063,1096.94 769.985,1105.15 775.372,1101.51 755.875,1124.18 756.342,1120.42 746.3,1135.37 744.705,1137.38 731.584,1152.64 746.803,1133.28 747.116,1134.69 760.452,1115.36 757.35,1116.51 787.001,1080.93 773.887,1105.39 781.594,1096.79 809.905,1058.57 811.69,1062.56 809.467,1067.42 790.529,1087.63 772.711,1109.23 751.369,1131.71 779.765,1093.52 830.692,1038.23 806.609,1067.01 816.643,1057.96 807.163,1071.33 790.302,1090.04 789.386,1090.42 765.026,1113.22 759.83,1121.14 763.798,1114.85 774.54,1102.52 771.398,1110.2 786.972,1091.56 748.981,1133.12 713.977,1179.03 711.928,1175.57 716.837,1166.61 738.546,1138.84 731.433,1146.38 727.767,1151.01 764.183,1101.73 774.781,1095.76 825.546,1037.93 875.715,982.174 901.583,965.463 988.514,870.857 984.494,892.1 1015.05,864.143 1042.81,845.059 1145.12,747.836 1116.49,801.58 1105.9,813.336 1101.83,811.421 1162.12,756.443 1157.31,763.497 1197.09,727.738 1178.93,744.359 1100.71,811.844 1038.24,866.648 1013.59,890.419 1042.86,850.985 1089.72,808.633 1060.5,844.783 1049.66,852.755 1146.21,768.498 1182.12,742.784 1250.39,687.142 1295.72,651.052 1356.65,632.329 1298.96,683.901 1373.98,602.46 1504.89,512.095 1697.93,372.173 1701.29,402.309 1779.14,357.521 1709.21,421.574 1665.58,451.19 1679.23,432.542 1647.44,449.888 1522.2,552.313 1452.8,599.195 1358.3,670.177 1320.35,685.27 1260.34,728.019 1275.6,695.342 1248.39,712.23 1257.37,693.708 1283.37,662.145 1285.79,657.782 1279.02,669.029 1279.65,670.701 1189.27,757.098 1199.95,735.532 1186.54,745.882 1173.51,750.814 1125.41,790.339 1157.9,751.044 1213.43,698.447 1232.7,689.413 1306.5,627.247 1309.78,654.238 1308.68,660.417 1363.22,614.298 1327.02,653.553 1313.41,659.868 1283.47,682.655 1246.77,711.268 1218.56,729.708 1205.86,741.395 1170.65,763.983 1202.61,735.655 1193.05,732.42 1220.63,703.95 1248.33,682.466 1230.42,704.587 1253.19,694.455 1211.25,731.958 1161,771.407 1144.11,779.338 1130.32,787.859 1117.16,785.016 1055.7,846.296 1092.67,814.969 1032.98,866.485 1084.46,818.694 1144.66,751.249 1185.57,730.196 1100.28,813.369 1081.77,829.424 1110.76,790.056 1146.08,756.017 1199.33,721.354 1148.77,782.105 1139.44,780.892 1122.16,795.944 1179.99,741.428 1227.18,697.682 1106.65,804.548 1091.75,815.267 1114.97,795.691 1152.87,769.134 1281.81,658.331 1198.04,747.921 1151.54,772.854 1207.48,717.369 1294.16,648.328 1358.27,608.008 1409.96,559.168 1429.28,560.279 1331.98,655.044 1351.27,634.194 1237.02,722.736 1209.04,741.576 1147.83,793.841 1192.94,735.094 1170.47,759.792 1110.53,818.366 1024.94,897.086 1006.58,902.725 978.257,924.184 1004.1,884.809 994.808,897.791 973.319,916.519 957.245,934.137 957.664,925.929 943.739,935.619 946.41,928.568 953.463,928.28 943.243,940.354 984.105,894.087 982.958,898.294 1048.53,835.092 1002.28,885.626 1040.2,849.146 1069,822.141 1122.76,775.277 1076.03,814.201 1096.97,806.614 1021.55,876.812 1039.49,868.812 1048.42,855.464 1061.47,837.423 1028.99,865.553 1097.89,828.412 1138.09,774.119 1159.9,761.436 1190.21,729.677 1117.95,811.616 1099.37,824.981 1169.58,751.559 1096.88,813.814 1096.05,813.783 1061.39,840.79 1034.51,858.872 1115.13,778.06 1098.56,797.367 1112.88,786.793 1173.75,742.346 1201.26,725.722 1279.99,666.715 1276.67,675.968 1340.46,628.465 1210.56,735.314 1146.36,782.811 1135.53,780.454 1099.55,817.613 1068.43,834.56 1083.05,824.402 1108.44,802.196 1015.73,895.233 988.869,916.769 961.598,930.297 1054.66,822.091 1044.12,848.925 1073.87,817.512 1058.96,848.198 1081.34,822.907 1085.74,817.552 1008.87,892.92 966.187,931.846 953.963,935.313 983.762,903.531 982.43,894.804 990.571,892.956 945.712,950.43 965.18,920.473 976.542,919.753 1011.79,878.419 1056.28,836.112 1031.17,860.187 1142.88,756.243 1127.19,787.781 1187.63,732.65 1192.56,729.164 1179.02,748.879 1208.02,738.385 1212.3,719.681 1122.23,791.856 1049.97,854.226 1044.1,854.173 1017.62,874.054 957.73,925.673 986.034,906.051 1013.23,877.825 1007.97,866.505 1034.54,843.506 1049.29,822.556 1058.36,817.379 1141.09,759.669 1096.2,810.534 1074.82,823.067 1164.79,744.416 1197.59,730.833 1192.97,744.149 1156.98,776.594 1175.63,762.238 1239.86,704.058 1233.53,720.211 1276.8,694.133 1239.33,714.077 1170.14,772.664 1111.5,810.724 1142.82,771.404 1148.45,764.73 1196.15,730.176 1203.2,726.723 1249.55,693.911 1254.41,683.833 1119.99,819.753 1145.61,773.98 1188.9,739.418 1214.08,714.534 1331.97,629.853 1309.22,654.99 1362.2,615.93 1361.86,627.301 1349.67,633.294 1437.92,555.116 1348.72,649.559 1380.74,611.077 1488.35,524.556 1517.63,518.151 1542.27,497.684 1539.12,511.852 1459.04,571.353 1387.85,622.943 1450.51,552.47 1486.01,524.092 1416.4,590.956 1448.62,553.923 1415.88,588.524 1364.02,628.707 1255.24,721.9 1216.97,742.366 1198.41,749.967 1165.99,769.165 1145.81,783.742 1139.44,781.928 1145.81,767.879 1153.22,754.281 1104.49,803.723 1090.96,813.317 1104.32,799.336 1138.97,767.612 1091.88,817.151 1002.53,896.406 1025.92,867.52 1005.36,892.039 995.984,897.753 1007.6,874.849 1007.47,883.182 1071.94,816.361 1081.84,807.039 1125.04,764.435 1178.2,719.745 1220.12,699.494 1285.88,649.378 1294.23,673.007 1242.21,713.4 1188.91,749.873 1187.92,751.313 1225.8,699.446 1331.06,611.986 1415.56,576.999 1351.25,635.193 1389.32,598.621 1312.13,651.451 1221.16,737.942 1175.31,764.253 1156.51,774 1110.3,805.739 1120.27,789.964 1092.16,816.673 1104.13,810.136 1100.45,803.927 1130.9,776.893 1168.66,744.18 1106.65,810.702 1129.21,793.583 1177.96,754.431 1199.03,731.265 1141.11,779.477 1090.71,822.129 1029.93,871.474 999.986,887.852 994.202,886.881 954.152,931.083 965.582,926.19 971.81,917.607 1036.92,853.281 1069.82,830.496 1028.7,864.016 1002.12,880.873 1067.91,821.32 1093.57,809.001 1063.47,818.204 1057.6,831.375 1026.59,861.232 1049.46,835.471 1035.37,849.057 1129.38,768.732 1124.65,777.748 1184.93,752.551 1098.34,821.599 1103.84,816.743 1068.68,842.61 1020.65,882.958 1067.54,826.191 1002.58,902.026 992.65,903.307 927.705,967.841 938.91,944.235 944.215,934.581 986.922,891.977 966.302,918.812 994.376,898.961 1037.43,850.794 1044.16,845.624 1058.24,841.926 1038.87,853.938 1005.01,879.077 912.975,969.462 923.617,963.321 893.232,995.023 813.23,1074.33 841.996,1033.62 837.647,1039.52 874.709,996.826 905.815,964.705 933.124,948.489 875.855,1010.79 828.679,1052.38 838.819,1038.25 829.781,1041.53 845.84,1029.89 861.508,1011.14 804.973,1074.32 820.426,1056.32 815.869,1065.92 799.144,1079.6 811.022,1063.11 804.718,1075.18 829.944,1041.5 825.763,1051.88 867.713,1004.34 867.708,1012.52 902.21,962.789 887.953,987.935 925.08,949.723 935.475,931.374 959.655,914.135 983.157,900.8 985.252,901.721 1053.15,838.741 1082.25,828.909 1186.14,740.053 1282.72,661.295 1311.72,635.852 1370.63,596.79 1489.36,522.868 1485.76,545.723 1397.29,610.05 1412.82,586.929 1338.46,645.983 1324.52,657.278 1261.75,697.701 1246.95,706.723 1205.41,733.253 1243.87,687.242 1208.79,727.06 1137.46,788.269 1129.01,789.391 1087.16,823.723 1115.38,797.769 1110.15,801.873 1064.6,844.232 1103.67,800.6 1123.98,784.022 1130.8,778.781 1224.76,700.585 1234.76,696.276 1189.43,743.643 1085.88,842.407 1083.11,832.635 1042.82,867.043 1042.86,861.173 1107.47,785.023 1119.35,789.264 1141.63,770.438 1138.9,776.513 1178.16,731.178 1182.98,731.304 1124.84,795.578 1092.09,824.663 1147.21,758.491 1136.56,773.643 1080.23,829.393 1090.42,818.053 1114.03,784.33 1085.43,817.895 1029.47,868.126 1005.93,891.627 1011.25,879.305 1030.8,860.407 992.612,901.739 1040.61,842.702 1036.23,855.913 1137.4,760.205 1116.51,793.844 1173.52,738.002 1082.97,838.665 1031.02,880.298 1027.56,870.325 1065.03,829.859 1053.87,837.884 985.827,902.915 987.7,901.912 1019.91,865.631 969.43,919.307 919.971,968.088 924.857,958.169 975.128,918.454 954.446,934.645 1026.98,862.301 1003.35,888.42 1029.72,877.487 1004.19,893.733 1007.76,887.954 1012.35,879.893 1082.42,817.821 948.788,928.87 999.572,873.986 1039.28,851.868 977.191,923.038 991.39,891.903 980.365,908.045 970.515,915.442 943.296,938.417 948.821,926.874 919.526,953.325 944.44,931.219 924.063,951.37 961.814,931.824 913.173,977.762 910.164,972.622 891.117,991.039 905.73,969.124 998.442,855.602 1025.57,846.065 1025.52,855.794 1006.92,885.91 960.032,934.104 926.385,965.955 906.095,983.309 837.071,1054.51 842.254,1031.99 869.808,1001.56 839.513,1035.26 831.576,1046.94 826.333,1045.87 773.36,1108.9 814.459,1057.53 858.584,1009.01 873.205,995.622 853.294,1023.71 891.517,976.729 956.739,922.784 971.773,909.172 936.082,955.419 935.199,951.075 870.416,1014.39 890.831,989.253 896.209,982.313 954.979,915.609 989.27,890.849 1032.15,852.631 976.134,908.567 996.439,889.809 1054.42,832.513 1041.13,858.105 1143.82,765.418 1114.96,792.29 1079.69,830.217 1062.71,828.257 1093.28,803.758 1075.64,824.466 1080.61,828.792 1169.28,736.311 1174.4,739.408 1271.78,651.771 1232.78,687.856 1241.67,702.17 1122.48,803.416 1070.28,845.566 1097.92,814.203 1125.84,791.169 1135.62,783.491 1044.64,853.062 1055.59,835.486 1012.31,880.72 1062.94,818.696 1061.94,826.973 1101,797.979 1146.7,752.674 1092.56,813.058 1084.85,815.585 1097.16,809.418 1069.82,827.001 1075.39,819.445 1083.88,829.609 1090.55,819.329 1045.36,854.857 1108.22,790.65 1102.29,802.02 1121.49,795.592 1044.32,857.953 1034.88,873.142 1009.26,888.993 1032.64,860.522 1051.98,835.343 1094.07,801.746 1110.88,790.624 1109.89,793.226 1153.26,759.411 1182.65,734.677 1121.32,796.236 1146.97,768.14 1080.29,825.74 1060.04,843.587 1052.04,851.702 1111.95,792.633 1115.02,794.07 1168.71,749.063 1200.58,723.135 1251.2,688.051 1257.16,684.535 1220.36,717.597 1290.87,655.692 1295.56,672.184 1283.29,679.666 1259.35,689.583 1254.46,691.743 1227.32,711.953 1238.41,699.5 1150.91,779.641 1117.58,801.833 1129.51,793.826 1130.29,791.93 1009.26,900.989 1018.14,874.904 1061.16,828.637 1115.54,787.3 1105.23,799.888 1130.77,773.126 1156.62,754.884 1186.73,729.493 1263.44,676.845 1298.53,651.903 1293.15,655.682 1334.71,634.417 1277.81,684.309 1256.06,694.659 1254.89,694.887 1303.89,645.989 1283.73,677.986 1264.6,694.779 1197.88,740.215 1217.12,720.999 1222.8,716.452 1187.4,750.196 1093.08,829.215 1062.45,854.641 1017.75,893.985 952.38,947.107 936.376,952.491 943.356,936.512 924.852,955.161 875.574,1002.21 865.249,1012.2 855.813,1017.43 841.361,1029.3 805.912,1070.25 842.304,1030.65 821.843,1058.03 829.332,1046.96 833.811,1041.18 858.053,1011.41 830.717,1047.05 826.007,1050.06 857.13,1008.44 910.58,948.378 938.019,929.421 951.081,923.544 977.605,899.735 1013.04,872.582 999.29,884.298 1065.9,820.339 1065.08,829.496 1091.18,811.023 986.07,916.964 925.366,969.436 922.245,961.941 907.569,973.023 989.229,882.507 1013.96,869.185 986.571,900.514 976.396,906.152 900.599,979.646 892.467,983.877 924.828,954.054 941.759,938.078 980.962,881.951 984.122,884.11 996.723,879.812 997.929,887.334 1025.8,860.753 1038.29,860.904 1068.15,833.469 1067.4,837.046 1078.52,826.512 1049.44,861.385 1023.13,860.577 1060.56,834.218 1111.55,789.808 1126.35,767.059 1106.13,794.812 1159.78,759.297 1012.96,888.279 967.237,931.308 1022.68,857.862 1092.56,788.221 1143.47,770.71 1125.09,794.406 1035.37,882.559 999.027,902.571 990.516,904.878 961.371,928.944 948.557,938.695 924.811,960.821 945.96,933.747 943.231,930.744 913.962,965.026 893.259,988.667 879.762,1000.45 861.227,1021.05 874.591,998.323 900.466,975.561 897.476,979.757 832.48,1055.17 868.301,1001.08 931.794,929.368 958.209,914.584 967.288,919.365 957.971,925.869 946.319,940.064 978.451,905.967 962.635,928.146 1051.06,832.396 1028.29,860.858 1026.99,869.353 1172.71,736.554 1186.12,729.386 1235.97,690.468 1243.53,693.699 1143.91,784.109 1261.75,671.849 1269.99,656.442 1175.76,735.301 1063.34,819.465 1117.96,775.118 1079.16,831.279 1028.85,855.74 1088.99,799.383 996.042,905.548 995.618,898.605 989.438,901.469 934.002,954.862 910.919,970.377 886.792,990.034 854.227,1022.33 808.466,1074.58 823.441,1053.91 781.209,1101.32 815.09,1059.74 820.086,1053.77 797.755,1077.71 851.783,1011.99 887.139,976.397 931.765,943.038 941.481,940.126 960.03,927.092 997.209,887.828 985.948,894.306 973.697,913.103 1054.47,829.647 1147.48,758.016 1052.02,851.17 1025.15,882.191 1037.36,867.808 1043.78,870.706 1060.72,846.013 1041.91,863.816 1158.23,769.319 1233.96,700.487 1185.7,734.115 1264.11,702.524 1382.35,582.549 1314.06,657.299 1274.27,693.011 1190.84,754.436 1239.51,695.818 1285.08,652.297 1378.82,577.32 1360.62,602.991 1353.59,609.958 1453.03,539.795 1508.43,508.924 1453.66,563.941 1323.02,674.375 1213.94,760.415 1138.43,816.349 1044.52,894.641 1044.46,873.512 991.614,921.216 977.403,922.861 979.724,911.111 1002.4,881.288 1013.38,871.553 983.411,908.44 938.851,949.057 967.022,912.641 910.21,978.6 961.205,913.275 963.584,914.729 978.353,901.834 948.039,940.149 1022.22,851.91 1051.77,830.014 1064.64,820.036 1068.26,822.308 1082.52,806.394 1053.94,842 1084.52,810.263 1077.68,821.794 945.074,942.28 975.269,903.015 1043.18,843.378 1047.2,835.431 1040.73,841.649 1016.09,868.838 1039.75,842.647 1037.34,853.397 1041.59,859.492 1030.77,859.921 983.196,900.186 1095.49,797.181 1206.62,697.079 1300.44,634.161 1204.79,721.513 1261.92,673.802 1184,752.38 1073.61,849.884 1152.43,759.315 1099.96,813.652 1056.44,857.084 1074.81,817.909 1100.28,793.274 1174.08,726.797 1259.36,661.691 1224.09,709.632 1201.6,734.627 1207.26,726.368 1242.43,686.049 1174.5,750.474 1220.56,708.196 1156.66,755.367 1147.78,771.445 1111.27,813.2 1222.35,714.753 1178.41,761.707 1265.2,672.593 1137.41,788.144 1132.63,789.56 1138.4,778.298 1156.97,754.666 1143.7,777.302 1115.52,794.228 1110.7,798.206 962.486,930.009 1002.92,876.342 1065.58,823.593 1023.75,873.758 1069.95,819.884 1072.85,828.111 1037.01,868.12 991.246,909.994 977.381,918.765 985.893,904.464 954.333,930.402 990.409,889.808 1022.93,859.518 1094.52,789.298 1077.71,817.78 1160.36,743.043 1198.85,719.932 1175.5,752.859 1232.81,699.622 1186.86,752.682 1125.04,798.909 1146.01,768.156 1137.59,779.09 1218.31,706.154 1152.76,778.734 1116.17,811.451 1151.59,767.068 1110.55,809.326 1045.13,869.756 1051.22,847.229 1024.22,872.372 1011.14,876.811 990.826,897.536 970.287,926.689 915.525,972.792 956.876,919.309 977.325,892.106 948.696,931.79 1006.15,873.43 1000.87,886.593 1032.78,862.4 1048.41,850.027 1110.69,788.92 1127.33,772.072 1131.71,773.286 1035.25,863.561 1046.29,839.216 1033.17,835.685 1092.12,793.64 1109.65,791.139 1094.39,816.706 1224.64,705.713 1208.4,721.684 1146.88,780.223 1157.71,767.717 1151.57,758.999 1210.09,713.163 1262.23,691.448 1169.92,765.51 1143.22,784.671 1244.8,691.185 1312.37,635.722 1386.94,593.473 1368.41,610.665 1338.44,624.36 1369.66,606.126 1399.33,577.959 1396.65,588.93 1306.64,659.966 1263.38,696.872 1182.8,762.389 1174.57,757.413 1228.9,697.465 1066.15,854.18 1028.52,879.991 998.539,912.453 989.23,902.245 958.876,930.749 946.74,943.989 934.278,952.193 945.713,937.803 980.379,898.414 996.881,885.524 1030.87,856.006 979.083,911.514 1027,862.054 1030.08,870.582 1028.98,867.765 1087.07,801.858 1066.73,823.73 1024.14,859.26 1056.32,823.401 1100.57,781.334 1068.24,820.227 1055.66,829.227 1032.77,855.552 958.311,920.406 991.695,885.157 1061.53,827.792 1089.12,800.545 1112.49,772.308 1111.09,788.328 1096.1,803.029 1184.47,746.849 1168.54,757.281 1148.19,778.368 1205.39,719.394 1208.78,724.084 1087.9,837.656 1051.01,859.94 1071.69,825.442 1058.31,840.775 1055.45,837.81 1131.53,767.973 1183.23,723.783 1156.03,760.556 1217.22,704.377 1159.3,757.84 1174.62,748.184 1201.38,737.16 1279.28,672.058 1459.38,519.182 1375.66,606.337 1233.01,723.755 1181.55,760.541 1160.26,768.471 1094.35,824.041 1071.8,832.788 1079.14,823.694 1028.17,878.88 1023.13,868.586 1016.14,876.171 1055.9,836.319 1096.47,800.401 1094.59,803.643 1131.99,774.412 1106.97,797.627 1113.76,790.928 1099.79,804.064 1151.83,772.937 1182.36,737.517 1134.37,782.901 1128.51,793.468 1176.68,745.327 1241.84,692.948 1249.13,700.8 1242.69,719.162 1147.51,787.914 1097.71,826.564 1013.57,905.769 1049.32,851.701 1030.52,866.378 1065.55,832.068 1026.84,868.29 1048.01,840.362 1095.28,806.463 1115.11,793.322 1121.13,787.542 1188.65,719.457 1212.28,702.883 1174.6,748.874 1272.37,674.469 1257.6,696.989 1262.81,682.736 1308.09,651.634 1289.57,666.683 1245.33,702.053 1287.5,657.25 1237.81,688.306 1277.95,654.39 1239.63,715.489 1275.21,670.245 1282.86,675.024 1311.83,668.531 1363.98,637.348 1330.85,644.824 1350.34,622.525 1366.14,611.937 1351.13,628.364 1305.97,669.474 1256.17,708.336 1241.58,708.229 1234.03,708.719 1229.73,711.108 1234.06,707.699 1241.73,690.682 1195.93,728.996 1275.88,663.568 1138.08,789.188 1135.02,780.383 1190.33,723.88 1248.68,670.26 1156.86,762.236 1128.49,798.385 1131.67,777.844 1074.09,843.038 1126.27,777.087 1162.06,749.33 1127.56,780.817 1140.03,758.148 1149.39,773.682 1154.28,759.91 1276.79,651.165 1359.06,591.563 1359,609.292 1336.44,644.749 1387.37,607.24 1328.21,647.339 1418.22,563.447 1436.3,554.922 1438.8,557.856 1362.55,637.643 1389,611.263 1359.15,631.416 1400.36,589.831 1433.69,561.037 1415.76,587.96 1258.53,722.145 1244.94,718.447 1184.21,762.01 1185.02,747.356 1242.93,687.085 1202.62,727.397 1201.55,729.569 1237.65,692.714 1299.74,644.951 1350.09,604.68 1388.47,577.2 1313.65,647.073 1220.15,737.032 1295.32,655.256 1224.44,712.607 1206.52,722.827 1109.18,813.896 1056.25,856.702 1043.66,859.081 1042.81,858.623 1073.54,812.023 1056.59,835.762 1022.69,876.224 961.591,943.84 931.546,964.979 983.59,897.616 1006.11,871.928 1042.64,844.758 1057.46,839.197 974.051,918.038 988.357,889.915 1048.52,837.911 1171.38,716.887 1173.75,736.037 1232.9,696.239 1246.59,699.385 1236.31,709.003 1226.9,709.028 1193.02,751.034 1150.13,779.801 1274.37,661.56 1287.86,661.041 1312.93,652.065 1308.22,647.398 1291.17,679.915 1244.52,728.269 1189.46,759.827 1154.8,779.832 1131.21,789.225 1165.14,757.122 1132.48,784.198 1066.86,850.746 1057.75,848.8 1030.64,873.27 1056.88,835.16 1076.94,823.315 1110.1,794.671 1076.52,820.351 1222.37,684.049 1250,685.499 1319.67,623.809 1436.88,550.35 1324.35,660.28 1345.13,632.415 1293,672.267 1292.72,673.2 1288.7,663.944 1284.01,673.828 1281.33,673.448 1240.72,706.087 1243.38,692.442 1256.01,688.794 1321.85,647.906 1280.01,682.93 1219.3,735.787 1137.73,802.878 1153.71,774.045 1160.97,761.752 1106.62,813.091 1081.02,832.213 1103.47,798.179 1110.58,794.591 1067.57,845.556 1077.16,821.7 1123.49,777.885 1052.7,851.896 1090.83,819.411 1055.59,850.191 999.475,903.619 1029.52,862.406 1011.36,884.734 1030.25,858.459 1030.79,862.83 1098.2,808.674 1034.16,866.254 1091.51,807.414 1056.89,846.544 1024.63,878.42 970.064,917.755 928.577,974.129 887.654,1003.28 887.574,996.463 950.428,923.531 946.427,933.297 935.107,943.028 986.917,887.878 1028.69,853.486 1044.32,847.73 1019.14,878.375 1038.69,854.227 1064.31,832.215 1040.09,852.292 1068.12,845.224 1018.82,886.906 1059.63,841.295 1105.19,800.372 1085.87,815.983 1172.72,742.034 1205.72,713.597 1135.04,783.78 1096.36,821.439 1135.4,774.025 1129.94,776.925 1175.41,746.112 1154.39,769.774 1173.28,745.926 1155.17,763.501 1117.48,795.547 1129.31,780.534 1147.18,759.2 1138.33,778.064 1063.92,853.677 1033.77,868.85 1039.46,858.928 1084.7,813.268 1100.18,805.818 1051.49,847.651 940.428,956.008 905.675,986.14 855.614,1030.85 885.553,988.134 909.361,965.613 942.65,931.301 964.23,909.97 942.678,940.758 934.231,954.245 979.023,902.4 925.771,963.518 988.526,895.245 1006.54,880.445 1036.09,846.033 1177.58,715.148 1223.87,682.28 1263.02,669.385 1362.45,592.942 1347.7,632.68 1313.51,662.178 1218.97,734.405 1192.99,750.36 1157.43,778.04 1112.41,818.046 1131.25,781.423 1155.14,765.546 1188.09,728.598 1221.08,706.395 1304.68,647.588 1294.43,661.384 1330.99,640.811 1373,603.385 1373.07,611.948 1313.69,659.904 1351.64,625.597 1366.82,607.175 1324.14,656.741 1339.7,631.112 1265,698.064 1235.77,706.053 1282,661.193 1236.37,719.829 1260.85,689.216 1190.56,743.666 1215.98,714.962 1228.64,711.121 1239.46,702.841 1159.11,767.884 1229.63,687.364 1249.91,684.999 1234.44,707.913 1279.16,667.39 1275.75,683.891 1263.71,700.859 1198.34,746.022 1195.51,737.708 1141.56,781.376 1104.21,813.613 1158.91,747.505 1251.35,660.627 1291.17,654.274 1278.75,677.705 1241.11,701.321 1217.01,725.511 1205.21,730.332 1097.82,826.467 1161.02,750.386 1050.34,857.647 1057.15,842.908 1068.64,826.657 1003.94,897.093 989.301,900.982 997.736,889.348 1014.09,868.89 999.024,895.303 1049.08,846.892 1157.86,738.033 1287.33,635.911 1289.49,650.996 1334.51,620.273 1316.12,654.431 1372.14,603.789 1418.31,572.022 1339.06,637.584 1431.32,544.692 1494.02,537.847 1435.03,580.919 1409.51,595.568 1414,591.115 1438.22,568.516 1454.6,551.036 1412.8,591.615 1406.51,607.094 1294.5,701.707 1230.77,740.137 1191.14,759.39 1144.88,791.269 1212.89,710.172 1250.97,674.931 1332.93,613.716 1359.89,598.858 1322.56,638.203 1318.28,643.271 1353.48,610.789 1349.49,617.031 1270.55,695.78 1265.56,694.557 1302.44,651.511 1226.07,720.63 1219.22,713.477 1278.16,664.141 1317.72,635.111 1225.2,726.12 1251.54,685.558 1226.04,713.28 1264.89,679.543 1223.39,724.925 1185.48,752.661 1220.55,720.02 1205.41,746.758 1229.97,720.444 1267.83,667.125 1354.74,600.973 1306.79,647.033 1267.64,682.281 1264.53,683.399 1288.64,670.703 1458.77,539.527 1433.44,556.983 1475.19,539.063 1430.43,571.143 1377.67,617.292 1240.55,735.339 1215.54,735.771 1264.77,675.804 1236.41,709.555 1249.21,690.324 1277.32,666.618 1310.39,641.152 1166.13,766.352 1155.09,769.958 1139.64,777.606 1120.54,788.209 1212.78,702.001 1201.52,729.697 1230.02,691.079 1166.14,752.58 1128.8,787.537 1139.26,779.854 1191.86,728.85 1183.99,746.413 1232.69,717.079 1217.45,736.508 1151.21,797.275 1152.04,777.067 1140.6,767.8 1127.26,793.337 1041.75,866.359 1017.45,879.712 967.842,922.477 938.174,948.355 961.481,918.271 945.554,936.218 1066.02,819.542 1104.63,792.791 1111.8,791.233 1201.49,710.853 1161.42,764.75 1085.78,829.557 1122.83,786.447 1151.38,762.995 1148.46,757.066 1155.01,759.448 1147.14,763.512 1113.74,791.39 1053.22,841.003 962.432,928.662 968.769,921.995 962.332,924.322 991.953,888.879 1033.65,864.887 1074.56,805.396 1144.14,751.437 1115.66,791.038 1133.79,782.984 1099.58,811.401 975.617,921.95 949.631,941.906 977.611,900.682 895.98,992.213 823.134,1074.69 810.443,1073.4 834.453,1042.14 824.327,1049.73 817.108,1062.3 821.419,1051.46 811.811,1061.32 807.995,1064.52 797.705,1078.43 824.041,1042.49 846.712,1016.84 832.795,1039.46 813.207,1062.26 797.715,1081.75 805.163,1071.81 837.018,1035.59 844.732,1027.92 839.21,1035.52 882.609,984.688 915.593,955.199 904.699,967.121 906.179,976.528 977.84,897.225 953.022,925.794 984.479,891.745 1029.81,865.008 967.626,923.659 939.125,954.223 923.741,961.926 995.017,887.582 1023.24,853.185 1111.3,786.139 1141.89,769.437 1169.3,750.901 1222.43,695.486 1181.98,739.003 1149.63,779.963 1171.75,764.782 1158.07,774.821 1123.53,809.949 1046.21,866.079 1066.77,836.66 1107.64,791.224 1123.11,777.995 1194.08,719.192 1172.33,746.463 1205.34,718.031 1269.14,664.839 1300.56,646.354 1171.89,769.935 1056.71,865.803 1032.22,882.028 1026.33,875.445 1047.75,851.012 1057.26,833.813 1062.15,831.225 1109.66,783.457 1044.82,858.112 1010.86,886.494 990.947,901.415 1031.39,855.618 1013.89,879.39 1001.27,893.115 997.721,896.972 1118.63,786.288 1142.05,764.373 1153.36,765.439 1172.91,747.745 1111.12,804.72 1140.53,769.228 1063.08,849.31 1091.85,818.21 1003.17,892.577 1126.76,771.167 1142.87,762.991 1167.81,741.752 1130.49,794.146 1069.63,832.826 1015.09,885.188 1027.92,865.437 1070.26,830.119 1018.94,877.907 1052.61,840.157 1096.19,802.109 1179.99,739.809 1193.09,735.141 1181.49,741.138 1165.1,766.012 1118.88,798.099 1172.91,745.803 1166.35,754.569 1045.82,858.533 1059.26,839.895 1077.05,825.294 1138.29,765.26 1180.45,741.256 1196.95,729.529 1163.69,760.408 1129.23,793.2 1137.66,780.524 1108.31,812.156 1149.39,749.343 1047.94,851.849 "/>
<path clip-path="url(#clip660)" d="M212.753 198.898 L574.108 198.898 L574.108 95.2176 L212.753 95.2176  Z" fill="#ffffff" fill-rule="evenodd" fill-opacity="1"/>
<polyline clip-path="url(#clip660)" style="stroke:#000000; stroke-linecap:round; stroke-linejoin:round; stroke-width:4; stroke-opacity:1; fill:none" points="212.753,198.898 574.108,198.898 574.108,95.2176 212.753,95.2176 212.753,198.898 "/>
<polyline clip-path="url(#clip660)" style="stroke:#009af9; stroke-linecap:round; stroke-linejoin:round; stroke-width:4; stroke-opacity:1; fill:none" points="237.35,147.058 384.937,147.058 "/>
<path clip-path="url(#clip660)" d="M420.16 128.366 Q417.058 133.69 415.553 138.898 Q414.048 144.106 414.048 149.453 Q414.048 154.801 415.553 160.055 Q417.081 165.287 420.16 170.588 L416.456 170.588 Q412.984 165.148 411.248 159.893 Q409.535 154.639 409.535 149.453 Q409.535 144.291 411.248 139.06 Q412.96 133.828 416.456 128.366 L420.16 128.366 Z" fill="#000000" fill-rule="nonzero" fill-opacity="1" /><path clip-path="url(#clip660)" d="M426.572 138.412 L446.803 138.412 L446.803 142.301 L430.784 160.935 L446.803 160.935 L446.803 164.338 L425.993 164.338 L425.993 160.449 L442.011 141.815 L426.572 141.815 L426.572 138.412 Z" fill="#000000" fill-rule="nonzero" fill-opacity="1" /><path clip-path="url(#clip660)" d="M454.395 158.458 L459.28 158.458 L459.28 162.439 L455.483 169.847 L452.497 169.847 L454.395 162.439 L454.395 158.458 Z" fill="#000000" fill-rule="nonzero" fill-opacity="1" /><path clip-path="url(#clip660)" d="M479.164 166.745 Q477.358 171.375 475.645 172.787 Q473.932 174.199 471.062 174.199 L467.659 174.199 L467.659 170.634 L470.159 170.634 Q471.918 170.634 472.891 169.8 Q473.863 168.967 475.043 165.865 L475.807 163.921 L465.321 138.412 L469.835 138.412 L477.937 158.689 L486.039 138.412 L490.553 138.412 L479.164 166.745 Z" fill="#000000" fill-rule="nonzero" fill-opacity="1" /><path clip-path="url(#clip660)" d="M497.52 158.458 L502.404 158.458 L502.404 162.439 L498.608 169.847 L495.622 169.847 L497.52 162.439 L497.52 158.458 Z" fill="#000000" fill-rule="nonzero" fill-opacity="1" /><path clip-path="url(#clip660)" d="M533.052 138.412 L523.677 151.027 L533.539 164.338 L528.515 164.338 L520.969 154.152 L513.423 164.338 L508.4 164.338 L518.469 150.773 L509.256 138.412 L514.279 138.412 L521.154 147.648 L528.029 138.412 L533.052 138.412 Z" fill="#000000" fill-rule="nonzero" fill-opacity="1" /><path clip-path="url(#clip660)" d="M538.886 128.366 L542.589 128.366 Q546.062 133.828 547.775 139.06 Q549.511 144.291 549.511 149.453 Q549.511 154.639 547.775 159.893 Q546.062 165.148 542.589 170.588 L538.886 170.588 Q541.964 165.287 543.469 160.055 Q544.997 154.801 544.997 149.453 Q544.997 144.106 543.469 138.898 Q541.964 133.69 538.886 128.366 Z" fill="#000000" fill-rule="nonzero" fill-opacity="1" /></svg>
