<?xml version="1.0" encoding="utf-8"?>
<svg xmlns="http://www.w3.org/2000/svg" xmlns:xlink="http://www.w3.org/1999/xlink" width="600" height="400" viewBox="0 0 2400 1600">
<defs>
  <clipPath id="clip820">
    <rect x="0" y="0" width="2400" height="1600"/>
  </clipPath>
</defs>
<path clip-path="url(#clip820)" d="M0 1600 L2400 1600 L2400 0 L0 0  Z" fill="#ffffff" fill-rule="evenodd" fill-opacity="1"/>
<defs>
  <clipPath id="clip821">
    <rect x="480" y="0" width="1681" height="1600"/>
  </clipPath>
</defs>
<path clip-path="url(#clip820)" d="M193.936 1423.18 L2352.76 1423.18 L2352.76 47.2441 L193.936 47.2441  Z" fill="#ffffff" fill-rule="evenodd" fill-opacity="1"/>
<defs>
  <clipPath id="clip822">
    <rect x="193" y="47" width="2160" height="1377"/>
  </clipPath>
</defs>
<polyline clip-path="url(#clip822)" style="stroke:#000000; stroke-linecap:round; stroke-linejoin:round; stroke-width:2; stroke-opacity:0.1; fill:none" points="193.936,1423.18 193.936,47.2441 "/>
<polyline clip-path="url(#clip822)" style="stroke:#000000; stroke-linecap:round; stroke-linejoin:round; stroke-width:2; stroke-opacity:0.1; fill:none" points="625.7,1423.18 625.7,47.2441 "/>
<polyline clip-path="url(#clip822)" style="stroke:#000000; stroke-linecap:round; stroke-linejoin:round; stroke-width:2; stroke-opacity:0.1; fill:none" points="1057.46,1423.18 1057.46,47.2441 "/>
<polyline clip-path="url(#clip822)" style="stroke:#000000; stroke-linecap:round; stroke-linejoin:round; stroke-width:2; stroke-opacity:0.1; fill:none" points="1489.23,1423.18 1489.23,47.2441 "/>
<polyline clip-path="url(#clip822)" style="stroke:#000000; stroke-linecap:round; stroke-linejoin:round; stroke-width:2; stroke-opacity:0.1; fill:none" points="1920.99,1423.18 1920.99,47.2441 "/>
<polyline clip-path="url(#clip822)" style="stroke:#000000; stroke-linecap:round; stroke-linejoin:round; stroke-width:2; stroke-opacity:0.1; fill:none" points="2352.76,1423.18 2352.76,47.2441 "/>
<polyline clip-path="url(#clip822)" style="stroke:#000000; stroke-linecap:round; stroke-linejoin:round; stroke-width:2; stroke-opacity:0.1; fill:none" points="193.936,1232.48 2352.76,1232.48 "/>
<polyline clip-path="url(#clip822)" style="stroke:#000000; stroke-linecap:round; stroke-linejoin:round; stroke-width:2; stroke-opacity:0.1; fill:none" points="193.936,1035.18 2352.76,1035.18 "/>
<polyline clip-path="url(#clip822)" style="stroke:#000000; stroke-linecap:round; stroke-linejoin:round; stroke-width:2; stroke-opacity:0.1; fill:none" points="193.936,837.878 2352.76,837.878 "/>
<polyline clip-path="url(#clip822)" style="stroke:#000000; stroke-linecap:round; stroke-linejoin:round; stroke-width:2; stroke-opacity:0.1; fill:none" points="193.936,640.579 2352.76,640.579 "/>
<polyline clip-path="url(#clip822)" style="stroke:#000000; stroke-linecap:round; stroke-linejoin:round; stroke-width:2; stroke-opacity:0.1; fill:none" points="193.936,443.279 2352.76,443.279 "/>
<polyline clip-path="url(#clip822)" style="stroke:#000000; stroke-linecap:round; stroke-linejoin:round; stroke-width:2; stroke-opacity:0.1; fill:none" points="193.936,245.98 2352.76,245.98 "/>
<polyline clip-path="url(#clip822)" style="stroke:#000000; stroke-linecap:round; stroke-linejoin:round; stroke-width:2; stroke-opacity:0.1; fill:none" points="193.936,48.681 2352.76,48.681 "/>
<polyline clip-path="url(#clip820)" style="stroke:#000000; stroke-linecap:round; stroke-linejoin:round; stroke-width:4; stroke-opacity:1; fill:none" points="193.936,1423.18 2352.76,1423.18 "/>
<polyline clip-path="url(#clip820)" style="stroke:#000000; stroke-linecap:round; stroke-linejoin:round; stroke-width:4; stroke-opacity:1; fill:none" points="193.936,1423.18 193.936,1404.28 "/>
<polyline clip-path="url(#clip820)" style="stroke:#000000; stroke-linecap:round; stroke-linejoin:round; stroke-width:4; stroke-opacity:1; fill:none" points="625.7,1423.18 625.7,1404.28 "/>
<polyline clip-path="url(#clip820)" style="stroke:#000000; stroke-linecap:round; stroke-linejoin:round; stroke-width:4; stroke-opacity:1; fill:none" points="1057.46,1423.18 1057.46,1404.28 "/>
<polyline clip-path="url(#clip820)" style="stroke:#000000; stroke-linecap:round; stroke-linejoin:round; stroke-width:4; stroke-opacity:1; fill:none" points="1489.23,1423.18 1489.23,1404.28 "/>
<polyline clip-path="url(#clip820)" style="stroke:#000000; stroke-linecap:round; stroke-linejoin:round; stroke-width:4; stroke-opacity:1; fill:none" points="1920.99,1423.18 1920.99,1404.28 "/>
<polyline clip-path="url(#clip820)" style="stroke:#000000; stroke-linecap:round; stroke-linejoin:round; stroke-width:4; stroke-opacity:1; fill:none" points="2352.76,1423.18 2352.76,1404.28 "/>
<path clip-path="url(#clip820)" d="M193.936 1454.1 Q190.325 1454.1 188.496 1457.66 Q186.691 1461.2 186.691 1468.33 Q186.691 1475.44 188.496 1479.01 Q190.325 1482.55 193.936 1482.55 Q197.57 1482.55 199.376 1479.01 Q201.204 1475.44 201.204 1468.33 Q201.204 1461.2 199.376 1457.66 Q197.57 1454.1 193.936 1454.1 M193.936 1450.39 Q199.746 1450.39 202.802 1455 Q205.88 1459.58 205.88 1468.33 Q205.88 1477.06 202.802 1481.67 Q199.746 1486.25 193.936 1486.25 Q188.126 1486.25 185.047 1481.67 Q181.992 1477.06 181.992 1468.33 Q181.992 1459.58 185.047 1455 Q188.126 1450.39 193.936 1450.39 Z" fill="#000000" fill-rule="nonzero" fill-opacity="1" /><path clip-path="url(#clip820)" d="M620.353 1481.64 L636.672 1481.64 L636.672 1485.58 L614.728 1485.58 L614.728 1481.64 Q617.39 1478.89 621.973 1474.26 Q626.58 1469.61 627.76 1468.27 Q630.006 1465.74 630.885 1464.01 Q631.788 1462.25 631.788 1460.56 Q631.788 1457.8 629.843 1456.07 Q627.922 1454.33 624.82 1454.33 Q622.621 1454.33 620.168 1455.09 Q617.737 1455.86 614.959 1457.41 L614.959 1452.69 Q617.783 1451.55 620.237 1450.97 Q622.691 1450.39 624.728 1450.39 Q630.098 1450.39 633.293 1453.08 Q636.487 1455.77 636.487 1460.26 Q636.487 1462.39 635.677 1464.31 Q634.89 1466.2 632.783 1468.8 Q632.205 1469.47 629.103 1472.69 Q626.001 1475.88 620.353 1481.64 Z" fill="#000000" fill-rule="nonzero" fill-opacity="1" /><path clip-path="url(#clip820)" d="M1060.47 1455.09 L1048.67 1473.54 L1060.47 1473.54 L1060.47 1455.09 M1059.25 1451.02 L1065.13 1451.02 L1065.13 1473.54 L1070.06 1473.54 L1070.06 1477.43 L1065.13 1477.43 L1065.13 1485.58 L1060.47 1485.58 L1060.47 1477.43 L1044.87 1477.43 L1044.87 1472.92 L1059.25 1451.02 Z" fill="#000000" fill-rule="nonzero" fill-opacity="1" /><path clip-path="url(#clip820)" d="M1489.63 1466.44 Q1486.48 1466.44 1484.63 1468.59 Q1482.8 1470.74 1482.8 1474.49 Q1482.8 1478.22 1484.63 1480.39 Q1486.48 1482.55 1489.63 1482.55 Q1492.78 1482.55 1494.61 1480.39 Q1496.46 1478.22 1496.46 1474.49 Q1496.46 1470.74 1494.61 1468.59 Q1492.78 1466.44 1489.63 1466.44 M1498.92 1451.78 L1498.92 1456.04 Q1497.16 1455.21 1495.35 1454.77 Q1493.57 1454.33 1491.81 1454.33 Q1487.18 1454.33 1484.73 1457.45 Q1482.3 1460.58 1481.95 1466.9 Q1483.31 1464.89 1485.37 1463.82 Q1487.43 1462.73 1489.91 1462.73 Q1495.12 1462.73 1498.13 1465.9 Q1501.16 1469.05 1501.16 1474.49 Q1501.16 1479.82 1498.01 1483.03 Q1494.86 1486.25 1489.63 1486.25 Q1483.64 1486.25 1480.47 1481.67 Q1477.3 1477.06 1477.3 1468.33 Q1477.3 1460.14 1481.18 1455.28 Q1485.07 1450.39 1491.62 1450.39 Q1493.38 1450.39 1495.17 1450.74 Q1496.97 1451.09 1498.92 1451.78 Z" fill="#000000" fill-rule="nonzero" fill-opacity="1" /><path clip-path="url(#clip820)" d="M1920.99 1469.17 Q1917.66 1469.17 1915.74 1470.95 Q1913.84 1472.73 1913.84 1475.86 Q1913.84 1478.98 1915.74 1480.77 Q1917.66 1482.55 1920.99 1482.55 Q1924.33 1482.55 1926.25 1480.77 Q1928.17 1478.96 1928.17 1475.86 Q1928.17 1472.73 1926.25 1470.95 Q1924.35 1469.17 1920.99 1469.17 M1916.32 1467.18 Q1913.31 1466.44 1911.62 1464.38 Q1909.95 1462.32 1909.95 1459.35 Q1909.95 1455.21 1912.89 1452.8 Q1915.85 1450.39 1920.99 1450.39 Q1926.15 1450.39 1929.09 1452.8 Q1932.03 1455.21 1932.03 1459.35 Q1932.03 1462.32 1930.34 1464.38 Q1928.68 1466.44 1925.69 1467.18 Q1929.07 1467.96 1930.95 1470.26 Q1932.84 1472.55 1932.84 1475.86 Q1932.84 1480.88 1929.77 1483.57 Q1926.71 1486.25 1920.99 1486.25 Q1915.27 1486.25 1912.2 1483.57 Q1909.14 1480.88 1909.14 1475.86 Q1909.14 1472.55 1911.04 1470.26 Q1912.94 1467.96 1916.32 1467.18 M1914.6 1459.79 Q1914.6 1462.48 1916.27 1463.98 Q1917.96 1465.49 1920.99 1465.49 Q1924 1465.49 1925.69 1463.98 Q1927.4 1462.48 1927.4 1459.79 Q1927.4 1457.11 1925.69 1455.6 Q1924 1454.1 1920.99 1454.1 Q1917.96 1454.1 1916.27 1455.6 Q1914.6 1457.11 1914.6 1459.79 Z" fill="#000000" fill-rule="nonzero" fill-opacity="1" /><path clip-path="url(#clip820)" d="M2327.44 1481.64 L2335.08 1481.64 L2335.08 1455.28 L2326.77 1456.95 L2326.77 1452.69 L2335.04 1451.02 L2339.71 1451.02 L2339.71 1481.64 L2347.35 1481.64 L2347.35 1485.58 L2327.44 1485.58 L2327.44 1481.64 Z" fill="#000000" fill-rule="nonzero" fill-opacity="1" /><path clip-path="url(#clip820)" d="M2366.8 1454.1 Q2363.18 1454.1 2361.36 1457.66 Q2359.55 1461.2 2359.55 1468.33 Q2359.55 1475.44 2361.36 1479.01 Q2363.18 1482.55 2366.8 1482.55 Q2370.43 1482.55 2372.23 1479.01 Q2374.06 1475.44 2374.06 1468.33 Q2374.06 1461.2 2372.23 1457.66 Q2370.43 1454.1 2366.8 1454.1 M2366.8 1450.39 Q2372.61 1450.39 2375.66 1455 Q2378.74 1459.58 2378.74 1468.33 Q2378.74 1477.06 2375.66 1481.67 Q2372.61 1486.25 2366.8 1486.25 Q2360.99 1486.25 2357.91 1481.67 Q2354.85 1477.06 2354.85 1468.33 Q2354.85 1459.58 2357.91 1455 Q2360.99 1450.39 2366.8 1450.39 Z" fill="#000000" fill-rule="nonzero" fill-opacity="1" /><path clip-path="url(#clip820)" d="M1272.41 1522.27 L1272.41 1532.4 L1284.47 1532.4 L1284.47 1536.95 L1272.41 1536.95 L1272.41 1556.3 Q1272.41 1560.66 1273.58 1561.9 Q1274.79 1563.14 1278.45 1563.14 L1284.47 1563.14 L1284.47 1568.04 L1278.45 1568.04 Q1271.67 1568.04 1269.1 1565.53 Q1266.52 1562.98 1266.52 1556.3 L1266.52 1536.95 L1262.22 1536.95 L1262.22 1532.4 L1266.52 1532.4 L1266.52 1522.27 L1272.41 1522.27 Z" fill="#000000" fill-rule="nonzero" fill-opacity="1" /><polyline clip-path="url(#clip820)" style="stroke:#000000; stroke-linecap:round; stroke-linejoin:round; stroke-width:4; stroke-opacity:1; fill:none" points="193.936,1423.18 193.936,47.2441 "/>
<polyline clip-path="url(#clip820)" style="stroke:#000000; stroke-linecap:round; stroke-linejoin:round; stroke-width:4; stroke-opacity:1; fill:none" points="193.936,1232.48 212.834,1232.48 "/>
<polyline clip-path="url(#clip820)" style="stroke:#000000; stroke-linecap:round; stroke-linejoin:round; stroke-width:4; stroke-opacity:1; fill:none" points="193.936,1035.18 212.834,1035.18 "/>
<polyline clip-path="url(#clip820)" style="stroke:#000000; stroke-linecap:round; stroke-linejoin:round; stroke-width:4; stroke-opacity:1; fill:none" points="193.936,837.878 212.834,837.878 "/>
<polyline clip-path="url(#clip820)" style="stroke:#000000; stroke-linecap:round; stroke-linejoin:round; stroke-width:4; stroke-opacity:1; fill:none" points="193.936,640.579 212.834,640.579 "/>
<polyline clip-path="url(#clip820)" style="stroke:#000000; stroke-linecap:round; stroke-linejoin:round; stroke-width:4; stroke-opacity:1; fill:none" points="193.936,443.279 212.834,443.279 "/>
<polyline clip-path="url(#clip820)" style="stroke:#000000; stroke-linecap:round; stroke-linejoin:round; stroke-width:4; stroke-opacity:1; fill:none" points="193.936,245.98 212.834,245.98 "/>
<polyline clip-path="url(#clip820)" style="stroke:#000000; stroke-linecap:round; stroke-linejoin:round; stroke-width:4; stroke-opacity:1; fill:none" points="193.936,48.681 212.834,48.681 "/>
<path clip-path="url(#clip820)" d="M51.9875 1232.93 L81.6633 1232.93 L81.6633 1236.86 L51.9875 1236.86 L51.9875 1232.93 Z" fill="#000000" fill-rule="nonzero" fill-opacity="1" /><path clip-path="url(#clip820)" d="M92.566 1245.82 L100.205 1245.82 L100.205 1219.46 L91.8947 1221.12 L91.8947 1216.86 L100.159 1215.2 L104.834 1215.2 L104.834 1245.82 L112.473 1245.82 L112.473 1249.76 L92.566 1249.76 L92.566 1245.82 Z" fill="#000000" fill-rule="nonzero" fill-opacity="1" /><path clip-path="url(#clip820)" d="M121.918 1243.88 L126.802 1243.88 L126.802 1249.76 L121.918 1249.76 L121.918 1243.88 Z" fill="#000000" fill-rule="nonzero" fill-opacity="1" /><path clip-path="url(#clip820)" d="M137.033 1215.2 L155.39 1215.2 L155.39 1219.13 L141.316 1219.13 L141.316 1227.6 Q142.334 1227.26 143.353 1227.09 Q144.371 1226.91 145.39 1226.91 Q151.177 1226.91 154.556 1230.08 Q157.936 1233.25 157.936 1238.67 Q157.936 1244.25 154.464 1247.35 Q150.992 1250.43 144.672 1250.43 Q142.496 1250.43 140.228 1250.06 Q137.982 1249.69 135.575 1248.95 L135.575 1244.25 Q137.658 1245.38 139.881 1245.94 Q142.103 1246.49 144.58 1246.49 Q148.584 1246.49 150.922 1244.39 Q153.26 1242.28 153.26 1238.67 Q153.26 1235.06 150.922 1232.95 Q148.584 1230.84 144.58 1230.84 Q142.705 1230.84 140.83 1231.26 Q138.978 1231.68 137.033 1232.56 L137.033 1215.2 Z" fill="#000000" fill-rule="nonzero" fill-opacity="1" /><path clip-path="url(#clip820)" d="M50.9921 1035.63 L80.6679 1035.63 L80.6679 1039.56 L50.9921 1039.56 L50.9921 1035.63 Z" fill="#000000" fill-rule="nonzero" fill-opacity="1" /><path clip-path="url(#clip820)" d="M91.5706 1048.52 L99.2095 1048.52 L99.2095 1022.16 L90.8993 1023.82 L90.8993 1019.56 L99.1632 1017.9 L103.839 1017.9 L103.839 1048.52 L111.478 1048.52 L111.478 1052.46 L91.5706 1052.46 L91.5706 1048.52 Z" fill="#000000" fill-rule="nonzero" fill-opacity="1" /><path clip-path="url(#clip820)" d="M120.922 1046.58 L125.807 1046.58 L125.807 1052.46 L120.922 1052.46 L120.922 1046.58 Z" fill="#000000" fill-rule="nonzero" fill-opacity="1" /><path clip-path="url(#clip820)" d="M145.992 1020.98 Q142.381 1020.98 140.552 1024.54 Q138.746 1028.08 138.746 1035.21 Q138.746 1042.32 140.552 1045.88 Q142.381 1049.42 145.992 1049.42 Q149.626 1049.42 151.431 1045.88 Q153.26 1042.32 153.26 1035.21 Q153.26 1028.08 151.431 1024.54 Q149.626 1020.98 145.992 1020.98 M145.992 1017.27 Q151.802 1017.27 154.857 1021.88 Q157.936 1026.46 157.936 1035.21 Q157.936 1043.94 154.857 1048.54 Q151.802 1053.13 145.992 1053.13 Q140.181 1053.13 137.103 1048.54 Q134.047 1043.94 134.047 1035.21 Q134.047 1026.46 137.103 1021.88 Q140.181 1017.27 145.992 1017.27 Z" fill="#000000" fill-rule="nonzero" fill-opacity="1" /><path clip-path="url(#clip820)" d="M51.9875 838.329 L81.6633 838.329 L81.6633 842.264 L51.9875 842.264 L51.9875 838.329 Z" fill="#000000" fill-rule="nonzero" fill-opacity="1" /><path clip-path="url(#clip820)" d="M101.756 823.676 Q98.1447 823.676 96.316 827.241 Q94.5104 830.783 94.5104 837.912 Q94.5104 845.019 96.316 848.584 Q98.1447 852.125 101.756 852.125 Q105.39 852.125 107.196 848.584 Q109.024 845.019 109.024 837.912 Q109.024 830.783 107.196 827.241 Q105.39 823.676 101.756 823.676 M101.756 819.973 Q107.566 819.973 110.621 824.579 Q113.7 829.163 113.7 837.912 Q113.7 846.639 110.621 851.246 Q107.566 855.829 101.756 855.829 Q95.9456 855.829 92.8669 851.246 Q89.8114 846.639 89.8114 837.912 Q89.8114 829.163 92.8669 824.579 Q95.9456 819.973 101.756 819.973 Z" fill="#000000" fill-rule="nonzero" fill-opacity="1" /><path clip-path="url(#clip820)" d="M121.918 849.278 L126.802 849.278 L126.802 855.158 L121.918 855.158 L121.918 849.278 Z" fill="#000000" fill-rule="nonzero" fill-opacity="1" /><path clip-path="url(#clip820)" d="M137.033 820.598 L155.39 820.598 L155.39 824.533 L141.316 824.533 L141.316 833.005 Q142.334 832.658 143.353 832.496 Q144.371 832.311 145.39 832.311 Q151.177 832.311 154.556 835.482 Q157.936 838.653 157.936 844.07 Q157.936 849.649 154.464 852.75 Q150.992 855.829 144.672 855.829 Q142.496 855.829 140.228 855.459 Q137.982 855.088 135.575 854.348 L135.575 849.649 Q137.658 850.783 139.881 851.338 Q142.103 851.894 144.58 851.894 Q148.584 851.894 150.922 849.787 Q153.26 847.681 153.26 844.07 Q153.26 840.459 150.922 838.352 Q148.584 836.246 144.58 836.246 Q142.705 836.246 140.83 836.663 Q138.978 837.079 137.033 837.959 L137.033 820.598 Z" fill="#000000" fill-rule="nonzero" fill-opacity="1" /><path clip-path="url(#clip820)" d="M100.76 626.377 Q97.1493 626.377 95.3206 629.942 Q93.515 633.484 93.515 640.613 Q93.515 647.72 95.3206 651.285 Q97.1493 654.826 100.76 654.826 Q104.395 654.826 106.2 651.285 Q108.029 647.72 108.029 640.613 Q108.029 633.484 106.2 629.942 Q104.395 626.377 100.76 626.377 M100.76 622.674 Q106.571 622.674 109.626 627.28 Q112.705 631.863 112.705 640.613 Q112.705 649.34 109.626 653.947 Q106.571 658.53 100.76 658.53 Q94.9502 658.53 91.8715 653.947 Q88.816 649.34 88.816 640.613 Q88.816 631.863 91.8715 627.28 Q94.9502 622.674 100.76 622.674 Z" fill="#000000" fill-rule="nonzero" fill-opacity="1" /><path clip-path="url(#clip820)" d="M120.922 651.979 L125.807 651.979 L125.807 657.859 L120.922 657.859 L120.922 651.979 Z" fill="#000000" fill-rule="nonzero" fill-opacity="1" /><path clip-path="url(#clip820)" d="M145.992 626.377 Q142.381 626.377 140.552 629.942 Q138.746 633.484 138.746 640.613 Q138.746 647.72 140.552 651.285 Q142.381 654.826 145.992 654.826 Q149.626 654.826 151.431 651.285 Q153.26 647.72 153.26 640.613 Q153.26 633.484 151.431 629.942 Q149.626 626.377 145.992 626.377 M145.992 622.674 Q151.802 622.674 154.857 627.28 Q157.936 631.863 157.936 640.613 Q157.936 649.34 154.857 653.947 Q151.802 658.53 145.992 658.53 Q140.181 658.53 137.103 653.947 Q134.047 649.34 134.047 640.613 Q134.047 631.863 137.103 627.28 Q140.181 622.674 145.992 622.674 Z" fill="#000000" fill-rule="nonzero" fill-opacity="1" /><path clip-path="url(#clip820)" d="M101.756 429.078 Q98.1447 429.078 96.316 432.643 Q94.5104 436.185 94.5104 443.314 Q94.5104 450.421 96.316 453.985 Q98.1447 457.527 101.756 457.527 Q105.39 457.527 107.196 453.985 Q109.024 450.421 109.024 443.314 Q109.024 436.185 107.196 432.643 Q105.39 429.078 101.756 429.078 M101.756 425.374 Q107.566 425.374 110.621 429.981 Q113.7 434.564 113.7 443.314 Q113.7 452.041 110.621 456.647 Q107.566 461.231 101.756 461.231 Q95.9456 461.231 92.8669 456.647 Q89.8114 452.041 89.8114 443.314 Q89.8114 434.564 92.8669 429.981 Q95.9456 425.374 101.756 425.374 Z" fill="#000000" fill-rule="nonzero" fill-opacity="1" /><path clip-path="url(#clip820)" d="M121.918 454.68 L126.802 454.68 L126.802 460.559 L121.918 460.559 L121.918 454.68 Z" fill="#000000" fill-rule="nonzero" fill-opacity="1" /><path clip-path="url(#clip820)" d="M137.033 425.999 L155.39 425.999 L155.39 429.935 L141.316 429.935 L141.316 438.407 Q142.334 438.06 143.353 437.897 Q144.371 437.712 145.39 437.712 Q151.177 437.712 154.556 440.884 Q157.936 444.055 157.936 449.472 Q157.936 455.05 154.464 458.152 Q150.992 461.231 144.672 461.231 Q142.496 461.231 140.228 460.86 Q137.982 460.49 135.575 459.749 L135.575 455.05 Q137.658 456.184 139.881 456.74 Q142.103 457.296 144.58 457.296 Q148.584 457.296 150.922 455.189 Q153.26 453.083 153.26 449.472 Q153.26 445.86 150.922 443.754 Q148.584 441.647 144.58 441.647 Q142.705 441.647 140.83 442.064 Q138.978 442.481 137.033 443.36 L137.033 425.999 Z" fill="#000000" fill-rule="nonzero" fill-opacity="1" /><path clip-path="url(#clip820)" d="M91.5706 259.325 L99.2095 259.325 L99.2095 232.959 L90.8993 234.626 L90.8993 230.367 L99.1632 228.7 L103.839 228.7 L103.839 259.325 L111.478 259.325 L111.478 263.26 L91.5706 263.26 L91.5706 259.325 Z" fill="#000000" fill-rule="nonzero" fill-opacity="1" /><path clip-path="url(#clip820)" d="M120.922 257.381 L125.807 257.381 L125.807 263.26 L120.922 263.26 L120.922 257.381 Z" fill="#000000" fill-rule="nonzero" fill-opacity="1" /><path clip-path="url(#clip820)" d="M145.992 231.779 Q142.381 231.779 140.552 235.344 Q138.746 238.885 138.746 246.015 Q138.746 253.121 140.552 256.686 Q142.381 260.228 145.992 260.228 Q149.626 260.228 151.431 256.686 Q153.26 253.121 153.26 246.015 Q153.26 238.885 151.431 235.344 Q149.626 231.779 145.992 231.779 M145.992 228.075 Q151.802 228.075 154.857 232.682 Q157.936 237.265 157.936 246.015 Q157.936 254.742 154.857 259.348 Q151.802 263.932 145.992 263.932 Q140.181 263.932 137.103 259.348 Q134.047 254.742 134.047 246.015 Q134.047 237.265 137.103 232.682 Q140.181 228.075 145.992 228.075 Z" fill="#000000" fill-rule="nonzero" fill-opacity="1" /><path clip-path="url(#clip820)" d="M92.566 62.0259 L100.205 62.0259 L100.205 35.6603 L91.8947 37.3269 L91.8947 33.0677 L100.159 31.401 L104.834 31.401 L104.834 62.0259 L112.473 62.0259 L112.473 65.961 L92.566 65.961 L92.566 62.0259 Z" fill="#000000" fill-rule="nonzero" fill-opacity="1" /><path clip-path="url(#clip820)" d="M121.918 60.0814 L126.802 60.0814 L126.802 65.961 L121.918 65.961 L121.918 60.0814 Z" fill="#000000" fill-rule="nonzero" fill-opacity="1" /><path clip-path="url(#clip820)" d="M137.033 31.401 L155.39 31.401 L155.39 35.3362 L141.316 35.3362 L141.316 43.8084 Q142.334 43.4612 143.353 43.2991 Q144.371 43.1139 145.39 43.1139 Q151.177 43.1139 154.556 46.2852 Q157.936 49.4565 157.936 54.8731 Q157.936 60.4518 154.464 63.5536 Q150.992 66.6323 144.672 66.6323 Q142.496 66.6323 140.228 66.262 Q137.982 65.8916 135.575 65.1509 L135.575 60.4518 Q137.658 61.5861 139.881 62.1416 Q142.103 62.6972 144.58 62.6972 Q148.584 62.6972 150.922 60.5907 Q153.26 58.4842 153.26 54.8731 Q153.26 51.262 150.922 49.1556 Q148.584 47.0491 144.58 47.0491 Q142.705 47.0491 140.83 47.4658 Q138.978 47.8824 137.033 48.7621 L137.033 31.401 Z" fill="#000000" fill-rule="nonzero" fill-opacity="1" /><polyline clip-path="url(#clip822)" style="stroke:#009af9; stroke-linecap:round; stroke-linejoin:round; stroke-width:4; stroke-opacity:1; fill:none" points="193.936,640.579 196.097,648.834 198.258,656.979 200.419,665.017 202.58,672.948 204.741,680.774 206.902,688.496 209.063,696.116 211.224,703.635 213.385,711.054 215.546,718.375 217.707,725.599 219.868,732.726 222.029,739.76 224.19,746.7 226.351,753.548 228.512,760.306 230.673,766.973 232.834,773.553 234.995,780.045 237.156,786.451 239.317,792.772 241.478,799.009 243.639,805.164 245.8,811.237 247.961,817.23 250.122,823.143 252.282,828.977 254.443,834.735 256.604,840.416 258.765,846.021 260.926,851.553 263.087,857.011 265.248,862.396 267.409,867.711 269.57,872.954 271.731,878.129 273.892,883.234 276.053,888.272 278.214,893.244 280.375,898.149 282.536,902.989 284.697,907.765 286.858,912.478 289.019,917.128 291.18,921.717 293.341,926.245 295.502,930.713 297.663,935.121 299.824,939.471 301.985,943.763 304.146,947.999 306.307,952.178 308.468,956.302 310.629,960.371 312.79,964.387 314.951,968.349 317.112,972.258 319.273,976.116 321.434,979.923 323.595,983.679 325.756,987.385 327.917,991.042 330.078,994.651 332.239,998.212 334.4,1001.73 336.561,1005.19 338.722,1008.61 340.883,1011.99 343.044,1015.32 345.205,1018.61 347.366,1021.85 349.527,1025.05 351.688,1028.21 353.849,1031.32 356.01,1034.4 358.171,1037.43 360.332,1040.43 362.493,1043.38 364.653,1046.29 366.814,1049.17 368.975,1052.01 371.136,1054.81 373.297,1057.57 375.458,1060.3 377.619,1062.99 379.78,1065.64 381.941,1068.26 384.102,1070.85 386.263,1073.4 388.424,1075.92 390.585,1078.4 392.746,1080.85 394.907,1083.27 397.068,1086.01 399.229,1090.18 401.39,1093.91 403.551,1095.53 405.712,1094.13 407.873,1089.52 410.034,1082.22 412.195,1073.48 414.356,1065.17 416.517,1057.28 418.678,1049.5 420.839,1041.82 423,1034.24 425.161,1026.77 427.322,1019.39 429.483,1012.11 431.644,1004.93 433.805,997.84 435.966,990.846 438.127,983.945 440.288,977.136 442.449,970.417 444.61,963.787 446.771,957.245 448.932,950.789 451.093,944.42 453.254,938.135 455.415,931.933 457.576,925.813 459.737,919.775 461.898,913.816 464.059,907.937 466.22,902.135 468.381,896.411 470.542,890.762 472.703,885.188 474.864,879.688 477.024,874.261 479.185,868.906 481.346,863.622 483.507,858.408 485.668,853.263 487.829,848.186 489.99,843.177 492.151,838.234 494.312,833.356 496.473,828.544 498.634,823.794 500.795,819.108 502.956,814.484 505.117,809.922 507.278,805.42 509.439,800.977 511.6,796.594 513.761,792.268 515.922,788 518.083,783.789 520.244,779.633 522.405,775.533 524.566,771.487 526.727,767.494 528.888,763.555 531.049,759.667 533.21,755.832 535.371,752.047 537.532,748.312 539.693,744.627 541.854,740.99 544.015,737.402 546.176,733.861 548.337,730.367 550.498,726.92 552.659,723.518 554.82,720.161 556.981,716.849 559.142,713.581 561.303,710.356 563.464,707.174 565.625,704.034 567.786,700.935 569.947,697.878 572.108,694.862 574.269,691.885 576.43,688.948 578.591,686.05 580.752,683.19 582.913,680.368 585.074,677.584 587.235,674.837 589.396,672.126 591.556,669.45 593.717,666.811 595.878,664.206 598.039,661.636 600.2,659.1 602.361,656.598 604.522,654.128 606.683,651.692 608.844,649.287 611.005,646.915 613.166,644.574 615.327,642.264 617.488,639.985 619.649,637.736 621.81,635.517 623.971,633.327 626.132,633.718 628.293,641.23 630.454,648.648 632.615,655.967 634.776,663.189 636.937,670.316 639.098,677.348 641.259,684.287 643.42,691.133 645.581,697.889 647.742,704.556 649.903,711.134 652.064,717.624 654.225,724.029 656.386,730.349 658.547,736.585 660.708,742.739 662.869,748.81 665.03,754.802 667.191,760.713 669.352,766.547 671.513,772.303 673.674,777.983 675.835,783.587 677.996,789.118 680.157,794.575 682.318,799.959 684.479,805.272 686.64,810.515 688.801,815.688 690.962,820.793 693.123,825.83 695.284,830.8 697.445,835.704 699.606,840.543 701.767,845.319 703.927,850.03 706.088,854.68 708.249,859.267 710.41,863.794 712.571,868.261 714.732,872.669 716.893,877.018 719.054,881.31 721.215,885.544 723.376,889.723 725.537,893.846 727.698,897.914 729.859,901.929 732.02,905.89 734.181,909.799 736.342,913.655 738.503,917.461 740.664,921.216 742.825,924.922 744.986,928.578 747.147,932.186 749.308,935.746 751.469,939.259 753.63,942.726 755.791,946.146 757.952,949.521 760.113,952.851 762.274,956.138 764.435,959.38 766.596,962.58 768.757,965.737 770.918,968.852 773.079,971.926 775.24,974.96 777.401,977.953 779.562,980.906 781.723,983.82 783.884,986.696 786.045,989.533 788.206,992.333 790.367,995.095 792.528,997.821 794.689,1000.51 796.85,1003.17 799.011,1005.78 801.172,1008.37 803.333,1010.92 805.494,1013.43 807.655,1015.92 809.816,1018.37 811.977,1020.79 814.138,1023.17 816.298,1025.52 818.459,1027.85 820.62,1030.14 822.781,1032.4 824.942,1034.63 827.103,1036.83 829.264,1039.01 831.425,1042.35 833.586,1046.33 835.747,1047.8 837.908,1045.15 840.069,1038.27 842.23,1028.57 844.391,1018.86 846.552,1009.7 848.713,1000.67 850.874,991.75 853.035,982.952 855.196,974.271 857.357,965.705 859.518,957.253 861.679,948.913 863.84,940.683 866.001,932.563 868.162,924.55 870.323,916.643 872.484,908.841 874.645,901.143 876.806,893.547 878.967,886.051 881.128,878.655 883.289,871.357 885.45,864.156 887.611,857.05 889.772,850.039 891.933,843.12 894.094,836.293 896.255,829.557 898.416,822.91 900.577,816.351 902.738,809.879 904.899,803.493 907.06,797.191 909.221,790.973 911.382,784.837 913.543,778.783 915.704,772.809 917.865,766.914 920.026,761.098 922.187,755.358 924.348,749.695 926.509,744.106 928.669,738.592 930.83,733.151 932.991,727.782 935.152,722.484 937.313,717.257 939.474,712.098 941.635,707.009 943.796,701.986 945.957,697.03 948.118,692.14 950.279,687.315 952.44,682.554 954.601,677.856 956.762,673.22 958.923,668.645 961.084,664.132 963.245,659.678 965.406,655.283 967.567,650.946 969.728,646.667 971.889,642.444 974.05,638.278 976.211,634.166 978.372,630.11 980.533,626.107 982.694,622.157 984.855,618.26 987.016,614.414 989.177,610.619 991.338,606.875 993.499,603.18 995.66,599.534 997.821,595.937 999.982,592.387 1002.14,588.884 1004.3,585.428 1006.46,582.018 1008.63,578.653 1010.79,575.332 1012.95,572.055 1015.11,568.822 1017.27,565.632 1019.43,562.484 1021.59,559.378 1023.75,556.313 1025.91,553.288 1028.07,550.304 1030.24,547.359 1032.4,544.453 1034.56,541.586 1036.72,538.757 1038.88,535.965 1041.04,533.21 1043.2,530.492 1045.36,527.833 1047.52,525.411 1049.68,523.241 1051.85,521.295 1054.01,519.545 1056.17,517.965 1058.33,516.533 1060.49,515.226 1062.65,514.023 1064.81,512.907 1066.97,511.859 1069.13,510.865 1071.29,509.911 1073.46,508.983 1075.62,508.073 1077.78,507.171 1079.94,506.269 1082.1,505.363 1084.26,504.448 1086.42,503.522 1088.58,502.585 1090.74,501.637 1092.9,500.681 1095.07,499.721 1097.23,498.764 1099.39,497.816 1101.55,496.888 1103.71,495.99 1105.87,495.122 1108.03,494.267 1110.19,493.423 1112.35,492.59 1114.51,491.768 1116.67,490.957 1118.84,490.157 1121,489.367 1123.16,488.588 1125.32,487.819 1127.48,487.061 1129.64,486.312 1131.8,485.574 1133.96,484.845 1136.12,484.125 1138.28,483.416 1140.45,482.715 1142.61,482.024 1144.77,481.342 1146.93,480.669 1149.09,480.005 1151.25,479.35 1153.41,478.704 1155.57,478.066 1157.73,477.436 1159.89,476.815 1162.06,476.202 1164.22,475.597 1166.38,475.001 1168.54,474.412 1170.7,473.831 1172.86,473.258 1175.02,472.692 1177.18,472.134 1179.34,471.584 1181.5,471.04 1183.67,470.504 1185.83,469.975 1187.99,469.453 1190.15,468.938 1192.31,468.43 1194.47,467.929 1196.63,467.434 1198.79,466.946 1200.95,466.464 1203.11,465.989 1205.28,465.52 1207.44,465.057 1209.6,464.6 1211.76,464.15 1213.92,463.705 1216.08,463.266 1218.24,462.833 1220.4,462.406 1222.56,461.984 1224.72,461.568 1226.88,461.158 1229.05,460.753 1231.21,460.353 1233.37,459.959 1235.53,459.57 1237.69,459.186 1239.85,458.807 1242.01,458.433 1244.17,458.064 1246.33,457.7 1248.49,457.34 1250.66,456.986 1252.82,456.636 1254.98,456.291 1257.14,455.95 1259.3,455.637 1261.46,455.62 1263.62,455.935 1265.78,456.536 1267.94,457.379 1270.1,458.424 1272.27,459.633 1274.43,460.97 1276.59,462.405 1278.75,463.908 1280.91,465.454 1283.07,467.02 1285.23,468.587 1287.39,470.137 1289.55,471.658 1291.71,473.139 1293.88,474.571 1296.04,475.951 1298.2,477.277 1300.36,478.549 1302.52,479.774 1304.68,480.958 1306.84,482.112 1309,483.249 1311.16,484.385 1313.32,485.539 1315.49,486.688 1317.65,487.821 1319.81,488.94 1321.97,490.044 1324.13,491.133 1326.29,492.207 1328.45,493.268 1330.61,494.314 1332.77,495.347 1334.93,496.366 1337.09,497.371 1339.26,498.363 1341.42,499.342 1343.58,500.308 1345.74,501.261 1347.9,502.202 1350.06,503.13 1352.22,504.045 1354.38,504.949 1356.54,505.841 1358.7,506.721 1360.87,507.589 1363.03,508.446 1365.19,509.291 1367.35,510.125 1369.51,510.948 1371.67,511.76 1373.83,512.561 1375.99,513.352 1378.15,514.132 1380.31,514.902 1382.48,515.661 1384.64,516.411 1386.8,517.15 1388.96,517.88 1391.12,518.6 1393.28,519.311 1395.44,520.012 1397.6,520.703 1399.76,521.386 1401.92,522.059 1404.09,522.724 1406.25,523.379 1408.41,524.026 1410.57,524.665 1412.73,525.295 1414.89,525.916 1417.05,526.53 1419.21,527.135 1421.37,527.732 1423.53,528.322 1425.7,528.903 1427.86,529.477 1430.02,530.043 1432.18,530.602 1434.34,531.154 1436.5,531.698 1438.66,532.234 1440.82,532.764 1442.98,533.287 1445.14,533.803 1447.3,534.312 1449.47,534.814 1451.63,535.31 1453.79,535.799 1455.95,536.281 1458.11,536.757 1460.27,537.227 1462.43,537.691 1464.59,538.148 1466.75,538.599 1468.91,539.045 1471.08,539.484 1473.24,539.918 1475.4,540.346 1477.56,540.768 1479.72,541.185 1481.88,541.596 1484.04,542.001 1486.2,542.402 1488.36,542.764 1490.52,542.975 1492.69,543.04 1494.85,542.971 1497.01,542.783 1499.17,542.489 1501.33,542.1 1503.49,541.628 1505.65,541.085 1507.81,540.48 1509.97,539.824 1512.13,539.125 1514.3,538.393 1516.46,537.636 1518.62,536.861 1520.78,536.074 1522.94,535.283 1525.1,534.493 1527.26,533.708 1529.42,532.934 1531.58,532.175 1533.74,531.433 1535.91,530.712 1538.07,530.013 1540.23,529.339 1542.39,528.69 1544.55,528.066 1546.71,527.467 1548.87,526.893 1551.03,526.341 1553.19,525.81 1555.35,525.298 1557.51,524.801 1559.68,524.315 1561.84,523.836 1564,523.359 1566.16,522.878 1568.32,522.387 1570.48,521.892 1572.64,521.404 1574.8,520.923 1576.96,520.448 1579.12,519.979 1581.29,519.516 1583.45,519.06 1585.61,518.609 1587.77,518.165 1589.93,517.726 1592.09,517.293 1594.25,516.866 1596.41,516.445 1598.57,516.029 1600.73,515.619 1602.9,515.214 1605.06,514.814 1607.22,514.42 1609.38,514.031 1611.54,513.647 1613.7,513.269 1615.86,512.895 1618.02,512.526 1620.18,512.162 1622.34,511.803 1624.51,511.449 1626.67,511.099 1628.83,510.754 1630.99,510.414 1633.15,510.078 1635.31,509.747 1637.47,509.42 1639.63,509.097 1641.79,508.778 1643.95,508.464 1646.12,508.154 1648.28,507.848 1650.44,507.546 1652.6,507.249 1654.76,506.955 1656.92,506.665 1659.08,506.379 1661.24,506.096 1663.4,505.818 1665.56,505.543 1667.72,505.272 1669.89,505.004 1672.05,504.74 1674.21,504.479 1676.37,504.222 1678.53,503.969 1680.69,503.718 1682.85,503.471 1685.01,503.227 1687.17,502.987 1689.33,502.75 1691.5,502.515 1693.66,502.284 1695.82,502.056 1697.98,501.831 1700.14,501.609 1702.3,501.39 1704.46,501.174 1706.62,500.795 1708.78,499.934 1710.94,498.633 1713.11,496.94 1715.27,494.903 1717.43,492.566 1719.59,489.971 1721.75,487.158 1723.91,484.164 1726.07,481.023 1728.23,477.77 1730.39,474.433 1732.55,471.041 1734.72,467.619 1736.88,464.19 1739.04,460.774 1741.2,457.391 1743.36,454.055 1745.52,450.781 1747.68,447.579 1749.84,444.458 1752,441.425 1754.16,438.484 1756.33,435.635 1758.49,432.879 1760.65,430.211 1762.81,427.627 1764.97,425.119 1767.13,422.676 1769.29,420.285 1771.45,417.932 1773.61,415.598 1775.77,413.265 1777.93,410.909 1780.1,408.559 1782.26,406.239 1784.42,403.95 1786.58,401.691 1788.74,399.462 1790.9,397.263 1793.06,395.093 1795.22,392.952 1797.38,390.839 1799.54,388.754 1801.71,386.697 1803.87,384.667 1806.03,382.664 1808.19,380.688 1810.35,378.738 1812.51,376.813 1814.67,374.915 1816.83,373.041 1818.99,371.192 1821.15,369.368 1823.32,367.568 1825.48,365.791 1827.64,364.039 1829.8,362.309 1831.96,360.603 1834.12,358.919 1836.28,357.257 1838.44,355.617 1840.6,354 1842.76,352.403 1844.93,350.828 1847.09,349.274 1849.25,347.74 1851.41,346.226 1853.57,344.733 1855.73,343.26 1857.89,341.806 1860.05,340.371 1862.21,338.955 1864.37,337.558 1866.54,336.18 1868.7,334.82 1870.86,333.478 1873.02,332.153 1875.18,330.847 1877.34,329.557 1879.5,328.316 1881.66,327.21 1883.82,326.215 1885.98,325.301 1888.15,324.442 1890.31,323.61 1892.47,322.782 1894.63,321.935 1896.79,321.05 1898.95,320.11 1901.11,319.096 1903.27,317.997 1905.43,316.8 1907.59,315.495 1909.75,314.073 1911.92,312.53 1914.08,310.86 1916.24,309.063 1918.4,307.137 1920.56,305.086 1922.72,302.913 1924.88,300.624 1927.04,298.226 1929.2,295.731 1931.36,293.15 1933.53,290.497 1935.69,287.789 1937.85,285.042 1940.01,282.278 1942.17,279.517 1944.33,276.785 1946.49,274.107 1948.65,271.51 1950.81,269.024 1952.97,266.6 1955.14,264.208 1957.3,261.848 1959.46,259.519 1961.62,257.221 1963.78,254.953 1965.94,252.716 1968.1,250.508 1970.26,248.329 1972.42,246.18 1974.58,244.058 1976.75,241.965 1978.91,239.9 1981.07,237.862 1983.23,235.851 1985.39,233.867 1987.55,231.909 1989.71,229.977 1991.87,228.07 1994.03,226.189 1996.19,224.332 1998.36,222.5 2000.52,220.692 2002.68,218.908 2004.84,217.148 2007,215.411 2009.16,213.697 2011.32,212.005 2013.48,210.336 2015.64,208.69 2017.8,207.065 2019.96,205.462 2022.13,203.88 2024.29,202.319 2026.45,200.778 2028.61,199.259 2030.77,197.759 2032.93,196.279 2035.09,194.82 2037.25,193.379 2039.41,191.958 2041.57,190.555 2043.74,189.172 2045.9,187.806 2048.06,186.459 2050.22,185.13 2052.38,183.819 2054.54,182.525 2056.7,181.248 2058.86,179.988 2061.02,178.745 2063.18,177.518 2065.35,176.308 2067.51,175.114 2069.67,173.935 2071.83,172.773 2073.99,171.625 2076.15,170.493 2078.31,169.376 2080.47,168.274 2082.63,167.186 2084.79,166.113 2086.96,165.054 2089.12,164.009 2091.28,162.977 2093.44,161.96 2095.6,160.955 2097.76,159.964 2099.92,158.986 2102.08,158.021 2104.24,157.069 2106.4,156.129 2108.57,155.202 2110.73,154.287 2112.89,153.384 2115.05,152.493 2117.21,151.614 2119.37,150.746 2121.53,149.891 2123.69,149.046 2125.85,148.213 2128.01,147.39 2130.17,146.579 2132.34,145.778 2134.5,144.988 2136.66,144.283 2138.82,145.78 2140.98,150.165 2143.14,157.068 2145.3,166.141 2147.46,177.059 2149.62,189.514 2151.78,203.224 2153.95,217.925 2156.11,233.373 2158.27,249.35 2160.43,265.653 2162.59,282.105 2164.75,298.547 2166.91,314.842 2169.07,330.876 2171.23,346.554 2173.39,361.801 2175.56,376.566 2177.72,390.818 2179.88,404.546 2182.04,417.761 2184.2,430.496 2186.36,442.803 2188.52,454.757 2190.68,466.453 2192.84,478.007 2195,489.557 2197.17,501.259 2199.33,512.966 2201.49,524.517 2203.65,535.915 2205.81,547.162 2207.97,558.26 2210.13,569.211 2212.29,580.017 2214.45,590.679 2216.61,601.2 2218.78,611.582 2220.94,621.826 2223.1,631.934 2225.26,641.908 2227.42,651.75 2229.58,661.461 2231.74,671.044 2233.9,680.5 2236.06,689.83 2238.22,699.037 2240.38,708.122 2242.55,717.086 2244.71,725.932 2246.87,734.66 2249.03,743.272 2251.19,751.77 2253.35,760.156 2255.51,768.43 2257.67,776.594 2259.83,784.65 2261.99,792.6 2264.16,800.443 2266.32,808.183 2268.48,815.82 2270.64,823.356 2272.8,830.792 2274.96,838.129 2277.12,845.369 2279.28,852.513 2281.44,859.563 2283.6,866.519 2285.77,873.382 2287.93,880.155 2290.09,886.838 2292.25,893.432 2294.41,899.939 2296.57,906.36 2298.73,912.696 2300.89,918.948 2303.05,925.117 2305.21,931.204 2307.38,937.21 2309.54,943.137 2311.7,948.985 2313.86,954.756 2316.02,960.45 2318.18,966.069 2320.34,971.613 2322.5,977.083 2324.66,982.481 2326.82,987.808 2328.99,993.064 2331.15,998.25 2333.31,1003.37 2335.47,1008.42 2337.63,1013.4 2339.79,1018.32 2341.95,1023.17 2344.11,1027.95 2346.27,1032.68 2348.43,1037.34 2350.59,1041.94 2352.76,1046.48 "/>
<polyline clip-path="url(#clip822)" style="stroke:#e26f46; stroke-linecap:round; stroke-linejoin:round; stroke-width:4; stroke-opacity:1; fill:none" points="193.936,1263.23 196.097,1263.23 198.258,1263.23 200.419,1263.23 202.58,1263.23 204.741,1263.23 206.902,1263.23 209.063,1263.23 211.224,1263.23 213.385,1263.23 215.546,1263.23 217.707,1263.23 219.868,1263.23 222.029,1263.23 224.19,1263.23 226.351,1263.23 228.512,1263.23 230.673,1263.23 232.834,1263.23 234.995,1263.23 237.156,1263.23 239.317,1263.23 241.478,1263.23 243.639,1263.23 245.8,1263.23 247.961,1263.23 250.122,1263.23 252.282,1263.23 254.443,1263.23 256.604,1263.23 258.765,1263.23 260.926,1263.23 263.087,1263.23 265.248,1263.23 267.409,1263.23 269.57,1263.23 271.731,1263.23 273.892,1263.23 276.053,1263.23 278.214,1263.23 280.375,1263.23 282.536,1263.23 284.697,1263.23 286.858,1263.23 289.019,1263.23 291.18,1263.23 293.341,1263.23 295.502,1263.23 297.663,1263.23 299.824,1263.23 301.985,1263.23 304.146,1263.23 306.307,1263.23 308.468,1263.23 310.629,1263.23 312.79,1263.23 314.951,1263.23 317.112,1263.23 319.273,1263.23 321.434,1263.23 323.595,1263.23 325.756,1263.23 327.917,1263.23 330.078,1263.23 332.239,1263.23 334.4,1263.23 336.561,1263.23 338.722,1263.23 340.883,1263.23 343.044,1263.23 345.205,1263.23 347.366,1263.23 349.527,1263.23 351.688,1263.23 353.849,1263.23 356.01,1263.23 358.171,1263.23 360.332,1263.23 362.493,1263.23 364.653,1263.23 366.814,1263.23 368.975,1263.23 371.136,1263.23 373.297,1263.23 375.458,1263.23 377.619,1263.23 379.78,1263.23 381.941,1263.23 384.102,1263.23 386.263,1263.23 388.424,1263.23 390.585,1263.23 392.746,1263.23 394.907,1263.23 397.068,1263.23 399.229,1263.23 401.39,1263.23 403.551,1263.23 405.712,1263.23 407.873,1263.23 410.034,470.346 412.195,470.346 414.356,470.346 416.517,470.346 418.678,470.346 420.839,470.346 423,470.346 425.161,470.346 427.322,470.346 429.483,470.346 431.644,470.346 433.805,470.346 435.966,470.346 438.127,470.346 440.288,470.346 442.449,470.346 444.61,470.346 446.771,470.346 448.932,470.346 451.093,470.346 453.254,470.346 455.415,470.346 457.576,470.346 459.737,470.346 461.898,470.346 464.059,470.346 466.22,470.346 468.381,470.346 470.542,470.346 472.703,470.346 474.864,470.346 477.024,470.346 479.185,470.346 481.346,470.346 483.507,470.346 485.668,470.346 487.829,470.346 489.99,470.346 492.151,470.346 494.312,470.346 496.473,470.346 498.634,470.346 500.795,470.346 502.956,470.346 505.117,470.346 507.278,470.346 509.439,470.346 511.6,470.346 513.761,470.346 515.922,470.346 518.083,470.346 520.244,470.346 522.405,470.346 524.566,470.346 526.727,470.346 528.888,470.346 531.049,470.346 533.21,470.346 535.371,470.346 537.532,470.346 539.693,470.346 541.854,470.346 544.015,470.346 546.176,470.346 548.337,470.346 550.498,470.346 552.659,470.346 554.82,470.346 556.981,470.346 559.142,470.346 561.303,470.346 563.464,470.346 565.625,470.346 567.786,470.346 569.947,470.346 572.108,470.346 574.269,470.346 576.43,470.346 578.591,470.346 580.752,470.346 582.913,470.346 585.074,470.346 587.235,470.346 589.396,470.346 591.556,470.346 593.717,470.346 595.878,470.346 598.039,470.346 600.2,470.346 602.361,470.346 604.522,470.346 606.683,470.346 608.844,470.346 611.005,470.346 613.166,470.346 615.327,470.346 617.488,470.346 619.649,470.346 621.81,470.346 623.971,470.346 626.132,1200.71 628.293,1200.71 630.454,1200.71 632.615,1200.71 634.776,1200.71 636.937,1200.71 639.098,1200.71 641.259,1200.71 643.42,1200.71 645.581,1200.71 647.742,1200.71 649.903,1200.71 652.064,1200.71 654.225,1200.71 656.386,1200.71 658.547,1200.71 660.708,1200.71 662.869,1200.71 665.03,1200.71 667.191,1200.71 669.352,1200.71 671.513,1200.71 673.674,1200.71 675.835,1200.71 677.996,1200.71 680.157,1200.71 682.318,1200.71 684.479,1200.71 686.64,1200.71 688.801,1200.71 690.962,1200.71 693.123,1200.71 695.284,1200.71 697.445,1200.71 699.606,1200.71 701.767,1200.71 703.927,1200.71 706.088,1200.71 708.249,1200.71 710.41,1200.71 712.571,1200.71 714.732,1200.71 716.893,1200.71 719.054,1200.71 721.215,1200.71 723.376,1200.71 725.537,1200.71 727.698,1200.71 729.859,1200.71 732.02,1200.71 734.181,1200.71 736.342,1200.71 738.503,1200.71 740.664,1200.71 742.825,1200.71 744.986,1200.71 747.147,1200.71 749.308,1200.71 751.469,1200.71 753.63,1200.71 755.791,1200.71 757.952,1200.71 760.113,1200.71 762.274,1200.71 764.435,1200.71 766.596,1200.71 768.757,1200.71 770.918,1200.71 773.079,1200.71 775.24,1200.71 777.401,1200.71 779.562,1200.71 781.723,1200.71 783.884,1200.71 786.045,1200.71 788.206,1200.71 790.367,1200.71 792.528,1200.71 794.689,1200.71 796.85,1200.71 799.011,1200.71 801.172,1200.71 803.333,1200.71 805.494,1200.71 807.655,1200.71 809.816,1200.71 811.977,1200.71 814.138,1200.71 816.298,1200.71 818.459,1200.71 820.62,1200.71 822.781,1200.71 824.942,1200.71 827.103,1200.71 829.264,1200.71 831.425,1200.71 833.586,1200.71 835.747,1200.71 837.908,1200.71 840.069,1200.71 842.23,328.189 844.391,328.189 846.552,328.189 848.713,328.189 850.874,328.189 853.035,328.189 855.196,328.189 857.357,328.189 859.518,328.189 861.679,328.189 863.84,328.189 866.001,328.189 868.162,328.189 870.323,328.189 872.484,328.189 874.645,328.189 876.806,328.189 878.967,328.189 881.128,328.189 883.289,328.189 885.45,328.189 887.611,328.189 889.772,328.189 891.933,328.189 894.094,328.189 896.255,328.189 898.416,328.189 900.577,328.189 902.738,328.189 904.899,328.189 907.06,328.189 909.221,328.189 911.382,328.189 913.543,328.189 915.704,328.189 917.865,328.189 920.026,328.189 922.187,328.189 924.348,328.189 926.509,328.189 928.669,328.189 930.83,328.189 932.991,328.189 935.152,328.189 937.313,328.189 939.474,328.189 941.635,328.189 943.796,328.189 945.957,328.189 948.118,328.189 950.279,328.189 952.44,328.189 954.601,328.189 956.762,328.189 958.923,328.189 961.084,328.189 963.245,328.189 965.406,328.189 967.567,328.189 969.728,328.189 971.889,328.189 974.05,328.189 976.211,328.189 978.372,328.189 980.533,328.189 982.694,328.189 984.855,328.189 987.016,328.189 989.177,328.189 991.338,328.189 993.499,328.189 995.66,328.189 997.821,328.189 999.982,328.189 1002.14,328.189 1004.3,328.189 1006.46,328.189 1008.63,328.189 1010.79,328.189 1012.95,328.189 1015.11,328.189 1017.27,328.189 1019.43,328.189 1021.59,328.189 1023.75,328.189 1025.91,328.189 1028.07,328.189 1030.24,328.189 1032.4,328.189 1034.56,328.189 1036.72,328.189 1038.88,328.189 1041.04,328.189 1043.2,328.189 1045.36,328.189 1047.52,328.189 1049.68,328.189 1051.85,328.189 1054.01,328.189 1056.17,328.189 1058.33,430.601 1060.49,430.601 1062.65,430.601 1064.81,430.601 1066.97,430.601 1069.13,430.601 1071.29,430.601 1073.46,430.601 1075.62,430.601 1077.78,430.601 1079.94,430.601 1082.1,430.601 1084.26,430.601 1086.42,430.601 1088.58,430.601 1090.74,430.601 1092.9,430.601 1095.07,430.601 1097.23,430.601 1099.39,430.601 1101.55,430.601 1103.71,430.601 1105.87,430.601 1108.03,430.601 1110.19,430.601 1112.35,430.601 1114.51,430.601 1116.67,430.601 1118.84,430.601 1121,430.601 1123.16,430.601 1125.32,430.601 1127.48,430.601 1129.64,430.601 1131.8,430.601 1133.96,430.601 1136.12,430.601 1138.28,430.601 1140.45,430.601 1142.61,430.601 1144.77,430.601 1146.93,430.601 1149.09,430.601 1151.25,430.601 1153.41,430.601 1155.57,430.601 1157.73,430.601 1159.89,430.601 1162.06,430.601 1164.22,430.601 1166.38,430.601 1168.54,430.601 1170.7,430.601 1172.86,430.601 1175.02,430.601 1177.18,430.601 1179.34,430.601 1181.5,430.601 1183.67,430.601 1185.83,430.601 1187.99,430.601 1190.15,430.601 1192.31,430.601 1194.47,430.601 1196.63,430.601 1198.79,430.601 1200.95,430.601 1203.11,430.601 1205.28,430.601 1207.44,430.601 1209.6,430.601 1211.76,430.601 1213.92,430.601 1216.08,430.601 1218.24,430.601 1220.4,430.601 1222.56,430.601 1224.72,430.601 1226.88,430.601 1229.05,430.601 1231.21,430.601 1233.37,430.601 1235.53,430.601 1237.69,430.601 1239.85,430.601 1242.01,430.601 1244.17,430.601 1246.33,430.601 1248.49,430.601 1250.66,430.601 1252.82,430.601 1254.98,430.601 1257.14,430.601 1259.3,430.601 1261.46,430.601 1263.62,430.601 1265.78,430.601 1267.94,430.601 1270.1,430.601 1272.27,430.601 1274.43,572.192 1276.59,572.192 1278.75,572.192 1280.91,572.192 1283.07,572.192 1285.23,572.192 1287.39,572.192 1289.55,572.192 1291.71,572.192 1293.88,572.192 1296.04,572.192 1298.2,572.192 1300.36,572.192 1302.52,572.192 1304.68,572.192 1306.84,572.192 1309,572.192 1311.16,572.192 1313.32,572.192 1315.49,572.192 1317.65,572.192 1319.81,572.192 1321.97,572.192 1324.13,572.192 1326.29,572.192 1328.45,572.192 1330.61,572.192 1332.77,572.192 1334.93,572.192 1337.09,572.192 1339.26,572.192 1341.42,572.192 1343.58,572.192 1345.74,572.192 1347.9,572.192 1350.06,572.192 1352.22,572.192 1354.38,572.192 1356.54,572.192 1358.7,572.192 1360.87,572.192 1363.03,572.192 1365.19,572.192 1367.35,572.192 1369.51,572.192 1371.67,572.192 1373.83,572.192 1375.99,572.192 1378.15,572.192 1380.31,572.192 1382.48,572.192 1384.64,572.192 1386.8,572.192 1388.96,572.192 1391.12,572.192 1393.28,572.192 1395.44,572.192 1397.6,572.192 1399.76,572.192 1401.92,572.192 1404.09,572.192 1406.25,572.192 1408.41,572.192 1410.57,572.192 1412.73,572.192 1414.89,572.192 1417.05,572.192 1419.21,572.192 1421.37,572.192 1423.53,572.192 1425.7,572.192 1427.86,572.192 1430.02,572.192 1432.18,572.192 1434.34,572.192 1436.5,572.192 1438.66,572.192 1440.82,572.192 1442.98,572.192 1445.14,572.192 1447.3,572.192 1449.47,572.192 1451.63,572.192 1453.79,572.192 1455.95,572.192 1458.11,572.192 1460.27,572.192 1462.43,572.192 1464.59,572.192 1466.75,572.192 1468.91,572.192 1471.08,572.192 1473.24,572.192 1475.4,572.192 1477.56,572.192 1479.72,572.192 1481.88,572.192 1484.04,572.192 1486.2,572.192 1488.36,572.192 1490.52,485.083 1492.69,485.083 1494.85,485.083 1497.01,485.083 1499.17,485.083 1501.33,485.083 1503.49,485.083 1505.65,485.083 1507.81,485.083 1509.97,485.083 1512.13,485.083 1514.3,485.083 1516.46,485.083 1518.62,485.083 1520.78,485.083 1522.94,485.083 1525.1,485.083 1527.26,485.083 1529.42,485.083 1531.58,485.083 1533.74,485.083 1535.91,485.083 1538.07,485.083 1540.23,485.083 1542.39,485.083 1544.55,485.083 1546.71,485.083 1548.87,485.083 1551.03,485.083 1553.19,485.083 1555.35,485.083 1557.51,485.083 1559.68,485.083 1561.84,485.083 1564,485.083 1566.16,485.083 1568.32,485.083 1570.48,485.083 1572.64,485.083 1574.8,485.083 1576.96,485.083 1579.12,485.083 1581.29,485.083 1583.45,485.083 1585.61,485.083 1587.77,485.083 1589.93,485.083 1592.09,485.083 1594.25,485.083 1596.41,485.083 1598.57,485.083 1600.73,485.083 1602.9,485.083 1605.06,485.083 1607.22,485.083 1609.38,485.083 1611.54,485.083 1613.7,485.083 1615.86,485.083 1618.02,485.083 1620.18,485.083 1622.34,485.083 1624.51,485.083 1626.67,485.083 1628.83,485.083 1630.99,485.083 1633.15,485.083 1635.31,485.083 1637.47,485.083 1639.63,485.083 1641.79,485.083 1643.95,485.083 1646.12,485.083 1648.28,485.083 1650.44,485.083 1652.6,485.083 1654.76,485.083 1656.92,485.083 1659.08,485.083 1661.24,485.083 1663.4,485.083 1665.56,485.083 1667.72,485.083 1669.89,485.083 1672.05,485.083 1674.21,485.083 1676.37,485.083 1678.53,485.083 1680.69,485.083 1682.85,485.083 1685.01,485.083 1687.17,485.083 1689.33,485.083 1691.5,485.083 1693.66,485.083 1695.82,485.083 1697.98,485.083 1700.14,485.083 1702.3,485.083 1704.46,485.083 1706.62,233.59 1708.78,233.59 1710.94,233.59 1713.11,233.59 1715.27,233.59 1717.43,233.59 1719.59,233.59 1721.75,233.59 1723.91,233.59 1726.07,233.59 1728.23,233.59 1730.39,233.59 1732.55,233.59 1734.72,233.59 1736.88,233.59 1739.04,233.59 1741.2,233.59 1743.36,233.59 1745.52,233.59 1747.68,233.59 1749.84,233.59 1752,233.59 1754.16,233.59 1756.33,233.59 1758.49,233.59 1760.65,233.59 1762.81,233.59 1764.97,233.59 1767.13,233.59 1769.29,233.59 1771.45,233.59 1773.61,233.59 1775.77,233.59 1777.93,233.59 1780.1,233.59 1782.26,233.59 1784.42,233.59 1786.58,233.59 1788.74,233.59 1790.9,233.59 1793.06,233.59 1795.22,233.59 1797.38,233.59 1799.54,233.59 1801.71,233.59 1803.87,233.59 1806.03,233.59 1808.19,233.59 1810.35,233.59 1812.51,233.59 1814.67,233.59 1816.83,233.59 1818.99,233.59 1821.15,233.59 1823.32,233.59 1825.48,233.59 1827.64,233.59 1829.8,233.59 1831.96,233.59 1834.12,233.59 1836.28,233.59 1838.44,233.59 1840.6,233.59 1842.76,233.59 1844.93,233.59 1847.09,233.59 1849.25,233.59 1851.41,233.59 1853.57,233.59 1855.73,233.59 1857.89,233.59 1860.05,233.59 1862.21,233.59 1864.37,233.59 1866.54,233.59 1868.7,233.59 1870.86,233.59 1873.02,233.59 1875.18,233.59 1877.34,233.59 1879.5,233.59 1881.66,233.59 1883.82,233.59 1885.98,233.59 1888.15,233.59 1890.31,233.59 1892.47,233.59 1894.63,233.59 1896.79,233.59 1898.95,233.59 1901.11,233.59 1903.27,233.59 1905.43,233.59 1907.59,233.59 1909.75,233.59 1911.92,233.59 1914.08,233.59 1916.24,233.59 1918.4,233.59 1920.56,233.59 1922.72,86.1857 1924.88,86.1857 1927.04,86.1857 1929.2,86.1857 1931.36,86.1857 1933.53,86.1857 1935.69,86.1857 1937.85,86.1857 1940.01,86.1857 1942.17,86.1857 1944.33,86.1857 1946.49,86.1857 1948.65,86.1857 1950.81,86.1857 1952.97,86.1857 1955.14,86.1857 1957.3,86.1857 1959.46,86.1857 1961.62,86.1857 1963.78,86.1857 1965.94,86.1857 1968.1,86.1857 1970.26,86.1857 1972.42,86.1857 1974.58,86.1857 1976.75,86.1857 1978.91,86.1857 1981.07,86.1857 1983.23,86.1857 1985.39,86.1857 1987.55,86.1857 1989.71,86.1857 1991.87,86.1857 1994.03,86.1857 1996.19,86.1857 1998.36,86.1857 2000.52,86.1857 2002.68,86.1857 2004.84,86.1857 2007,86.1857 2009.16,86.1857 2011.32,86.1857 2013.48,86.1857 2015.64,86.1857 2017.8,86.1857 2019.96,86.1857 2022.13,86.1857 2024.29,86.1857 2026.45,86.1857 2028.61,86.1857 2030.77,86.1857 2032.93,86.1857 2035.09,86.1857 2037.25,86.1857 2039.41,86.1857 2041.57,86.1857 2043.74,86.1857 2045.9,86.1857 2048.06,86.1857 2050.22,86.1857 2052.38,86.1857 2054.54,86.1857 2056.7,86.1857 2058.86,86.1857 2061.02,86.1857 2063.18,86.1857 2065.35,86.1857 2067.51,86.1857 2069.67,86.1857 2071.83,86.1857 2073.99,86.1857 2076.15,86.1857 2078.31,86.1857 2080.47,86.1857 2082.63,86.1857 2084.79,86.1857 2086.96,86.1857 2089.12,86.1857 2091.28,86.1857 2093.44,86.1857 2095.6,86.1857 2097.76,86.1857 2099.92,86.1857 2102.08,86.1857 2104.24,86.1857 2106.4,86.1857 2108.57,86.1857 2110.73,86.1857 2112.89,86.1857 2115.05,86.1857 2117.21,86.1857 2119.37,86.1857 2121.53,86.1857 2123.69,86.1857 2125.85,86.1857 2128.01,86.1857 2130.17,86.1857 2132.34,86.1857 2134.5,86.1857 2136.66,86.1857 2138.82,1384.24 2140.98,1384.24 2143.14,1384.24 2145.3,1384.24 2147.46,1384.24 2149.62,1384.24 2151.78,1384.24 2153.95,1384.24 2156.11,1384.24 2158.27,1384.24 2160.43,1384.24 2162.59,1384.24 2164.75,1384.24 2166.91,1384.24 2169.07,1384.24 2171.23,1384.24 2173.39,1384.24 2175.56,1384.24 2177.72,1384.24 2179.88,1384.24 2182.04,1384.24 2184.2,1384.24 2186.36,1384.24 2188.52,1384.24 2190.68,1384.24 2192.84,1384.24 2195,1384.24 2197.17,1384.24 2199.33,1384.24 2201.49,1384.24 2203.65,1384.24 2205.81,1384.24 2207.97,1384.24 2210.13,1384.24 2212.29,1384.24 2214.45,1384.24 2216.61,1384.24 2218.78,1384.24 2220.94,1384.24 2223.1,1384.24 2225.26,1384.24 2227.42,1384.24 2229.58,1384.24 2231.74,1384.24 2233.9,1384.24 2236.06,1384.24 2238.22,1384.24 2240.38,1384.24 2242.55,1384.24 2244.71,1384.24 2246.87,1384.24 2249.03,1384.24 2251.19,1384.24 2253.35,1384.24 2255.51,1384.24 2257.67,1384.24 2259.83,1384.24 2261.99,1384.24 2264.16,1384.24 2266.32,1384.24 2268.48,1384.24 2270.64,1384.24 2272.8,1384.24 2274.96,1384.24 2277.12,1384.24 2279.28,1384.24 2281.44,1384.24 2283.6,1384.24 2285.77,1384.24 2287.93,1384.24 2290.09,1384.24 2292.25,1384.24 2294.41,1384.24 2296.57,1384.24 2298.73,1384.24 2300.89,1384.24 2303.05,1384.24 2305.21,1384.24 2307.38,1384.24 2309.54,1384.24 2311.7,1384.24 2313.86,1384.24 2316.02,1384.24 2318.18,1384.24 2320.34,1384.24 2322.5,1384.24 2324.66,1384.24 2326.82,1384.24 2328.99,1384.24 2331.15,1384.24 2333.31,1384.24 2335.47,1384.24 2337.63,1384.24 2339.79,1384.24 2341.95,1384.24 2344.11,1384.24 2346.27,1384.24 2348.43,1384.24 2350.59,1384.24 2352.76,1384.24 "/>
<path clip-path="url(#clip820)" d="M265.897 248.629 L506.917 248.629 L506.917 93.1086 L265.897 93.1086  Z" fill="#ffffff" fill-rule="evenodd" fill-opacity="1"/>
<polyline clip-path="url(#clip820)" style="stroke:#000000; stroke-linecap:round; stroke-linejoin:round; stroke-width:4; stroke-opacity:1; fill:none" points="265.897,248.629 506.917,248.629 506.917,93.1086 265.897,93.1086 265.897,248.629 "/>
<polyline clip-path="url(#clip820)" style="stroke:#009af9; stroke-linecap:round; stroke-linejoin:round; stroke-width:4; stroke-opacity:1; fill:none" points="289.884,144.949 433.805,144.949 "/>
<path clip-path="url(#clip820)" d="M482.444 136.303 L473.069 148.919 L482.931 162.229 L477.907 162.229 L470.361 152.043 L462.815 162.229 L457.792 162.229 L467.861 148.664 L458.648 136.303 L463.671 136.303 L470.546 145.539 L477.421 136.303 L482.444 136.303 Z" fill="#000000" fill-rule="nonzero" fill-opacity="1" /><polyline clip-path="url(#clip820)" style="stroke:#e26f46; stroke-linecap:round; stroke-linejoin:round; stroke-width:4; stroke-opacity:1; fill:none" points="289.884,196.789 433.805,196.789 "/>
<path clip-path="url(#clip820)" d="M474.296 178.05 L474.296 181.592 L470.222 181.592 Q467.931 181.592 467.028 182.518 Q466.148 183.444 466.148 185.851 L466.148 188.143 L473.162 188.143 L473.162 191.453 L466.148 191.453 L466.148 214.069 L461.866 214.069 L461.866 191.453 L457.792 191.453 L457.792 188.143 L461.866 188.143 L461.866 186.337 Q461.866 182.009 463.88 180.041 Q465.894 178.05 470.269 178.05 L474.296 178.05 Z" fill="#000000" fill-rule="nonzero" fill-opacity="1" /></svg>
