<?xml version="1.0" encoding="utf-8"?>
<svg xmlns="http://www.w3.org/2000/svg" xmlns:xlink="http://www.w3.org/1999/xlink" width="600" height="400" viewBox="0 0 2400 1600">
<defs>
  <clipPath id="clip680">
    <rect x="0" y="0" width="2400" height="1600"/>
  </clipPath>
</defs>
<path clip-path="url(#clip680)" d="M0 1600 L2400 1600 L2400 0 L0 0  Z" fill="#ffffff" fill-rule="evenodd" fill-opacity="1"/>
<defs>
  <clipPath id="clip681">
    <rect x="480" y="0" width="1681" height="1600"/>
  </clipPath>
</defs>
<defs>
  <clipPath id="clip682">
    <rect x="155" y="47" width="2198" height="1440"/>
  </clipPath>
</defs>
<path clip-path="url(#clip682)" d="M-1381.12 2771.23 L-1381.12 2462.57 L-1229.24 2308.24 L-966.172 2397.34 L-966.172 2706 L-1118.06 2860.34 L-1381.12 2771.23  Z" fill="#ffffff" fill-rule="evenodd" fill-opacity="1"/>
<polyline clip-path="url(#clip682)" style="stroke:#000000; stroke-linecap:round; stroke-linejoin:round; stroke-width:2; stroke-opacity:0.1; fill:none" points="777.431,1228.87 1192.89,869.065 1192.89,149.463 "/>
<polyline clip-path="url(#clip682)" style="stroke:#000000; stroke-linecap:round; stroke-linejoin:round; stroke-width:2; stroke-opacity:0.1; fill:none" points="908.966,1266.84 1324.43,907.035 1324.43,187.433 "/>
<polyline clip-path="url(#clip682)" style="stroke:#000000; stroke-linecap:round; stroke-linejoin:round; stroke-width:2; stroke-opacity:0.1; fill:none" points="1040.5,1304.81 1455.96,945.006 1455.96,225.404 "/>
<polyline clip-path="url(#clip682)" style="stroke:#000000; stroke-linecap:round; stroke-linejoin:round; stroke-width:2; stroke-opacity:0.1; fill:none" points="1172.04,1342.78 1587.5,982.977 1587.5,263.375 "/>
<polyline clip-path="url(#clip682)" style="stroke:#000000; stroke-linecap:round; stroke-linejoin:round; stroke-width:2; stroke-opacity:0.1; fill:none" points="1303.57,1380.75 1719.03,1020.95 1719.03,301.346 "/>
<polyline clip-path="url(#clip682)" style="stroke:#000000; stroke-linecap:round; stroke-linejoin:round; stroke-width:2; stroke-opacity:0.1; fill:none" points="1445.83,1376.21 726.226,1168.48 726.226,448.874 "/>
<polyline clip-path="url(#clip682)" style="stroke:#000000; stroke-linecap:round; stroke-linejoin:round; stroke-width:2; stroke-opacity:0.1; fill:none" points="1534.93,1299.04 815.33,1091.31 815.33,371.707 "/>
<polyline clip-path="url(#clip682)" style="stroke:#000000; stroke-linecap:round; stroke-linejoin:round; stroke-width:2; stroke-opacity:0.1; fill:none" points="1624.04,1221.87 904.434,1014.14 904.434,294.541 "/>
<polyline clip-path="url(#clip682)" style="stroke:#000000; stroke-linecap:round; stroke-linejoin:round; stroke-width:2; stroke-opacity:0.1; fill:none" points="1713.14,1144.71 993.538,936.977 993.538,217.375 "/>
<polyline clip-path="url(#clip682)" style="stroke:#000000; stroke-linecap:round; stroke-linejoin:round; stroke-width:2; stroke-opacity:0.1; fill:none" points="1802.24,1067.54 1082.64,859.81 1082.64,140.208 "/>
<polyline clip-path="url(#clip682)" style="stroke:#000000; stroke-linecap:round; stroke-linejoin:round; stroke-width:2; stroke-opacity:0.1; fill:none" points="686.728,1186.46 1102.19,826.657 1821.79,1034.39 "/>
<polyline clip-path="url(#clip682)" style="stroke:#000000; stroke-linecap:round; stroke-linejoin:round; stroke-width:2; stroke-opacity:0.1; fill:none" points="686.728,1027.53 1102.19,667.73 1821.79,875.462 "/>
<polyline clip-path="url(#clip682)" style="stroke:#000000; stroke-linecap:round; stroke-linejoin:round; stroke-width:2; stroke-opacity:0.1; fill:none" points="686.728,868.605 1102.19,508.804 1821.79,716.535 "/>
<polyline clip-path="url(#clip682)" style="stroke:#000000; stroke-linecap:round; stroke-linejoin:round; stroke-width:2; stroke-opacity:0.1; fill:none" points="686.728,709.679 1102.19,349.878 1821.79,557.609 "/>
<polyline clip-path="url(#clip682)" style="stroke:#000000; stroke-linecap:round; stroke-linejoin:round; stroke-width:2; stroke-opacity:0.1; fill:none" points="686.728,550.753 1102.19,190.952 1821.79,398.683 "/>
<polyline clip-path="url(#clip680)" style="stroke:#000000; stroke-linecap:round; stroke-linejoin:round; stroke-width:4; stroke-opacity:1; fill:none" points="686.728,1202.68 1406.33,1410.41 "/>
<polyline clip-path="url(#clip680)" style="stroke:#000000; stroke-linecap:round; stroke-linejoin:round; stroke-width:4; stroke-opacity:1; fill:none" points="777.431,1228.87 782.417,1224.55 "/>
<polyline clip-path="url(#clip680)" style="stroke:#000000; stroke-linecap:round; stroke-linejoin:round; stroke-width:4; stroke-opacity:1; fill:none" points="908.966,1266.84 913.952,1262.52 "/>
<polyline clip-path="url(#clip680)" style="stroke:#000000; stroke-linecap:round; stroke-linejoin:round; stroke-width:4; stroke-opacity:1; fill:none" points="1040.5,1304.81 1045.49,1300.49 "/>
<polyline clip-path="url(#clip680)" style="stroke:#000000; stroke-linecap:round; stroke-linejoin:round; stroke-width:4; stroke-opacity:1; fill:none" points="1172.04,1342.78 1177.02,1338.46 "/>
<polyline clip-path="url(#clip680)" style="stroke:#000000; stroke-linecap:round; stroke-linejoin:round; stroke-width:4; stroke-opacity:1; fill:none" points="1303.57,1380.75 1308.56,1376.43 "/>
<path clip-path="url(#clip680)" d="M758.609 1242.94 L746.803 1261.39 L758.609 1261.39 L758.609 1242.94 M757.382 1238.86 L763.262 1238.86 L763.262 1261.39 L768.192 1261.39 L768.192 1265.28 L763.262 1265.28 L763.262 1273.42 L758.609 1273.42 L758.609 1265.28 L743.007 1265.28 L743.007 1260.76 L757.382 1238.86 Z" fill="#000000" fill-rule="nonzero" fill-opacity="1" /><path clip-path="url(#clip680)" d="M878.824 1276.83 L897.18 1276.83 L897.18 1280.77 L883.106 1280.77 L883.106 1289.24 Q884.125 1288.89 885.144 1288.73 Q886.162 1288.55 887.181 1288.55 Q892.968 1288.55 896.347 1291.72 Q899.727 1294.89 899.727 1300.31 Q899.727 1305.88 896.255 1308.99 Q892.782 1312.07 886.463 1312.07 Q884.287 1312.07 882.019 1311.7 Q879.773 1311.32 877.366 1310.58 L877.366 1305.88 Q879.449 1307.02 881.671 1307.57 Q883.894 1308.13 886.37 1308.13 Q890.375 1308.13 892.713 1306.02 Q895.051 1303.92 895.051 1300.31 Q895.051 1296.7 892.713 1294.59 Q890.375 1292.48 886.37 1292.48 Q884.495 1292.48 882.62 1292.9 Q880.769 1293.32 878.824 1294.2 L878.824 1276.83 Z" fill="#000000" fill-rule="nonzero" fill-opacity="1" /><path clip-path="url(#clip680)" d="M1019.73 1330.22 Q1016.59 1330.22 1014.73 1332.37 Q1012.91 1334.53 1012.91 1338.28 Q1012.91 1342 1014.73 1344.18 Q1016.59 1346.33 1019.73 1346.33 Q1022.88 1346.33 1024.71 1344.18 Q1026.56 1342 1026.56 1338.28 Q1026.56 1334.53 1024.71 1332.37 Q1022.88 1330.22 1019.73 1330.22 M1029.02 1315.57 L1029.02 1319.83 Q1027.26 1318.99 1025.45 1318.55 Q1023.67 1318.12 1021.91 1318.12 Q1017.28 1318.12 1014.83 1321.24 Q1012.4 1324.37 1012.05 1330.68 Q1013.41 1328.67 1015.47 1327.61 Q1017.53 1326.52 1020.01 1326.52 Q1025.22 1326.52 1028.23 1329.69 Q1031.26 1332.84 1031.26 1338.28 Q1031.26 1343.6 1028.11 1346.82 Q1024.97 1350.04 1019.73 1350.04 Q1013.74 1350.04 1010.57 1345.45 Q1007.4 1340.85 1007.4 1332.12 Q1007.4 1323.93 1011.28 1319.06 Q1015.17 1314.18 1021.72 1314.18 Q1023.48 1314.18 1025.27 1314.53 Q1027.07 1314.87 1029.02 1315.57 Z" fill="#000000" fill-rule="nonzero" fill-opacity="1" /><path clip-path="url(#clip680)" d="M1140.57 1352.78 L1162.8 1352.78 L1162.8 1354.77 L1150.25 1387.34 L1145.37 1387.34 L1157.17 1356.71 L1140.57 1356.71 L1140.57 1352.78 Z" fill="#000000" fill-rule="nonzero" fill-opacity="1" /><path clip-path="url(#clip680)" d="M1282.48 1408.89 Q1279.15 1408.89 1277.22 1410.68 Q1275.33 1412.46 1275.33 1415.58 Q1275.33 1418.71 1277.22 1420.49 Q1279.15 1422.27 1282.48 1422.27 Q1285.81 1422.27 1287.73 1420.49 Q1289.65 1418.69 1289.65 1415.58 Q1289.65 1412.46 1287.73 1410.68 Q1285.84 1408.89 1282.48 1408.89 M1277.8 1406.9 Q1274.79 1406.16 1273.1 1404.1 Q1271.44 1402.04 1271.44 1399.08 Q1271.44 1394.94 1274.38 1392.53 Q1277.34 1390.12 1282.48 1390.12 Q1287.64 1390.12 1290.58 1392.53 Q1293.52 1394.94 1293.52 1399.08 Q1293.52 1402.04 1291.83 1404.1 Q1290.16 1406.16 1287.18 1406.9 Q1290.56 1407.69 1292.43 1409.98 Q1294.33 1412.27 1294.33 1415.58 Q1294.33 1420.61 1291.25 1423.29 Q1288.2 1425.98 1282.48 1425.98 Q1276.76 1425.98 1273.68 1423.29 Q1270.63 1420.61 1270.63 1415.58 Q1270.63 1412.27 1272.53 1409.98 Q1274.42 1407.69 1277.8 1406.9 M1276.09 1399.52 Q1276.09 1402.2 1277.76 1403.71 Q1279.45 1405.21 1282.48 1405.21 Q1285.49 1405.21 1287.18 1403.71 Q1288.89 1402.2 1288.89 1399.52 Q1288.89 1396.83 1287.18 1395.33 Q1285.49 1393.83 1282.48 1393.83 Q1279.45 1393.83 1277.76 1395.33 Q1276.09 1396.83 1276.09 1399.52 Z" fill="#000000" fill-rule="nonzero" fill-opacity="1" /><polyline clip-path="url(#clip680)" style="stroke:#000000; stroke-linecap:round; stroke-linejoin:round; stroke-width:4; stroke-opacity:1; fill:none" points="1406.33,1410.41 1821.79,1050.61 "/>
<polyline clip-path="url(#clip680)" style="stroke:#000000; stroke-linecap:round; stroke-linejoin:round; stroke-width:4; stroke-opacity:1; fill:none" points="1445.83,1376.21 1437.19,1373.71 "/>
<polyline clip-path="url(#clip680)" style="stroke:#000000; stroke-linecap:round; stroke-linejoin:round; stroke-width:4; stroke-opacity:1; fill:none" points="1534.93,1299.04 1526.3,1296.55 "/>
<polyline clip-path="url(#clip680)" style="stroke:#000000; stroke-linecap:round; stroke-linejoin:round; stroke-width:4; stroke-opacity:1; fill:none" points="1624.04,1221.87 1615.4,1219.38 "/>
<polyline clip-path="url(#clip680)" style="stroke:#000000; stroke-linecap:round; stroke-linejoin:round; stroke-width:4; stroke-opacity:1; fill:none" points="1713.14,1144.71 1704.51,1142.21 "/>
<polyline clip-path="url(#clip680)" style="stroke:#000000; stroke-linecap:round; stroke-linejoin:round; stroke-width:4; stroke-opacity:1; fill:none" points="1802.24,1067.54 1793.61,1065.05 "/>
<path clip-path="url(#clip680)" d="M1481.96 1383.2 L1470.15 1401.65 L1481.96 1401.65 L1481.96 1383.2 M1480.73 1379.13 L1486.61 1379.13 L1486.61 1401.65 L1491.54 1401.65 L1491.54 1405.54 L1486.61 1405.54 L1486.61 1413.69 L1481.96 1413.69 L1481.96 1405.54 L1466.35 1405.54 L1466.35 1401.03 L1480.73 1379.13 Z" fill="#000000" fill-rule="nonzero" fill-opacity="1" /><path clip-path="url(#clip680)" d="M1556.92 1301.96 L1575.27 1301.96 L1575.27 1305.9 L1561.2 1305.9 L1561.2 1314.37 Q1562.22 1314.02 1563.24 1313.86 Q1564.26 1313.67 1565.27 1313.67 Q1571.06 1313.67 1574.44 1316.85 Q1577.82 1320.02 1577.82 1325.43 Q1577.82 1331.01 1574.35 1334.11 Q1570.88 1337.19 1564.56 1337.19 Q1562.38 1337.19 1560.11 1336.82 Q1557.87 1336.45 1555.46 1335.71 L1555.46 1331.01 Q1557.54 1332.15 1559.76 1332.7 Q1561.99 1333.26 1564.46 1333.26 Q1568.47 1333.26 1570.81 1331.15 Q1573.14 1329.04 1573.14 1325.43 Q1573.14 1321.82 1570.81 1319.72 Q1568.47 1317.61 1564.46 1317.61 Q1562.59 1317.61 1560.71 1318.03 Q1558.86 1318.44 1556.92 1319.32 L1556.92 1301.96 Z" fill="#000000" fill-rule="nonzero" fill-opacity="1" /><path clip-path="url(#clip680)" d="M1656.9 1240.21 Q1653.75 1240.21 1651.9 1242.36 Q1650.07 1244.52 1650.07 1248.27 Q1650.07 1251.99 1651.9 1254.17 Q1653.75 1256.32 1656.9 1256.32 Q1660.05 1256.32 1661.88 1254.17 Q1663.73 1251.99 1663.73 1248.27 Q1663.73 1244.52 1661.88 1242.36 Q1660.05 1240.21 1656.9 1240.21 M1666.18 1225.56 L1666.18 1229.82 Q1664.42 1228.99 1662.62 1228.55 Q1660.84 1228.11 1659.08 1228.11 Q1654.45 1228.11 1651.99 1231.23 Q1649.56 1234.36 1649.22 1240.67 Q1650.58 1238.66 1652.64 1237.6 Q1654.7 1236.51 1657.18 1236.51 Q1662.39 1236.51 1665.4 1239.68 Q1668.43 1242.83 1668.43 1248.27 Q1668.43 1253.59 1665.28 1256.81 Q1662.13 1260.03 1656.9 1260.03 Q1650.91 1260.03 1647.73 1255.44 Q1644.56 1250.84 1644.56 1242.11 Q1644.56 1233.92 1648.45 1229.05 Q1652.34 1224.17 1658.89 1224.17 Q1660.65 1224.17 1662.43 1224.52 Q1664.24 1224.86 1666.18 1225.56 Z" fill="#000000" fill-rule="nonzero" fill-opacity="1" /><path clip-path="url(#clip680)" d="M1733.67 1147.63 L1755.89 1147.63 L1755.89 1149.62 L1743.34 1182.19 L1738.46 1182.19 L1750.26 1151.56 L1733.67 1151.56 L1733.67 1147.63 Z" fill="#000000" fill-rule="nonzero" fill-opacity="1" /><path clip-path="url(#clip680)" d="M1834.62 1088.61 Q1831.29 1088.61 1829.37 1090.39 Q1827.47 1092.18 1827.47 1095.3 Q1827.47 1098.43 1829.37 1100.21 Q1831.29 1101.99 1834.62 1101.99 Q1837.96 1101.99 1839.88 1100.21 Q1841.8 1098.4 1841.8 1095.3 Q1841.8 1092.18 1839.88 1090.39 Q1837.98 1088.61 1834.62 1088.61 M1829.95 1086.62 Q1826.94 1085.88 1825.25 1083.82 Q1823.58 1081.76 1823.58 1078.8 Q1823.58 1074.65 1826.52 1072.24 Q1829.48 1069.84 1834.62 1069.84 Q1839.79 1069.84 1842.72 1072.24 Q1845.66 1074.65 1845.66 1078.8 Q1845.66 1081.76 1843.97 1083.82 Q1842.31 1085.88 1839.32 1086.62 Q1842.7 1087.41 1844.58 1089.7 Q1846.47 1091.99 1846.47 1095.3 Q1846.47 1100.32 1843.4 1103.01 Q1840.34 1105.69 1834.62 1105.69 Q1828.91 1105.69 1825.83 1103.01 Q1822.77 1100.32 1822.77 1095.3 Q1822.77 1091.99 1824.67 1089.7 Q1826.57 1087.41 1829.95 1086.62 M1828.23 1079.24 Q1828.23 1081.92 1829.9 1083.43 Q1831.59 1084.93 1834.62 1084.93 Q1837.63 1084.93 1839.32 1083.43 Q1841.04 1081.92 1841.04 1079.24 Q1841.04 1076.55 1839.32 1075.05 Q1837.63 1073.54 1834.62 1073.54 Q1831.59 1073.54 1829.9 1075.05 Q1828.23 1076.55 1828.23 1079.24 Z" fill="#000000" fill-rule="nonzero" fill-opacity="1" /><polyline clip-path="url(#clip680)" style="stroke:#000000; stroke-linecap:round; stroke-linejoin:round; stroke-width:4; stroke-opacity:1; fill:none" points="686.728,1202.68 686.728,483.08 "/>
<polyline clip-path="url(#clip680)" style="stroke:#000000; stroke-linecap:round; stroke-linejoin:round; stroke-width:4; stroke-opacity:1; fill:none" points="686.728,1186.46 691.714,1182.14 "/>
<polyline clip-path="url(#clip680)" style="stroke:#000000; stroke-linecap:round; stroke-linejoin:round; stroke-width:4; stroke-opacity:1; fill:none" points="686.728,1027.53 691.714,1023.21 "/>
<polyline clip-path="url(#clip680)" style="stroke:#000000; stroke-linecap:round; stroke-linejoin:round; stroke-width:4; stroke-opacity:1; fill:none" points="686.728,868.605 691.714,864.288 "/>
<polyline clip-path="url(#clip680)" style="stroke:#000000; stroke-linecap:round; stroke-linejoin:round; stroke-width:4; stroke-opacity:1; fill:none" points="686.728,709.679 691.714,705.361 "/>
<polyline clip-path="url(#clip680)" style="stroke:#000000; stroke-linecap:round; stroke-linejoin:round; stroke-width:4; stroke-opacity:1; fill:none" points="686.728,550.753 691.714,546.435 "/>
<path clip-path="url(#clip680)" d="M601.748 1172.26 Q598.137 1172.26 596.308 1175.82 Q594.503 1179.36 594.503 1186.49 Q594.503 1193.6 596.308 1197.16 Q598.137 1200.71 601.748 1200.71 Q605.382 1200.71 607.188 1197.16 Q609.017 1193.6 609.017 1186.49 Q609.017 1179.36 607.188 1175.82 Q605.382 1172.26 601.748 1172.26 M601.748 1168.55 Q607.558 1168.55 610.614 1173.16 Q613.692 1177.74 613.692 1186.49 Q613.692 1195.22 610.614 1199.83 Q607.558 1204.41 601.748 1204.41 Q595.938 1204.41 592.859 1199.83 Q589.804 1195.22 589.804 1186.49 Q589.804 1177.74 592.859 1173.16 Q595.938 1168.55 601.748 1168.55 Z" fill="#000000" fill-rule="nonzero" fill-opacity="1" /><path clip-path="url(#clip680)" d="M621.91 1197.86 L626.794 1197.86 L626.794 1203.74 L621.91 1203.74 L621.91 1197.86 Z" fill="#000000" fill-rule="nonzero" fill-opacity="1" /><path clip-path="url(#clip680)" d="M637.026 1169.18 L655.382 1169.18 L655.382 1173.11 L641.308 1173.11 L641.308 1181.58 Q642.327 1181.24 643.345 1181.08 Q644.364 1180.89 645.382 1180.89 Q651.169 1180.89 654.549 1184.06 Q657.928 1187.23 657.928 1192.65 Q657.928 1198.23 654.456 1201.33 Q650.984 1204.41 644.664 1204.41 Q642.489 1204.41 640.22 1204.04 Q637.975 1203.67 635.567 1202.93 L635.567 1198.23 Q637.651 1199.36 639.873 1199.92 Q642.095 1200.47 644.572 1200.47 Q648.576 1200.47 650.914 1198.37 Q653.252 1196.26 653.252 1192.65 Q653.252 1189.04 650.914 1186.93 Q648.576 1184.83 644.572 1184.83 Q642.697 1184.83 640.822 1185.24 Q638.97 1185.66 637.026 1186.54 L637.026 1169.18 Z" fill="#000000" fill-rule="nonzero" fill-opacity="1" /><path clip-path="url(#clip680)" d="M591.563 1040.88 L599.202 1040.88 L599.202 1014.51 L590.892 1016.18 L590.892 1011.92 L599.155 1010.25 L603.831 1010.25 L603.831 1040.88 L611.47 1040.88 L611.47 1044.81 L591.563 1044.81 L591.563 1040.88 Z" fill="#000000" fill-rule="nonzero" fill-opacity="1" /><path clip-path="url(#clip680)" d="M620.915 1038.93 L625.799 1038.93 L625.799 1044.81 L620.915 1044.81 L620.915 1038.93 Z" fill="#000000" fill-rule="nonzero" fill-opacity="1" /><path clip-path="url(#clip680)" d="M645.984 1013.33 Q642.373 1013.33 640.544 1016.89 Q638.739 1020.44 638.739 1027.57 Q638.739 1034.67 640.544 1038.24 Q642.373 1041.78 645.984 1041.78 Q649.618 1041.78 651.424 1038.24 Q653.252 1034.67 653.252 1027.57 Q653.252 1020.44 651.424 1016.89 Q649.618 1013.33 645.984 1013.33 M645.984 1009.63 Q651.794 1009.63 654.85 1014.23 Q657.928 1018.82 657.928 1027.57 Q657.928 1036.29 654.85 1040.9 Q651.794 1045.48 645.984 1045.48 Q640.174 1045.48 637.095 1040.9 Q634.04 1036.29 634.04 1027.57 Q634.04 1018.82 637.095 1014.23 Q640.174 1009.63 645.984 1009.63 Z" fill="#000000" fill-rule="nonzero" fill-opacity="1" /><path clip-path="url(#clip680)" d="M592.558 881.95 L600.197 881.95 L600.197 855.584 L591.887 857.251 L591.887 852.992 L600.151 851.325 L604.827 851.325 L604.827 881.95 L612.466 881.95 L612.466 885.885 L592.558 885.885 L592.558 881.95 Z" fill="#000000" fill-rule="nonzero" fill-opacity="1" /><path clip-path="url(#clip680)" d="M621.91 880.006 L626.794 880.006 L626.794 885.885 L621.91 885.885 L621.91 880.006 Z" fill="#000000" fill-rule="nonzero" fill-opacity="1" /><path clip-path="url(#clip680)" d="M637.026 851.325 L655.382 851.325 L655.382 855.26 L641.308 855.26 L641.308 863.732 Q642.327 863.385 643.345 863.223 Q644.364 863.038 645.382 863.038 Q651.169 863.038 654.549 866.209 Q657.928 869.381 657.928 874.797 Q657.928 880.376 654.456 883.478 Q650.984 886.556 644.664 886.556 Q642.489 886.556 640.22 886.186 Q637.975 885.816 635.567 885.075 L635.567 880.376 Q637.651 881.51 639.873 882.066 Q642.095 882.621 644.572 882.621 Q648.576 882.621 650.914 880.515 Q653.252 878.408 653.252 874.797 Q653.252 871.186 650.914 869.08 Q648.576 866.973 644.572 866.973 Q642.697 866.973 640.822 867.39 Q638.97 867.807 637.026 868.686 L637.026 851.325 Z" fill="#000000" fill-rule="nonzero" fill-opacity="1" /><path clip-path="url(#clip680)" d="M594.78 723.024 L611.1 723.024 L611.1 726.959 L589.156 726.959 L589.156 723.024 Q591.818 720.269 596.401 715.639 Q601.007 710.987 602.188 709.644 Q604.433 707.121 605.313 705.385 Q606.216 703.626 606.216 701.936 Q606.216 699.181 604.271 697.445 Q602.35 695.709 599.248 695.709 Q597.049 695.709 594.595 696.473 Q592.165 697.237 589.387 698.788 L589.387 694.066 Q592.211 692.931 594.665 692.353 Q597.118 691.774 599.155 691.774 Q604.526 691.774 607.72 694.459 Q610.915 697.144 610.915 701.635 Q610.915 703.765 610.104 705.686 Q609.317 707.584 607.211 710.177 Q606.632 710.848 603.53 714.065 Q600.429 717.26 594.78 723.024 Z" fill="#000000" fill-rule="nonzero" fill-opacity="1" /><path clip-path="url(#clip680)" d="M620.915 721.079 L625.799 721.079 L625.799 726.959 L620.915 726.959 L620.915 721.079 Z" fill="#000000" fill-rule="nonzero" fill-opacity="1" /><path clip-path="url(#clip680)" d="M645.984 695.478 Q642.373 695.478 640.544 699.042 Q638.739 702.584 638.739 709.714 Q638.739 716.82 640.544 720.385 Q642.373 723.926 645.984 723.926 Q649.618 723.926 651.424 720.385 Q653.252 716.82 653.252 709.714 Q653.252 702.584 651.424 699.042 Q649.618 695.478 645.984 695.478 M645.984 691.774 Q651.794 691.774 654.85 696.38 Q657.928 700.964 657.928 709.714 Q657.928 718.44 654.85 723.047 Q651.794 727.63 645.984 727.63 Q640.174 727.63 637.095 723.047 Q634.04 718.44 634.04 709.714 Q634.04 700.964 637.095 696.38 Q640.174 691.774 645.984 691.774 Z" fill="#000000" fill-rule="nonzero" fill-opacity="1" /><path clip-path="url(#clip680)" d="M595.776 564.097 L612.095 564.097 L612.095 568.033 L590.151 568.033 L590.151 564.097 Q592.813 561.343 597.396 556.713 Q602.003 552.06 603.183 550.718 Q605.429 548.195 606.308 546.459 Q607.211 544.699 607.211 543.01 Q607.211 540.255 605.267 538.519 Q603.345 536.783 600.243 536.783 Q598.044 536.783 595.591 537.547 Q593.16 538.311 590.382 539.861 L590.382 535.139 Q593.206 534.005 595.66 533.426 Q598.114 532.848 600.151 532.848 Q605.521 532.848 608.716 535.533 Q611.91 538.218 611.91 542.709 Q611.91 544.838 611.1 546.76 Q610.313 548.658 608.206 551.25 Q607.628 551.922 604.526 555.139 Q601.424 558.334 595.776 564.097 Z" fill="#000000" fill-rule="nonzero" fill-opacity="1" /><path clip-path="url(#clip680)" d="M621.91 562.153 L626.794 562.153 L626.794 568.033 L621.91 568.033 L621.91 562.153 Z" fill="#000000" fill-rule="nonzero" fill-opacity="1" /><path clip-path="url(#clip680)" d="M637.026 533.473 L655.382 533.473 L655.382 537.408 L641.308 537.408 L641.308 545.88 Q642.327 545.533 643.345 545.371 Q644.364 545.186 645.382 545.186 Q651.169 545.186 654.549 548.357 Q657.928 551.528 657.928 556.945 Q657.928 562.523 654.456 565.625 Q650.984 568.704 644.664 568.704 Q642.489 568.704 640.22 568.334 Q637.975 567.963 635.567 567.222 L635.567 562.523 Q637.651 563.658 639.873 564.213 Q642.095 564.769 644.572 564.769 Q648.576 564.769 650.914 562.662 Q653.252 560.556 653.252 556.945 Q653.252 553.334 650.914 551.227 Q648.576 549.121 644.572 549.121 Q642.697 549.121 640.822 549.537 Q638.97 549.954 637.026 550.834 L637.026 533.473 Z" fill="#000000" fill-rule="nonzero" fill-opacity="1" /><polyline clip-path="url(#clip682)" style="stroke:#009af9; stroke-linecap:round; stroke-linejoin:round; stroke-width:4; stroke-opacity:1; fill:none" points="1037.57,980.313 1031.37,983.4 1039.58,979.724 1049.5,975.222 1035.56,981.826 1021.15,988.797 1013.04,992.915 1019.44,990.327 1019.64,990.59 1026.89,987.632 1019.94,991.221 1034,985.094 1022.82,990.685 1027.37,989.041 1001.55,1001.66 1017,995.238 1001.07,1003.25 986.141,1011.26 984.577,1013.42 1006.93,1004.48 1013.72,1001.97 1037.63,990.614 1048.86,984.983 1002.06,1007.32 966.634,1025.43 970.593,1026.01 972.42,1027.29 956.769,1035.66 955.164,1038.25 927.916,1052.9 867.226,1086.13 900.395,1074.55 899.304,1075.85 848.446,1103.07 865.48,1094.89 843.752,1107.99 871.262,1098.13 918.371,1074.25 881.343,1090.51 828.455,1119.49 832.487,1116.64 847.229,1108.66 781.055,1138.33 812.439,1121.94 884.57,1093.82 1026.18,1006.6 1035.7,993.751 1030.76,998.112 1008.84,1012.93 997.235,1003.86 1007.28,1001.36 951.181,1036.69 1042.64,984.058 971.644,1014.56 931.069,1051.94 973.851,1030.88 1046.79,983.879 1037.21,989.594 1094.44,948.458 1034.16,974.949 1044.23,980.813 1016.94,1003 1040.15,979.774 1024.71,977.858 992.623,1005.44 1051.9,978.025 998.485,1014.84 1009.64,1010.22 1124.2,936.5 1155.77,905.321 1276.35,832.613 1303.83,800.542 1280.36,801.707 1351.38,759.141 1291.68,803.018 1426.33,697.941 1456.56,655.808 1460.86,660.335 1650.03,517.989 1616.35,522.912 1519.59,614.477 1546,595.373 1602,554.235 1505.07,617.071 1405.4,692.689 1401.41,698.36 1260.41,791.231 1169.1,864.601 1150.63,892.643 1093.79,932.428 1166.23,897.326 1240.01,850.169 1227.52,849.799 1171.54,888.337 1218.53,847.359 1300.89,790.059 1254.82,828.658 1222.92,855.984 1205.32,846.027 1188.12,870.843 1152.89,898.689 1248.31,841.328 1406.34,711.607 1467.08,662.46 1525.87,620.612 1410.09,692.214 1368.45,727.004 1484.35,638.34 1488.13,623.124 1321.86,750.764 1353.59,736.757 1225.28,836.482 1283,810.123 1341.99,767.84 1315.95,782.92 1267.29,818.955 1278.76,810.169 1281.02,813.855 1239.72,834.253 1280.51,817.657 1316.57,798.069 1330.21,796.275 1246.33,865.971 1082.32,978.231 1236.36,882.899 1070.5,960.599 1111.47,924.09 1050.7,973.258 1133.83,925.05 1097.83,950.142 1070.44,973.95 1144.39,903.436 1138.94,898.051 1176.16,875.91 1198.51,853.906 1167.02,891.224 1088.29,941.442 1205.36,865.689 1202.8,863.97 1203.75,870.661 1221.97,851.741 1185.68,886.699 1162.42,895.56 1272.77,803.315 1271.99,802.107 1296.96,783.606 1324.67,766.665 1337.6,743.897 1308.11,768.909 1389.84,722.975 1375.47,727.42 1403.51,671.271 1540.63,582.12 1591.51,542.818 1536.08,561.459 1454.3,629.156 1451.1,644.698 1511.97,609.048 1627.27,509.062 1571.5,554.677 1508.01,601.601 1571.4,564.177 1547.59,590.233 1436.11,653.216 1349.83,721.054 1275.27,785.946 1183.5,852.921 1141.18,891.45 1189.67,873.585 1239.93,849.869 1160.53,898.773 1175.28,883.691 1228.66,862.073 1244.37,838.917 1308.15,787.488 1307.68,775.806 1385.27,719.005 1387.05,714.788 1234.47,837.332 1107.94,918.7 1111.73,922.013 1011.98,985.915 1013.72,1000.29 1022.21,993.221 1080.16,968.108 1118.42,923.596 1045.95,964.677 1052.79,961.362 1011.89,985.184 1088.44,953.419 1279.67,823.201 1227.23,841.451 1070.47,946.469 980.743,1004.5 958.06,1035.19 976.458,1029.63 911.416,1065.43 919.859,1063.04 961.989,1028.63 1001.23,1011.1 1021.62,1001.41 1135.09,928.065 1178.47,884.445 1174.38,880.908 1181.48,881.801 1233.61,842.773 1260.01,829.461 1465.51,677.271 1307.3,762.743 1368.34,727.675 1443.42,677.404 1414.54,689.853 1368.39,728.065 1381.2,714.389 1333.22,749.696 1356.05,734.434 1345.51,751.068 1386.14,728.939 1471.36,650.82 1494.33,630.549 1622.85,530.15 1527.43,569.387 1450.85,634.414 1437.76,656.802 1481.81,631.184 1454.85,654.198 1433.19,666.618 1400.22,707.9 1484.06,662.252 1471.85,663.771 1481.02,648.647 1443.12,672.235 1356.5,734.314 1331.16,754.997 1321.48,769.001 1412.29,711.983 1394.43,709.02 1249.58,823.343 1286.03,805.174 1300.32,797.87 1283.45,809.832 1209.48,848.797 1268.79,816.622 1205.14,875.238 1126.51,915.628 1136.1,913.659 1107.98,928.206 997.507,999.981 956.839,1031.48 984.291,1023.83 983.028,1021.22 1068.9,976.04 1001.35,1012.27 1094.5,968.584 1175.23,902.338 1290.28,822.991 1309.98,786.613 1403.17,717.789 1324.31,767.798 1330.59,760.863 1381.65,729.908 1379.47,729.569 1407.32,697.127 1471.4,646.506 1351.08,756.194 1218.94,843.774 1223.43,844.203 1218.12,858.753 1149.84,898.242 1292.62,796.925 1298.74,797.789 1209.56,841.181 1280.52,809.064 1113.93,919.135 1130.03,914.336 1066.75,954.763 1227.88,852.357 1346.95,771.382 1245.4,831.711 1119.6,912.409 1074.25,958.767 1106.17,937.535 1056.31,974.848 1111.69,941.073 1075.94,959.444 1253.48,833.218 1284.49,801.656 1258.56,823.302 1211.73,842.638 1154.95,884.345 1119.66,914.061 1116.12,914.163 1205.15,867.999 1222.2,862.54 1223.81,867.539 1219.22,870.228 1222.54,833.925 1188.87,873.525 1162.97,897.054 1187.27,882.901 1176.4,858.077 1203.09,857.778 1212.09,860.639 1201.52,845.83 1105.91,917.669 1130.03,903.236 986.979,997.581 942.356,1031.66 952.343,1037.65 1006.4,1011.04 1063.7,976.89 1028.22,987.765 1048.35,982.629 923.615,1041.61 879.364,1083.48 868.39,1092.25 916.478,1072.27 957.485,1044.77 1012.64,1017.94 992.961,1016.19 997.907,1014.51 1080.74,969.17 1171.52,912.966 1200.57,888.54 1408,745.256 1526.1,640.35 1510.85,628.007 1564.18,569.776 1435.25,649.505 1430.56,670.02 1462.52,656.935 1423.12,665.031 1331.2,730.131 1279.34,781.573 1194.25,842.72 1122.39,903.282 1204.48,869.681 1255.8,834.277 1129.72,907.794 1122.32,918.727 1211.48,867.18 1194.58,869.148 1141.41,912.122 1122.77,922.796 1224.13,853.349 1207.95,861.08 1214.15,859.216 1254,829.828 1276.46,797.824 1272.34,804.046 1153.56,882.62 1185.43,876.098 1185.93,880.476 1036.18,971.327 1171.74,903.417 1182.31,886.426 1156.3,898.816 1059.97,954.803 1085.85,949.341 1104.14,936.846 1048.12,964.892 1044.48,962.018 1089.06,940.351 1099.63,940.83 1159.12,904.307 1191.85,894.457 1188.56,868.139 1119.17,923.997 1033.62,971.299 1082.74,948.131 1139.39,902.533 1245.11,828.205 1385.88,721.951 1301.85,759.857 1214.34,842.987 1328,783.874 1332.37,780.18 1307.84,790.019 1187.91,864.807 1180.22,872.27 1273.52,816.914 1124.52,906.623 1079.4,943.688 1242.37,854.345 1328.52,789.542 1293.01,807.396 1354.48,761.381 1389.56,733.611 1390.67,717.91 1317.97,765.606 1227.42,839.775 1286.53,804.109 1333.47,772.675 1257.72,803.959 1184.02,863.014 1195.17,865.824 1088.73,940.489 1108.17,932.175 1206.8,880.293 1240.3,840.922 1183.31,865.327 1157.69,884.869 1186.78,874.413 1269.52,820.773 1357.42,762.14 1252.98,815.784 1318.88,760.176 1360.25,723.582 1322.89,763.075 1334.2,735.639 1236.45,820.578 1178.14,867.947 1134.23,899.343 1034.52,968.534 1085.42,949.457 1132.57,927.125 1112.41,932.789 1149.12,915.16 1143.55,933.512 1113.1,950.036 1212.11,880.068 1096.89,947.116 1105.8,944.608 1051.11,977.555 1024.05,990.542 1084.94,945.684 1227.86,851.926 1229.01,856.282 1196.76,878.84 1074.37,975.58 1253.12,861.795 1324.13,791.884 1357.12,745.152 1354.52,756.184 1451.43,675.33 1482.82,644.814 1481.82,637.957 1499.3,636.582 1542.98,594.714 1463.82,652.646 1487.51,637.413 1335.38,756.812 1367.02,744.284 1348.39,746.753 1382.31,734.033 1252.17,806.621 1255.18,818.627 1207.02,850.095 1144.33,902.842 1175.59,889.549 1277.32,823.637 1246.34,831.619 1119.35,916.465 1133.82,915.487 1153.14,906.378 1241.75,858.537 1343.31,789.248 1426.17,722.987 1401.82,713.728 1292.63,783.249 1237.4,824.159 1237.15,834.323 1212.4,860.047 1217.33,859.55 1356.56,774.54 1323.23,780.007 1251.95,821.201 1227.99,833.731 1223.01,832.127 1222.86,840.722 1231.23,844.386 1213.27,853.104 1093.01,938.228 1052.75,963.318 1095.58,945.339 1050.42,969.557 1026.07,985.449 1119.92,938.856 1067.25,966.565 1040.39,983.055 1039.22,988.271 1138.13,925.298 1054.09,974.86 946.638,1040.53 906.626,1069.67 787,1138.05 884.264,1091.8 929.107,1073.24 858.801,1103.04 892.123,1084.57 963.763,1043.54 995.183,1016 955.779,1034.22 1016.18,1004.08 956.856,1031.21 1003.16,1007.66 946.358,1051.97 949.312,1039.98 954.351,1043.83 964.876,1037.85 940.122,1057.48 1000.68,1026 1159.67,930.357 1131.38,934.247 1160.93,915.131 1302.52,810.845 1316.88,781.531 1410.73,726.375 1437.55,685.309 1411.22,692.828 1392.92,704.848 1293.8,782.756 1207.61,837.035 1123.17,900.937 1063.81,944.387 1051.42,960.286 1068.18,960.395 1024.64,987.108 998.333,1004.05 1033.56,986.964 1071.42,963.635 1033.03,979.018 894.206,1076.49 908.508,1073.91 852.77,1101.65 825.061,1115.36 952.045,1050.75 986.445,1025.56 1073.18,973.883 1124.79,938.677 1124.88,932.019 1250.26,846.411 1163.14,882.977 1267.61,812.216 1321.45,766.454 1328.74,767.056 1311.73,790.843 1314.87,769.842 1276.72,799.381 1337.26,747.963 1196.37,864.689 1168.42,886.326 1103.05,924.7 1043.33,964.023 1070.67,945.553 1097.5,936.818 1045.76,963.355 935.481,1031.22 839.407,1099.29 863.769,1098.67 828.736,1116.19 816.523,1122.21 788.996,1140.28 802.955,1137.96 812.866,1129.79 780.482,1144.66 743.321,1168.6 745.071,1172.68 800.333,1145.95 826.217,1132.19 847.476,1115.09 907.627,1084.79 1042.45,1002.61 1024.02,1001.6 1006.97,1007.59 964.955,1025.56 978.862,1025.49 917.877,1060.02 1082.95,975.393 1138.8,920.47 1227.13,853.193 1144.48,900.734 1154.62,905.202 1197.27,880.904 1144.5,921.886 1170.29,887.248 1071.94,954.975 1064.27,963.08 1159.13,915.397 1119.34,946.546 1105.39,938.665 1073.33,963.778 1068.26,960.551 985.592,1022.39 889.367,1083.35 996.297,1024.28 1045.76,992.117 1079.73,961.63 941.546,1044.17 926.033,1050.22 948.009,1041.65 992.008,1009.98 1129.27,928.982 1003.69,1009.43 1043.61,981.467 1181.02,888.446 1178.13,878.438 1164.88,891.028 1261.71,833.603 1190.4,882.817 1263.53,821.891 1293.24,774.128 1312.98,774.647 1338.09,758.448 1142.39,886.597 1126.79,904.219 1144.33,906.584 1169.26,888.348 1142.76,916.854 1025.86,989.965 960.835,1033.42 924.682,1059.51 930.129,1058.63 988.29,1024.82 1113.6,948.238 1067.72,951.306 1110.34,929.509 1147.83,905.185 1106.66,936.37 1229.2,858.441 1215.05,848.269 1122.52,906.497 1177.35,876.299 1176.73,877.375 1128.3,912.161 1001.48,997.297 1065.09,980.968 916.312,1064.86 940.985,1049.58 998.908,1016.06 1123.03,931.812 1218.74,860.428 1250.18,831.566 1270.76,812.314 1388.53,710.505 1394.31,695.901 1289.99,765.622 1239.72,810.3 1212.07,840.649 1236.02,831.942 1261.79,810.422 1429.06,683.372 1355.06,724.833 1300.76,762.716 1293.91,781.889 1136.36,883.713 1038.36,960.528 1026.07,978.494 1070.88,961.737 1124.67,933.847 1153.49,908.609 1190.72,884.686 1156.56,903.792 1036.03,974.86 1127.15,924.106 1111.53,932.71 1099.28,934.21 1145.98,913.779 1044.48,986.934 1063.67,976.384 1116.15,934.066 1073.24,957.665 1207.16,877.003 1100.52,937.312 1209.75,847.916 1215.76,851.98 1447.21,704.206 1377.17,723.696 1374.59,722.056 1423.86,680.377 1322.5,752.205 1264.66,793.766 1214.37,836.233 1134.1,893.518 1138.69,909.853 1128.85,917.014 1074.02,950.729 1035.8,973.259 1117.76,932.81 1078.1,956.206 1079.5,957.379 1008.4,990.73 947.732,1040.85 931.129,1053.05 880.922,1081.77 950.959,1048.73 1102.37,947.215 1113.58,927.742 1258.42,832.726 1130.83,913.945 1196.08,885.547 1131.37,912.491 1095.26,936.74 1107.23,922.292 1067.97,943.533 1061.48,952.195 934.939,1032.27 1002.6,1004.19 953.641,1022.7 922.595,1042.98 955.544,1033.04 961.118,1021.32 1017.48,1003.45 1110.96,945.374 1094.94,952.156 1210.59,869.652 1205.94,862.355 1291.96,798.668 1319.03,769.167 1165.01,870.282 1275.83,768.297 1247.02,814.796 1157.29,884.453 1128.51,906.632 1162.8,896.125 1136.45,898.252 1290.3,799.569 1270.02,793.53 1248.5,826.336 1133.48,892.077 986.932,990.077 982.593,1000.72 950.425,1031.96 975.491,1023.67 989.317,1020.97 1037.07,991.731 1014.64,1005.59 1005.32,1009.87 1087.14,964.017 1134.74,926.13 1050.7,962.618 1193.2,875.651 1276.4,817.949 1292.54,794.218 1167.47,882.369 1164.42,897.245 1126.87,925.124 1052.74,967.094 1047.18,980.965 1218.36,882.454 1325.85,793.546 1393.04,720.306 1385.66,712.055 1573.65,580.323 1583.37,565.667 1664.17,482.228 1635.4,496.997 1750.73,404.364 1585.39,531.501 1476.45,611.298 1609.03,537.774 1410.65,684.513 1297.65,765.391 1211.32,830.164 1188.57,861.337 1166.1,881.715 1098.02,928.765 1174.01,887.068 1084.27,937.784 1035.26,972.759 1065.58,962.91 1042.77,979.882 965.349,1024.82 961.677,1033.89 987.282,1026.18 1026.14,994.446 988.536,1015.28 1053.99,979.912 1131.63,927.504 1232.4,861.122 1282.34,813.441 1303.45,793.625 1224.9,839.337 1194.43,862.543 1150.1,898.014 1142.17,905.095 1149.65,898.133 1170.59,887.318 1150.16,883.216 1219.93,854.609 1428.06,702.999 1437.42,685.475 1457.28,667.406 1450.49,663.747 1413.62,690.91 1603.3,541.887 1660.12,483.556 1650.07,464.409 1531.2,562.387 1437.61,642.017 1412.9,669.76 1390.16,695.292 1302.81,768.35 1231.85,816.818 1248.62,824.591 1316.08,788.727 1316.97,781.678 1263.75,806.866 1202.91,844.084 1214.2,845.683 1122.73,908.25 1262.81,833.204 1176.36,881.765 1232.25,840.802 1277.49,817.134 1252.06,822.392 1240.37,832.01 1278.74,812.56 1362.55,756.055 1345,760.811 1280.32,795.76 1243.52,819.809 1296.15,794.991 1273.54,804.501 1380.58,735.124 1366.41,737.625 1254.42,803.026 1241.43,814.984 1350.61,759.78 1370.74,739.444 1367.61,734.726 1329.34,752.076 1339.86,752.173 1288.59,788.272 1326.75,750.976 1352.89,755.167 1323.77,755.416 1273.9,791.745 1280.76,786.717 1307.89,784.617 1240.03,830.46 1075.25,928.468 1144.72,902.211 1250.1,817.744 1192.4,853.598 1182.63,872.374 1163.9,886.225 1051.7,959.37 1093.05,948.085 1231.15,858.808 1202.83,861.614 1226.42,842.769 1291.93,804.437 1380.04,753.552 1362.67,745.217 1381.48,720.651 1473.73,657.69 1392.13,706.99 1198.62,852.73 1188.94,860.907 1154.99,887.109 1228.39,843.191 1179.26,874.353 1068.16,948.42 1105.99,932.754 1093.24,935.354 1101.41,938.951 1090.04,943.379 1122.84,926.999 1154.35,907.373 1228.84,858.19 1283.88,813.078 1311.9,786.114 1303.42,780.446 1332.57,754.733 1379.9,703.668 1397.9,674.557 1319,749.592 1391.85,710.962 1352.95,726.054 1457.76,677.458 1503.37,626.705 1482.38,628.953 1500.84,616.77 1395.9,695.112 1324.17,760.386 1306.22,781.381 1467.37,668.334 1399.53,707.888 1327.95,767.867 1312.18,782.8 1213.24,842.103 1118.92,916.717 1058.92,961.907 1036.56,979.656 1121.38,932.584 1103.67,946.44 1050.8,977.149 983.419,1017.54 859.411,1088.47 893.383,1075.13 942.299,1054.05 1026.15,1008.19 1117.16,943.725 1123.29,934.812 1083.98,950.692 1169.11,891.546 1218.27,858.992 1132.82,924.742 1233.62,859.509 1180.96,885.568 1270.77,820.444 1236.43,843.337 1314.21,789.475 1355.47,759.908 1383.17,745.33 1287.99,814.658 1360.74,756.703 1513.06,616.546 1553.7,568.03 1599.17,542.964 1513.24,589.539 1414.73,670.577 1545.67,605.152 1561.74,582.37 1600,536.555 1557.25,547.189 1449.77,635.555 1454.15,645.957 1415.27,688.845 1413.24,697.374 1312.43,764.683 1289.6,789.159 1240.83,822.536 1315.28,784.558 1382.03,735.545 1282.02,798.534 1177.52,857.044 1187.31,856.698 1121.13,905.257 1193.3,868.194 1205.76,849.924 1095.27,923.178 1155.73,891.833 1166.89,892.067 1058.64,959.873 1161.93,907.847 1248.09,850.261 1363.11,766.295 1304.67,764.926 1273.12,787.388 1193.18,851.591 1176.47,873.444 1140,898.766 1077.99,939.874 1175.76,889.333 1244.34,841.526 1363.58,761.307 1304.47,779.064 1411.41,716.591 1422.22,689.762 1444.98,672.988 1366.67,722.472 1383.94,710.644 1499.9,630.184 1526.59,601.303 1655.04,496.778 1680.67,456.633 1568.98,534.006 1613.6,503.146 1544.82,564.205 1412.27,665.511 1314.19,747.491 1260.12,800.824 1264.7,809.64 1173.69,871.33 1114.34,909.718 1133.29,909.254 1095.69,933.841 1143.02,914.856 1110.78,932.885 1137.69,924.522 1159.53,910.616 1415.09,742.363 1423.26,712.461 1463,668.983 1269.27,788.068 1209.61,837.801 1133.07,895.742 1133.58,906.105 1089.21,933.925 1203.42,875.994 1192.68,880.165 1191.22,867.217 1209.23,858.728 1221.34,826.694 1249.31,826.368 1261.73,819.527 1234.99,834.167 1158.07,880.286 1217.67,852.466 1165.65,880.607 1126.88,908.995 1190.55,875.543 1155.07,901.342 1165.18,896.489 1241.57,854.676 1187.32,877.527 1264.54,832.16 1374.46,752.774 1336.16,765.556 1313.83,771.791 1537.02,624.755 1545.56,598.542 1680.04,493.578 1664.27,488.659 1724.36,419.615 1604.72,490.519 1664.18,470.104 1472.15,611.408 1429.73,657.165 1407.54,682.168 1250.72,787.718 1299.01,780.352 1250.86,814.537 1275.69,805.244 1262.74,813.384 1183.23,871.783 1164.83,884.958 1193.83,872.747 1174.94,885.572 1236.65,839.951 1107.06,914.908 1143.24,915.33 1123.7,922.348 1113.82,925.8 1100.2,931.063 1102.1,942.301 1198.22,881.812 1356.99,772.135 1439.95,691.192 1300.54,765.455 1274.73,790.027 1310.02,779.173 1230.75,830.289 1208.48,836.738 1246.78,822.23 1215.52,834.927 1240.88,827.993 1254.51,831.629 1233.07,838.221 1223.16,839.209 1204.23,847.604 1120.46,916.181 1072.68,946.682 1049.13,968.607 987.151,1006.44 1049.56,982.064 1064.16,962.878 1156.73,914.655 1050.66,974.844 1010.84,994.664 904.162,1049.91 902.52,1065.54 890.701,1080.3 877.134,1089.06 845.773,1106.34 899.227,1081.16 959.413,1049.36 930.892,1058.81 913.521,1069.04 928.446,1054.12 871.634,1079.81 856.718,1091.11 820.014,1110 891.632,1069.7 923.702,1055.94 968.32,1024.27 1021.86,987.178 1007.53,1009.09 1041.43,987.38 1090.22,945.157 1073.7,940.886 1291.09,807.94 1267.86,819.313 1292.76,797.514 1072.56,947.525 1243.63,849.493 1270.61,814.397 1241.91,845.611 1267.91,826.984 1092.56,940.651 1186.85,865.218 1287.3,805.513 1322.56,779.647 1262.55,818.092 1282.36,817.665 1454.02,680.685 1352.63,722.621 1242.92,810.437 1275.94,801.436 1235.87,825.592 1261.44,810.742 1243.02,830.642 1303.69,786.391 1380,731.309 1269.57,821.251 1387.59,734.891 1370.73,744.923 1310.29,778.819 1193.73,878.814 1202.21,866.809 1195.61,873.595 1270.4,833.607 1106.4,961.496 1125.31,941.312 1145.58,924.27 1101.67,943.712 1091.78,952.046 980.355,1015.92 965.801,1027.79 950.492,1047.67 1062.61,990.889 1109.93,953.159 1178.89,892.402 1303.2,798.69 1220.99,842.531 1176.39,871.73 1244.71,830.767 1232.99,826.996 1256.15,804.327 1169.64,862.908 1142.52,889.513 1084.05,928.998 1125.89,921.482 950.408,1042.21 1055.89,986.603 1017.11,997.725 956.614,1035.68 952.935,1029.61 978.758,1021.62 1051.11,978.145 1092.59,959.438 1079.06,950.579 1144.36,907.927 1020.76,982.741 1058.89,961.466 1192.25,868.729 1249.08,845.824 1069.69,957.787 1072.92,941.81 995.909,992.797 1099.77,930.543 1047.23,969.021 999.433,1004.2 1063.77,970.049 1032,985.844 1141.71,912.899 1196.9,868.032 1186.53,869.409 1113.91,893.991 1137,889.424 1182.95,872.911 1281.55,821.238 1265.78,838.399 1102.29,975.725 1076.46,960.797 1175.02,898.703 1228.06,852.026 1295.88,796.002 1287.63,799.728 1312.29,764.999 1365.52,731.174 1305.53,767.013 1324.32,762.618 1442.26,683.256 1343.17,761.513 1421.29,689.288 1427.44,673.78 1342.43,755.794 1299.59,783.873 1370.34,729.049 1268.52,814.747 1369.67,751.518 1327.92,767.41 1316.73,781.07 1334.6,763.433 1326.78,777.267 1182.15,895.923 1145.57,907.693 1071.98,959.551 1005.19,999.841 924.104,1046.86 989.791,1018.06 1118.73,939.957 1105.45,942.917 1192.51,889.423 1343.09,790.742 1378.79,739.037 1353.02,738.981 1366.21,741.002 1299.65,792.011 1443.39,678.219 1477.8,644.348 1487.84,630.013 1296.62,768.573 1232.69,825.677 1249.35,829.786 1219.23,850.425 1155.63,892.49 1031.31,974.023 1081.64,958.88 1205.47,882.952 1275.42,820.741 1337.76,770.647 1265.86,810.183 1324.31,778.468 1395.87,719.986 1344.03,738.165 1363.09,727.972 1406.37,687.007 1486.31,638.821 1454.5,656.006 1496.1,637.464 1326.07,766.173 1254.01,821.764 1361.62,763.964 1285.05,796.909 1252.23,824.742 1209.77,853.584 1078.06,943.041 1076.23,946.992 1070.67,953.877 1199.39,873.555 1120.79,916.513 1281.7,813.604 1306.24,793.35 1356.77,742.39 1222.75,821.638 1268.87,816.646 1234.07,839.104 1161.06,885.402 1101.64,927.881 1150.26,902.669 1215.25,863.769 1256.31,829.833 1340.58,771.386 1310.52,785.872 1290.05,803.852 1098.45,928.244 1099.44,933.479 1025.12,981.883 1045.23,975.746 1123.05,936.989 1229.55,867.005 1264.65,837.069 1322.26,789.684 1360.6,755.681 1268.69,793.047 1390.78,722.883 1462.59,655.795 1455.57,649.701 1420.1,671.365 1573.44,569.922 1541.23,577.007 1630.89,514.358 1615.66,518.806 1483.66,616.726 1396.83,692.111 1377.82,722.113 1460.32,670.754 1463.82,661.683 1491.49,640.105 1478.63,639.056 1510.36,616.581 1326.55,752.991 1163.52,865.713 1229.26,846.827 1248.31,833.552 1119.31,911.593 1056.39,953.876 1088.03,946.871 1085.12,951.681 1076.86,954.969 1186.08,897.339 1202.65,869.966 1188.19,882.704 1182.69,884.556 1215.82,856.2 1217.74,839.923 1134.89,900.709 1111.1,925.123 1239.15,851.449 1206.98,877.835 1205.42,847.055 1123.63,909.739 1191.43,875.681 1224.16,856.547 1251.49,833.76 1135.73,908.854 1052.84,968.481 987.63,1011.73 1023.25,994.017 1008.22,1005.67 920.215,1059.94 837.036,1107.85 840.346,1105.93 791.402,1134.12 811.743,1129.71 787.11,1146.05 754.946,1161.75 835.321,1122.3 838.213,1120.69 871.808,1107.48 897.749,1088.7 889.725,1093.25 991.121,1025.79 1031.83,995.822 998.69,1007.79 910.823,1059.94 933.911,1048.17 885.238,1079.42 878.497,1080.92 1011.24,1002.13 1137.33,935.159 988.562,1013.87 1000.33,1003.81 1036,984.915 1071.8,975.339 1149.12,913.756 1207.72,869.609 1195.85,883.231 1142.64,920.064 1028.23,996.212 1120.03,942.421 1217.59,863.925 1270.65,823.941 1242.27,821.851 1224.11,838.63 1204.45,843.462 1159.65,899.367 1130.98,912.609 1156.55,902.356 1222.43,860.978 1162.2,902.271 1233.7,851.265 1212.57,860.747 1284.15,818.209 1329.85,776.813 1359.91,748.031 1362.17,740.813 1246.74,810.28 1130.11,898.367 1089.4,929.381 1045.94,961.549 944.224,1029.37 1012,1006.69 1005.42,1007.4 979.65,1022.77 1000.12,1017.9 1052.15,989.104 1116.57,948.333 1312.16,818.661 1362.35,762.954 1270.57,817.595 1215.84,849.239 1293.67,803.208 1239.14,839.231 1320.54,786.555 1251.67,824.904 1262.15,825.046 1253.16,840.706 1104.81,941.764 1072.94,972.553 1130.3,931.06 1020.84,998.467 1116.79,934.659 1124.26,934.634 1239.03,848.456 1219.2,845.225 1285.94,801.013 1229.2,824.301 1155.59,879.529 1119.93,916.724 1172.66,892.96 1264.89,833.099 1411.07,730.03 1362.07,743.234 1258.08,805.263 1368.65,742.133 1298.63,779.776 1121,907.619 1189.13,876.161 1181.03,873.351 1280.06,809.851 1289.35,799.438 1382.79,733.608 1370.33,733.839 1317.89,766.424 1438.77,676.345 1430.58,674.373 1354.69,720.9 1355.45,737.215 1352.08,747.547 1461.24,662.971 1593.88,538.812 1560.81,559.429 1574.5,532.564 1453.08,626.127 1380.61,698.939 1337.48,738.16 1405.16,706.622 1502.25,641.047 1301.54,776.049 1327.57,774.731 1381.85,746.124 1315.94,773.968 1206.91,847.582 1208.18,859.231 1288.14,800.688 1244.23,828.015 1221.1,858.646 1174.37,878.679 1139.53,898.239 1173.33,881.693 974.175,1015.37 971.747,1026.33 852.352,1088.87 860.153,1089.99 977.629,1031.8 1053.82,982.47 1104.92,950.011 1134.4,920.505 1196.8,889.868 1239.52,846.337 1150.51,895.041 1176.72,879.453 1161.17,878.155 1173.1,887.747 1138.83,902.526 1150.3,897.795 1203.6,862.515 1169.55,883.853 1292.83,805.065 1272.77,803.353 1201.05,859.255 1236.45,830.192 1162.97,911.333 1122.17,929.818 1277.82,833.965 1197.98,864.135 1097.41,931.336 1099.9,946.043 987.301,1008.31 1050.47,985.127 1056.29,972.091 1110.91,943.389 1129.81,925.479 1069.88,956.022 981.075,1001.39 1009.14,994.144 1058.11,972.89 966.87,1030.72 883.637,1088.88 840.106,1108.53 852.034,1092.94 900.869,1074.49 894.099,1076.3 858.222,1096.91 898.198,1076.58 949.876,1046.41 1029.11,998.894 964.432,1034.17 1059.22,964.951 1083.46,951.444 1205.57,863.37 1178.76,884.98 1157.41,898.677 1115.48,923.567 1115.3,945.207 1070.35,957.843 1022.85,978.143 1125.53,916.359 1167.9,899.956 1180.82,889.911 1114.43,947.883 1053.94,988.415 1049.08,992.445 1120.45,926.602 1131.73,912.701 1179.29,879.08 1286.7,798.002 1294.99,781.034 1461.3,656.531 1566.13,578.44 1394.7,697.354 1356.74,717.602 1343.46,752.776 1226.22,831.591 1152.73,886.506 1224.48,845.845 1220.57,846.605 1226.32,852.891 1285.8,806.023 1331.31,770.838 1276.38,803.104 1359.29,761.437 1254.05,830.422 1341.48,756.443 1366.12,726.983 1485.36,617.454 1426.43,656.971 1329.03,743.234 1407.25,705.951 1447.98,666.108 1383.6,714.623 1435.37,686.176 1446.98,697.672 1421.3,691.027 1477.42,661.397 1398.53,724.787 1268.77,800.331 1243.92,821.419 1179.44,877.982 1187.23,880.208 1198.2,866.917 1138.95,906.81 1135.65,913.561 1100.62,934.067 1120.35,940.971 1145.16,922.543 1035.95,992.298 1045.11,982.984 1087.2,955.926 1176.24,888.417 1123.68,910.833 989.159,1006.87 1068.66,971.464 1085.61,956.141 1044.74,979.423 1083.46,956.175 1078.04,949.268 1174.62,884.121 1170.78,896.738 1191.81,864.01 1196.34,865.985 1236.31,845.259 1330.23,784.353 1263.69,821.158 1246.85,813.748 1175.46,870.511 1242.25,851.538 1118.6,916.828 1098.67,936.2 1235.93,862.446 1240.19,860.478 1267.59,829.51 1306.72,789.135 1385.57,730.167 1296.44,792.614 1249.36,824.698 1235.37,843.356 1412.96,728.349 1330.1,751.003 1188.86,866.163 1129.83,910.374 1238.45,854.147 1305.57,809.484 1271.19,810.222 1414.3,709.989 1343.2,751.575 1321.81,756.213 1340.36,753.551 1267.52,799.652 1286.53,801.709 1221.43,839.792 1361.05,770.959 1408.92,734.164 1328.85,780.487 1418.96,690.562 1457.25,662.796 1359.68,721.708 1271.6,794.153 1249.23,807.967 1261.71,815.106 1304.48,785.708 1378.28,742.462 1301.48,786.155 1338.81,748.489 1195.82,853.377 1142.67,900.781 1099,930.779 1132.01,917.205 1093.3,941.304 1176.91,886.752 1195.38,873.267 1242.69,851.247 1209.81,870.232 1154.7,899.565 1161.33,905.473 1161.36,893.31 1149.47,892.522 1168.48,884.859 1068.37,971.852 1018.73,994.216 922.209,1039.48 868.728,1080.96 860.364,1092.23 915.44,1065.34 874.381,1087.14 816.345,1125.03 745.443,1167.79 769.482,1157.23 788.88,1146.26 799.157,1138.67 823.828,1128.48 786.617,1144.35 718.853,1177.78 759.851,1158.78 794.39,1147.78 880.602,1098.42 867.652,1095.31 961.544,1045.39 947.628,1052.64 900.814,1070.35 862.944,1094.79 858.231,1100.79 876.323,1090.13 889.472,1090.74 874.824,1094.83 871.946,1088.92 961.454,1041.72 979.499,1025.99 1008.22,999.897 892.096,1070.63 963.038,1032.54 992.901,1011.09 1019.41,1001.26 1060.01,979.443 1063.84,975.086 1061.06,979.813 1223.75,887.272 1272.93,833.798 1283.68,816.76 1122.96,907.955 1125.07,913.064 1156.47,896.885 1074.44,951.35 1093.31,951.074 1257.36,845.972 1145.45,901.417 1130.55,912.442 1246.73,844.467 1314.77,787.778 1344.46,754.657 1222.95,840.088 1198.02,861.62 1041.07,969.133 1046.09,969.33 1115.01,937.039 1170.39,897.522 1199.5,870.068 1224.91,846.925 1263.23,832.076 1378.12,730.758 1375.53,724.188 1340.43,743.309 1407.91,694.358 1538.31,592.448 1415.8,663.121 1469.26,628.148 1500.66,613.213 1562.08,563.055 1588.16,526.493 1627,470.676 1507.59,571.217 1410.2,656.371 1259.44,767.072 1239.49,806.053 1228.8,822.552 1310.87,783.685 1310.58,786.835 1320.06,778.106 1318.12,778.207 1113.73,902.68 1053.82,949.364 1057.31,960.792 955.735,1027.4 946.964,1039.62 982.839,1025.53 1029.85,996.088 1026.71,994.992 918.214,1053.6 969.437,1027.03 986.668,1024.92 1061.3,972.951 1033.58,981.72 1067.05,963.87 1072.42,951.451 1072.2,955.635 1091.82,944.281 980.625,1022.89 960.957,1043.18 909.49,1073.2 961.596,1052.85 1001.15,1012.23 1027.37,990.888 1054.36,968.556 1160.32,906.619 1262.94,834.132 1276.29,805.399 1345.45,766.875 1267.6,811.142 1294.84,789.228 1259.19,827.762 1165.24,888.132 1133.14,915.579 1256.21,843.679 1259.12,800.984 1174.34,860.023 1187,854.655 1058.87,947.253 1064.96,953.144 1029.98,971.691 1048.83,974.3 1192.91,896.775 1197.34,881.391 1173.34,895.272 1166.5,891.598 1082.57,938.266 1112.76,932.966 1082.57,951.543 1075.39,957.499 1114.87,924.649 1144.79,904.427 1106.37,931.513 1053.93,965.828 1017.07,1000.57 1123.05,930.978 1220.59,868.988 1274.14,825.193 1479.91,666.743 1497.59,625.329 1664.97,498.942 1658.28,465.563 1789.67,355.68 1604.11,488.84 1585.58,531.038 1549.44,557.239 1499.23,593.839 1463.26,624.669 1374.85,704.702 1378.78,719.398 1334.39,746.812 1232.58,818.124 1291.75,796.32 1186.39,863.946 1114.39,914.277 1053.53,961.573 1013.34,993.987 1099.84,951.724 1037.4,984.664 1082.21,957.428 1123.71,930.248 1097.77,947.281 1177.63,883.877 1106.02,919.17 1037.35,965.621 1047.32,968.485 1077.73,955.731 1118.03,931.149 1166.81,896.563 1169.21,898.947 1229.45,855.315 1179.4,883.972 1066.53,955.735 1140.86,912.766 1055.55,967.323 922.303,1049.17 966.35,1031.11 1084.78,964.78 1140.41,919.405 1185.19,891.452 1118.62,912.598 1094.46,934.684 1182.33,886.119 1153.65,898.524 1061.55,959.785 1023.28,989.767 981.931,1021.1 1035.35,988.376 1176.43,889.337 1240.25,849.067 1186.65,883.312 1158.86,891.802 1143.21,908.465 963.561,1022.75 897.562,1063.43 923.763,1055.34 1109.15,951.888 1145.47,920.001 1208.52,880.553 1185.97,862.507 1191.12,862.865 1196.91,867.688 1146.55,906.838 1060,965.109 1033.29,995.456 1100.52,943.129 1170.37,893.339 1013.3,994.619 1217.1,874.083 1317.56,790.248 1412.84,709.118 1221.75,844.617 1156.79,880.376 1154.14,895.876 1154.51,894.543 1259.67,823.722 1171.53,868.726 1211.72,848.976 1285.51,807.551 1419.36,707.092 1455.97,674.583 1438.36,670.222 1633.99,535.964 1606.93,526.999 1578.38,539.712 1603.1,530.711 1542.74,572.695 1498.76,602.67 1514.65,601.31 1611.12,546.105 1665.99,490.526 1587.59,537.888 1649.88,498.455 1760.06,405.629 1704.54,420.401 1464.2,596.205 1518.07,592.426 1399.79,677.938 1430.07,674.517 1399.12,698.149 1438.03,680.722 1504.14,646.332 1438.32,671.105 1539.97,605.446 1413.79,674.104 1309.2,756.935 1280.42,789.001 1333.81,768.99 1304.93,780.864 1261.93,809.09 1217.64,837.063 1153.59,892.149 1014.63,981.893 998.757,999.682 1090.85,959.051 1113.07,933.863 1071.41,962.528 1066.55,967.655 1155.23,904.038 1122.62,918.327 968.709,1015.8 1043.03,989.88 984.725,1016.95 961.867,1037.59 1010.66,1012.44 1019.81,1012.66 1020.68,1009.83 969.62,1021.68 1011.09,998.221 1036.32,979.743 1117.9,945.006 1225.08,868.133 1258.81,841.706 1342.73,778.816 1295.68,792.954 1254.05,820.98 1142.72,892.27 1129.88,911.365 1077.03,949.855 1042.78,964.986 1060.81,965.481 1006.45,993.822 1033.2,987.898 1037.96,969.429 993.209,1004.66 1034.62,978.355 1155.42,903.413 1192.94,894.787 1226.05,869.862 1252.34,844.494 1184.68,876.467 1251.27,842.549 1324.27,766.523 1293.46,784.861 1202.14,850.439 1210.39,851.271 1239.25,837.193 1205.25,852.614 1244.15,827.187 1324.75,771.737 1302.51,787.11 1180.06,866.148 1046.17,951.812 1059.43,957.348 1055.76,968.84 1077.34,962.649 1198.63,886.672 1139.91,903.683 1170.89,888.968 1136.25,910.131 1064.7,945.535 1065.76,954.745 1038.54,979.315 1049.72,971.452 1178.41,904.004 1269.54,827.403 1178.11,877.75 1117.68,910.339 1169.58,866.476 1221.26,844.437 1250.18,824.994 1263.48,818.409 1251.34,816.958 1136.45,903.031 1135.61,907.445 1158.87,903.426 1071.75,950.688 1106.64,935.839 988.487,1017.99 1045.12,996.109 1065.08,967.158 1125.21,931.664 1122.22,925.883 1055.06,966.427 1086.04,948.108 1112.96,935.642 1067.52,958.485 1019.02,988.828 1077.52,945.142 981.265,1021.12 896.498,1064.34 900.963,1068.48 925.712,1061.8 956.822,1042.41 1013.02,1005.1 972.243,1028.1 1071.9,966.352 1102.77,933.517 1175.64,891.712 1182.33,893.871 1306.3,802.808 1308.87,785.322 1451.18,681.532 1499.35,641.984 1383.38,714.399 1434.13,650.831 1479.27,628.613 1365.06,721.787 1264.45,797.177 1301.79,794.95 1263.43,818.127 1126.31,904.374 1236.29,848.295 1202.56,868.247 1223.04,861.476 1243.42,840.501 1203.72,864.709 1171.05,878.162 1257.19,834.249 1225.86,831.636 1334.6,770.234 1335.88,760 1282.93,791.572 1204.06,850.092 1105.7,913.786 1114.89,916.709 1118.34,912.483 1179.46,880.49 1072.88,950.305 1046.57,972.474 1012.37,995.492 942.135,1041.9 1016.33,1008.55 1018.16,1011.54 1128.62,936.473 1219.17,871.994 1149.07,899.168 1206.33,864.869 1321.45,785.15 1289.8,792.518 1309.27,780.617 1283.51,784.12 1328.37,765.511 1244.9,815.155 1353.14,749.34 1445.99,661.629 1430.15,668.893 1459.64,648.657 1470.88,647.7 1478.7,657.39 1409.82,691.984 1389.16,716.219 1427.68,706.764 1380.94,719.217 1199.56,846.969 1122.08,906.346 1092.19,932.848 1231.09,855.982 1347.72,773.275 1348.61,765.403 1380.28,727.544 1270.99,797.018 1359.1,746.532 1471.2,667.358 1482.77,646.726 1451.1,657.786 1374.98,721.015 1353.2,732.79 1225.75,821.769 1289.36,795.326 1255.7,817.744 1248.79,823.426 1261.4,832.822 1332.3,769.483 1284.73,802.497 1273.99,806.248 1190.83,869.942 1146.95,901.539 1209.42,867.13 1236.37,842.156 1293.75,803.338 1344.68,759.379 1482.68,672.006 1455.12,675.532 1492.19,633.838 1414.96,673.632 1350,726.154 1466.85,658.518 1291.51,774.696 1272.07,791.83 1206.48,842.913 1092.02,920.835 1151.84,902.72 1168.92,895.119 1200.04,867.596 1166.81,888.155 1146.84,907.008 1140.46,899.265 1101.73,933.11 1041.4,974.319 1051.71,973.079 1236.8,863.984 1238.75,840.037 1295.49,795.529 1216.7,848.555 1226.27,854.867 1177.04,868.608 1346.97,759.443 1150.96,889.141 1082.84,935.131 954.319,1023.11 895.039,1069.37 1004.92,1018.83 980.373,1034.7 991.764,1018.59 1055.11,986.551 1084.54,966.712 1175.92,903.746 1097.5,941.648 1124.34,921.937 1033.43,975.684 1042.44,973.337 1013.66,989.377 956.929,1032.64 883.052,1067.33 830.843,1108.53 897.975,1083.71 886.664,1091.35 847.664,1107.09 899.335,1083.98 963.312,1046.76 1033.01,1007.82 969.913,1040.33 999.293,1021.19 1057.03,969.403 1134.01,920.29 1074.48,955.417 1017.97,987.743 961.771,1021.63 886.097,1070.94 819.222,1116.4 826.188,1121.21 796.755,1141.68 963.408,1053.81 932.679,1054.31 978.737,1030.74 960.389,1032.79 979.062,1027.23 1045.3,991.245 1073.56,969.623 979.372,1014.76 1187.38,907.627 1277.2,832.695 1331.56,770.319 1277.36,799.454 1131.95,902.842 1140.61,902.129 1202.04,867.033 1111.74,921.405 1153.33,911.622 1211.09,868.693 1246.53,837.956 1253.7,835.82 1257.89,835.391 1225.83,837.808 1315.15,784.899 1393.43,736.598 1373.48,730.772 1369.29,724.2 1402.41,692.487 1320.49,746.283 1295.88,756.034 1294.35,774.632 1310.75,775.511 1370.68,728.434 1298.37,781.291 1214.1,846.683 1142.3,905.151 1103.24,932.47 1122.38,931.369 1067.1,957.752 1017.78,982.599 999.743,997.209 981.251,1018.1 1017.06,1003.06 1186.77,892.33 1146.81,904.106 1284.68,816.61 1315.37,797.634 1392.54,737.625 1408.9,704.331 1522.84,616.342 1513.5,612.945 1425.93,678.62 1438.05,667.671 1285.6,787.762 1280.74,797.975 1273.5,799.568 1248.93,814.595 1197.78,859.882 1203.73,857.982 1196.56,865.939 1219.84,852.825 1280.35,824.018 1223.5,863.256 1247.3,855.612 1361.66,750.547 1380.09,732.435 1432.17,691.044 1358.39,727.699 1469.19,655.047 1457.46,662.254 1486.27,639.989 1391.14,697.801 1366.37,734.26 1397.99,713.128 1405.78,719.329 1476.94,661.147 1500.34,633.629 1500.45,612.143 1495.55,624.014 1416.07,682.965 1464.13,664.705 1443.65,692.56 1405.37,697.551 1245,818.39 1295.83,796.576 1281.96,802.333 1234.74,831.231 1182.01,867.549 1261.11,830.417 1344.37,766.442 1434.72,696.052 1354.8,739.465 1435.23,671.546 1316.71,734.394 1378.48,724.75 1315.89,760 1306.69,766.379 1355.84,739.962 1161.79,875.266 1132.19,898.086 1025.79,975.029 1050.82,976.571 1047.48,973.653 1116.54,945.166 1144.1,925.753 1170.44,897.054 1204.36,860.203 1241.39,839.943 1256.58,825.717 1168.37,884.528 1190.51,867.134 1202.46,852.335 1186.37,870.961 1314.11,806.119 1453.8,701.964 1413.48,700.34 1392.58,698.219 1359.53,719.425 1205.67,836.853 1154.54,882.933 1222.62,853.389 1192.76,867.702 1199.33,860.078 1143.15,895.625 1149.07,896.87 1085.31,927.899 1172.71,883.585 996.814,995.379 1040.63,974.841 1037.56,986.349 1015.29,1003.46 1006.81,1003.64 987.402,1012.84 1057.22,974.042 1052.83,970.248 1122.96,928.598 1151.62,892.047 1164.29,878.493 1117.66,924.158 1092.64,931.281 1160.05,897.948 1107.56,937.55 1104.72,935.852 1177.73,900.243 1210.47,867.996 1084.88,949.064 1052.93,954.638 1012.15,986.627 1051.61,966.795 1034.21,976.564 1002.82,1008.04 986.535,1019.83 1031.8,985.362 967.292,1020.99 1061.61,958.26 1091.26,950.703 1033.3,991.691 961.016,1038.72 964.88,1044.39 943.12,1059.27 1003.1,1021.46 952.743,1042.09 941.007,1048.1 917.346,1065.18 909.467,1076.41 888.316,1089.9 902.324,1078.39 891.057,1091.32 880.456,1090.75 1009.54,1006.4 1023.25,991.634 1148.06,911.619 1225.32,863.03 1147.99,909.436 1189.9,859.624 1264.3,821.224 1347.63,754.124 1229.88,820.975 1144.41,896.025 1151.07,895.68 1154.91,899.04 1192.8,878.969 1140.05,907.288 1124.68,915.906 1176.74,889.625 1183.84,872.36 1228.49,839.408 1139.72,891.887 1272.98,820.378 1378.5,730.57 1295.99,772.424 1316.11,770.184 1373.36,737.116 1397.91,713.985 1321.31,761.597 1315.16,762.873 1237.45,818.416 1245.51,818.087 1279.93,800.701 1211.64,845.777 1184.85,865.794 1185.76,867.337 1210.7,862.979 1273.72,838.2 1226.2,861.883 1129.09,906.405 1084.27,935.451 1115.15,923.428 1049.97,976.676 1016.96,985.913 996.151,1006.78 959.215,1022.38 893.374,1065.3 993.298,1016.2 1028.63,991.842 973.255,1018.98 920.689,1056.37 894.868,1076.59 910.695,1070.58 928.627,1065.04 932.567,1063.59 995.432,1019.73 1032.39,998.863 1109.54,953.408 1020.29,1007.53 1132.03,934.13 1194.75,896.098 1158.98,901.873 1050.59,966.87 1051.81,977.69 1064.8,971.097 1099.06,940.875 1118.5,922.343 1233.44,842.218 1248.27,831.676 1202.21,865.78 1363.14,750.59 1347.56,749.272 1274.83,801.272 1336.39,775.1 1457.02,684.813 1461.75,674.761 1437.05,675.127 1411.19,696.391 1343.32,736.523 1363.01,724.711 1367.69,713.486 1259.39,781.486 1200.18,841.162 1166.73,876.804 1212.45,855.221 1209.61,865.014 1253.11,839.196 1473.56,696.544 1562.85,604.005 1514.38,612.836 1438.09,656.951 1388.84,693.548 1402.19,691.687 1275.76,775.853 1382.36,718.926 1333.31,754.863 1275.47,794.376 1175.51,868.656 1105.68,915.554 1121.3,913.64 1130.81,912.769 1125.69,929.175 1083.97,951.751 1142.81,920.466 1147.71,915.231 1119.8,913.305 1155.15,887.759 1236.98,849.984 1197.9,856.012 1253.33,828.545 1239.34,833.913 1283.03,808.651 1279.49,800.17 1163.94,883.315 1141.13,906.027 1126.47,912.63 1026.38,988.273 1131.43,931.652 1078.28,954.47 1116,933.451 1119.05,929.077 1045.18,980.729 1087.26,966.789 1050.77,986.057 1217.15,872.272 1237.05,844.879 1248.83,830.74 1267.92,803.072 1271.4,805.875 1227.09,841.249 1281.91,803.173 1288.14,794.16 1260.01,845.644 1234.61,853.651 1278.85,805.72 1283.05,802.947 1181.55,881.159 1195.51,874.648 1285.47,820.577 1300.01,803.85 1412.82,730.378 1336.3,751.95 1307.22,774.923 1201.48,845.793 1188.49,858.209 1143.79,887.508 1089.19,938.198 1120.61,925.522 1175.41,896.536 1165.68,897.355 1099.12,931.896 1103.05,935.946 1167.64,889.015 1302.15,808.015 1268.5,815.48 1272.58,800.365 1323.48,773.054 1446.73,680.817 1500.88,630.514 1390.65,706.915 1449.1,669.599 1484.03,638.555 1367.85,704.572 1269.03,789.462 1385.32,727.922 1418.07,701.169 1258.63,801.543 1239.09,820.268 1365.24,744.747 1349.54,755.713 1184.27,865.989 1138.72,903.542 1230.37,851.378 1242.09,825.49 1170.86,873.82 1195.86,865.338 1195.36,863.528 1104.68,916.366 1059.61,956.038 1040.23,970.011 1041.38,975.77 1013.7,994.998 1050.48,977.622 1006.57,1001.58 992.172,1007.54 883.231,1080.02 985.75,1031.4 1051.8,979.729 992.729,1006.44 1045.7,983.489 1081.43,960.41 1106.23,940.246 974.299,1016.25 1048.22,983.386 947.469,1040.69 932.136,1060.25 1014.04,1016.74 1055.27,988.111 1094.77,952.536 1122.62,932.808 1244.9,856.926 1376.94,757.066 1315.03,784.169 1298.23,799.319 1306.21,776.472 1294.23,786.463 1299.81,793.027 1376.34,743.031 1329.05,757.495 1276.12,792.288 1283.31,806.686 1456.81,690.726 1396.86,697.83 1526.05,617.874 1508.67,602.657 1573.61,561.721 1372.33,713.54 1304.75,769.709 1270.44,799.04 1253.94,816.902 1141.31,902.887 1191.98,878.861 1115.79,918.482 1028.26,981.56 1075.77,961.247 1082.78,954.61 1051.41,969.898 1155.53,912.373 1162.59,897.528 1165.61,895.75 1108.58,931.323 1030.17,975.666 1065.48,966.802 1110.84,943.96 1172.63,899.949 1175.89,882.005 1095.92,933.458 1050.9,969.627 1047.75,977.179 982.584,1015.83 955.729,1028.67 1003.4,1014.5 1086.16,968.956 1144.48,928.229 1212.02,876.021 1393.95,740.152 1409.15,699.013 1546.07,597.937 1514.31,600.508 1594.85,532.508 1458.26,640.464 1413.34,669.942 1371.38,705.626 1427.11,689.14 1398.27,699.581 1501.8,632.026 1454.62,636.631 1405.63,675.897 1241.69,796.098 1209.41,833.324 1165.18,873.452 1196.35,863.533 1153.05,886.569 1135.43,906.441 1081.69,942.804 1007.08,988.31 979.098,1015.62 1005.19,1005.35 1029.93,996.945 1123.56,938.627 1127.63,930.224 1209.6,869.492 1227.7,861.653 1224.91,867.775 1217.53,865.634 1239.1,843.752 1104.43,925.391 1232.62,853.633 1261.13,827.784 1175.88,884.348 1181.14,899.756 1194.45,876.019 1280.79,826.895 1420.11,710.197 1386.15,714.963 1368.75,714.017 1438.67,667.653 1496.51,634.473 1389.17,712.558 1433.92,688.31 1426,693.099 1421.36,690.892 1485.27,640.816 1306.61,776.903 1224.76,838.482 1163.37,885.462 1130.8,905.717 1229.15,850.484 1260.45,823.89 1221.53,858.38 1309.14,792.194 1140.93,902.181 1157.8,895.379 1124.65,912.978 1088.83,947.76 1102.51,941.248 1134.36,917.382 1200.72,876.973 1347.69,773.782 1280.62,806.21 1343.42,759.974 1379.7,705.461 1477.51,655.611 1382.19,730.495 1275.1,790.703 1119.09,902.576 1215.34,859.687 1172.91,887.162 1129.06,911.754 1077.14,946.04 1196.29,882.239 1335.51,779.26 1406.09,721.744 1398.36,712.704 1331.54,745.334 1354.16,722.966 1510.14,630.648 1488.45,656.262 1345.87,742.54 1306.15,777.754 1242.36,820.441 1239.74,831.053 1172.84,880.647 1143.36,910.829 1121.04,927.585 1090.27,943.203 1066.72,948.497 973.732,1010.31 1049.97,983.117 1099.21,946.93 1108.51,934.172 1251.45,848.545 1250.15,839.136 1258.06,841.954 1220.84,845.937 1283.43,799.144 1225,839.386 1170.13,885.564 1174.13,886.889 1088.08,943.198 1141.57,914.319 1206.94,868.593 1292.56,801.419 1233.4,829.914 1193.8,853.226 1211.56,857.461 1262.49,825.429 1245.65,830.046 1333.47,764.4 1341.93,757.421 1314.11,752.291 1421.58,690.589 1367.46,732.559 1433.25,680.802 1439.91,676.711 1321.18,740.962 1174.13,851.274 1161.39,875.839 1177.27,880.702 1180.62,880.417 1190.6,876.272 1263.22,831.147 1129.61,924.463 1167.71,902.265 1079.44,949.537 1042.43,987.964 1056.44,975.422 1044.93,978.558 955.684,1035.07 953.462,1042.21 943.959,1049.84 939.775,1052.63 882.537,1088.94 921.638,1060.23 951.3,1036.35 1095.04,951.15 1171.34,901.789 1207.62,851.795 1230.82,850.338 1168.79,891.09 1181.13,865.936 1142.88,898.162 1087.05,941.501 1106.2,940.059 1123.6,929.977 1067.37,954.277 1276.35,834.7 1267.67,808.005 1320.25,778.042 1182.49,859.228 1184.49,871.931 1167.37,887.847 1029.09,972.66 1019.17,982.911 941.256,1033.75 946.6,1040.54 918.003,1055.44 916.739,1066.82 889.496,1079.9 905.823,1073.22 1046.33,999.313 1094.75,961.041 1079.14,961.975 1121.66,928.653 1188.82,888.415 1183.29,880.487 1234.19,848.396 1341.3,772.581 1401.53,723.994 1383.36,708.22 1407.25,689.495 1534.14,603.035 1553.1,570.822 1400.06,703.204 1299.54,777.443 1205.14,849.018 1244.83,833.191 1128.24,915.82 1142.9,907.723 1118.57,925.697 1162.61,896.221 1238.34,851.438 1169.14,882.413 1259.58,823.041 1409.56,700.901 1354.78,745.434 1335.26,767.259 1334.78,770.134 1190.63,859.284 1142.45,903.612 1156.5,897.557 1098.03,936.901 1082.55,950.74 1198.88,874.619 1212.22,855.753 1093.13,941.75 1015.21,995.272 1042.42,981.98 1064.12,965.546 885.359,1066.36 913.274,1056.1 919.493,1059.59 1085.77,963.102 1116.69,941.775 1164.07,899.362 1159.52,892.7 1178.59,891.675 1296.03,803.349 1227.36,838.478 1139.21,892.67 1012.71,983.014 1013.98,989.656 1094.04,946.632 1190.86,882.234 1139.29,906.842 1143.16,908.055 1169.99,900.418 1230.82,863.364 1229.05,849.604 1298.84,800.959 1267.84,809.852 1420.15,705.745 1360.27,748.684 1127.72,896.941 1078.99,928.381 1034.51,970.148 1051.8,964.615 1084.25,944.58 1057.55,967.395 1080.38,950.592 1047.16,978.523 1041.15,986.541 1167.92,891.193 1194.37,879.524 1242.61,839.093 1202.6,855.057 1121.09,897.15 1141.64,896.372 1058.14,952.439 1089.32,942.489 1090.18,945.059 1086.93,939.334 1200.05,876.233 1228.19,851.892 1221.7,856.417 1283.53,815.217 1185.63,875.053 1243.91,828.612 1247.73,814.737 1137.77,893.658 "/>
<path clip-path="url(#clip680)" d="M228.998 198.898 L588.673 198.898 L588.673 95.2176 L228.998 95.2176  Z" fill="#ffffff" fill-rule="evenodd" fill-opacity="1"/>
<polyline clip-path="url(#clip680)" style="stroke:#000000; stroke-linecap:round; stroke-linejoin:round; stroke-width:4; stroke-opacity:1; fill:none" points="228.998,198.898 588.673,198.898 588.673,95.2176 228.998,95.2176 228.998,198.898 "/>
<polyline clip-path="url(#clip680)" style="stroke:#009af9; stroke-linecap:round; stroke-linejoin:round; stroke-width:4; stroke-opacity:1; fill:none" points="253.409,147.058 399.875,147.058 "/>
<path clip-path="url(#clip680)" d="M434.911 128.366 Q431.809 133.69 430.305 138.898 Q428.8 144.106 428.8 149.453 Q428.8 154.801 430.305 160.055 Q431.832 165.287 434.911 170.588 L431.207 170.588 Q427.735 165.148 425.999 159.893 Q424.286 154.639 424.286 149.453 Q424.286 144.291 425.999 139.06 Q427.712 133.828 431.207 128.366 L434.911 128.366 Z" fill="#000000" fill-rule="nonzero" fill-opacity="1" /><path clip-path="url(#clip680)" d="M464.726 138.412 L455.351 151.027 L465.212 164.338 L460.189 164.338 L452.642 154.152 L445.096 164.338 L440.073 164.338 L450.142 150.773 L440.929 138.412 L445.953 138.412 L452.828 147.648 L459.703 138.412 L464.726 138.412 Z" fill="#000000" fill-rule="nonzero" fill-opacity="1" /><path clip-path="url(#clip680)" d="M472.318 158.458 L477.202 158.458 L477.202 162.439 L473.406 169.847 L470.42 169.847 L472.318 162.439 L472.318 158.458 Z" fill="#000000" fill-rule="nonzero" fill-opacity="1" /><path clip-path="url(#clip680)" d="M497.087 166.745 Q495.281 171.375 493.568 172.787 Q491.855 174.199 488.985 174.199 L485.582 174.199 L485.582 170.634 L488.082 170.634 Q489.841 170.634 490.813 169.8 Q491.786 168.967 492.966 165.865 L493.73 163.921 L483.244 138.412 L487.758 138.412 L495.86 158.689 L503.962 138.412 L508.475 138.412 L497.087 166.745 Z" fill="#000000" fill-rule="nonzero" fill-opacity="1" /><path clip-path="url(#clip680)" d="M515.443 158.458 L520.327 158.458 L520.327 162.439 L516.531 169.847 L513.545 169.847 L515.443 162.439 L515.443 158.458 Z" fill="#000000" fill-rule="nonzero" fill-opacity="1" /><path clip-path="url(#clip680)" d="M527.573 138.412 L547.804 138.412 L547.804 142.301 L531.785 160.935 L547.804 160.935 L547.804 164.338 L526.994 164.338 L526.994 160.449 L543.012 141.815 L527.573 141.815 L527.573 138.412 Z" fill="#000000" fill-rule="nonzero" fill-opacity="1" /><path clip-path="url(#clip680)" d="M553.637 128.366 L557.341 128.366 Q560.813 133.828 562.526 139.06 Q564.262 144.291 564.262 149.453 Q564.262 154.639 562.526 159.893 Q560.813 165.148 557.341 170.588 L553.637 170.588 Q556.716 165.287 558.22 160.055 Q559.748 154.801 559.748 149.453 Q559.748 144.106 558.22 138.898 Q556.716 133.69 553.637 128.366 Z" fill="#000000" fill-rule="nonzero" fill-opacity="1" /></svg>
