<?xml version="1.0" encoding="utf-8"?>
<svg xmlns="http://www.w3.org/2000/svg" xmlns:xlink="http://www.w3.org/1999/xlink" width="600" height="400" viewBox="0 0 2400 1600">
<defs>
  <clipPath id="clip500">
    <rect x="0" y="0" width="2400" height="1600"/>
  </clipPath>
</defs>
<path clip-path="url(#clip500)" d="M0 1600 L2400 1600 L2400 0 L0 0  Z" fill="#ffffff" fill-rule="evenodd" fill-opacity="1"/>
<defs>
  <clipPath id="clip501">
    <rect x="480" y="0" width="1681" height="1600"/>
  </clipPath>
</defs>
<path clip-path="url(#clip500)" d="M193.936 1423.18 L2352.76 1423.18 L2352.76 47.2441 L193.936 47.2441  Z" fill="#ffffff" fill-rule="evenodd" fill-opacity="1"/>
<defs>
  <clipPath id="clip502">
    <rect x="193" y="47" width="2160" height="1377"/>
  </clipPath>
</defs>
<polyline clip-path="url(#clip502)" style="stroke:#000000; stroke-linecap:round; stroke-linejoin:round; stroke-width:2; stroke-opacity:0.1; fill:none" points="193.936,1423.18 193.936,47.2441 "/>
<polyline clip-path="url(#clip502)" style="stroke:#000000; stroke-linecap:round; stroke-linejoin:round; stroke-width:2; stroke-opacity:0.1; fill:none" points="625.7,1423.18 625.7,47.2441 "/>
<polyline clip-path="url(#clip502)" style="stroke:#000000; stroke-linecap:round; stroke-linejoin:round; stroke-width:2; stroke-opacity:0.1; fill:none" points="1057.46,1423.18 1057.46,47.2441 "/>
<polyline clip-path="url(#clip502)" style="stroke:#000000; stroke-linecap:round; stroke-linejoin:round; stroke-width:2; stroke-opacity:0.1; fill:none" points="1489.23,1423.18 1489.23,47.2441 "/>
<polyline clip-path="url(#clip502)" style="stroke:#000000; stroke-linecap:round; stroke-linejoin:round; stroke-width:2; stroke-opacity:0.1; fill:none" points="1920.99,1423.18 1920.99,47.2441 "/>
<polyline clip-path="url(#clip502)" style="stroke:#000000; stroke-linecap:round; stroke-linejoin:round; stroke-width:2; stroke-opacity:0.1; fill:none" points="2352.76,1423.18 2352.76,47.2441 "/>
<polyline clip-path="url(#clip500)" style="stroke:#000000; stroke-linecap:round; stroke-linejoin:round; stroke-width:4; stroke-opacity:1; fill:none" points="193.936,1423.18 2352.76,1423.18 "/>
<polyline clip-path="url(#clip500)" style="stroke:#000000; stroke-linecap:round; stroke-linejoin:round; stroke-width:4; stroke-opacity:1; fill:none" points="193.936,1423.18 193.936,1404.28 "/>
<polyline clip-path="url(#clip500)" style="stroke:#000000; stroke-linecap:round; stroke-linejoin:round; stroke-width:4; stroke-opacity:1; fill:none" points="625.7,1423.18 625.7,1404.28 "/>
<polyline clip-path="url(#clip500)" style="stroke:#000000; stroke-linecap:round; stroke-linejoin:round; stroke-width:4; stroke-opacity:1; fill:none" points="1057.46,1423.18 1057.46,1404.28 "/>
<polyline clip-path="url(#clip500)" style="stroke:#000000; stroke-linecap:round; stroke-linejoin:round; stroke-width:4; stroke-opacity:1; fill:none" points="1489.23,1423.18 1489.23,1404.28 "/>
<polyline clip-path="url(#clip500)" style="stroke:#000000; stroke-linecap:round; stroke-linejoin:round; stroke-width:4; stroke-opacity:1; fill:none" points="1920.99,1423.18 1920.99,1404.28 "/>
<polyline clip-path="url(#clip500)" style="stroke:#000000; stroke-linecap:round; stroke-linejoin:round; stroke-width:4; stroke-opacity:1; fill:none" points="2352.76,1423.18 2352.76,1404.28 "/>
<path clip-path="url(#clip500)" d="M193.936 1454.1 Q190.325 1454.1 188.496 1457.66 Q186.691 1461.2 186.691 1468.33 Q186.691 1475.44 188.496 1479.01 Q190.325 1482.55 193.936 1482.55 Q197.57 1482.55 199.376 1479.01 Q201.204 1475.44 201.204 1468.33 Q201.204 1461.2 199.376 1457.66 Q197.57 1454.1 193.936 1454.1 M193.936 1450.39 Q199.746 1450.39 202.802 1455 Q205.88 1459.58 205.88 1468.33 Q205.88 1477.06 202.802 1481.67 Q199.746 1486.25 193.936 1486.25 Q188.126 1486.25 185.047 1481.67 Q181.992 1477.06 181.992 1468.33 Q181.992 1459.58 185.047 1455 Q188.126 1450.39 193.936 1450.39 Z" fill="#000000" fill-rule="nonzero" fill-opacity="1" /><path clip-path="url(#clip500)" d="M620.353 1481.64 L636.672 1481.64 L636.672 1485.58 L614.728 1485.58 L614.728 1481.64 Q617.39 1478.89 621.973 1474.26 Q626.58 1469.61 627.76 1468.27 Q630.006 1465.74 630.885 1464.01 Q631.788 1462.25 631.788 1460.56 Q631.788 1457.8 629.843 1456.07 Q627.922 1454.33 624.82 1454.33 Q622.621 1454.33 620.168 1455.09 Q617.737 1455.86 614.959 1457.41 L614.959 1452.69 Q617.783 1451.55 620.237 1450.97 Q622.691 1450.39 624.728 1450.39 Q630.098 1450.39 633.293 1453.08 Q636.487 1455.77 636.487 1460.26 Q636.487 1462.39 635.677 1464.31 Q634.89 1466.2 632.783 1468.8 Q632.205 1469.47 629.103 1472.69 Q626.001 1475.88 620.353 1481.64 Z" fill="#000000" fill-rule="nonzero" fill-opacity="1" /><path clip-path="url(#clip500)" d="M1060.47 1455.09 L1048.67 1473.54 L1060.47 1473.54 L1060.47 1455.09 M1059.25 1451.02 L1065.13 1451.02 L1065.13 1473.54 L1070.06 1473.54 L1070.06 1477.43 L1065.13 1477.43 L1065.13 1485.58 L1060.47 1485.58 L1060.47 1477.43 L1044.87 1477.43 L1044.87 1472.92 L1059.25 1451.02 Z" fill="#000000" fill-rule="nonzero" fill-opacity="1" /><path clip-path="url(#clip500)" d="M1489.63 1466.44 Q1486.48 1466.44 1484.63 1468.59 Q1482.8 1470.74 1482.8 1474.49 Q1482.8 1478.22 1484.63 1480.39 Q1486.48 1482.55 1489.63 1482.55 Q1492.78 1482.55 1494.61 1480.39 Q1496.46 1478.22 1496.46 1474.49 Q1496.46 1470.74 1494.61 1468.59 Q1492.78 1466.44 1489.63 1466.44 M1498.92 1451.78 L1498.92 1456.04 Q1497.16 1455.21 1495.35 1454.77 Q1493.57 1454.33 1491.81 1454.33 Q1487.18 1454.33 1484.73 1457.45 Q1482.3 1460.58 1481.95 1466.9 Q1483.31 1464.89 1485.37 1463.82 Q1487.43 1462.73 1489.91 1462.73 Q1495.12 1462.73 1498.13 1465.9 Q1501.16 1469.05 1501.16 1474.49 Q1501.16 1479.82 1498.01 1483.03 Q1494.86 1486.25 1489.63 1486.25 Q1483.64 1486.25 1480.47 1481.67 Q1477.3 1477.06 1477.3 1468.33 Q1477.3 1460.14 1481.18 1455.28 Q1485.07 1450.39 1491.62 1450.39 Q1493.38 1450.39 1495.17 1450.74 Q1496.97 1451.09 1498.92 1451.78 Z" fill="#000000" fill-rule="nonzero" fill-opacity="1" /><path clip-path="url(#clip500)" d="M1920.99 1469.17 Q1917.66 1469.17 1915.74 1470.95 Q1913.84 1472.73 1913.84 1475.86 Q1913.84 1478.98 1915.74 1480.77 Q1917.66 1482.55 1920.99 1482.55 Q1924.33 1482.55 1926.25 1480.77 Q1928.17 1478.96 1928.17 1475.86 Q1928.17 1472.73 1926.25 1470.95 Q1924.35 1469.17 1920.99 1469.17 M1916.32 1467.18 Q1913.31 1466.44 1911.62 1464.38 Q1909.95 1462.32 1909.95 1459.35 Q1909.95 1455.21 1912.89 1452.8 Q1915.85 1450.39 1920.99 1450.39 Q1926.15 1450.39 1929.09 1452.8 Q1932.03 1455.21 1932.03 1459.35 Q1932.03 1462.32 1930.34 1464.38 Q1928.68 1466.44 1925.69 1467.18 Q1929.07 1467.96 1930.95 1470.26 Q1932.84 1472.55 1932.84 1475.86 Q1932.84 1480.88 1929.77 1483.57 Q1926.71 1486.25 1920.99 1486.25 Q1915.27 1486.25 1912.2 1483.57 Q1909.14 1480.88 1909.14 1475.86 Q1909.14 1472.55 1911.04 1470.26 Q1912.94 1467.96 1916.32 1467.18 M1914.6 1459.79 Q1914.6 1462.48 1916.27 1463.98 Q1917.96 1465.49 1920.99 1465.49 Q1924 1465.49 1925.69 1463.98 Q1927.4 1462.48 1927.4 1459.79 Q1927.4 1457.11 1925.69 1455.6 Q1924 1454.1 1920.99 1454.1 Q1917.96 1454.1 1916.27 1455.6 Q1914.6 1457.11 1914.6 1459.79 Z" fill="#000000" fill-rule="nonzero" fill-opacity="1" /><path clip-path="url(#clip500)" d="M2327.44 1481.64 L2335.08 1481.64 L2335.08 1455.28 L2326.77 1456.95 L2326.77 1452.69 L2335.04 1451.02 L2339.71 1451.02 L2339.71 1481.64 L2347.35 1481.64 L2347.35 1485.58 L2327.44 1485.58 L2327.44 1481.64 Z" fill="#000000" fill-rule="nonzero" fill-opacity="1" /><path clip-path="url(#clip500)" d="M2366.8 1454.1 Q2363.18 1454.1 2361.36 1457.66 Q2359.55 1461.2 2359.55 1468.33 Q2359.55 1475.44 2361.36 1479.01 Q2363.18 1482.55 2366.8 1482.55 Q2370.43 1482.55 2372.23 1479.01 Q2374.06 1475.44 2374.06 1468.33 Q2374.06 1461.2 2372.23 1457.66 Q2370.43 1454.1 2366.8 1454.1 M2366.8 1450.39 Q2372.61 1450.39 2375.66 1455 Q2378.74 1459.58 2378.74 1468.33 Q2378.74 1477.06 2375.66 1481.67 Q2372.61 1486.25 2366.8 1486.25 Q2360.99 1486.25 2357.91 1481.67 Q2354.85 1477.06 2354.85 1468.33 Q2354.85 1459.58 2357.91 1455 Q2360.99 1450.39 2366.8 1450.39 Z" fill="#000000" fill-rule="nonzero" fill-opacity="1" /><path clip-path="url(#clip500)" d="M1272.41 1522.27 L1272.41 1532.4 L1284.47 1532.4 L1284.47 1536.95 L1272.41 1536.95 L1272.41 1556.3 Q1272.41 1560.66 1273.58 1561.9 Q1274.79 1563.14 1278.45 1563.14 L1284.47 1563.14 L1284.47 1568.04 L1278.45 1568.04 Q1271.67 1568.04 1269.1 1565.53 Q1266.52 1562.98 1266.52 1556.3 L1266.52 1536.95 L1262.22 1536.95 L1262.22 1532.4 L1266.52 1532.4 L1266.52 1522.27 L1272.41 1522.27 Z" fill="#000000" fill-rule="nonzero" fill-opacity="1" /><polyline clip-path="url(#clip502)" style="stroke:#000000; stroke-linecap:round; stroke-linejoin:round; stroke-width:2; stroke-opacity:0.1; fill:none" points="193.936,1382.73 2352.76,1382.73 "/>
<polyline clip-path="url(#clip502)" style="stroke:#000000; stroke-linecap:round; stroke-linejoin:round; stroke-width:2; stroke-opacity:0.1; fill:none" points="193.936,1097.51 2352.76,1097.51 "/>
<polyline clip-path="url(#clip502)" style="stroke:#000000; stroke-linecap:round; stroke-linejoin:round; stroke-width:2; stroke-opacity:0.1; fill:none" points="193.936,812.289 2352.76,812.289 "/>
<polyline clip-path="url(#clip502)" style="stroke:#000000; stroke-linecap:round; stroke-linejoin:round; stroke-width:2; stroke-opacity:0.1; fill:none" points="193.936,527.068 2352.76,527.068 "/>
<polyline clip-path="url(#clip502)" style="stroke:#000000; stroke-linecap:round; stroke-linejoin:round; stroke-width:2; stroke-opacity:0.1; fill:none" points="193.936,241.848 2352.76,241.848 "/>
<polyline clip-path="url(#clip500)" style="stroke:#000000; stroke-linecap:round; stroke-linejoin:round; stroke-width:4; stroke-opacity:1; fill:none" points="193.936,1423.18 193.936,47.2441 "/>
<polyline clip-path="url(#clip500)" style="stroke:#000000; stroke-linecap:round; stroke-linejoin:round; stroke-width:4; stroke-opacity:1; fill:none" points="193.936,1382.73 212.834,1382.73 "/>
<polyline clip-path="url(#clip500)" style="stroke:#000000; stroke-linecap:round; stroke-linejoin:round; stroke-width:4; stroke-opacity:1; fill:none" points="193.936,1097.51 212.834,1097.51 "/>
<polyline clip-path="url(#clip500)" style="stroke:#000000; stroke-linecap:round; stroke-linejoin:round; stroke-width:4; stroke-opacity:1; fill:none" points="193.936,812.289 212.834,812.289 "/>
<polyline clip-path="url(#clip500)" style="stroke:#000000; stroke-linecap:round; stroke-linejoin:round; stroke-width:4; stroke-opacity:1; fill:none" points="193.936,527.068 212.834,527.068 "/>
<polyline clip-path="url(#clip500)" style="stroke:#000000; stroke-linecap:round; stroke-linejoin:round; stroke-width:4; stroke-opacity:1; fill:none" points="193.936,241.848 212.834,241.848 "/>
<path clip-path="url(#clip500)" d="M51.9875 1383.18 L81.6633 1383.18 L81.6633 1387.12 L51.9875 1387.12 L51.9875 1383.18 Z" fill="#000000" fill-rule="nonzero" fill-opacity="1" /><path clip-path="url(#clip500)" d="M92.566 1396.07 L100.205 1396.07 L100.205 1369.71 L91.8947 1371.38 L91.8947 1367.12 L100.159 1365.45 L104.834 1365.45 L104.834 1396.07 L112.473 1396.07 L112.473 1400.01 L92.566 1400.01 L92.566 1396.07 Z" fill="#000000" fill-rule="nonzero" fill-opacity="1" /><path clip-path="url(#clip500)" d="M121.918 1394.13 L126.802 1394.13 L126.802 1400.01 L121.918 1400.01 L121.918 1394.13 Z" fill="#000000" fill-rule="nonzero" fill-opacity="1" /><path clip-path="url(#clip500)" d="M137.033 1365.45 L155.39 1365.45 L155.39 1369.38 L141.316 1369.38 L141.316 1377.86 Q142.334 1377.51 143.353 1377.35 Q144.371 1377.16 145.39 1377.16 Q151.177 1377.16 154.556 1380.33 Q157.936 1383.5 157.936 1388.92 Q157.936 1394.5 154.464 1397.6 Q150.992 1400.68 144.672 1400.68 Q142.496 1400.68 140.228 1400.31 Q137.982 1399.94 135.575 1399.2 L135.575 1394.5 Q137.658 1395.63 139.881 1396.19 Q142.103 1396.75 144.58 1396.75 Q148.584 1396.75 150.922 1394.64 Q153.26 1392.53 153.26 1388.92 Q153.26 1385.31 150.922 1383.2 Q148.584 1381.1 144.58 1381.1 Q142.705 1381.1 140.83 1381.51 Q138.978 1381.93 137.033 1382.81 L137.033 1365.45 Z" fill="#000000" fill-rule="nonzero" fill-opacity="1" /><path clip-path="url(#clip500)" d="M50.9921 1097.96 L80.6679 1097.96 L80.6679 1101.9 L50.9921 1101.9 L50.9921 1097.96 Z" fill="#000000" fill-rule="nonzero" fill-opacity="1" /><path clip-path="url(#clip500)" d="M91.5706 1110.85 L99.2095 1110.85 L99.2095 1084.49 L90.8993 1086.16 L90.8993 1081.9 L99.1632 1080.23 L103.839 1080.23 L103.839 1110.85 L111.478 1110.85 L111.478 1114.79 L91.5706 1114.79 L91.5706 1110.85 Z" fill="#000000" fill-rule="nonzero" fill-opacity="1" /><path clip-path="url(#clip500)" d="M120.922 1108.91 L125.807 1108.91 L125.807 1114.79 L120.922 1114.79 L120.922 1108.91 Z" fill="#000000" fill-rule="nonzero" fill-opacity="1" /><path clip-path="url(#clip500)" d="M145.992 1083.31 Q142.381 1083.31 140.552 1086.87 Q138.746 1090.41 138.746 1097.54 Q138.746 1104.65 140.552 1108.22 Q142.381 1111.76 145.992 1111.76 Q149.626 1111.76 151.431 1108.22 Q153.26 1104.65 153.26 1097.54 Q153.26 1090.41 151.431 1086.87 Q149.626 1083.31 145.992 1083.31 M145.992 1079.6 Q151.802 1079.6 154.857 1084.21 Q157.936 1088.79 157.936 1097.54 Q157.936 1106.27 154.857 1110.88 Q151.802 1115.46 145.992 1115.46 Q140.181 1115.46 137.103 1110.88 Q134.047 1106.27 134.047 1097.54 Q134.047 1088.79 137.103 1084.21 Q140.181 1079.6 145.992 1079.6 Z" fill="#000000" fill-rule="nonzero" fill-opacity="1" /><path clip-path="url(#clip500)" d="M51.9875 812.74 L81.6633 812.74 L81.6633 816.675 L51.9875 816.675 L51.9875 812.74 Z" fill="#000000" fill-rule="nonzero" fill-opacity="1" /><path clip-path="url(#clip500)" d="M101.756 798.087 Q98.1447 798.087 96.316 801.652 Q94.5104 805.194 94.5104 812.324 Q94.5104 819.43 96.316 822.995 Q98.1447 826.536 101.756 826.536 Q105.39 826.536 107.196 822.995 Q109.024 819.43 109.024 812.324 Q109.024 805.194 107.196 801.652 Q105.39 798.087 101.756 798.087 M101.756 794.384 Q107.566 794.384 110.621 798.99 Q113.7 803.574 113.7 812.324 Q113.7 821.05 110.621 825.657 Q107.566 830.24 101.756 830.24 Q95.9456 830.24 92.8669 825.657 Q89.8114 821.05 89.8114 812.324 Q89.8114 803.574 92.8669 798.99 Q95.9456 794.384 101.756 794.384 Z" fill="#000000" fill-rule="nonzero" fill-opacity="1" /><path clip-path="url(#clip500)" d="M121.918 823.689 L126.802 823.689 L126.802 829.569 L121.918 829.569 L121.918 823.689 Z" fill="#000000" fill-rule="nonzero" fill-opacity="1" /><path clip-path="url(#clip500)" d="M137.033 795.009 L155.39 795.009 L155.39 798.944 L141.316 798.944 L141.316 807.416 Q142.334 807.069 143.353 806.907 Q144.371 806.722 145.39 806.722 Q151.177 806.722 154.556 809.893 Q157.936 813.064 157.936 818.481 Q157.936 824.06 154.464 827.161 Q150.992 830.24 144.672 830.24 Q142.496 830.24 140.228 829.87 Q137.982 829.499 135.575 828.759 L135.575 824.06 Q137.658 825.194 139.881 825.749 Q142.103 826.305 144.58 826.305 Q148.584 826.305 150.922 824.198 Q153.26 822.092 153.26 818.481 Q153.26 814.87 150.922 812.763 Q148.584 810.657 144.58 810.657 Q142.705 810.657 140.83 811.074 Q138.978 811.49 137.033 812.37 L137.033 795.009 Z" fill="#000000" fill-rule="nonzero" fill-opacity="1" /><path clip-path="url(#clip500)" d="M100.76 512.867 Q97.1493 512.867 95.3206 516.432 Q93.515 519.974 93.515 527.103 Q93.515 534.21 95.3206 537.774 Q97.1493 541.316 100.76 541.316 Q104.395 541.316 106.2 537.774 Q108.029 534.21 108.029 527.103 Q108.029 519.974 106.2 516.432 Q104.395 512.867 100.76 512.867 M100.76 509.163 Q106.571 509.163 109.626 513.77 Q112.705 518.353 112.705 527.103 Q112.705 535.83 109.626 540.436 Q106.571 545.02 100.76 545.02 Q94.9502 545.02 91.8715 540.436 Q88.816 535.83 88.816 527.103 Q88.816 518.353 91.8715 513.77 Q94.9502 509.163 100.76 509.163 Z" fill="#000000" fill-rule="nonzero" fill-opacity="1" /><path clip-path="url(#clip500)" d="M120.922 538.469 L125.807 538.469 L125.807 544.348 L120.922 544.348 L120.922 538.469 Z" fill="#000000" fill-rule="nonzero" fill-opacity="1" /><path clip-path="url(#clip500)" d="M145.992 512.867 Q142.381 512.867 140.552 516.432 Q138.746 519.974 138.746 527.103 Q138.746 534.21 140.552 537.774 Q142.381 541.316 145.992 541.316 Q149.626 541.316 151.431 537.774 Q153.26 534.21 153.26 527.103 Q153.26 519.974 151.431 516.432 Q149.626 512.867 145.992 512.867 M145.992 509.163 Q151.802 509.163 154.857 513.77 Q157.936 518.353 157.936 527.103 Q157.936 535.83 154.857 540.436 Q151.802 545.02 145.992 545.02 Q140.181 545.02 137.103 540.436 Q134.047 535.83 134.047 527.103 Q134.047 518.353 137.103 513.77 Q140.181 509.163 145.992 509.163 Z" fill="#000000" fill-rule="nonzero" fill-opacity="1" /><path clip-path="url(#clip500)" d="M101.756 227.647 Q98.1447 227.647 96.316 231.212 Q94.5104 234.753 94.5104 241.883 Q94.5104 248.989 96.316 252.554 Q98.1447 256.096 101.756 256.096 Q105.39 256.096 107.196 252.554 Q109.024 248.989 109.024 241.883 Q109.024 234.753 107.196 231.212 Q105.39 227.647 101.756 227.647 M101.756 223.943 Q107.566 223.943 110.621 228.55 Q113.7 233.133 113.7 241.883 Q113.7 250.61 110.621 255.216 Q107.566 259.799 101.756 259.799 Q95.9456 259.799 92.8669 255.216 Q89.8114 250.61 89.8114 241.883 Q89.8114 233.133 92.8669 228.55 Q95.9456 223.943 101.756 223.943 Z" fill="#000000" fill-rule="nonzero" fill-opacity="1" /><path clip-path="url(#clip500)" d="M121.918 253.248 L126.802 253.248 L126.802 259.128 L121.918 259.128 L121.918 253.248 Z" fill="#000000" fill-rule="nonzero" fill-opacity="1" /><path clip-path="url(#clip500)" d="M137.033 224.568 L155.39 224.568 L155.39 228.503 L141.316 228.503 L141.316 236.975 Q142.334 236.628 143.353 236.466 Q144.371 236.281 145.39 236.281 Q151.177 236.281 154.556 239.452 Q157.936 242.624 157.936 248.04 Q157.936 253.619 154.464 256.721 Q150.992 259.799 144.672 259.799 Q142.496 259.799 140.228 259.429 Q137.982 259.059 135.575 258.318 L135.575 253.619 Q137.658 254.753 139.881 255.309 Q142.103 255.864 144.58 255.864 Q148.584 255.864 150.922 253.758 Q153.26 251.651 153.26 248.04 Q153.26 244.429 150.922 242.323 Q148.584 240.216 144.58 240.216 Q142.705 240.216 140.83 240.633 Q138.978 241.049 137.033 241.929 L137.033 224.568 Z" fill="#000000" fill-rule="nonzero" fill-opacity="1" /><polyline clip-path="url(#clip502)" style="stroke:#009af9; stroke-linecap:round; stroke-linejoin:round; stroke-width:4; stroke-opacity:1; fill:none" points="193.936,527.068 196.097,521.223 198.258,515.455 200.419,509.764 202.58,504.148 204.741,498.607 206.902,493.139 209.063,487.744 211.224,482.42 213.385,477.167 215.546,471.983 217.707,466.868 219.868,461.821 222.029,456.841 224.19,451.927 226.351,447.078 228.512,442.293 230.673,437.572 232.834,432.913 234.995,428.316 237.156,423.78 239.317,419.304 241.478,414.888 243.639,410.53 245.8,406.23 247.961,401.987 250.122,397.8 252.282,393.668 254.443,389.592 256.604,385.569 258.765,381.6 260.926,377.683 263.087,373.819 265.248,370.005 267.409,366.242 269.57,362.529 271.731,358.866 273.892,355.25 276.053,351.683 278.214,348.163 280.375,344.69 282.536,341.262 284.697,337.881 286.858,334.544 289.019,331.251 291.18,328.002 293.341,324.796 295.502,321.632 297.663,318.511 299.824,315.431 301.985,312.391 304.146,309.392 306.307,306.433 308.468,303.513 310.629,300.632 312.79,297.789 314.951,294.983 317.112,292.215 319.273,289.483 321.434,286.788 323.595,284.128 325.756,281.504 327.917,278.914 330.078,276.359 332.239,273.838 334.4,271.35 336.561,268.895 338.722,266.473 340.883,264.082 343.044,261.724 345.205,259.396 347.366,257.1 349.527,254.834 351.688,252.598 353.849,250.392 356.01,248.215 358.171,246.067 360.332,243.947 362.493,241.856 364.653,239.792 366.814,237.755 368.975,235.746 371.136,233.763 373.297,231.806 375.458,229.876 377.619,227.971 379.78,226.091 381.941,224.236 384.102,222.406 386.263,220.6 388.424,218.818 390.585,217.059 392.746,215.324 394.907,213.612 397.068,211.923 399.229,210.256 401.39,208.611 403.551,206.988 405.712,205.536 407.873,205.904 410.034,208.197 412.195,212.011 414.356,216.979 416.517,222.777 418.678,229.119 420.839,235.762 423,242.502 425.161,249.173 427.322,255.655 429.483,261.862 431.644,267.753 433.805,273.325 435.966,278.616 438.127,283.705 440.288,288.711 442.449,293.792 444.61,298.938 446.771,304.017 448.932,309.028 451.093,313.972 453.254,318.851 455.415,323.665 457.576,328.416 459.737,333.103 461.898,337.729 464.059,342.293 466.22,346.796 468.381,351.24 470.542,355.625 472.703,359.952 474.864,364.222 477.024,368.435 479.185,372.592 481.346,376.694 483.507,380.741 485.668,384.735 487.829,388.676 489.99,392.565 492.151,396.402 494.312,400.188 496.473,403.924 498.634,407.61 500.795,411.247 502.956,414.837 505.117,418.378 507.278,421.873 509.439,425.321 511.6,428.724 513.761,432.081 515.922,435.394 518.083,438.663 520.244,441.889 522.405,445.071 524.566,448.212 526.727,451.311 528.888,454.369 531.049,457.387 533.21,460.364 535.371,463.302 537.532,466.202 539.693,469.062 541.854,471.885 544.015,474.671 546.176,477.419 548.337,480.131 550.498,482.807 552.659,485.448 554.82,488.053 556.981,490.624 559.142,493.161 561.303,495.664 563.464,498.134 565.625,500.572 567.786,502.977 569.947,505.35 572.108,507.691 574.269,510.002 576.43,512.282 578.591,514.532 580.752,516.752 582.913,518.942 585.074,521.104 587.235,523.236 589.396,525.341 591.556,527.418 593.717,529.467 595.878,531.489 598.039,533.484 600.2,535.452 602.361,537.395 604.522,539.312 606.683,541.203 608.844,543.07 611.005,544.911 613.166,546.728 615.327,548.521 617.488,550.291 619.649,552.037 621.81,553.759 623.971,555.487 626.132,558.112 628.293,561.926 630.454,566.755 632.615,572.437 634.776,578.822 636.937,585.769 639.098,593.15 641.259,600.848 643.42,608.757 645.581,616.782 647.742,624.839 649.903,632.857 652.064,640.774 654.225,648.54 656.386,656.118 658.547,663.48 660.708,670.609 662.869,677.502 665.03,684.165 667.191,690.615 669.352,696.882 671.513,703.006 673.674,709.038 675.835,715.042 677.996,721.089 680.157,727.121 682.318,733.073 684.479,738.946 686.64,744.741 688.801,750.459 690.962,756.101 693.123,761.669 695.284,767.163 697.445,772.584 699.606,777.933 701.767,783.211 703.927,788.419 706.088,793.558 708.249,798.629 710.41,803.633 712.571,808.57 714.732,813.442 716.893,818.25 719.054,822.993 721.215,827.674 723.376,832.292 725.537,836.85 727.698,841.347 729.859,845.784 732.02,850.163 734.181,854.483 736.342,858.746 738.503,862.953 740.664,867.104 742.825,871.2 744.986,875.242 747.147,879.23 749.308,883.165 751.469,887.049 753.63,890.88 755.791,894.661 757.952,898.392 760.113,902.073 762.274,905.706 764.435,909.29 766.596,912.826 768.757,916.316 770.918,919.76 773.079,923.157 775.24,926.51 777.401,929.818 779.562,933.083 781.723,936.304 783.884,939.482 786.045,942.618 788.206,945.713 790.367,948.766 792.528,951.779 794.689,954.752 796.85,957.686 799.011,960.581 801.172,963.437 803.333,966.256 805.494,969.037 807.655,971.782 809.816,974.49 811.977,977.162 814.138,979.799 816.298,982.401 818.459,984.968 820.62,987.501 822.781,990.001 824.942,992.467 827.103,994.901 829.264,997.303 831.425,999.341 833.586,999.966 835.747,999.3 837.908,997.552 840.069,994.917 842.23,991.571 844.391,987.678 846.552,983.383 848.713,978.818 850.874,974.096 853.035,969.317 855.196,964.562 857.357,959.9 859.518,955.382 861.679,951.041 863.84,946.899 866.001,942.958 868.162,939.207 870.323,935.616 872.484,932.142 874.645,928.725 876.806,925.289 878.967,921.778 881.128,918.296 883.289,914.861 885.45,911.472 887.611,908.127 889.772,904.826 891.933,901.57 894.094,898.356 896.255,895.186 898.416,892.057 900.577,888.969 902.738,885.923 904.899,882.916 907.06,879.95 909.221,877.023 911.382,874.134 913.543,871.284 915.704,868.472 917.865,865.697 920.026,862.958 922.187,860.257 924.348,857.59 926.509,854.96 928.669,852.364 930.83,849.803 932.991,847.275 935.152,844.782 937.313,842.321 939.474,839.893 941.635,837.497 943.796,835.133 945.957,832.801 948.118,830.499 950.279,828.228 952.44,825.987 954.601,823.776 956.762,821.595 958.923,819.442 961.084,817.318 963.245,815.221 965.406,813.153 967.567,811.112 969.728,809.099 971.889,807.111 974.05,805.151 976.211,803.216 978.372,801.307 980.533,799.423 982.694,797.564 984.855,795.729 987.016,793.919 989.177,792.133 991.338,790.371 993.499,788.631 995.66,786.915 997.821,785.222 999.982,783.551 1002.14,781.902 1004.3,780.275 1006.46,778.67 1008.63,777.086 1010.79,775.523 1012.95,773.981 1015.11,772.459 1017.27,770.957 1019.43,769.475 1021.59,768.013 1023.75,766.57 1025.91,765.147 1028.07,763.742 1030.24,762.356 1032.4,760.998 1034.56,759.728 1036.72,758.541 1038.88,757.42 1041.04,756.346 1043.2,755.304 1045.36,754.278 1047.52,753.254 1049.68,752.22 1051.85,751.164 1054.01,750.076 1056.17,748.946 1058.33,747.766 1060.49,746.529 1062.65,745.229 1064.81,743.861 1066.97,742.423 1069.13,740.91 1071.29,739.323 1073.46,737.66 1075.62,735.923 1077.78,734.115 1079.94,732.237 1082.1,730.295 1084.26,728.294 1086.42,726.24 1088.58,724.143 1090.74,722.01 1092.9,719.851 1095.07,717.679 1097.23,715.505 1099.39,713.344 1101.55,711.208 1103.71,709.116 1105.87,707.083 1108.03,705.126 1110.19,703.212 1112.35,701.324 1114.51,699.462 1116.67,697.623 1118.84,695.81 1121,694.02 1123.16,692.254 1125.32,690.511 1127.48,688.792 1129.64,687.095 1131.8,685.421 1133.96,683.769 1136.12,682.139 1138.28,680.53 1140.45,678.943 1142.61,677.377 1144.77,675.831 1146.93,674.306 1149.09,672.801 1151.25,671.316 1153.41,669.851 1155.57,668.405 1157.73,666.978 1159.89,665.57 1162.06,664.181 1164.22,662.81 1166.38,661.458 1168.54,660.123 1170.7,658.806 1172.86,657.506 1175.02,656.224 1177.18,654.959 1179.34,653.711 1181.5,652.479 1183.67,651.263 1185.83,650.064 1187.99,648.881 1190.15,647.713 1192.31,646.561 1194.47,645.424 1196.63,644.303 1198.79,643.196 1200.95,642.104 1203.11,641.026 1205.28,639.963 1207.44,638.914 1209.6,637.879 1211.76,636.857 1213.92,635.849 1216.08,634.855 1218.24,633.874 1220.4,632.905 1222.56,631.95 1224.72,631.007 1226.88,630.077 1229.05,629.159 1231.21,628.253 1233.37,627.359 1235.53,626.477 1237.69,625.607 1239.85,624.748 1242.01,623.901 1244.17,623.064 1246.33,622.239 1248.49,621.425 1250.66,620.621 1252.82,619.828 1254.98,619.046 1257.14,618.274 1259.3,617.512 1261.46,616.76 1263.62,616.019 1265.78,615.287 1267.94,614.564 1270.1,613.852 1272.27,613.149 1274.43,613.492 1276.59,615.647 1278.75,619.395 1280.91,624.529 1283.07,630.852 1285.23,638.181 1287.39,646.345 1289.55,655.183 1291.71,664.547 1293.88,674.302 1296.04,684.323 1298.2,694.498 1300.36,704.727 1302.52,714.92 1304.68,725.002 1306.84,734.908 1309,744.585 1311.16,753.992 1313.32,763.1 1315.49,771.892 1317.65,780.363 1319.81,788.519 1321.97,796.38 1324.13,803.976 1326.29,811.349 1328.45,818.553 1330.61,825.655 1332.77,832.733 1334.93,839.877 1337.09,847.089 1339.26,854.21 1341.42,861.237 1343.58,868.171 1345.74,875.013 1347.9,881.765 1350.06,888.426 1352.22,895 1354.38,901.486 1356.54,907.887 1358.7,914.202 1360.87,920.434 1363.03,926.583 1365.19,932.65 1367.35,938.638 1369.51,944.546 1371.67,950.376 1373.83,956.129 1375.99,961.805 1378.15,967.407 1380.31,972.934 1382.48,978.388 1384.64,983.769 1386.8,989.079 1388.96,994.319 1391.12,999.489 1393.28,1004.59 1395.44,1009.62 1397.6,1014.59 1399.76,1019.49 1401.92,1024.33 1404.09,1029.1 1406.25,1033.81 1408.41,1038.45 1410.57,1043.04 1412.73,1047.56 1414.89,1052.03 1417.05,1056.43 1419.21,1060.77 1421.37,1065.06 1423.53,1069.29 1425.7,1073.47 1427.86,1077.59 1430.02,1081.65 1432.18,1085.66 1434.34,1089.62 1436.5,1093.53 1438.66,1097.38 1440.82,1101.18 1442.98,1104.94 1445.14,1108.64 1447.3,1112.29 1449.47,1115.9 1451.63,1119.46 1453.79,1122.97 1455.95,1126.43 1458.11,1129.85 1460.27,1133.22 1462.43,1136.55 1464.59,1139.83 1466.75,1143.07 1468.91,1146.27 1471.08,1149.43 1473.24,1152.54 1475.4,1155.61 1477.56,1158.64 1479.72,1161.63 1481.88,1164.58 1484.04,1167.46 1486.2,1167.4 1488.36,1163.18 1490.52,1155.64 1492.69,1145.55 1494.85,1133.56 1497.01,1120.29 1499.17,1106.25 1501.33,1091.88 1503.49,1077.54 1505.65,1063.51 1507.81,1049.98 1509.97,1037.08 1512.13,1024.85 1514.3,1013.24 1516.46,1002.15 1518.62,991.366 1520.78,980.616 1522.94,969.619 1525.1,958.676 1527.26,947.879 1529.42,937.224 1531.58,926.711 1533.74,916.337 1535.91,906.101 1538.07,896 1540.23,886.034 1542.39,876.199 1544.55,866.495 1546.71,856.919 1548.87,847.47 1551.03,838.146 1553.19,828.946 1555.35,819.868 1557.51,810.91 1559.68,802.071 1561.84,793.349 1564,784.743 1566.16,776.251 1568.32,767.872 1570.48,759.604 1572.64,751.446 1574.8,743.396 1576.96,735.452 1579.12,727.614 1581.29,719.88 1583.45,712.249 1585.61,704.719 1587.77,697.288 1589.93,689.957 1592.09,682.722 1594.25,675.583 1596.41,668.539 1598.57,661.589 1600.73,654.73 1602.9,647.962 1605.06,641.284 1607.22,634.695 1609.38,628.193 1611.54,621.777 1613.7,615.446 1615.86,609.198 1618.02,603.034 1620.18,596.952 1622.34,590.95 1624.51,585.027 1626.67,579.183 1628.83,573.417 1630.99,567.727 1633.15,562.113 1635.31,556.573 1637.47,551.106 1639.63,545.712 1641.79,540.389 1643.95,535.137 1646.12,529.955 1648.28,524.842 1650.44,519.796 1652.6,514.817 1654.76,509.904 1656.92,505.056 1659.08,500.273 1661.24,495.553 1663.4,490.895 1665.56,486.299 1667.72,481.764 1669.89,477.29 1672.05,472.874 1674.21,468.517 1676.37,464.218 1678.53,459.976 1680.69,455.79 1682.85,451.66 1685.01,447.584 1687.17,443.563 1689.33,439.594 1691.5,435.679 1693.66,431.815 1695.82,428.002 1697.98,424.24 1700.14,420.528 1702.3,416.865 1704.46,413.251 1706.62,409.834 1708.78,406.721 1710.94,403.879 1713.11,401.277 1715.27,398.888 1717.43,396.684 1719.59,394.639 1721.75,392.73 1723.91,390.936 1726.07,389.236 1728.23,387.612 1730.39,386.048 1732.55,384.528 1734.72,383.041 1736.88,381.574 1739.04,380.119 1741.2,378.667 1743.36,377.213 1745.52,375.752 1747.68,374.282 1749.84,372.802 1752,371.314 1754.16,369.819 1756.33,368.324 1758.49,366.834 1760.65,365.357 1762.81,363.903 1764.97,362.484 1767.13,361.112 1769.29,359.768 1771.45,358.441 1773.61,357.132 1775.77,355.84 1777.93,354.565 1780.1,353.307 1782.26,352.066 1784.42,350.842 1786.58,349.633 1788.74,348.441 1790.9,347.264 1793.06,346.103 1795.22,344.958 1797.38,343.827 1799.54,342.712 1801.71,341.611 1803.87,340.525 1806.03,339.454 1808.19,338.396 1810.35,337.353 1812.51,336.323 1814.67,335.307 1816.83,334.304 1818.99,333.315 1821.15,332.339 1823.32,331.375 1825.48,330.425 1827.64,329.487 1829.8,328.561 1831.96,327.648 1834.12,326.747 1836.28,325.858 1838.44,324.981 1840.6,324.115 1842.76,323.261 1844.93,322.418 1847.09,321.586 1849.25,320.766 1851.41,319.956 1853.57,319.157 1855.73,318.369 1857.89,317.591 1860.05,316.823 1862.21,316.066 1864.37,315.319 1866.54,314.581 1868.7,313.854 1870.86,313.136 1873.02,312.428 1875.18,311.729 1877.34,311.039 1879.5,310.359 1881.66,309.687 1883.82,309.024 1885.98,308.371 1888.15,307.725 1890.31,307.089 1892.47,306.461 1894.63,305.841 1896.79,305.229 1898.95,304.626 1901.11,304.03 1903.27,303.442 1905.43,302.862 1907.59,302.29 1909.75,301.459 1911.92,299.955 1914.08,298.837 1916.24,298.91 1918.4,300.587 1920.56,303.882 1922.72,308.416 1924.88,313.412 1927.04,318.026 1929.2,322.532 1931.36,326.978 1933.53,331.365 1935.69,335.694 1937.85,339.966 1940.01,344.18 1942.17,348.339 1944.33,352.443 1946.49,356.493 1948.65,360.489 1950.81,364.432 1952.97,368.322 1955.14,372.161 1957.3,375.95 1959.46,379.687 1961.62,383.376 1963.78,387.015 1965.94,390.606 1968.1,394.15 1970.26,397.646 1972.42,401.096 1974.58,404.5 1976.75,407.86 1978.91,411.174 1981.07,414.445 1983.23,417.672 1985.39,420.857 1987.55,423.999 1989.71,427.099 1991.87,430.159 1994.03,433.178 1996.19,436.157 1998.36,439.096 2000.52,441.997 2002.68,444.859 2004.84,447.683 2007,450.47 2009.16,453.22 2011.32,455.933 2013.48,458.611 2015.64,461.252 2017.8,463.859 2019.96,466.432 2022.13,468.97 2024.29,471.474 2026.45,473.946 2028.61,476.384 2030.77,478.79 2032.93,481.165 2035.09,483.507 2037.25,485.819 2039.41,488.1 2041.57,490.351 2043.74,492.572 2045.9,494.764 2048.06,496.926 2050.22,499.06 2052.38,501.166 2054.54,503.243 2056.7,505.293 2058.86,507.316 2061.02,509.312 2063.18,511.282 2065.35,513.226 2067.51,515.144 2069.67,517.036 2071.83,518.903 2073.99,520.746 2076.15,522.564 2078.31,524.358 2080.47,526.128 2082.63,527.875 2084.79,529.599 2086.96,531.299 2089.12,532.977 2091.28,534.633 2093.44,536.267 2095.6,537.88 2097.76,539.47 2099.92,541.04 2102.08,542.589 2104.24,544.118 2106.4,545.626 2108.57,547.114 2110.73,548.582 2112.89,550.031 2115.05,551.461 2117.21,552.872 2119.37,554.264 2121.53,555.637 2123.69,556.993 2125.85,558.33 2128.01,559.65 2130.17,560.952 2132.34,562.202 2134.5,562.69 2136.66,562.247 2138.82,561.01 2140.98,559.106 2143.14,556.653 2145.3,553.761 2147.46,550.53 2149.62,547.05 2151.78,543.402 2153.95,539.66 2156.11,535.885 2158.27,532.131 2160.43,528.443 2162.59,524.857 2164.75,521.398 2166.91,518.082 2169.07,514.918 2171.23,511.904 2173.39,509.029 2175.56,506.272 2177.72,503.605 2179.88,500.988 2182.04,498.374 2184.2,495.706 2186.36,493.016 2188.52,490.362 2190.68,487.743 2192.84,485.158 2195,482.608 2197.17,480.091 2199.33,477.608 2201.49,475.158 2203.65,472.74 2205.81,470.355 2207.97,468.001 2210.13,465.678 2212.29,463.386 2214.45,461.124 2216.61,458.893 2218.78,456.691 2220.94,454.518 2223.1,452.374 2225.26,450.258 2227.42,448.171 2229.58,446.111 2231.74,444.078 2233.9,442.072 2236.06,440.093 2238.22,438.14 2240.38,436.213 2242.55,434.311 2244.71,432.435 2246.87,430.583 2249.03,428.756 2251.19,426.954 2253.35,425.175 2255.51,423.42 2257.67,421.688 2259.83,419.979 2261.99,418.293 2264.16,416.629 2266.32,414.987 2268.48,413.368 2270.64,411.769 2272.8,410.192 2274.96,408.636 2277.12,407.1 2279.28,405.585 2281.44,404.09 2283.6,402.615 2285.77,401.159 2287.93,399.722 2290.09,398.305 2292.25,396.906 2294.41,395.526 2296.57,394.165 2298.73,392.821 2300.89,391.495 2303.05,390.186 2305.21,388.895 2307.38,387.621 2309.54,386.364 2311.7,385.124 2313.86,383.9 2316.02,382.692 2318.18,381.5 2320.34,380.324 2322.5,379.164 2324.66,378.019 2326.82,376.889 2328.99,375.774 2331.15,374.674 2333.31,373.589 2335.47,372.518 2337.63,371.461 2339.79,370.418 2341.95,369.389 2344.11,368.374 2346.27,367.372 2348.43,366.383 2350.59,365.407 2352.76,364.445 "/>
<polyline clip-path="url(#clip502)" style="stroke:#e26f46; stroke-linecap:round; stroke-linejoin:round; stroke-width:4; stroke-opacity:1; fill:none" points="193.936,86.1857 196.097,86.1857 198.258,86.1857 200.419,86.1857 202.58,86.1857 204.741,86.1857 206.902,86.1857 209.063,86.1857 211.224,86.1857 213.385,86.1857 215.546,86.1857 217.707,86.1857 219.868,86.1857 222.029,86.1857 224.19,86.1857 226.351,86.1857 228.512,86.1857 230.673,86.1857 232.834,86.1857 234.995,86.1857 237.156,86.1857 239.317,86.1857 241.478,86.1857 243.639,86.1857 245.8,86.1857 247.961,86.1857 250.122,86.1857 252.282,86.1857 254.443,86.1857 256.604,86.1857 258.765,86.1857 260.926,86.1857 263.087,86.1857 265.248,86.1857 267.409,86.1857 269.57,86.1857 271.731,86.1857 273.892,86.1857 276.053,86.1857 278.214,86.1857 280.375,86.1857 282.536,86.1857 284.697,86.1857 286.858,86.1857 289.019,86.1857 291.18,86.1857 293.341,86.1857 295.502,86.1857 297.663,86.1857 299.824,86.1857 301.985,86.1857 304.146,86.1857 306.307,86.1857 308.468,86.1857 310.629,86.1857 312.79,86.1857 314.951,86.1857 317.112,86.1857 319.273,86.1857 321.434,86.1857 323.595,86.1857 325.756,86.1857 327.917,86.1857 330.078,86.1857 332.239,86.1857 334.4,86.1857 336.561,86.1857 338.722,86.1857 340.883,86.1857 343.044,86.1857 345.205,86.1857 347.366,86.1857 349.527,86.1857 351.688,86.1857 353.849,86.1857 356.01,86.1857 358.171,86.1857 360.332,86.1857 362.493,86.1857 364.653,86.1857 366.814,86.1857 368.975,86.1857 371.136,86.1857 373.297,86.1857 375.458,86.1857 377.619,86.1857 379.78,86.1857 381.941,86.1857 384.102,86.1857 386.263,86.1857 388.424,86.1857 390.585,86.1857 392.746,86.1857 394.907,86.1857 397.068,86.1857 399.229,86.1857 401.39,86.1857 403.551,86.1857 405.712,86.1857 407.873,86.1857 410.034,681.973 412.195,681.973 414.356,681.973 416.517,681.973 418.678,681.973 420.839,681.973 423,681.973 425.161,681.973 427.322,681.973 429.483,681.973 431.644,681.973 433.805,681.973 435.966,681.973 438.127,681.973 440.288,681.973 442.449,681.973 444.61,681.973 446.771,681.973 448.932,681.973 451.093,681.973 453.254,681.973 455.415,681.973 457.576,681.973 459.737,681.973 461.898,681.973 464.059,681.973 466.22,681.973 468.381,681.973 470.542,681.973 472.703,681.973 474.864,681.973 477.024,681.973 479.185,681.973 481.346,681.973 483.507,681.973 485.668,681.973 487.829,681.973 489.99,681.973 492.151,681.973 494.312,681.973 496.473,681.973 498.634,681.973 500.795,681.973 502.956,681.973 505.117,681.973 507.278,681.973 509.439,681.973 511.6,681.973 513.761,681.973 515.922,681.973 518.083,681.973 520.244,681.973 522.405,681.973 524.566,681.973 526.727,681.973 528.888,681.973 531.049,681.973 533.21,681.973 535.371,681.973 537.532,681.973 539.693,681.973 541.854,681.973 544.015,681.973 546.176,681.973 548.337,681.973 550.498,681.973 552.659,681.973 554.82,681.973 556.981,681.973 559.142,681.973 561.303,681.973 563.464,681.973 565.625,681.973 567.786,681.973 569.947,681.973 572.108,681.973 574.269,681.973 576.43,681.973 578.591,681.973 580.752,681.973 582.913,681.973 585.074,681.973 587.235,681.973 589.396,681.973 591.556,681.973 593.717,681.973 595.878,681.973 598.039,681.973 600.2,681.973 602.361,681.973 604.522,681.973 606.683,681.973 608.844,681.973 611.005,681.973 613.166,681.973 615.327,681.973 617.488,681.973 619.649,681.973 621.81,681.973 623.971,681.973 626.132,1176.04 628.293,1176.04 630.454,1176.04 632.615,1176.04 634.776,1176.04 636.937,1176.04 639.098,1176.04 641.259,1176.04 643.42,1176.04 645.581,1176.04 647.742,1176.04 649.903,1176.04 652.064,1176.04 654.225,1176.04 656.386,1176.04 658.547,1176.04 660.708,1176.04 662.869,1176.04 665.03,1176.04 667.191,1176.04 669.352,1176.04 671.513,1176.04 673.674,1176.04 675.835,1176.04 677.996,1176.04 680.157,1176.04 682.318,1176.04 684.479,1176.04 686.64,1176.04 688.801,1176.04 690.962,1176.04 693.123,1176.04 695.284,1176.04 697.445,1176.04 699.606,1176.04 701.767,1176.04 703.927,1176.04 706.088,1176.04 708.249,1176.04 710.41,1176.04 712.571,1176.04 714.732,1176.04 716.893,1176.04 719.054,1176.04 721.215,1176.04 723.376,1176.04 725.537,1176.04 727.698,1176.04 729.859,1176.04 732.02,1176.04 734.181,1176.04 736.342,1176.04 738.503,1176.04 740.664,1176.04 742.825,1176.04 744.986,1176.04 747.147,1176.04 749.308,1176.04 751.469,1176.04 753.63,1176.04 755.791,1176.04 757.952,1176.04 760.113,1176.04 762.274,1176.04 764.435,1176.04 766.596,1176.04 768.757,1176.04 770.918,1176.04 773.079,1176.04 775.24,1176.04 777.401,1176.04 779.562,1176.04 781.723,1176.04 783.884,1176.04 786.045,1176.04 788.206,1176.04 790.367,1176.04 792.528,1176.04 794.689,1176.04 796.85,1176.04 799.011,1176.04 801.172,1176.04 803.333,1176.04 805.494,1176.04 807.655,1176.04 809.816,1176.04 811.977,1176.04 814.138,1176.04 816.298,1176.04 818.459,1176.04 820.62,1176.04 822.781,1176.04 824.942,1176.04 827.103,1176.04 829.264,1176.04 831.425,1176.04 833.586,1176.04 835.747,1176.04 837.908,1176.04 840.069,1176.04 842.23,659.192 844.391,659.192 846.552,659.192 848.713,659.192 850.874,659.192 853.035,659.192 855.196,659.192 857.357,659.192 859.518,659.192 861.679,659.192 863.84,659.192 866.001,659.192 868.162,659.192 870.323,659.192 872.484,659.192 874.645,659.192 876.806,659.192 878.967,659.192 881.128,659.192 883.289,659.192 885.45,659.192 887.611,659.192 889.772,659.192 891.933,659.192 894.094,659.192 896.255,659.192 898.416,659.192 900.577,659.192 902.738,659.192 904.899,659.192 907.06,659.192 909.221,659.192 911.382,659.192 913.543,659.192 915.704,659.192 917.865,659.192 920.026,659.192 922.187,659.192 924.348,659.192 926.509,659.192 928.669,659.192 930.83,659.192 932.991,659.192 935.152,659.192 937.313,659.192 939.474,659.192 941.635,659.192 943.796,659.192 945.957,659.192 948.118,659.192 950.279,659.192 952.44,659.192 954.601,659.192 956.762,659.192 958.923,659.192 961.084,659.192 963.245,659.192 965.406,659.192 967.567,659.192 969.728,659.192 971.889,659.192 974.05,659.192 976.211,659.192 978.372,659.192 980.533,659.192 982.694,659.192 984.855,659.192 987.016,659.192 989.177,659.192 991.338,659.192 993.499,659.192 995.66,659.192 997.821,659.192 999.982,659.192 1002.14,659.192 1004.3,659.192 1006.46,659.192 1008.63,659.192 1010.79,659.192 1012.95,659.192 1015.11,659.192 1017.27,659.192 1019.43,659.192 1021.59,659.192 1023.75,659.192 1025.91,659.192 1028.07,659.192 1030.24,659.192 1032.4,659.192 1034.56,659.192 1036.72,659.192 1038.88,659.192 1041.04,659.192 1043.2,659.192 1045.36,659.192 1047.52,659.192 1049.68,659.192 1051.85,659.192 1054.01,659.192 1056.17,659.192 1058.33,560.815 1060.49,560.815 1062.65,560.815 1064.81,560.815 1066.97,560.815 1069.13,560.815 1071.29,560.815 1073.46,560.815 1075.62,560.815 1077.78,560.815 1079.94,560.815 1082.1,560.815 1084.26,560.815 1086.42,560.815 1088.58,560.815 1090.74,560.815 1092.9,560.815 1095.07,560.815 1097.23,560.815 1099.39,560.815 1101.55,560.815 1103.71,560.815 1105.87,560.815 1108.03,560.815 1110.19,560.815 1112.35,560.815 1114.51,560.815 1116.67,560.815 1118.84,560.815 1121,560.815 1123.16,560.815 1125.32,560.815 1127.48,560.815 1129.64,560.815 1131.8,560.815 1133.96,560.815 1136.12,560.815 1138.28,560.815 1140.45,560.815 1142.61,560.815 1144.77,560.815 1146.93,560.815 1149.09,560.815 1151.25,560.815 1153.41,560.815 1155.57,560.815 1157.73,560.815 1159.89,560.815 1162.06,560.815 1164.22,560.815 1166.38,560.815 1168.54,560.815 1170.7,560.815 1172.86,560.815 1175.02,560.815 1177.18,560.815 1179.34,560.815 1181.5,560.815 1183.67,560.815 1185.83,560.815 1187.99,560.815 1190.15,560.815 1192.31,560.815 1194.47,560.815 1196.63,560.815 1198.79,560.815 1200.95,560.815 1203.11,560.815 1205.28,560.815 1207.44,560.815 1209.6,560.815 1211.76,560.815 1213.92,560.815 1216.08,560.815 1218.24,560.815 1220.4,560.815 1222.56,560.815 1224.72,560.815 1226.88,560.815 1229.05,560.815 1231.21,560.815 1233.37,560.815 1235.53,560.815 1237.69,560.815 1239.85,560.815 1242.01,560.815 1244.17,560.815 1246.33,560.815 1248.49,560.815 1250.66,560.815 1252.82,560.815 1254.98,560.815 1257.14,560.815 1259.3,560.815 1261.46,560.815 1263.62,560.815 1265.78,560.815 1267.94,560.815 1270.1,560.815 1272.27,560.815 1274.43,1384.24 1276.59,1384.24 1278.75,1384.24 1280.91,1384.24 1283.07,1384.24 1285.23,1384.24 1287.39,1384.24 1289.55,1384.24 1291.71,1384.24 1293.88,1384.24 1296.04,1384.24 1298.2,1384.24 1300.36,1384.24 1302.52,1384.24 1304.68,1384.24 1306.84,1384.24 1309,1384.24 1311.16,1384.24 1313.32,1384.24 1315.49,1384.24 1317.65,1384.24 1319.81,1384.24 1321.97,1384.24 1324.13,1384.24 1326.29,1384.24 1328.45,1384.24 1330.61,1384.24 1332.77,1384.24 1334.93,1384.24 1337.09,1384.24 1339.26,1384.24 1341.42,1384.24 1343.58,1384.24 1345.74,1384.24 1347.9,1384.24 1350.06,1384.24 1352.22,1384.24 1354.38,1384.24 1356.54,1384.24 1358.7,1384.24 1360.87,1384.24 1363.03,1384.24 1365.19,1384.24 1367.35,1384.24 1369.51,1384.24 1371.67,1384.24 1373.83,1384.24 1375.99,1384.24 1378.15,1384.24 1380.31,1384.24 1382.48,1384.24 1384.64,1384.24 1386.8,1384.24 1388.96,1384.24 1391.12,1384.24 1393.28,1384.24 1395.44,1384.24 1397.6,1384.24 1399.76,1384.24 1401.92,1384.24 1404.09,1384.24 1406.25,1384.24 1408.41,1384.24 1410.57,1384.24 1412.73,1384.24 1414.89,1384.24 1417.05,1384.24 1419.21,1384.24 1421.37,1384.24 1423.53,1384.24 1425.7,1384.24 1427.86,1384.24 1430.02,1384.24 1432.18,1384.24 1434.34,1384.24 1436.5,1384.24 1438.66,1384.24 1440.82,1384.24 1442.98,1384.24 1445.14,1384.24 1447.3,1384.24 1449.47,1384.24 1451.63,1384.24 1453.79,1384.24 1455.95,1384.24 1458.11,1384.24 1460.27,1384.24 1462.43,1384.24 1464.59,1384.24 1466.75,1384.24 1468.91,1384.24 1471.08,1384.24 1473.24,1384.24 1475.4,1384.24 1477.56,1384.24 1479.72,1384.24 1481.88,1384.24 1484.04,1384.24 1486.2,1384.24 1488.36,1384.24 1490.52,144.252 1492.69,144.252 1494.85,144.252 1497.01,144.252 1499.17,144.252 1501.33,144.252 1503.49,144.252 1505.65,144.252 1507.81,144.252 1509.97,144.252 1512.13,144.252 1514.3,144.252 1516.46,144.252 1518.62,144.252 1520.78,144.252 1522.94,144.252 1525.1,144.252 1527.26,144.252 1529.42,144.252 1531.58,144.252 1533.74,144.252 1535.91,144.252 1538.07,144.252 1540.23,144.252 1542.39,144.252 1544.55,144.252 1546.71,144.252 1548.87,144.252 1551.03,144.252 1553.19,144.252 1555.35,144.252 1557.51,144.252 1559.68,144.252 1561.84,144.252 1564,144.252 1566.16,144.252 1568.32,144.252 1570.48,144.252 1572.64,144.252 1574.8,144.252 1576.96,144.252 1579.12,144.252 1581.29,144.252 1583.45,144.252 1585.61,144.252 1587.77,144.252 1589.93,144.252 1592.09,144.252 1594.25,144.252 1596.41,144.252 1598.57,144.252 1600.73,144.252 1602.9,144.252 1605.06,144.252 1607.22,144.252 1609.38,144.252 1611.54,144.252 1613.7,144.252 1615.86,144.252 1618.02,144.252 1620.18,144.252 1622.34,144.252 1624.51,144.252 1626.67,144.252 1628.83,144.252 1630.99,144.252 1633.15,144.252 1635.31,144.252 1637.47,144.252 1639.63,144.252 1641.79,144.252 1643.95,144.252 1646.12,144.252 1648.28,144.252 1650.44,144.252 1652.6,144.252 1654.76,144.252 1656.92,144.252 1659.08,144.252 1661.24,144.252 1663.4,144.252 1665.56,144.252 1667.72,144.252 1669.89,144.252 1672.05,144.252 1674.21,144.252 1676.37,144.252 1678.53,144.252 1680.69,144.252 1682.85,144.252 1685.01,144.252 1687.17,144.252 1689.33,144.252 1691.5,144.252 1693.66,144.252 1695.82,144.252 1697.98,144.252 1700.14,144.252 1702.3,144.252 1704.46,144.252 1706.62,259.696 1708.78,259.696 1710.94,259.696 1713.11,259.696 1715.27,259.696 1717.43,259.696 1719.59,259.696 1721.75,259.696 1723.91,259.696 1726.07,259.696 1728.23,259.696 1730.39,259.696 1732.55,259.696 1734.72,259.696 1736.88,259.696 1739.04,259.696 1741.2,259.696 1743.36,259.696 1745.52,259.696 1747.68,259.696 1749.84,259.696 1752,259.696 1754.16,259.696 1756.33,259.696 1758.49,259.696 1760.65,259.696 1762.81,259.696 1764.97,259.696 1767.13,259.696 1769.29,259.696 1771.45,259.696 1773.61,259.696 1775.77,259.696 1777.93,259.696 1780.1,259.696 1782.26,259.696 1784.42,259.696 1786.58,259.696 1788.74,259.696 1790.9,259.696 1793.06,259.696 1795.22,259.696 1797.38,259.696 1799.54,259.696 1801.71,259.696 1803.87,259.696 1806.03,259.696 1808.19,259.696 1810.35,259.696 1812.51,259.696 1814.67,259.696 1816.83,259.696 1818.99,259.696 1821.15,259.696 1823.32,259.696 1825.48,259.696 1827.64,259.696 1829.8,259.696 1831.96,259.696 1834.12,259.696 1836.28,259.696 1838.44,259.696 1840.6,259.696 1842.76,259.696 1844.93,259.696 1847.09,259.696 1849.25,259.696 1851.41,259.696 1853.57,259.696 1855.73,259.696 1857.89,259.696 1860.05,259.696 1862.21,259.696 1864.37,259.696 1866.54,259.696 1868.7,259.696 1870.86,259.696 1873.02,259.696 1875.18,259.696 1877.34,259.696 1879.5,259.696 1881.66,259.696 1883.82,259.696 1885.98,259.696 1888.15,259.696 1890.31,259.696 1892.47,259.696 1894.63,259.696 1896.79,259.696 1898.95,259.696 1901.11,259.696 1903.27,259.696 1905.43,259.696 1907.59,259.696 1909.75,259.696 1911.92,259.696 1914.08,259.696 1916.24,259.696 1918.4,259.696 1920.56,259.696 1922.72,657.875 1924.88,657.875 1927.04,657.875 1929.2,657.875 1931.36,657.875 1933.53,657.875 1935.69,657.875 1937.85,657.875 1940.01,657.875 1942.17,657.875 1944.33,657.875 1946.49,657.875 1948.65,657.875 1950.81,657.875 1952.97,657.875 1955.14,657.875 1957.3,657.875 1959.46,657.875 1961.62,657.875 1963.78,657.875 1965.94,657.875 1968.1,657.875 1970.26,657.875 1972.42,657.875 1974.58,657.875 1976.75,657.875 1978.91,657.875 1981.07,657.875 1983.23,657.875 1985.39,657.875 1987.55,657.875 1989.71,657.875 1991.87,657.875 1994.03,657.875 1996.19,657.875 1998.36,657.875 2000.52,657.875 2002.68,657.875 2004.84,657.875 2007,657.875 2009.16,657.875 2011.32,657.875 2013.48,657.875 2015.64,657.875 2017.8,657.875 2019.96,657.875 2022.13,657.875 2024.29,657.875 2026.45,657.875 2028.61,657.875 2030.77,657.875 2032.93,657.875 2035.09,657.875 2037.25,657.875 2039.41,657.875 2041.57,657.875 2043.74,657.875 2045.9,657.875 2048.06,657.875 2050.22,657.875 2052.38,657.875 2054.54,657.875 2056.7,657.875 2058.86,657.875 2061.02,657.875 2063.18,657.875 2065.35,657.875 2067.51,657.875 2069.67,657.875 2071.83,657.875 2073.99,657.875 2076.15,657.875 2078.31,657.875 2080.47,657.875 2082.63,657.875 2084.79,657.875 2086.96,657.875 2089.12,657.875 2091.28,657.875 2093.44,657.875 2095.6,657.875 2097.76,657.875 2099.92,657.875 2102.08,657.875 2104.24,657.875 2106.4,657.875 2108.57,657.875 2110.73,657.875 2112.89,657.875 2115.05,657.875 2117.21,657.875 2119.37,657.875 2121.53,657.875 2123.69,657.875 2125.85,657.875 2128.01,657.875 2130.17,657.875 2132.34,657.875 2134.5,657.875 2136.66,657.875 2138.82,292.801 2140.98,292.801 2143.14,292.801 2145.3,292.801 2147.46,292.801 2149.62,292.801 2151.78,292.801 2153.95,292.801 2156.11,292.801 2158.27,292.801 2160.43,292.801 2162.59,292.801 2164.75,292.801 2166.91,292.801 2169.07,292.801 2171.23,292.801 2173.39,292.801 2175.56,292.801 2177.72,292.801 2179.88,292.801 2182.04,292.801 2184.2,292.801 2186.36,292.801 2188.52,292.801 2190.68,292.801 2192.84,292.801 2195,292.801 2197.17,292.801 2199.33,292.801 2201.49,292.801 2203.65,292.801 2205.81,292.801 2207.97,292.801 2210.13,292.801 2212.29,292.801 2214.45,292.801 2216.61,292.801 2218.78,292.801 2220.94,292.801 2223.1,292.801 2225.26,292.801 2227.42,292.801 2229.58,292.801 2231.74,292.801 2233.9,292.801 2236.06,292.801 2238.22,292.801 2240.38,292.801 2242.55,292.801 2244.71,292.801 2246.87,292.801 2249.03,292.801 2251.19,292.801 2253.35,292.801 2255.51,292.801 2257.67,292.801 2259.83,292.801 2261.99,292.801 2264.16,292.801 2266.32,292.801 2268.48,292.801 2270.64,292.801 2272.8,292.801 2274.96,292.801 2277.12,292.801 2279.28,292.801 2281.44,292.801 2283.6,292.801 2285.77,292.801 2287.93,292.801 2290.09,292.801 2292.25,292.801 2294.41,292.801 2296.57,292.801 2298.73,292.801 2300.89,292.801 2303.05,292.801 2305.21,292.801 2307.38,292.801 2309.54,292.801 2311.7,292.801 2313.86,292.801 2316.02,292.801 2318.18,292.801 2320.34,292.801 2322.5,292.801 2324.66,292.801 2326.82,292.801 2328.99,292.801 2331.15,292.801 2333.31,292.801 2335.47,292.801 2337.63,292.801 2339.79,292.801 2341.95,292.801 2344.11,292.801 2346.27,292.801 2348.43,292.801 2350.59,292.801 2352.76,292.801 "/>
<path clip-path="url(#clip500)" d="M1986.72 1377.32 L2280.8 1377.32 L2280.8 1221.8 L1986.72 1221.8  Z" fill="#ffffff" fill-rule="evenodd" fill-opacity="1"/>
<polyline clip-path="url(#clip500)" style="stroke:#000000; stroke-linecap:round; stroke-linejoin:round; stroke-width:4; stroke-opacity:1; fill:none" points="1986.72,1377.32 2280.8,1377.32 2280.8,1221.8 1986.72,1221.8 1986.72,1377.32 "/>
<polyline clip-path="url(#clip500)" style="stroke:#009af9; stroke-linecap:round; stroke-linejoin:round; stroke-width:4; stroke-opacity:1; fill:none" points="2010.71,1273.64 2154.63,1273.64 "/>
<path clip-path="url(#clip500)" d="M2203.27 1264.99 L2193.89 1277.61 L2203.75 1290.92 L2198.73 1290.92 L2191.18 1280.73 L2183.64 1290.92 L2178.61 1290.92 L2188.68 1277.35 L2179.47 1264.99 L2184.49 1264.99 L2191.37 1274.23 L2198.24 1264.99 L2203.27 1264.99 Z" fill="#000000" fill-rule="nonzero" fill-opacity="1" /><path clip-path="url(#clip500)" d="M2220 1254.94 Q2216.9 1260.27 2215.4 1265.48 Q2213.89 1270.68 2213.89 1276.03 Q2213.89 1281.38 2215.4 1286.63 Q2216.92 1291.86 2220 1297.17 L2216.3 1297.17 Q2212.83 1291.73 2211.09 1286.47 Q2209.38 1281.22 2209.38 1276.03 Q2209.38 1270.87 2211.09 1265.64 Q2212.8 1260.41 2216.3 1254.94 L2220 1254.94 Z" fill="#000000" fill-rule="nonzero" fill-opacity="1" /><path clip-path="url(#clip500)" d="M2232.48 1257.63 L2232.48 1264.99 L2241.25 1264.99 L2241.25 1268.3 L2232.48 1268.3 L2232.48 1282.37 Q2232.48 1285.54 2233.34 1286.45 Q2234.22 1287.35 2236.88 1287.35 L2241.25 1287.35 L2241.25 1290.92 L2236.88 1290.92 Q2231.95 1290.92 2230.07 1289.09 Q2228.2 1287.23 2228.2 1282.37 L2228.2 1268.3 L2225.07 1268.3 L2225.07 1264.99 L2228.2 1264.99 L2228.2 1257.63 L2232.48 1257.63 Z" fill="#000000" fill-rule="nonzero" fill-opacity="1" /><path clip-path="url(#clip500)" d="M2246.18 1254.94 L2249.89 1254.94 Q2253.36 1260.41 2255.07 1265.64 Q2256.81 1270.87 2256.81 1276.03 Q2256.81 1281.22 2255.07 1286.47 Q2253.36 1291.73 2249.89 1297.17 L2246.18 1297.17 Q2249.26 1291.86 2250.77 1286.63 Q2252.29 1281.38 2252.29 1276.03 Q2252.29 1270.68 2250.77 1265.48 Q2249.26 1260.27 2246.18 1254.94 Z" fill="#000000" fill-rule="nonzero" fill-opacity="1" /><polyline clip-path="url(#clip500)" style="stroke:#e26f46; stroke-linecap:round; stroke-linejoin:round; stroke-width:4; stroke-opacity:1; fill:none" points="2010.71,1325.48 2154.63,1325.48 "/>
<path clip-path="url(#clip500)" d="M2195.12 1306.74 L2195.12 1310.28 L2191.04 1310.28 Q2188.75 1310.28 2187.85 1311.2 Q2186.97 1312.13 2186.97 1314.54 L2186.97 1316.83 L2193.98 1316.83 L2193.98 1320.14 L2186.97 1320.14 L2186.97 1342.76 L2182.69 1342.76 L2182.69 1320.14 L2178.61 1320.14 L2178.61 1316.83 L2182.69 1316.83 L2182.69 1315.02 Q2182.69 1310.7 2184.7 1308.73 Q2186.72 1306.74 2191.09 1306.74 L2195.12 1306.74 Z" fill="#000000" fill-rule="nonzero" fill-opacity="1" /><path clip-path="url(#clip500)" d="M2208.92 1306.78 Q2205.81 1312.11 2204.31 1317.32 Q2202.8 1322.52 2202.8 1327.87 Q2202.8 1333.22 2204.31 1338.47 Q2205.84 1343.7 2208.92 1349.01 L2205.21 1349.01 Q2201.74 1343.57 2200 1338.31 Q2198.29 1333.06 2198.29 1327.87 Q2198.29 1322.71 2200 1317.48 Q2201.72 1312.25 2205.21 1306.78 L2208.92 1306.78 Z" fill="#000000" fill-rule="nonzero" fill-opacity="1" /><path clip-path="url(#clip500)" d="M2221.39 1309.47 L2221.39 1316.83 L2230.16 1316.83 L2230.16 1320.14 L2221.39 1320.14 L2221.39 1334.21 Q2221.39 1337.38 2222.25 1338.29 Q2223.13 1339.19 2225.79 1339.19 L2230.16 1339.19 L2230.16 1342.76 L2225.79 1342.76 Q2220.86 1342.76 2218.98 1340.93 Q2217.11 1339.07 2217.11 1334.21 L2217.11 1320.14 L2213.98 1320.14 L2213.98 1316.83 L2217.11 1316.83 L2217.11 1309.47 L2221.39 1309.47 Z" fill="#000000" fill-rule="nonzero" fill-opacity="1" /><path clip-path="url(#clip500)" d="M2235.1 1306.78 L2238.8 1306.78 Q2242.27 1312.25 2243.98 1317.48 Q2245.72 1322.71 2245.72 1327.87 Q2245.72 1333.06 2243.98 1338.31 Q2242.27 1343.57 2238.8 1349.01 L2235.1 1349.01 Q2238.17 1343.7 2239.68 1338.47 Q2241.21 1333.22 2241.21 1327.87 Q2241.21 1322.52 2239.68 1317.32 Q2238.17 1312.11 2235.1 1306.78 Z" fill="#000000" fill-rule="nonzero" fill-opacity="1" /></svg>
