<?xml version="1.0" encoding="utf-8"?>
<svg xmlns="http://www.w3.org/2000/svg" xmlns:xlink="http://www.w3.org/1999/xlink" width="600" height="400" viewBox="0 0 2400 1600">
<defs>
  <clipPath id="clip480">
    <rect x="0" y="0" width="2400" height="1600"/>
  </clipPath>
</defs>
<path clip-path="url(#clip480)" d="M0 1600 L2400 1600 L2400 0 L0 0  Z" fill="#ffffff" fill-rule="evenodd" fill-opacity="1"/>
<defs>
  <clipPath id="clip481">
    <rect x="193" y="47" width="2160" height="1377"/>
  </clipPath>
</defs>
<path clip-path="url(#clip480)" d="M193.936 1423.18 L2352.76 1423.18 L2352.76 47.2441 L193.936 47.2441  Z" fill="#ffffff" fill-rule="evenodd" fill-opacity="1"/>
<polyline clip-path="url(#clip481)" style="stroke:#000000; stroke-linecap:round; stroke-linejoin:round; stroke-width:2; stroke-opacity:0.1; fill:none" points="193.936,1423.18 193.936,47.2441 "/>
<polyline clip-path="url(#clip481)" style="stroke:#000000; stroke-linecap:round; stroke-linejoin:round; stroke-width:2; stroke-opacity:0.1; fill:none" points="625.7,1423.18 625.7,47.2441 "/>
<polyline clip-path="url(#clip481)" style="stroke:#000000; stroke-linecap:round; stroke-linejoin:round; stroke-width:2; stroke-opacity:0.1; fill:none" points="1057.46,1423.18 1057.46,47.2441 "/>
<polyline clip-path="url(#clip481)" style="stroke:#000000; stroke-linecap:round; stroke-linejoin:round; stroke-width:2; stroke-opacity:0.1; fill:none" points="1489.23,1423.18 1489.23,47.2441 "/>
<polyline clip-path="url(#clip481)" style="stroke:#000000; stroke-linecap:round; stroke-linejoin:round; stroke-width:2; stroke-opacity:0.1; fill:none" points="1920.99,1423.18 1920.99,47.2441 "/>
<polyline clip-path="url(#clip481)" style="stroke:#000000; stroke-linecap:round; stroke-linejoin:round; stroke-width:2; stroke-opacity:0.1; fill:none" points="2352.76,1423.18 2352.76,47.2441 "/>
<polyline clip-path="url(#clip481)" style="stroke:#000000; stroke-linecap:round; stroke-linejoin:round; stroke-width:2; stroke-opacity:0.1; fill:none" points="193.936,1385.65 2352.76,1385.65 "/>
<polyline clip-path="url(#clip481)" style="stroke:#000000; stroke-linecap:round; stroke-linejoin:round; stroke-width:2; stroke-opacity:0.1; fill:none" points="193.936,1171.7 2352.76,1171.7 "/>
<polyline clip-path="url(#clip481)" style="stroke:#000000; stroke-linecap:round; stroke-linejoin:round; stroke-width:2; stroke-opacity:0.1; fill:none" points="193.936,957.753 2352.76,957.753 "/>
<polyline clip-path="url(#clip481)" style="stroke:#000000; stroke-linecap:round; stroke-linejoin:round; stroke-width:2; stroke-opacity:0.1; fill:none" points="193.936,743.804 2352.76,743.804 "/>
<polyline clip-path="url(#clip481)" style="stroke:#000000; stroke-linecap:round; stroke-linejoin:round; stroke-width:2; stroke-opacity:0.1; fill:none" points="193.936,529.855 2352.76,529.855 "/>
<polyline clip-path="url(#clip481)" style="stroke:#000000; stroke-linecap:round; stroke-linejoin:round; stroke-width:2; stroke-opacity:0.1; fill:none" points="193.936,315.906 2352.76,315.906 "/>
<polyline clip-path="url(#clip481)" style="stroke:#000000; stroke-linecap:round; stroke-linejoin:round; stroke-width:2; stroke-opacity:0.1; fill:none" points="193.936,101.958 2352.76,101.958 "/>
<polyline clip-path="url(#clip480)" style="stroke:#000000; stroke-linecap:round; stroke-linejoin:round; stroke-width:4; stroke-opacity:1; fill:none" points="193.936,1423.18 2352.76,1423.18 "/>
<polyline clip-path="url(#clip480)" style="stroke:#000000; stroke-linecap:round; stroke-linejoin:round; stroke-width:4; stroke-opacity:1; fill:none" points="193.936,1423.18 193.936,1404.28 "/>
<polyline clip-path="url(#clip480)" style="stroke:#000000; stroke-linecap:round; stroke-linejoin:round; stroke-width:4; stroke-opacity:1; fill:none" points="625.7,1423.18 625.7,1404.28 "/>
<polyline clip-path="url(#clip480)" style="stroke:#000000; stroke-linecap:round; stroke-linejoin:round; stroke-width:4; stroke-opacity:1; fill:none" points="1057.46,1423.18 1057.46,1404.28 "/>
<polyline clip-path="url(#clip480)" style="stroke:#000000; stroke-linecap:round; stroke-linejoin:round; stroke-width:4; stroke-opacity:1; fill:none" points="1489.23,1423.18 1489.23,1404.28 "/>
<polyline clip-path="url(#clip480)" style="stroke:#000000; stroke-linecap:round; stroke-linejoin:round; stroke-width:4; stroke-opacity:1; fill:none" points="1920.99,1423.18 1920.99,1404.28 "/>
<polyline clip-path="url(#clip480)" style="stroke:#000000; stroke-linecap:round; stroke-linejoin:round; stroke-width:4; stroke-opacity:1; fill:none" points="2352.76,1423.18 2352.76,1404.28 "/>
<path clip-path="url(#clip480)" d="M193.936 1454.1 Q190.325 1454.1 188.496 1457.66 Q186.691 1461.2 186.691 1468.33 Q186.691 1475.44 188.496 1479.01 Q190.325 1482.55 193.936 1482.55 Q197.57 1482.55 199.376 1479.01 Q201.204 1475.44 201.204 1468.33 Q201.204 1461.2 199.376 1457.66 Q197.57 1454.1 193.936 1454.1 M193.936 1450.39 Q199.746 1450.39 202.802 1455 Q205.88 1459.58 205.88 1468.33 Q205.88 1477.06 202.802 1481.67 Q199.746 1486.25 193.936 1486.25 Q188.126 1486.25 185.047 1481.67 Q181.992 1477.06 181.992 1468.33 Q181.992 1459.58 185.047 1455 Q188.126 1450.39 193.936 1450.39 Z" fill="#000000" fill-rule="nonzero" fill-opacity="1" /><path clip-path="url(#clip480)" d="M620.353 1481.64 L636.672 1481.64 L636.672 1485.58 L614.728 1485.58 L614.728 1481.64 Q617.39 1478.89 621.973 1474.26 Q626.58 1469.61 627.76 1468.27 Q630.006 1465.74 630.885 1464.01 Q631.788 1462.25 631.788 1460.56 Q631.788 1457.8 629.843 1456.07 Q627.922 1454.33 624.82 1454.33 Q622.621 1454.33 620.168 1455.09 Q617.737 1455.86 614.959 1457.41 L614.959 1452.69 Q617.783 1451.55 620.237 1450.97 Q622.691 1450.39 624.728 1450.39 Q630.098 1450.39 633.293 1453.08 Q636.487 1455.77 636.487 1460.26 Q636.487 1462.39 635.677 1464.31 Q634.89 1466.2 632.783 1468.8 Q632.205 1469.47 629.103 1472.69 Q626.001 1475.88 620.353 1481.64 Z" fill="#000000" fill-rule="nonzero" fill-opacity="1" /><path clip-path="url(#clip480)" d="M1060.47 1455.09 L1048.67 1473.54 L1060.47 1473.54 L1060.47 1455.09 M1059.25 1451.02 L1065.13 1451.02 L1065.13 1473.54 L1070.06 1473.54 L1070.06 1477.43 L1065.13 1477.43 L1065.13 1485.58 L1060.47 1485.58 L1060.47 1477.43 L1044.87 1477.43 L1044.87 1472.92 L1059.25 1451.02 Z" fill="#000000" fill-rule="nonzero" fill-opacity="1" /><path clip-path="url(#clip480)" d="M1489.63 1466.44 Q1486.48 1466.44 1484.63 1468.59 Q1482.8 1470.74 1482.8 1474.49 Q1482.8 1478.22 1484.63 1480.39 Q1486.48 1482.55 1489.63 1482.55 Q1492.78 1482.55 1494.61 1480.39 Q1496.46 1478.22 1496.46 1474.49 Q1496.46 1470.74 1494.61 1468.59 Q1492.78 1466.44 1489.63 1466.44 M1498.92 1451.78 L1498.92 1456.04 Q1497.16 1455.21 1495.35 1454.77 Q1493.57 1454.33 1491.81 1454.33 Q1487.18 1454.33 1484.73 1457.45 Q1482.3 1460.58 1481.95 1466.9 Q1483.31 1464.89 1485.37 1463.82 Q1487.43 1462.73 1489.91 1462.73 Q1495.12 1462.73 1498.13 1465.9 Q1501.16 1469.05 1501.16 1474.49 Q1501.16 1479.82 1498.01 1483.03 Q1494.86 1486.25 1489.63 1486.25 Q1483.64 1486.25 1480.47 1481.67 Q1477.3 1477.06 1477.3 1468.33 Q1477.3 1460.14 1481.18 1455.28 Q1485.07 1450.39 1491.62 1450.39 Q1493.38 1450.39 1495.17 1450.74 Q1496.97 1451.09 1498.92 1451.78 Z" fill="#000000" fill-rule="nonzero" fill-opacity="1" /><path clip-path="url(#clip480)" d="M1920.99 1469.17 Q1917.66 1469.17 1915.74 1470.95 Q1913.84 1472.73 1913.84 1475.86 Q1913.84 1478.98 1915.74 1480.77 Q1917.66 1482.55 1920.99 1482.55 Q1924.33 1482.55 1926.25 1480.77 Q1928.17 1478.96 1928.17 1475.86 Q1928.17 1472.73 1926.25 1470.95 Q1924.35 1469.17 1920.99 1469.17 M1916.32 1467.18 Q1913.31 1466.44 1911.62 1464.38 Q1909.95 1462.32 1909.95 1459.35 Q1909.95 1455.21 1912.89 1452.8 Q1915.85 1450.39 1920.99 1450.39 Q1926.15 1450.39 1929.09 1452.8 Q1932.03 1455.21 1932.03 1459.35 Q1932.03 1462.32 1930.34 1464.38 Q1928.68 1466.44 1925.69 1467.18 Q1929.07 1467.96 1930.95 1470.26 Q1932.84 1472.55 1932.84 1475.86 Q1932.84 1480.88 1929.77 1483.57 Q1926.71 1486.25 1920.99 1486.25 Q1915.27 1486.25 1912.2 1483.57 Q1909.14 1480.88 1909.14 1475.86 Q1909.14 1472.55 1911.04 1470.26 Q1912.94 1467.96 1916.32 1467.18 M1914.6 1459.79 Q1914.6 1462.48 1916.27 1463.98 Q1917.96 1465.49 1920.99 1465.49 Q1924 1465.49 1925.69 1463.98 Q1927.4 1462.48 1927.4 1459.79 Q1927.4 1457.11 1925.69 1455.6 Q1924 1454.1 1920.99 1454.1 Q1917.96 1454.1 1916.27 1455.6 Q1914.6 1457.11 1914.6 1459.79 Z" fill="#000000" fill-rule="nonzero" fill-opacity="1" /><path clip-path="url(#clip480)" d="M2327.44 1481.64 L2335.08 1481.64 L2335.08 1455.28 L2326.77 1456.95 L2326.77 1452.69 L2335.04 1451.02 L2339.71 1451.02 L2339.71 1481.64 L2347.35 1481.64 L2347.35 1485.58 L2327.44 1485.58 L2327.44 1481.64 Z" fill="#000000" fill-rule="nonzero" fill-opacity="1" /><path clip-path="url(#clip480)" d="M2366.8 1454.1 Q2363.18 1454.1 2361.36 1457.66 Q2359.55 1461.2 2359.55 1468.33 Q2359.55 1475.44 2361.36 1479.01 Q2363.18 1482.55 2366.8 1482.55 Q2370.43 1482.55 2372.23 1479.01 Q2374.06 1475.44 2374.06 1468.33 Q2374.06 1461.2 2372.23 1457.66 Q2370.43 1454.1 2366.8 1454.1 M2366.8 1450.39 Q2372.61 1450.39 2375.66 1455 Q2378.74 1459.58 2378.74 1468.33 Q2378.74 1477.06 2375.66 1481.67 Q2372.61 1486.25 2366.8 1486.25 Q2360.99 1486.25 2357.91 1481.67 Q2354.85 1477.06 2354.85 1468.33 Q2354.85 1459.58 2357.91 1455 Q2360.99 1450.39 2366.8 1450.39 Z" fill="#000000" fill-rule="nonzero" fill-opacity="1" /><path clip-path="url(#clip480)" d="M1272.41 1522.27 L1272.41 1532.4 L1284.47 1532.4 L1284.47 1536.95 L1272.41 1536.95 L1272.41 1556.3 Q1272.41 1560.66 1273.58 1561.9 Q1274.79 1563.14 1278.45 1563.14 L1284.47 1563.14 L1284.47 1568.04 L1278.45 1568.04 Q1271.67 1568.04 1269.1 1565.53 Q1266.52 1562.98 1266.52 1556.3 L1266.52 1536.95 L1262.22 1536.95 L1262.22 1532.4 L1266.52 1532.4 L1266.52 1522.27 L1272.41 1522.27 Z" fill="#000000" fill-rule="nonzero" fill-opacity="1" /><polyline clip-path="url(#clip480)" style="stroke:#000000; stroke-linecap:round; stroke-linejoin:round; stroke-width:4; stroke-opacity:1; fill:none" points="193.936,1423.18 193.936,47.2441 "/>
<polyline clip-path="url(#clip480)" style="stroke:#000000; stroke-linecap:round; stroke-linejoin:round; stroke-width:4; stroke-opacity:1; fill:none" points="193.936,1385.65 212.834,1385.65 "/>
<polyline clip-path="url(#clip480)" style="stroke:#000000; stroke-linecap:round; stroke-linejoin:round; stroke-width:4; stroke-opacity:1; fill:none" points="193.936,1171.7 212.834,1171.7 "/>
<polyline clip-path="url(#clip480)" style="stroke:#000000; stroke-linecap:round; stroke-linejoin:round; stroke-width:4; stroke-opacity:1; fill:none" points="193.936,957.753 212.834,957.753 "/>
<polyline clip-path="url(#clip480)" style="stroke:#000000; stroke-linecap:round; stroke-linejoin:round; stroke-width:4; stroke-opacity:1; fill:none" points="193.936,743.804 212.834,743.804 "/>
<polyline clip-path="url(#clip480)" style="stroke:#000000; stroke-linecap:round; stroke-linejoin:round; stroke-width:4; stroke-opacity:1; fill:none" points="193.936,529.855 212.834,529.855 "/>
<polyline clip-path="url(#clip480)" style="stroke:#000000; stroke-linecap:round; stroke-linejoin:round; stroke-width:4; stroke-opacity:1; fill:none" points="193.936,315.906 212.834,315.906 "/>
<polyline clip-path="url(#clip480)" style="stroke:#000000; stroke-linecap:round; stroke-linejoin:round; stroke-width:4; stroke-opacity:1; fill:none" points="193.936,101.958 212.834,101.958 "/>
<path clip-path="url(#clip480)" d="M51.9875 1386.1 L81.6633 1386.1 L81.6633 1390.04 L51.9875 1390.04 L51.9875 1386.1 Z" fill="#000000" fill-rule="nonzero" fill-opacity="1" /><path clip-path="url(#clip480)" d="M92.566 1399 L100.205 1399 L100.205 1372.63 L91.8947 1374.3 L91.8947 1370.04 L100.159 1368.37 L104.834 1368.37 L104.834 1399 L112.473 1399 L112.473 1402.93 L92.566 1402.93 L92.566 1399 Z" fill="#000000" fill-rule="nonzero" fill-opacity="1" /><path clip-path="url(#clip480)" d="M121.918 1397.05 L126.802 1397.05 L126.802 1402.93 L121.918 1402.93 L121.918 1397.05 Z" fill="#000000" fill-rule="nonzero" fill-opacity="1" /><path clip-path="url(#clip480)" d="M137.033 1368.37 L155.39 1368.37 L155.39 1372.31 L141.316 1372.31 L141.316 1380.78 Q142.334 1380.43 143.353 1380.27 Q144.371 1380.08 145.39 1380.08 Q151.177 1380.08 154.556 1383.25 Q157.936 1386.43 157.936 1391.84 Q157.936 1397.42 154.464 1400.52 Q150.992 1403.6 144.672 1403.6 Q142.496 1403.6 140.228 1403.23 Q137.982 1402.86 135.575 1402.12 L135.575 1397.42 Q137.658 1398.56 139.881 1399.11 Q142.103 1399.67 144.58 1399.67 Q148.584 1399.67 150.922 1397.56 Q153.26 1395.45 153.26 1391.84 Q153.26 1388.23 150.922 1386.12 Q148.584 1384.02 144.58 1384.02 Q142.705 1384.02 140.83 1384.44 Q138.978 1384.85 137.033 1385.73 L137.033 1368.37 Z" fill="#000000" fill-rule="nonzero" fill-opacity="1" /><path clip-path="url(#clip480)" d="M50.9921 1172.15 L80.6679 1172.15 L80.6679 1176.09 L50.9921 1176.09 L50.9921 1172.15 Z" fill="#000000" fill-rule="nonzero" fill-opacity="1" /><path clip-path="url(#clip480)" d="M91.5706 1185.05 L99.2095 1185.05 L99.2095 1158.68 L90.8993 1160.35 L90.8993 1156.09 L99.1632 1154.42 L103.839 1154.42 L103.839 1185.05 L111.478 1185.05 L111.478 1188.98 L91.5706 1188.98 L91.5706 1185.05 Z" fill="#000000" fill-rule="nonzero" fill-opacity="1" /><path clip-path="url(#clip480)" d="M120.922 1183.1 L125.807 1183.1 L125.807 1188.98 L120.922 1188.98 L120.922 1183.1 Z" fill="#000000" fill-rule="nonzero" fill-opacity="1" /><path clip-path="url(#clip480)" d="M145.992 1157.5 Q142.381 1157.5 140.552 1161.07 Q138.746 1164.61 138.746 1171.74 Q138.746 1178.84 140.552 1182.41 Q142.381 1185.95 145.992 1185.95 Q149.626 1185.95 151.431 1182.41 Q153.26 1178.84 153.26 1171.74 Q153.26 1164.61 151.431 1161.07 Q149.626 1157.5 145.992 1157.5 M145.992 1153.8 Q151.802 1153.8 154.857 1158.4 Q157.936 1162.99 157.936 1171.74 Q157.936 1180.46 154.857 1185.07 Q151.802 1189.65 145.992 1189.65 Q140.181 1189.65 137.103 1185.07 Q134.047 1180.46 134.047 1171.74 Q134.047 1162.99 137.103 1158.4 Q140.181 1153.8 145.992 1153.8 Z" fill="#000000" fill-rule="nonzero" fill-opacity="1" /><path clip-path="url(#clip480)" d="M51.9875 958.204 L81.6633 958.204 L81.6633 962.139 L51.9875 962.139 L51.9875 958.204 Z" fill="#000000" fill-rule="nonzero" fill-opacity="1" /><path clip-path="url(#clip480)" d="M101.756 943.551 Q98.1447 943.551 96.316 947.116 Q94.5104 950.658 94.5104 957.788 Q94.5104 964.894 96.316 968.459 Q98.1447 972 101.756 972 Q105.39 972 107.196 968.459 Q109.024 964.894 109.024 957.788 Q109.024 950.658 107.196 947.116 Q105.39 943.551 101.756 943.551 M101.756 939.848 Q107.566 939.848 110.621 944.454 Q113.7 949.038 113.7 957.788 Q113.7 966.514 110.621 971.121 Q107.566 975.704 101.756 975.704 Q95.9456 975.704 92.8669 971.121 Q89.8114 966.514 89.8114 957.788 Q89.8114 949.038 92.8669 944.454 Q95.9456 939.848 101.756 939.848 Z" fill="#000000" fill-rule="nonzero" fill-opacity="1" /><path clip-path="url(#clip480)" d="M121.918 969.153 L126.802 969.153 L126.802 975.033 L121.918 975.033 L121.918 969.153 Z" fill="#000000" fill-rule="nonzero" fill-opacity="1" /><path clip-path="url(#clip480)" d="M137.033 940.473 L155.39 940.473 L155.39 944.408 L141.316 944.408 L141.316 952.88 Q142.334 952.533 143.353 952.371 Q144.371 952.186 145.39 952.186 Q151.177 952.186 154.556 955.357 Q157.936 958.528 157.936 963.945 Q157.936 969.524 154.464 972.625 Q150.992 975.704 144.672 975.704 Q142.496 975.704 140.228 975.334 Q137.982 974.963 135.575 974.223 L135.575 969.524 Q137.658 970.658 139.881 971.213 Q142.103 971.769 144.58 971.769 Q148.584 971.769 150.922 969.662 Q153.26 967.556 153.26 963.945 Q153.26 960.334 150.922 958.227 Q148.584 956.121 144.58 956.121 Q142.705 956.121 140.83 956.538 Q138.978 956.954 137.033 957.834 L137.033 940.473 Z" fill="#000000" fill-rule="nonzero" fill-opacity="1" /><path clip-path="url(#clip480)" d="M100.76 729.603 Q97.1493 729.603 95.3206 733.167 Q93.515 736.709 93.515 743.839 Q93.515 750.945 95.3206 754.51 Q97.1493 758.052 100.76 758.052 Q104.395 758.052 106.2 754.51 Q108.029 750.945 108.029 743.839 Q108.029 736.709 106.2 733.167 Q104.395 729.603 100.76 729.603 M100.76 725.899 Q106.571 725.899 109.626 730.505 Q112.705 735.089 112.705 743.839 Q112.705 752.566 109.626 757.172 Q106.571 761.755 100.76 761.755 Q94.9502 761.755 91.8715 757.172 Q88.816 752.566 88.816 743.839 Q88.816 735.089 91.8715 730.505 Q94.9502 725.899 100.76 725.899 Z" fill="#000000" fill-rule="nonzero" fill-opacity="1" /><path clip-path="url(#clip480)" d="M120.922 755.204 L125.807 755.204 L125.807 761.084 L120.922 761.084 L120.922 755.204 Z" fill="#000000" fill-rule="nonzero" fill-opacity="1" /><path clip-path="url(#clip480)" d="M145.992 729.603 Q142.381 729.603 140.552 733.167 Q138.746 736.709 138.746 743.839 Q138.746 750.945 140.552 754.51 Q142.381 758.052 145.992 758.052 Q149.626 758.052 151.431 754.51 Q153.26 750.945 153.26 743.839 Q153.26 736.709 151.431 733.167 Q149.626 729.603 145.992 729.603 M145.992 725.899 Q151.802 725.899 154.857 730.505 Q157.936 735.089 157.936 743.839 Q157.936 752.566 154.857 757.172 Q151.802 761.755 145.992 761.755 Q140.181 761.755 137.103 757.172 Q134.047 752.566 134.047 743.839 Q134.047 735.089 137.103 730.505 Q140.181 725.899 145.992 725.899 Z" fill="#000000" fill-rule="nonzero" fill-opacity="1" /><path clip-path="url(#clip480)" d="M101.756 515.654 Q98.1447 515.654 96.316 519.219 Q94.5104 522.76 94.5104 529.89 Q94.5104 536.996 96.316 540.561 Q98.1447 544.103 101.756 544.103 Q105.39 544.103 107.196 540.561 Q109.024 536.996 109.024 529.89 Q109.024 522.76 107.196 519.219 Q105.39 515.654 101.756 515.654 M101.756 511.95 Q107.566 511.95 110.621 516.557 Q113.7 521.14 113.7 529.89 Q113.7 538.617 110.621 543.223 Q107.566 547.806 101.756 547.806 Q95.9456 547.806 92.8669 543.223 Q89.8114 538.617 89.8114 529.89 Q89.8114 521.14 92.8669 516.557 Q95.9456 511.95 101.756 511.95 Z" fill="#000000" fill-rule="nonzero" fill-opacity="1" /><path clip-path="url(#clip480)" d="M121.918 541.256 L126.802 541.256 L126.802 547.135 L121.918 547.135 L121.918 541.256 Z" fill="#000000" fill-rule="nonzero" fill-opacity="1" /><path clip-path="url(#clip480)" d="M137.033 512.575 L155.39 512.575 L155.39 516.51 L141.316 516.51 L141.316 524.983 Q142.334 524.635 143.353 524.473 Q144.371 524.288 145.39 524.288 Q151.177 524.288 154.556 527.459 Q157.936 530.631 157.936 536.047 Q157.936 541.626 154.464 544.728 Q150.992 547.806 144.672 547.806 Q142.496 547.806 140.228 547.436 Q137.982 547.066 135.575 546.325 L135.575 541.626 Q137.658 542.76 139.881 543.316 Q142.103 543.871 144.58 543.871 Q148.584 543.871 150.922 541.765 Q153.26 539.658 153.26 536.047 Q153.26 532.436 150.922 530.33 Q148.584 528.223 144.58 528.223 Q142.705 528.223 140.83 528.64 Q138.978 529.057 137.033 529.936 L137.033 512.575 Z" fill="#000000" fill-rule="nonzero" fill-opacity="1" /><path clip-path="url(#clip480)" d="M91.5706 329.251 L99.2095 329.251 L99.2095 302.886 L90.8993 304.552 L90.8993 300.293 L99.1632 298.626 L103.839 298.626 L103.839 329.251 L111.478 329.251 L111.478 333.186 L91.5706 333.186 L91.5706 329.251 Z" fill="#000000" fill-rule="nonzero" fill-opacity="1" /><path clip-path="url(#clip480)" d="M120.922 327.307 L125.807 327.307 L125.807 333.186 L120.922 333.186 L120.922 327.307 Z" fill="#000000" fill-rule="nonzero" fill-opacity="1" /><path clip-path="url(#clip480)" d="M145.992 301.705 Q142.381 301.705 140.552 305.27 Q138.746 308.812 138.746 315.941 Q138.746 323.048 140.552 326.612 Q142.381 330.154 145.992 330.154 Q149.626 330.154 151.431 326.612 Q153.26 323.048 153.26 315.941 Q153.26 308.812 151.431 305.27 Q149.626 301.705 145.992 301.705 M145.992 298.001 Q151.802 298.001 154.857 302.608 Q157.936 307.191 157.936 315.941 Q157.936 324.668 154.857 329.274 Q151.802 333.858 145.992 333.858 Q140.181 333.858 137.103 329.274 Q134.047 324.668 134.047 315.941 Q134.047 307.191 137.103 302.608 Q140.181 298.001 145.992 298.001 Z" fill="#000000" fill-rule="nonzero" fill-opacity="1" /><path clip-path="url(#clip480)" d="M92.566 115.302 L100.205 115.302 L100.205 88.9368 L91.8947 90.6035 L91.8947 86.3442 L100.159 84.6776 L104.834 84.6776 L104.834 115.302 L112.473 115.302 L112.473 119.238 L92.566 119.238 L92.566 115.302 Z" fill="#000000" fill-rule="nonzero" fill-opacity="1" /><path clip-path="url(#clip480)" d="M121.918 113.358 L126.802 113.358 L126.802 119.238 L121.918 119.238 L121.918 113.358 Z" fill="#000000" fill-rule="nonzero" fill-opacity="1" /><path clip-path="url(#clip480)" d="M137.033 84.6776 L155.39 84.6776 L155.39 88.6127 L141.316 88.6127 L141.316 97.0849 Q142.334 96.7377 143.353 96.5757 Q144.371 96.3905 145.39 96.3905 Q151.177 96.3905 154.556 99.5618 Q157.936 102.733 157.936 108.15 Q157.936 113.728 154.464 116.83 Q150.992 119.909 144.672 119.909 Q142.496 119.909 140.228 119.538 Q137.982 119.168 135.575 118.427 L135.575 113.728 Q137.658 114.863 139.881 115.418 Q142.103 115.974 144.58 115.974 Q148.584 115.974 150.922 113.867 Q153.26 111.761 153.26 108.15 Q153.26 104.539 150.922 102.432 Q148.584 100.326 144.58 100.326 Q142.705 100.326 140.83 100.742 Q138.978 101.159 137.033 102.039 L137.033 84.6776 Z" fill="#000000" fill-rule="nonzero" fill-opacity="1" /><polyline clip-path="url(#clip481)" style="stroke:#009af9; stroke-linecap:round; stroke-linejoin:round; stroke-width:4; stroke-opacity:1; fill:none" points="193.936,743.804 196.097,746.109 198.258,748.383 200.419,750.626 202.58,752.841 204.741,755.025 206.902,757.181 209.063,759.308 211.224,761.407 213.385,763.479 215.546,765.522 217.707,767.539 219.868,769.529 222.029,771.492 224.19,773.43 226.351,775.342 228.512,777.228 230.673,779.09 232.834,780.926 234.995,782.739 237.156,784.527 239.317,786.292 241.478,788.033 243.639,789.751 245.8,791.447 247.961,793.12 250.122,794.77 252.282,796.399 254.443,798.006 256.604,799.592 258.765,801.157 260.926,802.701 263.087,804.225 265.248,805.729 267.409,807.212 269.57,808.676 271.731,810.121 273.892,811.546 276.053,812.952 278.214,814.34 280.375,815.71 282.536,817.061 284.697,818.394 286.858,819.71 289.019,821.008 291.18,822.289 293.341,823.553 295.502,824.8 297.663,826.031 299.824,827.245 301.985,828.444 304.146,829.626 306.307,830.793 308.468,831.944 310.629,833.08 312.79,834.201 314.951,835.307 317.112,836.399 319.273,837.476 321.434,838.538 323.595,839.587 325.756,840.622 327.917,841.643 330.078,842.65 332.239,843.644 334.4,844.625 336.561,845.593 338.722,846.548 340.883,847.49 343.044,848.42 345.205,849.338 347.366,850.243 349.527,851.137 351.688,852.018 353.849,852.888 356.01,853.746 358.171,854.593 360.332,855.429 362.493,856.254 364.653,857.067 366.814,857.87 368.975,858.663 371.136,859.444 373.297,860.216 375.458,860.977 377.619,861.728 379.78,862.469 381.941,863.201 384.102,863.922 386.263,864.634 388.424,865.337 390.585,866.03 392.746,866.714 394.907,867.389 397.068,868.055 399.229,868.713 401.39,869.361 403.551,869.999 405.712,869.617 407.873,867.543 410.034,864.009 412.195,859.234 414.356,853.423 416.517,846.764 418.678,839.432 420.839,831.589 423,823.379 425.161,814.934 427.322,806.37 429.483,797.79 431.644,789.281 433.805,780.917 435.966,772.754 438.127,764.839 440.288,757.198 442.449,749.849 444.61,742.789 446.771,736.006 448.932,729.469 451.093,723.137 453.254,716.949 455.415,710.834 457.576,704.705 459.737,698.479 461.898,692.288 464.059,686.178 466.22,680.15 468.381,674.202 470.542,668.332 472.703,662.541 474.864,656.826 477.024,651.187 479.185,645.623 481.346,640.132 483.507,634.714 485.668,629.368 487.829,624.093 489.99,618.888 492.151,613.752 494.312,608.684 496.473,603.683 498.634,598.749 500.795,593.879 502.956,589.075 505.117,584.334 507.278,579.655 509.439,575.039 511.6,570.484 513.761,565.99 515.922,561.555 518.083,557.179 520.244,552.861 522.405,548.6 524.566,544.396 526.727,540.247 528.888,536.154 531.049,532.115 533.21,528.129 535.371,524.196 537.532,520.316 539.693,516.487 541.854,512.709 544.015,508.98 546.176,505.302 548.337,501.672 550.498,498.09 552.659,494.556 554.82,491.068 556.981,487.627 559.142,484.231 561.303,480.88 563.464,477.574 565.625,474.311 567.786,471.092 569.947,467.915 572.108,464.781 574.269,461.688 576.43,458.636 578.591,455.625 580.752,452.653 582.913,449.721 585.074,446.828 587.235,443.973 589.396,441.156 591.556,438.376 593.717,435.633 595.878,432.927 598.039,430.256 600.2,427.621 602.361,425.021 604.522,422.455 606.683,419.923 608.844,417.425 611.005,414.96 613.166,412.527 615.327,410.127 617.488,407.759 619.649,405.422 621.81,404.62 623.971,407.74 626.132,414.097 628.293,423.002 630.454,433.835 632.615,446.044 634.776,459.143 636.937,472.716 639.098,486.412 641.259,499.951 643.42,513.118 645.581,525.766 647.742,537.818 649.903,549.263 652.064,560.156 654.225,570.624 656.386,580.858 658.547,591.119 660.708,601.594 662.869,611.97 665.03,622.209 667.191,632.312 669.352,642.281 671.513,652.118 673.674,661.824 675.835,671.402 677.996,680.853 680.157,690.179 682.318,699.381 684.479,708.461 686.64,717.42 688.801,726.261 690.962,734.985 693.123,743.593 695.284,752.087 697.445,760.468 699.606,768.738 701.767,776.899 703.927,784.951 706.088,792.896 708.249,800.736 710.41,808.472 712.571,816.105 714.732,823.638 716.893,831.07 719.054,838.404 721.215,845.64 723.376,852.781 725.537,859.827 727.698,866.779 729.859,873.639 732.02,880.409 734.181,887.088 736.342,893.68 738.503,900.183 740.664,906.601 742.825,912.933 744.986,919.182 747.147,925.348 749.308,931.432 751.469,937.435 753.63,943.359 755.791,949.204 757.952,954.972 760.113,960.663 762.274,966.279 764.435,971.82 766.596,977.288 768.757,982.683 770.918,988.007 773.079,993.26 775.24,998.444 777.401,1003.56 779.562,1008.61 781.723,1013.59 783.884,1018.5 786.045,1023.35 788.206,1028.13 790.367,1032.85 792.528,1037.51 794.689,1042.11 796.85,1046.65 799.011,1051.12 801.172,1055.54 803.333,1059.9 805.494,1064.2 807.655,1068.44 809.816,1072.63 811.977,1076.76 814.138,1080.83 816.298,1084.86 818.459,1088.83 820.62,1092.74 822.781,1096.61 824.942,1100.42 827.103,1104.18 829.264,1107.9 831.425,1111.56 833.586,1115.18 835.747,1118.74 837.908,1122.26 840.069,1125.56 842.23,1126.6 844.391,1125.1 846.552,1121.5 848.713,1116.15 850.874,1109.41 853.035,1101.59 855.196,1092.99 857.357,1083.85 859.518,1074.41 861.679,1064.85 863.84,1055.34 866.001,1046.02 868.162,1036.98 870.323,1028.31 872.484,1020.03 874.645,1012.17 876.806,1004.7 878.967,997.567 881.128,990.7 883.289,983.985 885.45,977.279 887.611,970.415 889.772,963.514 891.933,956.704 894.094,949.984 896.255,943.353 898.416,936.81 900.577,930.354 902.738,923.984 904.899,917.698 907.06,911.495 909.221,905.375 911.382,899.335 913.543,893.376 915.704,887.496 917.865,881.693 920.026,875.968 922.187,870.318 924.348,864.743 926.509,859.242 928.669,853.814 930.83,848.458 932.991,843.174 935.152,837.959 937.313,832.813 939.474,827.736 941.635,822.726 943.796,817.782 945.957,812.904 948.118,808.091 950.279,803.341 952.44,798.655 954.601,794.031 956.762,789.468 958.923,784.966 961.084,780.523 963.245,776.139 965.406,771.813 967.567,767.545 969.728,763.333 971.889,759.178 974.05,755.077 976.211,751.03 978.372,747.037 980.533,743.097 982.694,739.21 984.855,735.373 987.016,731.588 989.177,727.853 991.338,724.167 993.499,720.53 995.66,716.942 997.821,713.4 999.982,709.906 1002.14,706.459 1004.3,703.056 1006.46,699.699 1008.63,696.387 1010.79,693.119 1012.95,689.893 1015.11,686.711 1017.27,683.571 1019.43,680.472 1021.59,677.415 1023.75,674.398 1025.91,671.421 1028.07,668.483 1030.24,665.585 1032.4,662.725 1034.56,659.902 1036.72,657.117 1038.88,654.37 1041.04,651.658 1043.2,648.983 1045.36,646.343 1047.52,643.738 1049.68,640.995 1051.85,636.905 1054.01,631.556 1056.17,625.297 1058.33,618.436 1060.49,611.229 1062.65,603.89 1064.81,596.584 1066.97,589.431 1069.13,582.503 1071.29,575.826 1073.46,569.38 1075.62,563.098 1077.78,556.867 1079.94,550.629 1082.1,544.471 1084.26,538.395 1086.42,532.4 1088.58,526.484 1090.74,520.647 1092.9,514.886 1095.07,509.203 1097.23,503.594 1099.39,498.06 1101.55,492.599 1103.71,487.211 1105.87,481.894 1108.03,476.647 1110.19,471.47 1112.35,466.362 1114.51,461.322 1116.67,456.348 1118.84,451.44 1121,446.598 1123.16,441.819 1125.32,437.104 1127.48,432.452 1129.64,427.861 1131.8,423.332 1133.96,418.862 1136.12,414.451 1138.28,410.099 1140.45,405.805 1142.61,401.568 1144.77,397.387 1146.93,393.261 1149.09,389.19 1151.25,385.173 1153.41,381.209 1155.57,377.297 1157.73,373.438 1159.89,369.629 1162.06,365.871 1164.22,362.163 1166.38,358.504 1168.54,354.894 1170.7,351.331 1172.86,347.816 1175.02,344.347 1177.18,340.924 1179.34,337.547 1181.5,334.214 1183.67,330.926 1185.83,327.681 1187.99,324.48 1190.15,321.32 1192.31,318.203 1194.47,315.127 1196.63,312.092 1198.79,309.097 1200.95,306.141 1203.11,303.225 1205.28,300.348 1207.44,297.508 1209.6,294.707 1211.76,291.942 1213.92,289.214 1216.08,286.522 1218.24,283.866 1220.4,281.246 1222.56,278.659 1224.72,276.108 1226.88,273.59 1229.05,271.105 1231.21,268.653 1233.37,266.234 1235.53,263.847 1237.69,261.492 1239.85,259.167 1242.01,256.874 1244.17,254.611 1246.33,252.378 1248.49,250.175 1250.66,248.001 1252.82,245.855 1254.98,243.738 1257.14,241.649 1259.3,239.588 1261.46,237.555 1263.62,235.548 1265.78,233.567 1267.94,231.613 1270.1,230.131 1272.27,230.04 1274.43,231.226 1276.59,233.54 1278.75,236.843 1280.91,241.003 1283.07,245.896 1285.23,251.403 1287.39,257.417 1289.55,263.835 1291.71,270.562 1293.88,277.512 1296.04,284.606 1298.2,291.771 1300.36,298.944 1302.52,306.067 1304.68,313.093 1306.84,319.978 1309,326.69 1311.16,333.201 1313.32,339.493 1315.49,345.555 1317.65,351.382 1319.81,356.978 1321.97,362.355 1324.13,367.532 1326.29,372.534 1328.45,377.396 1330.61,382.16 1332.77,386.873 1334.93,391.594 1337.09,396.385 1339.26,401.224 1341.42,405.999 1343.58,410.711 1345.74,415.361 1347.9,419.949 1350.06,424.476 1352.22,428.943 1354.38,433.351 1356.54,437.7 1358.7,441.992 1360.87,446.227 1363.03,450.406 1365.19,454.529 1367.35,458.598 1369.51,462.612 1371.67,466.574 1373.83,470.483 1375.99,474.34 1378.15,478.146 1380.31,481.902 1382.48,485.609 1384.64,489.266 1386.8,492.875 1388.96,496.436 1391.12,499.949 1393.28,503.417 1395.44,506.838 1397.6,510.214 1399.76,513.545 1401.92,516.832 1404.09,520.075 1406.25,523.275 1408.41,526.433 1410.57,529.549 1412.73,532.623 1414.89,535.656 1417.05,538.65 1419.21,541.603 1421.37,544.517 1423.53,547.393 1425.7,550.23 1427.86,553.03 1430.02,555.792 1432.18,558.518 1434.34,561.207 1436.5,563.861 1438.66,566.48 1440.82,569.063 1442.98,571.613 1445.14,574.129 1447.3,576.611 1449.47,579.061 1451.63,581.478 1453.79,583.863 1455.95,586.216 1458.11,588.538 1460.27,590.83 1462.43,593.091 1464.59,595.322 1466.75,597.524 1468.91,599.697 1471.08,601.841 1473.24,603.956 1475.4,606.044 1477.56,608.104 1479.72,610.136 1481.88,612.204 1484.04,614.855 1486.2,618.13 1488.36,621.929 1490.52,626.158 1492.69,630.73 1494.85,635.568 1497.01,640.597 1499.17,645.753 1501.33,650.979 1503.49,656.222 1505.65,661.439 1507.81,666.593 1509.97,671.654 1512.13,676.6 1514.3,681.414 1516.46,686.089 1518.62,690.622 1520.78,695.019 1522.94,699.293 1525.1,703.463 1527.26,707.557 1529.42,711.607 1531.58,715.656 1533.74,719.712 1535.91,723.717 1538.07,727.669 1540.23,731.568 1542.39,735.416 1544.55,739.213 1546.71,742.959 1548.87,746.655 1551.03,750.303 1553.19,753.902 1555.35,757.454 1557.51,760.958 1559.68,764.416 1561.84,767.829 1564,771.196 1566.16,774.518 1568.32,777.796 1570.48,781.031 1572.64,784.223 1574.8,787.373 1576.96,790.48 1579.12,793.547 1581.29,796.573 1583.45,799.559 1585.61,802.505 1587.77,805.412 1589.93,808.281 1592.09,811.112 1594.25,813.905 1596.41,816.661 1598.57,819.38 1600.73,822.064 1602.9,824.711 1605.06,827.324 1607.22,829.902 1609.38,832.446 1611.54,834.956 1613.7,837.433 1615.86,839.877 1618.02,842.289 1620.18,844.669 1622.34,847.017 1624.51,849.334 1626.67,851.62 1628.83,853.876 1630.99,856.103 1633.15,858.299 1635.31,860.467 1637.47,862.606 1639.63,864.716 1641.79,866.798 1643.95,868.853 1646.12,870.881 1648.28,872.881 1650.44,874.856 1652.6,876.803 1654.76,878.726 1656.92,880.622 1659.08,882.494 1661.24,884.34 1663.4,886.163 1665.56,887.961 1667.72,889.735 1669.89,891.485 1672.05,893.213 1674.21,894.917 1676.37,896.599 1678.53,898.259 1680.69,899.897 1682.85,901.513 1685.01,903.107 1687.17,904.681 1689.33,906.233 1691.5,907.765 1693.66,909.277 1695.82,910.768 1697.98,912.24 1700.14,913.693 1702.3,915.126 1704.46,916.536 1706.62,917.27 1708.78,916.937 1710.94,915.668 1713.11,913.589 1715.27,910.814 1717.43,907.455 1719.59,903.614 1721.75,899.384 1723.91,894.853 1726.07,890.102 1728.23,885.202 1730.39,880.221 1732.55,875.214 1734.72,870.234 1736.88,865.323 1739.04,860.518 1741.2,855.847 1743.36,851.331 1745.52,846.984 1747.68,842.814 1749.84,838.818 1752,834.99 1754.16,831.312 1756.33,827.764 1758.49,824.314 1760.65,820.926 1762.81,817.553 1764.97,814.145 1767.13,810.674 1769.29,807.235 1771.45,803.843 1773.61,800.495 1775.77,797.192 1777.93,793.933 1780.1,790.716 1782.26,787.543 1784.42,784.411 1786.58,781.321 1788.74,778.273 1790.9,775.264 1793.06,772.295 1795.22,769.366 1797.38,766.475 1799.54,763.623 1801.71,760.809 1803.87,758.032 1806.03,755.291 1808.19,752.587 1810.35,749.919 1812.51,747.286 1814.67,744.688 1816.83,742.125 1818.99,739.595 1821.15,737.099 1823.32,734.637 1825.48,732.207 1827.64,729.809 1829.8,727.443 1831.96,725.108 1834.12,722.804 1836.28,720.531 1838.44,718.288 1840.6,716.075 1842.76,713.891 1844.93,711.737 1847.09,709.61 1849.25,707.512 1851.41,705.442 1853.57,703.399 1855.73,701.383 1857.89,699.394 1860.05,697.431 1862.21,695.495 1864.37,693.584 1866.54,691.698 1868.7,689.837 1870.86,688.001 1873.02,686.187 1875.18,684.388 1877.34,682.606 1879.5,680.844 1881.66,679.104 1883.82,677.389 1885.98,675.7 1888.15,674.039 1890.31,672.407 1892.47,670.806 1894.63,669.235 1896.79,667.695 1898.95,666.188 1901.11,664.712 1903.27,663.267 1905.43,661.853 1907.59,660.47 1909.75,659.116 1911.92,657.789 1914.08,656.489 1916.24,655.214 1918.4,653.961 1920.56,652.728 1922.72,651.513 1924.88,650.312 1927.04,649.123 1929.2,647.945 1931.36,646.783 1933.53,645.637 1935.69,644.506 1937.85,643.389 1940.01,642.288 1942.17,641.201 1944.33,640.128 1946.49,639.07 1948.65,638.026 1950.81,636.995 1952.97,635.979 1955.14,634.975 1957.3,633.985 1959.46,633.008 1961.62,632.045 1963.78,631.094 1965.94,630.155 1968.1,629.229 1970.26,628.315 1972.42,627.414 1974.58,626.524 1976.75,625.646 1978.91,624.78 1981.07,623.925 1983.23,623.081 1985.39,622.249 1987.55,621.427 1989.71,620.617 1991.87,619.817 1994.03,619.028 1996.19,618.249 1998.36,617.481 2000.52,616.723 2002.68,615.974 2004.84,615.236 2007,614.508 2009.16,613.789 2011.32,613.08 2013.48,612.38 2015.64,611.689 2017.8,611.008 2019.96,610.336 2022.13,609.673 2024.29,609.018 2026.45,608.372 2028.61,607.735 2030.77,607.106 2032.93,606.486 2035.09,605.874 2037.25,605.27 2039.41,604.674 2041.57,604.086 2043.74,603.505 2045.9,602.933 2048.06,602.368 2050.22,601.81 2052.38,601.26 2054.54,600.717 2056.7,600.182 2058.86,599.653 2061.02,599.132 2063.18,598.617 2065.35,598.109 2067.51,597.608 2069.67,597.114 2071.83,596.626 2073.99,596.144 2076.15,595.669 2078.31,595.2 2080.47,594.738 2082.63,594.281 2084.79,593.831 2086.96,593.386 2089.12,592.948 2091.28,592.515 2093.44,592.088 2095.6,591.667 2097.76,591.251 2099.92,590.841 2102.08,590.436 2104.24,590.036 2106.4,589.642 2108.57,589.253 2110.73,588.869 2112.89,588.491 2115.05,588.117 2117.21,587.748 2119.37,587.385 2121.53,587.026 2123.69,586.671 2125.85,586.322 2128.01,585.977 2130.17,585.636 2132.34,585.353 2134.5,585.563 2136.66,586.311 2138.82,587.534 2140.98,589.169 2143.14,591.161 2145.3,593.454 2147.46,595.998 2149.62,598.746 2151.78,601.655 2153.95,604.683 2156.11,607.794 2158.27,610.955 2160.43,614.134 2162.59,617.306 2164.75,620.448 2166.91,623.538 2169.07,626.562 2171.23,629.504 2173.39,632.357 2175.56,635.114 2177.72,637.771 2179.88,640.33 2182.04,642.795 2184.2,645.172 2186.36,647.472 2188.52,649.71 2190.68,651.904 2192.84,654.074 2195,656.245 2197.17,658.444 2199.33,660.651 2201.49,662.828 2203.65,664.977 2205.81,667.097 2207.97,669.189 2210.13,671.253 2212.29,673.289 2214.45,675.299 2216.61,677.282 2218.78,679.239 2220.94,681.17 2223.1,683.075 2225.26,684.955 2227.42,686.811 2229.58,688.641 2231.74,690.447 2233.9,692.23 2236.06,693.988 2238.22,695.724 2240.38,697.436 2242.55,699.126 2244.71,700.794 2246.87,702.439 2249.03,704.063 2251.19,705.665 2253.35,707.245 2255.51,708.805 2257.67,710.344 2259.83,711.863 2261.99,713.361 2264.16,714.84 2266.32,716.299 2268.48,717.738 2270.64,719.159 2272.8,720.56 2274.96,721.943 2277.12,723.308 2279.28,724.655 2281.44,725.983 2283.6,727.294 2285.77,728.588 2287.93,729.864 2290.09,731.124 2292.25,732.367 2294.41,733.593 2296.57,734.803 2298.73,735.997 2300.89,737.176 2303.05,738.338 2305.21,739.486 2307.38,740.618 2309.54,741.735 2311.7,742.837 2313.86,743.925 2316.02,744.998 2318.18,746.057 2320.34,747.102 2322.5,748.133 2324.66,749.151 2326.82,750.155 2328.99,751.145 2331.15,752.123 2333.31,753.087 2335.47,754.039 2337.63,754.978 2339.79,755.905 2341.95,756.82 2344.11,757.722 2346.27,758.612 2348.43,759.491 2350.59,760.358 2352.76,761.213 "/>
<polyline clip-path="url(#clip481)" style="stroke:#e26f46; stroke-linecap:round; stroke-linejoin:round; stroke-width:4; stroke-opacity:1; fill:none" points="193.936,917.629 196.097,917.629 198.258,917.629 200.419,917.629 202.58,917.629 204.741,917.629 206.902,917.629 209.063,917.629 211.224,917.629 213.385,917.629 215.546,917.629 217.707,917.629 219.868,917.629 222.029,917.629 224.19,917.629 226.351,917.629 228.512,917.629 230.673,917.629 232.834,917.629 234.995,917.629 237.156,917.629 239.317,917.629 241.478,917.629 243.639,917.629 245.8,917.629 247.961,917.629 250.122,917.629 252.282,917.629 254.443,917.629 256.604,917.629 258.765,917.629 260.926,917.629 263.087,917.629 265.248,917.629 267.409,917.629 269.57,917.629 271.731,917.629 273.892,917.629 276.053,917.629 278.214,917.629 280.375,917.629 282.536,917.629 284.697,917.629 286.858,917.629 289.019,917.629 291.18,917.629 293.341,917.629 295.502,917.629 297.663,917.629 299.824,917.629 301.985,917.629 304.146,917.629 306.307,917.629 308.468,917.629 310.629,917.629 312.79,917.629 314.951,917.629 317.112,917.629 319.273,917.629 321.434,917.629 323.595,917.629 325.756,917.629 327.917,917.629 330.078,917.629 332.239,917.629 334.4,917.629 336.561,917.629 338.722,917.629 340.883,917.629 343.044,917.629 345.205,917.629 347.366,917.629 349.527,917.629 351.688,917.629 353.849,917.629 356.01,917.629 358.171,917.629 360.332,917.629 362.493,917.629 364.653,917.629 366.814,917.629 368.975,917.629 371.136,917.629 373.297,917.629 375.458,917.629 377.619,917.629 379.78,917.629 381.941,917.629 384.102,917.629 386.263,917.629 388.424,917.629 390.585,917.629 392.746,917.629 394.907,917.629 397.068,917.629 399.229,917.629 401.39,917.629 403.551,917.629 405.712,917.629 407.873,917.629 410.034,231.493 412.195,231.493 414.356,231.493 416.517,231.493 418.678,231.493 420.839,231.493 423,231.493 425.161,231.493 427.322,231.493 429.483,231.493 431.644,231.493 433.805,231.493 435.966,231.493 438.127,231.493 440.288,231.493 442.449,231.493 444.61,231.493 446.771,231.493 448.932,231.493 451.093,231.493 453.254,231.493 455.415,231.493 457.576,231.493 459.737,231.493 461.898,231.493 464.059,231.493 466.22,231.493 468.381,231.493 470.542,231.493 472.703,231.493 474.864,231.493 477.024,231.493 479.185,231.493 481.346,231.493 483.507,231.493 485.668,231.493 487.829,231.493 489.99,231.493 492.151,231.493 494.312,231.493 496.473,231.493 498.634,231.493 500.795,231.493 502.956,231.493 505.117,231.493 507.278,231.493 509.439,231.493 511.6,231.493 513.761,231.493 515.922,231.493 518.083,231.493 520.244,231.493 522.405,231.493 524.566,231.493 526.727,231.493 528.888,231.493 531.049,231.493 533.21,231.493 535.371,231.493 537.532,231.493 539.693,231.493 541.854,231.493 544.015,231.493 546.176,231.493 548.337,231.493 550.498,231.493 552.659,231.493 554.82,231.493 556.981,231.493 559.142,231.493 561.303,231.493 563.464,231.493 565.625,231.493 567.786,231.493 569.947,231.493 572.108,231.493 574.269,231.493 576.43,231.493 578.591,231.493 580.752,231.493 582.913,231.493 585.074,231.493 587.235,231.493 589.396,231.493 591.556,231.493 593.717,231.493 595.878,231.493 598.039,231.493 600.2,231.493 602.361,231.493 604.522,231.493 606.683,231.493 608.844,231.493 611.005,231.493 613.166,231.493 615.327,231.493 617.488,231.493 619.649,231.493 621.81,231.493 623.971,231.493 626.132,1384.24 628.293,1384.24 630.454,1384.24 632.615,1384.24 634.776,1384.24 636.937,1384.24 639.098,1384.24 641.259,1384.24 643.42,1384.24 645.581,1384.24 647.742,1384.24 649.903,1384.24 652.064,1384.24 654.225,1384.24 656.386,1384.24 658.547,1384.24 660.708,1384.24 662.869,1384.24 665.03,1384.24 667.191,1384.24 669.352,1384.24 671.513,1384.24 673.674,1384.24 675.835,1384.24 677.996,1384.24 680.157,1384.24 682.318,1384.24 684.479,1384.24 686.64,1384.24 688.801,1384.24 690.962,1384.24 693.123,1384.24 695.284,1384.24 697.445,1384.24 699.606,1384.24 701.767,1384.24 703.927,1384.24 706.088,1384.24 708.249,1384.24 710.41,1384.24 712.571,1384.24 714.732,1384.24 716.893,1384.24 719.054,1384.24 721.215,1384.24 723.376,1384.24 725.537,1384.24 727.698,1384.24 729.859,1384.24 732.02,1384.24 734.181,1384.24 736.342,1384.24 738.503,1384.24 740.664,1384.24 742.825,1384.24 744.986,1384.24 747.147,1384.24 749.308,1384.24 751.469,1384.24 753.63,1384.24 755.791,1384.24 757.952,1384.24 760.113,1384.24 762.274,1384.24 764.435,1384.24 766.596,1384.24 768.757,1384.24 770.918,1384.24 773.079,1384.24 775.24,1384.24 777.401,1384.24 779.562,1384.24 781.723,1384.24 783.884,1384.24 786.045,1384.24 788.206,1384.24 790.367,1384.24 792.528,1384.24 794.689,1384.24 796.85,1384.24 799.011,1384.24 801.172,1384.24 803.333,1384.24 805.494,1384.24 807.655,1384.24 809.816,1384.24 811.977,1384.24 814.138,1384.24 816.298,1384.24 818.459,1384.24 820.62,1384.24 822.781,1384.24 824.942,1384.24 827.103,1384.24 829.264,1384.24 831.425,1384.24 833.586,1384.24 835.747,1384.24 837.908,1384.24 840.069,1384.24 842.23,449.855 844.391,449.855 846.552,449.855 848.713,449.855 850.874,449.855 853.035,449.855 855.196,449.855 857.357,449.855 859.518,449.855 861.679,449.855 863.84,449.855 866.001,449.855 868.162,449.855 870.323,449.855 872.484,449.855 874.645,449.855 876.806,449.855 878.967,449.855 881.128,449.855 883.289,449.855 885.45,449.855 887.611,449.855 889.772,449.855 891.933,449.855 894.094,449.855 896.255,449.855 898.416,449.855 900.577,449.855 902.738,449.855 904.899,449.855 907.06,449.855 909.221,449.855 911.382,449.855 913.543,449.855 915.704,449.855 917.865,449.855 920.026,449.855 922.187,449.855 924.348,449.855 926.509,449.855 928.669,449.855 930.83,449.855 932.991,449.855 935.152,449.855 937.313,449.855 939.474,449.855 941.635,449.855 943.796,449.855 945.957,449.855 948.118,449.855 950.279,449.855 952.44,449.855 954.601,449.855 956.762,449.855 958.923,449.855 961.084,449.855 963.245,449.855 965.406,449.855 967.567,449.855 969.728,449.855 971.889,449.855 974.05,449.855 976.211,449.855 978.372,449.855 980.533,449.855 982.694,449.855 984.855,449.855 987.016,449.855 989.177,449.855 991.338,449.855 993.499,449.855 995.66,449.855 997.821,449.855 999.982,449.855 1002.14,449.855 1004.3,449.855 1006.46,449.855 1008.63,449.855 1010.79,449.855 1012.95,449.855 1015.11,449.855 1017.27,449.855 1019.43,449.855 1021.59,449.855 1023.75,449.855 1025.91,449.855 1028.07,449.855 1030.24,449.855 1032.4,449.855 1034.56,449.855 1036.72,449.855 1038.88,449.855 1041.04,449.855 1043.2,449.855 1045.36,449.855 1047.52,449.855 1049.68,449.855 1051.85,449.855 1054.01,449.855 1056.17,449.855 1058.33,86.1857 1060.49,86.1857 1062.65,86.1857 1064.81,86.1857 1066.97,86.1857 1069.13,86.1857 1071.29,86.1857 1073.46,86.1857 1075.62,86.1857 1077.78,86.1857 1079.94,86.1857 1082.1,86.1857 1084.26,86.1857 1086.42,86.1857 1088.58,86.1857 1090.74,86.1857 1092.9,86.1857 1095.07,86.1857 1097.23,86.1857 1099.39,86.1857 1101.55,86.1857 1103.71,86.1857 1105.87,86.1857 1108.03,86.1857 1110.19,86.1857 1112.35,86.1857 1114.51,86.1857 1116.67,86.1857 1118.84,86.1857 1121,86.1857 1123.16,86.1857 1125.32,86.1857 1127.48,86.1857 1129.64,86.1857 1131.8,86.1857 1133.96,86.1857 1136.12,86.1857 1138.28,86.1857 1140.45,86.1857 1142.61,86.1857 1144.77,86.1857 1146.93,86.1857 1149.09,86.1857 1151.25,86.1857 1153.41,86.1857 1155.57,86.1857 1157.73,86.1857 1159.89,86.1857 1162.06,86.1857 1164.22,86.1857 1166.38,86.1857 1168.54,86.1857 1170.7,86.1857 1172.86,86.1857 1175.02,86.1857 1177.18,86.1857 1179.34,86.1857 1181.5,86.1857 1183.67,86.1857 1185.83,86.1857 1187.99,86.1857 1190.15,86.1857 1192.31,86.1857 1194.47,86.1857 1196.63,86.1857 1198.79,86.1857 1200.95,86.1857 1203.11,86.1857 1205.28,86.1857 1207.44,86.1857 1209.6,86.1857 1211.76,86.1857 1213.92,86.1857 1216.08,86.1857 1218.24,86.1857 1220.4,86.1857 1222.56,86.1857 1224.72,86.1857 1226.88,86.1857 1229.05,86.1857 1231.21,86.1857 1233.37,86.1857 1235.53,86.1857 1237.69,86.1857 1239.85,86.1857 1242.01,86.1857 1244.17,86.1857 1246.33,86.1857 1248.49,86.1857 1250.66,86.1857 1252.82,86.1857 1254.98,86.1857 1257.14,86.1857 1259.3,86.1857 1261.46,86.1857 1263.62,86.1857 1265.78,86.1857 1267.94,86.1857 1270.1,86.1857 1272.27,86.1857 1274.43,761.413 1276.59,761.413 1278.75,761.413 1280.91,761.413 1283.07,761.413 1285.23,761.413 1287.39,761.413 1289.55,761.413 1291.71,761.413 1293.88,761.413 1296.04,761.413 1298.2,761.413 1300.36,761.413 1302.52,761.413 1304.68,761.413 1306.84,761.413 1309,761.413 1311.16,761.413 1313.32,761.413 1315.49,761.413 1317.65,761.413 1319.81,761.413 1321.97,761.413 1324.13,761.413 1326.29,761.413 1328.45,761.413 1330.61,761.413 1332.77,761.413 1334.93,761.413 1337.09,761.413 1339.26,761.413 1341.42,761.413 1343.58,761.413 1345.74,761.413 1347.9,761.413 1350.06,761.413 1352.22,761.413 1354.38,761.413 1356.54,761.413 1358.7,761.413 1360.87,761.413 1363.03,761.413 1365.19,761.413 1367.35,761.413 1369.51,761.413 1371.67,761.413 1373.83,761.413 1375.99,761.413 1378.15,761.413 1380.31,761.413 1382.48,761.413 1384.64,761.413 1386.8,761.413 1388.96,761.413 1391.12,761.413 1393.28,761.413 1395.44,761.413 1397.6,761.413 1399.76,761.413 1401.92,761.413 1404.09,761.413 1406.25,761.413 1408.41,761.413 1410.57,761.413 1412.73,761.413 1414.89,761.413 1417.05,761.413 1419.21,761.413 1421.37,761.413 1423.53,761.413 1425.7,761.413 1427.86,761.413 1430.02,761.413 1432.18,761.413 1434.34,761.413 1436.5,761.413 1438.66,761.413 1440.82,761.413 1442.98,761.413 1445.14,761.413 1447.3,761.413 1449.47,761.413 1451.63,761.413 1453.79,761.413 1455.95,761.413 1458.11,761.413 1460.27,761.413 1462.43,761.413 1464.59,761.413 1466.75,761.413 1468.91,761.413 1471.08,761.413 1473.24,761.413 1475.4,761.413 1477.56,761.413 1479.72,761.413 1481.88,761.413 1484.04,761.413 1486.2,761.413 1488.36,761.413 1490.52,1021.78 1492.69,1021.78 1494.85,1021.78 1497.01,1021.78 1499.17,1021.78 1501.33,1021.78 1503.49,1021.78 1505.65,1021.78 1507.81,1021.78 1509.97,1021.78 1512.13,1021.78 1514.3,1021.78 1516.46,1021.78 1518.62,1021.78 1520.78,1021.78 1522.94,1021.78 1525.1,1021.78 1527.26,1021.78 1529.42,1021.78 1531.58,1021.78 1533.74,1021.78 1535.91,1021.78 1538.07,1021.78 1540.23,1021.78 1542.39,1021.78 1544.55,1021.78 1546.71,1021.78 1548.87,1021.78 1551.03,1021.78 1553.19,1021.78 1555.35,1021.78 1557.51,1021.78 1559.68,1021.78 1561.84,1021.78 1564,1021.78 1566.16,1021.78 1568.32,1021.78 1570.48,1021.78 1572.64,1021.78 1574.8,1021.78 1576.96,1021.78 1579.12,1021.78 1581.29,1021.78 1583.45,1021.78 1585.61,1021.78 1587.77,1021.78 1589.93,1021.78 1592.09,1021.78 1594.25,1021.78 1596.41,1021.78 1598.57,1021.78 1600.73,1021.78 1602.9,1021.78 1605.06,1021.78 1607.22,1021.78 1609.38,1021.78 1611.54,1021.78 1613.7,1021.78 1615.86,1021.78 1618.02,1021.78 1620.18,1021.78 1622.34,1021.78 1624.51,1021.78 1626.67,1021.78 1628.83,1021.78 1630.99,1021.78 1633.15,1021.78 1635.31,1021.78 1637.47,1021.78 1639.63,1021.78 1641.79,1021.78 1643.95,1021.78 1646.12,1021.78 1648.28,1021.78 1650.44,1021.78 1652.6,1021.78 1654.76,1021.78 1656.92,1021.78 1659.08,1021.78 1661.24,1021.78 1663.4,1021.78 1665.56,1021.78 1667.72,1021.78 1669.89,1021.78 1672.05,1021.78 1674.21,1021.78 1676.37,1021.78 1678.53,1021.78 1680.69,1021.78 1682.85,1021.78 1685.01,1021.78 1687.17,1021.78 1689.33,1021.78 1691.5,1021.78 1693.66,1021.78 1695.82,1021.78 1697.98,1021.78 1700.14,1021.78 1702.3,1021.78 1704.46,1021.78 1706.62,551.348 1708.78,551.348 1710.94,551.348 1713.11,551.348 1715.27,551.348 1717.43,551.348 1719.59,551.348 1721.75,551.348 1723.91,551.348 1726.07,551.348 1728.23,551.348 1730.39,551.348 1732.55,551.348 1734.72,551.348 1736.88,551.348 1739.04,551.348 1741.2,551.348 1743.36,551.348 1745.52,551.348 1747.68,551.348 1749.84,551.348 1752,551.348 1754.16,551.348 1756.33,551.348 1758.49,551.348 1760.65,551.348 1762.81,551.348 1764.97,551.348 1767.13,551.348 1769.29,551.348 1771.45,551.348 1773.61,551.348 1775.77,551.348 1777.93,551.348 1780.1,551.348 1782.26,551.348 1784.42,551.348 1786.58,551.348 1788.74,551.348 1790.9,551.348 1793.06,551.348 1795.22,551.348 1797.38,551.348 1799.54,551.348 1801.71,551.348 1803.87,551.348 1806.03,551.348 1808.19,551.348 1810.35,551.348 1812.51,551.348 1814.67,551.348 1816.83,551.348 1818.99,551.348 1821.15,551.348 1823.32,551.348 1825.48,551.348 1827.64,551.348 1829.8,551.348 1831.96,551.348 1834.12,551.348 1836.28,551.348 1838.44,551.348 1840.6,551.348 1842.76,551.348 1844.93,551.348 1847.09,551.348 1849.25,551.348 1851.41,551.348 1853.57,551.348 1855.73,551.348 1857.89,551.348 1860.05,551.348 1862.21,551.348 1864.37,551.348 1866.54,551.348 1868.7,551.348 1870.86,551.348 1873.02,551.348 1875.18,551.348 1877.34,551.348 1879.5,551.348 1881.66,551.348 1883.82,551.348 1885.98,551.348 1888.15,551.348 1890.31,551.348 1892.47,551.348 1894.63,551.348 1896.79,551.348 1898.95,551.348 1901.11,551.348 1903.27,551.348 1905.43,551.348 1907.59,551.348 1909.75,551.348 1911.92,551.348 1914.08,551.348 1916.24,551.348 1918.4,551.348 1920.56,551.348 1922.72,560.306 1924.88,560.306 1927.04,560.306 1929.2,560.306 1931.36,560.306 1933.53,560.306 1935.69,560.306 1937.85,560.306 1940.01,560.306 1942.17,560.306 1944.33,560.306 1946.49,560.306 1948.65,560.306 1950.81,560.306 1952.97,560.306 1955.14,560.306 1957.3,560.306 1959.46,560.306 1961.62,560.306 1963.78,560.306 1965.94,560.306 1968.1,560.306 1970.26,560.306 1972.42,560.306 1974.58,560.306 1976.75,560.306 1978.91,560.306 1981.07,560.306 1983.23,560.306 1985.39,560.306 1987.55,560.306 1989.71,560.306 1991.87,560.306 1994.03,560.306 1996.19,560.306 1998.36,560.306 2000.52,560.306 2002.68,560.306 2004.84,560.306 2007,560.306 2009.16,560.306 2011.32,560.306 2013.48,560.306 2015.64,560.306 2017.8,560.306 2019.96,560.306 2022.13,560.306 2024.29,560.306 2026.45,560.306 2028.61,560.306 2030.77,560.306 2032.93,560.306 2035.09,560.306 2037.25,560.306 2039.41,560.306 2041.57,560.306 2043.74,560.306 2045.9,560.306 2048.06,560.306 2050.22,560.306 2052.38,560.306 2054.54,560.306 2056.7,560.306 2058.86,560.306 2061.02,560.306 2063.18,560.306 2065.35,560.306 2067.51,560.306 2069.67,560.306 2071.83,560.306 2073.99,560.306 2076.15,560.306 2078.31,560.306 2080.47,560.306 2082.63,560.306 2084.79,560.306 2086.96,560.306 2089.12,560.306 2091.28,560.306 2093.44,560.306 2095.6,560.306 2097.76,560.306 2099.92,560.306 2102.08,560.306 2104.24,560.306 2106.4,560.306 2108.57,560.306 2110.73,560.306 2112.89,560.306 2115.05,560.306 2117.21,560.306 2119.37,560.306 2121.53,560.306 2123.69,560.306 2125.85,560.306 2128.01,560.306 2130.17,560.306 2132.34,560.306 2134.5,560.306 2136.66,560.306 2138.82,824.879 2140.98,824.879 2143.14,824.879 2145.3,824.879 2147.46,824.879 2149.62,824.879 2151.78,824.879 2153.95,824.879 2156.11,824.879 2158.27,824.879 2160.43,824.879 2162.59,824.879 2164.75,824.879 2166.91,824.879 2169.07,824.879 2171.23,824.879 2173.39,824.879 2175.56,824.879 2177.72,824.879 2179.88,824.879 2182.04,824.879 2184.2,824.879 2186.36,824.879 2188.52,824.879 2190.68,824.879 2192.84,824.879 2195,824.879 2197.17,824.879 2199.33,824.879 2201.49,824.879 2203.65,824.879 2205.81,824.879 2207.97,824.879 2210.13,824.879 2212.29,824.879 2214.45,824.879 2216.61,824.879 2218.78,824.879 2220.94,824.879 2223.1,824.879 2225.26,824.879 2227.42,824.879 2229.58,824.879 2231.74,824.879 2233.9,824.879 2236.06,824.879 2238.22,824.879 2240.38,824.879 2242.55,824.879 2244.71,824.879 2246.87,824.879 2249.03,824.879 2251.19,824.879 2253.35,824.879 2255.51,824.879 2257.67,824.879 2259.83,824.879 2261.99,824.879 2264.16,824.879 2266.32,824.879 2268.48,824.879 2270.64,824.879 2272.8,824.879 2274.96,824.879 2277.12,824.879 2279.28,824.879 2281.44,824.879 2283.6,824.879 2285.77,824.879 2287.93,824.879 2290.09,824.879 2292.25,824.879 2294.41,824.879 2296.57,824.879 2298.73,824.879 2300.89,824.879 2303.05,824.879 2305.21,824.879 2307.38,824.879 2309.54,824.879 2311.7,824.879 2313.86,824.879 2316.02,824.879 2318.18,824.879 2320.34,824.879 2322.5,824.879 2324.66,824.879 2326.82,824.879 2328.99,824.879 2331.15,824.879 2333.31,824.879 2335.47,824.879 2337.63,824.879 2339.79,824.879 2341.95,824.879 2344.11,824.879 2346.27,824.879 2348.43,824.879 2350.59,824.879 2352.76,824.879 "/>
<path clip-path="url(#clip480)" d="M2039.77 248.629 L2280.8 248.629 L2280.8 93.1086 L2039.77 93.1086  Z" fill="#ffffff" fill-rule="evenodd" fill-opacity="1"/>
<polyline clip-path="url(#clip480)" style="stroke:#000000; stroke-linecap:round; stroke-linejoin:round; stroke-width:4; stroke-opacity:1; fill:none" points="2039.77,248.629 2280.8,248.629 2280.8,93.1086 2039.77,93.1086 2039.77,248.629 "/>
<polyline clip-path="url(#clip480)" style="stroke:#009af9; stroke-linecap:round; stroke-linejoin:round; stroke-width:4; stroke-opacity:1; fill:none" points="2063.76,144.949 2207.68,144.949 "/>
<path clip-path="url(#clip480)" d="M2256.32 136.303 L2246.95 148.919 L2256.81 162.229 L2251.79 162.229 L2244.24 152.043 L2236.69 162.229 L2231.67 162.229 L2241.74 148.664 L2232.53 136.303 L2237.55 136.303 L2244.42 145.539 L2251.3 136.303 L2256.32 136.303 Z" fill="#000000" fill-rule="nonzero" fill-opacity="1" /><polyline clip-path="url(#clip480)" style="stroke:#e26f46; stroke-linecap:round; stroke-linejoin:round; stroke-width:4; stroke-opacity:1; fill:none" points="2063.76,196.789 2207.68,196.789 "/>
<path clip-path="url(#clip480)" d="M2248.17 178.05 L2248.17 181.592 L2244.1 181.592 Q2241.81 181.592 2240.91 182.518 Q2240.03 183.444 2240.03 185.851 L2240.03 188.143 L2247.04 188.143 L2247.04 191.453 L2240.03 191.453 L2240.03 214.069 L2235.74 214.069 L2235.74 191.453 L2231.67 191.453 L2231.67 188.143 L2235.74 188.143 L2235.74 186.337 Q2235.74 182.009 2237.76 180.041 Q2239.77 178.05 2244.15 178.05 L2248.17 178.05 Z" fill="#000000" fill-rule="nonzero" fill-opacity="1" /></svg>
