<?xml version="1.0" encoding="utf-8"?>
<svg xmlns="http://www.w3.org/2000/svg" xmlns:xlink="http://www.w3.org/1999/xlink" width="600" height="400" viewBox="0 0 2400 1600">
<defs>
  <clipPath id="clip810">
    <rect x="0" y="0" width="2400" height="1600"/>
  </clipPath>
</defs>
<path clip-path="url(#clip810)" d="M0 1600 L2400 1600 L2400 0 L0 0  Z" fill="#ffffff" fill-rule="evenodd" fill-opacity="1"/>
<defs>
  <clipPath id="clip811">
    <rect x="480" y="0" width="1681" height="1600"/>
  </clipPath>
</defs>
<path clip-path="url(#clip810)" d="M192.941 1423.18 L2352.76 1423.18 L2352.76 47.2441 L192.941 47.2441  Z" fill="#ffffff" fill-rule="evenodd" fill-opacity="1"/>
<defs>
  <clipPath id="clip812">
    <rect x="192" y="47" width="2161" height="1377"/>
  </clipPath>
</defs>
<polyline clip-path="url(#clip812)" style="stroke:#000000; stroke-linecap:round; stroke-linejoin:round; stroke-width:2; stroke-opacity:0.1; fill:none" points="192.941,1423.18 192.941,47.2441 "/>
<polyline clip-path="url(#clip812)" style="stroke:#000000; stroke-linecap:round; stroke-linejoin:round; stroke-width:2; stroke-opacity:0.1; fill:none" points="624.904,1423.18 624.904,47.2441 "/>
<polyline clip-path="url(#clip812)" style="stroke:#000000; stroke-linecap:round; stroke-linejoin:round; stroke-width:2; stroke-opacity:0.1; fill:none" points="1056.87,1423.18 1056.87,47.2441 "/>
<polyline clip-path="url(#clip812)" style="stroke:#000000; stroke-linecap:round; stroke-linejoin:round; stroke-width:2; stroke-opacity:0.1; fill:none" points="1488.83,1423.18 1488.83,47.2441 "/>
<polyline clip-path="url(#clip812)" style="stroke:#000000; stroke-linecap:round; stroke-linejoin:round; stroke-width:2; stroke-opacity:0.1; fill:none" points="1920.79,1423.18 1920.79,47.2441 "/>
<polyline clip-path="url(#clip812)" style="stroke:#000000; stroke-linecap:round; stroke-linejoin:round; stroke-width:2; stroke-opacity:0.1; fill:none" points="2352.76,1423.18 2352.76,47.2441 "/>
<polyline clip-path="url(#clip812)" style="stroke:#000000; stroke-linecap:round; stroke-linejoin:round; stroke-width:2; stroke-opacity:0.1; fill:none" points="192.941,1262.19 2352.76,1262.19 "/>
<polyline clip-path="url(#clip812)" style="stroke:#000000; stroke-linecap:round; stroke-linejoin:round; stroke-width:2; stroke-opacity:0.1; fill:none" points="192.941,1031.74 2352.76,1031.74 "/>
<polyline clip-path="url(#clip812)" style="stroke:#000000; stroke-linecap:round; stroke-linejoin:round; stroke-width:2; stroke-opacity:0.1; fill:none" points="192.941,801.296 2352.76,801.296 "/>
<polyline clip-path="url(#clip812)" style="stroke:#000000; stroke-linecap:round; stroke-linejoin:round; stroke-width:2; stroke-opacity:0.1; fill:none" points="192.941,570.85 2352.76,570.85 "/>
<polyline clip-path="url(#clip812)" style="stroke:#000000; stroke-linecap:round; stroke-linejoin:round; stroke-width:2; stroke-opacity:0.1; fill:none" points="192.941,340.404 2352.76,340.404 "/>
<polyline clip-path="url(#clip812)" style="stroke:#000000; stroke-linecap:round; stroke-linejoin:round; stroke-width:2; stroke-opacity:0.1; fill:none" points="192.941,109.958 2352.76,109.958 "/>
<polyline clip-path="url(#clip810)" style="stroke:#000000; stroke-linecap:round; stroke-linejoin:round; stroke-width:4; stroke-opacity:1; fill:none" points="192.941,1423.18 2352.76,1423.18 "/>
<polyline clip-path="url(#clip810)" style="stroke:#000000; stroke-linecap:round; stroke-linejoin:round; stroke-width:4; stroke-opacity:1; fill:none" points="192.941,1423.18 192.941,1404.28 "/>
<polyline clip-path="url(#clip810)" style="stroke:#000000; stroke-linecap:round; stroke-linejoin:round; stroke-width:4; stroke-opacity:1; fill:none" points="624.904,1423.18 624.904,1404.28 "/>
<polyline clip-path="url(#clip810)" style="stroke:#000000; stroke-linecap:round; stroke-linejoin:round; stroke-width:4; stroke-opacity:1; fill:none" points="1056.87,1423.18 1056.87,1404.28 "/>
<polyline clip-path="url(#clip810)" style="stroke:#000000; stroke-linecap:round; stroke-linejoin:round; stroke-width:4; stroke-opacity:1; fill:none" points="1488.83,1423.18 1488.83,1404.28 "/>
<polyline clip-path="url(#clip810)" style="stroke:#000000; stroke-linecap:round; stroke-linejoin:round; stroke-width:4; stroke-opacity:1; fill:none" points="1920.79,1423.18 1920.79,1404.28 "/>
<polyline clip-path="url(#clip810)" style="stroke:#000000; stroke-linecap:round; stroke-linejoin:round; stroke-width:4; stroke-opacity:1; fill:none" points="2352.76,1423.18 2352.76,1404.28 "/>
<path clip-path="url(#clip810)" d="M192.941 1454.1 Q189.33 1454.1 187.501 1457.66 Q185.695 1461.2 185.695 1468.33 Q185.695 1475.44 187.501 1479.01 Q189.33 1482.55 192.941 1482.55 Q196.575 1482.55 198.38 1479.01 Q200.209 1475.44 200.209 1468.33 Q200.209 1461.2 198.38 1457.66 Q196.575 1454.1 192.941 1454.1 M192.941 1450.39 Q198.751 1450.39 201.806 1455 Q204.885 1459.58 204.885 1468.33 Q204.885 1477.06 201.806 1481.67 Q198.751 1486.25 192.941 1486.25 Q187.13 1486.25 184.052 1481.67 Q180.996 1477.06 180.996 1468.33 Q180.996 1459.58 184.052 1455 Q187.13 1450.39 192.941 1450.39 Z" fill="#000000" fill-rule="nonzero" fill-opacity="1" /><path clip-path="url(#clip810)" d="M619.556 1481.64 L635.876 1481.64 L635.876 1485.58 L613.932 1485.58 L613.932 1481.64 Q616.594 1478.89 621.177 1474.26 Q625.783 1469.61 626.964 1468.27 Q629.209 1465.74 630.089 1464.01 Q630.992 1462.25 630.992 1460.56 Q630.992 1457.8 629.047 1456.07 Q627.126 1454.33 624.024 1454.33 Q621.825 1454.33 619.371 1455.09 Q616.941 1455.86 614.163 1457.41 L614.163 1452.69 Q616.987 1451.55 619.441 1450.97 Q621.894 1450.39 623.931 1450.39 Q629.302 1450.39 632.496 1453.08 Q635.691 1455.77 635.691 1460.26 Q635.691 1462.39 634.88 1464.31 Q634.093 1466.2 631.987 1468.8 Q631.408 1469.47 628.306 1472.69 Q625.205 1475.88 619.556 1481.64 Z" fill="#000000" fill-rule="nonzero" fill-opacity="1" /><path clip-path="url(#clip810)" d="M1059.88 1455.09 L1048.07 1473.54 L1059.88 1473.54 L1059.88 1455.09 M1058.65 1451.02 L1064.53 1451.02 L1064.53 1473.54 L1069.46 1473.54 L1069.46 1477.43 L1064.53 1477.43 L1064.53 1485.58 L1059.88 1485.58 L1059.88 1477.43 L1044.27 1477.43 L1044.27 1472.92 L1058.65 1451.02 Z" fill="#000000" fill-rule="nonzero" fill-opacity="1" /><path clip-path="url(#clip810)" d="M1489.23 1466.44 Q1486.09 1466.44 1484.23 1468.59 Q1482.41 1470.74 1482.41 1474.49 Q1482.41 1478.22 1484.23 1480.39 Q1486.09 1482.55 1489.23 1482.55 Q1492.38 1482.55 1494.21 1480.39 Q1496.06 1478.22 1496.06 1474.49 Q1496.06 1470.74 1494.21 1468.59 Q1492.38 1466.44 1489.23 1466.44 M1498.52 1451.78 L1498.52 1456.04 Q1496.76 1455.21 1494.95 1454.77 Q1493.17 1454.33 1491.41 1454.33 Q1486.78 1454.33 1484.33 1457.45 Q1481.9 1460.58 1481.55 1466.9 Q1482.92 1464.89 1484.98 1463.82 Q1487.04 1462.73 1489.51 1462.73 Q1494.72 1462.73 1497.73 1465.9 Q1500.76 1469.05 1500.76 1474.49 Q1500.76 1479.82 1497.61 1483.03 Q1494.47 1486.25 1489.23 1486.25 Q1483.24 1486.25 1480.07 1481.67 Q1476.9 1477.06 1476.9 1468.33 Q1476.9 1460.14 1480.79 1455.28 Q1484.67 1450.39 1491.23 1450.39 Q1492.98 1450.39 1494.77 1450.74 Q1496.57 1451.09 1498.52 1451.78 Z" fill="#000000" fill-rule="nonzero" fill-opacity="1" /><path clip-path="url(#clip810)" d="M1920.79 1469.17 Q1917.46 1469.17 1915.54 1470.95 Q1913.64 1472.73 1913.64 1475.86 Q1913.64 1478.98 1915.54 1480.77 Q1917.46 1482.55 1920.79 1482.55 Q1924.13 1482.55 1926.05 1480.77 Q1927.97 1478.96 1927.97 1475.86 Q1927.97 1472.73 1926.05 1470.95 Q1924.15 1469.17 1920.79 1469.17 M1916.12 1467.18 Q1913.11 1466.44 1911.42 1464.38 Q1909.75 1462.32 1909.75 1459.35 Q1909.75 1455.21 1912.69 1452.8 Q1915.65 1450.39 1920.79 1450.39 Q1925.95 1450.39 1928.89 1452.8 Q1931.83 1455.21 1931.83 1459.35 Q1931.83 1462.32 1930.14 1464.38 Q1928.48 1466.44 1925.49 1467.18 Q1928.87 1467.96 1930.75 1470.26 Q1932.64 1472.55 1932.64 1475.86 Q1932.64 1480.88 1929.57 1483.57 Q1926.51 1486.25 1920.79 1486.25 Q1915.08 1486.25 1912 1483.57 Q1908.94 1480.88 1908.94 1475.86 Q1908.94 1472.55 1910.84 1470.26 Q1912.74 1467.96 1916.12 1467.18 M1914.4 1459.79 Q1914.4 1462.48 1916.07 1463.98 Q1917.76 1465.49 1920.79 1465.49 Q1923.8 1465.49 1925.49 1463.98 Q1927.2 1462.48 1927.2 1459.79 Q1927.2 1457.11 1925.49 1455.6 Q1923.8 1454.1 1920.79 1454.1 Q1917.76 1454.1 1916.07 1455.6 Q1914.4 1457.11 1914.4 1459.79 Z" fill="#000000" fill-rule="nonzero" fill-opacity="1" /><path clip-path="url(#clip810)" d="M2327.44 1481.64 L2335.08 1481.64 L2335.08 1455.28 L2326.77 1456.95 L2326.77 1452.69 L2335.04 1451.02 L2339.71 1451.02 L2339.71 1481.64 L2347.35 1481.64 L2347.35 1485.58 L2327.44 1485.58 L2327.44 1481.64 Z" fill="#000000" fill-rule="nonzero" fill-opacity="1" /><path clip-path="url(#clip810)" d="M2366.8 1454.1 Q2363.18 1454.1 2361.36 1457.66 Q2359.55 1461.2 2359.55 1468.33 Q2359.55 1475.44 2361.36 1479.01 Q2363.18 1482.55 2366.8 1482.55 Q2370.43 1482.55 2372.23 1479.01 Q2374.06 1475.44 2374.06 1468.33 Q2374.06 1461.2 2372.23 1457.66 Q2370.43 1454.1 2366.8 1454.1 M2366.8 1450.39 Q2372.61 1450.39 2375.66 1455 Q2378.74 1459.58 2378.74 1468.33 Q2378.74 1477.06 2375.66 1481.67 Q2372.61 1486.25 2366.8 1486.25 Q2360.99 1486.25 2357.91 1481.67 Q2354.85 1477.06 2354.85 1468.33 Q2354.85 1459.58 2357.91 1455 Q2360.99 1450.39 2366.8 1450.39 Z" fill="#000000" fill-rule="nonzero" fill-opacity="1" /><path clip-path="url(#clip810)" d="M1271.91 1522.27 L1271.91 1532.4 L1283.97 1532.4 L1283.97 1536.95 L1271.91 1536.95 L1271.91 1556.3 Q1271.91 1560.66 1273.09 1561.9 Q1274.3 1563.14 1277.96 1563.14 L1283.97 1563.14 L1283.97 1568.04 L1277.96 1568.04 Q1271.18 1568.04 1268.6 1565.53 Q1266.02 1562.98 1266.02 1556.3 L1266.02 1536.95 L1261.72 1536.95 L1261.72 1532.4 L1266.02 1532.4 L1266.02 1522.27 L1271.91 1522.27 Z" fill="#000000" fill-rule="nonzero" fill-opacity="1" /><polyline clip-path="url(#clip810)" style="stroke:#000000; stroke-linecap:round; stroke-linejoin:round; stroke-width:4; stroke-opacity:1; fill:none" points="192.941,1423.18 192.941,47.2441 "/>
<polyline clip-path="url(#clip810)" style="stroke:#000000; stroke-linecap:round; stroke-linejoin:round; stroke-width:4; stroke-opacity:1; fill:none" points="192.941,1262.19 211.838,1262.19 "/>
<polyline clip-path="url(#clip810)" style="stroke:#000000; stroke-linecap:round; stroke-linejoin:round; stroke-width:4; stroke-opacity:1; fill:none" points="192.941,1031.74 211.838,1031.74 "/>
<polyline clip-path="url(#clip810)" style="stroke:#000000; stroke-linecap:round; stroke-linejoin:round; stroke-width:4; stroke-opacity:1; fill:none" points="192.941,801.296 211.838,801.296 "/>
<polyline clip-path="url(#clip810)" style="stroke:#000000; stroke-linecap:round; stroke-linejoin:round; stroke-width:4; stroke-opacity:1; fill:none" points="192.941,570.85 211.838,570.85 "/>
<polyline clip-path="url(#clip810)" style="stroke:#000000; stroke-linecap:round; stroke-linejoin:round; stroke-width:4; stroke-opacity:1; fill:none" points="192.941,340.404 211.838,340.404 "/>
<polyline clip-path="url(#clip810)" style="stroke:#000000; stroke-linecap:round; stroke-linejoin:round; stroke-width:4; stroke-opacity:1; fill:none" points="192.941,109.958 211.838,109.958 "/>
<path clip-path="url(#clip810)" d="M50.9921 1262.64 L80.6679 1262.64 L80.6679 1266.57 L50.9921 1266.57 L50.9921 1262.64 Z" fill="#000000" fill-rule="nonzero" fill-opacity="1" /><path clip-path="url(#clip810)" d="M100.76 1247.99 Q97.1493 1247.99 95.3206 1251.55 Q93.515 1255.09 93.515 1262.22 Q93.515 1269.33 95.3206 1272.89 Q97.1493 1276.43 100.76 1276.43 Q104.395 1276.43 106.2 1272.89 Q108.029 1269.33 108.029 1262.22 Q108.029 1255.09 106.2 1251.55 Q104.395 1247.99 100.76 1247.99 M100.76 1244.28 Q106.571 1244.28 109.626 1248.89 Q112.705 1253.47 112.705 1262.22 Q112.705 1270.95 109.626 1275.56 Q106.571 1280.14 100.76 1280.14 Q94.9502 1280.14 91.8715 1275.56 Q88.816 1270.95 88.816 1262.22 Q88.816 1253.47 91.8715 1248.89 Q94.9502 1244.28 100.76 1244.28 Z" fill="#000000" fill-rule="nonzero" fill-opacity="1" /><path clip-path="url(#clip810)" d="M120.922 1273.59 L125.807 1273.59 L125.807 1279.47 L120.922 1279.47 L120.922 1273.59 Z" fill="#000000" fill-rule="nonzero" fill-opacity="1" /><path clip-path="url(#clip810)" d="M136.038 1244.91 L154.394 1244.91 L154.394 1248.84 L140.32 1248.84 L140.32 1257.31 Q141.339 1256.97 142.357 1256.81 Q143.376 1256.62 144.394 1256.62 Q150.181 1256.62 153.561 1259.79 Q156.941 1262.96 156.941 1268.38 Q156.941 1273.96 153.468 1277.06 Q149.996 1280.14 143.677 1280.14 Q141.501 1280.14 139.232 1279.77 Q136.987 1279.4 134.58 1278.66 L134.58 1273.96 Q136.663 1275.09 138.885 1275.65 Q141.107 1276.2 143.584 1276.2 Q147.589 1276.2 149.927 1274.1 Q152.265 1271.99 152.265 1268.38 Q152.265 1264.77 149.927 1262.66 Q147.589 1260.56 143.584 1260.56 Q141.709 1260.56 139.834 1260.97 Q137.982 1261.39 136.038 1262.27 L136.038 1244.91 Z" fill="#000000" fill-rule="nonzero" fill-opacity="1" /><path clip-path="url(#clip810)" d="M99.765 1017.54 Q96.1539 1017.54 94.3252 1021.1 Q92.5197 1024.65 92.5197 1031.78 Q92.5197 1038.88 94.3252 1042.45 Q96.1539 1045.99 99.765 1045.99 Q103.399 1045.99 105.205 1042.45 Q107.033 1038.88 107.033 1031.78 Q107.033 1024.65 105.205 1021.1 Q103.399 1017.54 99.765 1017.54 M99.765 1013.84 Q105.575 1013.84 108.631 1018.44 Q111.709 1023.03 111.709 1031.78 Q111.709 1040.5 108.631 1045.11 Q105.575 1049.69 99.765 1049.69 Q93.9549 1049.69 90.8762 1045.11 Q87.8206 1040.5 87.8206 1031.78 Q87.8206 1023.03 90.8762 1018.44 Q93.9549 1013.84 99.765 1013.84 Z" fill="#000000" fill-rule="nonzero" fill-opacity="1" /><path clip-path="url(#clip810)" d="M119.927 1043.14 L124.811 1043.14 L124.811 1049.02 L119.927 1049.02 L119.927 1043.14 Z" fill="#000000" fill-rule="nonzero" fill-opacity="1" /><path clip-path="url(#clip810)" d="M144.996 1017.54 Q141.385 1017.54 139.556 1021.1 Q137.751 1024.65 137.751 1031.78 Q137.751 1038.88 139.556 1042.45 Q141.385 1045.99 144.996 1045.99 Q148.63 1045.99 150.436 1042.45 Q152.265 1038.88 152.265 1031.78 Q152.265 1024.65 150.436 1021.1 Q148.63 1017.54 144.996 1017.54 M144.996 1013.84 Q150.806 1013.84 153.862 1018.44 Q156.941 1023.03 156.941 1031.78 Q156.941 1040.5 153.862 1045.11 Q150.806 1049.69 144.996 1049.69 Q139.186 1049.69 136.107 1045.11 Q133.052 1040.5 133.052 1031.78 Q133.052 1023.03 136.107 1018.44 Q139.186 1013.84 144.996 1013.84 Z" fill="#000000" fill-rule="nonzero" fill-opacity="1" /><path clip-path="url(#clip810)" d="M100.76 787.094 Q97.1493 787.094 95.3206 790.659 Q93.515 794.201 93.515 801.33 Q93.515 808.437 95.3206 812.002 Q97.1493 815.543 100.76 815.543 Q104.395 815.543 106.2 812.002 Q108.029 808.437 108.029 801.33 Q108.029 794.201 106.2 790.659 Q104.395 787.094 100.76 787.094 M100.76 783.391 Q106.571 783.391 109.626 787.997 Q112.705 792.58 112.705 801.33 Q112.705 810.057 109.626 814.664 Q106.571 819.247 100.76 819.247 Q94.9502 819.247 91.8715 814.664 Q88.816 810.057 88.816 801.33 Q88.816 792.58 91.8715 787.997 Q94.9502 783.391 100.76 783.391 Z" fill="#000000" fill-rule="nonzero" fill-opacity="1" /><path clip-path="url(#clip810)" d="M120.922 812.696 L125.807 812.696 L125.807 818.576 L120.922 818.576 L120.922 812.696 Z" fill="#000000" fill-rule="nonzero" fill-opacity="1" /><path clip-path="url(#clip810)" d="M136.038 784.016 L154.394 784.016 L154.394 787.951 L140.32 787.951 L140.32 796.423 Q141.339 796.076 142.357 795.914 Q143.376 795.729 144.394 795.729 Q150.181 795.729 153.561 798.9 Q156.941 802.071 156.941 807.488 Q156.941 813.066 153.468 816.168 Q149.996 819.247 143.677 819.247 Q141.501 819.247 139.232 818.877 Q136.987 818.506 134.58 817.765 L134.58 813.066 Q136.663 814.201 138.885 814.756 Q141.107 815.312 143.584 815.312 Q147.589 815.312 149.927 813.205 Q152.265 811.099 152.265 807.488 Q152.265 803.877 149.927 801.77 Q147.589 799.664 143.584 799.664 Q141.709 799.664 139.834 800.08 Q137.982 800.497 136.038 801.377 L136.038 784.016 Z" fill="#000000" fill-rule="nonzero" fill-opacity="1" /><path clip-path="url(#clip810)" d="M90.5752 584.195 L98.2141 584.195 L98.2141 557.829 L89.904 559.496 L89.904 555.237 L98.1678 553.57 L102.844 553.57 L102.844 584.195 L110.483 584.195 L110.483 588.13 L90.5752 588.13 L90.5752 584.195 Z" fill="#000000" fill-rule="nonzero" fill-opacity="1" /><path clip-path="url(#clip810)" d="M119.927 582.25 L124.811 582.25 L124.811 588.13 L119.927 588.13 L119.927 582.25 Z" fill="#000000" fill-rule="nonzero" fill-opacity="1" /><path clip-path="url(#clip810)" d="M144.996 556.649 Q141.385 556.649 139.556 560.213 Q137.751 563.755 137.751 570.885 Q137.751 577.991 139.556 581.556 Q141.385 585.098 144.996 585.098 Q148.63 585.098 150.436 581.556 Q152.265 577.991 152.265 570.885 Q152.265 563.755 150.436 560.213 Q148.63 556.649 144.996 556.649 M144.996 552.945 Q150.806 552.945 153.862 557.551 Q156.941 562.135 156.941 570.885 Q156.941 579.611 153.862 584.218 Q150.806 588.801 144.996 588.801 Q139.186 588.801 136.107 584.218 Q133.052 579.611 133.052 570.885 Q133.052 562.135 136.107 557.551 Q139.186 552.945 144.996 552.945 Z" fill="#000000" fill-rule="nonzero" fill-opacity="1" /><path clip-path="url(#clip810)" d="M91.5706 353.749 L99.2095 353.749 L99.2095 327.383 L90.8993 329.05 L90.8993 324.791 L99.1632 323.124 L103.839 323.124 L103.839 353.749 L111.478 353.749 L111.478 357.684 L91.5706 357.684 L91.5706 353.749 Z" fill="#000000" fill-rule="nonzero" fill-opacity="1" /><path clip-path="url(#clip810)" d="M120.922 351.805 L125.807 351.805 L125.807 357.684 L120.922 357.684 L120.922 351.805 Z" fill="#000000" fill-rule="nonzero" fill-opacity="1" /><path clip-path="url(#clip810)" d="M136.038 323.124 L154.394 323.124 L154.394 327.059 L140.32 327.059 L140.32 335.532 Q141.339 335.184 142.357 335.022 Q143.376 334.837 144.394 334.837 Q150.181 334.837 153.561 338.008 Q156.941 341.18 156.941 346.596 Q156.941 352.175 153.468 355.277 Q149.996 358.355 143.677 358.355 Q141.501 358.355 139.232 357.985 Q136.987 357.615 134.58 356.874 L134.58 352.175 Q136.663 353.309 138.885 353.865 Q141.107 354.42 143.584 354.42 Q147.589 354.42 149.927 352.314 Q152.265 350.207 152.265 346.596 Q152.265 342.985 149.927 340.879 Q147.589 338.772 143.584 338.772 Q141.709 338.772 139.834 339.189 Q137.982 339.606 136.038 340.485 L136.038 323.124 Z" fill="#000000" fill-rule="nonzero" fill-opacity="1" /><path clip-path="url(#clip810)" d="M93.7928 123.303 L110.112 123.303 L110.112 127.238 L88.1679 127.238 L88.1679 123.303 Q90.8299 120.549 95.4132 115.919 Q100.02 111.266 101.2 109.924 Q103.446 107.401 104.325 105.664 Q105.228 103.905 105.228 102.215 Q105.228 99.4608 103.284 97.7247 Q101.362 95.9886 98.2604 95.9886 Q96.0613 95.9886 93.6076 96.7525 Q91.1771 97.5164 88.3993 99.0673 L88.3993 94.3451 Q91.2234 93.2109 93.6771 92.6322 Q96.1308 92.0535 98.1678 92.0535 Q103.538 92.0535 106.733 94.7386 Q109.927 97.4238 109.927 101.915 Q109.927 104.044 109.117 105.965 Q108.33 107.864 106.223 110.456 Q105.645 111.127 102.543 114.345 Q99.4409 117.539 93.7928 123.303 Z" fill="#000000" fill-rule="nonzero" fill-opacity="1" /><path clip-path="url(#clip810)" d="M119.927 121.359 L124.811 121.359 L124.811 127.238 L119.927 127.238 L119.927 121.359 Z" fill="#000000" fill-rule="nonzero" fill-opacity="1" /><path clip-path="url(#clip810)" d="M144.996 95.7571 Q141.385 95.7571 139.556 99.3219 Q137.751 102.864 137.751 109.993 Q137.751 117.1 139.556 120.664 Q141.385 124.206 144.996 124.206 Q148.63 124.206 150.436 120.664 Q152.265 117.1 152.265 109.993 Q152.265 102.864 150.436 99.3219 Q148.63 95.7571 144.996 95.7571 M144.996 92.0535 Q150.806 92.0535 153.862 96.6599 Q156.941 101.243 156.941 109.993 Q156.941 118.72 153.862 123.326 Q150.806 127.91 144.996 127.91 Q139.186 127.91 136.107 123.326 Q133.052 118.72 133.052 109.993 Q133.052 101.243 136.107 96.6599 Q139.186 92.0535 144.996 92.0535 Z" fill="#000000" fill-rule="nonzero" fill-opacity="1" /><polyline clip-path="url(#clip812)" style="stroke:#009af9; stroke-linecap:round; stroke-linejoin:round; stroke-width:4; stroke-opacity:1; fill:none" points="192.941,1031.74 195.103,1034.41 197.265,1037.05 199.427,1039.66 201.589,1042.22 203.751,1044.76 205.912,1047.26 208.074,1049.73 210.236,1052.16 212.398,1054.56 214.56,1056.94 216.722,1059.27 218.884,1061.58 221.046,1063.86 223.208,1066.11 225.37,1068.33 227.532,1070.51 229.694,1072.67 231.856,1074.8 234.018,1076.91 236.18,1078.98 238.342,1081.03 240.504,1083.05 242.666,1085.04 244.828,1087.01 246.99,1088.95 249.152,1090.86 251.314,1092.75 253.476,1094.62 255.638,1096.46 257.8,1098.27 259.962,1100.06 262.124,1101.83 264.286,1103.58 266.448,1105.3 268.61,1107 270.772,1108.67 272.934,1110.32 275.096,1111.96 277.258,1113.57 279.42,1115.15 281.582,1116.72 283.744,1118.27 285.906,1119.8 288.068,1121.3 290.23,1122.79 292.392,1124.25 294.554,1125.7 296.716,1127.13 298.878,1128.54 301.039,1129.93 303.201,1131.3 305.363,1132.65 307.525,1133.99 309.687,1135.31 311.849,1136.61 314.011,1137.89 316.173,1139.16 318.335,1140.4 320.497,1141.64 322.659,1142.85 324.821,1144.05 326.983,1145.24 329.145,1146.41 331.307,1147.56 333.469,1148.7 335.631,1149.82 337.793,1150.93 339.955,1152.02 342.117,1153.1 344.279,1154.17 346.441,1155.22 348.603,1156.25 350.765,1157.27 352.927,1158.28 355.089,1159.28 357.251,1160.26 359.413,1161.23 361.575,1162.19 363.737,1163.13 365.899,1164.06 368.061,1164.98 370.223,1165.89 372.385,1166.78 374.547,1167.67 376.709,1168.54 378.871,1169.4 381.033,1170.25 383.195,1171.08 385.357,1171.91 387.519,1172.72 389.681,1173.53 391.843,1174.32 394.005,1175.11 396.166,1175.88 398.328,1176.64 400.49,1177.57 402.652,1179.07 404.814,1179.84 406.976,1179.01 409.138,1176.45 411.3,1172.76 413.462,1169.13 415.624,1165.66 417.786,1162.24 419.948,1158.86 422.11,1155.53 424.272,1152.25 426.434,1149 428.596,1145.8 430.758,1142.64 432.92,1139.53 435.082,1136.45 437.244,1133.42 439.406,1130.43 441.568,1127.47 443.73,1124.56 445.892,1121.68 448.054,1118.84 450.216,1116.04 452.378,1113.28 454.54,1110.55 456.702,1107.86 458.864,1105.21 461.026,1102.59 463.188,1100 465.35,1097.45 467.512,1094.94 469.674,1092.45 471.836,1090 473.998,1087.59 476.16,1085.2 478.322,1082.85 480.484,1080.52 482.646,1078.23 484.808,1075.97 486.97,1073.74 489.132,1071.53 491.293,1069.36 493.455,1067.22 495.617,1065.1 497.779,1063.01 499.941,1060.95 502.103,1058.92 504.265,1056.91 506.427,1054.94 508.589,1052.98 510.751,1051.06 512.913,1049.15 515.075,1047.28 517.237,1045.43 519.399,1043.6 521.561,1041.8 523.723,1040.02 525.885,1038.26 528.047,1036.53 530.209,1034.82 532.371,1033.14 534.533,1031.47 536.695,1029.83 538.857,1028.21 541.019,1026.61 543.181,1025.03 545.343,1023.48 547.505,1021.94 549.667,1020.42 551.829,1018.93 553.991,1017.45 556.153,1016 558.315,1014.56 560.477,1013.14 562.639,1011.74 564.801,1010.36 566.963,1009 569.125,1007.66 571.287,1006.33 573.449,1005.02 575.611,1003.73 577.773,1002.46 579.935,1001.2 582.097,999.96 584.259,998.736 586.42,997.528 588.582,996.358 590.744,995.236 592.906,994.151 595.068,993.094 597.23,992.056 599.392,991.031 601.554,990.01 603.716,988.988 605.878,987.958 608.04,986.916 610.202,985.858 612.364,984.779 614.526,983.677 616.688,982.55 618.85,981.396 621.012,980.214 623.174,979.005 625.336,977.769 627.498,976.507 629.66,975.221 631.822,973.915 633.984,972.59 636.146,971.253 638.308,969.907 640.47,968.558 642.632,967.213 644.794,965.877 646.956,964.559 649.118,963.268 651.28,962.012 653.442,960.787 655.604,959.579 657.766,958.386 659.928,957.21 662.09,956.049 664.252,954.904 666.414,953.773 668.576,952.658 670.738,951.558 672.9,950.472 675.062,949.4 677.224,948.343 679.386,947.3 681.547,946.27 683.709,945.255 685.871,944.252 688.033,943.263 690.195,942.287 692.357,941.324 694.519,940.374 696.681,939.436 698.843,938.511 701.005,937.598 703.167,936.697 705.329,935.808 707.491,934.93 709.653,934.065 711.815,933.21 713.977,932.368 716.139,931.536 718.301,930.715 720.463,929.905 722.625,929.106 724.787,928.318 726.949,927.54 729.111,926.772 731.273,926.015 733.435,925.267 735.597,924.53 737.759,923.802 739.921,923.084 742.083,922.376 744.245,921.677 746.407,920.987 748.569,920.306 750.731,919.635 752.893,918.972 755.055,918.319 757.217,917.674 759.379,917.037 761.541,916.409 763.703,915.789 765.865,915.178 768.027,914.575 770.189,913.979 772.351,913.392 774.513,912.812 776.674,912.24 778.836,911.676 780.998,911.119 783.16,910.569 785.322,910.027 787.484,909.492 789.646,908.964 791.808,908.443 793.97,907.929 796.132,907.421 798.294,906.921 800.456,906.427 802.618,905.939 804.78,905.458 806.942,904.983 809.104,904.515 811.266,904.053 813.428,903.597 815.59,903.146 817.752,902.702 819.914,902.264 822.076,901.832 824.238,901.405 826.4,900.984 828.562,900.569 830.724,900.159 832.886,899.755 835.048,899.355 837.21,898.962 839.372,898.573 841.534,897.983 843.696,895.254 845.858,890.273 848.02,883.459 850.182,875.197 852.344,865.835 854.506,855.686 856.668,845.026 858.83,834.095 860.992,823.097 863.154,812.201 865.316,801.538 867.478,791.204 869.64,781.26 871.801,771.728 873.963,762.597 876.125,753.818 878.287,745.307 880.449,736.943 882.611,728.569 884.773,720.078 886.935,711.674 889.097,703.381 891.259,695.199 893.421,687.124 895.583,679.157 897.745,671.295 899.907,663.538 902.069,655.884 904.231,648.33 906.393,640.877 908.555,633.523 910.717,626.266 912.879,619.105 915.041,612.04 917.203,605.067 919.365,598.188 921.527,591.399 923.689,584.701 925.851,578.091 928.013,571.569 930.175,565.133 932.337,558.783 934.499,552.518 936.661,546.335 938.823,540.234 940.985,534.214 943.147,528.275 945.309,522.414 947.471,516.63 949.633,510.924 951.795,505.293 953.957,499.737 956.119,494.254 958.281,488.844 960.443,483.506 962.605,478.239 964.767,473.041 966.928,467.913 969.09,462.852 971.252,457.858 973.414,452.931 975.576,448.069 977.738,443.271 979.9,438.537 982.062,433.865 984.224,429.256 986.386,424.707 988.548,420.219 990.71,415.79 992.872,411.42 995.034,407.108 997.196,402.853 999.358,398.655 1001.52,394.512 1003.68,390.424 1005.84,386.391 1008.01,382.411 1010.17,378.483 1012.33,374.608 1014.49,370.784 1016.65,367.011 1018.82,363.288 1020.98,359.614 1023.14,355.989 1025.3,352.412 1027.46,348.883 1029.63,345.4 1031.79,341.963 1033.95,338.572 1036.11,335.226 1038.27,331.924 1040.44,328.666 1042.6,325.451 1044.76,322.477 1046.92,319.918 1049.08,317.741 1051.25,315.917 1053.41,314.416 1055.57,313.21 1057.73,312.272 1059.89,311.576 1062.06,311.097 1064.22,310.811 1066.38,310.696 1068.54,310.73 1070.7,310.893 1072.87,311.165 1075.03,311.529 1077.19,311.967 1079.35,312.464 1081.51,313.005 1083.68,313.576 1085.84,314.164 1088,314.759 1090.16,315.35 1092.32,315.927 1094.49,316.484 1096.65,317.012 1098.81,317.506 1100.97,317.962 1103.13,318.376 1105.3,318.745 1107.46,319.069 1109.62,319.347 1111.78,319.579 1113.94,319.769 1116.1,319.919 1118.27,320.033 1120.43,320.117 1122.59,320.179 1124.75,320.224 1126.91,320.262 1129.08,320.303 1131.24,320.359 1133.4,320.44 1135.56,320.561 1137.72,320.706 1139.89,320.85 1142.05,320.991 1144.21,321.13 1146.37,321.268 1148.53,321.404 1150.7,321.538 1152.86,321.67 1155.02,321.801 1157.18,321.929 1159.34,322.056 1161.51,322.182 1163.67,322.305 1165.83,322.427 1167.99,322.548 1170.15,322.667 1172.32,322.784 1174.48,322.9 1176.64,323.014 1178.8,323.126 1180.96,323.237 1183.13,323.347 1185.29,323.455 1187.45,323.562 1189.61,323.668 1191.77,323.772 1193.94,323.874 1196.1,323.975 1198.26,324.075 1200.42,324.174 1202.58,324.271 1204.75,324.367 1206.91,324.462 1209.07,324.555 1211.23,324.648 1213.39,324.739 1215.56,324.828 1217.72,324.917 1219.88,325.004 1222.04,325.091 1224.2,325.176 1226.37,325.26 1228.53,325.343 1230.69,325.424 1232.85,325.505 1235.01,325.585 1237.18,325.663 1239.34,325.741 1241.5,325.817 1243.66,325.893 1245.82,325.967 1247.99,326.041 1250.15,326.113 1252.31,326.185 1254.47,326.255 1256.63,326.325 1258.8,326.394 1260.96,326.462 1263.12,326.528 1265.28,326.594 1267.44,326.66 1269.61,326.724 1271.77,326.787 1273.93,327.198 1276.09,329.142 1278.25,332.564 1280.42,337.3 1282.58,343.191 1284.74,350.088 1286.9,357.848 1289.06,366.34 1291.23,375.438 1293.39,385.024 1295.55,394.989 1297.71,405.234 1299.87,415.665 1302.03,426.197 1304.2,436.754 1306.36,447.268 1308.52,457.678 1310.68,467.933 1312.84,477.988 1315.01,487.807 1317.17,497.364 1319.33,506.637 1321.49,515.617 1323.65,524.299 1325.82,532.688 1327.98,540.796 1330.14,548.646 1332.3,556.267 1334.46,563.694 1336.63,570.975 1338.79,578.162 1340.95,585.316 1343.11,592.509 1345.27,599.774 1347.44,606.965 1349.6,614.06 1351.76,621.062 1353.92,627.97 1356.08,634.787 1358.25,641.513 1360.41,648.151 1362.57,654.7 1364.73,661.162 1366.89,667.539 1369.06,673.831 1371.22,680.04 1373.38,686.166 1375.54,692.212 1377.7,698.177 1379.87,704.063 1382.03,709.871 1384.19,715.603 1386.35,721.258 1388.51,726.839 1390.68,732.346 1392.84,737.78 1395,743.142 1397.16,748.433 1399.32,753.653 1401.49,758.805 1403.65,763.888 1405.81,768.904 1407.97,773.853 1410.13,778.736 1412.3,783.554 1414.46,788.309 1416.62,793 1418.78,797.629 1420.94,802.197 1423.11,806.704 1425.27,811.151 1427.43,815.539 1429.59,819.869 1431.75,824.141 1433.92,828.356 1436.08,832.516 1438.24,836.62 1440.4,840.67 1442.56,844.666 1444.73,848.609 1446.89,852.5 1449.05,856.339 1451.21,860.127 1453.37,863.866 1455.54,867.554 1457.7,871.194 1459.86,874.785 1462.02,878.329 1464.18,881.826 1466.35,885.277 1468.51,888.682 1470.67,892.042 1472.83,895.358 1474.99,898.63 1477.16,901.858 1479.32,905.044 1481.48,908.187 1483.64,911.21 1485.8,913.38 1487.97,914.64 1490.13,915.13 1492.29,914.984 1494.45,914.323 1496.61,913.256 1498.77,911.884 1500.94,910.298 1503.1,908.576 1505.26,906.787 1507.42,904.99 1509.58,903.232 1511.75,901.55 1513.91,899.973 1516.07,898.515 1518.23,897.183 1520.39,895.972 1522.56,894.867 1524.72,893.843 1526.88,892.864 1529.04,891.882 1531.2,890.842 1533.37,889.741 1535.53,888.654 1537.69,887.582 1539.85,886.523 1542.01,885.479 1544.18,884.448 1546.34,883.431 1548.5,882.428 1550.66,881.438 1552.82,880.461 1554.99,879.497 1557.15,878.545 1559.31,877.607 1561.47,876.681 1563.63,875.767 1565.8,874.865 1567.96,873.975 1570.12,873.097 1572.28,872.23 1574.44,871.375 1576.61,870.531 1578.77,869.699 1580.93,868.877 1583.09,868.067 1585.25,867.267 1587.42,866.478 1589.58,865.699 1591.74,864.931 1593.9,864.172 1596.06,863.424 1598.23,862.686 1600.39,861.958 1602.55,861.239 1604.71,860.53 1606.87,859.83 1609.04,859.14 1611.2,858.458 1613.36,857.786 1615.52,857.123 1617.68,856.468 1619.85,855.822 1622.01,855.185 1624.17,854.556 1626.33,853.936 1628.49,853.323 1630.66,852.719 1632.82,852.123 1634.98,851.535 1637.14,850.954 1639.3,850.382 1641.47,849.816 1643.63,849.259 1645.79,848.708 1647.95,848.165 1650.11,847.629 1652.28,847.101 1654.44,846.579 1656.6,846.064 1658.76,845.556 1660.92,845.055 1663.09,844.56 1665.25,844.072 1667.41,843.59 1669.57,843.115 1671.73,842.646 1673.9,842.183 1676.06,841.727 1678.22,841.276 1680.38,840.832 1682.54,840.393 1684.7,839.96 1686.87,839.533 1689.03,839.112 1691.19,838.696 1693.35,838.286 1695.51,837.881 1697.68,837.481 1699.84,837.145 1702,837.872 1704.16,839.891 1706.32,843.034 1708.49,847.141 1710.65,852.064 1712.81,857.662 1714.97,863.807 1717.13,870.379 1719.3,877.269 1721.46,884.376 1723.62,891.612 1725.78,898.896 1727.94,906.159 1730.11,913.339 1732.27,920.389 1734.43,927.265 1736.59,933.94 1738.75,940.391 1740.92,946.61 1743.08,952.594 1745.24,958.353 1747.4,963.906 1749.56,969.282 1751.73,974.521 1753.89,979.671 1756.05,984.79 1758.21,989.948 1760.37,995.166 1762.54,1000.32 1764.7,1005.41 1766.86,1010.44 1769.02,1015.39 1771.18,1020.28 1773.35,1025.11 1775.51,1029.87 1777.67,1034.57 1779.83,1039.2 1781.99,1043.78 1784.16,1048.29 1786.32,1052.75 1788.48,1057.14 1790.64,1061.48 1792.8,1065.76 1794.97,1069.98 1797.13,1074.15 1799.29,1078.26 1801.45,1082.31 1803.61,1086.32 1805.78,1090.27 1807.94,1094.16 1810.1,1098.01 1812.26,1101.81 1814.42,1105.55 1816.59,1109.25 1818.75,1112.89 1820.91,1116.49 1823.07,1120.04 1825.23,1123.54 1827.4,1127 1829.56,1130.41 1831.72,1133.77 1833.88,1137.09 1836.04,1140.37 1838.21,1143.6 1840.37,1146.79 1842.53,1149.94 1844.69,1153.05 1846.85,1156.11 1849.02,1159.14 1851.18,1162.12 1853.34,1165.07 1855.5,1167.97 1857.66,1170.84 1859.83,1173.67 1861.99,1176.46 1864.15,1179.21 1866.31,1181.93 1868.47,1184.62 1870.63,1187.26 1872.8,1189.87 1874.96,1192.45 1877.12,1194.99 1879.28,1197.5 1881.44,1199.98 1883.61,1202.42 1885.77,1204.83 1887.93,1207.21 1890.09,1209.56 1892.25,1211.87 1894.42,1214.17 1896.58,1216.64 1898.74,1219.26 1900.9,1221.9 1903.06,1224.42 1905.23,1226.74 1907.39,1228.78 1909.55,1230.48 1911.71,1231.81 1913.87,1232.75 1916.04,1233.31 1918.2,1233.51 1920.36,1233.41 1922.52,1233.06 1924.68,1232.57 1926.85,1232.03 1929.01,1231.58 1931.17,1231.24 1933.33,1230.9 1935.49,1230.57 1937.66,1230.25 1939.82,1229.92 1941.98,1229.61 1944.14,1229.29 1946.3,1228.98 1948.47,1228.68 1950.63,1228.38 1952.79,1228.08 1954.95,1227.79 1957.11,1227.5 1959.28,1227.21 1961.44,1226.93 1963.6,1226.65 1965.76,1226.38 1967.92,1226.11 1970.09,1225.84 1972.25,1225.57 1974.41,1225.31 1976.57,1225.06 1978.73,1224.8 1980.9,1224.55 1983.06,1224.31 1985.22,1224.07 1987.38,1223.83 1989.54,1223.59 1991.71,1223.35 1993.87,1223.12 1996.03,1222.9 1998.19,1222.67 2000.35,1222.45 2002.52,1222.23 2004.68,1222.02 2006.84,1221.8 2009,1221.59 2011.16,1221.39 2013.33,1221.18 2015.49,1220.98 2017.65,1220.78 2019.81,1220.58 2021.97,1220.39 2024.14,1220.2 2026.3,1220.01 2028.46,1219.82 2030.62,1219.64 2032.78,1219.46 2034.95,1219.28 2037.11,1219.1 2039.27,1218.93 2041.43,1218.76 2043.59,1218.59 2045.76,1218.42 2047.92,1218.26 2050.08,1218.09 2052.24,1217.93 2054.4,1217.77 2056.57,1217.62 2058.73,1217.46 2060.89,1217.31 2063.05,1217.16 2065.21,1217.01 2067.37,1216.86 2069.54,1216.72 2071.7,1216.58 2073.86,1216.44 2076.02,1216.3 2078.18,1216.16 2080.35,1216.02 2082.51,1215.89 2084.67,1215.76 2086.83,1215.63 2088.99,1215.5 2091.16,1215.38 2093.32,1215.25 2095.48,1215.13 2097.64,1215.01 2099.8,1214.89 2101.97,1214.77 2104.13,1214.65 2106.29,1214.54 2108.45,1214.42 2110.61,1214.31 2112.78,1214.2 2114.94,1214.09 2117.1,1213.98 2119.26,1213.88 2121.42,1213.77 2123.59,1213.67 2125.75,1213.56 2127.91,1213.46 2130.07,1213.19 2132.23,1212.58 2134.4,1211.66 2136.56,1210.46 2138.72,1209.03 2140.88,1207.38 2143.04,1205.55 2145.21,1203.56 2147.37,1201.45 2149.53,1199.23 2151.69,1196.93 2153.85,1194.57 2156.02,1192.17 2158.18,1189.75 2160.34,1187.31 2162.5,1184.89 2164.66,1182.49 2166.83,1180.11 2168.99,1177.78 2171.15,1175.5 2173.31,1173.28 2175.47,1171.11 2177.64,1169.01 2179.8,1166.98 2181.96,1165.01 2184.12,1163.1 2186.28,1161.26 2188.45,1159.47 2190.61,1157.73 2192.77,1156.03 2194.93,1154.37 2197.09,1152.72 2199.26,1151.09 2201.42,1149.44 2203.58,1147.78 2205.74,1146.14 2207.9,1144.52 2210.07,1142.92 2212.23,1141.34 2214.39,1139.78 2216.55,1138.24 2218.71,1136.73 2220.88,1135.23 2223.04,1133.75 2225.2,1132.29 2227.36,1130.86 2229.52,1129.44 2231.69,1128.04 2233.85,1126.65 2236.01,1125.29 2238.17,1123.95 2240.33,1122.62 2242.5,1121.31 2244.66,1120.02 2246.82,1118.74 2248.98,1117.48 2251.14,1116.24 2253.3,1115.01 2255.47,1113.81 2257.63,1112.61 2259.79,1111.43 2261.95,1110.27 2264.11,1109.13 2266.28,1108 2268.44,1106.88 2270.6,1105.78 2272.76,1104.69 2274.92,1103.62 2277.09,1102.56 2279.25,1101.52 2281.41,1100.49 2283.57,1099.47 2285.73,1098.47 2287.9,1097.48 2290.06,1096.5 2292.22,1095.54 2294.38,1094.59 2296.54,1093.65 2298.71,1092.72 2300.87,1091.81 2303.03,1090.91 2305.19,1090.02 2307.35,1089.14 2309.52,1088.28 2311.68,1087.42 2313.84,1086.58 2316,1085.75 2318.16,1084.93 2320.33,1084.12 2322.49,1083.32 2324.65,1082.53 2326.81,1081.75 2328.97,1080.98 2331.14,1080.22 2333.3,1079.48 2335.46,1078.74 2337.62,1078.01 2339.78,1077.29 2341.95,1076.58 2344.11,1075.88 2346.27,1075.19 2348.43,1074.51 2350.59,1073.84 2352.76,1073.18 "/>
<polyline clip-path="url(#clip812)" style="stroke:#e26f46; stroke-linecap:round; stroke-linejoin:round; stroke-width:4; stroke-opacity:1; fill:none" points="192.941,1233.39 195.103,1233.39 197.265,1233.39 199.427,1233.39 201.589,1233.39 203.751,1233.39 205.912,1233.39 208.074,1233.39 210.236,1233.39 212.398,1233.39 214.56,1233.39 216.722,1233.39 218.884,1233.39 221.046,1233.39 223.208,1233.39 225.37,1233.39 227.532,1233.39 229.694,1233.39 231.856,1233.39 234.018,1233.39 236.18,1233.39 238.342,1233.39 240.504,1233.39 242.666,1233.39 244.828,1233.39 246.99,1233.39 249.152,1233.39 251.314,1233.39 253.476,1233.39 255.638,1233.39 257.8,1233.39 259.962,1233.39 262.124,1233.39 264.286,1233.39 266.448,1233.39 268.61,1233.39 270.772,1233.39 272.934,1233.39 275.096,1233.39 277.258,1233.39 279.42,1233.39 281.582,1233.39 283.744,1233.39 285.906,1233.39 288.068,1233.39 290.23,1233.39 292.392,1233.39 294.554,1233.39 296.716,1233.39 298.878,1233.39 301.039,1233.39 303.201,1233.39 305.363,1233.39 307.525,1233.39 309.687,1233.39 311.849,1233.39 314.011,1233.39 316.173,1233.39 318.335,1233.39 320.497,1233.39 322.659,1233.39 324.821,1233.39 326.983,1233.39 329.145,1233.39 331.307,1233.39 333.469,1233.39 335.631,1233.39 337.793,1233.39 339.955,1233.39 342.117,1233.39 344.279,1233.39 346.441,1233.39 348.603,1233.39 350.765,1233.39 352.927,1233.39 355.089,1233.39 357.251,1233.39 359.413,1233.39 361.575,1233.39 363.737,1233.39 365.899,1233.39 368.061,1233.39 370.223,1233.39 372.385,1233.39 374.547,1233.39 376.709,1233.39 378.871,1233.39 381.033,1233.39 383.195,1233.39 385.357,1233.39 387.519,1233.39 389.681,1233.39 391.843,1233.39 394.005,1233.39 396.166,1233.39 398.328,1233.39 400.49,1233.39 402.652,1233.39 404.814,1233.39 406.976,1233.39 409.138,907.628 411.3,907.628 413.462,907.628 415.624,907.628 417.786,907.628 419.948,907.628 422.11,907.628 424.272,907.628 426.434,907.628 428.596,907.628 430.758,907.628 432.92,907.628 435.082,907.628 437.244,907.628 439.406,907.628 441.568,907.628 443.73,907.628 445.892,907.628 448.054,907.628 450.216,907.628 452.378,907.628 454.54,907.628 456.702,907.628 458.864,907.628 461.026,907.628 463.188,907.628 465.35,907.628 467.512,907.628 469.674,907.628 471.836,907.628 473.998,907.628 476.16,907.628 478.322,907.628 480.484,907.628 482.646,907.628 484.808,907.628 486.97,907.628 489.132,907.628 491.293,907.628 493.455,907.628 495.617,907.628 497.779,907.628 499.941,907.628 502.103,907.628 504.265,907.628 506.427,907.628 508.589,907.628 510.751,907.628 512.913,907.628 515.075,907.628 517.237,907.628 519.399,907.628 521.561,907.628 523.723,907.628 525.885,907.628 528.047,907.628 530.209,907.628 532.371,907.628 534.533,907.628 536.695,907.628 538.857,907.628 541.019,907.628 543.181,907.628 545.343,907.628 547.505,907.628 549.667,907.628 551.829,907.628 553.991,907.628 556.153,907.628 558.315,907.628 560.477,907.628 562.639,907.628 564.801,907.628 566.963,907.628 569.125,907.628 571.287,907.628 573.449,907.628 575.611,907.628 577.773,907.628 579.935,907.628 582.097,907.628 584.259,907.628 586.42,907.628 588.582,907.628 590.744,907.628 592.906,907.628 595.068,907.628 597.23,907.628 599.392,907.628 601.554,907.628 603.716,907.628 605.878,907.628 608.04,907.628 610.202,907.628 612.364,907.628 614.526,907.628 616.688,907.628 618.85,907.628 621.012,907.628 623.174,907.628 625.336,869.653 627.498,869.653 629.66,869.653 631.822,869.653 633.984,869.653 636.146,869.653 638.308,869.653 640.47,869.653 642.632,869.653 644.794,869.653 646.956,869.653 649.118,869.653 651.28,869.653 653.442,869.653 655.604,869.653 657.766,869.653 659.928,869.653 662.09,869.653 664.252,869.653 666.414,869.653 668.576,869.653 670.738,869.653 672.9,869.653 675.062,869.653 677.224,869.653 679.386,869.653 681.547,869.653 683.709,869.653 685.871,869.653 688.033,869.653 690.195,869.653 692.357,869.653 694.519,869.653 696.681,869.653 698.843,869.653 701.005,869.653 703.167,869.653 705.329,869.653 707.491,869.653 709.653,869.653 711.815,869.653 713.977,869.653 716.139,869.653 718.301,869.653 720.463,869.653 722.625,869.653 724.787,869.653 726.949,869.653 729.111,869.653 731.273,869.653 733.435,869.653 735.597,869.653 737.759,869.653 739.921,869.653 742.083,869.653 744.245,869.653 746.407,869.653 748.569,869.653 750.731,869.653 752.893,869.653 755.055,869.653 757.217,869.653 759.379,869.653 761.541,869.653 763.703,869.653 765.865,869.653 768.027,869.653 770.189,869.653 772.351,869.653 774.513,869.653 776.674,869.653 778.836,869.653 780.998,869.653 783.16,869.653 785.322,869.653 787.484,869.653 789.646,869.653 791.808,869.653 793.97,869.653 796.132,869.653 798.294,869.653 800.456,869.653 802.618,869.653 804.78,869.653 806.942,869.653 809.104,869.653 811.266,869.653 813.428,869.653 815.59,869.653 817.752,869.653 819.914,869.653 822.076,869.653 824.238,869.653 826.4,869.653 828.562,869.653 830.724,869.653 832.886,869.653 835.048,869.653 837.21,869.653 839.372,869.653 841.534,86.1857 843.696,86.1857 845.858,86.1857 848.02,86.1857 850.182,86.1857 852.344,86.1857 854.506,86.1857 856.668,86.1857 858.83,86.1857 860.992,86.1857 863.154,86.1857 865.316,86.1857 867.478,86.1857 869.64,86.1857 871.801,86.1857 873.963,86.1857 876.125,86.1857 878.287,86.1857 880.449,86.1857 882.611,86.1857 884.773,86.1857 886.935,86.1857 889.097,86.1857 891.259,86.1857 893.421,86.1857 895.583,86.1857 897.745,86.1857 899.907,86.1857 902.069,86.1857 904.231,86.1857 906.393,86.1857 908.555,86.1857 910.717,86.1857 912.879,86.1857 915.041,86.1857 917.203,86.1857 919.365,86.1857 921.527,86.1857 923.689,86.1857 925.851,86.1857 928.013,86.1857 930.175,86.1857 932.337,86.1857 934.499,86.1857 936.661,86.1857 938.823,86.1857 940.985,86.1857 943.147,86.1857 945.309,86.1857 947.471,86.1857 949.633,86.1857 951.795,86.1857 953.957,86.1857 956.119,86.1857 958.281,86.1857 960.443,86.1857 962.605,86.1857 964.767,86.1857 966.928,86.1857 969.09,86.1857 971.252,86.1857 973.414,86.1857 975.576,86.1857 977.738,86.1857 979.9,86.1857 982.062,86.1857 984.224,86.1857 986.386,86.1857 988.548,86.1857 990.71,86.1857 992.872,86.1857 995.034,86.1857 997.196,86.1857 999.358,86.1857 1001.52,86.1857 1003.68,86.1857 1005.84,86.1857 1008.01,86.1857 1010.17,86.1857 1012.33,86.1857 1014.49,86.1857 1016.65,86.1857 1018.82,86.1857 1020.98,86.1857 1023.14,86.1857 1025.3,86.1857 1027.46,86.1857 1029.63,86.1857 1031.79,86.1857 1033.95,86.1857 1036.11,86.1857 1038.27,86.1857 1040.44,86.1857 1042.6,86.1857 1044.76,86.1857 1046.92,86.1857 1049.08,86.1857 1051.25,86.1857 1053.41,86.1857 1055.57,86.1857 1057.73,331.51 1059.89,331.51 1062.06,331.51 1064.22,331.51 1066.38,331.51 1068.54,331.51 1070.7,331.51 1072.87,331.51 1075.03,331.51 1077.19,331.51 1079.35,331.51 1081.51,331.51 1083.68,331.51 1085.84,331.51 1088,331.51 1090.16,331.51 1092.32,331.51 1094.49,331.51 1096.65,331.51 1098.81,331.51 1100.97,331.51 1103.13,331.51 1105.3,331.51 1107.46,331.51 1109.62,331.51 1111.78,331.51 1113.94,331.51 1116.1,331.51 1118.27,331.51 1120.43,331.51 1122.59,331.51 1124.75,331.51 1126.91,331.51 1129.08,331.51 1131.24,331.51 1133.4,331.51 1135.56,331.51 1137.72,331.51 1139.89,331.51 1142.05,331.51 1144.21,331.51 1146.37,331.51 1148.53,331.51 1150.7,331.51 1152.86,331.51 1155.02,331.51 1157.18,331.51 1159.34,331.51 1161.51,331.51 1163.67,331.51 1165.83,331.51 1167.99,331.51 1170.15,331.51 1172.32,331.51 1174.48,331.51 1176.64,331.51 1178.8,331.51 1180.96,331.51 1183.13,331.51 1185.29,331.51 1187.45,331.51 1189.61,331.51 1191.77,331.51 1193.94,331.51 1196.1,331.51 1198.26,331.51 1200.42,331.51 1202.58,331.51 1204.75,331.51 1206.91,331.51 1209.07,331.51 1211.23,331.51 1213.39,331.51 1215.56,331.51 1217.72,331.51 1219.88,331.51 1222.04,331.51 1224.2,331.51 1226.37,331.51 1228.53,331.51 1230.69,331.51 1232.85,331.51 1235.01,331.51 1237.18,331.51 1239.34,331.51 1241.5,331.51 1243.66,331.51 1245.82,331.51 1247.99,331.51 1250.15,331.51 1252.31,331.51 1254.47,331.51 1256.63,331.51 1258.8,331.51 1260.96,331.51 1263.12,331.51 1265.28,331.51 1267.44,331.51 1269.61,331.51 1271.77,331.51 1273.93,1142.14 1276.09,1142.14 1278.25,1142.14 1280.42,1142.14 1282.58,1142.14 1284.74,1142.14 1286.9,1142.14 1289.06,1142.14 1291.23,1142.14 1293.39,1142.14 1295.55,1142.14 1297.71,1142.14 1299.87,1142.14 1302.03,1142.14 1304.2,1142.14 1306.36,1142.14 1308.52,1142.14 1310.68,1142.14 1312.84,1142.14 1315.01,1142.14 1317.17,1142.14 1319.33,1142.14 1321.49,1142.14 1323.65,1142.14 1325.82,1142.14 1327.98,1142.14 1330.14,1142.14 1332.3,1142.14 1334.46,1142.14 1336.63,1142.14 1338.79,1142.14 1340.95,1142.14 1343.11,1142.14 1345.27,1142.14 1347.44,1142.14 1349.6,1142.14 1351.76,1142.14 1353.92,1142.14 1356.08,1142.14 1358.25,1142.14 1360.41,1142.14 1362.57,1142.14 1364.73,1142.14 1366.89,1142.14 1369.06,1142.14 1371.22,1142.14 1373.38,1142.14 1375.54,1142.14 1377.7,1142.14 1379.87,1142.14 1382.03,1142.14 1384.19,1142.14 1386.35,1142.14 1388.51,1142.14 1390.68,1142.14 1392.84,1142.14 1395,1142.14 1397.16,1142.14 1399.32,1142.14 1401.49,1142.14 1403.65,1142.14 1405.81,1142.14 1407.97,1142.14 1410.13,1142.14 1412.3,1142.14 1414.46,1142.14 1416.62,1142.14 1418.78,1142.14 1420.94,1142.14 1423.11,1142.14 1425.27,1142.14 1427.43,1142.14 1429.59,1142.14 1431.75,1142.14 1433.92,1142.14 1436.08,1142.14 1438.24,1142.14 1440.4,1142.14 1442.56,1142.14 1444.73,1142.14 1446.89,1142.14 1449.05,1142.14 1451.21,1142.14 1453.37,1142.14 1455.54,1142.14 1457.7,1142.14 1459.86,1142.14 1462.02,1142.14 1464.18,1142.14 1466.35,1142.14 1468.51,1142.14 1470.67,1142.14 1472.83,1142.14 1474.99,1142.14 1477.16,1142.14 1479.32,1142.14 1481.48,1142.14 1483.64,1142.14 1485.8,1142.14 1487.97,1142.14 1490.13,807.747 1492.29,807.747 1494.45,807.747 1496.61,807.747 1498.77,807.747 1500.94,807.747 1503.1,807.747 1505.26,807.747 1507.42,807.747 1509.58,807.747 1511.75,807.747 1513.91,807.747 1516.07,807.747 1518.23,807.747 1520.39,807.747 1522.56,807.747 1524.72,807.747 1526.88,807.747 1529.04,807.747 1531.2,807.747 1533.37,807.747 1535.53,807.747 1537.69,807.747 1539.85,807.747 1542.01,807.747 1544.18,807.747 1546.34,807.747 1548.5,807.747 1550.66,807.747 1552.82,807.747 1554.99,807.747 1557.15,807.747 1559.31,807.747 1561.47,807.747 1563.63,807.747 1565.8,807.747 1567.96,807.747 1570.12,807.747 1572.28,807.747 1574.44,807.747 1576.61,807.747 1578.77,807.747 1580.93,807.747 1583.09,807.747 1585.25,807.747 1587.42,807.747 1589.58,807.747 1591.74,807.747 1593.9,807.747 1596.06,807.747 1598.23,807.747 1600.39,807.747 1602.55,807.747 1604.71,807.747 1606.87,807.747 1609.04,807.747 1611.2,807.747 1613.36,807.747 1615.52,807.747 1617.68,807.747 1619.85,807.747 1622.01,807.747 1624.17,807.747 1626.33,807.747 1628.49,807.747 1630.66,807.747 1632.82,807.747 1634.98,807.747 1637.14,807.747 1639.3,807.747 1641.47,807.747 1643.63,807.747 1645.79,807.747 1647.95,807.747 1650.11,807.747 1652.28,807.747 1654.44,807.747 1656.6,807.747 1658.76,807.747 1660.92,807.747 1663.09,807.747 1665.25,807.747 1667.41,807.747 1669.57,807.747 1671.73,807.747 1673.9,807.747 1676.06,807.747 1678.22,807.747 1680.38,807.747 1682.54,807.747 1684.7,807.747 1686.87,807.747 1689.03,807.747 1691.19,807.747 1693.35,807.747 1695.51,807.747 1697.68,807.747 1699.84,807.747 1702,807.747 1704.16,807.747 1706.32,1384.24 1708.49,1384.24 1710.65,1384.24 1712.81,1384.24 1714.97,1384.24 1717.13,1384.24 1719.3,1384.24 1721.46,1384.24 1723.62,1384.24 1725.78,1384.24 1727.94,1384.24 1730.11,1384.24 1732.27,1384.24 1734.43,1384.24 1736.59,1384.24 1738.75,1384.24 1740.92,1384.24 1743.08,1384.24 1745.24,1384.24 1747.4,1384.24 1749.56,1384.24 1751.73,1384.24 1753.89,1384.24 1756.05,1384.24 1758.21,1384.24 1760.37,1384.24 1762.54,1384.24 1764.7,1384.24 1766.86,1384.24 1769.02,1384.24 1771.18,1384.24 1773.35,1384.24 1775.51,1384.24 1777.67,1384.24 1779.83,1384.24 1781.99,1384.24 1784.16,1384.24 1786.32,1384.24 1788.48,1384.24 1790.64,1384.24 1792.8,1384.24 1794.97,1384.24 1797.13,1384.24 1799.29,1384.24 1801.45,1384.24 1803.61,1384.24 1805.78,1384.24 1807.94,1384.24 1810.1,1384.24 1812.26,1384.24 1814.42,1384.24 1816.59,1384.24 1818.75,1384.24 1820.91,1384.24 1823.07,1384.24 1825.23,1384.24 1827.4,1384.24 1829.56,1384.24 1831.72,1384.24 1833.88,1384.24 1836.04,1384.24 1838.21,1384.24 1840.37,1384.24 1842.53,1384.24 1844.69,1384.24 1846.85,1384.24 1849.02,1384.24 1851.18,1384.24 1853.34,1384.24 1855.5,1384.24 1857.66,1384.24 1859.83,1384.24 1861.99,1384.24 1864.15,1384.24 1866.31,1384.24 1868.47,1384.24 1870.63,1384.24 1872.8,1384.24 1874.96,1384.24 1877.12,1384.24 1879.28,1384.24 1881.44,1384.24 1883.61,1384.24 1885.77,1384.24 1887.93,1384.24 1890.09,1384.24 1892.25,1384.24 1894.42,1384.24 1896.58,1384.24 1898.74,1384.24 1900.9,1384.24 1903.06,1384.24 1905.23,1384.24 1907.39,1384.24 1909.55,1384.24 1911.71,1384.24 1913.87,1384.24 1916.04,1384.24 1918.2,1384.24 1920.36,1384.24 1922.52,1205.96 1924.68,1205.96 1926.85,1205.96 1929.01,1205.96 1931.17,1205.96 1933.33,1205.96 1935.49,1205.96 1937.66,1205.96 1939.82,1205.96 1941.98,1205.96 1944.14,1205.96 1946.3,1205.96 1948.47,1205.96 1950.63,1205.96 1952.79,1205.96 1954.95,1205.96 1957.11,1205.96 1959.28,1205.96 1961.44,1205.96 1963.6,1205.96 1965.76,1205.96 1967.92,1205.96 1970.09,1205.96 1972.25,1205.96 1974.41,1205.96 1976.57,1205.96 1978.73,1205.96 1980.9,1205.96 1983.06,1205.96 1985.22,1205.96 1987.38,1205.96 1989.54,1205.96 1991.71,1205.96 1993.87,1205.96 1996.03,1205.96 1998.19,1205.96 2000.35,1205.96 2002.52,1205.96 2004.68,1205.96 2006.84,1205.96 2009,1205.96 2011.16,1205.96 2013.33,1205.96 2015.49,1205.96 2017.65,1205.96 2019.81,1205.96 2021.97,1205.96 2024.14,1205.96 2026.3,1205.96 2028.46,1205.96 2030.62,1205.96 2032.78,1205.96 2034.95,1205.96 2037.11,1205.96 2039.27,1205.96 2041.43,1205.96 2043.59,1205.96 2045.76,1205.96 2047.92,1205.96 2050.08,1205.96 2052.24,1205.96 2054.4,1205.96 2056.57,1205.96 2058.73,1205.96 2060.89,1205.96 2063.05,1205.96 2065.21,1205.96 2067.37,1205.96 2069.54,1205.96 2071.7,1205.96 2073.86,1205.96 2076.02,1205.96 2078.18,1205.96 2080.35,1205.96 2082.51,1205.96 2084.67,1205.96 2086.83,1205.96 2088.99,1205.96 2091.16,1205.96 2093.32,1205.96 2095.48,1205.96 2097.64,1205.96 2099.8,1205.96 2101.97,1205.96 2104.13,1205.96 2106.29,1205.96 2108.45,1205.96 2110.61,1205.96 2112.78,1205.96 2114.94,1205.96 2117.1,1205.96 2119.26,1205.96 2121.42,1205.96 2123.59,1205.96 2125.75,1205.96 2127.91,1205.96 2130.07,1205.96 2132.23,1205.96 2134.4,1205.96 2136.56,1205.96 2138.72,1023.82 2140.88,1023.82 2143.04,1023.82 2145.21,1023.82 2147.37,1023.82 2149.53,1023.82 2151.69,1023.82 2153.85,1023.82 2156.02,1023.82 2158.18,1023.82 2160.34,1023.82 2162.5,1023.82 2164.66,1023.82 2166.83,1023.82 2168.99,1023.82 2171.15,1023.82 2173.31,1023.82 2175.47,1023.82 2177.64,1023.82 2179.8,1023.82 2181.96,1023.82 2184.12,1023.82 2186.28,1023.82 2188.45,1023.82 2190.61,1023.82 2192.77,1023.82 2194.93,1023.82 2197.09,1023.82 2199.26,1023.82 2201.42,1023.82 2203.58,1023.82 2205.74,1023.82 2207.9,1023.82 2210.07,1023.82 2212.23,1023.82 2214.39,1023.82 2216.55,1023.82 2218.71,1023.82 2220.88,1023.82 2223.04,1023.82 2225.2,1023.82 2227.36,1023.82 2229.52,1023.82 2231.69,1023.82 2233.85,1023.82 2236.01,1023.82 2238.17,1023.82 2240.33,1023.82 2242.5,1023.82 2244.66,1023.82 2246.82,1023.82 2248.98,1023.82 2251.14,1023.82 2253.3,1023.82 2255.47,1023.82 2257.63,1023.82 2259.79,1023.82 2261.95,1023.82 2264.11,1023.82 2266.28,1023.82 2268.44,1023.82 2270.6,1023.82 2272.76,1023.82 2274.92,1023.82 2277.09,1023.82 2279.25,1023.82 2281.41,1023.82 2283.57,1023.82 2285.73,1023.82 2287.9,1023.82 2290.06,1023.82 2292.22,1023.82 2294.38,1023.82 2296.54,1023.82 2298.71,1023.82 2300.87,1023.82 2303.03,1023.82 2305.19,1023.82 2307.35,1023.82 2309.52,1023.82 2311.68,1023.82 2313.84,1023.82 2316,1023.82 2318.16,1023.82 2320.33,1023.82 2322.49,1023.82 2324.65,1023.82 2326.81,1023.82 2328.97,1023.82 2331.14,1023.82 2333.3,1023.82 2335.46,1023.82 2337.62,1023.82 2339.78,1023.82 2341.95,1023.82 2344.11,1023.82 2346.27,1023.82 2348.43,1023.82 2350.59,1023.82 2352.76,1023.82 "/>
<path clip-path="url(#clip810)" d="M2039.64 248.629 L2280.76 248.629 L2280.76 93.1086 L2039.64 93.1086  Z" fill="#ffffff" fill-rule="evenodd" fill-opacity="1"/>
<polyline clip-path="url(#clip810)" style="stroke:#000000; stroke-linecap:round; stroke-linejoin:round; stroke-width:4; stroke-opacity:1; fill:none" points="2039.64,248.629 2280.76,248.629 2280.76,93.1086 2039.64,93.1086 2039.64,248.629 "/>
<polyline clip-path="url(#clip810)" style="stroke:#009af9; stroke-linecap:round; stroke-linejoin:round; stroke-width:4; stroke-opacity:1; fill:none" points="2063.64,144.949 2207.63,144.949 "/>
<path clip-path="url(#clip810)" d="M2256.28 136.303 L2246.9 148.919 L2256.76 162.229 L2251.74 162.229 L2244.19 152.043 L2236.65 162.229 L2231.63 162.229 L2241.69 148.664 L2232.48 136.303 L2237.5 136.303 L2244.38 145.539 L2251.25 136.303 L2256.28 136.303 Z" fill="#000000" fill-rule="nonzero" fill-opacity="1" /><polyline clip-path="url(#clip810)" style="stroke:#e26f46; stroke-linecap:round; stroke-linejoin:round; stroke-width:4; stroke-opacity:1; fill:none" points="2063.64,196.789 2207.63,196.789 "/>
<path clip-path="url(#clip810)" d="M2248.13 178.05 L2248.13 181.592 L2244.06 181.592 Q2241.76 181.592 2240.86 182.518 Q2239.98 183.444 2239.98 185.851 L2239.98 188.143 L2247 188.143 L2247 191.453 L2239.98 191.453 L2239.98 214.069 L2235.7 214.069 L2235.7 191.453 L2231.63 191.453 L2231.63 188.143 L2235.7 188.143 L2235.7 186.337 Q2235.7 182.009 2237.71 180.041 Q2239.73 178.05 2244.1 178.05 L2248.13 178.05 Z" fill="#000000" fill-rule="nonzero" fill-opacity="1" /></svg>
