<?xml version="1.0" encoding="utf-8"?>
<svg xmlns="http://www.w3.org/2000/svg" xmlns:xlink="http://www.w3.org/1999/xlink" width="600" height="400" viewBox="0 0 2400 1600">
<defs>
  <clipPath id="clip110">
    <rect x="0" y="0" width="2400" height="1600"/>
  </clipPath>
</defs>
<path clip-path="url(#clip110)" d="M0 1600 L2400 1600 L2400 0 L0 0  Z" fill="#ffffff" fill-rule="evenodd" fill-opacity="1"/>
<defs>
  <clipPath id="clip111">
    <rect x="480" y="0" width="1681" height="1600"/>
  </clipPath>
</defs>
<path clip-path="url(#clip110)" d="M147.478 1423.18 L2352.76 1423.18 L2352.76 47.2441 L147.478 47.2441  Z" fill="#ffffff" fill-rule="evenodd" fill-opacity="1"/>
<defs>
  <clipPath id="clip112">
    <rect x="147" y="47" width="2206" height="1377"/>
  </clipPath>
</defs>
<polyline clip-path="url(#clip112)" style="stroke:#000000; stroke-linecap:round; stroke-linejoin:round; stroke-width:2; stroke-opacity:0.1; fill:none" points="147.478,1423.18 147.478,47.2441 "/>
<polyline clip-path="url(#clip112)" style="stroke:#000000; stroke-linecap:round; stroke-linejoin:round; stroke-width:2; stroke-opacity:0.1; fill:none" points="588.534,1423.18 588.534,47.2441 "/>
<polyline clip-path="url(#clip112)" style="stroke:#000000; stroke-linecap:round; stroke-linejoin:round; stroke-width:2; stroke-opacity:0.1; fill:none" points="1029.59,1423.18 1029.59,47.2441 "/>
<polyline clip-path="url(#clip112)" style="stroke:#000000; stroke-linecap:round; stroke-linejoin:round; stroke-width:2; stroke-opacity:0.1; fill:none" points="1470.64,1423.18 1470.64,47.2441 "/>
<polyline clip-path="url(#clip112)" style="stroke:#000000; stroke-linecap:round; stroke-linejoin:round; stroke-width:2; stroke-opacity:0.1; fill:none" points="1911.7,1423.18 1911.7,47.2441 "/>
<polyline clip-path="url(#clip112)" style="stroke:#000000; stroke-linecap:round; stroke-linejoin:round; stroke-width:2; stroke-opacity:0.1; fill:none" points="2352.76,1423.18 2352.76,47.2441 "/>
<polyline clip-path="url(#clip110)" style="stroke:#000000; stroke-linecap:round; stroke-linejoin:round; stroke-width:4; stroke-opacity:1; fill:none" points="147.478,1423.18 2352.76,1423.18 "/>
<polyline clip-path="url(#clip110)" style="stroke:#000000; stroke-linecap:round; stroke-linejoin:round; stroke-width:4; stroke-opacity:1; fill:none" points="147.478,1423.18 147.478,1404.28 "/>
<polyline clip-path="url(#clip110)" style="stroke:#000000; stroke-linecap:round; stroke-linejoin:round; stroke-width:4; stroke-opacity:1; fill:none" points="588.534,1423.18 588.534,1404.28 "/>
<polyline clip-path="url(#clip110)" style="stroke:#000000; stroke-linecap:round; stroke-linejoin:round; stroke-width:4; stroke-opacity:1; fill:none" points="1029.59,1423.18 1029.59,1404.28 "/>
<polyline clip-path="url(#clip110)" style="stroke:#000000; stroke-linecap:round; stroke-linejoin:round; stroke-width:4; stroke-opacity:1; fill:none" points="1470.64,1423.18 1470.64,1404.28 "/>
<polyline clip-path="url(#clip110)" style="stroke:#000000; stroke-linecap:round; stroke-linejoin:round; stroke-width:4; stroke-opacity:1; fill:none" points="1911.7,1423.18 1911.7,1404.28 "/>
<polyline clip-path="url(#clip110)" style="stroke:#000000; stroke-linecap:round; stroke-linejoin:round; stroke-width:4; stroke-opacity:1; fill:none" points="2352.76,1423.18 2352.76,1404.28 "/>
<path clip-path="url(#clip110)" d="M147.478 1454.1 Q143.867 1454.1 142.038 1457.66 Q140.233 1461.2 140.233 1468.33 Q140.233 1475.44 142.038 1479.01 Q143.867 1482.55 147.478 1482.55 Q151.112 1482.55 152.918 1479.01 Q154.746 1475.44 154.746 1468.33 Q154.746 1461.2 152.918 1457.66 Q151.112 1454.1 147.478 1454.1 M147.478 1450.39 Q153.288 1450.39 156.344 1455 Q159.422 1459.58 159.422 1468.33 Q159.422 1477.06 156.344 1481.67 Q153.288 1486.25 147.478 1486.25 Q141.668 1486.25 138.589 1481.67 Q135.534 1477.06 135.534 1468.33 Q135.534 1459.58 138.589 1455 Q141.668 1450.39 147.478 1450.39 Z" fill="#000000" fill-rule="nonzero" fill-opacity="1" /><path clip-path="url(#clip110)" d="M583.186 1481.64 L599.506 1481.64 L599.506 1485.58 L577.561 1485.58 L577.561 1481.64 Q580.223 1478.89 584.807 1474.26 Q589.413 1469.61 590.594 1468.27 Q592.839 1465.74 593.719 1464.01 Q594.621 1462.25 594.621 1460.56 Q594.621 1457.8 592.677 1456.07 Q590.756 1454.33 587.654 1454.33 Q585.455 1454.33 583.001 1455.09 Q580.571 1455.86 577.793 1457.41 L577.793 1452.69 Q580.617 1451.55 583.071 1450.97 Q585.524 1450.39 587.561 1450.39 Q592.932 1450.39 596.126 1453.08 Q599.32 1455.77 599.32 1460.26 Q599.32 1462.39 598.51 1464.31 Q597.723 1466.2 595.617 1468.8 Q595.038 1469.47 591.936 1472.69 Q588.834 1475.88 583.186 1481.64 Z" fill="#000000" fill-rule="nonzero" fill-opacity="1" /><path clip-path="url(#clip110)" d="M1032.6 1455.09 L1020.79 1473.54 L1032.6 1473.54 L1032.6 1455.09 M1031.37 1451.02 L1037.25 1451.02 L1037.25 1473.54 L1042.18 1473.54 L1042.18 1477.43 L1037.25 1477.43 L1037.25 1485.58 L1032.6 1485.58 L1032.6 1477.43 L1017 1477.43 L1017 1472.92 L1031.37 1451.02 Z" fill="#000000" fill-rule="nonzero" fill-opacity="1" /><path clip-path="url(#clip110)" d="M1471.05 1466.44 Q1467.9 1466.44 1466.05 1468.59 Q1464.22 1470.74 1464.22 1474.49 Q1464.22 1478.22 1466.05 1480.39 Q1467.9 1482.55 1471.05 1482.55 Q1474.2 1482.55 1476.03 1480.39 Q1477.88 1478.22 1477.88 1474.49 Q1477.88 1470.74 1476.03 1468.59 Q1474.2 1466.44 1471.05 1466.44 M1480.33 1451.78 L1480.33 1456.04 Q1478.57 1455.21 1476.77 1454.77 Q1474.98 1454.33 1473.23 1454.33 Q1468.6 1454.33 1466.14 1457.45 Q1463.71 1460.58 1463.36 1466.9 Q1464.73 1464.89 1466.79 1463.82 Q1468.85 1462.73 1471.33 1462.73 Q1476.54 1462.73 1479.55 1465.9 Q1482.58 1469.05 1482.58 1474.49 Q1482.58 1479.82 1479.43 1483.03 Q1476.28 1486.25 1471.05 1486.25 Q1465.05 1486.25 1461.88 1481.67 Q1458.71 1477.06 1458.71 1468.33 Q1458.71 1460.14 1462.6 1455.28 Q1466.49 1450.39 1473.04 1450.39 Q1474.8 1450.39 1476.58 1450.74 Q1478.39 1451.09 1480.33 1451.78 Z" fill="#000000" fill-rule="nonzero" fill-opacity="1" /><path clip-path="url(#clip110)" d="M1911.7 1469.17 Q1908.37 1469.17 1906.45 1470.95 Q1904.55 1472.73 1904.55 1475.86 Q1904.55 1478.98 1906.45 1480.77 Q1908.37 1482.55 1911.7 1482.55 Q1915.03 1482.55 1916.95 1480.77 Q1918.88 1478.96 1918.88 1475.86 Q1918.88 1472.73 1916.95 1470.95 Q1915.06 1469.17 1911.7 1469.17 M1907.02 1467.18 Q1904.02 1466.44 1902.33 1464.38 Q1900.66 1462.32 1900.66 1459.35 Q1900.66 1455.21 1903.6 1452.8 Q1906.56 1450.39 1911.7 1450.39 Q1916.86 1450.39 1919.8 1452.8 Q1922.74 1455.21 1922.74 1459.35 Q1922.74 1462.32 1921.05 1464.38 Q1919.39 1466.44 1916.4 1467.18 Q1919.78 1467.96 1921.65 1470.26 Q1923.55 1472.55 1923.55 1475.86 Q1923.55 1480.88 1920.47 1483.57 Q1917.42 1486.25 1911.7 1486.25 Q1905.98 1486.25 1902.9 1483.57 Q1899.85 1480.88 1899.85 1475.86 Q1899.85 1472.55 1901.75 1470.26 Q1903.64 1467.96 1907.02 1467.18 M1905.31 1459.79 Q1905.31 1462.48 1906.98 1463.98 Q1908.67 1465.49 1911.7 1465.49 Q1914.71 1465.49 1916.4 1463.98 Q1918.11 1462.48 1918.11 1459.79 Q1918.11 1457.11 1916.4 1455.6 Q1914.71 1454.1 1911.7 1454.1 Q1908.67 1454.1 1906.98 1455.6 Q1905.31 1457.11 1905.31 1459.79 Z" fill="#000000" fill-rule="nonzero" fill-opacity="1" /><path clip-path="url(#clip110)" d="M2327.44 1481.64 L2335.08 1481.64 L2335.08 1455.28 L2326.77 1456.95 L2326.77 1452.69 L2335.04 1451.02 L2339.71 1451.02 L2339.71 1481.64 L2347.35 1481.64 L2347.35 1485.58 L2327.44 1485.58 L2327.44 1481.64 Z" fill="#000000" fill-rule="nonzero" fill-opacity="1" /><path clip-path="url(#clip110)" d="M2366.8 1454.1 Q2363.18 1454.1 2361.36 1457.66 Q2359.55 1461.2 2359.55 1468.33 Q2359.55 1475.44 2361.36 1479.01 Q2363.18 1482.55 2366.8 1482.55 Q2370.43 1482.55 2372.23 1479.01 Q2374.06 1475.44 2374.06 1468.33 Q2374.06 1461.2 2372.23 1457.66 Q2370.43 1454.1 2366.8 1454.1 M2366.8 1450.39 Q2372.61 1450.39 2375.66 1455 Q2378.74 1459.58 2378.74 1468.33 Q2378.74 1477.06 2375.66 1481.67 Q2372.61 1486.25 2366.8 1486.25 Q2360.99 1486.25 2357.91 1481.67 Q2354.85 1477.06 2354.85 1468.33 Q2354.85 1459.58 2357.91 1455 Q2360.99 1450.39 2366.8 1450.39 Z" fill="#000000" fill-rule="nonzero" fill-opacity="1" /><path clip-path="url(#clip110)" d="M1249.18 1522.27 L1249.18 1532.4 L1261.24 1532.4 L1261.24 1536.95 L1249.18 1536.95 L1249.18 1556.3 Q1249.18 1560.66 1250.36 1561.9 Q1251.57 1563.14 1255.23 1563.14 L1261.24 1563.14 L1261.24 1568.04 L1255.23 1568.04 Q1248.45 1568.04 1245.87 1565.53 Q1243.29 1562.98 1243.29 1556.3 L1243.29 1536.95 L1238.99 1536.95 L1238.99 1532.4 L1243.29 1532.4 L1243.29 1522.27 L1249.18 1522.27 Z" fill="#000000" fill-rule="nonzero" fill-opacity="1" /><polyline clip-path="url(#clip112)" style="stroke:#000000; stroke-linecap:round; stroke-linejoin:round; stroke-width:2; stroke-opacity:0.1; fill:none" points="147.478,1333.9 2352.76,1333.9 "/>
<polyline clip-path="url(#clip112)" style="stroke:#000000; stroke-linecap:round; stroke-linejoin:round; stroke-width:2; stroke-opacity:0.1; fill:none" points="147.478,980.412 2352.76,980.412 "/>
<polyline clip-path="url(#clip112)" style="stroke:#000000; stroke-linecap:round; stroke-linejoin:round; stroke-width:2; stroke-opacity:0.1; fill:none" points="147.478,626.921 2352.76,626.921 "/>
<polyline clip-path="url(#clip112)" style="stroke:#000000; stroke-linecap:round; stroke-linejoin:round; stroke-width:2; stroke-opacity:0.1; fill:none" points="147.478,273.43 2352.76,273.43 "/>
<polyline clip-path="url(#clip110)" style="stroke:#000000; stroke-linecap:round; stroke-linejoin:round; stroke-width:4; stroke-opacity:1; fill:none" points="147.478,1423.18 147.478,47.2441 "/>
<polyline clip-path="url(#clip110)" style="stroke:#000000; stroke-linecap:round; stroke-linejoin:round; stroke-width:4; stroke-opacity:1; fill:none" points="147.478,1333.9 166.376,1333.9 "/>
<polyline clip-path="url(#clip110)" style="stroke:#000000; stroke-linecap:round; stroke-linejoin:round; stroke-width:4; stroke-opacity:1; fill:none" points="147.478,980.412 166.376,980.412 "/>
<polyline clip-path="url(#clip110)" style="stroke:#000000; stroke-linecap:round; stroke-linejoin:round; stroke-width:4; stroke-opacity:1; fill:none" points="147.478,626.921 166.376,626.921 "/>
<polyline clip-path="url(#clip110)" style="stroke:#000000; stroke-linecap:round; stroke-linejoin:round; stroke-width:4; stroke-opacity:1; fill:none" points="147.478,273.43 166.376,273.43 "/>
<path clip-path="url(#clip110)" d="M51.3625 1334.35 L81.0383 1334.35 L81.0383 1338.29 L51.3625 1338.29 L51.3625 1334.35 Z" fill="#000000" fill-rule="nonzero" fill-opacity="1" /><path clip-path="url(#clip110)" d="M95.1586 1347.25 L111.478 1347.25 L111.478 1351.18 L89.5336 1351.18 L89.5336 1347.25 Q92.1956 1344.49 96.7789 1339.86 Q101.385 1335.21 102.566 1333.87 Q104.811 1331.35 105.691 1329.61 Q106.594 1327.85 106.594 1326.16 Q106.594 1323.41 104.649 1321.67 Q102.728 1319.93 99.6261 1319.93 Q97.4271 1319.93 94.9734 1320.7 Q92.5428 1321.46 89.7651 1323.01 L89.7651 1318.29 Q92.5891 1317.16 95.0428 1316.58 Q97.4965 1316 99.5335 1316 Q104.904 1316 108.098 1318.68 Q111.293 1321.37 111.293 1325.86 Q111.293 1327.99 110.483 1329.91 Q109.696 1331.81 107.589 1334.4 Q107.01 1335.07 103.909 1338.29 Q100.807 1341.48 95.1586 1347.25 Z" fill="#000000" fill-rule="nonzero" fill-opacity="1" /><path clip-path="url(#clip110)" d="M50.9921 980.864 L80.6679 980.864 L80.6679 984.799 L50.9921 984.799 L50.9921 980.864 Z" fill="#000000" fill-rule="nonzero" fill-opacity="1" /><path clip-path="url(#clip110)" d="M91.5706 993.757 L99.2095 993.757 L99.2095 967.392 L90.8993 969.058 L90.8993 964.799 L99.1632 963.132 L103.839 963.132 L103.839 993.757 L111.478 993.757 L111.478 997.692 L91.5706 997.692 L91.5706 993.757 Z" fill="#000000" fill-rule="nonzero" fill-opacity="1" /><path clip-path="url(#clip110)" d="M99.5335 612.72 Q95.9224 612.72 94.0937 616.285 Q92.2882 619.826 92.2882 626.956 Q92.2882 634.062 94.0937 637.627 Q95.9224 641.169 99.5335 641.169 Q103.168 641.169 104.973 637.627 Q106.802 634.062 106.802 626.956 Q106.802 619.826 104.973 616.285 Q103.168 612.72 99.5335 612.72 M99.5335 609.016 Q105.344 609.016 108.399 613.623 Q111.478 618.206 111.478 626.956 Q111.478 635.683 108.399 640.289 Q105.344 644.873 99.5335 644.873 Q93.7234 644.873 90.6447 640.289 Q87.5892 635.683 87.5892 626.956 Q87.5892 618.206 90.6447 613.623 Q93.7234 609.016 99.5335 609.016 Z" fill="#000000" fill-rule="nonzero" fill-opacity="1" /><path clip-path="url(#clip110)" d="M91.5706 286.775 L99.2095 286.775 L99.2095 260.409 L90.8993 262.076 L90.8993 257.817 L99.1632 256.15 L103.839 256.15 L103.839 286.775 L111.478 286.775 L111.478 290.71 L91.5706 290.71 L91.5706 286.775 Z" fill="#000000" fill-rule="nonzero" fill-opacity="1" /><polyline clip-path="url(#clip112)" style="stroke:#009af9; stroke-linecap:round; stroke-linejoin:round; stroke-width:4; stroke-opacity:1; fill:none" points="147.478,626.921 149.685,625.414 151.893,623.926 154.1,622.459 156.308,621.01 158.515,619.581 160.723,618.171 162.93,616.78 165.138,615.407 167.345,614.052 169.553,612.715 171.76,611.396 173.968,610.095 176.175,608.811 178.383,607.543 180.59,606.293 182.798,605.059 185.005,603.841 187.213,602.64 189.42,601.454 191.628,600.285 193.835,599.13 196.043,597.991 198.25,596.868 200.458,595.759 202.665,594.664 204.873,593.585 207.08,592.519 209.288,591.468 211.495,590.43 213.702,589.407 215.91,588.397 218.117,587.4 220.325,586.417 222.532,585.446 224.74,584.489 226.947,583.544 229.155,582.612 231.362,581.692 233.57,580.784 235.777,579.888 237.985,579.004 240.192,578.132 242.4,577.272 244.607,576.423 246.815,575.585 249.022,574.758 251.23,573.942 253.437,573.137 255.645,572.343 257.852,571.559 260.06,570.786 262.267,570.022 264.475,569.269 266.682,568.526 268.89,567.793 271.097,567.07 273.305,566.356 275.512,565.651 277.72,564.956 279.927,564.27 282.135,563.594 284.342,562.926 286.549,562.267 288.757,561.616 290.964,560.975 293.172,560.342 295.379,559.717 297.587,559.101 299.794,558.492 302.002,557.892 304.209,557.3 306.417,556.716 308.624,556.139 310.832,555.57 313.039,555.009 315.247,554.455 317.454,553.908 319.662,553.369 321.869,552.836 324.077,552.311 326.284,551.793 328.492,551.282 330.699,550.777 332.907,550.279 335.114,549.788 337.322,549.303 339.529,548.825 341.737,548.353 343.944,547.887 346.152,547.428 348.359,546.974 350.567,546.527 352.774,546.085 354.982,545.649 357.189,545.219 359.397,544.795 361.604,544.377 363.811,543.964 366.019,543.556 368.226,543.457 370.434,543.895 372.641,544.802 374.849,546.114 377.056,547.772 379.264,549.718 381.471,551.901 383.679,554.271 385.886,556.785 388.094,559.401 390.301,562.083 392.509,564.798 394.716,567.516 396.924,570.212 399.131,572.865 401.339,575.458 403.546,577.976 405.754,580.411 407.961,582.757 410.169,585.01 412.376,587.175 414.584,589.255 416.791,591.262 418.999,593.208 421.206,595.112 423.414,596.994 425.621,598.879 427.829,600.796 430.036,602.712 432.244,604.602 434.451,606.467 436.659,608.307 438.866,610.123 441.073,611.914 443.281,613.682 445.488,615.427 447.696,617.148 449.903,618.847 452.111,620.523 454.318,622.177 456.526,623.809 458.733,625.419 460.941,627.008 463.148,628.576 465.356,630.123 467.563,631.649 469.771,633.156 471.978,634.642 474.186,636.109 476.393,637.556 478.601,638.984 480.808,640.393 483.016,641.784 485.223,643.156 487.431,644.51 489.638,645.845 491.846,647.164 494.053,648.464 496.261,649.748 498.468,651.014 500.676,652.263 502.883,653.496 505.091,654.713 507.298,655.914 509.506,657.098 511.713,658.267 513.921,659.42 516.128,660.558 518.335,661.681 520.543,662.79 522.75,663.883 524.958,664.962 527.165,666.027 529.373,667.077 531.58,668.114 533.788,669.137 535.995,670.146 538.203,671.142 540.41,672.125 542.618,673.094 544.825,674.051 547.033,674.995 549.24,675.927 551.448,676.846 553.655,677.753 555.863,678.648 558.07,679.532 560.278,680.403 562.485,681.263 564.693,682.112 566.9,682.949 569.108,683.775 571.315,684.59 573.523,685.395 575.73,686.189 577.938,686.972 580.145,687.745 582.353,688.507 584.56,689.26 586.768,690.002 588.975,691.1 591.182,693.192 593.39,696.111 595.597,699.681 597.805,703.746 600.012,708.164 602.22,712.811 604.427,717.579 606.635,722.377 608.842,727.131 611.05,731.784 613.257,736.294 615.465,740.639 617.672,744.81 619.88,748.817 622.087,752.686 624.295,756.461 626.502,760.201 628.71,763.978 630.917,767.746 633.125,771.464 635.332,775.133 637.54,778.754 639.747,782.326 641.955,785.852 644.162,789.33 646.37,792.762 648.577,796.149 650.785,799.491 652.992,802.788 655.2,806.042 657.407,809.253 659.615,812.421 661.822,815.548 664.03,818.633 666.237,821.676 668.444,824.68 670.652,827.644 672.859,830.568 675.067,833.454 677.274,836.301 679.482,839.111 681.689,841.883 683.897,844.618 686.104,847.318 688.312,849.981 690.519,852.609 692.727,855.202 694.934,857.761 697.142,860.286 699.349,862.777 701.557,865.236 703.764,867.661 705.972,870.055 708.179,872.417 710.387,874.747 712.594,877.047 714.802,879.316 717.009,881.555 719.217,883.765 721.424,885.945 723.632,888.096 725.839,890.219 728.047,892.314 730.254,894.381 732.462,896.42 734.669,898.433 736.877,900.418 739.084,902.378 741.292,904.311 743.499,906.219 745.706,908.102 747.914,909.959 750.121,911.792 752.329,913.601 754.536,915.386 756.744,917.147 758.951,918.884 761.159,920.599 763.366,922.291 765.574,923.96 767.781,925.607 769.989,927.233 772.196,928.837 774.404,930.419 776.611,931.981 778.819,933.522 781.026,935.043 783.234,936.543 785.441,938.023 787.649,939.483 789.856,940.782 792.064,941.843 794.271,942.687 796.479,943.335 798.686,943.807 800.894,944.12 803.101,944.293 805.309,944.344 807.516,944.287 809.724,944.138 811.931,943.912 814.139,943.621 816.346,943.278 818.553,942.895 820.761,942.483 822.968,942.05 825.176,941.606 827.383,941.158 829.591,940.715 831.798,940.281 834.006,939.862 836.213,939.463 838.421,939.087 840.628,938.735 842.836,938.411 845.043,938.114 847.251,937.845 849.458,937.603 851.666,937.384 853.873,937.187 856.081,937.008 858.288,936.841 860.496,936.682 862.703,936.524 864.911,936.36 867.118,936.18 869.326,935.977 871.533,935.767 873.741,935.559 875.948,935.355 878.156,935.152 880.363,934.953 882.571,934.756 884.778,934.562 886.986,934.371 889.193,934.182 891.401,933.995 893.608,933.811 895.815,933.629 898.023,933.45 900.23,933.273 902.438,933.099 904.645,932.927 906.853,932.757 909.06,932.589 911.268,932.424 913.475,932.26 915.683,932.099 917.89,931.94 920.098,931.784 922.305,931.629 924.513,931.476 926.72,931.325 928.928,931.177 931.135,931.03 933.343,930.885 935.55,930.742 937.758,930.602 939.965,930.462 942.173,930.325 944.38,930.19 946.588,930.056 948.795,929.924 951.003,929.794 953.21,929.666 955.418,929.539 957.625,929.414 959.833,929.291 962.04,929.169 964.248,929.049 966.455,928.931 968.663,928.814 970.87,928.698 973.077,928.585 975.285,928.472 977.492,928.361 979.7,928.252 981.907,928.144 984.115,928.038 986.322,927.932 988.53,927.829 990.737,927.726 992.945,927.626 995.152,927.526 997.36,927.428 999.567,927.331 1001.77,927.235 1003.98,927.14 1006.19,927.047 1008.4,927.199 1010.6,927.859 1012.81,928.613 1015.02,929.107 1017.23,929.064 1019.43,928.289 1021.64,926.664 1023.85,924.153 1026.06,920.797 1028.26,916.721 1030.47,912.124 1032.68,907.289 1034.89,902.576 1037.09,898.185 1039.3,893.862 1041.51,889.597 1043.72,885.388 1045.92,881.235 1048.13,877.136 1050.34,873.093 1052.55,869.102 1054.75,865.165 1056.96,861.28 1059.17,857.446 1061.38,853.663 1063.58,849.93 1065.79,846.247 1068,842.613 1070.21,839.027 1072.41,835.488 1074.62,831.996 1076.83,828.551 1079.04,825.151 1081.24,821.797 1083.45,818.487 1085.66,815.221 1087.87,811.998 1090.07,808.818 1092.28,805.68 1094.49,802.584 1096.7,799.528 1098.9,796.514 1101.11,793.539 1103.32,790.604 1105.53,787.707 1107.73,784.849 1109.94,782.029 1112.15,779.247 1114.36,776.501 1116.56,773.791 1118.77,771.118 1120.98,768.48 1123.19,765.876 1125.39,763.308 1127.6,760.773 1129.81,758.272 1132.02,755.804 1134.22,753.369 1136.43,750.966 1138.64,748.595 1140.85,746.255 1143.05,743.947 1145.26,741.669 1147.47,739.421 1149.68,737.203 1151.88,735.015 1154.09,732.855 1156.3,730.724 1158.51,728.622 1160.71,726.547 1162.92,724.5 1165.13,722.48 1167.34,720.486 1169.54,718.52 1171.75,716.579 1173.96,714.664 1176.17,712.774 1178.37,710.909 1180.58,709.069 1182.79,707.254 1185,705.463 1187.2,703.695 1189.41,701.95 1191.62,700.229 1193.83,698.531 1196.03,696.855 1198.24,695.202 1200.45,693.57 1202.66,691.96 1204.86,690.371 1207.07,688.804 1209.28,687.257 1211.49,685.73 1213.69,684.224 1215.9,682.738 1218.11,681.272 1220.32,679.825 1222.52,678.397 1224.73,676.988 1226.94,675.598 1229.15,674.226 1231.35,672.873 1233.56,671.537 1235.77,670.219 1237.98,668.919 1240.18,667.635 1242.39,666.369 1244.6,665.12 1246.81,663.887 1249.01,663.416 1251.22,665.566 1253.43,669.983 1255.64,676.213 1257.84,683.846 1260.05,692.514 1262.26,701.89 1264.47,711.688 1266.67,721.664 1268.88,731.615 1271.09,741.382 1273.3,750.844 1275.5,759.924 1277.71,768.585 1279.92,776.834 1282.13,784.718 1284.33,792.324 1286.54,799.782 1288.75,807.266 1290.96,814.89 1293.16,822.439 1295.37,829.887 1297.58,837.237 1299.79,844.489 1301.99,851.645 1304.2,858.706 1306.41,865.673 1308.62,872.549 1310.82,879.333 1313.03,886.027 1315.24,892.632 1317.45,899.15 1319.65,905.582 1321.86,911.928 1324.07,918.191 1326.28,924.37 1328.48,930.467 1330.69,936.483 1332.9,942.42 1335.11,948.278 1337.31,954.058 1339.52,959.761 1341.73,965.389 1343.94,970.942 1346.14,976.421 1348.35,981.828 1350.56,987.163 1352.76,992.427 1354.97,997.622 1357.18,1002.75 1359.39,1007.8 1361.59,1012.8 1363.8,1017.72 1366.01,1022.58 1368.22,1027.37 1370.42,1032.1 1372.63,1036.77 1374.84,1041.38 1377.05,1045.92 1379.25,1050.41 1381.46,1054.84 1383.67,1059.2 1385.88,1063.51 1388.08,1067.76 1390.29,1071.96 1392.5,1076.1 1394.71,1080.19 1396.91,1084.22 1399.12,1088.2 1401.33,1092.12 1403.54,1095.99 1405.74,1099.81 1407.95,1103.59 1410.16,1107.31 1412.37,1110.98 1414.57,1114.6 1416.78,1118.18 1418.99,1121.7 1421.2,1125.18 1423.4,1128.62 1425.61,1132.01 1427.82,1135.35 1430.03,1138.65 1432.23,1141.91 1434.44,1145.12 1436.65,1148.29 1438.86,1151.42 1441.06,1154.5 1443.27,1157.55 1445.48,1160.56 1447.69,1163.52 1449.89,1166.45 1452.1,1169.34 1454.31,1172.18 1456.52,1175 1458.72,1177.77 1460.93,1181.86 1463.14,1187.42 1465.35,1189.24 1467.55,1184.54 1469.76,1173.26 1471.97,1158.07 1474.18,1143.52 1476.38,1129.5 1478.59,1115.67 1480.8,1102.02 1483.01,1088.55 1485.21,1075.26 1487.42,1062.15 1489.63,1049.21 1491.84,1036.44 1494.04,1023.84 1496.25,1011.41 1498.46,999.142 1500.67,987.038 1502.87,975.095 1505.08,963.31 1507.29,951.681 1509.5,940.206 1511.7,928.884 1513.91,917.711 1516.12,906.687 1518.33,895.809 1520.53,885.075 1522.74,874.484 1524.95,864.032 1527.16,853.72 1529.36,843.544 1531.57,833.503 1533.78,823.595 1535.99,813.818 1538.19,804.171 1540.4,794.652 1542.61,785.259 1544.82,775.991 1547.02,766.845 1549.23,757.821 1551.44,748.916 1553.65,740.13 1555.85,731.46 1558.06,722.905 1560.27,714.463 1562.48,706.134 1564.68,697.914 1566.89,689.804 1569.1,681.801 1571.31,673.905 1573.51,666.113 1575.72,658.424 1577.93,650.838 1580.14,643.351 1582.34,635.965 1584.55,628.676 1586.76,621.483 1588.97,614.386 1591.17,607.383 1593.38,600.473 1595.59,593.654 1597.8,586.926 1600,580.287 1602.21,573.736 1604.42,567.272 1606.63,560.894 1608.83,554.6 1611.04,548.39 1613.25,542.262 1615.46,536.215 1617.66,530.249 1619.87,524.362 1622.08,518.552 1624.29,512.82 1626.49,507.164 1628.7,501.583 1630.91,496.076 1633.12,490.641 1635.32,485.279 1637.53,479.988 1639.74,474.767 1641.95,469.615 1644.15,464.532 1646.36,459.516 1648.57,454.566 1650.78,449.682 1652.98,444.863 1655.19,440.108 1657.4,435.415 1659.61,430.785 1661.81,426.216 1664.02,421.708 1666.23,417.26 1668.44,412.871 1670.64,408.539 1672.85,404.266 1675.06,399.709 1677.27,394.822 1679.47,390.058 1681.68,385.769 1683.89,382.207 1686.1,379.524 1688.3,377.772 1690.51,376.902 1692.72,376.765 1694.93,377.112 1697.13,377.594 1699.34,377.836 1701.55,378.011 1703.76,378.183 1705.96,378.353 1708.17,378.521 1710.38,378.686 1712.59,378.85 1714.79,379.011 1717,379.17 1719.21,379.327 1721.42,379.481 1723.62,379.634 1725.83,379.785 1728.04,379.934 1730.25,380.081 1732.45,380.225 1734.66,380.368 1736.87,380.509 1739.07,380.649 1741.28,380.786 1743.49,380.921 1745.7,381.055 1747.9,381.187 1750.11,381.317 1752.32,381.445 1754.53,381.572 1756.73,381.697 1758.94,381.821 1761.15,381.942 1763.36,382.062 1765.56,382.181 1767.77,382.298 1769.98,382.413 1772.19,382.527 1774.39,382.639 1776.6,382.75 1778.81,382.86 1781.02,382.968 1783.22,383.074 1785.43,383.179 1787.64,383.283 1789.85,383.385 1792.05,383.486 1794.26,383.586 1796.47,383.684 1798.68,383.781 1800.88,383.877 1803.09,383.971 1805.3,384.064 1807.51,384.156 1809.71,384.247 1811.92,384.336 1814.13,384.425 1816.34,384.512 1818.54,384.598 1820.75,384.683 1822.96,384.767 1825.17,384.849 1827.37,384.931 1829.58,385.011 1831.79,385.091 1834,385.169 1836.2,385.247 1838.41,385.323 1840.62,385.398 1842.83,385.473 1845.03,385.546 1847.24,385.618 1849.45,385.69 1851.66,385.76 1853.86,385.829 1856.07,385.898 1858.28,385.966 1860.49,386.032 1862.69,386.098 1864.9,386.163 1867.11,386.228 1869.32,386.291 1871.52,386.353 1873.73,386.415 1875.94,386.476 1878.15,386.536 1880.35,386.595 1882.56,386.653 1884.77,386.711 1886.98,386.768 1889.18,386.824 1891.39,386.879 1893.6,386.934 1895.81,386.988 1898.01,387.041 1900.22,387.094 1902.43,387.146 1904.64,387.197 1906.84,387.546 1909.05,388.843 1911.26,391.003 1913.47,393.92 1915.67,397.49 1917.88,401.617 1920.09,406.212 1922.3,411.189 1924.5,416.47 1926.71,421.984 1928.92,427.662 1931.13,433.446 1933.33,439.279 1935.54,445.114 1937.75,450.908 1939.96,456.624 1942.16,462.23 1944.37,467.704 1946.58,473.024 1948.79,478.179 1950.99,483.161 1953.2,487.97 1955.41,492.61 1957.62,497.092 1959.82,501.433 1962.03,505.655 1964.24,509.788 1966.45,513.865 1968.65,517.928 1970.86,522.023 1973.07,526.148 1975.28,530.221 1977.48,534.24 1979.69,538.205 1981.9,542.118 1984.11,545.979 1986.31,549.789 1988.52,553.548 1990.73,557.258 1992.94,560.918 1995.14,564.53 1997.35,568.094 1999.56,571.611 2001.77,575.081 2003.97,578.505 2006.18,581.883 2008.39,585.217 2010.6,588.507 2012.8,591.753 2015.01,594.957 2017.22,598.117 2019.43,601.236 2021.63,604.314 2023.84,607.35 2026.05,610.347 2028.26,613.303 2030.46,616.221 2032.67,619.099 2034.88,621.94 2037.09,624.743 2039.29,627.508 2041.5,630.237 2043.71,632.93 2045.92,635.587 2048.12,638.209 2050.33,640.796 2052.54,643.348 2054.75,645.867 2056.95,648.352 2059.16,650.805 2061.37,653.225 2063.58,655.612 2065.78,657.968 2067.99,660.293 2070.2,662.587 2072.41,664.851 2074.61,667.085 2076.82,669.289 2079.03,671.464 2081.24,673.61 2083.44,675.728 2085.65,677.817 2087.86,679.879 2090.07,681.914 2092.27,683.922 2094.48,685.903 2096.69,687.857 2098.9,689.786 2101.1,691.689 2103.31,693.567 2105.52,695.421 2107.73,697.249 2109.93,699.053 2112.14,700.834 2114.35,702.591 2116.55,704.324 2118.76,706.035 2120.97,707.722 2123.18,709.388 2125.38,711.031 2127.59,712.653 2129.8,713.674 2132.01,713.389 2134.21,712.089 2136.42,710.041 2138.63,707.48 2140.84,704.606 2143.04,701.587 2145.25,698.554 2147.46,695.608 2149.67,692.814 2151.87,690.204 2154.08,687.777 2156.29,685.496 2158.5,683.294 2160.7,681.067 2162.91,678.772 2165.12,676.505 2167.33,674.268 2169.53,672.061 2171.74,669.884 2173.95,667.735 2176.16,665.615 2178.36,663.522 2180.57,661.458 2182.78,659.421 2184.99,657.411 2187.19,655.427 2189.4,653.47 2191.61,651.539 2193.82,649.633 2196.02,647.753 2198.23,645.897 2200.44,644.066 2202.65,642.26 2204.85,640.477 2207.06,638.718 2209.27,636.983 2211.48,635.27 2213.68,633.58 2215.89,631.913 2218.1,630.267 2220.31,628.644 2222.51,627.042 2224.72,625.461 2226.93,623.901 2229.14,622.362 2231.34,620.843 2233.55,619.345 2235.76,617.866 2237.97,616.407 2240.17,614.967 2242.38,613.546 2244.59,612.144 2246.8,610.761 2249,609.396 2251.21,608.049 2253.42,606.72 2255.63,605.409 2257.83,604.115 2260.04,602.838 2262.25,601.578 2264.46,600.335 2266.66,599.108 2268.87,597.898 2271.08,596.703 2273.29,595.525 2275.49,594.362 2277.7,593.214 2279.91,592.082 2282.12,590.965 2284.32,589.862 2286.53,588.774 2288.74,587.701 2290.95,586.641 2293.15,585.596 2295.36,584.565 2297.57,583.547 2299.78,582.543 2301.98,581.552 2304.19,580.574 2306.4,579.61 2308.61,578.658 2310.81,577.718 2313.02,576.791 2315.23,575.877 2317.44,574.974 2319.64,574.084 2321.85,573.205 2324.06,572.338 2326.27,571.483 2328.47,570.638 2330.68,569.805 2332.89,568.983 2335.1,568.172 2337.3,567.372 2339.51,566.582 2341.72,565.803 2343.93,565.034 2346.13,564.276 2348.34,563.527 2350.55,562.788 2352.76,562.059 "/>
<polyline clip-path="url(#clip112)" style="stroke:#e26f46; stroke-linecap:round; stroke-linejoin:round; stroke-width:4; stroke-opacity:1; fill:none" points="147.478,513.224 149.685,513.224 151.893,513.224 154.1,513.224 156.308,513.224 158.515,513.224 160.723,513.224 162.93,513.224 165.138,513.224 167.345,513.224 169.553,513.224 171.76,513.224 173.968,513.224 176.175,513.224 178.383,513.224 180.59,513.224 182.798,513.224 185.005,513.224 187.213,513.224 189.42,513.224 191.628,513.224 193.835,513.224 196.043,513.224 198.25,513.224 200.458,513.224 202.665,513.224 204.873,513.224 207.08,513.224 209.288,513.224 211.495,513.224 213.702,513.224 215.91,513.224 218.117,513.224 220.325,513.224 222.532,513.224 224.74,513.224 226.947,513.224 229.155,513.224 231.362,513.224 233.57,513.224 235.777,513.224 237.985,513.224 240.192,513.224 242.4,513.224 244.607,513.224 246.815,513.224 249.022,513.224 251.23,513.224 253.437,513.224 255.645,513.224 257.852,513.224 260.06,513.224 262.267,513.224 264.475,513.224 266.682,513.224 268.89,513.224 271.097,513.224 273.305,513.224 275.512,513.224 277.72,513.224 279.927,513.224 282.135,513.224 284.342,513.224 286.549,513.224 288.757,513.224 290.964,513.224 293.172,513.224 295.379,513.224 297.587,513.224 299.794,513.224 302.002,513.224 304.209,513.224 306.417,513.224 308.624,513.224 310.832,513.224 313.039,513.224 315.247,513.224 317.454,513.224 319.662,513.224 321.869,513.224 324.077,513.224 326.284,513.224 328.492,513.224 330.699,513.224 332.907,513.224 335.114,513.224 337.322,513.224 339.529,513.224 341.737,513.224 343.944,513.224 346.152,513.224 348.359,513.224 350.567,513.224 352.774,513.224 354.982,513.224 357.189,513.224 359.397,513.224 361.604,513.224 363.811,513.224 366.019,513.224 368.226,745.265 370.434,745.265 372.641,745.265 374.849,745.265 377.056,745.265 379.264,745.265 381.471,745.265 383.679,745.265 385.886,745.265 388.094,745.265 390.301,745.265 392.509,745.265 394.716,745.265 396.924,745.265 399.131,745.265 401.339,745.265 403.546,745.265 405.754,745.265 407.961,745.265 410.169,745.265 412.376,745.265 414.584,745.265 416.791,745.265 418.999,745.265 421.206,745.265 423.414,745.265 425.621,745.265 427.829,745.265 430.036,745.265 432.244,745.265 434.451,745.265 436.659,745.265 438.866,745.265 441.073,745.265 443.281,745.265 445.488,745.265 447.696,745.265 449.903,745.265 452.111,745.265 454.318,745.265 456.526,745.265 458.733,745.265 460.941,745.265 463.148,745.265 465.356,745.265 467.563,745.265 469.771,745.265 471.978,745.265 474.186,745.265 476.393,745.265 478.601,745.265 480.808,745.265 483.016,745.265 485.223,745.265 487.431,745.265 489.638,745.265 491.846,745.265 494.053,745.265 496.261,745.265 498.468,745.265 500.676,745.265 502.883,745.265 505.091,745.265 507.298,745.265 509.506,745.265 511.713,745.265 513.921,745.265 516.128,745.265 518.335,745.265 520.543,745.265 522.75,745.265 524.958,745.265 527.165,745.265 529.373,745.265 531.58,745.265 533.788,745.265 535.995,745.265 538.203,745.265 540.41,745.265 542.618,745.265 544.825,745.265 547.033,745.265 549.24,745.265 551.448,745.265 553.655,745.265 555.863,745.265 558.07,745.265 560.278,745.265 562.485,745.265 564.693,745.265 566.9,745.265 569.108,745.265 571.315,745.265 573.523,745.265 575.73,745.265 577.938,745.265 580.145,745.265 582.353,745.265 584.56,745.265 586.768,745.265 588.975,1048.21 591.182,1048.21 593.39,1048.21 595.597,1048.21 597.805,1048.21 600.012,1048.21 602.22,1048.21 604.427,1048.21 606.635,1048.21 608.842,1048.21 611.05,1048.21 613.257,1048.21 615.465,1048.21 617.672,1048.21 619.88,1048.21 622.087,1048.21 624.295,1048.21 626.502,1048.21 628.71,1048.21 630.917,1048.21 633.125,1048.21 635.332,1048.21 637.54,1048.21 639.747,1048.21 641.955,1048.21 644.162,1048.21 646.37,1048.21 648.577,1048.21 650.785,1048.21 652.992,1048.21 655.2,1048.21 657.407,1048.21 659.615,1048.21 661.822,1048.21 664.03,1048.21 666.237,1048.21 668.444,1048.21 670.652,1048.21 672.859,1048.21 675.067,1048.21 677.274,1048.21 679.482,1048.21 681.689,1048.21 683.897,1048.21 686.104,1048.21 688.312,1048.21 690.519,1048.21 692.727,1048.21 694.934,1048.21 697.142,1048.21 699.349,1048.21 701.557,1048.21 703.764,1048.21 705.972,1048.21 708.179,1048.21 710.387,1048.21 712.594,1048.21 714.802,1048.21 717.009,1048.21 719.217,1048.21 721.424,1048.21 723.632,1048.21 725.839,1048.21 728.047,1048.21 730.254,1048.21 732.462,1048.21 734.669,1048.21 736.877,1048.21 739.084,1048.21 741.292,1048.21 743.499,1048.21 745.706,1048.21 747.914,1048.21 750.121,1048.21 752.329,1048.21 754.536,1048.21 756.744,1048.21 758.951,1048.21 761.159,1048.21 763.366,1048.21 765.574,1048.21 767.781,1048.21 769.989,1048.21 772.196,1048.21 774.404,1048.21 776.611,1048.21 778.819,1048.21 781.026,1048.21 783.234,1048.21 785.441,1048.21 787.649,1048.21 789.856,1048.21 792.064,1048.21 794.271,1048.21 796.479,1048.21 798.686,1048.21 800.894,1048.21 803.101,1048.21 805.309,1048.21 807.516,1048.21 809.724,920.112 811.931,920.112 814.139,920.112 816.346,920.112 818.553,920.112 820.761,920.112 822.968,920.112 825.176,920.112 827.383,920.112 829.591,920.112 831.798,920.112 834.006,920.112 836.213,920.112 838.421,920.112 840.628,920.112 842.836,920.112 845.043,920.112 847.251,920.112 849.458,920.112 851.666,920.112 853.873,920.112 856.081,920.112 858.288,920.112 860.496,920.112 862.703,920.112 864.911,920.112 867.118,920.112 869.326,920.112 871.533,920.112 873.741,920.112 875.948,920.112 878.156,920.112 880.363,920.112 882.571,920.112 884.778,920.112 886.986,920.112 889.193,920.112 891.401,920.112 893.608,920.112 895.815,920.112 898.023,920.112 900.23,920.112 902.438,920.112 904.645,920.112 906.853,920.112 909.06,920.112 911.268,920.112 913.475,920.112 915.683,920.112 917.89,920.112 920.098,920.112 922.305,920.112 924.513,920.112 926.72,920.112 928.928,920.112 931.135,920.112 933.343,920.112 935.55,920.112 937.758,920.112 939.965,920.112 942.173,920.112 944.38,920.112 946.588,920.112 948.795,920.112 951.003,920.112 953.21,920.112 955.418,920.112 957.625,920.112 959.833,920.112 962.04,920.112 964.248,920.112 966.455,920.112 968.663,920.112 970.87,920.112 973.077,920.112 975.285,920.112 977.492,920.112 979.7,920.112 981.907,920.112 984.115,920.112 986.322,920.112 988.53,920.112 990.737,920.112 992.945,920.112 995.152,920.112 997.36,920.112 999.567,920.112 1001.77,920.112 1003.98,920.112 1006.19,920.112 1008.4,920.112 1010.6,920.112 1012.81,920.112 1015.02,920.112 1017.23,920.112 1019.43,920.112 1021.64,920.112 1023.85,920.112 1026.06,920.112 1028.26,920.112 1030.47,572.131 1032.68,572.131 1034.89,572.131 1037.09,572.131 1039.3,572.131 1041.51,572.131 1043.72,572.131 1045.92,572.131 1048.13,572.131 1050.34,572.131 1052.55,572.131 1054.75,572.131 1056.96,572.131 1059.17,572.131 1061.38,572.131 1063.58,572.131 1065.79,572.131 1068,572.131 1070.21,572.131 1072.41,572.131 1074.62,572.131 1076.83,572.131 1079.04,572.131 1081.24,572.131 1083.45,572.131 1085.66,572.131 1087.87,572.131 1090.07,572.131 1092.28,572.131 1094.49,572.131 1096.7,572.131 1098.9,572.131 1101.11,572.131 1103.32,572.131 1105.53,572.131 1107.73,572.131 1109.94,572.131 1112.15,572.131 1114.36,572.131 1116.56,572.131 1118.77,572.131 1120.98,572.131 1123.19,572.131 1125.39,572.131 1127.6,572.131 1129.81,572.131 1132.02,572.131 1134.22,572.131 1136.43,572.131 1138.64,572.131 1140.85,572.131 1143.05,572.131 1145.26,572.131 1147.47,572.131 1149.68,572.131 1151.88,572.131 1154.09,572.131 1156.3,572.131 1158.51,572.131 1160.71,572.131 1162.92,572.131 1165.13,572.131 1167.34,572.131 1169.54,572.131 1171.75,572.131 1173.96,572.131 1176.17,572.131 1178.37,572.131 1180.58,572.131 1182.79,572.131 1185,572.131 1187.2,572.131 1189.41,572.131 1191.62,572.131 1193.83,572.131 1196.03,572.131 1198.24,572.131 1200.45,572.131 1202.66,572.131 1204.86,572.131 1207.07,572.131 1209.28,572.131 1211.49,572.131 1213.69,572.131 1215.9,572.131 1218.11,572.131 1220.32,572.131 1222.52,572.131 1224.73,572.131 1226.94,572.131 1229.15,572.131 1231.35,572.131 1233.56,572.131 1235.77,572.131 1237.98,572.131 1240.18,572.131 1242.39,572.131 1244.6,572.131 1246.81,572.131 1249.01,572.131 1251.22,1384.24 1253.43,1384.24 1255.64,1384.24 1257.84,1384.24 1260.05,1384.24 1262.26,1384.24 1264.47,1384.24 1266.67,1384.24 1268.88,1384.24 1271.09,1384.24 1273.3,1384.24 1275.5,1384.24 1277.71,1384.24 1279.92,1384.24 1282.13,1384.24 1284.33,1384.24 1286.54,1384.24 1288.75,1384.24 1290.96,1384.24 1293.16,1384.24 1295.37,1384.24 1297.58,1384.24 1299.79,1384.24 1301.99,1384.24 1304.2,1384.24 1306.41,1384.24 1308.62,1384.24 1310.82,1384.24 1313.03,1384.24 1315.24,1384.24 1317.45,1384.24 1319.65,1384.24 1321.86,1384.24 1324.07,1384.24 1326.28,1384.24 1328.48,1384.24 1330.69,1384.24 1332.9,1384.24 1335.11,1384.24 1337.31,1384.24 1339.52,1384.24 1341.73,1384.24 1343.94,1384.24 1346.14,1384.24 1348.35,1384.24 1350.56,1384.24 1352.76,1384.24 1354.97,1384.24 1357.18,1384.24 1359.39,1384.24 1361.59,1384.24 1363.8,1384.24 1366.01,1384.24 1368.22,1384.24 1370.42,1384.24 1372.63,1384.24 1374.84,1384.24 1377.05,1384.24 1379.25,1384.24 1381.46,1384.24 1383.67,1384.24 1385.88,1384.24 1388.08,1384.24 1390.29,1384.24 1392.5,1384.24 1394.71,1384.24 1396.91,1384.24 1399.12,1384.24 1401.33,1384.24 1403.54,1384.24 1405.74,1384.24 1407.95,1384.24 1410.16,1384.24 1412.37,1384.24 1414.57,1384.24 1416.78,1384.24 1418.99,1384.24 1421.2,1384.24 1423.4,1384.24 1425.61,1384.24 1427.82,1384.24 1430.03,1384.24 1432.23,1384.24 1434.44,1384.24 1436.65,1384.24 1438.86,1384.24 1441.06,1384.24 1443.27,1384.24 1445.48,1384.24 1447.69,1384.24 1449.89,1384.24 1452.1,1384.24 1454.31,1384.24 1456.52,1384.24 1458.72,1384.24 1460.93,1384.24 1463.14,1384.24 1465.35,1384.24 1467.55,1384.24 1469.76,1384.24 1471.97,86.1857 1474.18,86.1857 1476.38,86.1857 1478.59,86.1857 1480.8,86.1857 1483.01,86.1857 1485.21,86.1857 1487.42,86.1857 1489.63,86.1857 1491.84,86.1857 1494.04,86.1857 1496.25,86.1857 1498.46,86.1857 1500.67,86.1857 1502.87,86.1857 1505.08,86.1857 1507.29,86.1857 1509.5,86.1857 1511.7,86.1857 1513.91,86.1857 1516.12,86.1857 1518.33,86.1857 1520.53,86.1857 1522.74,86.1857 1524.95,86.1857 1527.16,86.1857 1529.36,86.1857 1531.57,86.1857 1533.78,86.1857 1535.99,86.1857 1538.19,86.1857 1540.4,86.1857 1542.61,86.1857 1544.82,86.1857 1547.02,86.1857 1549.23,86.1857 1551.44,86.1857 1553.65,86.1857 1555.85,86.1857 1558.06,86.1857 1560.27,86.1857 1562.48,86.1857 1564.68,86.1857 1566.89,86.1857 1569.1,86.1857 1571.31,86.1857 1573.51,86.1857 1575.72,86.1857 1577.93,86.1857 1580.14,86.1857 1582.34,86.1857 1584.55,86.1857 1586.76,86.1857 1588.97,86.1857 1591.17,86.1857 1593.38,86.1857 1595.59,86.1857 1597.8,86.1857 1600,86.1857 1602.21,86.1857 1604.42,86.1857 1606.63,86.1857 1608.83,86.1857 1611.04,86.1857 1613.25,86.1857 1615.46,86.1857 1617.66,86.1857 1619.87,86.1857 1622.08,86.1857 1624.29,86.1857 1626.49,86.1857 1628.7,86.1857 1630.91,86.1857 1633.12,86.1857 1635.32,86.1857 1637.53,86.1857 1639.74,86.1857 1641.95,86.1857 1644.15,86.1857 1646.36,86.1857 1648.57,86.1857 1650.78,86.1857 1652.98,86.1857 1655.19,86.1857 1657.4,86.1857 1659.61,86.1857 1661.81,86.1857 1664.02,86.1857 1666.23,86.1857 1668.44,86.1857 1670.64,86.1857 1672.85,86.1857 1675.06,86.1857 1677.27,86.1857 1679.47,86.1857 1681.68,86.1857 1683.89,86.1857 1686.1,86.1857 1688.3,86.1857 1690.51,86.1857 1692.72,391.002 1694.93,391.002 1697.13,391.002 1699.34,391.002 1701.55,391.002 1703.76,391.002 1705.96,391.002 1708.17,391.002 1710.38,391.002 1712.59,391.002 1714.79,391.002 1717,391.002 1719.21,391.002 1721.42,391.002 1723.62,391.002 1725.83,391.002 1728.04,391.002 1730.25,391.002 1732.45,391.002 1734.66,391.002 1736.87,391.002 1739.07,391.002 1741.28,391.002 1743.49,391.002 1745.7,391.002 1747.9,391.002 1750.11,391.002 1752.32,391.002 1754.53,391.002 1756.73,391.002 1758.94,391.002 1761.15,391.002 1763.36,391.002 1765.56,391.002 1767.77,391.002 1769.98,391.002 1772.19,391.002 1774.39,391.002 1776.6,391.002 1778.81,391.002 1781.02,391.002 1783.22,391.002 1785.43,391.002 1787.64,391.002 1789.85,391.002 1792.05,391.002 1794.26,391.002 1796.47,391.002 1798.68,391.002 1800.88,391.002 1803.09,391.002 1805.3,391.002 1807.51,391.002 1809.71,391.002 1811.92,391.002 1814.13,391.002 1816.34,391.002 1818.54,391.002 1820.75,391.002 1822.96,391.002 1825.17,391.002 1827.37,391.002 1829.58,391.002 1831.79,391.002 1834,391.002 1836.2,391.002 1838.41,391.002 1840.62,391.002 1842.83,391.002 1845.03,391.002 1847.24,391.002 1849.45,391.002 1851.66,391.002 1853.86,391.002 1856.07,391.002 1858.28,391.002 1860.49,391.002 1862.69,391.002 1864.9,391.002 1867.11,391.002 1869.32,391.002 1871.52,391.002 1873.73,391.002 1875.94,391.002 1878.15,391.002 1880.35,391.002 1882.56,391.002 1884.77,391.002 1886.98,391.002 1889.18,391.002 1891.39,391.002 1893.6,391.002 1895.81,391.002 1898.01,391.002 1900.22,391.002 1902.43,391.002 1904.64,391.002 1906.84,391.002 1909.05,391.002 1911.26,391.002 1913.47,833.341 1915.67,833.341 1917.88,833.341 1920.09,833.341 1922.3,833.341 1924.5,833.341 1926.71,833.341 1928.92,833.341 1931.13,833.341 1933.33,833.341 1935.54,833.341 1937.75,833.341 1939.96,833.341 1942.16,833.341 1944.37,833.341 1946.58,833.341 1948.79,833.341 1950.99,833.341 1953.2,833.341 1955.41,833.341 1957.62,833.341 1959.82,833.341 1962.03,833.341 1964.24,833.341 1966.45,833.341 1968.65,833.341 1970.86,833.341 1973.07,833.341 1975.28,833.341 1977.48,833.341 1979.69,833.341 1981.9,833.341 1984.11,833.341 1986.31,833.341 1988.52,833.341 1990.73,833.341 1992.94,833.341 1995.14,833.341 1997.35,833.341 1999.56,833.341 2001.77,833.341 2003.97,833.341 2006.18,833.341 2008.39,833.341 2010.6,833.341 2012.8,833.341 2015.01,833.341 2017.22,833.341 2019.43,833.341 2021.63,833.341 2023.84,833.341 2026.05,833.341 2028.26,833.341 2030.46,833.341 2032.67,833.341 2034.88,833.341 2037.09,833.341 2039.29,833.341 2041.5,833.341 2043.71,833.341 2045.92,833.341 2048.12,833.341 2050.33,833.341 2052.54,833.341 2054.75,833.341 2056.95,833.341 2059.16,833.341 2061.37,833.341 2063.58,833.341 2065.78,833.341 2067.99,833.341 2070.2,833.341 2072.41,833.341 2074.61,833.341 2076.82,833.341 2079.03,833.341 2081.24,833.341 2083.44,833.341 2085.65,833.341 2087.86,833.341 2090.07,833.341 2092.27,833.341 2094.48,833.341 2096.69,833.341 2098.9,833.341 2101.1,833.341 2103.31,833.341 2105.52,833.341 2107.73,833.341 2109.93,833.341 2112.14,833.341 2114.35,833.341 2116.55,833.341 2118.76,833.341 2120.97,833.341 2123.18,833.341 2125.38,833.341 2127.59,833.341 2129.8,833.341 2132.01,833.341 2134.21,507.807 2136.42,507.807 2138.63,507.807 2140.84,507.807 2143.04,507.807 2145.25,507.807 2147.46,507.807 2149.67,507.807 2151.87,507.807 2154.08,507.807 2156.29,507.807 2158.5,507.807 2160.7,507.807 2162.91,507.807 2165.12,507.807 2167.33,507.807 2169.53,507.807 2171.74,507.807 2173.95,507.807 2176.16,507.807 2178.36,507.807 2180.57,507.807 2182.78,507.807 2184.99,507.807 2187.19,507.807 2189.4,507.807 2191.61,507.807 2193.82,507.807 2196.02,507.807 2198.23,507.807 2200.44,507.807 2202.65,507.807 2204.85,507.807 2207.06,507.807 2209.27,507.807 2211.48,507.807 2213.68,507.807 2215.89,507.807 2218.1,507.807 2220.31,507.807 2222.51,507.807 2224.72,507.807 2226.93,507.807 2229.14,507.807 2231.34,507.807 2233.55,507.807 2235.76,507.807 2237.97,507.807 2240.17,507.807 2242.38,507.807 2244.59,507.807 2246.8,507.807 2249,507.807 2251.21,507.807 2253.42,507.807 2255.63,507.807 2257.83,507.807 2260.04,507.807 2262.25,507.807 2264.46,507.807 2266.66,507.807 2268.87,507.807 2271.08,507.807 2273.29,507.807 2275.49,507.807 2277.7,507.807 2279.91,507.807 2282.12,507.807 2284.32,507.807 2286.53,507.807 2288.74,507.807 2290.95,507.807 2293.15,507.807 2295.36,507.807 2297.57,507.807 2299.78,507.807 2301.98,507.807 2304.19,507.807 2306.4,507.807 2308.61,507.807 2310.81,507.807 2313.02,507.807 2315.23,507.807 2317.44,507.807 2319.64,507.807 2321.85,507.807 2324.06,507.807 2326.27,507.807 2328.47,507.807 2330.68,507.807 2332.89,507.807 2335.1,507.807 2337.3,507.807 2339.51,507.807 2341.72,507.807 2343.93,507.807 2346.13,507.807 2348.34,507.807 2350.55,507.807 2352.76,507.807 "/>
<path clip-path="url(#clip110)" d="M220.987 248.629 L466.654 248.629 L466.654 93.1086 L220.987 93.1086  Z" fill="#ffffff" fill-rule="evenodd" fill-opacity="1"/>
<polyline clip-path="url(#clip110)" style="stroke:#000000; stroke-linecap:round; stroke-linejoin:round; stroke-width:4; stroke-opacity:1; fill:none" points="220.987,248.629 466.654,248.629 466.654,93.1086 220.987,93.1086 220.987,248.629 "/>
<polyline clip-path="url(#clip110)" style="stroke:#009af9; stroke-linecap:round; stroke-linejoin:round; stroke-width:4; stroke-opacity:1; fill:none" points="245.49,144.949 392.509,144.949 "/>
<path clip-path="url(#clip110)" d="M441.665 136.303 L432.29 148.919 L442.151 162.229 L437.128 162.229 L429.581 152.043 L422.035 162.229 L417.012 162.229 L427.081 148.664 L417.868 136.303 L422.891 136.303 L429.766 145.539 L436.641 136.303 L441.665 136.303 Z" fill="#000000" fill-rule="nonzero" fill-opacity="1" /><polyline clip-path="url(#clip110)" style="stroke:#e26f46; stroke-linecap:round; stroke-linejoin:round; stroke-width:4; stroke-opacity:1; fill:none" points="245.49,196.789 392.509,196.789 "/>
<path clip-path="url(#clip110)" d="M433.516 178.05 L433.516 181.592 L429.442 181.592 Q427.151 181.592 426.248 182.518 Q425.368 183.444 425.368 185.851 L425.368 188.143 L432.382 188.143 L432.382 191.453 L425.368 191.453 L425.368 214.069 L421.086 214.069 L421.086 191.453 L417.012 191.453 L417.012 188.143 L421.086 188.143 L421.086 186.337 Q421.086 182.009 423.1 180.041 Q425.114 178.05 429.489 178.05 L433.516 178.05 Z" fill="#000000" fill-rule="nonzero" fill-opacity="1" /></svg>
