<?xml version="1.0" encoding="utf-8"?>
<svg xmlns="http://www.w3.org/2000/svg" xmlns:xlink="http://www.w3.org/1999/xlink" width="600" height="400" viewBox="0 0 2400 1600">
<defs>
  <clipPath id="clip600">
    <rect x="0" y="0" width="2400" height="1600"/>
  </clipPath>
</defs>
<path clip-path="url(#clip600)" d="M0 1600 L2400 1600 L2400 0 L0 0  Z" fill="#ffffff" fill-rule="evenodd" fill-opacity="1"/>
<defs>
  <clipPath id="clip601">
    <rect x="193" y="47" width="2160" height="1377"/>
  </clipPath>
</defs>
<path clip-path="url(#clip600)" d="M193.936 1423.18 L2352.76 1423.18 L2352.76 47.2441 L193.936 47.2441  Z" fill="#ffffff" fill-rule="evenodd" fill-opacity="1"/>
<polyline clip-path="url(#clip601)" style="stroke:#000000; stroke-linecap:round; stroke-linejoin:round; stroke-width:2; stroke-opacity:0.1; fill:none" points="193.936,1423.18 193.936,47.2441 "/>
<polyline clip-path="url(#clip601)" style="stroke:#000000; stroke-linecap:round; stroke-linejoin:round; stroke-width:2; stroke-opacity:0.1; fill:none" points="625.7,1423.18 625.7,47.2441 "/>
<polyline clip-path="url(#clip601)" style="stroke:#000000; stroke-linecap:round; stroke-linejoin:round; stroke-width:2; stroke-opacity:0.1; fill:none" points="1057.46,1423.18 1057.46,47.2441 "/>
<polyline clip-path="url(#clip601)" style="stroke:#000000; stroke-linecap:round; stroke-linejoin:round; stroke-width:2; stroke-opacity:0.1; fill:none" points="1489.23,1423.18 1489.23,47.2441 "/>
<polyline clip-path="url(#clip601)" style="stroke:#000000; stroke-linecap:round; stroke-linejoin:round; stroke-width:2; stroke-opacity:0.1; fill:none" points="1920.99,1423.18 1920.99,47.2441 "/>
<polyline clip-path="url(#clip601)" style="stroke:#000000; stroke-linecap:round; stroke-linejoin:round; stroke-width:2; stroke-opacity:0.1; fill:none" points="2352.76,1423.18 2352.76,47.2441 "/>
<polyline clip-path="url(#clip601)" style="stroke:#000000; stroke-linecap:round; stroke-linejoin:round; stroke-width:2; stroke-opacity:0.1; fill:none" points="193.936,1381.44 2352.76,1381.44 "/>
<polyline clip-path="url(#clip601)" style="stroke:#000000; stroke-linecap:round; stroke-linejoin:round; stroke-width:2; stroke-opacity:0.1; fill:none" points="193.936,1171.91 2352.76,1171.91 "/>
<polyline clip-path="url(#clip601)" style="stroke:#000000; stroke-linecap:round; stroke-linejoin:round; stroke-width:2; stroke-opacity:0.1; fill:none" points="193.936,962.37 2352.76,962.37 "/>
<polyline clip-path="url(#clip601)" style="stroke:#000000; stroke-linecap:round; stroke-linejoin:round; stroke-width:2; stroke-opacity:0.1; fill:none" points="193.936,752.835 2352.76,752.835 "/>
<polyline clip-path="url(#clip601)" style="stroke:#000000; stroke-linecap:round; stroke-linejoin:round; stroke-width:2; stroke-opacity:0.1; fill:none" points="193.936,543.299 2352.76,543.299 "/>
<polyline clip-path="url(#clip601)" style="stroke:#000000; stroke-linecap:round; stroke-linejoin:round; stroke-width:2; stroke-opacity:0.1; fill:none" points="193.936,333.763 2352.76,333.763 "/>
<polyline clip-path="url(#clip601)" style="stroke:#000000; stroke-linecap:round; stroke-linejoin:round; stroke-width:2; stroke-opacity:0.1; fill:none" points="193.936,124.227 2352.76,124.227 "/>
<polyline clip-path="url(#clip600)" style="stroke:#000000; stroke-linecap:round; stroke-linejoin:round; stroke-width:4; stroke-opacity:1; fill:none" points="193.936,1423.18 2352.76,1423.18 "/>
<polyline clip-path="url(#clip600)" style="stroke:#000000; stroke-linecap:round; stroke-linejoin:round; stroke-width:4; stroke-opacity:1; fill:none" points="193.936,1423.18 193.936,1404.28 "/>
<polyline clip-path="url(#clip600)" style="stroke:#000000; stroke-linecap:round; stroke-linejoin:round; stroke-width:4; stroke-opacity:1; fill:none" points="625.7,1423.18 625.7,1404.28 "/>
<polyline clip-path="url(#clip600)" style="stroke:#000000; stroke-linecap:round; stroke-linejoin:round; stroke-width:4; stroke-opacity:1; fill:none" points="1057.46,1423.18 1057.46,1404.28 "/>
<polyline clip-path="url(#clip600)" style="stroke:#000000; stroke-linecap:round; stroke-linejoin:round; stroke-width:4; stroke-opacity:1; fill:none" points="1489.23,1423.18 1489.23,1404.28 "/>
<polyline clip-path="url(#clip600)" style="stroke:#000000; stroke-linecap:round; stroke-linejoin:round; stroke-width:4; stroke-opacity:1; fill:none" points="1920.99,1423.18 1920.99,1404.28 "/>
<polyline clip-path="url(#clip600)" style="stroke:#000000; stroke-linecap:round; stroke-linejoin:round; stroke-width:4; stroke-opacity:1; fill:none" points="2352.76,1423.18 2352.76,1404.28 "/>
<path clip-path="url(#clip600)" d="M193.936 1454.1 Q190.325 1454.1 188.496 1457.66 Q186.691 1461.2 186.691 1468.33 Q186.691 1475.44 188.496 1479.01 Q190.325 1482.55 193.936 1482.55 Q197.57 1482.55 199.376 1479.01 Q201.204 1475.44 201.204 1468.33 Q201.204 1461.2 199.376 1457.66 Q197.57 1454.1 193.936 1454.1 M193.936 1450.39 Q199.746 1450.39 202.802 1455 Q205.88 1459.58 205.88 1468.33 Q205.88 1477.06 202.802 1481.67 Q199.746 1486.25 193.936 1486.25 Q188.126 1486.25 185.047 1481.67 Q181.992 1477.06 181.992 1468.33 Q181.992 1459.58 185.047 1455 Q188.126 1450.39 193.936 1450.39 Z" fill="#000000" fill-rule="nonzero" fill-opacity="1" /><path clip-path="url(#clip600)" d="M620.353 1481.64 L636.672 1481.64 L636.672 1485.58 L614.728 1485.58 L614.728 1481.64 Q617.39 1478.89 621.973 1474.26 Q626.58 1469.61 627.76 1468.27 Q630.006 1465.74 630.885 1464.01 Q631.788 1462.25 631.788 1460.56 Q631.788 1457.8 629.843 1456.07 Q627.922 1454.33 624.82 1454.33 Q622.621 1454.33 620.168 1455.09 Q617.737 1455.86 614.959 1457.41 L614.959 1452.69 Q617.783 1451.55 620.237 1450.97 Q622.691 1450.39 624.728 1450.39 Q630.098 1450.39 633.293 1453.08 Q636.487 1455.77 636.487 1460.26 Q636.487 1462.39 635.677 1464.31 Q634.89 1466.2 632.783 1468.8 Q632.205 1469.47 629.103 1472.69 Q626.001 1475.88 620.353 1481.64 Z" fill="#000000" fill-rule="nonzero" fill-opacity="1" /><path clip-path="url(#clip600)" d="M1060.47 1455.09 L1048.67 1473.54 L1060.47 1473.54 L1060.47 1455.09 M1059.25 1451.02 L1065.13 1451.02 L1065.13 1473.54 L1070.06 1473.54 L1070.06 1477.43 L1065.13 1477.43 L1065.13 1485.58 L1060.47 1485.58 L1060.47 1477.43 L1044.87 1477.43 L1044.87 1472.92 L1059.25 1451.02 Z" fill="#000000" fill-rule="nonzero" fill-opacity="1" /><path clip-path="url(#clip600)" d="M1489.63 1466.44 Q1486.48 1466.44 1484.63 1468.59 Q1482.8 1470.74 1482.8 1474.49 Q1482.8 1478.22 1484.63 1480.39 Q1486.48 1482.55 1489.63 1482.55 Q1492.78 1482.55 1494.61 1480.39 Q1496.46 1478.22 1496.46 1474.49 Q1496.46 1470.74 1494.61 1468.59 Q1492.78 1466.44 1489.63 1466.44 M1498.92 1451.78 L1498.92 1456.04 Q1497.16 1455.21 1495.35 1454.77 Q1493.57 1454.33 1491.81 1454.33 Q1487.18 1454.33 1484.73 1457.45 Q1482.3 1460.58 1481.95 1466.9 Q1483.31 1464.89 1485.37 1463.82 Q1487.43 1462.73 1489.91 1462.73 Q1495.12 1462.73 1498.13 1465.9 Q1501.16 1469.05 1501.16 1474.49 Q1501.16 1479.82 1498.01 1483.03 Q1494.86 1486.25 1489.63 1486.25 Q1483.64 1486.25 1480.47 1481.67 Q1477.3 1477.06 1477.3 1468.33 Q1477.3 1460.14 1481.18 1455.28 Q1485.07 1450.39 1491.62 1450.39 Q1493.38 1450.39 1495.17 1450.74 Q1496.97 1451.09 1498.92 1451.78 Z" fill="#000000" fill-rule="nonzero" fill-opacity="1" /><path clip-path="url(#clip600)" d="M1920.99 1469.17 Q1917.66 1469.17 1915.74 1470.95 Q1913.84 1472.73 1913.84 1475.86 Q1913.84 1478.98 1915.74 1480.77 Q1917.66 1482.55 1920.99 1482.55 Q1924.33 1482.55 1926.25 1480.77 Q1928.17 1478.96 1928.17 1475.86 Q1928.17 1472.73 1926.25 1470.95 Q1924.35 1469.17 1920.99 1469.17 M1916.32 1467.18 Q1913.31 1466.44 1911.62 1464.38 Q1909.95 1462.32 1909.95 1459.35 Q1909.95 1455.21 1912.89 1452.8 Q1915.85 1450.39 1920.99 1450.39 Q1926.15 1450.39 1929.09 1452.8 Q1932.03 1455.21 1932.03 1459.35 Q1932.03 1462.32 1930.34 1464.38 Q1928.68 1466.44 1925.69 1467.18 Q1929.07 1467.96 1930.95 1470.26 Q1932.84 1472.55 1932.84 1475.86 Q1932.84 1480.88 1929.77 1483.57 Q1926.71 1486.25 1920.99 1486.25 Q1915.27 1486.25 1912.2 1483.57 Q1909.14 1480.88 1909.14 1475.86 Q1909.14 1472.55 1911.04 1470.26 Q1912.94 1467.96 1916.32 1467.18 M1914.6 1459.79 Q1914.6 1462.48 1916.27 1463.98 Q1917.96 1465.49 1920.99 1465.49 Q1924 1465.49 1925.69 1463.98 Q1927.4 1462.48 1927.4 1459.79 Q1927.4 1457.11 1925.69 1455.6 Q1924 1454.1 1920.99 1454.1 Q1917.96 1454.1 1916.27 1455.6 Q1914.6 1457.11 1914.6 1459.79 Z" fill="#000000" fill-rule="nonzero" fill-opacity="1" /><path clip-path="url(#clip600)" d="M2327.44 1481.64 L2335.08 1481.64 L2335.08 1455.28 L2326.77 1456.95 L2326.77 1452.69 L2335.04 1451.02 L2339.71 1451.02 L2339.71 1481.64 L2347.35 1481.64 L2347.35 1485.58 L2327.44 1485.58 L2327.44 1481.64 Z" fill="#000000" fill-rule="nonzero" fill-opacity="1" /><path clip-path="url(#clip600)" d="M2366.8 1454.1 Q2363.18 1454.1 2361.36 1457.66 Q2359.55 1461.2 2359.55 1468.33 Q2359.55 1475.44 2361.36 1479.01 Q2363.18 1482.55 2366.8 1482.55 Q2370.43 1482.55 2372.23 1479.01 Q2374.06 1475.44 2374.06 1468.33 Q2374.06 1461.2 2372.23 1457.66 Q2370.43 1454.1 2366.8 1454.1 M2366.8 1450.39 Q2372.61 1450.39 2375.66 1455 Q2378.74 1459.58 2378.74 1468.33 Q2378.74 1477.06 2375.66 1481.67 Q2372.61 1486.25 2366.8 1486.25 Q2360.99 1486.25 2357.91 1481.67 Q2354.85 1477.06 2354.85 1468.33 Q2354.85 1459.58 2357.91 1455 Q2360.99 1450.39 2366.8 1450.39 Z" fill="#000000" fill-rule="nonzero" fill-opacity="1" /><path clip-path="url(#clip600)" d="M1272.41 1522.27 L1272.41 1532.4 L1284.47 1532.4 L1284.47 1536.95 L1272.41 1536.95 L1272.41 1556.3 Q1272.41 1560.66 1273.58 1561.9 Q1274.79 1563.14 1278.45 1563.14 L1284.47 1563.14 L1284.47 1568.04 L1278.45 1568.04 Q1271.67 1568.04 1269.1 1565.53 Q1266.52 1562.98 1266.52 1556.3 L1266.52 1536.95 L1262.22 1536.95 L1262.22 1532.4 L1266.52 1532.4 L1266.52 1522.27 L1272.41 1522.27 Z" fill="#000000" fill-rule="nonzero" fill-opacity="1" /><polyline clip-path="url(#clip600)" style="stroke:#000000; stroke-linecap:round; stroke-linejoin:round; stroke-width:4; stroke-opacity:1; fill:none" points="193.936,1423.18 193.936,47.2441 "/>
<polyline clip-path="url(#clip600)" style="stroke:#000000; stroke-linecap:round; stroke-linejoin:round; stroke-width:4; stroke-opacity:1; fill:none" points="193.936,1381.44 212.834,1381.44 "/>
<polyline clip-path="url(#clip600)" style="stroke:#000000; stroke-linecap:round; stroke-linejoin:round; stroke-width:4; stroke-opacity:1; fill:none" points="193.936,1171.91 212.834,1171.91 "/>
<polyline clip-path="url(#clip600)" style="stroke:#000000; stroke-linecap:round; stroke-linejoin:round; stroke-width:4; stroke-opacity:1; fill:none" points="193.936,962.37 212.834,962.37 "/>
<polyline clip-path="url(#clip600)" style="stroke:#000000; stroke-linecap:round; stroke-linejoin:round; stroke-width:4; stroke-opacity:1; fill:none" points="193.936,752.835 212.834,752.835 "/>
<polyline clip-path="url(#clip600)" style="stroke:#000000; stroke-linecap:round; stroke-linejoin:round; stroke-width:4; stroke-opacity:1; fill:none" points="193.936,543.299 212.834,543.299 "/>
<polyline clip-path="url(#clip600)" style="stroke:#000000; stroke-linecap:round; stroke-linejoin:round; stroke-width:4; stroke-opacity:1; fill:none" points="193.936,333.763 212.834,333.763 "/>
<polyline clip-path="url(#clip600)" style="stroke:#000000; stroke-linecap:round; stroke-linejoin:round; stroke-width:4; stroke-opacity:1; fill:none" points="193.936,124.227 212.834,124.227 "/>
<path clip-path="url(#clip600)" d="M51.9875 1381.89 L81.6633 1381.89 L81.6633 1385.83 L51.9875 1385.83 L51.9875 1381.89 Z" fill="#000000" fill-rule="nonzero" fill-opacity="1" /><path clip-path="url(#clip600)" d="M92.566 1394.79 L100.205 1394.79 L100.205 1368.42 L91.8947 1370.09 L91.8947 1365.83 L100.159 1364.16 L104.834 1364.16 L104.834 1394.79 L112.473 1394.79 L112.473 1398.72 L92.566 1398.72 L92.566 1394.79 Z" fill="#000000" fill-rule="nonzero" fill-opacity="1" /><path clip-path="url(#clip600)" d="M121.918 1392.84 L126.802 1392.84 L126.802 1398.72 L121.918 1398.72 L121.918 1392.84 Z" fill="#000000" fill-rule="nonzero" fill-opacity="1" /><path clip-path="url(#clip600)" d="M137.033 1364.16 L155.39 1364.16 L155.39 1368.1 L141.316 1368.1 L141.316 1376.57 Q142.334 1376.22 143.353 1376.06 Q144.371 1375.87 145.39 1375.87 Q151.177 1375.87 154.556 1379.05 Q157.936 1382.22 157.936 1387.63 Q157.936 1393.21 154.464 1396.31 Q150.992 1399.39 144.672 1399.39 Q142.496 1399.39 140.228 1399.02 Q137.982 1398.65 135.575 1397.91 L135.575 1393.21 Q137.658 1394.35 139.881 1394.9 Q142.103 1395.46 144.58 1395.46 Q148.584 1395.46 150.922 1393.35 Q153.26 1391.25 153.26 1387.63 Q153.26 1384.02 150.922 1381.92 Q148.584 1379.81 144.58 1379.81 Q142.705 1379.81 140.83 1380.23 Q138.978 1380.64 137.033 1381.52 L137.033 1364.16 Z" fill="#000000" fill-rule="nonzero" fill-opacity="1" /><path clip-path="url(#clip600)" d="M50.9921 1172.36 L80.6679 1172.36 L80.6679 1176.29 L50.9921 1176.29 L50.9921 1172.36 Z" fill="#000000" fill-rule="nonzero" fill-opacity="1" /><path clip-path="url(#clip600)" d="M91.5706 1185.25 L99.2095 1185.25 L99.2095 1158.89 L90.8993 1160.55 L90.8993 1156.29 L99.1632 1154.63 L103.839 1154.63 L103.839 1185.25 L111.478 1185.25 L111.478 1189.19 L91.5706 1189.19 L91.5706 1185.25 Z" fill="#000000" fill-rule="nonzero" fill-opacity="1" /><path clip-path="url(#clip600)" d="M120.922 1183.31 L125.807 1183.31 L125.807 1189.19 L120.922 1189.19 L120.922 1183.31 Z" fill="#000000" fill-rule="nonzero" fill-opacity="1" /><path clip-path="url(#clip600)" d="M145.992 1157.7 Q142.381 1157.7 140.552 1161.27 Q138.746 1164.81 138.746 1171.94 Q138.746 1179.05 140.552 1182.61 Q142.381 1186.15 145.992 1186.15 Q149.626 1186.15 151.431 1182.61 Q153.26 1179.05 153.26 1171.94 Q153.26 1164.81 151.431 1161.27 Q149.626 1157.7 145.992 1157.7 M145.992 1154 Q151.802 1154 154.857 1158.61 Q157.936 1163.19 157.936 1171.94 Q157.936 1180.67 154.857 1185.27 Q151.802 1189.86 145.992 1189.86 Q140.181 1189.86 137.103 1185.27 Q134.047 1180.67 134.047 1171.94 Q134.047 1163.19 137.103 1158.61 Q140.181 1154 145.992 1154 Z" fill="#000000" fill-rule="nonzero" fill-opacity="1" /><path clip-path="url(#clip600)" d="M51.9875 962.822 L81.6633 962.822 L81.6633 966.757 L51.9875 966.757 L51.9875 962.822 Z" fill="#000000" fill-rule="nonzero" fill-opacity="1" /><path clip-path="url(#clip600)" d="M101.756 948.169 Q98.1447 948.169 96.316 951.734 Q94.5104 955.275 94.5104 962.405 Q94.5104 969.511 96.316 973.076 Q98.1447 976.618 101.756 976.618 Q105.39 976.618 107.196 973.076 Q109.024 969.511 109.024 962.405 Q109.024 955.275 107.196 951.734 Q105.39 948.169 101.756 948.169 M101.756 944.465 Q107.566 944.465 110.621 949.072 Q113.7 953.655 113.7 962.405 Q113.7 971.132 110.621 975.738 Q107.566 980.322 101.756 980.322 Q95.9456 980.322 92.8669 975.738 Q89.8114 971.132 89.8114 962.405 Q89.8114 953.655 92.8669 949.072 Q95.9456 944.465 101.756 944.465 Z" fill="#000000" fill-rule="nonzero" fill-opacity="1" /><path clip-path="url(#clip600)" d="M121.918 973.771 L126.802 973.771 L126.802 979.65 L121.918 979.65 L121.918 973.771 Z" fill="#000000" fill-rule="nonzero" fill-opacity="1" /><path clip-path="url(#clip600)" d="M137.033 945.09 L155.39 945.09 L155.39 949.025 L141.316 949.025 L141.316 957.498 Q142.334 957.15 143.353 956.988 Q144.371 956.803 145.39 956.803 Q151.177 956.803 154.556 959.975 Q157.936 963.146 157.936 968.562 Q157.936 974.141 154.464 977.243 Q150.992 980.322 144.672 980.322 Q142.496 980.322 140.228 979.951 Q137.982 979.581 135.575 978.84 L135.575 974.141 Q137.658 975.275 139.881 975.831 Q142.103 976.386 144.58 976.386 Q148.584 976.386 150.922 974.28 Q153.26 972.174 153.26 968.562 Q153.26 964.951 150.922 962.845 Q148.584 960.738 144.58 960.738 Q142.705 960.738 140.83 961.155 Q138.978 961.572 137.033 962.451 L137.033 945.09 Z" fill="#000000" fill-rule="nonzero" fill-opacity="1" /><path clip-path="url(#clip600)" d="M100.76 738.633 Q97.1493 738.633 95.3206 742.198 Q93.515 745.74 93.515 752.869 Q93.515 759.976 95.3206 763.54 Q97.1493 767.082 100.76 767.082 Q104.395 767.082 106.2 763.54 Q108.029 759.976 108.029 752.869 Q108.029 745.74 106.2 742.198 Q104.395 738.633 100.76 738.633 M100.76 734.93 Q106.571 734.93 109.626 739.536 Q112.705 744.119 112.705 752.869 Q112.705 761.596 109.626 766.203 Q106.571 770.786 100.76 770.786 Q94.9502 770.786 91.8715 766.203 Q88.816 761.596 88.816 752.869 Q88.816 744.119 91.8715 739.536 Q94.9502 734.93 100.76 734.93 Z" fill="#000000" fill-rule="nonzero" fill-opacity="1" /><path clip-path="url(#clip600)" d="M120.922 764.235 L125.807 764.235 L125.807 770.115 L120.922 770.115 L120.922 764.235 Z" fill="#000000" fill-rule="nonzero" fill-opacity="1" /><path clip-path="url(#clip600)" d="M145.992 738.633 Q142.381 738.633 140.552 742.198 Q138.746 745.74 138.746 752.869 Q138.746 759.976 140.552 763.54 Q142.381 767.082 145.992 767.082 Q149.626 767.082 151.431 763.54 Q153.26 759.976 153.26 752.869 Q153.26 745.74 151.431 742.198 Q149.626 738.633 145.992 738.633 M145.992 734.93 Q151.802 734.93 154.857 739.536 Q157.936 744.119 157.936 752.869 Q157.936 761.596 154.857 766.203 Q151.802 770.786 145.992 770.786 Q140.181 770.786 137.103 766.203 Q134.047 761.596 134.047 752.869 Q134.047 744.119 137.103 739.536 Q140.181 734.93 145.992 734.93 Z" fill="#000000" fill-rule="nonzero" fill-opacity="1" /><path clip-path="url(#clip600)" d="M101.756 529.097 Q98.1447 529.097 96.316 532.662 Q94.5104 536.204 94.5104 543.333 Q94.5104 550.44 96.316 554.005 Q98.1447 557.546 101.756 557.546 Q105.39 557.546 107.196 554.005 Q109.024 550.44 109.024 543.333 Q109.024 536.204 107.196 532.662 Q105.39 529.097 101.756 529.097 M101.756 525.394 Q107.566 525.394 110.621 530 Q113.7 534.583 113.7 543.333 Q113.7 552.06 110.621 556.667 Q107.566 561.25 101.756 561.25 Q95.9456 561.25 92.8669 556.667 Q89.8114 552.06 89.8114 543.333 Q89.8114 534.583 92.8669 530 Q95.9456 525.394 101.756 525.394 Z" fill="#000000" fill-rule="nonzero" fill-opacity="1" /><path clip-path="url(#clip600)" d="M121.918 554.699 L126.802 554.699 L126.802 560.579 L121.918 560.579 L121.918 554.699 Z" fill="#000000" fill-rule="nonzero" fill-opacity="1" /><path clip-path="url(#clip600)" d="M137.033 526.019 L155.39 526.019 L155.39 529.954 L141.316 529.954 L141.316 538.426 Q142.334 538.079 143.353 537.917 Q144.371 537.732 145.39 537.732 Q151.177 537.732 154.556 540.903 Q157.936 544.074 157.936 549.491 Q157.936 555.069 154.464 558.171 Q150.992 561.25 144.672 561.25 Q142.496 561.25 140.228 560.88 Q137.982 560.509 135.575 559.769 L135.575 555.069 Q137.658 556.204 139.881 556.759 Q142.103 557.315 144.58 557.315 Q148.584 557.315 150.922 555.208 Q153.26 553.102 153.26 549.491 Q153.26 545.88 150.922 543.773 Q148.584 541.667 144.58 541.667 Q142.705 541.667 140.83 542.083 Q138.978 542.5 137.033 543.38 L137.033 526.019 Z" fill="#000000" fill-rule="nonzero" fill-opacity="1" /><path clip-path="url(#clip600)" d="M91.5706 347.108 L99.2095 347.108 L99.2095 320.742 L90.8993 322.409 L90.8993 318.15 L99.1632 316.483 L103.839 316.483 L103.839 347.108 L111.478 347.108 L111.478 351.043 L91.5706 351.043 L91.5706 347.108 Z" fill="#000000" fill-rule="nonzero" fill-opacity="1" /><path clip-path="url(#clip600)" d="M120.922 345.163 L125.807 345.163 L125.807 351.043 L120.922 351.043 L120.922 345.163 Z" fill="#000000" fill-rule="nonzero" fill-opacity="1" /><path clip-path="url(#clip600)" d="M145.992 319.562 Q142.381 319.562 140.552 323.126 Q138.746 326.668 138.746 333.798 Q138.746 340.904 140.552 344.469 Q142.381 348.011 145.992 348.011 Q149.626 348.011 151.431 344.469 Q153.26 340.904 153.26 333.798 Q153.26 326.668 151.431 323.126 Q149.626 319.562 145.992 319.562 M145.992 315.858 Q151.802 315.858 154.857 320.464 Q157.936 325.048 157.936 333.798 Q157.936 342.524 154.857 347.131 Q151.802 351.714 145.992 351.714 Q140.181 351.714 137.103 347.131 Q134.047 342.524 134.047 333.798 Q134.047 325.048 137.103 320.464 Q140.181 315.858 145.992 315.858 Z" fill="#000000" fill-rule="nonzero" fill-opacity="1" /><path clip-path="url(#clip600)" d="M92.566 137.572 L100.205 137.572 L100.205 111.206 L91.8947 112.873 L91.8947 108.614 L100.159 106.947 L104.834 106.947 L104.834 137.572 L112.473 137.572 L112.473 141.507 L92.566 141.507 L92.566 137.572 Z" fill="#000000" fill-rule="nonzero" fill-opacity="1" /><path clip-path="url(#clip600)" d="M121.918 135.628 L126.802 135.628 L126.802 141.507 L121.918 141.507 L121.918 135.628 Z" fill="#000000" fill-rule="nonzero" fill-opacity="1" /><path clip-path="url(#clip600)" d="M137.033 106.947 L155.39 106.947 L155.39 110.882 L141.316 110.882 L141.316 119.354 Q142.334 119.007 143.353 118.845 Q144.371 118.66 145.39 118.66 Q151.177 118.66 154.556 121.831 Q157.936 125.003 157.936 130.419 Q157.936 135.998 154.464 139.1 Q150.992 142.178 144.672 142.178 Q142.496 142.178 140.228 141.808 Q137.982 141.438 135.575 140.697 L135.575 135.998 Q137.658 137.132 139.881 137.688 Q142.103 138.243 144.58 138.243 Q148.584 138.243 150.922 136.137 Q153.26 134.03 153.26 130.419 Q153.26 126.808 150.922 124.702 Q148.584 122.595 144.58 122.595 Q142.705 122.595 140.83 123.012 Q138.978 123.429 137.033 124.308 L137.033 106.947 Z" fill="#000000" fill-rule="nonzero" fill-opacity="1" /><polyline clip-path="url(#clip601)" style="stroke:#009af9; stroke-linecap:round; stroke-linejoin:round; stroke-width:4; stroke-opacity:1; fill:none" points="193.936,752.835 196.097,761.206 198.258,769.466 200.419,777.617 202.58,785.659 204.741,793.595 206.902,801.426 209.063,809.153 211.224,816.777 213.385,824.301 215.546,831.724 217.707,839.05 219.868,846.278 222.029,853.41 224.19,860.448 226.351,867.392 228.512,874.244 230.673,881.006 232.834,887.678 234.995,894.261 237.156,900.757 239.317,907.167 241.478,913.492 243.639,919.734 245.8,925.892 247.961,931.969 250.122,937.965 252.282,943.882 254.443,949.72 256.604,955.481 258.765,961.165 260.926,966.774 263.087,972.309 265.248,977.77 267.409,983.159 269.57,988.477 271.731,993.724 273.892,998.901 276.053,1004.01 278.214,1009.05 280.375,1014.03 282.536,1018.93 284.697,1023.78 286.858,1028.56 289.019,1033.27 291.18,1037.92 293.341,1042.52 295.502,1047.05 297.663,1051.52 299.824,1055.93 301.985,1060.28 304.146,1064.58 306.307,1068.81 308.468,1073 310.629,1077.12 312.79,1081.19 314.951,1085.21 317.112,1089.18 319.273,1093.09 321.434,1096.95 323.595,1100.76 325.756,1104.52 327.917,1108.22 330.078,1111.88 332.239,1115.49 334.4,1119.06 336.561,1122.57 338.722,1126.04 340.883,1129.47 343.044,1132.84 345.205,1136.18 347.366,1139.47 349.527,1142.71 351.688,1145.91 353.849,1149.07 356.01,1152.19 358.171,1155.27 360.332,1158.3 362.493,1161.3 364.653,1164.25 366.814,1167.17 368.975,1170.05 371.136,1172.89 373.297,1175.69 375.458,1178.45 377.619,1181.18 379.78,1183.88 381.941,1186.53 384.102,1189.15 386.263,1191.74 388.424,1194.29 390.585,1196.81 392.746,1199.29 394.907,1201.75 397.068,1204.17 399.229,1206.55 401.39,1208.91 403.551,1211.23 405.712,1213.53 407.873,1215.79 410.034,1217.59 412.195,1218.45 414.356,1218.44 416.517,1217.67 418.678,1216.22 420.839,1214.18 423,1211.61 425.161,1208.6 427.322,1205.21 429.483,1201.51 431.644,1197.55 433.805,1193.41 435.966,1189.12 438.127,1184.73 440.288,1180.3 442.449,1175.85 444.61,1171.43 446.771,1167.06 448.932,1162.77 451.093,1158.59 453.254,1154.53 455.415,1150.6 457.576,1146.82 459.737,1143.19 461.898,1139.71 464.059,1136.38 466.22,1133.19 468.381,1130.13 470.542,1127.18 472.703,1124.32 474.864,1121.53 477.024,1118.77 479.185,1116.03 481.346,1113.25 483.507,1110.4 485.668,1107.57 487.829,1104.77 489.99,1102 492.151,1099.28 494.312,1096.59 496.473,1093.93 498.634,1091.31 500.795,1088.73 502.956,1086.18 505.117,1083.66 507.278,1081.18 509.439,1078.73 511.6,1076.31 513.761,1073.93 515.922,1071.57 518.083,1069.25 520.244,1066.96 522.405,1064.7 524.566,1062.46 526.727,1060.26 528.888,1058.09 531.049,1055.95 533.21,1053.83 535.371,1051.74 537.532,1049.68 539.693,1047.65 541.854,1045.65 544.015,1043.67 546.176,1041.71 548.337,1039.79 550.498,1037.89 552.659,1036.01 554.82,1034.16 556.981,1032.33 559.142,1030.53 561.303,1028.75 563.464,1027 565.625,1025.26 567.786,1023.55 569.947,1021.87 572.108,1020.2 574.269,1018.56 576.43,1016.94 578.591,1015.34 580.752,1013.77 582.913,1012.21 585.074,1010.68 587.235,1009.16 589.396,1007.66 591.556,1006.19 593.717,1004.73 595.878,1003.3 598.039,1001.88 600.2,1000.48 602.361,999.101 604.522,997.739 606.683,996.395 608.844,995.069 611.005,993.76 613.166,992.469 615.327,991.195 617.488,989.785 619.649,986.752 621.81,981.928 623.971,975.553 626.132,967.858 628.293,959.055 630.454,949.344 632.615,938.909 634.776,927.92 636.937,916.533 639.098,904.888 641.259,893.111 643.42,881.315 645.581,869.596 647.742,858.036 649.903,846.703 652.064,835.652 654.225,824.919 656.386,814.53 658.547,804.493 660.708,794.804 662.869,785.443 665.03,776.375 667.191,767.553 669.352,758.911 671.513,750.373 673.674,741.845 675.835,733.229 677.996,724.651 680.157,716.186 682.318,707.833 684.479,699.592 686.64,691.459 688.801,683.434 690.962,675.516 693.123,667.703 695.284,659.993 697.445,652.385 699.606,644.879 701.767,637.472 703.927,630.163 706.088,622.951 708.249,615.834 710.41,608.812 712.571,601.883 714.732,595.045 716.893,588.299 719.054,581.641 721.215,575.072 723.376,568.59 725.537,562.194 727.698,555.883 729.859,549.655 732.02,543.51 734.181,537.447 736.342,531.464 738.503,525.56 740.664,519.735 742.825,513.987 744.986,508.316 747.147,502.719 749.308,497.197 751.469,491.748 753.63,486.371 755.791,481.066 757.952,475.831 760.113,470.665 762.274,465.568 764.435,460.538 766.596,455.575 768.757,450.678 770.918,445.846 773.079,441.078 775.24,436.373 777.401,431.73 779.562,427.149 781.723,422.628 783.884,418.168 786.045,413.766 788.206,409.423 790.367,405.138 792.528,400.909 794.689,396.736 796.85,392.619 799.011,388.556 801.172,384.548 803.333,380.592 805.494,376.689 807.655,372.837 809.816,369.037 811.977,365.287 814.138,361.587 816.298,357.935 818.459,354.332 820.62,350.777 822.781,347.269 824.942,343.808 827.103,340.392 829.264,337.022 831.425,333.697 833.586,330.444 835.747,327.284 837.908,324.213 840.069,321.225 842.23,318.316 844.391,315.48 846.552,312.714 848.713,310.012 850.874,307.373 853.035,304.79 855.196,302.262 857.357,299.784 859.518,297.352 861.679,294.965 863.84,292.619 866.001,290.312 868.162,288.04 870.323,285.802 872.484,283.596 874.645,281.419 876.806,279.27 878.967,277.147 881.128,275.049 883.289,272.975 885.45,270.924 887.611,268.895 889.772,266.887 891.933,264.901 894.094,262.935 896.255,260.989 898.416,259.065 900.577,257.162 902.738,255.281 904.899,253.422 907.06,251.587 909.221,249.776 911.382,247.991 913.543,246.234 915.704,244.505 917.865,242.802 920.026,241.121 922.187,239.463 924.348,237.827 926.509,236.212 928.669,234.619 930.83,233.046 932.991,231.495 935.152,229.964 937.313,228.454 939.474,226.964 941.635,225.493 943.796,224.042 945.957,222.61 948.118,221.197 950.279,219.803 952.44,218.427 954.601,217.07 956.762,215.73 958.923,214.409 961.084,213.105 963.245,211.818 965.406,210.548 967.567,209.295 969.728,208.059 971.889,206.839 974.05,205.635 976.211,204.447 978.372,203.275 980.533,202.118 982.694,200.977 984.855,199.851 987.016,198.74 989.177,197.643 991.338,196.562 993.499,195.494 995.66,194.441 997.821,193.401 999.982,192.376 1002.14,191.363 1004.3,190.365 1006.46,189.379 1008.63,188.407 1010.79,187.448 1012.95,186.501 1015.11,185.567 1017.27,184.645 1019.43,183.735 1021.59,182.838 1023.75,181.952 1025.91,181.078 1028.07,180.216 1030.24,179.365 1032.4,178.526 1034.56,177.697 1036.72,176.88 1038.88,176.073 1041.04,175.277 1043.2,174.492 1045.36,173.717 1047.52,172.952 1049.68,172.198 1051.85,171.453 1054.01,170.719 1056.17,170.036 1058.33,170.928 1060.49,173.969 1062.65,178.91 1064.81,185.515 1066.97,193.563 1069.13,202.843 1071.29,213.158 1073.46,224.324 1075.62,236.168 1077.78,248.532 1079.94,261.269 1082.1,274.246 1084.26,287.342 1086.42,300.449 1088.58,313.472 1090.74,326.329 1092.9,338.948 1095.07,351.273 1097.23,363.26 1099.39,374.878 1101.55,386.106 1103.71,396.939 1105.87,407.384 1108.03,417.46 1110.19,427.198 1112.35,436.644 1114.51,445.855 1116.67,454.902 1118.84,463.867 1121,472.845 1123.16,481.942 1125.32,491.023 1127.48,499.984 1129.64,508.827 1131.8,517.552 1133.96,526.161 1136.12,534.656 1138.28,543.039 1140.45,551.311 1142.61,559.472 1144.77,567.526 1146.93,575.473 1149.09,583.314 1151.25,591.052 1153.41,598.687 1155.57,606.221 1157.73,613.655 1159.89,620.991 1162.06,628.229 1164.22,635.372 1166.38,642.42 1168.54,649.374 1170.7,656.237 1172.86,663.008 1175.02,669.69 1177.18,676.283 1179.34,682.788 1181.5,689.207 1183.67,695.541 1185.83,701.791 1187.99,707.958 1190.15,714.043 1192.31,720.047 1194.47,725.972 1196.63,731.818 1198.79,737.586 1200.95,743.278 1203.11,748.894 1205.28,754.436 1207.44,759.905 1209.6,765.3 1211.76,770.625 1213.92,775.878 1216.08,781.062 1218.24,786.178 1220.4,791.225 1222.56,796.206 1224.72,801.12 1226.88,805.97 1229.05,810.755 1231.21,815.477 1233.37,820.136 1235.53,824.734 1237.69,829.271 1239.85,833.747 1242.01,838.165 1244.17,842.523 1246.33,846.824 1248.49,851.068 1250.66,855.256 1252.82,859.388 1254.98,863.465 1257.14,867.489 1259.3,871.459 1261.46,875.376 1263.62,879.241 1265.78,883.055 1267.94,886.819 1270.1,890.533 1272.27,894.197 1274.43,897.894 1276.59,901.886 1278.75,906.159 1280.91,910.678 1283.07,915.411 1285.23,920.326 1287.39,925.393 1289.55,930.582 1291.71,935.869 1293.88,941.227 1296.04,946.634 1298.2,952.067 1300.36,957.508 1302.52,962.937 1304.68,968.338 1306.84,973.696 1309,978.998 1311.16,984.233 1313.32,989.39 1315.49,994.461 1317.65,999.439 1319.81,1004.32 1321.97,1009.1 1324.13,1013.78 1326.29,1018.36 1328.45,1022.84 1330.61,1027.22 1332.77,1031.51 1334.93,1035.71 1337.09,1039.84 1339.26,1043.9 1341.42,1047.91 1343.58,1051.88 1345.74,1055.83 1347.9,1059.76 1350.06,1063.65 1352.22,1067.49 1354.38,1071.27 1356.54,1075.01 1358.7,1078.69 1360.87,1082.33 1363.03,1085.92 1365.19,1089.46 1367.35,1092.96 1369.51,1096.41 1371.67,1099.81 1373.83,1103.17 1375.99,1106.48 1378.15,1109.75 1380.31,1112.97 1382.48,1116.16 1384.64,1119.3 1386.8,1122.4 1388.96,1125.45 1391.12,1128.47 1393.28,1131.45 1395.44,1134.39 1397.6,1137.29 1399.76,1140.15 1401.92,1142.97 1404.09,1145.75 1406.25,1148.5 1408.41,1151.21 1410.57,1153.89 1412.73,1156.53 1414.89,1159.14 1417.05,1161.71 1419.21,1164.24 1421.37,1166.75 1423.53,1169.22 1425.7,1171.65 1427.86,1174.06 1430.02,1176.43 1432.18,1178.77 1434.34,1181.08 1436.5,1183.36 1438.66,1185.61 1440.82,1187.83 1442.98,1190.02 1445.14,1192.19 1447.3,1194.32 1449.47,1196.42 1451.63,1198.5 1453.79,1200.55 1455.95,1202.57 1458.11,1204.57 1460.27,1206.53 1462.43,1208.48 1464.59,1210.39 1466.75,1212.28 1468.91,1214.15 1471.08,1215.99 1473.24,1217.81 1475.4,1219.6 1477.56,1221.37 1479.72,1223.12 1481.88,1224.84 1484.04,1226.54 1486.2,1228.22 1488.36,1229.87 1490.52,1231.17 1492.69,1231.59 1494.85,1231.21 1497.01,1230.11 1499.17,1228.39 1501.33,1226.11 1503.49,1223.35 1505.65,1220.18 1507.81,1216.66 1509.97,1212.85 1512.13,1208.81 1514.3,1204.6 1516.46,1200.26 1518.62,1195.83 1520.78,1191.37 1522.94,1186.9 1525.1,1182.45 1527.26,1178.07 1529.42,1173.76 1531.58,1169.56 1533.74,1165.47 1535.91,1161.51 1538.07,1157.7 1540.23,1154.03 1542.39,1150.5 1544.55,1147.11 1546.71,1143.86 1548.87,1140.73 1551.03,1137.71 1553.19,1134.77 1555.35,1131.9 1557.51,1129.06 1559.68,1126.23 1561.84,1123.36 1564,1120.44 1566.16,1117.54 1568.32,1114.68 1570.48,1111.86 1572.64,1109.08 1574.8,1106.33 1576.96,1103.62 1579.12,1100.94 1581.29,1098.3 1583.45,1095.69 1585.61,1093.12 1587.77,1090.59 1589.93,1088.08 1592.09,1085.61 1594.25,1083.18 1596.41,1080.77 1598.57,1078.4 1600.73,1076.06 1602.9,1073.75 1605.06,1071.47 1607.22,1069.22 1609.38,1067 1611.54,1064.81 1613.7,1062.65 1615.86,1060.51 1618.02,1058.41 1620.18,1056.33 1622.34,1054.28 1624.51,1052.26 1626.67,1050.27 1628.83,1048.3 1630.99,1046.36 1633.15,1044.44 1635.31,1042.55 1637.47,1040.68 1639.63,1038.84 1641.79,1037.02 1643.95,1035.23 1646.12,1033.46 1648.28,1031.72 1650.44,1029.99 1652.6,1028.29 1654.76,1026.62 1656.92,1024.96 1659.08,1023.33 1661.24,1021.72 1663.4,1020.13 1665.56,1018.56 1667.72,1017.01 1669.89,1015.48 1672.05,1013.96 1674.21,1012.42 1676.37,1010.89 1678.53,1009.35 1680.69,1007.83 1682.85,1006.33 1685.01,1004.85 1687.17,1003.41 1689.33,1002 1691.5,1000.63 1693.66,999.306 1695.82,998.031 1697.98,996.807 1700.14,995.637 1702.3,994.52 1704.46,993.459 1706.62,992.454 1708.78,991.504 1710.94,990.607 1713.11,989.764 1715.27,988.97 1717.43,988.225 1719.59,987.523 1721.75,986.861 1723.91,986.234 1726.07,985.637 1728.23,985.065 1730.39,984.51 1732.55,983.965 1734.72,983.424 1736.88,982.876 1739.04,982.316 1741.2,981.756 1743.36,981.205 1745.52,980.66 1747.68,980.123 1749.84,979.593 1752,979.07 1754.16,978.554 1756.33,978.044 1758.49,977.542 1760.65,977.046 1762.81,976.557 1764.97,976.074 1767.13,975.597 1769.29,975.127 1771.45,974.663 1773.61,974.206 1775.77,973.754 1777.93,973.308 1780.1,972.869 1782.26,972.435 1784.42,972.007 1786.58,971.584 1788.74,971.167 1790.9,970.756 1793.06,970.35 1795.22,969.949 1797.38,969.554 1799.54,969.163 1801.71,968.778 1803.87,968.398 1806.03,968.023 1808.19,967.653 1810.35,967.288 1812.51,966.928 1814.67,966.573 1816.83,966.222 1818.99,965.876 1821.15,965.535 1823.32,965.198 1825.48,964.865 1827.64,964.537 1829.8,964.214 1831.96,963.894 1834.12,963.579 1836.28,963.268 1838.44,962.962 1840.6,962.659 1842.76,962.36 1844.93,962.066 1847.09,961.775 1849.25,961.488 1851.41,961.205 1853.57,960.926 1855.73,960.651 1857.89,960.379 1860.05,960.111 1862.21,959.846 1864.37,959.585 1866.54,959.327 1868.7,959.073 1870.86,958.822 1873.02,958.575 1875.18,958.331 1877.34,958.09 1879.5,957.852 1881.66,957.617 1883.82,957.386 1885.98,957.157 1888.15,956.932 1890.31,956.71 1892.47,956.49 1894.63,956.274 1896.79,956.06 1898.95,955.849 1901.11,955.641 1903.27,955.436 1905.43,955.233 1907.59,955.033 1909.75,954.836 1911.92,954.641 1914.08,954.391 1916.24,953.078 1918.4,950.469 1920.56,946.732 1922.72,942.027 1924.88,936.506 1927.04,930.307 1929.2,923.562 1931.36,916.39 1933.53,908.902 1935.69,901.198 1937.85,893.369 1940.01,885.495 1942.17,877.648 1944.33,869.887 1946.49,862.263 1948.65,854.818 1950.81,847.583 1952.97,840.577 1955.14,833.814 1957.3,827.293 1959.46,821.007 1961.62,814.936 1963.78,809.051 1965.94,803.315 1968.1,797.679 1970.26,792.085 1972.42,786.464 1974.58,780.781 1976.75,775.157 1978.91,769.608 1981.07,764.133 1983.23,758.731 1985.39,753.399 1987.55,748.139 1989.71,742.948 1991.87,737.827 1994.03,732.773 1996.19,727.786 1998.36,722.865 2000.52,718.01 2002.68,713.219 2004.84,708.491 2007,703.826 2009.16,699.223 2011.32,694.681 2013.48,690.199 2015.64,685.777 2017.8,681.413 2019.96,677.107 2022.13,672.858 2024.29,668.665 2026.45,664.528 2028.61,660.446 2030.77,656.417 2032.93,652.443 2035.09,648.52 2037.25,644.65 2039.41,640.831 2041.57,637.063 2043.74,633.345 2045.9,629.676 2048.06,626.056 2050.22,622.484 2052.38,618.959 2054.54,615.481 2056.7,612.049 2058.86,608.663 2061.02,605.322 2063.18,602.025 2065.35,598.772 2067.51,595.562 2069.67,592.394 2071.83,589.269 2073.99,586.184 2076.15,583.141 2078.31,580.138 2080.47,577.175 2082.63,574.252 2084.79,571.367 2086.96,568.52 2089.12,565.711 2091.28,562.939 2093.44,560.204 2095.6,557.505 2097.76,554.842 2099.92,552.214 2102.08,549.621 2104.24,547.062 2106.4,544.538 2108.57,542.046 2110.73,539.588 2112.89,537.163 2115.05,534.769 2117.21,532.407 2119.37,530.077 2121.53,527.777 2123.69,525.508 2125.85,523.269 2128.01,521.06 2130.17,518.88 2132.34,516.729 2134.5,514.606 2136.66,512.545 2138.82,511.822 2140.98,512.923 2143.14,515.619 2145.3,519.691 2147.46,524.937 2149.62,531.164 2151.78,538.196 2153.95,545.868 2156.11,554.028 2158.27,562.538 2160.43,571.273 2162.59,580.122 2164.75,588.985 2166.91,597.776 2169.07,606.424 2171.23,614.869 2173.39,623.064 2175.56,630.977 2177.72,638.588 2179.88,645.889 2182.04,652.888 2184.2,659.605 2186.36,666.07 2188.52,672.332 2190.68,678.448 2192.84,684.49 2195,690.545 2197.17,696.709 2199.33,702.891 2201.49,708.991 2203.65,715.01 2205.81,720.95 2207.97,726.81 2210.13,732.594 2212.29,738.3 2214.45,743.931 2216.61,749.487 2218.78,754.969 2220.94,760.379 2223.1,765.717 2225.26,770.984 2227.42,776.182 2229.58,781.31 2231.74,786.371 2233.9,791.364 2236.06,796.292 2238.22,801.154 2240.38,805.951 2242.55,810.685 2244.71,815.357 2246.87,819.966 2249.03,824.514 2251.19,829.002 2253.35,833.43 2255.51,837.8 2257.67,842.111 2259.83,846.366 2261.99,850.564 2264.16,854.706 2266.32,858.793 2268.48,862.826 2270.64,866.806 2272.8,870.733 2274.96,874.608 2277.12,878.431 2279.28,882.204 2281.44,885.926 2283.6,889.6 2285.77,893.224 2287.93,896.801 2290.09,900.33 2292.25,903.813 2294.41,907.249 2296.57,910.64 2298.73,913.986 2300.89,917.287 2303.05,920.545 2305.21,923.76 2307.38,926.932 2309.54,930.061 2311.7,933.15 2313.86,936.197 2316.02,939.204 2318.18,942.172 2320.34,945.099 2322.5,947.988 2324.66,950.839 2326.82,953.652 2328.99,956.427 2331.15,959.166 2333.31,961.869 2335.47,964.535 2337.63,967.167 2339.79,969.763 2341.95,972.325 2344.11,974.853 2346.27,977.347 2348.43,979.809 2350.59,982.238 2352.76,984.634 "/>
<polyline clip-path="url(#clip601)" style="stroke:#e26f46; stroke-linecap:round; stroke-linejoin:round; stroke-width:4; stroke-opacity:1; fill:none" points="193.936,1384.24 196.097,1384.24 198.258,1384.24 200.419,1384.24 202.58,1384.24 204.741,1384.24 206.902,1384.24 209.063,1384.24 211.224,1384.24 213.385,1384.24 215.546,1384.24 217.707,1384.24 219.868,1384.24 222.029,1384.24 224.19,1384.24 226.351,1384.24 228.512,1384.24 230.673,1384.24 232.834,1384.24 234.995,1384.24 237.156,1384.24 239.317,1384.24 241.478,1384.24 243.639,1384.24 245.8,1384.24 247.961,1384.24 250.122,1384.24 252.282,1384.24 254.443,1384.24 256.604,1384.24 258.765,1384.24 260.926,1384.24 263.087,1384.24 265.248,1384.24 267.409,1384.24 269.57,1384.24 271.731,1384.24 273.892,1384.24 276.053,1384.24 278.214,1384.24 280.375,1384.24 282.536,1384.24 284.697,1384.24 286.858,1384.24 289.019,1384.24 291.18,1384.24 293.341,1384.24 295.502,1384.24 297.663,1384.24 299.824,1384.24 301.985,1384.24 304.146,1384.24 306.307,1384.24 308.468,1384.24 310.629,1384.24 312.79,1384.24 314.951,1384.24 317.112,1384.24 319.273,1384.24 321.434,1384.24 323.595,1384.24 325.756,1384.24 327.917,1384.24 330.078,1384.24 332.239,1384.24 334.4,1384.24 336.561,1384.24 338.722,1384.24 340.883,1384.24 343.044,1384.24 345.205,1384.24 347.366,1384.24 349.527,1384.24 351.688,1384.24 353.849,1384.24 356.01,1384.24 358.171,1384.24 360.332,1384.24 362.493,1384.24 364.653,1384.24 366.814,1384.24 368.975,1384.24 371.136,1384.24 373.297,1384.24 375.458,1384.24 377.619,1384.24 379.78,1384.24 381.941,1384.24 384.102,1384.24 386.263,1384.24 388.424,1384.24 390.585,1384.24 392.746,1384.24 394.907,1384.24 397.068,1384.24 399.229,1384.24 401.39,1384.24 403.551,1384.24 405.712,1384.24 407.873,1384.24 410.034,896.378 412.195,896.378 414.356,896.378 416.517,896.378 418.678,896.378 420.839,896.378 423,896.378 425.161,896.378 427.322,896.378 429.483,896.378 431.644,896.378 433.805,896.378 435.966,896.378 438.127,896.378 440.288,896.378 442.449,896.378 444.61,896.378 446.771,896.378 448.932,896.378 451.093,896.378 453.254,896.378 455.415,896.378 457.576,896.378 459.737,896.378 461.898,896.378 464.059,896.378 466.22,896.378 468.381,896.378 470.542,896.378 472.703,896.378 474.864,896.378 477.024,896.378 479.185,896.378 481.346,896.378 483.507,896.378 485.668,896.378 487.829,896.378 489.99,896.378 492.151,896.378 494.312,896.378 496.473,896.378 498.634,896.378 500.795,896.378 502.956,896.378 505.117,896.378 507.278,896.378 509.439,896.378 511.6,896.378 513.761,896.378 515.922,896.378 518.083,896.378 520.244,896.378 522.405,896.378 524.566,896.378 526.727,896.378 528.888,896.378 531.049,896.378 533.21,896.378 535.371,896.378 537.532,896.378 539.693,896.378 541.854,896.378 544.015,896.378 546.176,896.378 548.337,896.378 550.498,896.378 552.659,896.378 554.82,896.378 556.981,896.378 559.142,896.378 561.303,896.378 563.464,896.378 565.625,896.378 567.786,896.378 569.947,896.378 572.108,896.378 574.269,896.378 576.43,896.378 578.591,896.378 580.752,896.378 582.913,896.378 585.074,896.378 587.235,896.378 589.396,896.378 591.556,896.378 593.717,896.378 595.878,896.378 598.039,896.378 600.2,896.378 602.361,896.378 604.522,896.378 606.683,896.378 608.844,896.378 611.005,896.378 613.166,896.378 615.327,896.378 617.488,896.378 619.649,896.378 621.81,896.378 623.971,896.378 626.132,86.1857 628.293,86.1857 630.454,86.1857 632.615,86.1857 634.776,86.1857 636.937,86.1857 639.098,86.1857 641.259,86.1857 643.42,86.1857 645.581,86.1857 647.742,86.1857 649.903,86.1857 652.064,86.1857 654.225,86.1857 656.386,86.1857 658.547,86.1857 660.708,86.1857 662.869,86.1857 665.03,86.1857 667.191,86.1857 669.352,86.1857 671.513,86.1857 673.674,86.1857 675.835,86.1857 677.996,86.1857 680.157,86.1857 682.318,86.1857 684.479,86.1857 686.64,86.1857 688.801,86.1857 690.962,86.1857 693.123,86.1857 695.284,86.1857 697.445,86.1857 699.606,86.1857 701.767,86.1857 703.927,86.1857 706.088,86.1857 708.249,86.1857 710.41,86.1857 712.571,86.1857 714.732,86.1857 716.893,86.1857 719.054,86.1857 721.215,86.1857 723.376,86.1857 725.537,86.1857 727.698,86.1857 729.859,86.1857 732.02,86.1857 734.181,86.1857 736.342,86.1857 738.503,86.1857 740.664,86.1857 742.825,86.1857 744.986,86.1857 747.147,86.1857 749.308,86.1857 751.469,86.1857 753.63,86.1857 755.791,86.1857 757.952,86.1857 760.113,86.1857 762.274,86.1857 764.435,86.1857 766.596,86.1857 768.757,86.1857 770.918,86.1857 773.079,86.1857 775.24,86.1857 777.401,86.1857 779.562,86.1857 781.723,86.1857 783.884,86.1857 786.045,86.1857 788.206,86.1857 790.367,86.1857 792.528,86.1857 794.689,86.1857 796.85,86.1857 799.011,86.1857 801.172,86.1857 803.333,86.1857 805.494,86.1857 807.655,86.1857 809.816,86.1857 811.977,86.1857 814.138,86.1857 816.298,86.1857 818.459,86.1857 820.62,86.1857 822.781,86.1857 824.942,86.1857 827.103,86.1857 829.264,86.1857 831.425,86.1857 833.586,86.1857 835.747,86.1857 837.908,86.1857 840.069,86.1857 842.23,116.04 844.391,116.04 846.552,116.04 848.713,116.04 850.874,116.04 853.035,116.04 855.196,116.04 857.357,116.04 859.518,116.04 861.679,116.04 863.84,116.04 866.001,116.04 868.162,116.04 870.323,116.04 872.484,116.04 874.645,116.04 876.806,116.04 878.967,116.04 881.128,116.04 883.289,116.04 885.45,116.04 887.611,116.04 889.772,116.04 891.933,116.04 894.094,116.04 896.255,116.04 898.416,116.04 900.577,116.04 902.738,116.04 904.899,116.04 907.06,116.04 909.221,116.04 911.382,116.04 913.543,116.04 915.704,116.04 917.865,116.04 920.026,116.04 922.187,116.04 924.348,116.04 926.509,116.04 928.669,116.04 930.83,116.04 932.991,116.04 935.152,116.04 937.313,116.04 939.474,116.04 941.635,116.04 943.796,116.04 945.957,116.04 948.118,116.04 950.279,116.04 952.44,116.04 954.601,116.04 956.762,116.04 958.923,116.04 961.084,116.04 963.245,116.04 965.406,116.04 967.567,116.04 969.728,116.04 971.889,116.04 974.05,116.04 976.211,116.04 978.372,116.04 980.533,116.04 982.694,116.04 984.855,116.04 987.016,116.04 989.177,116.04 991.338,116.04 993.499,116.04 995.66,116.04 997.821,116.04 999.982,116.04 1002.14,116.04 1004.3,116.04 1006.46,116.04 1008.63,116.04 1010.79,116.04 1012.95,116.04 1015.11,116.04 1017.27,116.04 1019.43,116.04 1021.59,116.04 1023.75,116.04 1025.91,116.04 1028.07,116.04 1030.24,116.04 1032.4,116.04 1034.56,116.04 1036.72,116.04 1038.88,116.04 1041.04,116.04 1043.2,116.04 1045.36,116.04 1047.52,116.04 1049.68,116.04 1051.85,116.04 1054.01,116.04 1056.17,116.04 1058.33,1166.93 1060.49,1166.93 1062.65,1166.93 1064.81,1166.93 1066.97,1166.93 1069.13,1166.93 1071.29,1166.93 1073.46,1166.93 1075.62,1166.93 1077.78,1166.93 1079.94,1166.93 1082.1,1166.93 1084.26,1166.93 1086.42,1166.93 1088.58,1166.93 1090.74,1166.93 1092.9,1166.93 1095.07,1166.93 1097.23,1166.93 1099.39,1166.93 1101.55,1166.93 1103.71,1166.93 1105.87,1166.93 1108.03,1166.93 1110.19,1166.93 1112.35,1166.93 1114.51,1166.93 1116.67,1166.93 1118.84,1166.93 1121,1166.93 1123.16,1166.93 1125.32,1166.93 1127.48,1166.93 1129.64,1166.93 1131.8,1166.93 1133.96,1166.93 1136.12,1166.93 1138.28,1166.93 1140.45,1166.93 1142.61,1166.93 1144.77,1166.93 1146.93,1166.93 1149.09,1166.93 1151.25,1166.93 1153.41,1166.93 1155.57,1166.93 1157.73,1166.93 1159.89,1166.93 1162.06,1166.93 1164.22,1166.93 1166.38,1166.93 1168.54,1166.93 1170.7,1166.93 1172.86,1166.93 1175.02,1166.93 1177.18,1166.93 1179.34,1166.93 1181.5,1166.93 1183.67,1166.93 1185.83,1166.93 1187.99,1166.93 1190.15,1166.93 1192.31,1166.93 1194.47,1166.93 1196.63,1166.93 1198.79,1166.93 1200.95,1166.93 1203.11,1166.93 1205.28,1166.93 1207.44,1166.93 1209.6,1166.93 1211.76,1166.93 1213.92,1166.93 1216.08,1166.93 1218.24,1166.93 1220.4,1166.93 1222.56,1166.93 1224.72,1166.93 1226.88,1166.93 1229.05,1166.93 1231.21,1166.93 1233.37,1166.93 1235.53,1166.93 1237.69,1166.93 1239.85,1166.93 1242.01,1166.93 1244.17,1166.93 1246.33,1166.93 1248.49,1166.93 1250.66,1166.93 1252.82,1166.93 1254.98,1166.93 1257.14,1166.93 1259.3,1166.93 1261.46,1166.93 1263.62,1166.93 1265.78,1166.93 1267.94,1166.93 1270.1,1166.93 1272.27,1166.93 1274.43,1353.05 1276.59,1353.05 1278.75,1353.05 1280.91,1353.05 1283.07,1353.05 1285.23,1353.05 1287.39,1353.05 1289.55,1353.05 1291.71,1353.05 1293.88,1353.05 1296.04,1353.05 1298.2,1353.05 1300.36,1353.05 1302.52,1353.05 1304.68,1353.05 1306.84,1353.05 1309,1353.05 1311.16,1353.05 1313.32,1353.05 1315.49,1353.05 1317.65,1353.05 1319.81,1353.05 1321.97,1353.05 1324.13,1353.05 1326.29,1353.05 1328.45,1353.05 1330.61,1353.05 1332.77,1353.05 1334.93,1353.05 1337.09,1353.05 1339.26,1353.05 1341.42,1353.05 1343.58,1353.05 1345.74,1353.05 1347.9,1353.05 1350.06,1353.05 1352.22,1353.05 1354.38,1353.05 1356.54,1353.05 1358.7,1353.05 1360.87,1353.05 1363.03,1353.05 1365.19,1353.05 1367.35,1353.05 1369.51,1353.05 1371.67,1353.05 1373.83,1353.05 1375.99,1353.05 1378.15,1353.05 1380.31,1353.05 1382.48,1353.05 1384.64,1353.05 1386.8,1353.05 1388.96,1353.05 1391.12,1353.05 1393.28,1353.05 1395.44,1353.05 1397.6,1353.05 1399.76,1353.05 1401.92,1353.05 1404.09,1353.05 1406.25,1353.05 1408.41,1353.05 1410.57,1353.05 1412.73,1353.05 1414.89,1353.05 1417.05,1353.05 1419.21,1353.05 1421.37,1353.05 1423.53,1353.05 1425.7,1353.05 1427.86,1353.05 1430.02,1353.05 1432.18,1353.05 1434.34,1353.05 1436.5,1353.05 1438.66,1353.05 1440.82,1353.05 1442.98,1353.05 1445.14,1353.05 1447.3,1353.05 1449.47,1353.05 1451.63,1353.05 1453.79,1353.05 1455.95,1353.05 1458.11,1353.05 1460.27,1353.05 1462.43,1353.05 1464.59,1353.05 1466.75,1353.05 1468.91,1353.05 1471.08,1353.05 1473.24,1353.05 1475.4,1353.05 1477.56,1353.05 1479.72,1353.05 1481.88,1353.05 1484.04,1353.05 1486.2,1353.05 1488.36,1353.05 1490.52,901.791 1492.69,901.791 1494.85,901.791 1497.01,901.791 1499.17,901.791 1501.33,901.791 1503.49,901.791 1505.65,901.791 1507.81,901.791 1509.97,901.791 1512.13,901.791 1514.3,901.791 1516.46,901.791 1518.62,901.791 1520.78,901.791 1522.94,901.791 1525.1,901.791 1527.26,901.791 1529.42,901.791 1531.58,901.791 1533.74,901.791 1535.91,901.791 1538.07,901.791 1540.23,901.791 1542.39,901.791 1544.55,901.791 1546.71,901.791 1548.87,901.791 1551.03,901.791 1553.19,901.791 1555.35,901.791 1557.51,901.791 1559.68,901.791 1561.84,901.791 1564,901.791 1566.16,901.791 1568.32,901.791 1570.48,901.791 1572.64,901.791 1574.8,901.791 1576.96,901.791 1579.12,901.791 1581.29,901.791 1583.45,901.791 1585.61,901.791 1587.77,901.791 1589.93,901.791 1592.09,901.791 1594.25,901.791 1596.41,901.791 1598.57,901.791 1600.73,901.791 1602.9,901.791 1605.06,901.791 1607.22,901.791 1609.38,901.791 1611.54,901.791 1613.7,901.791 1615.86,901.791 1618.02,901.791 1620.18,901.791 1622.34,901.791 1624.51,901.791 1626.67,901.791 1628.83,901.791 1630.99,901.791 1633.15,901.791 1635.31,901.791 1637.47,901.791 1639.63,901.791 1641.79,901.791 1643.95,901.791 1646.12,901.791 1648.28,901.791 1650.44,901.791 1652.6,901.791 1654.76,901.791 1656.92,901.791 1659.08,901.791 1661.24,901.791 1663.4,901.791 1665.56,901.791 1667.72,901.791 1669.89,901.791 1672.05,901.791 1674.21,901.791 1676.37,901.791 1678.53,901.791 1680.69,901.791 1682.85,901.791 1685.01,901.791 1687.17,901.791 1689.33,901.791 1691.5,901.791 1693.66,901.791 1695.82,901.791 1697.98,901.791 1700.14,901.791 1702.3,901.791 1704.46,901.791 1706.62,940.14 1708.78,940.14 1710.94,940.14 1713.11,940.14 1715.27,940.14 1717.43,940.14 1719.59,940.14 1721.75,940.14 1723.91,940.14 1726.07,940.14 1728.23,940.14 1730.39,940.14 1732.55,940.14 1734.72,940.14 1736.88,940.14 1739.04,940.14 1741.2,940.14 1743.36,940.14 1745.52,940.14 1747.68,940.14 1749.84,940.14 1752,940.14 1754.16,940.14 1756.33,940.14 1758.49,940.14 1760.65,940.14 1762.81,940.14 1764.97,940.14 1767.13,940.14 1769.29,940.14 1771.45,940.14 1773.61,940.14 1775.77,940.14 1777.93,940.14 1780.1,940.14 1782.26,940.14 1784.42,940.14 1786.58,940.14 1788.74,940.14 1790.9,940.14 1793.06,940.14 1795.22,940.14 1797.38,940.14 1799.54,940.14 1801.71,940.14 1803.87,940.14 1806.03,940.14 1808.19,940.14 1810.35,940.14 1812.51,940.14 1814.67,940.14 1816.83,940.14 1818.99,940.14 1821.15,940.14 1823.32,940.14 1825.48,940.14 1827.64,940.14 1829.8,940.14 1831.96,940.14 1834.12,940.14 1836.28,940.14 1838.44,940.14 1840.6,940.14 1842.76,940.14 1844.93,940.14 1847.09,940.14 1849.25,940.14 1851.41,940.14 1853.57,940.14 1855.73,940.14 1857.89,940.14 1860.05,940.14 1862.21,940.14 1864.37,940.14 1866.54,940.14 1868.7,940.14 1870.86,940.14 1873.02,940.14 1875.18,940.14 1877.34,940.14 1879.5,940.14 1881.66,940.14 1883.82,940.14 1885.98,940.14 1888.15,940.14 1890.31,940.14 1892.47,940.14 1894.63,940.14 1896.79,940.14 1898.95,940.14 1901.11,940.14 1903.27,940.14 1905.43,940.14 1907.59,940.14 1909.75,940.14 1911.92,940.14 1914.08,940.14 1916.24,940.14 1918.4,940.14 1920.56,940.14 1922.72,356.632 1924.88,356.632 1927.04,356.632 1929.2,356.632 1931.36,356.632 1933.53,356.632 1935.69,356.632 1937.85,356.632 1940.01,356.632 1942.17,356.632 1944.33,356.632 1946.49,356.632 1948.65,356.632 1950.81,356.632 1952.97,356.632 1955.14,356.632 1957.3,356.632 1959.46,356.632 1961.62,356.632 1963.78,356.632 1965.94,356.632 1968.1,356.632 1970.26,356.632 1972.42,356.632 1974.58,356.632 1976.75,356.632 1978.91,356.632 1981.07,356.632 1983.23,356.632 1985.39,356.632 1987.55,356.632 1989.71,356.632 1991.87,356.632 1994.03,356.632 1996.19,356.632 1998.36,356.632 2000.52,356.632 2002.68,356.632 2004.84,356.632 2007,356.632 2009.16,356.632 2011.32,356.632 2013.48,356.632 2015.64,356.632 2017.8,356.632 2019.96,356.632 2022.13,356.632 2024.29,356.632 2026.45,356.632 2028.61,356.632 2030.77,356.632 2032.93,356.632 2035.09,356.632 2037.25,356.632 2039.41,356.632 2041.57,356.632 2043.74,356.632 2045.9,356.632 2048.06,356.632 2050.22,356.632 2052.38,356.632 2054.54,356.632 2056.7,356.632 2058.86,356.632 2061.02,356.632 2063.18,356.632 2065.35,356.632 2067.51,356.632 2069.67,356.632 2071.83,356.632 2073.99,356.632 2076.15,356.632 2078.31,356.632 2080.47,356.632 2082.63,356.632 2084.79,356.632 2086.96,356.632 2089.12,356.632 2091.28,356.632 2093.44,356.632 2095.6,356.632 2097.76,356.632 2099.92,356.632 2102.08,356.632 2104.24,356.632 2106.4,356.632 2108.57,356.632 2110.73,356.632 2112.89,356.632 2115.05,356.632 2117.21,356.632 2119.37,356.632 2121.53,356.632 2123.69,356.632 2125.85,356.632 2128.01,356.632 2130.17,356.632 2132.34,356.632 2134.5,356.632 2136.66,356.632 2138.82,1163 2140.98,1163 2143.14,1163 2145.3,1163 2147.46,1163 2149.62,1163 2151.78,1163 2153.95,1163 2156.11,1163 2158.27,1163 2160.43,1163 2162.59,1163 2164.75,1163 2166.91,1163 2169.07,1163 2171.23,1163 2173.39,1163 2175.56,1163 2177.72,1163 2179.88,1163 2182.04,1163 2184.2,1163 2186.36,1163 2188.52,1163 2190.68,1163 2192.84,1163 2195,1163 2197.17,1163 2199.33,1163 2201.49,1163 2203.65,1163 2205.81,1163 2207.97,1163 2210.13,1163 2212.29,1163 2214.45,1163 2216.61,1163 2218.78,1163 2220.94,1163 2223.1,1163 2225.26,1163 2227.42,1163 2229.58,1163 2231.74,1163 2233.9,1163 2236.06,1163 2238.22,1163 2240.38,1163 2242.55,1163 2244.71,1163 2246.87,1163 2249.03,1163 2251.19,1163 2253.35,1163 2255.51,1163 2257.67,1163 2259.83,1163 2261.99,1163 2264.16,1163 2266.32,1163 2268.48,1163 2270.64,1163 2272.8,1163 2274.96,1163 2277.12,1163 2279.28,1163 2281.44,1163 2283.6,1163 2285.77,1163 2287.93,1163 2290.09,1163 2292.25,1163 2294.41,1163 2296.57,1163 2298.73,1163 2300.89,1163 2303.05,1163 2305.21,1163 2307.38,1163 2309.54,1163 2311.7,1163 2313.86,1163 2316.02,1163 2318.18,1163 2320.34,1163 2322.5,1163 2324.66,1163 2326.82,1163 2328.99,1163 2331.15,1163 2333.31,1163 2335.47,1163 2337.63,1163 2339.79,1163 2341.95,1163 2344.11,1163 2346.27,1163 2348.43,1163 2350.59,1163 2352.76,1163 "/>
<path clip-path="url(#clip600)" d="M265.897 248.629 L506.917 248.629 L506.917 93.1086 L265.897 93.1086  Z" fill="#ffffff" fill-rule="evenodd" fill-opacity="1"/>
<polyline clip-path="url(#clip600)" style="stroke:#000000; stroke-linecap:round; stroke-linejoin:round; stroke-width:4; stroke-opacity:1; fill:none" points="265.897,248.629 506.917,248.629 506.917,93.1086 265.897,93.1086 265.897,248.629 "/>
<polyline clip-path="url(#clip600)" style="stroke:#009af9; stroke-linecap:round; stroke-linejoin:round; stroke-width:4; stroke-opacity:1; fill:none" points="289.884,144.949 433.805,144.949 "/>
<path clip-path="url(#clip600)" d="M482.444 136.303 L473.069 148.919 L482.931 162.229 L477.907 162.229 L470.361 152.043 L462.815 162.229 L457.792 162.229 L467.861 148.664 L458.648 136.303 L463.671 136.303 L470.546 145.539 L477.421 136.303 L482.444 136.303 Z" fill="#000000" fill-rule="nonzero" fill-opacity="1" /><polyline clip-path="url(#clip600)" style="stroke:#e26f46; stroke-linecap:round; stroke-linejoin:round; stroke-width:4; stroke-opacity:1; fill:none" points="289.884,196.789 433.805,196.789 "/>
<path clip-path="url(#clip600)" d="M474.296 178.05 L474.296 181.592 L470.222 181.592 Q467.931 181.592 467.028 182.518 Q466.148 183.444 466.148 185.851 L466.148 188.143 L473.162 188.143 L473.162 191.453 L466.148 191.453 L466.148 214.069 L461.866 214.069 L461.866 191.453 L457.792 191.453 L457.792 188.143 L461.866 188.143 L461.866 186.337 Q461.866 182.009 463.88 180.041 Q465.894 178.05 470.269 178.05 L474.296 178.05 Z" fill="#000000" fill-rule="nonzero" fill-opacity="1" /></svg>
