<?xml version="1.0" encoding="utf-8"?>
<svg xmlns="http://www.w3.org/2000/svg" xmlns:xlink="http://www.w3.org/1999/xlink" width="600" height="400" viewBox="0 0 2400 1600">
<defs>
  <clipPath id="clip300">
    <rect x="0" y="0" width="2400" height="1600"/>
  </clipPath>
</defs>
<path clip-path="url(#clip300)" d="M0 1600 L2400 1600 L2400 0 L0 0  Z" fill="#ffffff" fill-rule="evenodd" fill-opacity="1"/>
<defs>
  <clipPath id="clip301">
    <rect x="112" y="47" width="2242" height="1440"/>
  </clipPath>
</defs>
<path clip-path="url(#clip301)" d="M-659.083 2701.85 L-659.083 2414.19 L-356.504 2270.36 L167.579 2353.4 L167.579 2641.06 L-135.001 2784.89 L-659.083 2701.85  Z" fill="#ffffff" fill-rule="evenodd" fill-opacity="1"/>
<polyline clip-path="url(#clip301)" style="stroke:#000000; stroke-linecap:round; stroke-linejoin:round; stroke-width:2; stroke-opacity:0.1; fill:none" points="681,1207.32 1096.46,847.518 1096.46,127.917 "/>
<polyline clip-path="url(#clip301)" style="stroke:#000000; stroke-linecap:round; stroke-linejoin:round; stroke-width:2; stroke-opacity:0.1; fill:none" points="812.02,1245.14 1227.48,885.341 1227.48,165.739 "/>
<polyline clip-path="url(#clip301)" style="stroke:#000000; stroke-linecap:round; stroke-linejoin:round; stroke-width:2; stroke-opacity:0.1; fill:none" points="943.041,1282.96 1358.5,923.163 1358.5,203.561 "/>
<polyline clip-path="url(#clip301)" style="stroke:#000000; stroke-linecap:round; stroke-linejoin:round; stroke-width:2; stroke-opacity:0.1; fill:none" points="1074.06,1320.79 1489.52,960.986 1489.52,241.384 "/>
<polyline clip-path="url(#clip301)" style="stroke:#000000; stroke-linecap:round; stroke-linejoin:round; stroke-width:2; stroke-opacity:0.1; fill:none" points="1205.08,1358.61 1620.54,998.808 1620.54,279.206 "/>
<polyline clip-path="url(#clip301)" style="stroke:#000000; stroke-linecap:round; stroke-linejoin:round; stroke-width:2; stroke-opacity:0.1; fill:none" points="1336.1,1396.43 1751.56,1036.63 1751.56,317.029 "/>
<polyline clip-path="url(#clip301)" style="stroke:#000000; stroke-linecap:round; stroke-linejoin:round; stroke-width:2; stroke-opacity:0.1; fill:none" points="1416.14,1383.05 696.534,1175.32 696.534,455.714 "/>
<polyline clip-path="url(#clip301)" style="stroke:#000000; stroke-linecap:round; stroke-linejoin:round; stroke-width:2; stroke-opacity:0.1; fill:none" points="1499.18,1311.13 779.574,1103.4 779.574,383.799 "/>
<polyline clip-path="url(#clip301)" style="stroke:#000000; stroke-linecap:round; stroke-linejoin:round; stroke-width:2; stroke-opacity:0.1; fill:none" points="1582.22,1239.22 862.614,1031.49 862.614,311.884 "/>
<polyline clip-path="url(#clip301)" style="stroke:#000000; stroke-linecap:round; stroke-linejoin:round; stroke-width:2; stroke-opacity:0.1; fill:none" points="1665.26,1167.3 945.655,959.571 945.655,239.969 "/>
<polyline clip-path="url(#clip301)" style="stroke:#000000; stroke-linecap:round; stroke-linejoin:round; stroke-width:2; stroke-opacity:0.1; fill:none" points="1748.3,1095.39 1028.7,887.656 1028.7,168.054 "/>
<polyline clip-path="url(#clip301)" style="stroke:#000000; stroke-linecap:round; stroke-linejoin:round; stroke-width:2; stroke-opacity:0.1; fill:none" points="664.934,1130.25 1080.4,770.451 1800,978.182 "/>
<polyline clip-path="url(#clip301)" style="stroke:#000000; stroke-linecap:round; stroke-linejoin:round; stroke-width:2; stroke-opacity:0.1; fill:none" points="664.934,1018.15 1080.4,658.347 1800,866.079 "/>
<polyline clip-path="url(#clip301)" style="stroke:#000000; stroke-linecap:round; stroke-linejoin:round; stroke-width:2; stroke-opacity:0.1; fill:none" points="664.934,906.045 1080.4,546.244 1800,753.975 "/>
<polyline clip-path="url(#clip301)" style="stroke:#000000; stroke-linecap:round; stroke-linejoin:round; stroke-width:2; stroke-opacity:0.1; fill:none" points="664.934,793.942 1080.4,434.141 1800,641.872 "/>
<polyline clip-path="url(#clip301)" style="stroke:#000000; stroke-linecap:round; stroke-linejoin:round; stroke-width:2; stroke-opacity:0.1; fill:none" points="664.934,681.839 1080.4,322.038 1800,529.769 "/>
<polyline clip-path="url(#clip301)" style="stroke:#000000; stroke-linecap:round; stroke-linejoin:round; stroke-width:2; stroke-opacity:0.1; fill:none" points="664.934,569.736 1080.4,209.935 1800,417.666 "/>
<polyline clip-path="url(#clip300)" style="stroke:#000000; stroke-linecap:round; stroke-linejoin:round; stroke-width:4; stroke-opacity:1; fill:none" points="664.934,1202.68 1384.54,1410.41 "/>
<polyline clip-path="url(#clip300)" style="stroke:#000000; stroke-linecap:round; stroke-linejoin:round; stroke-width:4; stroke-opacity:1; fill:none" points="681,1207.32 685.985,1203 "/>
<polyline clip-path="url(#clip300)" style="stroke:#000000; stroke-linecap:round; stroke-linejoin:round; stroke-width:4; stroke-opacity:1; fill:none" points="812.02,1245.14 817.006,1240.82 "/>
<polyline clip-path="url(#clip300)" style="stroke:#000000; stroke-linecap:round; stroke-linejoin:round; stroke-width:4; stroke-opacity:1; fill:none" points="943.041,1282.96 948.026,1278.65 "/>
<polyline clip-path="url(#clip300)" style="stroke:#000000; stroke-linecap:round; stroke-linejoin:round; stroke-width:4; stroke-opacity:1; fill:none" points="1074.06,1320.79 1079.05,1316.47 "/>
<polyline clip-path="url(#clip300)" style="stroke:#000000; stroke-linecap:round; stroke-linejoin:round; stroke-width:4; stroke-opacity:1; fill:none" points="1205.08,1358.61 1210.07,1354.29 "/>
<polyline clip-path="url(#clip300)" style="stroke:#000000; stroke-linecap:round; stroke-linejoin:round; stroke-width:4; stroke-opacity:1; fill:none" points="1336.1,1396.43 1341.09,1392.11 "/>
<path clip-path="url(#clip300)" d="M620.312 1221.56 Q616.701 1221.56 614.872 1225.13 Q613.067 1228.67 613.067 1235.8 Q613.067 1242.91 614.872 1246.47 Q616.701 1250.01 620.312 1250.01 Q623.946 1250.01 625.752 1246.47 Q627.581 1242.91 627.581 1235.8 Q627.581 1228.67 625.752 1225.13 Q623.946 1221.56 620.312 1221.56 M620.312 1217.86 Q626.122 1217.86 629.178 1222.47 Q632.257 1227.05 632.257 1235.8 Q632.257 1244.53 629.178 1249.13 Q626.122 1253.72 620.312 1253.72 Q614.502 1253.72 611.423 1249.13 Q608.368 1244.53 608.368 1235.8 Q608.368 1227.05 611.423 1222.47 Q614.502 1217.86 620.312 1217.86 Z" fill="#000000" fill-rule="nonzero" fill-opacity="1" /><path clip-path="url(#clip300)" d="M640.474 1247.16 L645.358 1247.16 L645.358 1253.04 L640.474 1253.04 L640.474 1247.16 Z" fill="#000000" fill-rule="nonzero" fill-opacity="1" /><path clip-path="url(#clip300)" d="M655.59 1218.48 L673.946 1218.48 L673.946 1222.42 L659.872 1222.42 L659.872 1230.89 Q660.891 1230.54 661.909 1230.38 Q662.928 1230.2 663.946 1230.2 Q669.733 1230.2 673.113 1233.37 Q676.493 1236.54 676.493 1241.96 Q676.493 1247.54 673.02 1250.64 Q669.548 1253.72 663.229 1253.72 Q661.053 1253.72 658.784 1253.35 Q656.539 1252.98 654.132 1252.23 L654.132 1247.54 Q656.215 1248.67 658.437 1249.23 Q660.659 1249.78 663.136 1249.78 Q667.141 1249.78 669.479 1247.67 Q671.817 1245.57 671.817 1241.96 Q671.817 1238.35 669.479 1236.24 Q667.141 1234.13 663.136 1234.13 Q661.261 1234.13 659.386 1234.55 Q657.534 1234.97 655.59 1235.85 L655.59 1218.48 Z" fill="#000000" fill-rule="nonzero" fill-opacity="1" /><path clip-path="url(#clip300)" d="M741.148 1286.93 L748.787 1286.93 L748.787 1260.57 L740.476 1262.23 L740.476 1257.97 L748.74 1256.31 L753.416 1256.31 L753.416 1286.93 L761.055 1286.93 L761.055 1290.87 L741.148 1290.87 L741.148 1286.93 Z" fill="#000000" fill-rule="nonzero" fill-opacity="1" /><path clip-path="url(#clip300)" d="M770.499 1284.99 L775.384 1284.99 L775.384 1290.87 L770.499 1290.87 L770.499 1284.99 Z" fill="#000000" fill-rule="nonzero" fill-opacity="1" /><path clip-path="url(#clip300)" d="M795.569 1259.39 Q791.958 1259.39 790.129 1262.95 Q788.323 1266.49 788.323 1273.62 Q788.323 1280.73 790.129 1284.29 Q791.958 1287.83 795.569 1287.83 Q799.203 1287.83 801.009 1284.29 Q802.837 1280.73 802.837 1273.62 Q802.837 1266.49 801.009 1262.95 Q799.203 1259.39 795.569 1259.39 M795.569 1255.68 Q801.379 1255.68 804.434 1260.29 Q807.513 1264.87 807.513 1273.62 Q807.513 1282.35 804.434 1286.95 Q801.379 1291.54 795.569 1291.54 Q789.759 1291.54 786.68 1286.95 Q783.624 1282.35 783.624 1273.62 Q783.624 1264.87 786.68 1260.29 Q789.759 1255.68 795.569 1255.68 Z" fill="#000000" fill-rule="nonzero" fill-opacity="1" /><path clip-path="url(#clip300)" d="M873.164 1324.75 L880.803 1324.75 L880.803 1298.39 L872.492 1300.06 L872.492 1295.8 L880.756 1294.13 L885.432 1294.13 L885.432 1324.75 L893.071 1324.75 L893.071 1328.69 L873.164 1328.69 L873.164 1324.75 Z" fill="#000000" fill-rule="nonzero" fill-opacity="1" /><path clip-path="url(#clip300)" d="M902.515 1322.81 L907.4 1322.81 L907.4 1328.69 L902.515 1328.69 L902.515 1322.81 Z" fill="#000000" fill-rule="nonzero" fill-opacity="1" /><path clip-path="url(#clip300)" d="M917.631 1294.13 L935.987 1294.13 L935.987 1298.06 L921.913 1298.06 L921.913 1306.54 Q922.932 1306.19 923.95 1306.03 Q924.969 1305.84 925.987 1305.84 Q931.774 1305.84 935.154 1309.01 Q938.534 1312.18 938.534 1317.6 Q938.534 1323.18 935.061 1326.28 Q931.589 1329.36 925.27 1329.36 Q923.094 1329.36 920.825 1328.99 Q918.58 1328.62 916.173 1327.88 L916.173 1323.18 Q918.256 1324.31 920.478 1324.87 Q922.7 1325.43 925.177 1325.43 Q929.182 1325.43 931.52 1323.32 Q933.858 1321.21 933.858 1317.6 Q933.858 1313.99 931.52 1311.88 Q929.182 1309.78 925.177 1309.78 Q923.302 1309.78 921.427 1310.19 Q919.575 1310.61 917.631 1311.49 L917.631 1294.13 Z" fill="#000000" fill-rule="nonzero" fill-opacity="1" /><path clip-path="url(#clip300)" d="M1006.41 1362.58 L1022.73 1362.58 L1022.73 1366.51 L1000.78 1366.51 L1000.78 1362.58 Q1003.44 1359.82 1008.03 1355.19 Q1012.63 1350.54 1013.81 1349.2 Q1016.06 1346.67 1016.94 1344.94 Q1017.84 1343.18 1017.84 1341.49 Q1017.84 1338.73 1015.9 1337 Q1013.98 1335.26 1010.87 1335.26 Q1008.67 1335.26 1006.22 1336.03 Q1003.79 1336.79 1001.01 1338.34 L1001.01 1333.62 Q1003.84 1332.48 1006.29 1331.91 Q1008.74 1331.33 1010.78 1331.33 Q1016.15 1331.33 1019.35 1334.01 Q1022.54 1336.7 1022.54 1341.19 Q1022.54 1343.32 1021.73 1345.24 Q1020.94 1347.14 1018.84 1349.73 Q1018.26 1350.4 1015.16 1353.62 Q1012.05 1356.81 1006.41 1362.58 Z" fill="#000000" fill-rule="nonzero" fill-opacity="1" /><path clip-path="url(#clip300)" d="M1032.54 1360.63 L1037.42 1360.63 L1037.42 1366.51 L1032.54 1366.51 L1032.54 1360.63 Z" fill="#000000" fill-rule="nonzero" fill-opacity="1" /><path clip-path="url(#clip300)" d="M1057.61 1335.03 Q1054 1335.03 1052.17 1338.6 Q1050.36 1342.14 1050.36 1349.27 Q1050.36 1356.37 1052.17 1359.94 Q1054 1363.48 1057.61 1363.48 Q1061.24 1363.48 1063.05 1359.94 Q1064.88 1356.37 1064.88 1349.27 Q1064.88 1342.14 1063.05 1338.6 Q1061.24 1335.03 1057.61 1335.03 M1057.61 1331.33 Q1063.42 1331.33 1066.48 1335.93 Q1069.55 1340.52 1069.55 1349.27 Q1069.55 1357.99 1066.48 1362.6 Q1063.42 1367.18 1057.61 1367.18 Q1051.8 1367.18 1048.72 1362.6 Q1045.67 1357.99 1045.67 1349.27 Q1045.67 1340.52 1048.72 1335.93 Q1051.8 1331.33 1057.61 1331.33 Z" fill="#000000" fill-rule="nonzero" fill-opacity="1" /><path clip-path="url(#clip300)" d="M1138.42 1400.4 L1154.74 1400.4 L1154.74 1404.33 L1132.8 1404.33 L1132.8 1400.4 Q1135.46 1397.64 1140.04 1393.01 Q1144.65 1388.36 1145.83 1387.02 Q1148.08 1384.5 1148.95 1382.76 Q1149.86 1381 1149.86 1379.31 Q1149.86 1376.56 1147.91 1374.82 Q1145.99 1373.08 1142.89 1373.08 Q1140.69 1373.08 1138.24 1373.85 Q1135.81 1374.61 1133.03 1376.16 L1133.03 1371.44 Q1135.85 1370.31 1138.31 1369.73 Q1140.76 1369.15 1142.8 1369.15 Q1148.17 1369.15 1151.36 1371.83 Q1154.56 1374.52 1154.56 1379.01 Q1154.56 1381.14 1153.75 1383.06 Q1152.96 1384.96 1150.85 1387.55 Q1150.27 1388.22 1147.17 1391.44 Q1144.07 1394.64 1138.42 1400.4 Z" fill="#000000" fill-rule="nonzero" fill-opacity="1" /><path clip-path="url(#clip300)" d="M1164.56 1398.45 L1169.44 1398.45 L1169.44 1404.33 L1164.56 1404.33 L1164.56 1398.45 Z" fill="#000000" fill-rule="nonzero" fill-opacity="1" /><path clip-path="url(#clip300)" d="M1179.67 1369.77 L1198.03 1369.77 L1198.03 1373.71 L1183.95 1373.71 L1183.95 1382.18 Q1184.97 1381.83 1185.99 1381.67 Q1187.01 1381.49 1188.03 1381.49 Q1193.82 1381.49 1197.2 1384.66 Q1200.57 1387.83 1200.57 1393.25 Q1200.57 1398.82 1197.1 1401.93 Q1193.63 1405.01 1187.31 1405.01 Q1185.14 1405.01 1182.87 1404.64 Q1180.62 1404.26 1178.21 1403.52 L1178.21 1398.82 Q1180.3 1399.96 1182.52 1400.51 Q1184.74 1401.07 1187.22 1401.07 Q1191.22 1401.07 1193.56 1398.96 Q1195.9 1396.86 1195.9 1393.25 Q1195.9 1389.64 1193.56 1387.53 Q1191.22 1385.42 1187.22 1385.42 Q1185.34 1385.42 1183.47 1385.84 Q1181.62 1386.26 1179.67 1387.14 L1179.67 1369.77 Z" fill="#000000" fill-rule="nonzero" fill-opacity="1" /><path clip-path="url(#clip300)" d="M1278.59 1423.52 Q1281.94 1424.24 1283.82 1426.51 Q1285.72 1428.78 1285.72 1432.11 Q1285.72 1437.23 1282.2 1440.03 Q1278.68 1442.83 1272.2 1442.83 Q1270.02 1442.83 1267.71 1442.39 Q1265.42 1441.97 1262.96 1441.11 L1262.96 1436.6 Q1264.91 1437.74 1267.22 1438.31 Q1269.54 1438.89 1272.06 1438.89 Q1276.46 1438.89 1278.75 1437.16 Q1281.06 1435.42 1281.06 1432.11 Q1281.06 1429.05 1278.91 1427.34 Q1276.78 1425.61 1272.96 1425.61 L1268.93 1425.61 L1268.93 1421.76 L1273.15 1421.76 Q1276.6 1421.76 1278.42 1420.4 Q1280.25 1419.01 1280.25 1416.42 Q1280.25 1413.75 1278.36 1412.34 Q1276.48 1410.91 1272.96 1410.91 Q1271.04 1410.91 1268.84 1411.32 Q1266.64 1411.74 1264 1412.62 L1264 1408.45 Q1266.67 1407.71 1268.98 1407.34 Q1271.32 1406.97 1273.38 1406.97 Q1278.7 1406.97 1281.8 1409.4 Q1284.91 1411.81 1284.91 1415.93 Q1284.91 1418.8 1283.26 1420.79 Q1281.62 1422.76 1278.59 1423.52 Z" fill="#000000" fill-rule="nonzero" fill-opacity="1" /><path clip-path="url(#clip300)" d="M1294.58 1436.28 L1299.47 1436.28 L1299.47 1442.16 L1294.58 1442.16 L1294.58 1436.28 Z" fill="#000000" fill-rule="nonzero" fill-opacity="1" /><path clip-path="url(#clip300)" d="M1319.65 1410.68 Q1316.04 1410.68 1314.21 1414.24 Q1312.41 1417.78 1312.41 1424.91 Q1312.41 1432.02 1314.21 1435.58 Q1316.04 1439.12 1319.65 1439.12 Q1323.29 1439.12 1325.09 1435.58 Q1326.92 1432.02 1326.92 1424.91 Q1326.92 1417.78 1325.09 1414.24 Q1323.29 1410.68 1319.65 1410.68 M1319.65 1406.97 Q1325.46 1406.97 1328.52 1411.58 Q1331.6 1416.16 1331.6 1424.91 Q1331.6 1433.64 1328.52 1438.24 Q1325.46 1442.83 1319.65 1442.83 Q1313.84 1442.83 1310.76 1438.24 Q1307.71 1433.64 1307.71 1424.91 Q1307.71 1416.16 1310.76 1411.58 Q1313.84 1406.97 1319.65 1406.97 Z" fill="#000000" fill-rule="nonzero" fill-opacity="1" /><polyline clip-path="url(#clip300)" style="stroke:#000000; stroke-linecap:round; stroke-linejoin:round; stroke-width:4; stroke-opacity:1; fill:none" points="1384.54,1410.41 1800,1050.61 "/>
<polyline clip-path="url(#clip300)" style="stroke:#000000; stroke-linecap:round; stroke-linejoin:round; stroke-width:4; stroke-opacity:1; fill:none" points="1416.14,1383.05 1407.5,1380.55 "/>
<polyline clip-path="url(#clip300)" style="stroke:#000000; stroke-linecap:round; stroke-linejoin:round; stroke-width:4; stroke-opacity:1; fill:none" points="1499.18,1311.13 1490.54,1308.64 "/>
<polyline clip-path="url(#clip300)" style="stroke:#000000; stroke-linecap:round; stroke-linejoin:round; stroke-width:4; stroke-opacity:1; fill:none" points="1582.22,1239.22 1573.58,1236.72 "/>
<polyline clip-path="url(#clip300)" style="stroke:#000000; stroke-linecap:round; stroke-linejoin:round; stroke-width:4; stroke-opacity:1; fill:none" points="1665.26,1167.3 1656.62,1164.81 "/>
<polyline clip-path="url(#clip300)" style="stroke:#000000; stroke-linecap:round; stroke-linejoin:round; stroke-width:4; stroke-opacity:1; fill:none" points="1748.3,1095.39 1739.66,1092.89 "/>
<path clip-path="url(#clip300)" d="M1444.1 1395.85 L1432.3 1414.3 L1444.1 1414.3 L1444.1 1395.85 M1442.87 1391.78 L1448.75 1391.78 L1448.75 1414.3 L1453.68 1414.3 L1453.68 1418.19 L1448.75 1418.19 L1448.75 1426.34 L1444.1 1426.34 L1444.1 1418.19 L1428.5 1418.19 L1428.5 1413.68 L1442.87 1391.78 Z" fill="#000000" fill-rule="nonzero" fill-opacity="1" /><path clip-path="url(#clip300)" d="M1513 1319.86 L1531.35 1319.86 L1531.35 1323.8 L1517.28 1323.8 L1517.28 1332.27 Q1518.3 1331.92 1519.32 1331.76 Q1520.34 1331.58 1521.35 1331.58 Q1527.14 1331.58 1530.52 1334.75 Q1533.9 1337.92 1533.9 1343.34 Q1533.9 1348.91 1530.43 1352.02 Q1526.96 1355.09 1520.64 1355.09 Q1518.46 1355.09 1516.19 1354.72 Q1513.95 1354.35 1511.54 1353.61 L1511.54 1348.91 Q1513.62 1350.05 1515.85 1350.6 Q1518.07 1351.16 1520.54 1351.16 Q1524.55 1351.16 1526.89 1349.05 Q1529.23 1346.95 1529.23 1343.34 Q1529.23 1339.72 1526.89 1337.62 Q1524.55 1335.51 1520.54 1335.51 Q1518.67 1335.51 1516.79 1335.93 Q1514.94 1336.34 1513 1337.22 L1513 1319.86 Z" fill="#000000" fill-rule="nonzero" fill-opacity="1" /><path clip-path="url(#clip300)" d="M1606.92 1263.36 Q1603.77 1263.36 1601.92 1265.52 Q1600.09 1267.67 1600.09 1271.42 Q1600.09 1275.15 1601.92 1277.32 Q1603.77 1279.48 1606.92 1279.48 Q1610.07 1279.48 1611.9 1277.32 Q1613.75 1275.15 1613.75 1271.42 Q1613.75 1267.67 1611.9 1265.52 Q1610.07 1263.36 1606.92 1263.36 M1616.2 1248.71 L1616.2 1252.97 Q1614.44 1252.14 1612.64 1251.7 Q1610.85 1251.26 1609.09 1251.26 Q1604.46 1251.26 1602.01 1254.38 Q1599.58 1257.51 1599.23 1263.83 Q1600.6 1261.81 1602.66 1260.75 Q1604.72 1259.66 1607.2 1259.66 Q1612.4 1259.66 1615.41 1262.83 Q1618.45 1265.98 1618.45 1271.42 Q1618.45 1276.74 1615.3 1279.96 Q1612.15 1283.18 1606.92 1283.18 Q1600.92 1283.18 1597.75 1278.6 Q1594.58 1273.99 1594.58 1265.26 Q1594.58 1257.07 1598.47 1252.21 Q1602.36 1247.32 1608.91 1247.32 Q1610.67 1247.32 1612.45 1247.67 Q1614.26 1248.02 1616.2 1248.71 Z" fill="#000000" fill-rule="nonzero" fill-opacity="1" /><path clip-path="url(#clip300)" d="M1677.62 1176.03 L1699.84 1176.03 L1699.84 1178.02 L1687.3 1210.59 L1682.41 1210.59 L1694.22 1179.97 L1677.62 1179.97 L1677.62 1176.03 Z" fill="#000000" fill-rule="nonzero" fill-opacity="1" /><path clip-path="url(#clip300)" d="M1772.51 1122.27 Q1769.18 1122.27 1767.26 1124.05 Q1765.36 1125.83 1765.36 1128.96 Q1765.36 1132.08 1767.26 1133.86 Q1769.18 1135.65 1772.51 1135.65 Q1775.85 1135.65 1777.77 1133.86 Q1779.69 1132.06 1779.69 1128.96 Q1779.69 1125.83 1777.77 1124.05 Q1775.87 1122.27 1772.51 1122.27 M1767.84 1120.28 Q1764.83 1119.53 1763.14 1117.47 Q1761.47 1115.41 1761.47 1112.45 Q1761.47 1108.31 1764.41 1105.9 Q1767.37 1103.49 1772.51 1103.49 Q1777.68 1103.49 1780.61 1105.9 Q1783.55 1108.31 1783.55 1112.45 Q1783.55 1115.41 1781.86 1117.47 Q1780.2 1119.53 1777.21 1120.28 Q1780.59 1121.06 1782.47 1123.35 Q1784.36 1125.65 1784.36 1128.96 Q1784.36 1133.98 1781.29 1136.66 Q1778.23 1139.35 1772.51 1139.35 Q1766.8 1139.35 1763.72 1136.66 Q1760.66 1133.98 1760.66 1128.96 Q1760.66 1125.65 1762.56 1123.35 Q1764.46 1121.06 1767.84 1120.28 M1766.12 1112.89 Q1766.12 1115.58 1767.79 1117.08 Q1769.48 1118.59 1772.51 1118.59 Q1775.52 1118.59 1777.21 1117.08 Q1778.93 1115.58 1778.93 1112.89 Q1778.93 1110.21 1777.21 1108.7 Q1775.52 1107.2 1772.51 1107.2 Q1769.48 1107.2 1767.79 1108.7 Q1766.12 1110.21 1766.12 1112.89 Z" fill="#000000" fill-rule="nonzero" fill-opacity="1" /><polyline clip-path="url(#clip300)" style="stroke:#000000; stroke-linecap:round; stroke-linejoin:round; stroke-width:4; stroke-opacity:1; fill:none" points="664.934,1202.68 664.934,483.08 "/>
<polyline clip-path="url(#clip300)" style="stroke:#000000; stroke-linecap:round; stroke-linejoin:round; stroke-width:4; stroke-opacity:1; fill:none" points="664.934,1130.25 669.92,1125.93 "/>
<polyline clip-path="url(#clip300)" style="stroke:#000000; stroke-linecap:round; stroke-linejoin:round; stroke-width:4; stroke-opacity:1; fill:none" points="664.934,1018.15 669.92,1013.83 "/>
<polyline clip-path="url(#clip300)" style="stroke:#000000; stroke-linecap:round; stroke-linejoin:round; stroke-width:4; stroke-opacity:1; fill:none" points="664.934,906.045 669.92,901.728 "/>
<polyline clip-path="url(#clip300)" style="stroke:#000000; stroke-linecap:round; stroke-linejoin:round; stroke-width:4; stroke-opacity:1; fill:none" points="664.934,793.942 669.92,789.625 "/>
<polyline clip-path="url(#clip300)" style="stroke:#000000; stroke-linecap:round; stroke-linejoin:round; stroke-width:4; stroke-opacity:1; fill:none" points="664.934,681.839 669.92,677.521 "/>
<polyline clip-path="url(#clip300)" style="stroke:#000000; stroke-linecap:round; stroke-linejoin:round; stroke-width:4; stroke-opacity:1; fill:none" points="664.934,569.736 669.92,565.418 "/>
<path clip-path="url(#clip300)" d="M626.551 1117.05 L614.746 1135.49 L626.551 1135.49 L626.551 1117.05 M625.324 1112.97 L631.204 1112.97 L631.204 1135.49 L636.134 1135.49 L636.134 1139.38 L631.204 1139.38 L631.204 1147.53 L626.551 1147.53 L626.551 1139.38 L610.949 1139.38 L610.949 1134.87 L625.324 1112.97 Z" fill="#000000" fill-rule="nonzero" fill-opacity="1" /><path clip-path="url(#clip300)" d="M615.232 1000.87 L633.588 1000.87 L633.588 1004.8 L619.514 1004.8 L619.514 1013.28 Q620.533 1012.93 621.551 1012.77 Q622.57 1012.58 623.588 1012.58 Q629.375 1012.58 632.755 1015.75 Q636.134 1018.92 636.134 1024.34 Q636.134 1029.92 632.662 1033.02 Q629.19 1036.1 622.871 1036.1 Q620.695 1036.1 618.426 1035.73 Q616.181 1035.36 613.773 1034.62 L613.773 1029.92 Q615.857 1031.05 618.079 1031.61 Q620.301 1032.16 622.778 1032.16 Q626.783 1032.16 629.121 1030.06 Q631.459 1027.95 631.459 1024.34 Q631.459 1020.73 629.121 1018.62 Q626.783 1016.52 622.778 1016.52 Q620.903 1016.52 619.028 1016.93 Q617.176 1017.35 615.232 1018.23 L615.232 1000.87 Z" fill="#000000" fill-rule="nonzero" fill-opacity="1" /><path clip-path="url(#clip300)" d="M624.607 904.182 Q621.459 904.182 619.607 906.335 Q617.778 908.487 617.778 912.237 Q617.778 915.964 619.607 918.14 Q621.459 920.293 624.607 920.293 Q627.755 920.293 629.584 918.14 Q631.435 915.964 631.435 912.237 Q631.435 908.487 629.584 906.335 Q627.755 904.182 624.607 904.182 M633.889 889.529 L633.889 893.788 Q632.13 892.955 630.324 892.515 Q628.542 892.075 626.783 892.075 Q622.153 892.075 619.699 895.2 Q617.269 898.325 616.922 904.645 Q618.287 902.631 620.347 901.566 Q622.408 900.478 624.884 900.478 Q630.093 900.478 633.102 903.649 Q636.134 906.798 636.134 912.237 Q636.134 917.561 632.986 920.779 Q629.838 923.997 624.607 923.997 Q618.611 923.997 615.44 919.413 Q612.269 914.807 612.269 906.08 Q612.269 897.886 616.158 893.024 Q620.047 888.14 626.597 888.14 Q628.357 888.14 630.139 888.487 Q631.945 888.835 633.889 889.529 Z" fill="#000000" fill-rule="nonzero" fill-opacity="1" /><path clip-path="url(#clip300)" d="M613.912 776.662 L636.134 776.662 L636.134 778.653 L623.588 811.222 L618.704 811.222 L630.509 780.597 L613.912 780.597 L613.912 776.662 Z" fill="#000000" fill-rule="nonzero" fill-opacity="1" /><path clip-path="url(#clip300)" d="M624.283 682.707 Q620.949 682.707 619.028 684.489 Q617.13 686.272 617.13 689.397 Q617.13 692.522 619.028 694.304 Q620.949 696.087 624.283 696.087 Q627.616 696.087 629.537 694.304 Q631.459 692.499 631.459 689.397 Q631.459 686.272 629.537 684.489 Q627.639 682.707 624.283 682.707 M619.607 680.716 Q616.597 679.976 614.908 677.915 Q613.241 675.855 613.241 672.892 Q613.241 668.749 616.181 666.341 Q619.144 663.934 624.283 663.934 Q629.445 663.934 632.384 666.341 Q635.324 668.749 635.324 672.892 Q635.324 675.855 633.634 677.915 Q631.968 679.976 628.982 680.716 Q632.361 681.503 634.236 683.795 Q636.134 686.087 636.134 689.397 Q636.134 694.42 633.056 697.105 Q630 699.79 624.283 699.79 Q618.565 699.79 615.486 697.105 Q612.431 694.42 612.431 689.397 Q612.431 686.087 614.329 683.795 Q616.227 681.503 619.607 680.716 M617.894 673.332 Q617.894 676.017 619.56 677.522 Q621.25 679.027 624.283 679.027 Q627.292 679.027 628.982 677.522 Q630.695 676.017 630.695 673.332 Q630.695 670.647 628.982 669.142 Q627.292 667.638 624.283 667.638 Q621.25 667.638 619.56 669.142 Q617.894 670.647 617.894 673.332 Z" fill="#000000" fill-rule="nonzero" fill-opacity="1" /><path clip-path="url(#clip300)" d="M614.514 586.298 L614.514 582.039 Q616.273 582.872 618.079 583.312 Q619.885 583.752 621.621 583.752 Q626.25 583.752 628.681 580.65 Q631.134 577.525 631.482 571.183 Q630.139 573.173 628.079 574.238 Q626.019 575.303 623.519 575.303 Q618.334 575.303 615.301 572.178 Q612.292 569.03 612.292 563.59 Q612.292 558.266 615.44 555.048 Q618.588 551.831 623.82 551.831 Q629.815 551.831 632.963 556.437 Q636.134 561.021 636.134 569.771 Q636.134 577.942 632.246 582.826 Q628.38 587.687 621.829 587.687 Q620.07 587.687 618.264 587.34 Q616.459 586.993 614.514 586.298 M623.82 571.646 Q626.968 571.646 628.796 569.493 Q630.648 567.34 630.648 563.59 Q630.648 559.863 628.796 557.71 Q626.968 555.535 623.82 555.535 Q620.672 555.535 618.82 557.71 Q616.991 559.863 616.991 563.59 Q616.991 567.34 618.82 569.493 Q620.672 571.646 623.82 571.646 Z" fill="#000000" fill-rule="nonzero" fill-opacity="1" /><polyline clip-path="url(#clip301)" style="stroke:#009af9; stroke-linecap:round; stroke-linejoin:round; stroke-width:4; stroke-opacity:1; fill:none" points="926.66,961.327 921.538,967.402 919.617,969.581 918.367,970.895 920.409,968.061 926.374,960.341 929.981,955.61 930.949,954.206 923.801,962.859 933.492,950.463 935.085,948.267 938.43,943.993 933.715,949.731 924.611,960.745 924.027,961.168 919.258,966.576 927.473,955.541 922.191,961.548 914.992,969.695 922.068,959.968 900.727,985.363 913.659,968.081 896.084,989.005 859.299,1031.66 861.196,1024.59 853.645,1030 885.208,987.965 920.492,947.014 943.137,925.512 951.579,921.381 981.667,893.362 1001.35,878.766 984.224,903.553 985.839,902.427 988.192,899.239 1011.23,877.61 1047.76,841.912 993.807,902.872 953.897,936.752 1036.11,849.94 1050.41,853.723 1062.16,848.308 1093.7,824.35 1056.35,855.453 1096.94,821.435 982.829,919.703 961.291,931.644 1012.81,874.097 938.345,930.076 964.596,911.208 955.6,924.109 1030.13,849.857 1132.58,777.709 1118.16,789.655 1068.1,846.858 1022.68,888.492 993.638,902.367 997.421,903.833 986.064,907.247 1117.46,779.019 1048.21,857.898 1076.41,842.099 927.515,967.403 902.39,990.876 950.464,932.695 948.657,928.683 1018.62,870.436 1113.58,779.873 1134.38,772.444 1271.41,661.273 1243.13,712.354 1244.79,717.48 1268.59,694.06 1144.62,804.805 1111.79,818.667 1120.67,791.944 1206.34,723.635 1182.35,743.832 1154.77,781.822 1321.92,646.425 1346.44,641.372 1373.66,617.307 1231.21,732.623 1239.61,720.397 1187.63,758.2 1157.48,781.069 1167.64,755.509 1093.62,816.005 1026.61,875.953 1137.52,769.013 1247.42,705.535 1188.7,760.785 1084.72,850.612 1084.47,835.693 1100.5,807.935 1150.07,769.669 1021.3,898.192 1035.52,864.212 1086.47,820.205 1179.65,733.456 1183.69,746.369 1258.57,696.901 1328.38,659.149 1253.67,709.782 1130.02,804.833 1033.69,886.312 979.46,927.894 986.105,912.924 955.999,938.774 937.579,958.6 919.232,971.344 887.464,998.607 806.248,1076.54 805.648,1065.58 867.64,997.663 892.831,980.746 824.621,1063.75 814.64,1060.49 832.597,1042.73 857.601,1017.01 838.42,1036.47 826.803,1053.72 838.818,1026.16 835.752,1025.19 840.11,1028.79 868.812,1002.85 986.611,889.622 1001.24,892.075 1015.09,881.672 991.846,898.302 1000.15,888.364 1010.74,873.196 1020.26,867.463 988.978,916.902 981.071,922.743 1074.97,845.331 1007.37,898.049 1065.79,851.554 1093.3,814.389 1032.06,865.186 1097.5,816.328 1150.43,780.715 1196.77,711.608 1075.69,796.033 1125.44,763.1 1204.34,729.495 1225.4,708.51 1379.13,608.837 1381.78,608.986 1397.04,603.011 1318.89,674.857 1301.15,677.751 1307.35,667.575 1261.06,709.587 1366.08,624.62 1405.51,579.085 1408.88,595.639 1323.65,670.231 1211.88,754.046 1110.78,832.948 1081.09,843.85 1087.84,827.322 1069.4,840.077 1049.66,857.279 1038.79,866.585 1138.03,768.895 1105.55,804.732 1084.4,820.265 1144.78,789.047 1101.42,819.758 1158.71,756.836 1257.43,683.55 1304.26,651.126 1326.09,634.917 1308.86,654.809 1236.27,728.313 1301.77,650.996 1360.74,615.761 1353.54,626.055 1197.33,773.691 1214.51,731.581 1195.42,741.498 1120.51,811.733 1103.62,812.629 1053.89,856.625 1053.31,849.937 979.588,922.433 1012.98,895.219 984.605,911.237 924.247,970.66 896.681,990.385 977.576,901.101 921.194,956.353 856.728,1023.64 894.347,1002.95 913.563,967.791 900.798,979.647 981.719,903.332 890.977,991.952 900.398,982.544 924.704,956.403 904.688,963.673 1025.14,848.776 1018.85,867.325 997.181,898.723 1092.24,793.016 1190.5,726.43 1363.9,592.005 1429.45,571.909 1325.88,669.574 1336.31,662.439 1302.69,673.333 1245.65,721.766 1182.2,769.586 1126.88,803.531 1223.77,698.86 1222.14,705.393 1220.94,710.931 1203.25,731.919 1063.73,857.63 1056.09,850.901 1073.95,833.729 1117.48,782.453 1076.43,835.306 1063.41,846.427 1024.45,874.987 1075.79,820.882 1095.18,813.471 1134.64,774.194 1125.54,792.29 1223.26,724.586 1191.06,756.579 1083.96,843.311 1140.01,775.451 1183.62,735.854 1211.1,716.808 1241.85,696.786 1232.92,705.433 1173.55,758.535 1253.52,685.866 1360.21,617.909 1282.49,682.375 1215.1,729.266 1199.17,724.334 1274.06,665.156 1221.63,730.195 1185.06,735.645 1160.1,760.168 1117.86,807.711 1141.18,792.946 1070.09,850.65 1087.21,823.592 1006.39,900.334 1001.84,903.839 988.629,908.929 1022.62,868.125 1097.89,807.908 1047.59,860.953 960.293,953.95 966.105,933.137 914.259,981.985 903.646,983.525 941.099,938.624 966.042,907.845 986.701,891.235 935.505,943.497 914.057,971.565 828.214,1057.39 896.3,973.623 885.574,990.853 918.433,946.347 815.185,1059.74 839.835,1030.16 865.994,1001.76 917.804,946.533 992.282,889.379 976.828,910.271 1033.87,858.279 978.557,910.35 976.863,906.771 995.788,891.389 949.619,936.032 1116.46,780.455 1102.32,815.471 1053.45,867.255 1124.14,793.773 1106.93,801.893 1038.59,875.537 1125.51,794.571 1200.47,744.598 1155.06,782.504 1130.64,794.289 1140.94,785.303 1047.22,868.47 1027.15,891.356 987.438,921.502 884.868,1024.19 839.724,1062.33 808.818,1083.02 825.792,1052.08 845.168,1024.1 791.702,1081.45 809.737,1057.95 760.033,1116.57 780.787,1089.73 807.998,1055.53 788.962,1079.56 758.693,1111.23 816.754,1043.03 868.482,995.987 935.879,931.192 881.807,1002.4 971.51,899.273 947.277,935.483 931.499,954.021 922.029,954.974 877.926,1004.74 880.788,1001.95 862.859,1015.86 872.82,1002.89 890.536,1001.27 828.566,1055.38 847.085,1032.93 849.469,1023.66 877.901,984.624 969.724,909.666 939.719,941.047 962.693,914.253 1001.31,882.589 968.516,924.753 960.82,936.172 954.991,942.944 1079.66,825.478 1042.31,874.786 959.582,942.506 977.386,907.604 1004.24,896.217 1038.32,875.483 989.272,913.52 905.469,992.327 1004.45,878.504 1069.86,819.609 1109.52,791.429 1132.6,787.08 1222.54,699.624 1262.76,664.412 1277.72,676.314 1154.9,779.228 1107.37,831.68 1152.26,793.546 1119.05,798.473 1096.03,827.153 1125.97,783.025 1066.83,838.675 1105.86,806.515 1068.85,847.647 1126.09,790.071 1158.72,771.239 1146.76,782.784 1080.51,843.423 1072.57,848.581 1079.69,844.586 979.76,922.377 983.342,911.966 960.212,934.48 923.129,972.452 864.958,1021.69 850.285,1030.28 831.274,1048.05 851.282,1017.09 872.201,994.294 871.673,1000.94 846.727,1027.45 850.144,1020.88 896.331,969.402 979.329,883.685 975.243,897.835 1020.88,862.046 1004.76,891.613 1057.82,854.977 1020.79,876.288 974.443,925.837 980.241,897.208 948.055,933.451 925.316,960.199 969.203,919.306 930.253,953.762 929.034,959.958 934.753,942.196 956.235,915.103 941.377,924.081 984.189,899.922 1001.56,880.184 1079.19,811.72 1238.88,675.142 1156.59,767.218 1236.76,704.658 1252.41,694.855 1223.56,696.953 1398.27,570.059 1306.75,657.05 1291.16,673.847 1183.62,769.57 1096.05,837.984 1039.28,876.298 1031.31,865.595 1069.53,833.488 1176.33,740.967 1175.84,756.298 1081.36,841.262 1035.46,868.879 985.035,920.224 938.494,958.54 942.814,946.342 929.939,960.662 939.895,952.338 944.673,951.234 1046.66,849.4 982.28,906.505 998.28,889.9 944.067,943.087 892.046,980.563 883.957,980.423 967.813,902.679 890.836,984.839 926.627,955.276 996.245,885.783 1032.64,871.253 1021.05,881.277 1080.13,824.823 1002.97,892.854 1033.91,870.05 1106.74,802.045 991.553,905.329 984.511,916.355 943.93,935.365 967.511,914.13 1006.4,881.326 1043.9,855.379 1026.79,865.927 1030.27,862.066 1019.41,868.866 927.535,965.09 1013.99,881.95 1061.77,843.333 1063.74,840.945 1171.91,743.434 1027.71,849.232 1057.21,844.32 1090.46,812.659 1273.92,664.346 1265.06,689.459 1169.63,784.817 1130.7,811.434 1205.78,728.903 1160.72,772.213 1051.25,873.424 1046.74,869.408 1084.56,824.563 1082.77,826.773 1090.66,831.681 1138.11,783.058 1146.75,775.287 1034.42,884.974 1039.9,860.808 1042.43,855.165 966.822,933.406 936.471,956.005 890.445,999.675 922.695,957.389 967.281,914.48 999.22,883.887 1063.22,832.796 1073.83,835.865 1104.38,799.037 1181.89,735.253 1294.82,640.267 1382.68,580.877 1314.15,666.306 1493.04,512.25 1393.1,621.467 1451.9,559.051 1478.67,549.634 1383.9,625.539 1396.33,601.502 1475.27,553.731 1453.44,574.505 1426.89,594.314 1350.3,650.753 1288.18,702.402 1204.9,760.995 1152.15,799.582 1142.57,789.89 1053.7,876.061 1047.31,864.24 997.765,906.8 1024.17,871.34 1035.49,862.648 976.349,921.076 993.502,895.911 1026.21,861.027 1066.49,821.862 1146.34,749.366 1129.2,782.338 1150.16,772.22 1139.23,781.922 1144.82,775.758 1077.21,828.281 1097.17,809.59 1091.76,815.069 1089.11,821.416 1158.95,764.21 1002.84,910.438 1027.29,875.548 1048.82,865.961 954.523,946.648 978.613,912.515 902.701,987.335 842.182,1039.89 820.229,1054.06 855.316,1010.1 850.47,1023.6 866.732,1016.34 843.353,1037.98 818.866,1056.87 830.951,1040.82 860.921,1004.01 885.44,986.198 857.493,1019.34 858.537,1019.05 961.692,908.871 981.562,895.977 999.112,885.65 1096.82,791.967 1040.82,844.809 1068.1,824.45 1036.14,851.405 1028.66,868.822 1105.52,800.796 1108.51,806.365 1035.83,886.23 1194.13,754.323 1145.81,795.618 1172.81,762.997 1148.19,775.511 1169.61,760.374 1264.39,663.224 1192.73,749.133 1172.8,763.914 1156.06,788.207 1113.05,794.777 1136.38,774.808 1160.08,760.698 1204.83,716.139 1124.91,807.355 1168.28,755.475 1207.05,734.934 1146.49,794.672 1070.06,854.959 1051.51,864.939 1028.98,869.984 994.239,906.583 1035.78,858.948 1112.37,793.426 1119.35,792.916 1171.71,751.354 1197.48,725.66 1170.38,755.59 1211.5,722.707 1210.32,728.93 1177.13,765.89 1242.58,702.469 1178.25,776.695 1068.89,863.864 1035.74,880.04 1064.76,834.408 1156.22,757.46 1189.72,728.081 1319.65,623.49 1363.19,604.233 1381.69,600.282 1439.7,564.972 1498.37,531.789 1492.83,542.161 1513.87,525.927 1365.84,647.597 1298.95,689.992 1260.05,715.087 1199.3,763.073 1120.44,823.192 1122.21,808.31 1250.72,679.851 1192.3,739.783 1239.17,690.547 1148.43,779.619 1123.76,801.537 1157.77,772.083 1234.09,703.58 1206.85,739.246 1247.15,687.927 1272.88,665.582 1119.99,803.753 989.396,917.559 941.297,949.303 937.158,952.69 857.66,1013.68 888.867,978.326 879.363,993.792 881.779,989.866 843.125,1037.48 863.241,999.722 850.601,1020.25 899.705,973.203 834.517,1040.7 825.239,1060.08 836.32,1047.79 872.924,1014.16 919.874,952.863 855.231,1020.73 791.879,1082.74 780.115,1095.98 797.336,1076.23 778.432,1098 811.311,1052.98 934.743,922.707 946.987,925.911 986.649,901.535 1029.22,858.706 992.229,905.914 926.712,958.625 966.842,910.36 986.726,887.193 1067.98,825.963 1086,811.916 1042.3,860.639 1001.98,890.781 1005.3,886.345 1084.39,818.417 1048.42,859.786 1058.79,855.861 1068.63,864.278 965.338,948.337 952.185,948.315 955.762,933.318 965.681,917.946 989.992,889.321 981.153,896.611 849.561,1023.05 818.29,1053.28 812.643,1066.56 800.172,1069.94 745.37,1126.45 777.865,1087.71 793.56,1078.79 831.613,1033.95 878.324,984.243 945.226,921.884 914.735,965.224 878.794,996.2 880.352,985.9 875.431,1001.87 869.211,1006.22 925.703,949.971 925.993,957.185 1101.08,787.468 1117.58,790.155 1068.52,837.004 959.347,943.62 1005.37,891.535 1007.8,887.859 1004.34,892.376 872.91,1001.56 791.637,1090.51 725.241,1161.19 732.382,1142.9 719.672,1154.64 736.755,1128.35 779.509,1078.07 832.072,1033.43 864.847,999.019 851.132,1013.28 837.886,1038.1 896.699,970.768 914.297,954.38 972.075,917.135 1032.2,854.724 1064.39,824.508 1140.39,771.815 1073.59,836.142 1115.15,787.077 1079.11,826.756 1055.57,851.103 980.068,913.257 1000.3,890.138 1023.93,866.539 1007.97,892.802 1057.1,836.202 1051.46,849.777 1016.5,885.974 974.086,924.12 1002.92,891.017 1009.55,885.306 1049.4,841.386 1118.62,777.245 1012.6,893.785 953.767,949.552 1014.55,888.552 1069.92,832.013 1122.82,804.725 1178.53,747.954 1225.28,711.401 1324.52,637.954 1418.37,566.684 1452.41,545.517 1342.66,655.438 1339.18,656.705 1319.79,666.699 1265.14,705.443 1202.8,754.577 1164.23,784.585 1234.7,699.648 1175.36,764.092 1242.67,696.875 1236.14,708.121 1168.68,766.001 1330,623.583 1435.57,565.097 1445.43,567.671 1258.93,727.367 1205.43,759.328 1102.94,841.463 1052.15,874.695 1028.72,878.233 1014.6,887.043 973.748,921.175 922.401,968.084 840.62,1051.32 830.013,1049.99 793.804,1085.61 745.097,1135.12 736.023,1140.91 765.685,1101.91 765.172,1096.61 749.397,1116.48 779.583,1085.88 887.997,963.287 924.126,940.388 1026.77,852.53 1131.22,761.324 1148.61,759.933 1218.81,711.736 1294.84,664.478 1234.83,736.041 1341.18,633.844 1370.74,628.499 1309.07,668.272 1251.61,716.798 1226.88,737.359 1272.69,681.537 1334.12,637.084 1169.44,780.262 1162.56,767.479 1052.01,867.276 1060.55,846.548 958.927,941.045 926.76,960.835 989.179,887.148 1100.32,782.49 1179.64,726.747 1177.08,749.857 1173.16,762.609 1132.45,799.362 1093.41,833.351 1081.05,844.678 1060.15,839.088 1061.98,843 965.151,932.624 944.821,945.097 863.34,1025.77 847.093,1038.91 840.777,1031.24 812.227,1063.17 856.761,1009.7 831.664,1042.45 864.349,1005.15 811.939,1062.71 840.985,1037.27 771.741,1114.96 775.301,1099.53 770.456,1096.86 776.854,1088.68 891.652,968.063 883.205,988.984 905.27,969.666 899.014,978.558 955.468,915.383 909.388,972.499 859.974,1021.22 880.731,1003.89 922.222,946.18 1001.63,875.651 1038.51,848.083 1010.29,884.933 984.142,911.405 1138.5,744.919 1149.8,758.912 1173.82,748.996 1199.65,726.041 1219.51,714.427 1107.06,809.815 1158.49,763.972 1185.49,742.618 1096.71,809.013 1222.77,709.054 1226.11,707.011 1190.3,730.541 1163.76,753.886 1135.7,769.755 1263.23,682.219 1158.78,777.928 1164.44,756.432 1210.05,725.89 1252.78,705.523 1170.26,778.863 1135.06,782.96 1087.56,839.842 1095.63,821.931 1022.65,889.067 999.065,904.475 1008.61,894.208 1013.3,880.77 1104.02,794.259 1126.43,789.847 1045.31,862.524 1080.66,831.944 1062.53,850.398 1089.2,818.614 1051.93,829.112 993.588,890.769 834.539,1036.92 882.474,984.938 1023.09,837.94 1019.68,868.487 970.593,924.915 967.137,923.765 985.096,905.597 1002.38,885.496 1074.61,831.421 1012.29,895.689 937.949,958.359 922.976,964.996 951.564,931.761 946.513,937.298 978.413,897.439 994.27,892.408 1022.95,876.596 1061.99,844.618 1045.52,858.649 978.279,921.391 951.141,938.091 903.092,986.507 905.74,977.779 818.86,1069.38 816.466,1073.86 826.1,1053.1 858.069,1015.49 959.906,922.202 948.021,940.74 961.8,924.118 995.586,898.291 945.221,953.116 895.688,995.389 864.11,1019.62 822.461,1062.36 815.015,1052.19 841.466,1025.21 792.999,1070.12 881.79,989.735 895.369,985.058 984.054,897.518 1029.56,861.73 1130.1,774.098 1139.09,781.737 1114.05,809.307 1195.21,746.629 1233.72,707.805 1216.93,738.664 1263.9,682.76 1234.35,728.751 1215.45,732.832 1180.34,761.76 1174.74,767.695 1054.87,871.634 1037.65,875.088 1060.96,839.519 1103.6,808.76 1199.34,741.227 1221.07,729.825 1264.37,685.063 1193.74,746.13 1173.9,772.998 1180.37,766.065 1146.41,783.523 1219.64,725.009 1178.54,777.775 1132.47,789.994 1141.28,778.677 1000.68,914.517 979.529,925.928 978.314,916.186 987.513,896.983 1021.83,863.636 1028.03,875.459 961.94,935.888 951.033,936.417 946.967,938.904 951.572,949.769 952.989,933.286 1030.4,854.182 924.287,967.186 985.457,913.105 948.782,943.078 837.185,1039.83 869.234,1001.32 865.868,1006.12 881.639,990.189 845.266,1035.1 894.052,981.444 900.455,978.286 903.463,983.448 834.137,1051.5 894.4,979.587 867.834,1002.46 902.413,978.148 866.146,1020.04 907.067,982.722 923.526,963.666 902.668,992.516 920.236,977.334 973.173,922.911 986.099,925.83 988.955,910.283 1077.56,817.915 1076.34,806.417 1176.99,726.488 1016.41,862.994 893.557,969.105 820.902,1057.8 730.293,1146.5 716.966,1155.28 761.534,1094.03 797.193,1066.04 824.92,1033.96 808.059,1056.34 852.511,1013.32 907.831,961.461 981.112,893.794 945.605,941.925 1016.42,874.814 1075.74,818.308 1058.45,844.424 1136.52,779.215 1221.06,724.162 1181.1,762.823 1184.34,747.457 1162.85,767.098 1130.71,804.02 1075.29,854.981 1021.68,881.761 997.905,899.861 1088.85,804.199 1089.5,813.222 1201.07,723.552 1218.78,701.743 1283.31,673.949 1334.36,632.635 1334.93,633.559 1373.16,614.114 1370.74,628.844 1308.74,669.461 1262.29,696.758 1236.78,727.761 1209.93,739.198 1239.05,712.542 1219.16,722.878 1204.21,741.073 1175.18,775.437 1051,877.8 1032.32,880.114 1002.76,904.713 1033.25,863.904 1049.11,847.585 1173.73,733.8 1204.97,713.466 1256.67,668.981 1181.47,758.623 1156.58,779.153 1090.05,845.688 1120.89,803.737 1100.47,819.599 991.963,924.167 976.886,908.922 967.865,918.267 957.223,924.888 965.445,915.151 1015.78,870.413 986.42,910.551 999.236,896.869 1056.71,835.885 1101.72,799.713 1080.98,818.526 1159.17,746.076 1215.87,714.596 1221.16,717.889 1242.32,705.265 1331.14,621.433 1381.07,618.549 1406.55,592.182 1301.23,679.146 1184.95,773.487 1187.24,752.903 1081,847.295 1132.82,788.482 1052.08,864.671 991.758,928.191 986.377,920.062 1035.24,863.749 959.218,941.019 951.584,934.676 869.803,1021.69 870.444,1011.74 901.855,972.384 951.306,925.224 961.839,927.718 1054.63,829.733 899.898,986.722 906.582,976.609 919.139,963.065 970.25,903.33 973.621,905.541 975.989,901.245 990.233,884.041 1068.42,821.272 1053.43,851.297 1164.52,756.204 1156.84,760.51 1157.25,749.807 1219.05,707.872 1173.2,758.769 1236.29,716.756 1220.19,732.37 1300.34,661.352 1375.48,629.752 1384.94,621.523 1262.72,708.528 1262.14,702 1329.56,632.703 1315.97,660.234 1344.61,640.381 1278.39,690.698 1283.25,681.719 1388.39,569.53 1438.28,551.545 1553.81,473.948 1480.12,562.505 1286.62,719.737 1189.3,788.205 1126.01,833.391 1040.86,900.357 973.558,954.164 939.451,972.789 916.312,985.716 867.609,1029.96 797.955,1098.73 790.707,1096.19 789.149,1088.58 781.791,1093.16 748.062,1130.92 760.685,1108.47 767.745,1101.1 814.034,1047 831.781,1029.94 814.642,1050.99 780.541,1092.18 787.166,1080.18 774.756,1095.41 776.278,1096.04 801.729,1059.39 827.95,1037.88 856.208,1008.67 907.074,963.027 949.735,927.725 986.247,902.065 967.674,915.996 1040.72,854.569 1000.2,898.672 988.723,904.163 1046.28,836.334 992.713,891.645 930.399,942.68 998.141,891.343 1015.99,866.816 1001.87,894.696 987.434,904.397 993.218,892.469 938.854,942.247 851.688,1028.06 878.539,1006.64 953.526,933.223 1061.75,841.016 1071.39,833.2 1077.35,832.036 1107.38,805.902 1122.73,796.644 1068.95,850.01 1141.27,780.19 1126.2,808.768 1095.29,818.626 1032.46,852.632 1189.77,727.339 1232.28,711.563 1274.35,683.796 1283.11,665.111 1217.18,732.439 1218.62,719.673 1104.22,822.59 1087.61,829.657 993.094,899.023 970.285,914.95 909.736,989.247 821.908,1065.47 868.352,1003.02 911.823,956.188 957.555,915.327 903.219,982.52 969.528,906.434 941.839,947.95 954.685,933.497 971.752,904.297 1067.96,809.811 1144.92,754.772 1145.22,769.325 1197.56,738.364 1141.23,789.133 1120.27,804.401 1141.82,787.069 1175.3,771.556 1148.33,793.706 1105.85,817.948 1044.84,879.364 967.44,938.52 907.119,994.208 915.231,972.044 884.379,1000.16 825.996,1060.13 906.376,961.312 962.189,910.576 899.541,983.902 941.922,937.05 928.099,961.965 884.953,1000.45 875.543,1000.28 920.095,945.209 866.245,1002.15 880.566,998.524 872.364,1002.89 844.22,1031.09 782.445,1089.03 769.804,1099.72 807.742,1051.74 792.71,1073.79 819.144,1049.9 804.642,1060.85 817.521,1052.32 856.255,999.757 904.875,953.464 916.65,953.938 970.77,897.752 922.027,959.811 905.378,979.872 952.655,929.839 910.091,971.871 868.934,1004.86 858.6,1019.92 882.185,994.765 841.717,1033.17 878.963,999.441 983.035,903.256 950.711,929.417 981.815,889.232 937.425,925.961 1001.71,885.173 1016.01,871.649 1083.46,810.532 1119.63,795.584 1021.27,884.172 1009.82,896.169 1009.8,883.579 977.698,918.427 854.234,1033.97 851.98,1025.13 856.599,1016.43 841.688,1031.14 803.431,1077.55 907.48,960.968 953.316,932.448 970.451,914.88 901.687,977.805 998.249,878.181 1120.78,757.039 1042.67,857.557 1037.3,870.075 1074.7,835.27 1174.78,738.556 1169.1,755.329 1208.16,743.75 1228.4,717.009 1238.13,714.192 1307.92,682.887 1284.01,687.015 1240.98,733.638 1241.77,722.736 1145.95,800.951 1135.74,793.305 1178.1,744.751 1116.97,798.541 1114.96,803.118 1115.9,785.746 1142.59,771.986 1125.31,780.419 1150.82,752.597 1208.67,710.632 1193.4,744.031 1167.67,766.686 1110.88,813.439 1055.49,872.07 1147.23,786.939 1042.84,869.275 1019.04,883.253 975.328,913.065 979.186,907.471 973.104,914.304 1149.15,753.738 1160.85,768.891 1188.33,741.426 1137.88,780.635 1181.7,744.605 1179.36,753.309 1170.26,772.496 1233.65,699.924 1242.54,710.983 1196.37,766.073 1180.66,766.725 1172.74,757.185 1163.57,766.937 1197.09,729.952 1226.52,714.49 1363.84,598.24 1320.98,626.367 1262.5,699.091 1170.06,769.396 1138.92,789.981 1141.02,779.811 1047.05,867.462 1003.45,898.855 1006.65,888.036 978.015,897.106 1033.1,856.27 1153.52,759.192 1157.83,763.528 1121.87,812.254 1227.7,706.488 1255.73,677.411 1340.46,624.573 1247.1,709.317 1175.41,775.383 1245,699.944 1244.2,705.88 1184.45,743.229 1240.15,703.64 1241.03,714.391 1140.26,797.825 1236.5,696.233 1350.75,608.315 1321.23,652.836 1228.63,732.224 1328.76,641.674 1328,635.97 1367.11,615.293 1465.67,555.333 1424.58,588.973 1385.83,608.208 1308.82,676.871 1302.28,670.887 1269.91,695.133 1190.44,770.259 1119.53,820.088 1004.86,923.405 1081.37,823.776 1051.01,854.013 1017.24,883.217 965.058,932.892 969.719,920.72 979.425,907.638 952.145,938.58 982.029,911.862 1044.5,853.212 985.214,912.346 996.743,890.385 932.12,941.372 960.539,917.921 1000.69,888.279 1037.28,875.217 1043.24,858.277 980.877,910.852 999.227,884.262 1009.98,898.667 989.249,902.812 971.971,916.185 1041.32,866.933 1026.55,883.404 1010.13,889.761 1025.76,876.499 1029.75,881.959 983.358,910.176 1023.65,869.877 1042.15,861.367 1110.13,795.942 1126.64,795.743 1008.04,890.906 1064.6,835.395 1033.94,867.02 1029.32,862.803 998.098,896.361 1013.73,899.234 1030.19,872.687 1043.58,863.251 979.781,913.059 921.007,967.74 958.172,929.964 935.5,962.946 959.981,953.427 964.248,951.37 941.619,962.912 885.323,1007.17 976.774,913.866 928.349,951.568 900.645,969.981 853.305,1005.51 892,984.757 890.767,1002.11 911.788,972.981 967.712,926.159 999.382,905.474 1070.44,847.778 1067.8,864.704 973.764,939.002 896.968,1005.74 903.603,986.934 903.711,992.405 914.34,979.971 820.771,1066.8 906.787,966.1 900.672,974.205 965.244,918.592 965.308,919.363 977.803,914.075 1035.62,852.452 1045.31,856.199 1030.3,870.054 1127.55,776.939 1108.49,791.436 1036.29,873.752 957.604,950.647 941.688,950.128 920.47,965.992 927.458,950.096 1001.02,886.121 1070.04,813.908 1085.12,821.887 1175.92,738.258 1225.73,707.336 1205.91,745.633 1201.4,740.46 1079.65,827.703 1057.53,855.638 997.573,908.632 1069.87,814.391 984.896,912.405 1018.06,878.771 1043.01,849.387 1077.66,827.417 1108.74,802.432 1075.65,835.464 1117.41,806.726 1112.48,807.129 1152.14,768.487 1207.74,719.132 1146.75,786.14 1146.57,773.998 1150.12,768.104 1089.85,831.557 1190.6,738.803 1209.69,721.999 1121.64,801.59 1123.99,800.094 1043.38,871.853 1031.9,872.612 977.337,932.391 942.249,957.746 934.322,956.478 863.972,1027.56 840.948,1051.34 811.577,1064.89 847.301,1020.44 802.024,1075.11 841.158,1020.81 879.694,985.363 860.388,1012.58 920.564,945.168 913.644,963.035 924.402,953.568 943.801,927.342 931.649,940.4 983.419,887.757 1011.38,857.802 961.19,918.103 963.645,918.466 1002.23,887.53 1017.24,878.08 941.776,948.085 878.696,1017.58 826.777,1063.07 788.353,1098.44 751.996,1131.42 744.602,1129.35 764.901,1107.25 768.424,1096.36 854.912,1000.04 874.247,984.139 895.193,972.349 905.028,969.218 981.116,904.308 976.168,915.115 1016.34,875.482 988.654,902.275 1042.26,850.936 1097.49,799.84 1059.8,849.738 1137.54,790.68 1133.8,785.124 1019.97,895.437 1114.38,820.436 1143.35,769.869 1147.64,762.396 1107.36,810.953 1029.92,855.771 1020.13,872.625 1058.42,832.224 1128.49,789.857 1092.9,823.739 1139.9,767.823 1073.64,840.137 1053.06,864.078 925.21,972.443 915.566,970.441 911.491,971.247 909.198,974.859 862.976,1023.6 832.686,1050.26 785.015,1097.04 820.614,1047.67 830.051,1038.62 841.863,1025.84 795.005,1079.8 817.461,1045.78 730.748,1146.74 731.029,1138.75 739.961,1128.17 754.622,1111.28 797.373,1061.13 824.426,1039.25 844.625,1026.53 971.355,892.253 1029.86,855.904 991.043,903.72 994.971,895.048 946.796,941.362 1026.15,860.627 1046.65,843.306 1033.58,867.646 1077.32,832.198 1036.42,867.394 1014.21,866.676 868.079,1017.78 919.85,961.156 942.356,931.72 884.509,983.858 839.579,1027.85 844.552,1015.85 863.089,1008.32 826.835,1049.66 847.265,1025.61 790.35,1095 801.602,1069.83 906.668,950.52 898.289,977.673 926.534,951.172 846.342,1038.76 834.22,1044.18 845.867,1026.3 929.052,938.241 967.526,904.834 1056.53,843.37 1028.22,873.567 965.425,932.886 972.223,924.784 1029.55,870.008 1078.37,832.795 1128.2,799.076 1143.54,781.987 1159.95,779.255 1141.11,805.259 1169.21,776.494 1215.12,747.444 1200.02,746.345 1058.5,868.343 1020.1,895.403 973.121,927.023 957.181,939.815 972.947,906.655 995.473,884.222 1058.55,823.153 1009.7,872.366 1070.57,811.656 1102.25,808.085 1154.24,767.646 1174.87,769.627 1202.1,732.791 1080.16,827.243 1053.1,856.264 1054.82,850.803 1049.55,836.446 1283.38,618.012 1300.2,644.958 1228.27,730.208 1254.12,703.074 1275.85,688.23 1261.86,695.245 1344.7,624.164 1408.11,581.795 1446.94,556.27 1476.74,544.493 1366.95,626.894 1380.46,603.554 1469.73,533.228 1437.5,570.949 1385.38,604.584 1323.4,672.077 1298.15,679.11 1263.55,706.601 1265.59,701.232 1217.8,738.735 1155.58,792.869 1186.39,743.718 1134.02,794.656 1090.65,822.681 1140.18,769.714 1221.31,692.98 1218.94,719.812 1219.79,716.517 1241.58,706.239 1288.79,671.61 1191.52,759.916 1087.53,835.6 1047.73,864.961 1098.87,809.731 1104.44,808.632 1135.3,785.781 1148.93,768.001 1095.55,815.627 1060.21,842.833 1070.02,822.975 990.326,895.371 1073.8,823.509 1070.9,822.623 1043.65,862.868 1021.47,886.238 988.992,912.34 1042.19,853.775 1066.95,840.181 1046.04,862.747 1122.51,791.392 1145.34,782.078 1213.88,722.435 1153.05,782.233 1064.37,849.741 1117.41,788.419 1194.62,724.96 1193.32,736.488 1189.48,742.971 1148.77,786.783 1205.47,733.963 1209.36,732.829 1091.72,842.096 1114.05,806.682 1051.53,860.762 1020.46,885.414 994.337,905.22 945.471,935.807 994.515,882.446 937.248,955.12 845.343,1037.39 907.026,961.33 884.502,992.019 909.042,967.822 900.802,982.946 838.721,1049.06 814.915,1071.12 763.476,1123.68 788.305,1084 857.54,1003.38 885.169,975.626 889.087,981.712 859.954,1023.07 938.553,933.144 995.515,890.205 967.428,926.17 998.337,890.747 1025.33,860.124 1012.14,872.615 1014.53,869.686 1038.99,859.75 1059.31,832.94 979.141,905.631 1045.22,862.038 1144.72,761.16 1061.78,848.225 1058.93,843.481 1088.56,822.474 1062.59,834.922 1195.21,739.441 1256.01,694.777 1262.1,702.036 1305.54,674.457 1328.77,646.445 1266.16,686.5 1294.35,661.234 1167.8,765.852 1143.65,776.778 1204.8,723.577 1159.18,767.986 1283.26,665.069 1355.67,606.154 1268.27,695.926 1212.26,734.849 1106.14,821.399 1216.78,709.316 1359.39,601.461 1321.82,656.445 1307.75,659.456 1257.98,705.939 1236.47,730.145 1184.39,771.399 1141.04,801.035 1067.09,858.438 985.804,924.578 985.786,916.923 981.008,916.35 989.843,911.229 995.377,893.1 1028.11,861.144 1090.98,798.556 1116.51,796.834 1046.42,871.97 1040.13,869.658 1103.07,799.706 1141.68,765.902 1140.38,778.046 1216.94,710.44 1238.25,703.346 1232.8,719.653 1228.48,724.576 1186.33,745.845 1113.23,805.62 1135.18,794.84 1045.86,861.838 1011.81,895.635 1136.96,760.564 1097.41,819.184 1025.59,887.595 1146.05,751.614 1118.25,800.275 1136.8,782.841 1142,777.268 1171.81,756.178 1154.55,776.004 1178.67,748.13 1083.99,840.852 1016.11,898.651 1011.42,894.402 1049.29,850.931 1075.72,822.122 998.309,908.933 971.193,922.22 995.096,890.421 968.093,922.134 980.021,910.845 918.167,966.66 857.325,1034.51 880.206,995.581 848.611,1030.54 907.799,971.214 933.025,948.83 879.101,1001.24 848.043,1036.95 797.981,1080.71 808.354,1067.41 755.379,1126.87 719.139,1154.19 739.233,1125.1 714.011,1153.03 697.059,1178.01 715.07,1146.12 762.399,1098.87 778.074,1085.87 794.58,1068.91 863.556,996.271 872.551,991.268 867.743,1012.44 809.637,1073.82 760.677,1123.07 772.478,1100.07 852.491,1010.14 795.345,1073.53 782.265,1091.68 816.659,1041.95 872.969,992.997 892.006,984.928 841.92,1040 866.503,1007.58 919.82,952.736 909.68,959.416 963.806,906.896 987.168,906.428 1010.24,885.877 1091.73,800.876 984.394,898.369 955.899,935.33 919.429,978.154 906.328,977.367 889.916,992.045 888.026,993.852 903.626,990.041 915.896,965.495 997.544,907.223 995.017,904.597 1000.87,898.974 1001.66,888.479 987.419,907.597 931.58,947.374 944.307,931.492 1010.37,866.964 1127.26,774.413 1146.33,773.666 1240.65,692.462 1252.78,692.3 1212.25,745.19 1306.31,684.208 1268.02,701.348 1140.41,812.706 1035.88,898.261 1000.05,910.407 1007.69,896.226 1021.44,881.399 990.46,911.258 971.176,923.406 1026.36,855.555 1037.85,838.366 1033.93,856.081 1021.06,877.042 1096.39,797.171 1145.01,761.613 1117.75,793.609 1157.1,757.349 1209.78,716.415 1206.02,730.73 1315.64,642.556 1246.05,703.874 1178.97,766.098 1148.97,779.096 1118.65,803.633 1067.5,848.823 1039.75,864.911 1001.04,904.383 1033.33,869.842 1140.5,800.875 1095.23,832.726 1160.54,755.228 1111.8,810.476 1180.81,740.062 1175.64,765.382 1187.94,747.749 1199.56,734.73 1197.63,746.808 1363.13,613.507 1357.23,626.311 1306.9,678.7 1299.86,676.879 1132.52,820.84 1075.19,858.824 1044.7,870.943 1041.72,862.542 1003.16,901.185 1060.59,840.387 1066.2,834.907 1055.65,832.766 1034.2,855.836 1008.58,876.501 960.887,929.931 996.913,898.011 1115.36,809.511 1159.04,764.632 1083.44,826.504 1010.06,909.713 947.961,952.67 914.602,982.874 886.871,1008.24 922.548,957.561 988.768,886.873 1048.67,835.469 1105.16,791.248 1155.36,750.529 1156.1,765.253 1173.05,749.613 1073.83,842.979 1077.19,827.734 1023.93,886.191 1072.43,827.715 1082.78,806.809 1134.43,788.075 1078.37,848.221 1151.84,767.972 989.992,928.33 985.52,915.775 1005.39,886.801 968.186,927.974 996.987,886.131 939.193,951.79 945.849,940.582 991.881,894.577 1004,894.454 1102.16,791.552 1256.65,657.897 1216.02,719.467 1169.36,765.115 1063.96,854.72 1082.98,825.091 1085.85,829.125 1106.03,809.911 1125.4,783.707 1131.84,782.453 1147.51,767.338 1089.97,821.288 1101.52,803.401 1121.27,785.58 1166.21,752.046 1202.7,727.975 1032.76,851.385 1101.73,798.21 1062.55,838.366 1036.76,857.732 893.238,996.254 883.591,995.49 985.061,890.624 1035.3,854.692 1062.58,835.672 1114.43,786.946 1108.31,800.149 1241.28,696.433 1205.59,740.562 1151.06,766.461 1172.92,747.276 1224.25,703.902 1321.82,642.718 1313.19,669.19 1224.86,742.527 1160.38,788.406 1169.11,774.327 1195.7,739.494 1237.01,698.66 1249.1,700.726 1297.13,660.004 1345.93,631.899 1367.64,615.621 1234.76,719.317 1149.47,793.968 1152.85,776.286 1137.69,796.565 1063.28,856.149 1066.67,840.099 1061.45,841.4 1096.84,813.486 1081.63,850.199 1088.05,853.461 1078.44,859.891 1108.34,808.481 1021.29,890.611 1026.7,876.445 1005.57,902.681 1093.85,810.147 1112.14,797.35 1101.45,824.473 1030.33,878.139 985.365,912.027 960.735,922.826 954.233,925.377 972.631,915.51 1020.84,876.994 1047.5,857.841 1149.94,779.416 1055.86,852.513 1122.91,785.9 1157.05,742.735 1142.72,768.685 1049.16,870.186 1037.79,902.727 1100.07,818.008 1194.77,724.616 1245.41,693.695 1262.6,676.279 1227.32,728.948 1324.73,643.328 1335.24,659.132 1255.59,713.238 1152,803.4 1132.34,796.895 1046.03,876.931 1097.31,807.497 1153.94,757.244 1213.16,724.879 1202.85,729.635 1318.7,629.309 1412.18,574.661 1386.48,607.394 1409.72,597.226 1358.73,626.122 1327.14,653.469 1230.8,736.514 1206.3,743.781 1331.8,620.812 1340.53,630.197 1282.9,694.806 1355.05,622.24 1341.65,648.953 1474.8,539.451 1338.32,651.473 1193.23,776.867 1141.43,803.642 1055.52,878.109 1068.45,848.329 1017.32,894.281 929.337,976.611 957.312,930.966 968.23,917.703 947.308,940.235 881.526,1010.5 865.723,1021.22 846.613,1035.2 827.061,1049.23 786.739,1087.43 813.425,1052.06 843.983,1024.58 893.741,976.529 859.882,1024.6 823.472,1057.3 854.825,1017.13 854.144,1023.92 864.601,1003.83 815.147,1058.17 767.379,1114.83 741.9,1136.67 759.468,1115.83 771.11,1111.99 807.749,1067.73 832.04,1039.88 908.523,968.419 906.662,974.476 890.554,992.095 872.22,995.015 886.807,986.975 850.73,1015.11 828.275,1039.54 934.504,943.797 967.995,916.022 967.777,919.538 993.79,888.964 975.984,907.312 1026.13,869.877 968.56,931.487 929.394,956.961 962.692,913.805 956.329,924.616 920.173,980.23 893.293,1002.89 906.337,978.266 867.73,1023.3 892.417,990.116 874.871,1009 925.556,963.255 992.187,899.188 986.324,916.905 994.944,896.904 1030.45,877.28 1072.63,835.878 1201.85,726.507 1359.37,598.478 1457.81,536.757 1486.75,538.867 1379.69,631.142 1335.48,659.387 1387.58,597.402 1361.88,642.755 1343.71,658.394 1345.22,636.277 1289.89,695.43 1218.12,744.162 1262.91,691.541 1361.67,613.758 1402.55,585.431 1582.01,445.393 1398.08,625.597 1273.93,724.742 1237.14,743.43 1195.86,765.658 1243.58,706.89 1262.67,684.51 1265.19,691.497 1234.06,724.317 1232.16,723.621 1210.8,737.523 1286,661.643 1223.57,721.386 1247.78,704.503 1230.74,708.707 1222.4,721.845 1297.15,667.759 1296.9,668.757 1326.28,637.162 1304.58,645.258 1187.72,762.625 1189.48,750.095 1181.26,756.338 1063.74,849.802 976.148,930.866 937.081,954.185 909.345,973.372 942.941,937.272 908.747,968.249 889.17,991.577 928.664,944.875 971.717,901.713 912.953,963.363 936.106,953.562 839.457,1055.6 816.926,1064.15 761.525,1115.91 750.782,1124.32 799.088,1065.52 806.269,1065.82 800.776,1077.39 762.692,1124.96 827.843,1041.98 797.349,1066.07 839.622,1030.82 959.583,912.702 960.949,912.26 994.194,898.314 943.563,947.884 923.138,971.456 943.539,948.98 1033.1,859.239 1088.35,820.695 1013.34,890.869 1042.65,855.385 1023.52,889.916 1029.07,880.296 927.036,978.435 907.479,986.569 904.666,988.414 909.62,979.413 900.034,978.036 939.817,931.328 1022.54,861.806 1132.32,762.818 1174.27,745.915 1217.81,711.239 1309.76,652.249 1251.96,703.602 1159.95,771.338 1144.91,783.051 1202.1,719.395 1263.81,673.262 1250.47,708.804 1220.67,731.368 1167.62,785.355 1145.38,782.699 1082.09,835.288 1172.18,737.278 1133.86,784.08 1158.02,764.472 1216.6,709.744 1292.65,650.43 1258.93,685.048 1191.53,744.275 1138.54,794.901 1127.16,811.208 966.081,960.836 959.367,941.664 992.774,898.188 981.62,907.097 977.246,914.06 966.125,923.905 885.965,1013.78 964.209,914.777 1006.46,886.391 1019.97,870.353 996.356,905.165 1027.17,872.152 1032.67,872.086 960.913,939.405 1018.95,878.623 964.167,933.974 854.769,1029.84 865.657,1014.26 828.884,1049.57 816.211,1059.5 916.133,949.535 895.822,975.914 970.322,914.273 921.334,957.29 906.182,981.623 873.445,1002.85 875.155,997.444 920.357,949.112 873.615,1004.2 902.468,972.319 896.421,983.019 891.944,984.223 874.201,1001.81 867.679,1003.52 958.429,918.793 946.281,946.643 969.786,912.949 1002.82,883.472 1062.9,838.237 1131.71,797.384 1248.37,693.904 1169.15,749.93 1241.87,680.442 1202.02,723.266 1259.34,696.644 1215.98,738.467 1168.73,760.719 1193.11,748.43 1098.53,833.915 1166.86,768.125 1010.09,901.455 975.564,933.958 1034.85,869.882 1042.95,858.851 1044.6,867.273 1037.72,863.177 1068.11,824.428 1113.84,783.948 1136.08,774.605 1132.11,780.521 1109.15,807.215 1143.62,773.873 1197.18,741.965 1068.8,854.46 1136.43,777.462 1093.64,815.468 1112.47,799.969 1082.42,827.513 1040.6,859.72 1098.9,810.959 1242.58,698.048 1196.08,739.684 1295.1,657.817 1330.11,633.485 1136.7,801.329 1161.97,773.113 1201.68,734.024 1154.77,762.491 1232.57,694.887 1324.07,622.419 1344.12,619.304 1401.23,592.799 1366.58,627.016 1365.43,621.767 1383.48,621.568 1331.82,656.331 1322.1,652.923 1293.63,684.5 1227.88,730.428 1205.58,737.519 1190.69,739.682 1097.14,814.08 1098.1,807.771 1098.69,812.551 1105.49,799.89 1105.54,822.494 1069.8,852.913 1064.64,838.073 1050.99,856.17 1065.33,858.879 1108.4,801.997 1061.96,855.519 1010.68,904.69 1004.2,900.766 1058.61,846.464 1042.72,866.828 1024.84,883.609 978.153,934.124 925.923,962.275 959.364,921.173 990.609,889.153 975.713,909.145 1025.14,858.026 932.098,947.431 989.647,881.431 1017.55,870.122 1031.13,868.656 1012.72,887.85 1052.1,850.833 1035.54,862.487 1060.73,844.111 1087.41,832.563 1035.02,877.909 1167.6,743.602 1107.92,805.909 1082.09,823.584 1122.59,815.781 1159.98,767.369 1170.98,767.516 1115.59,816.911 1113.11,838.399 1073.63,851.379 1010.87,902.81 985.62,915.423 953.418,947.572 929.146,962.179 975.243,907.546 1002.71,888.646 1040.54,842.776 1131.4,775.259 1157.44,757.076 1167.84,757.456 1170.12,750.406 1209.88,724.628 1124.16,814.821 1117.78,807.94 1113.29,808.836 1114.11,807.401 1105.13,812.065 1033.44,884.662 1042.08,868.619 1034.01,875.599 1023.17,887.792 1058.67,851.083 1081.96,821.956 1101.09,804.175 1200.16,719.501 1176.02,753.732 1144.21,774.303 1215.77,712.97 1114.4,803.318 1179.38,743.134 1267.41,680.354 1381.61,592.664 1349.78,633.509 1380.48,616.217 1366.17,612.94 1417.19,584.825 1301.26,677.994 1322.09,652.357 1220.81,741.298 1230.94,721.9 1301.94,665.297 1317,662.196 1335.85,650.924 1384.14,597.355 1286.93,677.253 1267.43,698.742 1229.15,733.636 1360.54,607.979 1233.5,716.509 1233.54,718.422 1270.68,682.341 1174.22,770.803 1123.98,805.611 1038.57,870.254 1049.41,852.539 1026.76,875.054 1013.29,892.611 901.914,993.654 895.136,991.053 911.05,972.424 906.487,969.848 825.634,1059.44 766.393,1119.33 745.685,1134.88 761.356,1110.5 786.865,1078.64 773.718,1091.85 804.12,1057.3 840.622,1025.32 812.883,1053.91 887.306,975.144 920.649,954.256 909.206,970.554 905.043,972.275 969.602,892.03 980.762,902.019 1055.52,827.526 1085.5,821.248 1065.22,842.469 1030.5,873.954 1026.09,865.728 1098.58,795.998 1246.57,674.027 1264.62,675.773 1264.67,685.334 1237.44,726.081 1160.87,793.317 1118.12,819.444 1098.68,824.345 1069.41,852.282 1037.66,871.702 986.734,928.74 969.933,922.612 956.432,934.282 894.737,996.538 856.698,1027.23 874.462,999.624 890.34,981.069 919.135,957.066 899.823,978.958 932.585,944.56 1059.75,813.77 1083.95,810.89 1096.13,809.047 1075.9,833.972 1104.16,808.924 1120.15,792.787 1148.89,776.421 1157.87,761.859 1174.81,755.227 1270.53,664.172 1303.74,628.419 1217.95,711.352 1290.18,662.457 1252.44,709.23 1250.77,703.839 1370.9,588.048 1357.85,618.711 1373.38,601.59 1274.59,695.816 1362.74,610.167 1436.43,559.118 1427.04,556.268 1411.73,578.37 1316.7,657.036 1287.23,675.326 1213.41,737.731 1280.03,672.325 1164.07,769.295 1131.16,794.248 1066.59,852.655 970.985,938.53 964.64,938.693 997.845,893.853 1037.54,852.564 971.423,919.032 1022.58,877.985 1041.54,859.292 1047.98,856.612 1032.32,878.638 951.292,942.456 991.78,892.228 1013.38,878.671 1045.33,846.697 976.188,922.88 885.723,1009.47 905.34,979.838 908.462,966.529 902.667,978.672 922.47,963.906 959.727,922.755 938.597,941.487 924.534,963.727 943.505,949.492 1023.72,865.218 1038.47,849.429 990.724,887.916 1006.13,872.684 985.323,897.712 1048.1,843.896 1066.87,811.978 1170.44,738.485 1204.89,723.022 1231.06,706.761 1343.84,620.947 1423.68,565.699 1479.75,547.612 1449.82,585.46 1469.74,566.253 1434.46,593.852 1596.61,454.594 1675.71,401.034 1672.79,425.27 1767.87,355.68 1654.21,457.502 1615.97,483.678 1582.81,500.463 1567.51,504.262 1635.52,441.239 1611.84,468.827 1695.5,392.331 1575.82,503.163 1487.47,572.568 1428.8,608.526 1351.61,663.633 1352.98,646.462 1298.04,689.136 1309.51,667.743 1354.88,614.443 1341.8,625.444 1337.9,636.791 1252.03,721.063 1214.25,743.357 1196.48,747.44 1148.49,794.222 1185.06,749.501 1149.74,782.746 1029.42,894.937 999.037,910.429 998.745,900.521 1028.08,858.074 1033.65,853.362 1149.84,757.56 1121.18,793.388 1133.61,783.878 1101.72,819.852 1075.7,845.878 1113.05,804.073 1140.47,780.876 1181.21,739.055 1198.71,726.155 1163.12,763.68 1262.48,688.036 1277.01,682.001 1228.55,728.684 1175.84,775.761 1205.84,737.885 1121.95,804.499 1194.05,732.872 1099.6,833.299 1057.52,862.932 1041.54,878.782 962.553,947.358 1039.36,852.263 1034.44,864.123 1006.85,890.207 964.346,937.559 939.472,950.072 954.731,924.882 964.569,925.045 936.858,945.253 950.356,927.065 930.885,954.765 917.588,966.104 984.52,883.735 1070.76,814.21 1179.51,724.645 1265.16,664.468 1295.28,656.462 1281.26,683.491 1308.95,671.504 1238.94,731.499 1234.06,733.621 1339.15,645.527 1374.19,633.213 1399.49,608.668 1245.61,743.403 1210.71,760.922 1229.29,731.143 1100.68,838.503 1101.59,823.171 1098.37,807.433 1068.13,834.18 1041.61,871.508 1009.7,895.503 987.88,915.295 946.189,948.244 983.477,905.87 1044.05,843.178 1052.04,843.057 1013.3,881.765 1094.41,799.116 1072.77,835.735 1138.84,774.465 1093.16,825.82 1082.27,831.832 1095.87,812.763 978.729,906.432 958.528,934.687 953.998,935.044 1003.69,889.83 984.649,905.097 1007.16,880.153 975.074,916.959 996.219,904.72 958.471,931.377 1010.18,871.931 1017.65,874.562 1096.84,791.04 1111.13,815.326 1062.96,849.865 973.737,938.972 1046.4,848.178 938.053,949.284 897.242,998.246 971.103,906.563 978.412,892.242 1029.16,853.74 1039.34,852.029 1023.9,849.474 1026.69,847.382 1010.91,875.34 1010.7,878.652 993.96,883.192 1043.72,851.674 962.568,921.708 1009.75,880.965 896.297,972.555 817.145,1055.67 861.111,1012.52 907.366,952.794 1016.58,861.241 971.395,917.25 944.19,942.543 960.813,915.481 924.854,954.293 931.142,948.435 1024.36,868.596 983.918,910.148 993.023,891.883 898.66,971.597 924.053,953.708 981.052,886.111 1024.08,870.325 960.949,926.193 977.39,910.073 957.721,925.416 1007.84,880.846 1071.76,824.746 1158.99,758.033 1229.44,704.309 1128.99,802.249 1176.4,749.88 1209.76,740.937 1295.99,663.26 1217.42,735.065 1243.72,709.854 1220.7,723.478 1182.41,760.383 1194.19,753.909 1175.59,766.777 1156.67,775.537 1181.68,750.154 1108.39,815.912 1140.81,783.321 1094.75,803.346 1068.4,828.228 1158.82,751.258 1167.78,750.486 1179.01,756.778 1156.27,774.346 1091.61,827.077 1021.25,887.015 959.061,947.062 1013.61,880.298 1058.2,838.156 1094.91,808.063 1220.52,694.454 1152.94,775.639 1110.32,809.826 1135.97,792.304 1177.63,749.709 1080.25,845.71 969.533,936.404 972.931,922.113 974.629,914.221 908.997,981.195 920.716,967.753 956.218,935.84 1028.42,883.494 1042.07,862.969 1019.21,882.643 988.39,909.204 922.098,957.853 1031.23,841.663 1109.05,782.676 1081.97,817.736 1063.34,841.789 1057.4,850.007 1007.15,902.439 1094.58,803.707 1060.69,842.83 1081.37,816.729 1078.53,805.92 1048.27,842.901 1070.48,826.264 1065.96,826.154 1180.03,754.52 1122.21,812.36 1100.07,826.867 1107.07,816.096 1081.29,835.549 1047.79,867.206 1024.56,882.593 1024.97,878.418 1046.06,856.77 1007.93,884.989 946.872,950.171 974.464,910.463 909.195,977.876 972.693,916.355 1014.5,868.915 1020.08,879.8 1023.03,877.585 991.894,908.021 931.679,965.956 946.213,936.175 943.507,933.139 898.401,975.929 907.226,965.025 892.986,982.076 861.344,1015.98 808.139,1063.55 815.53,1062.12 913.241,955.821 1007.32,876.096 966.377,920.219 992.515,893.636 918.041,963.227 955.642,927.917 990.397,900.603 1025.73,869.636 923.461,949.718 913.175,955.285 972.19,909.6 1078.11,815.186 1125.15,791.355 1287.68,641.733 1265.47,687.38 1296.49,670.651 1204.1,747.913 1263.4,689.113 1300.36,663.283 1233.21,739.979 1247.15,722.047 1199.84,746.503 1204.9,744.965 1148.68,779.438 1006.86,914.205 918.325,987.972 939.116,942.48 894.314,992.479 803.066,1091.54 774.277,1109.14 771.613,1105.32 811.475,1055.18 805.379,1066.25 805.331,1061.67 881.281,973.09 848.6,1022.41 795.072,1082.75 827.696,1044.78 834.234,1030.18 818.621,1051.06 749.768,1134.45 736.144,1145.48 751.227,1119.14 825.617,1041.63 918.361,946.092 904.421,962.127 916.879,961.107 904.184,972.249 972.829,898.636 1055.64,823.994 1004.97,889.638 1003.88,888.006 1054.52,853.604 974.062,928.832 953.443,938.339 1056.86,828.766 1096.21,808.477 1078.69,838.426 1129.07,785.934 1183.66,724.405 1111.51,810.838 1102.29,826.453 994.982,910.212 965.557,938.432 948.482,951.108 922.66,967.969 962.106,913.606 994.904,889.549 1018.77,866.054 1043.66,844.735 984.1,908.868 1043.62,836.28 1001.24,896.683 1066.69,828.011 1189.17,719.98 1220.82,703.284 1229.51,706.765 1205.65,742.076 1199.94,743.572 1249.11,693.156 1295.79,665.664 1399.75,578.662 1387.78,596.911 1445.71,550.238 1230.06,745.488 1173.31,778.095 1123.33,812.565 1124.97,795.635 1110.4,805.109 1103.3,816.477 1148.6,766.598 1025.04,887.356 972.549,925.503 1005.58,898.466 941.508,952.046 968.578,913.293 951.572,940.27 941.91,938.098 922.061,957.681 1032.38,840.609 1074.69,815.162 1063.6,835.73 1105.23,803.883 1189.14,728.391 1101.12,814.299 1148.8,775.35 1119.52,796.776 1067.32,839.091 1104.05,814.58 1169.54,743.634 1211.04,716.007 1160.58,761.025 1291.52,651.305 1192.35,758.178 1154.41,780.317 1141.19,789.975 1173.17,756.108 1210.08,714.847 1237.33,699.522 1278.76,674.034 1179.36,774.979 1075.13,864.845 "/>
<path clip-path="url(#clip300)" d="M186.863 198.898 L550.897 198.898 L550.897 95.2176 L186.863 95.2176  Z" fill="#ffffff" fill-rule="evenodd" fill-opacity="1"/>
<polyline clip-path="url(#clip300)" style="stroke:#000000; stroke-linecap:round; stroke-linejoin:round; stroke-width:4; stroke-opacity:1; fill:none" points="186.863,198.898 550.897,198.898 550.897,95.2176 186.863,95.2176 186.863,198.898 "/>
<polyline clip-path="url(#clip300)" style="stroke:#009af9; stroke-linecap:round; stroke-linejoin:round; stroke-width:4; stroke-opacity:1; fill:none" points="211.758,147.058 361.13,147.058 "/>
<path clip-path="url(#clip300)" d="M396.651 128.366 Q393.549 133.69 392.044 138.898 Q390.54 144.106 390.54 149.453 Q390.54 154.801 392.044 160.055 Q393.572 165.287 396.651 170.588 L392.947 170.588 Q389.475 165.148 387.739 159.893 Q386.026 154.639 386.026 149.453 Q386.026 144.291 387.739 139.06 Q389.452 133.828 392.947 128.366 L396.651 128.366 Z" fill="#000000" fill-rule="nonzero" fill-opacity="1" /><path clip-path="url(#clip300)" d="M403.063 138.412 L423.294 138.412 L423.294 142.301 L407.276 160.935 L423.294 160.935 L423.294 164.338 L402.484 164.338 L402.484 160.449 L418.502 141.815 L403.063 141.815 L403.063 138.412 Z" fill="#000000" fill-rule="nonzero" fill-opacity="1" /><path clip-path="url(#clip300)" d="M430.887 158.458 L435.771 158.458 L435.771 162.439 L431.975 169.847 L428.988 169.847 L430.887 162.439 L430.887 158.458 Z" fill="#000000" fill-rule="nonzero" fill-opacity="1" /><path clip-path="url(#clip300)" d="M455.655 166.745 Q453.849 171.375 452.136 172.787 Q450.423 174.199 447.553 174.199 L444.15 174.199 L444.15 170.634 L446.65 170.634 Q448.41 170.634 449.382 169.8 Q450.354 168.967 451.535 165.865 L452.298 163.921 L441.812 138.412 L446.326 138.412 L454.428 158.689 L462.53 138.412 L467.044 138.412 L455.655 166.745 Z" fill="#000000" fill-rule="nonzero" fill-opacity="1" /><path clip-path="url(#clip300)" d="M474.011 158.458 L478.896 158.458 L478.896 162.439 L475.099 169.847 L472.113 169.847 L474.011 162.439 L474.011 158.458 Z" fill="#000000" fill-rule="nonzero" fill-opacity="1" /><path clip-path="url(#clip300)" d="M509.544 138.412 L500.169 151.027 L510.03 164.338 L505.007 164.338 L497.46 154.152 L489.914 164.338 L484.891 164.338 L494.96 150.773 L485.747 138.412 L490.77 138.412 L497.645 147.648 L504.52 138.412 L509.544 138.412 Z" fill="#000000" fill-rule="nonzero" fill-opacity="1" /><path clip-path="url(#clip300)" d="M515.377 128.366 L519.081 128.366 Q522.553 133.828 524.266 139.06 Q526.002 144.291 526.002 149.453 Q526.002 154.639 524.266 159.893 Q522.553 165.148 519.081 170.588 L515.377 170.588 Q518.456 165.287 519.96 160.055 Q521.488 154.801 521.488 149.453 Q521.488 144.106 519.96 138.898 Q518.456 133.69 515.377 128.366 Z" fill="#000000" fill-rule="nonzero" fill-opacity="1" /></svg>
