<?xml version="1.0" encoding="utf-8"?>
<svg xmlns="http://www.w3.org/2000/svg" xmlns:xlink="http://www.w3.org/1999/xlink" width="600" height="400" viewBox="0 0 2400 1600">
<defs>
  <clipPath id="clip120">
    <rect x="0" y="0" width="2400" height="1600"/>
  </clipPath>
</defs>
<path clip-path="url(#clip120)" d="M0 1600 L2400 1600 L2400 0 L0 0  Z" fill="#ffffff" fill-rule="evenodd" fill-opacity="1"/>
<defs>
  <clipPath id="clip121">
    <rect x="480" y="0" width="1681" height="1600"/>
  </clipPath>
</defs>
<path clip-path="url(#clip120)" d="M147.478 1423.18 L2352.76 1423.18 L2352.76 47.2441 L147.478 47.2441  Z" fill="#ffffff" fill-rule="evenodd" fill-opacity="1"/>
<defs>
  <clipPath id="clip122">
    <rect x="147" y="47" width="2206" height="1377"/>
  </clipPath>
</defs>
<polyline clip-path="url(#clip122)" style="stroke:#000000; stroke-linecap:round; stroke-linejoin:round; stroke-width:2; stroke-opacity:0.1; fill:none" points="147.478,1423.18 147.478,47.2441 "/>
<polyline clip-path="url(#clip122)" style="stroke:#000000; stroke-linecap:round; stroke-linejoin:round; stroke-width:2; stroke-opacity:0.1; fill:none" points="588.534,1423.18 588.534,47.2441 "/>
<polyline clip-path="url(#clip122)" style="stroke:#000000; stroke-linecap:round; stroke-linejoin:round; stroke-width:2; stroke-opacity:0.1; fill:none" points="1029.59,1423.18 1029.59,47.2441 "/>
<polyline clip-path="url(#clip122)" style="stroke:#000000; stroke-linecap:round; stroke-linejoin:round; stroke-width:2; stroke-opacity:0.1; fill:none" points="1470.64,1423.18 1470.64,47.2441 "/>
<polyline clip-path="url(#clip122)" style="stroke:#000000; stroke-linecap:round; stroke-linejoin:round; stroke-width:2; stroke-opacity:0.1; fill:none" points="1911.7,1423.18 1911.7,47.2441 "/>
<polyline clip-path="url(#clip122)" style="stroke:#000000; stroke-linecap:round; stroke-linejoin:round; stroke-width:2; stroke-opacity:0.1; fill:none" points="2352.76,1423.18 2352.76,47.2441 "/>
<polyline clip-path="url(#clip120)" style="stroke:#000000; stroke-linecap:round; stroke-linejoin:round; stroke-width:4; stroke-opacity:1; fill:none" points="147.478,1423.18 2352.76,1423.18 "/>
<polyline clip-path="url(#clip120)" style="stroke:#000000; stroke-linecap:round; stroke-linejoin:round; stroke-width:4; stroke-opacity:1; fill:none" points="147.478,1423.18 147.478,1404.28 "/>
<polyline clip-path="url(#clip120)" style="stroke:#000000; stroke-linecap:round; stroke-linejoin:round; stroke-width:4; stroke-opacity:1; fill:none" points="588.534,1423.18 588.534,1404.28 "/>
<polyline clip-path="url(#clip120)" style="stroke:#000000; stroke-linecap:round; stroke-linejoin:round; stroke-width:4; stroke-opacity:1; fill:none" points="1029.59,1423.18 1029.59,1404.28 "/>
<polyline clip-path="url(#clip120)" style="stroke:#000000; stroke-linecap:round; stroke-linejoin:round; stroke-width:4; stroke-opacity:1; fill:none" points="1470.64,1423.18 1470.64,1404.28 "/>
<polyline clip-path="url(#clip120)" style="stroke:#000000; stroke-linecap:round; stroke-linejoin:round; stroke-width:4; stroke-opacity:1; fill:none" points="1911.7,1423.18 1911.7,1404.28 "/>
<polyline clip-path="url(#clip120)" style="stroke:#000000; stroke-linecap:round; stroke-linejoin:round; stroke-width:4; stroke-opacity:1; fill:none" points="2352.76,1423.18 2352.76,1404.28 "/>
<path clip-path="url(#clip120)" d="M147.478 1454.1 Q143.867 1454.1 142.038 1457.66 Q140.233 1461.2 140.233 1468.33 Q140.233 1475.44 142.038 1479.01 Q143.867 1482.55 147.478 1482.55 Q151.112 1482.55 152.918 1479.01 Q154.746 1475.44 154.746 1468.33 Q154.746 1461.2 152.918 1457.66 Q151.112 1454.1 147.478 1454.1 M147.478 1450.39 Q153.288 1450.39 156.344 1455 Q159.422 1459.58 159.422 1468.33 Q159.422 1477.06 156.344 1481.67 Q153.288 1486.25 147.478 1486.25 Q141.668 1486.25 138.589 1481.67 Q135.534 1477.06 135.534 1468.33 Q135.534 1459.58 138.589 1455 Q141.668 1450.39 147.478 1450.39 Z" fill="#000000" fill-rule="nonzero" fill-opacity="1" /><path clip-path="url(#clip120)" d="M583.186 1481.64 L599.506 1481.64 L599.506 1485.58 L577.561 1485.58 L577.561 1481.64 Q580.223 1478.89 584.807 1474.26 Q589.413 1469.61 590.594 1468.27 Q592.839 1465.74 593.719 1464.01 Q594.621 1462.25 594.621 1460.56 Q594.621 1457.8 592.677 1456.07 Q590.756 1454.33 587.654 1454.33 Q585.455 1454.33 583.001 1455.09 Q580.571 1455.86 577.793 1457.41 L577.793 1452.69 Q580.617 1451.55 583.071 1450.97 Q585.524 1450.39 587.561 1450.39 Q592.932 1450.39 596.126 1453.08 Q599.32 1455.77 599.32 1460.26 Q599.32 1462.39 598.51 1464.31 Q597.723 1466.2 595.617 1468.8 Q595.038 1469.47 591.936 1472.69 Q588.834 1475.88 583.186 1481.64 Z" fill="#000000" fill-rule="nonzero" fill-opacity="1" /><path clip-path="url(#clip120)" d="M1032.6 1455.09 L1020.79 1473.54 L1032.6 1473.54 L1032.6 1455.09 M1031.37 1451.02 L1037.25 1451.02 L1037.25 1473.54 L1042.18 1473.54 L1042.18 1477.43 L1037.25 1477.43 L1037.25 1485.58 L1032.6 1485.58 L1032.6 1477.43 L1017 1477.43 L1017 1472.92 L1031.37 1451.02 Z" fill="#000000" fill-rule="nonzero" fill-opacity="1" /><path clip-path="url(#clip120)" d="M1471.05 1466.44 Q1467.9 1466.44 1466.05 1468.59 Q1464.22 1470.74 1464.22 1474.49 Q1464.22 1478.22 1466.05 1480.39 Q1467.9 1482.55 1471.05 1482.55 Q1474.2 1482.55 1476.03 1480.39 Q1477.88 1478.22 1477.88 1474.49 Q1477.88 1470.74 1476.03 1468.59 Q1474.2 1466.44 1471.05 1466.44 M1480.33 1451.78 L1480.33 1456.04 Q1478.57 1455.21 1476.77 1454.77 Q1474.98 1454.33 1473.23 1454.33 Q1468.6 1454.33 1466.14 1457.45 Q1463.71 1460.58 1463.36 1466.9 Q1464.73 1464.89 1466.79 1463.82 Q1468.85 1462.73 1471.33 1462.73 Q1476.54 1462.73 1479.55 1465.9 Q1482.58 1469.05 1482.58 1474.49 Q1482.58 1479.82 1479.43 1483.03 Q1476.28 1486.25 1471.05 1486.25 Q1465.05 1486.25 1461.88 1481.67 Q1458.71 1477.06 1458.71 1468.33 Q1458.71 1460.14 1462.6 1455.28 Q1466.49 1450.39 1473.04 1450.39 Q1474.8 1450.39 1476.58 1450.74 Q1478.39 1451.09 1480.33 1451.78 Z" fill="#000000" fill-rule="nonzero" fill-opacity="1" /><path clip-path="url(#clip120)" d="M1911.7 1469.17 Q1908.37 1469.17 1906.45 1470.95 Q1904.55 1472.73 1904.55 1475.86 Q1904.55 1478.98 1906.45 1480.77 Q1908.37 1482.55 1911.7 1482.55 Q1915.03 1482.55 1916.95 1480.77 Q1918.88 1478.96 1918.88 1475.86 Q1918.88 1472.73 1916.95 1470.95 Q1915.06 1469.17 1911.7 1469.17 M1907.02 1467.18 Q1904.02 1466.44 1902.33 1464.38 Q1900.66 1462.32 1900.66 1459.35 Q1900.66 1455.21 1903.6 1452.8 Q1906.56 1450.39 1911.7 1450.39 Q1916.86 1450.39 1919.8 1452.8 Q1922.74 1455.21 1922.74 1459.35 Q1922.74 1462.32 1921.05 1464.38 Q1919.39 1466.44 1916.4 1467.18 Q1919.78 1467.96 1921.65 1470.26 Q1923.55 1472.55 1923.55 1475.86 Q1923.55 1480.88 1920.47 1483.57 Q1917.42 1486.25 1911.7 1486.25 Q1905.98 1486.25 1902.9 1483.57 Q1899.85 1480.88 1899.85 1475.86 Q1899.85 1472.55 1901.75 1470.26 Q1903.64 1467.96 1907.02 1467.18 M1905.31 1459.79 Q1905.31 1462.48 1906.98 1463.98 Q1908.67 1465.49 1911.7 1465.49 Q1914.71 1465.49 1916.4 1463.98 Q1918.11 1462.48 1918.11 1459.79 Q1918.11 1457.11 1916.4 1455.6 Q1914.71 1454.1 1911.7 1454.1 Q1908.67 1454.1 1906.98 1455.6 Q1905.31 1457.11 1905.31 1459.79 Z" fill="#000000" fill-rule="nonzero" fill-opacity="1" /><path clip-path="url(#clip120)" d="M2327.44 1481.64 L2335.08 1481.64 L2335.08 1455.28 L2326.77 1456.95 L2326.77 1452.69 L2335.04 1451.02 L2339.71 1451.02 L2339.71 1481.64 L2347.35 1481.64 L2347.35 1485.58 L2327.44 1485.58 L2327.44 1481.64 Z" fill="#000000" fill-rule="nonzero" fill-opacity="1" /><path clip-path="url(#clip120)" d="M2366.8 1454.1 Q2363.18 1454.1 2361.36 1457.66 Q2359.55 1461.2 2359.55 1468.33 Q2359.55 1475.44 2361.36 1479.01 Q2363.18 1482.55 2366.8 1482.55 Q2370.43 1482.55 2372.23 1479.01 Q2374.06 1475.44 2374.06 1468.33 Q2374.06 1461.2 2372.23 1457.66 Q2370.43 1454.1 2366.8 1454.1 M2366.8 1450.39 Q2372.61 1450.39 2375.66 1455 Q2378.74 1459.58 2378.74 1468.33 Q2378.74 1477.06 2375.66 1481.67 Q2372.61 1486.25 2366.8 1486.25 Q2360.99 1486.25 2357.91 1481.67 Q2354.85 1477.06 2354.85 1468.33 Q2354.85 1459.58 2357.91 1455 Q2360.99 1450.39 2366.8 1450.39 Z" fill="#000000" fill-rule="nonzero" fill-opacity="1" /><path clip-path="url(#clip120)" d="M1249.18 1522.27 L1249.18 1532.4 L1261.24 1532.4 L1261.24 1536.95 L1249.18 1536.95 L1249.18 1556.3 Q1249.18 1560.66 1250.36 1561.9 Q1251.57 1563.14 1255.23 1563.14 L1261.24 1563.14 L1261.24 1568.04 L1255.23 1568.04 Q1248.45 1568.04 1245.87 1565.53 Q1243.29 1562.98 1243.29 1556.3 L1243.29 1536.95 L1238.99 1536.95 L1238.99 1532.4 L1243.29 1532.4 L1243.29 1522.27 L1249.18 1522.27 Z" fill="#000000" fill-rule="nonzero" fill-opacity="1" /><polyline clip-path="url(#clip122)" style="stroke:#000000; stroke-linecap:round; stroke-linejoin:round; stroke-width:2; stroke-opacity:0.1; fill:none" points="147.478,1300.6 2352.76,1300.6 "/>
<polyline clip-path="url(#clip122)" style="stroke:#000000; stroke-linecap:round; stroke-linejoin:round; stroke-width:2; stroke-opacity:0.1; fill:none" points="147.478,951.368 2352.76,951.368 "/>
<polyline clip-path="url(#clip122)" style="stroke:#000000; stroke-linecap:round; stroke-linejoin:round; stroke-width:2; stroke-opacity:0.1; fill:none" points="147.478,602.138 2352.76,602.138 "/>
<polyline clip-path="url(#clip122)" style="stroke:#000000; stroke-linecap:round; stroke-linejoin:round; stroke-width:2; stroke-opacity:0.1; fill:none" points="147.478,252.909 2352.76,252.909 "/>
<polyline clip-path="url(#clip120)" style="stroke:#000000; stroke-linecap:round; stroke-linejoin:round; stroke-width:4; stroke-opacity:1; fill:none" points="147.478,1423.18 147.478,47.2441 "/>
<polyline clip-path="url(#clip120)" style="stroke:#000000; stroke-linecap:round; stroke-linejoin:round; stroke-width:4; stroke-opacity:1; fill:none" points="147.478,1300.6 166.376,1300.6 "/>
<polyline clip-path="url(#clip120)" style="stroke:#000000; stroke-linecap:round; stroke-linejoin:round; stroke-width:4; stroke-opacity:1; fill:none" points="147.478,951.368 166.376,951.368 "/>
<polyline clip-path="url(#clip120)" style="stroke:#000000; stroke-linecap:round; stroke-linejoin:round; stroke-width:4; stroke-opacity:1; fill:none" points="147.478,602.138 166.376,602.138 "/>
<polyline clip-path="url(#clip120)" style="stroke:#000000; stroke-linecap:round; stroke-linejoin:round; stroke-width:4; stroke-opacity:1; fill:none" points="147.478,252.909 166.376,252.909 "/>
<path clip-path="url(#clip120)" d="M50.9921 1301.05 L80.6679 1301.05 L80.6679 1304.98 L50.9921 1304.98 L50.9921 1301.05 Z" fill="#000000" fill-rule="nonzero" fill-opacity="1" /><path clip-path="url(#clip120)" d="M91.5706 1313.94 L99.2095 1313.94 L99.2095 1287.58 L90.8993 1289.24 L90.8993 1284.98 L99.1632 1283.32 L103.839 1283.32 L103.839 1313.94 L111.478 1313.94 L111.478 1317.88 L91.5706 1317.88 L91.5706 1313.94 Z" fill="#000000" fill-rule="nonzero" fill-opacity="1" /><path clip-path="url(#clip120)" d="M99.5335 937.166 Q95.9224 937.166 94.0937 940.731 Q92.2882 944.273 92.2882 951.402 Q92.2882 958.509 94.0937 962.074 Q95.9224 965.615 99.5335 965.615 Q103.168 965.615 104.973 962.074 Q106.802 958.509 106.802 951.402 Q106.802 944.273 104.973 940.731 Q103.168 937.166 99.5335 937.166 M99.5335 933.463 Q105.344 933.463 108.399 938.069 Q111.478 942.652 111.478 951.402 Q111.478 960.129 108.399 964.736 Q105.344 969.319 99.5335 969.319 Q93.7234 969.319 90.6447 964.736 Q87.5892 960.129 87.5892 951.402 Q87.5892 942.652 90.6447 938.069 Q93.7234 933.463 99.5335 933.463 Z" fill="#000000" fill-rule="nonzero" fill-opacity="1" /><path clip-path="url(#clip120)" d="M91.5706 615.483 L99.2095 615.483 L99.2095 589.118 L90.8993 590.784 L90.8993 586.525 L99.1632 584.858 L103.839 584.858 L103.839 615.483 L111.478 615.483 L111.478 619.418 L91.5706 619.418 L91.5706 615.483 Z" fill="#000000" fill-rule="nonzero" fill-opacity="1" /><path clip-path="url(#clip120)" d="M95.1586 266.254 L111.478 266.254 L111.478 270.189 L89.5336 270.189 L89.5336 266.254 Q92.1956 263.499 96.7789 258.87 Q101.385 254.217 102.566 252.875 Q104.811 250.351 105.691 248.615 Q106.594 246.856 106.594 245.166 Q106.594 242.412 104.649 240.676 Q102.728 238.939 99.6261 238.939 Q97.4271 238.939 94.9734 239.703 Q92.5428 240.467 89.7651 242.018 L89.7651 237.296 Q92.5891 236.162 95.0428 235.583 Q97.4965 235.004 99.5335 235.004 Q104.904 235.004 108.098 237.689 Q111.293 240.375 111.293 244.865 Q111.293 246.995 110.483 248.916 Q109.696 250.814 107.589 253.407 Q107.01 254.078 103.909 257.296 Q100.807 260.49 95.1586 266.254 Z" fill="#000000" fill-rule="nonzero" fill-opacity="1" /><polyline clip-path="url(#clip122)" style="stroke:#009af9; stroke-linecap:round; stroke-linejoin:round; stroke-width:4; stroke-opacity:1; fill:none" points="147.478,951.368 149.685,948.238 151.893,945.15 154.1,942.103 156.308,939.096 158.515,936.129 160.723,933.202 162.93,930.313 165.138,927.463 167.345,924.65 169.553,921.875 171.76,919.136 173.968,916.434 176.175,913.768 178.383,911.137 180.59,908.541 182.798,905.979 185.005,903.451 187.213,900.957 189.42,898.496 191.628,896.067 193.835,893.671 196.043,891.306 198.25,888.973 200.458,886.67 202.665,884.399 204.873,882.157 207.08,879.945 209.288,877.762 211.495,875.609 213.702,873.484 215.91,871.387 218.117,869.317 220.325,867.276 222.532,865.261 224.74,863.273 226.947,861.312 229.155,859.376 231.362,857.466 233.57,855.581 235.777,853.722 237.985,851.887 240.192,850.076 242.4,848.29 244.607,846.527 246.815,844.787 249.022,843.071 251.23,841.377 253.437,839.706 255.645,838.056 257.852,836.429 260.06,834.823 262.267,833.239 264.475,831.676 266.682,830.133 268.89,828.611 271.097,827.109 273.305,825.627 275.512,824.164 277.72,822.721 279.927,821.297 282.135,819.892 284.342,818.506 286.549,817.137 288.757,815.788 290.964,814.455 293.172,813.141 295.379,811.844 297.587,810.564 299.794,809.302 302.002,808.056 304.209,806.826 306.417,805.613 308.624,804.416 310.832,803.235 313.039,802.069 315.247,800.919 317.454,799.784 319.662,798.664 321.869,797.559 324.077,796.469 326.284,795.393 328.492,794.331 330.699,793.284 332.907,792.25 335.114,791.23 337.322,790.224 339.529,789.231 341.737,788.251 343.944,787.284 346.152,786.33 348.359,785.388 350.567,784.459 352.774,783.542 354.982,782.638 357.189,781.745 359.397,780.865 361.604,779.996 363.811,779.138 366.019,778.292 368.226,777.493 370.434,778.213 372.641,780.943 374.849,785.319 377.056,791.011 379.264,797.717 381.471,805.166 383.679,813.117 385.886,821.36 388.094,829.714 390.301,838.03 392.509,846.188 394.716,854.098 396.924,861.701 399.131,868.97 401.339,875.904 403.546,882.535 405.754,888.927 407.961,895.171 410.169,901.389 412.376,907.719 414.584,914.036 416.791,920.27 418.999,926.421 421.206,932.491 423.414,938.48 425.621,944.39 427.829,950.222 430.036,955.976 432.244,961.654 434.451,967.257 436.659,972.785 438.866,978.24 441.073,983.623 443.281,988.934 445.488,994.176 447.696,999.347 449.903,1004.45 452.111,1009.49 454.318,1014.45 456.526,1019.36 458.733,1024.19 460.941,1028.97 463.148,1033.68 465.356,1038.33 467.563,1042.91 469.771,1047.44 471.978,1051.9 474.186,1056.31 476.393,1060.66 478.601,1064.95 480.808,1069.18 483.016,1073.36 485.223,1077.48 487.431,1081.54 489.638,1085.56 491.846,1089.52 494.053,1093.42 496.261,1097.28 498.468,1101.08 500.676,1104.84 502.883,1108.54 505.091,1112.2 507.298,1115.81 509.506,1119.36 511.713,1122.88 513.921,1126.34 516.128,1129.76 518.335,1133.13 520.543,1136.46 522.75,1139.75 524.958,1142.99 527.165,1146.19 529.373,1149.34 531.58,1152.46 533.788,1155.53 535.995,1158.56 538.203,1161.56 540.41,1164.51 542.618,1167.42 544.825,1170.3 547.033,1173.13 549.24,1175.93 551.448,1178.69 553.655,1181.42 555.863,1184.11 558.07,1186.76 560.278,1189.38 562.485,1191.96 564.693,1194.51 566.9,1197.03 569.108,1199.51 571.315,1201.96 573.523,1204.37 575.73,1206.76 577.938,1209.11 580.145,1211.43 582.353,1213.72 584.56,1215.99 586.768,1217.74 588.975,1218.21 591.182,1217.54 593.39,1215.86 595.597,1213.3 597.805,1209.99 600.012,1206.04 602.22,1201.55 604.427,1196.64 606.635,1191.39 608.842,1185.9 611.05,1180.23 613.257,1174.46 615.465,1168.65 617.672,1162.87 619.88,1157.15 622.087,1151.54 624.295,1146.08 626.502,1140.79 628.71,1135.68 630.917,1130.78 633.125,1126.08 635.332,1121.58 637.54,1117.28 639.747,1113.14 641.955,1109.15 644.162,1105.28 646.37,1101.47 648.577,1097.69 650.785,1093.88 652.992,1089.98 655.2,1086.1 657.407,1082.26 659.615,1078.47 661.822,1074.74 664.03,1071.05 666.237,1067.41 668.444,1063.82 670.652,1060.28 672.859,1056.79 675.067,1053.34 677.274,1049.94 679.482,1046.58 681.689,1043.27 683.897,1040 686.104,1036.77 688.312,1033.59 690.519,1030.45 692.727,1027.35 694.934,1024.29 697.142,1021.27 699.349,1018.3 701.557,1015.36 703.764,1012.46 705.972,1009.6 708.179,1006.77 710.387,1003.99 712.594,1001.24 714.802,998.528 717.009,995.852 719.217,993.211 721.424,990.606 723.632,988.035 725.839,985.498 728.047,982.995 730.254,980.525 732.462,978.088 734.669,975.683 736.877,973.31 739.084,970.969 741.292,968.659 743.499,966.379 745.706,964.13 747.914,961.91 750.121,959.72 752.329,957.559 754.536,955.427 756.744,953.323 758.951,951.246 761.159,949.198 763.366,947.176 765.574,945.181 767.781,943.213 769.989,941.27 772.196,939.354 774.404,937.462 776.611,935.596 778.819,933.755 781.026,931.938 783.234,930.144 785.441,928.375 787.649,926.629 789.856,924.907 792.064,923.207 794.271,921.53 796.479,919.875 798.686,918.242 800.894,916.63 803.101,915.04 805.309,913.413 807.516,910.693 809.724,906.619 811.931,901.356 814.139,895.061 816.346,887.881 818.553,879.956 820.761,871.415 822.968,862.379 825.176,852.961 827.383,843.265 829.591,833.384 831.798,823.405 834.006,813.404 836.213,803.45 838.421,793.602 840.628,783.91 842.836,774.416 845.043,765.152 847.251,756.142 849.458,747.401 851.666,738.936 853.873,730.742 856.081,722.81 858.288,715.118 860.496,707.637 862.703,700.328 864.911,693.146 867.118,686.033 869.326,678.926 871.533,671.759 873.741,664.631 875.948,657.597 878.156,650.657 880.363,643.809 882.571,637.052 884.778,630.384 886.986,623.804 889.193,617.312 891.401,610.906 893.608,604.585 895.815,598.348 898.023,592.193 900.23,586.12 902.438,580.128 904.645,574.215 906.853,568.38 909.06,562.622 911.268,556.94 913.475,551.334 915.683,545.802 917.89,540.343 920.098,534.957 922.305,529.642 924.513,524.397 926.72,519.222 928.928,514.116 931.135,509.077 933.343,504.106 935.55,499.2 937.758,494.36 939.965,489.583 942.173,484.87 944.38,480.22 946.588,475.632 948.795,471.104 951.003,466.637 953.21,462.229 955.418,457.879 957.625,453.587 959.833,449.352 962.04,445.173 964.248,441.05 966.455,436.982 968.663,432.967 970.87,429.006 973.077,425.097 975.285,421.24 977.492,417.434 979.7,413.678 981.907,409.973 984.115,406.316 986.322,402.708 988.53,399.147 990.737,395.634 992.945,392.167 995.152,388.746 997.36,385.371 999.567,381.962 1001.77,378.445 1003.98,374.859 1006.19,371.243 1008.4,367.634 1010.6,364.063 1012.81,360.562 1015.02,357.158 1017.23,353.875 1019.43,350.736 1021.64,347.761 1023.85,344.965 1026.06,342.363 1028.26,339.965 1030.47,337.781 1032.68,335.815 1034.89,334.07 1037.09,332.547 1039.3,331.243 1041.51,330.151 1043.72,329.266 1045.92,328.574 1048.13,328.063 1050.34,327.716 1052.55,327.514 1054.75,327.435 1056.96,327.455 1059.17,327.546 1061.38,327.678 1063.58,327.817 1065.79,327.929 1068,327.975 1070.21,327.922 1072.41,327.844 1074.62,327.767 1076.83,327.691 1079.04,327.616 1081.24,327.542 1083.45,327.468 1085.66,327.396 1087.87,327.325 1090.07,327.255 1092.28,327.186 1094.49,327.117 1096.7,327.05 1098.9,326.983 1101.11,326.917 1103.32,326.853 1105.53,326.789 1107.73,326.726 1109.94,326.663 1112.15,326.602 1114.36,326.541 1116.56,326.481 1118.77,326.422 1120.98,326.364 1123.19,326.307 1125.39,326.25 1127.6,326.194 1129.81,326.139 1132.02,326.084 1134.22,326.03 1136.43,325.977 1138.64,325.925 1140.85,325.873 1143.05,325.822 1145.26,325.772 1147.47,325.722 1149.68,325.673 1151.88,325.625 1154.09,325.577 1156.3,325.53 1158.51,325.484 1160.71,325.438 1162.92,325.393 1165.13,325.348 1167.34,325.304 1169.54,325.261 1171.75,325.218 1173.96,325.176 1176.17,325.134 1178.37,325.093 1180.58,325.052 1182.79,325.012 1185,324.972 1187.2,324.933 1189.41,324.895 1191.62,324.857 1193.83,324.819 1196.03,324.783 1198.24,324.829 1200.45,325.006 1202.66,325.292 1204.86,325.664 1207.07,326.104 1209.28,326.59 1211.49,327.105 1213.69,327.632 1215.9,328.152 1218.11,328.652 1220.32,329.115 1222.52,329.528 1224.73,329.877 1226.94,330.152 1229.15,330.341 1231.35,330.434 1233.56,330.422 1235.77,330.295 1237.98,330.048 1240.18,329.674 1242.39,329.167 1244.6,328.523 1246.81,327.738 1249.01,326.809 1251.22,325.736 1253.43,324.516 1255.64,323.151 1257.84,321.641 1260.05,319.989 1262.26,318.198 1264.47,316.271 1266.67,314.213 1268.88,312.03 1271.09,309.729 1273.3,307.317 1275.5,304.804 1277.71,302.198 1279.92,299.511 1282.13,296.753 1284.33,293.937 1286.54,291.077 1288.75,288.186 1290.96,285.279 1293.16,282.373 1295.37,279.486 1297.58,276.633 1299.79,273.836 1301.99,271.113 1304.2,268.486 1306.41,265.976 1308.62,263.583 1310.82,261.231 1313.03,258.91 1315.24,256.62 1317.45,254.361 1319.65,252.131 1321.86,249.931 1324.07,247.76 1326.28,245.618 1328.48,243.504 1330.69,241.418 1332.9,239.36 1335.11,237.329 1337.31,235.326 1339.52,233.348 1341.73,231.397 1343.94,229.472 1346.14,227.572 1348.35,225.698 1350.56,223.848 1352.76,222.023 1354.97,220.222 1357.18,218.445 1359.39,216.691 1361.59,214.961 1363.8,213.253 1366.01,211.568 1368.22,209.905 1370.42,208.265 1372.63,206.646 1374.84,205.048 1377.05,203.472 1379.25,201.916 1381.46,200.381 1383.67,198.867 1385.88,197.373 1388.08,195.898 1390.29,194.443 1392.5,193.007 1394.71,191.591 1396.91,190.193 1399.12,188.814 1401.33,187.453 1403.54,186.111 1405.74,184.786 1407.95,183.479 1410.16,182.189 1412.37,180.916 1414.57,179.66 1416.78,178.421 1418.99,177.199 1421.2,175.992 1423.4,174.802 1425.61,173.627 1427.82,172.469 1430.03,171.325 1432.23,170.197 1434.44,169.083 1436.65,167.985 1438.86,166.901 1441.06,165.831 1443.27,164.775 1445.48,163.734 1447.69,162.706 1449.89,161.692 1452.1,160.691 1454.31,159.704 1456.52,158.729 1458.72,157.768 1460.93,156.819 1463.14,155.882 1465.35,154.959 1467.55,154.601 1469.76,155.239 1471.97,156.776 1474.18,159.121 1476.38,162.187 1478.59,165.892 1480.8,170.156 1483.01,174.903 1485.21,180.064 1487.42,185.57 1489.63,191.359 1491.84,197.372 1494.04,203.554 1496.25,209.853 1498.46,216.224 1500.67,222.622 1502.87,229.009 1505.08,235.35 1507.29,241.615 1509.5,247.775 1511.7,253.809 1513.91,259.698 1516.12,265.426 1518.33,270.983 1520.53,276.362 1522.74,281.56 1524.95,286.579 1527.16,291.423 1529.36,296.102 1531.57,300.629 1533.78,305.022 1535.99,309.302 1538.19,313.493 1540.4,317.626 1542.61,321.733 1544.82,325.853 1547.02,330.026 1549.23,334.204 1551.44,338.327 1553.65,342.396 1555.85,346.41 1558.06,350.371 1560.27,354.28 1562.48,358.137 1564.68,361.942 1566.89,365.698 1569.1,369.403 1571.31,373.059 1573.51,376.667 1575.72,380.227 1577.93,383.74 1580.14,387.206 1582.34,390.626 1584.55,394.001 1586.76,397.331 1588.97,400.617 1591.17,403.86 1593.38,407.059 1595.59,410.216 1597.8,413.331 1600,416.405 1602.21,419.438 1604.42,422.431 1606.63,425.384 1608.83,428.299 1611.04,431.174 1613.25,434.011 1615.46,436.811 1617.66,439.574 1619.87,442.3 1622.08,444.989 1624.29,447.644 1626.49,450.263 1628.7,452.847 1630.91,455.397 1633.12,457.913 1635.32,460.396 1637.53,462.846 1639.74,465.263 1641.95,467.648 1644.15,470.002 1646.36,472.325 1648.57,474.616 1650.78,476.878 1652.98,479.109 1655.19,481.311 1657.4,483.484 1659.61,485.627 1661.81,487.743 1664.02,489.83 1666.23,491.89 1668.44,493.922 1670.64,495.928 1672.85,497.906 1675.06,499.859 1677.27,501.786 1679.47,503.687 1681.68,505.563 1683.89,507.414 1686.1,509.24 1688.3,511.043 1690.51,512.821 1692.72,514.904 1694.93,517.902 1697.13,521.729 1699.34,526.28 1701.55,531.458 1703.76,537.173 1705.96,543.336 1708.17,549.868 1710.38,556.693 1712.59,563.741 1714.79,570.947 1717,578.253 1719.21,585.604 1721.42,592.953 1723.62,600.256 1725.83,607.478 1728.04,614.586 1730.25,621.554 1732.45,628.362 1734.66,634.993 1736.87,641.439 1739.07,647.695 1741.28,653.762 1743.49,659.647 1745.7,665.363 1747.9,670.926 1750.11,676.359 1752.32,681.692 1754.53,686.959 1756.73,692.198 1758.94,697.456 1761.15,702.725 1763.36,707.925 1765.56,713.057 1767.77,718.121 1769.98,723.118 1772.19,728.048 1774.39,732.913 1776.6,737.714 1778.81,742.451 1781.02,747.125 1783.22,751.737 1785.43,756.288 1787.64,760.779 1789.85,765.21 1792.05,769.582 1794.26,773.897 1796.47,778.154 1798.68,782.355 1800.88,786.5 1803.09,790.591 1805.3,794.627 1807.51,798.61 1809.71,802.54 1811.92,806.418 1814.13,810.245 1816.34,814.02 1818.54,817.746 1820.75,821.422 1822.96,825.05 1825.17,828.629 1827.37,832.161 1829.58,835.646 1831.79,839.084 1834,842.477 1836.2,845.825 1838.41,849.129 1840.62,852.388 1842.83,855.605 1845.03,858.778 1847.24,861.91 1849.45,865 1851.66,868.049 1853.86,871.058 1856.07,874.026 1858.28,876.956 1860.49,879.846 1862.69,882.698 1864.9,885.513 1867.11,888.29 1869.32,891.03 1871.52,893.734 1873.73,896.402 1875.94,899.035 1878.15,901.633 1880.35,904.197 1882.56,906.726 1884.77,909.209 1886.98,911.612 1889.18,913.958 1891.39,916.271 1893.6,918.57 1895.81,920.872 1898.01,923.191 1900.22,925.536 1902.43,927.913 1904.64,930.327 1906.84,932.778 1909.05,935.262 1911.26,937.773 1913.47,940.301 1915.67,942.833 1917.88,945.354 1920.09,947.842 1922.3,950.276 1924.5,952.664 1926.71,955.02 1928.92,957.345 1931.13,959.639 1933.33,961.903 1935.54,964.136 1937.75,966.34 1939.96,968.515 1942.16,970.661 1944.37,972.779 1946.58,974.868 1948.79,976.93 1950.99,978.964 1953.2,980.972 1955.41,982.953 1957.62,984.907 1959.82,986.836 1962.03,988.739 1964.24,990.617 1966.45,992.47 1968.65,994.299 1970.86,996.103 1973.07,997.883 1975.28,999.64 1977.48,1001.37 1979.69,1003.08 1981.9,1004.77 1984.11,1006.44 1986.31,1008.08 1988.52,1009.7 1990.73,1011.3 1992.94,1012.88 1995.14,1014.44 1997.35,1015.97 1999.56,1017.49 2001.77,1018.99 2003.97,1020.46 2006.18,1021.92 2008.39,1023.36 2010.6,1024.78 2012.8,1026.18 2015.01,1027.56 2017.22,1028.92 2019.43,1030.27 2021.63,1031.6 2023.84,1032.9 2026.05,1034.2 2028.26,1035.47 2030.46,1036.73 2032.67,1037.97 2034.88,1039.2 2037.09,1040.41 2039.29,1041.6 2041.5,1042.78 2043.71,1043.94 2045.92,1045.08 2048.12,1046.21 2050.33,1047.33 2052.54,1048.43 2054.75,1049.52 2056.95,1050.59 2059.16,1051.65 2061.37,1052.69 2063.58,1053.72 2065.78,1054.74 2067.99,1055.74 2070.2,1056.73 2072.41,1057.71 2074.61,1058.67 2076.82,1059.62 2079.03,1060.56 2081.24,1061.48 2083.44,1062.4 2085.65,1063.3 2087.86,1064.19 2090.07,1065.07 2092.27,1065.93 2094.48,1066.79 2096.69,1067.63 2098.9,1068.46 2101.1,1069.28 2103.31,1070.09 2105.52,1070.89 2107.73,1071.68 2109.93,1072.46 2112.14,1073.23 2114.35,1073.98 2116.55,1074.73 2118.76,1075.47 2120.97,1076.2 2123.18,1076.92 2125.38,1077.62 2127.59,1077.96 2129.8,1077.11 2132.01,1075.17 2134.21,1072.29 2136.42,1068.63 2138.63,1064.3 2140.84,1059.44 2143.04,1054.15 2145.25,1048.54 2147.46,1042.71 2149.67,1036.73 2151.87,1030.69 2154.08,1024.65 2156.29,1018.67 2158.5,1012.79 2160.7,1007.06 2162.91,1001.51 2165.12,996.14 2167.33,990.978 2169.53,986.02 2171.74,981.257 2173.95,976.673 2176.16,972.238 2178.36,967.918 2180.57,963.666 2182.78,959.427 2184.99,955.137 2187.19,950.811 2189.4,946.541 2191.61,942.329 2193.82,938.172 2196.02,934.07 2198.23,930.023 2200.44,926.03 2202.65,922.089 2204.85,918.201 2207.06,914.364 2209.27,910.578 2211.48,906.842 2213.68,903.156 2215.89,899.518 2218.1,895.929 2220.31,892.387 2222.51,888.893 2224.72,885.444 2226.93,882.042 2229.14,878.684 2231.34,875.371 2233.55,872.102 2235.76,868.876 2237.97,865.693 2240.17,862.552 2242.38,859.453 2244.59,856.395 2246.8,853.378 2249,850.4 2251.21,847.462 2253.42,844.563 2255.63,841.703 2257.83,838.88 2260.04,836.095 2262.25,833.347 2264.46,830.635 2266.66,827.959 2268.87,825.319 2271.08,822.714 2273.29,820.143 2275.49,817.606 2277.7,815.103 2279.91,812.633 2282.12,810.196 2284.32,807.791 2286.53,805.418 2288.74,803.076 2290.95,800.766 2293.15,798.486 2295.36,796.236 2297.57,794.016 2299.78,791.826 2301.98,789.664 2304.19,787.532 2306.4,785.427 2308.61,783.351 2310.81,781.301 2313.02,779.28 2315.23,777.285 2317.44,775.316 2319.64,773.374 2321.85,771.457 2324.06,769.566 2326.27,767.699 2328.47,765.858 2330.68,764.041 2332.89,762.248 2335.1,760.479 2337.3,758.733 2339.51,757.01 2341.72,755.311 2343.93,753.633 2346.13,751.978 2348.34,750.345 2350.55,748.734 2352.76,747.144 "/>
<polyline clip-path="url(#clip122)" style="stroke:#e26f46; stroke-linecap:round; stroke-linejoin:round; stroke-width:4; stroke-opacity:1; fill:none" points="147.478,715.318 149.685,715.318 151.893,715.318 154.1,715.318 156.308,715.318 158.515,715.318 160.723,715.318 162.93,715.318 165.138,715.318 167.345,715.318 169.553,715.318 171.76,715.318 173.968,715.318 176.175,715.318 178.383,715.318 180.59,715.318 182.798,715.318 185.005,715.318 187.213,715.318 189.42,715.318 191.628,715.318 193.835,715.318 196.043,715.318 198.25,715.318 200.458,715.318 202.665,715.318 204.873,715.318 207.08,715.318 209.288,715.318 211.495,715.318 213.702,715.318 215.91,715.318 218.117,715.318 220.325,715.318 222.532,715.318 224.74,715.318 226.947,715.318 229.155,715.318 231.362,715.318 233.57,715.318 235.777,715.318 237.985,715.318 240.192,715.318 242.4,715.318 244.607,715.318 246.815,715.318 249.022,715.318 251.23,715.318 253.437,715.318 255.645,715.318 257.852,715.318 260.06,715.318 262.267,715.318 264.475,715.318 266.682,715.318 268.89,715.318 271.097,715.318 273.305,715.318 275.512,715.318 277.72,715.318 279.927,715.318 282.135,715.318 284.342,715.318 286.549,715.318 288.757,715.318 290.964,715.318 293.172,715.318 295.379,715.318 297.587,715.318 299.794,715.318 302.002,715.318 304.209,715.318 306.417,715.318 308.624,715.318 310.832,715.318 313.039,715.318 315.247,715.318 317.454,715.318 319.662,715.318 321.869,715.318 324.077,715.318 326.284,715.318 328.492,715.318 330.699,715.318 332.907,715.318 335.114,715.318 337.322,715.318 339.529,715.318 341.737,715.318 343.944,715.318 346.152,715.318 348.359,715.318 350.567,715.318 352.774,715.318 354.982,715.318 357.189,715.318 359.397,715.318 361.604,715.318 363.811,715.318 366.019,715.318 368.226,1384.24 370.434,1384.24 372.641,1384.24 374.849,1384.24 377.056,1384.24 379.264,1384.24 381.471,1384.24 383.679,1384.24 385.886,1384.24 388.094,1384.24 390.301,1384.24 392.509,1384.24 394.716,1384.24 396.924,1384.24 399.131,1384.24 401.339,1384.24 403.546,1384.24 405.754,1384.24 407.961,1384.24 410.169,1384.24 412.376,1384.24 414.584,1384.24 416.791,1384.24 418.999,1384.24 421.206,1384.24 423.414,1384.24 425.621,1384.24 427.829,1384.24 430.036,1384.24 432.244,1384.24 434.451,1384.24 436.659,1384.24 438.866,1384.24 441.073,1384.24 443.281,1384.24 445.488,1384.24 447.696,1384.24 449.903,1384.24 452.111,1384.24 454.318,1384.24 456.526,1384.24 458.733,1384.24 460.941,1384.24 463.148,1384.24 465.356,1384.24 467.563,1384.24 469.771,1384.24 471.978,1384.24 474.186,1384.24 476.393,1384.24 478.601,1384.24 480.808,1384.24 483.016,1384.24 485.223,1384.24 487.431,1384.24 489.638,1384.24 491.846,1384.24 494.053,1384.24 496.261,1384.24 498.468,1384.24 500.676,1384.24 502.883,1384.24 505.091,1384.24 507.298,1384.24 509.506,1384.24 511.713,1384.24 513.921,1384.24 516.128,1384.24 518.335,1384.24 520.543,1384.24 522.75,1384.24 524.958,1384.24 527.165,1384.24 529.373,1384.24 531.58,1384.24 533.788,1384.24 535.995,1384.24 538.203,1384.24 540.41,1384.24 542.618,1384.24 544.825,1384.24 547.033,1384.24 549.24,1384.24 551.448,1384.24 553.655,1384.24 555.863,1384.24 558.07,1384.24 560.278,1384.24 562.485,1384.24 564.693,1384.24 566.9,1384.24 569.108,1384.24 571.315,1384.24 573.523,1384.24 575.73,1384.24 577.938,1384.24 580.145,1384.24 582.353,1384.24 584.56,1384.24 586.768,1384.24 588.975,796.698 591.182,796.698 593.39,796.698 595.597,796.698 597.805,796.698 600.012,796.698 602.22,796.698 604.427,796.698 606.635,796.698 608.842,796.698 611.05,796.698 613.257,796.698 615.465,796.698 617.672,796.698 619.88,796.698 622.087,796.698 624.295,796.698 626.502,796.698 628.71,796.698 630.917,796.698 633.125,796.698 635.332,796.698 637.54,796.698 639.747,796.698 641.955,796.698 644.162,796.698 646.37,796.698 648.577,796.698 650.785,796.698 652.992,796.698 655.2,796.698 657.407,796.698 659.615,796.698 661.822,796.698 664.03,796.698 666.237,796.698 668.444,796.698 670.652,796.698 672.859,796.698 675.067,796.698 677.274,796.698 679.482,796.698 681.689,796.698 683.897,796.698 686.104,796.698 688.312,796.698 690.519,796.698 692.727,796.698 694.934,796.698 697.142,796.698 699.349,796.698 701.557,796.698 703.764,796.698 705.972,796.698 708.179,796.698 710.387,796.698 712.594,796.698 714.802,796.698 717.009,796.698 719.217,796.698 721.424,796.698 723.632,796.698 725.839,796.698 728.047,796.698 730.254,796.698 732.462,796.698 734.669,796.698 736.877,796.698 739.084,796.698 741.292,796.698 743.499,796.698 745.706,796.698 747.914,796.698 750.121,796.698 752.329,796.698 754.536,796.698 756.744,796.698 758.951,796.698 761.159,796.698 763.366,796.698 765.574,796.698 767.781,796.698 769.989,796.698 772.196,796.698 774.404,796.698 776.611,796.698 778.819,796.698 781.026,796.698 783.234,796.698 785.441,796.698 787.649,796.698 789.856,796.698 792.064,796.698 794.271,796.698 796.479,796.698 798.686,796.698 800.894,796.698 803.101,796.698 805.309,796.698 807.516,796.698 809.724,134.127 811.931,134.127 814.139,134.127 816.346,134.127 818.553,134.127 820.761,134.127 822.968,134.127 825.176,134.127 827.383,134.127 829.591,134.127 831.798,134.127 834.006,134.127 836.213,134.127 838.421,134.127 840.628,134.127 842.836,134.127 845.043,134.127 847.251,134.127 849.458,134.127 851.666,134.127 853.873,134.127 856.081,134.127 858.288,134.127 860.496,134.127 862.703,134.127 864.911,134.127 867.118,134.127 869.326,134.127 871.533,134.127 873.741,134.127 875.948,134.127 878.156,134.127 880.363,134.127 882.571,134.127 884.778,134.127 886.986,134.127 889.193,134.127 891.401,134.127 893.608,134.127 895.815,134.127 898.023,134.127 900.23,134.127 902.438,134.127 904.645,134.127 906.853,134.127 909.06,134.127 911.268,134.127 913.475,134.127 915.683,134.127 917.89,134.127 920.098,134.127 922.305,134.127 924.513,134.127 926.72,134.127 928.928,134.127 931.135,134.127 933.343,134.127 935.55,134.127 937.758,134.127 939.965,134.127 942.173,134.127 944.38,134.127 946.588,134.127 948.795,134.127 951.003,134.127 953.21,134.127 955.418,134.127 957.625,134.127 959.833,134.127 962.04,134.127 964.248,134.127 966.455,134.127 968.663,134.127 970.87,134.127 973.077,134.127 975.285,134.127 977.492,134.127 979.7,134.127 981.907,134.127 984.115,134.127 986.322,134.127 988.53,134.127 990.737,134.127 992.945,134.127 995.152,134.127 997.36,134.127 999.567,134.127 1001.77,134.127 1003.98,134.127 1006.19,134.127 1008.4,134.127 1010.6,134.127 1012.81,134.127 1015.02,134.127 1017.23,134.127 1019.43,134.127 1021.64,134.127 1023.85,134.127 1026.06,134.127 1028.26,134.127 1030.47,322.028 1032.68,322.028 1034.89,322.028 1037.09,322.028 1039.3,322.028 1041.51,322.028 1043.72,322.028 1045.92,322.028 1048.13,322.028 1050.34,322.028 1052.55,322.028 1054.75,322.028 1056.96,322.028 1059.17,322.028 1061.38,322.028 1063.58,322.028 1065.79,322.028 1068,322.028 1070.21,322.028 1072.41,322.028 1074.62,322.028 1076.83,322.028 1079.04,322.028 1081.24,322.028 1083.45,322.028 1085.66,322.028 1087.87,322.028 1090.07,322.028 1092.28,322.028 1094.49,322.028 1096.7,322.028 1098.9,322.028 1101.11,322.028 1103.32,322.028 1105.53,322.028 1107.73,322.028 1109.94,322.028 1112.15,322.028 1114.36,322.028 1116.56,322.028 1118.77,322.028 1120.98,322.028 1123.19,322.028 1125.39,322.028 1127.6,322.028 1129.81,322.028 1132.02,322.028 1134.22,322.028 1136.43,322.028 1138.64,322.028 1140.85,322.028 1143.05,322.028 1145.26,322.028 1147.47,322.028 1149.68,322.028 1151.88,322.028 1154.09,322.028 1156.3,322.028 1158.51,322.028 1160.71,322.028 1162.92,322.028 1165.13,322.028 1167.34,322.028 1169.54,322.028 1171.75,322.028 1173.96,322.028 1176.17,322.028 1178.37,322.028 1180.58,322.028 1182.79,322.028 1185,322.028 1187.2,322.028 1189.41,322.028 1191.62,322.028 1193.83,322.028 1196.03,322.028 1198.24,322.028 1200.45,322.028 1202.66,322.028 1204.86,322.028 1207.07,322.028 1209.28,322.028 1211.49,322.028 1213.69,322.028 1215.9,322.028 1218.11,322.028 1220.32,322.028 1222.52,322.028 1224.73,322.028 1226.94,322.028 1229.15,322.028 1231.35,322.028 1233.56,322.028 1235.77,322.028 1237.98,322.028 1240.18,322.028 1242.39,322.028 1244.6,322.028 1246.81,322.028 1249.01,322.028 1251.22,86.1857 1253.43,86.1857 1255.64,86.1857 1257.84,86.1857 1260.05,86.1857 1262.26,86.1857 1264.47,86.1857 1266.67,86.1857 1268.88,86.1857 1271.09,86.1857 1273.3,86.1857 1275.5,86.1857 1277.71,86.1857 1279.92,86.1857 1282.13,86.1857 1284.33,86.1857 1286.54,86.1857 1288.75,86.1857 1290.96,86.1857 1293.16,86.1857 1295.37,86.1857 1297.58,86.1857 1299.79,86.1857 1301.99,86.1857 1304.2,86.1857 1306.41,86.1857 1308.62,86.1857 1310.82,86.1857 1313.03,86.1857 1315.24,86.1857 1317.45,86.1857 1319.65,86.1857 1321.86,86.1857 1324.07,86.1857 1326.28,86.1857 1328.48,86.1857 1330.69,86.1857 1332.9,86.1857 1335.11,86.1857 1337.31,86.1857 1339.52,86.1857 1341.73,86.1857 1343.94,86.1857 1346.14,86.1857 1348.35,86.1857 1350.56,86.1857 1352.76,86.1857 1354.97,86.1857 1357.18,86.1857 1359.39,86.1857 1361.59,86.1857 1363.8,86.1857 1366.01,86.1857 1368.22,86.1857 1370.42,86.1857 1372.63,86.1857 1374.84,86.1857 1377.05,86.1857 1379.25,86.1857 1381.46,86.1857 1383.67,86.1857 1385.88,86.1857 1388.08,86.1857 1390.29,86.1857 1392.5,86.1857 1394.71,86.1857 1396.91,86.1857 1399.12,86.1857 1401.33,86.1857 1403.54,86.1857 1405.74,86.1857 1407.95,86.1857 1410.16,86.1857 1412.37,86.1857 1414.57,86.1857 1416.78,86.1857 1418.99,86.1857 1421.2,86.1857 1423.4,86.1857 1425.61,86.1857 1427.82,86.1857 1430.03,86.1857 1432.23,86.1857 1434.44,86.1857 1436.65,86.1857 1438.86,86.1857 1441.06,86.1857 1443.27,86.1857 1445.48,86.1857 1447.69,86.1857 1449.89,86.1857 1452.1,86.1857 1454.31,86.1857 1456.52,86.1857 1458.72,86.1857 1460.93,86.1857 1463.14,86.1857 1465.35,86.1857 1467.55,86.1857 1469.76,86.1857 1471.97,645.182 1474.18,645.182 1476.38,645.182 1478.59,645.182 1480.8,645.182 1483.01,645.182 1485.21,645.182 1487.42,645.182 1489.63,645.182 1491.84,645.182 1494.04,645.182 1496.25,645.182 1498.46,645.182 1500.67,645.182 1502.87,645.182 1505.08,645.182 1507.29,645.182 1509.5,645.182 1511.7,645.182 1513.91,645.182 1516.12,645.182 1518.33,645.182 1520.53,645.182 1522.74,645.182 1524.95,645.182 1527.16,645.182 1529.36,645.182 1531.57,645.182 1533.78,645.182 1535.99,645.182 1538.19,645.182 1540.4,645.182 1542.61,645.182 1544.82,645.182 1547.02,645.182 1549.23,645.182 1551.44,645.182 1553.65,645.182 1555.85,645.182 1558.06,645.182 1560.27,645.182 1562.48,645.182 1564.68,645.182 1566.89,645.182 1569.1,645.182 1571.31,645.182 1573.51,645.182 1575.72,645.182 1577.93,645.182 1580.14,645.182 1582.34,645.182 1584.55,645.182 1586.76,645.182 1588.97,645.182 1591.17,645.182 1593.38,645.182 1595.59,645.182 1597.8,645.182 1600,645.182 1602.21,645.182 1604.42,645.182 1606.63,645.182 1608.83,645.182 1611.04,645.182 1613.25,645.182 1615.46,645.182 1617.66,645.182 1619.87,645.182 1622.08,645.182 1624.29,645.182 1626.49,645.182 1628.7,645.182 1630.91,645.182 1633.12,645.182 1635.32,645.182 1637.53,645.182 1639.74,645.182 1641.95,645.182 1644.15,645.182 1646.36,645.182 1648.57,645.182 1650.78,645.182 1652.98,645.182 1655.19,645.182 1657.4,645.182 1659.61,645.182 1661.81,645.182 1664.02,645.182 1666.23,645.182 1668.44,645.182 1670.64,645.182 1672.85,645.182 1675.06,645.182 1677.27,645.182 1679.47,645.182 1681.68,645.182 1683.89,645.182 1686.1,645.182 1688.3,645.182 1690.51,645.182 1692.72,1095 1694.93,1095 1697.13,1095 1699.34,1095 1701.55,1095 1703.76,1095 1705.96,1095 1708.17,1095 1710.38,1095 1712.59,1095 1714.79,1095 1717,1095 1719.21,1095 1721.42,1095 1723.62,1095 1725.83,1095 1728.04,1095 1730.25,1095 1732.45,1095 1734.66,1095 1736.87,1095 1739.07,1095 1741.28,1095 1743.49,1095 1745.7,1095 1747.9,1095 1750.11,1095 1752.32,1095 1754.53,1095 1756.73,1095 1758.94,1095 1761.15,1095 1763.36,1095 1765.56,1095 1767.77,1095 1769.98,1095 1772.19,1095 1774.39,1095 1776.6,1095 1778.81,1095 1781.02,1095 1783.22,1095 1785.43,1095 1787.64,1095 1789.85,1095 1792.05,1095 1794.26,1095 1796.47,1095 1798.68,1095 1800.88,1095 1803.09,1095 1805.3,1095 1807.51,1095 1809.71,1095 1811.92,1095 1814.13,1095 1816.34,1095 1818.54,1095 1820.75,1095 1822.96,1095 1825.17,1095 1827.37,1095 1829.58,1095 1831.79,1095 1834,1095 1836.2,1095 1838.41,1095 1840.62,1095 1842.83,1095 1845.03,1095 1847.24,1095 1849.45,1095 1851.66,1095 1853.86,1095 1856.07,1095 1858.28,1095 1860.49,1095 1862.69,1095 1864.9,1095 1867.11,1095 1869.32,1095 1871.52,1095 1873.73,1095 1875.94,1095 1878.15,1095 1880.35,1095 1882.56,1095 1884.77,1095 1886.98,1095 1889.18,1095 1891.39,1095 1893.6,1095 1895.81,1095 1898.01,1095 1900.22,1095 1902.43,1095 1904.64,1095 1906.84,1095 1909.05,1095 1911.26,1095 1913.47,1130.38 1915.67,1130.38 1917.88,1130.38 1920.09,1130.38 1922.3,1130.38 1924.5,1130.38 1926.71,1130.38 1928.92,1130.38 1931.13,1130.38 1933.33,1130.38 1935.54,1130.38 1937.75,1130.38 1939.96,1130.38 1942.16,1130.38 1944.37,1130.38 1946.58,1130.38 1948.79,1130.38 1950.99,1130.38 1953.2,1130.38 1955.41,1130.38 1957.62,1130.38 1959.82,1130.38 1962.03,1130.38 1964.24,1130.38 1966.45,1130.38 1968.65,1130.38 1970.86,1130.38 1973.07,1130.38 1975.28,1130.38 1977.48,1130.38 1979.69,1130.38 1981.9,1130.38 1984.11,1130.38 1986.31,1130.38 1988.52,1130.38 1990.73,1130.38 1992.94,1130.38 1995.14,1130.38 1997.35,1130.38 1999.56,1130.38 2001.77,1130.38 2003.97,1130.38 2006.18,1130.38 2008.39,1130.38 2010.6,1130.38 2012.8,1130.38 2015.01,1130.38 2017.22,1130.38 2019.43,1130.38 2021.63,1130.38 2023.84,1130.38 2026.05,1130.38 2028.26,1130.38 2030.46,1130.38 2032.67,1130.38 2034.88,1130.38 2037.09,1130.38 2039.29,1130.38 2041.5,1130.38 2043.71,1130.38 2045.92,1130.38 2048.12,1130.38 2050.33,1130.38 2052.54,1130.38 2054.75,1130.38 2056.95,1130.38 2059.16,1130.38 2061.37,1130.38 2063.58,1130.38 2065.78,1130.38 2067.99,1130.38 2070.2,1130.38 2072.41,1130.38 2074.61,1130.38 2076.82,1130.38 2079.03,1130.38 2081.24,1130.38 2083.44,1130.38 2085.65,1130.38 2087.86,1130.38 2090.07,1130.38 2092.27,1130.38 2094.48,1130.38 2096.69,1130.38 2098.9,1130.38 2101.1,1130.38 2103.31,1130.38 2105.52,1130.38 2107.73,1130.38 2109.93,1130.38 2112.14,1130.38 2114.35,1130.38 2116.55,1130.38 2118.76,1130.38 2120.97,1130.38 2123.18,1130.38 2125.38,1130.38 2127.59,1130.38 2129.8,1130.38 2132.01,1130.38 2134.21,628.802 2136.42,628.802 2138.63,628.802 2140.84,628.802 2143.04,628.802 2145.25,628.802 2147.46,628.802 2149.67,628.802 2151.87,628.802 2154.08,628.802 2156.29,628.802 2158.5,628.802 2160.7,628.802 2162.91,628.802 2165.12,628.802 2167.33,628.802 2169.53,628.802 2171.74,628.802 2173.95,628.802 2176.16,628.802 2178.36,628.802 2180.57,628.802 2182.78,628.802 2184.99,628.802 2187.19,628.802 2189.4,628.802 2191.61,628.802 2193.82,628.802 2196.02,628.802 2198.23,628.802 2200.44,628.802 2202.65,628.802 2204.85,628.802 2207.06,628.802 2209.27,628.802 2211.48,628.802 2213.68,628.802 2215.89,628.802 2218.1,628.802 2220.31,628.802 2222.51,628.802 2224.72,628.802 2226.93,628.802 2229.14,628.802 2231.34,628.802 2233.55,628.802 2235.76,628.802 2237.97,628.802 2240.17,628.802 2242.38,628.802 2244.59,628.802 2246.8,628.802 2249,628.802 2251.21,628.802 2253.42,628.802 2255.63,628.802 2257.83,628.802 2260.04,628.802 2262.25,628.802 2264.46,628.802 2266.66,628.802 2268.87,628.802 2271.08,628.802 2273.29,628.802 2275.49,628.802 2277.7,628.802 2279.91,628.802 2282.12,628.802 2284.32,628.802 2286.53,628.802 2288.74,628.802 2290.95,628.802 2293.15,628.802 2295.36,628.802 2297.57,628.802 2299.78,628.802 2301.98,628.802 2304.19,628.802 2306.4,628.802 2308.61,628.802 2310.81,628.802 2313.02,628.802 2315.23,628.802 2317.44,628.802 2319.64,628.802 2321.85,628.802 2324.06,628.802 2326.27,628.802 2328.47,628.802 2330.68,628.802 2332.89,628.802 2335.1,628.802 2337.3,628.802 2339.51,628.802 2341.72,628.802 2343.93,628.802 2346.13,628.802 2348.34,628.802 2350.55,628.802 2352.76,628.802 "/>
<path clip-path="url(#clip120)" d="M1980.52 248.629 L2279.25 248.629 L2279.25 93.1086 L1980.52 93.1086  Z" fill="#ffffff" fill-rule="evenodd" fill-opacity="1"/>
<polyline clip-path="url(#clip120)" style="stroke:#000000; stroke-linecap:round; stroke-linejoin:round; stroke-width:4; stroke-opacity:1; fill:none" points="1980.52,248.629 2279.25,248.629 2279.25,93.1086 1980.52,93.1086 1980.52,248.629 "/>
<polyline clip-path="url(#clip120)" style="stroke:#009af9; stroke-linecap:round; stroke-linejoin:round; stroke-width:4; stroke-opacity:1; fill:none" points="2005.03,144.949 2152.05,144.949 "/>
<path clip-path="url(#clip120)" d="M2201.2 136.303 L2191.83 148.919 L2201.69 162.229 L2196.67 162.229 L2189.12 152.043 L2181.57 162.229 L2176.55 162.229 L2186.62 148.664 L2177.41 136.303 L2182.43 136.303 L2189.3 145.539 L2196.18 136.303 L2201.2 136.303 Z" fill="#000000" fill-rule="nonzero" fill-opacity="1" /><path clip-path="url(#clip120)" d="M2217.94 126.257 Q2214.84 131.581 2213.33 136.789 Q2211.83 141.997 2211.83 147.344 Q2211.83 152.692 2213.33 157.946 Q2214.86 163.178 2217.94 168.479 L2214.23 168.479 Q2210.76 163.039 2209.03 157.784 Q2207.31 152.53 2207.31 147.344 Q2207.31 142.182 2209.03 136.951 Q2210.74 131.72 2214.23 126.257 L2217.94 126.257 Z" fill="#000000" fill-rule="nonzero" fill-opacity="1" /><path clip-path="url(#clip120)" d="M2230.41 128.942 L2230.41 136.303 L2239.19 136.303 L2239.19 139.613 L2230.41 139.613 L2230.41 153.687 Q2230.41 156.858 2231.27 157.761 Q2232.15 158.664 2234.81 158.664 L2239.19 158.664 L2239.19 162.229 L2234.81 162.229 Q2229.88 162.229 2228.01 160.4 Q2226.13 158.548 2226.13 153.687 L2226.13 139.613 L2223.01 139.613 L2223.01 136.303 L2226.13 136.303 L2226.13 128.942 L2230.41 128.942 Z" fill="#000000" fill-rule="nonzero" fill-opacity="1" /><path clip-path="url(#clip120)" d="M2244.12 126.257 L2247.82 126.257 Q2251.29 131.72 2253.01 136.951 Q2254.74 142.182 2254.74 147.344 Q2254.74 152.53 2253.01 157.784 Q2251.29 163.039 2247.82 168.479 L2244.12 168.479 Q2247.2 163.178 2248.7 157.946 Q2250.23 152.692 2250.23 147.344 Q2250.23 141.997 2248.7 136.789 Q2247.2 131.581 2244.12 126.257 Z" fill="#000000" fill-rule="nonzero" fill-opacity="1" /><polyline clip-path="url(#clip120)" style="stroke:#e26f46; stroke-linecap:round; stroke-linejoin:round; stroke-width:4; stroke-opacity:1; fill:none" points="2005.03,196.789 2152.05,196.789 "/>
<path clip-path="url(#clip120)" d="M2193.05 178.05 L2193.05 181.592 L2188.98 181.592 Q2186.69 181.592 2185.79 182.518 Q2184.91 183.444 2184.91 185.851 L2184.91 188.143 L2191.92 188.143 L2191.92 191.453 L2184.91 191.453 L2184.91 214.069 L2180.62 214.069 L2180.62 191.453 L2176.55 191.453 L2176.55 188.143 L2180.62 188.143 L2180.62 186.337 Q2180.62 182.009 2182.64 180.041 Q2184.65 178.05 2189.03 178.05 L2193.05 178.05 Z" fill="#000000" fill-rule="nonzero" fill-opacity="1" /><path clip-path="url(#clip120)" d="M2206.85 178.097 Q2203.75 183.421 2202.24 188.629 Q2200.74 193.837 2200.74 199.184 Q2200.74 204.532 2202.24 209.786 Q2203.77 215.018 2206.85 220.319 L2203.15 220.319 Q2199.67 214.879 2197.94 209.624 Q2196.23 204.37 2196.23 199.184 Q2196.23 194.022 2197.94 188.791 Q2199.65 183.56 2203.15 178.097 L2206.85 178.097 Z" fill="#000000" fill-rule="nonzero" fill-opacity="1" /><path clip-path="url(#clip120)" d="M2219.33 180.782 L2219.33 188.143 L2228.1 188.143 L2228.1 191.453 L2219.33 191.453 L2219.33 205.527 Q2219.33 208.698 2220.18 209.601 Q2221.06 210.504 2223.73 210.504 L2228.1 210.504 L2228.1 214.069 L2223.73 214.069 Q2218.79 214.069 2216.92 212.24 Q2215.04 210.388 2215.04 205.527 L2215.04 191.453 L2211.92 191.453 L2211.92 188.143 L2215.04 188.143 L2215.04 180.782 L2219.33 180.782 Z" fill="#000000" fill-rule="nonzero" fill-opacity="1" /><path clip-path="url(#clip120)" d="M2233.03 178.097 L2236.73 178.097 Q2240.21 183.56 2241.92 188.791 Q2243.66 194.022 2243.66 199.184 Q2243.66 204.37 2241.92 209.624 Q2240.21 214.879 2236.73 220.319 L2233.03 220.319 Q2236.11 215.018 2237.61 209.786 Q2239.14 204.532 2239.14 199.184 Q2239.14 193.837 2237.61 188.629 Q2236.11 183.421 2233.03 178.097 Z" fill="#000000" fill-rule="nonzero" fill-opacity="1" /></svg>
