<?xml version="1.0" encoding="utf-8"?>
<svg xmlns="http://www.w3.org/2000/svg" xmlns:xlink="http://www.w3.org/1999/xlink" width="600" height="400" viewBox="0 0 2400 1600">
<defs>
  <clipPath id="clip160">
    <rect x="0" y="0" width="2400" height="1600"/>
  </clipPath>
</defs>
<path clip-path="url(#clip160)" d="M0 1600 L2400 1600 L2400 0 L0 0  Z" fill="#ffffff" fill-rule="evenodd" fill-opacity="1"/>
<defs>
  <clipPath id="clip161">
    <rect x="112" y="47" width="2242" height="1440"/>
  </clipPath>
</defs>
<path clip-path="url(#clip161)" d="M-714.654 2659.91 L-714.654 2372.86 L-376.929 2229.33 L208.027 2312.2 L208.027 2599.25 L-129.698 2742.78 L-714.654 2659.91  Z" fill="#ffffff" fill-rule="evenodd" fill-opacity="1"/>
<polyline clip-path="url(#clip161)" style="stroke:#000000; stroke-linecap:round; stroke-linejoin:round; stroke-width:2; stroke-opacity:0.1; fill:none" points="693.79,1211.01 1109.25,851.211 1109.25,131.609 "/>
<polyline clip-path="url(#clip161)" style="stroke:#000000; stroke-linecap:round; stroke-linejoin:round; stroke-width:2; stroke-opacity:0.1; fill:none" points="840.029,1253.23 1255.49,893.426 1255.49,173.824 "/>
<polyline clip-path="url(#clip161)" style="stroke:#000000; stroke-linecap:round; stroke-linejoin:round; stroke-width:2; stroke-opacity:0.1; fill:none" points="986.268,1295.44 1401.73,935.642 1401.73,216.04 "/>
<polyline clip-path="url(#clip161)" style="stroke:#000000; stroke-linecap:round; stroke-linejoin:round; stroke-width:2; stroke-opacity:0.1; fill:none" points="1132.51,1337.66 1547.97,977.857 1547.97,258.255 "/>
<polyline clip-path="url(#clip161)" style="stroke:#000000; stroke-linecap:round; stroke-linejoin:round; stroke-width:2; stroke-opacity:0.1; fill:none" points="1278.75,1379.87 1694.21,1020.07 1694.21,300.471 "/>
<polyline clip-path="url(#clip161)" style="stroke:#000000; stroke-linecap:round; stroke-linejoin:round; stroke-width:2; stroke-opacity:0.1; fill:none" points="1427.44,1373.26 707.834,1165.53 707.834,445.928 "/>
<polyline clip-path="url(#clip161)" style="stroke:#000000; stroke-linecap:round; stroke-linejoin:round; stroke-width:2; stroke-opacity:0.1; fill:none" points="1510.3,1301.5 790.699,1093.77 790.699,374.165 "/>
<polyline clip-path="url(#clip161)" style="stroke:#000000; stroke-linecap:round; stroke-linejoin:round; stroke-width:2; stroke-opacity:0.1; fill:none" points="1593.17,1229.73 873.564,1022 873.564,302.402 "/>
<polyline clip-path="url(#clip161)" style="stroke:#000000; stroke-linecap:round; stroke-linejoin:round; stroke-width:2; stroke-opacity:0.1; fill:none" points="1676.03,1157.97 956.429,950.24 956.429,230.638 "/>
<polyline clip-path="url(#clip161)" style="stroke:#000000; stroke-linecap:round; stroke-linejoin:round; stroke-width:2; stroke-opacity:0.1; fill:none" points="1758.9,1086.21 1039.29,878.477 1039.29,158.875 "/>
<polyline clip-path="url(#clip161)" style="stroke:#000000; stroke-linecap:round; stroke-linejoin:round; stroke-width:2; stroke-opacity:0.1; fill:none" points="664.934,1109.49 1080.4,749.685 1800,957.417 "/>
<polyline clip-path="url(#clip161)" style="stroke:#000000; stroke-linecap:round; stroke-linejoin:round; stroke-width:2; stroke-opacity:0.1; fill:none" points="664.934,988.407 1080.4,628.606 1800,836.337 "/>
<polyline clip-path="url(#clip161)" style="stroke:#000000; stroke-linecap:round; stroke-linejoin:round; stroke-width:2; stroke-opacity:0.1; fill:none" points="664.934,867.328 1080.4,507.527 1800,715.258 "/>
<polyline clip-path="url(#clip161)" style="stroke:#000000; stroke-linecap:round; stroke-linejoin:round; stroke-width:2; stroke-opacity:0.1; fill:none" points="664.934,746.248 1080.4,386.447 1800,594.178 "/>
<polyline clip-path="url(#clip161)" style="stroke:#000000; stroke-linecap:round; stroke-linejoin:round; stroke-width:2; stroke-opacity:0.1; fill:none" points="664.934,625.169 1080.4,265.368 1800,473.099 "/>
<polyline clip-path="url(#clip161)" style="stroke:#000000; stroke-linecap:round; stroke-linejoin:round; stroke-width:2; stroke-opacity:0.1; fill:none" points="664.934,504.089 1080.4,144.288 1800,352.019 "/>
<polyline clip-path="url(#clip160)" style="stroke:#000000; stroke-linecap:round; stroke-linejoin:round; stroke-width:4; stroke-opacity:1; fill:none" points="664.934,1202.68 1384.54,1410.41 "/>
<polyline clip-path="url(#clip160)" style="stroke:#000000; stroke-linecap:round; stroke-linejoin:round; stroke-width:4; stroke-opacity:1; fill:none" points="693.79,1211.01 698.775,1206.69 "/>
<polyline clip-path="url(#clip160)" style="stroke:#000000; stroke-linecap:round; stroke-linejoin:round; stroke-width:4; stroke-opacity:1; fill:none" points="840.029,1253.23 845.014,1248.91 "/>
<polyline clip-path="url(#clip160)" style="stroke:#000000; stroke-linecap:round; stroke-linejoin:round; stroke-width:4; stroke-opacity:1; fill:none" points="986.268,1295.44 991.253,1291.13 "/>
<polyline clip-path="url(#clip160)" style="stroke:#000000; stroke-linecap:round; stroke-linejoin:round; stroke-width:4; stroke-opacity:1; fill:none" points="1132.51,1337.66 1137.49,1333.34 "/>
<polyline clip-path="url(#clip160)" style="stroke:#000000; stroke-linecap:round; stroke-linejoin:round; stroke-width:4; stroke-opacity:1; fill:none" points="1278.75,1379.87 1283.73,1375.56 "/>
<path clip-path="url(#clip160)" d="M633.57 1225.33 Q629.959 1225.33 628.13 1228.89 Q626.325 1232.43 626.325 1239.56 Q626.325 1246.67 628.13 1250.23 Q629.959 1253.77 633.57 1253.77 Q637.204 1253.77 639.01 1250.23 Q640.838 1246.67 640.838 1239.56 Q640.838 1232.43 639.01 1228.89 Q637.204 1225.33 633.57 1225.33 M633.57 1221.62 Q639.38 1221.62 642.436 1226.23 Q645.514 1230.81 645.514 1239.56 Q645.514 1248.29 642.436 1252.89 Q639.38 1257.48 633.57 1257.48 Q627.76 1257.48 624.681 1252.89 Q621.625 1248.29 621.625 1239.56 Q621.625 1230.81 624.681 1226.23 Q627.76 1221.62 633.57 1221.62 Z" fill="#000000" fill-rule="nonzero" fill-opacity="1" /><path clip-path="url(#clip160)" d="M653.732 1250.93 L658.616 1250.93 L658.616 1256.81 L653.732 1256.81 L653.732 1250.93 Z" fill="#000000" fill-rule="nonzero" fill-opacity="1" /><path clip-path="url(#clip160)" d="M668.847 1222.25 L687.204 1222.25 L687.204 1226.18 L673.13 1226.18 L673.13 1234.65 Q674.148 1234.31 675.167 1234.14 Q676.185 1233.96 677.204 1233.96 Q682.991 1233.96 686.371 1237.13 Q689.75 1240.3 689.75 1245.72 Q689.75 1251.3 686.278 1254.4 Q682.806 1257.48 676.486 1257.48 Q674.31 1257.48 672.042 1257.11 Q669.797 1256.74 667.389 1256 L667.389 1251.3 Q669.472 1252.43 671.695 1252.99 Q673.917 1253.54 676.394 1253.54 Q680.398 1253.54 682.736 1251.44 Q685.074 1249.33 685.074 1245.72 Q685.074 1242.11 682.736 1240 Q680.398 1237.89 676.394 1237.89 Q674.519 1237.89 672.644 1238.31 Q670.792 1238.73 668.847 1239.61 L668.847 1222.25 Z" fill="#000000" fill-rule="nonzero" fill-opacity="1" /><path clip-path="url(#clip160)" d="M769.624 1295.09 L777.263 1295.09 L777.263 1268.72 L768.952 1270.39 L768.952 1266.13 L777.216 1264.46 L781.892 1264.46 L781.892 1295.09 L789.531 1295.09 L789.531 1299.02 L769.624 1299.02 L769.624 1295.09 Z" fill="#000000" fill-rule="nonzero" fill-opacity="1" /><path clip-path="url(#clip160)" d="M798.975 1293.14 L803.86 1293.14 L803.86 1299.02 L798.975 1299.02 L798.975 1293.14 Z" fill="#000000" fill-rule="nonzero" fill-opacity="1" /><path clip-path="url(#clip160)" d="M824.045 1267.54 Q820.434 1267.54 818.605 1271.11 Q816.799 1274.65 816.799 1281.78 Q816.799 1288.88 818.605 1292.45 Q820.434 1295.99 824.045 1295.99 Q827.679 1295.99 829.485 1292.45 Q831.313 1288.88 831.313 1281.78 Q831.313 1274.65 829.485 1271.11 Q827.679 1267.54 824.045 1267.54 M824.045 1263.84 Q829.855 1263.84 832.91 1268.44 Q835.989 1273.03 835.989 1281.78 Q835.989 1290.5 832.91 1295.11 Q829.855 1299.69 824.045 1299.69 Q818.235 1299.69 815.156 1295.11 Q812.1 1290.5 812.1 1281.78 Q812.1 1273.03 815.156 1268.44 Q818.235 1263.84 824.045 1263.84 Z" fill="#000000" fill-rule="nonzero" fill-opacity="1" /><path clip-path="url(#clip160)" d="M916.858 1337.3 L924.497 1337.3 L924.497 1310.94 L916.187 1312.6 L916.187 1308.34 L924.451 1306.68 L929.127 1306.68 L929.127 1337.3 L936.765 1337.3 L936.765 1341.24 L916.858 1341.24 L916.858 1337.3 Z" fill="#000000" fill-rule="nonzero" fill-opacity="1" /><path clip-path="url(#clip160)" d="M946.21 1335.36 L951.094 1335.36 L951.094 1341.24 L946.21 1341.24 L946.21 1335.36 Z" fill="#000000" fill-rule="nonzero" fill-opacity="1" /><path clip-path="url(#clip160)" d="M961.325 1306.68 L979.682 1306.68 L979.682 1310.61 L965.608 1310.61 L965.608 1319.09 Q966.626 1318.74 967.645 1318.58 Q968.663 1318.39 969.682 1318.39 Q975.469 1318.39 978.849 1321.56 Q982.228 1324.73 982.228 1330.15 Q982.228 1335.73 978.756 1338.83 Q975.284 1341.91 968.964 1341.91 Q966.788 1341.91 964.52 1341.54 Q962.275 1341.17 959.867 1340.43 L959.867 1335.73 Q961.95 1336.86 964.173 1337.42 Q966.395 1337.97 968.872 1337.97 Q972.876 1337.97 975.214 1335.87 Q977.552 1333.76 977.552 1330.15 Q977.552 1326.54 975.214 1324.43 Q972.876 1322.33 968.872 1322.33 Q966.997 1322.33 965.122 1322.74 Q963.27 1323.16 961.325 1324.04 L961.325 1306.68 Z" fill="#000000" fill-rule="nonzero" fill-opacity="1" /><path clip-path="url(#clip160)" d="M1065.32 1379.52 L1081.64 1379.52 L1081.64 1383.45 L1059.69 1383.45 L1059.69 1379.52 Q1062.36 1376.76 1066.94 1372.13 Q1071.55 1367.48 1072.73 1366.14 Q1074.97 1363.62 1075.85 1361.88 Q1076.75 1360.12 1076.75 1358.43 Q1076.75 1355.68 1074.81 1353.94 Q1072.89 1352.2 1069.79 1352.2 Q1067.59 1352.2 1065.13 1352.97 Q1062.7 1353.73 1059.93 1355.28 L1059.93 1350.56 Q1062.75 1349.43 1065.2 1348.85 Q1067.66 1348.27 1069.69 1348.27 Q1075.06 1348.27 1078.26 1350.95 Q1081.45 1353.64 1081.45 1358.13 Q1081.45 1360.26 1080.64 1362.18 Q1079.86 1364.08 1077.75 1366.67 Q1077.17 1367.34 1074.07 1370.56 Q1070.97 1373.75 1065.32 1379.52 Z" fill="#000000" fill-rule="nonzero" fill-opacity="1" /><path clip-path="url(#clip160)" d="M1091.45 1377.57 L1096.34 1377.57 L1096.34 1383.45 L1091.45 1383.45 L1091.45 1377.57 Z" fill="#000000" fill-rule="nonzero" fill-opacity="1" /><path clip-path="url(#clip160)" d="M1116.52 1351.97 Q1112.91 1351.97 1111.08 1355.54 Q1109.28 1359.08 1109.28 1366.21 Q1109.28 1373.31 1111.08 1376.88 Q1112.91 1380.42 1116.52 1380.42 Q1120.16 1380.42 1121.96 1376.88 Q1123.79 1373.31 1123.79 1366.21 Q1123.79 1359.08 1121.96 1355.54 Q1120.16 1351.97 1116.52 1351.97 M1116.52 1348.27 Q1122.33 1348.27 1125.39 1352.88 Q1128.47 1357.46 1128.47 1366.21 Q1128.47 1374.94 1125.39 1379.54 Q1122.33 1384.12 1116.52 1384.12 Q1110.71 1384.12 1107.63 1379.54 Q1104.58 1374.94 1104.58 1366.21 Q1104.58 1357.46 1107.63 1352.88 Q1110.71 1348.27 1116.52 1348.27 Z" fill="#000000" fill-rule="nonzero" fill-opacity="1" /><path clip-path="url(#clip160)" d="M1212.55 1421.73 L1228.87 1421.73 L1228.87 1425.67 L1206.93 1425.67 L1206.93 1421.73 Q1209.59 1418.98 1214.17 1414.35 Q1218.78 1409.7 1219.96 1408.35 Q1222.21 1405.83 1223.09 1404.1 Q1223.99 1402.34 1223.99 1400.65 Q1223.99 1397.89 1222.04 1396.16 Q1220.12 1394.42 1217.02 1394.42 Q1214.82 1394.42 1212.37 1395.18 Q1209.94 1395.95 1207.16 1397.5 L1207.16 1392.78 Q1209.98 1391.64 1212.44 1391.06 Q1214.89 1390.48 1216.93 1390.48 Q1222.3 1390.48 1225.49 1393.17 Q1228.69 1395.85 1228.69 1400.35 Q1228.69 1402.47 1227.88 1404.4 Q1227.09 1406.29 1224.98 1408.89 Q1224.41 1409.56 1221.3 1412.78 Q1218.2 1415.97 1212.55 1421.73 Z" fill="#000000" fill-rule="nonzero" fill-opacity="1" /><path clip-path="url(#clip160)" d="M1238.69 1419.79 L1243.57 1419.79 L1243.57 1425.67 L1238.69 1425.67 L1238.69 1419.79 Z" fill="#000000" fill-rule="nonzero" fill-opacity="1" /><path clip-path="url(#clip160)" d="M1253.8 1391.11 L1272.16 1391.11 L1272.16 1395.04 L1258.09 1395.04 L1258.09 1403.52 Q1259.1 1403.17 1260.12 1403.01 Q1261.14 1402.82 1262.16 1402.82 Q1267.95 1402.82 1271.33 1405.99 Q1274.71 1409.16 1274.71 1414.58 Q1274.71 1420.16 1271.23 1423.26 Q1267.76 1426.34 1261.44 1426.34 Q1259.27 1426.34 1257 1425.97 Q1254.75 1425.6 1252.35 1424.86 L1252.35 1420.16 Q1254.43 1421.29 1256.65 1421.85 Q1258.87 1422.41 1261.35 1422.41 Q1265.35 1422.41 1267.69 1420.3 Q1270.03 1418.19 1270.03 1414.58 Q1270.03 1410.97 1267.69 1408.86 Q1265.35 1406.76 1261.35 1406.76 Q1259.47 1406.76 1257.6 1407.17 Q1255.75 1407.59 1253.8 1408.47 L1253.8 1391.11 Z" fill="#000000" fill-rule="nonzero" fill-opacity="1" /><polyline clip-path="url(#clip160)" style="stroke:#000000; stroke-linecap:round; stroke-linejoin:round; stroke-width:4; stroke-opacity:1; fill:none" points="1384.54,1410.41 1800,1050.61 "/>
<polyline clip-path="url(#clip160)" style="stroke:#000000; stroke-linecap:round; stroke-linejoin:round; stroke-width:4; stroke-opacity:1; fill:none" points="1427.44,1373.26 1418.8,1370.77 "/>
<polyline clip-path="url(#clip160)" style="stroke:#000000; stroke-linecap:round; stroke-linejoin:round; stroke-width:4; stroke-opacity:1; fill:none" points="1510.3,1301.5 1501.67,1299.01 "/>
<polyline clip-path="url(#clip160)" style="stroke:#000000; stroke-linecap:round; stroke-linejoin:round; stroke-width:4; stroke-opacity:1; fill:none" points="1593.17,1229.73 1584.53,1227.24 "/>
<polyline clip-path="url(#clip160)" style="stroke:#000000; stroke-linecap:round; stroke-linejoin:round; stroke-width:4; stroke-opacity:1; fill:none" points="1676.03,1157.97 1667.4,1155.48 "/>
<polyline clip-path="url(#clip160)" style="stroke:#000000; stroke-linecap:round; stroke-linejoin:round; stroke-width:4; stroke-opacity:1; fill:none" points="1758.9,1086.21 1750.26,1083.72 "/>
<path clip-path="url(#clip160)" d="M1454.3 1386.56 L1442.5 1405.01 L1454.3 1405.01 L1454.3 1386.56 M1453.07 1382.49 L1458.95 1382.49 L1458.95 1405.01 L1463.88 1405.01 L1463.88 1408.9 L1458.95 1408.9 L1458.95 1417.05 L1454.3 1417.05 L1454.3 1408.9 L1438.7 1408.9 L1438.7 1404.38 L1453.07 1382.49 Z" fill="#000000" fill-rule="nonzero" fill-opacity="1" /><path clip-path="url(#clip160)" d="M1523.02 1310.72 L1541.38 1310.72 L1541.38 1314.66 L1527.31 1314.66 L1527.31 1323.13 Q1528.32 1322.78 1529.34 1322.62 Q1530.36 1322.44 1531.38 1322.44 Q1537.17 1322.44 1540.55 1325.61 Q1543.93 1328.78 1543.93 1334.2 Q1543.93 1339.77 1540.45 1342.88 Q1536.98 1345.95 1530.66 1345.95 Q1528.49 1345.95 1526.22 1345.58 Q1523.97 1345.21 1521.57 1344.47 L1521.57 1339.77 Q1523.65 1340.91 1525.87 1341.46 Q1528.09 1342.02 1530.57 1342.02 Q1534.57 1342.02 1536.91 1339.91 Q1539.25 1337.81 1539.25 1334.2 Q1539.25 1330.58 1536.91 1328.48 Q1534.57 1326.37 1530.57 1326.37 Q1528.69 1326.37 1526.82 1326.79 Q1524.97 1327.21 1523.02 1328.08 L1523.02 1310.72 Z" fill="#000000" fill-rule="nonzero" fill-opacity="1" /><path clip-path="url(#clip160)" d="M1616.77 1254.38 Q1613.62 1254.38 1611.77 1256.53 Q1609.94 1258.68 1609.94 1262.43 Q1609.94 1266.16 1611.77 1268.34 Q1613.62 1270.49 1616.77 1270.49 Q1619.92 1270.49 1621.74 1268.34 Q1623.6 1266.16 1623.6 1262.43 Q1623.6 1258.68 1621.74 1256.53 Q1619.92 1254.38 1616.77 1254.38 M1626.05 1239.72 L1626.05 1243.98 Q1624.29 1243.15 1622.49 1242.71 Q1620.7 1242.27 1618.94 1242.27 Q1614.31 1242.27 1611.86 1245.4 Q1609.43 1248.52 1609.08 1254.84 Q1610.45 1252.83 1612.51 1251.76 Q1614.57 1250.67 1617.05 1250.67 Q1622.25 1250.67 1625.26 1253.84 Q1628.3 1256.99 1628.3 1262.43 Q1628.3 1267.76 1625.15 1270.97 Q1622 1274.19 1616.77 1274.19 Q1610.77 1274.19 1607.6 1269.61 Q1604.43 1265 1604.43 1256.28 Q1604.43 1248.08 1608.32 1243.22 Q1612.21 1238.34 1618.76 1238.34 Q1620.52 1238.34 1622.3 1238.68 Q1624.11 1239.03 1626.05 1239.72 Z" fill="#000000" fill-rule="nonzero" fill-opacity="1" /><path clip-path="url(#clip160)" d="M1687.3 1167.2 L1709.52 1167.2 L1709.52 1169.19 L1696.97 1201.76 L1692.09 1201.76 L1703.89 1171.13 L1687.3 1171.13 L1687.3 1167.2 Z" fill="#000000" fill-rule="nonzero" fill-opacity="1" /><path clip-path="url(#clip160)" d="M1782.01 1113.58 Q1778.68 1113.58 1776.76 1115.36 Q1774.86 1117.15 1774.86 1120.27 Q1774.86 1123.4 1776.76 1125.18 Q1778.68 1126.96 1782.01 1126.96 Q1785.35 1126.96 1787.27 1125.18 Q1789.19 1123.37 1789.19 1120.27 Q1789.19 1117.15 1787.27 1115.36 Q1785.37 1113.58 1782.01 1113.58 M1777.34 1111.59 Q1774.33 1110.85 1772.64 1108.79 Q1770.97 1106.73 1770.97 1103.77 Q1770.97 1099.62 1773.91 1097.22 Q1776.87 1094.81 1782.01 1094.81 Q1787.17 1094.81 1790.11 1097.22 Q1793.05 1099.62 1793.05 1103.77 Q1793.05 1106.73 1791.36 1108.79 Q1789.7 1110.85 1786.71 1111.59 Q1790.09 1112.38 1791.97 1114.67 Q1793.86 1116.96 1793.86 1120.27 Q1793.86 1125.29 1790.79 1127.98 Q1787.73 1130.66 1782.01 1130.66 Q1776.29 1130.66 1773.22 1127.98 Q1770.16 1125.29 1770.16 1120.27 Q1770.16 1116.96 1772.06 1114.67 Q1773.96 1112.38 1777.34 1111.59 M1775.62 1104.21 Q1775.62 1106.89 1777.29 1108.4 Q1778.98 1109.9 1782.01 1109.9 Q1785.02 1109.9 1786.71 1108.4 Q1788.42 1106.89 1788.42 1104.21 Q1788.42 1101.52 1786.71 1100.02 Q1785.02 1098.51 1782.01 1098.51 Q1778.98 1098.51 1777.29 1100.02 Q1775.62 1101.52 1775.62 1104.21 Z" fill="#000000" fill-rule="nonzero" fill-opacity="1" /><polyline clip-path="url(#clip160)" style="stroke:#000000; stroke-linecap:round; stroke-linejoin:round; stroke-width:4; stroke-opacity:1; fill:none" points="664.934,1202.68 664.934,483.08 "/>
<polyline clip-path="url(#clip160)" style="stroke:#000000; stroke-linecap:round; stroke-linejoin:round; stroke-width:4; stroke-opacity:1; fill:none" points="664.934,1109.49 669.92,1105.17 "/>
<polyline clip-path="url(#clip160)" style="stroke:#000000; stroke-linecap:round; stroke-linejoin:round; stroke-width:4; stroke-opacity:1; fill:none" points="664.934,988.407 669.92,984.089 "/>
<polyline clip-path="url(#clip160)" style="stroke:#000000; stroke-linecap:round; stroke-linejoin:round; stroke-width:4; stroke-opacity:1; fill:none" points="664.934,867.328 669.92,863.01 "/>
<polyline clip-path="url(#clip160)" style="stroke:#000000; stroke-linecap:round; stroke-linejoin:round; stroke-width:4; stroke-opacity:1; fill:none" points="664.934,746.248 669.92,741.93 "/>
<polyline clip-path="url(#clip160)" style="stroke:#000000; stroke-linecap:round; stroke-linejoin:round; stroke-width:4; stroke-opacity:1; fill:none" points="664.934,625.169 669.92,620.851 "/>
<polyline clip-path="url(#clip160)" style="stroke:#000000; stroke-linecap:round; stroke-linejoin:round; stroke-width:4; stroke-opacity:1; fill:none" points="664.934,504.089 669.92,499.772 "/>
<path clip-path="url(#clip160)" d="M626.551 1096.28 L614.746 1114.73 L626.551 1114.73 L626.551 1096.28 M625.324 1092.21 L631.204 1092.21 L631.204 1114.73 L636.134 1114.73 L636.134 1118.62 L631.204 1118.62 L631.204 1126.77 L626.551 1126.77 L626.551 1118.62 L610.949 1118.62 L610.949 1114.1 L625.324 1092.21 Z" fill="#000000" fill-rule="nonzero" fill-opacity="1" /><path clip-path="url(#clip160)" d="M615.232 971.127 L633.588 971.127 L633.588 975.062 L619.514 975.062 L619.514 983.534 Q620.533 983.187 621.551 983.025 Q622.57 982.84 623.588 982.84 Q629.375 982.84 632.755 986.011 Q636.134 989.182 636.134 994.599 Q636.134 1000.18 632.662 1003.28 Q629.19 1006.36 622.871 1006.36 Q620.695 1006.36 618.426 1005.99 Q616.181 1005.62 613.773 1004.88 L613.773 1000.18 Q615.857 1001.31 618.079 1001.87 Q620.301 1002.42 622.778 1002.42 Q626.783 1002.42 629.121 1000.32 Q631.459 998.21 631.459 994.599 Q631.459 990.988 629.121 988.882 Q626.783 986.775 622.778 986.775 Q620.903 986.775 619.028 987.192 Q617.176 987.608 615.232 988.488 L615.232 971.127 Z" fill="#000000" fill-rule="nonzero" fill-opacity="1" /><path clip-path="url(#clip160)" d="M624.607 865.464 Q621.459 865.464 619.607 867.617 Q617.778 869.77 617.778 873.52 Q617.778 877.246 619.607 879.422 Q621.459 881.575 624.607 881.575 Q627.755 881.575 629.584 879.422 Q631.435 877.246 631.435 873.52 Q631.435 869.77 629.584 867.617 Q627.755 865.464 624.607 865.464 M633.889 850.811 L633.889 855.071 Q632.13 854.237 630.324 853.798 Q628.542 853.358 626.783 853.358 Q622.153 853.358 619.699 856.483 Q617.269 859.608 616.922 865.927 Q618.287 863.913 620.347 862.848 Q622.408 861.76 624.884 861.76 Q630.093 861.76 633.102 864.932 Q636.134 868.08 636.134 873.52 Q636.134 878.844 632.986 882.061 Q629.838 885.279 624.607 885.279 Q618.611 885.279 615.44 880.696 Q612.269 876.089 612.269 867.362 Q612.269 859.168 616.158 854.307 Q620.047 849.423 626.597 849.423 Q628.357 849.423 630.139 849.77 Q631.945 850.117 633.889 850.811 Z" fill="#000000" fill-rule="nonzero" fill-opacity="1" /><path clip-path="url(#clip160)" d="M613.912 728.968 L636.134 728.968 L636.134 730.959 L623.588 763.528 L618.704 763.528 L630.509 732.903 L613.912 732.903 L613.912 728.968 Z" fill="#000000" fill-rule="nonzero" fill-opacity="1" /><path clip-path="url(#clip160)" d="M624.283 626.037 Q620.949 626.037 619.028 627.819 Q617.13 629.601 617.13 632.726 Q617.13 635.851 619.028 637.634 Q620.949 639.416 624.283 639.416 Q627.616 639.416 629.537 637.634 Q631.459 635.828 631.459 632.726 Q631.459 629.601 629.537 627.819 Q627.639 626.037 624.283 626.037 M619.607 624.046 Q616.597 623.305 614.908 621.245 Q613.241 619.185 613.241 616.222 Q613.241 612.078 616.181 609.671 Q619.144 607.264 624.283 607.264 Q629.445 607.264 632.384 609.671 Q635.324 612.078 635.324 616.222 Q635.324 619.185 633.634 621.245 Q631.968 623.305 628.982 624.046 Q632.361 624.833 634.236 627.125 Q636.134 629.416 636.134 632.726 Q636.134 637.75 633.056 640.435 Q630 643.12 624.283 643.12 Q618.565 643.12 615.486 640.435 Q612.431 637.75 612.431 632.726 Q612.431 629.416 614.329 627.125 Q616.227 624.833 619.607 624.046 M617.894 616.662 Q617.894 619.347 619.56 620.852 Q621.25 622.356 624.283 622.356 Q627.292 622.356 628.982 620.852 Q630.695 619.347 630.695 616.662 Q630.695 613.977 628.982 612.472 Q627.292 610.967 624.283 610.967 Q621.25 610.967 619.56 612.472 Q617.894 613.977 617.894 616.662 Z" fill="#000000" fill-rule="nonzero" fill-opacity="1" /><path clip-path="url(#clip160)" d="M614.514 520.652 L614.514 516.392 Q616.273 517.226 618.079 517.665 Q619.885 518.105 621.621 518.105 Q626.25 518.105 628.681 515.003 Q631.134 511.878 631.482 505.536 Q630.139 507.527 628.079 508.591 Q626.019 509.656 623.519 509.656 Q618.334 509.656 615.301 506.531 Q612.292 503.383 612.292 497.943 Q612.292 492.619 615.44 489.402 Q618.588 486.184 623.82 486.184 Q629.815 486.184 632.963 490.791 Q636.134 495.374 636.134 504.124 Q636.134 512.295 632.246 517.179 Q628.38 522.04 621.829 522.04 Q620.07 522.04 618.264 521.693 Q616.459 521.346 614.514 520.652 M623.82 505.999 Q626.968 505.999 628.796 503.846 Q630.648 501.693 630.648 497.943 Q630.648 494.217 628.796 492.064 Q626.968 489.888 623.82 489.888 Q620.672 489.888 618.82 492.064 Q616.991 494.217 616.991 497.943 Q616.991 501.693 618.82 503.846 Q620.672 505.999 623.82 505.999 Z" fill="#000000" fill-rule="nonzero" fill-opacity="1" /><polyline clip-path="url(#clip161)" style="stroke:#009af9; stroke-linecap:round; stroke-linejoin:round; stroke-width:4; stroke-opacity:1; fill:none" points="965.793,930.037 968.926,925.891 966.997,928.086 968.549,925.913 964.827,930.292 962.517,932.825 966.016,928.109 968.614,924.577 963.009,931.19 966.626,926.267 973.349,917.474 972.132,918.635 970.337,920.586 984.94,902.14 982.974,904.297 975.77,913.788 971.485,918.846 948.596,946.259 942.964,951.839 965.582,922.517 984.976,898.237 966.416,921.386 957.834,930.734 972.596,912.522 996.741,884.219 991.258,894.092 997.004,889.533 950.907,945.631 922.734,972.655 902.784,991.582 935.773,946.63 913.826,974.249 907.721,978.34 917.322,962.487 884.372,995.206 872.021,1004.06 899.495,979.872 955.925,915.769 992.062,886.756 982.41,910.767 990.496,907.599 983.143,916.111 999.571,900.149 1162.6,754.534 1057.46,866.785 1136.81,777.721 1051.5,854.615 1167.58,749.848 1181.03,748.806 1122.44,805.499 1081.29,829.993 1031.12,885.212 1048.89,856.512 1000.27,891.263 983.825,908.183 935.299,956.641 950.268,935.808 948.737,928.957 944.487,942.587 979.031,914.771 980.281,911.28 1019.32,867.842 1094.12,812.846 1170.26,742.318 1249.81,668.934 1302.34,639.971 1353.85,637.045 1368.13,623.672 1225.55,746.499 1212.87,741.458 1108.76,830.213 1132.07,795.703 1191.51,725.7 1174.11,764.837 1146.2,787.488 1266.6,676.767 1381.33,581.16 1422.08,572.994 1419.56,592.773 1336.95,670.371 1386.65,607.798 1320.9,655.436 1271.14,686.833 1256.23,700.892 1182.9,761.672 1156.14,777.843 1149.22,776.31 1083.35,838.314 1212.97,716.227 1167.71,793.002 1155.63,765.945 1178.98,758.825 1167.52,756.506 1192.41,740.725 1180.82,754.445 1155.28,774.001 1113.59,793.804 1114.61,796.751 1120.85,786.552 1130.28,801.787 1149.98,785.503 1222.54,709.978 1196.33,742.761 1168.01,760.42 1126.03,807.45 1096.05,822.907 1158.52,764.923 1121.47,790.755 1120.73,808.52 1125.54,797.668 1089.14,845.899 1033.86,882.478 1035.27,875.491 1006.47,897.525 1014.13,894.723 1074.72,832.468 1078.99,827.455 1010.95,882.769 1002.08,898.198 989.36,910.334 908.668,995.986 956.562,926.388 967.109,929.943 977.514,913.412 900.557,979.002 944.839,938.776 942.881,932.742 821.595,1047.74 869.508,996.004 934.349,923.607 867.325,1000.42 952.163,914.343 893.422,976.957 899.602,977.281 964.395,911.229 1003,884.641 1025.52,868.143 1034.31,854.715 984.687,902.282 969.967,904.955 1053.88,851.093 1046.39,850.857 994.787,903.647 999.17,905.475 980.885,932.937 1035.42,879.732 1084.71,816.62 1198.48,730.518 1183.75,750.179 1247.89,710.874 1376.32,613.067 1315.34,664.986 1369.19,613.715 1420.1,582.231 1307.23,674.813 1250.92,722.625 1266.49,690.166 1384.03,587.512 1216.57,734.168 1192.76,752.33 1204.06,730.312 1283.73,662.939 1129.33,777.184 1137.13,783.233 1027.06,880.66 1040.48,852.204 1071.75,824.849 1048.22,843.697 1067.54,823.982 1125.15,796.758 1161.36,772.252 1293.41,657.863 1321.7,653.767 1243.33,712.043 1173.11,787.778 1049.25,892.995 1026.98,893.914 988.333,926.639 950.212,957.845 987.625,901.2 900.057,987.331 859.763,1027.13 798.078,1093.81 819.708,1063.07 803.392,1072.78 826.661,1045.57 823.126,1042.72 863.617,1002.71 867.402,1003.14 915.797,951.674 898.435,977.961 894.256,989.682 880.881,994.589 892.261,980.963 850.919,1021.99 814.99,1060 892.438,981.526 809.289,1070.08 817.325,1056.33 822.657,1050.93 825.13,1056.93 866.508,1008.15 847.781,1032.6 891.191,998.253 926.037,949.816 949.502,935.121 929.775,954.425 956.267,935.246 932.071,957.154 983.961,905.733 1090.61,822.564 1210.21,698.733 1248.44,683.873 1265.51,693.646 1191.27,753.949 1257.12,683.786 1395.03,579.269 1464.39,537.648 1372.57,630.422 1323.3,668.881 1310.14,666.85 1394.37,600.525 1251.87,718.189 1191.32,774.746 1238.06,711.626 1112.46,829.83 1022.3,899.596 1059.68,846.639 1124.85,774.523 983.379,920.629 1086.7,806.117 1183.33,726.382 1129.37,791.633 1187.51,733.214 1268.67,655.333 1252.89,711.257 1168.69,787.646 1081.84,857.508 1099.8,820.249 1137.94,778.114 1076.07,840.879 1109.33,794.876 1080.27,824.201 1082.74,829.118 1139.23,777.641 1297.67,649.77 1340.67,630.328 1437.84,558.183 1391.68,594.677 1274.4,702.367 1302.33,658.842 1191.6,762.498 1180.63,750.063 1257.6,689.977 1292.77,655.693 1182.04,780.427 1195.23,757.677 1158.38,772.044 1167.12,765.484 1185.41,751.964 1157.09,764.379 1077.6,852.294 1071.12,846.738 1058.06,852.988 1048.44,859.101 1012.85,888.977 1070.55,830.05 1000.78,900.131 935.704,953.067 947.552,941.244 910.959,979.208 906.3,978.356 1012.61,866.408 993.711,891.534 1031.53,871.123 1032.96,862.389 1153.1,759.045 1255.77,686.341 1328.92,629.324 1379.29,592.672 1297.5,670.597 1245.82,712.219 1147.07,798.891 1094.59,827.99 1081.08,836.362 1134.46,784.07 1065.74,850.52 1118.21,807.019 1107.44,818.076 1145.56,778.127 959.681,925.835 935.293,951.558 967.061,915.843 954.917,935.817 971.536,916.669 950.192,931.9 919.98,961.316 1000.09,882.372 1010.65,874.832 1043.71,854.733 1029.6,874.697 1139.98,765.862 1169.18,736.569 1183.23,758.115 1275.92,671.326 1333.1,645.153 1357.51,631.697 1314.5,667.298 1211.91,745.311 1298.13,656.186 1300.08,660.126 1403.91,586.77 1268.92,711.928 1206.88,753.334 1156.27,788.618 1256.33,689.391 1328.62,639.632 1299,678.403 1424,560.496 1526.1,501.074 1488.06,548.88 1631.39,438.67 1754.33,375.903 1622.97,491.414 1595.15,501.543 1605.09,481.208 1569.24,509.71 1443,611.724 1411.98,617.45 1428.58,585.529 1418.22,592.642 1301.77,692.439 1304.27,670.603 1362.25,612.449 1340.48,642.857 1321.83,651.162 1270.13,705.697 1191.21,764.924 1263.7,673.185 1202,745.773 1227.44,721.187 1303.25,649.49 1218.5,729.45 1241.17,707.001 1216.34,737.448 1117.18,817.408 1169.27,753.323 1180.66,740.458 1279.79,672.176 1335.4,624.06 1335.22,635.264 1403.96,581.198 1482.75,518.984 1372.15,629.032 1406.81,600.897 1408.83,599.376 1335.83,661.068 1312.9,670.425 1305.69,667.274 1250.44,701.576 1242.18,709.355 1175.75,773.228 1179.25,747.917 1096.07,828.836 1100.56,820.998 1112.23,812.655 1145.82,794.132 1197.81,717.902 1219.1,713.552 1129.32,805.193 1219.13,739.297 1230.1,723.153 1303.42,649.031 1197.15,736.662 1098.14,820.771 1034.74,872.983 1124.75,773.808 1129.47,778.869 1141.68,778.748 1075.6,853.238 1059.46,877.984 1090.23,825.761 1074.79,840.851 1123.88,787.563 1171.66,748.147 1156.89,768.066 1184.55,747.231 1161.48,764.899 1104.13,813.663 1142.8,770.703 1135.95,795.073 1198.61,736.738 1214.2,712.542 1121.77,802.884 1187.39,741.836 1152.84,784.838 1212.56,711.674 1140.15,768.839 1156.42,756.842 1212.08,722.071 1276.1,672.827 1136.49,795.772 1185.09,759.789 1122.99,826.94 1136,802.454 1038.84,871.624 1143.73,760.066 1050.5,843.722 1073.7,839.148 1090.03,826.745 1019.19,902.062 1071.31,846.79 1127.87,776.739 1031.91,866.23 885.42,994.396 931.92,940.406 886.676,999.861 889.801,988.887 928.33,947.857 982.603,899.03 953.534,928.55 944.851,933.726 1012.8,866.32 1009.62,889.28 947.049,953.538 1000.89,889.029 991.892,914.148 893.386,1003.44 907.107,981.191 943.573,931.792 948.128,933.722 938.787,940.993 867.51,1013.37 796.031,1086.39 797.197,1086.38 850.984,1023.09 928.008,941.885 967.671,905.397 947.949,939.192 970.894,914.732 1007.9,888.033 1107.84,805.023 1109.06,802.934 1077.65,831.865 1198.26,737.525 1211.1,719.649 1271.84,686.88 1224.75,735.704 1165.11,794.776 1097.71,846.783 1030.89,905.17 997.068,919.442 1008.88,898.293 1009.66,888.632 1033.09,871.199 1066.42,833.253 1031.7,877.325 1053.54,852.869 1129.14,776.403 1108.01,802.572 1157.49,756.32 1229.83,693.036 1316.05,636.085 1270.85,673.979 1283.24,681.915 1432.62,579.109 1461.18,559.8 1342.88,664.076 1281.64,699.374 1357,613.275 1450.97,535.781 1595.96,444.141 1760.02,353.412 1732.08,396.812 1689.4,448.078 1685.41,437.35 1668.58,448.031 1572.8,514.038 1621.03,468.771 1695.58,401.297 1571.37,510.69 1486.58,573.641 1447.68,596.631 1364.05,657.846 1287.18,716.84 1288.24,696.435 1236.04,735.622 1233.91,728.341 1288.57,667.162 1271.37,684.488 1170.39,790.979 1122,814.572 1069.83,859.403 1042.41,879.028 1006.75,907.753 1014.6,883.645 1105.77,784.263 1099.66,805.267 1079.6,834.435 1079.93,830.144 1007.84,897.946 999.519,895.578 934.94,957.193 869.814,1017.28 874.537,1004.12 889.055,982.58 812.744,1069.79 796.231,1088.61 790.172,1089.34 818.828,1061.08 883.974,986.986 896.579,976.463 948.59,939.786 965.407,918.184 960.057,933.762 999.279,897.188 1047.11,858.363 1101.09,804.691 1135.84,772.192 1072.98,831.534 924.042,953.894 893.907,976.622 930.779,946.396 904.087,973.536 923.999,950.334 911.033,972.864 938.661,944.276 1065.81,828.603 1130.18,788.579 1256.19,661.294 1374.06,578.554 1300.29,668.557 1304.54,661.302 1315.88,664.339 1319.22,669.232 1251.21,733.341 1196.14,771.649 1190.97,762.964 1185.55,750.419 1237.27,711.22 1141.97,791.167 1112.04,813.591 1239.67,702.515 1180.74,751.911 1170.53,766.125 1280.8,668.888 1264.67,696.634 1323.67,658.676 1340.67,646.554 1196.48,755.786 1293.44,652.165 1159.97,778.403 1197.48,732.605 1163.67,772.127 1081.96,853.458 1072.65,860.656 1222.29,685.04 1182.13,716.009 1343.69,596.73 1349.85,624.831 1417.74,570.805 1379.87,621.07 1365.77,637.756 1362.29,627.092 1230.06,740.725 1212.95,737.385 1095.42,840.888 1129.89,800.268 1101.18,819.023 1142.95,780.109 1137.48,786.178 1134.09,799.46 1324.98,622.423 1327.1,639.338 1288.67,683.44 1184.86,763.638 1164.7,774.062 1189.99,743.21 1352.91,606.115 1351.63,630.194 1189.82,774.593 1148.73,787.372 1159.53,769.579 1056.9,871.412 1061.75,855.963 1078.32,837.715 1100.33,818.293 1176.14,741.451 1230.34,697.879 1214.41,726.078 1200.49,727.271 1333.98,605.096 1310.17,641.743 1233.45,730.894 1251.62,705.839 1250.13,692.844 1359.91,609.089 1270.68,691.902 1173.42,789.693 1093.28,844.698 992.343,930.855 936.692,975.31 937.007,953.88 895.619,990.48 873.093,1007.77 860.346,1013.98 866.248,1006.26 940.498,933.188 919.718,965.978 859.39,1023.34 844.224,1037.32 881.527,1008.49 944.533,935.552 856.953,1029.77 975.488,909.663 968.729,925.219 1036.25,852.669 940.712,948.221 1091.69,799.77 1224.41,691.838 1275.85,665.45 1292.87,656.459 1393.17,583.306 1500.78,517.909 1527.4,514.834 1677.81,423.041 1588.14,498.467 1728.92,377.172 1614.98,474.23 1494.58,570.287 1518.65,537.186 1575.5,480.96 1495.32,550.419 1466.66,559.421 1455.9,577.954 1539.68,504.281 1594.26,467.927 1623.72,452.931 1544.38,528.826 1552.04,519.828 1679.51,397.874 1633.88,441.56 1654.41,436.368 1696.76,404.292 1556.65,530.85 1480.56,577.58 1484.56,560.797 1444.43,588.836 1362.64,652.371 1332.93,668.603 1311.42,682.553 1285.93,695.738 1325.01,648.346 1274.46,693.546 1292.95,676.945 1239.25,722.708 1198.74,758.48 1198.79,742.159 1174.18,764.822 1150.2,787.634 1068.24,855.508 1017.28,898.961 1058.8,843.244 1030.88,876.207 1017.06,890.056 970.395,921.917 950.006,941.289 932.65,950.202 1009.36,864.856 1069.77,810.802 1009.43,881.443 1006.01,890.501 1022.93,881.353 970.352,933.772 912.832,970.696 973.963,901.706 1055.43,830.755 1023.74,881.266 1045.1,849.301 1120.23,789.289 1059.98,852.497 1136.9,779.723 1145.53,778.721 1217.95,716.278 1235.81,702.071 1211.75,732.229 1227.08,725.599 1204.53,729.073 1245.51,704.131 1243.67,695.617 1237.04,726.733 1277.79,664.832 1276.28,657.873 1431.66,566.305 1406.54,608.976 1276.2,702.104 1337.69,635.437 1355.7,621.377 1317.3,660.28 1224.73,741.231 1300.09,669.652 1362.49,611.221 1405.6,584.017 1277.55,680.519 1172.98,778.615 1143.3,802.945 1174.09,765.369 1140.5,790.119 1096.28,834.477 1222.56,699.552 1229.49,713.594 1242.4,695.709 1100.93,825.756 1198.02,738.868 1030.24,882.318 1002.36,912.458 1041.17,860.357 1031.54,877.453 1084,822.194 1080.74,827.813 1061.78,848.527 1097.92,816.012 1145.75,784.515 1144.11,783.948 1048.54,858.916 1027.88,888.206 995.354,913.452 1021.94,871.16 984.551,917.964 881.714,1013.57 897.204,985.278 894.687,979.591 860.836,1020.66 921.57,954.554 985.747,896.3 979.75,908.492 1067.5,819.359 1175.92,731.711 1134.08,781.044 1271.18,656.328 1131.12,788.77 1061.2,859.561 1145,759.738 1217.89,708.085 1226.34,718.922 1244.91,687.699 1172.92,766.204 1232.7,714.425 1205.3,741.872 1428.52,566.015 1484.88,538.114 1423.86,585.331 1475.04,533.977 1453.21,560.794 1305.88,672.794 1342.63,634.881 1238.21,718.713 1161.3,790.48 1143.18,790.718 1176.3,760.073 1107.67,817.677 1082.59,842.97 1086.18,821.018 1094.28,811.886 1103.59,806.848 1116.72,792.681 1047.11,862.21 1039.09,871.665 1035.08,882.294 1094.55,836.202 1137.16,783.698 1128.8,799.232 1130.33,786.56 1239.19,687.876 1278.46,693.13 1314.86,670.994 1200.5,755.866 1101.69,841.672 1014.7,911.06 1081.01,831.113 1125.62,792.472 1032.96,892.28 1003.14,910.855 940.1,961.399 930.918,961.371 941.426,946.147 898.482,996.084 791.902,1104.35 782.504,1099.97 805.626,1064.63 849.719,1011.72 831.579,1037.75 952.044,893.664 952.8,916.17 942.562,940.825 991.919,890.625 977.92,907.948 944.189,947.557 898.226,995.816 898.651,984.596 901.684,984.13 987.779,893.371 958.861,932.625 895.086,993.222 830.918,1047.52 801.109,1075.33 724.585,1158.07 789.912,1066.23 854.746,1011.77 925.1,947.332 984.803,896.479 991.472,906.075 1023.86,876.005 1045.53,853.804 1130.47,797.206 1172.52,752.852 1217.64,733.319 1248.29,706.682 1200.16,754.134 1165.35,787.864 1125.97,805.72 1159.29,765.502 1095.37,824.138 1136.02,777.781 1097.98,820.781 1099.76,809.649 1173.5,733.834 1181.03,748.74 1201.87,738.65 1290.9,665.966 1166.46,780.71 1056.18,880.345 1073.89,843.435 1075.87,844.387 1029.09,872.77 985.001,918.862 965.255,931.471 964.065,927.391 953.869,933.346 957.543,930.683 902.652,996.304 865.432,1023.14 831.237,1055.35 837.171,1044.39 823.209,1051.91 838.392,1031.03 841.376,1026.55 898.584,972.911 873.715,1004.16 869.002,1014 886.849,992.423 951.728,931.244 883.829,1002.55 993.964,877.116 977.396,902.715 1012.93,879.037 1025.37,870.511 1090.26,815.384 1250.79,669.21 1286.95,683.005 1326.6,651.884 1383.72,593.949 1404.63,584.784 1351.11,643.042 1392.88,594.46 1305.84,662.866 1293.79,681.128 1313.04,654.623 1396.92,594.848 1379.44,605.636 1356.4,630.916 1399.57,588.905 1298.11,690.532 1257.69,703.095 1309.89,652.918 1288.94,677.751 1407.29,583.612 1630.34,433.857 1605.89,465.898 1560.62,499.802 1535.17,517.178 1511.01,539.876 1516.93,532.167 1469.19,572.687 1532.79,504.449 1513.84,525.359 1436.07,591.422 1405.75,601.64 1416.2,595.08 1391.15,607.6 1417.7,574.092 1304.84,679.126 1299.85,676.642 1274.7,695.374 1252.02,711.876 1160.57,788.466 1164.2,774.466 1103.94,825.632 1162.11,757.027 1249.95,684.626 1283.6,677.397 1283.43,685.411 1270.36,692.787 1261.29,710.788 1238.61,733.907 1222.75,737.999 1137.36,817.655 1031.68,899.793 991.332,924.06 1008.21,887.234 999.313,895.092 1003.73,892.417 964.748,937.245 963.107,922.081 967.253,915.943 938.099,948.184 927.52,953.911 957.147,923.189 1030.33,855.008 1052.5,847.968 1098.67,814.4 1149.28,773.474 1131.06,795.386 1111.62,821.691 1144.49,783.68 1303.59,659.772 1179.13,771.65 1230.81,721.636 1141.64,814.74 1101.6,834.343 1113.46,810.41 1046.76,858.79 1018.05,882.317 979.099,915.329 1074.19,818.639 1048.03,869.237 1053.18,855.665 1003.36,902.534 1037.88,850.827 1033.24,857.491 1089.05,816.727 1106.22,796.456 927.695,954.411 945.945,947.282 992.571,890.261 1040.45,871.153 1072.85,836.131 1041.56,860.539 1150.95,747.231 1116.41,799.392 1011.98,905.415 981.997,933.386 949.365,946.14 999.751,891.485 918.017,969.421 856.27,1032.49 902.694,964.447 884.655,990.523 855.592,1017 878.286,995.841 919.794,956.11 940.665,934.606 976.686,910.499 930.921,970.365 961.21,927.151 939.959,938.173 806.663,1060.45 813.617,1055.33 796.34,1071.53 844.843,1015.11 824.228,1052.08 833.498,1040.65 808.772,1065.5 851.395,1015.22 897.198,986.862 880.03,1017.16 867.378,1022.55 837.51,1043.38 862.573,1012.92 865.494,1023.14 837.772,1041.81 795.876,1084.86 743.908,1134.98 751.441,1123.08 803.851,1056.72 766.042,1107.79 867.298,990.049 948.83,919.839 967.306,914.964 1018.88,871.411 971.331,924.565 915.762,987.178 988.064,904.728 935.808,956.958 966.855,919.224 1059.77,832.26 1039.33,853.963 960.345,919.45 955.905,929.341 845.508,1032.86 904.059,980.783 916.746,973.816 930.947,943.071 912.714,948.894 974.521,887.679 1005.41,872.842 1036.09,854.505 1101.08,806.927 1091.06,836.908 1069.57,833.963 1146.19,760.417 1220.79,703.028 1257.92,682.688 1346.85,636.129 1362.83,621.754 1342.85,628.65 1219.81,742.877 1249.23,726.007 1301.73,686.796 1189.47,765.367 1173.01,766.7 1116.68,806.645 1095.78,830.613 1073.97,849.505 1135.44,781.569 1108.29,816.044 1046.24,862.228 1073.99,824.725 1098.94,810.652 1069.83,846.039 1070.24,839.265 1087.06,830.276 1061.07,857.447 1057.54,847.231 1035.69,870.023 1045.71,863.516 994.779,904.994 998.096,897.641 1073.24,830.373 1096.21,817.429 1038.11,867.513 959.727,937.344 1014.1,868.352 1033.75,860.838 950.75,949.055 916.365,974.512 959.43,917.667 927.863,946.944 1004.2,876.142 981.722,911.595 983.694,909.479 1015.59,884.604 1073.94,816.853 1206.75,712.533 1206.6,733.532 1206.41,742.168 1208.58,737.723 1272.1,699.771 1302.31,667.041 1233.8,731.962 1212.28,742.616 1152.54,789.477 1211.03,730.967 1277.01,682.087 1241.62,718.544 1275.95,679.828 1197.18,762.01 1151.72,787.484 1118.33,809.338 1156.17,760.455 1134.3,792.119 1104.36,812.742 1137.73,787.98 1108.57,819.96 1127.65,805.189 1158.57,772.75 1285.84,659.126 1330.94,642.14 1302.94,670.799 1291.11,674.518 1271.8,693.994 1386.92,603.254 1273.28,699.123 1180.16,777.434 1187.66,754.423 1149.98,779.04 1246.69,688.084 1241.47,697.759 1214.1,733.584 1149.73,789.369 1154.75,771.056 1135.38,803.821 1220.14,709.146 1161.5,758.149 1212.64,693.911 1090.19,756.194 1119.57,740.862 1235.89,671.594 1247.17,687.408 1300.98,651.346 1351.92,616.956 1363.49,618.407 1366.11,636.269 1260.96,714.658 1324.74,645.791 1393.21,585.982 1216.17,743.645 1172.17,780.458 1156.04,776.946 1181.05,758.617 1185.02,766.385 1145.2,799.031 1175.13,764.982 1312.47,634.863 1347.28,623.499 1347.78,627.673 1321.88,664.337 1169.99,786.759 1170.17,772.557 1144.47,789.019 1160.28,765.819 1095.58,821.105 1162.88,758.532 1118.07,809.233 1083.43,839.963 976.973,927.295 1023.06,868.133 1013.46,876.433 994.132,898.48 1035.73,852.208 1070.85,835.882 1078.78,825.845 1184.98,730.872 1224.31,705.504 1147.84,776.367 1258.19,682.673 1243.99,709.778 1279.74,678.976 1212.37,743.619 1264.15,693.558 1315.43,648.78 1198.71,756.415 1237.14,712.144 1206.54,738.244 1252.4,700.523 1248.59,710.287 1269.65,685.533 1241.93,680.679 1235.25,718.582 1152.32,770.756 1148.69,781.769 1148.79,765.587 1200.46,722.4 1221.19,725.032 1218.43,723.561 1305.59,642.671 1288.28,669.58 1334.25,625.977 1344.27,625.948 1279.61,667 1332.8,629.955 1264.73,694.533 1330.54,632.253 1340.97,628.233 1274.65,669.468 1352.57,637.721 1430.7,583.191 1444.96,588.892 1408.31,607.422 1369.66,641.863 1349.32,659.927 1393.9,605.625 1463.74,555.394 1395.36,618.475 1380.35,631.788 1325.1,654.997 1309.59,670.095 1398.77,590.172 1355.58,628.704 1303.37,677.751 1212.61,754.386 1185.62,762.779 1241.37,703.857 1204.06,749.366 1307.65,643.528 1349.7,624.905 1321.39,658.206 1285.34,695.973 1212.01,747.293 1194.53,741.989 1219.66,708.872 1277.44,670.157 1284.62,675.989 1407.26,574.607 1461.3,556.361 1456.89,570.477 1360.78,644.084 1423.37,574.808 1348.03,642.632 1265.54,714.088 1261.85,709.317 1330.09,641.109 1347.99,636.551 1423.7,597.107 1371.14,621.712 1293.88,682.453 1222.43,745.577 1145.92,794.274 1165.73,770.792 1156.99,769.136 1125.08,799.962 1144.88,778.959 1115.33,803.617 1004.01,907.885 1042.18,866.034 1014.94,889.818 1004.44,890.065 1022.88,855.25 1019.82,879.835 1019.21,886.192 1018.94,886.219 1044.44,853.434 1038.57,869.572 1106.73,794.227 1230.42,698.376 1283.96,668.351 1215.82,727.937 1184.37,760.989 1264.6,720.037 1252.84,714.729 1293.93,681.196 1244.46,730.42 1210.46,742.335 1159.37,781.548 1120.46,807.889 1086.56,842.478 1054.33,853.209 1004.38,902.531 984.022,912.62 989.179,907.059 954.472,944.223 1020.24,865.392 997.103,899.232 925.288,967.331 985.916,901.344 1005.32,883.555 934.615,956.95 878.255,1004.98 879.063,992.461 932.468,942.352 937.834,934.868 931.881,952.186 914.708,973.424 871.53,1012.93 828.796,1046.55 953.267,918.075 987.174,902.732 987.431,901.795 1071.19,829.059 1137.32,767.336 1137.64,788.429 1134.75,784.063 1240.46,699.292 1158.39,782.649 1125.73,810.832 1203.94,726.946 1193.31,745.625 1125.89,821.231 1172.44,759.566 1211.49,724.99 1328.4,621.326 1413.2,562.228 1399.93,595.197 1411.03,595.851 1268.58,722.009 1192.44,766.708 1162.59,787.306 1225.06,720.58 1171.82,759.8 1153.89,778.505 1152.2,771.844 1095.74,826.648 1099.85,811.861 1150.32,768.783 1165.84,757.497 1179.38,738.443 1142.42,787.632 1252.21,682.625 1162.37,770.695 1152.26,781.564 1119.85,818.59 1077.9,827.405 1087.23,829.909 1134.55,785.644 1193.69,733.675 1101.85,822.769 995.915,923.886 1060.85,844.523 1077.76,840.216 1011.69,901.352 956.706,947.563 920.205,975.944 929.328,955.785 869.87,1016.13 954.513,911.451 920.743,958.941 969.625,916.52 963.737,916.658 1048.84,854.712 1114.7,796.127 1130.66,793.619 1061.81,868.974 962.205,950.297 951.792,947.885 985.269,903.189 1127.77,759.81 1145.3,757.239 1152.74,760.052 1194.94,733.317 1202.44,730.52 1179.17,752.213 1214.74,733.914 1211.58,735.811 1284.15,665.845 1299.59,656.418 1369.69,604.667 1326.12,650.108 1229.93,729.153 1261.03,691.323 1243.18,707.833 1205.26,748.261 1289.93,672.568 1363.91,623.82 1408.34,604.01 1369.61,630.253 1231.2,745.342 1201.73,752.276 1156.5,790.907 1160.75,766.624 1192.63,736.992 1274.33,678.632 1298.05,667.937 1264.11,708.002 1223.04,727.191 1190.19,748.835 1176.76,761.031 1189.24,744.951 1173.87,763.775 1173.51,766.402 1141.84,802.006 1063.26,854.963 1083.86,827.314 1030.48,882.408 994.117,913.619 990.634,897.104 949.686,940.308 1062.3,825.812 1084.57,808.102 1100.42,815.725 1012.5,897.23 1085.83,810.292 1092.49,819.499 1050.89,859.582 970.584,936.904 946.592,950.427 1020.38,860.056 1042.77,844.903 965.479,932.561 1041.34,852.527 1052.34,850.513 1079.82,826.72 1121.1,801.275 1026.67,883.731 1004.75,895.024 1001.65,876.783 1010.5,880.992 913.686,974.31 907.882,983.049 898.389,993.604 940.271,933.336 916.769,952.708 1016.24,868.191 1041.03,853.998 1110.95,791.015 1233.49,692.536 1234.64,716.582 1343.38,630.393 1228.12,732.166 1319.88,664.579 1307.32,666.586 1183.74,759.905 1197.06,760.67 1195.8,749.304 1225.29,731.926 1339.14,652.431 1339.34,635.606 1431.61,559.639 1484.74,544.266 1624.87,444.394 1657.17,448.266 1547.52,543.887 1565.04,512.613 1522.31,537.646 1425.81,609.294 1438.34,572.473 1338.54,663.96 1315.79,668.934 1288.64,683.019 1304.62,663.121 1223.64,736.973 1224.4,729.389 1198.61,747.649 1197.08,746.214 1187.67,756.482 1141.77,785.026 1073.07,849.724 1021.71,881.89 1022.24,876.024 1122.96,776.87 1134.67,780.267 1160.2,770.829 1155.96,773.935 1247.62,696.907 1131.23,807.645 1156.87,773.805 1218.05,723.885 1191.39,752.377 1157.17,786.681 1183.21,757.184 1111.05,828.198 1062.54,861.895 1026.21,896.451 1022.67,887.868 1010.19,882.402 980.267,912.718 962.315,920.879 954.83,947.785 933.105,956.903 952.452,929.139 926.596,949.434 910.212,967.928 991.644,890.805 959.427,925.185 976.969,912.701 980.033,916.367 1012.96,895.375 1083.32,835.259 1223.9,699.162 1243.93,692.988 1270.11,701.737 1281.67,693.579 1258.06,713.295 1162.92,792.618 1129.54,825.266 1041.25,900.897 1064.73,857.356 961.906,944.728 942.043,948.354 858.697,1026.51 870.765,1002.81 887.406,988.274 878.242,1003.68 948.519,934.307 978.987,910.354 1075.57,812.263 1031.35,864.937 1148.63,760.286 1079.04,844.085 1070.71,858.199 1025.58,893.602 1008.82,894.858 949.913,944.882 992.913,892.301 1008.11,871.595 1068.37,817.853 1027.46,869.787 973.591,931.193 1000.4,898.22 907.822,966.157 951.134,930.836 1049.33,825.658 994.216,873.435 949.771,929.799 946.99,939.467 939.428,950.93 980.688,936.213 1007.01,889.906 998.635,893.257 1016.91,879.428 959.121,927.385 902.071,981.206 857.56,1023.53 848.237,1029.16 859.203,1022.55 843.712,1035.46 877.824,984.935 880.291,989.135 935.875,925.168 962.762,918.042 896.491,992.603 856.9,1030.76 826.251,1051.62 838.201,1032.2 862.423,1018.3 816.868,1070.58 826.259,1056.74 802.491,1082.12 883.232,994.827 876.632,1005.83 815.861,1060.76 895.734,966.162 901.313,963.351 964.673,902.704 1021.34,853.749 1075.95,820.136 1030.24,870.142 984.895,904.926 1096.43,800.69 1086.03,831.125 1146.3,764.246 1072.12,834.261 1107.12,809.199 1148.55,785.585 1241.18,703.89 1192.03,727.269 1197.88,736.797 1075.5,842.074 1055.22,874.637 1138.07,798.582 1107.01,807.155 995.246,912.714 1064.22,853.479 975.433,906.927 1007.29,879.718 1053.82,843.662 1091.08,821.958 1154.87,758.368 1079.94,822.009 1128.29,781.563 1128.54,768.669 1045.47,859.718 1016.46,894.02 972.879,925.05 953.701,940.812 936.006,944.567 929.668,952.843 986.459,893.638 1040.94,858.34 1074.79,824.917 1050.99,853.895 1070.78,835.368 1117.54,798.336 1092.93,812.645 1066.9,849.626 955.444,946.016 901.09,995.929 832.409,1052.52 820.673,1058.63 883.628,982.165 892.448,979.718 888.182,988.034 901.218,972.134 834.788,1042.55 869.738,1002.22 873.009,996.721 850.626,1024.31 934.897,946.09 1017.93,862.21 981.647,914.604 933.774,956.302 916.959,974.757 902.882,986.534 848.31,1040.07 807.862,1070.02 775.141,1095.55 789.975,1089.19 789.799,1086.94 827.303,1059.13 841.213,1036.04 777.463,1101.88 828.846,1042.26 833.088,1027.46 929.58,939.765 983.246,885.705 1060.59,815.335 1096.67,793.566 1150.05,766.635 1109.28,811.649 1155.46,765.728 1098.43,822.688 1108.88,811.549 1130.41,800.493 1002.94,902.14 958.997,941.891 934.944,966.694 895.69,992.104 994.524,875.026 1018.45,865.855 988.595,900.757 1027.16,861.275 931.394,960.828 910.415,981.525 877.639,1011.51 915.828,971.833 854.517,1037.24 850.429,1025.25 834.476,1038.62 933.225,940.927 869.525,1012.12 875.744,1004.65 908.029,972.917 870.245,1014.98 905.882,972.188 816.106,1058.87 800.091,1071.86 853.735,1010.54 904.601,960.815 929.419,940.746 880.296,1007.84 848.17,1035.56 823.246,1062.62 844.566,1028.53 840.592,1030.73 892.912,985.419 952.823,911.422 963.119,902.032 974.488,908.378 1072.62,814.768 1155.91,769.073 1093.81,824.153 957.949,953.841 914.358,986.503 923.757,966.633 877.739,1010.76 889.349,989.165 941.492,928.469 914.226,958.793 895.367,977.533 868.667,1014.21 865.495,1014.37 932.687,942.568 1029.36,853.356 1071.63,823.437 1125.56,785.271 1224.52,703.804 1446.54,523.132 1490.23,527.497 1436.11,597.414 1280.29,718.738 1247.95,734.485 1283.62,704.217 1235.69,726.275 1133.34,819.668 1159.51,779.074 1108.06,822.45 1038.23,879.991 1091.55,812.186 1106.92,796.304 1133.11,787.91 1143.12,772.922 1225.63,694.22 1188.61,744.737 1188.58,748.677 1176.08,752.317 1160.85,772.851 1144.46,799.167 1132.22,793.452 1096.8,828.309 1135.23,779.308 1162.55,763.884 1171.16,749.247 1208.98,731.807 1245.56,701.771 1268.78,680.179 1212.67,738.459 1228.03,724.35 1193.66,745.673 1159.33,781.299 1083.55,852.336 1045.87,882.236 996.73,920.43 978.074,924.833 1032.41,859.208 1083.23,813.521 1166.67,737.699 1209.09,701.373 1197.4,734.513 1122.56,816.015 1090.7,835.236 1063.5,858.583 1075.39,837.086 1078.29,831.43 1073.31,848.804 1090.15,825.414 1107.41,803.808 1198.23,722.429 1205.28,725.654 1204.81,732.969 1260.07,680.536 1276.2,677.672 1301.03,657.783 1213.66,737.989 1260.23,698.733 1249.7,703.738 1246.39,710.563 1362.14,623.728 1379.76,599.194 1345.47,628.068 1294.85,679.165 1268.4,696.504 1311.7,633.297 1265.01,687.734 1304.83,667.76 1156.55,791.876 1163.35,780.434 1213.15,724.024 1338.38,625.953 1399,584.744 1289.83,675.492 1214.93,734.274 1314.84,639.217 1277.36,683.72 1256.63,720.582 1279.04,711.499 1295.74,684.665 1211.95,755.495 1128.94,811.79 1178.81,746.279 1219.43,709.994 1132.83,794.049 1091.47,824.422 1109.56,823.299 1171.2,765.099 999.382,921.386 1061.75,842.471 984.026,910.35 991.233,903.398 934.592,954.981 882.333,1008.98 907.8,965.485 881.065,990.776 928.329,948.797 973.435,909.011 942.725,937.945 997.386,889.434 1065.02,838.612 1056.24,859.114 976.799,933.829 946.417,954.268 970.017,918.85 950.472,930.559 875.321,994.205 834.886,1040.76 757.495,1123.43 788.167,1095.64 883.053,980.675 906.692,969.655 936.478,945.774 1009.14,880.318 1073.9,813.197 1073.37,820.523 1119.19,784.308 1129.88,785.574 1100.1,815.507 1101.82,811.143 1091.68,845.758 1089.16,842.23 1016.32,901.79 923.041,978.781 901.562,995.914 1046.08,836.17 940.431,945.523 927.341,954.27 962.648,928.564 1012.17,878.824 1033.46,863.745 1181.46,709.543 1209.91,710.593 1196.97,729.027 1111.61,812.452 1113.2,805.503 1077.6,847.316 1069.8,844.35 1171.09,731.618 1217.05,720.273 1213.23,730.951 1256.31,693.869 1283.46,671.388 1308.99,646.591 1312.34,660.77 1346.7,626.547 1387.63,612.133 1338.79,662.51 1284.91,696.132 1267.68,694.875 1247.64,705.291 1298.82,656.45 1360.74,616.638 1182.6,769.038 1066.67,863.936 1038.93,881.392 992.205,915.802 893.706,1010.44 895.929,996.198 910.167,978.9 886.642,996.297 889.003,1000.68 862.237,1019.17 915.291,964.155 963.873,918.106 1015.46,874.12 1090.45,796.779 1082.62,807.456 1058.71,837.119 1112.31,782.219 1154.78,751.724 1302.93,616.563 1431.89,538.064 1406.21,586.935 1416.97,597.176 1411.85,591.371 1420.11,590.532 1334.54,664.88 1340.06,651.412 1335.45,660.431 1319.85,653.203 1380.46,581.716 1459.52,533.153 1426.53,586.646 1281.07,714.059 1259.88,715.529 1212.23,747.964 1211.95,737.019 1180.57,761.317 1132.06,800.359 1145.52,784.389 1254.64,687.918 1255.84,688.87 1133.49,797.032 1115,796.662 1104.27,808.074 1138.03,773.707 1114.34,812.627 1093.82,842.594 1093.2,849.994 1118.42,823.43 1070.81,864.14 1089.57,834.101 1041.55,860.373 1064.81,841.564 1131.98,784.404 1182.48,720.993 1096.76,796.32 1106.51,793.303 1116.43,791.825 1147.07,767.845 1107.82,811.407 1125.5,802.202 1102.5,834.449 1101.75,836.21 1033.35,873.559 1002.28,898.671 933.009,968.854 992.615,897.605 980.837,924.278 997.425,909.43 964.362,933.386 934.629,969.477 879.001,1004.28 950.173,926.859 1002.82,876.524 1101.69,794.248 1185.68,729.518 1142.35,777.004 1100.1,822.045 1077.42,842.72 1070.17,836.881 1044.72,871.629 1050.07,853.461 994.733,905.204 967.05,910.998 938.203,946.033 895.5,985.987 891.264,1004.23 891.354,995.033 891.789,984.614 898.296,982.662 851.599,1019.37 869.708,1003.55 891.337,982.373 889.917,990.225 935.175,930.238 1029.83,855.973 1041.01,854.051 1099.5,792.725 1119.27,786.803 1204.23,710.337 1207.74,710.955 1275.52,670.997 1261.1,688.876 1281.31,678.493 1285.04,670.289 1168.09,772.65 1150.87,797.46 1185.81,754.719 1136.9,780.434 1281.39,664.221 1311.94,659.413 1253.64,727.773 1192.29,806.387 1146.62,824.311 1056.75,889.729 1003.07,921.753 1012.41,892.401 1014.34,883.521 1056.37,839.698 1096.66,800.725 940.006,963.81 888.31,1010.53 892.327,990.708 934.42,943.019 952.773,935.775 924.179,958.978 962.217,926.225 1067.76,812.783 1180.55,707.028 1187,726.751 1213.43,721.913 1358.38,593.164 1434.75,559.325 1416.35,599.676 1275.39,717.558 1198.29,767.668 1195.84,754.499 1168.58,774.206 1124.5,805.262 1074,861.358 1061.45,863.17 1068.62,844.701 1083.13,807.549 1115.6,796.222 1157.26,755.503 1161.2,758.651 1141.76,784.521 1150.03,771.389 1109.07,790.714 1200.57,713.604 1341.54,613.265 1437.28,555.421 1246.74,734.018 1194.16,770.079 1144.95,796.905 1188.54,738.633 1158.57,764.875 1192.38,743.92 1228.04,705.404 1247.63,704.814 1224.93,725.001 1161.03,774.838 1168.91,757.486 1084.08,845.961 1104.35,826.961 1077.45,844.483 1093.35,827.094 1097.52,822.96 1086.77,834.399 1094.41,831.439 1012.8,904.083 954.561,956.296 939.728,959.549 928.548,959.859 896.362,988.902 851.566,1033.26 814.71,1070.57 837.326,1028.49 914.727,951.82 930.713,951.196 1009.59,876.165 1046.44,849.349 914.104,977.099 878.143,1004.85 900.581,971.293 904.863,976.7 931.701,948.414 964.618,925.994 944.31,935.223 1039.31,851.398 1148.46,747.773 1161.98,766.468 1122.5,808.867 1216.4,726.246 1227.62,726.503 1174.73,774.768 1031.08,892.347 1069.55,841.409 1010.07,899.099 963.492,934.365 947.952,945.889 935.551,952.156 928.442,952.873 869.39,1011.8 891.301,978.831 946.272,925.975 952.157,921.377 886.836,994.125 939.805,941.639 1036.63,856.848 1017.56,875.199 1024.45,876.596 1022.98,880.352 1002.32,893.262 1028.39,873.085 989.715,929.099 974.136,930.577 1047.21,861.499 1056.46,868.121 981.925,941.073 955.243,959.425 891.616,1010.34 916.463,969.454 909.25,962.474 1021.35,847.271 1118.7,778.207 1180.98,731.03 1377.17,575.4 1471.08,523.534 1535.19,490.222 1629.83,428.35 1645.03,439.266 1509.34,551.549 1490.21,554.66 1466.8,579.438 1473.01,568.693 1364.86,649.718 1348.03,649.665 1401.05,596.751 1421.98,590.842 1386.38,631.471 1394.33,612.318 1390.68,599.568 1404.07,587.774 1370.61,625.521 1296.27,676.73 1331.33,644.421 1343.86,631.181 1272.49,695.416 1270.49,700.856 1298.2,678.101 1273.64,701.251 1267.92,699.507 1235.89,720.418 1251.41,700.969 1304.49,657.937 1309.22,683.174 1170.1,789.105 1152.96,791.484 1118.98,809.988 1136.08,786.616 1349.27,573.5 1379.37,587.032 1434.74,549.406 1537.95,485.185 1453.98,570.482 1495.82,540.911 1476.72,561.374 1402.14,619.338 1322.26,674.546 1346.22,647.598 1273.55,703.407 1251.41,719.381 1225.95,728.721 1233.46,712.845 1293.6,664.577 1216.34,745.089 1314.11,642.653 1258.63,699.763 1329.78,631.44 1358.81,629.206 1242.11,736.039 1186.98,786.032 1182.71,757.568 1175.32,754.268 1148.8,783.331 1136.85,794.631 1173.79,760.276 1130.7,799.044 1136.74,789.183 1226.41,713.786 1231.21,724.452 1313.48,667.409 1498.63,532.04 1497.81,544.367 1522.67,527.121 1493.13,554.68 1428.7,591.562 1368.16,640.208 1322.56,680.234 1297.46,679.596 1112.88,844.415 1123.77,812.804 1105.45,819.787 1056.18,863.785 1059.14,836.831 1031.89,869.715 1007.65,895.635 1041.42,862.708 1065.71,837.43 1062.72,846.62 1046.35,864.453 1095.83,796.427 1159.3,756.5 1180.4,742.313 1288.94,666.495 1279.6,676.041 1410.69,577.393 1312.02,664.347 1365.07,623.676 1401.55,612.794 1410.4,590.916 1331.02,675.219 1241.14,745.95 1154.21,808.974 1072.86,872.852 1014.79,909.36 967.611,940.578 1004.62,883.049 1008,881.055 1019.47,865.592 1007.54,892.185 1031.13,866.438 1042.16,863.715 1052.38,850.684 1016.42,874.647 1073.87,824.556 1117.2,792.152 1115.17,807.425 1163.89,766.902 1106.75,825.927 1110.64,818.15 1095.65,839.663 1099.83,824.871 987.553,916.888 936.261,962.693 926.951,959.736 860.308,1025.96 884.118,1012.03 934.614,948.75 837.344,1054.04 890.374,974.524 919.706,956.042 959.129,928.948 944.16,936.896 916.804,960.214 919.676,949.974 923.961,954.315 863.259,1013.2 864.609,1014.74 869.417,1022.69 908.419,968.503 982.626,903.759 999.466,887.209 1044.53,844.637 1069.14,830.512 1051.15,847.319 1117.41,789.213 1153.57,763.875 1113.71,805.241 1089.84,833.65 1176.74,784.403 1264.62,695.696 1336.05,641.305 1209.36,749.42 1130.64,808.806 1171.6,758.079 1090.01,833.613 1137.31,789.119 1113.63,816.655 1109.09,829.518 1063.87,850.141 1128.17,772.603 1207.58,701.161 1212.76,710.63 1222.35,710.897 1213.68,725.984 1227.28,716.24 1248.05,699.837 1212.99,734.002 1162.79,778.098 1118.65,821.572 1095.24,832.922 1086.34,830.882 972.617,938.449 955.981,937.76 969.625,924.641 980.964,913.672 941.691,949.011 948.958,935.403 902.286,988.935 873.569,1019.01 913.313,964.324 912.057,956.241 962.564,911.677 978.797,902.26 929.685,959.988 840.208,1045.72 832.05,1054.41 802.482,1076.62 759.66,1115.84 734.974,1138.57 751.627,1122.85 785.585,1076.61 759.777,1110.39 787.727,1077.72 867.143,998.218 898.847,976.889 885.913,991.84 880.149,997.226 882.526,1004.86 911.172,973.153 892.745,987.426 888.009,989.004 937.966,933.923 963.347,918.533 946.574,945.183 991.943,904.893 952.774,935.996 894.6,996.991 923.326,957.703 896.621,980.371 894.698,998.225 895.838,984.017 895.048,983.27 1006.84,883.727 1040.33,869.016 1016.96,893.429 965.845,925.51 906.284,985.108 915.357,979.962 908.675,981.787 852.494,1032.72 928.288,940.423 908.834,962.542 1008.74,883.728 962.348,937.31 966.103,926.345 983.714,907.647 910.782,968.986 886.236,1013.37 873.746,1022.57 812.584,1072.27 755.506,1125.46 850.044,1006.98 856.063,1024.26 891.315,985.677 936.297,937.501 1030.24,852.174 1048.51,846.101 1063.93,834.408 1175.16,736.017 1196.7,719.596 1239.22,701.519 1211.9,732.503 1170.16,767.661 1169.8,749.785 1120.97,796.608 1060.04,863.423 997.651,934.23 999.377,910.464 960.779,937.418 1056,826.381 1111.93,790.762 1243.6,667.149 1220.28,710.727 1239.54,695.849 1314.61,637.556 1289.35,674.238 1409.1,560.502 1314.11,659.416 1339.51,637.414 1391.37,599.922 1461.76,538.467 1296.64,684.669 1329.49,644.8 1269.06,690.596 1225.7,726.448 1149,792.859 1143.86,785.013 1076.41,835.543 1069.25,828.701 1131.17,771.335 1268.78,661.288 1202.8,738.11 1343.56,625.497 1395.54,603.661 1402.81,610.606 1379.43,617.983 1313.72,668.95 1239.05,722.702 1117.09,815.116 1087.5,832.448 1125.88,785.395 1113.14,806.383 1120.43,797.946 1084.46,820.265 1118.27,791.328 972.728,929.542 997.438,898.589 1039.3,854.658 1138.13,763.282 1090.43,809.36 1082.47,836.216 1088.69,829.791 978.2,935.923 933.804,969.32 872.763,1020.28 887.873,993.284 854.216,1029.26 876.397,993.255 941.703,931.79 983.06,893.512 1002.49,870.655 942.331,949.613 910.75,988.838 955.98,918.038 880.624,1008.41 916.864,957.39 1029.98,861.957 1047.51,847.996 964.288,922.971 1043.01,833.237 1120.47,781.745 1168.69,751.4 1223.2,710.662 1327.7,627.388 1324.64,647.362 1371.62,609.618 1364.34,628.959 1348.81,627.697 1526.4,513.572 1604.14,448.101 1539.68,522.089 1477.49,563.929 1379.78,640.823 1317.07,673.867 1240.41,726.984 1274.1,686.827 1195.77,755.999 1163.3,772.897 1143.91,786.618 1169.03,755.068 1082.21,842.661 1101.04,814.704 1111.6,802.538 1200.79,720.537 1213.81,728.941 1152.14,789.231 1142.35,793.502 1161.58,770.178 1263.48,671.354 1191.18,742.152 1217.19,727.485 1237.93,732.845 1110.01,842.406 1060.74,861.159 1090.52,820.161 1232.85,697.712 1191.23,752.163 1200.11,746.421 1247.3,706.819 1265.08,696.3 1263.48,689.43 1437.62,575.103 1434.98,574.157 1486.61,552.484 1393.48,624.288 1367.4,639.154 1278.03,702.935 1256.58,709.774 1258.89,703.368 1310.4,644.427 1428.43,546.559 1366.21,620.946 1265.07,716.175 1262.61,692.926 1148.51,790.977 1213.83,722.4 1156.26,777.909 1228.44,698.296 1171.96,752.516 1276.44,690.305 1282,681.498 1284.92,681.807 1374.6,626.28 1386.83,610.821 1369.46,629.832 1295.55,687.808 1276.68,695.548 1396.52,584.116 1333.57,641.185 1330.91,642.719 1191.09,762.477 1190.1,752.957 1217.76,726.269 1177.65,766.445 1255.58,688.881 1354.06,646.629 1349.43,643.488 1363.85,616.581 1345.46,649.452 1326.23,653.41 1223.94,731.283 1194.16,742.28 1311.56,634.222 1344.23,643.39 1346.32,627.396 1401.86,588.566 1468.87,535.255 1404.69,614.126 1400.38,603.492 1570.29,475.266 1555.18,497.185 1491.67,556.023 1435.99,595.362 1443.5,580.969 1467.01,546.377 1550.15,485.371 1601.31,461.69 1451.98,583.714 1488.85,534.615 1395.9,607.938 1336.97,661.313 1281.74,702.124 1270.95,694.492 1296.66,654.801 1195.34,757.579 1149.23,795.846 1088.67,831.386 1103.81,815.743 1111.95,799.295 1131.6,786.369 1141.16,786.662 1091.05,835.194 1081.82,828.937 1026.09,886.283 1073.24,842.108 1010.96,900.169 1009.19,893.889 1114.9,788.487 1208.52,714.53 1179.49,758.912 1175.16,750.845 1219.95,725.775 1153.58,781.853 1194.57,754.755 1026.23,892.879 1039.62,864.841 999.35,906.171 977.407,924.708 995.225,902.951 952.798,938.233 928.002,964.252 877.314,1001.89 869.802,1010.09 833.27,1049.77 847.478,1027.64 815.81,1064.74 815.634,1055.36 843.743,1024.71 807.73,1069.56 775.61,1105.82 782.266,1083.85 802.221,1063.29 825.738,1045 952.19,901.969 1007.64,867.612 1033.58,849.301 971.251,918.854 966.588,919.494 873.895,1011.1 959.476,922.417 951.719,941.66 856.082,1037.01 885.828,997.593 923.127,964.611 907.959,985.012 941.248,950.585 885.294,1003.43 887.802,981.921 914.514,963.012 839.226,1041.94 859.226,1025.58 856.784,1036.23 913.635,971.19 912.538,945.705 902.473,977.614 930.837,943.281 954.92,929.043 1151.19,738.632 1191.67,727.666 1298.74,651.585 1322.71,651.754 1309.83,669.136 1404.85,592.925 1356.09,637.893 1374.26,619.283 1520.14,527.868 1493,557.253 1739.5,361.325 1724.31,402.111 1682.12,425.35 1547.04,543.511 1541.16,533.162 1598.57,478.464 1535.76,519.935 1538.04,517.967 1577.44,490.34 1523.01,534.919 1499.43,542.977 1476.57,557.033 1411.4,605.452 1419.48,588.239 1354.33,641.248 1255.02,723.983 1182.95,780.009 1195.42,750.584 1121.34,817.818 1159.15,768.073 1144.1,778.68 1149.1,769.146 1156.34,768.778 1270.85,666.994 1212.72,733.341 1104.17,834.071 1141.65,781.936 1168.21,754.994 1050.83,870.323 983.813,927.546 975.211,926.056 956.094,937.774 1024.44,865.956 1086.1,812.28 1103.01,795.647 1014.95,901.325 1023.5,881.432 1018.54,886.789 1028.79,878.266 1091.8,801.492 981.287,903.632 947.33,939.514 1045.97,854.385 1028.03,868.88 963.656,921.574 985.59,899.118 920.173,960.041 868.945,999.911 922.73,952.704 931.26,946.917 946.768,951.686 856.099,1035.96 880.302,993.853 927.907,938.971 950.315,932.998 988.394,902.254 945.368,954.579 965.068,919.33 1008.38,879.029 897.167,999.968 897.158,1001.47 867.799,1028.62 809.001,1080.8 939.112,926.425 982.555,899.199 983.952,909.443 1024.18,869.941 1059.11,843.913 1059.54,861.665 1108.86,807.89 1135.64,793.482 1181.27,772.483 1061.05,873.319 1031.98,882.574 1045.03,861.438 1114.87,797.036 1146.36,764.695 1136.67,787.761 1076.63,846.087 1034.62,897.997 1023.48,899.119 997.394,899.773 1020.82,871.215 1029.58,870.433 1005.01,896.198 1073.93,819.176 1207.71,716.58 1247.03,699.647 1183.44,761.872 1238.87,703.097 1165.79,777.927 1148.64,787.034 1106.61,800.957 1119.47,794.268 1038.28,870.383 1040.86,877.391 1222.37,709.17 1232.45,715.684 1160.66,776.826 1241.03,698.925 1135.31,783.651 1150.8,777.44 1106.65,808.529 1055.72,855.569 1022.73,876.195 994.61,901.76 942.374,948.991 1000.91,886.138 962.422,921.434 1107.02,790.824 1205.24,706.672 1169.67,763.514 1184.26,754.953 1271.84,684.141 1327.47,648.177 1301.93,677.616 1457.79,559.531 1602.07,466.654 1542.83,524.643 1486.82,554.961 1429.02,598.593 1425.68,599.655 1497.02,525.024 1468.26,557.251 1417.05,588.21 1431.03,571.949 1456.13,560.566 1442.9,573.322 1392.47,612.166 1353.09,645.521 1307.6,685.558 1222.4,751.33 1188.33,765.982 1147.56,789.152 1227,699.474 1386.39,562.404 1425.78,560.171 1334.27,666.196 1393.85,601.566 1389.31,615.496 1419.82,573.275 1360.68,642.079 1381.35,616.083 1347.92,649.62 1263.82,715.121 1288.68,680.207 1252,719.936 1169.34,784.143 1043.78,890.425 969.674,948.355 965.307,936.492 923.584,964.256 945.637,934.737 984.525,889.161 975.553,910.283 960.316,925.78 1005.4,883.287 1049.77,848.113 1014.82,888.401 1050.95,841.437 1075.73,820.612 1097.24,819.55 1136.65,786.131 1197.52,726.797 1359.87,610.242 1303.91,665.849 1416.14,580.305 1460.55,561.934 1503.37,535.312 1320.8,684.009 1347.84,645.581 1254.14,722.265 1198.53,766.411 1155.03,795.341 1158.97,774.128 1225.12,710.76 1209.08,727.434 1129.77,803.655 1051.08,869.657 1065.69,838.679 1064.69,839.978 1069.9,834.381 1088.57,833.176 1050.95,870.247 1046.84,860.649 1093.04,810.471 1079.05,833.58 1065.15,829.407 1105.42,803.553 1052.76,865.209 995.354,910.213 982.242,915.73 1038.46,860.837 962.868,933.583 969.744,918.303 961.349,926.999 898.426,987.562 951.2,931.534 922.571,959.588 767.288,1105.28 715.998,1166.93 731.983,1137.24 802.928,1049.01 816.654,1044.45 854.938,999.328 877.165,997.398 879.417,998.021 873.033,1010.02 885.319,992.955 907.924,962.617 899.756,980.342 942.773,942.798 965.136,926.352 1026.14,877.331 1004.86,904.697 963.962,931.714 1014.41,883.612 1095.73,805.811 1046.75,858.369 977.097,923.296 897.273,1005.82 841.148,1046.94 796.053,1088.14 725.104,1161.02 722.119,1152.55 711.888,1165.95 697.059,1178.01 726.62,1144.24 737.765,1132.1 732.754,1142.06 764.227,1105.49 800.705,1061.71 765.085,1103.88 796.622,1063.99 806.871,1060.91 789.704,1083.38 796.395,1075.31 764.71,1106.81 776.144,1092.73 808.028,1060.14 806.328,1063.64 802.087,1067.88 786.391,1085.78 760.129,1116.31 745.729,1125.44 753.521,1115.46 714.696,1161.59 712.59,1163.31 722.914,1156.16 735.674,1133.31 818.906,1039.33 923.074,933.155 872.749,998.413 885.377,983.995 839.985,1031.47 901.598,966.481 860.782,1019.53 896.841,969.437 923.139,957.044 919.056,961.978 932.09,947.95 1001.14,888.277 958.231,936.852 1004.03,892.416 979.937,915.399 973.753,924.637 990.46,894.015 937.966,934.577 1019.59,855.104 1102.43,787.644 1070.39,822.817 1142.14,764.612 1190.46,730.84 1174.81,773.306 1078.92,850.675 "/>
<path clip-path="url(#clip160)" d="M186.863 198.898 L550.897 198.898 L550.897 95.2176 L186.863 95.2176  Z" fill="#ffffff" fill-rule="evenodd" fill-opacity="1"/>
<polyline clip-path="url(#clip160)" style="stroke:#000000; stroke-linecap:round; stroke-linejoin:round; stroke-width:4; stroke-opacity:1; fill:none" points="186.863,198.898 550.897,198.898 550.897,95.2176 186.863,95.2176 186.863,198.898 "/>
<polyline clip-path="url(#clip160)" style="stroke:#009af9; stroke-linecap:round; stroke-linejoin:round; stroke-width:4; stroke-opacity:1; fill:none" points="211.758,147.058 361.13,147.058 "/>
<path clip-path="url(#clip160)" d="M396.651 128.366 Q393.549 133.69 392.044 138.898 Q390.54 144.106 390.54 149.453 Q390.54 154.801 392.044 160.055 Q393.572 165.287 396.651 170.588 L392.947 170.588 Q389.475 165.148 387.739 159.893 Q386.026 154.639 386.026 149.453 Q386.026 144.291 387.739 139.06 Q389.452 133.828 392.947 128.366 L396.651 128.366 Z" fill="#000000" fill-rule="nonzero" fill-opacity="1" /><path clip-path="url(#clip160)" d="M403.063 138.412 L423.294 138.412 L423.294 142.301 L407.276 160.935 L423.294 160.935 L423.294 164.338 L402.484 164.338 L402.484 160.449 L418.502 141.815 L403.063 141.815 L403.063 138.412 Z" fill="#000000" fill-rule="nonzero" fill-opacity="1" /><path clip-path="url(#clip160)" d="M430.887 158.458 L435.771 158.458 L435.771 162.439 L431.975 169.847 L428.988 169.847 L430.887 162.439 L430.887 158.458 Z" fill="#000000" fill-rule="nonzero" fill-opacity="1" /><path clip-path="url(#clip160)" d="M455.655 166.745 Q453.849 171.375 452.136 172.787 Q450.423 174.199 447.553 174.199 L444.15 174.199 L444.15 170.634 L446.65 170.634 Q448.41 170.634 449.382 169.8 Q450.354 168.967 451.535 165.865 L452.298 163.921 L441.812 138.412 L446.326 138.412 L454.428 158.689 L462.53 138.412 L467.044 138.412 L455.655 166.745 Z" fill="#000000" fill-rule="nonzero" fill-opacity="1" /><path clip-path="url(#clip160)" d="M474.011 158.458 L478.896 158.458 L478.896 162.439 L475.099 169.847 L472.113 169.847 L474.011 162.439 L474.011 158.458 Z" fill="#000000" fill-rule="nonzero" fill-opacity="1" /><path clip-path="url(#clip160)" d="M509.544 138.412 L500.169 151.027 L510.03 164.338 L505.007 164.338 L497.46 154.152 L489.914 164.338 L484.891 164.338 L494.96 150.773 L485.747 138.412 L490.77 138.412 L497.645 147.648 L504.52 138.412 L509.544 138.412 Z" fill="#000000" fill-rule="nonzero" fill-opacity="1" /><path clip-path="url(#clip160)" d="M515.377 128.366 L519.081 128.366 Q522.553 133.828 524.266 139.06 Q526.002 144.291 526.002 149.453 Q526.002 154.639 524.266 159.893 Q522.553 165.148 519.081 170.588 L515.377 170.588 Q518.456 165.287 519.96 160.055 Q521.488 154.801 521.488 149.453 Q521.488 144.106 519.96 138.898 Q518.456 133.69 515.377 128.366 Z" fill="#000000" fill-rule="nonzero" fill-opacity="1" /></svg>
