<?xml version="1.0" encoding="utf-8"?>
<svg xmlns="http://www.w3.org/2000/svg" xmlns:xlink="http://www.w3.org/1999/xlink" width="600" height="400" viewBox="0 0 2400 1600">
<defs>
  <clipPath id="clip200">
    <rect x="0" y="0" width="2400" height="1600"/>
  </clipPath>
</defs>
<path clip-path="url(#clip200)" d="M0 1600 L2400 1600 L2400 0 L0 0  Z" fill="#ffffff" fill-rule="evenodd" fill-opacity="1"/>
<defs>
  <clipPath id="clip201">
    <rect x="480" y="0" width="1681" height="1600"/>
  </clipPath>
</defs>
<path clip-path="url(#clip200)" d="M147.478 1423.18 L2352.76 1423.18 L2352.76 47.2441 L147.478 47.2441  Z" fill="#ffffff" fill-rule="evenodd" fill-opacity="1"/>
<defs>
  <clipPath id="clip202">
    <rect x="147" y="47" width="2206" height="1377"/>
  </clipPath>
</defs>
<polyline clip-path="url(#clip202)" style="stroke:#000000; stroke-linecap:round; stroke-linejoin:round; stroke-width:2; stroke-opacity:0.1; fill:none" points="147.478,1423.18 147.478,47.2441 "/>
<polyline clip-path="url(#clip202)" style="stroke:#000000; stroke-linecap:round; stroke-linejoin:round; stroke-width:2; stroke-opacity:0.1; fill:none" points="588.534,1423.18 588.534,47.2441 "/>
<polyline clip-path="url(#clip202)" style="stroke:#000000; stroke-linecap:round; stroke-linejoin:round; stroke-width:2; stroke-opacity:0.1; fill:none" points="1029.59,1423.18 1029.59,47.2441 "/>
<polyline clip-path="url(#clip202)" style="stroke:#000000; stroke-linecap:round; stroke-linejoin:round; stroke-width:2; stroke-opacity:0.1; fill:none" points="1470.64,1423.18 1470.64,47.2441 "/>
<polyline clip-path="url(#clip202)" style="stroke:#000000; stroke-linecap:round; stroke-linejoin:round; stroke-width:2; stroke-opacity:0.1; fill:none" points="1911.7,1423.18 1911.7,47.2441 "/>
<polyline clip-path="url(#clip202)" style="stroke:#000000; stroke-linecap:round; stroke-linejoin:round; stroke-width:2; stroke-opacity:0.1; fill:none" points="2352.76,1423.18 2352.76,47.2441 "/>
<polyline clip-path="url(#clip200)" style="stroke:#000000; stroke-linecap:round; stroke-linejoin:round; stroke-width:4; stroke-opacity:1; fill:none" points="147.478,1423.18 2352.76,1423.18 "/>
<polyline clip-path="url(#clip200)" style="stroke:#000000; stroke-linecap:round; stroke-linejoin:round; stroke-width:4; stroke-opacity:1; fill:none" points="147.478,1423.18 147.478,1404.28 "/>
<polyline clip-path="url(#clip200)" style="stroke:#000000; stroke-linecap:round; stroke-linejoin:round; stroke-width:4; stroke-opacity:1; fill:none" points="588.534,1423.18 588.534,1404.28 "/>
<polyline clip-path="url(#clip200)" style="stroke:#000000; stroke-linecap:round; stroke-linejoin:round; stroke-width:4; stroke-opacity:1; fill:none" points="1029.59,1423.18 1029.59,1404.28 "/>
<polyline clip-path="url(#clip200)" style="stroke:#000000; stroke-linecap:round; stroke-linejoin:round; stroke-width:4; stroke-opacity:1; fill:none" points="1470.64,1423.18 1470.64,1404.28 "/>
<polyline clip-path="url(#clip200)" style="stroke:#000000; stroke-linecap:round; stroke-linejoin:round; stroke-width:4; stroke-opacity:1; fill:none" points="1911.7,1423.18 1911.7,1404.28 "/>
<polyline clip-path="url(#clip200)" style="stroke:#000000; stroke-linecap:round; stroke-linejoin:round; stroke-width:4; stroke-opacity:1; fill:none" points="2352.76,1423.18 2352.76,1404.28 "/>
<path clip-path="url(#clip200)" d="M147.478 1454.1 Q143.867 1454.1 142.038 1457.66 Q140.233 1461.2 140.233 1468.33 Q140.233 1475.44 142.038 1479.01 Q143.867 1482.55 147.478 1482.55 Q151.112 1482.55 152.918 1479.01 Q154.746 1475.44 154.746 1468.33 Q154.746 1461.2 152.918 1457.66 Q151.112 1454.1 147.478 1454.1 M147.478 1450.39 Q153.288 1450.39 156.344 1455 Q159.422 1459.58 159.422 1468.33 Q159.422 1477.06 156.344 1481.67 Q153.288 1486.25 147.478 1486.25 Q141.668 1486.25 138.589 1481.67 Q135.534 1477.06 135.534 1468.33 Q135.534 1459.58 138.589 1455 Q141.668 1450.39 147.478 1450.39 Z" fill="#000000" fill-rule="nonzero" fill-opacity="1" /><path clip-path="url(#clip200)" d="M583.186 1481.64 L599.506 1481.64 L599.506 1485.58 L577.561 1485.58 L577.561 1481.64 Q580.223 1478.89 584.807 1474.26 Q589.413 1469.61 590.594 1468.27 Q592.839 1465.74 593.719 1464.01 Q594.621 1462.25 594.621 1460.56 Q594.621 1457.8 592.677 1456.07 Q590.756 1454.33 587.654 1454.33 Q585.455 1454.33 583.001 1455.09 Q580.571 1455.86 577.793 1457.41 L577.793 1452.69 Q580.617 1451.55 583.071 1450.97 Q585.524 1450.39 587.561 1450.39 Q592.932 1450.39 596.126 1453.08 Q599.32 1455.77 599.32 1460.26 Q599.32 1462.39 598.51 1464.31 Q597.723 1466.2 595.617 1468.8 Q595.038 1469.47 591.936 1472.69 Q588.834 1475.88 583.186 1481.64 Z" fill="#000000" fill-rule="nonzero" fill-opacity="1" /><path clip-path="url(#clip200)" d="M1032.6 1455.09 L1020.79 1473.54 L1032.6 1473.54 L1032.6 1455.09 M1031.37 1451.02 L1037.25 1451.02 L1037.25 1473.54 L1042.18 1473.54 L1042.18 1477.43 L1037.25 1477.43 L1037.25 1485.58 L1032.6 1485.58 L1032.6 1477.43 L1017 1477.43 L1017 1472.92 L1031.37 1451.02 Z" fill="#000000" fill-rule="nonzero" fill-opacity="1" /><path clip-path="url(#clip200)" d="M1471.05 1466.44 Q1467.9 1466.44 1466.05 1468.59 Q1464.22 1470.74 1464.22 1474.49 Q1464.22 1478.22 1466.05 1480.39 Q1467.9 1482.55 1471.05 1482.55 Q1474.2 1482.55 1476.03 1480.39 Q1477.88 1478.22 1477.88 1474.49 Q1477.88 1470.74 1476.03 1468.59 Q1474.2 1466.44 1471.05 1466.44 M1480.33 1451.78 L1480.33 1456.04 Q1478.57 1455.21 1476.77 1454.77 Q1474.98 1454.33 1473.23 1454.33 Q1468.6 1454.33 1466.14 1457.45 Q1463.71 1460.58 1463.36 1466.9 Q1464.73 1464.89 1466.79 1463.82 Q1468.85 1462.73 1471.33 1462.73 Q1476.54 1462.73 1479.55 1465.9 Q1482.58 1469.05 1482.58 1474.49 Q1482.58 1479.82 1479.43 1483.03 Q1476.28 1486.25 1471.05 1486.25 Q1465.05 1486.25 1461.88 1481.67 Q1458.71 1477.06 1458.71 1468.33 Q1458.71 1460.14 1462.6 1455.28 Q1466.49 1450.39 1473.04 1450.39 Q1474.8 1450.39 1476.58 1450.74 Q1478.39 1451.09 1480.33 1451.78 Z" fill="#000000" fill-rule="nonzero" fill-opacity="1" /><path clip-path="url(#clip200)" d="M1911.7 1469.17 Q1908.37 1469.17 1906.45 1470.95 Q1904.55 1472.73 1904.55 1475.86 Q1904.55 1478.98 1906.45 1480.77 Q1908.37 1482.55 1911.7 1482.55 Q1915.03 1482.55 1916.95 1480.77 Q1918.88 1478.96 1918.88 1475.86 Q1918.88 1472.73 1916.95 1470.95 Q1915.06 1469.17 1911.7 1469.17 M1907.02 1467.18 Q1904.02 1466.44 1902.33 1464.38 Q1900.66 1462.32 1900.66 1459.35 Q1900.66 1455.21 1903.6 1452.8 Q1906.56 1450.39 1911.7 1450.39 Q1916.86 1450.39 1919.8 1452.8 Q1922.74 1455.21 1922.74 1459.35 Q1922.74 1462.32 1921.05 1464.38 Q1919.39 1466.44 1916.4 1467.18 Q1919.78 1467.96 1921.65 1470.26 Q1923.55 1472.55 1923.55 1475.86 Q1923.55 1480.88 1920.47 1483.57 Q1917.42 1486.25 1911.7 1486.25 Q1905.98 1486.25 1902.9 1483.57 Q1899.85 1480.88 1899.85 1475.86 Q1899.85 1472.55 1901.75 1470.26 Q1903.64 1467.96 1907.02 1467.18 M1905.31 1459.79 Q1905.31 1462.48 1906.98 1463.98 Q1908.67 1465.49 1911.7 1465.49 Q1914.71 1465.49 1916.4 1463.98 Q1918.11 1462.48 1918.11 1459.79 Q1918.11 1457.11 1916.4 1455.6 Q1914.71 1454.1 1911.7 1454.1 Q1908.67 1454.1 1906.98 1455.6 Q1905.31 1457.11 1905.31 1459.79 Z" fill="#000000" fill-rule="nonzero" fill-opacity="1" /><path clip-path="url(#clip200)" d="M2327.44 1481.64 L2335.08 1481.64 L2335.08 1455.28 L2326.77 1456.95 L2326.77 1452.69 L2335.04 1451.02 L2339.71 1451.02 L2339.71 1481.64 L2347.35 1481.64 L2347.35 1485.58 L2327.44 1485.58 L2327.44 1481.64 Z" fill="#000000" fill-rule="nonzero" fill-opacity="1" /><path clip-path="url(#clip200)" d="M2366.8 1454.1 Q2363.18 1454.1 2361.36 1457.66 Q2359.55 1461.2 2359.55 1468.33 Q2359.55 1475.44 2361.36 1479.01 Q2363.18 1482.55 2366.8 1482.55 Q2370.43 1482.55 2372.23 1479.01 Q2374.06 1475.44 2374.06 1468.33 Q2374.06 1461.2 2372.23 1457.66 Q2370.43 1454.1 2366.8 1454.1 M2366.8 1450.39 Q2372.61 1450.39 2375.66 1455 Q2378.74 1459.58 2378.74 1468.33 Q2378.74 1477.06 2375.66 1481.67 Q2372.61 1486.25 2366.8 1486.25 Q2360.99 1486.25 2357.91 1481.67 Q2354.85 1477.06 2354.85 1468.33 Q2354.85 1459.58 2357.91 1455 Q2360.99 1450.39 2366.8 1450.39 Z" fill="#000000" fill-rule="nonzero" fill-opacity="1" /><path clip-path="url(#clip200)" d="M1249.18 1522.27 L1249.18 1532.4 L1261.24 1532.4 L1261.24 1536.95 L1249.18 1536.95 L1249.18 1556.3 Q1249.18 1560.66 1250.36 1561.9 Q1251.57 1563.14 1255.23 1563.14 L1261.24 1563.14 L1261.24 1568.04 L1255.23 1568.04 Q1248.45 1568.04 1245.87 1565.53 Q1243.29 1562.98 1243.29 1556.3 L1243.29 1536.95 L1238.99 1536.95 L1238.99 1532.4 L1243.29 1532.4 L1243.29 1522.27 L1249.18 1522.27 Z" fill="#000000" fill-rule="nonzero" fill-opacity="1" /><polyline clip-path="url(#clip202)" style="stroke:#000000; stroke-linecap:round; stroke-linejoin:round; stroke-width:2; stroke-opacity:0.1; fill:none" points="147.478,1241.58 2352.76,1241.58 "/>
<polyline clip-path="url(#clip202)" style="stroke:#000000; stroke-linecap:round; stroke-linejoin:round; stroke-width:2; stroke-opacity:0.1; fill:none" points="147.478,855.67 2352.76,855.67 "/>
<polyline clip-path="url(#clip202)" style="stroke:#000000; stroke-linecap:round; stroke-linejoin:round; stroke-width:2; stroke-opacity:0.1; fill:none" points="147.478,469.76 2352.76,469.76 "/>
<polyline clip-path="url(#clip202)" style="stroke:#000000; stroke-linecap:round; stroke-linejoin:round; stroke-width:2; stroke-opacity:0.1; fill:none" points="147.478,83.8501 2352.76,83.8501 "/>
<polyline clip-path="url(#clip200)" style="stroke:#000000; stroke-linecap:round; stroke-linejoin:round; stroke-width:4; stroke-opacity:1; fill:none" points="147.478,1423.18 147.478,47.2441 "/>
<polyline clip-path="url(#clip200)" style="stroke:#000000; stroke-linecap:round; stroke-linejoin:round; stroke-width:4; stroke-opacity:1; fill:none" points="147.478,1241.58 166.376,1241.58 "/>
<polyline clip-path="url(#clip200)" style="stroke:#000000; stroke-linecap:round; stroke-linejoin:round; stroke-width:4; stroke-opacity:1; fill:none" points="147.478,855.67 166.376,855.67 "/>
<polyline clip-path="url(#clip200)" style="stroke:#000000; stroke-linecap:round; stroke-linejoin:round; stroke-width:4; stroke-opacity:1; fill:none" points="147.478,469.76 166.376,469.76 "/>
<polyline clip-path="url(#clip200)" style="stroke:#000000; stroke-linecap:round; stroke-linejoin:round; stroke-width:4; stroke-opacity:1; fill:none" points="147.478,83.8501 166.376,83.8501 "/>
<path clip-path="url(#clip200)" d="M50.9921 1242.03 L80.6679 1242.03 L80.6679 1245.97 L50.9921 1245.97 L50.9921 1242.03 Z" fill="#000000" fill-rule="nonzero" fill-opacity="1" /><path clip-path="url(#clip200)" d="M91.5706 1254.92 L99.2095 1254.92 L99.2095 1228.56 L90.8993 1230.23 L90.8993 1225.97 L99.1632 1224.3 L103.839 1224.3 L103.839 1254.92 L111.478 1254.92 L111.478 1258.86 L91.5706 1258.86 L91.5706 1254.92 Z" fill="#000000" fill-rule="nonzero" fill-opacity="1" /><path clip-path="url(#clip200)" d="M99.5335 841.468 Q95.9224 841.468 94.0937 845.033 Q92.2882 848.575 92.2882 855.705 Q92.2882 862.811 94.0937 866.376 Q95.9224 869.917 99.5335 869.917 Q103.168 869.917 104.973 866.376 Q106.802 862.811 106.802 855.705 Q106.802 848.575 104.973 845.033 Q103.168 841.468 99.5335 841.468 M99.5335 837.765 Q105.344 837.765 108.399 842.371 Q111.478 846.955 111.478 855.705 Q111.478 864.431 108.399 869.038 Q105.344 873.621 99.5335 873.621 Q93.7234 873.621 90.6447 869.038 Q87.5892 864.431 87.5892 855.705 Q87.5892 846.955 90.6447 842.371 Q93.7234 837.765 99.5335 837.765 Z" fill="#000000" fill-rule="nonzero" fill-opacity="1" /><path clip-path="url(#clip200)" d="M91.5706 483.105 L99.2095 483.105 L99.2095 456.739 L90.8993 458.406 L90.8993 454.147 L99.1632 452.48 L103.839 452.48 L103.839 483.105 L111.478 483.105 L111.478 487.04 L91.5706 487.04 L91.5706 483.105 Z" fill="#000000" fill-rule="nonzero" fill-opacity="1" /><path clip-path="url(#clip200)" d="M95.1586 97.1949 L111.478 97.1949 L111.478 101.13 L89.5336 101.13 L89.5336 97.1949 Q92.1956 94.4403 96.7789 89.8107 Q101.385 85.158 102.566 83.8154 Q104.811 81.2923 105.691 79.5562 Q106.594 77.7969 106.594 76.1071 Q106.594 73.3525 104.649 71.6164 Q102.728 69.8803 99.6261 69.8803 Q97.4271 69.8803 94.9734 70.6442 Q92.5428 71.408 89.7651 72.959 L89.7651 68.2368 Q92.5891 67.1025 95.0428 66.5238 Q97.4965 65.9451 99.5335 65.9451 Q104.904 65.9451 108.098 68.6303 Q111.293 71.3155 111.293 75.8062 Q111.293 77.9358 110.483 79.8571 Q109.696 81.7552 107.589 84.3478 Q107.01 85.0191 103.909 88.2367 Q100.807 91.4311 95.1586 97.1949 Z" fill="#000000" fill-rule="nonzero" fill-opacity="1" /><polyline clip-path="url(#clip202)" style="stroke:#009af9; stroke-linecap:round; stroke-linejoin:round; stroke-width:4; stroke-opacity:1; fill:none" points="147.478,855.67 149.685,845.468 151.893,835.401 154.1,825.468 156.308,815.667 158.515,805.995 160.723,796.452 162.93,787.035 165.138,777.744 167.345,768.575 169.553,759.528 171.76,750.601 173.968,741.792 176.175,733.1 178.383,724.523 180.59,716.06 182.798,707.709 185.005,699.469 187.213,691.338 189.42,683.315 191.628,675.398 193.835,667.586 196.043,659.878 198.25,652.272 200.458,644.767 202.665,637.361 204.873,630.054 207.08,622.843 209.288,615.728 211.495,608.707 213.702,601.78 215.91,594.944 218.117,588.199 220.325,581.543 222.532,574.976 224.74,568.495 226.947,562.101 229.155,555.791 231.362,549.565 233.57,543.422 235.777,537.36 237.985,531.378 240.192,525.475 242.4,519.651 244.607,513.904 246.815,508.234 249.022,502.638 251.23,497.117 253.437,491.669 255.645,486.293 257.852,480.988 260.06,475.754 262.267,470.589 264.475,465.493 266.682,460.464 268.89,455.502 271.097,450.605 273.305,445.774 275.512,441.006 277.72,436.302 279.927,431.66 282.135,427.08 284.342,422.56 286.549,418.1 288.757,413.7 290.964,409.358 293.172,405.073 295.379,400.845 297.587,396.673 299.794,392.557 302.002,388.495 304.209,384.487 306.417,380.532 308.624,376.63 310.832,372.779 313.039,368.98 315.247,365.23 317.454,361.531 319.662,357.88 321.869,354.278 324.077,350.724 326.284,347.217 328.492,343.756 330.699,340.341 332.907,336.972 335.114,333.647 337.322,330.366 339.529,327.128 341.737,323.934 343.944,320.782 346.152,317.672 348.359,314.603 350.567,311.574 352.774,308.586 354.982,305.638 357.189,302.728 359.397,299.857 361.604,297.024 363.811,294.229 366.019,291.471 368.226,288.914 370.434,288.375 372.641,290.14 374.849,293.951 377.056,299.561 379.264,306.738 381.471,315.261 383.679,324.922 385.886,335.529 388.094,346.899 390.301,358.864 392.509,371.27 394.716,383.973 396.924,396.845 399.131,409.769 401.339,422.643 403.546,435.376 405.754,447.89 407.961,460.122 410.169,472.019 412.376,483.545 414.584,494.673 416.791,505.392 418.999,515.702 421.206,525.616 423.414,535.162 425.621,544.379 427.829,553.319 430.036,562.049 432.244,570.647 434.451,579.205 436.659,587.828 438.866,596.595 441.073,605.3 443.281,613.89 445.488,622.367 447.696,630.73 449.903,638.983 452.111,647.127 454.318,655.162 456.526,663.091 458.733,670.915 460.941,678.635 463.148,686.253 465.356,693.769 467.563,701.186 469.771,708.505 471.978,715.727 474.186,722.853 476.393,729.885 478.601,736.824 480.808,743.671 483.016,750.427 485.223,757.094 487.431,763.672 489.638,770.163 491.846,776.568 494.053,782.888 496.261,789.124 498.468,795.277 500.676,801.349 502.883,807.34 505.091,813.251 507.298,819.084 509.506,824.84 511.713,830.519 513.921,836.123 516.128,841.652 518.335,847.108 520.543,852.492 522.75,857.804 524.958,863.046 527.165,868.218 529.373,873.322 531.58,878.358 533.788,883.327 535.995,888.231 538.203,893.069 540.41,897.843 542.618,902.554 544.825,907.203 547.033,911.79 549.24,916.316 551.448,920.782 553.655,925.19 555.863,929.538 558.07,933.83 560.278,938.064 562.485,942.242 564.693,946.365 566.9,950.433 569.108,954.447 571.315,958.408 573.523,962.317 575.73,966.174 577.938,969.979 580.145,973.734 582.353,977.439 584.56,981.096 586.768,984.703 588.975,988.231 591.182,991.46 593.39,994.374 595.597,997.004 597.805,999.377 600.012,1001.52 602.22,1003.47 604.427,1005.23 606.635,1006.84 608.842,1008.32 611.05,1009.69 613.257,1010.96 615.465,1012.16 617.672,1013.3 619.88,1014.39 622.087,1015.44 624.295,1016.48 626.502,1017.5 628.71,1018.52 630.917,1019.54 633.125,1020.58 635.332,1021.62 637.54,1022.69 639.747,1023.77 641.955,1024.86 644.162,1025.98 646.37,1027.1 648.577,1028.24 650.785,1029.37 652.992,1030.5 655.2,1031.62 657.407,1032.71 659.615,1033.77 661.822,1034.78 664.03,1035.77 666.237,1036.74 668.444,1037.71 670.652,1038.66 672.859,1039.6 675.067,1040.52 677.274,1041.44 679.482,1042.34 681.689,1043.23 683.897,1044.11 686.104,1044.98 688.312,1045.83 690.519,1046.68 692.727,1047.51 694.934,1048.33 697.142,1049.14 699.349,1049.94 701.557,1050.73 703.764,1051.51 705.972,1052.28 708.179,1053.04 710.387,1053.79 712.594,1054.52 714.802,1055.25 717.009,1055.97 719.217,1056.68 721.424,1057.38 723.632,1058.07 725.839,1058.75 728.047,1059.43 730.254,1060.09 732.462,1060.74 734.669,1061.39 736.877,1062.03 739.084,1062.66 741.292,1063.28 743.499,1063.89 745.706,1064.5 747.914,1065.09 750.121,1065.68 752.329,1066.26 754.536,1066.83 756.744,1067.4 758.951,1067.96 761.159,1068.51 763.366,1069.05 765.574,1069.59 767.781,1070.12 769.989,1070.64 772.196,1071.15 774.404,1071.66 776.611,1072.16 778.819,1072.66 781.026,1073.15 783.234,1073.63 785.441,1074.1 787.649,1074.57 789.856,1075.04 792.064,1075.49 794.271,1075.94 796.479,1076.39 798.686,1076.83 800.894,1077.26 803.101,1077.69 805.309,1078.11 807.516,1078.1 809.724,1077.14 811.931,1075.34 814.139,1072.8 816.346,1069.63 818.553,1065.91 820.761,1061.73 822.968,1057.18 825.176,1052.33 827.383,1047.25 829.591,1042.01 831.798,1036.67 834.006,1031.27 836.213,1025.88 838.421,1020.52 840.628,1015.23 842.836,1010.05 845.043,1005 847.251,1000.09 849.458,995.346 851.666,990.766 853.873,986.352 856.081,982.1 858.288,978 860.496,974.035 862.703,970.183 864.911,966.415 867.118,962.699 869.326,958.995 871.533,955.256 873.741,951.481 875.948,947.751 878.156,944.072 880.363,940.441 882.571,936.858 884.778,933.322 886.986,929.834 889.193,926.391 891.401,922.995 893.608,919.643 895.815,916.336 898.023,913.073 900.23,909.853 902.438,906.675 904.645,903.54 906.853,900.446 909.06,897.394 911.268,894.381 913.475,891.409 915.683,888.476 917.89,885.582 920.098,882.726 922.305,879.908 924.513,877.127 926.72,874.384 928.928,871.676 931.135,869.005 933.343,866.369 935.55,863.768 937.758,861.201 939.965,858.669 942.173,856.17 944.38,853.705 946.588,851.272 948.795,848.871 951.003,846.502 953.21,844.165 955.418,841.859 957.625,839.583 959.833,837.337 962.04,835.122 964.248,832.935 966.455,830.778 968.663,828.649 970.87,826.549 973.077,824.476 975.285,822.431 977.492,820.413 979.7,818.421 981.907,816.456 984.115,814.517 986.322,812.604 988.53,810.716 990.737,808.853 992.945,807.014 995.152,805.201 997.36,803.411 999.567,801.644 1001.77,799.902 1003.98,798.182 1006.19,796.485 1008.4,794.811 1010.6,793.159 1012.81,791.529 1015.02,789.92 1017.23,788.333 1019.43,786.766 1021.64,785.221 1023.85,783.696 1026.06,782.191 1028.26,780.706 1030.47,779.543 1032.68,779.129 1034.89,779.323 1037.09,779.992 1039.3,781.013 1041.51,782.28 1043.72,783.702 1045.92,785.198 1048.13,786.706 1050.34,788.176 1052.55,789.572 1054.75,790.873 1056.96,792.072 1059.17,793.176 1061.38,794.208 1063.58,795.202 1065.79,796.209 1068,797.267 1070.21,798.32 1072.41,799.358 1074.62,800.383 1076.83,801.394 1079.04,802.392 1081.24,803.376 1083.45,804.347 1085.66,805.306 1087.87,806.252 1090.07,807.185 1092.28,808.106 1094.49,809.014 1096.7,809.911 1098.9,810.796 1101.11,811.669 1103.32,812.53 1105.53,813.38 1107.73,814.219 1109.94,815.047 1112.15,815.863 1114.36,816.669 1116.56,817.464 1118.77,818.249 1120.98,819.023 1123.19,819.787 1125.39,820.541 1127.6,821.285 1129.81,822.018 1132.02,822.743 1134.22,823.457 1136.43,824.162 1138.64,824.858 1140.85,825.544 1143.05,826.222 1145.26,826.89 1147.47,827.55 1149.68,828.201 1151.88,828.843 1154.09,829.477 1156.3,830.102 1158.51,830.719 1160.71,831.328 1162.92,831.929 1165.13,832.521 1167.34,833.106 1169.54,833.683 1171.75,834.253 1173.96,834.815 1176.17,835.37 1178.37,835.917 1180.58,836.457 1182.79,836.989 1185,837.515 1187.2,838.034 1189.41,838.546 1191.62,839.051 1193.83,839.549 1196.03,840.041 1198.24,840.526 1200.45,841.005 1202.66,841.478 1204.86,841.944 1207.07,842.404 1209.28,842.858 1211.49,843.306 1213.69,843.748 1215.9,844.184 1218.11,844.614 1220.32,845.039 1222.52,845.458 1224.73,845.871 1226.94,846.279 1229.15,846.682 1231.35,847.079 1233.56,847.471 1235.77,847.857 1237.98,848.239 1240.18,848.616 1242.39,848.989 1244.6,849.787 1246.81,851.261 1249.01,853.303 1251.22,855.814 1253.43,858.704 1255.64,861.889 1257.84,865.293 1260.05,868.847 1262.26,872.491 1264.47,876.171 1266.67,879.843 1268.88,883.468 1271.09,887.016 1273.3,890.465 1275.5,893.799 1277.71,897.012 1279.92,900.104 1282.13,903.083 1284.33,905.964 1286.54,908.77 1288.75,911.533 1290.96,914.291 1293.16,917.081 1295.37,919.854 1297.58,922.59 1299.79,925.289 1301.99,927.953 1304.2,930.582 1306.41,933.176 1308.62,935.735 1310.82,938.26 1313.03,940.752 1315.24,943.211 1317.45,945.637 1319.65,948.032 1321.86,950.394 1324.07,952.725 1326.28,955.025 1328.48,957.295 1330.69,959.535 1332.9,961.745 1335.11,963.926 1337.31,966.077 1339.52,968.201 1341.73,970.296 1343.94,972.363 1346.14,974.403 1348.35,976.416 1350.56,978.402 1352.76,980.361 1354.97,982.295 1357.18,984.203 1359.39,986.086 1361.59,987.944 1363.8,989.777 1366.01,991.586 1368.22,993.37 1370.42,995.132 1372.63,996.869 1374.84,998.584 1377.05,1000.28 1379.25,1001.95 1381.46,1003.59 1383.67,1005.22 1385.88,1006.82 1388.08,1008.41 1390.29,1009.97 1392.5,1011.51 1394.71,1013.03 1396.91,1014.53 1399.12,1016.01 1401.33,1017.47 1403.54,1018.91 1405.74,1020.34 1407.95,1021.74 1410.16,1023.13 1412.37,1024.49 1414.57,1025.84 1416.78,1027.17 1418.99,1028.49 1421.2,1029.78 1423.4,1031.06 1425.61,1032.32 1427.82,1033.57 1430.03,1034.79 1432.23,1036.01 1434.44,1037.2 1436.65,1038.38 1438.86,1039.55 1441.06,1040.7 1443.27,1041.83 1445.48,1042.95 1447.69,1044.05 1449.89,1045.14 1452.1,1046.22 1454.31,1047.28 1456.52,1048.33 1458.72,1049.43 1460.93,1050.58 1463.14,1051.79 1465.35,1053.03 1467.55,1054.32 1469.76,1055.63 1471.97,1056.98 1474.18,1058.34 1476.38,1059.73 1478.59,1061.13 1480.8,1062.54 1483.01,1063.96 1485.21,1065.38 1487.42,1066.8 1489.63,1068.21 1491.84,1069.62 1494.04,1071.02 1496.25,1072.42 1498.46,1073.79 1500.67,1075.15 1502.87,1076.5 1505.08,1077.82 1507.29,1079.13 1509.5,1080.42 1511.7,1081.68 1513.91,1082.92 1516.12,1084.13 1518.33,1085.33 1520.53,1086.5 1522.74,1087.64 1524.95,1088.77 1527.16,1089.87 1529.36,1090.95 1531.57,1092.01 1533.78,1093.05 1535.99,1094.08 1538.19,1095.09 1540.4,1096.08 1542.61,1097.07 1544.82,1098.05 1547.02,1099.02 1549.23,1099.98 1551.44,1100.94 1553.65,1101.88 1555.85,1102.81 1558.06,1103.73 1560.27,1104.64 1562.48,1105.53 1564.68,1106.41 1566.89,1107.28 1569.1,1108.14 1571.31,1108.99 1573.51,1109.83 1575.72,1110.65 1577.93,1111.46 1580.14,1112.27 1582.34,1113.06 1584.55,1113.84 1586.76,1114.62 1588.97,1115.38 1591.17,1116.13 1593.38,1116.87 1595.59,1117.6 1597.8,1118.32 1600,1119.04 1602.21,1119.74 1604.42,1120.43 1606.63,1121.12 1608.83,1121.79 1611.04,1122.46 1613.25,1123.12 1615.46,1123.77 1617.66,1124.41 1619.87,1125.04 1622.08,1125.66 1624.29,1126.28 1626.49,1126.89 1628.7,1127.49 1630.91,1128.08 1633.12,1128.66 1635.32,1129.24 1637.53,1129.8 1639.74,1130.36 1641.95,1130.92 1644.15,1131.46 1646.36,1132 1648.57,1132.53 1650.78,1133.05 1652.98,1133.38 1655.19,1133.49 1657.4,1133.49 1659.61,1133.47 1661.81,1133.51 1664.02,1133.68 1666.23,1134.03 1668.44,1134.63 1670.64,1135.5 1672.85,1136.66 1675.06,1138.14 1677.27,1139.94 1679.47,1142.06 1681.68,1144.46 1683.89,1147.14 1686.1,1150.04 1688.3,1153.11 1690.51,1156.31 1692.72,1159.55 1694.93,1162.75 1697.13,1165.81 1699.34,1168.72 1701.55,1171.57 1703.76,1174.39 1705.96,1177.18 1708.17,1179.92 1710.38,1182.63 1712.59,1185.3 1714.79,1187.94 1717,1190.54 1719.21,1193.11 1721.42,1195.64 1723.62,1198.15 1725.83,1200.61 1728.04,1203.05 1730.25,1205.45 1732.45,1207.82 1734.66,1210.16 1736.87,1212.47 1739.07,1214.75 1741.28,1216.99 1743.49,1219.21 1745.7,1221.4 1747.9,1223.56 1750.11,1225.69 1752.32,1227.79 1754.53,1229.87 1756.73,1231.91 1758.94,1233.93 1761.15,1235.93 1763.36,1237.89 1765.56,1239.83 1767.77,1241.75 1769.98,1243.64 1772.19,1245.5 1774.39,1247.34 1776.6,1249.15 1778.81,1250.94 1781.02,1252.71 1783.22,1254.45 1785.43,1256.17 1787.64,1257.87 1789.85,1259.55 1792.05,1261.2 1794.26,1262.83 1796.47,1264.44 1798.68,1266.03 1800.88,1267.6 1803.09,1269.14 1805.3,1270.67 1807.51,1272.17 1809.71,1273.66 1811.92,1275.12 1814.13,1276.57 1816.34,1278 1818.54,1279.41 1820.75,1280.8 1822.96,1282.17 1825.17,1283.52 1827.37,1284.86 1829.58,1286.17 1831.79,1287.48 1834,1288.76 1836.2,1290.02 1838.41,1291.27 1840.62,1292.51 1842.83,1293.72 1845.03,1294.92 1847.24,1296.11 1849.45,1297.27 1851.66,1298.43 1853.86,1299.57 1856.07,1300.69 1858.28,1301.8 1860.49,1302.89 1862.69,1303.97 1864.9,1305.03 1867.11,1306.08 1869.32,1307.12 1871.52,1308.14 1873.73,1309.15 1875.94,1310.14 1878.15,1311.13 1880.35,1312.1 1882.56,1313.05 1884.77,1314 1886.98,1314.93 1889.18,1315.84 1891.39,1316.7 1893.6,1317.49 1895.81,1318.22 1898.01,1318.89 1900.22,1319.5 1902.43,1320.07 1904.64,1320.59 1906.84,1321.06 1909.05,1321.5 1911.26,1321.89 1913.47,1322.26 1915.67,1322.59 1917.88,1322.9 1920.09,1323.18 1922.3,1323.43 1924.5,1323.67 1926.71,1323.89 1928.92,1324.1 1931.13,1324.29 1933.33,1324.47 1935.54,1324.64 1937.75,1324.81 1939.96,1324.97 1942.16,1325.12 1944.37,1325.27 1946.58,1325.42 1948.79,1325.57 1950.99,1325.72 1953.2,1325.87 1955.41,1326.03 1957.62,1326.18 1959.82,1326.34 1962.03,1326.5 1964.24,1326.67 1966.45,1326.84 1968.65,1327.02 1970.86,1327.2 1973.07,1327.38 1975.28,1327.57 1977.48,1327.75 1979.69,1327.95 1981.9,1328.14 1984.11,1328.33 1986.31,1328.53 1988.52,1328.72 1990.73,1328.91 1992.94,1329.09 1995.14,1329.27 1997.35,1329.44 1999.56,1329.61 2001.77,1329.76 2003.97,1329.91 2006.18,1330.05 2008.39,1330.2 2010.6,1330.34 2012.8,1330.48 2015.01,1330.62 2017.22,1330.75 2019.43,1330.89 2021.63,1331.02 2023.84,1331.15 2026.05,1331.28 2028.26,1331.41 2030.46,1331.54 2032.67,1331.66 2034.88,1331.78 2037.09,1331.9 2039.29,1332.02 2041.5,1332.14 2043.71,1332.26 2045.92,1332.37 2048.12,1332.49 2050.33,1332.6 2052.54,1332.71 2054.75,1332.82 2056.95,1332.92 2059.16,1333.03 2061.37,1333.13 2063.58,1333.24 2065.78,1333.34 2067.99,1333.44 2070.2,1333.54 2072.41,1333.64 2074.61,1333.73 2076.82,1333.83 2079.03,1333.92 2081.24,1334.01 2083.44,1334.11 2085.65,1334.2 2087.86,1334.29 2090.07,1334.37 2092.27,1334.46 2094.48,1334.55 2096.69,1334.63 2098.9,1334.71 2101.1,1334.8 2103.31,1334.88 2105.52,1334.96 2107.73,1335.04 2109.93,1335.11 2112.14,1335.19 2114.35,1335.27 2116.55,1335.34 2118.76,1335.41 2120.97,1335.49 2123.18,1336.39 2125.38,1339.04 2127.59,1338.63 2129.8,1332.32 2132.01,1320.04 2134.21,1304.45 2136.42,1289.66 2138.63,1275.25 2140.84,1261.02 2143.04,1246.99 2145.25,1233.14 2147.46,1219.48 2149.67,1206 2151.87,1192.69 2154.08,1179.56 2156.29,1166.61 2158.5,1153.83 2160.7,1141.21 2162.91,1128.77 2165.12,1116.49 2167.33,1104.37 2169.53,1092.41 2171.74,1080.62 2173.95,1068.97 2176.16,1057.49 2178.36,1046.15 2180.57,1034.97 2182.78,1023.93 2184.99,1013.04 2187.19,1002.29 2189.4,991.691 2191.61,981.228 2193.82,970.903 2196.02,960.716 2198.23,950.664 2200.44,940.745 2202.65,930.957 2204.85,921.299 2207.06,911.769 2209.27,902.366 2211.48,893.087 2213.68,883.931 2215.89,874.897 2218.1,865.983 2220.31,857.186 2222.51,848.507 2224.72,839.942 2226.93,831.491 2229.14,823.152 2231.34,814.924 2233.55,806.804 2235.76,798.793 2237.97,790.887 2240.17,783.086 2242.38,775.389 2244.59,767.794 2246.8,760.299 2249,752.904 2251.21,745.607 2253.42,738.406 2255.63,731.301 2257.83,724.291 2260.04,717.373 2262.25,710.547 2264.46,703.811 2266.66,697.165 2268.87,690.607 2271.08,684.135 2273.29,677.75 2275.49,671.449 2277.7,665.232 2279.91,659.098 2282.12,653.044 2284.32,647.071 2286.53,641.177 2288.74,635.361 2290.95,629.623 2293.15,623.96 2295.36,618.372 2297.57,612.859 2299.78,607.419 2301.98,602.05 2304.19,596.753 2306.4,591.526 2308.61,586.369 2310.81,581.279 2313.02,576.258 2315.23,571.302 2317.44,566.413 2319.64,561.588 2321.85,556.828 2324.06,552.13 2326.27,547.495 2328.47,542.921 2330.68,538.408 2332.89,533.955 2335.1,529.56 2337.3,525.224 2339.51,520.946 2341.72,516.724 2343.93,512.558 2346.13,508.448 2348.34,504.391 2350.55,500.389 2352.76,496.44 "/>
<polyline clip-path="url(#clip202)" style="stroke:#e26f46; stroke-linecap:round; stroke-linejoin:round; stroke-width:4; stroke-opacity:1; fill:none" points="147.478,86.1857 149.685,86.1857 151.893,86.1857 154.1,86.1857 156.308,86.1857 158.515,86.1857 160.723,86.1857 162.93,86.1857 165.138,86.1857 167.345,86.1857 169.553,86.1857 171.76,86.1857 173.968,86.1857 176.175,86.1857 178.383,86.1857 180.59,86.1857 182.798,86.1857 185.005,86.1857 187.213,86.1857 189.42,86.1857 191.628,86.1857 193.835,86.1857 196.043,86.1857 198.25,86.1857 200.458,86.1857 202.665,86.1857 204.873,86.1857 207.08,86.1857 209.288,86.1857 211.495,86.1857 213.702,86.1857 215.91,86.1857 218.117,86.1857 220.325,86.1857 222.532,86.1857 224.74,86.1857 226.947,86.1857 229.155,86.1857 231.362,86.1857 233.57,86.1857 235.777,86.1857 237.985,86.1857 240.192,86.1857 242.4,86.1857 244.607,86.1857 246.815,86.1857 249.022,86.1857 251.23,86.1857 253.437,86.1857 255.645,86.1857 257.852,86.1857 260.06,86.1857 262.267,86.1857 264.475,86.1857 266.682,86.1857 268.89,86.1857 271.097,86.1857 273.305,86.1857 275.512,86.1857 277.72,86.1857 279.927,86.1857 282.135,86.1857 284.342,86.1857 286.549,86.1857 288.757,86.1857 290.964,86.1857 293.172,86.1857 295.379,86.1857 297.587,86.1857 299.794,86.1857 302.002,86.1857 304.209,86.1857 306.417,86.1857 308.624,86.1857 310.832,86.1857 313.039,86.1857 315.247,86.1857 317.454,86.1857 319.662,86.1857 321.869,86.1857 324.077,86.1857 326.284,86.1857 328.492,86.1857 330.699,86.1857 332.907,86.1857 335.114,86.1857 337.322,86.1857 339.529,86.1857 341.737,86.1857 343.944,86.1857 346.152,86.1857 348.359,86.1857 350.567,86.1857 352.774,86.1857 354.982,86.1857 357.189,86.1857 359.397,86.1857 361.604,86.1857 363.811,86.1857 366.019,86.1857 368.226,1253.21 370.434,1253.21 372.641,1253.21 374.849,1253.21 377.056,1253.21 379.264,1253.21 381.471,1253.21 383.679,1253.21 385.886,1253.21 388.094,1253.21 390.301,1253.21 392.509,1253.21 394.716,1253.21 396.924,1253.21 399.131,1253.21 401.339,1253.21 403.546,1253.21 405.754,1253.21 407.961,1253.21 410.169,1253.21 412.376,1253.21 414.584,1253.21 416.791,1253.21 418.999,1253.21 421.206,1253.21 423.414,1253.21 425.621,1253.21 427.829,1253.21 430.036,1253.21 432.244,1253.21 434.451,1253.21 436.659,1253.21 438.866,1253.21 441.073,1253.21 443.281,1253.21 445.488,1253.21 447.696,1253.21 449.903,1253.21 452.111,1253.21 454.318,1253.21 456.526,1253.21 458.733,1253.21 460.941,1253.21 463.148,1253.21 465.356,1253.21 467.563,1253.21 469.771,1253.21 471.978,1253.21 474.186,1253.21 476.393,1253.21 478.601,1253.21 480.808,1253.21 483.016,1253.21 485.223,1253.21 487.431,1253.21 489.638,1253.21 491.846,1253.21 494.053,1253.21 496.261,1253.21 498.468,1253.21 500.676,1253.21 502.883,1253.21 505.091,1253.21 507.298,1253.21 509.506,1253.21 511.713,1253.21 513.921,1253.21 516.128,1253.21 518.335,1253.21 520.543,1253.21 522.75,1253.21 524.958,1253.21 527.165,1253.21 529.373,1253.21 531.58,1253.21 533.788,1253.21 535.995,1253.21 538.203,1253.21 540.41,1253.21 542.618,1253.21 544.825,1253.21 547.033,1253.21 549.24,1253.21 551.448,1253.21 553.655,1253.21 555.863,1253.21 558.07,1253.21 560.278,1253.21 562.485,1253.21 564.693,1253.21 566.9,1253.21 569.108,1253.21 571.315,1253.21 573.523,1253.21 575.73,1253.21 577.938,1253.21 580.145,1253.21 582.353,1253.21 584.56,1253.21 586.768,1253.21 588.975,1109.49 591.182,1109.49 593.39,1109.49 595.597,1109.49 597.805,1109.49 600.012,1109.49 602.22,1109.49 604.427,1109.49 606.635,1109.49 608.842,1109.49 611.05,1109.49 613.257,1109.49 615.465,1109.49 617.672,1109.49 619.88,1109.49 622.087,1109.49 624.295,1109.49 626.502,1109.49 628.71,1109.49 630.917,1109.49 633.125,1109.49 635.332,1109.49 637.54,1109.49 639.747,1109.49 641.955,1109.49 644.162,1109.49 646.37,1109.49 648.577,1109.49 650.785,1109.49 652.992,1109.49 655.2,1109.49 657.407,1109.49 659.615,1109.49 661.822,1109.49 664.03,1109.49 666.237,1109.49 668.444,1109.49 670.652,1109.49 672.859,1109.49 675.067,1109.49 677.274,1109.49 679.482,1109.49 681.689,1109.49 683.897,1109.49 686.104,1109.49 688.312,1109.49 690.519,1109.49 692.727,1109.49 694.934,1109.49 697.142,1109.49 699.349,1109.49 701.557,1109.49 703.764,1109.49 705.972,1109.49 708.179,1109.49 710.387,1109.49 712.594,1109.49 714.802,1109.49 717.009,1109.49 719.217,1109.49 721.424,1109.49 723.632,1109.49 725.839,1109.49 728.047,1109.49 730.254,1109.49 732.462,1109.49 734.669,1109.49 736.877,1109.49 739.084,1109.49 741.292,1109.49 743.499,1109.49 745.706,1109.49 747.914,1109.49 750.121,1109.49 752.329,1109.49 754.536,1109.49 756.744,1109.49 758.951,1109.49 761.159,1109.49 763.366,1109.49 765.574,1109.49 767.781,1109.49 769.989,1109.49 772.196,1109.49 774.404,1109.49 776.611,1109.49 778.819,1109.49 781.026,1109.49 783.234,1109.49 785.441,1109.49 787.649,1109.49 789.856,1109.49 792.064,1109.49 794.271,1109.49 796.479,1109.49 798.686,1109.49 800.894,1109.49 803.101,1109.49 805.309,1109.49 807.516,1109.49 809.724,670.197 811.931,670.197 814.139,670.197 816.346,670.197 818.553,670.197 820.761,670.197 822.968,670.197 825.176,670.197 827.383,670.197 829.591,670.197 831.798,670.197 834.006,670.197 836.213,670.197 838.421,670.197 840.628,670.197 842.836,670.197 845.043,670.197 847.251,670.197 849.458,670.197 851.666,670.197 853.873,670.197 856.081,670.197 858.288,670.197 860.496,670.197 862.703,670.197 864.911,670.197 867.118,670.197 869.326,670.197 871.533,670.197 873.741,670.197 875.948,670.197 878.156,670.197 880.363,670.197 882.571,670.197 884.778,670.197 886.986,670.197 889.193,670.197 891.401,670.197 893.608,670.197 895.815,670.197 898.023,670.197 900.23,670.197 902.438,670.197 904.645,670.197 906.853,670.197 909.06,670.197 911.268,670.197 913.475,670.197 915.683,670.197 917.89,670.197 920.098,670.197 922.305,670.197 924.513,670.197 926.72,670.197 928.928,670.197 931.135,670.197 933.343,670.197 935.55,670.197 937.758,670.197 939.965,670.197 942.173,670.197 944.38,670.197 946.588,670.197 948.795,670.197 951.003,670.197 953.21,670.197 955.418,670.197 957.625,670.197 959.833,670.197 962.04,670.197 964.248,670.197 966.455,670.197 968.663,670.197 970.87,670.197 973.077,670.197 975.285,670.197 977.492,670.197 979.7,670.197 981.907,670.197 984.115,670.197 986.322,670.197 988.53,670.197 990.737,670.197 992.945,670.197 995.152,670.197 997.36,670.197 999.567,670.197 1001.77,670.197 1003.98,670.197 1006.19,670.197 1008.4,670.197 1010.6,670.197 1012.81,670.197 1015.02,670.197 1017.23,670.197 1019.43,670.197 1021.64,670.197 1023.85,670.197 1026.06,670.197 1028.26,670.197 1030.47,876.642 1032.68,876.642 1034.89,876.642 1037.09,876.642 1039.3,876.642 1041.51,876.642 1043.72,876.642 1045.92,876.642 1048.13,876.642 1050.34,876.642 1052.55,876.642 1054.75,876.642 1056.96,876.642 1059.17,876.642 1061.38,876.642 1063.58,876.642 1065.79,876.642 1068,876.642 1070.21,876.642 1072.41,876.642 1074.62,876.642 1076.83,876.642 1079.04,876.642 1081.24,876.642 1083.45,876.642 1085.66,876.642 1087.87,876.642 1090.07,876.642 1092.28,876.642 1094.49,876.642 1096.7,876.642 1098.9,876.642 1101.11,876.642 1103.32,876.642 1105.53,876.642 1107.73,876.642 1109.94,876.642 1112.15,876.642 1114.36,876.642 1116.56,876.642 1118.77,876.642 1120.98,876.642 1123.19,876.642 1125.39,876.642 1127.6,876.642 1129.81,876.642 1132.02,876.642 1134.22,876.642 1136.43,876.642 1138.64,876.642 1140.85,876.642 1143.05,876.642 1145.26,876.642 1147.47,876.642 1149.68,876.642 1151.88,876.642 1154.09,876.642 1156.3,876.642 1158.51,876.642 1160.71,876.642 1162.92,876.642 1165.13,876.642 1167.34,876.642 1169.54,876.642 1171.75,876.642 1173.96,876.642 1176.17,876.642 1178.37,876.642 1180.58,876.642 1182.79,876.642 1185,876.642 1187.2,876.642 1189.41,876.642 1191.62,876.642 1193.83,876.642 1196.03,876.642 1198.24,876.642 1200.45,876.642 1202.66,876.642 1204.86,876.642 1207.07,876.642 1209.28,876.642 1211.49,876.642 1213.69,876.642 1215.9,876.642 1218.11,876.642 1220.32,876.642 1222.52,876.642 1224.73,876.642 1226.94,876.642 1229.15,876.642 1231.35,876.642 1233.56,876.642 1235.77,876.642 1237.98,876.642 1240.18,876.642 1242.39,876.642 1244.6,876.642 1246.81,876.642 1249.01,876.642 1251.22,1126.22 1253.43,1126.22 1255.64,1126.22 1257.84,1126.22 1260.05,1126.22 1262.26,1126.22 1264.47,1126.22 1266.67,1126.22 1268.88,1126.22 1271.09,1126.22 1273.3,1126.22 1275.5,1126.22 1277.71,1126.22 1279.92,1126.22 1282.13,1126.22 1284.33,1126.22 1286.54,1126.22 1288.75,1126.22 1290.96,1126.22 1293.16,1126.22 1295.37,1126.22 1297.58,1126.22 1299.79,1126.22 1301.99,1126.22 1304.2,1126.22 1306.41,1126.22 1308.62,1126.22 1310.82,1126.22 1313.03,1126.22 1315.24,1126.22 1317.45,1126.22 1319.65,1126.22 1321.86,1126.22 1324.07,1126.22 1326.28,1126.22 1328.48,1126.22 1330.69,1126.22 1332.9,1126.22 1335.11,1126.22 1337.31,1126.22 1339.52,1126.22 1341.73,1126.22 1343.94,1126.22 1346.14,1126.22 1348.35,1126.22 1350.56,1126.22 1352.76,1126.22 1354.97,1126.22 1357.18,1126.22 1359.39,1126.22 1361.59,1126.22 1363.8,1126.22 1366.01,1126.22 1368.22,1126.22 1370.42,1126.22 1372.63,1126.22 1374.84,1126.22 1377.05,1126.22 1379.25,1126.22 1381.46,1126.22 1383.67,1126.22 1385.88,1126.22 1388.08,1126.22 1390.29,1126.22 1392.5,1126.22 1394.71,1126.22 1396.91,1126.22 1399.12,1126.22 1401.33,1126.22 1403.54,1126.22 1405.74,1126.22 1407.95,1126.22 1410.16,1126.22 1412.37,1126.22 1414.57,1126.22 1416.78,1126.22 1418.99,1126.22 1421.2,1126.22 1423.4,1126.22 1425.61,1126.22 1427.82,1126.22 1430.03,1126.22 1432.23,1126.22 1434.44,1126.22 1436.65,1126.22 1438.86,1126.22 1441.06,1126.22 1443.27,1126.22 1445.48,1126.22 1447.69,1126.22 1449.89,1126.22 1452.1,1126.22 1454.31,1126.22 1456.52,1126.22 1458.72,1126.22 1460.93,1126.22 1463.14,1126.22 1465.35,1126.22 1467.55,1126.22 1469.76,1126.22 1471.97,1172.07 1474.18,1172.07 1476.38,1172.07 1478.59,1172.07 1480.8,1172.07 1483.01,1172.07 1485.21,1172.07 1487.42,1172.07 1489.63,1172.07 1491.84,1172.07 1494.04,1172.07 1496.25,1172.07 1498.46,1172.07 1500.67,1172.07 1502.87,1172.07 1505.08,1172.07 1507.29,1172.07 1509.5,1172.07 1511.7,1172.07 1513.91,1172.07 1516.12,1172.07 1518.33,1172.07 1520.53,1172.07 1522.74,1172.07 1524.95,1172.07 1527.16,1172.07 1529.36,1172.07 1531.57,1172.07 1533.78,1172.07 1535.99,1172.07 1538.19,1172.07 1540.4,1172.07 1542.61,1172.07 1544.82,1172.07 1547.02,1172.07 1549.23,1172.07 1551.44,1172.07 1553.65,1172.07 1555.85,1172.07 1558.06,1172.07 1560.27,1172.07 1562.48,1172.07 1564.68,1172.07 1566.89,1172.07 1569.1,1172.07 1571.31,1172.07 1573.51,1172.07 1575.72,1172.07 1577.93,1172.07 1580.14,1172.07 1582.34,1172.07 1584.55,1172.07 1586.76,1172.07 1588.97,1172.07 1591.17,1172.07 1593.38,1172.07 1595.59,1172.07 1597.8,1172.07 1600,1172.07 1602.21,1172.07 1604.42,1172.07 1606.63,1172.07 1608.83,1172.07 1611.04,1172.07 1613.25,1172.07 1615.46,1172.07 1617.66,1172.07 1619.87,1172.07 1622.08,1172.07 1624.29,1172.07 1626.49,1172.07 1628.7,1172.07 1630.91,1172.07 1633.12,1172.07 1635.32,1172.07 1637.53,1172.07 1639.74,1172.07 1641.95,1172.07 1644.15,1172.07 1646.36,1172.07 1648.57,1172.07 1650.78,1172.07 1652.98,1172.07 1655.19,1172.07 1657.4,1172.07 1659.61,1172.07 1661.81,1172.07 1664.02,1172.07 1666.23,1172.07 1668.44,1172.07 1670.64,1172.07 1672.85,1172.07 1675.06,1172.07 1677.27,1172.07 1679.47,1172.07 1681.68,1172.07 1683.89,1172.07 1686.1,1172.07 1688.3,1172.07 1690.51,1172.07 1692.72,1384.24 1694.93,1384.24 1697.13,1384.24 1699.34,1384.24 1701.55,1384.24 1703.76,1384.24 1705.96,1384.24 1708.17,1384.24 1710.38,1384.24 1712.59,1384.24 1714.79,1384.24 1717,1384.24 1719.21,1384.24 1721.42,1384.24 1723.62,1384.24 1725.83,1384.24 1728.04,1384.24 1730.25,1384.24 1732.45,1384.24 1734.66,1384.24 1736.87,1384.24 1739.07,1384.24 1741.28,1384.24 1743.49,1384.24 1745.7,1384.24 1747.9,1384.24 1750.11,1384.24 1752.32,1384.24 1754.53,1384.24 1756.73,1384.24 1758.94,1384.24 1761.15,1384.24 1763.36,1384.24 1765.56,1384.24 1767.77,1384.24 1769.98,1384.24 1772.19,1384.24 1774.39,1384.24 1776.6,1384.24 1778.81,1384.24 1781.02,1384.24 1783.22,1384.24 1785.43,1384.24 1787.64,1384.24 1789.85,1384.24 1792.05,1384.24 1794.26,1384.24 1796.47,1384.24 1798.68,1384.24 1800.88,1384.24 1803.09,1384.24 1805.3,1384.24 1807.51,1384.24 1809.71,1384.24 1811.92,1384.24 1814.13,1384.24 1816.34,1384.24 1818.54,1384.24 1820.75,1384.24 1822.96,1384.24 1825.17,1384.24 1827.37,1384.24 1829.58,1384.24 1831.79,1384.24 1834,1384.24 1836.2,1384.24 1838.41,1384.24 1840.62,1384.24 1842.83,1384.24 1845.03,1384.24 1847.24,1384.24 1849.45,1384.24 1851.66,1384.24 1853.86,1384.24 1856.07,1384.24 1858.28,1384.24 1860.49,1384.24 1862.69,1384.24 1864.9,1384.24 1867.11,1384.24 1869.32,1384.24 1871.52,1384.24 1873.73,1384.24 1875.94,1384.24 1878.15,1384.24 1880.35,1384.24 1882.56,1384.24 1884.77,1384.24 1886.98,1384.24 1889.18,1384.24 1891.39,1384.24 1893.6,1384.24 1895.81,1384.24 1898.01,1384.24 1900.22,1384.24 1902.43,1384.24 1904.64,1384.24 1906.84,1384.24 1909.05,1384.24 1911.26,1384.24 1913.47,1340.91 1915.67,1340.91 1917.88,1340.91 1920.09,1340.91 1922.3,1340.91 1924.5,1340.91 1926.71,1340.91 1928.92,1340.91 1931.13,1340.91 1933.33,1340.91 1935.54,1340.91 1937.75,1340.91 1939.96,1340.91 1942.16,1340.91 1944.37,1340.91 1946.58,1340.91 1948.79,1340.91 1950.99,1340.91 1953.2,1340.91 1955.41,1340.91 1957.62,1340.91 1959.82,1340.91 1962.03,1340.91 1964.24,1340.91 1966.45,1340.91 1968.65,1340.91 1970.86,1340.91 1973.07,1340.91 1975.28,1340.91 1977.48,1340.91 1979.69,1340.91 1981.9,1340.91 1984.11,1340.91 1986.31,1340.91 1988.52,1340.91 1990.73,1340.91 1992.94,1340.91 1995.14,1340.91 1997.35,1340.91 1999.56,1340.91 2001.77,1340.91 2003.97,1340.91 2006.18,1340.91 2008.39,1340.91 2010.6,1340.91 2012.8,1340.91 2015.01,1340.91 2017.22,1340.91 2019.43,1340.91 2021.63,1340.91 2023.84,1340.91 2026.05,1340.91 2028.26,1340.91 2030.46,1340.91 2032.67,1340.91 2034.88,1340.91 2037.09,1340.91 2039.29,1340.91 2041.5,1340.91 2043.71,1340.91 2045.92,1340.91 2048.12,1340.91 2050.33,1340.91 2052.54,1340.91 2054.75,1340.91 2056.95,1340.91 2059.16,1340.91 2061.37,1340.91 2063.58,1340.91 2065.78,1340.91 2067.99,1340.91 2070.2,1340.91 2072.41,1340.91 2074.61,1340.91 2076.82,1340.91 2079.03,1340.91 2081.24,1340.91 2083.44,1340.91 2085.65,1340.91 2087.86,1340.91 2090.07,1340.91 2092.27,1340.91 2094.48,1340.91 2096.69,1340.91 2098.9,1340.91 2101.1,1340.91 2103.31,1340.91 2105.52,1340.91 2107.73,1340.91 2109.93,1340.91 2112.14,1340.91 2114.35,1340.91 2116.55,1340.91 2118.76,1340.91 2120.97,1340.91 2123.18,1340.91 2125.38,1340.91 2127.59,1340.91 2129.8,1340.91 2132.01,1340.91 2134.21,202.51 2136.42,202.51 2138.63,202.51 2140.84,202.51 2143.04,202.51 2145.25,202.51 2147.46,202.51 2149.67,202.51 2151.87,202.51 2154.08,202.51 2156.29,202.51 2158.5,202.51 2160.7,202.51 2162.91,202.51 2165.12,202.51 2167.33,202.51 2169.53,202.51 2171.74,202.51 2173.95,202.51 2176.16,202.51 2178.36,202.51 2180.57,202.51 2182.78,202.51 2184.99,202.51 2187.19,202.51 2189.4,202.51 2191.61,202.51 2193.82,202.51 2196.02,202.51 2198.23,202.51 2200.44,202.51 2202.65,202.51 2204.85,202.51 2207.06,202.51 2209.27,202.51 2211.48,202.51 2213.68,202.51 2215.89,202.51 2218.1,202.51 2220.31,202.51 2222.51,202.51 2224.72,202.51 2226.93,202.51 2229.14,202.51 2231.34,202.51 2233.55,202.51 2235.76,202.51 2237.97,202.51 2240.17,202.51 2242.38,202.51 2244.59,202.51 2246.8,202.51 2249,202.51 2251.21,202.51 2253.42,202.51 2255.63,202.51 2257.83,202.51 2260.04,202.51 2262.25,202.51 2264.46,202.51 2266.66,202.51 2268.87,202.51 2271.08,202.51 2273.29,202.51 2275.49,202.51 2277.7,202.51 2279.91,202.51 2282.12,202.51 2284.32,202.51 2286.53,202.51 2288.74,202.51 2290.95,202.51 2293.15,202.51 2295.36,202.51 2297.57,202.51 2299.78,202.51 2301.98,202.51 2304.19,202.51 2306.4,202.51 2308.61,202.51 2310.81,202.51 2313.02,202.51 2315.23,202.51 2317.44,202.51 2319.64,202.51 2321.85,202.51 2324.06,202.51 2326.27,202.51 2328.47,202.51 2330.68,202.51 2332.89,202.51 2335.1,202.51 2337.3,202.51 2339.51,202.51 2341.72,202.51 2343.93,202.51 2346.13,202.51 2348.34,202.51 2350.55,202.51 2352.76,202.51 "/>
<path clip-path="url(#clip200)" d="M220.987 1377.32 L519.709 1377.32 L519.709 1221.8 L220.987 1221.8  Z" fill="#ffffff" fill-rule="evenodd" fill-opacity="1"/>
<polyline clip-path="url(#clip200)" style="stroke:#000000; stroke-linecap:round; stroke-linejoin:round; stroke-width:4; stroke-opacity:1; fill:none" points="220.987,1377.32 519.709,1377.32 519.709,1221.8 220.987,1221.8 220.987,1377.32 "/>
<polyline clip-path="url(#clip200)" style="stroke:#009af9; stroke-linecap:round; stroke-linejoin:round; stroke-width:4; stroke-opacity:1; fill:none" points="245.49,1273.64 392.509,1273.64 "/>
<path clip-path="url(#clip200)" d="M441.665 1264.99 L432.29 1277.61 L442.151 1290.92 L437.128 1290.92 L429.581 1280.73 L422.035 1290.92 L417.012 1290.92 L427.081 1277.35 L417.868 1264.99 L422.891 1264.99 L429.766 1274.23 L436.641 1264.99 L441.665 1264.99 Z" fill="#000000" fill-rule="nonzero" fill-opacity="1" /><path clip-path="url(#clip200)" d="M458.401 1254.94 Q455.299 1260.27 453.794 1265.48 Q452.289 1270.68 452.289 1276.03 Q452.289 1281.38 453.794 1286.63 Q455.322 1291.86 458.401 1297.17 L454.697 1297.17 Q451.225 1291.73 449.489 1286.47 Q447.776 1281.22 447.776 1276.03 Q447.776 1270.87 449.489 1265.64 Q451.202 1260.41 454.697 1254.94 L458.401 1254.94 Z" fill="#000000" fill-rule="nonzero" fill-opacity="1" /><path clip-path="url(#clip200)" d="M470.877 1257.63 L470.877 1264.99 L479.65 1264.99 L479.65 1268.3 L470.877 1268.3 L470.877 1282.37 Q470.877 1285.54 471.734 1286.45 Q472.613 1287.35 475.275 1287.35 L479.65 1287.35 L479.65 1290.92 L475.275 1290.92 Q470.345 1290.92 468.47 1289.09 Q466.595 1287.23 466.595 1282.37 L466.595 1268.3 L463.47 1268.3 L463.47 1264.99 L466.595 1264.99 L466.595 1257.63 L470.877 1257.63 Z" fill="#000000" fill-rule="nonzero" fill-opacity="1" /><path clip-path="url(#clip200)" d="M484.581 1254.94 L488.285 1254.94 Q491.757 1260.41 493.47 1265.64 Q495.206 1270.87 495.206 1276.03 Q495.206 1281.22 493.47 1286.47 Q491.757 1291.73 488.285 1297.17 L484.581 1297.17 Q487.66 1291.86 489.164 1286.63 Q490.692 1281.38 490.692 1276.03 Q490.692 1270.68 489.164 1265.48 Q487.66 1260.27 484.581 1254.94 Z" fill="#000000" fill-rule="nonzero" fill-opacity="1" /><polyline clip-path="url(#clip200)" style="stroke:#e26f46; stroke-linecap:round; stroke-linejoin:round; stroke-width:4; stroke-opacity:1; fill:none" points="245.49,1325.48 392.509,1325.48 "/>
<path clip-path="url(#clip200)" d="M433.516 1306.74 L433.516 1310.28 L429.442 1310.28 Q427.151 1310.28 426.248 1311.2 Q425.368 1312.13 425.368 1314.54 L425.368 1316.83 L432.382 1316.83 L432.382 1320.14 L425.368 1320.14 L425.368 1342.76 L421.086 1342.76 L421.086 1320.14 L417.012 1320.14 L417.012 1316.83 L421.086 1316.83 L421.086 1315.02 Q421.086 1310.7 423.1 1308.73 Q425.114 1306.74 429.489 1306.74 L433.516 1306.74 Z" fill="#000000" fill-rule="nonzero" fill-opacity="1" /><path clip-path="url(#clip200)" d="M447.313 1306.78 Q444.211 1312.11 442.706 1317.32 Q441.202 1322.52 441.202 1327.87 Q441.202 1333.22 442.706 1338.47 Q444.234 1343.7 447.313 1349.01 L443.609 1349.01 Q440.137 1343.57 438.401 1338.31 Q436.688 1333.06 436.688 1327.87 Q436.688 1322.71 438.401 1317.48 Q440.114 1312.25 443.609 1306.78 L447.313 1306.78 Z" fill="#000000" fill-rule="nonzero" fill-opacity="1" /><path clip-path="url(#clip200)" d="M459.789 1309.47 L459.789 1316.83 L468.563 1316.83 L468.563 1320.14 L459.789 1320.14 L459.789 1334.21 Q459.789 1337.38 460.646 1338.29 Q461.526 1339.19 464.188 1339.19 L468.563 1339.19 L468.563 1342.76 L464.188 1342.76 Q459.257 1342.76 457.382 1340.93 Q455.507 1339.07 455.507 1334.21 L455.507 1320.14 L452.382 1320.14 L452.382 1316.83 L455.507 1316.83 L455.507 1309.47 L459.789 1309.47 Z" fill="#000000" fill-rule="nonzero" fill-opacity="1" /><path clip-path="url(#clip200)" d="M473.493 1306.78 L477.197 1306.78 Q480.669 1312.25 482.382 1317.48 Q484.118 1322.71 484.118 1327.87 Q484.118 1333.06 482.382 1338.31 Q480.669 1343.57 477.197 1349.01 L473.493 1349.01 Q476.572 1343.7 478.076 1338.47 Q479.604 1333.22 479.604 1327.87 Q479.604 1322.52 478.076 1317.32 Q476.572 1312.11 473.493 1306.78 Z" fill="#000000" fill-rule="nonzero" fill-opacity="1" /></svg>
