<?xml version="1.0" encoding="utf-8"?>
<svg xmlns="http://www.w3.org/2000/svg" xmlns:xlink="http://www.w3.org/1999/xlink" width="600" height="400" viewBox="0 0 2400 1600">
<defs>
  <clipPath id="clip820">
    <rect x="0" y="0" width="2400" height="1600"/>
  </clipPath>
</defs>
<path clip-path="url(#clip820)" d="M0 1600 L2400 1600 L2400 0 L0 0  Z" fill="#ffffff" fill-rule="evenodd" fill-opacity="1"/>
<defs>
  <clipPath id="clip821">
    <rect x="480" y="0" width="1681" height="1600"/>
  </clipPath>
</defs>
<defs>
  <clipPath id="clip822">
    <rect x="112" y="47" width="2242" height="1440"/>
  </clipPath>
</defs>
<path clip-path="url(#clip822)" d="M-834.264 1856.25 L-834.264 1459.53 L-731.299 1261.17 L-552.957 1375.69 L-552.957 1772.41 L-655.923 1970.77 L-834.264 1856.25  Z" fill="#ffffff" fill-rule="evenodd" fill-opacity="1"/>
<polyline clip-path="url(#clip822)" style="stroke:#000000; stroke-linecap:round; stroke-linejoin:round; stroke-width:2; stroke-opacity:0.1; fill:none" points="762.824,1230.94 1178.29,871.139 1178.29,151.537 "/>
<polyline clip-path="url(#clip822)" style="stroke:#000000; stroke-linecap:round; stroke-linejoin:round; stroke-width:2; stroke-opacity:0.1; fill:none" points="941.165,1282.42 1356.63,922.622 1356.63,203.02 "/>
<polyline clip-path="url(#clip822)" style="stroke:#000000; stroke-linecap:round; stroke-linejoin:round; stroke-width:2; stroke-opacity:0.1; fill:none" points="1119.51,1333.91 1534.97,974.105 1534.97,254.503 "/>
<polyline clip-path="url(#clip822)" style="stroke:#000000; stroke-linecap:round; stroke-linejoin:round; stroke-width:2; stroke-opacity:0.1; fill:none" points="1297.85,1385.39 1713.31,1025.59 1713.31,305.985 "/>
<polyline clip-path="url(#clip822)" style="stroke:#000000; stroke-linecap:round; stroke-linejoin:round; stroke-width:2; stroke-opacity:0.1; fill:none" points="1404.41,1393.2 684.806,1185.47 684.806,465.87 "/>
<polyline clip-path="url(#clip822)" style="stroke:#000000; stroke-linecap:round; stroke-linejoin:round; stroke-width:2; stroke-opacity:0.1; fill:none" points="1461.67,1343.61 742.068,1135.88 742.068,416.28 "/>
<polyline clip-path="url(#clip822)" style="stroke:#000000; stroke-linecap:round; stroke-linejoin:round; stroke-width:2; stroke-opacity:0.1; fill:none" points="1518.93,1294.02 799.329,1086.29 799.329,366.69 "/>
<polyline clip-path="url(#clip822)" style="stroke:#000000; stroke-linecap:round; stroke-linejoin:round; stroke-width:2; stroke-opacity:0.1; fill:none" points="1576.19,1244.43 856.591,1036.7 856.591,317.1 "/>
<polyline clip-path="url(#clip822)" style="stroke:#000000; stroke-linecap:round; stroke-linejoin:round; stroke-width:2; stroke-opacity:0.1; fill:none" points="1633.45,1194.84 913.853,987.112 913.853,267.511 "/>
<polyline clip-path="url(#clip822)" style="stroke:#000000; stroke-linecap:round; stroke-linejoin:round; stroke-width:2; stroke-opacity:0.1; fill:none" points="1690.72,1145.25 971.114,937.523 971.114,217.921 "/>
<polyline clip-path="url(#clip822)" style="stroke:#000000; stroke-linecap:round; stroke-linejoin:round; stroke-width:2; stroke-opacity:0.1; fill:none" points="1747.98,1095.66 1028.38,887.933 1028.38,168.331 "/>
<polyline clip-path="url(#clip822)" style="stroke:#000000; stroke-linecap:round; stroke-linejoin:round; stroke-width:2; stroke-opacity:0.1; fill:none" points="664.934,1110.49 1080.4,750.684 1800,958.415 "/>
<polyline clip-path="url(#clip822)" style="stroke:#000000; stroke-linecap:round; stroke-linejoin:round; stroke-width:2; stroke-opacity:0.1; fill:none" points="664.934,1000.74 1080.4,640.939 1800,848.67 "/>
<polyline clip-path="url(#clip822)" style="stroke:#000000; stroke-linecap:round; stroke-linejoin:round; stroke-width:2; stroke-opacity:0.1; fill:none" points="664.934,890.994 1080.4,531.193 1800,738.924 "/>
<polyline clip-path="url(#clip822)" style="stroke:#000000; stroke-linecap:round; stroke-linejoin:round; stroke-width:2; stroke-opacity:0.1; fill:none" points="664.934,781.249 1080.4,421.448 1800,629.179 "/>
<polyline clip-path="url(#clip822)" style="stroke:#000000; stroke-linecap:round; stroke-linejoin:round; stroke-width:2; stroke-opacity:0.1; fill:none" points="664.934,671.503 1080.4,311.702 1800,519.434 "/>
<polyline clip-path="url(#clip822)" style="stroke:#000000; stroke-linecap:round; stroke-linejoin:round; stroke-width:2; stroke-opacity:0.1; fill:none" points="664.934,561.758 1080.4,201.957 1800,409.688 "/>
<polyline clip-path="url(#clip820)" style="stroke:#000000; stroke-linecap:round; stroke-linejoin:round; stroke-width:4; stroke-opacity:1; fill:none" points="664.934,1202.68 1384.54,1410.41 "/>
<polyline clip-path="url(#clip820)" style="stroke:#000000; stroke-linecap:round; stroke-linejoin:round; stroke-width:4; stroke-opacity:1; fill:none" points="762.824,1230.94 767.81,1226.62 "/>
<polyline clip-path="url(#clip820)" style="stroke:#000000; stroke-linecap:round; stroke-linejoin:round; stroke-width:4; stroke-opacity:1; fill:none" points="941.165,1282.42 946.151,1278.11 "/>
<polyline clip-path="url(#clip820)" style="stroke:#000000; stroke-linecap:round; stroke-linejoin:round; stroke-width:4; stroke-opacity:1; fill:none" points="1119.51,1333.91 1124.49,1329.59 "/>
<polyline clip-path="url(#clip820)" style="stroke:#000000; stroke-linecap:round; stroke-linejoin:round; stroke-width:4; stroke-opacity:1; fill:none" points="1297.85,1385.39 1302.83,1381.07 "/>
<path clip-path="url(#clip820)" d="M737.679 1241.97 L725.873 1260.42 L737.679 1260.42 L737.679 1241.97 M736.452 1237.89 L742.332 1237.89 L742.332 1260.42 L747.262 1260.42 L747.262 1264.31 L742.332 1264.31 L742.332 1272.45 L737.679 1272.45 L737.679 1264.31 L722.077 1264.31 L722.077 1259.79 L736.452 1237.89 Z" fill="#000000" fill-rule="nonzero" fill-opacity="1" /><path clip-path="url(#clip820)" d="M914.076 1304.79 Q910.928 1304.79 909.076 1306.95 Q907.247 1309.1 907.247 1312.85 Q907.247 1316.58 909.076 1318.75 Q910.928 1320.9 914.076 1320.9 Q917.224 1320.9 919.053 1318.75 Q920.905 1316.58 920.905 1312.85 Q920.905 1309.1 919.053 1306.95 Q917.224 1304.79 914.076 1304.79 M923.358 1290.14 L923.358 1294.4 Q921.599 1293.57 919.793 1293.13 Q918.011 1292.69 916.252 1292.69 Q911.622 1292.69 909.168 1295.81 Q906.738 1298.94 906.391 1305.26 Q907.756 1303.24 909.817 1302.18 Q911.877 1301.09 914.354 1301.09 Q919.562 1301.09 922.571 1304.26 Q925.604 1307.41 925.604 1312.85 Q925.604 1318.17 922.455 1321.39 Q919.307 1324.61 914.076 1324.61 Q908.081 1324.61 904.909 1320.02 Q901.738 1315.42 901.738 1306.69 Q901.738 1298.5 905.627 1293.64 Q909.516 1288.75 916.067 1288.75 Q917.826 1288.75 919.608 1289.1 Q921.414 1289.45 923.358 1290.14 Z" fill="#000000" fill-rule="nonzero" fill-opacity="1" /><path clip-path="url(#clip820)" d="M1092.09 1359.01 Q1088.76 1359.01 1086.84 1360.79 Q1084.94 1362.57 1084.94 1365.7 Q1084.94 1368.82 1086.84 1370.6 Q1088.76 1372.39 1092.09 1372.39 Q1095.43 1372.39 1097.35 1370.6 Q1099.27 1368.8 1099.27 1365.7 Q1099.27 1362.57 1097.35 1360.79 Q1095.45 1359.01 1092.09 1359.01 M1087.42 1357.02 Q1084.41 1356.28 1082.72 1354.22 Q1081.05 1352.16 1081.05 1349.19 Q1081.05 1345.05 1083.99 1342.64 Q1086.95 1340.23 1092.09 1340.23 Q1097.26 1340.23 1100.19 1342.64 Q1103.13 1345.05 1103.13 1349.19 Q1103.13 1352.16 1101.44 1354.22 Q1099.78 1356.28 1096.79 1357.02 Q1100.17 1357.8 1102.05 1360.1 Q1103.94 1362.39 1103.94 1365.7 Q1103.94 1370.72 1100.87 1373.41 Q1097.81 1376.09 1092.09 1376.09 Q1086.38 1376.09 1083.3 1373.41 Q1080.24 1370.72 1080.24 1365.7 Q1080.24 1362.39 1082.14 1360.1 Q1084.04 1357.8 1087.42 1357.02 M1085.7 1349.63 Q1085.7 1352.32 1087.37 1353.82 Q1089.06 1355.33 1092.09 1355.33 Q1095.1 1355.33 1096.79 1353.82 Q1098.51 1352.32 1098.51 1349.63 Q1098.51 1346.95 1096.79 1345.44 Q1095.1 1343.94 1092.09 1343.94 Q1089.06 1343.94 1087.37 1345.44 Q1085.7 1346.95 1085.7 1349.63 Z" fill="#000000" fill-rule="nonzero" fill-opacity="1" /><path clip-path="url(#clip820)" d="M1230.99 1422.97 L1238.63 1422.97 L1238.63 1396.6 L1230.32 1398.27 L1230.32 1394.01 L1238.58 1392.34 L1243.26 1392.34 L1243.26 1422.97 L1250.9 1422.97 L1250.9 1426.9 L1230.99 1426.9 L1230.99 1422.97 Z" fill="#000000" fill-rule="nonzero" fill-opacity="1" /><path clip-path="url(#clip820)" d="M1270.34 1395.42 Q1266.73 1395.42 1264.9 1398.99 Q1263.1 1402.53 1263.1 1409.66 Q1263.1 1416.76 1264.9 1420.33 Q1266.73 1423.87 1270.34 1423.87 Q1273.98 1423.87 1275.78 1420.33 Q1277.61 1416.76 1277.61 1409.66 Q1277.61 1402.53 1275.78 1398.99 Q1273.98 1395.42 1270.34 1395.42 M1270.34 1391.72 Q1276.15 1391.72 1279.21 1396.32 Q1282.29 1400.91 1282.29 1409.66 Q1282.29 1418.38 1279.21 1422.99 Q1276.15 1427.57 1270.34 1427.57 Q1264.53 1427.57 1261.45 1422.99 Q1258.4 1418.38 1258.4 1409.66 Q1258.4 1400.91 1261.45 1396.32 Q1264.53 1391.72 1270.34 1391.72 Z" fill="#000000" fill-rule="nonzero" fill-opacity="1" /><polyline clip-path="url(#clip820)" style="stroke:#000000; stroke-linecap:round; stroke-linejoin:round; stroke-width:4; stroke-opacity:1; fill:none" points="1384.54,1410.41 1800,1050.61 "/>
<polyline clip-path="url(#clip820)" style="stroke:#000000; stroke-linecap:round; stroke-linejoin:round; stroke-width:4; stroke-opacity:1; fill:none" points="1404.41,1393.2 1395.77,1390.71 "/>
<polyline clip-path="url(#clip820)" style="stroke:#000000; stroke-linecap:round; stroke-linejoin:round; stroke-width:4; stroke-opacity:1; fill:none" points="1461.67,1343.61 1453.03,1341.12 "/>
<polyline clip-path="url(#clip820)" style="stroke:#000000; stroke-linecap:round; stroke-linejoin:round; stroke-width:4; stroke-opacity:1; fill:none" points="1518.93,1294.02 1510.3,1291.53 "/>
<polyline clip-path="url(#clip820)" style="stroke:#000000; stroke-linecap:round; stroke-linejoin:round; stroke-width:4; stroke-opacity:1; fill:none" points="1576.19,1244.43 1567.56,1241.94 "/>
<polyline clip-path="url(#clip820)" style="stroke:#000000; stroke-linecap:round; stroke-linejoin:round; stroke-width:4; stroke-opacity:1; fill:none" points="1633.45,1194.84 1624.82,1192.35 "/>
<polyline clip-path="url(#clip820)" style="stroke:#000000; stroke-linecap:round; stroke-linejoin:round; stroke-width:4; stroke-opacity:1; fill:none" points="1690.72,1145.25 1682.08,1142.76 "/>
<polyline clip-path="url(#clip820)" style="stroke:#000000; stroke-linecap:round; stroke-linejoin:round; stroke-width:4; stroke-opacity:1; fill:none" points="1747.98,1095.66 1739.34,1093.17 "/>
<path clip-path="url(#clip820)" d="M1441.91 1392.27 Q1438.3 1392.27 1436.47 1395.84 Q1434.67 1399.38 1434.67 1406.51 Q1434.67 1413.61 1436.47 1417.18 Q1438.3 1420.72 1441.91 1420.72 Q1445.55 1420.72 1447.35 1417.18 Q1449.18 1413.61 1449.18 1406.51 Q1449.18 1399.38 1447.35 1395.84 Q1445.55 1392.27 1441.91 1392.27 M1441.91 1388.57 Q1447.72 1388.57 1450.78 1393.17 Q1453.86 1397.76 1453.86 1406.51 Q1453.86 1415.23 1450.78 1419.84 Q1447.72 1424.42 1441.91 1424.42 Q1436.1 1424.42 1433.03 1419.84 Q1429.97 1415.23 1429.97 1406.51 Q1429.97 1397.76 1433.03 1393.17 Q1436.1 1388.57 1441.91 1388.57 Z" fill="#000000" fill-rule="nonzero" fill-opacity="1" /><path clip-path="url(#clip820)" d="M1462.08 1417.87 L1466.96 1417.87 L1466.96 1423.75 L1462.08 1423.75 L1462.08 1417.87 Z" fill="#000000" fill-rule="nonzero" fill-opacity="1" /><path clip-path="url(#clip820)" d="M1477.19 1389.19 L1495.55 1389.19 L1495.55 1393.13 L1481.47 1393.13 L1481.47 1401.6 Q1482.49 1401.25 1483.51 1401.09 Q1484.53 1400.9 1485.55 1400.9 Q1491.34 1400.9 1494.71 1404.08 Q1498.09 1407.25 1498.09 1412.66 Q1498.09 1418.24 1494.62 1421.34 Q1491.15 1424.42 1484.83 1424.42 Q1482.65 1424.42 1480.39 1424.05 Q1478.14 1423.68 1475.73 1422.94 L1475.73 1418.24 Q1477.82 1419.38 1480.04 1419.93 Q1482.26 1420.49 1484.74 1420.49 Q1488.74 1420.49 1491.08 1418.38 Q1493.42 1416.28 1493.42 1412.66 Q1493.42 1409.05 1491.08 1406.95 Q1488.74 1404.84 1484.74 1404.84 Q1482.86 1404.84 1480.99 1405.26 Q1479.14 1405.67 1477.19 1406.55 L1477.19 1389.19 Z" fill="#000000" fill-rule="nonzero" fill-opacity="1" /><path clip-path="url(#clip820)" d="M1487.9 1370.23 L1495.54 1370.23 L1495.54 1343.86 L1487.23 1345.53 L1487.23 1341.27 L1495.5 1339.6 L1500.17 1339.6 L1500.17 1370.23 L1507.81 1370.23 L1507.81 1374.16 L1487.9 1374.16 L1487.9 1370.23 Z" fill="#000000" fill-rule="nonzero" fill-opacity="1" /><path clip-path="url(#clip820)" d="M1517.25 1368.28 L1522.14 1368.28 L1522.14 1374.16 L1517.25 1374.16 L1517.25 1368.28 Z" fill="#000000" fill-rule="nonzero" fill-opacity="1" /><path clip-path="url(#clip820)" d="M1542.32 1342.68 Q1538.71 1342.68 1536.88 1346.25 Q1535.08 1349.79 1535.08 1356.92 Q1535.08 1364.02 1536.88 1367.59 Q1538.71 1371.13 1542.32 1371.13 Q1545.96 1371.13 1547.76 1367.59 Q1549.59 1364.02 1549.59 1356.92 Q1549.59 1349.79 1547.76 1346.25 Q1545.96 1342.68 1542.32 1342.68 M1542.32 1338.98 Q1548.13 1338.98 1551.19 1343.58 Q1554.27 1348.17 1554.27 1356.92 Q1554.27 1365.64 1551.19 1370.25 Q1548.13 1374.83 1542.32 1374.83 Q1536.51 1374.83 1533.43 1370.25 Q1530.38 1365.64 1530.38 1356.92 Q1530.38 1348.17 1533.43 1343.58 Q1536.51 1338.98 1542.32 1338.98 Z" fill="#000000" fill-rule="nonzero" fill-opacity="1" /><path clip-path="url(#clip820)" d="M1545.16 1320.64 L1552.8 1320.64 L1552.8 1294.27 L1544.49 1295.94 L1544.49 1291.68 L1552.76 1290.01 L1557.43 1290.01 L1557.43 1320.64 L1565.07 1320.64 L1565.07 1324.57 L1545.16 1324.57 L1545.16 1320.64 Z" fill="#000000" fill-rule="nonzero" fill-opacity="1" /><path clip-path="url(#clip820)" d="M1574.52 1318.69 L1579.4 1318.69 L1579.4 1324.57 L1574.52 1324.57 L1574.52 1318.69 Z" fill="#000000" fill-rule="nonzero" fill-opacity="1" /><path clip-path="url(#clip820)" d="M1589.63 1290.01 L1607.99 1290.01 L1607.99 1293.95 L1593.91 1293.95 L1593.91 1302.42 Q1594.93 1302.07 1595.95 1301.91 Q1596.97 1301.72 1597.99 1301.72 Q1603.77 1301.72 1607.15 1304.9 Q1610.53 1308.07 1610.53 1313.48 Q1610.53 1319.06 1607.06 1322.16 Q1603.59 1325.24 1597.27 1325.24 Q1595.09 1325.24 1592.83 1324.87 Q1590.58 1324.5 1588.17 1323.76 L1588.17 1319.06 Q1590.26 1320.2 1592.48 1320.75 Q1594.7 1321.31 1597.18 1321.31 Q1601.18 1321.31 1603.52 1319.2 Q1605.86 1317.1 1605.86 1313.48 Q1605.86 1309.87 1603.52 1307.77 Q1601.18 1305.66 1597.18 1305.66 Q1595.3 1305.66 1593.43 1306.08 Q1591.58 1306.49 1589.63 1307.37 L1589.63 1290.01 Z" fill="#000000" fill-rule="nonzero" fill-opacity="1" /><path clip-path="url(#clip820)" d="M1607.38 1271.05 L1623.7 1271.05 L1623.7 1274.98 L1601.75 1274.98 L1601.75 1271.05 Q1604.42 1268.29 1609 1263.66 Q1613.61 1259.01 1614.79 1257.67 Q1617.03 1255.14 1617.91 1253.41 Q1618.81 1251.65 1618.81 1249.96 Q1618.81 1247.2 1616.87 1245.47 Q1614.95 1243.73 1611.85 1243.73 Q1609.65 1243.73 1607.19 1244.5 Q1604.76 1245.26 1601.99 1246.81 L1601.99 1242.09 Q1604.81 1240.95 1607.26 1240.38 Q1609.72 1239.8 1611.75 1239.8 Q1617.12 1239.8 1620.32 1242.48 Q1623.51 1245.17 1623.51 1249.66 Q1623.51 1251.79 1622.7 1253.71 Q1621.92 1255.61 1619.81 1258.2 Q1619.23 1258.87 1616.13 1262.09 Q1613.03 1265.28 1607.38 1271.05 Z" fill="#000000" fill-rule="nonzero" fill-opacity="1" /><path clip-path="url(#clip820)" d="M1633.51 1269.1 L1638.4 1269.1 L1638.4 1274.98 L1633.51 1274.98 L1633.51 1269.1 Z" fill="#000000" fill-rule="nonzero" fill-opacity="1" /><path clip-path="url(#clip820)" d="M1658.58 1243.5 Q1654.97 1243.5 1653.14 1247.07 Q1651.34 1250.61 1651.34 1257.74 Q1651.34 1264.84 1653.14 1268.41 Q1654.97 1271.95 1658.58 1271.95 Q1662.22 1271.95 1664.02 1268.41 Q1665.85 1264.84 1665.85 1257.74 Q1665.85 1250.61 1664.02 1247.07 Q1662.22 1243.5 1658.58 1243.5 M1658.58 1239.8 Q1664.39 1239.8 1667.45 1244.4 Q1670.53 1248.99 1670.53 1257.74 Q1670.53 1266.46 1667.45 1271.07 Q1664.39 1275.65 1658.58 1275.65 Q1652.77 1275.65 1649.69 1271.07 Q1646.64 1266.46 1646.64 1257.74 Q1646.64 1248.99 1649.69 1244.4 Q1652.77 1239.8 1658.58 1239.8 Z" fill="#000000" fill-rule="nonzero" fill-opacity="1" /><path clip-path="url(#clip820)" d="M1664.64 1221.46 L1680.96 1221.46 L1680.96 1225.39 L1659.02 1225.39 L1659.02 1221.46 Q1661.68 1218.7 1666.26 1214.07 Q1670.87 1209.42 1672.05 1208.08 Q1674.29 1205.55 1675.17 1203.82 Q1676.08 1202.06 1676.08 1200.37 Q1676.08 1197.61 1674.13 1195.88 Q1672.21 1194.14 1669.11 1194.14 Q1666.91 1194.14 1664.46 1194.91 Q1662.03 1195.67 1659.25 1197.22 L1659.25 1192.5 Q1662.07 1191.36 1664.53 1190.79 Q1666.98 1190.21 1669.02 1190.21 Q1674.39 1190.21 1677.58 1192.89 Q1680.77 1195.58 1680.77 1200.07 Q1680.77 1202.2 1679.96 1204.12 Q1679.18 1206.02 1677.07 1208.61 Q1676.49 1209.28 1673.39 1212.5 Q1670.29 1215.69 1664.64 1221.46 Z" fill="#000000" fill-rule="nonzero" fill-opacity="1" /><path clip-path="url(#clip820)" d="M1690.77 1219.51 L1695.66 1219.51 L1695.66 1225.39 L1690.77 1225.39 L1690.77 1219.51 Z" fill="#000000" fill-rule="nonzero" fill-opacity="1" /><path clip-path="url(#clip820)" d="M1705.89 1190.83 L1724.25 1190.83 L1724.25 1194.77 L1710.17 1194.77 L1710.17 1203.24 Q1711.19 1202.89 1712.21 1202.73 Q1713.23 1202.55 1714.25 1202.55 Q1720.03 1202.55 1723.41 1205.72 Q1726.79 1208.89 1726.79 1214.3 Q1726.79 1219.88 1723.32 1222.98 Q1719.85 1226.06 1713.53 1226.06 Q1711.35 1226.06 1709.08 1225.69 Q1706.84 1225.32 1704.43 1224.58 L1704.43 1219.88 Q1706.52 1221.02 1708.74 1221.57 Q1710.96 1222.13 1713.44 1222.13 Q1717.44 1222.13 1719.78 1220.02 Q1722.12 1217.92 1722.12 1214.3 Q1722.12 1210.69 1719.78 1208.59 Q1717.44 1206.48 1713.44 1206.48 Q1711.56 1206.48 1709.69 1206.9 Q1707.83 1207.31 1705.89 1208.19 L1705.89 1190.83 Z" fill="#000000" fill-rule="nonzero" fill-opacity="1" /><path clip-path="url(#clip820)" d="M1731.9 1157.17 Q1735.26 1157.89 1737.13 1160.15 Q1739.03 1162.42 1739.03 1165.76 Q1739.03 1170.87 1735.51 1173.67 Q1731.99 1176.47 1725.51 1176.47 Q1723.34 1176.47 1721.02 1176.03 Q1718.73 1175.62 1716.28 1174.76 L1716.28 1170.25 Q1718.22 1171.38 1720.54 1171.96 Q1722.85 1172.54 1725.37 1172.54 Q1729.77 1172.54 1732.06 1170.8 Q1734.38 1169.07 1734.38 1165.76 Q1734.38 1162.7 1732.23 1160.99 Q1730.1 1159.25 1726.28 1159.25 L1722.25 1159.25 L1722.25 1155.41 L1726.46 1155.41 Q1729.91 1155.41 1731.74 1154.04 Q1733.57 1152.65 1733.57 1150.06 Q1733.57 1147.4 1731.67 1145.99 Q1729.8 1144.55 1726.28 1144.55 Q1724.36 1144.55 1722.16 1144.97 Q1719.96 1145.39 1717.32 1146.27 L1717.32 1142.1 Q1719.98 1141.36 1722.3 1140.99 Q1724.63 1140.62 1726.69 1140.62 Q1732.02 1140.62 1735.12 1143.05 Q1738.22 1145.46 1738.22 1149.58 Q1738.22 1152.45 1736.58 1154.44 Q1734.93 1156.4 1731.9 1157.17 Z" fill="#000000" fill-rule="nonzero" fill-opacity="1" /><path clip-path="url(#clip820)" d="M1747.9 1169.92 L1752.78 1169.92 L1752.78 1175.8 L1747.9 1175.8 L1747.9 1169.92 Z" fill="#000000" fill-rule="nonzero" fill-opacity="1" /><path clip-path="url(#clip820)" d="M1772.97 1144.32 Q1769.36 1144.32 1767.53 1147.89 Q1765.72 1151.43 1765.72 1158.56 Q1765.72 1165.66 1767.53 1169.23 Q1769.36 1172.77 1772.97 1172.77 Q1776.6 1172.77 1778.41 1169.23 Q1780.24 1165.66 1780.24 1158.56 Q1780.24 1151.43 1778.41 1147.89 Q1776.6 1144.32 1772.97 1144.32 M1772.97 1140.62 Q1778.78 1140.62 1781.83 1145.22 Q1784.91 1149.81 1784.91 1158.56 Q1784.91 1167.28 1781.83 1171.89 Q1778.78 1176.47 1772.97 1176.47 Q1767.16 1176.47 1764.08 1171.89 Q1761.02 1167.28 1761.02 1158.56 Q1761.02 1149.81 1764.08 1145.22 Q1767.16 1140.62 1772.97 1140.62 Z" fill="#000000" fill-rule="nonzero" fill-opacity="1" /><path clip-path="url(#clip820)" d="M1789.16 1107.58 Q1792.52 1108.3 1794.4 1110.56 Q1796.29 1112.83 1796.29 1116.17 Q1796.29 1121.28 1792.77 1124.08 Q1789.26 1126.88 1782.77 1126.88 Q1780.6 1126.88 1778.28 1126.44 Q1775.99 1126.03 1773.54 1125.17 L1773.54 1120.66 Q1775.48 1121.79 1777.8 1122.37 Q1780.11 1122.95 1782.64 1122.95 Q1787.03 1122.95 1789.33 1121.21 Q1791.64 1119.48 1791.64 1116.17 Q1791.64 1113.11 1789.49 1111.4 Q1787.36 1109.66 1783.54 1109.66 L1779.51 1109.66 L1779.51 1105.82 L1783.72 1105.82 Q1787.17 1105.82 1789 1104.45 Q1790.83 1103.06 1790.83 1100.47 Q1790.83 1097.81 1788.93 1096.4 Q1787.06 1094.96 1783.54 1094.96 Q1781.62 1094.96 1779.42 1095.38 Q1777.22 1095.8 1774.58 1096.68 L1774.58 1092.51 Q1777.24 1091.77 1779.56 1091.4 Q1781.9 1091.03 1783.96 1091.03 Q1789.28 1091.03 1792.38 1093.46 Q1795.48 1095.87 1795.48 1099.99 Q1795.48 1102.86 1793.84 1104.85 Q1792.2 1106.81 1789.16 1107.58 Z" fill="#000000" fill-rule="nonzero" fill-opacity="1" /><path clip-path="url(#clip820)" d="M1805.16 1120.33 L1810.04 1120.33 L1810.04 1126.21 L1805.16 1126.21 L1805.16 1120.33 Z" fill="#000000" fill-rule="nonzero" fill-opacity="1" /><path clip-path="url(#clip820)" d="M1820.27 1091.65 L1838.63 1091.65 L1838.63 1095.59 L1824.56 1095.59 L1824.56 1104.06 Q1825.58 1103.71 1826.59 1103.55 Q1827.61 1103.37 1828.63 1103.37 Q1834.42 1103.37 1837.8 1106.54 Q1841.18 1109.71 1841.18 1115.12 Q1841.18 1120.7 1837.71 1123.8 Q1834.23 1126.88 1827.91 1126.88 Q1825.74 1126.88 1823.47 1126.51 Q1821.22 1126.14 1818.82 1125.4 L1818.82 1120.7 Q1820.9 1121.84 1823.12 1122.39 Q1825.34 1122.95 1827.82 1122.95 Q1831.83 1122.95 1834.16 1120.84 Q1836.5 1118.74 1836.5 1115.12 Q1836.5 1111.51 1834.16 1109.41 Q1831.83 1107.3 1827.82 1107.3 Q1825.95 1107.3 1824.07 1107.72 Q1822.22 1108.13 1820.27 1109.01 L1820.27 1091.65 Z" fill="#000000" fill-rule="nonzero" fill-opacity="1" /><polyline clip-path="url(#clip820)" style="stroke:#000000; stroke-linecap:round; stroke-linejoin:round; stroke-width:4; stroke-opacity:1; fill:none" points="664.934,1202.68 664.934,483.08 "/>
<polyline clip-path="url(#clip820)" style="stroke:#000000; stroke-linecap:round; stroke-linejoin:round; stroke-width:4; stroke-opacity:1; fill:none" points="664.934,1110.49 669.92,1106.17 "/>
<polyline clip-path="url(#clip820)" style="stroke:#000000; stroke-linecap:round; stroke-linejoin:round; stroke-width:4; stroke-opacity:1; fill:none" points="664.934,1000.74 669.92,996.422 "/>
<polyline clip-path="url(#clip820)" style="stroke:#000000; stroke-linecap:round; stroke-linejoin:round; stroke-width:4; stroke-opacity:1; fill:none" points="664.934,890.994 669.92,886.677 "/>
<polyline clip-path="url(#clip820)" style="stroke:#000000; stroke-linecap:round; stroke-linejoin:round; stroke-width:4; stroke-opacity:1; fill:none" points="664.934,781.249 669.92,776.931 "/>
<polyline clip-path="url(#clip820)" style="stroke:#000000; stroke-linecap:round; stroke-linejoin:round; stroke-width:4; stroke-opacity:1; fill:none" points="664.934,671.503 669.92,667.186 "/>
<polyline clip-path="url(#clip820)" style="stroke:#000000; stroke-linecap:round; stroke-linejoin:round; stroke-width:4; stroke-opacity:1; fill:none" points="664.934,561.758 669.92,557.44 "/>
<path clip-path="url(#clip820)" d="M626.551 1097.28 L614.746 1115.73 L626.551 1115.73 L626.551 1097.28 M625.324 1093.21 L631.204 1093.21 L631.204 1115.73 L636.134 1115.73 L636.134 1119.62 L631.204 1119.62 L631.204 1127.77 L626.551 1127.77 L626.551 1119.62 L610.949 1119.62 L610.949 1115.1 L625.324 1093.21 Z" fill="#000000" fill-rule="nonzero" fill-opacity="1" /><path clip-path="url(#clip820)" d="M615.232 983.46 L633.588 983.46 L633.588 987.395 L619.514 987.395 L619.514 995.867 Q620.533 995.52 621.551 995.358 Q622.57 995.173 623.588 995.173 Q629.375 995.173 632.755 998.344 Q636.134 1001.52 636.134 1006.93 Q636.134 1012.51 632.662 1015.61 Q629.19 1018.69 622.871 1018.69 Q620.695 1018.69 618.426 1018.32 Q616.181 1017.95 613.773 1017.21 L613.773 1012.51 Q615.857 1013.64 618.079 1014.2 Q620.301 1014.76 622.778 1014.76 Q626.783 1014.76 629.121 1012.65 Q631.459 1010.54 631.459 1006.93 Q631.459 1003.32 629.121 1001.21 Q626.783 999.108 622.778 999.108 Q620.903 999.108 619.028 999.524 Q617.176 999.941 615.232 1000.82 L615.232 983.46 Z" fill="#000000" fill-rule="nonzero" fill-opacity="1" /><path clip-path="url(#clip820)" d="M624.607 889.131 Q621.459 889.131 619.607 891.284 Q617.778 893.436 617.778 897.186 Q617.778 900.913 619.607 903.089 Q621.459 905.242 624.607 905.242 Q627.755 905.242 629.584 903.089 Q631.435 900.913 631.435 897.186 Q631.435 893.436 629.584 891.284 Q627.755 889.131 624.607 889.131 M633.889 874.478 L633.889 878.737 Q632.13 877.904 630.324 877.464 Q628.542 877.024 626.783 877.024 Q622.153 877.024 619.699 880.149 Q617.269 883.274 616.922 889.594 Q618.287 887.58 620.347 886.515 Q622.408 885.427 624.884 885.427 Q630.093 885.427 633.102 888.598 Q636.134 891.747 636.134 897.186 Q636.134 902.51 632.986 905.728 Q629.838 908.945 624.607 908.945 Q618.611 908.945 615.44 904.362 Q612.269 899.756 612.269 891.029 Q612.269 882.835 616.158 877.973 Q620.047 873.089 626.597 873.089 Q628.357 873.089 630.139 873.436 Q631.945 873.784 633.889 874.478 Z" fill="#000000" fill-rule="nonzero" fill-opacity="1" /><path clip-path="url(#clip820)" d="M613.912 763.969 L636.134 763.969 L636.134 765.96 L623.588 798.529 L618.704 798.529 L630.509 767.904 L613.912 767.904 L613.912 763.969 Z" fill="#000000" fill-rule="nonzero" fill-opacity="1" /><path clip-path="url(#clip820)" d="M624.283 672.371 Q620.949 672.371 619.028 674.154 Q617.13 675.936 617.13 679.061 Q617.13 682.186 619.028 683.969 Q620.949 685.751 624.283 685.751 Q627.616 685.751 629.537 683.969 Q631.459 682.163 631.459 679.061 Q631.459 675.936 629.537 674.154 Q627.639 672.371 624.283 672.371 M619.607 670.381 Q616.597 669.64 614.908 667.58 Q613.241 665.52 613.241 662.557 Q613.241 658.413 616.181 656.006 Q619.144 653.598 624.283 653.598 Q629.445 653.598 632.384 656.006 Q635.324 658.413 635.324 662.557 Q635.324 665.52 633.634 667.58 Q631.968 669.64 628.982 670.381 Q632.361 671.168 634.236 673.459 Q636.134 675.751 636.134 679.061 Q636.134 684.084 633.056 686.769 Q630 689.455 624.283 689.455 Q618.565 689.455 615.486 686.769 Q612.431 684.084 612.431 679.061 Q612.431 675.751 614.329 673.459 Q616.227 671.168 619.607 670.381 M617.894 662.996 Q617.894 665.682 619.56 667.186 Q621.25 668.691 624.283 668.691 Q627.292 668.691 628.982 667.186 Q630.695 665.682 630.695 662.996 Q630.695 660.311 628.982 658.807 Q627.292 657.302 624.283 657.302 Q621.25 657.302 619.56 658.807 Q617.894 660.311 617.894 662.996 Z" fill="#000000" fill-rule="nonzero" fill-opacity="1" /><path clip-path="url(#clip820)" d="M614.514 578.32 L614.514 574.061 Q616.273 574.894 618.079 575.334 Q619.885 575.774 621.621 575.774 Q626.25 575.774 628.681 572.672 Q631.134 569.547 631.482 563.205 Q630.139 565.195 628.079 566.26 Q626.019 567.325 623.519 567.325 Q618.334 567.325 615.301 564.2 Q612.292 561.052 612.292 555.612 Q612.292 550.288 615.44 547.071 Q618.588 543.853 623.82 543.853 Q629.815 543.853 632.963 548.459 Q636.134 553.043 636.134 561.793 Q636.134 569.964 632.246 574.848 Q628.38 579.709 621.829 579.709 Q620.07 579.709 618.264 579.362 Q616.459 579.015 614.514 578.32 M623.82 563.668 Q626.968 563.668 628.796 561.515 Q630.648 559.362 630.648 555.612 Q630.648 551.885 628.796 549.733 Q626.968 547.557 623.82 547.557 Q620.672 547.557 618.82 549.733 Q616.991 551.885 616.991 555.612 Q616.991 559.362 618.82 561.515 Q620.672 563.668 623.82 563.668 Z" fill="#000000" fill-rule="nonzero" fill-opacity="1" /><polyline clip-path="url(#clip822)" style="stroke:#009af9; stroke-linecap:round; stroke-linejoin:round; stroke-width:4; stroke-opacity:1; fill:none" points="929.128,987.94 929.016,987.9 922.996,993.37 926.262,990.22 923.197,992.923 926.231,989.954 917.516,997.866 917.912,997.302 919.175,995.909 928.581,986.937 935.93,979.86 937.169,978.439 947.33,968.699 940.146,975.063 948.298,967.128 949.895,965.28 941.295,972.909 952.643,961.875 958.399,956.107 986.859,929.174 988.764,927.148 993.87,922.14 981.251,933.698 990.973,924.176 957.001,955.588 962.6,949.818 990.527,923.191 979.636,933.155 1031.56,884.583 1000.07,914.623 999.525,915.02 974.78,937.842 993.425,920.009 1034.24,882.428 1030.17,887.14 1031.67,887.049 1047.89,873.683 1027.24,894.053 1005.1,914.637 989.578,928.21 1038.52,882.506 1106.06,823.513 1114.62,819.513 1102.42,834.051 1043.14,889.445 1072.76,861.283 1099.42,837.364 1075.09,860.02 1103.68,833.952 1122.39,820.978 1071.02,868.256 1110.49,830.846 1142.35,804.465 1217.72,742.826 1247.32,726.021 1255.27,726.064 1267.12,721.892 1356.78,651.216 1259.38,741.439 1190.26,798.153 1184.48,799.446 1118.64,851.804 1060.77,896.133 1049.04,900.485 989.33,947.439 1051.21,886.048 1085.36,852.598 1097.48,841.527 1074.67,862.68 1048.46,884.72 1000.15,925.987 1030.69,895.509 976.873,943.317 991.415,927.19 979.091,935.578 1035.04,883.897 974.876,940.939 925.538,984.216 926.58,981.366 924.434,981.302 964.549,942.146 1015.88,894.724 1020.25,891.933 1017.84,895.995 1023.67,892.247 1041.64,876.599 1072.04,851.277 1062.73,862.389 1072.36,855.826 1048.33,879.402 1030.73,894.899 992.502,928.267 1021.74,899.778 996.207,922.278 984.948,931.799 920.068,988.64 1008.9,903.547 1054.58,862.717 1147.21,782.246 1122.05,811.298 1095.97,839.112 1151.14,792.32 1163.89,786.411 1161.02,793.3 1322.06,656.641 1275.82,710.458 1256.83,732.083 1162.02,813.72 1168.56,805.466 1182.65,791.532 1149.41,817.87 1181.35,788.514 1203.66,770.217 1148.88,818.66 1099.48,858.861 1085.82,867.796 1061.01,885.879 1102.6,845.691 1071.29,871.863 1049.5,888.704 1059.26,876.411 1083,853.565 1094.11,844.02 1136.68,806.045 1167.57,784.084 1226.87,736.087 1249.13,725.304 1200.14,773.494 1154.33,813.545 1104.98,854.086 1073.39,877.567 1055.85,886.402 1095.64,847.688 1169.06,782.787 1128.43,821.159 1078.28,865.779 1116.93,829.756 1033.42,903.847 993.928,936.078 963.181,960.333 952.274,966.932 939.978,975.066 929.434,980.865 934.237,973.842 970.343,938.025 918.327,985.7 931.737,972.214 888.621,1011.33 882.814,1014.3 841.365,1051.21 895.657,996.715 870.524,1020.89 874.313,1017.07 906.575,986.138 932.921,962.157 939.398,957.53 964.232,936.295 989.865,914.609 964.155,941.754 941.762,962.854 906.926,993.284 972.547,930.645 966.363,938.855 953.902,951.106 1014.16,897.273 1028.88,885.819 1083.43,838.507 1031.83,890.252 1012.86,907.348 1025.41,895.037 1025.41,895.441 1115.33,814.817 1109.96,824.802 1084.95,851.187 1007.76,918.773 1073.06,857.458 1074.35,857.744 1098.32,837.374 1080.75,854.066 1095.78,842.409 1088.32,850.429 1058.54,876.288 1077.98,857.737 1022.12,906.313 1102.78,832.046 1060.71,871.251 1013.54,912.772 1054.24,873.349 1070.05,858.61 1076.59,854.268 1078.63,854.295 1072.5,860.007 991.59,933.087 1033.04,891.648 1124.11,810.089 1101.5,834.688 1091.41,845.488 1132.51,809.352 1058.42,878.38 977.478,948.187 943.981,974.549 952.112,962.793 989.863,925.178 977.667,935.958 991.706,923.28 1053.31,865.471 1105.46,821.523 1120.8,813.034 1091.62,842.605 1194.31,752.973 1139.24,807.096 1184.86,769.033 1251.25,715.562 1280.4,696.786 1276.81,707.539 1201.93,777.947 1165.9,807.781 1120.43,845.221 1112.84,848.454 1061.09,889.561 1083.35,865.577 1120.25,829.808 1153.09,800.885 1171.54,785.084 1185.27,774.995 1191.47,771.973 1155.11,806.423 1127.6,830.262 1156.01,803.257 1197.18,767.416 1172.32,792.99 1167.32,798.278 1175.44,792.381 1198.26,773.645 1180.98,788.966 1181.14,788.233 1282.64,700.362 1292.2,702.236 1231.81,758.111 1248.26,744.254 1242.2,749.244 1211.72,775.118 1119.09,851.785 1081.47,878.363 1034.67,914.086 1077.44,870.075 1075.92,868.329 1029.57,906.698 1111.59,829.827 1128.31,816.397 1079.47,861.276 1017.36,913.198 1062.51,868.879 1067.06,864.156 1184.01,759.256 1262.54,697.342 1312.69,661.375 1311.15,673.153 1356.54,643.42 1448.4,576.723 1379.16,649.614 1310.59,712.341 1267.91,748.115 1302.16,718.098 1304.06,716.495 1319.57,702.984 1297.17,721.555 1302.48,716.842 1278.38,735.546 1262.01,747.531 1303.01,711.443 1266.99,742.094 1185.99,807.741 1155.23,829.99 1132.57,844.155 1115.62,853.949 1124.05,841.263 1105.78,852.841 1058.92,889.389 1051.29,891.156 1041.61,895.962 1063.01,872.619 1054.13,878.535 1065.61,866.237 997.935,926.957 1023.32,900.552 999.597,918.899 1024.66,896.242 1028.47,892.865 941.493,971.081 895.659,1010.55 853.663,1046.69 849.069,1045.97 854.273,1038.51 857.903,1033.19 908.724,983.589 890.547,1002.2 927.999,966.597 988.439,911.212 990.773,912.371 1031.13,877.547 1031.12,882.128 1075.16,844.659 1092.58,833.6 1110.29,822.969 1131.1,809.475 1147.98,798.032 1119.85,827.161 1059.02,880.842 1065,873.071 1121.83,819.708 1075.15,862.072 1117.5,824.576 1115.92,827.718 1085.99,855.419 1076.33,860.995 1136.98,807.381 1080.46,860.899 1012.82,917.257 1031.12,897.605 1016.8,907.933 1001.48,919.998 968.83,948.031 964.012,948.286 1006.82,907.652 1057.32,862.485 1046.77,874.816 1007.29,913.118 1039.64,882.739 1047.27,876.925 1067.3,860.145 994.88,927.002 1043.97,878.522 1148.57,786.925 1084.29,850.292 1129.32,810.931 1118.22,823.882 1177.89,773.399 1183.06,773.164 1244.06,726.211 1176.85,790.195 1245.88,732.271 1249.13,735.414 1163.57,810.455 1165.27,804.895 1094.02,863.737 1098.06,854.8 1071.71,872.991 1095.31,848.134 1096.12,845.414 1134.69,812.045 1014.05,919.068 959.446,964.279 921.162,993.582 914.377,994.633 932.255,974.23 930.215,973.486 968.398,936.893 914.957,987.358 868.486,1028.71 852.243,1041.77 883.363,1009.98 884.938,1008.82 877.092,1015.35 875.655,1016.32 837.524,1051.65 857.011,1031.59 886.016,1003.83 939.079,955.249 914.086,981.357 914.574,983.04 893.919,1002.55 859.781,1032.76 832.15,1056.98 859.58,1028.8 838.48,1048.66 875.441,1011.96 923.513,968.073 959.206,936.103 894.015,1000.31 886.808,1007.21 907.008,987.695 919.289,976.334 958.042,941.511 964.694,937.76 969.875,935.357 1024.87,886.991 1028.36,887.983 1081.48,842.754 1129.5,806.107 1047.79,884.945 1169.91,776.17 1199.55,756.945 1141.2,812.903 1244.23,723.164 1297.2,684.762 1247.2,736.685 1152.87,819.286 1133.86,832.999 1129.91,831.828 1115.63,841.701 1090.49,860.927 1099.43,848.785 1112.99,835.217 1116.5,830.867 1139.21,810.774 1196.01,763.5 1252.48,719.451 1261.5,722.401 1233.75,751.418 1223.93,761.032 1225.74,759.643 1159.71,815.332 1097.78,865.216 1134.01,828.2 1154.44,807.446 1080.73,870.744 1032.02,908.747 1032.06,904.025 1025.85,905.326 1025.24,903.208 1044.67,883.618 1051.6,876.936 1153.3,788.494 1143.76,801.141 1087.36,853.939 1084.05,856.554 1058.89,877.988 1064.76,871.491 1083.43,853.295 1095.09,843.202 1050.36,883.602 1027.62,901.619 1156.51,783.339 1170.34,778.804 1202.1,755.892 1221.6,744.529 1238.83,737.292 1240.31,740.384 1191.59,783.985 1120.57,843.188 1035.79,913.089 996.52,940.662 1042.09,894.42 1097.41,842.225 1065.7,871.052 1025.06,906.724 992.632,933.222 1006.93,917.76 1008.83,913.841 979.223,938.869 1012.62,906.186 1021.8,897.879 1010.39,909.074 972.496,942.784 947.467,963.09 927.733,977.73 935.035,968.362 940.626,961.735 1019.36,890.169 1064.13,852.623 1133.74,795.392 1097.22,835.176 1117.66,820.691 1058,875.449 1026.29,903.297 1112.19,823.353 1216.29,734.433 1234.67,724.547 1161.21,795.126 1088.87,860.481 1079.15,866.273 1107.6,838.28 1060.07,880.06 1042.83,893.1 1078.63,858.178 1117,823.542 1141.98,803.408 1146.3,803.604 1183.7,772.998 1245.34,725.707 1179.03,789.8 1259.93,720.33 1222.3,760.129 1153.58,821.788 1111.7,854.505 1062.19,893.929 1019.32,926.629 985.34,952.127 972.621,957.953 984.457,942.346 990.516,933.054 1047.25,879.294 1071.05,858.081 1012.38,912.465 1001.86,920.972 985.618,934.76 935.285,979.39 934.696,977.536 933.704,976.013 923.271,983.845 898.6,1004.73 903.471,997.761 895.851,1003.05 949.529,950.317 955.559,946.226 968.287,934.629 969.08,936.037 1030.85,879.199 1037.43,877.505 992.952,920.805 1011.01,904.323 1049.13,870.392 1000.96,916.112 975.142,938.859 997.939,917.229 944.234,965.552 946.953,961.551 928.466,976.768 938.529,965.909 937.313,966.3 945.27,959.408 958.077,947.749 965.591,941.092 934.532,969.958 921.751,980.206 959.409,943.89 1012.75,896.744 914.6,988.11 930.783,970.256 933.99,967.203 984.621,920.333 867.474,1030.72 948.364,952.01 959.316,942.749 959.888,944.012 982.185,923.342 994.162,915.394 995.094,915.624 1109.35,812.806 1097.87,829.078 1160.4,776.222 1233.73,718.432 1291.34,674.926 1278.25,696.73 1306.08,679.79 1259.49,727.795 1215.73,767.26 1209.59,772.778 1170.9,805.466 1054.4,903.551 1067.84,887.245 1106.94,848.459 1110.79,842.511 1077.36,870.042 1047.14,893.593 1020.09,914.058 1037.19,894.762 1018.92,909.281 1010.04,914.431 996.842,924.132 1021.33,899.957 1008.41,911.61 1043.21,879.398 960.003,955.647 979.668,935.212 976.05,936.19 1040.84,875.567 1018.12,900.099 957.603,954.716 1019.57,895.922 984.571,929.147 1066.32,854.215 1043.95,878.682 1051.92,872.788 1061.54,866.492 1090.26,842.349 1106.51,830.175 1214.3,739.332 1259.86,703.7 1284.23,689.902 1217.52,753.766 1170.03,797.206 1163.63,802.73 1158.69,807.079 1136.36,825.971 1147.1,815.089 1180.55,785.166 1148.12,814.187 1139.73,820.77 1136.7,822.213 1208.85,757.271 1232.46,739.501 1233.57,743.955 1246.92,737.407 1242.99,742.262 1148.64,823.698 1150.68,816.315 1195.51,774.803 1138.81,823.453 1103.24,850.804 1016.78,922.766 978.543,949.981 910.22,1006.33 878.726,1029.45 863.638,1038.09 916.305,983.965 836.718,1057.17 859.363,1032.1 880.339,1010.78 935.91,958.397 953.599,944.52 944.677,954.876 935.706,965.247 974.507,928.33 1059.28,853.313 1111.19,810.545 1050.24,872.26 1037.79,885.088 976.653,941.246 1045.54,875.71 1079.29,847.117 1052.22,874.489 978.481,941.914 955.918,958.503 910.546,997.23 903.932,999.99 935.001,967.799 926.632,974.485 965.214,937.418 990.416,916.315 975.668,932.106 960.427,946.637 892.752,1007.88 940.957,960.395 877.61,1020.1 874.513,1019.61 916.794,979.025 916.518,980.187 962.839,937.128 1000.83,904.474 1028.51,882.745 971.306,938.829 910.679,994.036 942.996,960.412 965.047,940.023 990.663,918.023 934.116,972.352 923.671,980.106 916.639,984.751 950.799,952.729 955.819,948.266 956.213,949.057 904.917,996.932 985.595,918.871 1019.42,891.983 1028.7,889.008 1054.87,867.907 1020.26,902.184 979.579,936.373 937.867,971.416 1032.24,881.767 1123.94,803.39 1158.31,782.102 1138.29,807.077 1053.63,884.156 1064.61,871.127 1076.03,859.239 1083.42,854.094 1156.69,788.846 1099.36,845.539 1137.93,809.992 1088.73,857.264 1076.78,864.947 1103.11,836.378 1088.26,851.779 1086.67,853.159 1029.31,902.576 1044.54,886.426 1023.22,904.122 1010.69,913.493 993.901,926.172 1005.07,913.091 941.704,970.339 889.333,1015.62 858.604,1040.35 850.659,1045.34 839.304,1053.94 824.88,1065.4 809.088,1078.81 814.404,1071.67 791.533,1092.29 785.137,1097.19 812.426,1069.64 858.405,1025.15 844.426,1040.19 809.055,1074.73 808.959,1074 779.445,1101.28 801.636,1078.62 840.833,1040.51 907.858,977.18 901.813,986.91 889.057,1000.69 878.905,1011.31 867.1,1022.07 844.802,1043.13 797.919,1087.23 810.898,1073.14 811.959,1070.97 855.846,1027.95 868.689,1017.84 890.51,998.111 955.269,939.185 915.996,980.048 964.742,935.1 987.21,917.657 992.982,915.286 930.235,974.238 1013.6,895.738 940.289,965.91 981.221,925.477 1010.82,899.234 985.906,924.968 989.696,922.138 982.256,929.215 1037.81,877.211 1028.2,891.868 997.632,920.904 983.648,932.667 891.575,1014.23 942.518,963.573 966.689,940.881 993.085,917.022 968.607,940.5 916.137,989.24 961.274,945.372 951.861,953.767 957.285,948.601 961.036,945.826 969.362,937.627 947.114,958.923 947.854,959.014 1017.67,892.998 955.058,953.257 965.945,942.492 1021.36,890.343 1050.41,868.055 1088.65,838.745 1054.7,873.876 1007.24,915.564 1029.7,892.942 985.138,931.669 996.138,920.326 1081.68,840.964 1093.12,836.419 1040.6,886.314 1053.54,873.812 1017.01,906.781 1045.42,879.836 1054.91,871.56 989.049,930.531 1032.82,888.778 1063.6,860.38 1104.11,826.606 1122.55,812.279 1144.03,796.517 1138.76,804.709 1096.07,845.91 1087.63,853.323 1005.21,925.538 972.848,951.323 934.212,982.335 925.168,986.212 870.188,1033.4 824.416,1071.61 799.218,1091.84 824.245,1064.24 835.143,1052.43 884.433,1004.12 860.412,1028.23 836.356,1051.25 808.213,1076.33 765.095,1116.66 772.043,1108.37 762.82,1116.16 781.276,1097.2 795.161,1083.73 792.977,1086.13 851.948,1029.43 841.397,1042.02 855.392,1029.57 807.95,1077.17 874.139,1012.29 868.74,1019.61 879.988,1009.89 890.856,999.934 849.081,1040.4 869.857,1020.21 922.617,970.006 961.285,937.336 950.824,949.905 950.739,951.279 963.835,940.818 942.51,961.711 911.277,990.377 911.962,987.157 906.532,990.41 856.011,1037.65 874.832,1017.05 804.081,1083.08 804.156,1080.02 790.098,1092.28 858.906,1025.02 885.197,1002.56 881.831,1007.14 915.446,976.825 897.608,995.658 890.808,1001.71 917.151,978.698 904.83,991.804 894.139,1001.02 920.144,977.079 877.029,1018.06 894.399,1000.3 1029.15,874.122 1051.54,861.157 1029.16,887.796 1080.95,843.228 1001.94,917.644 950.935,962.62 1074.34,845.83 1036.48,885.223 960.123,954.82 963.868,948.588 936.611,971.434 907.179,995.788 955.911,947.102 939.546,963.69 904.736,995.482 825.312,1067.73 828.227,1062.05 804.998,1082.15 836.259,1049.67 822.032,1062.94 824.426,1060.13 867.947,1017.58 878.226,1008.63 886.289,1002.58 891.855,998.45 919.465,973.563 952.42,945.473 901.885,995.364 911.591,985.562 905.757,991.177 920.418,977.143 927.788,970.983 981.434,922.058 988.334,918.258 1011.55,899.313 930.023,977.229 927.421,975.41 886.875,1011.82 899.822,996.355 968.974,931.672 1031.28,878.401 1069.35,848.01 1084.29,840.631 1080.78,848.188 1014.73,911.312 1051.88,873.754 1032.9,892.041 1046.55,878.072 1142.99,791.861 1194.96,749.126 1242.13,713.538 1229.63,731.85 1224.12,743.059 1320.94,665.534 1245.23,740.42 1178.4,799.146 1123.57,844.676 1096.43,863.784 1111.7,846.726 1030.91,914.57 1034.03,906.583 1019.32,916.29 985.164,943.677 984.144,940.068 926.174,989.668 906.703,1002.93 928.454,978.842 974.68,933.706 1031.32,882.119 1052.83,864.192 1033.6,884.058 1026.6,892.146 1081.65,842.756 1191.32,749.179 1178.13,769.091 1108.33,835.385 1019.67,915.231 973.056,952.211 899.542,1014.84 880.897,1027.67 848.446,1053.14 906.298,994.983 898.731,1000.64 885.837,1011.87 880.484,1015.16 885.23,1009.58 861.626,1031.28 925.845,968.637 962.071,936.67 1029.87,875.943 1135.45,783.758 1212.64,720.771 1208.88,735.169 1233.61,721.583 1271.82,697.417 1228.05,745.566 1234.11,743.794 1209.14,767.963 1147.79,820.525 1111.59,848.836 1174.66,789.737 1220.84,749.562 1205.67,766.276 1179.09,790.163 1110.32,847.915 1171.84,791.37 1175.17,788.974 1293.72,686.27 1245.03,737.021 1158.12,813.86 1097.4,863.462 1066.08,886.942 1042.29,902.775 1044.4,896.368 1114.27,830.155 1232,726.359 1294.26,676.701 1302.9,676.994 1218.9,755.95 1191.69,781.928 1169.4,801.221 1134.64,830.515 1104.74,854.296 1113.89,843.42 1146.3,812.601 1091.8,859.373 1061.37,882.856 996.709,936.917 1027.49,904.875 1023.74,905.616 1010.74,914.947 941.412,974.521 995.721,920.601 968.543,944.417 947.592,961.247 950.052,957.049 956.561,949.968 925.07,977.649 911.256,988.961 874.43,1022.41 883.983,1010.09 821.801,1067.25 887.197,1001.99 955.124,939.562 975.046,924.704 957.54,944.002 999.634,906.529 1005.82,904.982 1064.35,852.445 1123.57,804.533 1159.86,775.917 1190.83,754.041 1169.77,779.484 1138.6,810.569 1080.2,863.432 1061.48,878.647 1047.45,889.108 1062.43,873.24 1030.44,899.567 1042.02,886.94 1003.71,921.546 1046.16,879.931 1049.8,877.303 1058.73,868.567 1052.09,876.057 1044.52,883.006 1087.32,844.79 1052.47,876.677 1018.34,907.522 1050.83,876.639 1018.35,906.637 968.322,949.902 920.517,990.953 894.811,1011.21 875.951,1025.58 872.014,1025.78 875.658,1020.66 881.161,1014.01 856.447,1035.18 915.502,977.528 958.097,939.226 896.735,998.943 882.102,1011.99 868.053,1024.69 856.496,1033.87 904.493,987.545 904.576,988.828 848.288,1042.64 899.565,992.516 900.731,993.516 887.447,1006.29 821.295,1067.59 832.712,1054.56 853.157,1033.86 841.313,1046.01 851.458,1036.35 831.168,1055.2 762.639,1119.8 770.37,1109.34 729.025,1148.3 731.432,1144.75 746.104,1129.29 760.136,1115.18 717.172,1157.25 725.544,1148.09 761.926,1112.15 781.775,1093.01 805.215,1071.07 864.471,1014.99 874.665,1007.9 826.858,1056.18 844.442,1038.91 849.558,1035.17 873.044,1012.91 889.225,1000.2 912.051,979.333 920.056,973.872 915.841,979.384 968.254,931.232 960.179,942.321 940.92,961.031 947.902,954.581 876.906,1020.79 893.581,1002.26 950.076,949.68 969.634,933.291 970.999,934.137 919.414,982.484 942.446,960.093 919.804,981.887 999.407,905.878 954.128,950.364 1007.87,902.138 1045.5,869.688 1122.16,805.298 1148.41,788.106 1118.17,822.236 1186.62,764.915 1108.24,839.564 1150.82,801.573 1171.23,786.483 1078.79,868.681 1050.11,890.069 1042.43,892.627 1019.74,909.412 1092.93,839.977 1100.72,835.614 1126.73,817.317 1205.64,751.263 1325.68,654.956 1379.84,627.258 1308.72,699.662 1368.69,653.516 1274.21,740.659 1334.85,688.771 1321.52,702.325 1286.63,731.273 1282.72,732.726 1240.44,766.126 1255.79,750.052 1214.2,782.779 1125.7,853.225 1104.14,865.704 1066.22,893.318 1075.66,878.108 1044.56,900.732 1075.81,868.071 1094.49,848.39 1076.61,863.826 1063.65,873.351 1075.43,862.581 1116.04,824.038 1084.24,854.042 1050.49,884.896 1102.05,835.477 1107.21,833.662 1184.32,769.939 1167.41,792.103 1078.88,870.124 1111.3,839.093 1098.1,849.699 1111.99,836.335 1153.41,798.758 1222.67,740.735 1250.29,720.856 1310.08,674.664 1357.33,644.452 1361.21,651.092 1247.24,752.946 1262.7,739.6 1197.97,794.24 1170.87,814.541 1126.29,849.536 1060.23,901.969 1100.59,861.617 1056.05,895.955 1085.5,865.343 1060.71,883.546 1047.86,891.424 1016.87,914.876 1006.76,920.453 987.729,935.154 1021.22,901.079 1038.15,884.774 1048.8,874.604 1041.92,883.086 1046.64,879.242 989.854,930.869 972.311,945.733 1012.6,906.889 999.568,918.287 1009.21,908.964 939.225,972.495 934.724,974.375 865.112,1036.28 855.428,1042.23 881.494,1014.84 885.562,1009.8 874.005,1019.98 929.544,966.643 945.388,953.018 964.79,936.825 990.494,915.177 995.779,913.214 995.733,915.054 1018.45,894.894 1083.77,840.511 1051.08,873.733 1061.09,866.764 1054.26,874.534 991.947,929.783 1017.01,905.146 993.53,925.605 977.44,938.746 995.532,919.857 975.678,937.785 1009.46,906.199 1020.38,896.929 1065.93,855.931 1034.3,890.224 991.347,928.599 955.151,958.283 908.73,997.398 892.205,1009.05 874.308,1023.02 881.804,1013.28 888.885,1004.07 893.112,999.145 875.111,1016.15 871.941,1019.49 920.921,973.627 983.863,916.046 1035.8,873.443 1000.66,910.152 1000.48,911.958 999.782,912.907 1067.81,852.047 1030.08,889.876 1045.35,877.922 1021.77,900.981 1009.24,911.879 984.852,933.14 999.367,918.566 937.524,973.68 918.96,988.577 965.008,943.514 978.04,930.837 1006.78,904.691 942.288,965.746 924.428,980.851 908.633,994.198 958.613,945.15 994.443,912.546 973.234,933.955 921.394,982.495 960.523,943.688 936.003,965.971 993.215,913.295 1011.05,898.349 976.056,933.343 1030.95,884.287 1029.69,887.395 1045.33,875.966 1011.59,907.579 1040.78,881.982 969.612,946.888 953.754,959.167 1011.05,904.083 1057.99,862.463 1026.34,893.839 985.703,931.637 949.932,963.316 936.031,971.948 984.316,925.349 983.573,926.995 981.616,929.495 1020.59,892.777 1027.29,888.644 1030.76,887.273 975.197,938.573 952.184,958.448 955.628,952.483 1016.5,896.409 979.867,932.255 949.38,959.639 925.549,980.71 869.06,1030.87 904.253,995.473 901.343,996.926 895.049,1002.04 905.235,991.882 892.318,1003.92 841.046,1051 854.666,1035.57 850.778,1037.63 909.827,980.997 971.31,925.202 946.115,952.242 951.529,949.066 989.168,915.889 944.337,960.738 964.607,941.781 1024.85,888.415 1074.27,846.482 1168.56,767.13 1151.38,790.551 1233.84,723.519 1239.25,728.289 1274.55,706.597 1235.08,748.693 1272.55,720.52 1200.54,785.007 1202.19,782.295 1183.36,795.185 1143.36,827.131 1163.48,805.481 1198.93,772.471 1307.48,680.633 1342.96,658.431 1298.83,704.095 1289.82,715.362 1330.08,683.786 1367.32,657.868 1225.15,781.212 1153.01,838.828 1173.68,817.117 1200.67,790.195 1238.45,755.547 1149.42,829.505 1108.95,860.477 1074.8,885.905 1107.63,852.363 1079.84,873.141 976.411,959.323 997.778,935.42 1011.29,919.02 1000.67,925.972 973.49,948.081 943.466,972.154 887.696,1020.27 893.215,1012 881.535,1020.22 856.135,1040.83 864.334,1030.66 826.807,1064.64 874.919,1016.5 854.361,1035.93 811.436,1075.8 836.496,1049.43 784.23,1099.44 846.208,1038.47 932.464,956.787 919.659,972.864 892.147,1000.8 883.269,1008.78 928.185,966.477 881.03,1012.51 861.396,1030.53 856.919,1033.4 869.694,1019.01 824.179,1062.74 861.215,1025.77 899.848,989.842 962.699,931.728 1039.83,863.656 1063.46,848.293 1052.65,863.32 1080.41,842.646 1050.05,874.524 1032.09,890.991 981.099,936.589 960.985,952.833 958.592,953.051 931.082,975.417 895.471,1006.89 908.412,992.41 923.779,976.371 986.397,918.156 1016.16,893.777 1021.89,891.237 1029.24,887.183 975.511,936.825 856.161,1044.35 856.642,1039.05 836.054,1055.43 853.344,1036 829.447,1057.04 860.091,1027.46 880.049,1008.95 891.457,999.742 922.658,971.768 992.306,909.215 961.25,942.109 937,965.259 937.474,964.184 1038.45,870.74 968.503,940.255 988.41,920.705 1007.19,905.197 996.018,916.332 1039.67,876.641 1100.79,825.464 1105.99,825.621 1134.24,805.186 1105.39,836.059 1079.48,859.709 1069.08,867.829 1112.1,827.081 1105.94,833.551 1141.38,803.331 1212.13,744.004 1220.64,744.424 1177.41,787.764 1078.51,873.105 1028.35,913.96 997.425,936.715 958.785,967.08 950.866,968.477 961.902,954.7 906.871,1001.94 928.872,978.521 988.16,921.106 1044.04,870.329 1066.6,851.236 1114.48,810.161 1093.42,834.323 1113.44,818.946 1098.08,835.738 1095.36,839.914 1213.15,736.805 1272.92,689.285 1398.13,589.08 1435.09,570.036 1470.42,553.611 1529.8,518.516 1551.24,517.338 1530.73,548.353 1583.27,517.013 1474.72,614.065 1447.18,639.587 1439.25,647.218 1466.85,626.1 1439.11,649.116 1387.07,690.127 1299.19,758.009 1306.85,748.022 1253.79,787.02 1207.27,820.133 1137.96,871.298 1106.78,891.473 1128.51,867.393 1132.51,858.364 1146.43,840.865 1187.55,800.652 1237.23,754.799 1193.43,791.874 1186.16,795.996 1195.27,785.662 1115.86,852.097 1108.64,853.273 1064.72,888.167 1127.12,828.393 1052.72,891.636 1123,825.034 1048.39,891.596 1046.67,889.051 973.907,951.423 920.634,995.531 874.818,1032.62 873.069,1029.45 933.551,969.239 994.058,912.742 1012.43,897.841 1009.9,902.11 992.333,920.761 1007.17,907.306 989.91,924.689 946.723,963.22 992.868,918.093 1039.8,875.162 1006.9,908.842 1006.81,909.726 947.376,964.752 947.977,961.552 944.004,963.668 957.413,950.406 978.069,930.731 973.62,934.083 946.963,959.347 990.062,918.092 1062.58,854.673 1079.16,844.24 1104.18,827.101 1065.8,866.369 1069.18,862.185 1130.89,807.346 1102.9,837.025 1217.29,738.656 1181.95,777.951 1148.07,809.408 1120.59,833.58 1097.35,852.419 1023.52,914.017 978.884,950.335 938.884,981.301 933.418,982.153 922.096,988.376 938.357,970.256 938.29,968.023 1014.3,896.639 1003.3,908.732 1013.34,899.82 975.149,936.833 937.881,970.439 868.576,1032.67 844.362,1052.15 891.999,1003.92 872.828,1020.95 848.682,1043.05 759.829,1125.41 748.091,1134.1 749.527,1130.57 756.355,1122.35 739.653,1137.71 772.808,1104.17 759.423,1117.32 766.703,1110.26 739.841,1136.56 762.815,1113.28 697.059,1178.01 738.221,1135.48 730.227,1143.47 714.29,1159.03 707.209,1165.78 717.832,1154.66 764.437,1108.17 749.526,1124.53 720.934,1153.16 703.592,1170.01 715.717,1156.92 769.408,1103.75 823.593,1051.71 873.335,1005.29 868.534,1013.58 844.329,1039.1 801.164,1082.19 785.774,1095.84 803.837,1077.2 847.289,1034.77 865.008,1019.55 900.465,986.114 903.334,985.872 907.456,983.219 979.038,916.653 1026.47,875.779 1044.96,863.161 1098.94,817.791 1104.18,819.885 1075.37,851.296 1063.57,864.733 1095.92,837.282 1131.78,808.07 1095.1,844.292 1228.75,727.446 1235.06,732.756 1258.61,719.343 1366.38,633.576 1364.7,648.103 1303.74,707.438 1229.95,770.772 1260.13,743.416 1284.28,723.568 1234.31,766.093 1171.88,816.215 1149.43,830.746 1092,875.366 1096.81,865.276 1063.83,889.073 1060.57,886.915 1100.25,847.549 1221.51,739.955 1261.62,708.925 1224.73,747.283 1216.04,759.101 1217.03,761.144 1258.27,728.903 1123.48,847.173 1109.6,855.12 1120.46,841.326 1142.51,818.82 1129.37,828.693 1076.76,871.833 1033.33,906.506 1007,925.304 976.756,946.839 989.152,931.14 943.783,969.474 996.509,917.295 1027.87,888.58 1015.08,901.796 956.895,955.711 1027.83,888.711 1003.94,912.191 947.624,963.5 936.609,971.731 931.998,973.943 930.677,973.822 917.893,982.746 914.175,985.2 908.156,989.759 912.642,985.243 902.545,994.568 858.4,1035.52 825.463,1063.83 834.015,1052.54 800.591,1083.57 774.184,1107.71 787.183,1093.68 764.635,1115.3 759.196,1119.18 758.68,1118.8 730.336,1146.1 724.31,1151.02 724.856,1149.24 751.068,1122.66 772.811,1101.45 787.309,1088.59 810.909,1066.1 835.116,1044.78 862.917,1019.48 821.512,1061.27 815.787,1066.61 815.844,1066.6 828.637,1054.01 853.566,1030.41 887.78,998.621 867.189,1021.22 881.426,1008.14 907.215,984.246 906.068,987.819 926.128,969.318 962.639,937.54 938.966,961.052 886.31,1009.85 937.806,959.805 883.581,1011.62 952.442,946.433 967.05,935.009 1016.13,891.405 980.52,928.556 984.892,924.497 1095.7,824.771 1113.38,814.361 1170.72,768.703 1155,791.681 1161.59,790.475 1188.57,770.936 1066.05,880.311 1088.19,857.307 1143.1,805.611 1071.06,871.351 1057.45,880.334 1107.45,832.773 1032.73,900.75 947.849,972.333 904.649,1008.13 915.585,993.836 929.191,977.124 984.881,923.38 1043.89,869.778 1067.86,851.375 1039.74,879.996 978.279,937.639 951.614,960.172 968.511,942.392 968.008,942.231 995.007,916.22 978.272,932.505 1059.42,857.899 1110.82,815.85 1092.65,837.422 1036.16,890.729 1026.12,899.408 1020.24,903.713 961.886,954.962 1012.8,905.743 1051.06,870.861 1030.69,890.742 1031.05,890.567 1155.31,777.802 1128.46,805.852 1112.6,822.54 1031.16,898.416 1062.6,868.59 984.402,939.656 984.218,937.106 984.497,934.919 929.251,983.88 927.773,982.806 961.133,949.258 987.432,923.705 998.866,913.265 947.606,960.831 933.223,972.194 979.186,927.886 1066.32,848.452 1055.53,863.981 1101.5,825.009 1057.08,869.31 1102.29,830.739 1165.37,776.626 1162.11,785.187 1178.2,774.636 1227.94,735.819 1251.63,722.267 1215.95,758.01 1183.76,787.974 1189.45,781.582 1172.06,796.845 1194.39,776.869 1098.07,859.654 1071.94,878.123 1030.02,910.187 1017.93,915.015 1034.74,895.699 1022.46,904.414 1042.97,883.763 1092.4,838.584 1098.57,836.968 1018.35,911.008 1096.65,836.135 1048.4,882.623 1050.34,877.941 1133.39,804.41 1196.38,750.953 1199.01,754.972 1176.89,778.904 1183.65,776.24 1195.48,769.373 1144.06,815.897 1179.77,783.866 1198.73,768.809 1215.35,756.313 1229.65,747.271 1235.02,747.036 1328.91,671.419 1321.91,686.37 1372.96,650.494 1422.19,618.302 1501.53,564.136 1430.24,632.839 1319.79,724.783 1320.65,722.301 1334.48,708.449 1260.71,766.55 1200.48,811.998 1154.84,844.443 1140.02,851.634 1133.57,851.237 1130.42,848.447 1108.03,862.037 1143.54,825.845 1146.38,819.307 1182.37,785.637 1259.33,719.415 1261.78,721.211 1249.68,734.844 1233.05,750.992 1206.25,776.35 1160.63,813.408 1155.84,815.03 1240.41,739.113 1287.79,701.753 1226.97,758.977 1138.16,835.267 1144.62,826.133 1131.27,834.658 1082.14,873.952 1020.16,924.09 962.272,970.045 928.743,994.343 898.772,1016.7 938.708,974.685 914.447,993.937 948.37,959.175 918.198,985.905 916.319,985.192 920.661,980.316 907.228,992.152 884.837,1011.4 905.105,990.622 922.556,974.998 917.528,979.966 951.395,948.502 979.933,924.749 993.249,914.103 998.275,912.753 994.886,916.478 980.476,931.398 962.008,947.902 928.001,976.751 912.902,988.886 911.499,988.931 905.752,992.438 887.019,1008.65 971.446,927.558 971.814,931.429 936.026,967.283 938.227,964.865 981.006,925.007 980.046,927.035 997.818,913.076 1007,906.48 959.245,951.667 961.185,947.566 1053.51,863.353 1001.38,914.241 1011.99,905.049 940.458,968.354 956.703,951.465 975.359,933.655 989.817,919.372 995.351,915.322 1016.76,896.507 1054.27,864.201 1090.09,835.018 1164.37,773.461 1224.86,726.512 1243.62,720.662 1158.87,801.702 1132.28,824.517 1127.81,826.354 1063.12,881.447 1040.99,896.788 1035.81,897.673 1032.2,897.491 986.208,934.348 1017.2,903.012 1016.53,904.579 923.685,989.035 907.867,999.868 907.179,997.714 892.682,1008.79 968.979,934.929 921.677,979.674 973.257,930.898 1010.51,897.549 1000.1,909.846 984.248,927.418 947.302,961.177 1032.35,881.871 1004.37,909.515 983.595,929.732 994.945,919.182 1016.57,897.722 1034.58,886.874 1060.58,864.442 1071.88,858.241 1098.64,834.646 1123.87,814.558 1113.9,826.998 1148.56,798.59 1176.41,777.745 1179.92,782.229 1160.62,801.482 1052.34,895.594 1018.6,920.258 1019.46,915.693 964.725,960.828 999.165,926.041 1008.47,915.133 1043.46,881.523 1023.57,900.117 1063.3,863.694 1060.79,868.266 1056.88,871.342 1039.44,887.695 1012.89,910.552 1026.48,897.138 990.849,929.188 977.797,939.04 933.06,977.546 946.885,962.32 999.406,912.226 1006.63,906.736 1006.93,908.501 1104.79,820.136 1095.01,836.356 1123.87,814.368 1138.3,805.786 1143.3,804.289 1136.9,813.919 1088.13,859.867 1122.26,826.666 1168.52,785.77 1176.78,782.497 1098.94,852.56 1053.22,890.45 1007.52,927.162 969.208,956.362 970.882,950.555 985.445,933.606 1006.44,912.21 1035.39,884.604 1072.01,852.871 1107.6,823.281 1148.19,791.556 1166.01,782.159 1201.18,756.659 1082.67,864.671 1079.49,864.822 1101.46,841.827 1005.27,927.993 1011.61,916.573 1020.85,904.258 1032.13,892.206 972.348,945.847 1030.67,889.436 1074.71,851.496 1085.55,844.724 1110.07,824.189 1111.3,827.7 1116.16,824.515 1070.61,867.393 1072.11,862.961 1094.84,842.603 1073.87,862.185 1074.74,861.141 1042.47,889.294 1020.01,907.367 1023.39,902.199 1041.66,883.684 1034.99,890.788 1010.01,912.902 1097.37,831.537 1030.31,895.209 1069.29,859.24 1102.17,832.443 1141.85,798.509 1169.31,778.258 1131.84,814.907 1097.31,846.985 1060.25,879.58 1018.94,914.951 1005.34,924.594 1008.42,918.437 1019.53,906.194 1003.16,919.621 999.43,920.296 983.033,933.703 1003.35,913.809 1032.43,886.046 1030.89,889.348 1013.95,905.281 1060.01,863.257 1085.38,841.59 1113.04,818.63 1125.35,810.317 1088.03,847.63 1111.21,829.099 1094.55,845.86 1135.13,813.142 1177.52,778.464 1152.46,804.259 1171.45,787.377 1222.71,745.709 1294.8,690.457 1203.31,776.69 1147.19,823.044 1124.47,839.507 1144.34,817.734 1265.14,711.254 1387.13,614.56 1421.4,600.085 1421.58,611.908 1441.54,605.766 1414.51,636.07 1474.44,592.855 1438.28,629.896 1456.18,619.487 1360.58,699.845 1314.17,735.43 1359.52,695.536 1337.49,711.588 1339.87,707.431 1356.31,692.656 1256.94,771.725 1195.35,818.069 1162.93,839.587 1163.57,833.296 1134.7,852.167 1165.07,820.245 1090.7,878.901 1071.15,889.507 1037.26,913.63 1047.78,898.663 1078.09,866.467 1079.53,862.757 1120.06,825.7 1056.8,882.28 1010.89,919.75 924.58,994.347 896.796,1014.64 899.718,1006.74 920.664,983.508 952.799,951.35 931.446,971.7 932.734,970.554 959.21,944.476 962.035,943.448 937.893,966.971 854.687,1042.06 842.914,1050.5 824.838,1064.84 830.141,1057.9 786.664,1097.56 800.716,1082.2 792.69,1088.94 824.141,1057.37 841.369,1041.28 879.37,1006 895.081,992.686 902.846,987.973 976.365,920.615 913.036,983.655 892.269,1003 871.699,1022.21 906.786,987.742 962.65,938.072 979.707,924.55 1029.24,881.236 1053.15,861.818 1037.09,881.311 1024.65,895.411 1051.24,871.66 990.147,928.716 991.462,925.475 978.763,935.183 990.853,922.239 1098.56,825.058 1078.72,847.443 1077.79,850.963 1043.9,884.006 1146.26,792.255 1160.43,783.727 1119.01,823.994 1118.3,825.418 1143.85,804.838 1088.93,854.985 1070.09,870.029 1035.97,898.882 1023.49,905.69 1007.53,917.345 958.836,959.475 925.616,985.396 906.686,998.979 938.358,966.829 926.241,976.788 944.226,957.906 980.499,923.894 1001.69,907.292 1129.31,792.406 1088.37,839.321 1049.17,878.122 1105.32,828.841 1100.07,837.716 1074.17,861.581 1096.15,841.715 1073.58,861.967 1091.57,846.1 1127.66,815.89 1107.57,834.824 1077,862.381 1047.36,888.026 1038.63,892.457 983.344,940.421 992.596,927.831 1085.82,840.486 1011.45,909.608 955.258,959.532 960.238,951.329 954.23,954.435 948.495,959.259 946.716,959.145 892.521,1006.96 857.045,1038.43 921.047,975.354 925.709,971.858 971.216,930.715 944.593,957.187 933.62,970.204 929.517,972.866 905.18,994.118 877.907,1018.39 955.981,944.191 914.942,983.173 954.401,946.132 932.76,967.68 895.705,1003.08 953.121,947.624 946.21,954.359 980.76,924.461 1004.78,904.449 1003.73,908.8 1021.25,895.105 1122.74,805.736 1081.08,850.167 1107.76,829.437 1008.84,920.031 979.985,939.568 954.476,960.54 927.801,982.232 919.421,985.958 942.901,961.403 929.558,972.438 939.796,963.536 943.562,960.198 975.314,931.375 1023.57,890.074 994.473,919.813 1021.28,894.771 974.348,938.996 968.738,943.183 967.164,940.075 918.253,984.461 903.908,996.923 927.594,973.067 888.831,1008.59 994.995,906.46 1071.3,841.149 1141.89,784.886 1150.1,786.381 1097.26,840.559 1082.37,854.431 1090.88,846.497 1124.1,817.584 1030.03,902.839 1106.86,831.428 1137.75,807.323 1108.27,837.176 1119.29,827.834 1122.39,825.785 1157.42,794.807 1176.27,782.803 1163.82,796.682 1260.01,714.787 1243.93,742.371 1236.08,750.829 1219.18,765.87 1197.87,784.533 1209.02,772.328 1152.7,820.248 1038.55,915.966 1061.41,890.678 1011.14,930.373 974.229,957.896 966.376,959.874 952.362,967.788 967.098,950.15 917.882,992.275 908.347,997.73 854.724,1044.18 858.303,1037.18 890.381,1004.58 905.772,989.478 892.71,1001.59 888.515,1005.01 897.401,995.5 920.514,973.945 1047.46,856.021 1086.68,825.464 1069.64,847.088 1101.15,823.565 1194.62,745.47 1198.57,750.49 1208.26,749.953 1209.87,755.068 1232.7,739.639 1225.38,751.325 1204.51,772.691 1223.96,755.819 1265.74,723.504 1276.65,721.744 1301.37,703.99 1266.51,734.95 1162.66,822.22 1163.19,814.955 1104.84,860.916 1183.37,786.942 1194.37,776.458 1182.22,787.499 1117.59,844.166 1057.1,892.731 1019.35,920.507 1011.49,922.718 977.653,948.677 995.072,927.945 1044.41,879.294 1078.41,850.447 1050.93,876.582 1018.74,905.696 1091.88,838.479 1135.74,800.793 1119.56,819.412 1088.05,849.773 1114.28,827.082 1177.43,773.615 1180.31,774.328 1176.81,781.416 1142.73,813.818 1104.08,846.143 983.493,950.497 967.168,960.023 948.673,971.559 940.078,974.697 985.351,928.904 1022.94,892.736 1051.76,868.847 1027.71,893.546 987.162,930.762 1007,910.501 979.933,935.694 1045.8,874.131 1076.7,848.684 1049.41,877.265 931.999,982.966 938.036,973.373 934.635,973.33 894.386,1008.21 873.344,1024.12 884.267,1010.63 970.753,928.509 967.644,933.688 969.109,934.709 976.283,928.889 1002.31,906.837 1005.56,905.779 955.773,953.132 888.432,1014.39 882.826,1016.35 886.307,1010.55 923.134,975.191 905.125,992.09 924.254,973.563 965.355,935.975 1014.48,893.135 1065.36,851.3 1097.08,827.399 1167.96,770.324 1181.7,766.593 1116.98,830.767 1098.34,844.623 1070.38,868.703 1056.74,878.85 1030.83,900.637 990.028,933.943 935.629,981.225 952.976,961.194 962.382,949.692 962.539,948.198 952.949,955.685 983.199,925.961 927.279,978.249 868.563,1030.58 841.921,1052.57 865.918,1026.05 928.321,966.255 958.406,940.204 1010.86,894.401 1017.31,892.247 1135.42,787.041 1195.74,738.411 1215.36,729.204 1136.09,808.076 1192.38,761.33 1213.43,748.627 1222.08,746.36 1299.64,685.511 1334.95,663.424 1418.6,601.387 1460.22,580.286 1403.29,639.24 1386.21,658.392 1326.2,710.128 1334.82,703.367 1267.04,758.253 1218.87,794.102 1211.11,796.419 1271.56,741.76 1259.03,750.465 1270.73,739.035 1274.61,734.093 1286.4,723.325 1210.59,786.777 1214.87,780.035 1245.09,751.219 1225.95,766.408 1291.64,709.353 1284.77,719.315 1382.51,641.118 1432.49,609.92 1427.16,624.268 1391.07,658.047 1390.71,660.127 1485.62,584.742 1455.08,617.958 1420.68,649.091 1377.76,684.519 1343.3,711.783 1291.18,751.784 1229.31,798.353 1231.91,791.33 1257.33,765.414 1290.07,734.057 1266.6,751.447 1236.22,774.016 1247.51,761.431 1242.41,763.046 1226.29,772.682 1163.19,822.79 1132.74,844.16 1083,880.929 1086.76,872.642 1089.76,865.141 1098.46,853.558 1139.75,814.49 1078.36,869.046 1036.1,901.246 1115.91,826.972 1153.34,793.956 1191.2,762.864 1196.91,761.937 1267.78,704.535 1252.28,725.168 1244.55,736.408 1216.06,764.423 1156.27,816.202 1130.8,835.711 1143.59,821.046 1137.15,824.153 1162.31,799.526 1112.26,844.166 1055.09,889.606 1023.87,913.12 971.871,954.854 943.601,974.946 900.595,1009.63 904.607,1000.76 907.429,994.002 920.622,980.381 918.735,981.649 906.762,992.627 891.065,1005.44 936.433,961.641 1001.52,903.94 1094.4,821.955 1167.79,763.445 1140.94,796.242 1078.59,856.922 988.789,935.55 1068.27,860.688 1124.06,811.647 1145.88,794.722 1168.19,777.522 1171.59,778.772 1128.24,820.533 1143.24,808.54 1216.16,747.39 1179.01,784.874 1182.75,782.053 1170.7,793.345 1114.38,842.365 1124.76,830.179 1117.2,836.183 1050.27,892.218 1051.47,888.121 1044.27,891.1 1004.06,925.566 979.96,943.951 943.493,974.367 939.681,974.824 936.414,974.886 926.018,981.141 936.961,968.982 989.647,918.538 1004.22,906.106 999.435,913.166 1022.45,892.693 1039.68,878.448 1002.43,914.006 983.532,929.911 974.52,936.636 1073.54,845.982 1062.47,859.602 1111.22,818.018 1174.07,765.902 1238.52,716.107 1212.61,747.266 1339.42,644.524 1306.2,684.516 1260.53,731.324 1223.93,764.025 1193.44,788.683 1195.7,785.256 1197.67,782.546 1172.07,802.938 1117.74,847.821 1101.5,857.299 1153.74,808.437 1219.46,750.185 1178.3,788.749 1141.54,820.682 1192.61,774.437 1150.76,811.943 1106.22,848.892 1075.7,872.218 999.846,934.959 952.038,972.082 909.819,1005.06 910.172,999.143 927.189,979.22 921.278,981.202 956.026,948.002 984.158,922.342 1001.85,908.388 976.868,933.927 972.024,938.66 988.508,923.504 989.516,923.586 1072.09,850.376 1208.08,732.499 1200.35,750.671 1324.14,652.965 1370.96,625.155 1467.49,558.333 1661.43,418.523 1755.74,366.187 1765.8,383.62 1725.07,436.493 1645.74,512.537 1579.53,571.631 1543.6,603.483 1514.23,627.921 1580.52,578.755 1542.33,609.741 1542.94,610.307 1558.37,598.996 1540.02,613.626 1455.92,676.695 1441.18,686.037 1477.6,655.704 1406.6,707.786 1383.59,722.252 1357.1,738.652 1328.92,756.454 1309,767.296 1307.44,763.618 1314.94,752.822 1266.06,786.547 1255.45,789.532 1217.06,815.543 1190.17,831.114 1141.63,865.251 1132.15,866.735 1101.83,886.07 1113.45,870.068 1085.64,887.984 1053.99,908.629 1100.39,862.832 1103.58,855.769 1084.17,868.962 1087.58,862.135 1088.82,857.762 1034.21,904.397 1141.48,804.799 1133.43,813.355 1137.4,812.535 1140.45,811.179 1093.81,853.116 1150.74,801.445 1117.61,830.807 1082.08,861.953 1159.43,791.752 1189.46,769.67 1112.97,838.733 1079.45,867.087 1074.76,868.451 1038.25,897.72 1044.82,888.468 984.588,939.546 983.027,937.909 974.166,943.468 979.912,935.352 959.257,952.424 906.65,996.869 887.176,1012.71 890.589,1007.04 894.518,1001.83 942.763,955.931 983.412,919.612 1021.73,887.384 1027.28,885.796 1020.26,895.88 953.718,958.541 924.02,981.562 910.496,991.847 970.314,933.943 1025.6,884.169 1007,905.305 961.706,949.134 982.935,928.599 990.365,922.964 978.464,934.564 980.716,932.065 958.943,950.032 890.589,1012.95 909.644,993.048 933.332,969.15 917.9,983.159 926.763,973.97 981.213,922.08 963.469,941.511 990.648,917.325 980.74,928.716 953.775,954.054 1014.27,897.716 989.942,923.364 939.969,968.207 928.367,977.292 949.306,955.536 979.608,927.561 937.101,968.944 908.64,992.511 891.675,1006.82 974.298,928.004 975.703,928.622 1022.04,888.522 991.568,919.95 982.216,928.89 889.049,1014.1 879.506,1020.38 866.404,1030.23 881.541,1014.03 865.014,1027.19 859.304,1031.78 895.981,995.622 878.195,1013.04 853.975,1036.09 831.433,1057.12 870.773,1018.55 931.669,961.514 928.86,967.481 922.966,973.044 988.354,914.059 1061.43,850.953 1047.58,869.837 979.641,935.412 999.393,915.814 984.9,928.418 1054.78,863.839 1052.88,869.83 1076.21,851.501 1096.35,837.417 1002.74,924.498 1007.8,913.845 1033.16,890.68 1058.31,868.227 1050,876.702 1048.42,877.38 1112.32,819.764 1074.76,856.862 990.797,933.301 973.145,945.973 909.651,1001.45 951.786,957.814 975.41,934.399 1070.99,847.136 1078.02,845.34 1071.18,855.636 1120.93,813.448 1158.8,787.192 1193.49,761.439 1124.1,828.322 1030.79,908.818 1007.82,925.571 966.985,956.967 969.599,950.511 1001.03,918.09 1001.72,917.159 1046.93,875.176 1082.98,843.356 1093.73,836.23 1063.44,866.014 1061.85,868.178 1096.61,837.598 1104.16,833.296 1137.49,807.279 1096.66,846.93 1065.24,872.829 1059.49,876.936 1095.57,843.101 1120.84,821.711 1142.05,805.012 1173.11,779.776 1233.27,732.073 1250.25,723.236 1250.82,728.363 1242.13,740.348 1158.12,814.591 1084.63,875.64 1095.31,861.504 1073.99,875.968 1058.61,884.979 1022.08,912.796 1002.76,926.266 922.221,993.573 890.004,1019.88 904.658,1002.34 897.584,1005.88 923.692,978.748 945.424,957.38 1021.47,887.274 1031.42,881.149 1029.84,886.14 1018.33,899.444 1054.32,867.092 1060.49,864.519 1036.86,887.892 1044.99,880.932 1036.77,889.144 1079.51,851.066 1107.9,826.635 1210.86,739.519 1197.23,758.161 1179.67,778.768 1186.64,775.299 1183.57,780.311 1186.08,779.988 1121.51,837.769 1219.87,749.547 1159.28,805.762 1145.98,814.705 1159.42,802.693 1088.06,864.794 1074.11,871.454 1107.7,839.243 1182.4,773.066 1218.89,744.516 1327.51,655.654 1333.6,660.104 1263.32,728.714 1286.04,713.829 1289.45,713.605 1236.54,760.273 1234.71,760.164 1214.48,775.047 1228.59,761.273 1210.29,776.08 1210.41,774.581 1136.68,836.008 1122.2,843.963 1123.96,838.457 1068.39,883.996 1009.55,930.085 1023.35,912.826 1070.69,866.731 1037.95,894.232 961.44,960.543 910.56,1003.02 893,1015.15 893.975,1010.75 885.014,1015.68 857.188,1039.5 858.275,1035.91 887.071,1006.38 946.456,949.723 958.292,942.431 978.725,924.8 957.943,946.992 1012.88,895.641 1081.44,837.175 1021.95,896.232 1110.25,816.227 1102.18,828.808 1046.03,882.214 1020.38,905.469 1044.7,881.919 1041.75,884.206 1000.18,921.626 1001.12,918.828 998.42,920.73 1028.92,890.489 982.469,932.995 991.04,923.798 1036.44,881.702 1050.02,874.869 1061.16,867.361 990.04,931.086 984.517,934.015 964.179,951.059 945.396,966.534 1050.08,868.131 1002.54,913.611 1082.96,840.187 1093.97,833.076 1012.76,910.119 976.579,942.154 1002.36,917.022 987.781,929.788 964.971,949.583 935.908,974.739 921.285,985.962 869.754,1031.96 899.49,1000.21 918.749,980.895 903.726,994.154 936.496,962.361 1014.51,890.549 1059.41,853.584 1043.04,873.988 1050.85,869.556 1003.68,914.951 1006.72,911.031 956.307,956.722 949.721,958.348 968.103,939.723 995.755,914.49 1013.33,901.085 1006.31,908.42 967.731,943.15 868.542,1032.6 931.687,968.307 909.977,988.746 918.182,980.673 982.981,920.166 936.626,966.955 933.294,969.581 997.337,908.183 932.538,971.763 925.8,977.86 917.593,983.105 864.825,1032.55 882.167,1012.17 913.889,981.029 859.826,1031.84 909.805,983.596 948.415,950.012 970.016,931.44 916.615,983.423 934.728,966.095 996.888,908.889 926.595,976.849 917.478,982.595 946.037,956.623 969.742,936.117 989.292,918.717 1048.15,867.107 1054.51,866.069 1036.52,884.78 1079.79,848.206 1081.36,850.189 1029.27,899.528 1024.18,901.859 984.697,936.42 997.76,921.078 942.879,969.844 1013.16,901.475 985.087,929.19 1015.58,899.448 995.148,921.169 986.734,928.288 958.305,951.732 1032.72,881.7 1055.37,863.869 1035.94,884.807 1009.66,911.263 994.801,923.506 980.108,932.942 951.344,959.492 938.455,968.3 958.34,948.193 992.411,916.225 983.276,928.08 1005.95,907.452 1005.39,909.278 1034.53,884.952 1067.88,856.752 1072.18,857.253 1118.16,820.514 1141.71,802.73 1099.98,843.45 1133.6,814 1171.51,782.509 1064.88,879.3 982.077,948.832 966.607,955.324 1000.29,920.399 1037.77,883.962 1123.61,808.394 1137,800.649 1201.54,747.991 1206.58,748.937 1300.02,674.422 1291.04,691.005 1234.78,747.484 1182.28,793.736 1155.7,815.772 1097.5,863.531 1096.81,860.983 1131.79,826.513 1172.59,789.298 1172.22,790.517 1230.43,741.515 1205.05,767.01 1188.34,782.232 1144.55,819.497 1033.9,912.764 1039.88,901.762 1075.21,866.251 986.138,944.467 930.445,988.979 1020.28,902.738 1005.98,915.076 1001.93,916.892 1022.05,897.7 988.891,927.505 1010.25,906.96 969.084,944.962 987.338,926.615 1010.94,904.677 1050.76,868.627 1123.76,808.303 1159.34,781.712 1117.9,825.386 1123.47,822.582 1056.33,882.782 1051.47,885.558 1101.02,838.906 1079.96,858.465 1077.71,860.364 1053.07,880.234 1053.43,878.898 1005.28,920.602 997.469,925.871 1002.48,918.928 956.728,959.455 984.068,931.191 900.286,1006.19 898.812,1004.71 893.864,1006.46 863.997,1032.08 866.623,1026.97 921.642,973.609 951.524,946.613 1002.15,901.973 983.55,922.944 998.128,910.085 1034.23,879.269 1017.18,897.045 1030.85,886.542 1036.82,883.267 1014.82,905.248 955.609,959.385 982.946,932.042 956.084,955.552 949.942,958.954 973.582,935.982 977.458,933.065 968.593,940.851 968.628,940.546 959.806,948.953 988.399,922.363 934.58,971.738 938.884,964.333 954.654,950.882 1057.06,857.719 1095.78,830.857 1016.84,905.882 1105.01,825.863 1134.3,806.603 1087.68,851.475 1153.12,794.311 1031.23,904.139 965.681,958.197 907.437,1005.61 854.462,1048.97 888.695,1011.49 911.083,988.058 913.101,985.196 978.545,923.23 993.208,912.648 1033.67,878.36 1107.44,815.032 1175.24,761.662 1179.31,768.522 1205.17,752.218 1231.83,736.575 1147.2,814.36 1114.88,841.768 1108.62,844.023 1097.88,850.922 1062.49,879.329 1057.8,880.055 1040.47,892.816 1013.16,914.483 1057.28,870.055 936.185,978.832 977.556,936.44 1001.01,914.233 "/>
<path clip-path="url(#clip820)" d="M186.863 198.898 L550.897 198.898 L550.897 95.2176 L186.863 95.2176  Z" fill="#ffffff" fill-rule="evenodd" fill-opacity="1"/>
<polyline clip-path="url(#clip820)" style="stroke:#000000; stroke-linecap:round; stroke-linejoin:round; stroke-width:4; stroke-opacity:1; fill:none" points="186.863,198.898 550.897,198.898 550.897,95.2176 186.863,95.2176 186.863,198.898 "/>
<polyline clip-path="url(#clip820)" style="stroke:#009af9; stroke-linecap:round; stroke-linejoin:round; stroke-width:4; stroke-opacity:1; fill:none" points="211.758,147.058 361.13,147.058 "/>
<path clip-path="url(#clip820)" d="M396.651 128.366 Q393.549 133.69 392.044 138.898 Q390.54 144.106 390.54 149.453 Q390.54 154.801 392.044 160.055 Q393.572 165.287 396.651 170.588 L392.947 170.588 Q389.475 165.148 387.739 159.893 Q386.026 154.639 386.026 149.453 Q386.026 144.291 387.739 139.06 Q389.452 133.828 392.947 128.366 L396.651 128.366 Z" fill="#000000" fill-rule="nonzero" fill-opacity="1" /><path clip-path="url(#clip820)" d="M426.465 138.412 L417.09 151.027 L426.951 164.338 L421.928 164.338 L414.382 154.152 L406.836 164.338 L401.813 164.338 L411.882 150.773 L402.669 138.412 L407.692 138.412 L414.567 147.648 L421.442 138.412 L426.465 138.412 Z" fill="#000000" fill-rule="nonzero" fill-opacity="1" /><path clip-path="url(#clip820)" d="M434.058 158.458 L438.942 158.458 L438.942 162.439 L435.146 169.847 L432.16 169.847 L434.058 162.439 L434.058 158.458 Z" fill="#000000" fill-rule="nonzero" fill-opacity="1" /><path clip-path="url(#clip820)" d="M446.187 138.412 L466.419 138.412 L466.419 142.301 L450.4 160.935 L466.419 160.935 L466.419 164.338 L445.609 164.338 L445.609 160.449 L461.627 141.815 L446.187 141.815 L446.187 138.412 Z" fill="#000000" fill-rule="nonzero" fill-opacity="1" /><path clip-path="url(#clip820)" d="M474.011 158.458 L478.896 158.458 L478.896 162.439 L475.099 169.847 L472.113 169.847 L474.011 162.439 L474.011 158.458 Z" fill="#000000" fill-rule="nonzero" fill-opacity="1" /><path clip-path="url(#clip820)" d="M498.78 166.745 Q496.974 171.375 495.261 172.787 Q493.548 174.199 490.678 174.199 L487.275 174.199 L487.275 170.634 L489.775 170.634 Q491.534 170.634 492.507 169.8 Q493.479 168.967 494.659 165.865 L495.423 163.921 L484.937 138.412 L489.451 138.412 L497.553 158.689 L505.655 138.412 L510.169 138.412 L498.78 166.745 Z" fill="#000000" fill-rule="nonzero" fill-opacity="1" /><path clip-path="url(#clip820)" d="M515.377 128.366 L519.081 128.366 Q522.553 133.828 524.266 139.06 Q526.002 144.291 526.002 149.453 Q526.002 154.639 524.266 159.893 Q522.553 165.148 519.081 170.588 L515.377 170.588 Q518.456 165.287 519.96 160.055 Q521.488 154.801 521.488 149.453 Q521.488 144.106 519.96 138.898 Q518.456 133.69 515.377 128.366 Z" fill="#000000" fill-rule="nonzero" fill-opacity="1" /></svg>
