<?xml version="1.0" encoding="utf-8"?>
<svg xmlns="http://www.w3.org/2000/svg" xmlns:xlink="http://www.w3.org/1999/xlink" width="600" height="400" viewBox="0 0 2400 1600">
<defs>
  <clipPath id="clip040">
    <rect x="0" y="0" width="2400" height="1600"/>
  </clipPath>
</defs>
<path clip-path="url(#clip040)" d="M0 1600 L2400 1600 L2400 0 L0 0  Z" fill="#ffffff" fill-rule="evenodd" fill-opacity="1"/>
<defs>
  <clipPath id="clip041">
    <rect x="480" y="0" width="1681" height="1600"/>
  </clipPath>
</defs>
<path clip-path="url(#clip040)" d="M193.936 1423.18 L2352.76 1423.18 L2352.76 47.2441 L193.936 47.2441  Z" fill="#ffffff" fill-rule="evenodd" fill-opacity="1"/>
<defs>
  <clipPath id="clip042">
    <rect x="193" y="47" width="2160" height="1377"/>
  </clipPath>
</defs>
<polyline clip-path="url(#clip042)" style="stroke:#000000; stroke-linecap:round; stroke-linejoin:round; stroke-width:2; stroke-opacity:0.1; fill:none" points="193.936,1423.18 193.936,47.2441 "/>
<polyline clip-path="url(#clip042)" style="stroke:#000000; stroke-linecap:round; stroke-linejoin:round; stroke-width:2; stroke-opacity:0.1; fill:none" points="625.7,1423.18 625.7,47.2441 "/>
<polyline clip-path="url(#clip042)" style="stroke:#000000; stroke-linecap:round; stroke-linejoin:round; stroke-width:2; stroke-opacity:0.1; fill:none" points="1057.46,1423.18 1057.46,47.2441 "/>
<polyline clip-path="url(#clip042)" style="stroke:#000000; stroke-linecap:round; stroke-linejoin:round; stroke-width:2; stroke-opacity:0.1; fill:none" points="1489.23,1423.18 1489.23,47.2441 "/>
<polyline clip-path="url(#clip042)" style="stroke:#000000; stroke-linecap:round; stroke-linejoin:round; stroke-width:2; stroke-opacity:0.1; fill:none" points="1920.99,1423.18 1920.99,47.2441 "/>
<polyline clip-path="url(#clip042)" style="stroke:#000000; stroke-linecap:round; stroke-linejoin:round; stroke-width:2; stroke-opacity:0.1; fill:none" points="2352.76,1423.18 2352.76,47.2441 "/>
<polyline clip-path="url(#clip040)" style="stroke:#000000; stroke-linecap:round; stroke-linejoin:round; stroke-width:4; stroke-opacity:1; fill:none" points="193.936,1423.18 2352.76,1423.18 "/>
<polyline clip-path="url(#clip040)" style="stroke:#000000; stroke-linecap:round; stroke-linejoin:round; stroke-width:4; stroke-opacity:1; fill:none" points="193.936,1423.18 193.936,1404.28 "/>
<polyline clip-path="url(#clip040)" style="stroke:#000000; stroke-linecap:round; stroke-linejoin:round; stroke-width:4; stroke-opacity:1; fill:none" points="625.7,1423.18 625.7,1404.28 "/>
<polyline clip-path="url(#clip040)" style="stroke:#000000; stroke-linecap:round; stroke-linejoin:round; stroke-width:4; stroke-opacity:1; fill:none" points="1057.46,1423.18 1057.46,1404.28 "/>
<polyline clip-path="url(#clip040)" style="stroke:#000000; stroke-linecap:round; stroke-linejoin:round; stroke-width:4; stroke-opacity:1; fill:none" points="1489.23,1423.18 1489.23,1404.28 "/>
<polyline clip-path="url(#clip040)" style="stroke:#000000; stroke-linecap:round; stroke-linejoin:round; stroke-width:4; stroke-opacity:1; fill:none" points="1920.99,1423.18 1920.99,1404.28 "/>
<polyline clip-path="url(#clip040)" style="stroke:#000000; stroke-linecap:round; stroke-linejoin:round; stroke-width:4; stroke-opacity:1; fill:none" points="2352.76,1423.18 2352.76,1404.28 "/>
<path clip-path="url(#clip040)" d="M193.936 1454.1 Q190.325 1454.1 188.496 1457.66 Q186.691 1461.2 186.691 1468.33 Q186.691 1475.44 188.496 1479.01 Q190.325 1482.55 193.936 1482.55 Q197.57 1482.55 199.376 1479.01 Q201.204 1475.44 201.204 1468.33 Q201.204 1461.2 199.376 1457.66 Q197.57 1454.1 193.936 1454.1 M193.936 1450.39 Q199.746 1450.39 202.802 1455 Q205.88 1459.58 205.88 1468.33 Q205.88 1477.06 202.802 1481.67 Q199.746 1486.25 193.936 1486.25 Q188.126 1486.25 185.047 1481.67 Q181.992 1477.06 181.992 1468.33 Q181.992 1459.58 185.047 1455 Q188.126 1450.39 193.936 1450.39 Z" fill="#000000" fill-rule="nonzero" fill-opacity="1" /><path clip-path="url(#clip040)" d="M620.353 1481.64 L636.672 1481.64 L636.672 1485.58 L614.728 1485.58 L614.728 1481.64 Q617.39 1478.89 621.973 1474.26 Q626.58 1469.61 627.76 1468.27 Q630.006 1465.74 630.885 1464.01 Q631.788 1462.25 631.788 1460.56 Q631.788 1457.8 629.843 1456.07 Q627.922 1454.33 624.82 1454.33 Q622.621 1454.33 620.168 1455.09 Q617.737 1455.86 614.959 1457.41 L614.959 1452.69 Q617.783 1451.55 620.237 1450.97 Q622.691 1450.39 624.728 1450.39 Q630.098 1450.39 633.293 1453.08 Q636.487 1455.77 636.487 1460.26 Q636.487 1462.39 635.677 1464.31 Q634.89 1466.2 632.783 1468.8 Q632.205 1469.47 629.103 1472.69 Q626.001 1475.88 620.353 1481.64 Z" fill="#000000" fill-rule="nonzero" fill-opacity="1" /><path clip-path="url(#clip040)" d="M1060.47 1455.09 L1048.67 1473.54 L1060.47 1473.54 L1060.47 1455.09 M1059.25 1451.02 L1065.13 1451.02 L1065.13 1473.54 L1070.06 1473.54 L1070.06 1477.43 L1065.13 1477.43 L1065.13 1485.58 L1060.47 1485.58 L1060.47 1477.43 L1044.87 1477.43 L1044.87 1472.92 L1059.25 1451.02 Z" fill="#000000" fill-rule="nonzero" fill-opacity="1" /><path clip-path="url(#clip040)" d="M1489.63 1466.44 Q1486.48 1466.44 1484.63 1468.59 Q1482.8 1470.74 1482.8 1474.49 Q1482.8 1478.22 1484.63 1480.39 Q1486.48 1482.55 1489.63 1482.55 Q1492.78 1482.55 1494.61 1480.39 Q1496.46 1478.22 1496.46 1474.49 Q1496.46 1470.74 1494.61 1468.59 Q1492.78 1466.44 1489.63 1466.44 M1498.92 1451.78 L1498.92 1456.04 Q1497.16 1455.21 1495.35 1454.77 Q1493.57 1454.33 1491.81 1454.33 Q1487.18 1454.33 1484.73 1457.45 Q1482.3 1460.58 1481.95 1466.9 Q1483.31 1464.89 1485.37 1463.82 Q1487.43 1462.73 1489.91 1462.73 Q1495.12 1462.73 1498.13 1465.9 Q1501.16 1469.05 1501.16 1474.49 Q1501.16 1479.82 1498.01 1483.03 Q1494.86 1486.25 1489.63 1486.25 Q1483.64 1486.25 1480.47 1481.67 Q1477.3 1477.06 1477.3 1468.33 Q1477.3 1460.14 1481.18 1455.28 Q1485.07 1450.39 1491.62 1450.39 Q1493.38 1450.39 1495.17 1450.74 Q1496.97 1451.09 1498.92 1451.78 Z" fill="#000000" fill-rule="nonzero" fill-opacity="1" /><path clip-path="url(#clip040)" d="M1920.99 1469.17 Q1917.66 1469.17 1915.74 1470.95 Q1913.84 1472.73 1913.84 1475.86 Q1913.84 1478.98 1915.74 1480.77 Q1917.66 1482.55 1920.99 1482.55 Q1924.33 1482.55 1926.25 1480.77 Q1928.17 1478.96 1928.17 1475.86 Q1928.17 1472.73 1926.25 1470.95 Q1924.35 1469.17 1920.99 1469.17 M1916.32 1467.18 Q1913.31 1466.44 1911.62 1464.38 Q1909.95 1462.32 1909.95 1459.35 Q1909.95 1455.21 1912.89 1452.8 Q1915.85 1450.39 1920.99 1450.39 Q1926.15 1450.39 1929.09 1452.8 Q1932.03 1455.21 1932.03 1459.35 Q1932.03 1462.32 1930.34 1464.38 Q1928.68 1466.44 1925.69 1467.18 Q1929.07 1467.96 1930.95 1470.26 Q1932.84 1472.55 1932.84 1475.86 Q1932.84 1480.88 1929.77 1483.57 Q1926.71 1486.25 1920.99 1486.25 Q1915.27 1486.25 1912.2 1483.57 Q1909.14 1480.88 1909.14 1475.86 Q1909.14 1472.55 1911.04 1470.26 Q1912.94 1467.96 1916.32 1467.18 M1914.6 1459.79 Q1914.6 1462.48 1916.27 1463.98 Q1917.96 1465.49 1920.99 1465.49 Q1924 1465.49 1925.69 1463.98 Q1927.4 1462.48 1927.4 1459.79 Q1927.4 1457.11 1925.69 1455.6 Q1924 1454.1 1920.99 1454.1 Q1917.96 1454.1 1916.27 1455.6 Q1914.6 1457.11 1914.6 1459.79 Z" fill="#000000" fill-rule="nonzero" fill-opacity="1" /><path clip-path="url(#clip040)" d="M2327.44 1481.64 L2335.08 1481.64 L2335.08 1455.28 L2326.77 1456.95 L2326.77 1452.69 L2335.04 1451.02 L2339.71 1451.02 L2339.71 1481.64 L2347.35 1481.64 L2347.35 1485.58 L2327.44 1485.58 L2327.44 1481.64 Z" fill="#000000" fill-rule="nonzero" fill-opacity="1" /><path clip-path="url(#clip040)" d="M2366.8 1454.1 Q2363.18 1454.1 2361.36 1457.66 Q2359.55 1461.2 2359.55 1468.33 Q2359.55 1475.44 2361.36 1479.01 Q2363.18 1482.55 2366.8 1482.55 Q2370.43 1482.55 2372.23 1479.01 Q2374.06 1475.44 2374.06 1468.33 Q2374.06 1461.2 2372.23 1457.66 Q2370.43 1454.1 2366.8 1454.1 M2366.8 1450.39 Q2372.61 1450.39 2375.66 1455 Q2378.74 1459.58 2378.74 1468.33 Q2378.74 1477.06 2375.66 1481.67 Q2372.61 1486.25 2366.8 1486.25 Q2360.99 1486.25 2357.91 1481.67 Q2354.85 1477.06 2354.85 1468.33 Q2354.85 1459.58 2357.91 1455 Q2360.99 1450.39 2366.8 1450.39 Z" fill="#000000" fill-rule="nonzero" fill-opacity="1" /><path clip-path="url(#clip040)" d="M1272.41 1522.27 L1272.41 1532.4 L1284.47 1532.4 L1284.47 1536.95 L1272.41 1536.95 L1272.41 1556.3 Q1272.41 1560.66 1273.58 1561.9 Q1274.79 1563.14 1278.45 1563.14 L1284.47 1563.14 L1284.47 1568.04 L1278.45 1568.04 Q1271.67 1568.04 1269.1 1565.53 Q1266.52 1562.98 1266.52 1556.3 L1266.52 1536.95 L1262.22 1536.95 L1262.22 1532.4 L1266.52 1532.4 L1266.52 1522.27 L1272.41 1522.27 Z" fill="#000000" fill-rule="nonzero" fill-opacity="1" /><polyline clip-path="url(#clip042)" style="stroke:#000000; stroke-linecap:round; stroke-linejoin:round; stroke-width:2; stroke-opacity:0.1; fill:none" points="193.936,1189.23 2352.76,1189.23 "/>
<polyline clip-path="url(#clip042)" style="stroke:#000000; stroke-linecap:round; stroke-linejoin:round; stroke-width:2; stroke-opacity:0.1; fill:none" points="193.936,923.54 2352.76,923.54 "/>
<polyline clip-path="url(#clip042)" style="stroke:#000000; stroke-linecap:round; stroke-linejoin:round; stroke-width:2; stroke-opacity:0.1; fill:none" points="193.936,657.847 2352.76,657.847 "/>
<polyline clip-path="url(#clip042)" style="stroke:#000000; stroke-linecap:round; stroke-linejoin:round; stroke-width:2; stroke-opacity:0.1; fill:none" points="193.936,392.154 2352.76,392.154 "/>
<polyline clip-path="url(#clip042)" style="stroke:#000000; stroke-linecap:round; stroke-linejoin:round; stroke-width:2; stroke-opacity:0.1; fill:none" points="193.936,126.46 2352.76,126.46 "/>
<polyline clip-path="url(#clip040)" style="stroke:#000000; stroke-linecap:round; stroke-linejoin:round; stroke-width:4; stroke-opacity:1; fill:none" points="193.936,1423.18 193.936,47.2441 "/>
<polyline clip-path="url(#clip040)" style="stroke:#000000; stroke-linecap:round; stroke-linejoin:round; stroke-width:4; stroke-opacity:1; fill:none" points="193.936,1189.23 212.834,1189.23 "/>
<polyline clip-path="url(#clip040)" style="stroke:#000000; stroke-linecap:round; stroke-linejoin:round; stroke-width:4; stroke-opacity:1; fill:none" points="193.936,923.54 212.834,923.54 "/>
<polyline clip-path="url(#clip040)" style="stroke:#000000; stroke-linecap:round; stroke-linejoin:round; stroke-width:4; stroke-opacity:1; fill:none" points="193.936,657.847 212.834,657.847 "/>
<polyline clip-path="url(#clip040)" style="stroke:#000000; stroke-linecap:round; stroke-linejoin:round; stroke-width:4; stroke-opacity:1; fill:none" points="193.936,392.154 212.834,392.154 "/>
<polyline clip-path="url(#clip040)" style="stroke:#000000; stroke-linecap:round; stroke-linejoin:round; stroke-width:4; stroke-opacity:1; fill:none" points="193.936,126.46 212.834,126.46 "/>
<path clip-path="url(#clip040)" d="M50.9921 1189.68 L80.6679 1189.68 L80.6679 1193.62 L50.9921 1193.62 L50.9921 1189.68 Z" fill="#000000" fill-rule="nonzero" fill-opacity="1" /><path clip-path="url(#clip040)" d="M91.5706 1202.58 L99.2095 1202.58 L99.2095 1176.21 L90.8993 1177.88 L90.8993 1173.62 L99.1632 1171.95 L103.839 1171.95 L103.839 1202.58 L111.478 1202.58 L111.478 1206.51 L91.5706 1206.51 L91.5706 1202.58 Z" fill="#000000" fill-rule="nonzero" fill-opacity="1" /><path clip-path="url(#clip040)" d="M120.922 1200.63 L125.807 1200.63 L125.807 1206.51 L120.922 1206.51 L120.922 1200.63 Z" fill="#000000" fill-rule="nonzero" fill-opacity="1" /><path clip-path="url(#clip040)" d="M145.992 1175.03 Q142.381 1175.03 140.552 1178.6 Q138.746 1182.14 138.746 1189.27 Q138.746 1196.37 140.552 1199.94 Q142.381 1203.48 145.992 1203.48 Q149.626 1203.48 151.431 1199.94 Q153.26 1196.37 153.26 1189.27 Q153.26 1182.14 151.431 1178.6 Q149.626 1175.03 145.992 1175.03 M145.992 1171.33 Q151.802 1171.33 154.857 1175.94 Q157.936 1180.52 157.936 1189.27 Q157.936 1198 154.857 1202.6 Q151.802 1207.18 145.992 1207.18 Q140.181 1207.18 137.103 1202.6 Q134.047 1198 134.047 1189.27 Q134.047 1180.52 137.103 1175.94 Q140.181 1171.33 145.992 1171.33 Z" fill="#000000" fill-rule="nonzero" fill-opacity="1" /><path clip-path="url(#clip040)" d="M51.9875 923.992 L81.6633 923.992 L81.6633 927.927 L51.9875 927.927 L51.9875 923.992 Z" fill="#000000" fill-rule="nonzero" fill-opacity="1" /><path clip-path="url(#clip040)" d="M101.756 909.339 Q98.1447 909.339 96.316 912.904 Q94.5104 916.445 94.5104 923.575 Q94.5104 930.681 96.316 934.246 Q98.1447 937.788 101.756 937.788 Q105.39 937.788 107.196 934.246 Q109.024 930.681 109.024 923.575 Q109.024 916.445 107.196 912.904 Q105.39 909.339 101.756 909.339 M101.756 905.635 Q107.566 905.635 110.621 910.242 Q113.7 914.825 113.7 923.575 Q113.7 932.302 110.621 936.908 Q107.566 941.492 101.756 941.492 Q95.9456 941.492 92.8669 936.908 Q89.8114 932.302 89.8114 923.575 Q89.8114 914.825 92.8669 910.242 Q95.9456 905.635 101.756 905.635 Z" fill="#000000" fill-rule="nonzero" fill-opacity="1" /><path clip-path="url(#clip040)" d="M121.918 934.941 L126.802 934.941 L126.802 940.82 L121.918 940.82 L121.918 934.941 Z" fill="#000000" fill-rule="nonzero" fill-opacity="1" /><path clip-path="url(#clip040)" d="M137.033 906.26 L155.39 906.26 L155.39 910.195 L141.316 910.195 L141.316 918.668 Q142.334 918.32 143.353 918.158 Q144.371 917.973 145.39 917.973 Q151.177 917.973 154.556 921.144 Q157.936 924.316 157.936 929.732 Q157.936 935.311 154.464 938.413 Q150.992 941.492 144.672 941.492 Q142.496 941.492 140.228 941.121 Q137.982 940.751 135.575 940.01 L135.575 935.311 Q137.658 936.445 139.881 937.001 Q142.103 937.556 144.58 937.556 Q148.584 937.556 150.922 935.45 Q153.26 933.343 153.26 929.732 Q153.26 926.121 150.922 924.015 Q148.584 921.908 144.58 921.908 Q142.705 921.908 140.83 922.325 Q138.978 922.742 137.033 923.621 L137.033 906.26 Z" fill="#000000" fill-rule="nonzero" fill-opacity="1" /><path clip-path="url(#clip040)" d="M100.76 643.646 Q97.1493 643.646 95.3206 647.21 Q93.515 650.752 93.515 657.882 Q93.515 664.988 95.3206 668.553 Q97.1493 672.094 100.76 672.094 Q104.395 672.094 106.2 668.553 Q108.029 664.988 108.029 657.882 Q108.029 650.752 106.2 647.21 Q104.395 643.646 100.76 643.646 M100.76 639.942 Q106.571 639.942 109.626 644.548 Q112.705 649.132 112.705 657.882 Q112.705 666.608 109.626 671.215 Q106.571 675.798 100.76 675.798 Q94.9502 675.798 91.8715 671.215 Q88.816 666.608 88.816 657.882 Q88.816 649.132 91.8715 644.548 Q94.9502 639.942 100.76 639.942 Z" fill="#000000" fill-rule="nonzero" fill-opacity="1" /><path clip-path="url(#clip040)" d="M120.922 669.247 L125.807 669.247 L125.807 675.127 L120.922 675.127 L120.922 669.247 Z" fill="#000000" fill-rule="nonzero" fill-opacity="1" /><path clip-path="url(#clip040)" d="M145.992 643.646 Q142.381 643.646 140.552 647.21 Q138.746 650.752 138.746 657.882 Q138.746 664.988 140.552 668.553 Q142.381 672.094 145.992 672.094 Q149.626 672.094 151.431 668.553 Q153.26 664.988 153.26 657.882 Q153.26 650.752 151.431 647.21 Q149.626 643.646 145.992 643.646 M145.992 639.942 Q151.802 639.942 154.857 644.548 Q157.936 649.132 157.936 657.882 Q157.936 666.608 154.857 671.215 Q151.802 675.798 145.992 675.798 Q140.181 675.798 137.103 671.215 Q134.047 666.608 134.047 657.882 Q134.047 649.132 137.103 644.548 Q140.181 639.942 145.992 639.942 Z" fill="#000000" fill-rule="nonzero" fill-opacity="1" /><path clip-path="url(#clip040)" d="M101.756 377.952 Q98.1447 377.952 96.316 381.517 Q94.5104 385.059 94.5104 392.188 Q94.5104 399.295 96.316 402.859 Q98.1447 406.401 101.756 406.401 Q105.39 406.401 107.196 402.859 Q109.024 399.295 109.024 392.188 Q109.024 385.059 107.196 381.517 Q105.39 377.952 101.756 377.952 M101.756 374.249 Q107.566 374.249 110.621 378.855 Q113.7 383.438 113.7 392.188 Q113.7 400.915 110.621 405.521 Q107.566 410.105 101.756 410.105 Q95.9456 410.105 92.8669 405.521 Q89.8114 400.915 89.8114 392.188 Q89.8114 383.438 92.8669 378.855 Q95.9456 374.249 101.756 374.249 Z" fill="#000000" fill-rule="nonzero" fill-opacity="1" /><path clip-path="url(#clip040)" d="M121.918 403.554 L126.802 403.554 L126.802 409.434 L121.918 409.434 L121.918 403.554 Z" fill="#000000" fill-rule="nonzero" fill-opacity="1" /><path clip-path="url(#clip040)" d="M137.033 374.874 L155.39 374.874 L155.39 378.809 L141.316 378.809 L141.316 387.281 Q142.334 386.934 143.353 386.772 Q144.371 386.586 145.39 386.586 Q151.177 386.586 154.556 389.758 Q157.936 392.929 157.936 398.346 Q157.936 403.924 154.464 407.026 Q150.992 410.105 144.672 410.105 Q142.496 410.105 140.228 409.734 Q137.982 409.364 135.575 408.623 L135.575 403.924 Q137.658 405.059 139.881 405.614 Q142.103 406.17 144.58 406.17 Q148.584 406.17 150.922 404.063 Q153.26 401.957 153.26 398.346 Q153.26 394.735 150.922 392.628 Q148.584 390.522 144.58 390.522 Q142.705 390.522 140.83 390.938 Q138.978 391.355 137.033 392.235 L137.033 374.874 Z" fill="#000000" fill-rule="nonzero" fill-opacity="1" /><path clip-path="url(#clip040)" d="M91.5706 139.805 L99.2095 139.805 L99.2095 113.439 L90.8993 115.106 L90.8993 110.847 L99.1632 109.18 L103.839 109.18 L103.839 139.805 L111.478 139.805 L111.478 143.74 L91.5706 143.74 L91.5706 139.805 Z" fill="#000000" fill-rule="nonzero" fill-opacity="1" /><path clip-path="url(#clip040)" d="M120.922 137.861 L125.807 137.861 L125.807 143.74 L120.922 143.74 L120.922 137.861 Z" fill="#000000" fill-rule="nonzero" fill-opacity="1" /><path clip-path="url(#clip040)" d="M145.992 112.259 Q142.381 112.259 140.552 115.824 Q138.746 119.365 138.746 126.495 Q138.746 133.601 140.552 137.166 Q142.381 140.708 145.992 140.708 Q149.626 140.708 151.431 137.166 Q153.26 133.601 153.26 126.495 Q153.26 119.365 151.431 115.824 Q149.626 112.259 145.992 112.259 M145.992 108.555 Q151.802 108.555 154.857 113.162 Q157.936 117.745 157.936 126.495 Q157.936 135.222 154.857 139.828 Q151.802 144.411 145.992 144.411 Q140.181 144.411 137.103 139.828 Q134.047 135.222 134.047 126.495 Q134.047 117.745 137.103 113.162 Q140.181 108.555 145.992 108.555 Z" fill="#000000" fill-rule="nonzero" fill-opacity="1" /><polyline clip-path="url(#clip042)" style="stroke:#009af9; stroke-linecap:round; stroke-linejoin:round; stroke-width:4; stroke-opacity:1; fill:none" points="193.936,657.847 196.097,667.326 198.258,676.679 200.419,685.908 202.58,695.015 204.741,704.001 206.902,712.868 209.063,721.617 211.224,730.251 213.385,738.769 215.546,747.175 217.707,755.47 219.868,763.654 222.029,771.73 224.19,779.699 226.351,787.563 228.512,795.322 230.673,802.978 232.834,810.533 234.995,817.987 237.156,825.343 239.317,832.601 241.478,839.763 243.639,846.83 245.8,853.803 247.961,860.684 250.122,867.474 252.282,874.173 254.443,880.784 256.604,887.307 258.765,893.744 260.926,900.095 263.087,906.362 265.248,912.546 267.409,918.648 269.57,924.669 271.731,930.611 273.892,936.473 276.053,942.258 278.214,947.966 280.375,953.599 282.536,959.156 284.697,964.64 286.858,970.052 289.019,975.391 291.18,980.66 293.341,985.859 295.502,990.989 297.663,996.051 299.824,1001.05 301.985,1005.97 304.146,1010.84 306.307,1015.64 308.468,1020.37 310.629,1025.04 312.79,1029.66 314.951,1034.2 317.112,1038.69 319.273,1043.12 321.434,1047.49 323.595,1051.81 325.756,1056.06 327.917,1060.26 330.078,1064.41 332.239,1068.49 334.4,1072.53 336.561,1076.51 338.722,1080.44 340.883,1084.31 343.044,1088.14 345.205,1091.91 347.366,1095.64 349.527,1099.31 351.688,1102.94 353.849,1106.52 356.01,1110.05 358.171,1113.53 360.332,1116.97 362.493,1120.36 364.653,1123.71 366.814,1127.01 368.975,1130.27 371.136,1133.48 373.297,1136.65 375.458,1139.79 377.619,1142.87 379.78,1145.92 381.941,1148.93 384.102,1151.9 386.263,1154.83 388.424,1157.72 390.585,1160.57 392.746,1163.38 394.907,1166.16 397.068,1168.9 399.229,1171.6 401.39,1174.27 403.551,1176.9 405.712,1179.5 407.873,1182.06 410.034,1184.4 412.195,1184.79 414.356,1182.99 416.517,1179.25 418.678,1173.81 420.839,1166.89 423,1158.7 425.161,1149.44 427.322,1139.28 429.483,1128.41 431.644,1116.98 433.805,1105.13 435.966,1093.02 438.127,1080.74 440.288,1068.43 442.449,1056.17 444.61,1044.04 446.771,1032.13 448.932,1020.49 451.093,1009.18 453.254,998.215 455.415,987.633 457.576,977.442 459.737,967.639 461.898,958.211 464.059,949.131 466.22,940.361 468.381,931.85 470.542,923.534 472.703,915.336 474.864,907.17 477.024,898.933 479.185,890.564 481.346,882.27 483.507,874.085 485.668,866.009 487.829,858.04 489.99,850.177 492.151,842.418 494.312,834.761 496.473,827.207 498.634,819.752 500.795,812.397 502.956,805.138 505.117,797.976 507.278,790.909 509.439,783.936 511.6,777.055 513.761,770.265 515.922,763.565 518.083,756.953 520.244,750.43 522.405,743.992 524.566,737.64 526.727,731.373 528.888,725.188 531.049,719.086 533.21,713.064 535.371,707.122 537.532,701.26 539.693,695.475 541.854,689.766 544.015,684.134 546.176,678.576 548.337,673.092 550.498,667.681 552.659,662.342 554.82,657.073 556.981,651.875 559.142,646.745 561.303,641.684 563.464,636.689 565.625,631.761 567.786,626.898 569.947,622.1 572.108,617.365 574.269,612.693 576.43,608.083 578.591,603.534 580.752,599.046 582.913,594.617 585.074,590.246 587.235,585.933 589.396,581.678 591.556,577.479 593.717,573.335 595.878,569.246 598.039,565.212 600.2,561.231 602.361,557.303 604.522,553.426 606.683,549.602 608.844,545.828 611.005,542.104 613.166,538.429 615.327,534.803 617.488,531.225 619.649,527.695 621.81,524.211 623.971,521.679 626.132,522.511 628.293,525.766 630.454,530.442 632.615,535.75 634.776,541.11 636.937,546.156 639.098,550.73 641.259,554.887 643.42,558.891 645.581,563.07 647.742,567.226 649.903,571.327 652.064,575.374 654.225,579.367 656.386,583.307 658.547,587.195 660.708,591.032 662.869,594.818 665.03,598.553 667.191,602.239 669.352,605.876 671.513,609.465 673.674,613.006 675.835,616.5 677.996,619.948 680.157,623.351 682.318,626.708 684.479,630.02 686.64,633.289 688.801,636.514 690.962,639.697 693.123,642.837 695.284,645.936 697.445,648.993 699.606,652.01 701.767,654.987 703.927,657.925 706.088,660.824 708.249,663.684 710.41,666.506 712.571,669.291 714.732,672.039 716.893,674.751 719.054,677.427 721.215,680.067 723.376,682.672 725.537,685.243 727.698,687.779 729.859,690.282 732.02,692.752 734.181,695.189 736.342,697.594 738.503,699.966 740.664,702.308 742.825,704.618 744.986,706.898 747.147,709.147 749.308,711.367 751.469,713.557 753.63,715.718 755.791,717.85 757.952,719.955 760.113,722.031 762.274,724.08 764.435,726.101 766.596,728.096 768.757,730.065 770.918,732.007 773.079,733.924 775.24,735.815 777.401,737.681 779.562,739.522 781.723,741.339 783.884,743.132 786.045,744.901 788.206,746.647 790.367,748.369 792.528,750.069 794.689,751.746 796.85,753.401 799.011,755.034 801.172,756.645 803.333,758.235 805.494,759.803 807.655,761.351 809.816,762.879 811.977,764.386 814.138,765.873 816.298,767.341 818.459,768.789 820.62,770.218 822.781,771.628 824.942,773.019 827.103,774.392 829.264,775.746 831.425,777.083 833.586,778.402 835.747,779.898 837.908,782.72 840.069,786.856 842.23,792.081 844.391,798.186 846.552,804.979 848.713,812.289 850.874,819.958 853.035,827.848 855.196,835.838 857.357,843.825 859.518,851.721 861.679,859.459 863.84,866.986 866.001,874.271 868.162,881.295 870.323,888.06 872.484,894.585 874.645,900.905 876.806,907.075 878.967,913.165 881.128,919.263 883.289,925.416 885.45,931.499 887.611,937.502 889.772,943.425 891.933,949.269 894.094,955.036 896.255,960.726 898.416,966.341 900.577,971.881 902.738,977.348 904.899,982.743 907.06,988.066 909.221,993.319 911.382,998.502 913.543,1003.62 915.704,1008.66 917.865,1013.64 920.026,1018.56 922.187,1023.4 924.348,1028.19 926.509,1032.91 928.669,1037.57 930.83,1042.16 932.991,1046.7 935.152,1051.17 937.313,1055.59 939.474,1059.95 941.635,1064.25 943.796,1068.49 945.957,1072.68 948.118,1076.81 950.279,1080.88 952.44,1084.9 954.601,1088.87 956.762,1092.79 958.923,1096.65 961.084,1100.46 963.245,1104.23 965.406,1107.94 967.567,1111.6 969.728,1115.22 971.889,1118.78 974.05,1122.3 976.211,1125.77 978.372,1129.2 980.533,1132.58 982.694,1135.92 984.855,1139.21 987.016,1142.46 989.177,1145.66 991.338,1148.83 993.499,1151.95 995.66,1155.03 997.821,1158.07 999.982,1161.07 1002.14,1164.03 1004.3,1166.94 1006.46,1169.83 1008.63,1172.67 1010.79,1175.47 1012.95,1178.24 1015.11,1180.97 1017.27,1183.67 1019.43,1186.33 1021.59,1188.95 1023.75,1191.54 1025.91,1194.09 1028.07,1196.61 1030.24,1199.1 1032.4,1201.56 1034.56,1203.98 1036.72,1206.37 1038.88,1208.73 1041.04,1211.05 1043.2,1213.35 1045.36,1215.62 1047.52,1217.85 1049.68,1220 1051.85,1221.14 1054.01,1221 1056.17,1219.73 1058.33,1217.45 1060.49,1214.27 1062.65,1210.31 1064.81,1205.67 1066.97,1200.45 1069.13,1194.75 1071.29,1188.66 1073.46,1182.25 1075.62,1175.61 1077.78,1168.8 1079.94,1161.89 1082.1,1154.93 1084.26,1147.99 1086.42,1141.11 1088.58,1134.32 1090.74,1127.67 1092.9,1121.18 1095.07,1114.87 1097.23,1108.77 1099.39,1102.88 1101.55,1097.21 1103.71,1091.76 1105.87,1086.52 1108.03,1081.48 1110.19,1076.62 1112.35,1071.92 1114.51,1067.34 1116.67,1062.86 1118.84,1058.43 1121,1053.99 1123.16,1049.51 1125.32,1044.95 1127.48,1040.43 1129.64,1035.98 1131.8,1031.59 1133.96,1027.25 1136.12,1022.97 1138.28,1018.75 1140.45,1014.59 1142.61,1010.47 1144.77,1006.42 1146.93,1002.42 1149.09,998.467 1151.25,994.57 1153.41,990.725 1155.57,986.931 1157.73,983.187 1159.89,979.493 1162.06,975.848 1164.22,972.251 1166.38,968.701 1168.54,965.199 1170.7,961.743 1172.86,958.333 1175.02,954.969 1177.18,951.648 1179.34,948.372 1181.5,945.139 1183.67,941.95 1185.83,938.802 1187.99,935.696 1190.15,932.632 1192.31,929.608 1194.47,926.624 1196.63,923.679 1198.79,920.774 1200.95,917.907 1203.11,915.079 1205.28,912.287 1207.44,909.533 1209.6,906.815 1211.76,904.134 1213.92,901.487 1216.08,898.876 1218.24,896.3 1220.4,893.758 1222.56,891.249 1224.72,888.774 1226.88,886.331 1229.05,883.921 1231.21,881.543 1233.37,879.196 1235.53,876.88 1237.69,874.596 1239.85,872.341 1242.01,870.116 1244.17,867.921 1246.33,865.755 1248.49,863.618 1250.66,861.509 1252.82,859.428 1254.98,857.374 1257.14,855.348 1259.3,853.349 1261.46,851.376 1263.62,849.429 1265.78,847.508 1267.94,845.937 1270.1,846.782 1272.27,849.797 1274.43,854.322 1276.59,859.797 1278.75,865.763 1280.91,871.861 1283.07,877.829 1285.23,883.507 1287.39,888.836 1289.55,893.855 1291.71,898.702 1293.88,903.604 1296.04,908.519 1298.2,913.369 1300.36,918.155 1302.52,922.877 1304.68,927.536 1306.84,932.134 1309,936.67 1311.16,941.147 1313.32,945.564 1315.49,949.923 1317.65,954.224 1319.81,958.468 1321.97,962.656 1324.13,966.788 1326.29,970.865 1328.45,974.889 1330.61,978.858 1332.77,982.776 1334.93,986.641 1337.09,990.455 1339.26,994.218 1341.42,997.932 1343.58,1001.6 1345.74,1005.21 1347.9,1008.78 1350.06,1012.3 1352.22,1015.77 1354.38,1019.2 1356.54,1022.58 1358.7,1025.92 1360.87,1029.21 1363.03,1032.46 1365.19,1035.67 1367.35,1038.83 1369.51,1041.96 1371.67,1045.04 1373.83,1048.08 1375.99,1051.08 1378.15,1054.04 1380.31,1056.96 1382.48,1059.84 1384.64,1062.68 1386.8,1065.49 1388.96,1068.26 1391.12,1070.99 1393.28,1073.68 1395.44,1076.34 1397.6,1078.97 1399.76,1081.56 1401.92,1084.11 1404.09,1086.64 1406.25,1089.12 1408.41,1091.58 1410.57,1094 1412.73,1096.39 1414.89,1098.75 1417.05,1101.08 1419.21,1103.38 1421.37,1105.64 1423.53,1107.88 1425.7,1110.08 1427.86,1112.26 1430.02,1114.41 1432.18,1116.53 1434.34,1118.62 1436.5,1120.69 1438.66,1122.72 1440.82,1124.73 1442.98,1126.72 1445.14,1128.67 1447.3,1130.6 1449.47,1132.51 1451.63,1134.39 1453.79,1136.24 1455.95,1138.08 1458.11,1139.88 1460.27,1141.66 1462.43,1143.42 1464.59,1145.16 1466.75,1146.87 1468.91,1148.56 1471.08,1150.23 1473.24,1151.87 1475.4,1153.5 1477.56,1155.1 1479.72,1156.68 1481.88,1158.24 1484.04,1159.56 1486.2,1158.9 1488.36,1156.1 1490.52,1151.41 1492.69,1145.08 1494.85,1137.34 1497.01,1128.41 1499.17,1118.49 1501.33,1107.77 1503.49,1096.43 1505.65,1084.62 1507.81,1072.5 1509.97,1060.2 1512.13,1047.84 1514.3,1035.51 1516.46,1023.33 1518.62,1011.36 1520.78,999.664 1522.94,988.297 1525.1,977.292 1527.26,966.672 1529.42,956.445 1531.58,946.604 1533.74,937.131 1535.91,927.989 1538.07,919.133 1540.23,910.5 1542.39,902.014 1544.55,893.585 1546.71,885.11 1548.87,876.505 1551.03,867.959 1553.19,859.527 1555.35,851.207 1557.51,842.997 1559.68,834.896 1561.84,826.903 1564,819.015 1566.16,811.232 1568.32,803.552 1570.48,795.974 1572.64,788.496 1574.8,781.118 1576.96,773.837 1579.12,766.653 1581.29,759.564 1583.45,752.569 1585.61,745.667 1587.77,738.856 1589.93,732.135 1592.09,725.503 1594.25,718.959 1596.41,712.502 1598.57,706.131 1600.73,699.844 1602.9,693.64 1605.06,687.519 1607.22,681.479 1609.38,675.519 1611.54,669.638 1613.7,663.835 1615.86,658.109 1618.02,652.46 1620.18,646.885 1622.34,641.384 1624.51,635.956 1626.67,630.6 1628.83,625.316 1630.99,620.101 1633.15,614.956 1635.31,609.878 1637.47,604.868 1639.63,599.925 1641.79,595.047 1643.95,590.234 1646.12,585.485 1648.28,580.798 1650.44,576.174 1652.6,571.61 1654.76,567.108 1656.92,562.665 1659.08,558.281 1661.24,553.954 1663.4,549.686 1665.56,545.473 1667.72,541.317 1669.89,537.215 1672.05,533.169 1674.21,529.175 1676.37,525.235 1678.53,521.347 1680.69,517.51 1682.85,513.724 1685.01,509.989 1687.17,506.303 1689.33,502.666 1691.5,499.077 1693.66,495.536 1695.82,492.041 1697.98,488.593 1700.14,486.49 1702.3,487.353 1704.46,490.789 1706.62,496.413 1708.78,503.866 1710.94,512.817 1713.11,522.959 1715.27,534.011 1717.43,545.718 1719.59,557.853 1721.75,570.211 1723.91,582.616 1726.07,594.917 1728.23,606.989 1730.39,618.732 1732.55,630.073 1734.72,640.965 1736.88,651.386 1739.04,661.34 1741.2,670.859 1743.36,679.997 1745.52,688.837 1747.68,697.488 1749.84,706.082 1752,714.78 1754.16,723.634 1756.33,732.387 1758.49,741.024 1760.65,749.546 1762.81,757.955 1764.97,766.253 1767.13,774.441 1769.29,782.52 1771.45,790.493 1773.61,798.359 1775.77,806.121 1777.93,813.781 1780.1,821.338 1782.26,828.796 1784.42,836.154 1786.58,843.415 1788.74,850.58 1790.9,857.65 1793.06,864.626 1795.22,871.51 1797.38,878.302 1799.54,885.005 1801.71,891.618 1803.87,898.144 1806.03,904.584 1808.19,910.938 1810.35,917.208 1812.51,923.395 1814.67,929.499 1816.83,935.523 1818.99,941.467 1821.15,947.332 1823.32,953.119 1825.48,958.829 1827.64,964.464 1829.8,970.024 1831.96,975.51 1834.12,980.924 1836.28,986.265 1838.44,991.536 1840.6,996.737 1842.76,1001.87 1844.93,1006.93 1847.09,1011.93 1849.25,1016.86 1851.41,1021.72 1853.57,1026.53 1855.73,1031.26 1857.89,1035.94 1860.05,1040.55 1862.21,1045.1 1864.37,1049.59 1866.54,1054.02 1868.7,1058.4 1870.86,1062.71 1873.02,1066.97 1875.18,1071.17 1877.34,1075.31 1879.5,1079.4 1881.66,1083.44 1883.82,1087.42 1885.98,1091.35 1888.15,1095.23 1890.31,1099.06 1892.47,1102.83 1894.63,1106.56 1896.79,1110.23 1898.95,1113.86 1901.11,1117.44 1903.27,1120.97 1905.43,1124.46 1907.59,1127.9 1909.75,1131.29 1911.92,1134.64 1914.08,1137.94 1916.24,1141.2 1918.4,1144.42 1920.56,1147.5 1922.72,1149.33 1924.88,1149.7 1927.04,1148.75 1929.2,1146.66 1931.36,1143.56 1933.53,1139.59 1935.69,1134.89 1937.85,1129.57 1940.01,1123.74 1942.17,1117.52 1944.33,1111 1946.49,1104.27 1948.65,1097.41 1950.81,1090.5 1952.97,1083.59 1955.14,1076.76 1957.3,1070.04 1959.46,1063.47 1961.62,1057.1 1963.78,1050.95 1965.94,1045.02 1968.1,1039.34 1970.26,1033.9 1972.42,1028.7 1974.58,1023.72 1976.75,1018.93 1978.91,1014.31 1981.07,1009.81 1983.23,1005.39 1985.39,1001 1987.55,996.563 1989.71,992.022 1991.87,987.483 1994.03,983.004 1996.19,978.584 1998.36,974.223 2000.52,969.92 2002.68,965.674 2004.84,961.484 2007,957.35 2009.16,953.271 2011.32,949.245 2013.48,945.273 2015.64,941.354 2017.8,937.486 2019.96,933.67 2022.13,929.905 2024.29,926.189 2026.45,922.523 2028.61,918.905 2030.77,915.335 2032.93,911.812 2035.09,908.336 2037.25,904.906 2039.41,901.521 2041.57,898.181 2043.74,894.885 2045.9,891.633 2048.06,888.424 2050.22,885.258 2052.38,882.133 2054.54,879.05 2056.7,876.008 2058.86,873.006 2061.02,870.045 2063.18,867.122 2065.35,864.239 2067.51,861.393 2069.67,858.586 2071.83,855.816 2073.99,853.082 2076.15,850.385 2078.31,847.724 2080.47,845.098 2082.63,842.507 2084.79,839.951 2086.96,837.428 2089.12,834.939 2091.28,832.483 2093.44,830.059 2095.6,827.668 2097.76,825.309 2099.92,822.981 2102.08,820.683 2104.24,818.416 2106.4,816.18 2108.57,813.972 2110.73,811.794 2112.89,809.645 2115.05,807.525 2117.21,805.432 2119.37,803.367 2121.53,801.33 2123.69,799.319 2125.85,797.335 2128.01,795.377 2130.17,793.445 2132.34,790.923 2134.5,787.07 2136.66,782.06 2138.82,776.062 2140.98,769.233 2143.14,761.721 2145.3,753.663 2147.46,745.183 2149.62,736.398 2151.78,727.411 2153.95,718.317 2156.11,709.199 2158.27,700.129 2160.43,691.169 2162.59,682.369 2164.75,673.772 2166.91,665.405 2169.07,657.289 2171.23,649.432 2173.39,641.831 2175.56,634.474 2177.72,627.336 2179.88,620.384 2182.04,613.573 2184.2,606.847 2186.36,600.14 2188.52,593.381 2190.68,586.657 2192.84,580.021 2195,573.474 2197.17,567.013 2199.33,560.639 2201.49,554.348 2203.65,548.141 2205.81,542.017 2207.97,535.973 2210.13,530.01 2212.29,524.126 2214.45,518.32 2216.61,512.59 2218.78,506.937 2220.94,501.359 2223.1,495.854 2225.26,490.423 2227.42,485.064 2229.58,479.775 2231.74,474.557 2233.9,469.408 2236.06,464.327 2238.22,459.314 2240.38,454.367 2242.55,449.485 2244.71,444.668 2246.87,439.915 2249.03,435.224 2251.19,430.596 2253.35,426.029 2255.51,421.523 2257.67,417.077 2259.83,412.689 2261.99,408.36 2264.16,404.088 2266.32,399.873 2268.48,395.714 2270.64,391.61 2272.8,387.56 2274.96,383.565 2277.12,379.622 2279.28,375.732 2281.44,371.893 2283.6,368.105 2285.77,364.368 2287.93,360.68 2290.09,357.041 2292.25,353.451 2294.41,349.908 2296.57,346.412 2298.73,342.962 2300.89,339.558 2303.05,336.199 2305.21,332.885 2307.38,329.615 2309.54,326.388 2311.7,323.204 2313.86,320.062 2316.02,316.961 2318.18,313.902 2320.34,310.883 2322.5,307.904 2324.66,304.965 2326.82,302.064 2328.99,299.202 2331.15,296.378 2333.31,293.591 2335.47,290.841 2337.63,288.128 2339.79,285.451 2341.95,282.809 2344.11,280.202 2346.27,277.63 2348.43,275.092 2350.59,272.587 2352.76,270.116 "/>
<polyline clip-path="url(#clip042)" style="stroke:#e26f46; stroke-linecap:round; stroke-linejoin:round; stroke-width:4; stroke-opacity:1; fill:none" points="193.936,1372.8 196.097,1372.8 198.258,1372.8 200.419,1372.8 202.58,1372.8 204.741,1372.8 206.902,1372.8 209.063,1372.8 211.224,1372.8 213.385,1372.8 215.546,1372.8 217.707,1372.8 219.868,1372.8 222.029,1372.8 224.19,1372.8 226.351,1372.8 228.512,1372.8 230.673,1372.8 232.834,1372.8 234.995,1372.8 237.156,1372.8 239.317,1372.8 241.478,1372.8 243.639,1372.8 245.8,1372.8 247.961,1372.8 250.122,1372.8 252.282,1372.8 254.443,1372.8 256.604,1372.8 258.765,1372.8 260.926,1372.8 263.087,1372.8 265.248,1372.8 267.409,1372.8 269.57,1372.8 271.731,1372.8 273.892,1372.8 276.053,1372.8 278.214,1372.8 280.375,1372.8 282.536,1372.8 284.697,1372.8 286.858,1372.8 289.019,1372.8 291.18,1372.8 293.341,1372.8 295.502,1372.8 297.663,1372.8 299.824,1372.8 301.985,1372.8 304.146,1372.8 306.307,1372.8 308.468,1372.8 310.629,1372.8 312.79,1372.8 314.951,1372.8 317.112,1372.8 319.273,1372.8 321.434,1372.8 323.595,1372.8 325.756,1372.8 327.917,1372.8 330.078,1372.8 332.239,1372.8 334.4,1372.8 336.561,1372.8 338.722,1372.8 340.883,1372.8 343.044,1372.8 345.205,1372.8 347.366,1372.8 349.527,1372.8 351.688,1372.8 353.849,1372.8 356.01,1372.8 358.171,1372.8 360.332,1372.8 362.493,1372.8 364.653,1372.8 366.814,1372.8 368.975,1372.8 371.136,1372.8 373.297,1372.8 375.458,1372.8 377.619,1372.8 379.78,1372.8 381.941,1372.8 384.102,1372.8 386.263,1372.8 388.424,1372.8 390.585,1372.8 392.746,1372.8 394.907,1372.8 397.068,1372.8 399.229,1372.8 401.39,1372.8 403.551,1372.8 405.712,1372.8 407.873,1372.8 410.034,264.94 412.195,264.94 414.356,264.94 416.517,264.94 418.678,264.94 420.839,264.94 423,264.94 425.161,264.94 427.322,264.94 429.483,264.94 431.644,264.94 433.805,264.94 435.966,264.94 438.127,264.94 440.288,264.94 442.449,264.94 444.61,264.94 446.771,264.94 448.932,264.94 451.093,264.94 453.254,264.94 455.415,264.94 457.576,264.94 459.737,264.94 461.898,264.94 464.059,264.94 466.22,264.94 468.381,264.94 470.542,264.94 472.703,264.94 474.864,264.94 477.024,264.94 479.185,264.94 481.346,264.94 483.507,264.94 485.668,264.94 487.829,264.94 489.99,264.94 492.151,264.94 494.312,264.94 496.473,264.94 498.634,264.94 500.795,264.94 502.956,264.94 505.117,264.94 507.278,264.94 509.439,264.94 511.6,264.94 513.761,264.94 515.922,264.94 518.083,264.94 520.244,264.94 522.405,264.94 524.566,264.94 526.727,264.94 528.888,264.94 531.049,264.94 533.21,264.94 535.371,264.94 537.532,264.94 539.693,264.94 541.854,264.94 544.015,264.94 546.176,264.94 548.337,264.94 550.498,264.94 552.659,264.94 554.82,264.94 556.981,264.94 559.142,264.94 561.303,264.94 563.464,264.94 565.625,264.94 567.786,264.94 569.947,264.94 572.108,264.94 574.269,264.94 576.43,264.94 578.591,264.94 580.752,264.94 582.913,264.94 585.074,264.94 587.235,264.94 589.396,264.94 591.556,264.94 593.717,264.94 595.878,264.94 598.039,264.94 600.2,264.94 602.361,264.94 604.522,264.94 606.683,264.94 608.844,264.94 611.005,264.94 613.166,264.94 615.327,264.94 617.488,264.94 619.649,264.94 621.81,264.94 623.971,264.94 626.132,876.564 628.293,876.564 630.454,876.564 632.615,876.564 634.776,876.564 636.937,876.564 639.098,876.564 641.259,876.564 643.42,876.564 645.581,876.564 647.742,876.564 649.903,876.564 652.064,876.564 654.225,876.564 656.386,876.564 658.547,876.564 660.708,876.564 662.869,876.564 665.03,876.564 667.191,876.564 669.352,876.564 671.513,876.564 673.674,876.564 675.835,876.564 677.996,876.564 680.157,876.564 682.318,876.564 684.479,876.564 686.64,876.564 688.801,876.564 690.962,876.564 693.123,876.564 695.284,876.564 697.445,876.564 699.606,876.564 701.767,876.564 703.927,876.564 706.088,876.564 708.249,876.564 710.41,876.564 712.571,876.564 714.732,876.564 716.893,876.564 719.054,876.564 721.215,876.564 723.376,876.564 725.537,876.564 727.698,876.564 729.859,876.564 732.02,876.564 734.181,876.564 736.342,876.564 738.503,876.564 740.664,876.564 742.825,876.564 744.986,876.564 747.147,876.564 749.308,876.564 751.469,876.564 753.63,876.564 755.791,876.564 757.952,876.564 760.113,876.564 762.274,876.564 764.435,876.564 766.596,876.564 768.757,876.564 770.918,876.564 773.079,876.564 775.24,876.564 777.401,876.564 779.562,876.564 781.723,876.564 783.884,876.564 786.045,876.564 788.206,876.564 790.367,876.564 792.528,876.564 794.689,876.564 796.85,876.564 799.011,876.564 801.172,876.564 803.333,876.564 805.494,876.564 807.655,876.564 809.816,876.564 811.977,876.564 814.138,876.564 816.298,876.564 818.459,876.564 820.62,876.564 822.781,876.564 824.942,876.564 827.103,876.564 829.264,876.564 831.425,876.564 833.586,876.564 835.747,876.564 837.908,876.564 840.069,876.564 842.23,1384.24 844.391,1384.24 846.552,1384.24 848.713,1384.24 850.874,1384.24 853.035,1384.24 855.196,1384.24 857.357,1384.24 859.518,1384.24 861.679,1384.24 863.84,1384.24 866.001,1384.24 868.162,1384.24 870.323,1384.24 872.484,1384.24 874.645,1384.24 876.806,1384.24 878.967,1384.24 881.128,1384.24 883.289,1384.24 885.45,1384.24 887.611,1384.24 889.772,1384.24 891.933,1384.24 894.094,1384.24 896.255,1384.24 898.416,1384.24 900.577,1384.24 902.738,1384.24 904.899,1384.24 907.06,1384.24 909.221,1384.24 911.382,1384.24 913.543,1384.24 915.704,1384.24 917.865,1384.24 920.026,1384.24 922.187,1384.24 924.348,1384.24 926.509,1384.24 928.669,1384.24 930.83,1384.24 932.991,1384.24 935.152,1384.24 937.313,1384.24 939.474,1384.24 941.635,1384.24 943.796,1384.24 945.957,1384.24 948.118,1384.24 950.279,1384.24 952.44,1384.24 954.601,1384.24 956.762,1384.24 958.923,1384.24 961.084,1384.24 963.245,1384.24 965.406,1384.24 967.567,1384.24 969.728,1384.24 971.889,1384.24 974.05,1384.24 976.211,1384.24 978.372,1384.24 980.533,1384.24 982.694,1384.24 984.855,1384.24 987.016,1384.24 989.177,1384.24 991.338,1384.24 993.499,1384.24 995.66,1384.24 997.821,1384.24 999.982,1384.24 1002.14,1384.24 1004.3,1384.24 1006.46,1384.24 1008.63,1384.24 1010.79,1384.24 1012.95,1384.24 1015.11,1384.24 1017.27,1384.24 1019.43,1384.24 1021.59,1384.24 1023.75,1384.24 1025.91,1384.24 1028.07,1384.24 1030.24,1384.24 1032.4,1384.24 1034.56,1384.24 1036.72,1384.24 1038.88,1384.24 1041.04,1384.24 1043.2,1384.24 1045.36,1384.24 1047.52,1384.24 1049.68,1384.24 1051.85,1384.24 1054.01,1384.24 1056.17,1384.24 1058.33,704.543 1060.49,704.543 1062.65,704.543 1064.81,704.543 1066.97,704.543 1069.13,704.543 1071.29,704.543 1073.46,704.543 1075.62,704.543 1077.78,704.543 1079.94,704.543 1082.1,704.543 1084.26,704.543 1086.42,704.543 1088.58,704.543 1090.74,704.543 1092.9,704.543 1095.07,704.543 1097.23,704.543 1099.39,704.543 1101.55,704.543 1103.71,704.543 1105.87,704.543 1108.03,704.543 1110.19,704.543 1112.35,704.543 1114.51,704.543 1116.67,704.543 1118.84,704.543 1121,704.543 1123.16,704.543 1125.32,704.543 1127.48,704.543 1129.64,704.543 1131.8,704.543 1133.96,704.543 1136.12,704.543 1138.28,704.543 1140.45,704.543 1142.61,704.543 1144.77,704.543 1146.93,704.543 1149.09,704.543 1151.25,704.543 1153.41,704.543 1155.57,704.543 1157.73,704.543 1159.89,704.543 1162.06,704.543 1164.22,704.543 1166.38,704.543 1168.54,704.543 1170.7,704.543 1172.86,704.543 1175.02,704.543 1177.18,704.543 1179.34,704.543 1181.5,704.543 1183.67,704.543 1185.83,704.543 1187.99,704.543 1190.15,704.543 1192.31,704.543 1194.47,704.543 1196.63,704.543 1198.79,704.543 1200.95,704.543 1203.11,704.543 1205.28,704.543 1207.44,704.543 1209.6,704.543 1211.76,704.543 1213.92,704.543 1216.08,704.543 1218.24,704.543 1220.4,704.543 1222.56,704.543 1224.72,704.543 1226.88,704.543 1229.05,704.543 1231.21,704.543 1233.37,704.543 1235.53,704.543 1237.69,704.543 1239.85,704.543 1242.01,704.543 1244.17,704.543 1246.33,704.543 1248.49,704.543 1250.66,704.543 1252.82,704.543 1254.98,704.543 1257.14,704.543 1259.3,704.543 1261.46,704.543 1263.62,704.543 1265.78,704.543 1267.94,704.543 1270.1,704.543 1272.27,704.543 1274.43,1274.32 1276.59,1274.32 1278.75,1274.32 1280.91,1274.32 1283.07,1274.32 1285.23,1274.32 1287.39,1274.32 1289.55,1274.32 1291.71,1274.32 1293.88,1274.32 1296.04,1274.32 1298.2,1274.32 1300.36,1274.32 1302.52,1274.32 1304.68,1274.32 1306.84,1274.32 1309,1274.32 1311.16,1274.32 1313.32,1274.32 1315.49,1274.32 1317.65,1274.32 1319.81,1274.32 1321.97,1274.32 1324.13,1274.32 1326.29,1274.32 1328.45,1274.32 1330.61,1274.32 1332.77,1274.32 1334.93,1274.32 1337.09,1274.32 1339.26,1274.32 1341.42,1274.32 1343.58,1274.32 1345.74,1274.32 1347.9,1274.32 1350.06,1274.32 1352.22,1274.32 1354.38,1274.32 1356.54,1274.32 1358.7,1274.32 1360.87,1274.32 1363.03,1274.32 1365.19,1274.32 1367.35,1274.32 1369.51,1274.32 1371.67,1274.32 1373.83,1274.32 1375.99,1274.32 1378.15,1274.32 1380.31,1274.32 1382.48,1274.32 1384.64,1274.32 1386.8,1274.32 1388.96,1274.32 1391.12,1274.32 1393.28,1274.32 1395.44,1274.32 1397.6,1274.32 1399.76,1274.32 1401.92,1274.32 1404.09,1274.32 1406.25,1274.32 1408.41,1274.32 1410.57,1274.32 1412.73,1274.32 1414.89,1274.32 1417.05,1274.32 1419.21,1274.32 1421.37,1274.32 1423.53,1274.32 1425.7,1274.32 1427.86,1274.32 1430.02,1274.32 1432.18,1274.32 1434.34,1274.32 1436.5,1274.32 1438.66,1274.32 1440.82,1274.32 1442.98,1274.32 1445.14,1274.32 1447.3,1274.32 1449.47,1274.32 1451.63,1274.32 1453.79,1274.32 1455.95,1274.32 1458.11,1274.32 1460.27,1274.32 1462.43,1274.32 1464.59,1274.32 1466.75,1274.32 1468.91,1274.32 1471.08,1274.32 1473.24,1274.32 1475.4,1274.32 1477.56,1274.32 1479.72,1274.32 1481.88,1274.32 1484.04,1274.32 1486.2,1274.32 1488.36,1274.32 1490.52,231.969 1492.69,231.969 1494.85,231.969 1497.01,231.969 1499.17,231.969 1501.33,231.969 1503.49,231.969 1505.65,231.969 1507.81,231.969 1509.97,231.969 1512.13,231.969 1514.3,231.969 1516.46,231.969 1518.62,231.969 1520.78,231.969 1522.94,231.969 1525.1,231.969 1527.26,231.969 1529.42,231.969 1531.58,231.969 1533.74,231.969 1535.91,231.969 1538.07,231.969 1540.23,231.969 1542.39,231.969 1544.55,231.969 1546.71,231.969 1548.87,231.969 1551.03,231.969 1553.19,231.969 1555.35,231.969 1557.51,231.969 1559.68,231.969 1561.84,231.969 1564,231.969 1566.16,231.969 1568.32,231.969 1570.48,231.969 1572.64,231.969 1574.8,231.969 1576.96,231.969 1579.12,231.969 1581.29,231.969 1583.45,231.969 1585.61,231.969 1587.77,231.969 1589.93,231.969 1592.09,231.969 1594.25,231.969 1596.41,231.969 1598.57,231.969 1600.73,231.969 1602.9,231.969 1605.06,231.969 1607.22,231.969 1609.38,231.969 1611.54,231.969 1613.7,231.969 1615.86,231.969 1618.02,231.969 1620.18,231.969 1622.34,231.969 1624.51,231.969 1626.67,231.969 1628.83,231.969 1630.99,231.969 1633.15,231.969 1635.31,231.969 1637.47,231.969 1639.63,231.969 1641.79,231.969 1643.95,231.969 1646.12,231.969 1648.28,231.969 1650.44,231.969 1652.6,231.969 1654.76,231.969 1656.92,231.969 1659.08,231.969 1661.24,231.969 1663.4,231.969 1665.56,231.969 1667.72,231.969 1669.89,231.969 1672.05,231.969 1674.21,231.969 1676.37,231.969 1678.53,231.969 1680.69,231.969 1682.85,231.969 1685.01,231.969 1687.17,231.969 1689.33,231.969 1691.5,231.969 1693.66,231.969 1695.82,231.969 1697.98,231.969 1700.14,231.969 1702.3,231.969 1704.46,231.969 1706.62,1383.83 1708.78,1383.83 1710.94,1383.83 1713.11,1383.83 1715.27,1383.83 1717.43,1383.83 1719.59,1383.83 1721.75,1383.83 1723.91,1383.83 1726.07,1383.83 1728.23,1383.83 1730.39,1383.83 1732.55,1383.83 1734.72,1383.83 1736.88,1383.83 1739.04,1383.83 1741.2,1383.83 1743.36,1383.83 1745.52,1383.83 1747.68,1383.83 1749.84,1383.83 1752,1383.83 1754.16,1383.83 1756.33,1383.83 1758.49,1383.83 1760.65,1383.83 1762.81,1383.83 1764.97,1383.83 1767.13,1383.83 1769.29,1383.83 1771.45,1383.83 1773.61,1383.83 1775.77,1383.83 1777.93,1383.83 1780.1,1383.83 1782.26,1383.83 1784.42,1383.83 1786.58,1383.83 1788.74,1383.83 1790.9,1383.83 1793.06,1383.83 1795.22,1383.83 1797.38,1383.83 1799.54,1383.83 1801.71,1383.83 1803.87,1383.83 1806.03,1383.83 1808.19,1383.83 1810.35,1383.83 1812.51,1383.83 1814.67,1383.83 1816.83,1383.83 1818.99,1383.83 1821.15,1383.83 1823.32,1383.83 1825.48,1383.83 1827.64,1383.83 1829.8,1383.83 1831.96,1383.83 1834.12,1383.83 1836.28,1383.83 1838.44,1383.83 1840.6,1383.83 1842.76,1383.83 1844.93,1383.83 1847.09,1383.83 1849.25,1383.83 1851.41,1383.83 1853.57,1383.83 1855.73,1383.83 1857.89,1383.83 1860.05,1383.83 1862.21,1383.83 1864.37,1383.83 1866.54,1383.83 1868.7,1383.83 1870.86,1383.83 1873.02,1383.83 1875.18,1383.83 1877.34,1383.83 1879.5,1383.83 1881.66,1383.83 1883.82,1383.83 1885.98,1383.83 1888.15,1383.83 1890.31,1383.83 1892.47,1383.83 1894.63,1383.83 1896.79,1383.83 1898.95,1383.83 1901.11,1383.83 1903.27,1383.83 1905.43,1383.83 1907.59,1383.83 1909.75,1383.83 1911.92,1383.83 1914.08,1383.83 1916.24,1383.83 1918.4,1383.83 1920.56,1383.83 1922.72,649.652 1924.88,649.652 1927.04,649.652 1929.2,649.652 1931.36,649.652 1933.53,649.652 1935.69,649.652 1937.85,649.652 1940.01,649.652 1942.17,649.652 1944.33,649.652 1946.49,649.652 1948.65,649.652 1950.81,649.652 1952.97,649.652 1955.14,649.652 1957.3,649.652 1959.46,649.652 1961.62,649.652 1963.78,649.652 1965.94,649.652 1968.1,649.652 1970.26,649.652 1972.42,649.652 1974.58,649.652 1976.75,649.652 1978.91,649.652 1981.07,649.652 1983.23,649.652 1985.39,649.652 1987.55,649.652 1989.71,649.652 1991.87,649.652 1994.03,649.652 1996.19,649.652 1998.36,649.652 2000.52,649.652 2002.68,649.652 2004.84,649.652 2007,649.652 2009.16,649.652 2011.32,649.652 2013.48,649.652 2015.64,649.652 2017.8,649.652 2019.96,649.652 2022.13,649.652 2024.29,649.652 2026.45,649.652 2028.61,649.652 2030.77,649.652 2032.93,649.652 2035.09,649.652 2037.25,649.652 2039.41,649.652 2041.57,649.652 2043.74,649.652 2045.9,649.652 2048.06,649.652 2050.22,649.652 2052.38,649.652 2054.54,649.652 2056.7,649.652 2058.86,649.652 2061.02,649.652 2063.18,649.652 2065.35,649.652 2067.51,649.652 2069.67,649.652 2071.83,649.652 2073.99,649.652 2076.15,649.652 2078.31,649.652 2080.47,649.652 2082.63,649.652 2084.79,649.652 2086.96,649.652 2089.12,649.652 2091.28,649.652 2093.44,649.652 2095.6,649.652 2097.76,649.652 2099.92,649.652 2102.08,649.652 2104.24,649.652 2106.4,649.652 2108.57,649.652 2110.73,649.652 2112.89,649.652 2115.05,649.652 2117.21,649.652 2119.37,649.652 2121.53,649.652 2123.69,649.652 2125.85,649.652 2128.01,649.652 2130.17,649.652 2132.34,649.652 2134.5,649.652 2136.66,649.652 2138.82,86.1857 2140.98,86.1857 2143.14,86.1857 2145.3,86.1857 2147.46,86.1857 2149.62,86.1857 2151.78,86.1857 2153.95,86.1857 2156.11,86.1857 2158.27,86.1857 2160.43,86.1857 2162.59,86.1857 2164.75,86.1857 2166.91,86.1857 2169.07,86.1857 2171.23,86.1857 2173.39,86.1857 2175.56,86.1857 2177.72,86.1857 2179.88,86.1857 2182.04,86.1857 2184.2,86.1857 2186.36,86.1857 2188.52,86.1857 2190.68,86.1857 2192.84,86.1857 2195,86.1857 2197.17,86.1857 2199.33,86.1857 2201.49,86.1857 2203.65,86.1857 2205.81,86.1857 2207.97,86.1857 2210.13,86.1857 2212.29,86.1857 2214.45,86.1857 2216.61,86.1857 2218.78,86.1857 2220.94,86.1857 2223.1,86.1857 2225.26,86.1857 2227.42,86.1857 2229.58,86.1857 2231.74,86.1857 2233.9,86.1857 2236.06,86.1857 2238.22,86.1857 2240.38,86.1857 2242.55,86.1857 2244.71,86.1857 2246.87,86.1857 2249.03,86.1857 2251.19,86.1857 2253.35,86.1857 2255.51,86.1857 2257.67,86.1857 2259.83,86.1857 2261.99,86.1857 2264.16,86.1857 2266.32,86.1857 2268.48,86.1857 2270.64,86.1857 2272.8,86.1857 2274.96,86.1857 2277.12,86.1857 2279.28,86.1857 2281.44,86.1857 2283.6,86.1857 2285.77,86.1857 2287.93,86.1857 2290.09,86.1857 2292.25,86.1857 2294.41,86.1857 2296.57,86.1857 2298.73,86.1857 2300.89,86.1857 2303.05,86.1857 2305.21,86.1857 2307.38,86.1857 2309.54,86.1857 2311.7,86.1857 2313.86,86.1857 2316.02,86.1857 2318.18,86.1857 2320.34,86.1857 2322.5,86.1857 2324.66,86.1857 2326.82,86.1857 2328.99,86.1857 2331.15,86.1857 2333.31,86.1857 2335.47,86.1857 2337.63,86.1857 2339.79,86.1857 2341.95,86.1857 2344.11,86.1857 2346.27,86.1857 2348.43,86.1857 2350.59,86.1857 2352.76,86.1857 "/>
<path clip-path="url(#clip040)" d="M2039.77 1377.32 L2280.8 1377.32 L2280.8 1221.8 L2039.77 1221.8  Z" fill="#ffffff" fill-rule="evenodd" fill-opacity="1"/>
<polyline clip-path="url(#clip040)" style="stroke:#000000; stroke-linecap:round; stroke-linejoin:round; stroke-width:4; stroke-opacity:1; fill:none" points="2039.77,1377.32 2280.8,1377.32 2280.8,1221.8 2039.77,1221.8 2039.77,1377.32 "/>
<polyline clip-path="url(#clip040)" style="stroke:#009af9; stroke-linecap:round; stroke-linejoin:round; stroke-width:4; stroke-opacity:1; fill:none" points="2063.76,1273.64 2207.68,1273.64 "/>
<path clip-path="url(#clip040)" d="M2256.32 1264.99 L2246.95 1277.61 L2256.81 1290.92 L2251.79 1290.92 L2244.24 1280.73 L2236.69 1290.92 L2231.67 1290.92 L2241.74 1277.35 L2232.53 1264.99 L2237.55 1264.99 L2244.42 1274.23 L2251.3 1264.99 L2256.32 1264.99 Z" fill="#000000" fill-rule="nonzero" fill-opacity="1" /><polyline clip-path="url(#clip040)" style="stroke:#e26f46; stroke-linecap:round; stroke-linejoin:round; stroke-width:4; stroke-opacity:1; fill:none" points="2063.76,1325.48 2207.68,1325.48 "/>
<path clip-path="url(#clip040)" d="M2248.17 1306.74 L2248.17 1310.28 L2244.1 1310.28 Q2241.81 1310.28 2240.91 1311.2 Q2240.03 1312.13 2240.03 1314.54 L2240.03 1316.83 L2247.04 1316.83 L2247.04 1320.14 L2240.03 1320.14 L2240.03 1342.76 L2235.74 1342.76 L2235.74 1320.14 L2231.67 1320.14 L2231.67 1316.83 L2235.74 1316.83 L2235.74 1315.02 Q2235.74 1310.7 2237.76 1308.73 Q2239.77 1306.74 2244.15 1306.74 L2248.17 1306.74 Z" fill="#000000" fill-rule="nonzero" fill-opacity="1" /></svg>
