<?xml version="1.0" encoding="utf-8"?>
<svg xmlns="http://www.w3.org/2000/svg" xmlns:xlink="http://www.w3.org/1999/xlink" width="600" height="400" viewBox="0 0 2400 1600">
<defs>
  <clipPath id="clip780">
    <rect x="0" y="0" width="2400" height="1600"/>
  </clipPath>
</defs>
<path clip-path="url(#clip780)" d="M0 1600 L2400 1600 L2400 0 L0 0  Z" fill="#ffffff" fill-rule="evenodd" fill-opacity="1"/>
<defs>
  <clipPath id="clip781">
    <rect x="480" y="0" width="1681" height="1600"/>
  </clipPath>
</defs>
<defs>
  <clipPath id="clip782">
    <rect x="155" y="47" width="2198" height="1440"/>
  </clipPath>
</defs>
<path clip-path="url(#clip782)" d="M-807.771 2351.89 L-807.771 2092.26 L-685.67 1962.44 L-474.185 2037.39 L-474.185 2297.02 L-596.286 2426.84 L-807.771 2351.89  Z" fill="#ffffff" fill-rule="evenodd" fill-opacity="1"/>
<polyline clip-path="url(#clip782)" style="stroke:#000000; stroke-linecap:round; stroke-linejoin:round; stroke-width:2; stroke-opacity:0.1; fill:none" points="742.991,1218.92 1158.45,859.123 1158.45,139.521 "/>
<polyline clip-path="url(#clip782)" style="stroke:#000000; stroke-linecap:round; stroke-linejoin:round; stroke-width:2; stroke-opacity:0.1; fill:none" points="848.734,1249.45 1264.2,889.648 1264.2,170.046 "/>
<polyline clip-path="url(#clip782)" style="stroke:#000000; stroke-linecap:round; stroke-linejoin:round; stroke-width:2; stroke-opacity:0.1; fill:none" points="954.476,1279.97 1369.94,920.173 1369.94,200.571 "/>
<polyline clip-path="url(#clip782)" style="stroke:#000000; stroke-linecap:round; stroke-linejoin:round; stroke-width:2; stroke-opacity:0.1; fill:none" points="1060.22,1310.5 1475.68,950.698 1475.68,231.096 "/>
<polyline clip-path="url(#clip782)" style="stroke:#000000; stroke-linecap:round; stroke-linejoin:round; stroke-width:2; stroke-opacity:0.1; fill:none" points="1165.96,1341.02 1581.42,981.224 1581.42,261.622 "/>
<polyline clip-path="url(#clip782)" style="stroke:#000000; stroke-linecap:round; stroke-linejoin:round; stroke-width:2; stroke-opacity:0.1; fill:none" points="1271.7,1371.55 1687.17,1011.75 1687.17,292.147 "/>
<polyline clip-path="url(#clip782)" style="stroke:#000000; stroke-linecap:round; stroke-linejoin:round; stroke-width:2; stroke-opacity:0.1; fill:none" points="1377.45,1402.08 1792.91,1042.27 1792.91,322.672 "/>
<polyline clip-path="url(#clip782)" style="stroke:#000000; stroke-linecap:round; stroke-linejoin:round; stroke-width:2; stroke-opacity:0.1; fill:none" points="1426.74,1392.74 707.14,1185.01 707.14,465.403 "/>
<polyline clip-path="url(#clip782)" style="stroke:#000000; stroke-linecap:round; stroke-linejoin:round; stroke-width:2; stroke-opacity:0.1; fill:none" points="1501.69,1327.83 782.089,1120.1 782.089,400.495 "/>
<polyline clip-path="url(#clip782)" style="stroke:#000000; stroke-linecap:round; stroke-linejoin:round; stroke-width:2; stroke-opacity:0.1; fill:none" points="1576.64,1262.92 857.038,1055.19 857.038,335.587 "/>
<polyline clip-path="url(#clip782)" style="stroke:#000000; stroke-linecap:round; stroke-linejoin:round; stroke-width:2; stroke-opacity:0.1; fill:none" points="1651.59,1198.01 931.988,990.281 931.988,270.679 "/>
<polyline clip-path="url(#clip782)" style="stroke:#000000; stroke-linecap:round; stroke-linejoin:round; stroke-width:2; stroke-opacity:0.1; fill:none" points="1726.54,1133.1 1006.94,925.373 1006.94,205.771 "/>
<polyline clip-path="url(#clip782)" style="stroke:#000000; stroke-linecap:round; stroke-linejoin:round; stroke-width:2; stroke-opacity:0.1; fill:none" points="1801.49,1068.2 1081.89,860.465 1081.89,140.863 "/>
<polyline clip-path="url(#clip782)" style="stroke:#000000; stroke-linecap:round; stroke-linejoin:round; stroke-width:2; stroke-opacity:0.1; fill:none" points="686.728,1128.03 1102.19,768.231 1821.79,975.962 "/>
<polyline clip-path="url(#clip782)" style="stroke:#000000; stroke-linecap:round; stroke-linejoin:round; stroke-width:2; stroke-opacity:0.1; fill:none" points="686.728,995.373 1102.19,635.572 1821.79,843.303 "/>
<polyline clip-path="url(#clip782)" style="stroke:#000000; stroke-linecap:round; stroke-linejoin:round; stroke-width:2; stroke-opacity:0.1; fill:none" points="686.728,862.715 1102.19,502.914 1821.79,710.645 "/>
<polyline clip-path="url(#clip782)" style="stroke:#000000; stroke-linecap:round; stroke-linejoin:round; stroke-width:2; stroke-opacity:0.1; fill:none" points="686.728,730.056 1102.19,370.255 1821.79,577.986 "/>
<polyline clip-path="url(#clip782)" style="stroke:#000000; stroke-linecap:round; stroke-linejoin:round; stroke-width:2; stroke-opacity:0.1; fill:none" points="686.728,597.397 1102.19,237.596 1821.79,445.327 "/>
<polyline clip-path="url(#clip780)" style="stroke:#000000; stroke-linecap:round; stroke-linejoin:round; stroke-width:4; stroke-opacity:1; fill:none" points="686.728,1202.68 1406.33,1410.41 "/>
<polyline clip-path="url(#clip780)" style="stroke:#000000; stroke-linecap:round; stroke-linejoin:round; stroke-width:4; stroke-opacity:1; fill:none" points="742.991,1218.92 747.977,1214.61 "/>
<polyline clip-path="url(#clip780)" style="stroke:#000000; stroke-linecap:round; stroke-linejoin:round; stroke-width:4; stroke-opacity:1; fill:none" points="848.734,1249.45 853.719,1245.13 "/>
<polyline clip-path="url(#clip780)" style="stroke:#000000; stroke-linecap:round; stroke-linejoin:round; stroke-width:4; stroke-opacity:1; fill:none" points="954.476,1279.97 959.462,1275.66 "/>
<polyline clip-path="url(#clip780)" style="stroke:#000000; stroke-linecap:round; stroke-linejoin:round; stroke-width:4; stroke-opacity:1; fill:none" points="1060.22,1310.5 1065.2,1306.18 "/>
<polyline clip-path="url(#clip780)" style="stroke:#000000; stroke-linecap:round; stroke-linejoin:round; stroke-width:4; stroke-opacity:1; fill:none" points="1165.96,1341.02 1170.95,1336.71 "/>
<polyline clip-path="url(#clip780)" style="stroke:#000000; stroke-linecap:round; stroke-linejoin:round; stroke-width:4; stroke-opacity:1; fill:none" points="1271.7,1371.55 1276.69,1367.23 "/>
<polyline clip-path="url(#clip780)" style="stroke:#000000; stroke-linecap:round; stroke-linejoin:round; stroke-width:4; stroke-opacity:1; fill:none" points="1377.45,1402.08 1382.43,1397.76 "/>
<path clip-path="url(#clip780)" d="M726.241 1244.72 Q729.598 1245.43 731.473 1247.7 Q733.371 1249.97 733.371 1253.3 Q733.371 1258.42 729.852 1261.22 Q726.334 1264.02 719.852 1264.02 Q717.676 1264.02 715.362 1263.58 Q713.07 1263.16 710.616 1262.31 L710.616 1257.79 Q712.561 1258.93 714.876 1259.51 Q717.19 1260.09 719.714 1260.09 Q724.112 1260.09 726.403 1258.35 Q728.718 1256.61 728.718 1253.3 Q728.718 1250.25 726.565 1248.53 Q724.436 1246.8 720.616 1246.8 L716.589 1246.8 L716.589 1242.96 L720.801 1242.96 Q724.251 1242.96 726.079 1241.59 Q727.908 1240.2 727.908 1237.61 Q727.908 1234.95 726.01 1233.53 Q724.135 1232.1 720.616 1232.1 Q718.695 1232.1 716.496 1232.52 Q714.297 1232.93 711.658 1233.81 L711.658 1229.65 Q714.32 1228.9 716.635 1228.53 Q718.973 1228.16 721.033 1228.16 Q726.357 1228.16 729.459 1230.59 Q732.561 1233 732.561 1237.12 Q732.561 1239.99 730.917 1241.98 Q729.274 1243.95 726.241 1244.72 Z" fill="#000000" fill-rule="nonzero" fill-opacity="1" /><path clip-path="url(#clip780)" d="M829.53 1263.39 L817.725 1281.84 L829.53 1281.84 L829.53 1263.39 M828.303 1259.31 L834.183 1259.31 L834.183 1281.84 L839.113 1281.84 L839.113 1285.73 L834.183 1285.73 L834.183 1293.87 L829.53 1293.87 L829.53 1285.73 L813.928 1285.73 L813.928 1281.21 L828.303 1259.31 Z" fill="#000000" fill-rule="nonzero" fill-opacity="1" /><path clip-path="url(#clip780)" d="M923.953 1289.84 L942.31 1289.84 L942.31 1293.77 L928.236 1293.77 L928.236 1302.25 Q929.254 1301.9 930.273 1301.74 Q931.291 1301.55 932.31 1301.55 Q938.097 1301.55 941.476 1304.72 Q944.856 1307.9 944.856 1313.31 Q944.856 1318.89 941.384 1321.99 Q937.912 1325.07 931.592 1325.07 Q929.416 1325.07 927.148 1324.7 Q924.902 1324.33 922.495 1323.59 L922.495 1318.89 Q924.578 1320.02 926.801 1320.58 Q929.023 1321.14 931.5 1321.14 Q935.504 1321.14 937.842 1319.03 Q940.18 1316.92 940.18 1313.31 Q940.18 1309.7 937.842 1307.59 Q935.504 1305.49 931.5 1305.49 Q929.625 1305.49 927.75 1305.9 Q925.898 1306.32 923.953 1307.2 L923.953 1289.84 Z" fill="#000000" fill-rule="nonzero" fill-opacity="1" /><path clip-path="url(#clip780)" d="M1039.07 1335.78 Q1035.92 1335.78 1034.07 1337.93 Q1032.24 1340.09 1032.24 1343.84 Q1032.24 1347.56 1034.07 1349.74 Q1035.92 1351.89 1039.07 1351.89 Q1042.22 1351.89 1044.05 1349.74 Q1045.9 1347.56 1045.9 1343.84 Q1045.9 1340.09 1044.05 1337.93 Q1042.22 1335.78 1039.07 1335.78 M1048.35 1321.13 L1048.35 1325.39 Q1046.59 1324.55 1044.79 1324.11 Q1043.01 1323.68 1041.25 1323.68 Q1036.62 1323.68 1034.16 1326.8 Q1031.73 1329.93 1031.39 1336.24 Q1032.75 1334.23 1034.81 1333.17 Q1036.87 1332.08 1039.35 1332.08 Q1044.56 1332.08 1047.57 1335.25 Q1050.6 1338.4 1050.6 1343.84 Q1050.6 1349.16 1047.45 1352.38 Q1044.3 1355.6 1039.07 1355.6 Q1033.08 1355.6 1029.9 1351.01 Q1026.73 1346.41 1026.73 1337.68 Q1026.73 1329.49 1030.62 1324.62 Q1034.51 1319.74 1041.06 1319.74 Q1042.82 1319.74 1044.6 1320.09 Q1046.41 1320.43 1048.35 1321.13 Z" fill="#000000" fill-rule="nonzero" fill-opacity="1" /><path clip-path="url(#clip780)" d="M1134.12 1350.89 L1156.34 1350.89 L1156.34 1352.88 L1143.8 1385.45 L1138.91 1385.45 L1150.72 1354.83 L1134.12 1354.83 L1134.12 1350.89 Z" fill="#000000" fill-rule="nonzero" fill-opacity="1" /><path clip-path="url(#clip780)" d="M1250.23 1399.56 Q1246.9 1399.56 1244.98 1401.35 Q1243.08 1403.13 1243.08 1406.25 Q1243.08 1409.38 1244.98 1411.16 Q1246.9 1412.94 1250.23 1412.94 Q1253.57 1412.94 1255.49 1411.16 Q1257.41 1409.36 1257.41 1406.25 Q1257.41 1403.13 1255.49 1401.35 Q1253.59 1399.56 1250.23 1399.56 M1245.56 1397.57 Q1242.55 1396.83 1240.86 1394.77 Q1239.19 1392.71 1239.19 1389.75 Q1239.19 1385.61 1242.13 1383.2 Q1245.09 1380.79 1250.23 1380.79 Q1255.39 1380.79 1258.33 1383.2 Q1261.27 1385.61 1261.27 1389.75 Q1261.27 1392.71 1259.58 1394.77 Q1257.92 1396.83 1254.93 1397.57 Q1258.31 1398.36 1260.19 1400.65 Q1262.08 1402.94 1262.08 1406.25 Q1262.08 1411.28 1259.01 1413.96 Q1255.95 1416.65 1250.23 1416.65 Q1244.51 1416.65 1241.44 1413.96 Q1238.38 1411.28 1238.38 1406.25 Q1238.38 1402.94 1240.28 1400.65 Q1242.18 1398.36 1245.56 1397.57 M1243.84 1390.19 Q1243.84 1392.87 1245.51 1394.38 Q1247.2 1395.88 1250.23 1395.88 Q1253.24 1395.88 1254.93 1394.38 Q1256.64 1392.87 1256.64 1390.19 Q1256.64 1387.5 1254.93 1386 Q1253.24 1384.49 1250.23 1384.49 Q1247.2 1384.49 1245.51 1386 Q1243.84 1387.5 1243.84 1390.19 Z" fill="#000000" fill-rule="nonzero" fill-opacity="1" /><path clip-path="url(#clip780)" d="M1346.21 1445.78 L1346.21 1441.52 Q1347.97 1442.36 1349.77 1442.8 Q1351.58 1443.24 1353.31 1443.24 Q1357.94 1443.24 1360.37 1440.14 Q1362.83 1437.01 1363.17 1430.67 Q1361.83 1432.66 1359.77 1433.72 Q1357.71 1434.79 1355.21 1434.79 Q1350.03 1434.79 1346.99 1431.66 Q1343.98 1428.51 1343.98 1423.07 Q1343.98 1417.75 1347.13 1414.53 Q1350.28 1411.32 1355.51 1411.32 Q1361.51 1411.32 1364.66 1415.92 Q1367.83 1420.51 1367.83 1429.26 Q1367.83 1437.43 1363.94 1442.31 Q1360.07 1447.17 1353.52 1447.17 Q1351.76 1447.17 1349.96 1446.82 Q1348.15 1446.48 1346.21 1445.78 M1355.51 1431.13 Q1358.66 1431.13 1360.49 1428.98 Q1362.34 1426.82 1362.34 1423.07 Q1362.34 1419.35 1360.49 1417.2 Q1358.66 1415.02 1355.51 1415.02 Q1352.36 1415.02 1350.51 1417.2 Q1348.68 1419.35 1348.68 1423.07 Q1348.68 1426.82 1350.51 1428.98 Q1352.36 1431.13 1355.51 1431.13 Z" fill="#000000" fill-rule="nonzero" fill-opacity="1" /><polyline clip-path="url(#clip780)" style="stroke:#000000; stroke-linecap:round; stroke-linejoin:round; stroke-width:4; stroke-opacity:1; fill:none" points="1406.33,1410.41 1821.79,1050.61 "/>
<polyline clip-path="url(#clip780)" style="stroke:#000000; stroke-linecap:round; stroke-linejoin:round; stroke-width:4; stroke-opacity:1; fill:none" points="1426.74,1392.74 1418.11,1390.24 "/>
<polyline clip-path="url(#clip780)" style="stroke:#000000; stroke-linecap:round; stroke-linejoin:round; stroke-width:4; stroke-opacity:1; fill:none" points="1501.69,1327.83 1493.06,1325.34 "/>
<polyline clip-path="url(#clip780)" style="stroke:#000000; stroke-linecap:round; stroke-linejoin:round; stroke-width:4; stroke-opacity:1; fill:none" points="1576.64,1262.92 1568.01,1260.43 "/>
<polyline clip-path="url(#clip780)" style="stroke:#000000; stroke-linecap:round; stroke-linejoin:round; stroke-width:4; stroke-opacity:1; fill:none" points="1651.59,1198.01 1642.95,1195.52 "/>
<polyline clip-path="url(#clip780)" style="stroke:#000000; stroke-linecap:round; stroke-linejoin:round; stroke-width:4; stroke-opacity:1; fill:none" points="1726.54,1133.1 1717.9,1130.61 "/>
<polyline clip-path="url(#clip780)" style="stroke:#000000; stroke-linecap:round; stroke-linejoin:round; stroke-width:4; stroke-opacity:1; fill:none" points="1801.49,1068.2 1792.85,1065.7 "/>
<path clip-path="url(#clip780)" d="M1463.34 1411.11 Q1466.7 1411.83 1468.58 1414.1 Q1470.47 1416.37 1470.47 1419.7 Q1470.47 1424.82 1466.96 1427.62 Q1463.44 1430.42 1456.96 1430.42 Q1454.78 1430.42 1452.47 1429.98 Q1450.17 1429.56 1447.72 1428.71 L1447.72 1424.19 Q1449.66 1425.33 1451.98 1425.91 Q1454.29 1426.48 1456.82 1426.48 Q1461.22 1426.48 1463.51 1424.75 Q1465.82 1423.01 1465.82 1419.7 Q1465.82 1416.65 1463.67 1414.93 Q1461.54 1413.2 1457.72 1413.2 L1453.69 1413.2 L1453.69 1409.35 L1457.91 1409.35 Q1461.35 1409.35 1463.18 1407.99 Q1465.01 1406.6 1465.01 1404.01 Q1465.01 1401.35 1463.11 1399.93 Q1461.24 1398.5 1457.72 1398.5 Q1455.8 1398.5 1453.6 1398.91 Q1451.4 1399.33 1448.76 1400.21 L1448.76 1396.04 Q1451.42 1395.3 1453.74 1394.93 Q1456.08 1394.56 1458.14 1394.56 Q1463.46 1394.56 1466.56 1396.99 Q1469.66 1399.4 1469.66 1403.52 Q1469.66 1406.39 1468.02 1408.38 Q1466.38 1410.35 1463.34 1411.11 Z" fill="#000000" fill-rule="nonzero" fill-opacity="1" /><path clip-path="url(#clip780)" d="M1538.27 1334.35 L1526.47 1352.8 L1538.27 1352.8 L1538.27 1334.35 M1537.04 1330.28 L1542.92 1330.28 L1542.92 1352.8 L1547.85 1352.8 L1547.85 1356.69 L1542.92 1356.69 L1542.92 1364.84 L1538.27 1364.84 L1538.27 1356.69 L1522.67 1356.69 L1522.67 1352.18 L1537.04 1330.28 Z" fill="#000000" fill-rule="nonzero" fill-opacity="1" /><path clip-path="url(#clip780)" d="M1599.08 1265.37 L1617.43 1265.37 L1617.43 1269.31 L1603.36 1269.31 L1603.36 1277.78 Q1604.38 1277.43 1605.4 1277.27 Q1606.42 1277.08 1607.43 1277.08 Q1613.22 1277.08 1616.6 1280.26 Q1619.98 1283.43 1619.98 1288.84 Q1619.98 1294.42 1616.51 1297.52 Q1613.04 1300.6 1606.72 1300.6 Q1604.54 1300.6 1602.27 1300.23 Q1600.03 1299.86 1597.62 1299.12 L1597.62 1294.42 Q1599.7 1295.56 1601.92 1296.11 Q1604.15 1296.67 1606.62 1296.67 Q1610.63 1296.67 1612.97 1294.56 Q1615.3 1292.46 1615.3 1288.84 Q1615.3 1285.23 1612.97 1283.13 Q1610.63 1281.02 1606.62 1281.02 Q1604.75 1281.02 1602.87 1281.44 Q1601.02 1281.85 1599.08 1282.73 L1599.08 1265.37 Z" fill="#000000" fill-rule="nonzero" fill-opacity="1" /><path clip-path="url(#clip780)" d="M1684.91 1215.88 Q1681.76 1215.88 1679.91 1218.03 Q1678.08 1220.19 1678.08 1223.94 Q1678.08 1227.66 1679.91 1229.84 Q1681.76 1231.99 1684.91 1231.99 Q1688.05 1231.99 1689.88 1229.84 Q1691.73 1227.66 1691.73 1223.94 Q1691.73 1220.19 1689.88 1218.03 Q1688.05 1215.88 1684.91 1215.88 M1694.19 1201.23 L1694.19 1205.49 Q1692.43 1204.65 1690.62 1204.21 Q1688.84 1203.77 1687.08 1203.77 Q1682.45 1203.77 1680 1206.9 Q1677.57 1210.02 1677.22 1216.34 Q1678.59 1214.33 1680.65 1213.26 Q1682.71 1212.18 1685.18 1212.18 Q1690.39 1212.18 1693.4 1215.35 Q1696.43 1218.5 1696.43 1223.94 Q1696.43 1229.26 1693.29 1232.48 Q1690.14 1235.7 1684.91 1235.7 Q1678.91 1235.7 1675.74 1231.11 Q1672.57 1226.51 1672.57 1217.78 Q1672.57 1209.58 1676.46 1204.72 Q1680.35 1199.84 1686.9 1199.84 Q1688.66 1199.84 1690.44 1200.19 Q1692.24 1200.53 1694.19 1201.23 Z" fill="#000000" fill-rule="nonzero" fill-opacity="1" /><path clip-path="url(#clip780)" d="M1747.52 1135.56 L1769.74 1135.56 L1769.74 1137.55 L1757.19 1170.12 L1752.31 1170.12 L1764.11 1139.49 L1747.52 1139.49 L1747.52 1135.56 Z" fill="#000000" fill-rule="nonzero" fill-opacity="1" /><path clip-path="url(#clip780)" d="M1834.32 1088.8 Q1830.99 1088.8 1829.06 1090.58 Q1827.17 1092.36 1827.17 1095.49 Q1827.17 1098.61 1829.06 1100.39 Q1830.99 1102.18 1834.32 1102.18 Q1837.65 1102.18 1839.57 1100.39 Q1841.49 1098.59 1841.49 1095.49 Q1841.49 1092.36 1839.57 1090.58 Q1837.68 1088.8 1834.32 1088.8 M1829.64 1086.81 Q1826.63 1086.06 1824.94 1084 Q1823.28 1081.94 1823.28 1078.98 Q1823.28 1074.84 1826.22 1072.43 Q1829.18 1070.02 1834.32 1070.02 Q1839.48 1070.02 1842.42 1072.43 Q1845.36 1074.84 1845.36 1078.98 Q1845.36 1081.94 1843.67 1084 Q1842 1086.06 1839.02 1086.81 Q1842.4 1087.59 1844.27 1089.88 Q1846.17 1092.18 1846.17 1095.49 Q1846.17 1100.51 1843.09 1103.19 Q1840.04 1105.88 1834.32 1105.88 Q1828.6 1105.88 1825.52 1103.19 Q1822.47 1100.51 1822.47 1095.49 Q1822.47 1092.18 1824.37 1089.88 Q1826.26 1087.59 1829.64 1086.81 M1827.93 1079.42 Q1827.93 1082.11 1829.6 1083.61 Q1831.29 1085.12 1834.32 1085.12 Q1837.33 1085.12 1839.02 1083.61 Q1840.73 1082.11 1840.73 1079.42 Q1840.73 1076.74 1839.02 1075.23 Q1837.33 1073.73 1834.32 1073.73 Q1831.29 1073.73 1829.6 1075.23 Q1827.93 1076.74 1827.93 1079.42 Z" fill="#000000" fill-rule="nonzero" fill-opacity="1" /><polyline clip-path="url(#clip780)" style="stroke:#000000; stroke-linecap:round; stroke-linejoin:round; stroke-width:4; stroke-opacity:1; fill:none" points="686.728,1202.68 686.728,483.08 "/>
<polyline clip-path="url(#clip780)" style="stroke:#000000; stroke-linecap:round; stroke-linejoin:round; stroke-width:4; stroke-opacity:1; fill:none" points="686.728,1128.03 691.714,1123.71 "/>
<polyline clip-path="url(#clip780)" style="stroke:#000000; stroke-linecap:round; stroke-linejoin:round; stroke-width:4; stroke-opacity:1; fill:none" points="686.728,995.373 691.714,991.056 "/>
<polyline clip-path="url(#clip780)" style="stroke:#000000; stroke-linecap:round; stroke-linejoin:round; stroke-width:4; stroke-opacity:1; fill:none" points="686.728,862.715 691.714,858.397 "/>
<polyline clip-path="url(#clip780)" style="stroke:#000000; stroke-linecap:round; stroke-linejoin:round; stroke-width:4; stroke-opacity:1; fill:none" points="686.728,730.056 691.714,725.738 "/>
<polyline clip-path="url(#clip780)" style="stroke:#000000; stroke-linecap:round; stroke-linejoin:round; stroke-width:4; stroke-opacity:1; fill:none" points="686.728,597.397 691.714,593.08 "/>
<path clip-path="url(#clip780)" d="M601.748 1113.83 Q598.137 1113.83 596.308 1117.4 Q594.503 1120.94 594.503 1128.07 Q594.503 1135.17 596.308 1138.74 Q598.137 1142.28 601.748 1142.28 Q605.382 1142.28 607.188 1138.74 Q609.017 1135.17 609.017 1128.07 Q609.017 1120.94 607.188 1117.4 Q605.382 1113.83 601.748 1113.83 M601.748 1110.13 Q607.558 1110.13 610.614 1114.73 Q613.692 1119.32 613.692 1128.07 Q613.692 1136.79 610.614 1141.4 Q607.558 1145.98 601.748 1145.98 Q595.938 1145.98 592.859 1141.4 Q589.804 1136.79 589.804 1128.07 Q589.804 1119.32 592.859 1114.73 Q595.938 1110.13 601.748 1110.13 Z" fill="#000000" fill-rule="nonzero" fill-opacity="1" /><path clip-path="url(#clip780)" d="M621.91 1139.43 L626.794 1139.43 L626.794 1145.31 L621.91 1145.31 L621.91 1139.43 Z" fill="#000000" fill-rule="nonzero" fill-opacity="1" /><path clip-path="url(#clip780)" d="M637.026 1110.75 L655.382 1110.75 L655.382 1114.69 L641.308 1114.69 L641.308 1123.16 Q642.327 1122.81 643.345 1122.65 Q644.364 1122.46 645.382 1122.46 Q651.169 1122.46 654.549 1125.64 Q657.928 1128.81 657.928 1134.22 Q657.928 1139.8 654.456 1142.9 Q650.984 1145.98 644.664 1145.98 Q642.489 1145.98 640.22 1145.61 Q637.975 1145.24 635.567 1144.5 L635.567 1139.8 Q637.651 1140.94 639.873 1141.49 Q642.095 1142.05 644.572 1142.05 Q648.576 1142.05 650.914 1139.94 Q653.252 1137.84 653.252 1134.22 Q653.252 1130.61 650.914 1128.51 Q648.576 1126.4 644.572 1126.4 Q642.697 1126.4 640.822 1126.82 Q638.97 1127.23 637.026 1128.11 L637.026 1110.75 Z" fill="#000000" fill-rule="nonzero" fill-opacity="1" /><path clip-path="url(#clip780)" d="M591.563 1008.72 L599.202 1008.72 L599.202 982.352 L590.892 984.019 L590.892 979.76 L599.155 978.093 L603.831 978.093 L603.831 1008.72 L611.47 1008.72 L611.47 1012.65 L591.563 1012.65 L591.563 1008.72 Z" fill="#000000" fill-rule="nonzero" fill-opacity="1" /><path clip-path="url(#clip780)" d="M620.915 1006.77 L625.799 1006.77 L625.799 1012.65 L620.915 1012.65 L620.915 1006.77 Z" fill="#000000" fill-rule="nonzero" fill-opacity="1" /><path clip-path="url(#clip780)" d="M645.984 981.172 Q642.373 981.172 640.544 984.737 Q638.739 988.278 638.739 995.408 Q638.739 1002.51 640.544 1006.08 Q642.373 1009.62 645.984 1009.62 Q649.618 1009.62 651.424 1006.08 Q653.252 1002.51 653.252 995.408 Q653.252 988.278 651.424 984.737 Q649.618 981.172 645.984 981.172 M645.984 977.468 Q651.794 977.468 654.85 982.075 Q657.928 986.658 657.928 995.408 Q657.928 1004.13 654.85 1008.74 Q651.794 1013.32 645.984 1013.32 Q640.174 1013.32 637.095 1008.74 Q634.04 1004.13 634.04 995.408 Q634.04 986.658 637.095 982.075 Q640.174 977.468 645.984 977.468 Z" fill="#000000" fill-rule="nonzero" fill-opacity="1" /><path clip-path="url(#clip780)" d="M592.558 876.059 L600.197 876.059 L600.197 849.694 L591.887 851.36 L591.887 847.101 L600.151 845.435 L604.827 845.435 L604.827 876.059 L612.466 876.059 L612.466 879.995 L592.558 879.995 L592.558 876.059 Z" fill="#000000" fill-rule="nonzero" fill-opacity="1" /><path clip-path="url(#clip780)" d="M621.91 874.115 L626.794 874.115 L626.794 879.995 L621.91 879.995 L621.91 874.115 Z" fill="#000000" fill-rule="nonzero" fill-opacity="1" /><path clip-path="url(#clip780)" d="M637.026 845.435 L655.382 845.435 L655.382 849.37 L641.308 849.37 L641.308 857.842 Q642.327 857.495 643.345 857.333 Q644.364 857.147 645.382 857.147 Q651.169 857.147 654.549 860.319 Q657.928 863.49 657.928 868.907 Q657.928 874.485 654.456 877.587 Q650.984 880.666 644.664 880.666 Q642.489 880.666 640.22 880.295 Q637.975 879.925 635.567 879.184 L635.567 874.485 Q637.651 875.62 639.873 876.175 Q642.095 876.731 644.572 876.731 Q648.576 876.731 650.914 874.624 Q653.252 872.518 653.252 868.907 Q653.252 865.296 650.914 863.189 Q648.576 861.083 644.572 861.083 Q642.697 861.083 640.822 861.499 Q638.97 861.916 637.026 862.796 L637.026 845.435 Z" fill="#000000" fill-rule="nonzero" fill-opacity="1" /><path clip-path="url(#clip780)" d="M594.78 743.401 L611.1 743.401 L611.1 747.336 L589.156 747.336 L589.156 743.401 Q591.818 740.646 596.401 736.017 Q601.007 731.364 602.188 730.021 Q604.433 727.498 605.313 725.762 Q606.216 724.003 606.216 722.313 Q606.216 719.558 604.271 717.822 Q602.35 716.086 599.248 716.086 Q597.049 716.086 594.595 716.85 Q592.165 717.614 589.387 719.165 L589.387 714.443 Q592.211 713.308 594.665 712.73 Q597.118 712.151 599.155 712.151 Q604.526 712.151 607.72 714.836 Q610.915 717.521 610.915 722.012 Q610.915 724.142 610.104 726.063 Q609.317 727.961 607.211 730.554 Q606.632 731.225 603.53 734.442 Q600.429 737.637 594.78 743.401 Z" fill="#000000" fill-rule="nonzero" fill-opacity="1" /><path clip-path="url(#clip780)" d="M620.915 741.456 L625.799 741.456 L625.799 747.336 L620.915 747.336 L620.915 741.456 Z" fill="#000000" fill-rule="nonzero" fill-opacity="1" /><path clip-path="url(#clip780)" d="M645.984 715.855 Q642.373 715.855 640.544 719.419 Q638.739 722.961 638.739 730.091 Q638.739 737.197 640.544 740.762 Q642.373 744.304 645.984 744.304 Q649.618 744.304 651.424 740.762 Q653.252 737.197 653.252 730.091 Q653.252 722.961 651.424 719.419 Q649.618 715.855 645.984 715.855 M645.984 712.151 Q651.794 712.151 654.85 716.757 Q657.928 721.341 657.928 730.091 Q657.928 738.817 654.85 743.424 Q651.794 748.007 645.984 748.007 Q640.174 748.007 637.095 743.424 Q634.04 738.817 634.04 730.091 Q634.04 721.341 637.095 716.757 Q640.174 712.151 645.984 712.151 Z" fill="#000000" fill-rule="nonzero" fill-opacity="1" /><path clip-path="url(#clip780)" d="M595.776 610.742 L612.095 610.742 L612.095 614.677 L590.151 614.677 L590.151 610.742 Q592.813 607.987 597.396 603.358 Q602.003 598.705 603.183 597.363 Q605.429 594.839 606.308 593.103 Q607.211 591.344 607.211 589.654 Q607.211 586.9 605.267 585.164 Q603.345 583.427 600.243 583.427 Q598.044 583.427 595.591 584.191 Q593.16 584.955 590.382 586.506 L590.382 581.784 Q593.206 580.65 595.66 580.071 Q598.114 579.492 600.151 579.492 Q605.521 579.492 608.716 582.177 Q611.91 584.863 611.91 589.353 Q611.91 591.483 611.1 593.404 Q610.313 595.302 608.206 597.895 Q607.628 598.566 604.526 601.784 Q601.424 604.978 595.776 610.742 Z" fill="#000000" fill-rule="nonzero" fill-opacity="1" /><path clip-path="url(#clip780)" d="M621.91 608.798 L626.794 608.798 L626.794 614.677 L621.91 614.677 L621.91 608.798 Z" fill="#000000" fill-rule="nonzero" fill-opacity="1" /><path clip-path="url(#clip780)" d="M637.026 580.117 L655.382 580.117 L655.382 584.052 L641.308 584.052 L641.308 592.525 Q642.327 592.177 643.345 592.015 Q644.364 591.83 645.382 591.83 Q651.169 591.83 654.549 595.001 Q657.928 598.173 657.928 603.589 Q657.928 609.168 654.456 612.27 Q650.984 615.349 644.664 615.349 Q642.489 615.349 640.22 614.978 Q637.975 614.608 635.567 613.867 L635.567 609.168 Q637.651 610.302 639.873 610.858 Q642.095 611.413 644.572 611.413 Q648.576 611.413 650.914 609.307 Q653.252 607.2 653.252 603.589 Q653.252 599.978 650.914 597.872 Q648.576 595.765 644.572 595.765 Q642.697 595.765 640.822 596.182 Q638.97 596.599 637.026 597.478 L637.026 580.117 Z" fill="#000000" fill-rule="nonzero" fill-opacity="1" /><polyline clip-path="url(#clip782)" style="stroke:#009af9; stroke-linecap:round; stroke-linejoin:round; stroke-width:4; stroke-opacity:1; fill:none" points="1124.79,925.173 1112.19,931.486 1106.12,934.584 1102.81,936.377 1103.02,936.503 1090.9,942.609 1084.63,945.988 1081.42,947.955 1074.18,951.883 1068.64,955.137 1070.14,955.089 1077.25,952.269 1072.95,955.001 1073.56,955.433 1081.55,952.369 1070.46,958.514 1057.26,965.812 1036.98,976.753 1044.25,975.042 1032.67,982.028 1025.82,987.102 1035.38,984.432 1019.89,993.448 1000.34,1004.72 993.222,1010.58 1033.52,993.797 1071.51,975.98 1082.28,969.102 1152.27,931.589 1181.77,908.67 1217.91,882.418 1253.02,855.615 1167.3,895.456 1176.08,892.914 1212.88,870.595 1157.66,899.893 1128.42,921.39 1016.61,989.688 1020.5,992.728 980.371,1020.38 974.975,1024.03 1039.43,995.444 1100.45,963.26 1033.17,991.821 994.727,1015.69 966.286,1032.38 959.354,1041.81 950.998,1047.58 1015.61,1010.77 1026.39,999.194 1103.04,954.39 1125.42,942.31 1150.71,924.86 1202.65,877.761 1250.15,843.085 1272.7,819.628 1362.71,756.306 1381.41,732.045 1496.73,642.625 1491.33,633.546 1467.92,646.082 1454.1,669.693 1532.58,611.872 1529.51,619.749 1520.44,615.733 1378.52,733.112 1322.12,771.829 1421.61,712.849 1397.43,710.522 1333.53,754.626 1251.13,820.958 1302.61,803.244 1211.14,862.033 1272.7,829.237 1260.77,832.565 1237.8,850.027 1201.28,876.94 1224.47,867.514 1204.65,872.426 1151.13,915.204 1158.79,910.793 1127.9,935.962 1120.96,942.258 1132.94,927.185 1226.27,860.769 1270.86,829.722 1250.22,822.589 1179.67,874.651 1248.43,838.179 1243.53,844.803 1265.77,823.623 1291.33,819.07 1331.85,782.578 1368.76,753.13 1404.02,716.461 1432.93,677.971 1353.26,735.461 1294.94,783.303 1343.1,759.185 1418.01,701.415 1394.59,715.39 1348.26,757.917 1232.99,840.629 1254.81,821.084 1336.31,772.545 1442.19,668.48 1392.91,698.244 1385.37,710.466 1364.95,732.07 1277.61,794.292 1317.76,767.659 1344.04,763.208 1341.93,758.611 1268.11,803.821 1308.11,784.831 1347.2,748.581 1374.7,737.152 1424.61,694.378 1408.22,694.387 1322.9,763.695 1361.02,738.747 1416.86,698.04 1378.83,723.649 1434.41,683.073 1335.69,766.141 1366.57,742.289 1294.62,789.543 1247.34,821.147 1238.72,827.443 1298.55,794.216 1373.46,730.093 1364.72,736.577 1268.04,808.107 1270.92,813.983 1321.85,782.801 1385.56,739.767 1441.24,697.369 1507.9,641.951 1534.12,610.547 1554,586.751 1535.59,592.759 1489.01,622.155 1471.1,623.084 1387.79,693.415 1371.8,722.363 1283.36,789.704 1282.33,801.766 1253.78,825.668 1252.7,829.921 1162.15,885.406 1125.58,922.859 1082.2,951.209 1126.42,927.785 1097.31,948.05 1160.55,906.95 1109.43,931.201 1173.13,901.016 1232.95,856.345 1227.85,862.241 1156.44,896.174 1314.36,804.067 1306.81,798.188 1275.72,809.773 1291.21,807.504 1205.18,874.223 1147.96,910.889 1166.59,899.233 1187.23,891.428 1202.06,866.764 1221.85,851.32 1163.44,881.212 1179.73,888.794 1263.4,835.3 1336.78,775.943 1487.82,668.777 1474.49,653.752 1506.65,622.984 1451.88,657.449 1387.75,706.897 1437,685.534 1537.48,614.614 1423.9,700.073 1344.65,740.226 1282.34,799.907 1322.98,779.333 1322.63,780.455 1326.43,779.508 1272.34,802.376 1200.82,859.222 1140.83,902.867 1122.67,921.676 1105.12,930.754 1045.3,973.085 1081.91,961.568 1074.11,967.732 1175.79,908.779 1193.2,889.905 1207.66,877.701 1231.7,859.019 1229.56,847.47 1168.59,880.817 1234.07,842.576 1267.16,823.639 1277.39,810.91 1248.3,836.01 1381.74,740.118 1441.6,694.712 1318.86,764.389 1363.71,743.455 1400.89,720.301 1428.65,675.416 1501.38,631.507 1598.67,551.636 1601.37,545.27 1354.67,725.21 1439.86,675.175 1431.07,683.576 1471.77,662.173 1400.27,697.828 1411.39,692.564 1394.38,707.702 1237.57,822.372 1207.11,850.079 1133.77,907.517 1202.63,881.053 1296.92,819.449 1348.28,770.719 1247.8,831.098 1245.08,837.923 1302.96,803.432 1314.61,787.386 1275.42,806.03 1207.13,854.929 1216.58,853.638 1126.11,910.845 1115.8,924.273 1115.2,930.628 1112.89,934.611 1102.52,939.931 1123.37,931.069 1124.96,927.419 1117.55,930.686 1135.22,919.445 1106.71,933.697 1128.06,919.688 1055.65,970.874 956.029,1033.2 952.622,1040.77 973.694,1028.36 964.764,1040.47 958.809,1046.7 972.971,1039.15 949.681,1050.16 939.976,1054.07 973.041,1036.88 1054.17,991.219 1076.81,968.918 1038.58,993.245 1068.31,981.773 1067.55,978.396 1051.95,980.908 1090.95,954.08 1045.58,985.005 1121.79,943.066 1140.03,923.087 1162.77,905.531 1253.24,837.56 1235.11,840.172 1270.2,822.756 1219.5,868.802 1243.45,847.264 1238.56,846.92 1263.2,827.542 1367.85,742.788 1483.26,679.277 1575.76,587.676 1558.02,578.105 1510.01,608.35 1498.56,621.206 1375.61,698.286 1310.78,757.799 1341.71,749.71 1322.61,765.344 1251.11,814.05 1302.81,793.779 1336.07,780.612 1344.83,771.62 1353.91,752.899 1345.84,746.403 1269.87,805.401 1161.37,875.398 1120.68,910.002 1142.29,908.718 1179.97,889.806 1162.36,899.909 1161.18,901.326 1233.36,855.352 1273.49,821.908 1367.61,756.576 1457.17,672.001 1429.45,686.533 1396.63,696.142 1307.38,767.144 1307.33,780.613 1239.04,833.254 1239.79,842.602 1271.59,816.232 1284.95,805.027 1201.87,865.696 1250.63,838.52 1231.3,843.214 1323.54,776.327 1300.22,783.05 1177.97,870.835 1180.59,876.285 1196.6,875.036 1246.08,849.88 1220.27,860.663 1356.73,779.781 1433.75,711.307 1529.79,632.872 1468.24,654.055 1441.89,667.371 1549.88,591.075 1666.3,489.94 1667.48,474.854 1638.52,484.652 1482.13,606.554 1483.61,620.41 1411.94,679.494 1422.07,678.266 1397.77,698.047 1421.36,697.81 1334.23,754.556 1271.87,802.934 1168.11,876.727 1193.01,874.294 1180.64,884.849 1186.82,880.533 1187.75,883.782 1259.23,836.839 1149.35,897.297 1188.09,886.497 1229.26,857.772 1178.92,886.109 1096.93,937.317 1193.12,889.091 1158.18,907.666 1120.2,930.219 1117.5,934.072 1129.51,916.975 1169.55,893.053 1199.27,877.554 1185.12,883.441 1333.6,775.555 1301.33,797.329 1302.31,800.308 1218.19,861.947 1213.4,860.012 1185.2,879.116 1286.76,830.098 1199.66,892.696 1362.82,778.855 1421.1,719.701 1424.92,700.269 1365.57,739.694 1403.56,716.109 1447.33,667.001 1347,731.054 1300.61,774.937 1279.89,800.442 1330.12,774.445 1408,718.004 1466.95,671.128 1447.36,679.89 1411.01,695.374 1308.73,770.08 1348.93,750.422 1404,716.656 1328.17,771.377 1337.72,748.771 1260.68,816.745 1229.66,842.769 1174.16,876.562 1128.32,918.473 1067.93,958.615 1068.14,967.236 1010.07,998.475 1050.42,984.788 1034.98,990.9 1026.82,992.493 992.318,1017.48 1001.63,1011.15 1031.47,990.759 1091.54,957.948 1087.7,951.692 1125.18,930.932 1145.7,925.507 1194.37,886.766 1224.31,861.071 1178.61,888.618 1309.43,802.839 1268.33,818.813 1284.02,815.827 1266.38,817.21 1201.34,859.853 1199.11,865.926 1151.85,895.491 1141.44,892.3 1294.25,796.13 1205.2,867.416 1292.27,797.727 1313.45,787.061 1278.37,808.476 1255.78,827.577 1377.31,742.566 1318.58,769.616 1225.44,839.121 1198.76,864.037 1199.53,885.723 1096.96,948.321 1053.84,977.011 1236.46,876.81 1294.83,818.343 1282.73,817.782 1375.69,747.136 1453.29,682.071 1437.81,679.773 1450.31,656.222 1512.48,622.253 1464.22,643.625 1459.92,664.32 1446.37,668.429 1405.82,708.715 1416.66,705.54 1339.82,756.344 1275.41,796.711 1387.98,725.987 1318.14,773.394 1236.68,834.97 1268.91,819.184 1303.55,795.161 1237.98,839.049 1246.63,837.241 1250.74,824.69 1235.6,846.168 1196.04,874.295 1357.62,760.222 1371.84,749.796 1431.09,689.946 1547.64,607.894 1614.33,538.568 1644.1,508.324 1651.5,480.51 1580.38,531.963 1660.37,478.216 1720.31,421.457 1693.8,436.121 1592.55,504.229 1519.32,570.093 1415.34,657.236 1399.25,684.223 1323.36,743.529 1310.06,761.628 1243.18,816.017 1226.79,834.128 1171.37,875.098 1166.35,886.791 1157.84,900.561 1092.76,942.648 1075.01,956.711 1037.48,981.527 987.743,1014.18 1039.84,993.161 1017.97,1004.29 993.383,1019.95 1044.26,991.372 1092.67,961.462 1078.93,962.044 1102.8,938.996 1071.13,966.71 1093.86,953.315 1130.15,919.469 1155.65,901.07 1077.67,953.407 1089.17,946.249 1141.31,918.475 1046.03,972.548 1021.25,991.864 1021.48,990.166 1027.4,987.607 1078.42,967.785 1184.67,891.73 1203.82,879.229 1252.16,827.085 1278.99,808.91 1445.25,694.032 1407.83,704.464 1428.81,697.753 1398.08,706.283 1313.91,772.378 1267.27,806.136 1215.69,842.503 1192.04,865.989 1127.52,920.18 1161.18,909.936 1250.15,852.358 1385.24,760.597 1469.36,682.916 1538.63,624.809 1486.39,636.239 1425.07,673.997 1403.67,688.706 1431.45,675.946 1400.93,703.271 1432.98,676.995 1477.82,652.364 1432.51,676.462 1487.18,645.532 1372.21,726.934 1362.59,740.42 1452.22,681.154 1301.83,790.616 1314.6,787.432 1297.15,794.358 1189.17,875.878 1162.51,898.817 1170.65,898.121 1208.97,872.161 1162.95,903.422 1182.29,883.004 1084.54,956.112 1162.57,913.435 1063.1,970.765 1036.81,991.506 1076.05,967.979 1124.3,938.009 1081.92,955.121 1096.87,948.376 1205.93,889.335 1293.08,819.434 1337.35,777.903 1307.01,787.262 1220.74,846.131 1309.65,800.088 1366.82,760.933 1389.55,721.17 1367.28,732.644 1426.21,695.28 1519.7,629.42 1500.4,631.433 1420.96,682.591 1322.93,750.452 1301.75,786.057 1396.34,731.138 1351.12,753.368 1329.82,766.95 1278.45,800.056 1190.84,868.168 1240.03,849.992 1226.22,862.657 1273.39,833.749 1252.2,828.922 1335.34,775.852 1329.72,779.769 1326.71,768.305 1324.28,770.868 1343.62,760.35 1448.07,689.439 1503.34,634.529 1548.07,596.246 1560.77,570.597 1589.95,545.139 1544.95,572.892 1582.31,544.257 1545.16,566.552 1527.89,579.018 1502.92,609.151 1587.84,551.943 1581.65,549.909 1559.42,558.174 1601.83,526.643 1591.58,533.141 1587.41,536.172 1490.21,600.918 1474.03,625.947 1407.74,681.604 1398.26,699.218 1465.21,667.145 1437.9,680.411 1419.64,689.478 1320.37,764.049 1346.26,752.025 1278.86,795.227 1283.93,805.663 1325.23,785.292 1460.28,687.022 1518.46,636.749 1446.16,673.458 1387.3,713.938 1361.61,735.519 1440.75,683.276 1417.73,687.295 1368.81,724.261 1370.44,728.37 1387.93,715.793 1402.3,710.338 1432.19,680.572 1498.25,646.202 1567.2,579.79 1578.56,557.402 1514.29,597.9 1376.25,694.821 1298.4,764.191 1237.84,817.711 1261.19,817.808 1260.99,820.15 1259.96,824.129 1196.57,865.466 1225.75,852.782 1184.8,875.423 1228.09,847.436 1233.36,849.312 1245.72,840.591 1193.5,874.594 1162.6,906.168 1109.7,932.536 1090.34,954.667 1114.31,939.219 1109.53,939.063 1073.12,970.039 1172.4,904.171 1157.7,902.447 1147.45,912.128 1208.55,882.175 1225.24,857.942 1251.24,845.783 1343.93,772.665 1357.48,757.051 1335.64,764.291 1326.41,775.855 1272.64,814.365 1315.8,783.12 1243.79,831.425 1249.46,833.112 1220.93,859.762 1425.33,722.035 1608.15,580.457 1624.08,535.063 1588.49,534.707 1597.65,519.77 1701.14,445.065 1531.68,561.462 1531.55,568.63 1540.42,571.01 1553.35,570.113 1524.77,603.934 1466.7,642.406 1417.47,680.997 1400.29,704.029 1411.28,698.648 1400.61,714.639 1432.5,692.914 1398.87,697.775 1337.67,740.736 1385.26,724.946 1352.98,744.273 1294.84,788.579 1278.33,807.133 1333.63,767.386 1376.54,738.168 1326.84,772.372 1348.44,763.47 1219.59,849.877 1265.64,820.482 1300.73,792.308 1309.83,795.084 1261.32,812.498 1349.32,761.425 1299.41,788.374 1406.8,723.443 1387.19,737.849 1231.62,849.809 1156.83,897.571 1204.62,869.262 1153,914.388 1118.4,933.17 1120.71,933.473 1122.63,934.107 1122.44,933.206 1161.2,902.659 1289.03,815.563 1282.31,810.736 1384.17,724.959 1336.7,777.834 1347.2,758.448 1471.26,642.601 1494.15,623.025 1379.82,707.336 1346.72,745.92 1291.42,786.625 1318.94,778.948 1372.11,750.016 1406.43,704.417 1321.6,762.172 1314.73,767.883 1362.64,742.76 1289.63,791.344 1247.36,825.187 1259.07,823.651 1300.01,792.431 1320.44,774.152 1424.28,689.707 1346.25,741.521 1320.46,758.92 1275.07,806.464 1360.76,757.022 1326.88,773.099 1469.8,668.001 1505.44,628.851 1522.9,606.981 1567.62,576.72 1622.71,517.215 1508.24,601.56 1532.22,598.395 1465,644.591 1438.67,669.066 1543.13,598.805 1653.42,512.826 1594.96,536.081 1526.4,589.391 1488.61,613.466 1493.35,623.952 1455.5,652.092 1366.67,721.346 1336.27,751.784 1334.5,762.672 1365.23,751.652 1255.6,823.452 1382.97,746.825 1471.01,677.631 1417.75,702.514 1393.7,717.885 1440.93,687.983 1413.83,695.333 1317.54,764.845 1368.55,727.067 1388.65,720.255 1295.68,780.689 1326.02,768.504 1339.69,762.144 1337.63,762.109 1295.5,805.308 1285.37,808.54 1252.06,839.563 1281.5,812.907 1200.79,863.987 1245,839.008 1216.54,862.059 1279.41,829.424 1300.07,808.711 1305.95,797.051 1312.25,783.28 1410.84,726.205 1418.02,705.004 1439.29,682.308 1487.04,640.891 1347.1,747.921 1380.94,727.965 1332.85,768.168 1291.01,795.68 1237.76,836.662 1256.61,836.074 1158.13,900.199 1144.37,909.843 1165.04,901.443 1102.37,946.044 1105.79,941.312 1110.54,937.887 1132.59,929.736 1182.65,890.05 1222,861.421 1224.25,854.358 1241.52,836.759 1189.68,876.231 1281.34,805.6 1455.84,679.437 1468.72,666.91 1591.77,575.979 1617.94,523.224 1513.54,597.145 1499.1,625.566 1425.44,684.908 1430.81,687.171 1365.11,728.096 1308.45,779.102 1282.64,797.178 1226.34,835.724 1221.93,841.221 1251.98,827.892 1311.31,793.729 1289.26,801.977 1226.11,839.066 1266.37,810.907 1289.73,794.78 1278.23,792.052 1246.17,821.202 1280.36,808.599 1312.13,789.514 1372.84,753.146 1284.21,803.863 1220.63,846.003 1219.53,847.117 1173.81,895.147 1145.79,909.994 1152.42,907.526 1166.62,900.446 1120.1,932.796 1120.32,933.692 1204.57,882.193 1177.68,886.038 1203.39,871.037 1128.57,915.291 1103.71,936.596 1056.07,972.967 996.587,1014.53 1037.41,994.038 961.059,1036.97 956.542,1044.18 965.98,1039.55 1132.6,945.312 1131.51,928.728 1121.66,929.509 1102.29,944.501 1095.57,945.522 1014.92,996.055 1068.19,965.506 1077.93,963.024 1084.17,961.962 1130.33,931.755 1155.12,906.489 1148.68,908.597 1266.05,822.584 1304.66,804.34 1214.88,858.997 1296.6,810.189 1398.34,719.602 1426.3,693.77 1378.56,718.177 1374.07,724.277 1320.34,759.233 1302.19,788.574 1430.22,699.739 1213.17,855.594 1237.56,845.687 1230.4,856.427 1309.1,796.51 1297.98,799.454 1400.6,719.757 1307.54,777.943 1289.34,803.956 1331,772.239 1290.1,797.238 1163.49,883.835 1143.68,900.706 1236.7,853.319 1244.34,841.991 1181.02,880.91 1148.85,903.712 1156.85,900.032 1143.21,909.741 1123.54,926.768 1145.92,912.245 1192.8,882.832 1244.8,856.498 1132.36,914.959 1210.57,863.351 1209.98,858.575 1098.57,932.017 1088.24,946.001 1033.94,980.636 1178.47,889.722 1246.64,838.266 1350.5,765.273 1406.98,717.475 1354.85,743.623 1316.89,772.878 1411.41,712.239 1372.84,747.395 1257.05,840.005 1269.07,834.016 1163.42,903.954 1244.6,843.063 1125.71,919.357 1292.78,820.792 1313.32,799.315 1235.21,847.613 1344.3,763.68 1485.68,666.182 1502.84,642.315 1472.16,644.1 1528.64,604.476 1534.13,591.445 1494.87,618.267 1498.03,621.122 1388.04,713.719 1348.29,749.38 1285.37,799.1 1282.72,805.747 1224.33,841.112 1212.47,854.426 1231.62,851.955 1175.26,890.904 1150.27,909.369 1123.77,925.093 1171.94,888.195 1210.03,858.983 1163.56,904.743 1206.56,882.911 1270.79,821.517 1391.29,737.298 1336.42,768.23 1265.15,817.592 1306.16,790.1 1254.67,830.163 1203.14,868.807 1115.22,930.901 1045.54,978.332 977.418,1024.41 959.387,1037.46 977.511,1032.76 975.31,1033.89 980.575,1030.31 983.026,1024.59 1034.43,997.623 1004.85,1007.43 1019.41,1002.65 1117.71,934.628 1120.48,936.297 1150.44,910.888 1088.17,949.79 1092.99,950.95 1131.7,925.077 1136.65,919.507 1179.39,889.567 1159.79,902.604 1084.63,960.209 1171.39,906.627 1118.44,939.809 1195.23,887.242 1323.16,801.8 1294.33,805.664 1373.82,748.579 1377.52,734.854 1333.02,768.953 1322.57,774.507 1450,670.746 1495.3,637.567 1447.55,670.109 1463.41,649.558 1354.09,735.858 1250.48,817.38 1226.07,843.61 1279.3,821.958 1251.64,836.473 1243.01,845.883 1305.4,808.649 1211.95,864.693 1251,843.559 1293.05,809.358 1350.93,756.675 1382.34,727.989 1297.76,793.496 1272.66,808.964 1360.62,747.249 1451.52,668.993 1453.42,665.492 1480.49,640.317 1496.17,622.194 1495.11,627.099 1478.18,636.501 1432.15,662.446 1451.42,662.307 1404.24,695.647 1597.6,555.583 1613.26,499.719 1530.48,576.119 1551.52,576.955 1500.7,609.993 1591.63,552.158 1477.59,638.001 1481.82,628.743 1381.67,697.573 1340.56,736.866 1332.26,756.587 1382.9,725.774 1350.78,755.903 1357.3,747.559 1360.08,741.764 1350.14,748.586 1385.1,727.685 1346.44,755.851 1369.99,745.796 1403.11,715.294 1348.83,751.028 1326.48,772.345 1270.97,811.693 1310.99,778.576 1281.14,794.938 1247.82,826.476 1234.43,838.753 1190.65,868.575 1255.34,822.948 1277.87,812.399 1276.61,811.419 1317.5,762.141 1229.91,835.666 1197.25,861.062 1278.81,818.826 1410.06,721.864 1502.64,644.598 1511.06,617.909 1525.93,610.792 1592.86,554.884 1477.94,636.546 1436.82,675.702 1427.93,689.645 1471.85,660.411 1421.83,690.963 1417.9,699.45 1440.29,684.933 1487.71,643.822 1339.66,753.634 1271.4,799.717 1244.55,825.213 1284.98,806.512 1258.95,829.36 1131.92,921.204 1103.11,941.005 1168.95,904.938 1284.82,819.157 1257.42,829.524 1259.22,825.282 1281.11,806.469 1263.48,817.238 1177,885.533 1289.47,826.526 1268.83,820.889 1342.92,778.279 1408.69,729.291 1363.83,745.703 1392.34,728.905 1381.52,729.349 1408.35,707.957 1445.74,677.255 1413.85,690.362 1317.46,756.612 1258.09,808.693 1273.16,809.308 1227.04,845.07 1194.31,869.961 1163.22,894.498 1142.73,915.045 1062.04,961.334 1097.38,953.097 1056.45,977.011 1087.65,956.14 1122.7,938.163 1154.65,915.739 1149.91,918.208 1038.26,985.747 1075.52,971.43 1086.76,968.083 1108.98,945.27 1123.53,933.257 1054.5,977.576 1067.97,965.251 1052.85,974.992 1141.6,920.96 1138.82,925.887 983.41,1028.09 1030.32,1000.55 1038.82,996.624 1140.44,933.054 1141.96,931.21 1095.79,952.5 1030.92,998.694 1073.31,969.395 959.223,1037.49 927.537,1057.5 860.973,1087.4 876.469,1089.17 852.018,1104.06 883.928,1090.28 947.575,1056.99 958.561,1044.81 958.974,1043.52 924.124,1063.61 868.979,1089.36 881.963,1091.29 830.463,1118.25 842.927,1108.77 822.572,1121.42 831.309,1118.42 803.884,1132.39 783.823,1146.82 769.454,1151.86 834.472,1123.41 875.871,1101.31 882.829,1094.65 889.71,1087.56 912.826,1077.52 900.895,1078.96 908.273,1076.22 959.243,1047.9 943.184,1047.27 1018.77,1014.12 1056.81,982.694 1058.83,978.799 1060.64,976.135 1155.25,923.122 1192.72,884.693 1186.59,886.757 1220.39,866.186 1329.66,791.894 1293.91,806.421 1254.19,829.148 1217.14,851.211 1227.25,838.366 1230.46,837.75 1289.97,780.701 1275.95,796.13 1250.77,821.963 1217.77,848.876 1118.82,920.447 1163.22,904.228 1184.35,893.324 1179.7,892.644 1126.61,919.197 1002.71,994.316 977.926,1018.84 986.526,1020.83 1023.91,1001.62 1045.9,986.082 1042.39,992.345 1048.22,981.737 1019.63,992.588 1037.4,990.216 1056.37,975.063 1062.07,968.748 1001.56,1008.15 1033.83,995.434 1096.05,962.943 1163.32,920.695 1169.58,911.738 1184.75,887.27 1210.64,866.276 1203.36,866.361 1274.8,811.441 1210.62,859.356 1194.54,876.417 1232.66,835.974 1230.71,849.642 1228.51,850.083 1260.59,831.127 1321.18,760.839 1208.8,846.618 1205.88,849.65 1203.2,858.277 1205.11,864.733 1070.59,956.955 1105.17,940.642 1060.97,963.57 1027.89,980.799 1030.85,994.412 1067.1,974.989 1064.36,971.982 1100.42,946.725 1119.69,936.27 1053.95,972.538 1077.21,962.011 1205.38,885.048 1282.1,824.995 1219.76,859.572 1190.94,862.811 1106.44,927.646 1141.89,912.112 1117.33,930.97 1138.06,923.72 1130.44,929.285 1186.05,874.502 1306.5,802.359 1272.02,817.011 1237.42,828.198 1238.89,833.234 1172.7,880.38 1179.37,882.024 1294.24,811.486 1270.6,820.974 1128.96,906.763 1147.26,900.283 1191.81,880.695 1094.88,950.126 1104.88,948.861 1150.41,900.592 1221.91,868.395 1131.63,926.861 1175.31,901.538 1170.87,905.036 1151.73,910.371 1177.4,890.923 1287.64,821.589 1324.61,769.543 1344.88,751.717 1361.14,753.522 1320.3,788.006 1395.42,707.596 1377.88,721.936 1456.38,669.535 1426.57,688.153 1400.37,701.154 1505.06,609.768 1612.62,533.249 1495.66,618.769 1594.09,567.49 1461.48,645.731 1530.59,600.183 1515.09,600.149 1603.26,534.89 1556.66,580.403 1572.08,562.865 1501.3,623.419 1597.08,550.472 1525.25,600.374 1445.96,658.587 1467.59,650.938 1483.5,646.806 1500.77,627.318 1611.08,538.909 1644.41,502.816 1597.43,534.274 1501.78,602.032 1473.02,625.033 1469.45,645.237 1402.19,694.364 1397.64,711.913 1373.35,729.282 1342.71,759.283 1338.64,764.843 1330.39,776.881 1349.69,766.213 1353.41,756.039 1307.4,786.88 1257.13,828.789 1283.98,812.255 1283.69,809.477 1175.22,882.891 1240.94,855.608 1330.29,794.248 1315.18,799.035 1363.9,763.643 1416.16,708.934 1365.67,731.389 1409.3,700.288 1538.66,606.893 1418.64,682.574 1350.66,726.248 1291.27,785.193 1338.52,757.534 1425.14,709.275 1379.47,736.111 1369.22,736.134 1310.17,788.646 1314.23,785.861 1269.18,814.305 1243.41,838.539 1211.8,858.343 1203.08,861.646 1193.77,868.151 1214.94,864.777 1220.21,850.735 1106.45,927.393 1078.04,950.559 1140.6,916.151 1144.64,914.062 1180.83,893.181 1164.01,902.87 1201.82,852.866 1211.59,853.087 1314.07,792.034 1383.64,737.238 1381.41,739.272 1435.98,677.805 1403.3,695.59 1473.62,648.711 1427.2,674.513 1360.48,722.065 1287.42,783.096 1396.96,728.564 1381.32,727.029 1461.07,677.533 1516.88,625.364 1542.32,592.979 1380.31,701.407 1356.91,737.2 1324.76,767.031 1353.5,756.669 1366.28,747.253 1293.08,795.775 1293.02,793.098 1287.9,803.902 1240.46,838.339 1183.04,879.514 1177.86,890.929 1132.38,918.427 1143.11,910.726 1055.78,967 1037.67,982.64 1143.72,930.619 1112.31,936.853 1164.54,909.822 1192.91,886.452 1171.71,894.141 1238.77,848.893 1191.39,867.013 1172.59,888.091 1219.51,855.908 1265.52,817.337 1405.7,727.946 1331.35,786.554 1188.94,878.839 1181.7,882.603 1273.38,819.715 1277.07,817.381 1285.69,794.122 1373.83,726.723 1223.1,836.098 1203.95,848.544 1165.56,886.998 1184.98,882.961 1130.75,918.17 1100.36,944.546 1039.52,986.195 1093.42,960.355 1081.95,965.831 1067.71,969.842 1034.02,992.545 1086,964.379 1087.17,957.71 1020.74,990.726 1096.41,951.178 1141.14,915.441 1162.32,903.735 1085.18,954.373 1166.6,907.753 1238.54,844.63 1211,869.967 1271.11,829.894 1346.53,778.233 1349.82,749.489 1409.39,708.832 1350.9,748.914 1336.08,752.76 1277.49,800.061 1209.1,849.246 1258.46,828.445 1230.78,847.052 1294.54,800.657 1324.18,770.288 1287.33,798.9 1247.21,823.775 1219.22,858.612 1197.11,873.104 1205.71,862.894 1257.95,836.02 1188.8,883.732 1179.23,894.042 1195.02,891.56 1270.57,825.981 1266.41,833.316 1281.53,799.57 1238.42,829.065 1310.55,786.991 1413.4,715.171 1268.61,801.591 1327.52,777.041 1242.31,827.526 1246.71,828.545 1280.04,810.852 1301.13,797.129 1247.64,837.425 1184.26,878.234 1293.28,811.267 1214.48,859.574 1212.66,862.245 1263.95,829.254 1377.84,743.409 1397.75,723.589 1288.42,796.182 1212.25,853.878 1211.07,860.265 1181.12,881.1 1182.97,875.592 1087.2,941.572 1095.11,946.134 1081.02,960.962 1143.21,929.241 1178.44,901.538 1235.5,858.318 1323.35,787.763 1307.71,785.899 1324.76,768.539 1386.34,724.109 1291.68,783.983 1402.82,700.569 1367.41,734.4 1370.7,743.583 1392.44,730.601 1344.47,755.443 1347.8,743.505 1375.13,712.992 1424.74,652.737 1444.3,669.506 1452.5,662.852 1445.32,663.549 1324.19,742.065 1291.98,784.94 1278.13,802.504 1247.85,825.522 1169.98,878.725 1183.5,879.346 1166.41,898.137 1100.04,948.899 1089.56,955.559 1188.66,898.45 1177.23,897.985 1197.88,882.607 1218.96,852.323 1194.55,868.64 1226.95,857.734 1249.96,836.409 1296.79,802.139 1274.33,824.54 1297.26,797.016 1357.15,756.149 1371.68,740.775 1411.78,713.93 1414.21,710.789 1385.43,723.844 1376.7,730.685 1293.75,806.814 1307.13,800.493 1229.91,855.37 1216.65,854.655 1135.63,911.069 1109.88,931.802 1135.91,921.18 1227.26,857.218 1126.32,919.633 1099.05,944.256 1045.36,982.453 1081.6,963.626 1101.64,952.276 1182.97,894.499 1195.48,881.592 1174.64,894.145 1156.86,910.065 1250.21,845.908 1257.78,839.982 1198.47,883.211 1163.95,905.969 1161.11,905.427 1223.55,845.771 1251.89,816.952 1216.64,838.44 1250,829.011 1387.5,732.819 1294.86,790.333 1253.88,813.935 1222.02,853.023 1304.12,807.861 1278.76,812.263 1316.51,789.975 1238.59,837.491 1182.89,876.644 1175.28,886.748 1231.63,856.555 1208.22,863.911 1206.24,867.25 1192.74,876.148 1148.73,898.903 1131.87,914.28 1186.36,884.382 1193.36,877.291 1239.76,842.151 1220.25,846.989 1182.21,876.641 1051.29,970.504 1074.29,960.265 1152.2,917.34 1163.83,900.894 1125.73,919.072 1198.43,883.52 1190,881.679 1168.8,893.422 1200.64,884.88 1138.9,921.051 1118.51,939.98 1052.87,976.948 995.523,1014.42 948.402,1046.97 899.036,1068.79 928.628,1062.75 933.062,1062.52 923.921,1068.74 944.242,1056.75 973.801,1037.41 1017.99,1010.96 954.888,1044.36 859.054,1100.09 860.688,1103.03 857.355,1105.8 904.521,1084.81 993.266,1027.39 938.845,1053.49 1008.3,1018.63 1064.67,980.757 1129.75,936.778 1178.98,893.885 1157.85,906.591 1146.59,912.267 1122.67,928.413 1174.8,893.276 1292,806.895 1356.96,760.286 1295.42,798.415 1302.15,785.963 1253.67,827.635 1325.16,787.55 1273.16,822.114 1288.19,802.138 1293.9,800.16 1408.62,708.488 1442.34,682.29 1382.94,717.059 1309.24,768.633 1265.34,802.794 1201.75,850.865 1188.17,867.984 1135.23,907.219 1096.48,934.867 1074.15,955.125 994.629,1002.63 899.883,1060.76 855.869,1092.27 870.012,1090.82 866.068,1097.88 893.545,1083.86 927.496,1065 943.166,1055.92 1028.76,1010 1052.77,989.661 1129.73,944.202 1152.35,921.694 1089.62,951.92 1065.57,966.401 1141.74,926.11 1180.13,894.659 1131.67,918.399 1165.49,896.376 1192.14,886.829 1160.38,897.722 1248.28,845.134 1288.04,812.95 1289.44,797.309 1422.61,707.597 1301.22,796.112 1224.09,845.72 1165.07,898.233 1140.24,918.041 1113.48,933.665 1143.05,918.065 1095.61,955.212 1053.08,985.011 1097,950.334 1142.64,925.303 1190.58,897.545 1226.99,871.377 1235.54,850.358 1250.09,838.267 1425.56,707.93 1257.31,808.66 1194.03,858.915 1207.59,860.773 1218.83,854.979 1267.97,823.055 1312.69,797.172 1440.45,697.867 1377.91,730.191 1407.89,711.917 1387.19,718.731 1369.45,728.72 1388.74,725.411 1479.59,655.772 1430.04,679.013 1405.77,698.299 1364.39,723.592 1312.42,775.627 1343.79,761.648 1347.38,758.756 1389.76,733.261 1228.94,842.151 1286.93,808.995 1299.55,797.89 1375.13,739.141 1363.79,749.283 1323.52,774.271 1237.8,839.757 1239.49,839.599 1200.74,866.763 1252.05,837.254 1271.78,823.854 1273.02,819.867 1285.72,807.182 1225.72,848.461 1178.69,883.818 1154.09,903.594 1170.73,891.559 1180.4,887.628 1199.83,870.819 1147.95,915.821 1219.5,851.713 1331.98,766.583 1323.06,781.679 1347.75,762.149 1458.63,681.092 1408.22,700.757 1305.1,780.391 1370.65,738.381 1419.25,715.071 1423.42,697.462 1499.4,631.618 1495.21,638.295 1416.99,699.89 1356.98,755.114 1404.75,728.901 1377.49,727.398 1451.37,671.806 1544.38,591.385 1451.97,659.453 1453.04,670.281 1496.77,629.689 1584.17,559.119 1706.38,446.406 1682.93,459.64 1770.97,371.549 1789.67,356.967 1769.97,363.998 1711.66,404.283 1668.08,439.175 1628.33,481.14 1596.05,519.432 1623.45,509.967 1601.56,527.469 1613.25,524.048 1557.43,566.994 1491.95,616.358 1583.32,566.322 1544.1,589.692 1577.23,566.824 1544.06,577.544 1485.2,624.308 1328.57,738.876 1276.76,780.932 1262.45,807.184 1311.93,789.632 1226.96,838.501 1241.35,835.632 1206.95,860.815 1117.68,916.618 1102.33,935.981 1117.76,931.982 1106.14,939.776 1075.94,960.67 1097.96,954.079 1076.72,967.25 1019.18,997.392 1048.58,983.456 1053.52,986.685 1081.13,966.796 1053.54,974.674 1006.8,1007.77 1051.88,985.325 1138.51,924.398 1121.03,933.058 1163.86,905.601 1172.2,898.655 1159.37,900.313 1154.6,908.07 1173.94,892.738 1262.49,829.799 1372.78,748.804 1379.56,742.996 1476.69,662.072 1413.75,701.809 1421.01,691.595 1332.31,762.635 1379.16,729.307 1366.92,729.972 1379.67,717.975 1278.81,797.824 1381.79,745.118 1316.18,776.319 1291.68,803.396 1313.18,798.354 1352.31,759.525 1200.49,851.17 1212,860.879 1190.3,876.681 1154,903.308 1175.13,894.59 1161.95,902.818 1167,895.167 1270.79,835.318 1257.47,837.746 1194.77,873.978 1108.62,914.727 1166.67,883.916 1224.93,851.266 1205.15,881.378 1218.83,848.335 1202.17,861.199 1234.65,854.517 1215.93,874.338 1216.14,865.943 1206.08,871.942 1167.08,901.107 1225.41,856.386 1206.02,870.951 1273.75,815.276 1302.32,794.357 1415.84,715.188 1505.23,635.715 1492.53,637.933 1487.25,633.184 1432.24,661.03 1367.66,725.494 1350.76,741.425 1371.73,723.196 1434.28,688.145 1379.18,721.434 1348.06,749.007 1363.31,740.833 1339.06,750.773 1410.59,706.2 1374.35,738.472 1315.07,775.366 1220.34,852.726 1183.38,880.504 1176.12,901.621 1153.65,911.31 1117.84,931.708 1076.59,960.514 1143.47,912.962 1133.57,922.299 1124.19,929.497 1094.02,948.763 1117.78,927.205 1058.2,972.592 969.469,1026.39 1009,1008.89 992.896,1023.87 1033.08,995.925 1013.07,1007.59 1038.6,993.573 1077.73,968.634 1126.58,933.392 1002.4,1009.52 1094.64,960.372 1053.86,983.727 1026.06,984.94 1026.95,989.275 1020.47,1000.32 1118.66,932.749 1134.26,922.78 1164.5,897.365 1200.57,885.79 1212.52,876.276 1167.54,891.641 1172.97,891.15 1251.82,834.797 1244.52,836.284 1254.97,838.413 1198.66,871.012 1334.33,773.15 1458.52,685.477 1429.31,688.873 1469.23,651.891 1567.1,579.417 1449.72,664.644 1495.93,630.312 1482.29,633.522 1609.75,525.317 1545.03,581.175 1557.94,578.513 1470.65,651.103 1316.51,762.217 1244.92,820.273 1238.75,833.514 1268.6,826.246 1231.71,850.108 1263.27,829.227 1310.17,796.432 1280.49,809.805 1253.28,828.221 1209.28,868.167 1280.22,824.506 1244.53,837.21 1169.53,894.52 1135.53,914.991 1188.67,887.825 1173.22,897.585 1110.58,935.109 943.751,1042.75 965.057,1037.99 1053.88,993.21 1067.42,973.855 1005.51,1005.28 1038.61,991.409 1100.94,950.774 1117.98,942.091 1148.63,917.603 1145.4,920.729 1140.5,921.461 1202.41,875.106 1178.96,889.435 1232.27,849.069 1271.76,821.163 1354.22,770.839 1414.06,704.421 1393.82,710.381 1388.68,713.735 1433.89,688.61 1409.22,696.085 1393.35,707.821 1498.07,633.239 1513.72,615.7 1448.55,675.502 1423.41,686.502 1438.39,678.002 1421.39,690.797 1300.06,773.665 1342.39,751.319 1451.54,671.762 1439.5,668.868 1454.59,677.992 1429.25,686.201 1420.89,690.594 1374.56,745.655 1283.42,800.232 1253.36,823.779 1214.82,861.237 1163.97,893.738 1186.69,885.868 1216.39,853.996 1265.15,826.026 1245.77,828.226 1235,832.499 1114.9,913.756 1157.62,899.398 1182.46,886.676 1146.5,909.008 1135.18,919.286 1125.87,927.717 1157.29,910.721 1121.77,931.92 1196.58,897.682 1036.18,990.002 1034.92,993.914 989.213,1024.9 955.438,1044.19 933.604,1057.98 868.577,1095.34 854.329,1104.33 841.429,1107.65 832.34,1115.28 802.468,1134.27 825.224,1123.31 770.797,1150.71 758.829,1158.84 752.431,1161.67 762.163,1158.19 725.486,1173.37 718.853,1178.01 781.319,1150.84 887.221,1100.05 887.294,1092.56 906.414,1080.07 931.139,1067.17 906.292,1078.34 863.483,1097.39 851.214,1104.99 874.765,1096.65 875.767,1095.83 900.877,1082.67 892.115,1082.07 929.072,1063.36 960.76,1042.54 992.395,1028.71 1097.2,961.993 1173.12,908.497 1177.54,900.589 1152.53,910.02 1121.95,928.778 1084.21,947.932 1083.52,954.673 1022.76,993.267 1094.52,952.837 1092.43,950.745 1211.81,876.891 1086.28,961.714 1133.58,926.763 1248.68,845.034 1261.12,831.43 1237.02,838.742 1232.61,847.739 1223.08,857.812 1129.76,922.156 1095.91,948.726 1162.87,925.388 1160.09,904.658 1206.42,874.273 1175.72,894.376 1149.23,916.468 1200.59,877.146 1196.27,868.581 1170.8,891.753 1079.02,958.946 1128.79,930.401 1037.12,989.19 1026.45,998.45 978.923,1023.17 962.401,1034.49 922.22,1063.11 960.698,1046.76 981.658,1025.43 1021.28,1001.12 1055.55,981.868 1158.79,921.447 1186.17,894.28 1185.11,887.726 1215.26,865.087 1409.18,733.383 1388.14,725.293 1419.35,696.376 1450.33,665.861 1483.48,622.284 1478.42,640.545 1621.92,538.852 1485.11,629.512 1461.04,656.485 1390.26,709.292 1363.94,733.718 1364.56,734.257 1320.89,774.147 1277.64,812.965 1217.31,851.692 1289.36,809.019 1259.95,820.918 1287.99,809.989 1274.61,813.67 1383.74,723.945 1388.1,717.552 1398.82,709.02 1326.18,758.32 1327.53,770.816 1193.12,857.693 1214.93,857.173 1129.48,907.798 1215.57,863.087 1352.86,765.434 1293.36,791.641 1270.55,808.362 1276.21,815.769 1271.04,813.421 1221.94,848.613 1274.95,812.793 1358.35,755.661 1317.07,775.984 1320.56,778.287 1372.99,744.536 1407.13,703.3 1568.49,587.862 1376.89,727.848 1320.03,768.096 1358.04,740.153 1368.58,710.797 1349.83,729.861 1372.9,723.391 1268.58,803.628 1207.02,854.41 1136.58,902.455 1156.99,907.456 1192.02,881.432 1302.88,812.959 1233.53,842.452 1254.84,812.588 1309.93,788.74 1326.59,774.553 1220.4,849.269 1274.38,815.131 1320.32,773.223 1311.13,779.809 1260.5,836.92 1245.42,842.285 1271.01,821.968 1355.84,760.933 1338.6,765.547 1413.01,714.732 1453.12,672.922 1502.36,636.894 1551.73,582.456 1470.67,622.407 1511.95,598.375 1467.07,639.798 1383.63,695.965 1353.69,736.742 1383.77,720.4 1335.9,753.902 1336.22,758.3 1308.08,779.969 1369.92,745.242 1284.28,802.704 1353.4,753.179 1346.97,753.845 1372.72,735.495 1370.23,746.052 1240.65,833.115 1319.03,784.902 1308.05,771.735 1301.62,785.259 1213.84,858.247 1342.23,779.743 1302.66,785.644 1329.21,768.621 1317.8,770.904 1454.02,664.008 1480.73,647.389 1471.3,644.728 1428.2,670.513 1508.8,615.304 1476.82,642.541 1353.03,726.575 1323.22,753.102 1360.55,738.712 1335.56,769.16 1308.13,783.262 1253.45,818.756 1207.65,859.692 1225.03,856.836 1255.31,832.806 1285.16,813.027 1260.53,814.663 1218.31,849.651 1269.42,822.814 1349.37,778.047 1302.36,799.065 1286.84,794.683 1214.55,847.521 1142.18,905.387 1134.84,919.099 1138.97,925.665 1209.82,885.534 1276.64,825.435 1341.92,783.25 1451.05,695.917 1424.53,697.019 1397.57,705.484 1384.59,713.644 1469.51,658.319 1470.36,640.545 1311.52,759.214 1299.84,781.405 1331.74,761.774 1305.89,786.995 1353.02,752.903 1301.7,783.553 1295.08,799.526 1286.12,799.253 1309.38,787.318 1252.54,823.992 1238.76,839.234 1280.76,807.025 1175.18,878 1189.87,875.626 1174.85,882.579 1075.74,951.739 1129.06,929.986 1120.23,936.995 1175.44,908.901 1266.68,836.297 1238.07,844.796 1288.74,812.608 1321.06,787.109 1295.55,795.325 1351.89,765.843 1374.17,734.162 1426.52,699.026 1364.47,737.617 1376.36,726.075 1363.03,733.012 1417.21,705.971 1274.74,798.684 1395.45,724.846 1424.63,686.038 1397.11,708.546 1341.6,750.835 1439.2,688.664 1509.14,643.855 1347.01,745.183 1204.28,848.059 1248.13,838.887 1209.67,864.426 1167.36,891.258 1169.84,896.188 1186.05,894.189 1149.98,923.262 1306.46,810.417 1263.1,827.053 1355.59,756.289 1271.61,811.288 1276.57,811.494 1274.44,812.402 1328.61,777.809 1405.67,724.295 1400.98,711.453 1443.16,674.255 1458.29,669.263 1530.06,604.94 1535,588.301 1551.06,568.381 1498.34,602.858 1416.11,667.772 1324.45,743.903 1352.02,742.408 1390.42,728.89 1488.53,664.124 1546.09,603.423 1412.35,685.464 1354.78,738.445 1296.98,781.328 1291.2,793.736 1321.79,779.927 1294.44,794.165 1261.91,814.004 1141.88,893.825 1180.65,886.687 1295.93,821.771 1349.2,771.595 1340.44,767.784 1407.5,731.37 1364.9,745.346 1358.86,746.219 1338.48,756.219 1345.8,752.106 1305.1,780.23 1314.84,777.655 1362.89,749.58 1327.03,776.174 1250.89,828.917 1299.03,793.64 1365.69,745.929 1409.99,715.86 1476.96,643.112 1431.78,668.04 1393.08,709.601 1377.69,723.9 1345.93,748.02 1554.47,611.214 1498.76,626.656 1464.89,649.54 1416.43,703.001 1470.54,664.248 1464.25,662.275 1481.39,648.102 1470.14,663.788 1490.95,635.55 1481.3,645.55 1419.03,688.628 1377.69,727.614 1327.75,761.311 1395.88,713.743 1377.29,722.055 1299.99,778.8 1206.21,849.634 1165.52,879.765 1179.04,884.349 1193.66,876.623 1149.18,908.157 1131.08,922.759 1038.99,980.155 1121.42,941.963 1160.51,913.388 1130.35,927.997 1073.21,960.704 1005.33,999.626 975.391,1019.07 973.562,1029.92 963.025,1039.02 967.84,1038.44 996.368,1020.71 951.003,1042.33 1065.13,981.443 1030.59,995.176 1022.6,994.783 945.626,1042.93 983.397,1028.88 1120.9,951.617 1117.15,939.742 1082.98,957.526 1041.65,984.617 993.725,1013.78 1079.49,971.482 1056.03,986.946 972.507,1032.82 958.886,1042.45 1024.26,1004.91 1045.27,987.391 1108.82,952.246 1039.63,988.797 1078.67,960.906 1060.83,960.71 1127.67,921.121 1210.47,881.307 1250.89,847.802 1362.8,752.906 1400.73,718.828 1392.43,718.959 1263.1,816.281 1353.61,767.948 1299.99,811.768 1258.85,835.901 1099.07,932.455 1003.14,996.664 967.725,1027.9 1038.98,996.306 1053.41,978.025 1094.96,958.139 1090.97,962.558 1113.29,945.602 1132.41,930.505 1263.28,851.224 1251.33,842.91 1342.58,778.619 1308,788.663 1322.53,774.417 1384.6,733.14 1515.03,619.661 1518.02,606.07 1486.25,631.148 1500.06,614.225 1571.07,573.801 1433.96,676.245 1494.16,632.022 1391.35,701.536 1314.05,754.349 1284.54,790.101 1202.33,853.522 1281.22,813.225 1304.06,801.33 1334.22,778.336 1345.54,762.5 1365.38,740.218 1322.66,754.953 1350.94,740.012 1356.87,733.105 1395.45,702.918 1300.8,783.742 1237.11,828.637 1223.04,839.678 1165.7,891.865 1159.53,895.826 1191.36,879.011 1238.09,842.737 1263.74,823.343 1283.32,808.819 1222.85,845.448 1180.79,872.291 1175.02,878.533 1146.94,906.525 1160.58,906.078 1207.44,877.331 1278.48,819.254 1347.53,772.545 1398.57,725.332 1423.97,700.502 1283.29,788.078 1166.89,876.237 1225.98,854.267 1134.35,907.81 1110.39,929.644 1089.26,950.757 1055.69,973.153 1099.87,953.599 1120.45,938.717 1144.02,923.292 1138.26,917.686 1192.86,880.892 1162.59,892.274 1226.51,851.377 1190.86,880.192 1186.14,887.039 1179.64,885.905 1019.08,995.375 977.258,1016.86 992.462,1012.36 1026.78,988.95 971.565,1024.19 983.686,1024.53 938.053,1053.38 976.035,1026.28 967.869,1033.33 960.92,1043.71 953.608,1043.03 969.934,1033.88 995.683,1025.05 942.272,1050.41 937.826,1050.18 969.87,1033.99 977.906,1024.82 939.27,1050.45 986.19,1027.14 1021.31,1003.21 1033.74,991.437 1068.21,969.224 1059.72,982.632 1091.27,963.733 1123.45,930.374 1280.82,825.56 1278.02,817.044 1218.43,849.62 1386.85,732.217 1383.88,724.75 1450.89,675.57 1580.99,568.567 1384.46,701.196 1355.72,733.031 1346.68,750.1 1385.08,726.548 1378.67,731.676 1334.79,765.017 1389.18,734.784 1325.06,767.494 1424.92,677.673 1387.8,704.463 1366.45,726.949 1391.12,710.788 1430.79,683.388 1464.44,658.053 1391.27,711.746 1294.86,792.834 1321.76,782.388 1349.7,760.809 1413.11,713.585 1393.76,707.347 1452.41,665.38 1436.59,655.675 1414.46,694.467 1441.52,675.716 1475.6,653.459 1574.63,573.945 1491.43,622.86 1550.19,589.894 1614.08,522.705 1646.38,488.872 1516.72,590.827 1324.32,731.642 1328.6,745.028 1319.25,766.908 1330.36,766.905 1331.44,769.806 1321.94,775.891 1294.55,796.755 1341.17,764.355 1338.29,768.283 1385.21,729.26 1367.45,744.113 1251.71,824.175 1179.49,871.266 1135.73,911.61 1098.21,939.198 1147.39,913.694 1097.7,933.244 1073.59,961.082 1131.46,930.346 1177.78,901.865 1142.82,918.56 1201.18,878.361 1161.3,899.473 1209.18,868.872 1240.17,845.15 1348.58,757.302 1343.89,758.923 1323.58,784.318 1245.16,830.881 1233.07,827.162 1174.16,880.969 1137.3,907.201 1147,911.828 1124.41,919.735 1114.49,934.951 1195.89,889.993 1131.54,921.833 1200.02,877.599 1246.52,839.214 1290.32,814.99 1192.41,870.969 1295.22,814.059 1257.91,830.319 1280.54,814.886 1313.44,786.615 1339.09,764.007 1278.16,809.536 1222.07,851.501 1150.9,893.291 1163.08,886.129 1188.09,852.465 1239.59,826.282 1251.06,840.385 1303.51,809.414 1340.89,774.173 1341.68,761.204 1276.52,808.517 1216.2,856.246 1192.22,873.522 1118.29,924.442 1140.45,909.375 1118.19,926.324 1204.9,870.551 1026.03,991.053 1058.34,974.426 1040.85,986.966 990.678,1019.47 969.817,1032.41 973.521,1026.61 1063.44,976.335 1087.45,962.129 1064.68,974.245 1049.17,979.972 1158.28,912.413 1086.91,957.028 1154.09,918.096 1150.89,921.384 1296.01,824.899 1341.15,777.747 1357.04,751.29 1429.48,688.474 1500.01,628.491 1336.37,740.55 1224.94,821.826 1189.48,860.031 1216.95,850.9 1233.37,846.938 1200.06,868.112 1131.81,915.749 1163,904.177 1262.65,842.898 1230.03,858.954 1185.81,884.168 1183.43,877.828 1162.13,897.651 1202.51,879.913 1263.72,821.368 1371.79,748.105 1425.69,700.989 1389,712.601 1339.68,749.391 1379.76,735.514 1281.93,803.378 1286.52,800.613 1364.66,750.16 1386.69,761.712 1452.13,688.895 1590.37,574.035 1549.87,588.542 1566.29,561.777 1455.9,636.639 1484.12,634.637 1437.36,665.262 1473.22,643.616 1452.58,655.629 1524.32,604.651 1452.73,656.507 1461,641.776 1392.61,704.56 1398.56,712.868 1467.44,659.725 1387.44,723.339 1395.11,717.451 1388.38,725.333 1386.15,723.498 1383.71,733.476 1418.33,702.207 1367.11,735.269 1314.86,770.318 1251.3,820.034 1321.39,782.626 1342.11,770.579 1370.99,733.422 1327.98,759.87 1358.98,747.193 1364.24,737.317 1346.25,756.498 1252.83,817.779 1193.89,866.209 1203.19,875.167 1216.27,868.215 1192.86,886.612 1098.06,949.234 1021.36,995.897 1062.09,978.936 1115.43,947.502 1230.58,871.54 1158.98,902.797 1256.25,837.992 1298.12,803.516 1193.27,871.411 1092.36,944.321 1047.93,976.913 1051.3,978.597 1013.38,1002.03 1055.7,978.351 1105.92,942.254 982.223,1014.25 1069.61,968.285 1115.03,941.242 1128.71,930.928 1100.77,943.767 1124.64,934.213 1266.88,854.656 1056.65,988.998 1100.4,956.634 1021.38,1000.99 1047.39,986.991 1133.32,945.193 1175.06,907.828 1231.6,853.425 1179.8,883.711 1200.64,873.491 1231.76,850.196 1275.49,820.268 1282.37,814.026 1227.53,845.368 1277.5,803.8 1312.11,791.037 1336.71,766.998 1346.8,762.891 1289.71,802.149 1151.52,903.49 1172.59,891.056 1194.22,882.14 1216.08,867.203 1196.62,868.912 1167.81,892.76 1174.71,884.194 1264.82,824.909 1229.65,858.55 1255.71,828.105 1167.76,879.4 1212.66,861.947 1202.81,860.032 1279.57,819.057 1303.09,783.075 1418.76,713.065 1450.67,682.798 1389.23,720.37 1287,800.282 1317.94,771.986 1347.78,753.683 1373.67,729.783 1319.41,774.884 1247.11,827.085 1283.46,805.302 1375.7,745.366 1437.07,696.741 1507.48,636.275 1526.76,609.776 1460.62,658.754 1397.5,700.099 1385.63,701.092 1336.35,746.059 1290.06,779.208 1232.82,834.544 1233.46,838.221 1284.54,809.999 1253.7,826.757 1259.78,827.559 1174.28,875.69 1161.29,889.233 1230.12,850.353 1163.97,898.395 1239.25,856.707 1307.84,801.706 1303.51,794.172 1339.58,771.304 1372.08,743.876 1303.72,778.61 1412.22,718.955 1462.23,674.675 1443.28,676.426 1443.76,664.092 1457.52,652.364 1502.42,616.07 1447.37,657.055 1507.26,620.141 1561.85,577.209 1459.7,649.385 1510.18,619.429 1552.31,578.384 1572.54,552.25 1534.9,583.412 1599.33,543.046 1545.53,586.147 1536.43,586.042 1516.5,597.546 1560.05,566.656 1639.19,506.277 1580.31,553.446 1530.72,584.816 1502,612.552 1428.66,668.185 1522.61,624.828 1505.25,632.186 1542.16,608.783 1597.34,559.115 1526.01,596.687 1450.73,653.366 1399.98,700.132 1348.81,735.627 1374.24,733.551 1269.81,807.069 1253.07,827.047 1242.71,837.272 1312.38,785.695 1286.18,809.722 1235.3,840.64 1321.55,786.549 1375.11,733.868 1495.33,646.887 1473.52,659.761 1436.6,677.762 1429.76,696.206 1364.73,743.629 1303.05,785.942 1257.27,828.249 1265.23,825.016 1338.97,768.998 1266.29,815.454 1215.52,852.497 1166.35,889.256 1139.3,900.175 1113.59,922.976 1132.1,918.222 1221.74,866.909 1377.37,751.18 1265.32,813.844 1235.64,836.836 1292.14,813.354 1257.27,832.704 1215.7,856.548 1233.29,839.812 1265.65,826.423 1379.41,749.024 1352.22,752.309 1378.08,729.076 1290.26,798.642 1313.53,778.95 1421.58,710.15 1435.79,699.462 1403.51,721.12 1268.66,824.549 1282.29,815.671 1348.91,765.617 1357.74,759.2 1311.53,796.786 1303.29,806.766 1289.71,805.109 1274.88,831.279 1259.75,848.762 1309.7,802.291 1267.97,829.769 1310.05,794.388 1244.23,832.662 1215.01,849.54 1236.16,841.359 1226.16,845.039 1230.62,841.959 1204.84,858.627 1279.29,814.151 1318.92,777.142 1321.99,772.568 1391.61,728.373 1294.24,796.716 1217.38,849.608 1169.61,888.918 1160.29,896.957 1217.6,861.623 1178.87,887.757 1125.08,924.129 1072.47,964.807 1116.92,940.31 1249.73,857.439 1348.35,775.067 1451.41,698.256 1433.52,696.097 1449.5,660.205 1545.55,584.589 1627.7,506.47 1527.52,579.998 1563.61,556.414 1611.49,514.743 1520.42,591.376 1545.08,582.459 1371.77,708.194 1311.38,760.715 1278.75,792.728 1236.95,829.491 1203.1,860.49 1210.63,864.416 1210.92,860.526 1189.14,876.852 1219.36,862.274 1213.22,865.949 1257.16,840.327 1214.58,859.91 1238.92,847.254 1210.35,856.752 1284.2,809.035 1217.15,840.107 1192.11,860.786 1131.55,912.654 1195.87,880.567 1215.3,863.658 1252.52,834.924 1331.06,767.095 1344.14,760.212 1345.37,768.397 1281.78,803.467 1217.17,848.584 1259.91,813.59 1191.36,858.442 1167.83,873.496 1138.54,907.158 1159.42,897.606 1321.3,798.335 1341.28,772.148 1454.79,684.87 1451.78,676.094 1543.22,599.431 1622.05,506.472 1665.34,468.924 1675.73,451.071 1693.13,434.667 1596.95,509.376 1564.22,542.353 1492.92,598.854 1425.06,661.536 1427.97,674.36 1441.91,674.741 1424.61,685.516 1415.12,701.504 1365.54,734.254 1405.52,711.175 1451.08,674.928 1468.79,653.657 1419.12,686.519 1396.97,712.254 1381.97,722.965 1294.4,783.497 1388.1,728.565 1309.79,775.783 1261.81,814.579 1278.65,804.594 1318.82,788.626 1237.84,839.96 1278.32,817.177 1265.54,830.655 1264.57,835.355 1166.7,893.761 1158.73,898.041 1146.38,906.175 1211.59,867.291 1176.06,889.171 1156.93,897.871 1170.19,878.637 1094.29,938.531 1194.65,882.873 1216.34,872.771 1164.12,918.388 1179.46,891.28 1222.38,859.788 1220.71,849.876 1113.88,929.055 1127.97,924.543 "/>
<path clip-path="url(#clip780)" d="M228.998 198.898 L588.673 198.898 L588.673 95.2176 L228.998 95.2176  Z" fill="#ffffff" fill-rule="evenodd" fill-opacity="1"/>
<polyline clip-path="url(#clip780)" style="stroke:#000000; stroke-linecap:round; stroke-linejoin:round; stroke-width:4; stroke-opacity:1; fill:none" points="228.998,198.898 588.673,198.898 588.673,95.2176 228.998,95.2176 228.998,198.898 "/>
<polyline clip-path="url(#clip780)" style="stroke:#009af9; stroke-linecap:round; stroke-linejoin:round; stroke-width:4; stroke-opacity:1; fill:none" points="253.409,147.058 399.875,147.058 "/>
<path clip-path="url(#clip780)" d="M434.911 128.366 Q431.809 133.69 430.305 138.898 Q428.8 144.106 428.8 149.453 Q428.8 154.801 430.305 160.055 Q431.832 165.287 434.911 170.588 L431.207 170.588 Q427.735 165.148 425.999 159.893 Q424.286 154.639 424.286 149.453 Q424.286 144.291 425.999 139.06 Q427.712 133.828 431.207 128.366 L434.911 128.366 Z" fill="#000000" fill-rule="nonzero" fill-opacity="1" /><path clip-path="url(#clip780)" d="M464.726 138.412 L455.351 151.027 L465.212 164.338 L460.189 164.338 L452.642 154.152 L445.096 164.338 L440.073 164.338 L450.142 150.773 L440.929 138.412 L445.953 138.412 L452.828 147.648 L459.703 138.412 L464.726 138.412 Z" fill="#000000" fill-rule="nonzero" fill-opacity="1" /><path clip-path="url(#clip780)" d="M472.318 158.458 L477.202 158.458 L477.202 162.439 L473.406 169.847 L470.42 169.847 L472.318 162.439 L472.318 158.458 Z" fill="#000000" fill-rule="nonzero" fill-opacity="1" /><path clip-path="url(#clip780)" d="M497.087 166.745 Q495.281 171.375 493.568 172.787 Q491.855 174.199 488.985 174.199 L485.582 174.199 L485.582 170.634 L488.082 170.634 Q489.841 170.634 490.813 169.8 Q491.786 168.967 492.966 165.865 L493.73 163.921 L483.244 138.412 L487.758 138.412 L495.86 158.689 L503.962 138.412 L508.475 138.412 L497.087 166.745 Z" fill="#000000" fill-rule="nonzero" fill-opacity="1" /><path clip-path="url(#clip780)" d="M515.443 158.458 L520.327 158.458 L520.327 162.439 L516.531 169.847 L513.545 169.847 L515.443 162.439 L515.443 158.458 Z" fill="#000000" fill-rule="nonzero" fill-opacity="1" /><path clip-path="url(#clip780)" d="M527.573 138.412 L547.804 138.412 L547.804 142.301 L531.785 160.935 L547.804 160.935 L547.804 164.338 L526.994 164.338 L526.994 160.449 L543.012 141.815 L527.573 141.815 L527.573 138.412 Z" fill="#000000" fill-rule="nonzero" fill-opacity="1" /><path clip-path="url(#clip780)" d="M553.637 128.366 L557.341 128.366 Q560.813 133.828 562.526 139.06 Q564.262 144.291 564.262 149.453 Q564.262 154.639 562.526 159.893 Q560.813 165.148 557.341 170.588 L553.637 170.588 Q556.716 165.287 558.22 160.055 Q559.748 154.801 559.748 149.453 Q559.748 144.106 558.22 138.898 Q556.716 133.69 553.637 128.366 Z" fill="#000000" fill-rule="nonzero" fill-opacity="1" /></svg>
