<?xml version="1.0" encoding="utf-8"?>
<svg xmlns="http://www.w3.org/2000/svg" xmlns:xlink="http://www.w3.org/1999/xlink" width="600" height="400" viewBox="0 0 2400 1600">
<defs>
  <clipPath id="clip200">
    <rect x="0" y="0" width="2400" height="1600"/>
  </clipPath>
</defs>
<path clip-path="url(#clip200)" d="M0 1600 L2400 1600 L2400 0 L0 0  Z" fill="#ffffff" fill-rule="evenodd" fill-opacity="1"/>
<defs>
  <clipPath id="clip201">
    <rect x="480" y="0" width="1681" height="1600"/>
  </clipPath>
</defs>
<path clip-path="url(#clip200)" d="M148.057 1423.18 L2352.76 1423.18 L2352.76 47.2441 L148.057 47.2441  Z" fill="#ffffff" fill-rule="evenodd" fill-opacity="1"/>
<defs>
  <clipPath id="clip202">
    <rect x="148" y="47" width="2206" height="1377"/>
  </clipPath>
</defs>
<polyline clip-path="url(#clip202)" style="stroke:#000000; stroke-linecap:round; stroke-linejoin:round; stroke-width:2; stroke-opacity:0.1; fill:none" points="148.057,1423.18 148.057,47.2441 "/>
<polyline clip-path="url(#clip202)" style="stroke:#000000; stroke-linecap:round; stroke-linejoin:round; stroke-width:2; stroke-opacity:0.1; fill:none" points="588.996,1423.18 588.996,47.2441 "/>
<polyline clip-path="url(#clip202)" style="stroke:#000000; stroke-linecap:round; stroke-linejoin:round; stroke-width:2; stroke-opacity:0.1; fill:none" points="1029.94,1423.18 1029.94,47.2441 "/>
<polyline clip-path="url(#clip202)" style="stroke:#000000; stroke-linecap:round; stroke-linejoin:round; stroke-width:2; stroke-opacity:0.1; fill:none" points="1470.88,1423.18 1470.88,47.2441 "/>
<polyline clip-path="url(#clip202)" style="stroke:#000000; stroke-linecap:round; stroke-linejoin:round; stroke-width:2; stroke-opacity:0.1; fill:none" points="1911.82,1423.18 1911.82,47.2441 "/>
<polyline clip-path="url(#clip202)" style="stroke:#000000; stroke-linecap:round; stroke-linejoin:round; stroke-width:2; stroke-opacity:0.1; fill:none" points="2352.76,1423.18 2352.76,47.2441 "/>
<polyline clip-path="url(#clip202)" style="stroke:#000000; stroke-linecap:round; stroke-linejoin:round; stroke-width:2; stroke-opacity:0.1; fill:none" points="148.057,1235.92 2352.76,1235.92 "/>
<polyline clip-path="url(#clip202)" style="stroke:#000000; stroke-linecap:round; stroke-linejoin:round; stroke-width:2; stroke-opacity:0.1; fill:none" points="148.057,992.498 2352.76,992.498 "/>
<polyline clip-path="url(#clip202)" style="stroke:#000000; stroke-linecap:round; stroke-linejoin:round; stroke-width:2; stroke-opacity:0.1; fill:none" points="148.057,749.073 2352.76,749.073 "/>
<polyline clip-path="url(#clip202)" style="stroke:#000000; stroke-linecap:round; stroke-linejoin:round; stroke-width:2; stroke-opacity:0.1; fill:none" points="148.057,505.649 2352.76,505.649 "/>
<polyline clip-path="url(#clip202)" style="stroke:#000000; stroke-linecap:round; stroke-linejoin:round; stroke-width:2; stroke-opacity:0.1; fill:none" points="148.057,262.224 2352.76,262.224 "/>
<polyline clip-path="url(#clip200)" style="stroke:#000000; stroke-linecap:round; stroke-linejoin:round; stroke-width:4; stroke-opacity:1; fill:none" points="148.057,1423.18 2352.76,1423.18 "/>
<polyline clip-path="url(#clip200)" style="stroke:#000000; stroke-linecap:round; stroke-linejoin:round; stroke-width:4; stroke-opacity:1; fill:none" points="148.057,1423.18 148.057,1404.28 "/>
<polyline clip-path="url(#clip200)" style="stroke:#000000; stroke-linecap:round; stroke-linejoin:round; stroke-width:4; stroke-opacity:1; fill:none" points="588.996,1423.18 588.996,1404.28 "/>
<polyline clip-path="url(#clip200)" style="stroke:#000000; stroke-linecap:round; stroke-linejoin:round; stroke-width:4; stroke-opacity:1; fill:none" points="1029.94,1423.18 1029.94,1404.28 "/>
<polyline clip-path="url(#clip200)" style="stroke:#000000; stroke-linecap:round; stroke-linejoin:round; stroke-width:4; stroke-opacity:1; fill:none" points="1470.88,1423.18 1470.88,1404.28 "/>
<polyline clip-path="url(#clip200)" style="stroke:#000000; stroke-linecap:round; stroke-linejoin:round; stroke-width:4; stroke-opacity:1; fill:none" points="1911.82,1423.18 1911.82,1404.28 "/>
<polyline clip-path="url(#clip200)" style="stroke:#000000; stroke-linecap:round; stroke-linejoin:round; stroke-width:4; stroke-opacity:1; fill:none" points="2352.76,1423.18 2352.76,1404.28 "/>
<path clip-path="url(#clip200)" d="M148.057 1454.1 Q144.446 1454.1 142.617 1457.66 Q140.811 1461.2 140.811 1468.33 Q140.811 1475.44 142.617 1479.01 Q144.446 1482.55 148.057 1482.55 Q151.691 1482.55 153.496 1479.01 Q155.325 1475.44 155.325 1468.33 Q155.325 1461.2 153.496 1457.66 Q151.691 1454.1 148.057 1454.1 M148.057 1450.39 Q153.867 1450.39 156.922 1455 Q160.001 1459.58 160.001 1468.33 Q160.001 1477.06 156.922 1481.67 Q153.867 1486.25 148.057 1486.25 Q142.246 1486.25 139.168 1481.67 Q136.112 1477.06 136.112 1468.33 Q136.112 1459.58 139.168 1455 Q142.246 1450.39 148.057 1450.39 Z" fill="#000000" fill-rule="nonzero" fill-opacity="1" /><path clip-path="url(#clip200)" d="M583.649 1481.64 L599.969 1481.64 L599.969 1485.58 L578.024 1485.58 L578.024 1481.64 Q580.686 1478.89 585.27 1474.26 Q589.876 1469.61 591.057 1468.27 Q593.302 1465.74 594.182 1464.01 Q595.084 1462.25 595.084 1460.56 Q595.084 1457.8 593.14 1456.07 Q591.219 1454.33 588.117 1454.33 Q585.918 1454.33 583.464 1455.09 Q581.034 1455.86 578.256 1457.41 L578.256 1452.69 Q581.08 1451.55 583.534 1450.97 Q585.987 1450.39 588.024 1450.39 Q593.395 1450.39 596.589 1453.08 Q599.783 1455.77 599.783 1460.26 Q599.783 1462.39 598.973 1464.31 Q598.186 1466.2 596.08 1468.8 Q595.501 1469.47 592.399 1472.69 Q589.297 1475.88 583.649 1481.64 Z" fill="#000000" fill-rule="nonzero" fill-opacity="1" /><path clip-path="url(#clip200)" d="M1032.95 1455.09 L1021.14 1473.54 L1032.95 1473.54 L1032.95 1455.09 M1031.72 1451.02 L1037.6 1451.02 L1037.6 1473.54 L1042.53 1473.54 L1042.53 1477.43 L1037.6 1477.43 L1037.6 1485.58 L1032.95 1485.58 L1032.95 1477.43 L1017.34 1477.43 L1017.34 1472.92 L1031.72 1451.02 Z" fill="#000000" fill-rule="nonzero" fill-opacity="1" /><path clip-path="url(#clip200)" d="M1471.28 1466.44 Q1468.13 1466.44 1466.28 1468.59 Q1464.45 1470.74 1464.45 1474.49 Q1464.45 1478.22 1466.28 1480.39 Q1468.13 1482.55 1471.28 1482.55 Q1474.43 1482.55 1476.26 1480.39 Q1478.11 1478.22 1478.11 1474.49 Q1478.11 1470.74 1476.26 1468.59 Q1474.43 1466.44 1471.28 1466.44 M1480.56 1451.78 L1480.56 1456.04 Q1478.8 1455.21 1477 1454.77 Q1475.22 1454.33 1473.46 1454.33 Q1468.83 1454.33 1466.37 1457.45 Q1463.94 1460.58 1463.6 1466.9 Q1464.96 1464.89 1467.02 1463.82 Q1469.08 1462.73 1471.56 1462.73 Q1476.77 1462.73 1479.78 1465.9 Q1482.81 1469.05 1482.81 1474.49 Q1482.81 1479.82 1479.66 1483.03 Q1476.51 1486.25 1471.28 1486.25 Q1465.29 1486.25 1462.11 1481.67 Q1458.94 1477.06 1458.94 1468.33 Q1458.94 1460.14 1462.83 1455.28 Q1466.72 1450.39 1473.27 1450.39 Q1475.03 1450.39 1476.81 1450.74 Q1478.62 1451.09 1480.56 1451.78 Z" fill="#000000" fill-rule="nonzero" fill-opacity="1" /><path clip-path="url(#clip200)" d="M1911.82 1469.17 Q1908.48 1469.17 1906.56 1470.95 Q1904.66 1472.73 1904.66 1475.86 Q1904.66 1478.98 1906.56 1480.77 Q1908.48 1482.55 1911.82 1482.55 Q1915.15 1482.55 1917.07 1480.77 Q1918.99 1478.96 1918.99 1475.86 Q1918.99 1472.73 1917.07 1470.95 Q1915.17 1469.17 1911.82 1469.17 M1907.14 1467.18 Q1904.13 1466.44 1902.44 1464.38 Q1900.77 1462.32 1900.77 1459.35 Q1900.77 1455.21 1903.71 1452.8 Q1906.68 1450.39 1911.82 1450.39 Q1916.98 1450.39 1919.92 1452.8 Q1922.86 1455.21 1922.86 1459.35 Q1922.86 1462.32 1921.17 1464.38 Q1919.5 1466.44 1916.52 1467.18 Q1919.89 1467.96 1921.77 1470.26 Q1923.67 1472.55 1923.67 1475.86 Q1923.67 1480.88 1920.59 1483.57 Q1917.53 1486.25 1911.82 1486.25 Q1906.1 1486.25 1903.02 1483.57 Q1899.96 1480.88 1899.96 1475.86 Q1899.96 1472.55 1901.86 1470.26 Q1903.76 1467.96 1907.14 1467.18 M1905.43 1459.79 Q1905.43 1462.48 1907.09 1463.98 Q1908.78 1465.49 1911.82 1465.49 Q1914.83 1465.49 1916.52 1463.98 Q1918.23 1462.48 1918.23 1459.79 Q1918.23 1457.11 1916.52 1455.6 Q1914.83 1454.1 1911.82 1454.1 Q1908.78 1454.1 1907.09 1455.6 Q1905.43 1457.11 1905.43 1459.79 Z" fill="#000000" fill-rule="nonzero" fill-opacity="1" /><path clip-path="url(#clip200)" d="M2327.44 1481.64 L2335.08 1481.64 L2335.08 1455.28 L2326.77 1456.95 L2326.77 1452.69 L2335.04 1451.02 L2339.71 1451.02 L2339.71 1481.64 L2347.35 1481.64 L2347.35 1485.58 L2327.44 1485.58 L2327.44 1481.64 Z" fill="#000000" fill-rule="nonzero" fill-opacity="1" /><path clip-path="url(#clip200)" d="M2366.8 1454.1 Q2363.18 1454.1 2361.36 1457.66 Q2359.55 1461.2 2359.55 1468.33 Q2359.55 1475.44 2361.36 1479.01 Q2363.18 1482.55 2366.8 1482.55 Q2370.43 1482.55 2372.23 1479.01 Q2374.06 1475.44 2374.06 1468.33 Q2374.06 1461.2 2372.23 1457.66 Q2370.43 1454.1 2366.8 1454.1 M2366.8 1450.39 Q2372.61 1450.39 2375.66 1455 Q2378.74 1459.58 2378.74 1468.33 Q2378.74 1477.06 2375.66 1481.67 Q2372.61 1486.25 2366.8 1486.25 Q2360.99 1486.25 2357.91 1481.67 Q2354.85 1477.06 2354.85 1468.33 Q2354.85 1459.58 2357.91 1455 Q2360.99 1450.39 2366.8 1450.39 Z" fill="#000000" fill-rule="nonzero" fill-opacity="1" /><path clip-path="url(#clip200)" d="M1249.47 1522.27 L1249.47 1532.4 L1261.53 1532.4 L1261.53 1536.95 L1249.47 1536.95 L1249.47 1556.3 Q1249.47 1560.66 1250.64 1561.9 Q1251.85 1563.14 1255.51 1563.14 L1261.53 1563.14 L1261.53 1568.04 L1255.51 1568.04 Q1248.74 1568.04 1246.16 1565.53 Q1243.58 1562.98 1243.58 1556.3 L1243.58 1536.95 L1239.28 1536.95 L1239.28 1532.4 L1243.58 1532.4 L1243.58 1522.27 L1249.47 1522.27 Z" fill="#000000" fill-rule="nonzero" fill-opacity="1" /><polyline clip-path="url(#clip200)" style="stroke:#000000; stroke-linecap:round; stroke-linejoin:round; stroke-width:4; stroke-opacity:1; fill:none" points="148.057,1423.18 148.057,47.2441 "/>
<polyline clip-path="url(#clip200)" style="stroke:#000000; stroke-linecap:round; stroke-linejoin:round; stroke-width:4; stroke-opacity:1; fill:none" points="148.057,1235.92 166.954,1235.92 "/>
<polyline clip-path="url(#clip200)" style="stroke:#000000; stroke-linecap:round; stroke-linejoin:round; stroke-width:4; stroke-opacity:1; fill:none" points="148.057,992.498 166.954,992.498 "/>
<polyline clip-path="url(#clip200)" style="stroke:#000000; stroke-linecap:round; stroke-linejoin:round; stroke-width:4; stroke-opacity:1; fill:none" points="148.057,749.073 166.954,749.073 "/>
<polyline clip-path="url(#clip200)" style="stroke:#000000; stroke-linecap:round; stroke-linejoin:round; stroke-width:4; stroke-opacity:1; fill:none" points="148.057,505.649 166.954,505.649 "/>
<polyline clip-path="url(#clip200)" style="stroke:#000000; stroke-linecap:round; stroke-linejoin:round; stroke-width:4; stroke-opacity:1; fill:none" points="148.057,262.224 166.954,262.224 "/>
<path clip-path="url(#clip200)" d="M50.9921 1236.37 L80.6679 1236.37 L80.6679 1240.31 L50.9921 1240.31 L50.9921 1236.37 Z" fill="#000000" fill-rule="nonzero" fill-opacity="1" /><path clip-path="url(#clip200)" d="M104.927 1234.57 Q108.283 1235.29 110.158 1237.55 Q112.057 1239.82 112.057 1243.16 Q112.057 1248.27 108.538 1251.07 Q105.02 1253.87 98.5382 1253.87 Q96.3623 1253.87 94.0475 1253.43 Q91.7558 1253.02 89.3021 1252.16 L89.3021 1247.65 Q91.2465 1248.78 93.5613 1249.36 Q95.8761 1249.94 98.3993 1249.94 Q102.797 1249.94 105.089 1248.2 Q107.404 1246.47 107.404 1243.16 Q107.404 1240.1 105.251 1238.39 Q103.121 1236.65 99.3021 1236.65 L95.2743 1236.65 L95.2743 1232.81 L99.4872 1232.81 Q102.936 1232.81 104.765 1231.44 Q106.594 1230.05 106.594 1227.46 Q106.594 1224.8 104.696 1223.39 Q102.821 1221.95 99.3021 1221.95 Q97.3808 1221.95 95.1817 1222.37 Q92.9826 1222.79 90.3438 1223.67 L90.3438 1219.5 Q93.0058 1218.76 95.3206 1218.39 Q97.6585 1218.02 99.7187 1218.02 Q105.043 1218.02 108.145 1220.45 Q111.246 1222.86 111.246 1226.98 Q111.246 1229.85 109.603 1231.84 Q107.959 1233.8 104.927 1234.57 Z" fill="#000000" fill-rule="nonzero" fill-opacity="1" /><path clip-path="url(#clip200)" d="M51.9412 992.949 L81.617 992.949 L81.617 996.885 L51.9412 996.885 L51.9412 992.949 Z" fill="#000000" fill-rule="nonzero" fill-opacity="1" /><path clip-path="url(#clip200)" d="M95.7373 1005.84 L112.057 1005.84 L112.057 1009.78 L90.1123 1009.78 L90.1123 1005.84 Q92.7743 1003.09 97.3576 998.459 Q101.964 993.806 103.145 992.463 Q105.39 989.94 106.27 988.204 Q107.172 986.445 107.172 984.755 Q107.172 982 105.228 980.264 Q103.307 978.528 100.205 978.528 Q98.0058 978.528 95.5521 979.292 Q93.1215 980.056 90.3438 981.607 L90.3438 976.885 Q93.1678 975.75 95.6215 975.172 Q98.0752 974.593 100.112 974.593 Q105.483 974.593 108.677 977.278 Q111.871 979.963 111.871 984.454 Q111.871 986.584 111.061 988.505 Q110.274 990.403 108.168 992.996 Q107.589 993.667 104.487 996.885 Q101.385 1000.08 95.7373 1005.84 Z" fill="#000000" fill-rule="nonzero" fill-opacity="1" /><path clip-path="url(#clip200)" d="M51.5708 749.525 L81.2466 749.525 L81.2466 753.46 L51.5708 753.46 L51.5708 749.525 Z" fill="#000000" fill-rule="nonzero" fill-opacity="1" /><path clip-path="url(#clip200)" d="M92.1493 762.418 L99.7882 762.418 L99.7882 736.053 L91.478 737.719 L91.478 733.46 L99.7419 731.793 L104.418 731.793 L104.418 762.418 L112.057 762.418 L112.057 766.353 L92.1493 766.353 L92.1493 762.418 Z" fill="#000000" fill-rule="nonzero" fill-opacity="1" /><path clip-path="url(#clip200)" d="M100.112 491.447 Q96.5011 491.447 94.6724 495.012 Q92.8669 498.554 92.8669 505.683 Q92.8669 512.79 94.6724 516.354 Q96.5011 519.896 100.112 519.896 Q103.746 519.896 105.552 516.354 Q107.381 512.79 107.381 505.683 Q107.381 498.554 105.552 495.012 Q103.746 491.447 100.112 491.447 M100.112 487.744 Q105.922 487.744 108.978 492.35 Q112.057 496.933 112.057 505.683 Q112.057 514.41 108.978 519.017 Q105.922 523.6 100.112 523.6 Q94.3021 523.6 91.2234 519.017 Q88.1679 514.41 88.1679 505.683 Q88.1679 496.933 91.2234 492.35 Q94.3021 487.744 100.112 487.744 Z" fill="#000000" fill-rule="nonzero" fill-opacity="1" /><path clip-path="url(#clip200)" d="M92.1493 275.569 L99.7882 275.569 L99.7882 249.203 L91.478 250.87 L91.478 246.61 L99.7419 244.944 L104.418 244.944 L104.418 275.569 L112.057 275.569 L112.057 279.504 L92.1493 279.504 L92.1493 275.569 Z" fill="#000000" fill-rule="nonzero" fill-opacity="1" /><polyline clip-path="url(#clip202)" style="stroke:#009af9; stroke-linecap:round; stroke-linejoin:round; stroke-width:4; stroke-opacity:1; fill:none" points="148.057,505.649 150.264,503.923 152.47,502.221 154.677,500.541 156.884,498.883 159.091,497.248 161.298,495.634 163.505,494.041 165.712,492.47 167.919,490.919 170.126,489.389 172.333,487.88 174.539,486.39 176.746,484.92 178.953,483.469 181.16,482.038 183.367,480.626 185.574,479.232 187.781,477.857 189.988,476.5 192.195,475.162 194.402,473.84 196.609,472.537 198.815,471.251 201.022,469.981 203.229,468.729 205.436,467.493 207.643,466.274 209.85,465.07 212.057,463.883 214.264,462.711 216.471,461.555 218.678,460.415 220.885,459.289 223.091,458.178 225.298,457.083 227.505,456.001 229.712,454.934 231.919,453.881 234.126,452.842 236.333,451.817 238.54,450.805 240.747,449.807 242.954,448.822 245.16,447.85 247.367,446.891 249.574,445.945 251.781,445.011 253.988,444.09 256.195,443.181 258.402,442.284 260.609,441.398 262.816,440.525 265.023,439.663 267.23,438.813 269.436,437.973 271.643,437.145 273.85,436.328 276.057,435.522 278.264,434.726 280.471,433.941 282.678,433.167 284.885,432.402 287.092,431.648 289.299,430.904 291.506,430.17 293.712,429.445 295.919,428.73 298.126,428.025 300.333,427.328 302.54,426.641 304.747,425.964 306.954,425.295 309.161,424.635 311.368,423.984 313.575,423.341 315.781,422.707 317.988,422.081 320.195,421.464 322.402,420.855 324.609,420.254 326.816,419.661 329.023,419.075 331.23,418.498 333.437,417.928 335.644,417.366 337.851,416.811 340.057,416.263 342.264,415.723 344.471,415.19 346.678,414.664 348.885,414.145 351.092,413.633 353.299,413.128 355.506,412.629 357.713,412.137 359.92,411.651 362.127,411.172 364.333,410.7 366.54,410.233 368.747,409.97 370.954,410.894 373.161,412.947 375.368,415.914 377.575,419.6 379.782,423.828 381.989,428.44 384.196,433.298 386.402,438.28 388.609,443.286 390.816,448.232 393.023,453.055 395.23,457.708 397.437,462.166 399.644,466.42 401.851,470.481 404.058,474.378 406.265,478.161 408.472,481.896 410.678,485.668 412.885,489.484 415.092,493.251 417.299,496.967 419.506,500.634 421.713,504.253 423.92,507.823 426.127,511.347 428.334,514.823 430.541,518.253 432.748,521.638 434.954,524.979 437.161,528.274 439.368,531.527 441.575,534.736 443.782,537.902 445.989,541.027 448.196,544.11 450.403,547.152 452.61,550.154 454.817,553.116 457.023,556.038 459.23,558.922 461.437,561.768 463.644,564.576 465.851,567.347 468.058,570.081 470.265,572.779 472.472,575.441 474.679,578.067 476.886,580.659 479.093,583.217 481.299,585.741 483.506,588.231 485.713,590.688 487.92,593.113 490.127,595.505 492.334,597.866 494.541,600.195 496.748,602.494 498.955,604.762 501.162,607 503.369,609.208 505.575,611.387 507.782,613.538 509.989,615.659 512.196,617.753 514.403,619.819 516.61,621.857 518.817,623.868 521.024,625.853 523.231,627.811 525.438,629.744 527.644,631.651 529.851,633.532 532.058,635.389 534.265,637.221 536.472,639.028 538.679,640.812 540.886,642.572 543.093,644.309 545.3,646.023 547.507,647.714 549.714,649.382 551.92,651.029 554.127,652.653 556.334,654.256 558.541,655.838 560.748,657.399 562.955,658.939 565.162,660.459 567.369,661.958 569.576,663.438 571.783,664.898 573.99,666.339 576.196,667.761 578.403,669.163 580.61,670.548 582.817,671.913 585.024,673.261 587.231,674.591 589.438,675.76 591.645,675.436 593.852,673.525 596.059,670.301 598.265,666.015 600.472,660.897 602.679,655.155 604.886,648.976 607.093,642.525 609.3,635.943 611.507,629.353 613.714,622.854 615.921,616.523 618.128,610.417 620.335,604.569 622.541,598.993 624.748,593.679 626.955,588.596 629.162,583.691 631.369,578.891 633.576,574.098 635.783,569.207 637.99,564.32 640.197,559.498 642.404,554.74 644.611,550.045 646.817,545.413 649.024,540.841 651.231,536.331 653.438,531.88 655.645,527.488 657.852,523.154 660.059,518.878 662.266,514.659 664.473,510.495 666.68,506.387 668.886,502.333 671.093,498.332 673.3,494.385 675.507,490.49 677.714,486.647 679.921,482.855 682.128,479.113 684.335,475.421 686.542,471.777 688.749,468.182 690.956,464.635 693.162,461.135 695.369,457.681 697.576,454.273 699.783,450.91 701.99,447.592 704.197,444.317 706.404,441.087 708.611,437.899 710.818,434.753 713.025,431.649 715.232,428.586 717.438,425.563 719.645,422.581 721.852,419.638 724.059,416.735 726.266,413.869 728.473,411.042 730.68,408.252 732.887,405.499 735.094,402.783 737.301,400.103 739.507,397.458 741.714,394.848 743.921,392.273 746.128,389.732 748.335,387.225 750.542,384.751 752.749,382.31 754.956,379.901 757.163,377.524 759.37,375.179 761.577,372.864 763.783,370.581 765.99,368.327 768.197,366.104 770.404,363.91 772.611,361.745 774.818,359.609 777.025,357.501 779.232,355.421 781.439,353.369 783.646,351.344 785.853,349.345 788.059,347.373 790.266,345.428 792.473,343.508 794.68,341.613 796.887,339.744 799.094,337.9 801.301,336.08 803.508,334.284 805.715,332.512 807.922,330.763 810.128,329.173 812.335,328.343 814.542,328.258 816.749,328.826 818.956,329.957 821.163,331.569 823.37,333.584 825.577,335.93 827.784,338.538 829.991,341.348 832.198,344.304 834.404,347.354 836.611,350.453 838.818,353.561 841.025,356.642 843.232,359.667 845.439,362.613 847.646,365.46 849.853,368.195 852.06,370.81 854.267,373.302 856.474,375.675 858.68,377.935 860.887,380.097 863.094,382.179 865.301,384.205 867.508,386.206 869.715,388.215 871.922,390.273 874.129,392.359 876.336,394.417 878.543,396.447 880.749,398.451 882.956,400.428 885.163,402.379 887.37,404.305 889.577,406.204 891.784,408.079 893.991,409.928 896.198,411.753 898.405,413.554 900.612,415.331 902.819,417.085 905.025,418.815 907.232,420.522 909.439,422.207 911.646,423.869 913.853,425.51 916.06,427.128 918.267,428.726 920.474,430.302 922.681,431.857 924.888,433.391 927.095,434.905 929.301,436.4 931.508,437.874 933.715,439.328 935.922,440.764 938.129,442.18 940.336,443.578 942.543,444.957 944.75,446.317 946.957,447.66 949.164,448.985 951.37,450.292 953.577,451.582 955.784,452.854 957.991,454.11 960.198,455.349 962.405,456.572 964.612,457.779 966.819,458.969 969.026,460.144 971.233,461.303 973.44,462.447 975.646,463.576 977.853,464.689 980.06,465.788 982.267,466.872 984.474,467.943 986.681,468.998 988.888,470.04 991.095,471.068 993.302,472.083 995.509,473.084 997.715,474.072 999.922,475.046 1002.13,476.008 1004.34,476.957 1006.54,477.893 1008.75,478.817 1010.96,479.729 1013.16,480.629 1015.37,481.516 1017.58,482.392 1019.78,483.257 1021.99,484.11 1024.2,484.951 1026.41,485.872 1028.61,487.101 1030.82,488.614 1033.03,490.369 1035.23,492.33 1037.44,494.461 1039.65,496.729 1041.85,499.105 1044.06,501.56 1046.27,504.07 1048.47,506.61 1050.68,509.162 1052.89,511.705 1055.1,514.226 1057.3,516.71 1059.51,519.146 1061.72,521.527 1063.92,523.846 1066.13,526.1 1068.34,528.288 1070.54,530.41 1072.75,532.47 1074.96,534.475 1077.16,536.433 1079.37,538.356 1081.58,540.255 1083.78,542.148 1085.99,544.05 1088.2,545.939 1090.41,547.803 1092.61,549.642 1094.82,551.456 1097.03,553.247 1099.23,555.014 1101.44,556.757 1103.65,558.477 1105.85,560.175 1108.06,561.85 1110.27,563.503 1112.47,565.133 1114.68,566.743 1116.89,568.331 1119.1,569.897 1121.3,571.444 1123.51,572.969 1125.72,574.475 1127.92,575.96 1130.13,577.426 1132.34,578.872 1134.54,580.3 1136.75,581.708 1138.96,583.097 1141.16,584.469 1143.37,585.822 1145.58,587.157 1147.79,588.474 1149.99,589.774 1152.2,591.056 1154.41,592.322 1156.61,593.571 1158.82,594.803 1161.03,596.019 1163.23,597.218 1165.44,598.402 1167.65,599.57 1169.85,600.723 1172.06,601.86 1174.27,602.982 1176.47,604.09 1178.68,605.182 1180.89,606.26 1183.1,607.324 1185.3,608.374 1187.51,609.41 1189.72,610.432 1191.92,611.441 1194.13,612.436 1196.34,613.418 1198.54,614.387 1200.75,615.343 1202.96,616.287 1205.16,617.218 1207.37,618.137 1209.58,619.043 1211.79,619.938 1213.99,620.82 1216.2,621.691 1218.41,622.551 1220.61,623.399 1222.82,624.235 1225.03,625.061 1227.23,625.876 1229.44,626.68 1231.65,627.473 1233.85,628.256 1236.06,629.028 1238.27,629.79 1240.48,630.542 1242.68,631.284 1244.89,632.016 1247.1,632.739 1249.3,633.452 1251.51,634.683 1253.72,637.312 1255.92,641.204 1258.13,646.21 1260.34,652.19 1262.54,659.01 1264.75,666.546 1266.96,674.678 1269.16,683.297 1271.37,692.299 1273.58,701.59 1275.79,711.081 1277.99,720.692 1280.2,730.35 1282.41,739.99 1284.61,749.555 1286.82,758.994 1289.03,768.265 1291.23,777.333 1293.44,786.171 1295.65,794.759 1297.85,803.084 1300.06,811.141 1302.27,818.935 1304.48,826.474 1306.68,833.777 1308.89,840.87 1311.1,847.785 1313.3,854.563 1315.51,861.252 1317.72,867.908 1319.92,874.594 1322.13,881.336 1324.34,888.004 1326.54,894.583 1328.75,901.074 1330.96,907.48 1333.17,913.801 1335.37,920.038 1337.58,926.193 1339.79,932.265 1341.99,938.258 1344.2,944.17 1346.41,950.005 1348.61,955.762 1350.82,961.443 1353.03,967.048 1355.23,972.579 1357.44,978.037 1359.65,983.423 1361.86,988.737 1364.06,993.981 1366.27,999.156 1368.48,1004.26 1370.68,1009.3 1372.89,1014.27 1375.1,1019.18 1377.3,1024.02 1379.51,1028.8 1381.72,1033.51 1383.92,1038.16 1386.13,1042.75 1388.34,1047.28 1390.54,1051.75 1392.75,1056.16 1394.96,1060.51 1397.17,1064.8 1399.37,1069.03 1401.58,1073.21 1403.79,1077.34 1405.99,1081.41 1408.2,1085.42 1410.41,1089.38 1412.61,1093.29 1414.82,1097.15 1417.03,1100.95 1419.23,1104.71 1421.44,1108.41 1423.65,1112.07 1425.86,1115.68 1428.06,1119.24 1430.27,1122.75 1432.48,1126.22 1434.68,1129.64 1436.89,1133.01 1439.1,1136.34 1441.3,1139.63 1443.51,1142.87 1445.72,1146.07 1447.92,1149.22 1450.13,1152.34 1452.34,1155.41 1454.55,1158.45 1456.75,1161.44 1458.96,1164.39 1461.17,1168.78 1463.37,1174.51 1465.58,1177.56 1467.79,1175.54 1469.99,1167.79 1472.2,1155.33 1474.41,1140.91 1476.61,1127.64 1478.82,1114.66 1481.03,1101.86 1483.23,1089.23 1485.44,1076.76 1487.65,1064.46 1489.86,1052.33 1492.06,1040.35 1494.27,1028.53 1496.48,1016.87 1498.68,1005.37 1500.89,994.014 1503.1,982.812 1505.3,971.757 1507.51,960.85 1509.72,950.087 1511.92,939.467 1514.13,928.988 1516.34,918.647 1518.55,908.444 1520.75,898.377 1522.96,888.442 1525.17,878.64 1527.37,868.967 1529.58,859.423 1531.79,850.006 1533.99,840.713 1536.2,831.543 1538.41,822.495 1540.61,813.567 1542.82,804.757 1545.03,796.064 1547.24,787.486 1549.44,779.022 1551.65,770.67 1553.86,762.429 1556.06,754.297 1558.27,746.273 1560.48,738.355 1562.68,730.542 1564.89,722.833 1567.1,715.225 1569.3,707.719 1571.51,700.312 1573.72,693.004 1575.92,685.792 1578.13,678.676 1580.34,671.655 1582.55,664.726 1584.75,657.89 1586.96,651.144 1589.17,644.487 1591.37,637.919 1593.58,631.438 1595.79,625.042 1597.99,618.732 1600.2,612.505 1602.41,606.361 1604.61,600.298 1606.82,594.316 1609.03,588.413 1611.24,582.588 1613.44,576.84 1615.65,571.168 1617.86,565.572 1620.06,560.049 1622.27,554.6 1624.48,549.224 1626.68,543.918 1628.89,538.683 1631.1,533.517 1633.3,528.42 1635.51,523.39 1637.72,518.427 1639.93,513.53 1642.13,508.698 1644.34,503.93 1646.55,499.225 1648.75,494.583 1650.96,490.002 1653.17,485.482 1655.37,481.022 1657.58,476.621 1659.79,472.278 1661.99,467.993 1664.2,463.765 1666.41,459.593 1668.61,455.476 1670.82,451.414 1673.03,447.405 1675.24,443.45 1677.44,439.547 1679.65,435.696 1681.86,431.896 1684.06,428.146 1686.27,424.372 1688.48,420.512 1690.68,416.583 1692.89,412.597 1695.1,408.569 1697.3,404.512 1699.51,400.438 1701.72,396.357 1703.93,392.279 1706.13,388.215 1708.34,384.173 1710.55,380.161 1712.75,376.185 1714.96,372.252 1717.17,368.367 1719.37,364.535 1721.58,360.759 1723.79,357.042 1725.99,353.386 1728.2,349.792 1730.41,346.26 1732.62,342.791 1734.82,339.382 1737.03,336.032 1739.24,332.738 1741.44,329.495 1743.65,326.3 1745.86,323.146 1748.06,320.028 1750.27,316.938 1752.48,313.879 1754.68,310.86 1756.89,307.881 1759.1,304.942 1761.31,302.042 1763.51,299.18 1765.72,296.356 1767.93,293.569 1770.13,290.82 1772.34,288.107 1774.55,285.43 1776.75,282.788 1778.96,280.181 1781.17,277.61 1783.37,275.072 1785.58,272.567 1787.79,270.096 1789.99,267.658 1792.2,265.252 1794.41,262.878 1796.62,260.536 1798.82,258.224 1801.03,255.943 1803.24,253.693 1805.44,251.472 1807.65,249.281 1809.86,247.118 1812.06,244.985 1814.27,242.879 1816.48,240.802 1818.68,238.752 1820.89,236.729 1823.1,234.733 1825.31,232.764 1827.51,230.821 1829.72,228.903 1831.93,227.011 1834.13,225.144 1836.34,223.301 1838.55,221.483 1840.75,219.69 1842.96,217.92 1845.17,216.173 1847.37,214.45 1849.58,212.749 1851.79,211.071 1854,209.416 1856.2,207.782 1858.41,206.17 1860.62,204.579 1862.82,203.009 1865.03,201.461 1867.24,199.932 1869.44,198.424 1871.65,196.936 1873.86,195.468 1876.06,193.949 1878.27,192.33 1880.48,190.641 1882.68,188.911 1884.89,187.166 1887.1,185.433 1889.31,183.733 1891.51,182.089 1893.72,180.519 1895.93,179.041 1898.13,177.67 1900.34,176.42 1902.55,175.302 1904.75,174.326 1906.96,173.499 1909.17,172.827 1911.37,172.314 1913.58,171.961 1915.79,171.77 1918,171.737 1920.2,171.858 1922.41,172.128 1924.62,172.539 1926.82,173.082 1929.03,173.743 1931.24,174.511 1933.44,175.369 1935.65,176.299 1937.86,177.283 1940.06,178.299 1942.27,179.324 1944.48,180.332 1946.69,181.297 1948.89,182.188 1951.1,182.993 1953.31,183.778 1955.51,184.551 1957.72,185.315 1959.93,186.069 1962.13,186.812 1964.34,187.546 1966.55,188.269 1968.75,188.984 1970.96,189.689 1973.17,190.384 1975.37,191.07 1977.58,191.747 1979.79,192.416 1982,193.075 1984.2,193.726 1986.41,194.368 1988.62,195.001 1990.82,195.626 1993.03,196.243 1995.24,196.852 1997.44,197.452 1999.65,198.045 2001.86,198.63 2004.06,199.208 2006.27,199.777 2008.48,200.34 2010.69,200.894 2012.89,201.442 2015.1,201.982 2017.31,202.515 2019.51,203.041 2021.72,203.56 2023.93,204.072 2026.13,204.577 2028.34,205.076 2030.55,205.568 2032.75,206.053 2034.96,206.532 2037.17,207.004 2039.38,207.471 2041.58,207.931 2043.79,208.385 2046,208.832 2048.2,209.274 2050.41,209.71 2052.62,210.14 2054.82,210.565 2057.03,210.983 2059.24,211.396 2061.44,211.804 2063.65,212.206 2065.86,212.603 2068.07,212.994 2070.27,213.38 2072.48,213.762 2074.69,214.138 2076.89,214.508 2079.1,214.875 2081.31,215.236 2083.51,215.592 2085.72,215.944 2087.93,216.291 2090.13,216.633 2092.34,216.971 2094.55,217.304 2096.75,217.633 2098.96,217.957 2101.17,218.278 2103.38,218.594 2105.58,218.905 2107.79,219.213 2110,219.517 2112.2,219.817 2114.41,220.112 2116.62,220.404 2118.82,220.692 2121.03,220.976 2123.24,221.257 2125.44,221.534 2127.65,221.809 2129.86,222.155 2132.07,222.607 2134.27,223.155 2136.48,223.791 2138.69,224.505 2140.89,225.289 2143.1,226.137 2145.31,227.04 2147.51,227.992 2149.72,228.986 2151.93,230.014 2154.13,231.072 2156.34,232.153 2158.55,233.253 2160.76,234.364 2162.96,235.484 2165.17,236.607 2167.38,237.73 2169.58,238.848 2171.79,239.959 2174,241.058 2176.2,242.143 2178.41,243.212 2180.62,244.263 2182.82,245.293 2185.03,246.301 2187.24,247.286 2189.44,248.247 2191.65,249.184 2193.86,250.097 2196.07,250.984 2198.27,251.848 2200.48,252.689 2202.69,253.508 2204.89,254.306 2207.1,255.086 2209.31,255.849 2211.51,256.598 2213.72,257.335 2215.93,258.064 2218.13,258.788 2220.34,259.511 2222.55,260.238 2224.76,260.96 2226.96,261.672 2229.17,262.375 2231.38,263.069 2233.58,263.754 2235.79,264.429 2238,265.096 2240.2,265.754 2242.41,266.403 2244.62,267.043 2246.82,267.675 2249.03,268.299 2251.24,268.914 2253.45,269.521 2255.65,270.12 2257.86,270.711 2260.07,271.294 2262.27,271.87 2264.48,272.438 2266.69,272.998 2268.89,273.551 2271.1,274.097 2273.31,274.635 2275.51,275.166 2277.72,275.691 2279.93,276.208 2282.13,276.718 2284.34,277.222 2286.55,277.719 2288.76,278.209 2290.96,278.693 2293.17,279.17 2295.38,279.642 2297.58,280.106 2299.79,280.565 2302,281.018 2304.2,281.464 2306.41,281.905 2308.62,282.34 2310.82,282.769 2313.03,283.193 2315.24,283.61 2317.45,284.023 2319.65,284.429 2321.86,284.831 2324.07,285.227 2326.27,285.618 2328.48,286.003 2330.69,286.384 2332.89,286.759 2335.1,287.13 2337.31,287.496 2339.51,287.856 2341.72,288.212 2343.93,288.563 2346.14,288.91 2348.34,289.252 2350.55,289.59 2352.76,289.923 "/>
<polyline clip-path="url(#clip202)" style="stroke:#e26f46; stroke-linecap:round; stroke-linejoin:round; stroke-width:4; stroke-opacity:1; fill:none" points="148.057,375.516 150.264,375.516 152.47,375.516 154.677,375.516 156.884,375.516 159.091,375.516 161.298,375.516 163.505,375.516 165.712,375.516 167.919,375.516 170.126,375.516 172.333,375.516 174.539,375.516 176.746,375.516 178.953,375.516 181.16,375.516 183.367,375.516 185.574,375.516 187.781,375.516 189.988,375.516 192.195,375.516 194.402,375.516 196.609,375.516 198.815,375.516 201.022,375.516 203.229,375.516 205.436,375.516 207.643,375.516 209.85,375.516 212.057,375.516 214.264,375.516 216.471,375.516 218.678,375.516 220.885,375.516 223.091,375.516 225.298,375.516 227.505,375.516 229.712,375.516 231.919,375.516 234.126,375.516 236.333,375.516 238.54,375.516 240.747,375.516 242.954,375.516 245.16,375.516 247.367,375.516 249.574,375.516 251.781,375.516 253.988,375.516 256.195,375.516 258.402,375.516 260.609,375.516 262.816,375.516 265.023,375.516 267.23,375.516 269.436,375.516 271.643,375.516 273.85,375.516 276.057,375.516 278.264,375.516 280.471,375.516 282.678,375.516 284.885,375.516 287.092,375.516 289.299,375.516 291.506,375.516 293.712,375.516 295.919,375.516 298.126,375.516 300.333,375.516 302.54,375.516 304.747,375.516 306.954,375.516 309.161,375.516 311.368,375.516 313.575,375.516 315.781,375.516 317.988,375.516 320.195,375.516 322.402,375.516 324.609,375.516 326.816,375.516 329.023,375.516 331.23,375.516 333.437,375.516 335.644,375.516 337.851,375.516 340.057,375.516 342.264,375.516 344.471,375.516 346.678,375.516 348.885,375.516 351.092,375.516 353.299,375.516 355.506,375.516 357.713,375.516 359.92,375.516 362.127,375.516 364.333,375.516 366.54,375.516 368.747,773.567 370.954,773.567 373.161,773.567 375.368,773.567 377.575,773.567 379.782,773.567 381.989,773.567 384.196,773.567 386.402,773.567 388.609,773.567 390.816,773.567 393.023,773.567 395.23,773.567 397.437,773.567 399.644,773.567 401.851,773.567 404.058,773.567 406.265,773.567 408.472,773.567 410.678,773.567 412.885,773.567 415.092,773.567 417.299,773.567 419.506,773.567 421.713,773.567 423.92,773.567 426.127,773.567 428.334,773.567 430.541,773.567 432.748,773.567 434.954,773.567 437.161,773.567 439.368,773.567 441.575,773.567 443.782,773.567 445.989,773.567 448.196,773.567 450.403,773.567 452.61,773.567 454.817,773.567 457.023,773.567 459.23,773.567 461.437,773.567 463.644,773.567 465.851,773.567 468.058,773.567 470.265,773.567 472.472,773.567 474.679,773.567 476.886,773.567 479.093,773.567 481.299,773.567 483.506,773.567 485.713,773.567 487.92,773.567 490.127,773.567 492.334,773.567 494.541,773.567 496.748,773.567 498.955,773.567 501.162,773.567 503.369,773.567 505.575,773.567 507.782,773.567 509.989,773.567 512.196,773.567 514.403,773.567 516.61,773.567 518.817,773.567 521.024,773.567 523.231,773.567 525.438,773.567 527.644,773.567 529.851,773.567 532.058,773.567 534.265,773.567 536.472,773.567 538.679,773.567 540.886,773.567 543.093,773.567 545.3,773.567 547.507,773.567 549.714,773.567 551.92,773.567 554.127,773.567 556.334,773.567 558.541,773.567 560.748,773.567 562.955,773.567 565.162,773.567 567.369,773.567 569.576,773.567 571.783,773.567 573.99,773.567 576.196,773.567 578.403,773.567 580.61,773.567 582.817,773.567 585.024,773.567 587.231,773.567 589.438,200.619 591.645,200.619 593.852,200.619 596.059,200.619 598.265,200.619 600.472,200.619 602.679,200.619 604.886,200.619 607.093,200.619 609.3,200.619 611.507,200.619 613.714,200.619 615.921,200.619 618.128,200.619 620.335,200.619 622.541,200.619 624.748,200.619 626.955,200.619 629.162,200.619 631.369,200.619 633.576,200.619 635.783,200.619 637.99,200.619 640.197,200.619 642.404,200.619 644.611,200.619 646.817,200.619 649.024,200.619 651.231,200.619 653.438,200.619 655.645,200.619 657.852,200.619 660.059,200.619 662.266,200.619 664.473,200.619 666.68,200.619 668.886,200.619 671.093,200.619 673.3,200.619 675.507,200.619 677.714,200.619 679.921,200.619 682.128,200.619 684.335,200.619 686.542,200.619 688.749,200.619 690.956,200.619 693.162,200.619 695.369,200.619 697.576,200.619 699.783,200.619 701.99,200.619 704.197,200.619 706.404,200.619 708.611,200.619 710.818,200.619 713.025,200.619 715.232,200.619 717.438,200.619 719.645,200.619 721.852,200.619 724.059,200.619 726.266,200.619 728.473,200.619 730.68,200.619 732.887,200.619 735.094,200.619 737.301,200.619 739.507,200.619 741.714,200.619 743.921,200.619 746.128,200.619 748.335,200.619 750.542,200.619 752.749,200.619 754.956,200.619 757.163,200.619 759.37,200.619 761.577,200.619 763.783,200.619 765.99,200.619 768.197,200.619 770.404,200.619 772.611,200.619 774.818,200.619 777.025,200.619 779.232,200.619 781.439,200.619 783.646,200.619 785.853,200.619 788.059,200.619 790.266,200.619 792.473,200.619 794.68,200.619 796.887,200.619 799.094,200.619 801.301,200.619 803.508,200.619 805.715,200.619 807.922,200.619 810.128,547.586 812.335,547.586 814.542,547.586 816.749,547.586 818.956,547.586 821.163,547.586 823.37,547.586 825.577,547.586 827.784,547.586 829.991,547.586 832.198,547.586 834.404,547.586 836.611,547.586 838.818,547.586 841.025,547.586 843.232,547.586 845.439,547.586 847.646,547.586 849.853,547.586 852.06,547.586 854.267,547.586 856.474,547.586 858.68,547.586 860.887,547.586 863.094,547.586 865.301,547.586 867.508,547.586 869.715,547.586 871.922,547.586 874.129,547.586 876.336,547.586 878.543,547.586 880.749,547.586 882.956,547.586 885.163,547.586 887.37,547.586 889.577,547.586 891.784,547.586 893.991,547.586 896.198,547.586 898.405,547.586 900.612,547.586 902.819,547.586 905.025,547.586 907.232,547.586 909.439,547.586 911.646,547.586 913.853,547.586 916.06,547.586 918.267,547.586 920.474,547.586 922.681,547.586 924.888,547.586 927.095,547.586 929.301,547.586 931.508,547.586 933.715,547.586 935.922,547.586 938.129,547.586 940.336,547.586 942.543,547.586 944.75,547.586 946.957,547.586 949.164,547.586 951.37,547.586 953.577,547.586 955.784,547.586 957.991,547.586 960.198,547.586 962.405,547.586 964.612,547.586 966.819,547.586 969.026,547.586 971.233,547.586 973.44,547.586 975.646,547.586 977.853,547.586 980.06,547.586 982.267,547.586 984.474,547.586 986.681,547.586 988.888,547.586 991.095,547.586 993.302,547.586 995.509,547.586 997.715,547.586 999.922,547.586 1002.13,547.586 1004.34,547.586 1006.54,547.586 1008.75,547.586 1010.96,547.586 1013.16,547.586 1015.37,547.586 1017.58,547.586 1019.78,547.586 1021.99,547.586 1024.2,547.586 1026.41,547.586 1028.61,547.586 1030.82,686.512 1033.03,686.512 1035.23,686.512 1037.44,686.512 1039.65,686.512 1041.85,686.512 1044.06,686.512 1046.27,686.512 1048.47,686.512 1050.68,686.512 1052.89,686.512 1055.1,686.512 1057.3,686.512 1059.51,686.512 1061.72,686.512 1063.92,686.512 1066.13,686.512 1068.34,686.512 1070.54,686.512 1072.75,686.512 1074.96,686.512 1077.16,686.512 1079.37,686.512 1081.58,686.512 1083.78,686.512 1085.99,686.512 1088.2,686.512 1090.41,686.512 1092.61,686.512 1094.82,686.512 1097.03,686.512 1099.23,686.512 1101.44,686.512 1103.65,686.512 1105.85,686.512 1108.06,686.512 1110.27,686.512 1112.47,686.512 1114.68,686.512 1116.89,686.512 1119.1,686.512 1121.3,686.512 1123.51,686.512 1125.72,686.512 1127.92,686.512 1130.13,686.512 1132.34,686.512 1134.54,686.512 1136.75,686.512 1138.96,686.512 1141.16,686.512 1143.37,686.512 1145.58,686.512 1147.79,686.512 1149.99,686.512 1152.2,686.512 1154.41,686.512 1156.61,686.512 1158.82,686.512 1161.03,686.512 1163.23,686.512 1165.44,686.512 1167.65,686.512 1169.85,686.512 1172.06,686.512 1174.27,686.512 1176.47,686.512 1178.68,686.512 1180.89,686.512 1183.1,686.512 1185.3,686.512 1187.51,686.512 1189.72,686.512 1191.92,686.512 1194.13,686.512 1196.34,686.512 1198.54,686.512 1200.75,686.512 1202.96,686.512 1205.16,686.512 1207.37,686.512 1209.58,686.512 1211.79,686.512 1213.99,686.512 1216.2,686.512 1218.41,686.512 1220.61,686.512 1222.82,686.512 1225.03,686.512 1227.23,686.512 1229.44,686.512 1231.65,686.512 1233.85,686.512 1236.06,686.512 1238.27,686.512 1240.48,686.512 1242.68,686.512 1244.89,686.512 1247.1,686.512 1249.3,686.512 1251.51,1384.24 1253.72,1384.24 1255.92,1384.24 1258.13,1384.24 1260.34,1384.24 1262.54,1384.24 1264.75,1384.24 1266.96,1384.24 1269.16,1384.24 1271.37,1384.24 1273.58,1384.24 1275.79,1384.24 1277.99,1384.24 1280.2,1384.24 1282.41,1384.24 1284.61,1384.24 1286.82,1384.24 1289.03,1384.24 1291.23,1384.24 1293.44,1384.24 1295.65,1384.24 1297.85,1384.24 1300.06,1384.24 1302.27,1384.24 1304.48,1384.24 1306.68,1384.24 1308.89,1384.24 1311.1,1384.24 1313.3,1384.24 1315.51,1384.24 1317.72,1384.24 1319.92,1384.24 1322.13,1384.24 1324.34,1384.24 1326.54,1384.24 1328.75,1384.24 1330.96,1384.24 1333.17,1384.24 1335.37,1384.24 1337.58,1384.24 1339.79,1384.24 1341.99,1384.24 1344.2,1384.24 1346.41,1384.24 1348.61,1384.24 1350.82,1384.24 1353.03,1384.24 1355.23,1384.24 1357.44,1384.24 1359.65,1384.24 1361.86,1384.24 1364.06,1384.24 1366.27,1384.24 1368.48,1384.24 1370.68,1384.24 1372.89,1384.24 1375.1,1384.24 1377.3,1384.24 1379.51,1384.24 1381.72,1384.24 1383.92,1384.24 1386.13,1384.24 1388.34,1384.24 1390.54,1384.24 1392.75,1384.24 1394.96,1384.24 1397.17,1384.24 1399.37,1384.24 1401.58,1384.24 1403.79,1384.24 1405.99,1384.24 1408.2,1384.24 1410.41,1384.24 1412.61,1384.24 1414.82,1384.24 1417.03,1384.24 1419.23,1384.24 1421.44,1384.24 1423.65,1384.24 1425.86,1384.24 1428.06,1384.24 1430.27,1384.24 1432.48,1384.24 1434.68,1384.24 1436.89,1384.24 1439.1,1384.24 1441.3,1384.24 1443.51,1384.24 1445.72,1384.24 1447.92,1384.24 1450.13,1384.24 1452.34,1384.24 1454.55,1384.24 1456.75,1384.24 1458.96,1384.24 1461.17,1384.24 1463.37,1384.24 1465.58,1384.24 1467.79,1384.24 1469.99,1384.24 1472.2,149.063 1474.41,149.063 1476.61,149.063 1478.82,149.063 1481.03,149.063 1483.23,149.063 1485.44,149.063 1487.65,149.063 1489.86,149.063 1492.06,149.063 1494.27,149.063 1496.48,149.063 1498.68,149.063 1500.89,149.063 1503.1,149.063 1505.3,149.063 1507.51,149.063 1509.72,149.063 1511.92,149.063 1514.13,149.063 1516.34,149.063 1518.55,149.063 1520.75,149.063 1522.96,149.063 1525.17,149.063 1527.37,149.063 1529.58,149.063 1531.79,149.063 1533.99,149.063 1536.2,149.063 1538.41,149.063 1540.61,149.063 1542.82,149.063 1545.03,149.063 1547.24,149.063 1549.44,149.063 1551.65,149.063 1553.86,149.063 1556.06,149.063 1558.27,149.063 1560.48,149.063 1562.68,149.063 1564.89,149.063 1567.1,149.063 1569.3,149.063 1571.51,149.063 1573.72,149.063 1575.92,149.063 1578.13,149.063 1580.34,149.063 1582.55,149.063 1584.75,149.063 1586.96,149.063 1589.17,149.063 1591.37,149.063 1593.58,149.063 1595.79,149.063 1597.99,149.063 1600.2,149.063 1602.41,149.063 1604.61,149.063 1606.82,149.063 1609.03,149.063 1611.24,149.063 1613.44,149.063 1615.65,149.063 1617.86,149.063 1620.06,149.063 1622.27,149.063 1624.48,149.063 1626.68,149.063 1628.89,149.063 1631.1,149.063 1633.3,149.063 1635.51,149.063 1637.72,149.063 1639.93,149.063 1642.13,149.063 1644.34,149.063 1646.55,149.063 1648.75,149.063 1650.96,149.063 1653.17,149.063 1655.37,149.063 1657.58,149.063 1659.79,149.063 1661.99,149.063 1664.2,149.063 1666.41,149.063 1668.61,149.063 1670.82,149.063 1673.03,149.063 1675.24,149.063 1677.44,149.063 1679.65,149.063 1681.86,149.063 1684.06,149.063 1686.27,149.063 1688.48,149.063 1690.68,149.063 1692.89,86.1857 1695.1,86.1857 1697.3,86.1857 1699.51,86.1857 1701.72,86.1857 1703.93,86.1857 1706.13,86.1857 1708.34,86.1857 1710.55,86.1857 1712.75,86.1857 1714.96,86.1857 1717.17,86.1857 1719.37,86.1857 1721.58,86.1857 1723.79,86.1857 1725.99,86.1857 1728.2,86.1857 1730.41,86.1857 1732.62,86.1857 1734.82,86.1857 1737.03,86.1857 1739.24,86.1857 1741.44,86.1857 1743.65,86.1857 1745.86,86.1857 1748.06,86.1857 1750.27,86.1857 1752.48,86.1857 1754.68,86.1857 1756.89,86.1857 1759.1,86.1857 1761.31,86.1857 1763.51,86.1857 1765.72,86.1857 1767.93,86.1857 1770.13,86.1857 1772.34,86.1857 1774.55,86.1857 1776.75,86.1857 1778.96,86.1857 1781.17,86.1857 1783.37,86.1857 1785.58,86.1857 1787.79,86.1857 1789.99,86.1857 1792.2,86.1857 1794.41,86.1857 1796.62,86.1857 1798.82,86.1857 1801.03,86.1857 1803.24,86.1857 1805.44,86.1857 1807.65,86.1857 1809.86,86.1857 1812.06,86.1857 1814.27,86.1857 1816.48,86.1857 1818.68,86.1857 1820.89,86.1857 1823.1,86.1857 1825.31,86.1857 1827.51,86.1857 1829.72,86.1857 1831.93,86.1857 1834.13,86.1857 1836.34,86.1857 1838.55,86.1857 1840.75,86.1857 1842.96,86.1857 1845.17,86.1857 1847.37,86.1857 1849.58,86.1857 1851.79,86.1857 1854,86.1857 1856.2,86.1857 1858.41,86.1857 1860.62,86.1857 1862.82,86.1857 1865.03,86.1857 1867.24,86.1857 1869.44,86.1857 1871.65,86.1857 1873.86,86.1857 1876.06,86.1857 1878.27,86.1857 1880.48,86.1857 1882.68,86.1857 1884.89,86.1857 1887.1,86.1857 1889.31,86.1857 1891.51,86.1857 1893.72,86.1857 1895.93,86.1857 1898.13,86.1857 1900.34,86.1857 1902.55,86.1857 1904.75,86.1857 1906.96,86.1857 1909.17,86.1857 1911.37,86.1857 1913.58,242.146 1915.79,242.146 1918,242.146 1920.2,242.146 1922.41,242.146 1924.62,242.146 1926.82,242.146 1929.03,242.146 1931.24,242.146 1933.44,242.146 1935.65,242.146 1937.86,242.146 1940.06,242.146 1942.27,242.146 1944.48,242.146 1946.69,242.146 1948.89,242.146 1951.1,242.146 1953.31,242.146 1955.51,242.146 1957.72,242.146 1959.93,242.146 1962.13,242.146 1964.34,242.146 1966.55,242.146 1968.75,242.146 1970.96,242.146 1973.17,242.146 1975.37,242.146 1977.58,242.146 1979.79,242.146 1982,242.146 1984.2,242.146 1986.41,242.146 1988.62,242.146 1990.82,242.146 1993.03,242.146 1995.24,242.146 1997.44,242.146 1999.65,242.146 2001.86,242.146 2004.06,242.146 2006.27,242.146 2008.48,242.146 2010.69,242.146 2012.89,242.146 2015.1,242.146 2017.31,242.146 2019.51,242.146 2021.72,242.146 2023.93,242.146 2026.13,242.146 2028.34,242.146 2030.55,242.146 2032.75,242.146 2034.96,242.146 2037.17,242.146 2039.38,242.146 2041.58,242.146 2043.79,242.146 2046,242.146 2048.2,242.146 2050.41,242.146 2052.62,242.146 2054.82,242.146 2057.03,242.146 2059.24,242.146 2061.44,242.146 2063.65,242.146 2065.86,242.146 2068.07,242.146 2070.27,242.146 2072.48,242.146 2074.69,242.146 2076.89,242.146 2079.1,242.146 2081.31,242.146 2083.51,242.146 2085.72,242.146 2087.93,242.146 2090.13,242.146 2092.34,242.146 2094.55,242.146 2096.75,242.146 2098.96,242.146 2101.17,242.146 2103.38,242.146 2105.58,242.146 2107.79,242.146 2110,242.146 2112.2,242.146 2114.41,242.146 2116.62,242.146 2118.82,242.146 2121.03,242.146 2123.24,242.146 2125.44,242.146 2127.65,242.146 2129.86,242.146 2132.07,242.146 2134.27,314.706 2136.48,314.706 2138.69,314.706 2140.89,314.706 2143.1,314.706 2145.31,314.706 2147.51,314.706 2149.72,314.706 2151.93,314.706 2154.13,314.706 2156.34,314.706 2158.55,314.706 2160.76,314.706 2162.96,314.706 2165.17,314.706 2167.38,314.706 2169.58,314.706 2171.79,314.706 2174,314.706 2176.2,314.706 2178.41,314.706 2180.62,314.706 2182.82,314.706 2185.03,314.706 2187.24,314.706 2189.44,314.706 2191.65,314.706 2193.86,314.706 2196.07,314.706 2198.27,314.706 2200.48,314.706 2202.69,314.706 2204.89,314.706 2207.1,314.706 2209.31,314.706 2211.51,314.706 2213.72,314.706 2215.93,314.706 2218.13,314.706 2220.34,314.706 2222.55,314.706 2224.76,314.706 2226.96,314.706 2229.17,314.706 2231.38,314.706 2233.58,314.706 2235.79,314.706 2238,314.706 2240.2,314.706 2242.41,314.706 2244.62,314.706 2246.82,314.706 2249.03,314.706 2251.24,314.706 2253.45,314.706 2255.65,314.706 2257.86,314.706 2260.07,314.706 2262.27,314.706 2264.48,314.706 2266.69,314.706 2268.89,314.706 2271.1,314.706 2273.31,314.706 2275.51,314.706 2277.72,314.706 2279.93,314.706 2282.13,314.706 2284.34,314.706 2286.55,314.706 2288.76,314.706 2290.96,314.706 2293.17,314.706 2295.38,314.706 2297.58,314.706 2299.79,314.706 2302,314.706 2304.2,314.706 2306.41,314.706 2308.62,314.706 2310.82,314.706 2313.03,314.706 2315.24,314.706 2317.45,314.706 2319.65,314.706 2321.86,314.706 2324.07,314.706 2326.27,314.706 2328.48,314.706 2330.69,314.706 2332.89,314.706 2335.1,314.706 2337.31,314.706 2339.51,314.706 2341.72,314.706 2343.93,314.706 2346.14,314.706 2348.34,314.706 2350.55,314.706 2352.76,314.706 "/>
<path clip-path="url(#clip200)" d="M2033.66 1377.32 L2279.27 1377.32 L2279.27 1221.8 L2033.66 1221.8  Z" fill="#ffffff" fill-rule="evenodd" fill-opacity="1"/>
<polyline clip-path="url(#clip200)" style="stroke:#000000; stroke-linecap:round; stroke-linejoin:round; stroke-width:4; stroke-opacity:1; fill:none" points="2033.66,1377.32 2279.27,1377.32 2279.27,1221.8 2033.66,1221.8 2033.66,1377.32 "/>
<polyline clip-path="url(#clip200)" style="stroke:#009af9; stroke-linecap:round; stroke-linejoin:round; stroke-width:4; stroke-opacity:1; fill:none" points="2058.15,1273.64 2205.13,1273.64 "/>
<path clip-path="url(#clip200)" d="M2254.28 1264.99 L2244.91 1277.61 L2254.77 1290.92 L2249.75 1290.92 L2242.2 1280.73 L2234.65 1290.92 L2229.63 1290.92 L2239.7 1277.35 L2230.49 1264.99 L2235.51 1264.99 L2242.39 1274.23 L2249.26 1264.99 L2254.28 1264.99 Z" fill="#000000" fill-rule="nonzero" fill-opacity="1" /><polyline clip-path="url(#clip200)" style="stroke:#e26f46; stroke-linecap:round; stroke-linejoin:round; stroke-width:4; stroke-opacity:1; fill:none" points="2058.15,1325.48 2205.13,1325.48 "/>
<path clip-path="url(#clip200)" d="M2246.14 1306.74 L2246.14 1310.28 L2242.06 1310.28 Q2239.77 1310.28 2238.87 1311.2 Q2237.99 1312.13 2237.99 1314.54 L2237.99 1316.83 L2245 1316.83 L2245 1320.14 L2237.99 1320.14 L2237.99 1342.76 L2233.7 1342.76 L2233.7 1320.14 L2229.63 1320.14 L2229.63 1316.83 L2233.7 1316.83 L2233.7 1315.02 Q2233.7 1310.7 2235.72 1308.73 Q2237.73 1306.74 2242.11 1306.74 L2246.14 1306.74 Z" fill="#000000" fill-rule="nonzero" fill-opacity="1" /></svg>
