<?xml version="1.0" encoding="utf-8"?>
<svg xmlns="http://www.w3.org/2000/svg" xmlns:xlink="http://www.w3.org/1999/xlink" width="600" height="400" viewBox="0 0 2400 1600">
<defs>
  <clipPath id="clip880">
    <rect x="0" y="0" width="2400" height="1600"/>
  </clipPath>
</defs>
<path clip-path="url(#clip880)" d="M0 1600 L2400 1600 L2400 0 L0 0  Z" fill="#ffffff" fill-rule="evenodd" fill-opacity="1"/>
<defs>
  <clipPath id="clip881">
    <rect x="480" y="0" width="1681" height="1600"/>
  </clipPath>
</defs>
<path clip-path="url(#clip880)" d="M147.478 1423.18 L2352.76 1423.18 L2352.76 47.2441 L147.478 47.2441  Z" fill="#ffffff" fill-rule="evenodd" fill-opacity="1"/>
<defs>
  <clipPath id="clip882">
    <rect x="147" y="47" width="2206" height="1377"/>
  </clipPath>
</defs>
<polyline clip-path="url(#clip882)" style="stroke:#000000; stroke-linecap:round; stroke-linejoin:round; stroke-width:2; stroke-opacity:0.1; fill:none" points="147.478,1423.18 147.478,47.2441 "/>
<polyline clip-path="url(#clip882)" style="stroke:#000000; stroke-linecap:round; stroke-linejoin:round; stroke-width:2; stroke-opacity:0.1; fill:none" points="588.534,1423.18 588.534,47.2441 "/>
<polyline clip-path="url(#clip882)" style="stroke:#000000; stroke-linecap:round; stroke-linejoin:round; stroke-width:2; stroke-opacity:0.1; fill:none" points="1029.59,1423.18 1029.59,47.2441 "/>
<polyline clip-path="url(#clip882)" style="stroke:#000000; stroke-linecap:round; stroke-linejoin:round; stroke-width:2; stroke-opacity:0.1; fill:none" points="1470.64,1423.18 1470.64,47.2441 "/>
<polyline clip-path="url(#clip882)" style="stroke:#000000; stroke-linecap:round; stroke-linejoin:round; stroke-width:2; stroke-opacity:0.1; fill:none" points="1911.7,1423.18 1911.7,47.2441 "/>
<polyline clip-path="url(#clip882)" style="stroke:#000000; stroke-linecap:round; stroke-linejoin:round; stroke-width:2; stroke-opacity:0.1; fill:none" points="2352.76,1423.18 2352.76,47.2441 "/>
<polyline clip-path="url(#clip880)" style="stroke:#000000; stroke-linecap:round; stroke-linejoin:round; stroke-width:4; stroke-opacity:1; fill:none" points="147.478,1423.18 2352.76,1423.18 "/>
<polyline clip-path="url(#clip880)" style="stroke:#000000; stroke-linecap:round; stroke-linejoin:round; stroke-width:4; stroke-opacity:1; fill:none" points="147.478,1423.18 147.478,1404.28 "/>
<polyline clip-path="url(#clip880)" style="stroke:#000000; stroke-linecap:round; stroke-linejoin:round; stroke-width:4; stroke-opacity:1; fill:none" points="588.534,1423.18 588.534,1404.28 "/>
<polyline clip-path="url(#clip880)" style="stroke:#000000; stroke-linecap:round; stroke-linejoin:round; stroke-width:4; stroke-opacity:1; fill:none" points="1029.59,1423.18 1029.59,1404.28 "/>
<polyline clip-path="url(#clip880)" style="stroke:#000000; stroke-linecap:round; stroke-linejoin:round; stroke-width:4; stroke-opacity:1; fill:none" points="1470.64,1423.18 1470.64,1404.28 "/>
<polyline clip-path="url(#clip880)" style="stroke:#000000; stroke-linecap:round; stroke-linejoin:round; stroke-width:4; stroke-opacity:1; fill:none" points="1911.7,1423.18 1911.7,1404.28 "/>
<polyline clip-path="url(#clip880)" style="stroke:#000000; stroke-linecap:round; stroke-linejoin:round; stroke-width:4; stroke-opacity:1; fill:none" points="2352.76,1423.18 2352.76,1404.28 "/>
<path clip-path="url(#clip880)" d="M147.478 1454.1 Q143.867 1454.1 142.038 1457.66 Q140.233 1461.2 140.233 1468.33 Q140.233 1475.44 142.038 1479.01 Q143.867 1482.55 147.478 1482.55 Q151.112 1482.55 152.918 1479.01 Q154.746 1475.44 154.746 1468.33 Q154.746 1461.2 152.918 1457.66 Q151.112 1454.1 147.478 1454.1 M147.478 1450.39 Q153.288 1450.39 156.344 1455 Q159.422 1459.58 159.422 1468.33 Q159.422 1477.06 156.344 1481.67 Q153.288 1486.25 147.478 1486.25 Q141.668 1486.25 138.589 1481.67 Q135.534 1477.06 135.534 1468.33 Q135.534 1459.58 138.589 1455 Q141.668 1450.39 147.478 1450.39 Z" fill="#000000" fill-rule="nonzero" fill-opacity="1" /><path clip-path="url(#clip880)" d="M583.186 1481.64 L599.506 1481.64 L599.506 1485.58 L577.561 1485.58 L577.561 1481.64 Q580.223 1478.89 584.807 1474.26 Q589.413 1469.61 590.594 1468.27 Q592.839 1465.74 593.719 1464.01 Q594.621 1462.25 594.621 1460.56 Q594.621 1457.8 592.677 1456.07 Q590.756 1454.33 587.654 1454.33 Q585.455 1454.33 583.001 1455.09 Q580.571 1455.86 577.793 1457.41 L577.793 1452.69 Q580.617 1451.55 583.071 1450.97 Q585.524 1450.39 587.561 1450.39 Q592.932 1450.39 596.126 1453.08 Q599.32 1455.77 599.32 1460.26 Q599.32 1462.39 598.51 1464.31 Q597.723 1466.2 595.617 1468.8 Q595.038 1469.47 591.936 1472.69 Q588.834 1475.88 583.186 1481.64 Z" fill="#000000" fill-rule="nonzero" fill-opacity="1" /><path clip-path="url(#clip880)" d="M1032.6 1455.09 L1020.79 1473.54 L1032.6 1473.54 L1032.6 1455.09 M1031.37 1451.02 L1037.25 1451.02 L1037.25 1473.54 L1042.18 1473.54 L1042.18 1477.43 L1037.25 1477.43 L1037.25 1485.58 L1032.6 1485.58 L1032.6 1477.43 L1017 1477.43 L1017 1472.92 L1031.37 1451.02 Z" fill="#000000" fill-rule="nonzero" fill-opacity="1" /><path clip-path="url(#clip880)" d="M1471.05 1466.44 Q1467.9 1466.44 1466.05 1468.59 Q1464.22 1470.74 1464.22 1474.49 Q1464.22 1478.22 1466.05 1480.39 Q1467.9 1482.55 1471.05 1482.55 Q1474.2 1482.55 1476.03 1480.39 Q1477.88 1478.22 1477.88 1474.49 Q1477.88 1470.74 1476.03 1468.59 Q1474.2 1466.44 1471.05 1466.44 M1480.33 1451.78 L1480.33 1456.04 Q1478.57 1455.21 1476.77 1454.77 Q1474.98 1454.33 1473.23 1454.33 Q1468.6 1454.33 1466.14 1457.45 Q1463.71 1460.58 1463.36 1466.9 Q1464.73 1464.89 1466.79 1463.82 Q1468.85 1462.73 1471.33 1462.73 Q1476.54 1462.73 1479.55 1465.9 Q1482.58 1469.05 1482.58 1474.49 Q1482.58 1479.82 1479.43 1483.03 Q1476.28 1486.25 1471.05 1486.25 Q1465.05 1486.25 1461.88 1481.67 Q1458.71 1477.06 1458.71 1468.33 Q1458.71 1460.14 1462.6 1455.28 Q1466.49 1450.39 1473.04 1450.39 Q1474.8 1450.39 1476.58 1450.74 Q1478.39 1451.09 1480.33 1451.78 Z" fill="#000000" fill-rule="nonzero" fill-opacity="1" /><path clip-path="url(#clip880)" d="M1911.7 1469.17 Q1908.37 1469.17 1906.45 1470.95 Q1904.55 1472.73 1904.55 1475.86 Q1904.55 1478.98 1906.45 1480.77 Q1908.37 1482.55 1911.7 1482.55 Q1915.03 1482.55 1916.95 1480.77 Q1918.88 1478.96 1918.88 1475.86 Q1918.88 1472.73 1916.95 1470.95 Q1915.06 1469.17 1911.7 1469.17 M1907.02 1467.18 Q1904.02 1466.44 1902.33 1464.38 Q1900.66 1462.32 1900.66 1459.35 Q1900.66 1455.21 1903.6 1452.8 Q1906.56 1450.39 1911.7 1450.39 Q1916.86 1450.39 1919.8 1452.8 Q1922.74 1455.21 1922.74 1459.35 Q1922.74 1462.32 1921.05 1464.38 Q1919.39 1466.44 1916.4 1467.18 Q1919.78 1467.96 1921.65 1470.26 Q1923.55 1472.55 1923.55 1475.86 Q1923.55 1480.88 1920.47 1483.57 Q1917.42 1486.25 1911.7 1486.25 Q1905.98 1486.25 1902.9 1483.57 Q1899.85 1480.88 1899.85 1475.86 Q1899.85 1472.55 1901.75 1470.26 Q1903.64 1467.96 1907.02 1467.18 M1905.31 1459.79 Q1905.31 1462.48 1906.98 1463.98 Q1908.67 1465.49 1911.7 1465.49 Q1914.71 1465.49 1916.4 1463.98 Q1918.11 1462.48 1918.11 1459.79 Q1918.11 1457.11 1916.4 1455.6 Q1914.71 1454.1 1911.7 1454.1 Q1908.67 1454.1 1906.98 1455.6 Q1905.31 1457.11 1905.31 1459.79 Z" fill="#000000" fill-rule="nonzero" fill-opacity="1" /><path clip-path="url(#clip880)" d="M2327.44 1481.64 L2335.08 1481.64 L2335.08 1455.28 L2326.77 1456.95 L2326.77 1452.69 L2335.04 1451.02 L2339.71 1451.02 L2339.71 1481.64 L2347.35 1481.64 L2347.35 1485.58 L2327.44 1485.58 L2327.44 1481.64 Z" fill="#000000" fill-rule="nonzero" fill-opacity="1" /><path clip-path="url(#clip880)" d="M2366.8 1454.1 Q2363.18 1454.1 2361.36 1457.66 Q2359.55 1461.2 2359.55 1468.33 Q2359.55 1475.44 2361.36 1479.01 Q2363.18 1482.55 2366.8 1482.55 Q2370.43 1482.55 2372.23 1479.01 Q2374.06 1475.44 2374.06 1468.33 Q2374.06 1461.2 2372.23 1457.66 Q2370.43 1454.1 2366.8 1454.1 M2366.8 1450.39 Q2372.61 1450.39 2375.66 1455 Q2378.74 1459.58 2378.74 1468.33 Q2378.74 1477.06 2375.66 1481.67 Q2372.61 1486.25 2366.8 1486.25 Q2360.99 1486.25 2357.91 1481.67 Q2354.85 1477.06 2354.85 1468.33 Q2354.85 1459.58 2357.91 1455 Q2360.99 1450.39 2366.8 1450.39 Z" fill="#000000" fill-rule="nonzero" fill-opacity="1" /><path clip-path="url(#clip880)" d="M1249.18 1522.27 L1249.18 1532.4 L1261.24 1532.4 L1261.24 1536.95 L1249.18 1536.95 L1249.18 1556.3 Q1249.18 1560.66 1250.36 1561.9 Q1251.57 1563.14 1255.23 1563.14 L1261.24 1563.14 L1261.24 1568.04 L1255.23 1568.04 Q1248.45 1568.04 1245.87 1565.53 Q1243.29 1562.98 1243.29 1556.3 L1243.29 1536.95 L1238.99 1536.95 L1238.99 1532.4 L1243.29 1532.4 L1243.29 1522.27 L1249.18 1522.27 Z" fill="#000000" fill-rule="nonzero" fill-opacity="1" /><polyline clip-path="url(#clip882)" style="stroke:#000000; stroke-linecap:round; stroke-linejoin:round; stroke-width:2; stroke-opacity:0.1; fill:none" points="147.478,1238.9 2352.76,1238.9 "/>
<polyline clip-path="url(#clip882)" style="stroke:#000000; stroke-linecap:round; stroke-linejoin:round; stroke-width:2; stroke-opacity:0.1; fill:none" points="147.478,894.077 2352.76,894.077 "/>
<polyline clip-path="url(#clip882)" style="stroke:#000000; stroke-linecap:round; stroke-linejoin:round; stroke-width:2; stroke-opacity:0.1; fill:none" points="147.478,549.255 2352.76,549.255 "/>
<polyline clip-path="url(#clip882)" style="stroke:#000000; stroke-linecap:round; stroke-linejoin:round; stroke-width:2; stroke-opacity:0.1; fill:none" points="147.478,204.434 2352.76,204.434 "/>
<polyline clip-path="url(#clip880)" style="stroke:#000000; stroke-linecap:round; stroke-linejoin:round; stroke-width:4; stroke-opacity:1; fill:none" points="147.478,1423.18 147.478,47.2441 "/>
<polyline clip-path="url(#clip880)" style="stroke:#000000; stroke-linecap:round; stroke-linejoin:round; stroke-width:4; stroke-opacity:1; fill:none" points="147.478,1238.9 166.376,1238.9 "/>
<polyline clip-path="url(#clip880)" style="stroke:#000000; stroke-linecap:round; stroke-linejoin:round; stroke-width:4; stroke-opacity:1; fill:none" points="147.478,894.077 166.376,894.077 "/>
<polyline clip-path="url(#clip880)" style="stroke:#000000; stroke-linecap:round; stroke-linejoin:round; stroke-width:4; stroke-opacity:1; fill:none" points="147.478,549.255 166.376,549.255 "/>
<polyline clip-path="url(#clip880)" style="stroke:#000000; stroke-linecap:round; stroke-linejoin:round; stroke-width:4; stroke-opacity:1; fill:none" points="147.478,204.434 166.376,204.434 "/>
<path clip-path="url(#clip880)" d="M51.3625 1239.35 L81.0383 1239.35 L81.0383 1243.29 L51.3625 1243.29 L51.3625 1239.35 Z" fill="#000000" fill-rule="nonzero" fill-opacity="1" /><path clip-path="url(#clip880)" d="M95.1586 1252.24 L111.478 1252.24 L111.478 1256.18 L89.5336 1256.18 L89.5336 1252.24 Q92.1956 1249.49 96.7789 1244.86 Q101.385 1240.21 102.566 1238.86 Q104.811 1236.34 105.691 1234.6 Q106.594 1232.85 106.594 1231.16 Q106.594 1228.4 104.649 1226.66 Q102.728 1224.93 99.6261 1224.93 Q97.4271 1224.93 94.9734 1225.69 Q92.5428 1226.46 89.7651 1228.01 L89.7651 1223.29 Q92.5891 1222.15 95.0428 1221.57 Q97.4965 1220.99 99.5335 1220.99 Q104.904 1220.99 108.098 1223.68 Q111.293 1226.36 111.293 1230.85 Q111.293 1232.98 110.483 1234.91 Q109.696 1236.8 107.589 1239.4 Q107.01 1240.07 103.909 1243.29 Q100.807 1246.48 95.1586 1252.24 Z" fill="#000000" fill-rule="nonzero" fill-opacity="1" /><path clip-path="url(#clip880)" d="M50.9921 894.528 L80.6679 894.528 L80.6679 898.463 L50.9921 898.463 L50.9921 894.528 Z" fill="#000000" fill-rule="nonzero" fill-opacity="1" /><path clip-path="url(#clip880)" d="M91.5706 907.422 L99.2095 907.422 L99.2095 881.056 L90.8993 882.723 L90.8993 878.464 L99.1632 876.797 L103.839 876.797 L103.839 907.422 L111.478 907.422 L111.478 911.357 L91.5706 911.357 L91.5706 907.422 Z" fill="#000000" fill-rule="nonzero" fill-opacity="1" /><path clip-path="url(#clip880)" d="M99.5335 535.054 Q95.9224 535.054 94.0937 538.619 Q92.2882 542.16 92.2882 549.29 Q92.2882 556.396 94.0937 559.961 Q95.9224 563.503 99.5335 563.503 Q103.168 563.503 104.973 559.961 Q106.802 556.396 106.802 549.29 Q106.802 542.16 104.973 538.619 Q103.168 535.054 99.5335 535.054 M99.5335 531.35 Q105.344 531.35 108.399 535.957 Q111.478 540.54 111.478 549.29 Q111.478 558.017 108.399 562.623 Q105.344 567.207 99.5335 567.207 Q93.7234 567.207 90.6447 562.623 Q87.5892 558.017 87.5892 549.29 Q87.5892 540.54 90.6447 535.957 Q93.7234 531.35 99.5335 531.35 Z" fill="#000000" fill-rule="nonzero" fill-opacity="1" /><path clip-path="url(#clip880)" d="M91.5706 217.778 L99.2095 217.778 L99.2095 191.413 L90.8993 193.08 L90.8993 188.82 L99.1632 187.154 L103.839 187.154 L103.839 217.778 L111.478 217.778 L111.478 221.714 L91.5706 221.714 L91.5706 217.778 Z" fill="#000000" fill-rule="nonzero" fill-opacity="1" /><polyline clip-path="url(#clip882)" style="stroke:#009af9; stroke-linecap:round; stroke-linejoin:round; stroke-width:4; stroke-opacity:1; fill:none" points="147.478,549.255 149.685,554.031 151.893,558.743 154.1,563.393 156.308,567.982 158.515,572.509 160.723,576.977 162.93,581.385 165.138,585.735 167.345,590.027 169.553,594.262 171.76,598.441 173.968,602.565 176.175,606.634 178.383,610.649 180.59,614.611 182.798,618.52 185.005,622.377 187.213,626.184 189.42,629.939 191.628,633.645 193.835,637.302 196.043,640.911 198.25,644.471 200.458,647.985 202.665,651.452 204.873,654.872 207.08,658.248 209.288,661.579 211.495,664.865 213.702,668.108 215.91,671.308 218.117,674.466 220.325,677.581 222.532,680.656 224.74,683.689 226.947,686.683 229.155,689.637 231.362,692.551 233.57,695.427 235.777,698.265 237.985,701.065 240.192,703.828 242.4,706.555 244.607,709.245 246.815,711.9 249.022,714.519 251.23,717.104 253.437,719.654 255.645,722.171 257.852,724.654 260.06,727.104 262.267,729.522 264.475,731.908 266.682,734.262 268.89,736.585 271.097,738.877 273.305,741.139 275.512,743.371 277.72,745.573 279.927,747.746 282.135,749.89 284.342,752.006 286.549,754.093 288.757,756.153 290.964,758.186 293.172,760.192 295.379,762.171 297.587,764.124 299.794,766.051 302.002,767.953 304.209,769.829 306.417,771.68 308.624,773.507 310.832,775.31 313.039,777.088 315.247,778.843 317.454,780.575 319.662,782.284 321.869,783.97 324.077,785.634 326.284,787.276 328.492,788.896 330.699,790.495 332.907,792.072 335.114,793.629 337.322,795.164 339.529,796.68 341.737,798.175 343.944,799.651 346.152,801.107 348.359,802.544 350.567,803.961 352.774,805.36 354.982,806.74 357.189,808.102 359.397,809.446 361.604,810.773 363.811,812.081 366.019,813.298 368.226,813.365 370.434,812.066 372.641,809.558 374.849,805.991 377.056,801.504 379.264,796.232 381.471,790.298 383.679,783.819 385.886,776.905 388.094,769.656 390.301,762.164 392.509,754.514 394.716,746.783 396.924,739.039 399.131,731.343 401.339,723.746 403.546,716.294 405.754,709.022 407.961,701.958 410.169,695.123 412.376,688.53 414.584,682.181 416.791,676.073 418.999,670.193 421.206,664.523 423.414,659.033 425.621,653.687 427.829,648.442 430.036,643.244 432.244,638.034 434.451,632.744 436.659,627.446 438.866,622.218 441.073,617.06 443.281,611.97 445.488,606.948 447.696,601.992 449.903,597.101 452.111,592.276 454.318,587.515 456.526,582.816 458.733,578.18 460.941,573.606 463.148,569.092 465.356,564.638 467.563,560.243 469.771,555.906 471.978,551.627 474.186,547.404 476.393,543.237 478.601,539.125 480.808,535.068 483.016,531.065 485.223,527.115 487.431,523.217 489.638,519.371 491.846,515.576 494.053,511.832 496.261,508.137 498.468,504.491 500.676,500.893 502.883,497.344 505.091,493.841 507.298,490.385 509.506,486.974 511.713,483.609 513.921,480.289 516.128,477.012 518.335,473.779 520.543,470.589 522.75,467.441 524.958,464.335 527.165,461.27 529.373,458.246 531.58,455.262 533.788,452.317 535.995,449.411 538.203,446.544 540.41,443.715 542.618,440.923 544.825,438.168 547.033,435.45 549.24,432.768 551.448,430.121 553.655,427.51 555.863,424.933 558.07,422.39 560.278,419.881 562.485,417.405 564.693,414.962 566.9,412.551 569.108,410.173 571.315,407.826 573.523,405.51 575.73,403.225 577.938,400.97 580.145,398.745 582.353,396.549 584.56,394.383 586.768,392.298 588.975,390.977 591.182,390.541 593.39,390.882 595.597,391.9 597.805,393.499 600.012,395.59 602.22,398.089 604.427,400.919 606.635,404.008 608.842,407.291 611.05,410.707 613.257,414.202 615.465,417.73 617.672,421.247 619.88,424.717 622.087,428.11 624.295,431.402 626.502,434.574 628.71,437.614 630.917,440.515 633.125,443.276 635.332,445.903 637.54,448.407 639.747,450.804 641.955,453.118 644.162,455.377 646.37,457.616 648.577,459.876 650.785,462.201 652.992,464.537 655.2,466.843 657.407,469.118 659.615,471.362 661.822,473.577 664.03,475.763 666.237,477.919 668.444,480.047 670.652,482.147 672.859,484.219 675.067,486.263 677.274,488.281 679.482,490.271 681.689,492.235 683.897,494.174 686.104,496.086 688.312,497.973 690.519,499.835 692.727,501.673 694.934,503.486 697.142,505.275 699.349,507.041 701.557,508.783 703.764,510.502 705.972,512.198 708.179,513.872 710.387,515.523 712.594,517.153 714.802,518.761 717.009,520.348 719.217,521.913 721.424,523.458 723.632,524.982 725.839,526.486 728.047,527.97 730.254,529.435 732.462,530.879 734.669,532.305 736.877,533.712 739.084,535.1 741.292,536.47 743.499,537.821 745.706,539.155 747.914,540.471 750.121,541.769 752.329,543.051 754.536,544.315 756.744,545.562 758.951,546.793 761.159,548.008 763.366,549.207 765.574,550.39 767.781,551.557 769.989,552.708 772.196,553.845 774.404,554.966 776.611,556.072 778.819,557.164 781.026,558.242 783.234,559.305 785.441,560.354 787.649,561.389 789.856,562.41 792.064,563.418 794.271,564.412 796.479,565.393 798.686,566.362 800.894,567.317 803.101,568.26 805.309,569.19 807.516,570.108 809.724,567.348 811.931,560.934 814.139,554.64 816.346,548.429 818.553,542.301 820.761,536.254 822.968,530.287 825.176,524.399 827.383,518.589 829.591,512.856 831.798,507.199 834.006,501.617 836.213,496.11 838.421,490.675 840.628,485.312 842.836,480.02 845.043,474.799 847.251,469.647 849.458,464.563 851.666,459.546 853.873,454.596 856.081,449.712 858.288,444.892 860.496,440.137 862.703,435.444 864.911,430.813 867.118,426.244 869.326,421.736 871.533,417.287 873.741,412.897 875.948,408.566 878.156,404.292 880.363,400.074 882.571,395.913 884.778,391.806 886.986,387.754 889.193,383.756 891.401,379.811 893.608,375.918 895.815,372.077 898.023,368.286 900.23,364.546 902.438,360.856 904.645,357.214 906.853,353.621 909.06,350.075 911.268,346.577 913.475,343.124 915.683,339.718 917.89,336.357 920.098,333.04 922.305,329.767 924.513,326.538 926.72,323.351 928.928,320.207 931.135,317.104 933.343,314.042 935.55,311.021 937.758,308.04 939.965,305.099 942.173,302.197 944.38,299.333 946.588,296.507 948.795,293.719 951.003,290.967 953.21,288.252 955.418,285.573 957.625,282.93 959.833,280.321 962.04,277.748 964.248,275.208 966.455,272.702 968.663,270.229 970.87,267.789 973.077,265.381 975.285,263.005 977.492,260.661 979.7,258.348 981.907,256.065 984.115,253.813 986.322,251.591 988.53,249.398 990.737,247.234 992.945,245.099 995.152,242.992 997.36,240.913 999.567,238.862 1001.77,236.837 1003.98,234.84 1006.19,232.869 1008.4,230.924 1010.6,229.006 1012.81,227.112 1015.02,225.244 1017.23,223.4 1019.43,221.581 1021.64,219.819 1023.85,220.188 1026.06,223.611 1028.26,229.683 1030.47,238.021 1032.68,248.271 1034.89,260.099 1037.09,273.197 1039.3,287.281 1041.51,302.093 1043.72,317.396 1045.92,332.98 1048.13,348.658 1050.34,364.269 1052.55,379.674 1054.75,394.76 1056.96,409.437 1059.17,423.64 1061.38,437.33 1063.58,450.489 1065.79,463.126 1068,475.273 1070.21,486.986 1072.41,498.347 1074.62,509.461 1076.83,520.458 1079.04,531.491 1081.24,542.705 1083.45,553.862 1085.66,564.872 1087.87,575.735 1090.07,586.454 1092.28,597.031 1094.49,607.468 1096.7,617.766 1098.9,627.928 1101.11,637.955 1103.32,647.849 1105.53,657.612 1107.73,667.246 1109.94,676.752 1112.15,686.132 1114.36,695.387 1116.56,704.52 1118.77,713.532 1120.98,722.425 1123.19,731.199 1125.39,739.858 1127.6,748.401 1129.81,756.832 1132.02,765.15 1134.22,773.358 1136.43,781.458 1138.64,789.45 1140.85,797.336 1143.05,805.117 1145.26,812.795 1147.47,820.371 1149.68,827.847 1151.88,835.223 1154.09,842.502 1156.3,849.684 1158.51,856.771 1160.71,863.764 1162.92,870.664 1165.13,877.472 1167.34,884.191 1169.54,890.82 1171.75,897.362 1173.96,903.816 1176.17,910.186 1178.37,916.47 1180.58,922.672 1182.79,928.791 1185,934.83 1187.2,940.788 1189.41,946.667 1191.62,952.468 1193.83,958.193 1196.03,963.841 1198.24,969.415 1200.45,974.915 1202.66,980.342 1204.86,985.696 1207.07,990.98 1209.28,996.194 1211.49,1001.34 1213.69,1006.42 1215.9,1011.42 1218.11,1016.37 1220.32,1021.24 1222.52,1026.06 1224.73,1030.81 1226.94,1035.49 1229.15,1040.12 1231.35,1044.68 1233.56,1049.18 1235.77,1053.62 1237.98,1058.01 1240.18,1063.43 1242.39,1069.72 1244.6,1074.89 1246.81,1077.58 1249.01,1077.09 1251.22,1073.39 1253.43,1067.09 1255.64,1059.46 1257.84,1052.28 1260.05,1045.54 1262.26,1038.89 1264.47,1032.33 1266.67,1025.85 1268.88,1019.46 1271.09,1013.16 1273.3,1006.94 1275.5,1000.8 1277.71,994.739 1279.92,988.762 1282.13,982.864 1284.33,977.045 1286.54,971.302 1288.75,965.636 1290.96,960.045 1293.16,954.528 1295.37,949.084 1297.58,943.713 1299.79,938.412 1301.99,933.182 1304.2,928.022 1306.41,922.929 1308.62,917.905 1310.82,912.947 1313.03,908.054 1315.24,903.227 1317.45,898.463 1319.65,893.763 1321.86,889.125 1324.07,884.548 1326.28,880.032 1328.48,875.576 1330.69,871.179 1332.9,866.841 1335.11,862.559 1337.31,858.335 1339.52,854.166 1341.73,850.053 1343.94,845.994 1346.14,841.99 1348.35,838.038 1350.56,834.138 1352.76,830.291 1354.97,826.494 1357.18,822.748 1359.39,819.051 1361.59,815.403 1363.8,811.804 1366.01,808.253 1368.22,804.748 1370.42,801.29 1372.63,797.878 1374.84,794.511 1377.05,791.189 1379.25,787.911 1381.46,784.676 1383.67,781.484 1385.88,778.335 1388.08,775.227 1390.29,772.161 1392.5,769.135 1394.71,766.149 1396.91,763.203 1399.12,760.295 1401.33,757.427 1403.54,754.596 1405.74,751.803 1407.95,749.047 1410.16,746.327 1412.37,743.644 1414.57,740.996 1416.78,738.383 1418.99,735.805 1421.2,733.261 1423.4,730.751 1425.61,728.274 1427.82,725.83 1430.03,723.418 1432.23,721.039 1434.44,718.69 1436.65,716.373 1438.86,714.087 1441.06,711.831 1443.27,709.605 1445.48,707.408 1447.69,705.241 1449.89,703.102 1452.1,700.992 1454.31,698.909 1456.52,696.855 1458.72,694.827 1460.93,692.826 1463.14,690.852 1465.35,688.904 1467.55,687.029 1469.76,686.025 1471.97,686.063 1474.18,686.993 1476.38,688.675 1478.59,690.979 1480.8,693.785 1483.01,696.983 1485.21,700.473 1487.42,704.165 1489.63,707.978 1491.84,711.842 1494.04,715.697 1496.25,719.491 1498.46,723.185 1500.67,726.748 1502.87,730.158 1505.08,733.405 1507.29,736.488 1509.5,739.416 1511.7,742.207 1513.91,744.892 1516.12,747.507 1518.33,750.103 1520.53,752.737 1522.74,755.44 1524.95,758.116 1527.16,760.758 1529.36,763.364 1531.57,765.936 1533.78,768.474 1535.99,770.978 1538.19,773.449 1540.4,775.887 1542.61,778.293 1544.82,780.667 1547.02,783.009 1549.23,785.321 1551.44,787.601 1553.65,789.852 1555.85,792.073 1558.06,794.264 1560.27,796.426 1562.48,798.56 1564.68,800.665 1566.89,802.742 1569.1,804.792 1571.31,806.815 1573.51,808.811 1575.72,810.781 1577.93,812.724 1580.14,814.642 1582.34,816.534 1584.55,818.401 1586.76,820.243 1588.97,822.061 1591.17,823.855 1593.38,825.625 1595.59,827.371 1597.8,829.095 1600,830.795 1602.21,832.473 1604.42,834.128 1606.63,835.762 1608.83,837.374 1611.04,838.964 1613.25,840.534 1615.46,842.082 1617.66,843.611 1619.87,845.118 1622.08,846.606 1624.29,848.074 1626.49,849.523 1628.7,850.952 1630.91,852.363 1633.12,853.755 1635.32,855.128 1637.53,856.483 1639.74,857.82 1641.95,859.14 1644.15,860.442 1646.36,861.727 1648.57,863.024 1650.78,864.422 1652.98,865.9 1655.19,867.43 1657.4,868.986 1659.61,870.542 1661.81,872.077 1664.02,873.57 1666.23,875 1668.44,876.352 1670.64,877.61 1672.85,878.759 1675.06,879.789 1677.27,880.688 1679.47,881.449 1681.68,882.065 1683.89,882.532 1686.1,882.846 1688.3,883.007 1690.51,883.015 1692.72,882.873 1694.93,882.584 1697.13,882.156 1699.34,881.596 1701.55,880.914 1703.76,880.122 1705.96,879.232 1708.17,878.26 1710.38,877.222 1712.59,876.138 1714.79,875.028 1717,873.915 1719.21,872.821 1721.42,871.775 1723.62,870.802 1725.83,869.913 1728.04,869.044 1730.25,868.186 1732.45,867.339 1734.66,866.504 1736.87,865.679 1739.07,864.866 1741.28,864.063 1743.49,863.271 1745.7,862.49 1747.9,861.719 1750.11,860.958 1752.32,860.207 1754.53,859.467 1756.73,858.736 1758.94,858.014 1761.15,857.303 1763.36,856.6 1765.56,855.907 1767.77,855.223 1769.98,854.549 1772.19,853.883 1774.39,853.226 1776.6,852.578 1778.81,851.938 1781.02,851.307 1783.22,850.684 1785.43,850.069 1787.64,849.463 1789.85,848.865 1792.05,848.274 1794.26,847.691 1796.47,847.117 1798.68,846.549 1800.88,845.99 1803.09,845.437 1805.3,844.892 1807.51,844.355 1809.71,843.824 1811.92,843.3 1814.13,842.784 1816.34,842.274 1818.54,841.771 1820.75,841.274 1822.96,840.785 1825.17,840.301 1827.37,839.825 1829.58,839.354 1831.79,838.89 1834,838.431 1836.2,837.979 1838.41,837.533 1840.62,837.093 1842.83,836.659 1845.03,836.23 1847.24,835.807 1849.45,835.39 1851.66,834.978 1853.86,834.572 1856.07,834.171 1858.28,833.775 1860.49,833.385 1862.69,833 1864.9,832.619 1867.11,832.244 1869.32,831.874 1871.52,831.509 1873.73,831.149 1875.94,830.793 1878.15,830.442 1880.35,830.096 1882.56,829.755 1884.77,829.418 1886.98,829.085 1889.18,828.757 1891.39,828.433 1893.6,828.113 1895.81,827.798 1898.01,827.487 1900.22,827.18 1902.43,826.877 1904.64,826.578 1906.84,826.283 1909.05,825.772 1911.26,824.603 1913.47,822.827 1915.67,820.511 1917.88,817.718 1920.09,814.508 1922.3,810.937 1924.5,807.06 1926.71,802.926 1928.92,798.584 1931.13,794.078 1933.33,789.448 1935.54,784.733 1937.75,779.968 1939.96,775.185 1942.16,770.412 1944.37,765.675 1946.58,760.996 1948.79,756.395 1950.99,751.889 1953.2,747.489 1955.41,743.206 1957.62,739.047 1959.82,735.015 1962.03,731.112 1964.24,727.334 1966.45,723.677 1968.65,720.13 1970.86,716.683 1973.07,713.32 1975.28,710.024 1977.48,706.772 1979.69,703.541 1981.9,700.303 1984.11,697.034 1986.31,693.786 1988.52,690.582 1990.73,687.42 1992.94,684.3 1995.14,681.221 1997.35,678.183 1999.56,675.185 2001.77,672.227 2003.97,669.309 2006.18,666.429 2008.39,663.587 2010.6,660.783 2012.8,658.016 2015.01,655.286 2017.22,652.592 2019.43,649.933 2021.63,647.31 2023.84,644.722 2026.05,642.167 2028.26,639.647 2030.46,637.16 2032.67,634.706 2034.88,632.284 2037.09,629.895 2039.29,627.537 2041.5,625.21 2043.71,622.914 2045.92,620.649 2048.12,618.414 2050.33,616.208 2052.54,614.032 2054.75,611.885 2056.95,609.766 2059.16,607.675 2061.37,605.612 2063.58,603.576 2065.78,601.568 2067.99,599.586 2070.2,597.63 2072.41,595.701 2074.61,593.797 2076.82,591.918 2079.03,590.065 2081.24,588.236 2083.44,586.431 2085.65,584.65 2087.86,582.893 2090.07,581.159 2092.27,579.448 2094.48,577.76 2096.69,576.094 2098.9,574.45 2101.1,572.828 2103.31,571.227 2105.52,569.648 2107.73,568.09 2109.93,566.552 2112.14,565.034 2114.35,563.537 2116.55,562.059 2118.76,560.601 2120.97,559.163 2123.18,557.743 2125.38,556.342 2127.59,554.96 2129.8,553.596 2132.01,552.251 2134.21,553.07 2136.42,554.063 2138.63,555.043 2140.84,556.009 2143.04,556.963 2145.25,557.904 2147.46,558.833 2149.67,559.749 2151.87,560.654 2154.08,561.546 2156.29,562.426 2158.5,563.295 2160.7,564.152 2162.91,564.998 2165.12,565.833 2167.33,566.656 2169.53,567.469 2171.74,568.271 2173.95,569.062 2176.16,569.843 2178.36,570.614 2180.57,571.374 2182.78,572.124 2184.99,572.864 2187.19,573.594 2189.4,574.315 2191.61,575.026 2193.82,575.728 2196.02,576.42 2198.23,577.104 2200.44,577.778 2202.65,578.443 2204.85,579.099 2207.06,579.747 2209.27,580.386 2211.48,581.017 2213.68,581.639 2215.89,582.253 2218.1,582.859 2220.31,583.457 2222.51,584.047 2224.72,584.629 2226.93,585.203 2229.14,585.77 2231.34,586.33 2233.55,586.881 2235.76,587.426 2237.97,587.963 2240.17,588.493 2242.38,589.017 2244.59,589.533 2246.8,590.042 2249,590.545 2251.21,591.041 2253.42,591.53 2255.63,592.013 2257.83,592.49 2260.04,592.96 2262.25,593.424 2264.46,593.882 2266.66,594.333 2268.87,594.779 2271.08,595.219 2273.29,595.653 2275.49,596.081 2277.7,596.504 2279.91,596.921 2282.12,597.332 2284.32,597.738 2286.53,598.139 2288.74,598.534 2290.95,598.924 2293.15,599.309 2295.36,599.689 2297.57,600.063 2299.78,600.433 2301.98,600.798 2304.19,601.158 2306.4,601.513 2308.61,601.864 2310.81,602.21 2313.02,602.551 2315.23,602.888 2317.44,603.22 2319.64,603.548 2321.85,603.872 2324.06,604.191 2326.27,604.506 2328.47,604.817 2330.68,605.124 2332.89,605.426 2335.1,605.725 2337.3,606.02 2339.51,606.31 2341.72,606.597 2343.93,606.88 2346.13,607.16 2348.34,607.436 2350.55,607.708 2352.76,607.976 "/>
<polyline clip-path="url(#clip882)" style="stroke:#e26f46; stroke-linecap:round; stroke-linejoin:round; stroke-width:4; stroke-opacity:1; fill:none" points="147.478,909.472 149.685,909.472 151.893,909.472 154.1,909.472 156.308,909.472 158.515,909.472 160.723,909.472 162.93,909.472 165.138,909.472 167.345,909.472 169.553,909.472 171.76,909.472 173.968,909.472 176.175,909.472 178.383,909.472 180.59,909.472 182.798,909.472 185.005,909.472 187.213,909.472 189.42,909.472 191.628,909.472 193.835,909.472 196.043,909.472 198.25,909.472 200.458,909.472 202.665,909.472 204.873,909.472 207.08,909.472 209.288,909.472 211.495,909.472 213.702,909.472 215.91,909.472 218.117,909.472 220.325,909.472 222.532,909.472 224.74,909.472 226.947,909.472 229.155,909.472 231.362,909.472 233.57,909.472 235.777,909.472 237.985,909.472 240.192,909.472 242.4,909.472 244.607,909.472 246.815,909.472 249.022,909.472 251.23,909.472 253.437,909.472 255.645,909.472 257.852,909.472 260.06,909.472 262.267,909.472 264.475,909.472 266.682,909.472 268.89,909.472 271.097,909.472 273.305,909.472 275.512,909.472 277.72,909.472 279.927,909.472 282.135,909.472 284.342,909.472 286.549,909.472 288.757,909.472 290.964,909.472 293.172,909.472 295.379,909.472 297.587,909.472 299.794,909.472 302.002,909.472 304.209,909.472 306.417,909.472 308.624,909.472 310.832,909.472 313.039,909.472 315.247,909.472 317.454,909.472 319.662,909.472 321.869,909.472 324.077,909.472 326.284,909.472 328.492,909.472 330.699,909.472 332.907,909.472 335.114,909.472 337.322,909.472 339.529,909.472 341.737,909.472 343.944,909.472 346.152,909.472 348.359,909.472 350.567,909.472 352.774,909.472 354.982,909.472 357.189,909.472 359.397,909.472 361.604,909.472 363.811,909.472 366.019,909.472 368.226,233.142 370.434,233.142 372.641,233.142 374.849,233.142 377.056,233.142 379.264,233.142 381.471,233.142 383.679,233.142 385.886,233.142 388.094,233.142 390.301,233.142 392.509,233.142 394.716,233.142 396.924,233.142 399.131,233.142 401.339,233.142 403.546,233.142 405.754,233.142 407.961,233.142 410.169,233.142 412.376,233.142 414.584,233.142 416.791,233.142 418.999,233.142 421.206,233.142 423.414,233.142 425.621,233.142 427.829,233.142 430.036,233.142 432.244,233.142 434.451,233.142 436.659,233.142 438.866,233.142 441.073,233.142 443.281,233.142 445.488,233.142 447.696,233.142 449.903,233.142 452.111,233.142 454.318,233.142 456.526,233.142 458.733,233.142 460.941,233.142 463.148,233.142 465.356,233.142 467.563,233.142 469.771,233.142 471.978,233.142 474.186,233.142 476.393,233.142 478.601,233.142 480.808,233.142 483.016,233.142 485.223,233.142 487.431,233.142 489.638,233.142 491.846,233.142 494.053,233.142 496.261,233.142 498.468,233.142 500.676,233.142 502.883,233.142 505.091,233.142 507.298,233.142 509.506,233.142 511.713,233.142 513.921,233.142 516.128,233.142 518.335,233.142 520.543,233.142 522.75,233.142 524.958,233.142 527.165,233.142 529.373,233.142 531.58,233.142 533.788,233.142 535.995,233.142 538.203,233.142 540.41,233.142 542.618,233.142 544.825,233.142 547.033,233.142 549.24,233.142 551.448,233.142 553.655,233.142 555.863,233.142 558.07,233.142 560.278,233.142 562.485,233.142 564.693,233.142 566.9,233.142 569.108,233.142 571.315,233.142 573.523,233.142 575.73,233.142 577.938,233.142 580.145,233.142 582.353,233.142 584.56,233.142 586.768,233.142 588.975,638.424 591.182,638.424 593.39,638.424 595.597,638.424 597.805,638.424 600.012,638.424 602.22,638.424 604.427,638.424 606.635,638.424 608.842,638.424 611.05,638.424 613.257,638.424 615.465,638.424 617.672,638.424 619.88,638.424 622.087,638.424 624.295,638.424 626.502,638.424 628.71,638.424 630.917,638.424 633.125,638.424 635.332,638.424 637.54,638.424 639.747,638.424 641.955,638.424 644.162,638.424 646.37,638.424 648.577,638.424 650.785,638.424 652.992,638.424 655.2,638.424 657.407,638.424 659.615,638.424 661.822,638.424 664.03,638.424 666.237,638.424 668.444,638.424 670.652,638.424 672.859,638.424 675.067,638.424 677.274,638.424 679.482,638.424 681.689,638.424 683.897,638.424 686.104,638.424 688.312,638.424 690.519,638.424 692.727,638.424 694.934,638.424 697.142,638.424 699.349,638.424 701.557,638.424 703.764,638.424 705.972,638.424 708.179,638.424 710.387,638.424 712.594,638.424 714.802,638.424 717.009,638.424 719.217,638.424 721.424,638.424 723.632,638.424 725.839,638.424 728.047,638.424 730.254,638.424 732.462,638.424 734.669,638.424 736.877,638.424 739.084,638.424 741.292,638.424 743.499,638.424 745.706,638.424 747.914,638.424 750.121,638.424 752.329,638.424 754.536,638.424 756.744,638.424 758.951,638.424 761.159,638.424 763.366,638.424 765.574,638.424 767.781,638.424 769.989,638.424 772.196,638.424 774.404,638.424 776.611,638.424 778.819,638.424 781.026,638.424 783.234,638.424 785.441,638.424 787.649,638.424 789.856,638.424 792.064,638.424 794.271,638.424 796.479,638.424 798.686,638.424 800.894,638.424 803.101,638.424 805.309,638.424 807.516,638.424 809.724,86.1857 811.931,86.1857 814.139,86.1857 816.346,86.1857 818.553,86.1857 820.761,86.1857 822.968,86.1857 825.176,86.1857 827.383,86.1857 829.591,86.1857 831.798,86.1857 834.006,86.1857 836.213,86.1857 838.421,86.1857 840.628,86.1857 842.836,86.1857 845.043,86.1857 847.251,86.1857 849.458,86.1857 851.666,86.1857 853.873,86.1857 856.081,86.1857 858.288,86.1857 860.496,86.1857 862.703,86.1857 864.911,86.1857 867.118,86.1857 869.326,86.1857 871.533,86.1857 873.741,86.1857 875.948,86.1857 878.156,86.1857 880.363,86.1857 882.571,86.1857 884.778,86.1857 886.986,86.1857 889.193,86.1857 891.401,86.1857 893.608,86.1857 895.815,86.1857 898.023,86.1857 900.23,86.1857 902.438,86.1857 904.645,86.1857 906.853,86.1857 909.06,86.1857 911.268,86.1857 913.475,86.1857 915.683,86.1857 917.89,86.1857 920.098,86.1857 922.305,86.1857 924.513,86.1857 926.72,86.1857 928.928,86.1857 931.135,86.1857 933.343,86.1857 935.55,86.1857 937.758,86.1857 939.965,86.1857 942.173,86.1857 944.38,86.1857 946.588,86.1857 948.795,86.1857 951.003,86.1857 953.21,86.1857 955.418,86.1857 957.625,86.1857 959.833,86.1857 962.04,86.1857 964.248,86.1857 966.455,86.1857 968.663,86.1857 970.87,86.1857 973.077,86.1857 975.285,86.1857 977.492,86.1857 979.7,86.1857 981.907,86.1857 984.115,86.1857 986.322,86.1857 988.53,86.1857 990.737,86.1857 992.945,86.1857 995.152,86.1857 997.36,86.1857 999.567,86.1857 1001.77,86.1857 1003.98,86.1857 1006.19,86.1857 1008.4,86.1857 1010.6,86.1857 1012.81,86.1857 1015.02,86.1857 1017.23,86.1857 1019.43,86.1857 1021.64,86.1857 1023.85,86.1857 1026.06,86.1857 1028.26,86.1857 1030.47,1384.24 1032.68,1384.24 1034.89,1384.24 1037.09,1384.24 1039.3,1384.24 1041.51,1384.24 1043.72,1384.24 1045.92,1384.24 1048.13,1384.24 1050.34,1384.24 1052.55,1384.24 1054.75,1384.24 1056.96,1384.24 1059.17,1384.24 1061.38,1384.24 1063.58,1384.24 1065.79,1384.24 1068,1384.24 1070.21,1384.24 1072.41,1384.24 1074.62,1384.24 1076.83,1384.24 1079.04,1384.24 1081.24,1384.24 1083.45,1384.24 1085.66,1384.24 1087.87,1384.24 1090.07,1384.24 1092.28,1384.24 1094.49,1384.24 1096.7,1384.24 1098.9,1384.24 1101.11,1384.24 1103.32,1384.24 1105.53,1384.24 1107.73,1384.24 1109.94,1384.24 1112.15,1384.24 1114.36,1384.24 1116.56,1384.24 1118.77,1384.24 1120.98,1384.24 1123.19,1384.24 1125.39,1384.24 1127.6,1384.24 1129.81,1384.24 1132.02,1384.24 1134.22,1384.24 1136.43,1384.24 1138.64,1384.24 1140.85,1384.24 1143.05,1384.24 1145.26,1384.24 1147.47,1384.24 1149.68,1384.24 1151.88,1384.24 1154.09,1384.24 1156.3,1384.24 1158.51,1384.24 1160.71,1384.24 1162.92,1384.24 1165.13,1384.24 1167.34,1384.24 1169.54,1384.24 1171.75,1384.24 1173.96,1384.24 1176.17,1384.24 1178.37,1384.24 1180.58,1384.24 1182.79,1384.24 1185,1384.24 1187.2,1384.24 1189.41,1384.24 1191.62,1384.24 1193.83,1384.24 1196.03,1384.24 1198.24,1384.24 1200.45,1384.24 1202.66,1384.24 1204.86,1384.24 1207.07,1384.24 1209.28,1384.24 1211.49,1384.24 1213.69,1384.24 1215.9,1384.24 1218.11,1384.24 1220.32,1384.24 1222.52,1384.24 1224.73,1384.24 1226.94,1384.24 1229.15,1384.24 1231.35,1384.24 1233.56,1384.24 1235.77,1384.24 1237.98,1384.24 1240.18,1384.24 1242.39,1384.24 1244.6,1384.24 1246.81,1384.24 1249.01,1384.24 1251.22,543.925 1253.43,543.925 1255.64,543.925 1257.84,543.925 1260.05,543.925 1262.26,543.925 1264.47,543.925 1266.67,543.925 1268.88,543.925 1271.09,543.925 1273.3,543.925 1275.5,543.925 1277.71,543.925 1279.92,543.925 1282.13,543.925 1284.33,543.925 1286.54,543.925 1288.75,543.925 1290.96,543.925 1293.16,543.925 1295.37,543.925 1297.58,543.925 1299.79,543.925 1301.99,543.925 1304.2,543.925 1306.41,543.925 1308.62,543.925 1310.82,543.925 1313.03,543.925 1315.24,543.925 1317.45,543.925 1319.65,543.925 1321.86,543.925 1324.07,543.925 1326.28,543.925 1328.48,543.925 1330.69,543.925 1332.9,543.925 1335.11,543.925 1337.31,543.925 1339.52,543.925 1341.73,543.925 1343.94,543.925 1346.14,543.925 1348.35,543.925 1350.56,543.925 1352.76,543.925 1354.97,543.925 1357.18,543.925 1359.39,543.925 1361.59,543.925 1363.8,543.925 1366.01,543.925 1368.22,543.925 1370.42,543.925 1372.63,543.925 1374.84,543.925 1377.05,543.925 1379.25,543.925 1381.46,543.925 1383.67,543.925 1385.88,543.925 1388.08,543.925 1390.29,543.925 1392.5,543.925 1394.71,543.925 1396.91,543.925 1399.12,543.925 1401.33,543.925 1403.54,543.925 1405.74,543.925 1407.95,543.925 1410.16,543.925 1412.37,543.925 1414.57,543.925 1416.78,543.925 1418.99,543.925 1421.2,543.925 1423.4,543.925 1425.61,543.925 1427.82,543.925 1430.03,543.925 1432.23,543.925 1434.44,543.925 1436.65,543.925 1438.86,543.925 1441.06,543.925 1443.27,543.925 1445.48,543.925 1447.69,543.925 1449.89,543.925 1452.1,543.925 1454.31,543.925 1456.52,543.925 1458.72,543.925 1460.93,543.925 1463.14,543.925 1465.35,543.925 1467.55,543.925 1469.76,543.925 1471.97,957.349 1474.18,957.349 1476.38,957.349 1478.59,957.349 1480.8,957.349 1483.01,957.349 1485.21,957.349 1487.42,957.349 1489.63,957.349 1491.84,957.349 1494.04,957.349 1496.25,957.349 1498.46,957.349 1500.67,957.349 1502.87,957.349 1505.08,957.349 1507.29,957.349 1509.5,957.349 1511.7,957.349 1513.91,957.349 1516.12,957.349 1518.33,957.349 1520.53,957.349 1522.74,957.349 1524.95,957.349 1527.16,957.349 1529.36,957.349 1531.57,957.349 1533.78,957.349 1535.99,957.349 1538.19,957.349 1540.4,957.349 1542.61,957.349 1544.82,957.349 1547.02,957.349 1549.23,957.349 1551.44,957.349 1553.65,957.349 1555.85,957.349 1558.06,957.349 1560.27,957.349 1562.48,957.349 1564.68,957.349 1566.89,957.349 1569.1,957.349 1571.31,957.349 1573.51,957.349 1575.72,957.349 1577.93,957.349 1580.14,957.349 1582.34,957.349 1584.55,957.349 1586.76,957.349 1588.97,957.349 1591.17,957.349 1593.38,957.349 1595.59,957.349 1597.8,957.349 1600,957.349 1602.21,957.349 1604.42,957.349 1606.63,957.349 1608.83,957.349 1611.04,957.349 1613.25,957.349 1615.46,957.349 1617.66,957.349 1619.87,957.349 1622.08,957.349 1624.29,957.349 1626.49,957.349 1628.7,957.349 1630.91,957.349 1633.12,957.349 1635.32,957.349 1637.53,957.349 1639.74,957.349 1641.95,957.349 1644.15,957.349 1646.36,957.349 1648.57,957.349 1650.78,957.349 1652.98,957.349 1655.19,957.349 1657.4,957.349 1659.61,957.349 1661.81,957.349 1664.02,957.349 1666.23,957.349 1668.44,957.349 1670.64,957.349 1672.85,957.349 1675.06,957.349 1677.27,957.349 1679.47,957.349 1681.68,957.349 1683.89,957.349 1686.1,957.349 1688.3,957.349 1690.51,957.349 1692.72,804.331 1694.93,804.331 1697.13,804.331 1699.34,804.331 1701.55,804.331 1703.76,804.331 1705.96,804.331 1708.17,804.331 1710.38,804.331 1712.59,804.331 1714.79,804.331 1717,804.331 1719.21,804.331 1721.42,804.331 1723.62,804.331 1725.83,804.331 1728.04,804.331 1730.25,804.331 1732.45,804.331 1734.66,804.331 1736.87,804.331 1739.07,804.331 1741.28,804.331 1743.49,804.331 1745.7,804.331 1747.9,804.331 1750.11,804.331 1752.32,804.331 1754.53,804.331 1756.73,804.331 1758.94,804.331 1761.15,804.331 1763.36,804.331 1765.56,804.331 1767.77,804.331 1769.98,804.331 1772.19,804.331 1774.39,804.331 1776.6,804.331 1778.81,804.331 1781.02,804.331 1783.22,804.331 1785.43,804.331 1787.64,804.331 1789.85,804.331 1792.05,804.331 1794.26,804.331 1796.47,804.331 1798.68,804.331 1800.88,804.331 1803.09,804.331 1805.3,804.331 1807.51,804.331 1809.71,804.331 1811.92,804.331 1814.13,804.331 1816.34,804.331 1818.54,804.331 1820.75,804.331 1822.96,804.331 1825.17,804.331 1827.37,804.331 1829.58,804.331 1831.79,804.331 1834,804.331 1836.2,804.331 1838.41,804.331 1840.62,804.331 1842.83,804.331 1845.03,804.331 1847.24,804.331 1849.45,804.331 1851.66,804.331 1853.86,804.331 1856.07,804.331 1858.28,804.331 1860.49,804.331 1862.69,804.331 1864.9,804.331 1867.11,804.331 1869.32,804.331 1871.52,804.331 1873.73,804.331 1875.94,804.331 1878.15,804.331 1880.35,804.331 1882.56,804.331 1884.77,804.331 1886.98,804.331 1889.18,804.331 1891.39,804.331 1893.6,804.331 1895.81,804.331 1898.01,804.331 1900.22,804.331 1902.43,804.331 1904.64,804.331 1906.84,804.331 1909.05,804.331 1911.26,804.331 1913.47,452.083 1915.67,452.083 1917.88,452.083 1920.09,452.083 1922.3,452.083 1924.5,452.083 1926.71,452.083 1928.92,452.083 1931.13,452.083 1933.33,452.083 1935.54,452.083 1937.75,452.083 1939.96,452.083 1942.16,452.083 1944.37,452.083 1946.58,452.083 1948.79,452.083 1950.99,452.083 1953.2,452.083 1955.41,452.083 1957.62,452.083 1959.82,452.083 1962.03,452.083 1964.24,452.083 1966.45,452.083 1968.65,452.083 1970.86,452.083 1973.07,452.083 1975.28,452.083 1977.48,452.083 1979.69,452.083 1981.9,452.083 1984.11,452.083 1986.31,452.083 1988.52,452.083 1990.73,452.083 1992.94,452.083 1995.14,452.083 1997.35,452.083 1999.56,452.083 2001.77,452.083 2003.97,452.083 2006.18,452.083 2008.39,452.083 2010.6,452.083 2012.8,452.083 2015.01,452.083 2017.22,452.083 2019.43,452.083 2021.63,452.083 2023.84,452.083 2026.05,452.083 2028.26,452.083 2030.46,452.083 2032.67,452.083 2034.88,452.083 2037.09,452.083 2039.29,452.083 2041.5,452.083 2043.71,452.083 2045.92,452.083 2048.12,452.083 2050.33,452.083 2052.54,452.083 2054.75,452.083 2056.95,452.083 2059.16,452.083 2061.37,452.083 2063.58,452.083 2065.78,452.083 2067.99,452.083 2070.2,452.083 2072.41,452.083 2074.61,452.083 2076.82,452.083 2079.03,452.083 2081.24,452.083 2083.44,452.083 2085.65,452.083 2087.86,452.083 2090.07,452.083 2092.27,452.083 2094.48,452.083 2096.69,452.083 2098.9,452.083 2101.1,452.083 2103.31,452.083 2105.52,452.083 2107.73,452.083 2109.93,452.083 2112.14,452.083 2114.35,452.083 2116.55,452.083 2118.76,452.083 2120.97,452.083 2123.18,452.083 2125.38,452.083 2127.59,452.083 2129.8,452.083 2132.01,452.083 2134.21,627.954 2136.42,627.954 2138.63,627.954 2140.84,627.954 2143.04,627.954 2145.25,627.954 2147.46,627.954 2149.67,627.954 2151.87,627.954 2154.08,627.954 2156.29,627.954 2158.5,627.954 2160.7,627.954 2162.91,627.954 2165.12,627.954 2167.33,627.954 2169.53,627.954 2171.74,627.954 2173.95,627.954 2176.16,627.954 2178.36,627.954 2180.57,627.954 2182.78,627.954 2184.99,627.954 2187.19,627.954 2189.4,627.954 2191.61,627.954 2193.82,627.954 2196.02,627.954 2198.23,627.954 2200.44,627.954 2202.65,627.954 2204.85,627.954 2207.06,627.954 2209.27,627.954 2211.48,627.954 2213.68,627.954 2215.89,627.954 2218.1,627.954 2220.31,627.954 2222.51,627.954 2224.72,627.954 2226.93,627.954 2229.14,627.954 2231.34,627.954 2233.55,627.954 2235.76,627.954 2237.97,627.954 2240.17,627.954 2242.38,627.954 2244.59,627.954 2246.8,627.954 2249,627.954 2251.21,627.954 2253.42,627.954 2255.63,627.954 2257.83,627.954 2260.04,627.954 2262.25,627.954 2264.46,627.954 2266.66,627.954 2268.87,627.954 2271.08,627.954 2273.29,627.954 2275.49,627.954 2277.7,627.954 2279.91,627.954 2282.12,627.954 2284.32,627.954 2286.53,627.954 2288.74,627.954 2290.95,627.954 2293.15,627.954 2295.36,627.954 2297.57,627.954 2299.78,627.954 2301.98,627.954 2304.19,627.954 2306.4,627.954 2308.61,627.954 2310.81,627.954 2313.02,627.954 2315.23,627.954 2317.44,627.954 2319.64,627.954 2321.85,627.954 2324.06,627.954 2326.27,627.954 2328.47,627.954 2330.68,627.954 2332.89,627.954 2335.1,627.954 2337.3,627.954 2339.51,627.954 2341.72,627.954 2343.93,627.954 2346.13,627.954 2348.34,627.954 2350.55,627.954 2352.76,627.954 "/>
<path clip-path="url(#clip880)" d="M2033.58 248.629 L2279.25 248.629 L2279.25 93.1086 L2033.58 93.1086  Z" fill="#ffffff" fill-rule="evenodd" fill-opacity="1"/>
<polyline clip-path="url(#clip880)" style="stroke:#000000; stroke-linecap:round; stroke-linejoin:round; stroke-width:4; stroke-opacity:1; fill:none" points="2033.58,248.629 2279.25,248.629 2279.25,93.1086 2033.58,93.1086 2033.58,248.629 "/>
<polyline clip-path="url(#clip880)" style="stroke:#009af9; stroke-linecap:round; stroke-linejoin:round; stroke-width:4; stroke-opacity:1; fill:none" points="2058.08,144.949 2205.1,144.949 "/>
<path clip-path="url(#clip880)" d="M2254.26 136.303 L2244.88 148.919 L2254.74 162.229 L2249.72 162.229 L2242.17 152.043 L2234.63 162.229 L2229.6 162.229 L2239.67 148.664 L2230.46 136.303 L2235.48 136.303 L2242.36 145.539 L2249.23 136.303 L2254.26 136.303 Z" fill="#000000" fill-rule="nonzero" fill-opacity="1" /><polyline clip-path="url(#clip880)" style="stroke:#e26f46; stroke-linecap:round; stroke-linejoin:round; stroke-width:4; stroke-opacity:1; fill:none" points="2058.08,196.789 2205.1,196.789 "/>
<path clip-path="url(#clip880)" d="M2246.11 178.05 L2246.11 181.592 L2242.04 181.592 Q2239.74 181.592 2238.84 182.518 Q2237.96 183.444 2237.96 185.851 L2237.96 188.143 L2244.98 188.143 L2244.98 191.453 L2237.96 191.453 L2237.96 214.069 L2233.68 214.069 L2233.68 191.453 L2229.6 191.453 L2229.6 188.143 L2233.68 188.143 L2233.68 186.337 Q2233.68 182.009 2235.69 180.041 Q2237.71 178.05 2242.08 178.05 L2246.11 178.05 Z" fill="#000000" fill-rule="nonzero" fill-opacity="1" /></svg>
