<?xml version="1.0" encoding="utf-8"?>
<svg xmlns="http://www.w3.org/2000/svg" xmlns:xlink="http://www.w3.org/1999/xlink" width="600" height="400" viewBox="0 0 2400 1600">
<defs>
  <clipPath id="clip350">
    <rect x="0" y="0" width="2400" height="1600"/>
  </clipPath>
</defs>
<path clip-path="url(#clip350)" d="M0 1600 L2400 1600 L2400 0 L0 0  Z" fill="#ffffff" fill-rule="evenodd" fill-opacity="1"/>
<defs>
  <clipPath id="clip351">
    <rect x="112" y="47" width="2242" height="1440"/>
  </clipPath>
</defs>
<path clip-path="url(#clip351)" d="M-847.136 2798.9 L-847.136 2494.7 L-484.745 2342.6 L142.934 2430.41 L142.934 2734.61 L-219.457 2886.71 L-847.136 2798.9  Z" fill="#ffffff" fill-rule="evenodd" fill-opacity="1"/>
<polyline clip-path="url(#clip351)" style="stroke:#000000; stroke-linecap:round; stroke-linejoin:round; stroke-width:2; stroke-opacity:0.1; fill:none" points="672.743,1204.94 1088.21,845.135 1088.21,125.533 "/>
<polyline clip-path="url(#clip351)" style="stroke:#000000; stroke-linecap:round; stroke-linejoin:round; stroke-width:2; stroke-opacity:0.1; fill:none" points="829.663,1250.23 1245.12,890.434 1245.12,170.832 "/>
<polyline clip-path="url(#clip351)" style="stroke:#000000; stroke-linecap:round; stroke-linejoin:round; stroke-width:2; stroke-opacity:0.1; fill:none" points="986.582,1295.53 1402.04,935.733 1402.04,216.131 "/>
<polyline clip-path="url(#clip351)" style="stroke:#000000; stroke-linecap:round; stroke-linejoin:round; stroke-width:2; stroke-opacity:0.1; fill:none" points="1143.5,1340.83 1558.96,981.031 1558.96,261.43 "/>
<polyline clip-path="url(#clip351)" style="stroke:#000000; stroke-linecap:round; stroke-linejoin:round; stroke-width:2; stroke-opacity:0.1; fill:none" points="1300.42,1386.13 1715.88,1026.33 1715.88,306.728 "/>
<polyline clip-path="url(#clip351)" style="stroke:#000000; stroke-linecap:round; stroke-linejoin:round; stroke-width:2; stroke-opacity:0.1; fill:none" points="1410.11,1388.26 690.511,1180.53 690.511,460.93 "/>
<polyline clip-path="url(#clip351)" style="stroke:#000000; stroke-linecap:round; stroke-linejoin:round; stroke-width:2; stroke-opacity:0.1; fill:none" points="1497.93,1312.21 778.327,1104.48 778.327,384.879 "/>
<polyline clip-path="url(#clip351)" style="stroke:#000000; stroke-linecap:round; stroke-linejoin:round; stroke-width:2; stroke-opacity:0.1; fill:none" points="1585.74,1236.16 866.142,1028.43 866.142,308.829 "/>
<polyline clip-path="url(#clip351)" style="stroke:#000000; stroke-linecap:round; stroke-linejoin:round; stroke-width:2; stroke-opacity:0.1; fill:none" points="1673.56,1160.11 953.958,952.38 953.958,232.778 "/>
<polyline clip-path="url(#clip351)" style="stroke:#000000; stroke-linecap:round; stroke-linejoin:round; stroke-width:2; stroke-opacity:0.1; fill:none" points="1761.38,1084.06 1041.77,876.33 1041.77,156.728 "/>
<polyline clip-path="url(#clip351)" style="stroke:#000000; stroke-linecap:round; stroke-linejoin:round; stroke-width:2; stroke-opacity:0.1; fill:none" points="664.934,1133.83 1080.4,774.033 1800,981.764 "/>
<polyline clip-path="url(#clip351)" style="stroke:#000000; stroke-linecap:round; stroke-linejoin:round; stroke-width:2; stroke-opacity:0.1; fill:none" points="664.934,1003.2 1080.4,643.401 1800,851.132 "/>
<polyline clip-path="url(#clip351)" style="stroke:#000000; stroke-linecap:round; stroke-linejoin:round; stroke-width:2; stroke-opacity:0.1; fill:none" points="664.934,872.57 1080.4,512.769 1800,720.5 "/>
<polyline clip-path="url(#clip351)" style="stroke:#000000; stroke-linecap:round; stroke-linejoin:round; stroke-width:2; stroke-opacity:0.1; fill:none" points="664.934,741.938 1080.4,382.137 1800,589.868 "/>
<polyline clip-path="url(#clip351)" style="stroke:#000000; stroke-linecap:round; stroke-linejoin:round; stroke-width:2; stroke-opacity:0.1; fill:none" points="664.934,611.306 1080.4,251.505 1800,459.236 "/>
<polyline clip-path="url(#clip350)" style="stroke:#000000; stroke-linecap:round; stroke-linejoin:round; stroke-width:4; stroke-opacity:1; fill:none" points="664.934,1202.68 1384.54,1410.41 "/>
<polyline clip-path="url(#clip350)" style="stroke:#000000; stroke-linecap:round; stroke-linejoin:round; stroke-width:4; stroke-opacity:1; fill:none" points="672.743,1204.94 677.728,1200.62 "/>
<polyline clip-path="url(#clip350)" style="stroke:#000000; stroke-linecap:round; stroke-linejoin:round; stroke-width:4; stroke-opacity:1; fill:none" points="829.663,1250.23 834.648,1245.92 "/>
<polyline clip-path="url(#clip350)" style="stroke:#000000; stroke-linecap:round; stroke-linejoin:round; stroke-width:4; stroke-opacity:1; fill:none" points="986.582,1295.53 991.568,1291.22 "/>
<polyline clip-path="url(#clip350)" style="stroke:#000000; stroke-linecap:round; stroke-linejoin:round; stroke-width:4; stroke-opacity:1; fill:none" points="1143.5,1340.83 1148.49,1336.51 "/>
<polyline clip-path="url(#clip350)" style="stroke:#000000; stroke-linecap:round; stroke-linejoin:round; stroke-width:4; stroke-opacity:1; fill:none" points="1300.42,1386.13 1305.41,1381.81 "/>
<path clip-path="url(#clip350)" d="M612.572 1219.26 Q608.961 1219.26 607.132 1222.82 Q605.327 1226.36 605.327 1233.49 Q605.327 1240.6 607.132 1244.16 Q608.961 1247.71 612.572 1247.71 Q616.206 1247.71 618.012 1244.16 Q619.841 1240.6 619.841 1233.49 Q619.841 1226.36 618.012 1222.82 Q616.206 1219.26 612.572 1219.26 M612.572 1215.55 Q618.382 1215.55 621.438 1220.16 Q624.517 1224.74 624.517 1233.49 Q624.517 1242.22 621.438 1246.83 Q618.382 1251.41 612.572 1251.41 Q606.762 1251.41 603.683 1246.83 Q600.628 1242.22 600.628 1233.49 Q600.628 1224.74 603.683 1220.16 Q606.762 1215.55 612.572 1215.55 Z" fill="#000000" fill-rule="nonzero" fill-opacity="1" /><path clip-path="url(#clip350)" d="M632.734 1244.86 L637.618 1244.86 L637.618 1250.74 L632.734 1250.74 L632.734 1244.86 Z" fill="#000000" fill-rule="nonzero" fill-opacity="1" /><path clip-path="url(#clip350)" d="M647.85 1216.18 L666.206 1216.18 L666.206 1220.11 L652.132 1220.11 L652.132 1228.59 Q653.151 1228.24 654.169 1228.08 Q655.188 1227.89 656.206 1227.89 Q661.993 1227.89 665.373 1231.06 Q668.752 1234.23 668.752 1239.65 Q668.752 1245.23 665.28 1248.33 Q661.808 1251.41 655.489 1251.41 Q653.313 1251.41 651.044 1251.04 Q648.799 1250.67 646.391 1249.93 L646.391 1245.23 Q648.475 1246.36 650.697 1246.92 Q652.919 1247.47 655.396 1247.47 Q659.401 1247.47 661.739 1245.37 Q664.077 1243.26 664.077 1239.65 Q664.077 1236.04 661.739 1233.93 Q659.401 1231.83 655.396 1231.83 Q653.521 1231.83 651.646 1232.24 Q649.794 1232.66 647.85 1233.54 L647.85 1216.18 Z" fill="#000000" fill-rule="nonzero" fill-opacity="1" /><path clip-path="url(#clip350)" d="M759.307 1292.1 L766.946 1292.1 L766.946 1265.74 L758.635 1267.4 L758.635 1263.14 L766.899 1261.48 L771.575 1261.48 L771.575 1292.1 L779.214 1292.1 L779.214 1296.04 L759.307 1296.04 L759.307 1292.1 Z" fill="#000000" fill-rule="nonzero" fill-opacity="1" /><path clip-path="url(#clip350)" d="M788.658 1290.16 L793.543 1290.16 L793.543 1296.04 L788.658 1296.04 L788.658 1290.16 Z" fill="#000000" fill-rule="nonzero" fill-opacity="1" /><path clip-path="url(#clip350)" d="M813.728 1264.56 Q810.117 1264.56 808.288 1268.12 Q806.482 1271.66 806.482 1278.79 Q806.482 1285.9 808.288 1289.46 Q810.117 1293 813.728 1293 Q817.362 1293 819.168 1289.46 Q820.996 1285.9 820.996 1278.79 Q820.996 1271.66 819.168 1268.12 Q817.362 1264.56 813.728 1264.56 M813.728 1260.85 Q819.538 1260.85 822.593 1265.46 Q825.672 1270.04 825.672 1278.79 Q825.672 1287.52 822.593 1292.12 Q819.538 1296.71 813.728 1296.71 Q807.918 1296.71 804.839 1292.12 Q801.783 1287.52 801.783 1278.79 Q801.783 1270.04 804.839 1265.46 Q807.918 1260.85 813.728 1260.85 Z" fill="#000000" fill-rule="nonzero" fill-opacity="1" /><path clip-path="url(#clip350)" d="M917.222 1337.4 L924.861 1337.4 L924.861 1311.04 L916.551 1312.7 L916.551 1308.44 L924.814 1306.78 L929.49 1306.78 L929.49 1337.4 L937.129 1337.4 L937.129 1341.34 L917.222 1341.34 L917.222 1337.4 Z" fill="#000000" fill-rule="nonzero" fill-opacity="1" /><path clip-path="url(#clip350)" d="M946.574 1335.46 L951.458 1335.46 L951.458 1341.34 L946.574 1341.34 L946.574 1335.46 Z" fill="#000000" fill-rule="nonzero" fill-opacity="1" /><path clip-path="url(#clip350)" d="M961.689 1306.78 L980.046 1306.78 L980.046 1310.71 L965.972 1310.71 L965.972 1319.18 Q966.99 1318.84 968.009 1318.67 Q969.027 1318.49 970.046 1318.49 Q975.833 1318.49 979.212 1321.66 Q982.592 1324.83 982.592 1330.25 Q982.592 1335.83 979.12 1338.93 Q975.647 1342.01 969.328 1342.01 Q967.152 1342.01 964.884 1341.64 Q962.638 1341.27 960.231 1340.53 L960.231 1335.83 Q962.314 1336.96 964.536 1337.52 Q966.759 1338.07 969.235 1338.07 Q973.24 1338.07 975.578 1335.97 Q977.916 1333.86 977.916 1330.25 Q977.916 1326.64 975.578 1324.53 Q973.24 1322.42 969.235 1322.42 Q967.36 1322.42 965.485 1322.84 Q963.634 1323.26 961.689 1324.14 L961.689 1306.78 Z" fill="#000000" fill-rule="nonzero" fill-opacity="1" /><path clip-path="url(#clip350)" d="M1076.36 1382.7 L1092.68 1382.7 L1092.68 1386.63 L1070.74 1386.63 L1070.74 1382.7 Q1073.4 1379.94 1077.98 1375.32 Q1082.59 1370.66 1083.77 1369.32 Q1086.02 1366.8 1086.9 1365.06 Q1087.8 1363.3 1087.8 1361.61 Q1087.8 1358.86 1085.85 1357.12 Q1083.93 1355.38 1080.83 1355.38 Q1078.63 1355.38 1076.18 1356.15 Q1073.75 1356.91 1070.97 1358.46 L1070.97 1353.74 Q1073.79 1352.61 1076.25 1352.03 Q1078.7 1351.45 1080.74 1351.45 Q1086.11 1351.45 1089.3 1354.13 Q1092.5 1356.82 1092.5 1361.31 Q1092.5 1363.44 1091.69 1365.36 Q1090.9 1367.26 1088.79 1369.85 Q1088.22 1370.52 1085.11 1373.74 Q1082.01 1376.94 1076.36 1382.7 Z" fill="#000000" fill-rule="nonzero" fill-opacity="1" /><path clip-path="url(#clip350)" d="M1102.5 1380.75 L1107.38 1380.75 L1107.38 1386.63 L1102.5 1386.63 L1102.5 1380.75 Z" fill="#000000" fill-rule="nonzero" fill-opacity="1" /><path clip-path="url(#clip350)" d="M1127.57 1355.15 Q1123.96 1355.15 1122.13 1358.72 Q1120.32 1362.26 1120.32 1369.39 Q1120.32 1376.5 1122.13 1380.06 Q1123.96 1383.6 1127.57 1383.6 Q1131.2 1383.6 1133.01 1380.06 Q1134.84 1376.5 1134.84 1369.39 Q1134.84 1362.26 1133.01 1358.72 Q1131.2 1355.15 1127.57 1355.15 M1127.57 1351.45 Q1133.38 1351.45 1136.43 1356.06 Q1139.51 1360.64 1139.51 1369.39 Q1139.51 1378.12 1136.43 1382.72 Q1133.38 1387.31 1127.57 1387.31 Q1121.76 1387.31 1118.68 1382.72 Q1115.62 1378.12 1115.62 1369.39 Q1115.62 1360.64 1118.68 1356.06 Q1121.76 1351.45 1127.57 1351.45 Z" fill="#000000" fill-rule="nonzero" fill-opacity="1" /><path clip-path="url(#clip350)" d="M1234.28 1428 L1250.6 1428 L1250.6 1431.93 L1228.65 1431.93 L1228.65 1428 Q1231.32 1425.24 1235.9 1420.61 Q1240.51 1415.96 1241.69 1414.62 Q1243.93 1412.1 1244.81 1410.36 Q1245.71 1408.6 1245.71 1406.91 Q1245.71 1404.16 1243.77 1402.42 Q1241.85 1400.68 1238.75 1400.68 Q1236.55 1400.68 1234.09 1401.45 Q1231.66 1402.21 1228.89 1403.76 L1228.89 1399.04 Q1231.71 1397.91 1234.16 1397.33 Q1236.62 1396.75 1238.65 1396.75 Q1244.02 1396.75 1247.22 1399.43 Q1250.41 1402.12 1250.41 1406.61 Q1250.41 1408.74 1249.6 1410.66 Q1248.82 1412.56 1246.71 1415.15 Q1246.13 1415.82 1243.03 1419.04 Q1239.93 1422.23 1234.28 1428 Z" fill="#000000" fill-rule="nonzero" fill-opacity="1" /><path clip-path="url(#clip350)" d="M1260.41 1426.05 L1265.3 1426.05 L1265.3 1431.93 L1260.41 1431.93 L1260.41 1426.05 Z" fill="#000000" fill-rule="nonzero" fill-opacity="1" /><path clip-path="url(#clip350)" d="M1275.53 1397.37 L1293.89 1397.37 L1293.89 1401.31 L1279.81 1401.31 L1279.81 1409.78 Q1280.83 1409.43 1281.85 1409.27 Q1282.87 1409.09 1283.89 1409.09 Q1289.67 1409.09 1293.05 1412.26 Q1296.43 1415.43 1296.43 1420.85 Q1296.43 1426.42 1292.96 1429.53 Q1289.49 1432.6 1283.17 1432.6 Q1280.99 1432.6 1278.72 1432.23 Q1276.48 1431.86 1274.07 1431.12 L1274.07 1426.42 Q1276.15 1427.56 1278.38 1428.11 Q1280.6 1428.67 1283.07 1428.67 Q1287.08 1428.67 1289.42 1426.56 Q1291.76 1424.46 1291.76 1420.85 Q1291.76 1417.23 1289.42 1415.13 Q1287.08 1413.02 1283.07 1413.02 Q1281.2 1413.02 1279.32 1413.44 Q1277.47 1413.85 1275.53 1414.73 L1275.53 1397.37 Z" fill="#000000" fill-rule="nonzero" fill-opacity="1" /><polyline clip-path="url(#clip350)" style="stroke:#000000; stroke-linecap:round; stroke-linejoin:round; stroke-width:4; stroke-opacity:1; fill:none" points="1384.54,1410.41 1800,1050.61 "/>
<polyline clip-path="url(#clip350)" style="stroke:#000000; stroke-linecap:round; stroke-linejoin:round; stroke-width:4; stroke-opacity:1; fill:none" points="1410.11,1388.26 1401.48,1385.77 "/>
<polyline clip-path="url(#clip350)" style="stroke:#000000; stroke-linecap:round; stroke-linejoin:round; stroke-width:4; stroke-opacity:1; fill:none" points="1497.93,1312.21 1489.29,1309.72 "/>
<polyline clip-path="url(#clip350)" style="stroke:#000000; stroke-linecap:round; stroke-linejoin:round; stroke-width:4; stroke-opacity:1; fill:none" points="1585.74,1236.16 1577.11,1233.67 "/>
<polyline clip-path="url(#clip350)" style="stroke:#000000; stroke-linecap:round; stroke-linejoin:round; stroke-width:4; stroke-opacity:1; fill:none" points="1673.56,1160.11 1664.92,1157.62 "/>
<polyline clip-path="url(#clip350)" style="stroke:#000000; stroke-linecap:round; stroke-linejoin:round; stroke-width:4; stroke-opacity:1; fill:none" points="1761.38,1084.06 1752.74,1081.57 "/>
<path clip-path="url(#clip350)" d="M1436.86 1401.61 L1425.06 1420.06 L1436.86 1420.06 L1436.86 1401.61 M1435.63 1397.54 L1441.51 1397.54 L1441.51 1420.06 L1446.44 1420.06 L1446.44 1423.95 L1441.51 1423.95 L1441.51 1432.1 L1436.86 1432.1 L1436.86 1423.95 L1421.26 1423.95 L1421.26 1419.44 L1435.63 1397.54 Z" fill="#000000" fill-rule="nonzero" fill-opacity="1" /><path clip-path="url(#clip350)" d="M1510.53 1321.49 L1528.89 1321.49 L1528.89 1325.42 L1514.82 1325.42 L1514.82 1333.9 Q1515.83 1333.55 1516.85 1333.39 Q1517.87 1333.2 1518.89 1333.2 Q1524.68 1333.2 1528.06 1336.37 Q1531.44 1339.54 1531.44 1344.96 Q1531.44 1350.54 1527.96 1353.64 Q1524.49 1356.72 1518.17 1356.72 Q1516 1356.72 1513.73 1356.35 Q1511.48 1355.98 1509.07 1355.24 L1509.07 1350.54 Q1511.16 1351.67 1513.38 1352.23 Q1515.6 1352.78 1518.08 1352.78 Q1522.08 1352.78 1524.42 1350.68 Q1526.76 1348.57 1526.76 1344.96 Q1526.76 1341.35 1524.42 1339.24 Q1522.08 1337.14 1518.08 1337.14 Q1516.2 1337.14 1514.33 1337.55 Q1512.48 1337.97 1510.53 1338.85 L1510.53 1321.49 Z" fill="#000000" fill-rule="nonzero" fill-opacity="1" /><path clip-path="url(#clip350)" d="M1609.23 1260.85 Q1606.08 1260.85 1604.23 1263.01 Q1602.4 1265.16 1602.4 1268.91 Q1602.4 1272.64 1604.23 1274.81 Q1606.08 1276.97 1609.23 1276.97 Q1612.38 1276.97 1614.2 1274.81 Q1616.06 1272.64 1616.06 1268.91 Q1616.06 1265.16 1614.2 1263.01 Q1612.38 1260.85 1609.23 1260.85 M1618.51 1246.2 L1618.51 1250.46 Q1616.75 1249.63 1614.95 1249.19 Q1613.16 1248.75 1611.4 1248.75 Q1606.77 1248.75 1604.32 1251.87 Q1601.89 1255 1601.54 1261.32 Q1602.91 1259.3 1604.97 1258.24 Q1607.03 1257.15 1609.51 1257.15 Q1614.71 1257.15 1617.72 1260.32 Q1620.76 1263.47 1620.76 1268.91 Q1620.76 1274.23 1617.61 1277.45 Q1614.46 1280.67 1609.23 1280.67 Q1603.23 1280.67 1600.06 1276.09 Q1596.89 1271.48 1596.89 1262.75 Q1596.89 1254.56 1600.78 1249.7 Q1604.67 1244.81 1611.22 1244.81 Q1612.98 1244.81 1614.76 1245.16 Q1616.57 1245.51 1618.51 1246.2 Z" fill="#000000" fill-rule="nonzero" fill-opacity="1" /><path clip-path="url(#clip350)" d="M1684.71 1169.39 L1706.93 1169.39 L1706.93 1171.38 L1694.38 1203.95 L1689.5 1203.95 L1701.3 1173.32 L1684.71 1173.32 L1684.71 1169.39 Z" fill="#000000" fill-rule="nonzero" fill-opacity="1" /><path clip-path="url(#clip350)" d="M1784.37 1111.48 Q1781.04 1111.48 1779.12 1113.27 Q1777.22 1115.05 1777.22 1118.17 Q1777.22 1121.3 1779.12 1123.08 Q1781.04 1124.86 1784.37 1124.86 Q1787.71 1124.86 1789.63 1123.08 Q1791.55 1121.28 1791.55 1118.17 Q1791.55 1115.05 1789.63 1113.27 Q1787.73 1111.48 1784.37 1111.48 M1779.7 1109.49 Q1776.69 1108.75 1775 1106.69 Q1773.33 1104.63 1773.33 1101.67 Q1773.33 1097.53 1776.27 1095.12 Q1779.23 1092.71 1784.37 1092.71 Q1789.54 1092.71 1792.47 1095.12 Q1795.41 1097.53 1795.41 1101.67 Q1795.41 1104.63 1793.72 1106.69 Q1792.06 1108.75 1789.07 1109.49 Q1792.45 1110.28 1794.33 1112.57 Q1796.22 1114.86 1796.22 1118.17 Q1796.22 1123.2 1793.15 1125.88 Q1790.09 1128.57 1784.37 1128.57 Q1778.66 1128.57 1775.58 1125.88 Q1772.52 1123.2 1772.52 1118.17 Q1772.52 1114.86 1774.42 1112.57 Q1776.32 1110.28 1779.7 1109.49 M1777.98 1102.11 Q1777.98 1104.79 1779.65 1106.3 Q1781.34 1107.8 1784.37 1107.8 Q1787.38 1107.8 1789.07 1106.3 Q1790.79 1104.79 1790.79 1102.11 Q1790.79 1099.42 1789.07 1097.92 Q1787.38 1096.42 1784.37 1096.42 Q1781.34 1096.42 1779.65 1097.92 Q1777.98 1099.42 1777.98 1102.11 Z" fill="#000000" fill-rule="nonzero" fill-opacity="1" /><polyline clip-path="url(#clip350)" style="stroke:#000000; stroke-linecap:round; stroke-linejoin:round; stroke-width:4; stroke-opacity:1; fill:none" points="664.934,1202.68 664.934,483.08 "/>
<polyline clip-path="url(#clip350)" style="stroke:#000000; stroke-linecap:round; stroke-linejoin:round; stroke-width:4; stroke-opacity:1; fill:none" points="664.934,1133.83 669.92,1129.52 "/>
<polyline clip-path="url(#clip350)" style="stroke:#000000; stroke-linecap:round; stroke-linejoin:round; stroke-width:4; stroke-opacity:1; fill:none" points="664.934,1003.2 669.92,998.884 "/>
<polyline clip-path="url(#clip350)" style="stroke:#000000; stroke-linecap:round; stroke-linejoin:round; stroke-width:4; stroke-opacity:1; fill:none" points="664.934,872.57 669.92,868.252 "/>
<polyline clip-path="url(#clip350)" style="stroke:#000000; stroke-linecap:round; stroke-linejoin:round; stroke-width:4; stroke-opacity:1; fill:none" points="664.934,741.938 669.92,737.62 "/>
<polyline clip-path="url(#clip350)" style="stroke:#000000; stroke-linecap:round; stroke-linejoin:round; stroke-width:4; stroke-opacity:1; fill:none" points="664.934,611.306 669.92,606.989 "/>
<path clip-path="url(#clip350)" d="M626.551 1120.63 L614.746 1139.08 L626.551 1139.08 L626.551 1120.63 M625.324 1116.55 L631.204 1116.55 L631.204 1139.08 L636.134 1139.08 L636.134 1142.97 L631.204 1142.97 L631.204 1151.11 L626.551 1151.11 L626.551 1142.97 L610.949 1142.97 L610.949 1138.45 L625.324 1116.55 Z" fill="#000000" fill-rule="nonzero" fill-opacity="1" /><path clip-path="url(#clip350)" d="M615.232 985.922 L633.588 985.922 L633.588 989.857 L619.514 989.857 L619.514 998.329 Q620.533 997.982 621.551 997.82 Q622.57 997.635 623.588 997.635 Q629.375 997.635 632.755 1000.81 Q636.134 1003.98 636.134 1009.39 Q636.134 1014.97 632.662 1018.07 Q629.19 1021.15 622.871 1021.15 Q620.695 1021.15 618.426 1020.78 Q616.181 1020.41 613.773 1019.67 L613.773 1014.97 Q615.857 1016.11 618.079 1016.66 Q620.301 1017.22 622.778 1017.22 Q626.783 1017.22 629.121 1015.11 Q631.459 1013 631.459 1009.39 Q631.459 1005.78 629.121 1003.68 Q626.783 1001.57 622.778 1001.57 Q620.903 1001.57 619.028 1001.99 Q617.176 1002.4 615.232 1003.28 L615.232 985.922 Z" fill="#000000" fill-rule="nonzero" fill-opacity="1" /><path clip-path="url(#clip350)" d="M624.607 870.707 Q621.459 870.707 619.607 872.859 Q617.778 875.012 617.778 878.762 Q617.778 882.489 619.607 884.665 Q621.459 886.818 624.607 886.818 Q627.755 886.818 629.584 884.665 Q631.435 882.489 631.435 878.762 Q631.435 875.012 629.584 872.859 Q627.755 870.707 624.607 870.707 M633.889 856.054 L633.889 860.313 Q632.13 859.48 630.324 859.04 Q628.542 858.6 626.783 858.6 Q622.153 858.6 619.699 861.725 Q617.269 864.85 616.922 871.169 Q618.287 869.156 620.347 868.091 Q622.408 867.003 624.884 867.003 Q630.093 867.003 633.102 870.174 Q636.134 873.322 636.134 878.762 Q636.134 884.086 632.986 887.304 Q629.838 890.521 624.607 890.521 Q618.611 890.521 615.44 885.938 Q612.269 881.331 612.269 872.605 Q612.269 864.41 616.158 859.549 Q620.047 854.665 626.597 854.665 Q628.357 854.665 630.139 855.012 Q631.945 855.359 633.889 856.054 Z" fill="#000000" fill-rule="nonzero" fill-opacity="1" /><path clip-path="url(#clip350)" d="M613.912 724.658 L636.134 724.658 L636.134 726.649 L623.588 759.218 L618.704 759.218 L630.509 728.593 L613.912 728.593 L613.912 724.658 Z" fill="#000000" fill-rule="nonzero" fill-opacity="1" /><path clip-path="url(#clip350)" d="M624.283 612.174 Q620.949 612.174 619.028 613.957 Q617.13 615.739 617.13 618.864 Q617.13 621.989 619.028 623.771 Q620.949 625.554 624.283 625.554 Q627.616 625.554 629.537 623.771 Q631.459 621.966 631.459 618.864 Q631.459 615.739 629.537 613.957 Q627.639 612.174 624.283 612.174 M619.607 610.184 Q616.597 609.443 614.908 607.383 Q613.241 605.322 613.241 602.36 Q613.241 598.216 616.181 595.809 Q619.144 593.401 624.283 593.401 Q629.445 593.401 632.384 595.809 Q635.324 598.216 635.324 602.36 Q635.324 605.322 633.634 607.383 Q631.968 609.443 628.982 610.184 Q632.361 610.971 634.236 613.262 Q636.134 615.554 636.134 618.864 Q636.134 623.887 633.056 626.572 Q630 629.258 624.283 629.258 Q618.565 629.258 615.486 626.572 Q612.431 623.887 612.431 618.864 Q612.431 615.554 614.329 613.262 Q616.227 610.971 619.607 610.184 M617.894 602.799 Q617.894 605.485 619.56 606.989 Q621.25 608.494 624.283 608.494 Q627.292 608.494 628.982 606.989 Q630.695 605.485 630.695 602.799 Q630.695 600.114 628.982 598.61 Q627.292 597.105 624.283 597.105 Q621.25 597.105 619.56 598.61 Q617.894 600.114 617.894 602.799 Z" fill="#000000" fill-rule="nonzero" fill-opacity="1" /><polyline clip-path="url(#clip351)" style="stroke:#009af9; stroke-linecap:round; stroke-linejoin:round; stroke-width:4; stroke-opacity:1; fill:none" points="943.055,952.554 940.775,955.078 945.835,948.554 938.84,957.063 944.444,949.766 947.831,945.273 950.861,941.294 942.147,951.908 946.144,946.562 960.775,927.928 960.887,927.691 946.937,944.948 937.932,955.747 948.521,941.928 948.797,941.044 932.835,960.181 934.773,956.836 958.374,926.562 959.623,925.756 988.025,891.733 982.893,899.65 981.558,902.873 1009.82,869.913 1004.65,879.991 1025.76,858.342 1013.4,877.762 1042.3,848.515 1019.75,879.303 1111.25,776.717 1085.47,819.617 1054.99,858.401 1074.15,834.441 1038.75,871.054 1088.99,815.708 1162.66,744.975 1135.37,782.596 1174.68,747.943 1107.52,815.372 1083.72,836.497 1065.85,856.087 1091.09,827.448 1161.13,765.346 1192.55,733.923 1180,759.586 1205.52,729.431 1172.02,764.904 1189.94,738.536 1220.07,726.334 1193.72,745.389 1210.18,737.883 1179.27,781.509 1262.26,710.071 1244.97,732.918 1244.84,731.912 1221.07,754.469 1242.71,710.764 1216.46,718.295 1105.46,798.779 1190.76,747.945 1169.22,773.884 1163,778.477 1081.68,839.442 1075.47,848.451 1010.06,892.718 1057.98,836.443 1103.16,800.209 1059.46,851.092 1060.34,853.961 1000.62,904.014 972.989,922.973 940.102,948.195 976.951,908.11 1026.58,882.228 1026.02,875.274 1019.91,886.486 1009.5,881.699 985.043,905.691 1114.23,780.408 1127.69,787.835 1220.66,707.895 1285.73,675.53 1231.63,724.28 1262.97,698.227 1130.25,809.653 1105.42,828.495 1081.24,844.023 1040.29,871.349 1037.87,871.519 1166.42,771.591 1242.02,698.328 1236.11,709.101 1383.89,582.581 1464.41,531.555 1500.74,529.717 1511.76,522.004 1668.14,411.555 1589.61,493.135 1464.57,594.48 1571.07,496.472 1526.48,525.987 1481.29,563.78 1357.69,668.644 1336.81,673.017 1352.19,632.404 1238.56,734.553 1279.86,688.41 1190.25,776.077 1133.61,809.968 1069.9,864.072 991.009,929.785 940.733,967.948 1042.67,846.227 960.644,939.76 953.568,941.215 972.043,916.759 963.647,921.486 977.421,910.519 1080.19,824.784 1029.14,880.37 958.46,946.468 1010.39,884.333 977.939,922.365 887.231,1013.54 968.772,918.81 999.158,890.085 920.699,970.651 914.298,979.229 911.863,975.13 907.303,979.037 947.673,946.02 953.267,938.185 945.367,959.023 959.329,930.631 890.804,990.131 853.188,1025.34 844.058,1032.66 908.639,987.419 949.251,940.986 896.6,989.847 975.821,909.52 1083.46,812.401 1009.05,892.477 1029.96,874.527 1107.6,832.267 1215.85,726.899 1327.98,660.378 1360.78,646.724 1451.77,571.922 1327.83,676.884 1366.27,641.424 1371.42,625.535 1347.36,639.637 1305.5,677.567 1296.51,666.385 1287.29,682.055 1236.04,732.562 1053.76,890.013 1139.93,774.993 1135.83,783.404 1220.69,711.164 1217.83,723.793 1110.64,830.754 1047.17,883.02 1099.13,814.012 1080.88,829.937 1026.57,896.625 1102.67,820.596 1159.05,765.48 1161,770.104 1220.06,711.149 1307.77,651.895 1392.53,597.113 1275.84,704.694 1318.54,660.68 1322.51,648.051 1234.37,724.253 1198.67,750.128 1083.48,837.571 1069.29,842.602 979.22,928.98 1021.3,884.634 1013.84,904.218 1135.45,794.868 1018.88,900.679 930.554,986.139 959.969,935.181 898.389,989.48 849.412,1023.27 921.996,956.855 877.316,998.23 917.571,961.383 964.261,912.174 919.74,959.505 823.193,1056.55 891.048,990.834 994.7,893.803 946.118,965.055 950.904,954.23 905.519,978.643 903.981,969.145 919.557,969.99 914.241,985.588 969.515,916.746 1003.34,893.045 1042.93,850.546 1011.75,859.812 1017.13,846.165 997.588,868.136 1027.48,879.978 1047.92,864.26 1153.39,769.714 1138.24,781.456 1153.63,767.342 1202.7,734.133 1072.46,862.404 998.969,908.92 966.71,934.798 1061.36,826.371 1014.93,878.612 1008.13,900.316 1109.24,801.153 1088.67,835.171 1138.69,773.953 1114.27,827.708 1137.29,788.442 1117.56,805.169 1055.24,859.245 1019.87,891.974 1029.2,881.824 1090.26,815.41 1092.38,824.231 1021.81,893.238 997.703,903.17 1061.59,827.926 1011.97,877.673 1061.28,842.348 1109.1,802.882 1129.31,793.242 1076.49,850.263 1145.06,768.229 1167.78,760.912 1154.6,765.074 1308.86,647.638 1305.7,679.985 1179.96,787.992 1261.05,689.342 1364.44,622.085 1457.38,549.093 1377.68,617.985 1314.89,673.258 1362.75,631.191 1321.89,660.156 1260.91,710.945 1276.88,693.533 1104.32,840.287 1149.02,784.416 1082.57,848.022 1127.05,791.653 1302.87,631.609 1289.94,670.611 1344.84,615.793 1323.65,660.201 1267.18,705.181 1229.18,723.817 1235.83,718.973 1187.68,759.403 1157.48,782.575 1122.33,818.144 1077.62,852.425 969.471,951.214 931.175,975.228 933.428,961.129 931.291,961.458 905.963,980.845 949.624,943.915 982.843,898.734 991.556,879.576 1070.23,823.038 1063.58,852.971 1076.11,845.811 1022.5,897.806 1010.69,908.498 1085.35,818.745 974.73,922.506 987.01,909.032 1092.29,815.696 972.717,933.555 1089.9,843.642 1098.89,834.443 1189,751.244 1232.29,706.062 1235.23,709.243 1073.64,841.494 1067.4,847.264 1137.25,776.358 1117.55,794.614 1082.3,820.912 1108.75,796.017 1175.19,754.902 1192.41,734.493 1238.74,721.547 1173.75,778.796 1082.12,848.708 1107.91,818.741 1031.13,890.966 981.225,932.454 968.173,934.476 1000.01,890.188 998.952,895.722 1015.78,875.468 988.358,906.404 1003.12,902.012 1025.55,880.475 1032.67,891.128 979.405,925.731 970.375,926.839 847.858,1042.2 835.349,1049.12 771.111,1116.18 790.875,1081.24 816.486,1045.16 757.238,1117.13 753.955,1117.14 775.667,1091.42 730.387,1141.07 743.492,1125.15 831.65,1027.58 807.041,1067.54 826.007,1050 849.232,1030.31 829.016,1050.41 952.855,924.992 921.519,970.002 978.821,897.086 986.951,898.779 961.819,935.849 1012.1,891.532 966.215,929.868 1046.71,863.098 1071.79,847.653 1040.08,869.351 1082.54,838.527 922.972,973.503 904.507,997.708 870.477,1035.43 951.762,932.8 944.435,940.91 1066.25,809.921 1126.56,786.715 1174,744.832 1111.51,815.881 1028.98,896.315 1066.15,849.161 1043.13,860.292 1054.51,869.424 1071.6,863.21 1048.03,876.884 1025.37,893.486 1086.58,848.472 1151.46,799.379 1177.45,746.159 1167.61,741.113 1218.52,706.889 1192.8,746.794 1397.99,582.916 1267.42,717.377 1334.51,635.4 1425.02,566.229 1234.74,720.893 1212.18,726.764 1314.66,659.212 1482.44,529.105 1487.31,535.755 1511.89,551.565 1362.1,679.591 1237.47,769.255 1248.18,729.362 1193.7,766.418 1128.34,819.16 1067.07,863.612 1047.52,872.85 1029.86,878.337 1068.55,828.079 1019.77,894.786 1006.1,893.286 986.158,913.619 998.823,899.407 1119.45,781.694 1101.22,814.588 1158.4,756.36 1145.01,784.495 1059.09,870.823 1133.91,780.017 1172.93,751.863 1156.44,785.298 1102.27,817.3 1049.98,853.682 1028.32,884.231 937.292,969.984 924.364,974.9 885.287,1003.61 844.432,1043.03 791.899,1090.89 826.125,1048.12 768.491,1111.81 784.266,1085.29 741.158,1129.53 767.967,1095.46 863.318,996.521 930.389,927.75 868.003,1008.03 835.837,1041.65 771.104,1112.44 866.045,1000.04 902.444,986.907 962.287,918.101 982.693,914.683 1036.04,859.349 1172.05,737.54 1215.02,715.813 1270.53,684.429 1189.75,765.838 1253.21,706.132 1101.21,859.25 1042.28,890.835 991.499,926.118 1009.06,893.964 1011.25,890.451 953.697,953.971 964.935,926.959 954.876,931.773 896.185,986.64 948.605,933.777 796.552,1085.03 793.704,1088.76 846.13,1022.3 954.586,926.083 915.768,968.315 961.313,924.797 945.15,950.491 947.568,930.734 1060.74,819.198 983.119,900.745 980.011,916.152 1017.23,870.558 1104.74,819.878 1144.38,774.043 1279.02,654.344 1371.94,607.159 1224.19,747.745 1162.19,793.847 1177.66,768.606 1157.65,786.753 1072.15,864.59 980.454,939.375 1059.06,838.235 1004.08,897.753 1023.52,877.717 1151.5,739.175 1170.96,740.263 1126.9,796.554 1095.65,833.64 1035.99,890.29 1035.51,879.155 1063.42,846.37 1044.88,870.719 1027.45,876.905 1058.24,845.908 1146.63,760.906 1122.02,798.8 1172.03,761.693 1223.77,706.784 1302.93,655.561 1284.59,688.362 1277.15,695.233 1311.64,653.504 1320.96,661.074 1321.63,663.063 1231.57,734.597 1330.25,639.972 1208.34,750.523 1101.96,841.411 1118.95,814.019 1024.54,902.343 1022.7,889.38 982.544,927.794 1068.35,834.971 1037.86,870.735 1113.16,798.5 1190.13,730.28 1182.02,761.874 1146.9,791.397 1097.52,842.455 1113.4,810.91 1189.02,748.089 1274.21,692.053 1304.26,662.854 1358.43,630.547 1220.3,746.991 1104.12,842.693 1142.74,780.036 1150.2,766.719 1207.38,723.578 1156.22,778.963 1214.17,727.879 1192.54,745.713 1219.53,722.022 1151.49,793.853 1217.32,746.36 1114.16,815.672 1035.19,870.459 1147.5,769.695 1183.23,739.983 1178.35,765.055 1162.23,767.163 997.366,900.721 935.92,970.022 994.932,894.072 1080.62,842.384 1058.67,861.411 945.94,969.487 941.227,954.769 971.075,914.638 1024.39,868.777 1004.29,893.425 1074.61,823.405 947.996,943.744 877.912,1020.43 923.662,954.746 794.798,1079.63 789.421,1087.23 807.76,1063.9 805.968,1066.14 773.767,1104.05 842.792,1030.96 807.329,1077.02 891.341,987.089 991.224,896.727 1061.07,843.288 1135.76,785.39 1208.23,720.598 1214.52,732.889 1403.72,597.919 1310.91,694.44 1252.17,729.737 1237.24,731.597 1232.34,729.306 1220.19,747.783 1193.56,746.309 1105.08,826.526 1136.14,801.164 1151.59,792.765 1275.55,676.363 1277.81,682.407 1214.09,734.759 1166.73,772.862 1100.11,811.704 1075.53,844.118 1069.74,854.828 1106.47,826.647 1093.59,834.681 1015.46,905.94 956.547,971.08 950.962,951.116 1100.1,797.577 1180.1,733.998 1197.05,725.077 1087.22,839.586 971.79,950.677 983.509,926.968 942.35,965.153 952.957,940.001 948.603,938.086 966.437,936.013 929.896,963.818 927.887,960.36 998.609,889.536 1045.9,859.283 969.386,943.411 970.178,928.548 955.775,938.417 1045.65,876.794 907.948,991.519 833.384,1068.24 816.525,1079.42 844.528,1025.86 929.583,940.075 975.958,891.687 1004.64,873.316 945.188,934.66 930.441,955.841 943.311,926.805 1036.47,854.186 1050.49,859.889 1008.36,890.178 965.749,921.996 998.62,881.862 966.838,928.437 1049.76,846.506 950.168,929.569 1060.61,847.951 1017.18,876.675 1046.27,847.1 952.687,943.364 800.691,1090.8 753.563,1137.02 747.326,1136.04 747.583,1128.94 757.933,1110.42 816.286,1048.22 827.059,1045.53 881.452,989.564 923.031,960.249 1033.66,850.541 1047.12,854.183 1083.47,819.283 1143.76,796.823 1114.74,814.913 1065.09,847.356 1039.81,865.447 1055.08,852.564 1048.7,853.597 1138.53,781.949 1154.92,767.669 1108.56,814.523 1135.73,790.732 1018.88,886.463 984.577,924.916 974.64,939.416 984.103,916.35 1027.96,874.527 1034.85,877.343 1089.21,816.197 959.195,949.468 894.186,1008.49 853.172,1029.78 839.136,1037.61 856.07,1018.91 867.989,1018.56 867.993,1014.7 804.974,1072.62 785.321,1095.1 818.778,1048.49 807.819,1056.57 873.071,1003.41 844.629,1042.16 857.877,1014.55 828.859,1056.63 876.701,995.768 834.433,1040.84 826.935,1056.54 934.859,934.561 817.742,1052.67 778.366,1099.14 836.281,1041.81 804.07,1066.28 846.554,1026.07 845.562,1026.81 837.162,1033.13 793.158,1084.99 837.919,1033.69 762.581,1108.17 735.167,1133.3 719.621,1154.49 745.762,1123.02 814.078,1049.15 806.244,1071.35 816.99,1051.06 807.125,1065.53 884.892,978.62 901.626,963.904 898.911,976.478 837.525,1051.22 849.368,1033.69 843.816,1029.19 821.503,1057.21 827.621,1043.9 797.467,1079.31 797.915,1076.26 782.023,1099.42 781.999,1089.41 700.03,1170.96 698.274,1177.37 722.692,1146.58 712.884,1162.28 745.799,1113.05 752.38,1115.97 776.036,1090.02 794.728,1080.47 832.561,1035.66 748.925,1120.21 812.933,1050.39 829.119,1040.68 798.068,1070.28 813.33,1055.81 863.412,1003.18 892.917,979.985 891.801,987.679 868.463,1012.58 853.151,1019.63 829.542,1041.45 899.746,958.251 1032.68,840.393 1026.95,868.41 1021.16,877.61 1021.06,888.702 1094.4,813.556 1247.52,679.701 1361.33,600.237 1250.84,710.942 1353.02,621.685 1211.42,733.038 1208.17,742.606 1073.21,856.806 1065.07,860.921 1047.61,858.286 1083.88,814.067 1065.47,833.903 1053.25,852.01 1024.58,877.409 1004.53,893.97 1039.45,866.4 1035.45,865.733 906.806,972.4 911.711,964.493 913.366,968.522 911.483,982.615 911.192,969.057 938.913,936.326 886.276,982.621 947.044,936.691 995.635,902.429 960.438,929.573 914.137,967.628 925.397,945.945 1022.67,871.894 1075.59,829.93 1106.02,801.421 1208.42,740 1243.22,711.89 1205.72,741.582 1106.26,819.875 1017.53,893.412 929.219,965.086 1014.08,879.412 1024.96,864.135 1078.96,819.672 1101.68,814.36 1064.6,842.172 951.197,946.886 908.951,972.007 926.997,962.564 926.902,965.256 1022.53,870.078 1132.19,775.006 1112.44,820.024 1106.11,823.165 1124.41,801.089 1217.97,689.863 1164.18,761.955 1202.93,722.392 1288.24,661.366 1324.04,637.15 1426.39,542.218 1388.79,603.06 1423.39,579.385 1471.95,538.22 1485.46,538.402 1451.46,564.524 1520.2,524.577 1594.24,469.577 1459.98,580.998 1517.7,530.473 1540.03,510.475 1492.54,556.168 1482.5,563.517 1471.27,571.904 1383.55,635.442 1345.9,660.684 1215.28,767.531 1171.61,793.293 1144.61,809.41 1075.37,859.31 1048.4,869.448 1051.97,851.15 1104.38,799.29 1076.77,842.927 1060.06,849.33 937.561,959.123 920.134,970.307 940.231,949.966 933.917,948.919 931.325,956.29 1075.62,819.811 1165.94,750.82 1095.58,831.675 1055.37,872.545 1143.98,783.45 1184.35,749.649 1221.04,723.497 1214.05,740.846 1204.59,737.66 1207.64,740.139 1128.27,798.67 1159.78,765.652 1288.28,672.88 1289.05,685.637 1315.2,647.009 1222.43,750.205 1205.12,761.49 1124.94,822.232 1147.61,795.978 1202.25,740.992 1165.64,748.403 1198.19,727.27 1097.87,828.921 1136.66,774.702 1251.26,688.784 1148.52,793.785 1230.01,717.575 1164.78,778.414 1138.77,807.172 1042.88,890.077 1028.86,898.814 1060.23,848.831 947.327,966.084 1052.75,844.654 1049.4,847.611 1014.39,904.007 964.789,949.243 897.262,1008.18 839.661,1053.13 945.368,937.017 943.365,940.592 1009.75,886.128 1132.6,781.508 1074.75,827.819 1025.99,883.542 1050.9,865.584 965.117,945.682 962.061,951.022 952.994,927.952 883.284,1000.15 944.046,941.875 1019.14,873.003 1024.4,883.051 1000.14,912.973 969.34,939.113 1011.6,905.168 957.067,954.697 946.775,964.559 887.725,1009.51 911.466,983.293 943.864,952.996 904.81,975.521 961.628,908.567 1039.07,844.62 1072.34,843.721 1040.4,889.508 1184.02,762.682 1319.91,632.731 1456.78,554.782 1434.67,589.548 1477.76,549.511 1430.64,601.218 1349.59,673.469 1250.81,747.589 1132.67,839.608 1062.27,883.234 1061.03,865.161 1059.34,859.193 1034.87,879.65 900.297,1013.05 874.142,1021.91 907.681,975.629 923.121,954.066 932.021,948.506 855.347,1037.3 833.84,1063.11 858.434,1019.92 926.607,946.939 912.806,967.454 838.641,1049.71 836.923,1052.01 855.719,1035.08 820.537,1061.96 807.856,1071.1 826.358,1045.58 871.766,1001.83 889.666,975.518 915.386,945.656 1037.57,840.281 1030.04,864.946 996.531,905.416 951.706,948.365 1017.06,878.089 991.507,907.934 1069.4,845.475 978.05,923.168 1083.71,842.007 1100.23,822.568 1116.02,804.137 1226.02,746.606 1208.14,758.122 1155.52,802.222 1114.69,832.116 1042.88,890.603 1037.56,882.298 1024.71,877.738 967.541,944.037 942.632,957.357 924.586,972.87 872.146,1021.01 855.855,1023.19 830.848,1039.65 843.414,1025.45 896.271,983.748 918.513,954.191 975.567,911.333 1035.6,846.968 1008.29,889.448 989.54,906.65 981.837,919.615 911.687,994.417 917.303,978.176 994.207,898.663 1022.84,884.802 938.732,960.36 897.379,983.909 925.552,949.419 983.698,901.375 1037.08,852.773 1134.26,748.551 1145.96,758.268 1144.4,772.436 1182.75,755.811 1242.67,738.432 1227.25,731.48 1242.13,711.966 1279.64,699.571 1286.52,696.796 1188.25,767.014 1106.18,828.72 1157.42,759.084 1258.15,678.005 1267.59,696.084 1349.38,627.501 1325.89,673.313 1282.49,702.477 1228.92,728.261 1135.81,802.61 1209.93,734.649 1227.66,728.315 1180.06,778.898 1087.16,849.745 1071.61,844.274 1012.29,891.813 1097.06,813.753 1102.45,826.43 1100.7,808.164 982.17,896.039 985.934,904.813 1115.07,794.916 1129.57,795.39 1151.34,798.807 1038.79,877.4 1025.01,883.584 973.305,928.801 916.216,985.922 843.724,1036.01 775.728,1109.43 751.718,1127.53 740.567,1129.92 764.131,1098.17 797.568,1067.56 748.668,1127.86 743.179,1129.92 779.777,1085.94 823.341,1042.57 845.621,1019.84 865.795,1001.78 919.987,966.101 929.458,957.464 995.748,898.665 1064.7,843.199 1039.39,866.723 1025.62,871.148 1072.24,826.793 1210.31,707.829 1245.03,689.629 1286.58,669.654 1281.07,672.188 1401.66,604.019 1283.35,705.102 1339.3,640.922 1404.17,590.875 1434.2,558.539 1260.03,710.032 1174.53,776.055 1155.2,797.149 1056.5,873.026 1025.2,895.792 979.923,925.584 939.884,960.633 982.818,902.421 925.737,966.666 959.192,936.272 988.21,905.125 1015.74,872.327 1034.96,864.426 1012.45,892.195 968.271,941.105 1095.49,811.326 1134.11,768.722 1237.92,674.473 1374.76,587.471 1512.31,482.941 1486.84,538.206 1440.07,593.212 1450.7,578.114 1381.04,617.669 1345.05,650.072 1227.1,738.909 1151.77,800.396 1174.48,757.93 1256.18,684.587 1160.61,787.677 1040.13,897.817 1025.74,892.71 985.622,912.252 1031.16,863.22 988.618,908.922 942.393,960.082 977.29,909.615 1028.08,863.752 1006.27,885.911 1058.01,857.39 1056.21,853.596 1054.14,855.104 1151.64,784.138 1155.4,775.6 1131.53,793.643 1076.04,841.687 1051.7,860.652 1233.98,679.08 1328.62,629.581 1375.32,611.401 1445.85,570.589 1515.15,540.754 1437.59,608.934 1383.18,631.831 1288.72,706.086 1206.76,760.803 1128.58,831.189 1130.42,798.765 1143.01,780.593 1153.33,770.892 1081.68,847.013 976.936,944.026 983.17,922.974 965.605,935.803 999.086,897.723 952.805,939.386 887.857,1003.27 860.219,1022.79 858.813,1020.55 869.256,1007.79 835.481,1050.03 834.818,1045.41 861.803,999.506 933.182,931.809 978.801,888.12 1025.16,857.874 959.295,924.102 1087.52,795.324 1178.66,740.888 1258.03,687.198 1288.79,661.646 1306.33,652.256 1451,540.962 1702.97,366.103 1628.47,463.128 1762.68,360.174 1707.19,411.967 1683.72,440.406 1549.85,544.061 1502.01,566.792 1445.18,602.113 1489.1,552.332 1408.89,621.829 1378.91,635.391 1379.63,625.985 1236.12,753.988 1236.86,725.353 1192,758.011 1177.84,771.432 1136.96,801.645 1128.85,800.1 1095.95,833.84 1074.55,843.776 1049.37,866.313 1040.3,865.093 922.68,981.393 915.65,986.993 879.706,1006.42 871.118,1013.09 818.361,1067.04 832.839,1046.17 809.909,1072.7 836.344,1038.1 827.739,1048.99 834.689,1040.14 890.201,972.167 955.139,915.623 970.638,920.978 1068.04,829.139 1108.1,804.694 1137.13,789.924 1160.35,778.073 1222.62,728.884 1297.46,672.269 1379.08,603.888 1325.39,655.999 1193.78,749.469 1196.15,748.236 1269.92,678.166 1216.65,718.694 1301.47,640.729 1209.44,734.561 1320.62,651.14 1336.96,652.134 1199.14,790.702 1161.95,808.384 1093.78,860.135 1098.37,823.886 1024.14,891.822 1062,857.092 1151.78,810.731 1195.8,757.084 1163.82,782.241 1072.14,857.227 1015.74,900.701 1063.18,838.523 1073.75,829.908 1112.58,793.96 1135.67,775.044 1106.68,804.611 1055.84,850.791 958.335,938.778 898.957,1000.77 890.451,994.1 822.235,1063.02 910.722,961 918.364,966.15 883.603,994.27 947.677,935.392 981.031,906.1 938.443,946.414 921.483,987.191 815.546,1085.25 832.178,1046.48 895.341,966.217 902.226,961.415 831.676,1039.83 841.209,1033.97 794.325,1077.53 722.391,1155.3 703.905,1179.16 732.95,1143.11 747.078,1125.96 735.854,1135.83 763.471,1114.19 796.653,1066.46 755.732,1115.66 816.479,1057.17 820.531,1047.5 794.909,1091.3 851.917,1022.72 878.466,995.242 891.885,986.834 925.189,957.504 931.705,946.753 974.799,912.924 1087.57,800.993 1220.12,704.908 1238.91,700.136 1365.95,597.485 1229.06,737.844 1208.23,751.452 1245.26,705.548 1366.92,645.041 1362.62,644.393 1322.29,665.617 1322.19,664.417 1302.46,684.196 1348.49,638.8 1334.77,664.311 1396.88,602.178 1347.65,650.726 1111.46,854.614 1055.62,889.872 1057.64,871.067 1038.93,881.074 1111.87,801.071 1173.97,746.048 1160.84,760.924 1173.65,753.372 1184.43,741.819 1248.23,689.315 1282.51,667.784 1287.58,675.858 1279.74,674.264 1222.53,717.922 1318,626.589 1300.72,661.753 1129,823.637 1120.42,806.712 1192.2,738.47 1230.97,698.37 1328.67,625.581 1297.34,670.694 1133.68,826.644 1087.87,847.966 1106.39,821.894 1097.16,829.94 1161.24,770.271 1222.55,723.779 1285.76,665.018 1177.97,764.253 1128.81,826.014 1111.41,836.398 992.687,925.915 952.001,951.146 1039.99,846.994 1121.52,777.538 1101.52,810.73 1020.51,902.749 965.743,947.092 950.744,955.632 968.309,929.396 904.652,993.348 902.492,990.156 898.183,988.855 926.786,957.614 895.051,997.551 937.064,943.009 947.446,938.169 977.68,907.591 929.242,960.605 933.19,949.597 1074.98,818.686 1042.05,859.732 1108.36,809.168 1097.76,828.21 959.625,945.681 924.883,966.018 917.307,971.318 932.031,957.144 925.538,962.354 980.88,906.159 1101.1,808.098 1124.26,787.384 1146.86,776.193 1048.17,875.615 1274.32,662.169 1273.8,685.312 1248.75,714.377 1212.99,743.449 1185.74,748.531 1198.99,741.666 1186.65,751.902 1199.09,741.352 1102.23,849.008 1112.71,830.935 1178.21,765.974 1150.44,802.671 1181.32,765.353 1243.52,718.582 1375.53,644.286 1427.09,588.54 1410.45,613.902 1376.47,623.685 1422.18,588.526 1323.78,675.142 1237.61,749.012 1267.56,702.874 1335.57,633.9 1305.86,678.481 1448.54,552.544 1274.94,667.326 1278.13,672.599 1286.78,667.391 1301.28,653.433 1104.49,825.297 1046.35,855.351 1040.31,871.149 1111.72,787.98 972.553,929.858 933.114,962.624 890.277,1000.62 950.35,922.866 903.937,977.07 960.871,921.685 946.2,939.136 955.743,931.655 918.075,976.267 934.092,939.631 970.968,912.253 924.008,961.27 893.305,993.29 973.788,922.467 1009.78,896.943 987.662,916.945 880.393,1017.8 868.03,1022.28 827.076,1052.12 822.696,1063.63 941.969,933.368 1065.43,813.78 1082.16,827.358 1113.16,786.108 1195.37,730.525 1225.21,718.507 1206.77,756.72 1202.31,738.821 1186.68,755.362 1082.8,851.309 1169.79,744.536 1132.08,795.785 1153.13,785.151 1026.81,894.007 949.63,960.951 932.327,959.265 879.428,1011.78 875.234,1008.25 922.795,949.735 938.086,939.332 946.827,941.478 887.004,1001.27 877.815,996.79 911.12,966.073 929.23,956.82 861.547,1025.2 887.769,995.604 915.471,964.759 809.384,1064.67 856.337,1016.5 812.718,1053.15 816.598,1057.56 867.607,1005.98 868.444,1006.36 746.645,1132.11 700.939,1170.65 755.85,1098.74 804.458,1064.16 868.009,996.197 820.611,1059.16 759.759,1131.28 760.62,1125.6 735.562,1149.51 739.358,1134.27 726.549,1143.92 774.633,1091.02 821.021,1031.58 785.457,1086.36 804.435,1065.45 876.691,981.247 892.608,965.787 866.105,1010.74 871.854,1005 907.538,972.684 924.565,964.74 907.83,981.422 911.111,978.237 998.772,880.105 930.409,949.055 910.833,975.788 815.013,1077.71 743.092,1142.44 750.781,1118.1 779.933,1088.04 754.299,1116.35 829.671,1029.94 823.382,1046.58 888.243,979.303 903.852,974.259 947.973,927.99 978.34,914.847 1011.44,886.387 1129.97,774.283 1286.2,640.938 1253.59,696.766 1248.09,707.002 1213.33,745.856 1072.16,853.878 1087.36,825.18 1091.78,823.734 1070.43,845.692 1134.35,778.846 1147.01,776.776 1135.01,795.064 1084.51,835.223 870.66,1033.92 830.648,1063.89 778.284,1110.31 789.074,1084.01 821.875,1042.13 886.976,970.873 970.739,886.047 1010.78,865.498 1045.32,846.06 1120.75,781.427 1122.21,797.331 1091.16,825.982 1198.69,734.249 1190.08,750.985 1164.88,783.269 1221.35,730.615 1159.24,782.669 1208.38,730.693 1209.41,739.812 1214.15,730.253 1181.91,763.773 1139.9,788.306 1141.8,781.662 1155.1,789.115 1039.73,888.936 1002.81,910.824 1028.11,872.995 972.281,941.168 985.292,915.115 1047.7,845.456 1113.05,779.732 1143.59,773.101 1184.62,742.369 1149.74,780.87 1160.32,773.976 1290.94,657.238 1305.33,672.146 1281.61,699.866 1204.32,759.756 1295.97,655.747 1241.54,712.313 1180.71,764.033 1285.9,660.557 1213.51,741.259 1191.58,761.903 1230.6,706.647 1184.98,744.447 1159.16,792.027 1121.88,796.316 1104.55,820.759 1183.94,752.901 1223.68,709.637 1192.66,744.829 1137.93,789.234 1159.78,772.62 1090.75,816.156 1117.87,803.018 1158.38,761.018 1123.75,811.492 1122.99,804.816 1251.86,698.802 1377.53,599.476 1390.2,602.096 1438.61,575.43 1630.57,439.474 1551.31,506.156 1451.33,581.673 1388.45,629.659 1417.35,595.91 1424.93,575.494 1385.74,623.588 1496.89,528.707 1378.95,652.944 1267.23,731.758 1160.14,813.042 1133.49,817.409 1067.2,868.588 1013.24,913.189 959.774,952.163 960.498,936.169 932.605,962.102 989.465,892.658 1014.05,885.507 1031.37,867.107 1055.84,837.081 1096.34,794.785 1160.02,751.811 1176.87,739.227 1149.81,775.394 1202.62,739.47 1254.8,708.955 1300.43,660.095 1276.19,702.253 1272.47,689.63 1307.18,676.521 1261.59,712.604 1282.78,672.766 1233.69,715.954 1030.74,885.612 1034.88,869.183 962.874,937.473 999.583,882.609 1067.16,824.802 1174.64,731.784 1181.84,739.389 1116.48,801.822 1144.24,787.589 1216.99,698.745 1320.96,608.477 1278.83,678.065 1278.28,689.661 1168.97,788.585 1186.95,762.578 1216.97,725.811 1206.18,746.071 1282.98,667.574 1335.81,627.554 1277.77,692.599 1250.03,729.017 1183.39,778.041 1028.45,914.947 1044.4,875.176 1042.51,863.612 1047.05,868.876 1105.79,799.561 1186.85,752.543 1104.79,834.546 1001.03,927.789 980.617,936.298 972.528,930.134 1025.63,868.099 1075.85,826.728 1102.21,802.687 1139.02,778.181 1100.88,820.588 1008.46,912.693 1046.78,856.323 1090.25,805.921 1102.36,801.262 1095.25,814.806 1080.76,829.056 1027.54,876.529 1062.47,832.72 1081.94,825.486 1033.4,870.621 1059.66,847.803 1128.74,777.629 1199.79,728.557 1341.21,598.805 1323.83,621.887 1337.98,625.573 1348.62,648.377 1307.62,670.707 1212.51,743.317 1213.07,742.803 1141.32,804.393 1120.52,816.711 1180.08,763.244 1230.89,717.697 1209.57,715.098 1146.28,781.008 1187.22,749.167 1285.23,704.074 1350.37,643.004 1508.24,490.081 1507.85,528.102 1446.27,594.191 1378.88,646.866 1399.9,608.263 1322.1,685.237 1308.98,665.322 1282.45,683.129 1296.6,667.988 1372.42,610.077 1453.59,547.53 1389.58,608.624 1442.75,574.937 1421.5,602.259 1291.31,707.158 1195.41,774.056 1140.4,806.053 1152.61,776.048 1194.72,735.979 1149.25,775.164 1139,783.981 1040.5,882.139 1084.88,815.717 1082.59,822.609 1088.93,817.024 1069.49,844.108 1128.59,777.003 1166.73,763.035 1115.78,806.253 1262.85,664.588 1389.65,584.095 1414.57,577.317 1513.08,507.51 1431.19,601.375 1432.27,599.217 1304.9,694.589 1296.3,694.61 1302.05,676.974 1269.52,688.442 1235.39,724.393 1277.77,693.221 1284.33,670.493 1258.23,701.457 1517.73,485.116 1442.96,583.654 1480.42,557.716 1423.96,597.151 1381.02,635.993 1382.44,631.782 1325.47,674.938 1275.11,713.144 1193.9,776.388 1127.26,826.683 1075.31,868.907 1055.2,870.297 1071.8,835.559 976.962,917.739 973.636,915.384 966.253,920.125 880.898,1018.86 865.75,1030.68 898.16,981.814 887.276,992.654 886.265,986.325 946.83,932.714 952.186,927.774 936.762,949.655 967.491,925.266 1077.77,833.525 969.821,938.397 989.354,921.25 888.905,995.071 895.115,984.121 930.873,946.598 883.599,991.16 877.193,991.164 964.68,904.1 1070.34,824.622 988.345,921.809 948.676,948.608 929.182,962.486 888.849,995.306 927.004,952.139 942.132,943.499 926.448,965.981 964.934,930.926 1039.68,841.663 1095.3,788.141 1124.72,774.951 1218.43,701.52 1156.9,774.985 1124.71,813.736 1171.38,768.583 1046.55,863.883 954.293,951.605 937.751,970.79 873.057,1017.75 894.672,986.414 914.751,965.971 898.226,977.451 920.028,952.91 993.67,884.311 1011.84,878.698 1020.18,873.982 1049.81,839.164 1065.12,841.831 989.03,921.675 1025.5,877.776 997.682,911.747 978.478,914.158 976.911,921.905 929.134,976.482 886.641,1011.38 888.65,1007.91 921.139,964.743 1012.88,895.172 1088.82,830.608 1200.41,699.6 1310.62,635.536 1371.61,597.512 1469.28,526.675 1554.18,481.176 1672.02,410.616 1573.67,510.753 1489.65,581.135 1471.76,580.683 1536.4,509.901 1495.13,542.533 1424.25,601.525 1473.34,561.024 1384.63,628.6 1377.01,629.208 1298.47,691.513 1298.11,688.587 1217,764.519 1204.29,752.892 1182.57,764.596 1139.1,801.309 1097.53,832.952 1089.88,830.968 1040.64,871.693 1033.9,884.905 980.83,926.289 1017.26,878.726 1108.98,784.976 1102.91,802.798 1059.84,856.782 1037.63,875.338 1013.43,894.589 1128.2,778.094 1194.05,721.72 1287.44,669.102 1206.53,752.827 1241.97,714.626 1219.72,723.437 1305.12,664.273 1351.72,631.61 1446.68,566.755 1545.37,492.041 1550.54,508.814 1423.86,612.386 1514.72,521.157 1388.32,627.558 1231.82,753.5 1224.93,743.279 1148.21,806.83 1102.97,842.606 1036.77,895.446 1031.4,887.75 1016.75,893.294 946.515,955.142 955.965,936.519 972.144,914.488 968.23,921.8 984.47,904.6 1046.57,849.276 1110.5,804.694 1059.52,868.425 1174.31,750.518 1365.98,599.16 1387.94,597.198 1249.94,724.056 1313.3,662.965 1237.06,737.983 1154.21,795.724 1112.81,821.052 1003.33,910.854 947.99,955.037 961.084,943.797 991.671,900.094 1055.5,844.637 912.073,987.866 946.224,942.944 844.842,1037.49 874.806,999.49 840.991,1037.46 838.318,1035.39 922.404,944.588 871.797,1002.91 918.187,948.621 984.313,887.308 869.97,1010.99 886.936,986.572 843.041,1045.86 848.674,1031.73 856.619,1007.72 939.032,931.896 917.947,970.466 966.274,903.669 949.127,918.278 911.267,969.997 970.358,909.219 864.422,1024.53 810.041,1075.12 900.055,977.65 769.464,1112.62 799.82,1083.24 892.315,985.878 939.714,957.879 901.819,987.733 902.155,980.257 914.315,968.909 935.016,953.818 922.826,967.451 935.003,963.946 935.002,979.013 841.979,1053.81 826.176,1059.13 815.223,1069.95 799.845,1086.29 870.079,1005.85 916.216,958.516 953.1,928.903 902.829,979.639 945.776,942.989 991.843,900.995 1018.24,871.76 1171.36,746.064 1225.51,716.523 1201.33,733.018 1159.2,777.157 1171.42,765.837 1129.39,785.266 1339.63,593.258 1376.66,606.216 1400.55,605.469 1381.96,623.359 1312.7,664.843 1331.53,653.038 1351.24,641.238 1325.14,665.125 1152.77,818.648 1039.44,905.804 1016.18,904.934 1033.14,872.086 1003.97,904.869 1037.96,870.657 1013.97,889.443 1055.6,843.718 991.06,915.371 921.609,981.273 934.575,953.661 990.804,892.807 984.377,891.451 1004.55,887.82 1020.55,884.959 1006.15,886.496 1034.84,867.877 1058.55,843.56 1026.03,871.509 1034.54,859.347 907.25,958.879 910.453,969.539 929.062,951.842 907.706,970.503 921.565,964.331 938.142,949.948 897.403,978.009 877.093,1019.49 908.351,971.226 861.421,1027.25 939.355,939.38 950.491,935.839 1058.54,825.618 985.638,901.485 983.658,900.405 956.219,946.929 1055.33,841.904 1088.44,814.111 1052.2,836.2 1107.58,809.378 1127.94,787.671 1083.24,819.236 1185.42,750.208 1155.67,783.113 1164,777.427 1233.77,699.907 1318.1,649.698 1274.62,702.272 1234.24,728.17 1105.89,856.898 1075.55,858.532 1032.02,891.724 971.272,946.161 980.391,919.923 972.988,919.521 909.66,994.791 957.417,948.175 961.288,934.075 954.217,938.738 1009.16,875.731 1090.61,806.107 986.916,922.885 1031.91,871.37 1032.96,875.084 860.099,1018.81 860.356,1019.57 794.216,1092.4 798.085,1080.82 821.172,1046.72 800.906,1074.49 804.057,1074.48 848.105,1007.99 850.183,1013.57 873.616,994.428 872.514,1000.06 949.4,945.218 969.222,923.288 1018.8,873.566 1013.45,888.619 1038.08,866.144 1123.99,793.886 1174.39,742.141 1270.21,667.141 1259.95,682.184 1235.89,723.44 1293.76,655.27 1420.14,596.251 1312.19,705.891 1200.69,777.56 1205.11,753.507 1110.95,836.13 1106.98,827.571 1120.25,810.741 1047.05,877.211 1077.49,836.457 1086.9,828.012 1074.11,837.17 1161.06,756.617 1138.56,782.25 1082.82,852.74 1035.23,883.306 1027.84,881.553 1043.33,869.863 1091.55,808.202 1075.33,850.888 1070.97,842.868 1052.78,862.411 1101.18,812.261 1139.06,782.304 1260.25,671.723 1234.39,721.774 1295.27,676.877 1272.81,701.645 1253.37,711.385 1279.77,686.993 1262.5,711.015 1194,766.325 1193.59,750.395 1211.1,728.008 1148.26,791.008 1231.58,688.339 1281.24,643.76 1328.29,621.143 1381.94,584.444 1265.99,683.142 1168.7,768.88 1150.23,796.304 1157.45,771.439 1175.65,764.759 1026.94,885.433 1092.08,810.245 1117.86,787.121 1228.04,702.436 1300.45,654.054 1333.7,652.623 1275.76,694.61 1319.14,649.744 1226.74,721.193 1293.53,668.381 1273.26,684.189 1263.63,707.853 1250.57,708.291 1093.42,841.219 1147.8,787.551 1063.42,858.038 1058.79,850.499 1096.24,808.418 1190.11,720.79 1120.67,804.149 1046.63,879.776 1024.08,896.37 1024.76,888.295 1033.2,872.552 931.022,967.499 887.639,1008.74 845.644,1045.95 835.902,1048.77 855.394,1027.1 894.51,975.986 961.096,912.722 925.244,948.074 942.818,941.58 892.912,989.382 906.98,979.491 878.751,991.122 904.817,963.017 895.414,982.083 933.102,942.308 1059.79,836.597 1085.91,817.196 1069.94,852.568 1067.39,843.961 1046.03,863.56 1040.06,886.481 1005.66,909.866 1003.69,899.287 957.712,938.494 960.177,921.37 995.997,913.267 1088.22,811.833 1109.18,801.036 1182.41,742.657 1182.04,738.848 1158.24,751.544 1078.47,786.827 1060.8,823.783 1067.03,833.808 1013.06,881.443 1006.85,885.18 996.71,896.382 1035.26,852.471 993.601,914.2 986.646,908.394 1031.22,860.799 869.562,982.03 958.159,905.622 1059.4,826.896 1014.42,889.957 1043.17,856.938 1053.32,852.425 1041.67,877.47 1051.62,848.195 1075.72,833.581 1242.61,702.035 1266.41,698.249 1156.39,800.27 1063.42,859.625 1043.06,869.758 1073.73,835.931 1198.87,717.64 1150,784.616 1165.49,765.129 1252.32,696.792 1239.4,714.101 1260.24,697.538 1299.71,662.619 1285.36,685.427 1298.27,681.729 1238.95,728.239 1261.75,696.23 1323.01,645.039 1380.18,604.021 1396.43,611.905 1250.61,730.704 1244.6,724.318 1226.22,740.88 1262.5,709.565 1103.95,833.071 1071.72,852.724 1092.01,819.576 1031.53,883.075 1038.08,865.698 1073.37,832.593 1136.29,778.898 1197.91,738.496 1261.23,693.257 1352.65,632.029 1214.57,757.581 1174.99,787.947 1175.8,779.489 1291,687.501 1442.23,546.137 1367.85,625.237 1209.74,743.331 1130.95,795.348 1134.94,792.508 1052.74,865.643 932.257,974.618 964.425,926.18 958.731,930.621 990.786,897.356 1042.32,859.431 1190.89,717.989 1279.16,654.983 1243.79,706.379 1339.9,617.37 1269.68,709.378 1324.1,669.111 1234.87,738.407 1122.77,829.527 1159.62,776.963 1167.66,769.76 1266.46,672.864 1434.54,562.726 1564.61,464.988 1493.74,550.818 1459.49,587.189 1438.98,577.618 1458.75,565.028 1362.1,650.95 1291.93,704.295 1185.2,800.695 1232.13,722.739 1257.81,699.53 1183.86,765.557 1203.62,745.445 1250.09,698.37 1244.18,718.874 1235.3,726.548 1225.27,727.646 1206.45,752.526 1159.45,787.832 1161.59,770.35 1136.63,795.817 1044.06,866.994 1165.98,738.753 1123.77,797.604 1102.74,816.852 1162.23,768.339 1192.46,743.182 1209.26,730.901 1139.26,799.445 1149.77,767.64 1084.8,835.883 1024,900.43 961.734,951.448 1030.93,862.317 999.778,898.329 990.125,908.47 1035.28,859.31 1052.05,838.665 1038.79,850.523 1018.31,882.986 1037.15,850.196 1016.28,863.182 1082.06,813.983 1137.52,791.045 1211.03,751.248 1248.64,710.968 1334.41,634.726 1490.94,519.383 1498.69,538.567 1396.55,633.24 1383.54,629.455 1368.52,630.888 1313.24,680.621 1218.86,748.233 1273.37,691.448 1232.84,738.189 1305.96,632.639 1332.99,633.137 1275.35,702.547 1499.97,507.612 1411.33,614.803 1285.17,703.924 1143.28,833.323 1054.08,892.214 1090.35,828.865 1086.26,830.665 1059.39,860.444 1075.92,837.077 1018.97,895.522 1000.59,906.942 963.293,927.336 1025.12,874.547 996.803,905.98 944.722,953.884 940.395,951.15 1001.82,890.313 1070.47,827.033 1099.94,816.203 1098.18,812.584 1236.91,691.958 1311.92,630.946 1357.85,616.737 1381.57,603.01 1236.97,732.377 1246.32,710.237 1172.74,769.201 1182.12,754.476 1185.37,765.331 1074.38,846.617 1029.4,883.054 1001.74,894.648 1016.42,879.064 989.033,898.175 1013.62,876.101 1028.98,869.744 1027.04,863.05 951.351,941.654 1014.83,887.903 982.487,924.458 982.732,918.956 868.914,1016.04 905.599,979.103 863.358,1023.05 908.208,973.601 857.416,1037.54 865.496,1015.9 838.556,1049.94 806.235,1066.34 838.757,1046.81 880.939,1006.58 887.61,998.756 989.808,887.696 988.693,892.058 1139.93,752.095 1249.75,673.261 1144.24,784.531 1293.05,644.161 1376.01,598.89 1450.56,547.937 1476.25,554.965 1418.96,609.482 1508.56,539.808 1526.92,522.107 1471.2,575.333 1368.85,654.113 1355.6,649.26 1306.39,677.992 1312.76,664.641 1293.24,677.87 1187.1,778.881 1082.57,863.344 1076.73,852.441 1091.23,813.036 1016.99,900.385 957.253,948.657 946.293,950.905 1105.15,777.119 1101.59,806.494 1174.17,738.306 1199.36,731.381 1227.92,716.393 1149.89,797.989 1199.57,740.503 1223.54,726.449 1274.35,674.177 1385.3,588.597 1458.78,552.786 1379,633.26 1236.02,747.186 1158.09,805.201 1083.8,869.755 1105.01,824.568 1122.32,797.373 1030.1,888.664 1046.83,859.459 1109.08,786.614 1033.65,865.153 938.985,971.74 899.183,991.79 972.694,921.272 912.187,981.896 817.296,1080.78 801.344,1085.7 866.542,1007.37 871.149,1014.37 920.601,963.414 1039.59,861.921 999.179,904.901 976.61,922.965 979.053,922.611 933.258,960.633 929.953,973.635 985.013,897.61 1055.72,857.042 1078.88,833.882 1056.16,873.381 1032.73,876.034 882.678,1012.27 967.436,911.62 990.585,897.241 1047.22,838.269 993.354,897.489 1053.1,842.147 1089.44,802.437 1089.19,802.746 1134.4,784.149 1237.05,696.49 1209.6,727.81 1282.86,673.424 1294.84,660.957 1154.81,787.294 1273.4,675.491 1321.19,686.609 1151.71,820.774 1099.23,844.94 1135.81,795.423 1150.65,782.565 1168.44,769.511 1272.38,671.863 1133.22,798.592 1089.75,840.899 1047.27,865.457 975.224,927.566 949.901,946.871 960.07,921.375 859.688,1010.95 940.872,938.287 889.59,998.722 839.538,1049.7 869.038,996.803 843.584,1027.92 876.327,1004.96 884.341,999.459 1023.02,868.551 1172.86,734.301 1144.21,771.808 1190.15,726.351 1345.13,616.506 1403.7,580.909 1394.08,606.103 1414.22,609.781 1347.61,663.142 1339.83,656.814 1227.73,734.016 1250.08,707.487 1239.74,719.916 1219.48,710.726 1205.29,724.896 1100.36,819.37 1176.72,742.615 1163.77,759.269 1157.37,783.655 1174.48,755.142 1099.79,829.125 1049.82,869.028 1017.28,886.794 1052.79,854.801 1085.76,835.565 1079.75,838.442 1131.72,797.509 1125.95,804.157 1063.07,853.715 1079.19,831.091 1078.07,833.34 1130.12,776.196 1124.25,808.954 1136.05,789.588 1202.44,723.661 1089.89,849.402 1141.59,793.283 1162.45,752.025 1166.29,755.255 1207.71,727.012 1186.74,759.925 1194.23,751.376 1212.04,726.507 1330.94,624.502 1289.83,687.621 1206.13,747.702 1061.81,884.767 986.732,934.239 1040.94,859.492 1052.45,857.83 1042.53,877.43 1044.11,851.04 1115.35,786.01 1112.33,795.703 1134.17,785.203 1161.14,755.268 1140.18,759.609 1178.18,758.138 1165.98,775.247 1085.32,850.364 1100.72,821.731 1045.63,871.63 997.211,917.715 941.801,962.269 916.008,978.213 926.943,953.774 949.39,927.403 1039.76,843.815 1220.27,668.894 1293.32,641.269 1313.1,642.946 1230.63,736.442 1229.78,727.832 1126.09,819.562 1102.81,831.798 1101.35,817.999 1140.48,782.665 1147.39,797.475 1197.34,751.147 1180.76,768.906 1209.38,732.528 1232.57,715.907 1274.3,670.592 1379.82,602.1 1398.16,602.425 1538.23,479.313 1496.05,534.992 1495.72,531.461 1397.28,608.474 1239.89,738.491 1209.08,742.811 1203.48,737.724 1178.69,754.472 1083.75,836.329 1101.22,818.674 1098.04,824.233 1078.13,843.828 1142.57,779.254 1337.31,627.191 1296.95,672.353 1320.38,639.303 1390.11,580.124 1418.69,582.024 1386.42,622.719 1390.79,629.25 1330.7,664.392 1288.2,700.818 1427.61,560.525 1477.96,541.806 1446.79,577.332 1515.15,523.904 1519.08,524.855 1504.63,533.386 1413.53,623.326 1351.92,655.666 1316.37,675.337 1201.75,773.037 1172.42,782.42 1174.79,766.892 1136.86,797.577 1085.44,834.996 1095.08,815.11 1129.68,781.731 1141.67,773.982 1130.13,795.842 1036.12,869.521 1062.56,846.568 1062.91,843.367 1097.6,813.763 1105.55,805.286 1131.72,785.909 1015.07,894.038 1042.78,869.612 976.849,919.478 980.782,912.143 930.757,966.153 858.244,1037.07 888.321,984.334 937.45,927.63 922.521,949.43 1026.13,854.057 1138.69,760.378 1044.8,872.074 1158.82,768.058 1247.98,700.093 1328.97,630.863 1337.08,626.737 1320.29,666.782 1304.99,677.282 1258.43,703.387 1246.43,704.03 1204.51,760.631 1357.84,654.445 1490.19,540.648 1552.51,485.398 1679.92,413.314 1714.97,392.006 1700.87,412.153 1615.23,482.993 1585.43,500.692 1558.55,517.192 1530.8,536.028 1405.33,633.112 1411.74,611.854 1362.15,642.074 1357.15,635.051 1380.31,618.182 1309.88,682.367 1252.89,716.508 1247.61,714.603 1236.9,723.987 1211.27,741.1 1150.29,796.683 1074.11,851.517 985.387,939.19 1026.38,871.952 1004.78,893.925 1034.12,861.564 1134.12,774.685 1137.9,780.884 1121.95,802.938 1144.88,780.863 1277.03,663.435 1491.13,473.149 1459.22,541.122 1524.23,498.356 1527.78,519.755 1611.57,448.473 1493.01,567.588 1482.38,571.317 1384.86,640.059 1351.05,662.22 1318.21,685.922 1229.08,748.411 1278.34,682.857 1187.73,768.434 1243.82,701.624 1339.99,619.006 1390.18,582.362 1299.89,678.787 1229.5,723.81 1232.8,728.567 1216.76,735.966 1280.06,668.948 1170.36,784.218 1087.35,856.678 989.557,937.07 950.002,966.383 930.457,967.93 1030.52,845.816 973.129,912.827 908.118,978.606 880.7,999.517 947.721,930.978 918.338,955.3 879.52,1007.76 873.286,1014.65 946.407,951.684 893.591,1008.83 921.997,969.989 907.275,974.58 967.177,916.414 989.162,900.447 1034.47,862.984 1084.56,833.302 1035.3,863.064 1035.97,859.169 1099.15,822.943 1126.06,781.471 1105.08,794.328 1136.32,784.395 1085.57,837.627 951.892,955.064 916.444,985.476 935.789,955.974 931.946,953.644 1010.94,863.51 1029.08,860.195 1029.73,866.408 1052.56,849.905 1092.42,827.364 1039.48,880.694 1066.68,845.968 1069.57,842.4 1208.85,715.661 1181.93,757.799 1197.84,756.854 1188.23,758.011 1372.57,571.417 1385.9,597.635 1357.42,633.263 1325.42,658.387 1374.25,616.099 1297.35,689.387 1308.82,674.068 1358.55,635.264 1361.14,636.879 1297.43,695.633 1245.87,738.484 1268.46,699.487 1236.5,736.847 1273.61,684.756 1254.05,704.368 1230.26,731.924 1348.5,623.973 1390.74,613.414 1327.53,666.445 1204.45,755.41 1208.46,745.905 1243.34,702.776 1255.97,690.997 1228.21,715.82 1325.02,644.38 1223.29,737.932 1417.03,574.446 1291.1,681.278 1273.11,694.977 1238.08,718.501 1150.67,792.508 1199.18,758.866 1071.13,874.473 1097.93,822.629 1101.83,827.629 1210.57,730.623 1186.69,748.403 1162.53,786.113 1156.74,783.025 1203.84,733.314 1178.45,751.711 1295.48,657.61 1207.23,740.299 1257.03,695.809 1205.53,738.44 1313.03,650.648 1471.19,532.347 1406.42,591.174 1494.48,531.652 1518.86,562.913 1474.32,589.467 1495.02,542.994 1443.93,587.299 1333.22,674.472 1316.84,676.746 1298.86,682.618 1306.56,669.368 1245.53,734.434 1165.9,791.013 1092.82,847.674 1025.08,898.412 969.941,945.505 997.28,902.047 1028.64,873.986 1008.19,899.309 1028.08,880.82 1109.53,804.042 1180.82,744.186 1092.39,836.227 1141.62,808.267 1189.03,748.284 1141.94,806.051 1233.3,713.209 1408.59,591.647 1444.02,571.19 1553.6,486.316 1658.27,417.094 1607.01,490.228 1448.26,615.761 1364.05,671.57 1227.65,777.679 1227.9,754.39 1207,758.044 1174.34,779.975 1168.43,773.923 1144.09,799.375 1119.72,818.536 1107.72,821.608 1123.11,799.375 1119.59,806.73 1034.63,876.907 1040.77,862.588 1024.04,877.786 1019.1,879.286 1010.09,896.413 995.547,901.795 970.288,928.864 1150.37,762.117 1181.83,739.907 1201.38,725.124 1267.77,666.102 1239.19,707.603 1261.95,691.023 1225.21,712.866 1310.09,669.841 1293.33,676.301 1176.22,778.705 1248.06,698.1 1208.34,757.565 1121.87,830.049 1080.73,858.748 1072.07,846.1 1062.51,861.418 998.62,926.772 1009.81,892.567 1087.34,812.733 1081.29,839.394 1142.34,792.738 1161.62,769.324 1225.32,730.007 1344.33,616.158 1368.63,609.099 1356.45,642.141 1296.57,699.04 1284.77,697.897 1274.21,701.983 1187.43,769.23 1157.69,786.982 1189.95,744.939 1268.15,687.375 1197.45,755.806 1059.05,877.023 1070.12,845.246 1012.4,895.628 917.561,979.158 908.979,978.364 888.528,998.981 887.157,987.248 918.863,961.021 940.012,936.277 957.882,916.682 896.116,984.581 973.309,918.988 933.266,959.197 845.282,1035.27 850.945,1025.32 804.68,1079.22 875.191,1002.16 944.056,932.23 884.908,993.292 855.357,1027.23 893.056,998.737 944.718,936.008 1109.64,782.591 1286.67,638.922 1438.12,533.167 1512.83,496.232 1546.81,508.449 1616.01,455.899 1607.07,489.139 1505.69,579.888 1377.24,666.85 1458.29,576.554 1383.93,645.456 1386.92,625.96 1326.92,678.04 1291.63,696.458 1223.96,753.976 1190.35,771.43 1197.73,753.987 1090.09,856.818 1004.54,922.84 961.891,953.777 967.373,932.517 930.137,965.04 919.29,968.871 919.377,961.077 955.924,940.532 975.161,911.068 949.636,939.446 953.218,939.117 1014.99,890.429 1029.53,877.78 1159.42,762.805 1137.81,801.353 1128.37,814.049 1093.33,830.488 1081.57,834.434 1047.2,859.44 1094.56,812.971 1055.85,851.962 975.586,932.15 1022.97,873.612 1017.97,880.343 1080.67,833.741 1068.01,851.296 1255.8,679.757 1191.38,749.687 1227.65,719.304 1204.55,748.167 1191,753.734 1167.83,780.076 1235.35,709.712 1222.45,712.895 1207.86,722.088 1122.11,797.68 1153.33,771.583 1182.77,738.793 1294.6,681.421 1304.6,688.547 1174.31,783.59 1137.13,801.068 1107.62,817.583 1089.55,819.664 1127.24,770.912 1265.43,669.819 1343.43,615.504 1374.53,605.008 1345.32,639.156 1305.19,681.908 1145,822.058 1102.9,845.543 1073.95,857.771 1152.31,767.597 1190.03,745.192 1132.31,800.884 1163.61,759.853 1190.57,741.365 1126.2,801.164 1088.74,824.986 1090.72,828.722 1191.85,726.705 1173.47,768.931 1042.69,896.84 988.677,929.785 934.473,972.358 858.514,1042.24 853.704,1033.15 853.46,1026.96 833.476,1042.67 890.76,975.842 962.741,903.038 1041.65,838.617 1066.19,834.092 1020.16,888.686 1127.16,785.768 1111.63,799.322 1121.67,790.152 1146.34,771.399 1291.21,646.432 1369.47,585.252 1403.08,584.527 1478.55,530.633 1591.7,463.212 1512.05,557.497 1577.44,499.036 1524.92,558.68 1550.6,510.79 1392.14,643.788 1316.28,693.389 1235.97,758.668 1192.84,773.2 1071.31,884.115 1056.58,872.059 1059.6,857.82 1068.85,840.585 1079.72,833.029 1092.12,811.187 1089.88,821.79 1092.84,815.442 1103.14,817.349 1182.42,743.181 1158.73,767.266 1231.45,703.048 1267.71,687.458 1249.84,706.017 1204.78,749.654 1211.33,729.847 1358.67,603.517 1330.31,642.5 "/>
<path clip-path="url(#clip350)" d="M186.863 198.898 L550.897 198.898 L550.897 95.2176 L186.863 95.2176  Z" fill="#ffffff" fill-rule="evenodd" fill-opacity="1"/>
<polyline clip-path="url(#clip350)" style="stroke:#000000; stroke-linecap:round; stroke-linejoin:round; stroke-width:4; stroke-opacity:1; fill:none" points="186.863,198.898 550.897,198.898 550.897,95.2176 186.863,95.2176 186.863,198.898 "/>
<polyline clip-path="url(#clip350)" style="stroke:#009af9; stroke-linecap:round; stroke-linejoin:round; stroke-width:4; stroke-opacity:1; fill:none" points="211.758,147.058 361.13,147.058 "/>
<path clip-path="url(#clip350)" d="M396.651 128.366 Q393.549 133.69 392.044 138.898 Q390.54 144.106 390.54 149.453 Q390.54 154.801 392.044 160.055 Q393.572 165.287 396.651 170.588 L392.947 170.588 Q389.475 165.148 387.739 159.893 Q386.026 154.639 386.026 149.453 Q386.026 144.291 387.739 139.06 Q389.452 133.828 392.947 128.366 L396.651 128.366 Z" fill="#000000" fill-rule="nonzero" fill-opacity="1" /><path clip-path="url(#clip350)" d="M403.063 138.412 L423.294 138.412 L423.294 142.301 L407.276 160.935 L423.294 160.935 L423.294 164.338 L402.484 164.338 L402.484 160.449 L418.502 141.815 L403.063 141.815 L403.063 138.412 Z" fill="#000000" fill-rule="nonzero" fill-opacity="1" /><path clip-path="url(#clip350)" d="M430.887 158.458 L435.771 158.458 L435.771 162.439 L431.975 169.847 L428.988 169.847 L430.887 162.439 L430.887 158.458 Z" fill="#000000" fill-rule="nonzero" fill-opacity="1" /><path clip-path="url(#clip350)" d="M455.655 166.745 Q453.849 171.375 452.136 172.787 Q450.423 174.199 447.553 174.199 L444.15 174.199 L444.15 170.634 L446.65 170.634 Q448.41 170.634 449.382 169.8 Q450.354 168.967 451.535 165.865 L452.298 163.921 L441.812 138.412 L446.326 138.412 L454.428 158.689 L462.53 138.412 L467.044 138.412 L455.655 166.745 Z" fill="#000000" fill-rule="nonzero" fill-opacity="1" /><path clip-path="url(#clip350)" d="M474.011 158.458 L478.896 158.458 L478.896 162.439 L475.099 169.847 L472.113 169.847 L474.011 162.439 L474.011 158.458 Z" fill="#000000" fill-rule="nonzero" fill-opacity="1" /><path clip-path="url(#clip350)" d="M509.544 138.412 L500.169 151.027 L510.03 164.338 L505.007 164.338 L497.46 154.152 L489.914 164.338 L484.891 164.338 L494.96 150.773 L485.747 138.412 L490.77 138.412 L497.645 147.648 L504.52 138.412 L509.544 138.412 Z" fill="#000000" fill-rule="nonzero" fill-opacity="1" /><path clip-path="url(#clip350)" d="M515.377 128.366 L519.081 128.366 Q522.553 133.828 524.266 139.06 Q526.002 144.291 526.002 149.453 Q526.002 154.639 524.266 159.893 Q522.553 165.148 519.081 170.588 L515.377 170.588 Q518.456 165.287 519.96 160.055 Q521.488 154.801 521.488 149.453 Q521.488 144.106 519.96 138.898 Q518.456 133.69 515.377 128.366 Z" fill="#000000" fill-rule="nonzero" fill-opacity="1" /></svg>
