<?xml version="1.0" encoding="utf-8"?>
<svg xmlns="http://www.w3.org/2000/svg" xmlns:xlink="http://www.w3.org/1999/xlink" width="600" height="400" viewBox="0 0 2400 1600">
<defs>
  <clipPath id="clip870">
    <rect x="0" y="0" width="2400" height="1600"/>
  </clipPath>
</defs>
<path clip-path="url(#clip870)" d="M0 1600 L2400 1600 L2400 0 L0 0  Z" fill="#ffffff" fill-rule="evenodd" fill-opacity="1"/>
<defs>
  <clipPath id="clip871">
    <rect x="480" y="0" width="1681" height="1600"/>
  </clipPath>
</defs>
<path clip-path="url(#clip870)" d="M193.936 1423.18 L2352.76 1423.18 L2352.76 47.2441 L193.936 47.2441  Z" fill="#ffffff" fill-rule="evenodd" fill-opacity="1"/>
<defs>
  <clipPath id="clip872">
    <rect x="193" y="47" width="2160" height="1377"/>
  </clipPath>
</defs>
<polyline clip-path="url(#clip872)" style="stroke:#000000; stroke-linecap:round; stroke-linejoin:round; stroke-width:2; stroke-opacity:0.1; fill:none" points="193.936,1423.18 193.936,47.2441 "/>
<polyline clip-path="url(#clip872)" style="stroke:#000000; stroke-linecap:round; stroke-linejoin:round; stroke-width:2; stroke-opacity:0.1; fill:none" points="625.7,1423.18 625.7,47.2441 "/>
<polyline clip-path="url(#clip872)" style="stroke:#000000; stroke-linecap:round; stroke-linejoin:round; stroke-width:2; stroke-opacity:0.1; fill:none" points="1057.46,1423.18 1057.46,47.2441 "/>
<polyline clip-path="url(#clip872)" style="stroke:#000000; stroke-linecap:round; stroke-linejoin:round; stroke-width:2; stroke-opacity:0.1; fill:none" points="1489.23,1423.18 1489.23,47.2441 "/>
<polyline clip-path="url(#clip872)" style="stroke:#000000; stroke-linecap:round; stroke-linejoin:round; stroke-width:2; stroke-opacity:0.1; fill:none" points="1920.99,1423.18 1920.99,47.2441 "/>
<polyline clip-path="url(#clip872)" style="stroke:#000000; stroke-linecap:round; stroke-linejoin:round; stroke-width:2; stroke-opacity:0.1; fill:none" points="2352.76,1423.18 2352.76,47.2441 "/>
<polyline clip-path="url(#clip870)" style="stroke:#000000; stroke-linecap:round; stroke-linejoin:round; stroke-width:4; stroke-opacity:1; fill:none" points="193.936,1423.18 2352.76,1423.18 "/>
<polyline clip-path="url(#clip870)" style="stroke:#000000; stroke-linecap:round; stroke-linejoin:round; stroke-width:4; stroke-opacity:1; fill:none" points="193.936,1423.18 193.936,1404.28 "/>
<polyline clip-path="url(#clip870)" style="stroke:#000000; stroke-linecap:round; stroke-linejoin:round; stroke-width:4; stroke-opacity:1; fill:none" points="625.7,1423.18 625.7,1404.28 "/>
<polyline clip-path="url(#clip870)" style="stroke:#000000; stroke-linecap:round; stroke-linejoin:round; stroke-width:4; stroke-opacity:1; fill:none" points="1057.46,1423.18 1057.46,1404.28 "/>
<polyline clip-path="url(#clip870)" style="stroke:#000000; stroke-linecap:round; stroke-linejoin:round; stroke-width:4; stroke-opacity:1; fill:none" points="1489.23,1423.18 1489.23,1404.28 "/>
<polyline clip-path="url(#clip870)" style="stroke:#000000; stroke-linecap:round; stroke-linejoin:round; stroke-width:4; stroke-opacity:1; fill:none" points="1920.99,1423.18 1920.99,1404.28 "/>
<polyline clip-path="url(#clip870)" style="stroke:#000000; stroke-linecap:round; stroke-linejoin:round; stroke-width:4; stroke-opacity:1; fill:none" points="2352.76,1423.18 2352.76,1404.28 "/>
<path clip-path="url(#clip870)" d="M193.936 1454.1 Q190.325 1454.1 188.496 1457.66 Q186.691 1461.2 186.691 1468.33 Q186.691 1475.44 188.496 1479.01 Q190.325 1482.55 193.936 1482.55 Q197.57 1482.55 199.376 1479.01 Q201.204 1475.44 201.204 1468.33 Q201.204 1461.2 199.376 1457.66 Q197.57 1454.1 193.936 1454.1 M193.936 1450.39 Q199.746 1450.39 202.802 1455 Q205.88 1459.58 205.88 1468.33 Q205.88 1477.06 202.802 1481.67 Q199.746 1486.25 193.936 1486.25 Q188.126 1486.25 185.047 1481.67 Q181.992 1477.06 181.992 1468.33 Q181.992 1459.58 185.047 1455 Q188.126 1450.39 193.936 1450.39 Z" fill="#000000" fill-rule="nonzero" fill-opacity="1" /><path clip-path="url(#clip870)" d="M620.353 1481.64 L636.672 1481.64 L636.672 1485.58 L614.728 1485.58 L614.728 1481.64 Q617.39 1478.89 621.973 1474.26 Q626.58 1469.61 627.76 1468.27 Q630.006 1465.74 630.885 1464.01 Q631.788 1462.25 631.788 1460.56 Q631.788 1457.8 629.843 1456.07 Q627.922 1454.33 624.82 1454.33 Q622.621 1454.33 620.168 1455.09 Q617.737 1455.86 614.959 1457.41 L614.959 1452.69 Q617.783 1451.55 620.237 1450.97 Q622.691 1450.39 624.728 1450.39 Q630.098 1450.39 633.293 1453.08 Q636.487 1455.77 636.487 1460.26 Q636.487 1462.39 635.677 1464.31 Q634.89 1466.2 632.783 1468.8 Q632.205 1469.47 629.103 1472.69 Q626.001 1475.88 620.353 1481.64 Z" fill="#000000" fill-rule="nonzero" fill-opacity="1" /><path clip-path="url(#clip870)" d="M1060.47 1455.09 L1048.67 1473.54 L1060.47 1473.54 L1060.47 1455.09 M1059.25 1451.02 L1065.13 1451.02 L1065.13 1473.54 L1070.06 1473.54 L1070.06 1477.43 L1065.13 1477.43 L1065.13 1485.58 L1060.47 1485.58 L1060.47 1477.43 L1044.87 1477.43 L1044.87 1472.92 L1059.25 1451.02 Z" fill="#000000" fill-rule="nonzero" fill-opacity="1" /><path clip-path="url(#clip870)" d="M1489.63 1466.44 Q1486.48 1466.44 1484.63 1468.59 Q1482.8 1470.74 1482.8 1474.49 Q1482.8 1478.22 1484.63 1480.39 Q1486.48 1482.55 1489.63 1482.55 Q1492.78 1482.55 1494.61 1480.39 Q1496.46 1478.22 1496.46 1474.49 Q1496.46 1470.74 1494.61 1468.59 Q1492.78 1466.44 1489.63 1466.44 M1498.92 1451.78 L1498.92 1456.04 Q1497.16 1455.21 1495.35 1454.77 Q1493.57 1454.33 1491.81 1454.33 Q1487.18 1454.33 1484.73 1457.45 Q1482.3 1460.58 1481.95 1466.9 Q1483.31 1464.89 1485.37 1463.82 Q1487.43 1462.73 1489.91 1462.73 Q1495.12 1462.73 1498.13 1465.9 Q1501.16 1469.05 1501.16 1474.49 Q1501.16 1479.82 1498.01 1483.03 Q1494.86 1486.25 1489.63 1486.25 Q1483.64 1486.25 1480.47 1481.67 Q1477.3 1477.06 1477.3 1468.33 Q1477.3 1460.14 1481.18 1455.28 Q1485.07 1450.39 1491.62 1450.39 Q1493.38 1450.39 1495.17 1450.74 Q1496.97 1451.09 1498.92 1451.78 Z" fill="#000000" fill-rule="nonzero" fill-opacity="1" /><path clip-path="url(#clip870)" d="M1920.99 1469.17 Q1917.66 1469.17 1915.74 1470.95 Q1913.84 1472.73 1913.84 1475.86 Q1913.84 1478.98 1915.74 1480.77 Q1917.66 1482.55 1920.99 1482.55 Q1924.33 1482.55 1926.25 1480.77 Q1928.17 1478.96 1928.17 1475.86 Q1928.17 1472.73 1926.25 1470.95 Q1924.35 1469.17 1920.99 1469.17 M1916.32 1467.18 Q1913.31 1466.44 1911.62 1464.38 Q1909.95 1462.32 1909.95 1459.35 Q1909.95 1455.21 1912.89 1452.8 Q1915.85 1450.39 1920.99 1450.39 Q1926.15 1450.39 1929.09 1452.8 Q1932.03 1455.21 1932.03 1459.35 Q1932.03 1462.32 1930.34 1464.38 Q1928.68 1466.44 1925.69 1467.18 Q1929.07 1467.96 1930.95 1470.26 Q1932.84 1472.55 1932.84 1475.86 Q1932.84 1480.88 1929.77 1483.57 Q1926.71 1486.25 1920.99 1486.25 Q1915.27 1486.25 1912.2 1483.57 Q1909.14 1480.88 1909.14 1475.86 Q1909.14 1472.55 1911.04 1470.26 Q1912.94 1467.96 1916.32 1467.18 M1914.6 1459.79 Q1914.6 1462.48 1916.27 1463.98 Q1917.96 1465.49 1920.99 1465.49 Q1924 1465.49 1925.69 1463.98 Q1927.4 1462.48 1927.4 1459.79 Q1927.4 1457.11 1925.69 1455.6 Q1924 1454.1 1920.99 1454.1 Q1917.96 1454.1 1916.27 1455.6 Q1914.6 1457.11 1914.6 1459.79 Z" fill="#000000" fill-rule="nonzero" fill-opacity="1" /><path clip-path="url(#clip870)" d="M2327.44 1481.64 L2335.08 1481.64 L2335.08 1455.28 L2326.77 1456.95 L2326.77 1452.69 L2335.04 1451.02 L2339.71 1451.02 L2339.71 1481.64 L2347.35 1481.64 L2347.35 1485.58 L2327.44 1485.58 L2327.44 1481.64 Z" fill="#000000" fill-rule="nonzero" fill-opacity="1" /><path clip-path="url(#clip870)" d="M2366.8 1454.1 Q2363.18 1454.1 2361.36 1457.66 Q2359.55 1461.2 2359.55 1468.33 Q2359.55 1475.44 2361.36 1479.01 Q2363.18 1482.55 2366.8 1482.55 Q2370.43 1482.55 2372.23 1479.01 Q2374.06 1475.44 2374.06 1468.33 Q2374.06 1461.2 2372.23 1457.66 Q2370.43 1454.1 2366.8 1454.1 M2366.8 1450.39 Q2372.61 1450.39 2375.66 1455 Q2378.74 1459.58 2378.74 1468.33 Q2378.74 1477.06 2375.66 1481.67 Q2372.61 1486.25 2366.8 1486.25 Q2360.99 1486.25 2357.91 1481.67 Q2354.85 1477.06 2354.85 1468.33 Q2354.85 1459.58 2357.91 1455 Q2360.99 1450.39 2366.8 1450.39 Z" fill="#000000" fill-rule="nonzero" fill-opacity="1" /><path clip-path="url(#clip870)" d="M1272.41 1522.27 L1272.41 1532.4 L1284.47 1532.4 L1284.47 1536.95 L1272.41 1536.95 L1272.41 1556.3 Q1272.41 1560.66 1273.58 1561.9 Q1274.79 1563.14 1278.45 1563.14 L1284.47 1563.14 L1284.47 1568.04 L1278.45 1568.04 Q1271.67 1568.04 1269.1 1565.53 Q1266.52 1562.98 1266.52 1556.3 L1266.52 1536.95 L1262.22 1536.95 L1262.22 1532.4 L1266.52 1532.4 L1266.52 1522.27 L1272.41 1522.27 Z" fill="#000000" fill-rule="nonzero" fill-opacity="1" /><polyline clip-path="url(#clip872)" style="stroke:#000000; stroke-linecap:round; stroke-linejoin:round; stroke-width:2; stroke-opacity:0.1; fill:none" points="193.936,1270.49 2352.76,1270.49 "/>
<polyline clip-path="url(#clip872)" style="stroke:#000000; stroke-linecap:round; stroke-linejoin:round; stroke-width:2; stroke-opacity:0.1; fill:none" points="193.936,1045.15 2352.76,1045.15 "/>
<polyline clip-path="url(#clip872)" style="stroke:#000000; stroke-linecap:round; stroke-linejoin:round; stroke-width:2; stroke-opacity:0.1; fill:none" points="193.936,819.81 2352.76,819.81 "/>
<polyline clip-path="url(#clip872)" style="stroke:#000000; stroke-linecap:round; stroke-linejoin:round; stroke-width:2; stroke-opacity:0.1; fill:none" points="193.936,594.469 2352.76,594.469 "/>
<polyline clip-path="url(#clip872)" style="stroke:#000000; stroke-linecap:round; stroke-linejoin:round; stroke-width:2; stroke-opacity:0.1; fill:none" points="193.936,369.127 2352.76,369.127 "/>
<polyline clip-path="url(#clip872)" style="stroke:#000000; stroke-linecap:round; stroke-linejoin:round; stroke-width:2; stroke-opacity:0.1; fill:none" points="193.936,143.785 2352.76,143.785 "/>
<polyline clip-path="url(#clip870)" style="stroke:#000000; stroke-linecap:round; stroke-linejoin:round; stroke-width:4; stroke-opacity:1; fill:none" points="193.936,1423.18 193.936,47.2441 "/>
<polyline clip-path="url(#clip870)" style="stroke:#000000; stroke-linecap:round; stroke-linejoin:round; stroke-width:4; stroke-opacity:1; fill:none" points="193.936,1270.49 212.834,1270.49 "/>
<polyline clip-path="url(#clip870)" style="stroke:#000000; stroke-linecap:round; stroke-linejoin:round; stroke-width:4; stroke-opacity:1; fill:none" points="193.936,1045.15 212.834,1045.15 "/>
<polyline clip-path="url(#clip870)" style="stroke:#000000; stroke-linecap:round; stroke-linejoin:round; stroke-width:4; stroke-opacity:1; fill:none" points="193.936,819.81 212.834,819.81 "/>
<polyline clip-path="url(#clip870)" style="stroke:#000000; stroke-linecap:round; stroke-linejoin:round; stroke-width:4; stroke-opacity:1; fill:none" points="193.936,594.469 212.834,594.469 "/>
<polyline clip-path="url(#clip870)" style="stroke:#000000; stroke-linecap:round; stroke-linejoin:round; stroke-width:4; stroke-opacity:1; fill:none" points="193.936,369.127 212.834,369.127 "/>
<polyline clip-path="url(#clip870)" style="stroke:#000000; stroke-linecap:round; stroke-linejoin:round; stroke-width:4; stroke-opacity:1; fill:none" points="193.936,143.785 212.834,143.785 "/>
<path clip-path="url(#clip870)" d="M51.9875 1270.94 L81.6633 1270.94 L81.6633 1274.88 L51.9875 1274.88 L51.9875 1270.94 Z" fill="#000000" fill-rule="nonzero" fill-opacity="1" /><path clip-path="url(#clip870)" d="M92.566 1283.84 L100.205 1283.84 L100.205 1257.47 L91.8947 1259.14 L91.8947 1254.88 L100.159 1253.21 L104.834 1253.21 L104.834 1283.84 L112.473 1283.84 L112.473 1287.77 L92.566 1287.77 L92.566 1283.84 Z" fill="#000000" fill-rule="nonzero" fill-opacity="1" /><path clip-path="url(#clip870)" d="M121.918 1281.89 L126.802 1281.89 L126.802 1287.77 L121.918 1287.77 L121.918 1281.89 Z" fill="#000000" fill-rule="nonzero" fill-opacity="1" /><path clip-path="url(#clip870)" d="M137.033 1253.21 L155.39 1253.21 L155.39 1257.15 L141.316 1257.15 L141.316 1265.62 Q142.334 1265.27 143.353 1265.11 Q144.371 1264.93 145.39 1264.93 Q151.177 1264.93 154.556 1268.1 Q157.936 1271.27 157.936 1276.69 Q157.936 1282.26 154.464 1285.37 Q150.992 1288.44 144.672 1288.44 Q142.496 1288.44 140.228 1288.07 Q137.982 1287.7 135.575 1286.96 L135.575 1282.26 Q137.658 1283.4 139.881 1283.95 Q142.103 1284.51 144.58 1284.51 Q148.584 1284.51 150.922 1282.4 Q153.26 1280.3 153.26 1276.69 Q153.26 1273.07 150.922 1270.97 Q148.584 1268.86 144.58 1268.86 Q142.705 1268.86 140.83 1269.28 Q138.978 1269.69 137.033 1270.57 L137.033 1253.21 Z" fill="#000000" fill-rule="nonzero" fill-opacity="1" /><path clip-path="url(#clip870)" d="M50.9921 1045.6 L80.6679 1045.6 L80.6679 1049.54 L50.9921 1049.54 L50.9921 1045.6 Z" fill="#000000" fill-rule="nonzero" fill-opacity="1" /><path clip-path="url(#clip870)" d="M91.5706 1058.5 L99.2095 1058.5 L99.2095 1032.13 L90.8993 1033.8 L90.8993 1029.54 L99.1632 1027.87 L103.839 1027.87 L103.839 1058.5 L111.478 1058.5 L111.478 1062.43 L91.5706 1062.43 L91.5706 1058.5 Z" fill="#000000" fill-rule="nonzero" fill-opacity="1" /><path clip-path="url(#clip870)" d="M120.922 1056.55 L125.807 1056.55 L125.807 1062.43 L120.922 1062.43 L120.922 1056.55 Z" fill="#000000" fill-rule="nonzero" fill-opacity="1" /><path clip-path="url(#clip870)" d="M145.992 1030.95 Q142.381 1030.95 140.552 1034.52 Q138.746 1038.06 138.746 1045.19 Q138.746 1052.29 140.552 1055.86 Q142.381 1059.4 145.992 1059.4 Q149.626 1059.4 151.431 1055.86 Q153.26 1052.29 153.26 1045.19 Q153.26 1038.06 151.431 1034.52 Q149.626 1030.95 145.992 1030.95 M145.992 1027.25 Q151.802 1027.25 154.857 1031.85 Q157.936 1036.44 157.936 1045.19 Q157.936 1053.91 154.857 1058.52 Q151.802 1063.1 145.992 1063.1 Q140.181 1063.1 137.103 1058.52 Q134.047 1053.91 134.047 1045.19 Q134.047 1036.44 137.103 1031.85 Q140.181 1027.25 145.992 1027.25 Z" fill="#000000" fill-rule="nonzero" fill-opacity="1" /><path clip-path="url(#clip870)" d="M51.9875 820.262 L81.6633 820.262 L81.6633 824.197 L51.9875 824.197 L51.9875 820.262 Z" fill="#000000" fill-rule="nonzero" fill-opacity="1" /><path clip-path="url(#clip870)" d="M101.756 805.609 Q98.1447 805.609 96.316 809.174 Q94.5104 812.715 94.5104 819.845 Q94.5104 826.951 96.316 830.516 Q98.1447 834.058 101.756 834.058 Q105.39 834.058 107.196 830.516 Q109.024 826.951 109.024 819.845 Q109.024 812.715 107.196 809.174 Q105.39 805.609 101.756 805.609 M101.756 801.905 Q107.566 801.905 110.621 806.512 Q113.7 811.095 113.7 819.845 Q113.7 828.572 110.621 833.178 Q107.566 837.761 101.756 837.761 Q95.9456 837.761 92.8669 833.178 Q89.8114 828.572 89.8114 819.845 Q89.8114 811.095 92.8669 806.512 Q95.9456 801.905 101.756 801.905 Z" fill="#000000" fill-rule="nonzero" fill-opacity="1" /><path clip-path="url(#clip870)" d="M121.918 831.211 L126.802 831.211 L126.802 837.09 L121.918 837.09 L121.918 831.211 Z" fill="#000000" fill-rule="nonzero" fill-opacity="1" /><path clip-path="url(#clip870)" d="M137.033 802.53 L155.39 802.53 L155.39 806.465 L141.316 806.465 L141.316 814.938 Q142.334 814.59 143.353 814.428 Q144.371 814.243 145.39 814.243 Q151.177 814.243 154.556 817.414 Q157.936 820.586 157.936 826.002 Q157.936 831.581 154.464 834.683 Q150.992 837.761 144.672 837.761 Q142.496 837.761 140.228 837.391 Q137.982 837.021 135.575 836.28 L135.575 831.581 Q137.658 832.715 139.881 833.271 Q142.103 833.826 144.58 833.826 Q148.584 833.826 150.922 831.72 Q153.26 829.613 153.26 826.002 Q153.26 822.391 150.922 820.285 Q148.584 818.178 144.58 818.178 Q142.705 818.178 140.83 818.595 Q138.978 819.012 137.033 819.891 L137.033 802.53 Z" fill="#000000" fill-rule="nonzero" fill-opacity="1" /><path clip-path="url(#clip870)" d="M100.76 580.267 Q97.1493 580.267 95.3206 583.832 Q93.515 587.374 93.515 594.503 Q93.515 601.61 95.3206 605.174 Q97.1493 608.716 100.76 608.716 Q104.395 608.716 106.2 605.174 Q108.029 601.61 108.029 594.503 Q108.029 587.374 106.2 583.832 Q104.395 580.267 100.76 580.267 M100.76 576.564 Q106.571 576.564 109.626 581.17 Q112.705 585.753 112.705 594.503 Q112.705 603.23 109.626 607.836 Q106.571 612.42 100.76 612.42 Q94.9502 612.42 91.8715 607.836 Q88.816 603.23 88.816 594.503 Q88.816 585.753 91.8715 581.17 Q94.9502 576.564 100.76 576.564 Z" fill="#000000" fill-rule="nonzero" fill-opacity="1" /><path clip-path="url(#clip870)" d="M120.922 605.869 L125.807 605.869 L125.807 611.749 L120.922 611.749 L120.922 605.869 Z" fill="#000000" fill-rule="nonzero" fill-opacity="1" /><path clip-path="url(#clip870)" d="M145.992 580.267 Q142.381 580.267 140.552 583.832 Q138.746 587.374 138.746 594.503 Q138.746 601.61 140.552 605.174 Q142.381 608.716 145.992 608.716 Q149.626 608.716 151.431 605.174 Q153.26 601.61 153.26 594.503 Q153.26 587.374 151.431 583.832 Q149.626 580.267 145.992 580.267 M145.992 576.564 Q151.802 576.564 154.857 581.17 Q157.936 585.753 157.936 594.503 Q157.936 603.23 154.857 607.836 Q151.802 612.42 145.992 612.42 Q140.181 612.42 137.103 607.836 Q134.047 603.23 134.047 594.503 Q134.047 585.753 137.103 581.17 Q140.181 576.564 145.992 576.564 Z" fill="#000000" fill-rule="nonzero" fill-opacity="1" /><path clip-path="url(#clip870)" d="M101.756 354.926 Q98.1447 354.926 96.316 358.49 Q94.5104 362.032 94.5104 369.162 Q94.5104 376.268 96.316 379.833 Q98.1447 383.374 101.756 383.374 Q105.39 383.374 107.196 379.833 Q109.024 376.268 109.024 369.162 Q109.024 362.032 107.196 358.49 Q105.39 354.926 101.756 354.926 M101.756 351.222 Q107.566 351.222 110.621 355.828 Q113.7 360.412 113.7 369.162 Q113.7 377.888 110.621 382.495 Q107.566 387.078 101.756 387.078 Q95.9456 387.078 92.8669 382.495 Q89.8114 377.888 89.8114 369.162 Q89.8114 360.412 92.8669 355.828 Q95.9456 351.222 101.756 351.222 Z" fill="#000000" fill-rule="nonzero" fill-opacity="1" /><path clip-path="url(#clip870)" d="M121.918 380.527 L126.802 380.527 L126.802 386.407 L121.918 386.407 L121.918 380.527 Z" fill="#000000" fill-rule="nonzero" fill-opacity="1" /><path clip-path="url(#clip870)" d="M137.033 351.847 L155.39 351.847 L155.39 355.782 L141.316 355.782 L141.316 364.254 Q142.334 363.907 143.353 363.745 Q144.371 363.56 145.39 363.56 Q151.177 363.56 154.556 366.731 Q157.936 369.902 157.936 375.319 Q157.936 380.898 154.464 383.999 Q150.992 387.078 144.672 387.078 Q142.496 387.078 140.228 386.708 Q137.982 386.337 135.575 385.597 L135.575 380.898 Q137.658 382.032 139.881 382.587 Q142.103 383.143 144.58 383.143 Q148.584 383.143 150.922 381.036 Q153.26 378.93 153.26 375.319 Q153.26 371.708 150.922 369.601 Q148.584 367.495 144.58 367.495 Q142.705 367.495 140.83 367.912 Q138.978 368.328 137.033 369.208 L137.033 351.847 Z" fill="#000000" fill-rule="nonzero" fill-opacity="1" /><path clip-path="url(#clip870)" d="M91.5706 157.13 L99.2095 157.13 L99.2095 130.764 L90.8993 132.431 L90.8993 128.172 L99.1632 126.505 L103.839 126.505 L103.839 157.13 L111.478 157.13 L111.478 161.065 L91.5706 161.065 L91.5706 157.13 Z" fill="#000000" fill-rule="nonzero" fill-opacity="1" /><path clip-path="url(#clip870)" d="M120.922 155.186 L125.807 155.186 L125.807 161.065 L120.922 161.065 L120.922 155.186 Z" fill="#000000" fill-rule="nonzero" fill-opacity="1" /><path clip-path="url(#clip870)" d="M145.992 129.584 Q142.381 129.584 140.552 133.149 Q138.746 136.69 138.746 143.82 Q138.746 150.926 140.552 154.491 Q142.381 158.033 145.992 158.033 Q149.626 158.033 151.431 154.491 Q153.26 150.926 153.26 143.82 Q153.26 136.69 151.431 133.149 Q149.626 129.584 145.992 129.584 M145.992 125.88 Q151.802 125.88 154.857 130.487 Q157.936 135.07 157.936 143.82 Q157.936 152.547 154.857 157.153 Q151.802 161.736 145.992 161.736 Q140.181 161.736 137.103 157.153 Q134.047 152.547 134.047 143.82 Q134.047 135.07 137.103 130.487 Q140.181 125.88 145.992 125.88 Z" fill="#000000" fill-rule="nonzero" fill-opacity="1" /><polyline clip-path="url(#clip872)" style="stroke:#009af9; stroke-linecap:round; stroke-linejoin:round; stroke-width:4; stroke-opacity:1; fill:none" points="193.936,594.469 196.097,596.259 198.258,598.027 200.419,599.77 202.58,601.491 204.741,603.189 206.902,604.864 209.063,606.518 211.224,608.149 213.385,609.758 215.546,611.347 217.707,612.914 219.868,614.46 222.029,615.986 224.19,617.492 226.351,618.978 228.512,620.444 230.673,621.89 232.834,623.318 234.995,624.726 237.156,626.116 239.317,627.487 241.478,628.841 243.639,630.176 245.8,631.493 247.961,632.793 250.122,634.076 252.282,635.342 254.443,636.591 256.604,637.824 258.765,639.04 260.926,640.24 263.087,641.424 265.248,642.592 267.409,643.745 269.57,644.883 271.731,646.006 273.892,647.113 276.053,648.206 278.214,649.285 280.375,650.349 282.536,651.399 284.697,652.435 286.858,653.458 289.019,654.467 291.18,655.462 293.341,656.445 295.502,657.414 297.663,658.37 299.824,659.314 301.985,660.245 304.146,661.164 306.307,662.071 308.468,662.966 310.629,663.848 312.79,664.72 314.951,665.579 317.112,666.427 319.273,667.264 321.434,668.09 323.595,668.905 325.756,669.709 327.917,670.503 330.078,671.285 332.239,672.058 334.4,672.82 336.561,673.573 338.722,674.315 340.883,675.047 343.044,675.77 345.205,676.483 347.366,677.186 349.527,677.881 351.688,678.566 353.849,679.242 356.01,679.909 358.171,680.567 360.332,681.217 362.493,681.857 364.653,682.49 366.814,683.114 368.975,683.729 371.136,684.337 373.297,684.936 375.458,685.528 377.619,686.112 379.78,686.688 381.941,687.256 384.102,687.817 386.263,688.37 388.424,688.916 390.585,689.455 392.746,689.987 394.907,690.511 397.068,691.029 399.229,691.54 401.39,692.044 403.551,692.541 405.712,692.778 407.873,692.049 410.034,690.431 412.195,688.049 414.356,685.022 416.517,681.457 418.678,677.458 420.839,673.116 423,668.519 425.161,663.743 427.322,658.86 429.483,653.93 431.644,649.008 433.805,644.14 435.966,639.364 438.127,634.712 440.288,630.205 442.449,625.858 444.61,621.677 446.771,617.663 448.932,613.805 451.093,610.087 453.254,606.483 455.415,602.962 457.576,599.482 459.737,595.995 461.898,592.452 464.059,588.922 466.22,585.438 468.381,582.001 470.542,578.61 472.703,575.263 474.864,571.961 477.024,568.703 479.185,565.487 481.346,562.315 483.507,559.184 485.668,556.095 487.829,553.047 489.99,550.04 492.151,547.072 494.312,544.143 496.473,541.254 498.634,538.402 500.795,535.589 502.956,532.813 505.117,530.073 507.278,527.37 509.439,524.703 511.6,522.071 513.761,519.474 515.922,516.911 518.083,514.383 520.244,511.888 522.405,509.426 524.566,506.996 526.727,504.599 528.888,502.234 531.049,499.9 533.21,497.597 535.371,495.325 537.532,493.083 539.693,490.87 541.854,488.687 544.015,486.533 546.176,484.407 548.337,482.309 550.498,480.24 552.659,478.197 554.82,476.182 556.981,474.194 559.142,472.231 561.303,470.295 563.464,468.385 565.625,466.5 567.786,464.639 569.947,462.804 572.108,460.992 574.269,459.205 576.43,457.442 578.591,455.702 580.752,453.985 582.913,452.29 585.074,450.619 587.235,448.969 589.396,447.341 591.556,445.735 593.717,444.15 595.878,442.586 598.039,441.043 600.2,439.521 602.361,438.018 604.522,436.536 606.683,435.073 608.844,433.629 611.005,432.205 613.166,430.799 615.327,429.412 617.488,428.044 619.649,426.694 621.81,425.361 623.971,423.966 626.132,422.321 628.293,420.441 630.454,418.349 632.615,416.068 634.776,413.618 636.937,411.019 639.098,408.292 641.259,405.455 643.42,402.525 645.581,399.519 647.742,396.452 649.903,393.34 652.064,390.196 654.225,387.033 656.386,383.863 658.547,380.697 660.708,377.546 662.869,374.419 665.03,371.323 667.191,368.267 669.352,365.256 671.513,362.298 673.674,359.395 675.835,356.551 677.996,353.771 680.157,351.054 682.318,348.403 684.479,345.818 686.64,343.296 688.801,340.838 690.962,338.439 693.123,336.097 695.284,333.806 697.445,331.561 699.606,329.355 701.767,327.182 703.927,325.033 706.088,322.899 708.249,320.769 710.41,318.638 712.571,316.529 714.732,314.448 716.893,312.395 719.054,310.369 721.215,308.37 723.376,306.397 725.537,304.451 727.698,302.53 729.859,300.635 732.02,298.765 734.181,296.919 736.342,295.099 738.503,293.302 740.664,291.529 742.825,289.78 744.986,288.054 747.147,286.35 749.308,284.67 751.469,283.011 753.63,281.375 755.791,279.76 757.952,278.167 760.113,276.594 762.274,275.043 764.435,273.512 766.596,272.002 768.757,270.511 770.918,269.04 773.079,267.589 775.24,266.157 777.401,264.744 779.562,263.349 781.723,261.974 783.884,260.616 786.045,259.276 788.206,257.955 790.367,256.65 792.528,255.363 794.689,254.093 796.85,252.84 799.011,251.604 801.172,250.384 803.333,249.18 805.494,247.992 807.655,246.82 809.816,245.664 811.977,244.522 814.138,243.396 816.298,242.285 818.459,241.189 820.62,240.107 822.781,239.04 824.942,237.986 827.103,236.947 829.264,235.921 831.425,234.909 833.586,233.91 835.747,232.925 837.908,231.953 840.069,230.993 842.23,230.128 844.391,229.668 846.552,229.608 848.713,229.913 850.874,230.547 853.035,231.477 855.196,232.672 857.357,234.099 859.518,235.731 861.679,237.539 863.84,239.497 866.001,241.581 868.162,243.767 870.323,246.034 872.484,248.36 874.645,250.728 876.806,253.12 878.967,255.519 881.128,257.912 883.289,260.285 885.45,262.626 887.611,264.926 889.772,267.176 891.933,269.368 894.094,271.497 896.255,273.559 898.416,275.55 900.577,277.47 902.738,279.318 904.899,281.096 907.06,282.807 909.221,284.455 911.382,286.047 913.543,287.589 915.704,289.092 917.865,290.564 920.026,292.018 922.187,293.467 924.348,294.926 926.509,296.41 928.669,297.901 930.83,299.373 932.991,300.825 935.152,302.258 937.313,303.671 939.474,305.067 941.635,306.443 943.796,307.801 945.957,309.142 948.118,310.464 950.279,311.769 952.44,313.057 954.601,314.327 956.762,315.581 958.923,316.818 961.084,318.039 963.245,319.243 965.406,320.432 967.567,321.605 969.728,322.762 971.889,323.904 974.05,325.031 976.211,326.143 978.372,327.24 980.533,328.322 982.694,329.391 984.855,330.445 987.016,331.485 989.177,332.511 991.338,333.524 993.499,334.523 995.66,335.509 997.821,336.482 999.982,337.442 1002.14,338.39 1004.3,339.324 1006.46,340.247 1008.63,341.157 1010.79,342.055 1012.95,342.941 1015.11,343.816 1017.27,344.678 1019.43,345.53 1021.59,346.37 1023.75,347.199 1025.91,348.016 1028.07,348.823 1030.24,349.62 1032.4,350.406 1034.56,351.181 1036.72,351.946 1038.88,352.701 1041.04,353.446 1043.2,354.181 1045.36,354.906 1047.52,355.622 1049.68,356.328 1051.85,357.025 1054.01,357.713 1056.17,358.269 1058.33,358.228 1060.49,357.6 1062.65,356.448 1064.81,354.833 1066.97,352.811 1069.13,350.437 1071.29,347.762 1073.46,344.833 1075.62,341.696 1077.78,338.394 1079.94,334.964 1082.1,331.444 1084.26,327.865 1086.42,324.26 1088.58,320.654 1090.74,317.071 1092.9,313.534 1095.07,310.059 1097.23,306.663 1099.39,303.357 1101.55,300.151 1103.71,297.051 1105.87,294.059 1108.03,291.177 1110.19,288.401 1112.35,285.726 1114.51,283.143 1116.67,280.64 1118.84,278.202 1121,275.812 1123.16,273.448 1125.32,271.088 1127.48,268.705 1129.64,266.29 1131.8,263.902 1133.96,261.546 1136.12,259.221 1138.28,256.927 1140.45,254.663 1142.61,252.43 1144.77,250.226 1146.93,248.051 1149.09,245.905 1151.25,243.787 1153.41,241.698 1155.57,239.636 1157.73,237.602 1159.89,235.594 1162.06,233.613 1164.22,231.659 1166.38,229.73 1168.54,227.827 1170.7,225.949 1172.86,224.096 1175.02,222.268 1177.18,220.463 1179.34,218.683 1181.5,216.926 1183.67,215.192 1185.83,213.482 1187.99,211.794 1190.15,210.128 1192.31,208.485 1194.47,206.863 1196.63,205.263 1198.79,203.684 1200.95,202.126 1203.11,200.589 1205.28,199.072 1207.44,197.575 1209.6,196.098 1211.76,194.641 1213.92,193.203 1216.08,191.784 1218.24,190.384 1220.4,189.002 1222.56,187.639 1224.72,186.294 1226.88,184.967 1229.05,183.658 1231.21,182.366 1233.37,181.091 1235.53,179.833 1237.69,178.591 1239.85,177.366 1242.01,176.158 1244.17,174.965 1246.33,173.788 1248.49,172.627 1250.66,171.481 1252.82,170.351 1254.98,169.235 1257.14,168.134 1259.3,167.048 1261.46,165.976 1263.62,164.918 1265.78,163.874 1267.94,162.881 1270.1,162.318 1272.27,162.245 1274.43,162.618 1276.59,163.395 1278.75,164.534 1280.91,165.996 1283.07,167.745 1285.23,169.744 1287.39,171.959 1289.55,174.359 1291.71,176.914 1293.88,179.594 1296.04,182.373 1298.2,185.226 1300.36,188.131 1302.52,191.065 1304.68,194.009 1306.84,196.946 1309,199.86 1311.16,202.736 1313.32,205.561 1315.49,208.326 1317.65,211.022 1319.81,213.641 1321.97,216.178 1324.13,218.631 1326.29,220.996 1328.45,223.274 1330.61,225.468 1332.77,227.58 1334.93,229.616 1337.09,231.584 1339.26,233.492 1341.42,235.352 1343.58,237.176 1345.74,238.977 1347.9,240.774 1350.06,242.583 1352.22,244.423 1354.38,246.265 1356.54,248.083 1358.7,249.877 1360.87,251.647 1363.03,253.394 1365.19,255.117 1367.35,256.818 1369.51,258.496 1371.67,260.152 1373.83,261.786 1375.99,263.398 1378.15,264.988 1380.31,266.558 1382.48,268.107 1384.64,269.635 1386.8,271.144 1388.96,272.632 1391.12,274.1 1393.28,275.549 1395.44,276.979 1397.6,278.389 1399.76,279.781 1401.92,281.155 1404.09,282.51 1406.25,283.848 1408.41,285.167 1410.57,286.47 1412.73,287.754 1414.89,289.022 1417.05,290.273 1419.21,291.508 1421.37,292.726 1423.53,293.928 1425.7,295.114 1427.86,296.284 1430.02,297.439 1432.18,298.579 1434.34,299.703 1436.5,300.812 1438.66,301.907 1440.82,302.987 1442.98,304.053 1445.14,305.105 1447.3,306.143 1449.47,307.167 1451.63,308.177 1453.79,309.175 1455.95,310.158 1458.11,311.129 1460.27,312.087 1462.43,313.033 1464.59,313.965 1466.75,314.886 1468.91,315.794 1471.08,316.69 1473.24,317.574 1475.4,318.447 1477.56,319.308 1479.72,320.153 1481.88,319.839 1484.04,319.656 1486.2,321.812 1488.36,327.209 1490.52,335.444 1492.69,344.809 1494.85,353.555 1497.01,362.169 1499.17,370.669 1501.33,379.057 1503.49,387.333 1505.65,395.499 1507.81,403.557 1509.97,411.508 1512.13,419.354 1514.3,427.096 1516.46,434.735 1518.62,442.273 1520.78,449.711 1522.94,457.05 1525.1,464.292 1527.26,471.438 1529.42,478.489 1531.58,485.447 1533.74,492.312 1535.91,499.087 1538.07,505.771 1540.23,512.367 1542.39,518.876 1544.55,525.298 1546.71,531.635 1548.87,537.888 1551.03,544.058 1553.19,550.147 1555.35,556.155 1557.51,562.083 1559.68,567.932 1561.84,573.704 1564,579.399 1566.16,585.019 1568.32,590.565 1570.48,596.036 1572.64,601.436 1574.8,606.763 1576.96,612.02 1579.12,617.208 1581.29,622.326 1583.45,627.377 1585.61,632.361 1587.77,637.278 1589.93,642.131 1592.09,646.919 1594.25,651.644 1596.41,656.306 1598.57,660.906 1600.73,665.445 1602.9,669.924 1605.06,674.344 1607.22,678.705 1609.38,683.009 1611.54,687.255 1613.7,691.445 1615.86,695.579 1618.02,699.659 1620.18,703.684 1622.34,707.656 1624.51,711.576 1626.67,715.443 1628.83,719.259 1630.99,723.025 1633.15,726.741 1635.31,730.407 1637.47,734.025 1639.63,737.594 1641.79,741.117 1643.95,744.593 1646.12,748.022 1648.28,751.407 1650.44,754.746 1652.6,758.041 1654.76,761.293 1656.92,764.501 1659.08,767.667 1661.24,770.79 1663.4,773.873 1665.56,776.914 1667.72,779.916 1669.89,782.877 1672.05,785.799 1674.21,788.683 1676.37,791.528 1678.53,794.335 1680.69,797.105 1682.85,799.839 1685.01,802.536 1687.17,805.198 1689.33,807.824 1691.5,810.415 1693.66,812.972 1695.82,815.496 1697.98,817.985 1700.14,820.403 1702.3,821.292 1704.46,820.303 1706.62,817.925 1708.78,814.587 1710.94,810.651 1713.11,806.418 1715.27,802.123 1717.43,797.939 1719.59,793.973 1721.75,790.271 1723.91,786.812 1726.07,783.514 1728.23,780.23 1730.39,776.866 1732.55,773.541 1734.72,770.26 1736.88,767.023 1739.04,763.829 1741.2,760.677 1743.36,757.567 1745.52,754.498 1747.68,751.469 1749.84,748.481 1752,745.533 1754.16,742.623 1756.33,739.752 1758.49,736.919 1760.65,734.124 1762.81,731.366 1764.97,728.644 1767.13,725.959 1769.29,723.309 1771.45,720.694 1773.61,718.114 1775.77,715.568 1777.93,713.056 1780.1,710.578 1782.26,708.132 1784.42,705.718 1786.58,703.337 1788.74,700.987 1790.9,698.668 1793.06,696.38 1795.22,694.123 1797.38,691.895 1799.54,689.697 1801.71,687.528 1803.87,685.388 1806.03,683.276 1808.19,681.192 1810.35,679.136 1812.51,677.107 1814.67,675.104 1816.83,673.129 1818.99,671.179 1821.15,669.256 1823.32,667.358 1825.48,665.485 1827.64,663.637 1829.8,661.813 1831.96,660.014 1834.12,658.238 1836.28,656.486 1838.44,654.757 1840.6,653.051 1842.76,651.368 1844.93,649.707 1847.09,648.068 1849.25,646.451 1851.41,644.856 1853.57,643.281 1855.73,641.727 1857.89,640.194 1860.05,638.681 1862.21,637.189 1864.37,635.716 1866.54,634.262 1868.7,632.828 1870.86,631.413 1873.02,630.017 1875.18,628.639 1877.34,627.279 1879.5,625.938 1881.66,624.614 1883.82,623.308 1885.98,622.019 1888.15,620.747 1890.31,619.492 1892.47,618.254 1894.63,617.032 1896.79,615.826 1898.95,614.637 1901.11,613.463 1903.27,612.304 1905.43,611.161 1907.59,610.033 1909.75,608.921 1911.92,607.822 1914.08,606.739 1916.24,605.67 1918.4,604.614 1920.56,603.655 1922.72,604.185 1924.88,606.532 1927.04,610.473 1929.2,615.801 1931.36,622.319 1933.53,629.841 1935.69,638.195 1937.85,647.22 1940.01,656.767 1942.17,666.699 1944.33,676.891 1946.49,687.231 1948.65,697.618 1950.81,707.962 1952.97,718.186 1955.14,728.227 1957.3,738.03 1959.46,747.556 1961.62,756.774 1963.78,765.668 1965.94,774.234 1968.1,782.478 1970.26,790.419 1972.42,798.088 1974.58,805.529 1976.75,812.796 1978.91,819.956 1981.07,827.089 1983.23,834.285 1985.39,841.565 1987.55,848.76 1989.71,855.859 1991.87,862.865 1994.03,869.777 1996.19,876.598 1998.36,883.328 2000.52,889.969 2002.68,896.522 2004.84,902.988 2007,909.369 2009.16,915.664 2011.32,921.877 2013.48,928.007 2015.64,934.056 2017.8,940.024 2019.96,945.913 2022.13,951.725 2024.29,957.459 2026.45,963.118 2028.61,968.702 2030.77,974.212 2032.93,979.649 2035.09,985.014 2037.25,990.308 2039.41,995.532 2041.57,1000.69 2043.74,1005.77 2045.9,1010.79 2048.06,1015.74 2050.22,1020.63 2052.38,1025.45 2054.54,1030.21 2056.7,1034.9 2058.86,1039.53 2061.02,1044.1 2063.18,1048.61 2065.35,1053.06 2067.51,1057.45 2069.67,1061.79 2071.83,1066.06 2073.99,1070.28 2076.15,1074.44 2078.31,1078.55 2080.47,1082.6 2082.63,1086.6 2084.79,1090.54 2086.96,1094.44 2089.12,1098.28 2091.28,1102.07 2093.44,1105.81 2095.6,1109.5 2097.76,1113.14 2099.92,1116.73 2102.08,1120.28 2104.24,1123.78 2106.4,1127.23 2108.57,1130.64 2110.73,1134 2112.89,1137.32 2115.05,1140.59 2117.21,1143.82 2119.37,1146.92 2121.53,1149.6 2123.69,1151.85 2125.85,1153.73 2128.01,1155.27 2130.17,1156.5 2132.34,1157.46 2134.5,1158.19 2136.66,1158.71 2138.82,1159.06 2140.98,1159.25 2143.14,1159.32 2145.3,1159.29 2147.46,1159.17 2149.62,1159 2151.78,1158.79 2153.95,1158.56 2156.11,1158.31 2158.27,1158.07 2160.43,1157.84 2162.59,1157.63 2164.75,1157.46 2166.91,1157.32 2169.07,1157.23 2171.23,1157.17 2173.39,1157.16 2175.56,1157.19 2177.72,1157.26 2179.88,1157.37 2182.04,1157.5 2184.2,1157.64 2186.36,1157.8 2188.52,1157.95 2190.68,1158.09 2192.84,1158.19 2195,1158.24 2197.17,1158.28 2199.33,1158.32 2201.49,1158.36 2203.65,1158.41 2205.81,1158.45 2207.97,1158.48 2210.13,1158.52 2212.29,1158.56 2214.45,1158.6 2216.61,1158.64 2218.78,1158.67 2220.94,1158.71 2223.1,1158.75 2225.26,1158.78 2227.42,1158.82 2229.58,1158.85 2231.74,1158.89 2233.9,1158.92 2236.06,1158.95 2238.22,1158.98 2240.38,1159.02 2242.55,1159.05 2244.71,1159.08 2246.87,1159.11 2249.03,1159.14 2251.19,1159.17 2253.35,1159.2 2255.51,1159.23 2257.67,1159.26 2259.83,1159.29 2261.99,1159.32 2264.16,1159.34 2266.32,1159.37 2268.48,1159.4 2270.64,1159.43 2272.8,1159.45 2274.96,1159.48 2277.12,1159.5 2279.28,1159.53 2281.44,1159.55 2283.6,1159.58 2285.77,1159.6 2287.93,1159.63 2290.09,1159.65 2292.25,1159.68 2294.41,1159.7 2296.57,1159.72 2298.73,1159.74 2300.89,1159.77 2303.05,1159.79 2305.21,1159.81 2307.38,1159.83 2309.54,1159.85 2311.7,1159.87 2313.86,1159.89 2316.02,1159.91 2318.18,1159.93 2320.34,1159.95 2322.5,1159.97 2324.66,1159.99 2326.82,1160.01 2328.99,1160.03 2331.15,1160.05 2333.31,1160.07 2335.47,1160.08 2337.63,1160.1 2339.79,1160.12 2341.95,1160.14 2344.11,1160.15 2346.27,1160.17 2348.43,1160.19 2350.59,1160.2 2352.76,1160.22 "/>
<polyline clip-path="url(#clip872)" style="stroke:#e26f46; stroke-linecap:round; stroke-linejoin:round; stroke-width:4; stroke-opacity:1; fill:none" points="193.936,729.554 196.097,729.554 198.258,729.554 200.419,729.554 202.58,729.554 204.741,729.554 206.902,729.554 209.063,729.554 211.224,729.554 213.385,729.554 215.546,729.554 217.707,729.554 219.868,729.554 222.029,729.554 224.19,729.554 226.351,729.554 228.512,729.554 230.673,729.554 232.834,729.554 234.995,729.554 237.156,729.554 239.317,729.554 241.478,729.554 243.639,729.554 245.8,729.554 247.961,729.554 250.122,729.554 252.282,729.554 254.443,729.554 256.604,729.554 258.765,729.554 260.926,729.554 263.087,729.554 265.248,729.554 267.409,729.554 269.57,729.554 271.731,729.554 273.892,729.554 276.053,729.554 278.214,729.554 280.375,729.554 282.536,729.554 284.697,729.554 286.858,729.554 289.019,729.554 291.18,729.554 293.341,729.554 295.502,729.554 297.663,729.554 299.824,729.554 301.985,729.554 304.146,729.554 306.307,729.554 308.468,729.554 310.629,729.554 312.79,729.554 314.951,729.554 317.112,729.554 319.273,729.554 321.434,729.554 323.595,729.554 325.756,729.554 327.917,729.554 330.078,729.554 332.239,729.554 334.4,729.554 336.561,729.554 338.722,729.554 340.883,729.554 343.044,729.554 345.205,729.554 347.366,729.554 349.527,729.554 351.688,729.554 353.849,729.554 356.01,729.554 358.171,729.554 360.332,729.554 362.493,729.554 364.653,729.554 366.814,729.554 368.975,729.554 371.136,729.554 373.297,729.554 375.458,729.554 377.619,729.554 379.78,729.554 381.941,729.554 384.102,729.554 386.263,729.554 388.424,729.554 390.585,729.554 392.746,729.554 394.907,729.554 397.068,729.554 399.229,729.554 401.39,729.554 403.551,729.554 405.712,729.554 407.873,729.554 410.034,326.193 412.195,326.193 414.356,326.193 416.517,326.193 418.678,326.193 420.839,326.193 423,326.193 425.161,326.193 427.322,326.193 429.483,326.193 431.644,326.193 433.805,326.193 435.966,326.193 438.127,326.193 440.288,326.193 442.449,326.193 444.61,326.193 446.771,326.193 448.932,326.193 451.093,326.193 453.254,326.193 455.415,326.193 457.576,326.193 459.737,326.193 461.898,326.193 464.059,326.193 466.22,326.193 468.381,326.193 470.542,326.193 472.703,326.193 474.864,326.193 477.024,326.193 479.185,326.193 481.346,326.193 483.507,326.193 485.668,326.193 487.829,326.193 489.99,326.193 492.151,326.193 494.312,326.193 496.473,326.193 498.634,326.193 500.795,326.193 502.956,326.193 505.117,326.193 507.278,326.193 509.439,326.193 511.6,326.193 513.761,326.193 515.922,326.193 518.083,326.193 520.244,326.193 522.405,326.193 524.566,326.193 526.727,326.193 528.888,326.193 531.049,326.193 533.21,326.193 535.371,326.193 537.532,326.193 539.693,326.193 541.854,326.193 544.015,326.193 546.176,326.193 548.337,326.193 550.498,326.193 552.659,326.193 554.82,326.193 556.981,326.193 559.142,326.193 561.303,326.193 563.464,326.193 565.625,326.193 567.786,326.193 569.947,326.193 572.108,326.193 574.269,326.193 576.43,326.193 578.591,326.193 580.752,326.193 582.913,326.193 585.074,326.193 587.235,326.193 589.396,326.193 591.556,326.193 593.717,326.193 595.878,326.193 598.039,326.193 600.2,326.193 602.361,326.193 604.522,326.193 606.683,326.193 608.844,326.193 611.005,326.193 613.166,326.193 615.327,326.193 617.488,326.193 619.649,326.193 621.81,326.193 623.971,326.193 626.132,159.581 628.293,159.581 630.454,159.581 632.615,159.581 634.776,159.581 636.937,159.581 639.098,159.581 641.259,159.581 643.42,159.581 645.581,159.581 647.742,159.581 649.903,159.581 652.064,159.581 654.225,159.581 656.386,159.581 658.547,159.581 660.708,159.581 662.869,159.581 665.03,159.581 667.191,159.581 669.352,159.581 671.513,159.581 673.674,159.581 675.835,159.581 677.996,159.581 680.157,159.581 682.318,159.581 684.479,159.581 686.64,159.581 688.801,159.581 690.962,159.581 693.123,159.581 695.284,159.581 697.445,159.581 699.606,159.581 701.767,159.581 703.927,159.581 706.088,159.581 708.249,159.581 710.41,159.581 712.571,159.581 714.732,159.581 716.893,159.581 719.054,159.581 721.215,159.581 723.376,159.581 725.537,159.581 727.698,159.581 729.859,159.581 732.02,159.581 734.181,159.581 736.342,159.581 738.503,159.581 740.664,159.581 742.825,159.581 744.986,159.581 747.147,159.581 749.308,159.581 751.469,159.581 753.63,159.581 755.791,159.581 757.952,159.581 760.113,159.581 762.274,159.581 764.435,159.581 766.596,159.581 768.757,159.581 770.918,159.581 773.079,159.581 775.24,159.581 777.401,159.581 779.562,159.581 781.723,159.581 783.884,159.581 786.045,159.581 788.206,159.581 790.367,159.581 792.528,159.581 794.689,159.581 796.85,159.581 799.011,159.581 801.172,159.581 803.333,159.581 805.494,159.581 807.655,159.581 809.816,159.581 811.977,159.581 814.138,159.581 816.298,159.581 818.459,159.581 820.62,159.581 822.781,159.581 824.942,159.581 827.103,159.581 829.264,159.581 831.425,159.581 833.586,159.581 835.747,159.581 837.908,159.581 840.069,159.581 842.23,408.893 844.391,408.893 846.552,408.893 848.713,408.893 850.874,408.893 853.035,408.893 855.196,408.893 857.357,408.893 859.518,408.893 861.679,408.893 863.84,408.893 866.001,408.893 868.162,408.893 870.323,408.893 872.484,408.893 874.645,408.893 876.806,408.893 878.967,408.893 881.128,408.893 883.289,408.893 885.45,408.893 887.611,408.893 889.772,408.893 891.933,408.893 894.094,408.893 896.255,408.893 898.416,408.893 900.577,408.893 902.738,408.893 904.899,408.893 907.06,408.893 909.221,408.893 911.382,408.893 913.543,408.893 915.704,408.893 917.865,408.893 920.026,408.893 922.187,408.893 924.348,408.893 926.509,408.893 928.669,408.893 930.83,408.893 932.991,408.893 935.152,408.893 937.313,408.893 939.474,408.893 941.635,408.893 943.796,408.893 945.957,408.893 948.118,408.893 950.279,408.893 952.44,408.893 954.601,408.893 956.762,408.893 958.923,408.893 961.084,408.893 963.245,408.893 965.406,408.893 967.567,408.893 969.728,408.893 971.889,408.893 974.05,408.893 976.211,408.893 978.372,408.893 980.533,408.893 982.694,408.893 984.855,408.893 987.016,408.893 989.177,408.893 991.338,408.893 993.499,408.893 995.66,408.893 997.821,408.893 999.982,408.893 1002.14,408.893 1004.3,408.893 1006.46,408.893 1008.63,408.893 1010.79,408.893 1012.95,408.893 1015.11,408.893 1017.27,408.893 1019.43,408.893 1021.59,408.893 1023.75,408.893 1025.91,408.893 1028.07,408.893 1030.24,408.893 1032.4,408.893 1034.56,408.893 1036.72,408.893 1038.88,408.893 1041.04,408.893 1043.2,408.893 1045.36,408.893 1047.52,408.893 1049.68,408.893 1051.85,408.893 1054.01,408.893 1056.17,408.893 1058.33,86.1857 1060.49,86.1857 1062.65,86.1857 1064.81,86.1857 1066.97,86.1857 1069.13,86.1857 1071.29,86.1857 1073.46,86.1857 1075.62,86.1857 1077.78,86.1857 1079.94,86.1857 1082.1,86.1857 1084.26,86.1857 1086.42,86.1857 1088.58,86.1857 1090.74,86.1857 1092.9,86.1857 1095.07,86.1857 1097.23,86.1857 1099.39,86.1857 1101.55,86.1857 1103.71,86.1857 1105.87,86.1857 1108.03,86.1857 1110.19,86.1857 1112.35,86.1857 1114.51,86.1857 1116.67,86.1857 1118.84,86.1857 1121,86.1857 1123.16,86.1857 1125.32,86.1857 1127.48,86.1857 1129.64,86.1857 1131.8,86.1857 1133.96,86.1857 1136.12,86.1857 1138.28,86.1857 1140.45,86.1857 1142.61,86.1857 1144.77,86.1857 1146.93,86.1857 1149.09,86.1857 1151.25,86.1857 1153.41,86.1857 1155.57,86.1857 1157.73,86.1857 1159.89,86.1857 1162.06,86.1857 1164.22,86.1857 1166.38,86.1857 1168.54,86.1857 1170.7,86.1857 1172.86,86.1857 1175.02,86.1857 1177.18,86.1857 1179.34,86.1857 1181.5,86.1857 1183.67,86.1857 1185.83,86.1857 1187.99,86.1857 1190.15,86.1857 1192.31,86.1857 1194.47,86.1857 1196.63,86.1857 1198.79,86.1857 1200.95,86.1857 1203.11,86.1857 1205.28,86.1857 1207.44,86.1857 1209.6,86.1857 1211.76,86.1857 1213.92,86.1857 1216.08,86.1857 1218.24,86.1857 1220.4,86.1857 1222.56,86.1857 1224.72,86.1857 1226.88,86.1857 1229.05,86.1857 1231.21,86.1857 1233.37,86.1857 1235.53,86.1857 1237.69,86.1857 1239.85,86.1857 1242.01,86.1857 1244.17,86.1857 1246.33,86.1857 1248.49,86.1857 1250.66,86.1857 1252.82,86.1857 1254.98,86.1857 1257.14,86.1857 1259.3,86.1857 1261.46,86.1857 1263.62,86.1857 1265.78,86.1857 1267.94,86.1857 1270.1,86.1857 1272.27,86.1857 1274.43,383.385 1276.59,383.385 1278.75,383.385 1280.91,383.385 1283.07,383.385 1285.23,383.385 1287.39,383.385 1289.55,383.385 1291.71,383.385 1293.88,383.385 1296.04,383.385 1298.2,383.385 1300.36,383.385 1302.52,383.385 1304.68,383.385 1306.84,383.385 1309,383.385 1311.16,383.385 1313.32,383.385 1315.49,383.385 1317.65,383.385 1319.81,383.385 1321.97,383.385 1324.13,383.385 1326.29,383.385 1328.45,383.385 1330.61,383.385 1332.77,383.385 1334.93,383.385 1337.09,383.385 1339.26,383.385 1341.42,383.385 1343.58,383.385 1345.74,383.385 1347.9,383.385 1350.06,383.385 1352.22,383.385 1354.38,383.385 1356.54,383.385 1358.7,383.385 1360.87,383.385 1363.03,383.385 1365.19,383.385 1367.35,383.385 1369.51,383.385 1371.67,383.385 1373.83,383.385 1375.99,383.385 1378.15,383.385 1380.31,383.385 1382.48,383.385 1384.64,383.385 1386.8,383.385 1388.96,383.385 1391.12,383.385 1393.28,383.385 1395.44,383.385 1397.6,383.385 1399.76,383.385 1401.92,383.385 1404.09,383.385 1406.25,383.385 1408.41,383.385 1410.57,383.385 1412.73,383.385 1414.89,383.385 1417.05,383.385 1419.21,383.385 1421.37,383.385 1423.53,383.385 1425.7,383.385 1427.86,383.385 1430.02,383.385 1432.18,383.385 1434.34,383.385 1436.5,383.385 1438.66,383.385 1440.82,383.385 1442.98,383.385 1445.14,383.385 1447.3,383.385 1449.47,383.385 1451.63,383.385 1453.79,383.385 1455.95,383.385 1458.11,383.385 1460.27,383.385 1462.43,383.385 1464.59,383.385 1466.75,383.385 1468.91,383.385 1471.08,383.385 1473.24,383.385 1475.4,383.385 1477.56,383.385 1479.72,383.385 1481.88,383.385 1484.04,383.385 1486.2,383.385 1488.36,383.385 1490.52,1003.28 1492.69,1003.28 1494.85,1003.28 1497.01,1003.28 1499.17,1003.28 1501.33,1003.28 1503.49,1003.28 1505.65,1003.28 1507.81,1003.28 1509.97,1003.28 1512.13,1003.28 1514.3,1003.28 1516.46,1003.28 1518.62,1003.28 1520.78,1003.28 1522.94,1003.28 1525.1,1003.28 1527.26,1003.28 1529.42,1003.28 1531.58,1003.28 1533.74,1003.28 1535.91,1003.28 1538.07,1003.28 1540.23,1003.28 1542.39,1003.28 1544.55,1003.28 1546.71,1003.28 1548.87,1003.28 1551.03,1003.28 1553.19,1003.28 1555.35,1003.28 1557.51,1003.28 1559.68,1003.28 1561.84,1003.28 1564,1003.28 1566.16,1003.28 1568.32,1003.28 1570.48,1003.28 1572.64,1003.28 1574.8,1003.28 1576.96,1003.28 1579.12,1003.28 1581.29,1003.28 1583.45,1003.28 1585.61,1003.28 1587.77,1003.28 1589.93,1003.28 1592.09,1003.28 1594.25,1003.28 1596.41,1003.28 1598.57,1003.28 1600.73,1003.28 1602.9,1003.28 1605.06,1003.28 1607.22,1003.28 1609.38,1003.28 1611.54,1003.28 1613.7,1003.28 1615.86,1003.28 1618.02,1003.28 1620.18,1003.28 1622.34,1003.28 1624.51,1003.28 1626.67,1003.28 1628.83,1003.28 1630.99,1003.28 1633.15,1003.28 1635.31,1003.28 1637.47,1003.28 1639.63,1003.28 1641.79,1003.28 1643.95,1003.28 1646.12,1003.28 1648.28,1003.28 1650.44,1003.28 1652.6,1003.28 1654.76,1003.28 1656.92,1003.28 1659.08,1003.28 1661.24,1003.28 1663.4,1003.28 1665.56,1003.28 1667.72,1003.28 1669.89,1003.28 1672.05,1003.28 1674.21,1003.28 1676.37,1003.28 1678.53,1003.28 1680.69,1003.28 1682.85,1003.28 1685.01,1003.28 1687.17,1003.28 1689.33,1003.28 1691.5,1003.28 1693.66,1003.28 1695.82,1003.28 1697.98,1003.28 1700.14,1003.28 1702.3,1003.28 1704.46,1003.28 1706.62,526.091 1708.78,526.091 1710.94,526.091 1713.11,526.091 1715.27,526.091 1717.43,526.091 1719.59,526.091 1721.75,526.091 1723.91,526.091 1726.07,526.091 1728.23,526.091 1730.39,526.091 1732.55,526.091 1734.72,526.091 1736.88,526.091 1739.04,526.091 1741.2,526.091 1743.36,526.091 1745.52,526.091 1747.68,526.091 1749.84,526.091 1752,526.091 1754.16,526.091 1756.33,526.091 1758.49,526.091 1760.65,526.091 1762.81,526.091 1764.97,526.091 1767.13,526.091 1769.29,526.091 1771.45,526.091 1773.61,526.091 1775.77,526.091 1777.93,526.091 1780.1,526.091 1782.26,526.091 1784.42,526.091 1786.58,526.091 1788.74,526.091 1790.9,526.091 1793.06,526.091 1795.22,526.091 1797.38,526.091 1799.54,526.091 1801.71,526.091 1803.87,526.091 1806.03,526.091 1808.19,526.091 1810.35,526.091 1812.51,526.091 1814.67,526.091 1816.83,526.091 1818.99,526.091 1821.15,526.091 1823.32,526.091 1825.48,526.091 1827.64,526.091 1829.8,526.091 1831.96,526.091 1834.12,526.091 1836.28,526.091 1838.44,526.091 1840.6,526.091 1842.76,526.091 1844.93,526.091 1847.09,526.091 1849.25,526.091 1851.41,526.091 1853.57,526.091 1855.73,526.091 1857.89,526.091 1860.05,526.091 1862.21,526.091 1864.37,526.091 1866.54,526.091 1868.7,526.091 1870.86,526.091 1873.02,526.091 1875.18,526.091 1877.34,526.091 1879.5,526.091 1881.66,526.091 1883.82,526.091 1885.98,526.091 1888.15,526.091 1890.31,526.091 1892.47,526.091 1894.63,526.091 1896.79,526.091 1898.95,526.091 1901.11,526.091 1903.27,526.091 1905.43,526.091 1907.59,526.091 1909.75,526.091 1911.92,526.091 1914.08,526.091 1916.24,526.091 1918.4,526.091 1920.56,526.091 1922.72,1384.24 1924.88,1384.24 1927.04,1384.24 1929.2,1384.24 1931.36,1384.24 1933.53,1384.24 1935.69,1384.24 1937.85,1384.24 1940.01,1384.24 1942.17,1384.24 1944.33,1384.24 1946.49,1384.24 1948.65,1384.24 1950.81,1384.24 1952.97,1384.24 1955.14,1384.24 1957.3,1384.24 1959.46,1384.24 1961.62,1384.24 1963.78,1384.24 1965.94,1384.24 1968.1,1384.24 1970.26,1384.24 1972.42,1384.24 1974.58,1384.24 1976.75,1384.24 1978.91,1384.24 1981.07,1384.24 1983.23,1384.24 1985.39,1384.24 1987.55,1384.24 1989.71,1384.24 1991.87,1384.24 1994.03,1384.24 1996.19,1384.24 1998.36,1384.24 2000.52,1384.24 2002.68,1384.24 2004.84,1384.24 2007,1384.24 2009.16,1384.24 2011.32,1384.24 2013.48,1384.24 2015.64,1384.24 2017.8,1384.24 2019.96,1384.24 2022.13,1384.24 2024.29,1384.24 2026.45,1384.24 2028.61,1384.24 2030.77,1384.24 2032.93,1384.24 2035.09,1384.24 2037.25,1384.24 2039.41,1384.24 2041.57,1384.24 2043.74,1384.24 2045.9,1384.24 2048.06,1384.24 2050.22,1384.24 2052.38,1384.24 2054.54,1384.24 2056.7,1384.24 2058.86,1384.24 2061.02,1384.24 2063.18,1384.24 2065.35,1384.24 2067.51,1384.24 2069.67,1384.24 2071.83,1384.24 2073.99,1384.24 2076.15,1384.24 2078.31,1384.24 2080.47,1384.24 2082.63,1384.24 2084.79,1384.24 2086.96,1384.24 2089.12,1384.24 2091.28,1384.24 2093.44,1384.24 2095.6,1384.24 2097.76,1384.24 2099.92,1384.24 2102.08,1384.24 2104.24,1384.24 2106.4,1384.24 2108.57,1384.24 2110.73,1384.24 2112.89,1384.24 2115.05,1384.24 2117.21,1384.24 2119.37,1384.24 2121.53,1384.24 2123.69,1384.24 2125.85,1384.24 2128.01,1384.24 2130.17,1384.24 2132.34,1384.24 2134.5,1384.24 2136.66,1384.24 2138.82,1161.42 2140.98,1161.42 2143.14,1161.42 2145.3,1161.42 2147.46,1161.42 2149.62,1161.42 2151.78,1161.42 2153.95,1161.42 2156.11,1161.42 2158.27,1161.42 2160.43,1161.42 2162.59,1161.42 2164.75,1161.42 2166.91,1161.42 2169.07,1161.42 2171.23,1161.42 2173.39,1161.42 2175.56,1161.42 2177.72,1161.42 2179.88,1161.42 2182.04,1161.42 2184.2,1161.42 2186.36,1161.42 2188.52,1161.42 2190.68,1161.42 2192.84,1161.42 2195,1161.42 2197.17,1161.42 2199.33,1161.42 2201.49,1161.42 2203.65,1161.42 2205.81,1161.42 2207.97,1161.42 2210.13,1161.42 2212.29,1161.42 2214.45,1161.42 2216.61,1161.42 2218.78,1161.42 2220.94,1161.42 2223.1,1161.42 2225.26,1161.42 2227.42,1161.42 2229.58,1161.42 2231.74,1161.42 2233.9,1161.42 2236.06,1161.42 2238.22,1161.42 2240.38,1161.42 2242.55,1161.42 2244.71,1161.42 2246.87,1161.42 2249.03,1161.42 2251.19,1161.42 2253.35,1161.42 2255.51,1161.42 2257.67,1161.42 2259.83,1161.42 2261.99,1161.42 2264.16,1161.42 2266.32,1161.42 2268.48,1161.42 2270.64,1161.42 2272.8,1161.42 2274.96,1161.42 2277.12,1161.42 2279.28,1161.42 2281.44,1161.42 2283.6,1161.42 2285.77,1161.42 2287.93,1161.42 2290.09,1161.42 2292.25,1161.42 2294.41,1161.42 2296.57,1161.42 2298.73,1161.42 2300.89,1161.42 2303.05,1161.42 2305.21,1161.42 2307.38,1161.42 2309.54,1161.42 2311.7,1161.42 2313.86,1161.42 2316.02,1161.42 2318.18,1161.42 2320.34,1161.42 2322.5,1161.42 2324.66,1161.42 2326.82,1161.42 2328.99,1161.42 2331.15,1161.42 2333.31,1161.42 2335.47,1161.42 2337.63,1161.42 2339.79,1161.42 2341.95,1161.42 2344.11,1161.42 2346.27,1161.42 2348.43,1161.42 2350.59,1161.42 2352.76,1161.42 "/>
<path clip-path="url(#clip870)" d="M2039.77 248.629 L2280.8 248.629 L2280.8 93.1086 L2039.77 93.1086  Z" fill="#ffffff" fill-rule="evenodd" fill-opacity="1"/>
<polyline clip-path="url(#clip870)" style="stroke:#000000; stroke-linecap:round; stroke-linejoin:round; stroke-width:4; stroke-opacity:1; fill:none" points="2039.77,248.629 2280.8,248.629 2280.8,93.1086 2039.77,93.1086 2039.77,248.629 "/>
<polyline clip-path="url(#clip870)" style="stroke:#009af9; stroke-linecap:round; stroke-linejoin:round; stroke-width:4; stroke-opacity:1; fill:none" points="2063.76,144.949 2207.68,144.949 "/>
<path clip-path="url(#clip870)" d="M2256.32 136.303 L2246.95 148.919 L2256.81 162.229 L2251.79 162.229 L2244.24 152.043 L2236.69 162.229 L2231.67 162.229 L2241.74 148.664 L2232.53 136.303 L2237.55 136.303 L2244.42 145.539 L2251.3 136.303 L2256.32 136.303 Z" fill="#000000" fill-rule="nonzero" fill-opacity="1" /><polyline clip-path="url(#clip870)" style="stroke:#e26f46; stroke-linecap:round; stroke-linejoin:round; stroke-width:4; stroke-opacity:1; fill:none" points="2063.76,196.789 2207.68,196.789 "/>
<path clip-path="url(#clip870)" d="M2248.17 178.05 L2248.17 181.592 L2244.1 181.592 Q2241.81 181.592 2240.91 182.518 Q2240.03 183.444 2240.03 185.851 L2240.03 188.143 L2247.04 188.143 L2247.04 191.453 L2240.03 191.453 L2240.03 214.069 L2235.74 214.069 L2235.74 191.453 L2231.67 191.453 L2231.67 188.143 L2235.74 188.143 L2235.74 186.337 Q2235.74 182.009 2237.76 180.041 Q2239.77 178.05 2244.15 178.05 L2248.17 178.05 Z" fill="#000000" fill-rule="nonzero" fill-opacity="1" /></svg>
