<?xml version="1.0" encoding="utf-8"?>
<svg xmlns="http://www.w3.org/2000/svg" xmlns:xlink="http://www.w3.org/1999/xlink" width="600" height="400" viewBox="0 0 2400 1600">
<defs>
  <clipPath id="clip900">
    <rect x="0" y="0" width="2400" height="1600"/>
  </clipPath>
</defs>
<path clip-path="url(#clip900)" d="M0 1600 L2400 1600 L2400 0 L0 0  Z" fill="#ffffff" fill-rule="evenodd" fill-opacity="1"/>
<defs>
  <clipPath id="clip901">
    <rect x="480" y="0" width="1681" height="1600"/>
  </clipPath>
</defs>
<path clip-path="url(#clip900)" d="M192.339 1423.18 L2352.76 1423.18 L2352.76 47.2441 L192.339 47.2441  Z" fill="#ffffff" fill-rule="evenodd" fill-opacity="1"/>
<defs>
  <clipPath id="clip902">
    <rect x="192" y="47" width="2161" height="1377"/>
  </clipPath>
</defs>
<polyline clip-path="url(#clip902)" style="stroke:#000000; stroke-linecap:round; stroke-linejoin:round; stroke-width:2; stroke-opacity:0.1; fill:none" points="192.339,1423.18 192.339,47.2441 "/>
<polyline clip-path="url(#clip902)" style="stroke:#000000; stroke-linecap:round; stroke-linejoin:round; stroke-width:2; stroke-opacity:0.1; fill:none" points="624.422,1423.18 624.422,47.2441 "/>
<polyline clip-path="url(#clip902)" style="stroke:#000000; stroke-linecap:round; stroke-linejoin:round; stroke-width:2; stroke-opacity:0.1; fill:none" points="1056.51,1423.18 1056.51,47.2441 "/>
<polyline clip-path="url(#clip902)" style="stroke:#000000; stroke-linecap:round; stroke-linejoin:round; stroke-width:2; stroke-opacity:0.1; fill:none" points="1488.59,1423.18 1488.59,47.2441 "/>
<polyline clip-path="url(#clip902)" style="stroke:#000000; stroke-linecap:round; stroke-linejoin:round; stroke-width:2; stroke-opacity:0.1; fill:none" points="1920.67,1423.18 1920.67,47.2441 "/>
<polyline clip-path="url(#clip902)" style="stroke:#000000; stroke-linecap:round; stroke-linejoin:round; stroke-width:2; stroke-opacity:0.1; fill:none" points="2352.76,1423.18 2352.76,47.2441 "/>
<polyline clip-path="url(#clip900)" style="stroke:#000000; stroke-linecap:round; stroke-linejoin:round; stroke-width:4; stroke-opacity:1; fill:none" points="192.339,1423.18 2352.76,1423.18 "/>
<polyline clip-path="url(#clip900)" style="stroke:#000000; stroke-linecap:round; stroke-linejoin:round; stroke-width:4; stroke-opacity:1; fill:none" points="192.339,1423.18 192.339,1404.28 "/>
<polyline clip-path="url(#clip900)" style="stroke:#000000; stroke-linecap:round; stroke-linejoin:round; stroke-width:4; stroke-opacity:1; fill:none" points="624.422,1423.18 624.422,1404.28 "/>
<polyline clip-path="url(#clip900)" style="stroke:#000000; stroke-linecap:round; stroke-linejoin:round; stroke-width:4; stroke-opacity:1; fill:none" points="1056.51,1423.18 1056.51,1404.28 "/>
<polyline clip-path="url(#clip900)" style="stroke:#000000; stroke-linecap:round; stroke-linejoin:round; stroke-width:4; stroke-opacity:1; fill:none" points="1488.59,1423.18 1488.59,1404.28 "/>
<polyline clip-path="url(#clip900)" style="stroke:#000000; stroke-linecap:round; stroke-linejoin:round; stroke-width:4; stroke-opacity:1; fill:none" points="1920.67,1423.18 1920.67,1404.28 "/>
<polyline clip-path="url(#clip900)" style="stroke:#000000; stroke-linecap:round; stroke-linejoin:round; stroke-width:4; stroke-opacity:1; fill:none" points="2352.76,1423.18 2352.76,1404.28 "/>
<path clip-path="url(#clip900)" d="M192.339 1454.1 Q188.728 1454.1 186.899 1457.66 Q185.093 1461.2 185.093 1468.33 Q185.093 1475.44 186.899 1479.01 Q188.728 1482.55 192.339 1482.55 Q195.973 1482.55 197.779 1479.01 Q199.607 1475.44 199.607 1468.33 Q199.607 1461.2 197.779 1457.66 Q195.973 1454.1 192.339 1454.1 M192.339 1450.39 Q198.149 1450.39 201.204 1455 Q204.283 1459.58 204.283 1468.33 Q204.283 1477.06 201.204 1481.67 Q198.149 1486.25 192.339 1486.25 Q186.529 1486.25 183.45 1481.67 Q180.394 1477.06 180.394 1468.33 Q180.394 1459.58 183.45 1455 Q186.529 1450.39 192.339 1450.39 Z" fill="#000000" fill-rule="nonzero" fill-opacity="1" /><path clip-path="url(#clip900)" d="M619.075 1481.64 L635.394 1481.64 L635.394 1485.58 L613.45 1485.58 L613.45 1481.64 Q616.112 1478.89 620.695 1474.26 Q625.302 1469.61 626.482 1468.27 Q628.728 1465.74 629.607 1464.01 Q630.51 1462.25 630.51 1460.56 Q630.51 1457.8 628.566 1456.07 Q626.644 1454.33 623.543 1454.33 Q621.344 1454.33 618.89 1455.09 Q616.459 1455.86 613.682 1457.41 L613.682 1452.69 Q616.506 1451.55 618.959 1450.97 Q621.413 1450.39 623.45 1450.39 Q628.82 1450.39 632.015 1453.08 Q635.209 1455.77 635.209 1460.26 Q635.209 1462.39 634.399 1464.31 Q633.612 1466.2 631.506 1468.8 Q630.927 1469.47 627.825 1472.69 Q624.723 1475.88 619.075 1481.64 Z" fill="#000000" fill-rule="nonzero" fill-opacity="1" /><path clip-path="url(#clip900)" d="M1059.51 1455.09 L1047.71 1473.54 L1059.51 1473.54 L1059.51 1455.09 M1058.29 1451.02 L1064.17 1451.02 L1064.17 1473.54 L1069.1 1473.54 L1069.1 1477.43 L1064.17 1477.43 L1064.17 1485.58 L1059.51 1485.58 L1059.51 1477.43 L1043.91 1477.43 L1043.91 1472.92 L1058.29 1451.02 Z" fill="#000000" fill-rule="nonzero" fill-opacity="1" /><path clip-path="url(#clip900)" d="M1488.99 1466.44 Q1485.85 1466.44 1483.99 1468.59 Q1482.17 1470.74 1482.17 1474.49 Q1482.17 1478.22 1483.99 1480.39 Q1485.85 1482.55 1488.99 1482.55 Q1492.14 1482.55 1493.97 1480.39 Q1495.82 1478.22 1495.82 1474.49 Q1495.82 1470.74 1493.97 1468.59 Q1492.14 1466.44 1488.99 1466.44 M1498.28 1451.78 L1498.28 1456.04 Q1496.52 1455.21 1494.71 1454.77 Q1492.93 1454.33 1491.17 1454.33 Q1486.54 1454.33 1484.09 1457.45 Q1481.66 1460.58 1481.31 1466.9 Q1482.67 1464.89 1484.73 1463.82 Q1486.8 1462.73 1489.27 1462.73 Q1494.48 1462.73 1497.49 1465.9 Q1500.52 1469.05 1500.52 1474.49 Q1500.52 1479.82 1497.37 1483.03 Q1494.23 1486.25 1488.99 1486.25 Q1483 1486.25 1479.83 1481.67 Q1476.66 1477.06 1476.66 1468.33 Q1476.66 1460.14 1480.55 1455.28 Q1484.43 1450.39 1490.98 1450.39 Q1492.74 1450.39 1494.53 1450.74 Q1496.33 1451.09 1498.28 1451.78 Z" fill="#000000" fill-rule="nonzero" fill-opacity="1" /><path clip-path="url(#clip900)" d="M1920.67 1469.17 Q1917.34 1469.17 1915.42 1470.95 Q1913.52 1472.73 1913.52 1475.86 Q1913.52 1478.98 1915.42 1480.77 Q1917.34 1482.55 1920.67 1482.55 Q1924.01 1482.55 1925.93 1480.77 Q1927.85 1478.96 1927.85 1475.86 Q1927.85 1472.73 1925.93 1470.95 Q1924.03 1469.17 1920.67 1469.17 M1916 1467.18 Q1912.99 1466.44 1911.3 1464.38 Q1909.63 1462.32 1909.63 1459.35 Q1909.63 1455.21 1912.57 1452.8 Q1915.53 1450.39 1920.67 1450.39 Q1925.83 1450.39 1928.77 1452.8 Q1931.71 1455.21 1931.71 1459.35 Q1931.71 1462.32 1930.02 1464.38 Q1928.36 1466.44 1925.37 1467.18 Q1928.75 1467.96 1930.63 1470.26 Q1932.52 1472.55 1932.52 1475.86 Q1932.52 1480.88 1929.45 1483.57 Q1926.39 1486.25 1920.67 1486.25 Q1914.95 1486.25 1911.88 1483.57 Q1908.82 1480.88 1908.82 1475.86 Q1908.82 1472.55 1910.72 1470.26 Q1912.62 1467.96 1916 1467.18 M1914.28 1459.79 Q1914.28 1462.48 1915.95 1463.98 Q1917.64 1465.49 1920.67 1465.49 Q1923.68 1465.49 1925.37 1463.98 Q1927.08 1462.48 1927.08 1459.79 Q1927.08 1457.11 1925.37 1455.6 Q1923.68 1454.1 1920.67 1454.1 Q1917.64 1454.1 1915.95 1455.6 Q1914.28 1457.11 1914.28 1459.79 Z" fill="#000000" fill-rule="nonzero" fill-opacity="1" /><path clip-path="url(#clip900)" d="M2327.44 1481.64 L2335.08 1481.64 L2335.08 1455.28 L2326.77 1456.95 L2326.77 1452.69 L2335.04 1451.02 L2339.71 1451.02 L2339.71 1481.64 L2347.35 1481.64 L2347.35 1485.58 L2327.44 1485.58 L2327.44 1481.64 Z" fill="#000000" fill-rule="nonzero" fill-opacity="1" /><path clip-path="url(#clip900)" d="M2366.8 1454.1 Q2363.18 1454.1 2361.36 1457.66 Q2359.55 1461.2 2359.55 1468.33 Q2359.55 1475.44 2361.36 1479.01 Q2363.18 1482.55 2366.8 1482.55 Q2370.43 1482.55 2372.23 1479.01 Q2374.06 1475.44 2374.06 1468.33 Q2374.06 1461.2 2372.23 1457.66 Q2370.43 1454.1 2366.8 1454.1 M2366.8 1450.39 Q2372.61 1450.39 2375.66 1455 Q2378.74 1459.58 2378.74 1468.33 Q2378.74 1477.06 2375.66 1481.67 Q2372.61 1486.25 2366.8 1486.25 Q2360.99 1486.25 2357.91 1481.67 Q2354.85 1477.06 2354.85 1468.33 Q2354.85 1459.58 2357.91 1455 Q2360.99 1450.39 2366.8 1450.39 Z" fill="#000000" fill-rule="nonzero" fill-opacity="1" /><path clip-path="url(#clip900)" d="M1271.61 1522.27 L1271.61 1532.4 L1283.67 1532.4 L1283.67 1536.95 L1271.61 1536.95 L1271.61 1556.3 Q1271.61 1560.66 1272.79 1561.9 Q1274 1563.14 1277.66 1563.14 L1283.67 1563.14 L1283.67 1568.04 L1277.66 1568.04 Q1270.88 1568.04 1268.3 1565.53 Q1265.72 1562.98 1265.72 1556.3 L1265.72 1536.95 L1261.42 1536.95 L1261.42 1532.4 L1265.72 1532.4 L1265.72 1522.27 L1271.61 1522.27 Z" fill="#000000" fill-rule="nonzero" fill-opacity="1" /><polyline clip-path="url(#clip902)" style="stroke:#000000; stroke-linecap:round; stroke-linejoin:round; stroke-width:2; stroke-opacity:0.1; fill:none" points="192.339,1241.17 2352.76,1241.17 "/>
<polyline clip-path="url(#clip902)" style="stroke:#000000; stroke-linecap:round; stroke-linejoin:round; stroke-width:2; stroke-opacity:0.1; fill:none" points="192.339,1054.8 2352.76,1054.8 "/>
<polyline clip-path="url(#clip902)" style="stroke:#000000; stroke-linecap:round; stroke-linejoin:round; stroke-width:2; stroke-opacity:0.1; fill:none" points="192.339,868.421 2352.76,868.421 "/>
<polyline clip-path="url(#clip902)" style="stroke:#000000; stroke-linecap:round; stroke-linejoin:round; stroke-width:2; stroke-opacity:0.1; fill:none" points="192.339,682.045 2352.76,682.045 "/>
<polyline clip-path="url(#clip902)" style="stroke:#000000; stroke-linecap:round; stroke-linejoin:round; stroke-width:2; stroke-opacity:0.1; fill:none" points="192.339,495.669 2352.76,495.669 "/>
<polyline clip-path="url(#clip902)" style="stroke:#000000; stroke-linecap:round; stroke-linejoin:round; stroke-width:2; stroke-opacity:0.1; fill:none" points="192.339,309.293 2352.76,309.293 "/>
<polyline clip-path="url(#clip902)" style="stroke:#000000; stroke-linecap:round; stroke-linejoin:round; stroke-width:2; stroke-opacity:0.1; fill:none" points="192.339,122.917 2352.76,122.917 "/>
<polyline clip-path="url(#clip900)" style="stroke:#000000; stroke-linecap:round; stroke-linejoin:round; stroke-width:4; stroke-opacity:1; fill:none" points="192.339,1423.18 192.339,47.2441 "/>
<polyline clip-path="url(#clip900)" style="stroke:#000000; stroke-linecap:round; stroke-linejoin:round; stroke-width:4; stroke-opacity:1; fill:none" points="192.339,1241.17 211.236,1241.17 "/>
<polyline clip-path="url(#clip900)" style="stroke:#000000; stroke-linecap:round; stroke-linejoin:round; stroke-width:4; stroke-opacity:1; fill:none" points="192.339,1054.8 211.236,1054.8 "/>
<polyline clip-path="url(#clip900)" style="stroke:#000000; stroke-linecap:round; stroke-linejoin:round; stroke-width:4; stroke-opacity:1; fill:none" points="192.339,868.421 211.236,868.421 "/>
<polyline clip-path="url(#clip900)" style="stroke:#000000; stroke-linecap:round; stroke-linejoin:round; stroke-width:4; stroke-opacity:1; fill:none" points="192.339,682.045 211.236,682.045 "/>
<polyline clip-path="url(#clip900)" style="stroke:#000000; stroke-linecap:round; stroke-linejoin:round; stroke-width:4; stroke-opacity:1; fill:none" points="192.339,495.669 211.236,495.669 "/>
<polyline clip-path="url(#clip900)" style="stroke:#000000; stroke-linecap:round; stroke-linejoin:round; stroke-width:4; stroke-opacity:1; fill:none" points="192.339,309.293 211.236,309.293 "/>
<polyline clip-path="url(#clip900)" style="stroke:#000000; stroke-linecap:round; stroke-linejoin:round; stroke-width:4; stroke-opacity:1; fill:none" points="192.339,122.917 211.236,122.917 "/>
<path clip-path="url(#clip900)" d="M50.9921 1241.62 L80.6679 1241.62 L80.6679 1245.56 L50.9921 1245.56 L50.9921 1241.62 Z" fill="#000000" fill-rule="nonzero" fill-opacity="1" /><path clip-path="url(#clip900)" d="M100.76 1226.97 Q97.1493 1226.97 95.3206 1230.54 Q93.515 1234.08 93.515 1241.21 Q93.515 1248.31 95.3206 1251.88 Q97.1493 1255.42 100.76 1255.42 Q104.395 1255.42 106.2 1251.88 Q108.029 1248.31 108.029 1241.21 Q108.029 1234.08 106.2 1230.54 Q104.395 1226.97 100.76 1226.97 M100.76 1223.27 Q106.571 1223.27 109.626 1227.88 Q112.705 1232.46 112.705 1241.21 Q112.705 1249.94 109.626 1254.54 Q106.571 1259.12 100.76 1259.12 Q94.9502 1259.12 91.8715 1254.54 Q88.816 1249.94 88.816 1241.21 Q88.816 1232.46 91.8715 1227.88 Q94.9502 1223.27 100.76 1223.27 Z" fill="#000000" fill-rule="nonzero" fill-opacity="1" /><path clip-path="url(#clip900)" d="M120.922 1252.57 L125.807 1252.57 L125.807 1258.45 L120.922 1258.45 L120.922 1252.57 Z" fill="#000000" fill-rule="nonzero" fill-opacity="1" /><path clip-path="url(#clip900)" d="M140.019 1254.52 L156.339 1254.52 L156.339 1258.45 L134.394 1258.45 L134.394 1254.52 Q137.056 1251.76 141.64 1247.13 Q146.246 1242.48 147.427 1241.14 Q149.672 1238.62 150.552 1236.88 Q151.455 1235.12 151.455 1233.43 Q151.455 1230.68 149.51 1228.94 Q147.589 1227.2 144.487 1227.2 Q142.288 1227.2 139.834 1227.97 Q137.404 1228.73 134.626 1230.28 L134.626 1225.56 Q137.45 1224.43 139.904 1223.85 Q142.357 1223.27 144.394 1223.27 Q149.765 1223.27 152.959 1225.95 Q156.154 1228.64 156.154 1233.13 Q156.154 1235.26 155.343 1237.18 Q154.556 1239.08 152.45 1241.67 Q151.871 1242.34 148.769 1245.56 Q145.668 1248.75 140.019 1254.52 Z" fill="#000000" fill-rule="nonzero" fill-opacity="1" /><path clip-path="url(#clip900)" d="M99.1632 1040.6 Q95.5521 1040.6 93.7234 1044.16 Q91.9178 1047.7 91.9178 1054.83 Q91.9178 1061.94 93.7234 1065.5 Q95.5521 1069.05 99.1632 1069.05 Q102.797 1069.05 104.603 1065.5 Q106.432 1061.94 106.432 1054.83 Q106.432 1047.7 104.603 1044.16 Q102.797 1040.6 99.1632 1040.6 M99.1632 1036.89 Q104.973 1036.89 108.029 1041.5 Q111.108 1046.08 111.108 1054.83 Q111.108 1063.56 108.029 1068.17 Q104.973 1072.75 99.1632 1072.75 Q93.353 1072.75 90.2743 1068.17 Q87.2188 1063.56 87.2188 1054.83 Q87.2188 1046.08 90.2743 1041.5 Q93.353 1036.89 99.1632 1036.89 Z" fill="#000000" fill-rule="nonzero" fill-opacity="1" /><path clip-path="url(#clip900)" d="M119.325 1066.2 L124.209 1066.2 L124.209 1072.08 L119.325 1072.08 L119.325 1066.2 Z" fill="#000000" fill-rule="nonzero" fill-opacity="1" /><path clip-path="url(#clip900)" d="M144.394 1040.6 Q140.783 1040.6 138.955 1044.16 Q137.149 1047.7 137.149 1054.83 Q137.149 1061.94 138.955 1065.5 Q140.783 1069.05 144.394 1069.05 Q148.029 1069.05 149.834 1065.5 Q151.663 1061.94 151.663 1054.83 Q151.663 1047.7 149.834 1044.16 Q148.029 1040.6 144.394 1040.6 M144.394 1036.89 Q150.205 1036.89 153.26 1041.5 Q156.339 1046.08 156.339 1054.83 Q156.339 1063.56 153.26 1068.17 Q150.205 1072.75 144.394 1072.75 Q138.584 1072.75 135.506 1068.17 Q132.45 1063.56 132.45 1054.83 Q132.45 1046.08 135.506 1041.5 Q138.584 1036.89 144.394 1036.89 Z" fill="#000000" fill-rule="nonzero" fill-opacity="1" /><path clip-path="url(#clip900)" d="M100.76 854.22 Q97.1493 854.22 95.3206 857.785 Q93.515 861.327 93.515 868.456 Q93.515 875.563 95.3206 879.127 Q97.1493 882.669 100.76 882.669 Q104.395 882.669 106.2 879.127 Q108.029 875.563 108.029 868.456 Q108.029 861.327 106.2 857.785 Q104.395 854.22 100.76 854.22 M100.76 850.516 Q106.571 850.516 109.626 855.123 Q112.705 859.706 112.705 868.456 Q112.705 877.183 109.626 881.789 Q106.571 886.373 100.76 886.373 Q94.9502 886.373 91.8715 881.789 Q88.816 877.183 88.816 868.456 Q88.816 859.706 91.8715 855.123 Q94.9502 850.516 100.76 850.516 Z" fill="#000000" fill-rule="nonzero" fill-opacity="1" /><path clip-path="url(#clip900)" d="M120.922 879.822 L125.807 879.822 L125.807 885.701 L120.922 885.701 L120.922 879.822 Z" fill="#000000" fill-rule="nonzero" fill-opacity="1" /><path clip-path="url(#clip900)" d="M140.019 881.766 L156.339 881.766 L156.339 885.701 L134.394 885.701 L134.394 881.766 Q137.056 879.012 141.64 874.382 Q146.246 869.729 147.427 868.387 Q149.672 865.864 150.552 864.127 Q151.455 862.368 151.455 860.678 Q151.455 857.924 149.51 856.188 Q147.589 854.452 144.487 854.452 Q142.288 854.452 139.834 855.215 Q137.404 855.979 134.626 857.53 L134.626 852.808 Q137.45 851.674 139.904 851.095 Q142.357 850.516 144.394 850.516 Q149.765 850.516 152.959 853.202 Q156.154 855.887 156.154 860.377 Q156.154 862.507 155.343 864.428 Q154.556 866.327 152.45 868.919 Q151.871 869.59 148.769 872.808 Q145.668 876.002 140.019 881.766 Z" fill="#000000" fill-rule="nonzero" fill-opacity="1" /><path clip-path="url(#clip900)" d="M98.6771 667.844 Q95.066 667.844 93.2373 671.409 Q91.4317 674.95 91.4317 682.08 Q91.4317 689.187 93.2373 692.751 Q95.066 696.293 98.6771 696.293 Q102.311 696.293 104.117 692.751 Q105.946 689.187 105.946 682.08 Q105.946 674.95 104.117 671.409 Q102.311 667.844 98.6771 667.844 M98.6771 664.14 Q104.487 664.14 107.543 668.747 Q110.621 673.33 110.621 682.08 Q110.621 690.807 107.543 695.413 Q104.487 699.997 98.6771 699.997 Q92.8669 699.997 89.7882 695.413 Q86.7327 690.807 86.7327 682.08 Q86.7327 673.33 89.7882 668.747 Q92.8669 664.14 98.6771 664.14 Z" fill="#000000" fill-rule="nonzero" fill-opacity="1" /><path clip-path="url(#clip900)" d="M118.839 693.446 L123.723 693.446 L123.723 699.325 L118.839 699.325 L118.839 693.446 Z" fill="#000000" fill-rule="nonzero" fill-opacity="1" /><path clip-path="url(#clip900)" d="M146.756 668.839 L134.95 687.288 L146.756 687.288 L146.756 668.839 M145.529 664.765 L151.408 664.765 L151.408 687.288 L156.339 687.288 L156.339 691.177 L151.408 691.177 L151.408 699.325 L146.756 699.325 L146.756 691.177 L131.154 691.177 L131.154 686.663 L145.529 664.765 Z" fill="#000000" fill-rule="nonzero" fill-opacity="1" /><path clip-path="url(#clip900)" d="M99.0011 481.468 Q95.39 481.468 93.5613 485.033 Q91.7558 488.574 91.7558 495.704 Q91.7558 502.81 93.5613 506.375 Q95.39 509.917 99.0011 509.917 Q102.635 509.917 104.441 506.375 Q106.27 502.81 106.27 495.704 Q106.27 488.574 104.441 485.033 Q102.635 481.468 99.0011 481.468 M99.0011 477.764 Q104.811 477.764 107.867 482.371 Q110.946 486.954 110.946 495.704 Q110.946 504.431 107.867 509.037 Q104.811 513.621 99.0011 513.621 Q93.191 513.621 90.1123 509.037 Q87.0567 504.431 87.0567 495.704 Q87.0567 486.954 90.1123 482.371 Q93.191 477.764 99.0011 477.764 Z" fill="#000000" fill-rule="nonzero" fill-opacity="1" /><path clip-path="url(#clip900)" d="M119.163 507.07 L124.047 507.07 L124.047 512.949 L119.163 512.949 L119.163 507.07 Z" fill="#000000" fill-rule="nonzero" fill-opacity="1" /><path clip-path="url(#clip900)" d="M144.811 493.806 Q141.663 493.806 139.811 495.959 Q137.982 498.111 137.982 501.861 Q137.982 505.588 139.811 507.764 Q141.663 509.917 144.811 509.917 Q147.959 509.917 149.788 507.764 Q151.64 505.588 151.64 501.861 Q151.64 498.111 149.788 495.959 Q147.959 493.806 144.811 493.806 M154.093 479.153 L154.093 483.412 Q152.334 482.579 150.529 482.139 Q148.746 481.699 146.987 481.699 Q142.357 481.699 139.904 484.824 Q137.473 487.949 137.126 494.269 Q138.492 492.255 140.552 491.19 Q142.612 490.102 145.089 490.102 Q150.297 490.102 153.306 493.273 Q156.339 496.422 156.339 501.861 Q156.339 507.185 153.191 510.403 Q150.043 513.621 144.811 513.621 Q138.816 513.621 135.644 509.037 Q132.473 504.431 132.473 495.704 Q132.473 487.51 136.362 482.649 Q140.251 477.764 146.802 477.764 Q148.561 477.764 150.343 478.111 Q152.149 478.459 154.093 479.153 Z" fill="#000000" fill-rule="nonzero" fill-opacity="1" /><path clip-path="url(#clip900)" d="M99.2558 295.092 Q95.6447 295.092 93.816 298.657 Q92.0104 302.198 92.0104 309.328 Q92.0104 316.434 93.816 319.999 Q95.6447 323.541 99.2558 323.541 Q102.89 323.541 104.696 319.999 Q106.524 316.434 106.524 309.328 Q106.524 302.198 104.696 298.657 Q102.89 295.092 99.2558 295.092 M99.2558 291.388 Q105.066 291.388 108.121 295.995 Q111.2 300.578 111.2 309.328 Q111.2 318.055 108.121 322.661 Q105.066 327.244 99.2558 327.244 Q93.4456 327.244 90.3669 322.661 Q87.3114 318.055 87.3114 309.328 Q87.3114 300.578 90.3669 295.995 Q93.4456 291.388 99.2558 291.388 Z" fill="#000000" fill-rule="nonzero" fill-opacity="1" /><path clip-path="url(#clip900)" d="M119.418 320.694 L124.302 320.694 L124.302 326.573 L119.418 326.573 L119.418 320.694 Z" fill="#000000" fill-rule="nonzero" fill-opacity="1" /><path clip-path="url(#clip900)" d="M144.487 310.161 Q141.154 310.161 139.232 311.944 Q137.334 313.726 137.334 316.851 Q137.334 319.976 139.232 321.758 Q141.154 323.541 144.487 323.541 Q147.82 323.541 149.742 321.758 Q151.663 319.953 151.663 316.851 Q151.663 313.726 149.742 311.944 Q147.843 310.161 144.487 310.161 M139.811 308.171 Q136.802 307.43 135.112 305.37 Q133.445 303.309 133.445 300.346 Q133.445 296.203 136.385 293.796 Q139.348 291.388 144.487 291.388 Q149.649 291.388 152.589 293.796 Q155.529 296.203 155.529 300.346 Q155.529 303.309 153.839 305.37 Q152.172 307.43 149.186 308.171 Q152.566 308.958 154.441 311.249 Q156.339 313.541 156.339 316.851 Q156.339 321.874 153.26 324.559 Q150.205 327.244 144.487 327.244 Q138.769 327.244 135.691 324.559 Q132.635 321.874 132.635 316.851 Q132.635 313.541 134.533 311.249 Q136.431 308.958 139.811 308.171 M138.098 300.786 Q138.098 303.471 139.765 304.976 Q141.455 306.481 144.487 306.481 Q147.496 306.481 149.186 304.976 Q150.899 303.471 150.899 300.786 Q150.899 298.101 149.186 296.596 Q147.496 295.092 144.487 295.092 Q141.455 295.092 139.765 296.596 Q138.098 298.101 138.098 300.786 Z" fill="#000000" fill-rule="nonzero" fill-opacity="1" /><path clip-path="url(#clip900)" d="M89.9734 136.262 L97.6122 136.262 L97.6122 109.896 L89.3021 111.563 L89.3021 107.304 L97.566 105.637 L102.242 105.637 L102.242 136.262 L109.881 136.262 L109.881 140.197 L89.9734 140.197 L89.9734 136.262 Z" fill="#000000" fill-rule="nonzero" fill-opacity="1" /><path clip-path="url(#clip900)" d="M119.325 134.318 L124.209 134.318 L124.209 140.197 L119.325 140.197 L119.325 134.318 Z" fill="#000000" fill-rule="nonzero" fill-opacity="1" /><path clip-path="url(#clip900)" d="M144.394 108.716 Q140.783 108.716 138.955 112.281 Q137.149 115.822 137.149 122.952 Q137.149 130.058 138.955 133.623 Q140.783 137.165 144.394 137.165 Q148.029 137.165 149.834 133.623 Q151.663 130.058 151.663 122.952 Q151.663 115.822 149.834 112.281 Q148.029 108.716 144.394 108.716 M144.394 105.012 Q150.205 105.012 153.26 109.619 Q156.339 114.202 156.339 122.952 Q156.339 131.679 153.26 136.285 Q150.205 140.868 144.394 140.868 Q138.584 140.868 135.506 136.285 Q132.45 131.679 132.45 122.952 Q132.45 114.202 135.506 109.619 Q138.584 105.012 144.394 105.012 Z" fill="#000000" fill-rule="nonzero" fill-opacity="1" /><polyline clip-path="url(#clip902)" style="stroke:#009af9; stroke-linecap:round; stroke-linejoin:round; stroke-width:4; stroke-opacity:1; fill:none" points="192.339,1054.8 194.501,1051.57 196.664,1048.38 198.827,1045.24 200.989,1042.14 203.152,1039.07 205.314,1036.05 207.477,1033.07 209.639,1030.13 211.802,1027.23 213.965,1024.37 216.127,1021.54 218.29,1018.75 220.452,1016 222.615,1013.29 224.777,1010.61 226.94,1007.96 229.103,1005.36 231.265,1002.78 233.428,1000.24 235.59,997.737 237.753,995.265 239.916,992.825 242.078,990.417 244.241,988.042 246.403,985.698 248.566,983.385 250.728,981.102 252.891,978.85 255.054,976.628 257.216,974.435 259.379,972.272 261.541,970.137 263.704,968.03 265.866,965.951 268.029,963.9 270.192,961.876 272.354,959.879 274.517,957.908 276.679,955.964 278.842,954.045 281.005,952.152 283.167,950.283 285.33,948.44 287.492,946.621 289.655,944.826 291.817,943.055 293.98,941.307 296.143,939.583 298.305,937.881 300.468,936.202 302.63,934.545 304.793,932.911 306.956,931.297 309.118,929.706 311.281,928.135 313.443,926.585 315.606,925.056 317.768,923.547 319.931,922.058 322.094,920.589 324.256,919.139 326.419,917.708 328.581,916.297 330.744,914.904 332.906,913.529 335.069,912.173 337.232,910.835 339.394,909.515 341.557,908.212 343.719,906.926 345.882,905.657 348.045,904.405 350.207,903.17 352.37,901.951 354.532,900.749 356.695,899.562 358.857,898.391 361.02,897.236 363.183,896.095 365.345,894.97 367.508,893.86 369.67,892.765 371.833,891.684 373.995,890.618 376.158,889.565 378.321,888.527 380.483,887.502 382.646,886.491 384.808,885.493 386.971,884.509 389.134,883.537 391.296,882.579 393.459,881.633 395.621,880.699 397.784,879.426 399.946,877.907 402.109,876.616 404.272,875.894 406.434,875.95 408.597,876.861 410.759,878.572 412.922,880.896 415.084,883.512 417.247,885.986 419.41,888.311 421.572,890.604 423.735,892.868 425.897,895.101 428.06,897.305 430.223,899.479 432.385,901.625 434.548,903.743 436.71,905.832 438.873,907.893 441.035,909.928 443.198,911.935 445.361,913.916 447.523,915.87 449.686,917.798 451.848,919.701 454.011,921.579 456.174,923.432 458.336,925.26 460.499,927.064 462.661,928.844 464.824,930.6 466.986,932.333 469.149,934.043 471.312,935.73 473.474,937.396 475.637,939.038 477.799,940.66 479.962,942.259 482.124,943.838 484.287,945.395 486.45,946.932 488.612,948.449 490.775,949.945 492.937,951.422 495.1,952.879 497.263,954.317 499.425,955.735 501.588,957.135 503.75,958.517 505.913,959.88 508.075,961.225 510.238,962.552 512.401,963.861 514.563,965.153 516.726,966.429 518.888,967.687 521.051,968.928 523.213,970.153 525.376,971.362 527.539,972.554 529.701,973.731 531.864,974.893 534.026,976.038 536.189,977.169 538.352,978.285 540.514,979.386 542.677,980.472 544.839,981.544 547.002,982.602 549.164,983.645 551.327,984.675 553.49,985.691 555.652,986.694 557.815,987.683 559.977,988.66 562.14,989.623 564.302,990.574 566.465,991.512 568.628,992.437 570.79,993.351 572.953,994.252 575.115,995.141 577.278,996.018 579.441,996.884 581.603,997.738 583.766,998.581 585.928,999.413 588.091,1000.23 590.253,1001.04 592.416,1001.84 594.579,1002.63 596.741,1003.41 598.904,1004.18 601.066,1004.94 603.229,1005.68 605.392,1006.42 607.554,1007.15 609.717,1007.87 611.879,1008.58 614.042,1009.27 616.204,1009.96 618.367,1010.65 620.53,1011.32 622.692,1011.98 624.855,1012.58 627.017,1012.4 629.18,1011.35 631.342,1009.57 633.505,1007.19 635.668,1004.32 637.83,1001.08 639.993,997.554 642.155,993.841 644.318,990.016 646.481,986.144 648.643,982.286 650.806,978.487 652.968,974.785 655.131,971.209 657.293,967.774 659.456,964.489 661.619,961.35 663.781,958.344 665.944,955.449 668.106,952.631 670.269,949.847 672.431,947.044 674.594,944.19 676.757,941.364 678.919,938.576 681.082,935.825 683.244,933.11 685.407,930.432 687.57,927.789 689.732,925.181 691.895,922.607 694.057,920.068 696.22,917.562 698.382,915.09 700.545,912.65 702.708,910.242 704.87,907.867 707.033,905.523 709.195,903.21 711.358,900.927 713.52,898.675 715.683,896.453 717.846,894.26 720.008,892.097 722.171,889.962 724.333,887.855 726.496,885.776 728.659,883.725 730.821,881.701 732.984,879.704 735.146,877.734 737.309,875.789 739.471,873.871 741.634,871.977 743.797,870.109 745.959,868.266 748.122,866.447 750.284,864.653 752.447,862.882 754.61,861.134 756.772,859.41 758.935,857.709 761.097,856.03 763.26,854.373 765.422,852.739 767.585,851.126 769.748,849.534 771.91,847.964 774.073,846.414 776.235,844.885 778.398,843.376 780.56,841.887 782.723,840.418 784.886,838.968 787.048,837.538 789.211,836.126 791.373,834.733 793.536,833.359 795.699,832.003 797.861,830.665 800.024,829.344 802.186,828.041 804.349,826.756 806.511,825.487 808.674,824.235 810.837,823 812.999,821.781 815.162,820.579 817.324,819.392 819.487,818.221 821.649,817.066 823.812,815.926 825.975,814.801 828.137,813.691 830.3,812.595 832.462,811.514 834.625,810.448 836.788,809.396 838.95,808.357 841.113,808.177 843.275,809.838 845.438,813.061 847.6,817.581 849.763,823.153 851.926,829.553 854.088,836.576 856.251,844.039 858.413,851.779 860.576,859.651 862.738,867.534 864.901,875.326 867.064,882.944 869.226,890.326 871.389,897.432 873.551,904.241 875.714,910.752 877.877,916.985 880.039,922.981 882.202,928.801 884.364,934.524 886.527,940.254 888.689,946.089 890.852,951.898 893.015,957.63 895.177,963.286 897.34,968.867 899.502,974.374 901.665,979.808 903.828,985.17 905.99,990.461 908.153,995.682 910.315,1000.83 912.478,1005.92 914.64,1010.93 916.803,1015.88 918.966,1020.77 921.128,1025.58 923.291,1030.34 925.453,1035.03 927.616,1039.66 929.778,1044.23 931.941,1048.74 934.104,1053.19 936.266,1057.58 938.429,1061.91 940.591,1066.18 942.754,1070.4 944.917,1074.56 947.079,1078.66 949.242,1082.71 951.404,1086.71 953.567,1090.66 955.729,1094.55 957.892,1098.39 960.055,1102.18 962.217,1105.92 964.38,1109.61 966.542,1113.25 968.705,1116.84 970.867,1120.39 973.03,1123.89 975.193,1127.34 977.355,1130.74 979.518,1134.1 981.68,1137.42 983.843,1140.69 986.006,1143.92 988.168,1147.11 990.331,1150.25 992.493,1153.35 994.656,1156.41 996.818,1159.43 998.981,1162.42 1001.14,1165.36 1003.31,1168.26 1005.47,1171.12 1007.63,1173.95 1009.79,1176.74 1011.96,1179.49 1014.12,1182.2 1016.28,1184.88 1018.44,1187.52 1020.61,1190.13 1022.77,1192.7 1024.93,1195.24 1027.09,1197.75 1029.26,1200.22 1031.42,1202.66 1033.58,1205.07 1035.74,1207.44 1037.91,1209.79 1040.07,1212.1 1042.23,1214.38 1044.4,1216.64 1046.56,1218.86 1048.72,1221.05 1050.88,1223.21 1053.05,1225.35 1055.21,1227.25 1057.37,1226.4 1059.53,1222.42 1061.7,1215.75 1063.86,1206.81 1066.02,1195.99 1068.18,1183.66 1070.35,1170.15 1072.51,1155.77 1074.67,1140.78 1076.83,1125.43 1079,1109.94 1081.16,1094.49 1083.32,1079.25 1085.48,1064.34 1087.65,1049.85 1089.81,1035.87 1091.97,1022.42 1094.13,1009.53 1096.3,997.168 1098.46,985.292 1100.62,973.825 1102.78,962.663 1104.95,951.669 1107.11,940.68 1109.27,929.51 1111.44,918.329 1113.6,907.297 1115.76,896.41 1117.92,885.668 1120.09,875.069 1122.25,864.61 1124.41,854.289 1126.57,844.106 1128.74,834.057 1130.9,824.142 1133.06,814.358 1135.22,804.704 1137.39,795.178 1139.55,785.778 1141.71,776.503 1143.87,767.351 1146.04,758.32 1148.2,749.409 1150.36,740.616 1152.52,731.939 1154.69,723.377 1156.85,714.929 1159.01,706.593 1161.17,698.367 1163.34,690.251 1165.5,682.242 1167.66,674.339 1169.82,666.541 1171.99,658.846 1174.15,651.254 1176.31,643.762 1178.48,636.37 1180.64,629.076 1182.8,621.878 1184.96,614.776 1187.13,607.768 1189.29,600.853 1191.45,594.03 1193.61,587.297 1195.78,580.654 1197.94,574.098 1200.1,567.63 1202.26,561.247 1204.43,554.949 1206.59,548.734 1208.75,542.602 1210.91,536.551 1213.08,530.58 1215.24,524.688 1217.4,518.874 1219.56,513.138 1221.73,507.477 1223.89,501.892 1226.05,496.38 1228.21,490.942 1230.38,485.575 1232.54,480.28 1234.7,475.055 1236.86,469.9 1239.03,464.812 1241.19,459.792 1243.35,454.839 1245.52,449.952 1247.68,445.129 1249.84,440.37 1252,435.674 1254.17,431.041 1256.33,426.469 1258.49,421.957 1260.65,417.506 1262.82,413.113 1264.98,408.779 1267.14,404.502 1269.3,400.282 1271.47,396.117 1273.63,392.36 1275.79,389.988 1277.95,388.927 1280.12,389.037 1282.28,390.186 1284.44,392.246 1286.6,395.099 1288.77,398.631 1290.93,402.737 1293.09,407.316 1295.25,412.276 1297.42,417.532 1299.58,423.003 1301.74,428.618 1303.9,434.31 1306.07,440.019 1308.23,445.695 1310.39,451.29 1312.56,456.765 1314.72,462.09 1316.88,467.236 1319.04,472.187 1321.21,476.929 1323.37,481.457 1325.53,485.772 1327.69,489.883 1329.86,493.803 1332.02,497.554 1334.18,501.164 1336.34,504.667 1338.51,508.106 1340.67,511.529 1342.83,514.989 1344.99,518.55 1347.16,522.146 1349.32,525.694 1351.48,529.196 1353.64,532.651 1355.81,536.06 1357.97,539.424 1360.13,542.743 1362.29,546.019 1364.46,549.251 1366.62,552.44 1368.78,555.587 1370.94,558.692 1373.11,561.756 1375.27,564.779 1377.43,567.762 1379.6,570.706 1381.76,573.611 1383.92,576.477 1386.08,579.305 1388.25,582.096 1390.41,584.85 1392.57,587.567 1394.73,590.249 1396.9,592.894 1399.06,595.505 1401.22,598.082 1403.38,600.624 1405.55,603.132 1407.71,605.608 1409.87,608.05 1412.03,610.46 1414.2,612.838 1416.36,615.184 1418.52,617.5 1420.68,619.784 1422.85,622.038 1425.01,624.262 1427.17,626.457 1429.33,628.623 1431.5,630.759 1433.66,632.868 1435.82,634.948 1437.98,637.001 1440.15,639.026 1442.31,641.025 1444.47,642.997 1446.64,644.943 1448.8,646.863 1450.96,648.758 1453.12,650.627 1455.29,652.472 1457.45,654.292 1459.61,656.089 1461.77,657.861 1463.94,659.61 1466.1,661.335 1468.26,663.038 1470.42,664.719 1472.59,666.377 1474.75,668.013 1476.91,669.627 1479.07,671.22 1481.24,672.787 1483.4,673.981 1485.56,674.634 1487.72,674.798 1489.89,674.522 1492.05,673.853 1494.21,672.837 1496.37,671.517 1498.54,669.933 1500.7,668.124 1502.86,666.125 1505.02,663.971 1507.19,661.694 1509.35,659.322 1511.51,656.883 1513.67,654.402 1515.84,651.903 1518,649.405 1520.16,646.926 1522.33,644.483 1524.49,642.091 1526.65,639.759 1528.81,637.498 1530.98,635.315 1533.14,633.215 1535.3,631.2 1537.46,629.272 1539.63,627.427 1541.79,625.663 1543.95,623.973 1546.11,622.349 1548.28,620.779 1550.44,619.251 1552.6,617.751 1554.76,616.259 1556.93,614.758 1559.09,613.224 1561.25,611.664 1563.41,610.123 1565.58,608.602 1567.74,607.101 1569.9,605.62 1572.06,604.159 1574.23,602.718 1576.39,601.295 1578.55,599.891 1580.71,598.506 1582.88,597.139 1585.04,595.79 1587.2,594.46 1589.37,593.146 1591.53,591.851 1593.69,590.572 1595.85,589.311 1598.02,588.066 1600.18,586.837 1602.34,585.625 1604.5,584.429 1606.67,583.249 1608.83,582.085 1610.99,580.935 1613.15,579.802 1615.32,578.683 1617.48,577.579 1619.64,576.489 1621.8,575.415 1623.97,574.354 1626.13,573.307 1628.29,572.275 1630.45,571.256 1632.62,570.25 1634.78,569.258 1636.94,568.279 1639.1,567.313 1641.27,566.36 1643.43,565.419 1645.59,564.491 1647.75,563.575 1649.92,562.671 1652.08,561.78 1654.24,560.9 1656.41,560.032 1658.57,559.175 1660.73,558.329 1662.89,557.495 1665.06,556.672 1667.22,555.86 1669.38,555.059 1671.54,554.268 1673.71,553.488 1675.87,552.718 1678.03,551.958 1680.19,551.208 1682.36,550.469 1684.52,549.739 1686.68,549.018 1688.84,548.308 1691.01,547.606 1693.17,546.914 1695.33,546.232 1697.49,545.558 1699.66,544.893 1701.82,544.237 1703.98,544.055 1706.14,545.264 1708.31,547.751 1710.47,551.372 1712.63,555.993 1714.79,561.485 1716.96,567.727 1719.12,574.605 1721.28,582.01 1723.45,589.843 1725.61,598.009 1727.77,606.422 1729.93,615.002 1732.1,623.676 1734.26,632.378 1736.42,641.05 1738.58,649.638 1740.75,658.099 1742.91,666.393 1745.07,674.489 1747.23,682.364 1749.4,690 1751.56,697.385 1753.72,704.518 1755.88,711.4 1758.05,718.043 1760.21,724.464 1762.37,730.687 1764.53,736.743 1766.7,742.669 1768.86,748.512 1771.02,754.323 1773.18,760.161 1775.35,766.076 1777.51,771.952 1779.67,777.75 1781.83,783.471 1784,789.116 1786.16,794.686 1788.32,800.182 1790.49,805.606 1792.65,810.957 1794.81,816.238 1796.97,821.449 1799.14,826.59 1801.3,831.663 1803.46,836.67 1805.62,841.609 1807.79,846.484 1809.95,851.293 1812.11,856.04 1814.27,860.723 1816.44,865.345 1818.6,869.905 1820.76,874.405 1822.92,878.845 1825.09,883.226 1827.25,887.549 1829.41,891.815 1831.57,896.024 1833.74,900.178 1835.9,904.276 1838.06,908.32 1840.22,912.31 1842.39,916.247 1844.55,920.132 1846.71,923.965 1848.87,927.748 1851.04,931.48 1853.2,935.162 1855.36,938.796 1857.53,942.382 1859.69,945.919 1861.85,949.41 1864.01,952.855 1866.18,956.254 1868.34,959.608 1870.5,962.917 1872.66,966.182 1874.83,969.404 1876.99,972.584 1879.15,975.721 1881.31,978.817 1883.48,981.871 1885.64,984.886 1887.8,987.86 1889.96,990.795 1892.13,993.691 1894.29,996.549 1896.45,999.369 1898.61,1002.15 1900.78,1004.9 1902.94,1007.61 1905.1,1010.28 1907.26,1012.92 1909.43,1015.52 1911.59,1018.09 1913.75,1020.62 1915.91,1023.12 1918.08,1025.23 1920.24,1025.93 1922.4,1025.32 1924.57,1023.61 1926.73,1020.97 1928.89,1017.55 1931.05,1013.51 1933.22,1008.99 1935.38,1004.11 1937.54,998.992 1939.7,993.729 1941.87,988.411 1944.03,983.115 1946.19,977.905 1948.35,972.832 1950.52,967.935 1952.68,963.241 1954.84,958.764 1957,954.506 1959.17,950.456 1961.33,946.592 1963.49,942.878 1965.65,939.267 1967.82,935.699 1969.98,932.101 1972.14,928.405 1974.3,924.718 1976.47,921.079 1978.63,917.489 1980.79,913.947 1982.95,910.451 1985.12,907.002 1987.28,903.599 1989.44,900.24 1991.61,896.927 1993.77,893.657 1995.93,890.43 1998.09,887.246 2000.26,884.105 2002.42,881.005 2004.58,877.946 2006.74,874.928 2008.91,871.95 2011.07,869.011 2013.23,866.111 2015.39,863.25 2017.56,860.426 2019.72,857.64 2021.88,854.891 2024.04,852.178 2026.21,849.501 2028.37,846.86 2030.53,844.254 2032.69,841.682 2034.86,839.145 2037.02,836.641 2039.18,834.17 2041.34,831.732 2043.51,829.327 2045.67,826.953 2047.83,824.611 2049.99,822.3 2052.16,820.02 2054.32,817.77 2056.48,815.549 2058.65,813.359 2060.81,811.197 2062.97,809.064 2065.13,806.959 2067.3,804.882 2069.46,802.832 2071.62,800.81 2073.78,798.815 2075.95,796.846 2078.11,794.903 2080.27,792.985 2082.43,791.094 2084.6,789.227 2086.76,787.385 2088.92,785.567 2091.08,783.774 2093.25,782.004 2095.41,780.258 2097.57,778.535 2099.73,776.835 2101.9,775.157 2104.06,773.502 2106.22,771.868 2108.38,770.256 2110.55,768.666 2112.71,767.096 2114.87,765.513 2117.03,763.475 2119.2,761.18 2121.36,758.994 2123.52,757.209 2125.69,756.045 2127.85,755.647 2130.01,756.085 2132.17,757.357 2134.34,759.384 2136.5,762.016 2138.66,765.028 2140.82,768.12 2142.99,770.95 2145.15,773.64 2147.31,776.294 2149.47,778.913 2151.64,781.498 2153.8,784.048 2155.96,786.564 2158.12,789.047 2160.29,791.498 2162.45,793.915 2164.61,796.301 2166.77,798.655 2168.94,800.978 2171.1,803.27 2173.26,805.531 2175.42,807.763 2177.59,809.965 2179.75,812.138 2181.91,814.282 2184.07,816.397 2186.24,818.485 2188.4,820.545 2190.56,822.577 2192.73,824.583 2194.89,826.561 2197.05,828.514 2199.21,830.441 2201.38,832.342 2203.54,834.218 2205.7,836.069 2207.86,837.895 2210.03,839.698 2212.19,841.476 2214.35,843.231 2216.51,844.962 2218.68,846.671 2220.84,848.357 2223,850.021 2225.16,851.662 2227.33,853.282 2229.49,854.88 2231.65,856.458 2233.81,858.014 2235.98,859.55 2238.14,861.065 2240.3,862.56 2242.46,864.036 2244.63,865.492 2246.79,866.928 2248.95,868.346 2251.11,869.744 2253.28,871.125 2255.44,872.487 2257.6,873.83 2259.76,875.156 2261.93,876.465 2264.09,877.756 2266.25,879.03 2268.42,880.287 2270.58,881.527 2272.74,882.751 2274.9,883.959 2277.07,885.15 2279.23,886.326 2281.39,887.487 2283.55,888.631 2285.72,889.761 2287.88,890.876 2290.04,891.976 2292.2,893.061 2294.37,894.132 2296.53,895.189 2298.69,896.232 2300.85,897.261 2303.02,898.276 2305.18,899.278 2307.34,900.267 2309.5,901.242 2311.67,902.205 2313.83,903.155 2315.99,904.092 2318.15,905.017 2320.32,905.929 2322.48,906.83 2324.64,907.718 2326.8,908.595 2328.97,909.46 2331.13,910.314 2333.29,911.156 2335.46,911.987 2337.62,912.807 2339.78,913.616 2341.94,914.415 2344.11,915.203 2346.27,915.98 2348.43,916.747 2350.59,917.504 2352.76,918.251 "/>
<polyline clip-path="url(#clip902)" style="stroke:#e26f46; stroke-linecap:round; stroke-linejoin:round; stroke-width:4; stroke-opacity:1; fill:none" points="192.339,811.238 194.501,811.238 196.664,811.238 198.827,811.238 200.989,811.238 203.152,811.238 205.314,811.238 207.477,811.238 209.639,811.238 211.802,811.238 213.965,811.238 216.127,811.238 218.29,811.238 220.452,811.238 222.615,811.238 224.777,811.238 226.94,811.238 229.103,811.238 231.265,811.238 233.428,811.238 235.59,811.238 237.753,811.238 239.916,811.238 242.078,811.238 244.241,811.238 246.403,811.238 248.566,811.238 250.728,811.238 252.891,811.238 255.054,811.238 257.216,811.238 259.379,811.238 261.541,811.238 263.704,811.238 265.866,811.238 268.029,811.238 270.192,811.238 272.354,811.238 274.517,811.238 276.679,811.238 278.842,811.238 281.005,811.238 283.167,811.238 285.33,811.238 287.492,811.238 289.655,811.238 291.817,811.238 293.98,811.238 296.143,811.238 298.305,811.238 300.468,811.238 302.63,811.238 304.793,811.238 306.956,811.238 309.118,811.238 311.281,811.238 313.443,811.238 315.606,811.238 317.768,811.238 319.931,811.238 322.094,811.238 324.256,811.238 326.419,811.238 328.581,811.238 330.744,811.238 332.906,811.238 335.069,811.238 337.232,811.238 339.394,811.238 341.557,811.238 343.719,811.238 345.882,811.238 348.045,811.238 350.207,811.238 352.37,811.238 354.532,811.238 356.695,811.238 358.857,811.238 361.02,811.238 363.183,811.238 365.345,811.238 367.508,811.238 369.67,811.238 371.833,811.238 373.995,811.238 376.158,811.238 378.321,811.238 380.483,811.238 382.646,811.238 384.808,811.238 386.971,811.238 389.134,811.238 391.296,811.238 393.459,811.238 395.621,811.238 397.784,811.238 399.946,811.238 402.109,811.238 404.272,811.238 406.434,811.238 408.597,1061.32 410.759,1061.32 412.922,1061.32 415.084,1061.32 417.247,1061.32 419.41,1061.32 421.572,1061.32 423.735,1061.32 425.897,1061.32 428.06,1061.32 430.223,1061.32 432.385,1061.32 434.548,1061.32 436.71,1061.32 438.873,1061.32 441.035,1061.32 443.198,1061.32 445.361,1061.32 447.523,1061.32 449.686,1061.32 451.848,1061.32 454.011,1061.32 456.174,1061.32 458.336,1061.32 460.499,1061.32 462.661,1061.32 464.824,1061.32 466.986,1061.32 469.149,1061.32 471.312,1061.32 473.474,1061.32 475.637,1061.32 477.799,1061.32 479.962,1061.32 482.124,1061.32 484.287,1061.32 486.45,1061.32 488.612,1061.32 490.775,1061.32 492.937,1061.32 495.1,1061.32 497.263,1061.32 499.425,1061.32 501.588,1061.32 503.75,1061.32 505.913,1061.32 508.075,1061.32 510.238,1061.32 512.401,1061.32 514.563,1061.32 516.726,1061.32 518.888,1061.32 521.051,1061.32 523.213,1061.32 525.376,1061.32 527.539,1061.32 529.701,1061.32 531.864,1061.32 534.026,1061.32 536.189,1061.32 538.352,1061.32 540.514,1061.32 542.677,1061.32 544.839,1061.32 547.002,1061.32 549.164,1061.32 551.327,1061.32 553.49,1061.32 555.652,1061.32 557.815,1061.32 559.977,1061.32 562.14,1061.32 564.302,1061.32 566.465,1061.32 568.628,1061.32 570.79,1061.32 572.953,1061.32 575.115,1061.32 577.278,1061.32 579.441,1061.32 581.603,1061.32 583.766,1061.32 585.928,1061.32 588.091,1061.32 590.253,1061.32 592.416,1061.32 594.579,1061.32 596.741,1061.32 598.904,1061.32 601.066,1061.32 603.229,1061.32 605.392,1061.32 607.554,1061.32 609.717,1061.32 611.879,1061.32 614.042,1061.32 616.204,1061.32 618.367,1061.32 620.53,1061.32 622.692,1061.32 624.855,731.072 627.017,731.072 629.18,731.072 631.342,731.072 633.505,731.072 635.668,731.072 637.83,731.072 639.993,731.072 642.155,731.072 644.318,731.072 646.481,731.072 648.643,731.072 650.806,731.072 652.968,731.072 655.131,731.072 657.293,731.072 659.456,731.072 661.619,731.072 663.781,731.072 665.944,731.072 668.106,731.072 670.269,731.072 672.431,731.072 674.594,731.072 676.757,731.072 678.919,731.072 681.082,731.072 683.244,731.072 685.407,731.072 687.57,731.072 689.732,731.072 691.895,731.072 694.057,731.072 696.22,731.072 698.382,731.072 700.545,731.072 702.708,731.072 704.87,731.072 707.033,731.072 709.195,731.072 711.358,731.072 713.52,731.072 715.683,731.072 717.846,731.072 720.008,731.072 722.171,731.072 724.333,731.072 726.496,731.072 728.659,731.072 730.821,731.072 732.984,731.072 735.146,731.072 737.309,731.072 739.471,731.072 741.634,731.072 743.797,731.072 745.959,731.072 748.122,731.072 750.284,731.072 752.447,731.072 754.61,731.072 756.772,731.072 758.935,731.072 761.097,731.072 763.26,731.072 765.422,731.072 767.585,731.072 769.748,731.072 771.91,731.072 774.073,731.072 776.235,731.072 778.398,731.072 780.56,731.072 782.723,731.072 784.886,731.072 787.048,731.072 789.211,731.072 791.373,731.072 793.536,731.072 795.699,731.072 797.861,731.072 800.024,731.072 802.186,731.072 804.349,731.072 806.511,731.072 808.674,731.072 810.837,731.072 812.999,731.072 815.162,731.072 817.324,731.072 819.487,731.072 821.649,731.072 823.812,731.072 825.975,731.072 828.137,731.072 830.3,731.072 832.462,731.072 834.625,731.072 836.788,731.072 838.95,731.072 841.113,1384.24 843.275,1384.24 845.438,1384.24 847.6,1384.24 849.763,1384.24 851.926,1384.24 854.088,1384.24 856.251,1384.24 858.413,1384.24 860.576,1384.24 862.738,1384.24 864.901,1384.24 867.064,1384.24 869.226,1384.24 871.389,1384.24 873.551,1384.24 875.714,1384.24 877.877,1384.24 880.039,1384.24 882.202,1384.24 884.364,1384.24 886.527,1384.24 888.689,1384.24 890.852,1384.24 893.015,1384.24 895.177,1384.24 897.34,1384.24 899.502,1384.24 901.665,1384.24 903.828,1384.24 905.99,1384.24 908.153,1384.24 910.315,1384.24 912.478,1384.24 914.64,1384.24 916.803,1384.24 918.966,1384.24 921.128,1384.24 923.291,1384.24 925.453,1384.24 927.616,1384.24 929.778,1384.24 931.941,1384.24 934.104,1384.24 936.266,1384.24 938.429,1384.24 940.591,1384.24 942.754,1384.24 944.917,1384.24 947.079,1384.24 949.242,1384.24 951.404,1384.24 953.567,1384.24 955.729,1384.24 957.892,1384.24 960.055,1384.24 962.217,1384.24 964.38,1384.24 966.542,1384.24 968.705,1384.24 970.867,1384.24 973.03,1384.24 975.193,1384.24 977.355,1384.24 979.518,1384.24 981.68,1384.24 983.843,1384.24 986.006,1384.24 988.168,1384.24 990.331,1384.24 992.493,1384.24 994.656,1384.24 996.818,1384.24 998.981,1384.24 1001.14,1384.24 1003.31,1384.24 1005.47,1384.24 1007.63,1384.24 1009.79,1384.24 1011.96,1384.24 1014.12,1384.24 1016.28,1384.24 1018.44,1384.24 1020.61,1384.24 1022.77,1384.24 1024.93,1384.24 1027.09,1384.24 1029.26,1384.24 1031.42,1384.24 1033.58,1384.24 1035.74,1384.24 1037.91,1384.24 1040.07,1384.24 1042.23,1384.24 1044.4,1384.24 1046.56,1384.24 1048.72,1384.24 1050.88,1384.24 1053.05,1384.24 1055.21,1384.24 1057.37,86.1857 1059.53,86.1857 1061.7,86.1857 1063.86,86.1857 1066.02,86.1857 1068.18,86.1857 1070.35,86.1857 1072.51,86.1857 1074.67,86.1857 1076.83,86.1857 1079,86.1857 1081.16,86.1857 1083.32,86.1857 1085.48,86.1857 1087.65,86.1857 1089.81,86.1857 1091.97,86.1857 1094.13,86.1857 1096.3,86.1857 1098.46,86.1857 1100.62,86.1857 1102.78,86.1857 1104.95,86.1857 1107.11,86.1857 1109.27,86.1857 1111.44,86.1857 1113.6,86.1857 1115.76,86.1857 1117.92,86.1857 1120.09,86.1857 1122.25,86.1857 1124.41,86.1857 1126.57,86.1857 1128.74,86.1857 1130.9,86.1857 1133.06,86.1857 1135.22,86.1857 1137.39,86.1857 1139.55,86.1857 1141.71,86.1857 1143.87,86.1857 1146.04,86.1857 1148.2,86.1857 1150.36,86.1857 1152.52,86.1857 1154.69,86.1857 1156.85,86.1857 1159.01,86.1857 1161.17,86.1857 1163.34,86.1857 1165.5,86.1857 1167.66,86.1857 1169.82,86.1857 1171.99,86.1857 1174.15,86.1857 1176.31,86.1857 1178.48,86.1857 1180.64,86.1857 1182.8,86.1857 1184.96,86.1857 1187.13,86.1857 1189.29,86.1857 1191.45,86.1857 1193.61,86.1857 1195.78,86.1857 1197.94,86.1857 1200.1,86.1857 1202.26,86.1857 1204.43,86.1857 1206.59,86.1857 1208.75,86.1857 1210.91,86.1857 1213.08,86.1857 1215.24,86.1857 1217.4,86.1857 1219.56,86.1857 1221.73,86.1857 1223.89,86.1857 1226.05,86.1857 1228.21,86.1857 1230.38,86.1857 1232.54,86.1857 1234.7,86.1857 1236.86,86.1857 1239.03,86.1857 1241.19,86.1857 1243.35,86.1857 1245.52,86.1857 1247.68,86.1857 1249.84,86.1857 1252,86.1857 1254.17,86.1857 1256.33,86.1857 1258.49,86.1857 1260.65,86.1857 1262.82,86.1857 1264.98,86.1857 1267.14,86.1857 1269.3,86.1857 1271.47,86.1857 1273.63,789.795 1275.79,789.795 1277.95,789.795 1280.12,789.795 1282.28,789.795 1284.44,789.795 1286.6,789.795 1288.77,789.795 1290.93,789.795 1293.09,789.795 1295.25,789.795 1297.42,789.795 1299.58,789.795 1301.74,789.795 1303.9,789.795 1306.07,789.795 1308.23,789.795 1310.39,789.795 1312.56,789.795 1314.72,789.795 1316.88,789.795 1319.04,789.795 1321.21,789.795 1323.37,789.795 1325.53,789.795 1327.69,789.795 1329.86,789.795 1332.02,789.795 1334.18,789.795 1336.34,789.795 1338.51,789.795 1340.67,789.795 1342.83,789.795 1344.99,789.795 1347.16,789.795 1349.32,789.795 1351.48,789.795 1353.64,789.795 1355.81,789.795 1357.97,789.795 1360.13,789.795 1362.29,789.795 1364.46,789.795 1366.62,789.795 1368.78,789.795 1370.94,789.795 1373.11,789.795 1375.27,789.795 1377.43,789.795 1379.6,789.795 1381.76,789.795 1383.92,789.795 1386.08,789.795 1388.25,789.795 1390.41,789.795 1392.57,789.795 1394.73,789.795 1396.9,789.795 1399.06,789.795 1401.22,789.795 1403.38,789.795 1405.55,789.795 1407.71,789.795 1409.87,789.795 1412.03,789.795 1414.2,789.795 1416.36,789.795 1418.52,789.795 1420.68,789.795 1422.85,789.795 1425.01,789.795 1427.17,789.795 1429.33,789.795 1431.5,789.795 1433.66,789.795 1435.82,789.795 1437.98,789.795 1440.15,789.795 1442.31,789.795 1444.47,789.795 1446.64,789.795 1448.8,789.795 1450.96,789.795 1453.12,789.795 1455.29,789.795 1457.45,789.795 1459.61,789.795 1461.77,789.795 1463.94,789.795 1466.1,789.795 1468.26,789.795 1470.42,789.795 1472.59,789.795 1474.75,789.795 1476.91,789.795 1479.07,789.795 1481.24,789.795 1483.4,789.795 1485.56,789.795 1487.72,789.795 1489.89,495.413 1492.05,495.413 1494.21,495.413 1496.37,495.413 1498.54,495.413 1500.7,495.413 1502.86,495.413 1505.02,495.413 1507.19,495.413 1509.35,495.413 1511.51,495.413 1513.67,495.413 1515.84,495.413 1518,495.413 1520.16,495.413 1522.33,495.413 1524.49,495.413 1526.65,495.413 1528.81,495.413 1530.98,495.413 1533.14,495.413 1535.3,495.413 1537.46,495.413 1539.63,495.413 1541.79,495.413 1543.95,495.413 1546.11,495.413 1548.28,495.413 1550.44,495.413 1552.6,495.413 1554.76,495.413 1556.93,495.413 1559.09,495.413 1561.25,495.413 1563.41,495.413 1565.58,495.413 1567.74,495.413 1569.9,495.413 1572.06,495.413 1574.23,495.413 1576.39,495.413 1578.55,495.413 1580.71,495.413 1582.88,495.413 1585.04,495.413 1587.2,495.413 1589.37,495.413 1591.53,495.413 1593.69,495.413 1595.85,495.413 1598.02,495.413 1600.18,495.413 1602.34,495.413 1604.5,495.413 1606.67,495.413 1608.83,495.413 1610.99,495.413 1613.15,495.413 1615.32,495.413 1617.48,495.413 1619.64,495.413 1621.8,495.413 1623.97,495.413 1626.13,495.413 1628.29,495.413 1630.45,495.413 1632.62,495.413 1634.78,495.413 1636.94,495.413 1639.1,495.413 1641.27,495.413 1643.43,495.413 1645.59,495.413 1647.75,495.413 1649.92,495.413 1652.08,495.413 1654.24,495.413 1656.41,495.413 1658.57,495.413 1660.73,495.413 1662.89,495.413 1665.06,495.413 1667.22,495.413 1669.38,495.413 1671.54,495.413 1673.71,495.413 1675.87,495.413 1678.03,495.413 1680.19,495.413 1682.36,495.413 1684.52,495.413 1686.68,495.413 1688.84,495.413 1691.01,495.413 1693.17,495.413 1695.33,495.413 1697.49,495.413 1699.66,495.413 1701.82,495.413 1703.98,495.413 1706.14,1209.26 1708.31,1209.26 1710.47,1209.26 1712.63,1209.26 1714.79,1209.26 1716.96,1209.26 1719.12,1209.26 1721.28,1209.26 1723.45,1209.26 1725.61,1209.26 1727.77,1209.26 1729.93,1209.26 1732.1,1209.26 1734.26,1209.26 1736.42,1209.26 1738.58,1209.26 1740.75,1209.26 1742.91,1209.26 1745.07,1209.26 1747.23,1209.26 1749.4,1209.26 1751.56,1209.26 1753.72,1209.26 1755.88,1209.26 1758.05,1209.26 1760.21,1209.26 1762.37,1209.26 1764.53,1209.26 1766.7,1209.26 1768.86,1209.26 1771.02,1209.26 1773.18,1209.26 1775.35,1209.26 1777.51,1209.26 1779.67,1209.26 1781.83,1209.26 1784,1209.26 1786.16,1209.26 1788.32,1209.26 1790.49,1209.26 1792.65,1209.26 1794.81,1209.26 1796.97,1209.26 1799.14,1209.26 1801.3,1209.26 1803.46,1209.26 1805.62,1209.26 1807.79,1209.26 1809.95,1209.26 1812.11,1209.26 1814.27,1209.26 1816.44,1209.26 1818.6,1209.26 1820.76,1209.26 1822.92,1209.26 1825.09,1209.26 1827.25,1209.26 1829.41,1209.26 1831.57,1209.26 1833.74,1209.26 1835.9,1209.26 1838.06,1209.26 1840.22,1209.26 1842.39,1209.26 1844.55,1209.26 1846.71,1209.26 1848.87,1209.26 1851.04,1209.26 1853.2,1209.26 1855.36,1209.26 1857.53,1209.26 1859.69,1209.26 1861.85,1209.26 1864.01,1209.26 1866.18,1209.26 1868.34,1209.26 1870.5,1209.26 1872.66,1209.26 1874.83,1209.26 1876.99,1209.26 1879.15,1209.26 1881.31,1209.26 1883.48,1209.26 1885.64,1209.26 1887.8,1209.26 1889.96,1209.26 1892.13,1209.26 1894.29,1209.26 1896.45,1209.26 1898.61,1209.26 1900.78,1209.26 1902.94,1209.26 1905.1,1209.26 1907.26,1209.26 1909.43,1209.26 1911.59,1209.26 1913.75,1209.26 1915.91,1209.26 1918.08,1209.26 1920.24,1209.26 1922.4,650.293 1924.57,650.293 1926.73,650.293 1928.89,650.293 1931.05,650.293 1933.22,650.293 1935.38,650.293 1937.54,650.293 1939.7,650.293 1941.87,650.293 1944.03,650.293 1946.19,650.293 1948.35,650.293 1950.52,650.293 1952.68,650.293 1954.84,650.293 1957,650.293 1959.17,650.293 1961.33,650.293 1963.49,650.293 1965.65,650.293 1967.82,650.293 1969.98,650.293 1972.14,650.293 1974.3,650.293 1976.47,650.293 1978.63,650.293 1980.79,650.293 1982.95,650.293 1985.12,650.293 1987.28,650.293 1989.44,650.293 1991.61,650.293 1993.77,650.293 1995.93,650.293 1998.09,650.293 2000.26,650.293 2002.42,650.293 2004.58,650.293 2006.74,650.293 2008.91,650.293 2011.07,650.293 2013.23,650.293 2015.39,650.293 2017.56,650.293 2019.72,650.293 2021.88,650.293 2024.04,650.293 2026.21,650.293 2028.37,650.293 2030.53,650.293 2032.69,650.293 2034.86,650.293 2037.02,650.293 2039.18,650.293 2041.34,650.293 2043.51,650.293 2045.67,650.293 2047.83,650.293 2049.99,650.293 2052.16,650.293 2054.32,650.293 2056.48,650.293 2058.65,650.293 2060.81,650.293 2062.97,650.293 2065.13,650.293 2067.3,650.293 2069.46,650.293 2071.62,650.293 2073.78,650.293 2075.95,650.293 2078.11,650.293 2080.27,650.293 2082.43,650.293 2084.6,650.293 2086.76,650.293 2088.92,650.293 2091.08,650.293 2093.25,650.293 2095.41,650.293 2097.57,650.293 2099.73,650.293 2101.9,650.293 2104.06,650.293 2106.22,650.293 2108.38,650.293 2110.55,650.293 2112.71,650.293 2114.87,650.293 2117.03,650.293 2119.2,650.293 2121.36,650.293 2123.52,650.293 2125.69,650.293 2127.85,650.293 2130.01,650.293 2132.17,650.293 2134.34,650.293 2136.5,650.293 2138.66,973.844 2140.82,973.844 2142.99,973.844 2145.15,973.844 2147.31,973.844 2149.47,973.844 2151.64,973.844 2153.8,973.844 2155.96,973.844 2158.12,973.844 2160.29,973.844 2162.45,973.844 2164.61,973.844 2166.77,973.844 2168.94,973.844 2171.1,973.844 2173.26,973.844 2175.42,973.844 2177.59,973.844 2179.75,973.844 2181.91,973.844 2184.07,973.844 2186.24,973.844 2188.4,973.844 2190.56,973.844 2192.73,973.844 2194.89,973.844 2197.05,973.844 2199.21,973.844 2201.38,973.844 2203.54,973.844 2205.7,973.844 2207.86,973.844 2210.03,973.844 2212.19,973.844 2214.35,973.844 2216.51,973.844 2218.68,973.844 2220.84,973.844 2223,973.844 2225.16,973.844 2227.33,973.844 2229.49,973.844 2231.65,973.844 2233.81,973.844 2235.98,973.844 2238.14,973.844 2240.3,973.844 2242.46,973.844 2244.63,973.844 2246.79,973.844 2248.95,973.844 2251.11,973.844 2253.28,973.844 2255.44,973.844 2257.6,973.844 2259.76,973.844 2261.93,973.844 2264.09,973.844 2266.25,973.844 2268.42,973.844 2270.58,973.844 2272.74,973.844 2274.9,973.844 2277.07,973.844 2279.23,973.844 2281.39,973.844 2283.55,973.844 2285.72,973.844 2287.88,973.844 2290.04,973.844 2292.2,973.844 2294.37,973.844 2296.53,973.844 2298.69,973.844 2300.85,973.844 2303.02,973.844 2305.18,973.844 2307.34,973.844 2309.5,973.844 2311.67,973.844 2313.83,973.844 2315.99,973.844 2318.15,973.844 2320.32,973.844 2322.48,973.844 2324.64,973.844 2326.8,973.844 2328.97,973.844 2331.13,973.844 2333.29,973.844 2335.46,973.844 2337.62,973.844 2339.78,973.844 2341.94,973.844 2344.11,973.844 2346.27,973.844 2348.43,973.844 2350.59,973.844 2352.76,973.844 "/>
<path clip-path="url(#clip900)" d="M2039.56 248.629 L2280.74 248.629 L2280.74 93.1086 L2039.56 93.1086  Z" fill="#ffffff" fill-rule="evenodd" fill-opacity="1"/>
<polyline clip-path="url(#clip900)" style="stroke:#000000; stroke-linecap:round; stroke-linejoin:round; stroke-width:4; stroke-opacity:1; fill:none" points="2039.56,248.629 2280.74,248.629 2280.74,93.1086 2039.56,93.1086 2039.56,248.629 "/>
<polyline clip-path="url(#clip900)" style="stroke:#009af9; stroke-linecap:round; stroke-linejoin:round; stroke-width:4; stroke-opacity:1; fill:none" points="2063.57,144.949 2207.59,144.949 "/>
<path clip-path="url(#clip900)" d="M2256.25 136.303 L2246.88 148.919 L2256.74 162.229 L2251.71 162.229 L2244.17 152.043 L2236.62 162.229 L2231.6 162.229 L2241.67 148.664 L2232.46 136.303 L2237.48 136.303 L2244.35 145.539 L2251.23 136.303 L2256.25 136.303 Z" fill="#000000" fill-rule="nonzero" fill-opacity="1" /><polyline clip-path="url(#clip900)" style="stroke:#e26f46; stroke-linecap:round; stroke-linejoin:round; stroke-width:4; stroke-opacity:1; fill:none" points="2063.57,196.789 2207.59,196.789 "/>
<path clip-path="url(#clip900)" d="M2248.1 178.05 L2248.1 181.592 L2244.03 181.592 Q2241.74 181.592 2240.83 182.518 Q2239.96 183.444 2239.96 185.851 L2239.96 188.143 L2246.97 188.143 L2246.97 191.453 L2239.96 191.453 L2239.96 214.069 L2235.67 214.069 L2235.67 191.453 L2231.6 191.453 L2231.6 188.143 L2235.67 188.143 L2235.67 186.337 Q2235.67 182.009 2237.69 180.041 Q2239.7 178.05 2244.08 178.05 L2248.1 178.05 Z" fill="#000000" fill-rule="nonzero" fill-opacity="1" /></svg>
