<?xml version="1.0" encoding="utf-8"?>
<svg xmlns="http://www.w3.org/2000/svg" xmlns:xlink="http://www.w3.org/1999/xlink" width="600" height="400" viewBox="0 0 2400 1600">
<defs>
  <clipPath id="clip160">
    <rect x="0" y="0" width="2400" height="1600"/>
  </clipPath>
</defs>
<path clip-path="url(#clip160)" d="M0 1600 L2400 1600 L2400 0 L0 0  Z" fill="#ffffff" fill-rule="evenodd" fill-opacity="1"/>
<defs>
  <clipPath id="clip161">
    <rect x="480" y="0" width="1681" height="1600"/>
  </clipPath>
</defs>
<path clip-path="url(#clip160)" d="M147.478 1423.18 L2352.76 1423.18 L2352.76 47.2441 L147.478 47.2441  Z" fill="#ffffff" fill-rule="evenodd" fill-opacity="1"/>
<defs>
  <clipPath id="clip162">
    <rect x="147" y="47" width="2206" height="1377"/>
  </clipPath>
</defs>
<polyline clip-path="url(#clip162)" style="stroke:#000000; stroke-linecap:round; stroke-linejoin:round; stroke-width:2; stroke-opacity:0.1; fill:none" points="147.478,1423.18 147.478,47.2441 "/>
<polyline clip-path="url(#clip162)" style="stroke:#000000; stroke-linecap:round; stroke-linejoin:round; stroke-width:2; stroke-opacity:0.1; fill:none" points="588.534,1423.18 588.534,47.2441 "/>
<polyline clip-path="url(#clip162)" style="stroke:#000000; stroke-linecap:round; stroke-linejoin:round; stroke-width:2; stroke-opacity:0.1; fill:none" points="1029.59,1423.18 1029.59,47.2441 "/>
<polyline clip-path="url(#clip162)" style="stroke:#000000; stroke-linecap:round; stroke-linejoin:round; stroke-width:2; stroke-opacity:0.1; fill:none" points="1470.64,1423.18 1470.64,47.2441 "/>
<polyline clip-path="url(#clip162)" style="stroke:#000000; stroke-linecap:round; stroke-linejoin:round; stroke-width:2; stroke-opacity:0.1; fill:none" points="1911.7,1423.18 1911.7,47.2441 "/>
<polyline clip-path="url(#clip162)" style="stroke:#000000; stroke-linecap:round; stroke-linejoin:round; stroke-width:2; stroke-opacity:0.1; fill:none" points="2352.76,1423.18 2352.76,47.2441 "/>
<polyline clip-path="url(#clip160)" style="stroke:#000000; stroke-linecap:round; stroke-linejoin:round; stroke-width:4; stroke-opacity:1; fill:none" points="147.478,1423.18 2352.76,1423.18 "/>
<polyline clip-path="url(#clip160)" style="stroke:#000000; stroke-linecap:round; stroke-linejoin:round; stroke-width:4; stroke-opacity:1; fill:none" points="147.478,1423.18 147.478,1404.28 "/>
<polyline clip-path="url(#clip160)" style="stroke:#000000; stroke-linecap:round; stroke-linejoin:round; stroke-width:4; stroke-opacity:1; fill:none" points="588.534,1423.18 588.534,1404.28 "/>
<polyline clip-path="url(#clip160)" style="stroke:#000000; stroke-linecap:round; stroke-linejoin:round; stroke-width:4; stroke-opacity:1; fill:none" points="1029.59,1423.18 1029.59,1404.28 "/>
<polyline clip-path="url(#clip160)" style="stroke:#000000; stroke-linecap:round; stroke-linejoin:round; stroke-width:4; stroke-opacity:1; fill:none" points="1470.64,1423.18 1470.64,1404.28 "/>
<polyline clip-path="url(#clip160)" style="stroke:#000000; stroke-linecap:round; stroke-linejoin:round; stroke-width:4; stroke-opacity:1; fill:none" points="1911.7,1423.18 1911.7,1404.28 "/>
<polyline clip-path="url(#clip160)" style="stroke:#000000; stroke-linecap:round; stroke-linejoin:round; stroke-width:4; stroke-opacity:1; fill:none" points="2352.76,1423.18 2352.76,1404.28 "/>
<path clip-path="url(#clip160)" d="M147.478 1454.1 Q143.867 1454.1 142.038 1457.66 Q140.233 1461.2 140.233 1468.33 Q140.233 1475.44 142.038 1479.01 Q143.867 1482.55 147.478 1482.55 Q151.112 1482.55 152.918 1479.01 Q154.746 1475.44 154.746 1468.33 Q154.746 1461.2 152.918 1457.66 Q151.112 1454.1 147.478 1454.1 M147.478 1450.39 Q153.288 1450.39 156.344 1455 Q159.422 1459.58 159.422 1468.33 Q159.422 1477.06 156.344 1481.67 Q153.288 1486.25 147.478 1486.25 Q141.668 1486.25 138.589 1481.67 Q135.534 1477.06 135.534 1468.33 Q135.534 1459.58 138.589 1455 Q141.668 1450.39 147.478 1450.39 Z" fill="#000000" fill-rule="nonzero" fill-opacity="1" /><path clip-path="url(#clip160)" d="M583.186 1481.64 L599.506 1481.64 L599.506 1485.58 L577.561 1485.58 L577.561 1481.64 Q580.223 1478.89 584.807 1474.26 Q589.413 1469.61 590.594 1468.27 Q592.839 1465.74 593.719 1464.01 Q594.621 1462.25 594.621 1460.56 Q594.621 1457.8 592.677 1456.07 Q590.756 1454.33 587.654 1454.33 Q585.455 1454.33 583.001 1455.09 Q580.571 1455.86 577.793 1457.41 L577.793 1452.69 Q580.617 1451.55 583.071 1450.97 Q585.524 1450.39 587.561 1450.39 Q592.932 1450.39 596.126 1453.08 Q599.32 1455.77 599.32 1460.26 Q599.32 1462.39 598.51 1464.31 Q597.723 1466.2 595.617 1468.8 Q595.038 1469.47 591.936 1472.69 Q588.834 1475.88 583.186 1481.64 Z" fill="#000000" fill-rule="nonzero" fill-opacity="1" /><path clip-path="url(#clip160)" d="M1032.6 1455.09 L1020.79 1473.54 L1032.6 1473.54 L1032.6 1455.09 M1031.37 1451.02 L1037.25 1451.02 L1037.25 1473.54 L1042.18 1473.54 L1042.18 1477.43 L1037.25 1477.43 L1037.25 1485.58 L1032.6 1485.58 L1032.6 1477.43 L1017 1477.43 L1017 1472.92 L1031.37 1451.02 Z" fill="#000000" fill-rule="nonzero" fill-opacity="1" /><path clip-path="url(#clip160)" d="M1471.05 1466.44 Q1467.9 1466.44 1466.05 1468.59 Q1464.22 1470.74 1464.22 1474.49 Q1464.22 1478.22 1466.05 1480.39 Q1467.9 1482.55 1471.05 1482.55 Q1474.2 1482.55 1476.03 1480.39 Q1477.88 1478.22 1477.88 1474.49 Q1477.88 1470.74 1476.03 1468.59 Q1474.2 1466.44 1471.05 1466.44 M1480.33 1451.78 L1480.33 1456.04 Q1478.57 1455.21 1476.77 1454.77 Q1474.98 1454.33 1473.23 1454.33 Q1468.6 1454.33 1466.14 1457.45 Q1463.71 1460.58 1463.36 1466.9 Q1464.73 1464.89 1466.79 1463.82 Q1468.85 1462.73 1471.33 1462.73 Q1476.54 1462.73 1479.55 1465.9 Q1482.58 1469.05 1482.58 1474.49 Q1482.58 1479.82 1479.43 1483.03 Q1476.28 1486.25 1471.05 1486.25 Q1465.05 1486.25 1461.88 1481.67 Q1458.71 1477.06 1458.71 1468.33 Q1458.71 1460.14 1462.6 1455.28 Q1466.49 1450.39 1473.04 1450.39 Q1474.8 1450.39 1476.58 1450.74 Q1478.39 1451.09 1480.33 1451.78 Z" fill="#000000" fill-rule="nonzero" fill-opacity="1" /><path clip-path="url(#clip160)" d="M1911.7 1469.17 Q1908.37 1469.17 1906.45 1470.95 Q1904.55 1472.73 1904.55 1475.86 Q1904.55 1478.98 1906.45 1480.77 Q1908.37 1482.55 1911.7 1482.55 Q1915.03 1482.55 1916.95 1480.77 Q1918.88 1478.96 1918.88 1475.86 Q1918.88 1472.73 1916.95 1470.95 Q1915.06 1469.17 1911.7 1469.17 M1907.02 1467.18 Q1904.02 1466.44 1902.33 1464.38 Q1900.66 1462.32 1900.66 1459.35 Q1900.66 1455.21 1903.6 1452.8 Q1906.56 1450.39 1911.7 1450.39 Q1916.86 1450.39 1919.8 1452.8 Q1922.74 1455.21 1922.74 1459.35 Q1922.74 1462.32 1921.05 1464.38 Q1919.39 1466.44 1916.4 1467.18 Q1919.78 1467.96 1921.65 1470.26 Q1923.55 1472.55 1923.55 1475.86 Q1923.55 1480.88 1920.47 1483.57 Q1917.42 1486.25 1911.7 1486.25 Q1905.98 1486.25 1902.9 1483.57 Q1899.85 1480.88 1899.85 1475.86 Q1899.85 1472.55 1901.75 1470.26 Q1903.64 1467.96 1907.02 1467.18 M1905.31 1459.79 Q1905.31 1462.48 1906.98 1463.98 Q1908.67 1465.49 1911.7 1465.49 Q1914.71 1465.49 1916.4 1463.98 Q1918.11 1462.48 1918.11 1459.79 Q1918.11 1457.11 1916.4 1455.6 Q1914.71 1454.1 1911.7 1454.1 Q1908.67 1454.1 1906.98 1455.6 Q1905.31 1457.11 1905.31 1459.79 Z" fill="#000000" fill-rule="nonzero" fill-opacity="1" /><path clip-path="url(#clip160)" d="M2327.44 1481.64 L2335.08 1481.64 L2335.08 1455.28 L2326.77 1456.95 L2326.77 1452.69 L2335.04 1451.02 L2339.71 1451.02 L2339.71 1481.64 L2347.35 1481.64 L2347.35 1485.58 L2327.44 1485.58 L2327.44 1481.64 Z" fill="#000000" fill-rule="nonzero" fill-opacity="1" /><path clip-path="url(#clip160)" d="M2366.8 1454.1 Q2363.18 1454.1 2361.36 1457.66 Q2359.55 1461.2 2359.55 1468.33 Q2359.55 1475.44 2361.36 1479.01 Q2363.18 1482.55 2366.8 1482.55 Q2370.43 1482.55 2372.23 1479.01 Q2374.06 1475.44 2374.06 1468.33 Q2374.06 1461.2 2372.23 1457.66 Q2370.43 1454.1 2366.8 1454.1 M2366.8 1450.39 Q2372.61 1450.39 2375.66 1455 Q2378.74 1459.58 2378.74 1468.33 Q2378.74 1477.06 2375.66 1481.67 Q2372.61 1486.25 2366.8 1486.25 Q2360.99 1486.25 2357.91 1481.67 Q2354.85 1477.06 2354.85 1468.33 Q2354.85 1459.58 2357.91 1455 Q2360.99 1450.39 2366.8 1450.39 Z" fill="#000000" fill-rule="nonzero" fill-opacity="1" /><path clip-path="url(#clip160)" d="M1249.18 1522.27 L1249.18 1532.4 L1261.24 1532.4 L1261.24 1536.95 L1249.18 1536.95 L1249.18 1556.3 Q1249.18 1560.66 1250.36 1561.9 Q1251.57 1563.14 1255.23 1563.14 L1261.24 1563.14 L1261.24 1568.04 L1255.23 1568.04 Q1248.45 1568.04 1245.87 1565.53 Q1243.29 1562.98 1243.29 1556.3 L1243.29 1536.95 L1238.99 1536.95 L1238.99 1532.4 L1243.29 1532.4 L1243.29 1522.27 L1249.18 1522.27 Z" fill="#000000" fill-rule="nonzero" fill-opacity="1" /><polyline clip-path="url(#clip162)" style="stroke:#000000; stroke-linecap:round; stroke-linejoin:round; stroke-width:2; stroke-opacity:0.1; fill:none" points="147.478,1410.99 2352.76,1410.99 "/>
<polyline clip-path="url(#clip162)" style="stroke:#000000; stroke-linecap:round; stroke-linejoin:round; stroke-width:2; stroke-opacity:0.1; fill:none" points="147.478,998.82 2352.76,998.82 "/>
<polyline clip-path="url(#clip162)" style="stroke:#000000; stroke-linecap:round; stroke-linejoin:round; stroke-width:2; stroke-opacity:0.1; fill:none" points="147.478,586.647 2352.76,586.647 "/>
<polyline clip-path="url(#clip162)" style="stroke:#000000; stroke-linecap:round; stroke-linejoin:round; stroke-width:2; stroke-opacity:0.1; fill:none" points="147.478,174.474 2352.76,174.474 "/>
<polyline clip-path="url(#clip160)" style="stroke:#000000; stroke-linecap:round; stroke-linejoin:round; stroke-width:4; stroke-opacity:1; fill:none" points="147.478,1423.18 147.478,47.2441 "/>
<polyline clip-path="url(#clip160)" style="stroke:#000000; stroke-linecap:round; stroke-linejoin:round; stroke-width:4; stroke-opacity:1; fill:none" points="147.478,1410.99 166.376,1410.99 "/>
<polyline clip-path="url(#clip160)" style="stroke:#000000; stroke-linecap:round; stroke-linejoin:round; stroke-width:4; stroke-opacity:1; fill:none" points="147.478,998.82 166.376,998.82 "/>
<polyline clip-path="url(#clip160)" style="stroke:#000000; stroke-linecap:round; stroke-linejoin:round; stroke-width:4; stroke-opacity:1; fill:none" points="147.478,586.647 166.376,586.647 "/>
<polyline clip-path="url(#clip160)" style="stroke:#000000; stroke-linecap:round; stroke-linejoin:round; stroke-width:4; stroke-opacity:1; fill:none" points="147.478,174.474 166.376,174.474 "/>
<path clip-path="url(#clip160)" d="M50.9921 1411.45 L80.6679 1411.45 L80.6679 1415.38 L50.9921 1415.38 L50.9921 1411.45 Z" fill="#000000" fill-rule="nonzero" fill-opacity="1" /><path clip-path="url(#clip160)" d="M91.5706 1424.34 L99.2095 1424.34 L99.2095 1397.97 L90.8993 1399.64 L90.8993 1395.38 L99.1632 1393.71 L103.839 1393.71 L103.839 1424.34 L111.478 1424.34 L111.478 1428.27 L91.5706 1428.27 L91.5706 1424.34 Z" fill="#000000" fill-rule="nonzero" fill-opacity="1" /><path clip-path="url(#clip160)" d="M99.5335 984.619 Q95.9224 984.619 94.0937 988.184 Q92.2882 991.726 92.2882 998.855 Q92.2882 1005.96 94.0937 1009.53 Q95.9224 1013.07 99.5335 1013.07 Q103.168 1013.07 104.973 1009.53 Q106.802 1005.96 106.802 998.855 Q106.802 991.726 104.973 988.184 Q103.168 984.619 99.5335 984.619 M99.5335 980.915 Q105.344 980.915 108.399 985.522 Q111.478 990.105 111.478 998.855 Q111.478 1007.58 108.399 1012.19 Q105.344 1016.77 99.5335 1016.77 Q93.7234 1016.77 90.6447 1012.19 Q87.5892 1007.58 87.5892 998.855 Q87.5892 990.105 90.6447 985.522 Q93.7234 980.915 99.5335 980.915 Z" fill="#000000" fill-rule="nonzero" fill-opacity="1" /><path clip-path="url(#clip160)" d="M91.5706 599.992 L99.2095 599.992 L99.2095 573.627 L90.8993 575.293 L90.8993 571.034 L99.1632 569.367 L103.839 569.367 L103.839 599.992 L111.478 599.992 L111.478 603.927 L91.5706 603.927 L91.5706 599.992 Z" fill="#000000" fill-rule="nonzero" fill-opacity="1" /><path clip-path="url(#clip160)" d="M95.1586 187.819 L111.478 187.819 L111.478 191.754 L89.5336 191.754 L89.5336 187.819 Q92.1956 185.064 96.7789 180.435 Q101.385 175.782 102.566 174.439 Q104.811 171.916 105.691 170.18 Q106.594 168.421 106.594 166.731 Q106.594 163.976 104.649 162.24 Q102.728 160.504 99.6261 160.504 Q97.4271 160.504 94.9734 161.268 Q92.5428 162.032 89.7651 163.583 L89.7651 158.861 Q92.5891 157.727 95.0428 157.148 Q97.4965 156.569 99.5335 156.569 Q104.904 156.569 108.098 159.254 Q111.293 161.939 111.293 166.43 Q111.293 168.56 110.483 170.481 Q109.696 172.379 107.589 174.972 Q107.01 175.643 103.909 178.861 Q100.807 182.055 95.1586 187.819 Z" fill="#000000" fill-rule="nonzero" fill-opacity="1" /><polyline clip-path="url(#clip162)" style="stroke:#009af9; stroke-linecap:round; stroke-linejoin:round; stroke-width:4; stroke-opacity:1; fill:none" points="147.478,998.82 149.685,986.721 151.893,974.781 154.1,963 156.308,951.376 158.515,939.905 160.723,928.586 162.93,917.418 165.138,906.397 167.345,895.523 169.553,884.793 171.76,874.205 173.968,863.757 176.175,853.448 178.383,843.276 180.59,833.238 182.798,823.334 185.005,813.561 187.213,803.917 189.42,794.402 191.628,785.012 193.835,775.747 196.043,766.605 198.25,757.584 200.458,748.682 202.665,739.899 204.873,731.232 207.08,722.68 209.288,714.241 211.495,705.915 213.702,697.698 215.91,689.591 218.117,681.591 220.325,673.697 222.532,665.908 224.74,658.222 226.947,650.638 229.155,643.154 231.362,635.77 233.57,628.483 235.777,621.294 237.985,614.199 240.192,607.199 242.4,600.291 244.607,593.475 246.815,586.749 249.022,580.113 251.23,573.564 253.437,567.103 255.645,560.727 257.852,554.435 260.06,548.227 262.267,542.102 264.475,536.057 266.682,530.093 268.89,524.207 271.097,518.4 273.305,512.67 275.512,507.015 277.72,501.436 279.927,495.931 282.135,490.498 284.342,485.138 286.549,479.848 288.757,474.629 290.964,469.479 293.172,464.397 295.379,459.383 297.587,454.435 299.794,449.553 302.002,444.735 304.209,439.981 306.417,435.291 308.624,430.662 310.832,426.095 313.039,421.589 315.247,417.142 317.454,412.755 319.662,408.425 321.869,404.153 324.077,399.937 326.284,395.778 328.492,391.673 330.699,387.623 332.907,383.626 335.114,379.683 337.322,375.792 339.529,371.952 341.737,368.164 343.944,364.425 346.152,360.736 348.359,357.096 350.567,353.493 352.774,348.766 354.982,343.261 357.189,338.319 359.397,334.944 361.604,333.8 363.811,335.216 366.019,339.179 368.226,345.34 370.434,353.012 372.641,361.169 374.849,368.628 377.056,375.774 379.264,382.826 381.471,389.783 383.679,396.649 385.886,403.423 388.094,410.108 390.301,416.704 392.509,423.213 394.716,429.636 396.924,435.973 399.131,442.226 401.339,448.397 403.546,454.485 405.754,460.493 407.961,466.421 410.169,472.271 412.376,478.043 414.584,483.738 416.791,489.358 418.999,494.903 421.206,500.375 423.414,505.774 425.621,511.102 427.829,516.358 430.036,521.546 432.244,526.664 434.451,531.714 436.659,536.698 438.866,541.615 441.073,546.468 443.281,551.255 445.488,555.98 447.696,560.642 449.903,565.242 452.111,569.781 454.318,574.26 456.526,578.68 458.733,583.041 460.941,587.344 463.148,591.59 465.356,595.78 467.563,599.915 469.771,603.994 471.978,608.02 474.186,611.992 476.393,615.911 478.601,619.779 480.808,623.595 483.016,627.361 485.223,631.076 487.431,634.743 489.638,638.361 491.846,641.93 494.053,645.453 496.261,648.929 498.468,652.358 500.676,655.742 502.883,659.082 505.091,662.377 507.298,665.628 509.506,668.836 511.713,672.002 513.921,675.126 516.128,678.208 518.335,681.25 520.543,684.251 522.75,687.212 524.958,690.134 527.165,693.018 529.373,695.863 531.58,698.671 533.788,701.441 535.995,704.175 538.203,706.872 540.41,709.533 542.618,712.16 544.825,714.751 547.033,717.308 549.24,719.831 551.448,722.321 553.655,724.778 555.863,727.202 558.07,729.594 560.278,731.954 562.485,734.283 564.693,736.581 566.9,738.848 569.108,741.086 571.315,743.294 573.523,745.472 575.73,747.622 577.938,749.743 580.145,751.836 582.353,753.901 584.56,755.939 586.768,757.95 588.975,760.174 591.182,763.225 593.39,767.045 595.597,771.539 597.805,776.616 600.012,782.191 602.22,788.184 604.427,794.519 606.635,801.127 608.842,807.943 611.05,814.906 613.257,821.962 615.465,829.061 617.672,836.158 619.88,843.213 622.087,850.191 624.295,857.063 626.502,863.805 628.71,870.396 630.917,876.822 633.125,883.073 635.332,889.146 637.54,895.04 639.747,900.761 641.955,906.321 644.162,911.734 646.37,917.022 648.577,922.21 650.785,927.33 652.992,932.416 655.2,937.511 657.407,942.622 659.615,947.67 661.822,952.652 664.03,957.567 666.237,962.417 668.444,967.202 670.652,971.925 672.859,976.584 675.067,981.182 677.274,985.719 679.482,990.196 681.689,994.613 683.897,998.972 686.104,1003.27 688.312,1007.52 690.519,1011.7 692.727,1015.84 694.934,1019.91 697.142,1023.94 699.349,1027.91 701.557,1031.82 703.764,1035.69 705.972,1039.5 708.179,1043.27 710.387,1046.98 712.594,1050.65 714.802,1054.26 717.009,1057.83 719.217,1061.35 721.424,1064.83 723.632,1068.26 725.839,1071.64 728.047,1074.98 730.254,1078.27 732.462,1081.52 734.669,1084.73 736.877,1087.89 739.084,1091.01 741.292,1094.09 743.499,1097.13 745.706,1100.13 747.914,1103.09 750.121,1106.01 752.329,1108.89 754.536,1111.74 756.744,1114.54 758.951,1117.31 761.159,1120.04 763.366,1122.74 765.574,1125.4 767.781,1128.02 769.989,1130.61 772.196,1133.17 774.404,1135.69 776.611,1138.18 778.819,1140.63 781.026,1143.07 783.234,1145.5 785.441,1147.91 787.649,1150.32 789.856,1152.7 792.064,1155.05 794.271,1157.37 796.479,1159.65 798.686,1161.89 800.894,1164.09 803.101,1166.24 805.309,1168.33 807.516,1170.37 809.724,1172.36 811.931,1174.28 814.139,1176.15 816.346,1177.96 818.553,1179.71 820.761,1181.4 822.968,1183.03 825.176,1184.61 827.383,1186.13 829.591,1187.59 831.798,1189.01 834.006,1190.38 836.213,1191.7 838.421,1192.98 840.628,1194.23 842.836,1195.44 845.043,1196.63 847.251,1197.8 849.458,1198.95 851.666,1200.1 853.873,1201.24 856.081,1202.39 858.288,1203.52 860.496,1204.64 862.703,1205.74 864.911,1206.83 867.118,1207.9 869.326,1208.96 871.533,1210 873.741,1211.03 875.948,1212.05 878.156,1213.06 880.363,1214.05 882.571,1215.02 884.778,1215.99 886.986,1216.94 889.193,1217.88 891.401,1218.81 893.608,1219.72 895.815,1220.62 898.023,1221.51 900.23,1222.39 902.438,1223.26 904.645,1224.12 906.853,1224.96 909.06,1225.79 911.268,1226.61 913.475,1227.43 915.683,1228.23 917.89,1229.02 920.098,1229.79 922.305,1230.56 924.513,1231.32 926.72,1232.07 928.928,1232.81 931.135,1233.54 933.343,1234.26 935.55,1234.97 937.758,1235.67 939.965,1236.36 942.173,1237.04 944.38,1237.71 946.588,1238.38 948.795,1239.03 951.003,1239.68 953.21,1240.32 955.418,1240.95 957.625,1241.57 959.833,1242.18 962.04,1242.78 964.248,1243.38 966.455,1243.97 968.663,1244.55 970.87,1245.12 973.077,1245.69 975.285,1246.25 977.492,1246.8 979.7,1247.34 981.907,1247.87 984.115,1248.34 986.322,1248.74 988.53,1249.09 990.737,1249.39 992.945,1249.67 995.152,1249.93 997.36,1250.19 999.567,1250.46 1001.77,1250.74 1003.98,1251.04 1006.19,1251.38 1008.4,1251.75 1010.6,1252.18 1012.81,1252.65 1015.02,1253.18 1017.23,1253.78 1019.43,1254.43 1021.64,1255.16 1023.85,1255.95 1026.06,1256.82 1028.26,1257.75 1030.47,1258.76 1032.68,1259.84 1034.89,1260.98 1037.09,1262.19 1039.3,1263.46 1041.51,1264.79 1043.72,1266.18 1045.92,1267.61 1048.13,1269.08 1050.34,1270.58 1052.55,1272.11 1054.75,1273.66 1056.96,1275.21 1059.17,1276.77 1061.38,1278.31 1063.58,1279.82 1065.79,1281.3 1068,1282.72 1070.21,1284.08 1072.41,1285.41 1074.62,1286.72 1076.83,1288.01 1079.04,1289.29 1081.24,1290.55 1083.45,1291.79 1085.66,1293.02 1087.87,1294.22 1090.07,1295.42 1092.28,1296.6 1094.49,1297.76 1096.7,1298.9 1098.9,1300.04 1101.11,1301.15 1103.32,1302.25 1105.53,1303.34 1107.73,1304.41 1109.94,1305.47 1112.15,1306.52 1114.36,1307.55 1116.56,1308.56 1118.77,1309.57 1120.98,1310.56 1123.19,1311.53 1125.39,1312.5 1127.6,1313.45 1129.81,1314.39 1132.02,1315.31 1134.22,1316.23 1136.43,1317.13 1138.64,1318.02 1140.85,1318.9 1143.05,1319.77 1145.26,1320.62 1147.47,1321.47 1149.68,1322.3 1151.88,1323.12 1154.09,1323.93 1156.3,1324.73 1158.51,1325.52 1160.71,1326.3 1162.92,1327.07 1165.13,1327.83 1167.34,1328.58 1169.54,1329.31 1171.75,1330.04 1173.96,1330.76 1176.17,1331.47 1178.37,1332.17 1180.58,1332.86 1182.79,1333.54 1185,1334.21 1187.2,1334.88 1189.41,1335.53 1191.62,1336.18 1193.83,1336.81 1196.03,1337.44 1198.24,1338.06 1200.45,1338.67 1202.66,1339.28 1204.86,1339.87 1207.07,1340.46 1209.28,1341.04 1211.49,1341.61 1213.69,1342.18 1215.9,1342.73 1218.11,1343.28 1220.32,1343.83 1222.52,1344.36 1224.73,1344.89 1226.94,1345.41 1229.15,1345.92 1231.35,1346.43 1233.56,1346.93 1235.77,1347.43 1237.98,1347.91 1240.18,1348.4 1242.39,1348.87 1244.6,1349.34 1246.81,1349.8 1249.01,1350.26 1251.22,1350.3 1253.43,1348.68 1255.64,1345.53 1257.84,1341.03 1260.05,1335.38 1262.26,1328.74 1264.47,1321.28 1266.67,1313.16 1268.88,1304.51 1271.09,1295.47 1273.3,1286.16 1275.5,1276.68 1277.71,1267.13 1279.92,1257.59 1282.13,1248.15 1284.33,1238.86 1286.54,1229.77 1288.75,1220.93 1290.96,1212.36 1293.16,1204.09 1295.37,1196.11 1297.58,1188.43 1299.79,1181.02 1301.99,1173.87 1304.2,1166.93 1306.41,1160.15 1308.62,1153.47 1310.82,1146.83 1313.03,1140.13 1315.24,1133.36 1317.45,1126.67 1319.65,1120.07 1321.86,1113.56 1324.07,1107.13 1326.28,1100.79 1328.48,1094.53 1330.69,1088.36 1332.9,1082.27 1335.11,1076.26 1337.31,1070.33 1339.52,1064.47 1341.73,1058.7 1343.94,1053 1346.14,1047.38 1348.35,1041.83 1350.56,1036.36 1352.76,1030.95 1354.97,1025.62 1357.18,1020.36 1359.39,1015.17 1361.59,1010.05 1363.8,1005 1366.01,1000.01 1368.22,995.091 1370.42,990.235 1372.63,985.444 1374.84,980.717 1377.05,976.051 1379.25,971.448 1381.46,966.906 1383.67,962.424 1385.88,958.002 1388.08,953.638 1390.29,949.332 1392.5,945.083 1394.71,940.891 1396.91,936.754 1399.12,932.672 1401.33,928.644 1403.54,924.67 1405.74,920.749 1407.95,916.88 1410.16,913.062 1412.37,909.294 1414.57,905.577 1416.78,901.909 1418.99,898.29 1421.2,894.718 1423.4,891.195 1425.61,887.717 1427.82,884.286 1430.03,880.901 1432.23,877.56 1434.44,874.264 1436.65,871.011 1438.86,867.801 1441.06,864.634 1443.27,861.509 1445.48,858.425 1447.69,855.382 1449.89,852.379 1452.1,849.416 1454.31,846.512 1456.52,843.758 1458.72,841.153 1460.93,838.686 1463.14,836.344 1465.35,834.117 1467.55,831.995 1469.76,829.966 1471.97,828.023 1474.18,826.155 1476.38,824.355 1478.59,822.615 1480.8,820.927 1483.01,819.284 1485.21,817.681 1487.42,816.112 1489.63,814.571 1491.84,813.054 1494.04,811.557 1496.25,810.076 1498.46,808.609 1500.67,807.153 1502.87,805.705 1505.08,804.266 1507.29,802.833 1509.5,801.406 1511.7,799.987 1513.91,798.575 1516.12,797.171 1518.33,795.779 1520.53,794.399 1522.74,793.036 1524.95,791.692 1527.16,790.372 1529.36,789.08 1531.57,787.817 1533.78,786.572 1535.99,785.343 1538.19,784.131 1540.4,782.935 1542.61,781.754 1544.82,780.59 1547.02,779.44 1549.23,778.306 1551.44,777.187 1553.65,776.083 1555.85,774.994 1558.06,773.919 1560.27,772.858 1562.48,771.811 1564.68,770.778 1566.89,769.759 1569.1,768.754 1571.31,767.761 1573.51,766.782 1575.72,765.816 1577.93,764.862 1580.14,763.922 1582.34,762.993 1584.55,762.078 1586.76,761.174 1588.97,760.282 1591.17,759.402 1593.38,758.533 1595.59,757.677 1597.8,756.831 1600,755.997 1602.21,755.173 1604.42,754.361 1606.63,753.559 1608.83,752.768 1611.04,751.988 1613.25,751.218 1615.46,750.458 1617.66,749.708 1619.87,748.968 1622.08,748.238 1624.29,747.518 1626.49,746.807 1628.7,746.106 1630.91,745.414 1633.12,744.731 1635.32,744.057 1637.53,743.392 1639.74,742.736 1641.95,742.089 1644.15,741.45 1646.36,740.82 1648.57,740.198 1650.78,739.584 1652.98,738.978 1655.19,738.381 1657.4,737.791 1659.61,737.21 1661.81,736.636 1664.02,736.069 1666.23,735.51 1668.44,734.959 1670.64,734.414 1672.85,733.877 1675.06,733.347 1677.27,732.824 1679.47,732.308 1681.68,731.799 1683.89,731.297 1686.1,730.805 1688.3,731.297 1690.51,733.387 1692.72,736.863 1694.93,741.527 1697.13,747.192 1699.34,753.687 1701.55,760.849 1703.76,768.531 1705.96,776.598 1708.17,784.926 1710.38,793.405 1712.59,801.937 1714.79,810.437 1717,818.832 1719.21,827.062 1721.42,835.08 1723.62,842.85 1725.83,850.35 1728.04,857.57 1730.25,864.513 1732.45,871.194 1734.66,877.641 1736.87,883.895 1739.07,890.008 1741.28,896.046 1743.49,902.087 1745.7,908.215 1747.9,914.331 1750.11,920.366 1752.32,926.321 1754.53,932.197 1756.73,937.995 1758.94,943.716 1761.15,949.361 1763.36,954.932 1765.56,960.428 1767.77,965.852 1769.98,971.204 1772.19,976.485 1774.39,981.695 1776.6,986.837 1778.81,991.911 1781.02,996.917 1783.22,1001.86 1785.43,1006.73 1787.64,1011.54 1789.85,1016.29 1792.05,1020.97 1794.26,1025.59 1796.47,1030.15 1798.68,1034.65 1800.88,1039.09 1803.09,1043.47 1805.3,1047.8 1807.51,1052.06 1809.71,1056.27 1811.92,1060.42 1814.13,1064.52 1816.34,1068.56 1818.54,1072.55 1820.75,1076.49 1822.96,1080.38 1825.17,1084.21 1827.37,1087.99 1829.58,1091.72 1831.79,1095.41 1834,1099.04 1836.2,1102.63 1838.41,1106.16 1840.62,1109.66 1842.83,1113.1 1845.03,1116.5 1847.24,1119.86 1849.45,1123.17 1851.66,1126.43 1853.86,1129.65 1856.07,1132.83 1858.28,1135.97 1860.49,1139.07 1862.69,1142.12 1864.9,1145.14 1867.11,1148.11 1869.32,1151.05 1871.52,1153.95 1873.73,1156.8 1875.94,1159.62 1878.15,1162.41 1880.35,1165.15 1882.56,1167.86 1884.77,1170.54 1886.98,1173.17 1889.18,1175.78 1891.39,1178.35 1893.6,1180.88 1895.81,1183.38 1898.01,1185.85 1900.22,1188.28 1902.43,1190.69 1904.64,1193.06 1906.84,1195.4 1909.05,1197.65 1911.26,1199.24 1913.47,1200.1 1915.67,1200.3 1917.88,1199.94 1920.09,1199.07 1922.3,1197.77 1924.5,1196.11 1926.71,1194.14 1928.92,1191.92 1931.13,1189.51 1933.33,1186.96 1935.54,1184.31 1937.75,1181.59 1939.96,1178.85 1942.16,1176.12 1944.37,1173.42 1946.58,1170.79 1948.79,1168.23 1950.99,1165.76 1953.2,1163.39 1955.41,1161.14 1957.62,1159 1959.82,1156.97 1962.03,1155.05 1964.24,1153.22 1966.45,1151.47 1968.65,1149.78 1970.86,1148.13 1973.07,1146.49 1975.28,1144.83 1977.48,1143.12 1979.69,1141.39 1981.9,1139.68 1984.11,1137.99 1986.31,1136.32 1988.52,1134.67 1990.73,1133.05 1992.94,1131.45 1995.14,1129.87 1997.35,1128.31 1999.56,1126.77 2001.77,1125.25 2003.97,1123.75 2006.18,1122.28 2008.39,1120.82 2010.6,1119.38 2012.8,1117.96 2015.01,1116.56 2017.22,1115.17 2019.43,1113.81 2021.63,1112.46 2023.84,1111.13 2026.05,1109.82 2028.26,1108.53 2030.46,1107.25 2032.67,1105.99 2034.88,1104.75 2037.09,1103.52 2039.29,1102.31 2041.5,1101.12 2043.71,1099.94 2045.92,1098.77 2048.12,1097.63 2050.33,1096.49 2052.54,1095.38 2054.75,1094.28 2056.95,1093.19 2059.16,1092.11 2061.37,1091.06 2063.58,1090.01 2065.78,1088.98 2067.99,1087.96 2070.2,1086.96 2072.41,1085.97 2074.61,1084.99 2076.82,1084.03 2079.03,1083.07 2081.24,1082.14 2083.44,1081.21 2085.65,1080.29 2087.86,1079.39 2090.07,1078.5 2092.27,1077.62 2094.48,1076.76 2096.69,1075.9 2098.9,1075.06 2101.1,1074.23 2103.31,1073.41 2105.52,1072.6 2107.73,1071.8 2109.93,1071.01 2112.14,1070.23 2114.35,1069.46 2116.55,1068.7 2118.76,1067.95 2120.97,1067.21 2123.18,1066.49 2125.38,1065.77 2127.59,1065.06 2129.8,1064.33 2132.01,1063.58 2134.21,1062.81 2136.42,1062.02 2138.63,1061.21 2140.84,1060.39 2143.04,1059.56 2145.25,1058.72 2147.46,1057.87 2149.67,1057.02 2151.87,1056.18 2154.08,1055.33 2156.29,1054.48 2158.5,1053.64 2160.7,1052.81 2162.91,1051.99 2165.12,1051.17 2167.33,1050.36 2169.53,1049.57 2171.74,1048.79 2173.95,1048.02 2176.16,1047.26 2178.36,1046.52 2180.57,1045.79 2182.78,1045.08 2184.99,1044.37 2187.19,1043.69 2189.4,1043.01 2191.61,1042.35 2193.82,1041.69 2196.02,1041.05 2198.23,1040.42 2200.44,1039.79 2202.65,1039.18 2204.85,1038.56 2207.06,1037.95 2209.27,1037.35 2211.48,1036.76 2213.68,1036.18 2215.89,1035.6 2218.1,1035.03 2220.31,1034.47 2222.51,1033.91 2224.72,1033.36 2226.93,1032.82 2229.14,1032.29 2231.34,1031.76 2233.55,1031.24 2235.76,1030.73 2237.97,1030.23 2240.17,1029.73 2242.38,1029.24 2244.59,1028.75 2246.8,1028.27 2249,1027.8 2251.21,1027.33 2253.42,1026.87 2255.63,1026.42 2257.83,1025.97 2260.04,1025.53 2262.25,1025.09 2264.46,1024.66 2266.66,1024.24 2268.87,1023.82 2271.08,1023.4 2273.29,1023 2275.49,1022.59 2277.7,1022.2 2279.91,1021.8 2282.12,1021.42 2284.32,1021.03 2286.53,1020.66 2288.74,1020.29 2290.95,1019.92 2293.15,1019.56 2295.36,1019.2 2297.57,1018.85 2299.78,1018.5 2301.98,1018.16 2304.19,1017.82 2306.4,1017.48 2308.61,1017.15 2310.81,1016.83 2313.02,1016.51 2315.23,1016.19 2317.44,1015.88 2319.64,1015.57 2321.85,1015.27 2324.06,1014.97 2326.27,1014.67 2328.47,1014.38 2330.68,1014.09 2332.89,1013.8 2335.1,1013.52 2337.3,1013.25 2339.51,1012.97 2341.72,1012.7 2343.93,1012.44 2346.13,1012.17 2348.34,1011.91 2350.55,1011.66 2352.76,1011.41 "/>
<polyline clip-path="url(#clip162)" style="stroke:#e26f46; stroke-linecap:round; stroke-linejoin:round; stroke-width:4; stroke-opacity:1; fill:none" points="147.478,86.1857 149.685,86.1857 151.893,86.1857 154.1,86.1857 156.308,86.1857 158.515,86.1857 160.723,86.1857 162.93,86.1857 165.138,86.1857 167.345,86.1857 169.553,86.1857 171.76,86.1857 173.968,86.1857 176.175,86.1857 178.383,86.1857 180.59,86.1857 182.798,86.1857 185.005,86.1857 187.213,86.1857 189.42,86.1857 191.628,86.1857 193.835,86.1857 196.043,86.1857 198.25,86.1857 200.458,86.1857 202.665,86.1857 204.873,86.1857 207.08,86.1857 209.288,86.1857 211.495,86.1857 213.702,86.1857 215.91,86.1857 218.117,86.1857 220.325,86.1857 222.532,86.1857 224.74,86.1857 226.947,86.1857 229.155,86.1857 231.362,86.1857 233.57,86.1857 235.777,86.1857 237.985,86.1857 240.192,86.1857 242.4,86.1857 244.607,86.1857 246.815,86.1857 249.022,86.1857 251.23,86.1857 253.437,86.1857 255.645,86.1857 257.852,86.1857 260.06,86.1857 262.267,86.1857 264.475,86.1857 266.682,86.1857 268.89,86.1857 271.097,86.1857 273.305,86.1857 275.512,86.1857 277.72,86.1857 279.927,86.1857 282.135,86.1857 284.342,86.1857 286.549,86.1857 288.757,86.1857 290.964,86.1857 293.172,86.1857 295.379,86.1857 297.587,86.1857 299.794,86.1857 302.002,86.1857 304.209,86.1857 306.417,86.1857 308.624,86.1857 310.832,86.1857 313.039,86.1857 315.247,86.1857 317.454,86.1857 319.662,86.1857 321.869,86.1857 324.077,86.1857 326.284,86.1857 328.492,86.1857 330.699,86.1857 332.907,86.1857 335.114,86.1857 337.322,86.1857 339.529,86.1857 341.737,86.1857 343.944,86.1857 346.152,86.1857 348.359,86.1857 350.567,86.1857 352.774,86.1857 354.982,86.1857 357.189,86.1857 359.397,86.1857 361.604,86.1857 363.811,86.1857 366.019,86.1857 368.226,907.618 370.434,907.618 372.641,907.618 374.849,907.618 377.056,907.618 379.264,907.618 381.471,907.618 383.679,907.618 385.886,907.618 388.094,907.618 390.301,907.618 392.509,907.618 394.716,907.618 396.924,907.618 399.131,907.618 401.339,907.618 403.546,907.618 405.754,907.618 407.961,907.618 410.169,907.618 412.376,907.618 414.584,907.618 416.791,907.618 418.999,907.618 421.206,907.618 423.414,907.618 425.621,907.618 427.829,907.618 430.036,907.618 432.244,907.618 434.451,907.618 436.659,907.618 438.866,907.618 441.073,907.618 443.281,907.618 445.488,907.618 447.696,907.618 449.903,907.618 452.111,907.618 454.318,907.618 456.526,907.618 458.733,907.618 460.941,907.618 463.148,907.618 465.356,907.618 467.563,907.618 469.771,907.618 471.978,907.618 474.186,907.618 476.393,907.618 478.601,907.618 480.808,907.618 483.016,907.618 485.223,907.618 487.431,907.618 489.638,907.618 491.846,907.618 494.053,907.618 496.261,907.618 498.468,907.618 500.676,907.618 502.883,907.618 505.091,907.618 507.298,907.618 509.506,907.618 511.713,907.618 513.921,907.618 516.128,907.618 518.335,907.618 520.543,907.618 522.75,907.618 524.958,907.618 527.165,907.618 529.373,907.618 531.58,907.618 533.788,907.618 535.995,907.618 538.203,907.618 540.41,907.618 542.618,907.618 544.825,907.618 547.033,907.618 549.24,907.618 551.448,907.618 553.655,907.618 555.863,907.618 558.07,907.618 560.278,907.618 562.485,907.618 564.693,907.618 566.9,907.618 569.108,907.618 571.315,907.618 573.523,907.618 575.73,907.618 577.938,907.618 580.145,907.618 582.353,907.618 584.56,907.618 586.768,907.618 588.975,1323.38 591.182,1323.38 593.39,1323.38 595.597,1323.38 597.805,1323.38 600.012,1323.38 602.22,1323.38 604.427,1323.38 606.635,1323.38 608.842,1323.38 611.05,1323.38 613.257,1323.38 615.465,1323.38 617.672,1323.38 619.88,1323.38 622.087,1323.38 624.295,1323.38 626.502,1323.38 628.71,1323.38 630.917,1323.38 633.125,1323.38 635.332,1323.38 637.54,1323.38 639.747,1323.38 641.955,1323.38 644.162,1323.38 646.37,1323.38 648.577,1323.38 650.785,1323.38 652.992,1323.38 655.2,1323.38 657.407,1323.38 659.615,1323.38 661.822,1323.38 664.03,1323.38 666.237,1323.38 668.444,1323.38 670.652,1323.38 672.859,1323.38 675.067,1323.38 677.274,1323.38 679.482,1323.38 681.689,1323.38 683.897,1323.38 686.104,1323.38 688.312,1323.38 690.519,1323.38 692.727,1323.38 694.934,1323.38 697.142,1323.38 699.349,1323.38 701.557,1323.38 703.764,1323.38 705.972,1323.38 708.179,1323.38 710.387,1323.38 712.594,1323.38 714.802,1323.38 717.009,1323.38 719.217,1323.38 721.424,1323.38 723.632,1323.38 725.839,1323.38 728.047,1323.38 730.254,1323.38 732.462,1323.38 734.669,1323.38 736.877,1323.38 739.084,1323.38 741.292,1323.38 743.499,1323.38 745.706,1323.38 747.914,1323.38 750.121,1323.38 752.329,1323.38 754.536,1323.38 756.744,1323.38 758.951,1323.38 761.159,1323.38 763.366,1323.38 765.574,1323.38 767.781,1323.38 769.989,1323.38 772.196,1323.38 774.404,1323.38 776.611,1323.38 778.819,1323.38 781.026,1323.38 783.234,1323.38 785.441,1323.38 787.649,1323.38 789.856,1323.38 792.064,1323.38 794.271,1323.38 796.479,1323.38 798.686,1323.38 800.894,1323.38 803.101,1323.38 805.309,1323.38 807.516,1323.38 809.724,1287.79 811.931,1287.79 814.139,1287.79 816.346,1287.79 818.553,1287.79 820.761,1287.79 822.968,1287.79 825.176,1287.79 827.383,1287.79 829.591,1287.79 831.798,1287.79 834.006,1287.79 836.213,1287.79 838.421,1287.79 840.628,1287.79 842.836,1287.79 845.043,1287.79 847.251,1287.79 849.458,1287.79 851.666,1287.79 853.873,1287.79 856.081,1287.79 858.288,1287.79 860.496,1287.79 862.703,1287.79 864.911,1287.79 867.118,1287.79 869.326,1287.79 871.533,1287.79 873.741,1287.79 875.948,1287.79 878.156,1287.79 880.363,1287.79 882.571,1287.79 884.778,1287.79 886.986,1287.79 889.193,1287.79 891.401,1287.79 893.608,1287.79 895.815,1287.79 898.023,1287.79 900.23,1287.79 902.438,1287.79 904.645,1287.79 906.853,1287.79 909.06,1287.79 911.268,1287.79 913.475,1287.79 915.683,1287.79 917.89,1287.79 920.098,1287.79 922.305,1287.79 924.513,1287.79 926.72,1287.79 928.928,1287.79 931.135,1287.79 933.343,1287.79 935.55,1287.79 937.758,1287.79 939.965,1287.79 942.173,1287.79 944.38,1287.79 946.588,1287.79 948.795,1287.79 951.003,1287.79 953.21,1287.79 955.418,1287.79 957.625,1287.79 959.833,1287.79 962.04,1287.79 964.248,1287.79 966.455,1287.79 968.663,1287.79 970.87,1287.79 973.077,1287.79 975.285,1287.79 977.492,1287.79 979.7,1287.79 981.907,1287.79 984.115,1287.79 986.322,1287.79 988.53,1287.79 990.737,1287.79 992.945,1287.79 995.152,1287.79 997.36,1287.79 999.567,1287.79 1001.77,1287.79 1003.98,1287.79 1006.19,1287.79 1008.4,1287.79 1010.6,1287.79 1012.81,1287.79 1015.02,1287.79 1017.23,1287.79 1019.43,1287.79 1021.64,1287.79 1023.85,1287.79 1026.06,1287.79 1028.26,1287.79 1030.47,1384.24 1032.68,1384.24 1034.89,1384.24 1037.09,1384.24 1039.3,1384.24 1041.51,1384.24 1043.72,1384.24 1045.92,1384.24 1048.13,1384.24 1050.34,1384.24 1052.55,1384.24 1054.75,1384.24 1056.96,1384.24 1059.17,1384.24 1061.38,1384.24 1063.58,1384.24 1065.79,1384.24 1068,1384.24 1070.21,1384.24 1072.41,1384.24 1074.62,1384.24 1076.83,1384.24 1079.04,1384.24 1081.24,1384.24 1083.45,1384.24 1085.66,1384.24 1087.87,1384.24 1090.07,1384.24 1092.28,1384.24 1094.49,1384.24 1096.7,1384.24 1098.9,1384.24 1101.11,1384.24 1103.32,1384.24 1105.53,1384.24 1107.73,1384.24 1109.94,1384.24 1112.15,1384.24 1114.36,1384.24 1116.56,1384.24 1118.77,1384.24 1120.98,1384.24 1123.19,1384.24 1125.39,1384.24 1127.6,1384.24 1129.81,1384.24 1132.02,1384.24 1134.22,1384.24 1136.43,1384.24 1138.64,1384.24 1140.85,1384.24 1143.05,1384.24 1145.26,1384.24 1147.47,1384.24 1149.68,1384.24 1151.88,1384.24 1154.09,1384.24 1156.3,1384.24 1158.51,1384.24 1160.71,1384.24 1162.92,1384.24 1165.13,1384.24 1167.34,1384.24 1169.54,1384.24 1171.75,1384.24 1173.96,1384.24 1176.17,1384.24 1178.37,1384.24 1180.58,1384.24 1182.79,1384.24 1185,1384.24 1187.2,1384.24 1189.41,1384.24 1191.62,1384.24 1193.83,1384.24 1196.03,1384.24 1198.24,1384.24 1200.45,1384.24 1202.66,1384.24 1204.86,1384.24 1207.07,1384.24 1209.28,1384.24 1211.49,1384.24 1213.69,1384.24 1215.9,1384.24 1218.11,1384.24 1220.32,1384.24 1222.52,1384.24 1224.73,1384.24 1226.94,1384.24 1229.15,1384.24 1231.35,1384.24 1233.56,1384.24 1235.77,1384.24 1237.98,1384.24 1240.18,1384.24 1242.39,1384.24 1244.6,1384.24 1246.81,1384.24 1249.01,1384.24 1251.22,628.891 1253.43,628.891 1255.64,628.891 1257.84,628.891 1260.05,628.891 1262.26,628.891 1264.47,628.891 1266.67,628.891 1268.88,628.891 1271.09,628.891 1273.3,628.891 1275.5,628.891 1277.71,628.891 1279.92,628.891 1282.13,628.891 1284.33,628.891 1286.54,628.891 1288.75,628.891 1290.96,628.891 1293.16,628.891 1295.37,628.891 1297.58,628.891 1299.79,628.891 1301.99,628.891 1304.2,628.891 1306.41,628.891 1308.62,628.891 1310.82,628.891 1313.03,628.891 1315.24,628.891 1317.45,628.891 1319.65,628.891 1321.86,628.891 1324.07,628.891 1326.28,628.891 1328.48,628.891 1330.69,628.891 1332.9,628.891 1335.11,628.891 1337.31,628.891 1339.52,628.891 1341.73,628.891 1343.94,628.891 1346.14,628.891 1348.35,628.891 1350.56,628.891 1352.76,628.891 1354.97,628.891 1357.18,628.891 1359.39,628.891 1361.59,628.891 1363.8,628.891 1366.01,628.891 1368.22,628.891 1370.42,628.891 1372.63,628.891 1374.84,628.891 1377.05,628.891 1379.25,628.891 1381.46,628.891 1383.67,628.891 1385.88,628.891 1388.08,628.891 1390.29,628.891 1392.5,628.891 1394.71,628.891 1396.91,628.891 1399.12,628.891 1401.33,628.891 1403.54,628.891 1405.74,628.891 1407.95,628.891 1410.16,628.891 1412.37,628.891 1414.57,628.891 1416.78,628.891 1418.99,628.891 1421.2,628.891 1423.4,628.891 1425.61,628.891 1427.82,628.891 1430.03,628.891 1432.23,628.891 1434.44,628.891 1436.65,628.891 1438.86,628.891 1441.06,628.891 1443.27,628.891 1445.48,628.891 1447.69,628.891 1449.89,628.891 1452.1,628.891 1454.31,628.891 1456.52,628.891 1458.72,628.891 1460.93,628.891 1463.14,628.891 1465.35,628.891 1467.55,628.891 1469.76,628.891 1471.97,693.906 1474.18,693.906 1476.38,693.906 1478.59,693.906 1480.8,693.906 1483.01,693.906 1485.21,693.906 1487.42,693.906 1489.63,693.906 1491.84,693.906 1494.04,693.906 1496.25,693.906 1498.46,693.906 1500.67,693.906 1502.87,693.906 1505.08,693.906 1507.29,693.906 1509.5,693.906 1511.7,693.906 1513.91,693.906 1516.12,693.906 1518.33,693.906 1520.53,693.906 1522.74,693.906 1524.95,693.906 1527.16,693.906 1529.36,693.906 1531.57,693.906 1533.78,693.906 1535.99,693.906 1538.19,693.906 1540.4,693.906 1542.61,693.906 1544.82,693.906 1547.02,693.906 1549.23,693.906 1551.44,693.906 1553.65,693.906 1555.85,693.906 1558.06,693.906 1560.27,693.906 1562.48,693.906 1564.68,693.906 1566.89,693.906 1569.1,693.906 1571.31,693.906 1573.51,693.906 1575.72,693.906 1577.93,693.906 1580.14,693.906 1582.34,693.906 1584.55,693.906 1586.76,693.906 1588.97,693.906 1591.17,693.906 1593.38,693.906 1595.59,693.906 1597.8,693.906 1600,693.906 1602.21,693.906 1604.42,693.906 1606.63,693.906 1608.83,693.906 1611.04,693.906 1613.25,693.906 1615.46,693.906 1617.66,693.906 1619.87,693.906 1622.08,693.906 1624.29,693.906 1626.49,693.906 1628.7,693.906 1630.91,693.906 1633.12,693.906 1635.32,693.906 1637.53,693.906 1639.74,693.906 1641.95,693.906 1644.15,693.906 1646.36,693.906 1648.57,693.906 1650.78,693.906 1652.98,693.906 1655.19,693.906 1657.4,693.906 1659.61,693.906 1661.81,693.906 1664.02,693.906 1666.23,693.906 1668.44,693.906 1670.64,693.906 1672.85,693.906 1675.06,693.906 1677.27,693.906 1679.47,693.906 1681.68,693.906 1683.89,693.906 1686.1,693.906 1688.3,693.906 1690.51,693.906 1692.72,1369.52 1694.93,1369.52 1697.13,1369.52 1699.34,1369.52 1701.55,1369.52 1703.76,1369.52 1705.96,1369.52 1708.17,1369.52 1710.38,1369.52 1712.59,1369.52 1714.79,1369.52 1717,1369.52 1719.21,1369.52 1721.42,1369.52 1723.62,1369.52 1725.83,1369.52 1728.04,1369.52 1730.25,1369.52 1732.45,1369.52 1734.66,1369.52 1736.87,1369.52 1739.07,1369.52 1741.28,1369.52 1743.49,1369.52 1745.7,1369.52 1747.9,1369.52 1750.11,1369.52 1752.32,1369.52 1754.53,1369.52 1756.73,1369.52 1758.94,1369.52 1761.15,1369.52 1763.36,1369.52 1765.56,1369.52 1767.77,1369.52 1769.98,1369.52 1772.19,1369.52 1774.39,1369.52 1776.6,1369.52 1778.81,1369.52 1781.02,1369.52 1783.22,1369.52 1785.43,1369.52 1787.64,1369.52 1789.85,1369.52 1792.05,1369.52 1794.26,1369.52 1796.47,1369.52 1798.68,1369.52 1800.88,1369.52 1803.09,1369.52 1805.3,1369.52 1807.51,1369.52 1809.71,1369.52 1811.92,1369.52 1814.13,1369.52 1816.34,1369.52 1818.54,1369.52 1820.75,1369.52 1822.96,1369.52 1825.17,1369.52 1827.37,1369.52 1829.58,1369.52 1831.79,1369.52 1834,1369.52 1836.2,1369.52 1838.41,1369.52 1840.62,1369.52 1842.83,1369.52 1845.03,1369.52 1847.24,1369.52 1849.45,1369.52 1851.66,1369.52 1853.86,1369.52 1856.07,1369.52 1858.28,1369.52 1860.49,1369.52 1862.69,1369.52 1864.9,1369.52 1867.11,1369.52 1869.32,1369.52 1871.52,1369.52 1873.73,1369.52 1875.94,1369.52 1878.15,1369.52 1880.35,1369.52 1882.56,1369.52 1884.77,1369.52 1886.98,1369.52 1889.18,1369.52 1891.39,1369.52 1893.6,1369.52 1895.81,1369.52 1898.01,1369.52 1900.22,1369.52 1902.43,1369.52 1904.64,1369.52 1906.84,1369.52 1909.05,1369.52 1911.26,1369.52 1913.47,1012.25 1915.67,1012.25 1917.88,1012.25 1920.09,1012.25 1922.3,1012.25 1924.5,1012.25 1926.71,1012.25 1928.92,1012.25 1931.13,1012.25 1933.33,1012.25 1935.54,1012.25 1937.75,1012.25 1939.96,1012.25 1942.16,1012.25 1944.37,1012.25 1946.58,1012.25 1948.79,1012.25 1950.99,1012.25 1953.2,1012.25 1955.41,1012.25 1957.62,1012.25 1959.82,1012.25 1962.03,1012.25 1964.24,1012.25 1966.45,1012.25 1968.65,1012.25 1970.86,1012.25 1973.07,1012.25 1975.28,1012.25 1977.48,1012.25 1979.69,1012.25 1981.9,1012.25 1984.11,1012.25 1986.31,1012.25 1988.52,1012.25 1990.73,1012.25 1992.94,1012.25 1995.14,1012.25 1997.35,1012.25 1999.56,1012.25 2001.77,1012.25 2003.97,1012.25 2006.18,1012.25 2008.39,1012.25 2010.6,1012.25 2012.8,1012.25 2015.01,1012.25 2017.22,1012.25 2019.43,1012.25 2021.63,1012.25 2023.84,1012.25 2026.05,1012.25 2028.26,1012.25 2030.46,1012.25 2032.67,1012.25 2034.88,1012.25 2037.09,1012.25 2039.29,1012.25 2041.5,1012.25 2043.71,1012.25 2045.92,1012.25 2048.12,1012.25 2050.33,1012.25 2052.54,1012.25 2054.75,1012.25 2056.95,1012.25 2059.16,1012.25 2061.37,1012.25 2063.58,1012.25 2065.78,1012.25 2067.99,1012.25 2070.2,1012.25 2072.41,1012.25 2074.61,1012.25 2076.82,1012.25 2079.03,1012.25 2081.24,1012.25 2083.44,1012.25 2085.65,1012.25 2087.86,1012.25 2090.07,1012.25 2092.27,1012.25 2094.48,1012.25 2096.69,1012.25 2098.9,1012.25 2101.1,1012.25 2103.31,1012.25 2105.52,1012.25 2107.73,1012.25 2109.93,1012.25 2112.14,1012.25 2114.35,1012.25 2116.55,1012.25 2118.76,1012.25 2120.97,1012.25 2123.18,1012.25 2125.38,1012.25 2127.59,1012.25 2129.8,1012.25 2132.01,1012.25 2134.21,992.617 2136.42,992.617 2138.63,992.617 2140.84,992.617 2143.04,992.617 2145.25,992.617 2147.46,992.617 2149.67,992.617 2151.87,992.617 2154.08,992.617 2156.29,992.617 2158.5,992.617 2160.7,992.617 2162.91,992.617 2165.12,992.617 2167.33,992.617 2169.53,992.617 2171.74,992.617 2173.95,992.617 2176.16,992.617 2178.36,992.617 2180.57,992.617 2182.78,992.617 2184.99,992.617 2187.19,992.617 2189.4,992.617 2191.61,992.617 2193.82,992.617 2196.02,992.617 2198.23,992.617 2200.44,992.617 2202.65,992.617 2204.85,992.617 2207.06,992.617 2209.27,992.617 2211.48,992.617 2213.68,992.617 2215.89,992.617 2218.1,992.617 2220.31,992.617 2222.51,992.617 2224.72,992.617 2226.93,992.617 2229.14,992.617 2231.34,992.617 2233.55,992.617 2235.76,992.617 2237.97,992.617 2240.17,992.617 2242.38,992.617 2244.59,992.617 2246.8,992.617 2249,992.617 2251.21,992.617 2253.42,992.617 2255.63,992.617 2257.83,992.617 2260.04,992.617 2262.25,992.617 2264.46,992.617 2266.66,992.617 2268.87,992.617 2271.08,992.617 2273.29,992.617 2275.49,992.617 2277.7,992.617 2279.91,992.617 2282.12,992.617 2284.32,992.617 2286.53,992.617 2288.74,992.617 2290.95,992.617 2293.15,992.617 2295.36,992.617 2297.57,992.617 2299.78,992.617 2301.98,992.617 2304.19,992.617 2306.4,992.617 2308.61,992.617 2310.81,992.617 2313.02,992.617 2315.23,992.617 2317.44,992.617 2319.64,992.617 2321.85,992.617 2324.06,992.617 2326.27,992.617 2328.47,992.617 2330.68,992.617 2332.89,992.617 2335.1,992.617 2337.3,992.617 2339.51,992.617 2341.72,992.617 2343.93,992.617 2346.13,992.617 2348.34,992.617 2350.55,992.617 2352.76,992.617 "/>
<path clip-path="url(#clip160)" d="M2033.58 248.629 L2279.25 248.629 L2279.25 93.1086 L2033.58 93.1086  Z" fill="#ffffff" fill-rule="evenodd" fill-opacity="1"/>
<polyline clip-path="url(#clip160)" style="stroke:#000000; stroke-linecap:round; stroke-linejoin:round; stroke-width:4; stroke-opacity:1; fill:none" points="2033.58,248.629 2279.25,248.629 2279.25,93.1086 2033.58,93.1086 2033.58,248.629 "/>
<polyline clip-path="url(#clip160)" style="stroke:#009af9; stroke-linecap:round; stroke-linejoin:round; stroke-width:4; stroke-opacity:1; fill:none" points="2058.08,144.949 2205.1,144.949 "/>
<path clip-path="url(#clip160)" d="M2254.26 136.303 L2244.88 148.919 L2254.74 162.229 L2249.72 162.229 L2242.17 152.043 L2234.63 162.229 L2229.6 162.229 L2239.67 148.664 L2230.46 136.303 L2235.48 136.303 L2242.36 145.539 L2249.23 136.303 L2254.26 136.303 Z" fill="#000000" fill-rule="nonzero" fill-opacity="1" /><polyline clip-path="url(#clip160)" style="stroke:#e26f46; stroke-linecap:round; stroke-linejoin:round; stroke-width:4; stroke-opacity:1; fill:none" points="2058.08,196.789 2205.1,196.789 "/>
<path clip-path="url(#clip160)" d="M2246.11 178.05 L2246.11 181.592 L2242.04 181.592 Q2239.74 181.592 2238.84 182.518 Q2237.96 183.444 2237.96 185.851 L2237.96 188.143 L2244.98 188.143 L2244.98 191.453 L2237.96 191.453 L2237.96 214.069 L2233.68 214.069 L2233.68 191.453 L2229.6 191.453 L2229.6 188.143 L2233.68 188.143 L2233.68 186.337 Q2233.68 182.009 2235.69 180.041 Q2237.71 178.05 2242.08 178.05 L2246.11 178.05 Z" fill="#000000" fill-rule="nonzero" fill-opacity="1" /></svg>
