<?xml version="1.0" encoding="utf-8"?>
<svg xmlns="http://www.w3.org/2000/svg" xmlns:xlink="http://www.w3.org/1999/xlink" width="600" height="400" viewBox="0 0 2400 1600">
<defs>
  <clipPath id="clip580">
    <rect x="0" y="0" width="2400" height="1600"/>
  </clipPath>
</defs>
<path clip-path="url(#clip580)" d="M0 1600 L2400 1600 L2400 0 L0 0  Z" fill="#ffffff" fill-rule="evenodd" fill-opacity="1"/>
<defs>
  <clipPath id="clip581">
    <rect x="480" y="0" width="1681" height="1600"/>
  </clipPath>
</defs>
<path clip-path="url(#clip580)" d="M193.936 1423.18 L2352.76 1423.18 L2352.76 47.2441 L193.936 47.2441  Z" fill="#ffffff" fill-rule="evenodd" fill-opacity="1"/>
<defs>
  <clipPath id="clip582">
    <rect x="193" y="47" width="2160" height="1377"/>
  </clipPath>
</defs>
<polyline clip-path="url(#clip582)" style="stroke:#000000; stroke-linecap:round; stroke-linejoin:round; stroke-width:2; stroke-opacity:0.1; fill:none" points="193.936,1423.18 193.936,47.2441 "/>
<polyline clip-path="url(#clip582)" style="stroke:#000000; stroke-linecap:round; stroke-linejoin:round; stroke-width:2; stroke-opacity:0.1; fill:none" points="625.7,1423.18 625.7,47.2441 "/>
<polyline clip-path="url(#clip582)" style="stroke:#000000; stroke-linecap:round; stroke-linejoin:round; stroke-width:2; stroke-opacity:0.1; fill:none" points="1057.46,1423.18 1057.46,47.2441 "/>
<polyline clip-path="url(#clip582)" style="stroke:#000000; stroke-linecap:round; stroke-linejoin:round; stroke-width:2; stroke-opacity:0.1; fill:none" points="1489.23,1423.18 1489.23,47.2441 "/>
<polyline clip-path="url(#clip582)" style="stroke:#000000; stroke-linecap:round; stroke-linejoin:round; stroke-width:2; stroke-opacity:0.1; fill:none" points="1920.99,1423.18 1920.99,47.2441 "/>
<polyline clip-path="url(#clip582)" style="stroke:#000000; stroke-linecap:round; stroke-linejoin:round; stroke-width:2; stroke-opacity:0.1; fill:none" points="2352.76,1423.18 2352.76,47.2441 "/>
<polyline clip-path="url(#clip580)" style="stroke:#000000; stroke-linecap:round; stroke-linejoin:round; stroke-width:4; stroke-opacity:1; fill:none" points="193.936,1423.18 2352.76,1423.18 "/>
<polyline clip-path="url(#clip580)" style="stroke:#000000; stroke-linecap:round; stroke-linejoin:round; stroke-width:4; stroke-opacity:1; fill:none" points="193.936,1423.18 193.936,1404.28 "/>
<polyline clip-path="url(#clip580)" style="stroke:#000000; stroke-linecap:round; stroke-linejoin:round; stroke-width:4; stroke-opacity:1; fill:none" points="625.7,1423.18 625.7,1404.28 "/>
<polyline clip-path="url(#clip580)" style="stroke:#000000; stroke-linecap:round; stroke-linejoin:round; stroke-width:4; stroke-opacity:1; fill:none" points="1057.46,1423.18 1057.46,1404.28 "/>
<polyline clip-path="url(#clip580)" style="stroke:#000000; stroke-linecap:round; stroke-linejoin:round; stroke-width:4; stroke-opacity:1; fill:none" points="1489.23,1423.18 1489.23,1404.28 "/>
<polyline clip-path="url(#clip580)" style="stroke:#000000; stroke-linecap:round; stroke-linejoin:round; stroke-width:4; stroke-opacity:1; fill:none" points="1920.99,1423.18 1920.99,1404.28 "/>
<polyline clip-path="url(#clip580)" style="stroke:#000000; stroke-linecap:round; stroke-linejoin:round; stroke-width:4; stroke-opacity:1; fill:none" points="2352.76,1423.18 2352.76,1404.28 "/>
<path clip-path="url(#clip580)" d="M193.936 1454.1 Q190.325 1454.1 188.496 1457.66 Q186.691 1461.2 186.691 1468.33 Q186.691 1475.44 188.496 1479.01 Q190.325 1482.55 193.936 1482.55 Q197.57 1482.55 199.376 1479.01 Q201.204 1475.44 201.204 1468.33 Q201.204 1461.2 199.376 1457.66 Q197.57 1454.1 193.936 1454.1 M193.936 1450.39 Q199.746 1450.39 202.802 1455 Q205.88 1459.58 205.88 1468.33 Q205.88 1477.06 202.802 1481.67 Q199.746 1486.25 193.936 1486.25 Q188.126 1486.25 185.047 1481.67 Q181.992 1477.06 181.992 1468.33 Q181.992 1459.58 185.047 1455 Q188.126 1450.39 193.936 1450.39 Z" fill="#000000" fill-rule="nonzero" fill-opacity="1" /><path clip-path="url(#clip580)" d="M620.353 1481.64 L636.672 1481.64 L636.672 1485.58 L614.728 1485.58 L614.728 1481.64 Q617.39 1478.89 621.973 1474.26 Q626.58 1469.61 627.76 1468.27 Q630.006 1465.74 630.885 1464.01 Q631.788 1462.25 631.788 1460.56 Q631.788 1457.8 629.843 1456.07 Q627.922 1454.33 624.82 1454.33 Q622.621 1454.33 620.168 1455.09 Q617.737 1455.86 614.959 1457.41 L614.959 1452.69 Q617.783 1451.55 620.237 1450.97 Q622.691 1450.39 624.728 1450.39 Q630.098 1450.39 633.293 1453.08 Q636.487 1455.77 636.487 1460.26 Q636.487 1462.39 635.677 1464.31 Q634.89 1466.2 632.783 1468.8 Q632.205 1469.47 629.103 1472.69 Q626.001 1475.88 620.353 1481.64 Z" fill="#000000" fill-rule="nonzero" fill-opacity="1" /><path clip-path="url(#clip580)" d="M1060.47 1455.09 L1048.67 1473.54 L1060.47 1473.54 L1060.47 1455.09 M1059.25 1451.02 L1065.13 1451.02 L1065.13 1473.54 L1070.06 1473.54 L1070.06 1477.43 L1065.13 1477.43 L1065.13 1485.58 L1060.47 1485.58 L1060.47 1477.43 L1044.87 1477.43 L1044.87 1472.92 L1059.25 1451.02 Z" fill="#000000" fill-rule="nonzero" fill-opacity="1" /><path clip-path="url(#clip580)" d="M1489.63 1466.44 Q1486.48 1466.44 1484.63 1468.59 Q1482.8 1470.74 1482.8 1474.49 Q1482.8 1478.22 1484.63 1480.39 Q1486.48 1482.55 1489.63 1482.55 Q1492.78 1482.55 1494.61 1480.39 Q1496.46 1478.22 1496.46 1474.49 Q1496.46 1470.74 1494.61 1468.59 Q1492.78 1466.44 1489.63 1466.44 M1498.92 1451.78 L1498.92 1456.04 Q1497.16 1455.21 1495.35 1454.77 Q1493.57 1454.33 1491.81 1454.33 Q1487.18 1454.33 1484.73 1457.45 Q1482.3 1460.58 1481.95 1466.9 Q1483.31 1464.89 1485.37 1463.82 Q1487.43 1462.73 1489.91 1462.73 Q1495.12 1462.73 1498.13 1465.9 Q1501.16 1469.05 1501.16 1474.49 Q1501.16 1479.82 1498.01 1483.03 Q1494.86 1486.25 1489.63 1486.25 Q1483.64 1486.25 1480.47 1481.67 Q1477.3 1477.06 1477.3 1468.33 Q1477.3 1460.14 1481.18 1455.28 Q1485.07 1450.39 1491.62 1450.39 Q1493.38 1450.39 1495.17 1450.74 Q1496.97 1451.09 1498.92 1451.78 Z" fill="#000000" fill-rule="nonzero" fill-opacity="1" /><path clip-path="url(#clip580)" d="M1920.99 1469.17 Q1917.66 1469.17 1915.74 1470.95 Q1913.84 1472.73 1913.84 1475.86 Q1913.84 1478.98 1915.74 1480.77 Q1917.66 1482.55 1920.99 1482.55 Q1924.33 1482.55 1926.25 1480.77 Q1928.17 1478.96 1928.17 1475.86 Q1928.17 1472.73 1926.25 1470.95 Q1924.35 1469.17 1920.99 1469.17 M1916.32 1467.18 Q1913.31 1466.44 1911.62 1464.38 Q1909.95 1462.32 1909.95 1459.35 Q1909.95 1455.21 1912.89 1452.8 Q1915.85 1450.39 1920.99 1450.39 Q1926.15 1450.39 1929.09 1452.8 Q1932.03 1455.21 1932.03 1459.35 Q1932.03 1462.32 1930.34 1464.38 Q1928.68 1466.44 1925.69 1467.18 Q1929.07 1467.96 1930.95 1470.26 Q1932.84 1472.55 1932.84 1475.86 Q1932.84 1480.88 1929.77 1483.57 Q1926.71 1486.25 1920.99 1486.25 Q1915.27 1486.25 1912.2 1483.57 Q1909.14 1480.88 1909.14 1475.86 Q1909.14 1472.55 1911.04 1470.26 Q1912.94 1467.96 1916.32 1467.18 M1914.6 1459.79 Q1914.6 1462.48 1916.27 1463.98 Q1917.96 1465.49 1920.99 1465.49 Q1924 1465.49 1925.69 1463.98 Q1927.4 1462.48 1927.4 1459.79 Q1927.4 1457.11 1925.69 1455.6 Q1924 1454.1 1920.99 1454.1 Q1917.96 1454.1 1916.27 1455.6 Q1914.6 1457.11 1914.6 1459.79 Z" fill="#000000" fill-rule="nonzero" fill-opacity="1" /><path clip-path="url(#clip580)" d="M2327.44 1481.64 L2335.08 1481.64 L2335.08 1455.28 L2326.77 1456.95 L2326.77 1452.69 L2335.04 1451.02 L2339.71 1451.02 L2339.71 1481.64 L2347.35 1481.64 L2347.35 1485.58 L2327.44 1485.58 L2327.44 1481.64 Z" fill="#000000" fill-rule="nonzero" fill-opacity="1" /><path clip-path="url(#clip580)" d="M2366.8 1454.1 Q2363.18 1454.1 2361.36 1457.66 Q2359.55 1461.2 2359.55 1468.33 Q2359.55 1475.44 2361.36 1479.01 Q2363.18 1482.55 2366.8 1482.55 Q2370.43 1482.55 2372.23 1479.01 Q2374.06 1475.44 2374.06 1468.33 Q2374.06 1461.2 2372.23 1457.66 Q2370.43 1454.1 2366.8 1454.1 M2366.8 1450.39 Q2372.61 1450.39 2375.66 1455 Q2378.74 1459.58 2378.74 1468.33 Q2378.74 1477.06 2375.66 1481.67 Q2372.61 1486.25 2366.8 1486.25 Q2360.99 1486.25 2357.91 1481.67 Q2354.85 1477.06 2354.85 1468.33 Q2354.85 1459.58 2357.91 1455 Q2360.99 1450.39 2366.8 1450.39 Z" fill="#000000" fill-rule="nonzero" fill-opacity="1" /><path clip-path="url(#clip580)" d="M1272.41 1522.27 L1272.41 1532.4 L1284.47 1532.4 L1284.47 1536.95 L1272.41 1536.95 L1272.41 1556.3 Q1272.41 1560.66 1273.58 1561.9 Q1274.79 1563.14 1278.45 1563.14 L1284.47 1563.14 L1284.47 1568.04 L1278.45 1568.04 Q1271.67 1568.04 1269.1 1565.53 Q1266.52 1562.98 1266.52 1556.3 L1266.52 1536.95 L1262.22 1536.95 L1262.22 1532.4 L1266.52 1532.4 L1266.52 1522.27 L1272.41 1522.27 Z" fill="#000000" fill-rule="nonzero" fill-opacity="1" /><polyline clip-path="url(#clip582)" style="stroke:#000000; stroke-linecap:round; stroke-linejoin:round; stroke-width:2; stroke-opacity:0.1; fill:none" points="193.936,1196.18 2352.76,1196.18 "/>
<polyline clip-path="url(#clip582)" style="stroke:#000000; stroke-linecap:round; stroke-linejoin:round; stroke-width:2; stroke-opacity:0.1; fill:none" points="193.936,859.711 2352.76,859.711 "/>
<polyline clip-path="url(#clip582)" style="stroke:#000000; stroke-linecap:round; stroke-linejoin:round; stroke-width:2; stroke-opacity:0.1; fill:none" points="193.936,523.238 2352.76,523.238 "/>
<polyline clip-path="url(#clip582)" style="stroke:#000000; stroke-linecap:round; stroke-linejoin:round; stroke-width:2; stroke-opacity:0.1; fill:none" points="193.936,186.765 2352.76,186.765 "/>
<polyline clip-path="url(#clip580)" style="stroke:#000000; stroke-linecap:round; stroke-linejoin:round; stroke-width:4; stroke-opacity:1; fill:none" points="193.936,1423.18 193.936,47.2441 "/>
<polyline clip-path="url(#clip580)" style="stroke:#000000; stroke-linecap:round; stroke-linejoin:round; stroke-width:4; stroke-opacity:1; fill:none" points="193.936,1196.18 212.834,1196.18 "/>
<polyline clip-path="url(#clip580)" style="stroke:#000000; stroke-linecap:round; stroke-linejoin:round; stroke-width:4; stroke-opacity:1; fill:none" points="193.936,859.711 212.834,859.711 "/>
<polyline clip-path="url(#clip580)" style="stroke:#000000; stroke-linecap:round; stroke-linejoin:round; stroke-width:4; stroke-opacity:1; fill:none" points="193.936,523.238 212.834,523.238 "/>
<polyline clip-path="url(#clip580)" style="stroke:#000000; stroke-linecap:round; stroke-linejoin:round; stroke-width:4; stroke-opacity:1; fill:none" points="193.936,186.765 212.834,186.765 "/>
<path clip-path="url(#clip580)" d="M50.9921 1196.64 L80.6679 1196.64 L80.6679 1200.57 L50.9921 1200.57 L50.9921 1196.64 Z" fill="#000000" fill-rule="nonzero" fill-opacity="1" /><path clip-path="url(#clip580)" d="M91.5706 1209.53 L99.2095 1209.53 L99.2095 1183.16 L90.8993 1184.83 L90.8993 1180.57 L99.1632 1178.9 L103.839 1178.9 L103.839 1209.53 L111.478 1209.53 L111.478 1213.46 L91.5706 1213.46 L91.5706 1209.53 Z" fill="#000000" fill-rule="nonzero" fill-opacity="1" /><path clip-path="url(#clip580)" d="M120.922 1207.58 L125.807 1207.58 L125.807 1213.46 L120.922 1213.46 L120.922 1207.58 Z" fill="#000000" fill-rule="nonzero" fill-opacity="1" /><path clip-path="url(#clip580)" d="M145.992 1181.98 Q142.381 1181.98 140.552 1185.55 Q138.746 1189.09 138.746 1196.22 Q138.746 1203.33 140.552 1206.89 Q142.381 1210.43 145.992 1210.43 Q149.626 1210.43 151.431 1206.89 Q153.26 1203.33 153.26 1196.22 Q153.26 1189.09 151.431 1185.55 Q149.626 1181.98 145.992 1181.98 M145.992 1178.28 Q151.802 1178.28 154.857 1182.89 Q157.936 1187.47 157.936 1196.22 Q157.936 1204.95 154.857 1209.55 Q151.802 1214.14 145.992 1214.14 Q140.181 1214.14 137.103 1209.55 Q134.047 1204.95 134.047 1196.22 Q134.047 1187.47 137.103 1182.89 Q140.181 1178.28 145.992 1178.28 Z" fill="#000000" fill-rule="nonzero" fill-opacity="1" /><path clip-path="url(#clip580)" d="M51.9875 860.163 L81.6633 860.163 L81.6633 864.098 L51.9875 864.098 L51.9875 860.163 Z" fill="#000000" fill-rule="nonzero" fill-opacity="1" /><path clip-path="url(#clip580)" d="M101.756 845.51 Q98.1447 845.51 96.316 849.075 Q94.5104 852.616 94.5104 859.746 Q94.5104 866.852 96.316 870.417 Q98.1447 873.959 101.756 873.959 Q105.39 873.959 107.196 870.417 Q109.024 866.852 109.024 859.746 Q109.024 852.616 107.196 849.075 Q105.39 845.51 101.756 845.51 M101.756 841.806 Q107.566 841.806 110.621 846.413 Q113.7 850.996 113.7 859.746 Q113.7 868.473 110.621 873.079 Q107.566 877.662 101.756 877.662 Q95.9456 877.662 92.8669 873.079 Q89.8114 868.473 89.8114 859.746 Q89.8114 850.996 92.8669 846.413 Q95.9456 841.806 101.756 841.806 Z" fill="#000000" fill-rule="nonzero" fill-opacity="1" /><path clip-path="url(#clip580)" d="M121.918 871.112 L126.802 871.112 L126.802 876.991 L121.918 876.991 L121.918 871.112 Z" fill="#000000" fill-rule="nonzero" fill-opacity="1" /><path clip-path="url(#clip580)" d="M137.033 842.431 L155.39 842.431 L155.39 846.366 L141.316 846.366 L141.316 854.838 Q142.334 854.491 143.353 854.329 Q144.371 854.144 145.39 854.144 Q151.177 854.144 154.556 857.315 Q157.936 860.487 157.936 865.903 Q157.936 871.482 154.464 874.584 Q150.992 877.662 144.672 877.662 Q142.496 877.662 140.228 877.292 Q137.982 876.922 135.575 876.181 L135.575 871.482 Q137.658 872.616 139.881 873.172 Q142.103 873.727 144.58 873.727 Q148.584 873.727 150.922 871.621 Q153.26 869.514 153.26 865.903 Q153.26 862.292 150.922 860.186 Q148.584 858.079 144.58 858.079 Q142.705 858.079 140.83 858.496 Q138.978 858.913 137.033 859.792 L137.033 842.431 Z" fill="#000000" fill-rule="nonzero" fill-opacity="1" /><path clip-path="url(#clip580)" d="M100.76 509.037 Q97.1493 509.037 95.3206 512.601 Q93.515 516.143 93.515 523.273 Q93.515 530.379 95.3206 533.944 Q97.1493 537.486 100.76 537.486 Q104.395 537.486 106.2 533.944 Q108.029 530.379 108.029 523.273 Q108.029 516.143 106.2 512.601 Q104.395 509.037 100.76 509.037 M100.76 505.333 Q106.571 505.333 109.626 509.939 Q112.705 514.523 112.705 523.273 Q112.705 531.999 109.626 536.606 Q106.571 541.189 100.76 541.189 Q94.9502 541.189 91.8715 536.606 Q88.816 531.999 88.816 523.273 Q88.816 514.523 91.8715 509.939 Q94.9502 505.333 100.76 505.333 Z" fill="#000000" fill-rule="nonzero" fill-opacity="1" /><path clip-path="url(#clip580)" d="M120.922 534.638 L125.807 534.638 L125.807 540.518 L120.922 540.518 L120.922 534.638 Z" fill="#000000" fill-rule="nonzero" fill-opacity="1" /><path clip-path="url(#clip580)" d="M145.992 509.037 Q142.381 509.037 140.552 512.601 Q138.746 516.143 138.746 523.273 Q138.746 530.379 140.552 533.944 Q142.381 537.486 145.992 537.486 Q149.626 537.486 151.431 533.944 Q153.26 530.379 153.26 523.273 Q153.26 516.143 151.431 512.601 Q149.626 509.037 145.992 509.037 M145.992 505.333 Q151.802 505.333 154.857 509.939 Q157.936 514.523 157.936 523.273 Q157.936 531.999 154.857 536.606 Q151.802 541.189 145.992 541.189 Q140.181 541.189 137.103 536.606 Q134.047 531.999 134.047 523.273 Q134.047 514.523 137.103 509.939 Q140.181 505.333 145.992 505.333 Z" fill="#000000" fill-rule="nonzero" fill-opacity="1" /><path clip-path="url(#clip580)" d="M101.756 172.563 Q98.1447 172.563 96.316 176.128 Q94.5104 179.67 94.5104 186.8 Q94.5104 193.906 96.316 197.471 Q98.1447 201.012 101.756 201.012 Q105.39 201.012 107.196 197.471 Q109.024 193.906 109.024 186.8 Q109.024 179.67 107.196 176.128 Q105.39 172.563 101.756 172.563 M101.756 168.86 Q107.566 168.86 110.621 173.466 Q113.7 178.05 113.7 186.8 Q113.7 195.526 110.621 200.133 Q107.566 204.716 101.756 204.716 Q95.9456 204.716 92.8669 200.133 Q89.8114 195.526 89.8114 186.8 Q89.8114 178.05 92.8669 173.466 Q95.9456 168.86 101.756 168.86 Z" fill="#000000" fill-rule="nonzero" fill-opacity="1" /><path clip-path="url(#clip580)" d="M121.918 198.165 L126.802 198.165 L126.802 204.045 L121.918 204.045 L121.918 198.165 Z" fill="#000000" fill-rule="nonzero" fill-opacity="1" /><path clip-path="url(#clip580)" d="M137.033 169.485 L155.39 169.485 L155.39 173.42 L141.316 173.42 L141.316 181.892 Q142.334 181.545 143.353 181.383 Q144.371 181.198 145.39 181.198 Q151.177 181.198 154.556 184.369 Q157.936 187.54 157.936 192.957 Q157.936 198.536 154.464 201.637 Q150.992 204.716 144.672 204.716 Q142.496 204.716 140.228 204.346 Q137.982 203.975 135.575 203.235 L135.575 198.536 Q137.658 199.67 139.881 200.225 Q142.103 200.781 144.58 200.781 Q148.584 200.781 150.922 198.674 Q153.26 196.568 153.26 192.957 Q153.26 189.346 150.922 187.239 Q148.584 185.133 144.58 185.133 Q142.705 185.133 140.83 185.55 Q138.978 185.966 137.033 186.846 L137.033 169.485 Z" fill="#000000" fill-rule="nonzero" fill-opacity="1" /><polyline clip-path="url(#clip582)" style="stroke:#009af9; stroke-linecap:round; stroke-linejoin:round; stroke-width:4; stroke-opacity:1; fill:none" points="193.936,523.238 196.097,517.579 198.258,511.994 200.419,506.484 202.58,501.047 204.741,495.682 206.902,490.388 209.063,485.164 211.224,480.009 213.385,474.923 215.546,469.904 217.707,464.952 219.868,460.066 222.029,455.244 224.19,450.486 226.351,445.791 228.512,441.159 230.673,436.587 232.834,432.077 234.995,427.626 237.156,423.234 239.317,418.901 241.478,414.625 243.639,410.406 245.8,406.242 247.961,402.134 250.122,398.08 252.282,394.08 254.443,390.133 256.604,386.239 258.765,382.396 260.926,378.604 263.087,374.862 265.248,371.17 267.409,367.526 269.57,363.931 271.731,360.384 273.892,356.884 276.053,353.43 278.214,350.022 280.375,346.659 282.536,343.341 284.697,340.067 286.858,336.836 289.019,333.648 291.18,330.502 293.341,327.398 295.502,324.335 297.663,321.313 299.824,318.331 301.985,315.388 304.146,312.484 306.307,309.619 308.468,306.792 310.629,304.002 312.79,301.25 314.951,298.533 317.112,295.853 319.273,293.209 321.434,290.599 323.595,288.024 325.756,285.483 327.917,282.976 330.078,280.502 332.239,278.061 334.4,275.652 336.561,273.275 338.722,270.93 340.883,268.615 343.044,266.332 345.205,264.078 347.366,261.855 349.527,259.661 351.688,257.496 353.849,255.36 356.01,253.252 358.171,251.173 360.332,249.12 362.493,247.095 364.653,245.097 366.814,243.125 368.975,241.18 371.136,239.26 373.297,237.366 375.458,235.496 377.619,233.652 379.78,231.832 381.941,230.036 384.102,228.264 386.263,226.515 388.424,224.79 390.585,223.088 392.746,221.408 394.907,219.75 397.068,218.114 399.229,216.5 401.39,214.908 403.551,213.601 405.712,214.748 407.873,218.224 410.034,223.359 412.195,229.578 414.356,236.401 416.517,243.444 418.678,250.419 420.839,257.131 423,263.483 425.161,269.472 427.322,275.189 429.483,280.822 431.644,286.552 433.805,292.225 435.966,297.822 438.127,303.346 440.288,308.796 442.449,314.174 444.61,319.481 446.771,324.717 448.932,329.884 451.093,334.983 453.254,340.014 455.415,344.978 457.576,349.876 459.737,354.71 461.898,359.479 464.059,364.185 466.22,368.829 468.381,373.411 470.542,377.932 472.703,382.394 474.864,386.796 477.024,391.14 479.185,395.426 481.346,399.655 483.507,403.828 485.668,407.946 487.829,412.01 489.99,416.019 492.151,419.975 494.312,423.879 496.473,427.731 498.634,431.532 500.795,435.283 502.956,438.984 505.117,442.636 507.278,446.239 509.439,449.795 511.6,453.303 513.761,456.765 515.922,460.182 518.083,463.553 520.244,466.879 522.405,470.161 524.566,473.4 526.727,476.595 528.888,479.749 531.049,482.86 533.21,485.93 535.371,488.96 537.532,491.949 539.693,494.899 541.854,497.809 544.015,500.681 546.176,503.515 548.337,506.312 550.498,509.071 552.659,511.794 554.82,514.48 556.981,517.131 559.142,519.747 561.303,522.328 563.464,524.875 565.625,527.388 567.786,529.868 569.947,532.315 572.108,534.73 574.269,537.112 576.43,539.463 578.591,541.783 580.752,544.072 582.913,546.331 585.074,548.559 587.235,550.759 589.396,552.929 591.556,555.07 593.717,557.183 595.878,559.267 598.039,561.325 600.2,563.355 602.361,565.358 604.522,567.334 606.683,569.284 608.844,571.209 611.005,573.108 613.166,574.981 615.327,576.83 617.488,578.655 619.649,580.455 621.81,582.231 623.971,583.984 626.132,586.503 628.293,590.746 630.454,596.411 632.615,603.211 634.776,610.886 636.937,619.2 639.098,627.944 641.259,636.936 643.42,646.019 645.581,655.061 647.742,663.957 649.903,672.628 652.064,681.021 654.225,689.108 656.386,696.888 658.547,704.385 660.708,711.651 662.869,718.761 665.03,725.818 667.191,732.94 669.352,740.034 671.513,747.035 673.674,753.942 675.835,760.758 677.996,767.484 680.157,774.12 682.318,780.669 684.479,787.13 686.64,793.506 688.801,799.798 690.962,806.006 693.123,812.132 695.284,818.177 697.445,824.141 699.606,830.027 701.767,835.834 703.927,841.565 706.088,847.219 708.249,852.799 710.41,858.305 712.571,863.737 714.732,869.098 716.893,874.387 719.054,879.606 721.215,884.756 723.376,889.837 725.537,894.852 727.698,899.799 729.859,904.681 732.02,909.498 734.181,914.252 736.342,918.942 738.503,923.57 740.664,928.137 742.825,932.643 744.986,937.09 747.147,941.477 749.308,945.807 751.469,950.079 753.63,954.294 755.791,958.454 757.952,962.558 760.113,966.608 762.274,970.605 764.435,974.548 766.596,978.439 768.757,982.279 770.918,986.068 773.079,989.806 775.24,993.495 777.401,997.135 779.562,1000.73 781.723,1004.27 783.884,1007.77 786.045,1011.22 788.206,1014.62 790.367,1017.98 792.528,1021.3 794.689,1024.57 796.85,1027.8 799.011,1030.98 801.172,1034.13 803.333,1037.23 805.494,1040.29 807.655,1043.31 809.816,1046.29 811.977,1049.23 814.138,1052.13 816.298,1054.99 818.459,1057.81 820.62,1060.6 822.781,1063.35 824.942,1066.07 827.103,1068.74 829.264,1071.39 831.425,1073.99 833.586,1076.57 835.747,1078.53 837.908,1078.4 840.069,1076.38 842.23,1072.76 844.391,1067.8 846.552,1061.77 848.713,1054.89 850.874,1047.36 853.035,1039.38 855.196,1031.11 857.357,1022.71 859.518,1014.29 861.679,1005.98 863.84,997.847 866.001,989.971 868.162,982.396 870.323,975.147 872.484,968.232 874.645,961.637 876.806,955.327 878.967,949.248 881.128,943.327 883.289,937.468 885.45,931.555 887.611,925.514 889.772,919.525 891.933,913.614 894.094,907.783 896.255,902.028 898.416,896.35 900.577,890.747 902.738,885.219 904.899,879.763 907.06,874.381 909.221,869.069 911.382,863.828 913.543,858.656 915.704,853.553 917.865,848.518 920.026,843.549 922.187,838.646 924.348,833.808 926.509,829.034 928.669,824.324 930.83,819.675 932.991,815.089 935.152,810.563 937.313,806.097 939.474,801.69 941.635,797.342 943.796,793.052 945.957,788.818 948.118,784.641 950.279,780.519 952.44,776.452 954.601,772.439 956.762,768.479 958.923,764.571 961.084,760.716 963.245,756.911 965.406,753.157 967.567,749.453 969.728,745.798 971.889,742.191 974.05,738.633 976.211,735.121 978.372,731.656 980.533,728.237 982.694,724.863 984.855,721.534 987.016,718.249 989.177,715.008 991.338,711.809 993.499,708.653 995.66,705.539 997.821,702.466 999.982,699.434 1002.14,696.441 1004.3,693.489 1006.46,690.576 1008.63,687.701 1010.79,684.864 1012.95,682.065 1015.11,679.304 1017.27,676.578 1019.43,673.889 1021.59,671.236 1023.75,668.618 1025.91,666.034 1028.07,663.485 1030.24,660.969 1032.4,658.487 1034.56,656.029 1036.72,653.455 1038.88,650.799 1041.04,648.155 1043.2,645.604 1045.36,643.211 1047.52,641.028 1049.68,639.091 1051.85,637.422 1054.01,636.028 1056.17,634.901 1058.33,634.021 1060.49,633.351 1062.65,632.838 1064.81,632.419 1066.97,632.011 1069.13,631.528 1071.29,631.016 1073.46,630.51 1075.62,630.011 1077.78,629.519 1079.94,629.034 1082.1,628.555 1084.26,628.082 1086.42,627.616 1088.58,627.155 1090.74,626.701 1092.9,626.253 1095.07,625.811 1097.23,625.374 1099.39,624.943 1101.55,624.519 1103.71,624.099 1105.87,623.685 1108.03,623.277 1110.19,622.874 1112.35,622.477 1114.51,622.085 1116.67,621.698 1118.84,621.316 1121,620.939 1123.16,620.567 1125.32,620.2 1127.48,619.838 1129.64,619.481 1131.8,619.129 1133.96,618.781 1136.12,618.438 1138.28,618.099 1140.45,617.765 1142.61,617.436 1144.77,617.11 1146.93,616.789 1149.09,616.473 1151.25,616.16 1153.41,615.852 1155.57,615.548 1157.73,615.247 1159.89,614.951 1162.06,614.659 1164.22,614.37 1166.38,614.086 1168.54,613.805 1170.7,613.528 1172.86,613.254 1175.02,612.984 1177.18,612.718 1179.34,612.455 1181.5,612.196 1183.67,611.94 1185.83,611.687 1187.99,611.438 1190.15,611.193 1192.31,610.95 1194.47,610.711 1196.63,610.474 1198.79,610.241 1200.95,610.011 1203.11,609.785 1205.28,609.561 1207.44,609.34 1209.6,609.122 1211.76,608.907 1213.92,608.694 1216.08,608.485 1218.24,608.278 1220.4,608.074 1222.56,607.873 1224.72,607.675 1226.88,607.479 1229.05,607.285 1231.21,607.095 1233.37,606.906 1235.53,606.721 1237.69,606.537 1239.85,606.357 1242.01,606.178 1244.17,606.002 1246.33,605.828 1248.49,605.657 1250.66,605.488 1252.82,605.321 1254.98,605.156 1257.14,604.994 1259.3,604.833 1261.46,604.675 1263.62,604.519 1265.78,604.33 1267.94,603.573 1270.1,602.143 1272.27,600.13 1274.43,597.62 1276.59,594.694 1278.75,591.425 1280.91,587.883 1283.07,584.131 1285.23,580.228 1287.39,576.226 1289.55,572.172 1291.71,568.109 1293.88,564.071 1296.04,560.089 1298.2,556.19 1300.36,552.391 1302.52,548.708 1304.68,545.148 1306.84,541.716 1309,538.408 1311.16,535.216 1313.32,532.128 1315.49,529.124 1317.65,526.179 1319.81,523.264 1321.97,520.344 1324.13,517.388 1326.29,514.454 1328.45,511.559 1330.61,508.703 1332.77,505.884 1334.93,503.103 1337.09,500.359 1339.26,497.651 1341.42,494.979 1343.58,492.342 1345.74,489.74 1347.9,487.173 1350.06,484.64 1352.22,482.14 1354.38,479.674 1356.54,477.24 1358.7,474.839 1360.87,472.469 1363.03,470.131 1365.19,467.823 1367.35,465.547 1369.51,463.3 1371.67,461.083 1373.83,458.896 1375.99,456.738 1378.15,454.608 1380.31,452.506 1382.48,450.433 1384.64,448.387 1386.8,446.368 1388.96,444.376 1391.12,442.41 1393.28,440.47 1395.44,438.557 1397.6,436.668 1399.76,434.805 1401.92,432.966 1404.09,431.151 1406.25,429.361 1408.41,427.594 1410.57,425.851 1412.73,424.131 1414.89,422.434 1417.05,420.759 1419.21,419.106 1421.37,417.476 1423.53,415.866 1425.7,414.279 1427.86,412.712 1430.02,411.166 1432.18,409.64 1434.34,408.135 1436.5,406.65 1438.66,405.184 1440.82,403.738 1442.98,402.311 1445.14,400.903 1447.3,399.514 1449.47,398.143 1451.63,396.79 1453.79,395.455 1455.95,394.138 1458.11,392.838 1460.27,391.556 1462.43,390.29 1464.59,389.042 1466.75,387.809 1468.91,386.594 1471.08,385.394 1473.24,384.21 1475.4,383.042 1477.56,381.89 1479.72,380.752 1481.88,379.63 1484.04,378.523 1486.2,377.433 1488.36,376.513 1490.52,375.835 1492.69,375.375 1494.85,375.112 1497.01,375.022 1499.17,375.087 1501.33,375.288 1503.49,375.605 1505.65,376.021 1507.81,376.522 1509.97,377.09 1512.13,377.714 1514.3,378.379 1516.46,379.073 1518.62,379.786 1520.78,380.508 1522.94,381.23 1525.1,381.944 1527.26,382.643 1529.42,383.322 1531.58,383.976 1533.74,384.601 1535.91,385.195 1538.07,385.756 1540.23,386.284 1542.39,386.779 1544.55,387.243 1546.71,387.678 1548.87,388.088 1551.03,388.478 1553.19,388.853 1555.35,389.22 1557.51,389.588 1559.68,389.964 1561.84,390.359 1564,390.766 1566.16,391.168 1568.32,391.565 1570.48,391.957 1572.64,392.343 1574.8,392.725 1576.96,393.101 1579.12,393.472 1581.29,393.838 1583.45,394.2 1585.61,394.557 1587.77,394.909 1589.93,395.256 1592.09,395.599 1594.25,395.937 1596.41,396.27 1598.57,396.6 1600.73,396.924 1602.9,397.245 1605.06,397.561 1607.22,397.873 1609.38,398.181 1611.54,398.485 1613.7,398.785 1615.86,399.081 1618.02,399.373 1620.18,399.661 1622.34,399.946 1624.51,400.226 1626.67,400.503 1628.83,400.776 1630.99,401.046 1633.15,401.312 1635.31,401.574 1637.47,401.833 1639.63,402.089 1641.79,402.341 1643.95,402.59 1646.12,402.835 1648.28,403.077 1650.44,403.316 1652.6,403.552 1654.76,403.785 1656.92,404.014 1659.08,404.241 1661.24,404.465 1663.4,404.685 1665.56,404.903 1667.72,405.118 1669.89,405.329 1672.05,405.539 1674.21,405.745 1676.37,405.949 1678.53,406.149 1680.69,406.348 1682.85,406.543 1685.01,406.736 1687.17,406.927 1689.33,407.115 1691.5,407.3 1693.66,407.483 1695.82,407.664 1697.98,407.842 1700.14,408.018 1702.3,408.191 1704.46,408.169 1706.62,407.489 1708.78,406.198 1710.94,404.365 1713.11,402.056 1715.27,399.334 1717.43,396.257 1719.59,392.881 1721.75,389.259 1723.91,385.438 1726.07,381.465 1728.23,377.38 1730.39,373.223 1732.55,369.028 1734.72,364.827 1736.88,360.647 1739.04,356.514 1741.2,352.447 1743.36,348.466 1745.52,344.584 1747.68,340.812 1749.84,337.156 1752,333.622 1754.16,330.21 1756.33,326.916 1758.49,323.734 1760.65,320.654 1762.81,317.663 1764.97,314.744 1767.13,311.877 1769.29,309.038 1771.45,306.199 1773.61,303.331 1775.77,300.452 1777.93,297.611 1780.1,294.808 1782.26,292.042 1784.42,289.313 1786.58,286.62 1788.74,283.963 1790.9,281.34 1793.06,278.753 1795.22,276.2 1797.38,273.681 1799.54,271.195 1801.71,268.742 1803.87,266.322 1806.03,263.934 1808.19,261.577 1810.35,259.252 1812.51,256.957 1814.67,254.693 1816.83,252.459 1818.99,250.255 1821.15,248.079 1823.32,245.933 1825.48,243.815 1827.64,241.725 1829.8,239.663 1831.96,237.628 1834.12,235.62 1836.28,233.639 1838.44,231.684 1840.6,229.755 1842.76,227.852 1844.93,225.973 1847.09,224.12 1849.25,222.291 1851.41,220.487 1853.57,218.706 1855.73,216.949 1857.89,215.216 1860.05,213.505 1862.21,211.817 1864.37,210.152 1866.54,208.508 1868.7,206.886 1870.86,205.286 1873.02,203.707 1875.18,202.149 1877.34,200.611 1879.5,199.094 1881.66,197.597 1883.82,196.12 1885.98,194.663 1888.15,193.225 1890.31,191.805 1892.47,190.405 1894.63,189.023 1896.79,187.66 1898.95,186.315 1901.11,184.987 1903.27,183.677 1905.43,182.385 1907.59,181.109 1909.75,179.851 1911.92,178.609 1914.08,177.384 1916.24,176.175 1918.4,176.415 1920.56,179.754 1922.72,185.798 1924.88,194.168 1927.04,204.508 1929.2,216.486 1931.36,229.795 1933.53,244.148 1935.69,259.284 1937.85,274.967 1940.01,290.982 1942.17,307.139 1944.33,323.27 1946.49,339.233 1948.65,354.909 1950.81,370.201 1952.97,385.037 1955.14,399.369 1957.3,413.171 1959.46,426.442 1961.62,439.205 1963.78,451.505 1965.94,463.411 1968.1,475.017 1970.26,486.439 1972.42,497.818 1974.58,509.317 1976.75,520.914 1978.91,532.36 1981.07,543.654 1983.23,554.798 1985.39,565.795 1987.55,576.646 1989.71,587.353 1991.87,597.918 1994.03,608.343 1996.19,618.63 1998.36,628.781 2000.52,638.796 2002.68,648.679 2004.84,658.432 2007,668.054 2009.16,677.55 2011.32,686.919 2013.48,696.164 2015.64,705.287 2017.8,714.289 2019.96,723.172 2022.13,731.937 2024.29,740.585 2026.45,749.119 2028.61,757.54 2030.77,765.849 2032.93,774.048 2035.09,782.138 2037.25,790.12 2039.41,797.997 2041.57,805.769 2043.74,813.439 2045.9,821.006 2048.06,828.473 2050.22,835.841 2052.38,843.112 2054.54,850.286 2056.7,857.364 2058.86,864.349 2061.02,871.242 2063.18,878.043 2065.35,884.754 2067.51,891.376 2069.67,897.91 2071.83,904.357 2073.99,910.72 2076.15,916.997 2078.31,923.192 2080.47,929.305 2082.63,935.336 2084.79,941.288 2086.96,947.16 2089.12,952.955 2091.28,958.673 2093.44,964.315 2095.6,969.883 2097.76,975.376 2099.92,980.797 2102.08,986.146 2104.24,991.424 2106.4,996.632 2108.57,1001.77 2110.73,1006.84 2112.89,1011.84 2115.05,1016.78 2117.21,1021.65 2119.37,1026.46 2121.53,1031.2 2123.69,1035.88 2125.85,1040.5 2128.01,1045.06 2130.17,1049.56 2132.34,1053.99 2134.5,1055.82 2136.66,1053.49 2138.82,1047.79 2140.98,1039.45 2143.14,1029.13 2145.3,1017.39 2147.46,1004.75 2149.62,991.645 2151.78,978.437 2153.95,965.418 2156.11,952.806 2158.27,940.75 2160.43,929.325 2162.59,918.532 2164.75,908.303 2166.91,898.496 2169.07,888.899 2171.23,879.225 2173.39,869.311 2175.56,859.502 2177.72,849.823 2179.88,840.272 2182.04,830.848 2184.2,821.548 2186.36,812.372 2188.52,803.318 2190.68,794.384 2192.84,785.568 2195,776.869 2197.17,768.285 2199.33,759.815 2201.49,751.457 2203.65,743.21 2205.81,735.072 2207.97,727.042 2210.13,719.119 2212.29,711.3 2214.45,703.586 2216.61,695.973 2218.78,688.462 2220.94,681.051 2223.1,673.737 2225.26,666.521 2227.42,659.401 2229.58,652.375 2231.74,645.442 2233.9,638.601 2236.06,631.851 2238.22,625.19 2240.38,618.618 2242.55,612.132 2244.71,605.733 2246.87,599.419 2249.03,593.188 2251.19,587.04 2253.35,580.973 2255.51,574.987 2257.67,569.08 2259.83,563.251 2261.99,557.5 2264.16,551.825 2266.32,546.225 2268.48,540.699 2270.64,535.246 2272.8,529.866 2274.96,524.557 2277.12,519.319 2279.28,514.149 2281.44,509.049 2283.6,504.016 2285.77,499.05 2287.93,494.15 2290.09,489.314 2292.25,484.543 2294.41,479.835 2296.57,475.19 2298.73,470.606 2300.89,466.083 2303.05,461.619 2305.21,457.215 2307.38,452.87 2309.54,448.582 2311.7,444.351 2313.86,440.175 2316.02,436.056 2318.18,431.991 2320.34,427.979 2322.5,424.021 2324.66,420.116 2326.82,416.262 2328.99,412.459 2331.15,408.707 2333.31,405.004 2335.47,401.351 2337.63,397.746 2339.79,394.189 2341.95,390.679 2344.11,387.215 2346.27,383.798 2348.43,380.425 2350.59,377.098 2352.76,373.814 "/>
<polyline clip-path="url(#clip582)" style="stroke:#e26f46; stroke-linecap:round; stroke-linejoin:round; stroke-width:4; stroke-opacity:1; fill:none" points="193.936,96.376 196.097,96.376 198.258,96.376 200.419,96.376 202.58,96.376 204.741,96.376 206.902,96.376 209.063,96.376 211.224,96.376 213.385,96.376 215.546,96.376 217.707,96.376 219.868,96.376 222.029,96.376 224.19,96.376 226.351,96.376 228.512,96.376 230.673,96.376 232.834,96.376 234.995,96.376 237.156,96.376 239.317,96.376 241.478,96.376 243.639,96.376 245.8,96.376 247.961,96.376 250.122,96.376 252.282,96.376 254.443,96.376 256.604,96.376 258.765,96.376 260.926,96.376 263.087,96.376 265.248,96.376 267.409,96.376 269.57,96.376 271.731,96.376 273.892,96.376 276.053,96.376 278.214,96.376 280.375,96.376 282.536,96.376 284.697,96.376 286.858,96.376 289.019,96.376 291.18,96.376 293.341,96.376 295.502,96.376 297.663,96.376 299.824,96.376 301.985,96.376 304.146,96.376 306.307,96.376 308.468,96.376 310.629,96.376 312.79,96.376 314.951,96.376 317.112,96.376 319.273,96.376 321.434,96.376 323.595,96.376 325.756,96.376 327.917,96.376 330.078,96.376 332.239,96.376 334.4,96.376 336.561,96.376 338.722,96.376 340.883,96.376 343.044,96.376 345.205,96.376 347.366,96.376 349.527,96.376 351.688,96.376 353.849,96.376 356.01,96.376 358.171,96.376 360.332,96.376 362.493,96.376 364.653,96.376 366.814,96.376 368.975,96.376 371.136,96.376 373.297,96.376 375.458,96.376 377.619,96.376 379.78,96.376 381.941,96.376 384.102,96.376 386.263,96.376 388.424,96.376 390.585,96.376 392.746,96.376 394.907,96.376 397.068,96.376 399.229,96.376 401.39,96.376 403.551,96.376 405.712,96.376 407.873,96.376 410.034,714.435 412.195,714.435 414.356,714.435 416.517,714.435 418.678,714.435 420.839,714.435 423,714.435 425.161,714.435 427.322,714.435 429.483,714.435 431.644,714.435 433.805,714.435 435.966,714.435 438.127,714.435 440.288,714.435 442.449,714.435 444.61,714.435 446.771,714.435 448.932,714.435 451.093,714.435 453.254,714.435 455.415,714.435 457.576,714.435 459.737,714.435 461.898,714.435 464.059,714.435 466.22,714.435 468.381,714.435 470.542,714.435 472.703,714.435 474.864,714.435 477.024,714.435 479.185,714.435 481.346,714.435 483.507,714.435 485.668,714.435 487.829,714.435 489.99,714.435 492.151,714.435 494.312,714.435 496.473,714.435 498.634,714.435 500.795,714.435 502.956,714.435 505.117,714.435 507.278,714.435 509.439,714.435 511.6,714.435 513.761,714.435 515.922,714.435 518.083,714.435 520.244,714.435 522.405,714.435 524.566,714.435 526.727,714.435 528.888,714.435 531.049,714.435 533.21,714.435 535.371,714.435 537.532,714.435 539.693,714.435 541.854,714.435 544.015,714.435 546.176,714.435 548.337,714.435 550.498,714.435 552.659,714.435 554.82,714.435 556.981,714.435 559.142,714.435 561.303,714.435 563.464,714.435 565.625,714.435 567.786,714.435 569.947,714.435 572.108,714.435 574.269,714.435 576.43,714.435 578.591,714.435 580.752,714.435 582.913,714.435 585.074,714.435 587.235,714.435 589.396,714.435 591.556,714.435 593.717,714.435 595.878,714.435 598.039,714.435 600.2,714.435 602.361,714.435 604.522,714.435 606.683,714.435 608.844,714.435 611.005,714.435 613.166,714.435 615.327,714.435 617.488,714.435 619.649,714.435 621.81,714.435 623.971,714.435 626.132,1268.04 628.293,1268.04 630.454,1268.04 632.615,1268.04 634.776,1268.04 636.937,1268.04 639.098,1268.04 641.259,1268.04 643.42,1268.04 645.581,1268.04 647.742,1268.04 649.903,1268.04 652.064,1268.04 654.225,1268.04 656.386,1268.04 658.547,1268.04 660.708,1268.04 662.869,1268.04 665.03,1268.04 667.191,1268.04 669.352,1268.04 671.513,1268.04 673.674,1268.04 675.835,1268.04 677.996,1268.04 680.157,1268.04 682.318,1268.04 684.479,1268.04 686.64,1268.04 688.801,1268.04 690.962,1268.04 693.123,1268.04 695.284,1268.04 697.445,1268.04 699.606,1268.04 701.767,1268.04 703.927,1268.04 706.088,1268.04 708.249,1268.04 710.41,1268.04 712.571,1268.04 714.732,1268.04 716.893,1268.04 719.054,1268.04 721.215,1268.04 723.376,1268.04 725.537,1268.04 727.698,1268.04 729.859,1268.04 732.02,1268.04 734.181,1268.04 736.342,1268.04 738.503,1268.04 740.664,1268.04 742.825,1268.04 744.986,1268.04 747.147,1268.04 749.308,1268.04 751.469,1268.04 753.63,1268.04 755.791,1268.04 757.952,1268.04 760.113,1268.04 762.274,1268.04 764.435,1268.04 766.596,1268.04 768.757,1268.04 770.918,1268.04 773.079,1268.04 775.24,1268.04 777.401,1268.04 779.562,1268.04 781.723,1268.04 783.884,1268.04 786.045,1268.04 788.206,1268.04 790.367,1268.04 792.528,1268.04 794.689,1268.04 796.85,1268.04 799.011,1268.04 801.172,1268.04 803.333,1268.04 805.494,1268.04 807.655,1268.04 809.816,1268.04 811.977,1268.04 814.138,1268.04 816.298,1268.04 818.459,1268.04 820.62,1268.04 822.781,1268.04 824.942,1268.04 827.103,1268.04 829.264,1268.04 831.425,1268.04 833.586,1268.04 835.747,1268.04 837.908,1268.04 840.069,1268.04 842.23,473.749 844.391,473.749 846.552,473.749 848.713,473.749 850.874,473.749 853.035,473.749 855.196,473.749 857.357,473.749 859.518,473.749 861.679,473.749 863.84,473.749 866.001,473.749 868.162,473.749 870.323,473.749 872.484,473.749 874.645,473.749 876.806,473.749 878.967,473.749 881.128,473.749 883.289,473.749 885.45,473.749 887.611,473.749 889.772,473.749 891.933,473.749 894.094,473.749 896.255,473.749 898.416,473.749 900.577,473.749 902.738,473.749 904.899,473.749 907.06,473.749 909.221,473.749 911.382,473.749 913.543,473.749 915.704,473.749 917.865,473.749 920.026,473.749 922.187,473.749 924.348,473.749 926.509,473.749 928.669,473.749 930.83,473.749 932.991,473.749 935.152,473.749 937.313,473.749 939.474,473.749 941.635,473.749 943.796,473.749 945.957,473.749 948.118,473.749 950.279,473.749 952.44,473.749 954.601,473.749 956.762,473.749 958.923,473.749 961.084,473.749 963.245,473.749 965.406,473.749 967.567,473.749 969.728,473.749 971.889,473.749 974.05,473.749 976.211,473.749 978.372,473.749 980.533,473.749 982.694,473.749 984.855,473.749 987.016,473.749 989.177,473.749 991.338,473.749 993.499,473.749 995.66,473.749 997.821,473.749 999.982,473.749 1002.14,473.749 1004.3,473.749 1006.46,473.749 1008.63,473.749 1010.79,473.749 1012.95,473.749 1015.11,473.749 1017.27,473.749 1019.43,473.749 1021.59,473.749 1023.75,473.749 1025.91,473.749 1028.07,473.749 1030.24,473.749 1032.4,473.749 1034.56,473.749 1036.72,473.749 1038.88,473.749 1041.04,473.749 1043.2,473.749 1045.36,473.749 1047.52,473.749 1049.68,473.749 1051.85,473.749 1054.01,473.749 1056.17,473.749 1058.33,592.898 1060.49,592.898 1062.65,592.898 1064.81,592.898 1066.97,592.898 1069.13,592.898 1071.29,592.898 1073.46,592.898 1075.62,592.898 1077.78,592.898 1079.94,592.898 1082.1,592.898 1084.26,592.898 1086.42,592.898 1088.58,592.898 1090.74,592.898 1092.9,592.898 1095.07,592.898 1097.23,592.898 1099.39,592.898 1101.55,592.898 1103.71,592.898 1105.87,592.898 1108.03,592.898 1110.19,592.898 1112.35,592.898 1114.51,592.898 1116.67,592.898 1118.84,592.898 1121,592.898 1123.16,592.898 1125.32,592.898 1127.48,592.898 1129.64,592.898 1131.8,592.898 1133.96,592.898 1136.12,592.898 1138.28,592.898 1140.45,592.898 1142.61,592.898 1144.77,592.898 1146.93,592.898 1149.09,592.898 1151.25,592.898 1153.41,592.898 1155.57,592.898 1157.73,592.898 1159.89,592.898 1162.06,592.898 1164.22,592.898 1166.38,592.898 1168.54,592.898 1170.7,592.898 1172.86,592.898 1175.02,592.898 1177.18,592.898 1179.34,592.898 1181.5,592.898 1183.67,592.898 1185.83,592.898 1187.99,592.898 1190.15,592.898 1192.31,592.898 1194.47,592.898 1196.63,592.898 1198.79,592.898 1200.95,592.898 1203.11,592.898 1205.28,592.898 1207.44,592.898 1209.6,592.898 1211.76,592.898 1213.92,592.898 1216.08,592.898 1218.24,592.898 1220.4,592.898 1222.56,592.898 1224.72,592.898 1226.88,592.898 1229.05,592.898 1231.21,592.898 1233.37,592.898 1235.53,592.898 1237.69,592.898 1239.85,592.898 1242.01,592.898 1244.17,592.898 1246.33,592.898 1248.49,592.898 1250.66,592.898 1252.82,592.898 1254.98,592.898 1257.14,592.898 1259.3,592.898 1261.46,592.898 1263.62,592.898 1265.78,592.898 1267.94,592.898 1270.1,592.898 1272.27,592.898 1274.43,296.106 1276.59,296.106 1278.75,296.106 1280.91,296.106 1283.07,296.106 1285.23,296.106 1287.39,296.106 1289.55,296.106 1291.71,296.106 1293.88,296.106 1296.04,296.106 1298.2,296.106 1300.36,296.106 1302.52,296.106 1304.68,296.106 1306.84,296.106 1309,296.106 1311.16,296.106 1313.32,296.106 1315.49,296.106 1317.65,296.106 1319.81,296.106 1321.97,296.106 1324.13,296.106 1326.29,296.106 1328.45,296.106 1330.61,296.106 1332.77,296.106 1334.93,296.106 1337.09,296.106 1339.26,296.106 1341.42,296.106 1343.58,296.106 1345.74,296.106 1347.9,296.106 1350.06,296.106 1352.22,296.106 1354.38,296.106 1356.54,296.106 1358.7,296.106 1360.87,296.106 1363.03,296.106 1365.19,296.106 1367.35,296.106 1369.51,296.106 1371.67,296.106 1373.83,296.106 1375.99,296.106 1378.15,296.106 1380.31,296.106 1382.48,296.106 1384.64,296.106 1386.8,296.106 1388.96,296.106 1391.12,296.106 1393.28,296.106 1395.44,296.106 1397.6,296.106 1399.76,296.106 1401.92,296.106 1404.09,296.106 1406.25,296.106 1408.41,296.106 1410.57,296.106 1412.73,296.106 1414.89,296.106 1417.05,296.106 1419.21,296.106 1421.37,296.106 1423.53,296.106 1425.7,296.106 1427.86,296.106 1430.02,296.106 1432.18,296.106 1434.34,296.106 1436.5,296.106 1438.66,296.106 1440.82,296.106 1442.98,296.106 1445.14,296.106 1447.3,296.106 1449.47,296.106 1451.63,296.106 1453.79,296.106 1455.95,296.106 1458.11,296.106 1460.27,296.106 1462.43,296.106 1464.59,296.106 1466.75,296.106 1468.91,296.106 1471.08,296.106 1473.24,296.106 1475.4,296.106 1477.56,296.106 1479.72,296.106 1481.88,296.106 1484.04,296.106 1486.2,296.106 1488.36,296.106 1490.52,421.104 1492.69,421.104 1494.85,421.104 1497.01,421.104 1499.17,421.104 1501.33,421.104 1503.49,421.104 1505.65,421.104 1507.81,421.104 1509.97,421.104 1512.13,421.104 1514.3,421.104 1516.46,421.104 1518.62,421.104 1520.78,421.104 1522.94,421.104 1525.1,421.104 1527.26,421.104 1529.42,421.104 1531.58,421.104 1533.74,421.104 1535.91,421.104 1538.07,421.104 1540.23,421.104 1542.39,421.104 1544.55,421.104 1546.71,421.104 1548.87,421.104 1551.03,421.104 1553.19,421.104 1555.35,421.104 1557.51,421.104 1559.68,421.104 1561.84,421.104 1564,421.104 1566.16,421.104 1568.32,421.104 1570.48,421.104 1572.64,421.104 1574.8,421.104 1576.96,421.104 1579.12,421.104 1581.29,421.104 1583.45,421.104 1585.61,421.104 1587.77,421.104 1589.93,421.104 1592.09,421.104 1594.25,421.104 1596.41,421.104 1598.57,421.104 1600.73,421.104 1602.9,421.104 1605.06,421.104 1607.22,421.104 1609.38,421.104 1611.54,421.104 1613.7,421.104 1615.86,421.104 1618.02,421.104 1620.18,421.104 1622.34,421.104 1624.51,421.104 1626.67,421.104 1628.83,421.104 1630.99,421.104 1633.15,421.104 1635.31,421.104 1637.47,421.104 1639.63,421.104 1641.79,421.104 1643.95,421.104 1646.12,421.104 1648.28,421.104 1650.44,421.104 1652.6,421.104 1654.76,421.104 1656.92,421.104 1659.08,421.104 1661.24,421.104 1663.4,421.104 1665.56,421.104 1667.72,421.104 1669.89,421.104 1672.05,421.104 1674.21,421.104 1676.37,421.104 1678.53,421.104 1680.69,421.104 1682.85,421.104 1685.01,421.104 1687.17,421.104 1689.33,421.104 1691.5,421.104 1693.66,421.104 1695.82,421.104 1697.98,421.104 1700.14,421.104 1702.3,421.104 1704.46,421.104 1706.62,86.1857 1708.78,86.1857 1710.94,86.1857 1713.11,86.1857 1715.27,86.1857 1717.43,86.1857 1719.59,86.1857 1721.75,86.1857 1723.91,86.1857 1726.07,86.1857 1728.23,86.1857 1730.39,86.1857 1732.55,86.1857 1734.72,86.1857 1736.88,86.1857 1739.04,86.1857 1741.2,86.1857 1743.36,86.1857 1745.52,86.1857 1747.68,86.1857 1749.84,86.1857 1752,86.1857 1754.16,86.1857 1756.33,86.1857 1758.49,86.1857 1760.65,86.1857 1762.81,86.1857 1764.97,86.1857 1767.13,86.1857 1769.29,86.1857 1771.45,86.1857 1773.61,86.1857 1775.77,86.1857 1777.93,86.1857 1780.1,86.1857 1782.26,86.1857 1784.42,86.1857 1786.58,86.1857 1788.74,86.1857 1790.9,86.1857 1793.06,86.1857 1795.22,86.1857 1797.38,86.1857 1799.54,86.1857 1801.71,86.1857 1803.87,86.1857 1806.03,86.1857 1808.19,86.1857 1810.35,86.1857 1812.51,86.1857 1814.67,86.1857 1816.83,86.1857 1818.99,86.1857 1821.15,86.1857 1823.32,86.1857 1825.48,86.1857 1827.64,86.1857 1829.8,86.1857 1831.96,86.1857 1834.12,86.1857 1836.28,86.1857 1838.44,86.1857 1840.6,86.1857 1842.76,86.1857 1844.93,86.1857 1847.09,86.1857 1849.25,86.1857 1851.41,86.1857 1853.57,86.1857 1855.73,86.1857 1857.89,86.1857 1860.05,86.1857 1862.21,86.1857 1864.37,86.1857 1866.54,86.1857 1868.7,86.1857 1870.86,86.1857 1873.02,86.1857 1875.18,86.1857 1877.34,86.1857 1879.5,86.1857 1881.66,86.1857 1883.82,86.1857 1885.98,86.1857 1888.15,86.1857 1890.31,86.1857 1892.47,86.1857 1894.63,86.1857 1896.79,86.1857 1898.95,86.1857 1901.11,86.1857 1903.27,86.1857 1905.43,86.1857 1907.59,86.1857 1909.75,86.1857 1911.92,86.1857 1914.08,86.1857 1916.24,86.1857 1918.4,86.1857 1920.56,86.1857 1922.72,1384.24 1924.88,1384.24 1927.04,1384.24 1929.2,1384.24 1931.36,1384.24 1933.53,1384.24 1935.69,1384.24 1937.85,1384.24 1940.01,1384.24 1942.17,1384.24 1944.33,1384.24 1946.49,1384.24 1948.65,1384.24 1950.81,1384.24 1952.97,1384.24 1955.14,1384.24 1957.3,1384.24 1959.46,1384.24 1961.62,1384.24 1963.78,1384.24 1965.94,1384.24 1968.1,1384.24 1970.26,1384.24 1972.42,1384.24 1974.58,1384.24 1976.75,1384.24 1978.91,1384.24 1981.07,1384.24 1983.23,1384.24 1985.39,1384.24 1987.55,1384.24 1989.71,1384.24 1991.87,1384.24 1994.03,1384.24 1996.19,1384.24 1998.36,1384.24 2000.52,1384.24 2002.68,1384.24 2004.84,1384.24 2007,1384.24 2009.16,1384.24 2011.32,1384.24 2013.48,1384.24 2015.64,1384.24 2017.8,1384.24 2019.96,1384.24 2022.13,1384.24 2024.29,1384.24 2026.45,1384.24 2028.61,1384.24 2030.77,1384.24 2032.93,1384.24 2035.09,1384.24 2037.25,1384.24 2039.41,1384.24 2041.57,1384.24 2043.74,1384.24 2045.9,1384.24 2048.06,1384.24 2050.22,1384.24 2052.38,1384.24 2054.54,1384.24 2056.7,1384.24 2058.86,1384.24 2061.02,1384.24 2063.18,1384.24 2065.35,1384.24 2067.51,1384.24 2069.67,1384.24 2071.83,1384.24 2073.99,1384.24 2076.15,1384.24 2078.31,1384.24 2080.47,1384.24 2082.63,1384.24 2084.79,1384.24 2086.96,1384.24 2089.12,1384.24 2091.28,1384.24 2093.44,1384.24 2095.6,1384.24 2097.76,1384.24 2099.92,1384.24 2102.08,1384.24 2104.24,1384.24 2106.4,1384.24 2108.57,1384.24 2110.73,1384.24 2112.89,1384.24 2115.05,1384.24 2117.21,1384.24 2119.37,1384.24 2121.53,1384.24 2123.69,1384.24 2125.85,1384.24 2128.01,1384.24 2130.17,1384.24 2132.34,1384.24 2134.5,1384.24 2136.66,1384.24 2138.82,129.439 2140.98,129.439 2143.14,129.439 2145.3,129.439 2147.46,129.439 2149.62,129.439 2151.78,129.439 2153.95,129.439 2156.11,129.439 2158.27,129.439 2160.43,129.439 2162.59,129.439 2164.75,129.439 2166.91,129.439 2169.07,129.439 2171.23,129.439 2173.39,129.439 2175.56,129.439 2177.72,129.439 2179.88,129.439 2182.04,129.439 2184.2,129.439 2186.36,129.439 2188.52,129.439 2190.68,129.439 2192.84,129.439 2195,129.439 2197.17,129.439 2199.33,129.439 2201.49,129.439 2203.65,129.439 2205.81,129.439 2207.97,129.439 2210.13,129.439 2212.29,129.439 2214.45,129.439 2216.61,129.439 2218.78,129.439 2220.94,129.439 2223.1,129.439 2225.26,129.439 2227.42,129.439 2229.58,129.439 2231.74,129.439 2233.9,129.439 2236.06,129.439 2238.22,129.439 2240.38,129.439 2242.55,129.439 2244.71,129.439 2246.87,129.439 2249.03,129.439 2251.19,129.439 2253.35,129.439 2255.51,129.439 2257.67,129.439 2259.83,129.439 2261.99,129.439 2264.16,129.439 2266.32,129.439 2268.48,129.439 2270.64,129.439 2272.8,129.439 2274.96,129.439 2277.12,129.439 2279.28,129.439 2281.44,129.439 2283.6,129.439 2285.77,129.439 2287.93,129.439 2290.09,129.439 2292.25,129.439 2294.41,129.439 2296.57,129.439 2298.73,129.439 2300.89,129.439 2303.05,129.439 2305.21,129.439 2307.38,129.439 2309.54,129.439 2311.7,129.439 2313.86,129.439 2316.02,129.439 2318.18,129.439 2320.34,129.439 2322.5,129.439 2324.66,129.439 2326.82,129.439 2328.99,129.439 2331.15,129.439 2333.31,129.439 2335.47,129.439 2337.63,129.439 2339.79,129.439 2341.95,129.439 2344.11,129.439 2346.27,129.439 2348.43,129.439 2350.59,129.439 2352.76,129.439 "/>
<path clip-path="url(#clip580)" d="M265.897 1377.32 L506.917 1377.32 L506.917 1221.8 L265.897 1221.8  Z" fill="#ffffff" fill-rule="evenodd" fill-opacity="1"/>
<polyline clip-path="url(#clip580)" style="stroke:#000000; stroke-linecap:round; stroke-linejoin:round; stroke-width:4; stroke-opacity:1; fill:none" points="265.897,1377.32 506.917,1377.32 506.917,1221.8 265.897,1221.8 265.897,1377.32 "/>
<polyline clip-path="url(#clip580)" style="stroke:#009af9; stroke-linecap:round; stroke-linejoin:round; stroke-width:4; stroke-opacity:1; fill:none" points="289.884,1273.64 433.805,1273.64 "/>
<path clip-path="url(#clip580)" d="M482.444 1264.99 L473.069 1277.61 L482.931 1290.92 L477.907 1290.92 L470.361 1280.73 L462.815 1290.92 L457.792 1290.92 L467.861 1277.35 L458.648 1264.99 L463.671 1264.99 L470.546 1274.23 L477.421 1264.99 L482.444 1264.99 Z" fill="#000000" fill-rule="nonzero" fill-opacity="1" /><polyline clip-path="url(#clip580)" style="stroke:#e26f46; stroke-linecap:round; stroke-linejoin:round; stroke-width:4; stroke-opacity:1; fill:none" points="289.884,1325.48 433.805,1325.48 "/>
<path clip-path="url(#clip580)" d="M474.296 1306.74 L474.296 1310.28 L470.222 1310.28 Q467.931 1310.28 467.028 1311.2 Q466.148 1312.13 466.148 1314.54 L466.148 1316.83 L473.162 1316.83 L473.162 1320.14 L466.148 1320.14 L466.148 1342.76 L461.866 1342.76 L461.866 1320.14 L457.792 1320.14 L457.792 1316.83 L461.866 1316.83 L461.866 1315.02 Q461.866 1310.7 463.88 1308.73 Q465.894 1306.74 470.269 1306.74 L474.296 1306.74 Z" fill="#000000" fill-rule="nonzero" fill-opacity="1" /></svg>
