<?xml version="1.0" encoding="utf-8"?>
<svg xmlns="http://www.w3.org/2000/svg" xmlns:xlink="http://www.w3.org/1999/xlink" width="600" height="400" viewBox="0 0 2400 1600">
<defs>
  <clipPath id="clip150">
    <rect x="0" y="0" width="2400" height="1600"/>
  </clipPath>
</defs>
<path clip-path="url(#clip150)" d="M0 1600 L2400 1600 L2400 0 L0 0  Z" fill="#ffffff" fill-rule="evenodd" fill-opacity="1"/>
<defs>
  <clipPath id="clip151">
    <rect x="480" y="0" width="1681" height="1600"/>
  </clipPath>
</defs>
<path clip-path="url(#clip150)" d="M192.941 1423.18 L2352.76 1423.18 L2352.76 47.2441 L192.941 47.2441  Z" fill="#ffffff" fill-rule="evenodd" fill-opacity="1"/>
<defs>
  <clipPath id="clip152">
    <rect x="192" y="47" width="2161" height="1377"/>
  </clipPath>
</defs>
<polyline clip-path="url(#clip152)" style="stroke:#000000; stroke-linecap:round; stroke-linejoin:round; stroke-width:2; stroke-opacity:0.1; fill:none" points="192.941,1423.18 192.941,47.2441 "/>
<polyline clip-path="url(#clip152)" style="stroke:#000000; stroke-linecap:round; stroke-linejoin:round; stroke-width:2; stroke-opacity:0.1; fill:none" points="624.904,1423.18 624.904,47.2441 "/>
<polyline clip-path="url(#clip152)" style="stroke:#000000; stroke-linecap:round; stroke-linejoin:round; stroke-width:2; stroke-opacity:0.1; fill:none" points="1056.87,1423.18 1056.87,47.2441 "/>
<polyline clip-path="url(#clip152)" style="stroke:#000000; stroke-linecap:round; stroke-linejoin:round; stroke-width:2; stroke-opacity:0.1; fill:none" points="1488.83,1423.18 1488.83,47.2441 "/>
<polyline clip-path="url(#clip152)" style="stroke:#000000; stroke-linecap:round; stroke-linejoin:round; stroke-width:2; stroke-opacity:0.1; fill:none" points="1920.79,1423.18 1920.79,47.2441 "/>
<polyline clip-path="url(#clip152)" style="stroke:#000000; stroke-linecap:round; stroke-linejoin:round; stroke-width:2; stroke-opacity:0.1; fill:none" points="2352.76,1423.18 2352.76,47.2441 "/>
<polyline clip-path="url(#clip150)" style="stroke:#000000; stroke-linecap:round; stroke-linejoin:round; stroke-width:4; stroke-opacity:1; fill:none" points="192.941,1423.18 2352.76,1423.18 "/>
<polyline clip-path="url(#clip150)" style="stroke:#000000; stroke-linecap:round; stroke-linejoin:round; stroke-width:4; stroke-opacity:1; fill:none" points="192.941,1423.18 192.941,1404.28 "/>
<polyline clip-path="url(#clip150)" style="stroke:#000000; stroke-linecap:round; stroke-linejoin:round; stroke-width:4; stroke-opacity:1; fill:none" points="624.904,1423.18 624.904,1404.28 "/>
<polyline clip-path="url(#clip150)" style="stroke:#000000; stroke-linecap:round; stroke-linejoin:round; stroke-width:4; stroke-opacity:1; fill:none" points="1056.87,1423.18 1056.87,1404.28 "/>
<polyline clip-path="url(#clip150)" style="stroke:#000000; stroke-linecap:round; stroke-linejoin:round; stroke-width:4; stroke-opacity:1; fill:none" points="1488.83,1423.18 1488.83,1404.28 "/>
<polyline clip-path="url(#clip150)" style="stroke:#000000; stroke-linecap:round; stroke-linejoin:round; stroke-width:4; stroke-opacity:1; fill:none" points="1920.79,1423.18 1920.79,1404.28 "/>
<polyline clip-path="url(#clip150)" style="stroke:#000000; stroke-linecap:round; stroke-linejoin:round; stroke-width:4; stroke-opacity:1; fill:none" points="2352.76,1423.18 2352.76,1404.28 "/>
<path clip-path="url(#clip150)" d="M192.941 1454.1 Q189.33 1454.1 187.501 1457.66 Q185.695 1461.2 185.695 1468.33 Q185.695 1475.44 187.501 1479.01 Q189.33 1482.55 192.941 1482.55 Q196.575 1482.55 198.38 1479.01 Q200.209 1475.44 200.209 1468.33 Q200.209 1461.2 198.38 1457.66 Q196.575 1454.1 192.941 1454.1 M192.941 1450.39 Q198.751 1450.39 201.806 1455 Q204.885 1459.58 204.885 1468.33 Q204.885 1477.06 201.806 1481.67 Q198.751 1486.25 192.941 1486.25 Q187.13 1486.25 184.052 1481.67 Q180.996 1477.06 180.996 1468.33 Q180.996 1459.58 184.052 1455 Q187.13 1450.39 192.941 1450.39 Z" fill="#000000" fill-rule="nonzero" fill-opacity="1" /><path clip-path="url(#clip150)" d="M619.556 1481.64 L635.876 1481.64 L635.876 1485.58 L613.932 1485.58 L613.932 1481.64 Q616.594 1478.89 621.177 1474.26 Q625.783 1469.61 626.964 1468.27 Q629.209 1465.74 630.089 1464.01 Q630.992 1462.25 630.992 1460.56 Q630.992 1457.8 629.047 1456.07 Q627.126 1454.33 624.024 1454.33 Q621.825 1454.33 619.371 1455.09 Q616.941 1455.86 614.163 1457.41 L614.163 1452.69 Q616.987 1451.55 619.441 1450.97 Q621.894 1450.39 623.931 1450.39 Q629.302 1450.39 632.496 1453.08 Q635.691 1455.77 635.691 1460.26 Q635.691 1462.39 634.88 1464.31 Q634.093 1466.2 631.987 1468.8 Q631.408 1469.47 628.306 1472.69 Q625.205 1475.88 619.556 1481.64 Z" fill="#000000" fill-rule="nonzero" fill-opacity="1" /><path clip-path="url(#clip150)" d="M1059.88 1455.09 L1048.07 1473.54 L1059.88 1473.54 L1059.88 1455.09 M1058.65 1451.02 L1064.53 1451.02 L1064.53 1473.54 L1069.46 1473.54 L1069.46 1477.43 L1064.53 1477.43 L1064.53 1485.58 L1059.88 1485.58 L1059.88 1477.43 L1044.27 1477.43 L1044.27 1472.92 L1058.65 1451.02 Z" fill="#000000" fill-rule="nonzero" fill-opacity="1" /><path clip-path="url(#clip150)" d="M1489.23 1466.44 Q1486.09 1466.44 1484.23 1468.59 Q1482.41 1470.74 1482.41 1474.49 Q1482.41 1478.22 1484.23 1480.39 Q1486.09 1482.55 1489.23 1482.55 Q1492.38 1482.55 1494.21 1480.39 Q1496.06 1478.22 1496.06 1474.49 Q1496.06 1470.74 1494.21 1468.59 Q1492.38 1466.44 1489.23 1466.44 M1498.52 1451.78 L1498.52 1456.04 Q1496.76 1455.21 1494.95 1454.77 Q1493.17 1454.33 1491.41 1454.33 Q1486.78 1454.33 1484.33 1457.45 Q1481.9 1460.58 1481.55 1466.9 Q1482.92 1464.89 1484.98 1463.82 Q1487.04 1462.73 1489.51 1462.73 Q1494.72 1462.73 1497.73 1465.9 Q1500.76 1469.05 1500.76 1474.49 Q1500.76 1479.82 1497.61 1483.03 Q1494.47 1486.25 1489.23 1486.25 Q1483.24 1486.25 1480.07 1481.67 Q1476.9 1477.06 1476.9 1468.33 Q1476.9 1460.14 1480.79 1455.28 Q1484.67 1450.39 1491.23 1450.39 Q1492.98 1450.39 1494.77 1450.74 Q1496.57 1451.09 1498.52 1451.78 Z" fill="#000000" fill-rule="nonzero" fill-opacity="1" /><path clip-path="url(#clip150)" d="M1920.79 1469.17 Q1917.46 1469.17 1915.54 1470.95 Q1913.64 1472.73 1913.64 1475.86 Q1913.64 1478.98 1915.54 1480.77 Q1917.46 1482.55 1920.79 1482.55 Q1924.13 1482.55 1926.05 1480.77 Q1927.97 1478.96 1927.97 1475.86 Q1927.97 1472.73 1926.05 1470.95 Q1924.15 1469.17 1920.79 1469.17 M1916.12 1467.18 Q1913.11 1466.44 1911.42 1464.38 Q1909.75 1462.32 1909.75 1459.35 Q1909.75 1455.21 1912.69 1452.8 Q1915.65 1450.39 1920.79 1450.39 Q1925.95 1450.39 1928.89 1452.8 Q1931.83 1455.21 1931.83 1459.35 Q1931.83 1462.32 1930.14 1464.38 Q1928.48 1466.44 1925.49 1467.18 Q1928.87 1467.96 1930.75 1470.26 Q1932.64 1472.55 1932.64 1475.86 Q1932.64 1480.88 1929.57 1483.57 Q1926.51 1486.25 1920.79 1486.25 Q1915.08 1486.25 1912 1483.57 Q1908.94 1480.88 1908.94 1475.86 Q1908.94 1472.55 1910.84 1470.26 Q1912.74 1467.96 1916.12 1467.18 M1914.4 1459.79 Q1914.4 1462.48 1916.07 1463.98 Q1917.76 1465.49 1920.79 1465.49 Q1923.8 1465.49 1925.49 1463.98 Q1927.2 1462.48 1927.2 1459.79 Q1927.2 1457.11 1925.49 1455.6 Q1923.8 1454.1 1920.79 1454.1 Q1917.76 1454.1 1916.07 1455.6 Q1914.4 1457.11 1914.4 1459.79 Z" fill="#000000" fill-rule="nonzero" fill-opacity="1" /><path clip-path="url(#clip150)" d="M2327.44 1481.64 L2335.08 1481.64 L2335.08 1455.28 L2326.77 1456.95 L2326.77 1452.69 L2335.04 1451.02 L2339.71 1451.02 L2339.71 1481.64 L2347.35 1481.64 L2347.35 1485.58 L2327.44 1485.58 L2327.44 1481.64 Z" fill="#000000" fill-rule="nonzero" fill-opacity="1" /><path clip-path="url(#clip150)" d="M2366.8 1454.1 Q2363.18 1454.1 2361.36 1457.66 Q2359.55 1461.2 2359.55 1468.33 Q2359.55 1475.44 2361.36 1479.01 Q2363.18 1482.55 2366.8 1482.55 Q2370.43 1482.55 2372.23 1479.01 Q2374.06 1475.44 2374.06 1468.33 Q2374.06 1461.2 2372.23 1457.66 Q2370.43 1454.1 2366.8 1454.1 M2366.8 1450.39 Q2372.61 1450.39 2375.66 1455 Q2378.74 1459.58 2378.74 1468.33 Q2378.74 1477.06 2375.66 1481.67 Q2372.61 1486.25 2366.8 1486.25 Q2360.99 1486.25 2357.91 1481.67 Q2354.85 1477.06 2354.85 1468.33 Q2354.85 1459.58 2357.91 1455 Q2360.99 1450.39 2366.8 1450.39 Z" fill="#000000" fill-rule="nonzero" fill-opacity="1" /><path clip-path="url(#clip150)" d="M1271.91 1522.27 L1271.91 1532.4 L1283.97 1532.4 L1283.97 1536.95 L1271.91 1536.95 L1271.91 1556.3 Q1271.91 1560.66 1273.09 1561.9 Q1274.3 1563.14 1277.96 1563.14 L1283.97 1563.14 L1283.97 1568.04 L1277.96 1568.04 Q1271.18 1568.04 1268.6 1565.53 Q1266.02 1562.98 1266.02 1556.3 L1266.02 1536.95 L1261.72 1536.95 L1261.72 1532.4 L1266.02 1532.4 L1266.02 1522.27 L1271.91 1522.27 Z" fill="#000000" fill-rule="nonzero" fill-opacity="1" /><polyline clip-path="url(#clip152)" style="stroke:#000000; stroke-linecap:round; stroke-linejoin:round; stroke-width:2; stroke-opacity:0.1; fill:none" points="192.941,1346.06 2352.76,1346.06 "/>
<polyline clip-path="url(#clip152)" style="stroke:#000000; stroke-linecap:round; stroke-linejoin:round; stroke-width:2; stroke-opacity:0.1; fill:none" points="192.941,1056.78 2352.76,1056.78 "/>
<polyline clip-path="url(#clip152)" style="stroke:#000000; stroke-linecap:round; stroke-linejoin:round; stroke-width:2; stroke-opacity:0.1; fill:none" points="192.941,767.507 2352.76,767.507 "/>
<polyline clip-path="url(#clip152)" style="stroke:#000000; stroke-linecap:round; stroke-linejoin:round; stroke-width:2; stroke-opacity:0.1; fill:none" points="192.941,478.231 2352.76,478.231 "/>
<polyline clip-path="url(#clip152)" style="stroke:#000000; stroke-linecap:round; stroke-linejoin:round; stroke-width:2; stroke-opacity:0.1; fill:none" points="192.941,188.954 2352.76,188.954 "/>
<polyline clip-path="url(#clip150)" style="stroke:#000000; stroke-linecap:round; stroke-linejoin:round; stroke-width:4; stroke-opacity:1; fill:none" points="192.941,1423.18 192.941,47.2441 "/>
<polyline clip-path="url(#clip150)" style="stroke:#000000; stroke-linecap:round; stroke-linejoin:round; stroke-width:4; stroke-opacity:1; fill:none" points="192.941,1346.06 211.838,1346.06 "/>
<polyline clip-path="url(#clip150)" style="stroke:#000000; stroke-linecap:round; stroke-linejoin:round; stroke-width:4; stroke-opacity:1; fill:none" points="192.941,1056.78 211.838,1056.78 "/>
<polyline clip-path="url(#clip150)" style="stroke:#000000; stroke-linecap:round; stroke-linejoin:round; stroke-width:4; stroke-opacity:1; fill:none" points="192.941,767.507 211.838,767.507 "/>
<polyline clip-path="url(#clip150)" style="stroke:#000000; stroke-linecap:round; stroke-linejoin:round; stroke-width:4; stroke-opacity:1; fill:none" points="192.941,478.231 211.838,478.231 "/>
<polyline clip-path="url(#clip150)" style="stroke:#000000; stroke-linecap:round; stroke-linejoin:round; stroke-width:4; stroke-opacity:1; fill:none" points="192.941,188.954 211.838,188.954 "/>
<path clip-path="url(#clip150)" d="M50.9921 1346.51 L80.6679 1346.51 L80.6679 1350.45 L50.9921 1350.45 L50.9921 1346.51 Z" fill="#000000" fill-rule="nonzero" fill-opacity="1" /><path clip-path="url(#clip150)" d="M100.76 1331.86 Q97.1493 1331.86 95.3206 1335.42 Q93.515 1338.97 93.515 1346.1 Q93.515 1353.2 95.3206 1356.77 Q97.1493 1360.31 100.76 1360.31 Q104.395 1360.31 106.2 1356.77 Q108.029 1353.2 108.029 1346.1 Q108.029 1338.97 106.2 1335.42 Q104.395 1331.86 100.76 1331.86 M100.76 1328.16 Q106.571 1328.16 109.626 1332.76 Q112.705 1337.35 112.705 1346.1 Q112.705 1354.82 109.626 1359.43 Q106.571 1364.01 100.76 1364.01 Q94.9502 1364.01 91.8715 1359.43 Q88.816 1354.82 88.816 1346.1 Q88.816 1337.35 91.8715 1332.76 Q94.9502 1328.16 100.76 1328.16 Z" fill="#000000" fill-rule="nonzero" fill-opacity="1" /><path clip-path="url(#clip150)" d="M120.922 1357.46 L125.807 1357.46 L125.807 1363.34 L120.922 1363.34 L120.922 1357.46 Z" fill="#000000" fill-rule="nonzero" fill-opacity="1" /><path clip-path="url(#clip150)" d="M136.038 1328.78 L154.394 1328.78 L154.394 1332.72 L140.32 1332.72 L140.32 1341.19 Q141.339 1340.84 142.357 1340.68 Q143.376 1340.49 144.394 1340.49 Q150.181 1340.49 153.561 1343.66 Q156.941 1346.84 156.941 1352.25 Q156.941 1357.83 153.468 1360.93 Q149.996 1364.01 143.677 1364.01 Q141.501 1364.01 139.232 1363.64 Q136.987 1363.27 134.58 1362.53 L134.58 1357.83 Q136.663 1358.97 138.885 1359.52 Q141.107 1360.08 143.584 1360.08 Q147.589 1360.08 149.927 1357.97 Q152.265 1355.86 152.265 1352.25 Q152.265 1348.64 149.927 1346.53 Q147.589 1344.43 143.584 1344.43 Q141.709 1344.43 139.834 1344.85 Q137.982 1345.26 136.038 1346.14 L136.038 1328.78 Z" fill="#000000" fill-rule="nonzero" fill-opacity="1" /><path clip-path="url(#clip150)" d="M99.765 1042.58 Q96.1539 1042.58 94.3252 1046.15 Q92.5197 1049.69 92.5197 1056.82 Q92.5197 1063.93 94.3252 1067.49 Q96.1539 1071.03 99.765 1071.03 Q103.399 1071.03 105.205 1067.49 Q107.033 1063.93 107.033 1056.82 Q107.033 1049.69 105.205 1046.15 Q103.399 1042.58 99.765 1042.58 M99.765 1038.88 Q105.575 1038.88 108.631 1043.49 Q111.709 1048.07 111.709 1056.82 Q111.709 1065.55 108.631 1070.15 Q105.575 1074.74 99.765 1074.74 Q93.9549 1074.74 90.8762 1070.15 Q87.8206 1065.55 87.8206 1056.82 Q87.8206 1048.07 90.8762 1043.49 Q93.9549 1038.88 99.765 1038.88 Z" fill="#000000" fill-rule="nonzero" fill-opacity="1" /><path clip-path="url(#clip150)" d="M119.927 1068.18 L124.811 1068.18 L124.811 1074.06 L119.927 1074.06 L119.927 1068.18 Z" fill="#000000" fill-rule="nonzero" fill-opacity="1" /><path clip-path="url(#clip150)" d="M144.996 1042.58 Q141.385 1042.58 139.556 1046.15 Q137.751 1049.69 137.751 1056.82 Q137.751 1063.93 139.556 1067.49 Q141.385 1071.03 144.996 1071.03 Q148.63 1071.03 150.436 1067.49 Q152.265 1063.93 152.265 1056.82 Q152.265 1049.69 150.436 1046.15 Q148.63 1042.58 144.996 1042.58 M144.996 1038.88 Q150.806 1038.88 153.862 1043.49 Q156.941 1048.07 156.941 1056.82 Q156.941 1065.55 153.862 1070.15 Q150.806 1074.74 144.996 1074.74 Q139.186 1074.74 136.107 1070.15 Q133.052 1065.55 133.052 1056.82 Q133.052 1048.07 136.107 1043.49 Q139.186 1038.88 144.996 1038.88 Z" fill="#000000" fill-rule="nonzero" fill-opacity="1" /><path clip-path="url(#clip150)" d="M100.76 753.306 Q97.1493 753.306 95.3206 756.871 Q93.515 760.413 93.515 767.542 Q93.515 774.649 95.3206 778.213 Q97.1493 781.755 100.76 781.755 Q104.395 781.755 106.2 778.213 Q108.029 774.649 108.029 767.542 Q108.029 760.413 106.2 756.871 Q104.395 753.306 100.76 753.306 M100.76 749.602 Q106.571 749.602 109.626 754.209 Q112.705 758.792 112.705 767.542 Q112.705 776.269 109.626 780.875 Q106.571 785.459 100.76 785.459 Q94.9502 785.459 91.8715 780.875 Q88.816 776.269 88.816 767.542 Q88.816 758.792 91.8715 754.209 Q94.9502 749.602 100.76 749.602 Z" fill="#000000" fill-rule="nonzero" fill-opacity="1" /><path clip-path="url(#clip150)" d="M120.922 778.908 L125.807 778.908 L125.807 784.787 L120.922 784.787 L120.922 778.908 Z" fill="#000000" fill-rule="nonzero" fill-opacity="1" /><path clip-path="url(#clip150)" d="M136.038 750.227 L154.394 750.227 L154.394 754.163 L140.32 754.163 L140.32 762.635 Q141.339 762.288 142.357 762.126 Q143.376 761.94 144.394 761.94 Q150.181 761.94 153.561 765.112 Q156.941 768.283 156.941 773.7 Q156.941 779.278 153.468 782.38 Q149.996 785.459 143.677 785.459 Q141.501 785.459 139.232 785.088 Q136.987 784.718 134.58 783.977 L134.58 779.278 Q136.663 780.412 138.885 780.968 Q141.107 781.524 143.584 781.524 Q147.589 781.524 149.927 779.417 Q152.265 777.311 152.265 773.7 Q152.265 770.088 149.927 767.982 Q147.589 765.876 143.584 765.876 Q141.709 765.876 139.834 766.292 Q137.982 766.709 136.038 767.588 L136.038 750.227 Z" fill="#000000" fill-rule="nonzero" fill-opacity="1" /><path clip-path="url(#clip150)" d="M90.5752 491.576 L98.2141 491.576 L98.2141 465.21 L89.904 466.877 L89.904 462.618 L98.1678 460.951 L102.844 460.951 L102.844 491.576 L110.483 491.576 L110.483 495.511 L90.5752 495.511 L90.5752 491.576 Z" fill="#000000" fill-rule="nonzero" fill-opacity="1" /><path clip-path="url(#clip150)" d="M119.927 489.631 L124.811 489.631 L124.811 495.511 L119.927 495.511 L119.927 489.631 Z" fill="#000000" fill-rule="nonzero" fill-opacity="1" /><path clip-path="url(#clip150)" d="M144.996 464.03 Q141.385 464.03 139.556 467.594 Q137.751 471.136 137.751 478.266 Q137.751 485.372 139.556 488.937 Q141.385 492.479 144.996 492.479 Q148.63 492.479 150.436 488.937 Q152.265 485.372 152.265 478.266 Q152.265 471.136 150.436 467.594 Q148.63 464.03 144.996 464.03 M144.996 460.326 Q150.806 460.326 153.862 464.932 Q156.941 469.516 156.941 478.266 Q156.941 486.992 153.862 491.599 Q150.806 496.182 144.996 496.182 Q139.186 496.182 136.107 491.599 Q133.052 486.992 133.052 478.266 Q133.052 469.516 136.107 464.932 Q139.186 460.326 144.996 460.326 Z" fill="#000000" fill-rule="nonzero" fill-opacity="1" /><path clip-path="url(#clip150)" d="M91.5706 202.299 L99.2095 202.299 L99.2095 175.934 L90.8993 177.6 L90.8993 173.341 L99.1632 171.674 L103.839 171.674 L103.839 202.299 L111.478 202.299 L111.478 206.234 L91.5706 206.234 L91.5706 202.299 Z" fill="#000000" fill-rule="nonzero" fill-opacity="1" /><path clip-path="url(#clip150)" d="M120.922 200.355 L125.807 200.355 L125.807 206.234 L120.922 206.234 L120.922 200.355 Z" fill="#000000" fill-rule="nonzero" fill-opacity="1" /><path clip-path="url(#clip150)" d="M136.038 171.674 L154.394 171.674 L154.394 175.61 L140.32 175.61 L140.32 184.082 Q141.339 183.735 142.357 183.573 Q143.376 183.387 144.394 183.387 Q150.181 183.387 153.561 186.559 Q156.941 189.73 156.941 195.147 Q156.941 200.725 153.468 203.827 Q149.996 206.906 143.677 206.906 Q141.501 206.906 139.232 206.535 Q136.987 206.165 134.58 205.424 L134.58 200.725 Q136.663 201.859 138.885 202.415 Q141.107 202.971 143.584 202.971 Q147.589 202.971 149.927 200.864 Q152.265 198.758 152.265 195.147 Q152.265 191.535 149.927 189.429 Q147.589 187.323 143.584 187.323 Q141.709 187.323 139.834 187.739 Q137.982 188.156 136.038 189.035 L136.038 171.674 Z" fill="#000000" fill-rule="nonzero" fill-opacity="1" /><polyline clip-path="url(#clip152)" style="stroke:#009af9; stroke-linecap:round; stroke-linejoin:round; stroke-width:4; stroke-opacity:1; fill:none" points="192.941,1056.78 195.103,1043.92 197.265,1031.22 199.427,1018.69 201.589,1006.33 203.751,994.127 205.912,982.089 208.074,970.211 210.236,958.491 212.398,946.926 214.56,935.514 216.722,924.254 218.884,913.142 221.046,902.179 223.208,891.36 225.37,880.685 227.532,870.152 229.694,859.758 231.856,849.502 234.018,839.382 236.18,829.396 238.342,819.542 240.504,809.82 242.666,800.226 244.828,790.759 246.99,781.418 249.152,772.2 251.314,763.105 253.476,754.13 255.638,745.275 257.8,736.537 259.962,727.914 262.124,719.406 264.286,711.011 266.448,702.727 268.61,694.553 270.772,686.487 272.934,678.528 275.096,670.675 277.258,662.926 279.42,655.279 281.582,647.734 283.744,640.289 285.906,632.943 288.068,625.694 290.23,618.541 292.392,611.483 294.554,604.519 296.716,597.647 298.878,590.866 301.039,584.175 303.201,577.573 305.363,571.058 307.525,564.629 309.687,558.286 311.849,552.027 314.011,545.851 316.173,539.757 318.335,533.743 320.497,527.809 322.659,521.954 324.821,516.177 326.983,510.476 329.145,504.85 331.307,499.3 333.469,493.823 335.631,488.418 337.793,483.085 339.955,477.823 342.117,472.631 344.279,467.507 346.441,462.452 348.603,457.463 350.765,452.541 352.927,447.684 355.089,442.891 357.251,438.162 359.413,433.496 361.575,428.891 363.737,424.348 365.899,419.864 368.061,415.44 370.223,411.075 372.385,406.768 374.547,402.518 376.709,398.324 378.871,394.185 381.033,390.102 383.195,386.073 385.357,382.097 387.519,378.173 389.681,374.302 391.843,370.482 394.005,366.325 396.166,361.292 398.328,355.972 400.49,350.898 402.652,346.508 404.814,343.147 406.976,341.066 409.138,340.419 411.3,341.268 413.462,343.579 415.624,347.224 417.786,351.979 419.948,357.527 422.11,363.457 424.272,369.261 426.434,374.487 428.596,379.545 430.758,384.536 432.92,389.461 435.082,394.32 437.244,399.116 439.406,403.847 441.568,408.516 443.73,413.123 445.892,417.669 448.054,422.155 450.216,426.581 452.378,430.949 454.54,435.259 456.702,439.512 458.864,443.708 461.026,447.849 463.188,451.935 465.35,455.966 467.512,459.945 469.674,463.87 471.836,467.743 473.998,471.565 476.16,475.336 478.322,479.057 480.484,482.728 482.646,486.351 484.808,489.926 486.97,493.453 489.132,496.934 491.293,500.368 493.455,503.757 495.617,507.101 497.779,510.4 499.941,513.656 502.103,516.869 504.265,520.039 506.427,523.167 508.589,526.253 510.751,529.299 512.913,532.304 515.075,535.27 517.237,538.196 519.399,541.083 521.561,543.932 523.723,546.744 525.885,549.518 528.047,552.256 530.209,554.957 532.371,557.622 534.533,560.253 536.695,562.848 538.857,565.409 541.019,567.936 543.181,570.429 545.343,572.889 547.505,575.317 549.667,577.712 551.829,580.076 553.991,582.408 556.153,584.71 558.315,586.981 560.477,589.222 562.639,591.433 564.801,593.614 566.963,595.767 569.125,597.891 571.287,599.987 573.449,602.056 575.611,604.097 577.773,606.11 579.935,608.097 582.097,610.058 584.259,611.993 586.42,613.902 588.582,615.786 590.744,617.645 592.906,619.479 595.068,621.184 597.23,622.405 599.392,623.342 601.554,624.226 603.716,625.256 605.878,626.597 608.04,628.38 610.202,630.704 612.364,633.636 614.526,637.206 616.688,641.415 618.85,646.228 621.012,651.578 623.174,657.365 625.336,663.455 627.498,669.681 629.66,675.843 631.822,681.712 633.984,687.362 636.146,692.937 638.308,698.439 640.47,703.867 642.632,709.224 644.794,714.509 646.956,719.725 649.118,724.871 651.28,729.949 653.442,734.96 655.604,739.904 657.766,744.783 659.928,749.597 662.09,754.348 664.252,759.036 666.414,763.661 668.576,768.226 670.738,772.729 672.9,777.173 675.062,781.558 677.224,785.885 679.386,790.155 681.547,794.368 683.709,798.524 685.871,802.626 688.033,806.673 690.195,810.667 692.357,814.608 694.519,818.496 696.681,822.332 698.843,826.118 701.005,829.854 703.167,833.539 705.329,837.176 707.491,840.765 709.653,844.306 711.815,847.8 713.977,851.248 716.139,854.65 718.301,858.007 720.463,861.32 722.625,864.588 724.787,867.814 726.949,870.996 729.111,874.137 731.273,877.235 733.435,880.293 735.597,883.31 737.759,886.288 739.921,889.226 742.083,892.125 744.245,894.985 746.407,897.808 748.569,900.593 750.731,903.342 752.893,906.054 755.055,908.73 757.217,911.37 759.379,913.976 761.541,916.546 763.703,919.083 765.865,921.586 768.027,924.056 770.189,926.494 772.351,928.898 774.513,931.271 776.674,933.613 778.836,935.923 780.998,938.203 783.16,940.453 785.322,942.673 787.484,944.863 789.646,947.024 791.808,949.157 793.97,951.261 796.132,953.338 798.294,955.387 800.456,957.409 802.618,959.404 804.78,961.372 806.942,963.315 809.104,965.232 811.266,967.123 813.428,968.989 815.59,970.831 817.752,972.648 819.914,974.441 822.076,976.21 824.238,977.956 826.4,979.678 828.562,981.378 830.724,983.055 832.886,984.71 835.048,986.343 837.21,988.003 839.372,990.111 841.534,992.709 843.696,995.735 845.858,999.128 848.02,1002.83 850.182,1006.79 852.344,1010.96 854.506,1015.3 856.668,1019.75 858.83,1024.28 860.992,1028.86 863.154,1033.45 865.316,1038.03 867.478,1042.57 869.64,1047.05 871.801,1051.45 873.963,1055.76 876.125,1059.96 878.287,1064.06 880.449,1068.04 882.611,1071.9 884.773,1075.66 886.935,1079.31 889.097,1082.88 891.259,1086.36 893.421,1089.78 895.583,1093.16 897.745,1096.52 899.907,1099.9 902.069,1103.26 904.231,1106.58 906.393,1109.85 908.555,1113.08 910.717,1116.26 912.879,1119.41 915.041,1122.51 917.203,1125.57 919.365,1128.59 921.527,1131.57 923.689,1134.51 925.851,1137.41 928.013,1140.28 930.175,1143.1 932.337,1145.89 934.499,1148.64 936.661,1151.36 938.823,1154.03 940.985,1156.68 943.147,1159.29 945.309,1161.86 947.471,1164.4 949.633,1166.9 951.795,1169.38 953.957,1171.82 956.119,1174.22 958.281,1176.6 960.443,1178.94 962.605,1181.26 964.767,1183.54 966.928,1185.79 969.09,1188.01 971.252,1190.2 973.414,1192.37 975.576,1194.5 977.738,1196.61 979.9,1198.69 982.062,1200.74 984.224,1202.76 986.386,1204.76 988.548,1206.73 990.71,1208.67 992.872,1210.59 995.034,1212.48 997.196,1214.35 999.358,1216.19 1001.52,1218.01 1003.68,1219.81 1005.84,1221.58 1008.01,1223.32 1010.17,1225.05 1012.33,1226.75 1014.49,1228.43 1016.65,1230.09 1018.82,1231.72 1020.98,1233.33 1023.14,1234.93 1025.3,1236.5 1027.46,1238.05 1029.63,1239.57 1031.79,1241.08 1033.95,1242.57 1036.11,1244.04 1038.27,1245.49 1040.44,1246.92 1042.6,1248.33 1044.76,1249.73 1046.92,1251.1 1049.08,1252.46 1051.25,1253.79 1053.41,1255.11 1055.57,1256.34 1057.73,1256.13 1059.89,1254.25 1062.06,1250.99 1064.22,1246.63 1066.38,1241.42 1068.54,1235.57 1070.7,1229.29 1072.87,1222.75 1075.03,1216.1 1077.19,1209.47 1079.35,1202.95 1081.51,1196.63 1083.68,1190.56 1085.84,1184.76 1088,1179.24 1090.16,1173.97 1092.32,1168.92 1094.49,1164.01 1096.65,1159.16 1098.81,1154.23 1100.97,1149.25 1103.13,1144.33 1105.3,1139.48 1107.46,1134.69 1109.62,1129.96 1111.78,1125.3 1113.94,1120.7 1116.1,1116.16 1118.27,1111.68 1120.43,1107.26 1122.59,1102.89 1124.75,1098.59 1126.91,1094.34 1129.08,1090.15 1131.24,1086.02 1133.4,1081.94 1135.56,1077.91 1137.72,1073.94 1139.89,1070.02 1142.05,1066.15 1144.21,1062.33 1146.37,1058.57 1148.53,1054.85 1150.7,1051.18 1152.86,1047.56 1155.02,1043.99 1157.18,1040.47 1159.34,1036.99 1161.51,1033.56 1163.67,1030.18 1165.83,1026.84 1167.99,1023.54 1170.15,1020.29 1172.32,1017.08 1174.48,1013.92 1176.64,1010.79 1178.8,1007.71 1180.96,1004.67 1183.13,1001.67 1185.29,998.705 1187.45,995.782 1189.61,992.898 1191.77,990.052 1193.94,987.244 1196.1,984.474 1198.26,981.74 1200.42,979.042 1202.58,976.38 1204.75,973.753 1206.91,971.161 1209.07,968.604 1211.23,966.08 1213.39,963.59 1215.56,961.133 1217.72,958.709 1219.88,956.316 1222.04,953.956 1224.2,951.626 1226.37,949.328 1228.53,947.06 1230.69,944.822 1232.85,942.613 1235.01,940.434 1237.18,938.284 1239.34,936.163 1241.5,934.069 1243.66,932.003 1245.82,929.965 1247.99,927.954 1250.15,925.969 1252.31,924.011 1254.47,922.078 1256.63,920.172 1258.8,918.29 1260.96,916.434 1263.12,914.602 1265.28,912.794 1267.44,911.01 1269.61,909.25 1271.77,907.757 1273.93,907.59 1276.09,908.724 1278.25,910.99 1280.42,914.231 1282.58,918.297 1284.74,923.05 1286.9,928.362 1289.06,934.114 1291.23,940.195 1293.39,946.506 1295.55,952.959 1297.71,959.471 1299.87,965.974 1302.03,972.406 1304.2,978.717 1306.36,984.865 1308.52,990.82 1310.68,996.559 1312.84,1002.07 1315.01,1007.35 1317.17,1012.42 1319.33,1017.27 1321.49,1021.95 1323.65,1026.49 1325.82,1030.94 1327.98,1035.35 1330.14,1039.79 1332.3,1044.31 1334.46,1048.82 1336.63,1053.27 1338.79,1057.66 1340.95,1061.99 1343.11,1066.26 1345.27,1070.47 1347.44,1074.63 1349.6,1078.74 1351.76,1082.79 1353.92,1086.79 1356.08,1090.73 1358.25,1094.62 1360.41,1098.46 1362.57,1102.25 1364.73,1105.99 1366.89,1109.68 1369.06,1113.32 1371.22,1116.91 1373.38,1120.45 1375.54,1123.95 1377.7,1127.4 1379.87,1130.81 1382.03,1134.17 1384.19,1137.48 1386.35,1140.75 1388.51,1143.98 1390.68,1147.17 1392.84,1150.31 1395,1153.41 1397.16,1156.47 1399.32,1159.49 1401.49,1162.47 1403.65,1165.41 1405.81,1168.31 1407.97,1171.18 1410.13,1174 1412.3,1176.79 1414.46,1179.54 1416.62,1182.25 1418.78,1184.93 1420.94,1187.57 1423.11,1190.18 1425.27,1192.75 1427.43,1195.29 1429.59,1197.8 1431.75,1200.27 1433.92,1202.71 1436.08,1205.11 1438.24,1207.49 1440.4,1209.83 1442.56,1212.14 1444.73,1214.43 1446.89,1216.68 1449.05,1218.9 1451.21,1221.09 1453.37,1223.25 1455.54,1225.39 1457.7,1227.49 1459.86,1229.57 1462.02,1231.62 1464.18,1233.65 1466.35,1235.64 1468.51,1237.61 1470.67,1239.56 1472.83,1241.47 1474.99,1243.37 1477.16,1245.23 1479.32,1247.08 1481.48,1248.9 1483.64,1250.69 1485.8,1252.46 1487.97,1254.21 1490.13,1255.34 1492.29,1254.67 1494.45,1252.47 1496.61,1249.02 1498.77,1244.55 1500.94,1239.32 1503.1,1233.53 1505.26,1227.37 1507.42,1220.99 1509.58,1214.54 1511.75,1208.14 1513.91,1201.87 1516.07,1195.81 1518.23,1190.01 1520.39,1184.47 1522.56,1179.22 1524.72,1174.21 1526.88,1169.4 1529.04,1164.73 1531.2,1160.09 1533.37,1155.38 1535.53,1150.61 1537.69,1145.9 1539.85,1141.26 1542.01,1136.68 1544.18,1132.16 1546.34,1127.69 1548.5,1123.29 1550.66,1118.95 1552.82,1114.66 1554.99,1110.43 1557.15,1106.26 1559.31,1102.14 1561.47,1098.08 1563.63,1094.07 1565.8,1090.11 1567.96,1086.21 1570.12,1082.35 1572.28,1078.55 1574.44,1074.8 1576.61,1071.1 1578.77,1067.45 1580.93,1063.85 1583.09,1060.29 1585.25,1056.78 1587.42,1053.32 1589.58,1049.9 1591.74,1046.53 1593.9,1043.21 1596.06,1039.92 1598.23,1036.69 1600.39,1033.49 1602.55,1030.34 1604.71,1027.23 1606.87,1024.16 1609.04,1021.13 1611.2,1018.14 1613.36,1015.19 1615.52,1012.28 1617.68,1009.4 1619.85,1006.57 1622.01,1003.77 1624.17,1001.01 1626.33,998.292 1628.49,995.605 1630.66,992.954 1632.82,990.338 1634.98,987.757 1637.14,985.21 1639.3,982.697 1641.47,980.217 1643.63,977.77 1645.79,975.355 1647.95,972.973 1650.11,970.622 1652.28,968.302 1654.44,966.013 1656.6,963.754 1658.76,961.526 1660.92,959.326 1663.09,957.156 1665.25,955.015 1667.41,952.902 1669.57,950.817 1671.73,948.76 1673.9,946.74 1676.06,944.77 1678.22,942.843 1680.38,940.954 1682.54,939.098 1684.7,937.271 1686.87,935.468 1689.03,933.685 1691.19,931.919 1693.35,930.165 1695.51,928.42 1697.68,926.682 1699.84,924.949 1702,923.217 1704.16,921.486 1706.32,919.752 1708.49,918.016 1710.65,916.276 1712.81,914.532 1714.97,912.783 1717.13,911.029 1719.3,909.27 1721.46,907.507 1723.62,905.741 1725.78,903.973 1727.94,902.204 1730.11,900.437 1732.27,898.674 1734.43,896.916 1736.59,895.167 1738.75,893.43 1740.92,891.709 1743.08,890.006 1745.24,888.326 1747.4,886.673 1749.56,885.053 1751.73,883.468 1753.89,881.909 1756.05,880.37 1758.21,878.852 1760.37,877.354 1762.54,875.875 1764.7,874.417 1766.86,872.977 1769.02,871.557 1771.18,870.156 1773.35,868.773 1775.51,867.409 1777.67,866.062 1779.83,864.734 1781.99,863.423 1784.16,862.129 1786.32,860.853 1788.48,859.594 1790.64,858.351 1792.8,857.124 1794.97,855.914 1797.13,854.72 1799.29,853.542 1801.45,852.38 1803.61,851.233 1805.78,850.101 1807.94,848.983 1810.1,847.881 1812.26,846.793 1814.42,845.72 1816.59,844.661 1818.75,843.615 1820.91,842.584 1823.07,841.566 1825.23,840.562 1827.4,839.571 1829.56,838.594 1831.72,837.629 1833.88,836.677 1836.04,835.738 1838.21,834.811 1840.37,833.897 1842.53,832.994 1844.69,832.104 1846.85,831.226 1849.02,830.359 1851.18,829.504 1853.34,828.66 1855.5,827.827 1857.66,827.006 1859.83,826.195 1861.99,825.395 1864.15,824.606 1866.31,823.827 1868.47,823.059 1870.63,822.301 1872.8,821.553 1874.96,820.815 1877.12,820.087 1879.28,819.368 1881.44,818.659 1883.61,817.959 1885.77,817.269 1887.93,816.587 1890.09,815.915 1892.25,815.252 1894.42,814.597 1896.58,813.951 1898.74,813.314 1900.9,812.685 1903.06,812.064 1905.23,811.452 1907.39,810.848 1909.55,810.251 1911.71,809.663 1913.87,809.079 1916.04,808.21 1918.2,806.893 1920.36,805.172 1922.52,803.09 1924.68,800.686 1926.85,798 1929.01,795.067 1931.17,791.924 1933.33,788.602 1935.49,785.132 1937.66,781.545 1939.82,777.866 1941.98,774.122 1944.14,770.335 1946.3,766.528 1948.47,762.721 1950.63,758.93 1952.79,755.173 1954.95,751.464 1957.11,747.814 1959.28,744.234 1961.44,740.733 1963.6,737.317 1965.76,733.991 1967.92,730.759 1970.09,727.62 1972.25,724.575 1974.41,721.62 1976.57,718.752 1978.73,715.962 1980.9,713.245 1983.06,710.588 1985.22,707.98 1987.38,705.407 1989.54,702.854 1991.71,700.302 1993.87,697.733 1996.03,695.173 1998.19,692.647 2000.35,690.154 2002.52,687.694 2004.68,685.267 2006.84,682.872 2009,680.509 2011.16,678.178 2013.33,675.877 2015.49,673.606 2017.65,671.366 2019.81,669.156 2021.97,666.974 2024.14,664.822 2026.3,662.698 2028.46,660.603 2030.62,658.535 2032.78,656.495 2034.95,654.481 2037.11,652.495 2039.27,650.534 2041.43,648.6 2043.59,646.691 2045.76,644.808 2047.92,642.949 2050.08,641.116 2052.24,639.306 2054.4,637.521 2056.57,635.759 2058.73,634.02 2060.89,632.305 2063.05,630.612 2065.21,628.942 2067.37,627.294 2069.54,625.668 2071.7,624.063 2073.86,622.48 2076.02,620.917 2078.18,619.376 2080.35,617.855 2082.51,616.353 2084.67,614.872 2086.83,613.411 2088.99,611.969 2091.16,610.546 2093.32,609.141 2095.48,607.756 2097.64,606.389 2099.8,605.04 2101.97,603.708 2104.13,602.395 2106.29,601.099 2108.45,599.82 2110.61,598.558 2112.78,597.313 2114.94,596.084 2117.1,594.871 2119.26,593.675 2121.42,592.491 2123.59,590.594 2125.75,588.092 2127.91,585.779 2130.07,584.273 2132.23,584.015 2134.4,585.272 2136.56,588.134 2138.72,592.514 2140.88,598.15 2143.04,604.604 2145.21,611.262 2147.37,617.429 2149.53,623.363 2151.69,629.219 2153.85,634.996 2156.02,640.697 2158.18,646.322 2160.34,651.873 2162.5,657.351 2164.66,662.756 2166.83,668.089 2168.99,673.351 2171.15,678.544 2173.31,683.668 2175.47,688.724 2177.64,693.713 2179.8,698.635 2181.96,703.493 2184.12,708.286 2186.28,713.015 2188.45,717.682 2190.61,722.286 2192.77,726.83 2194.93,731.313 2197.09,735.737 2199.26,740.103 2201.42,744.41 2203.58,748.66 2205.74,752.854 2207.9,756.992 2210.07,761.075 2212.23,765.105 2214.39,769.08 2216.55,773.004 2218.71,776.875 2220.88,780.695 2223.04,784.464 2225.2,788.183 2227.36,791.853 2229.52,795.474 2231.69,799.048 2233.85,802.574 2236.01,806.053 2238.17,809.486 2240.33,812.874 2242.5,816.217 2244.66,819.515 2246.82,822.77 2248.98,825.981 2251.14,829.15 2253.3,832.277 2255.47,835.363 2257.63,838.407 2259.79,841.411 2261.95,844.376 2264.11,847.301 2266.28,850.187 2268.44,853.035 2270.6,855.845 2272.76,858.618 2274.92,861.354 2277.09,864.054 2279.25,866.718 2281.41,869.347 2283.57,871.941 2285.73,874.5 2287.9,877.026 2290.06,879.518 2292.22,881.977 2294.38,884.404 2296.54,886.798 2298.71,889.161 2300.87,891.492 2303.03,893.792 2305.19,896.062 2307.35,898.302 2309.52,900.512 2311.68,902.693 2313.84,904.845 2316,906.968 2318.16,909.063 2320.33,911.131 2322.49,913.171 2324.65,915.184 2326.81,917.17 2328.97,919.13 2331.14,921.064 2333.3,922.972 2335.46,924.855 2337.62,926.713 2339.78,928.546 2341.95,930.355 2344.11,932.14 2346.27,933.902 2348.43,935.64 2350.59,937.355 2352.76,939.047 "/>
<polyline clip-path="url(#clip152)" style="stroke:#e26f46; stroke-linecap:round; stroke-linejoin:round; stroke-width:4; stroke-opacity:1; fill:none" points="192.941,86.1857 195.103,86.1857 197.265,86.1857 199.427,86.1857 201.589,86.1857 203.751,86.1857 205.912,86.1857 208.074,86.1857 210.236,86.1857 212.398,86.1857 214.56,86.1857 216.722,86.1857 218.884,86.1857 221.046,86.1857 223.208,86.1857 225.37,86.1857 227.532,86.1857 229.694,86.1857 231.856,86.1857 234.018,86.1857 236.18,86.1857 238.342,86.1857 240.504,86.1857 242.666,86.1857 244.828,86.1857 246.99,86.1857 249.152,86.1857 251.314,86.1857 253.476,86.1857 255.638,86.1857 257.8,86.1857 259.962,86.1857 262.124,86.1857 264.286,86.1857 266.448,86.1857 268.61,86.1857 270.772,86.1857 272.934,86.1857 275.096,86.1857 277.258,86.1857 279.42,86.1857 281.582,86.1857 283.744,86.1857 285.906,86.1857 288.068,86.1857 290.23,86.1857 292.392,86.1857 294.554,86.1857 296.716,86.1857 298.878,86.1857 301.039,86.1857 303.201,86.1857 305.363,86.1857 307.525,86.1857 309.687,86.1857 311.849,86.1857 314.011,86.1857 316.173,86.1857 318.335,86.1857 320.497,86.1857 322.659,86.1857 324.821,86.1857 326.983,86.1857 329.145,86.1857 331.307,86.1857 333.469,86.1857 335.631,86.1857 337.793,86.1857 339.955,86.1857 342.117,86.1857 344.279,86.1857 346.441,86.1857 348.603,86.1857 350.765,86.1857 352.927,86.1857 355.089,86.1857 357.251,86.1857 359.413,86.1857 361.575,86.1857 363.737,86.1857 365.899,86.1857 368.061,86.1857 370.223,86.1857 372.385,86.1857 374.547,86.1857 376.709,86.1857 378.871,86.1857 381.033,86.1857 383.195,86.1857 385.357,86.1857 387.519,86.1857 389.681,86.1857 391.843,86.1857 394.005,86.1857 396.166,86.1857 398.328,86.1857 400.49,86.1857 402.652,86.1857 404.814,86.1857 406.976,86.1857 409.138,755.996 411.3,755.996 413.462,755.996 415.624,755.996 417.786,755.996 419.948,755.996 422.11,755.996 424.272,755.996 426.434,755.996 428.596,755.996 430.758,755.996 432.92,755.996 435.082,755.996 437.244,755.996 439.406,755.996 441.568,755.996 443.73,755.996 445.892,755.996 448.054,755.996 450.216,755.996 452.378,755.996 454.54,755.996 456.702,755.996 458.864,755.996 461.026,755.996 463.188,755.996 465.35,755.996 467.512,755.996 469.674,755.996 471.836,755.996 473.998,755.996 476.16,755.996 478.322,755.996 480.484,755.996 482.646,755.996 484.808,755.996 486.97,755.996 489.132,755.996 491.293,755.996 493.455,755.996 495.617,755.996 497.779,755.996 499.941,755.996 502.103,755.996 504.265,755.996 506.427,755.996 508.589,755.996 510.751,755.996 512.913,755.996 515.075,755.996 517.237,755.996 519.399,755.996 521.561,755.996 523.723,755.996 525.885,755.996 528.047,755.996 530.209,755.996 532.371,755.996 534.533,755.996 536.695,755.996 538.857,755.996 541.019,755.996 543.181,755.996 545.343,755.996 547.505,755.996 549.667,755.996 551.829,755.996 553.991,755.996 556.153,755.996 558.315,755.996 560.477,755.996 562.639,755.996 564.801,755.996 566.963,755.996 569.125,755.996 571.287,755.996 573.449,755.996 575.611,755.996 577.773,755.996 579.935,755.996 582.097,755.996 584.259,755.996 586.42,755.996 588.582,755.996 590.744,755.996 592.906,755.996 595.068,755.996 597.23,755.996 599.392,755.996 601.554,755.996 603.716,755.996 605.878,755.996 608.04,755.996 610.202,755.996 612.364,755.996 614.526,755.996 616.688,755.996 618.85,755.996 621.012,755.996 623.174,755.996 625.336,1107.89 627.498,1107.89 629.66,1107.89 631.822,1107.89 633.984,1107.89 636.146,1107.89 638.308,1107.89 640.47,1107.89 642.632,1107.89 644.794,1107.89 646.956,1107.89 649.118,1107.89 651.28,1107.89 653.442,1107.89 655.604,1107.89 657.766,1107.89 659.928,1107.89 662.09,1107.89 664.252,1107.89 666.414,1107.89 668.576,1107.89 670.738,1107.89 672.9,1107.89 675.062,1107.89 677.224,1107.89 679.386,1107.89 681.547,1107.89 683.709,1107.89 685.871,1107.89 688.033,1107.89 690.195,1107.89 692.357,1107.89 694.519,1107.89 696.681,1107.89 698.843,1107.89 701.005,1107.89 703.167,1107.89 705.329,1107.89 707.491,1107.89 709.653,1107.89 711.815,1107.89 713.977,1107.89 716.139,1107.89 718.301,1107.89 720.463,1107.89 722.625,1107.89 724.787,1107.89 726.949,1107.89 729.111,1107.89 731.273,1107.89 733.435,1107.89 735.597,1107.89 737.759,1107.89 739.921,1107.89 742.083,1107.89 744.245,1107.89 746.407,1107.89 748.569,1107.89 750.731,1107.89 752.893,1107.89 755.055,1107.89 757.217,1107.89 759.379,1107.89 761.541,1107.89 763.703,1107.89 765.865,1107.89 768.027,1107.89 770.189,1107.89 772.351,1107.89 774.513,1107.89 776.674,1107.89 778.836,1107.89 780.998,1107.89 783.16,1107.89 785.322,1107.89 787.484,1107.89 789.646,1107.89 791.808,1107.89 793.97,1107.89 796.132,1107.89 798.294,1107.89 800.456,1107.89 802.618,1107.89 804.78,1107.89 806.942,1107.89 809.104,1107.89 811.266,1107.89 813.428,1107.89 815.59,1107.89 817.752,1107.89 819.914,1107.89 822.076,1107.89 824.238,1107.89 826.4,1107.89 828.562,1107.89 830.724,1107.89 832.886,1107.89 835.048,1107.89 837.21,1107.89 839.372,1107.89 841.534,1353.38 843.696,1353.38 845.858,1353.38 848.02,1353.38 850.182,1353.38 852.344,1353.38 854.506,1353.38 856.668,1353.38 858.83,1353.38 860.992,1353.38 863.154,1353.38 865.316,1353.38 867.478,1353.38 869.64,1353.38 871.801,1353.38 873.963,1353.38 876.125,1353.38 878.287,1353.38 880.449,1353.38 882.611,1353.38 884.773,1353.38 886.935,1353.38 889.097,1353.38 891.259,1353.38 893.421,1353.38 895.583,1353.38 897.745,1353.38 899.907,1353.38 902.069,1353.38 904.231,1353.38 906.393,1353.38 908.555,1353.38 910.717,1353.38 912.879,1353.38 915.041,1353.38 917.203,1353.38 919.365,1353.38 921.527,1353.38 923.689,1353.38 925.851,1353.38 928.013,1353.38 930.175,1353.38 932.337,1353.38 934.499,1353.38 936.661,1353.38 938.823,1353.38 940.985,1353.38 943.147,1353.38 945.309,1353.38 947.471,1353.38 949.633,1353.38 951.795,1353.38 953.957,1353.38 956.119,1353.38 958.281,1353.38 960.443,1353.38 962.605,1353.38 964.767,1353.38 966.928,1353.38 969.09,1353.38 971.252,1353.38 973.414,1353.38 975.576,1353.38 977.738,1353.38 979.9,1353.38 982.062,1353.38 984.224,1353.38 986.386,1353.38 988.548,1353.38 990.71,1353.38 992.872,1353.38 995.034,1353.38 997.196,1353.38 999.358,1353.38 1001.52,1353.38 1003.68,1353.38 1005.84,1353.38 1008.01,1353.38 1010.17,1353.38 1012.33,1353.38 1014.49,1353.38 1016.65,1353.38 1018.82,1353.38 1020.98,1353.38 1023.14,1353.38 1025.3,1353.38 1027.46,1353.38 1029.63,1353.38 1031.79,1353.38 1033.95,1353.38 1036.11,1353.38 1038.27,1353.38 1040.44,1353.38 1042.6,1353.38 1044.76,1353.38 1046.92,1353.38 1049.08,1353.38 1051.25,1353.38 1053.41,1353.38 1055.57,1353.38 1057.73,778.259 1059.89,778.259 1062.06,778.259 1064.22,778.259 1066.38,778.259 1068.54,778.259 1070.7,778.259 1072.87,778.259 1075.03,778.259 1077.19,778.259 1079.35,778.259 1081.51,778.259 1083.68,778.259 1085.84,778.259 1088,778.259 1090.16,778.259 1092.32,778.259 1094.49,778.259 1096.65,778.259 1098.81,778.259 1100.97,778.259 1103.13,778.259 1105.3,778.259 1107.46,778.259 1109.62,778.259 1111.78,778.259 1113.94,778.259 1116.1,778.259 1118.27,778.259 1120.43,778.259 1122.59,778.259 1124.75,778.259 1126.91,778.259 1129.08,778.259 1131.24,778.259 1133.4,778.259 1135.56,778.259 1137.72,778.259 1139.89,778.259 1142.05,778.259 1144.21,778.259 1146.37,778.259 1148.53,778.259 1150.7,778.259 1152.86,778.259 1155.02,778.259 1157.18,778.259 1159.34,778.259 1161.51,778.259 1163.67,778.259 1165.83,778.259 1167.99,778.259 1170.15,778.259 1172.32,778.259 1174.48,778.259 1176.64,778.259 1178.8,778.259 1180.96,778.259 1183.13,778.259 1185.29,778.259 1187.45,778.259 1189.61,778.259 1191.77,778.259 1193.94,778.259 1196.1,778.259 1198.26,778.259 1200.42,778.259 1202.58,778.259 1204.75,778.259 1206.91,778.259 1209.07,778.259 1211.23,778.259 1213.39,778.259 1215.56,778.259 1217.72,778.259 1219.88,778.259 1222.04,778.259 1224.2,778.259 1226.37,778.259 1228.53,778.259 1230.69,778.259 1232.85,778.259 1235.01,778.259 1237.18,778.259 1239.34,778.259 1241.5,778.259 1243.66,778.259 1245.82,778.259 1247.99,778.259 1250.15,778.259 1252.31,778.259 1254.47,778.259 1256.63,778.259 1258.8,778.259 1260.96,778.259 1263.12,778.259 1265.28,778.259 1267.44,778.259 1269.61,778.259 1271.77,778.259 1273.93,1384.24 1276.09,1384.24 1278.25,1384.24 1280.42,1384.24 1282.58,1384.24 1284.74,1384.24 1286.9,1384.24 1289.06,1384.24 1291.23,1384.24 1293.39,1384.24 1295.55,1384.24 1297.71,1384.24 1299.87,1384.24 1302.03,1384.24 1304.2,1384.24 1306.36,1384.24 1308.52,1384.24 1310.68,1384.24 1312.84,1384.24 1315.01,1384.24 1317.17,1384.24 1319.33,1384.24 1321.49,1384.24 1323.65,1384.24 1325.82,1384.24 1327.98,1384.24 1330.14,1384.24 1332.3,1384.24 1334.46,1384.24 1336.63,1384.24 1338.79,1384.24 1340.95,1384.24 1343.11,1384.24 1345.27,1384.24 1347.44,1384.24 1349.6,1384.24 1351.76,1384.24 1353.92,1384.24 1356.08,1384.24 1358.25,1384.24 1360.41,1384.24 1362.57,1384.24 1364.73,1384.24 1366.89,1384.24 1369.06,1384.24 1371.22,1384.24 1373.38,1384.24 1375.54,1384.24 1377.7,1384.24 1379.87,1384.24 1382.03,1384.24 1384.19,1384.24 1386.35,1384.24 1388.51,1384.24 1390.68,1384.24 1392.84,1384.24 1395,1384.24 1397.16,1384.24 1399.32,1384.24 1401.49,1384.24 1403.65,1384.24 1405.81,1384.24 1407.97,1384.24 1410.13,1384.24 1412.3,1384.24 1414.46,1384.24 1416.62,1384.24 1418.78,1384.24 1420.94,1384.24 1423.11,1384.24 1425.27,1384.24 1427.43,1384.24 1429.59,1384.24 1431.75,1384.24 1433.92,1384.24 1436.08,1384.24 1438.24,1384.24 1440.4,1384.24 1442.56,1384.24 1444.73,1384.24 1446.89,1384.24 1449.05,1384.24 1451.21,1384.24 1453.37,1384.24 1455.54,1384.24 1457.7,1384.24 1459.86,1384.24 1462.02,1384.24 1464.18,1384.24 1466.35,1384.24 1468.51,1384.24 1470.67,1384.24 1472.83,1384.24 1474.99,1384.24 1477.16,1384.24 1479.32,1384.24 1481.48,1384.24 1483.64,1384.24 1485.8,1384.24 1487.97,1384.24 1490.13,795.648 1492.29,795.648 1494.45,795.648 1496.61,795.648 1498.77,795.648 1500.94,795.648 1503.1,795.648 1505.26,795.648 1507.42,795.648 1509.58,795.648 1511.75,795.648 1513.91,795.648 1516.07,795.648 1518.23,795.648 1520.39,795.648 1522.56,795.648 1524.72,795.648 1526.88,795.648 1529.04,795.648 1531.2,795.648 1533.37,795.648 1535.53,795.648 1537.69,795.648 1539.85,795.648 1542.01,795.648 1544.18,795.648 1546.34,795.648 1548.5,795.648 1550.66,795.648 1552.82,795.648 1554.99,795.648 1557.15,795.648 1559.31,795.648 1561.47,795.648 1563.63,795.648 1565.8,795.648 1567.96,795.648 1570.12,795.648 1572.28,795.648 1574.44,795.648 1576.61,795.648 1578.77,795.648 1580.93,795.648 1583.09,795.648 1585.25,795.648 1587.42,795.648 1589.58,795.648 1591.74,795.648 1593.9,795.648 1596.06,795.648 1598.23,795.648 1600.39,795.648 1602.55,795.648 1604.71,795.648 1606.87,795.648 1609.04,795.648 1611.2,795.648 1613.36,795.648 1615.52,795.648 1617.68,795.648 1619.85,795.648 1622.01,795.648 1624.17,795.648 1626.33,795.648 1628.49,795.648 1630.66,795.648 1632.82,795.648 1634.98,795.648 1637.14,795.648 1639.3,795.648 1641.47,795.648 1643.63,795.648 1645.79,795.648 1647.95,795.648 1650.11,795.648 1652.28,795.648 1654.44,795.648 1656.6,795.648 1658.76,795.648 1660.92,795.648 1663.09,795.648 1665.25,795.648 1667.41,795.648 1669.57,795.648 1671.73,795.648 1673.9,795.648 1676.06,795.648 1678.22,795.648 1680.38,795.648 1682.54,795.648 1684.7,795.648 1686.87,795.648 1689.03,795.648 1691.19,795.648 1693.35,795.648 1695.51,795.648 1697.68,795.648 1699.84,795.648 1702,795.648 1704.16,795.648 1706.32,765.857 1708.49,765.857 1710.65,765.857 1712.81,765.857 1714.97,765.857 1717.13,765.857 1719.3,765.857 1721.46,765.857 1723.62,765.857 1725.78,765.857 1727.94,765.857 1730.11,765.857 1732.27,765.857 1734.43,765.857 1736.59,765.857 1738.75,765.857 1740.92,765.857 1743.08,765.857 1745.24,765.857 1747.4,765.857 1749.56,765.857 1751.73,765.857 1753.89,765.857 1756.05,765.857 1758.21,765.857 1760.37,765.857 1762.54,765.857 1764.7,765.857 1766.86,765.857 1769.02,765.857 1771.18,765.857 1773.35,765.857 1775.51,765.857 1777.67,765.857 1779.83,765.857 1781.99,765.857 1784.16,765.857 1786.32,765.857 1788.48,765.857 1790.64,765.857 1792.8,765.857 1794.97,765.857 1797.13,765.857 1799.29,765.857 1801.45,765.857 1803.61,765.857 1805.78,765.857 1807.94,765.857 1810.1,765.857 1812.26,765.857 1814.42,765.857 1816.59,765.857 1818.75,765.857 1820.91,765.857 1823.07,765.857 1825.23,765.857 1827.4,765.857 1829.56,765.857 1831.72,765.857 1833.88,765.857 1836.04,765.857 1838.21,765.857 1840.37,765.857 1842.53,765.857 1844.69,765.857 1846.85,765.857 1849.02,765.857 1851.18,765.857 1853.34,765.857 1855.5,765.857 1857.66,765.857 1859.83,765.857 1861.99,765.857 1864.15,765.857 1866.31,765.857 1868.47,765.857 1870.63,765.857 1872.8,765.857 1874.96,765.857 1877.12,765.857 1879.28,765.857 1881.44,765.857 1883.61,765.857 1885.77,765.857 1887.93,765.857 1890.09,765.857 1892.25,765.857 1894.42,765.857 1896.58,765.857 1898.74,765.857 1900.9,765.857 1903.06,765.857 1905.23,765.857 1907.39,765.857 1909.55,765.857 1911.71,765.857 1913.87,765.857 1916.04,765.857 1918.2,765.857 1920.36,765.857 1922.52,504.634 1924.68,504.634 1926.85,504.634 1929.01,504.634 1931.17,504.634 1933.33,504.634 1935.49,504.634 1937.66,504.634 1939.82,504.634 1941.98,504.634 1944.14,504.634 1946.3,504.634 1948.47,504.634 1950.63,504.634 1952.79,504.634 1954.95,504.634 1957.11,504.634 1959.28,504.634 1961.44,504.634 1963.6,504.634 1965.76,504.634 1967.92,504.634 1970.09,504.634 1972.25,504.634 1974.41,504.634 1976.57,504.634 1978.73,504.634 1980.9,504.634 1983.06,504.634 1985.22,504.634 1987.38,504.634 1989.54,504.634 1991.71,504.634 1993.87,504.634 1996.03,504.634 1998.19,504.634 2000.35,504.634 2002.52,504.634 2004.68,504.634 2006.84,504.634 2009,504.634 2011.16,504.634 2013.33,504.634 2015.49,504.634 2017.65,504.634 2019.81,504.634 2021.97,504.634 2024.14,504.634 2026.3,504.634 2028.46,504.634 2030.62,504.634 2032.78,504.634 2034.95,504.634 2037.11,504.634 2039.27,504.634 2041.43,504.634 2043.59,504.634 2045.76,504.634 2047.92,504.634 2050.08,504.634 2052.24,504.634 2054.4,504.634 2056.57,504.634 2058.73,504.634 2060.89,504.634 2063.05,504.634 2065.21,504.634 2067.37,504.634 2069.54,504.634 2071.7,504.634 2073.86,504.634 2076.02,504.634 2078.18,504.634 2080.35,504.634 2082.51,504.634 2084.67,504.634 2086.83,504.634 2088.99,504.634 2091.16,504.634 2093.32,504.634 2095.48,504.634 2097.64,504.634 2099.8,504.634 2101.97,504.634 2104.13,504.634 2106.29,504.634 2108.45,504.634 2110.61,504.634 2112.78,504.634 2114.94,504.634 2117.1,504.634 2119.26,504.634 2121.42,504.634 2123.59,504.634 2125.75,504.634 2127.91,504.634 2130.07,504.634 2132.23,504.634 2134.4,504.634 2136.56,504.634 2138.72,1065 2140.88,1065 2143.04,1065 2145.21,1065 2147.37,1065 2149.53,1065 2151.69,1065 2153.85,1065 2156.02,1065 2158.18,1065 2160.34,1065 2162.5,1065 2164.66,1065 2166.83,1065 2168.99,1065 2171.15,1065 2173.31,1065 2175.47,1065 2177.64,1065 2179.8,1065 2181.96,1065 2184.12,1065 2186.28,1065 2188.45,1065 2190.61,1065 2192.77,1065 2194.93,1065 2197.09,1065 2199.26,1065 2201.42,1065 2203.58,1065 2205.74,1065 2207.9,1065 2210.07,1065 2212.23,1065 2214.39,1065 2216.55,1065 2218.71,1065 2220.88,1065 2223.04,1065 2225.2,1065 2227.36,1065 2229.52,1065 2231.69,1065 2233.85,1065 2236.01,1065 2238.17,1065 2240.33,1065 2242.5,1065 2244.66,1065 2246.82,1065 2248.98,1065 2251.14,1065 2253.3,1065 2255.47,1065 2257.63,1065 2259.79,1065 2261.95,1065 2264.11,1065 2266.28,1065 2268.44,1065 2270.6,1065 2272.76,1065 2274.92,1065 2277.09,1065 2279.25,1065 2281.41,1065 2283.57,1065 2285.73,1065 2287.9,1065 2290.06,1065 2292.22,1065 2294.38,1065 2296.54,1065 2298.71,1065 2300.87,1065 2303.03,1065 2305.19,1065 2307.35,1065 2309.52,1065 2311.68,1065 2313.84,1065 2316,1065 2318.16,1065 2320.33,1065 2322.49,1065 2324.65,1065 2326.81,1065 2328.97,1065 2331.14,1065 2333.3,1065 2335.46,1065 2337.62,1065 2339.78,1065 2341.95,1065 2344.11,1065 2346.27,1065 2348.43,1065 2350.59,1065 2352.76,1065 "/>
<path clip-path="url(#clip150)" d="M2039.64 248.629 L2280.76 248.629 L2280.76 93.1086 L2039.64 93.1086  Z" fill="#ffffff" fill-rule="evenodd" fill-opacity="1"/>
<polyline clip-path="url(#clip150)" style="stroke:#000000; stroke-linecap:round; stroke-linejoin:round; stroke-width:4; stroke-opacity:1; fill:none" points="2039.64,248.629 2280.76,248.629 2280.76,93.1086 2039.64,93.1086 2039.64,248.629 "/>
<polyline clip-path="url(#clip150)" style="stroke:#009af9; stroke-linecap:round; stroke-linejoin:round; stroke-width:4; stroke-opacity:1; fill:none" points="2063.64,144.949 2207.63,144.949 "/>
<path clip-path="url(#clip150)" d="M2256.28 136.303 L2246.9 148.919 L2256.76 162.229 L2251.74 162.229 L2244.19 152.043 L2236.65 162.229 L2231.63 162.229 L2241.69 148.664 L2232.48 136.303 L2237.5 136.303 L2244.38 145.539 L2251.25 136.303 L2256.28 136.303 Z" fill="#000000" fill-rule="nonzero" fill-opacity="1" /><polyline clip-path="url(#clip150)" style="stroke:#e26f46; stroke-linecap:round; stroke-linejoin:round; stroke-width:4; stroke-opacity:1; fill:none" points="2063.64,196.789 2207.63,196.789 "/>
<path clip-path="url(#clip150)" d="M2248.13 178.05 L2248.13 181.592 L2244.06 181.592 Q2241.76 181.592 2240.86 182.518 Q2239.98 183.444 2239.98 185.851 L2239.98 188.143 L2247 188.143 L2247 191.453 L2239.98 191.453 L2239.98 214.069 L2235.7 214.069 L2235.7 191.453 L2231.63 191.453 L2231.63 188.143 L2235.7 188.143 L2235.7 186.337 Q2235.7 182.009 2237.71 180.041 Q2239.73 178.05 2244.1 178.05 L2248.13 178.05 Z" fill="#000000" fill-rule="nonzero" fill-opacity="1" /></svg>
