<?xml version="1.0" encoding="utf-8"?>
<svg xmlns="http://www.w3.org/2000/svg" xmlns:xlink="http://www.w3.org/1999/xlink" width="600" height="400" viewBox="0 0 2400 1600">
<defs>
  <clipPath id="clip480">
    <rect x="0" y="0" width="2400" height="1600"/>
  </clipPath>
</defs>
<path clip-path="url(#clip480)" d="M0 1600 L2400 1600 L2400 0 L0 0  Z" fill="#ffffff" fill-rule="evenodd" fill-opacity="1"/>
<defs>
  <clipPath id="clip481">
    <rect x="480" y="0" width="1681" height="1600"/>
  </clipPath>
</defs>
<path clip-path="url(#clip480)" d="M223.103 1423.18 L2352.76 1423.18 L2352.76 47.2441 L223.103 47.2441  Z" fill="#ffffff" fill-rule="evenodd" fill-opacity="1"/>
<defs>
  <clipPath id="clip482">
    <rect x="223" y="47" width="2131" height="1377"/>
  </clipPath>
</defs>
<polyline clip-path="url(#clip482)" style="stroke:#000000; stroke-linecap:round; stroke-linejoin:round; stroke-width:2; stroke-opacity:0.1; fill:none" points="223.103,1423.18 223.103,47.2441 "/>
<polyline clip-path="url(#clip482)" style="stroke:#000000; stroke-linecap:round; stroke-linejoin:round; stroke-width:2; stroke-opacity:0.1; fill:none" points="649.033,1423.18 649.033,47.2441 "/>
<polyline clip-path="url(#clip482)" style="stroke:#000000; stroke-linecap:round; stroke-linejoin:round; stroke-width:2; stroke-opacity:0.1; fill:none" points="1074.96,1423.18 1074.96,47.2441 "/>
<polyline clip-path="url(#clip482)" style="stroke:#000000; stroke-linecap:round; stroke-linejoin:round; stroke-width:2; stroke-opacity:0.1; fill:none" points="1500.89,1423.18 1500.89,47.2441 "/>
<polyline clip-path="url(#clip482)" style="stroke:#000000; stroke-linecap:round; stroke-linejoin:round; stroke-width:2; stroke-opacity:0.1; fill:none" points="1926.83,1423.18 1926.83,47.2441 "/>
<polyline clip-path="url(#clip482)" style="stroke:#000000; stroke-linecap:round; stroke-linejoin:round; stroke-width:2; stroke-opacity:0.1; fill:none" points="2352.76,1423.18 2352.76,47.2441 "/>
<polyline clip-path="url(#clip480)" style="stroke:#000000; stroke-linecap:round; stroke-linejoin:round; stroke-width:4; stroke-opacity:1; fill:none" points="223.103,1423.18 2352.76,1423.18 "/>
<polyline clip-path="url(#clip480)" style="stroke:#000000; stroke-linecap:round; stroke-linejoin:round; stroke-width:4; stroke-opacity:1; fill:none" points="223.103,1423.18 223.103,1404.28 "/>
<polyline clip-path="url(#clip480)" style="stroke:#000000; stroke-linecap:round; stroke-linejoin:round; stroke-width:4; stroke-opacity:1; fill:none" points="649.033,1423.18 649.033,1404.28 "/>
<polyline clip-path="url(#clip480)" style="stroke:#000000; stroke-linecap:round; stroke-linejoin:round; stroke-width:4; stroke-opacity:1; fill:none" points="1074.96,1423.18 1074.96,1404.28 "/>
<polyline clip-path="url(#clip480)" style="stroke:#000000; stroke-linecap:round; stroke-linejoin:round; stroke-width:4; stroke-opacity:1; fill:none" points="1500.89,1423.18 1500.89,1404.28 "/>
<polyline clip-path="url(#clip480)" style="stroke:#000000; stroke-linecap:round; stroke-linejoin:round; stroke-width:4; stroke-opacity:1; fill:none" points="1926.83,1423.18 1926.83,1404.28 "/>
<polyline clip-path="url(#clip480)" style="stroke:#000000; stroke-linecap:round; stroke-linejoin:round; stroke-width:4; stroke-opacity:1; fill:none" points="2352.76,1423.18 2352.76,1404.28 "/>
<path clip-path="url(#clip480)" d="M223.103 1454.1 Q219.491 1454.1 217.663 1457.66 Q215.857 1461.2 215.857 1468.33 Q215.857 1475.44 217.663 1479.01 Q219.491 1482.55 223.103 1482.55 Q226.737 1482.55 228.542 1479.01 Q230.371 1475.44 230.371 1468.33 Q230.371 1461.2 228.542 1457.66 Q226.737 1454.1 223.103 1454.1 M223.103 1450.39 Q228.913 1450.39 231.968 1455 Q235.047 1459.58 235.047 1468.33 Q235.047 1477.06 231.968 1481.67 Q228.913 1486.25 223.103 1486.25 Q217.292 1486.25 214.214 1481.67 Q211.158 1477.06 211.158 1468.33 Q211.158 1459.58 214.214 1455 Q217.292 1450.39 223.103 1450.39 Z" fill="#000000" fill-rule="nonzero" fill-opacity="1" /><path clip-path="url(#clip480)" d="M643.686 1481.64 L660.005 1481.64 L660.005 1485.58 L638.061 1485.58 L638.061 1481.64 Q640.723 1478.89 645.306 1474.26 Q649.913 1469.61 651.093 1468.27 Q653.339 1465.74 654.218 1464.01 Q655.121 1462.25 655.121 1460.56 Q655.121 1457.8 653.177 1456.07 Q651.255 1454.33 648.154 1454.33 Q645.955 1454.33 643.501 1455.09 Q641.07 1455.86 638.293 1457.41 L638.293 1452.69 Q641.117 1451.55 643.57 1450.97 Q646.024 1450.39 648.061 1450.39 Q653.431 1450.39 656.626 1453.08 Q659.82 1455.77 659.82 1460.26 Q659.82 1462.39 659.01 1464.31 Q658.223 1466.2 656.116 1468.8 Q655.538 1469.47 652.436 1472.69 Q649.334 1475.88 643.686 1481.64 Z" fill="#000000" fill-rule="nonzero" fill-opacity="1" /><path clip-path="url(#clip480)" d="M1077.97 1455.09 L1066.17 1473.54 L1077.97 1473.54 L1077.97 1455.09 M1076.75 1451.02 L1082.63 1451.02 L1082.63 1473.54 L1087.56 1473.54 L1087.56 1477.43 L1082.63 1477.43 L1082.63 1485.58 L1077.97 1485.58 L1077.97 1477.43 L1062.37 1477.43 L1062.37 1472.92 L1076.75 1451.02 Z" fill="#000000" fill-rule="nonzero" fill-opacity="1" /><path clip-path="url(#clip480)" d="M1501.3 1466.44 Q1498.15 1466.44 1496.3 1468.59 Q1494.47 1470.74 1494.47 1474.49 Q1494.47 1478.22 1496.3 1480.39 Q1498.15 1482.55 1501.3 1482.55 Q1504.45 1482.55 1506.28 1480.39 Q1508.13 1478.22 1508.13 1474.49 Q1508.13 1470.74 1506.28 1468.59 Q1504.45 1466.44 1501.3 1466.44 M1510.58 1451.78 L1510.58 1456.04 Q1508.82 1455.21 1507.02 1454.77 Q1505.23 1454.33 1503.48 1454.33 Q1498.85 1454.33 1496.39 1457.45 Q1493.96 1460.58 1493.61 1466.9 Q1494.98 1464.89 1497.04 1463.82 Q1499.1 1462.73 1501.58 1462.73 Q1506.79 1462.73 1509.79 1465.9 Q1512.83 1469.05 1512.83 1474.49 Q1512.83 1479.82 1509.68 1483.03 Q1506.53 1486.25 1501.3 1486.25 Q1495.3 1486.25 1492.13 1481.67 Q1488.96 1477.06 1488.96 1468.33 Q1488.96 1460.14 1492.85 1455.28 Q1496.74 1450.39 1503.29 1450.39 Q1505.05 1450.39 1506.83 1450.74 Q1508.64 1451.09 1510.58 1451.78 Z" fill="#000000" fill-rule="nonzero" fill-opacity="1" /><path clip-path="url(#clip480)" d="M1926.83 1469.17 Q1923.49 1469.17 1921.57 1470.95 Q1919.67 1472.73 1919.67 1475.86 Q1919.67 1478.98 1921.57 1480.77 Q1923.49 1482.55 1926.83 1482.55 Q1930.16 1482.55 1932.08 1480.77 Q1934 1478.96 1934 1475.86 Q1934 1472.73 1932.08 1470.95 Q1930.18 1469.17 1926.83 1469.17 M1922.15 1467.18 Q1919.14 1466.44 1917.45 1464.38 Q1915.78 1462.32 1915.78 1459.35 Q1915.78 1455.21 1918.72 1452.8 Q1921.69 1450.39 1926.83 1450.39 Q1931.99 1450.39 1934.93 1452.8 Q1937.87 1455.21 1937.87 1459.35 Q1937.87 1462.32 1936.18 1464.38 Q1934.51 1466.44 1931.52 1467.18 Q1934.9 1467.96 1936.78 1470.26 Q1938.68 1472.55 1938.68 1475.86 Q1938.68 1480.88 1935.6 1483.57 Q1932.54 1486.25 1926.83 1486.25 Q1921.11 1486.25 1918.03 1483.57 Q1914.97 1480.88 1914.97 1475.86 Q1914.97 1472.55 1916.87 1470.26 Q1918.77 1467.96 1922.15 1467.18 M1920.44 1459.79 Q1920.44 1462.48 1922.1 1463.98 Q1923.79 1465.49 1926.83 1465.49 Q1929.83 1465.49 1931.52 1463.98 Q1933.24 1462.48 1933.24 1459.79 Q1933.24 1457.11 1931.52 1455.6 Q1929.83 1454.1 1926.83 1454.1 Q1923.79 1454.1 1922.1 1455.6 Q1920.44 1457.11 1920.44 1459.79 Z" fill="#000000" fill-rule="nonzero" fill-opacity="1" /><path clip-path="url(#clip480)" d="M2327.44 1481.64 L2335.08 1481.64 L2335.08 1455.28 L2326.77 1456.95 L2326.77 1452.69 L2335.04 1451.02 L2339.71 1451.02 L2339.71 1481.64 L2347.35 1481.64 L2347.35 1485.58 L2327.44 1485.58 L2327.44 1481.64 Z" fill="#000000" fill-rule="nonzero" fill-opacity="1" /><path clip-path="url(#clip480)" d="M2366.8 1454.1 Q2363.18 1454.1 2361.36 1457.66 Q2359.55 1461.2 2359.55 1468.33 Q2359.55 1475.44 2361.36 1479.01 Q2363.18 1482.55 2366.8 1482.55 Q2370.43 1482.55 2372.23 1479.01 Q2374.06 1475.44 2374.06 1468.33 Q2374.06 1461.2 2372.23 1457.66 Q2370.43 1454.1 2366.8 1454.1 M2366.8 1450.39 Q2372.61 1450.39 2375.66 1455 Q2378.74 1459.58 2378.74 1468.33 Q2378.74 1477.06 2375.66 1481.67 Q2372.61 1486.25 2366.8 1486.25 Q2360.99 1486.25 2357.91 1481.67 Q2354.85 1477.06 2354.85 1468.33 Q2354.85 1459.58 2357.91 1455 Q2360.99 1450.39 2366.8 1450.39 Z" fill="#000000" fill-rule="nonzero" fill-opacity="1" /><path clip-path="url(#clip480)" d="M1286.99 1522.27 L1286.99 1532.4 L1299.05 1532.4 L1299.05 1536.95 L1286.99 1536.95 L1286.99 1556.3 Q1286.99 1560.66 1288.17 1561.9 Q1289.38 1563.14 1293.04 1563.14 L1299.05 1563.14 L1299.05 1568.04 L1293.04 1568.04 Q1286.26 1568.04 1283.68 1565.53 Q1281.1 1562.98 1281.1 1556.3 L1281.1 1536.95 L1276.81 1536.95 L1276.81 1532.4 L1281.1 1532.4 L1281.1 1522.27 L1286.99 1522.27 Z" fill="#000000" fill-rule="nonzero" fill-opacity="1" /><polyline clip-path="url(#clip482)" style="stroke:#000000; stroke-linecap:round; stroke-linejoin:round; stroke-width:2; stroke-opacity:0.1; fill:none" points="223.103,1282.59 2352.76,1282.59 "/>
<polyline clip-path="url(#clip482)" style="stroke:#000000; stroke-linecap:round; stroke-linejoin:round; stroke-width:2; stroke-opacity:0.1; fill:none" points="223.103,1100.15 2352.76,1100.15 "/>
<polyline clip-path="url(#clip482)" style="stroke:#000000; stroke-linecap:round; stroke-linejoin:round; stroke-width:2; stroke-opacity:0.1; fill:none" points="223.103,917.707 2352.76,917.707 "/>
<polyline clip-path="url(#clip482)" style="stroke:#000000; stroke-linecap:round; stroke-linejoin:round; stroke-width:2; stroke-opacity:0.1; fill:none" points="223.103,735.266 2352.76,735.266 "/>
<polyline clip-path="url(#clip482)" style="stroke:#000000; stroke-linecap:round; stroke-linejoin:round; stroke-width:2; stroke-opacity:0.1; fill:none" points="223.103,552.826 2352.76,552.826 "/>
<polyline clip-path="url(#clip482)" style="stroke:#000000; stroke-linecap:round; stroke-linejoin:round; stroke-width:2; stroke-opacity:0.1; fill:none" points="223.103,370.385 2352.76,370.385 "/>
<polyline clip-path="url(#clip482)" style="stroke:#000000; stroke-linecap:round; stroke-linejoin:round; stroke-width:2; stroke-opacity:0.1; fill:none" points="223.103,187.945 2352.76,187.945 "/>
<polyline clip-path="url(#clip480)" style="stroke:#000000; stroke-linecap:round; stroke-linejoin:round; stroke-width:4; stroke-opacity:1; fill:none" points="223.103,1423.18 223.103,47.2441 "/>
<polyline clip-path="url(#clip480)" style="stroke:#000000; stroke-linecap:round; stroke-linejoin:round; stroke-width:4; stroke-opacity:1; fill:none" points="223.103,1282.59 242,1282.59 "/>
<polyline clip-path="url(#clip480)" style="stroke:#000000; stroke-linecap:round; stroke-linejoin:round; stroke-width:4; stroke-opacity:1; fill:none" points="223.103,1100.15 242,1100.15 "/>
<polyline clip-path="url(#clip480)" style="stroke:#000000; stroke-linecap:round; stroke-linejoin:round; stroke-width:4; stroke-opacity:1; fill:none" points="223.103,917.707 242,917.707 "/>
<polyline clip-path="url(#clip480)" style="stroke:#000000; stroke-linecap:round; stroke-linejoin:round; stroke-width:4; stroke-opacity:1; fill:none" points="223.103,735.266 242,735.266 "/>
<polyline clip-path="url(#clip480)" style="stroke:#000000; stroke-linecap:round; stroke-linejoin:round; stroke-width:4; stroke-opacity:1; fill:none" points="223.103,552.826 242,552.826 "/>
<polyline clip-path="url(#clip480)" style="stroke:#000000; stroke-linecap:round; stroke-linejoin:round; stroke-width:4; stroke-opacity:1; fill:none" points="223.103,370.385 242,370.385 "/>
<polyline clip-path="url(#clip480)" style="stroke:#000000; stroke-linecap:round; stroke-linejoin:round; stroke-width:4; stroke-opacity:1; fill:none" points="223.103,187.945 242,187.945 "/>
<path clip-path="url(#clip480)" d="M50.9921 1283.04 L80.6679 1283.04 L80.6679 1286.97 L50.9921 1286.97 L50.9921 1283.04 Z" fill="#000000" fill-rule="nonzero" fill-opacity="1" /><path clip-path="url(#clip480)" d="M100.76 1268.39 Q97.1493 1268.39 95.3206 1271.95 Q93.515 1275.49 93.515 1282.62 Q93.515 1289.73 95.3206 1293.29 Q97.1493 1296.84 100.76 1296.84 Q104.395 1296.84 106.2 1293.29 Q108.029 1289.73 108.029 1282.62 Q108.029 1275.49 106.2 1271.95 Q104.395 1268.39 100.76 1268.39 M100.76 1264.68 Q106.571 1264.68 109.626 1269.29 Q112.705 1273.87 112.705 1282.62 Q112.705 1291.35 109.626 1295.96 Q106.571 1300.54 100.76 1300.54 Q94.9502 1300.54 91.8715 1295.96 Q88.816 1291.35 88.816 1282.62 Q88.816 1273.87 91.8715 1269.29 Q94.9502 1264.68 100.76 1264.68 Z" fill="#000000" fill-rule="nonzero" fill-opacity="1" /><path clip-path="url(#clip480)" d="M120.922 1293.99 L125.807 1293.99 L125.807 1299.87 L120.922 1299.87 L120.922 1293.99 Z" fill="#000000" fill-rule="nonzero" fill-opacity="1" /><path clip-path="url(#clip480)" d="M140.019 1295.93 L156.339 1295.93 L156.339 1299.87 L134.394 1299.87 L134.394 1295.93 Q137.056 1293.18 141.64 1288.55 Q146.246 1283.9 147.427 1282.55 Q149.672 1280.03 150.552 1278.29 Q151.455 1276.53 151.455 1274.84 Q151.455 1272.09 149.51 1270.35 Q147.589 1268.62 144.487 1268.62 Q142.288 1268.62 139.834 1269.38 Q137.404 1270.15 134.626 1271.7 L134.626 1266.97 Q137.45 1265.84 139.904 1265.26 Q142.357 1264.68 144.394 1264.68 Q149.765 1264.68 152.959 1267.37 Q156.154 1270.05 156.154 1274.54 Q156.154 1276.67 155.343 1278.59 Q154.556 1280.49 152.45 1283.09 Q151.871 1283.76 148.769 1286.97 Q145.668 1290.17 140.019 1295.93 Z" fill="#000000" fill-rule="nonzero" fill-opacity="1" /><path clip-path="url(#clip480)" d="M166.2 1265.31 L184.556 1265.31 L184.556 1269.24 L170.482 1269.24 L170.482 1277.71 Q171.501 1277.37 172.519 1277.21 Q173.538 1277.02 174.556 1277.02 Q180.343 1277.02 183.723 1280.19 Q187.103 1283.36 187.103 1288.78 Q187.103 1294.36 183.63 1297.46 Q180.158 1300.54 173.839 1300.54 Q171.663 1300.54 169.394 1300.17 Q167.149 1299.8 164.742 1299.06 L164.742 1294.36 Q166.825 1295.49 169.047 1296.05 Q171.269 1296.6 173.746 1296.6 Q177.751 1296.6 180.089 1294.5 Q182.427 1292.39 182.427 1288.78 Q182.427 1285.17 180.089 1283.06 Q177.751 1280.96 173.746 1280.96 Q171.871 1280.96 169.996 1281.37 Q168.144 1281.79 166.2 1282.67 L166.2 1265.31 Z" fill="#000000" fill-rule="nonzero" fill-opacity="1" /><path clip-path="url(#clip480)" d="M99.765 1085.95 Q96.1539 1085.95 94.3252 1089.51 Q92.5197 1093.05 92.5197 1100.18 Q92.5197 1107.29 94.3252 1110.85 Q96.1539 1114.39 99.765 1114.39 Q103.399 1114.39 105.205 1110.85 Q107.033 1107.29 107.033 1100.18 Q107.033 1093.05 105.205 1089.51 Q103.399 1085.95 99.765 1085.95 M99.765 1082.24 Q105.575 1082.24 108.631 1086.85 Q111.709 1091.43 111.709 1100.18 Q111.709 1108.91 108.631 1113.52 Q105.575 1118.1 99.765 1118.1 Q93.9549 1118.1 90.8762 1113.52 Q87.8206 1108.91 87.8206 1100.18 Q87.8206 1091.43 90.8762 1086.85 Q93.9549 1082.24 99.765 1082.24 Z" fill="#000000" fill-rule="nonzero" fill-opacity="1" /><path clip-path="url(#clip480)" d="M119.927 1111.55 L124.811 1111.55 L124.811 1117.43 L119.927 1117.43 L119.927 1111.55 Z" fill="#000000" fill-rule="nonzero" fill-opacity="1" /><path clip-path="url(#clip480)" d="M144.996 1085.95 Q141.385 1085.95 139.556 1089.51 Q137.751 1093.05 137.751 1100.18 Q137.751 1107.29 139.556 1110.85 Q141.385 1114.39 144.996 1114.39 Q148.63 1114.39 150.436 1110.85 Q152.265 1107.29 152.265 1100.18 Q152.265 1093.05 150.436 1089.51 Q148.63 1085.95 144.996 1085.95 M144.996 1082.24 Q150.806 1082.24 153.862 1086.85 Q156.941 1091.43 156.941 1100.18 Q156.941 1108.91 153.862 1113.52 Q150.806 1118.1 144.996 1118.1 Q139.186 1118.1 136.107 1113.52 Q133.052 1108.91 133.052 1100.18 Q133.052 1091.43 136.107 1086.85 Q139.186 1082.24 144.996 1082.24 Z" fill="#000000" fill-rule="nonzero" fill-opacity="1" /><path clip-path="url(#clip480)" d="M175.158 1085.95 Q171.547 1085.95 169.718 1089.51 Q167.913 1093.05 167.913 1100.18 Q167.913 1107.29 169.718 1110.85 Q171.547 1114.39 175.158 1114.39 Q178.792 1114.39 180.598 1110.85 Q182.427 1107.29 182.427 1100.18 Q182.427 1093.05 180.598 1089.51 Q178.792 1085.95 175.158 1085.95 M175.158 1082.24 Q180.968 1082.24 184.024 1086.85 Q187.103 1091.43 187.103 1100.18 Q187.103 1108.91 184.024 1113.52 Q180.968 1118.1 175.158 1118.1 Q169.348 1118.1 166.269 1113.52 Q163.214 1108.91 163.214 1100.18 Q163.214 1091.43 166.269 1086.85 Q169.348 1082.24 175.158 1082.24 Z" fill="#000000" fill-rule="nonzero" fill-opacity="1" /><path clip-path="url(#clip480)" d="M100.76 903.505 Q97.1493 903.505 95.3206 907.07 Q93.515 910.612 93.515 917.741 Q93.515 924.848 95.3206 928.413 Q97.1493 931.954 100.76 931.954 Q104.395 931.954 106.2 928.413 Q108.029 924.848 108.029 917.741 Q108.029 910.612 106.2 907.07 Q104.395 903.505 100.76 903.505 M100.76 899.802 Q106.571 899.802 109.626 904.408 Q112.705 908.991 112.705 917.741 Q112.705 926.468 109.626 931.075 Q106.571 935.658 100.76 935.658 Q94.9502 935.658 91.8715 931.075 Q88.816 926.468 88.816 917.741 Q88.816 908.991 91.8715 904.408 Q94.9502 899.802 100.76 899.802 Z" fill="#000000" fill-rule="nonzero" fill-opacity="1" /><path clip-path="url(#clip480)" d="M120.922 929.107 L125.807 929.107 L125.807 934.987 L120.922 934.987 L120.922 929.107 Z" fill="#000000" fill-rule="nonzero" fill-opacity="1" /><path clip-path="url(#clip480)" d="M140.019 931.052 L156.339 931.052 L156.339 934.987 L134.394 934.987 L134.394 931.052 Q137.056 928.297 141.64 923.667 Q146.246 919.015 147.427 917.672 Q149.672 915.149 150.552 913.413 Q151.455 911.653 151.455 909.964 Q151.455 907.209 149.51 905.473 Q147.589 903.737 144.487 903.737 Q142.288 903.737 139.834 904.501 Q137.404 905.265 134.626 906.816 L134.626 902.093 Q137.45 900.959 139.904 900.38 Q142.357 899.802 144.394 899.802 Q149.765 899.802 152.959 902.487 Q156.154 905.172 156.154 909.663 Q156.154 911.792 155.343 913.714 Q154.556 915.612 152.45 918.204 Q151.871 918.876 148.769 922.093 Q145.668 925.288 140.019 931.052 Z" fill="#000000" fill-rule="nonzero" fill-opacity="1" /><path clip-path="url(#clip480)" d="M166.2 900.427 L184.556 900.427 L184.556 904.362 L170.482 904.362 L170.482 912.834 Q171.501 912.487 172.519 912.325 Q173.538 912.14 174.556 912.14 Q180.343 912.14 183.723 915.311 Q187.103 918.482 187.103 923.899 Q187.103 929.477 183.63 932.579 Q180.158 935.658 173.839 935.658 Q171.663 935.658 169.394 935.288 Q167.149 934.917 164.742 934.177 L164.742 929.477 Q166.825 930.612 169.047 931.167 Q171.269 931.723 173.746 931.723 Q177.751 931.723 180.089 929.616 Q182.427 927.51 182.427 923.899 Q182.427 920.288 180.089 918.181 Q177.751 916.075 173.746 916.075 Q171.871 916.075 169.996 916.491 Q168.144 916.908 166.2 917.788 L166.2 900.427 Z" fill="#000000" fill-rule="nonzero" fill-opacity="1" /><path clip-path="url(#clip480)" d="M99.765 721.065 Q96.1539 721.065 94.3252 724.63 Q92.5197 728.171 92.5197 735.301 Q92.5197 742.407 94.3252 745.972 Q96.1539 749.514 99.765 749.514 Q103.399 749.514 105.205 745.972 Q107.033 742.407 107.033 735.301 Q107.033 728.171 105.205 724.63 Q103.399 721.065 99.765 721.065 M99.765 717.361 Q105.575 717.361 108.631 721.968 Q111.709 726.551 111.709 735.301 Q111.709 744.028 108.631 748.634 Q105.575 753.218 99.765 753.218 Q93.9549 753.218 90.8762 748.634 Q87.8206 744.028 87.8206 735.301 Q87.8206 726.551 90.8762 721.968 Q93.9549 717.361 99.765 717.361 Z" fill="#000000" fill-rule="nonzero" fill-opacity="1" /><path clip-path="url(#clip480)" d="M119.927 746.667 L124.811 746.667 L124.811 752.546 L119.927 752.546 L119.927 746.667 Z" fill="#000000" fill-rule="nonzero" fill-opacity="1" /><path clip-path="url(#clip480)" d="M135.043 717.986 L153.399 717.986 L153.399 721.921 L139.325 721.921 L139.325 730.394 Q140.343 730.046 141.362 729.884 Q142.381 729.699 143.399 729.699 Q149.186 729.699 152.566 732.87 Q155.945 736.042 155.945 741.458 Q155.945 747.037 152.473 750.139 Q149.001 753.218 142.681 753.218 Q140.506 753.218 138.237 752.847 Q135.992 752.477 133.584 751.736 L133.584 747.037 Q135.668 748.171 137.89 748.727 Q140.112 749.282 142.589 749.282 Q146.593 749.282 148.931 747.176 Q151.269 745.069 151.269 741.458 Q151.269 737.847 148.931 735.741 Q146.593 733.634 142.589 733.634 Q140.714 733.634 138.839 734.051 Q136.987 734.468 135.043 735.347 L135.043 717.986 Z" fill="#000000" fill-rule="nonzero" fill-opacity="1" /><path clip-path="url(#clip480)" d="M175.158 721.065 Q171.547 721.065 169.718 724.63 Q167.913 728.171 167.913 735.301 Q167.913 742.407 169.718 745.972 Q171.547 749.514 175.158 749.514 Q178.792 749.514 180.598 745.972 Q182.427 742.407 182.427 735.301 Q182.427 728.171 180.598 724.63 Q178.792 721.065 175.158 721.065 M175.158 717.361 Q180.968 717.361 184.024 721.968 Q187.103 726.551 187.103 735.301 Q187.103 744.028 184.024 748.634 Q180.968 753.218 175.158 753.218 Q169.348 753.218 166.269 748.634 Q163.214 744.028 163.214 735.301 Q163.214 726.551 166.269 721.968 Q169.348 717.361 175.158 717.361 Z" fill="#000000" fill-rule="nonzero" fill-opacity="1" /><path clip-path="url(#clip480)" d="M100.76 538.625 Q97.1493 538.625 95.3206 542.189 Q93.515 545.731 93.515 552.861 Q93.515 559.967 95.3206 563.532 Q97.1493 567.073 100.76 567.073 Q104.395 567.073 106.2 563.532 Q108.029 559.967 108.029 552.861 Q108.029 545.731 106.2 542.189 Q104.395 538.625 100.76 538.625 M100.76 534.921 Q106.571 534.921 109.626 539.527 Q112.705 544.111 112.705 552.861 Q112.705 561.587 109.626 566.194 Q106.571 570.777 100.76 570.777 Q94.9502 570.777 91.8715 566.194 Q88.816 561.587 88.816 552.861 Q88.816 544.111 91.8715 539.527 Q94.9502 534.921 100.76 534.921 Z" fill="#000000" fill-rule="nonzero" fill-opacity="1" /><path clip-path="url(#clip480)" d="M120.922 564.226 L125.807 564.226 L125.807 570.106 L120.922 570.106 L120.922 564.226 Z" fill="#000000" fill-rule="nonzero" fill-opacity="1" /><path clip-path="url(#clip480)" d="M134.811 535.546 L157.033 535.546 L157.033 537.537 L144.487 570.106 L139.603 570.106 L151.408 539.481 L134.811 539.481 L134.811 535.546 Z" fill="#000000" fill-rule="nonzero" fill-opacity="1" /><path clip-path="url(#clip480)" d="M166.2 535.546 L184.556 535.546 L184.556 539.481 L170.482 539.481 L170.482 547.953 Q171.501 547.606 172.519 547.444 Q173.538 547.259 174.556 547.259 Q180.343 547.259 183.723 550.43 Q187.103 553.601 187.103 559.018 Q187.103 564.597 183.63 567.698 Q180.158 570.777 173.839 570.777 Q171.663 570.777 169.394 570.407 Q167.149 570.036 164.742 569.296 L164.742 564.597 Q166.825 565.731 169.047 566.286 Q171.269 566.842 173.746 566.842 Q177.751 566.842 180.089 564.736 Q182.427 562.629 182.427 559.018 Q182.427 555.407 180.089 553.3 Q177.751 551.194 173.746 551.194 Q171.871 551.194 169.996 551.611 Q168.144 552.027 166.2 552.907 L166.2 535.546 Z" fill="#000000" fill-rule="nonzero" fill-opacity="1" /><path clip-path="url(#clip480)" d="M90.5752 383.73 L98.2141 383.73 L98.2141 357.365 L89.904 359.031 L89.904 354.772 L98.1678 353.105 L102.844 353.105 L102.844 383.73 L110.483 383.73 L110.483 387.665 L90.5752 387.665 L90.5752 383.73 Z" fill="#000000" fill-rule="nonzero" fill-opacity="1" /><path clip-path="url(#clip480)" d="M119.927 381.786 L124.811 381.786 L124.811 387.665 L119.927 387.665 L119.927 381.786 Z" fill="#000000" fill-rule="nonzero" fill-opacity="1" /><path clip-path="url(#clip480)" d="M144.996 356.184 Q141.385 356.184 139.556 359.749 Q137.751 363.291 137.751 370.42 Q137.751 377.527 139.556 381.091 Q141.385 384.633 144.996 384.633 Q148.63 384.633 150.436 381.091 Q152.265 377.527 152.265 370.42 Q152.265 363.291 150.436 359.749 Q148.63 356.184 144.996 356.184 M144.996 352.48 Q150.806 352.48 153.862 357.087 Q156.941 361.67 156.941 370.42 Q156.941 379.147 153.862 383.753 Q150.806 388.337 144.996 388.337 Q139.186 388.337 136.107 383.753 Q133.052 379.147 133.052 370.42 Q133.052 361.67 136.107 357.087 Q139.186 352.48 144.996 352.48 Z" fill="#000000" fill-rule="nonzero" fill-opacity="1" /><path clip-path="url(#clip480)" d="M175.158 356.184 Q171.547 356.184 169.718 359.749 Q167.913 363.291 167.913 370.42 Q167.913 377.527 169.718 381.091 Q171.547 384.633 175.158 384.633 Q178.792 384.633 180.598 381.091 Q182.427 377.527 182.427 370.42 Q182.427 363.291 180.598 359.749 Q178.792 356.184 175.158 356.184 M175.158 352.48 Q180.968 352.48 184.024 357.087 Q187.103 361.67 187.103 370.42 Q187.103 379.147 184.024 383.753 Q180.968 388.337 175.158 388.337 Q169.348 388.337 166.269 383.753 Q163.214 379.147 163.214 370.42 Q163.214 361.67 166.269 357.087 Q169.348 352.48 175.158 352.48 Z" fill="#000000" fill-rule="nonzero" fill-opacity="1" /><path clip-path="url(#clip480)" d="M91.5706 201.29 L99.2095 201.29 L99.2095 174.924 L90.8993 176.591 L90.8993 172.332 L99.1632 170.665 L103.839 170.665 L103.839 201.29 L111.478 201.29 L111.478 205.225 L91.5706 205.225 L91.5706 201.29 Z" fill="#000000" fill-rule="nonzero" fill-opacity="1" /><path clip-path="url(#clip480)" d="M120.922 199.345 L125.807 199.345 L125.807 205.225 L120.922 205.225 L120.922 199.345 Z" fill="#000000" fill-rule="nonzero" fill-opacity="1" /><path clip-path="url(#clip480)" d="M140.019 201.29 L156.339 201.29 L156.339 205.225 L134.394 205.225 L134.394 201.29 Q137.056 198.535 141.64 193.906 Q146.246 189.253 147.427 187.91 Q149.672 185.387 150.552 183.651 Q151.455 181.892 151.455 180.202 Q151.455 177.447 149.51 175.711 Q147.589 173.975 144.487 173.975 Q142.288 173.975 139.834 174.739 Q137.404 175.503 134.626 177.054 L134.626 172.332 Q137.45 171.197 139.904 170.619 Q142.357 170.04 144.394 170.04 Q149.765 170.04 152.959 172.725 Q156.154 175.41 156.154 179.901 Q156.154 182.031 155.343 183.952 Q154.556 185.85 152.45 188.443 Q151.871 189.114 148.769 192.332 Q145.668 195.526 140.019 201.29 Z" fill="#000000" fill-rule="nonzero" fill-opacity="1" /><path clip-path="url(#clip480)" d="M166.2 170.665 L184.556 170.665 L184.556 174.6 L170.482 174.6 L170.482 183.072 Q171.501 182.725 172.519 182.563 Q173.538 182.378 174.556 182.378 Q180.343 182.378 183.723 185.549 Q187.103 188.72 187.103 194.137 Q187.103 199.716 183.63 202.818 Q180.158 205.896 173.839 205.896 Q171.663 205.896 169.394 205.526 Q167.149 205.156 164.742 204.415 L164.742 199.716 Q166.825 200.85 169.047 201.406 Q171.269 201.961 173.746 201.961 Q177.751 201.961 180.089 199.855 Q182.427 197.748 182.427 194.137 Q182.427 190.526 180.089 188.42 Q177.751 186.313 173.746 186.313 Q171.871 186.313 169.996 186.73 Q168.144 187.146 166.2 188.026 L166.2 170.665 Z" fill="#000000" fill-rule="nonzero" fill-opacity="1" /><polyline clip-path="url(#clip482)" style="stroke:#009af9; stroke-linecap:round; stroke-linejoin:round; stroke-width:4; stroke-opacity:1; fill:none" points="223.103,1100.15 225.234,1103.59 227.366,1106.99 229.498,1110.35 231.63,1113.66 233.761,1116.93 235.893,1120.15 238.025,1123.33 240.157,1126.47 242.289,1129.57 244.42,1132.63 246.552,1135.64 248.684,1138.62 250.816,1141.55 252.948,1144.45 255.079,1147.31 257.211,1150.13 259.343,1152.92 261.475,1155.66 263.606,1158.37 265.738,1161.05 267.87,1163.69 270.002,1166.29 272.134,1168.86 274.265,1171.4 276.397,1173.9 278.529,1176.37 280.661,1178.8 282.792,1181.21 284.924,1183.58 287.056,1185.92 289.188,1188.23 291.32,1190.51 293.451,1192.75 295.583,1194.97 297.715,1197.16 299.847,1199.32 301.979,1201.45 304.11,1203.56 306.242,1205.63 308.374,1207.68 310.506,1209.7 312.637,1211.69 314.769,1213.66 316.901,1215.6 319.033,1217.52 321.165,1219.41 323.296,1221.27 325.428,1223.12 327.56,1224.93 329.692,1226.72 331.824,1228.49 333.955,1230.24 336.087,1231.96 338.219,1233.66 340.351,1235.33 342.482,1236.99 344.614,1238.62 346.746,1240.23 348.878,1241.82 351.01,1243.39 353.141,1244.93 355.273,1246.46 357.405,1247.97 359.537,1249.45 361.669,1250.92 363.8,1252.37 365.932,1253.8 368.064,1255.21 370.196,1256.6 372.327,1257.97 374.459,1259.32 376.591,1260.66 378.723,1261.98 380.855,1263.28 382.986,1264.56 385.118,1265.83 387.25,1267.08 389.382,1268.31 391.514,1269.53 393.645,1270.73 395.777,1271.91 397.909,1273.08 400.041,1274.24 402.172,1275.38 404.304,1276.5 406.436,1277.61 408.568,1278.7 410.7,1279.78 412.831,1280.84 414.963,1281.9 417.095,1282.93 419.227,1283.96 421.359,1284.96 423.49,1285.96 425.622,1286.94 427.754,1287.91 429.886,1288.87 432.017,1289.81 434.149,1290.75 436.281,1291.61 438.413,1291.7 440.545,1290.89 442.676,1289.28 444.808,1286.96 446.94,1284.03 449.072,1280.58 451.204,1276.68 453.335,1272.41 455.467,1267.85 457.599,1263.07 459.731,1258.11 461.862,1253.05 463.994,1247.92 466.126,1242.78 468.258,1237.67 470.39,1232.61 472.521,1227.65 474.653,1222.8 476.785,1218.08 478.917,1213.52 481.049,1209.11 483.18,1204.87 485.312,1200.78 487.444,1196.85 489.576,1193.07 491.707,1189.4 493.839,1185.84 495.971,1182.36 498.103,1178.92 500.235,1175.49 502.366,1172.02 504.498,1168.51 506.63,1165.04 508.762,1161.61 510.894,1158.24 513.025,1154.9 515.157,1151.61 517.289,1148.36 519.421,1145.16 521.552,1142 523.684,1138.88 525.816,1135.8 527.948,1132.77 530.08,1129.77 532.211,1126.81 534.343,1123.9 536.475,1121.02 538.607,1118.17 540.739,1115.37 542.87,1112.61 545.002,1109.88 547.134,1107.18 549.266,1104.52 551.397,1101.9 553.529,1099.31 555.661,1096.76 557.793,1094.24 559.925,1091.76 562.056,1089.3 564.188,1086.88 566.32,1084.49 568.452,1082.14 570.583,1079.81 572.715,1077.52 574.847,1075.25 576.979,1073.02 579.111,1070.81 581.242,1068.64 583.374,1066.49 585.506,1064.38 587.638,1062.29 589.77,1060.22 591.901,1058.19 594.033,1056.18 596.165,1054.2 598.297,1052.25 600.428,1050.32 602.56,1048.41 604.692,1046.53 606.824,1044.68 608.956,1042.85 611.087,1041.05 613.219,1039.27 615.351,1037.51 617.483,1035.78 619.615,1034.07 621.746,1032.38 623.878,1030.71 626.01,1029.07 628.142,1027.45 630.273,1025.85 632.405,1024.27 634.537,1022.71 636.669,1021.17 638.801,1019.65 640.932,1018.16 643.064,1016.68 645.196,1015.22 647.328,1013.78 649.46,1012.52 651.591,1012.01 653.723,1012.19 655.855,1012.91 657.987,1014.02 660.118,1015.43 662.25,1017.02 664.382,1018.7 666.514,1020.41 668.646,1022.1 670.777,1023.7 672.909,1025.22 675.041,1026.62 677.173,1027.92 679.305,1029.13 681.436,1030.29 683.568,1031.45 685.7,1032.67 687.832,1033.88 689.963,1035.09 692.095,1036.27 694.227,1037.44 696.359,1038.6 698.491,1039.73 700.622,1040.86 702.754,1041.97 704.886,1043.06 707.018,1044.14 709.15,1045.21 711.281,1046.26 713.413,1047.3 715.545,1048.32 717.677,1049.33 719.808,1050.33 721.94,1051.31 724.072,1052.28 726.204,1053.24 728.336,1054.18 730.467,1055.12 732.599,1056.04 734.731,1056.94 736.863,1057.84 738.995,1058.72 741.126,1059.59 743.258,1060.46 745.39,1061.3 747.522,1062.14 749.653,1062.97 751.785,1063.78 753.917,1064.59 756.049,1065.38 758.181,1066.17 760.312,1066.94 762.444,1067.7 764.576,1068.46 766.708,1069.2 768.84,1069.93 770.971,1070.66 773.103,1071.37 775.235,1072.08 777.367,1072.77 779.498,1073.46 781.63,1074.13 783.762,1074.8 785.894,1075.46 788.026,1076.11 790.157,1076.75 792.289,1077.39 794.421,1078.01 796.553,1078.63 798.685,1079.23 800.816,1079.83 802.948,1080.43 805.08,1081.01 807.212,1081.59 809.343,1082.16 811.475,1082.72 813.607,1083.27 815.739,1083.82 817.871,1084.36 820.002,1084.89 822.134,1085.42 824.266,1085.93 826.398,1086.45 828.529,1086.95 830.661,1087.45 832.793,1087.94 834.925,1088.42 837.057,1088.9 839.188,1089.37 841.32,1089.84 843.452,1090.3 845.584,1090.75 847.716,1091.2 849.847,1091.64 851.979,1092.08 854.111,1092.51 856.243,1092.76 858.374,1091.6 860.506,1088.99 862.638,1085.16 864.77,1080.32 866.902,1074.67 869.033,1068.39 871.165,1061.65 873.297,1054.59 875.429,1047.35 877.561,1040.03 879.692,1032.74 881.824,1025.55 883.956,1018.53 886.088,1011.73 888.219,1005.18 890.351,998.889 892.483,992.86 894.615,987.072 896.747,981.489 898.878,976.06 901.01,970.715 903.142,965.369 905.274,959.936 907.406,954.53 909.537,949.195 911.669,943.931 913.801,938.737 915.933,933.612 918.064,928.555 920.196,923.564 922.328,918.64 924.46,913.782 926.592,908.987 928.723,904.256 930.855,899.588 932.987,894.982 935.119,890.437 937.251,885.952 939.382,881.526 941.514,877.159 943.646,872.85 945.778,868.598 947.909,864.402 950.041,860.262 952.173,856.177 954.305,852.147 956.437,848.169 958.568,844.245 960.7,840.372 962.832,836.551 964.964,832.781 967.096,829.06 969.227,825.389 971.359,821.767 973.491,818.193 975.623,814.666 977.754,811.186 979.886,807.752 982.018,804.364 984.15,801.02 986.282,797.721 988.413,794.465 990.545,791.253 992.677,788.084 994.809,784.956 996.941,781.87 999.072,778.824 1001.2,775.819 1003.34,772.854 1005.47,769.928 1007.6,767.041 1009.73,764.192 1011.86,761.381 1013.99,758.607 1016.13,755.87 1018.26,753.169 1020.39,750.504 1022.52,747.874 1024.65,745.28 1026.79,742.719 1028.92,740.193 1031.05,737.7 1033.18,735.24 1035.31,732.813 1037.44,730.418 1039.58,728.054 1041.71,725.722 1043.84,723.421 1045.97,721.151 1048.1,718.911 1050.24,716.7 1052.37,714.518 1054.5,712.366 1056.63,710.242 1058.76,708.146 1060.89,706.078 1063.03,704.038 1065.16,702.024 1067.29,700.888 1069.42,701.482 1071.55,703.617 1073.68,707.109 1075.82,711.788 1077.95,717.49 1080.08,724.062 1082.21,731.361 1084.34,739.252 1086.48,747.609 1088.61,756.319 1090.74,765.274 1092.87,774.379 1095,783.546 1097.13,792.698 1099.27,801.768 1101.4,810.695 1103.53,819.433 1105.66,827.94 1107.79,836.187 1109.93,844.154 1112.06,851.828 1114.19,859.21 1116.32,866.305 1118.45,873.132 1120.58,879.718 1122.72,886.098 1124.85,892.319 1126.98,898.435 1129.11,904.512 1131.24,910.623 1133.37,916.841 1135.51,923.037 1137.64,929.152 1139.77,935.186 1141.9,941.139 1144.03,947.014 1146.17,952.811 1148.3,958.53 1150.43,964.174 1152.56,969.744 1154.69,975.239 1156.82,980.662 1158.96,986.012 1161.09,991.292 1163.22,996.502 1165.35,1001.64 1167.48,1006.71 1169.62,1011.72 1171.75,1016.66 1173.88,1021.53 1176.01,1026.34 1178.14,1031.09 1180.27,1035.77 1182.41,1040.39 1184.54,1044.95 1186.67,1049.45 1188.8,1053.89 1190.93,1058.27 1193.06,1062.59 1195.2,1066.86 1197.33,1071.06 1199.46,1075.22 1201.59,1079.31 1203.72,1083.36 1205.86,1087.35 1207.99,1091.28 1210.12,1095.17 1212.25,1099 1214.38,1102.78 1216.51,1106.51 1218.65,1110.19 1220.78,1113.83 1222.91,1117.41 1225.04,1120.95 1227.17,1124.44 1229.31,1127.88 1231.44,1131.28 1233.57,1134.63 1235.7,1137.94 1237.83,1141.21 1239.96,1144.43 1242.1,1147.61 1244.23,1150.75 1246.36,1153.84 1248.49,1156.89 1250.62,1159.91 1252.75,1162.88 1254.89,1165.82 1257.02,1168.71 1259.15,1171.57 1261.28,1174.39 1263.41,1177.17 1265.55,1179.92 1267.68,1182.63 1269.81,1185.3 1271.94,1187.94 1274.07,1190.54 1276.2,1193.11 1278.34,1195.64 1280.47,1198.14 1282.6,1200.61 1284.73,1202.94 1286.86,1203.63 1289,1202.38 1291.13,1199.48 1293.26,1195.19 1295.39,1189.77 1297.52,1183.42 1299.65,1176.38 1301.79,1168.81 1303.92,1160.9 1306.05,1152.79 1308.18,1144.62 1310.31,1136.49 1312.44,1128.5 1314.58,1120.72 1316.71,1113.21 1318.84,1106.01 1320.97,1099.13 1323.1,1092.56 1325.24,1086.29 1327.37,1080.27 1329.5,1074.45 1331.63,1068.75 1333.76,1063.06 1335.89,1057.27 1338.03,1051.42 1340.16,1045.64 1342.29,1039.94 1344.42,1034.32 1346.55,1028.77 1348.69,1023.3 1350.82,1017.89 1352.95,1012.56 1355.08,1007.3 1357.21,1002.11 1359.34,996.988 1361.48,991.934 1363.61,986.947 1365.74,982.026 1367.87,977.17 1370,972.378 1372.13,967.65 1374.27,962.985 1376.4,958.382 1378.53,953.839 1380.66,949.357 1382.79,944.934 1384.93,940.57 1387.06,936.264 1389.19,932.015 1391.32,927.822 1393.45,923.685 1395.58,919.603 1397.72,915.575 1399.85,911.6 1401.98,907.678 1404.11,903.808 1406.24,899.99 1408.38,896.222 1410.51,892.504 1412.64,888.835 1414.77,885.215 1416.9,881.643 1419.03,878.118 1421.17,874.64 1423.3,871.208 1425.43,867.822 1427.56,864.48 1429.69,861.183 1431.82,857.929 1433.96,854.719 1436.09,851.551 1438.22,848.425 1440.35,845.341 1442.48,842.297 1444.62,839.294 1446.75,836.33 1448.88,833.406 1451.01,830.521 1453.14,827.674 1455.27,824.864 1457.41,822.092 1459.54,819.357 1461.67,816.658 1463.8,813.995 1465.93,811.367 1468.07,808.774 1470.2,806.215 1472.33,803.69 1474.46,801.199 1476.59,798.741 1478.72,796.315 1480.86,793.921 1482.99,791.56 1485.12,789.229 1487.25,786.929 1489.38,784.66 1491.51,782.421 1493.65,780.275 1495.78,779.343 1497.91,779.901 1500.04,781.776 1502.17,784.804 1504.31,788.832 1506.44,793.714 1508.57,799.312 1510.7,805.501 1512.83,812.16 1514.96,819.182 1517.1,826.463 1519.23,833.915 1521.36,841.452 1523.49,849.002 1525.62,856.5 1527.76,863.89 1529.89,871.126 1532.02,878.169 1534.15,884.99 1536.28,891.569 1538.41,897.896 1540.55,903.969 1542.68,909.794 1544.81,915.387 1546.94,920.774 1549.07,925.987 1551.2,931.071 1553.34,936.076 1555.47,941.064 1557.6,946.103 1559.73,951.236 1561.86,956.323 1564,961.342 1566.13,966.295 1568.26,971.182 1570.39,976.005 1572.52,980.763 1574.65,985.459 1576.79,990.092 1578.92,994.664 1581.05,999.175 1583.18,1003.63 1585.31,1008.02 1587.45,1012.35 1589.58,1016.63 1591.71,1020.85 1593.84,1025.01 1595.97,1029.12 1598.1,1033.18 1600.24,1037.18 1602.37,1041.12 1604.5,1045.02 1606.63,1048.86 1608.76,1052.66 1610.89,1056.4 1613.03,1060.09 1615.16,1063.74 1617.29,1067.33 1619.42,1070.88 1621.55,1074.38 1623.69,1077.84 1625.82,1081.25 1627.95,1084.61 1630.08,1087.93 1632.21,1091.2 1634.34,1094.43 1636.48,1097.62 1638.61,1100.77 1640.74,1103.87 1642.87,1106.94 1645,1109.96 1647.14,1112.94 1649.27,1115.88 1651.4,1118.79 1653.53,1121.65 1655.66,1124.48 1657.79,1127.27 1659.93,1130.02 1662.06,1132.74 1664.19,1135.42 1666.32,1138.06 1668.45,1140.67 1670.58,1143.25 1672.72,1145.79 1674.85,1148.3 1676.98,1150.77 1679.11,1153.21 1681.24,1155.62 1683.38,1158 1685.51,1160.34 1687.64,1162.66 1689.77,1164.94 1691.9,1167.19 1694.03,1169.42 1696.17,1171.61 1698.3,1173.78 1700.43,1175.91 1702.56,1178.02 1704.69,1180.1 1706.82,1182.15 1708.96,1184.18 1711.09,1185.56 1713.22,1185.12 1715.35,1183.06 1717.48,1179.65 1719.62,1175.1 1721.75,1169.64 1723.88,1163.47 1726.01,1156.76 1728.14,1149.67 1730.27,1142.35 1732.41,1134.93 1734.54,1127.52 1736.67,1120.2 1738.8,1113.05 1740.93,1106.12 1743.07,1099.47 1745.2,1093.1 1747.33,1087.01 1749.46,1081.21 1751.59,1075.64 1753.72,1070.28 1755.86,1065.04 1757.99,1059.84 1760.12,1054.58 1762.25,1049.23 1764.38,1043.93 1766.51,1038.71 1768.65,1033.55 1770.78,1028.46 1772.91,1023.44 1775.04,1018.49 1777.17,1013.6 1779.31,1008.78 1781.44,1004.02 1783.57,999.325 1785.7,994.692 1787.83,990.12 1789.96,985.608 1792.1,981.157 1794.23,976.764 1796.36,972.429 1798.49,968.152 1800.62,963.932 1802.76,959.768 1804.89,955.658 1807.02,951.604 1809.15,947.603 1811.28,943.655 1813.41,939.76 1815.55,935.916 1817.68,932.123 1819.81,928.381 1821.94,924.688 1824.07,921.044 1826.2,917.449 1828.34,913.901 1830.47,910.4 1832.6,906.946 1834.73,903.538 1836.86,900.174 1839,896.856 1841.13,893.581 1843.26,890.349 1845.39,887.161 1847.52,884.015 1849.65,880.91 1851.79,877.847 1853.92,874.824 1856.05,871.841 1858.18,868.898 1860.31,865.994 1862.45,863.128 1864.58,860.3 1866.71,857.51 1868.84,854.757 1870.97,852.04 1873.1,849.359 1875.24,846.714 1877.37,844.104 1879.5,841.528 1881.63,838.987 1883.76,836.479 1885.89,834.005 1888.03,831.563 1890.16,829.154 1892.29,826.777 1894.42,824.431 1896.55,822.117 1898.69,819.833 1900.82,817.579 1902.95,815.355 1905.08,813.161 1907.21,810.996 1909.34,808.859 1911.48,806.751 1913.61,804.671 1915.74,802.618 1917.87,800.843 1920,799.835 1922.14,799.531 1924.27,799.855 1926.4,800.735 1928.53,802.1 1930.66,803.886 1932.79,806.03 1934.93,808.476 1937.06,811.169 1939.19,814.057 1941.32,817.096 1943.45,820.241 1945.58,823.454 1947.72,826.699 1949.85,829.944 1951.98,833.161 1954.11,836.327 1956.24,839.42 1958.38,842.424 1960.51,845.326 1962.64,848.117 1964.77,850.79 1966.9,853.345 1969.03,855.783 1971.17,858.11 1973.3,860.336 1975.43,862.473 1977.56,864.539 1979.69,866.553 1981.83,868.542 1983.96,870.532 1986.09,872.555 1988.22,874.633 1990.35,876.695 1992.48,878.73 1994.62,880.739 1996.75,882.72 1998.88,884.676 2001.01,886.605 2003.14,888.509 2005.27,890.388 2007.41,892.241 2009.54,894.071 2011.67,895.875 2013.8,897.656 2015.93,899.414 2018.07,901.148 2020.2,902.859 2022.33,904.547 2024.46,906.213 2026.59,907.857 2028.72,909.479 2030.86,911.08 2032.99,912.66 2035.12,914.218 2037.25,915.756 2039.38,917.274 2041.52,918.772 2043.65,920.25 2045.78,921.708 2047.91,923.147 2050.04,924.567 2052.17,925.968 2054.31,927.351 2056.44,928.715 2058.57,930.061 2060.7,931.389 2062.83,932.7 2064.96,933.993 2067.1,935.269 2069.23,936.528 2071.36,937.77 2073.49,938.996 2075.62,940.205 2077.76,941.398 2079.89,942.576 2082.02,943.738 2084.15,944.884 2086.28,946.015 2088.41,947.131 2090.55,948.232 2092.68,949.319 2094.81,950.391 2096.94,951.449 2099.07,952.492 2101.21,953.522 2103.34,954.539 2105.47,955.541 2107.6,956.531 2109.73,957.507 2111.86,958.471 2114,959.421 2116.13,960.359 2118.26,961.285 2120.39,962.198 2122.52,963.1 2124.65,963.989 2126.79,964.867 2128.92,965.733 2131.05,966.587 2133.18,967.43 2135.31,968.263 2137.45,969.084 2139.58,969.144 2141.71,967.164 2143.84,963.348 2145.97,957.927 2148.1,951.115 2150.24,943.117 2152.37,934.123 2154.5,924.311 2156.63,913.847 2158.76,902.885 2160.9,891.566 2163.03,880.016 2165.16,868.352 2167.29,856.677 2169.42,845.081 2171.55,833.643 2173.69,822.426 2175.82,811.485 2177.95,800.859 2180.08,790.575 2182.21,780.65 2184.34,771.085 2186.48,761.871 2188.61,752.984 2190.74,744.389 2192.87,736.04 2195,727.875 2197.14,719.821 2199.27,711.794 2201.4,703.695 2203.53,695.516 2205.66,687.438 2207.79,679.466 2209.93,671.601 2212.06,663.839 2214.19,656.181 2216.32,648.623 2218.45,641.167 2220.59,633.809 2222.72,626.548 2224.85,619.384 2226.98,612.315 2229.11,605.34 2231.24,598.457 2233.38,591.665 2235.51,584.964 2237.64,578.351 2239.77,571.826 2241.9,565.387 2244.03,559.034 2246.17,552.765 2248.3,546.579 2250.43,540.475 2252.56,534.452 2254.69,528.508 2256.83,522.643 2258.96,516.855 2261.09,511.144 2263.22,505.509 2265.35,499.948 2267.48,494.46 2269.62,489.046 2271.75,483.703 2273.88,478.432 2276.01,473.23 2278.14,468.097 2280.28,463.032 2282.41,458.035 2284.54,453.104 2286.67,448.239 2288.8,443.438 2290.93,438.701 2293.07,434.027 2295.2,429.415 2297.33,424.865 2299.46,420.375 2301.59,415.944 2303.72,411.573 2305.86,407.259 2307.99,403.003 2310.12,398.804 2312.25,394.66 2314.38,390.571 2316.52,386.537 2318.65,382.556 2320.78,378.628 2322.91,374.752 2325.04,370.927 2327.17,367.153 2329.31,363.43 2331.44,359.755 2333.57,356.129 2335.7,352.551 2337.83,349.021 2339.97,345.537 2342.1,342.1 2344.23,338.707 2346.36,335.36 2348.49,332.057 2350.62,328.797 2352.76,325.581 "/>
<polyline clip-path="url(#clip482)" style="stroke:#e26f46; stroke-linecap:round; stroke-linejoin:round; stroke-width:4; stroke-opacity:1; fill:none" points="223.103,1360.1 225.234,1360.1 227.366,1360.1 229.498,1360.1 231.63,1360.1 233.761,1360.1 235.893,1360.1 238.025,1360.1 240.157,1360.1 242.289,1360.1 244.42,1360.1 246.552,1360.1 248.684,1360.1 250.816,1360.1 252.948,1360.1 255.079,1360.1 257.211,1360.1 259.343,1360.1 261.475,1360.1 263.606,1360.1 265.738,1360.1 267.87,1360.1 270.002,1360.1 272.134,1360.1 274.265,1360.1 276.397,1360.1 278.529,1360.1 280.661,1360.1 282.792,1360.1 284.924,1360.1 287.056,1360.1 289.188,1360.1 291.32,1360.1 293.451,1360.1 295.583,1360.1 297.715,1360.1 299.847,1360.1 301.979,1360.1 304.11,1360.1 306.242,1360.1 308.374,1360.1 310.506,1360.1 312.637,1360.1 314.769,1360.1 316.901,1360.1 319.033,1360.1 321.165,1360.1 323.296,1360.1 325.428,1360.1 327.56,1360.1 329.692,1360.1 331.824,1360.1 333.955,1360.1 336.087,1360.1 338.219,1360.1 340.351,1360.1 342.482,1360.1 344.614,1360.1 346.746,1360.1 348.878,1360.1 351.01,1360.1 353.141,1360.1 355.273,1360.1 357.405,1360.1 359.537,1360.1 361.669,1360.1 363.8,1360.1 365.932,1360.1 368.064,1360.1 370.196,1360.1 372.327,1360.1 374.459,1360.1 376.591,1360.1 378.723,1360.1 380.855,1360.1 382.986,1360.1 385.118,1360.1 387.25,1360.1 389.382,1360.1 391.514,1360.1 393.645,1360.1 395.777,1360.1 397.909,1360.1 400.041,1360.1 402.172,1360.1 404.304,1360.1 406.436,1360.1 408.568,1360.1 410.7,1360.1 412.831,1360.1 414.963,1360.1 417.095,1360.1 419.227,1360.1 421.359,1360.1 423.49,1360.1 425.622,1360.1 427.754,1360.1 429.886,1360.1 432.017,1360.1 434.149,1360.1 436.281,906.74 438.413,906.74 440.545,906.74 442.676,906.74 444.808,906.74 446.94,906.74 449.072,906.74 451.204,906.74 453.335,906.74 455.467,906.74 457.599,906.74 459.731,906.74 461.862,906.74 463.994,906.74 466.126,906.74 468.258,906.74 470.39,906.74 472.521,906.74 474.653,906.74 476.785,906.74 478.917,906.74 481.049,906.74 483.18,906.74 485.312,906.74 487.444,906.74 489.576,906.74 491.707,906.74 493.839,906.74 495.971,906.74 498.103,906.74 500.235,906.74 502.366,906.74 504.498,906.74 506.63,906.74 508.762,906.74 510.894,906.74 513.025,906.74 515.157,906.74 517.289,906.74 519.421,906.74 521.552,906.74 523.684,906.74 525.816,906.74 527.948,906.74 530.08,906.74 532.211,906.74 534.343,906.74 536.475,906.74 538.607,906.74 540.739,906.74 542.87,906.74 545.002,906.74 547.134,906.74 549.266,906.74 551.397,906.74 553.529,906.74 555.661,906.74 557.793,906.74 559.925,906.74 562.056,906.74 564.188,906.74 566.32,906.74 568.452,906.74 570.583,906.74 572.715,906.74 574.847,906.74 576.979,906.74 579.111,906.74 581.242,906.74 583.374,906.74 585.506,906.74 587.638,906.74 589.77,906.74 591.901,906.74 594.033,906.74 596.165,906.74 598.297,906.74 600.428,906.74 602.56,906.74 604.692,906.74 606.824,906.74 608.956,906.74 611.087,906.74 613.219,906.74 615.351,906.74 617.483,906.74 619.615,906.74 621.746,906.74 623.878,906.74 626.01,906.74 628.142,906.74 630.273,906.74 632.405,906.74 634.537,906.74 636.669,906.74 638.801,906.74 640.932,906.74 643.064,906.74 645.196,906.74 647.328,906.74 649.46,1124.51 651.591,1124.51 653.723,1124.51 655.855,1124.51 657.987,1124.51 660.118,1124.51 662.25,1124.51 664.382,1124.51 666.514,1124.51 668.646,1124.51 670.777,1124.51 672.909,1124.51 675.041,1124.51 677.173,1124.51 679.305,1124.51 681.436,1124.51 683.568,1124.51 685.7,1124.51 687.832,1124.51 689.963,1124.51 692.095,1124.51 694.227,1124.51 696.359,1124.51 698.491,1124.51 700.622,1124.51 702.754,1124.51 704.886,1124.51 707.018,1124.51 709.15,1124.51 711.281,1124.51 713.413,1124.51 715.545,1124.51 717.677,1124.51 719.808,1124.51 721.94,1124.51 724.072,1124.51 726.204,1124.51 728.336,1124.51 730.467,1124.51 732.599,1124.51 734.731,1124.51 736.863,1124.51 738.995,1124.51 741.126,1124.51 743.258,1124.51 745.39,1124.51 747.522,1124.51 749.653,1124.51 751.785,1124.51 753.917,1124.51 756.049,1124.51 758.181,1124.51 760.312,1124.51 762.444,1124.51 764.576,1124.51 766.708,1124.51 768.84,1124.51 770.971,1124.51 773.103,1124.51 775.235,1124.51 777.367,1124.51 779.498,1124.51 781.63,1124.51 783.762,1124.51 785.894,1124.51 788.026,1124.51 790.157,1124.51 792.289,1124.51 794.421,1124.51 796.553,1124.51 798.685,1124.51 800.816,1124.51 802.948,1124.51 805.08,1124.51 807.212,1124.51 809.343,1124.51 811.475,1124.51 813.607,1124.51 815.739,1124.51 817.871,1124.51 820.002,1124.51 822.134,1124.51 824.266,1124.51 826.398,1124.51 828.529,1124.51 830.661,1124.51 832.793,1124.51 834.925,1124.51 837.057,1124.51 839.188,1124.51 841.32,1124.51 843.452,1124.51 845.584,1124.51 847.716,1124.51 849.847,1124.51 851.979,1124.51 854.111,1124.51 856.243,1124.51 858.374,1124.51 860.506,1124.51 862.638,552.162 864.77,552.162 866.902,552.162 869.033,552.162 871.165,552.162 873.297,552.162 875.429,552.162 877.561,552.162 879.692,552.162 881.824,552.162 883.956,552.162 886.088,552.162 888.219,552.162 890.351,552.162 892.483,552.162 894.615,552.162 896.747,552.162 898.878,552.162 901.01,552.162 903.142,552.162 905.274,552.162 907.406,552.162 909.537,552.162 911.669,552.162 913.801,552.162 915.933,552.162 918.064,552.162 920.196,552.162 922.328,552.162 924.46,552.162 926.592,552.162 928.723,552.162 930.855,552.162 932.987,552.162 935.119,552.162 937.251,552.162 939.382,552.162 941.514,552.162 943.646,552.162 945.778,552.162 947.909,552.162 950.041,552.162 952.173,552.162 954.305,552.162 956.437,552.162 958.568,552.162 960.7,552.162 962.832,552.162 964.964,552.162 967.096,552.162 969.227,552.162 971.359,552.162 973.491,552.162 975.623,552.162 977.754,552.162 979.886,552.162 982.018,552.162 984.15,552.162 986.282,552.162 988.413,552.162 990.545,552.162 992.677,552.162 994.809,552.162 996.941,552.162 999.072,552.162 1001.2,552.162 1003.34,552.162 1005.47,552.162 1007.6,552.162 1009.73,552.162 1011.86,552.162 1013.99,552.162 1016.13,552.162 1018.26,552.162 1020.39,552.162 1022.52,552.162 1024.65,552.162 1026.79,552.162 1028.92,552.162 1031.05,552.162 1033.18,552.162 1035.31,552.162 1037.44,552.162 1039.58,552.162 1041.71,552.162 1043.84,552.162 1045.97,552.162 1048.1,552.162 1050.24,552.162 1052.37,552.162 1054.5,552.162 1056.63,552.162 1058.76,552.162 1060.89,552.162 1063.03,552.162 1065.16,552.162 1067.29,552.162 1069.42,552.162 1071.55,552.162 1073.68,552.162 1075.82,1384.24 1077.95,1384.24 1080.08,1384.24 1082.21,1384.24 1084.34,1384.24 1086.48,1384.24 1088.61,1384.24 1090.74,1384.24 1092.87,1384.24 1095,1384.24 1097.13,1384.24 1099.27,1384.24 1101.4,1384.24 1103.53,1384.24 1105.66,1384.24 1107.79,1384.24 1109.93,1384.24 1112.06,1384.24 1114.19,1384.24 1116.32,1384.24 1118.45,1384.24 1120.58,1384.24 1122.72,1384.24 1124.85,1384.24 1126.98,1384.24 1129.11,1384.24 1131.24,1384.24 1133.37,1384.24 1135.51,1384.24 1137.64,1384.24 1139.77,1384.24 1141.9,1384.24 1144.03,1384.24 1146.17,1384.24 1148.3,1384.24 1150.43,1384.24 1152.56,1384.24 1154.69,1384.24 1156.82,1384.24 1158.96,1384.24 1161.09,1384.24 1163.22,1384.24 1165.35,1384.24 1167.48,1384.24 1169.62,1384.24 1171.75,1384.24 1173.88,1384.24 1176.01,1384.24 1178.14,1384.24 1180.27,1384.24 1182.41,1384.24 1184.54,1384.24 1186.67,1384.24 1188.8,1384.24 1190.93,1384.24 1193.06,1384.24 1195.2,1384.24 1197.33,1384.24 1199.46,1384.24 1201.59,1384.24 1203.72,1384.24 1205.86,1384.24 1207.99,1384.24 1210.12,1384.24 1212.25,1384.24 1214.38,1384.24 1216.51,1384.24 1218.65,1384.24 1220.78,1384.24 1222.91,1384.24 1225.04,1384.24 1227.17,1384.24 1229.31,1384.24 1231.44,1384.24 1233.57,1384.24 1235.7,1384.24 1237.83,1384.24 1239.96,1384.24 1242.1,1384.24 1244.23,1384.24 1246.36,1384.24 1248.49,1384.24 1250.62,1384.24 1252.75,1384.24 1254.89,1384.24 1257.02,1384.24 1259.15,1384.24 1261.28,1384.24 1263.41,1384.24 1265.55,1384.24 1267.68,1384.24 1269.81,1384.24 1271.94,1384.24 1274.07,1384.24 1276.2,1384.24 1278.34,1384.24 1280.47,1384.24 1282.6,1384.24 1284.73,1384.24 1286.86,1384.24 1289,615.777 1291.13,615.777 1293.26,615.777 1295.39,615.777 1297.52,615.777 1299.65,615.777 1301.79,615.777 1303.92,615.777 1306.05,615.777 1308.18,615.777 1310.31,615.777 1312.44,615.777 1314.58,615.777 1316.71,615.777 1318.84,615.777 1320.97,615.777 1323.1,615.777 1325.24,615.777 1327.37,615.777 1329.5,615.777 1331.63,615.777 1333.76,615.777 1335.89,615.777 1338.03,615.777 1340.16,615.777 1342.29,615.777 1344.42,615.777 1346.55,615.777 1348.69,615.777 1350.82,615.777 1352.95,615.777 1355.08,615.777 1357.21,615.777 1359.34,615.777 1361.48,615.777 1363.61,615.777 1365.74,615.777 1367.87,615.777 1370,615.777 1372.13,615.777 1374.27,615.777 1376.4,615.777 1378.53,615.777 1380.66,615.777 1382.79,615.777 1384.93,615.777 1387.06,615.777 1389.19,615.777 1391.32,615.777 1393.45,615.777 1395.58,615.777 1397.72,615.777 1399.85,615.777 1401.98,615.777 1404.11,615.777 1406.24,615.777 1408.38,615.777 1410.51,615.777 1412.64,615.777 1414.77,615.777 1416.9,615.777 1419.03,615.777 1421.17,615.777 1423.3,615.777 1425.43,615.777 1427.56,615.777 1429.69,615.777 1431.82,615.777 1433.96,615.777 1436.09,615.777 1438.22,615.777 1440.35,615.777 1442.48,615.777 1444.62,615.777 1446.75,615.777 1448.88,615.777 1451.01,615.777 1453.14,615.777 1455.27,615.777 1457.41,615.777 1459.54,615.777 1461.67,615.777 1463.8,615.777 1465.93,615.777 1468.07,615.777 1470.2,615.777 1472.33,615.777 1474.46,615.777 1476.59,615.777 1478.72,615.777 1480.86,615.777 1482.99,615.777 1485.12,615.777 1487.25,615.777 1489.38,615.777 1491.51,615.777 1493.65,615.777 1495.78,615.777 1497.91,615.777 1500.04,615.777 1502.17,1334.92 1504.31,1334.92 1506.44,1334.92 1508.57,1334.92 1510.7,1334.92 1512.83,1334.92 1514.96,1334.92 1517.1,1334.92 1519.23,1334.92 1521.36,1334.92 1523.49,1334.92 1525.62,1334.92 1527.76,1334.92 1529.89,1334.92 1532.02,1334.92 1534.15,1334.92 1536.28,1334.92 1538.41,1334.92 1540.55,1334.92 1542.68,1334.92 1544.81,1334.92 1546.94,1334.92 1549.07,1334.92 1551.2,1334.92 1553.34,1334.92 1555.47,1334.92 1557.6,1334.92 1559.73,1334.92 1561.86,1334.92 1564,1334.92 1566.13,1334.92 1568.26,1334.92 1570.39,1334.92 1572.52,1334.92 1574.65,1334.92 1576.79,1334.92 1578.92,1334.92 1581.05,1334.92 1583.18,1334.92 1585.31,1334.92 1587.45,1334.92 1589.58,1334.92 1591.71,1334.92 1593.84,1334.92 1595.97,1334.92 1598.1,1334.92 1600.24,1334.92 1602.37,1334.92 1604.5,1334.92 1606.63,1334.92 1608.76,1334.92 1610.89,1334.92 1613.03,1334.92 1615.16,1334.92 1617.29,1334.92 1619.42,1334.92 1621.55,1334.92 1623.69,1334.92 1625.82,1334.92 1627.95,1334.92 1630.08,1334.92 1632.21,1334.92 1634.34,1334.92 1636.48,1334.92 1638.61,1334.92 1640.74,1334.92 1642.87,1334.92 1645,1334.92 1647.14,1334.92 1649.27,1334.92 1651.4,1334.92 1653.53,1334.92 1655.66,1334.92 1657.79,1334.92 1659.93,1334.92 1662.06,1334.92 1664.19,1334.92 1666.32,1334.92 1668.45,1334.92 1670.58,1334.92 1672.72,1334.92 1674.85,1334.92 1676.98,1334.92 1679.11,1334.92 1681.24,1334.92 1683.38,1334.92 1685.51,1334.92 1687.64,1334.92 1689.77,1334.92 1691.9,1334.92 1694.03,1334.92 1696.17,1334.92 1698.3,1334.92 1700.43,1334.92 1702.56,1334.92 1704.69,1334.92 1706.82,1334.92 1708.96,1334.92 1711.09,1334.92 1713.22,1334.92 1715.35,649.845 1717.48,649.845 1719.62,649.845 1721.75,649.845 1723.88,649.845 1726.01,649.845 1728.14,649.845 1730.27,649.845 1732.41,649.845 1734.54,649.845 1736.67,649.845 1738.8,649.845 1740.93,649.845 1743.07,649.845 1745.2,649.845 1747.33,649.845 1749.46,649.845 1751.59,649.845 1753.72,649.845 1755.86,649.845 1757.99,649.845 1760.12,649.845 1762.25,649.845 1764.38,649.845 1766.51,649.845 1768.65,649.845 1770.78,649.845 1772.91,649.845 1775.04,649.845 1777.17,649.845 1779.31,649.845 1781.44,649.845 1783.57,649.845 1785.7,649.845 1787.83,649.845 1789.96,649.845 1792.1,649.845 1794.23,649.845 1796.36,649.845 1798.49,649.845 1800.62,649.845 1802.76,649.845 1804.89,649.845 1807.02,649.845 1809.15,649.845 1811.28,649.845 1813.41,649.845 1815.55,649.845 1817.68,649.845 1819.81,649.845 1821.94,649.845 1824.07,649.845 1826.2,649.845 1828.34,649.845 1830.47,649.845 1832.6,649.845 1834.73,649.845 1836.86,649.845 1839,649.845 1841.13,649.845 1843.26,649.845 1845.39,649.845 1847.52,649.845 1849.65,649.845 1851.79,649.845 1853.92,649.845 1856.05,649.845 1858.18,649.845 1860.31,649.845 1862.45,649.845 1864.58,649.845 1866.71,649.845 1868.84,649.845 1870.97,649.845 1873.1,649.845 1875.24,649.845 1877.37,649.845 1879.5,649.845 1881.63,649.845 1883.76,649.845 1885.89,649.845 1888.03,649.845 1890.16,649.845 1892.29,649.845 1894.42,649.845 1896.55,649.845 1898.69,649.845 1900.82,649.845 1902.95,649.845 1905.08,649.845 1907.21,649.845 1909.34,649.845 1911.48,649.845 1913.61,649.845 1915.74,649.845 1917.87,649.845 1920,649.845 1922.14,649.845 1924.27,649.845 1926.4,649.845 1928.53,1030.21 1930.66,1030.21 1932.79,1030.21 1934.93,1030.21 1937.06,1030.21 1939.19,1030.21 1941.32,1030.21 1943.45,1030.21 1945.58,1030.21 1947.72,1030.21 1949.85,1030.21 1951.98,1030.21 1954.11,1030.21 1956.24,1030.21 1958.38,1030.21 1960.51,1030.21 1962.64,1030.21 1964.77,1030.21 1966.9,1030.21 1969.03,1030.21 1971.17,1030.21 1973.3,1030.21 1975.43,1030.21 1977.56,1030.21 1979.69,1030.21 1981.83,1030.21 1983.96,1030.21 1986.09,1030.21 1988.22,1030.21 1990.35,1030.21 1992.48,1030.21 1994.62,1030.21 1996.75,1030.21 1998.88,1030.21 2001.01,1030.21 2003.14,1030.21 2005.27,1030.21 2007.41,1030.21 2009.54,1030.21 2011.67,1030.21 2013.8,1030.21 2015.93,1030.21 2018.07,1030.21 2020.2,1030.21 2022.33,1030.21 2024.46,1030.21 2026.59,1030.21 2028.72,1030.21 2030.86,1030.21 2032.99,1030.21 2035.12,1030.21 2037.25,1030.21 2039.38,1030.21 2041.52,1030.21 2043.65,1030.21 2045.78,1030.21 2047.91,1030.21 2050.04,1030.21 2052.17,1030.21 2054.31,1030.21 2056.44,1030.21 2058.57,1030.21 2060.7,1030.21 2062.83,1030.21 2064.96,1030.21 2067.1,1030.21 2069.23,1030.21 2071.36,1030.21 2073.49,1030.21 2075.62,1030.21 2077.76,1030.21 2079.89,1030.21 2082.02,1030.21 2084.15,1030.21 2086.28,1030.21 2088.41,1030.21 2090.55,1030.21 2092.68,1030.21 2094.81,1030.21 2096.94,1030.21 2099.07,1030.21 2101.21,1030.21 2103.34,1030.21 2105.47,1030.21 2107.6,1030.21 2109.73,1030.21 2111.86,1030.21 2114,1030.21 2116.13,1030.21 2118.26,1030.21 2120.39,1030.21 2122.52,1030.21 2124.65,1030.21 2126.79,1030.21 2128.92,1030.21 2131.05,1030.21 2133.18,1030.21 2135.31,1030.21 2137.45,1030.21 2139.58,1030.21 2141.71,86.1857 2143.84,86.1857 2145.97,86.1857 2148.1,86.1857 2150.24,86.1857 2152.37,86.1857 2154.5,86.1857 2156.63,86.1857 2158.76,86.1857 2160.9,86.1857 2163.03,86.1857 2165.16,86.1857 2167.29,86.1857 2169.42,86.1857 2171.55,86.1857 2173.69,86.1857 2175.82,86.1857 2177.95,86.1857 2180.08,86.1857 2182.21,86.1857 2184.34,86.1857 2186.48,86.1857 2188.61,86.1857 2190.74,86.1857 2192.87,86.1857 2195,86.1857 2197.14,86.1857 2199.27,86.1857 2201.4,86.1857 2203.53,86.1857 2205.66,86.1857 2207.79,86.1857 2209.93,86.1857 2212.06,86.1857 2214.19,86.1857 2216.32,86.1857 2218.45,86.1857 2220.59,86.1857 2222.72,86.1857 2224.85,86.1857 2226.98,86.1857 2229.11,86.1857 2231.24,86.1857 2233.38,86.1857 2235.51,86.1857 2237.64,86.1857 2239.77,86.1857 2241.9,86.1857 2244.03,86.1857 2246.17,86.1857 2248.3,86.1857 2250.43,86.1857 2252.56,86.1857 2254.69,86.1857 2256.83,86.1857 2258.96,86.1857 2261.09,86.1857 2263.22,86.1857 2265.35,86.1857 2267.48,86.1857 2269.62,86.1857 2271.75,86.1857 2273.88,86.1857 2276.01,86.1857 2278.14,86.1857 2280.28,86.1857 2282.41,86.1857 2284.54,86.1857 2286.67,86.1857 2288.8,86.1857 2290.93,86.1857 2293.07,86.1857 2295.2,86.1857 2297.33,86.1857 2299.46,86.1857 2301.59,86.1857 2303.72,86.1857 2305.86,86.1857 2307.99,86.1857 2310.12,86.1857 2312.25,86.1857 2314.38,86.1857 2316.52,86.1857 2318.65,86.1857 2320.78,86.1857 2322.91,86.1857 2325.04,86.1857 2327.17,86.1857 2329.31,86.1857 2331.44,86.1857 2333.57,86.1857 2335.7,86.1857 2337.83,86.1857 2339.97,86.1857 2342.1,86.1857 2344.23,86.1857 2346.36,86.1857 2348.49,86.1857 2350.62,86.1857 2352.76,86.1857 "/>
<path clip-path="url(#clip480)" d="M294.091 248.629 L532.195 248.629 L532.195 93.1086 L294.091 93.1086  Z" fill="#ffffff" fill-rule="evenodd" fill-opacity="1"/>
<polyline clip-path="url(#clip480)" style="stroke:#000000; stroke-linecap:round; stroke-linejoin:round; stroke-width:4; stroke-opacity:1; fill:none" points="294.091,248.629 532.195,248.629 532.195,93.1086 294.091,93.1086 294.091,248.629 "/>
<polyline clip-path="url(#clip480)" style="stroke:#009af9; stroke-linecap:round; stroke-linejoin:round; stroke-width:4; stroke-opacity:1; fill:none" points="317.754,144.949 459.731,144.949 "/>
<path clip-path="url(#clip480)" d="M508.046 136.303 L498.671 148.919 L508.532 162.229 L503.509 162.229 L495.963 152.043 L488.417 162.229 L483.393 162.229 L493.463 148.664 L484.25 136.303 L489.273 136.303 L496.148 145.539 L503.023 136.303 L508.046 136.303 Z" fill="#000000" fill-rule="nonzero" fill-opacity="1" /><polyline clip-path="url(#clip480)" style="stroke:#e26f46; stroke-linecap:round; stroke-linejoin:round; stroke-width:4; stroke-opacity:1; fill:none" points="317.754,196.789 459.731,196.789 "/>
<path clip-path="url(#clip480)" d="M499.898 178.05 L499.898 181.592 L495.824 181.592 Q493.532 181.592 492.63 182.518 Q491.75 183.444 491.75 185.851 L491.75 188.143 L498.764 188.143 L498.764 191.453 L491.75 191.453 L491.75 214.069 L487.468 214.069 L487.468 191.453 L483.393 191.453 L483.393 188.143 L487.468 188.143 L487.468 186.337 Q487.468 182.009 489.481 180.041 Q491.495 178.05 495.87 178.05 L499.898 178.05 Z" fill="#000000" fill-rule="nonzero" fill-opacity="1" /></svg>
