<?xml version="1.0" encoding="utf-8"?>
<svg xmlns="http://www.w3.org/2000/svg" xmlns:xlink="http://www.w3.org/1999/xlink" width="600" height="400" viewBox="0 0 2400 1600">
<defs>
  <clipPath id="clip620">
    <rect x="0" y="0" width="2400" height="1600"/>
  </clipPath>
</defs>
<path clip-path="url(#clip620)" d="M0 1600 L2400 1600 L2400 0 L0 0  Z" fill="#ffffff" fill-rule="evenodd" fill-opacity="1"/>
<defs>
  <clipPath id="clip621">
    <rect x="480" y="0" width="1681" height="1600"/>
  </clipPath>
</defs>
<path clip-path="url(#clip620)" d="M193.936 1423.18 L2352.76 1423.18 L2352.76 47.2441 L193.936 47.2441  Z" fill="#ffffff" fill-rule="evenodd" fill-opacity="1"/>
<defs>
  <clipPath id="clip622">
    <rect x="193" y="47" width="2160" height="1377"/>
  </clipPath>
</defs>
<polyline clip-path="url(#clip622)" style="stroke:#000000; stroke-linecap:round; stroke-linejoin:round; stroke-width:2; stroke-opacity:0.1; fill:none" points="193.936,1423.18 193.936,47.2441 "/>
<polyline clip-path="url(#clip622)" style="stroke:#000000; stroke-linecap:round; stroke-linejoin:round; stroke-width:2; stroke-opacity:0.1; fill:none" points="625.7,1423.18 625.7,47.2441 "/>
<polyline clip-path="url(#clip622)" style="stroke:#000000; stroke-linecap:round; stroke-linejoin:round; stroke-width:2; stroke-opacity:0.1; fill:none" points="1057.46,1423.18 1057.46,47.2441 "/>
<polyline clip-path="url(#clip622)" style="stroke:#000000; stroke-linecap:round; stroke-linejoin:round; stroke-width:2; stroke-opacity:0.1; fill:none" points="1489.23,1423.18 1489.23,47.2441 "/>
<polyline clip-path="url(#clip622)" style="stroke:#000000; stroke-linecap:round; stroke-linejoin:round; stroke-width:2; stroke-opacity:0.1; fill:none" points="1920.99,1423.18 1920.99,47.2441 "/>
<polyline clip-path="url(#clip622)" style="stroke:#000000; stroke-linecap:round; stroke-linejoin:round; stroke-width:2; stroke-opacity:0.1; fill:none" points="2352.76,1423.18 2352.76,47.2441 "/>
<polyline clip-path="url(#clip620)" style="stroke:#000000; stroke-linecap:round; stroke-linejoin:round; stroke-width:4; stroke-opacity:1; fill:none" points="193.936,1423.18 2352.76,1423.18 "/>
<polyline clip-path="url(#clip620)" style="stroke:#000000; stroke-linecap:round; stroke-linejoin:round; stroke-width:4; stroke-opacity:1; fill:none" points="193.936,1423.18 193.936,1404.28 "/>
<polyline clip-path="url(#clip620)" style="stroke:#000000; stroke-linecap:round; stroke-linejoin:round; stroke-width:4; stroke-opacity:1; fill:none" points="625.7,1423.18 625.7,1404.28 "/>
<polyline clip-path="url(#clip620)" style="stroke:#000000; stroke-linecap:round; stroke-linejoin:round; stroke-width:4; stroke-opacity:1; fill:none" points="1057.46,1423.18 1057.46,1404.28 "/>
<polyline clip-path="url(#clip620)" style="stroke:#000000; stroke-linecap:round; stroke-linejoin:round; stroke-width:4; stroke-opacity:1; fill:none" points="1489.23,1423.18 1489.23,1404.28 "/>
<polyline clip-path="url(#clip620)" style="stroke:#000000; stroke-linecap:round; stroke-linejoin:round; stroke-width:4; stroke-opacity:1; fill:none" points="1920.99,1423.18 1920.99,1404.28 "/>
<polyline clip-path="url(#clip620)" style="stroke:#000000; stroke-linecap:round; stroke-linejoin:round; stroke-width:4; stroke-opacity:1; fill:none" points="2352.76,1423.18 2352.76,1404.28 "/>
<path clip-path="url(#clip620)" d="M193.936 1454.1 Q190.325 1454.1 188.496 1457.66 Q186.691 1461.2 186.691 1468.33 Q186.691 1475.44 188.496 1479.01 Q190.325 1482.55 193.936 1482.55 Q197.57 1482.55 199.376 1479.01 Q201.204 1475.44 201.204 1468.33 Q201.204 1461.2 199.376 1457.66 Q197.57 1454.1 193.936 1454.1 M193.936 1450.39 Q199.746 1450.39 202.802 1455 Q205.88 1459.58 205.88 1468.33 Q205.88 1477.06 202.802 1481.67 Q199.746 1486.25 193.936 1486.25 Q188.126 1486.25 185.047 1481.67 Q181.992 1477.06 181.992 1468.33 Q181.992 1459.58 185.047 1455 Q188.126 1450.39 193.936 1450.39 Z" fill="#000000" fill-rule="nonzero" fill-opacity="1" /><path clip-path="url(#clip620)" d="M620.353 1481.64 L636.672 1481.64 L636.672 1485.58 L614.728 1485.58 L614.728 1481.64 Q617.39 1478.89 621.973 1474.26 Q626.58 1469.61 627.76 1468.27 Q630.006 1465.74 630.885 1464.01 Q631.788 1462.25 631.788 1460.56 Q631.788 1457.8 629.843 1456.07 Q627.922 1454.33 624.82 1454.33 Q622.621 1454.33 620.168 1455.09 Q617.737 1455.86 614.959 1457.41 L614.959 1452.69 Q617.783 1451.55 620.237 1450.97 Q622.691 1450.39 624.728 1450.39 Q630.098 1450.39 633.293 1453.08 Q636.487 1455.77 636.487 1460.26 Q636.487 1462.39 635.677 1464.31 Q634.89 1466.2 632.783 1468.8 Q632.205 1469.47 629.103 1472.69 Q626.001 1475.88 620.353 1481.64 Z" fill="#000000" fill-rule="nonzero" fill-opacity="1" /><path clip-path="url(#clip620)" d="M1060.47 1455.09 L1048.67 1473.54 L1060.47 1473.54 L1060.47 1455.09 M1059.25 1451.02 L1065.13 1451.02 L1065.13 1473.54 L1070.06 1473.54 L1070.06 1477.43 L1065.13 1477.43 L1065.13 1485.58 L1060.47 1485.58 L1060.47 1477.43 L1044.87 1477.43 L1044.87 1472.92 L1059.25 1451.02 Z" fill="#000000" fill-rule="nonzero" fill-opacity="1" /><path clip-path="url(#clip620)" d="M1489.63 1466.44 Q1486.48 1466.44 1484.63 1468.59 Q1482.8 1470.74 1482.8 1474.49 Q1482.8 1478.22 1484.63 1480.39 Q1486.48 1482.55 1489.63 1482.55 Q1492.78 1482.55 1494.61 1480.39 Q1496.46 1478.22 1496.46 1474.49 Q1496.46 1470.74 1494.61 1468.59 Q1492.78 1466.44 1489.63 1466.44 M1498.92 1451.78 L1498.92 1456.04 Q1497.16 1455.21 1495.35 1454.77 Q1493.57 1454.33 1491.81 1454.33 Q1487.18 1454.33 1484.73 1457.45 Q1482.3 1460.58 1481.95 1466.9 Q1483.31 1464.89 1485.37 1463.82 Q1487.43 1462.73 1489.91 1462.73 Q1495.12 1462.73 1498.13 1465.9 Q1501.16 1469.05 1501.16 1474.49 Q1501.16 1479.82 1498.01 1483.03 Q1494.86 1486.25 1489.63 1486.25 Q1483.64 1486.25 1480.47 1481.67 Q1477.3 1477.06 1477.3 1468.33 Q1477.3 1460.14 1481.18 1455.28 Q1485.07 1450.39 1491.62 1450.39 Q1493.38 1450.39 1495.17 1450.74 Q1496.97 1451.09 1498.92 1451.78 Z" fill="#000000" fill-rule="nonzero" fill-opacity="1" /><path clip-path="url(#clip620)" d="M1920.99 1469.17 Q1917.66 1469.17 1915.74 1470.95 Q1913.84 1472.73 1913.84 1475.86 Q1913.84 1478.98 1915.74 1480.77 Q1917.66 1482.55 1920.99 1482.55 Q1924.33 1482.55 1926.25 1480.77 Q1928.17 1478.96 1928.17 1475.86 Q1928.17 1472.73 1926.25 1470.95 Q1924.35 1469.17 1920.99 1469.17 M1916.32 1467.18 Q1913.31 1466.44 1911.62 1464.38 Q1909.95 1462.32 1909.95 1459.35 Q1909.95 1455.21 1912.89 1452.8 Q1915.85 1450.39 1920.99 1450.39 Q1926.15 1450.39 1929.09 1452.8 Q1932.03 1455.21 1932.03 1459.35 Q1932.03 1462.32 1930.34 1464.38 Q1928.68 1466.44 1925.69 1467.18 Q1929.07 1467.96 1930.95 1470.26 Q1932.84 1472.55 1932.84 1475.86 Q1932.84 1480.88 1929.77 1483.57 Q1926.71 1486.25 1920.99 1486.25 Q1915.27 1486.25 1912.2 1483.57 Q1909.14 1480.88 1909.14 1475.86 Q1909.14 1472.55 1911.04 1470.26 Q1912.94 1467.96 1916.32 1467.18 M1914.6 1459.79 Q1914.6 1462.48 1916.27 1463.98 Q1917.96 1465.49 1920.99 1465.49 Q1924 1465.49 1925.69 1463.98 Q1927.4 1462.48 1927.4 1459.79 Q1927.4 1457.11 1925.69 1455.6 Q1924 1454.1 1920.99 1454.1 Q1917.96 1454.1 1916.27 1455.6 Q1914.6 1457.11 1914.6 1459.79 Z" fill="#000000" fill-rule="nonzero" fill-opacity="1" /><path clip-path="url(#clip620)" d="M2327.44 1481.64 L2335.08 1481.64 L2335.08 1455.28 L2326.77 1456.95 L2326.77 1452.69 L2335.04 1451.02 L2339.71 1451.02 L2339.71 1481.64 L2347.35 1481.64 L2347.35 1485.58 L2327.44 1485.58 L2327.44 1481.64 Z" fill="#000000" fill-rule="nonzero" fill-opacity="1" /><path clip-path="url(#clip620)" d="M2366.8 1454.1 Q2363.18 1454.1 2361.36 1457.66 Q2359.55 1461.2 2359.55 1468.33 Q2359.55 1475.44 2361.36 1479.01 Q2363.18 1482.55 2366.8 1482.55 Q2370.43 1482.55 2372.23 1479.01 Q2374.06 1475.44 2374.06 1468.33 Q2374.06 1461.2 2372.23 1457.66 Q2370.43 1454.1 2366.8 1454.1 M2366.8 1450.39 Q2372.61 1450.39 2375.66 1455 Q2378.74 1459.58 2378.74 1468.33 Q2378.74 1477.06 2375.66 1481.67 Q2372.61 1486.25 2366.8 1486.25 Q2360.99 1486.25 2357.91 1481.67 Q2354.85 1477.06 2354.85 1468.33 Q2354.85 1459.58 2357.91 1455 Q2360.99 1450.39 2366.8 1450.39 Z" fill="#000000" fill-rule="nonzero" fill-opacity="1" /><path clip-path="url(#clip620)" d="M1272.41 1522.27 L1272.41 1532.4 L1284.47 1532.4 L1284.47 1536.95 L1272.41 1536.95 L1272.41 1556.3 Q1272.41 1560.66 1273.58 1561.9 Q1274.79 1563.14 1278.45 1563.14 L1284.47 1563.14 L1284.47 1568.04 L1278.45 1568.04 Q1271.67 1568.04 1269.1 1565.53 Q1266.52 1562.98 1266.52 1556.3 L1266.52 1536.95 L1262.22 1536.95 L1262.22 1532.4 L1266.52 1532.4 L1266.52 1522.27 L1272.41 1522.27 Z" fill="#000000" fill-rule="nonzero" fill-opacity="1" /><polyline clip-path="url(#clip622)" style="stroke:#000000; stroke-linecap:round; stroke-linejoin:round; stroke-width:2; stroke-opacity:0.1; fill:none" points="193.936,1181.75 2352.76,1181.75 "/>
<polyline clip-path="url(#clip622)" style="stroke:#000000; stroke-linecap:round; stroke-linejoin:round; stroke-width:2; stroke-opacity:0.1; fill:none" points="193.936,884.548 2352.76,884.548 "/>
<polyline clip-path="url(#clip622)" style="stroke:#000000; stroke-linecap:round; stroke-linejoin:round; stroke-width:2; stroke-opacity:0.1; fill:none" points="193.936,587.348 2352.76,587.348 "/>
<polyline clip-path="url(#clip622)" style="stroke:#000000; stroke-linecap:round; stroke-linejoin:round; stroke-width:2; stroke-opacity:0.1; fill:none" points="193.936,290.148 2352.76,290.148 "/>
<polyline clip-path="url(#clip620)" style="stroke:#000000; stroke-linecap:round; stroke-linejoin:round; stroke-width:4; stroke-opacity:1; fill:none" points="193.936,1423.18 193.936,47.2441 "/>
<polyline clip-path="url(#clip620)" style="stroke:#000000; stroke-linecap:round; stroke-linejoin:round; stroke-width:4; stroke-opacity:1; fill:none" points="193.936,1181.75 212.834,1181.75 "/>
<polyline clip-path="url(#clip620)" style="stroke:#000000; stroke-linecap:round; stroke-linejoin:round; stroke-width:4; stroke-opacity:1; fill:none" points="193.936,884.548 212.834,884.548 "/>
<polyline clip-path="url(#clip620)" style="stroke:#000000; stroke-linecap:round; stroke-linejoin:round; stroke-width:4; stroke-opacity:1; fill:none" points="193.936,587.348 212.834,587.348 "/>
<polyline clip-path="url(#clip620)" style="stroke:#000000; stroke-linecap:round; stroke-linejoin:round; stroke-width:4; stroke-opacity:1; fill:none" points="193.936,290.148 212.834,290.148 "/>
<path clip-path="url(#clip620)" d="M50.9921 1182.2 L80.6679 1182.2 L80.6679 1186.13 L50.9921 1186.13 L50.9921 1182.2 Z" fill="#000000" fill-rule="nonzero" fill-opacity="1" /><path clip-path="url(#clip620)" d="M91.5706 1195.09 L99.2095 1195.09 L99.2095 1168.73 L90.8993 1170.39 L90.8993 1166.14 L99.1632 1164.47 L103.839 1164.47 L103.839 1195.09 L111.478 1195.09 L111.478 1199.03 L91.5706 1199.03 L91.5706 1195.09 Z" fill="#000000" fill-rule="nonzero" fill-opacity="1" /><path clip-path="url(#clip620)" d="M120.922 1193.15 L125.807 1193.15 L125.807 1199.03 L120.922 1199.03 L120.922 1193.15 Z" fill="#000000" fill-rule="nonzero" fill-opacity="1" /><path clip-path="url(#clip620)" d="M145.992 1167.55 Q142.381 1167.55 140.552 1171.11 Q138.746 1174.65 138.746 1181.78 Q138.746 1188.89 140.552 1192.45 Q142.381 1196 145.992 1196 Q149.626 1196 151.431 1192.45 Q153.26 1188.89 153.26 1181.78 Q153.26 1174.65 151.431 1171.11 Q149.626 1167.55 145.992 1167.55 M145.992 1163.84 Q151.802 1163.84 154.857 1168.45 Q157.936 1173.03 157.936 1181.78 Q157.936 1190.51 154.857 1195.12 Q151.802 1199.7 145.992 1199.7 Q140.181 1199.7 137.103 1195.12 Q134.047 1190.51 134.047 1181.78 Q134.047 1173.03 137.103 1168.45 Q140.181 1163.84 145.992 1163.84 Z" fill="#000000" fill-rule="nonzero" fill-opacity="1" /><path clip-path="url(#clip620)" d="M51.9875 885 L81.6633 885 L81.6633 888.935 L51.9875 888.935 L51.9875 885 Z" fill="#000000" fill-rule="nonzero" fill-opacity="1" /><path clip-path="url(#clip620)" d="M101.756 870.347 Q98.1447 870.347 96.316 873.912 Q94.5104 877.453 94.5104 884.583 Q94.5104 891.689 96.316 895.254 Q98.1447 898.796 101.756 898.796 Q105.39 898.796 107.196 895.254 Q109.024 891.689 109.024 884.583 Q109.024 877.453 107.196 873.912 Q105.39 870.347 101.756 870.347 M101.756 866.643 Q107.566 866.643 110.621 871.25 Q113.7 875.833 113.7 884.583 Q113.7 893.31 110.621 897.916 Q107.566 902.499 101.756 902.499 Q95.9456 902.499 92.8669 897.916 Q89.8114 893.31 89.8114 884.583 Q89.8114 875.833 92.8669 871.25 Q95.9456 866.643 101.756 866.643 Z" fill="#000000" fill-rule="nonzero" fill-opacity="1" /><path clip-path="url(#clip620)" d="M121.918 895.949 L126.802 895.949 L126.802 901.828 L121.918 901.828 L121.918 895.949 Z" fill="#000000" fill-rule="nonzero" fill-opacity="1" /><path clip-path="url(#clip620)" d="M137.033 867.268 L155.39 867.268 L155.39 871.203 L141.316 871.203 L141.316 879.676 Q142.334 879.328 143.353 879.166 Q144.371 878.981 145.39 878.981 Q151.177 878.981 154.556 882.152 Q157.936 885.324 157.936 890.74 Q157.936 896.319 154.464 899.421 Q150.992 902.499 144.672 902.499 Q142.496 902.499 140.228 902.129 Q137.982 901.759 135.575 901.018 L135.575 896.319 Q137.658 897.453 139.881 898.009 Q142.103 898.564 144.58 898.564 Q148.584 898.564 150.922 896.458 Q153.26 894.351 153.26 890.74 Q153.26 887.129 150.922 885.023 Q148.584 882.916 144.58 882.916 Q142.705 882.916 140.83 883.333 Q138.978 883.75 137.033 884.629 L137.033 867.268 Z" fill="#000000" fill-rule="nonzero" fill-opacity="1" /><path clip-path="url(#clip620)" d="M100.76 573.147 Q97.1493 573.147 95.3206 576.711 Q93.515 580.253 93.515 587.383 Q93.515 594.489 95.3206 598.054 Q97.1493 601.596 100.76 601.596 Q104.395 601.596 106.2 598.054 Q108.029 594.489 108.029 587.383 Q108.029 580.253 106.2 576.711 Q104.395 573.147 100.76 573.147 M100.76 569.443 Q106.571 569.443 109.626 574.049 Q112.705 578.633 112.705 587.383 Q112.705 596.11 109.626 600.716 Q106.571 605.299 100.76 605.299 Q94.9502 605.299 91.8715 600.716 Q88.816 596.11 88.816 587.383 Q88.816 578.633 91.8715 574.049 Q94.9502 569.443 100.76 569.443 Z" fill="#000000" fill-rule="nonzero" fill-opacity="1" /><path clip-path="url(#clip620)" d="M120.922 598.748 L125.807 598.748 L125.807 604.628 L120.922 604.628 L120.922 598.748 Z" fill="#000000" fill-rule="nonzero" fill-opacity="1" /><path clip-path="url(#clip620)" d="M145.992 573.147 Q142.381 573.147 140.552 576.711 Q138.746 580.253 138.746 587.383 Q138.746 594.489 140.552 598.054 Q142.381 601.596 145.992 601.596 Q149.626 601.596 151.431 598.054 Q153.26 594.489 153.26 587.383 Q153.26 580.253 151.431 576.711 Q149.626 573.147 145.992 573.147 M145.992 569.443 Q151.802 569.443 154.857 574.049 Q157.936 578.633 157.936 587.383 Q157.936 596.11 154.857 600.716 Q151.802 605.299 145.992 605.299 Q140.181 605.299 137.103 600.716 Q134.047 596.11 134.047 587.383 Q134.047 578.633 137.103 574.049 Q140.181 569.443 145.992 569.443 Z" fill="#000000" fill-rule="nonzero" fill-opacity="1" /><path clip-path="url(#clip620)" d="M101.756 275.947 Q98.1447 275.947 96.316 279.511 Q94.5104 283.053 94.5104 290.183 Q94.5104 297.289 96.316 300.854 Q98.1447 304.395 101.756 304.395 Q105.39 304.395 107.196 300.854 Q109.024 297.289 109.024 290.183 Q109.024 283.053 107.196 279.511 Q105.39 275.947 101.756 275.947 M101.756 272.243 Q107.566 272.243 110.621 276.849 Q113.7 281.433 113.7 290.183 Q113.7 298.909 110.621 303.516 Q107.566 308.099 101.756 308.099 Q95.9456 308.099 92.8669 303.516 Q89.8114 298.909 89.8114 290.183 Q89.8114 281.433 92.8669 276.849 Q95.9456 272.243 101.756 272.243 Z" fill="#000000" fill-rule="nonzero" fill-opacity="1" /><path clip-path="url(#clip620)" d="M121.918 301.548 L126.802 301.548 L126.802 307.428 L121.918 307.428 L121.918 301.548 Z" fill="#000000" fill-rule="nonzero" fill-opacity="1" /><path clip-path="url(#clip620)" d="M137.033 272.868 L155.39 272.868 L155.39 276.803 L141.316 276.803 L141.316 285.275 Q142.334 284.928 143.353 284.766 Q144.371 284.581 145.39 284.581 Q151.177 284.581 154.556 287.752 Q157.936 290.923 157.936 296.34 Q157.936 301.919 154.464 305.02 Q150.992 308.099 144.672 308.099 Q142.496 308.099 140.228 307.729 Q137.982 307.358 135.575 306.618 L135.575 301.919 Q137.658 303.053 139.881 303.608 Q142.103 304.164 144.58 304.164 Q148.584 304.164 150.922 302.058 Q153.26 299.951 153.26 296.34 Q153.26 292.729 150.922 290.622 Q148.584 288.516 144.58 288.516 Q142.705 288.516 140.83 288.933 Q138.978 289.349 137.033 290.229 L137.033 272.868 Z" fill="#000000" fill-rule="nonzero" fill-opacity="1" /><polyline clip-path="url(#clip622)" style="stroke:#009af9; stroke-linecap:round; stroke-linejoin:round; stroke-width:4; stroke-opacity:1; fill:none" points="193.936,587.348 196.097,581.359 198.258,575.449 200.419,569.617 202.58,563.863 204.741,558.185 206.902,552.582 209.063,547.054 211.224,541.598 213.385,536.216 215.546,530.904 217.707,525.663 219.868,520.491 222.029,515.388 224.19,510.353 226.351,505.385 228.512,500.482 230.673,495.644 232.834,490.871 234.995,486.16 237.156,481.512 239.317,476.926 241.478,472.401 243.639,467.935 245.8,463.529 247.961,459.181 250.122,454.891 252.282,450.658 254.443,446.481 256.604,442.359 258.765,438.292 260.926,434.279 263.087,430.319 265.248,426.411 267.409,422.556 269.57,418.751 271.731,414.997 273.892,411.293 276.053,407.637 278.214,404.031 280.375,400.472 282.536,396.96 284.697,393.494 286.858,390.075 289.019,386.701 291.18,383.372 293.341,380.087 295.502,376.846 297.663,373.647 299.824,370.491 301.985,367.377 304.146,364.304 306.307,361.271 308.468,358.279 310.629,355.327 312.79,352.414 314.951,349.539 317.112,346.703 319.273,343.904 321.434,341.142 323.595,338.417 325.756,335.728 327.917,333.074 330.078,330.456 332.239,327.872 334.4,325.323 336.561,322.807 338.722,320.325 340.883,317.876 343.044,315.459 345.205,313.075 347.366,310.722 349.527,308.4 351.688,306.109 353.849,303.848 356.01,301.617 358.171,299.416 360.332,297.244 362.493,295.101 364.653,292.986 366.814,290.9 368.975,288.841 371.136,286.809 373.297,284.804 375.458,282.826 377.619,280.874 379.78,278.948 381.941,277.047 384.102,275.172 386.263,273.321 388.424,271.495 390.585,269.693 392.746,267.915 394.907,266.161 397.068,264.43 399.229,262.722 401.39,261.036 403.551,259.373 405.712,257.732 407.873,259.015 410.034,265.586 412.195,276.072 414.356,289.271 416.517,304.155 418.678,319.872 420.839,335.745 423,351.274 425.161,366.132 427.322,380.169 429.483,393.409 431.644,406.052 433.805,418.473 435.966,431.143 438.127,443.78 440.288,456.248 442.449,468.552 444.61,480.692 446.771,492.671 448.932,504.491 451.093,516.155 453.254,527.664 455.415,539.021 457.576,550.227 459.737,561.285 461.898,572.196 464.059,582.962 466.22,593.585 468.381,604.068 470.542,614.411 472.703,624.618 474.864,634.689 477.024,644.626 479.185,654.432 481.346,664.108 483.507,673.655 485.668,683.076 487.829,692.372 489.99,701.544 492.151,710.595 494.312,719.526 496.473,728.339 498.634,737.035 500.795,745.615 502.956,754.082 505.117,762.437 507.278,770.681 509.439,778.815 511.6,786.842 513.761,794.762 515.922,802.578 518.083,810.289 520.244,817.899 522.405,825.407 524.566,832.816 526.727,840.127 528.888,847.341 531.049,854.459 533.21,861.483 535.371,868.413 537.532,875.252 539.693,882 541.854,888.659 544.015,895.229 546.176,901.713 548.337,908.11 550.498,914.422 552.659,920.651 554.82,926.798 556.981,932.862 559.142,938.847 561.303,944.752 563.464,950.579 565.625,956.329 567.786,962.003 569.947,967.601 572.108,973.125 574.269,978.576 576.43,983.954 578.591,989.261 580.752,994.498 582.913,999.665 585.074,1004.76 587.235,1009.79 589.396,1014.76 591.556,1019.66 593.717,1024.49 595.878,1029.26 598.039,1033.97 600.2,1038.61 602.361,1043.19 604.522,1047.71 606.683,1052.17 608.844,1056.58 611.005,1060.92 613.166,1065.21 615.327,1069.44 617.488,1073.61 619.649,1077.73 621.81,1081.79 623.971,1085.8 626.132,1089.51 628.293,1091.17 630.454,1090.65 632.615,1088.22 634.776,1084.13 636.937,1078.61 639.098,1071.89 641.259,1064.16 643.42,1055.62 645.581,1046.44 647.742,1036.8 649.903,1026.83 652.064,1016.67 654.225,1006.44 656.386,996.239 658.547,986.168 660.708,976.297 662.869,966.69 665.03,957.395 667.191,948.443 669.352,939.855 671.513,931.634 673.674,923.771 675.835,916.242 677.996,909.009 680.157,902.017 682.318,895.201 684.479,888.479 686.64,881.754 688.801,874.917 690.962,867.972 693.123,861.114 695.284,854.347 697.445,847.669 699.606,841.08 701.767,834.578 703.927,828.162 706.088,821.832 708.249,815.585 710.41,809.421 712.571,803.339 714.732,797.338 716.893,791.416 719.054,785.573 721.215,779.807 723.376,774.118 725.537,768.504 727.698,762.964 729.859,757.498 732.02,752.104 734.181,746.782 736.342,741.53 738.503,736.348 740.664,731.234 742.825,726.187 744.986,721.208 747.147,716.295 749.308,711.446 751.469,706.662 753.63,701.942 755.791,697.284 757.952,692.688 760.113,688.153 762.274,683.678 764.435,679.262 766.596,674.906 768.757,670.607 770.918,666.365 773.079,662.179 775.24,658.049 777.401,653.974 779.562,649.953 781.723,645.986 783.884,642.071 786.045,638.208 788.206,634.396 790.367,630.635 792.528,626.924 794.689,623.262 796.85,619.649 799.011,616.084 801.172,612.566 803.333,609.094 805.494,605.669 807.655,602.289 809.816,598.953 811.977,595.662 814.138,592.415 816.298,589.21 818.459,586.048 820.62,582.928 822.781,579.849 824.942,576.811 827.103,573.813 829.264,570.854 831.425,567.935 833.586,565.055 835.747,562.212 837.908,559.408 840.069,556.641 842.23,555.25 844.391,559.922 846.552,564.537 848.713,568.985 850.874,573.387 853.035,577.73 855.196,582.015 857.357,586.244 859.518,590.417 861.679,594.534 863.84,598.597 866.001,602.606 868.162,606.562 870.323,610.465 872.484,614.317 874.645,618.117 876.806,621.867 878.967,625.568 881.128,629.219 883.289,632.822 885.45,636.377 887.611,639.885 889.772,643.346 891.933,646.762 894.094,650.132 896.255,653.458 898.416,656.74 900.577,659.978 902.738,663.173 904.899,666.326 907.06,669.437 909.221,672.506 911.382,675.535 913.543,678.524 915.704,681.473 917.865,684.384 920.026,687.255 922.187,690.089 924.348,692.884 926.509,695.643 928.669,698.366 930.83,701.052 932.991,703.702 935.152,706.318 937.313,708.898 939.474,711.445 941.635,713.958 943.796,716.437 945.957,718.884 948.118,721.298 950.279,723.68 952.44,726.031 954.601,728.35 956.762,730.639 958.923,732.897 961.084,735.125 963.245,737.324 965.406,739.494 967.567,741.635 969.728,743.747 971.889,745.832 974.05,747.889 976.211,749.918 978.372,751.921 980.533,753.897 982.694,755.847 984.855,757.771 987.016,759.67 989.177,761.543 991.338,763.392 993.499,765.216 995.66,767.015 997.821,768.791 999.982,770.544 1002.14,772.273 1004.3,773.979 1006.46,775.663 1008.63,777.325 1010.79,778.964 1012.95,780.581 1015.11,782.178 1017.27,783.753 1019.43,785.307 1021.59,786.84 1023.75,788.353 1025.91,789.847 1028.07,791.32 1030.24,792.774 1032.4,794.208 1034.56,795.624 1036.72,797.02 1038.88,798.399 1041.04,799.759 1043.2,801.1 1045.36,802.425 1047.52,803.731 1049.68,804.924 1051.85,804.544 1054.01,802.297 1056.17,798.433 1058.33,793.186 1060.49,786.774 1062.65,779.401 1064.81,771.256 1066.97,762.512 1069.13,753.33 1071.29,743.853 1073.46,734.21 1075.62,724.516 1077.78,714.869 1079.94,705.355 1082.1,696.041 1084.26,686.984 1086.42,678.222 1088.58,669.781 1090.74,661.668 1092.9,653.88 1095.07,646.396 1097.23,639.181 1099.39,632.185 1101.55,625.342 1103.71,618.572 1105.87,611.781 1108.03,604.876 1110.19,597.999 1112.35,591.213 1114.51,584.518 1116.67,577.911 1118.84,571.392 1121,564.959 1123.16,558.611 1125.32,552.348 1127.48,546.167 1129.64,540.069 1131.8,534.051 1133.96,528.114 1136.12,522.254 1138.28,516.473 1140.45,510.768 1142.61,505.139 1144.77,499.584 1146.93,494.103 1149.09,488.695 1151.25,483.358 1153.41,478.092 1155.57,472.896 1157.73,467.769 1159.89,462.71 1162.06,457.718 1164.22,452.792 1166.38,447.931 1168.54,443.135 1170.7,438.403 1172.86,433.733 1175.02,429.125 1177.18,424.579 1179.34,420.092 1181.5,415.666 1183.67,411.297 1185.83,406.987 1187.99,402.734 1190.15,398.538 1192.31,394.397 1194.47,390.311 1196.63,386.279 1198.79,382.3 1200.95,378.374 1203.11,374.501 1205.28,370.678 1207.44,366.907 1209.6,363.185 1211.76,359.512 1213.92,355.889 1216.08,352.313 1218.24,348.784 1220.4,345.303 1222.56,341.868 1224.72,338.478 1226.88,335.133 1229.05,331.832 1231.21,328.576 1233.37,325.362 1235.53,322.191 1237.69,319.062 1239.85,315.974 1242.01,312.928 1244.17,309.922 1246.33,306.955 1248.49,304.029 1250.66,301.14 1252.82,298.29 1254.98,295.478 1257.14,292.704 1259.3,289.966 1261.46,287.264 1263.62,284.598 1265.78,281.967 1267.94,279.372 1270.1,276.893 1272.27,276.646 1274.43,279.21 1276.59,284.137 1278.75,291.013 1280.91,299.454 1283.07,309.113 1285.23,319.673 1287.39,330.851 1289.55,342.397 1291.71,354.092 1293.88,365.753 1296.04,377.226 1298.2,388.393 1300.36,399.167 1302.52,409.495 1304.68,419.356 1306.84,428.762 1309,437.759 1311.16,446.424 1313.32,454.867 1315.49,463.232 1317.65,471.695 1319.81,480.294 1321.97,488.786 1324.13,497.166 1326.29,505.435 1328.45,513.594 1330.61,521.645 1332.77,529.589 1334.93,537.428 1337.09,545.163 1339.26,552.795 1341.42,560.327 1343.58,567.758 1345.74,575.091 1347.9,582.327 1350.06,589.467 1352.22,596.512 1354.38,603.464 1356.54,610.323 1358.7,617.092 1360.87,623.771 1363.03,630.362 1365.19,636.865 1367.35,643.281 1369.51,649.613 1371.67,655.86 1373.83,662.025 1375.99,668.108 1378.15,674.111 1380.31,680.033 1382.48,685.877 1384.64,691.644 1386.8,697.334 1388.96,702.949 1391.12,708.489 1393.28,713.956 1395.44,719.351 1397.6,724.674 1399.76,729.926 1401.92,735.109 1404.09,740.223 1406.25,745.269 1408.41,750.248 1410.57,755.162 1412.73,760.01 1414.89,764.794 1417.05,769.515 1419.21,774.173 1421.37,778.769 1423.53,783.304 1425.7,787.78 1427.86,792.195 1430.02,796.553 1432.18,800.852 1434.34,805.095 1436.5,809.281 1438.66,813.412 1440.82,817.487 1442.98,821.509 1445.14,825.478 1447.3,829.394 1449.47,833.258 1451.63,837.071 1453.79,840.833 1455.95,844.545 1458.11,848.209 1460.27,851.823 1462.43,855.39 1464.59,858.909 1466.75,862.382 1468.91,865.809 1471.08,869.19 1473.24,872.527 1475.4,875.819 1477.56,879.068 1479.72,882.246 1481.88,884.745 1484.04,886.414 1486.2,887.383 1488.36,887.77 1490.52,887.683 1492.69,887.222 1494.85,886.478 1497.01,885.529 1499.17,884.449 1501.33,883.297 1503.49,882.126 1505.65,880.978 1507.81,879.887 1509.97,878.875 1512.13,877.956 1514.3,877.135 1516.46,876.406 1518.62,875.756 1520.78,875.159 1522.94,874.582 1525.1,873.981 1527.26,873.318 1529.42,872.648 1531.58,871.987 1533.74,871.335 1535.91,870.691 1538.07,870.056 1540.23,869.429 1542.39,868.811 1544.55,868.2 1546.71,867.598 1548.87,867.004 1551.03,866.418 1553.19,865.839 1555.35,865.268 1557.51,864.705 1559.68,864.149 1561.84,863.6 1564,863.059 1566.16,862.524 1568.32,861.997 1570.48,861.477 1572.64,860.964 1574.8,860.458 1576.96,859.958 1579.12,859.465 1581.29,858.978 1583.45,858.498 1585.61,858.025 1587.77,857.557 1589.93,857.096 1592.09,856.641 1594.25,856.192 1596.41,855.749 1598.57,855.312 1600.73,854.881 1602.9,854.455 1605.06,854.036 1607.22,853.621 1609.38,853.213 1611.54,852.809 1613.7,852.411 1615.86,852.019 1618.02,851.631 1620.18,851.249 1622.34,850.871 1624.51,850.499 1626.67,850.132 1628.83,849.77 1630.99,849.412 1633.15,849.059 1635.31,848.711 1637.47,848.367 1639.63,848.028 1641.79,847.694 1643.95,847.363 1646.12,847.038 1648.28,846.716 1650.44,846.399 1652.6,846.086 1654.76,845.777 1656.92,845.472 1659.08,845.171 1661.24,844.874 1663.4,844.582 1665.56,844.293 1667.72,844.007 1669.89,843.726 1672.05,843.448 1674.21,843.174 1676.37,842.904 1678.53,842.637 1680.69,842.374 1682.85,842.114 1685.01,841.858 1687.17,841.605 1689.33,841.355 1691.5,841.109 1693.66,841.124 1695.82,842.142 1697.98,842.244 1700.14,840.015 1702.3,835.052 1704.46,827.963 1706.62,820.366 1708.78,813.266 1710.94,806.261 1713.11,799.349 1715.27,792.528 1717.43,785.798 1719.59,779.157 1721.75,772.603 1723.91,766.137 1726.07,759.757 1728.23,753.461 1730.39,747.249 1732.55,741.119 1734.72,735.07 1736.88,729.101 1739.04,723.212 1741.2,717.401 1743.36,711.667 1745.52,706.009 1747.68,700.425 1749.84,694.916 1752,689.48 1754.16,684.116 1756.33,678.823 1758.49,673.601 1760.65,668.447 1762.81,663.362 1764.97,658.344 1767.13,653.393 1769.29,648.507 1771.45,643.686 1773.61,638.929 1775.77,634.236 1777.93,629.604 1780.1,625.034 1782.26,620.524 1784.42,616.074 1786.58,611.683 1788.74,607.351 1790.9,603.076 1793.06,598.857 1795.22,594.695 1797.38,590.587 1799.54,586.534 1801.71,582.535 1803.87,578.589 1806.03,574.695 1808.19,570.853 1810.35,567.062 1812.51,563.321 1814.67,559.629 1816.83,555.987 1818.99,552.392 1821.15,548.846 1823.32,545.346 1825.48,541.893 1827.64,538.486 1829.8,535.123 1831.96,531.806 1834.12,528.532 1836.28,525.302 1838.44,522.115 1840.6,518.969 1842.76,515.866 1844.93,512.804 1847.09,509.782 1849.25,506.801 1851.41,503.858 1853.57,500.955 1855.73,498.091 1857.89,495.264 1860.05,492.475 1862.21,489.723 1864.37,487.007 1866.54,484.328 1868.7,481.684 1870.86,479.075 1873.02,476.5 1875.18,473.96 1877.34,471.453 1879.5,468.98 1881.66,466.539 1883.82,464.131 1885.98,461.754 1888.15,459.409 1890.31,457.096 1892.47,454.813 1894.63,452.56 1896.79,450.337 1898.95,448.143 1901.11,445.979 1903.27,443.824 1905.43,441.547 1907.59,439.185 1909.75,436.81 1911.92,434.483 1914.08,432.258 1916.24,430.18 1918.4,428.286 1920.56,426.602 1922.72,425.15 1924.88,423.938 1927.04,422.97 1929.2,422.238 1931.36,421.729 1933.53,421.417 1935.69,421.272 1937.85,421.251 1940.01,421.306 1942.17,421.379 1944.33,421.404 1946.49,421.344 1948.65,421.277 1950.81,421.211 1952.97,421.146 1955.14,421.082 1957.3,421.018 1959.46,420.956 1961.62,420.894 1963.78,420.833 1965.94,420.773 1968.1,420.714 1970.26,420.655 1972.42,420.598 1974.58,420.541 1976.75,420.484 1978.91,420.429 1981.07,420.374 1983.23,420.32 1985.39,420.267 1987.55,420.214 1989.71,420.162 1991.87,420.111 1994.03,420.06 1996.19,420.01 1998.36,419.961 2000.52,419.913 2002.68,419.865 2004.84,419.817 2007,419.771 2009.16,419.725 2011.32,419.679 2013.48,419.635 2015.64,419.59 2017.8,419.547 2019.96,419.504 2022.13,419.461 2024.29,419.419 2026.45,419.378 2028.61,419.337 2030.77,419.297 2032.93,419.257 2035.09,419.218 2037.25,419.179 2039.41,419.141 2041.57,419.104 2043.74,419.067 2045.9,419.03 2048.06,418.994 2050.22,418.958 2052.38,418.923 2054.54,418.888 2056.7,418.854 2058.86,418.82 2061.02,418.787 2063.18,418.754 2065.35,418.722 2067.51,418.69 2069.67,418.658 2071.83,418.627 2073.99,418.596 2076.15,418.566 2078.31,418.536 2080.47,418.506 2082.63,418.477 2084.79,418.448 2086.96,418.42 2089.12,418.392 2091.28,418.364 2093.44,418.337 2095.6,418.31 2097.76,418.283 2099.92,418.257 2102.08,418.231 2104.24,418.205 2106.4,418.18 2108.57,418.155 2110.73,418.131 2112.89,418.107 2115.05,418.083 2117.21,418.059 2119.37,418.036 2121.53,418.013 2123.69,417.99 2125.85,417.968 2128.01,417.946 2130.17,417.967 2132.34,418.9 2134.5,420.975 2136.66,424.053 2138.82,428 2140.98,432.691 2143.14,438.009 2145.3,443.843 2147.46,450.092 2149.62,456.66 2151.78,463.462 2153.95,470.418 2156.11,477.457 2158.27,484.514 2160.43,491.535 2162.59,498.471 2164.75,505.28 2166.91,511.93 2169.07,518.397 2171.23,524.661 2173.39,530.714 2175.56,536.553 2177.72,542.184 2179.88,547.62 2182.04,552.882 2184.2,557.998 2186.36,563.004 2188.52,567.945 2190.68,572.873 2192.84,577.846 2195,582.847 2197.17,587.783 2199.33,592.653 2201.49,597.459 2203.65,602.201 2205.81,606.88 2207.97,611.497 2210.13,616.053 2212.29,620.549 2214.45,624.985 2216.61,629.362 2218.78,633.681 2220.94,637.943 2223.1,642.148 2225.26,646.298 2227.42,650.392 2229.58,654.433 2231.74,658.42 2233.9,662.354 2236.06,666.236 2238.22,670.066 2240.38,673.846 2242.55,677.575 2244.71,681.255 2246.87,684.886 2249.03,688.469 2251.19,692.005 2253.35,695.493 2255.51,698.936 2257.67,702.332 2259.83,705.684 2261.99,708.991 2264.16,712.254 2266.32,715.474 2268.48,718.652 2270.64,721.787 2272.8,724.88 2274.96,727.933 2277.12,730.945 2279.28,733.917 2281.44,736.85 2283.6,739.744 2285.77,742.599 2287.93,745.417 2290.09,748.198 2292.25,750.941 2294.41,753.648 2296.57,756.32 2298.73,758.956 2300.89,761.557 2303.05,764.123 2305.21,766.656 2307.38,769.155 2309.54,771.62 2311.7,774.053 2313.86,776.454 2316.02,778.823 2318.18,781.161 2320.34,783.467 2322.5,785.743 2324.66,787.989 2326.82,790.205 2328.99,792.392 2331.15,794.549 2333.31,796.678 2335.47,798.779 2337.63,800.852 2339.79,802.897 2341.95,804.916 2344.11,806.907 2346.27,808.872 2348.43,810.812 2350.59,812.725 2352.76,814.613 "/>
<polyline clip-path="url(#clip622)" style="stroke:#e26f46; stroke-linecap:round; stroke-linejoin:round; stroke-width:4; stroke-opacity:1; fill:none" points="193.936,135.592 196.097,135.592 198.258,135.592 200.419,135.592 202.58,135.592 204.741,135.592 206.902,135.592 209.063,135.592 211.224,135.592 213.385,135.592 215.546,135.592 217.707,135.592 219.868,135.592 222.029,135.592 224.19,135.592 226.351,135.592 228.512,135.592 230.673,135.592 232.834,135.592 234.995,135.592 237.156,135.592 239.317,135.592 241.478,135.592 243.639,135.592 245.8,135.592 247.961,135.592 250.122,135.592 252.282,135.592 254.443,135.592 256.604,135.592 258.765,135.592 260.926,135.592 263.087,135.592 265.248,135.592 267.409,135.592 269.57,135.592 271.731,135.592 273.892,135.592 276.053,135.592 278.214,135.592 280.375,135.592 282.536,135.592 284.697,135.592 286.858,135.592 289.019,135.592 291.18,135.592 293.341,135.592 295.502,135.592 297.663,135.592 299.824,135.592 301.985,135.592 304.146,135.592 306.307,135.592 308.468,135.592 310.629,135.592 312.79,135.592 314.951,135.592 317.112,135.592 319.273,135.592 321.434,135.592 323.595,135.592 325.756,135.592 327.917,135.592 330.078,135.592 332.239,135.592 334.4,135.592 336.561,135.592 338.722,135.592 340.883,135.592 343.044,135.592 345.205,135.592 347.366,135.592 349.527,135.592 351.688,135.592 353.849,135.592 356.01,135.592 358.171,135.592 360.332,135.592 362.493,135.592 364.653,135.592 366.814,135.592 368.975,135.592 371.136,135.592 373.297,135.592 375.458,135.592 377.619,135.592 379.78,135.592 381.941,135.592 384.102,135.592 386.263,135.592 388.424,135.592 390.585,135.592 392.746,135.592 394.907,135.592 397.068,135.592 399.229,135.592 401.39,135.592 403.551,135.592 405.712,135.592 407.873,135.592 410.034,1384.24 412.195,1384.24 414.356,1384.24 416.517,1384.24 418.678,1384.24 420.839,1384.24 423,1384.24 425.161,1384.24 427.322,1384.24 429.483,1384.24 431.644,1384.24 433.805,1384.24 435.966,1384.24 438.127,1384.24 440.288,1384.24 442.449,1384.24 444.61,1384.24 446.771,1384.24 448.932,1384.24 451.093,1384.24 453.254,1384.24 455.415,1384.24 457.576,1384.24 459.737,1384.24 461.898,1384.24 464.059,1384.24 466.22,1384.24 468.381,1384.24 470.542,1384.24 472.703,1384.24 474.864,1384.24 477.024,1384.24 479.185,1384.24 481.346,1384.24 483.507,1384.24 485.668,1384.24 487.829,1384.24 489.99,1384.24 492.151,1384.24 494.312,1384.24 496.473,1384.24 498.634,1384.24 500.795,1384.24 502.956,1384.24 505.117,1384.24 507.278,1384.24 509.439,1384.24 511.6,1384.24 513.761,1384.24 515.922,1384.24 518.083,1384.24 520.244,1384.24 522.405,1384.24 524.566,1384.24 526.727,1384.24 528.888,1384.24 531.049,1384.24 533.21,1384.24 535.371,1384.24 537.532,1384.24 539.693,1384.24 541.854,1384.24 544.015,1384.24 546.176,1384.24 548.337,1384.24 550.498,1384.24 552.659,1384.24 554.82,1384.24 556.981,1384.24 559.142,1384.24 561.303,1384.24 563.464,1384.24 565.625,1384.24 567.786,1384.24 569.947,1384.24 572.108,1384.24 574.269,1384.24 576.43,1384.24 578.591,1384.24 580.752,1384.24 582.913,1384.24 585.074,1384.24 587.235,1384.24 589.396,1384.24 591.556,1384.24 593.717,1384.24 595.878,1384.24 598.039,1384.24 600.2,1384.24 602.361,1384.24 604.522,1384.24 606.683,1384.24 608.844,1384.24 611.005,1384.24 613.166,1384.24 615.327,1384.24 617.488,1384.24 619.649,1384.24 621.81,1384.24 623.971,1384.24 626.132,350.675 628.293,350.675 630.454,350.675 632.615,350.675 634.776,350.675 636.937,350.675 639.098,350.675 641.259,350.675 643.42,350.675 645.581,350.675 647.742,350.675 649.903,350.675 652.064,350.675 654.225,350.675 656.386,350.675 658.547,350.675 660.708,350.675 662.869,350.675 665.03,350.675 667.191,350.675 669.352,350.675 671.513,350.675 673.674,350.675 675.835,350.675 677.996,350.675 680.157,350.675 682.318,350.675 684.479,350.675 686.64,350.675 688.801,350.675 690.962,350.675 693.123,350.675 695.284,350.675 697.445,350.675 699.606,350.675 701.767,350.675 703.927,350.675 706.088,350.675 708.249,350.675 710.41,350.675 712.571,350.675 714.732,350.675 716.893,350.675 719.054,350.675 721.215,350.675 723.376,350.675 725.537,350.675 727.698,350.675 729.859,350.675 732.02,350.675 734.181,350.675 736.342,350.675 738.503,350.675 740.664,350.675 742.825,350.675 744.986,350.675 747.147,350.675 749.308,350.675 751.469,350.675 753.63,350.675 755.791,350.675 757.952,350.675 760.113,350.675 762.274,350.675 764.435,350.675 766.596,350.675 768.757,350.675 770.918,350.675 773.079,350.675 775.24,350.675 777.401,350.675 779.562,350.675 781.723,350.675 783.884,350.675 786.045,350.675 788.206,350.675 790.367,350.675 792.528,350.675 794.689,350.675 796.85,350.675 799.011,350.675 801.172,350.675 803.333,350.675 805.494,350.675 807.655,350.675 809.816,350.675 811.977,350.675 814.138,350.675 816.298,350.675 818.459,350.675 820.62,350.675 822.781,350.675 824.942,350.675 827.103,350.675 829.264,350.675 831.425,350.675 833.586,350.675 835.747,350.675 837.908,350.675 840.069,350.675 842.23,900.973 844.391,900.973 846.552,900.973 848.713,900.973 850.874,900.973 853.035,900.973 855.196,900.973 857.357,900.973 859.518,900.973 861.679,900.973 863.84,900.973 866.001,900.973 868.162,900.973 870.323,900.973 872.484,900.973 874.645,900.973 876.806,900.973 878.967,900.973 881.128,900.973 883.289,900.973 885.45,900.973 887.611,900.973 889.772,900.973 891.933,900.973 894.094,900.973 896.255,900.973 898.416,900.973 900.577,900.973 902.738,900.973 904.899,900.973 907.06,900.973 909.221,900.973 911.382,900.973 913.543,900.973 915.704,900.973 917.865,900.973 920.026,900.973 922.187,900.973 924.348,900.973 926.509,900.973 928.669,900.973 930.83,900.973 932.991,900.973 935.152,900.973 937.313,900.973 939.474,900.973 941.635,900.973 943.796,900.973 945.957,900.973 948.118,900.973 950.279,900.973 952.44,900.973 954.601,900.973 956.762,900.973 958.923,900.973 961.084,900.973 963.245,900.973 965.406,900.973 967.567,900.973 969.728,900.973 971.889,900.973 974.05,900.973 976.211,900.973 978.372,900.973 980.533,900.973 982.694,900.973 984.855,900.973 987.016,900.973 989.177,900.973 991.338,900.973 993.499,900.973 995.66,900.973 997.821,900.973 999.982,900.973 1002.14,900.973 1004.3,900.973 1006.46,900.973 1008.63,900.973 1010.79,900.973 1012.95,900.973 1015.11,900.973 1017.27,900.973 1019.43,900.973 1021.59,900.973 1023.75,900.973 1025.91,900.973 1028.07,900.973 1030.24,900.973 1032.4,900.973 1034.56,900.973 1036.72,900.973 1038.88,900.973 1041.04,900.973 1043.2,900.973 1045.36,900.973 1047.52,900.973 1049.68,900.973 1051.85,900.973 1054.01,900.973 1056.17,900.973 1058.33,86.1857 1060.49,86.1857 1062.65,86.1857 1064.81,86.1857 1066.97,86.1857 1069.13,86.1857 1071.29,86.1857 1073.46,86.1857 1075.62,86.1857 1077.78,86.1857 1079.94,86.1857 1082.1,86.1857 1084.26,86.1857 1086.42,86.1857 1088.58,86.1857 1090.74,86.1857 1092.9,86.1857 1095.07,86.1857 1097.23,86.1857 1099.39,86.1857 1101.55,86.1857 1103.71,86.1857 1105.87,86.1857 1108.03,86.1857 1110.19,86.1857 1112.35,86.1857 1114.51,86.1857 1116.67,86.1857 1118.84,86.1857 1121,86.1857 1123.16,86.1857 1125.32,86.1857 1127.48,86.1857 1129.64,86.1857 1131.8,86.1857 1133.96,86.1857 1136.12,86.1857 1138.28,86.1857 1140.45,86.1857 1142.61,86.1857 1144.77,86.1857 1146.93,86.1857 1149.09,86.1857 1151.25,86.1857 1153.41,86.1857 1155.57,86.1857 1157.73,86.1857 1159.89,86.1857 1162.06,86.1857 1164.22,86.1857 1166.38,86.1857 1168.54,86.1857 1170.7,86.1857 1172.86,86.1857 1175.02,86.1857 1177.18,86.1857 1179.34,86.1857 1181.5,86.1857 1183.67,86.1857 1185.83,86.1857 1187.99,86.1857 1190.15,86.1857 1192.31,86.1857 1194.47,86.1857 1196.63,86.1857 1198.79,86.1857 1200.95,86.1857 1203.11,86.1857 1205.28,86.1857 1207.44,86.1857 1209.6,86.1857 1211.76,86.1857 1213.92,86.1857 1216.08,86.1857 1218.24,86.1857 1220.4,86.1857 1222.56,86.1857 1224.72,86.1857 1226.88,86.1857 1229.05,86.1857 1231.21,86.1857 1233.37,86.1857 1235.53,86.1857 1237.69,86.1857 1239.85,86.1857 1242.01,86.1857 1244.17,86.1857 1246.33,86.1857 1248.49,86.1857 1250.66,86.1857 1252.82,86.1857 1254.98,86.1857 1257.14,86.1857 1259.3,86.1857 1261.46,86.1857 1263.62,86.1857 1265.78,86.1857 1267.94,86.1857 1270.1,86.1857 1272.27,86.1857 1274.43,1120.85 1276.59,1120.85 1278.75,1120.85 1280.91,1120.85 1283.07,1120.85 1285.23,1120.85 1287.39,1120.85 1289.55,1120.85 1291.71,1120.85 1293.88,1120.85 1296.04,1120.85 1298.2,1120.85 1300.36,1120.85 1302.52,1120.85 1304.68,1120.85 1306.84,1120.85 1309,1120.85 1311.16,1120.85 1313.32,1120.85 1315.49,1120.85 1317.65,1120.85 1319.81,1120.85 1321.97,1120.85 1324.13,1120.85 1326.29,1120.85 1328.45,1120.85 1330.61,1120.85 1332.77,1120.85 1334.93,1120.85 1337.09,1120.85 1339.26,1120.85 1341.42,1120.85 1343.58,1120.85 1345.74,1120.85 1347.9,1120.85 1350.06,1120.85 1352.22,1120.85 1354.38,1120.85 1356.54,1120.85 1358.7,1120.85 1360.87,1120.85 1363.03,1120.85 1365.19,1120.85 1367.35,1120.85 1369.51,1120.85 1371.67,1120.85 1373.83,1120.85 1375.99,1120.85 1378.15,1120.85 1380.31,1120.85 1382.48,1120.85 1384.64,1120.85 1386.8,1120.85 1388.96,1120.85 1391.12,1120.85 1393.28,1120.85 1395.44,1120.85 1397.6,1120.85 1399.76,1120.85 1401.92,1120.85 1404.09,1120.85 1406.25,1120.85 1408.41,1120.85 1410.57,1120.85 1412.73,1120.85 1414.89,1120.85 1417.05,1120.85 1419.21,1120.85 1421.37,1120.85 1423.53,1120.85 1425.7,1120.85 1427.86,1120.85 1430.02,1120.85 1432.18,1120.85 1434.34,1120.85 1436.5,1120.85 1438.66,1120.85 1440.82,1120.85 1442.98,1120.85 1445.14,1120.85 1447.3,1120.85 1449.47,1120.85 1451.63,1120.85 1453.79,1120.85 1455.95,1120.85 1458.11,1120.85 1460.27,1120.85 1462.43,1120.85 1464.59,1120.85 1466.75,1120.85 1468.91,1120.85 1471.08,1120.85 1473.24,1120.85 1475.4,1120.85 1477.56,1120.85 1479.72,1120.85 1481.88,1120.85 1484.04,1120.85 1486.2,1120.85 1488.36,1120.85 1490.52,822.782 1492.69,822.782 1494.85,822.782 1497.01,822.782 1499.17,822.782 1501.33,822.782 1503.49,822.782 1505.65,822.782 1507.81,822.782 1509.97,822.782 1512.13,822.782 1514.3,822.782 1516.46,822.782 1518.62,822.782 1520.78,822.782 1522.94,822.782 1525.1,822.782 1527.26,822.782 1529.42,822.782 1531.58,822.782 1533.74,822.782 1535.91,822.782 1538.07,822.782 1540.23,822.782 1542.39,822.782 1544.55,822.782 1546.71,822.782 1548.87,822.782 1551.03,822.782 1553.19,822.782 1555.35,822.782 1557.51,822.782 1559.68,822.782 1561.84,822.782 1564,822.782 1566.16,822.782 1568.32,822.782 1570.48,822.782 1572.64,822.782 1574.8,822.782 1576.96,822.782 1579.12,822.782 1581.29,822.782 1583.45,822.782 1585.61,822.782 1587.77,822.782 1589.93,822.782 1592.09,822.782 1594.25,822.782 1596.41,822.782 1598.57,822.782 1600.73,822.782 1602.9,822.782 1605.06,822.782 1607.22,822.782 1609.38,822.782 1611.54,822.782 1613.7,822.782 1615.86,822.782 1618.02,822.782 1620.18,822.782 1622.34,822.782 1624.51,822.782 1626.67,822.782 1628.83,822.782 1630.99,822.782 1633.15,822.782 1635.31,822.782 1637.47,822.782 1639.63,822.782 1641.79,822.782 1643.95,822.782 1646.12,822.782 1648.28,822.782 1650.44,822.782 1652.6,822.782 1654.76,822.782 1656.92,822.782 1659.08,822.782 1661.24,822.782 1663.4,822.782 1665.56,822.782 1667.72,822.782 1669.89,822.782 1672.05,822.782 1674.21,822.782 1676.37,822.782 1678.53,822.782 1680.69,822.782 1682.85,822.782 1685.01,822.782 1687.17,822.782 1689.33,822.782 1691.5,822.782 1693.66,822.782 1695.82,822.782 1697.98,822.782 1700.14,822.782 1702.3,822.782 1704.46,822.782 1706.62,284.89 1708.78,284.89 1710.94,284.89 1713.11,284.89 1715.27,284.89 1717.43,284.89 1719.59,284.89 1721.75,284.89 1723.91,284.89 1726.07,284.89 1728.23,284.89 1730.39,284.89 1732.55,284.89 1734.72,284.89 1736.88,284.89 1739.04,284.89 1741.2,284.89 1743.36,284.89 1745.52,284.89 1747.68,284.89 1749.84,284.89 1752,284.89 1754.16,284.89 1756.33,284.89 1758.49,284.89 1760.65,284.89 1762.81,284.89 1764.97,284.89 1767.13,284.89 1769.29,284.89 1771.45,284.89 1773.61,284.89 1775.77,284.89 1777.93,284.89 1780.1,284.89 1782.26,284.89 1784.42,284.89 1786.58,284.89 1788.74,284.89 1790.9,284.89 1793.06,284.89 1795.22,284.89 1797.38,284.89 1799.54,284.89 1801.71,284.89 1803.87,284.89 1806.03,284.89 1808.19,284.89 1810.35,284.89 1812.51,284.89 1814.67,284.89 1816.83,284.89 1818.99,284.89 1821.15,284.89 1823.32,284.89 1825.48,284.89 1827.64,284.89 1829.8,284.89 1831.96,284.89 1834.12,284.89 1836.28,284.89 1838.44,284.89 1840.6,284.89 1842.76,284.89 1844.93,284.89 1847.09,284.89 1849.25,284.89 1851.41,284.89 1853.57,284.89 1855.73,284.89 1857.89,284.89 1860.05,284.89 1862.21,284.89 1864.37,284.89 1866.54,284.89 1868.7,284.89 1870.86,284.89 1873.02,284.89 1875.18,284.89 1877.34,284.89 1879.5,284.89 1881.66,284.89 1883.82,284.89 1885.98,284.89 1888.15,284.89 1890.31,284.89 1892.47,284.89 1894.63,284.89 1896.79,284.89 1898.95,284.89 1901.11,284.89 1903.27,284.89 1905.43,284.89 1907.59,284.89 1909.75,284.89 1911.92,284.89 1914.08,284.89 1916.24,284.89 1918.4,284.89 1920.56,284.89 1922.72,416.302 1924.88,416.302 1927.04,416.302 1929.2,416.302 1931.36,416.302 1933.53,416.302 1935.69,416.302 1937.85,416.302 1940.01,416.302 1942.17,416.302 1944.33,416.302 1946.49,416.302 1948.65,416.302 1950.81,416.302 1952.97,416.302 1955.14,416.302 1957.3,416.302 1959.46,416.302 1961.62,416.302 1963.78,416.302 1965.94,416.302 1968.1,416.302 1970.26,416.302 1972.42,416.302 1974.58,416.302 1976.75,416.302 1978.91,416.302 1981.07,416.302 1983.23,416.302 1985.39,416.302 1987.55,416.302 1989.71,416.302 1991.87,416.302 1994.03,416.302 1996.19,416.302 1998.36,416.302 2000.52,416.302 2002.68,416.302 2004.84,416.302 2007,416.302 2009.16,416.302 2011.32,416.302 2013.48,416.302 2015.64,416.302 2017.8,416.302 2019.96,416.302 2022.13,416.302 2024.29,416.302 2026.45,416.302 2028.61,416.302 2030.77,416.302 2032.93,416.302 2035.09,416.302 2037.25,416.302 2039.41,416.302 2041.57,416.302 2043.74,416.302 2045.9,416.302 2048.06,416.302 2050.22,416.302 2052.38,416.302 2054.54,416.302 2056.7,416.302 2058.86,416.302 2061.02,416.302 2063.18,416.302 2065.35,416.302 2067.51,416.302 2069.67,416.302 2071.83,416.302 2073.99,416.302 2076.15,416.302 2078.31,416.302 2080.47,416.302 2082.63,416.302 2084.79,416.302 2086.96,416.302 2089.12,416.302 2091.28,416.302 2093.44,416.302 2095.6,416.302 2097.76,416.302 2099.92,416.302 2102.08,416.302 2104.24,416.302 2106.4,416.302 2108.57,416.302 2110.73,416.302 2112.89,416.302 2115.05,416.302 2117.21,416.302 2119.37,416.302 2121.53,416.302 2123.69,416.302 2125.85,416.302 2128.01,416.302 2130.17,416.302 2132.34,416.302 2134.5,416.302 2136.66,416.302 2138.82,955.135 2140.98,955.135 2143.14,955.135 2145.3,955.135 2147.46,955.135 2149.62,955.135 2151.78,955.135 2153.95,955.135 2156.11,955.135 2158.27,955.135 2160.43,955.135 2162.59,955.135 2164.75,955.135 2166.91,955.135 2169.07,955.135 2171.23,955.135 2173.39,955.135 2175.56,955.135 2177.72,955.135 2179.88,955.135 2182.04,955.135 2184.2,955.135 2186.36,955.135 2188.52,955.135 2190.68,955.135 2192.84,955.135 2195,955.135 2197.17,955.135 2199.33,955.135 2201.49,955.135 2203.65,955.135 2205.81,955.135 2207.97,955.135 2210.13,955.135 2212.29,955.135 2214.45,955.135 2216.61,955.135 2218.78,955.135 2220.94,955.135 2223.1,955.135 2225.26,955.135 2227.42,955.135 2229.58,955.135 2231.74,955.135 2233.9,955.135 2236.06,955.135 2238.22,955.135 2240.38,955.135 2242.55,955.135 2244.71,955.135 2246.87,955.135 2249.03,955.135 2251.19,955.135 2253.35,955.135 2255.51,955.135 2257.67,955.135 2259.83,955.135 2261.99,955.135 2264.16,955.135 2266.32,955.135 2268.48,955.135 2270.64,955.135 2272.8,955.135 2274.96,955.135 2277.12,955.135 2279.28,955.135 2281.44,955.135 2283.6,955.135 2285.77,955.135 2287.93,955.135 2290.09,955.135 2292.25,955.135 2294.41,955.135 2296.57,955.135 2298.73,955.135 2300.89,955.135 2303.05,955.135 2305.21,955.135 2307.38,955.135 2309.54,955.135 2311.7,955.135 2313.86,955.135 2316.02,955.135 2318.18,955.135 2320.34,955.135 2322.5,955.135 2324.66,955.135 2326.82,955.135 2328.99,955.135 2331.15,955.135 2333.31,955.135 2335.47,955.135 2337.63,955.135 2339.79,955.135 2341.95,955.135 2344.11,955.135 2346.27,955.135 2348.43,955.135 2350.59,955.135 2352.76,955.135 "/>
<path clip-path="url(#clip620)" d="M2039.77 1377.32 L2280.8 1377.32 L2280.8 1221.8 L2039.77 1221.8  Z" fill="#ffffff" fill-rule="evenodd" fill-opacity="1"/>
<polyline clip-path="url(#clip620)" style="stroke:#000000; stroke-linecap:round; stroke-linejoin:round; stroke-width:4; stroke-opacity:1; fill:none" points="2039.77,1377.32 2280.8,1377.32 2280.8,1221.8 2039.77,1221.8 2039.77,1377.32 "/>
<polyline clip-path="url(#clip620)" style="stroke:#009af9; stroke-linecap:round; stroke-linejoin:round; stroke-width:4; stroke-opacity:1; fill:none" points="2063.76,1273.64 2207.68,1273.64 "/>
<path clip-path="url(#clip620)" d="M2256.32 1264.99 L2246.95 1277.61 L2256.81 1290.92 L2251.79 1290.92 L2244.24 1280.73 L2236.69 1290.92 L2231.67 1290.92 L2241.74 1277.35 L2232.53 1264.99 L2237.55 1264.99 L2244.42 1274.23 L2251.3 1264.99 L2256.32 1264.99 Z" fill="#000000" fill-rule="nonzero" fill-opacity="1" /><polyline clip-path="url(#clip620)" style="stroke:#e26f46; stroke-linecap:round; stroke-linejoin:round; stroke-width:4; stroke-opacity:1; fill:none" points="2063.76,1325.48 2207.68,1325.48 "/>
<path clip-path="url(#clip620)" d="M2248.17 1306.74 L2248.17 1310.28 L2244.1 1310.28 Q2241.81 1310.28 2240.91 1311.2 Q2240.03 1312.13 2240.03 1314.54 L2240.03 1316.83 L2247.04 1316.83 L2247.04 1320.14 L2240.03 1320.14 L2240.03 1342.76 L2235.74 1342.76 L2235.74 1320.14 L2231.67 1320.14 L2231.67 1316.83 L2235.74 1316.83 L2235.74 1315.02 Q2235.74 1310.7 2237.76 1308.73 Q2239.77 1306.74 2244.15 1306.74 L2248.17 1306.74 Z" fill="#000000" fill-rule="nonzero" fill-opacity="1" /></svg>
