<?xml version="1.0" encoding="utf-8"?>
<svg xmlns="http://www.w3.org/2000/svg" xmlns:xlink="http://www.w3.org/1999/xlink" width="600" height="400" viewBox="0 0 2400 1600">
<defs>
  <clipPath id="clip950">
    <rect x="0" y="0" width="2400" height="1600"/>
  </clipPath>
</defs>
<path clip-path="url(#clip950)" d="M0 1600 L2400 1600 L2400 0 L0 0  Z" fill="#ffffff" fill-rule="evenodd" fill-opacity="1"/>
<defs>
  <clipPath id="clip951">
    <rect x="193" y="47" width="2160" height="1377"/>
  </clipPath>
</defs>
<path clip-path="url(#clip950)" d="M193.936 1423.18 L2352.76 1423.18 L2352.76 47.2441 L193.936 47.2441  Z" fill="#ffffff" fill-rule="evenodd" fill-opacity="1"/>
<polyline clip-path="url(#clip951)" style="stroke:#000000; stroke-linecap:round; stroke-linejoin:round; stroke-width:2; stroke-opacity:0.1; fill:none" points="193.936,1423.18 193.936,47.2441 "/>
<polyline clip-path="url(#clip951)" style="stroke:#000000; stroke-linecap:round; stroke-linejoin:round; stroke-width:2; stroke-opacity:0.1; fill:none" points="625.7,1423.18 625.7,47.2441 "/>
<polyline clip-path="url(#clip951)" style="stroke:#000000; stroke-linecap:round; stroke-linejoin:round; stroke-width:2; stroke-opacity:0.1; fill:none" points="1057.46,1423.18 1057.46,47.2441 "/>
<polyline clip-path="url(#clip951)" style="stroke:#000000; stroke-linecap:round; stroke-linejoin:round; stroke-width:2; stroke-opacity:0.1; fill:none" points="1489.23,1423.18 1489.23,47.2441 "/>
<polyline clip-path="url(#clip951)" style="stroke:#000000; stroke-linecap:round; stroke-linejoin:round; stroke-width:2; stroke-opacity:0.1; fill:none" points="1920.99,1423.18 1920.99,47.2441 "/>
<polyline clip-path="url(#clip951)" style="stroke:#000000; stroke-linecap:round; stroke-linejoin:round; stroke-width:2; stroke-opacity:0.1; fill:none" points="2352.76,1423.18 2352.76,47.2441 "/>
<polyline clip-path="url(#clip951)" style="stroke:#000000; stroke-linecap:round; stroke-linejoin:round; stroke-width:2; stroke-opacity:0.1; fill:none" points="193.936,1335.73 2352.76,1335.73 "/>
<polyline clip-path="url(#clip951)" style="stroke:#000000; stroke-linecap:round; stroke-linejoin:round; stroke-width:2; stroke-opacity:0.1; fill:none" points="193.936,1118.44 2352.76,1118.44 "/>
<polyline clip-path="url(#clip951)" style="stroke:#000000; stroke-linecap:round; stroke-linejoin:round; stroke-width:2; stroke-opacity:0.1; fill:none" points="193.936,901.151 2352.76,901.151 "/>
<polyline clip-path="url(#clip951)" style="stroke:#000000; stroke-linecap:round; stroke-linejoin:round; stroke-width:2; stroke-opacity:0.1; fill:none" points="193.936,683.86 2352.76,683.86 "/>
<polyline clip-path="url(#clip951)" style="stroke:#000000; stroke-linecap:round; stroke-linejoin:round; stroke-width:2; stroke-opacity:0.1; fill:none" points="193.936,466.57 2352.76,466.57 "/>
<polyline clip-path="url(#clip951)" style="stroke:#000000; stroke-linecap:round; stroke-linejoin:round; stroke-width:2; stroke-opacity:0.1; fill:none" points="193.936,249.279 2352.76,249.279 "/>
<polyline clip-path="url(#clip950)" style="stroke:#000000; stroke-linecap:round; stroke-linejoin:round; stroke-width:4; stroke-opacity:1; fill:none" points="193.936,1423.18 2352.76,1423.18 "/>
<polyline clip-path="url(#clip950)" style="stroke:#000000; stroke-linecap:round; stroke-linejoin:round; stroke-width:4; stroke-opacity:1; fill:none" points="193.936,1423.18 193.936,1404.28 "/>
<polyline clip-path="url(#clip950)" style="stroke:#000000; stroke-linecap:round; stroke-linejoin:round; stroke-width:4; stroke-opacity:1; fill:none" points="625.7,1423.18 625.7,1404.28 "/>
<polyline clip-path="url(#clip950)" style="stroke:#000000; stroke-linecap:round; stroke-linejoin:round; stroke-width:4; stroke-opacity:1; fill:none" points="1057.46,1423.18 1057.46,1404.28 "/>
<polyline clip-path="url(#clip950)" style="stroke:#000000; stroke-linecap:round; stroke-linejoin:round; stroke-width:4; stroke-opacity:1; fill:none" points="1489.23,1423.18 1489.23,1404.28 "/>
<polyline clip-path="url(#clip950)" style="stroke:#000000; stroke-linecap:round; stroke-linejoin:round; stroke-width:4; stroke-opacity:1; fill:none" points="1920.99,1423.18 1920.99,1404.28 "/>
<polyline clip-path="url(#clip950)" style="stroke:#000000; stroke-linecap:round; stroke-linejoin:round; stroke-width:4; stroke-opacity:1; fill:none" points="2352.76,1423.18 2352.76,1404.28 "/>
<path clip-path="url(#clip950)" d="M193.936 1454.1 Q190.325 1454.1 188.496 1457.66 Q186.691 1461.2 186.691 1468.33 Q186.691 1475.44 188.496 1479.01 Q190.325 1482.55 193.936 1482.55 Q197.57 1482.55 199.376 1479.01 Q201.204 1475.44 201.204 1468.33 Q201.204 1461.2 199.376 1457.66 Q197.57 1454.1 193.936 1454.1 M193.936 1450.39 Q199.746 1450.39 202.802 1455 Q205.88 1459.58 205.88 1468.33 Q205.88 1477.06 202.802 1481.67 Q199.746 1486.25 193.936 1486.25 Q188.126 1486.25 185.047 1481.67 Q181.992 1477.06 181.992 1468.33 Q181.992 1459.58 185.047 1455 Q188.126 1450.39 193.936 1450.39 Z" fill="#000000" fill-rule="nonzero" fill-opacity="1" /><path clip-path="url(#clip950)" d="M620.353 1481.64 L636.672 1481.64 L636.672 1485.58 L614.728 1485.58 L614.728 1481.64 Q617.39 1478.89 621.973 1474.26 Q626.58 1469.61 627.76 1468.27 Q630.006 1465.74 630.885 1464.01 Q631.788 1462.25 631.788 1460.56 Q631.788 1457.8 629.843 1456.07 Q627.922 1454.33 624.82 1454.33 Q622.621 1454.33 620.168 1455.09 Q617.737 1455.86 614.959 1457.41 L614.959 1452.69 Q617.783 1451.55 620.237 1450.97 Q622.691 1450.39 624.728 1450.39 Q630.098 1450.39 633.293 1453.08 Q636.487 1455.77 636.487 1460.26 Q636.487 1462.39 635.677 1464.31 Q634.89 1466.2 632.783 1468.8 Q632.205 1469.47 629.103 1472.69 Q626.001 1475.88 620.353 1481.64 Z" fill="#000000" fill-rule="nonzero" fill-opacity="1" /><path clip-path="url(#clip950)" d="M1060.47 1455.09 L1048.67 1473.54 L1060.47 1473.54 L1060.47 1455.09 M1059.25 1451.02 L1065.13 1451.02 L1065.13 1473.54 L1070.06 1473.54 L1070.06 1477.43 L1065.13 1477.43 L1065.13 1485.58 L1060.47 1485.58 L1060.47 1477.43 L1044.87 1477.43 L1044.87 1472.92 L1059.25 1451.02 Z" fill="#000000" fill-rule="nonzero" fill-opacity="1" /><path clip-path="url(#clip950)" d="M1489.63 1466.44 Q1486.48 1466.44 1484.63 1468.59 Q1482.8 1470.74 1482.8 1474.49 Q1482.8 1478.22 1484.63 1480.39 Q1486.48 1482.55 1489.63 1482.55 Q1492.78 1482.55 1494.61 1480.39 Q1496.46 1478.22 1496.46 1474.49 Q1496.46 1470.74 1494.61 1468.59 Q1492.78 1466.44 1489.63 1466.44 M1498.92 1451.78 L1498.92 1456.04 Q1497.16 1455.21 1495.35 1454.77 Q1493.57 1454.33 1491.81 1454.33 Q1487.18 1454.33 1484.73 1457.45 Q1482.3 1460.58 1481.95 1466.9 Q1483.31 1464.89 1485.37 1463.82 Q1487.43 1462.73 1489.91 1462.73 Q1495.12 1462.73 1498.13 1465.9 Q1501.16 1469.05 1501.16 1474.49 Q1501.16 1479.82 1498.01 1483.03 Q1494.86 1486.25 1489.63 1486.25 Q1483.64 1486.25 1480.47 1481.67 Q1477.3 1477.06 1477.3 1468.33 Q1477.3 1460.14 1481.18 1455.28 Q1485.07 1450.39 1491.62 1450.39 Q1493.38 1450.39 1495.17 1450.74 Q1496.97 1451.09 1498.92 1451.78 Z" fill="#000000" fill-rule="nonzero" fill-opacity="1" /><path clip-path="url(#clip950)" d="M1920.99 1469.17 Q1917.66 1469.17 1915.74 1470.95 Q1913.84 1472.73 1913.84 1475.86 Q1913.84 1478.98 1915.74 1480.77 Q1917.66 1482.55 1920.99 1482.55 Q1924.33 1482.55 1926.25 1480.77 Q1928.17 1478.96 1928.17 1475.86 Q1928.17 1472.73 1926.25 1470.95 Q1924.35 1469.17 1920.99 1469.17 M1916.32 1467.18 Q1913.31 1466.44 1911.62 1464.38 Q1909.95 1462.32 1909.95 1459.35 Q1909.95 1455.21 1912.89 1452.8 Q1915.85 1450.39 1920.99 1450.39 Q1926.15 1450.39 1929.09 1452.8 Q1932.03 1455.21 1932.03 1459.35 Q1932.03 1462.32 1930.34 1464.38 Q1928.68 1466.44 1925.69 1467.18 Q1929.07 1467.96 1930.95 1470.26 Q1932.84 1472.55 1932.84 1475.86 Q1932.84 1480.88 1929.77 1483.57 Q1926.71 1486.25 1920.99 1486.25 Q1915.27 1486.25 1912.2 1483.57 Q1909.14 1480.88 1909.14 1475.86 Q1909.14 1472.55 1911.04 1470.26 Q1912.94 1467.96 1916.32 1467.18 M1914.6 1459.79 Q1914.6 1462.48 1916.27 1463.98 Q1917.96 1465.49 1920.99 1465.49 Q1924 1465.49 1925.69 1463.98 Q1927.4 1462.48 1927.4 1459.79 Q1927.4 1457.11 1925.69 1455.6 Q1924 1454.1 1920.99 1454.1 Q1917.96 1454.1 1916.27 1455.6 Q1914.6 1457.11 1914.6 1459.79 Z" fill="#000000" fill-rule="nonzero" fill-opacity="1" /><path clip-path="url(#clip950)" d="M2327.44 1481.64 L2335.08 1481.64 L2335.08 1455.28 L2326.77 1456.95 L2326.77 1452.69 L2335.04 1451.02 L2339.71 1451.02 L2339.71 1481.64 L2347.35 1481.64 L2347.35 1485.58 L2327.44 1485.58 L2327.44 1481.64 Z" fill="#000000" fill-rule="nonzero" fill-opacity="1" /><path clip-path="url(#clip950)" d="M2366.8 1454.1 Q2363.18 1454.1 2361.36 1457.66 Q2359.55 1461.2 2359.55 1468.33 Q2359.55 1475.44 2361.36 1479.01 Q2363.18 1482.55 2366.8 1482.55 Q2370.43 1482.55 2372.23 1479.01 Q2374.06 1475.44 2374.06 1468.33 Q2374.06 1461.2 2372.23 1457.66 Q2370.43 1454.1 2366.8 1454.1 M2366.8 1450.39 Q2372.61 1450.39 2375.66 1455 Q2378.74 1459.58 2378.74 1468.33 Q2378.74 1477.06 2375.66 1481.67 Q2372.61 1486.25 2366.8 1486.25 Q2360.99 1486.25 2357.91 1481.67 Q2354.85 1477.06 2354.85 1468.33 Q2354.85 1459.58 2357.91 1455 Q2360.99 1450.39 2366.8 1450.39 Z" fill="#000000" fill-rule="nonzero" fill-opacity="1" /><path clip-path="url(#clip950)" d="M1272.41 1522.27 L1272.41 1532.4 L1284.47 1532.4 L1284.47 1536.95 L1272.41 1536.95 L1272.41 1556.3 Q1272.41 1560.66 1273.58 1561.9 Q1274.79 1563.14 1278.45 1563.14 L1284.47 1563.14 L1284.47 1568.04 L1278.45 1568.04 Q1271.67 1568.04 1269.1 1565.53 Q1266.52 1562.98 1266.52 1556.3 L1266.52 1536.95 L1262.22 1536.95 L1262.22 1532.4 L1266.52 1532.4 L1266.52 1522.27 L1272.41 1522.27 Z" fill="#000000" fill-rule="nonzero" fill-opacity="1" /><polyline clip-path="url(#clip950)" style="stroke:#000000; stroke-linecap:round; stroke-linejoin:round; stroke-width:4; stroke-opacity:1; fill:none" points="193.936,1423.18 193.936,47.2441 "/>
<polyline clip-path="url(#clip950)" style="stroke:#000000; stroke-linecap:round; stroke-linejoin:round; stroke-width:4; stroke-opacity:1; fill:none" points="193.936,1335.73 212.834,1335.73 "/>
<polyline clip-path="url(#clip950)" style="stroke:#000000; stroke-linecap:round; stroke-linejoin:round; stroke-width:4; stroke-opacity:1; fill:none" points="193.936,1118.44 212.834,1118.44 "/>
<polyline clip-path="url(#clip950)" style="stroke:#000000; stroke-linecap:round; stroke-linejoin:round; stroke-width:4; stroke-opacity:1; fill:none" points="193.936,901.151 212.834,901.151 "/>
<polyline clip-path="url(#clip950)" style="stroke:#000000; stroke-linecap:round; stroke-linejoin:round; stroke-width:4; stroke-opacity:1; fill:none" points="193.936,683.86 212.834,683.86 "/>
<polyline clip-path="url(#clip950)" style="stroke:#000000; stroke-linecap:round; stroke-linejoin:round; stroke-width:4; stroke-opacity:1; fill:none" points="193.936,466.57 212.834,466.57 "/>
<polyline clip-path="url(#clip950)" style="stroke:#000000; stroke-linecap:round; stroke-linejoin:round; stroke-width:4; stroke-opacity:1; fill:none" points="193.936,249.279 212.834,249.279 "/>
<path clip-path="url(#clip950)" d="M50.9921 1336.18 L80.6679 1336.18 L80.6679 1340.12 L50.9921 1340.12 L50.9921 1336.18 Z" fill="#000000" fill-rule="nonzero" fill-opacity="1" /><path clip-path="url(#clip950)" d="M91.5706 1349.08 L99.2095 1349.08 L99.2095 1322.71 L90.8993 1324.38 L90.8993 1320.12 L99.1632 1318.45 L103.839 1318.45 L103.839 1349.08 L111.478 1349.08 L111.478 1353.01 L91.5706 1353.01 L91.5706 1349.08 Z" fill="#000000" fill-rule="nonzero" fill-opacity="1" /><path clip-path="url(#clip950)" d="M120.922 1347.13 L125.807 1347.13 L125.807 1353.01 L120.922 1353.01 L120.922 1347.13 Z" fill="#000000" fill-rule="nonzero" fill-opacity="1" /><path clip-path="url(#clip950)" d="M145.992 1321.53 Q142.381 1321.53 140.552 1325.1 Q138.746 1328.64 138.746 1335.77 Q138.746 1342.87 140.552 1346.44 Q142.381 1349.98 145.992 1349.98 Q149.626 1349.98 151.431 1346.44 Q153.26 1342.87 153.26 1335.77 Q153.26 1328.64 151.431 1325.1 Q149.626 1321.53 145.992 1321.53 M145.992 1317.83 Q151.802 1317.83 154.857 1322.43 Q157.936 1327.02 157.936 1335.77 Q157.936 1344.49 154.857 1349.1 Q151.802 1353.68 145.992 1353.68 Q140.181 1353.68 137.103 1349.1 Q134.047 1344.49 134.047 1335.77 Q134.047 1327.02 137.103 1322.43 Q140.181 1317.83 145.992 1317.83 Z" fill="#000000" fill-rule="nonzero" fill-opacity="1" /><path clip-path="url(#clip950)" d="M51.9875 1118.89 L81.6633 1118.89 L81.6633 1122.83 L51.9875 1122.83 L51.9875 1118.89 Z" fill="#000000" fill-rule="nonzero" fill-opacity="1" /><path clip-path="url(#clip950)" d="M101.756 1104.24 Q98.1447 1104.24 96.316 1107.81 Q94.5104 1111.35 94.5104 1118.48 Q94.5104 1125.58 96.316 1129.15 Q98.1447 1132.69 101.756 1132.69 Q105.39 1132.69 107.196 1129.15 Q109.024 1125.58 109.024 1118.48 Q109.024 1111.35 107.196 1107.81 Q105.39 1104.24 101.756 1104.24 M101.756 1100.54 Q107.566 1100.54 110.621 1105.14 Q113.7 1109.73 113.7 1118.48 Q113.7 1127.2 110.621 1131.81 Q107.566 1136.39 101.756 1136.39 Q95.9456 1136.39 92.8669 1131.81 Q89.8114 1127.2 89.8114 1118.48 Q89.8114 1109.73 92.8669 1105.14 Q95.9456 1100.54 101.756 1100.54 Z" fill="#000000" fill-rule="nonzero" fill-opacity="1" /><path clip-path="url(#clip950)" d="M121.918 1129.84 L126.802 1129.84 L126.802 1135.72 L121.918 1135.72 L121.918 1129.84 Z" fill="#000000" fill-rule="nonzero" fill-opacity="1" /><path clip-path="url(#clip950)" d="M137.033 1101.16 L155.39 1101.16 L155.39 1105.1 L141.316 1105.1 L141.316 1113.57 Q142.334 1113.22 143.353 1113.06 Q144.371 1112.87 145.39 1112.87 Q151.177 1112.87 154.556 1116.05 Q157.936 1119.22 157.936 1124.63 Q157.936 1130.21 154.464 1133.31 Q150.992 1136.39 144.672 1136.39 Q142.496 1136.39 140.228 1136.02 Q137.982 1135.65 135.575 1134.91 L135.575 1130.21 Q137.658 1131.35 139.881 1131.9 Q142.103 1132.46 144.58 1132.46 Q148.584 1132.46 150.922 1130.35 Q153.26 1128.25 153.26 1124.63 Q153.26 1121.02 150.922 1118.92 Q148.584 1116.81 144.58 1116.81 Q142.705 1116.81 140.83 1117.23 Q138.978 1117.64 137.033 1118.52 L137.033 1101.16 Z" fill="#000000" fill-rule="nonzero" fill-opacity="1" /><path clip-path="url(#clip950)" d="M100.76 886.95 Q97.1493 886.95 95.3206 890.515 Q93.515 894.056 93.515 901.186 Q93.515 908.292 95.3206 911.857 Q97.1493 915.399 100.76 915.399 Q104.395 915.399 106.2 911.857 Q108.029 908.292 108.029 901.186 Q108.029 894.056 106.2 890.515 Q104.395 886.95 100.76 886.95 M100.76 883.246 Q106.571 883.246 109.626 887.853 Q112.705 892.436 112.705 901.186 Q112.705 909.913 109.626 914.519 Q106.571 919.103 100.76 919.103 Q94.9502 919.103 91.8715 914.519 Q88.816 909.913 88.816 901.186 Q88.816 892.436 91.8715 887.853 Q94.9502 883.246 100.76 883.246 Z" fill="#000000" fill-rule="nonzero" fill-opacity="1" /><path clip-path="url(#clip950)" d="M120.922 912.552 L125.807 912.552 L125.807 918.431 L120.922 918.431 L120.922 912.552 Z" fill="#000000" fill-rule="nonzero" fill-opacity="1" /><path clip-path="url(#clip950)" d="M145.992 886.95 Q142.381 886.95 140.552 890.515 Q138.746 894.056 138.746 901.186 Q138.746 908.292 140.552 911.857 Q142.381 915.399 145.992 915.399 Q149.626 915.399 151.431 911.857 Q153.26 908.292 153.26 901.186 Q153.26 894.056 151.431 890.515 Q149.626 886.95 145.992 886.95 M145.992 883.246 Q151.802 883.246 154.857 887.853 Q157.936 892.436 157.936 901.186 Q157.936 909.913 154.857 914.519 Q151.802 919.103 145.992 919.103 Q140.181 919.103 137.103 914.519 Q134.047 909.913 134.047 901.186 Q134.047 892.436 137.103 887.853 Q140.181 883.246 145.992 883.246 Z" fill="#000000" fill-rule="nonzero" fill-opacity="1" /><path clip-path="url(#clip950)" d="M101.756 669.659 Q98.1447 669.659 96.316 673.224 Q94.5104 676.766 94.5104 683.895 Q94.5104 691.002 96.316 694.566 Q98.1447 698.108 101.756 698.108 Q105.39 698.108 107.196 694.566 Q109.024 691.002 109.024 683.895 Q109.024 676.766 107.196 673.224 Q105.39 669.659 101.756 669.659 M101.756 665.955 Q107.566 665.955 110.621 670.562 Q113.7 675.145 113.7 683.895 Q113.7 692.622 110.621 697.228 Q107.566 701.812 101.756 701.812 Q95.9456 701.812 92.8669 697.228 Q89.8114 692.622 89.8114 683.895 Q89.8114 675.145 92.8669 670.562 Q95.9456 665.955 101.756 665.955 Z" fill="#000000" fill-rule="nonzero" fill-opacity="1" /><path clip-path="url(#clip950)" d="M121.918 695.261 L126.802 695.261 L126.802 701.14 L121.918 701.14 L121.918 695.261 Z" fill="#000000" fill-rule="nonzero" fill-opacity="1" /><path clip-path="url(#clip950)" d="M137.033 666.58 L155.39 666.58 L155.39 670.516 L141.316 670.516 L141.316 678.988 Q142.334 678.641 143.353 678.478 Q144.371 678.293 145.39 678.293 Q151.177 678.293 154.556 681.465 Q157.936 684.636 157.936 690.052 Q157.936 695.631 154.464 698.733 Q150.992 701.812 144.672 701.812 Q142.496 701.812 140.228 701.441 Q137.982 701.071 135.575 700.33 L135.575 695.631 Q137.658 696.765 139.881 697.321 Q142.103 697.877 144.58 697.877 Q148.584 697.877 150.922 695.77 Q153.26 693.664 153.26 690.052 Q153.26 686.441 150.922 684.335 Q148.584 682.228 144.58 682.228 Q142.705 682.228 140.83 682.645 Q138.978 683.062 137.033 683.941 L137.033 666.58 Z" fill="#000000" fill-rule="nonzero" fill-opacity="1" /><path clip-path="url(#clip950)" d="M91.5706 479.914 L99.2095 479.914 L99.2095 453.549 L90.8993 455.215 L90.8993 450.956 L99.1632 449.29 L103.839 449.29 L103.839 479.914 L111.478 479.914 L111.478 483.85 L91.5706 483.85 L91.5706 479.914 Z" fill="#000000" fill-rule="nonzero" fill-opacity="1" /><path clip-path="url(#clip950)" d="M120.922 477.97 L125.807 477.97 L125.807 483.85 L120.922 483.85 L120.922 477.97 Z" fill="#000000" fill-rule="nonzero" fill-opacity="1" /><path clip-path="url(#clip950)" d="M145.992 452.368 Q142.381 452.368 140.552 455.933 Q138.746 459.475 138.746 466.604 Q138.746 473.711 140.552 477.276 Q142.381 480.817 145.992 480.817 Q149.626 480.817 151.431 477.276 Q153.26 473.711 153.26 466.604 Q153.26 459.475 151.431 455.933 Q149.626 452.368 145.992 452.368 M145.992 448.665 Q151.802 448.665 154.857 453.271 Q157.936 457.854 157.936 466.604 Q157.936 475.331 154.857 479.938 Q151.802 484.521 145.992 484.521 Q140.181 484.521 137.103 479.938 Q134.047 475.331 134.047 466.604 Q134.047 457.854 137.103 453.271 Q140.181 448.665 145.992 448.665 Z" fill="#000000" fill-rule="nonzero" fill-opacity="1" /><path clip-path="url(#clip950)" d="M92.566 262.624 L100.205 262.624 L100.205 236.258 L91.8947 237.925 L91.8947 233.665 L100.159 231.999 L104.834 231.999 L104.834 262.624 L112.473 262.624 L112.473 266.559 L92.566 266.559 L92.566 262.624 Z" fill="#000000" fill-rule="nonzero" fill-opacity="1" /><path clip-path="url(#clip950)" d="M121.918 260.679 L126.802 260.679 L126.802 266.559 L121.918 266.559 L121.918 260.679 Z" fill="#000000" fill-rule="nonzero" fill-opacity="1" /><path clip-path="url(#clip950)" d="M137.033 231.999 L155.39 231.999 L155.39 235.934 L141.316 235.934 L141.316 244.406 Q142.334 244.059 143.353 243.897 Q144.371 243.712 145.39 243.712 Q151.177 243.712 154.556 246.883 Q157.936 250.054 157.936 255.471 Q157.936 261.049 154.464 264.151 Q150.992 267.23 144.672 267.23 Q142.496 267.23 140.228 266.86 Q137.982 266.489 135.575 265.749 L135.575 261.049 Q137.658 262.184 139.881 262.739 Q142.103 263.295 144.58 263.295 Q148.584 263.295 150.922 261.188 Q153.26 259.082 153.26 255.471 Q153.26 251.86 150.922 249.753 Q148.584 247.647 144.58 247.647 Q142.705 247.647 140.83 248.063 Q138.978 248.48 137.033 249.36 L137.033 231.999 Z" fill="#000000" fill-rule="nonzero" fill-opacity="1" /><polyline clip-path="url(#clip951)" style="stroke:#009af9; stroke-linecap:round; stroke-linejoin:round; stroke-width:4; stroke-opacity:1; fill:none" points="193.936,901.151 196.097,907.556 198.258,913.876 200.419,920.112 202.58,926.265 204.741,932.337 206.902,938.328 209.063,944.24 211.224,950.074 213.385,955.83 215.546,961.51 217.707,967.114 219.868,972.645 222.029,978.101 224.19,983.486 226.351,988.799 228.512,994.042 230.673,999.215 232.834,1004.32 234.995,1009.36 237.156,1014.33 239.317,1019.23 241.478,1024.07 243.639,1028.85 245.8,1033.56 247.961,1038.21 250.122,1042.79 252.282,1047.32 254.443,1051.79 256.604,1056.2 258.765,1060.54 260.926,1064.84 263.087,1069.07 265.248,1073.25 267.409,1077.37 269.57,1081.44 271.731,1085.46 273.892,1089.42 276.053,1093.33 278.214,1097.18 280.375,1100.99 282.536,1104.74 284.697,1108.45 286.858,1112.11 289.019,1115.71 291.18,1119.27 293.341,1122.79 295.502,1126.25 297.663,1129.67 299.824,1133.05 301.985,1136.38 304.146,1139.66 306.307,1142.91 308.468,1146.11 310.629,1149.26 312.79,1152.38 314.951,1155.45 317.112,1158.49 319.273,1161.48 321.434,1164.43 323.595,1167.35 325.756,1170.22 327.917,1173.06 330.078,1175.86 332.239,1178.62 334.4,1181.35 336.561,1184.04 338.722,1186.69 340.883,1189.31 343.044,1191.9 345.205,1194.45 347.366,1196.96 349.527,1199.45 351.688,1201.9 353.849,1204.31 356.01,1206.7 358.171,1209.05 360.332,1211.37 362.493,1213.67 364.653,1215.93 366.814,1218.16 368.975,1220.36 371.136,1222.53 373.297,1224.68 375.458,1226.79 377.619,1228.88 379.78,1230.94 381.941,1232.97 384.102,1234.98 386.263,1236.96 388.424,1238.91 390.585,1240.84 392.746,1242.74 394.907,1244.61 397.068,1246.46 399.229,1248.29 401.39,1250.09 403.551,1251.87 405.712,1253.63 407.873,1255.36 410.034,1256.82 412.195,1257.27 414.356,1256.76 416.517,1255.4 418.678,1253.31 420.839,1250.57 423,1247.28 425.161,1243.53 427.322,1239.4 429.483,1234.96 431.644,1230.29 433.805,1225.45 435.966,1220.5 438.127,1215.49 440.288,1210.47 442.449,1205.49 444.61,1200.57 446.771,1195.76 448.932,1191.07 451.093,1186.53 453.254,1182.14 455.415,1177.92 457.576,1173.88 459.737,1169.99 461.898,1166.27 464.059,1162.69 466.22,1159.23 468.381,1155.87 470.542,1152.58 472.703,1149.32 474.864,1146.04 477.024,1142.71 479.185,1139.35 481.346,1136.03 483.507,1132.76 485.668,1129.54 487.829,1126.35 489.99,1123.21 492.151,1120.11 494.312,1117.05 496.473,1114.03 498.634,1111.05 500.795,1108.12 502.956,1105.21 505.117,1102.35 507.278,1099.53 509.439,1096.74 511.6,1093.99 513.761,1091.28 515.922,1088.6 518.083,1085.96 520.244,1083.35 522.405,1080.78 524.566,1078.24 526.727,1075.74 528.888,1073.27 531.049,1070.83 533.21,1068.42 535.371,1066.05 537.532,1063.71 539.693,1061.39 541.854,1059.11 544.015,1056.86 546.176,1054.64 548.337,1052.45 550.498,1050.29 552.659,1048.16 554.82,1046.05 556.981,1043.97 559.142,1041.92 561.303,1039.9 563.464,1037.91 565.625,1035.94 567.786,1033.99 569.947,1032.08 572.108,1030.18 574.269,1028.32 576.43,1026.48 578.591,1024.66 580.752,1022.87 582.913,1021.1 585.074,1019.35 587.235,1017.63 589.396,1015.93 591.556,1014.25 593.717,1012.59 595.878,1010.96 598.039,1009.35 600.2,1007.76 602.361,1006.19 604.522,1004.64 606.683,1003.11 608.844,1001.6 611.005,1000.11 613.166,998.646 615.327,997.198 617.488,995.768 619.649,994.357 621.81,992.965 623.971,991.592 626.132,990.042 628.293,987.237 630.454,983.172 632.615,978.027 634.776,971.974 636.937,965.171 639.098,957.763 641.259,949.887 643.42,941.666 645.581,933.212 647.742,924.626 649.903,915.997 652.064,907.403 654.225,898.909 656.386,890.569 658.547,882.427 660.708,874.514 662.869,866.85 665.03,859.442 667.191,852.287 669.352,845.372 671.513,838.668 673.674,832.138 675.835,825.732 677.996,819.39 680.157,813.038 682.318,806.631 684.479,800.289 686.64,794.032 688.801,787.857 690.962,781.764 693.123,775.752 695.284,769.82 697.445,763.967 699.606,758.191 701.767,752.491 703.927,746.867 706.088,741.318 708.249,735.843 710.41,730.439 712.571,725.108 714.732,719.847 716.893,714.656 719.054,709.533 721.215,704.479 723.376,699.491 725.537,694.57 727.698,689.714 729.859,684.922 732.02,680.194 734.181,675.528 736.342,670.924 738.503,666.382 740.664,661.9 742.825,657.477 744.986,653.113 747.147,648.807 749.308,644.558 751.469,640.365 753.63,636.228 755.791,632.145 757.952,628.117 760.113,624.143 762.274,620.221 764.435,616.351 766.596,612.532 768.757,608.764 770.918,605.046 773.079,601.377 775.24,597.757 777.401,594.185 779.562,590.66 781.723,587.182 783.884,583.75 786.045,580.363 788.206,577.161 790.367,574.209 792.528,571.44 794.689,568.795 796.85,566.218 799.011,563.659 801.172,561.071 803.333,558.413 805.494,555.648 807.655,552.745 809.816,549.677 811.977,546.421 814.138,542.96 816.298,539.281 818.459,535.377 820.62,531.243 822.781,526.883 824.942,522.302 827.103,517.511 829.264,512.526 831.425,507.368 833.586,502.063 835.747,496.64 837.908,491.135 840.069,485.587 842.23,480.04 844.391,474.545 846.552,469.156 848.713,463.93 850.874,458.902 853.035,453.961 855.196,449.085 857.357,444.274 859.518,439.526 861.679,434.841 863.84,430.219 866.001,425.658 868.162,421.157 870.323,416.716 872.484,412.334 874.645,408.01 876.806,403.743 878.967,399.533 881.128,395.379 883.289,391.279 885.45,387.234 887.611,383.243 889.772,379.305 891.933,375.418 894.094,371.583 896.255,367.799 898.416,364.065 900.577,360.379 902.738,356.743 904.899,353.155 907.06,349.614 909.221,346.12 911.382,342.672 913.543,339.27 915.704,335.914 917.865,332.601 920.026,329.333 922.187,326.108 924.348,322.926 926.509,319.787 928.669,316.689 930.83,313.632 932.991,310.616 935.152,307.64 937.313,304.704 939.474,301.806 941.635,298.947 943.796,296.127 945.957,293.343 948.118,290.597 950.279,287.888 952.44,285.214 954.601,282.576 956.762,279.973 958.923,277.404 961.084,274.87 963.245,272.37 965.406,269.902 967.567,267.468 969.728,265.065 971.889,262.695 974.05,260.356 976.211,258.048 978.372,255.77 980.533,253.523 982.694,251.306 984.855,249.118 987.016,246.958 989.177,244.828 991.338,242.725 993.499,240.651 995.66,238.603 997.821,236.583 999.982,234.589 1002.14,232.622 1004.3,230.68 1006.46,228.765 1008.63,226.874 1010.79,225.009 1012.95,223.168 1015.11,221.352 1017.27,219.56 1019.43,217.792 1021.59,216.047 1023.75,214.325 1025.91,212.627 1028.07,210.95 1030.24,209.296 1032.4,207.664 1034.56,206.053 1036.72,204.464 1038.88,202.896 1041.04,201.349 1043.2,199.822 1045.36,198.315 1047.52,196.829 1049.68,195.362 1051.85,194.202 1054.01,195.267 1056.17,198.673 1058.33,204.141 1060.49,211.406 1062.65,220.22 1064.81,230.347 1066.97,241.569 1069.13,253.679 1071.29,266.489 1073.46,279.822 1075.62,293.517 1077.78,307.43 1079.94,321.427 1082.1,335.393 1084.26,349.226 1086.42,362.84 1088.58,376.16 1090.74,389.131 1092.9,401.709 1095.07,413.866 1097.23,425.589 1099.39,436.88 1101.55,447.753 1103.71,458.241 1105.87,468.389 1108.03,478.258 1110.19,487.921 1112.35,497.471 1114.51,507.01 1116.67,516.658 1118.84,526.374 1121,535.963 1123.16,545.425 1125.32,554.761 1127.48,563.974 1129.64,573.064 1131.8,582.034 1133.96,590.885 1136.12,599.619 1138.28,608.237 1140.45,616.74 1142.61,625.131 1144.77,633.411 1146.93,641.581 1149.09,649.642 1151.25,657.597 1153.41,665.446 1155.57,673.192 1157.73,680.835 1159.89,688.377 1162.06,695.819 1164.22,703.162 1166.38,710.408 1168.54,717.558 1170.7,724.613 1172.86,731.575 1175.02,738.444 1177.18,745.222 1179.34,751.91 1181.5,758.509 1183.67,765.02 1185.83,771.446 1187.99,777.785 1190.15,784.041 1192.31,790.214 1194.47,796.305 1196.63,802.314 1198.79,808.245 1200.95,814.096 1203.11,819.87 1205.28,825.567 1207.44,831.188 1209.6,836.735 1211.76,842.209 1213.92,847.61 1216.08,852.939 1218.24,858.198 1220.4,863.387 1222.56,868.507 1224.72,873.559 1226.88,878.545 1229.05,883.464 1231.21,888.319 1233.37,893.109 1235.53,897.835 1237.69,902.499 1239.85,907.102 1242.01,911.643 1244.17,916.124 1246.33,920.546 1248.49,924.909 1250.66,929.214 1252.82,933.462 1254.98,937.654 1257.14,941.79 1259.3,945.871 1261.46,949.898 1263.62,953.872 1265.78,957.793 1267.94,961.663 1270.1,965.48 1272.27,969.215 1274.43,972.538 1276.59,975.409 1278.75,977.877 1280.91,979.99 1283.07,981.792 1285.23,983.326 1287.39,984.631 1289.55,985.743 1291.71,986.696 1293.88,987.523 1296.04,988.25 1298.2,988.905 1300.36,989.51 1302.52,990.086 1304.68,990.651 1306.84,991.219 1309,991.804 1311.16,992.414 1313.32,993.057 1315.49,993.738 1317.65,994.457 1319.81,995.214 1321.97,996.004 1324.13,996.822 1326.29,997.659 1328.45,998.501 1330.61,999.336 1332.77,1000.14 1334.93,1000.91 1337.09,1001.62 1339.26,1002.32 1341.42,1003.01 1343.58,1003.69 1345.74,1004.36 1347.9,1005.02 1350.06,1005.67 1352.22,1006.32 1354.38,1006.95 1356.54,1007.58 1358.7,1008.2 1360.87,1008.81 1363.03,1009.41 1365.19,1010.01 1367.35,1010.6 1369.51,1011.18 1371.67,1011.75 1373.83,1012.31 1375.99,1012.87 1378.15,1013.42 1380.31,1013.96 1382.48,1014.49 1384.64,1015.02 1386.8,1015.54 1388.96,1016.06 1391.12,1016.56 1393.28,1017.06 1395.44,1017.56 1397.6,1018.05 1399.76,1018.53 1401.92,1019 1404.09,1019.47 1406.25,1019.93 1408.41,1020.39 1410.57,1020.84 1412.73,1021.28 1414.89,1021.72 1417.05,1022.15 1419.21,1022.57 1421.37,1023 1423.53,1023.41 1425.7,1023.82 1427.86,1024.22 1430.02,1024.62 1432.18,1025.02 1434.34,1025.4 1436.5,1025.79 1438.66,1026.16 1440.82,1026.54 1442.98,1026.9 1445.14,1027.27 1447.3,1027.63 1449.47,1027.98 1451.63,1028.33 1453.79,1028.67 1455.95,1029.01 1458.11,1029.35 1460.27,1029.68 1462.43,1030 1464.59,1030.32 1466.75,1030.64 1468.91,1030.96 1471.08,1031.27 1473.24,1031.57 1475.4,1031.87 1477.56,1032.17 1479.72,1032.46 1481.88,1032.55 1484.04,1031.12 1486.2,1028.13 1488.36,1023.78 1490.52,1018.29 1492.69,1011.84 1494.85,1004.62 1497.01,996.774 1499.17,988.467 1501.33,979.83 1503.49,970.986 1505.65,962.044 1507.81,953.101 1509.97,944.239 1512.13,935.527 1514.3,927.02 1516.46,918.759 1518.62,910.775 1520.78,903.08 1522.94,895.678 1525.1,888.556 1527.26,881.688 1529.42,875.035 1531.58,868.545 1533.74,862.153 1535.91,855.778 1538.07,849.327 1540.23,842.854 1542.39,836.466 1544.55,830.163 1546.71,823.943 1548.87,817.806 1551.03,811.751 1553.19,805.775 1555.35,799.879 1557.51,794.061 1559.68,788.321 1561.84,782.656 1564,777.066 1566.16,771.551 1568.32,766.108 1570.48,760.738 1572.64,755.439 1574.8,750.21 1576.96,745.051 1579.12,739.96 1581.29,734.936 1583.45,729.98 1585.61,725.088 1587.77,720.261 1589.93,715.499 1592.09,710.799 1594.25,706.162 1596.41,701.586 1598.57,697.07 1600.73,692.615 1602.9,688.219 1605.06,683.881 1607.22,679.6 1609.38,675.376 1611.54,671.209 1613.7,667.097 1615.86,663.039 1618.02,659.035 1620.18,655.084 1622.34,651.186 1624.51,647.34 1626.67,643.544 1628.83,639.799 1630.99,636.104 1633.15,632.457 1635.31,628.859 1637.47,625.309 1639.63,621.806 1641.79,618.349 1643.95,614.939 1646.12,611.573 1648.28,608.252 1650.44,604.975 1652.6,601.742 1654.76,598.551 1656.92,595.402 1659.08,592.296 1661.24,589.23 1663.4,586.205 1665.56,583.22 1667.72,580.275 1669.89,577.368 1672.05,574.5 1674.21,571.671 1676.37,568.878 1678.53,566.123 1680.69,563.404 1682.85,560.721 1685.01,558.074 1687.17,555.462 1689.33,552.885 1691.5,550.341 1693.66,547.832 1695.82,545.355 1697.98,542.912 1700.14,540.501 1702.3,538.254 1704.46,537.509 1706.62,538.442 1708.78,540.853 1710.94,544.551 1713.11,549.356 1715.27,555.1 1717.43,561.624 1719.59,568.78 1721.75,576.434 1723.91,584.459 1726.07,592.741 1728.23,601.176 1730.39,609.671 1732.55,618.145 1734.72,626.526 1736.88,634.754 1739.04,642.781 1741.2,650.566 1743.36,658.084 1745.52,665.317 1747.68,672.26 1749.84,678.917 1752,685.305 1754.16,691.45 1756.33,697.39 1758.49,703.175 1760.65,708.862 1762.81,714.523 1764.97,720.238 1767.13,726.061 1769.29,731.836 1771.45,737.534 1773.61,743.157 1775.77,748.705 1777.93,754.18 1780.1,759.582 1782.26,764.912 1784.42,770.172 1786.58,775.362 1788.74,780.483 1790.9,785.536 1793.06,790.522 1795.22,795.442 1797.38,800.297 1799.54,805.088 1801.71,809.815 1803.87,814.48 1806.03,819.083 1808.19,823.625 1810.35,828.107 1812.51,832.529 1814.67,836.892 1816.83,841.198 1818.99,845.447 1821.15,849.639 1823.32,853.776 1825.48,857.857 1827.64,861.885 1829.8,865.859 1831.96,869.78 1834.12,873.65 1836.28,877.468 1838.44,881.235 1840.6,884.952 1842.76,888.62 1844.93,892.24 1847.09,895.811 1849.25,899.335 1851.41,902.812 1853.57,906.243 1855.73,909.629 1857.89,912.969 1860.05,916.266 1862.21,919.519 1864.37,922.728 1866.54,925.895 1868.7,929.021 1870.86,932.104 1873.02,935.147 1875.18,938.15 1877.34,941.113 1879.5,944.036 1881.66,946.921 1883.82,949.768 1885.98,952.577 1888.15,955.348 1890.31,958.083 1892.47,960.782 1894.63,963.445 1896.79,966.072 1898.95,968.665 1901.11,971.223 1903.27,973.748 1905.43,976.239 1907.59,978.696 1909.75,981.122 1911.92,983.515 1914.08,985.876 1916.24,988.207 1918.4,990.506 1920.56,992.775 1922.72,994.82 1924.88,996.419 1927.04,997.619 1929.2,998.469 1931.36,999.014 1933.53,999.295 1935.69,999.352 1937.85,999.222 1940.01,998.94 1942.17,998.538 1944.33,998.043 1946.49,997.483 1948.65,996.882 1950.81,996.259 1952.97,995.635 1955.14,995.024 1957.3,994.44 1959.46,993.892 1961.62,993.39 1963.78,992.937 1965.94,992.536 1968.1,992.188 1970.26,991.889 1972.42,991.634 1974.58,991.415 1976.75,991.22 1978.91,991.037 1981.07,990.849 1983.23,990.638 1985.39,990.385 1987.55,990.119 1989.71,989.857 1991.87,989.598 1994.03,989.343 1996.19,989.091 1998.36,988.843 2000.52,988.597 2002.68,988.355 2004.84,988.117 2007,987.881 2009.16,987.649 2011.32,987.419 2013.48,987.193 2015.64,986.97 2017.8,986.749 2019.96,986.532 2022.13,986.317 2024.29,986.106 2026.45,985.897 2028.61,985.691 2030.77,985.487 2032.93,985.286 2035.09,985.088 2037.25,984.893 2039.41,984.7 2041.57,984.51 2043.74,984.322 2045.9,984.137 2048.06,983.954 2050.22,983.774 2052.38,983.596 2054.54,983.42 2056.7,983.247 2058.86,983.076 2061.02,982.907 2063.18,982.741 2065.35,982.576 2067.51,982.414 2069.67,982.254 2071.83,982.096 2073.99,981.941 2076.15,981.787 2078.31,981.635 2080.47,981.486 2082.63,981.338 2084.79,981.192 2086.96,981.048 2089.12,980.907 2091.28,980.767 2093.44,980.629 2095.6,980.492 2097.76,980.358 2099.92,980.225 2102.08,980.094 2104.24,979.965 2106.4,979.837 2108.57,979.712 2110.73,979.587 2112.89,979.465 2115.05,979.344 2117.21,979.225 2119.37,979.107 2121.53,978.991 2123.69,978.876 2125.85,978.763 2128.01,978.652 2130.17,978.542 2132.34,978.433 2134.5,978.326 2136.66,978.16 2138.82,977.752 2140.98,977.115 2143.14,976.281 2145.3,975.275 2147.46,974.124 2149.62,972.852 2151.78,971.483 2153.95,970.036 2156.11,968.531 2158.27,966.986 2160.43,965.417 2162.59,963.839 2164.75,962.263 2166.91,960.702 2169.07,959.164 2171.23,957.658 2173.39,956.19 2175.56,954.763 2177.72,953.382 2179.88,952.047 2182.04,950.758 2184.2,949.513 2186.36,948.307 2188.52,947.137 2190.68,945.994 2192.84,944.87 2195,943.755 2197.17,942.637 2199.33,941.506 2201.49,940.387 2203.65,939.282 2205.81,938.191 2207.97,937.115 2210.13,936.054 2212.29,935.006 2214.45,933.972 2216.61,932.953 2218.78,931.946 2220.94,930.953 2223.1,929.973 2225.26,929.006 2227.42,928.052 2229.58,927.111 2231.74,926.182 2233.9,925.265 2236.06,924.36 2238.22,923.468 2240.38,922.587 2242.55,921.718 2244.71,920.86 2246.87,920.014 2249.03,919.179 2251.19,918.355 2253.35,917.542 2255.51,916.74 2257.67,915.948 2259.83,915.167 2261.99,914.397 2264.16,913.636 2266.32,912.886 2268.48,912.146 2270.64,911.415 2272.8,910.694 2274.96,909.983 2277.12,909.281 2279.28,908.588 2281.44,907.905 2283.6,907.231 2285.77,906.565 2287.93,905.909 2290.09,905.261 2292.25,904.622 2294.41,903.991 2296.57,903.368 2298.73,902.754 2300.89,902.148 2303.05,901.55 2305.21,900.96 2307.38,900.378 2309.54,899.803 2311.7,899.236 2313.86,898.677 2316.02,898.125 2318.18,897.58 2320.34,897.043 2322.5,896.512 2324.66,895.989 2326.82,895.473 2328.99,894.963 2331.15,894.46 2333.31,893.964 2335.47,893.475 2337.63,892.992 2339.79,892.515 2341.95,892.045 2344.11,891.581 2346.27,891.123 2348.43,890.671 2350.59,890.225 2352.76,889.785 "/>
<polyline clip-path="url(#clip951)" style="stroke:#e26f46; stroke-linecap:round; stroke-linejoin:round; stroke-width:4; stroke-opacity:1; fill:none" points="193.936,1384.24 196.097,1384.24 198.258,1384.24 200.419,1384.24 202.58,1384.24 204.741,1384.24 206.902,1384.24 209.063,1384.24 211.224,1384.24 213.385,1384.24 215.546,1384.24 217.707,1384.24 219.868,1384.24 222.029,1384.24 224.19,1384.24 226.351,1384.24 228.512,1384.24 230.673,1384.24 232.834,1384.24 234.995,1384.24 237.156,1384.24 239.317,1384.24 241.478,1384.24 243.639,1384.24 245.8,1384.24 247.961,1384.24 250.122,1384.24 252.282,1384.24 254.443,1384.24 256.604,1384.24 258.765,1384.24 260.926,1384.24 263.087,1384.24 265.248,1384.24 267.409,1384.24 269.57,1384.24 271.731,1384.24 273.892,1384.24 276.053,1384.24 278.214,1384.24 280.375,1384.24 282.536,1384.24 284.697,1384.24 286.858,1384.24 289.019,1384.24 291.18,1384.24 293.341,1384.24 295.502,1384.24 297.663,1384.24 299.824,1384.24 301.985,1384.24 304.146,1384.24 306.307,1384.24 308.468,1384.24 310.629,1384.24 312.79,1384.24 314.951,1384.24 317.112,1384.24 319.273,1384.24 321.434,1384.24 323.595,1384.24 325.756,1384.24 327.917,1384.24 330.078,1384.24 332.239,1384.24 334.4,1384.24 336.561,1384.24 338.722,1384.24 340.883,1384.24 343.044,1384.24 345.205,1384.24 347.366,1384.24 349.527,1384.24 351.688,1384.24 353.849,1384.24 356.01,1384.24 358.171,1384.24 360.332,1384.24 362.493,1384.24 364.653,1384.24 366.814,1384.24 368.975,1384.24 371.136,1384.24 373.297,1384.24 375.458,1384.24 377.619,1384.24 379.78,1384.24 381.941,1384.24 384.102,1384.24 386.263,1384.24 388.424,1384.24 390.585,1384.24 392.746,1384.24 394.907,1384.24 397.068,1384.24 399.229,1384.24 401.39,1384.24 403.551,1384.24 405.712,1384.24 407.873,1384.24 410.034,889.368 412.195,889.368 414.356,889.368 416.517,889.368 418.678,889.368 420.839,889.368 423,889.368 425.161,889.368 427.322,889.368 429.483,889.368 431.644,889.368 433.805,889.368 435.966,889.368 438.127,889.368 440.288,889.368 442.449,889.368 444.61,889.368 446.771,889.368 448.932,889.368 451.093,889.368 453.254,889.368 455.415,889.368 457.576,889.368 459.737,889.368 461.898,889.368 464.059,889.368 466.22,889.368 468.381,889.368 470.542,889.368 472.703,889.368 474.864,889.368 477.024,889.368 479.185,889.368 481.346,889.368 483.507,889.368 485.668,889.368 487.829,889.368 489.99,889.368 492.151,889.368 494.312,889.368 496.473,889.368 498.634,889.368 500.795,889.368 502.956,889.368 505.117,889.368 507.278,889.368 509.439,889.368 511.6,889.368 513.761,889.368 515.922,889.368 518.083,889.368 520.244,889.368 522.405,889.368 524.566,889.368 526.727,889.368 528.888,889.368 531.049,889.368 533.21,889.368 535.371,889.368 537.532,889.368 539.693,889.368 541.854,889.368 544.015,889.368 546.176,889.368 548.337,889.368 550.498,889.368 552.659,889.368 554.82,889.368 556.981,889.368 559.142,889.368 561.303,889.368 563.464,889.368 565.625,889.368 567.786,889.368 569.947,889.368 572.108,889.368 574.269,889.368 576.43,889.368 578.591,889.368 580.752,889.368 582.913,889.368 585.074,889.368 587.235,889.368 589.396,889.368 591.556,889.368 593.717,889.368 595.878,889.368 598.039,889.368 600.2,889.368 602.361,889.368 604.522,889.368 606.683,889.368 608.844,889.368 611.005,889.368 613.166,889.368 615.327,889.368 617.488,889.368 619.649,889.368 621.81,889.368 623.971,889.368 626.132,328.308 628.293,328.308 630.454,328.308 632.615,328.308 634.776,328.308 636.937,328.308 639.098,328.308 641.259,328.308 643.42,328.308 645.581,328.308 647.742,328.308 649.903,328.308 652.064,328.308 654.225,328.308 656.386,328.308 658.547,328.308 660.708,328.308 662.869,328.308 665.03,328.308 667.191,328.308 669.352,328.308 671.513,328.308 673.674,328.308 675.835,328.308 677.996,328.308 680.157,328.308 682.318,328.308 684.479,328.308 686.64,328.308 688.801,328.308 690.962,328.308 693.123,328.308 695.284,328.308 697.445,328.308 699.606,328.308 701.767,328.308 703.927,328.308 706.088,328.308 708.249,328.308 710.41,328.308 712.571,328.308 714.732,328.308 716.893,328.308 719.054,328.308 721.215,328.308 723.376,328.308 725.537,328.308 727.698,328.308 729.859,328.308 732.02,328.308 734.181,328.308 736.342,328.308 738.503,328.308 740.664,328.308 742.825,328.308 744.986,328.308 747.147,328.308 749.308,328.308 751.469,328.308 753.63,328.308 755.791,328.308 757.952,328.308 760.113,328.308 762.274,328.308 764.435,328.308 766.596,328.308 768.757,328.308 770.918,328.308 773.079,328.308 775.24,328.308 777.401,328.308 779.562,328.308 781.723,328.308 783.884,328.308 786.045,328.308 788.206,328.308 790.367,328.308 792.528,328.308 794.689,328.308 796.85,328.308 799.011,328.308 801.172,328.308 803.333,328.308 805.494,328.308 807.655,328.308 809.816,328.308 811.977,328.308 814.138,328.308 816.298,328.308 818.459,328.308 820.62,328.308 822.781,328.308 824.942,328.308 827.103,328.308 829.264,328.308 831.425,328.308 833.586,328.308 835.747,328.308 837.908,328.308 840.069,328.308 842.23,86.1857 844.391,86.1857 846.552,86.1857 848.713,86.1857 850.874,86.1857 853.035,86.1857 855.196,86.1857 857.357,86.1857 859.518,86.1857 861.679,86.1857 863.84,86.1857 866.001,86.1857 868.162,86.1857 870.323,86.1857 872.484,86.1857 874.645,86.1857 876.806,86.1857 878.967,86.1857 881.128,86.1857 883.289,86.1857 885.45,86.1857 887.611,86.1857 889.772,86.1857 891.933,86.1857 894.094,86.1857 896.255,86.1857 898.416,86.1857 900.577,86.1857 902.738,86.1857 904.899,86.1857 907.06,86.1857 909.221,86.1857 911.382,86.1857 913.543,86.1857 915.704,86.1857 917.865,86.1857 920.026,86.1857 922.187,86.1857 924.348,86.1857 926.509,86.1857 928.669,86.1857 930.83,86.1857 932.991,86.1857 935.152,86.1857 937.313,86.1857 939.474,86.1857 941.635,86.1857 943.796,86.1857 945.957,86.1857 948.118,86.1857 950.279,86.1857 952.44,86.1857 954.601,86.1857 956.762,86.1857 958.923,86.1857 961.084,86.1857 963.245,86.1857 965.406,86.1857 967.567,86.1857 969.728,86.1857 971.889,86.1857 974.05,86.1857 976.211,86.1857 978.372,86.1857 980.533,86.1857 982.694,86.1857 984.855,86.1857 987.016,86.1857 989.177,86.1857 991.338,86.1857 993.499,86.1857 995.66,86.1857 997.821,86.1857 999.982,86.1857 1002.14,86.1857 1004.3,86.1857 1006.46,86.1857 1008.63,86.1857 1010.79,86.1857 1012.95,86.1857 1015.11,86.1857 1017.27,86.1857 1019.43,86.1857 1021.59,86.1857 1023.75,86.1857 1025.91,86.1857 1028.07,86.1857 1030.24,86.1857 1032.4,86.1857 1034.56,86.1857 1036.72,86.1857 1038.88,86.1857 1041.04,86.1857 1043.2,86.1857 1045.36,86.1857 1047.52,86.1857 1049.68,86.1857 1051.85,86.1857 1054.01,86.1857 1056.17,86.1857 1058.33,1249.63 1060.49,1249.63 1062.65,1249.63 1064.81,1249.63 1066.97,1249.63 1069.13,1249.63 1071.29,1249.63 1073.46,1249.63 1075.62,1249.63 1077.78,1249.63 1079.94,1249.63 1082.1,1249.63 1084.26,1249.63 1086.42,1249.63 1088.58,1249.63 1090.74,1249.63 1092.9,1249.63 1095.07,1249.63 1097.23,1249.63 1099.39,1249.63 1101.55,1249.63 1103.71,1249.63 1105.87,1249.63 1108.03,1249.63 1110.19,1249.63 1112.35,1249.63 1114.51,1249.63 1116.67,1249.63 1118.84,1249.63 1121,1249.63 1123.16,1249.63 1125.32,1249.63 1127.48,1249.63 1129.64,1249.63 1131.8,1249.63 1133.96,1249.63 1136.12,1249.63 1138.28,1249.63 1140.45,1249.63 1142.61,1249.63 1144.77,1249.63 1146.93,1249.63 1149.09,1249.63 1151.25,1249.63 1153.41,1249.63 1155.57,1249.63 1157.73,1249.63 1159.89,1249.63 1162.06,1249.63 1164.22,1249.63 1166.38,1249.63 1168.54,1249.63 1170.7,1249.63 1172.86,1249.63 1175.02,1249.63 1177.18,1249.63 1179.34,1249.63 1181.5,1249.63 1183.67,1249.63 1185.83,1249.63 1187.99,1249.63 1190.15,1249.63 1192.31,1249.63 1194.47,1249.63 1196.63,1249.63 1198.79,1249.63 1200.95,1249.63 1203.11,1249.63 1205.28,1249.63 1207.44,1249.63 1209.6,1249.63 1211.76,1249.63 1213.92,1249.63 1216.08,1249.63 1218.24,1249.63 1220.4,1249.63 1222.56,1249.63 1224.72,1249.63 1226.88,1249.63 1229.05,1249.63 1231.21,1249.63 1233.37,1249.63 1235.53,1249.63 1237.69,1249.63 1239.85,1249.63 1242.01,1249.63 1244.17,1249.63 1246.33,1249.63 1248.49,1249.63 1250.66,1249.63 1252.82,1249.63 1254.98,1249.63 1257.14,1249.63 1259.3,1249.63 1261.46,1249.63 1263.62,1249.63 1265.78,1249.63 1267.94,1249.63 1270.1,1249.63 1272.27,1249.63 1274.43,1054.29 1276.59,1054.29 1278.75,1054.29 1280.91,1054.29 1283.07,1054.29 1285.23,1054.29 1287.39,1054.29 1289.55,1054.29 1291.71,1054.29 1293.88,1054.29 1296.04,1054.29 1298.2,1054.29 1300.36,1054.29 1302.52,1054.29 1304.68,1054.29 1306.84,1054.29 1309,1054.29 1311.16,1054.29 1313.32,1054.29 1315.49,1054.29 1317.65,1054.29 1319.81,1054.29 1321.97,1054.29 1324.13,1054.29 1326.29,1054.29 1328.45,1054.29 1330.61,1054.29 1332.77,1054.29 1334.93,1054.29 1337.09,1054.29 1339.26,1054.29 1341.42,1054.29 1343.58,1054.29 1345.74,1054.29 1347.9,1054.29 1350.06,1054.29 1352.22,1054.29 1354.38,1054.29 1356.54,1054.29 1358.7,1054.29 1360.87,1054.29 1363.03,1054.29 1365.19,1054.29 1367.35,1054.29 1369.51,1054.29 1371.67,1054.29 1373.83,1054.29 1375.99,1054.29 1378.15,1054.29 1380.31,1054.29 1382.48,1054.29 1384.64,1054.29 1386.8,1054.29 1388.96,1054.29 1391.12,1054.29 1393.28,1054.29 1395.44,1054.29 1397.6,1054.29 1399.76,1054.29 1401.92,1054.29 1404.09,1054.29 1406.25,1054.29 1408.41,1054.29 1410.57,1054.29 1412.73,1054.29 1414.89,1054.29 1417.05,1054.29 1419.21,1054.29 1421.37,1054.29 1423.53,1054.29 1425.7,1054.29 1427.86,1054.29 1430.02,1054.29 1432.18,1054.29 1434.34,1054.29 1436.5,1054.29 1438.66,1054.29 1440.82,1054.29 1442.98,1054.29 1445.14,1054.29 1447.3,1054.29 1449.47,1054.29 1451.63,1054.29 1453.79,1054.29 1455.95,1054.29 1458.11,1054.29 1460.27,1054.29 1462.43,1054.29 1464.59,1054.29 1466.75,1054.29 1468.91,1054.29 1471.08,1054.29 1473.24,1054.29 1475.4,1054.29 1477.56,1054.29 1479.72,1054.29 1481.88,1054.29 1484.04,1054.29 1486.2,1054.29 1488.36,1054.29 1490.52,361.054 1492.69,361.054 1494.85,361.054 1497.01,361.054 1499.17,361.054 1501.33,361.054 1503.49,361.054 1505.65,361.054 1507.81,361.054 1509.97,361.054 1512.13,361.054 1514.3,361.054 1516.46,361.054 1518.62,361.054 1520.78,361.054 1522.94,361.054 1525.1,361.054 1527.26,361.054 1529.42,361.054 1531.58,361.054 1533.74,361.054 1535.91,361.054 1538.07,361.054 1540.23,361.054 1542.39,361.054 1544.55,361.054 1546.71,361.054 1548.87,361.054 1551.03,361.054 1553.19,361.054 1555.35,361.054 1557.51,361.054 1559.68,361.054 1561.84,361.054 1564,361.054 1566.16,361.054 1568.32,361.054 1570.48,361.054 1572.64,361.054 1574.8,361.054 1576.96,361.054 1579.12,361.054 1581.29,361.054 1583.45,361.054 1585.61,361.054 1587.77,361.054 1589.93,361.054 1592.09,361.054 1594.25,361.054 1596.41,361.054 1598.57,361.054 1600.73,361.054 1602.9,361.054 1605.06,361.054 1607.22,361.054 1609.38,361.054 1611.54,361.054 1613.7,361.054 1615.86,361.054 1618.02,361.054 1620.18,361.054 1622.34,361.054 1624.51,361.054 1626.67,361.054 1628.83,361.054 1630.99,361.054 1633.15,361.054 1635.31,361.054 1637.47,361.054 1639.63,361.054 1641.79,361.054 1643.95,361.054 1646.12,361.054 1648.28,361.054 1650.44,361.054 1652.6,361.054 1654.76,361.054 1656.92,361.054 1659.08,361.054 1661.24,361.054 1663.4,361.054 1665.56,361.054 1667.72,361.054 1669.89,361.054 1672.05,361.054 1674.21,361.054 1676.37,361.054 1678.53,361.054 1680.69,361.054 1682.85,361.054 1685.01,361.054 1687.17,361.054 1689.33,361.054 1691.5,361.054 1693.66,361.054 1695.82,361.054 1697.98,361.054 1700.14,361.054 1702.3,361.054 1704.46,361.054 1706.62,1161.63 1708.78,1161.63 1710.94,1161.63 1713.11,1161.63 1715.27,1161.63 1717.43,1161.63 1719.59,1161.63 1721.75,1161.63 1723.91,1161.63 1726.07,1161.63 1728.23,1161.63 1730.39,1161.63 1732.55,1161.63 1734.72,1161.63 1736.88,1161.63 1739.04,1161.63 1741.2,1161.63 1743.36,1161.63 1745.52,1161.63 1747.68,1161.63 1749.84,1161.63 1752,1161.63 1754.16,1161.63 1756.33,1161.63 1758.49,1161.63 1760.65,1161.63 1762.81,1161.63 1764.97,1161.63 1767.13,1161.63 1769.29,1161.63 1771.45,1161.63 1773.61,1161.63 1775.77,1161.63 1777.93,1161.63 1780.1,1161.63 1782.26,1161.63 1784.42,1161.63 1786.58,1161.63 1788.74,1161.63 1790.9,1161.63 1793.06,1161.63 1795.22,1161.63 1797.38,1161.63 1799.54,1161.63 1801.71,1161.63 1803.87,1161.63 1806.03,1161.63 1808.19,1161.63 1810.35,1161.63 1812.51,1161.63 1814.67,1161.63 1816.83,1161.63 1818.99,1161.63 1821.15,1161.63 1823.32,1161.63 1825.48,1161.63 1827.64,1161.63 1829.8,1161.63 1831.96,1161.63 1834.12,1161.63 1836.28,1161.63 1838.44,1161.63 1840.6,1161.63 1842.76,1161.63 1844.93,1161.63 1847.09,1161.63 1849.25,1161.63 1851.41,1161.63 1853.57,1161.63 1855.73,1161.63 1857.89,1161.63 1860.05,1161.63 1862.21,1161.63 1864.37,1161.63 1866.54,1161.63 1868.7,1161.63 1870.86,1161.63 1873.02,1161.63 1875.18,1161.63 1877.34,1161.63 1879.5,1161.63 1881.66,1161.63 1883.82,1161.63 1885.98,1161.63 1888.15,1161.63 1890.31,1161.63 1892.47,1161.63 1894.63,1161.63 1896.79,1161.63 1898.95,1161.63 1901.11,1161.63 1903.27,1161.63 1905.43,1161.63 1907.59,1161.63 1909.75,1161.63 1911.92,1161.63 1914.08,1161.63 1916.24,1161.63 1918.4,1161.63 1920.56,1161.63 1922.72,970.349 1924.88,970.349 1927.04,970.349 1929.2,970.349 1931.36,970.349 1933.53,970.349 1935.69,970.349 1937.85,970.349 1940.01,970.349 1942.17,970.349 1944.33,970.349 1946.49,970.349 1948.65,970.349 1950.81,970.349 1952.97,970.349 1955.14,970.349 1957.3,970.349 1959.46,970.349 1961.62,970.349 1963.78,970.349 1965.94,970.349 1968.1,970.349 1970.26,970.349 1972.42,970.349 1974.58,970.349 1976.75,970.349 1978.91,970.349 1981.07,970.349 1983.23,970.349 1985.39,970.349 1987.55,970.349 1989.71,970.349 1991.87,970.349 1994.03,970.349 1996.19,970.349 1998.36,970.349 2000.52,970.349 2002.68,970.349 2004.84,970.349 2007,970.349 2009.16,970.349 2011.32,970.349 2013.48,970.349 2015.64,970.349 2017.8,970.349 2019.96,970.349 2022.13,970.349 2024.29,970.349 2026.45,970.349 2028.61,970.349 2030.77,970.349 2032.93,970.349 2035.09,970.349 2037.25,970.349 2039.41,970.349 2041.57,970.349 2043.74,970.349 2045.9,970.349 2048.06,970.349 2050.22,970.349 2052.38,970.349 2054.54,970.349 2056.7,970.349 2058.86,970.349 2061.02,970.349 2063.18,970.349 2065.35,970.349 2067.51,970.349 2069.67,970.349 2071.83,970.349 2073.99,970.349 2076.15,970.349 2078.31,970.349 2080.47,970.349 2082.63,970.349 2084.79,970.349 2086.96,970.349 2089.12,970.349 2091.28,970.349 2093.44,970.349 2095.6,970.349 2097.76,970.349 2099.92,970.349 2102.08,970.349 2104.24,970.349 2106.4,970.349 2108.57,970.349 2110.73,970.349 2112.89,970.349 2115.05,970.349 2117.21,970.349 2119.37,970.349 2121.53,970.349 2123.69,970.349 2125.85,970.349 2128.01,970.349 2130.17,970.349 2132.34,970.349 2134.5,970.349 2136.66,970.349 2138.82,857.04 2140.98,857.04 2143.14,857.04 2145.3,857.04 2147.46,857.04 2149.62,857.04 2151.78,857.04 2153.95,857.04 2156.11,857.04 2158.27,857.04 2160.43,857.04 2162.59,857.04 2164.75,857.04 2166.91,857.04 2169.07,857.04 2171.23,857.04 2173.39,857.04 2175.56,857.04 2177.72,857.04 2179.88,857.04 2182.04,857.04 2184.2,857.04 2186.36,857.04 2188.52,857.04 2190.68,857.04 2192.84,857.04 2195,857.04 2197.17,857.04 2199.33,857.04 2201.49,857.04 2203.65,857.04 2205.81,857.04 2207.97,857.04 2210.13,857.04 2212.29,857.04 2214.45,857.04 2216.61,857.04 2218.78,857.04 2220.94,857.04 2223.1,857.04 2225.26,857.04 2227.42,857.04 2229.58,857.04 2231.74,857.04 2233.9,857.04 2236.06,857.04 2238.22,857.04 2240.38,857.04 2242.55,857.04 2244.71,857.04 2246.87,857.04 2249.03,857.04 2251.19,857.04 2253.35,857.04 2255.51,857.04 2257.67,857.04 2259.83,857.04 2261.99,857.04 2264.16,857.04 2266.32,857.04 2268.48,857.04 2270.64,857.04 2272.8,857.04 2274.96,857.04 2277.12,857.04 2279.28,857.04 2281.44,857.04 2283.6,857.04 2285.77,857.04 2287.93,857.04 2290.09,857.04 2292.25,857.04 2294.41,857.04 2296.57,857.04 2298.73,857.04 2300.89,857.04 2303.05,857.04 2305.21,857.04 2307.38,857.04 2309.54,857.04 2311.7,857.04 2313.86,857.04 2316.02,857.04 2318.18,857.04 2320.34,857.04 2322.5,857.04 2324.66,857.04 2326.82,857.04 2328.99,857.04 2331.15,857.04 2333.31,857.04 2335.47,857.04 2337.63,857.04 2339.79,857.04 2341.95,857.04 2344.11,857.04 2346.27,857.04 2348.43,857.04 2350.59,857.04 2352.76,857.04 "/>
<path clip-path="url(#clip950)" d="M2039.77 248.629 L2280.8 248.629 L2280.8 93.1086 L2039.77 93.1086  Z" fill="#ffffff" fill-rule="evenodd" fill-opacity="1"/>
<polyline clip-path="url(#clip950)" style="stroke:#000000; stroke-linecap:round; stroke-linejoin:round; stroke-width:4; stroke-opacity:1; fill:none" points="2039.77,248.629 2280.8,248.629 2280.8,93.1086 2039.77,93.1086 2039.77,248.629 "/>
<polyline clip-path="url(#clip950)" style="stroke:#009af9; stroke-linecap:round; stroke-linejoin:round; stroke-width:4; stroke-opacity:1; fill:none" points="2063.76,144.949 2207.68,144.949 "/>
<path clip-path="url(#clip950)" d="M2256.32 136.303 L2246.95 148.919 L2256.81 162.229 L2251.79 162.229 L2244.24 152.043 L2236.69 162.229 L2231.67 162.229 L2241.74 148.664 L2232.53 136.303 L2237.55 136.303 L2244.42 145.539 L2251.3 136.303 L2256.32 136.303 Z" fill="#000000" fill-rule="nonzero" fill-opacity="1" /><polyline clip-path="url(#clip950)" style="stroke:#e26f46; stroke-linecap:round; stroke-linejoin:round; stroke-width:4; stroke-opacity:1; fill:none" points="2063.76,196.789 2207.68,196.789 "/>
<path clip-path="url(#clip950)" d="M2248.17 178.05 L2248.17 181.592 L2244.1 181.592 Q2241.81 181.592 2240.91 182.518 Q2240.03 183.444 2240.03 185.851 L2240.03 188.143 L2247.04 188.143 L2247.04 191.453 L2240.03 191.453 L2240.03 214.069 L2235.74 214.069 L2235.74 191.453 L2231.67 191.453 L2231.67 188.143 L2235.74 188.143 L2235.74 186.337 Q2235.74 182.009 2237.76 180.041 Q2239.77 178.05 2244.15 178.05 L2248.17 178.05 Z" fill="#000000" fill-rule="nonzero" fill-opacity="1" /></svg>
