<?xml version="1.0" encoding="utf-8"?>
<svg xmlns="http://www.w3.org/2000/svg" xmlns:xlink="http://www.w3.org/1999/xlink" width="600" height="400" viewBox="0 0 2400 1600">
<defs>
  <clipPath id="clip380">
    <rect x="0" y="0" width="2400" height="1600"/>
  </clipPath>
</defs>
<path clip-path="url(#clip380)" d="M0 1600 L2400 1600 L2400 0 L0 0  Z" fill="#ffffff" fill-rule="evenodd" fill-opacity="1"/>
<defs>
  <clipPath id="clip381">
    <rect x="112" y="47" width="2242" height="1440"/>
  </clipPath>
</defs>
<path clip-path="url(#clip381)" d="M-862.264 2741.76 L-862.264 2430.79 L-465.724 2275.3 L221.104 2365.07 L221.104 2676.04 L-175.436 2831.52 L-862.264 2741.76  Z" fill="#ffffff" fill-rule="evenodd" fill-opacity="1"/>
<polyline clip-path="url(#clip381)" style="stroke:#000000; stroke-linecap:round; stroke-linejoin:round; stroke-width:2; stroke-opacity:0.1; fill:none" points="697.654,1212.13 1113.12,852.326 1113.12,132.724 "/>
<polyline clip-path="url(#clip381)" style="stroke:#000000; stroke-linecap:round; stroke-linejoin:round; stroke-width:2; stroke-opacity:0.1; fill:none" points="869.361,1261.69 1284.82,901.894 1284.82,182.292 "/>
<polyline clip-path="url(#clip381)" style="stroke:#000000; stroke-linecap:round; stroke-linejoin:round; stroke-width:2; stroke-opacity:0.1; fill:none" points="1041.07,1311.26 1456.53,951.461 1456.53,231.859 "/>
<polyline clip-path="url(#clip381)" style="stroke:#000000; stroke-linecap:round; stroke-linejoin:round; stroke-width:2; stroke-opacity:0.1; fill:none" points="1212.77,1360.83 1628.24,1001.03 1628.24,281.427 "/>
<polyline clip-path="url(#clip381)" style="stroke:#000000; stroke-linecap:round; stroke-linejoin:round; stroke-width:2; stroke-opacity:0.1; fill:none" points="1384.48,1410.4 1799.94,1050.6 1799.94,330.994 "/>
<polyline clip-path="url(#clip381)" style="stroke:#000000; stroke-linecap:round; stroke-linejoin:round; stroke-width:2; stroke-opacity:0.1; fill:none" points="1435.61,1366.19 716.004,1158.45 716.004,438.852 "/>
<polyline clip-path="url(#clip381)" style="stroke:#000000; stroke-linecap:round; stroke-linejoin:round; stroke-width:2; stroke-opacity:0.1; fill:none" points="1525.38,1288.44 805.773,1080.71 805.773,361.11 "/>
<polyline clip-path="url(#clip381)" style="stroke:#000000; stroke-linecap:round; stroke-linejoin:round; stroke-width:2; stroke-opacity:0.1; fill:none" points="1615.14,1210.7 895.542,1002.97 895.542,283.368 "/>
<polyline clip-path="url(#clip381)" style="stroke:#000000; stroke-linecap:round; stroke-linejoin:round; stroke-width:2; stroke-opacity:0.1; fill:none" points="1704.91,1132.96 985.311,925.227 985.311,205.625 "/>
<polyline clip-path="url(#clip381)" style="stroke:#000000; stroke-linecap:round; stroke-linejoin:round; stroke-width:2; stroke-opacity:0.1; fill:none" points="1794.68,1055.22 1075.08,847.485 1075.08,127.883 "/>
<polyline clip-path="url(#clip381)" style="stroke:#000000; stroke-linecap:round; stroke-linejoin:round; stroke-width:2; stroke-opacity:0.1; fill:none" points="664.934,1093.6 1080.4,733.802 1800,941.533 "/>
<polyline clip-path="url(#clip381)" style="stroke:#000000; stroke-linecap:round; stroke-linejoin:round; stroke-width:2; stroke-opacity:0.1; fill:none" points="664.934,959.424 1080.4,599.623 1800,807.354 "/>
<polyline clip-path="url(#clip381)" style="stroke:#000000; stroke-linecap:round; stroke-linejoin:round; stroke-width:2; stroke-opacity:0.1; fill:none" points="664.934,825.245 1080.4,465.444 1800,673.176 "/>
<polyline clip-path="url(#clip381)" style="stroke:#000000; stroke-linecap:round; stroke-linejoin:round; stroke-width:2; stroke-opacity:0.1; fill:none" points="664.934,691.067 1080.4,331.266 1800,538.997 "/>
<polyline clip-path="url(#clip381)" style="stroke:#000000; stroke-linecap:round; stroke-linejoin:round; stroke-width:2; stroke-opacity:0.1; fill:none" points="664.934,556.888 1080.4,197.087 1800,404.818 "/>
<polyline clip-path="url(#clip380)" style="stroke:#000000; stroke-linecap:round; stroke-linejoin:round; stroke-width:4; stroke-opacity:1; fill:none" points="664.934,1202.68 1384.54,1410.41 "/>
<polyline clip-path="url(#clip380)" style="stroke:#000000; stroke-linecap:round; stroke-linejoin:round; stroke-width:4; stroke-opacity:1; fill:none" points="697.654,1212.13 702.639,1207.81 "/>
<polyline clip-path="url(#clip380)" style="stroke:#000000; stroke-linecap:round; stroke-linejoin:round; stroke-width:4; stroke-opacity:1; fill:none" points="869.361,1261.69 874.346,1257.38 "/>
<polyline clip-path="url(#clip380)" style="stroke:#000000; stroke-linecap:round; stroke-linejoin:round; stroke-width:4; stroke-opacity:1; fill:none" points="1041.07,1311.26 1046.05,1306.94 "/>
<polyline clip-path="url(#clip380)" style="stroke:#000000; stroke-linecap:round; stroke-linejoin:round; stroke-width:4; stroke-opacity:1; fill:none" points="1212.77,1360.83 1217.76,1356.51 "/>
<polyline clip-path="url(#clip380)" style="stroke:#000000; stroke-linecap:round; stroke-linejoin:round; stroke-width:4; stroke-opacity:1; fill:none" points="1384.48,1410.4 1389.47,1406.08 "/>
<path clip-path="url(#clip380)" d="M637.741 1226.48 Q634.13 1226.48 632.301 1230.05 Q630.496 1233.59 630.496 1240.72 Q630.496 1247.83 632.301 1251.39 Q634.13 1254.93 637.741 1254.93 Q641.375 1254.93 643.181 1251.39 Q645.01 1247.83 645.01 1240.72 Q645.01 1233.59 643.181 1230.05 Q641.375 1226.48 637.741 1226.48 M637.741 1222.78 Q643.551 1222.78 646.607 1227.39 Q649.685 1231.97 649.685 1240.72 Q649.685 1249.45 646.607 1254.05 Q643.551 1258.64 637.741 1258.64 Q631.931 1258.64 628.852 1254.05 Q625.797 1249.45 625.797 1240.72 Q625.797 1231.97 628.852 1227.39 Q631.931 1222.78 637.741 1222.78 Z" fill="#000000" fill-rule="nonzero" fill-opacity="1" /><path clip-path="url(#clip380)" d="M657.903 1252.08 L662.787 1252.08 L662.787 1257.96 L657.903 1257.96 L657.903 1252.08 Z" fill="#000000" fill-rule="nonzero" fill-opacity="1" /><path clip-path="url(#clip380)" d="M673.019 1223.4 L691.375 1223.4 L691.375 1227.34 L677.301 1227.34 L677.301 1235.81 Q678.32 1235.46 679.338 1235.3 Q680.357 1235.12 681.375 1235.12 Q687.162 1235.12 690.542 1238.29 Q693.921 1241.46 693.921 1246.88 Q693.921 1252.45 690.449 1255.56 Q686.977 1258.64 680.657 1258.64 Q678.482 1258.64 676.213 1258.27 Q673.968 1257.89 671.56 1257.15 L671.56 1252.45 Q673.644 1253.59 675.866 1254.14 Q678.088 1254.7 680.565 1254.7 Q684.569 1254.7 686.907 1252.59 Q689.245 1250.49 689.245 1246.88 Q689.245 1243.27 686.907 1241.16 Q684.569 1239.05 680.565 1239.05 Q678.69 1239.05 676.815 1239.47 Q674.963 1239.89 673.019 1240.77 L673.019 1223.4 Z" fill="#000000" fill-rule="nonzero" fill-opacity="1" /><path clip-path="url(#clip380)" d="M799.263 1303.6 L806.902 1303.6 L806.902 1277.23 L798.592 1278.9 L798.592 1274.64 L806.855 1272.97 L811.531 1272.97 L811.531 1303.6 L819.17 1303.6 L819.17 1307.53 L799.263 1307.53 L799.263 1303.6 Z" fill="#000000" fill-rule="nonzero" fill-opacity="1" /><path clip-path="url(#clip380)" d="M828.615 1301.65 L833.499 1301.65 L833.499 1307.53 L828.615 1307.53 L828.615 1301.65 Z" fill="#000000" fill-rule="nonzero" fill-opacity="1" /><path clip-path="url(#clip380)" d="M853.684 1276.05 Q850.073 1276.05 848.244 1279.62 Q846.439 1283.16 846.439 1290.29 Q846.439 1297.39 848.244 1300.96 Q850.073 1304.5 853.684 1304.5 Q857.318 1304.5 859.124 1300.96 Q860.952 1297.39 860.952 1290.29 Q860.952 1283.16 859.124 1279.62 Q857.318 1276.05 853.684 1276.05 M853.684 1272.35 Q859.494 1272.35 862.55 1276.95 Q865.628 1281.54 865.628 1290.29 Q865.628 1299.01 862.55 1303.62 Q859.494 1308.2 853.684 1308.2 Q847.874 1308.2 844.795 1303.62 Q841.74 1299.01 841.74 1290.29 Q841.74 1281.54 844.795 1276.95 Q847.874 1272.35 853.684 1272.35 Z" fill="#000000" fill-rule="nonzero" fill-opacity="1" /><path clip-path="url(#clip380)" d="M971.965 1353.16 L979.604 1353.16 L979.604 1326.8 L971.294 1328.47 L971.294 1324.21 L979.558 1322.54 L984.234 1322.54 L984.234 1353.16 L991.873 1353.16 L991.873 1357.1 L971.965 1357.1 L971.965 1353.16 Z" fill="#000000" fill-rule="nonzero" fill-opacity="1" /><path clip-path="url(#clip380)" d="M1001.32 1351.22 L1006.2 1351.22 L1006.2 1357.1 L1001.32 1357.1 L1001.32 1351.22 Z" fill="#000000" fill-rule="nonzero" fill-opacity="1" /><path clip-path="url(#clip380)" d="M1016.43 1322.54 L1034.79 1322.54 L1034.79 1326.47 L1020.71 1326.47 L1020.71 1334.95 Q1021.73 1334.6 1022.75 1334.44 Q1023.77 1334.25 1024.79 1334.25 Q1030.58 1334.25 1033.96 1337.42 Q1037.34 1340.59 1037.34 1346.01 Q1037.34 1351.59 1033.86 1354.69 Q1030.39 1357.77 1024.07 1357.77 Q1021.9 1357.77 1019.63 1357.4 Q1017.38 1357.03 1014.97 1356.29 L1014.97 1351.59 Q1017.06 1352.72 1019.28 1353.28 Q1021.5 1353.84 1023.98 1353.84 Q1027.98 1353.84 1030.32 1351.73 Q1032.66 1349.62 1032.66 1346.01 Q1032.66 1342.4 1030.32 1340.29 Q1027.98 1338.19 1023.98 1338.19 Q1022.1 1338.19 1020.23 1338.6 Q1018.38 1339.02 1016.43 1339.9 L1016.43 1322.54 Z" fill="#000000" fill-rule="nonzero" fill-opacity="1" /><path clip-path="url(#clip380)" d="M1145.89 1402.73 L1162.21 1402.73 L1162.21 1406.67 L1140.27 1406.67 L1140.27 1402.73 Q1142.93 1399.98 1147.51 1395.35 Q1152.12 1390.69 1153.3 1389.35 Q1155.55 1386.83 1156.43 1385.09 Q1157.33 1383.33 1157.33 1381.64 Q1157.33 1378.89 1155.39 1377.15 Q1153.46 1375.42 1150.36 1375.42 Q1148.16 1375.42 1145.71 1376.18 Q1143.28 1376.94 1140.5 1378.5 L1140.5 1373.77 Q1143.32 1372.64 1145.78 1372.06 Q1148.23 1371.48 1150.27 1371.48 Q1155.64 1371.48 1158.83 1374.17 Q1162.03 1376.85 1162.03 1381.34 Q1162.03 1383.47 1161.22 1385.39 Q1160.43 1387.29 1158.32 1389.88 Q1157.75 1390.56 1154.64 1393.77 Q1151.54 1396.97 1145.89 1402.73 Z" fill="#000000" fill-rule="nonzero" fill-opacity="1" /><path clip-path="url(#clip380)" d="M1172.03 1400.79 L1176.91 1400.79 L1176.91 1406.67 L1172.03 1406.67 L1172.03 1400.79 Z" fill="#000000" fill-rule="nonzero" fill-opacity="1" /><path clip-path="url(#clip380)" d="M1197.1 1375.19 Q1193.49 1375.19 1191.66 1378.75 Q1189.85 1382.29 1189.85 1389.42 Q1189.85 1396.53 1191.66 1400.09 Q1193.49 1403.63 1197.1 1403.63 Q1200.73 1403.63 1202.54 1400.09 Q1204.37 1396.53 1204.37 1389.42 Q1204.37 1382.29 1202.54 1378.75 Q1200.73 1375.19 1197.1 1375.19 M1197.1 1371.48 Q1202.91 1371.48 1205.96 1376.09 Q1209.04 1380.67 1209.04 1389.42 Q1209.04 1398.15 1205.96 1402.75 Q1202.91 1407.34 1197.1 1407.34 Q1191.29 1407.34 1188.21 1402.75 Q1185.15 1398.15 1185.15 1389.42 Q1185.15 1380.67 1188.21 1376.09 Q1191.29 1371.48 1197.1 1371.48 Z" fill="#000000" fill-rule="nonzero" fill-opacity="1" /><path clip-path="url(#clip380)" d="M1318.6 1452.3 L1334.92 1452.3 L1334.92 1456.23 L1312.97 1456.23 L1312.97 1452.3 Q1315.63 1449.54 1320.22 1444.91 Q1324.82 1440.26 1326 1438.92 Q1328.25 1436.4 1329.13 1434.66 Q1330.03 1432.9 1330.03 1431.21 Q1330.03 1428.46 1328.09 1426.72 Q1326.17 1424.98 1323.06 1424.98 Q1320.87 1424.98 1318.41 1425.75 Q1315.98 1426.51 1313.2 1428.06 L1313.2 1423.34 Q1316.03 1422.21 1318.48 1421.63 Q1320.93 1421.05 1322.97 1421.05 Q1328.34 1421.05 1331.54 1423.73 Q1334.73 1426.42 1334.73 1430.91 Q1334.73 1433.04 1333.92 1434.96 Q1333.13 1436.86 1331.03 1439.45 Q1330.45 1440.12 1327.35 1443.34 Q1324.24 1446.54 1318.6 1452.3 Z" fill="#000000" fill-rule="nonzero" fill-opacity="1" /><path clip-path="url(#clip380)" d="M1344.73 1450.35 L1349.62 1450.35 L1349.62 1456.23 L1344.73 1456.23 L1344.73 1450.35 Z" fill="#000000" fill-rule="nonzero" fill-opacity="1" /><path clip-path="url(#clip380)" d="M1359.85 1421.67 L1378.2 1421.67 L1378.2 1425.61 L1364.13 1425.61 L1364.13 1434.08 Q1365.15 1433.73 1366.17 1433.57 Q1367.18 1433.39 1368.2 1433.39 Q1373.99 1433.39 1377.37 1436.56 Q1380.75 1439.73 1380.75 1445.15 Q1380.75 1450.73 1377.28 1453.83 Q1373.8 1456.91 1367.49 1456.91 Q1365.31 1456.91 1363.04 1456.54 Q1360.8 1456.16 1358.39 1455.42 L1358.39 1450.73 Q1360.47 1451.86 1362.69 1452.41 Q1364.92 1452.97 1367.39 1452.97 Q1371.4 1452.97 1373.74 1450.86 Q1376.07 1448.76 1376.07 1445.15 Q1376.07 1441.54 1373.74 1439.43 Q1371.4 1437.32 1367.39 1437.32 Q1365.52 1437.32 1363.64 1437.74 Q1361.79 1438.16 1359.85 1439.04 L1359.85 1421.67 Z" fill="#000000" fill-rule="nonzero" fill-opacity="1" /><polyline clip-path="url(#clip380)" style="stroke:#000000; stroke-linecap:round; stroke-linejoin:round; stroke-width:4; stroke-opacity:1; fill:none" points="1384.54,1410.41 1800,1050.61 "/>
<polyline clip-path="url(#clip380)" style="stroke:#000000; stroke-linecap:round; stroke-linejoin:round; stroke-width:4; stroke-opacity:1; fill:none" points="1435.61,1366.19 1426.97,1363.69 "/>
<polyline clip-path="url(#clip380)" style="stroke:#000000; stroke-linecap:round; stroke-linejoin:round; stroke-width:4; stroke-opacity:1; fill:none" points="1525.38,1288.44 1516.74,1285.95 "/>
<polyline clip-path="url(#clip380)" style="stroke:#000000; stroke-linecap:round; stroke-linejoin:round; stroke-width:4; stroke-opacity:1; fill:none" points="1615.14,1210.7 1606.51,1208.21 "/>
<polyline clip-path="url(#clip380)" style="stroke:#000000; stroke-linecap:round; stroke-linejoin:round; stroke-width:4; stroke-opacity:1; fill:none" points="1704.91,1132.96 1696.28,1130.47 "/>
<polyline clip-path="url(#clip380)" style="stroke:#000000; stroke-linecap:round; stroke-linejoin:round; stroke-width:4; stroke-opacity:1; fill:none" points="1794.68,1055.22 1786.05,1052.72 "/>
<path clip-path="url(#clip380)" d="M1461.72 1379.79 L1449.92 1398.24 L1461.72 1398.24 L1461.72 1379.79 M1460.49 1375.72 L1466.37 1375.72 L1466.37 1398.24 L1471.3 1398.24 L1471.3 1402.13 L1466.37 1402.13 L1466.37 1410.28 L1461.72 1410.28 L1461.72 1402.13 L1446.12 1402.13 L1446.12 1397.62 L1460.49 1375.72 Z" fill="#000000" fill-rule="nonzero" fill-opacity="1" /><path clip-path="url(#clip380)" d="M1537.35 1297.98 L1555.7 1297.98 L1555.7 1301.91 L1541.63 1301.91 L1541.63 1310.38 Q1542.65 1310.04 1543.67 1309.87 Q1544.68 1309.69 1545.7 1309.69 Q1551.49 1309.69 1554.87 1312.86 Q1558.25 1316.03 1558.25 1321.45 Q1558.25 1327.03 1554.78 1330.13 Q1551.3 1333.21 1544.99 1333.21 Q1542.81 1333.21 1540.54 1332.84 Q1538.3 1332.47 1535.89 1331.73 L1535.89 1327.03 Q1537.97 1328.16 1540.19 1328.72 Q1542.42 1329.27 1544.89 1329.27 Q1548.9 1329.27 1551.24 1327.17 Q1553.57 1325.06 1553.57 1321.45 Q1553.57 1317.84 1551.24 1315.73 Q1548.9 1313.62 1544.89 1313.62 Q1543.02 1313.62 1541.14 1314.04 Q1539.29 1314.46 1537.35 1315.34 L1537.35 1297.98 Z" fill="#000000" fill-rule="nonzero" fill-opacity="1" /><path clip-path="url(#clip380)" d="M1638 1235.65 Q1634.85 1235.65 1633 1237.8 Q1631.17 1239.96 1631.17 1243.71 Q1631.17 1247.43 1633 1249.61 Q1634.85 1251.76 1638 1251.76 Q1641.14 1251.76 1642.97 1249.61 Q1644.82 1247.43 1644.82 1243.71 Q1644.82 1239.96 1642.97 1237.8 Q1641.14 1235.65 1638 1235.65 M1647.28 1221 L1647.28 1225.26 Q1645.52 1224.42 1643.71 1223.98 Q1641.93 1223.54 1640.17 1223.54 Q1635.54 1223.54 1633.09 1226.67 Q1630.66 1229.79 1630.31 1236.11 Q1631.68 1234.1 1633.74 1233.03 Q1635.8 1231.95 1638.27 1231.95 Q1643.48 1231.95 1646.49 1235.12 Q1649.52 1238.27 1649.52 1243.71 Q1649.52 1249.03 1646.37 1252.25 Q1643.23 1255.46 1638 1255.46 Q1632 1255.46 1628.83 1250.88 Q1625.66 1246.27 1625.66 1237.55 Q1625.66 1229.35 1629.55 1224.49 Q1633.44 1219.61 1639.99 1219.61 Q1641.75 1219.61 1643.53 1219.96 Q1645.33 1220.3 1647.28 1221 Z" fill="#000000" fill-rule="nonzero" fill-opacity="1" /><path clip-path="url(#clip380)" d="M1715.43 1142.49 L1737.65 1142.49 L1737.65 1144.48 L1725.1 1177.05 L1720.22 1177.05 L1732.02 1146.43 L1715.43 1146.43 L1715.43 1142.49 Z" fill="#000000" fill-rule="nonzero" fill-opacity="1" /><path clip-path="url(#clip380)" d="M1817.05 1082.9 Q1813.71 1082.9 1811.79 1084.68 Q1809.89 1086.46 1809.89 1089.59 Q1809.89 1092.71 1811.79 1094.49 Q1813.71 1096.28 1817.05 1096.28 Q1820.38 1096.28 1822.3 1094.49 Q1824.22 1092.69 1824.22 1089.59 Q1824.22 1086.46 1822.3 1084.68 Q1820.4 1082.9 1817.05 1082.9 M1812.37 1080.91 Q1809.36 1080.17 1807.67 1078.11 Q1806.01 1076.04 1806.01 1073.08 Q1806.01 1068.94 1808.95 1066.53 Q1811.91 1064.12 1817.05 1064.12 Q1822.21 1064.12 1825.15 1066.53 Q1828.09 1068.94 1828.09 1073.08 Q1828.09 1076.04 1826.4 1078.11 Q1824.73 1080.17 1821.75 1080.91 Q1825.13 1081.69 1827 1083.98 Q1828.9 1086.28 1828.9 1089.59 Q1828.9 1094.61 1825.82 1097.29 Q1822.76 1099.98 1817.05 1099.98 Q1811.33 1099.98 1808.25 1097.29 Q1805.2 1094.61 1805.2 1089.59 Q1805.2 1086.28 1807.09 1083.98 Q1808.99 1081.69 1812.37 1080.91 M1810.66 1073.52 Q1810.66 1076.21 1812.33 1077.71 Q1814.01 1079.22 1817.05 1079.22 Q1820.06 1079.22 1821.75 1077.71 Q1823.46 1076.21 1823.46 1073.52 Q1823.46 1070.84 1821.75 1069.33 Q1820.06 1067.83 1817.05 1067.83 Q1814.01 1067.83 1812.33 1069.33 Q1810.66 1070.84 1810.66 1073.52 Z" fill="#000000" fill-rule="nonzero" fill-opacity="1" /><polyline clip-path="url(#clip380)" style="stroke:#000000; stroke-linecap:round; stroke-linejoin:round; stroke-width:4; stroke-opacity:1; fill:none" points="664.934,1202.68 664.934,483.08 "/>
<polyline clip-path="url(#clip380)" style="stroke:#000000; stroke-linecap:round; stroke-linejoin:round; stroke-width:4; stroke-opacity:1; fill:none" points="664.934,1093.6 669.92,1089.29 "/>
<polyline clip-path="url(#clip380)" style="stroke:#000000; stroke-linecap:round; stroke-linejoin:round; stroke-width:4; stroke-opacity:1; fill:none" points="664.934,959.424 669.92,955.107 "/>
<polyline clip-path="url(#clip380)" style="stroke:#000000; stroke-linecap:round; stroke-linejoin:round; stroke-width:4; stroke-opacity:1; fill:none" points="664.934,825.245 669.92,820.928 "/>
<polyline clip-path="url(#clip380)" style="stroke:#000000; stroke-linecap:round; stroke-linejoin:round; stroke-width:4; stroke-opacity:1; fill:none" points="664.934,691.067 669.92,686.749 "/>
<polyline clip-path="url(#clip380)" style="stroke:#000000; stroke-linecap:round; stroke-linejoin:round; stroke-width:4; stroke-opacity:1; fill:none" points="664.934,556.888 669.92,552.57 "/>
<path clip-path="url(#clip380)" d="M626.551 1080.4 L614.746 1098.85 L626.551 1098.85 L626.551 1080.4 M625.324 1076.32 L631.204 1076.32 L631.204 1098.85 L636.134 1098.85 L636.134 1102.73 L631.204 1102.73 L631.204 1110.88 L626.551 1110.88 L626.551 1102.73 L610.949 1102.73 L610.949 1098.22 L625.324 1076.32 Z" fill="#000000" fill-rule="nonzero" fill-opacity="1" /><path clip-path="url(#clip380)" d="M615.232 942.144 L633.588 942.144 L633.588 946.079 L619.514 946.079 L619.514 954.552 Q620.533 954.204 621.551 954.042 Q622.57 953.857 623.588 953.857 Q629.375 953.857 632.755 957.028 Q636.134 960.2 636.134 965.616 Q636.134 971.195 632.662 974.297 Q629.19 977.375 622.871 977.375 Q620.695 977.375 618.426 977.005 Q616.181 976.635 613.773 975.894 L613.773 971.195 Q615.857 972.329 618.079 972.885 Q620.301 973.44 622.778 973.44 Q626.783 973.44 629.121 971.334 Q631.459 969.227 631.459 965.616 Q631.459 962.005 629.121 959.899 Q626.783 957.792 622.778 957.792 Q620.903 957.792 619.028 958.209 Q617.176 958.626 615.232 959.505 L615.232 942.144 Z" fill="#000000" fill-rule="nonzero" fill-opacity="1" /><path clip-path="url(#clip380)" d="M624.607 823.382 Q621.459 823.382 619.607 825.535 Q617.778 827.687 617.778 831.437 Q617.778 835.164 619.607 837.34 Q621.459 839.493 624.607 839.493 Q627.755 839.493 629.584 837.34 Q631.435 835.164 631.435 831.437 Q631.435 827.687 629.584 825.535 Q627.755 823.382 624.607 823.382 M633.889 808.729 L633.889 812.988 Q632.13 812.155 630.324 811.715 Q628.542 811.276 626.783 811.276 Q622.153 811.276 619.699 814.401 Q617.269 817.525 616.922 823.845 Q618.287 821.831 620.347 820.766 Q622.408 819.678 624.884 819.678 Q630.093 819.678 633.102 822.85 Q636.134 825.998 636.134 831.437 Q636.134 836.762 632.986 839.979 Q629.838 843.197 624.607 843.197 Q618.611 843.197 615.44 838.613 Q612.269 834.007 612.269 825.28 Q612.269 817.086 616.158 812.225 Q620.047 807.34 626.597 807.34 Q628.357 807.34 630.139 807.688 Q631.945 808.035 633.889 808.729 Z" fill="#000000" fill-rule="nonzero" fill-opacity="1" /><path clip-path="url(#clip380)" d="M613.912 673.787 L636.134 673.787 L636.134 675.777 L623.588 708.347 L618.704 708.347 L630.509 677.722 L613.912 677.722 L613.912 673.787 Z" fill="#000000" fill-rule="nonzero" fill-opacity="1" /><path clip-path="url(#clip380)" d="M624.283 557.756 Q620.949 557.756 619.028 559.538 Q617.13 561.321 617.13 564.446 Q617.13 567.571 619.028 569.353 Q620.949 571.135 624.283 571.135 Q627.616 571.135 629.537 569.353 Q631.459 567.547 631.459 564.446 Q631.459 561.321 629.537 559.538 Q627.639 557.756 624.283 557.756 M619.607 555.765 Q616.597 555.024 614.908 552.964 Q613.241 550.904 613.241 547.941 Q613.241 543.798 616.181 541.39 Q619.144 538.983 624.283 538.983 Q629.445 538.983 632.384 541.39 Q635.324 543.798 635.324 547.941 Q635.324 550.904 633.634 552.964 Q631.968 555.024 628.982 555.765 Q632.361 556.552 634.236 558.844 Q636.134 561.135 636.134 564.446 Q636.134 569.469 633.056 572.154 Q630 574.839 624.283 574.839 Q618.565 574.839 615.486 572.154 Q612.431 569.469 612.431 564.446 Q612.431 561.135 614.329 558.844 Q616.227 556.552 619.607 555.765 M617.894 548.381 Q617.894 551.066 619.56 552.571 Q621.25 554.075 624.283 554.075 Q627.292 554.075 628.982 552.571 Q630.695 551.066 630.695 548.381 Q630.695 545.696 628.982 544.191 Q627.292 542.686 624.283 542.686 Q621.25 542.686 619.56 544.191 Q617.894 545.696 617.894 548.381 Z" fill="#000000" fill-rule="nonzero" fill-opacity="1" /><polyline clip-path="url(#clip381)" style="stroke:#009af9; stroke-linecap:round; stroke-linejoin:round; stroke-width:4; stroke-opacity:1; fill:none" points="1010.2,896.467 1015.85,889.317 1015.66,889.332 1010.1,895.846 1011.3,894.073 1010.86,894.305 1018.12,885.175 1021.05,881.355 1019.86,882.55 1022.65,878.885 1016.67,885.743 1024.57,875.886 1038.04,859.399 1066.78,825.133 1040.85,857.496 1038.6,860.387 1040.2,858.89 1035.71,864.804 1030.78,870.741 1023.61,878.527 1010.03,894.064 1023.07,877.537 1053.09,841.766 1053.39,842.953 1083.17,812.139 1099.93,797.943 1121.5,779.05 1091.48,819.651 1135.63,773.038 1217.13,695.362 1197.49,732.451 1177.46,757.115 1171.2,763.28 1204.96,738.054 1211.35,733.243 1235.01,709.108 1333.7,619.195 1348.25,621.008 1359.79,617.759 1379.7,610.885 1372.1,626.637 1405.47,599.589 1452.07,560.649 1427.15,588.503 1424.59,591.269 1358.38,641.352 1372.72,629.177 1338.42,661.357 1301.31,667.196 1214.85,743.25 1134.48,804.585 1113.49,820.334 1050.52,870.885 1061.88,844.834 1074.43,832.349 1127.42,788.702 1104.83,811.99 1083.04,828.133 1010.27,888.86 1071.23,830.978 1208.3,730.561 1227.06,708.691 1200.96,740.051 1150.27,778.026 1072.68,841.274 1015.72,890.352 968.746,939.825 944.767,937.914 936.203,963.148 999.19,890.712 1137.05,780.872 1150.21,778.861 1169.54,771.254 1099.72,837.044 1092.76,830.594 1086.71,836.195 1000.03,909.349 1023.34,881.297 1032.6,887.711 1180.16,747.239 1261.58,662.862 1128.02,784.074 1025.24,899.352 915.509,986.416 892.794,1002.22 824.497,1063.31 855.435,1015.37 848.418,1021.82 902.104,963.716 950.813,917.316 965.979,915.925 965.842,929.42 1005.8,886.788 1084.91,818.321 1131.45,789.045 1071.36,853.587 1001.78,915.257 917.273,975.841 803.163,1090.63 742.53,1144.63 795.032,1071.32 838.983,1015.27 827.676,1038.93 751.154,1127.06 767.536,1101.83 787.606,1075.29 770.358,1100.14 784.334,1088.84 827.424,1037.4 837.335,1033.43 814.913,1057.03 815.785,1059.12 737.452,1145 738.821,1126.94 740.241,1129.7 774.589,1086.08 824.044,1038.08 808.961,1059.3 808.553,1055.26 814.45,1042.24 834.394,1025.19 851.03,1015.09 884.786,978.114 949.187,924.405 1039.07,843.791 1081.34,811.273 1093.23,817.582 950.058,958.826 940.996,958.398 937.39,953.293 1006.56,878.694 1053.29,850.778 1109.81,790.232 1112.24,799.775 1210.04,707.719 1270.95,661.002 1229.18,723.813 1145.33,794.121 1168.92,770.938 1205.72,729.442 1236.13,702.253 1287.13,687.462 1100.77,850.303 1014.23,909.282 932.115,980.834 849.544,1043.52 842.305,1036.79 839.585,1036.77 835.946,1040.31 885.331,981.64 922.439,948.106 892.493,989.177 877.627,1004.49 880.133,991.184 906.138,964.277 1108.67,748.853 1252.24,640.901 1309.78,619.783 1342.72,610.848 1211.29,755.289 1129.21,826.068 1106.21,839.126 1133.56,799.637 1109.61,817.555 1014.62,899.625 1061.74,844.876 1217.97,704.347 1234.34,698.947 1214.79,728.62 1227.22,711.944 1278.98,664.244 1460.39,509.336 1385.96,613.022 1466.62,532.776 1423.68,591.701 1523.67,510.496 1640.29,415.963 1607.79,472.767 1505.83,573.19 1384.94,672 1284.97,725.478 1295.89,700.57 1187.96,786.876 1187.1,772.268 1144.32,804.283 1101.45,835.716 1079.4,849.299 1075.6,842.759 1090.66,822.031 1042.45,865.856 1054.57,860.747 998.449,914.676 1008.44,910.644 920.877,980.905 945.53,935.22 970.962,918.313 1015.72,872.801 1001.22,889.522 1033.39,874.515 1050.39,866.16 1101.47,815.379 1206.71,719.872 1289.21,667.778 1450.98,548.781 1452.35,570.334 1437.56,585.74 1395.5,613.578 1228.93,750.168 1207.2,739.917 1216.07,723.084 1164.45,763.472 1325.09,640.592 1368.11,609.601 1318.71,681.41 1324.58,681.666 1309.9,681.307 1291.2,667.374 1264.37,712.162 1204.71,765.867 1157.42,782.342 1228.44,721.626 1212.32,748.964 1232.59,714.197 1281.03,670.979 1283.25,679.604 1345.01,627.183 1423.6,607.912 1368.96,641.795 1404.54,603.302 1465.36,549.375 1380.67,622.517 1452.33,557.777 1394.79,587.696 1267.29,708.417 1374.44,616.786 1301.38,678.576 1265.03,707.391 1282.17,691.038 1337.74,620.666 1314.05,652.67 1289.6,665.474 1346.39,615.769 1351.51,637.136 1377.95,581.875 1324.03,628.079 1375.83,628.891 1250.51,721.746 1150.25,790.61 1153.28,778.758 1196.05,720.666 1278.24,690.049 1332.64,629.419 1308.94,663.245 1231.13,729.216 1263.49,709.414 1258.45,706.501 1158.28,787.03 1166.09,760.743 1159.57,781.943 1154.57,797.896 1042.58,888.63 1040.69,872.399 1026.67,887.16 1036.1,873.048 1158.6,738.776 1206.43,698.237 1285.5,665.32 1286.33,673.391 1360.75,612.707 1486.72,511.507 1338.22,665.947 1376.3,612.601 1318.73,659.857 1331.74,648.371 1248.55,694.976 1144.91,800.787 1168.83,767.945 1115.5,807.437 1119.59,817.164 1126.97,815.064 1039.41,881.897 1109.51,802.193 965.833,935.108 965.344,928.29 912.606,986.787 962.551,936.741 904.416,983.015 997.91,885.913 1046.76,856.491 1032.86,872.729 1051.88,855.221 1045.79,860.934 1018.2,896.572 1003.31,894.035 998.288,901.977 991.338,913.904 1059.95,863.715 1058.48,850.616 1086.07,848.139 1040.68,886.95 1113.36,796.112 1245.43,708.138 1256.9,703.423 1184.18,771.356 1055.43,881.74 1060.21,862.975 1157.76,755.182 1154.1,763.582 1267.66,667.116 1296.86,660.258 1328.53,640.225 1203.48,751.768 1273.3,688.025 1191.86,754.145 1347.87,642.354 1428.82,572.085 1412.22,584.011 1560.13,489.976 1653.55,439.806 1582.05,510.906 1478.67,575.555 1475.75,574.208 1528.6,511.232 1456.46,587.833 1536.1,516.526 1545.14,495.76 1580.51,468.772 1547.92,512.566 1436.88,599.275 1521.34,512.189 1463.46,570.207 1526.6,518.769 1421.64,606.923 1396.51,615.261 1358.92,632.803 1302.96,670.413 1161.43,790.74 1244.74,700.326 1157.71,781.83 1147.13,796.2 1275.12,676.433 1327.61,647.804 1341.67,655.553 1221.91,735.781 1110.19,826.313 1180.09,755.913 1211.96,734.596 1274.37,679.629 1285.01,694.42 1227.8,738.146 1235.74,734.164 1322.01,656.312 1316.77,655.839 1323.22,661.471 1291,695.127 1214.02,747.473 1230.07,725.825 1215.26,737.727 1141.02,795.308 1111.43,801.912 1105.81,813.954 1194.74,738.039 1164.19,761.812 1293.21,685.138 1241.25,734.364 1265.44,705.054 1202.98,739.675 1082.4,854.312 1061.97,852.828 1061.19,861.919 1035.09,881.42 1029.41,870.431 1047.31,847.123 1118.52,783.853 1138.63,770.222 1058.33,853.656 1050.29,861.886 1117.87,798.175 1243.26,672.052 1152.45,775.17 1089.75,838.651 1058,854.422 1096.32,812.51 1129.64,772.779 1093.82,819.174 976.99,924.325 1035.95,863.698 1106.4,822.121 1024.51,898.028 949.573,959.029 1036.04,852.374 999.133,888.933 1000.41,901.098 975.112,925.24 966.187,921.025 983.006,910.527 1034.39,846.238 1065.5,828.221 1114.09,790.048 1040.98,868.953 914.08,967.078 940.539,945.767 967.549,920.077 1011.21,884.979 1061.62,835.192 1190.44,723.367 1152.14,777.267 1129.34,790.767 1185,742.358 1168.99,754.54 1283.73,659.231 1275.33,684.726 1310.68,648.651 1302.16,669.222 1182.91,774.469 1181.41,759.766 1223.11,717.027 1150.58,797.53 1215.09,742.889 1226.67,753.232 1227.73,713.331 1173.94,756.106 1374.45,607.004 1254.73,723.331 1232,747.111 1153.28,800.413 1142.56,797.175 1092.04,839.643 1149.26,769.768 1163.55,746.705 1242.25,703.175 1317.47,638.288 1335.39,636.207 1296.61,683.859 1193.73,782.146 1079.13,873.826 1044.46,890.472 1056.14,862.086 988.598,929.027 924.488,982.464 991.721,901.448 988.894,901.893 1088.32,803.502 1080.04,818.727 1119.21,793.089 1085.01,838.437 1136.75,775 1147.01,769.613 1160.77,762.836 1199.25,736.734 1238.1,706.285 1170.2,768.372 1192.22,765.221 1265.57,695.646 1143.94,788.055 1139.34,791.511 1158.58,762.499 1134.51,795.285 1180.32,747.2 1286.25,684.94 1282.2,697.026 1357.72,630.056 1283.02,712.482 1243.14,745.445 1233.39,734.216 1147.84,814.743 1262.12,687.19 1370.33,612.8 1339.43,650.431 1387.38,597.039 1366.83,616.806 1384.65,609.337 1475.24,527.886 1426.07,588.151 1340.11,671.037 1278.26,704.462 1319.6,668.689 1227.8,741.151 1186.03,776.533 1151.17,802.369 1155.09,780.4 1262.54,694.175 1217.14,746.734 1231.02,717.469 1261.33,689.36 1144.51,801.198 1075.67,851.618 1170.6,748.302 1161.82,756.266 1115.35,818.036 1183.41,747.647 1364.01,607.19 1357.91,632.297 1398.84,601.891 1215.4,773.585 1124.25,828.52 1107.63,831.282 1069.46,862.849 1076.61,845.397 1084.07,842.007 1053.98,860.309 980.683,929.643 966.51,926.904 1007.16,884.962 1060.75,832.235 1103.22,803.627 1139.58,765.287 1134.55,777.89 1112.82,790.098 1189.53,732.118 1220.69,714.918 1198.26,745.456 1170.64,763.848 1183.74,775.063 1106.31,835.268 1085.3,833.182 1128.88,788.834 1099.66,823.114 1140.44,782.725 1121.07,785.992 1192.28,727.827 1244.62,690.011 1277.24,682.436 1321.22,662.849 1316.13,665.212 1329.13,665.414 1429.01,592.828 1380.7,623.948 1394.8,602.024 1246.46,709.196 1318.79,675.998 1275.01,690.368 1334.82,639.556 1411.09,595.203 1300.89,665.919 1365.47,608.795 1445.15,582.659 1354.09,661.569 1260.58,722.242 1310.71,658.807 1362.7,632.607 1424.39,584.709 1448.66,557.899 1441.33,585.828 1419.95,599.758 1579.52,475.743 1564.77,506.143 1384.88,640.236 1295,695.13 1304.45,671.49 1339.53,646.149 1301.38,679.706 1267.89,708.453 1353.5,629.692 1257.09,723.646 1243.88,732.225 1286.19,680.037 1363.95,603.161 1528.55,498.432 1638.39,420.658 1631.28,472.217 1581.87,504.723 1518.77,549.858 1549.85,537.859 1463.89,588.14 1549.04,505.47 1497.91,551.88 1414.24,631.243 1361.88,644.535 1309.56,693.28 1372.79,615.774 1473.27,540.437 1317.84,683.7 1322.41,674.704 1316.56,662.228 1332.01,650.67 1255.61,722.606 1178.02,789.147 1124.57,818.155 1055.07,875.68 1100.83,813.735 1167.63,754.422 1197.22,744.259 1252.83,707.205 1264.31,701.427 1251.97,704.298 1225.28,713.793 1257.72,699.098 1247.15,691.279 1174.12,727.314 1071.63,841.025 1153.14,798.978 1203.26,747.729 1250.2,741.153 1287.11,696.013 1307.39,658.032 1382.18,608.393 1291.89,680.983 1366.61,637.853 1373.61,624.979 1479.55,537.958 1463.84,552.438 1347.09,629.096 1298.19,676.807 1300.09,673.644 1352.93,633.413 1507.72,563.573 1422.97,608.897 1420.49,605.445 1477.48,553.119 1314.34,662.861 1308.74,672.21 1318.23,665.796 1286.1,695.397 1234.64,721.009 1184.06,763.624 1197.05,735.743 1181.23,744.198 1282.01,665.501 1224.34,727.283 1152.19,787.902 1161.88,758.763 1086.55,843.092 1200.2,732.541 1269.17,681.122 1217.74,713.182 1356.8,613.457 1301.77,676.958 1271.57,705.183 1354.82,643.692 1354.89,638.812 1306.7,683.886 1305.33,689.069 1387.01,606.895 1399.69,599.292 1433.22,599.536 1465.24,573.631 1385.28,616.271 1230.04,744.174 1211.38,745.154 1115.28,823.34 1065.48,861.884 1044.52,853.866 1052.23,844.255 1039.45,869.517 1013.32,890.547 955.592,934.849 971.648,907.47 1029.03,856.033 985.72,906.143 1040.23,861.379 1121.65,778.281 1093.01,821.7 1091.61,829.871 1115.84,801.92 1257.03,688.612 1458.56,526.906 1488.32,539.716 1385.15,646.189 1363.97,658.595 1414.33,589.839 1350.14,641.333 1205.44,747.331 1260.03,696.468 1232.41,721.707 1314.5,670.847 1238.3,737.828 1146.88,804.341 1089.96,839.826 1081.28,836.171 1217.57,711.455 1189.47,748.08 1150.27,780.072 1040.57,887.076 1000.45,910.699 1091.56,796.436 1035.26,866.867 1003.03,904.036 1008.33,896.29 1009.95,890.297 1079.44,806.407 1088.6,826.243 1064.26,851.94 1104.07,809.436 1204.77,700.707 1301.89,647.568 1289.07,683.042 1261.79,706.981 1226.06,736.405 1173.36,781.538 1150.48,790.129 1043.65,881.866 1035.57,869.487 915.879,981.853 988.053,905.309 918.021,977.26 931.741,950.553 855.112,1021.7 908.108,973.707 896.488,996.7 925.219,957.382 1005.8,883.676 1126.29,792.431 1081.84,836.585 1099.46,819.442 1041.25,889.1 1082.74,833.328 1194.94,756.615 1234.7,713.333 1265.47,682.288 1221.35,729.917 1340.97,611.163 1374.76,621.542 1494.02,528.552 1446.05,587.459 1434.95,606.468 1371.08,649.605 1372.32,627.425 1452.05,546.441 1473.47,533.929 1435.67,576.484 1354.26,636.289 1466.89,548.822 1453.1,594.306 1389.43,625.969 1198.89,786.139 1199.84,765.379 1244.5,708.182 1200.7,734.36 1217.5,727.195 1210.02,748.44 1118.86,824.087 1141.67,796.458 1203.5,730.575 1228.61,721.454 1255.83,710.946 1267.62,708.579 1217.49,733.622 1268.73,686.909 1265.9,700.548 1283.82,687.619 1233.73,735.795 1300.96,678.206 1246.85,727.804 1115.1,823.567 1088.22,840.439 1049.52,870.358 1032.05,883.363 983.407,918.149 1046.22,843.065 1036.23,860.213 1045.08,844.216 1056.57,836.526 1121.81,783.947 1089.02,828.477 1128.67,800.132 1168.73,764.859 1232.16,701.048 1168.76,737.685 1189.05,741.388 1231.17,713.059 1115.23,825.529 1181.29,769.548 1146.6,786.54 1155.59,779.971 1062.67,867.63 948.343,969.512 883.431,1025.23 869.209,1021.65 902.066,983.31 967.569,910.491 1072.62,821.413 1043.6,858.268 1139.9,777.603 1192.02,745.23 1196.53,743.849 1031.18,884.375 1064.91,856.236 1034.86,881.337 1071.41,842.136 1089.13,823.835 1151.19,747.532 1252.66,680.736 1207.74,734.844 1242.5,693.532 1393.86,578.715 1362.04,627.761 1322.4,679.248 1302.5,683.923 1244.21,729.616 1243.66,709.098 1293,670.853 1323.08,647.573 1251.02,717.117 1398.53,588.402 1468.02,538.666 1351.71,656.809 1359.19,632.144 1244.3,735.749 1280.93,690.028 1255.36,721.991 1426.52,600.582 1460.78,571.866 1322.42,673.79 1329.63,656.795 1331.46,651.762 1305.6,683.409 1201.46,768.132 1153.2,795.502 1155.8,775.593 1196.48,747.319 1268.06,687.175 1196.47,752.39 1134.86,794.694 1066.53,842.458 1022.28,883.719 1066.37,849.397 1150.48,772.224 1228.68,707.519 1222.51,724.258 1239.98,717.949 1099.49,805.157 1194.42,735.397 1110.9,800.703 1056.32,848.796 983.259,914.286 847.702,1036.43 854.43,1016.45 839.124,1040.47 797.696,1074.58 842.35,1020.65 826.076,1040.53 860.684,1021.62 861.426,1010.03 803.352,1068.57 789.674,1085.27 780.162,1081.53 832.632,1023.52 827.487,1036.41 819.961,1048.36 863.605,1007.88 903.041,980.268 782.985,1102.89 796.334,1079.09 825.153,1047.75 827.76,1053.44 874.317,1003.38 920.968,964.006 974.726,915.394 1027.77,870.686 1192.48,726.819 1319.61,641.059 1254.46,713.142 1381.11,607.59 1422.38,579.109 1434.79,584.727 1310.24,677.235 1237.1,742.177 1318.97,667.719 1344.24,660.186 1283.39,687.905 1206.68,748.219 1248,706.991 1267.25,701.843 1369.54,612.177 1571.66,483.685 1690.17,415.168 1691.18,454.159 1514.71,589.523 1430.45,633.147 1443.71,603.527 1414.94,612.459 1363.13,653.08 1479.42,531.849 1293.56,696.944 1287.04,687.402 1267.42,701.178 1293.44,673.149 1362.56,611.971 1549.49,466.974 1458.35,569.883 1441.54,594.271 1409.64,626.879 1494.55,546.479 1506.15,536.245 1591.59,464.46 1667.18,445.317 1518.15,552.003 1410.46,636.288 1359.65,670.002 1473.51,550.559 1461.08,574.472 1469.26,562.807 1480.73,543.306 1483.34,552.02 1415.15,594.872 1481.96,539.753 1408.58,612.253 1417.19,604.216 1556.42,483.743 1569.31,495.912 1540.51,537.167 1652.69,446.935 1685.88,411.495 1535.17,555.224 1423.18,630.112 1428.56,601.699 1404.11,619.512 1408.67,608.616 1436.1,584.746 1361.22,628.877 1472.31,531.306 1515.24,504.238 1526.53,516.161 1514.56,537.718 1683.24,401.919 1719.39,393.04 1692.64,451.789 1647.55,465.739 1540.38,536.144 1553.44,519.04 1580.19,488.198 1494.13,570.03 1419.47,625.903 1435.33,600.02 1472.8,560.206 1394.4,622.123 1292.36,706.438 1242.95,733.516 1201.51,756.278 1154.68,795.914 1125.99,810.086 1096.5,832.489 1047.2,871.103 1020.55,899.58 1009.48,886.449 1066.81,827.656 1074.99,826.52 1066.09,837.829 1035.34,866.949 1069,835.478 1046.78,863.877 1041.82,867.72 1213.77,719.287 1330.04,630.502 1487.9,543.375 1583.63,479.07 1445.96,591.074 1470.6,560.216 1361.79,651.143 1258.27,719.619 1284.98,688.724 1266.3,689.417 1313.87,651.614 1296.85,688.574 1348.6,640.862 1287.89,683.298 1283.26,698.335 1318.05,674.387 1175.55,786.089 1179.72,761.074 1132.62,804.907 1116.65,814.067 1112.02,822.169 965.232,943.492 922.134,979.785 992.932,890.093 1009.78,882.864 1092.15,796.551 1153.95,753.879 1208.11,716.616 1221.12,711.469 1161.72,779.122 1210.32,718.172 1184.78,750.378 1065.7,871.45 1092.8,847.504 1045.65,884.176 1088.48,825.22 1094.96,822.242 1126.02,787.237 1116.42,811.17 1233.13,715.47 1224.46,733.698 1264.95,692.105 1073.45,845.452 1122.27,791.94 1114.28,813.532 1111.48,813.195 1135.45,784.755 1213.55,713.39 1208.31,729.086 1122.46,815.188 1070.81,857.812 995.146,922.588 947.292,965.286 949.465,947.888 949.506,940.854 860.037,1037.61 824.778,1068.21 862.251,1013.08 942.724,919.307 976.756,896.393 1021.45,850.277 977.195,911.23 1028.05,851.922 1038.33,857.825 1047.64,861.883 1091.48,812.756 1091.05,809.507 1075.6,845.202 1086.44,832.029 1113.76,809.678 1076.66,852.219 1084.49,826.207 1110.07,804.697 1142.8,772.409 1072.87,847.346 1159.36,798.609 1164.75,762.999 1274.52,710.09 1274.05,695.206 1360.8,625.066 1244.65,705.02 1281.48,679.74 1450.31,552.096 1489.94,531.199 1562.68,481.582 1593.64,500.125 1629.66,469.682 1559.75,537.886 1581.01,512.042 1503.73,556.739 1597.56,468.464 1428.55,612.613 1490.59,547.751 1475.63,553.665 1460.52,577.676 1485.36,552.621 1472.75,571.318 1294.31,711.272 1301.82,682.46 1304.98,675.334 1234.89,730.908 1218.72,733.998 1152.63,789.554 1200.72,733.477 1069.25,852.436 1163.9,757.812 1179.71,759.223 1140.55,802.941 1004.18,916.717 1019.13,889.054 1004.29,900.833 1071.37,827.266 1058.5,849.722 1063.8,847.95 1067.5,841.92 1106.32,816.558 1059.98,858.836 1091.1,820.354 1054.16,856.396 1163.02,767.678 1109.44,814.893 1066.67,862.146 1055.81,865.03 1082.36,824.252 1075.18,832.675 1054.1,844.118 1118.37,773.923 1142.66,778.811 1176.93,763.071 1178.34,763.084 1166.35,768.538 1213.67,717.12 1421.34,567.036 1367.49,633.677 1259.39,726.761 1179.8,791.077 1194.27,766.614 1227.19,725.951 1218.98,731.442 1232.27,716.587 1217.55,744.518 1232.13,733.537 1149.74,791.014 1171.49,766.706 1104.93,829.33 1173.37,751.587 1167.31,771.348 1163.49,774.629 1107.34,827.519 1101.46,828.208 1061.03,865.989 1030.29,889.468 1041.02,865.231 1060.72,840.567 1016.39,889.702 1052.35,855.747 1070.81,828.876 1058.37,850.288 988.354,925.865 1016.97,868.336 990.788,901.525 1035.09,871.665 1105.09,802.957 974.475,935.298 1057.68,847.672 1032.8,867.112 1104.87,793.895 1077.06,810.502 1100,810.595 1021.61,893.16 1035.16,877.41 1021.95,897.62 1021.81,865.231 998.664,880.808 1032,851.971 1052.49,831.824 1156.45,749.317 1063.01,835.366 1170.96,752.853 1089.22,835.18 1035.73,876.453 1019.49,884.33 1077.09,833.076 1085.18,820.159 1065.11,836.954 1195.89,724.944 1129.11,805.636 1065.37,858.03 1007.59,894.524 970.883,921.001 953.484,944.492 981.631,914.796 1051.36,857.109 1086.45,822.548 1169.57,785.752 1174.12,767.365 1198.44,740.466 1211.84,730.807 1109.37,822.273 1064.45,875.335 1104.88,841.976 1046.49,889.656 1097.37,843.211 1156.31,799.382 1056.5,875.191 1127.98,804.68 1240.26,728.092 1232.51,720.017 1245.87,704.918 1171.04,768.502 1266.7,690.125 1265.8,704.068 1386.93,626.513 1430.44,590.822 1374.39,635.399 1333.79,668.221 1335.03,656.393 1280.13,698.447 1276.78,697.978 1273.9,706.198 1331.39,661.647 1242.28,741.119 1175.39,770.249 1272.9,682.24 1191.31,764.735 1299.48,677.003 1220.4,731.392 1219.53,720.322 1320.11,647.45 1203.31,767.447 1103.79,835.045 1040.96,890.626 992.852,929.072 1012.36,892.77 1047.95,851.037 1004.96,891.511 950.769,941.936 962.964,923.382 981.559,901.739 935.019,951.326 876.697,1004.56 886.359,989.15 934.469,944.832 962.819,918.117 946.818,930.397 947.625,930.195 975.836,898.385 968.921,912.281 985.593,897.114 999.081,880.195 985.986,904.533 1066.72,828.752 1049.41,874.145 1109.37,811.837 1221.21,737.085 1170.7,775.828 1238.92,701.646 1317.44,654.774 1243.44,729.874 1176.91,779.989 1186.88,762.74 1251.48,700.437 1188.33,768.258 1233.03,726.689 1248,711.029 1220.54,739.199 1331.3,641.044 1278.47,692.696 1252.03,708.846 1201.61,754.663 1254.32,677.292 1333.71,633.306 1334.63,645.855 1312.15,677.637 1338.48,656.486 1288.14,675.485 1261.08,690.094 1174.65,745.739 1182.25,745.818 1223.74,721.738 1199.19,755.272 1180.74,761.317 1092.89,852.963 1118.43,804.456 1102.59,823.335 924.579,982.123 938.049,955.1 935.064,948.272 983.157,894.186 984.814,902.792 1011.91,877.226 1083.58,820.146 1026.06,883.262 1109.31,793.697 1105.18,810.183 1135.71,784.63 1149.99,773.604 1206.56,737.549 1172.8,777.165 1095.45,845.683 1076.92,844.515 1049.48,868.238 1104.89,807.025 1080.33,831.673 1031.63,886.389 1030.33,869.073 1081.47,824.053 1059.51,828.097 1214.17,699.805 1287.74,665.511 1341.98,642.252 1292.49,688.11 1294.26,681.816 1340.41,652.094 1356.09,651.714 1393.01,601.8 1403.84,612.722 1442.62,584.135 1378.09,623.52 1463.56,554.721 1378.24,623.494 1392.4,589.705 1284.44,666.6 1405.2,590.356 1352.86,639.55 1404.21,598.745 1367.23,626.184 1448.49,560.177 1314.54,674.218 1260.72,700.813 1142.8,788.668 1193.75,734.355 1290.52,645.109 1430.41,565.859 1420.59,596.249 1426.13,595.085 1446.68,586.43 1512.56,520.722 1665.86,405.366 1588.99,508.94 1628.44,463.006 1563.27,516.809 1521.19,547.708 1444.37,604.514 1327.02,689.329 1396.72,599.202 1329.46,654.372 1413.94,581.812 1508.99,520.836 1613.59,444.427 1492.32,555.863 1406.26,618.987 1389.29,623.083 1496.26,538.256 1520.71,516.898 1505.54,557.484 1423.27,600.234 1432.55,588.729 1462.57,571.857 1435.73,591.9 1364.38,653.798 1425.25,592.147 1504.35,530.84 1479.43,564.865 1332.01,668.048 1251.08,730.289 1210.75,749.932 1244.76,715.71 1235.33,721.511 1277.06,685.081 1298.78,677.219 1111.93,843.062 1066.4,866.944 1013.06,904.064 1037.13,870.381 1004.65,899.867 890.461,1001.53 904.327,981.277 883.536,1006.8 804.583,1089.26 800.915,1072.17 855.333,1009.55 887.3,978.53 895.945,974.875 876.056,995.409 900.087,968.307 903.254,978.33 883.653,993.542 811.391,1056.48 880.154,974.302 902.782,966.359 911.67,963.352 893.965,975.21 970.522,905.418 1020.7,866.225 969.447,935.799 885.528,1010.75 856.883,1025.56 880.295,994.719 906.117,972.504 906.811,961.104 888.385,987.246 847.781,1029.03 851.627,1013.03 824.3,1038.88 890.549,972.614 880.647,988.31 856.009,1026.53 903.475,981.153 1024.35,849.993 1076.58,824.585 1078.3,837.202 971.544,930.721 912.745,985.693 1040.45,839.598 1103.83,792.622 1043.17,870.854 1211.8,713.007 1143.47,791.943 1064.01,846.896 1041.24,868.667 1051.53,851.326 1130.64,765.887 1150.44,750.802 1132.9,773.432 1044.46,873.733 1033.51,869.03 1162.87,764.319 1096.55,826.811 1154.41,755.188 1284.59,672.351 1315.82,652.168 1270.8,685.384 1272.91,683.679 1214.49,727.352 1249.55,691.225 1258.16,712.124 1300.47,667.91 1351.68,639.306 1390.32,600.699 1324.81,663.137 1434.71,563.583 1361.38,655.916 1308.72,689.115 1252.23,724.084 1224.42,740.771 1308.48,645.114 1246.32,719.901 1125.39,809.902 1082.38,833.204 942.974,960.659 876.385,1020.72 902.874,986.704 946.769,932.703 897.31,991.91 889.435,990.066 944.998,938.461 1067.92,826.684 1053.16,846.909 1077.59,823.972 988.766,902.666 985.617,908.263 963.059,947.563 1008.54,904.602 1067.06,832.257 1095.03,818.195 1085.66,818.404 1172.35,758.226 1209.9,743.889 1195.68,750.087 1172.47,760.284 1162.06,754.716 1252.27,699.823 1232.2,705.356 1204.84,743.974 1323.93,643.766 1364.37,626.725 1448.09,597.072 1443.28,597.437 1327.58,688.654 1242.63,736.295 1220.12,747.16 1325.48,645.516 1245.45,703.295 1192.69,753.092 1174.92,760.261 1123.56,805.844 1151.07,774.877 1144.41,772.169 1204.95,722.649 1262.45,682.092 1453.68,542.741 1530.76,505.956 1552.38,523.789 1436.95,612.438 1379.22,638.905 1390.28,626.049 1330.83,672.437 1331.33,661.143 1226.08,739.159 1211.1,749.633 1312.33,665.541 1380.65,607.084 1376.6,626.274 1296.55,681.861 1197.31,753.393 1292.93,661.083 1204.78,748.953 1265.6,699.189 1189.91,772.37 1225.04,734.987 1225.99,752.012 1177.89,779.612 1160.63,773.091 1146.73,789.738 1284.07,680.255 1195.79,761.284 1068.65,874.703 1095.04,829.259 1142.85,779.934 1165.54,769.78 1201.95,739.994 1214.49,732.657 1228.24,723.634 1240.73,697.925 1160.07,778.843 1259.85,692.67 1355.24,630.929 1324.73,661.399 1216.21,759.598 1240.49,732.413 1258.33,717.896 1315.65,665.995 1271.08,698.156 1268.77,674.765 1264.49,691.549 1204.81,740.98 1170.11,739.602 1106.43,823.853 1116.68,820.27 971.447,946.048 865.967,1042.2 863.362,1022.68 835.381,1042.9 901.242,966.645 948.071,926.102 837.675,1057.29 814.403,1064.16 767.138,1116.5 786.59,1080.89 745.675,1125.86 731.965,1142.83 761.275,1105.81 725.143,1155.3 716.071,1158.19 742.916,1124.7 812.902,1045.29 804.485,1065.07 827.89,1036.85 840.414,1026.03 799.216,1077.19 809.504,1065.64 926.904,941.507 898.508,977.342 981.432,892.609 939.085,947.346 1018.32,866.974 1038.59,860.726 1026.71,875.127 1009.61,890.349 891.341,999.475 839.642,1033.75 883.477,983.458 908.696,968.809 947.403,928.918 973.171,916.561 1046.7,853.576 1141.81,773.773 1161.25,755.44 1263.43,680.382 1265.12,684.292 1263.39,717.403 1222.51,737.407 1136.36,789.488 1153.18,791.348 1200.13,743.87 1362.46,628.949 1324.36,668.183 1244.7,737.8 1220.61,749.143 1263.65,698.301 1245.08,716.731 1231.05,730.199 1116.52,827.196 1137.37,797.835 1145.71,784.628 1141.55,792.181 1085.99,848.498 1051.95,867.738 1053.98,856.94 1026.91,881.731 1035.47,864.627 1097.47,796.046 1186.27,732.691 1178.19,763.606 1183.73,758.586 1126.17,807.383 1100.75,832.51 956.994,961.777 898.958,1004.31 934.094,950.198 892.92,994.749 946.352,936.274 1008.1,874.861 1128.39,771.326 1088.57,828.806 1014.1,905.377 987.07,923.255 945.862,945.352 902.299,989.29 956.464,933.823 947.009,940.799 1115.79,776.436 1069.53,838.13 1070.24,847.261 1175.07,751.922 1220.29,719.542 1210.62,727.221 1279.53,685.537 1314.35,647.889 1374.99,606.683 1302.76,677.838 1341.76,654.813 1265.65,711.887 1284.87,688.969 1125.26,828.552 1068.72,870.865 1113.8,798.213 1227.67,694.394 1236.31,697.823 1197.96,746.214 1260.24,689.647 1333.71,638.098 1342.67,632.684 1282.93,704.217 1135.08,812.994 1032.84,896.736 936.516,977.338 922.931,970.927 951.723,929.698 879.327,1007.13 950.902,928.389 1020.05,868.71 955.583,939.183 997.674,884.629 1091.92,809.407 1176.55,736.019 1238.54,714.607 1250.01,694.716 1235.3,722.943 1230.35,727.188 1183.24,768.403 1208.75,740.02 1199.53,750.741 1155.63,794.62 1197.84,740.604 1183.23,756.214 1169.71,763.763 1167.87,767.866 1145.45,779.396 1179.13,754.755 1117.62,807.208 1210.45,715.512 1056.41,851.724 1050.16,853.829 994.304,902.008 967.291,921.519 1091.17,814.819 1118.64,794.711 1132.63,796.502 1165.94,755.71 1240.06,695.808 1238.28,705.902 1309.09,671.704 1251.28,710.354 1202.81,750.484 1169.9,769.312 1245.93,699.616 1274.35,682.58 1398.85,607.782 1441.68,570.239 1443.22,570.139 1373.1,609.147 1300.42,665.243 1391.62,617.52 1249.82,719.64 1247.56,705.368 1251.12,717.269 1303.39,677.573 1276.91,675.399 1346.19,651.766 1299.96,676.626 1275.46,704.824 1190.7,758.753 1211.6,736.262 1197.72,759.862 1136.02,808.667 1120.82,809.191 1123.3,799.166 1031.92,874.853 1004.99,901.668 940.616,962.556 826.89,1071.18 836.847,1041.66 850.437,1022.19 916.652,944.809 906.452,964.451 948.612,925.935 883.084,1005.37 804.646,1083.35 805.184,1069.97 778.576,1095.64 730.204,1149.67 714.012,1162.42 697.059,1178.01 705.351,1163.49 817.899,1030.85 889.914,961.084 931.919,936.935 966.474,920.986 942.123,944.254 941.688,944.508 919.314,965.547 990.662,898.232 1022.18,872.917 1068.94,839.296 1118.47,800.555 1231.13,693.879 1189.56,759.518 1153.36,800.753 1123.56,827.717 1139.72,806.491 986.121,939.267 1004.12,904.762 982.125,928.247 1111.66,790.761 1063.35,850.659 1108.25,811.518 1121.76,792.776 1182.3,755.814 1089.55,839.547 1110.92,782.618 1117.24,794.552 1053.32,867.751 1052.12,865.687 981.84,924.009 959.371,934.045 981.673,910.3 999.431,891.136 961.683,924.443 1079.8,818.282 1114.34,796.189 1197.42,727.329 1293.97,672.318 1352.82,619.78 1346.75,635.299 1310.42,682.681 1264.41,703.581 1295.83,667.532 1290.31,691.661 1236.51,737.261 1139.29,802.67 1104.44,820.235 1200.34,724.238 1155.77,777.611 1107.25,817.359 1088.16,824.421 1120.26,818.003 1072.84,840.524 1122.34,794.771 995.62,901.302 1041.17,888.243 1057.49,857.018 1077.78,834.389 1064.34,856.548 1158.84,799.516 1038.44,882.835 1044.42,883.101 1147.67,782.768 991.387,926.762 950.228,964.382 901.409,1002.12 876.538,1029.36 907.014,984.749 1007.1,873.847 903.303,976.153 1013.94,878.428 1043.94,851.664 1060.8,851.46 1033.9,881.417 1087.98,834.065 1025.78,888.253 1123.94,775.812 1030.7,875.444 1050.75,849.271 1042.84,861.363 1130.26,812.554 1269.03,679.533 1301.88,686.353 1364.26,626.079 1568.96,462.673 1747.77,374.419 1620.99,495.42 1615.42,469.194 1670.2,438.367 1715.22,410.115 1719.39,410.969 1645.86,480.5 1577.65,516.852 1660.29,436.207 1653.3,449.438 1623.47,483.52 1743.13,377.109 1541.55,545.597 1424.91,636.132 1314.38,710.963 1226.87,769.642 1229.39,749.109 1177.98,783.061 1109.56,838.917 1065.14,875.188 1013.7,912.966 969.47,940.978 984.908,910.819 972.92,920.047 926.967,966.175 965.283,918.396 940.725,939.276 941.39,940.946 893.707,994.497 955.729,924.572 982.692,892.574 1072.24,816.805 1105.11,797.676 1139.79,784.406 1142.33,796.648 1245.27,691.101 1194.64,747.348 1291.8,686.231 1163.48,779.445 1231.02,713.782 1284.99,667.932 1312.8,671.263 1251.18,711.858 1326.07,639.082 1360.75,618.558 1386.79,617.863 1302.79,678.167 1283.01,679.572 1434.44,579.886 1404.84,608.847 1402.29,632.233 1494.78,537.741 1464.97,546.604 1472.1,576.741 1457.29,590.502 1372.72,666.859 1374.56,637.281 1402.86,601.753 1375.28,634.665 1482.91,559.93 1471.42,580.404 1392.31,641.257 1338.05,672.581 1398.37,613.48 1359.25,642.844 1334.21,663.93 1218.81,743.284 1234.05,717.496 1281.66,675.265 1296.55,680.442 1156.27,799.489 1125.28,815.185 1127.54,794.128 1117.25,791.106 1173.6,745.299 1028.81,883.336 1067.39,850.15 944.228,940.431 931.496,958.795 907.619,978.844 931.636,953.526 1000.54,890.531 1029.29,871.386 1067.36,823.24 1034.56,863.299 1044.69,879.15 1091.45,810.442 1045.07,853 1038.39,863.276 1009.77,888.167 1056.4,846.284 1058.81,827.997 1104.45,787.913 1203.55,720.299 1111.51,807.72 1163.98,759.55 1094.61,835.459 1137.67,783.321 1134.04,812.928 1080.94,875.905 969.468,960.152 995.472,910.755 986.517,917.214 981.286,917.135 970.429,930.86 946.555,945.67 946.929,940.937 914.507,976.108 856.085,1026.83 866.927,1007.66 874.525,1000.41 873.283,1014.87 815.956,1075.13 903.991,970.647 998.404,881.814 1044.16,837.507 964.771,925.525 1089.69,806.348 1120.02,788.171 1060.97,845.92 944.765,974.665 957.47,952.567 932.541,945.326 934.708,942.086 993.911,899.138 956.88,937.84 1033.35,856.483 1012.02,890.268 1000.17,899.144 954.42,936.994 916.799,968.546 1026.78,870.24 1124.3,777.87 1041.04,853.553 945.091,956.085 941.523,955.43 883.702,1001.12 968.49,916.054 1010.93,892.456 1007.82,891.076 1032.72,864.61 1019.57,879.317 1013.2,877.485 905.706,959.919 913.316,965.967 876.747,1004.4 811.986,1078.86 833.682,1049.99 896.445,986.667 944.02,941.383 980.258,909.395 924.941,967.007 931.777,955.689 935.058,960.418 935.299,947.089 955.541,936.817 1004.9,887.192 1071.58,819.194 1009.87,869.439 1015.56,870.917 1065.67,827.926 1115.33,795.04 1123.07,786.274 1154.86,754.886 1160.67,758.01 1180.9,749.974 1284.87,685.792 1187.55,761.819 1160.84,794.972 1224.9,751.174 1135.88,822.895 1198.46,751.041 1184.76,753.504 1158.87,772.822 1189.35,763.712 1198.99,750.793 1167.94,783.779 1162.58,773.732 1081.26,846.951 1016.45,898.125 966.739,926.43 1042.24,840.896 1098.04,801.468 1129.82,775.256 1105.03,816.4 1142.12,793.969 1228.33,719.369 1116.93,812.706 1122.98,798.815 1107.65,813.023 1099.85,824.678 1176.59,774.032 1181.01,767.669 1270.93,705.441 1261.99,693.087 1299.6,660.125 1308.16,661.537 1228.22,701.894 1237.77,697.686 1215.86,719.768 1180.8,756.15 1155.74,784.37 1135.78,798.717 1100.54,824.233 1120.34,816.787 1162.52,779.883 1220.64,738.086 1124.1,820.959 1281.41,711.764 1276.23,692.824 1179.25,757.04 1067.48,844.455 1119.58,808.825 1193.1,737.288 1121.5,798.43 1014.46,851.791 1067.52,808.59 1109.08,802.249 1151.18,803.464 1087.09,842.576 1106.39,820.91 1046.97,881.869 1097.03,818.849 1049.31,849.507 1037.34,879.851 1072.97,850.994 1072.71,834.353 1125.7,780.203 1146.28,757.502 920.066,917.692 931.844,922.802 968.762,906.078 915.435,962.855 902.537,972.437 988.194,907.201 964.419,926.015 981.609,908.177 1055.48,831.293 1204.03,711.223 1304.87,637.904 1386.87,582.211 1440.67,559.632 1381.78,616.253 1358.02,636.634 1403.21,601.093 1345.6,646.459 1281.09,692.942 1161.6,795.01 1241.23,707.239 1178.62,769.88 1131.11,791.52 1206.36,729.819 1239.53,708.266 1193.16,742.984 1084.19,850.823 1139.95,810.454 1155.14,805.173 1181.44,748.943 1174.97,753.21 1292.63,648.224 1353.15,623.647 1338.44,649.057 1320.94,667.471 1235.06,727.869 1229.93,722.24 1248.87,697.279 1294.06,665.544 1327.36,635.597 1247.4,718.637 1171.65,792.488 1107.66,837.375 1167.07,749.278 1323.17,624.76 1386.15,587.488 1342.99,630.729 1363.52,633.363 1418.88,600.981 1389.9,631.596 1398.34,610.295 1596.13,461.308 1461.67,602.905 1447.48,582.174 1307.62,695.682 1266.44,719.848 1185.52,764.645 1245.5,701.046 1225.61,741.779 1323.47,649.472 1414.61,587.583 1418.96,587.044 1363.37,638.846 1440.38,568.9 1538.48,515.176 1476.25,566.012 1425.89,615.386 1446.35,596.795 1410.29,641.414 1328.4,688.409 1401.21,606.064 1364.64,636.336 1473.91,538.424 1647.36,441.726 1567.53,516.577 1509.62,567.701 1389.35,651.697 1347.4,666.033 1267.47,724.47 1204.11,758.907 1179.3,767.765 1192.55,744.09 1211.74,732.841 1229.91,719.623 1138.5,799.901 1061.62,865.938 1046.08,863.721 1076.26,837.343 1016.25,890.865 1003.28,899.942 1012.42,891.667 958.765,940.632 997.296,896.556 1027.44,865.762 1010.86,886.584 1022.1,892.553 1045.49,869.061 1136.9,797.527 1151.78,777.943 1096.42,832.515 1047.78,866.977 1029.88,865.842 1043.78,869.514 1096.8,810.31 1160.41,775.368 1129.32,809.777 1085.5,847.976 1083.11,837.236 1079.84,837.593 1165.08,751.032 1176.71,745.325 1236.76,700.611 1293.59,681.534 1165.06,801.438 1163.08,789.354 1108.58,823.883 1023.31,879.954 1116.05,786.343 1112.72,800.531 1101.73,805.283 1058.55,839.898 1179.86,731.574 1116.85,800.409 1360.6,587.435 1327.75,649.645 1369.73,621.167 1299.41,684.352 1409.39,599.949 1504.27,548.398 1640.19,439.346 1629.31,478.403 1491.98,582.334 1392.77,645.836 1279.07,720.606 1317.68,669.637 1320.94,668.772 1331.21,681.506 1464.47,528.639 1480.82,536.715 1435.44,581.008 1456.33,562.383 1370.32,628.653 1242.42,725.995 1165.98,774.327 1095.7,835.199 985.746,936.03 976.347,926.662 964.435,932.649 1014.75,877.007 1036.81,859.291 1163.21,761.287 1150.03,787.823 1229.42,716.256 1324.83,641.518 1361.94,648.268 1404.73,598.81 1326.95,668.283 1417.83,599.197 1361.77,611.778 1320.35,644.76 1461.33,513.451 1612.55,441.465 1476.32,573.295 1492.23,552.844 1469.75,579.317 1554.69,491.372 1551.32,505.255 1603.78,475.286 1480.99,584.885 1417.23,619.786 1429.22,584.191 1281.34,713.654 1325.15,678.273 1303.42,691.342 1226.62,746.795 1184.72,775.205 1131.41,820.129 1138.51,795.404 1137.34,789.438 1108.99,820.652 1041.23,874.497 1039.35,864.727 980.012,921.099 975.026,914.615 1036.55,858.04 1076.38,829.161 995.704,900.782 963.851,923.944 975.881,922.087 1030.97,865.89 982.056,904.187 985.124,910.027 1033.95,872.726 1149.44,790.923 1116.08,813.35 1144.39,808.002 1183.2,751.402 1321.23,646.483 1301.64,677.82 1323.11,635.342 1303.5,663.451 1297.99,658.88 1261.24,696.091 1194.41,742.72 1032.68,864.029 1029.61,876.368 1160.62,756.646 1085.08,831.263 1279.14,675.317 1374.51,600.625 1463.76,540.049 1472.62,559.43 1379.41,634.445 1482.75,537.211 1437.32,584.742 1482.69,547.489 1366.25,651.125 1355.71,649.578 1402.41,606.599 1417.76,603.192 1258,728.059 1347.01,633.593 1325.69,656.678 1349.08,638.273 1199.97,751.027 1151.59,796.074 1120.95,804.424 1088.59,832.241 1073.26,845.053 1043.65,866.595 993.419,921.414 1051.14,853.267 1040.69,838.653 958.233,921.307 1014.27,869.917 1000.96,883.593 938.937,953.844 886.601,993.099 1090.11,791.442 1128.83,768.049 1170.59,738.407 1239.9,688.463 1215.31,719.583 1151.77,793.6 1153.42,779.714 1097.76,815.499 1014.6,893.355 982.716,918.131 891.8,986.72 909.749,963.886 945.707,922.524 999.413,894.75 1002.51,893.706 969.054,923.171 964.971,919.322 1044.23,834.181 1066.31,819.323 1119.59,774.891 1187.12,726.515 1180.37,751.48 1128.65,789.519 1170.6,798.999 1096.11,847.839 1025.27,894.972 986.943,917.854 957.233,940.045 946.147,948.582 1036.42,858.544 1128.06,779.3 1126.44,780.531 1052.89,865.143 1130.37,781.209 1199.38,722.839 1180.41,740.89 1312.43,626.864 1305.6,646.037 1388.41,582.89 1452.78,545.473 1405.21,598.495 1224.59,741.325 1290.99,683.731 1263.96,700.14 1363.63,620.461 1452.79,579.763 1409.94,611.767 1465.45,590.637 1416.67,596.066 1410.63,603.031 1350.65,642.606 1323.54,669.884 1250.49,726.489 1243.95,722.458 1162.85,782.634 1134.18,801.41 1140.3,791.723 1194.99,731.788 1181.6,739.343 1257.35,692.121 1162.77,790.658 1189.94,747.189 1200.83,741.337 1248.72,693.463 1271.99,690.854 1267.92,698.66 1224.12,738.035 1226.68,728.557 1177.63,770.287 1216.92,730.933 1227.51,727.404 1229.08,730.996 1335.84,622.828 1260,705.291 1280.65,679.686 1250.39,726.37 1383.38,619.158 1251,722.993 1246.46,724.094 1257.06,722.884 1150.94,790.527 1072.56,863.486 1032.33,884.187 995.201,917.15 992.225,909.959 1046.36,841.616 1033.05,861.353 1014.59,886.336 1168.6,742.654 1239.66,696.802 1188.89,750.981 1168.49,774.724 1181.01,757.654 1097.09,833.242 1099.24,823.938 1245.58,678.721 1220.49,707.46 1235.53,719.84 1219.51,725.158 1221.86,731.871 1105.35,834.173 1165.04,777.225 1163.73,803.017 1143.45,798.346 1087.97,842.591 1065.75,865.778 1223.37,720.091 1135.54,808.006 1112.4,819.23 1112.16,815.793 1150.43,777.017 1176.34,758.19 1235.43,708.113 1333.85,629.73 1282.9,696.943 1269.73,700.35 1195.55,758.943 1139.93,805.68 1221.25,732.314 1167.38,757.509 1216.43,725.291 1128.21,806.684 1228.76,727.106 1385.14,602.303 1230.63,726.155 1145.17,806.4 1235.59,730.008 1301.12,670.581 1164.46,752.476 1104.78,815.862 1071.98,850.715 1017.57,906.794 981.728,914.235 908.291,987.972 932.437,950.507 995.985,891.633 938.832,960.776 878.166,1015.28 843.522,1037.49 869.878,1010.21 884.29,989.085 901.162,985.72 892.694,988.396 857.008,1014.88 847.497,1031.42 782.229,1095.68 778.336,1084.49 768.554,1094.54 782.496,1072.55 828.983,1036.94 865.942,993.25 891.14,974.49 872.73,1001 901.655,967.291 881.787,983.695 896.82,972.701 975.403,899.419 978.573,909.597 863.633,1020.97 887.768,1005.15 887.987,1009.93 862.984,1032.47 900.435,989.052 913.476,965.644 1029.66,854.473 1082.58,816.804 1047.82,851.556 1137.39,777.194 1168.49,749.587 1188.01,742.065 1184.23,762.561 1059.58,865.637 1143.86,790.312 1148.22,758.515 1156.67,756.02 1006.78,880.957 1112.55,800.253 1112.03,800.181 1103.11,799.224 1239.35,683.656 1200.53,745.953 1208.59,718.058 1128.14,792.788 1262.29,694.666 1283.67,686.504 1312.71,667.615 1439.56,562.892 1486.66,544.413 1594.01,484.744 1518.9,537.793 1676.89,409.811 1524.17,528.852 1543.81,514.124 1362.35,646.095 1337.34,653.383 1355.31,634.408 1264.89,720.528 1377.96,592.728 1295.61,681.973 1251.74,711.703 1313.73,658.956 1295.01,687.934 1271.19,681.568 1272.3,677.384 1303.86,672.202 1362.3,621.897 1306.22,695.641 1232.54,744.184 1151.23,805.571 1164.52,784.325 1147.5,787.878 1098.19,830.49 1119.17,804.542 987.761,926.094 959.592,942.372 962.999,933.218 1029.59,875.034 1000.77,901.347 958.281,944.22 951.732,932.374 952.866,942.303 888.593,1008.51 926.356,948.838 904.375,974.163 953.164,930.435 909.424,978.958 877.639,1011.45 928.941,957.21 959.365,928.981 950.448,936.659 989.694,900.402 980.499,909.805 881.854,1007 986.249,906.739 999.141,908.506 996.706,902.998 956.042,942.898 953.713,928.937 1024.72,881.663 998.859,905.399 1036.65,854.702 994.992,889.339 1048.61,844.859 1192,722.046 1190.93,744.35 1110.02,801.457 1150.79,757.864 1202.69,732.806 1287.8,667.4 1195.28,756.701 1058.18,862.203 1133.5,781.563 1123.71,785.318 1152.71,768.912 1250.17,681.957 1163.74,770.466 1133.62,802.155 1217.81,735.391 1219.17,733.661 1266.66,689.358 1271.33,698.467 1242.25,719.414 1169.89,764.189 1145.93,779.662 1120.03,799.659 1127.63,790.287 1098.43,822.826 953.276,960.351 1025.02,871.763 1098.38,804.248 1166.28,761.629 1087.19,841.423 1100.91,825.861 1089.16,833.823 1180.97,742.639 1174.06,762.614 1040.63,879.999 1018.2,887.586 1120.08,787.289 1115.01,794.779 1169.93,753.221 1247.38,683.277 1127.65,786.947 1078.84,837.031 1166.93,768.263 1066.83,835.749 1087.97,848.719 1128.12,823.883 1033.03,887.383 992.965,916.152 1012.34,894.022 1134.75,785.887 1149.36,795.178 1152.55,777.456 1250.64,701.921 1249.2,699.931 1328.11,639.497 1377.02,614.239 1395.72,608.728 1321.68,678.832 1260.84,719.29 1304.64,663.68 1169.63,780.726 1248.79,698.897 1215.74,735.355 1212.89,732.015 1117.72,830.18 1109.45,829.594 1093.3,819.219 1087.12,828.48 1100.1,808.737 1122.63,805.322 1082.58,844.172 1046.48,874.799 1157.45,774.243 1122.23,804.374 1122.13,817.089 1036.32,882.977 1010.46,906.157 998.686,900.038 1131.71,768.693 1226.73,702.057 1290.8,661.387 1284.68,684.567 1230.62,733.723 1265.89,714.237 1115.57,822.176 1006.56,924.364 992.903,915.027 1015.81,883.212 1089.41,818.298 1058.84,848.128 1114.57,792.207 1134.82,790.607 1238.84,693.612 1230.37,722.126 1109.47,831.461 1116.26,815.541 1219.18,711.833 1331.46,618.662 1392.74,614.006 1234.77,745.791 1147.22,817.751 1152.9,787.083 1185.36,766.119 1136.19,811.883 1106.23,820.371 1099.28,828.668 1156.76,757.659 1182.15,752.491 1110.73,821.126 1066.4,862.486 1073.66,854.874 998.772,916.825 892.708,1012.97 866.444,1020.48 804.646,1083.03 737.802,1151.09 720.025,1160.31 715.29,1156.4 782.956,1069.23 781.784,1074.01 742.455,1129.91 808.215,1037.07 822.37,1041.29 793.481,1086.32 810.146,1062.1 878.02,986.834 876.005,989.902 922.339,941.225 903.225,972.987 916.083,968.838 925.813,949.25 981.657,894.378 950.862,932.138 941.525,934.922 1017.78,861.136 990.026,898.443 986.605,900.738 1009.41,877.222 946.806,935.971 915.071,969.962 949.575,945.657 967.885,915.15 1012,881.689 960.832,930.493 1074.01,822.597 1213.68,706.504 1269.86,679.986 1348.11,634.054 1401.86,609.315 1373.9,637.818 1246.84,719.049 1170.12,799.525 1172.95,789.975 1098.04,852.28 1038.2,895.32 1026.2,883.164 1031.33,884.495 966.682,941.864 964.363,925.792 961.251,917.468 972.597,909.007 962.713,931.579 918.588,967.833 929.613,959.209 1001.51,901.4 1030.28,870.611 1052.95,860.811 1030.06,873.414 1079.68,839.595 948.68,946.775 979.234,911.039 957.833,924.475 944.553,935.301 1041.57,845.682 1058.24,848.734 1080.63,838.438 1020.22,892.367 1207.6,705.638 1239.04,703.856 1267.91,678.57 1325.47,640.805 1284.9,684.775 1202.28,745.493 1434,551.962 1584.29,457.515 1567.3,502.73 1587.31,493.346 1583.13,496.344 1625.42,470.301 1508.82,571.198 1407.21,646.594 1349.91,675.223 1391.34,615.826 1365.3,629.021 1510.64,511.806 1466.99,563.086 1625.59,448.256 1506.92,538.735 1463.2,572.448 1410.96,613.353 1273.27,720.509 1172.6,796.336 1071.24,869.853 1072.68,846.849 1010.21,899.373 951.148,955.486 931.627,964.13 972.345,907.323 957.968,919.443 986.964,892.712 982.416,914.71 991.34,899.946 1084.93,825.788 1013.44,894.632 1039.31,867.485 1076.28,822.83 1096.85,820.429 1078.09,835.213 1073.39,841.911 990.828,901.897 988.827,910.624 1033.24,870.053 1078.49,816.979 1029,877.165 954.034,945.939 975.898,908.703 1068.7,837.009 1096.99,804.373 1113.95,808.316 1115.02,813.451 1094.41,814.412 1074.73,827.649 1054.97,837.859 1130.52,795.873 1049.9,862.506 1008.3,905.956 930.102,968.726 954.472,928.086 968.27,914.852 1021.53,861.604 1070,832.267 1089.55,824.508 1071.27,835.954 975.937,920.936 921.267,969.16 1020.54,877.202 1009.07,892.14 970.444,929.831 1052.94,866.271 1086.72,821.558 1098.57,822.946 1059.97,869.706 1009.11,909.462 949.937,955.451 986.568,904.724 971.458,941.703 1022.25,880.376 969.868,939.777 1009.57,890.978 971.252,933.864 "/>
<path clip-path="url(#clip380)" d="M186.863 198.898 L550.897 198.898 L550.897 95.2176 L186.863 95.2176  Z" fill="#ffffff" fill-rule="evenodd" fill-opacity="1"/>
<polyline clip-path="url(#clip380)" style="stroke:#000000; stroke-linecap:round; stroke-linejoin:round; stroke-width:4; stroke-opacity:1; fill:none" points="186.863,198.898 550.897,198.898 550.897,95.2176 186.863,95.2176 186.863,198.898 "/>
<polyline clip-path="url(#clip380)" style="stroke:#009af9; stroke-linecap:round; stroke-linejoin:round; stroke-width:4; stroke-opacity:1; fill:none" points="211.758,147.058 361.13,147.058 "/>
<path clip-path="url(#clip380)" d="M396.651 128.366 Q393.549 133.69 392.044 138.898 Q390.54 144.106 390.54 149.453 Q390.54 154.801 392.044 160.055 Q393.572 165.287 396.651 170.588 L392.947 170.588 Q389.475 165.148 387.739 159.893 Q386.026 154.639 386.026 149.453 Q386.026 144.291 387.739 139.06 Q389.452 133.828 392.947 128.366 L396.651 128.366 Z" fill="#000000" fill-rule="nonzero" fill-opacity="1" /><path clip-path="url(#clip380)" d="M403.063 138.412 L423.294 138.412 L423.294 142.301 L407.276 160.935 L423.294 160.935 L423.294 164.338 L402.484 164.338 L402.484 160.449 L418.502 141.815 L403.063 141.815 L403.063 138.412 Z" fill="#000000" fill-rule="nonzero" fill-opacity="1" /><path clip-path="url(#clip380)" d="M430.887 158.458 L435.771 158.458 L435.771 162.439 L431.975 169.847 L428.988 169.847 L430.887 162.439 L430.887 158.458 Z" fill="#000000" fill-rule="nonzero" fill-opacity="1" /><path clip-path="url(#clip380)" d="M455.655 166.745 Q453.849 171.375 452.136 172.787 Q450.423 174.199 447.553 174.199 L444.15 174.199 L444.15 170.634 L446.65 170.634 Q448.41 170.634 449.382 169.8 Q450.354 168.967 451.535 165.865 L452.298 163.921 L441.812 138.412 L446.326 138.412 L454.428 158.689 L462.53 138.412 L467.044 138.412 L455.655 166.745 Z" fill="#000000" fill-rule="nonzero" fill-opacity="1" /><path clip-path="url(#clip380)" d="M474.011 158.458 L478.896 158.458 L478.896 162.439 L475.099 169.847 L472.113 169.847 L474.011 162.439 L474.011 158.458 Z" fill="#000000" fill-rule="nonzero" fill-opacity="1" /><path clip-path="url(#clip380)" d="M509.544 138.412 L500.169 151.027 L510.03 164.338 L505.007 164.338 L497.46 154.152 L489.914 164.338 L484.891 164.338 L494.96 150.773 L485.747 138.412 L490.77 138.412 L497.645 147.648 L504.52 138.412 L509.544 138.412 Z" fill="#000000" fill-rule="nonzero" fill-opacity="1" /><path clip-path="url(#clip380)" d="M515.377 128.366 L519.081 128.366 Q522.553 133.828 524.266 139.06 Q526.002 144.291 526.002 149.453 Q526.002 154.639 524.266 159.893 Q522.553 165.148 519.081 170.588 L515.377 170.588 Q518.456 165.287 519.96 160.055 Q521.488 154.801 521.488 149.453 Q521.488 144.106 519.96 138.898 Q518.456 133.69 515.377 128.366 Z" fill="#000000" fill-rule="nonzero" fill-opacity="1" /></svg>
