<?xml version="1.0" encoding="utf-8"?>
<svg xmlns="http://www.w3.org/2000/svg" xmlns:xlink="http://www.w3.org/1999/xlink" width="600" height="400" viewBox="0 0 2400 1600">
<defs>
  <clipPath id="clip910">
    <rect x="0" y="0" width="2400" height="1600"/>
  </clipPath>
</defs>
<path clip-path="url(#clip910)" d="M0 1600 L2400 1600 L2400 0 L0 0  Z" fill="#ffffff" fill-rule="evenodd" fill-opacity="1"/>
<defs>
  <clipPath id="clip911">
    <rect x="192" y="47" width="2161" height="1377"/>
  </clipPath>
</defs>
<path clip-path="url(#clip910)" d="M192.941 1423.18 L2352.76 1423.18 L2352.76 47.2441 L192.941 47.2441  Z" fill="#ffffff" fill-rule="evenodd" fill-opacity="1"/>
<polyline clip-path="url(#clip911)" style="stroke:#000000; stroke-linecap:round; stroke-linejoin:round; stroke-width:2; stroke-opacity:0.1; fill:none" points="192.941,1423.18 192.941,47.2441 "/>
<polyline clip-path="url(#clip911)" style="stroke:#000000; stroke-linecap:round; stroke-linejoin:round; stroke-width:2; stroke-opacity:0.1; fill:none" points="624.904,1423.18 624.904,47.2441 "/>
<polyline clip-path="url(#clip911)" style="stroke:#000000; stroke-linecap:round; stroke-linejoin:round; stroke-width:2; stroke-opacity:0.1; fill:none" points="1056.87,1423.18 1056.87,47.2441 "/>
<polyline clip-path="url(#clip911)" style="stroke:#000000; stroke-linecap:round; stroke-linejoin:round; stroke-width:2; stroke-opacity:0.1; fill:none" points="1488.83,1423.18 1488.83,47.2441 "/>
<polyline clip-path="url(#clip911)" style="stroke:#000000; stroke-linecap:round; stroke-linejoin:round; stroke-width:2; stroke-opacity:0.1; fill:none" points="1920.79,1423.18 1920.79,47.2441 "/>
<polyline clip-path="url(#clip911)" style="stroke:#000000; stroke-linecap:round; stroke-linejoin:round; stroke-width:2; stroke-opacity:0.1; fill:none" points="2352.76,1423.18 2352.76,47.2441 "/>
<polyline clip-path="url(#clip911)" style="stroke:#000000; stroke-linecap:round; stroke-linejoin:round; stroke-width:2; stroke-opacity:0.1; fill:none" points="192.941,1292.84 2352.76,1292.84 "/>
<polyline clip-path="url(#clip911)" style="stroke:#000000; stroke-linecap:round; stroke-linejoin:round; stroke-width:2; stroke-opacity:0.1; fill:none" points="192.941,894.306 2352.76,894.306 "/>
<polyline clip-path="url(#clip911)" style="stroke:#000000; stroke-linecap:round; stroke-linejoin:round; stroke-width:2; stroke-opacity:0.1; fill:none" points="192.941,495.768 2352.76,495.768 "/>
<polyline clip-path="url(#clip911)" style="stroke:#000000; stroke-linecap:round; stroke-linejoin:round; stroke-width:2; stroke-opacity:0.1; fill:none" points="192.941,97.2298 2352.76,97.2298 "/>
<polyline clip-path="url(#clip910)" style="stroke:#000000; stroke-linecap:round; stroke-linejoin:round; stroke-width:4; stroke-opacity:1; fill:none" points="192.941,1423.18 2352.76,1423.18 "/>
<polyline clip-path="url(#clip910)" style="stroke:#000000; stroke-linecap:round; stroke-linejoin:round; stroke-width:4; stroke-opacity:1; fill:none" points="192.941,1423.18 192.941,1404.28 "/>
<polyline clip-path="url(#clip910)" style="stroke:#000000; stroke-linecap:round; stroke-linejoin:round; stroke-width:4; stroke-opacity:1; fill:none" points="624.904,1423.18 624.904,1404.28 "/>
<polyline clip-path="url(#clip910)" style="stroke:#000000; stroke-linecap:round; stroke-linejoin:round; stroke-width:4; stroke-opacity:1; fill:none" points="1056.87,1423.18 1056.87,1404.28 "/>
<polyline clip-path="url(#clip910)" style="stroke:#000000; stroke-linecap:round; stroke-linejoin:round; stroke-width:4; stroke-opacity:1; fill:none" points="1488.83,1423.18 1488.83,1404.28 "/>
<polyline clip-path="url(#clip910)" style="stroke:#000000; stroke-linecap:round; stroke-linejoin:round; stroke-width:4; stroke-opacity:1; fill:none" points="1920.79,1423.18 1920.79,1404.28 "/>
<polyline clip-path="url(#clip910)" style="stroke:#000000; stroke-linecap:round; stroke-linejoin:round; stroke-width:4; stroke-opacity:1; fill:none" points="2352.76,1423.18 2352.76,1404.28 "/>
<path clip-path="url(#clip910)" d="M192.941 1454.1 Q189.33 1454.1 187.501 1457.66 Q185.695 1461.2 185.695 1468.33 Q185.695 1475.44 187.501 1479.01 Q189.33 1482.55 192.941 1482.55 Q196.575 1482.55 198.38 1479.01 Q200.209 1475.44 200.209 1468.33 Q200.209 1461.2 198.38 1457.66 Q196.575 1454.1 192.941 1454.1 M192.941 1450.39 Q198.751 1450.39 201.806 1455 Q204.885 1459.58 204.885 1468.33 Q204.885 1477.06 201.806 1481.67 Q198.751 1486.25 192.941 1486.25 Q187.13 1486.25 184.052 1481.67 Q180.996 1477.06 180.996 1468.33 Q180.996 1459.58 184.052 1455 Q187.13 1450.39 192.941 1450.39 Z" fill="#000000" fill-rule="nonzero" fill-opacity="1" /><path clip-path="url(#clip910)" d="M619.556 1481.64 L635.876 1481.64 L635.876 1485.58 L613.932 1485.58 L613.932 1481.64 Q616.594 1478.89 621.177 1474.26 Q625.783 1469.61 626.964 1468.27 Q629.209 1465.74 630.089 1464.01 Q630.992 1462.25 630.992 1460.56 Q630.992 1457.8 629.047 1456.07 Q627.126 1454.33 624.024 1454.33 Q621.825 1454.33 619.371 1455.09 Q616.941 1455.86 614.163 1457.41 L614.163 1452.69 Q616.987 1451.55 619.441 1450.97 Q621.894 1450.39 623.931 1450.39 Q629.302 1450.39 632.496 1453.08 Q635.691 1455.77 635.691 1460.26 Q635.691 1462.39 634.88 1464.31 Q634.093 1466.2 631.987 1468.8 Q631.408 1469.47 628.306 1472.69 Q625.205 1475.88 619.556 1481.64 Z" fill="#000000" fill-rule="nonzero" fill-opacity="1" /><path clip-path="url(#clip910)" d="M1059.88 1455.09 L1048.07 1473.54 L1059.88 1473.54 L1059.88 1455.09 M1058.65 1451.02 L1064.53 1451.02 L1064.53 1473.54 L1069.46 1473.54 L1069.46 1477.43 L1064.53 1477.43 L1064.53 1485.58 L1059.88 1485.58 L1059.88 1477.43 L1044.27 1477.43 L1044.27 1472.92 L1058.65 1451.02 Z" fill="#000000" fill-rule="nonzero" fill-opacity="1" /><path clip-path="url(#clip910)" d="M1489.23 1466.44 Q1486.09 1466.44 1484.23 1468.59 Q1482.41 1470.74 1482.41 1474.49 Q1482.41 1478.22 1484.23 1480.39 Q1486.09 1482.55 1489.23 1482.55 Q1492.38 1482.55 1494.21 1480.39 Q1496.06 1478.22 1496.06 1474.49 Q1496.06 1470.74 1494.21 1468.59 Q1492.38 1466.44 1489.23 1466.44 M1498.52 1451.78 L1498.52 1456.04 Q1496.76 1455.21 1494.95 1454.77 Q1493.17 1454.33 1491.41 1454.33 Q1486.78 1454.33 1484.33 1457.45 Q1481.9 1460.58 1481.55 1466.9 Q1482.92 1464.89 1484.98 1463.82 Q1487.04 1462.73 1489.51 1462.73 Q1494.72 1462.73 1497.73 1465.9 Q1500.76 1469.05 1500.76 1474.49 Q1500.76 1479.82 1497.61 1483.03 Q1494.47 1486.25 1489.23 1486.25 Q1483.24 1486.25 1480.07 1481.67 Q1476.9 1477.06 1476.9 1468.33 Q1476.9 1460.14 1480.79 1455.28 Q1484.67 1450.39 1491.23 1450.39 Q1492.98 1450.39 1494.77 1450.74 Q1496.57 1451.09 1498.52 1451.78 Z" fill="#000000" fill-rule="nonzero" fill-opacity="1" /><path clip-path="url(#clip910)" d="M1920.79 1469.17 Q1917.46 1469.17 1915.54 1470.95 Q1913.64 1472.73 1913.64 1475.86 Q1913.64 1478.98 1915.54 1480.77 Q1917.46 1482.55 1920.79 1482.55 Q1924.13 1482.55 1926.05 1480.77 Q1927.97 1478.96 1927.97 1475.86 Q1927.97 1472.73 1926.05 1470.95 Q1924.15 1469.17 1920.79 1469.17 M1916.12 1467.18 Q1913.11 1466.44 1911.42 1464.38 Q1909.75 1462.32 1909.75 1459.35 Q1909.75 1455.21 1912.69 1452.8 Q1915.65 1450.39 1920.79 1450.39 Q1925.95 1450.39 1928.89 1452.8 Q1931.83 1455.21 1931.83 1459.35 Q1931.83 1462.32 1930.14 1464.38 Q1928.48 1466.44 1925.49 1467.18 Q1928.87 1467.96 1930.75 1470.26 Q1932.64 1472.55 1932.64 1475.86 Q1932.64 1480.88 1929.57 1483.57 Q1926.51 1486.25 1920.79 1486.25 Q1915.08 1486.25 1912 1483.57 Q1908.94 1480.88 1908.94 1475.86 Q1908.94 1472.55 1910.84 1470.26 Q1912.74 1467.96 1916.12 1467.18 M1914.4 1459.79 Q1914.4 1462.48 1916.07 1463.98 Q1917.76 1465.49 1920.79 1465.49 Q1923.8 1465.49 1925.49 1463.98 Q1927.2 1462.48 1927.2 1459.79 Q1927.2 1457.11 1925.49 1455.6 Q1923.8 1454.1 1920.79 1454.1 Q1917.76 1454.1 1916.07 1455.6 Q1914.4 1457.11 1914.4 1459.79 Z" fill="#000000" fill-rule="nonzero" fill-opacity="1" /><path clip-path="url(#clip910)" d="M2327.44 1481.64 L2335.08 1481.64 L2335.08 1455.28 L2326.77 1456.95 L2326.77 1452.69 L2335.04 1451.02 L2339.71 1451.02 L2339.71 1481.64 L2347.35 1481.64 L2347.35 1485.58 L2327.44 1485.58 L2327.44 1481.64 Z" fill="#000000" fill-rule="nonzero" fill-opacity="1" /><path clip-path="url(#clip910)" d="M2366.8 1454.1 Q2363.18 1454.1 2361.36 1457.66 Q2359.55 1461.2 2359.55 1468.33 Q2359.55 1475.44 2361.36 1479.01 Q2363.18 1482.55 2366.8 1482.55 Q2370.43 1482.55 2372.23 1479.01 Q2374.06 1475.44 2374.06 1468.33 Q2374.06 1461.2 2372.23 1457.66 Q2370.43 1454.1 2366.8 1454.1 M2366.8 1450.39 Q2372.61 1450.39 2375.66 1455 Q2378.74 1459.58 2378.74 1468.33 Q2378.74 1477.06 2375.66 1481.67 Q2372.61 1486.25 2366.8 1486.25 Q2360.99 1486.25 2357.91 1481.67 Q2354.85 1477.06 2354.85 1468.33 Q2354.85 1459.58 2357.91 1455 Q2360.99 1450.39 2366.8 1450.39 Z" fill="#000000" fill-rule="nonzero" fill-opacity="1" /><path clip-path="url(#clip910)" d="M1271.91 1522.27 L1271.91 1532.4 L1283.97 1532.4 L1283.97 1536.95 L1271.91 1536.95 L1271.91 1556.3 Q1271.91 1560.66 1273.09 1561.9 Q1274.3 1563.14 1277.96 1563.14 L1283.97 1563.14 L1283.97 1568.04 L1277.96 1568.04 Q1271.18 1568.04 1268.6 1565.53 Q1266.02 1562.98 1266.02 1556.3 L1266.02 1536.95 L1261.72 1536.95 L1261.72 1532.4 L1266.02 1532.4 L1266.02 1522.27 L1271.91 1522.27 Z" fill="#000000" fill-rule="nonzero" fill-opacity="1" /><polyline clip-path="url(#clip910)" style="stroke:#000000; stroke-linecap:round; stroke-linejoin:round; stroke-width:4; stroke-opacity:1; fill:none" points="192.941,1423.18 192.941,47.2441 "/>
<polyline clip-path="url(#clip910)" style="stroke:#000000; stroke-linecap:round; stroke-linejoin:round; stroke-width:4; stroke-opacity:1; fill:none" points="192.941,1292.84 211.838,1292.84 "/>
<polyline clip-path="url(#clip910)" style="stroke:#000000; stroke-linecap:round; stroke-linejoin:round; stroke-width:4; stroke-opacity:1; fill:none" points="192.941,894.306 211.838,894.306 "/>
<polyline clip-path="url(#clip910)" style="stroke:#000000; stroke-linecap:round; stroke-linejoin:round; stroke-width:4; stroke-opacity:1; fill:none" points="192.941,495.768 211.838,495.768 "/>
<polyline clip-path="url(#clip910)" style="stroke:#000000; stroke-linecap:round; stroke-linejoin:round; stroke-width:4; stroke-opacity:1; fill:none" points="192.941,97.2298 211.838,97.2298 "/>
<path clip-path="url(#clip910)" d="M50.9921 1293.29 L80.6679 1293.29 L80.6679 1297.23 L50.9921 1297.23 L50.9921 1293.29 Z" fill="#000000" fill-rule="nonzero" fill-opacity="1" /><path clip-path="url(#clip910)" d="M100.76 1278.64 Q97.1493 1278.64 95.3206 1282.21 Q93.515 1285.75 93.515 1292.88 Q93.515 1299.98 95.3206 1303.55 Q97.1493 1307.09 100.76 1307.09 Q104.395 1307.09 106.2 1303.55 Q108.029 1299.98 108.029 1292.88 Q108.029 1285.75 106.2 1282.21 Q104.395 1278.64 100.76 1278.64 M100.76 1274.94 Q106.571 1274.94 109.626 1279.54 Q112.705 1284.13 112.705 1292.88 Q112.705 1301.6 109.626 1306.21 Q106.571 1310.79 100.76 1310.79 Q94.9502 1310.79 91.8715 1306.21 Q88.816 1301.6 88.816 1292.88 Q88.816 1284.13 91.8715 1279.54 Q94.9502 1274.94 100.76 1274.94 Z" fill="#000000" fill-rule="nonzero" fill-opacity="1" /><path clip-path="url(#clip910)" d="M120.922 1304.24 L125.807 1304.24 L125.807 1310.12 L120.922 1310.12 L120.922 1304.24 Z" fill="#000000" fill-rule="nonzero" fill-opacity="1" /><path clip-path="url(#clip910)" d="M136.038 1275.56 L154.394 1275.56 L154.394 1279.5 L140.32 1279.5 L140.32 1287.97 Q141.339 1287.62 142.357 1287.46 Q143.376 1287.28 144.394 1287.28 Q150.181 1287.28 153.561 1290.45 Q156.941 1293.62 156.941 1299.04 Q156.941 1304.61 153.468 1307.72 Q149.996 1310.79 143.677 1310.79 Q141.501 1310.79 139.232 1310.42 Q136.987 1310.05 134.58 1309.31 L134.58 1304.61 Q136.663 1305.75 138.885 1306.3 Q141.107 1306.86 143.584 1306.86 Q147.589 1306.86 149.927 1304.75 Q152.265 1302.65 152.265 1299.04 Q152.265 1295.42 149.927 1293.32 Q147.589 1291.21 143.584 1291.21 Q141.709 1291.21 139.834 1291.63 Q137.982 1292.04 136.038 1292.92 L136.038 1275.56 Z" fill="#000000" fill-rule="nonzero" fill-opacity="1" /><path clip-path="url(#clip910)" d="M99.765 880.104 Q96.1539 880.104 94.3252 883.669 Q92.5197 887.211 92.5197 894.34 Q92.5197 901.447 94.3252 905.011 Q96.1539 908.553 99.765 908.553 Q103.399 908.553 105.205 905.011 Q107.033 901.447 107.033 894.34 Q107.033 887.211 105.205 883.669 Q103.399 880.104 99.765 880.104 M99.765 876.401 Q105.575 876.401 108.631 881.007 Q111.709 885.59 111.709 894.34 Q111.709 903.067 108.631 907.673 Q105.575 912.257 99.765 912.257 Q93.9549 912.257 90.8762 907.673 Q87.8206 903.067 87.8206 894.34 Q87.8206 885.59 90.8762 881.007 Q93.9549 876.401 99.765 876.401 Z" fill="#000000" fill-rule="nonzero" fill-opacity="1" /><path clip-path="url(#clip910)" d="M119.927 905.706 L124.811 905.706 L124.811 911.586 L119.927 911.586 L119.927 905.706 Z" fill="#000000" fill-rule="nonzero" fill-opacity="1" /><path clip-path="url(#clip910)" d="M144.996 880.104 Q141.385 880.104 139.556 883.669 Q137.751 887.211 137.751 894.34 Q137.751 901.447 139.556 905.011 Q141.385 908.553 144.996 908.553 Q148.63 908.553 150.436 905.011 Q152.265 901.447 152.265 894.34 Q152.265 887.211 150.436 883.669 Q148.63 880.104 144.996 880.104 M144.996 876.401 Q150.806 876.401 153.862 881.007 Q156.941 885.59 156.941 894.34 Q156.941 903.067 153.862 907.673 Q150.806 912.257 144.996 912.257 Q139.186 912.257 136.107 907.673 Q133.052 903.067 133.052 894.34 Q133.052 885.59 136.107 881.007 Q139.186 876.401 144.996 876.401 Z" fill="#000000" fill-rule="nonzero" fill-opacity="1" /><path clip-path="url(#clip910)" d="M100.76 481.566 Q97.1493 481.566 95.3206 485.131 Q93.515 488.673 93.515 495.802 Q93.515 502.909 95.3206 506.474 Q97.1493 510.015 100.76 510.015 Q104.395 510.015 106.2 506.474 Q108.029 502.909 108.029 495.802 Q108.029 488.673 106.2 485.131 Q104.395 481.566 100.76 481.566 M100.76 477.863 Q106.571 477.863 109.626 482.469 Q112.705 487.052 112.705 495.802 Q112.705 504.529 109.626 509.136 Q106.571 513.719 100.76 513.719 Q94.9502 513.719 91.8715 509.136 Q88.816 504.529 88.816 495.802 Q88.816 487.052 91.8715 482.469 Q94.9502 477.863 100.76 477.863 Z" fill="#000000" fill-rule="nonzero" fill-opacity="1" /><path clip-path="url(#clip910)" d="M120.922 507.168 L125.807 507.168 L125.807 513.048 L120.922 513.048 L120.922 507.168 Z" fill="#000000" fill-rule="nonzero" fill-opacity="1" /><path clip-path="url(#clip910)" d="M136.038 478.488 L154.394 478.488 L154.394 482.423 L140.32 482.423 L140.32 490.895 Q141.339 490.548 142.357 490.386 Q143.376 490.201 144.394 490.201 Q150.181 490.201 153.561 493.372 Q156.941 496.543 156.941 501.96 Q156.941 507.538 153.468 510.64 Q149.996 513.719 143.677 513.719 Q141.501 513.719 139.232 513.349 Q136.987 512.978 134.58 512.237 L134.58 507.538 Q136.663 508.673 138.885 509.228 Q141.107 509.784 143.584 509.784 Q147.589 509.784 149.927 507.677 Q152.265 505.571 152.265 501.96 Q152.265 498.349 149.927 496.242 Q147.589 494.136 143.584 494.136 Q141.709 494.136 139.834 494.552 Q137.982 494.969 136.038 495.849 L136.038 478.488 Z" fill="#000000" fill-rule="nonzero" fill-opacity="1" /><path clip-path="url(#clip910)" d="M90.5752 110.575 L98.2141 110.575 L98.2141 84.209 L89.904 85.8756 L89.904 81.6164 L98.1678 79.9498 L102.844 79.9498 L102.844 110.575 L110.483 110.575 L110.483 114.51 L90.5752 114.51 L90.5752 110.575 Z" fill="#000000" fill-rule="nonzero" fill-opacity="1" /><path clip-path="url(#clip910)" d="M119.927 108.63 L124.811 108.63 L124.811 114.51 L119.927 114.51 L119.927 108.63 Z" fill="#000000" fill-rule="nonzero" fill-opacity="1" /><path clip-path="url(#clip910)" d="M144.996 83.0284 Q141.385 83.0284 139.556 86.5932 Q137.751 90.1349 137.751 97.2645 Q137.751 104.371 139.556 107.936 Q141.385 111.477 144.996 111.477 Q148.63 111.477 150.436 107.936 Q152.265 104.371 152.265 97.2645 Q152.265 90.1349 150.436 86.5932 Q148.63 83.0284 144.996 83.0284 M144.996 79.3248 Q150.806 79.3248 153.862 83.9312 Q156.941 88.5145 156.941 97.2645 Q156.941 105.991 153.862 110.598 Q150.806 115.181 144.996 115.181 Q139.186 115.181 136.107 110.598 Q133.052 105.991 133.052 97.2645 Q133.052 88.5145 136.107 83.9312 Q139.186 79.3248 144.996 79.3248 Z" fill="#000000" fill-rule="nonzero" fill-opacity="1" /><polyline clip-path="url(#clip911)" style="stroke:#009af9; stroke-linecap:round; stroke-linejoin:round; stroke-width:4; stroke-opacity:1; fill:none" points="192.941,894.306 195.103,900.124 197.265,905.866 199.427,911.531 201.589,917.121 203.751,922.637 205.912,928.08 208.074,933.451 210.236,938.75 212.398,943.98 214.56,949.14 216.722,954.231 218.884,959.255 221.046,964.213 223.208,969.105 225.37,973.932 227.532,978.694 229.694,983.394 231.856,988.032 234.018,992.608 236.18,997.123 238.342,1001.58 240.504,1005.97 242.666,1010.31 244.828,1014.59 246.99,1018.82 249.152,1022.98 251.314,1027.1 253.476,1031.16 255.638,1035.16 257.8,1039.11 259.962,1043.01 262.124,1046.86 264.286,1050.65 266.448,1054.4 268.61,1058.09 270.772,1061.74 272.934,1065.34 275.096,1068.89 277.258,1072.4 279.42,1075.85 281.582,1079.26 283.744,1082.63 285.906,1085.95 288.068,1089.23 290.23,1092.46 292.392,1095.66 294.554,1098.8 296.716,1101.91 298.878,1104.98 301.039,1108 303.201,1110.99 305.363,1113.93 307.525,1116.84 309.687,1119.71 311.849,1122.54 314.011,1125.33 316.173,1128.09 318.335,1130.81 320.497,1133.49 322.659,1136.14 324.821,1138.75 326.983,1141.33 329.145,1143.87 331.307,1146.38 333.469,1148.86 335.631,1151.3 337.793,1153.71 339.955,1156.09 342.117,1158.44 344.279,1160.76 346.441,1163.04 348.603,1165.3 350.765,1167.52 352.927,1169.72 355.089,1171.89 357.251,1174.03 359.413,1176.14 361.575,1178.22 363.737,1180.27 365.899,1182.3 368.061,1184.3 370.223,1186.27 372.385,1188.22 374.547,1190.14 376.709,1192.04 378.871,1193.91 381.033,1195.76 383.195,1197.58 385.357,1199.38 387.519,1201.15 389.681,1202.9 391.843,1204.63 394.005,1206.33 396.166,1208.01 398.328,1209.67 400.49,1211.31 402.652,1212.93 404.814,1214.52 406.976,1216.09 409.138,1217.06 411.3,1214.24 413.462,1207.81 415.624,1198.46 417.786,1186.85 419.948,1173.54 422.11,1159.04 424.272,1143.82 426.434,1128.24 428.596,1112.65 430.758,1097.29 432.92,1082.37 435.082,1068.01 437.244,1054.3 439.406,1041.22 441.568,1028.73 443.73,1016.71 445.892,1004.98 448.054,993.28 450.216,981.361 452.378,969.492 454.54,957.782 456.702,946.226 458.864,934.823 461.026,923.572 463.188,912.47 465.35,901.515 467.512,890.706 469.674,880.039 471.836,869.514 473.998,859.129 476.16,848.881 478.322,838.769 480.484,828.791 482.646,818.945 484.808,809.23 486.97,799.644 489.132,790.185 491.293,780.851 493.455,771.641 495.617,762.553 497.779,753.586 499.941,744.738 502.103,736.007 504.265,727.392 506.427,718.891 508.589,710.502 510.751,702.225 512.913,694.058 515.075,685.999 517.237,678.047 519.399,670.2 521.561,662.457 523.723,654.817 525.885,647.278 528.047,639.839 530.209,632.499 532.371,625.256 534.533,618.109 536.695,611.056 538.857,604.098 541.019,597.231 543.181,590.456 545.343,583.77 547.505,577.173 549.667,570.664 551.829,564.24 553.991,557.902 556.153,551.648 558.315,545.477 560.477,539.388 562.639,533.379 564.801,527.451 566.963,521.6 569.125,515.828 571.287,510.131 573.449,504.511 575.611,498.965 577.773,493.492 579.935,488.092 582.097,482.763 584.259,477.506 586.42,472.318 588.582,467.198 590.744,462.147 592.906,457.162 595.068,452.244 597.23,447.391 599.392,442.602 601.554,437.876 603.716,433.214 605.878,428.613 608.04,424.073 610.202,419.593 612.364,415.173 614.526,410.811 616.688,406.507 618.85,402.26 621.012,398.07 623.174,393.935 625.336,390.014 627.498,389.055 629.66,391.564 631.822,396.938 633.984,404.622 636.146,414.108 638.308,424.941 640.47,436.711 642.632,449.059 644.794,461.676 646.956,474.3 649.118,486.72 651.28,498.772 653.442,510.342 655.604,521.366 657.766,531.827 659.928,541.759 662.09,551.243 664.252,560.412 666.414,569.444 668.576,578.57 670.738,587.901 672.9,597.132 675.062,606.24 677.224,615.227 679.386,624.095 681.547,632.845 683.709,641.48 685.871,650 688.033,658.407 690.195,666.702 692.357,674.888 694.519,682.965 696.681,690.935 698.843,698.8 701.005,706.56 703.167,714.218 705.329,721.774 707.491,729.23 709.653,736.587 711.815,743.846 713.977,751.009 716.139,758.077 718.301,765.052 720.463,771.934 722.625,778.724 724.787,785.424 726.949,792.036 729.111,798.56 731.273,804.997 733.435,811.349 735.597,817.616 737.759,823.801 739.921,829.903 742.083,835.925 744.245,841.867 746.407,847.73 748.569,853.515 750.731,859.223 752.893,864.856 755.055,870.415 757.217,875.899 759.379,881.311 761.541,886.651 763.703,891.921 765.865,897.12 768.027,902.251 770.189,907.314 772.351,912.309 774.513,917.239 776.674,922.103 778.836,926.902 780.998,931.638 783.16,936.311 785.322,940.923 787.484,945.473 789.646,949.962 791.808,954.392 793.97,958.764 796.132,963.077 798.294,967.333 800.456,971.533 802.618,975.677 804.78,979.766 806.942,983.801 809.104,987.783 811.266,991.711 813.428,995.588 815.59,999.413 817.752,1003.19 819.914,1006.91 822.076,1010.59 824.238,1014.21 826.4,1017.79 828.562,1021.32 830.724,1024.81 832.886,1028.24 835.048,1031.64 837.21,1034.98 839.372,1038.29 841.534,1041.07 843.696,1042.78 845.858,1043.56 848.02,1043.55 850.182,1042.87 852.344,1041.65 854.506,1039.98 856.668,1037.97 858.83,1035.71 860.992,1033.28 863.154,1030.75 865.316,1028.19 867.478,1025.64 869.64,1023.15 871.801,1020.76 873.963,1018.49 876.125,1016.36 878.287,1014.37 880.449,1012.52 882.611,1010.8 884.773,1009.19 886.935,1007.66 889.097,1006.17 891.259,1004.67 893.421,1003.11 895.583,1001.48 897.745,999.874 899.907,998.289 902.069,996.726 904.231,995.183 906.393,993.661 908.555,992.158 910.717,990.676 912.879,989.214 915.041,987.77 917.203,986.346 919.365,984.941 921.527,983.555 923.689,982.186 925.851,980.836 928.013,979.504 930.175,978.19 932.337,976.893 934.499,975.613 936.661,974.35 938.823,973.104 940.985,971.874 943.147,970.661 945.309,969.464 947.471,968.282 949.633,967.116 951.795,965.966 953.957,964.831 956.119,963.711 958.281,962.606 960.443,961.515 962.605,960.439 964.767,959.378 966.928,958.33 969.09,957.296 971.252,956.276 973.414,955.27 975.576,954.276 977.738,953.296 979.9,952.329 982.062,951.375 984.224,950.434 986.386,949.505 988.548,948.588 990.71,947.683 992.872,946.791 995.034,945.91 997.196,945.041 999.358,944.183 1001.52,943.337 1003.68,942.502 1005.84,941.678 1008.01,940.865 1010.17,940.063 1012.33,939.272 1014.49,938.491 1016.65,937.72 1018.82,936.959 1020.98,936.209 1023.14,935.468 1025.3,934.738 1027.46,934.017 1029.63,933.305 1031.79,932.603 1033.95,931.911 1036.11,931.227 1038.27,930.553 1040.44,929.887 1042.6,929.231 1044.76,928.583 1046.92,927.943 1049.08,927.312 1051.25,926.69 1053.41,926.076 1055.57,925.563 1057.73,925.442 1059.89,925.689 1062.06,926.256 1064.22,927.1 1066.38,928.178 1068.54,929.452 1070.7,930.885 1072.87,932.444 1075.03,934.097 1077.19,935.816 1079.35,937.577 1081.51,939.356 1083.68,941.134 1085.84,942.893 1088,944.619 1090.16,946.301 1092.32,947.928 1094.49,949.496 1096.65,950.999 1098.81,952.439 1100.97,953.815 1103.13,955.134 1105.3,956.403 1107.46,957.631 1109.62,958.831 1111.78,960.02 1113.94,961.214 1116.1,962.435 1118.27,963.657 1120.43,964.862 1122.59,966.052 1124.75,967.225 1126.91,968.383 1129.08,969.526 1131.24,970.654 1133.4,971.766 1135.56,972.864 1137.72,973.948 1139.89,975.017 1142.05,976.072 1144.21,977.112 1146.37,978.139 1148.53,979.153 1150.7,980.153 1152.86,981.14 1155.02,982.113 1157.18,983.074 1159.34,984.022 1161.51,984.958 1163.67,985.881 1165.83,986.792 1167.99,987.691 1170.15,988.578 1172.32,989.453 1174.48,990.316 1176.64,991.169 1178.8,992.009 1180.96,992.839 1183.13,993.658 1185.29,994.465 1187.45,995.262 1189.61,996.049 1191.77,996.825 1193.94,997.59 1196.1,998.346 1198.26,999.091 1200.42,999.827 1202.58,1000.55 1204.75,1001.27 1206.91,1001.98 1209.07,1002.67 1211.23,1003.36 1213.39,1004.04 1215.56,1004.71 1217.72,1005.37 1219.88,1006.02 1222.04,1006.67 1224.2,1007.3 1226.37,1007.93 1228.53,1008.55 1230.69,1009.16 1232.85,1009.76 1235.01,1010.35 1237.18,1010.94 1239.34,1011.52 1241.5,1012.09 1243.66,1012.65 1245.82,1013.21 1247.99,1013.76 1250.15,1014.3 1252.31,1014.83 1254.47,1015.36 1256.63,1015.88 1258.8,1016.39 1260.96,1016.9 1263.12,1017.64 1265.28,1018.69 1267.44,1020.01 1269.61,1021.55 1271.77,1023.28 1273.93,1025.16 1276.09,1027.16 1278.25,1029.25 1280.42,1031.41 1282.58,1033.6 1284.74,1035.81 1286.9,1038.02 1289.06,1040.21 1291.23,1042.37 1293.39,1044.48 1295.55,1046.55 1297.71,1048.56 1299.87,1050.5 1302.03,1052.39 1304.2,1054.22 1306.36,1056 1308.52,1057.74 1310.68,1059.44 1312.84,1061.13 1315.01,1062.81 1317.17,1064.49 1319.33,1066.16 1321.49,1067.81 1323.65,1069.44 1325.82,1071.04 1327.98,1072.62 1330.14,1074.18 1332.3,1075.73 1334.46,1077.25 1336.63,1078.75 1338.79,1080.23 1340.95,1081.69 1343.11,1083.13 1345.27,1084.55 1347.44,1085.96 1349.6,1087.34 1351.76,1088.71 1353.92,1090.06 1356.08,1091.39 1358.25,1092.7 1360.41,1094 1362.57,1095.28 1364.73,1096.54 1366.89,1097.78 1369.06,1099.01 1371.22,1100.22 1373.38,1101.42 1375.54,1102.6 1377.7,1103.76 1379.87,1104.91 1382.03,1106.05 1384.19,1107.16 1386.35,1108.27 1388.51,1109.36 1390.68,1110.43 1392.84,1111.49 1395,1112.54 1397.16,1113.57 1399.32,1114.59 1401.49,1115.59 1403.65,1116.59 1405.81,1117.57 1407.97,1118.53 1410.13,1119.48 1412.3,1120.42 1414.46,1121.35 1416.62,1122.27 1418.78,1123.17 1420.94,1124.06 1423.11,1124.94 1425.27,1125.81 1427.43,1126.67 1429.59,1127.51 1431.75,1128.35 1433.92,1129.17 1436.08,1129.98 1438.24,1130.78 1440.4,1131.57 1442.56,1132.35 1444.73,1133.12 1446.89,1133.88 1449.05,1134.63 1451.21,1135.37 1453.37,1136.1 1455.54,1136.82 1457.7,1137.53 1459.86,1138.23 1462.02,1138.93 1464.18,1139.61 1466.35,1140.28 1468.51,1140.84 1470.67,1141.17 1472.83,1141.37 1474.99,1141.53 1477.16,1141.73 1479.32,1142.04 1481.48,1142.51 1483.64,1143.2 1485.8,1144.14 1487.97,1145.35 1490.13,1146.85 1492.29,1148.64 1494.45,1150.73 1496.61,1153.09 1498.77,1155.7 1500.94,1158.51 1503.1,1161.49 1505.26,1164.57 1507.42,1167.68 1509.58,1170.75 1511.75,1173.68 1513.91,1176.47 1516.07,1179.23 1518.23,1181.94 1520.39,1184.63 1522.56,1187.27 1524.72,1189.88 1526.88,1192.46 1529.04,1195 1531.2,1197.51 1533.37,1199.99 1535.53,1202.43 1537.69,1204.84 1539.85,1207.22 1542.01,1209.57 1544.18,1211.88 1546.34,1214.17 1548.5,1216.42 1550.66,1218.65 1552.82,1220.84 1554.99,1223.01 1557.15,1225.15 1559.31,1227.26 1561.47,1229.34 1563.63,1231.39 1565.8,1233.42 1567.96,1235.42 1570.12,1237.39 1572.28,1239.34 1574.44,1241.26 1576.61,1243.16 1578.77,1245.03 1580.93,1246.87 1583.09,1248.69 1585.25,1250.49 1587.42,1252.26 1589.58,1254.01 1591.74,1255.74 1593.9,1257.44 1596.06,1259.12 1598.23,1260.78 1600.39,1262.42 1602.55,1264.03 1604.71,1265.63 1606.87,1267.2 1609.04,1268.75 1611.2,1270.28 1613.36,1271.79 1615.52,1273.28 1617.68,1274.75 1619.85,1276.21 1622.01,1277.64 1624.17,1279.05 1626.33,1280.45 1628.49,1281.82 1630.66,1283.18 1632.82,1284.52 1634.98,1285.84 1637.14,1287.15 1639.3,1288.43 1641.47,1289.7 1643.63,1290.96 1645.79,1292.19 1647.95,1293.41 1650.11,1294.62 1652.28,1295.81 1654.44,1296.98 1656.6,1298.14 1658.76,1299.28 1660.92,1300.4 1663.09,1301.52 1665.25,1302.61 1667.41,1303.69 1669.57,1304.76 1671.73,1305.82 1673.9,1306.86 1676.06,1307.88 1678.22,1308.89 1680.38,1309.89 1682.54,1310.88 1684.7,1311.85 1686.87,1312.81 1689.03,1313.76 1691.19,1314.69 1693.35,1315.61 1695.51,1316.41 1697.68,1316.87 1699.84,1317.02 1702,1316.87 1704.16,1316.46 1706.32,1315.82 1708.49,1314.96 1710.65,1313.91 1712.81,1312.7 1714.97,1311.34 1717.13,1309.85 1719.3,1308.26 1721.46,1306.58 1723.62,1304.83 1725.78,1303.02 1727.94,1301.17 1730.11,1299.29 1732.27,1297.4 1734.43,1295.51 1736.59,1293.63 1738.75,1291.76 1740.92,1289.92 1743.08,1288.11 1745.24,1286.34 1747.4,1284.62 1749.56,1282.95 1751.73,1281.33 1753.89,1279.77 1756.05,1278.27 1758.21,1276.82 1760.37,1275.42 1762.54,1274.08 1764.7,1272.79 1766.86,1271.55 1769.02,1270.35 1771.18,1269.18 1773.35,1268.04 1775.51,1266.92 1777.67,1265.81 1779.83,1264.7 1781.99,1263.57 1784.16,1262.43 1786.32,1261.29 1788.48,1260.16 1790.64,1259.05 1792.8,1257.95 1794.97,1256.87 1797.13,1255.8 1799.29,1254.74 1801.45,1253.7 1803.61,1252.68 1805.78,1251.67 1807.94,1250.67 1810.1,1249.68 1812.26,1248.71 1814.42,1247.75 1816.59,1246.8 1818.75,1245.86 1820.91,1244.94 1823.07,1244.03 1825.23,1243.13 1827.4,1242.25 1829.56,1241.37 1831.72,1240.51 1833.88,1239.66 1836.04,1238.82 1838.21,1238.01 1840.37,1237.21 1842.53,1236.44 1844.69,1235.68 1846.85,1234.93 1849.02,1234.2 1851.18,1233.49 1853.34,1232.78 1855.5,1232.09 1857.66,1231.4 1859.83,1230.72 1861.99,1230.05 1864.15,1229.39 1866.31,1228.74 1868.47,1228.08 1870.63,1227.44 1872.8,1226.79 1874.96,1226.15 1877.12,1225.51 1879.28,1224.87 1881.44,1224.23 1883.61,1223.59 1885.77,1222.95 1887.93,1222.31 1890.09,1221.67 1892.25,1221.02 1894.42,1220.38 1896.58,1219.73 1898.74,1219.08 1900.9,1218.43 1903.06,1217.77 1905.23,1217.11 1907.39,1216.45 1909.55,1215.78 1911.71,1215.11 1913.87,1214.44 1916.04,1213.76 1918.2,1213.08 1920.36,1212.4 1922.52,1211.72 1924.68,1211.03 1926.85,1210.34 1929.01,1209.65 1931.17,1208.96 1933.33,1208.27 1935.49,1207.58 1937.66,1206.89 1939.82,1206.2 1941.98,1205.52 1944.14,1204.83 1946.3,1204.15 1948.47,1203.47 1950.63,1202.8 1952.79,1202.13 1954.95,1201.47 1957.11,1200.82 1959.28,1200.18 1961.44,1199.54 1963.6,1198.92 1965.76,1198.31 1967.92,1197.71 1970.09,1197.12 1972.25,1196.55 1974.41,1195.99 1976.57,1195.44 1978.73,1194.89 1980.9,1194.36 1983.06,1193.83 1985.22,1193.3 1987.38,1192.79 1989.54,1192.28 1991.71,1191.77 1993.87,1191.28 1996.03,1190.79 1998.19,1190.3 2000.35,1189.83 2002.52,1189.36 2004.68,1188.89 2006.84,1188.43 2009,1187.98 2011.16,1187.53 2013.33,1187.09 2015.49,1186.66 2017.65,1186.23 2019.81,1185.81 2021.97,1185.39 2024.14,1184.98 2026.3,1184.57 2028.46,1184.17 2030.62,1183.78 2032.78,1183.39 2034.95,1183 2037.11,1182.62 2039.27,1182.24 2041.43,1181.87 2043.59,1181.51 2045.76,1181.15 2047.92,1180.79 2050.08,1180.44 2052.24,1180.1 2054.4,1179.75 2056.57,1179.42 2058.73,1179.08 2060.89,1178.76 2063.05,1178.43 2065.21,1178.11 2067.37,1177.8 2069.54,1177.49 2071.7,1177.18 2073.86,1176.88 2076.02,1176.58 2078.18,1176.28 2080.35,1175.99 2082.51,1175.7 2084.67,1175.42 2086.83,1175.14 2088.99,1174.87 2091.16,1174.59 2093.32,1174.32 2095.48,1174.06 2097.64,1173.8 2099.8,1173.54 2101.97,1173.28 2104.13,1173.03 2106.29,1172.79 2108.45,1172.54 2110.61,1172.3 2112.78,1172.06 2114.94,1171.83 2117.1,1171.59 2119.26,1171.36 2121.42,1171.14 2123.59,1170.91 2125.75,1170.19 2127.91,1168.71 2130.07,1166.59 2132.23,1163.95 2134.4,1160.89 2136.56,1157.5 2138.72,1153.87 2140.88,1150.08 2143.04,1146.19 2145.21,1142.26 2147.37,1138.34 2149.53,1134.47 2151.69,1130.69 2153.85,1127.02 2156.02,1123.46 2158.18,1120.04 2160.34,1116.74 2162.5,1113.55 2164.66,1110.45 2166.83,1107.41 2168.99,1104.39 2171.15,1101.35 2173.31,1098.32 2175.47,1095.33 2177.64,1092.38 2179.8,1089.47 2181.96,1086.6 2184.12,1083.76 2186.28,1080.96 2188.45,1078.2 2190.61,1075.48 2192.77,1072.79 2194.93,1070.14 2197.09,1067.52 2199.26,1064.94 2201.42,1062.39 2203.58,1059.88 2205.74,1057.4 2207.9,1054.95 2210.07,1052.54 2212.23,1050.15 2214.39,1047.8 2216.55,1045.48 2218.71,1043.19 2220.88,1040.93 2223.04,1038.7 2225.2,1036.5 2227.36,1034.33 2229.52,1032.19 2231.69,1030.08 2233.85,1027.99 2236.01,1025.93 2238.17,1023.9 2240.33,1021.9 2242.5,1019.92 2244.66,1017.97 2246.82,1016.05 2248.98,1014.15 2251.14,1012.27 2253.3,1010.43 2255.47,1008.6 2257.63,1006.8 2259.79,1005.02 2261.95,1003.27 2264.11,1001.54 2266.28,999.834 2268.44,998.15 2270.6,996.488 2272.76,994.848 2274.92,993.23 2277.09,991.633 2279.25,990.057 2281.41,988.502 2283.57,986.968 2285.73,985.454 2287.9,983.961 2290.06,982.487 2292.22,981.032 2294.38,979.597 2296.54,978.181 2298.71,976.784 2300.87,975.405 2303.03,974.044 2305.19,972.702 2307.35,971.377 2309.52,970.07 2311.68,968.78 2313.84,967.507 2316,966.252 2318.16,965.013 2320.33,963.79 2322.49,962.583 2324.65,961.393 2326.81,960.218 2328.97,959.059 2331.14,957.915 2333.3,956.787 2335.46,955.673 2337.62,954.574 2339.78,953.49 2341.95,952.42 2344.11,951.364 2346.27,950.322 2348.43,949.294 2350.59,948.28 2352.76,947.279 "/>
<polyline clip-path="url(#clip911)" style="stroke:#e26f46; stroke-linecap:round; stroke-linejoin:round; stroke-width:4; stroke-opacity:1; fill:none" points="192.941,1333.18 195.103,1333.18 197.265,1333.18 199.427,1333.18 201.589,1333.18 203.751,1333.18 205.912,1333.18 208.074,1333.18 210.236,1333.18 212.398,1333.18 214.56,1333.18 216.722,1333.18 218.884,1333.18 221.046,1333.18 223.208,1333.18 225.37,1333.18 227.532,1333.18 229.694,1333.18 231.856,1333.18 234.018,1333.18 236.18,1333.18 238.342,1333.18 240.504,1333.18 242.666,1333.18 244.828,1333.18 246.99,1333.18 249.152,1333.18 251.314,1333.18 253.476,1333.18 255.638,1333.18 257.8,1333.18 259.962,1333.18 262.124,1333.18 264.286,1333.18 266.448,1333.18 268.61,1333.18 270.772,1333.18 272.934,1333.18 275.096,1333.18 277.258,1333.18 279.42,1333.18 281.582,1333.18 283.744,1333.18 285.906,1333.18 288.068,1333.18 290.23,1333.18 292.392,1333.18 294.554,1333.18 296.716,1333.18 298.878,1333.18 301.039,1333.18 303.201,1333.18 305.363,1333.18 307.525,1333.18 309.687,1333.18 311.849,1333.18 314.011,1333.18 316.173,1333.18 318.335,1333.18 320.497,1333.18 322.659,1333.18 324.821,1333.18 326.983,1333.18 329.145,1333.18 331.307,1333.18 333.469,1333.18 335.631,1333.18 337.793,1333.18 339.955,1333.18 342.117,1333.18 344.279,1333.18 346.441,1333.18 348.603,1333.18 350.765,1333.18 352.927,1333.18 355.089,1333.18 357.251,1333.18 359.413,1333.18 361.575,1333.18 363.737,1333.18 365.899,1333.18 368.061,1333.18 370.223,1333.18 372.385,1333.18 374.547,1333.18 376.709,1333.18 378.871,1333.18 381.033,1333.18 383.195,1333.18 385.357,1333.18 387.519,1333.18 389.681,1333.18 391.843,1333.18 394.005,1333.18 396.166,1333.18 398.328,1333.18 400.49,1333.18 402.652,1333.18 404.814,1333.18 406.976,1333.18 409.138,86.1857 411.3,86.1857 413.462,86.1857 415.624,86.1857 417.786,86.1857 419.948,86.1857 422.11,86.1857 424.272,86.1857 426.434,86.1857 428.596,86.1857 430.758,86.1857 432.92,86.1857 435.082,86.1857 437.244,86.1857 439.406,86.1857 441.568,86.1857 443.73,86.1857 445.892,86.1857 448.054,86.1857 450.216,86.1857 452.378,86.1857 454.54,86.1857 456.702,86.1857 458.864,86.1857 461.026,86.1857 463.188,86.1857 465.35,86.1857 467.512,86.1857 469.674,86.1857 471.836,86.1857 473.998,86.1857 476.16,86.1857 478.322,86.1857 480.484,86.1857 482.646,86.1857 484.808,86.1857 486.97,86.1857 489.132,86.1857 491.293,86.1857 493.455,86.1857 495.617,86.1857 497.779,86.1857 499.941,86.1857 502.103,86.1857 504.265,86.1857 506.427,86.1857 508.589,86.1857 510.751,86.1857 512.913,86.1857 515.075,86.1857 517.237,86.1857 519.399,86.1857 521.561,86.1857 523.723,86.1857 525.885,86.1857 528.047,86.1857 530.209,86.1857 532.371,86.1857 534.533,86.1857 536.695,86.1857 538.857,86.1857 541.019,86.1857 543.181,86.1857 545.343,86.1857 547.505,86.1857 549.667,86.1857 551.829,86.1857 553.991,86.1857 556.153,86.1857 558.315,86.1857 560.477,86.1857 562.639,86.1857 564.801,86.1857 566.963,86.1857 569.125,86.1857 571.287,86.1857 573.449,86.1857 575.611,86.1857 577.773,86.1857 579.935,86.1857 582.097,86.1857 584.259,86.1857 586.42,86.1857 588.582,86.1857 590.744,86.1857 592.906,86.1857 595.068,86.1857 597.23,86.1857 599.392,86.1857 601.554,86.1857 603.716,86.1857 605.878,86.1857 608.04,86.1857 610.202,86.1857 612.364,86.1857 614.526,86.1857 616.688,86.1857 618.85,86.1857 621.012,86.1857 623.174,86.1857 625.336,1284.11 627.498,1284.11 629.66,1284.11 631.822,1284.11 633.984,1284.11 636.146,1284.11 638.308,1284.11 640.47,1284.11 642.632,1284.11 644.794,1284.11 646.956,1284.11 649.118,1284.11 651.28,1284.11 653.442,1284.11 655.604,1284.11 657.766,1284.11 659.928,1284.11 662.09,1284.11 664.252,1284.11 666.414,1284.11 668.576,1284.11 670.738,1284.11 672.9,1284.11 675.062,1284.11 677.224,1284.11 679.386,1284.11 681.547,1284.11 683.709,1284.11 685.871,1284.11 688.033,1284.11 690.195,1284.11 692.357,1284.11 694.519,1284.11 696.681,1284.11 698.843,1284.11 701.005,1284.11 703.167,1284.11 705.329,1284.11 707.491,1284.11 709.653,1284.11 711.815,1284.11 713.977,1284.11 716.139,1284.11 718.301,1284.11 720.463,1284.11 722.625,1284.11 724.787,1284.11 726.949,1284.11 729.111,1284.11 731.273,1284.11 733.435,1284.11 735.597,1284.11 737.759,1284.11 739.921,1284.11 742.083,1284.11 744.245,1284.11 746.407,1284.11 748.569,1284.11 750.731,1284.11 752.893,1284.11 755.055,1284.11 757.217,1284.11 759.379,1284.11 761.541,1284.11 763.703,1284.11 765.865,1284.11 768.027,1284.11 770.189,1284.11 772.351,1284.11 774.513,1284.11 776.674,1284.11 778.836,1284.11 780.998,1284.11 783.16,1284.11 785.322,1284.11 787.484,1284.11 789.646,1284.11 791.808,1284.11 793.97,1284.11 796.132,1284.11 798.294,1284.11 800.456,1284.11 802.618,1284.11 804.78,1284.11 806.942,1284.11 809.104,1284.11 811.266,1284.11 813.428,1284.11 815.59,1284.11 817.752,1284.11 819.914,1284.11 822.076,1284.11 824.238,1284.11 826.4,1284.11 828.562,1284.11 830.724,1284.11 832.886,1284.11 835.048,1284.11 837.21,1284.11 839.372,1284.11 841.534,880.357 843.696,880.357 845.858,880.357 848.02,880.357 850.182,880.357 852.344,880.357 854.506,880.357 856.668,880.357 858.83,880.357 860.992,880.357 863.154,880.357 865.316,880.357 867.478,880.357 869.64,880.357 871.801,880.357 873.963,880.357 876.125,880.357 878.287,880.357 880.449,880.357 882.611,880.357 884.773,880.357 886.935,880.357 889.097,880.357 891.259,880.357 893.421,880.357 895.583,880.357 897.745,880.357 899.907,880.357 902.069,880.357 904.231,880.357 906.393,880.357 908.555,880.357 910.717,880.357 912.879,880.357 915.041,880.357 917.203,880.357 919.365,880.357 921.527,880.357 923.689,880.357 925.851,880.357 928.013,880.357 930.175,880.357 932.337,880.357 934.499,880.357 936.661,880.357 938.823,880.357 940.985,880.357 943.147,880.357 945.309,880.357 947.471,880.357 949.633,880.357 951.795,880.357 953.957,880.357 956.119,880.357 958.281,880.357 960.443,880.357 962.605,880.357 964.767,880.357 966.928,880.357 969.09,880.357 971.252,880.357 973.414,880.357 975.576,880.357 977.738,880.357 979.9,880.357 982.062,880.357 984.224,880.357 986.386,880.357 988.548,880.357 990.71,880.357 992.872,880.357 995.034,880.357 997.196,880.357 999.358,880.357 1001.52,880.357 1003.68,880.357 1005.84,880.357 1008.01,880.357 1010.17,880.357 1012.33,880.357 1014.49,880.357 1016.65,880.357 1018.82,880.357 1020.98,880.357 1023.14,880.357 1025.3,880.357 1027.46,880.357 1029.63,880.357 1031.79,880.357 1033.95,880.357 1036.11,880.357 1038.27,880.357 1040.44,880.357 1042.6,880.357 1044.76,880.357 1046.92,880.357 1049.08,880.357 1051.25,880.357 1053.41,880.357 1055.57,880.357 1057.73,1054.58 1059.89,1054.58 1062.06,1054.58 1064.22,1054.58 1066.38,1054.58 1068.54,1054.58 1070.7,1054.58 1072.87,1054.58 1075.03,1054.58 1077.19,1054.58 1079.35,1054.58 1081.51,1054.58 1083.68,1054.58 1085.84,1054.58 1088,1054.58 1090.16,1054.58 1092.32,1054.58 1094.49,1054.58 1096.65,1054.58 1098.81,1054.58 1100.97,1054.58 1103.13,1054.58 1105.3,1054.58 1107.46,1054.58 1109.62,1054.58 1111.78,1054.58 1113.94,1054.58 1116.1,1054.58 1118.27,1054.58 1120.43,1054.58 1122.59,1054.58 1124.75,1054.58 1126.91,1054.58 1129.08,1054.58 1131.24,1054.58 1133.4,1054.58 1135.56,1054.58 1137.72,1054.58 1139.89,1054.58 1142.05,1054.58 1144.21,1054.58 1146.37,1054.58 1148.53,1054.58 1150.7,1054.58 1152.86,1054.58 1155.02,1054.58 1157.18,1054.58 1159.34,1054.58 1161.51,1054.58 1163.67,1054.58 1165.83,1054.58 1167.99,1054.58 1170.15,1054.58 1172.32,1054.58 1174.48,1054.58 1176.64,1054.58 1178.8,1054.58 1180.96,1054.58 1183.13,1054.58 1185.29,1054.58 1187.45,1054.58 1189.61,1054.58 1191.77,1054.58 1193.94,1054.58 1196.1,1054.58 1198.26,1054.58 1200.42,1054.58 1202.58,1054.58 1204.75,1054.58 1206.91,1054.58 1209.07,1054.58 1211.23,1054.58 1213.39,1054.58 1215.56,1054.58 1217.72,1054.58 1219.88,1054.58 1222.04,1054.58 1224.2,1054.58 1226.37,1054.58 1228.53,1054.58 1230.69,1054.58 1232.85,1054.58 1235.01,1054.58 1237.18,1054.58 1239.34,1054.58 1241.5,1054.58 1243.66,1054.58 1245.82,1054.58 1247.99,1054.58 1250.15,1054.58 1252.31,1054.58 1254.47,1054.58 1256.63,1054.58 1258.8,1054.58 1260.96,1054.58 1263.12,1054.58 1265.28,1054.58 1267.44,1054.58 1269.61,1054.58 1271.77,1054.58 1273.93,1190.42 1276.09,1190.42 1278.25,1190.42 1280.42,1190.42 1282.58,1190.42 1284.74,1190.42 1286.9,1190.42 1289.06,1190.42 1291.23,1190.42 1293.39,1190.42 1295.55,1190.42 1297.71,1190.42 1299.87,1190.42 1302.03,1190.42 1304.2,1190.42 1306.36,1190.42 1308.52,1190.42 1310.68,1190.42 1312.84,1190.42 1315.01,1190.42 1317.17,1190.42 1319.33,1190.42 1321.49,1190.42 1323.65,1190.42 1325.82,1190.42 1327.98,1190.42 1330.14,1190.42 1332.3,1190.42 1334.46,1190.42 1336.63,1190.42 1338.79,1190.42 1340.95,1190.42 1343.11,1190.42 1345.27,1190.42 1347.44,1190.42 1349.6,1190.42 1351.76,1190.42 1353.92,1190.42 1356.08,1190.42 1358.25,1190.42 1360.41,1190.42 1362.57,1190.42 1364.73,1190.42 1366.89,1190.42 1369.06,1190.42 1371.22,1190.42 1373.38,1190.42 1375.54,1190.42 1377.7,1190.42 1379.87,1190.42 1382.03,1190.42 1384.19,1190.42 1386.35,1190.42 1388.51,1190.42 1390.68,1190.42 1392.84,1190.42 1395,1190.42 1397.16,1190.42 1399.32,1190.42 1401.49,1190.42 1403.65,1190.42 1405.81,1190.42 1407.97,1190.42 1410.13,1190.42 1412.3,1190.42 1414.46,1190.42 1416.62,1190.42 1418.78,1190.42 1420.94,1190.42 1423.11,1190.42 1425.27,1190.42 1427.43,1190.42 1429.59,1190.42 1431.75,1190.42 1433.92,1190.42 1436.08,1190.42 1438.24,1190.42 1440.4,1190.42 1442.56,1190.42 1444.73,1190.42 1446.89,1190.42 1449.05,1190.42 1451.21,1190.42 1453.37,1190.42 1455.54,1190.42 1457.7,1190.42 1459.86,1190.42 1462.02,1190.42 1464.18,1190.42 1466.35,1190.42 1468.51,1190.42 1470.67,1190.42 1472.83,1190.42 1474.99,1190.42 1477.16,1190.42 1479.32,1190.42 1481.48,1190.42 1483.64,1190.42 1485.8,1190.42 1487.97,1190.42 1490.13,1384.24 1492.29,1384.24 1494.45,1384.24 1496.61,1384.24 1498.77,1384.24 1500.94,1384.24 1503.1,1384.24 1505.26,1384.24 1507.42,1384.24 1509.58,1384.24 1511.75,1384.24 1513.91,1384.24 1516.07,1384.24 1518.23,1384.24 1520.39,1384.24 1522.56,1384.24 1524.72,1384.24 1526.88,1384.24 1529.04,1384.24 1531.2,1384.24 1533.37,1384.24 1535.53,1384.24 1537.69,1384.24 1539.85,1384.24 1542.01,1384.24 1544.18,1384.24 1546.34,1384.24 1548.5,1384.24 1550.66,1384.24 1552.82,1384.24 1554.99,1384.24 1557.15,1384.24 1559.31,1384.24 1561.47,1384.24 1563.63,1384.24 1565.8,1384.24 1567.96,1384.24 1570.12,1384.24 1572.28,1384.24 1574.44,1384.24 1576.61,1384.24 1578.77,1384.24 1580.93,1384.24 1583.09,1384.24 1585.25,1384.24 1587.42,1384.24 1589.58,1384.24 1591.74,1384.24 1593.9,1384.24 1596.06,1384.24 1598.23,1384.24 1600.39,1384.24 1602.55,1384.24 1604.71,1384.24 1606.87,1384.24 1609.04,1384.24 1611.2,1384.24 1613.36,1384.24 1615.52,1384.24 1617.68,1384.24 1619.85,1384.24 1622.01,1384.24 1624.17,1384.24 1626.33,1384.24 1628.49,1384.24 1630.66,1384.24 1632.82,1384.24 1634.98,1384.24 1637.14,1384.24 1639.3,1384.24 1641.47,1384.24 1643.63,1384.24 1645.79,1384.24 1647.95,1384.24 1650.11,1384.24 1652.28,1384.24 1654.44,1384.24 1656.6,1384.24 1658.76,1384.24 1660.92,1384.24 1663.09,1384.24 1665.25,1384.24 1667.41,1384.24 1669.57,1384.24 1671.73,1384.24 1673.9,1384.24 1676.06,1384.24 1678.22,1384.24 1680.38,1384.24 1682.54,1384.24 1684.7,1384.24 1686.87,1384.24 1689.03,1384.24 1691.19,1384.24 1693.35,1384.24 1695.51,1384.24 1697.68,1384.24 1699.84,1384.24 1702,1384.24 1704.16,1384.24 1706.32,1176.29 1708.49,1176.29 1710.65,1176.29 1712.81,1176.29 1714.97,1176.29 1717.13,1176.29 1719.3,1176.29 1721.46,1176.29 1723.62,1176.29 1725.78,1176.29 1727.94,1176.29 1730.11,1176.29 1732.27,1176.29 1734.43,1176.29 1736.59,1176.29 1738.75,1176.29 1740.92,1176.29 1743.08,1176.29 1745.24,1176.29 1747.4,1176.29 1749.56,1176.29 1751.73,1176.29 1753.89,1176.29 1756.05,1176.29 1758.21,1176.29 1760.37,1176.29 1762.54,1176.29 1764.7,1176.29 1766.86,1176.29 1769.02,1176.29 1771.18,1176.29 1773.35,1176.29 1775.51,1176.29 1777.67,1176.29 1779.83,1176.29 1781.99,1176.29 1784.16,1176.29 1786.32,1176.29 1788.48,1176.29 1790.64,1176.29 1792.8,1176.29 1794.97,1176.29 1797.13,1176.29 1799.29,1176.29 1801.45,1176.29 1803.61,1176.29 1805.78,1176.29 1807.94,1176.29 1810.1,1176.29 1812.26,1176.29 1814.42,1176.29 1816.59,1176.29 1818.75,1176.29 1820.91,1176.29 1823.07,1176.29 1825.23,1176.29 1827.4,1176.29 1829.56,1176.29 1831.72,1176.29 1833.88,1176.29 1836.04,1176.29 1838.21,1176.29 1840.37,1176.29 1842.53,1176.29 1844.69,1176.29 1846.85,1176.29 1849.02,1176.29 1851.18,1176.29 1853.34,1176.29 1855.5,1176.29 1857.66,1176.29 1859.83,1176.29 1861.99,1176.29 1864.15,1176.29 1866.31,1176.29 1868.47,1176.29 1870.63,1176.29 1872.8,1176.29 1874.96,1176.29 1877.12,1176.29 1879.28,1176.29 1881.44,1176.29 1883.61,1176.29 1885.77,1176.29 1887.93,1176.29 1890.09,1176.29 1892.25,1176.29 1894.42,1176.29 1896.58,1176.29 1898.74,1176.29 1900.9,1176.29 1903.06,1176.29 1905.23,1176.29 1907.39,1176.29 1909.55,1176.29 1911.71,1176.29 1913.87,1176.29 1916.04,1176.29 1918.2,1176.29 1920.36,1176.29 1922.52,1154.33 1924.68,1154.33 1926.85,1154.33 1929.01,1154.33 1931.17,1154.33 1933.33,1154.33 1935.49,1154.33 1937.66,1154.33 1939.82,1154.33 1941.98,1154.33 1944.14,1154.33 1946.3,1154.33 1948.47,1154.33 1950.63,1154.33 1952.79,1154.33 1954.95,1154.33 1957.11,1154.33 1959.28,1154.33 1961.44,1154.33 1963.6,1154.33 1965.76,1154.33 1967.92,1154.33 1970.09,1154.33 1972.25,1154.33 1974.41,1154.33 1976.57,1154.33 1978.73,1154.33 1980.9,1154.33 1983.06,1154.33 1985.22,1154.33 1987.38,1154.33 1989.54,1154.33 1991.71,1154.33 1993.87,1154.33 1996.03,1154.33 1998.19,1154.33 2000.35,1154.33 2002.52,1154.33 2004.68,1154.33 2006.84,1154.33 2009,1154.33 2011.16,1154.33 2013.33,1154.33 2015.49,1154.33 2017.65,1154.33 2019.81,1154.33 2021.97,1154.33 2024.14,1154.33 2026.3,1154.33 2028.46,1154.33 2030.62,1154.33 2032.78,1154.33 2034.95,1154.33 2037.11,1154.33 2039.27,1154.33 2041.43,1154.33 2043.59,1154.33 2045.76,1154.33 2047.92,1154.33 2050.08,1154.33 2052.24,1154.33 2054.4,1154.33 2056.57,1154.33 2058.73,1154.33 2060.89,1154.33 2063.05,1154.33 2065.21,1154.33 2067.37,1154.33 2069.54,1154.33 2071.7,1154.33 2073.86,1154.33 2076.02,1154.33 2078.18,1154.33 2080.35,1154.33 2082.51,1154.33 2084.67,1154.33 2086.83,1154.33 2088.99,1154.33 2091.16,1154.33 2093.32,1154.33 2095.48,1154.33 2097.64,1154.33 2099.8,1154.33 2101.97,1154.33 2104.13,1154.33 2106.29,1154.33 2108.45,1154.33 2110.61,1154.33 2112.78,1154.33 2114.94,1154.33 2117.1,1154.33 2119.26,1154.33 2121.42,1154.33 2123.59,1154.33 2125.75,1154.33 2127.91,1154.33 2130.07,1154.33 2132.23,1154.33 2134.4,1154.33 2136.56,1154.33 2138.72,872.786 2140.88,872.786 2143.04,872.786 2145.21,872.786 2147.37,872.786 2149.53,872.786 2151.69,872.786 2153.85,872.786 2156.02,872.786 2158.18,872.786 2160.34,872.786 2162.5,872.786 2164.66,872.786 2166.83,872.786 2168.99,872.786 2171.15,872.786 2173.31,872.786 2175.47,872.786 2177.64,872.786 2179.8,872.786 2181.96,872.786 2184.12,872.786 2186.28,872.786 2188.45,872.786 2190.61,872.786 2192.77,872.786 2194.93,872.786 2197.09,872.786 2199.26,872.786 2201.42,872.786 2203.58,872.786 2205.74,872.786 2207.9,872.786 2210.07,872.786 2212.23,872.786 2214.39,872.786 2216.55,872.786 2218.71,872.786 2220.88,872.786 2223.04,872.786 2225.2,872.786 2227.36,872.786 2229.52,872.786 2231.69,872.786 2233.85,872.786 2236.01,872.786 2238.17,872.786 2240.33,872.786 2242.5,872.786 2244.66,872.786 2246.82,872.786 2248.98,872.786 2251.14,872.786 2253.3,872.786 2255.47,872.786 2257.63,872.786 2259.79,872.786 2261.95,872.786 2264.11,872.786 2266.28,872.786 2268.44,872.786 2270.6,872.786 2272.76,872.786 2274.92,872.786 2277.09,872.786 2279.25,872.786 2281.41,872.786 2283.57,872.786 2285.73,872.786 2287.9,872.786 2290.06,872.786 2292.22,872.786 2294.38,872.786 2296.54,872.786 2298.71,872.786 2300.87,872.786 2303.03,872.786 2305.19,872.786 2307.35,872.786 2309.52,872.786 2311.68,872.786 2313.84,872.786 2316,872.786 2318.16,872.786 2320.33,872.786 2322.49,872.786 2324.65,872.786 2326.81,872.786 2328.97,872.786 2331.14,872.786 2333.3,872.786 2335.46,872.786 2337.62,872.786 2339.78,872.786 2341.95,872.786 2344.11,872.786 2346.27,872.786 2348.43,872.786 2350.59,872.786 2352.76,872.786 "/>
<path clip-path="url(#clip910)" d="M2039.64 248.629 L2280.76 248.629 L2280.76 93.1086 L2039.64 93.1086  Z" fill="#ffffff" fill-rule="evenodd" fill-opacity="1"/>
<polyline clip-path="url(#clip910)" style="stroke:#000000; stroke-linecap:round; stroke-linejoin:round; stroke-width:4; stroke-opacity:1; fill:none" points="2039.64,248.629 2280.76,248.629 2280.76,93.1086 2039.64,93.1086 2039.64,248.629 "/>
<polyline clip-path="url(#clip910)" style="stroke:#009af9; stroke-linecap:round; stroke-linejoin:round; stroke-width:4; stroke-opacity:1; fill:none" points="2063.64,144.949 2207.63,144.949 "/>
<path clip-path="url(#clip910)" d="M2256.28 136.303 L2246.9 148.919 L2256.76 162.229 L2251.74 162.229 L2244.19 152.043 L2236.65 162.229 L2231.63 162.229 L2241.69 148.664 L2232.48 136.303 L2237.5 136.303 L2244.38 145.539 L2251.25 136.303 L2256.28 136.303 Z" fill="#000000" fill-rule="nonzero" fill-opacity="1" /><polyline clip-path="url(#clip910)" style="stroke:#e26f46; stroke-linecap:round; stroke-linejoin:round; stroke-width:4; stroke-opacity:1; fill:none" points="2063.64,196.789 2207.63,196.789 "/>
<path clip-path="url(#clip910)" d="M2248.13 178.05 L2248.13 181.592 L2244.06 181.592 Q2241.76 181.592 2240.86 182.518 Q2239.98 183.444 2239.98 185.851 L2239.98 188.143 L2247 188.143 L2247 191.453 L2239.98 191.453 L2239.98 214.069 L2235.7 214.069 L2235.7 191.453 L2231.63 191.453 L2231.63 188.143 L2235.7 188.143 L2235.7 186.337 Q2235.7 182.009 2237.71 180.041 Q2239.73 178.05 2244.1 178.05 L2248.13 178.05 Z" fill="#000000" fill-rule="nonzero" fill-opacity="1" /></svg>
