<?xml version="1.0" encoding="utf-8"?>
<svg xmlns="http://www.w3.org/2000/svg" xmlns:xlink="http://www.w3.org/1999/xlink" width="600" height="400" viewBox="0 0 2400 1600">
<defs>
  <clipPath id="clip690">
    <rect x="0" y="0" width="2400" height="1600"/>
  </clipPath>
</defs>
<path clip-path="url(#clip690)" d="M0 1600 L2400 1600 L2400 0 L0 0  Z" fill="#ffffff" fill-rule="evenodd" fill-opacity="1"/>
<defs>
  <clipPath id="clip691">
    <rect x="480" y="0" width="1681" height="1600"/>
  </clipPath>
</defs>
<path clip-path="url(#clip690)" d="M193.936 1423.18 L2352.76 1423.18 L2352.76 47.2441 L193.936 47.2441  Z" fill="#ffffff" fill-rule="evenodd" fill-opacity="1"/>
<defs>
  <clipPath id="clip692">
    <rect x="193" y="47" width="2160" height="1377"/>
  </clipPath>
</defs>
<polyline clip-path="url(#clip692)" style="stroke:#000000; stroke-linecap:round; stroke-linejoin:round; stroke-width:2; stroke-opacity:0.1; fill:none" points="193.936,1423.18 193.936,47.2441 "/>
<polyline clip-path="url(#clip692)" style="stroke:#000000; stroke-linecap:round; stroke-linejoin:round; stroke-width:2; stroke-opacity:0.1; fill:none" points="625.7,1423.18 625.7,47.2441 "/>
<polyline clip-path="url(#clip692)" style="stroke:#000000; stroke-linecap:round; stroke-linejoin:round; stroke-width:2; stroke-opacity:0.1; fill:none" points="1057.46,1423.18 1057.46,47.2441 "/>
<polyline clip-path="url(#clip692)" style="stroke:#000000; stroke-linecap:round; stroke-linejoin:round; stroke-width:2; stroke-opacity:0.1; fill:none" points="1489.23,1423.18 1489.23,47.2441 "/>
<polyline clip-path="url(#clip692)" style="stroke:#000000; stroke-linecap:round; stroke-linejoin:round; stroke-width:2; stroke-opacity:0.1; fill:none" points="1920.99,1423.18 1920.99,47.2441 "/>
<polyline clip-path="url(#clip692)" style="stroke:#000000; stroke-linecap:round; stroke-linejoin:round; stroke-width:2; stroke-opacity:0.1; fill:none" points="2352.76,1423.18 2352.76,47.2441 "/>
<polyline clip-path="url(#clip690)" style="stroke:#000000; stroke-linecap:round; stroke-linejoin:round; stroke-width:4; stroke-opacity:1; fill:none" points="193.936,1423.18 2352.76,1423.18 "/>
<polyline clip-path="url(#clip690)" style="stroke:#000000; stroke-linecap:round; stroke-linejoin:round; stroke-width:4; stroke-opacity:1; fill:none" points="193.936,1423.18 193.936,1404.28 "/>
<polyline clip-path="url(#clip690)" style="stroke:#000000; stroke-linecap:round; stroke-linejoin:round; stroke-width:4; stroke-opacity:1; fill:none" points="625.7,1423.18 625.7,1404.28 "/>
<polyline clip-path="url(#clip690)" style="stroke:#000000; stroke-linecap:round; stroke-linejoin:round; stroke-width:4; stroke-opacity:1; fill:none" points="1057.46,1423.18 1057.46,1404.28 "/>
<polyline clip-path="url(#clip690)" style="stroke:#000000; stroke-linecap:round; stroke-linejoin:round; stroke-width:4; stroke-opacity:1; fill:none" points="1489.23,1423.18 1489.23,1404.28 "/>
<polyline clip-path="url(#clip690)" style="stroke:#000000; stroke-linecap:round; stroke-linejoin:round; stroke-width:4; stroke-opacity:1; fill:none" points="1920.99,1423.18 1920.99,1404.28 "/>
<polyline clip-path="url(#clip690)" style="stroke:#000000; stroke-linecap:round; stroke-linejoin:round; stroke-width:4; stroke-opacity:1; fill:none" points="2352.76,1423.18 2352.76,1404.28 "/>
<path clip-path="url(#clip690)" d="M193.936 1454.1 Q190.325 1454.1 188.496 1457.66 Q186.691 1461.2 186.691 1468.33 Q186.691 1475.44 188.496 1479.01 Q190.325 1482.55 193.936 1482.55 Q197.57 1482.55 199.376 1479.01 Q201.204 1475.44 201.204 1468.33 Q201.204 1461.2 199.376 1457.66 Q197.57 1454.1 193.936 1454.1 M193.936 1450.39 Q199.746 1450.39 202.802 1455 Q205.88 1459.58 205.88 1468.33 Q205.88 1477.06 202.802 1481.67 Q199.746 1486.25 193.936 1486.25 Q188.126 1486.25 185.047 1481.67 Q181.992 1477.06 181.992 1468.33 Q181.992 1459.58 185.047 1455 Q188.126 1450.39 193.936 1450.39 Z" fill="#000000" fill-rule="nonzero" fill-opacity="1" /><path clip-path="url(#clip690)" d="M620.353 1481.64 L636.672 1481.64 L636.672 1485.58 L614.728 1485.58 L614.728 1481.64 Q617.39 1478.89 621.973 1474.26 Q626.58 1469.61 627.76 1468.27 Q630.006 1465.74 630.885 1464.01 Q631.788 1462.25 631.788 1460.56 Q631.788 1457.8 629.843 1456.07 Q627.922 1454.33 624.82 1454.33 Q622.621 1454.33 620.168 1455.09 Q617.737 1455.86 614.959 1457.41 L614.959 1452.69 Q617.783 1451.55 620.237 1450.97 Q622.691 1450.39 624.728 1450.39 Q630.098 1450.39 633.293 1453.08 Q636.487 1455.77 636.487 1460.26 Q636.487 1462.39 635.677 1464.31 Q634.89 1466.2 632.783 1468.8 Q632.205 1469.47 629.103 1472.69 Q626.001 1475.88 620.353 1481.64 Z" fill="#000000" fill-rule="nonzero" fill-opacity="1" /><path clip-path="url(#clip690)" d="M1060.47 1455.09 L1048.67 1473.54 L1060.47 1473.54 L1060.47 1455.09 M1059.25 1451.02 L1065.13 1451.02 L1065.13 1473.54 L1070.06 1473.54 L1070.06 1477.43 L1065.13 1477.43 L1065.13 1485.58 L1060.47 1485.58 L1060.47 1477.43 L1044.87 1477.43 L1044.87 1472.92 L1059.25 1451.02 Z" fill="#000000" fill-rule="nonzero" fill-opacity="1" /><path clip-path="url(#clip690)" d="M1489.63 1466.44 Q1486.48 1466.44 1484.63 1468.59 Q1482.8 1470.74 1482.8 1474.49 Q1482.8 1478.22 1484.63 1480.39 Q1486.48 1482.55 1489.63 1482.55 Q1492.78 1482.55 1494.61 1480.39 Q1496.46 1478.22 1496.46 1474.49 Q1496.46 1470.74 1494.61 1468.59 Q1492.78 1466.44 1489.63 1466.44 M1498.92 1451.78 L1498.92 1456.04 Q1497.16 1455.21 1495.35 1454.77 Q1493.57 1454.33 1491.81 1454.33 Q1487.18 1454.33 1484.73 1457.45 Q1482.3 1460.58 1481.95 1466.9 Q1483.31 1464.89 1485.37 1463.82 Q1487.43 1462.73 1489.91 1462.73 Q1495.12 1462.73 1498.13 1465.9 Q1501.16 1469.05 1501.16 1474.49 Q1501.16 1479.82 1498.01 1483.03 Q1494.86 1486.25 1489.63 1486.25 Q1483.64 1486.25 1480.47 1481.67 Q1477.3 1477.06 1477.3 1468.33 Q1477.3 1460.14 1481.18 1455.28 Q1485.07 1450.39 1491.62 1450.39 Q1493.38 1450.39 1495.17 1450.74 Q1496.97 1451.09 1498.92 1451.78 Z" fill="#000000" fill-rule="nonzero" fill-opacity="1" /><path clip-path="url(#clip690)" d="M1920.99 1469.17 Q1917.66 1469.17 1915.74 1470.95 Q1913.84 1472.73 1913.84 1475.86 Q1913.84 1478.98 1915.74 1480.77 Q1917.66 1482.55 1920.99 1482.55 Q1924.33 1482.55 1926.25 1480.77 Q1928.17 1478.96 1928.17 1475.86 Q1928.17 1472.73 1926.25 1470.95 Q1924.35 1469.17 1920.99 1469.17 M1916.32 1467.18 Q1913.31 1466.44 1911.62 1464.38 Q1909.95 1462.32 1909.95 1459.35 Q1909.95 1455.21 1912.89 1452.8 Q1915.85 1450.39 1920.99 1450.39 Q1926.15 1450.39 1929.09 1452.8 Q1932.03 1455.21 1932.03 1459.35 Q1932.03 1462.32 1930.34 1464.38 Q1928.68 1466.44 1925.69 1467.18 Q1929.07 1467.96 1930.95 1470.26 Q1932.84 1472.55 1932.84 1475.86 Q1932.84 1480.88 1929.77 1483.57 Q1926.71 1486.25 1920.99 1486.25 Q1915.27 1486.25 1912.2 1483.57 Q1909.14 1480.88 1909.14 1475.86 Q1909.14 1472.55 1911.04 1470.26 Q1912.94 1467.96 1916.32 1467.18 M1914.6 1459.79 Q1914.6 1462.48 1916.27 1463.98 Q1917.96 1465.49 1920.99 1465.49 Q1924 1465.49 1925.69 1463.98 Q1927.4 1462.48 1927.4 1459.79 Q1927.4 1457.11 1925.69 1455.6 Q1924 1454.1 1920.99 1454.1 Q1917.96 1454.1 1916.27 1455.6 Q1914.6 1457.11 1914.6 1459.79 Z" fill="#000000" fill-rule="nonzero" fill-opacity="1" /><path clip-path="url(#clip690)" d="M2327.44 1481.64 L2335.08 1481.64 L2335.08 1455.28 L2326.77 1456.95 L2326.77 1452.69 L2335.04 1451.02 L2339.71 1451.02 L2339.71 1481.64 L2347.35 1481.64 L2347.35 1485.58 L2327.44 1485.58 L2327.44 1481.64 Z" fill="#000000" fill-rule="nonzero" fill-opacity="1" /><path clip-path="url(#clip690)" d="M2366.8 1454.1 Q2363.18 1454.1 2361.36 1457.66 Q2359.55 1461.2 2359.55 1468.33 Q2359.55 1475.44 2361.36 1479.01 Q2363.18 1482.55 2366.8 1482.55 Q2370.43 1482.55 2372.23 1479.01 Q2374.06 1475.44 2374.06 1468.33 Q2374.06 1461.2 2372.23 1457.66 Q2370.43 1454.1 2366.8 1454.1 M2366.8 1450.39 Q2372.61 1450.39 2375.66 1455 Q2378.74 1459.58 2378.74 1468.33 Q2378.74 1477.06 2375.66 1481.67 Q2372.61 1486.25 2366.8 1486.25 Q2360.99 1486.25 2357.91 1481.67 Q2354.85 1477.06 2354.85 1468.33 Q2354.85 1459.58 2357.91 1455 Q2360.99 1450.39 2366.8 1450.39 Z" fill="#000000" fill-rule="nonzero" fill-opacity="1" /><path clip-path="url(#clip690)" d="M1272.41 1522.27 L1272.41 1532.4 L1284.47 1532.4 L1284.47 1536.95 L1272.41 1536.95 L1272.41 1556.3 Q1272.41 1560.66 1273.58 1561.9 Q1274.79 1563.14 1278.45 1563.14 L1284.47 1563.14 L1284.47 1568.04 L1278.45 1568.04 Q1271.67 1568.04 1269.1 1565.53 Q1266.52 1562.98 1266.52 1556.3 L1266.52 1536.95 L1262.22 1536.95 L1262.22 1532.4 L1266.52 1532.4 L1266.52 1522.27 L1272.41 1522.27 Z" fill="#000000" fill-rule="nonzero" fill-opacity="1" /><polyline clip-path="url(#clip692)" style="stroke:#000000; stroke-linecap:round; stroke-linejoin:round; stroke-width:2; stroke-opacity:0.1; fill:none" points="193.936,1231.98 2352.76,1231.98 "/>
<polyline clip-path="url(#clip692)" style="stroke:#000000; stroke-linecap:round; stroke-linejoin:round; stroke-width:2; stroke-opacity:0.1; fill:none" points="193.936,1034.36 2352.76,1034.36 "/>
<polyline clip-path="url(#clip692)" style="stroke:#000000; stroke-linecap:round; stroke-linejoin:round; stroke-width:2; stroke-opacity:0.1; fill:none" points="193.936,836.73 2352.76,836.73 "/>
<polyline clip-path="url(#clip692)" style="stroke:#000000; stroke-linecap:round; stroke-linejoin:round; stroke-width:2; stroke-opacity:0.1; fill:none" points="193.936,639.103 2352.76,639.103 "/>
<polyline clip-path="url(#clip692)" style="stroke:#000000; stroke-linecap:round; stroke-linejoin:round; stroke-width:2; stroke-opacity:0.1; fill:none" points="193.936,441.477 2352.76,441.477 "/>
<polyline clip-path="url(#clip692)" style="stroke:#000000; stroke-linecap:round; stroke-linejoin:round; stroke-width:2; stroke-opacity:0.1; fill:none" points="193.936,243.851 2352.76,243.851 "/>
<polyline clip-path="url(#clip690)" style="stroke:#000000; stroke-linecap:round; stroke-linejoin:round; stroke-width:4; stroke-opacity:1; fill:none" points="193.936,1423.18 193.936,47.2441 "/>
<polyline clip-path="url(#clip690)" style="stroke:#000000; stroke-linecap:round; stroke-linejoin:round; stroke-width:4; stroke-opacity:1; fill:none" points="193.936,1231.98 212.834,1231.98 "/>
<polyline clip-path="url(#clip690)" style="stroke:#000000; stroke-linecap:round; stroke-linejoin:round; stroke-width:4; stroke-opacity:1; fill:none" points="193.936,1034.36 212.834,1034.36 "/>
<polyline clip-path="url(#clip690)" style="stroke:#000000; stroke-linecap:round; stroke-linejoin:round; stroke-width:4; stroke-opacity:1; fill:none" points="193.936,836.73 212.834,836.73 "/>
<polyline clip-path="url(#clip690)" style="stroke:#000000; stroke-linecap:round; stroke-linejoin:round; stroke-width:4; stroke-opacity:1; fill:none" points="193.936,639.103 212.834,639.103 "/>
<polyline clip-path="url(#clip690)" style="stroke:#000000; stroke-linecap:round; stroke-linejoin:round; stroke-width:4; stroke-opacity:1; fill:none" points="193.936,441.477 212.834,441.477 "/>
<polyline clip-path="url(#clip690)" style="stroke:#000000; stroke-linecap:round; stroke-linejoin:round; stroke-width:4; stroke-opacity:1; fill:none" points="193.936,243.851 212.834,243.851 "/>
<path clip-path="url(#clip690)" d="M50.9921 1232.43 L80.6679 1232.43 L80.6679 1236.37 L50.9921 1236.37 L50.9921 1232.43 Z" fill="#000000" fill-rule="nonzero" fill-opacity="1" /><path clip-path="url(#clip690)" d="M91.5706 1245.33 L99.2095 1245.33 L99.2095 1218.96 L90.8993 1220.63 L90.8993 1216.37 L99.1632 1214.7 L103.839 1214.7 L103.839 1245.33 L111.478 1245.33 L111.478 1249.26 L91.5706 1249.26 L91.5706 1245.33 Z" fill="#000000" fill-rule="nonzero" fill-opacity="1" /><path clip-path="url(#clip690)" d="M120.922 1243.38 L125.807 1243.38 L125.807 1249.26 L120.922 1249.26 L120.922 1243.38 Z" fill="#000000" fill-rule="nonzero" fill-opacity="1" /><path clip-path="url(#clip690)" d="M145.992 1217.78 Q142.381 1217.78 140.552 1221.35 Q138.746 1224.89 138.746 1232.02 Q138.746 1239.12 140.552 1242.69 Q142.381 1246.23 145.992 1246.23 Q149.626 1246.23 151.431 1242.69 Q153.26 1239.12 153.26 1232.02 Q153.26 1224.89 151.431 1221.35 Q149.626 1217.78 145.992 1217.78 M145.992 1214.08 Q151.802 1214.08 154.857 1218.68 Q157.936 1223.27 157.936 1232.02 Q157.936 1240.74 154.857 1245.35 Q151.802 1249.93 145.992 1249.93 Q140.181 1249.93 137.103 1245.35 Q134.047 1240.74 134.047 1232.02 Q134.047 1223.27 137.103 1218.68 Q140.181 1214.08 145.992 1214.08 Z" fill="#000000" fill-rule="nonzero" fill-opacity="1" /><path clip-path="url(#clip690)" d="M51.9875 1034.81 L81.6633 1034.81 L81.6633 1038.74 L51.9875 1038.74 L51.9875 1034.81 Z" fill="#000000" fill-rule="nonzero" fill-opacity="1" /><path clip-path="url(#clip690)" d="M101.756 1020.15 Q98.1447 1020.15 96.316 1023.72 Q94.5104 1027.26 94.5104 1034.39 Q94.5104 1041.5 96.316 1045.06 Q98.1447 1048.6 101.756 1048.6 Q105.39 1048.6 107.196 1045.06 Q109.024 1041.5 109.024 1034.39 Q109.024 1027.26 107.196 1023.72 Q105.39 1020.15 101.756 1020.15 M101.756 1016.45 Q107.566 1016.45 110.621 1021.06 Q113.7 1025.64 113.7 1034.39 Q113.7 1043.12 110.621 1047.72 Q107.566 1052.31 101.756 1052.31 Q95.9456 1052.31 92.8669 1047.72 Q89.8114 1043.12 89.8114 1034.39 Q89.8114 1025.64 92.8669 1021.06 Q95.9456 1016.45 101.756 1016.45 Z" fill="#000000" fill-rule="nonzero" fill-opacity="1" /><path clip-path="url(#clip690)" d="M121.918 1045.76 L126.802 1045.76 L126.802 1051.64 L121.918 1051.64 L121.918 1045.76 Z" fill="#000000" fill-rule="nonzero" fill-opacity="1" /><path clip-path="url(#clip690)" d="M137.033 1017.08 L155.39 1017.08 L155.39 1021.01 L141.316 1021.01 L141.316 1029.48 Q142.334 1029.14 143.353 1028.97 Q144.371 1028.79 145.39 1028.79 Q151.177 1028.79 154.556 1031.96 Q157.936 1035.13 157.936 1040.55 Q157.936 1046.13 154.464 1049.23 Q150.992 1052.31 144.672 1052.31 Q142.496 1052.31 140.228 1051.94 Q137.982 1051.57 135.575 1050.83 L135.575 1046.13 Q137.658 1047.26 139.881 1047.82 Q142.103 1048.37 144.58 1048.37 Q148.584 1048.37 150.922 1046.27 Q153.26 1044.16 153.26 1040.55 Q153.26 1036.94 150.922 1034.83 Q148.584 1032.72 144.58 1032.72 Q142.705 1032.72 140.83 1033.14 Q138.978 1033.56 137.033 1034.44 L137.033 1017.08 Z" fill="#000000" fill-rule="nonzero" fill-opacity="1" /><path clip-path="url(#clip690)" d="M100.76 822.528 Q97.1493 822.528 95.3206 826.093 Q93.515 829.635 93.515 836.764 Q93.515 843.871 95.3206 847.436 Q97.1493 850.977 100.76 850.977 Q104.395 850.977 106.2 847.436 Q108.029 843.871 108.029 836.764 Q108.029 829.635 106.2 826.093 Q104.395 822.528 100.76 822.528 M100.76 818.825 Q106.571 818.825 109.626 823.431 Q112.705 828.014 112.705 836.764 Q112.705 845.491 109.626 850.098 Q106.571 854.681 100.76 854.681 Q94.9502 854.681 91.8715 850.098 Q88.816 845.491 88.816 836.764 Q88.816 828.014 91.8715 823.431 Q94.9502 818.825 100.76 818.825 Z" fill="#000000" fill-rule="nonzero" fill-opacity="1" /><path clip-path="url(#clip690)" d="M120.922 848.13 L125.807 848.13 L125.807 854.01 L120.922 854.01 L120.922 848.13 Z" fill="#000000" fill-rule="nonzero" fill-opacity="1" /><path clip-path="url(#clip690)" d="M145.992 822.528 Q142.381 822.528 140.552 826.093 Q138.746 829.635 138.746 836.764 Q138.746 843.871 140.552 847.436 Q142.381 850.977 145.992 850.977 Q149.626 850.977 151.431 847.436 Q153.26 843.871 153.26 836.764 Q153.26 829.635 151.431 826.093 Q149.626 822.528 145.992 822.528 M145.992 818.825 Q151.802 818.825 154.857 823.431 Q157.936 828.014 157.936 836.764 Q157.936 845.491 154.857 850.098 Q151.802 854.681 145.992 854.681 Q140.181 854.681 137.103 850.098 Q134.047 845.491 134.047 836.764 Q134.047 828.014 137.103 823.431 Q140.181 818.825 145.992 818.825 Z" fill="#000000" fill-rule="nonzero" fill-opacity="1" /><path clip-path="url(#clip690)" d="M101.756 624.902 Q98.1447 624.902 96.316 628.467 Q94.5104 632.008 94.5104 639.138 Q94.5104 646.244 96.316 649.809 Q98.1447 653.351 101.756 653.351 Q105.39 653.351 107.196 649.809 Q109.024 646.244 109.024 639.138 Q109.024 632.008 107.196 628.467 Q105.39 624.902 101.756 624.902 M101.756 621.198 Q107.566 621.198 110.621 625.805 Q113.7 630.388 113.7 639.138 Q113.7 647.865 110.621 652.471 Q107.566 657.055 101.756 657.055 Q95.9456 657.055 92.8669 652.471 Q89.8114 647.865 89.8114 639.138 Q89.8114 630.388 92.8669 625.805 Q95.9456 621.198 101.756 621.198 Z" fill="#000000" fill-rule="nonzero" fill-opacity="1" /><path clip-path="url(#clip690)" d="M121.918 650.504 L126.802 650.504 L126.802 656.383 L121.918 656.383 L121.918 650.504 Z" fill="#000000" fill-rule="nonzero" fill-opacity="1" /><path clip-path="url(#clip690)" d="M137.033 621.823 L155.39 621.823 L155.39 625.758 L141.316 625.758 L141.316 634.231 Q142.334 633.883 143.353 633.721 Q144.371 633.536 145.39 633.536 Q151.177 633.536 154.556 636.707 Q157.936 639.879 157.936 645.295 Q157.936 650.874 154.464 653.976 Q150.992 657.055 144.672 657.055 Q142.496 657.055 140.228 656.684 Q137.982 656.314 135.575 655.573 L135.575 650.874 Q137.658 652.008 139.881 652.564 Q142.103 653.119 144.58 653.119 Q148.584 653.119 150.922 651.013 Q153.26 648.906 153.26 645.295 Q153.26 641.684 150.922 639.578 Q148.584 637.471 144.58 637.471 Q142.705 637.471 140.83 637.888 Q138.978 638.305 137.033 639.184 L137.033 621.823 Z" fill="#000000" fill-rule="nonzero" fill-opacity="1" /><path clip-path="url(#clip690)" d="M91.5706 454.822 L99.2095 454.822 L99.2095 428.456 L90.8993 430.123 L90.8993 425.864 L99.1632 424.197 L103.839 424.197 L103.839 454.822 L111.478 454.822 L111.478 458.757 L91.5706 458.757 L91.5706 454.822 Z" fill="#000000" fill-rule="nonzero" fill-opacity="1" /><path clip-path="url(#clip690)" d="M120.922 452.877 L125.807 452.877 L125.807 458.757 L120.922 458.757 L120.922 452.877 Z" fill="#000000" fill-rule="nonzero" fill-opacity="1" /><path clip-path="url(#clip690)" d="M145.992 427.276 Q142.381 427.276 140.552 430.84 Q138.746 434.382 138.746 441.512 Q138.746 448.618 140.552 452.183 Q142.381 455.725 145.992 455.725 Q149.626 455.725 151.431 452.183 Q153.26 448.618 153.26 441.512 Q153.26 434.382 151.431 430.84 Q149.626 427.276 145.992 427.276 M145.992 423.572 Q151.802 423.572 154.857 428.178 Q157.936 432.762 157.936 441.512 Q157.936 450.238 154.857 454.845 Q151.802 459.428 145.992 459.428 Q140.181 459.428 137.103 454.845 Q134.047 450.238 134.047 441.512 Q134.047 432.762 137.103 428.178 Q140.181 423.572 145.992 423.572 Z" fill="#000000" fill-rule="nonzero" fill-opacity="1" /><path clip-path="url(#clip690)" d="M92.566 257.195 L100.205 257.195 L100.205 230.83 L91.8947 232.497 L91.8947 228.237 L100.159 226.571 L104.834 226.571 L104.834 257.195 L112.473 257.195 L112.473 261.131 L92.566 261.131 L92.566 257.195 Z" fill="#000000" fill-rule="nonzero" fill-opacity="1" /><path clip-path="url(#clip690)" d="M121.918 255.251 L126.802 255.251 L126.802 261.131 L121.918 261.131 L121.918 255.251 Z" fill="#000000" fill-rule="nonzero" fill-opacity="1" /><path clip-path="url(#clip690)" d="M137.033 226.571 L155.39 226.571 L155.39 230.506 L141.316 230.506 L141.316 238.978 Q142.334 238.631 143.353 238.469 Q144.371 238.284 145.39 238.284 Q151.177 238.284 154.556 241.455 Q157.936 244.626 157.936 250.043 Q157.936 255.621 154.464 258.723 Q150.992 261.802 144.672 261.802 Q142.496 261.802 140.228 261.432 Q137.982 261.061 135.575 260.32 L135.575 255.621 Q137.658 256.756 139.881 257.311 Q142.103 257.867 144.58 257.867 Q148.584 257.867 150.922 255.76 Q153.26 253.654 153.26 250.043 Q153.26 246.432 150.922 244.325 Q148.584 242.219 144.58 242.219 Q142.705 242.219 140.83 242.635 Q138.978 243.052 137.033 243.932 L137.033 226.571 Z" fill="#000000" fill-rule="nonzero" fill-opacity="1" /><polyline clip-path="url(#clip692)" style="stroke:#009af9; stroke-linecap:round; stroke-linejoin:round; stroke-width:4; stroke-opacity:1; fill:none" points="193.936,836.73 196.097,838.23 198.258,839.71 200.419,841.17 202.58,842.611 204.741,844.033 206.902,845.437 209.063,846.821 211.224,848.187 213.385,849.535 215.546,850.866 217.707,852.178 219.868,853.473 222.029,854.751 224.19,856.013 226.351,857.257 228.512,858.485 230.673,859.696 232.834,860.892 234.995,862.072 237.156,863.236 239.317,864.384 241.478,865.517 243.639,866.636 245.8,867.739 247.961,868.828 250.122,869.903 252.282,870.963 254.443,872.009 256.604,873.041 258.765,874.06 260.926,875.065 263.087,876.057 265.248,877.035 267.409,878.001 269.57,878.954 271.731,879.894 273.892,880.822 276.053,881.737 278.214,882.64 280.375,883.532 282.536,884.411 284.697,885.279 286.858,886.135 289.019,886.98 291.18,887.814 293.341,888.637 295.502,889.449 297.663,890.25 299.824,891.04 301.985,891.82 304.146,892.59 306.307,893.349 308.468,894.099 310.629,894.838 312.79,895.568 314.951,896.288 317.112,896.998 319.273,897.699 321.434,898.391 323.595,899.073 325.756,899.747 327.917,900.411 330.078,901.067 332.239,901.714 334.4,902.352 336.561,902.982 338.722,903.604 340.883,904.217 343.044,904.823 345.205,905.42 347.366,906.009 349.527,906.591 351.688,907.164 353.849,907.731 356.01,908.289 358.171,908.841 360.332,909.384 362.493,909.921 364.653,910.451 366.814,910.973 368.975,911.489 371.136,911.998 373.297,912.5 375.458,912.995 377.619,913.484 379.78,913.967 381.941,914.443 384.102,914.912 386.263,915.376 388.424,915.833 390.585,916.284 392.746,916.73 394.907,917.169 397.068,917.603 399.229,918.03 401.39,918.453 403.551,918.869 405.712,919.28 407.873,919.686 410.034,920.099 412.195,920.779 414.356,921.799 416.517,923.118 418.678,924.699 420.839,926.507 423,928.509 425.161,930.672 427.322,932.968 429.483,935.369 431.644,937.85 433.805,940.388 435.966,942.96 438.127,945.548 440.288,948.134 442.449,950.703 444.61,953.241 446.771,955.737 448.932,958.181 451.093,960.567 453.254,962.887 455.415,965.14 457.576,967.323 459.737,969.438 461.898,971.486 464.059,973.472 466.22,975.403 468.381,977.287 470.542,979.135 472.703,980.959 474.864,982.773 477.024,984.595 479.185,986.427 481.346,988.236 483.507,990.022 485.668,991.784 487.829,993.523 489.99,995.238 492.151,996.931 494.312,998.601 496.473,1000.25 498.634,1001.88 500.795,1003.48 502.956,1005.06 505.117,1006.63 507.278,1008.17 509.439,1009.69 511.6,1011.19 513.761,1012.67 515.922,1014.13 518.083,1015.58 520.244,1017 522.405,1018.41 524.566,1019.79 526.727,1021.16 528.888,1022.51 531.049,1023.84 533.21,1025.15 535.371,1026.45 537.532,1027.73 539.693,1028.99 541.854,1030.24 544.015,1031.47 546.176,1032.68 548.337,1033.88 550.498,1035.06 552.659,1036.22 554.82,1037.37 556.981,1038.51 559.142,1039.62 561.303,1040.73 563.464,1041.82 565.625,1042.89 567.786,1043.95 569.947,1045 572.108,1046.03 574.269,1047.05 576.43,1048.06 578.591,1049.05 580.752,1050.03 582.913,1051 585.074,1051.95 587.235,1052.89 589.396,1053.82 591.556,1054.74 593.717,1055.64 595.878,1056.53 598.039,1057.41 600.2,1058.28 602.361,1059.14 604.522,1059.98 606.683,1060.82 608.844,1061.63 611.005,1062.28 613.166,1062.76 615.327,1063.09 617.488,1063.27 619.649,1063.34 621.81,1063.29 623.971,1063.15 626.132,1062.93 628.293,1062.64 630.454,1062.3 632.615,1061.91 634.776,1061.48 636.937,1061.03 639.098,1060.56 641.259,1060.08 643.42,1059.6 645.581,1059.12 647.742,1058.65 649.903,1058.19 652.064,1057.75 654.225,1057.33 656.386,1056.93 658.547,1056.55 660.708,1056.19 662.869,1055.86 665.03,1055.55 667.191,1055.25 669.352,1054.97 671.513,1054.71 673.674,1054.45 675.835,1054.2 677.996,1053.94 680.157,1053.68 682.318,1053.39 684.479,1053.11 686.64,1052.84 688.801,1052.56 690.962,1052.29 693.123,1052.03 695.284,1051.76 697.445,1051.5 699.606,1051.25 701.767,1050.99 703.927,1050.74 706.088,1050.5 708.249,1050.26 710.41,1050.02 712.571,1049.78 714.732,1049.55 716.893,1049.32 719.054,1049.09 721.215,1048.87 723.376,1048.64 725.537,1048.43 727.698,1048.21 729.859,1048 732.02,1047.79 734.181,1047.58 736.342,1047.38 738.503,1047.18 740.664,1046.98 742.825,1046.78 744.986,1046.59 747.147,1046.4 749.308,1046.21 751.469,1046.02 753.63,1045.84 755.791,1045.66 757.952,1045.48 760.113,1045.3 762.274,1045.13 764.435,1044.96 766.596,1044.79 768.757,1044.62 770.918,1044.46 773.079,1044.29 775.24,1044.13 777.401,1043.97 779.562,1043.82 781.723,1043.66 783.884,1043.51 786.045,1043.36 788.206,1043.21 790.367,1043.07 792.528,1042.92 794.689,1042.78 796.85,1042.64 799.011,1042.5 801.172,1042.36 803.333,1042.23 805.494,1042.1 807.655,1041.97 809.816,1041.84 811.977,1041.71 814.138,1041.58 816.298,1041.46 818.459,1041.33 820.62,1041.21 822.781,1041.09 824.942,1040.97 827.103,1040.86 829.264,1040.56 831.425,1039.64 833.586,1038.85 835.747,1038.83 837.908,1039.99 840.069,1042.46 842.23,1046.14 844.391,1050.67 846.552,1055.41 848.713,1059.8 850.874,1064.1 853.035,1068.35 855.196,1072.54 857.357,1076.67 859.518,1080.75 861.679,1084.77 863.84,1088.74 866.001,1092.66 868.162,1096.53 870.323,1100.34 872.484,1104.1 874.645,1107.82 876.806,1111.48 878.967,1115.1 881.128,1118.67 883.289,1122.19 885.45,1125.66 887.611,1129.09 889.772,1132.47 891.933,1135.81 894.094,1139.1 896.255,1142.35 898.416,1145.56 900.577,1148.73 902.738,1151.85 904.899,1154.93 907.06,1157.97 909.221,1160.97 911.382,1163.93 913.543,1166.85 915.704,1169.73 917.865,1172.58 920.026,1175.38 922.187,1178.15 924.348,1180.88 926.509,1183.58 928.669,1186.24 930.83,1188.87 932.991,1191.46 935.152,1194.01 937.313,1196.53 939.474,1199.02 941.635,1201.48 943.796,1203.9 945.957,1206.29 948.118,1208.65 950.279,1210.98 952.44,1213.28 954.601,1215.54 956.762,1217.78 958.923,1219.99 961.084,1222.16 963.245,1224.31 965.406,1226.43 967.567,1228.52 969.728,1230.59 971.889,1232.63 974.05,1234.64 976.211,1236.62 978.372,1238.58 980.533,1240.51 982.694,1242.41 984.855,1244.29 987.016,1246.15 989.177,1247.98 991.338,1249.79 993.499,1251.57 995.66,1253.33 997.821,1255.06 999.982,1256.78 1002.14,1258.47 1004.3,1260.13 1006.46,1261.78 1008.63,1263.4 1010.79,1265 1012.95,1266.59 1015.11,1268.15 1017.27,1269.68 1019.43,1271.2 1021.59,1272.7 1023.75,1274.18 1025.91,1275.64 1028.07,1277.08 1030.24,1278.5 1032.4,1279.9 1034.56,1281.29 1036.72,1282.65 1038.88,1284 1041.04,1285.33 1043.2,1286.64 1045.36,1287.83 1047.52,1288.18 1049.68,1287.66 1051.85,1286.4 1054.01,1284.51 1056.17,1282.08 1058.33,1279.22 1060.49,1276.01 1062.65,1272.53 1064.81,1268.87 1066.97,1265.08 1069.13,1261.22 1071.29,1257.35 1073.46,1253.5 1075.62,1249.73 1077.78,1246.05 1079.94,1242.48 1082.1,1239.05 1084.26,1235.76 1086.42,1232.6 1088.58,1229.57 1090.74,1226.66 1092.9,1223.84 1095.07,1221.07 1097.23,1218.33 1099.39,1215.57 1101.55,1212.77 1103.71,1209.99 1105.87,1207.26 1108.03,1204.55 1110.19,1201.89 1112.35,1199.26 1114.51,1196.66 1116.67,1194.1 1118.84,1191.58 1121,1189.08 1123.16,1186.62 1125.32,1184.2 1127.48,1181.8 1129.64,1179.44 1131.8,1177.1 1133.96,1174.8 1136.12,1172.53 1138.28,1170.29 1140.45,1168.08 1142.61,1165.9 1144.77,1163.74 1146.93,1161.62 1149.09,1159.52 1151.25,1157.45 1153.41,1155.41 1155.57,1153.4 1157.73,1151.41 1159.89,1149.45 1162.06,1147.51 1164.22,1145.61 1166.38,1143.72 1168.54,1141.86 1170.7,1140.03 1172.86,1138.22 1175.02,1136.43 1177.18,1134.67 1179.34,1132.93 1181.5,1131.22 1183.67,1129.52 1185.83,1127.85 1187.99,1126.21 1190.15,1124.58 1192.31,1122.98 1194.47,1121.39 1196.63,1119.83 1198.79,1118.29 1200.95,1116.77 1203.11,1115.27 1205.28,1113.79 1207.44,1112.32 1209.6,1110.88 1211.76,1109.46 1213.92,1108.05 1216.08,1106.67 1218.24,1105.3 1220.4,1103.95 1222.56,1102.62 1224.72,1101.32 1226.88,1100.1 1229.05,1098.98 1231.21,1097.92 1233.37,1096.9 1235.53,1095.91 1237.69,1094.94 1239.85,1093.96 1242.01,1092.97 1244.17,1091.94 1246.33,1090.87 1248.49,1089.75 1250.66,1088.57 1252.82,1087.33 1254.98,1086.01 1257.14,1084.61 1259.3,1083.13 1261.46,1081.57 1263.62,1079.93 1265.78,1078.21 1267.94,1076.41 1270.1,1074.53 1272.27,1072.58 1274.43,1070.57 1276.59,1068.51 1278.75,1066.4 1280.91,1064.25 1283.07,1062.08 1285.23,1059.89 1287.39,1057.71 1289.55,1055.55 1291.71,1053.43 1293.88,1051.37 1296.04,1049.38 1298.2,1047.44 1300.36,1045.53 1302.52,1043.65 1304.68,1041.79 1306.84,1039.96 1309,1038.15 1311.16,1036.37 1313.32,1034.61 1315.49,1032.87 1317.65,1031.15 1319.81,1029.46 1321.97,1027.79 1324.13,1026.14 1326.29,1024.52 1328.45,1022.91 1330.61,1021.33 1332.77,1019.77 1334.93,1018.23 1337.09,1016.71 1339.26,1015.21 1341.42,1013.73 1343.58,1012.27 1345.74,1010.82 1347.9,1009.4 1350.06,1008 1352.22,1006.61 1354.38,1005.24 1356.54,1003.9 1358.7,1002.56 1360.87,1001.25 1363.03,999.954 1365.19,998.675 1367.35,997.413 1369.51,996.168 1371.67,994.939 1373.83,993.726 1375.99,992.53 1378.15,991.349 1380.31,990.184 1382.48,989.035 1384.64,987.901 1386.8,986.782 1388.96,985.677 1391.12,984.588 1393.28,983.513 1395.44,982.452 1397.6,981.406 1399.76,980.373 1401.92,979.354 1404.09,978.349 1406.25,977.357 1408.41,976.379 1410.57,975.413 1412.73,974.46 1414.89,973.52 1417.05,972.592 1419.21,971.677 1421.37,970.774 1423.53,969.883 1425.7,969.003 1427.86,968.136 1430.02,967.28 1432.18,966.435 1434.34,965.601 1436.5,964.779 1438.66,963.967 1440.82,963.166 1442.98,962.376 1445.14,961.596 1447.3,960.827 1449.47,960.068 1451.63,959.318 1453.79,958.579 1455.95,957.849 1458.11,957.129 1460.27,956.419 1462.43,955.717 1464.59,955.026 1466.75,954.343 1468.91,953.669 1471.08,953.004 1473.24,952.348 1475.4,951.701 1477.56,951.062 1479.72,950.432 1481.88,949.81 1484.04,949.196 1486.2,948.591 1488.36,947.98 1490.52,947.001 1492.69,945.538 1494.85,943.649 1497.01,941.389 1499.17,938.81 1501.33,935.961 1503.49,932.888 1505.65,929.634 1507.81,926.239 1509.97,922.74 1512.13,919.17 1514.3,915.56 1516.46,911.938 1518.62,908.328 1520.78,904.751 1522.94,901.226 1525.1,897.769 1527.26,894.391 1529.42,891.102 1531.58,887.909 1533.74,884.813 1535.91,881.816 1538.07,878.913 1540.23,876.1 1542.39,873.367 1544.55,870.702 1546.71,868.089 1548.87,865.51 1551.03,862.945 1553.19,860.367 1555.35,857.779 1557.51,855.222 1559.68,852.7 1561.84,850.212 1564,847.756 1566.16,845.333 1568.32,842.942 1570.48,840.583 1572.64,838.255 1574.8,835.957 1576.96,833.691 1579.12,831.454 1581.29,829.247 1583.45,827.069 1585.61,824.92 1587.77,822.8 1589.93,820.708 1592.09,818.643 1594.25,816.606 1596.41,814.596 1598.57,812.612 1600.73,810.655 1602.9,808.723 1605.06,806.818 1607.22,804.937 1609.38,803.082 1611.54,801.251 1613.7,799.444 1615.86,797.662 1618.02,795.903 1620.18,794.167 1622.34,792.455 1624.51,790.765 1626.67,789.097 1628.83,787.452 1630.99,785.828 1633.15,784.226 1635.31,782.646 1637.47,781.086 1639.63,779.547 1641.79,778.028 1643.95,776.529 1646.12,775.05 1648.28,773.591 1650.44,772.151 1652.6,770.731 1654.76,769.329 1656.92,767.945 1659.08,766.58 1661.24,765.233 1663.4,763.904 1665.56,762.593 1667.72,761.299 1669.89,760.022 1672.05,758.762 1674.21,757.519 1676.37,756.292 1678.53,755.082 1680.69,753.887 1682.85,752.709 1685.01,751.546 1687.17,750.398 1689.33,749.266 1691.5,748.148 1693.66,747.046 1695.82,745.958 1697.98,744.884 1700.14,743.501 1702.3,740.933 1704.46,737.258 1706.62,732.615 1708.78,727.131 1710.94,720.927 1713.11,714.119 1715.27,706.813 1717.43,699.108 1719.59,691.097 1721.75,682.865 1723.91,674.49 1726.07,666.042 1728.23,657.585 1730.39,649.174 1732.55,640.858 1734.72,632.679 1736.88,624.671 1739.04,616.859 1741.2,609.265 1743.36,601.9 1745.52,594.769 1747.68,587.87 1749.84,581.193 1752,574.721 1754.16,568.431 1756.33,562.29 1758.49,556.26 1760.65,550.295 1762.81,544.342 1764.97,538.34 1767.13,532.345 1769.29,526.43 1771.45,520.593 1773.61,514.834 1775.77,509.151 1777.93,503.543 1780.1,498.01 1782.26,492.55 1784.42,487.162 1786.58,481.846 1788.74,476.6 1790.9,471.424 1793.06,466.317 1795.22,461.277 1797.38,456.304 1799.54,451.397 1801.71,446.555 1803.87,441.777 1806.03,437.062 1808.19,432.41 1810.35,427.819 1812.51,423.289 1814.67,418.818 1816.83,414.407 1818.99,410.055 1821.15,405.76 1823.32,401.522 1825.48,397.341 1827.64,393.215 1829.8,389.144 1831.96,385.126 1834.12,381.162 1836.28,377.251 1838.44,373.392 1840.6,369.584 1842.76,365.826 1844.93,362.119 1847.09,358.461 1849.25,354.851 1851.41,351.289 1853.57,347.775 1855.73,344.307 1857.89,340.885 1860.05,337.509 1862.21,334.178 1864.37,330.891 1866.54,327.647 1868.7,324.446 1870.86,321.288 1873.02,318.172 1875.18,315.097 1877.34,312.063 1879.5,309.069 1881.66,306.114 1883.82,303.199 1885.98,300.323 1888.15,297.484 1890.31,294.683 1892.47,291.919 1894.63,289.192 1896.79,286.5 1898.95,283.845 1901.11,281.224 1903.27,278.638 1905.43,276.087 1907.59,273.569 1909.75,271.085 1911.92,268.633 1914.08,266.74 1916.24,266.477 1918.4,267.706 1920.56,270.253 1922.72,273.954 1924.88,278.654 1927.04,284.205 1929.2,290.47 1931.36,297.321 1933.53,304.638 1935.69,312.31 1937.85,320.236 1940.01,328.323 1942.17,336.487 1944.33,344.654 1946.49,352.758 1948.65,360.742 1950.81,368.559 1952.97,376.169 1955.14,383.544 1957.3,390.661 1959.46,397.51 1961.62,404.088 1963.78,410.4 1965.94,416.462 1968.1,422.298 1970.26,427.941 1972.42,433.433 1974.58,438.826 1976.75,444.179 1978.91,449.561 1981.07,455.046 1983.23,460.534 1985.39,465.95 1987.55,471.293 1989.71,476.566 1991.87,481.769 1994.03,486.903 1996.19,491.968 1998.36,496.967 2000.52,501.899 2002.68,506.766 2004.84,511.568 2007,516.307 2009.16,520.983 2011.32,525.597 2013.48,530.15 2015.64,534.642 2017.8,539.075 2019.96,543.45 2022.13,547.766 2024.29,552.026 2026.45,556.229 2028.61,560.376 2030.77,564.468 2032.93,568.506 2035.09,572.491 2037.25,576.423 2039.41,580.302 2041.57,584.13 2043.74,587.907 2045.9,591.634 2048.06,595.312 2050.22,598.94 2052.38,602.521 2054.54,606.054 2056.7,609.54 2058.86,612.979 2061.02,616.373 2063.18,619.722 2065.35,623.027 2067.51,626.287 2069.67,629.505 2071.83,632.679 2073.99,635.812 2076.15,638.903 2078.31,641.953 2080.47,644.962 2082.63,647.932 2084.79,650.862 2086.96,653.753 2089.12,656.606 2091.28,659.422 2093.44,662.2 2095.6,664.941 2097.76,667.646 2099.92,670.315 2102.08,672.949 2104.24,675.548 2106.4,678.112 2108.57,680.643 2110.73,683.14 2112.89,685.604 2115.05,688.036 2117.21,690.435 2119.37,692.802 2121.53,695.138 2123.69,697.443 2125.85,699.717 2128.01,701.961 2130.17,704.176 2132.34,706.361 2134.5,708.624 2136.66,711.817 2138.82,716.005 2140.98,721.049 2143.14,726.821 2145.3,733.2 2147.46,740.072 2149.62,747.332 2151.78,754.886 2153.95,762.644 2156.11,770.528 2158.27,778.467 2160.43,786.396 2162.59,794.262 2164.75,802.019 2166.91,809.628 2169.07,817.061 2171.23,824.295 2173.39,831.318 2175.56,838.125 2177.72,844.721 2179.88,851.116 2182.04,857.332 2184.2,863.398 2186.36,869.349 2188.52,875.232 2190.68,881.101 2192.84,887.007 2195,892.869 2197.17,898.654 2199.33,904.362 2201.49,909.994 2203.65,915.552 2205.81,921.035 2207.97,926.447 2210.13,931.786 2212.29,937.055 2214.45,942.254 2216.61,947.384 2218.78,952.445 2220.94,957.44 2223.1,962.369 2225.26,967.232 2227.42,972.031 2229.58,976.766 2231.74,981.439 2233.9,986.05 2236.06,990.599 2238.22,995.088 2240.38,999.518 2242.55,1003.89 2244.71,1008.2 2246.87,1012.46 2249.03,1016.66 2251.19,1020.8 2253.35,1024.89 2255.51,1028.92 2257.67,1032.9 2259.83,1036.83 2261.99,1040.71 2264.16,1044.53 2266.32,1048.31 2268.48,1052.03 2270.64,1055.7 2272.8,1059.33 2274.96,1062.91 2277.12,1066.44 2279.28,1069.92 2281.44,1073.36 2283.6,1076.75 2285.77,1080.1 2287.93,1083.4 2290.09,1086.66 2292.25,1089.87 2294.41,1093.04 2296.57,1096.18 2298.73,1099.26 2300.89,1102.31 2303.05,1105.32 2305.21,1108.29 2307.38,1111.22 2309.54,1114.11 2311.7,1116.96 2313.86,1119.77 2316.02,1122.55 2318.18,1125.29 2320.34,1127.99 2322.5,1130.66 2324.66,1133.29 2326.82,1135.89 2328.99,1138.45 2331.15,1140.98 2333.31,1143.47 2335.47,1145.94 2337.63,1148.37 2339.79,1150.76 2341.95,1153.13 2344.11,1155.46 2346.27,1157.77 2348.43,1160.04 2350.59,1162.28 2352.76,1164.49 "/>
<polyline clip-path="url(#clip692)" style="stroke:#e26f46; stroke-linecap:round; stroke-linejoin:round; stroke-width:4; stroke-opacity:1; fill:none" points="193.936,949.869 196.097,949.869 198.258,949.869 200.419,949.869 202.58,949.869 204.741,949.869 206.902,949.869 209.063,949.869 211.224,949.869 213.385,949.869 215.546,949.869 217.707,949.869 219.868,949.869 222.029,949.869 224.19,949.869 226.351,949.869 228.512,949.869 230.673,949.869 232.834,949.869 234.995,949.869 237.156,949.869 239.317,949.869 241.478,949.869 243.639,949.869 245.8,949.869 247.961,949.869 250.122,949.869 252.282,949.869 254.443,949.869 256.604,949.869 258.765,949.869 260.926,949.869 263.087,949.869 265.248,949.869 267.409,949.869 269.57,949.869 271.731,949.869 273.892,949.869 276.053,949.869 278.214,949.869 280.375,949.869 282.536,949.869 284.697,949.869 286.858,949.869 289.019,949.869 291.18,949.869 293.341,949.869 295.502,949.869 297.663,949.869 299.824,949.869 301.985,949.869 304.146,949.869 306.307,949.869 308.468,949.869 310.629,949.869 312.79,949.869 314.951,949.869 317.112,949.869 319.273,949.869 321.434,949.869 323.595,949.869 325.756,949.869 327.917,949.869 330.078,949.869 332.239,949.869 334.4,949.869 336.561,949.869 338.722,949.869 340.883,949.869 343.044,949.869 345.205,949.869 347.366,949.869 349.527,949.869 351.688,949.869 353.849,949.869 356.01,949.869 358.171,949.869 360.332,949.869 362.493,949.869 364.653,949.869 366.814,949.869 368.975,949.869 371.136,949.869 373.297,949.869 375.458,949.869 377.619,949.869 379.78,949.869 381.941,949.869 384.102,949.869 386.263,949.869 388.424,949.869 390.585,949.869 392.746,949.869 394.907,949.869 397.068,949.869 399.229,949.869 401.39,949.869 403.551,949.869 405.712,949.869 407.873,949.869 410.034,1122.92 412.195,1122.92 414.356,1122.92 416.517,1122.92 418.678,1122.92 420.839,1122.92 423,1122.92 425.161,1122.92 427.322,1122.92 429.483,1122.92 431.644,1122.92 433.805,1122.92 435.966,1122.92 438.127,1122.92 440.288,1122.92 442.449,1122.92 444.61,1122.92 446.771,1122.92 448.932,1122.92 451.093,1122.92 453.254,1122.92 455.415,1122.92 457.576,1122.92 459.737,1122.92 461.898,1122.92 464.059,1122.92 466.22,1122.92 468.381,1122.92 470.542,1122.92 472.703,1122.92 474.864,1122.92 477.024,1122.92 479.185,1122.92 481.346,1122.92 483.507,1122.92 485.668,1122.92 487.829,1122.92 489.99,1122.92 492.151,1122.92 494.312,1122.92 496.473,1122.92 498.634,1122.92 500.795,1122.92 502.956,1122.92 505.117,1122.92 507.278,1122.92 509.439,1122.92 511.6,1122.92 513.761,1122.92 515.922,1122.92 518.083,1122.92 520.244,1122.92 522.405,1122.92 524.566,1122.92 526.727,1122.92 528.888,1122.92 531.049,1122.92 533.21,1122.92 535.371,1122.92 537.532,1122.92 539.693,1122.92 541.854,1122.92 544.015,1122.92 546.176,1122.92 548.337,1122.92 550.498,1122.92 552.659,1122.92 554.82,1122.92 556.981,1122.92 559.142,1122.92 561.303,1122.92 563.464,1122.92 565.625,1122.92 567.786,1122.92 569.947,1122.92 572.108,1122.92 574.269,1122.92 576.43,1122.92 578.591,1122.92 580.752,1122.92 582.913,1122.92 585.074,1122.92 587.235,1122.92 589.396,1122.92 591.556,1122.92 593.717,1122.92 595.878,1122.92 598.039,1122.92 600.2,1122.92 602.361,1122.92 604.522,1122.92 606.683,1122.92 608.844,1122.92 611.005,1122.92 613.166,1122.92 615.327,1122.92 617.488,1122.92 619.649,1122.92 621.81,1122.92 623.971,1122.92 626.132,1032.19 628.293,1032.19 630.454,1032.19 632.615,1032.19 634.776,1032.19 636.937,1032.19 639.098,1032.19 641.259,1032.19 643.42,1032.19 645.581,1032.19 647.742,1032.19 649.903,1032.19 652.064,1032.19 654.225,1032.19 656.386,1032.19 658.547,1032.19 660.708,1032.19 662.869,1032.19 665.03,1032.19 667.191,1032.19 669.352,1032.19 671.513,1032.19 673.674,1032.19 675.835,1032.19 677.996,1032.19 680.157,1032.19 682.318,1032.19 684.479,1032.19 686.64,1032.19 688.801,1032.19 690.962,1032.19 693.123,1032.19 695.284,1032.19 697.445,1032.19 699.606,1032.19 701.767,1032.19 703.927,1032.19 706.088,1032.19 708.249,1032.19 710.41,1032.19 712.571,1032.19 714.732,1032.19 716.893,1032.19 719.054,1032.19 721.215,1032.19 723.376,1032.19 725.537,1032.19 727.698,1032.19 729.859,1032.19 732.02,1032.19 734.181,1032.19 736.342,1032.19 738.503,1032.19 740.664,1032.19 742.825,1032.19 744.986,1032.19 747.147,1032.19 749.308,1032.19 751.469,1032.19 753.63,1032.19 755.791,1032.19 757.952,1032.19 760.113,1032.19 762.274,1032.19 764.435,1032.19 766.596,1032.19 768.757,1032.19 770.918,1032.19 773.079,1032.19 775.24,1032.19 777.401,1032.19 779.562,1032.19 781.723,1032.19 783.884,1032.19 786.045,1032.19 788.206,1032.19 790.367,1032.19 792.528,1032.19 794.689,1032.19 796.85,1032.19 799.011,1032.19 801.172,1032.19 803.333,1032.19 805.494,1032.19 807.655,1032.19 809.816,1032.19 811.977,1032.19 814.138,1032.19 816.298,1032.19 818.459,1032.19 820.62,1032.19 822.781,1032.19 824.942,1032.19 827.103,1032.19 829.264,1032.19 831.425,1032.19 833.586,1032.19 835.747,1032.19 837.908,1032.19 840.069,1032.19 842.23,1384.24 844.391,1384.24 846.552,1384.24 848.713,1384.24 850.874,1384.24 853.035,1384.24 855.196,1384.24 857.357,1384.24 859.518,1384.24 861.679,1384.24 863.84,1384.24 866.001,1384.24 868.162,1384.24 870.323,1384.24 872.484,1384.24 874.645,1384.24 876.806,1384.24 878.967,1384.24 881.128,1384.24 883.289,1384.24 885.45,1384.24 887.611,1384.24 889.772,1384.24 891.933,1384.24 894.094,1384.24 896.255,1384.24 898.416,1384.24 900.577,1384.24 902.738,1384.24 904.899,1384.24 907.06,1384.24 909.221,1384.24 911.382,1384.24 913.543,1384.24 915.704,1384.24 917.865,1384.24 920.026,1384.24 922.187,1384.24 924.348,1384.24 926.509,1384.24 928.669,1384.24 930.83,1384.24 932.991,1384.24 935.152,1384.24 937.313,1384.24 939.474,1384.24 941.635,1384.24 943.796,1384.24 945.957,1384.24 948.118,1384.24 950.279,1384.24 952.44,1384.24 954.601,1384.24 956.762,1384.24 958.923,1384.24 961.084,1384.24 963.245,1384.24 965.406,1384.24 967.567,1384.24 969.728,1384.24 971.889,1384.24 974.05,1384.24 976.211,1384.24 978.372,1384.24 980.533,1384.24 982.694,1384.24 984.855,1384.24 987.016,1384.24 989.177,1384.24 991.338,1384.24 993.499,1384.24 995.66,1384.24 997.821,1384.24 999.982,1384.24 1002.14,1384.24 1004.3,1384.24 1006.46,1384.24 1008.63,1384.24 1010.79,1384.24 1012.95,1384.24 1015.11,1384.24 1017.27,1384.24 1019.43,1384.24 1021.59,1384.24 1023.75,1384.24 1025.91,1384.24 1028.07,1384.24 1030.24,1384.24 1032.4,1384.24 1034.56,1384.24 1036.72,1384.24 1038.88,1384.24 1041.04,1384.24 1043.2,1384.24 1045.36,1384.24 1047.52,1384.24 1049.68,1384.24 1051.85,1384.24 1054.01,1384.24 1056.17,1384.24 1058.33,1003.52 1060.49,1003.52 1062.65,1003.52 1064.81,1003.52 1066.97,1003.52 1069.13,1003.52 1071.29,1003.52 1073.46,1003.52 1075.62,1003.52 1077.78,1003.52 1079.94,1003.52 1082.1,1003.52 1084.26,1003.52 1086.42,1003.52 1088.58,1003.52 1090.74,1003.52 1092.9,1003.52 1095.07,1003.52 1097.23,1003.52 1099.39,1003.52 1101.55,1003.52 1103.71,1003.52 1105.87,1003.52 1108.03,1003.52 1110.19,1003.52 1112.35,1003.52 1114.51,1003.52 1116.67,1003.52 1118.84,1003.52 1121,1003.52 1123.16,1003.52 1125.32,1003.52 1127.48,1003.52 1129.64,1003.52 1131.8,1003.52 1133.96,1003.52 1136.12,1003.52 1138.28,1003.52 1140.45,1003.52 1142.61,1003.52 1144.77,1003.52 1146.93,1003.52 1149.09,1003.52 1151.25,1003.52 1153.41,1003.52 1155.57,1003.52 1157.73,1003.52 1159.89,1003.52 1162.06,1003.52 1164.22,1003.52 1166.38,1003.52 1168.54,1003.52 1170.7,1003.52 1172.86,1003.52 1175.02,1003.52 1177.18,1003.52 1179.34,1003.52 1181.5,1003.52 1183.67,1003.52 1185.83,1003.52 1187.99,1003.52 1190.15,1003.52 1192.31,1003.52 1194.47,1003.52 1196.63,1003.52 1198.79,1003.52 1200.95,1003.52 1203.11,1003.52 1205.28,1003.52 1207.44,1003.52 1209.6,1003.52 1211.76,1003.52 1213.92,1003.52 1216.08,1003.52 1218.24,1003.52 1220.4,1003.52 1222.56,1003.52 1224.72,1003.52 1226.88,1003.52 1229.05,1003.52 1231.21,1003.52 1233.37,1003.52 1235.53,1003.52 1237.69,1003.52 1239.85,1003.52 1242.01,1003.52 1244.17,1003.52 1246.33,1003.52 1248.49,1003.52 1250.66,1003.52 1252.82,1003.52 1254.98,1003.52 1257.14,1003.52 1259.3,1003.52 1261.46,1003.52 1263.62,1003.52 1265.78,1003.52 1267.94,1003.52 1270.1,1003.52 1272.27,1003.52 1274.43,903.524 1276.59,903.524 1278.75,903.524 1280.91,903.524 1283.07,903.524 1285.23,903.524 1287.39,903.524 1289.55,903.524 1291.71,903.524 1293.88,903.524 1296.04,903.524 1298.2,903.524 1300.36,903.524 1302.52,903.524 1304.68,903.524 1306.84,903.524 1309,903.524 1311.16,903.524 1313.32,903.524 1315.49,903.524 1317.65,903.524 1319.81,903.524 1321.97,903.524 1324.13,903.524 1326.29,903.524 1328.45,903.524 1330.61,903.524 1332.77,903.524 1334.93,903.524 1337.09,903.524 1339.26,903.524 1341.42,903.524 1343.58,903.524 1345.74,903.524 1347.9,903.524 1350.06,903.524 1352.22,903.524 1354.38,903.524 1356.54,903.524 1358.7,903.524 1360.87,903.524 1363.03,903.524 1365.19,903.524 1367.35,903.524 1369.51,903.524 1371.67,903.524 1373.83,903.524 1375.99,903.524 1378.15,903.524 1380.31,903.524 1382.48,903.524 1384.64,903.524 1386.8,903.524 1388.96,903.524 1391.12,903.524 1393.28,903.524 1395.44,903.524 1397.6,903.524 1399.76,903.524 1401.92,903.524 1404.09,903.524 1406.25,903.524 1408.41,903.524 1410.57,903.524 1412.73,903.524 1414.89,903.524 1417.05,903.524 1419.21,903.524 1421.37,903.524 1423.53,903.524 1425.7,903.524 1427.86,903.524 1430.02,903.524 1432.18,903.524 1434.34,903.524 1436.5,903.524 1438.66,903.524 1440.82,903.524 1442.98,903.524 1445.14,903.524 1447.3,903.524 1449.47,903.524 1451.63,903.524 1453.79,903.524 1455.95,903.524 1458.11,903.524 1460.27,903.524 1462.43,903.524 1464.59,903.524 1466.75,903.524 1468.91,903.524 1471.08,903.524 1473.24,903.524 1475.4,903.524 1477.56,903.524 1479.72,903.524 1481.88,903.524 1484.04,903.524 1486.2,903.524 1488.36,903.524 1490.52,664.989 1492.69,664.989 1494.85,664.989 1497.01,664.989 1499.17,664.989 1501.33,664.989 1503.49,664.989 1505.65,664.989 1507.81,664.989 1509.97,664.989 1512.13,664.989 1514.3,664.989 1516.46,664.989 1518.62,664.989 1520.78,664.989 1522.94,664.989 1525.1,664.989 1527.26,664.989 1529.42,664.989 1531.58,664.989 1533.74,664.989 1535.91,664.989 1538.07,664.989 1540.23,664.989 1542.39,664.989 1544.55,664.989 1546.71,664.989 1548.87,664.989 1551.03,664.989 1553.19,664.989 1555.35,664.989 1557.51,664.989 1559.68,664.989 1561.84,664.989 1564,664.989 1566.16,664.989 1568.32,664.989 1570.48,664.989 1572.64,664.989 1574.8,664.989 1576.96,664.989 1579.12,664.989 1581.29,664.989 1583.45,664.989 1585.61,664.989 1587.77,664.989 1589.93,664.989 1592.09,664.989 1594.25,664.989 1596.41,664.989 1598.57,664.989 1600.73,664.989 1602.9,664.989 1605.06,664.989 1607.22,664.989 1609.38,664.989 1611.54,664.989 1613.7,664.989 1615.86,664.989 1618.02,664.989 1620.18,664.989 1622.34,664.989 1624.51,664.989 1626.67,664.989 1628.83,664.989 1630.99,664.989 1633.15,664.989 1635.31,664.989 1637.47,664.989 1639.63,664.989 1641.79,664.989 1643.95,664.989 1646.12,664.989 1648.28,664.989 1650.44,664.989 1652.6,664.989 1654.76,664.989 1656.92,664.989 1659.08,664.989 1661.24,664.989 1663.4,664.989 1665.56,664.989 1667.72,664.989 1669.89,664.989 1672.05,664.989 1674.21,664.989 1676.37,664.989 1678.53,664.989 1680.69,664.989 1682.85,664.989 1685.01,664.989 1687.17,664.989 1689.33,664.989 1691.5,664.989 1693.66,664.989 1695.82,664.989 1697.98,664.989 1700.14,664.989 1702.3,664.989 1704.46,664.989 1706.62,86.1857 1708.78,86.1857 1710.94,86.1857 1713.11,86.1857 1715.27,86.1857 1717.43,86.1857 1719.59,86.1857 1721.75,86.1857 1723.91,86.1857 1726.07,86.1857 1728.23,86.1857 1730.39,86.1857 1732.55,86.1857 1734.72,86.1857 1736.88,86.1857 1739.04,86.1857 1741.2,86.1857 1743.36,86.1857 1745.52,86.1857 1747.68,86.1857 1749.84,86.1857 1752,86.1857 1754.16,86.1857 1756.33,86.1857 1758.49,86.1857 1760.65,86.1857 1762.81,86.1857 1764.97,86.1857 1767.13,86.1857 1769.29,86.1857 1771.45,86.1857 1773.61,86.1857 1775.77,86.1857 1777.93,86.1857 1780.1,86.1857 1782.26,86.1857 1784.42,86.1857 1786.58,86.1857 1788.74,86.1857 1790.9,86.1857 1793.06,86.1857 1795.22,86.1857 1797.38,86.1857 1799.54,86.1857 1801.71,86.1857 1803.87,86.1857 1806.03,86.1857 1808.19,86.1857 1810.35,86.1857 1812.51,86.1857 1814.67,86.1857 1816.83,86.1857 1818.99,86.1857 1821.15,86.1857 1823.32,86.1857 1825.48,86.1857 1827.64,86.1857 1829.8,86.1857 1831.96,86.1857 1834.12,86.1857 1836.28,86.1857 1838.44,86.1857 1840.6,86.1857 1842.76,86.1857 1844.93,86.1857 1847.09,86.1857 1849.25,86.1857 1851.41,86.1857 1853.57,86.1857 1855.73,86.1857 1857.89,86.1857 1860.05,86.1857 1862.21,86.1857 1864.37,86.1857 1866.54,86.1857 1868.7,86.1857 1870.86,86.1857 1873.02,86.1857 1875.18,86.1857 1877.34,86.1857 1879.5,86.1857 1881.66,86.1857 1883.82,86.1857 1885.98,86.1857 1888.15,86.1857 1890.31,86.1857 1892.47,86.1857 1894.63,86.1857 1896.79,86.1857 1898.95,86.1857 1901.11,86.1857 1903.27,86.1857 1905.43,86.1857 1907.59,86.1857 1909.75,86.1857 1911.92,86.1857 1914.08,86.1857 1916.24,86.1857 1918.4,86.1857 1920.56,86.1857 1922.72,868.99 1924.88,868.99 1927.04,868.99 1929.2,868.99 1931.36,868.99 1933.53,868.99 1935.69,868.99 1937.85,868.99 1940.01,868.99 1942.17,868.99 1944.33,868.99 1946.49,868.99 1948.65,868.99 1950.81,868.99 1952.97,868.99 1955.14,868.99 1957.3,868.99 1959.46,868.99 1961.62,868.99 1963.78,868.99 1965.94,868.99 1968.1,868.99 1970.26,868.99 1972.42,868.99 1974.58,868.99 1976.75,868.99 1978.91,868.99 1981.07,868.99 1983.23,868.99 1985.39,868.99 1987.55,868.99 1989.71,868.99 1991.87,868.99 1994.03,868.99 1996.19,868.99 1998.36,868.99 2000.52,868.99 2002.68,868.99 2004.84,868.99 2007,868.99 2009.16,868.99 2011.32,868.99 2013.48,868.99 2015.64,868.99 2017.8,868.99 2019.96,868.99 2022.13,868.99 2024.29,868.99 2026.45,868.99 2028.61,868.99 2030.77,868.99 2032.93,868.99 2035.09,868.99 2037.25,868.99 2039.41,868.99 2041.57,868.99 2043.74,868.99 2045.9,868.99 2048.06,868.99 2050.22,868.99 2052.38,868.99 2054.54,868.99 2056.7,868.99 2058.86,868.99 2061.02,868.99 2063.18,868.99 2065.35,868.99 2067.51,868.99 2069.67,868.99 2071.83,868.99 2073.99,868.99 2076.15,868.99 2078.31,868.99 2080.47,868.99 2082.63,868.99 2084.79,868.99 2086.96,868.99 2089.12,868.99 2091.28,868.99 2093.44,868.99 2095.6,868.99 2097.76,868.99 2099.92,868.99 2102.08,868.99 2104.24,868.99 2106.4,868.99 2108.57,868.99 2110.73,868.99 2112.89,868.99 2115.05,868.99 2117.21,868.99 2119.37,868.99 2121.53,868.99 2123.69,868.99 2125.85,868.99 2128.01,868.99 2130.17,868.99 2132.34,868.99 2134.5,868.99 2136.66,868.99 2138.82,1329.18 2140.98,1329.18 2143.14,1329.18 2145.3,1329.18 2147.46,1329.18 2149.62,1329.18 2151.78,1329.18 2153.95,1329.18 2156.11,1329.18 2158.27,1329.18 2160.43,1329.18 2162.59,1329.18 2164.75,1329.18 2166.91,1329.18 2169.07,1329.18 2171.23,1329.18 2173.39,1329.18 2175.56,1329.18 2177.72,1329.18 2179.88,1329.18 2182.04,1329.18 2184.2,1329.18 2186.36,1329.18 2188.52,1329.18 2190.68,1329.18 2192.84,1329.18 2195,1329.18 2197.17,1329.18 2199.33,1329.18 2201.49,1329.18 2203.65,1329.18 2205.81,1329.18 2207.97,1329.18 2210.13,1329.18 2212.29,1329.18 2214.45,1329.18 2216.61,1329.18 2218.78,1329.18 2220.94,1329.18 2223.1,1329.18 2225.26,1329.18 2227.42,1329.18 2229.58,1329.18 2231.74,1329.18 2233.9,1329.18 2236.06,1329.18 2238.22,1329.18 2240.38,1329.18 2242.55,1329.18 2244.71,1329.18 2246.87,1329.18 2249.03,1329.18 2251.19,1329.18 2253.35,1329.18 2255.51,1329.18 2257.67,1329.18 2259.83,1329.18 2261.99,1329.18 2264.16,1329.18 2266.32,1329.18 2268.48,1329.18 2270.64,1329.18 2272.8,1329.18 2274.96,1329.18 2277.12,1329.18 2279.28,1329.18 2281.44,1329.18 2283.6,1329.18 2285.77,1329.18 2287.93,1329.18 2290.09,1329.18 2292.25,1329.18 2294.41,1329.18 2296.57,1329.18 2298.73,1329.18 2300.89,1329.18 2303.05,1329.18 2305.21,1329.18 2307.38,1329.18 2309.54,1329.18 2311.7,1329.18 2313.86,1329.18 2316.02,1329.18 2318.18,1329.18 2320.34,1329.18 2322.5,1329.18 2324.66,1329.18 2326.82,1329.18 2328.99,1329.18 2331.15,1329.18 2333.31,1329.18 2335.47,1329.18 2337.63,1329.18 2339.79,1329.18 2341.95,1329.18 2344.11,1329.18 2346.27,1329.18 2348.43,1329.18 2350.59,1329.18 2352.76,1329.18 "/>
<path clip-path="url(#clip690)" d="M265.897 248.629 L506.917 248.629 L506.917 93.1086 L265.897 93.1086  Z" fill="#ffffff" fill-rule="evenodd" fill-opacity="1"/>
<polyline clip-path="url(#clip690)" style="stroke:#000000; stroke-linecap:round; stroke-linejoin:round; stroke-width:4; stroke-opacity:1; fill:none" points="265.897,248.629 506.917,248.629 506.917,93.1086 265.897,93.1086 265.897,248.629 "/>
<polyline clip-path="url(#clip690)" style="stroke:#009af9; stroke-linecap:round; stroke-linejoin:round; stroke-width:4; stroke-opacity:1; fill:none" points="289.884,144.949 433.805,144.949 "/>
<path clip-path="url(#clip690)" d="M482.444 136.303 L473.069 148.919 L482.931 162.229 L477.907 162.229 L470.361 152.043 L462.815 162.229 L457.792 162.229 L467.861 148.664 L458.648 136.303 L463.671 136.303 L470.546 145.539 L477.421 136.303 L482.444 136.303 Z" fill="#000000" fill-rule="nonzero" fill-opacity="1" /><polyline clip-path="url(#clip690)" style="stroke:#e26f46; stroke-linecap:round; stroke-linejoin:round; stroke-width:4; stroke-opacity:1; fill:none" points="289.884,196.789 433.805,196.789 "/>
<path clip-path="url(#clip690)" d="M474.296 178.05 L474.296 181.592 L470.222 181.592 Q467.931 181.592 467.028 182.518 Q466.148 183.444 466.148 185.851 L466.148 188.143 L473.162 188.143 L473.162 191.453 L466.148 191.453 L466.148 214.069 L461.866 214.069 L461.866 191.453 L457.792 191.453 L457.792 188.143 L461.866 188.143 L461.866 186.337 Q461.866 182.009 463.88 180.041 Q465.894 178.05 470.269 178.05 L474.296 178.05 Z" fill="#000000" fill-rule="nonzero" fill-opacity="1" /></svg>
