<?xml version="1.0" encoding="utf-8"?>
<svg xmlns="http://www.w3.org/2000/svg" xmlns:xlink="http://www.w3.org/1999/xlink" width="600" height="400" viewBox="0 0 2400 1600">
<defs>
  <clipPath id="clip350">
    <rect x="0" y="0" width="2400" height="1600"/>
  </clipPath>
</defs>
<path clip-path="url(#clip350)" d="M0 1600 L2400 1600 L2400 0 L0 0  Z" fill="#ffffff" fill-rule="evenodd" fill-opacity="1"/>
<defs>
  <clipPath id="clip351">
    <rect x="480" y="0" width="1681" height="1600"/>
  </clipPath>
</defs>
<path clip-path="url(#clip350)" d="M193.936 1423.18 L2352.76 1423.18 L2352.76 47.2441 L193.936 47.2441  Z" fill="#ffffff" fill-rule="evenodd" fill-opacity="1"/>
<defs>
  <clipPath id="clip352">
    <rect x="193" y="47" width="2160" height="1377"/>
  </clipPath>
</defs>
<polyline clip-path="url(#clip352)" style="stroke:#000000; stroke-linecap:round; stroke-linejoin:round; stroke-width:2; stroke-opacity:0.1; fill:none" points="193.936,1423.18 193.936,47.2441 "/>
<polyline clip-path="url(#clip352)" style="stroke:#000000; stroke-linecap:round; stroke-linejoin:round; stroke-width:2; stroke-opacity:0.1; fill:none" points="625.7,1423.18 625.7,47.2441 "/>
<polyline clip-path="url(#clip352)" style="stroke:#000000; stroke-linecap:round; stroke-linejoin:round; stroke-width:2; stroke-opacity:0.1; fill:none" points="1057.46,1423.18 1057.46,47.2441 "/>
<polyline clip-path="url(#clip352)" style="stroke:#000000; stroke-linecap:round; stroke-linejoin:round; stroke-width:2; stroke-opacity:0.1; fill:none" points="1489.23,1423.18 1489.23,47.2441 "/>
<polyline clip-path="url(#clip352)" style="stroke:#000000; stroke-linecap:round; stroke-linejoin:round; stroke-width:2; stroke-opacity:0.1; fill:none" points="1920.99,1423.18 1920.99,47.2441 "/>
<polyline clip-path="url(#clip352)" style="stroke:#000000; stroke-linecap:round; stroke-linejoin:round; stroke-width:2; stroke-opacity:0.1; fill:none" points="2352.76,1423.18 2352.76,47.2441 "/>
<polyline clip-path="url(#clip352)" style="stroke:#000000; stroke-linecap:round; stroke-linejoin:round; stroke-width:2; stroke-opacity:0.1; fill:none" points="193.936,1301.96 2352.76,1301.96 "/>
<polyline clip-path="url(#clip352)" style="stroke:#000000; stroke-linecap:round; stroke-linejoin:round; stroke-width:2; stroke-opacity:0.1; fill:none" points="193.936,1035.07 2352.76,1035.07 "/>
<polyline clip-path="url(#clip352)" style="stroke:#000000; stroke-linecap:round; stroke-linejoin:round; stroke-width:2; stroke-opacity:0.1; fill:none" points="193.936,768.19 2352.76,768.19 "/>
<polyline clip-path="url(#clip352)" style="stroke:#000000; stroke-linecap:round; stroke-linejoin:round; stroke-width:2; stroke-opacity:0.1; fill:none" points="193.936,501.305 2352.76,501.305 "/>
<polyline clip-path="url(#clip352)" style="stroke:#000000; stroke-linecap:round; stroke-linejoin:round; stroke-width:2; stroke-opacity:0.1; fill:none" points="193.936,234.419 2352.76,234.419 "/>
<polyline clip-path="url(#clip350)" style="stroke:#000000; stroke-linecap:round; stroke-linejoin:round; stroke-width:4; stroke-opacity:1; fill:none" points="193.936,1423.18 2352.76,1423.18 "/>
<polyline clip-path="url(#clip350)" style="stroke:#000000; stroke-linecap:round; stroke-linejoin:round; stroke-width:4; stroke-opacity:1; fill:none" points="193.936,1423.18 193.936,1404.28 "/>
<polyline clip-path="url(#clip350)" style="stroke:#000000; stroke-linecap:round; stroke-linejoin:round; stroke-width:4; stroke-opacity:1; fill:none" points="625.7,1423.18 625.7,1404.28 "/>
<polyline clip-path="url(#clip350)" style="stroke:#000000; stroke-linecap:round; stroke-linejoin:round; stroke-width:4; stroke-opacity:1; fill:none" points="1057.46,1423.18 1057.46,1404.28 "/>
<polyline clip-path="url(#clip350)" style="stroke:#000000; stroke-linecap:round; stroke-linejoin:round; stroke-width:4; stroke-opacity:1; fill:none" points="1489.23,1423.18 1489.23,1404.28 "/>
<polyline clip-path="url(#clip350)" style="stroke:#000000; stroke-linecap:round; stroke-linejoin:round; stroke-width:4; stroke-opacity:1; fill:none" points="1920.99,1423.18 1920.99,1404.28 "/>
<polyline clip-path="url(#clip350)" style="stroke:#000000; stroke-linecap:round; stroke-linejoin:round; stroke-width:4; stroke-opacity:1; fill:none" points="2352.76,1423.18 2352.76,1404.28 "/>
<path clip-path="url(#clip350)" d="M193.936 1454.1 Q190.325 1454.1 188.496 1457.66 Q186.691 1461.2 186.691 1468.33 Q186.691 1475.44 188.496 1479.01 Q190.325 1482.55 193.936 1482.55 Q197.57 1482.55 199.376 1479.01 Q201.204 1475.44 201.204 1468.33 Q201.204 1461.2 199.376 1457.66 Q197.57 1454.1 193.936 1454.1 M193.936 1450.39 Q199.746 1450.39 202.802 1455 Q205.88 1459.58 205.88 1468.33 Q205.88 1477.06 202.802 1481.67 Q199.746 1486.25 193.936 1486.25 Q188.126 1486.25 185.047 1481.67 Q181.992 1477.06 181.992 1468.33 Q181.992 1459.58 185.047 1455 Q188.126 1450.39 193.936 1450.39 Z" fill="#000000" fill-rule="nonzero" fill-opacity="1" /><path clip-path="url(#clip350)" d="M620.353 1481.64 L636.672 1481.64 L636.672 1485.58 L614.728 1485.58 L614.728 1481.64 Q617.39 1478.89 621.973 1474.26 Q626.58 1469.61 627.76 1468.27 Q630.006 1465.74 630.885 1464.01 Q631.788 1462.25 631.788 1460.56 Q631.788 1457.8 629.843 1456.07 Q627.922 1454.33 624.82 1454.33 Q622.621 1454.33 620.168 1455.09 Q617.737 1455.86 614.959 1457.41 L614.959 1452.69 Q617.783 1451.55 620.237 1450.97 Q622.691 1450.39 624.728 1450.39 Q630.098 1450.39 633.293 1453.08 Q636.487 1455.77 636.487 1460.26 Q636.487 1462.39 635.677 1464.31 Q634.89 1466.2 632.783 1468.8 Q632.205 1469.47 629.103 1472.69 Q626.001 1475.88 620.353 1481.64 Z" fill="#000000" fill-rule="nonzero" fill-opacity="1" /><path clip-path="url(#clip350)" d="M1060.47 1455.09 L1048.67 1473.54 L1060.47 1473.54 L1060.47 1455.09 M1059.25 1451.02 L1065.13 1451.02 L1065.13 1473.54 L1070.06 1473.54 L1070.06 1477.43 L1065.13 1477.43 L1065.13 1485.58 L1060.47 1485.58 L1060.47 1477.43 L1044.87 1477.43 L1044.87 1472.92 L1059.25 1451.02 Z" fill="#000000" fill-rule="nonzero" fill-opacity="1" /><path clip-path="url(#clip350)" d="M1489.63 1466.44 Q1486.48 1466.44 1484.63 1468.59 Q1482.8 1470.74 1482.8 1474.49 Q1482.8 1478.22 1484.63 1480.39 Q1486.48 1482.55 1489.63 1482.55 Q1492.78 1482.55 1494.61 1480.39 Q1496.46 1478.22 1496.46 1474.49 Q1496.46 1470.74 1494.61 1468.59 Q1492.78 1466.44 1489.63 1466.44 M1498.92 1451.78 L1498.92 1456.04 Q1497.16 1455.21 1495.35 1454.77 Q1493.57 1454.33 1491.81 1454.33 Q1487.18 1454.33 1484.73 1457.45 Q1482.3 1460.58 1481.95 1466.9 Q1483.31 1464.89 1485.37 1463.82 Q1487.43 1462.73 1489.91 1462.73 Q1495.12 1462.73 1498.13 1465.9 Q1501.16 1469.05 1501.16 1474.49 Q1501.16 1479.82 1498.01 1483.03 Q1494.86 1486.25 1489.63 1486.25 Q1483.64 1486.25 1480.47 1481.67 Q1477.3 1477.06 1477.3 1468.33 Q1477.3 1460.14 1481.18 1455.28 Q1485.07 1450.39 1491.62 1450.39 Q1493.38 1450.39 1495.17 1450.74 Q1496.97 1451.09 1498.92 1451.78 Z" fill="#000000" fill-rule="nonzero" fill-opacity="1" /><path clip-path="url(#clip350)" d="M1920.99 1469.17 Q1917.66 1469.17 1915.74 1470.95 Q1913.84 1472.73 1913.84 1475.86 Q1913.84 1478.98 1915.74 1480.77 Q1917.66 1482.55 1920.99 1482.55 Q1924.33 1482.55 1926.25 1480.77 Q1928.17 1478.96 1928.17 1475.86 Q1928.17 1472.73 1926.25 1470.95 Q1924.35 1469.17 1920.99 1469.17 M1916.32 1467.18 Q1913.31 1466.44 1911.62 1464.38 Q1909.95 1462.32 1909.95 1459.35 Q1909.95 1455.21 1912.89 1452.8 Q1915.85 1450.39 1920.99 1450.39 Q1926.15 1450.39 1929.09 1452.8 Q1932.03 1455.21 1932.03 1459.35 Q1932.03 1462.32 1930.34 1464.38 Q1928.68 1466.44 1925.69 1467.18 Q1929.07 1467.96 1930.95 1470.26 Q1932.84 1472.55 1932.84 1475.86 Q1932.84 1480.88 1929.77 1483.57 Q1926.71 1486.25 1920.99 1486.25 Q1915.27 1486.25 1912.2 1483.57 Q1909.14 1480.88 1909.14 1475.86 Q1909.14 1472.55 1911.04 1470.26 Q1912.94 1467.96 1916.32 1467.18 M1914.6 1459.79 Q1914.6 1462.48 1916.27 1463.98 Q1917.96 1465.49 1920.99 1465.49 Q1924 1465.49 1925.69 1463.98 Q1927.4 1462.48 1927.4 1459.79 Q1927.4 1457.11 1925.69 1455.6 Q1924 1454.1 1920.99 1454.1 Q1917.96 1454.1 1916.27 1455.6 Q1914.6 1457.11 1914.6 1459.79 Z" fill="#000000" fill-rule="nonzero" fill-opacity="1" /><path clip-path="url(#clip350)" d="M2327.44 1481.64 L2335.08 1481.64 L2335.08 1455.28 L2326.77 1456.95 L2326.77 1452.69 L2335.04 1451.02 L2339.71 1451.02 L2339.71 1481.64 L2347.35 1481.64 L2347.35 1485.58 L2327.44 1485.58 L2327.44 1481.64 Z" fill="#000000" fill-rule="nonzero" fill-opacity="1" /><path clip-path="url(#clip350)" d="M2366.8 1454.1 Q2363.18 1454.1 2361.36 1457.66 Q2359.55 1461.2 2359.55 1468.33 Q2359.55 1475.44 2361.36 1479.01 Q2363.18 1482.55 2366.8 1482.55 Q2370.43 1482.55 2372.23 1479.01 Q2374.06 1475.44 2374.06 1468.33 Q2374.06 1461.2 2372.23 1457.66 Q2370.43 1454.1 2366.8 1454.1 M2366.8 1450.39 Q2372.61 1450.39 2375.66 1455 Q2378.74 1459.58 2378.74 1468.33 Q2378.74 1477.06 2375.66 1481.67 Q2372.61 1486.25 2366.8 1486.25 Q2360.99 1486.25 2357.91 1481.67 Q2354.85 1477.06 2354.85 1468.33 Q2354.85 1459.58 2357.91 1455 Q2360.99 1450.39 2366.8 1450.39 Z" fill="#000000" fill-rule="nonzero" fill-opacity="1" /><path clip-path="url(#clip350)" d="M1272.41 1522.27 L1272.41 1532.4 L1284.47 1532.4 L1284.47 1536.95 L1272.41 1536.95 L1272.41 1556.3 Q1272.41 1560.66 1273.58 1561.9 Q1274.79 1563.14 1278.45 1563.14 L1284.47 1563.14 L1284.47 1568.04 L1278.45 1568.04 Q1271.67 1568.04 1269.1 1565.53 Q1266.52 1562.98 1266.52 1556.3 L1266.52 1536.95 L1262.22 1536.95 L1262.22 1532.4 L1266.52 1532.4 L1266.52 1522.27 L1272.41 1522.27 Z" fill="#000000" fill-rule="nonzero" fill-opacity="1" /><polyline clip-path="url(#clip350)" style="stroke:#000000; stroke-linecap:round; stroke-linejoin:round; stroke-width:4; stroke-opacity:1; fill:none" points="193.936,1423.18 193.936,47.2441 "/>
<polyline clip-path="url(#clip350)" style="stroke:#000000; stroke-linecap:round; stroke-linejoin:round; stroke-width:4; stroke-opacity:1; fill:none" points="193.936,1301.96 212.834,1301.96 "/>
<polyline clip-path="url(#clip350)" style="stroke:#000000; stroke-linecap:round; stroke-linejoin:round; stroke-width:4; stroke-opacity:1; fill:none" points="193.936,1035.07 212.834,1035.07 "/>
<polyline clip-path="url(#clip350)" style="stroke:#000000; stroke-linecap:round; stroke-linejoin:round; stroke-width:4; stroke-opacity:1; fill:none" points="193.936,768.19 212.834,768.19 "/>
<polyline clip-path="url(#clip350)" style="stroke:#000000; stroke-linecap:round; stroke-linejoin:round; stroke-width:4; stroke-opacity:1; fill:none" points="193.936,501.305 212.834,501.305 "/>
<polyline clip-path="url(#clip350)" style="stroke:#000000; stroke-linecap:round; stroke-linejoin:round; stroke-width:4; stroke-opacity:1; fill:none" points="193.936,234.419 212.834,234.419 "/>
<path clip-path="url(#clip350)" d="M50.9921 1302.41 L80.6679 1302.41 L80.6679 1306.35 L50.9921 1306.35 L50.9921 1302.41 Z" fill="#000000" fill-rule="nonzero" fill-opacity="1" /><path clip-path="url(#clip350)" d="M91.5706 1315.31 L99.2095 1315.31 L99.2095 1288.94 L90.8993 1290.61 L90.8993 1286.35 L99.1632 1284.68 L103.839 1284.68 L103.839 1315.31 L111.478 1315.31 L111.478 1319.24 L91.5706 1319.24 L91.5706 1315.31 Z" fill="#000000" fill-rule="nonzero" fill-opacity="1" /><path clip-path="url(#clip350)" d="M120.922 1313.36 L125.807 1313.36 L125.807 1319.24 L120.922 1319.24 L120.922 1313.36 Z" fill="#000000" fill-rule="nonzero" fill-opacity="1" /><path clip-path="url(#clip350)" d="M145.992 1287.76 Q142.381 1287.76 140.552 1291.32 Q138.746 1294.87 138.746 1301.99 Q138.746 1309.1 140.552 1312.67 Q142.381 1316.21 145.992 1316.21 Q149.626 1316.21 151.431 1312.67 Q153.26 1309.1 153.26 1301.99 Q153.26 1294.87 151.431 1291.32 Q149.626 1287.76 145.992 1287.76 M145.992 1284.06 Q151.802 1284.06 154.857 1288.66 Q157.936 1293.24 157.936 1301.99 Q157.936 1310.72 154.857 1315.33 Q151.802 1319.91 145.992 1319.91 Q140.181 1319.91 137.103 1315.33 Q134.047 1310.72 134.047 1301.99 Q134.047 1293.24 137.103 1288.66 Q140.181 1284.06 145.992 1284.06 Z" fill="#000000" fill-rule="nonzero" fill-opacity="1" /><path clip-path="url(#clip350)" d="M51.9875 1035.53 L81.6633 1035.53 L81.6633 1039.46 L51.9875 1039.46 L51.9875 1035.53 Z" fill="#000000" fill-rule="nonzero" fill-opacity="1" /><path clip-path="url(#clip350)" d="M101.756 1020.87 Q98.1447 1020.87 96.316 1024.44 Q94.5104 1027.98 94.5104 1035.11 Q94.5104 1042.22 96.316 1045.78 Q98.1447 1049.32 101.756 1049.32 Q105.39 1049.32 107.196 1045.78 Q109.024 1042.22 109.024 1035.11 Q109.024 1027.98 107.196 1024.44 Q105.39 1020.87 101.756 1020.87 M101.756 1017.17 Q107.566 1017.17 110.621 1021.78 Q113.7 1026.36 113.7 1035.11 Q113.7 1043.84 110.621 1048.44 Q107.566 1053.03 101.756 1053.03 Q95.9456 1053.03 92.8669 1048.44 Q89.8114 1043.84 89.8114 1035.11 Q89.8114 1026.36 92.8669 1021.78 Q95.9456 1017.17 101.756 1017.17 Z" fill="#000000" fill-rule="nonzero" fill-opacity="1" /><path clip-path="url(#clip350)" d="M121.918 1046.48 L126.802 1046.48 L126.802 1052.35 L121.918 1052.35 L121.918 1046.48 Z" fill="#000000" fill-rule="nonzero" fill-opacity="1" /><path clip-path="url(#clip350)" d="M137.033 1017.79 L155.39 1017.79 L155.39 1021.73 L141.316 1021.73 L141.316 1030.2 Q142.334 1029.86 143.353 1029.69 Q144.371 1029.51 145.39 1029.51 Q151.177 1029.51 154.556 1032.68 Q157.936 1035.85 157.936 1041.27 Q157.936 1046.85 154.464 1049.95 Q150.992 1053.03 144.672 1053.03 Q142.496 1053.03 140.228 1052.66 Q137.982 1052.29 135.575 1051.54 L135.575 1046.85 Q137.658 1047.98 139.881 1048.54 Q142.103 1049.09 144.58 1049.09 Q148.584 1049.09 150.922 1046.98 Q153.26 1044.88 153.26 1041.27 Q153.26 1037.66 150.922 1035.55 Q148.584 1033.44 144.58 1033.44 Q142.705 1033.44 140.83 1033.86 Q138.978 1034.28 137.033 1035.16 L137.033 1017.79 Z" fill="#000000" fill-rule="nonzero" fill-opacity="1" /><path clip-path="url(#clip350)" d="M100.76 753.988 Q97.1493 753.988 95.3206 757.553 Q93.515 761.095 93.515 768.224 Q93.515 775.331 95.3206 778.896 Q97.1493 782.437 100.76 782.437 Q104.395 782.437 106.2 778.896 Q108.029 775.331 108.029 768.224 Q108.029 761.095 106.2 757.553 Q104.395 753.988 100.76 753.988 M100.76 750.285 Q106.571 750.285 109.626 754.891 Q112.705 759.475 112.705 768.224 Q112.705 776.951 109.626 781.558 Q106.571 786.141 100.76 786.141 Q94.9502 786.141 91.8715 781.558 Q88.816 776.951 88.816 768.224 Q88.816 759.475 91.8715 754.891 Q94.9502 750.285 100.76 750.285 Z" fill="#000000" fill-rule="nonzero" fill-opacity="1" /><path clip-path="url(#clip350)" d="M120.922 779.59 L125.807 779.59 L125.807 785.47 L120.922 785.47 L120.922 779.59 Z" fill="#000000" fill-rule="nonzero" fill-opacity="1" /><path clip-path="url(#clip350)" d="M145.992 753.988 Q142.381 753.988 140.552 757.553 Q138.746 761.095 138.746 768.224 Q138.746 775.331 140.552 778.896 Q142.381 782.437 145.992 782.437 Q149.626 782.437 151.431 778.896 Q153.26 775.331 153.26 768.224 Q153.26 761.095 151.431 757.553 Q149.626 753.988 145.992 753.988 M145.992 750.285 Q151.802 750.285 154.857 754.891 Q157.936 759.475 157.936 768.224 Q157.936 776.951 154.857 781.558 Q151.802 786.141 145.992 786.141 Q140.181 786.141 137.103 781.558 Q134.047 776.951 134.047 768.224 Q134.047 759.475 137.103 754.891 Q140.181 750.285 145.992 750.285 Z" fill="#000000" fill-rule="nonzero" fill-opacity="1" /><path clip-path="url(#clip350)" d="M101.756 487.103 Q98.1447 487.103 96.316 490.668 Q94.5104 494.21 94.5104 501.339 Q94.5104 508.446 96.316 512.011 Q98.1447 515.552 101.756 515.552 Q105.39 515.552 107.196 512.011 Q109.024 508.446 109.024 501.339 Q109.024 494.21 107.196 490.668 Q105.39 487.103 101.756 487.103 M101.756 483.4 Q107.566 483.4 110.621 488.006 Q113.7 492.589 113.7 501.339 Q113.7 510.066 110.621 514.673 Q107.566 519.256 101.756 519.256 Q95.9456 519.256 92.8669 514.673 Q89.8114 510.066 89.8114 501.339 Q89.8114 492.589 92.8669 488.006 Q95.9456 483.4 101.756 483.4 Z" fill="#000000" fill-rule="nonzero" fill-opacity="1" /><path clip-path="url(#clip350)" d="M121.918 512.705 L126.802 512.705 L126.802 518.585 L121.918 518.585 L121.918 512.705 Z" fill="#000000" fill-rule="nonzero" fill-opacity="1" /><path clip-path="url(#clip350)" d="M137.033 484.025 L155.39 484.025 L155.39 487.96 L141.316 487.96 L141.316 496.432 Q142.334 496.085 143.353 495.923 Q144.371 495.737 145.39 495.737 Q151.177 495.737 154.556 498.909 Q157.936 502.08 157.936 507.497 Q157.936 513.075 154.464 516.177 Q150.992 519.256 144.672 519.256 Q142.496 519.256 140.228 518.885 Q137.982 518.515 135.575 517.774 L135.575 513.075 Q137.658 514.21 139.881 514.765 Q142.103 515.321 144.58 515.321 Q148.584 515.321 150.922 513.214 Q153.26 511.108 153.26 507.497 Q153.26 503.886 150.922 501.779 Q148.584 499.673 144.58 499.673 Q142.705 499.673 140.83 500.089 Q138.978 500.506 137.033 501.386 L137.033 484.025 Z" fill="#000000" fill-rule="nonzero" fill-opacity="1" /><path clip-path="url(#clip350)" d="M91.5706 247.764 L99.2095 247.764 L99.2095 221.399 L90.8993 223.065 L90.8993 218.806 L99.1632 217.139 L103.839 217.139 L103.839 247.764 L111.478 247.764 L111.478 251.699 L91.5706 251.699 L91.5706 247.764 Z" fill="#000000" fill-rule="nonzero" fill-opacity="1" /><path clip-path="url(#clip350)" d="M120.922 245.82 L125.807 245.82 L125.807 251.699 L120.922 251.699 L120.922 245.82 Z" fill="#000000" fill-rule="nonzero" fill-opacity="1" /><path clip-path="url(#clip350)" d="M145.992 220.218 Q142.381 220.218 140.552 223.783 Q138.746 227.324 138.746 234.454 Q138.746 241.56 140.552 245.125 Q142.381 248.667 145.992 248.667 Q149.626 248.667 151.431 245.125 Q153.26 241.56 153.26 234.454 Q153.26 227.324 151.431 223.783 Q149.626 220.218 145.992 220.218 M145.992 216.514 Q151.802 216.514 154.857 221.121 Q157.936 225.704 157.936 234.454 Q157.936 243.181 154.857 247.787 Q151.802 252.371 145.992 252.371 Q140.181 252.371 137.103 247.787 Q134.047 243.181 134.047 234.454 Q134.047 225.704 137.103 221.121 Q140.181 216.514 145.992 216.514 Z" fill="#000000" fill-rule="nonzero" fill-opacity="1" /><polyline clip-path="url(#clip352)" style="stroke:#009af9; stroke-linecap:round; stroke-linejoin:round; stroke-width:4; stroke-opacity:1; fill:none" points="193.936,768.19 196.097,771.851 198.258,775.464 200.419,779.029 202.58,782.546 204.741,786.017 206.902,789.442 209.063,792.822 211.224,796.156 213.385,799.447 215.546,802.694 217.707,805.897 219.868,809.059 222.029,812.178 224.19,815.256 226.351,818.294 228.512,821.291 230.673,824.248 232.834,827.166 234.995,830.045 237.156,832.886 239.317,835.69 241.478,838.456 243.639,841.186 245.8,843.88 247.961,846.537 250.122,849.16 252.282,851.748 254.443,854.301 256.604,856.821 258.765,859.307 260.926,861.76 263.087,864.181 265.248,866.569 267.409,868.926 269.57,871.252 271.731,873.547 273.892,875.811 276.053,878.046 278.214,880.251 280.375,882.426 282.536,884.573 284.697,886.691 286.858,888.782 289.019,890.844 291.18,892.879 293.341,894.887 295.502,896.869 297.663,898.824 299.824,900.753 301.985,902.657 304.146,904.536 306.307,906.389 308.468,908.218 310.629,910.023 312.79,911.804 314.951,913.561 317.112,915.295 319.273,917.006 321.434,918.694 323.595,920.36 325.756,922.004 327.917,923.626 330.078,925.227 332.239,926.806 334.4,928.364 336.561,929.902 338.722,931.419 340.883,932.916 343.044,934.394 345.205,935.851 347.366,937.29 349.527,938.709 351.688,940.11 353.849,941.492 356.01,942.855 358.171,944.201 360.332,945.528 362.493,946.839 364.653,948.131 366.814,949.407 368.975,950.666 371.136,951.908 373.297,953.133 375.458,954.342 377.619,955.536 379.78,956.713 381.941,957.875 384.102,959.021 386.263,960.153 388.424,961.269 390.585,962.37 392.746,963.457 394.907,964.529 397.068,965.588 399.229,966.632 401.39,967.662 403.551,968.679 405.712,969.682 407.873,970.672 410.034,971.489 412.195,970.129 414.356,966.36 416.517,960.627 418.678,953.336 420.839,944.857 423,935.52 425.161,925.618 427.322,915.405 429.483,905.098 431.644,894.876 433.805,884.878 435.966,875.208 438.127,865.93 440.288,857.069 442.449,848.614 444.61,840.516 446.771,832.685 448.932,824.997 451.093,817.287 453.254,809.439 455.415,801.666 457.576,793.997 459.737,786.428 461.898,778.961 464.059,771.592 466.22,764.321 468.381,757.146 470.542,750.066 472.703,743.081 474.864,736.188 477.024,729.386 479.185,722.674 481.346,716.051 483.507,709.517 485.668,703.068 487.829,696.706 489.99,690.427 492.151,684.232 494.312,678.119 496.473,672.088 498.634,666.136 500.795,660.263 502.956,654.468 505.117,648.75 507.278,643.107 509.439,637.54 511.6,632.046 513.761,626.625 515.922,621.276 518.083,615.998 520.244,610.79 522.405,605.65 524.566,600.579 526.727,595.576 528.888,590.638 531.049,585.766 533.21,580.959 535.371,576.215 537.532,571.534 539.693,566.915 541.854,562.358 544.015,557.861 546.176,553.423 548.337,549.045 550.498,544.724 552.659,540.461 554.82,536.254 556.981,532.103 559.142,528.007 561.303,523.966 563.464,519.978 565.625,516.042 567.786,512.159 569.947,508.328 572.108,504.547 574.269,500.817 576.43,497.135 578.591,493.503 580.752,489.919 582.913,486.382 585.074,482.892 587.235,479.449 589.396,476.051 591.556,472.698 593.717,469.39 595.878,466.125 598.039,462.904 600.2,459.726 602.361,456.589 604.522,453.494 606.683,450.441 608.844,447.427 611.005,444.454 613.166,441.52 615.327,438.625 617.488,435.769 619.649,432.95 621.81,430.168 623.971,428.91 626.132,432.5 628.293,439.955 630.454,450.199 632.615,462.299 634.776,475.466 636.937,489.052 639.098,502.554 641.259,515.612 643.42,528.009 645.581,539.67 647.742,550.666 649.903,561.207 652.064,571.65 654.225,582.353 656.386,592.985 658.547,603.475 660.708,613.827 662.869,624.041 665.03,634.119 667.191,644.064 669.352,653.878 671.513,663.561 673.674,673.116 675.835,682.544 677.996,691.848 680.157,701.027 682.318,710.086 684.479,719.024 686.64,727.843 688.801,736.546 690.962,745.133 693.123,753.606 695.284,761.967 697.445,770.217 699.606,778.358 701.767,786.391 703.927,794.317 706.088,802.138 708.249,809.855 710.41,817.47 712.571,824.984 714.732,832.398 716.893,839.715 719.054,846.934 721.215,854.057 723.376,861.086 725.537,868.022 727.698,874.866 729.859,881.62 732.02,888.283 734.181,894.859 736.342,901.347 738.503,907.749 740.664,914.066 742.825,920.3 744.986,926.451 747.147,932.52 749.308,938.509 751.469,944.419 753.63,950.25 755.791,956.004 757.952,961.681 760.113,967.283 762.274,972.811 764.435,978.266 766.596,983.648 768.757,988.959 770.918,994.2 773.079,999.371 775.24,1004.47 777.401,1009.51 779.562,1014.48 781.723,1019.38 783.884,1024.22 786.045,1028.99 788.206,1033.7 790.367,1038.35 792.528,1042.93 794.689,1047.46 796.85,1051.92 799.011,1056.33 801.172,1060.68 803.333,1064.97 805.494,1069.2 807.655,1073.38 809.816,1077.5 811.977,1081.56 814.138,1085.58 816.298,1089.54 818.459,1093.44 820.62,1097.3 822.781,1101.1 824.942,1104.86 827.103,1108.56 829.264,1112.22 831.425,1115.48 833.586,1117.39 835.747,1118.08 837.908,1117.8 840.069,1116.75 842.23,1115.11 844.391,1113.05 846.552,1110.71 848.713,1108.23 850.874,1105.71 853.035,1103.22 855.196,1100.83 857.357,1098.59 859.518,1096.51 861.679,1094.6 863.84,1092.83 866.001,1091.17 868.162,1089.55 870.323,1087.9 872.484,1086.16 874.645,1084.45 876.806,1082.76 878.967,1081.09 881.128,1079.45 883.289,1077.82 885.45,1076.22 887.611,1074.64 889.772,1073.08 891.933,1071.54 894.094,1070.02 896.255,1068.52 898.416,1067.04 900.577,1065.58 902.738,1064.14 904.899,1062.72 907.06,1061.32 909.221,1059.93 911.382,1058.57 913.543,1057.22 915.704,1055.89 917.865,1054.58 920.026,1053.28 922.187,1052.01 924.348,1050.75 926.509,1049.5 928.669,1048.28 930.83,1047.06 932.991,1045.87 935.152,1044.69 937.313,1043.53 939.474,1042.38 941.635,1041.25 943.796,1040.13 945.957,1039.03 948.118,1037.94 950.279,1036.87 952.44,1035.81 954.601,1034.76 956.762,1033.73 958.923,1032.71 961.084,1031.71 963.245,1030.72 965.406,1029.74 967.567,1028.77 969.728,1027.82 971.889,1026.88 974.05,1025.96 976.211,1025.04 978.372,1024.14 980.533,1023.25 982.694,1022.37 984.855,1021.5 987.016,1020.64 989.177,1019.8 991.338,1018.97 993.499,1018.14 995.66,1017.33 997.821,1016.53 999.982,1015.74 1002.14,1014.96 1004.3,1014.19 1006.46,1013.44 1008.63,1012.69 1010.79,1011.95 1012.95,1011.22 1015.11,1010.5 1017.27,1009.79 1019.43,1009.09 1021.59,1008.4 1023.75,1007.72 1025.91,1007.04 1028.07,1006.38 1030.24,1005.72 1032.4,1005.08 1034.56,1004.44 1036.72,1003.81 1038.88,1003.19 1041.04,1002.57 1043.2,1001.97 1045.36,1001.37 1047.52,1000.78 1049.68,1000.2 1051.85,999.629 1054.01,999.063 1056.17,998.334 1058.33,996.873 1060.49,994.716 1062.65,991.951 1064.81,988.663 1066.97,984.931 1069.13,980.829 1071.29,976.424 1073.46,971.783 1075.62,966.963 1077.78,962.019 1079.94,957 1082.1,951.95 1084.26,946.908 1086.42,941.909 1088.58,936.982 1090.74,932.151 1092.9,927.435 1095.07,922.849 1097.23,918.403 1099.39,914.1 1101.55,909.941 1103.71,905.919 1105.87,902.025 1108.03,898.243 1110.19,894.553 1112.35,890.929 1114.51,887.342 1116.67,883.755 1118.84,880.133 1121,876.53 1123.16,872.975 1125.32,869.467 1127.48,866.005 1129.64,862.589 1131.8,859.218 1133.96,855.893 1136.12,852.611 1138.28,849.372 1140.45,846.177 1142.61,843.024 1144.77,839.913 1146.93,836.843 1149.09,833.814 1151.25,830.825 1153.41,827.875 1155.57,824.965 1157.73,822.093 1159.89,819.259 1162.06,816.463 1164.22,813.703 1166.38,810.981 1168.54,808.294 1170.7,805.643 1172.86,803.027 1175.02,800.446 1177.18,797.9 1179.34,795.387 1181.5,792.907 1183.67,790.46 1185.83,788.046 1187.99,785.664 1190.15,783.313 1192.31,780.994 1194.47,778.705 1196.63,776.447 1198.79,774.218 1200.95,772.019 1203.11,769.85 1205.28,767.709 1207.44,765.596 1209.6,763.512 1211.76,761.455 1213.92,759.426 1216.08,757.423 1218.24,755.447 1220.4,753.497 1222.56,751.573 1224.72,749.674 1226.88,747.801 1229.05,745.952 1231.21,744.128 1233.37,742.328 1235.53,740.552 1237.69,738.799 1239.85,737.07 1242.01,735.363 1244.17,733.68 1246.33,732.018 1248.49,730.379 1250.66,728.761 1252.82,727.165 1254.98,725.59 1257.14,724.035 1259.3,722.502 1261.46,720.988 1263.62,719.495 1265.78,718.022 1267.94,716.568 1270.1,715.133 1272.27,713.53 1274.43,711.145 1276.59,708.08 1278.75,704.489 1280.91,700.51 1283.07,696.266 1285.23,691.862 1287.39,687.391 1289.55,682.926 1291.71,678.527 1293.88,674.238 1296.04,670.086 1298.2,666.083 1300.36,662.225 1302.52,658.492 1304.68,654.849 1306.84,651.244 1309,647.616 1311.16,644.009 1313.32,640.449 1315.49,636.937 1317.65,633.471 1319.81,630.052 1321.97,626.677 1324.13,623.347 1326.29,620.062 1328.45,616.82 1330.61,613.621 1332.77,610.464 1334.93,607.349 1337.09,604.275 1339.26,601.243 1341.42,598.25 1343.58,595.297 1345.74,592.383 1347.9,589.508 1350.06,586.671 1352.22,583.871 1354.38,581.109 1356.54,578.384 1358.7,575.694 1360.87,573.04 1363.03,570.422 1365.19,567.838 1367.35,565.288 1369.51,562.773 1371.67,560.29 1373.83,557.841 1375.99,555.424 1378.15,553.039 1380.31,550.686 1382.48,548.363 1384.64,546.072 1386.8,543.811 1388.96,541.58 1391.12,539.379 1393.28,537.206 1395.44,535.063 1397.6,532.948 1399.76,530.861 1401.92,528.801 1404.09,526.769 1406.25,524.764 1408.41,522.785 1410.57,520.833 1412.73,518.907 1414.89,517.006 1417.05,515.13 1419.21,513.279 1421.37,511.453 1423.53,509.651 1425.7,507.873 1427.86,506.118 1430.02,504.387 1432.18,502.678 1434.34,500.992 1436.5,499.329 1438.66,497.688 1440.82,496.068 1442.98,494.47 1445.14,492.893 1447.3,491.337 1449.47,489.802 1451.63,488.287 1453.79,486.792 1455.95,485.317 1458.11,483.861 1460.27,482.47 1462.43,481.465 1464.59,480.727 1466.75,480.056 1468.91,479.279 1471.08,478.251 1473.24,476.858 1475.4,475.013 1477.56,472.66 1479.72,469.771 1481.88,466.345 1484.04,462.413 1486.2,458.033 1488.36,453.292 1490.52,448.306 1492.69,443.22 1494.85,438.21 1497.01,433.46 1499.17,428.856 1501.33,424.313 1503.49,419.83 1505.65,415.407 1507.81,411.042 1509.97,406.735 1512.13,402.485 1514.3,398.291 1516.46,394.154 1518.62,390.07 1520.78,386.041 1522.94,382.066 1525.1,378.142 1527.26,374.271 1529.42,370.451 1531.58,366.682 1533.74,362.963 1535.91,359.293 1538.07,355.672 1540.23,352.098 1542.39,348.573 1544.55,345.093 1546.71,341.661 1548.87,338.273 1551.03,334.931 1553.19,331.633 1555.35,328.379 1557.51,325.168 1559.68,321.999 1561.84,318.873 1564,315.788 1566.16,312.745 1568.32,309.741 1570.48,306.777 1572.64,303.853 1574.8,300.968 1576.96,298.12 1579.12,295.311 1581.29,292.539 1583.45,289.803 1585.61,287.104 1587.77,284.441 1589.93,281.813 1592.09,279.219 1594.25,276.66 1596.41,274.135 1598.57,271.643 1600.73,269.185 1602.9,266.759 1605.06,264.365 1607.22,262.002 1609.38,259.671 1611.54,257.371 1613.7,255.101 1615.86,252.862 1618.02,250.652 1620.18,248.471 1622.34,246.32 1624.51,244.197 1626.67,242.102 1628.83,240.034 1630.99,237.995 1633.15,235.982 1635.31,233.996 1637.47,232.036 1639.63,230.103 1641.79,228.195 1643.95,226.312 1646.12,224.454 1648.28,222.621 1650.44,220.812 1652.6,219.028 1654.76,217.266 1656.92,215.529 1659.08,213.814 1661.24,212.122 1663.4,210.452 1665.56,208.805 1667.72,207.179 1669.89,205.575 1672.05,203.992 1674.21,202.445 1676.37,201.011 1678.53,199.692 1680.69,198.481 1682.85,197.37 1685.01,196.353 1687.17,195.423 1689.33,194.572 1691.5,193.794 1693.66,193.084 1695.82,192.435 1697.98,191.841 1700.14,191.298 1702.3,190.8 1704.46,190.341 1706.62,189.918 1708.78,189.526 1710.94,189.161 1713.11,188.818 1715.27,188.494 1717.43,188.186 1719.59,187.89 1721.75,187.604 1723.91,187.324 1726.07,187.048 1728.23,186.774 1730.39,186.501 1732.55,186.225 1734.72,185.946 1736.88,185.663 1739.04,185.374 1741.2,185.079 1743.36,184.777 1745.52,184.469 1747.68,184.153 1749.84,183.83 1752,183.502 1754.16,183.167 1756.33,182.828 1758.49,182.486 1760.65,182.142 1762.81,181.798 1764.97,181.455 1767.13,181.117 1769.29,180.785 1771.45,180.462 1773.61,180.151 1775.77,179.856 1777.93,179.579 1780.1,179.309 1782.26,179.043 1784.42,178.781 1786.58,178.522 1788.74,178.266 1790.9,178.014 1793.06,177.765 1795.22,177.519 1797.38,177.277 1799.54,177.038 1801.71,176.802 1803.87,176.569 1806.03,176.339 1808.19,176.112 1810.35,175.889 1812.51,175.668 1814.67,175.45 1816.83,175.235 1818.99,175.023 1821.15,174.814 1823.32,174.608 1825.48,174.404 1827.64,174.203 1829.8,174.004 1831.96,173.809 1834.12,173.616 1836.28,173.425 1838.44,173.237 1840.6,173.051 1842.76,172.868 1844.93,172.688 1847.09,172.509 1849.25,172.333 1851.41,172.16 1853.57,171.988 1855.73,171.819 1857.89,171.653 1860.05,171.488 1862.21,171.326 1864.37,171.166 1866.54,171.007 1868.7,170.851 1870.86,170.697 1873.02,170.546 1875.18,170.396 1877.34,170.248 1879.5,170.102 1881.66,169.958 1883.82,169.816 1885.98,169.676 1888.15,169.537 1890.31,169.401 1892.47,169.266 1894.63,169.133 1896.79,169.002 1898.95,168.872 1901.11,168.745 1903.27,168.619 1905.43,168.494 1907.59,168.372 1909.75,168.251 1911.92,168.131 1914.08,168.013 1916.24,168.374 1918.4,171.127 1920.56,176.2 1922.72,183.293 1924.88,192.123 1927.04,202.425 1929.2,213.95 1931.36,226.468 1933.53,239.764 1935.69,253.641 1937.85,267.92 1940.01,282.438 1942.17,297.05 1944.33,311.628 1946.49,326.06 1948.65,340.254 1950.81,354.131 1952.97,367.634 1955.14,380.718 1957.3,393.36 1959.46,405.552 1961.62,417.302 1963.78,428.637 1965.94,439.601 1968.1,450.254 1970.26,460.674 1972.42,470.957 1974.58,481.214 1976.75,491.575 1978.91,501.982 1981.07,512.252 1983.23,522.386 1985.39,532.385 1987.55,542.252 1989.71,551.987 1991.87,561.594 1994.03,571.074 1996.19,580.428 1998.36,589.657 2000.52,598.765 2002.68,607.751 2004.84,616.619 2007,625.369 2009.16,634.003 2011.32,642.523 2013.48,650.929 2015.64,659.225 2017.8,667.411 2019.96,675.488 2022.13,683.458 2024.29,691.322 2026.45,699.082 2028.61,706.739 2030.77,714.295 2032.93,721.75 2035.09,729.107 2037.25,736.365 2039.41,743.528 2041.57,750.595 2043.74,757.569 2045.9,764.45 2048.06,771.24 2050.22,777.94 2052.38,784.551 2054.54,791.074 2056.7,797.51 2058.86,803.862 2061.02,810.129 2063.18,816.313 2065.35,822.415 2067.51,828.436 2069.67,834.377 2071.83,840.239 2073.99,846.024 2076.15,851.733 2078.31,857.365 2080.47,862.923 2082.63,868.407 2084.79,873.819 2086.96,879.159 2089.12,884.428 2091.28,889.628 2093.44,894.758 2095.6,899.82 2097.76,904.816 2099.92,909.745 2102.08,914.608 2104.24,919.408 2106.4,924.143 2108.57,928.816 2110.73,933.427 2112.89,937.976 2115.05,942.466 2117.21,946.896 2119.37,951.267 2121.53,955.58 2123.69,959.836 2125.85,964.036 2128.01,968.179 2130.17,972.268 2132.34,976.303 2134.5,979.72 2136.66,980.307 2138.82,978.522 2140.98,975.064 2143.14,970.532 2145.3,965.422 2147.46,960.129 2149.62,954.949 2151.78,950.072 2153.95,945.592 2156.11,941.497 2158.27,937.677 2160.43,933.919 2162.59,929.986 2164.75,926.059 2166.91,922.184 2169.07,918.361 2171.23,914.588 2173.39,910.865 2175.56,907.192 2177.72,903.567 2179.88,899.99 2182.04,896.461 2184.2,892.979 2186.36,889.542 2188.52,886.152 2190.68,882.806 2192.84,879.504 2195,876.247 2197.17,873.032 2199.33,869.86 2201.49,866.731 2203.65,863.643 2205.81,860.595 2207.97,857.588 2210.13,854.622 2212.29,851.694 2214.45,848.805 2216.61,845.955 2218.78,843.142 2220.94,840.367 2223.1,837.628 2225.26,834.926 2227.42,832.259 2229.58,829.628 2231.74,827.032 2233.9,824.47 2236.06,821.942 2238.22,819.448 2240.38,816.987 2242.55,814.558 2244.71,812.161 2246.87,809.797 2249.03,807.463 2251.19,805.161 2253.35,802.889 2255.51,800.647 2257.67,798.435 2259.83,796.252 2261.99,794.098 2264.16,791.973 2266.32,789.876 2268.48,787.807 2270.64,785.765 2272.8,783.75 2274.96,781.762 2277.12,779.801 2279.28,777.865 2281.44,775.955 2283.6,774.07 2285.77,772.211 2287.93,770.376 2290.09,768.565 2292.25,766.778 2294.41,765.015 2296.57,763.275 2298.73,761.559 2300.89,759.865 2303.05,758.194 2305.21,756.544 2307.38,754.917 2309.54,753.311 2311.7,751.727 2313.86,750.163 2316.02,748.62 2318.18,747.098 2320.34,745.596 2322.5,744.114 2324.66,742.651 2326.82,741.208 2328.99,739.784 2331.15,738.379 2333.31,736.992 2335.47,735.624 2337.63,734.274 2339.79,732.942 2341.95,731.628 2344.11,730.331 2346.27,729.051 2348.43,727.788 2350.59,726.542 2352.76,725.313 "/>
<polyline clip-path="url(#clip352)" style="stroke:#e26f46; stroke-linecap:round; stroke-linejoin:round; stroke-width:4; stroke-opacity:1; fill:none" points="193.936,1044.35 196.097,1044.35 198.258,1044.35 200.419,1044.35 202.58,1044.35 204.741,1044.35 206.902,1044.35 209.063,1044.35 211.224,1044.35 213.385,1044.35 215.546,1044.35 217.707,1044.35 219.868,1044.35 222.029,1044.35 224.19,1044.35 226.351,1044.35 228.512,1044.35 230.673,1044.35 232.834,1044.35 234.995,1044.35 237.156,1044.35 239.317,1044.35 241.478,1044.35 243.639,1044.35 245.8,1044.35 247.961,1044.35 250.122,1044.35 252.282,1044.35 254.443,1044.35 256.604,1044.35 258.765,1044.35 260.926,1044.35 263.087,1044.35 265.248,1044.35 267.409,1044.35 269.57,1044.35 271.731,1044.35 273.892,1044.35 276.053,1044.35 278.214,1044.35 280.375,1044.35 282.536,1044.35 284.697,1044.35 286.858,1044.35 289.019,1044.35 291.18,1044.35 293.341,1044.35 295.502,1044.35 297.663,1044.35 299.824,1044.35 301.985,1044.35 304.146,1044.35 306.307,1044.35 308.468,1044.35 310.629,1044.35 312.79,1044.35 314.951,1044.35 317.112,1044.35 319.273,1044.35 321.434,1044.35 323.595,1044.35 325.756,1044.35 327.917,1044.35 330.078,1044.35 332.239,1044.35 334.4,1044.35 336.561,1044.35 338.722,1044.35 340.883,1044.35 343.044,1044.35 345.205,1044.35 347.366,1044.35 349.527,1044.35 351.688,1044.35 353.849,1044.35 356.01,1044.35 358.171,1044.35 360.332,1044.35 362.493,1044.35 364.653,1044.35 366.814,1044.35 368.975,1044.35 371.136,1044.35 373.297,1044.35 375.458,1044.35 377.619,1044.35 379.78,1044.35 381.941,1044.35 384.102,1044.35 386.263,1044.35 388.424,1044.35 390.585,1044.35 392.746,1044.35 394.907,1044.35 397.068,1044.35 399.229,1044.35 401.39,1044.35 403.551,1044.35 405.712,1044.35 407.873,1044.35 410.034,223.161 412.195,223.161 414.356,223.161 416.517,223.161 418.678,223.161 420.839,223.161 423,223.161 425.161,223.161 427.322,223.161 429.483,223.161 431.644,223.161 433.805,223.161 435.966,223.161 438.127,223.161 440.288,223.161 442.449,223.161 444.61,223.161 446.771,223.161 448.932,223.161 451.093,223.161 453.254,223.161 455.415,223.161 457.576,223.161 459.737,223.161 461.898,223.161 464.059,223.161 466.22,223.161 468.381,223.161 470.542,223.161 472.703,223.161 474.864,223.161 477.024,223.161 479.185,223.161 481.346,223.161 483.507,223.161 485.668,223.161 487.829,223.161 489.99,223.161 492.151,223.161 494.312,223.161 496.473,223.161 498.634,223.161 500.795,223.161 502.956,223.161 505.117,223.161 507.278,223.161 509.439,223.161 511.6,223.161 513.761,223.161 515.922,223.161 518.083,223.161 520.244,223.161 522.405,223.161 524.566,223.161 526.727,223.161 528.888,223.161 531.049,223.161 533.21,223.161 535.371,223.161 537.532,223.161 539.693,223.161 541.854,223.161 544.015,223.161 546.176,223.161 548.337,223.161 550.498,223.161 552.659,223.161 554.82,223.161 556.981,223.161 559.142,223.161 561.303,223.161 563.464,223.161 565.625,223.161 567.786,223.161 569.947,223.161 572.108,223.161 574.269,223.161 576.43,223.161 578.591,223.161 580.752,223.161 582.913,223.161 585.074,223.161 587.235,223.161 589.396,223.161 591.556,223.161 593.717,223.161 595.878,223.161 598.039,223.161 600.2,223.161 602.361,223.161 604.522,223.161 606.683,223.161 608.844,223.161 611.005,223.161 613.166,223.161 615.327,223.161 617.488,223.161 619.649,223.161 621.81,223.161 623.971,223.161 626.132,1384.24 628.293,1384.24 630.454,1384.24 632.615,1384.24 634.776,1384.24 636.937,1384.24 639.098,1384.24 641.259,1384.24 643.42,1384.24 645.581,1384.24 647.742,1384.24 649.903,1384.24 652.064,1384.24 654.225,1384.24 656.386,1384.24 658.547,1384.24 660.708,1384.24 662.869,1384.24 665.03,1384.24 667.191,1384.24 669.352,1384.24 671.513,1384.24 673.674,1384.24 675.835,1384.24 677.996,1384.24 680.157,1384.24 682.318,1384.24 684.479,1384.24 686.64,1384.24 688.801,1384.24 690.962,1384.24 693.123,1384.24 695.284,1384.24 697.445,1384.24 699.606,1384.24 701.767,1384.24 703.927,1384.24 706.088,1384.24 708.249,1384.24 710.41,1384.24 712.571,1384.24 714.732,1384.24 716.893,1384.24 719.054,1384.24 721.215,1384.24 723.376,1384.24 725.537,1384.24 727.698,1384.24 729.859,1384.24 732.02,1384.24 734.181,1384.24 736.342,1384.24 738.503,1384.24 740.664,1384.24 742.825,1384.24 744.986,1384.24 747.147,1384.24 749.308,1384.24 751.469,1384.24 753.63,1384.24 755.791,1384.24 757.952,1384.24 760.113,1384.24 762.274,1384.24 764.435,1384.24 766.596,1384.24 768.757,1384.24 770.918,1384.24 773.079,1384.24 775.24,1384.24 777.401,1384.24 779.562,1384.24 781.723,1384.24 783.884,1384.24 786.045,1384.24 788.206,1384.24 790.367,1384.24 792.528,1384.24 794.689,1384.24 796.85,1384.24 799.011,1384.24 801.172,1384.24 803.333,1384.24 805.494,1384.24 807.655,1384.24 809.816,1384.24 811.977,1384.24 814.138,1384.24 816.298,1384.24 818.459,1384.24 820.62,1384.24 822.781,1384.24 824.942,1384.24 827.103,1384.24 829.264,1384.24 831.425,1384.24 833.586,1384.24 835.747,1384.24 837.908,1384.24 840.069,1384.24 842.23,956.949 844.391,956.949 846.552,956.949 848.713,956.949 850.874,956.949 853.035,956.949 855.196,956.949 857.357,956.949 859.518,956.949 861.679,956.949 863.84,956.949 866.001,956.949 868.162,956.949 870.323,956.949 872.484,956.949 874.645,956.949 876.806,956.949 878.967,956.949 881.128,956.949 883.289,956.949 885.45,956.949 887.611,956.949 889.772,956.949 891.933,956.949 894.094,956.949 896.255,956.949 898.416,956.949 900.577,956.949 902.738,956.949 904.899,956.949 907.06,956.949 909.221,956.949 911.382,956.949 913.543,956.949 915.704,956.949 917.865,956.949 920.026,956.949 922.187,956.949 924.348,956.949 926.509,956.949 928.669,956.949 930.83,956.949 932.991,956.949 935.152,956.949 937.313,956.949 939.474,956.949 941.635,956.949 943.796,956.949 945.957,956.949 948.118,956.949 950.279,956.949 952.44,956.949 954.601,956.949 956.762,956.949 958.923,956.949 961.084,956.949 963.245,956.949 965.406,956.949 967.567,956.949 969.728,956.949 971.889,956.949 974.05,956.949 976.211,956.949 978.372,956.949 980.533,956.949 982.694,956.949 984.855,956.949 987.016,956.949 989.177,956.949 991.338,956.949 993.499,956.949 995.66,956.949 997.821,956.949 999.982,956.949 1002.14,956.949 1004.3,956.949 1006.46,956.949 1008.63,956.949 1010.79,956.949 1012.95,956.949 1015.11,956.949 1017.27,956.949 1019.43,956.949 1021.59,956.949 1023.75,956.949 1025.91,956.949 1028.07,956.949 1030.24,956.949 1032.4,956.949 1034.56,956.949 1036.72,956.949 1038.88,956.949 1041.04,956.949 1043.2,956.949 1045.36,956.949 1047.52,956.949 1049.68,956.949 1051.85,956.949 1054.01,956.949 1056.17,956.949 1058.33,608.36 1060.49,608.36 1062.65,608.36 1064.81,608.36 1066.97,608.36 1069.13,608.36 1071.29,608.36 1073.46,608.36 1075.62,608.36 1077.78,608.36 1079.94,608.36 1082.1,608.36 1084.26,608.36 1086.42,608.36 1088.58,608.36 1090.74,608.36 1092.9,608.36 1095.07,608.36 1097.23,608.36 1099.39,608.36 1101.55,608.36 1103.71,608.36 1105.87,608.36 1108.03,608.36 1110.19,608.36 1112.35,608.36 1114.51,608.36 1116.67,608.36 1118.84,608.36 1121,608.36 1123.16,608.36 1125.32,608.36 1127.48,608.36 1129.64,608.36 1131.8,608.36 1133.96,608.36 1136.12,608.36 1138.28,608.36 1140.45,608.36 1142.61,608.36 1144.77,608.36 1146.93,608.36 1149.09,608.36 1151.25,608.36 1153.41,608.36 1155.57,608.36 1157.73,608.36 1159.89,608.36 1162.06,608.36 1164.22,608.36 1166.38,608.36 1168.54,608.36 1170.7,608.36 1172.86,608.36 1175.02,608.36 1177.18,608.36 1179.34,608.36 1181.5,608.36 1183.67,608.36 1185.83,608.36 1187.99,608.36 1190.15,608.36 1192.31,608.36 1194.47,608.36 1196.63,608.36 1198.79,608.36 1200.95,608.36 1203.11,608.36 1205.28,608.36 1207.44,608.36 1209.6,608.36 1211.76,608.36 1213.92,608.36 1216.08,608.36 1218.24,608.36 1220.4,608.36 1222.56,608.36 1224.72,608.36 1226.88,608.36 1229.05,608.36 1231.21,608.36 1233.37,608.36 1235.53,608.36 1237.69,608.36 1239.85,608.36 1242.01,608.36 1244.17,608.36 1246.33,608.36 1248.49,608.36 1250.66,608.36 1252.82,608.36 1254.98,608.36 1257.14,608.36 1259.3,608.36 1261.46,608.36 1263.62,608.36 1265.78,608.36 1267.94,608.36 1270.1,608.36 1272.27,608.36 1274.43,375.529 1276.59,375.529 1278.75,375.529 1280.91,375.529 1283.07,375.529 1285.23,375.529 1287.39,375.529 1289.55,375.529 1291.71,375.529 1293.88,375.529 1296.04,375.529 1298.2,375.529 1300.36,375.529 1302.52,375.529 1304.68,375.529 1306.84,375.529 1309,375.529 1311.16,375.529 1313.32,375.529 1315.49,375.529 1317.65,375.529 1319.81,375.529 1321.97,375.529 1324.13,375.529 1326.29,375.529 1328.45,375.529 1330.61,375.529 1332.77,375.529 1334.93,375.529 1337.09,375.529 1339.26,375.529 1341.42,375.529 1343.58,375.529 1345.74,375.529 1347.9,375.529 1350.06,375.529 1352.22,375.529 1354.38,375.529 1356.54,375.529 1358.7,375.529 1360.87,375.529 1363.03,375.529 1365.19,375.529 1367.35,375.529 1369.51,375.529 1371.67,375.529 1373.83,375.529 1375.99,375.529 1378.15,375.529 1380.31,375.529 1382.48,375.529 1384.64,375.529 1386.8,375.529 1388.96,375.529 1391.12,375.529 1393.28,375.529 1395.44,375.529 1397.6,375.529 1399.76,375.529 1401.92,375.529 1404.09,375.529 1406.25,375.529 1408.41,375.529 1410.57,375.529 1412.73,375.529 1414.89,375.529 1417.05,375.529 1419.21,375.529 1421.37,375.529 1423.53,375.529 1425.7,375.529 1427.86,375.529 1430.02,375.529 1432.18,375.529 1434.34,375.529 1436.5,375.529 1438.66,375.529 1440.82,375.529 1442.98,375.529 1445.14,375.529 1447.3,375.529 1449.47,375.529 1451.63,375.529 1453.79,375.529 1455.95,375.529 1458.11,375.529 1460.27,375.529 1462.43,375.529 1464.59,375.529 1466.75,375.529 1468.91,375.529 1471.08,375.529 1473.24,375.529 1475.4,375.529 1477.56,375.529 1479.72,375.529 1481.88,375.529 1484.04,375.529 1486.2,375.529 1488.36,375.529 1490.52,86.1857 1492.69,86.1857 1494.85,86.1857 1497.01,86.1857 1499.17,86.1857 1501.33,86.1857 1503.49,86.1857 1505.65,86.1857 1507.81,86.1857 1509.97,86.1857 1512.13,86.1857 1514.3,86.1857 1516.46,86.1857 1518.62,86.1857 1520.78,86.1857 1522.94,86.1857 1525.1,86.1857 1527.26,86.1857 1529.42,86.1857 1531.58,86.1857 1533.74,86.1857 1535.91,86.1857 1538.07,86.1857 1540.23,86.1857 1542.39,86.1857 1544.55,86.1857 1546.71,86.1857 1548.87,86.1857 1551.03,86.1857 1553.19,86.1857 1555.35,86.1857 1557.51,86.1857 1559.68,86.1857 1561.84,86.1857 1564,86.1857 1566.16,86.1857 1568.32,86.1857 1570.48,86.1857 1572.64,86.1857 1574.8,86.1857 1576.96,86.1857 1579.12,86.1857 1581.29,86.1857 1583.45,86.1857 1585.61,86.1857 1587.77,86.1857 1589.93,86.1857 1592.09,86.1857 1594.25,86.1857 1596.41,86.1857 1598.57,86.1857 1600.73,86.1857 1602.9,86.1857 1605.06,86.1857 1607.22,86.1857 1609.38,86.1857 1611.54,86.1857 1613.7,86.1857 1615.86,86.1857 1618.02,86.1857 1620.18,86.1857 1622.34,86.1857 1624.51,86.1857 1626.67,86.1857 1628.83,86.1857 1630.99,86.1857 1633.15,86.1857 1635.31,86.1857 1637.47,86.1857 1639.63,86.1857 1641.79,86.1857 1643.95,86.1857 1646.12,86.1857 1648.28,86.1857 1650.44,86.1857 1652.6,86.1857 1654.76,86.1857 1656.92,86.1857 1659.08,86.1857 1661.24,86.1857 1663.4,86.1857 1665.56,86.1857 1667.72,86.1857 1669.89,86.1857 1672.05,86.1857 1674.21,86.1857 1676.37,86.1857 1678.53,86.1857 1680.69,86.1857 1682.85,86.1857 1685.01,86.1857 1687.17,86.1857 1689.33,86.1857 1691.5,86.1857 1693.66,86.1857 1695.82,86.1857 1697.98,86.1857 1700.14,86.1857 1702.3,86.1857 1704.46,86.1857 1706.62,159.24 1708.78,159.24 1710.94,159.24 1713.11,159.24 1715.27,159.24 1717.43,159.24 1719.59,159.24 1721.75,159.24 1723.91,159.24 1726.07,159.24 1728.23,159.24 1730.39,159.24 1732.55,159.24 1734.72,159.24 1736.88,159.24 1739.04,159.24 1741.2,159.24 1743.36,159.24 1745.52,159.24 1747.68,159.24 1749.84,159.24 1752,159.24 1754.16,159.24 1756.33,159.24 1758.49,159.24 1760.65,159.24 1762.81,159.24 1764.97,159.24 1767.13,159.24 1769.29,159.24 1771.45,159.24 1773.61,159.24 1775.77,159.24 1777.93,159.24 1780.1,159.24 1782.26,159.24 1784.42,159.24 1786.58,159.24 1788.74,159.24 1790.9,159.24 1793.06,159.24 1795.22,159.24 1797.38,159.24 1799.54,159.24 1801.71,159.24 1803.87,159.24 1806.03,159.24 1808.19,159.24 1810.35,159.24 1812.51,159.24 1814.67,159.24 1816.83,159.24 1818.99,159.24 1821.15,159.24 1823.32,159.24 1825.48,159.24 1827.64,159.24 1829.8,159.24 1831.96,159.24 1834.12,159.24 1836.28,159.24 1838.44,159.24 1840.6,159.24 1842.76,159.24 1844.93,159.24 1847.09,159.24 1849.25,159.24 1851.41,159.24 1853.57,159.24 1855.73,159.24 1857.89,159.24 1860.05,159.24 1862.21,159.24 1864.37,159.24 1866.54,159.24 1868.7,159.24 1870.86,159.24 1873.02,159.24 1875.18,159.24 1877.34,159.24 1879.5,159.24 1881.66,159.24 1883.82,159.24 1885.98,159.24 1888.15,159.24 1890.31,159.24 1892.47,159.24 1894.63,159.24 1896.79,159.24 1898.95,159.24 1901.11,159.24 1903.27,159.24 1905.43,159.24 1907.59,159.24 1909.75,159.24 1911.92,159.24 1914.08,159.24 1916.24,159.24 1918.4,159.24 1920.56,159.24 1922.72,1276.59 1924.88,1276.59 1927.04,1276.59 1929.2,1276.59 1931.36,1276.59 1933.53,1276.59 1935.69,1276.59 1937.85,1276.59 1940.01,1276.59 1942.17,1276.59 1944.33,1276.59 1946.49,1276.59 1948.65,1276.59 1950.81,1276.59 1952.97,1276.59 1955.14,1276.59 1957.3,1276.59 1959.46,1276.59 1961.62,1276.59 1963.78,1276.59 1965.94,1276.59 1968.1,1276.59 1970.26,1276.59 1972.42,1276.59 1974.58,1276.59 1976.75,1276.59 1978.91,1276.59 1981.07,1276.59 1983.23,1276.59 1985.39,1276.59 1987.55,1276.59 1989.71,1276.59 1991.87,1276.59 1994.03,1276.59 1996.19,1276.59 1998.36,1276.59 2000.52,1276.59 2002.68,1276.59 2004.84,1276.59 2007,1276.59 2009.16,1276.59 2011.32,1276.59 2013.48,1276.59 2015.64,1276.59 2017.8,1276.59 2019.96,1276.59 2022.13,1276.59 2024.29,1276.59 2026.45,1276.59 2028.61,1276.59 2030.77,1276.59 2032.93,1276.59 2035.09,1276.59 2037.25,1276.59 2039.41,1276.59 2041.57,1276.59 2043.74,1276.59 2045.9,1276.59 2048.06,1276.59 2050.22,1276.59 2052.38,1276.59 2054.54,1276.59 2056.7,1276.59 2058.86,1276.59 2061.02,1276.59 2063.18,1276.59 2065.35,1276.59 2067.51,1276.59 2069.67,1276.59 2071.83,1276.59 2073.99,1276.59 2076.15,1276.59 2078.31,1276.59 2080.47,1276.59 2082.63,1276.59 2084.79,1276.59 2086.96,1276.59 2089.12,1276.59 2091.28,1276.59 2093.44,1276.59 2095.6,1276.59 2097.76,1276.59 2099.92,1276.59 2102.08,1276.59 2104.24,1276.59 2106.4,1276.59 2108.57,1276.59 2110.73,1276.59 2112.89,1276.59 2115.05,1276.59 2117.21,1276.59 2119.37,1276.59 2121.53,1276.59 2123.69,1276.59 2125.85,1276.59 2128.01,1276.59 2130.17,1276.59 2132.34,1276.59 2134.5,1276.59 2136.66,1276.59 2138.82,633.799 2140.98,633.799 2143.14,633.799 2145.3,633.799 2147.46,633.799 2149.62,633.799 2151.78,633.799 2153.95,633.799 2156.11,633.799 2158.27,633.799 2160.43,633.799 2162.59,633.799 2164.75,633.799 2166.91,633.799 2169.07,633.799 2171.23,633.799 2173.39,633.799 2175.56,633.799 2177.72,633.799 2179.88,633.799 2182.04,633.799 2184.2,633.799 2186.36,633.799 2188.52,633.799 2190.68,633.799 2192.84,633.799 2195,633.799 2197.17,633.799 2199.33,633.799 2201.49,633.799 2203.65,633.799 2205.81,633.799 2207.97,633.799 2210.13,633.799 2212.29,633.799 2214.45,633.799 2216.61,633.799 2218.78,633.799 2220.94,633.799 2223.1,633.799 2225.26,633.799 2227.42,633.799 2229.58,633.799 2231.74,633.799 2233.9,633.799 2236.06,633.799 2238.22,633.799 2240.38,633.799 2242.55,633.799 2244.71,633.799 2246.87,633.799 2249.03,633.799 2251.19,633.799 2253.35,633.799 2255.51,633.799 2257.67,633.799 2259.83,633.799 2261.99,633.799 2264.16,633.799 2266.32,633.799 2268.48,633.799 2270.64,633.799 2272.8,633.799 2274.96,633.799 2277.12,633.799 2279.28,633.799 2281.44,633.799 2283.6,633.799 2285.77,633.799 2287.93,633.799 2290.09,633.799 2292.25,633.799 2294.41,633.799 2296.57,633.799 2298.73,633.799 2300.89,633.799 2303.05,633.799 2305.21,633.799 2307.38,633.799 2309.54,633.799 2311.7,633.799 2313.86,633.799 2316.02,633.799 2318.18,633.799 2320.34,633.799 2322.5,633.799 2324.66,633.799 2326.82,633.799 2328.99,633.799 2331.15,633.799 2333.31,633.799 2335.47,633.799 2337.63,633.799 2339.79,633.799 2341.95,633.799 2344.11,633.799 2346.27,633.799 2348.43,633.799 2350.59,633.799 2352.76,633.799 "/>
<path clip-path="url(#clip350)" d="M265.897 1377.32 L506.917 1377.32 L506.917 1221.8 L265.897 1221.8  Z" fill="#ffffff" fill-rule="evenodd" fill-opacity="1"/>
<polyline clip-path="url(#clip350)" style="stroke:#000000; stroke-linecap:round; stroke-linejoin:round; stroke-width:4; stroke-opacity:1; fill:none" points="265.897,1377.32 506.917,1377.32 506.917,1221.8 265.897,1221.8 265.897,1377.32 "/>
<polyline clip-path="url(#clip350)" style="stroke:#009af9; stroke-linecap:round; stroke-linejoin:round; stroke-width:4; stroke-opacity:1; fill:none" points="289.884,1273.64 433.805,1273.64 "/>
<path clip-path="url(#clip350)" d="M482.444 1264.99 L473.069 1277.61 L482.931 1290.92 L477.907 1290.92 L470.361 1280.73 L462.815 1290.92 L457.792 1290.92 L467.861 1277.35 L458.648 1264.99 L463.671 1264.99 L470.546 1274.23 L477.421 1264.99 L482.444 1264.99 Z" fill="#000000" fill-rule="nonzero" fill-opacity="1" /><polyline clip-path="url(#clip350)" style="stroke:#e26f46; stroke-linecap:round; stroke-linejoin:round; stroke-width:4; stroke-opacity:1; fill:none" points="289.884,1325.48 433.805,1325.48 "/>
<path clip-path="url(#clip350)" d="M474.296 1306.74 L474.296 1310.28 L470.222 1310.28 Q467.931 1310.28 467.028 1311.2 Q466.148 1312.13 466.148 1314.54 L466.148 1316.83 L473.162 1316.83 L473.162 1320.14 L466.148 1320.14 L466.148 1342.76 L461.866 1342.76 L461.866 1320.14 L457.792 1320.14 L457.792 1316.83 L461.866 1316.83 L461.866 1315.02 Q461.866 1310.7 463.88 1308.73 Q465.894 1306.74 470.269 1306.74 L474.296 1306.74 Z" fill="#000000" fill-rule="nonzero" fill-opacity="1" /></svg>
