<?xml version="1.0" encoding="utf-8"?>
<svg xmlns="http://www.w3.org/2000/svg" xmlns:xlink="http://www.w3.org/1999/xlink" width="600" height="400" viewBox="0 0 2400 1600">
<defs>
  <clipPath id="clip090">
    <rect x="0" y="0" width="2400" height="1600"/>
  </clipPath>
</defs>
<path clip-path="url(#clip090)" d="M0 1600 L2400 1600 L2400 0 L0 0  Z" fill="#ffffff" fill-rule="evenodd" fill-opacity="1"/>
<defs>
  <clipPath id="clip091">
    <rect x="112" y="47" width="2242" height="1440"/>
  </clipPath>
</defs>
<path clip-path="url(#clip091)" d="M-605.8 2625.78 L-605.8 2344.75 L-309.99 2204.24 L202.369 2285.37 L202.369 2566.39 L-93.4414 2706.91 L-605.8 2625.78  Z" fill="#ffffff" fill-rule="evenodd" fill-opacity="1"/>
<polyline clip-path="url(#clip091)" style="stroke:#000000; stroke-linecap:round; stroke-linejoin:round; stroke-width:2; stroke-opacity:0.1; fill:none" points="692.212,1210.56 1107.67,850.755 1107.67,131.153 "/>
<polyline clip-path="url(#clip091)" style="stroke:#000000; stroke-linecap:round; stroke-linejoin:round; stroke-width:2; stroke-opacity:0.1; fill:none" points="820.302,1247.53 1235.76,887.732 1235.76,168.13 "/>
<polyline clip-path="url(#clip091)" style="stroke:#000000; stroke-linecap:round; stroke-linejoin:round; stroke-width:2; stroke-opacity:0.1; fill:none" points="948.391,1284.51 1363.85,924.708 1363.85,205.106 "/>
<polyline clip-path="url(#clip091)" style="stroke:#000000; stroke-linecap:round; stroke-linejoin:round; stroke-width:2; stroke-opacity:0.1; fill:none" points="1076.48,1321.49 1491.94,961.684 1491.94,242.082 "/>
<polyline clip-path="url(#clip091)" style="stroke:#000000; stroke-linecap:round; stroke-linejoin:round; stroke-width:2; stroke-opacity:0.1; fill:none" points="1204.57,1358.46 1620.03,998.66 1620.03,279.059 "/>
<polyline clip-path="url(#clip091)" style="stroke:#000000; stroke-linecap:round; stroke-linejoin:round; stroke-width:2; stroke-opacity:0.1; fill:none" points="1332.66,1395.44 1748.12,1035.64 1748.12,316.035 "/>
<polyline clip-path="url(#clip091)" style="stroke:#000000; stroke-linecap:round; stroke-linejoin:round; stroke-width:2; stroke-opacity:0.1; fill:none" points="1429.28,1371.67 709.675,1163.94 709.675,444.334 "/>
<polyline clip-path="url(#clip091)" style="stroke:#000000; stroke-linecap:round; stroke-linejoin:round; stroke-width:2; stroke-opacity:0.1; fill:none" points="1510.4,1301.41 790.801,1093.68 790.801,374.077 "/>
<polyline clip-path="url(#clip091)" style="stroke:#000000; stroke-linecap:round; stroke-linejoin:round; stroke-width:2; stroke-opacity:0.1; fill:none" points="1591.53,1231.15 871.926,1023.42 871.926,303.82 "/>
<polyline clip-path="url(#clip091)" style="stroke:#000000; stroke-linecap:round; stroke-linejoin:round; stroke-width:2; stroke-opacity:0.1; fill:none" points="1672.65,1160.9 953.052,953.165 953.052,233.563 "/>
<polyline clip-path="url(#clip091)" style="stroke:#000000; stroke-linecap:round; stroke-linejoin:round; stroke-width:2; stroke-opacity:0.1; fill:none" points="1753.78,1090.64 1034.18,882.908 1034.18,163.306 "/>
<polyline clip-path="url(#clip091)" style="stroke:#000000; stroke-linecap:round; stroke-linejoin:round; stroke-width:2; stroke-opacity:0.1; fill:none" points="664.934,1114.47 1080.4,754.673 1800,962.404 "/>
<polyline clip-path="url(#clip091)" style="stroke:#000000; stroke-linecap:round; stroke-linejoin:round; stroke-width:2; stroke-opacity:0.1; fill:none" points="664.934,1006.78 1080.4,646.976 1800,854.707 "/>
<polyline clip-path="url(#clip091)" style="stroke:#000000; stroke-linecap:round; stroke-linejoin:round; stroke-width:2; stroke-opacity:0.1; fill:none" points="664.934,899.08 1080.4,539.279 1800,747.01 "/>
<polyline clip-path="url(#clip091)" style="stroke:#000000; stroke-linecap:round; stroke-linejoin:round; stroke-width:2; stroke-opacity:0.1; fill:none" points="664.934,791.383 1080.4,431.582 1800,639.313 "/>
<polyline clip-path="url(#clip091)" style="stroke:#000000; stroke-linecap:round; stroke-linejoin:round; stroke-width:2; stroke-opacity:0.1; fill:none" points="664.934,683.685 1080.4,323.885 1800,531.616 "/>
<polyline clip-path="url(#clip091)" style="stroke:#000000; stroke-linecap:round; stroke-linejoin:round; stroke-width:2; stroke-opacity:0.1; fill:none" points="664.934,575.988 1080.4,216.187 1800,423.919 "/>
<polyline clip-path="url(#clip090)" style="stroke:#000000; stroke-linecap:round; stroke-linejoin:round; stroke-width:4; stroke-opacity:1; fill:none" points="664.934,1202.68 1384.54,1410.41 "/>
<polyline clip-path="url(#clip090)" style="stroke:#000000; stroke-linecap:round; stroke-linejoin:round; stroke-width:4; stroke-opacity:1; fill:none" points="692.212,1210.56 697.197,1206.24 "/>
<polyline clip-path="url(#clip090)" style="stroke:#000000; stroke-linecap:round; stroke-linejoin:round; stroke-width:4; stroke-opacity:1; fill:none" points="820.302,1247.53 825.287,1243.21 "/>
<polyline clip-path="url(#clip090)" style="stroke:#000000; stroke-linecap:round; stroke-linejoin:round; stroke-width:4; stroke-opacity:1; fill:none" points="948.391,1284.51 953.377,1280.19 "/>
<polyline clip-path="url(#clip090)" style="stroke:#000000; stroke-linecap:round; stroke-linejoin:round; stroke-width:4; stroke-opacity:1; fill:none" points="1076.48,1321.49 1081.47,1317.17 "/>
<polyline clip-path="url(#clip090)" style="stroke:#000000; stroke-linecap:round; stroke-linejoin:round; stroke-width:4; stroke-opacity:1; fill:none" points="1204.57,1358.46 1209.56,1354.14 "/>
<polyline clip-path="url(#clip090)" style="stroke:#000000; stroke-linecap:round; stroke-linejoin:round; stroke-width:4; stroke-opacity:1; fill:none" points="1332.66,1395.44 1337.65,1391.12 "/>
<path clip-path="url(#clip090)" d="M631.528 1224.8 Q627.917 1224.8 626.088 1228.37 Q624.282 1231.91 624.282 1239.04 Q624.282 1246.14 626.088 1249.71 Q627.917 1253.25 631.528 1253.25 Q635.162 1253.25 636.967 1249.71 Q638.796 1246.14 638.796 1239.04 Q638.796 1231.91 636.967 1228.37 Q635.162 1224.8 631.528 1224.8 M631.528 1221.1 Q637.338 1221.1 640.393 1225.7 Q643.472 1230.29 643.472 1239.04 Q643.472 1247.76 640.393 1252.37 Q637.338 1256.95 631.528 1256.95 Q625.717 1256.95 622.639 1252.37 Q619.583 1247.76 619.583 1239.04 Q619.583 1230.29 622.639 1225.7 Q625.717 1221.1 631.528 1221.1 Z" fill="#000000" fill-rule="nonzero" fill-opacity="1" /><path clip-path="url(#clip090)" d="M651.69 1250.4 L656.574 1250.4 L656.574 1256.28 L651.69 1256.28 L651.69 1250.4 Z" fill="#000000" fill-rule="nonzero" fill-opacity="1" /><path clip-path="url(#clip090)" d="M666.805 1221.72 L685.162 1221.72 L685.162 1225.66 L671.088 1225.66 L671.088 1234.13 Q672.106 1233.78 673.125 1233.62 Q674.143 1233.43 675.162 1233.43 Q680.949 1233.43 684.328 1236.61 Q687.708 1239.78 687.708 1245.19 Q687.708 1250.77 684.236 1253.87 Q680.763 1256.95 674.444 1256.95 Q672.268 1256.95 670 1256.58 Q667.754 1256.21 665.347 1255.47 L665.347 1250.77 Q667.43 1251.91 669.652 1252.46 Q671.875 1253.02 674.351 1253.02 Q678.356 1253.02 680.694 1250.91 Q683.032 1248.8 683.032 1245.19 Q683.032 1241.58 680.694 1239.48 Q678.356 1237.37 674.351 1237.37 Q672.476 1237.37 670.601 1237.79 Q668.75 1238.2 666.805 1239.08 L666.805 1221.72 Z" fill="#000000" fill-rule="nonzero" fill-opacity="1" /><path clip-path="url(#clip090)" d="M749.432 1289.32 L757.071 1289.32 L757.071 1262.96 L748.761 1264.62 L748.761 1260.36 L757.025 1258.7 L761.701 1258.7 L761.701 1289.32 L769.339 1289.32 L769.339 1293.26 L749.432 1293.26 L749.432 1289.32 Z" fill="#000000" fill-rule="nonzero" fill-opacity="1" /><path clip-path="url(#clip090)" d="M778.784 1287.38 L783.668 1287.38 L783.668 1293.26 L778.784 1293.26 L778.784 1287.38 Z" fill="#000000" fill-rule="nonzero" fill-opacity="1" /><path clip-path="url(#clip090)" d="M803.853 1261.78 Q800.242 1261.78 798.413 1265.34 Q796.608 1268.88 796.608 1276.01 Q796.608 1283.12 798.413 1286.68 Q800.242 1290.23 803.853 1290.23 Q807.487 1290.23 809.293 1286.68 Q811.122 1283.12 811.122 1276.01 Q811.122 1268.88 809.293 1265.34 Q807.487 1261.78 803.853 1261.78 M803.853 1258.07 Q809.663 1258.07 812.719 1262.68 Q815.798 1267.26 815.798 1276.01 Q815.798 1284.74 812.719 1289.35 Q809.663 1293.93 803.853 1293.93 Q798.043 1293.93 794.964 1289.35 Q791.909 1284.74 791.909 1276.01 Q791.909 1267.26 794.964 1262.68 Q798.043 1258.07 803.853 1258.07 Z" fill="#000000" fill-rule="nonzero" fill-opacity="1" /><path clip-path="url(#clip090)" d="M878.517 1326.3 L886.156 1326.3 L886.156 1299.93 L877.846 1301.6 L877.846 1297.34 L886.11 1295.67 L890.786 1295.67 L890.786 1326.3 L898.425 1326.3 L898.425 1330.23 L878.517 1330.23 L878.517 1326.3 Z" fill="#000000" fill-rule="nonzero" fill-opacity="1" /><path clip-path="url(#clip090)" d="M907.869 1324.35 L912.753 1324.35 L912.753 1330.23 L907.869 1330.23 L907.869 1324.35 Z" fill="#000000" fill-rule="nonzero" fill-opacity="1" /><path clip-path="url(#clip090)" d="M922.985 1295.67 L941.341 1295.67 L941.341 1299.61 L927.267 1299.61 L927.267 1308.08 Q928.286 1307.73 929.304 1307.57 Q930.323 1307.39 931.341 1307.39 Q937.128 1307.39 940.508 1310.56 Q943.887 1313.73 943.887 1319.15 Q943.887 1324.73 940.415 1327.83 Q936.943 1330.91 930.623 1330.91 Q928.448 1330.91 926.179 1330.54 Q923.934 1330.16 921.526 1329.42 L921.526 1324.73 Q923.61 1325.86 925.832 1326.41 Q928.054 1326.97 930.531 1326.97 Q934.535 1326.97 936.873 1324.86 Q939.211 1322.76 939.211 1319.15 Q939.211 1315.54 936.873 1313.43 Q934.535 1311.32 930.531 1311.32 Q928.656 1311.32 926.781 1311.74 Q924.929 1312.16 922.985 1313.04 L922.985 1295.67 Z" fill="#000000" fill-rule="nonzero" fill-opacity="1" /><path clip-path="url(#clip090)" d="M1008.83 1363.28 L1025.15 1363.28 L1025.15 1367.21 L1003.2 1367.21 L1003.2 1363.28 Q1005.87 1360.52 1010.45 1355.89 Q1015.06 1351.24 1016.24 1349.9 Q1018.48 1347.37 1019.36 1345.64 Q1020.26 1343.88 1020.26 1342.19 Q1020.26 1339.43 1018.32 1337.7 Q1016.4 1335.96 1013.3 1335.96 Q1011.1 1335.96 1008.64 1336.72 Q1006.21 1337.49 1003.44 1339.04 L1003.44 1334.32 Q1006.26 1333.18 1008.71 1332.6 Q1011.17 1332.03 1013.2 1332.03 Q1018.57 1332.03 1021.77 1334.71 Q1024.96 1337.4 1024.96 1341.89 Q1024.96 1344.02 1024.15 1345.94 Q1023.37 1347.84 1021.26 1350.43 Q1020.68 1351.1 1017.58 1354.32 Q1014.48 1357.51 1008.83 1363.28 Z" fill="#000000" fill-rule="nonzero" fill-opacity="1" /><path clip-path="url(#clip090)" d="M1034.96 1361.33 L1039.85 1361.33 L1039.85 1367.21 L1034.96 1367.21 L1034.96 1361.33 Z" fill="#000000" fill-rule="nonzero" fill-opacity="1" /><path clip-path="url(#clip090)" d="M1060.03 1335.73 Q1056.42 1335.73 1054.59 1339.29 Q1052.79 1342.84 1052.79 1349.97 Q1052.79 1357.07 1054.59 1360.64 Q1056.42 1364.18 1060.03 1364.18 Q1063.67 1364.18 1065.47 1360.64 Q1067.3 1357.07 1067.3 1349.97 Q1067.3 1342.84 1065.47 1339.29 Q1063.67 1335.73 1060.03 1335.73 M1060.03 1332.03 Q1065.84 1332.03 1068.9 1336.63 Q1071.98 1341.22 1071.98 1349.97 Q1071.98 1358.69 1068.9 1363.3 Q1065.84 1367.88 1060.03 1367.88 Q1054.22 1367.88 1051.14 1363.3 Q1048.09 1358.69 1048.09 1349.97 Q1048.09 1341.22 1051.14 1336.63 Q1054.22 1332.03 1060.03 1332.03 Z" fill="#000000" fill-rule="nonzero" fill-opacity="1" /><path clip-path="url(#clip090)" d="M1137.91 1400.25 L1154.23 1400.25 L1154.23 1404.19 L1132.29 1404.19 L1132.29 1400.25 Q1134.95 1397.5 1139.53 1392.87 Q1144.14 1388.21 1145.32 1386.87 Q1147.57 1384.35 1148.45 1382.61 Q1149.35 1380.85 1149.35 1379.16 Q1149.35 1376.41 1147.4 1374.67 Q1145.48 1372.94 1142.38 1372.94 Q1140.18 1372.94 1137.73 1373.7 Q1135.3 1374.46 1132.52 1376.02 L1132.52 1371.29 Q1135.34 1370.16 1137.8 1369.58 Q1140.25 1369 1142.29 1369 Q1147.66 1369 1150.85 1371.69 Q1154.05 1374.37 1154.05 1378.86 Q1154.05 1380.99 1153.24 1382.91 Q1152.45 1384.81 1150.34 1387.4 Q1149.77 1388.08 1146.66 1391.29 Q1143.56 1394.49 1137.91 1400.25 Z" fill="#000000" fill-rule="nonzero" fill-opacity="1" /><path clip-path="url(#clip090)" d="M1164.05 1398.31 L1168.93 1398.31 L1168.93 1404.19 L1164.05 1404.19 L1164.05 1398.31 Z" fill="#000000" fill-rule="nonzero" fill-opacity="1" /><path clip-path="url(#clip090)" d="M1179.16 1369.63 L1197.52 1369.63 L1197.52 1373.56 L1183.45 1373.56 L1183.45 1382.03 Q1184.46 1381.69 1185.48 1381.53 Q1186.5 1381.34 1187.52 1381.34 Q1193.31 1381.34 1196.69 1384.51 Q1200.07 1387.68 1200.07 1393.1 Q1200.07 1398.68 1196.59 1401.78 Q1193.12 1404.86 1186.8 1404.86 Q1184.63 1404.86 1182.36 1404.49 Q1180.11 1404.12 1177.71 1403.38 L1177.71 1398.68 Q1179.79 1399.81 1182.01 1400.37 Q1184.23 1400.92 1186.71 1400.92 Q1190.71 1400.92 1193.05 1398.82 Q1195.39 1396.71 1195.39 1393.1 Q1195.39 1389.49 1193.05 1387.38 Q1190.71 1385.28 1186.71 1385.28 Q1184.84 1385.28 1182.96 1385.69 Q1181.11 1386.11 1179.16 1386.99 L1179.16 1369.63 Z" fill="#000000" fill-rule="nonzero" fill-opacity="1" /><path clip-path="url(#clip090)" d="M1275.15 1422.53 Q1278.5 1423.25 1280.38 1425.52 Q1282.28 1427.78 1282.28 1431.12 Q1282.28 1436.23 1278.76 1439.03 Q1275.24 1441.83 1268.76 1441.83 Q1266.58 1441.83 1264.27 1441.39 Q1261.98 1440.98 1259.52 1440.12 L1259.52 1435.61 Q1261.47 1436.74 1263.78 1437.32 Q1266.1 1437.9 1268.62 1437.9 Q1273.02 1437.9 1275.31 1436.16 Q1277.62 1434.43 1277.62 1431.12 Q1277.62 1428.06 1275.47 1426.35 Q1273.34 1424.61 1269.52 1424.61 L1265.49 1424.61 L1265.49 1420.77 L1269.71 1420.77 Q1273.16 1420.77 1274.99 1419.4 Q1276.81 1418.02 1276.81 1415.42 Q1276.81 1412.76 1274.92 1411.35 Q1273.04 1409.91 1269.52 1409.91 Q1267.6 1409.91 1265.4 1410.33 Q1263.2 1410.75 1260.56 1411.63 L1260.56 1407.46 Q1263.23 1406.72 1265.54 1406.35 Q1267.88 1405.98 1269.94 1405.98 Q1275.26 1405.98 1278.37 1408.41 Q1281.47 1410.82 1281.47 1414.94 Q1281.47 1417.81 1279.82 1419.8 Q1278.18 1421.77 1275.15 1422.53 Z" fill="#000000" fill-rule="nonzero" fill-opacity="1" /><path clip-path="url(#clip090)" d="M1291.14 1435.28 L1296.03 1435.28 L1296.03 1441.16 L1291.14 1441.16 L1291.14 1435.28 Z" fill="#000000" fill-rule="nonzero" fill-opacity="1" /><path clip-path="url(#clip090)" d="M1316.21 1409.68 Q1312.6 1409.68 1310.77 1413.25 Q1308.97 1416.79 1308.97 1423.92 Q1308.97 1431.02 1310.77 1434.59 Q1312.6 1438.13 1316.21 1438.13 Q1319.85 1438.13 1321.65 1434.59 Q1323.48 1431.02 1323.48 1423.92 Q1323.48 1416.79 1321.65 1413.25 Q1319.85 1409.68 1316.21 1409.68 M1316.21 1405.98 Q1322.02 1405.98 1325.08 1410.58 Q1328.16 1415.17 1328.16 1423.92 Q1328.16 1432.64 1325.08 1437.25 Q1322.02 1441.83 1316.21 1441.83 Q1310.4 1441.83 1307.32 1437.25 Q1304.27 1432.64 1304.27 1423.92 Q1304.27 1415.17 1307.32 1410.58 Q1310.4 1405.98 1316.21 1405.98 Z" fill="#000000" fill-rule="nonzero" fill-opacity="1" /><polyline clip-path="url(#clip090)" style="stroke:#000000; stroke-linecap:round; stroke-linejoin:round; stroke-width:4; stroke-opacity:1; fill:none" points="1384.54,1410.41 1800,1050.61 "/>
<polyline clip-path="url(#clip090)" style="stroke:#000000; stroke-linecap:round; stroke-linejoin:round; stroke-width:4; stroke-opacity:1; fill:none" points="1429.28,1371.67 1420.64,1369.17 "/>
<polyline clip-path="url(#clip090)" style="stroke:#000000; stroke-linecap:round; stroke-linejoin:round; stroke-width:4; stroke-opacity:1; fill:none" points="1510.4,1301.41 1501.77,1298.92 "/>
<polyline clip-path="url(#clip090)" style="stroke:#000000; stroke-linecap:round; stroke-linejoin:round; stroke-width:4; stroke-opacity:1; fill:none" points="1591.53,1231.15 1582.89,1228.66 "/>
<polyline clip-path="url(#clip090)" style="stroke:#000000; stroke-linecap:round; stroke-linejoin:round; stroke-width:4; stroke-opacity:1; fill:none" points="1672.65,1160.9 1664.02,1158.4 "/>
<polyline clip-path="url(#clip090)" style="stroke:#000000; stroke-linecap:round; stroke-linejoin:round; stroke-width:4; stroke-opacity:1; fill:none" points="1753.78,1090.64 1745.14,1088.15 "/>
<path clip-path="url(#clip090)" d="M1457.24 1384.48 L1445.43 1402.92 L1457.24 1402.92 L1457.24 1384.48 M1456.01 1380.4 L1461.89 1380.4 L1461.89 1402.92 L1466.82 1402.92 L1466.82 1406.81 L1461.89 1406.81 L1461.89 1414.96 L1457.24 1414.96 L1457.24 1406.81 L1441.63 1406.81 L1441.63 1402.3 L1456.01 1380.4 Z" fill="#000000" fill-rule="nonzero" fill-opacity="1" /><path clip-path="url(#clip090)" d="M1524.22 1310.14 L1542.57 1310.14 L1542.57 1314.08 L1528.5 1314.08 L1528.5 1322.55 Q1529.52 1322.2 1530.54 1322.04 Q1531.56 1321.86 1532.57 1321.86 Q1538.36 1321.86 1541.74 1325.03 Q1545.12 1328.2 1545.12 1333.62 Q1545.12 1339.19 1541.65 1342.3 Q1538.18 1345.38 1531.86 1345.38 Q1529.68 1345.38 1527.41 1345 Q1525.17 1344.63 1522.76 1343.89 L1522.76 1339.19 Q1524.84 1340.33 1527.07 1340.88 Q1529.29 1341.44 1531.76 1341.44 Q1535.77 1341.44 1538.11 1339.33 Q1540.44 1337.23 1540.44 1333.62 Q1540.44 1330.01 1538.11 1327.9 Q1535.77 1325.79 1531.76 1325.79 Q1529.89 1325.79 1528.01 1326.21 Q1526.16 1326.63 1524.22 1327.51 L1524.22 1310.14 Z" fill="#000000" fill-rule="nonzero" fill-opacity="1" /><path clip-path="url(#clip090)" d="M1616.22 1255.3 Q1613.08 1255.3 1611.22 1257.46 Q1609.39 1259.61 1609.39 1263.36 Q1609.39 1267.09 1611.22 1269.26 Q1613.08 1271.41 1616.22 1271.41 Q1619.37 1271.41 1621.2 1269.26 Q1623.05 1267.09 1623.05 1263.36 Q1623.05 1259.61 1621.2 1257.46 Q1619.37 1255.3 1616.22 1255.3 M1625.51 1240.65 L1625.51 1244.91 Q1623.75 1244.08 1621.94 1243.64 Q1620.16 1243.2 1618.4 1243.2 Q1613.77 1243.2 1611.32 1246.32 Q1608.89 1249.45 1608.54 1255.77 Q1609.9 1253.75 1611.96 1252.69 Q1614.02 1251.6 1616.5 1251.6 Q1621.71 1251.6 1624.72 1254.77 Q1627.75 1257.92 1627.75 1263.36 Q1627.75 1268.68 1624.6 1271.9 Q1621.45 1275.12 1616.22 1275.12 Q1610.23 1275.12 1607.06 1270.54 Q1603.89 1265.93 1603.89 1257.2 Q1603.89 1249.01 1607.77 1244.15 Q1611.66 1239.26 1618.21 1239.26 Q1619.97 1239.26 1621.76 1239.61 Q1623.56 1239.96 1625.51 1240.65 Z" fill="#000000" fill-rule="nonzero" fill-opacity="1" /><path clip-path="url(#clip090)" d="M1685.01 1169.63 L1707.23 1169.63 L1707.23 1171.62 L1694.69 1204.19 L1689.8 1204.19 L1701.61 1173.57 L1685.01 1173.57 L1685.01 1169.63 Z" fill="#000000" fill-rule="nonzero" fill-opacity="1" /><path clip-path="url(#clip090)" d="M1777.99 1117.52 Q1774.66 1117.52 1772.73 1119.3 Q1770.84 1121.09 1770.84 1124.21 Q1770.84 1127.34 1772.73 1129.12 Q1774.66 1130.9 1777.99 1130.9 Q1781.32 1130.9 1783.24 1129.12 Q1785.16 1127.31 1785.16 1124.21 Q1785.16 1121.09 1783.24 1119.3 Q1781.35 1117.52 1777.99 1117.52 M1773.31 1115.53 Q1770.3 1114.79 1768.61 1112.73 Q1766.95 1110.67 1766.95 1107.71 Q1766.95 1103.56 1769.89 1101.16 Q1772.85 1098.75 1777.99 1098.75 Q1783.15 1098.75 1786.09 1101.16 Q1789.03 1103.56 1789.03 1107.71 Q1789.03 1110.67 1787.34 1112.73 Q1785.67 1114.79 1782.69 1115.53 Q1786.07 1116.32 1787.94 1118.61 Q1789.84 1120.9 1789.84 1124.21 Q1789.84 1129.23 1786.76 1131.92 Q1783.71 1134.6 1777.99 1134.6 Q1772.27 1134.6 1769.19 1131.92 Q1766.14 1129.23 1766.14 1124.21 Q1766.14 1120.9 1768.03 1118.61 Q1769.93 1116.32 1773.31 1115.53 M1771.6 1108.15 Q1771.6 1110.83 1773.27 1112.34 Q1774.96 1113.84 1777.99 1113.84 Q1781 1113.84 1782.69 1112.34 Q1784.4 1110.83 1784.4 1108.15 Q1784.4 1105.46 1782.69 1103.96 Q1781 1102.45 1777.99 1102.45 Q1774.96 1102.45 1773.27 1103.96 Q1771.6 1105.46 1771.6 1108.15 Z" fill="#000000" fill-rule="nonzero" fill-opacity="1" /><polyline clip-path="url(#clip090)" style="stroke:#000000; stroke-linecap:round; stroke-linejoin:round; stroke-width:4; stroke-opacity:1; fill:none" points="664.934,1202.68 664.934,483.08 "/>
<polyline clip-path="url(#clip090)" style="stroke:#000000; stroke-linecap:round; stroke-linejoin:round; stroke-width:4; stroke-opacity:1; fill:none" points="664.934,1114.47 669.92,1110.16 "/>
<polyline clip-path="url(#clip090)" style="stroke:#000000; stroke-linecap:round; stroke-linejoin:round; stroke-width:4; stroke-opacity:1; fill:none" points="664.934,1006.78 669.92,1002.46 "/>
<polyline clip-path="url(#clip090)" style="stroke:#000000; stroke-linecap:round; stroke-linejoin:round; stroke-width:4; stroke-opacity:1; fill:none" points="664.934,899.08 669.92,894.762 "/>
<polyline clip-path="url(#clip090)" style="stroke:#000000; stroke-linecap:round; stroke-linejoin:round; stroke-width:4; stroke-opacity:1; fill:none" points="664.934,791.383 669.92,787.065 "/>
<polyline clip-path="url(#clip090)" style="stroke:#000000; stroke-linecap:round; stroke-linejoin:round; stroke-width:4; stroke-opacity:1; fill:none" points="664.934,683.685 669.92,679.368 "/>
<polyline clip-path="url(#clip090)" style="stroke:#000000; stroke-linecap:round; stroke-linejoin:round; stroke-width:4; stroke-opacity:1; fill:none" points="664.934,575.988 669.92,571.671 "/>
<path clip-path="url(#clip090)" d="M626.551 1101.27 L614.746 1119.72 L626.551 1119.72 L626.551 1101.27 M625.324 1097.19 L631.204 1097.19 L631.204 1119.72 L636.134 1119.72 L636.134 1123.61 L631.204 1123.61 L631.204 1131.75 L626.551 1131.75 L626.551 1123.61 L610.949 1123.61 L610.949 1119.09 L625.324 1097.19 Z" fill="#000000" fill-rule="nonzero" fill-opacity="1" /><path clip-path="url(#clip090)" d="M615.232 989.497 L633.588 989.497 L633.588 993.432 L619.514 993.432 L619.514 1001.9 Q620.533 1001.56 621.551 1001.39 Q622.57 1001.21 623.588 1001.21 Q629.375 1001.21 632.755 1004.38 Q636.134 1007.55 636.134 1012.97 Q636.134 1018.55 632.662 1021.65 Q629.19 1024.73 622.871 1024.73 Q620.695 1024.73 618.426 1024.36 Q616.181 1023.99 613.773 1023.25 L613.773 1018.55 Q615.857 1019.68 618.079 1020.24 Q620.301 1020.79 622.778 1020.79 Q626.783 1020.79 629.121 1018.69 Q631.459 1016.58 631.459 1012.97 Q631.459 1009.36 629.121 1007.25 Q626.783 1005.14 622.778 1005.14 Q620.903 1005.14 619.028 1005.56 Q617.176 1005.98 615.232 1006.86 L615.232 989.497 Z" fill="#000000" fill-rule="nonzero" fill-opacity="1" /><path clip-path="url(#clip090)" d="M624.607 897.216 Q621.459 897.216 619.607 899.369 Q617.778 901.522 617.778 905.272 Q617.778 908.999 619.607 911.174 Q621.459 913.327 624.607 913.327 Q627.755 913.327 629.584 911.174 Q631.435 908.999 631.435 905.272 Q631.435 901.522 629.584 899.369 Q627.755 897.216 624.607 897.216 M633.889 882.564 L633.889 886.823 Q632.13 885.989 630.324 885.55 Q628.542 885.11 626.783 885.11 Q622.153 885.11 619.699 888.235 Q617.269 891.36 616.922 897.679 Q618.287 895.665 620.347 894.6 Q622.408 893.513 624.884 893.513 Q630.093 893.513 633.102 896.684 Q636.134 899.832 636.134 905.272 Q636.134 910.596 632.986 913.813 Q629.838 917.031 624.607 917.031 Q618.611 917.031 615.44 912.448 Q612.269 907.841 612.269 899.114 Q612.269 890.92 616.158 886.059 Q620.047 881.175 626.597 881.175 Q628.357 881.175 630.139 881.522 Q631.945 881.869 633.889 882.564 Z" fill="#000000" fill-rule="nonzero" fill-opacity="1" /><path clip-path="url(#clip090)" d="M613.912 774.103 L636.134 774.103 L636.134 776.093 L623.588 808.663 L618.704 808.663 L630.509 778.038 L613.912 778.038 L613.912 774.103 Z" fill="#000000" fill-rule="nonzero" fill-opacity="1" /><path clip-path="url(#clip090)" d="M624.283 684.554 Q620.949 684.554 619.028 686.336 Q617.13 688.118 617.13 691.243 Q617.13 694.368 619.028 696.151 Q620.949 697.933 624.283 697.933 Q627.616 697.933 629.537 696.151 Q631.459 694.345 631.459 691.243 Q631.459 688.118 629.537 686.336 Q627.639 684.554 624.283 684.554 M619.607 682.563 Q616.597 681.822 614.908 679.762 Q613.241 677.702 613.241 674.739 Q613.241 670.595 616.181 668.188 Q619.144 665.78 624.283 665.78 Q629.445 665.78 632.384 668.188 Q635.324 670.595 635.324 674.739 Q635.324 677.702 633.634 679.762 Q631.968 681.822 628.982 682.563 Q632.361 683.35 634.236 685.641 Q636.134 687.933 636.134 691.243 Q636.134 696.266 633.056 698.952 Q630 701.637 624.283 701.637 Q618.565 701.637 615.486 698.952 Q612.431 696.266 612.431 691.243 Q612.431 687.933 614.329 685.641 Q616.227 683.35 619.607 682.563 M617.894 675.179 Q617.894 677.864 619.56 679.368 Q621.25 680.873 624.283 680.873 Q627.292 680.873 628.982 679.368 Q630.695 677.864 630.695 675.179 Q630.695 672.493 628.982 670.989 Q627.292 669.484 624.283 669.484 Q621.25 669.484 619.56 670.989 Q617.894 672.493 617.894 675.179 Z" fill="#000000" fill-rule="nonzero" fill-opacity="1" /><path clip-path="url(#clip090)" d="M614.514 592.551 L614.514 588.292 Q616.273 589.125 618.079 589.565 Q619.885 590.005 621.621 590.005 Q626.25 590.005 628.681 586.903 Q631.134 583.778 631.482 577.435 Q630.139 579.426 628.079 580.491 Q626.019 581.555 623.519 581.555 Q618.334 581.555 615.301 578.431 Q612.292 575.282 612.292 569.843 Q612.292 564.519 615.44 561.301 Q618.588 558.083 623.82 558.083 Q629.815 558.083 632.963 562.69 Q636.134 567.273 636.134 576.023 Q636.134 584.194 632.246 589.079 Q628.38 593.94 621.829 593.94 Q620.07 593.94 618.264 593.592 Q616.459 593.245 614.514 592.551 M623.82 577.898 Q626.968 577.898 628.796 575.745 Q630.648 573.593 630.648 569.843 Q630.648 566.116 628.796 563.963 Q626.968 561.787 623.82 561.787 Q620.672 561.787 618.82 563.963 Q616.991 566.116 616.991 569.843 Q616.991 573.593 618.82 575.745 Q620.672 577.898 623.82 577.898 Z" fill="#000000" fill-rule="nonzero" fill-opacity="1" /><polyline clip-path="url(#clip091)" style="stroke:#009af9; stroke-linecap:round; stroke-linejoin:round; stroke-width:4; stroke-opacity:1; fill:none" points="946.168,942.624 943.468,945.698 943.123,945.909 943.474,945.239 956.597,928.862 952.009,934.359 950.118,936.515 946.899,940.231 957.04,927.449 966.685,915.447 964.7,917.889 964.763,917.699 963.903,918.819 962.535,920.496 974.674,905.618 972.704,908.327 978.658,901.359 989.357,889.08 966.624,917.651 974.58,907.813 992.389,886.931 973.904,910.041 967.741,917.412 966.751,918.759 949.47,939.169 955.388,930.036 953.478,930.753 919.148,970.293 936.511,946.317 989.225,885.609 1008.06,870.55 1038.36,844.117 1056.46,832.003 1067.54,826.786 1131.99,769.689 1181.84,730.671 1165.31,755.755 1173.5,753.332 1139.47,790.775 1240.07,704.796 1192.85,749.088 1203.18,726.544 1189.02,748.017 1223.47,712.889 1244.74,703.926 1312.03,658.472 1342.27,638.966 1422.08,566.028 1421.12,573.379 1419.98,589.813 1306.48,675.537 1377.8,605.224 1375.75,622.714 1256.41,728.465 1175.41,784.283 1113.94,830.1 1167.93,762.638 1133.32,794.396 1023.33,895.866 1003.51,905.179 907.35,996.802 866.354,1027.96 869.748,1012.41 879.685,997.199 898.002,976.91 899.671,976.98 923.948,950.952 996.209,880.003 1005.17,870.745 1059.58,826.753 1088.56,812.289 1199.16,715.439 1098.25,830.234 1093.33,822.779 1114.55,796.317 1004.35,898.671 1032.2,865.304 1082.17,820.331 1089.74,820.446 1114.76,796.202 1008.97,901.964 945.457,949.151 941.715,942.582 932.355,953.192 857.766,1026 818.035,1065.91 800.938,1077.86 758.582,1120.48 756.384,1120.23 790.664,1068.34 830.404,1029.36 866.683,989.826 931.718,929.597 959.14,911.219 965.337,912.569 958.786,921.787 946.083,931.765 875.271,999.235 929.124,935.609 987.591,885.792 1073.67,824.818 1070.61,830.783 1074.96,825.189 1114.78,787.155 1238.12,683.758 1253.96,687.21 1191.98,746.958 1200.44,750.76 1325.5,646.515 1365.65,617.674 1261.51,715.31 1328.47,640.144 1324,647.065 1316.42,639.645 1233.44,717.604 1158.58,772.489 1189.96,736.913 1136.89,783.005 1024.16,883.586 970.107,931.04 923.835,968.558 931.494,949.702 971.077,905.742 992.766,883.062 1031.33,854.174 1048.49,853.595 972.474,921.61 1009.22,890.929 1049.14,842.297 1101.34,809.261 966.709,938.723 955.748,939.973 954.278,936.862 1025.93,869.217 927.015,956.253 985.793,894.499 1067.82,823.433 1025.38,872.139 1014.31,884.979 1008.3,898.782 1044.48,859.156 1058.25,847.001 1089.06,835.98 1076.53,847.717 1017.57,880.567 996.484,898.349 1002.43,897.936 1042.15,849.699 1102.48,805.262 1017.2,882.533 949.389,951.106 1010.99,888.942 1097.17,819.907 1250.59,681.826 1316.93,650.453 1383.17,604.668 1333.73,648.972 1233.38,731.026 1207.11,740.983 1160.24,779.76 1142.6,794.474 1242.86,700.159 1222.42,728.508 1224.55,704.002 1391.43,574.249 1566.48,465.838 1585.33,464.866 1605.78,470.418 1723.21,376.991 1762.84,377.293 1723.79,412.665 1720.37,410.269 1629.5,483.338 1615.4,484.166 1509.75,563.698 1455.52,595.023 1449.7,591.148 1385.99,636.449 1351.8,653.402 1331.16,664.374 1307.24,677.532 1280.08,694.66 1252.33,713.188 1204.26,750.399 1207.04,737.319 1114.21,828.621 1131.22,800.243 1118.14,810.742 1206.05,710.72 1261.64,670.903 1250.02,700.456 1245.44,701.191 1223.05,727.126 1145.97,785.813 1185.93,739.56 1202.91,726.635 1235.5,693.04 1121.04,804.484 1084.6,826.382 1000.53,898.53 1054.52,841.111 1049.23,849.295 978.555,906.491 983.301,898.26 1036.86,847.44 1030.03,864.8 1021.66,879.694 1024.27,866.343 1031.68,855.094 962.586,936.95 1038.72,860.82 1005.51,899.318 1045.1,873.909 1049.54,852.476 1205.22,702.884 1152.46,756.824 1109.96,793.582 1058.64,835.139 1049.76,867.94 1004.04,905.057 880.56,1015.57 854.574,1031.99 851.328,1023.72 798.822,1080.14 777.606,1098.16 775.153,1097.54 758.778,1114.96 750.987,1115.01 709.688,1168.03 697.059,1178.01 713.965,1153.62 767.281,1090.55 841.348,1014.25 879.457,985.719 896.556,972.741 926.104,941.333 912.916,960.629 931.551,947.712 964.136,914.843 920.027,965.823 1024.59,856.257 971.652,910.339 1015.29,866.062 1089.14,801.134 1016.17,876.937 964.94,919.178 917.587,965.316 807.437,1067.02 800.318,1070.06 710.525,1167.67 722.794,1142.32 793.454,1060.13 812.903,1046.76 805.104,1060.46 819.722,1050.64 851.606,1013.58 789.815,1086.01 759.144,1114.08 726.935,1140.03 740.475,1126.86 750.1,1114.16 794.789,1069.96 761.428,1109.28 777.196,1090.63 807.692,1066.84 804.382,1068.47 842.361,1027.29 906.182,972.172 888.769,990.738 895.122,978.287 882.27,992.325 937.298,931.993 996.413,897.313 969.181,927.824 1014.38,883.323 999.32,892.578 1036.71,856.52 986.919,910.234 1060.95,832.115 1147.3,769.814 1127.64,791.292 1086.83,834.283 982.357,918.459 1011.64,881.051 1069.18,823.466 1133.52,763.549 1174.06,734.769 1154.18,769.853 1093.82,826.757 1017.98,894.89 969.753,929.491 956.71,935.142 974.947,910.321 930.766,957.912 917.758,970.644 891.729,993.201 873.021,1001 883.711,991.002 896.39,980.639 911.203,979.63 1029.84,854.27 1043.4,857.559 1182.35,720.345 1220.94,704.606 1194.08,744.999 1283.83,670.258 1275.48,691.332 1302.69,662.171 1338.45,636.27 1334.21,657.41 1338.82,635.152 1308.14,676.118 1272.37,700.723 1208.69,750.137 1136.77,798.881 1154.3,778.254 1143.09,773.641 1139.16,772.553 1132.21,791.361 1141.44,791.03 1104.78,824.633 1088.38,833.578 1000.32,906.657 996.682,897.665 1008.78,874.873 1070.49,825.495 1004.67,902.227 1048.01,853.826 1077.81,828.357 1059.77,842.433 1038.24,862.591 1017.32,881.101 928.647,959.303 921.95,952.9 856.969,1020.87 986.192,878.814 1024.28,849.35 1024.8,872.455 1010.57,880.033 1011.81,876.829 989.962,898.996 1075.01,832.45 1028.86,860.131 1000.04,883.467 1026.85,854.814 1105.75,774.639 1187.67,726.797 1242.66,688.589 1108.12,819.731 1105.82,817.653 1142.69,760.998 1141.03,773.628 1142.16,780.152 1117.98,783.452 1154.05,762.698 1171.84,749.207 1151.71,782.635 1109.14,797.473 1105.05,811.95 1199.63,715.798 1213.05,715.085 1271.7,677.129 1255.84,693.073 1420.73,568.475 1375.33,618.678 1321.73,653.522 1368.14,618.204 1208.66,751.518 1181.75,760.283 1174.4,751.709 1113.15,814.512 1163.2,762.636 1118.32,801.745 1116.78,802.033 1133.87,774.068 1004.97,889.501 905.422,986.552 938.917,943.549 991.645,888.394 1054.52,828.593 1102.85,781.16 1214.65,680.403 1232.03,685.403 1171.96,768.21 1170.27,766.128 1221.94,722.811 1157.6,767.894 1218.26,726.634 1227.77,714.122 1247.3,700.285 1244.53,696.777 1241.36,720.52 1248.32,712.117 1200,753.762 1133.49,803.522 1088.05,837.099 1052.35,854.621 1093.54,823.643 1057.68,840.357 1001.89,896.74 1145.36,767.925 1106.59,814.596 1113.85,802.456 1178.81,743.249 1160.12,764.303 1153.08,777.329 1213.13,724.083 1229.66,712.478 1110.25,819.707 1158.6,761.888 1094.92,824.343 1033.58,873.574 942.944,956.808 898.566,994.187 893.609,989.556 1004.74,883.495 1087.87,807.706 1155.65,747.133 1225.34,703.439 1232.19,709.196 1134.65,806.435 1036.44,881.001 991.785,915.976 976.492,913.264 957.522,936.02 969.531,916.5 938.383,947.456 860.399,1021.38 816.973,1066.77 772.484,1109.87 714.547,1168.09 739.399,1128.09 789.378,1068.59 801.318,1060.04 881.869,968.281 905.343,957.597 892.754,985.02 929.942,941.303 945.211,929.848 945.876,935.693 989.847,900.596 983.768,908.723 1051.54,836.417 1000.26,908.18 964.962,931.223 935.962,951.89 886.476,994.231 856.3,1019.17 864.715,1009.49 900.583,981.089 935.008,939.089 1000.04,888.596 999.683,897.457 1010.24,883.048 961.166,936.891 991.338,909.079 1016.63,891.422 960.763,929.473 941.537,940.798 990.145,924.124 1007.13,881.034 1012.83,868.116 1056.22,828.221 1079.73,828.475 1107.62,811.282 1147.83,774.297 1124.91,795.609 1152.46,761.622 1138.52,768.517 1082.72,819.528 1088.74,810.297 1187.44,735.126 1332.47,638.31 1331.68,647.384 1362.73,622.783 1251.38,713.71 1171.78,775.86 1089.16,839.499 1020.27,890.129 1051.14,851.499 1066.71,838.849 1088.86,816.729 1114.98,805.574 1137.01,776.094 1163.91,751.465 1224.44,700.271 1235.75,698.194 1297.66,658.384 1282.99,681.92 1418.41,564.094 1457,543.695 1369.28,638.992 1312.26,685.18 1311.61,668.374 1355.24,621.744 1357.86,624.666 1396.14,596.809 1373.36,638.429 1239.54,745.896 1277.53,689.108 1217.65,749.113 1192.45,752.858 1162.02,776.699 1103.8,823.793 1123.76,796.954 1185.94,733.233 1168.17,758.286 1132.14,797.669 1123.27,794.039 1151.87,771.495 1145.66,776.351 1138.22,770.378 1046.15,854.048 1128.26,782.706 1172.37,757.502 1133.87,807.287 1153.23,760.013 1238,692.989 1311.19,629.765 1359.99,620.948 1465.04,535.47 1279.98,711.819 1256.01,714.852 1222.71,725.183 1244.79,699.9 1187,753.316 1160.43,772.244 1109.91,813.495 1122.05,792.055 1169.69,746.491 1075.77,833.977 1078.14,832.5 1091.93,823.962 1081.23,834.322 990.358,913.871 933.766,966.5 886.672,1002.73 916.343,966.823 917.327,963.123 899.487,980.739 912.94,966.598 842.744,1033.73 949.462,925.294 1097.38,786.87 1113.79,784.234 1178.85,746.546 1120.94,808.117 1084.28,833.994 1141.25,778.101 1037.86,871.563 1149.5,753.015 1157.44,771.833 1202.65,730.813 1287.41,661.417 1310.65,654.983 1231.74,731.513 1170.83,778.561 1134.47,803.034 1179.28,744.765 1154.94,782.947 1127.51,794.449 1084.46,833.59 1013.27,900.593 1113.06,790.543 1171.44,730.541 1163.79,769.202 1129.19,797.353 1119.49,803.053 1157.21,765.15 1164.25,761.915 1100.16,816.886 982.115,922.01 935.359,960.303 926.063,962.078 893.08,989.147 930.701,946.09 995.598,885.847 977,908.877 977.671,908.504 955.875,935.071 1002.85,893.073 957.105,940.202 891.824,1001.7 967.811,902.289 1022.1,854.596 1011.44,867.501 1039.03,853.337 1161.51,744.57 1358.95,577.117 1480.72,504.311 1377.07,624.189 1415.31,582.8 1477.26,532.789 1456.27,565.141 1485.27,552.749 1365.44,645.111 1367.39,638.908 1318.43,665.99 1287.49,690.855 1215.79,741.346 1252.09,693.516 1268.8,680.156 1231.12,714.563 1305.76,637.072 1350.31,611.72 1333.55,648.986 1349.08,625.185 1417.64,569.553 1320.39,664.958 1264.21,705.367 1191.82,762.729 1145.19,796.99 1156.04,770.922 1101.12,825.782 1178.77,741.056 1280.69,659.675 1312.86,644.995 1248.31,699.605 1172.32,769.551 1188.82,740.353 1140.86,784.178 1183.48,747.296 1208.1,736.61 1067.61,847.251 1034.87,878.511 988.03,911.538 1001.17,887.982 928.053,965.069 884.301,996.625 919.958,954.33 893.337,987.129 830.61,1051.66 805.882,1073.43 831.214,1034.87 827.01,1037.14 850.192,1021.71 855.507,1017.96 838.511,1033.64 833.102,1039.48 829.945,1041.05 842.964,1032.21 913.573,961.776 971.8,905.341 893.972,992.351 870.988,1011.58 910.637,965.955 953.048,926.502 1030.64,854.922 1101.53,793.086 1205.11,716.165 1338.21,617.833 1251.61,703.838 1197.86,749.78 1157.58,766.449 1076.1,835.131 1027.4,867.556 1113.94,782.347 1186.5,738.963 1176.03,753.699 1149.13,777.793 1337.57,615.811 1365.81,608.314 1431.9,556.974 1431.4,575.144 1443.93,579.992 1351.33,647.061 1418.42,579.5 1366.29,627.614 1309.39,675.187 1253.22,711.119 1170.81,776.718 1207.31,733.083 1225.72,715.876 1215.77,724.07 1118.72,809.375 1181.98,743.056 1236.14,692.111 1194.6,734.658 1179.04,751.254 1232.67,699.46 1284,681.775 1251.79,721.941 1264.54,687.185 1125.32,813.01 1086.19,845.089 1070.51,843.016 1002.05,899.236 1053.82,838.016 974.811,923.908 950.671,937.175 957.356,927.659 1011.85,876.573 1002.54,883.989 1040.04,853.801 1106.11,799.348 1119.35,794.154 1117.53,791.405 1210.53,716.922 1224.58,710.691 1236.45,708.702 1219.1,729.771 1202.6,743.323 1164.7,779.334 1086.06,841.589 1193.86,724.616 1182.09,742.89 1273.69,662.821 1199.32,747.118 1240.69,697.994 1353.25,633.652 1429.97,563.248 1503.28,519.594 1584.78,453.983 1497.03,549.698 1445.18,591.171 1402.3,615.493 1302.46,689.852 1183.87,788.859 1255.37,696.867 1323.18,630.187 1410.47,566.998 1431.43,561.4 1417.03,582.296 1391.86,607.45 1387.97,610.504 1333.64,654.493 1246.38,727.123 1278.97,684.938 1198.31,757.804 1266.67,675.219 1194.68,747.48 1260.79,680.938 1210.18,727.98 1196.36,740.217 1094.66,833.526 1005.15,907.907 982.882,917.924 1045,841.943 1055.02,837.591 1099.57,800.469 1096.57,817.688 1046.52,854.528 1174.79,728.932 1306.75,636.264 1421.32,561.28 1522.44,504.349 1449.94,577.902 1578.72,463.318 1572.77,481.255 1483.34,558.378 1415.92,615.542 1364.2,652.253 1349.13,661.074 1296.46,690.676 1251.48,717.634 1222.69,735.943 1206.6,748.307 1137.68,804.54 1198.94,732.123 1082.31,843.045 1066.69,848.09 1185.67,728.947 1320.65,614.659 1296.27,663.66 1323.69,638.908 1381.35,611.684 1311.02,669.831 1346.58,636.615 1208.74,758.057 1198.06,751.576 1253.5,689.115 1379.39,576.611 1313.93,655.966 1345.4,625.141 1414.34,572.895 1475.74,528.385 1572.02,465.202 1623.57,437.906 1655.91,439.39 1522.45,546.374 1479.21,573.437 1391.42,637.249 1340.38,671.166 1365.33,628.676 1414.2,572.877 1296.69,684.872 1251.52,714.845 1201.68,757.528 1146.25,798.877 1173.57,762.637 1289.61,641.153 1259.94,681.244 1234.07,717.062 1174.32,767.877 1147.15,785.125 1063.74,857.463 1084.31,819.941 1110.36,793.578 1097.67,811.672 1088.95,811.746 1074.47,831.545 1068.82,844.537 951.631,954.23 932.325,962.391 892.343,1000.4 872.225,1011.26 856.754,1019.41 865.138,1005.58 842.636,1034.86 863.166,1010.8 820.707,1056.73 808.686,1072.98 848.347,1018.04 894.623,972.066 876.94,987.161 906.222,956.336 914.636,952.249 903.701,972.851 939.197,934.271 934.079,949.007 908.852,971.137 881.155,1001.16 914.143,969.691 817.16,1063.33 791.829,1079.52 831.492,1027.55 871.759,993.447 809.083,1069.69 853.912,1024.17 801.725,1071.44 861.324,1000.57 945.69,910.629 991.021,870.875 1012.43,859.779 1047.93,838.168 1037.7,865.792 1019.15,885.934 887.139,1007.09 860.127,1026.86 910.596,963.043 930.26,944.721 929.473,942.396 916.24,959.971 938.4,941.878 956.564,921.453 994.82,890.321 994.615,892.076 1047.97,835.443 1078.73,816.03 1087.43,812.206 1091.27,818.198 1065.48,825.552 997.258,884.762 965.569,915.368 964.651,943.513 1049.33,855.159 1108.84,815.038 1080.58,837.473 1100.28,825.609 1154.11,781.253 1111.59,803.321 1070.75,847.613 1130.79,809.186 1225.17,719.013 1246.25,715.04 1229.6,727.559 1288.92,667.815 1246.03,698.51 1189.26,770.794 1220.08,709.324 1224.64,714.321 1240.04,708.759 1212.17,740.478 1181.69,757.993 1263.06,681.876 1264.3,694.428 1226.22,723.789 1272.91,681.103 1278.73,671.511 1316.6,653.537 1283.96,692.943 1215.66,729.172 1152.81,787.235 1036.91,891.77 948.948,969.648 912.158,989.988 886.033,1006.44 923.41,956.26 909.04,967.666 940.399,937.247 905.034,980.776 864.853,1012.5 838.656,1033.55 834.72,1037.71 862.906,1003.54 867.065,996.505 858.528,1006.29 837.101,1035.75 883.868,985.164 889.331,981.14 1020.12,859.224 1027.05,860.227 1049.18,846.282 1102.26,803.411 1152.16,775.403 1170.21,763.319 1060.96,850.929 1084.58,826.936 1120.75,805.866 1167.83,756.615 1195.71,729.529 1181.88,760.183 1196.41,737.923 1134.09,787.857 1170.19,741.667 1215.12,726.458 1225.9,707.225 1234.02,706.696 1287.72,673.425 1250.71,707.662 1222.37,725.714 1132.53,806.49 1135.76,793.703 1060.76,857.153 1049.16,857.719 1068.9,835.967 1214.79,700.982 1261.62,668.386 1263.18,686.148 1249.86,709.499 1232.37,717.877 1200.8,746.68 1074.36,855.283 1056.59,859.973 1027.55,885.483 960.41,943.255 914.698,982.492 976.687,901.646 979.62,906.355 980.347,909.819 944.539,945.628 902.886,981.707 916.334,961.918 889.765,990.118 924.635,964.497 967.149,910.36 1068.2,826.893 1010.51,892.188 1034.88,855.335 1033.42,869.14 1013.35,880.56 934.324,966.958 970.342,911.065 942.911,939.695 838.557,1039.99 836.109,1037.48 882.255,986.653 900.326,968.128 862.982,1014 848.977,1024.7 887.339,987.566 895.685,973.386 909.389,954.671 853.431,1019.59 818.782,1060.95 797.048,1085.45 829.794,1048.29 893.402,986.352 913.333,975.647 941.535,944.769 893.069,995.082 950.466,939.906 883.853,995.816 908.681,972.683 921.475,958.382 876.418,991.659 969.72,905.918 856.479,1021.18 879.264,997.736 881.091,1008.02 841.217,1038.65 936.783,937.394 1073.63,799.454 1031.52,860.979 1121.56,773.909 1116.8,801.622 1123.45,791.461 1158.89,774.17 1178.62,750.916 1157.07,775.216 1255.63,684.367 1241.13,704.736 1390.33,577.409 1347.67,628.729 1362.84,625.72 1376.47,622.791 1282.85,697.252 1255.23,715.333 1218.7,730.772 1263.45,684.226 1202.67,742.735 1267.47,679.424 1207.86,737.968 1145.78,789.146 1150.87,771.362 1134.08,790.667 1053.41,859.642 1058.37,849.784 991.246,917.15 991.83,906.206 981.235,911.448 1034.13,861.179 1019.25,872.614 973.872,908.194 1037.03,852.389 1061.74,844.591 1039.35,867.719 1139.04,782.36 1218.4,701.211 1218.14,714.592 1262.47,673.094 1285.39,665.474 1275.33,684.364 1264.04,694.533 1137.88,803.183 1031.75,894.543 1056.37,854.032 1082.73,829.794 1104.45,807.197 1120.72,797.139 1111.33,807.355 1093.58,834.531 1062.49,844.51 1047.89,855.011 1000,903.955 1028.78,873.555 1033.95,868.622 1070.38,822.941 1086.4,811.343 1129.94,776.633 1121.16,796.81 1248.32,682.175 1223.46,712.492 1262.46,685.255 1311.79,670.985 1357.57,630.57 1303.55,659.282 1204.55,743.164 1143.56,799.63 1107.17,819.372 1090.31,828.168 1003.61,905.342 963.069,942.461 974.199,918.122 945.07,941.547 998.345,877.228 923.793,951.9 970.688,898.528 1008.2,857.841 881.434,983.174 893.164,975.774 1059.12,802.989 1116.05,776.753 1130.52,778.773 1108.16,808.222 1163.68,743.955 1207.72,720.079 1286.23,653.312 1321.76,632.587 1318.79,650.714 1294.1,670.637 1303.58,662.371 1199.98,770.562 1209.28,743.356 1186.27,756.525 1113.63,818.288 1144.01,775.941 1084.29,825.357 1065.91,846.533 1024.43,885.203 1062.99,847.835 1038.6,867.292 1014.35,882.951 962.352,930.972 946.912,938.442 855.587,1023.86 927.682,947.269 969.168,918.017 1020.25,867.324 964.113,913.747 923.504,959.166 911.249,972.639 817.082,1055.48 802.495,1069.03 804.815,1058.8 824.911,1032.94 834.469,1018.93 868.523,990.911 890.98,982.986 977.481,901.308 1035.7,852.006 1043.5,852.125 1044.32,851.002 1084.82,802.542 1109.22,784.191 1209.98,709.456 1153.27,772.691 1155.47,772.481 1207.93,712.84 1166.82,758.365 1185.75,763.579 1305.51,669.915 1236.44,713.719 1201.08,731.152 1268.23,684.788 1265.95,696.204 1318.21,668.39 1420.97,595.597 1404.38,588.617 1377.71,621.046 1283.16,697.79 1134.73,822.131 1054.85,886.49 1062.1,857.113 1007.32,906.21 998.701,897.481 1017.71,872.653 1103.13,777.016 1171.49,729.358 1231.65,686.188 1226.27,701.904 1169.83,761.002 1145.93,780.742 1131.5,790.554 1155.4,773.872 1188.68,741.136 1183.46,749.06 1160.5,770.644 1157.55,792.82 1105.71,820.286 1057.59,861.94 1061.07,848.721 1065.33,843.022 1127.29,774.192 1055.97,836.988 1101.08,800.521 1167.52,757.434 1091.95,823.976 1164.33,760.931 1176.96,749.638 1134.85,786.56 1136.3,793.561 1205.7,742.243 1215.92,726.494 1294.76,669.415 1346.68,637.132 1376.96,614.14 1324.7,656.15 1264.8,699.775 1419.2,573.175 1561.84,481.567 1541.32,508.439 1689.29,381.447 1669.75,424.676 1604.3,484.476 1602.06,488.828 1548.66,522.844 1608.3,461.621 1640.74,447.978 1643.49,454.283 1687.84,416.824 1754.11,367.459 1739.76,393.751 1608.67,506.304 1490.7,591.374 1494.69,565.711 1469.5,580.622 1392.37,639.52 1404.08,609.087 1363.27,641.559 1277.58,713.008 1323.41,651.413 1297.45,671.704 1326.15,641.487 1386.01,582.54 1350.02,627.868 1347.56,628.914 1354.2,624.595 1342.92,636.341 1245.93,721.305 1285.01,670.906 1228.69,718.899 1292.66,655.435 1357.17,608.242 1386.64,592.93 1379.35,615.291 1321.03,662.089 1287.77,685.118 1225.86,732.214 1190.76,757.985 1156.42,774.892 1016.73,905.124 985.278,921.137 1049.05,843.908 1087.06,811.732 1083.02,825.292 1101.68,799.049 1150.51,778.272 1120.07,810.356 1168.97,756.845 1216.45,720.363 1197.39,736.871 1161.05,771.995 1216.72,713.74 1150.4,777.746 1133.98,781.519 1162.19,758.351 1226.92,714.19 1258.65,690.774 1237.55,715.635 1228.52,728.018 1216.75,736.992 1198.57,746.908 1266.9,696.817 1140.3,792.727 1245.14,682.418 1337.7,617.038 1328.14,651.621 1372.78,614.916 1286.56,692.063 1311.34,656.396 1301.38,674.122 1187.51,759.222 1114.97,822.731 1152.8,767.381 1059.64,860.082 1060.1,854.166 1087.64,824.367 1102.5,811.098 1140.76,784.913 1120.75,804.477 1071.74,854.023 1055.53,850.324 1088.72,827.971 1125.73,782.664 1122.7,779.587 1048.45,849.059 1013,883.815 1010.33,878.228 1067.67,855.126 1055.36,858.595 994.408,906.866 1001.32,887.751 1033.29,861.325 941.922,948.403 971.964,911.878 1021.32,865.629 981.564,903.571 987.552,897.761 945.852,945.691 990.061,901.503 1058.09,850.768 1082.23,815.552 1041.98,857.3 967.673,909.515 959.107,928.852 981.592,906.755 978.328,924.098 1091.17,803.981 1127.35,785.185 1056.77,837.108 1022.29,875.803 988.708,899.987 1040.68,844.197 1142.17,770.975 1180.19,752.42 1252.13,696.778 1129.99,798.378 1026.87,876.944 970.573,927.035 971.49,911.114 902.451,976.823 965.003,902.401 979.805,899.74 994.312,885.3 936.451,945.349 1037.32,838.397 1020.26,860.637 1073.23,828.473 1112.47,790.422 1107.48,808.046 1133.22,785.238 1162.45,772.06 1218.95,707.51 1145.5,791.801 1103.98,834.162 1138.97,793.94 1063.98,858.154 1043.71,867.362 1015.62,890.686 1046.37,870.772 1022.79,869.926 1001.41,901.007 1043.36,842.52 985.819,894.181 959.525,909.745 1040.38,835.648 1084.35,817.332 1086.46,813.506 1092.65,821.219 1059.97,840.142 1027.31,875.288 1030.59,878.418 945.238,944.074 976.026,910.997 992.068,894.049 982.257,902.757 1033.12,855.153 1108.08,792.152 1177.44,737.127 1231.59,691.342 1298.99,657.995 1325.37,645.345 1365.27,623.652 1336.92,649.557 1258.04,725.317 1252.65,701.979 1222.06,734.43 1203.21,744.17 1151.79,777.519 1109.38,817.618 1175.09,745.846 1285.16,675.151 1346.78,622.703 1429.87,560.868 1379.11,620.257 1345.86,647.715 1361.04,631.335 1299.11,676.806 1368.67,606.889 1361.93,612.874 1372.32,618.613 1343.2,649.714 1306.97,681.186 1317.61,664.827 1252.53,711.024 1280.04,680.716 1387.34,583.384 1436.94,575.637 1393.86,614.056 1426.28,589.166 1399.98,603.999 1410.29,583.746 1453.84,571.616 1458.18,563.603 1465.34,568.551 1483.64,560.794 1441.02,585.896 1514.93,521.199 1403.41,615.193 1365.57,636.464 1418.15,578.587 1460.01,554.845 1324.09,668.937 1225.51,755.264 1201.76,759.393 1246.65,702.591 1272.09,678.19 1261.17,699.477 1238.63,713.399 1206.83,740.561 1177.17,760.716 1150.72,782.133 1145.94,790.264 1164,763.699 1215.42,725.174 1222.23,715.244 1148.44,786.031 1081.02,837.144 1049.7,861.052 980.438,917.949 987.824,903.795 1031.8,852.081 1068.83,833.447 1012.06,898.729 985.616,912.359 1045.33,844.428 1018.54,877.545 1002.32,895.095 917.552,982.444 899.364,985.483 860.715,1023.35 863.886,1015.7 862.477,1013.44 863.953,1006.91 874.108,998.183 901.676,973.145 919.174,956.802 945.329,940.876 942.869,942.78 958.854,941.596 963.97,924.529 901.678,982.712 995.739,874.943 1007.21,878.901 1010.39,874.636 999.859,904.04 1052.99,843.614 1211.63,708.412 1206.51,729.16 1206.58,730.725 1188.78,755.414 1283.34,666.695 1340.03,639.64 1395.12,588.501 1476.28,533.368 1372.73,619.24 1372.99,624.579 1359.47,625.933 1315.2,662.982 1283.39,692.718 1321.62,649.937 1347.44,609.056 1345.04,614.98 1312.26,673.705 1277.77,699.478 1289.5,675.461 1318.58,649.769 1397.06,577.792 1452.42,557.349 1399.18,604.001 1460.42,551.612 1422.88,600.859 1271.62,728.518 1194.48,778.245 1156.28,801.897 1136.63,800.947 1164.93,762.536 1183.97,744.273 1083.67,836.774 1039.12,879.212 1036.49,867.301 1001.54,897.843 1003.97,886.73 999.662,891.177 994.162,894.464 958.055,927.937 932.645,949.908 811.343,1063.11 837.256,1028.31 812.295,1057.65 819.682,1046.04 796.276,1077.37 848.803,1016.35 956.065,910.621 1017.6,852.714 972.455,911.873 985.256,902.364 944.65,947.203 987.197,899.045 975.955,906.66 1049.76,840.226 960.819,924.15 964.951,930.953 909.884,977.955 998.658,878.178 1030.66,857.969 1082.88,813.779 1048.41,866.056 1066.71,849.434 1014.21,883.716 1052.86,848.526 1055.72,842.006 1006.77,899.706 1020.11,874.194 1013.97,874.147 1095.61,820.436 1124.5,782.831 1126.93,790.177 1116.28,803.449 1121.59,787.543 1129.78,780.811 1067.58,841.956 1061.61,832.339 1044.6,854.563 1032.15,864.391 1109.84,791.722 1148.98,769.373 1123,789.614 1128.44,782.68 1071.01,832.269 1073.85,824.829 1122.94,786.728 1129.75,780.843 1187.18,738.399 1153.47,771.04 1147.05,778.715 1148.08,775.147 1040.43,875.348 1045.92,856.691 998.932,907.23 1020.83,876.309 983.951,911.331 991.079,890.894 1026.98,866.307 1082.79,808.994 1137.29,760.201 1219.75,696.739 1342.51,604.457 1302.29,652.589 1295.79,669.777 1248.63,714.897 1164.02,768.304 1239.53,691.993 1136.39,791.383 1223.47,710.356 1305.01,632.967 1260.5,699.714 1329.2,641.623 1188.78,764.168 1208.24,724.934 1179,750.916 1249.25,691.492 1339.23,630.977 1315.52,659.271 1287.96,682.288 1331.1,629.591 1284.08,680.183 1253.77,707.409 1144.81,789.83 1181.2,744.807 1126.66,796.239 1088.23,829.571 1054.59,847.662 1062.49,835.746 1140.32,782.377 1145.12,786.393 1145.48,774.442 1154.55,753.636 1222.7,713.286 1244.95,695.191 1279.55,664.118 1245.81,697.645 1293.53,668.914 1249.27,715.545 1187.37,753.23 1225,713.604 1261.44,679.662 1341.68,613.994 1278.48,679.509 1253.12,698.245 1328.76,637.922 1294.78,673.118 1214.15,737.303 1127.21,808.079 1108.05,816.876 1136.34,775.573 1112.34,797.175 1120.25,802.831 1126.13,800.98 1157.37,764.97 1108.31,800.515 1174.17,760.695 1123.84,809.095 1214.5,738.044 1324.32,638.823 1330,661.301 1239.31,730.27 1194.69,753.556 1185.15,741.01 1311.55,638.526 1344.53,610.056 1365.7,589.406 1332.09,635.184 1252.81,700.023 1227.45,723.771 1379.08,594.111 1407.21,596.655 1540.96,485.153 1641.06,437.193 1588.57,490.633 1441.06,619.591 1391.18,646.299 1283.05,723.314 1171.76,809.45 1114.41,846.158 1125.61,813.546 1120.02,810.191 1108.07,813.666 1073.6,843.942 1044.02,870.042 1066.64,838.597 1107.79,792.458 1069.95,839.165 1071.68,829.932 1122.83,778.834 1110.43,796.135 1133.53,786.38 1080.57,827.509 1131.11,764.329 1106.4,794.12 1074.11,815.831 1122.09,800.848 1106.42,819.938 1053.68,867.243 1037.94,876.264 1069.19,843.353 1094.41,807.967 1118.14,791.355 1135.93,774.277 1178.46,739.227 1170.6,747.218 1075.35,849.592 1028.59,884.44 1033.21,871.258 952.463,953.05 1004.33,886.922 978.639,914.115 948.53,942.078 976.393,905.997 1046.24,835.067 1047.32,850.981 1022.39,874.661 1009.36,890.792 973.826,920.018 1021.38,861.327 1001.24,882.519 1003.03,889.16 1050.51,836.627 1095.5,796.347 1116.72,785.261 1155.14,766.615 1199.44,727.389 1178.82,749.677 1219.96,723.278 1108.61,817.668 1112.8,816.968 1178.62,762.538 1123.86,803.619 1115.74,803.661 1129.99,788.322 1001.96,898.517 943.604,955.094 937.694,947.051 928.653,951.922 927.494,956.279 860.032,1026.51 895.762,975.854 872.025,1009.53 856.582,1024.01 879.854,994.867 858.206,1019.25 845.692,1029.17 798.891,1070.37 874.743,988.751 917.299,955.447 938.754,928.039 953.817,910.828 920.49,949.981 884.729,987.942 894.836,977.724 903.811,977.52 922.884,953.639 931.875,942.929 1059.3,829.435 1169.76,720.818 1203.67,712.953 1208.62,730.61 1314.26,643.717 1377.8,604.3 1334.46,650.514 1257.31,726.025 1300.69,675.166 1240.3,736.274 1275.2,690.179 1215.11,717.764 1245.36,689.073 1252.77,701.622 1180.44,760.526 1271.61,669.823 1371.37,600.299 1355.16,628.107 1340.64,642.092 1401.87,598.759 1333.53,654.521 1367.07,621.534 1408.14,580.143 1483.88,521.766 1566.88,477.217 1533.94,514.119 1428.28,592.473 1438.73,581.798 1399.67,615.764 1399.99,610.372 1315.4,677.235 1348.11,638.12 1339.27,643.934 1223.34,749.448 1165.84,785.138 1126.56,810.181 1128.75,795.286 1114.93,805.896 1163.03,752.564 1172.35,751.673 1055.14,860.843 1057.38,851.249 1119.05,783.545 1077.63,829.504 1192.12,734.425 1312.05,618.916 1285.9,673.595 1307.61,653.719 1232.27,729.921 1098.43,846.463 1111.39,817.6 1165.81,755.839 1175.1,751.759 1182.55,741.281 1135.7,789.184 1059.81,857.021 1084.6,825.81 1156.38,744.167 1223.45,701.796 1196.8,736.535 1188.6,746.904 1151.97,784.159 1151.73,779.79 1129.4,798.475 1140.44,776.401 1129.88,779.312 1107.88,802.788 1066.19,851.997 1229.03,686.689 1245.7,685.392 1195.78,746.586 1127.74,805.693 1135.94,789.622 1120.81,798.525 1120.36,788.261 1037.57,866.816 996.411,899.115 1003.64,889.764 898.882,985.641 915.525,958.173 908.42,957.463 917.305,966.029 930.948,946.958 924.126,950.026 950.823,925.898 953.218,922.612 958.804,920.689 936.977,945.676 946.912,936.31 1004.93,879.135 920.694,969.134 852.322,1041.43 913.995,972.227 872.43,1012.2 853.762,1020.29 914.057,975.748 923.62,967.812 961.262,937.882 1006.66,886.405 1020.86,860.007 943.76,943.392 837.782,1040.55 850.716,1020.51 931.971,933.445 991.745,883.993 981.548,913.764 957.562,942.661 875.526,1013.48 827.886,1059.32 870.269,1002.52 879.011,999.574 886.255,988.777 881.995,992.447 896.822,972.363 964.792,901.479 992.312,880.353 1096.71,784.681 1083.05,820.335 1034.86,868.714 1020.41,878.874 1074.89,828.337 1103.3,807.839 1134.31,787.778 1223.08,708.766 1137.28,796.406 1160.79,786.297 1241.78,735.903 1197.64,757.569 1083.64,842.371 1025.59,890.319 1127.62,784.548 1143.53,765.458 1134.03,776.762 1198.75,728.637 1184.41,740.064 1217.02,715.634 1153.25,778.393 1140.49,785.035 1129.59,794.624 1132.97,777.791 1092.68,812.857 1209.98,702.537 1321.72,626.906 1287.68,671.786 1235.23,724.488 1178.34,760.541 1282.2,659.405 1361.13,613.065 1436.95,561.35 1426.37,588.036 1405.45,615.851 1340.88,659.441 1320.29,664.205 1314.2,669.478 1410.18,572.524 1314.11,659.535 1366.95,617.427 1237.03,731.568 1216.55,734.38 1235.55,715.135 1138.05,805.53 1072.53,858.813 1129.37,788.023 1082.38,835.892 1106.47,803.652 1125.3,773.984 1134.39,766.53 1140.12,771.529 1247.83,690.958 1297.97,649.026 1161.47,781.957 1188.88,752.316 1176.23,766.912 1237.66,730.498 1299.84,672.3 1278.05,684.067 1212.77,735.778 1085.06,840.321 1068.77,836.009 1085.13,807.623 1134.15,778.43 1075.49,834.653 1058.15,838.725 1000.46,894.456 882.596,1000.79 887.871,989.347 916.944,954.684 926.916,948.164 925.238,957.836 958.945,921.144 992.641,889.556 1048.49,846.298 1044.48,848.6 1002.07,891.631 1003.08,892.834 958.966,926.147 912.083,969.024 918.674,948.675 894.344,971.812 901.657,976.872 860.738,1018.09 875.691,998.057 909.171,966.898 931.107,949.11 886.229,986.056 950.124,930.73 860.449,1015.07 886.945,985.671 831.403,1037.11 828.353,1042.95 884.197,974.769 878.163,991.77 951.747,919.863 969.479,911.31 993.123,892.846 965.554,930.547 914.693,969.298 905.772,969.561 872.464,999.681 801.73,1066.71 918.062,932.994 913.513,951.828 944.915,931.37 1040.93,838.605 1185.34,716.483 1197.83,731.71 1220.97,715.721 1187.04,740.901 1131.49,803.378 1203.71,709.966 1281.74,660.875 1205.22,740.216 1167.1,774.852 1155.06,778.698 1025.56,888.603 959.43,951.384 943.109,954.84 943.609,940.309 965.171,915.593 960.223,921.753 976.763,908.743 1057.22,838.329 1107.73,790.638 1216.48,718.967 1238.81,705.152 1219.75,727.535 1168.13,772.169 1157.94,767.893 1194.2,735.992 1268.38,678.774 1339.48,621.991 1285.22,674.617 1420.81,562.258 1479.14,529.491 1437.48,572.77 1430.75,586.938 1308.47,679.788 1268.39,699.955 1288.8,665.545 1294.55,681.185 1245.01,718.465 1280.38,683.814 1295.92,671.161 1197.8,748.027 1188.85,755.322 1192.66,746.318 1174.7,758.361 1248.61,687.047 1190.12,745.779 1178.27,749.697 1170.95,755.65 1225.89,707.137 1343.84,643.282 1282.34,692.192 1266.53,697.671 1270.74,692.655 1266.6,691.693 1247.77,712.954 1214.17,724.012 1243.14,697.564 1154.6,792.664 1155.8,778.887 1189,752.44 1158.87,766.483 1161.76,757.157 1123.39,802.778 1093.27,828.083 1073.29,831.15 1042.56,864.932 1114.03,793.058 1045.97,868.889 949.856,949.018 896.741,1002.14 904.247,981.26 869.455,1014.95 871.016,1009.52 852.477,1021.86 816.02,1060.64 790.183,1085.65 833.946,1032.66 861.787,1004.11 854.871,1020.78 813.095,1065.29 816.901,1049.98 848.305,1014.32 846.698,1021.05 793.42,1078.39 814.181,1057.17 813.688,1061.89 841.007,1031.1 804.636,1079.13 854.51,1014.33 977.678,885.038 974.849,908.601 920.767,964.771 886.116,1000.32 930.889,947.042 941.626,943.589 1000.93,890.238 1002.06,885.348 842.324,1030.63 874.846,990.531 897.133,979.896 918.548,957.542 937.601,944.376 904.659,976.749 1037.45,852.318 1076.27,818.797 1045.91,851.807 1035.14,857.857 1008.72,887.685 1044.91,860.338 1036.12,852.922 974.488,902.181 912.759,962.369 997.688,903.667 1034.44,866.011 1027.85,869.041 936.209,955.626 928.214,967.826 1003.15,893.187 1021.48,873.9 1127.01,777.76 1221.73,712.23 1176.71,758.357 1259,686.324 1284.05,673.143 1160.93,760.175 1197.78,713.502 1206.33,712.686 1152.65,792.438 1051.91,878.541 1063.37,851.172 1051.2,858.052 968.885,934.36 1014.83,872.793 1047.54,844.451 1037.72,853.71 1081.42,799.823 1056.94,835.659 1080.2,824.066 1076.63,825.522 1287.5,640.453 1350.21,603.966 1405.98,578.547 1367.19,620.85 1379.5,616.498 1326.12,658.197 1294.59,684.895 1203.5,746.456 1110.29,829.657 1133.06,794.945 1044.32,872.803 1018.93,889.366 986.923,909.235 1061.56,832.611 1042.93,851.266 1067.81,828.692 1078.36,828.093 1065.38,836.148 1126.14,770.047 1090.32,818.315 1134.07,782.164 1159.26,762.846 1110.5,802.072 1074.86,820.451 1026.19,868.116 1164.44,743.825 1172.58,749.751 1153.56,781.94 1151.5,786.205 1121.72,790.833 1108.74,804.792 1097.48,825.425 1057.06,866.613 992.356,922.538 1006.87,896.278 948.519,954.461 901.774,996.248 933.079,944.84 859.612,1018.59 849.837,1024.9 845.572,1025.88 811.107,1059.11 839.7,1022.49 842.275,1018.25 884.64,977.152 895.938,968.371 921.513,946.107 907.258,969.665 906.3,974.918 896.822,978.485 942.884,934.918 971.133,905.516 1045.06,845.835 1008.48,876.675 928.369,957.794 999.197,882.102 1064.29,841.392 997.861,903.308 990.333,904.215 988.767,913.302 1076.38,818.307 885.849,971.096 906.961,970.665 928.389,953.294 920.116,970.75 887.485,1016.05 880.535,1008.08 851.135,1024.22 850.026,1019.61 832.485,1024.66 841.979,1017.75 874.643,992.653 909.995,963.857 944.673,937.657 908.128,970.472 889.922,1002.65 889.808,998.987 924.657,961.619 920.994,952.213 933.102,957.375 916.361,962.529 884.49,994.952 975.406,910.524 989.147,903.447 960.917,922.201 1010.86,880.465 1134.7,753.758 1188.99,713.364 1183.2,743.148 1124.11,801.143 1198.7,738.475 1125.74,795.604 1080.87,845.936 1022.88,891.965 960.905,941.569 993.101,897.573 996.616,893.408 957.985,937.673 1020.73,876.894 1001.32,901.894 1015.42,886.361 1039.77,868.083 1039.54,851.239 998.22,885.028 962.729,931.601 973.617,904.818 1046,843.429 1063.91,832.601 1080.28,821.784 1041.23,847.142 1137.58,786.755 1181.61,752.558 1228.24,708.409 1228.37,717.311 1102.76,820.911 1176.7,737.148 1161.36,757.264 1143.59,779.624 1125.83,807.101 1159.14,778.282 1095.64,827.854 1006.29,909.671 1001.1,903.297 966.85,922.321 983.9,895.471 994.02,899.383 1024.2,874.831 1023.83,874.199 1004.98,893.127 1021.08,878.536 1030.46,872.657 1082.05,828.587 1022.22,869.136 925.065,950.021 1042.74,847.076 1148.77,756.709 1119.02,799.677 1165.21,755.72 1073.7,830.685 1016.3,880.28 968.962,918.347 1058.83,860.658 1078.62,823.448 1032.47,886.963 1030.38,895.167 1067.91,859.207 1079.53,812.514 1074.18,833.291 1093.27,819.529 1061.45,840.07 999.288,892.282 1076.65,838.77 1263.28,656.507 1378.69,586.709 1388.5,602.869 1340.05,649.104 1235.95,727.189 1233.23,725.354 1123.03,824.283 1102.85,824.356 1029.64,889.905 1028.61,876.571 1065.56,831.34 1047.03,856.969 1148.22,758.494 1151.43,764.511 1123.22,797.835 1090.44,820.179 1083.46,822.614 1066.82,839.515 1151.37,755.004 1163.48,753.433 1107.14,818.358 1100.68,817.309 1131,794.117 1127.65,809.516 1106.52,820.429 1045.11,862.947 972.405,926.664 1021.92,860.415 989.854,897.52 960.461,930.9 946.452,938.356 933.5,948.566 909.687,969.314 1030.52,845.379 1065.08,831.063 1053.08,842.181 1080.07,818.529 948.664,940.965 985.156,900.273 904.09,990.554 883.021,1001.66 881.795,997.645 896.081,975.007 916.637,951.781 1018.58,864.363 1053.3,846.816 1217.82,702.745 1179.89,755.951 1257.79,682.447 1165.62,770.179 1058.6,843.775 1106.45,802.861 1144.04,772.207 1151.73,769.817 1157.17,775.931 1214.99,736.993 1182.46,753.258 1124.52,790.23 996.075,895.813 888.954,994.383 933.284,935.77 961.819,931.512 986.583,898.899 1031.27,860.556 1082.42,810.331 1034.28,867.46 1021.55,875.819 1057.61,832.147 1080.54,813.532 1146.56,770.61 1218.2,709.555 1237.95,705.488 1097.21,826.787 1011.89,911.036 1010.8,887.444 1062.69,823.875 1106.65,786.692 1086.55,823.206 1151.28,762.589 1195.5,726.549 1162.02,755.954 1146.5,769.047 1127.54,766.824 1129.5,787.718 1196.44,735.948 1237.44,715.064 1305.01,671.509 1264.85,704.387 1187.67,784.34 1127.82,824.8 1132.98,803.927 1089.58,829.783 952.632,953.042 930.087,958.641 938.832,952.192 952.352,929.177 965.279,921.15 999.627,878.83 1097.48,801.471 1063.22,845.881 1048.24,858.92 1010.26,886.785 1008.87,884.041 1007.16,891.641 1010.58,882.616 921.361,962.545 916.064,963.168 942.421,942.85 1036.3,845.348 1123.65,790.158 1183.63,732.96 1190,727.526 1138.89,797.158 1131.56,794.828 1105.07,826.73 978.142,937.166 917.277,985.711 875.479,1018.99 888.615,998.853 901.287,980.67 923.057,950.57 974.216,905.721 976.824,904.498 913.537,975.267 931.26,949.161 942.516,930.72 1025.89,855.096 1035.78,863.671 1115.23,780 1116.14,796.411 1160.9,755.951 1042.98,869.703 957.859,957.424 949.099,940.05 901.428,986.26 833.791,1054.79 855.792,1015.5 814.074,1060.15 769.499,1107.81 759.93,1110.84 742.936,1126.9 732.571,1139.85 737.722,1130.29 759.472,1108.47 760.379,1107.91 755.185,1112.1 734.516,1137.95 742.438,1127.47 774.275,1087.21 809.098,1051.41 863.207,1006.36 855.122,1018.8 822.052,1053.8 846.241,1022.48 820.41,1051.92 840.554,1030.71 852.989,1022.19 911.271,959.734 915.482,959.214 935.606,949.57 935.026,951.914 899.637,990.35 885.831,999.611 939.82,941.877 1037.61,845.883 1026.6,879.198 958.398,937.173 1084.63,812.116 1065.92,838.664 1088.61,840.369 1119.93,805.2 1137.75,788.461 1074.58,835.068 1083.93,832.187 992.912,912.62 944.305,955.519 966.413,932.37 1072.86,810.903 1076.57,818.683 1130.58,776.093 1087.57,826.086 1062.05,854.125 1062.68,852.492 981.968,913.102 986.405,907.036 1060.23,829.785 1022.31,873.643 1017.93,877.84 989.025,908.404 1048.07,833.848 1112.44,787.897 1064.8,838.895 1046.98,862.153 1132.07,788.221 1179.21,743.675 1216.35,716.67 1186.31,742.575 1290.21,660.874 1373.81,596.992 1393.84,596.312 1424.48,574.852 1429.38,572.199 1300.54,688.204 1339.06,629.011 1311.68,652.953 1349.63,627.564 1221.04,735.6 1229.92,720.283 1348.34,605.86 1372.7,609.649 1346.65,629.467 1313.73,665.071 1300.88,667.047 1230.77,725.864 1136.1,806.912 1168.11,764.747 1263.85,674.297 1288.02,657.545 1205.4,741.311 1154.25,787.012 1119.73,807.557 1167.31,761.844 1267.14,696.87 1260.27,707.071 1255.59,702.676 1346.05,617.415 1309.61,665.842 1303.87,663.584 1327.22,645.845 1270.54,695.764 1239.27,719.896 1195.39,744.533 1177.29,754.208 1203.6,738.274 1088.77,847.018 1186.26,735.08 1188.92,742.557 1204.78,732.067 1120.85,803.29 1023,896.129 1138.85,755.77 1130.24,788.34 1194,728.32 1247.52,696.493 1200.92,745.516 1132.16,806.889 1113.81,807.469 1049.61,869.44 1056.79,858.663 1071.23,826.954 1148,751.376 1145.8,767.99 1126.56,794.271 1089,826.46 1105.71,800.092 1078.86,829.369 1271.75,654.224 1294.22,648.762 1275.19,680.963 1269.15,690.731 1253.28,707.548 1289.85,676.854 1227.42,726.368 1172.25,773.194 1216.08,717.279 1211.6,728.669 1131.18,802.2 1130.96,775.942 1088.12,825.478 1096.34,819.545 1268.16,656.477 1292.15,655.353 1280.21,675.258 1264.03,691.358 1156.19,795.573 1194.17,740.678 1188.09,754.703 1132.37,806.888 1133.17,801.103 1144.93,786.316 1120.87,803.647 1186.63,736.621 1228.43,702.973 1284.9,661.476 1262.17,691.373 1329.55,642.388 1357.89,618.756 1400.2,593.563 1360.94,634.812 1281.9,698.493 1235.46,717.628 1208.34,735.786 1276.28,677.135 1223.33,725.909 1227.74,719.032 1207.62,752.874 1198.39,748.933 1145.18,785.818 1145.91,778.389 1082.54,840.928 1081.86,830.708 989.165,912.713 1048.96,841.592 1169.16,744.06 1157.29,767.018 1218.77,709.973 1331.49,623.374 1251.19,714.938 1274.11,694.746 1265.77,686.517 1323.1,633.721 1329.64,641.062 1387.08,585.143 1415.92,566.864 1447.84,550.417 1334.71,647.34 1261.1,720.7 1224.62,734.611 1187.52,752.696 1231.62,701.878 1272.51,670.083 1269.56,680.582 1255.62,701.731 1186.12,774.773 1093.72,838.889 1075.73,842.731 1038.63,872.8 998.521,906.11 1029.6,867.608 1087.96,799.087 1106.4,788.356 1197.86,710.378 1177.09,747.037 1228.01,699.927 1285.96,654.937 1334.22,626.03 1360.64,610.492 1349.71,632.516 1319.77,660.086 1340.48,638.32 1322.61,645.404 1360.71,612.606 1288.28,670.883 1184.97,772.996 1174.75,767.366 1139.86,790.443 1116.4,796.045 1205.62,713.099 1262.08,671.863 1236.86,712.044 1114.23,817.639 1077.87,843.836 1086.25,834.733 1084.19,837.899 1100.72,806.208 1168.17,747.614 1251.65,690.588 1058.41,881.882 1073.05,832.31 1047.11,853.073 1050.61,848.955 1103.9,800.929 1125.5,790.508 1120.32,798.274 1123.47,793.888 1037.82,859.853 1038.76,856.169 1002.35,899.844 1045.45,849.103 1061.72,832.13 1091.42,799.005 1209.99,709.683 1240,695.009 1290.62,652.551 1319.96,638.595 1247.04,709.575 1216.95,729.179 1243.74,703.796 1318.75,640.577 1240.53,720.242 1234.52,724.399 1139.46,792.986 1136.71,785.625 1108.49,799.232 1156.21,747.83 1092.33,818.737 1143.17,777.51 1098.76,822.389 1103.63,802.949 1155.7,751.078 1216.91,720.573 1240.98,704.774 1285.55,675.6 1215.87,740.271 1264.46,699.424 1212.73,749.799 1231.45,710.924 1365.77,601.167 1283.41,681.35 1291.24,681.41 1253.06,688.807 1357.51,614.151 1235.71,732.28 1116.54,830.38 1102.75,830.525 1039.26,873.524 1083.94,823.226 1065.63,844.426 955.832,946.442 924.074,972.073 920.427,970.03 925.548,956.804 945.045,934.399 913.428,971.824 891.767,989.761 925.458,950.357 915.453,964.215 931.949,946.689 971.887,917.241 945.736,955.82 994.069,900.384 1028.21,880.617 1040.25,861.18 1055.84,855.305 1039.1,868.443 950.254,938.064 889.406,996.801 898.906,980.594 866.357,1015.8 902.51,975.447 881.393,1000.33 880.217,1002.78 929.73,951.845 914.2,966.863 857.828,1027.36 869.379,1010.84 875.414,976.413 945.235,915.248 959.755,925.644 1026.77,859.317 1053.24,842.853 1003.98,894.827 957.025,938.49 976.89,908.36 989.908,903.903 960.443,929.252 1021.48,879.047 1066.41,829.546 1016.98,873.897 1009.12,893.176 1078.09,839.772 1060.77,834.014 1122.39,794.461 1192.04,732.218 1229.26,736.368 1173.81,762.795 1126.03,801.137 1138.48,795.473 1214.81,720.035 1262.97,682.431 1310.54,662.16 1433.64,569.271 1381.97,619.846 1323.41,663.384 1228.36,733.701 1167.43,779.429 1191.31,743.847 1205.68,726.571 1149.09,776.358 1223.19,703.149 1340.03,618.971 1391.11,580.84 1521.63,490.723 1486.61,542.995 1513.84,517.465 1523.86,511.772 1557.53,490.586 1581.01,481.005 1489.15,555.84 1522.15,530.704 1565.43,491.064 1563.52,493.739 1515.14,532.112 1501.09,540.945 1422.87,605.281 1386.8,628.556 1363.88,640.955 1376.37,621.076 1244.34,735.743 1264.14,698.598 1296.57,660.203 1196.02,753.053 1200.94,735.958 1292.43,638.6 1304.8,645.76 1282.91,684.578 1322.88,650.08 1361.94,615.503 1382.13,608.635 1327.28,658.921 1326.74,651.002 1348.7,632.636 1295.34,689.691 1258.83,715.55 1239.15,723.917 1232.81,721.803 1312.79,642.255 1270.45,678.927 1276.83,691.336 1120.26,824.693 1014.14,914.137 983.13,926.99 1021.58,877.986 1041.45,857.515 1109.7,783.624 1089.25,814.279 1027.73,883.795 959.227,944.123 965.303,930.372 968.437,922.375 965.792,918.237 995.807,886.985 1064.64,813.842 1119.96,778.003 1152.69,759.419 1130.43,787.818 1084.01,831.515 1016.71,889.211 1023.86,876.559 971.668,931.793 963.626,927.538 1022.12,860.957 1033.72,861.02 1023.04,868.693 1025.81,879.252 995.315,903.765 984.081,915.593 926.005,965.676 929.273,958.396 918.654,965.119 885.672,1005.1 866.674,1018.39 868.974,1009.94 950.695,909.576 961.142,914.961 979.087,896.725 1007.15,878.434 1077.14,815.051 1067.32,833.619 988.964,904.144 970.319,914.77 975.305,907.724 999.863,891.099 930.892,949.903 892.71,989.582 1057.12,820.961 1093.5,800.632 1099.6,803.426 1092.79,820.242 1035.55,870.81 1016.2,881.78 1026.85,865.905 1064.96,835.305 1019.28,876.068 1094.66,793.97 1158.57,757.189 1195.56,731.461 1154.19,773.779 1107.55,813.879 987.377,920.058 917.367,983.463 948.711,930.327 941.263,943.228 1020.28,863.616 958.006,933.482 954.908,930.546 973.8,907.887 1100.54,804.069 1124.58,790.764 1065.11,846.114 1079.09,828.638 1102.5,806.387 1085.91,810.554 1022.04,860.967 1066.76,847.278 1022.23,884.102 1011.69,879.779 1055,840.225 1007.05,893.525 957.59,935.959 946.356,940.592 1016.59,871.712 1025.23,882.441 950.014,935.068 959.193,925.612 981.022,911.237 985.835,913.611 1022.63,860.207 1008.17,879.468 996.906,880.338 981.97,880.614 983.635,882.779 1014.65,871.628 1031.7,864.418 996.239,898.594 1038.77,877.203 1081.32,836.571 978.479,924.143 969.347,926.487 998.572,889.317 1079.38,818.271 1094.19,802.302 1075.48,836.975 992.655,920.058 1148.86,761.547 1219.06,703.83 1283.15,656.017 1170.66,762.038 1263.32,676.598 1274.05,668.907 1332.8,616.148 1427.19,570.106 1404.7,586.34 1433.17,556.861 1413.9,590.954 1350.03,647.822 1380.63,598.727 1341.65,632.438 1357.76,618.944 1400.91,608.407 1290.12,689.132 1268.04,699.051 1206.08,752.686 1266.27,686.717 1277.17,662.011 1245.01,696.789 1213.99,730.264 1100.6,834.66 1029.07,889.073 978.123,924.266 1012.59,874.551 995.719,893.782 937.706,954.091 951.868,929.492 945.805,937.865 911.198,963.917 898.01,974.004 837.05,1043.23 865.431,1012.24 810.393,1061.65 789.81,1083.21 822.389,1044.39 946.754,911.984 992.675,878.095 1019.31,865.715 1072.36,819.128 1048.53,853.437 1096.11,826.261 1074.54,842.105 1047.99,860.935 1036.56,851.183 1045.78,851.168 959.029,931.517 884.37,995.286 855.816,1021.58 814.652,1063.62 800.13,1071.99 829.784,1039.08 847.222,1020.13 833.115,1035.16 799.941,1068.54 843.592,1022.71 943.079,928.691 930.867,947.661 968.536,913.856 954.475,924.367 1001.01,888.718 1013.97,882.25 992.854,918.182 1033.05,861.088 1061.84,850.421 1035.81,871.179 1136.22,789.601 1084.13,836.77 1061.31,847.025 1002.79,904.609 979.787,913.843 945.327,946.548 981.857,906.296 938.766,950.459 910.338,969.666 843.663,1039.63 843.785,1033.75 865.016,1003.07 916.101,951.764 898.419,977.945 965.66,908.985 1021.57,866.089 1068.62,815.966 1123.13,773.135 1114.87,779.17 1095.57,814.719 1108.2,795.01 1148.62,768.209 1172.26,751.651 1221.7,706.692 1088.96,837.649 1191.15,733.575 1125.6,798.52 "/>
<path clip-path="url(#clip090)" d="M186.863 198.898 L550.897 198.898 L550.897 95.2176 L186.863 95.2176  Z" fill="#ffffff" fill-rule="evenodd" fill-opacity="1"/>
<polyline clip-path="url(#clip090)" style="stroke:#000000; stroke-linecap:round; stroke-linejoin:round; stroke-width:4; stroke-opacity:1; fill:none" points="186.863,198.898 550.897,198.898 550.897,95.2176 186.863,95.2176 186.863,198.898 "/>
<polyline clip-path="url(#clip090)" style="stroke:#009af9; stroke-linecap:round; stroke-linejoin:round; stroke-width:4; stroke-opacity:1; fill:none" points="211.758,147.058 361.13,147.058 "/>
<path clip-path="url(#clip090)" d="M396.651 128.366 Q393.549 133.69 392.044 138.898 Q390.54 144.106 390.54 149.453 Q390.54 154.801 392.044 160.055 Q393.572 165.287 396.651 170.588 L392.947 170.588 Q389.475 165.148 387.739 159.893 Q386.026 154.639 386.026 149.453 Q386.026 144.291 387.739 139.06 Q389.452 133.828 392.947 128.366 L396.651 128.366 Z" fill="#000000" fill-rule="nonzero" fill-opacity="1" /><path clip-path="url(#clip090)" d="M403.063 138.412 L423.294 138.412 L423.294 142.301 L407.276 160.935 L423.294 160.935 L423.294 164.338 L402.484 164.338 L402.484 160.449 L418.502 141.815 L403.063 141.815 L403.063 138.412 Z" fill="#000000" fill-rule="nonzero" fill-opacity="1" /><path clip-path="url(#clip090)" d="M430.887 158.458 L435.771 158.458 L435.771 162.439 L431.975 169.847 L428.988 169.847 L430.887 162.439 L430.887 158.458 Z" fill="#000000" fill-rule="nonzero" fill-opacity="1" /><path clip-path="url(#clip090)" d="M455.655 166.745 Q453.849 171.375 452.136 172.787 Q450.423 174.199 447.553 174.199 L444.15 174.199 L444.15 170.634 L446.65 170.634 Q448.41 170.634 449.382 169.8 Q450.354 168.967 451.535 165.865 L452.298 163.921 L441.812 138.412 L446.326 138.412 L454.428 158.689 L462.53 138.412 L467.044 138.412 L455.655 166.745 Z" fill="#000000" fill-rule="nonzero" fill-opacity="1" /><path clip-path="url(#clip090)" d="M474.011 158.458 L478.896 158.458 L478.896 162.439 L475.099 169.847 L472.113 169.847 L474.011 162.439 L474.011 158.458 Z" fill="#000000" fill-rule="nonzero" fill-opacity="1" /><path clip-path="url(#clip090)" d="M509.544 138.412 L500.169 151.027 L510.03 164.338 L505.007 164.338 L497.46 154.152 L489.914 164.338 L484.891 164.338 L494.96 150.773 L485.747 138.412 L490.77 138.412 L497.645 147.648 L504.52 138.412 L509.544 138.412 Z" fill="#000000" fill-rule="nonzero" fill-opacity="1" /><path clip-path="url(#clip090)" d="M515.377 128.366 L519.081 128.366 Q522.553 133.828 524.266 139.06 Q526.002 144.291 526.002 149.453 Q526.002 154.639 524.266 159.893 Q522.553 165.148 519.081 170.588 L515.377 170.588 Q518.456 165.287 519.96 160.055 Q521.488 154.801 521.488 149.453 Q521.488 144.106 519.96 138.898 Q518.456 133.69 515.377 128.366 Z" fill="#000000" fill-rule="nonzero" fill-opacity="1" /></svg>
