<?xml version="1.0" encoding="utf-8"?>
<svg xmlns="http://www.w3.org/2000/svg" xmlns:xlink="http://www.w3.org/1999/xlink" width="600" height="400" viewBox="0 0 2400 1600">
<defs>
  <clipPath id="clip260">
    <rect x="0" y="0" width="2400" height="1600"/>
  </clipPath>
</defs>
<path clip-path="url(#clip260)" d="M0 1600 L2400 1600 L2400 0 L0 0  Z" fill="#ffffff" fill-rule="evenodd" fill-opacity="1"/>
<defs>
  <clipPath id="clip261">
    <rect x="112" y="47" width="2242" height="1440"/>
  </clipPath>
</defs>
<path clip-path="url(#clip261)" d="M-559.11 2488.73 L-559.11 2219.19 L-252.527 2084.42 L278.49 2162.23 L278.49 2431.77 L-28.0929 2566.54 L-559.11 2488.73  Z" fill="#ffffff" fill-rule="evenodd" fill-opacity="1"/>
<polyline clip-path="url(#clip261)" style="stroke:#000000; stroke-linecap:round; stroke-linejoin:round; stroke-width:2; stroke-opacity:0.1; fill:none" points="716.598,1217.6 1132.06,857.795 1132.06,138.193 "/>
<polyline clip-path="url(#clip261)" style="stroke:#000000; stroke-linecap:round; stroke-linejoin:round; stroke-width:2; stroke-opacity:0.1; fill:none" points="849.352,1255.92 1264.81,896.118 1264.81,176.516 "/>
<polyline clip-path="url(#clip261)" style="stroke:#000000; stroke-linecap:round; stroke-linejoin:round; stroke-width:2; stroke-opacity:0.1; fill:none" points="982.107,1294.24 1397.57,934.441 1397.57,214.839 "/>
<polyline clip-path="url(#clip261)" style="stroke:#000000; stroke-linecap:round; stroke-linejoin:round; stroke-width:2; stroke-opacity:0.1; fill:none" points="1114.86,1332.56 1530.32,972.763 1530.32,253.162 "/>
<polyline clip-path="url(#clip261)" style="stroke:#000000; stroke-linecap:round; stroke-linejoin:round; stroke-width:2; stroke-opacity:0.1; fill:none" points="1247.62,1370.89 1663.08,1011.09 1663.08,291.484 "/>
<polyline clip-path="url(#clip261)" style="stroke:#000000; stroke-linecap:round; stroke-linejoin:round; stroke-width:2; stroke-opacity:0.1; fill:none" points="1380.37,1409.21 1795.83,1049.41 1795.83,329.807 "/>
<polyline clip-path="url(#clip261)" style="stroke:#000000; stroke-linecap:round; stroke-linejoin:round; stroke-width:2; stroke-opacity:0.1; fill:none" points="1453.57,1350.63 733.969,1142.9 733.969,423.294 "/>
<polyline clip-path="url(#clip261)" style="stroke:#000000; stroke-linecap:round; stroke-linejoin:round; stroke-width:2; stroke-opacity:0.1; fill:none" points="1531.38,1283.24 811.78,1075.51 811.78,355.908 "/>
<polyline clip-path="url(#clip261)" style="stroke:#000000; stroke-linecap:round; stroke-linejoin:round; stroke-width:2; stroke-opacity:0.1; fill:none" points="1609.19,1215.86 889.59,1008.12 889.59,288.522 "/>
<polyline clip-path="url(#clip261)" style="stroke:#000000; stroke-linecap:round; stroke-linejoin:round; stroke-width:2; stroke-opacity:0.1; fill:none" points="1687,1148.47 967.401,940.738 967.401,221.136 "/>
<polyline clip-path="url(#clip261)" style="stroke:#000000; stroke-linecap:round; stroke-linejoin:round; stroke-width:2; stroke-opacity:0.1; fill:none" points="1764.81,1081.08 1045.21,873.352 1045.21,153.75 "/>
<polyline clip-path="url(#clip261)" style="stroke:#000000; stroke-linecap:round; stroke-linejoin:round; stroke-width:2; stroke-opacity:0.1; fill:none" points="664.934,1185.97 1080.4,826.167 1800,1033.9 "/>
<polyline clip-path="url(#clip261)" style="stroke:#000000; stroke-linecap:round; stroke-linejoin:round; stroke-width:2; stroke-opacity:0.1; fill:none" points="664.934,1079.1 1080.4,719.298 1800,927.03 "/>
<polyline clip-path="url(#clip261)" style="stroke:#000000; stroke-linecap:round; stroke-linejoin:round; stroke-width:2; stroke-opacity:0.1; fill:none" points="664.934,972.23 1080.4,612.43 1800,820.161 "/>
<polyline clip-path="url(#clip261)" style="stroke:#000000; stroke-linecap:round; stroke-linejoin:round; stroke-width:2; stroke-opacity:0.1; fill:none" points="664.934,865.362 1080.4,505.561 1800,713.292 "/>
<polyline clip-path="url(#clip261)" style="stroke:#000000; stroke-linecap:round; stroke-linejoin:round; stroke-width:2; stroke-opacity:0.1; fill:none" points="664.934,758.493 1080.4,398.692 1800,606.423 "/>
<polyline clip-path="url(#clip261)" style="stroke:#000000; stroke-linecap:round; stroke-linejoin:round; stroke-width:2; stroke-opacity:0.1; fill:none" points="664.934,651.624 1080.4,291.823 1800,499.554 "/>
<polyline clip-path="url(#clip261)" style="stroke:#000000; stroke-linecap:round; stroke-linejoin:round; stroke-width:2; stroke-opacity:0.1; fill:none" points="664.934,544.755 1080.4,184.954 1800,392.685 "/>
<polyline clip-path="url(#clip260)" style="stroke:#000000; stroke-linecap:round; stroke-linejoin:round; stroke-width:4; stroke-opacity:1; fill:none" points="664.934,1202.68 1384.54,1410.41 "/>
<polyline clip-path="url(#clip260)" style="stroke:#000000; stroke-linecap:round; stroke-linejoin:round; stroke-width:4; stroke-opacity:1; fill:none" points="716.598,1217.6 721.583,1213.28 "/>
<polyline clip-path="url(#clip260)" style="stroke:#000000; stroke-linecap:round; stroke-linejoin:round; stroke-width:4; stroke-opacity:1; fill:none" points="849.352,1255.92 854.338,1251.6 "/>
<polyline clip-path="url(#clip260)" style="stroke:#000000; stroke-linecap:round; stroke-linejoin:round; stroke-width:4; stroke-opacity:1; fill:none" points="982.107,1294.24 987.092,1289.92 "/>
<polyline clip-path="url(#clip260)" style="stroke:#000000; stroke-linecap:round; stroke-linejoin:round; stroke-width:4; stroke-opacity:1; fill:none" points="1114.86,1332.56 1119.85,1328.25 "/>
<polyline clip-path="url(#clip260)" style="stroke:#000000; stroke-linecap:round; stroke-linejoin:round; stroke-width:4; stroke-opacity:1; fill:none" points="1247.62,1370.89 1252.6,1366.57 "/>
<polyline clip-path="url(#clip260)" style="stroke:#000000; stroke-linecap:round; stroke-linejoin:round; stroke-width:4; stroke-opacity:1; fill:none" points="1380.37,1409.21 1385.35,1404.89 "/>
<path clip-path="url(#clip260)" d="M656.242 1231.89 Q652.631 1231.89 650.802 1235.45 Q648.997 1239 648.997 1246.13 Q648.997 1253.23 650.802 1256.8 Q652.631 1260.34 656.242 1260.34 Q659.876 1260.34 661.682 1256.8 Q663.511 1253.23 663.511 1246.13 Q663.511 1239 661.682 1235.45 Q659.876 1231.89 656.242 1231.89 M656.242 1228.19 Q662.052 1228.19 665.108 1232.79 Q668.187 1237.38 668.187 1246.13 Q668.187 1254.85 665.108 1259.46 Q662.052 1264.04 656.242 1264.04 Q650.432 1264.04 647.353 1259.46 Q644.298 1254.85 644.298 1246.13 Q644.298 1237.38 647.353 1232.79 Q650.432 1228.19 656.242 1228.19 Z" fill="#000000" fill-rule="nonzero" fill-opacity="1" /><path clip-path="url(#clip260)" d="M676.404 1257.49 L681.288 1257.49 L681.288 1263.37 L676.404 1263.37 L676.404 1257.49 Z" fill="#000000" fill-rule="nonzero" fill-opacity="1" /><path clip-path="url(#clip260)" d="M691.52 1228.81 L709.876 1228.81 L709.876 1232.75 L695.802 1232.75 L695.802 1241.22 Q696.821 1240.87 697.839 1240.71 Q698.858 1240.52 699.876 1240.52 Q705.663 1240.52 709.043 1243.7 Q712.422 1246.87 712.422 1252.28 Q712.422 1257.86 708.95 1260.96 Q705.478 1264.04 699.159 1264.04 Q696.983 1264.04 694.714 1263.67 Q692.469 1263.3 690.061 1262.56 L690.061 1257.86 Q692.145 1259 694.367 1259.55 Q696.589 1260.11 699.066 1260.11 Q703.071 1260.11 705.409 1258 Q707.747 1255.89 707.747 1252.28 Q707.747 1248.67 705.409 1246.57 Q703.071 1244.46 699.066 1244.46 Q697.191 1244.46 695.316 1244.88 Q693.464 1245.29 691.52 1246.17 L691.52 1228.81 Z" fill="#000000" fill-rule="nonzero" fill-opacity="1" /><path clip-path="url(#clip260)" d="M778.811 1297.76 L786.45 1297.76 L786.45 1271.39 L778.14 1273.06 L778.14 1268.8 L786.404 1267.13 L791.08 1267.13 L791.08 1297.76 L798.719 1297.76 L798.719 1301.69 L778.811 1301.69 L778.811 1297.76 Z" fill="#000000" fill-rule="nonzero" fill-opacity="1" /><path clip-path="url(#clip260)" d="M808.163 1295.81 L813.047 1295.81 L813.047 1301.69 L808.163 1301.69 L808.163 1295.81 Z" fill="#000000" fill-rule="nonzero" fill-opacity="1" /><path clip-path="url(#clip260)" d="M833.232 1270.21 Q829.621 1270.21 827.793 1273.78 Q825.987 1277.32 825.987 1284.45 Q825.987 1291.56 827.793 1295.12 Q829.621 1298.66 833.232 1298.66 Q836.867 1298.66 838.672 1295.12 Q840.501 1291.56 840.501 1284.45 Q840.501 1277.32 838.672 1273.78 Q836.867 1270.21 833.232 1270.21 M833.232 1266.51 Q839.042 1266.51 842.098 1271.12 Q845.177 1275.7 845.177 1284.45 Q845.177 1293.18 842.098 1297.78 Q839.042 1302.37 833.232 1302.37 Q827.422 1302.37 824.343 1297.78 Q821.288 1293.18 821.288 1284.45 Q821.288 1275.7 824.343 1271.12 Q827.422 1266.51 833.232 1266.51 Z" fill="#000000" fill-rule="nonzero" fill-opacity="1" /><path clip-path="url(#clip260)" d="M912.561 1336.08 L920.2 1336.08 L920.2 1309.72 L911.89 1311.38 L911.89 1307.12 L920.154 1305.46 L924.829 1305.46 L924.829 1336.08 L932.468 1336.08 L932.468 1340.02 L912.561 1340.02 L912.561 1336.08 Z" fill="#000000" fill-rule="nonzero" fill-opacity="1" /><path clip-path="url(#clip260)" d="M941.913 1334.14 L946.797 1334.14 L946.797 1340.02 L941.913 1340.02 L941.913 1334.14 Z" fill="#000000" fill-rule="nonzero" fill-opacity="1" /><path clip-path="url(#clip260)" d="M957.028 1305.46 L975.385 1305.46 L975.385 1309.39 L961.311 1309.39 L961.311 1317.86 Q962.329 1317.52 963.348 1317.36 Q964.366 1317.17 965.385 1317.17 Q971.172 1317.17 974.551 1320.34 Q977.931 1323.51 977.931 1328.93 Q977.931 1334.51 974.459 1337.61 Q970.987 1340.69 964.667 1340.69 Q962.491 1340.69 960.223 1340.32 Q957.977 1339.95 955.57 1339.21 L955.57 1334.51 Q957.653 1335.64 959.876 1336.2 Q962.098 1336.75 964.575 1336.75 Q968.579 1336.75 970.917 1334.65 Q973.255 1332.54 973.255 1328.93 Q973.255 1325.32 970.917 1323.21 Q968.579 1321.11 964.575 1321.11 Q962.7 1321.11 960.825 1321.52 Q958.973 1321.94 957.028 1322.82 L957.028 1305.46 Z" fill="#000000" fill-rule="nonzero" fill-opacity="1" /><path clip-path="url(#clip260)" d="M1047.54 1374.4 L1063.86 1374.4 L1063.86 1378.34 L1041.91 1378.34 L1041.91 1374.4 Q1044.57 1371.65 1049.16 1367.02 Q1053.76 1362.37 1054.94 1361.03 Q1057.19 1358.5 1058.07 1356.77 Q1058.97 1355.01 1058.97 1353.32 Q1058.97 1350.56 1057.03 1348.83 Q1055.11 1347.09 1052.01 1347.09 Q1049.81 1347.09 1047.35 1347.85 Q1044.92 1348.62 1042.14 1350.17 L1042.14 1345.45 Q1044.97 1344.31 1047.42 1343.73 Q1049.88 1343.16 1051.91 1343.16 Q1057.28 1343.16 1060.48 1345.84 Q1063.67 1348.53 1063.67 1353.02 Q1063.67 1355.15 1062.86 1357.07 Q1062.07 1358.97 1059.97 1361.56 Q1059.39 1362.23 1056.29 1365.45 Q1053.19 1368.64 1047.54 1374.4 Z" fill="#000000" fill-rule="nonzero" fill-opacity="1" /><path clip-path="url(#clip260)" d="M1073.67 1372.46 L1078.56 1372.46 L1078.56 1378.34 L1073.67 1378.34 L1073.67 1372.46 Z" fill="#000000" fill-rule="nonzero" fill-opacity="1" /><path clip-path="url(#clip260)" d="M1098.74 1346.86 Q1095.13 1346.86 1093.3 1350.42 Q1091.5 1353.97 1091.5 1361.09 Q1091.5 1368.2 1093.3 1371.77 Q1095.13 1375.31 1098.74 1375.31 Q1102.38 1375.31 1104.18 1371.77 Q1106.01 1368.2 1106.01 1361.09 Q1106.01 1353.97 1104.18 1350.42 Q1102.38 1346.86 1098.74 1346.86 M1098.74 1343.16 Q1104.55 1343.16 1107.61 1347.76 Q1110.69 1352.34 1110.69 1361.09 Q1110.69 1369.82 1107.61 1374.43 Q1104.55 1379.01 1098.74 1379.01 Q1092.93 1379.01 1089.85 1374.43 Q1086.8 1369.82 1086.8 1361.09 Q1086.8 1352.34 1089.85 1347.76 Q1092.93 1343.16 1098.74 1343.16 Z" fill="#000000" fill-rule="nonzero" fill-opacity="1" /><path clip-path="url(#clip260)" d="M1181.29 1412.73 L1197.61 1412.73 L1197.61 1416.66 L1175.66 1416.66 L1175.66 1412.73 Q1178.32 1409.97 1182.91 1405.34 Q1187.51 1400.69 1188.69 1399.35 Q1190.94 1396.83 1191.82 1395.09 Q1192.72 1393.33 1192.72 1391.64 Q1192.72 1388.89 1190.78 1387.15 Q1188.86 1385.41 1185.75 1385.41 Q1183.56 1385.41 1181.1 1386.18 Q1178.67 1386.94 1175.89 1388.49 L1175.89 1383.77 Q1178.72 1382.64 1181.17 1382.06 Q1183.63 1381.48 1185.66 1381.48 Q1191.03 1381.48 1194.23 1384.16 Q1197.42 1386.85 1197.42 1391.34 Q1197.42 1393.47 1196.61 1395.39 Q1195.82 1397.29 1193.72 1399.88 Q1193.14 1400.55 1190.04 1403.77 Q1186.94 1406.96 1181.29 1412.73 Z" fill="#000000" fill-rule="nonzero" fill-opacity="1" /><path clip-path="url(#clip260)" d="M1207.42 1410.78 L1212.31 1410.78 L1212.31 1416.66 L1207.42 1416.66 L1207.42 1410.78 Z" fill="#000000" fill-rule="nonzero" fill-opacity="1" /><path clip-path="url(#clip260)" d="M1222.54 1382.1 L1240.89 1382.1 L1240.89 1386.04 L1226.82 1386.04 L1226.82 1394.51 Q1227.84 1394.16 1228.86 1394 Q1229.87 1393.82 1230.89 1393.82 Q1236.68 1393.82 1240.06 1396.99 Q1243.44 1400.16 1243.44 1405.58 Q1243.44 1411.15 1239.97 1414.26 Q1236.5 1417.33 1230.18 1417.33 Q1228 1417.33 1225.73 1416.96 Q1223.49 1416.59 1221.08 1415.85 L1221.08 1411.15 Q1223.16 1412.29 1225.38 1412.84 Q1227.61 1413.4 1230.08 1413.4 Q1234.09 1413.4 1236.43 1411.29 Q1238.76 1409.19 1238.76 1405.58 Q1238.76 1401.96 1236.43 1399.86 Q1234.09 1397.75 1230.08 1397.75 Q1228.21 1397.75 1226.33 1398.17 Q1224.48 1398.58 1222.54 1399.46 L1222.54 1382.1 Z" fill="#000000" fill-rule="nonzero" fill-opacity="1" /><path clip-path="url(#clip260)" d="M1323.18 1436.35 Q1326.54 1437.07 1328.42 1439.34 Q1330.31 1441.61 1330.31 1444.94 Q1330.31 1450.06 1326.8 1452.86 Q1323.28 1455.66 1316.8 1455.66 Q1314.62 1455.66 1312.31 1455.22 Q1310.01 1454.8 1307.56 1453.94 L1307.56 1449.43 Q1309.5 1450.56 1311.82 1451.14 Q1314.13 1451.72 1316.66 1451.72 Q1321.06 1451.72 1323.35 1449.99 Q1325.66 1448.25 1325.66 1444.94 Q1325.66 1441.88 1323.51 1440.17 Q1321.38 1438.43 1317.56 1438.43 L1313.53 1438.43 L1313.53 1434.59 L1317.75 1434.59 Q1321.19 1434.59 1323.02 1433.23 Q1324.85 1431.84 1324.85 1429.25 Q1324.85 1426.58 1322.95 1425.17 Q1321.08 1423.74 1317.56 1423.74 Q1315.64 1423.74 1313.44 1424.15 Q1311.24 1424.57 1308.6 1425.45 L1308.6 1421.28 Q1311.26 1420.54 1313.58 1420.17 Q1315.92 1419.8 1317.98 1419.8 Q1323.3 1419.8 1326.4 1422.23 Q1329.5 1424.64 1329.5 1428.76 Q1329.5 1431.63 1327.86 1433.62 Q1326.22 1435.59 1323.18 1436.35 Z" fill="#000000" fill-rule="nonzero" fill-opacity="1" /><path clip-path="url(#clip260)" d="M1339.18 1449.11 L1344.06 1449.11 L1344.06 1454.99 L1339.18 1454.99 L1339.18 1449.11 Z" fill="#000000" fill-rule="nonzero" fill-opacity="1" /><path clip-path="url(#clip260)" d="M1364.25 1423.5 Q1360.64 1423.5 1358.81 1427.07 Q1357 1430.61 1357 1437.74 Q1357 1444.85 1358.81 1448.41 Q1360.64 1451.95 1364.25 1451.95 Q1367.88 1451.95 1369.69 1448.41 Q1371.52 1444.85 1371.52 1437.74 Q1371.52 1430.61 1369.69 1427.07 Q1367.88 1423.5 1364.25 1423.5 M1364.25 1419.8 Q1370.06 1419.8 1373.12 1424.41 Q1376.19 1428.99 1376.19 1437.74 Q1376.19 1446.47 1373.12 1451.07 Q1370.06 1455.66 1364.25 1455.66 Q1358.44 1455.66 1355.36 1451.07 Q1352.31 1446.47 1352.31 1437.74 Q1352.31 1428.99 1355.36 1424.41 Q1358.44 1419.8 1364.25 1419.8 Z" fill="#000000" fill-rule="nonzero" fill-opacity="1" /><polyline clip-path="url(#clip260)" style="stroke:#000000; stroke-linecap:round; stroke-linejoin:round; stroke-width:4; stroke-opacity:1; fill:none" points="1384.54,1410.41 1800,1050.61 "/>
<polyline clip-path="url(#clip260)" style="stroke:#000000; stroke-linecap:round; stroke-linejoin:round; stroke-width:4; stroke-opacity:1; fill:none" points="1453.57,1350.63 1444.94,1348.13 "/>
<polyline clip-path="url(#clip260)" style="stroke:#000000; stroke-linecap:round; stroke-linejoin:round; stroke-width:4; stroke-opacity:1; fill:none" points="1531.38,1283.24 1522.75,1280.75 "/>
<polyline clip-path="url(#clip260)" style="stroke:#000000; stroke-linecap:round; stroke-linejoin:round; stroke-width:4; stroke-opacity:1; fill:none" points="1609.19,1215.86 1600.56,1213.36 "/>
<polyline clip-path="url(#clip260)" style="stroke:#000000; stroke-linecap:round; stroke-linejoin:round; stroke-width:4; stroke-opacity:1; fill:none" points="1687,1148.47 1678.37,1145.98 "/>
<polyline clip-path="url(#clip260)" style="stroke:#000000; stroke-linecap:round; stroke-linejoin:round; stroke-width:4; stroke-opacity:1; fill:none" points="1764.81,1081.08 1756.18,1078.59 "/>
<path clip-path="url(#clip260)" d="M1480.76 1363.79 L1468.96 1382.24 L1480.76 1382.24 L1480.76 1363.79 M1479.54 1359.71 L1485.42 1359.71 L1485.42 1382.24 L1490.35 1382.24 L1490.35 1386.12 L1485.42 1386.12 L1485.42 1394.27 L1480.76 1394.27 L1480.76 1386.12 L1465.16 1386.12 L1465.16 1381.61 L1479.54 1359.71 Z" fill="#000000" fill-rule="nonzero" fill-opacity="1" /><path clip-path="url(#clip260)" d="M1544.43 1292.33 L1562.79 1292.33 L1562.79 1296.26 L1548.71 1296.26 L1548.71 1304.73 Q1549.73 1304.39 1550.75 1304.22 Q1551.77 1304.04 1552.79 1304.04 Q1558.57 1304.04 1561.95 1307.21 Q1565.33 1310.38 1565.33 1315.8 Q1565.33 1321.38 1561.86 1324.48 Q1558.39 1327.56 1552.07 1327.56 Q1549.89 1327.56 1547.62 1327.19 Q1545.38 1326.82 1542.97 1326.08 L1542.97 1321.38 Q1545.05 1322.51 1547.28 1323.07 Q1549.5 1323.62 1551.98 1323.62 Q1555.98 1323.62 1558.32 1321.52 Q1560.66 1319.41 1560.66 1315.8 Q1560.66 1312.19 1558.32 1310.08 Q1555.98 1307.97 1551.98 1307.97 Q1550.1 1307.97 1548.23 1308.39 Q1546.37 1308.81 1544.43 1309.69 L1544.43 1292.33 Z" fill="#000000" fill-rule="nonzero" fill-opacity="1" /><path clip-path="url(#clip260)" d="M1633.12 1240.36 Q1629.97 1240.36 1628.12 1242.51 Q1626.29 1244.66 1626.29 1248.41 Q1626.29 1252.14 1628.12 1254.32 Q1629.97 1256.47 1633.12 1256.47 Q1636.27 1256.47 1638.1 1254.32 Q1639.95 1252.14 1639.95 1248.41 Q1639.95 1244.66 1638.1 1242.51 Q1636.27 1240.36 1633.12 1240.36 M1642.4 1225.7 L1642.4 1229.96 Q1640.64 1229.13 1638.84 1228.69 Q1637.06 1228.25 1635.3 1228.25 Q1630.67 1228.25 1628.21 1231.38 Q1625.78 1234.5 1625.43 1240.82 Q1626.8 1238.81 1628.86 1237.74 Q1630.92 1236.65 1633.4 1236.65 Q1638.61 1236.65 1641.62 1239.82 Q1644.65 1242.97 1644.65 1248.41 Q1644.65 1253.74 1641.5 1256.95 Q1638.35 1260.17 1633.12 1260.17 Q1627.12 1260.17 1623.95 1255.59 Q1620.78 1250.98 1620.78 1242.26 Q1620.78 1234.06 1624.67 1229.2 Q1628.56 1224.32 1635.11 1224.32 Q1636.87 1224.32 1638.65 1224.66 Q1640.46 1225.01 1642.4 1225.7 Z" fill="#000000" fill-rule="nonzero" fill-opacity="1" /><path clip-path="url(#clip260)" d="M1698.59 1157.55 L1720.81 1157.55 L1720.81 1159.55 L1708.27 1192.11 L1703.38 1192.11 L1715.19 1161.49 L1698.59 1161.49 L1698.59 1157.55 Z" fill="#000000" fill-rule="nonzero" fill-opacity="1" /><path clip-path="url(#clip260)" d="M1788.26 1108.32 Q1784.92 1108.32 1783 1110.1 Q1781.1 1111.88 1781.1 1115.01 Q1781.1 1118.13 1783 1119.91 Q1784.92 1121.7 1788.26 1121.7 Q1791.59 1121.7 1793.51 1119.91 Q1795.43 1118.11 1795.43 1115.01 Q1795.43 1111.88 1793.51 1110.1 Q1791.61 1108.32 1788.26 1108.32 M1783.58 1106.33 Q1780.57 1105.58 1778.88 1103.52 Q1777.21 1101.46 1777.21 1098.5 Q1777.21 1094.36 1780.15 1091.95 Q1783.12 1089.54 1788.26 1089.54 Q1793.42 1089.54 1796.36 1091.95 Q1799.3 1094.36 1799.3 1098.5 Q1799.3 1101.46 1797.61 1103.52 Q1795.94 1105.58 1792.95 1106.33 Q1796.33 1107.11 1798.21 1109.4 Q1800.11 1111.7 1800.11 1115.01 Q1800.11 1120.03 1797.03 1122.71 Q1793.97 1125.4 1788.26 1125.4 Q1782.54 1125.4 1779.46 1122.71 Q1776.4 1120.03 1776.4 1115.01 Q1776.4 1111.7 1778.3 1109.4 Q1780.2 1107.11 1783.58 1106.33 M1781.87 1098.94 Q1781.87 1101.63 1783.53 1103.13 Q1785.22 1104.64 1788.26 1104.64 Q1791.26 1104.64 1792.95 1103.13 Q1794.67 1101.63 1794.67 1098.94 Q1794.67 1096.26 1792.95 1094.75 Q1791.26 1093.25 1788.26 1093.25 Q1785.22 1093.25 1783.53 1094.75 Q1781.87 1096.26 1781.87 1098.94 Z" fill="#000000" fill-rule="nonzero" fill-opacity="1" /><polyline clip-path="url(#clip260)" style="stroke:#000000; stroke-linecap:round; stroke-linejoin:round; stroke-width:4; stroke-opacity:1; fill:none" points="664.934,1202.68 664.934,483.08 "/>
<polyline clip-path="url(#clip260)" style="stroke:#000000; stroke-linecap:round; stroke-linejoin:round; stroke-width:4; stroke-opacity:1; fill:none" points="664.934,1185.97 669.92,1181.65 "/>
<polyline clip-path="url(#clip260)" style="stroke:#000000; stroke-linecap:round; stroke-linejoin:round; stroke-width:4; stroke-opacity:1; fill:none" points="664.934,1079.1 669.92,1074.78 "/>
<polyline clip-path="url(#clip260)" style="stroke:#000000; stroke-linecap:round; stroke-linejoin:round; stroke-width:4; stroke-opacity:1; fill:none" points="664.934,972.23 669.92,967.913 "/>
<polyline clip-path="url(#clip260)" style="stroke:#000000; stroke-linecap:round; stroke-linejoin:round; stroke-width:4; stroke-opacity:1; fill:none" points="664.934,865.362 669.92,861.044 "/>
<polyline clip-path="url(#clip260)" style="stroke:#000000; stroke-linecap:round; stroke-linejoin:round; stroke-width:4; stroke-opacity:1; fill:none" points="664.934,758.493 669.92,754.175 "/>
<polyline clip-path="url(#clip260)" style="stroke:#000000; stroke-linecap:round; stroke-linejoin:round; stroke-width:4; stroke-opacity:1; fill:none" points="664.934,651.624 669.92,647.306 "/>
<polyline clip-path="url(#clip260)" style="stroke:#000000; stroke-linecap:round; stroke-linejoin:round; stroke-width:4; stroke-opacity:1; fill:none" points="664.934,544.755 669.92,540.437 "/>
<path clip-path="url(#clip260)" d="M629.005 1184.61 Q632.361 1185.33 634.236 1187.6 Q636.134 1189.87 636.134 1193.2 Q636.134 1198.32 632.616 1201.12 Q629.097 1203.92 622.616 1203.92 Q620.44 1203.92 618.125 1203.48 Q615.834 1203.06 613.38 1202.21 L613.38 1197.69 Q615.324 1198.83 617.639 1199.41 Q619.954 1199.98 622.477 1199.98 Q626.875 1199.98 629.167 1198.25 Q631.482 1196.51 631.482 1193.2 Q631.482 1190.15 629.329 1188.43 Q627.199 1186.7 623.38 1186.7 L619.352 1186.7 L619.352 1182.85 L623.565 1182.85 Q627.014 1182.85 628.843 1181.49 Q630.671 1180.1 630.671 1177.51 Q630.671 1174.85 628.773 1173.43 Q626.898 1172 623.38 1172 Q621.459 1172 619.26 1172.42 Q617.06 1172.83 614.422 1173.71 L614.422 1169.54 Q617.084 1168.8 619.398 1168.43 Q621.736 1168.06 623.797 1168.06 Q629.121 1168.06 632.222 1170.49 Q635.324 1172.9 635.324 1177.02 Q635.324 1179.89 633.681 1181.88 Q632.037 1183.85 629.005 1184.61 Z" fill="#000000" fill-rule="nonzero" fill-opacity="1" /><path clip-path="url(#clip260)" d="M626.551 1065.89 L614.746 1084.34 L626.551 1084.34 L626.551 1065.89 M625.324 1061.82 L631.204 1061.82 L631.204 1084.34 L636.134 1084.34 L636.134 1088.23 L631.204 1088.23 L631.204 1096.38 L626.551 1096.38 L626.551 1088.23 L610.949 1088.23 L610.949 1083.72 L625.324 1061.82 Z" fill="#000000" fill-rule="nonzero" fill-opacity="1" /><path clip-path="url(#clip260)" d="M615.232 954.95 L633.588 954.95 L633.588 958.886 L619.514 958.886 L619.514 967.358 Q620.533 967.011 621.551 966.849 Q622.57 966.663 623.588 966.663 Q629.375 966.663 632.755 969.835 Q636.134 973.006 636.134 978.423 Q636.134 984.001 632.662 987.103 Q629.19 990.182 622.871 990.182 Q620.695 990.182 618.426 989.811 Q616.181 989.441 613.773 988.7 L613.773 984.001 Q615.857 985.135 618.079 985.691 Q620.301 986.247 622.778 986.247 Q626.783 986.247 629.121 984.14 Q631.459 982.034 631.459 978.423 Q631.459 974.811 629.121 972.705 Q626.783 970.599 622.778 970.599 Q620.903 970.599 619.028 971.015 Q617.176 971.432 615.232 972.311 L615.232 954.95 Z" fill="#000000" fill-rule="nonzero" fill-opacity="1" /><path clip-path="url(#clip260)" d="M624.607 863.498 Q621.459 863.498 619.607 865.651 Q617.778 867.804 617.778 871.554 Q617.778 875.28 619.607 877.456 Q621.459 879.609 624.607 879.609 Q627.755 879.609 629.584 877.456 Q631.435 875.28 631.435 871.554 Q631.435 867.804 629.584 865.651 Q627.755 863.498 624.607 863.498 M633.889 848.845 L633.889 853.105 Q632.13 852.271 630.324 851.832 Q628.542 851.392 626.783 851.392 Q622.153 851.392 619.699 854.517 Q617.269 857.642 616.922 863.961 Q618.287 861.947 620.347 860.882 Q622.408 859.794 624.884 859.794 Q630.093 859.794 633.102 862.966 Q636.134 866.114 636.134 871.554 Q636.134 876.878 632.986 880.095 Q629.838 883.313 624.607 883.313 Q618.611 883.313 615.44 878.73 Q612.269 874.123 612.269 865.396 Q612.269 857.202 616.158 852.341 Q620.047 847.457 626.597 847.457 Q628.357 847.457 630.139 847.804 Q631.945 848.151 633.889 848.845 Z" fill="#000000" fill-rule="nonzero" fill-opacity="1" /><path clip-path="url(#clip260)" d="M613.912 741.213 L636.134 741.213 L636.134 743.203 L623.588 775.773 L618.704 775.773 L630.509 745.148 L613.912 745.148 L613.912 741.213 Z" fill="#000000" fill-rule="nonzero" fill-opacity="1" /><path clip-path="url(#clip260)" d="M624.283 652.492 Q620.949 652.492 619.028 654.274 Q617.13 656.057 617.13 659.182 Q617.13 662.307 619.028 664.089 Q620.949 665.871 624.283 665.871 Q627.616 665.871 629.537 664.089 Q631.459 662.283 631.459 659.182 Q631.459 656.057 629.537 654.274 Q627.639 652.492 624.283 652.492 M619.607 650.501 Q616.597 649.76 614.908 647.7 Q613.241 645.64 613.241 642.677 Q613.241 638.534 616.181 636.126 Q619.144 633.719 624.283 633.719 Q629.445 633.719 632.384 636.126 Q635.324 638.534 635.324 642.677 Q635.324 645.64 633.634 647.7 Q631.968 649.76 628.982 650.501 Q632.361 651.288 634.236 653.58 Q636.134 655.871 636.134 659.182 Q636.134 664.205 633.056 666.89 Q630 669.575 624.283 669.575 Q618.565 669.575 615.486 666.89 Q612.431 664.205 612.431 659.182 Q612.431 655.871 614.329 653.58 Q616.227 651.288 619.607 650.501 M617.894 643.117 Q617.894 645.802 619.56 647.307 Q621.25 648.811 624.283 648.811 Q627.292 648.811 628.982 647.307 Q630.695 645.802 630.695 643.117 Q630.695 640.432 628.982 638.927 Q627.292 637.422 624.283 637.422 Q621.25 637.422 619.56 638.927 Q617.894 640.432 617.894 643.117 Z" fill="#000000" fill-rule="nonzero" fill-opacity="1" /><path clip-path="url(#clip260)" d="M614.514 561.317 L614.514 557.058 Q616.273 557.891 618.079 558.331 Q619.885 558.771 621.621 558.771 Q626.25 558.771 628.681 555.669 Q631.134 552.544 631.482 546.202 Q630.139 548.192 628.079 549.257 Q626.019 550.322 623.519 550.322 Q618.334 550.322 615.301 547.197 Q612.292 544.049 612.292 538.609 Q612.292 533.285 615.44 530.067 Q618.588 526.85 623.82 526.85 Q629.815 526.85 632.963 531.456 Q636.134 536.04 636.134 544.79 Q636.134 552.961 632.246 557.845 Q628.38 562.706 621.829 562.706 Q620.07 562.706 618.264 562.359 Q616.459 562.012 614.514 561.317 M623.82 546.665 Q626.968 546.665 628.796 544.512 Q630.648 542.359 630.648 538.609 Q630.648 534.882 628.796 532.73 Q626.968 530.554 623.82 530.554 Q620.672 530.554 618.82 532.73 Q616.991 534.882 616.991 538.609 Q616.991 542.359 618.82 544.512 Q620.672 546.665 623.82 546.665 Z" fill="#000000" fill-rule="nonzero" fill-opacity="1" /><polyline clip-path="url(#clip261)" style="stroke:#009af9; stroke-linecap:round; stroke-linejoin:round; stroke-width:4; stroke-opacity:1; fill:none" points="996.197,898.296 1004.2,888.368 1001.74,891.213 1008.28,883.109 1013.52,876.663 1011.9,878.561 1005.88,885.735 1010.97,879.452 1014.64,874.906 995.375,898.05 998.548,893.793 990.41,903.182 987.293,906.29 986.157,906.985 982.019,911.264 960.548,935.998 962.955,931.127 955.405,938.313 970.08,918.545 977.88,908.16 962.03,926.215 959.665,927.593 932.341,958.009 927.687,960.316 947.537,933.374 939.406,941.569 941.982,937.614 937.727,942.897 929.755,950.419 945.635,930.119 987.485,885.466 1034.94,839.321 1038.22,848.402 1025.15,867.733 1033.26,859.928 1106.96,783.359 1165.4,738.137 1112.66,801.069 1080.3,834.337 1144.35,764.15 1138.27,771.865 1164.02,751.508 1157.88,754.038 1162.12,758.087 1080.33,833.083 1022.56,890.302 1030.98,869.516 1003.54,892.896 976.272,913.43 1027.04,865.692 1014,878.316 1116.31,796.829 1104.3,815.018 1146.33,779.207 1217.8,707.594 1231.87,701.477 1250.48,703.736 1340.87,635.24 1356.69,631.367 1379.43,648.439 1588.72,464.017 1695.65,379.705 1563.72,502.023 1644.97,436.529 1605.43,478.646 1546.23,527.39 1463.61,582.627 1346.5,670.4 1342.78,659.1 1323.97,665.34 1305.15,671.986 1282.58,684.048 1331.65,636.379 1282.25,693.635 1265.65,702.525 1286.17,672.962 1273.92,687.011 1266.06,685.027 1309.37,645.875 1351.83,622.971 1359.1,619.013 1329.27,666.566 1207.26,760.402 1211.61,742.265 1139.71,797.023 1110.74,817.717 1017.02,903.196 943.96,959.03 900.148,993.664 955.695,917.31 933.429,947.247 917.371,961.912 903.018,976.632 878.893,997.661 955.149,910.295 933.389,940.962 915.145,963.388 900.856,971.68 867.478,1015.16 824.61,1059.04 901.186,963.38 858.573,1020.54 848.887,1028.31 879.529,991.402 913.435,951.744 945.748,927.736 993.708,897.923 1016.36,880.801 982.276,916.874 979.56,900.216 1022.54,865.606 1080.73,808.397 1134.46,763.155 1131.9,766.245 1101.28,811.803 1094.44,809.731 1277.28,659.066 1284.99,659.321 1404.57,573.379 1351.82,623.247 1310.81,665.048 1293.64,680.889 1352.9,628.733 1286.1,677.439 1231.25,721.78 1165.09,774.481 1107.78,818.899 1088.96,829.497 1055.91,848.187 1055.59,847.76 1000.82,904.1 910.427,981.101 913.314,965.639 891.996,988.378 881.004,988.323 1014.88,842.178 1031.39,843.006 1043.18,844.551 1001.22,899.67 1018.73,875.307 1074.06,820.71 1125.06,786.195 1159.59,754.911 1231.46,699.247 1287.87,661.683 1295.91,673.024 1317.3,664.292 1307.37,666.837 1382.46,613.156 1365.32,639.136 1507.95,519.707 1369.36,621.222 1263.43,700.541 1208.81,745.073 1172.65,760.692 1159.56,761.35 1158.64,758.463 1088.08,833.558 1030.43,870.82 1000.26,895.718 944.914,946.542 967.272,918.085 972.441,911.519 971.397,910.954 993.72,884.299 991.546,892.822 1030.52,855.646 997.623,883.98 1003.37,890.97 1057.77,845.544 1160.13,758.958 1198.38,743.704 1168.94,763.312 1166.08,767.506 1134.16,794.054 1188.12,744.203 1100.34,814.633 1023.19,881.467 962.406,928.087 984.124,903.077 997.667,896.618 961.827,921.533 1016.16,868.521 1008.49,879.035 1020.47,860.747 924.204,955.615 951.099,946.015 952.742,942.62 996.858,897.838 951.973,914.433 899.364,960.228 931.199,931.186 949.404,927.162 1014.91,866.642 983.501,906.718 1039.63,842.132 1126.12,776.267 1201.85,720.02 1121.54,793.788 1151.66,771.227 1244.35,700.7 1280.56,671.554 1266.73,675.236 1284.15,694.965 1264.2,708.185 1188.16,761.923 1237.15,699.21 1264.12,691.13 1305.77,663.718 1263.46,698.671 1353.73,614.76 1362.62,611.381 1222.59,721.463 1377.37,576.535 1356.49,619.212 1351.58,642.487 1498.94,519.58 1572.92,482.058 1499.74,543.31 1490.31,569.695 1487.95,554.178 1564.95,495.906 1481.28,567.788 1406.47,618.113 1339.14,666.306 1287.42,696.171 1230.11,732.628 1231.15,716.895 1234.56,717.467 1155.97,779.127 1133.61,798.57 1148.34,773.099 1158.71,763.424 1138.37,784.412 1137.28,781.254 1097.99,810.949 1102.99,803.221 1168.62,747.87 1248.26,682.055 1269.61,678.444 1321.43,630.929 1357.96,616.972 1295.95,678.589 1414.61,568.705 1542.72,482.335 1599.07,459.941 1570.43,495.128 1564.68,520.524 1597.69,485.941 1570.61,500.886 1643.21,439.136 1630.23,455.136 1652.24,448.595 1766.62,356.764 1633.48,477.408 1577.82,513.423 1566.9,517.981 1474.55,588.344 1459.35,584.167 1442.82,582.43 1411.89,600.443 1395.93,611.542 1336.42,650.808 1341.74,638.932 1258.48,709.816 1238.74,717.998 1197.79,747.204 1136.42,804.635 1129.18,797.391 1062.73,860.304 1020.4,888.388 1009.68,885.458 1002.66,888.135 974.107,912.409 999.171,884.858 985.112,902.633 1008.78,870.997 1056.79,823.122 1144.2,746.076 1200.69,714.592 1243.07,688.717 1207.3,737.914 1256.65,699.243 1190.41,756.632 1176.24,764.188 1207.47,725.437 1242.2,688.02 1293.71,644.994 1307.95,637.579 1399.14,553.88 1278.78,682.699 1222.48,739.125 1142.92,801.342 1146.33,783.139 1212.12,720.666 1223.28,705.256 1276.56,679.467 1461.98,538.217 1670.72,402.914 1595.68,490.954 1466.16,590.137 1482.47,567.735 1516.15,525.051 1519.57,527.017 1378.22,639.281 1400.21,607.23 1434.62,570.778 1491.24,531.848 1448.54,566.844 1426.34,588.924 1385.28,623.621 1308.11,677.908 1256.81,716.922 1282.29,684.5 1250.65,712.528 1257.06,696.094 1352.77,626.344 1314.61,659.326 1329.56,657.912 1321.33,663.803 1385.37,588.771 1367.87,613.781 1397.78,607.378 1423.97,597.347 1366.1,628.954 1239.91,721.48 1157.47,786.258 1200.94,731.064 1203.18,734.94 1143.31,784.849 1120.06,803.614 1114.23,795.917 1130.84,778.516 1132.63,774.799 1147.04,774.687 1173.24,744.97 1241.38,677.088 1212.6,718.385 1244.78,688.925 1256.46,687.493 1277.58,675.403 1264.09,688.029 1249.33,705.311 1223.7,725.99 1127.67,814.366 1186.91,743.094 1209.53,718.626 1365.92,565.326 1425.99,546.291 1512.21,489.535 1602.09,433.643 1586.65,474.399 1613.46,465.212 1550.15,524.321 1598.97,476.531 1527.48,538.902 1452.15,598.691 1380.57,643.663 1389.59,623.534 1325.21,671.979 1348.05,640.889 1392.39,597.709 1302.65,682.227 1322.74,652.607 1287.38,679.612 1271.75,691.305 1229.37,734.838 1193.93,754.626 1183.99,756.595 1107.41,823.456 1119.88,794.288 1106.42,803.077 1127.52,789.527 1192.76,731.443 1160.51,768.721 1163.97,779.332 1132.62,784.182 1172.13,749.776 1266.37,663.721 1304.02,641.105 1416.28,562.816 1355.55,640.719 1295.38,685.005 1285.47,687.679 1280.79,688.771 1340.7,623.471 1393.37,596.242 1387.14,603.01 1276.31,704.784 1233.22,719.995 1157.96,779.819 1136.6,798.699 1121.18,793.476 1090.27,819.971 1039.2,866.918 1043.77,852.444 1039.17,856.157 1045.77,855.887 1082.42,813.686 1135.65,777.341 1210.36,696.541 1280.59,655.791 1343.68,613.309 1383.78,600.374 1402.2,597.949 1348.04,640.89 1374.38,612.808 1334.84,646.119 1328.25,649.025 1432.94,559.216 1424.58,578.565 1370.01,631.09 1261.62,715.788 1212.22,743.252 1242.16,705.275 1203.01,741.837 1195.02,739.266 1161.47,771.53 1121.66,788.561 1142,765.637 1194.73,730.539 1183.33,740.505 1194.12,732.756 1120.29,809.831 1103.19,814.176 1137.45,781.393 1171.04,745.122 1121.75,803.478 1160.35,763.326 1184.72,743.357 1236.66,703.71 1248.72,695.571 1292.78,662.387 1236.79,717.299 1286.4,658.691 1256.55,698.672 1208.16,735.338 1094.37,839.555 1069.62,845.819 1015.33,896.511 1051.52,855.244 983.089,909.351 1017.33,867.868 986.682,902.592 1010.18,870.283 1008.09,882.189 990.689,896.818 1003.24,885.842 984.275,898.373 1080.8,806.714 1182.91,719.099 1174.7,748.763 1177.44,750.22 1176.2,751.666 1257.55,673.047 1248.32,698.451 1272.01,674.677 1230.34,714.186 1168.04,771.55 1225.97,714.472 1345.39,623.948 1369.33,611.326 1387.2,608.842 1427.07,578.028 1356.78,624.663 1298.78,667.166 1181.5,764.948 1123.56,799.265 1054.05,864.147 1051.21,853.415 1072.33,834.079 1118.52,775.933 1152.34,758.078 1136.5,778.552 1217.03,715.043 1231.94,708.147 1221.07,728.443 1205.65,739.374 1117.3,805.736 1117.77,798.095 1030.61,882.637 1073.69,824.106 1203.6,704.963 1247.33,684.638 1181.99,759.298 1167.49,761.793 1114.87,805.28 1073.14,829.133 1010.77,891.934 1005.09,885.549 1038.18,846.081 1126.1,762.219 1092.45,811.714 1102.89,803.369 1146.14,774.981 1155,774.276 1168.42,757.286 1070.73,844.079 1080.63,823.526 1127.34,775.894 1154.54,762.207 1202.76,720.595 1095.89,830.834 1081.2,830.393 1086.4,821.214 1147.12,757.435 1133.12,781.973 1116.73,794.175 1116.06,790.209 1103.62,809.337 1114.12,806.776 1198.55,735.746 1194.03,743.941 1152.01,778.82 1140.46,781.84 1064.44,840.173 1086.52,820.117 1015.46,890.82 1018.93,883.819 1001.97,891.608 1114.82,777.153 1106.47,789.857 1188.47,721.72 1119.95,799.596 1058.81,857.483 1013.31,887.082 965.211,928.801 941.198,942.537 930.314,947.367 959.4,911.449 875.079,992.382 908.925,957.776 877.795,993.181 932.969,936.975 965.225,910.537 1039.23,844.772 1063.92,835.696 999.253,904.349 950.204,942.92 959.928,923.846 981.384,896.748 1025.78,853.897 1015.56,871.127 1063.13,834.892 1101.34,800.477 1096.32,829.279 1192,727.808 1217.23,711.423 1271.23,680.074 1361.92,614.635 1296.29,676.456 1252.53,713.78 1255.24,712.091 1300.26,665.166 1348.44,662.393 1312.95,664.818 1252.44,715.529 1252.35,713.76 1213.09,742.314 1151.49,787.504 1089.21,838.069 1031.82,880.61 1079.44,814.951 1034.56,865.841 1015.36,880.893 1006.45,887.581 1028.8,867.288 1106.3,792.974 1098.07,813.732 1077.86,842.015 1031.98,886.509 978.587,920.739 1000.29,889.859 1033.82,851.189 1055.11,828.989 1034.21,866.394 1009.11,885.828 964.096,923.335 983.8,894.862 949.445,925.349 1007.88,867.533 934.608,939.126 960.38,926.929 925.207,953.736 910.513,972.853 983.717,902.914 1006.67,872.589 957.702,916.29 1031.75,854.883 1021.32,868.896 1022.31,863.449 1041.27,844.565 1001.35,887.095 1113.36,785.231 1132.75,766.027 1072.9,835.023 1148.63,775.271 1112.86,804.909 1147.97,788.132 1023.01,890.037 1062.1,837.012 1151.86,759.733 1272.1,670.504 1273.48,683.583 1309.12,655.146 1231.9,731.785 1181.25,765.583 1123.62,819.871 1084.73,828.81 1023.88,888.36 1020.07,885.396 1038.44,857.883 995.748,898.217 1099.67,806.688 1050,853.509 1042.83,852.685 1053.66,855.608 1057.46,843.39 1134.65,784.998 1108.01,806.58 1062.01,852.155 1030.3,869.58 1047.02,843.503 1067.18,826.524 1096.96,807.556 1037.7,861.282 991.35,904.529 917.535,962.421 935.947,940.219 940.941,936.622 940.854,933.245 990.824,889.661 1001.05,881.674 1003.62,883.541 1020.77,868.589 1051.7,840.213 1083.97,820.324 1011.17,873.738 1011.66,872.961 1026.7,853.94 1078.33,822.249 1098.32,791.621 1137.23,769.619 1182.37,732.781 1193.31,731.556 1091.44,825.61 996.833,907.607 1029.59,868.129 1018.54,872.82 1061.76,826.014 1063.15,831.582 1045.56,849.562 1057.69,837.845 1034.42,858.115 1067.96,822.992 1045.69,835.593 1030.06,843.212 968.815,905.077 1062.38,826.088 974.644,903.696 1007.97,856.044 1020.87,867.586 1070.63,831.164 1132.16,773.412 1252.1,690.1 1252.24,704.023 1210.11,732.816 1264.96,687.053 1346.48,625.293 1421.39,567.722 1428.08,605.996 1350.19,651.204 1413.08,594.253 1333.31,657.082 1288.33,696.879 1256.64,711.208 1264.1,700.405 1200.55,744.789 1219.46,727.814 1246.11,695.476 1275.21,665.403 1247.52,702.637 1245.96,703.689 1320.42,657.952 1387.15,592.193 1349.46,637.539 1303.54,674.945 1196.04,762.763 1212.93,747.636 1202.54,746.333 1245.96,696.383 1163.75,768.051 1187.16,742.867 1187.52,739.551 1261.79,673.209 1326.5,654.196 1223.65,735.209 1162.84,778.148 1176.19,752.443 1142.22,796.056 1117.06,794.766 1110.97,801.142 1078.13,837.483 1038,875.25 1045.71,860.57 1041.67,863.133 1034.49,864.751 976.923,920.723 1053.67,835.52 1061.66,838.068 1039.53,859.959 1092.74,807.709 1098.3,805.449 981.012,920.448 932.256,967.198 988.971,905.283 927.626,964.938 974.817,904.124 911.346,963.842 939.127,932.954 969.242,909.49 991.242,884.827 1088.73,807.196 1055.89,848.981 1123,776.009 1124.49,777.415 1170.29,751.925 1159.7,757.753 1112.27,801.776 1176.54,738.955 1101.35,805.314 1123.25,785.323 1052.64,852.857 1105.95,816.476 1140.16,785.531 1249.94,701.106 1203.36,737.116 1146.83,803.637 1211.51,748.031 1176.77,770.856 1187.77,747.095 1331.34,628.337 1265.37,701.486 1191.28,752.394 1183.78,750.726 1176.98,765.879 1257.69,684.824 1336.49,617.668 1506.38,502.589 1568.44,474.623 1633.78,446.988 1599.36,480.701 1605.2,474.09 1566.41,504.326 1433.95,609.158 1353.67,665.227 1291.2,700.127 1261.69,710.537 1210.89,746.285 1288,665.102 1269.26,684.474 1250.07,708.169 1299.26,652.597 1371.86,593.393 1422.61,564.163 1381.17,610.436 1460.92,542.727 1497.88,543.728 1534.11,513.175 1339.53,670.95 1291.98,690.537 1326.71,644.834 1416.62,568.339 1428.23,577.207 1516.58,521.062 1435.9,582.898 1405.6,604.774 1399.53,601.198 1401.95,603.774 1353.62,638.62 1325.04,649.776 1347.92,634.991 1207.84,749.2 1207.03,739.466 1178.07,758.778 1203.63,723.633 1284.12,649.392 1237.46,701.437 1233.2,719.077 1350.25,617.813 1348.04,627.3 1319.89,642.518 1392.45,580.301 1417.66,574.545 1430.19,579.168 1318.39,661.384 1310.27,675.233 1189.81,772.131 1175.67,765.018 1130.17,801.46 1130.15,796.266 1131.35,783.094 1114.97,804.203 1168.18,748.513 1195.68,733.368 1239.17,700.121 1201.82,729.106 1198.64,746.523 1171.63,765.18 1237.37,694.038 1216.69,723.499 1082.06,835.994 1032.82,870.857 1096.51,799.227 1026.19,866.772 991.056,905.197 1036.2,858.36 996.641,897.453 1065.4,818.608 1024.15,851.441 1049.79,842.646 1113.75,794.217 1215.24,725.286 1237.3,705.487 1198.31,736.635 1206.34,738.232 1171.35,777.02 1204.97,773.367 1133.95,812.559 1065.01,869.423 1016.58,900.924 1025.63,877.613 1033.93,861.874 1095.28,797.016 1157.98,749.308 1172.08,744.302 1184.58,737.493 1145.68,782.065 1208.52,715.213 1220.68,714.888 1246.85,697.255 1256.8,688.296 1289.12,665.388 1390.62,581.777 1525.63,482.328 1547.76,501.08 1492.86,557.429 1561.54,494.456 1561.2,497.243 1442.51,590.525 1350.78,657.675 1255.67,731.48 1307.6,662.253 1310.19,656.058 1297.07,668.807 1246.81,703.807 1169.8,778.266 1139.95,794.721 1171.85,752.161 1104.24,809.941 1065.1,844.391 1027.12,871.504 1076.19,826.059 1082.07,828.374 1040.24,874.195 1066.29,836.48 1021.3,869.326 1015.46,868.94 1063.6,836.166 1100.14,796.676 1088.84,805.148 1182.15,735.317 1201.41,722.519 1187.09,745.489 1131.09,798.044 1145.94,760.138 1190.51,731.966 1188.19,745.633 1199.38,735.851 1305.9,643.958 1261.07,692.733 1273.97,680.084 1370.39,609.633 1366.68,617.205 1374.46,620.2 1326.8,649.121 1340.24,637.741 1405.03,601.661 1307.2,671.758 1227.51,732.926 1197.52,747.667 1155.63,775.343 1108.72,813.496 1138.84,774.248 1176.94,729.81 1216.25,735.588 1238.21,709.599 1256.93,692.954 1280.45,680.638 1229.72,728.153 1288.3,663.347 1351.52,615.953 1386.85,590.959 1455.15,542.459 1405.95,602.781 1321.76,680.972 1350.54,641.217 1350.98,633.669 1263.86,702.786 1226.03,732.341 1234.21,714.683 1320.44,635.99 1154.41,765.219 1129.66,794.718 1093.68,818.124 1104.55,804.976 1191.02,723.297 1131.84,792.757 1091.69,826.235 1023.62,889.651 1037.61,862.348 1049.8,850.512 1091.23,801.801 1064.76,837.857 1098.39,808.698 1082.7,825.132 1082.28,824.468 1149.6,781.503 1083.2,836.504 1035.69,867.317 1049.11,847.897 1075.51,822.692 1221.76,703.682 1316.7,624.895 1400.64,565.176 1461.18,539.528 1530.28,506.939 1431.16,595.391 1448.89,564.048 1489.59,532.295 1382.81,613.931 1345.84,636.304 1364.47,604.845 1334.25,633.07 1300.63,670.694 1238.2,712.21 1304.2,646.861 1368.02,603.447 1393.47,603.859 1403.84,592.155 1325.42,666.892 1167.87,795.142 1188.2,759.468 1192.33,748.005 1104.62,828.917 1193.25,729.591 1140.42,785.5 1079.72,833.96 1071.44,835.374 1040.82,860.482 1076.79,823.312 1143,766.54 1131.45,786.25 1201.2,724.491 1194.87,737.76 1236.18,700.191 1283.3,650.276 1318.55,656.585 1311.82,650.548 1334.16,634.44 1303.15,673.04 1352.96,627.544 1240.65,717.437 1330.64,623.433 1228.5,715.463 1174.39,755.732 1106.37,815.801 1086.29,827.846 1073.98,842.343 1093.8,820.559 1101.68,800.425 1152.62,757.207 1111.29,797.553 1230.75,696.508 1233.27,702.686 1193.27,737.636 1179.89,755.446 1233.97,708.827 1159.77,787.82 1109.24,827.943 1210.43,717.178 1170.2,756.646 1158.4,765.14 1263.23,662.946 1171.74,739.268 1107.25,807.283 1197.39,732.117 1111.39,793.556 1075.22,823.145 983.048,894.241 994.381,879.624 996.507,890.371 999.86,888.023 934.033,950.84 897.451,987.124 882.978,998.611 935.658,932.816 893.018,984.82 833.222,1042.29 884.617,986.125 863.106,1008.52 860.207,1010.71 879.628,978.845 877.118,993.215 893.625,983.751 910.731,966.432 916.546,952.095 912.428,970.003 987.605,890.367 939.601,931.245 978.925,906.231 932.527,948.029 832.282,1053.6 806.988,1073.17 815.718,1050.03 797.779,1069.03 807.076,1055.26 771.355,1095.39 780.655,1093.19 815.635,1053.16 831.513,1032.51 856.023,1008.07 809.386,1062.62 804.538,1068.38 787.645,1084.54 781.591,1092.43 780.461,1098.19 815.404,1057.57 808.256,1060.01 779.435,1087.99 788.496,1074.97 746.535,1128.79 744.921,1122.08 760.929,1101.45 775.325,1089.98 761.242,1111.98 753.341,1119.14 738.748,1131.32 712.112,1163.05 698.011,1178.29 701.859,1168.29 732.179,1131.95 756.509,1105.45 729.881,1136.7 746.726,1115.52 736.442,1129.83 719.642,1150.85 713.078,1159.4 730.563,1140.14 764.77,1093.23 733.825,1131.94 749.424,1117.92 780.331,1081.15 792.916,1069.14 804.708,1057.17 777.678,1088.2 771.308,1095.27 868.358,986.453 935.316,923.569 926.454,943.203 887.588,986.859 894.867,978.999 829.668,1051.05 798.937,1078.57 838.747,1028.48 851.759,1019.81 868.375,1007.28 905.07,968.243 858.63,1010.55 884.191,985.383 897.797,985.794 915.206,956.769 961.223,910.77 1003.99,879.284 982.931,906.49 980.182,903.305 1014.95,878.582 1010.46,882.665 990.546,901.793 1016.63,873.637 1006.59,878.288 1040.8,848.632 899.369,985.604 900.677,971.333 1007.47,864.206 1070.6,816.383 1046.14,849.105 1028.91,863.295 1095.5,807.577 1189.82,730.571 1223.17,713.755 1326.85,623.713 1227.64,710.813 1153.44,792.12 1124.7,817.995 1034.94,884.736 1000.32,907.955 962.61,935.255 980.998,911.008 1043.36,851.124 1073.4,823.604 1132.88,772.253 1246.65,696.129 1242.24,698.425 1215.41,728.892 1246.12,708.914 1193.14,740.601 1164.79,768.42 1252.79,683.813 1199.19,741.761 1295.92,667.85 1317.51,651.495 1320.83,654.205 1146.75,790.176 1193.95,730.355 1150.37,775.885 1131.93,785.89 1064.58,846.508 1049.73,856.097 1041.93,855.662 1084.8,805.025 1087.5,823.301 1105.64,804.709 1186.55,736.768 1230.03,707.519 1257.66,689.801 1264.48,687.076 1241.43,705.322 1432.28,548.765 1390.44,606.699 1341.93,656.119 1386.27,605.441 1602.18,441.051 1540.36,513.476 1493.71,550.35 1426.21,597.104 1390.02,623.904 1288.95,696.977 1251.9,721.163 1183.48,767.941 1067.08,867.29 1060.3,857.186 1067.01,837.577 1083.64,814.693 1037.91,860.986 998.308,897.568 1100.08,792.169 1234.17,689.079 1280.09,668.082 1227.79,719.301 1162.43,776.862 1170.6,765.103 1204.12,727.457 1204.73,724.544 1253.4,682.568 1241.93,698.039 1216.71,713.889 1085.48,832.226 1091.13,815.386 1187.34,746.351 1099.2,831.036 1061.61,845.158 1069.35,836.7 991.609,912.683 1014.41,876.622 1026.15,862.856 1019.93,872.235 1139.29,756.847 1158.45,756.69 1172.68,752.151 1172.91,766.353 1150.48,778.026 1210.59,734.852 1178.21,769.973 1101.15,823.009 1060.81,858.099 1058.29,849.282 1090.09,811.726 1106.69,800.75 1121.56,785.559 1075.2,830.47 1069.75,833.22 1069.25,827.434 1130.65,787.404 1162.16,771.362 1150.24,779.749 1186.48,768.595 1144.18,791.919 1054.92,870.016 1043.53,872.173 961.259,938.899 928.826,958.833 917.098,957.851 962.022,908.924 1085.88,799.259 1131.08,766.954 1165.92,743.824 1239.69,694.524 1238.25,705.629 1248.86,697.489 1219.18,739.415 1163.39,761.391 1144.31,774.326 1130.99,790.999 1089.08,811.413 1092.56,811.73 1153.59,747.186 1086.94,823.702 989.206,919.653 993.222,907.318 974.372,920.252 1043.09,833.9 1088.91,803.897 1079.28,823.847 1088.15,816.324 1156.49,748.823 1151.14,763.54 1186.15,737.331 1120.01,804.576 1134.32,782.639 1170.78,736.464 1145.01,776.366 1192.03,730.027 1232.32,690.855 1180.42,754.81 1204.63,738.88 1167.31,778.088 1141.99,785.217 1091.59,824.129 989.983,915.185 960.604,935.43 946.423,946.118 918.871,960.792 896.862,981.996 956.293,919.734 927.199,953.072 937.443,949.188 955.879,923.967 932.257,950.514 961.068,918 957.887,917.003 993.481,889.071 1016.49,875.354 926.288,956.33 906.483,966.854 880.164,989.872 892.544,986.862 896.797,976.143 981.659,901.676 1042.87,853.085 1077.24,838.276 1068.77,850.169 1050.82,867.91 1040.13,878.067 1045.66,884.543 1064.17,869.303 1098.88,823.779 1122.06,796.364 1220.3,721.956 1374.65,614.287 1423.68,577.594 1570.28,441.83 1503.93,520.776 1502.24,523.756 1530.44,504.768 1387.72,614.005 1343.48,654.219 1268.05,705.994 1197.31,756.409 1149.42,793.615 1167.15,765.962 1179.6,749.881 1161.4,768.712 1131.95,785.989 1112.16,808.486 1142.52,779.364 1203.6,720.564 1201.76,726.4 1125.46,791.733 1109.46,796.639 1056.04,861.136 1084.69,818.896 1088.38,813.584 1029.37,872.914 980.05,911.213 978.966,903.906 948.74,935.601 1027.04,844.308 1062.96,831.276 1143.42,768.201 1141.72,777.122 1074.3,843.283 1101.77,821.908 1187.32,754.968 1220.27,719.701 1293.51,668.41 1392.59,588.421 1327.39,656.108 1309.37,673.995 1488.36,517.931 1492.4,520.322 1497.81,541.608 1455.72,571.677 1378.73,632.014 1376.91,624.393 1392.81,602.366 1386.1,614.071 1367.23,619.162 1297.82,676.402 1244.86,716.556 1214.89,735.464 1163.27,770.716 1197.21,719.926 1138.92,782.727 1072.62,846.905 1122.47,803.461 1121.61,802.039 1146.11,778.68 1143.55,771.592 1150.96,768.518 1164.02,762.269 1145.37,781.597 1014.12,890.777 1027.01,870.042 1030.02,861.122 1045.8,845.329 1063.87,829.616 1099.85,798.682 1054.85,848.154 1072.16,831.853 1074.23,838.1 1006.95,895.191 904.626,989.215 897.824,984.709 874.989,1002.35 943.059,923.186 970.136,911.773 980.647,902.772 1046.58,841.09 1041.82,856.92 1022.86,875.703 1056.73,835.332 1093.27,804.922 1122.51,787.417 1166.01,751.509 1086.1,832.538 1049.02,860.728 995.129,900.077 999.887,885.697 1038.32,867.182 1023.16,878.144 1019.57,865.323 986.02,901.555 946.435,935.608 1081.31,802.502 1109.96,793.164 1143.04,768.581 1164.45,757.427 1193.47,733.413 1139.13,785.898 1208.43,718.568 1186.61,741.283 1128.49,804.489 1171.23,738.799 1271.04,660.716 1255.07,693.896 1239.45,732.11 1216.02,743.921 1240.21,724.919 1250.99,697.996 1334.84,617.791 1240.13,703.441 1212.44,733.75 1132.98,784.312 1053.48,869.98 1018.4,888.278 968.282,936.332 1052.98,833.024 1087.52,806.741 1132.69,765.106 1133.29,775.482 1102.7,810.428 1139.34,784.084 1141.22,780.574 1141.59,779.395 1182.89,746.626 1171.66,760.979 1186.42,745.778 1195.27,740.077 1234.41,711.257 1205.9,739.951 1141.67,789.095 1175.63,746.217 1172.39,750.55 1113.68,808.535 1053.96,860.529 1003.09,907.153 1018.78,874.379 1011.46,876.103 1009.02,884.484 977.81,911.27 971.715,919.58 1050.12,842.219 1171.04,721.466 1145.1,756.582 1241.93,677.714 1240.32,703.883 1203.57,735.113 1196.11,738.221 1205.44,738.6 1271.57,694.046 1135.58,806.317 1113.08,808.726 1149.62,765.786 1114.14,801.476 1113.06,811.415 1172.76,752.23 1071.5,826.084 1049.71,856.212 1070.12,833.963 1040.85,849.593 1130.25,769.407 1182.57,727.892 1158,761.343 1119.72,797.004 1001.35,909.621 1048.62,845.25 1009.59,883.507 1098.53,796.706 1138.34,766.682 1245.22,672.343 1177.54,747.897 1219.2,723.092 1134.94,803.204 1133.22,803.504 1143.21,779.238 1137.68,782.005 1091.85,813.634 1070.03,832.761 1048.12,856.539 1116.45,804.351 1047.54,866.624 1037.45,860.153 1061.68,828.882 1076.3,816.166 1058.01,832.422 1134.16,761.817 1149.88,761.78 1177.2,742.835 1214.77,739.897 1286.98,667.834 1269.72,687.586 1302.5,665.135 1286.77,692.146 1286.28,671.479 1301.23,659.636 1305.92,677.877 1332.17,664.718 1257.49,703.585 1281.39,676.64 1384.85,585.059 1427.57,568.618 1395.6,602.098 1238.13,730.685 1232.83,724.112 1245.31,702.016 1166.69,772.548 1149.58,781.154 1087.39,833.564 1037.62,868.478 1048.93,846.18 1094.58,801.238 1067.43,836.153 1077.91,842.7 1071.16,842.98 1179.63,748.044 1239.34,698.67 1210.54,739.312 1152.02,786.291 1137.37,796.24 1112.39,820.743 1164.38,781.876 1248.66,697.377 1194.94,744.998 1338.49,620.672 1379.23,610.084 1376.15,611.301 1166.71,780.688 1167.08,767.139 1212.42,718.289 1302.52,657.108 1172.68,767.662 1255.89,681.757 1297.35,651.057 1367.8,596.268 1423.63,568.106 1297.55,680.905 1248.72,714.223 1126.01,810.599 1172.75,748.174 1244.62,689.785 1275.85,667.424 1186.89,748.449 1250.03,689.466 1285.03,654.151 1379.32,582.764 1350.83,630.846 1511.48,523.354 1420.62,602.745 1413.5,603.578 1331.07,669.056 1270.56,700.841 1189.53,760.444 1148.51,789.376 1087.11,847.45 1173.64,749.656 1168.84,739.669 1280.39,646.451 1224.75,718.044 1317.84,643.167 1259.1,708.914 1222.86,748.512 1222.83,731.856 1215.44,728.581 1122.82,795.314 1083.5,825.992 1154.61,765.018 1066.88,842.7 993.089,901.009 1004.7,881.161 990.24,916.352 983.792,916.159 1069.56,822.81 1218.2,698.093 1328.64,607.482 1245.07,716.827 1321.17,637.74 1441.72,566.803 1482.48,537.284 1542.28,493.743 1546.19,501.99 1508.27,537.621 1478.14,564.983 1499.75,546.075 1503.46,535.974 1528.96,512.626 1423.12,601.991 1372.52,636.168 1219.04,764.624 1140.94,820.94 1160.49,777.336 1182.99,747.039 1193.93,734.24 1141.26,785.908 1149.63,774.402 1143.1,779.784 1124.82,790.728 1094.63,815.826 1088.94,822.338 1142.73,772.831 1206.42,726.413 1200.9,738.075 1254.5,690.942 1204.19,735.656 1161.6,751.914 1174.11,741.719 1194.74,734.643 1176.2,756.521 1170.28,776.557 1079.52,846.895 1043.81,870.892 990.944,911.439 986.452,906.272 1030.05,859.865 1029.55,858.803 1004.46,887.61 928.34,950.872 965.774,913.37 994.393,901.115 1093.38,808.292 1109.05,797.782 1108.92,808.585 1132.21,789.358 1158.84,762.453 1098.39,829.174 1062.55,834.471 1021.91,877.226 1084.26,820.625 1093.02,809.699 1222.16,693.317 1294.78,642.841 1285.7,668.549 1254.49,707.212 1311.84,659.394 1329.89,639.862 1452.34,546.862 1510.2,517.878 1599.14,463.098 1675.23,434.945 1508.42,565.259 1511.52,540.456 1383.09,641.5 1388.19,617.284 1315.12,678.046 1252.09,721.264 1172.98,784.448 1097.32,837.894 1101.81,819.374 1111.23,804.892 1089.84,818.105 1145.27,756.827 1142.68,765.487 1193.52,723.266 1190.74,741.463 1241.35,701.527 1278.25,677.57 1295.98,679.73 1252.96,700.295 1174.34,763.124 1200.86,741.825 1161.06,776.783 1185.3,755.936 1214.34,709.303 1162.7,759.381 1182.04,751.048 1167.54,765.417 1196.32,729.641 1184.38,738.904 1275.07,667.024 1316.57,644.812 1270.19,687.969 1224.6,722.741 1259.48,692.474 1215.13,729.525 1306.38,655.582 1426.12,549.499 1397.9,589.989 1408.38,580.191 1315.17,662.708 1325.03,655.766 1261.48,702.789 1258.79,699.83 1250.72,714.368 1241.35,707.659 1136.33,794.526 1125.55,791.63 1158.55,753.333 1208.71,720.25 1157.77,764.174 1183.53,744.021 1082.38,836.068 1036.12,872.977 1044.69,851.722 1012.12,882.45 1097.33,791.249 1091.35,793.802 1243.97,667.842 1396.49,558.846 1349.32,617.281 1264.72,716.142 1209.6,749.051 1255.12,687.783 1255.71,703.861 1333.57,628.554 1281.09,694.832 1124.02,832.477 1160.56,768.205 1137.39,787.05 1057.96,863.083 1119.59,785.693 1100.9,803.763 1064.3,836.196 1124.72,778.561 1142.6,771.862 1189.3,741.814 1168.05,776.776 1199.34,726.311 1188.83,746.843 1082.91,834.215 1046.48,866.021 1044.34,871.678 999.193,898.224 991.953,897.84 958.79,931.539 895.669,980.174 927.703,945.443 936.258,938.716 977.353,899.863 944.867,947.053 900.415,979.934 961.104,911.747 975.252,901.167 1014.88,860.041 1031.34,865.462 1051.4,846.36 1049.07,846.925 1000.5,888.299 1078.52,825.11 1101.98,785.031 1089.95,820.487 1126.72,787.616 1122.19,798.563 1085.92,830.846 1100.76,816.867 1174.31,743 1254.85,691.69 1285.57,679.821 1212.33,739.265 1141.99,791.704 1129.33,799.198 1129.05,783.324 1118.23,791.518 1191.06,730.435 1172.91,755.258 1111.78,810.526 1178.68,747.765 1138.07,780.466 1094.45,806.817 1137.51,757.848 1094.39,813.472 1090.77,810.758 1239.08,676.443 1204.63,727.237 1192.82,751.205 1177.03,755.854 1269.69,661.29 1275.9,677.348 1296.66,665.485 1394.98,584.495 1288.04,693.332 1295.84,678.329 1254.63,710.25 1185.24,772.519 1074.62,857.076 1017.29,899.67 1020.8,881.938 1002.87,895.485 1010.77,881.245 1024.46,861.492 1023.11,868.028 1084.51,811.035 1057.48,847.329 1091.17,807.519 1119.26,786.91 1118.24,790.56 1153.11,772.98 1152.84,767.924 1107.45,799.99 1060.23,839.871 1120.98,771.5 1150.9,753.232 1098.98,810.68 1162.2,751.832 1359.66,582.207 1331.7,635.441 1449.67,532.065 1410.2,596.908 1376.87,626.869 1348.21,639.08 1315.22,666.206 1239.46,724.614 1196.43,761.436 1159.65,777.207 1176.82,751.701 1152.28,770.798 1152.16,770.32 1124.16,798.849 1185.54,739.544 1170.73,755.923 1168.98,752.054 1229.5,690.751 1221.2,688.163 1182.01,724.821 1288.96,653.114 1257.87,695.576 1277.48,677.174 1168.25,746.905 1212.15,714.601 1223.33,718.345 1196.33,750.163 1173.97,758.857 1137.09,794.993 1178.17,757.349 1250.1,690.479 1269.55,680.513 1375.37,603.198 1377.09,618.932 1196.99,768.789 1230.97,713.81 1340.87,617.404 1285.64,686.877 1249.61,704.069 1246.47,705.946 1266.38,684.207 1341.92,634.605 1266.2,696.01 1273.86,700.479 1202.63,742.297 1153.97,778.109 1104.45,812.917 1150.26,763.672 1203,728.58 1191.23,741.25 1270.31,675.394 1304.06,649.441 1331,636.144 1374.62,607.733 1429.98,561.419 1494.83,509.791 1419.49,585.941 1451.41,573.478 1453.99,573.486 1348.51,655.491 1289.3,693.868 1225.81,740.846 1154.14,789.345 1163.51,767.245 1213.85,712.527 1258.41,670.893 1244.89,697.146 1279.88,671.701 1316.02,650.641 1291.55,673.292 1265.67,692.715 1237.44,701.903 1298.45,653.98 1324.35,641.728 1291.97,659.369 1231.6,705.209 1322.31,634.45 1280.44,677.267 1241.47,712.123 1358.72,626.993 1590.46,466.519 1525.1,517.067 1485.29,551.763 1434.51,580.278 1425.63,588.159 1385.01,613.755 1298.65,679.659 1229.27,728.407 1244.68,699.255 1268.88,684.383 1171.89,763.782 1157.67,773.826 1104.83,820.409 1103.73,820.983 1064.09,844.065 1052.61,849.703 1054.43,848.776 1043.15,858.941 1055.39,850.21 1059.42,846.64 1106.61,801.26 1081.75,832.273 1034.5,856.123 1104.79,791.927 1122.68,794.312 1144.06,760.626 1166.55,750.86 1154,766.139 1185.96,744.561 1132.68,796.816 1083.41,836.1 1114.27,799.255 1084.62,819.311 1213.59,698.083 1215.68,721.905 1261.37,678.025 1222.07,719.904 1317.25,638.389 1340.08,627.848 1368.44,620.256 1368.62,622.458 1354.4,646.404 1249.23,724.804 1189.29,764.596 1169.04,769.348 1166.69,762.747 1148.27,776.444 1087.59,836.34 1027.62,886.215 1054.13,845.112 1076.89,829.555 1133.31,790.971 1130.36,792.188 1076.35,841.843 1120.37,788.478 1054.86,851.572 1015.82,888.238 965.978,928.522 955.462,928.621 984.808,900.195 1070,812.275 1084.03,807.711 1063.66,846.777 1140.5,770.339 1127.18,792.803 970.916,926.018 1064.4,818.236 1017.42,866.738 973.406,916.361 947.54,941.773 895.026,993.211 920.681,962.192 959.433,924.046 986.806,904.62 985.24,900.871 1052.95,834.516 1010.23,875.776 1023.97,856.904 1104.98,796.469 1092.94,809.66 973.861,904.231 928.08,950.586 994.916,882.167 1007.18,875.261 1016.91,862.882 1102.04,800.118 1079.04,825.466 1031.39,864.479 1054.32,830.533 1068.95,821.226 1067.63,833.222 1157.38,759.066 1202.06,734.935 1227,719.075 1213.25,728.095 1318.2,674.818 1227.54,739.881 1218.2,729.168 1208.75,733.527 1287.04,672.64 1375.45,598.768 1315.19,651.653 1394.24,603.664 1437.37,568.4 1396.3,618.336 1399.63,603.054 1438.89,572.702 1494.39,541.581 1449.23,570.797 1517.49,533.386 1481,587.183 1331.49,698.513 1335.47,672.928 1298.53,690.624 1260.97,713.747 1191.94,766.13 1198.98,744.269 1193.87,743.821 1080.75,847.334 1061.75,852.068 1108.01,794.729 1138.9,767.727 1172.37,741.497 1197.54,733.587 1269.06,665.54 1304.23,655.002 1354.16,613.911 1431.77,554.909 1464.63,544.234 1430.95,585.219 1307.31,677.22 1244.61,721.558 1255.97,702.14 1175.54,772.757 1164.08,769.574 1130.49,795.548 1041.67,872.841 994.765,909.866 998.054,896.883 993.592,897.554 1036.36,850.715 1125.68,769.537 1170.04,739.725 1157.87,761.383 1134.86,778.137 1107.88,815.728 1036.6,871.362 1057.98,847.448 1014.76,888.934 953.069,949.694 965.239,921.79 907.067,981.678 896.121,980.001 958.114,908.049 1039.49,844.086 1011.44,880.098 1046.65,842.908 1028.71,873.254 1094.06,800.348 1195.38,712.77 1202.96,721.433 1192.05,742.243 1196.65,722.948 1164.25,763.703 1163.01,761.51 1158.12,751.904 1197.53,720.456 1178.11,734.804 1087.28,810.964 1068.6,825.858 1086.06,799.531 943.011,922.322 967.218,895.41 996.284,887.574 1049.95,843.07 1041.98,845.773 970.432,913.604 953.969,916.317 930.389,941.783 924.359,958.566 967.923,914.559 987.389,899.097 941.989,937.016 996.217,885.073 1024.74,867.249 1012.92,882.561 995.706,898.351 1062.18,848.169 989.122,912.342 934.647,945.938 945.675,935.89 900.739,982.16 953.057,923.314 1076.23,816.766 1050.61,853.134 1067.71,831.585 1040.37,864.28 1070.79,833.708 1046.93,857.4 1164.46,769.708 1151.44,779.769 1177.6,757.708 1192.19,742.777 1148.85,777.039 1151.15,777.855 1090.01,831.325 1146.8,768.648 1113.7,808.854 1155.57,760.217 1139.96,788.52 1123.35,797.66 1139.36,781.853 1270.55,666.001 1330.71,619.298 1414.78,564.309 1397.04,596.978 1353.56,647.1 1319.99,665.138 1285.25,690.058 1353.28,616.13 1351.06,632.36 1212.82,756.317 1186.65,764.375 1193.5,743.316 1150.18,785.185 1155.71,773.51 1162.68,760.23 1141.2,770.958 1162.31,766.287 1117.02,825.988 1105.82,822.863 1103.43,811.703 1057.63,855.291 1090.87,809.079 1086.45,812.288 1088.41,826.214 1187.62,739.149 1162.11,766.829 1185.21,746.165 1168.84,762.952 1167.85,779.18 1253.19,704.354 1233.25,736.533 1271.28,710.89 1237.05,756.302 1192.14,787.612 1188.56,752.92 1121.94,805.529 1182.81,738.781 1080.41,840.032 1152.89,758.866 1119.76,799.881 1145.26,780.312 1198.42,725.912 1289.38,651.616 1377.24,591.932 1391.63,590.699 1364.85,629.154 1199.42,763.778 1169.78,774.382 1144.84,790.355 1195.29,734.7 1222.3,708.499 1178.79,740.468 1189.11,742.51 1240.21,709.668 1287.7,678.915 1193.36,771.29 1233.9,711.677 1251.3,681.67 1070.4,823.705 1078.3,817.43 1079.18,812.031 1084.09,818.935 1117.82,786.893 1096.62,808.38 1164.46,757.543 1090.43,829.436 1082.91,833.431 1098.23,812.859 1006.73,886.993 986.21,905.606 1022.09,863.505 1087.61,813.798 1082.55,834.343 1119.25,803.262 1078.4,845.015 1160.23,773.548 1132.07,796.212 1185.59,736.117 1138.72,781.726 1146.85,787.574 1073.57,830.691 1043.89,866.183 1073.24,831.56 1100.6,811.443 1126.77,775.265 1154.17,751.264 1113.65,802.459 1099.83,797.009 1181.26,740.953 1106.91,814.315 1092.2,813.705 1106.86,799.832 1173.93,732.634 1161.24,761.493 1207.83,725.548 1216.11,717.738 1163.44,774.288 1237.01,696.866 1258.4,681.765 1340.98,623.015 1267.89,693.178 1235.01,718.563 1301.95,648.906 1274.78,683.552 1264.61,689.083 1265.07,698.331 1339.86,643.465 1197.1,756.408 1116.54,817.288 1083.6,834.082 1014.25,888.462 1036.94,861.654 997.291,901.915 1048.08,844.751 1096.33,806.561 1053.21,850.988 1085.45,809.794 1122.14,771.867 1152.19,753.524 1200.12,722.689 1264.77,679.739 1199.47,749.001 1189.29,740.296 1194.85,735.009 1161.95,765.092 1123.72,807.179 1135.23,790.479 1289.85,680.684 1307.6,658.027 1176.74,774.723 1158.49,780.102 1098.44,828.135 1096.49,821.101 1019.19,891.693 993.287,900.426 1035.59,855.779 1060.11,831.027 1068.69,829.553 1013.35,884.908 1018.59,871.645 1042.3,856.667 1056.95,843.667 1081.45,822.235 1076.16,832.703 1101.59,810.492 1199.61,711.681 1221.42,706.233 1205.42,730.718 1303.78,666.126 1350.3,644.609 1346.41,632.479 1352.65,655.298 1331.75,657.746 1398.28,598.8 1302.12,669.496 1365.81,608.103 1339.9,654.083 1257.07,720.99 1256.9,701.61 1242.62,710.208 1229.27,715.787 1267.34,674.295 1190.32,752.875 1126.45,810.95 1106.42,806.884 1072.95,842.582 1092.66,815.282 1032.45,880.423 991.028,909.479 975.085,920.465 1049.49,839.905 1014.82,877.274 1036.68,857.957 1083.28,829.099 1006,901.537 1022.88,872.449 1074.96,846.6 1140.16,782.885 1214.24,727.961 1282.85,675.2 1236.71,712.506 1205.49,745.972 1316.77,622.452 1233.45,678.916 1241.23,693.986 1316.74,650.077 1282.83,687.616 1149.94,790.71 1137.43,783.331 1234.13,686.586 1198.8,731.044 1377.7,598.766 1407.27,580.204 1535.25,508.517 1426.17,606.745 1277.27,723.535 1191.68,784.373 1131.03,816.664 1114.86,817.963 1099.45,822.727 1151.01,754.487 1206.79,709.06 1217.09,722.286 1175.4,758.521 1203.6,734.094 1186.44,750.114 1233.62,715.734 1244.18,698.873 1071.07,839.009 1025.02,881 945.7,948.336 951.897,927.663 975.325,899.414 1008.6,867.377 958.089,928.261 892.382,990.987 882.662,995.316 910.299,965.796 899.929,973.21 914.714,959.887 960.608,916.477 987.05,897.416 960.585,924.318 956.943,928.764 1011.94,872.662 1021.57,872.661 975.77,921.487 909.295,972.532 889.702,985.228 1011.1,862.962 1032.01,855.855 1003.19,889.667 1056.48,848.204 1088.54,813.175 1040.21,863.478 1114.27,787.666 1122.41,783.483 1049.93,854.418 995.489,915.502 1000.09,890.913 1021.93,871.309 1089.72,820.713 1048.32,848.801 1092.72,813.191 1176.59,734.739 1242.74,669.701 1323.55,625.598 1253.16,700.525 1289.52,663.551 1187,751.132 1200.54,718.955 1182.16,738.588 1082.67,833.088 1218.71,724.83 1131.05,804.021 1062.78,865.654 1099.61,818.436 1027.4,877.417 1067.5,831.873 1080.25,826.848 1021.86,884.33 965.897,924.893 1011.22,868.813 996.861,884.455 979.358,900.975 1027.53,860.588 971.96,924.147 1015.33,872.828 1056.08,835.679 1080.16,811.597 1094.99,815.278 1112.49,796.344 989.049,917.466 1032.34,862.486 1033.31,861.239 1046.45,874.04 1022.88,882.2 1092.7,817.134 1036.91,867.795 967.049,917.112 1013.61,879.998 1015.46,873.936 1031.94,855.843 1065.99,838.815 1061.45,845.539 988.676,906.774 995.05,888.87 1101.93,791.402 1125.21,766.927 1123.31,774.253 1108.65,800.111 1117.28,777.42 1103.33,785.093 1174.6,750.344 1170.5,749.703 1177.58,741.08 1272.58,663.848 1254.05,691.975 1210.39,733.717 1312.23,642.857 1360.63,610.303 1398.99,589.772 1469.19,532.937 1342.23,649.98 1288.49,691.768 1247.26,720.92 1268.02,694.284 1241.52,713.288 1273.69,681.469 1252.75,701.909 1307.68,652.871 1215.28,729.841 1200.99,743.647 1175.61,763.787 1193.73,741.636 1116.02,807.479 1092.8,821.294 1117.96,800.968 1156.38,742.138 1138.44,765.679 1078.58,829.594 1009.42,894.743 1003.55,896.01 996.42,891.2 1015.51,884.518 997.064,904.994 1022,879.938 979.477,905.723 918.483,961.453 895.804,981.941 908.049,971.669 898.895,974.054 970.42,901.627 863.861,1014.76 874.984,998.53 842.497,1027.87 904.882,964.97 952.148,921.119 1001.8,876.038 1004.38,880.696 977.289,912.528 1107.6,771.731 1112.49,795.755 1088.26,819.736 1060.22,853.334 1064.18,845.448 1002.99,897.341 975.589,920.859 913.175,976.41 919.884,963.867 927.026,952.28 880.326,992.5 897.197,970.116 867.722,1004.64 873.932,991.875 839.462,1027.26 816.061,1050.88 826.916,1042.32 877.392,991.499 877.728,989.04 929.991,945.656 949.305,935.981 890.205,995.614 894.522,985.432 879.407,997.537 879.54,996.468 995.012,885.419 986.612,904.769 1040.15,851.409 1036.78,863.446 1089.06,812.693 1144.82,787.692 1193.38,742.355 1158.23,757.054 1172.84,746.053 1181.3,762.194 1034.72,878.857 960.404,935.962 1011.52,873.186 1021.42,862.595 1068.25,826.338 1100.38,794.49 1097.86,813.197 1129.68,788.183 1138.24,785.35 1102.42,819.583 1057.85,846.138 1107.98,789.664 1127.33,772.176 1121.68,790.218 1137.64,779.387 1104.91,809.742 1123.87,788.054 1134.86,780.122 1028.68,867.914 1059.48,845.97 1099.47,813.827 1073.65,830.064 1128.64,785.453 1140.96,782.783 1199.49,734.11 1178.36,747.715 1195.34,736.385 1226.93,699.154 1237.23,695.065 1184.05,713.464 1173.74,753.588 1183.12,756.375 1324.48,638.573 1393.05,605.886 1456.18,552.494 1522.6,514.929 1563.47,507.047 1454.16,585.955 1408.24,615.061 1336.58,662.936 1290.93,684.844 1292.33,676.622 1313.93,653.819 1267.24,704.393 1217.91,735.747 1213.66,739.867 1192.26,749.325 1217.64,718.883 1109.86,821.702 1079.32,847.867 1018.72,897.515 955.582,946.108 966.727,920.681 950.53,932.82 974.224,908.062 995.591,887.403 1024.84,859.421 1065.31,828.135 1026.85,871.919 1086.9,808.315 1109.63,798.577 1172.84,745.957 1210.22,712.088 1235.37,695.854 1220.74,713.147 1294.53,666.025 1282.46,673.108 1121.58,822.062 1186.17,757.616 1227.05,709.266 1193.55,754.941 1226.15,722.414 1309.76,670.716 1306.41,679.205 1278.85,699.98 1239.03,728.512 1208.59,738.165 1180.33,751.763 1114.41,802.36 1106.15,807.929 1187.22,761.289 1209.72,737.835 1193.58,735.47 1267.7,662.6 1261.32,686.483 1337.47,618.162 1229.96,726.141 1263.65,688.946 1338.99,624.14 1401.01,584.254 1377.69,604.426 1348.82,638.299 1358.22,620.665 1321.5,653.379 1271.78,691.651 1127.09,807.681 1188.17,742.282 1264.29,680.135 1380.63,591.75 1359.98,629.55 1361.16,633.915 1268.39,710.213 1229.5,732.119 1199.2,752.274 1177.56,757.813 1148.62,786.338 1133.06,788.634 1152.36,772.522 1184,747.723 1191.15,739.581 1252.43,674.993 1149.79,786.52 1020.75,891.173 1045.7,850.38 1088.97,806.813 1104.79,792.063 1070.42,830.437 982.954,921.559 949.636,946.288 863.149,1026.14 889.022,988.035 930.736,934.475 866.989,1015.12 923.776,941.845 954.314,921.049 951.012,929.194 956.435,929.585 854.051,1027.08 860.632,1013.47 903.018,968.087 880.852,993.033 824.512,1056.08 854.424,1018.12 913.309,956.391 890.164,979.865 887.28,990.798 920.982,948.168 943.381,940.755 956.505,918.089 981.972,899.938 954.186,928.194 939.696,939.459 883.858,993.022 853.555,1025.1 863.702,1001.71 909.716,957.925 941.416,924.883 993.448,886.612 969.73,913.306 973.185,906.828 889.805,987.71 892.962,982.426 909.703,965.94 862.365,1009.64 885.894,986.955 846.685,1027.52 854.096,1019.91 849.825,1025.54 955.142,916.327 960.115,916.496 967.664,909.431 1091.54,800.29 1168.77,733.904 1183.86,733.473 1258.57,680.281 1214.52,727.178 1246.4,693.63 1297.59,652.041 1341.27,624.508 1268.31,702.56 1210.22,725.575 1247.88,706.045 1180.17,768.282 1169.66,764.384 1175.18,744.429 1050.17,855.203 975.251,927.581 1023.38,866.232 948.83,946.572 953.685,931.689 928.194,950.275 908.465,962.748 1007.69,868.668 1046.12,840.378 1077.62,818.941 1137.18,766.229 1079.94,827.524 1098.74,806.172 1086.58,821.295 1022.94,868.866 1006.79,862.974 1014.8,868.213 997.522,881.451 997.383,888.372 1083.64,816.24 1153.56,743.117 1148.45,762.508 1134.52,775.869 1214.22,705.345 1211.44,737.09 1249.27,701.369 1202.13,741.465 1125.32,811.118 1137.73,789.608 1169.6,754.946 1167.57,746.623 1162.69,753.518 1173.68,741.884 1150.56,766.999 1152.6,774.976 1109.42,802.241 1044.99,826.228 1007.35,859.92 954.928,929.755 969.532,914.797 954.191,937.679 997.894,893.154 973.354,909.442 951.664,923.943 888.737,985.727 937.23,931.385 930.653,951.917 990.796,893.07 1069.66,823.413 1106.27,799.797 1117.38,792.928 1133.35,788.49 988.065,896.675 905.668,977.263 917.993,964.627 900.479,971.694 986.017,894.022 1047.27,842.862 1132.53,763.15 1076.33,813.277 1087.71,814.73 1107.4,791.644 1082.69,828.817 982.681,912.062 1038.14,856.682 1114.66,791.47 1123.37,784.328 1102.29,801.037 990.322,910.196 972.724,913.543 949.487,936.083 949.148,927.137 992.786,888.784 976.217,911.208 939.119,948.821 944.943,940.848 955.455,931.262 911.901,971.872 919.248,961.562 933.926,945.951 932.882,939.246 927.923,947.899 907.904,969.212 938.751,941.489 959.541,916.644 1050.11,832.937 1094.08,805.439 1083.09,815.131 1039.6,863.082 1066.71,852.937 1067.25,849.737 1159,758.979 1200.75,731.418 1243.31,704.241 1198.24,734.766 1259.86,675.702 1178.18,723.995 1259.72,670.607 1196.6,729.349 1288.04,654.631 1236.99,683.593 1230.27,692.438 1238.24,687.516 1212.98,712.737 1046.6,834.449 1075.59,800.613 1024.08,855.988 1025.03,854.846 955.604,896.753 1013.99,859.47 995.689,880.959 988.368,894.784 1053.18,826.326 1082.12,818.181 1129.09,776.033 1197.33,721.085 1123.48,794.699 1037.36,870.324 1079.02,835.631 1172.65,741.953 1197.14,718.022 1325.6,630.408 1398.4,592.131 1352.67,632.192 1467.53,554.395 1509.83,546.268 1562.29,489.908 1549,507.541 1524.47,536.664 1601.75,473.266 1451.98,593.683 1391.2,638.772 1355.79,651.871 1355.3,641.242 1327.14,662.234 1238.96,730.16 1153.9,798.04 1152.05,784.41 1229.51,706.879 1214.97,727.507 1234.29,708.395 1330.9,620.896 1312.11,656.96 1269.2,694.664 1283.19,669.588 1218.95,718.55 1279.51,662.727 1209.02,732.029 1206.07,727.703 1236.48,730.103 1181.41,755.23 1238.51,701.158 1258.09,682.312 1366.75,613.585 1355.42,621.61 1383.31,607.612 1280.39,697.472 1230.52,735.693 1189,762.985 1170.44,761.801 1173.39,752.2 1154.19,773.045 1112.76,805.994 1119.35,791.352 1085.16,827.61 1113.01,798.706 1077.76,833.537 1134.45,791.874 1078.81,830.388 975.339,921.454 985.331,904.574 975.283,915.192 1057.75,850.494 1080.76,825.364 1198.48,718.119 1216.13,707.36 1308.95,626.566 1270.74,681.632 1267.06,686.747 1279.08,677.375 1378.51,618.571 1327.89,653.852 1297.52,672.246 1282.44,686.064 1235.86,712.901 1295.71,655.079 1250.41,697.768 1178.46,764.514 1135.3,793.547 1039.05,879.56 1039.71,865.081 1069.75,830.422 1004.6,889.475 1095.04,794.669 1119.85,775.741 1135.89,767.744 1117.54,797.766 1126.82,788.149 1094.66,804.103 1119.87,788.198 1019.78,871.177 1187.68,709.513 1215.54,694.45 "/>
<path clip-path="url(#clip260)" d="M186.863 198.898 L550.897 198.898 L550.897 95.2176 L186.863 95.2176  Z" fill="#ffffff" fill-rule="evenodd" fill-opacity="1"/>
<polyline clip-path="url(#clip260)" style="stroke:#000000; stroke-linecap:round; stroke-linejoin:round; stroke-width:4; stroke-opacity:1; fill:none" points="186.863,198.898 550.897,198.898 550.897,95.2176 186.863,95.2176 186.863,198.898 "/>
<polyline clip-path="url(#clip260)" style="stroke:#009af9; stroke-linecap:round; stroke-linejoin:round; stroke-width:4; stroke-opacity:1; fill:none" points="211.758,147.058 361.13,147.058 "/>
<path clip-path="url(#clip260)" d="M396.651 128.366 Q393.549 133.69 392.044 138.898 Q390.54 144.106 390.54 149.453 Q390.54 154.801 392.044 160.055 Q393.572 165.287 396.651 170.588 L392.947 170.588 Q389.475 165.148 387.739 159.893 Q386.026 154.639 386.026 149.453 Q386.026 144.291 387.739 139.06 Q389.452 133.828 392.947 128.366 L396.651 128.366 Z" fill="#000000" fill-rule="nonzero" fill-opacity="1" /><path clip-path="url(#clip260)" d="M403.063 138.412 L423.294 138.412 L423.294 142.301 L407.276 160.935 L423.294 160.935 L423.294 164.338 L402.484 164.338 L402.484 160.449 L418.502 141.815 L403.063 141.815 L403.063 138.412 Z" fill="#000000" fill-rule="nonzero" fill-opacity="1" /><path clip-path="url(#clip260)" d="M430.887 158.458 L435.771 158.458 L435.771 162.439 L431.975 169.847 L428.988 169.847 L430.887 162.439 L430.887 158.458 Z" fill="#000000" fill-rule="nonzero" fill-opacity="1" /><path clip-path="url(#clip260)" d="M455.655 166.745 Q453.849 171.375 452.136 172.787 Q450.423 174.199 447.553 174.199 L444.15 174.199 L444.15 170.634 L446.65 170.634 Q448.41 170.634 449.382 169.8 Q450.354 168.967 451.535 165.865 L452.298 163.921 L441.812 138.412 L446.326 138.412 L454.428 158.689 L462.53 138.412 L467.044 138.412 L455.655 166.745 Z" fill="#000000" fill-rule="nonzero" fill-opacity="1" /><path clip-path="url(#clip260)" d="M474.011 158.458 L478.896 158.458 L478.896 162.439 L475.099 169.847 L472.113 169.847 L474.011 162.439 L474.011 158.458 Z" fill="#000000" fill-rule="nonzero" fill-opacity="1" /><path clip-path="url(#clip260)" d="M509.544 138.412 L500.169 151.027 L510.03 164.338 L505.007 164.338 L497.46 154.152 L489.914 164.338 L484.891 164.338 L494.96 150.773 L485.747 138.412 L490.77 138.412 L497.645 147.648 L504.52 138.412 L509.544 138.412 Z" fill="#000000" fill-rule="nonzero" fill-opacity="1" /><path clip-path="url(#clip260)" d="M515.377 128.366 L519.081 128.366 Q522.553 133.828 524.266 139.06 Q526.002 144.291 526.002 149.453 Q526.002 154.639 524.266 159.893 Q522.553 165.148 519.081 170.588 L515.377 170.588 Q518.456 165.287 519.96 160.055 Q521.488 154.801 521.488 149.453 Q521.488 144.106 519.96 138.898 Q518.456 133.69 515.377 128.366 Z" fill="#000000" fill-rule="nonzero" fill-opacity="1" /></svg>
