<?xml version="1.0" encoding="utf-8"?>
<svg xmlns="http://www.w3.org/2000/svg" xmlns:xlink="http://www.w3.org/1999/xlink" width="600" height="400" viewBox="0 0 2400 1600">
<defs>
  <clipPath id="clip790">
    <rect x="0" y="0" width="2400" height="1600"/>
  </clipPath>
</defs>
<path clip-path="url(#clip790)" d="M0 1600 L2400 1600 L2400 0 L0 0  Z" fill="#ffffff" fill-rule="evenodd" fill-opacity="1"/>
<defs>
  <clipPath id="clip791">
    <rect x="112" y="47" width="2242" height="1440"/>
  </clipPath>
</defs>
<path clip-path="url(#clip791)" d="M-424.053 2172.71 L-424.053 1947.14 L-130.403 1834.35 L378.214 1899.47 L378.214 2125.04 L84.564 2237.83 L-424.053 2172.71  Z" fill="#ffffff" fill-rule="evenodd" fill-opacity="1"/>
<polyline clip-path="url(#clip791)" style="stroke:#000000; stroke-linecap:round; stroke-linejoin:round; stroke-width:2; stroke-opacity:0.1; fill:none" points="748.7,1226.86 1164.16,867.062 1164.16,147.46 "/>
<polyline clip-path="url(#clip791)" style="stroke:#000000; stroke-linecap:round; stroke-linejoin:round; stroke-width:2; stroke-opacity:0.1; fill:none" points="875.854,1263.57 1291.32,903.768 1291.32,184.166 "/>
<polyline clip-path="url(#clip791)" style="stroke:#000000; stroke-linecap:round; stroke-linejoin:round; stroke-width:2; stroke-opacity:0.1; fill:none" points="1003.01,1300.28 1418.47,940.474 1418.47,220.873 "/>
<polyline clip-path="url(#clip791)" style="stroke:#000000; stroke-linecap:round; stroke-linejoin:round; stroke-width:2; stroke-opacity:0.1; fill:none" points="1130.16,1336.98 1545.63,977.181 1545.63,257.579 "/>
<polyline clip-path="url(#clip791)" style="stroke:#000000; stroke-linecap:round; stroke-linejoin:round; stroke-width:2; stroke-opacity:0.1; fill:none" points="1257.32,1373.69 1672.78,1013.89 1672.78,294.285 "/>
<polyline clip-path="url(#clip791)" style="stroke:#000000; stroke-linecap:round; stroke-linejoin:round; stroke-width:2; stroke-opacity:0.1; fill:none" points="1384.47,1410.39 1799.93,1050.59 1799.93,330.991 "/>
<polyline clip-path="url(#clip791)" style="stroke:#000000; stroke-linecap:round; stroke-linejoin:round; stroke-width:2; stroke-opacity:0.1; fill:none" points="1421.22,1378.64 701.618,1170.91 701.618,451.311 "/>
<polyline clip-path="url(#clip791)" style="stroke:#000000; stroke-linecap:round; stroke-linejoin:round; stroke-width:2; stroke-opacity:0.1; fill:none" points="1486.34,1322.25 766.735,1114.52 766.735,394.918 "/>
<polyline clip-path="url(#clip791)" style="stroke:#000000; stroke-linecap:round; stroke-linejoin:round; stroke-width:2; stroke-opacity:0.1; fill:none" points="1551.45,1265.86 831.852,1058.13 831.852,338.525 "/>
<polyline clip-path="url(#clip791)" style="stroke:#000000; stroke-linecap:round; stroke-linejoin:round; stroke-width:2; stroke-opacity:0.1; fill:none" points="1616.57,1209.46 896.97,1001.73 896.97,282.132 "/>
<polyline clip-path="url(#clip791)" style="stroke:#000000; stroke-linecap:round; stroke-linejoin:round; stroke-width:2; stroke-opacity:0.1; fill:none" points="1681.69,1153.07 962.087,945.34 962.087,225.738 "/>
<polyline clip-path="url(#clip791)" style="stroke:#000000; stroke-linecap:round; stroke-linejoin:round; stroke-width:2; stroke-opacity:0.1; fill:none" points="1746.81,1096.68 1027.2,888.947 1027.2,169.345 "/>
<polyline clip-path="url(#clip791)" style="stroke:#000000; stroke-linecap:round; stroke-linejoin:round; stroke-width:2; stroke-opacity:0.1; fill:none" points="664.934,1123.51 1080.4,763.708 1800,971.439 "/>
<polyline clip-path="url(#clip791)" style="stroke:#000000; stroke-linecap:round; stroke-linejoin:round; stroke-width:2; stroke-opacity:0.1; fill:none" points="664.934,1024.22 1080.4,664.421 1800,872.152 "/>
<polyline clip-path="url(#clip791)" style="stroke:#000000; stroke-linecap:round; stroke-linejoin:round; stroke-width:2; stroke-opacity:0.1; fill:none" points="664.934,924.934 1080.4,565.133 1800,772.864 "/>
<polyline clip-path="url(#clip791)" style="stroke:#000000; stroke-linecap:round; stroke-linejoin:round; stroke-width:2; stroke-opacity:0.1; fill:none" points="664.934,825.646 1080.4,465.846 1800,673.577 "/>
<polyline clip-path="url(#clip791)" style="stroke:#000000; stroke-linecap:round; stroke-linejoin:round; stroke-width:2; stroke-opacity:0.1; fill:none" points="664.934,726.359 1080.4,366.558 1800,574.289 "/>
<polyline clip-path="url(#clip791)" style="stroke:#000000; stroke-linecap:round; stroke-linejoin:round; stroke-width:2; stroke-opacity:0.1; fill:none" points="664.934,627.071 1080.4,267.27 1800,475.002 "/>
<polyline clip-path="url(#clip791)" style="stroke:#000000; stroke-linecap:round; stroke-linejoin:round; stroke-width:2; stroke-opacity:0.1; fill:none" points="664.934,527.784 1080.4,167.983 1800,375.714 "/>
<polyline clip-path="url(#clip790)" style="stroke:#000000; stroke-linecap:round; stroke-linejoin:round; stroke-width:4; stroke-opacity:1; fill:none" points="664.934,1202.68 1384.54,1410.41 "/>
<polyline clip-path="url(#clip790)" style="stroke:#000000; stroke-linecap:round; stroke-linejoin:round; stroke-width:4; stroke-opacity:1; fill:none" points="748.7,1226.86 753.686,1222.55 "/>
<polyline clip-path="url(#clip790)" style="stroke:#000000; stroke-linecap:round; stroke-linejoin:round; stroke-width:4; stroke-opacity:1; fill:none" points="875.854,1263.57 880.84,1259.25 "/>
<polyline clip-path="url(#clip790)" style="stroke:#000000; stroke-linecap:round; stroke-linejoin:round; stroke-width:4; stroke-opacity:1; fill:none" points="1003.01,1300.28 1007.99,1295.96 "/>
<polyline clip-path="url(#clip790)" style="stroke:#000000; stroke-linecap:round; stroke-linejoin:round; stroke-width:4; stroke-opacity:1; fill:none" points="1130.16,1336.98 1135.15,1332.66 "/>
<polyline clip-path="url(#clip790)" style="stroke:#000000; stroke-linecap:round; stroke-linejoin:round; stroke-width:4; stroke-opacity:1; fill:none" points="1257.32,1373.69 1262.3,1369.37 "/>
<polyline clip-path="url(#clip790)" style="stroke:#000000; stroke-linecap:round; stroke-linejoin:round; stroke-width:4; stroke-opacity:1; fill:none" points="1384.47,1410.39 1389.46,1406.08 "/>
<path clip-path="url(#clip790)" d="M688.862 1241.23 Q685.251 1241.23 683.423 1244.79 Q681.617 1248.33 681.617 1255.46 Q681.617 1262.57 683.423 1266.14 Q685.251 1269.68 688.862 1269.68 Q692.497 1269.68 694.302 1266.14 Q696.131 1262.57 696.131 1255.46 Q696.131 1248.33 694.302 1244.79 Q692.497 1241.23 688.862 1241.23 M688.862 1237.52 Q694.673 1237.52 697.728 1242.13 Q700.807 1246.71 700.807 1255.46 Q700.807 1264.19 697.728 1268.8 Q694.673 1273.38 688.862 1273.38 Q683.052 1273.38 679.974 1268.8 Q676.918 1264.19 676.918 1255.46 Q676.918 1246.71 679.974 1242.13 Q683.052 1237.52 688.862 1237.52 Z" fill="#000000" fill-rule="nonzero" fill-opacity="1" /><path clip-path="url(#clip790)" d="M709.024 1266.83 L713.909 1266.83 L713.909 1272.71 L709.024 1272.71 L709.024 1266.83 Z" fill="#000000" fill-rule="nonzero" fill-opacity="1" /><path clip-path="url(#clip790)" d="M724.14 1238.15 L742.496 1238.15 L742.496 1242.08 L728.422 1242.08 L728.422 1250.56 Q729.441 1250.21 730.459 1250.05 Q731.478 1249.86 732.496 1249.86 Q738.283 1249.86 741.663 1253.03 Q745.043 1256.21 745.043 1261.62 Q745.043 1267.2 741.57 1270.3 Q738.098 1273.38 731.779 1273.38 Q729.603 1273.38 727.334 1273.01 Q725.089 1272.64 722.682 1271.9 L722.682 1267.2 Q724.765 1268.33 726.987 1268.89 Q729.209 1269.45 731.686 1269.45 Q735.691 1269.45 738.029 1267.34 Q740.367 1265.23 740.367 1261.62 Q740.367 1258.01 738.029 1255.9 Q735.691 1253.8 731.686 1253.8 Q729.811 1253.8 727.936 1254.21 Q726.084 1254.63 724.14 1255.51 L724.14 1238.15 Z" fill="#000000" fill-rule="nonzero" fill-opacity="1" /><path clip-path="url(#clip790)" d="M805.832 1305.48 L813.47 1305.48 L813.47 1279.12 L805.16 1280.78 L805.16 1276.52 L813.424 1274.86 L818.1 1274.86 L818.1 1305.48 L825.739 1305.48 L825.739 1309.42 L805.832 1309.42 L805.832 1305.48 Z" fill="#000000" fill-rule="nonzero" fill-opacity="1" /><path clip-path="url(#clip790)" d="M835.183 1303.54 L840.067 1303.54 L840.067 1309.42 L835.183 1309.42 L835.183 1303.54 Z" fill="#000000" fill-rule="nonzero" fill-opacity="1" /><path clip-path="url(#clip790)" d="M860.253 1277.93 Q856.641 1277.93 854.813 1281.5 Q853.007 1285.04 853.007 1292.17 Q853.007 1299.28 854.813 1302.84 Q856.641 1306.38 860.253 1306.38 Q863.887 1306.38 865.692 1302.84 Q867.521 1299.28 867.521 1292.17 Q867.521 1285.04 865.692 1281.5 Q863.887 1277.93 860.253 1277.93 M860.253 1274.23 Q866.063 1274.23 869.118 1278.84 Q872.197 1283.42 872.197 1292.17 Q872.197 1300.9 869.118 1305.5 Q866.063 1310.09 860.253 1310.09 Q854.442 1310.09 851.364 1305.5 Q848.308 1300.9 848.308 1292.17 Q848.308 1283.42 851.364 1278.84 Q854.442 1274.23 860.253 1274.23 Z" fill="#000000" fill-rule="nonzero" fill-opacity="1" /><path clip-path="url(#clip790)" d="M933.981 1342.19 L941.62 1342.19 L941.62 1315.82 L933.31 1317.49 L933.31 1313.23 L941.574 1311.56 L946.25 1311.56 L946.25 1342.19 L953.888 1342.19 L953.888 1346.12 L933.981 1346.12 L933.981 1342.19 Z" fill="#000000" fill-rule="nonzero" fill-opacity="1" /><path clip-path="url(#clip790)" d="M963.333 1340.24 L968.217 1340.24 L968.217 1346.12 L963.333 1346.12 L963.333 1340.24 Z" fill="#000000" fill-rule="nonzero" fill-opacity="1" /><path clip-path="url(#clip790)" d="M978.448 1311.56 L996.805 1311.56 L996.805 1315.5 L982.731 1315.5 L982.731 1323.97 Q983.749 1323.62 984.768 1323.46 Q985.786 1323.28 986.805 1323.28 Q992.592 1323.28 995.972 1326.45 Q999.351 1329.62 999.351 1335.03 Q999.351 1340.61 995.879 1343.71 Q992.407 1346.79 986.087 1346.79 Q983.911 1346.79 981.643 1346.42 Q979.398 1346.05 976.99 1345.31 L976.99 1340.61 Q979.073 1341.75 981.296 1342.3 Q983.518 1342.86 985.995 1342.86 Q989.999 1342.86 992.337 1340.75 Q994.675 1338.65 994.675 1335.03 Q994.675 1331.42 992.337 1329.32 Q989.999 1327.21 985.995 1327.21 Q984.12 1327.21 982.245 1327.63 Q980.393 1328.04 978.448 1328.92 L978.448 1311.56 Z" fill="#000000" fill-rule="nonzero" fill-opacity="1" /><path clip-path="url(#clip790)" d="M1063.36 1378.89 L1079.68 1378.89 L1079.68 1382.83 L1057.73 1382.83 L1057.73 1378.89 Q1060.39 1376.14 1064.98 1371.51 Q1069.58 1366.86 1070.76 1365.51 Q1073.01 1362.99 1073.89 1361.25 Q1074.79 1359.5 1074.79 1357.81 Q1074.79 1355.05 1072.85 1353.31 Q1070.93 1351.58 1067.83 1351.58 Q1065.63 1351.58 1063.17 1352.34 Q1060.74 1353.11 1057.96 1354.66 L1057.96 1349.94 Q1060.79 1348.8 1063.24 1348.22 Q1065.7 1347.64 1067.73 1347.64 Q1073.1 1347.64 1076.3 1350.33 Q1079.49 1353.01 1079.49 1357.5 Q1079.49 1359.63 1078.68 1361.56 Q1077.89 1363.45 1075.79 1366.05 Q1075.21 1366.72 1072.11 1369.94 Q1069.01 1373.13 1063.36 1378.89 Z" fill="#000000" fill-rule="nonzero" fill-opacity="1" /><path clip-path="url(#clip790)" d="M1089.49 1376.95 L1094.38 1376.95 L1094.38 1382.83 L1089.49 1382.83 L1089.49 1376.95 Z" fill="#000000" fill-rule="nonzero" fill-opacity="1" /><path clip-path="url(#clip790)" d="M1114.56 1351.35 Q1110.95 1351.35 1109.12 1354.91 Q1107.32 1358.45 1107.32 1365.58 Q1107.32 1372.69 1109.12 1376.25 Q1110.95 1379.8 1114.56 1379.8 Q1118.2 1379.8 1120 1376.25 Q1121.83 1372.69 1121.83 1365.58 Q1121.83 1358.45 1120 1354.91 Q1118.2 1351.35 1114.56 1351.35 M1114.56 1347.64 Q1120.37 1347.64 1123.43 1352.25 Q1126.51 1356.83 1126.51 1365.58 Q1126.51 1374.31 1123.43 1378.92 Q1120.37 1383.5 1114.56 1383.5 Q1108.75 1383.5 1105.67 1378.92 Q1102.62 1374.31 1102.62 1365.58 Q1102.62 1356.83 1105.67 1352.25 Q1108.75 1347.64 1114.56 1347.64 Z" fill="#000000" fill-rule="nonzero" fill-opacity="1" /><path clip-path="url(#clip790)" d="M1191.51 1415.6 L1207.83 1415.6 L1207.83 1419.53 L1185.88 1419.53 L1185.88 1415.6 Q1188.54 1412.84 1193.13 1408.22 Q1197.73 1403.56 1198.91 1402.22 Q1201.16 1399.7 1202.04 1397.96 Q1202.94 1396.2 1202.94 1394.51 Q1202.94 1391.76 1201 1390.02 Q1199.08 1388.28 1195.97 1388.28 Q1193.78 1388.28 1191.32 1389.05 Q1188.89 1389.81 1186.11 1391.36 L1186.11 1386.64 Q1188.94 1385.51 1191.39 1384.93 Q1193.85 1384.35 1195.88 1384.35 Q1201.25 1384.35 1204.45 1387.03 Q1207.64 1389.72 1207.64 1394.21 Q1207.64 1396.34 1206.83 1398.26 Q1206.04 1400.16 1203.94 1402.75 Q1203.36 1403.42 1200.26 1406.64 Q1197.16 1409.84 1191.51 1415.6 Z" fill="#000000" fill-rule="nonzero" fill-opacity="1" /><path clip-path="url(#clip790)" d="M1217.64 1413.66 L1222.53 1413.66 L1222.53 1419.53 L1217.64 1419.53 L1217.64 1413.66 Z" fill="#000000" fill-rule="nonzero" fill-opacity="1" /><path clip-path="url(#clip790)" d="M1232.76 1384.97 L1251.11 1384.97 L1251.11 1388.91 L1237.04 1388.91 L1237.04 1397.38 Q1238.06 1397.03 1239.08 1396.87 Q1240.09 1396.69 1241.11 1396.69 Q1246.9 1396.69 1250.28 1399.86 Q1253.66 1403.03 1253.66 1408.45 Q1253.66 1414.03 1250.19 1417.13 Q1246.72 1420.21 1240.4 1420.21 Q1238.22 1420.21 1235.95 1419.84 Q1233.71 1419.47 1231.3 1418.72 L1231.3 1414.03 Q1233.38 1415.16 1235.6 1415.72 Q1237.83 1416.27 1240.3 1416.27 Q1244.31 1416.27 1246.65 1414.16 Q1248.98 1412.06 1248.98 1408.45 Q1248.98 1404.84 1246.65 1402.73 Q1244.31 1400.62 1240.3 1400.62 Q1238.43 1400.62 1236.55 1401.04 Q1234.7 1401.46 1232.76 1402.34 L1232.76 1384.97 Z" fill="#000000" fill-rule="nonzero" fill-opacity="1" /><path clip-path="url(#clip790)" d="M1327.8 1437.61 Q1331.16 1438.32 1333.04 1440.59 Q1334.93 1442.86 1334.93 1446.19 Q1334.93 1451.31 1331.42 1454.11 Q1327.9 1456.91 1321.42 1456.91 Q1319.24 1456.91 1316.93 1456.47 Q1314.63 1456.06 1312.18 1455.2 L1312.18 1450.69 Q1314.12 1451.82 1316.44 1452.4 Q1318.75 1452.98 1321.28 1452.98 Q1325.68 1452.98 1327.97 1451.24 Q1330.28 1449.5 1330.28 1446.19 Q1330.28 1443.14 1328.13 1441.43 Q1326 1439.69 1322.18 1439.69 L1318.15 1439.69 L1318.15 1435.85 L1322.37 1435.85 Q1325.81 1435.85 1327.64 1434.48 Q1329.47 1433.09 1329.47 1430.5 Q1329.47 1427.84 1327.57 1426.43 Q1325.7 1424.99 1322.18 1424.99 Q1320.26 1424.99 1318.06 1425.41 Q1315.86 1425.82 1313.22 1426.7 L1313.22 1422.54 Q1315.88 1421.8 1318.2 1421.43 Q1320.54 1421.06 1322.6 1421.06 Q1327.92 1421.06 1331.02 1423.49 Q1334.12 1425.89 1334.12 1430.01 Q1334.12 1432.88 1332.48 1434.88 Q1330.84 1436.84 1327.8 1437.61 Z" fill="#000000" fill-rule="nonzero" fill-opacity="1" /><path clip-path="url(#clip790)" d="M1343.8 1450.36 L1348.68 1450.36 L1348.68 1456.24 L1343.8 1456.24 L1343.8 1450.36 Z" fill="#000000" fill-rule="nonzero" fill-opacity="1" /><path clip-path="url(#clip790)" d="M1368.87 1424.76 Q1365.26 1424.76 1363.43 1428.32 Q1361.62 1431.87 1361.62 1439 Q1361.62 1446.1 1363.43 1449.67 Q1365.26 1453.21 1368.87 1453.21 Q1372.5 1453.21 1374.31 1449.67 Q1376.14 1446.1 1376.14 1439 Q1376.14 1431.87 1374.31 1428.32 Q1372.5 1424.76 1368.87 1424.76 M1368.87 1421.06 Q1374.68 1421.06 1377.74 1425.66 Q1380.81 1430.25 1380.81 1439 Q1380.81 1447.72 1377.74 1452.33 Q1374.68 1456.91 1368.87 1456.91 Q1363.06 1456.91 1359.98 1452.33 Q1356.93 1447.72 1356.93 1439 Q1356.93 1430.25 1359.98 1425.66 Q1363.06 1421.06 1368.87 1421.06 Z" fill="#000000" fill-rule="nonzero" fill-opacity="1" /><polyline clip-path="url(#clip790)" style="stroke:#000000; stroke-linecap:round; stroke-linejoin:round; stroke-width:4; stroke-opacity:1; fill:none" points="1384.54,1410.41 1800,1050.61 "/>
<polyline clip-path="url(#clip790)" style="stroke:#000000; stroke-linecap:round; stroke-linejoin:round; stroke-width:4; stroke-opacity:1; fill:none" points="1421.22,1378.64 1412.58,1376.15 "/>
<polyline clip-path="url(#clip790)" style="stroke:#000000; stroke-linecap:round; stroke-linejoin:round; stroke-width:4; stroke-opacity:1; fill:none" points="1486.34,1322.25 1477.7,1319.76 "/>
<polyline clip-path="url(#clip790)" style="stroke:#000000; stroke-linecap:round; stroke-linejoin:round; stroke-width:4; stroke-opacity:1; fill:none" points="1551.45,1265.86 1542.82,1263.36 "/>
<polyline clip-path="url(#clip790)" style="stroke:#000000; stroke-linecap:round; stroke-linejoin:round; stroke-width:4; stroke-opacity:1; fill:none" points="1616.57,1209.46 1607.94,1206.97 "/>
<polyline clip-path="url(#clip790)" style="stroke:#000000; stroke-linecap:round; stroke-linejoin:round; stroke-width:4; stroke-opacity:1; fill:none" points="1681.69,1153.07 1673.05,1150.58 "/>
<polyline clip-path="url(#clip790)" style="stroke:#000000; stroke-linecap:round; stroke-linejoin:round; stroke-width:4; stroke-opacity:1; fill:none" points="1746.81,1096.68 1738.17,1094.19 "/>
<path clip-path="url(#clip790)" d="M1447.17 1404.17 Q1450.53 1404.89 1452.4 1407.16 Q1454.3 1409.43 1454.3 1412.76 Q1454.3 1417.88 1450.78 1420.68 Q1447.26 1423.48 1440.78 1423.48 Q1438.61 1423.48 1436.29 1423.04 Q1434 1422.62 1431.55 1421.77 L1431.55 1417.25 Q1433.49 1418.39 1435.81 1418.97 Q1438.12 1419.55 1440.64 1419.55 Q1445.04 1419.55 1447.33 1417.81 Q1449.65 1416.07 1449.65 1412.76 Q1449.65 1409.71 1447.5 1407.99 Q1445.37 1406.26 1441.55 1406.26 L1437.52 1406.26 L1437.52 1402.42 L1441.73 1402.42 Q1445.18 1402.42 1447.01 1401.05 Q1448.84 1399.66 1448.84 1397.07 Q1448.84 1394.41 1446.94 1392.99 Q1445.06 1391.56 1441.55 1391.56 Q1439.62 1391.56 1437.43 1391.98 Q1435.23 1392.39 1432.59 1393.27 L1432.59 1389.11 Q1435.25 1388.36 1437.56 1387.99 Q1439.9 1387.62 1441.96 1387.62 Q1447.29 1387.62 1450.39 1390.05 Q1453.49 1392.46 1453.49 1396.58 Q1453.49 1399.45 1451.85 1401.44 Q1450.2 1403.41 1447.17 1404.17 Z" fill="#000000" fill-rule="nonzero" fill-opacity="1" /><path clip-path="url(#clip790)" d="M1512.27 1335.93 L1500.46 1354.38 L1512.27 1354.38 L1512.27 1335.93 M1511.04 1331.86 L1516.92 1331.86 L1516.92 1354.38 L1521.85 1354.38 L1521.85 1358.27 L1516.92 1358.27 L1516.92 1366.42 L1512.27 1366.42 L1512.27 1358.27 L1496.66 1358.27 L1496.66 1353.75 L1511.04 1331.86 Z" fill="#000000" fill-rule="nonzero" fill-opacity="1" /><path clip-path="url(#clip790)" d="M1563.24 1275.46 L1581.6 1275.46 L1581.6 1279.4 L1567.52 1279.4 L1567.52 1287.87 Q1568.54 1287.52 1569.56 1287.36 Q1570.58 1287.18 1571.6 1287.18 Q1577.38 1287.18 1580.76 1290.35 Q1584.14 1293.52 1584.14 1298.93 Q1584.14 1304.51 1580.67 1307.62 Q1577.2 1310.69 1570.88 1310.69 Q1568.7 1310.69 1566.43 1310.32 Q1564.19 1309.95 1561.78 1309.21 L1561.78 1304.51 Q1563.86 1305.65 1566.09 1306.2 Q1568.31 1306.76 1570.79 1306.76 Q1574.79 1306.76 1577.13 1304.65 Q1579.47 1302.55 1579.47 1298.93 Q1579.47 1295.32 1577.13 1293.22 Q1574.79 1291.11 1570.79 1291.11 Q1568.91 1291.11 1567.04 1291.53 Q1565.18 1291.94 1563.24 1292.82 L1563.24 1275.46 Z" fill="#000000" fill-rule="nonzero" fill-opacity="1" /><path clip-path="url(#clip790)" d="M1639.24 1234.49 Q1636.09 1234.49 1634.24 1236.64 Q1632.41 1238.79 1632.41 1242.54 Q1632.41 1246.27 1634.24 1248.44 Q1636.09 1250.6 1639.24 1250.6 Q1642.38 1250.6 1644.21 1248.44 Q1646.06 1246.27 1646.06 1242.54 Q1646.06 1238.79 1644.21 1236.64 Q1642.38 1234.49 1639.24 1234.49 M1648.52 1219.83 L1648.52 1224.09 Q1646.76 1223.26 1644.95 1222.82 Q1643.17 1222.38 1641.41 1222.38 Q1636.78 1222.38 1634.33 1225.5 Q1631.9 1228.63 1631.55 1234.95 Q1632.92 1232.94 1634.98 1231.87 Q1637.04 1230.78 1639.51 1230.78 Q1644.72 1230.78 1647.73 1233.95 Q1650.76 1237.1 1650.76 1242.54 Q1650.76 1247.87 1647.62 1251.08 Q1644.47 1254.3 1639.24 1254.3 Q1633.24 1254.3 1630.07 1249.72 Q1626.9 1245.11 1626.9 1236.38 Q1626.9 1228.19 1630.79 1223.33 Q1634.68 1218.44 1641.23 1218.44 Q1642.99 1218.44 1644.77 1218.79 Q1646.57 1219.14 1648.52 1219.83 Z" fill="#000000" fill-rule="nonzero" fill-opacity="1" /><path clip-path="url(#clip790)" d="M1692.01 1162.68 L1714.24 1162.68 L1714.24 1164.67 L1701.69 1197.24 L1696.81 1197.24 L1708.61 1166.61 L1692.01 1166.61 L1692.01 1162.68 Z" fill="#000000" fill-rule="nonzero" fill-opacity="1" /><path clip-path="url(#clip790)" d="M1768.98 1124.43 Q1765.65 1124.43 1763.73 1126.21 Q1761.83 1128 1761.83 1131.12 Q1761.83 1134.25 1763.73 1136.03 Q1765.65 1137.81 1768.98 1137.81 Q1772.32 1137.81 1774.24 1136.03 Q1776.16 1134.22 1776.16 1131.12 Q1776.16 1128 1774.24 1126.21 Q1772.34 1124.43 1768.98 1124.43 M1764.31 1122.44 Q1761.3 1121.7 1759.61 1119.64 Q1757.94 1117.58 1757.94 1114.62 Q1757.94 1110.47 1760.88 1108.07 Q1763.85 1105.66 1768.98 1105.66 Q1774.15 1105.66 1777.09 1108.07 Q1780.03 1110.47 1780.03 1114.62 Q1780.03 1117.58 1778.34 1119.64 Q1776.67 1121.7 1773.68 1122.44 Q1777.06 1123.23 1778.94 1125.52 Q1780.84 1127.81 1780.84 1131.12 Q1780.84 1136.14 1777.76 1138.83 Q1774.7 1141.51 1768.98 1141.51 Q1763.27 1141.51 1760.19 1138.83 Q1757.13 1136.14 1757.13 1131.12 Q1757.13 1127.81 1759.03 1125.52 Q1760.93 1123.23 1764.31 1122.44 M1762.6 1115.06 Q1762.6 1117.74 1764.26 1119.25 Q1765.95 1120.75 1768.98 1120.75 Q1771.99 1120.75 1773.68 1119.25 Q1775.4 1117.74 1775.4 1115.06 Q1775.4 1112.37 1773.68 1110.87 Q1771.99 1109.36 1768.98 1109.36 Q1765.95 1109.36 1764.26 1110.87 Q1762.6 1112.37 1762.6 1115.06 Z" fill="#000000" fill-rule="nonzero" fill-opacity="1" /><polyline clip-path="url(#clip790)" style="stroke:#000000; stroke-linecap:round; stroke-linejoin:round; stroke-width:4; stroke-opacity:1; fill:none" points="664.934,1202.68 664.934,483.08 "/>
<polyline clip-path="url(#clip790)" style="stroke:#000000; stroke-linecap:round; stroke-linejoin:round; stroke-width:4; stroke-opacity:1; fill:none" points="664.934,1123.51 669.92,1119.19 "/>
<polyline clip-path="url(#clip790)" style="stroke:#000000; stroke-linecap:round; stroke-linejoin:round; stroke-width:4; stroke-opacity:1; fill:none" points="664.934,1024.22 669.92,1019.9 "/>
<polyline clip-path="url(#clip790)" style="stroke:#000000; stroke-linecap:round; stroke-linejoin:round; stroke-width:4; stroke-opacity:1; fill:none" points="664.934,924.934 669.92,920.616 "/>
<polyline clip-path="url(#clip790)" style="stroke:#000000; stroke-linecap:round; stroke-linejoin:round; stroke-width:4; stroke-opacity:1; fill:none" points="664.934,825.646 669.92,821.329 "/>
<polyline clip-path="url(#clip790)" style="stroke:#000000; stroke-linecap:round; stroke-linejoin:round; stroke-width:4; stroke-opacity:1; fill:none" points="664.934,726.359 669.92,722.041 "/>
<polyline clip-path="url(#clip790)" style="stroke:#000000; stroke-linecap:round; stroke-linejoin:round; stroke-width:4; stroke-opacity:1; fill:none" points="664.934,627.071 669.92,622.754 "/>
<polyline clip-path="url(#clip790)" style="stroke:#000000; stroke-linecap:round; stroke-linejoin:round; stroke-width:4; stroke-opacity:1; fill:none" points="664.934,527.784 669.92,523.466 "/>
<path clip-path="url(#clip790)" d="M629.005 1122.16 Q632.361 1122.87 634.236 1125.14 Q636.134 1127.41 636.134 1130.74 Q636.134 1135.86 632.616 1138.66 Q629.097 1141.46 622.616 1141.46 Q620.44 1141.46 618.125 1141.02 Q615.834 1140.6 613.38 1139.75 L613.38 1135.23 Q615.324 1136.37 617.639 1136.95 Q619.954 1137.53 622.477 1137.53 Q626.875 1137.53 629.167 1135.79 Q631.482 1134.05 631.482 1130.74 Q631.482 1127.69 629.329 1125.97 Q627.199 1124.24 623.38 1124.24 L619.352 1124.24 L619.352 1120.4 L623.565 1120.4 Q627.014 1120.4 628.843 1119.03 Q630.671 1117.64 630.671 1115.05 Q630.671 1112.39 628.773 1110.97 Q626.898 1109.54 623.38 1109.54 Q621.459 1109.54 619.26 1109.96 Q617.06 1110.37 614.422 1111.25 L614.422 1107.09 Q617.084 1106.34 619.398 1105.97 Q621.736 1105.6 623.797 1105.6 Q629.121 1105.6 632.222 1108.03 Q635.324 1110.44 635.324 1114.56 Q635.324 1117.43 633.681 1119.42 Q632.037 1121.39 629.005 1122.16 Z" fill="#000000" fill-rule="nonzero" fill-opacity="1" /><path clip-path="url(#clip790)" d="M626.551 1011.02 L614.746 1029.46 L626.551 1029.46 L626.551 1011.02 M625.324 1006.94 L631.204 1006.94 L631.204 1029.46 L636.134 1029.46 L636.134 1033.35 L631.204 1033.35 L631.204 1041.5 L626.551 1041.5 L626.551 1033.35 L610.949 1033.35 L610.949 1028.84 L625.324 1006.94 Z" fill="#000000" fill-rule="nonzero" fill-opacity="1" /><path clip-path="url(#clip790)" d="M615.232 907.654 L633.588 907.654 L633.588 911.589 L619.514 911.589 L619.514 920.061 Q620.533 919.714 621.551 919.552 Q622.57 919.367 623.588 919.367 Q629.375 919.367 632.755 922.538 Q636.134 925.709 636.134 931.126 Q636.134 936.705 632.662 939.807 Q629.19 942.885 622.871 942.885 Q620.695 942.885 618.426 942.515 Q616.181 942.145 613.773 941.404 L613.773 936.705 Q615.857 937.839 618.079 938.395 Q620.301 938.95 622.778 938.95 Q626.783 938.95 629.121 936.844 Q631.459 934.737 631.459 931.126 Q631.459 927.515 629.121 925.409 Q626.783 923.302 622.778 923.302 Q620.903 923.302 619.028 923.719 Q617.176 924.135 615.232 925.015 L615.232 907.654 Z" fill="#000000" fill-rule="nonzero" fill-opacity="1" /><path clip-path="url(#clip790)" d="M624.607 823.783 Q621.459 823.783 619.607 825.936 Q617.778 828.089 617.778 831.839 Q617.778 835.565 619.607 837.741 Q621.459 839.894 624.607 839.894 Q627.755 839.894 629.584 837.741 Q631.435 835.565 631.435 831.839 Q631.435 828.089 629.584 825.936 Q627.755 823.783 624.607 823.783 M633.889 809.13 L633.889 813.39 Q632.13 812.556 630.324 812.116 Q628.542 811.677 626.783 811.677 Q622.153 811.677 619.699 814.802 Q617.269 817.927 616.922 824.246 Q618.287 822.232 620.347 821.167 Q622.408 820.079 624.884 820.079 Q630.093 820.079 633.102 823.251 Q636.134 826.399 636.134 831.839 Q636.134 837.163 632.986 840.38 Q629.838 843.598 624.607 843.598 Q618.611 843.598 615.44 839.014 Q612.269 834.408 612.269 825.681 Q612.269 817.487 616.158 812.626 Q620.047 807.741 626.597 807.741 Q628.357 807.741 630.139 808.089 Q631.945 808.436 633.889 809.13 Z" fill="#000000" fill-rule="nonzero" fill-opacity="1" /><path clip-path="url(#clip790)" d="M613.912 709.079 L636.134 709.079 L636.134 711.07 L623.588 743.639 L618.704 743.639 L630.509 713.014 L613.912 713.014 L613.912 709.079 Z" fill="#000000" fill-rule="nonzero" fill-opacity="1" /><path clip-path="url(#clip790)" d="M624.283 627.939 Q620.949 627.939 619.028 629.722 Q617.13 631.504 617.13 634.629 Q617.13 637.754 619.028 639.536 Q620.949 641.319 624.283 641.319 Q627.616 641.319 629.537 639.536 Q631.459 637.731 631.459 634.629 Q631.459 631.504 629.537 629.722 Q627.639 627.939 624.283 627.939 M619.607 625.949 Q616.597 625.208 614.908 623.148 Q613.241 621.088 613.241 618.125 Q613.241 613.981 616.181 611.574 Q619.144 609.166 624.283 609.166 Q629.445 609.166 632.384 611.574 Q635.324 613.981 635.324 618.125 Q635.324 621.088 633.634 623.148 Q631.968 625.208 628.982 625.949 Q632.361 626.736 634.236 629.027 Q636.134 631.319 636.134 634.629 Q636.134 639.652 633.056 642.337 Q630 645.023 624.283 645.023 Q618.565 645.023 615.486 642.337 Q612.431 639.652 612.431 634.629 Q612.431 631.319 614.329 629.027 Q616.227 626.736 619.607 625.949 M617.894 618.564 Q617.894 621.25 619.56 622.754 Q621.25 624.259 624.283 624.259 Q627.292 624.259 628.982 622.754 Q630.695 621.25 630.695 618.564 Q630.695 615.879 628.982 614.375 Q627.292 612.87 624.283 612.87 Q621.25 612.87 619.56 614.375 Q617.894 615.879 617.894 618.564 Z" fill="#000000" fill-rule="nonzero" fill-opacity="1" /><path clip-path="url(#clip790)" d="M614.514 544.346 L614.514 540.087 Q616.273 540.92 618.079 541.36 Q619.885 541.8 621.621 541.8 Q626.25 541.8 628.681 538.698 Q631.134 535.573 631.482 529.23 Q630.139 531.221 628.079 532.286 Q626.019 533.351 623.519 533.351 Q618.334 533.351 615.301 530.226 Q612.292 527.078 612.292 521.638 Q612.292 516.314 615.44 513.096 Q618.588 509.879 623.82 509.879 Q629.815 509.879 632.963 514.485 Q636.134 519.068 636.134 527.818 Q636.134 535.99 632.246 540.874 Q628.38 545.735 621.829 545.735 Q620.07 545.735 618.264 545.388 Q616.459 545.041 614.514 544.346 M623.82 529.693 Q626.968 529.693 628.796 527.541 Q630.648 525.388 630.648 521.638 Q630.648 517.911 628.796 515.758 Q626.968 513.582 623.82 513.582 Q620.672 513.582 618.82 515.758 Q616.991 517.911 616.991 521.638 Q616.991 525.388 618.82 527.541 Q620.672 529.693 623.82 529.693 Z" fill="#000000" fill-rule="nonzero" fill-opacity="1" /><polyline clip-path="url(#clip791)" style="stroke:#009af9; stroke-linecap:round; stroke-linejoin:round; stroke-width:4; stroke-opacity:1; fill:none" points="1042.77,841.266 1041.74,842.273 1044.19,839.114 1040.3,843.656 1040.77,842.862 1038.75,845.026 1036.1,847.92 1029.95,855.01 1032.43,851.482 1026.89,857.713 1033.66,848.887 1028.59,854.448 1017.54,867.147 1022.02,860.683 1021.92,859.725 1016.32,865.574 1034.97,841.817 1030.31,846.867 1011.05,869.466 977.995,907.423 984.322,896.445 995.259,879.987 979.735,897.181 981.833,891.704 972.044,900.884 982.144,886.453 962.009,909.208 973.044,894.073 956.06,913.968 952.998,913.932 963.512,898.824 1026.2,828.746 1031.18,831.207 1032.06,834.509 1072.54,797.714 1091.59,789.515 1111.38,770.801 1077.01,814.64 1073.89,819.112 1069.83,821.233 1054.84,832.94 1062.23,821.028 1118.03,773.657 1107.83,783.44 1219.96,689.581 1166.86,751.53 1225.47,696.98 1260.85,671.133 1278.11,655.126 1384.81,577.661 1325.34,643.403 1279.65,676.07 1180.97,756.27 1101.81,816.791 1094.52,810.411 1046.45,847.241 1071.6,805.526 1018.73,866.339 1014.19,863.634 1057.29,812.176 1034.13,843.384 1125.26,763.394 1173.67,715.529 1249.54,665.796 1304.03,628.149 1292.89,655.068 1247.17,693.09 1209.91,714.568 1195.74,731.921 1212.64,718.279 1189.79,730.383 1145.67,767.68 1079.04,820.353 1123.61,763.118 1138.92,756.457 1134.42,761.477 1118.18,781.232 1139.87,755.08 1129.92,763.24 1174.52,733.46 1133.4,775.777 1110.25,789.677 1127.59,770.006 1132.72,766.073 1161.61,742.768 1169.32,733.121 1264.74,655.091 1278.09,652.532 1216.36,717.114 1160.18,765.705 1265.81,651.87 1344.87,592.908 1328.62,622.061 1322.47,634.975 1336.38,623.882 1321.97,641.402 1296.27,656.145 1348.98,606.905 1323.36,639.019 1374.1,596.89 1289.19,668.014 1254.54,696.891 1239.11,696.626 1190.55,741.804 1223.17,699.355 1168.69,748.055 1183.02,727.725 1151.58,770.601 1097.96,809.173 1129.33,767.789 1215.32,684.165 1236.82,672.435 1167.29,746.433 1231.97,684.205 1276.71,649.181 1295.38,634.652 1248.74,682.406 1243.41,688.425 1333.68,605.937 1258.57,665.747 1293.39,652.504 1203.14,728.35 1125.43,783.434 1102.27,794.544 1077.3,816 1012.74,874.069 1034.77,845.23 1075.14,804.847 1030.09,850.915 1137.62,744.352 1109.18,782.721 1136.09,753.793 1212.99,700.544 1218.6,686.505 1321.53,622.891 1292.39,653.173 1358.06,598.796 1385.27,582.528 1391.22,587.08 1401.31,586.406 1266.9,708.471 1274.6,683.378 1297.39,647.755 1360.09,591.6 1404.01,568.634 1420.43,569.335 1447.88,556.394 1440.83,562.672 1399.82,594.428 1280.97,687.187 1267.96,684.878 1258.63,679.429 1303.34,630.198 1317.19,628.735 1268.59,676.26 1287.7,658.37 1333.83,622.76 1229.28,704.137 1259,672.959 1156.67,760.178 1190.86,714.537 1122.1,778.881 1210.36,689.362 1232.3,691.718 1204.98,715.104 1239.18,678.637 1297.86,662.033 1200.43,747.739 1204.65,726.99 1205.47,721.398 1174.9,742.488 1213.58,699.136 1189.49,718.755 1207.72,702.774 1152.27,750.117 1133,773.118 1151.34,749.501 1029.79,844.654 996.668,876.048 1037.11,835.028 1049.05,823.847 1022.2,852.475 1020.98,850.757 1041.57,819.631 1108.25,759.012 1125.89,747.741 1181.6,709.974 1297.4,626.825 1323.32,625.237 1348.01,613.522 1405.72,582.327 1353.49,629.179 1321.47,647.335 1293.21,659.245 1264.2,676.129 1140.26,773.376 1133.9,766.169 1209.56,692.378 1231.41,691.707 1164.81,758.338 1113.71,798.403 1145.14,755.799 1122.07,781.146 1093.11,807.162 1100.59,794.244 1084.27,805.795 1086.14,793.708 1105.58,773.092 1149.53,747.002 1082.47,816.655 1012.71,876.307 1005.89,872.171 1021.13,854.484 982.641,891.084 955.677,912.064 968.309,898.755 1089.83,772.062 1102.71,775.547 1091.24,794.903 1125.13,764.225 1150.11,743.644 1108.71,784.897 1124.7,767.503 1149.21,775.735 1206.39,713.063 1272.28,655.955 1288.17,656.661 1271.99,672.785 1307.01,644.509 1277.4,680.493 1316.26,634.175 1172.32,758.133 1144.88,766.468 1171.89,735.592 1127.66,771.92 1094.83,799.721 1097.62,787.43 1051.77,831.474 1104.04,788.374 1094.77,789.944 1081.67,825.168 1090.32,806.522 1037.25,857.194 1007.86,866.692 1015.18,856.366 1046.81,826.886 1019.07,851.064 1051.02,820.691 1044.1,839.706 1083.93,799.531 1028.09,854.088 983.283,890.88 1003.86,863.289 1031.68,834.06 980.185,888.567 1060.31,798.714 1114.64,754.228 1219.54,676.531 1183.5,724.539 1224.05,701.072 1251.46,681.648 1122.83,771.776 1160.28,738.873 1124.73,773.026 1109.06,785.205 1100.04,784.517 1141.92,758.15 1146.04,751.078 1294.79,621.357 1382.61,560.783 1363.94,599.851 1404.36,577.007 1424.02,565.253 1510.54,501.639 1412.98,583.403 1390.49,600.444 1384.9,608.731 1316.86,658.071 1317.2,647.149 1295.81,660.551 1205.41,728.385 1206.34,718.516 1226.08,696.865 1249.98,679.385 1277.23,653.895 1216.15,702.096 1193.41,720.666 1259.49,674.407 1365.63,575.856 1422.12,545.119 1440.16,554.372 1512.43,518.886 1474.44,550.33 1460.84,550.741 1434.07,563.5 1408.66,597.212 1322.56,662.843 1293.52,670.767 1302.26,652.163 1342.03,608.558 1267.78,689.114 1248.34,687.207 1278.48,659.852 1326.98,648.419 1305.18,653.799 1212.27,733.525 1176.26,757.287 1169.16,753.966 1192.29,730.604 1199.26,721.662 1112.93,798.479 1182.37,723.428 1228.51,685.678 1288.9,635.729 1289.11,648.598 1267.31,684.12 1336.3,623.384 1331.42,639.73 1402.95,575.187 1329.47,638.471 1442.8,563.744 1408.46,588.858 1429.06,560.489 1457.25,533.479 1376.16,599.569 1349.56,621.32 1375.98,606.588 1317.31,638.382 1315.97,635.91 1251.32,685.763 1245.17,691.472 1158.15,760.866 1137.69,765.363 1214.77,690.906 1187.52,722.44 1172.47,744.876 1137.05,779.694 1080.54,818.029 1063.35,828.455 1079.88,810.746 1145.44,742.819 1198.47,710.288 1211.23,706.457 1234.43,689.278 1219.54,701.759 1148.01,769.304 1125.08,779.874 1112.08,786.66 1100.05,799.552 1103.96,788.017 1158.61,741.914 1148.09,755.263 1152.59,752.379 1165.27,741.948 1139.21,753.463 1227.3,694.47 1324.42,609.836 1393.15,582.646 1447.38,547.923 1434.94,558.942 1451.41,556.05 1384.6,595.446 1388.03,583.713 1397.63,593.073 1313.5,659.772 1308.11,661.806 1220.87,722.105 1181,745.075 1160.49,758.915 1095.07,812.17 1089.84,802.813 1075.29,813.037 1067.97,817.297 1109.26,775.165 1106.65,781.995 1154.71,748.114 1158.97,744.295 1121.54,782.968 1150.86,745.627 1095.97,806.721 1028.86,860.197 1058.16,815.068 1047.68,831.611 1076.41,804.952 1148.24,742.29 1159.34,743.875 1127.56,768.199 1147.94,745.008 1060.73,812.879 1050.23,821.188 1124.28,754.545 1104.35,783.23 1042.78,842.257 1032,848.222 988.469,882.62 1038.16,825.408 1029.13,846.088 952.994,920.689 911.026,952.355 951.479,915.498 896.669,970.311 906.816,950.553 948.311,909.751 950.522,909.438 888.557,968.724 908.677,946.742 953.472,905.998 965.349,899.879 904.858,953.251 919.24,934.926 958.347,894.936 966.907,889.939 1009.91,856.334 1036.39,832.304 1047.28,839.896 1036.24,838.307 1053.5,828.728 974.253,896.84 1030.96,829.756 1099.98,766.073 1157.75,740.309 1194.37,710.586 1209.92,702.209 1382.52,562.691 1378.92,594.817 1451.3,541.649 1387.69,603.261 1301.39,669.766 1330.79,631.002 1226.19,716.802 1222.23,706.914 1200.41,722.237 1114.35,794.592 1081.64,814.888 1039.16,848.056 1039.86,839.488 1019.97,850.124 1042.41,826.266 1087.91,792.27 1081.26,807.483 1109.95,779.423 1134.92,752.359 1119.49,767.595 1147.84,742.74 1122.57,758.905 1174.33,729.559 1209.84,700.864 1150.06,736.055 1011.31,863.649 922.929,941.564 946.728,911.025 994.978,866.984 1017.29,855.346 1050.69,819.905 1077.57,801.248 1059.96,821.885 1056.85,832.923 1110.92,778.293 1068.96,802.65 1084.21,775.166 1133.42,746.6 1120.72,776.025 1172.85,724.597 1220.77,676.591 1190.69,711.569 1248.47,666.633 1254.43,681.383 1254.2,687.968 1190.72,732.241 1174.11,740.481 1268.95,661.386 1303.33,644.194 1250.5,692.623 1203.94,706.459 1169.75,740.475 1143.23,762.233 1208.97,695.14 1328.74,600.753 1383.11,577.281 1359.92,616.119 1317.46,641.288 1349.62,621.279 1354.65,623.297 1276.17,672.769 1340.59,615.425 1309.07,646.285 1315.59,644.499 1267.72,681.431 1296.31,661.156 1378.29,594.485 1361.92,610.841 1367.38,602.11 1358.3,601.105 1289,661.036 1333.82,617.108 1267.16,680.689 1251.44,690.333 1265.51,696.453 1295.55,663.288 1284.63,654.719 1387.42,570.884 1400.02,581.778 1415.57,570.287 1426.7,561.945 1427.23,551.029 1424.51,567.017 1473.55,539.13 1425.59,577.895 1434.92,579.091 1439.62,568.654 1448.01,556.277 1522.78,514.338 1481.29,542.711 1440.68,575.764 1388.73,598.466 1313.36,663.283 1242.79,714.031 1216.49,723.463 1189.46,739.295 1160.44,754.952 1210.23,696.597 1235.21,678.789 1284.29,638.233 1182.12,744.359 1127.42,780.954 1071.47,830.147 1131.98,755.298 1123.6,760.028 1144.42,754.777 1150.96,750.771 1129.54,766.794 1046.58,851.194 1038.75,843.074 1031.16,850.356 1014.57,864.21 1030.51,848.124 1020.4,859.486 1053.88,829.371 1089.77,793.091 1206.36,685.237 1220.41,685.046 1246.74,675.702 1205.96,710.844 1279.02,653.641 1338.42,612.379 1240.62,701.392 1196.38,738.403 1172.1,744.091 1148.4,763.799 1183.83,722.35 1218.27,704.528 1257.22,675.16 1306.14,642.134 1258.36,667.94 1418.08,543.681 1466.94,540.836 1442.5,560.233 1426.41,577.159 1390.08,603.66 1407.07,583.902 1294.24,673.588 1295.93,669.625 1257.39,681.846 1222.83,706.237 1184.21,735.648 1177.31,730.143 1210.48,696.2 1111.68,788.836 1075.3,822.328 1062.37,814.015 1070.29,804.039 1107.15,772.271 1107.48,780.811 1097.25,793.99 1114.37,773.188 1134.43,755.975 1182.24,716.074 1200.8,705.507 1222.13,701.657 1225.93,694.285 1268.47,662.036 1245.58,679.21 1286.21,652.706 1275.21,662.326 1225.49,716.161 1136.74,778.47 1092.14,815.265 1089.5,805.77 1114.02,776.965 1121.51,774.141 1140.59,760.498 1047.76,840.265 995.648,885.237 1075.27,800.008 1086.67,794.079 1147.33,739.845 1213.67,694.925 1200.82,711.918 1195.33,725.455 1159.01,760.802 1151.67,744.996 1175.91,722.203 1220.27,692.787 1159.57,752.728 1157.07,749.748 1131.79,779.808 1109.93,793.893 1119.35,780.661 1087.06,808.224 1089.23,797.853 1090.92,798.11 1080.6,803.675 1118.41,768.334 1150.79,741.329 1177.63,732.536 1183.81,727.955 1123.43,790.087 1211.93,701.122 1226.9,696.11 1364.42,586.864 1308.52,657.056 1185.91,750.049 1143.47,774.358 1084.38,818.83 1056.09,835.85 999.792,883.228 970.395,906.005 945.359,924.426 923.743,944.249 891.449,972.154 912.783,944.177 969.563,888.812 975.351,888.693 953.426,914.7 1053.81,810.48 1078.55,799.912 1095.09,793.068 1054.93,832.695 1104.42,784.689 1143.45,751.613 1176.9,715.503 1240.18,687.441 1207.32,718.344 1270.6,657.175 1351.94,594.94 1365.62,611.189 1386.34,590.662 1421.96,570.613 1486.56,518.831 1422.8,582.019 1322.06,654.973 1300.67,658.789 1229.87,710.621 1272.62,658.319 1280.72,651.068 1282.29,661.781 1303.52,657.007 1193.93,745.85 1156.21,759.702 1047.87,854.307 1031.44,856.003 1002.95,878.52 973.974,898.497 928.414,940.327 905.422,962.6 916.793,943.173 881.088,983.134 877.267,982.039 867.584,986.762 921.41,937.786 921.504,942.323 1030.91,828.21 1010.17,856.398 1046.62,828.422 1128.46,748.683 1117.37,767.828 1041.76,838.834 927.964,948.511 945.265,920.893 957.649,903.617 931.092,932.977 895.259,968.797 881.704,982.682 861.648,994.057 884.444,964.84 896.897,954.894 935.627,913.625 995.542,861.584 1000.8,862.573 1057.21,812.207 1014.35,864.84 994.465,881.676 959.183,904.911 979.978,872.581 1005.42,859.687 1032.09,837.117 1057.87,815.911 1082.92,790.534 1133.36,751.635 1127.27,766.369 1101.71,791.437 1068.12,829.722 1014.15,861.796 1024.17,845.697 1049.67,819.042 1092.25,784.383 1181.31,715.869 1230.99,672.627 1227.03,691.274 1199.85,713.792 1247.89,670.798 1341.36,596.5 1365.68,589.145 1351.51,608.309 1297.77,653.59 1275.72,667.202 1298.96,652.795 1321.51,626.666 1232.55,700.27 1273.21,660.048 1328.17,618.592 1291.72,645.156 1288.98,648.367 1325.93,633.412 1297.26,633.389 1315.08,630.954 1296.01,659.604 1355.75,607.521 1346.07,597.419 1387.39,587.261 1357.68,609.157 1207.93,736.249 1165.51,762.299 1119.6,788.161 1080.15,813.584 1087.34,795.033 1086.34,798.276 1150.83,730.342 1113.75,777.581 1147.27,759.795 1067.23,842.149 1008.68,888.787 1041.93,839.833 1035.99,837.72 1092.74,787.249 1064.42,819.381 1052.88,829.96 1082.11,807.717 1136.37,747.491 1087.62,802.317 1066.12,821.168 1097.81,796.759 1193.68,722.76 1210.42,709.659 1126.75,781.241 1153.47,750.562 1128.18,784.361 1077.09,805.181 1080.3,801.72 1154.67,727.153 1271.15,642.513 1370.99,568.242 1442.64,530.16 1477.4,521.319 1456.98,549.074 1412.31,590.849 1253.48,719.945 1230.57,723.622 1211.92,726.851 1204.86,721.729 1163.54,748.938 1143.81,760.104 1032.6,858.277 1055.71,822.053 1023.21,851.706 996.088,873.052 998.748,869.252 1031.91,840.369 1001.96,865.563 989.454,880.919 964.867,898.747 915.128,951.513 893.619,966.351 945.297,907.461 921.614,927.023 938.133,919.349 940.832,911.642 991.692,853.501 1024.23,831.941 1051.25,818.186 1118.15,759.962 1160.01,727.985 1132.94,771.748 1086.99,817.839 1090.56,804.531 1152.64,737.949 1147.95,746.539 1126.02,761.471 1132.85,773.203 1222.49,696.643 1245.26,689.482 1227.48,702.836 1172.13,737.565 1160.24,739.453 1103.01,792.892 1131.52,766.893 1306.51,616.928 1285.47,661.076 1229.02,704.622 1253.3,680.902 1258.29,681.985 1245.61,675.233 1229.72,693.431 1204.6,713.791 1192.35,720.961 1186.49,721.289 1229.99,691.069 1150.78,755.898 1177.54,711.727 1185.09,722.073 1100.86,797.574 1074.97,811.816 1155.05,754.871 1144.74,766.1 1221.6,701.931 1271.77,644.9 1307.13,645.561 1387.96,574.023 1360.13,611.906 1366.5,598.874 1365.65,605.833 1368.21,608.805 1388.95,589.314 1357.29,622.04 1278.41,683.411 1193.1,749.792 1174.36,754.596 1193.93,724.169 1167.74,734.311 1128.33,773.694 1144.43,754.223 1242.44,662.004 1241.29,687.352 1308.68,626.225 1270.78,659.248 1242.31,676.089 1182.28,736.458 1092.18,803.366 1048.34,843.739 1086.16,801.23 1145.68,744.76 1106.92,787.136 1115.06,783.726 1124.88,780.011 1149.31,743.365 1122.85,762.567 1234.37,672.653 1232.75,687.169 1175.37,734.361 1180.03,729.147 1183.46,739.501 1135.19,778.076 1097.98,806.901 987.575,904.13 991.663,885.669 970.561,900.944 968.783,898.785 997.725,866.609 1033.55,836.493 985.409,880.465 1016.23,850.394 990.639,879.074 1090.9,782.633 1069.83,805.428 1129.53,756.854 1164.49,731.803 1239.9,670.242 1257.77,670.547 1206.46,715.545 1164.92,737.015 1148.13,761.061 1054.35,843.251 1031.73,860.295 996.88,885.244 1045.25,823.279 1052.86,818.798 1081.9,796.303 1030.02,853.726 1080.54,796.493 1126.58,752.897 1140.25,752.824 1092.95,800.722 1134.29,765.49 1163.59,737.212 1225.81,681.723 1258.99,666.473 1230.28,701.094 1204.85,715.511 1227.94,704.79 1280.35,644.58 1235.94,682.999 1214.6,700.529 1272.87,686.399 1206.38,733.252 1214.34,711.739 1156.95,763.011 1218.23,702.606 1285.47,655.087 1208.29,720.05 1198.48,735.767 1201.84,727.117 1219.44,697.129 1335.58,608.314 1403.53,567.507 1476.87,521.473 1543.38,494.541 1469.98,556.751 1364.54,637.227 1396.96,587.904 1522.66,495.605 1500.64,521.18 1559.25,483.667 1546.1,511.965 1611.14,443.697 1612.78,453.514 1588.39,478.156 1528.96,539.251 1440.75,598.242 1326.25,682.247 1315.78,670.642 1276.23,689.718 1259.03,692.185 1191.79,746.143 1201.14,724.186 1202.1,716.025 1184.61,729.846 1272.99,650.975 1240.08,689.117 1224.78,696.874 1163.17,751.854 1149.27,760.443 1112.8,790.404 1021.4,863.413 1013.44,866.652 1027.82,848.252 1033.33,849.631 1088.85,802.646 1067.54,816.17 1071.92,812.819 1098.32,782.081 1154.63,731.058 1134.59,758.234 1134.8,750.684 1140.12,757.221 1065.88,819.082 1120.12,757.288 1128.29,751.541 1175.55,709.846 1180.78,727.041 1284.04,639.326 1262.94,681.153 1237.51,692.102 1178.19,738.594 1126.87,775.791 1085.7,816.882 1093.08,803.429 1093.41,799.087 1198.48,690.692 1241.71,671.915 1141.16,771.772 1208.25,713.4 1353.81,597.981 1325.65,628.774 1255.71,694.46 1172.95,747.58 1175.95,735.673 1231.86,677.71 1354.78,582.768 1359.67,595.046 1334.38,623.811 1364.37,594.788 1326.9,635.99 1306.26,649.717 1335.15,619.835 1440.18,540.394 1413.02,569.972 1466.74,524.947 1449.95,544.466 1434.48,571.877 1532.02,485.103 1389.88,614.662 1397.87,588.218 1336.68,637.008 1396.61,582.475 1437.16,550.155 1407.75,577.294 1435.58,555.746 1419.82,583.244 1429.26,556.111 1359.27,612.564 1275.65,676.834 1289.46,656.843 1240.33,702.104 1248.27,684.844 1277.5,648.019 1297.9,634.062 1291.45,635.795 1167.76,736.864 1150.83,760.631 1119.79,786.794 1027.47,863.207 1039.5,847.957 1064.34,824.96 1024.49,860.854 1007.84,884.819 1057.91,837.881 1109.79,783.963 1035.47,866.046 977.215,906.413 966.554,909.387 961.402,906.948 905.471,968.386 906.49,958.704 904.26,954.78 877.14,985.511 890.03,970.703 887.145,974.144 877.979,983.106 866.787,993.239 835.056,1023.25 896.808,945.867 916.041,933.147 898.006,957.826 953.916,902.489 982.371,875.489 997.506,865.658 1014.29,857.854 1064.52,814.747 1076.54,803.26 1124.91,753.599 1162.9,732.022 1211.77,698.73 1210.82,719.982 1207.07,709.878 1268.9,652.624 1144.83,752.547 1161.11,737.419 1174.48,729.232 1201.89,702.518 1316.02,623.506 1279.22,672.645 1346.48,615.55 1378.94,611.997 1495.74,518.965 1367.67,618.162 1245.42,712.551 1170.16,769.57 1127.65,794.426 1166.8,735.252 1229.68,680.699 1274.35,654.447 1311.86,635.123 1265.76,676.008 1174.99,743.82 1220.18,693.909 1196.83,718.519 1137.5,775.412 1121.53,778.623 1030.04,862.738 1027.51,857.531 1068.81,815.361 1055.54,823.887 1090.91,788.956 1131.59,752.03 1048.75,835.775 971.505,898.23 1020.18,857.913 1005.1,868.483 1004.7,869.088 1095.13,780.615 1132.23,750.853 1195.83,705.787 1234.57,686.361 1206.56,705.272 1196.21,713.68 1231.1,685.712 1154.37,766.696 1131.97,768.188 1149.22,752.635 1259.66,646.286 1255.87,666.18 1328.76,613.027 1238.37,707.162 1244.43,695.818 1224.98,712.395 1169.37,753.476 1133.37,781.408 1168.33,745.045 1125.72,776.085 1115.76,785.215 1106.64,793.097 1152.48,741.031 1135.34,770.598 1110.51,791.645 1131.54,762.396 1107.34,790.652 1088.3,802.734 1033.25,855.865 1113.22,767.263 1057.3,836.176 1125.46,762.773 1128.97,764.156 1150.98,760.227 1191.22,733.202 1177.56,739.265 1222.72,713.898 1226.43,711.672 1218.47,714.307 1173.29,758.621 1172.76,741.195 1169.14,731.891 1206.86,698.888 1149.55,741.274 1291.06,638.478 1246.34,688.937 1197.37,732.695 1161.92,770.649 1159.59,760.53 1183.44,727.178 1206.11,704.833 1216.26,687.848 1275.18,658.248 1197.49,735.862 1233.71,699.736 1185.97,734.682 1163.88,751.249 1154.25,754.358 1109.53,795.924 1102.39,796.798 1167.18,722.02 1250.87,659.573 1285.58,636.161 1245.34,688.136 1208.7,720.479 1179.46,738.987 1187.98,725.141 1163.82,743.475 1136.76,765.662 1128.05,769.882 1119.61,771.836 1047.12,826.915 1017.95,854.191 990.882,886.472 1074.8,800.182 1082.43,796.4 1074.96,808.733 1113.67,780.246 1068,821.039 1186.4,719.302 1152.48,763.085 1165.07,734.633 1147.8,753.533 1256.35,662.065 1197.86,730.003 1239.85,687.736 1341.29,595.457 1344.91,607.073 1321.55,639.22 1286.66,670.128 1314.89,649.45 1297.35,659.04 1225.33,712.69 1224.97,703.872 1220.92,710.99 1242.96,694.666 1221.87,711.882 1197.99,727.232 1182.51,732.215 1235.22,684.304 1221.02,695.269 1188.28,709.955 1092.42,785.556 1023.16,842.286 960.169,911.904 989.041,870.297 1058.07,812.401 1116.93,770.407 1163.1,727.457 1182.79,728.298 1276.1,664.812 1204.41,719.784 1170.01,738.341 1093.92,813.68 1023.8,866.965 1052.3,823.389 1095.41,787.551 1158.86,737.644 1212.24,695.347 1224.76,699.239 1231.35,695.883 1305.3,652.9 1380.1,584.671 1294.06,658.509 1324.68,627.82 1301.56,646.891 1372.83,593.51 1450.38,531.888 1467.96,536.442 1338.06,642.28 1254.32,699.001 1288.19,650.714 1344.01,602.524 1319.9,630.833 1233.22,710 1188.94,746.186 1141.9,775.302 1116.52,787.613 1063.79,832.595 982.201,899.57 1006.11,867.022 1031.02,837.072 1027.85,844.005 1026.74,847.491 1012.59,870.603 1009.91,870.083 1071.1,815.205 1015.35,862.941 1047.55,837.398 1057.28,822.579 1032.21,851.168 1031.15,853.162 1051.74,827.577 931.462,924.361 946.943,910.522 980.378,879.525 1009.06,851.124 999.127,865.197 978.924,881.21 984.581,893.354 995.49,879.779 996.124,886.852 951.187,928.515 1007.03,868.075 991.14,878.336 996.859,868.748 1010.9,863.964 1107.67,777.913 1150,739.969 1094.17,790.788 1121.56,772.86 1116.24,790.007 1058.82,838.932 1105.21,796.493 1056.08,820.594 1097.83,773.675 1123.7,779.723 1144.81,753.065 1083.61,810.896 1101.74,782.062 1133.81,764.03 1072.06,818.553 1042.02,845.389 1090.24,784.975 1096.01,786.163 1177.26,709.451 1181.89,716.248 1127.38,769.757 1113.1,794.446 1209.01,714.775 1180.52,728.734 1187.34,712.928 1245.93,683.543 1307.01,626.917 1228.05,705.28 1250.18,672.147 1206.87,711.792 1153.39,751.731 1155.27,746.866 1123.94,776.26 1115.02,778.529 1085.01,801.268 1073.54,808.615 1093.8,788.969 1177.82,720.968 1155.74,737.078 1101.62,785.6 1206.2,688.129 1243.81,665.19 1266.61,665.263 1232.21,690.056 1300.72,640.628 1349.99,604.214 1232.07,710.725 1156.2,758.754 1174.6,736.532 1169.38,738.286 1121.5,787.044 1193.6,710.396 1202.08,724.215 1247.59,682.349 1263.89,662.807 1317.75,627.853 1416.65,562.37 1380.4,593.961 1362.82,612.721 1322.82,643.734 1276.4,678.43 1220.58,720.885 1201.27,732.897 1162.32,747.076 1179.82,723.72 1207.53,704.819 1199.08,714.453 1193.11,724.582 1208.33,700.252 1253.17,675.851 1153.04,757.363 1163.91,753.386 1181.85,736.127 1280.58,656.949 1237.01,709.905 1176.36,756.797 1134.66,784.957 1147.6,760.75 1063.14,838.406 1053.7,838.121 1022.03,863.885 1017.8,861.353 1014.87,860.335 1050.11,816.203 976.674,885.302 1003.18,857.203 975.239,889.043 947.493,913.924 954.397,910.109 921.709,943.545 904.457,960.818 894.498,974.55 916.386,953.46 940.64,923.454 928.888,932.433 979.538,878.884 1054.08,818.653 1051.36,817.477 1062.16,807.005 1135.58,750.022 1136.32,756.983 1148.17,752.564 1132.09,764.918 1078.87,812.252 1009.2,868.672 1010.88,864.325 1039.97,829.439 1086.58,785.125 1158.35,731.586 1150.63,750.141 1210.57,726.187 1221.49,710.967 1205.85,716.842 1223.75,702.357 1251.25,693.196 1243.84,694.062 1256.26,690.989 1231.21,701.216 1273.24,673.465 1187.94,742.172 1261.81,662.68 1264.08,654.032 1257.39,664.208 1186.56,736.818 1149.02,756.434 1215.16,695.112 1177.26,734.308 1229.41,697.212 1146.44,771.128 1179.18,724.084 1233.14,678.768 1244.67,681.254 1211.18,709.758 1160.5,747.928 1161.03,744.031 1097.93,807.177 1162.49,741.116 1123.62,763.803 1244.57,667.629 1231.74,694.392 1210.33,710.759 1161.97,741.276 1163.99,736.816 1083.89,818.454 1076.36,814.957 1124.33,760.805 1132.06,761.45 1145.06,751.576 1162.32,745.189 1112.94,792.019 1127.66,767.5 1077.48,810.713 1093.11,778.448 1089.31,792.839 1038.92,838.229 1088.12,789.829 1176.27,730.318 1138.05,771.66 1141.51,769.757 1086.99,805.98 1052.63,839.097 1081.26,801.952 1124.13,768.179 1155.55,737.982 1174.74,723.849 1338.28,586.477 1316.06,627.435 1343.02,619.142 1349.5,614.288 1314.88,649.244 1327.99,635.583 1252.98,687.533 1260.8,675.097 1316.84,630.507 1401.82,588.085 1401.44,589.35 1385.92,592.692 1409.98,599.236 1330.32,659.284 1356.4,618.147 1366.96,613.937 1249.64,709.355 1220.58,712.355 1222.12,702.491 1157.61,761.516 1163.8,743.485 1191.51,719.794 1202.26,721.97 1328.26,606.784 1262.04,671.943 1196.15,727.877 1206.04,713.222 1254.67,670.84 1307.3,631.936 1241.76,690.794 1341.41,598.909 1423.99,553.231 1372.42,604.653 1264.9,679.292 1217.85,714.325 1218.07,714.08 1201.15,723.05 1189.86,724.509 1160.04,746.189 1302.07,650.045 1327.2,628.044 1369.26,593.143 1320.34,639.023 1351.2,630.632 1289.95,670.671 1245.33,686.706 1283.85,657.54 1263.41,674.858 1171.63,751.232 1192.59,723.644 1123.38,780.784 1082.8,814.234 1074.94,806.382 1127.81,757.65 1141.85,755.611 1130.66,762.37 1080.65,810.763 1140.86,738.256 1127.15,749.549 1195.96,695.095 1189.86,704.501 1227.7,699.21 1251.23,684.308 1147.62,770.433 1052.34,851.182 1030.76,856.403 1021.49,856.796 1091.85,788.671 1079.04,809.595 1018.84,867.182 1052.14,829.846 1032.07,845.758 1037.53,847.828 1066.68,802.663 1044.04,831.061 1128.95,752.346 1113.01,767.489 1121.18,754.153 1140.74,768.234 1172.05,729.911 1241.26,667.304 1104.52,801.299 982.052,910.386 955.729,929.07 923.992,955.715 937.349,930.258 963.825,892.065 973.754,883.812 965.155,897.676 1045.4,810.574 1050.76,821.576 1026.81,845.826 1055.05,818.404 1064.98,807.52 1092.74,790.983 1102.75,786.527 1128.32,768.738 1104.51,800.367 1116.95,771.01 1175.56,731.816 1154.36,760.909 1198.13,716.878 1222.41,710.521 1209.02,713.511 1240.99,686.428 1226.3,692.741 1122.86,780.476 1137.99,753.318 1082.31,793.563 1109.25,774.609 1122.86,769.298 1130.21,751.773 1107.84,767.523 1195.63,706.135 1204.15,713.536 1247.6,675.465 1242.57,683.334 1248.01,683.425 1166.24,751.16 1296.61,626.896 1339.71,616.334 1339.5,622.416 1422.74,560.241 1330.47,630.855 1250.66,687.594 1233.81,698.714 1131.06,785.222 1137.75,759.094 1095.7,798.073 1042.15,844.002 992.38,888.696 1001.99,871.22 977.626,895.81 1051.7,832.501 989.397,884.704 1026.84,847.551 1080.73,799.952 1156.74,728.526 1181.05,721.56 1267.79,658.743 1204.94,715.06 1241.59,682.767 1239.53,689.265 1304.99,644.873 1482.91,510.7 1566.2,462.569 1618.11,453.404 1543.21,516.647 1433.33,598.07 1465.84,558.213 1469.44,547.135 1438.16,569.645 1408.67,594.556 1489.58,524.317 1486.97,536.856 1468.99,553.128 1586.58,454.412 1631.35,438.362 1514.84,543.784 1464.8,566.664 1438.8,579.136 1397.26,605.034 1406.92,589.346 1440.39,550.319 1400.98,589.245 1286.93,682.811 1340.82,621.054 1449.81,523.112 1477.64,527.962 1424.78,577.057 1446.16,555.173 1392.37,601.74 1354.45,622.395 1303.5,663.369 1276.53,671.033 1251.18,683.325 1284.45,657.661 1165.27,766.053 1126.9,792.493 1149.75,752.917 1138.52,758.51 1131.33,763.469 1147.33,754.884 1131.42,766.917 1328.44,590.121 1358.56,600.596 1385.8,593.021 1390.23,595.581 1297.6,670.474 1259.18,699.719 1306.92,649.849 1316.61,641.401 1375.76,599.163 1326.24,640.257 1244.12,697.154 1217.86,704.998 1320.33,617.874 1302.99,634.236 1341.16,619.079 1373.61,601.55 1384.98,592.607 1333.91,626.305 1184.57,752.948 1134.61,787.306 1197.05,705.618 1316.49,617.722 1244.37,692.44 1224.87,703.85 1260.96,683.494 1124.4,799.165 1109.82,794.583 1089.4,808.136 1139.62,758.586 1179.02,714.806 1229.35,703.951 1212.92,718.152 1196.33,733.541 1216.69,712.711 1224.69,699.802 1185.55,735.813 1224.67,691.733 1354.41,579.301 1362.63,587.188 1367.26,594.967 1312.76,641.716 1257.98,689.199 1260.49,669.087 1289.65,654.194 1328.45,625.85 1374.77,601.13 1303.58,667.387 1234.4,717.113 1304.16,643.987 1379.17,589.075 1480.27,515.999 1471.01,530.35 1348.45,636.955 1337.21,637.784 1325.97,645.953 1249.28,699.304 1192.82,738.019 1189.1,727.671 1189.14,725.56 1170.14,741.326 1244.67,676.089 1302.51,627.155 1222.62,692.299 1237.21,680.822 1215.56,684.101 1373.49,556.963 1273.85,648.673 1260.16,661.254 1221.64,682.057 1276.3,642.656 1252.57,676.73 1242.28,674.026 1271.3,664.615 1218.87,712.789 1407.13,564.971 1388.81,592.866 1304.16,672.637 1265.25,685.294 1281.72,660.958 1239.23,702.594 1238.79,694.208 1234.34,692.482 1282.94,656.475 1245.94,690.345 1224.31,702.769 1215.5,712.94 1195.6,726.766 1204.37,721.989 1138.31,779.472 1133.98,782.793 1068.17,828.973 1012.6,875.804 1063.78,814.336 1098.87,788.096 1167.66,722.507 1125.64,763.127 1215.56,704.594 1202.54,723.261 1162.46,765.064 1112.2,794.043 1096.53,802.878 1147.39,750.712 1221.26,678.506 1254.77,661.518 1217.87,710.824 1247.54,681.254 1243.39,688.542 1276.25,668.393 1282.08,661.929 1275.77,668.595 1232.7,712.017 1259.3,678.742 1209.57,717.987 1270.09,670.337 1300.36,650.772 1290.63,641.856 1331.78,598.321 1317.81,623.974 1239.44,710.608 1170.78,762.958 1173.35,741.784 1151.14,761.336 1164.97,738.88 1159.14,751.813 1136.24,777.262 1079.42,820.596 1039.24,853.325 1003.9,870.704 1041.68,829.378 1054.45,820.647 1065.4,818.357 1141.73,738.824 1180.4,728.594 1200.14,715.25 1174.37,739.803 1212.39,709.952 1207.75,715.582 1249.45,672.706 1245.42,691.644 1202.54,726.45 1205.46,726.764 1189.5,739.988 1139.7,775.64 1098.45,808.053 1152.4,744.859 1148.34,749.295 1158.79,736.109 1189.92,712.127 1165.14,743.49 1222.69,688.652 1255.48,673.153 1259.61,672.102 1263.64,674.226 1293.14,654.822 1267.61,666.402 1355.95,596.631 1291.34,639.585 1406.46,547.594 1559.06,456.101 1747.44,349.781 1751.87,374.007 1720.01,411.458 1617.86,491.39 1555.32,526.404 1397.07,644.886 1376.11,638.208 1294.32,696.506 1248.22,719.844 1248.91,704.626 1238.32,702.919 1249.61,686.009 1199.93,729.82 1201.9,721.373 1175.81,741.359 1157.26,753.091 1201.3,704.767 1207.98,694.354 1188.41,726.004 1198.64,725.003 1235.35,685.662 1275.94,660.023 1338.07,615.727 1298.82,666.931 1350.34,622.518 1259.82,697.403 1270.81,674.57 1184.92,745.637 1156.25,758.786 1148.57,760.246 1138.59,752.742 1153.18,745.457 1110.46,790.576 1160.86,738.943 985.902,886.559 1023.56,844.098 986.228,882.207 1034.97,828.986 1002.93,874.574 1025.56,855.812 1083.88,789.256 1092.31,791.228 1066.43,816.168 1093.29,789.631 1063,807.95 1153.17,740.924 1135.82,757.925 1130.66,770.651 1133.73,769.847 1145.1,752.555 1145.72,739.976 1150.25,729.555 1082.24,794.322 1126.56,781.56 1273.34,641.057 1222.69,691.773 1242.61,674.039 1277.01,671.506 1269.12,671.971 1222.53,693.92 1234.15,683.74 1190.91,713.124 1207.55,714.335 1181.71,731.37 1298.54,638.652 1189.42,740.924 1208.15,712.003 1155.12,767.391 1091.5,806.7 1089.94,796.673 1143.47,742.931 1140.17,756.815 1214.57,686.267 1249.09,673.172 1440.97,525.903 1459.1,537.217 1509.46,510.704 1443.12,573.727 1439.31,576.741 1428.45,575.716 1345.9,631.922 1352.37,608.78 1312.34,648.392 1250.69,695.093 1202.44,729.715 1214.95,704.051 1133.86,769.641 1129.48,771.196 1112.72,778.041 1102.67,795.707 1005.98,873.221 1011.7,861.29 1016.26,860.495 1046.76,827.243 1106.97,766.088 1100.78,781.942 1132.66,751.913 1114.8,778.711 1186.6,710.865 1245.48,676.275 1228.2,699.439 1150.09,760.26 1096.26,808.59 1081.41,805.945 1110.43,778.605 1097.8,786.664 1094.11,790.925 1131.4,754.34 1175.04,722.531 1199.81,721.915 1166.76,738.63 1215.35,691.871 1181.64,724.279 1248.85,666.276 1325.31,599.003 1333.25,599.459 1316.13,643.359 1313.59,640.311 1309.02,641.28 1185.39,728.515 1175.95,734.243 1201.12,712.536 1213.06,711.2 1245.65,689.419 1304.82,628.259 1232.66,696.542 1226.02,702.342 1175.75,726.576 1123.52,770.4 1171.29,737.674 1237.56,701.106 1271.51,671.118 1211.85,704.743 1218.88,694.574 1387.22,551.383 1433.51,534.273 1350.34,629.481 1373.82,603.881 1277.63,687.147 1323.89,629.258 1266.91,687.32 1304.19,650.711 1291.87,664.709 1269.86,674.672 1171.36,762.753 1226.07,698.382 1216.63,701.586 1287.9,643.018 1303.82,644.843 1360.86,594.887 1361.76,610.062 1445.91,551.946 1468.76,527.86 1444.85,563.17 1407.72,578.551 1304.55,656.913 1263.23,689.894 1272.6,675.885 1285.16,655.327 1366.16,597.406 1394.45,584.953 1348.67,611.632 1395.99,581.66 1369.65,601.788 1282.65,668.921 1207.89,735.289 1157.42,766.514 1142.27,767.786 1084.52,812.87 1130.54,759.116 1113.39,777.829 1131.47,758.698 1150.07,747.115 1147.37,755.849 1093.03,809.602 1003.96,879.608 943.272,931.675 934.784,935.094 884.862,976.2 848.399,1013.58 877.665,974.035 848.106,1015.23 843.793,1009.77 850.678,1004.25 831.935,1028.44 860.308,994.513 847.866,1009.58 848.061,1007.37 845.544,1005.55 866.632,983.459 860.213,992.16 890.475,962.567 866.761,989.396 873.651,983.189 933.383,916.576 942.07,909.805 875.487,986.845 894.004,962.43 867.612,987.275 918.027,932.747 941.314,917.422 933.44,926.014 994.798,869.283 967.67,900.513 932.3,939.973 958.397,910.476 927.921,934.033 1003.3,854.821 1052.35,813.854 1086.67,788.787 1182.33,699.538 1175.03,726.536 1201.8,710.186 1194.39,719.537 1181.57,738.926 1223.28,696.666 1206.45,731.073 1225.61,703.463 1187.36,722.747 1152.14,752.346 1133.18,762.373 1156.15,745.542 1126.47,779.333 1084.62,818.272 1156.9,736.297 1257.23,679.193 1228.64,704.151 1233.04,700.378 1268.71,656.395 1259.93,666.279 1324.2,626.975 1462.58,519.513 1476.17,528.411 1371.45,624.195 1395.08,595.324 1368.48,612.766 1348.26,619.614 1231.42,707.695 1197.94,735.163 1215.5,710.291 1220.52,699.836 1231.53,694.266 1249.34,678.823 1214.61,711.607 1313.51,641.744 1253.71,694.445 1378.2,598.877 1395.11,581.073 1217.2,716.333 1175.21,747.623 1246.19,684.826 1228.24,689.987 1210.19,714.108 1155.29,749.76 1195.79,714.682 1232.61,685.56 1243.7,687.649 1291.13,650.002 1261.73,680.911 1266.23,672.101 1313.69,650.989 1444.59,541.55 1346.76,610.898 1366.31,608.241 1287.9,661.988 1258.39,687.371 1258.35,683.329 1240.2,696.179 1305.1,638.435 1363.18,602.504 1280.22,666.089 1238.74,704.751 1195.25,731.683 1107.22,798.96 1074.77,822.576 1036.3,854.232 989.061,884.268 979.766,895.548 975.102,888.67 969.734,896.512 949.272,918.396 954.996,910.076 941.364,927.622 924.556,945.375 867.962,998.076 841.906,1023.52 833.001,1022.41 849.37,1002.38 836.702,1021.64 822.147,1035.01 838.235,1015.97 854.66,996.158 880.251,969.276 911.063,937.146 879.407,977.577 874.146,985.335 807.179,1059.2 798.053,1062.42 823.479,1029.57 849.048,1000.38 853.627,1000.3 841.829,1016.36 889.744,958.026 875.894,974.982 841.266,1020.96 846.215,1009.94 853.53,996.286 879.184,970.912 870.761,985.85 888.903,967.996 916.146,938.824 962.165,891.989 999.861,859.806 1031.03,838.211 1130.12,752.267 1130.32,767.752 1145.98,745.744 1218.77,683.99 1264.84,655.992 1200.61,723.406 1299.8,640.946 1228.67,708.162 1245.85,688.822 1252.43,681.838 1155.99,766.026 1206.35,707.294 1217.11,694.731 1213.94,701.103 1286.02,632.127 1289.99,651.31 1235.21,714.895 1232.52,704.372 1209.41,716.745 1154.95,758.881 1145.67,769.001 1112.45,786.56 1110.86,787.55 1154.96,744.507 1120.37,782.695 1200.26,701.182 1264.9,655.731 1304.78,629.852 1273.5,673.903 1180.05,760.377 1171,751.861 1159.12,756.805 1187.7,722.29 1160.67,746.765 1104.59,797.261 1112.56,787.718 1125.53,766.216 1073.36,814.868 1005.46,878.01 1037.38,835.977 997.105,875.477 1035.88,830.463 970.312,888.711 1067.52,805.771 1090.08,792.765 1124.06,759.883 1177.65,715.48 1161.4,744.825 1086.81,805.049 1122.38,767.346 1133.96,774.066 1155.55,744.474 1095.98,789.524 1129.09,769.235 1122.45,782.521 1117.16,779.574 1123.54,781.751 1061.22,850.927 1131.61,805.328 1074.31,844.076 1082.16,823.826 1123.99,784.541 1065.65,823.436 1007.05,873.36 1047.82,819.813 1046.25,819.139 1077.8,813.247 1132.29,759.992 1188.57,716.469 1177.56,740.196 1070.83,832.127 1069.47,816.634 1093.93,788.748 1145.73,759.009 1136.47,764.78 1135.55,769.639 1166.98,744.523 1161.44,748.286 1120.97,748.825 1089.56,791.093 1068.59,817.953 1018.72,862.327 988.485,883.14 1015.11,863.269 1101.94,765.294 1029.28,849.203 1017.19,859.192 1028.61,849.127 1105.96,778.451 1138.22,758.579 1187.01,713.983 1228.84,704.932 1210,723.248 1236.07,695.044 1304.59,650.161 1233.15,711.262 1204.13,731.717 1187.06,741.856 1243.46,675.89 1359.97,594.185 1385.1,585.652 1431.23,548.48 1512.63,493.134 1636.03,435.272 1655.43,439.353 1544.05,525.716 1439.09,600.281 1429.88,588.193 1492.48,526.263 1489.19,526.927 1384.05,616.296 1325.95,651.734 1322.5,642.939 1342.69,616.208 1348.74,612.616 1397.2,576.798 1489.67,510.696 1436.42,566.682 1476.02,533.603 1489.25,522.687 1482.53,537.756 1408.36,587.918 1515.85,493.996 1551.9,468.451 1479.65,538.042 1437.34,574.903 1418.98,577.244 1490.58,519.864 1477.51,549.258 1499.69,535.146 1545.01,488.021 1490.53,529.186 1570.17,474.826 1510.75,521.645 1515.42,523.406 1412.48,606.645 1352.35,642.242 1337.31,644.033 1311.65,653.102 1338.58,624.276 1292.99,663.78 1241.45,702.972 1192.18,741.28 1213.24,706.895 1241.49,682.547 1216.69,713.674 1232.59,694.134 1172.82,744.553 1243.21,679.496 1342.87,603.022 1346.04,605.584 1331.99,626.694 1265.66,674.771 1317.72,625.057 1316.05,643.38 1282.42,669.46 1259.58,687.855 1195.27,732.185 1156.43,755.354 1222.45,685.453 1229.01,681.236 1168.71,741.411 1249.51,671.326 1192.37,735.775 1160.94,747.791 1181.02,726.018 1119.94,778.738 1130.25,763.821 1095.88,801.755 1107.96,781.164 1054.59,840.712 1040.64,842.25 1010.51,869.42 1000.15,872.982 1020.05,850.544 1020.07,855.222 951.969,930.211 935.268,938.627 909.896,959.517 909.266,952.652 919.154,939.715 988.809,866.23 1026.43,835.654 996.546,874.439 985.042,877.029 1078.89,791.441 1079.26,801.765 1063.77,820.864 1003.76,877.017 1010.55,862.12 961.233,915.814 943.169,919.648 927.795,935.337 949.484,913.259 953.026,916.667 862.168,1005.87 857.252,1004.66 862.383,995.594 826.489,1035.57 840.888,1014.22 888.534,967.899 893.869,964.785 892.923,969.857 896.268,959.292 908.754,946.365 924.118,935.099 881.409,976.993 842.193,1023.63 845.716,1014.56 835.58,1022.3 831.161,1027.04 817.908,1040.01 837.118,1019.93 835.7,1019.66 838.216,1016.92 849.482,1001.69 821.504,1032.24 860.263,989.929 846.725,1011.79 852.999,1002.79 826.924,1033.3 828.23,1027.98 851.433,1002.88 827.647,1029.74 818.412,1037.82 832.451,1022.72 856.044,990.849 868.024,981.956 875.081,978.809 883.955,973.334 950.051,898.761 971.034,888.515 951.585,909.722 996.361,861.765 996.378,866.351 994.356,868.254 1076.28,794.96 1036.47,838.129 994.211,882.593 956.384,923.358 890.884,987.439 898.95,967.406 909.817,951.68 884.632,980.915 916.616,938.302 931.5,922.929 967.694,894.977 1011.36,855.302 1026.18,839.766 1118.71,762.536 1156.14,728.766 1145.55,747.753 1194.05,714.553 1270.79,660.69 1243.8,681.285 1219.46,698.906 1211.77,707.041 1253.87,694.295 1219.42,716.438 1140.64,764.205 1151.03,750.386 1141.96,762.65 1141.73,767.684 1093.3,813.196 1093.46,798.507 1137.39,758.345 1115.2,776.397 1065.28,818.408 1058.73,821.908 1053.71,822.257 1062.25,817.314 1048.65,828.235 1066.69,807.001 1010.64,854.528 1037.33,833.113 1067.18,808.728 1089.02,785.654 1136.63,752.481 1145.07,745.181 1200.45,705.678 1145.56,761.007 1163.17,744.112 1251.83,678.765 1198.31,721.673 1190.63,723.388 1319.73,631.932 1313.81,641.926 1344.76,610.937 1349.63,608.693 1276.42,671.615 1324.11,636.391 1354.67,627.341 1344.87,634.874 1352.91,622.697 1358.3,620.883 1370.44,598.907 1363.96,605.138 1479.07,514.369 1371.99,609.275 1391.08,588.018 1379.76,601.332 1341.83,643.06 1418.26,563.272 1362.71,596.412 1355.59,610.039 1382.09,594.13 1387.41,601.849 1358.43,620.028 1268.62,682.876 1199.58,735.617 1241.21,686.329 1336.37,614.183 1365.96,601.893 1306.88,652.973 1232.74,691.735 1222.33,702.563 1254.54,675.381 1197.31,723.116 1129.21,780.509 1030.78,862.376 1043.11,835.278 1060.24,813.234 1066,812.124 1021.2,862.64 974.875,904.259 951.636,918.971 956.802,906.465 984.919,866.553 1040.3,819.638 1061.3,816.733 1063.15,817.641 1074.33,806.872 1063.09,814.425 1036.49,844.208 1148.07,744.536 1180.42,710.829 1128.55,767.316 1181.9,723.372 1117.08,764.129 1082.71,799.892 1069.9,820.014 1144.09,737.694 1152.41,756.05 1183.8,730.413 1197.59,696.364 1296.29,627.884 1347.77,603.579 1330.28,628.966 1284.16,652.384 1403.59,552.958 1337.9,621.949 1341.4,619.638 1296.18,662.352 1196.81,736.187 1168.09,750.78 1145.91,752.71 1132.04,765.716 1128.76,763.024 1201.81,709.298 1164.86,749.255 1260.04,668.675 1251.22,676.229 1234.78,695.718 1239.12,692.149 1167.69,755.997 1130.72,784.985 1064.51,842.495 1084.95,807.431 1059.93,832.046 1073.42,808.431 1056.07,828.005 1120.81,760.393 1111.98,774.341 1122.34,774.554 1179.94,713.876 1247.77,672.029 1288.54,639.248 1328.67,610.718 1212.94,722.141 1234.46,698.576 1191.66,738.263 1178.72,735.595 1167.15,743.015 1258.6,677.8 1309.66,628.251 1337.99,614.949 1365.94,591.905 1364.02,618.952 1226.44,729.595 1149.6,783.166 1141.02,774.691 1185.44,719.413 1109.11,793.084 1110.45,781.969 1174,718.384 1155.62,742.258 1153.86,746.052 1201.55,705.805 1145.72,758.058 1136.86,764.989 1112,783.226 1057.62,837.346 1159.07,741.853 1287.37,640.361 1332.01,611.339 1265.48,678.076 1322.62,633.293 1282.84,654.025 1170.3,750.873 1084.47,818.418 1103.87,793.897 1067.69,831.631 1045.75,840.13 1023.27,860.851 1016.29,866.078 1023.78,840.474 1194.93,678.612 1171.75,724.798 1248.63,659.617 1221.19,700.522 1249.14,685.822 1237.93,688.578 1184.14,729.331 1128.14,770.354 1109.84,782.11 1049.37,818.515 1042.8,830.632 1044.07,835.383 1054.97,826.475 1161.9,725.548 1242.19,662.994 1271.94,642.564 1179.17,736.63 1189.24,728.306 1148.72,773.213 1203.34,739.617 1171.65,750.648 1126.78,789.368 1172.47,733.293 1140.29,756.933 1083.34,806.726 1028.56,852.757 986.559,886.155 966.653,906.968 964.633,917.729 974.075,887.38 1040.93,822.837 1044.9,819.589 1129.63,757.732 1258.75,653.324 1255.91,677.168 1204.99,726.632 1201.75,718.339 1244.47,678.943 1244.04,672.732 1196.77,717.415 1225.59,711.622 1235.48,698.34 1286.34,659.292 1224.65,716.955 1232.65,708.01 1250.51,698.428 1273.86,681.949 1187.53,747.669 1113.01,808.298 1053.67,844.803 1095.74,792.184 1108.26,776.639 1110.76,782.992 1175.25,716.197 1136.44,756.57 1117.73,787.602 1168.91,743.834 1294.87,659.953 1230.78,706.441 1342.35,602.102 1362.94,597.088 1373.34,599.229 1459.39,553.987 1390.37,608.223 1364.5,627.517 1451.07,552.656 1442.93,548.026 1360.1,618.457 1294.07,675.846 1355.15,611.328 1354.66,604.273 1248.66,695.348 1276.01,664.149 1219.74,712.686 1217.34,707.97 1206.07,704.911 1178.76,732.329 1193.18,708.491 1150.28,753.674 1237.53,671.791 1319.56,602.91 1364.03,603.769 1407.37,569.704 1430.4,552.328 1331.27,631.084 1287.16,670.424 1304.11,648.77 1341.42,623.373 1330.76,634.181 1401.11,573.446 1272.2,679.758 1333.65,614.846 1269.34,679.99 1163.13,762.66 1150.43,760.239 1098.97,802.008 1206.2,689.601 1265.16,669.632 1234.71,694.813 1236.84,695.519 1141.69,773.351 1158.72,748.321 1186.47,718.383 1147.66,763.145 1138.64,760.486 1109.47,786.998 1158.7,734.053 1134.22,765.609 1233.95,671.448 1268.36,646.322 1289.55,644.269 1333.69,616.813 1390.73,576.457 1411.46,564.864 1425.17,571.255 1439.43,567.231 1401.35,588.139 1382.36,600.275 1288.01,676.995 1210.34,732.544 1163.81,766.376 1091.6,822.381 1080.23,817.254 1044.57,845.179 1019.36,864.388 1038.53,834.937 1027.6,842.754 928.299,940.578 947.661,914.504 982.239,885.094 988.628,875.333 987.197,875.598 987.334,880.518 1025.43,836.883 964.188,905.085 973.303,892.655 983.382,871.18 1072.13,793.518 1081.52,792.71 1084.89,799.672 1050.03,836.04 1056.56,833.794 1060.18,820.663 1073.73,800.446 1049.05,830.119 1033.56,845.555 967.912,896.819 970.058,892.958 1009.2,871.003 992.466,878.536 960.299,893.147 981.045,881.829 935.322,927.407 907.386,956.822 886.031,976.541 884.49,976.402 897.935,950.442 896.468,953.782 921.941,930.382 975.441,872.773 1012.09,847.223 1046.7,826.415 980.579,891.282 1000.53,863.206 1024.44,844.653 1067.17,811.569 1084.57,798.632 1152.44,736.435 1058.06,827.154 1181.95,721.368 1224.79,682.735 1314.92,611.61 1345.54,600.083 1319.99,631.307 1345.69,613.639 1261.02,686.978 1152.68,767.037 1111.57,794.501 1141.28,757.941 1188.53,712.839 1143.87,753.122 1247.41,678.119 1270.43,663.305 1267.88,673.16 1288.66,651.124 1283.97,665.946 1252.7,691.183 1216.89,716.677 1252.27,683.914 1272.65,669.687 1203.64,723.177 1254.53,672.06 1212.08,714.565 1226.46,698.807 1191.34,720.001 1168.23,746.896 1164.4,747.303 1188.99,723.991 1184.41,728.653 1161.07,752.02 1103.49,788.207 1005.61,883.772 1032.67,842.858 1013.72,861.127 995.199,880.709 1018.44,848.014 945.993,918.022 940.692,927.684 969.43,897.95 924.4,943.764 937.393,933.958 918.598,949.56 896.527,971.786 959.418,903.107 911.177,960.327 881.332,979.09 853.153,1005.13 884.892,973.98 842.485,1015.58 861.69,1000.05 914.689,940.324 899.12,962.671 894.55,969.67 922.015,932.494 887.368,967.367 879.649,979.836 903.068,957.639 874.649,981.597 901.442,952.7 878.036,976.444 857.491,1002.61 877.993,979.346 862.573,996.285 871.875,989.82 856.554,996.718 876.311,975.461 856.385,1003.19 848.389,1007.69 872.033,983.252 860.022,996.661 839.436,1017.02 800.298,1067.7 818.172,1042.29 786.97,1074.9 761.901,1106.11 755.491,1108.69 752.738,1111.17 755.184,1105.48 764.787,1093.34 771.232,1085.27 774.953,1079.59 747.242,1119.48 736.095,1130.35 734.43,1129.21 747.66,1112.98 738.269,1122.58 726.801,1139.7 726.061,1135.05 697.059,1178.01 723.646,1135.47 742.313,1115.82 735.928,1127.2 733.669,1131.59 749.429,1108.87 752.929,1102.83 767.407,1083.84 811.991,1029.23 809.485,1039.37 831.78,1015.32 836.778,1014 828.791,1026.81 895.336,948.274 901.285,948.262 900.392,950.877 939.585,906.08 1035.2,818.801 1014.46,854.067 1014.61,855.907 986.484,884.705 937.619,933.041 936.186,928.624 1014.03,844.028 991.413,880.999 993.215,877.313 1001.33,859.45 1016.56,851.807 1015,853.231 1052.38,810.809 1044.79,830.032 1049.81,823.763 1098.85,792.778 1177.92,714.086 1159.69,741.649 1089.59,807.124 1115.53,772.608 1226.58,676.461 1238.02,694.04 1315.05,626.305 1417.77,555.205 1379.98,593.509 1381.45,597.523 1362.87,612.865 1317.84,648.737 1285.51,663.108 1288.26,668.523 1337.19,613.57 1379.64,598.688 1295.15,668.946 1278.79,668.771 1238.31,707.587 1244.64,694.76 1130.1,793.042 1072.72,833.33 1142.87,747.863 1218.13,684.317 1221.98,691.248 1232.04,690.534 1307.77,621.984 1319.82,624.13 1333.69,615.91 1225.46,702.422 1207.85,717.226 1233.61,693.079 1193.69,746.683 1138.67,781.294 1098.91,806.855 1066.64,821.429 1063.02,824.331 1045.36,838.962 1051.16,834.613 1102.04,779.081 "/>
<path clip-path="url(#clip790)" d="M186.863 198.898 L550.897 198.898 L550.897 95.2176 L186.863 95.2176  Z" fill="#ffffff" fill-rule="evenodd" fill-opacity="1"/>
<polyline clip-path="url(#clip790)" style="stroke:#000000; stroke-linecap:round; stroke-linejoin:round; stroke-width:4; stroke-opacity:1; fill:none" points="186.863,198.898 550.897,198.898 550.897,95.2176 186.863,95.2176 186.863,198.898 "/>
<polyline clip-path="url(#clip790)" style="stroke:#009af9; stroke-linecap:round; stroke-linejoin:round; stroke-width:4; stroke-opacity:1; fill:none" points="211.758,147.058 361.13,147.058 "/>
<path clip-path="url(#clip790)" d="M396.651 128.366 Q393.549 133.69 392.044 138.898 Q390.54 144.106 390.54 149.453 Q390.54 154.801 392.044 160.055 Q393.572 165.287 396.651 170.588 L392.947 170.588 Q389.475 165.148 387.739 159.893 Q386.026 154.639 386.026 149.453 Q386.026 144.291 387.739 139.06 Q389.452 133.828 392.947 128.366 L396.651 128.366 Z" fill="#000000" fill-rule="nonzero" fill-opacity="1" /><path clip-path="url(#clip790)" d="M403.063 138.412 L423.294 138.412 L423.294 142.301 L407.276 160.935 L423.294 160.935 L423.294 164.338 L402.484 164.338 L402.484 160.449 L418.502 141.815 L403.063 141.815 L403.063 138.412 Z" fill="#000000" fill-rule="nonzero" fill-opacity="1" /><path clip-path="url(#clip790)" d="M430.887 158.458 L435.771 158.458 L435.771 162.439 L431.975 169.847 L428.988 169.847 L430.887 162.439 L430.887 158.458 Z" fill="#000000" fill-rule="nonzero" fill-opacity="1" /><path clip-path="url(#clip790)" d="M455.655 166.745 Q453.849 171.375 452.136 172.787 Q450.423 174.199 447.553 174.199 L444.15 174.199 L444.15 170.634 L446.65 170.634 Q448.41 170.634 449.382 169.8 Q450.354 168.967 451.535 165.865 L452.298 163.921 L441.812 138.412 L446.326 138.412 L454.428 158.689 L462.53 138.412 L467.044 138.412 L455.655 166.745 Z" fill="#000000" fill-rule="nonzero" fill-opacity="1" /><path clip-path="url(#clip790)" d="M474.011 158.458 L478.896 158.458 L478.896 162.439 L475.099 169.847 L472.113 169.847 L474.011 162.439 L474.011 158.458 Z" fill="#000000" fill-rule="nonzero" fill-opacity="1" /><path clip-path="url(#clip790)" d="M509.544 138.412 L500.169 151.027 L510.03 164.338 L505.007 164.338 L497.46 154.152 L489.914 164.338 L484.891 164.338 L494.96 150.773 L485.747 138.412 L490.77 138.412 L497.645 147.648 L504.52 138.412 L509.544 138.412 Z" fill="#000000" fill-rule="nonzero" fill-opacity="1" /><path clip-path="url(#clip790)" d="M515.377 128.366 L519.081 128.366 Q522.553 133.828 524.266 139.06 Q526.002 144.291 526.002 149.453 Q526.002 154.639 524.266 159.893 Q522.553 165.148 519.081 170.588 L515.377 170.588 Q518.456 165.287 519.96 160.055 Q521.488 154.801 521.488 149.453 Q521.488 144.106 519.96 138.898 Q518.456 133.69 515.377 128.366 Z" fill="#000000" fill-rule="nonzero" fill-opacity="1" /></svg>
