<?xml version="1.0" encoding="utf-8"?>
<svg xmlns="http://www.w3.org/2000/svg" xmlns:xlink="http://www.w3.org/1999/xlink" width="600" height="400" viewBox="0 0 2400 1600">
<defs>
  <clipPath id="clip320">
    <rect x="0" y="0" width="2400" height="1600"/>
  </clipPath>
</defs>
<path clip-path="url(#clip320)" d="M0 1600 L2400 1600 L2400 0 L0 0  Z" fill="#ffffff" fill-rule="evenodd" fill-opacity="1"/>
<defs>
  <clipPath id="clip321">
    <rect x="480" y="0" width="1681" height="1600"/>
  </clipPath>
</defs>
<path clip-path="url(#clip320)" d="M193.936 1423.18 L2352.76 1423.18 L2352.76 47.2441 L193.936 47.2441  Z" fill="#ffffff" fill-rule="evenodd" fill-opacity="1"/>
<defs>
  <clipPath id="clip322">
    <rect x="193" y="47" width="2160" height="1377"/>
  </clipPath>
</defs>
<polyline clip-path="url(#clip322)" style="stroke:#000000; stroke-linecap:round; stroke-linejoin:round; stroke-width:2; stroke-opacity:0.1; fill:none" points="193.936,1423.18 193.936,47.2441 "/>
<polyline clip-path="url(#clip322)" style="stroke:#000000; stroke-linecap:round; stroke-linejoin:round; stroke-width:2; stroke-opacity:0.1; fill:none" points="625.7,1423.18 625.7,47.2441 "/>
<polyline clip-path="url(#clip322)" style="stroke:#000000; stroke-linecap:round; stroke-linejoin:round; stroke-width:2; stroke-opacity:0.1; fill:none" points="1057.46,1423.18 1057.46,47.2441 "/>
<polyline clip-path="url(#clip322)" style="stroke:#000000; stroke-linecap:round; stroke-linejoin:round; stroke-width:2; stroke-opacity:0.1; fill:none" points="1489.23,1423.18 1489.23,47.2441 "/>
<polyline clip-path="url(#clip322)" style="stroke:#000000; stroke-linecap:round; stroke-linejoin:round; stroke-width:2; stroke-opacity:0.1; fill:none" points="1920.99,1423.18 1920.99,47.2441 "/>
<polyline clip-path="url(#clip322)" style="stroke:#000000; stroke-linecap:round; stroke-linejoin:round; stroke-width:2; stroke-opacity:0.1; fill:none" points="2352.76,1423.18 2352.76,47.2441 "/>
<polyline clip-path="url(#clip320)" style="stroke:#000000; stroke-linecap:round; stroke-linejoin:round; stroke-width:4; stroke-opacity:1; fill:none" points="193.936,1423.18 2352.76,1423.18 "/>
<polyline clip-path="url(#clip320)" style="stroke:#000000; stroke-linecap:round; stroke-linejoin:round; stroke-width:4; stroke-opacity:1; fill:none" points="193.936,1423.18 193.936,1404.28 "/>
<polyline clip-path="url(#clip320)" style="stroke:#000000; stroke-linecap:round; stroke-linejoin:round; stroke-width:4; stroke-opacity:1; fill:none" points="625.7,1423.18 625.7,1404.28 "/>
<polyline clip-path="url(#clip320)" style="stroke:#000000; stroke-linecap:round; stroke-linejoin:round; stroke-width:4; stroke-opacity:1; fill:none" points="1057.46,1423.18 1057.46,1404.28 "/>
<polyline clip-path="url(#clip320)" style="stroke:#000000; stroke-linecap:round; stroke-linejoin:round; stroke-width:4; stroke-opacity:1; fill:none" points="1489.23,1423.18 1489.23,1404.28 "/>
<polyline clip-path="url(#clip320)" style="stroke:#000000; stroke-linecap:round; stroke-linejoin:round; stroke-width:4; stroke-opacity:1; fill:none" points="1920.99,1423.18 1920.99,1404.28 "/>
<polyline clip-path="url(#clip320)" style="stroke:#000000; stroke-linecap:round; stroke-linejoin:round; stroke-width:4; stroke-opacity:1; fill:none" points="2352.76,1423.18 2352.76,1404.28 "/>
<path clip-path="url(#clip320)" d="M193.936 1454.1 Q190.325 1454.1 188.496 1457.66 Q186.691 1461.2 186.691 1468.33 Q186.691 1475.44 188.496 1479.01 Q190.325 1482.55 193.936 1482.55 Q197.57 1482.55 199.376 1479.01 Q201.204 1475.44 201.204 1468.33 Q201.204 1461.2 199.376 1457.66 Q197.57 1454.1 193.936 1454.1 M193.936 1450.39 Q199.746 1450.39 202.802 1455 Q205.88 1459.58 205.88 1468.33 Q205.88 1477.06 202.802 1481.67 Q199.746 1486.25 193.936 1486.25 Q188.126 1486.25 185.047 1481.67 Q181.992 1477.06 181.992 1468.33 Q181.992 1459.58 185.047 1455 Q188.126 1450.39 193.936 1450.39 Z" fill="#000000" fill-rule="nonzero" fill-opacity="1" /><path clip-path="url(#clip320)" d="M620.353 1481.64 L636.672 1481.64 L636.672 1485.58 L614.728 1485.58 L614.728 1481.64 Q617.39 1478.89 621.973 1474.26 Q626.58 1469.61 627.76 1468.27 Q630.006 1465.74 630.885 1464.01 Q631.788 1462.25 631.788 1460.56 Q631.788 1457.8 629.843 1456.07 Q627.922 1454.33 624.82 1454.33 Q622.621 1454.33 620.168 1455.09 Q617.737 1455.86 614.959 1457.41 L614.959 1452.69 Q617.783 1451.55 620.237 1450.97 Q622.691 1450.39 624.728 1450.39 Q630.098 1450.39 633.293 1453.08 Q636.487 1455.77 636.487 1460.26 Q636.487 1462.39 635.677 1464.31 Q634.89 1466.2 632.783 1468.8 Q632.205 1469.47 629.103 1472.69 Q626.001 1475.88 620.353 1481.64 Z" fill="#000000" fill-rule="nonzero" fill-opacity="1" /><path clip-path="url(#clip320)" d="M1060.47 1455.09 L1048.67 1473.54 L1060.47 1473.54 L1060.47 1455.09 M1059.25 1451.02 L1065.13 1451.02 L1065.13 1473.54 L1070.06 1473.54 L1070.06 1477.43 L1065.13 1477.43 L1065.13 1485.58 L1060.47 1485.58 L1060.47 1477.43 L1044.87 1477.43 L1044.87 1472.92 L1059.25 1451.02 Z" fill="#000000" fill-rule="nonzero" fill-opacity="1" /><path clip-path="url(#clip320)" d="M1489.63 1466.44 Q1486.48 1466.44 1484.63 1468.59 Q1482.8 1470.74 1482.8 1474.49 Q1482.8 1478.22 1484.63 1480.39 Q1486.48 1482.55 1489.63 1482.55 Q1492.78 1482.55 1494.61 1480.39 Q1496.46 1478.22 1496.46 1474.49 Q1496.46 1470.74 1494.61 1468.59 Q1492.78 1466.44 1489.63 1466.44 M1498.92 1451.78 L1498.92 1456.04 Q1497.16 1455.21 1495.35 1454.77 Q1493.57 1454.33 1491.81 1454.33 Q1487.18 1454.33 1484.73 1457.45 Q1482.3 1460.58 1481.95 1466.9 Q1483.31 1464.89 1485.37 1463.82 Q1487.43 1462.73 1489.91 1462.73 Q1495.12 1462.73 1498.13 1465.9 Q1501.16 1469.05 1501.16 1474.49 Q1501.16 1479.82 1498.01 1483.03 Q1494.86 1486.25 1489.63 1486.25 Q1483.64 1486.25 1480.47 1481.67 Q1477.3 1477.06 1477.3 1468.33 Q1477.3 1460.14 1481.18 1455.28 Q1485.07 1450.39 1491.62 1450.39 Q1493.38 1450.39 1495.17 1450.74 Q1496.97 1451.09 1498.92 1451.78 Z" fill="#000000" fill-rule="nonzero" fill-opacity="1" /><path clip-path="url(#clip320)" d="M1920.99 1469.17 Q1917.66 1469.17 1915.74 1470.95 Q1913.84 1472.73 1913.84 1475.86 Q1913.84 1478.98 1915.74 1480.77 Q1917.66 1482.55 1920.99 1482.55 Q1924.33 1482.55 1926.25 1480.77 Q1928.17 1478.96 1928.17 1475.86 Q1928.17 1472.73 1926.25 1470.95 Q1924.35 1469.17 1920.99 1469.17 M1916.32 1467.18 Q1913.31 1466.44 1911.62 1464.38 Q1909.95 1462.32 1909.95 1459.35 Q1909.95 1455.21 1912.89 1452.8 Q1915.85 1450.39 1920.99 1450.39 Q1926.15 1450.39 1929.09 1452.8 Q1932.03 1455.21 1932.03 1459.35 Q1932.03 1462.32 1930.34 1464.38 Q1928.68 1466.44 1925.69 1467.18 Q1929.07 1467.96 1930.95 1470.26 Q1932.84 1472.55 1932.84 1475.86 Q1932.84 1480.88 1929.77 1483.57 Q1926.71 1486.25 1920.99 1486.25 Q1915.27 1486.25 1912.2 1483.57 Q1909.14 1480.88 1909.14 1475.86 Q1909.14 1472.55 1911.04 1470.26 Q1912.94 1467.96 1916.32 1467.18 M1914.6 1459.79 Q1914.6 1462.48 1916.27 1463.98 Q1917.96 1465.49 1920.99 1465.49 Q1924 1465.49 1925.69 1463.98 Q1927.4 1462.48 1927.4 1459.79 Q1927.4 1457.11 1925.69 1455.6 Q1924 1454.1 1920.99 1454.1 Q1917.96 1454.1 1916.27 1455.6 Q1914.6 1457.11 1914.6 1459.79 Z" fill="#000000" fill-rule="nonzero" fill-opacity="1" /><path clip-path="url(#clip320)" d="M2327.44 1481.64 L2335.08 1481.64 L2335.08 1455.28 L2326.77 1456.95 L2326.77 1452.69 L2335.04 1451.02 L2339.71 1451.02 L2339.71 1481.64 L2347.35 1481.64 L2347.35 1485.58 L2327.44 1485.58 L2327.44 1481.64 Z" fill="#000000" fill-rule="nonzero" fill-opacity="1" /><path clip-path="url(#clip320)" d="M2366.8 1454.1 Q2363.18 1454.1 2361.36 1457.66 Q2359.55 1461.2 2359.55 1468.33 Q2359.55 1475.44 2361.36 1479.01 Q2363.18 1482.55 2366.8 1482.55 Q2370.43 1482.55 2372.23 1479.01 Q2374.06 1475.44 2374.06 1468.33 Q2374.06 1461.2 2372.23 1457.66 Q2370.43 1454.1 2366.8 1454.1 M2366.8 1450.39 Q2372.61 1450.39 2375.66 1455 Q2378.74 1459.58 2378.74 1468.33 Q2378.74 1477.06 2375.66 1481.67 Q2372.61 1486.25 2366.8 1486.25 Q2360.99 1486.25 2357.91 1481.67 Q2354.85 1477.06 2354.85 1468.33 Q2354.85 1459.58 2357.91 1455 Q2360.99 1450.39 2366.8 1450.39 Z" fill="#000000" fill-rule="nonzero" fill-opacity="1" /><path clip-path="url(#clip320)" d="M1272.41 1522.27 L1272.41 1532.4 L1284.47 1532.4 L1284.47 1536.95 L1272.41 1536.95 L1272.41 1556.3 Q1272.41 1560.66 1273.58 1561.9 Q1274.79 1563.14 1278.45 1563.14 L1284.47 1563.14 L1284.47 1568.04 L1278.45 1568.04 Q1271.67 1568.04 1269.1 1565.53 Q1266.52 1562.98 1266.52 1556.3 L1266.52 1536.95 L1262.22 1536.95 L1262.22 1532.4 L1266.52 1532.4 L1266.52 1522.27 L1272.41 1522.27 Z" fill="#000000" fill-rule="nonzero" fill-opacity="1" /><polyline clip-path="url(#clip322)" style="stroke:#000000; stroke-linecap:round; stroke-linejoin:round; stroke-width:2; stroke-opacity:0.1; fill:none" points="193.936,1338.55 2352.76,1338.55 "/>
<polyline clip-path="url(#clip322)" style="stroke:#000000; stroke-linecap:round; stroke-linejoin:round; stroke-width:2; stroke-opacity:0.1; fill:none" points="193.936,1148.52 2352.76,1148.52 "/>
<polyline clip-path="url(#clip322)" style="stroke:#000000; stroke-linecap:round; stroke-linejoin:round; stroke-width:2; stroke-opacity:0.1; fill:none" points="193.936,958.476 2352.76,958.476 "/>
<polyline clip-path="url(#clip322)" style="stroke:#000000; stroke-linecap:round; stroke-linejoin:round; stroke-width:2; stroke-opacity:0.1; fill:none" points="193.936,768.437 2352.76,768.437 "/>
<polyline clip-path="url(#clip322)" style="stroke:#000000; stroke-linecap:round; stroke-linejoin:round; stroke-width:2; stroke-opacity:0.1; fill:none" points="193.936,578.398 2352.76,578.398 "/>
<polyline clip-path="url(#clip322)" style="stroke:#000000; stroke-linecap:round; stroke-linejoin:round; stroke-width:2; stroke-opacity:0.1; fill:none" points="193.936,388.359 2352.76,388.359 "/>
<polyline clip-path="url(#clip322)" style="stroke:#000000; stroke-linecap:round; stroke-linejoin:round; stroke-width:2; stroke-opacity:0.1; fill:none" points="193.936,198.32 2352.76,198.32 "/>
<polyline clip-path="url(#clip320)" style="stroke:#000000; stroke-linecap:round; stroke-linejoin:round; stroke-width:4; stroke-opacity:1; fill:none" points="193.936,1423.18 193.936,47.2441 "/>
<polyline clip-path="url(#clip320)" style="stroke:#000000; stroke-linecap:round; stroke-linejoin:round; stroke-width:4; stroke-opacity:1; fill:none" points="193.936,1338.55 212.834,1338.55 "/>
<polyline clip-path="url(#clip320)" style="stroke:#000000; stroke-linecap:round; stroke-linejoin:round; stroke-width:4; stroke-opacity:1; fill:none" points="193.936,1148.52 212.834,1148.52 "/>
<polyline clip-path="url(#clip320)" style="stroke:#000000; stroke-linecap:round; stroke-linejoin:round; stroke-width:4; stroke-opacity:1; fill:none" points="193.936,958.476 212.834,958.476 "/>
<polyline clip-path="url(#clip320)" style="stroke:#000000; stroke-linecap:round; stroke-linejoin:round; stroke-width:4; stroke-opacity:1; fill:none" points="193.936,768.437 212.834,768.437 "/>
<polyline clip-path="url(#clip320)" style="stroke:#000000; stroke-linecap:round; stroke-linejoin:round; stroke-width:4; stroke-opacity:1; fill:none" points="193.936,578.398 212.834,578.398 "/>
<polyline clip-path="url(#clip320)" style="stroke:#000000; stroke-linecap:round; stroke-linejoin:round; stroke-width:4; stroke-opacity:1; fill:none" points="193.936,388.359 212.834,388.359 "/>
<polyline clip-path="url(#clip320)" style="stroke:#000000; stroke-linecap:round; stroke-linejoin:round; stroke-width:4; stroke-opacity:1; fill:none" points="193.936,198.32 212.834,198.32 "/>
<path clip-path="url(#clip320)" d="M51.9875 1339.01 L81.6633 1339.01 L81.6633 1342.94 L51.9875 1342.94 L51.9875 1339.01 Z" fill="#000000" fill-rule="nonzero" fill-opacity="1" /><path clip-path="url(#clip320)" d="M92.566 1351.9 L100.205 1351.9 L100.205 1325.53 L91.8947 1327.2 L91.8947 1322.94 L100.159 1321.27 L104.834 1321.27 L104.834 1351.9 L112.473 1351.9 L112.473 1355.83 L92.566 1355.83 L92.566 1351.9 Z" fill="#000000" fill-rule="nonzero" fill-opacity="1" /><path clip-path="url(#clip320)" d="M121.918 1349.95 L126.802 1349.95 L126.802 1355.83 L121.918 1355.83 L121.918 1349.95 Z" fill="#000000" fill-rule="nonzero" fill-opacity="1" /><path clip-path="url(#clip320)" d="M137.033 1321.27 L155.39 1321.27 L155.39 1325.21 L141.316 1325.21 L141.316 1333.68 Q142.334 1333.33 143.353 1333.17 Q144.371 1332.99 145.39 1332.99 Q151.177 1332.99 154.556 1336.16 Q157.936 1339.33 157.936 1344.75 Q157.936 1350.33 154.464 1353.43 Q150.992 1356.51 144.672 1356.51 Q142.496 1356.51 140.228 1356.14 Q137.982 1355.77 135.575 1355.02 L135.575 1350.33 Q137.658 1351.46 139.881 1352.02 Q142.103 1352.57 144.58 1352.57 Q148.584 1352.57 150.922 1350.46 Q153.26 1348.36 153.26 1344.75 Q153.26 1341.14 150.922 1339.03 Q148.584 1336.92 144.58 1336.92 Q142.705 1336.92 140.83 1337.34 Q138.978 1337.76 137.033 1338.64 L137.033 1321.27 Z" fill="#000000" fill-rule="nonzero" fill-opacity="1" /><path clip-path="url(#clip320)" d="M50.9921 1148.97 L80.6679 1148.97 L80.6679 1152.9 L50.9921 1152.9 L50.9921 1148.97 Z" fill="#000000" fill-rule="nonzero" fill-opacity="1" /><path clip-path="url(#clip320)" d="M91.5706 1161.86 L99.2095 1161.86 L99.2095 1135.49 L90.8993 1137.16 L90.8993 1132.9 L99.1632 1131.24 L103.839 1131.24 L103.839 1161.86 L111.478 1161.86 L111.478 1165.8 L91.5706 1165.8 L91.5706 1161.86 Z" fill="#000000" fill-rule="nonzero" fill-opacity="1" /><path clip-path="url(#clip320)" d="M120.922 1159.92 L125.807 1159.92 L125.807 1165.8 L120.922 1165.8 L120.922 1159.92 Z" fill="#000000" fill-rule="nonzero" fill-opacity="1" /><path clip-path="url(#clip320)" d="M145.992 1134.31 Q142.381 1134.31 140.552 1137.88 Q138.746 1141.42 138.746 1148.55 Q138.746 1155.66 140.552 1159.22 Q142.381 1162.76 145.992 1162.76 Q149.626 1162.76 151.431 1159.22 Q153.26 1155.66 153.26 1148.55 Q153.26 1141.42 151.431 1137.88 Q149.626 1134.31 145.992 1134.31 M145.992 1130.61 Q151.802 1130.61 154.857 1135.22 Q157.936 1139.8 157.936 1148.55 Q157.936 1157.28 154.857 1161.88 Q151.802 1166.47 145.992 1166.47 Q140.181 1166.47 137.103 1161.88 Q134.047 1157.28 134.047 1148.55 Q134.047 1139.8 137.103 1135.22 Q140.181 1130.61 145.992 1130.61 Z" fill="#000000" fill-rule="nonzero" fill-opacity="1" /><path clip-path="url(#clip320)" d="M51.9875 958.928 L81.6633 958.928 L81.6633 962.863 L51.9875 962.863 L51.9875 958.928 Z" fill="#000000" fill-rule="nonzero" fill-opacity="1" /><path clip-path="url(#clip320)" d="M101.756 944.275 Q98.1447 944.275 96.316 947.84 Q94.5104 951.381 94.5104 958.511 Q94.5104 965.617 96.316 969.182 Q98.1447 972.724 101.756 972.724 Q105.39 972.724 107.196 969.182 Q109.024 965.617 109.024 958.511 Q109.024 951.381 107.196 947.84 Q105.39 944.275 101.756 944.275 M101.756 940.571 Q107.566 940.571 110.621 945.178 Q113.7 949.761 113.7 958.511 Q113.7 967.238 110.621 971.844 Q107.566 976.427 101.756 976.427 Q95.9456 976.427 92.8669 971.844 Q89.8114 967.238 89.8114 958.511 Q89.8114 949.761 92.8669 945.178 Q95.9456 940.571 101.756 940.571 Z" fill="#000000" fill-rule="nonzero" fill-opacity="1" /><path clip-path="url(#clip320)" d="M121.918 969.877 L126.802 969.877 L126.802 975.756 L121.918 975.756 L121.918 969.877 Z" fill="#000000" fill-rule="nonzero" fill-opacity="1" /><path clip-path="url(#clip320)" d="M137.033 941.196 L155.39 941.196 L155.39 945.131 L141.316 945.131 L141.316 953.604 Q142.334 953.256 143.353 953.094 Q144.371 952.909 145.39 952.909 Q151.177 952.909 154.556 956.08 Q157.936 959.252 157.936 964.668 Q157.936 970.247 154.464 973.349 Q150.992 976.427 144.672 976.427 Q142.496 976.427 140.228 976.057 Q137.982 975.687 135.575 974.946 L135.575 970.247 Q137.658 971.381 139.881 971.937 Q142.103 972.492 144.58 972.492 Q148.584 972.492 150.922 970.386 Q153.26 968.279 153.26 964.668 Q153.26 961.057 150.922 958.951 Q148.584 956.844 144.58 956.844 Q142.705 956.844 140.83 957.261 Q138.978 957.678 137.033 958.557 L137.033 941.196 Z" fill="#000000" fill-rule="nonzero" fill-opacity="1" /><path clip-path="url(#clip320)" d="M100.76 754.236 Q97.1493 754.236 95.3206 757.801 Q93.515 761.342 93.515 768.472 Q93.515 775.578 95.3206 779.143 Q97.1493 782.685 100.76 782.685 Q104.395 782.685 106.2 779.143 Q108.029 775.578 108.029 768.472 Q108.029 761.342 106.2 757.801 Q104.395 754.236 100.76 754.236 M100.76 750.532 Q106.571 750.532 109.626 755.139 Q112.705 759.722 112.705 768.472 Q112.705 777.199 109.626 781.805 Q106.571 786.388 100.76 786.388 Q94.9502 786.388 91.8715 781.805 Q88.816 777.199 88.816 768.472 Q88.816 759.722 91.8715 755.139 Q94.9502 750.532 100.76 750.532 Z" fill="#000000" fill-rule="nonzero" fill-opacity="1" /><path clip-path="url(#clip320)" d="M120.922 779.837 L125.807 779.837 L125.807 785.717 L120.922 785.717 L120.922 779.837 Z" fill="#000000" fill-rule="nonzero" fill-opacity="1" /><path clip-path="url(#clip320)" d="M145.992 754.236 Q142.381 754.236 140.552 757.801 Q138.746 761.342 138.746 768.472 Q138.746 775.578 140.552 779.143 Q142.381 782.685 145.992 782.685 Q149.626 782.685 151.431 779.143 Q153.26 775.578 153.26 768.472 Q153.26 761.342 151.431 757.801 Q149.626 754.236 145.992 754.236 M145.992 750.532 Q151.802 750.532 154.857 755.139 Q157.936 759.722 157.936 768.472 Q157.936 777.199 154.857 781.805 Q151.802 786.388 145.992 786.388 Q140.181 786.388 137.103 781.805 Q134.047 777.199 134.047 768.472 Q134.047 759.722 137.103 755.139 Q140.181 750.532 145.992 750.532 Z" fill="#000000" fill-rule="nonzero" fill-opacity="1" /><path clip-path="url(#clip320)" d="M101.756 564.197 Q98.1447 564.197 96.316 567.761 Q94.5104 571.303 94.5104 578.433 Q94.5104 585.539 96.316 589.104 Q98.1447 592.645 101.756 592.645 Q105.39 592.645 107.196 589.104 Q109.024 585.539 109.024 578.433 Q109.024 571.303 107.196 567.761 Q105.39 564.197 101.756 564.197 M101.756 560.493 Q107.566 560.493 110.621 565.099 Q113.7 569.683 113.7 578.433 Q113.7 587.159 110.621 591.766 Q107.566 596.349 101.756 596.349 Q95.9456 596.349 92.8669 591.766 Q89.8114 587.159 89.8114 578.433 Q89.8114 569.683 92.8669 565.099 Q95.9456 560.493 101.756 560.493 Z" fill="#000000" fill-rule="nonzero" fill-opacity="1" /><path clip-path="url(#clip320)" d="M121.918 589.798 L126.802 589.798 L126.802 595.678 L121.918 595.678 L121.918 589.798 Z" fill="#000000" fill-rule="nonzero" fill-opacity="1" /><path clip-path="url(#clip320)" d="M137.033 561.118 L155.39 561.118 L155.39 565.053 L141.316 565.053 L141.316 573.525 Q142.334 573.178 143.353 573.016 Q144.371 572.831 145.39 572.831 Q151.177 572.831 154.556 576.002 Q157.936 579.173 157.936 584.59 Q157.936 590.169 154.464 593.27 Q150.992 596.349 144.672 596.349 Q142.496 596.349 140.228 595.979 Q137.982 595.608 135.575 594.868 L135.575 590.169 Q137.658 591.303 139.881 591.858 Q142.103 592.414 144.58 592.414 Q148.584 592.414 150.922 590.308 Q153.26 588.201 153.26 584.59 Q153.26 580.979 150.922 578.872 Q148.584 576.766 144.58 576.766 Q142.705 576.766 140.83 577.183 Q138.978 577.599 137.033 578.479 L137.033 561.118 Z" fill="#000000" fill-rule="nonzero" fill-opacity="1" /><path clip-path="url(#clip320)" d="M91.5706 401.704 L99.2095 401.704 L99.2095 375.338 L90.8993 377.005 L90.8993 372.745 L99.1632 371.079 L103.839 371.079 L103.839 401.704 L111.478 401.704 L111.478 405.639 L91.5706 405.639 L91.5706 401.704 Z" fill="#000000" fill-rule="nonzero" fill-opacity="1" /><path clip-path="url(#clip320)" d="M120.922 399.759 L125.807 399.759 L125.807 405.639 L120.922 405.639 L120.922 399.759 Z" fill="#000000" fill-rule="nonzero" fill-opacity="1" /><path clip-path="url(#clip320)" d="M145.992 374.157 Q142.381 374.157 140.552 377.722 Q138.746 381.264 138.746 388.393 Q138.746 395.5 140.552 399.065 Q142.381 402.606 145.992 402.606 Q149.626 402.606 151.431 399.065 Q153.26 395.5 153.26 388.393 Q153.26 381.264 151.431 377.722 Q149.626 374.157 145.992 374.157 M145.992 370.454 Q151.802 370.454 154.857 375.06 Q157.936 379.644 157.936 388.393 Q157.936 397.12 154.857 401.727 Q151.802 406.31 145.992 406.31 Q140.181 406.31 137.103 401.727 Q134.047 397.12 134.047 388.393 Q134.047 379.644 137.103 375.06 Q140.181 370.454 145.992 370.454 Z" fill="#000000" fill-rule="nonzero" fill-opacity="1" /><path clip-path="url(#clip320)" d="M92.566 211.664 L100.205 211.664 L100.205 185.299 L91.8947 186.965 L91.8947 182.706 L100.159 181.04 L104.834 181.04 L104.834 211.664 L112.473 211.664 L112.473 215.6 L92.566 215.6 L92.566 211.664 Z" fill="#000000" fill-rule="nonzero" fill-opacity="1" /><path clip-path="url(#clip320)" d="M121.918 209.72 L126.802 209.72 L126.802 215.6 L121.918 215.6 L121.918 209.72 Z" fill="#000000" fill-rule="nonzero" fill-opacity="1" /><path clip-path="url(#clip320)" d="M137.033 181.04 L155.39 181.04 L155.39 184.975 L141.316 184.975 L141.316 193.447 Q142.334 193.1 143.353 192.938 Q144.371 192.752 145.39 192.752 Q151.177 192.752 154.556 195.924 Q157.936 199.095 157.936 204.512 Q157.936 210.09 154.464 213.192 Q150.992 216.271 144.672 216.271 Q142.496 216.271 140.228 215.901 Q137.982 215.53 135.575 214.789 L135.575 210.09 Q137.658 211.225 139.881 211.78 Q142.103 212.336 144.58 212.336 Q148.584 212.336 150.922 210.229 Q153.26 208.123 153.26 204.512 Q153.26 200.901 150.922 198.794 Q148.584 196.688 144.58 196.688 Q142.705 196.688 140.83 197.104 Q138.978 197.521 137.033 198.401 L137.033 181.04 Z" fill="#000000" fill-rule="nonzero" fill-opacity="1" /><polyline clip-path="url(#clip322)" style="stroke:#009af9; stroke-linecap:round; stroke-linejoin:round; stroke-width:4; stroke-opacity:1; fill:none" points="193.936,768.437 196.097,765.701 198.258,763.001 200.419,760.336 202.58,757.707 204.741,755.113 206.902,752.554 209.063,750.028 211.224,747.536 213.385,745.076 215.546,742.65 217.707,740.255 219.868,737.893 222.029,735.561 224.19,733.261 226.351,730.991 228.512,728.751 230.673,726.541 232.834,724.36 234.995,722.208 237.156,720.084 239.317,717.989 241.478,715.922 243.639,713.882 245.8,711.869 247.961,709.882 250.122,707.922 252.282,705.988 254.443,704.08 256.604,702.197 258.765,700.339 260.926,698.505 263.087,696.696 265.248,694.911 267.409,693.149 269.57,691.411 271.731,689.696 273.892,688.003 276.053,686.333 278.214,684.686 280.375,683.06 282.536,681.455 284.697,679.872 286.858,678.31 289.019,676.769 291.18,675.248 293.341,673.747 295.502,672.266 297.663,670.804 299.824,669.363 301.985,667.94 304.146,666.536 306.307,665.15 308.468,663.784 310.629,662.435 312.79,661.104 314.951,659.79 317.112,658.495 319.273,657.216 321.434,655.954 323.595,654.709 325.756,653.48 327.917,652.268 330.078,651.072 332.239,649.892 334.4,648.727 336.561,647.578 338.722,646.444 340.883,645.325 343.044,644.221 345.205,643.131 347.366,642.056 349.527,640.995 351.688,639.949 353.849,638.916 356.01,637.897 358.171,636.891 360.332,635.899 362.493,634.92 364.653,633.954 366.814,633 368.975,632.059 371.136,631.131 373.297,630.215 375.458,629.312 377.619,628.42 379.78,627.54 381.941,626.671 384.102,625.815 386.263,624.969 388.424,624.135 390.585,623.312 392.746,622.499 394.907,621.698 397.068,620.905 399.229,619.69 401.39,618.341 403.551,617.554 405.712,617.744 407.873,619.047 410.034,621.322 412.195,624.15 414.356,626.875 416.517,629.451 418.678,631.993 420.839,634.501 423,636.975 425.161,639.417 427.322,641.827 429.483,644.204 431.644,646.55 433.805,648.865 435.966,651.15 438.127,653.404 440.288,655.628 442.449,657.822 444.61,659.988 446.771,662.125 448.932,664.233 451.093,666.314 453.254,668.366 455.415,670.392 457.576,672.391 459.737,674.363 461.898,676.309 464.059,678.23 466.22,680.125 468.381,681.994 470.542,683.839 472.703,685.66 474.864,687.456 477.024,689.229 479.185,690.978 481.346,692.704 483.507,694.407 485.668,696.087 487.829,697.746 489.99,699.382 492.151,700.996 494.312,702.589 496.473,704.161 498.634,705.713 500.795,707.243 502.956,708.753 505.117,710.244 507.278,711.714 509.439,713.165 511.6,714.597 513.761,716.01 515.922,717.404 518.083,718.779 520.244,720.136 522.405,721.476 524.566,722.797 526.727,724.101 528.888,725.388 531.049,726.658 533.21,727.911 535.371,729.147 537.532,730.367 539.693,731.57 541.854,732.758 544.015,733.93 546.176,735.087 548.337,736.228 550.498,737.354 552.659,738.465 554.82,739.561 556.981,740.643 559.142,741.711 561.303,742.764 563.464,743.803 565.625,744.829 567.786,745.841 569.947,746.839 572.108,747.825 574.269,748.797 576.43,749.756 578.591,750.703 580.752,751.637 582.913,752.559 585.074,753.468 587.235,754.365 589.396,755.251 591.556,756.125 593.717,756.987 595.878,757.837 598.039,758.677 600.2,759.505 602.361,760.323 604.522,761.129 606.683,761.925 608.844,762.71 611.005,763.485 613.166,764.25 615.327,765.004 617.488,765.749 619.649,766.483 621.81,767.208 623.971,767.923 626.132,767.491 628.293,762.616 630.454,757.806 632.615,753.06 634.776,748.376 636.937,743.754 639.098,739.194 641.259,734.694 643.42,730.254 645.581,725.873 647.742,721.549 649.903,717.284 652.064,713.074 654.225,708.921 656.386,704.822 658.547,700.778 660.708,696.788 662.869,692.85 665.03,688.965 667.191,685.131 669.352,681.348 671.513,677.615 673.674,673.931 675.835,670.297 677.996,666.71 680.157,663.171 682.318,659.68 684.479,656.234 686.64,652.834 688.801,649.479 690.962,646.169 693.123,642.902 695.284,639.679 697.445,636.498 699.606,633.36 701.767,630.263 703.927,627.208 706.088,624.193 708.249,621.218 710.41,618.282 712.571,615.385 714.732,612.527 716.893,609.706 719.054,606.923 721.215,604.177 723.376,601.467 725.537,598.793 727.698,596.155 729.859,593.551 732.02,590.983 734.181,588.448 736.342,585.946 738.503,583.478 740.664,581.043 742.825,578.64 744.986,576.269 747.147,573.929 749.308,571.62 751.469,569.342 753.63,567.094 755.791,564.876 757.952,562.687 760.113,560.528 762.274,558.397 764.435,556.294 766.596,554.219 768.757,552.171 770.918,550.151 773.079,548.158 775.24,546.191 777.401,544.25 779.562,542.334 781.723,540.444 783.884,538.579 786.045,536.739 788.206,534.924 790.367,533.132 792.528,531.364 794.689,529.62 796.85,527.898 799.011,526.2 801.172,524.524 803.333,522.87 805.494,521.238 807.655,519.628 809.816,518.039 811.977,516.472 814.138,514.925 816.298,513.398 818.459,511.892 820.62,510.406 822.781,508.939 824.942,507.492 827.103,506.064 829.264,504.655 831.425,503.265 833.586,501.893 835.747,500.54 837.908,499.204 840.069,497.762 842.23,495.934 844.391,493.745 846.552,491.233 848.713,488.435 850.874,485.384 853.035,482.114 855.196,478.656 857.357,475.04 859.518,471.294 861.679,467.444 863.84,463.515 866.001,459.529 868.162,455.509 870.323,451.474 872.484,447.441 874.645,443.427 876.806,439.448 878.967,435.515 881.128,431.639 883.289,427.832 885.45,424.101 887.611,420.451 889.772,416.888 891.933,413.415 894.094,410.033 896.255,406.741 898.416,403.539 900.577,400.421 902.738,397.383 904.899,394.418 907.06,391.516 909.221,388.669 911.382,385.863 913.543,383.085 915.704,380.32 917.865,377.551 920.026,374.783 922.187,372.051 924.348,369.355 926.509,366.695 928.669,364.07 930.83,361.48 932.991,358.925 935.152,356.403 937.313,353.914 939.474,351.459 941.635,349.036 943.796,346.646 945.957,344.287 948.118,341.959 950.279,339.662 952.44,337.396 954.601,335.159 956.762,332.953 958.923,330.775 961.084,328.627 963.245,326.507 965.406,324.415 967.567,322.354 969.728,320.356 971.889,318.426 974.05,316.555 976.211,314.738 978.372,312.968 980.533,311.24 982.694,309.547 984.855,307.884 987.016,306.247 989.177,304.629 991.338,303.027 993.499,301.435 995.66,299.85 997.821,298.268 999.982,296.684 1002.14,295.096 1004.3,293.5 1006.46,291.893 1008.63,290.272 1010.79,288.636 1012.95,286.981 1015.11,285.306 1017.27,283.609 1019.43,281.888 1021.59,280.143 1023.75,278.372 1025.91,276.574 1028.07,274.75 1030.24,272.898 1032.4,271.019 1034.56,269.114 1036.72,267.182 1038.88,265.224 1041.04,263.241 1043.2,261.236 1045.36,259.208 1047.52,257.16 1049.68,255.095 1051.85,253.013 1054.01,250.918 1056.17,248.812 1058.33,246.699 1060.49,244.581 1062.65,242.463 1064.81,240.347 1066.97,238.239 1069.13,236.141 1071.29,234.059 1073.46,231.998 1075.62,229.961 1077.78,227.956 1079.94,225.987 1082.1,224.059 1084.26,222.179 1086.42,220.354 1088.58,218.574 1090.74,216.819 1092.9,215.087 1095.07,213.378 1097.23,211.692 1099.39,210.028 1101.55,208.386 1103.71,206.766 1105.87,205.167 1108.03,203.589 1110.19,202.033 1112.35,200.497 1114.51,198.981 1116.67,197.486 1118.84,196.01 1121,194.554 1123.16,193.118 1125.32,191.7 1127.48,190.301 1129.64,188.921 1131.8,187.559 1133.96,186.215 1136.12,184.889 1138.28,183.58 1140.45,182.289 1142.61,181.015 1144.77,179.757 1146.93,178.517 1149.09,177.293 1151.25,176.085 1153.41,174.893 1155.57,173.717 1157.73,172.556 1159.89,171.411 1162.06,170.281 1164.22,169.166 1166.38,168.065 1168.54,166.979 1170.7,165.907 1172.86,164.85 1175.02,163.807 1177.18,162.777 1179.34,161.761 1181.5,160.759 1183.67,159.77 1185.83,158.794 1187.99,157.831 1190.15,156.881 1192.31,155.943 1194.47,155.018 1196.63,154.105 1198.79,153.205 1200.95,152.316 1203.11,151.439 1205.28,150.574 1207.44,149.72 1209.6,148.878 1211.76,148.047 1213.92,147.227 1216.08,146.418 1218.24,145.619 1220.4,144.832 1222.56,144.054 1224.72,143.288 1226.88,142.531 1229.05,141.784 1231.21,141.047 1233.37,140.32 1235.53,139.603 1237.69,138.895 1239.85,138.197 1242.01,137.507 1244.17,136.827 1246.33,136.156 1248.49,135.494 1250.66,134.841 1252.82,134.196 1254.98,133.56 1257.14,132.932 1259.3,132.312 1261.46,131.701 1263.62,131.097 1265.78,130.502 1267.94,130.008 1270.1,130.128 1272.27,130.89 1274.43,132.236 1276.59,134.111 1278.75,136.46 1280.91,139.234 1283.07,142.383 1285.23,145.862 1287.39,149.625 1289.55,153.631 1291.71,157.84 1293.88,162.215 1296.04,166.721 1298.2,171.324 1300.36,175.994 1302.52,180.703 1304.68,185.425 1306.84,190.135 1309,194.813 1311.16,199.438 1313.32,203.993 1315.49,208.465 1317.65,212.84 1319.81,217.108 1321.97,221.261 1324.13,225.293 1326.29,229.201 1328.45,232.983 1330.61,236.64 1332.77,240.177 1334.93,243.597 1337.09,246.91 1339.26,250.124 1341.42,253.253 1343.58,256.311 1345.74,259.314 1347.9,262.283 1350.06,265.237 1352.22,268.202 1354.38,271.201 1356.54,274.199 1358.7,277.156 1360.87,280.075 1363.03,282.954 1365.19,285.796 1367.35,288.599 1369.51,291.366 1371.67,294.096 1373.83,296.79 1375.99,299.448 1378.15,302.07 1380.31,304.658 1382.48,307.212 1384.64,309.732 1386.8,312.218 1388.96,314.672 1391.12,317.092 1393.28,319.481 1395.44,321.838 1397.6,324.164 1399.76,326.459 1401.92,328.724 1404.09,330.958 1406.25,333.163 1408.41,335.339 1410.57,337.486 1412.73,339.605 1414.89,341.695 1417.05,343.758 1419.21,345.793 1421.37,347.801 1423.53,349.783 1425.7,351.739 1427.86,353.668 1430.02,355.572 1432.18,357.451 1434.34,359.305 1436.5,361.134 1438.66,362.939 1440.82,364.72 1442.98,366.477 1445.14,368.211 1447.3,369.922 1449.47,371.611 1451.63,373.277 1453.79,374.92 1455.95,376.542 1458.11,378.143 1460.27,379.722 1462.43,381.281 1464.59,382.818 1466.75,384.336 1468.91,385.833 1471.08,387.31 1473.24,388.768 1475.4,390.207 1477.56,391.626 1479.72,393.027 1481.88,394.457 1484.04,396.868 1486.2,400.512 1488.36,405.248 1490.52,410.937 1492.69,417.452 1494.85,424.669 1497.01,432.476 1499.17,440.763 1501.33,449.432 1503.49,458.389 1505.65,467.55 1507.81,476.837 1509.97,486.178 1512.13,495.511 1514.3,504.779 1516.46,513.934 1518.62,522.934 1520.78,531.746 1522.94,540.342 1525.1,548.702 1527.26,556.816 1529.42,564.677 1531.58,572.289 1533.74,579.661 1535.91,586.811 1538.07,593.762 1540.23,600.547 1542.39,607.204 1544.55,613.78 1546.71,620.328 1548.87,626.91 1551.03,633.519 1553.19,640.043 1555.35,646.48 1557.51,652.832 1559.68,659.1 1561.84,665.285 1564,671.387 1566.16,677.409 1568.32,683.351 1570.48,689.214 1572.64,694.999 1574.8,700.708 1576.96,706.341 1579.12,711.9 1581.29,717.384 1583.45,722.796 1585.61,728.136 1587.77,733.406 1589.93,738.605 1592.09,743.736 1594.25,748.799 1596.41,753.795 1598.57,758.724 1600.73,763.589 1602.9,768.388 1605.06,773.125 1607.22,777.798 1609.38,782.41 1611.54,786.96 1613.7,791.45 1615.86,795.88 1618.02,800.252 1620.18,804.566 1622.34,808.822 1624.51,813.022 1626.67,817.166 1628.83,821.255 1630.99,825.29 1633.15,829.271 1635.31,833.199 1637.47,837.076 1639.63,840.9 1641.79,844.674 1643.95,848.398 1646.12,852.073 1648.28,855.699 1650.44,859.276 1652.6,862.807 1654.76,866.29 1656.92,869.728 1659.08,873.119 1661.24,876.466 1663.4,879.769 1665.56,883.027 1667.72,886.243 1669.89,889.416 1672.05,892.547 1674.21,895.637 1676.37,898.685 1678.53,901.693 1680.69,904.662 1682.85,907.591 1685.01,910.481 1687.17,913.333 1689.33,916.147 1691.5,918.924 1693.66,921.664 1695.82,924.367 1697.98,927.035 1700.14,929.667 1702.3,932.265 1704.46,934.467 1706.62,932.692 1708.78,927.264 1710.94,919.544 1713.11,910.634 1715.27,901.38 1717.43,892.37 1719.59,883.935 1721.75,876.148 1723.91,868.825 1726.07,861.527 1728.23,854.066 1730.39,846.704 1732.55,839.439 1734.72,832.271 1736.88,825.197 1739.04,818.218 1741.2,811.331 1743.36,804.535 1745.52,797.829 1747.68,791.212 1749.84,784.683 1752,778.241 1754.16,771.884 1756.33,765.611 1758.49,759.421 1760.65,753.314 1762.81,747.287 1764.97,741.341 1767.13,735.473 1769.29,729.683 1771.45,723.97 1773.61,718.332 1775.77,712.77 1777.93,707.281 1780.1,701.865 1782.26,696.52 1784.42,691.247 1786.58,686.043 1788.74,680.908 1790.9,675.842 1793.06,670.842 1795.22,665.909 1797.38,661.041 1799.54,656.238 1801.71,651.499 1803.87,646.822 1806.03,642.207 1808.19,637.654 1810.35,633.161 1812.51,628.727 1814.67,624.352 1816.83,620.036 1818.99,615.776 1821.15,611.573 1823.32,607.426 1825.48,603.333 1827.64,599.295 1829.8,595.311 1831.96,591.379 1834.12,587.499 1836.28,583.671 1838.44,579.894 1840.6,576.166 1842.76,572.488 1844.93,568.859 1847.09,565.278 1849.25,561.744 1851.41,558.257 1853.57,554.817 1855.73,551.422 1857.89,548.072 1860.05,544.766 1862.21,541.505 1864.37,538.286 1866.54,535.111 1868.7,531.977 1870.86,528.885 1873.02,525.834 1875.18,522.824 1877.34,519.853 1879.5,516.922 1881.66,514.029 1883.82,511.175 1885.98,508.359 1888.15,505.58 1890.31,502.838 1892.47,500.133 1894.63,497.463 1896.79,494.829 1898.95,492.229 1901.11,489.664 1903.27,487.132 1905.43,484.329 1907.59,481.22 1909.75,478.096 1911.92,475.198 1914.08,472.718 1916.24,470.799 1918.4,469.532 1920.56,468.959 1922.72,469.071 1924.88,469.811 1927.04,471.072 1929.2,472.694 1931.36,474.472 1933.53,476.146 1935.69,477.596 1937.85,479.021 1940.01,480.427 1942.17,481.814 1944.33,483.183 1946.49,484.534 1948.65,485.866 1950.81,487.181 1952.97,488.479 1955.14,489.76 1957.3,491.023 1959.46,492.27 1961.62,493.501 1963.78,494.715 1965.94,495.913 1968.1,497.095 1970.26,498.262 1972.42,499.413 1974.58,500.548 1976.75,501.669 1978.91,502.775 1981.07,503.866 1983.23,504.943 1985.39,506.005 1987.55,507.053 1989.71,508.088 1991.87,509.108 1994.03,510.115 1996.19,511.109 1998.36,512.089 2000.52,513.057 2002.68,514.011 2004.84,514.953 2007,515.883 2009.16,516.8 2011.32,517.705 2013.48,518.598 2015.64,519.479 2017.8,520.348 2019.96,521.206 2022.13,522.052 2024.29,522.887 2026.45,523.711 2028.61,524.525 2030.77,525.327 2032.93,526.119 2035.09,526.9 2037.25,527.671 2039.41,528.432 2041.57,529.183 2043.74,529.923 2045.9,530.654 2048.06,531.376 2050.22,532.087 2052.38,532.79 2054.54,533.483 2056.7,534.167 2058.86,534.841 2061.02,535.507 2063.18,536.164 2065.35,536.813 2067.51,537.452 2069.67,538.084 2071.83,538.707 2073.99,539.321 2076.15,539.928 2078.31,540.526 2080.47,541.117 2082.63,541.699 2084.79,542.274 2086.96,542.841 2089.12,543.401 2091.28,543.953 2093.44,544.498 2095.6,545.036 2097.76,545.567 2099.92,546.09 2102.08,546.607 2104.24,547.117 2106.4,547.62 2108.57,548.116 2110.73,548.606 2112.89,549.089 2115.05,549.566 2117.21,550.037 2119.37,550.501 2121.53,550.959 2123.69,551.412 2125.85,551.858 2128.01,552.298 2130.17,552.732 2132.34,553.161 2134.5,554.226 2136.66,557.442 2138.82,562.567 2140.98,569.29 2143.14,577.322 2145.3,586.397 2147.46,596.273 2149.62,606.73 2151.78,617.569 2153.95,628.615 2156.11,639.718 2158.27,650.748 2160.43,661.598 2162.59,672.185 2164.75,682.449 2166.91,692.35 2169.07,701.875 2171.23,711.029 2173.39,719.845 2175.56,728.374 2177.72,736.693 2179.88,744.901 2182.04,753.119 2184.2,761.445 2186.36,769.702 2188.52,777.85 2190.68,785.889 2192.84,793.822 2195,801.65 2197.17,809.374 2199.33,816.995 2201.49,824.516 2203.65,831.937 2205.81,839.259 2207.97,846.485 2210.13,853.614 2212.29,860.649 2214.45,867.591 2216.61,874.441 2218.78,881.2 2220.94,887.869 2223.1,894.451 2225.26,900.944 2227.42,907.352 2229.58,913.675 2231.74,919.913 2233.9,926.069 2236.06,932.144 2238.22,938.138 2240.38,944.052 2242.55,949.888 2244.71,955.647 2246.87,961.329 2249.03,966.936 2251.19,972.468 2253.35,977.927 2255.51,983.314 2257.67,988.629 2259.83,993.874 2261.99,999.049 2264.16,1004.16 2266.32,1009.2 2268.48,1014.17 2270.64,1019.07 2272.8,1023.92 2274.96,1028.69 2277.12,1033.41 2279.28,1038.06 2281.44,1042.65 2283.6,1047.18 2285.77,1051.65 2287.93,1056.05 2290.09,1060.41 2292.25,1064.7 2294.41,1068.94 2296.57,1073.12 2298.73,1077.24 2300.89,1081.31 2303.05,1085.33 2305.21,1089.29 2307.38,1093.2 2309.54,1097.06 2311.7,1100.87 2313.86,1104.62 2316.02,1108.33 2318.18,1111.99 2320.34,1115.6 2322.5,1119.16 2324.66,1122.67 2326.82,1126.14 2328.99,1129.56 2331.15,1132.94 2333.31,1136.27 2335.47,1139.56 2337.63,1142.8 2339.79,1146 2341.95,1149.16 2344.11,1152.28 2346.27,1155.35 2348.43,1158.39 2350.59,1161.38 2352.76,1164.34 "/>
<polyline clip-path="url(#clip322)" style="stroke:#e26f46; stroke-linecap:round; stroke-linejoin:round; stroke-width:4; stroke-opacity:1; fill:none" points="193.936,562.046 196.097,562.046 198.258,562.046 200.419,562.046 202.58,562.046 204.741,562.046 206.902,562.046 209.063,562.046 211.224,562.046 213.385,562.046 215.546,562.046 217.707,562.046 219.868,562.046 222.029,562.046 224.19,562.046 226.351,562.046 228.512,562.046 230.673,562.046 232.834,562.046 234.995,562.046 237.156,562.046 239.317,562.046 241.478,562.046 243.639,562.046 245.8,562.046 247.961,562.046 250.122,562.046 252.282,562.046 254.443,562.046 256.604,562.046 258.765,562.046 260.926,562.046 263.087,562.046 265.248,562.046 267.409,562.046 269.57,562.046 271.731,562.046 273.892,562.046 276.053,562.046 278.214,562.046 280.375,562.046 282.536,562.046 284.697,562.046 286.858,562.046 289.019,562.046 291.18,562.046 293.341,562.046 295.502,562.046 297.663,562.046 299.824,562.046 301.985,562.046 304.146,562.046 306.307,562.046 308.468,562.046 310.629,562.046 312.79,562.046 314.951,562.046 317.112,562.046 319.273,562.046 321.434,562.046 323.595,562.046 325.756,562.046 327.917,562.046 330.078,562.046 332.239,562.046 334.4,562.046 336.561,562.046 338.722,562.046 340.883,562.046 343.044,562.046 345.205,562.046 347.366,562.046 349.527,562.046 351.688,562.046 353.849,562.046 356.01,562.046 358.171,562.046 360.332,562.046 362.493,562.046 364.653,562.046 366.814,562.046 368.975,562.046 371.136,562.046 373.297,562.046 375.458,562.046 377.619,562.046 379.78,562.046 381.941,562.046 384.102,562.046 386.263,562.046 388.424,562.046 390.585,562.046 392.746,562.046 394.907,562.046 397.068,562.046 399.229,562.046 401.39,562.046 403.551,562.046 405.712,562.046 407.873,562.046 410.034,821.157 412.195,821.157 414.356,821.157 416.517,821.157 418.678,821.157 420.839,821.157 423,821.157 425.161,821.157 427.322,821.157 429.483,821.157 431.644,821.157 433.805,821.157 435.966,821.157 438.127,821.157 440.288,821.157 442.449,821.157 444.61,821.157 446.771,821.157 448.932,821.157 451.093,821.157 453.254,821.157 455.415,821.157 457.576,821.157 459.737,821.157 461.898,821.157 464.059,821.157 466.22,821.157 468.381,821.157 470.542,821.157 472.703,821.157 474.864,821.157 477.024,821.157 479.185,821.157 481.346,821.157 483.507,821.157 485.668,821.157 487.829,821.157 489.99,821.157 492.151,821.157 494.312,821.157 496.473,821.157 498.634,821.157 500.795,821.157 502.956,821.157 505.117,821.157 507.278,821.157 509.439,821.157 511.6,821.157 513.761,821.157 515.922,821.157 518.083,821.157 520.244,821.157 522.405,821.157 524.566,821.157 526.727,821.157 528.888,821.157 531.049,821.157 533.21,821.157 535.371,821.157 537.532,821.157 539.693,821.157 541.854,821.157 544.015,821.157 546.176,821.157 548.337,821.157 550.498,821.157 552.659,821.157 554.82,821.157 556.981,821.157 559.142,821.157 561.303,821.157 563.464,821.157 565.625,821.157 567.786,821.157 569.947,821.157 572.108,821.157 574.269,821.157 576.43,821.157 578.591,821.157 580.752,821.157 582.913,821.157 585.074,821.157 587.235,821.157 589.396,821.157 591.556,821.157 593.717,821.157 595.878,821.157 598.039,821.157 600.2,821.157 602.361,821.157 604.522,821.157 606.683,821.157 608.844,821.157 611.005,821.157 613.166,821.157 615.327,821.157 617.488,821.157 619.649,821.157 621.81,821.157 623.971,821.157 626.132,399.789 628.293,399.789 630.454,399.789 632.615,399.789 634.776,399.789 636.937,399.789 639.098,399.789 641.259,399.789 643.42,399.789 645.581,399.789 647.742,399.789 649.903,399.789 652.064,399.789 654.225,399.789 656.386,399.789 658.547,399.789 660.708,399.789 662.869,399.789 665.03,399.789 667.191,399.789 669.352,399.789 671.513,399.789 673.674,399.789 675.835,399.789 677.996,399.789 680.157,399.789 682.318,399.789 684.479,399.789 686.64,399.789 688.801,399.789 690.962,399.789 693.123,399.789 695.284,399.789 697.445,399.789 699.606,399.789 701.767,399.789 703.927,399.789 706.088,399.789 708.249,399.789 710.41,399.789 712.571,399.789 714.732,399.789 716.893,399.789 719.054,399.789 721.215,399.789 723.376,399.789 725.537,399.789 727.698,399.789 729.859,399.789 732.02,399.789 734.181,399.789 736.342,399.789 738.503,399.789 740.664,399.789 742.825,399.789 744.986,399.789 747.147,399.789 749.308,399.789 751.469,399.789 753.63,399.789 755.791,399.789 757.952,399.789 760.113,399.789 762.274,399.789 764.435,399.789 766.596,399.789 768.757,399.789 770.918,399.789 773.079,399.789 775.24,399.789 777.401,399.789 779.562,399.789 781.723,399.789 783.884,399.789 786.045,399.789 788.206,399.789 790.367,399.789 792.528,399.789 794.689,399.789 796.85,399.789 799.011,399.789 801.172,399.789 803.333,399.789 805.494,399.789 807.655,399.789 809.816,399.789 811.977,399.789 814.138,399.789 816.298,399.789 818.459,399.789 820.62,399.789 822.781,399.789 824.942,399.789 827.103,399.789 829.264,399.789 831.425,399.789 833.586,399.789 835.747,399.789 837.908,399.789 840.069,399.789 842.23,168.717 844.391,168.717 846.552,168.717 848.713,168.717 850.874,168.717 853.035,168.717 855.196,168.717 857.357,168.717 859.518,168.717 861.679,168.717 863.84,168.717 866.001,168.717 868.162,168.717 870.323,168.717 872.484,168.717 874.645,168.717 876.806,168.717 878.967,168.717 881.128,168.717 883.289,168.717 885.45,168.717 887.611,168.717 889.772,168.717 891.933,168.717 894.094,168.717 896.255,168.717 898.416,168.717 900.577,168.717 902.738,168.717 904.899,168.717 907.06,168.717 909.221,168.717 911.382,168.717 913.543,168.717 915.704,168.717 917.865,168.717 920.026,168.717 922.187,168.717 924.348,168.717 926.509,168.717 928.669,168.717 930.83,168.717 932.991,168.717 935.152,168.717 937.313,168.717 939.474,168.717 941.635,168.717 943.796,168.717 945.957,168.717 948.118,168.717 950.279,168.717 952.44,168.717 954.601,168.717 956.762,168.717 958.923,168.717 961.084,168.717 963.245,168.717 965.406,168.717 967.567,168.717 969.728,168.717 971.889,168.717 974.05,168.717 976.211,168.717 978.372,168.717 980.533,168.717 982.694,168.717 984.855,168.717 987.016,168.717 989.177,168.717 991.338,168.717 993.499,168.717 995.66,168.717 997.821,168.717 999.982,168.717 1002.14,168.717 1004.3,168.717 1006.46,168.717 1008.63,168.717 1010.79,168.717 1012.95,168.717 1015.11,168.717 1017.27,168.717 1019.43,168.717 1021.59,168.717 1023.75,168.717 1025.91,168.717 1028.07,168.717 1030.24,168.717 1032.4,168.717 1034.56,168.717 1036.72,168.717 1038.88,168.717 1041.04,168.717 1043.2,168.717 1045.36,168.717 1047.52,168.717 1049.68,168.717 1051.85,168.717 1054.01,168.717 1056.17,168.717 1058.33,86.1857 1060.49,86.1857 1062.65,86.1857 1064.81,86.1857 1066.97,86.1857 1069.13,86.1857 1071.29,86.1857 1073.46,86.1857 1075.62,86.1857 1077.78,86.1857 1079.94,86.1857 1082.1,86.1857 1084.26,86.1857 1086.42,86.1857 1088.58,86.1857 1090.74,86.1857 1092.9,86.1857 1095.07,86.1857 1097.23,86.1857 1099.39,86.1857 1101.55,86.1857 1103.71,86.1857 1105.87,86.1857 1108.03,86.1857 1110.19,86.1857 1112.35,86.1857 1114.51,86.1857 1116.67,86.1857 1118.84,86.1857 1121,86.1857 1123.16,86.1857 1125.32,86.1857 1127.48,86.1857 1129.64,86.1857 1131.8,86.1857 1133.96,86.1857 1136.12,86.1857 1138.28,86.1857 1140.45,86.1857 1142.61,86.1857 1144.77,86.1857 1146.93,86.1857 1149.09,86.1857 1151.25,86.1857 1153.41,86.1857 1155.57,86.1857 1157.73,86.1857 1159.89,86.1857 1162.06,86.1857 1164.22,86.1857 1166.38,86.1857 1168.54,86.1857 1170.7,86.1857 1172.86,86.1857 1175.02,86.1857 1177.18,86.1857 1179.34,86.1857 1181.5,86.1857 1183.67,86.1857 1185.83,86.1857 1187.99,86.1857 1190.15,86.1857 1192.31,86.1857 1194.47,86.1857 1196.63,86.1857 1198.79,86.1857 1200.95,86.1857 1203.11,86.1857 1205.28,86.1857 1207.44,86.1857 1209.6,86.1857 1211.76,86.1857 1213.92,86.1857 1216.08,86.1857 1218.24,86.1857 1220.4,86.1857 1222.56,86.1857 1224.72,86.1857 1226.88,86.1857 1229.05,86.1857 1231.21,86.1857 1233.37,86.1857 1235.53,86.1857 1237.69,86.1857 1239.85,86.1857 1242.01,86.1857 1244.17,86.1857 1246.33,86.1857 1248.49,86.1857 1250.66,86.1857 1252.82,86.1857 1254.98,86.1857 1257.14,86.1857 1259.3,86.1857 1261.46,86.1857 1263.62,86.1857 1265.78,86.1857 1267.94,86.1857 1270.1,86.1857 1272.27,86.1857 1274.43,497.271 1276.59,497.271 1278.75,497.271 1280.91,497.271 1283.07,497.271 1285.23,497.271 1287.39,497.271 1289.55,497.271 1291.71,497.271 1293.88,497.271 1296.04,497.271 1298.2,497.271 1300.36,497.271 1302.52,497.271 1304.68,497.271 1306.84,497.271 1309,497.271 1311.16,497.271 1313.32,497.271 1315.49,497.271 1317.65,497.271 1319.81,497.271 1321.97,497.271 1324.13,497.271 1326.29,497.271 1328.45,497.271 1330.61,497.271 1332.77,497.271 1334.93,497.271 1337.09,497.271 1339.26,497.271 1341.42,497.271 1343.58,497.271 1345.74,497.271 1347.9,497.271 1350.06,497.271 1352.22,497.271 1354.38,497.271 1356.54,497.271 1358.7,497.271 1360.87,497.271 1363.03,497.271 1365.19,497.271 1367.35,497.271 1369.51,497.271 1371.67,497.271 1373.83,497.271 1375.99,497.271 1378.15,497.271 1380.31,497.271 1382.48,497.271 1384.64,497.271 1386.8,497.271 1388.96,497.271 1391.12,497.271 1393.28,497.271 1395.44,497.271 1397.6,497.271 1399.76,497.271 1401.92,497.271 1404.09,497.271 1406.25,497.271 1408.41,497.271 1410.57,497.271 1412.73,497.271 1414.89,497.271 1417.05,497.271 1419.21,497.271 1421.37,497.271 1423.53,497.271 1425.7,497.271 1427.86,497.271 1430.02,497.271 1432.18,497.271 1434.34,497.271 1436.5,497.271 1438.66,497.271 1440.82,497.271 1442.98,497.271 1445.14,497.271 1447.3,497.271 1449.47,497.271 1451.63,497.271 1453.79,497.271 1455.95,497.271 1458.11,497.271 1460.27,497.271 1462.43,497.271 1464.59,497.271 1466.75,497.271 1468.91,497.271 1471.08,497.271 1473.24,497.271 1475.4,497.271 1477.56,497.271 1479.72,497.271 1481.88,497.271 1484.04,497.271 1486.2,497.271 1488.36,497.271 1490.52,1125.59 1492.69,1125.59 1494.85,1125.59 1497.01,1125.59 1499.17,1125.59 1501.33,1125.59 1503.49,1125.59 1505.65,1125.59 1507.81,1125.59 1509.97,1125.59 1512.13,1125.59 1514.3,1125.59 1516.46,1125.59 1518.62,1125.59 1520.78,1125.59 1522.94,1125.59 1525.1,1125.59 1527.26,1125.59 1529.42,1125.59 1531.58,1125.59 1533.74,1125.59 1535.91,1125.59 1538.07,1125.59 1540.23,1125.59 1542.39,1125.59 1544.55,1125.59 1546.71,1125.59 1548.87,1125.59 1551.03,1125.59 1553.19,1125.59 1555.35,1125.59 1557.51,1125.59 1559.68,1125.59 1561.84,1125.59 1564,1125.59 1566.16,1125.59 1568.32,1125.59 1570.48,1125.59 1572.64,1125.59 1574.8,1125.59 1576.96,1125.59 1579.12,1125.59 1581.29,1125.59 1583.45,1125.59 1585.61,1125.59 1587.77,1125.59 1589.93,1125.59 1592.09,1125.59 1594.25,1125.59 1596.41,1125.59 1598.57,1125.59 1600.73,1125.59 1602.9,1125.59 1605.06,1125.59 1607.22,1125.59 1609.38,1125.59 1611.54,1125.59 1613.7,1125.59 1615.86,1125.59 1618.02,1125.59 1620.18,1125.59 1622.34,1125.59 1624.51,1125.59 1626.67,1125.59 1628.83,1125.59 1630.99,1125.59 1633.15,1125.59 1635.31,1125.59 1637.47,1125.59 1639.63,1125.59 1641.79,1125.59 1643.95,1125.59 1646.12,1125.59 1648.28,1125.59 1650.44,1125.59 1652.6,1125.59 1654.76,1125.59 1656.92,1125.59 1659.08,1125.59 1661.24,1125.59 1663.4,1125.59 1665.56,1125.59 1667.72,1125.59 1669.89,1125.59 1672.05,1125.59 1674.21,1125.59 1676.37,1125.59 1678.53,1125.59 1680.69,1125.59 1682.85,1125.59 1685.01,1125.59 1687.17,1125.59 1689.33,1125.59 1691.5,1125.59 1693.66,1125.59 1695.82,1125.59 1697.98,1125.59 1700.14,1125.59 1702.3,1125.59 1704.46,1125.59 1706.62,298.755 1708.78,298.755 1710.94,298.755 1713.11,298.755 1715.27,298.755 1717.43,298.755 1719.59,298.755 1721.75,298.755 1723.91,298.755 1726.07,298.755 1728.23,298.755 1730.39,298.755 1732.55,298.755 1734.72,298.755 1736.88,298.755 1739.04,298.755 1741.2,298.755 1743.36,298.755 1745.52,298.755 1747.68,298.755 1749.84,298.755 1752,298.755 1754.16,298.755 1756.33,298.755 1758.49,298.755 1760.65,298.755 1762.81,298.755 1764.97,298.755 1767.13,298.755 1769.29,298.755 1771.45,298.755 1773.61,298.755 1775.77,298.755 1777.93,298.755 1780.1,298.755 1782.26,298.755 1784.42,298.755 1786.58,298.755 1788.74,298.755 1790.9,298.755 1793.06,298.755 1795.22,298.755 1797.38,298.755 1799.54,298.755 1801.71,298.755 1803.87,298.755 1806.03,298.755 1808.19,298.755 1810.35,298.755 1812.51,298.755 1814.67,298.755 1816.83,298.755 1818.99,298.755 1821.15,298.755 1823.32,298.755 1825.48,298.755 1827.64,298.755 1829.8,298.755 1831.96,298.755 1834.12,298.755 1836.28,298.755 1838.44,298.755 1840.6,298.755 1842.76,298.755 1844.93,298.755 1847.09,298.755 1849.25,298.755 1851.41,298.755 1853.57,298.755 1855.73,298.755 1857.89,298.755 1860.05,298.755 1862.21,298.755 1864.37,298.755 1866.54,298.755 1868.7,298.755 1870.86,298.755 1873.02,298.755 1875.18,298.755 1877.34,298.755 1879.5,298.755 1881.66,298.755 1883.82,298.755 1885.98,298.755 1888.15,298.755 1890.31,298.755 1892.47,298.755 1894.63,298.755 1896.79,298.755 1898.95,298.755 1901.11,298.755 1903.27,298.755 1905.43,298.755 1907.59,298.755 1909.75,298.755 1911.92,298.755 1914.08,298.755 1916.24,298.755 1918.4,298.755 1920.56,298.755 1922.72,585.062 1924.88,585.062 1927.04,585.062 1929.2,585.062 1931.36,585.062 1933.53,585.062 1935.69,585.062 1937.85,585.062 1940.01,585.062 1942.17,585.062 1944.33,585.062 1946.49,585.062 1948.65,585.062 1950.81,585.062 1952.97,585.062 1955.14,585.062 1957.3,585.062 1959.46,585.062 1961.62,585.062 1963.78,585.062 1965.94,585.062 1968.1,585.062 1970.26,585.062 1972.42,585.062 1974.58,585.062 1976.75,585.062 1978.91,585.062 1981.07,585.062 1983.23,585.062 1985.39,585.062 1987.55,585.062 1989.71,585.062 1991.87,585.062 1994.03,585.062 1996.19,585.062 1998.36,585.062 2000.52,585.062 2002.68,585.062 2004.84,585.062 2007,585.062 2009.16,585.062 2011.32,585.062 2013.48,585.062 2015.64,585.062 2017.8,585.062 2019.96,585.062 2022.13,585.062 2024.29,585.062 2026.45,585.062 2028.61,585.062 2030.77,585.062 2032.93,585.062 2035.09,585.062 2037.25,585.062 2039.41,585.062 2041.57,585.062 2043.74,585.062 2045.9,585.062 2048.06,585.062 2050.22,585.062 2052.38,585.062 2054.54,585.062 2056.7,585.062 2058.86,585.062 2061.02,585.062 2063.18,585.062 2065.35,585.062 2067.51,585.062 2069.67,585.062 2071.83,585.062 2073.99,585.062 2076.15,585.062 2078.31,585.062 2080.47,585.062 2082.63,585.062 2084.79,585.062 2086.96,585.062 2089.12,585.062 2091.28,585.062 2093.44,585.062 2095.6,585.062 2097.76,585.062 2099.92,585.062 2102.08,585.062 2104.24,585.062 2106.4,585.062 2108.57,585.062 2110.73,585.062 2112.89,585.062 2115.05,585.062 2117.21,585.062 2119.37,585.062 2121.53,585.062 2123.69,585.062 2125.85,585.062 2128.01,585.062 2130.17,585.062 2132.34,585.062 2134.5,585.062 2136.66,585.062 2138.82,1384.24 2140.98,1384.24 2143.14,1384.24 2145.3,1384.24 2147.46,1384.24 2149.62,1384.24 2151.78,1384.24 2153.95,1384.24 2156.11,1384.24 2158.27,1384.24 2160.43,1384.24 2162.59,1384.24 2164.75,1384.24 2166.91,1384.24 2169.07,1384.24 2171.23,1384.24 2173.39,1384.24 2175.56,1384.24 2177.72,1384.24 2179.88,1384.24 2182.04,1384.24 2184.2,1384.24 2186.36,1384.24 2188.52,1384.24 2190.68,1384.24 2192.84,1384.24 2195,1384.24 2197.17,1384.24 2199.33,1384.24 2201.49,1384.24 2203.65,1384.24 2205.81,1384.24 2207.97,1384.24 2210.13,1384.24 2212.29,1384.24 2214.45,1384.24 2216.61,1384.24 2218.78,1384.24 2220.94,1384.24 2223.1,1384.24 2225.26,1384.24 2227.42,1384.24 2229.58,1384.24 2231.74,1384.24 2233.9,1384.24 2236.06,1384.24 2238.22,1384.24 2240.38,1384.24 2242.55,1384.24 2244.71,1384.24 2246.87,1384.24 2249.03,1384.24 2251.19,1384.24 2253.35,1384.24 2255.51,1384.24 2257.67,1384.24 2259.83,1384.24 2261.99,1384.24 2264.16,1384.24 2266.32,1384.24 2268.48,1384.24 2270.64,1384.24 2272.8,1384.24 2274.96,1384.24 2277.12,1384.24 2279.28,1384.24 2281.44,1384.24 2283.6,1384.24 2285.77,1384.24 2287.93,1384.24 2290.09,1384.24 2292.25,1384.24 2294.41,1384.24 2296.57,1384.24 2298.73,1384.24 2300.89,1384.24 2303.05,1384.24 2305.21,1384.24 2307.38,1384.24 2309.54,1384.24 2311.7,1384.24 2313.86,1384.24 2316.02,1384.24 2318.18,1384.24 2320.34,1384.24 2322.5,1384.24 2324.66,1384.24 2326.82,1384.24 2328.99,1384.24 2331.15,1384.24 2333.31,1384.24 2335.47,1384.24 2337.63,1384.24 2339.79,1384.24 2341.95,1384.24 2344.11,1384.24 2346.27,1384.24 2348.43,1384.24 2350.59,1384.24 2352.76,1384.24 "/>
<path clip-path="url(#clip320)" d="M265.897 248.629 L559.973 248.629 L559.973 93.1086 L265.897 93.1086  Z" fill="#ffffff" fill-rule="evenodd" fill-opacity="1"/>
<polyline clip-path="url(#clip320)" style="stroke:#000000; stroke-linecap:round; stroke-linejoin:round; stroke-width:4; stroke-opacity:1; fill:none" points="265.897,248.629 559.973,248.629 559.973,93.1086 265.897,93.1086 265.897,248.629 "/>
<polyline clip-path="url(#clip320)" style="stroke:#009af9; stroke-linecap:round; stroke-linejoin:round; stroke-width:4; stroke-opacity:1; fill:none" points="289.884,144.949 433.805,144.949 "/>
<path clip-path="url(#clip320)" d="M482.444 136.303 L473.069 148.919 L482.931 162.229 L477.907 162.229 L470.361 152.043 L462.815 162.229 L457.792 162.229 L467.861 148.664 L458.648 136.303 L463.671 136.303 L470.546 145.539 L477.421 136.303 L482.444 136.303 Z" fill="#000000" fill-rule="nonzero" fill-opacity="1" /><path clip-path="url(#clip320)" d="M499.18 126.257 Q496.079 131.581 494.574 136.789 Q493.069 141.997 493.069 147.344 Q493.069 152.692 494.574 157.946 Q496.102 163.178 499.18 168.479 L495.477 168.479 Q492.005 163.039 490.268 157.784 Q488.555 152.53 488.555 147.344 Q488.555 142.182 490.268 136.951 Q491.981 131.72 495.477 126.257 L499.18 126.257 Z" fill="#000000" fill-rule="nonzero" fill-opacity="1" /><path clip-path="url(#clip320)" d="M511.657 128.942 L511.657 136.303 L520.43 136.303 L520.43 139.613 L511.657 139.613 L511.657 153.687 Q511.657 156.858 512.514 157.761 Q513.393 158.664 516.055 158.664 L520.43 158.664 L520.43 162.229 L516.055 162.229 Q511.125 162.229 509.25 160.4 Q507.375 158.548 507.375 153.687 L507.375 139.613 L504.25 139.613 L504.25 136.303 L507.375 136.303 L507.375 128.942 L511.657 128.942 Z" fill="#000000" fill-rule="nonzero" fill-opacity="1" /><path clip-path="url(#clip320)" d="M525.361 126.257 L529.065 126.257 Q532.537 131.72 534.25 136.951 Q535.986 142.182 535.986 147.344 Q535.986 152.53 534.25 157.784 Q532.537 163.039 529.065 168.479 L525.361 168.479 Q528.44 163.178 529.944 157.946 Q531.472 152.692 531.472 147.344 Q531.472 141.997 529.944 136.789 Q528.44 131.581 525.361 126.257 Z" fill="#000000" fill-rule="nonzero" fill-opacity="1" /><polyline clip-path="url(#clip320)" style="stroke:#e26f46; stroke-linecap:round; stroke-linejoin:round; stroke-width:4; stroke-opacity:1; fill:none" points="289.884,196.789 433.805,196.789 "/>
<path clip-path="url(#clip320)" d="M474.296 178.05 L474.296 181.592 L470.222 181.592 Q467.931 181.592 467.028 182.518 Q466.148 183.444 466.148 185.851 L466.148 188.143 L473.162 188.143 L473.162 191.453 L466.148 191.453 L466.148 214.069 L461.866 214.069 L461.866 191.453 L457.792 191.453 L457.792 188.143 L461.866 188.143 L461.866 186.337 Q461.866 182.009 463.88 180.041 Q465.894 178.05 470.269 178.05 L474.296 178.05 Z" fill="#000000" fill-rule="nonzero" fill-opacity="1" /><path clip-path="url(#clip320)" d="M488.093 178.097 Q484.991 183.421 483.486 188.629 Q481.981 193.837 481.981 199.184 Q481.981 204.532 483.486 209.786 Q485.014 215.018 488.093 220.319 L484.389 220.319 Q480.917 214.879 479.181 209.624 Q477.468 204.37 477.468 199.184 Q477.468 194.022 479.181 188.791 Q480.893 183.56 484.389 178.097 L488.093 178.097 Z" fill="#000000" fill-rule="nonzero" fill-opacity="1" /><path clip-path="url(#clip320)" d="M500.569 180.782 L500.569 188.143 L509.342 188.143 L509.342 191.453 L500.569 191.453 L500.569 205.527 Q500.569 208.698 501.426 209.601 Q502.305 210.504 504.967 210.504 L509.342 210.504 L509.342 214.069 L504.967 214.069 Q500.037 214.069 498.162 212.24 Q496.287 210.388 496.287 205.527 L496.287 191.453 L493.162 191.453 L493.162 188.143 L496.287 188.143 L496.287 180.782 L500.569 180.782 Z" fill="#000000" fill-rule="nonzero" fill-opacity="1" /><path clip-path="url(#clip320)" d="M514.273 178.097 L517.977 178.097 Q521.449 183.56 523.162 188.791 Q524.898 194.022 524.898 199.184 Q524.898 204.37 523.162 209.624 Q521.449 214.879 517.977 220.319 L514.273 220.319 Q517.352 215.018 518.856 209.786 Q520.384 204.532 520.384 199.184 Q520.384 193.837 518.856 188.629 Q517.352 183.421 514.273 178.097 Z" fill="#000000" fill-rule="nonzero" fill-opacity="1" /></svg>
