<?xml version="1.0" encoding="utf-8"?>
<svg xmlns="http://www.w3.org/2000/svg" xmlns:xlink="http://www.w3.org/1999/xlink" width="600" height="400" viewBox="0 0 2400 1600">
<defs>
  <clipPath id="clip890">
    <rect x="0" y="0" width="2400" height="1600"/>
  </clipPath>
</defs>
<path clip-path="url(#clip890)" d="M0 1600 L2400 1600 L2400 0 L0 0  Z" fill="#ffffff" fill-rule="evenodd" fill-opacity="1"/>
<defs>
  <clipPath id="clip891">
    <rect x="147" y="47" width="2206" height="1377"/>
  </clipPath>
</defs>
<path clip-path="url(#clip890)" d="M147.478 1423.18 L2352.76 1423.18 L2352.76 47.2441 L147.478 47.2441  Z" fill="#ffffff" fill-rule="evenodd" fill-opacity="1"/>
<polyline clip-path="url(#clip891)" style="stroke:#000000; stroke-linecap:round; stroke-linejoin:round; stroke-width:2; stroke-opacity:0.1; fill:none" points="147.478,1423.18 147.478,47.2441 "/>
<polyline clip-path="url(#clip891)" style="stroke:#000000; stroke-linecap:round; stroke-linejoin:round; stroke-width:2; stroke-opacity:0.1; fill:none" points="588.534,1423.18 588.534,47.2441 "/>
<polyline clip-path="url(#clip891)" style="stroke:#000000; stroke-linecap:round; stroke-linejoin:round; stroke-width:2; stroke-opacity:0.1; fill:none" points="1029.59,1423.18 1029.59,47.2441 "/>
<polyline clip-path="url(#clip891)" style="stroke:#000000; stroke-linecap:round; stroke-linejoin:round; stroke-width:2; stroke-opacity:0.1; fill:none" points="1470.64,1423.18 1470.64,47.2441 "/>
<polyline clip-path="url(#clip891)" style="stroke:#000000; stroke-linecap:round; stroke-linejoin:round; stroke-width:2; stroke-opacity:0.1; fill:none" points="1911.7,1423.18 1911.7,47.2441 "/>
<polyline clip-path="url(#clip891)" style="stroke:#000000; stroke-linecap:round; stroke-linejoin:round; stroke-width:2; stroke-opacity:0.1; fill:none" points="2352.76,1423.18 2352.76,47.2441 "/>
<polyline clip-path="url(#clip891)" style="stroke:#000000; stroke-linecap:round; stroke-linejoin:round; stroke-width:2; stroke-opacity:0.1; fill:none" points="147.478,1305 2352.76,1305 "/>
<polyline clip-path="url(#clip891)" style="stroke:#000000; stroke-linecap:round; stroke-linejoin:round; stroke-width:2; stroke-opacity:0.1; fill:none" points="147.478,985.226 2352.76,985.226 "/>
<polyline clip-path="url(#clip891)" style="stroke:#000000; stroke-linecap:round; stroke-linejoin:round; stroke-width:2; stroke-opacity:0.1; fill:none" points="147.478,665.455 2352.76,665.455 "/>
<polyline clip-path="url(#clip891)" style="stroke:#000000; stroke-linecap:round; stroke-linejoin:round; stroke-width:2; stroke-opacity:0.1; fill:none" points="147.478,345.683 2352.76,345.683 "/>
<polyline clip-path="url(#clip890)" style="stroke:#000000; stroke-linecap:round; stroke-linejoin:round; stroke-width:4; stroke-opacity:1; fill:none" points="147.478,1423.18 2352.76,1423.18 "/>
<polyline clip-path="url(#clip890)" style="stroke:#000000; stroke-linecap:round; stroke-linejoin:round; stroke-width:4; stroke-opacity:1; fill:none" points="147.478,1423.18 147.478,1404.28 "/>
<polyline clip-path="url(#clip890)" style="stroke:#000000; stroke-linecap:round; stroke-linejoin:round; stroke-width:4; stroke-opacity:1; fill:none" points="588.534,1423.18 588.534,1404.28 "/>
<polyline clip-path="url(#clip890)" style="stroke:#000000; stroke-linecap:round; stroke-linejoin:round; stroke-width:4; stroke-opacity:1; fill:none" points="1029.59,1423.18 1029.59,1404.28 "/>
<polyline clip-path="url(#clip890)" style="stroke:#000000; stroke-linecap:round; stroke-linejoin:round; stroke-width:4; stroke-opacity:1; fill:none" points="1470.64,1423.18 1470.64,1404.28 "/>
<polyline clip-path="url(#clip890)" style="stroke:#000000; stroke-linecap:round; stroke-linejoin:round; stroke-width:4; stroke-opacity:1; fill:none" points="1911.7,1423.18 1911.7,1404.28 "/>
<polyline clip-path="url(#clip890)" style="stroke:#000000; stroke-linecap:round; stroke-linejoin:round; stroke-width:4; stroke-opacity:1; fill:none" points="2352.76,1423.18 2352.76,1404.28 "/>
<path clip-path="url(#clip890)" d="M147.478 1454.1 Q143.867 1454.1 142.038 1457.66 Q140.233 1461.2 140.233 1468.33 Q140.233 1475.44 142.038 1479.01 Q143.867 1482.55 147.478 1482.55 Q151.112 1482.55 152.918 1479.01 Q154.746 1475.44 154.746 1468.33 Q154.746 1461.2 152.918 1457.66 Q151.112 1454.1 147.478 1454.1 M147.478 1450.39 Q153.288 1450.39 156.344 1455 Q159.422 1459.58 159.422 1468.33 Q159.422 1477.06 156.344 1481.67 Q153.288 1486.25 147.478 1486.25 Q141.668 1486.25 138.589 1481.67 Q135.534 1477.06 135.534 1468.33 Q135.534 1459.58 138.589 1455 Q141.668 1450.39 147.478 1450.39 Z" fill="#000000" fill-rule="nonzero" fill-opacity="1" /><path clip-path="url(#clip890)" d="M583.186 1481.64 L599.506 1481.64 L599.506 1485.58 L577.561 1485.58 L577.561 1481.64 Q580.223 1478.89 584.807 1474.26 Q589.413 1469.61 590.594 1468.27 Q592.839 1465.74 593.719 1464.01 Q594.621 1462.25 594.621 1460.56 Q594.621 1457.8 592.677 1456.07 Q590.756 1454.33 587.654 1454.33 Q585.455 1454.33 583.001 1455.09 Q580.571 1455.86 577.793 1457.41 L577.793 1452.69 Q580.617 1451.55 583.071 1450.97 Q585.524 1450.39 587.561 1450.39 Q592.932 1450.39 596.126 1453.08 Q599.32 1455.77 599.32 1460.26 Q599.32 1462.39 598.51 1464.31 Q597.723 1466.2 595.617 1468.8 Q595.038 1469.47 591.936 1472.69 Q588.834 1475.88 583.186 1481.64 Z" fill="#000000" fill-rule="nonzero" fill-opacity="1" /><path clip-path="url(#clip890)" d="M1032.6 1455.09 L1020.79 1473.54 L1032.6 1473.54 L1032.6 1455.09 M1031.37 1451.02 L1037.25 1451.02 L1037.25 1473.54 L1042.18 1473.54 L1042.18 1477.43 L1037.25 1477.43 L1037.25 1485.58 L1032.6 1485.58 L1032.6 1477.43 L1017 1477.43 L1017 1472.92 L1031.37 1451.02 Z" fill="#000000" fill-rule="nonzero" fill-opacity="1" /><path clip-path="url(#clip890)" d="M1471.05 1466.44 Q1467.9 1466.44 1466.05 1468.59 Q1464.22 1470.74 1464.22 1474.49 Q1464.22 1478.22 1466.05 1480.39 Q1467.9 1482.55 1471.05 1482.55 Q1474.2 1482.55 1476.03 1480.39 Q1477.88 1478.22 1477.88 1474.49 Q1477.88 1470.74 1476.03 1468.59 Q1474.2 1466.44 1471.05 1466.44 M1480.33 1451.78 L1480.33 1456.04 Q1478.57 1455.21 1476.77 1454.77 Q1474.98 1454.33 1473.23 1454.33 Q1468.6 1454.33 1466.14 1457.45 Q1463.71 1460.58 1463.36 1466.9 Q1464.73 1464.89 1466.79 1463.82 Q1468.85 1462.73 1471.33 1462.73 Q1476.54 1462.73 1479.55 1465.9 Q1482.58 1469.05 1482.58 1474.49 Q1482.58 1479.82 1479.43 1483.03 Q1476.28 1486.25 1471.05 1486.25 Q1465.05 1486.25 1461.88 1481.67 Q1458.71 1477.06 1458.71 1468.33 Q1458.71 1460.14 1462.6 1455.28 Q1466.49 1450.39 1473.04 1450.39 Q1474.8 1450.39 1476.58 1450.74 Q1478.39 1451.09 1480.33 1451.78 Z" fill="#000000" fill-rule="nonzero" fill-opacity="1" /><path clip-path="url(#clip890)" d="M1911.7 1469.17 Q1908.37 1469.17 1906.45 1470.95 Q1904.55 1472.73 1904.55 1475.86 Q1904.55 1478.98 1906.45 1480.77 Q1908.37 1482.55 1911.7 1482.55 Q1915.03 1482.55 1916.95 1480.77 Q1918.88 1478.96 1918.88 1475.86 Q1918.88 1472.73 1916.95 1470.95 Q1915.06 1469.17 1911.7 1469.17 M1907.02 1467.18 Q1904.02 1466.44 1902.33 1464.38 Q1900.66 1462.32 1900.66 1459.35 Q1900.66 1455.21 1903.6 1452.8 Q1906.56 1450.39 1911.7 1450.39 Q1916.86 1450.39 1919.8 1452.8 Q1922.74 1455.21 1922.74 1459.35 Q1922.74 1462.32 1921.05 1464.38 Q1919.39 1466.44 1916.4 1467.18 Q1919.78 1467.96 1921.65 1470.26 Q1923.55 1472.55 1923.55 1475.86 Q1923.55 1480.88 1920.47 1483.57 Q1917.42 1486.25 1911.7 1486.25 Q1905.98 1486.25 1902.9 1483.57 Q1899.85 1480.88 1899.85 1475.86 Q1899.85 1472.55 1901.75 1470.26 Q1903.64 1467.96 1907.02 1467.18 M1905.31 1459.79 Q1905.31 1462.48 1906.98 1463.98 Q1908.67 1465.49 1911.7 1465.49 Q1914.71 1465.49 1916.4 1463.98 Q1918.11 1462.48 1918.11 1459.79 Q1918.11 1457.11 1916.4 1455.6 Q1914.71 1454.1 1911.7 1454.1 Q1908.67 1454.1 1906.98 1455.6 Q1905.31 1457.11 1905.31 1459.79 Z" fill="#000000" fill-rule="nonzero" fill-opacity="1" /><path clip-path="url(#clip890)" d="M2327.44 1481.64 L2335.08 1481.64 L2335.08 1455.28 L2326.77 1456.95 L2326.77 1452.69 L2335.04 1451.02 L2339.71 1451.02 L2339.71 1481.64 L2347.35 1481.64 L2347.35 1485.58 L2327.44 1485.58 L2327.44 1481.64 Z" fill="#000000" fill-rule="nonzero" fill-opacity="1" /><path clip-path="url(#clip890)" d="M2366.8 1454.1 Q2363.18 1454.1 2361.36 1457.66 Q2359.55 1461.2 2359.55 1468.33 Q2359.55 1475.44 2361.36 1479.01 Q2363.18 1482.55 2366.8 1482.55 Q2370.43 1482.55 2372.23 1479.01 Q2374.06 1475.44 2374.06 1468.33 Q2374.06 1461.2 2372.23 1457.66 Q2370.43 1454.1 2366.8 1454.1 M2366.8 1450.39 Q2372.61 1450.39 2375.66 1455 Q2378.74 1459.58 2378.74 1468.33 Q2378.74 1477.06 2375.66 1481.67 Q2372.61 1486.25 2366.8 1486.25 Q2360.99 1486.25 2357.91 1481.67 Q2354.85 1477.06 2354.85 1468.33 Q2354.85 1459.58 2357.91 1455 Q2360.99 1450.39 2366.8 1450.39 Z" fill="#000000" fill-rule="nonzero" fill-opacity="1" /><path clip-path="url(#clip890)" d="M1249.18 1522.27 L1249.18 1532.4 L1261.24 1532.4 L1261.24 1536.95 L1249.18 1536.95 L1249.18 1556.3 Q1249.18 1560.66 1250.36 1561.9 Q1251.57 1563.14 1255.23 1563.14 L1261.24 1563.14 L1261.24 1568.04 L1255.23 1568.04 Q1248.45 1568.04 1245.87 1565.53 Q1243.29 1562.98 1243.29 1556.3 L1243.29 1536.95 L1238.99 1536.95 L1238.99 1532.4 L1243.29 1532.4 L1243.29 1522.27 L1249.18 1522.27 Z" fill="#000000" fill-rule="nonzero" fill-opacity="1" /><polyline clip-path="url(#clip890)" style="stroke:#000000; stroke-linecap:round; stroke-linejoin:round; stroke-width:4; stroke-opacity:1; fill:none" points="147.478,1423.18 147.478,47.2441 "/>
<polyline clip-path="url(#clip890)" style="stroke:#000000; stroke-linecap:round; stroke-linejoin:round; stroke-width:4; stroke-opacity:1; fill:none" points="147.478,1305 166.376,1305 "/>
<polyline clip-path="url(#clip890)" style="stroke:#000000; stroke-linecap:round; stroke-linejoin:round; stroke-width:4; stroke-opacity:1; fill:none" points="147.478,985.226 166.376,985.226 "/>
<polyline clip-path="url(#clip890)" style="stroke:#000000; stroke-linecap:round; stroke-linejoin:round; stroke-width:4; stroke-opacity:1; fill:none" points="147.478,665.455 166.376,665.455 "/>
<polyline clip-path="url(#clip890)" style="stroke:#000000; stroke-linecap:round; stroke-linejoin:round; stroke-width:4; stroke-opacity:1; fill:none" points="147.478,345.683 166.376,345.683 "/>
<path clip-path="url(#clip890)" d="M51.3625 1305.45 L81.0383 1305.45 L81.0383 1309.38 L51.3625 1309.38 L51.3625 1305.45 Z" fill="#000000" fill-rule="nonzero" fill-opacity="1" /><path clip-path="url(#clip890)" d="M95.1586 1318.34 L111.478 1318.34 L111.478 1322.28 L89.5336 1322.28 L89.5336 1318.34 Q92.1956 1315.59 96.7789 1310.96 Q101.385 1306.31 102.566 1304.96 Q104.811 1302.44 105.691 1300.7 Q106.594 1298.95 106.594 1297.26 Q106.594 1294.5 104.649 1292.76 Q102.728 1291.03 99.6261 1291.03 Q97.4271 1291.03 94.9734 1291.79 Q92.5428 1292.56 89.7651 1294.11 L89.7651 1289.38 Q92.5891 1288.25 95.0428 1287.67 Q97.4965 1287.09 99.5335 1287.09 Q104.904 1287.09 108.098 1289.78 Q111.293 1292.46 111.293 1296.95 Q111.293 1299.08 110.483 1301.01 Q109.696 1302.9 107.589 1305.5 Q107.01 1306.17 103.909 1309.38 Q100.807 1312.58 95.1586 1318.34 Z" fill="#000000" fill-rule="nonzero" fill-opacity="1" /><path clip-path="url(#clip890)" d="M50.9921 985.678 L80.6679 985.678 L80.6679 989.613 L50.9921 989.613 L50.9921 985.678 Z" fill="#000000" fill-rule="nonzero" fill-opacity="1" /><path clip-path="url(#clip890)" d="M91.5706 998.571 L99.2095 998.571 L99.2095 972.206 L90.8993 973.872 L90.8993 969.613 L99.1632 967.946 L103.839 967.946 L103.839 998.571 L111.478 998.571 L111.478 1002.51 L91.5706 1002.51 L91.5706 998.571 Z" fill="#000000" fill-rule="nonzero" fill-opacity="1" /><path clip-path="url(#clip890)" d="M99.5335 651.253 Q95.9224 651.253 94.0937 654.818 Q92.2882 658.36 92.2882 665.489 Q92.2882 672.596 94.0937 676.161 Q95.9224 679.702 99.5335 679.702 Q103.168 679.702 104.973 676.161 Q106.802 672.596 106.802 665.489 Q106.802 658.36 104.973 654.818 Q103.168 651.253 99.5335 651.253 M99.5335 647.55 Q105.344 647.55 108.399 652.156 Q111.478 656.739 111.478 665.489 Q111.478 674.216 108.399 678.823 Q105.344 683.406 99.5335 683.406 Q93.7234 683.406 90.6447 678.823 Q87.5892 674.216 87.5892 665.489 Q87.5892 656.739 90.6447 652.156 Q93.7234 647.55 99.5335 647.55 Z" fill="#000000" fill-rule="nonzero" fill-opacity="1" /><path clip-path="url(#clip890)" d="M91.5706 359.027 L99.2095 359.027 L99.2095 332.662 L90.8993 334.329 L90.8993 330.069 L99.1632 328.403 L103.839 328.403 L103.839 359.027 L111.478 359.027 L111.478 362.963 L91.5706 362.963 L91.5706 359.027 Z" fill="#000000" fill-rule="nonzero" fill-opacity="1" /><polyline clip-path="url(#clip891)" style="stroke:#009af9; stroke-linecap:round; stroke-linejoin:round; stroke-width:4; stroke-opacity:1; fill:none" points="147.478,665.455 149.685,674.984 151.893,684.387 154.1,693.666 156.308,702.822 158.515,711.856 160.723,720.77 162.93,729.567 165.138,738.246 167.345,746.811 169.553,755.262 171.76,763.601 173.968,771.829 176.175,779.949 178.383,787.96 180.59,795.866 182.798,803.666 185.005,811.364 187.213,818.959 189.42,826.453 191.628,833.848 193.835,841.146 196.043,848.346 198.25,855.451 200.458,862.461 202.665,869.379 204.873,876.205 207.08,882.941 209.288,889.587 211.495,896.145 213.702,902.616 215.91,909.001 218.117,915.302 220.325,921.519 222.532,927.654 224.74,933.707 226.947,939.681 229.155,945.575 231.362,951.39 233.57,957.129 235.777,962.792 237.985,968.379 240.192,973.893 242.4,979.333 244.607,984.701 246.815,989.998 249.022,995.225 251.23,1000.38 253.437,1005.47 255.645,1010.49 257.852,1015.45 260.06,1020.34 262.267,1025.16 264.475,1029.92 266.682,1034.62 268.89,1039.26 271.097,1043.83 273.305,1048.34 275.512,1052.8 277.72,1057.19 279.927,1061.53 282.135,1065.81 284.342,1070.03 286.549,1074.19 288.757,1078.3 290.964,1082.36 293.172,1086.36 295.379,1090.31 297.587,1094.21 299.794,1098.05 302.002,1101.85 304.209,1105.59 306.417,1109.29 308.624,1112.93 310.832,1116.53 313.039,1120.08 315.247,1123.58 317.454,1127.04 319.662,1130.45 321.869,1133.81 324.077,1137.13 326.284,1140.41 328.492,1143.64 330.699,1146.83 332.907,1149.98 335.114,1153.08 337.322,1156.15 339.529,1159.17 341.737,1162.15 343.944,1165.1 346.152,1168 348.359,1170.87 350.567,1173.7 352.774,1176.49 354.982,1179.25 357.189,1181.96 359.397,1184.65 361.604,1186.25 363.811,1184.58 366.019,1180.25 368.226,1173.91 370.434,1166.16 372.641,1157.51 374.849,1148.38 377.056,1139.11 379.264,1129.99 381.471,1121.18 383.679,1112.8 385.886,1104.88 388.094,1097.35 390.301,1090.09 392.509,1082.87 394.716,1075.53 396.924,1068.25 399.131,1061.08 401.339,1054 403.546,1047.01 405.754,1040.12 407.961,1033.31 410.169,1026.6 412.376,1019.98 414.584,1013.44 416.791,1006.99 418.999,1000.63 421.206,994.348 423.414,988.152 425.621,982.038 427.829,976.005 430.036,970.051 432.244,964.177 434.451,958.381 436.659,952.662 438.866,947.018 441.073,941.45 443.281,935.955 445.488,930.533 447.696,925.183 449.903,919.905 452.111,914.696 454.318,909.556 456.526,904.484 458.733,899.48 460.941,894.542 463.148,889.669 465.356,884.862 467.563,880.117 469.771,875.436 471.978,870.817 474.186,866.259 476.393,861.761 478.601,857.323 480.808,852.944 483.016,848.622 485.223,844.358 487.431,840.151 489.638,835.999 491.846,831.902 494.053,827.86 496.261,823.871 498.468,819.935 500.676,816.052 502.883,812.219 505.091,808.438 507.298,804.707 509.506,801.025 511.713,797.392 513.921,793.807 516.128,790.27 518.335,786.78 520.543,783.336 522.75,779.937 524.958,776.584 527.165,773.275 529.373,770.01 531.58,766.788 533.788,763.609 535.995,760.473 538.203,757.377 540.41,754.323 542.618,751.309 544.825,748.335 547.033,745.401 549.24,742.505 551.448,739.648 553.655,736.829 555.863,734.047 558.07,731.302 560.278,728.594 562.485,725.921 564.693,723.284 566.9,720.682 569.108,718.114 571.315,715.58 573.523,713.08 575.73,710.613 577.938,708.179 580.145,705.777 582.353,703.407 584.56,701.068 586.768,698.76 588.975,694.973 591.182,686.825 593.39,678.627 595.597,670.846 597.805,663.095 600.012,655.446 602.22,647.899 604.427,640.452 606.635,633.103 608.842,625.852 611.05,618.697 613.257,611.637 615.465,604.671 617.672,597.797 619.88,591.014 622.087,584.321 624.295,577.716 626.502,571.2 628.71,564.769 630.917,558.424 633.125,552.163 635.332,545.985 637.54,539.889 639.747,533.874 641.955,527.939 644.162,522.082 646.37,516.303 648.577,510.6 650.785,504.973 652.992,499.421 655.2,493.943 657.407,488.536 659.615,483.202 661.822,477.938 664.03,472.745 666.237,467.62 668.444,462.562 670.652,457.572 672.859,452.649 675.067,447.79 677.274,442.996 679.482,438.265 681.689,433.597 683.897,428.991 686.104,424.446 688.312,419.962 690.519,415.537 692.727,411.17 694.934,406.861 697.142,402.61 699.349,398.415 701.557,394.275 703.764,390.191 705.972,386.16 708.179,382.183 710.387,378.259 712.594,374.386 714.802,370.565 717.009,366.795 719.217,363.075 721.424,359.404 723.632,355.781 725.839,352.207 728.047,348.68 730.254,345.2 732.462,341.766 734.669,338.377 736.877,335.034 739.084,331.734 741.292,328.479 743.499,325.267 745.706,322.097 747.914,318.969 750.121,315.883 752.329,312.838 754.536,309.833 756.744,306.868 758.951,303.942 761.159,301.055 763.366,298.206 765.574,295.395 767.781,292.622 769.989,289.885 772.196,287.184 774.404,284.519 776.611,281.89 778.819,279.295 781.026,276.735 783.234,274.209 785.441,271.716 787.649,269.256 789.856,266.829 792.064,264.434 794.271,262.071 796.479,259.739 798.686,257.438 800.894,255.167 803.101,252.927 805.309,250.716 807.516,248.769 809.724,248.161 811.931,248.893 814.139,250.815 816.346,253.784 818.553,257.666 820.761,262.331 822.968,267.661 825.176,273.542 827.383,279.869 829.591,286.545 831.798,293.479 834.006,300.589 836.213,307.8 838.421,315.045 840.628,322.262 842.836,329.4 845.043,336.413 847.251,343.265 849.458,349.924 851.666,356.369 853.873,362.584 856.081,368.562 858.288,374.304 860.496,379.815 862.703,385.113 864.911,390.218 867.118,395.162 869.326,399.982 871.533,404.722 873.741,409.437 875.948,414.184 878.156,419.025 880.363,423.851 882.571,428.614 884.778,433.314 886.986,437.952 889.193,442.527 891.401,447.043 893.608,451.498 895.815,455.895 898.023,460.233 900.23,464.513 902.438,468.737 904.645,472.905 906.853,477.017 909.06,481.075 911.268,485.08 913.475,489.031 915.683,492.93 917.89,496.777 920.098,500.574 922.305,504.32 924.513,508.017 926.72,511.664 928.928,515.264 931.135,518.815 933.343,522.319 935.55,525.777 937.758,529.189 939.965,532.556 942.173,535.878 944.38,539.156 946.588,542.39 948.795,545.581 951.003,548.731 953.21,551.838 955.418,554.904 957.625,557.929 959.833,560.914 962.04,563.859 964.248,566.766 966.455,569.634 968.663,572.463 970.87,575.255 973.077,578.011 975.285,580.729 977.492,583.412 979.7,586.059 981.907,588.671 984.115,591.248 986.322,593.791 988.53,596.3 990.737,598.777 992.945,601.22 995.152,603.631 997.36,606.01 999.567,608.358 1001.77,610.675 1003.98,612.959 1006.19,615.19 1008.4,617.368 1010.6,619.502 1012.81,621.599 1015.02,623.665 1017.23,625.708 1019.43,627.734 1021.64,629.748 1023.85,631.754 1026.06,633.756 1028.26,635.759 1030.47,637.764 1032.68,639.774 1034.89,641.79 1037.09,643.815 1039.3,645.847 1041.51,647.887 1043.72,649.934 1045.92,651.987 1048.13,654.043 1050.34,656.099 1052.55,658.154 1054.75,660.202 1056.96,662.239 1059.17,664.26 1061.38,666.26 1063.58,668.232 1065.79,670.169 1068,672.064 1070.21,673.927 1072.41,675.766 1074.62,677.58 1076.83,679.371 1079.04,681.137 1081.24,682.88 1083.45,684.6 1085.66,686.297 1087.87,687.972 1090.07,689.624 1092.28,691.255 1094.49,692.864 1096.7,694.451 1098.9,696.018 1101.11,697.564 1103.32,699.089 1105.53,700.594 1107.73,702.079 1109.94,703.545 1112.15,704.991 1114.36,706.417 1116.56,707.825 1118.77,709.215 1120.98,710.586 1123.19,711.938 1125.39,713.273 1127.6,714.59 1129.81,715.89 1132.02,717.173 1134.22,718.438 1136.43,719.687 1138.64,720.919 1140.85,722.135 1143.05,723.335 1145.26,724.518 1147.47,725.686 1149.68,726.839 1151.88,727.976 1154.09,729.098 1156.3,730.205 1158.51,731.298 1160.71,732.376 1162.92,733.439 1165.13,734.489 1167.34,735.525 1169.54,736.546 1171.75,737.555 1173.96,738.55 1176.17,739.531 1178.37,740.5 1180.58,741.456 1182.79,742.399 1185,743.33 1187.2,744.248 1189.41,745.154 1191.62,746.049 1193.83,746.931 1196.03,747.802 1198.24,748.661 1200.45,749.509 1202.66,750.345 1204.86,751.171 1207.07,751.985 1209.28,752.789 1211.49,753.582 1213.69,754.365 1215.9,755.137 1218.11,755.899 1220.32,756.651 1222.52,757.392 1224.73,758.125 1226.94,758.847 1229.15,759.56 1231.35,760.263 1233.56,760.957 1235.77,761.642 1237.98,762.318 1240.18,762.984 1242.39,763.642 1244.6,764.291 1246.81,764.932 1249.01,765.555 1251.22,765.982 1253.43,766.161 1255.64,766.12 1257.84,765.883 1260.05,765.472 1262.26,764.912 1264.47,764.222 1266.67,763.422 1268.88,762.532 1271.09,761.567 1273.3,760.546 1275.5,759.481 1277.71,758.388 1279.92,757.278 1282.13,756.162 1284.33,755.051 1286.54,753.953 1288.75,752.876 1290.96,751.826 1293.16,750.808 1295.37,749.826 1297.58,748.882 1299.79,747.977 1301.99,747.113 1304.2,746.286 1306.41,745.496 1308.62,744.738 1310.82,744.008 1313.03,743.3 1315.24,742.606 1317.45,741.917 1319.65,741.224 1321.86,740.517 1324.07,739.798 1326.28,739.089 1328.48,738.389 1330.69,737.699 1332.9,737.018 1335.11,736.346 1337.31,735.682 1339.52,735.028 1341.73,734.382 1343.94,733.745 1346.14,733.116 1348.35,732.495 1350.56,731.883 1352.76,731.279 1354.97,730.683 1357.18,730.094 1359.39,729.514 1361.59,728.941 1363.8,728.376 1366.01,727.818 1368.22,727.268 1370.42,726.725 1372.63,726.189 1374.84,725.66 1377.05,725.138 1379.25,724.623 1381.46,724.115 1383.67,723.614 1385.88,723.119 1388.08,722.631 1390.29,722.15 1392.5,721.674 1394.71,721.205 1396.91,720.743 1399.12,720.286 1401.33,719.836 1403.54,719.391 1405.74,718.953 1407.95,718.52 1410.16,718.093 1412.37,717.672 1414.57,717.256 1416.78,716.846 1418.99,716.441 1421.2,716.042 1423.4,715.648 1425.61,715.259 1427.82,714.875 1430.03,714.497 1432.23,714.123 1434.44,713.755 1436.65,713.391 1438.86,713.032 1441.06,712.678 1443.27,712.329 1445.48,711.984 1447.69,711.644 1449.89,711.308 1452.1,710.977 1454.31,710.65 1456.52,710.327 1458.72,710.009 1460.93,709.695 1463.14,709.385 1465.35,709.094 1467.55,709.26 1469.76,710.025 1471.97,711.316 1474.18,713.064 1476.38,715.202 1478.59,717.669 1480.8,720.408 1483.01,723.367 1485.21,726.494 1487.42,729.746 1489.63,733.08 1491.84,736.46 1494.04,739.853 1496.25,743.229 1498.46,746.563 1500.67,749.835 1502.87,753.026 1505.08,756.125 1507.29,759.122 1509.5,762.012 1511.7,764.795 1513.91,767.473 1516.12,770.054 1518.33,772.549 1520.53,774.973 1522.74,777.346 1524.95,779.69 1527.16,782.034 1529.36,784.408 1531.57,786.79 1533.78,789.141 1535.99,791.46 1538.19,793.749 1540.4,796.007 1542.61,798.235 1544.82,800.434 1547.02,802.604 1549.23,804.744 1551.44,806.857 1553.65,808.941 1555.85,810.998 1558.06,813.027 1560.27,815.03 1562.48,817.006 1564.68,818.956 1566.89,820.88 1569.1,822.778 1571.31,824.652 1573.51,826.5 1575.72,828.324 1577.93,830.124 1580.14,831.9 1582.34,833.653 1584.55,835.382 1586.76,837.089 1588.97,838.773 1591.17,840.434 1593.38,842.074 1595.59,843.692 1597.8,845.288 1600,846.864 1602.21,848.418 1604.42,849.952 1606.63,851.466 1608.83,852.959 1611.04,854.433 1613.25,855.887 1615.46,857.321 1617.66,858.737 1619.87,860.134 1622.08,861.512 1624.29,862.872 1626.49,864.214 1628.7,865.538 1630.91,866.844 1633.12,868.133 1635.32,869.405 1637.53,870.66 1639.74,871.898 1641.95,873.12 1644.15,874.326 1646.36,875.515 1648.57,876.689 1650.78,877.847 1652.98,878.99 1655.19,880.118 1657.4,881.231 1659.61,882.329 1661.81,883.412 1664.02,884.481 1666.23,885.536 1668.44,886.577 1670.64,887.604 1672.85,888.618 1675.06,889.618 1677.27,890.605 1679.47,891.579 1681.68,892.54 1683.89,893.488 1686.1,894.424 1688.3,894.583 1690.51,893.26 1692.72,890.631 1694.93,886.862 1697.13,882.111 1699.34,876.526 1701.55,870.246 1703.76,863.398 1705.96,856.104 1708.17,848.473 1710.38,840.607 1712.59,832.597 1714.79,824.525 1717,816.464 1719.21,808.477 1721.42,800.618 1723.62,792.933 1725.83,785.455 1728.04,778.211 1730.25,771.217 1732.45,764.48 1734.66,757.998 1736.87,751.759 1739.07,745.741 1741.28,739.914 1743.49,734.239 1745.7,728.665 1747.9,723.134 1750.11,717.577 1752.32,711.935 1754.53,706.326 1756.73,700.791 1758.94,695.33 1761.15,689.941 1763.36,684.624 1765.56,679.377 1767.77,674.199 1769.98,669.091 1772.19,664.05 1774.39,659.076 1776.6,654.167 1778.81,649.324 1781.02,644.545 1783.22,639.83 1785.43,635.177 1787.64,630.586 1789.85,626.055 1792.05,621.585 1794.26,617.174 1796.47,612.821 1798.68,608.526 1800.88,604.288 1803.09,600.106 1805.3,595.98 1807.51,591.908 1809.71,587.89 1811.92,583.925 1814.13,580.013 1816.34,576.153 1818.54,572.343 1820.75,568.585 1822.96,564.876 1825.17,561.217 1827.37,557.606 1829.58,554.043 1831.79,550.527 1834,547.058 1836.2,543.635 1838.41,540.257 1840.62,536.924 1842.83,533.636 1845.03,530.391 1847.24,527.189 1849.45,524.03 1851.66,520.912 1853.86,517.836 1856.07,514.801 1858.28,511.806 1860.49,508.85 1862.69,505.934 1864.9,503.056 1867.11,500.217 1869.32,497.415 1871.52,494.651 1873.73,491.922 1875.94,489.231 1878.15,486.574 1880.35,483.953 1882.56,481.365 1884.77,478.781 1886.98,476.196 1889.18,473.618 1891.39,471.054 1893.6,468.513 1895.81,466 1898.01,463.523 1900.22,461.086 1902.43,458.695 1904.64,456.356 1906.84,454.071 1909.05,451.845 1911.26,449.681 1913.47,447.583 1915.67,445.551 1917.88,443.588 1920.09,441.696 1922.3,439.874 1924.5,438.124 1926.71,436.444 1928.92,434.835 1931.13,433.294 1933.33,431.821 1935.54,430.412 1937.75,429.066 1939.96,427.779 1942.16,426.547 1944.37,425.365 1946.58,424.23 1948.79,423.136 1950.99,422.077 1953.2,421.047 1955.41,420.039 1957.62,419.046 1959.82,418.06 1962.03,417.074 1964.24,416.077 1966.45,415.076 1968.65,414.089 1970.86,413.114 1973.07,412.153 1975.28,411.204 1977.48,410.268 1979.69,409.344 1981.9,408.433 1984.11,407.533 1986.31,406.646 1988.52,405.77 1990.73,404.906 1992.94,404.054 1995.14,403.212 1997.35,402.382 1999.56,401.563 2001.77,400.755 2003.97,399.957 2006.18,399.17 2008.39,398.394 2010.6,397.627 2012.8,396.871 2015.01,396.125 2017.22,395.389 2019.43,394.663 2021.63,393.946 2023.84,393.238 2026.05,392.54 2028.26,391.852 2030.46,391.172 2032.67,390.502 2034.88,389.84 2037.09,389.187 2039.29,388.543 2041.5,387.907 2043.71,387.28 2045.92,386.661 2048.12,386.05 2050.33,385.447 2052.54,384.852 2054.75,384.266 2056.95,383.687 2059.16,383.115 2061.37,382.551 2063.58,381.995 2065.78,381.446 2067.99,380.905 2070.2,380.37 2072.41,379.843 2074.61,379.323 2076.82,378.809 2079.03,378.303 2081.24,377.803 2083.44,377.31 2085.65,376.823 2087.86,376.343 2090.07,375.869 2092.27,375.401 2094.48,374.94 2096.69,374.485 2098.9,374.036 2101.1,373.592 2103.31,373.155 2105.52,372.723 2107.73,372.297 2109.93,371.877 2112.14,371.462 2114.35,371.053 2116.55,370.649 2118.76,370.251 2120.97,369.858 2123.18,369.47 2125.38,369.087 2127.59,368.709 2129.8,368.337 2132.01,367.969 2134.21,368.349 2136.42,370.305 2138.63,373.649 2140.84,378.194 2143.04,383.768 2145.25,390.209 2147.46,397.364 2149.67,405.092 2151.87,413.264 2154.08,421.76 2156.29,430.472 2158.5,439.301 2160.7,448.16 2162.91,456.974 2165.12,465.677 2167.33,474.214 2169.53,482.541 2171.74,490.626 2173.95,498.445 2176.16,505.988 2178.36,513.254 2180.57,520.253 2182.78,527.005 2184.99,533.542 2187.19,539.908 2189.4,546.154 2191.61,552.345 2193.82,558.556 2196.02,564.853 2198.23,571.109 2200.44,577.283 2202.65,583.375 2204.85,589.386 2207.06,595.317 2209.27,601.17 2211.48,606.945 2213.68,612.643 2215.89,618.266 2218.1,623.814 2220.31,629.289 2222.51,634.692 2224.72,640.022 2226.93,645.282 2229.14,650.472 2231.34,655.594 2233.55,660.648 2235.76,665.634 2237.97,670.555 2240.17,675.411 2242.38,680.202 2244.59,684.929 2246.8,689.594 2249,694.197 2251.21,698.739 2253.42,703.22 2255.63,707.642 2257.83,712.006 2260.04,716.311 2262.25,720.56 2264.46,724.752 2266.66,728.888 2268.87,732.97 2271.08,736.997 2273.29,740.972 2275.49,744.893 2277.7,748.762 2279.91,752.58 2282.12,756.348 2284.32,760.065 2286.53,763.734 2288.74,767.353 2290.95,770.925 2293.15,774.449 2295.36,777.927 2297.57,781.358 2299.78,784.744 2301.98,788.086 2304.19,791.383 2306.4,794.636 2308.61,797.846 2310.81,801.013 2313.02,804.139 2315.23,807.223 2317.44,810.266 2319.64,813.269 2321.85,816.232 2324.06,819.156 2326.27,822.041 2328.47,824.888 2330.68,827.697 2332.89,830.468 2335.1,833.203 2337.3,835.902 2339.51,838.565 2341.72,841.193 2343.93,843.786 2346.13,846.344 2348.34,848.868 2350.55,851.36 2352.76,853.818 "/>
<polyline clip-path="url(#clip891)" style="stroke:#e26f46; stroke-linecap:round; stroke-linejoin:round; stroke-width:4; stroke-opacity:1; fill:none" points="147.478,1384.24 149.685,1384.24 151.893,1384.24 154.1,1384.24 156.308,1384.24 158.515,1384.24 160.723,1384.24 162.93,1384.24 165.138,1384.24 167.345,1384.24 169.553,1384.24 171.76,1384.24 173.968,1384.24 176.175,1384.24 178.383,1384.24 180.59,1384.24 182.798,1384.24 185.005,1384.24 187.213,1384.24 189.42,1384.24 191.628,1384.24 193.835,1384.24 196.043,1384.24 198.25,1384.24 200.458,1384.24 202.665,1384.24 204.873,1384.24 207.08,1384.24 209.288,1384.24 211.495,1384.24 213.702,1384.24 215.91,1384.24 218.117,1384.24 220.325,1384.24 222.532,1384.24 224.74,1384.24 226.947,1384.24 229.155,1384.24 231.362,1384.24 233.57,1384.24 235.777,1384.24 237.985,1384.24 240.192,1384.24 242.4,1384.24 244.607,1384.24 246.815,1384.24 249.022,1384.24 251.23,1384.24 253.437,1384.24 255.645,1384.24 257.852,1384.24 260.06,1384.24 262.267,1384.24 264.475,1384.24 266.682,1384.24 268.89,1384.24 271.097,1384.24 273.305,1384.24 275.512,1384.24 277.72,1384.24 279.927,1384.24 282.135,1384.24 284.342,1384.24 286.549,1384.24 288.757,1384.24 290.964,1384.24 293.172,1384.24 295.379,1384.24 297.587,1384.24 299.794,1384.24 302.002,1384.24 304.209,1384.24 306.417,1384.24 308.624,1384.24 310.832,1384.24 313.039,1384.24 315.247,1384.24 317.454,1384.24 319.662,1384.24 321.869,1384.24 324.077,1384.24 326.284,1384.24 328.492,1384.24 330.699,1384.24 332.907,1384.24 335.114,1384.24 337.322,1384.24 339.529,1384.24 341.737,1384.24 343.944,1384.24 346.152,1384.24 348.359,1384.24 350.567,1384.24 352.774,1384.24 354.982,1384.24 357.189,1384.24 359.397,1384.24 361.604,1384.24 363.811,1384.24 366.019,1384.24 368.226,527.005 370.434,527.005 372.641,527.005 374.849,527.005 377.056,527.005 379.264,527.005 381.471,527.005 383.679,527.005 385.886,527.005 388.094,527.005 390.301,527.005 392.509,527.005 394.716,527.005 396.924,527.005 399.131,527.005 401.339,527.005 403.546,527.005 405.754,527.005 407.961,527.005 410.169,527.005 412.376,527.005 414.584,527.005 416.791,527.005 418.999,527.005 421.206,527.005 423.414,527.005 425.621,527.005 427.829,527.005 430.036,527.005 432.244,527.005 434.451,527.005 436.659,527.005 438.866,527.005 441.073,527.005 443.281,527.005 445.488,527.005 447.696,527.005 449.903,527.005 452.111,527.005 454.318,527.005 456.526,527.005 458.733,527.005 460.941,527.005 463.148,527.005 465.356,527.005 467.563,527.005 469.771,527.005 471.978,527.005 474.186,527.005 476.393,527.005 478.601,527.005 480.808,527.005 483.016,527.005 485.223,527.005 487.431,527.005 489.638,527.005 491.846,527.005 494.053,527.005 496.261,527.005 498.468,527.005 500.676,527.005 502.883,527.005 505.091,527.005 507.298,527.005 509.506,527.005 511.713,527.005 513.921,527.005 516.128,527.005 518.335,527.005 520.543,527.005 522.75,527.005 524.958,527.005 527.165,527.005 529.373,527.005 531.58,527.005 533.788,527.005 535.995,527.005 538.203,527.005 540.41,527.005 542.618,527.005 544.825,527.005 547.033,527.005 549.24,527.005 551.448,527.005 553.655,527.005 555.863,527.005 558.07,527.005 560.278,527.005 562.485,527.005 564.693,527.005 566.9,527.005 569.108,527.005 571.315,527.005 573.523,527.005 575.73,527.005 577.938,527.005 580.145,527.005 582.353,527.005 584.56,527.005 586.768,527.005 588.975,86.1857 591.182,86.1857 593.39,86.1857 595.597,86.1857 597.805,86.1857 600.012,86.1857 602.22,86.1857 604.427,86.1857 606.635,86.1857 608.842,86.1857 611.05,86.1857 613.257,86.1857 615.465,86.1857 617.672,86.1857 619.88,86.1857 622.087,86.1857 624.295,86.1857 626.502,86.1857 628.71,86.1857 630.917,86.1857 633.125,86.1857 635.332,86.1857 637.54,86.1857 639.747,86.1857 641.955,86.1857 644.162,86.1857 646.37,86.1857 648.577,86.1857 650.785,86.1857 652.992,86.1857 655.2,86.1857 657.407,86.1857 659.615,86.1857 661.822,86.1857 664.03,86.1857 666.237,86.1857 668.444,86.1857 670.652,86.1857 672.859,86.1857 675.067,86.1857 677.274,86.1857 679.482,86.1857 681.689,86.1857 683.897,86.1857 686.104,86.1857 688.312,86.1857 690.519,86.1857 692.727,86.1857 694.934,86.1857 697.142,86.1857 699.349,86.1857 701.557,86.1857 703.764,86.1857 705.972,86.1857 708.179,86.1857 710.387,86.1857 712.594,86.1857 714.802,86.1857 717.009,86.1857 719.217,86.1857 721.424,86.1857 723.632,86.1857 725.839,86.1857 728.047,86.1857 730.254,86.1857 732.462,86.1857 734.669,86.1857 736.877,86.1857 739.084,86.1857 741.292,86.1857 743.499,86.1857 745.706,86.1857 747.914,86.1857 750.121,86.1857 752.329,86.1857 754.536,86.1857 756.744,86.1857 758.951,86.1857 761.159,86.1857 763.366,86.1857 765.574,86.1857 767.781,86.1857 769.989,86.1857 772.196,86.1857 774.404,86.1857 776.611,86.1857 778.819,86.1857 781.026,86.1857 783.234,86.1857 785.441,86.1857 787.649,86.1857 789.856,86.1857 792.064,86.1857 794.271,86.1857 796.479,86.1857 798.686,86.1857 800.894,86.1857 803.101,86.1857 805.309,86.1857 807.516,86.1857 809.724,783.097 811.931,783.097 814.139,783.097 816.346,783.097 818.553,783.097 820.761,783.097 822.968,783.097 825.176,783.097 827.383,783.097 829.591,783.097 831.798,783.097 834.006,783.097 836.213,783.097 838.421,783.097 840.628,783.097 842.836,783.097 845.043,783.097 847.251,783.097 849.458,783.097 851.666,783.097 853.873,783.097 856.081,783.097 858.288,783.097 860.496,783.097 862.703,783.097 864.911,783.097 867.118,783.097 869.326,783.097 871.533,783.097 873.741,783.097 875.948,783.097 878.156,783.097 880.363,783.097 882.571,783.097 884.778,783.097 886.986,783.097 889.193,783.097 891.401,783.097 893.608,783.097 895.815,783.097 898.023,783.097 900.23,783.097 902.438,783.097 904.645,783.097 906.853,783.097 909.06,783.097 911.268,783.097 913.475,783.097 915.683,783.097 917.89,783.097 920.098,783.097 922.305,783.097 924.513,783.097 926.72,783.097 928.928,783.097 931.135,783.097 933.343,783.097 935.55,783.097 937.758,783.097 939.965,783.097 942.173,783.097 944.38,783.097 946.588,783.097 948.795,783.097 951.003,783.097 953.21,783.097 955.418,783.097 957.625,783.097 959.833,783.097 962.04,783.097 964.248,783.097 966.455,783.097 968.663,783.097 970.87,783.097 973.077,783.097 975.285,783.097 977.492,783.097 979.7,783.097 981.907,783.097 984.115,783.097 986.322,783.097 988.53,783.097 990.737,783.097 992.945,783.097 995.152,783.097 997.36,783.097 999.567,783.097 1001.77,783.097 1003.98,783.097 1006.19,783.097 1008.4,783.097 1010.6,783.097 1012.81,783.097 1015.02,783.097 1017.23,783.097 1019.43,783.097 1021.64,783.097 1023.85,783.097 1026.06,783.097 1028.26,783.097 1030.47,812.61 1032.68,812.61 1034.89,812.61 1037.09,812.61 1039.3,812.61 1041.51,812.61 1043.72,812.61 1045.92,812.61 1048.13,812.61 1050.34,812.61 1052.55,812.61 1054.75,812.61 1056.96,812.61 1059.17,812.61 1061.38,812.61 1063.58,812.61 1065.79,812.61 1068,812.61 1070.21,812.61 1072.41,812.61 1074.62,812.61 1076.83,812.61 1079.04,812.61 1081.24,812.61 1083.45,812.61 1085.66,812.61 1087.87,812.61 1090.07,812.61 1092.28,812.61 1094.49,812.61 1096.7,812.61 1098.9,812.61 1101.11,812.61 1103.32,812.61 1105.53,812.61 1107.73,812.61 1109.94,812.61 1112.15,812.61 1114.36,812.61 1116.56,812.61 1118.77,812.61 1120.98,812.61 1123.19,812.61 1125.39,812.61 1127.6,812.61 1129.81,812.61 1132.02,812.61 1134.22,812.61 1136.43,812.61 1138.64,812.61 1140.85,812.61 1143.05,812.61 1145.26,812.61 1147.47,812.61 1149.68,812.61 1151.88,812.61 1154.09,812.61 1156.3,812.61 1158.51,812.61 1160.71,812.61 1162.92,812.61 1165.13,812.61 1167.34,812.61 1169.54,812.61 1171.75,812.61 1173.96,812.61 1176.17,812.61 1178.37,812.61 1180.58,812.61 1182.79,812.61 1185,812.61 1187.2,812.61 1189.41,812.61 1191.62,812.61 1193.83,812.61 1196.03,812.61 1198.24,812.61 1200.45,812.61 1202.66,812.61 1204.86,812.61 1207.07,812.61 1209.28,812.61 1211.49,812.61 1213.69,812.61 1215.9,812.61 1218.11,812.61 1220.32,812.61 1222.52,812.61 1224.73,812.61 1226.94,812.61 1229.15,812.61 1231.35,812.61 1233.56,812.61 1235.77,812.61 1237.98,812.61 1240.18,812.61 1242.39,812.61 1244.6,812.61 1246.81,812.61 1249.01,812.61 1251.22,686.314 1253.43,686.314 1255.64,686.314 1257.84,686.314 1260.05,686.314 1262.26,686.314 1264.47,686.314 1266.67,686.314 1268.88,686.314 1271.09,686.314 1273.3,686.314 1275.5,686.314 1277.71,686.314 1279.92,686.314 1282.13,686.314 1284.33,686.314 1286.54,686.314 1288.75,686.314 1290.96,686.314 1293.16,686.314 1295.37,686.314 1297.58,686.314 1299.79,686.314 1301.99,686.314 1304.2,686.314 1306.41,686.314 1308.62,686.314 1310.82,686.314 1313.03,686.314 1315.24,686.314 1317.45,686.314 1319.65,686.314 1321.86,686.314 1324.07,686.314 1326.28,686.314 1328.48,686.314 1330.69,686.314 1332.9,686.314 1335.11,686.314 1337.31,686.314 1339.52,686.314 1341.73,686.314 1343.94,686.314 1346.14,686.314 1348.35,686.314 1350.56,686.314 1352.76,686.314 1354.97,686.314 1357.18,686.314 1359.39,686.314 1361.59,686.314 1363.8,686.314 1366.01,686.314 1368.22,686.314 1370.42,686.314 1372.63,686.314 1374.84,686.314 1377.05,686.314 1379.25,686.314 1381.46,686.314 1383.67,686.314 1385.88,686.314 1388.08,686.314 1390.29,686.314 1392.5,686.314 1394.71,686.314 1396.91,686.314 1399.12,686.314 1401.33,686.314 1403.54,686.314 1405.74,686.314 1407.95,686.314 1410.16,686.314 1412.37,686.314 1414.57,686.314 1416.78,686.314 1418.99,686.314 1421.2,686.314 1423.4,686.314 1425.61,686.314 1427.82,686.314 1430.03,686.314 1432.23,686.314 1434.44,686.314 1436.65,686.314 1438.86,686.314 1441.06,686.314 1443.27,686.314 1445.48,686.314 1447.69,686.314 1449.89,686.314 1452.1,686.314 1454.31,686.314 1456.52,686.314 1458.72,686.314 1460.93,686.314 1463.14,686.314 1465.35,686.314 1467.55,686.314 1469.76,686.314 1471.97,964.077 1474.18,964.077 1476.38,964.077 1478.59,964.077 1480.8,964.077 1483.01,964.077 1485.21,964.077 1487.42,964.077 1489.63,964.077 1491.84,964.077 1494.04,964.077 1496.25,964.077 1498.46,964.077 1500.67,964.077 1502.87,964.077 1505.08,964.077 1507.29,964.077 1509.5,964.077 1511.7,964.077 1513.91,964.077 1516.12,964.077 1518.33,964.077 1520.53,964.077 1522.74,964.077 1524.95,964.077 1527.16,964.077 1529.36,964.077 1531.57,964.077 1533.78,964.077 1535.99,964.077 1538.19,964.077 1540.4,964.077 1542.61,964.077 1544.82,964.077 1547.02,964.077 1549.23,964.077 1551.44,964.077 1553.65,964.077 1555.85,964.077 1558.06,964.077 1560.27,964.077 1562.48,964.077 1564.68,964.077 1566.89,964.077 1569.1,964.077 1571.31,964.077 1573.51,964.077 1575.72,964.077 1577.93,964.077 1580.14,964.077 1582.34,964.077 1584.55,964.077 1586.76,964.077 1588.97,964.077 1591.17,964.077 1593.38,964.077 1595.59,964.077 1597.8,964.077 1600,964.077 1602.21,964.077 1604.42,964.077 1606.63,964.077 1608.83,964.077 1611.04,964.077 1613.25,964.077 1615.46,964.077 1617.66,964.077 1619.87,964.077 1622.08,964.077 1624.29,964.077 1626.49,964.077 1628.7,964.077 1630.91,964.077 1633.12,964.077 1635.32,964.077 1637.53,964.077 1639.74,964.077 1641.95,964.077 1644.15,964.077 1646.36,964.077 1648.57,964.077 1650.78,964.077 1652.98,964.077 1655.19,964.077 1657.4,964.077 1659.61,964.077 1661.81,964.077 1664.02,964.077 1666.23,964.077 1668.44,964.077 1670.64,964.077 1672.85,964.077 1675.06,964.077 1677.27,964.077 1679.47,964.077 1681.68,964.077 1683.89,964.077 1686.1,964.077 1688.3,964.077 1690.51,964.077 1692.72,288.872 1694.93,288.872 1697.13,288.872 1699.34,288.872 1701.55,288.872 1703.76,288.872 1705.96,288.872 1708.17,288.872 1710.38,288.872 1712.59,288.872 1714.79,288.872 1717,288.872 1719.21,288.872 1721.42,288.872 1723.62,288.872 1725.83,288.872 1728.04,288.872 1730.25,288.872 1732.45,288.872 1734.66,288.872 1736.87,288.872 1739.07,288.872 1741.28,288.872 1743.49,288.872 1745.7,288.872 1747.9,288.872 1750.11,288.872 1752.32,288.872 1754.53,288.872 1756.73,288.872 1758.94,288.872 1761.15,288.872 1763.36,288.872 1765.56,288.872 1767.77,288.872 1769.98,288.872 1772.19,288.872 1774.39,288.872 1776.6,288.872 1778.81,288.872 1781.02,288.872 1783.22,288.872 1785.43,288.872 1787.64,288.872 1789.85,288.872 1792.05,288.872 1794.26,288.872 1796.47,288.872 1798.68,288.872 1800.88,288.872 1803.09,288.872 1805.3,288.872 1807.51,288.872 1809.71,288.872 1811.92,288.872 1814.13,288.872 1816.34,288.872 1818.54,288.872 1820.75,288.872 1822.96,288.872 1825.17,288.872 1827.37,288.872 1829.58,288.872 1831.79,288.872 1834,288.872 1836.2,288.872 1838.41,288.872 1840.62,288.872 1842.83,288.872 1845.03,288.872 1847.24,288.872 1849.45,288.872 1851.66,288.872 1853.86,288.872 1856.07,288.872 1858.28,288.872 1860.49,288.872 1862.69,288.872 1864.9,288.872 1867.11,288.872 1869.32,288.872 1871.52,288.872 1873.73,288.872 1875.94,288.872 1878.15,288.872 1880.35,288.872 1882.56,288.872 1884.77,288.872 1886.98,288.872 1889.18,288.872 1891.39,288.872 1893.6,288.872 1895.81,288.872 1898.01,288.872 1900.22,288.872 1902.43,288.872 1904.64,288.872 1906.84,288.872 1909.05,288.872 1911.26,288.872 1913.47,340.597 1915.67,340.597 1917.88,340.597 1920.09,340.597 1922.3,340.597 1924.5,340.597 1926.71,340.597 1928.92,340.597 1931.13,340.597 1933.33,340.597 1935.54,340.597 1937.75,340.597 1939.96,340.597 1942.16,340.597 1944.37,340.597 1946.58,340.597 1948.79,340.597 1950.99,340.597 1953.2,340.597 1955.41,340.597 1957.62,340.597 1959.82,340.597 1962.03,340.597 1964.24,340.597 1966.45,340.597 1968.65,340.597 1970.86,340.597 1973.07,340.597 1975.28,340.597 1977.48,340.597 1979.69,340.597 1981.9,340.597 1984.11,340.597 1986.31,340.597 1988.52,340.597 1990.73,340.597 1992.94,340.597 1995.14,340.597 1997.35,340.597 1999.56,340.597 2001.77,340.597 2003.97,340.597 2006.18,340.597 2008.39,340.597 2010.6,340.597 2012.8,340.597 2015.01,340.597 2017.22,340.597 2019.43,340.597 2021.63,340.597 2023.84,340.597 2026.05,340.597 2028.26,340.597 2030.46,340.597 2032.67,340.597 2034.88,340.597 2037.09,340.597 2039.29,340.597 2041.5,340.597 2043.71,340.597 2045.92,340.597 2048.12,340.597 2050.33,340.597 2052.54,340.597 2054.75,340.597 2056.95,340.597 2059.16,340.597 2061.37,340.597 2063.58,340.597 2065.78,340.597 2067.99,340.597 2070.2,340.597 2072.41,340.597 2074.61,340.597 2076.82,340.597 2079.03,340.597 2081.24,340.597 2083.44,340.597 2085.65,340.597 2087.86,340.597 2090.07,340.597 2092.27,340.597 2094.48,340.597 2096.69,340.597 2098.9,340.597 2101.1,340.597 2103.31,340.597 2105.52,340.597 2107.73,340.597 2109.93,340.597 2112.14,340.597 2114.35,340.597 2116.55,340.597 2118.76,340.597 2120.97,340.597 2123.18,340.597 2125.38,340.597 2127.59,340.597 2129.8,340.597 2132.01,340.597 2134.21,1036.76 2136.42,1036.76 2138.63,1036.76 2140.84,1036.76 2143.04,1036.76 2145.25,1036.76 2147.46,1036.76 2149.67,1036.76 2151.87,1036.76 2154.08,1036.76 2156.29,1036.76 2158.5,1036.76 2160.7,1036.76 2162.91,1036.76 2165.12,1036.76 2167.33,1036.76 2169.53,1036.76 2171.74,1036.76 2173.95,1036.76 2176.16,1036.76 2178.36,1036.76 2180.57,1036.76 2182.78,1036.76 2184.99,1036.76 2187.19,1036.76 2189.4,1036.76 2191.61,1036.76 2193.82,1036.76 2196.02,1036.76 2198.23,1036.76 2200.44,1036.76 2202.65,1036.76 2204.85,1036.76 2207.06,1036.76 2209.27,1036.76 2211.48,1036.76 2213.68,1036.76 2215.89,1036.76 2218.1,1036.76 2220.31,1036.76 2222.51,1036.76 2224.72,1036.76 2226.93,1036.76 2229.14,1036.76 2231.34,1036.76 2233.55,1036.76 2235.76,1036.76 2237.97,1036.76 2240.17,1036.76 2242.38,1036.76 2244.59,1036.76 2246.8,1036.76 2249,1036.76 2251.21,1036.76 2253.42,1036.76 2255.63,1036.76 2257.83,1036.76 2260.04,1036.76 2262.25,1036.76 2264.46,1036.76 2266.66,1036.76 2268.87,1036.76 2271.08,1036.76 2273.29,1036.76 2275.49,1036.76 2277.7,1036.76 2279.91,1036.76 2282.12,1036.76 2284.32,1036.76 2286.53,1036.76 2288.74,1036.76 2290.95,1036.76 2293.15,1036.76 2295.36,1036.76 2297.57,1036.76 2299.78,1036.76 2301.98,1036.76 2304.19,1036.76 2306.4,1036.76 2308.61,1036.76 2310.81,1036.76 2313.02,1036.76 2315.23,1036.76 2317.44,1036.76 2319.64,1036.76 2321.85,1036.76 2324.06,1036.76 2326.27,1036.76 2328.47,1036.76 2330.68,1036.76 2332.89,1036.76 2335.1,1036.76 2337.3,1036.76 2339.51,1036.76 2341.72,1036.76 2343.93,1036.76 2346.13,1036.76 2348.34,1036.76 2350.55,1036.76 2352.76,1036.76 "/>
<path clip-path="url(#clip890)" d="M2033.58 1377.32 L2279.25 1377.32 L2279.25 1221.8 L2033.58 1221.8  Z" fill="#ffffff" fill-rule="evenodd" fill-opacity="1"/>
<polyline clip-path="url(#clip890)" style="stroke:#000000; stroke-linecap:round; stroke-linejoin:round; stroke-width:4; stroke-opacity:1; fill:none" points="2033.58,1377.32 2279.25,1377.32 2279.25,1221.8 2033.58,1221.8 2033.58,1377.32 "/>
<polyline clip-path="url(#clip890)" style="stroke:#009af9; stroke-linecap:round; stroke-linejoin:round; stroke-width:4; stroke-opacity:1; fill:none" points="2058.08,1273.64 2205.1,1273.64 "/>
<path clip-path="url(#clip890)" d="M2254.26 1264.99 L2244.88 1277.61 L2254.74 1290.92 L2249.72 1290.92 L2242.17 1280.73 L2234.63 1290.92 L2229.6 1290.92 L2239.67 1277.35 L2230.46 1264.99 L2235.48 1264.99 L2242.36 1274.23 L2249.23 1264.99 L2254.26 1264.99 Z" fill="#000000" fill-rule="nonzero" fill-opacity="1" /><polyline clip-path="url(#clip890)" style="stroke:#e26f46; stroke-linecap:round; stroke-linejoin:round; stroke-width:4; stroke-opacity:1; fill:none" points="2058.08,1325.48 2205.1,1325.48 "/>
<path clip-path="url(#clip890)" d="M2246.11 1306.74 L2246.11 1310.28 L2242.04 1310.28 Q2239.74 1310.28 2238.84 1311.2 Q2237.96 1312.13 2237.96 1314.54 L2237.96 1316.83 L2244.98 1316.83 L2244.98 1320.14 L2237.96 1320.14 L2237.96 1342.76 L2233.68 1342.76 L2233.68 1320.14 L2229.6 1320.14 L2229.6 1316.83 L2233.68 1316.83 L2233.68 1315.02 Q2233.68 1310.7 2235.69 1308.73 Q2237.71 1306.74 2242.08 1306.74 L2246.11 1306.74 Z" fill="#000000" fill-rule="nonzero" fill-opacity="1" /></svg>
