<?xml version="1.0" encoding="utf-8"?>
<svg xmlns="http://www.w3.org/2000/svg" xmlns:xlink="http://www.w3.org/1999/xlink" width="600" height="400" viewBox="0 0 2400 1600">
<defs>
  <clipPath id="clip770">
    <rect x="0" y="0" width="2400" height="1600"/>
  </clipPath>
</defs>
<path clip-path="url(#clip770)" d="M0 1600 L2400 1600 L2400 0 L0 0  Z" fill="#ffffff" fill-rule="evenodd" fill-opacity="1"/>
<defs>
  <clipPath id="clip771">
    <rect x="480" y="0" width="1681" height="1600"/>
  </clipPath>
</defs>
<path clip-path="url(#clip770)" d="M148.057 1423.18 L2352.76 1423.18 L2352.76 47.2441 L148.057 47.2441  Z" fill="#ffffff" fill-rule="evenodd" fill-opacity="1"/>
<defs>
  <clipPath id="clip772">
    <rect x="148" y="47" width="2206" height="1377"/>
  </clipPath>
</defs>
<polyline clip-path="url(#clip772)" style="stroke:#000000; stroke-linecap:round; stroke-linejoin:round; stroke-width:2; stroke-opacity:0.1; fill:none" points="148.057,1423.18 148.057,47.2441 "/>
<polyline clip-path="url(#clip772)" style="stroke:#000000; stroke-linecap:round; stroke-linejoin:round; stroke-width:2; stroke-opacity:0.1; fill:none" points="588.996,1423.18 588.996,47.2441 "/>
<polyline clip-path="url(#clip772)" style="stroke:#000000; stroke-linecap:round; stroke-linejoin:round; stroke-width:2; stroke-opacity:0.1; fill:none" points="1029.94,1423.18 1029.94,47.2441 "/>
<polyline clip-path="url(#clip772)" style="stroke:#000000; stroke-linecap:round; stroke-linejoin:round; stroke-width:2; stroke-opacity:0.1; fill:none" points="1470.88,1423.18 1470.88,47.2441 "/>
<polyline clip-path="url(#clip772)" style="stroke:#000000; stroke-linecap:round; stroke-linejoin:round; stroke-width:2; stroke-opacity:0.1; fill:none" points="1911.82,1423.18 1911.82,47.2441 "/>
<polyline clip-path="url(#clip772)" style="stroke:#000000; stroke-linecap:round; stroke-linejoin:round; stroke-width:2; stroke-opacity:0.1; fill:none" points="2352.76,1423.18 2352.76,47.2441 "/>
<polyline clip-path="url(#clip772)" style="stroke:#000000; stroke-linecap:round; stroke-linejoin:round; stroke-width:2; stroke-opacity:0.1; fill:none" points="148.057,1406.29 2352.76,1406.29 "/>
<polyline clip-path="url(#clip772)" style="stroke:#000000; stroke-linecap:round; stroke-linejoin:round; stroke-width:2; stroke-opacity:0.1; fill:none" points="148.057,1108.15 2352.76,1108.15 "/>
<polyline clip-path="url(#clip772)" style="stroke:#000000; stroke-linecap:round; stroke-linejoin:round; stroke-width:2; stroke-opacity:0.1; fill:none" points="148.057,810.011 2352.76,810.011 "/>
<polyline clip-path="url(#clip772)" style="stroke:#000000; stroke-linecap:round; stroke-linejoin:round; stroke-width:2; stroke-opacity:0.1; fill:none" points="148.057,511.872 2352.76,511.872 "/>
<polyline clip-path="url(#clip772)" style="stroke:#000000; stroke-linecap:round; stroke-linejoin:round; stroke-width:2; stroke-opacity:0.1; fill:none" points="148.057,213.734 2352.76,213.734 "/>
<polyline clip-path="url(#clip770)" style="stroke:#000000; stroke-linecap:round; stroke-linejoin:round; stroke-width:4; stroke-opacity:1; fill:none" points="148.057,1423.18 2352.76,1423.18 "/>
<polyline clip-path="url(#clip770)" style="stroke:#000000; stroke-linecap:round; stroke-linejoin:round; stroke-width:4; stroke-opacity:1; fill:none" points="148.057,1423.18 148.057,1404.28 "/>
<polyline clip-path="url(#clip770)" style="stroke:#000000; stroke-linecap:round; stroke-linejoin:round; stroke-width:4; stroke-opacity:1; fill:none" points="588.996,1423.18 588.996,1404.28 "/>
<polyline clip-path="url(#clip770)" style="stroke:#000000; stroke-linecap:round; stroke-linejoin:round; stroke-width:4; stroke-opacity:1; fill:none" points="1029.94,1423.18 1029.94,1404.28 "/>
<polyline clip-path="url(#clip770)" style="stroke:#000000; stroke-linecap:round; stroke-linejoin:round; stroke-width:4; stroke-opacity:1; fill:none" points="1470.88,1423.18 1470.88,1404.28 "/>
<polyline clip-path="url(#clip770)" style="stroke:#000000; stroke-linecap:round; stroke-linejoin:round; stroke-width:4; stroke-opacity:1; fill:none" points="1911.82,1423.18 1911.82,1404.28 "/>
<polyline clip-path="url(#clip770)" style="stroke:#000000; stroke-linecap:round; stroke-linejoin:round; stroke-width:4; stroke-opacity:1; fill:none" points="2352.76,1423.18 2352.76,1404.28 "/>
<path clip-path="url(#clip770)" d="M148.057 1454.1 Q144.446 1454.1 142.617 1457.66 Q140.811 1461.2 140.811 1468.33 Q140.811 1475.44 142.617 1479.01 Q144.446 1482.55 148.057 1482.55 Q151.691 1482.55 153.496 1479.01 Q155.325 1475.44 155.325 1468.33 Q155.325 1461.2 153.496 1457.66 Q151.691 1454.1 148.057 1454.1 M148.057 1450.39 Q153.867 1450.39 156.922 1455 Q160.001 1459.58 160.001 1468.33 Q160.001 1477.06 156.922 1481.67 Q153.867 1486.25 148.057 1486.25 Q142.246 1486.25 139.168 1481.67 Q136.112 1477.06 136.112 1468.33 Q136.112 1459.58 139.168 1455 Q142.246 1450.39 148.057 1450.39 Z" fill="#000000" fill-rule="nonzero" fill-opacity="1" /><path clip-path="url(#clip770)" d="M583.649 1481.64 L599.969 1481.64 L599.969 1485.58 L578.024 1485.58 L578.024 1481.64 Q580.686 1478.89 585.27 1474.26 Q589.876 1469.61 591.057 1468.27 Q593.302 1465.74 594.182 1464.01 Q595.084 1462.25 595.084 1460.56 Q595.084 1457.8 593.14 1456.07 Q591.219 1454.33 588.117 1454.33 Q585.918 1454.33 583.464 1455.09 Q581.034 1455.86 578.256 1457.41 L578.256 1452.69 Q581.08 1451.55 583.534 1450.97 Q585.987 1450.39 588.024 1450.39 Q593.395 1450.39 596.589 1453.08 Q599.783 1455.77 599.783 1460.26 Q599.783 1462.39 598.973 1464.31 Q598.186 1466.2 596.08 1468.8 Q595.501 1469.47 592.399 1472.69 Q589.297 1475.88 583.649 1481.64 Z" fill="#000000" fill-rule="nonzero" fill-opacity="1" /><path clip-path="url(#clip770)" d="M1032.95 1455.09 L1021.14 1473.54 L1032.95 1473.54 L1032.95 1455.09 M1031.72 1451.02 L1037.6 1451.02 L1037.6 1473.54 L1042.53 1473.54 L1042.53 1477.43 L1037.6 1477.43 L1037.6 1485.58 L1032.95 1485.58 L1032.95 1477.43 L1017.34 1477.43 L1017.34 1472.92 L1031.72 1451.02 Z" fill="#000000" fill-rule="nonzero" fill-opacity="1" /><path clip-path="url(#clip770)" d="M1471.28 1466.44 Q1468.13 1466.44 1466.28 1468.59 Q1464.45 1470.74 1464.45 1474.49 Q1464.45 1478.22 1466.28 1480.39 Q1468.13 1482.55 1471.28 1482.55 Q1474.43 1482.55 1476.26 1480.39 Q1478.11 1478.22 1478.11 1474.49 Q1478.11 1470.74 1476.26 1468.59 Q1474.43 1466.44 1471.28 1466.44 M1480.56 1451.78 L1480.56 1456.04 Q1478.8 1455.21 1477 1454.77 Q1475.22 1454.33 1473.46 1454.33 Q1468.83 1454.33 1466.37 1457.45 Q1463.94 1460.58 1463.6 1466.9 Q1464.96 1464.89 1467.02 1463.82 Q1469.08 1462.73 1471.56 1462.73 Q1476.77 1462.73 1479.78 1465.9 Q1482.81 1469.05 1482.81 1474.49 Q1482.81 1479.82 1479.66 1483.03 Q1476.51 1486.25 1471.28 1486.25 Q1465.29 1486.25 1462.11 1481.67 Q1458.94 1477.06 1458.94 1468.33 Q1458.94 1460.14 1462.83 1455.28 Q1466.72 1450.39 1473.27 1450.39 Q1475.03 1450.39 1476.81 1450.74 Q1478.62 1451.09 1480.56 1451.78 Z" fill="#000000" fill-rule="nonzero" fill-opacity="1" /><path clip-path="url(#clip770)" d="M1911.82 1469.17 Q1908.48 1469.17 1906.56 1470.95 Q1904.66 1472.73 1904.66 1475.86 Q1904.66 1478.98 1906.56 1480.77 Q1908.48 1482.55 1911.82 1482.55 Q1915.15 1482.55 1917.07 1480.77 Q1918.99 1478.96 1918.99 1475.86 Q1918.99 1472.73 1917.07 1470.95 Q1915.17 1469.17 1911.82 1469.17 M1907.14 1467.18 Q1904.13 1466.44 1902.44 1464.38 Q1900.77 1462.32 1900.77 1459.35 Q1900.77 1455.21 1903.71 1452.8 Q1906.68 1450.39 1911.82 1450.39 Q1916.98 1450.39 1919.92 1452.8 Q1922.86 1455.21 1922.86 1459.35 Q1922.86 1462.32 1921.17 1464.38 Q1919.5 1466.44 1916.52 1467.18 Q1919.89 1467.96 1921.77 1470.26 Q1923.67 1472.55 1923.67 1475.86 Q1923.67 1480.88 1920.59 1483.57 Q1917.53 1486.25 1911.82 1486.25 Q1906.1 1486.25 1903.02 1483.57 Q1899.96 1480.88 1899.96 1475.86 Q1899.96 1472.55 1901.86 1470.26 Q1903.76 1467.96 1907.14 1467.18 M1905.43 1459.79 Q1905.43 1462.48 1907.09 1463.98 Q1908.78 1465.49 1911.82 1465.49 Q1914.83 1465.49 1916.52 1463.98 Q1918.23 1462.48 1918.23 1459.79 Q1918.23 1457.11 1916.52 1455.6 Q1914.83 1454.1 1911.82 1454.1 Q1908.78 1454.1 1907.09 1455.6 Q1905.43 1457.11 1905.43 1459.79 Z" fill="#000000" fill-rule="nonzero" fill-opacity="1" /><path clip-path="url(#clip770)" d="M2327.44 1481.64 L2335.08 1481.64 L2335.08 1455.28 L2326.77 1456.95 L2326.77 1452.69 L2335.04 1451.02 L2339.71 1451.02 L2339.71 1481.64 L2347.35 1481.64 L2347.35 1485.58 L2327.44 1485.58 L2327.44 1481.64 Z" fill="#000000" fill-rule="nonzero" fill-opacity="1" /><path clip-path="url(#clip770)" d="M2366.8 1454.1 Q2363.18 1454.1 2361.36 1457.66 Q2359.55 1461.2 2359.55 1468.33 Q2359.55 1475.44 2361.36 1479.01 Q2363.18 1482.55 2366.8 1482.55 Q2370.43 1482.55 2372.23 1479.01 Q2374.06 1475.44 2374.06 1468.33 Q2374.06 1461.2 2372.23 1457.66 Q2370.43 1454.1 2366.8 1454.1 M2366.8 1450.39 Q2372.61 1450.39 2375.66 1455 Q2378.74 1459.58 2378.74 1468.33 Q2378.74 1477.06 2375.66 1481.67 Q2372.61 1486.25 2366.8 1486.25 Q2360.99 1486.25 2357.91 1481.67 Q2354.85 1477.06 2354.85 1468.33 Q2354.85 1459.58 2357.91 1455 Q2360.99 1450.39 2366.8 1450.39 Z" fill="#000000" fill-rule="nonzero" fill-opacity="1" /><path clip-path="url(#clip770)" d="M1249.47 1522.27 L1249.47 1532.4 L1261.53 1532.4 L1261.53 1536.95 L1249.47 1536.95 L1249.47 1556.3 Q1249.47 1560.66 1250.64 1561.9 Q1251.85 1563.14 1255.51 1563.14 L1261.53 1563.14 L1261.53 1568.04 L1255.51 1568.04 Q1248.74 1568.04 1246.16 1565.53 Q1243.58 1562.98 1243.58 1556.3 L1243.58 1536.95 L1239.28 1536.95 L1239.28 1532.4 L1243.58 1532.4 L1243.58 1522.27 L1249.47 1522.27 Z" fill="#000000" fill-rule="nonzero" fill-opacity="1" /><polyline clip-path="url(#clip770)" style="stroke:#000000; stroke-linecap:round; stroke-linejoin:round; stroke-width:4; stroke-opacity:1; fill:none" points="148.057,1423.18 148.057,47.2441 "/>
<polyline clip-path="url(#clip770)" style="stroke:#000000; stroke-linecap:round; stroke-linejoin:round; stroke-width:4; stroke-opacity:1; fill:none" points="148.057,1406.29 166.954,1406.29 "/>
<polyline clip-path="url(#clip770)" style="stroke:#000000; stroke-linecap:round; stroke-linejoin:round; stroke-width:4; stroke-opacity:1; fill:none" points="148.057,1108.15 166.954,1108.15 "/>
<polyline clip-path="url(#clip770)" style="stroke:#000000; stroke-linecap:round; stroke-linejoin:round; stroke-width:4; stroke-opacity:1; fill:none" points="148.057,810.011 166.954,810.011 "/>
<polyline clip-path="url(#clip770)" style="stroke:#000000; stroke-linecap:round; stroke-linejoin:round; stroke-width:4; stroke-opacity:1; fill:none" points="148.057,511.872 166.954,511.872 "/>
<polyline clip-path="url(#clip770)" style="stroke:#000000; stroke-linecap:round; stroke-linejoin:round; stroke-width:4; stroke-opacity:1; fill:none" points="148.057,213.734 166.954,213.734 "/>
<path clip-path="url(#clip770)" d="M50.9921 1406.74 L80.6679 1406.74 L80.6679 1410.68 L50.9921 1410.68 L50.9921 1406.74 Z" fill="#000000" fill-rule="nonzero" fill-opacity="1" /><path clip-path="url(#clip770)" d="M104.927 1404.93 Q108.283 1405.65 110.158 1407.92 Q112.057 1410.19 112.057 1413.52 Q112.057 1418.64 108.538 1421.44 Q105.02 1424.24 98.5382 1424.24 Q96.3623 1424.24 94.0475 1423.8 Q91.7558 1423.38 89.3021 1422.53 L89.3021 1418.01 Q91.2465 1419.15 93.5613 1419.73 Q95.8761 1420.3 98.3993 1420.3 Q102.797 1420.3 105.089 1418.57 Q107.404 1416.83 107.404 1413.52 Q107.404 1410.47 105.251 1408.75 Q103.121 1407.02 99.3021 1407.02 L95.2743 1407.02 L95.2743 1403.18 L99.4872 1403.18 Q102.936 1403.18 104.765 1401.81 Q106.594 1400.42 106.594 1397.83 Q106.594 1395.17 104.696 1393.75 Q102.821 1392.32 99.3021 1392.32 Q97.3808 1392.32 95.1817 1392.74 Q92.9826 1393.15 90.3438 1394.03 L90.3438 1389.86 Q93.0058 1389.12 95.3206 1388.75 Q97.6585 1388.38 99.7187 1388.38 Q105.043 1388.38 108.145 1390.81 Q111.246 1393.22 111.246 1397.34 Q111.246 1400.21 109.603 1402.2 Q107.959 1404.17 104.927 1404.93 Z" fill="#000000" fill-rule="nonzero" fill-opacity="1" /><path clip-path="url(#clip770)" d="M51.9412 1108.6 L81.617 1108.6 L81.617 1112.54 L51.9412 1112.54 L51.9412 1108.6 Z" fill="#000000" fill-rule="nonzero" fill-opacity="1" /><path clip-path="url(#clip770)" d="M95.7373 1121.49 L112.057 1121.49 L112.057 1125.43 L90.1123 1125.43 L90.1123 1121.49 Q92.7743 1118.74 97.3576 1114.11 Q101.964 1109.46 103.145 1108.12 Q105.39 1105.59 106.27 1103.86 Q107.172 1102.1 107.172 1100.41 Q107.172 1097.65 105.228 1095.92 Q103.307 1094.18 100.205 1094.18 Q98.0058 1094.18 95.5521 1094.94 Q93.1215 1095.71 90.3438 1097.26 L90.3438 1092.54 Q93.1678 1091.4 95.6215 1090.82 Q98.0752 1090.24 100.112 1090.24 Q105.483 1090.24 108.677 1092.93 Q111.871 1095.62 111.871 1100.11 Q111.871 1102.24 111.061 1104.16 Q110.274 1106.05 108.168 1108.65 Q107.589 1109.32 104.487 1112.54 Q101.385 1115.73 95.7373 1121.49 Z" fill="#000000" fill-rule="nonzero" fill-opacity="1" /><path clip-path="url(#clip770)" d="M51.5708 810.463 L81.2466 810.463 L81.2466 814.398 L51.5708 814.398 L51.5708 810.463 Z" fill="#000000" fill-rule="nonzero" fill-opacity="1" /><path clip-path="url(#clip770)" d="M92.1493 823.356 L99.7882 823.356 L99.7882 796.99 L91.478 798.657 L91.478 794.398 L99.7419 792.731 L104.418 792.731 L104.418 823.356 L112.057 823.356 L112.057 827.291 L92.1493 827.291 L92.1493 823.356 Z" fill="#000000" fill-rule="nonzero" fill-opacity="1" /><path clip-path="url(#clip770)" d="M100.112 497.671 Q96.5011 497.671 94.6724 501.236 Q92.8669 504.778 92.8669 511.907 Q92.8669 519.014 94.6724 522.578 Q96.5011 526.12 100.112 526.12 Q103.746 526.12 105.552 522.578 Q107.381 519.014 107.381 511.907 Q107.381 504.778 105.552 501.236 Q103.746 497.671 100.112 497.671 M100.112 493.967 Q105.922 493.967 108.978 498.574 Q112.057 503.157 112.057 511.907 Q112.057 520.634 108.978 525.24 Q105.922 529.824 100.112 529.824 Q94.3021 529.824 91.2234 525.24 Q88.1679 520.634 88.1679 511.907 Q88.1679 503.157 91.2234 498.574 Q94.3021 493.967 100.112 493.967 Z" fill="#000000" fill-rule="nonzero" fill-opacity="1" /><path clip-path="url(#clip770)" d="M92.1493 227.079 L99.7882 227.079 L99.7882 200.713 L91.478 202.38 L91.478 198.12 L99.7419 196.454 L104.418 196.454 L104.418 227.079 L112.057 227.079 L112.057 231.014 L92.1493 231.014 L92.1493 227.079 Z" fill="#000000" fill-rule="nonzero" fill-opacity="1" /><polyline clip-path="url(#clip772)" style="stroke:#009af9; stroke-linecap:round; stroke-linejoin:round; stroke-width:4; stroke-opacity:1; fill:none" points="148.057,511.872 150.264,513.235 152.47,514.58 154.677,515.906 156.884,517.215 159.091,518.507 161.298,519.782 163.505,521.04 165.712,522.281 167.919,523.505 170.126,524.714 172.333,525.906 174.539,527.082 176.746,528.243 178.953,529.389 181.16,530.519 183.367,531.635 185.574,532.735 187.781,533.821 189.988,534.893 192.195,535.95 194.402,536.994 196.609,538.023 198.815,539.039 201.022,540.041 203.229,541.031 205.436,542.007 207.643,542.97 209.85,543.92 212.057,544.858 214.264,545.783 216.471,546.696 218.678,547.597 220.885,548.486 223.091,549.363 225.298,550.229 227.505,551.083 229.712,551.925 231.919,552.757 234.126,553.577 236.333,554.387 238.54,555.186 240.747,555.974 242.954,556.752 245.16,557.52 247.367,558.277 249.574,559.025 251.781,559.762 253.988,560.49 256.195,561.208 258.402,561.916 260.609,562.615 262.816,563.305 265.023,563.986 267.23,564.658 269.436,565.32 271.643,565.974 273.85,566.62 276.057,567.256 278.264,567.885 280.471,568.505 282.678,569.117 284.885,569.72 287.092,570.316 289.299,570.904 291.506,571.484 293.712,572.056 295.919,572.621 298.126,573.178 300.333,573.728 302.54,574.27 304.747,574.805 306.954,575.334 309.161,575.855 311.368,576.369 313.575,576.877 315.781,577.377 317.988,577.872 320.195,578.359 322.402,578.84 324.609,579.315 326.816,579.783 329.023,580.246 331.23,580.702 333.437,581.152 335.644,581.596 337.851,582.034 340.057,582.466 342.264,582.893 344.471,583.314 346.678,583.729 348.885,584.139 351.092,584.544 353.299,584.943 355.506,585.337 357.713,585.725 359.92,586.109 362.127,586.487 364.333,586.861 366.54,587.229 368.747,587.546 370.954,587.631 373.161,587.49 375.368,587.15 377.575,586.635 379.782,585.968 381.989,585.172 384.196,584.267 386.402,583.273 388.609,582.208 390.816,581.088 393.023,579.928 395.23,578.743 397.437,577.546 399.644,576.347 401.851,575.156 404.058,573.982 406.265,572.833 408.472,571.714 410.678,570.629 412.885,569.582 415.092,568.575 417.299,567.608 419.506,566.68 421.713,565.79 423.92,564.932 426.127,564.104 428.334,563.297 430.541,562.505 432.748,561.719 434.954,560.928 437.161,560.122 439.368,559.316 441.575,558.521 443.782,557.736 445.989,556.962 448.196,556.198 450.403,555.444 452.61,554.7 454.817,553.965 457.023,553.241 459.23,552.526 461.437,551.821 463.644,551.125 465.851,550.438 468.058,549.761 470.265,549.092 472.472,548.432 474.679,547.781 476.886,547.139 479.093,546.505 481.299,545.879 483.506,545.262 485.713,544.653 487.92,544.052 490.127,543.459 492.334,542.873 494.541,542.296 496.748,541.726 498.955,541.164 501.162,540.609 503.369,540.062 505.575,539.522 507.782,538.989 509.989,538.463 512.196,537.944 514.403,537.432 516.61,536.927 518.817,536.428 521.024,535.937 523.231,535.451 525.438,534.972 527.644,534.5 529.851,534.034 532.058,533.574 534.265,533.12 536.472,532.672 538.679,532.23 540.886,531.793 543.093,531.363 545.3,530.938 547.507,530.519 549.714,530.106 551.92,529.698 554.127,529.295 556.334,528.898 558.541,528.506 560.748,528.119 562.955,527.737 565.162,527.361 567.369,526.989 569.576,526.622 571.783,526.26 573.99,525.903 576.196,525.551 578.403,525.203 580.61,524.86 582.817,524.522 585.024,524.188 587.231,523.858 589.438,523.408 591.645,522.076 593.852,519.839 596.059,516.82 598.265,513.134 600.472,508.89 602.679,504.189 604.886,499.124 607.093,493.781 609.3,488.238 611.507,482.566 613.714,476.83 615.921,471.085 618.128,465.38 620.335,459.756 622.541,454.248 624.748,448.882 626.955,443.676 629.162,438.643 631.369,433.786 633.576,429.103 635.783,424.583 637.99,420.207 640.197,415.95 642.404,411.779 644.611,407.654 646.817,403.526 649.024,399.35 651.231,395.198 653.438,391.101 655.645,387.058 657.852,383.069 660.059,379.133 662.266,375.249 664.473,371.417 666.68,367.635 668.886,363.904 671.093,360.222 673.3,356.589 675.507,353.004 677.714,349.466 679.921,345.976 682.128,342.531 684.335,339.132 686.542,335.779 688.749,332.469 690.956,329.204 693.162,325.981 695.369,322.802 697.576,319.665 699.783,316.569 701.99,313.514 704.197,310.5 706.404,307.526 708.611,304.591 710.818,301.696 713.025,298.838 715.232,296.019 717.438,293.237 719.645,290.492 721.852,287.783 724.059,285.111 726.266,282.474 728.473,279.871 730.68,277.304 732.887,274.77 735.094,272.27 737.301,269.803 739.507,267.369 741.714,264.967 743.921,262.597 746.128,260.258 748.335,257.951 750.542,255.674 752.749,253.427 754.956,251.209 757.163,249.022 759.37,246.863 761.577,244.733 763.783,242.631 765.99,240.556 768.197,238.51 770.404,236.49 772.611,234.497 774.818,232.531 777.025,230.591 779.232,228.676 781.439,226.787 783.646,224.923 785.853,223.084 788.059,221.269 790.266,219.478 792.473,217.711 794.68,215.967 796.887,214.246 799.094,212.725 801.301,212.87 803.508,214.676 805.715,217.761 807.922,221.786 810.128,226.454 812.335,231.511 814.542,236.744 816.749,241.983 818.956,247.101 821.163,252.012 823.37,256.671 825.577,261.079 827.784,265.276 829.991,269.345 832.198,273.412 834.404,277.548 836.611,281.636 838.818,285.669 841.025,289.648 843.232,293.575 845.439,297.45 847.646,301.274 849.853,305.047 852.06,308.769 854.267,312.443 856.474,316.068 858.68,319.645 860.887,323.174 863.094,326.657 865.301,330.093 867.508,333.484 869.715,336.83 871.922,340.132 874.129,343.389 876.336,346.604 878.543,349.776 880.749,352.905 882.956,355.994 885.163,359.041 887.37,362.048 889.577,365.015 891.784,367.942 893.991,370.831 896.198,373.682 898.405,376.494 900.612,379.27 902.819,382.008 905.025,384.71 907.232,387.377 909.439,390.008 911.646,392.604 913.853,395.166 916.06,397.694 918.267,400.188 920.474,402.649 922.681,405.078 924.888,407.475 927.095,409.839 929.301,412.173 931.508,414.475 933.715,416.747 935.922,418.989 938.129,421.201 940.336,423.384 942.543,425.538 944.75,427.663 946.957,429.761 949.164,431.83 951.37,433.872 953.577,435.886 955.784,437.875 957.991,439.836 960.198,441.772 962.405,443.682 964.612,445.567 966.819,447.426 969.026,449.261 971.233,451.072 973.44,452.859 975.646,454.622 977.853,456.362 980.06,458.078 982.267,459.772 984.474,461.444 986.681,463.093 988.888,464.72 991.095,466.326 993.302,467.911 995.509,469.474 997.715,471.017 999.922,472.539 1002.13,474.041 1004.34,475.524 1006.54,476.986 1008.75,478.429 1010.96,479.853 1013.16,481.259 1015.37,482.645 1017.58,484.013 1019.78,485.363 1021.99,486.695 1024.2,488.01 1026.41,489.307 1028.61,490.587 1030.82,490.122 1033.03,487.018 1035.23,483.506 1037.44,480.452 1039.65,477.47 1041.85,474.483 1044.06,471.535 1046.27,468.626 1048.47,465.756 1050.68,462.924 1052.89,460.129 1055.1,457.371 1057.3,454.65 1059.51,451.965 1061.72,449.316 1063.92,446.702 1066.13,444.122 1068.34,441.577 1070.54,439.065 1072.75,436.587 1074.96,434.141 1077.16,431.728 1079.37,429.347 1081.58,426.997 1083.78,424.679 1085.99,422.391 1088.2,420.134 1090.41,417.907 1092.61,415.709 1094.82,413.54 1097.03,411.4 1099.23,409.288 1101.44,407.205 1103.65,405.149 1105.85,403.12 1108.06,401.118 1110.27,399.143 1112.47,397.194 1114.68,395.271 1116.89,393.373 1119.1,391.501 1121.3,389.653 1123.51,387.83 1125.72,386.03 1127.92,384.255 1130.13,382.504 1132.34,380.775 1134.54,379.069 1136.75,377.386 1138.96,375.726 1141.16,374.087 1143.37,372.47 1145.58,370.875 1147.79,369.3 1149.99,367.747 1152.2,366.214 1154.41,364.702 1156.61,363.209 1158.82,361.736 1161.03,360.283 1163.23,358.849 1165.44,357.435 1167.65,356.039 1169.85,354.661 1172.06,353.302 1174.27,351.96 1176.47,350.637 1178.68,349.331 1180.89,348.042 1183.1,346.771 1185.3,345.516 1187.51,344.278 1189.72,343.056 1191.92,341.851 1194.13,340.661 1196.34,339.488 1198.54,338.329 1200.75,337.187 1202.96,336.059 1205.16,334.946 1207.37,333.848 1209.58,332.765 1211.79,331.696 1213.99,330.641 1216.2,329.6 1218.41,328.573 1220.61,327.559 1222.82,326.559 1225.03,325.573 1227.23,324.599 1229.44,323.638 1231.65,322.69 1233.85,321.755 1236.06,320.832 1238.27,319.921 1240.48,319.022 1242.68,318.135 1244.89,317.26 1247.1,316.655 1249.3,316.953 1251.51,318.086 1253.72,319.951 1255.92,322.451 1258.13,325.495 1260.34,328.995 1262.54,332.873 1264.75,337.053 1266.96,341.466 1269.16,346.049 1271.37,350.744 1273.58,355.5 1275.79,360.269 1277.99,365.011 1280.2,369.69 1282.41,374.277 1284.61,378.748 1286.82,383.085 1289.03,387.275 1291.23,391.311 1293.44,395.191 1295.65,398.92 1297.85,402.508 1300.06,405.97 1302.27,409.327 1304.48,412.606 1306.68,415.839 1308.89,419.064 1311.1,422.326 1313.3,425.628 1315.51,428.891 1317.72,432.11 1319.92,435.287 1322.13,438.421 1324.34,441.514 1326.54,444.567 1328.75,447.578 1330.96,450.55 1333.17,453.482 1335.37,456.375 1337.58,459.23 1339.79,462.047 1341.99,464.827 1344.2,467.57 1346.41,470.277 1348.61,472.948 1350.82,475.583 1353.03,478.183 1355.23,480.749 1357.44,483.282 1359.65,485.78 1361.86,488.246 1364.06,490.678 1366.27,493.079 1368.48,495.447 1370.68,497.785 1372.89,500.091 1375.1,502.366 1377.3,504.612 1379.51,506.827 1381.72,509.014 1383.92,511.171 1386.13,513.299 1388.34,515.4 1390.54,517.472 1392.75,519.517 1394.96,521.535 1397.17,523.526 1399.37,525.49 1401.58,527.429 1403.79,529.342 1405.99,531.229 1408.2,533.091 1410.41,534.929 1412.61,536.742 1414.82,538.532 1417.03,540.297 1419.23,542.039 1421.44,543.759 1423.65,545.455 1425.86,547.129 1428.06,548.78 1430.27,550.41 1432.48,552.019 1434.68,553.606 1436.89,555.171 1439.1,556.717 1441.3,558.241 1443.51,559.746 1445.72,561.23 1447.92,562.695 1450.13,564.141 1452.34,565.567 1454.55,566.974 1456.75,568.363 1458.96,569.733 1461.17,571.085 1463.37,572.419 1465.58,574.432 1467.79,578.002 1469.99,582.947 1472.2,589.088 1474.41,596.254 1476.61,604.286 1478.82,613.034 1481.03,622.359 1483.23,632.132 1485.44,642.235 1487.65,652.559 1489.86,663.006 1492.06,673.489 1494.27,683.929 1496.48,694.26 1498.68,704.424 1500.89,714.376 1503.1,724.078 1505.3,733.503 1507.51,742.638 1509.72,751.474 1511.92,760.018 1514.13,768.284 1516.34,776.298 1518.55,784.093 1520.75,791.718 1522.96,799.226 1525.17,806.685 1527.37,814.171 1529.58,821.714 1531.79,829.172 1533.99,836.531 1536.2,843.793 1538.41,850.958 1540.61,858.028 1542.82,865.005 1545.03,871.889 1547.24,878.681 1549.44,885.384 1551.65,891.998 1553.86,898.524 1556.06,904.964 1558.27,911.318 1560.48,917.588 1562.68,923.775 1564.89,929.88 1567.1,935.905 1569.3,941.849 1571.51,947.715 1573.72,953.503 1575.92,959.215 1578.13,964.851 1580.34,970.412 1582.55,975.899 1584.75,981.313 1586.96,986.656 1589.17,991.927 1591.37,997.129 1593.58,1002.26 1595.79,1007.33 1597.99,1012.32 1600.2,1017.25 1602.41,1022.12 1604.61,1026.92 1606.82,1031.66 1609.03,1036.33 1611.24,1040.94 1613.44,1045.49 1615.65,1049.99 1617.86,1054.42 1620.06,1058.79 1622.27,1063.1 1624.48,1067.36 1626.68,1071.56 1628.89,1075.71 1631.1,1079.8 1633.3,1083.83 1635.51,1087.81 1637.72,1091.74 1639.93,1095.62 1642.13,1099.45 1644.34,1103.22 1646.55,1106.95 1648.75,1110.62 1650.96,1114.25 1653.17,1117.83 1655.37,1121.36 1657.58,1124.85 1659.79,1128.29 1661.99,1131.68 1664.2,1135.03 1666.41,1138.33 1668.61,1141.59 1670.82,1144.81 1673.03,1147.98 1675.24,1151.12 1677.44,1154.21 1679.65,1157.26 1681.86,1160.27 1684.06,1161.15 1686.27,1157.92 1688.48,1151.48 1690.68,1142.66 1692.89,1132.18 1695.1,1120.65 1697.3,1108.6 1699.51,1096.44 1701.72,1084.5 1703.93,1072.99 1706.13,1062.04 1708.34,1051.66 1710.55,1041.79 1712.75,1032.23 1714.96,1022.7 1717.17,1013.03 1719.37,1003.46 1721.58,994.017 1723.79,984.701 1725.99,975.508 1728.2,966.438 1730.41,957.487 1732.62,948.655 1734.82,939.941 1737.03,931.341 1739.24,922.856 1741.44,914.483 1743.65,906.221 1745.86,898.068 1748.06,890.024 1750.27,882.086 1752.48,874.254 1754.68,866.526 1756.89,858.9 1759.1,851.375 1761.31,843.95 1763.51,836.624 1765.72,829.394 1767.93,822.261 1770.13,815.222 1772.34,808.277 1774.55,801.424 1776.75,794.662 1778.96,787.989 1781.17,781.405 1783.37,774.908 1785.58,768.497 1787.79,762.172 1789.99,755.93 1792.2,749.771 1794.41,743.693 1796.62,737.696 1798.82,731.779 1801.03,725.94 1803.24,720.178 1805.44,714.493 1807.65,708.883 1809.86,703.347 1812.06,697.885 1814.27,692.495 1816.48,687.176 1818.68,681.928 1820.89,676.75 1823.1,671.64 1825.31,666.598 1827.51,661.623 1829.72,656.714 1831.93,651.87 1834.13,647.09 1836.34,642.374 1838.55,637.72 1840.75,633.128 1842.96,628.596 1845.17,624.125 1847.37,619.713 1849.58,615.36 1851.79,611.064 1854,606.826 1856.2,602.643 1858.41,598.516 1860.62,594.444 1862.82,590.425 1865.03,586.46 1867.24,582.547 1869.44,578.687 1871.65,574.877 1873.86,571.118 1876.06,567.409 1878.27,563.749 1880.48,560.137 1882.68,556.574 1884.89,553.057 1887.1,549.588 1889.31,546.164 1891.51,542.786 1893.72,539.452 1895.93,536.163 1898.13,532.917 1900.34,529.714 1902.55,526.554 1904.75,523.436 1906.96,520.359 1909.17,517.322 1911.37,514.327 1913.58,515.643 1915.79,517.99 1918,520.305 1920.2,522.589 1922.41,524.843 1924.62,527.068 1926.82,529.262 1929.03,531.428 1931.24,533.565 1933.44,535.674 1935.65,537.754 1937.86,539.807 1940.06,541.833 1942.27,543.832 1944.48,545.805 1946.69,547.751 1948.89,549.672 1951.1,551.567 1953.31,553.437 1955.51,555.282 1957.72,557.103 1959.93,558.899 1962.13,560.672 1964.34,562.421 1966.55,564.147 1968.75,565.85 1970.96,567.531 1973.17,569.189 1975.37,570.826 1977.58,572.44 1979.79,574.033 1982,575.606 1984.2,577.157 1986.41,578.688 1988.62,580.198 1990.82,581.688 1993.03,583.159 1995.24,584.61 1997.44,586.042 1999.65,587.455 2001.86,588.849 2004.06,590.225 2006.27,591.582 2008.48,592.922 2010.69,594.243 2012.89,595.547 2015.1,596.834 2017.31,598.104 2019.51,599.357 2021.72,600.593 2023.93,601.813 2026.13,603.017 2028.34,604.205 2030.55,605.377 2032.75,606.534 2034.96,607.675 2037.17,608.801 2039.38,609.912 2041.58,611.009 2043.79,612.09 2046,613.158 2048.2,614.211 2050.41,615.251 2052.62,616.276 2054.82,617.288 2057.03,618.287 2059.24,619.273 2061.44,620.245 2063.65,621.204 2065.86,622.151 2068.07,623.085 2070.27,624.007 2072.48,624.917 2074.69,625.814 2076.89,626.7 2079.1,627.574 2081.31,628.436 2083.51,629.287 2085.72,630.126 2087.93,630.955 2090.13,631.772 2092.34,632.579 2094.55,633.374 2096.75,634.16 2098.96,634.935 2101.17,635.699 2103.38,636.454 2105.58,637.198 2107.79,637.933 2110,638.658 2112.2,639.373 2114.41,640.109 2116.62,640.944 2118.82,641.872 2121.03,642.882 2123.24,643.964 2125.44,645.11 2127.65,646.309 2129.86,647.553 2132.07,648.835 2134.27,650.145 2136.48,651.479 2138.69,652.828 2140.89,654.186 2143.1,655.548 2145.31,656.909 2147.51,658.263 2149.72,659.607 2151.93,660.937 2154.13,662.25 2156.34,663.542 2158.55,664.811 2160.76,666.056 2162.96,667.275 2165.17,668.467 2167.38,669.632 2169.58,670.77 2171.79,671.881 2174,672.967 2176.2,674.029 2178.41,675.069 2180.62,676.089 2182.82,677.093 2185.03,678.084 2187.24,679.066 2189.44,680.043 2191.65,681.019 2193.86,681.987 2196.07,682.942 2198.27,683.884 2200.48,684.814 2202.69,685.731 2204.89,686.637 2207.1,687.53 2209.31,688.412 2211.51,689.281 2213.72,690.14 2215.93,690.986 2218.13,691.822 2220.34,692.647 2222.55,693.46 2224.76,694.263 2226.96,695.055 2229.17,695.837 2231.38,696.608 2233.58,697.37 2235.79,698.121 2238,698.862 2240.2,699.593 2242.41,700.315 2244.62,701.027 2246.82,701.73 2249.03,702.423 2251.24,703.107 2253.45,703.782 2255.65,704.449 2257.86,705.106 2260.07,705.755 2262.27,706.395 2264.48,707.027 2266.69,707.65 2268.89,708.265 2271.1,708.872 2273.31,709.47 2275.51,710.061 2277.72,710.644 2279.93,711.219 2282.13,711.787 2284.34,712.347 2286.55,712.899 2288.76,713.444 2290.96,713.982 2293.17,714.513 2295.38,715.037 2297.58,715.554 2299.79,716.063 2302,716.566 2304.2,717.063 2306.41,717.553 2308.62,718.036 2310.82,718.513 2313.03,718.983 2315.24,719.447 2317.45,719.906 2319.65,720.358 2321.86,720.804 2324.07,721.244 2326.27,721.678 2328.48,722.106 2330.69,722.529 2332.89,722.946 2335.1,723.358 2337.31,723.764 2339.51,724.165 2341.72,724.561 2343.93,724.951 2346.14,725.337 2348.34,725.717 2350.55,726.092 2352.76,726.462 "/>
<polyline clip-path="url(#clip772)" style="stroke:#e26f46; stroke-linecap:round; stroke-linejoin:round; stroke-width:4; stroke-opacity:1; fill:none" points="148.057,614.648 150.264,614.648 152.47,614.648 154.677,614.648 156.884,614.648 159.091,614.648 161.298,614.648 163.505,614.648 165.712,614.648 167.919,614.648 170.126,614.648 172.333,614.648 174.539,614.648 176.746,614.648 178.953,614.648 181.16,614.648 183.367,614.648 185.574,614.648 187.781,614.648 189.988,614.648 192.195,614.648 194.402,614.648 196.609,614.648 198.815,614.648 201.022,614.648 203.229,614.648 205.436,614.648 207.643,614.648 209.85,614.648 212.057,614.648 214.264,614.648 216.471,614.648 218.678,614.648 220.885,614.648 223.091,614.648 225.298,614.648 227.505,614.648 229.712,614.648 231.919,614.648 234.126,614.648 236.333,614.648 238.54,614.648 240.747,614.648 242.954,614.648 245.16,614.648 247.367,614.648 249.574,614.648 251.781,614.648 253.988,614.648 256.195,614.648 258.402,614.648 260.609,614.648 262.816,614.648 265.023,614.648 267.23,614.648 269.436,614.648 271.643,614.648 273.85,614.648 276.057,614.648 278.264,614.648 280.471,614.648 282.678,614.648 284.885,614.648 287.092,614.648 289.299,614.648 291.506,614.648 293.712,614.648 295.919,614.648 298.126,614.648 300.333,614.648 302.54,614.648 304.747,614.648 306.954,614.648 309.161,614.648 311.368,614.648 313.575,614.648 315.781,614.648 317.988,614.648 320.195,614.648 322.402,614.648 324.609,614.648 326.816,614.648 329.023,614.648 331.23,614.648 333.437,614.648 335.644,614.648 337.851,614.648 340.057,614.648 342.264,614.648 344.471,614.648 346.678,614.648 348.885,614.648 351.092,614.648 353.299,614.648 355.506,614.648 357.713,614.648 359.92,614.648 362.127,614.648 364.333,614.648 366.54,614.648 368.747,499.327 370.954,499.327 373.161,499.327 375.368,499.327 377.575,499.327 379.782,499.327 381.989,499.327 384.196,499.327 386.402,499.327 388.609,499.327 390.816,499.327 393.023,499.327 395.23,499.327 397.437,499.327 399.644,499.327 401.851,499.327 404.058,499.327 406.265,499.327 408.472,499.327 410.678,499.327 412.885,499.327 415.092,499.327 417.299,499.327 419.506,499.327 421.713,499.327 423.92,499.327 426.127,499.327 428.334,499.327 430.541,499.327 432.748,499.327 434.954,499.327 437.161,499.327 439.368,499.327 441.575,499.327 443.782,499.327 445.989,499.327 448.196,499.327 450.403,499.327 452.61,499.327 454.817,499.327 457.023,499.327 459.23,499.327 461.437,499.327 463.644,499.327 465.851,499.327 468.058,499.327 470.265,499.327 472.472,499.327 474.679,499.327 476.886,499.327 479.093,499.327 481.299,499.327 483.506,499.327 485.713,499.327 487.92,499.327 490.127,499.327 492.334,499.327 494.541,499.327 496.748,499.327 498.955,499.327 501.162,499.327 503.369,499.327 505.575,499.327 507.782,499.327 509.989,499.327 512.196,499.327 514.403,499.327 516.61,499.327 518.817,499.327 521.024,499.327 523.231,499.327 525.438,499.327 527.644,499.327 529.851,499.327 532.058,499.327 534.265,499.327 536.472,499.327 538.679,499.327 540.886,499.327 543.093,499.327 545.3,499.327 547.507,499.327 549.714,499.327 551.92,499.327 554.127,499.327 556.334,499.327 558.541,499.327 560.748,499.327 562.955,499.327 565.162,499.327 567.369,499.327 569.576,499.327 571.783,499.327 573.99,499.327 576.196,499.327 578.403,499.327 580.61,499.327 582.817,499.327 585.024,499.327 587.231,499.327 589.438,86.1857 591.645,86.1857 593.852,86.1857 596.059,86.1857 598.265,86.1857 600.472,86.1857 602.679,86.1857 604.886,86.1857 607.093,86.1857 609.3,86.1857 611.507,86.1857 613.714,86.1857 615.921,86.1857 618.128,86.1857 620.335,86.1857 622.541,86.1857 624.748,86.1857 626.955,86.1857 629.162,86.1857 631.369,86.1857 633.576,86.1857 635.783,86.1857 637.99,86.1857 640.197,86.1857 642.404,86.1857 644.611,86.1857 646.817,86.1857 649.024,86.1857 651.231,86.1857 653.438,86.1857 655.645,86.1857 657.852,86.1857 660.059,86.1857 662.266,86.1857 664.473,86.1857 666.68,86.1857 668.886,86.1857 671.093,86.1857 673.3,86.1857 675.507,86.1857 677.714,86.1857 679.921,86.1857 682.128,86.1857 684.335,86.1857 686.542,86.1857 688.749,86.1857 690.956,86.1857 693.162,86.1857 695.369,86.1857 697.576,86.1857 699.783,86.1857 701.99,86.1857 704.197,86.1857 706.404,86.1857 708.611,86.1857 710.818,86.1857 713.025,86.1857 715.232,86.1857 717.438,86.1857 719.645,86.1857 721.852,86.1857 724.059,86.1857 726.266,86.1857 728.473,86.1857 730.68,86.1857 732.887,86.1857 735.094,86.1857 737.301,86.1857 739.507,86.1857 741.714,86.1857 743.921,86.1857 746.128,86.1857 748.335,86.1857 750.542,86.1857 752.749,86.1857 754.956,86.1857 757.163,86.1857 759.37,86.1857 761.577,86.1857 763.783,86.1857 765.99,86.1857 768.197,86.1857 770.404,86.1857 772.611,86.1857 774.818,86.1857 777.025,86.1857 779.232,86.1857 781.439,86.1857 783.646,86.1857 785.853,86.1857 788.059,86.1857 790.266,86.1857 792.473,86.1857 794.68,86.1857 796.887,86.1857 799.094,86.1857 801.301,86.1857 803.508,86.1857 805.715,86.1857 807.922,86.1857 810.128,585.84 812.335,585.84 814.542,585.84 816.749,585.84 818.956,585.84 821.163,585.84 823.37,585.84 825.577,585.84 827.784,585.84 829.991,585.84 832.198,585.84 834.404,585.84 836.611,585.84 838.818,585.84 841.025,585.84 843.232,585.84 845.439,585.84 847.646,585.84 849.853,585.84 852.06,585.84 854.267,585.84 856.474,585.84 858.68,585.84 860.887,585.84 863.094,585.84 865.301,585.84 867.508,585.84 869.715,585.84 871.922,585.84 874.129,585.84 876.336,585.84 878.543,585.84 880.749,585.84 882.956,585.84 885.163,585.84 887.37,585.84 889.577,585.84 891.784,585.84 893.991,585.84 896.198,585.84 898.405,585.84 900.612,585.84 902.819,585.84 905.025,585.84 907.232,585.84 909.439,585.84 911.646,585.84 913.853,585.84 916.06,585.84 918.267,585.84 920.474,585.84 922.681,585.84 924.888,585.84 927.095,585.84 929.301,585.84 931.508,585.84 933.715,585.84 935.922,585.84 938.129,585.84 940.336,585.84 942.543,585.84 944.75,585.84 946.957,585.84 949.164,585.84 951.37,585.84 953.577,585.84 955.784,585.84 957.991,585.84 960.198,585.84 962.405,585.84 964.612,585.84 966.819,585.84 969.026,585.84 971.233,585.84 973.44,585.84 975.646,585.84 977.853,585.84 980.06,585.84 982.267,585.84 984.474,585.84 986.681,585.84 988.888,585.84 991.095,585.84 993.302,585.84 995.509,585.84 997.715,585.84 999.922,585.84 1002.13,585.84 1004.34,585.84 1006.54,585.84 1008.75,585.84 1010.96,585.84 1013.16,585.84 1015.37,585.84 1017.58,585.84 1019.78,585.84 1021.99,585.84 1024.2,585.84 1026.41,585.84 1028.61,585.84 1030.82,252.132 1033.03,252.132 1035.23,252.132 1037.44,252.132 1039.65,252.132 1041.85,252.132 1044.06,252.132 1046.27,252.132 1048.47,252.132 1050.68,252.132 1052.89,252.132 1055.1,252.132 1057.3,252.132 1059.51,252.132 1061.72,252.132 1063.92,252.132 1066.13,252.132 1068.34,252.132 1070.54,252.132 1072.75,252.132 1074.96,252.132 1077.16,252.132 1079.37,252.132 1081.58,252.132 1083.78,252.132 1085.99,252.132 1088.2,252.132 1090.41,252.132 1092.61,252.132 1094.82,252.132 1097.03,252.132 1099.23,252.132 1101.44,252.132 1103.65,252.132 1105.85,252.132 1108.06,252.132 1110.27,252.132 1112.47,252.132 1114.68,252.132 1116.89,252.132 1119.1,252.132 1121.3,252.132 1123.51,252.132 1125.72,252.132 1127.92,252.132 1130.13,252.132 1132.34,252.132 1134.54,252.132 1136.75,252.132 1138.96,252.132 1141.16,252.132 1143.37,252.132 1145.58,252.132 1147.79,252.132 1149.99,252.132 1152.2,252.132 1154.41,252.132 1156.61,252.132 1158.82,252.132 1161.03,252.132 1163.23,252.132 1165.44,252.132 1167.65,252.132 1169.85,252.132 1172.06,252.132 1174.27,252.132 1176.47,252.132 1178.68,252.132 1180.89,252.132 1183.1,252.132 1185.3,252.132 1187.51,252.132 1189.72,252.132 1191.92,252.132 1194.13,252.132 1196.34,252.132 1198.54,252.132 1200.75,252.132 1202.96,252.132 1205.16,252.132 1207.37,252.132 1209.58,252.132 1211.79,252.132 1213.99,252.132 1216.2,252.132 1218.41,252.132 1220.61,252.132 1222.82,252.132 1225.03,252.132 1227.23,252.132 1229.44,252.132 1231.65,252.132 1233.85,252.132 1236.06,252.132 1238.27,252.132 1240.48,252.132 1242.68,252.132 1244.89,252.132 1247.1,252.132 1249.3,252.132 1251.51,671.717 1253.72,671.717 1255.92,671.717 1258.13,671.717 1260.34,671.717 1262.54,671.717 1264.75,671.717 1266.96,671.717 1269.16,671.717 1271.37,671.717 1273.58,671.717 1275.79,671.717 1277.99,671.717 1280.2,671.717 1282.41,671.717 1284.61,671.717 1286.82,671.717 1289.03,671.717 1291.23,671.717 1293.44,671.717 1295.65,671.717 1297.85,671.717 1300.06,671.717 1302.27,671.717 1304.48,671.717 1306.68,671.717 1308.89,671.717 1311.1,671.717 1313.3,671.717 1315.51,671.717 1317.72,671.717 1319.92,671.717 1322.13,671.717 1324.34,671.717 1326.54,671.717 1328.75,671.717 1330.96,671.717 1333.17,671.717 1335.37,671.717 1337.58,671.717 1339.79,671.717 1341.99,671.717 1344.2,671.717 1346.41,671.717 1348.61,671.717 1350.82,671.717 1353.03,671.717 1355.23,671.717 1357.44,671.717 1359.65,671.717 1361.86,671.717 1364.06,671.717 1366.27,671.717 1368.48,671.717 1370.68,671.717 1372.89,671.717 1375.1,671.717 1377.3,671.717 1379.51,671.717 1381.72,671.717 1383.92,671.717 1386.13,671.717 1388.34,671.717 1390.54,671.717 1392.75,671.717 1394.96,671.717 1397.17,671.717 1399.37,671.717 1401.58,671.717 1403.79,671.717 1405.99,671.717 1408.2,671.717 1410.41,671.717 1412.61,671.717 1414.82,671.717 1417.03,671.717 1419.23,671.717 1421.44,671.717 1423.65,671.717 1425.86,671.717 1428.06,671.717 1430.27,671.717 1432.48,671.717 1434.68,671.717 1436.89,671.717 1439.1,671.717 1441.3,671.717 1443.51,671.717 1445.72,671.717 1447.92,671.717 1450.13,671.717 1452.34,671.717 1454.55,671.717 1456.75,671.717 1458.96,671.717 1461.17,671.717 1463.37,671.717 1465.58,671.717 1467.79,671.717 1469.99,671.717 1472.2,1384.24 1474.41,1384.24 1476.61,1384.24 1478.82,1384.24 1481.03,1384.24 1483.23,1384.24 1485.44,1384.24 1487.65,1384.24 1489.86,1384.24 1492.06,1384.24 1494.27,1384.24 1496.48,1384.24 1498.68,1384.24 1500.89,1384.24 1503.1,1384.24 1505.3,1384.24 1507.51,1384.24 1509.72,1384.24 1511.92,1384.24 1514.13,1384.24 1516.34,1384.24 1518.55,1384.24 1520.75,1384.24 1522.96,1384.24 1525.17,1384.24 1527.37,1384.24 1529.58,1384.24 1531.79,1384.24 1533.99,1384.24 1536.2,1384.24 1538.41,1384.24 1540.61,1384.24 1542.82,1384.24 1545.03,1384.24 1547.24,1384.24 1549.44,1384.24 1551.65,1384.24 1553.86,1384.24 1556.06,1384.24 1558.27,1384.24 1560.48,1384.24 1562.68,1384.24 1564.89,1384.24 1567.1,1384.24 1569.3,1384.24 1571.51,1384.24 1573.72,1384.24 1575.92,1384.24 1578.13,1384.24 1580.34,1384.24 1582.55,1384.24 1584.75,1384.24 1586.96,1384.24 1589.17,1384.24 1591.37,1384.24 1593.58,1384.24 1595.79,1384.24 1597.99,1384.24 1600.2,1384.24 1602.41,1384.24 1604.61,1384.24 1606.82,1384.24 1609.03,1384.24 1611.24,1384.24 1613.44,1384.24 1615.65,1384.24 1617.86,1384.24 1620.06,1384.24 1622.27,1384.24 1624.48,1384.24 1626.68,1384.24 1628.89,1384.24 1631.1,1384.24 1633.3,1384.24 1635.51,1384.24 1637.72,1384.24 1639.93,1384.24 1642.13,1384.24 1644.34,1384.24 1646.55,1384.24 1648.75,1384.24 1650.96,1384.24 1653.17,1384.24 1655.37,1384.24 1657.58,1384.24 1659.79,1384.24 1661.99,1384.24 1664.2,1384.24 1666.41,1384.24 1668.61,1384.24 1670.82,1384.24 1673.03,1384.24 1675.24,1384.24 1677.44,1384.24 1679.65,1384.24 1681.86,1384.24 1684.06,1384.24 1686.27,1384.24 1688.48,1384.24 1690.68,1384.24 1692.89,291.349 1695.1,291.349 1697.3,291.349 1699.51,291.349 1701.72,291.349 1703.93,291.349 1706.13,291.349 1708.34,291.349 1710.55,291.349 1712.75,291.349 1714.96,291.349 1717.17,291.349 1719.37,291.349 1721.58,291.349 1723.79,291.349 1725.99,291.349 1728.2,291.349 1730.41,291.349 1732.62,291.349 1734.82,291.349 1737.03,291.349 1739.24,291.349 1741.44,291.349 1743.65,291.349 1745.86,291.349 1748.06,291.349 1750.27,291.349 1752.48,291.349 1754.68,291.349 1756.89,291.349 1759.1,291.349 1761.31,291.349 1763.51,291.349 1765.72,291.349 1767.93,291.349 1770.13,291.349 1772.34,291.349 1774.55,291.349 1776.75,291.349 1778.96,291.349 1781.17,291.349 1783.37,291.349 1785.58,291.349 1787.79,291.349 1789.99,291.349 1792.2,291.349 1794.41,291.349 1796.62,291.349 1798.82,291.349 1801.03,291.349 1803.24,291.349 1805.44,291.349 1807.65,291.349 1809.86,291.349 1812.06,291.349 1814.27,291.349 1816.48,291.349 1818.68,291.349 1820.89,291.349 1823.1,291.349 1825.31,291.349 1827.51,291.349 1829.72,291.349 1831.93,291.349 1834.13,291.349 1836.34,291.349 1838.55,291.349 1840.75,291.349 1842.96,291.349 1845.17,291.349 1847.37,291.349 1849.58,291.349 1851.79,291.349 1854,291.349 1856.2,291.349 1858.41,291.349 1860.62,291.349 1862.82,291.349 1865.03,291.349 1867.24,291.349 1869.44,291.349 1871.65,291.349 1873.86,291.349 1876.06,291.349 1878.27,291.349 1880.48,291.349 1882.68,291.349 1884.89,291.349 1887.1,291.349 1889.31,291.349 1891.51,291.349 1893.72,291.349 1895.93,291.349 1898.13,291.349 1900.34,291.349 1902.55,291.349 1904.75,291.349 1906.96,291.349 1909.17,291.349 1911.37,291.349 1913.58,692.611 1915.79,692.611 1918,692.611 1920.2,692.611 1922.41,692.611 1924.62,692.611 1926.82,692.611 1929.03,692.611 1931.24,692.611 1933.44,692.611 1935.65,692.611 1937.86,692.611 1940.06,692.611 1942.27,692.611 1944.48,692.611 1946.69,692.611 1948.89,692.611 1951.1,692.611 1953.31,692.611 1955.51,692.611 1957.72,692.611 1959.93,692.611 1962.13,692.611 1964.34,692.611 1966.55,692.611 1968.75,692.611 1970.96,692.611 1973.17,692.611 1975.37,692.611 1977.58,692.611 1979.79,692.611 1982,692.611 1984.2,692.611 1986.41,692.611 1988.62,692.611 1990.82,692.611 1993.03,692.611 1995.24,692.611 1997.44,692.611 1999.65,692.611 2001.86,692.611 2004.06,692.611 2006.27,692.611 2008.48,692.611 2010.69,692.611 2012.89,692.611 2015.1,692.611 2017.31,692.611 2019.51,692.611 2021.72,692.611 2023.93,692.611 2026.13,692.611 2028.34,692.611 2030.55,692.611 2032.75,692.611 2034.96,692.611 2037.17,692.611 2039.38,692.611 2041.58,692.611 2043.79,692.611 2046,692.611 2048.2,692.611 2050.41,692.611 2052.62,692.611 2054.82,692.611 2057.03,692.611 2059.24,692.611 2061.44,692.611 2063.65,692.611 2065.86,692.611 2068.07,692.611 2070.27,692.611 2072.48,692.611 2074.69,692.611 2076.89,692.611 2079.1,692.611 2081.31,692.611 2083.51,692.611 2085.72,692.611 2087.93,692.611 2090.13,692.611 2092.34,692.611 2094.55,692.611 2096.75,692.611 2098.96,692.611 2101.17,692.611 2103.38,692.611 2105.58,692.611 2107.79,692.611 2110,692.611 2112.2,692.611 2114.41,692.611 2116.62,692.611 2118.82,692.611 2121.03,692.611 2123.24,692.611 2125.44,692.611 2127.65,692.611 2129.86,692.611 2132.07,692.611 2134.27,754.016 2136.48,754.016 2138.69,754.016 2140.89,754.016 2143.1,754.016 2145.31,754.016 2147.51,754.016 2149.72,754.016 2151.93,754.016 2154.13,754.016 2156.34,754.016 2158.55,754.016 2160.76,754.016 2162.96,754.016 2165.17,754.016 2167.38,754.016 2169.58,754.016 2171.79,754.016 2174,754.016 2176.2,754.016 2178.41,754.016 2180.62,754.016 2182.82,754.016 2185.03,754.016 2187.24,754.016 2189.44,754.016 2191.65,754.016 2193.86,754.016 2196.07,754.016 2198.27,754.016 2200.48,754.016 2202.69,754.016 2204.89,754.016 2207.1,754.016 2209.31,754.016 2211.51,754.016 2213.72,754.016 2215.93,754.016 2218.13,754.016 2220.34,754.016 2222.55,754.016 2224.76,754.016 2226.96,754.016 2229.17,754.016 2231.38,754.016 2233.58,754.016 2235.79,754.016 2238,754.016 2240.2,754.016 2242.41,754.016 2244.62,754.016 2246.82,754.016 2249.03,754.016 2251.24,754.016 2253.45,754.016 2255.65,754.016 2257.86,754.016 2260.07,754.016 2262.27,754.016 2264.48,754.016 2266.69,754.016 2268.89,754.016 2271.1,754.016 2273.31,754.016 2275.51,754.016 2277.72,754.016 2279.93,754.016 2282.13,754.016 2284.34,754.016 2286.55,754.016 2288.76,754.016 2290.96,754.016 2293.17,754.016 2295.38,754.016 2297.58,754.016 2299.79,754.016 2302,754.016 2304.2,754.016 2306.41,754.016 2308.62,754.016 2310.82,754.016 2313.03,754.016 2315.24,754.016 2317.45,754.016 2319.65,754.016 2321.86,754.016 2324.07,754.016 2326.27,754.016 2328.48,754.016 2330.69,754.016 2332.89,754.016 2335.1,754.016 2337.31,754.016 2339.51,754.016 2341.72,754.016 2343.93,754.016 2346.14,754.016 2348.34,754.016 2350.55,754.016 2352.76,754.016 "/>
<path clip-path="url(#clip770)" d="M2033.66 1377.32 L2279.27 1377.32 L2279.27 1221.8 L2033.66 1221.8  Z" fill="#ffffff" fill-rule="evenodd" fill-opacity="1"/>
<polyline clip-path="url(#clip770)" style="stroke:#000000; stroke-linecap:round; stroke-linejoin:round; stroke-width:4; stroke-opacity:1; fill:none" points="2033.66,1377.32 2279.27,1377.32 2279.27,1221.8 2033.66,1221.8 2033.66,1377.32 "/>
<polyline clip-path="url(#clip770)" style="stroke:#009af9; stroke-linecap:round; stroke-linejoin:round; stroke-width:4; stroke-opacity:1; fill:none" points="2058.15,1273.64 2205.13,1273.64 "/>
<path clip-path="url(#clip770)" d="M2254.28 1264.99 L2244.91 1277.61 L2254.77 1290.92 L2249.75 1290.92 L2242.2 1280.73 L2234.65 1290.92 L2229.63 1290.92 L2239.7 1277.35 L2230.49 1264.99 L2235.51 1264.99 L2242.39 1274.23 L2249.26 1264.99 L2254.28 1264.99 Z" fill="#000000" fill-rule="nonzero" fill-opacity="1" /><polyline clip-path="url(#clip770)" style="stroke:#e26f46; stroke-linecap:round; stroke-linejoin:round; stroke-width:4; stroke-opacity:1; fill:none" points="2058.15,1325.48 2205.13,1325.48 "/>
<path clip-path="url(#clip770)" d="M2246.14 1306.74 L2246.14 1310.28 L2242.06 1310.28 Q2239.77 1310.28 2238.87 1311.2 Q2237.99 1312.13 2237.99 1314.54 L2237.99 1316.83 L2245 1316.83 L2245 1320.14 L2237.99 1320.14 L2237.99 1342.76 L2233.7 1342.76 L2233.7 1320.14 L2229.63 1320.14 L2229.63 1316.83 L2233.7 1316.83 L2233.7 1315.02 Q2233.7 1310.7 2235.72 1308.73 Q2237.73 1306.74 2242.11 1306.74 L2246.14 1306.74 Z" fill="#000000" fill-rule="nonzero" fill-opacity="1" /></svg>
