<?xml version="1.0" encoding="utf-8"?>
<svg xmlns="http://www.w3.org/2000/svg" xmlns:xlink="http://www.w3.org/1999/xlink" width="600" height="400" viewBox="0 0 2400 1600">
<defs>
  <clipPath id="clip340">
    <rect x="0" y="0" width="2400" height="1600"/>
  </clipPath>
</defs>
<path clip-path="url(#clip340)" d="M0 1600 L2400 1600 L2400 0 L0 0  Z" fill="#ffffff" fill-rule="evenodd" fill-opacity="1"/>
<defs>
  <clipPath id="clip341">
    <rect x="112" y="47" width="2242" height="1440"/>
  </clipPath>
</defs>
<path clip-path="url(#clip341)" d="M-561.489 2360.69 L-561.489 2107.27 L-233.43 1980.56 L334.785 2053.71 L334.785 2307.13 L6.726 2433.84 L-561.489 2360.69  Z" fill="#ffffff" fill-rule="evenodd" fill-opacity="1"/>
<polyline clip-path="url(#clip341)" style="stroke:#000000; stroke-linecap:round; stroke-linejoin:round; stroke-width:2; stroke-opacity:0.1; fill:none" points="734.556,1222.78 1150.02,862.979 1150.02,143.377 "/>
<polyline clip-path="url(#clip341)" style="stroke:#000000; stroke-linecap:round; stroke-linejoin:round; stroke-width:2; stroke-opacity:0.1; fill:none" points="876.609,1263.79 1292.07,903.986 1292.07,184.384 "/>
<polyline clip-path="url(#clip341)" style="stroke:#000000; stroke-linecap:round; stroke-linejoin:round; stroke-width:2; stroke-opacity:0.1; fill:none" points="1018.66,1304.79 1434.13,944.994 1434.13,225.392 "/>
<polyline clip-path="url(#clip341)" style="stroke:#000000; stroke-linecap:round; stroke-linejoin:round; stroke-width:2; stroke-opacity:0.1; fill:none" points="1160.72,1345.8 1576.18,986.001 1576.18,266.399 "/>
<polyline clip-path="url(#clip341)" style="stroke:#000000; stroke-linecap:round; stroke-linejoin:round; stroke-width:2; stroke-opacity:0.1; fill:none" points="1302.77,1386.81 1718.23,1027.01 1718.23,307.407 "/>
<polyline clip-path="url(#clip341)" style="stroke:#000000; stroke-linecap:round; stroke-linejoin:round; stroke-width:2; stroke-opacity:0.1; fill:none" points="1395.94,1400.54 676.338,1192.81 676.338,473.204 "/>
<polyline clip-path="url(#clip341)" style="stroke:#000000; stroke-linecap:round; stroke-linejoin:round; stroke-width:2; stroke-opacity:0.1; fill:none" points="1469.1,1337.18 749.494,1129.45 749.494,409.849 "/>
<polyline clip-path="url(#clip341)" style="stroke:#000000; stroke-linecap:round; stroke-linejoin:round; stroke-width:2; stroke-opacity:0.1; fill:none" points="1542.25,1273.83 822.65,1066.1 822.65,346.495 "/>
<polyline clip-path="url(#clip341)" style="stroke:#000000; stroke-linecap:round; stroke-linejoin:round; stroke-width:2; stroke-opacity:0.1; fill:none" points="1615.41,1210.47 895.805,1002.74 895.805,283.14 "/>
<polyline clip-path="url(#clip341)" style="stroke:#000000; stroke-linecap:round; stroke-linejoin:round; stroke-width:2; stroke-opacity:0.1; fill:none" points="1688.56,1147.12 968.961,939.387 968.961,219.785 "/>
<polyline clip-path="url(#clip341)" style="stroke:#000000; stroke-linecap:round; stroke-linejoin:round; stroke-width:2; stroke-opacity:0.1; fill:none" points="1761.72,1083.76 1042.12,876.032 1042.12,156.43 "/>
<polyline clip-path="url(#clip341)" style="stroke:#000000; stroke-linecap:round; stroke-linejoin:round; stroke-width:2; stroke-opacity:0.1; fill:none" points="664.934,1158.56 1080.4,798.755 1800,1006.49 "/>
<polyline clip-path="url(#clip341)" style="stroke:#000000; stroke-linecap:round; stroke-linejoin:round; stroke-width:2; stroke-opacity:0.1; fill:none" points="664.934,1048.59 1080.4,688.79 1800,896.522 "/>
<polyline clip-path="url(#clip341)" style="stroke:#000000; stroke-linecap:round; stroke-linejoin:round; stroke-width:2; stroke-opacity:0.1; fill:none" points="664.934,938.627 1080.4,578.826 1800,786.557 "/>
<polyline clip-path="url(#clip341)" style="stroke:#000000; stroke-linecap:round; stroke-linejoin:round; stroke-width:2; stroke-opacity:0.1; fill:none" points="664.934,828.662 1080.4,468.861 1800,676.593 "/>
<polyline clip-path="url(#clip341)" style="stroke:#000000; stroke-linecap:round; stroke-linejoin:round; stroke-width:2; stroke-opacity:0.1; fill:none" points="664.934,718.698 1080.4,358.897 1800,566.628 "/>
<polyline clip-path="url(#clip341)" style="stroke:#000000; stroke-linecap:round; stroke-linejoin:round; stroke-width:2; stroke-opacity:0.1; fill:none" points="664.934,608.733 1080.4,248.932 1800,456.664 "/>
<polyline clip-path="url(#clip341)" style="stroke:#000000; stroke-linecap:round; stroke-linejoin:round; stroke-width:2; stroke-opacity:0.1; fill:none" points="664.934,498.769 1080.4,138.968 1800,346.699 "/>
<polyline clip-path="url(#clip340)" style="stroke:#000000; stroke-linecap:round; stroke-linejoin:round; stroke-width:4; stroke-opacity:1; fill:none" points="664.934,1202.68 1384.54,1410.41 "/>
<polyline clip-path="url(#clip340)" style="stroke:#000000; stroke-linecap:round; stroke-linejoin:round; stroke-width:4; stroke-opacity:1; fill:none" points="734.556,1222.78 739.541,1218.46 "/>
<polyline clip-path="url(#clip340)" style="stroke:#000000; stroke-linecap:round; stroke-linejoin:round; stroke-width:4; stroke-opacity:1; fill:none" points="876.609,1263.79 881.595,1259.47 "/>
<polyline clip-path="url(#clip340)" style="stroke:#000000; stroke-linecap:round; stroke-linejoin:round; stroke-width:4; stroke-opacity:1; fill:none" points="1018.66,1304.79 1023.65,1300.48 "/>
<polyline clip-path="url(#clip340)" style="stroke:#000000; stroke-linecap:round; stroke-linejoin:round; stroke-width:4; stroke-opacity:1; fill:none" points="1160.72,1345.8 1165.7,1341.48 "/>
<polyline clip-path="url(#clip340)" style="stroke:#000000; stroke-linecap:round; stroke-linejoin:round; stroke-width:4; stroke-opacity:1; fill:none" points="1302.77,1386.81 1307.76,1382.49 "/>
<path clip-path="url(#clip340)" d="M674.698 1237.14 Q671.087 1237.14 669.258 1240.71 Q667.452 1244.25 667.452 1251.38 Q667.452 1258.49 669.258 1262.05 Q671.087 1265.59 674.698 1265.59 Q678.332 1265.59 680.138 1262.05 Q681.966 1258.49 681.966 1251.38 Q681.966 1244.25 680.138 1240.71 Q678.332 1237.14 674.698 1237.14 M674.698 1233.44 Q680.508 1233.44 683.563 1238.05 Q686.642 1242.63 686.642 1251.38 Q686.642 1260.11 683.563 1264.71 Q680.508 1269.3 674.698 1269.3 Q668.888 1269.3 665.809 1264.71 Q662.753 1260.11 662.753 1251.38 Q662.753 1242.63 665.809 1238.05 Q668.888 1233.44 674.698 1233.44 Z" fill="#000000" fill-rule="nonzero" fill-opacity="1" /><path clip-path="url(#clip340)" d="M694.86 1262.74 L699.744 1262.74 L699.744 1268.62 L694.86 1268.62 L694.86 1262.74 Z" fill="#000000" fill-rule="nonzero" fill-opacity="1" /><path clip-path="url(#clip340)" d="M709.975 1234.06 L728.332 1234.06 L728.332 1238 L714.258 1238 L714.258 1246.47 Q715.276 1246.12 716.295 1245.96 Q717.313 1245.78 718.332 1245.78 Q724.119 1245.78 727.498 1248.95 Q730.878 1252.12 730.878 1257.54 Q730.878 1263.11 727.406 1266.22 Q723.934 1269.3 717.614 1269.3 Q715.438 1269.3 713.17 1268.92 Q710.924 1268.55 708.517 1267.81 L708.517 1263.11 Q710.6 1264.25 712.823 1264.8 Q715.045 1265.36 717.522 1265.36 Q721.526 1265.36 723.864 1263.25 Q726.202 1261.15 726.202 1257.54 Q726.202 1253.92 723.864 1251.82 Q721.526 1249.71 717.522 1249.71 Q715.647 1249.71 713.772 1250.13 Q711.92 1250.55 709.975 1251.42 L709.975 1234.06 Z" fill="#000000" fill-rule="nonzero" fill-opacity="1" /><path clip-path="url(#clip340)" d="M806.566 1305.7 L814.205 1305.7 L814.205 1279.33 L805.895 1281 L805.895 1276.74 L814.159 1275.07 L818.835 1275.07 L818.835 1305.7 L826.474 1305.7 L826.474 1309.63 L806.566 1309.63 L806.566 1305.7 Z" fill="#000000" fill-rule="nonzero" fill-opacity="1" /><path clip-path="url(#clip340)" d="M835.918 1303.75 L840.802 1303.75 L840.802 1309.63 L835.918 1309.63 L835.918 1303.75 Z" fill="#000000" fill-rule="nonzero" fill-opacity="1" /><path clip-path="url(#clip340)" d="M860.987 1278.15 Q857.376 1278.15 855.548 1281.71 Q853.742 1285.26 853.742 1292.39 Q853.742 1299.49 855.548 1303.06 Q857.376 1306.6 860.987 1306.6 Q864.622 1306.6 866.427 1303.06 Q868.256 1299.49 868.256 1292.39 Q868.256 1285.26 866.427 1281.71 Q864.622 1278.15 860.987 1278.15 M860.987 1274.45 Q866.798 1274.45 869.853 1279.05 Q872.932 1283.64 872.932 1292.39 Q872.932 1301.11 869.853 1305.72 Q866.798 1310.3 860.987 1310.3 Q855.177 1310.3 852.099 1305.72 Q849.043 1301.11 849.043 1292.39 Q849.043 1283.64 852.099 1279.05 Q855.177 1274.45 860.987 1274.45 Z" fill="#000000" fill-rule="nonzero" fill-opacity="1" /><path clip-path="url(#clip340)" d="M949.616 1346.7 L957.255 1346.7 L957.255 1320.34 L948.944 1322 L948.944 1317.75 L957.208 1316.08 L961.884 1316.08 L961.884 1346.7 L969.523 1346.7 L969.523 1350.64 L949.616 1350.64 L949.616 1346.7 Z" fill="#000000" fill-rule="nonzero" fill-opacity="1" /><path clip-path="url(#clip340)" d="M978.967 1344.76 L983.852 1344.76 L983.852 1350.64 L978.967 1350.64 L978.967 1344.76 Z" fill="#000000" fill-rule="nonzero" fill-opacity="1" /><path clip-path="url(#clip340)" d="M994.083 1316.08 L1012.44 1316.08 L1012.44 1320.01 L998.365 1320.01 L998.365 1328.49 Q999.384 1328.14 1000.4 1327.98 Q1001.42 1327.79 1002.44 1327.79 Q1008.23 1327.79 1011.61 1330.96 Q1014.99 1334.13 1014.99 1339.55 Q1014.99 1345.13 1011.51 1348.23 Q1008.04 1351.31 1001.72 1351.31 Q999.546 1351.31 997.277 1350.94 Q995.032 1350.57 992.625 1349.83 L992.625 1345.13 Q994.708 1346.26 996.93 1346.82 Q999.152 1347.37 1001.63 1347.37 Q1005.63 1347.37 1007.97 1345.27 Q1010.31 1343.16 1010.31 1339.55 Q1010.31 1335.94 1007.97 1333.83 Q1005.63 1331.73 1001.63 1331.73 Q999.754 1331.73 997.879 1332.14 Q996.027 1332.56 994.083 1333.44 L994.083 1316.08 Z" fill="#000000" fill-rule="nonzero" fill-opacity="1" /><path clip-path="url(#clip340)" d="M1093.89 1387.71 L1110.21 1387.71 L1110.21 1391.65 L1088.27 1391.65 L1088.27 1387.71 Q1090.93 1384.96 1095.51 1380.33 Q1100.12 1375.67 1101.3 1374.33 Q1103.54 1371.81 1104.42 1370.07 Q1105.33 1368.31 1105.33 1366.62 Q1105.33 1363.87 1103.38 1362.13 Q1101.46 1360.4 1098.36 1360.4 Q1096.16 1360.4 1093.71 1361.16 Q1091.28 1361.92 1088.5 1363.48 L1088.5 1358.75 Q1091.32 1357.62 1093.78 1357.04 Q1096.23 1356.46 1098.27 1356.46 Q1103.64 1356.46 1106.83 1359.15 Q1110.03 1361.83 1110.03 1366.32 Q1110.03 1368.45 1109.22 1370.37 Q1108.43 1372.27 1106.32 1374.86 Q1105.74 1375.54 1102.64 1378.75 Q1099.54 1381.95 1093.89 1387.71 Z" fill="#000000" fill-rule="nonzero" fill-opacity="1" /><path clip-path="url(#clip340)" d="M1120.03 1385.77 L1124.91 1385.77 L1124.91 1391.65 L1120.03 1391.65 L1120.03 1385.77 Z" fill="#000000" fill-rule="nonzero" fill-opacity="1" /><path clip-path="url(#clip340)" d="M1145.1 1360.16 Q1141.48 1360.16 1139.66 1363.73 Q1137.85 1367.27 1137.85 1374.4 Q1137.85 1381.51 1139.66 1385.07 Q1141.48 1388.61 1145.1 1388.61 Q1148.73 1388.61 1150.53 1385.07 Q1152.36 1381.51 1152.36 1374.4 Q1152.36 1367.27 1150.53 1363.73 Q1148.73 1360.16 1145.1 1360.16 M1145.1 1356.46 Q1150.91 1356.46 1153.96 1361.07 Q1157.04 1365.65 1157.04 1374.4 Q1157.04 1383.13 1153.96 1387.73 Q1150.91 1392.32 1145.1 1392.32 Q1139.29 1392.32 1136.21 1387.73 Q1133.15 1383.13 1133.15 1374.4 Q1133.15 1365.65 1136.21 1361.07 Q1139.29 1356.46 1145.1 1356.46 Z" fill="#000000" fill-rule="nonzero" fill-opacity="1" /><path clip-path="url(#clip340)" d="M1236.94 1428.72 L1253.26 1428.72 L1253.26 1432.65 L1231.32 1432.65 L1231.32 1428.72 Q1233.98 1425.96 1238.56 1421.33 Q1243.17 1416.68 1244.35 1415.34 Q1246.59 1412.82 1247.47 1411.08 Q1248.38 1409.32 1248.38 1407.63 Q1248.38 1404.88 1246.43 1403.14 Q1244.51 1401.4 1241.41 1401.4 Q1239.21 1401.4 1236.76 1402.17 Q1234.33 1402.93 1231.55 1404.48 L1231.55 1399.76 Q1234.37 1398.63 1236.83 1398.05 Q1239.28 1397.47 1241.32 1397.47 Q1246.69 1397.47 1249.88 1400.15 Q1253.08 1402.84 1253.08 1407.33 Q1253.08 1409.46 1252.26 1411.38 Q1251.48 1413.28 1249.37 1415.87 Q1248.79 1416.54 1245.69 1419.76 Q1242.59 1422.95 1236.94 1428.72 Z" fill="#000000" fill-rule="nonzero" fill-opacity="1" /><path clip-path="url(#clip340)" d="M1263.08 1426.77 L1267.96 1426.77 L1267.96 1432.65 L1263.08 1432.65 L1263.08 1426.77 Z" fill="#000000" fill-rule="nonzero" fill-opacity="1" /><path clip-path="url(#clip340)" d="M1278.19 1398.09 L1296.55 1398.09 L1296.55 1402.03 L1282.47 1402.03 L1282.47 1410.5 Q1283.49 1410.15 1284.51 1409.99 Q1285.53 1409.81 1286.55 1409.81 Q1292.33 1409.81 1295.71 1412.98 Q1299.09 1416.15 1299.09 1421.57 Q1299.09 1427.14 1295.62 1430.25 Q1292.15 1433.32 1285.83 1433.32 Q1283.65 1433.32 1281.39 1432.95 Q1279.14 1432.58 1276.73 1431.84 L1276.73 1427.14 Q1278.82 1428.28 1281.04 1428.83 Q1283.26 1429.39 1285.74 1429.39 Q1289.74 1429.39 1292.08 1427.28 Q1294.42 1425.18 1294.42 1421.57 Q1294.42 1417.95 1292.08 1415.85 Q1289.74 1413.74 1285.74 1413.74 Q1283.86 1413.74 1281.99 1414.16 Q1280.14 1414.57 1278.19 1415.45 L1278.19 1398.09 Z" fill="#000000" fill-rule="nonzero" fill-opacity="1" /><polyline clip-path="url(#clip340)" style="stroke:#000000; stroke-linecap:round; stroke-linejoin:round; stroke-width:4; stroke-opacity:1; fill:none" points="1384.54,1410.41 1800,1050.61 "/>
<polyline clip-path="url(#clip340)" style="stroke:#000000; stroke-linecap:round; stroke-linejoin:round; stroke-width:4; stroke-opacity:1; fill:none" points="1395.94,1400.54 1387.3,1398.04 "/>
<polyline clip-path="url(#clip340)" style="stroke:#000000; stroke-linecap:round; stroke-linejoin:round; stroke-width:4; stroke-opacity:1; fill:none" points="1469.1,1337.18 1460.46,1334.69 "/>
<polyline clip-path="url(#clip340)" style="stroke:#000000; stroke-linecap:round; stroke-linejoin:round; stroke-width:4; stroke-opacity:1; fill:none" points="1542.25,1273.83 1533.62,1271.33 "/>
<polyline clip-path="url(#clip340)" style="stroke:#000000; stroke-linecap:round; stroke-linejoin:round; stroke-width:4; stroke-opacity:1; fill:none" points="1615.41,1210.47 1606.77,1207.98 "/>
<polyline clip-path="url(#clip340)" style="stroke:#000000; stroke-linecap:round; stroke-linejoin:round; stroke-width:4; stroke-opacity:1; fill:none" points="1688.56,1147.12 1679.93,1144.63 "/>
<polyline clip-path="url(#clip340)" style="stroke:#000000; stroke-linecap:round; stroke-linejoin:round; stroke-width:4; stroke-opacity:1; fill:none" points="1761.72,1083.76 1753.08,1081.27 "/>
<path clip-path="url(#clip340)" d="M1421.94 1426.05 Q1425.3 1426.77 1427.17 1429.03 Q1429.07 1431.3 1429.07 1434.64 Q1429.07 1439.75 1425.55 1442.55 Q1422.03 1445.35 1415.55 1445.35 Q1413.38 1445.35 1411.06 1444.91 Q1408.77 1444.5 1406.32 1443.64 L1406.32 1439.13 Q1408.26 1440.26 1410.58 1440.84 Q1412.89 1441.42 1415.41 1441.42 Q1419.81 1441.42 1422.1 1439.68 Q1424.42 1437.95 1424.42 1434.64 Q1424.42 1431.58 1422.27 1429.87 Q1420.14 1428.13 1416.32 1428.13 L1412.29 1428.13 L1412.29 1424.29 L1416.5 1424.29 Q1419.95 1424.29 1421.78 1422.92 Q1423.61 1421.53 1423.61 1418.94 Q1423.61 1416.28 1421.71 1414.87 Q1419.84 1413.43 1416.32 1413.43 Q1414.4 1413.43 1412.2 1413.85 Q1410 1414.27 1407.36 1415.15 L1407.36 1410.98 Q1410.02 1410.24 1412.34 1409.87 Q1414.67 1409.5 1416.73 1409.5 Q1422.06 1409.5 1425.16 1411.93 Q1428.26 1414.34 1428.26 1418.46 Q1428.26 1421.33 1426.62 1423.32 Q1424.97 1425.28 1421.94 1426.05 Z" fill="#000000" fill-rule="nonzero" fill-opacity="1" /><path clip-path="url(#clip340)" d="M1495.07 1350.84 L1483.27 1369.29 L1495.07 1369.29 L1495.07 1350.84 M1493.85 1346.77 L1499.73 1346.77 L1499.73 1369.29 L1504.66 1369.29 L1504.66 1373.18 L1499.73 1373.18 L1499.73 1381.33 L1495.07 1381.33 L1495.07 1373.18 L1479.47 1373.18 L1479.47 1368.67 L1493.85 1346.77 Z" fill="#000000" fill-rule="nonzero" fill-opacity="1" /><path clip-path="url(#clip340)" d="M1554.09 1283.41 L1572.44 1283.41 L1572.44 1287.35 L1558.37 1287.35 L1558.37 1295.82 Q1559.39 1295.47 1560.41 1295.31 Q1561.42 1295.13 1562.44 1295.13 Q1568.23 1295.13 1571.61 1298.3 Q1574.99 1301.47 1574.99 1306.89 Q1574.99 1312.46 1571.52 1315.57 Q1568.04 1318.64 1561.73 1318.64 Q1559.55 1318.64 1557.28 1318.27 Q1555.04 1317.9 1552.63 1317.16 L1552.63 1312.46 Q1554.71 1313.6 1556.93 1314.15 Q1559.16 1314.71 1561.63 1314.71 Q1565.64 1314.71 1567.98 1312.6 Q1570.31 1310.5 1570.31 1306.89 Q1570.31 1303.27 1567.98 1301.17 Q1565.64 1299.06 1561.63 1299.06 Q1559.76 1299.06 1557.88 1299.48 Q1556.03 1299.89 1554.09 1300.77 L1554.09 1283.41 Z" fill="#000000" fill-rule="nonzero" fill-opacity="1" /><path clip-path="url(#clip340)" d="M1638.12 1235.48 Q1634.97 1235.48 1633.12 1237.63 Q1631.29 1239.78 1631.29 1243.53 Q1631.29 1247.26 1633.12 1249.43 Q1634.97 1251.59 1638.12 1251.59 Q1641.27 1251.59 1643.1 1249.43 Q1644.95 1247.26 1644.95 1243.53 Q1644.95 1239.78 1643.1 1237.63 Q1641.27 1235.48 1638.12 1235.48 M1647.4 1220.82 L1647.4 1225.08 Q1645.64 1224.25 1643.84 1223.81 Q1642.06 1223.37 1640.3 1223.37 Q1635.67 1223.37 1633.21 1226.49 Q1630.78 1229.62 1630.44 1235.94 Q1631.8 1233.92 1633.86 1232.86 Q1635.92 1231.77 1638.4 1231.77 Q1643.61 1231.77 1646.62 1234.94 Q1649.65 1238.09 1649.65 1243.53 Q1649.65 1248.85 1646.5 1252.07 Q1643.35 1255.29 1638.12 1255.29 Q1632.13 1255.29 1628.96 1250.71 Q1625.78 1246.1 1625.78 1237.37 Q1625.78 1229.18 1629.67 1224.32 Q1633.56 1219.43 1640.11 1219.43 Q1641.87 1219.43 1643.65 1219.78 Q1645.46 1220.13 1647.4 1220.82 Z" fill="#000000" fill-rule="nonzero" fill-opacity="1" /><path clip-path="url(#clip340)" d="M1698.94 1156.7 L1721.16 1156.7 L1721.16 1158.69 L1708.62 1191.26 L1703.73 1191.26 L1715.54 1160.64 L1698.94 1160.64 L1698.94 1156.7 Z" fill="#000000" fill-rule="nonzero" fill-opacity="1" /><path clip-path="url(#clip340)" d="M1783.95 1111.5 Q1780.61 1111.5 1778.69 1113.28 Q1776.79 1115.06 1776.79 1118.19 Q1776.79 1121.31 1778.69 1123.09 Q1780.61 1124.88 1783.95 1124.88 Q1787.28 1124.88 1789.2 1123.09 Q1791.12 1121.29 1791.12 1118.19 Q1791.12 1115.06 1789.2 1113.28 Q1787.3 1111.5 1783.95 1111.5 M1779.27 1109.51 Q1776.26 1108.77 1774.57 1106.71 Q1772.91 1104.65 1772.91 1101.68 Q1772.91 1097.54 1775.85 1095.13 Q1778.81 1092.72 1783.95 1092.72 Q1789.11 1092.72 1792.05 1095.13 Q1794.99 1097.54 1794.99 1101.68 Q1794.99 1104.65 1793.3 1106.71 Q1791.63 1108.77 1788.65 1109.51 Q1792.03 1110.29 1793.9 1112.59 Q1795.8 1114.88 1795.8 1118.19 Q1795.8 1123.21 1792.72 1125.9 Q1789.66 1128.58 1783.95 1128.58 Q1778.23 1128.58 1775.15 1125.9 Q1772.1 1123.21 1772.1 1118.19 Q1772.1 1114.88 1773.99 1112.59 Q1775.89 1110.29 1779.27 1109.51 M1777.56 1102.12 Q1777.56 1104.81 1779.22 1106.31 Q1780.91 1107.82 1783.95 1107.82 Q1786.96 1107.82 1788.65 1106.31 Q1790.36 1104.81 1790.36 1102.12 Q1790.36 1099.44 1788.65 1097.93 Q1786.96 1096.43 1783.95 1096.43 Q1780.91 1096.43 1779.22 1097.93 Q1777.56 1099.44 1777.56 1102.12 Z" fill="#000000" fill-rule="nonzero" fill-opacity="1" /><polyline clip-path="url(#clip340)" style="stroke:#000000; stroke-linecap:round; stroke-linejoin:round; stroke-width:4; stroke-opacity:1; fill:none" points="664.934,1202.68 664.934,483.08 "/>
<polyline clip-path="url(#clip340)" style="stroke:#000000; stroke-linecap:round; stroke-linejoin:round; stroke-width:4; stroke-opacity:1; fill:none" points="664.934,1158.56 669.92,1154.24 "/>
<polyline clip-path="url(#clip340)" style="stroke:#000000; stroke-linecap:round; stroke-linejoin:round; stroke-width:4; stroke-opacity:1; fill:none" points="664.934,1048.59 669.92,1044.27 "/>
<polyline clip-path="url(#clip340)" style="stroke:#000000; stroke-linecap:round; stroke-linejoin:round; stroke-width:4; stroke-opacity:1; fill:none" points="664.934,938.627 669.92,934.309 "/>
<polyline clip-path="url(#clip340)" style="stroke:#000000; stroke-linecap:round; stroke-linejoin:round; stroke-width:4; stroke-opacity:1; fill:none" points="664.934,828.662 669.92,824.345 "/>
<polyline clip-path="url(#clip340)" style="stroke:#000000; stroke-linecap:round; stroke-linejoin:round; stroke-width:4; stroke-opacity:1; fill:none" points="664.934,718.698 669.92,714.38 "/>
<polyline clip-path="url(#clip340)" style="stroke:#000000; stroke-linecap:round; stroke-linejoin:round; stroke-width:4; stroke-opacity:1; fill:none" points="664.934,608.733 669.92,604.416 "/>
<polyline clip-path="url(#clip340)" style="stroke:#000000; stroke-linecap:round; stroke-linejoin:round; stroke-width:4; stroke-opacity:1; fill:none" points="664.934,498.769 669.92,494.451 "/>
<path clip-path="url(#clip340)" d="M629.005 1157.2 Q632.361 1157.92 634.236 1160.19 Q636.134 1162.46 636.134 1165.79 Q636.134 1170.91 632.616 1173.71 Q629.097 1176.51 622.616 1176.51 Q620.44 1176.51 618.125 1176.07 Q615.834 1175.65 613.38 1174.79 L613.38 1170.28 Q615.324 1171.41 617.639 1171.99 Q619.954 1172.57 622.477 1172.57 Q626.875 1172.57 629.167 1170.84 Q631.482 1169.1 631.482 1165.79 Q631.482 1162.73 629.329 1161.02 Q627.199 1159.28 623.38 1159.28 L619.352 1159.28 L619.352 1155.44 L623.565 1155.44 Q627.014 1155.44 628.843 1154.08 Q630.671 1152.69 630.671 1150.1 Q630.671 1147.43 628.773 1146.02 Q626.898 1144.59 623.38 1144.59 Q621.459 1144.59 619.26 1145 Q617.06 1145.42 614.422 1146.3 L614.422 1142.13 Q617.084 1141.39 619.398 1141.02 Q621.736 1140.65 623.797 1140.65 Q629.121 1140.65 632.222 1143.08 Q635.324 1145.49 635.324 1149.61 Q635.324 1152.48 633.681 1154.47 Q632.037 1156.44 629.005 1157.2 Z" fill="#000000" fill-rule="nonzero" fill-opacity="1" /><path clip-path="url(#clip340)" d="M626.551 1035.39 L614.746 1053.83 L626.551 1053.83 L626.551 1035.39 M625.324 1031.31 L631.204 1031.31 L631.204 1053.83 L636.134 1053.83 L636.134 1057.72 L631.204 1057.72 L631.204 1065.87 L626.551 1065.87 L626.551 1057.72 L610.949 1057.72 L610.949 1053.21 L625.324 1031.31 Z" fill="#000000" fill-rule="nonzero" fill-opacity="1" /><path clip-path="url(#clip340)" d="M615.232 921.347 L633.588 921.347 L633.588 925.282 L619.514 925.282 L619.514 933.754 Q620.533 933.407 621.551 933.245 Q622.57 933.06 623.588 933.06 Q629.375 933.06 632.755 936.231 Q636.134 939.402 636.134 944.819 Q636.134 950.398 632.662 953.499 Q629.19 956.578 622.871 956.578 Q620.695 956.578 618.426 956.208 Q616.181 955.837 613.773 955.097 L613.773 950.398 Q615.857 951.532 618.079 952.087 Q620.301 952.643 622.778 952.643 Q626.783 952.643 629.121 950.537 Q631.459 948.43 631.459 944.819 Q631.459 941.208 629.121 939.101 Q626.783 936.995 622.778 936.995 Q620.903 936.995 619.028 937.412 Q617.176 937.828 615.232 938.708 L615.232 921.347 Z" fill="#000000" fill-rule="nonzero" fill-opacity="1" /><path clip-path="url(#clip340)" d="M624.607 826.799 Q621.459 826.799 619.607 828.952 Q617.778 831.104 617.778 834.854 Q617.778 838.581 619.607 840.757 Q621.459 842.91 624.607 842.91 Q627.755 842.91 629.584 840.757 Q631.435 838.581 631.435 834.854 Q631.435 831.104 629.584 828.952 Q627.755 826.799 624.607 826.799 M633.889 812.146 L633.889 816.405 Q632.13 815.572 630.324 815.132 Q628.542 814.693 626.783 814.693 Q622.153 814.693 619.699 817.818 Q617.269 820.942 616.922 827.262 Q618.287 825.248 620.347 824.183 Q622.408 823.095 624.884 823.095 Q630.093 823.095 633.102 826.267 Q636.134 829.415 636.134 834.854 Q636.134 840.179 632.986 843.396 Q629.838 846.614 624.607 846.614 Q618.611 846.614 615.44 842.03 Q612.269 837.424 612.269 828.697 Q612.269 820.503 616.158 815.642 Q620.047 810.757 626.597 810.757 Q628.357 810.757 630.139 811.105 Q631.945 811.452 633.889 812.146 Z" fill="#000000" fill-rule="nonzero" fill-opacity="1" /><path clip-path="url(#clip340)" d="M613.912 701.418 L636.134 701.418 L636.134 703.409 L623.588 735.978 L618.704 735.978 L630.509 705.353 L613.912 705.353 L613.912 701.418 Z" fill="#000000" fill-rule="nonzero" fill-opacity="1" /><path clip-path="url(#clip340)" d="M624.283 609.601 Q620.949 609.601 619.028 611.384 Q617.13 613.166 617.13 616.291 Q617.13 619.416 619.028 621.199 Q620.949 622.981 624.283 622.981 Q627.616 622.981 629.537 621.199 Q631.459 619.393 631.459 616.291 Q631.459 613.166 629.537 611.384 Q627.639 609.601 624.283 609.601 M619.607 607.611 Q616.597 606.87 614.908 604.81 Q613.241 602.75 613.241 599.787 Q613.241 595.643 616.181 593.236 Q619.144 590.828 624.283 590.828 Q629.445 590.828 632.384 593.236 Q635.324 595.643 635.324 599.787 Q635.324 602.75 633.634 604.81 Q631.968 606.87 628.982 607.611 Q632.361 608.398 634.236 610.689 Q636.134 612.981 636.134 616.291 Q636.134 621.314 633.056 624 Q630 626.685 624.283 626.685 Q618.565 626.685 615.486 624 Q612.431 621.314 612.431 616.291 Q612.431 612.981 614.329 610.689 Q616.227 608.398 619.607 607.611 M617.894 600.226 Q617.894 602.912 619.56 604.416 Q621.25 605.921 624.283 605.921 Q627.292 605.921 628.982 604.416 Q630.695 602.912 630.695 600.226 Q630.695 597.541 628.982 596.037 Q627.292 594.532 624.283 594.532 Q621.25 594.532 619.56 596.037 Q617.894 597.541 617.894 600.226 Z" fill="#000000" fill-rule="nonzero" fill-opacity="1" /><path clip-path="url(#clip340)" d="M614.514 515.331 L614.514 511.072 Q616.273 511.905 618.079 512.345 Q619.885 512.785 621.621 512.785 Q626.25 512.785 628.681 509.683 Q631.134 506.558 631.482 500.216 Q630.139 502.206 628.079 503.271 Q626.019 504.336 623.519 504.336 Q618.334 504.336 615.301 501.211 Q612.292 498.063 612.292 492.623 Q612.292 487.299 615.44 484.081 Q618.588 480.864 623.82 480.864 Q629.815 480.864 632.963 485.47 Q636.134 490.054 636.134 498.804 Q636.134 506.975 632.246 511.859 Q628.38 516.72 621.829 516.72 Q620.07 516.72 618.264 516.373 Q616.459 516.026 614.514 515.331 M623.82 500.679 Q626.968 500.679 628.796 498.526 Q630.648 496.373 630.648 492.623 Q630.648 488.896 628.796 486.744 Q626.968 484.568 623.82 484.568 Q620.672 484.568 618.82 486.744 Q616.991 488.896 616.991 492.623 Q616.991 496.373 618.82 498.526 Q620.672 500.679 623.82 500.679 Z" fill="#000000" fill-rule="nonzero" fill-opacity="1" /><polyline clip-path="url(#clip341)" style="stroke:#009af9; stroke-linecap:round; stroke-linejoin:round; stroke-width:4; stroke-opacity:1; fill:none" points="1034.32,863.147 1025.19,873.827 1031.41,866.083 1025.94,872.418 1021.05,877.98 1019.86,879.014 1017.7,881.136 1016.22,882.407 1014.58,883.799 1029.41,865.314 1030.81,863.255 1035.21,857.555 1028.63,865.122 1020.33,874.537 1021.52,872.258 1007.01,888.86 981.195,918.491 976.647,921.386 961.842,936.679 948.998,949.058 949.936,944.18 934.413,959.098 920.185,972.01 910.86,978.996 925.225,956.089 879.964,1008.49 868.82,1015.54 869.728,1008.83 870.119,1003.26 857.938,1015.72 856.23,1013.71 845.194,1023.16 827.494,1043.24 840.678,1022.9 831.975,1036.11 848.203,1013.61 877.866,978.741 883.705,978.385 887.515,975.401 922.082,944.264 924.936,945.074 970.05,897.657 991.736,883.91 1046.17,838.002 1049.76,832.859 1207.8,691.251 1162.82,752.644 1240.57,688.091 1372.17,583.367 1312.15,653.919 1434.31,549.843 1384.72,608.452 1319.78,658.04 1290.25,668.975 1317.72,646.878 1355.35,627.153 1369.32,617.833 1592.13,434.35 1582.09,478.742 1595.22,495.524 1542.02,526.361 1582.52,497.354 1406.17,635.458 1403.78,613.106 1320.89,673.711 1303.37,680.643 1249.87,724.645 1332.59,633.395 1360.11,608.412 1266.25,703.377 1339.44,640.604 1365.24,616.735 1316.74,656.901 1321.81,653.432 1306.57,657.207 1285.58,674.973 1237.73,714.201 1244.38,707.238 1165.91,784.539 1118.93,804.633 1025.46,885.206 1119.93,784.855 1151.85,763.673 1118.85,794.756 1033.47,885.838 1028.14,878.367 1031.81,873.6 1042.86,850.816 1186.68,721.219 1220.55,709.117 1067.87,862.163 1096.04,818.1 1074.48,833.512 1058.91,843.756 1063.98,840.737 1009.96,899.299 1077.17,839.655 1089.48,814.949 1092.34,817.005 1115.77,792.924 1071.64,824.485 1095.12,822.783 1081.41,834.987 1116.43,780.105 1028.51,861.946 1095.02,809.259 1201.61,723.653 1205.7,710.216 1198.55,721.055 1141.36,762.542 1132.57,776.341 1170.65,753.366 1185.01,747.542 1076.25,825.339 1078.81,812.929 1145.28,745.962 1139.37,776.864 1137.69,780.507 1137.81,775.148 1101.96,811.024 1004.61,886.386 1002.78,886.123 979.085,904.41 969.038,907.757 1004.64,871.74 1059.37,819.036 1087.16,802.747 1077.62,827.806 1079.49,816.773 1164.31,742.152 1231.4,695.951 1165.61,764.569 1083.56,832.175 1080.02,820.422 1111.65,792.304 1172.29,753.266 1121.39,794.627 1070.6,838.578 1066.66,832.612 1018.82,882.113 1061.33,842.113 1133.81,772.345 1054.53,836.669 1069.76,825.215 1032.47,872.123 1046.02,858.754 1103.56,808.661 1051.47,842.502 1041.53,852.949 988.627,880.256 1019.65,867.392 1012.17,875.678 979.852,895.167 1082.08,802.771 1093.83,797.293 994.97,895.902 905.14,965.355 905.445,968.122 884.542,986.825 833.134,1042.7 798.96,1071.48 842.33,1015.39 894.105,971.176 880.276,986.609 882.68,987.317 806.489,1068.29 795.909,1077.57 815.237,1043.16 810.684,1047.57 810.643,1049.84 787.728,1075.17 787.518,1078.75 816.206,1047.06 818.764,1042.82 807.884,1054.41 896.228,955.442 895.406,965.451 944.497,920.245 1019.65,854.101 1062.32,815.612 1131.27,759.135 1133,774.865 1165.81,759.408 1289.51,630.445 1221.3,703.65 1214.44,726.853 1252.5,692.627 1200.04,736.673 1161.68,748.491 1165.6,750.973 1140.92,768.497 1107.45,798.071 1204.33,709.523 1194.49,732.045 1220.54,706.884 1260.51,696.375 1235.7,720.884 1221.91,719.614 1229.35,713.19 1249.9,691.3 1187.01,745.28 1221.5,713.025 1160.84,769.277 1163.72,769.514 1204.87,714.443 1166.61,759.512 1156.66,764.433 1134.71,783.555 1173.36,748.386 1065.87,849.874 1114.94,784.096 1089.41,802.718 1099.97,779.905 1066.28,815.182 1075.83,820.549 1117.71,774.208 1225.69,698.734 1207.11,733.309 1108.9,819.597 987.467,921.319 1036.57,860.581 1073.33,810.966 1099.45,801.874 1151.87,757.382 1182.27,739.808 1171.64,758.634 1268.49,663.418 1297.93,654.065 1328.74,646.001 1325.51,648.781 1252.54,717.586 1173.5,771.443 1139.29,792.843 1169.89,760.888 1190.14,737.787 1152.36,768.491 1123.73,800.719 1149.94,758.886 1114.18,799.824 1150.47,760.502 1030.97,871.629 1048.85,845.504 1167.95,738.477 1242.6,672.027 1264.76,672.952 1308.39,645.475 1374.06,593.442 1341.34,635.9 1173,769.931 1202.88,727.976 1202.03,737.839 1250.82,699.649 1296.19,658.335 1222.7,706.711 1238.04,704.623 1352.84,612.506 1280.68,677.035 1300.02,653.392 1360.75,629.986 1469.94,531.917 1264.34,684.813 1330.66,632.635 1347.82,609.85 1409.62,572.437 1385.99,599.097 1391.95,588.605 1333.47,635.133 1311.49,677.04 1238.36,741.438 1204.87,752.866 1130.72,799.897 1080.72,831.479 1090.48,808.86 1081.14,822.612 1069.94,838.692 1077.23,814.81 1088.51,815.897 1090.85,817.649 1056.08,847.525 1062.28,846.94 1021.52,878.753 1053.9,850.695 1098.96,793.889 1192.3,720.412 1215.6,709.487 1253.62,690.947 1387.85,591.379 1318.65,650.358 1201.76,730.843 1303.19,647.239 1461.72,532.53 1502.14,516.373 1489.83,536.516 1397.84,604.87 1391.39,602.445 1359.85,615.502 1326.83,649.205 1290.96,666.042 1296.58,660.575 1189.55,745.443 1225.41,712.923 1192.96,725.549 1188.41,735.647 1199.69,720.785 1272.06,662.219 1243.2,701.608 1252.77,694.245 1263.8,681.336 1295.31,671.709 1244.88,714.73 1241.18,709.543 1283.32,682.63 1310.98,669.306 1189.5,766.268 1119.94,812.307 1091.47,824.287 1048.42,858.635 1067.19,838.134 980.471,913.626 1004.64,880.372 966.695,917.283 959.435,916.922 963.435,913.47 960.707,915.849 1033.65,844.536 1015.47,868.431 1021.65,859.876 1006.14,873.411 1094.95,808.03 1054.76,849.216 1026.05,868.039 1022.51,868.737 990.177,904.011 1054.81,838.925 975.783,906.713 997.5,881.263 953.215,917.125 944.047,942.005 941.782,931.964 911.381,962.843 889.246,981.712 917.784,940.185 846.971,1017.01 946.518,898.394 995.496,855.205 1055.69,816.203 1088.35,796.573 1106.29,788.981 1109.91,799.195 1102.82,807.993 1094.6,794.738 1159.78,743.267 1263.94,672.634 1253.98,683.531 1191.09,750.221 1089.33,833.114 1125.79,784.438 1105.95,812.459 1133.19,775.835 1156.26,756.601 1141.83,782.838 1133.82,777.471 1174.84,744.384 1231.47,709.218 1204.69,743.996 1160.34,764.633 1107.15,816.756 1069.69,844.079 1067.33,847.552 1014.43,887.73 1063.08,833.491 1027.99,867.347 1063.85,828.456 1051.15,848.822 1016,882.814 1008.83,878.85 1101.22,790.697 1122.19,779.524 1118.33,791.299 1214.72,702.016 1217.95,726.228 1104.31,820.919 1192.55,743.555 1224.73,721.716 1372.34,622.584 1395.71,597.392 1419.88,576.595 1391.89,620.016 1361.87,650.262 1298.76,678.27 1249.02,706.657 1179.1,766.036 1308.51,640.837 1398.9,577.994 1464.69,540.484 1443.68,577.79 1446.28,578.975 1450.26,575.498 1402.38,619.626 1275.23,716.352 1219.9,749.216 1178.11,765.357 1150.07,782.201 1151.97,773.173 1177.1,742.626 1156.94,770.328 1223.27,705.275 1253.75,689.654 1128.17,806.796 1139.29,788.155 1136.94,770.81 1081.87,817.947 1066.12,813.451 1114.83,792.659 1128.97,773.274 1222.49,705.928 1266.95,668.423 1344.17,611.501 1285.64,676.648 1250.57,709.065 1196.5,753.928 1210.19,732.077 1229.18,715.731 1274.91,679.312 1256.19,700.253 1197.15,751.312 1249.95,683.274 1218.95,718.382 1169.43,758.909 1156.25,767.525 1168.3,744.443 1168.17,763.486 1320.9,620.894 1247.4,701.706 1271.95,688.217 1334.72,641.272 1341.47,648.213 1471.7,569.237 1490.69,529.688 1486.93,551.884 1427.23,591.798 1313.88,665.677 1295.79,671.317 1400.23,583.37 1417.58,574.723 1359.03,618.867 1345.81,631.144 1322.71,654.719 1239.41,712.943 1325.61,629.098 1306.5,672.177 1344.78,635.94 1309.11,661.205 1290.36,677.701 1248.75,703.789 1196.3,742.642 1181.51,754.62 1118.52,807.633 1108.32,804.275 1051.37,853.379 1022.19,872.965 972.225,917.877 965.269,913.536 976.144,900.381 936.105,938.549 863.486,1011.77 888.201,986.284 911.436,963.906 884.037,994.787 855.578,1019.06 830.771,1038.74 880.412,984.573 887.991,985.155 848.385,1027.32 785.66,1089.9 862.81,987.676 916.305,936.749 905.03,960.805 901.021,963.703 893.59,974.831 909.286,958.016 953.898,909.697 980.156,887.969 1019.9,846.059 1064.29,819.955 1067.04,829.503 1103.59,803.246 1051.73,853.949 1002.43,884.993 1023.38,862.736 1045.16,835.346 1014.33,873.484 1017.57,870.242 1039.06,856.403 999.182,888.888 944.215,944.731 959.353,924.369 914.392,967.445 940.825,936.14 898.674,974.949 869.63,990.853 863.987,994.534 907.24,954.069 945.934,914.167 1012.83,849.892 980.827,886.706 995.832,882.38 951.7,931.19 906.236,970.166 898.158,969.631 1038.4,831.196 1051.92,825.325 1033.51,845.632 1082.09,804.227 1161.41,745.085 1155.94,772.374 1180.79,751.756 1203.25,738.321 1127.33,798.554 1107.24,809.199 1095.1,806.241 1197.53,736.925 1213.66,720.346 1113.66,789.853 1162.05,745.509 1178.01,745.337 1127.08,800.428 1031.42,882.742 1046.61,853.233 1030.75,866.087 995.1,899.93 976.192,910.24 995.549,884.41 1009.7,869.413 1011.99,871.385 996.607,894.963 1056.54,839.449 1046.37,847.442 1065.09,821.333 1164.74,736.179 1243.71,677.974 1352.27,599.333 1414.04,564.706 1397.71,597.229 1431.3,580.117 1442.61,585.88 1376.17,623.719 1357.68,637.239 1383.77,622.313 1336.91,651.463 1355.93,627.485 1312.83,661.359 1332.4,633.791 1461.85,542.123 1369.16,622.701 1363.87,620.954 1235.83,719.306 1248.9,704.745 1289.3,663.489 1220.99,722.794 1209.49,737.312 1216.67,729.06 1124.82,790.529 1135.63,777.06 1208.85,710.5 1340.62,597.136 1324.09,651.664 1354.51,628.412 1274.31,697.028 1258.43,702.357 1275.41,692.949 1281.89,672.974 1250.94,706.124 1240.71,710.624 1202.74,741.328 1233.66,701.831 1166.91,758.625 1196.85,737.896 1135.91,795.717 1077.72,841.68 1041.77,857.034 1064.35,834.004 982.121,903.313 924.201,962.325 905.387,971.258 871.225,1003.11 944.712,916.094 873.456,998.043 919.725,937.838 937.228,923.777 985.492,888.645 999.773,875.502 971.781,905.608 903.325,979.678 901.464,973.705 860.515,1015.81 838.55,1031.42 854.746,1009.04 891.09,968.978 905.983,967.485 942.941,924.897 904.77,960.624 953.335,914.199 974.044,902.469 1001.09,876.533 1034.84,839.61 968.74,909.74 1073.63,807.797 1156.71,743.565 1220.4,702.268 1222.98,716.027 1246.21,695.537 1383.6,577.261 1381.34,614.549 1381.95,619.642 1467.19,547.945 1334.16,654.088 1169.55,784.843 1175.68,755.494 1240.89,687.618 1232.7,707.682 1165.75,772.03 1156.61,772.275 1223.95,709.015 1203.7,731.299 1263.71,678.366 1234.21,708.319 1159.8,787.334 1218.42,723.563 1102.27,808.99 1079.26,822.916 1064.63,844.679 1045,853.09 1031.36,866.14 998.175,887.251 987.43,896.304 957.13,921.274 987.098,894.397 1002.33,879.503 1015.34,874.415 1052.58,839.524 1109.79,788.053 1026.06,865.546 1012.08,878.14 1123.61,777.637 1199.28,719.181 1118.68,807.01 1207.58,710.273 1280.07,665.516 1148.51,782.387 1125.63,794.713 1081.22,830.713 1072.05,828.239 1029.17,872.637 1113.54,779.699 1059.7,829.287 1176.49,738.133 1170.32,750.552 1255.89,676.347 1351.91,611.515 1463.21,532.797 1517.63,509.343 1507.91,537.21 1515.29,540.982 1466.98,575.166 1401.83,626.416 1355.66,642.029 1323.05,672.097 1396.74,601.012 1323.72,658.314 1240,729.022 1214.79,737.93 1197.59,746.136 1185.1,752.248 1180,751.873 1190.9,742.001 1132.19,793.211 1200.9,716.523 1278.33,674.774 1276.08,676.861 1261.14,689.632 1379.98,575.265 1431.82,547.801 1463.2,536.197 1432.23,579.971 1484.49,545.399 1506.68,538.686 1492.59,556.034 1482.82,565.887 1441.12,583.898 1446.1,573.653 1430.74,589.008 1456.94,560.673 1485.98,534.665 1541.99,505.078 1444.63,580.452 1367.87,650.426 1292.16,697.356 1272.81,698.692 1194.05,764.456 1147.98,794.754 1120.31,804.011 1176.21,733.808 1123.84,782.298 1125.54,782.397 1073.09,827.253 1076.43,823.246 1124.31,780.05 1163.95,745.206 1083.77,826.757 1112.52,800.085 1245.26,690.874 1266.46,680.052 1331.93,624.31 1364.08,636.049 1327.38,662.485 1229.44,742.286 1159.49,787.668 1131.38,795.043 1042.59,874.561 1062.75,834.623 1053.32,842.8 1048.38,847.71 1051.8,838.023 1105.14,788.66 1074.96,816.061 1031.79,861.156 1036.28,850.217 1108.67,802.305 1108,806.362 1130.73,793.153 1125.78,798.02 1155.63,779.185 1249.35,704.253 1261.9,687.145 1378.63,591.811 1401.26,586.827 1424.51,595.024 1396.27,611.22 1476.6,546.698 1653.57,431.238 1557.87,512.581 1470,590.019 1503.37,554.647 1445.05,591.457 1378.95,633.368 1357.26,635.318 1432.48,566.781 1522.78,496.097 1465.15,547.138 1349.62,645.02 1375.78,616.11 1357.73,630.193 1390.91,617.42 1396.2,611.026 1353.5,636.133 1328.87,652.73 1237.27,719.956 1160.27,788.309 1168.4,769.899 1178.31,745.81 1186.65,731.271 1257.39,678.878 1322.57,625.862 1279.64,676.775 1250.68,721.49 1270.66,690.741 1120.27,806.962 1196.33,723.164 1206.88,719.771 1177.26,743.244 1168.76,750.856 1108.89,806.449 1112.48,804.447 1050.13,856.279 990.27,914.99 1000.45,893.836 979.8,903.101 955.731,932.642 983.117,898.775 1108.32,793.262 1117.06,786.394 1088.26,817.678 1091.45,813.141 1114.52,785.15 1109.41,783.344 1192.2,741.571 1236.12,694.085 1222.37,704.994 1166.09,751.772 1084.28,825.863 1088.83,815.204 1064.71,834.814 1114.27,795.932 1163.69,758.682 1172.22,764.337 1241.03,708.669 1211.32,729.362 1319.94,658.667 1223.33,740.754 1116.33,817.935 1087.67,827.9 1054.61,850.829 990.533,903.903 1004.56,887.213 999.472,883.03 1036.52,844.87 1069.21,811.761 1024.99,862.254 1068.37,829.858 1096.94,794.762 1157.33,754.403 1164.48,758.05 1275.32,651.981 1264.81,657.827 1311.43,634.21 1384.42,594.861 1444.1,544.093 1335.23,641.238 1259.38,697.43 1201.67,754.904 1189.67,768.106 1104.9,835.331 1101.21,813.539 1102.3,810.987 1119.37,797.94 1188.69,734.385 1123.45,795.091 1039.03,877.179 1044.81,853.105 1084.62,811.733 1166.02,733.799 1161.81,746.374 1294.81,637.556 1313.02,636.632 1426.79,557.955 1326.23,658.727 1333.32,649.819 1222.33,725.763 1280.24,675.195 1207.62,740.118 1211.17,734.086 1287.03,666.516 1241.01,709.226 1107.53,813.061 1147.75,763.635 1123.4,789.293 1195.83,727.149 1125.94,797.374 1124.98,786.97 1139.1,777.277 1156.04,755.385 1135.15,774.731 1146.97,767.378 1166.64,754.068 1180.06,744.517 1169.44,757.135 1133.06,778.923 1191.78,732.619 1188.38,737.137 1224.42,700.148 1108.64,775.293 1209.46,701.735 1254.5,682.234 1289.88,658.641 1291.5,672.429 1339.09,660.375 1393.37,592.127 1370.12,617.213 1243.04,708.397 1229.05,730.822 1286.12,671.88 1325.34,634.91 1420.13,584.279 1308.4,677.373 1272.09,713.753 1202.51,759.794 1184.39,762.046 1179.6,757.236 1158.25,764.359 1181.11,732.119 1213.26,726.98 1204.11,736.455 1161.24,762.671 1100.85,819.762 1097.93,808.86 1087.24,814.451 1052.43,849.257 1068.81,827.277 1083.71,803.014 1035.1,857.649 1084.45,810.82 1049.28,836.023 1065.87,816.359 1094.23,808.501 1202.44,733.71 1161.39,768.556 1391.62,551.921 1469.88,517.196 1375.5,624.155 1426.32,574.783 1321.32,655.211 1353.7,616.454 1433.19,554.021 1448.76,554.363 1417.26,590.392 1389.77,605.373 1324.18,641.62 1238.1,719.444 1242.69,705.754 1205.07,727.975 1233.45,700.962 1166.93,761.794 1134.87,784.404 1201.96,723.009 1231.33,707.475 1120.1,802.317 1083.05,827.051 1079.91,839.515 1126,785.53 1124.48,794.537 1190.02,735.407 1212.45,721.647 1236.57,737.107 1187.65,751.922 1182.02,752.534 1182.77,754.539 1140.66,799.866 1110.91,832.359 1073.55,850.095 1113.66,793.052 1095.99,812.208 1095.01,802.133 1058.44,833.272 1025.54,866.062 972.275,907.955 922.702,951.101 964.126,900.636 1038.94,847.522 979.135,909.361 943.317,952.445 1000.3,888.664 1088.72,801.524 1092.85,793.345 1140.09,767.55 1127.6,797.012 1195.83,726.253 1228.4,699.154 1353.45,622.794 1327.84,651.887 1323.95,661.815 1326.67,645.89 1346.47,637.23 1294.51,688.556 1187.11,761.467 1226.83,710.224 1235.83,702.824 1215.99,718.864 1145.81,775.48 1182.54,748.14 1282.83,648.379 1343.24,622.023 1395.95,597.54 1416.94,589.296 1401.23,608.416 1386.5,612.165 1272.02,703.947 1290.55,670.971 1281.06,676.268 1259.22,701.128 1381.95,613.054 1394.3,605.068 1446.73,567.451 1357.26,638.26 1373.53,618.312 1423.36,561.619 1398.62,613.907 1361.09,646.671 1274.22,707.646 1156.57,794.272 1122.81,808.337 1064.54,853.513 1027.26,877.589 1028.64,867.311 1037.79,858.249 1011.19,878.613 1041.7,848.332 1013.8,876.557 984.148,905.928 942.01,940.377 922.556,949.681 1001.87,864.641 1023.14,851.428 1015.24,874.066 997.608,890.518 1022.82,870.484 973.299,905.525 991.354,892.511 990.066,902.596 1008.98,876.51 926.012,940.593 946.047,918.764 971.548,890.011 969.818,896.407 1078.87,795.308 1063.47,831.958 1087.88,813.522 1060.33,847.108 1115.97,792.264 962.308,925.066 953.758,929.648 933.27,954.503 863.551,1020.4 843.229,1032.25 886.495,979.849 871.502,995.368 871.391,1000.21 885.901,985.183 915.905,949.439 928.559,940.662 925.987,942.837 1055.31,815.623 1090.45,802.785 1142.29,756.933 1148.07,757.084 1058.83,850.93 1024.9,873.287 1001.89,887.599 951.793,934.533 1017.24,858.259 1103.8,777.407 1177.3,726.724 1214.85,710.35 1243.23,705.62 1353.72,616.334 1335.72,641.988 1240.51,725.537 1255.46,714.617 1213.51,738.171 1258.01,681.072 1185.66,738.352 1123.91,794.853 1152.89,771.29 1240.55,709.945 1244.74,689.521 1252.01,695.811 1218.87,711.415 1257.76,696.37 1316.6,621.842 1310.57,643.166 1291.11,650.404 1367.76,590.313 1322.55,644.898 1346.64,619.055 1153.8,763.361 1145.73,766.398 1111.75,794.989 1130.43,767.288 1120.54,776.91 1150.72,748.689 1171.2,731.51 1131.46,747.733 1287.48,627.48 1378.16,571.371 1451.65,532.861 1524.76,490.509 1535.49,515.733 1506.28,543.607 1504.32,542.426 1465.04,574.664 1464.65,572.942 1406.31,616.137 1397.18,615.493 1383.43,620.058 1337.77,649.247 1318.73,669.087 1327.39,654.876 1288.98,691.01 1284.36,679.446 1312.35,658.223 1257.67,696.39 1249.77,707.087 1210.21,733.728 1146.95,788.746 1202.78,717.778 1182.8,740.389 1165.25,759.874 1160.24,765.852 1077.14,823.336 1057.88,839.153 1066.36,832.736 1086.44,804.612 1122.09,777.261 1063.39,842.022 1033.09,868.532 973.778,914.531 902.436,983.076 923.342,948.282 964.658,903.324 970.928,903.96 986.565,890.768 1002.4,880.647 1003.54,877.111 1074.72,804.028 1032.99,853.351 1159.66,725.39 1133.58,774.775 1137.98,782.916 1171.08,744.576 1139.19,771.705 1097.13,805.164 1096.56,781.84 1116.46,772.384 1100.69,796.562 1176.6,752.328 1211.31,710.066 1307,646.905 1268.93,687.345 1227.59,722.562 1251.5,691.066 1263.65,678.404 1372.28,591.94 1490.48,499.656 1510.55,516.295 1459.77,571.937 1409.48,610.079 1437.61,575.024 1396.17,612.438 1389.62,622.315 1343.67,642.362 1257.73,708.124 1203.6,749.983 1229.99,706.471 1223.28,722.876 1181.88,763.684 1348.41,602.185 1331.29,638.06 1287.33,677.83 1305.87,660.446 1248.32,696.354 1160.97,775.859 1170.77,755.568 1244.26,690.441 1291.18,670.831 1277.54,693.603 1250.77,709.29 1195.31,749.8 1224.93,712.004 1302.46,655.48 1344.36,625.724 1459.67,547.77 1527.05,495.367 1518.34,503.012 1486.95,530.996 1388.28,606.5 1396.61,601.95 1337.09,644.012 1451.37,535.714 1377.47,607.89 1308.09,675.08 1289.69,670.564 1297.51,660.318 1313.27,653.027 1284.11,676.467 1301.82,665.181 1356.07,620.324 1324.2,651.616 1393.6,605.799 1372.55,626.449 1275.09,691.808 1210.76,745.872 1250.89,686.279 1299.63,659.111 1288.42,675.087 1303.12,658.067 1245.52,694.022 1179.14,741.558 1124.17,771.195 1092.74,809.921 956.698,917.929 926.998,944.838 963.161,914.067 1013.95,870.834 944.047,943.309 901.98,979.002 887.883,991.161 863.567,1015.32 928.219,934.945 892.107,980.207 937.062,932.245 902.622,969.676 968.809,896.808 990.522,876.609 1074.28,800.353 1069.92,818.179 1119.41,789.288 1134.07,780.822 1077.82,835.138 1052.47,849.317 1079.61,826.054 1111.09,802.819 1103.68,798.975 1128.9,756.439 1223.48,691.775 1280.56,653.263 1189.91,744.773 1188.82,741.662 1193.45,745.011 1119.66,792.937 1144.14,772.382 1112.33,803.098 1115.49,791.364 1223.01,697.445 1155.3,771.039 1136.01,778.106 1218.04,695.474 1203.77,710.331 1158.65,759.276 1176.37,750.502 1246.37,709.676 1372.49,614.326 1433.29,558.113 1514.74,493.104 1439.84,547.543 1494.54,537.716 1359.68,644.85 1386.77,613.364 1233.25,732.26 1259.26,696.284 1334.54,631.722 1514.66,486.656 1457.25,563.405 1484.8,536.62 1474.12,555.444 1450.06,580.5 1384.26,627.316 1409.01,599.503 1432.42,573.141 1438.28,575.636 1433.59,584.32 1369.57,639.305 1302.89,681.042 1309.75,659.059 1303.27,660.595 1319.07,656.216 1271.83,683.246 1240.55,703.76 1136.16,794.989 1154.9,761.45 1151.39,775.675 1107.57,813.685 1194.42,728.754 1246.8,686.325 1253.4,698.285 1252.13,706.058 1356.75,639.984 1365.8,627.717 1261.87,705.351 1228.68,732.611 1213.47,737.523 1190.43,749.754 1225.47,721.845 1236.47,709.335 1274.54,696.053 1241.43,717.121 1315.69,644.003 1284.12,679.162 1290.38,664.949 1316.69,658.533 1343.44,633.522 1605.86,445.336 1543.22,519.076 1474.73,576.997 1551.42,502.397 1561,528.934 1511.27,551.597 1533.08,524.027 1445.62,588.455 1339.83,669.158 1267.1,716.641 1258.53,707.754 1250.4,705.261 1264.61,683.778 1283.33,664.281 1285.15,672.836 1345.55,617.85 1334.85,637.261 1245.52,714.01 1224.06,731.059 1185.36,764.608 1104.89,822.058 1101.24,810.787 1089.61,820.11 1125.78,781.197 1094,808.985 1123.93,771.992 1143.04,783.681 1070.74,849.522 993.892,912.881 1041.61,850.136 1038.35,855.98 1094.49,800.444 1097.9,799.402 1063.59,821.8 1102.45,791.048 1215.28,698.531 1221.62,718.651 1099.92,818.402 1161.67,757.698 1119.31,794.415 1124.92,789.651 1249.75,698.936 1159.03,775.019 1113.69,809.044 1091.92,821.143 1199.43,724.061 1207.88,721.226 1259.61,678.729 1166.47,745.875 1180.64,734.723 1189.24,734.882 1319.38,635.164 1196.05,731.828 1161.06,745.62 1239.46,683.535 1246.45,706.301 1278.43,672.355 1338.18,618.395 1462.24,550.435 1447.09,574.21 1582.88,469.149 1424.54,610.311 1483.31,547.31 1379.2,628.636 1340.43,645.826 1188.36,767.394 1151.64,786.225 1154.41,771.999 1098.58,820.675 1057.19,851.361 1090.78,808.656 1096.45,810.526 1066.21,840.231 1114.35,789.407 1108.74,798.367 1014.88,883.066 1090.11,813.86 1033.31,859.239 1042.21,852.159 1130.53,794.44 1118.56,795.466 1113.09,795.159 1099.37,805.831 1020.46,874.367 1003.47,890.154 969.526,912.969 1035.58,857.653 988.513,904.357 1105.67,799.322 1140.93,767.419 1154.15,768.311 1167.18,765.897 1138.64,790.727 1123.79,797.745 1162.64,769.784 1190.87,710.837 1272.61,675.001 1272.5,684.505 1285.12,683.723 1317.63,648.906 1298.61,687.532 1234.67,730.628 1219.93,730.387 1120.68,804.14 1132.07,790.667 1118.18,791.831 1066.45,843.446 1119.48,783.901 1163.41,752.545 1138.49,780.883 1207.55,707.633 1265.41,659.004 1241.87,700.259 1353.65,606.319 1328.39,645.099 1400.41,585.794 1454.27,539.7 1483.1,546.56 1401.36,623.61 1348,644.223 1364.86,623.445 1326.18,648.505 1252.36,711.858 1230.17,717.405 1236.26,706.314 1177.38,761.869 1286.16,682.177 1338.79,637.791 1408.92,587.394 1425.87,590.671 1523.86,516.559 1369.14,639.042 1342.62,660.475 1305.96,676.962 1173.7,779.306 1177.77,755.641 1110.1,815.712 1115.99,794.647 1193.65,722.689 1209.18,721.497 1297.46,653.426 1223.1,720.936 1304.89,650.934 1288.75,657.876 1317.15,632.889 1193.43,726.242 1142.38,752.276 1074.65,809.918 1130.94,771.567 1114.52,793.428 1200,733.497 1165.85,759.928 1116.34,800.771 1077.84,828.445 1055.99,850.655 1179.95,749.059 1177.96,749.679 1255.76,667.913 1241.08,692.911 1247.02,698.087 1238.34,706.41 1336.66,629.704 1298.72,669.008 1299.09,675.007 1317.47,658.363 1379.38,593.226 1465.89,538.763 1547.05,491.445 1670.15,413.705 1638.27,471.862 1686.19,430.448 1603.74,490.528 1473.95,594.372 1421.93,613.759 1378.51,635.708 1391.64,609.062 1371.01,623.337 1339.08,646.723 1349.36,631.522 1288.36,684.281 1193.83,757.339 1187.12,753.409 1215.78,720.485 1267.38,678.34 1321.6,643.428 1402.65,577.207 1447.94,570.578 1608.97,453.26 1626.03,469.95 1634.77,463.425 1566.15,509.86 1510.1,546.244 1558.6,497.414 1440.06,590.73 1376.25,629.251 1388.87,609.287 1379.18,614.793 1340.68,650.595 1236.93,735.386 1137.77,805.999 1150.85,779.493 1156.46,762.218 1118.26,799.889 1117.44,796.747 1062.88,846.807 1067.72,830.446 1061.43,826.34 1051.87,842.783 989.156,900.537 991.854,889.728 978.078,894.792 945.441,925.248 985.91,892.238 948.207,926.433 935.424,932.51 928.854,938.141 992.232,859.361 1044.37,820.893 1017.26,861.325 969.46,912.251 905.699,963.74 953.592,913.795 955.924,918.313 949.895,926.259 912.993,970.302 928.663,955.722 917.257,963.188 918.711,955.46 891.036,980.029 849.92,1024.08 897.069,975.662 909.587,965.309 969.55,905.954 970.429,910.404 960.076,924.489 1037.75,849.624 1055.57,836.037 1035.94,843.284 1032.05,842.701 996.488,880.195 1032.64,864.454 1065.84,821.405 1035.97,850.743 1052.57,832.574 1137.9,773.375 1093.23,818.498 1109.36,802.457 1023.41,869.589 1080.06,815.724 1142.89,770.172 1213.39,706.747 1239.51,689.395 1279.2,669.464 1289.64,669.577 1335.57,641.043 1298.4,667.795 1178.2,755.733 1115.12,800.761 1224.02,694.307 1315.81,658.275 1236.06,733.604 1169.78,773.091 1143.6,783.686 1154.81,767.917 1278.15,648.121 1350.91,600.112 1370.27,599.446 1375.62,611.715 1379.79,621.376 1552.76,485.136 1592.66,473.42 1569.39,493.396 1507.48,546.229 1411.6,610.7 1359.31,650.476 1326.27,665.14 1288.44,693.048 1257.19,706.801 1264.6,693.043 1258.14,685.982 1252.25,697.243 1212.73,729.064 1290.17,654.064 1232.53,709.83 1136.14,794.386 1078.76,842.413 1010.15,897.98 969.323,922.429 1013.44,869.232 1042,842.955 1040.1,849.522 987.213,901.189 1035.59,850.971 1079.75,816.384 1054.59,846.102 1008.59,889.32 970.444,923.025 986.815,894.328 991.398,885.645 1029.09,849.475 1082.14,816.052 1137.57,778.366 1052.51,850.059 1011.1,884.013 971.476,916.381 976.655,918.2 959.066,933.108 954.354,934.882 955.092,942.394 1077.58,823.069 1061.63,826.79 1162.89,752.597 1219.86,696.96 1244.18,694.614 1148.72,775.341 1154,776.285 1161.6,756.731 1205.1,720.521 1272.25,654.796 1268.53,686.299 1246.98,714.644 1111.64,820.183 1094.36,826.824 1105.22,799.702 1040.78,857.515 1033.05,856.33 1089.29,810.537 1067.75,833.849 1018.05,877.262 1072.83,816.631 973.906,907.901 959.364,924.824 998.859,880.03 1100.16,788.197 1135.17,758.208 989.178,894.694 957.423,925.104 865.129,1017.41 855.058,1014.1 855.978,1014.52 896.899,968.366 951.296,911.354 930.91,946.516 905.169,967.362 893.965,972.471 890.506,978.538 850.945,1023.84 837.977,1030.88 837.753,1029.33 851.27,1013.43 887.263,972.554 847.834,1020.85 844.445,1022.24 780.154,1093.08 729.323,1151.9 726.283,1148 712.279,1161.33 737.731,1126.02 775.644,1080.96 775.119,1088.69 792.516,1069.78 822.072,1037.92 815.025,1050.55 820.569,1046.1 850.345,1015.91 881.778,985.754 885.521,985.227 952.818,915.101 980.776,900.197 925.347,963.275 1005.32,869.603 1015.79,866.65 1069.02,818.028 1092.47,800.795 1099.99,800.28 1180.14,732.576 1150.64,763.988 1210.55,716.115 1243.32,689.301 1217.21,714.074 1284.88,664.756 1227.53,728.097 1270.89,697.916 1205.02,729.39 1128.11,798.277 1208.9,725.592 1190.27,755.414 1229.18,751.058 1157.94,792.514 1137.16,800.349 1117.51,810.984 1095,818.563 1149.32,762.862 1252.67,676.543 1331.09,625.935 1275.15,692.192 1233.6,721.819 1266.08,676.806 1277.49,682.502 1171,763.71 1131.45,785.326 1172.81,755.453 1265.14,662.903 1230.69,693.487 1294.38,650.018 1324.33,653.704 1303.77,665.285 1341.89,635.779 1308.69,651.446 1341.49,624.18 1286.9,671.514 1305.18,654.218 1343.79,645.841 1357.96,622.296 1317.95,677.053 1305.41,673.437 1310.43,665.379 1257.44,705.428 1280.42,664.181 1198.11,727.183 1356.44,601.058 1413.98,570.153 1302.02,668.089 1478.11,526.891 1299.7,651.113 1263.72,699.305 1238.68,691.978 1190.11,734.284 1121.22,806.537 1109.55,798.5 1089.14,815.408 1004.29,902.753 1034.76,861 1002.02,894.822 1082.84,809.214 1114.04,787.414 1121.39,787.553 1082.31,825.367 1106.43,810.537 1043.14,868.647 1036.8,864.653 1000.65,902.309 938.872,951.133 925.753,952.159 950.634,931.239 968.723,904.505 954.802,907.788 957.289,915.477 950.446,924.274 1002.12,876.517 1005.94,875.8 1033.04,853.36 1102.2,801.761 1186.62,721.863 1096.21,808.78 1123.9,784.152 1218.74,711.344 1184.09,742.306 1289.2,645.97 1390.74,579.643 1360.63,623.711 1368.72,628.61 1409.21,589.405 1385.76,619.992 1250.18,728.402 1318.07,652.782 1292.57,666.919 1243.92,696.678 1169.86,762.697 1124.24,796.5 1168.46,757.419 1208.86,718.978 1276.49,663.819 1279.66,678.426 1270.96,690.776 1228.61,714.072 1278.24,666.778 1331.11,632.728 1293.87,674.021 1243.11,713.083 1260.11,690.422 1143.27,794.736 1147.63,773.351 1247.48,673.574 1404.42,555.035 1414.56,571.885 1484.93,523.319 1549.99,487.856 1620.56,451.336 1631.65,467.386 1625.56,478.567 1514.45,557.158 1493.09,558.772 1447.98,590.393 1465.51,559.623 1486.92,546.437 1451.6,577.439 1312.43,689.846 1325.49,659.821 1302.59,673.735 1213.66,743.704 1140.34,797.593 1247.7,681.688 1206.33,731.501 1255.61,685.846 1264.77,687.196 1223.72,724.687 1180.11,754.27 1215.85,719.653 1185.02,748.161 1097.26,817.603 1121.2,789.386 1097.32,801.327 1116.26,790.663 1135.66,771.812 1101.52,805.771 1104.84,800.469 1151.27,763.558 1073.1,845.956 1069.56,836.572 1100.04,802.526 1106.2,800.66 1090.91,814.729 1141,759.528 1107.2,797.266 1157.28,751.777 1141.5,770.392 1130.69,761.206 1000.38,882.414 979.766,899.771 1070.69,821.456 1077.91,834.212 1063.31,843.597 1081.1,824.039 1084.72,813.104 1142,778.098 1162.52,771.013 1121.02,812.726 1063.67,845.009 1046.99,856.578 1125.07,785.091 1107.38,804.436 1122.22,787.763 1042.68,847.193 1106.12,792.196 1126.33,778.421 1115.9,791.615 1128.24,779.803 1153.43,752.56 1174.27,729.524 1210.73,699.278 1164.31,745.664 1109.63,791.144 986.781,881.464 1008.99,861.235 1032.48,842.574 993.799,882.492 1031.05,857.591 1161.51,740.909 1198.41,730.219 1257.41,696.473 1262.03,702.898 1247.6,705.929 1197.03,740.138 1136.72,786.351 1119.02,793.027 1082.99,823.022 1209.84,732.378 1191.32,749.732 1210.87,729.576 1291.42,652.503 1324.34,632.474 1374.72,595.165 1386.14,598.916 1320.7,669.193 1183.64,773.481 1155.58,787.761 1206.26,720.061 1136.94,792.856 1140.7,770.796 1107.75,807.375 1107.72,800.317 1131.24,772.238 1130.86,779.493 1083.47,827.987 1038.16,867.48 1037.71,861.165 967.683,931.916 959.845,929.619 932.454,950.762 957.343,919.894 884.46,993.886 903.632,965.993 948.704,913.216 905.022,965.295 846.811,1029.78 851.651,1021.71 841.55,1030.53 827.782,1040.98 834.449,1027.95 842.306,1016.04 882.488,977.05 873.434,991.827 906.191,956.237 882.408,979.709 942.692,915.692 933.647,932.337 962.816,906.616 990.195,883.299 974.498,908.909 954.839,932.122 1002.6,882.843 1076.89,804.04 1045.66,841.27 1032.2,867.96 985.39,896.784 946.541,923.217 901.053,965.178 904.953,965.305 996.994,866.081 966.426,902.488 1009.24,860.476 1135.06,742.966 1065.01,833.666 1093.03,797.328 1198.7,716.318 1140.5,778.73 1150.35,773.875 1168.05,765.073 1254.42,690.531 1284.17,669.115 1220.05,731.404 1145.64,774.398 1171.37,745.739 1188.79,734.899 1208.58,720.315 1181.52,743.616 1172.36,750.24 1136.82,791.967 1057.45,861.645 1021.49,885.844 1038.11,859.959 1017.25,877.302 988.811,900.636 990.197,892.692 942.233,939.504 881.825,999.63 818.35,1062.89 851.789,1011.83 851.12,1017.25 880.834,983.524 906.053,958.307 872.376,996.051 818.941,1061.88 826.226,1043.33 837.719,1028.41 909.927,942.037 869.98,995.363 861.69,1005.66 838.267,1033.15 830.12,1042.24 843.469,1021.1 844.095,1018.78 910.304,947.265 923.011,944.165 944.865,925.38 1033.98,832.103 993.531,885.447 986.037,894.411 890.247,995.278 912.34,953.866 923.99,942.67 868.643,994.753 877.726,982.876 878.422,989.208 976.758,888.768 952.709,916.976 909.078,958.185 970.044,895.432 1023.56,857.381 1051.59,843.427 1072.28,815.489 1202.49,711.53 1258.27,673 1239.44,699.469 1317.44,641.376 1330.11,651.624 1300.68,665.769 1403.62,578.224 1303.28,671.156 1352.24,623.737 1161.92,767.527 1069.57,848.28 1043.38,859.069 1034.97,854.501 1048.25,834.833 1104.74,785.507 1165.37,739.589 1264.63,671.494 1280.46,661.18 1233.33,719.664 1320.88,634.145 1327.68,646.59 1338.76,648.111 1280.89,682.445 1298.58,671.832 1439.79,554.747 1432.09,574.596 1463.62,558.894 1537.52,512.234 1652.05,424.928 1684.04,422.597 1605.18,492.206 1596.91,497.544 1617.83,480.858 1522.7,548.888 1534.64,526.034 1465.67,579.734 1453.08,578.07 1361.26,644.26 1291.47,695.567 1226.5,742.196 1224.79,726.608 1215.83,731.125 1173.3,763.895 1208.87,719.077 1307.03,626.672 1405.83,568.207 1493.63,511.468 1527.38,511.11 1540.3,512.731 1600.17,470.37 1546.65,521.825 1517.44,532.092 1499.6,537.753 1476.37,566.045 1469.59,577.044 1394.17,625.738 1307.34,695.489 1208.97,765.86 1149.79,799.252 1161.25,768.781 1083.81,843.7 1114.52,799.268 1115.8,798.501 1123.09,785.751 1151.06,758.289 1128.23,785.016 1164.13,746.952 1252.95,668.868 1277.49,684.638 1324.73,643.989 1309.57,652.196 1423.23,558.887 1421.61,583.974 1407.61,601.82 1377.23,628.457 1297.39,677.813 1328.63,635.829 1357.67,620.246 1283.6,685.192 1282.93,672.71 1277.08,677.615 1368.69,601.952 1453.58,550.929 1395.73,612.088 1349.39,643.187 1376.92,624.983 1262.2,708.496 1280.19,681.586 1266.75,694.629 1288.04,667.475 1357.83,605.353 1213.79,740.87 1173.8,772.67 1125.3,801.095 1089.69,826.661 1005.96,892.658 972.388,924.592 977.414,900.548 978.391,896.865 921.225,959.382 955.622,915.61 898.422,967.098 872.344,999.172 914.838,950.308 913.576,958.825 924.305,944.018 909.016,963.635 987.855,883.769 1053.59,831.672 1145.42,752.42 1192.86,720.422 1286.97,645.874 1304.41,656.559 1361.28,610.686 1415.74,579.024 1419.75,583.613 1416.68,587.568 1340.38,649.712 1394.59,605.718 1349.56,641.52 1207.46,753.186 1187.21,750.339 1158.94,769.321 1197.56,734.111 1183.15,740.768 1140.3,782.788 1005.15,896.082 1008.22,882.932 1074.42,814.272 1081.7,811.141 1036.87,855.712 1026.1,866.965 1025.52,862.995 936.69,938.42 1003.83,877.709 966.701,921.441 948.295,935.865 971.389,907.806 949.365,919.065 981.955,877.353 1030.73,835.325 947.995,933.732 911.35,968.231 899.489,966.016 923.754,939.316 898.008,965.076 931.545,941.823 925.997,952.616 861.492,1016.35 936.155,928.061 921.295,951.609 936.952,934.872 965.066,909.245 996.301,895.373 1037.45,860.347 1005.7,882.968 1031.33,869.68 1041.32,865.233 1155.6,757.062 1066.03,835.711 1097.95,805.034 1081.57,835.454 1119.48,794.869 1051.81,854.961 1075.85,831.634 966.296,920.758 964.323,921.298 1003.82,880.088 999.32,881.686 1002.29,885.673 1029.37,858.959 1054.04,828.175 1121.29,770.851 1213.66,704.282 1231.16,711.962 1216.19,719.866 1155.36,765.242 1107.79,800.332 1138.7,777.975 1071.61,827.354 1094.34,800.052 1143.79,769.175 1109.73,798.317 1155.62,751.565 1173.75,748.738 1199.38,722.712 1150.64,780.367 1252.68,684.63 1245.01,706.411 1164.24,759.447 1114.2,788.562 1237.61,678.74 1364.93,600.805 1396.52,587.017 1507.95,522.478 1500.86,538.271 1469.88,561.103 1479.51,553.17 1424.52,599.773 1451.05,566.002 1424.85,592.063 1461.99,577.958 1474.29,557.977 1452.66,580.283 1310.91,690.169 1356.31,634.645 1406.85,582.779 1464.88,533.257 1417.21,579.828 1401.18,603.547 1360.09,644.6 1269.91,716.68 1277.91,692.43 1321.55,649.106 1326.44,643.048 1331.96,639.454 1248.22,706.397 1188.6,736.148 1181.51,747.18 1050.74,858.273 993.853,910.848 969.473,924.678 951.763,935.31 959.846,917.002 993.22,873.31 1015.31,865.456 1003.9,885.887 956.936,931.53 947.379,939.904 966.653,905.809 1024.56,847.974 994.397,879.002 930.915,955.46 835.278,1050.09 797.432,1081.31 779.389,1094.9 782.813,1087.76 789.416,1074.95 793.676,1068.23 814.555,1055.07 807.071,1055.02 768.593,1101.74 794.493,1062.73 805.626,1059.9 858.314,995.119 780.221,1084.44 782.596,1083.7 787.927,1076.74 766.165,1106.4 758.61,1109.6 759.604,1105.9 706.392,1170.4 697.059,1178.01 712.4,1153.69 725.197,1137.89 727.191,1141.06 761.1,1098.63 777.406,1081.98 795.435,1060.4 833.848,1022.35 834.591,1028.14 881.837,975.283 926.513,936.84 897.089,975.416 948.578,917.361 900.461,975.137 914.703,959.474 906.305,971.439 901.147,975.074 945.745,928.483 890.482,983.518 947.973,912.133 923.432,945.897 964.299,901.068 943.44,922.144 1005.81,861.012 1012.27,862.831 1038.4,842.427 1170.17,737.671 1188.79,730.958 1145.3,773.887 1137.96,786.61 1095.45,821.305 1219.14,680.715 1171.79,743.389 1160.08,760.638 1144,783.621 1145.17,776.504 1155.33,772.075 1184.6,744.663 1229.82,698.218 1113.27,784.591 1104.27,799.201 1095.1,815.153 1183.36,732.566 1162.87,756.051 1177.06,764.563 1141.6,788.263 1054.71,850.918 997.104,901.595 976.509,926.375 969.185,929.493 1053.61,834.808 1132.83,766.653 1057.17,848.905 1092.28,822.178 1162,773.255 1123.12,783.505 1030,862.149 1055.58,850.787 983.435,913.153 1050.39,840.515 1060.89,828.715 1058.43,840.904 1083.05,833.915 1158.94,756.126 1120.73,768.128 971.515,892.509 908.782,946.343 950.228,927.01 943.977,930.838 990.969,890.636 962.611,911.177 949.933,919.14 967.674,911.527 1103.52,782.55 1177.2,736.482 1193,724.78 1221.3,716.867 1264.84,674.178 1247.7,697.411 1181.73,746.651 1212.18,732.401 1187.09,735.603 1213.64,729.622 1166.31,771.853 1115.21,814.105 1156.25,768.808 1158.23,757.657 1171.86,754.879 1231.48,736.377 1257.2,712.722 1250.32,709.831 1178.48,765.673 1195.82,743.677 1352.24,607.83 1492.76,522.908 1466.65,558.434 1499.09,527.401 1511.39,526.794 1531.89,504.776 1565.48,491.638 1668,427.794 1589.89,480.004 1539.09,526.908 1485.81,574.608 1448.03,588.877 1490.55,540.491 1482.65,545.686 1528.71,525.66 1506.3,552.589 1451.9,577.557 1521.51,518.638 1623.19,445.905 1606.96,478.115 1561,518.606 1496.94,560.393 1409.92,620.278 1407.78,607.495 1442.61,575.335 1499.39,520.169 1477.41,547.589 1417.21,594.053 1422,588.456 1416.09,591.818 1388.18,624.891 1360.48,639.023 1429.47,572.079 1393.09,602.516 1334.65,646.229 1193.3,764.111 1150.99,790.422 1154.25,772.121 1171.09,746.767 1081.3,834.915 1088.46,819.801 1125.45,779.792 1117.14,778.145 1024.03,857.016 1098.94,791.588 1164.86,735.595 1146.63,763.407 1102.42,799.031 1093.73,810.165 1114.04,797.546 1154.63,757.083 1166.15,738.847 1256.35,682.955 1146.92,786.865 1188.44,742.086 1063.55,848.534 1055.07,847.483 1034.75,849.633 1059.69,827.709 1186.86,720.278 1332.15,608.115 1326.11,641.503 1344.21,632.496 1294.87,672.977 1375.9,600.452 1275.81,695.717 1210.5,736.681 1186.95,751.772 1116.15,801.453 1037.73,863.095 1079.47,819.829 1118.88,791.31 1239.94,677.574 1251.86,690.149 1265.96,685.693 1240.47,715.47 1212.61,734.874 1170.96,765.184 1265.12,670.548 1203.85,741.084 1187.08,745.569 1178.9,749.863 1193.08,735.782 1150.12,773.884 1141.06,785.228 1180.93,753.492 1243.98,698.306 1254.13,689.068 1277.75,677.932 1235.69,715.973 1267.48,673.999 1246.13,685.021 1395.04,597.358 1406.21,587.224 1376.32,616.484 1470.46,554.977 1432.85,591.329 1382.34,635.748 1291.34,695.661 1266.97,710.155 1347.06,623.813 1347.09,624.518 1253.91,693.139 1253.64,700.996 1272.44,682.814 1236.15,696.894 1271.1,664.578 1219.87,716.301 1110.43,796.575 1226.9,686.252 1221.18,703.178 1262.95,678.565 1217,743.229 1092.76,835.963 1069.68,844.132 1038.18,868.465 1008.92,889.806 928.66,971.468 958.971,924.871 993.906,883.828 1060.15,819.927 995.428,904.518 914.677,976.3 935.533,943.275 899.486,980.212 862.887,1016.13 844.934,1032.93 827.01,1047.77 797.253,1079.99 827.734,1033.46 857.775,1004.88 834.5,1036.99 853.257,1013.4 906.669,954.824 944.681,916.49 969.618,903.127 945.53,933.376 969.517,908.638 963.263,912.252 996.055,876.509 1080.98,814.074 1096.59,801.75 1184.38,721.703 1228.58,701.351 1239.07,709.79 1340.18,611.547 1419.46,577.957 1544.55,490.984 1506.86,536.471 1482.07,554.81 1483.54,565.804 1592.05,480.614 1569,521.849 1406.99,640.888 1293.44,718.802 1218.92,766.691 1210.19,749.235 1154.84,790.98 1156.94,768.903 1171.55,747.491 1174.87,746.918 1164.14,759.219 1148.77,766.009 1211.7,709.301 1182.63,741.86 1259.67,681.766 1255.82,697.21 1368.64,594.525 1309.48,660.173 1255.48,701.174 1224.6,715.836 1178.7,739.475 1189.76,731.246 1162.15,770.081 1086.31,823.534 998.362,903.839 974.037,917.633 973.758,910.928 1039.5,834.111 1052.68,832.757 1070.3,823.442 1015.44,883.032 979.015,911.891 945.063,940.253 967.179,903.627 858.713,1007.62 939.765,916.711 991.137,875.379 1036.61,839.002 1131.96,761.26 1104.35,796.193 1125.76,779.697 1171.56,737.29 1205.48,723.272 1268.21,670.097 1243.33,678.69 1269.67,666.724 1238.78,702.136 1237.58,704.586 1136.66,781.014 1159.13,751.923 1196.66,723.343 1195.48,734.302 1139.87,776.935 1153.79,775.577 1126.73,789.431 1155.65,757.659 1217.64,710.509 1275.28,662.587 1246.18,697.465 1253.46,710.345 1208.26,743.799 1176.24,767.248 1132.58,795.248 1140.17,771.09 1109.83,798.724 986.923,901.593 1021.85,864.061 1033.17,853.691 1095.95,805.357 1137.92,771.871 1052.13,856.81 1023.18,881.616 1064.72,829.375 1088.94,815.883 1045.56,844.912 1076.7,817.975 1078.25,826.104 1079.16,834.208 1060.34,835.918 1230.44,684.754 1250.26,679.75 1195.38,729.523 1130.12,781.728 1251.47,682.613 1162.31,766.429 1255.27,704.041 1223.35,727.76 1170.05,775.061 1091.36,839.849 1114.28,802.468 1053.38,857.534 1039.58,859.722 999.374,889.843 1021.9,869.785 1031.52,857.131 1035.74,846.397 1038.61,846.992 1031.91,850.392 1086.12,799.315 1127.57,773.689 1130.16,779.112 1140.77,771.623 1119.11,805.11 1001.52,899.601 1040.39,841.019 1084.38,798.965 1108.21,789.233 1076.86,825.344 1074.3,824.327 1142.35,762.878 1157.97,767.387 1144.88,772.138 1202.78,718.313 1194.35,727.413 1197.35,739.59 1242.34,696.403 1301.75,651.759 1329.49,634.118 1292.83,669.122 1222.08,729.697 1197.21,740.657 1291.87,671.017 1272,680.664 1275.47,686.775 1177.62,770.487 1079.18,842.406 1053.73,853.742 1023.09,875.898 1076.66,822.18 1096.74,810.229 1134.63,778.579 1139,762.719 1206.33,718.702 1296.22,648.243 1229.79,711.638 1264.19,685.158 1123.92,792.241 1101.76,815.668 1082.71,836.69 1041.52,864.141 1000.35,896.291 975.011,911.642 950.671,930.247 951.602,933.235 928.406,948.248 1020.91,865.126 1049.44,839.52 1074.58,825.755 1188.69,731.148 1181.65,744.418 1179.29,739.043 1063.84,854.563 1125.36,812.253 1042.32,869.328 1064.12,830.036 1107.74,789.53 1234.63,692.298 1248.02,690.156 1218.31,715.366 1246.77,689.751 1301.04,649.405 1258.12,695.344 1185.04,757.92 1222.09,715.947 1246.87,692.421 1191.51,755.638 1090.09,832.958 1040.6,871.682 993.237,903.941 960.567,930.418 969.834,914.233 1031.92,853.09 1018.15,869.299 1034.76,853.429 1095.23,795.455 1273.23,643.335 1316.19,632.459 1252.4,702.301 1204,748.759 1231.09,720.038 1216.9,725.438 1188.93,744.013 1191.25,734.131 1305.31,635.137 1368.01,597.285 1354.3,628.271 1249.89,708.618 1254.69,699.937 1239.23,713.725 1188.81,750.625 1223.21,715.379 1199.05,745.539 1156.59,780.087 1095.58,814.129 1145.2,757.483 1112.3,794.152 989.848,913.354 985.332,899.916 978.618,902.083 915.562,969.363 914.757,960.222 876.795,998.773 844.85,1030.66 832.988,1035.57 808.097,1062.44 783.004,1084.27 832.182,1025.84 878.8,985.48 857.395,1010.61 832.108,1036.24 924.788,922.871 955.021,902.59 933.59,938.264 1015.59,857.214 1034.9,851.181 1025.22,860.636 1023.57,863.944 928.12,954.791 932.69,939.602 1051.4,825.249 1027.15,865.521 1054.2,835.932 1151.88,747.636 1106.37,798.998 1173.33,740.827 1211.09,710.94 1119.33,793.129 1073.6,826.101 1027.43,865.143 1071.43,822.041 1125.63,788.59 1206,704.202 1269.77,675.121 1286.64,669.382 1302.07,653.992 1291.27,676.115 1213.86,727.586 1207.24,740.644 1220.09,717.002 1213.01,727.129 1158.3,769.417 1173.32,749.647 1135.55,792.576 1121.99,796.438 1114.06,803.135 1132.06,780.608 1115.32,798.249 1158.55,754.028 1219.56,700.189 1246.66,677.995 1348.11,596.1 1418.58,545.579 1407,575.879 1426.29,571.446 1366.4,629.054 1350.47,639.969 1381.09,604.513 1350.37,635.072 1283.73,704.374 1226.69,726.736 1183.05,761.337 1147.79,786.667 1107.81,814.062 1080.14,828.493 1095.81,803.415 1162.48,746.634 1087.58,829.062 1131.08,772.947 1090.29,819.759 1008.14,897.467 1025.59,867.145 1037.85,853.685 1027.79,863.069 1112.34,790.029 1054.29,853.454 956.127,937.57 947.565,939.032 900.248,982.952 890.026,989.711 870.449,1008.32 875.406,991.564 897.16,963.416 909.206,954.83 935.211,933.303 911.077,956.281 960.734,905.785 974.52,883.426 1019.44,862.072 998.657,890.834 1019.23,872.786 1005.21,876.503 1066.74,819.305 1132.15,776.342 1166.37,740.458 1158.58,764.885 1180.79,735.432 1158.88,754.451 1193.21,731.217 1315.04,627.279 1314.59,635.244 1342.35,642.755 1274.98,692.981 1207.54,743.423 1168.6,771.72 1257.62,708.564 1247.33,720.844 1283.01,680.904 1313.68,666.683 1338.68,653.364 1311.85,656.142 1319.63,643.903 1397.85,572.035 1544.61,485.618 1657.86,417.826 1767.87,355.68 1638.08,474.797 1642.31,469.852 1580.59,510.291 1527.34,544.318 1493.72,557.058 1397.41,632.677 1352.84,654.322 1287.59,697.402 1301.18,672.347 1307.38,663.334 1264.29,695.83 1325.78,631.115 1304.06,661.427 1321.59,641.426 1323.58,640.779 1256.69,708.051 "/>
<path clip-path="url(#clip340)" d="M186.863 198.898 L550.897 198.898 L550.897 95.2176 L186.863 95.2176  Z" fill="#ffffff" fill-rule="evenodd" fill-opacity="1"/>
<polyline clip-path="url(#clip340)" style="stroke:#000000; stroke-linecap:round; stroke-linejoin:round; stroke-width:4; stroke-opacity:1; fill:none" points="186.863,198.898 550.897,198.898 550.897,95.2176 186.863,95.2176 186.863,198.898 "/>
<polyline clip-path="url(#clip340)" style="stroke:#009af9; stroke-linecap:round; stroke-linejoin:round; stroke-width:4; stroke-opacity:1; fill:none" points="211.758,147.058 361.13,147.058 "/>
<path clip-path="url(#clip340)" d="M396.651 128.366 Q393.549 133.69 392.044 138.898 Q390.54 144.106 390.54 149.453 Q390.54 154.801 392.044 160.055 Q393.572 165.287 396.651 170.588 L392.947 170.588 Q389.475 165.148 387.739 159.893 Q386.026 154.639 386.026 149.453 Q386.026 144.291 387.739 139.06 Q389.452 133.828 392.947 128.366 L396.651 128.366 Z" fill="#000000" fill-rule="nonzero" fill-opacity="1" /><path clip-path="url(#clip340)" d="M403.063 138.412 L423.294 138.412 L423.294 142.301 L407.276 160.935 L423.294 160.935 L423.294 164.338 L402.484 164.338 L402.484 160.449 L418.502 141.815 L403.063 141.815 L403.063 138.412 Z" fill="#000000" fill-rule="nonzero" fill-opacity="1" /><path clip-path="url(#clip340)" d="M430.887 158.458 L435.771 158.458 L435.771 162.439 L431.975 169.847 L428.988 169.847 L430.887 162.439 L430.887 158.458 Z" fill="#000000" fill-rule="nonzero" fill-opacity="1" /><path clip-path="url(#clip340)" d="M455.655 166.745 Q453.849 171.375 452.136 172.787 Q450.423 174.199 447.553 174.199 L444.15 174.199 L444.15 170.634 L446.65 170.634 Q448.41 170.634 449.382 169.8 Q450.354 168.967 451.535 165.865 L452.298 163.921 L441.812 138.412 L446.326 138.412 L454.428 158.689 L462.53 138.412 L467.044 138.412 L455.655 166.745 Z" fill="#000000" fill-rule="nonzero" fill-opacity="1" /><path clip-path="url(#clip340)" d="M474.011 158.458 L478.896 158.458 L478.896 162.439 L475.099 169.847 L472.113 169.847 L474.011 162.439 L474.011 158.458 Z" fill="#000000" fill-rule="nonzero" fill-opacity="1" /><path clip-path="url(#clip340)" d="M509.544 138.412 L500.169 151.027 L510.03 164.338 L505.007 164.338 L497.46 154.152 L489.914 164.338 L484.891 164.338 L494.96 150.773 L485.747 138.412 L490.77 138.412 L497.645 147.648 L504.52 138.412 L509.544 138.412 Z" fill="#000000" fill-rule="nonzero" fill-opacity="1" /><path clip-path="url(#clip340)" d="M515.377 128.366 L519.081 128.366 Q522.553 133.828 524.266 139.06 Q526.002 144.291 526.002 149.453 Q526.002 154.639 524.266 159.893 Q522.553 165.148 519.081 170.588 L515.377 170.588 Q518.456 165.287 519.96 160.055 Q521.488 154.801 521.488 149.453 Q521.488 144.106 519.96 138.898 Q518.456 133.69 515.377 128.366 Z" fill="#000000" fill-rule="nonzero" fill-opacity="1" /></svg>
