<?xml version="1.0" encoding="utf-8"?>
<svg xmlns="http://www.w3.org/2000/svg" xmlns:xlink="http://www.w3.org/1999/xlink" width="600" height="400" viewBox="0 0 2400 1600">
<defs>
  <clipPath id="clip080">
    <rect x="0" y="0" width="2400" height="1600"/>
  </clipPath>
</defs>
<path clip-path="url(#clip080)" d="M0 1600 L2400 1600 L2400 0 L0 0  Z" fill="#ffffff" fill-rule="evenodd" fill-opacity="1"/>
<defs>
  <clipPath id="clip081">
    <rect x="480" y="0" width="1681" height="1600"/>
  </clipPath>
</defs>
<path clip-path="url(#clip080)" d="M193.936 1423.18 L2352.76 1423.18 L2352.76 47.2441 L193.936 47.2441  Z" fill="#ffffff" fill-rule="evenodd" fill-opacity="1"/>
<defs>
  <clipPath id="clip082">
    <rect x="193" y="47" width="2160" height="1377"/>
  </clipPath>
</defs>
<polyline clip-path="url(#clip082)" style="stroke:#000000; stroke-linecap:round; stroke-linejoin:round; stroke-width:2; stroke-opacity:0.1; fill:none" points="193.936,1423.18 193.936,47.2441 "/>
<polyline clip-path="url(#clip082)" style="stroke:#000000; stroke-linecap:round; stroke-linejoin:round; stroke-width:2; stroke-opacity:0.1; fill:none" points="625.7,1423.18 625.7,47.2441 "/>
<polyline clip-path="url(#clip082)" style="stroke:#000000; stroke-linecap:round; stroke-linejoin:round; stroke-width:2; stroke-opacity:0.1; fill:none" points="1057.46,1423.18 1057.46,47.2441 "/>
<polyline clip-path="url(#clip082)" style="stroke:#000000; stroke-linecap:round; stroke-linejoin:round; stroke-width:2; stroke-opacity:0.1; fill:none" points="1489.23,1423.18 1489.23,47.2441 "/>
<polyline clip-path="url(#clip082)" style="stroke:#000000; stroke-linecap:round; stroke-linejoin:round; stroke-width:2; stroke-opacity:0.1; fill:none" points="1920.99,1423.18 1920.99,47.2441 "/>
<polyline clip-path="url(#clip082)" style="stroke:#000000; stroke-linecap:round; stroke-linejoin:round; stroke-width:2; stroke-opacity:0.1; fill:none" points="2352.76,1423.18 2352.76,47.2441 "/>
<polyline clip-path="url(#clip082)" style="stroke:#000000; stroke-linecap:round; stroke-linejoin:round; stroke-width:2; stroke-opacity:0.1; fill:none" points="193.936,1387.97 2352.76,1387.97 "/>
<polyline clip-path="url(#clip082)" style="stroke:#000000; stroke-linecap:round; stroke-linejoin:round; stroke-width:2; stroke-opacity:0.1; fill:none" points="193.936,1167.53 2352.76,1167.53 "/>
<polyline clip-path="url(#clip082)" style="stroke:#000000; stroke-linecap:round; stroke-linejoin:round; stroke-width:2; stroke-opacity:0.1; fill:none" points="193.936,947.088 2352.76,947.088 "/>
<polyline clip-path="url(#clip082)" style="stroke:#000000; stroke-linecap:round; stroke-linejoin:round; stroke-width:2; stroke-opacity:0.1; fill:none" points="193.936,726.647 2352.76,726.647 "/>
<polyline clip-path="url(#clip082)" style="stroke:#000000; stroke-linecap:round; stroke-linejoin:round; stroke-width:2; stroke-opacity:0.1; fill:none" points="193.936,506.205 2352.76,506.205 "/>
<polyline clip-path="url(#clip082)" style="stroke:#000000; stroke-linecap:round; stroke-linejoin:round; stroke-width:2; stroke-opacity:0.1; fill:none" points="193.936,285.764 2352.76,285.764 "/>
<polyline clip-path="url(#clip082)" style="stroke:#000000; stroke-linecap:round; stroke-linejoin:round; stroke-width:2; stroke-opacity:0.1; fill:none" points="193.936,65.323 2352.76,65.323 "/>
<polyline clip-path="url(#clip080)" style="stroke:#000000; stroke-linecap:round; stroke-linejoin:round; stroke-width:4; stroke-opacity:1; fill:none" points="193.936,1423.18 2352.76,1423.18 "/>
<polyline clip-path="url(#clip080)" style="stroke:#000000; stroke-linecap:round; stroke-linejoin:round; stroke-width:4; stroke-opacity:1; fill:none" points="193.936,1423.18 193.936,1404.28 "/>
<polyline clip-path="url(#clip080)" style="stroke:#000000; stroke-linecap:round; stroke-linejoin:round; stroke-width:4; stroke-opacity:1; fill:none" points="625.7,1423.18 625.7,1404.28 "/>
<polyline clip-path="url(#clip080)" style="stroke:#000000; stroke-linecap:round; stroke-linejoin:round; stroke-width:4; stroke-opacity:1; fill:none" points="1057.46,1423.18 1057.46,1404.28 "/>
<polyline clip-path="url(#clip080)" style="stroke:#000000; stroke-linecap:round; stroke-linejoin:round; stroke-width:4; stroke-opacity:1; fill:none" points="1489.23,1423.18 1489.23,1404.28 "/>
<polyline clip-path="url(#clip080)" style="stroke:#000000; stroke-linecap:round; stroke-linejoin:round; stroke-width:4; stroke-opacity:1; fill:none" points="1920.99,1423.18 1920.99,1404.28 "/>
<polyline clip-path="url(#clip080)" style="stroke:#000000; stroke-linecap:round; stroke-linejoin:round; stroke-width:4; stroke-opacity:1; fill:none" points="2352.76,1423.18 2352.76,1404.28 "/>
<path clip-path="url(#clip080)" d="M193.936 1454.1 Q190.325 1454.1 188.496 1457.66 Q186.691 1461.2 186.691 1468.33 Q186.691 1475.44 188.496 1479.01 Q190.325 1482.55 193.936 1482.55 Q197.57 1482.55 199.376 1479.01 Q201.204 1475.44 201.204 1468.33 Q201.204 1461.2 199.376 1457.66 Q197.57 1454.1 193.936 1454.1 M193.936 1450.39 Q199.746 1450.39 202.802 1455 Q205.88 1459.58 205.88 1468.33 Q205.88 1477.06 202.802 1481.67 Q199.746 1486.25 193.936 1486.25 Q188.126 1486.25 185.047 1481.67 Q181.992 1477.06 181.992 1468.33 Q181.992 1459.58 185.047 1455 Q188.126 1450.39 193.936 1450.39 Z" fill="#000000" fill-rule="nonzero" fill-opacity="1" /><path clip-path="url(#clip080)" d="M620.353 1481.64 L636.672 1481.64 L636.672 1485.58 L614.728 1485.58 L614.728 1481.64 Q617.39 1478.89 621.973 1474.26 Q626.58 1469.61 627.76 1468.27 Q630.006 1465.74 630.885 1464.01 Q631.788 1462.25 631.788 1460.56 Q631.788 1457.8 629.843 1456.07 Q627.922 1454.33 624.82 1454.33 Q622.621 1454.33 620.168 1455.09 Q617.737 1455.86 614.959 1457.41 L614.959 1452.69 Q617.783 1451.55 620.237 1450.97 Q622.691 1450.39 624.728 1450.39 Q630.098 1450.39 633.293 1453.08 Q636.487 1455.77 636.487 1460.26 Q636.487 1462.39 635.677 1464.31 Q634.89 1466.2 632.783 1468.8 Q632.205 1469.47 629.103 1472.69 Q626.001 1475.88 620.353 1481.64 Z" fill="#000000" fill-rule="nonzero" fill-opacity="1" /><path clip-path="url(#clip080)" d="M1060.47 1455.09 L1048.67 1473.54 L1060.47 1473.54 L1060.47 1455.09 M1059.25 1451.02 L1065.13 1451.02 L1065.13 1473.54 L1070.06 1473.54 L1070.06 1477.43 L1065.13 1477.43 L1065.13 1485.58 L1060.47 1485.58 L1060.47 1477.43 L1044.87 1477.43 L1044.87 1472.92 L1059.25 1451.02 Z" fill="#000000" fill-rule="nonzero" fill-opacity="1" /><path clip-path="url(#clip080)" d="M1489.63 1466.44 Q1486.48 1466.44 1484.63 1468.59 Q1482.8 1470.74 1482.8 1474.49 Q1482.8 1478.22 1484.63 1480.39 Q1486.48 1482.55 1489.63 1482.55 Q1492.78 1482.55 1494.61 1480.39 Q1496.46 1478.22 1496.46 1474.49 Q1496.46 1470.74 1494.61 1468.59 Q1492.78 1466.44 1489.63 1466.44 M1498.92 1451.78 L1498.92 1456.04 Q1497.16 1455.21 1495.35 1454.77 Q1493.57 1454.33 1491.81 1454.33 Q1487.18 1454.33 1484.73 1457.45 Q1482.3 1460.58 1481.95 1466.9 Q1483.31 1464.89 1485.37 1463.82 Q1487.43 1462.73 1489.91 1462.73 Q1495.12 1462.73 1498.13 1465.9 Q1501.16 1469.05 1501.16 1474.49 Q1501.16 1479.82 1498.01 1483.03 Q1494.86 1486.25 1489.63 1486.25 Q1483.64 1486.25 1480.47 1481.67 Q1477.3 1477.06 1477.3 1468.33 Q1477.3 1460.14 1481.18 1455.28 Q1485.07 1450.39 1491.62 1450.39 Q1493.38 1450.39 1495.17 1450.74 Q1496.97 1451.09 1498.92 1451.78 Z" fill="#000000" fill-rule="nonzero" fill-opacity="1" /><path clip-path="url(#clip080)" d="M1920.99 1469.17 Q1917.66 1469.17 1915.74 1470.95 Q1913.84 1472.73 1913.84 1475.86 Q1913.84 1478.98 1915.74 1480.77 Q1917.66 1482.55 1920.99 1482.55 Q1924.33 1482.55 1926.25 1480.77 Q1928.17 1478.96 1928.17 1475.86 Q1928.17 1472.73 1926.25 1470.95 Q1924.35 1469.17 1920.99 1469.17 M1916.32 1467.18 Q1913.31 1466.44 1911.62 1464.38 Q1909.95 1462.32 1909.95 1459.35 Q1909.95 1455.21 1912.89 1452.8 Q1915.85 1450.39 1920.99 1450.39 Q1926.15 1450.39 1929.09 1452.8 Q1932.03 1455.21 1932.03 1459.35 Q1932.03 1462.32 1930.34 1464.38 Q1928.68 1466.44 1925.69 1467.18 Q1929.07 1467.96 1930.95 1470.26 Q1932.84 1472.55 1932.84 1475.86 Q1932.84 1480.88 1929.77 1483.57 Q1926.71 1486.25 1920.99 1486.25 Q1915.27 1486.25 1912.2 1483.57 Q1909.14 1480.88 1909.14 1475.86 Q1909.14 1472.55 1911.04 1470.26 Q1912.94 1467.96 1916.32 1467.18 M1914.6 1459.79 Q1914.6 1462.48 1916.27 1463.98 Q1917.96 1465.49 1920.99 1465.49 Q1924 1465.49 1925.69 1463.98 Q1927.4 1462.48 1927.4 1459.79 Q1927.4 1457.11 1925.69 1455.6 Q1924 1454.1 1920.99 1454.1 Q1917.96 1454.1 1916.27 1455.6 Q1914.6 1457.11 1914.6 1459.79 Z" fill="#000000" fill-rule="nonzero" fill-opacity="1" /><path clip-path="url(#clip080)" d="M2327.44 1481.64 L2335.08 1481.64 L2335.08 1455.28 L2326.77 1456.95 L2326.77 1452.69 L2335.04 1451.02 L2339.71 1451.02 L2339.71 1481.64 L2347.35 1481.64 L2347.35 1485.58 L2327.44 1485.58 L2327.44 1481.64 Z" fill="#000000" fill-rule="nonzero" fill-opacity="1" /><path clip-path="url(#clip080)" d="M2366.8 1454.1 Q2363.18 1454.1 2361.36 1457.66 Q2359.55 1461.2 2359.55 1468.33 Q2359.55 1475.44 2361.36 1479.01 Q2363.18 1482.55 2366.8 1482.55 Q2370.43 1482.55 2372.23 1479.01 Q2374.06 1475.44 2374.06 1468.33 Q2374.06 1461.2 2372.23 1457.66 Q2370.43 1454.1 2366.8 1454.1 M2366.8 1450.39 Q2372.61 1450.39 2375.66 1455 Q2378.74 1459.58 2378.74 1468.33 Q2378.74 1477.06 2375.66 1481.67 Q2372.61 1486.25 2366.8 1486.25 Q2360.99 1486.25 2357.91 1481.67 Q2354.85 1477.06 2354.85 1468.33 Q2354.85 1459.58 2357.91 1455 Q2360.99 1450.39 2366.8 1450.39 Z" fill="#000000" fill-rule="nonzero" fill-opacity="1" /><path clip-path="url(#clip080)" d="M1272.41 1522.27 L1272.41 1532.4 L1284.47 1532.4 L1284.47 1536.95 L1272.41 1536.95 L1272.41 1556.3 Q1272.41 1560.66 1273.58 1561.9 Q1274.79 1563.14 1278.45 1563.14 L1284.47 1563.14 L1284.47 1568.04 L1278.45 1568.04 Q1271.67 1568.04 1269.1 1565.53 Q1266.52 1562.98 1266.52 1556.3 L1266.52 1536.95 L1262.22 1536.95 L1262.22 1532.4 L1266.52 1532.4 L1266.52 1522.27 L1272.41 1522.27 Z" fill="#000000" fill-rule="nonzero" fill-opacity="1" /><polyline clip-path="url(#clip080)" style="stroke:#000000; stroke-linecap:round; stroke-linejoin:round; stroke-width:4; stroke-opacity:1; fill:none" points="193.936,1423.18 193.936,47.2441 "/>
<polyline clip-path="url(#clip080)" style="stroke:#000000; stroke-linecap:round; stroke-linejoin:round; stroke-width:4; stroke-opacity:1; fill:none" points="193.936,1387.97 212.834,1387.97 "/>
<polyline clip-path="url(#clip080)" style="stroke:#000000; stroke-linecap:round; stroke-linejoin:round; stroke-width:4; stroke-opacity:1; fill:none" points="193.936,1167.53 212.834,1167.53 "/>
<polyline clip-path="url(#clip080)" style="stroke:#000000; stroke-linecap:round; stroke-linejoin:round; stroke-width:4; stroke-opacity:1; fill:none" points="193.936,947.088 212.834,947.088 "/>
<polyline clip-path="url(#clip080)" style="stroke:#000000; stroke-linecap:round; stroke-linejoin:round; stroke-width:4; stroke-opacity:1; fill:none" points="193.936,726.647 212.834,726.647 "/>
<polyline clip-path="url(#clip080)" style="stroke:#000000; stroke-linecap:round; stroke-linejoin:round; stroke-width:4; stroke-opacity:1; fill:none" points="193.936,506.205 212.834,506.205 "/>
<polyline clip-path="url(#clip080)" style="stroke:#000000; stroke-linecap:round; stroke-linejoin:round; stroke-width:4; stroke-opacity:1; fill:none" points="193.936,285.764 212.834,285.764 "/>
<polyline clip-path="url(#clip080)" style="stroke:#000000; stroke-linecap:round; stroke-linejoin:round; stroke-width:4; stroke-opacity:1; fill:none" points="193.936,65.323 212.834,65.323 "/>
<path clip-path="url(#clip080)" d="M51.9875 1388.42 L81.6633 1388.42 L81.6633 1392.36 L51.9875 1392.36 L51.9875 1388.42 Z" fill="#000000" fill-rule="nonzero" fill-opacity="1" /><path clip-path="url(#clip080)" d="M92.566 1401.32 L100.205 1401.32 L100.205 1374.95 L91.8947 1376.62 L91.8947 1372.36 L100.159 1370.69 L104.834 1370.69 L104.834 1401.32 L112.473 1401.32 L112.473 1405.25 L92.566 1405.25 L92.566 1401.32 Z" fill="#000000" fill-rule="nonzero" fill-opacity="1" /><path clip-path="url(#clip080)" d="M121.918 1399.37 L126.802 1399.37 L126.802 1405.25 L121.918 1405.25 L121.918 1399.37 Z" fill="#000000" fill-rule="nonzero" fill-opacity="1" /><path clip-path="url(#clip080)" d="M137.033 1370.69 L155.39 1370.69 L155.39 1374.63 L141.316 1374.63 L141.316 1383.1 Q142.334 1382.75 143.353 1382.59 Q144.371 1382.4 145.39 1382.4 Q151.177 1382.4 154.556 1385.57 Q157.936 1388.75 157.936 1394.16 Q157.936 1399.74 154.464 1402.84 Q150.992 1405.92 144.672 1405.92 Q142.496 1405.92 140.228 1405.55 Q137.982 1405.18 135.575 1404.44 L135.575 1399.74 Q137.658 1400.88 139.881 1401.43 Q142.103 1401.99 144.58 1401.99 Q148.584 1401.99 150.922 1399.88 Q153.26 1397.77 153.26 1394.16 Q153.26 1390.55 150.922 1388.44 Q148.584 1386.34 144.58 1386.34 Q142.705 1386.34 140.83 1386.75 Q138.978 1387.17 137.033 1388.05 L137.033 1370.69 Z" fill="#000000" fill-rule="nonzero" fill-opacity="1" /><path clip-path="url(#clip080)" d="M50.9921 1167.98 L80.6679 1167.98 L80.6679 1171.92 L50.9921 1171.92 L50.9921 1167.98 Z" fill="#000000" fill-rule="nonzero" fill-opacity="1" /><path clip-path="url(#clip080)" d="M91.5706 1180.87 L99.2095 1180.87 L99.2095 1154.51 L90.8993 1156.17 L90.8993 1151.92 L99.1632 1150.25 L103.839 1150.25 L103.839 1180.87 L111.478 1180.87 L111.478 1184.81 L91.5706 1184.81 L91.5706 1180.87 Z" fill="#000000" fill-rule="nonzero" fill-opacity="1" /><path clip-path="url(#clip080)" d="M120.922 1178.93 L125.807 1178.93 L125.807 1184.81 L120.922 1184.81 L120.922 1178.93 Z" fill="#000000" fill-rule="nonzero" fill-opacity="1" /><path clip-path="url(#clip080)" d="M145.992 1153.33 Q142.381 1153.33 140.552 1156.89 Q138.746 1160.43 138.746 1167.56 Q138.746 1174.67 140.552 1178.23 Q142.381 1181.78 145.992 1181.78 Q149.626 1181.78 151.431 1178.23 Q153.26 1174.67 153.26 1167.56 Q153.26 1160.43 151.431 1156.89 Q149.626 1153.33 145.992 1153.33 M145.992 1149.62 Q151.802 1149.62 154.857 1154.23 Q157.936 1158.81 157.936 1167.56 Q157.936 1176.29 154.857 1180.9 Q151.802 1185.48 145.992 1185.48 Q140.181 1185.48 137.103 1180.9 Q134.047 1176.29 134.047 1167.56 Q134.047 1158.81 137.103 1154.23 Q140.181 1149.62 145.992 1149.62 Z" fill="#000000" fill-rule="nonzero" fill-opacity="1" /><path clip-path="url(#clip080)" d="M51.9875 947.539 L81.6633 947.539 L81.6633 951.474 L51.9875 951.474 L51.9875 947.539 Z" fill="#000000" fill-rule="nonzero" fill-opacity="1" /><path clip-path="url(#clip080)" d="M101.756 932.886 Q98.1447 932.886 96.316 936.451 Q94.5104 939.993 94.5104 947.123 Q94.5104 954.229 96.316 957.794 Q98.1447 961.335 101.756 961.335 Q105.39 961.335 107.196 957.794 Q109.024 954.229 109.024 947.123 Q109.024 939.993 107.196 936.451 Q105.39 932.886 101.756 932.886 M101.756 929.183 Q107.566 929.183 110.621 933.789 Q113.7 938.373 113.7 947.123 Q113.7 955.849 110.621 960.456 Q107.566 965.039 101.756 965.039 Q95.9456 965.039 92.8669 960.456 Q89.8114 955.849 89.8114 947.123 Q89.8114 938.373 92.8669 933.789 Q95.9456 929.183 101.756 929.183 Z" fill="#000000" fill-rule="nonzero" fill-opacity="1" /><path clip-path="url(#clip080)" d="M121.918 958.488 L126.802 958.488 L126.802 964.368 L121.918 964.368 L121.918 958.488 Z" fill="#000000" fill-rule="nonzero" fill-opacity="1" /><path clip-path="url(#clip080)" d="M137.033 929.808 L155.39 929.808 L155.39 933.743 L141.316 933.743 L141.316 942.215 Q142.334 941.868 143.353 941.706 Q144.371 941.521 145.39 941.521 Q151.177 941.521 154.556 944.692 Q157.936 947.863 157.936 953.28 Q157.936 958.859 154.464 961.96 Q150.992 965.039 144.672 965.039 Q142.496 965.039 140.228 964.669 Q137.982 964.298 135.575 963.558 L135.575 958.859 Q137.658 959.993 139.881 960.548 Q142.103 961.104 144.58 961.104 Q148.584 961.104 150.922 958.997 Q153.26 956.891 153.26 953.28 Q153.26 949.669 150.922 947.562 Q148.584 945.456 144.58 945.456 Q142.705 945.456 140.83 945.873 Q138.978 946.289 137.033 947.169 L137.033 929.808 Z" fill="#000000" fill-rule="nonzero" fill-opacity="1" /><path clip-path="url(#clip080)" d="M100.76 712.445 Q97.1493 712.445 95.3206 716.01 Q93.515 719.552 93.515 726.681 Q93.515 733.788 95.3206 737.353 Q97.1493 740.894 100.76 740.894 Q104.395 740.894 106.2 737.353 Q108.029 733.788 108.029 726.681 Q108.029 719.552 106.2 716.01 Q104.395 712.445 100.76 712.445 M100.76 708.742 Q106.571 708.742 109.626 713.348 Q112.705 717.931 112.705 726.681 Q112.705 735.408 109.626 740.015 Q106.571 744.598 100.76 744.598 Q94.9502 744.598 91.8715 740.015 Q88.816 735.408 88.816 726.681 Q88.816 717.931 91.8715 713.348 Q94.9502 708.742 100.76 708.742 Z" fill="#000000" fill-rule="nonzero" fill-opacity="1" /><path clip-path="url(#clip080)" d="M120.922 738.047 L125.807 738.047 L125.807 743.927 L120.922 743.927 L120.922 738.047 Z" fill="#000000" fill-rule="nonzero" fill-opacity="1" /><path clip-path="url(#clip080)" d="M145.992 712.445 Q142.381 712.445 140.552 716.01 Q138.746 719.552 138.746 726.681 Q138.746 733.788 140.552 737.353 Q142.381 740.894 145.992 740.894 Q149.626 740.894 151.431 737.353 Q153.26 733.788 153.26 726.681 Q153.26 719.552 151.431 716.01 Q149.626 712.445 145.992 712.445 M145.992 708.742 Q151.802 708.742 154.857 713.348 Q157.936 717.931 157.936 726.681 Q157.936 735.408 154.857 740.015 Q151.802 744.598 145.992 744.598 Q140.181 744.598 137.103 740.015 Q134.047 735.408 134.047 726.681 Q134.047 717.931 137.103 713.348 Q140.181 708.742 145.992 708.742 Z" fill="#000000" fill-rule="nonzero" fill-opacity="1" /><path clip-path="url(#clip080)" d="M101.756 492.004 Q98.1447 492.004 96.316 495.569 Q94.5104 499.111 94.5104 506.24 Q94.5104 513.347 96.316 516.911 Q98.1447 520.453 101.756 520.453 Q105.39 520.453 107.196 516.911 Q109.024 513.347 109.024 506.24 Q109.024 499.111 107.196 495.569 Q105.39 492.004 101.756 492.004 M101.756 488.3 Q107.566 488.3 110.621 492.907 Q113.7 497.49 113.7 506.24 Q113.7 514.967 110.621 519.573 Q107.566 524.157 101.756 524.157 Q95.9456 524.157 92.8669 519.573 Q89.8114 514.967 89.8114 506.24 Q89.8114 497.49 92.8669 492.907 Q95.9456 488.3 101.756 488.3 Z" fill="#000000" fill-rule="nonzero" fill-opacity="1" /><path clip-path="url(#clip080)" d="M121.918 517.606 L126.802 517.606 L126.802 523.485 L121.918 523.485 L121.918 517.606 Z" fill="#000000" fill-rule="nonzero" fill-opacity="1" /><path clip-path="url(#clip080)" d="M137.033 488.925 L155.39 488.925 L155.39 492.861 L141.316 492.861 L141.316 501.333 Q142.334 500.986 143.353 500.823 Q144.371 500.638 145.39 500.638 Q151.177 500.638 154.556 503.81 Q157.936 506.981 157.936 512.397 Q157.936 517.976 154.464 521.078 Q150.992 524.157 144.672 524.157 Q142.496 524.157 140.228 523.786 Q137.982 523.416 135.575 522.675 L135.575 517.976 Q137.658 519.11 139.881 519.666 Q142.103 520.222 144.58 520.222 Q148.584 520.222 150.922 518.115 Q153.26 516.009 153.26 512.397 Q153.26 508.786 150.922 506.68 Q148.584 504.573 144.58 504.573 Q142.705 504.573 140.83 504.99 Q138.978 505.407 137.033 506.286 L137.033 488.925 Z" fill="#000000" fill-rule="nonzero" fill-opacity="1" /><path clip-path="url(#clip080)" d="M91.5706 299.109 L99.2095 299.109 L99.2095 272.743 L90.8993 274.41 L90.8993 270.151 L99.1632 268.484 L103.839 268.484 L103.839 299.109 L111.478 299.109 L111.478 303.044 L91.5706 303.044 L91.5706 299.109 Z" fill="#000000" fill-rule="nonzero" fill-opacity="1" /><path clip-path="url(#clip080)" d="M120.922 297.165 L125.807 297.165 L125.807 303.044 L120.922 303.044 L120.922 297.165 Z" fill="#000000" fill-rule="nonzero" fill-opacity="1" /><path clip-path="url(#clip080)" d="M145.992 271.563 Q142.381 271.563 140.552 275.128 Q138.746 278.669 138.746 285.799 Q138.746 292.905 140.552 296.47 Q142.381 300.012 145.992 300.012 Q149.626 300.012 151.431 296.47 Q153.26 292.905 153.26 285.799 Q153.26 278.669 151.431 275.128 Q149.626 271.563 145.992 271.563 M145.992 267.859 Q151.802 267.859 154.857 272.466 Q157.936 277.049 157.936 285.799 Q157.936 294.526 154.857 299.132 Q151.802 303.715 145.992 303.715 Q140.181 303.715 137.103 299.132 Q134.047 294.526 134.047 285.799 Q134.047 277.049 137.103 272.466 Q140.181 267.859 145.992 267.859 Z" fill="#000000" fill-rule="nonzero" fill-opacity="1" /><path clip-path="url(#clip080)" d="M92.566 78.6678 L100.205 78.6678 L100.205 52.3022 L91.8947 53.9689 L91.8947 49.7097 L100.159 48.043 L104.834 48.043 L104.834 78.6678 L112.473 78.6678 L112.473 82.603 L92.566 82.603 L92.566 78.6678 Z" fill="#000000" fill-rule="nonzero" fill-opacity="1" /><path clip-path="url(#clip080)" d="M121.918 76.7234 L126.802 76.7234 L126.802 82.603 L121.918 82.603 L121.918 76.7234 Z" fill="#000000" fill-rule="nonzero" fill-opacity="1" /><path clip-path="url(#clip080)" d="M137.033 48.043 L155.39 48.043 L155.39 51.9782 L141.316 51.9782 L141.316 60.4503 Q142.334 60.1031 143.353 59.9411 Q144.371 59.7559 145.39 59.7559 Q151.177 59.7559 154.556 62.9272 Q157.936 66.0985 157.936 71.5151 Q157.936 77.0938 154.464 80.1956 Q150.992 83.2743 144.672 83.2743 Q142.496 83.2743 140.228 82.9039 Q137.982 82.5336 135.575 81.7928 L135.575 77.0938 Q137.658 78.228 139.881 78.7836 Q142.103 79.3391 144.58 79.3391 Q148.584 79.3391 150.922 77.2327 Q153.26 75.1262 153.26 71.5151 Q153.26 67.904 150.922 65.7975 Q148.584 63.6911 144.58 63.6911 Q142.705 63.6911 140.83 64.1077 Q138.978 64.5244 137.033 65.404 L137.033 48.043 Z" fill="#000000" fill-rule="nonzero" fill-opacity="1" /><polyline clip-path="url(#clip082)" style="stroke:#009af9; stroke-linecap:round; stroke-linejoin:round; stroke-width:4; stroke-opacity:1; fill:none" points="193.936,726.647 196.097,730.917 198.258,735.131 200.419,739.289 202.58,743.392 204.741,747.44 206.902,751.435 209.063,755.377 211.224,759.267 213.385,763.105 215.546,766.892 217.707,770.629 219.868,774.316 222.029,777.955 224.19,781.545 226.351,785.087 228.512,788.583 230.673,792.032 232.834,795.436 234.995,798.795 237.156,802.109 239.317,805.379 241.478,808.605 243.639,811.789 245.8,814.931 247.961,818.031 250.122,821.09 252.282,824.108 254.443,827.086 256.604,830.025 258.765,832.925 260.926,835.787 263.087,838.61 265.248,841.396 267.409,844.145 269.57,846.858 271.731,849.535 273.892,852.176 276.053,854.782 278.214,857.354 280.375,859.892 282.536,862.396 284.697,864.866 286.858,867.304 289.019,869.71 291.18,872.084 293.341,874.426 295.502,876.737 297.663,879.018 299.824,881.268 301.985,883.489 304.146,885.68 306.307,887.842 308.468,889.975 310.629,892.08 312.79,894.157 314.951,896.207 317.112,898.229 319.273,900.225 321.434,902.194 323.595,904.137 325.756,906.055 327.917,907.947 330.078,909.814 332.239,911.656 334.4,913.473 336.561,915.267 338.722,917.037 340.883,918.783 343.044,920.506 345.205,922.207 347.366,923.884 349.527,925.54 351.688,927.173 353.849,928.785 356.01,930.376 358.171,931.945 360.332,933.494 362.493,935.022 364.653,936.53 366.814,938.018 368.975,939.486 371.136,940.934 373.297,942.364 375.458,943.774 377.619,945.166 379.78,946.539 381.941,947.895 384.102,949.232 386.263,950.551 388.424,951.853 390.585,953.138 392.746,954.406 394.907,955.656 397.068,956.891 399.229,958.109 401.39,959.31 403.551,960.496 405.712,961.666 407.873,962.821 410.034,963.954 412.195,964.429 414.356,963.903 416.517,962.487 418.678,960.286 420.839,957.401 423,953.924 425.161,949.945 427.322,945.547 429.483,940.807 431.644,935.799 433.805,930.589 435.966,925.239 438.127,919.803 440.288,914.334 442.449,908.875 444.61,903.466 446.771,898.142 448.932,892.93 451.093,887.855 453.254,882.932 455.415,878.175 457.576,873.591 459.737,869.18 461.898,864.938 464.059,860.855 466.22,856.916 468.381,853.101 470.542,849.383 472.703,845.731 474.864,842.107 477.024,838.469 479.185,834.771 481.346,831.072 483.507,827.422 485.668,823.82 487.829,820.267 489.99,816.76 492.151,813.3 494.312,809.885 496.473,806.516 498.634,803.192 500.795,799.912 502.956,796.675 505.117,793.481 507.278,790.329 509.439,787.219 511.6,784.151 513.761,781.123 515.922,778.135 518.083,775.186 520.244,772.277 522.405,769.406 524.566,766.574 526.727,763.778 528.888,761.02 531.049,758.299 533.21,755.613 535.371,752.964 537.532,750.349 539.693,747.769 541.854,745.224 544.015,742.712 546.176,740.233 548.337,737.788 550.498,735.375 552.659,732.993 554.82,730.644 556.981,728.326 559.142,726.038 561.303,723.781 563.464,721.553 565.625,719.356 567.786,717.187 569.947,715.047 572.108,712.936 574.269,710.852 576.43,708.796 578.591,706.768 580.752,704.766 582.913,702.791 585.074,700.842 587.235,698.919 589.396,697.021 591.556,695.148 593.717,693.3 595.878,691.477 598.039,689.678 600.2,687.902 602.361,686.15 604.522,684.422 606.683,682.716 608.844,681.033 611.005,679.372 613.166,677.734 615.327,676.117 617.488,674.528 619.649,673.505 621.81,673.297 623.971,673.789 626.132,674.875 628.293,676.455 630.454,678.438 632.615,680.738 634.776,683.28 636.937,685.992 639.098,688.813 641.259,691.687 643.42,694.568 645.581,697.414 647.742,700.193 649.903,702.879 652.064,705.455 654.225,707.909 656.386,710.239 658.547,712.447 660.708,714.547 662.869,716.556 665.03,718.5 667.191,720.414 669.352,722.338 671.513,724.318 673.674,726.309 675.835,728.273 677.996,730.211 680.157,732.123 682.318,734.01 684.479,735.872 686.64,737.709 688.801,739.522 690.962,741.311 693.123,743.076 695.284,744.817 697.445,746.536 699.606,748.232 701.767,749.905 703.927,751.556 706.088,753.185 708.249,754.793 710.41,756.379 712.571,757.945 714.732,759.489 716.893,761.014 719.054,762.517 721.215,764.001 723.376,765.466 725.537,766.911 727.698,768.336 729.859,769.743 732.02,771.131 734.181,772.501 736.342,773.852 738.503,775.186 740.664,776.502 742.825,777.801 744.986,779.082 747.147,780.346 749.308,781.594 751.469,782.825 753.63,784.039 755.791,785.238 757.952,786.42 760.113,787.587 762.274,788.739 764.435,789.875 766.596,790.996 768.757,792.103 770.918,793.195 773.079,794.272 775.24,795.335 777.401,796.384 779.562,797.418 781.723,798.44 783.884,799.447 786.045,800.442 788.206,801.423 790.367,802.391 792.528,803.346 794.689,804.289 796.85,805.219 799.011,806.137 801.172,807.043 803.333,807.936 805.494,808.818 807.655,809.688 809.816,810.546 811.977,811.394 814.138,812.229 816.298,813.054 818.459,813.868 820.62,814.671 822.781,815.464 824.942,816.246 827.103,817.017 829.264,817.779 831.425,818.53 833.586,819.271 835.747,820.003 837.908,820.763 840.069,821.916 842.23,823.511 844.391,825.499 846.552,827.832 848.713,830.466 850.874,833.36 853.035,836.473 855.196,839.768 857.357,843.21 859.518,846.767 861.679,850.408 863.84,854.105 866.001,857.833 868.162,861.568 870.323,865.29 872.484,868.981 874.645,872.623 876.806,876.204 878.967,879.712 881.128,883.137 883.289,886.474 885.45,889.717 887.611,892.865 889.772,895.919 891.933,898.88 894.094,901.755 896.255,904.55 898.416,907.275 900.577,909.943 902.738,912.567 904.899,915.166 907.06,917.757 909.221,920.364 911.382,922.968 913.543,925.538 915.704,928.073 917.865,930.575 920.026,933.044 922.187,935.48 924.348,937.884 926.509,940.256 928.669,942.597 930.83,944.906 932.991,947.185 935.152,949.434 937.313,951.652 939.474,953.842 941.635,956.002 943.796,958.134 945.957,960.237 948.118,962.313 950.279,964.361 952.44,966.382 954.601,968.376 956.762,970.344 958.923,972.285 961.084,974.201 963.245,976.092 965.406,977.957 967.567,979.798 969.728,981.614 971.889,983.407 974.05,985.175 976.211,986.92 978.372,988.642 980.533,990.341 982.694,992.017 984.855,993.671 987.016,995.304 989.177,996.914 991.338,998.504 993.499,1000.07 995.66,1001.62 997.821,1003.15 999.982,1004.65 1002.14,1006.14 1004.3,1007.61 1006.46,1009.05 1008.63,1010.48 1010.79,1011.89 1012.95,1013.28 1015.11,1014.65 1017.27,1016.01 1019.43,1017.43 1021.59,1018.89 1023.75,1020.39 1025.91,1021.91 1028.07,1023.42 1030.24,1024.92 1032.4,1026.38 1034.56,1027.79 1036.72,1029.15 1038.88,1030.43 1041.04,1031.63 1043.2,1032.75 1045.36,1033.77 1047.52,1034.69 1049.68,1035.5 1051.85,1036.21 1054.01,1036.81 1056.17,1037.29 1058.33,1037.67 1060.49,1037.93 1062.65,1038.1 1064.81,1038.16 1066.97,1038.13 1069.13,1038.01 1071.29,1037.82 1073.46,1037.56 1075.62,1037.25 1077.78,1036.89 1079.94,1036.5 1082.1,1036.1 1084.26,1035.7 1086.42,1035.33 1088.58,1034.99 1090.74,1034.71 1092.9,1034.45 1095.07,1034.19 1097.23,1033.93 1099.39,1033.68 1101.55,1033.43 1103.71,1033.18 1105.87,1032.94 1108.03,1032.7 1110.19,1032.47 1112.35,1032.23 1114.51,1032 1116.67,1031.78 1118.84,1031.55 1121,1031.33 1123.16,1031.11 1125.32,1030.9 1127.48,1030.69 1129.64,1030.48 1131.8,1030.27 1133.96,1030.07 1136.12,1029.86 1138.28,1029.67 1140.45,1029.47 1142.61,1029.28 1144.77,1029.09 1146.93,1028.9 1149.09,1028.71 1151.25,1028.53 1153.41,1028.35 1155.57,1028.17 1157.73,1027.99 1159.89,1027.82 1162.06,1027.65 1164.22,1027.48 1166.38,1027.31 1168.54,1027.15 1170.7,1026.98 1172.86,1026.82 1175.02,1026.67 1177.18,1026.51 1179.34,1026.36 1181.5,1026.2 1183.67,1026.05 1185.83,1025.91 1187.99,1025.76 1190.15,1025.62 1192.31,1025.47 1194.47,1025.33 1196.63,1025.19 1198.79,1025.06 1200.95,1024.92 1203.11,1024.79 1205.28,1024.66 1207.44,1024.53 1209.6,1024.4 1211.76,1024.28 1213.92,1024.15 1216.08,1024.03 1218.24,1023.91 1220.4,1023.79 1222.56,1023.67 1224.72,1023.55 1226.88,1023.44 1229.05,1023.32 1231.21,1023.21 1233.37,1023.1 1235.53,1022.99 1237.69,1022.89 1239.85,1022.78 1242.01,1022.68 1244.17,1022.57 1246.33,1022.47 1248.49,1022.37 1250.66,1022.27 1252.82,1022.17 1254.98,1022.08 1257.14,1021.98 1259.3,1021.89 1261.46,1021.79 1263.62,1021.7 1265.78,1021.61 1267.94,1021.52 1270.1,1020.78 1272.27,1018.18 1274.43,1013.93 1276.59,1008.24 1278.75,1001.32 1280.91,993.371 1283.07,984.58 1285.23,975.115 1287.39,965.132 1289.55,954.776 1291.71,944.177 1293.88,933.452 1296.04,922.705 1298.2,912.026 1300.36,901.493 1302.52,891.17 1304.68,881.107 1306.84,871.342 1309,861.899 1311.16,852.788 1313.32,844.007 1315.49,835.54 1317.65,827.358 1319.81,819.418 1321.97,811.665 1324.13,804.03 1326.29,796.43 1328.45,788.769 1330.61,781.048 1332.77,773.426 1334.93,765.904 1337.09,758.482 1339.26,751.158 1341.42,743.932 1343.58,736.801 1345.74,729.765 1347.9,722.822 1350.06,715.971 1352.22,709.211 1354.38,702.541 1356.54,695.959 1358.7,689.465 1360.87,683.056 1363.03,676.732 1365.19,670.492 1367.35,664.335 1369.51,658.26 1371.67,652.265 1373.83,646.349 1375.99,640.512 1378.15,634.752 1380.31,629.069 1382.48,623.461 1384.64,617.928 1386.8,612.467 1388.96,607.08 1391.12,601.763 1393.28,596.518 1395.44,591.342 1397.6,586.234 1399.76,581.194 1401.92,576.221 1404.09,571.314 1406.25,566.472 1408.41,561.695 1410.57,556.98 1412.73,552.328 1414.89,547.738 1417.05,543.209 1419.21,538.739 1421.37,534.329 1423.53,529.977 1425.7,525.683 1427.86,521.446 1430.02,517.265 1432.18,513.139 1434.34,509.069 1436.5,505.052 1438.66,501.088 1440.82,497.177 1442.98,493.317 1445.14,489.509 1447.3,485.752 1449.47,482.044 1451.63,478.385 1453.79,474.775 1455.95,471.213 1458.11,467.698 1460.27,464.23 1462.43,460.808 1464.59,457.431 1466.75,454.099 1468.91,450.811 1471.08,447.566 1473.24,444.365 1475.4,441.206 1477.56,438.089 1479.72,435.013 1481.88,431.978 1484.04,428.983 1486.2,426.028 1488.36,423.112 1490.52,420.378 1492.69,418.289 1494.85,416.819 1497.01,415.904 1499.17,415.483 1501.33,415.499 1503.49,415.894 1505.65,416.618 1507.81,417.621 1509.97,418.858 1512.13,420.285 1514.3,421.862 1516.46,423.553 1518.62,425.324 1520.78,427.144 1522.94,428.985 1525.1,430.824 1527.26,432.638 1529.42,434.409 1531.58,436.123 1533.74,437.765 1535.91,439.328 1538.07,440.806 1540.23,442.194 1542.39,443.494 1544.55,444.708 1546.71,445.842 1548.87,446.905 1551.03,447.911 1553.19,448.873 1555.35,449.811 1557.51,450.746 1559.68,451.703 1561.84,452.708 1564,453.753 1566.16,454.784 1568.32,455.801 1570.48,456.805 1572.64,457.796 1574.8,458.773 1576.96,459.738 1579.12,460.689 1581.29,461.628 1583.45,462.555 1585.61,463.469 1587.77,464.372 1589.93,465.262 1592.09,466.14 1594.25,467.007 1596.41,467.863 1598.57,468.707 1600.73,469.539 1602.9,470.361 1605.06,471.172 1607.22,471.972 1609.38,472.762 1611.54,473.541 1613.7,474.309 1615.86,475.068 1618.02,475.817 1620.18,476.555 1622.34,477.284 1624.51,478.003 1626.67,478.713 1628.83,479.413 1630.99,480.104 1633.15,480.786 1635.31,481.459 1637.47,482.123 1639.63,482.778 1641.79,483.424 1643.95,484.062 1646.12,484.691 1648.28,485.312 1650.44,485.924 1652.6,486.529 1654.76,487.125 1656.92,487.714 1659.08,488.295 1661.24,488.868 1663.4,489.433 1665.56,489.991 1667.72,490.542 1669.89,491.085 1672.05,491.621 1674.21,492.15 1676.37,492.672 1678.53,493.187 1680.69,493.695 1682.85,494.196 1685.01,494.691 1687.17,495.179 1689.33,495.661 1691.5,496.136 1693.66,496.606 1695.82,497.068 1697.98,497.525 1700.14,497.976 1702.3,498.377 1704.46,498.077 1706.62,496.933 1708.78,495.037 1710.94,492.475 1713.11,489.329 1715.27,485.678 1717.43,481.597 1719.59,477.154 1721.75,472.415 1723.91,467.44 1726.07,462.286 1728.23,457.005 1730.39,451.645 1732.55,446.249 1734.72,440.856 1736.88,435.5 1739.04,430.212 1741.2,425.019 1743.36,419.94 1745.52,414.994 1747.68,410.192 1749.84,405.545 1752,401.055 1754.16,396.722 1756.33,392.542 1758.49,388.505 1760.65,384.598 1762.81,380.804 1764.97,377.1 1767.13,373.459 1769.29,369.851 1771.45,366.241 1773.61,362.588 1775.77,358.924 1777.93,355.308 1780.1,351.74 1782.26,348.219 1784.42,344.745 1786.58,341.317 1788.74,337.934 1790.9,334.597 1793.06,331.303 1795.22,328.053 1797.38,324.847 1799.54,321.683 1801.71,318.56 1803.87,315.48 1806.03,312.44 1808.19,309.44 1810.35,306.48 1812.51,303.559 1814.67,300.678 1816.83,297.834 1818.99,295.028 1821.15,292.259 1823.32,289.527 1825.48,286.831 1827.64,284.17 1829.8,281.545 1831.96,278.955 1834.12,276.399 1836.28,273.877 1838.44,271.389 1840.6,268.933 1842.76,266.51 1844.93,264.119 1847.09,261.76 1849.25,259.432 1851.41,257.135 1853.57,254.869 1855.73,252.633 1857.89,250.426 1860.05,248.248 1862.21,246.1 1864.37,243.98 1866.54,241.888 1868.7,239.824 1870.86,237.787 1873.02,235.777 1875.18,233.794 1877.34,231.837 1879.5,229.906 1881.66,228.001 1883.82,226.121 1885.98,224.266 1888.15,222.435 1890.31,220.629 1892.47,218.846 1894.63,217.087 1896.79,215.352 1898.95,213.639 1901.11,211.95 1903.27,210.282 1905.43,208.637 1907.59,207.014 1909.75,205.412 1911.92,203.831 1914.08,202.271 1916.24,200.732 1918.4,200.122 1920.56,203.931 1922.72,211.689 1924.88,222.536 1927.04,235.697 1929.2,250.487 1931.36,266.308 1933.53,282.649 1935.69,299.087 1937.85,315.286 1940.01,330.999 1942.17,346.064 1944.33,360.409 1946.49,374.05 1948.65,387.087 1950.81,399.711 1952.97,412.2 1955.14,424.9 1957.3,437.619 1959.46,450.169 1961.62,462.553 1963.78,474.773 1965.94,486.831 1968.1,498.728 1970.26,510.468 1972.42,522.053 1974.58,533.484 1976.75,544.763 1978.91,555.893 1981.07,566.876 1983.23,577.713 1985.39,588.406 1987.55,598.958 1989.71,609.369 1991.87,619.643 1994.03,629.78 1996.19,639.783 1998.36,649.653 2000.52,659.392 2002.68,669.002 2004.84,678.485 2007,687.842 2009.16,697.074 2011.32,706.184 2013.48,715.174 2015.64,724.044 2017.8,732.797 2019.96,741.433 2022.13,749.955 2024.29,758.364 2026.45,766.662 2028.61,774.849 2030.77,782.928 2032.93,790.9 2035.09,798.767 2037.25,806.529 2039.41,814.188 2041.57,821.746 2043.74,829.204 2045.9,836.562 2048.06,843.823 2050.22,850.988 2052.38,858.058 2054.54,865.034 2056.7,871.918 2058.86,878.71 2061.02,885.413 2063.18,892.026 2065.35,898.552 2067.51,904.991 2069.67,911.345 2071.83,917.614 2073.99,923.801 2076.15,929.905 2078.31,935.929 2080.47,941.872 2082.63,947.737 2084.79,953.524 2086.96,959.235 2089.12,964.87 2091.28,970.43 2093.44,975.916 2095.6,981.329 2097.76,986.671 2099.92,991.942 2102.08,997.143 2104.24,1002.28 2106.4,1007.34 2108.57,1012.34 2110.73,1017.27 2112.89,1022.13 2115.05,1026.93 2117.21,1031.67 2119.37,1036.34 2121.53,1040.96 2123.69,1045.51 2125.85,1050 2128.01,1054.43 2130.17,1058.8 2132.34,1062.68 2134.5,1065.23 2136.66,1066.6 2138.82,1066.92 2140.98,1066.32 2143.14,1064.93 2145.3,1062.88 2147.46,1060.26 2149.62,1057.19 2151.78,1053.77 2153.95,1050.07 2156.11,1046.18 2158.27,1042.17 2160.43,1038.11 2162.59,1034.05 2164.75,1030.05 2166.91,1026.14 2169.07,1022.36 2171.23,1018.73 2173.39,1015.27 2175.56,1012 2177.72,1008.91 2179.88,1006 2182.04,1003.26 2184.2,1000.66 2186.36,998.187 2188.52,995.794 2190.68,993.441 2192.84,991.074 2195,988.636 2197.17,986.104 2199.33,983.594 2201.49,981.117 2203.65,978.673 2205.81,976.262 2207.97,973.882 2210.13,971.534 2212.29,969.217 2214.45,966.931 2216.61,964.675 2218.78,962.449 2220.94,960.253 2223.1,958.085 2225.26,955.947 2227.42,953.837 2229.58,951.754 2231.74,949.7 2233.9,947.672 2236.06,945.672 2238.22,943.697 2240.38,941.749 2242.55,939.827 2244.71,937.93 2246.87,936.058 2249.03,934.211 2251.19,932.388 2253.35,930.59 2255.51,928.816 2257.67,927.065 2259.83,925.337 2261.99,923.632 2264.16,921.95 2266.32,920.29 2268.48,918.652 2270.64,917.037 2272.8,915.442 2274.96,913.869 2277.12,912.316 2279.28,910.785 2281.44,909.273 2283.6,907.782 2285.77,906.31 2287.93,904.858 2290.09,903.426 2292.25,902.012 2294.41,900.617 2296.57,899.241 2298.73,897.883 2300.89,896.543 2303.05,895.22 2305.21,893.916 2307.38,892.628 2309.54,891.358 2311.7,890.104 2313.86,888.868 2316.02,887.647 2318.18,886.443 2320.34,885.254 2322.5,884.081 2324.66,882.924 2326.82,881.782 2328.99,880.656 2331.15,879.544 2333.31,878.446 2335.47,877.364 2337.63,876.295 2339.79,875.241 2341.95,874.201 2344.11,873.174 2346.27,872.162 2348.43,871.162 2350.59,870.176 2352.76,869.203 "/>
<polyline clip-path="url(#clip082)" style="stroke:#e26f46; stroke-linecap:round; stroke-linejoin:round; stroke-width:4; stroke-opacity:1; fill:none" points="193.936,1048.75 196.097,1048.75 198.258,1048.75 200.419,1048.75 202.58,1048.75 204.741,1048.75 206.902,1048.75 209.063,1048.75 211.224,1048.75 213.385,1048.75 215.546,1048.75 217.707,1048.75 219.868,1048.75 222.029,1048.75 224.19,1048.75 226.351,1048.75 228.512,1048.75 230.673,1048.75 232.834,1048.75 234.995,1048.75 237.156,1048.75 239.317,1048.75 241.478,1048.75 243.639,1048.75 245.8,1048.75 247.961,1048.75 250.122,1048.75 252.282,1048.75 254.443,1048.75 256.604,1048.75 258.765,1048.75 260.926,1048.75 263.087,1048.75 265.248,1048.75 267.409,1048.75 269.57,1048.75 271.731,1048.75 273.892,1048.75 276.053,1048.75 278.214,1048.75 280.375,1048.75 282.536,1048.75 284.697,1048.75 286.858,1048.75 289.019,1048.75 291.18,1048.75 293.341,1048.75 295.502,1048.75 297.663,1048.75 299.824,1048.75 301.985,1048.75 304.146,1048.75 306.307,1048.75 308.468,1048.75 310.629,1048.75 312.79,1048.75 314.951,1048.75 317.112,1048.75 319.273,1048.75 321.434,1048.75 323.595,1048.75 325.756,1048.75 327.917,1048.75 330.078,1048.75 332.239,1048.75 334.4,1048.75 336.561,1048.75 338.722,1048.75 340.883,1048.75 343.044,1048.75 345.205,1048.75 347.366,1048.75 349.527,1048.75 351.688,1048.75 353.849,1048.75 356.01,1048.75 358.171,1048.75 360.332,1048.75 362.493,1048.75 364.653,1048.75 366.814,1048.75 368.975,1048.75 371.136,1048.75 373.297,1048.75 375.458,1048.75 377.619,1048.75 379.78,1048.75 381.941,1048.75 384.102,1048.75 386.263,1048.75 388.424,1048.75 390.585,1048.75 392.746,1048.75 394.907,1048.75 397.068,1048.75 399.229,1048.75 401.39,1048.75 403.551,1048.75 405.712,1048.75 407.873,1048.75 410.034,555.769 412.195,555.769 414.356,555.769 416.517,555.769 418.678,555.769 420.839,555.769 423,555.769 425.161,555.769 427.322,555.769 429.483,555.769 431.644,555.769 433.805,555.769 435.966,555.769 438.127,555.769 440.288,555.769 442.449,555.769 444.61,555.769 446.771,555.769 448.932,555.769 451.093,555.769 453.254,555.769 455.415,555.769 457.576,555.769 459.737,555.769 461.898,555.769 464.059,555.769 466.22,555.769 468.381,555.769 470.542,555.769 472.703,555.769 474.864,555.769 477.024,555.769 479.185,555.769 481.346,555.769 483.507,555.769 485.668,555.769 487.829,555.769 489.99,555.769 492.151,555.769 494.312,555.769 496.473,555.769 498.634,555.769 500.795,555.769 502.956,555.769 505.117,555.769 507.278,555.769 509.439,555.769 511.6,555.769 513.761,555.769 515.922,555.769 518.083,555.769 520.244,555.769 522.405,555.769 524.566,555.769 526.727,555.769 528.888,555.769 531.049,555.769 533.21,555.769 535.371,555.769 537.532,555.769 539.693,555.769 541.854,555.769 544.015,555.769 546.176,555.769 548.337,555.769 550.498,555.769 552.659,555.769 554.82,555.769 556.981,555.769 559.142,555.769 561.303,555.769 563.464,555.769 565.625,555.769 567.786,555.769 569.947,555.769 572.108,555.769 574.269,555.769 576.43,555.769 578.591,555.769 580.752,555.769 582.913,555.769 585.074,555.769 587.235,555.769 589.396,555.769 591.556,555.769 593.717,555.769 595.878,555.769 598.039,555.769 600.2,555.769 602.361,555.769 604.522,555.769 606.683,555.769 608.844,555.769 611.005,555.769 613.166,555.769 615.327,555.769 617.488,555.769 619.649,555.769 621.81,555.769 623.971,555.769 626.132,874.444 628.293,874.444 630.454,874.444 632.615,874.444 634.776,874.444 636.937,874.444 639.098,874.444 641.259,874.444 643.42,874.444 645.581,874.444 647.742,874.444 649.903,874.444 652.064,874.444 654.225,874.444 656.386,874.444 658.547,874.444 660.708,874.444 662.869,874.444 665.03,874.444 667.191,874.444 669.352,874.444 671.513,874.444 673.674,874.444 675.835,874.444 677.996,874.444 680.157,874.444 682.318,874.444 684.479,874.444 686.64,874.444 688.801,874.444 690.962,874.444 693.123,874.444 695.284,874.444 697.445,874.444 699.606,874.444 701.767,874.444 703.927,874.444 706.088,874.444 708.249,874.444 710.41,874.444 712.571,874.444 714.732,874.444 716.893,874.444 719.054,874.444 721.215,874.444 723.376,874.444 725.537,874.444 727.698,874.444 729.859,874.444 732.02,874.444 734.181,874.444 736.342,874.444 738.503,874.444 740.664,874.444 742.825,874.444 744.986,874.444 747.147,874.444 749.308,874.444 751.469,874.444 753.63,874.444 755.791,874.444 757.952,874.444 760.113,874.444 762.274,874.444 764.435,874.444 766.596,874.444 768.757,874.444 770.918,874.444 773.079,874.444 775.24,874.444 777.401,874.444 779.562,874.444 781.723,874.444 783.884,874.444 786.045,874.444 788.206,874.444 790.367,874.444 792.528,874.444 794.689,874.444 796.85,874.444 799.011,874.444 801.172,874.444 803.333,874.444 805.494,874.444 807.655,874.444 809.816,874.444 811.977,874.444 814.138,874.444 816.298,874.444 818.459,874.444 820.62,874.444 822.781,874.444 824.942,874.444 827.103,874.444 829.264,874.444 831.425,874.444 833.586,874.444 835.747,874.444 837.908,874.444 840.069,874.444 842.23,1116.79 844.391,1116.79 846.552,1116.79 848.713,1116.79 850.874,1116.79 853.035,1116.79 855.196,1116.79 857.357,1116.79 859.518,1116.79 861.679,1116.79 863.84,1116.79 866.001,1116.79 868.162,1116.79 870.323,1116.79 872.484,1116.79 874.645,1116.79 876.806,1116.79 878.967,1116.79 881.128,1116.79 883.289,1116.79 885.45,1116.79 887.611,1116.79 889.772,1116.79 891.933,1116.79 894.094,1116.79 896.255,1116.79 898.416,1116.79 900.577,1116.79 902.738,1116.79 904.899,1116.79 907.06,1116.79 909.221,1116.79 911.382,1116.79 913.543,1116.79 915.704,1116.79 917.865,1116.79 920.026,1116.79 922.187,1116.79 924.348,1116.79 926.509,1116.79 928.669,1116.79 930.83,1116.79 932.991,1116.79 935.152,1116.79 937.313,1116.79 939.474,1116.79 941.635,1116.79 943.796,1116.79 945.957,1116.79 948.118,1116.79 950.279,1116.79 952.44,1116.79 954.601,1116.79 956.762,1116.79 958.923,1116.79 961.084,1116.79 963.245,1116.79 965.406,1116.79 967.567,1116.79 969.728,1116.79 971.889,1116.79 974.05,1116.79 976.211,1116.79 978.372,1116.79 980.533,1116.79 982.694,1116.79 984.855,1116.79 987.016,1116.79 989.177,1116.79 991.338,1116.79 993.499,1116.79 995.66,1116.79 997.821,1116.79 999.982,1116.79 1002.14,1116.79 1004.3,1116.79 1006.46,1116.79 1008.63,1116.79 1010.79,1116.79 1012.95,1116.79 1015.11,1116.79 1017.27,1116.79 1019.43,1116.79 1021.59,1116.79 1023.75,1116.79 1025.91,1116.79 1028.07,1116.79 1030.24,1116.79 1032.4,1116.79 1034.56,1116.79 1036.72,1116.79 1038.88,1116.79 1041.04,1116.79 1043.2,1116.79 1045.36,1116.79 1047.52,1116.79 1049.68,1116.79 1051.85,1116.79 1054.01,1116.79 1056.17,1116.79 1058.33,1014.89 1060.49,1014.89 1062.65,1014.89 1064.81,1014.89 1066.97,1014.89 1069.13,1014.89 1071.29,1014.89 1073.46,1014.89 1075.62,1014.89 1077.78,1014.89 1079.94,1014.89 1082.1,1014.89 1084.26,1014.89 1086.42,1014.89 1088.58,1014.89 1090.74,1014.89 1092.9,1014.89 1095.07,1014.89 1097.23,1014.89 1099.39,1014.89 1101.55,1014.89 1103.71,1014.89 1105.87,1014.89 1108.03,1014.89 1110.19,1014.89 1112.35,1014.89 1114.51,1014.89 1116.67,1014.89 1118.84,1014.89 1121,1014.89 1123.16,1014.89 1125.32,1014.89 1127.48,1014.89 1129.64,1014.89 1131.8,1014.89 1133.96,1014.89 1136.12,1014.89 1138.28,1014.89 1140.45,1014.89 1142.61,1014.89 1144.77,1014.89 1146.93,1014.89 1149.09,1014.89 1151.25,1014.89 1153.41,1014.89 1155.57,1014.89 1157.73,1014.89 1159.89,1014.89 1162.06,1014.89 1164.22,1014.89 1166.38,1014.89 1168.54,1014.89 1170.7,1014.89 1172.86,1014.89 1175.02,1014.89 1177.18,1014.89 1179.34,1014.89 1181.5,1014.89 1183.67,1014.89 1185.83,1014.89 1187.99,1014.89 1190.15,1014.89 1192.31,1014.89 1194.47,1014.89 1196.63,1014.89 1198.79,1014.89 1200.95,1014.89 1203.11,1014.89 1205.28,1014.89 1207.44,1014.89 1209.6,1014.89 1211.76,1014.89 1213.92,1014.89 1216.08,1014.89 1218.24,1014.89 1220.4,1014.89 1222.56,1014.89 1224.72,1014.89 1226.88,1014.89 1229.05,1014.89 1231.21,1014.89 1233.37,1014.89 1235.53,1014.89 1237.69,1014.89 1239.85,1014.89 1242.01,1014.89 1244.17,1014.89 1246.33,1014.89 1248.49,1014.89 1250.66,1014.89 1252.82,1014.89 1254.98,1014.89 1257.14,1014.89 1259.3,1014.89 1261.46,1014.89 1263.62,1014.89 1265.78,1014.89 1267.94,1014.89 1270.1,1014.89 1272.27,1014.89 1274.43,206.093 1276.59,206.093 1278.75,206.093 1280.91,206.093 1283.07,206.093 1285.23,206.093 1287.39,206.093 1289.55,206.093 1291.71,206.093 1293.88,206.093 1296.04,206.093 1298.2,206.093 1300.36,206.093 1302.52,206.093 1304.68,206.093 1306.84,206.093 1309,206.093 1311.16,206.093 1313.32,206.093 1315.49,206.093 1317.65,206.093 1319.81,206.093 1321.97,206.093 1324.13,206.093 1326.29,206.093 1328.45,206.093 1330.61,206.093 1332.77,206.093 1334.93,206.093 1337.09,206.093 1339.26,206.093 1341.42,206.093 1343.58,206.093 1345.74,206.093 1347.9,206.093 1350.06,206.093 1352.22,206.093 1354.38,206.093 1356.54,206.093 1358.7,206.093 1360.87,206.093 1363.03,206.093 1365.19,206.093 1367.35,206.093 1369.51,206.093 1371.67,206.093 1373.83,206.093 1375.99,206.093 1378.15,206.093 1380.31,206.093 1382.48,206.093 1384.64,206.093 1386.8,206.093 1388.96,206.093 1391.12,206.093 1393.28,206.093 1395.44,206.093 1397.6,206.093 1399.76,206.093 1401.92,206.093 1404.09,206.093 1406.25,206.093 1408.41,206.093 1410.57,206.093 1412.73,206.093 1414.89,206.093 1417.05,206.093 1419.21,206.093 1421.37,206.093 1423.53,206.093 1425.7,206.093 1427.86,206.093 1430.02,206.093 1432.18,206.093 1434.34,206.093 1436.5,206.093 1438.66,206.093 1440.82,206.093 1442.98,206.093 1445.14,206.093 1447.3,206.093 1449.47,206.093 1451.63,206.093 1453.79,206.093 1455.95,206.093 1458.11,206.093 1460.27,206.093 1462.43,206.093 1464.59,206.093 1466.75,206.093 1468.91,206.093 1471.08,206.093 1473.24,206.093 1475.4,206.093 1477.56,206.093 1479.72,206.093 1481.88,206.093 1484.04,206.093 1486.2,206.093 1488.36,206.093 1490.52,531.522 1492.69,531.522 1494.85,531.522 1497.01,531.522 1499.17,531.522 1501.33,531.522 1503.49,531.522 1505.65,531.522 1507.81,531.522 1509.97,531.522 1512.13,531.522 1514.3,531.522 1516.46,531.522 1518.62,531.522 1520.78,531.522 1522.94,531.522 1525.1,531.522 1527.26,531.522 1529.42,531.522 1531.58,531.522 1533.74,531.522 1535.91,531.522 1538.07,531.522 1540.23,531.522 1542.39,531.522 1544.55,531.522 1546.71,531.522 1548.87,531.522 1551.03,531.522 1553.19,531.522 1555.35,531.522 1557.51,531.522 1559.68,531.522 1561.84,531.522 1564,531.522 1566.16,531.522 1568.32,531.522 1570.48,531.522 1572.64,531.522 1574.8,531.522 1576.96,531.522 1579.12,531.522 1581.29,531.522 1583.45,531.522 1585.61,531.522 1587.77,531.522 1589.93,531.522 1592.09,531.522 1594.25,531.522 1596.41,531.522 1598.57,531.522 1600.73,531.522 1602.9,531.522 1605.06,531.522 1607.22,531.522 1609.38,531.522 1611.54,531.522 1613.7,531.522 1615.86,531.522 1618.02,531.522 1620.18,531.522 1622.34,531.522 1624.51,531.522 1626.67,531.522 1628.83,531.522 1630.99,531.522 1633.15,531.522 1635.31,531.522 1637.47,531.522 1639.63,531.522 1641.79,531.522 1643.95,531.522 1646.12,531.522 1648.28,531.522 1650.44,531.522 1652.6,531.522 1654.76,531.522 1656.92,531.522 1659.08,531.522 1661.24,531.522 1663.4,531.522 1665.56,531.522 1667.72,531.522 1669.89,531.522 1672.05,531.522 1674.21,531.522 1676.37,531.522 1678.53,531.522 1680.69,531.522 1682.85,531.522 1685.01,531.522 1687.17,531.522 1689.33,531.522 1691.5,531.522 1693.66,531.522 1695.82,531.522 1697.98,531.522 1700.14,531.522 1702.3,531.522 1704.46,531.522 1706.62,86.1857 1708.78,86.1857 1710.94,86.1857 1713.11,86.1857 1715.27,86.1857 1717.43,86.1857 1719.59,86.1857 1721.75,86.1857 1723.91,86.1857 1726.07,86.1857 1728.23,86.1857 1730.39,86.1857 1732.55,86.1857 1734.72,86.1857 1736.88,86.1857 1739.04,86.1857 1741.2,86.1857 1743.36,86.1857 1745.52,86.1857 1747.68,86.1857 1749.84,86.1857 1752,86.1857 1754.16,86.1857 1756.33,86.1857 1758.49,86.1857 1760.65,86.1857 1762.81,86.1857 1764.97,86.1857 1767.13,86.1857 1769.29,86.1857 1771.45,86.1857 1773.61,86.1857 1775.77,86.1857 1777.93,86.1857 1780.1,86.1857 1782.26,86.1857 1784.42,86.1857 1786.58,86.1857 1788.74,86.1857 1790.9,86.1857 1793.06,86.1857 1795.22,86.1857 1797.38,86.1857 1799.54,86.1857 1801.71,86.1857 1803.87,86.1857 1806.03,86.1857 1808.19,86.1857 1810.35,86.1857 1812.51,86.1857 1814.67,86.1857 1816.83,86.1857 1818.99,86.1857 1821.15,86.1857 1823.32,86.1857 1825.48,86.1857 1827.64,86.1857 1829.8,86.1857 1831.96,86.1857 1834.12,86.1857 1836.28,86.1857 1838.44,86.1857 1840.6,86.1857 1842.76,86.1857 1844.93,86.1857 1847.09,86.1857 1849.25,86.1857 1851.41,86.1857 1853.57,86.1857 1855.73,86.1857 1857.89,86.1857 1860.05,86.1857 1862.21,86.1857 1864.37,86.1857 1866.54,86.1857 1868.7,86.1857 1870.86,86.1857 1873.02,86.1857 1875.18,86.1857 1877.34,86.1857 1879.5,86.1857 1881.66,86.1857 1883.82,86.1857 1885.98,86.1857 1888.15,86.1857 1890.31,86.1857 1892.47,86.1857 1894.63,86.1857 1896.79,86.1857 1898.95,86.1857 1901.11,86.1857 1903.27,86.1857 1905.43,86.1857 1907.59,86.1857 1909.75,86.1857 1911.92,86.1857 1914.08,86.1857 1916.24,86.1857 1918.4,86.1857 1920.56,86.1857 1922.72,1384.24 1924.88,1384.24 1927.04,1384.24 1929.2,1384.24 1931.36,1384.24 1933.53,1384.24 1935.69,1384.24 1937.85,1384.24 1940.01,1384.24 1942.17,1384.24 1944.33,1384.24 1946.49,1384.24 1948.65,1384.24 1950.81,1384.24 1952.97,1384.24 1955.14,1384.24 1957.3,1384.24 1959.46,1384.24 1961.62,1384.24 1963.78,1384.24 1965.94,1384.24 1968.1,1384.24 1970.26,1384.24 1972.42,1384.24 1974.58,1384.24 1976.75,1384.24 1978.91,1384.24 1981.07,1384.24 1983.23,1384.24 1985.39,1384.24 1987.55,1384.24 1989.71,1384.24 1991.87,1384.24 1994.03,1384.24 1996.19,1384.24 1998.36,1384.24 2000.52,1384.24 2002.68,1384.24 2004.84,1384.24 2007,1384.24 2009.16,1384.24 2011.32,1384.24 2013.48,1384.24 2015.64,1384.24 2017.8,1384.24 2019.96,1384.24 2022.13,1384.24 2024.29,1384.24 2026.45,1384.24 2028.61,1384.24 2030.77,1384.24 2032.93,1384.24 2035.09,1384.24 2037.25,1384.24 2039.41,1384.24 2041.57,1384.24 2043.74,1384.24 2045.9,1384.24 2048.06,1384.24 2050.22,1384.24 2052.38,1384.24 2054.54,1384.24 2056.7,1384.24 2058.86,1384.24 2061.02,1384.24 2063.18,1384.24 2065.35,1384.24 2067.51,1384.24 2069.67,1384.24 2071.83,1384.24 2073.99,1384.24 2076.15,1384.24 2078.31,1384.24 2080.47,1384.24 2082.63,1384.24 2084.79,1384.24 2086.96,1384.24 2089.12,1384.24 2091.28,1384.24 2093.44,1384.24 2095.6,1384.24 2097.76,1384.24 2099.92,1384.24 2102.08,1384.24 2104.24,1384.24 2106.4,1384.24 2108.57,1384.24 2110.73,1384.24 2112.89,1384.24 2115.05,1384.24 2117.21,1384.24 2119.37,1384.24 2121.53,1384.24 2123.69,1384.24 2125.85,1384.24 2128.01,1384.24 2130.17,1384.24 2132.34,1384.24 2134.5,1384.24 2136.66,1384.24 2138.82,796.781 2140.98,796.781 2143.14,796.781 2145.3,796.781 2147.46,796.781 2149.62,796.781 2151.78,796.781 2153.95,796.781 2156.11,796.781 2158.27,796.781 2160.43,796.781 2162.59,796.781 2164.75,796.781 2166.91,796.781 2169.07,796.781 2171.23,796.781 2173.39,796.781 2175.56,796.781 2177.72,796.781 2179.88,796.781 2182.04,796.781 2184.2,796.781 2186.36,796.781 2188.52,796.781 2190.68,796.781 2192.84,796.781 2195,796.781 2197.17,796.781 2199.33,796.781 2201.49,796.781 2203.65,796.781 2205.81,796.781 2207.97,796.781 2210.13,796.781 2212.29,796.781 2214.45,796.781 2216.61,796.781 2218.78,796.781 2220.94,796.781 2223.1,796.781 2225.26,796.781 2227.42,796.781 2229.58,796.781 2231.74,796.781 2233.9,796.781 2236.06,796.781 2238.22,796.781 2240.38,796.781 2242.55,796.781 2244.71,796.781 2246.87,796.781 2249.03,796.781 2251.19,796.781 2253.35,796.781 2255.51,796.781 2257.67,796.781 2259.83,796.781 2261.99,796.781 2264.16,796.781 2266.32,796.781 2268.48,796.781 2270.64,796.781 2272.8,796.781 2274.96,796.781 2277.12,796.781 2279.28,796.781 2281.44,796.781 2283.6,796.781 2285.77,796.781 2287.93,796.781 2290.09,796.781 2292.25,796.781 2294.41,796.781 2296.57,796.781 2298.73,796.781 2300.89,796.781 2303.05,796.781 2305.21,796.781 2307.38,796.781 2309.54,796.781 2311.7,796.781 2313.86,796.781 2316.02,796.781 2318.18,796.781 2320.34,796.781 2322.5,796.781 2324.66,796.781 2326.82,796.781 2328.99,796.781 2331.15,796.781 2333.31,796.781 2335.47,796.781 2337.63,796.781 2339.79,796.781 2341.95,796.781 2344.11,796.781 2346.27,796.781 2348.43,796.781 2350.59,796.781 2352.76,796.781 "/>
<path clip-path="url(#clip080)" d="M265.897 248.629 L506.917 248.629 L506.917 93.1086 L265.897 93.1086  Z" fill="#ffffff" fill-rule="evenodd" fill-opacity="1"/>
<polyline clip-path="url(#clip080)" style="stroke:#000000; stroke-linecap:round; stroke-linejoin:round; stroke-width:4; stroke-opacity:1; fill:none" points="265.897,248.629 506.917,248.629 506.917,93.1086 265.897,93.1086 265.897,248.629 "/>
<polyline clip-path="url(#clip080)" style="stroke:#009af9; stroke-linecap:round; stroke-linejoin:round; stroke-width:4; stroke-opacity:1; fill:none" points="289.884,144.949 433.805,144.949 "/>
<path clip-path="url(#clip080)" d="M482.444 136.303 L473.069 148.919 L482.931 162.229 L477.907 162.229 L470.361 152.043 L462.815 162.229 L457.792 162.229 L467.861 148.664 L458.648 136.303 L463.671 136.303 L470.546 145.539 L477.421 136.303 L482.444 136.303 Z" fill="#000000" fill-rule="nonzero" fill-opacity="1" /><polyline clip-path="url(#clip080)" style="stroke:#e26f46; stroke-linecap:round; stroke-linejoin:round; stroke-width:4; stroke-opacity:1; fill:none" points="289.884,196.789 433.805,196.789 "/>
<path clip-path="url(#clip080)" d="M474.296 178.05 L474.296 181.592 L470.222 181.592 Q467.931 181.592 467.028 182.518 Q466.148 183.444 466.148 185.851 L466.148 188.143 L473.162 188.143 L473.162 191.453 L466.148 191.453 L466.148 214.069 L461.866 214.069 L461.866 191.453 L457.792 191.453 L457.792 188.143 L461.866 188.143 L461.866 186.337 Q461.866 182.009 463.88 180.041 Q465.894 178.05 470.269 178.05 L474.296 178.05 Z" fill="#000000" fill-rule="nonzero" fill-opacity="1" /></svg>
