<?xml version="1.0" encoding="utf-8"?>
<svg xmlns="http://www.w3.org/2000/svg" xmlns:xlink="http://www.w3.org/1999/xlink" width="600" height="400" viewBox="0 0 2400 1600">
<defs>
  <clipPath id="clip750">
    <rect x="0" y="0" width="2400" height="1600"/>
  </clipPath>
</defs>
<path clip-path="url(#clip750)" d="M0 1600 L2400 1600 L2400 0 L0 0  Z" fill="#ffffff" fill-rule="evenodd" fill-opacity="1"/>
<defs>
  <clipPath id="clip751">
    <rect x="480" y="0" width="1681" height="1600"/>
  </clipPath>
</defs>
<path clip-path="url(#clip750)" d="M193.936 1423.18 L2352.76 1423.18 L2352.76 47.2441 L193.936 47.2441  Z" fill="#ffffff" fill-rule="evenodd" fill-opacity="1"/>
<defs>
  <clipPath id="clip752">
    <rect x="193" y="47" width="2160" height="1377"/>
  </clipPath>
</defs>
<polyline clip-path="url(#clip752)" style="stroke:#000000; stroke-linecap:round; stroke-linejoin:round; stroke-width:2; stroke-opacity:0.1; fill:none" points="193.936,1423.18 193.936,47.2441 "/>
<polyline clip-path="url(#clip752)" style="stroke:#000000; stroke-linecap:round; stroke-linejoin:round; stroke-width:2; stroke-opacity:0.1; fill:none" points="625.7,1423.18 625.7,47.2441 "/>
<polyline clip-path="url(#clip752)" style="stroke:#000000; stroke-linecap:round; stroke-linejoin:round; stroke-width:2; stroke-opacity:0.1; fill:none" points="1057.46,1423.18 1057.46,47.2441 "/>
<polyline clip-path="url(#clip752)" style="stroke:#000000; stroke-linecap:round; stroke-linejoin:round; stroke-width:2; stroke-opacity:0.1; fill:none" points="1489.23,1423.18 1489.23,47.2441 "/>
<polyline clip-path="url(#clip752)" style="stroke:#000000; stroke-linecap:round; stroke-linejoin:round; stroke-width:2; stroke-opacity:0.1; fill:none" points="1920.99,1423.18 1920.99,47.2441 "/>
<polyline clip-path="url(#clip752)" style="stroke:#000000; stroke-linecap:round; stroke-linejoin:round; stroke-width:2; stroke-opacity:0.1; fill:none" points="2352.76,1423.18 2352.76,47.2441 "/>
<polyline clip-path="url(#clip752)" style="stroke:#000000; stroke-linecap:round; stroke-linejoin:round; stroke-width:2; stroke-opacity:0.1; fill:none" points="193.936,1281.88 2352.76,1281.88 "/>
<polyline clip-path="url(#clip752)" style="stroke:#000000; stroke-linecap:round; stroke-linejoin:round; stroke-width:2; stroke-opacity:0.1; fill:none" points="193.936,1100.75 2352.76,1100.75 "/>
<polyline clip-path="url(#clip752)" style="stroke:#000000; stroke-linecap:round; stroke-linejoin:round; stroke-width:2; stroke-opacity:0.1; fill:none" points="193.936,919.609 2352.76,919.609 "/>
<polyline clip-path="url(#clip752)" style="stroke:#000000; stroke-linecap:round; stroke-linejoin:round; stroke-width:2; stroke-opacity:0.1; fill:none" points="193.936,738.471 2352.76,738.471 "/>
<polyline clip-path="url(#clip752)" style="stroke:#000000; stroke-linecap:round; stroke-linejoin:round; stroke-width:2; stroke-opacity:0.1; fill:none" points="193.936,557.334 2352.76,557.334 "/>
<polyline clip-path="url(#clip752)" style="stroke:#000000; stroke-linecap:round; stroke-linejoin:round; stroke-width:2; stroke-opacity:0.1; fill:none" points="193.936,376.196 2352.76,376.196 "/>
<polyline clip-path="url(#clip752)" style="stroke:#000000; stroke-linecap:round; stroke-linejoin:round; stroke-width:2; stroke-opacity:0.1; fill:none" points="193.936,195.059 2352.76,195.059 "/>
<polyline clip-path="url(#clip750)" style="stroke:#000000; stroke-linecap:round; stroke-linejoin:round; stroke-width:4; stroke-opacity:1; fill:none" points="193.936,1423.18 2352.76,1423.18 "/>
<polyline clip-path="url(#clip750)" style="stroke:#000000; stroke-linecap:round; stroke-linejoin:round; stroke-width:4; stroke-opacity:1; fill:none" points="193.936,1423.18 193.936,1404.28 "/>
<polyline clip-path="url(#clip750)" style="stroke:#000000; stroke-linecap:round; stroke-linejoin:round; stroke-width:4; stroke-opacity:1; fill:none" points="625.7,1423.18 625.7,1404.28 "/>
<polyline clip-path="url(#clip750)" style="stroke:#000000; stroke-linecap:round; stroke-linejoin:round; stroke-width:4; stroke-opacity:1; fill:none" points="1057.46,1423.18 1057.46,1404.28 "/>
<polyline clip-path="url(#clip750)" style="stroke:#000000; stroke-linecap:round; stroke-linejoin:round; stroke-width:4; stroke-opacity:1; fill:none" points="1489.23,1423.18 1489.23,1404.28 "/>
<polyline clip-path="url(#clip750)" style="stroke:#000000; stroke-linecap:round; stroke-linejoin:round; stroke-width:4; stroke-opacity:1; fill:none" points="1920.99,1423.18 1920.99,1404.28 "/>
<polyline clip-path="url(#clip750)" style="stroke:#000000; stroke-linecap:round; stroke-linejoin:round; stroke-width:4; stroke-opacity:1; fill:none" points="2352.76,1423.18 2352.76,1404.28 "/>
<path clip-path="url(#clip750)" d="M193.936 1454.1 Q190.325 1454.1 188.496 1457.66 Q186.691 1461.2 186.691 1468.33 Q186.691 1475.44 188.496 1479.01 Q190.325 1482.55 193.936 1482.55 Q197.57 1482.55 199.376 1479.01 Q201.204 1475.44 201.204 1468.33 Q201.204 1461.2 199.376 1457.66 Q197.57 1454.1 193.936 1454.1 M193.936 1450.39 Q199.746 1450.39 202.802 1455 Q205.88 1459.58 205.88 1468.33 Q205.88 1477.06 202.802 1481.67 Q199.746 1486.25 193.936 1486.25 Q188.126 1486.25 185.047 1481.67 Q181.992 1477.06 181.992 1468.33 Q181.992 1459.58 185.047 1455 Q188.126 1450.39 193.936 1450.39 Z" fill="#000000" fill-rule="nonzero" fill-opacity="1" /><path clip-path="url(#clip750)" d="M620.353 1481.64 L636.672 1481.64 L636.672 1485.58 L614.728 1485.58 L614.728 1481.64 Q617.39 1478.89 621.973 1474.26 Q626.58 1469.61 627.76 1468.27 Q630.006 1465.74 630.885 1464.01 Q631.788 1462.25 631.788 1460.56 Q631.788 1457.8 629.843 1456.07 Q627.922 1454.33 624.82 1454.33 Q622.621 1454.33 620.168 1455.09 Q617.737 1455.86 614.959 1457.41 L614.959 1452.69 Q617.783 1451.55 620.237 1450.97 Q622.691 1450.39 624.728 1450.39 Q630.098 1450.39 633.293 1453.08 Q636.487 1455.77 636.487 1460.26 Q636.487 1462.39 635.677 1464.31 Q634.89 1466.2 632.783 1468.8 Q632.205 1469.47 629.103 1472.69 Q626.001 1475.88 620.353 1481.64 Z" fill="#000000" fill-rule="nonzero" fill-opacity="1" /><path clip-path="url(#clip750)" d="M1060.47 1455.09 L1048.67 1473.54 L1060.47 1473.54 L1060.47 1455.09 M1059.25 1451.02 L1065.13 1451.02 L1065.13 1473.54 L1070.06 1473.54 L1070.06 1477.43 L1065.13 1477.43 L1065.13 1485.58 L1060.47 1485.58 L1060.47 1477.43 L1044.87 1477.43 L1044.87 1472.92 L1059.25 1451.02 Z" fill="#000000" fill-rule="nonzero" fill-opacity="1" /><path clip-path="url(#clip750)" d="M1489.63 1466.44 Q1486.48 1466.44 1484.63 1468.59 Q1482.8 1470.74 1482.8 1474.49 Q1482.8 1478.22 1484.63 1480.39 Q1486.48 1482.55 1489.63 1482.55 Q1492.78 1482.55 1494.61 1480.39 Q1496.46 1478.22 1496.46 1474.49 Q1496.46 1470.74 1494.61 1468.59 Q1492.78 1466.44 1489.63 1466.44 M1498.92 1451.78 L1498.92 1456.04 Q1497.16 1455.21 1495.35 1454.77 Q1493.57 1454.33 1491.81 1454.33 Q1487.18 1454.33 1484.73 1457.45 Q1482.3 1460.58 1481.95 1466.9 Q1483.31 1464.89 1485.37 1463.82 Q1487.43 1462.73 1489.91 1462.73 Q1495.12 1462.73 1498.13 1465.9 Q1501.16 1469.05 1501.16 1474.49 Q1501.16 1479.82 1498.01 1483.03 Q1494.86 1486.25 1489.63 1486.25 Q1483.64 1486.25 1480.47 1481.67 Q1477.3 1477.06 1477.3 1468.33 Q1477.3 1460.14 1481.18 1455.28 Q1485.07 1450.39 1491.62 1450.39 Q1493.38 1450.39 1495.17 1450.74 Q1496.97 1451.09 1498.92 1451.78 Z" fill="#000000" fill-rule="nonzero" fill-opacity="1" /><path clip-path="url(#clip750)" d="M1920.99 1469.17 Q1917.66 1469.17 1915.74 1470.95 Q1913.84 1472.73 1913.84 1475.86 Q1913.84 1478.98 1915.74 1480.77 Q1917.66 1482.55 1920.99 1482.55 Q1924.33 1482.55 1926.25 1480.77 Q1928.17 1478.96 1928.17 1475.86 Q1928.17 1472.73 1926.25 1470.95 Q1924.35 1469.17 1920.99 1469.17 M1916.32 1467.18 Q1913.31 1466.44 1911.62 1464.38 Q1909.95 1462.32 1909.95 1459.35 Q1909.95 1455.21 1912.89 1452.8 Q1915.85 1450.39 1920.99 1450.39 Q1926.15 1450.39 1929.09 1452.8 Q1932.03 1455.21 1932.03 1459.35 Q1932.03 1462.32 1930.34 1464.38 Q1928.68 1466.44 1925.69 1467.18 Q1929.07 1467.96 1930.95 1470.26 Q1932.84 1472.55 1932.84 1475.86 Q1932.84 1480.88 1929.77 1483.57 Q1926.71 1486.25 1920.99 1486.25 Q1915.27 1486.25 1912.2 1483.57 Q1909.14 1480.88 1909.14 1475.86 Q1909.14 1472.55 1911.04 1470.26 Q1912.94 1467.96 1916.32 1467.18 M1914.6 1459.79 Q1914.6 1462.48 1916.27 1463.98 Q1917.96 1465.49 1920.99 1465.49 Q1924 1465.49 1925.69 1463.98 Q1927.4 1462.48 1927.4 1459.79 Q1927.4 1457.11 1925.69 1455.6 Q1924 1454.1 1920.99 1454.1 Q1917.96 1454.1 1916.27 1455.6 Q1914.6 1457.11 1914.6 1459.79 Z" fill="#000000" fill-rule="nonzero" fill-opacity="1" /><path clip-path="url(#clip750)" d="M2327.44 1481.64 L2335.08 1481.64 L2335.08 1455.28 L2326.77 1456.95 L2326.77 1452.69 L2335.04 1451.02 L2339.71 1451.02 L2339.71 1481.64 L2347.35 1481.64 L2347.35 1485.58 L2327.44 1485.58 L2327.44 1481.64 Z" fill="#000000" fill-rule="nonzero" fill-opacity="1" /><path clip-path="url(#clip750)" d="M2366.8 1454.1 Q2363.18 1454.1 2361.36 1457.66 Q2359.55 1461.2 2359.55 1468.33 Q2359.55 1475.44 2361.36 1479.01 Q2363.18 1482.55 2366.8 1482.55 Q2370.43 1482.55 2372.23 1479.01 Q2374.06 1475.44 2374.06 1468.33 Q2374.06 1461.2 2372.23 1457.66 Q2370.43 1454.1 2366.8 1454.1 M2366.8 1450.39 Q2372.61 1450.39 2375.66 1455 Q2378.74 1459.58 2378.74 1468.33 Q2378.74 1477.06 2375.66 1481.67 Q2372.61 1486.25 2366.8 1486.25 Q2360.99 1486.25 2357.91 1481.67 Q2354.85 1477.06 2354.85 1468.33 Q2354.85 1459.58 2357.91 1455 Q2360.99 1450.39 2366.8 1450.39 Z" fill="#000000" fill-rule="nonzero" fill-opacity="1" /><path clip-path="url(#clip750)" d="M1272.41 1522.27 L1272.41 1532.4 L1284.47 1532.4 L1284.47 1536.95 L1272.41 1536.95 L1272.41 1556.3 Q1272.41 1560.66 1273.58 1561.9 Q1274.79 1563.14 1278.45 1563.14 L1284.47 1563.14 L1284.47 1568.04 L1278.45 1568.04 Q1271.67 1568.04 1269.1 1565.53 Q1266.52 1562.98 1266.52 1556.3 L1266.52 1536.95 L1262.22 1536.95 L1262.22 1532.4 L1266.52 1532.4 L1266.52 1522.27 L1272.41 1522.27 Z" fill="#000000" fill-rule="nonzero" fill-opacity="1" /><polyline clip-path="url(#clip750)" style="stroke:#000000; stroke-linecap:round; stroke-linejoin:round; stroke-width:4; stroke-opacity:1; fill:none" points="193.936,1423.18 193.936,47.2441 "/>
<polyline clip-path="url(#clip750)" style="stroke:#000000; stroke-linecap:round; stroke-linejoin:round; stroke-width:4; stroke-opacity:1; fill:none" points="193.936,1281.88 212.834,1281.88 "/>
<polyline clip-path="url(#clip750)" style="stroke:#000000; stroke-linecap:round; stroke-linejoin:round; stroke-width:4; stroke-opacity:1; fill:none" points="193.936,1100.75 212.834,1100.75 "/>
<polyline clip-path="url(#clip750)" style="stroke:#000000; stroke-linecap:round; stroke-linejoin:round; stroke-width:4; stroke-opacity:1; fill:none" points="193.936,919.609 212.834,919.609 "/>
<polyline clip-path="url(#clip750)" style="stroke:#000000; stroke-linecap:round; stroke-linejoin:round; stroke-width:4; stroke-opacity:1; fill:none" points="193.936,738.471 212.834,738.471 "/>
<polyline clip-path="url(#clip750)" style="stroke:#000000; stroke-linecap:round; stroke-linejoin:round; stroke-width:4; stroke-opacity:1; fill:none" points="193.936,557.334 212.834,557.334 "/>
<polyline clip-path="url(#clip750)" style="stroke:#000000; stroke-linecap:round; stroke-linejoin:round; stroke-width:4; stroke-opacity:1; fill:none" points="193.936,376.196 212.834,376.196 "/>
<polyline clip-path="url(#clip750)" style="stroke:#000000; stroke-linecap:round; stroke-linejoin:round; stroke-width:4; stroke-opacity:1; fill:none" points="193.936,195.059 212.834,195.059 "/>
<path clip-path="url(#clip750)" d="M51.9875 1282.33 L81.6633 1282.33 L81.6633 1286.27 L51.9875 1286.27 L51.9875 1282.33 Z" fill="#000000" fill-rule="nonzero" fill-opacity="1" /><path clip-path="url(#clip750)" d="M92.566 1295.23 L100.205 1295.23 L100.205 1268.86 L91.8947 1270.53 L91.8947 1266.27 L100.159 1264.6 L104.834 1264.6 L104.834 1295.23 L112.473 1295.23 L112.473 1299.16 L92.566 1299.16 L92.566 1295.23 Z" fill="#000000" fill-rule="nonzero" fill-opacity="1" /><path clip-path="url(#clip750)" d="M121.918 1293.28 L126.802 1293.28 L126.802 1299.16 L121.918 1299.16 L121.918 1293.28 Z" fill="#000000" fill-rule="nonzero" fill-opacity="1" /><path clip-path="url(#clip750)" d="M137.033 1264.6 L155.39 1264.6 L155.39 1268.54 L141.316 1268.54 L141.316 1277.01 Q142.334 1276.66 143.353 1276.5 Q144.371 1276.32 145.39 1276.32 Q151.177 1276.32 154.556 1279.49 Q157.936 1282.66 157.936 1288.08 Q157.936 1293.65 154.464 1296.76 Q150.992 1299.83 144.672 1299.83 Q142.496 1299.83 140.228 1299.46 Q137.982 1299.09 135.575 1298.35 L135.575 1293.65 Q137.658 1294.79 139.881 1295.34 Q142.103 1295.9 144.58 1295.9 Q148.584 1295.9 150.922 1293.79 Q153.26 1291.69 153.26 1288.08 Q153.26 1284.46 150.922 1282.36 Q148.584 1280.25 144.58 1280.25 Q142.705 1280.25 140.83 1280.67 Q138.978 1281.08 137.033 1281.96 L137.033 1264.6 Z" fill="#000000" fill-rule="nonzero" fill-opacity="1" /><path clip-path="url(#clip750)" d="M50.9921 1101.2 L80.6679 1101.2 L80.6679 1105.13 L50.9921 1105.13 L50.9921 1101.2 Z" fill="#000000" fill-rule="nonzero" fill-opacity="1" /><path clip-path="url(#clip750)" d="M91.5706 1114.09 L99.2095 1114.09 L99.2095 1087.73 L90.8993 1089.39 L90.8993 1085.13 L99.1632 1083.47 L103.839 1083.47 L103.839 1114.09 L111.478 1114.09 L111.478 1118.03 L91.5706 1118.03 L91.5706 1114.09 Z" fill="#000000" fill-rule="nonzero" fill-opacity="1" /><path clip-path="url(#clip750)" d="M120.922 1112.15 L125.807 1112.15 L125.807 1118.03 L120.922 1118.03 L120.922 1112.15 Z" fill="#000000" fill-rule="nonzero" fill-opacity="1" /><path clip-path="url(#clip750)" d="M145.992 1086.54 Q142.381 1086.54 140.552 1090.11 Q138.746 1093.65 138.746 1100.78 Q138.746 1107.89 140.552 1111.45 Q142.381 1114.99 145.992 1114.99 Q149.626 1114.99 151.431 1111.45 Q153.26 1107.89 153.26 1100.78 Q153.26 1093.65 151.431 1090.11 Q149.626 1086.54 145.992 1086.54 M145.992 1082.84 Q151.802 1082.84 154.857 1087.45 Q157.936 1092.03 157.936 1100.78 Q157.936 1109.51 154.857 1114.11 Q151.802 1118.7 145.992 1118.7 Q140.181 1118.7 137.103 1114.11 Q134.047 1109.51 134.047 1100.78 Q134.047 1092.03 137.103 1087.45 Q140.181 1082.84 145.992 1082.84 Z" fill="#000000" fill-rule="nonzero" fill-opacity="1" /><path clip-path="url(#clip750)" d="M51.9875 920.06 L81.6633 920.06 L81.6633 923.995 L51.9875 923.995 L51.9875 920.06 Z" fill="#000000" fill-rule="nonzero" fill-opacity="1" /><path clip-path="url(#clip750)" d="M101.756 905.407 Q98.1447 905.407 96.316 908.972 Q94.5104 912.514 94.5104 919.643 Q94.5104 926.75 96.316 930.315 Q98.1447 933.856 101.756 933.856 Q105.39 933.856 107.196 930.315 Q109.024 926.75 109.024 919.643 Q109.024 912.514 107.196 908.972 Q105.39 905.407 101.756 905.407 M101.756 901.704 Q107.566 901.704 110.621 906.31 Q113.7 910.893 113.7 919.643 Q113.7 928.37 110.621 932.977 Q107.566 937.56 101.756 937.56 Q95.9456 937.56 92.8669 932.977 Q89.8114 928.37 89.8114 919.643 Q89.8114 910.893 92.8669 906.31 Q95.9456 901.704 101.756 901.704 Z" fill="#000000" fill-rule="nonzero" fill-opacity="1" /><path clip-path="url(#clip750)" d="M121.918 931.009 L126.802 931.009 L126.802 936.889 L121.918 936.889 L121.918 931.009 Z" fill="#000000" fill-rule="nonzero" fill-opacity="1" /><path clip-path="url(#clip750)" d="M137.033 902.329 L155.39 902.329 L155.39 906.264 L141.316 906.264 L141.316 914.736 Q142.334 914.389 143.353 914.227 Q144.371 914.041 145.39 914.041 Q151.177 914.041 154.556 917.213 Q157.936 920.384 157.936 925.801 Q157.936 931.379 154.464 934.481 Q150.992 937.56 144.672 937.56 Q142.496 937.56 140.228 937.19 Q137.982 936.819 135.575 936.078 L135.575 931.379 Q137.658 932.514 139.881 933.069 Q142.103 933.625 144.58 933.625 Q148.584 933.625 150.922 931.518 Q153.26 929.412 153.26 925.801 Q153.26 922.19 150.922 920.083 Q148.584 917.977 144.58 917.977 Q142.705 917.977 140.83 918.393 Q138.978 918.81 137.033 919.69 L137.033 902.329 Z" fill="#000000" fill-rule="nonzero" fill-opacity="1" /><path clip-path="url(#clip750)" d="M100.76 724.27 Q97.1493 724.27 95.3206 727.835 Q93.515 731.376 93.515 738.506 Q93.515 745.612 95.3206 749.177 Q97.1493 752.719 100.76 752.719 Q104.395 752.719 106.2 749.177 Q108.029 745.612 108.029 738.506 Q108.029 731.376 106.2 727.835 Q104.395 724.27 100.76 724.27 M100.76 720.566 Q106.571 720.566 109.626 725.173 Q112.705 729.756 112.705 738.506 Q112.705 747.233 109.626 751.839 Q106.571 756.422 100.76 756.422 Q94.9502 756.422 91.8715 751.839 Q88.816 747.233 88.816 738.506 Q88.816 729.756 91.8715 725.173 Q94.9502 720.566 100.76 720.566 Z" fill="#000000" fill-rule="nonzero" fill-opacity="1" /><path clip-path="url(#clip750)" d="M120.922 749.872 L125.807 749.872 L125.807 755.751 L120.922 755.751 L120.922 749.872 Z" fill="#000000" fill-rule="nonzero" fill-opacity="1" /><path clip-path="url(#clip750)" d="M145.992 724.27 Q142.381 724.27 140.552 727.835 Q138.746 731.376 138.746 738.506 Q138.746 745.612 140.552 749.177 Q142.381 752.719 145.992 752.719 Q149.626 752.719 151.431 749.177 Q153.26 745.612 153.26 738.506 Q153.26 731.376 151.431 727.835 Q149.626 724.27 145.992 724.27 M145.992 720.566 Q151.802 720.566 154.857 725.173 Q157.936 729.756 157.936 738.506 Q157.936 747.233 154.857 751.839 Q151.802 756.422 145.992 756.422 Q140.181 756.422 137.103 751.839 Q134.047 747.233 134.047 738.506 Q134.047 729.756 137.103 725.173 Q140.181 720.566 145.992 720.566 Z" fill="#000000" fill-rule="nonzero" fill-opacity="1" /><path clip-path="url(#clip750)" d="M101.756 543.132 Q98.1447 543.132 96.316 546.697 Q94.5104 550.239 94.5104 557.368 Q94.5104 564.475 96.316 568.04 Q98.1447 571.581 101.756 571.581 Q105.39 571.581 107.196 568.04 Q109.024 564.475 109.024 557.368 Q109.024 550.239 107.196 546.697 Q105.39 543.132 101.756 543.132 M101.756 539.429 Q107.566 539.429 110.621 544.035 Q113.7 548.618 113.7 557.368 Q113.7 566.095 110.621 570.702 Q107.566 575.285 101.756 575.285 Q95.9456 575.285 92.8669 570.702 Q89.8114 566.095 89.8114 557.368 Q89.8114 548.618 92.8669 544.035 Q95.9456 539.429 101.756 539.429 Z" fill="#000000" fill-rule="nonzero" fill-opacity="1" /><path clip-path="url(#clip750)" d="M121.918 568.734 L126.802 568.734 L126.802 574.614 L121.918 574.614 L121.918 568.734 Z" fill="#000000" fill-rule="nonzero" fill-opacity="1" /><path clip-path="url(#clip750)" d="M137.033 540.054 L155.39 540.054 L155.39 543.989 L141.316 543.989 L141.316 552.461 Q142.334 552.114 143.353 551.952 Q144.371 551.767 145.39 551.767 Q151.177 551.767 154.556 554.938 Q157.936 558.109 157.936 563.526 Q157.936 569.104 154.464 572.206 Q150.992 575.285 144.672 575.285 Q142.496 575.285 140.228 574.915 Q137.982 574.544 135.575 573.804 L135.575 569.104 Q137.658 570.239 139.881 570.794 Q142.103 571.35 144.58 571.35 Q148.584 571.35 150.922 569.243 Q153.26 567.137 153.26 563.526 Q153.26 559.915 150.922 557.808 Q148.584 555.702 144.58 555.702 Q142.705 555.702 140.83 556.118 Q138.978 556.535 137.033 557.415 L137.033 540.054 Z" fill="#000000" fill-rule="nonzero" fill-opacity="1" /><path clip-path="url(#clip750)" d="M91.5706 389.541 L99.2095 389.541 L99.2095 363.175 L90.8993 364.842 L90.8993 360.583 L99.1632 358.916 L103.839 358.916 L103.839 389.541 L111.478 389.541 L111.478 393.476 L91.5706 393.476 L91.5706 389.541 Z" fill="#000000" fill-rule="nonzero" fill-opacity="1" /><path clip-path="url(#clip750)" d="M120.922 387.597 L125.807 387.597 L125.807 393.476 L120.922 393.476 L120.922 387.597 Z" fill="#000000" fill-rule="nonzero" fill-opacity="1" /><path clip-path="url(#clip750)" d="M145.992 361.995 Q142.381 361.995 140.552 365.56 Q138.746 369.101 138.746 376.231 Q138.746 383.337 140.552 386.902 Q142.381 390.444 145.992 390.444 Q149.626 390.444 151.431 386.902 Q153.26 383.337 153.26 376.231 Q153.26 369.101 151.431 365.56 Q149.626 361.995 145.992 361.995 M145.992 358.291 Q151.802 358.291 154.857 362.898 Q157.936 367.481 157.936 376.231 Q157.936 384.958 154.857 389.564 Q151.802 394.148 145.992 394.148 Q140.181 394.148 137.103 389.564 Q134.047 384.958 134.047 376.231 Q134.047 367.481 137.103 362.898 Q140.181 358.291 145.992 358.291 Z" fill="#000000" fill-rule="nonzero" fill-opacity="1" /><path clip-path="url(#clip750)" d="M92.566 208.404 L100.205 208.404 L100.205 182.038 L91.8947 183.705 L91.8947 179.445 L100.159 177.779 L104.834 177.779 L104.834 208.404 L112.473 208.404 L112.473 212.339 L92.566 212.339 L92.566 208.404 Z" fill="#000000" fill-rule="nonzero" fill-opacity="1" /><path clip-path="url(#clip750)" d="M121.918 206.459 L126.802 206.459 L126.802 212.339 L121.918 212.339 L121.918 206.459 Z" fill="#000000" fill-rule="nonzero" fill-opacity="1" /><path clip-path="url(#clip750)" d="M137.033 177.779 L155.39 177.779 L155.39 181.714 L141.316 181.714 L141.316 190.186 Q142.334 189.839 143.353 189.677 Q144.371 189.492 145.39 189.492 Q151.177 189.492 154.556 192.663 Q157.936 195.834 157.936 201.251 Q157.936 206.83 154.464 209.931 Q150.992 213.01 144.672 213.01 Q142.496 213.01 140.228 212.64 Q137.982 212.269 135.575 211.529 L135.575 206.83 Q137.658 207.964 139.881 208.519 Q142.103 209.075 144.58 209.075 Q148.584 209.075 150.922 206.968 Q153.26 204.862 153.26 201.251 Q153.26 197.64 150.922 195.533 Q148.584 193.427 144.58 193.427 Q142.705 193.427 140.83 193.844 Q138.978 194.26 137.033 195.14 L137.033 177.779 Z" fill="#000000" fill-rule="nonzero" fill-opacity="1" /><polyline clip-path="url(#clip752)" style="stroke:#009af9; stroke-linecap:round; stroke-linejoin:round; stroke-width:4; stroke-opacity:1; fill:none" points="193.936,738.471 196.097,733.55 198.258,728.694 200.419,723.902 202.58,719.173 204.741,714.508 206.902,709.904 209.063,705.361 211.224,700.879 213.385,696.456 215.546,692.091 217.707,687.785 219.868,683.536 222.029,679.342 224.19,675.205 226.351,671.122 228.512,667.094 230.673,663.119 232.834,659.196 234.995,655.326 237.156,651.507 239.317,647.738 241.478,644.02 243.639,640.35 245.8,636.73 247.961,633.157 250.122,629.632 252.282,626.154 254.443,622.721 256.604,619.335 258.765,615.993 260.926,612.695 263.087,609.441 265.248,606.23 267.409,603.062 269.57,599.936 271.731,596.851 273.892,593.807 276.053,590.804 278.214,587.84 280.375,584.916 282.536,582.03 284.697,579.183 286.858,576.373 289.019,573.601 291.18,570.865 293.341,568.166 295.502,565.502 297.663,562.874 299.824,560.281 301.985,557.722 304.146,555.197 306.307,552.705 308.468,550.247 310.629,547.821 312.79,545.427 314.951,543.065 317.112,540.734 319.273,538.434 321.434,536.165 323.595,533.926 325.756,531.716 327.917,529.536 330.078,527.384 332.239,525.261 334.4,523.167 336.561,521.1 338.722,519.06 340.883,517.048 343.044,515.062 345.205,513.102 347.366,511.169 349.527,509.261 351.688,507.379 353.849,505.521 356.01,503.688 358.171,501.879 360.332,500.095 362.493,498.334 364.653,496.596 366.814,494.881 368.975,493.189 371.136,491.52 373.297,489.873 375.458,488.247 377.619,486.643 379.78,485.004 381.941,483.261 384.102,481.45 386.263,479.604 388.424,477.756 390.585,475.933 392.746,474.162 394.907,472.466 397.068,470.867 399.229,469.381 401.39,468.026 403.551,466.814 405.712,465.756 407.873,464.859 410.034,464.129 412.195,463.569 414.356,463.178 416.517,462.955 418.678,462.894 420.839,462.987 423,463.224 425.161,463.592 427.322,464.076 429.483,464.658 431.644,465.316 433.805,466.029 435.966,466.769 438.127,467.508 440.288,468.215 442.449,468.857 444.61,469.417 446.771,469.959 448.932,470.495 451.093,471.023 453.254,471.544 455.415,472.058 457.576,472.566 459.737,473.067 461.898,473.561 464.059,474.048 466.22,474.529 468.381,475.004 470.542,475.473 472.703,475.935 474.864,476.391 477.024,476.841 479.185,477.285 481.346,477.723 483.507,478.156 485.668,478.583 487.829,479.004 489.99,479.419 492.151,479.83 494.312,480.234 496.473,480.634 498.634,481.028 500.795,481.417 502.956,481.801 505.117,482.179 507.278,482.553 509.439,482.922 511.6,483.286 513.761,483.645 515.922,483.999 518.083,484.348 520.244,484.693 522.405,485.034 524.566,485.369 526.727,485.701 528.888,486.027 531.049,486.35 533.21,486.668 535.371,486.982 537.532,487.292 539.693,487.597 541.854,487.899 544.015,488.196 546.176,488.49 548.337,488.779 550.498,489.065 552.659,489.347 554.82,489.625 556.981,489.9 559.142,490.17 561.303,490.438 563.464,490.701 565.625,490.961 567.786,491.218 569.947,491.471 572.108,491.721 574.269,491.967 576.43,492.211 578.591,492.451 580.752,492.687 582.913,492.921 585.074,493.152 587.235,493.379 589.396,493.604 591.556,493.825 593.717,494.044 595.878,494.259 598.039,494.472 600.2,494.682 602.361,494.89 604.522,495.094 606.683,495.296 608.844,495.496 611.005,495.692 613.166,495.886 615.327,496.087 617.488,496.397 619.649,496.838 621.81,497.399 623.971,498.07 626.132,498.839 628.293,499.698 630.454,500.637 632.615,501.647 634.776,502.719 636.937,503.845 639.098,505.016 641.259,506.227 643.42,507.469 645.581,508.736 647.742,510.021 649.903,511.319 652.064,512.624 654.225,513.931 656.386,515.235 658.547,516.532 660.708,517.817 662.869,519.088 665.03,520.341 667.191,521.573 669.352,522.782 671.513,523.966 673.674,525.123 675.835,526.252 677.996,527.352 680.157,528.422 682.318,529.463 684.479,530.475 686.64,531.459 688.801,532.415 690.962,533.345 693.123,534.252 695.284,535.137 697.445,536.002 699.606,536.852 701.767,537.689 703.927,538.518 706.088,539.342 708.249,540.166 710.41,540.994 712.571,541.818 714.732,542.631 716.893,543.433 719.054,544.225 721.215,545.006 723.376,545.777 725.537,546.538 727.698,547.288 729.859,548.028 732.02,548.759 734.181,549.48 736.342,550.192 738.503,550.894 740.664,551.586 742.825,552.27 744.986,552.944 747.147,553.61 749.308,554.266 751.469,554.914 753.63,555.554 755.791,556.184 757.952,556.807 760.113,557.421 762.274,558.027 764.435,558.625 766.596,559.216 768.757,559.798 770.918,560.372 773.079,560.939 775.24,561.499 777.401,562.051 779.562,562.596 781.723,563.133 783.884,563.664 786.045,564.187 788.206,564.704 790.367,565.213 792.528,565.716 794.689,566.212 796.85,566.702 799.011,567.185 801.172,567.662 803.333,568.132 805.494,568.596 807.655,569.054 809.816,569.506 811.977,569.952 814.138,570.392 816.298,570.826 818.459,571.254 820.62,571.677 822.781,572.094 824.942,572.506 827.103,572.912 829.264,573.313 831.425,573.708 833.586,574.098 835.747,574.447 837.908,574.239 840.069,573.366 842.23,571.899 844.391,569.906 846.552,567.453 848.713,564.601 850.874,561.407 853.035,557.927 855.196,554.211 857.357,550.308 859.518,546.261 861.679,542.111 863.84,537.897 866.001,533.652 868.162,529.408 870.323,525.191 872.484,521.025 874.645,516.931 876.806,512.927 878.967,509.025 881.128,505.237 883.289,501.569 885.45,498.025 887.611,494.605 889.772,491.306 891.933,488.121 894.094,485.04 896.255,482.05 898.416,479.133 900.577,476.27 902.738,473.437 904.899,470.606 907.06,467.748 909.221,464.867 911.382,462.022 913.543,459.215 915.704,456.445 917.865,453.711 920.026,451.014 922.187,448.353 924.348,445.727 926.509,443.136 928.669,440.579 930.83,438.056 932.991,435.567 935.152,433.11 937.313,430.686 939.474,428.294 941.635,425.934 943.796,423.606 945.957,421.308 948.118,419.04 950.279,416.803 952.44,414.594 954.601,412.416 956.762,410.265 958.923,408.144 961.084,406.05 963.245,403.984 965.406,401.946 967.567,399.935 969.728,397.95 971.889,395.991 974.05,394.059 976.211,392.152 978.372,390.271 980.533,388.414 982.694,386.583 984.855,384.775 987.016,382.992 989.177,381.232 991.338,379.496 993.499,377.783 995.66,376.092 997.821,374.425 999.982,372.779 1002.14,371.155 1004.3,369.553 1006.46,367.972 1008.63,366.412 1010.79,364.873 1012.95,363.354 1015.11,361.855 1017.27,360.377 1019.43,358.918 1021.59,357.478 1023.75,356.057 1025.91,354.655 1028.07,353.272 1030.24,351.907 1032.4,350.561 1034.56,349.232 1036.72,347.92 1038.88,346.626 1041.04,345.349 1043.2,344.089 1045.36,342.846 1047.52,341.619 1049.68,340.408 1051.85,339.214 1054.01,338.041 1056.17,337.226 1058.33,336.922 1060.49,337.081 1062.65,337.659 1064.81,338.61 1066.97,339.892 1069.13,341.467 1071.29,343.295 1073.46,345.342 1075.62,347.572 1077.78,349.955 1079.94,352.46 1082.1,355.06 1084.26,357.728 1086.42,360.44 1088.58,363.175 1090.74,365.914 1092.9,368.637 1095.07,371.329 1097.23,373.976 1099.39,376.567 1101.55,379.091 1103.71,381.541 1105.87,383.911 1108.03,386.197 1110.19,388.397 1112.35,390.511 1114.51,392.541 1116.67,394.492 1118.84,396.37 1121,398.183 1123.16,399.941 1125.32,401.656 1127.48,403.343 1129.64,405.017 1131.8,406.698 1133.96,408.404 1136.12,410.136 1138.28,411.848 1140.45,413.537 1142.61,415.204 1144.77,416.849 1146.93,418.472 1149.09,420.073 1151.25,421.653 1153.41,423.212 1155.57,424.751 1157.73,426.269 1159.89,427.767 1162.06,429.245 1164.22,430.704 1166.38,432.143 1168.54,433.563 1170.7,434.964 1172.86,436.347 1175.02,437.711 1177.18,439.057 1179.34,440.386 1181.5,441.697 1183.67,442.99 1185.83,444.266 1187.99,445.526 1190.15,446.768 1192.31,447.995 1194.47,449.205 1196.63,450.398 1198.79,451.577 1200.95,452.739 1203.11,453.886 1205.28,455.018 1207.44,456.135 1209.6,457.237 1211.76,458.324 1213.92,459.397 1216.08,460.456 1218.24,461.501 1220.4,462.532 1222.56,463.549 1224.72,464.553 1226.88,465.543 1229.05,466.52 1231.21,467.485 1233.37,468.436 1235.53,469.375 1237.69,470.302 1239.85,471.216 1242.01,472.118 1244.17,473.008 1246.33,473.886 1248.49,474.753 1250.66,475.608 1252.82,476.452 1254.98,477.285 1257.14,478.106 1259.3,478.917 1261.46,479.565 1263.62,479.229 1265.78,479.192 1267.94,480.669 1270.1,484.269 1272.27,489.999 1274.43,497.265 1276.59,504.869 1278.75,511.965 1280.91,518.964 1283.07,525.87 1285.23,532.685 1287.39,539.409 1289.55,546.044 1291.71,552.592 1293.88,559.052 1296.04,565.427 1298.2,571.717 1300.36,577.924 1302.52,584.049 1304.68,590.093 1306.84,596.056 1309,601.94 1311.16,607.746 1313.32,613.475 1315.49,619.129 1317.65,624.707 1319.81,630.211 1321.97,635.642 1324.13,641.002 1326.29,646.29 1328.45,651.508 1330.61,656.657 1332.77,661.737 1334.93,666.751 1337.09,671.697 1339.26,676.579 1341.42,681.395 1343.58,686.148 1345.74,690.838 1347.9,695.465 1350.06,700.032 1352.22,704.537 1354.38,708.983 1356.54,713.37 1358.7,717.699 1360.87,721.971 1363.03,726.185 1365.19,730.344 1367.35,734.448 1369.51,738.497 1371.67,742.493 1373.83,746.436 1375.99,750.326 1378.15,754.165 1380.31,757.953 1382.48,761.691 1384.64,765.379 1386.8,769.018 1388.96,772.609 1391.12,776.153 1393.28,779.649 1395.44,783.099 1397.6,786.503 1399.76,789.863 1401.92,793.177 1404.09,796.448 1406.25,799.676 1408.41,802.86 1410.57,806.003 1412.73,809.103 1414.89,812.163 1417.05,815.182 1419.21,818.161 1421.37,821.101 1423.53,824.001 1425.7,826.863 1427.86,829.687 1430.02,832.474 1432.18,835.224 1434.34,837.937 1436.5,840.614 1438.66,843.256 1440.82,845.863 1442.98,848.435 1445.14,850.973 1447.3,853.477 1449.47,855.949 1451.63,858.387 1453.79,860.793 1455.95,863.168 1458.11,865.51 1460.27,867.822 1462.43,870.103 1464.59,872.354 1466.75,874.575 1468.91,876.767 1471.08,878.929 1473.24,881.063 1475.4,883.169 1477.56,885.246 1479.72,887.296 1481.88,889.319 1484.04,891.315 1486.2,893.285 1488.36,894.155 1490.52,892.558 1492.69,888.825 1494.85,883.28 1497.01,876.225 1499.17,867.94 1501.33,858.682 1503.49,848.687 1505.65,838.168 1507.81,827.317 1509.97,816.302 1512.13,805.272 1514.3,794.351 1516.46,783.641 1518.62,773.225 1520.78,763.161 1522.94,753.485 1525.1,744.212 1527.26,735.334 1529.42,726.822 1531.58,718.624 1533.74,710.667 1535.91,702.853 1538.07,695.066 1540.23,687.166 1542.39,679.198 1544.55,671.336 1546.71,663.578 1548.87,655.923 1551.03,648.369 1553.19,640.916 1555.35,633.561 1557.51,626.304 1559.68,619.143 1561.84,612.077 1564,605.105 1566.16,598.225 1568.32,591.437 1570.48,584.738 1572.64,578.128 1574.8,571.606 1576.96,565.17 1579.12,558.82 1581.29,552.554 1583.45,546.37 1585.61,540.269 1587.77,534.248 1589.93,528.308 1592.09,522.446 1594.25,516.662 1596.41,510.954 1598.57,505.323 1600.73,499.766 1602.9,494.282 1605.06,488.872 1607.22,483.533 1609.38,478.265 1611.54,473.067 1613.7,467.938 1615.86,462.877 1618.02,457.883 1620.18,452.955 1622.34,448.092 1624.51,443.294 1626.67,438.56 1628.83,433.888 1630.99,429.279 1633.15,424.73 1635.31,420.242 1637.47,415.813 1639.63,411.443 1641.79,407.13 1643.95,402.875 1646.12,398.677 1648.28,394.534 1650.44,390.446 1652.6,386.412 1654.76,382.431 1656.92,378.504 1659.08,374.628 1661.24,370.804 1663.4,367.03 1665.56,363.307 1667.72,359.633 1669.89,356.008 1672.05,352.43 1674.21,348.9 1676.37,345.417 1678.53,341.98 1680.69,338.589 1682.85,335.243 1685.01,331.941 1687.17,328.683 1689.33,325.468 1691.5,322.295 1693.66,319.165 1695.82,316.076 1697.98,313.028 1700.14,310.021 1702.3,307.053 1704.46,304.217 1706.62,304.049 1708.78,307.283 1710.94,313.393 1713.11,321.891 1715.27,332.325 1717.43,344.283 1719.59,357.386 1721.75,371.297 1723.91,385.712 1726.07,400.368 1728.23,415.038 1730.39,429.53 1732.55,443.693 1734.72,457.412 1736.88,470.608 1739.04,483.241 1741.2,495.307 1743.36,506.841 1745.52,517.913 1747.68,528.633 1749.84,539.146 1752,549.636 1754.16,560.318 1756.33,571.037 1758.49,581.613 1760.65,592.049 1762.81,602.347 1764.97,612.508 1767.13,622.534 1769.29,632.428 1771.45,642.19 1773.61,651.823 1775.77,661.329 1777.93,670.708 1780.1,679.963 1782.26,689.095 1784.42,698.106 1786.58,706.998 1788.74,715.772 1790.9,724.43 1793.06,732.973 1795.22,741.403 1797.38,749.721 1799.54,757.928 1801.71,766.027 1803.87,774.018 1806.03,781.904 1808.19,789.684 1810.35,797.362 1812.51,804.937 1814.67,812.413 1816.83,819.789 1818.99,827.067 1821.15,834.249 1823.32,841.335 1825.48,848.327 1827.64,855.227 1829.8,862.035 1831.96,868.754 1834.12,875.383 1836.28,881.924 1838.44,888.378 1840.6,894.747 1842.76,901.031 1844.93,907.233 1847.09,913.352 1849.25,919.39 1851.41,925.348 1853.57,931.226 1855.73,937.027 1857.89,942.752 1860.05,948.4 1862.21,953.973 1864.37,959.472 1866.54,964.899 1868.7,970.253 1870.86,975.537 1873.02,980.75 1875.18,985.895 1877.34,990.971 1879.5,995.98 1881.66,1000.92 1883.82,1005.8 1885.98,1010.61 1888.15,1015.36 1890.31,1020.04 1892.47,1024.67 1894.63,1029.23 1896.79,1033.73 1898.95,1038.17 1901.11,1042.55 1903.27,1046.64 1905.43,1050.3 1907.59,1053.58 1909.75,1056.52 1911.92,1059.15 1914.08,1061.51 1916.24,1063.63 1918.4,1065.54 1920.56,1067.27 1922.72,1068.85 1924.88,1070.3 1927.04,1071.64 1929.2,1072.9 1931.36,1074.09 1933.53,1075.23 1935.69,1076.34 1937.85,1077.44 1940.01,1078.52 1942.17,1079.61 1944.33,1080.71 1946.49,1081.83 1948.65,1082.96 1950.81,1084.12 1952.97,1085.3 1955.14,1086.51 1957.3,1087.73 1959.46,1088.97 1961.62,1090.21 1963.78,1091.45 1965.94,1092.67 1968.1,1093.87 1970.26,1095.02 1972.42,1096.12 1974.58,1097.2 1976.75,1098.26 1978.91,1099.31 1981.07,1100.34 1983.23,1101.36 1985.39,1102.36 1987.55,1103.35 1989.71,1104.33 1991.87,1105.3 1994.03,1106.25 1996.19,1107.19 1998.36,1108.12 2000.52,1109.03 2002.68,1109.94 2004.84,1110.83 2007,1111.71 2009.16,1112.58 2011.32,1113.43 2013.48,1114.28 2015.64,1115.11 2017.8,1115.94 2019.96,1116.75 2022.13,1117.55 2024.29,1118.34 2026.45,1119.12 2028.61,1119.89 2030.77,1120.65 2032.93,1121.4 2035.09,1122.14 2037.25,1122.87 2039.41,1123.59 2041.57,1124.3 2043.74,1125 2045.9,1125.69 2048.06,1126.37 2050.22,1127.05 2052.38,1127.71 2054.54,1128.37 2056.7,1129.01 2058.86,1129.65 2061.02,1130.28 2063.18,1130.9 2065.35,1131.52 2067.51,1132.12 2069.67,1132.72 2071.83,1133.31 2073.99,1133.89 2076.15,1134.46 2078.31,1135.02 2080.47,1135.45 2082.63,1135.72 2084.79,1135.87 2086.96,1135.95 2089.12,1135.98 2091.28,1136.01 2093.44,1136.05 2095.6,1136.13 2097.76,1136.29 2099.92,1136.53 2102.08,1136.89 2104.24,1137.37 2106.4,1138 2108.57,1138.79 2110.73,1139.74 2112.89,1140.86 2115.05,1142.17 2117.21,1143.65 2119.37,1145.32 2121.53,1147.17 2123.69,1149.2 2125.85,1151.39 2128.01,1153.75 2130.17,1156.26 2132.34,1158.9 2134.5,1161.66 2136.66,1164.52 2138.82,1167.46 2140.98,1170.45 2143.14,1173.47 2145.3,1176.5 2147.46,1179.49 2149.62,1182.42 2151.78,1185.25 2153.95,1187.95 2156.11,1190.55 2158.27,1193.12 2160.43,1195.65 2162.59,1198.15 2164.75,1200.62 2166.91,1203.05 2169.07,1205.45 2171.23,1207.82 2173.39,1210.16 2175.56,1212.47 2177.72,1214.75 2179.88,1217 2182.04,1219.21 2184.2,1221.4 2186.36,1223.56 2188.52,1225.69 2190.68,1227.79 2192.84,1229.87 2195,1231.91 2197.17,1233.93 2199.33,1235.93 2201.49,1237.89 2203.65,1239.83 2205.81,1241.75 2207.97,1243.64 2210.13,1245.5 2212.29,1247.34 2214.45,1249.16 2216.61,1250.95 2218.78,1252.72 2220.94,1254.47 2223.1,1256.19 2225.26,1257.89 2227.42,1259.56 2229.58,1261.22 2231.74,1262.85 2233.9,1264.46 2236.06,1266.05 2238.22,1267.61 2240.38,1269.16 2242.55,1270.69 2244.71,1272.19 2246.87,1273.68 2249.03,1275.14 2251.19,1276.59 2253.35,1278.02 2255.51,1279.42 2257.67,1280.81 2259.83,1282.18 2261.99,1283.54 2264.16,1284.87 2266.32,1286.19 2268.48,1287.49 2270.64,1288.77 2272.8,1290.03 2274.96,1291.28 2277.12,1292.51 2279.28,1293.73 2281.44,1294.93 2283.6,1296.11 2285.77,1297.28 2287.93,1298.43 2290.09,1299.57 2292.25,1300.69 2294.41,1301.8 2296.57,1302.89 2298.73,1303.97 2300.89,1305.03 2303.05,1306.08 2305.21,1307.12 2307.38,1308.14 2309.54,1309.15 2311.7,1310.14 2313.86,1311.12 2316.02,1312.09 2318.18,1313.05 2320.34,1313.99 2322.5,1314.93 2324.66,1315.84 2326.82,1316.75 2328.99,1317.65 2331.15,1318.53 2333.31,1319.4 2335.47,1320.26 2337.63,1321.11 2339.79,1321.94 2341.95,1322.77 2344.11,1323.59 2346.27,1324.39 2348.43,1325.18 2350.59,1325.97 2352.76,1326.74 "/>
<polyline clip-path="url(#clip752)" style="stroke:#e26f46; stroke-linecap:round; stroke-linejoin:round; stroke-width:4; stroke-opacity:1; fill:none" points="193.936,367.266 196.097,367.266 198.258,367.266 200.419,367.266 202.58,367.266 204.741,367.266 206.902,367.266 209.063,367.266 211.224,367.266 213.385,367.266 215.546,367.266 217.707,367.266 219.868,367.266 222.029,367.266 224.19,367.266 226.351,367.266 228.512,367.266 230.673,367.266 232.834,367.266 234.995,367.266 237.156,367.266 239.317,367.266 241.478,367.266 243.639,367.266 245.8,367.266 247.961,367.266 250.122,367.266 252.282,367.266 254.443,367.266 256.604,367.266 258.765,367.266 260.926,367.266 263.087,367.266 265.248,367.266 267.409,367.266 269.57,367.266 271.731,367.266 273.892,367.266 276.053,367.266 278.214,367.266 280.375,367.266 282.536,367.266 284.697,367.266 286.858,367.266 289.019,367.266 291.18,367.266 293.341,367.266 295.502,367.266 297.663,367.266 299.824,367.266 301.985,367.266 304.146,367.266 306.307,367.266 308.468,367.266 310.629,367.266 312.79,367.266 314.951,367.266 317.112,367.266 319.273,367.266 321.434,367.266 323.595,367.266 325.756,367.266 327.917,367.266 330.078,367.266 332.239,367.266 334.4,367.266 336.561,367.266 338.722,367.266 340.883,367.266 343.044,367.266 345.205,367.266 347.366,367.266 349.527,367.266 351.688,367.266 353.849,367.266 356.01,367.266 358.171,367.266 360.332,367.266 362.493,367.266 364.653,367.266 366.814,367.266 368.975,367.266 371.136,367.266 373.297,367.266 375.458,367.266 377.619,367.266 379.78,367.266 381.941,367.266 384.102,367.266 386.263,367.266 388.424,367.266 390.585,367.266 392.746,367.266 394.907,367.266 397.068,367.266 399.229,367.266 401.39,367.266 403.551,367.266 405.712,367.266 407.873,367.266 410.034,510.337 412.195,510.337 414.356,510.337 416.517,510.337 418.678,510.337 420.839,510.337 423,510.337 425.161,510.337 427.322,510.337 429.483,510.337 431.644,510.337 433.805,510.337 435.966,510.337 438.127,510.337 440.288,510.337 442.449,510.337 444.61,510.337 446.771,510.337 448.932,510.337 451.093,510.337 453.254,510.337 455.415,510.337 457.576,510.337 459.737,510.337 461.898,510.337 464.059,510.337 466.22,510.337 468.381,510.337 470.542,510.337 472.703,510.337 474.864,510.337 477.024,510.337 479.185,510.337 481.346,510.337 483.507,510.337 485.668,510.337 487.829,510.337 489.99,510.337 492.151,510.337 494.312,510.337 496.473,510.337 498.634,510.337 500.795,510.337 502.956,510.337 505.117,510.337 507.278,510.337 509.439,510.337 511.6,510.337 513.761,510.337 515.922,510.337 518.083,510.337 520.244,510.337 522.405,510.337 524.566,510.337 526.727,510.337 528.888,510.337 531.049,510.337 533.21,510.337 535.371,510.337 537.532,510.337 539.693,510.337 541.854,510.337 544.015,510.337 546.176,510.337 548.337,510.337 550.498,510.337 552.659,510.337 554.82,510.337 556.981,510.337 559.142,510.337 561.303,510.337 563.464,510.337 565.625,510.337 567.786,510.337 569.947,510.337 572.108,510.337 574.269,510.337 576.43,510.337 578.591,510.337 580.752,510.337 582.913,510.337 585.074,510.337 587.235,510.337 589.396,510.337 591.556,510.337 593.717,510.337 595.878,510.337 598.039,510.337 600.2,510.337 602.361,510.337 604.522,510.337 606.683,510.337 608.844,510.337 611.005,510.337 613.166,510.337 615.327,510.337 617.488,510.337 619.649,510.337 621.81,510.337 623.971,510.337 626.132,603.139 628.293,603.139 630.454,603.139 632.615,603.139 634.776,603.139 636.937,603.139 639.098,603.139 641.259,603.139 643.42,603.139 645.581,603.139 647.742,603.139 649.903,603.139 652.064,603.139 654.225,603.139 656.386,603.139 658.547,603.139 660.708,603.139 662.869,603.139 665.03,603.139 667.191,603.139 669.352,603.139 671.513,603.139 673.674,603.139 675.835,603.139 677.996,603.139 680.157,603.139 682.318,603.139 684.479,603.139 686.64,603.139 688.801,603.139 690.962,603.139 693.123,603.139 695.284,603.139 697.445,603.139 699.606,603.139 701.767,603.139 703.927,603.139 706.088,603.139 708.249,603.139 710.41,603.139 712.571,603.139 714.732,603.139 716.893,603.139 719.054,603.139 721.215,603.139 723.376,603.139 725.537,603.139 727.698,603.139 729.859,603.139 732.02,603.139 734.181,603.139 736.342,603.139 738.503,603.139 740.664,603.139 742.825,603.139 744.986,603.139 747.147,603.139 749.308,603.139 751.469,603.139 753.63,603.139 755.791,603.139 757.952,603.139 760.113,603.139 762.274,603.139 764.435,603.139 766.596,603.139 768.757,603.139 770.918,603.139 773.079,603.139 775.24,603.139 777.401,603.139 779.562,603.139 781.723,603.139 783.884,603.139 786.045,603.139 788.206,603.139 790.367,603.139 792.528,603.139 794.689,603.139 796.85,603.139 799.011,603.139 801.172,603.139 803.333,603.139 805.494,603.139 807.655,603.139 809.816,603.139 811.977,603.139 814.138,603.139 816.298,603.139 818.459,603.139 820.62,603.139 822.781,603.139 824.942,603.139 827.103,603.139 829.264,603.139 831.425,603.139 833.586,603.139 835.747,603.139 837.908,603.139 840.069,603.139 842.23,250.284 844.391,250.284 846.552,250.284 848.713,250.284 850.874,250.284 853.035,250.284 855.196,250.284 857.357,250.284 859.518,250.284 861.679,250.284 863.84,250.284 866.001,250.284 868.162,250.284 870.323,250.284 872.484,250.284 874.645,250.284 876.806,250.284 878.967,250.284 881.128,250.284 883.289,250.284 885.45,250.284 887.611,250.284 889.772,250.284 891.933,250.284 894.094,250.284 896.255,250.284 898.416,250.284 900.577,250.284 902.738,250.284 904.899,250.284 907.06,250.284 909.221,250.284 911.382,250.284 913.543,250.284 915.704,250.284 917.865,250.284 920.026,250.284 922.187,250.284 924.348,250.284 926.509,250.284 928.669,250.284 930.83,250.284 932.991,250.284 935.152,250.284 937.313,250.284 939.474,250.284 941.635,250.284 943.796,250.284 945.957,250.284 948.118,250.284 950.279,250.284 952.44,250.284 954.601,250.284 956.762,250.284 958.923,250.284 961.084,250.284 963.245,250.284 965.406,250.284 967.567,250.284 969.728,250.284 971.889,250.284 974.05,250.284 976.211,250.284 978.372,250.284 980.533,250.284 982.694,250.284 984.855,250.284 987.016,250.284 989.177,250.284 991.338,250.284 993.499,250.284 995.66,250.284 997.821,250.284 999.982,250.284 1002.14,250.284 1004.3,250.284 1006.46,250.284 1008.63,250.284 1010.79,250.284 1012.95,250.284 1015.11,250.284 1017.27,250.284 1019.43,250.284 1021.59,250.284 1023.75,250.284 1025.91,250.284 1028.07,250.284 1030.24,250.284 1032.4,250.284 1034.56,250.284 1036.72,250.284 1038.88,250.284 1041.04,250.284 1043.2,250.284 1045.36,250.284 1047.52,250.284 1049.68,250.284 1051.85,250.284 1054.01,250.284 1056.17,250.284 1058.33,539.256 1060.49,539.256 1062.65,539.256 1064.81,539.256 1066.97,539.256 1069.13,539.256 1071.29,539.256 1073.46,539.256 1075.62,539.256 1077.78,539.256 1079.94,539.256 1082.1,539.256 1084.26,539.256 1086.42,539.256 1088.58,539.256 1090.74,539.256 1092.9,539.256 1095.07,539.256 1097.23,539.256 1099.39,539.256 1101.55,539.256 1103.71,539.256 1105.87,539.256 1108.03,539.256 1110.19,539.256 1112.35,539.256 1114.51,539.256 1116.67,539.256 1118.84,539.256 1121,539.256 1123.16,539.256 1125.32,539.256 1127.48,539.256 1129.64,539.256 1131.8,539.256 1133.96,539.256 1136.12,539.256 1138.28,539.256 1140.45,539.256 1142.61,539.256 1144.77,539.256 1146.93,539.256 1149.09,539.256 1151.25,539.256 1153.41,539.256 1155.57,539.256 1157.73,539.256 1159.89,539.256 1162.06,539.256 1164.22,539.256 1166.38,539.256 1168.54,539.256 1170.7,539.256 1172.86,539.256 1175.02,539.256 1177.18,539.256 1179.34,539.256 1181.5,539.256 1183.67,539.256 1185.83,539.256 1187.99,539.256 1190.15,539.256 1192.31,539.256 1194.47,539.256 1196.63,539.256 1198.79,539.256 1200.95,539.256 1203.11,539.256 1205.28,539.256 1207.44,539.256 1209.6,539.256 1211.76,539.256 1213.92,539.256 1216.08,539.256 1218.24,539.256 1220.4,539.256 1222.56,539.256 1224.72,539.256 1226.88,539.256 1229.05,539.256 1231.21,539.256 1233.37,539.256 1235.53,539.256 1237.69,539.256 1239.85,539.256 1242.01,539.256 1244.17,539.256 1246.33,539.256 1248.49,539.256 1250.66,539.256 1252.82,539.256 1254.98,539.256 1257.14,539.256 1259.3,539.256 1261.46,539.256 1263.62,539.256 1265.78,539.256 1267.94,539.256 1270.1,539.256 1272.27,539.256 1274.43,1039.88 1276.59,1039.88 1278.75,1039.88 1280.91,1039.88 1283.07,1039.88 1285.23,1039.88 1287.39,1039.88 1289.55,1039.88 1291.71,1039.88 1293.88,1039.88 1296.04,1039.88 1298.2,1039.88 1300.36,1039.88 1302.52,1039.88 1304.68,1039.88 1306.84,1039.88 1309,1039.88 1311.16,1039.88 1313.32,1039.88 1315.49,1039.88 1317.65,1039.88 1319.81,1039.88 1321.97,1039.88 1324.13,1039.88 1326.29,1039.88 1328.45,1039.88 1330.61,1039.88 1332.77,1039.88 1334.93,1039.88 1337.09,1039.88 1339.26,1039.88 1341.42,1039.88 1343.58,1039.88 1345.74,1039.88 1347.9,1039.88 1350.06,1039.88 1352.22,1039.88 1354.38,1039.88 1356.54,1039.88 1358.7,1039.88 1360.87,1039.88 1363.03,1039.88 1365.19,1039.88 1367.35,1039.88 1369.51,1039.88 1371.67,1039.88 1373.83,1039.88 1375.99,1039.88 1378.15,1039.88 1380.31,1039.88 1382.48,1039.88 1384.64,1039.88 1386.8,1039.88 1388.96,1039.88 1391.12,1039.88 1393.28,1039.88 1395.44,1039.88 1397.6,1039.88 1399.76,1039.88 1401.92,1039.88 1404.09,1039.88 1406.25,1039.88 1408.41,1039.88 1410.57,1039.88 1412.73,1039.88 1414.89,1039.88 1417.05,1039.88 1419.21,1039.88 1421.37,1039.88 1423.53,1039.88 1425.7,1039.88 1427.86,1039.88 1430.02,1039.88 1432.18,1039.88 1434.34,1039.88 1436.5,1039.88 1438.66,1039.88 1440.82,1039.88 1442.98,1039.88 1445.14,1039.88 1447.3,1039.88 1449.47,1039.88 1451.63,1039.88 1453.79,1039.88 1455.95,1039.88 1458.11,1039.88 1460.27,1039.88 1462.43,1039.88 1464.59,1039.88 1466.75,1039.88 1468.91,1039.88 1471.08,1039.88 1473.24,1039.88 1475.4,1039.88 1477.56,1039.88 1479.72,1039.88 1481.88,1039.88 1484.04,1039.88 1486.2,1039.88 1488.36,1039.88 1490.52,86.1857 1492.69,86.1857 1494.85,86.1857 1497.01,86.1857 1499.17,86.1857 1501.33,86.1857 1503.49,86.1857 1505.65,86.1857 1507.81,86.1857 1509.97,86.1857 1512.13,86.1857 1514.3,86.1857 1516.46,86.1857 1518.62,86.1857 1520.78,86.1857 1522.94,86.1857 1525.1,86.1857 1527.26,86.1857 1529.42,86.1857 1531.58,86.1857 1533.74,86.1857 1535.91,86.1857 1538.07,86.1857 1540.23,86.1857 1542.39,86.1857 1544.55,86.1857 1546.71,86.1857 1548.87,86.1857 1551.03,86.1857 1553.19,86.1857 1555.35,86.1857 1557.51,86.1857 1559.68,86.1857 1561.84,86.1857 1564,86.1857 1566.16,86.1857 1568.32,86.1857 1570.48,86.1857 1572.64,86.1857 1574.8,86.1857 1576.96,86.1857 1579.12,86.1857 1581.29,86.1857 1583.45,86.1857 1585.61,86.1857 1587.77,86.1857 1589.93,86.1857 1592.09,86.1857 1594.25,86.1857 1596.41,86.1857 1598.57,86.1857 1600.73,86.1857 1602.9,86.1857 1605.06,86.1857 1607.22,86.1857 1609.38,86.1857 1611.54,86.1857 1613.7,86.1857 1615.86,86.1857 1618.02,86.1857 1620.18,86.1857 1622.34,86.1857 1624.51,86.1857 1626.67,86.1857 1628.83,86.1857 1630.99,86.1857 1633.15,86.1857 1635.31,86.1857 1637.47,86.1857 1639.63,86.1857 1641.79,86.1857 1643.95,86.1857 1646.12,86.1857 1648.28,86.1857 1650.44,86.1857 1652.6,86.1857 1654.76,86.1857 1656.92,86.1857 1659.08,86.1857 1661.24,86.1857 1663.4,86.1857 1665.56,86.1857 1667.72,86.1857 1669.89,86.1857 1672.05,86.1857 1674.21,86.1857 1676.37,86.1857 1678.53,86.1857 1680.69,86.1857 1682.85,86.1857 1685.01,86.1857 1687.17,86.1857 1689.33,86.1857 1691.5,86.1857 1693.66,86.1857 1695.82,86.1857 1697.98,86.1857 1700.14,86.1857 1702.3,86.1857 1704.46,86.1857 1706.62,1368.77 1708.78,1368.77 1710.94,1368.77 1713.11,1368.77 1715.27,1368.77 1717.43,1368.77 1719.59,1368.77 1721.75,1368.77 1723.91,1368.77 1726.07,1368.77 1728.23,1368.77 1730.39,1368.77 1732.55,1368.77 1734.72,1368.77 1736.88,1368.77 1739.04,1368.77 1741.2,1368.77 1743.36,1368.77 1745.52,1368.77 1747.68,1368.77 1749.84,1368.77 1752,1368.77 1754.16,1368.77 1756.33,1368.77 1758.49,1368.77 1760.65,1368.77 1762.81,1368.77 1764.97,1368.77 1767.13,1368.77 1769.29,1368.77 1771.45,1368.77 1773.61,1368.77 1775.77,1368.77 1777.93,1368.77 1780.1,1368.77 1782.26,1368.77 1784.42,1368.77 1786.58,1368.77 1788.74,1368.77 1790.9,1368.77 1793.06,1368.77 1795.22,1368.77 1797.38,1368.77 1799.54,1368.77 1801.71,1368.77 1803.87,1368.77 1806.03,1368.77 1808.19,1368.77 1810.35,1368.77 1812.51,1368.77 1814.67,1368.77 1816.83,1368.77 1818.99,1368.77 1821.15,1368.77 1823.32,1368.77 1825.48,1368.77 1827.64,1368.77 1829.8,1368.77 1831.96,1368.77 1834.12,1368.77 1836.28,1368.77 1838.44,1368.77 1840.6,1368.77 1842.76,1368.77 1844.93,1368.77 1847.09,1368.77 1849.25,1368.77 1851.41,1368.77 1853.57,1368.77 1855.73,1368.77 1857.89,1368.77 1860.05,1368.77 1862.21,1368.77 1864.37,1368.77 1866.54,1368.77 1868.7,1368.77 1870.86,1368.77 1873.02,1368.77 1875.18,1368.77 1877.34,1368.77 1879.5,1368.77 1881.66,1368.77 1883.82,1368.77 1885.98,1368.77 1888.15,1368.77 1890.31,1368.77 1892.47,1368.77 1894.63,1368.77 1896.79,1368.77 1898.95,1368.77 1901.11,1368.77 1903.27,1368.77 1905.43,1368.77 1907.59,1368.77 1909.75,1368.77 1911.92,1368.77 1914.08,1368.77 1916.24,1368.77 1918.4,1368.77 1920.56,1368.77 1922.72,1177.17 1924.88,1177.17 1927.04,1177.17 1929.2,1177.17 1931.36,1177.17 1933.53,1177.17 1935.69,1177.17 1937.85,1177.17 1940.01,1177.17 1942.17,1177.17 1944.33,1177.17 1946.49,1177.17 1948.65,1177.17 1950.81,1177.17 1952.97,1177.17 1955.14,1177.17 1957.3,1177.17 1959.46,1177.17 1961.62,1177.17 1963.78,1177.17 1965.94,1177.17 1968.1,1177.17 1970.26,1177.17 1972.42,1177.17 1974.58,1177.17 1976.75,1177.17 1978.91,1177.17 1981.07,1177.17 1983.23,1177.17 1985.39,1177.17 1987.55,1177.17 1989.71,1177.17 1991.87,1177.17 1994.03,1177.17 1996.19,1177.17 1998.36,1177.17 2000.52,1177.17 2002.68,1177.17 2004.84,1177.17 2007,1177.17 2009.16,1177.17 2011.32,1177.17 2013.48,1177.17 2015.64,1177.17 2017.8,1177.17 2019.96,1177.17 2022.13,1177.17 2024.29,1177.17 2026.45,1177.17 2028.61,1177.17 2030.77,1177.17 2032.93,1177.17 2035.09,1177.17 2037.25,1177.17 2039.41,1177.17 2041.57,1177.17 2043.74,1177.17 2045.9,1177.17 2048.06,1177.17 2050.22,1177.17 2052.38,1177.17 2054.54,1177.17 2056.7,1177.17 2058.86,1177.17 2061.02,1177.17 2063.18,1177.17 2065.35,1177.17 2067.51,1177.17 2069.67,1177.17 2071.83,1177.17 2073.99,1177.17 2076.15,1177.17 2078.31,1177.17 2080.47,1177.17 2082.63,1177.17 2084.79,1177.17 2086.96,1177.17 2089.12,1177.17 2091.28,1177.17 2093.44,1177.17 2095.6,1177.17 2097.76,1177.17 2099.92,1177.17 2102.08,1177.17 2104.24,1177.17 2106.4,1177.17 2108.57,1177.17 2110.73,1177.17 2112.89,1177.17 2115.05,1177.17 2117.21,1177.17 2119.37,1177.17 2121.53,1177.17 2123.69,1177.17 2125.85,1177.17 2128.01,1177.17 2130.17,1177.17 2132.34,1177.17 2134.5,1177.17 2136.66,1177.17 2138.82,1384.24 2140.98,1384.24 2143.14,1384.24 2145.3,1384.24 2147.46,1384.24 2149.62,1384.24 2151.78,1384.24 2153.95,1384.24 2156.11,1384.24 2158.27,1384.24 2160.43,1384.24 2162.59,1384.24 2164.75,1384.24 2166.91,1384.24 2169.07,1384.24 2171.23,1384.24 2173.39,1384.24 2175.56,1384.24 2177.72,1384.24 2179.88,1384.24 2182.04,1384.24 2184.2,1384.24 2186.36,1384.24 2188.52,1384.24 2190.68,1384.24 2192.84,1384.24 2195,1384.24 2197.17,1384.24 2199.33,1384.24 2201.49,1384.24 2203.65,1384.24 2205.81,1384.24 2207.97,1384.24 2210.13,1384.24 2212.29,1384.24 2214.45,1384.24 2216.61,1384.24 2218.78,1384.24 2220.94,1384.24 2223.1,1384.24 2225.26,1384.24 2227.42,1384.24 2229.58,1384.24 2231.74,1384.24 2233.9,1384.24 2236.06,1384.24 2238.22,1384.24 2240.38,1384.24 2242.55,1384.24 2244.71,1384.24 2246.87,1384.24 2249.03,1384.24 2251.19,1384.24 2253.35,1384.24 2255.51,1384.24 2257.67,1384.24 2259.83,1384.24 2261.99,1384.24 2264.16,1384.24 2266.32,1384.24 2268.48,1384.24 2270.64,1384.24 2272.8,1384.24 2274.96,1384.24 2277.12,1384.24 2279.28,1384.24 2281.44,1384.24 2283.6,1384.24 2285.77,1384.24 2287.93,1384.24 2290.09,1384.24 2292.25,1384.24 2294.41,1384.24 2296.57,1384.24 2298.73,1384.24 2300.89,1384.24 2303.05,1384.24 2305.21,1384.24 2307.38,1384.24 2309.54,1384.24 2311.7,1384.24 2313.86,1384.24 2316.02,1384.24 2318.18,1384.24 2320.34,1384.24 2322.5,1384.24 2324.66,1384.24 2326.82,1384.24 2328.99,1384.24 2331.15,1384.24 2333.31,1384.24 2335.47,1384.24 2337.63,1384.24 2339.79,1384.24 2341.95,1384.24 2344.11,1384.24 2346.27,1384.24 2348.43,1384.24 2350.59,1384.24 2352.76,1384.24 "/>
<path clip-path="url(#clip750)" d="M2039.77 248.629 L2280.8 248.629 L2280.8 93.1086 L2039.77 93.1086  Z" fill="#ffffff" fill-rule="evenodd" fill-opacity="1"/>
<polyline clip-path="url(#clip750)" style="stroke:#000000; stroke-linecap:round; stroke-linejoin:round; stroke-width:4; stroke-opacity:1; fill:none" points="2039.77,248.629 2280.8,248.629 2280.8,93.1086 2039.77,93.1086 2039.77,248.629 "/>
<polyline clip-path="url(#clip750)" style="stroke:#009af9; stroke-linecap:round; stroke-linejoin:round; stroke-width:4; stroke-opacity:1; fill:none" points="2063.76,144.949 2207.68,144.949 "/>
<path clip-path="url(#clip750)" d="M2256.32 136.303 L2246.95 148.919 L2256.81 162.229 L2251.79 162.229 L2244.24 152.043 L2236.69 162.229 L2231.67 162.229 L2241.74 148.664 L2232.53 136.303 L2237.55 136.303 L2244.42 145.539 L2251.3 136.303 L2256.32 136.303 Z" fill="#000000" fill-rule="nonzero" fill-opacity="1" /><polyline clip-path="url(#clip750)" style="stroke:#e26f46; stroke-linecap:round; stroke-linejoin:round; stroke-width:4; stroke-opacity:1; fill:none" points="2063.76,196.789 2207.68,196.789 "/>
<path clip-path="url(#clip750)" d="M2248.17 178.05 L2248.17 181.592 L2244.1 181.592 Q2241.81 181.592 2240.91 182.518 Q2240.03 183.444 2240.03 185.851 L2240.03 188.143 L2247.04 188.143 L2247.04 191.453 L2240.03 191.453 L2240.03 214.069 L2235.74 214.069 L2235.74 191.453 L2231.67 191.453 L2231.67 188.143 L2235.74 188.143 L2235.74 186.337 Q2235.74 182.009 2237.76 180.041 Q2239.77 178.05 2244.15 178.05 L2248.17 178.05 Z" fill="#000000" fill-rule="nonzero" fill-opacity="1" /></svg>
