<?xml version="1.0" encoding="utf-8"?>
<svg xmlns="http://www.w3.org/2000/svg" xmlns:xlink="http://www.w3.org/1999/xlink" width="600" height="400" viewBox="0 0 2400 1600">
<defs>
  <clipPath id="clip720">
    <rect x="0" y="0" width="2400" height="1600"/>
  </clipPath>
</defs>
<path clip-path="url(#clip720)" d="M0 1600 L2400 1600 L2400 0 L0 0  Z" fill="#ffffff" fill-rule="evenodd" fill-opacity="1"/>
<defs>
  <clipPath id="clip721">
    <rect x="480" y="0" width="1681" height="1600"/>
  </clipPath>
</defs>
<path clip-path="url(#clip720)" d="M147.478 1423.18 L2352.76 1423.18 L2352.76 47.2441 L147.478 47.2441  Z" fill="#ffffff" fill-rule="evenodd" fill-opacity="1"/>
<defs>
  <clipPath id="clip722">
    <rect x="147" y="47" width="2206" height="1377"/>
  </clipPath>
</defs>
<polyline clip-path="url(#clip722)" style="stroke:#000000; stroke-linecap:round; stroke-linejoin:round; stroke-width:2; stroke-opacity:0.1; fill:none" points="147.478,1423.18 147.478,47.2441 "/>
<polyline clip-path="url(#clip722)" style="stroke:#000000; stroke-linecap:round; stroke-linejoin:round; stroke-width:2; stroke-opacity:0.1; fill:none" points="588.534,1423.18 588.534,47.2441 "/>
<polyline clip-path="url(#clip722)" style="stroke:#000000; stroke-linecap:round; stroke-linejoin:round; stroke-width:2; stroke-opacity:0.1; fill:none" points="1029.59,1423.18 1029.59,47.2441 "/>
<polyline clip-path="url(#clip722)" style="stroke:#000000; stroke-linecap:round; stroke-linejoin:round; stroke-width:2; stroke-opacity:0.1; fill:none" points="1470.64,1423.18 1470.64,47.2441 "/>
<polyline clip-path="url(#clip722)" style="stroke:#000000; stroke-linecap:round; stroke-linejoin:round; stroke-width:2; stroke-opacity:0.1; fill:none" points="1911.7,1423.18 1911.7,47.2441 "/>
<polyline clip-path="url(#clip722)" style="stroke:#000000; stroke-linecap:round; stroke-linejoin:round; stroke-width:2; stroke-opacity:0.1; fill:none" points="2352.76,1423.18 2352.76,47.2441 "/>
<polyline clip-path="url(#clip720)" style="stroke:#000000; stroke-linecap:round; stroke-linejoin:round; stroke-width:4; stroke-opacity:1; fill:none" points="147.478,1423.18 2352.76,1423.18 "/>
<polyline clip-path="url(#clip720)" style="stroke:#000000; stroke-linecap:round; stroke-linejoin:round; stroke-width:4; stroke-opacity:1; fill:none" points="147.478,1423.18 147.478,1404.28 "/>
<polyline clip-path="url(#clip720)" style="stroke:#000000; stroke-linecap:round; stroke-linejoin:round; stroke-width:4; stroke-opacity:1; fill:none" points="588.534,1423.18 588.534,1404.28 "/>
<polyline clip-path="url(#clip720)" style="stroke:#000000; stroke-linecap:round; stroke-linejoin:round; stroke-width:4; stroke-opacity:1; fill:none" points="1029.59,1423.18 1029.59,1404.28 "/>
<polyline clip-path="url(#clip720)" style="stroke:#000000; stroke-linecap:round; stroke-linejoin:round; stroke-width:4; stroke-opacity:1; fill:none" points="1470.64,1423.18 1470.64,1404.28 "/>
<polyline clip-path="url(#clip720)" style="stroke:#000000; stroke-linecap:round; stroke-linejoin:round; stroke-width:4; stroke-opacity:1; fill:none" points="1911.7,1423.18 1911.7,1404.28 "/>
<polyline clip-path="url(#clip720)" style="stroke:#000000; stroke-linecap:round; stroke-linejoin:round; stroke-width:4; stroke-opacity:1; fill:none" points="2352.76,1423.18 2352.76,1404.28 "/>
<path clip-path="url(#clip720)" d="M147.478 1454.1 Q143.867 1454.1 142.038 1457.66 Q140.233 1461.2 140.233 1468.33 Q140.233 1475.44 142.038 1479.01 Q143.867 1482.55 147.478 1482.55 Q151.112 1482.55 152.918 1479.01 Q154.746 1475.44 154.746 1468.33 Q154.746 1461.2 152.918 1457.66 Q151.112 1454.1 147.478 1454.1 M147.478 1450.39 Q153.288 1450.39 156.344 1455 Q159.422 1459.58 159.422 1468.33 Q159.422 1477.06 156.344 1481.67 Q153.288 1486.25 147.478 1486.25 Q141.668 1486.25 138.589 1481.67 Q135.534 1477.06 135.534 1468.33 Q135.534 1459.58 138.589 1455 Q141.668 1450.39 147.478 1450.39 Z" fill="#000000" fill-rule="nonzero" fill-opacity="1" /><path clip-path="url(#clip720)" d="M583.186 1481.64 L599.506 1481.64 L599.506 1485.58 L577.561 1485.58 L577.561 1481.64 Q580.223 1478.89 584.807 1474.26 Q589.413 1469.61 590.594 1468.27 Q592.839 1465.74 593.719 1464.01 Q594.621 1462.25 594.621 1460.56 Q594.621 1457.8 592.677 1456.07 Q590.756 1454.33 587.654 1454.33 Q585.455 1454.33 583.001 1455.09 Q580.571 1455.86 577.793 1457.41 L577.793 1452.69 Q580.617 1451.55 583.071 1450.97 Q585.524 1450.39 587.561 1450.39 Q592.932 1450.39 596.126 1453.08 Q599.32 1455.77 599.32 1460.26 Q599.32 1462.39 598.51 1464.31 Q597.723 1466.2 595.617 1468.8 Q595.038 1469.47 591.936 1472.69 Q588.834 1475.88 583.186 1481.64 Z" fill="#000000" fill-rule="nonzero" fill-opacity="1" /><path clip-path="url(#clip720)" d="M1032.6 1455.09 L1020.79 1473.54 L1032.6 1473.54 L1032.6 1455.09 M1031.37 1451.02 L1037.25 1451.02 L1037.25 1473.54 L1042.18 1473.54 L1042.18 1477.43 L1037.25 1477.43 L1037.25 1485.58 L1032.6 1485.58 L1032.6 1477.43 L1017 1477.43 L1017 1472.92 L1031.37 1451.02 Z" fill="#000000" fill-rule="nonzero" fill-opacity="1" /><path clip-path="url(#clip720)" d="M1471.05 1466.44 Q1467.9 1466.44 1466.05 1468.59 Q1464.22 1470.74 1464.22 1474.49 Q1464.22 1478.22 1466.05 1480.39 Q1467.9 1482.55 1471.05 1482.55 Q1474.2 1482.55 1476.03 1480.39 Q1477.88 1478.22 1477.88 1474.49 Q1477.88 1470.74 1476.03 1468.59 Q1474.2 1466.44 1471.05 1466.44 M1480.33 1451.78 L1480.33 1456.04 Q1478.57 1455.21 1476.77 1454.77 Q1474.98 1454.33 1473.23 1454.33 Q1468.6 1454.33 1466.14 1457.45 Q1463.71 1460.58 1463.36 1466.9 Q1464.73 1464.89 1466.79 1463.82 Q1468.85 1462.73 1471.33 1462.73 Q1476.54 1462.73 1479.55 1465.9 Q1482.58 1469.05 1482.58 1474.49 Q1482.58 1479.82 1479.43 1483.03 Q1476.28 1486.25 1471.05 1486.25 Q1465.05 1486.25 1461.88 1481.67 Q1458.71 1477.06 1458.71 1468.33 Q1458.71 1460.14 1462.6 1455.28 Q1466.49 1450.39 1473.04 1450.39 Q1474.8 1450.39 1476.58 1450.74 Q1478.39 1451.09 1480.33 1451.78 Z" fill="#000000" fill-rule="nonzero" fill-opacity="1" /><path clip-path="url(#clip720)" d="M1911.7 1469.17 Q1908.37 1469.17 1906.45 1470.95 Q1904.55 1472.73 1904.55 1475.86 Q1904.55 1478.98 1906.45 1480.77 Q1908.37 1482.55 1911.7 1482.55 Q1915.03 1482.55 1916.95 1480.77 Q1918.88 1478.96 1918.88 1475.86 Q1918.88 1472.73 1916.95 1470.95 Q1915.06 1469.17 1911.7 1469.17 M1907.02 1467.18 Q1904.02 1466.44 1902.33 1464.38 Q1900.66 1462.32 1900.66 1459.35 Q1900.66 1455.21 1903.6 1452.8 Q1906.56 1450.39 1911.7 1450.39 Q1916.86 1450.39 1919.8 1452.8 Q1922.74 1455.21 1922.74 1459.35 Q1922.74 1462.32 1921.05 1464.38 Q1919.39 1466.44 1916.4 1467.18 Q1919.78 1467.96 1921.65 1470.26 Q1923.55 1472.55 1923.55 1475.86 Q1923.55 1480.88 1920.47 1483.57 Q1917.42 1486.25 1911.7 1486.25 Q1905.98 1486.25 1902.9 1483.57 Q1899.85 1480.88 1899.85 1475.86 Q1899.85 1472.55 1901.75 1470.26 Q1903.64 1467.96 1907.02 1467.18 M1905.31 1459.79 Q1905.31 1462.48 1906.98 1463.98 Q1908.67 1465.49 1911.7 1465.49 Q1914.71 1465.49 1916.4 1463.98 Q1918.11 1462.48 1918.11 1459.79 Q1918.11 1457.11 1916.4 1455.6 Q1914.71 1454.1 1911.7 1454.1 Q1908.67 1454.1 1906.98 1455.6 Q1905.31 1457.11 1905.31 1459.79 Z" fill="#000000" fill-rule="nonzero" fill-opacity="1" /><path clip-path="url(#clip720)" d="M2327.44 1481.64 L2335.08 1481.64 L2335.08 1455.28 L2326.77 1456.95 L2326.77 1452.69 L2335.04 1451.02 L2339.71 1451.02 L2339.71 1481.64 L2347.35 1481.64 L2347.35 1485.58 L2327.44 1485.58 L2327.44 1481.64 Z" fill="#000000" fill-rule="nonzero" fill-opacity="1" /><path clip-path="url(#clip720)" d="M2366.8 1454.1 Q2363.18 1454.1 2361.36 1457.66 Q2359.55 1461.2 2359.55 1468.33 Q2359.55 1475.44 2361.36 1479.01 Q2363.18 1482.55 2366.8 1482.55 Q2370.43 1482.55 2372.23 1479.01 Q2374.06 1475.44 2374.06 1468.33 Q2374.06 1461.2 2372.23 1457.66 Q2370.43 1454.1 2366.8 1454.1 M2366.8 1450.39 Q2372.61 1450.39 2375.66 1455 Q2378.74 1459.58 2378.74 1468.33 Q2378.74 1477.06 2375.66 1481.67 Q2372.61 1486.25 2366.8 1486.25 Q2360.99 1486.25 2357.91 1481.67 Q2354.85 1477.06 2354.85 1468.33 Q2354.85 1459.58 2357.91 1455 Q2360.99 1450.39 2366.8 1450.39 Z" fill="#000000" fill-rule="nonzero" fill-opacity="1" /><path clip-path="url(#clip720)" d="M1249.18 1522.27 L1249.18 1532.4 L1261.24 1532.4 L1261.24 1536.95 L1249.18 1536.95 L1249.18 1556.3 Q1249.18 1560.66 1250.36 1561.9 Q1251.57 1563.14 1255.23 1563.14 L1261.24 1563.14 L1261.24 1568.04 L1255.23 1568.04 Q1248.45 1568.04 1245.87 1565.53 Q1243.29 1562.98 1243.29 1556.3 L1243.29 1536.95 L1238.99 1536.95 L1238.99 1532.4 L1243.29 1532.4 L1243.29 1522.27 L1249.18 1522.27 Z" fill="#000000" fill-rule="nonzero" fill-opacity="1" /><polyline clip-path="url(#clip722)" style="stroke:#000000; stroke-linecap:round; stroke-linejoin:round; stroke-width:2; stroke-opacity:0.1; fill:none" points="147.478,1351.25 2352.76,1351.25 "/>
<polyline clip-path="url(#clip722)" style="stroke:#000000; stroke-linecap:round; stroke-linejoin:round; stroke-width:2; stroke-opacity:0.1; fill:none" points="147.478,985.399 2352.76,985.399 "/>
<polyline clip-path="url(#clip722)" style="stroke:#000000; stroke-linecap:round; stroke-linejoin:round; stroke-width:2; stroke-opacity:0.1; fill:none" points="147.478,619.551 2352.76,619.551 "/>
<polyline clip-path="url(#clip722)" style="stroke:#000000; stroke-linecap:round; stroke-linejoin:round; stroke-width:2; stroke-opacity:0.1; fill:none" points="147.478,253.704 2352.76,253.704 "/>
<polyline clip-path="url(#clip720)" style="stroke:#000000; stroke-linecap:round; stroke-linejoin:round; stroke-width:4; stroke-opacity:1; fill:none" points="147.478,1423.18 147.478,47.2441 "/>
<polyline clip-path="url(#clip720)" style="stroke:#000000; stroke-linecap:round; stroke-linejoin:round; stroke-width:4; stroke-opacity:1; fill:none" points="147.478,1351.25 166.376,1351.25 "/>
<polyline clip-path="url(#clip720)" style="stroke:#000000; stroke-linecap:round; stroke-linejoin:round; stroke-width:4; stroke-opacity:1; fill:none" points="147.478,985.399 166.376,985.399 "/>
<polyline clip-path="url(#clip720)" style="stroke:#000000; stroke-linecap:round; stroke-linejoin:round; stroke-width:4; stroke-opacity:1; fill:none" points="147.478,619.551 166.376,619.551 "/>
<polyline clip-path="url(#clip720)" style="stroke:#000000; stroke-linecap:round; stroke-linejoin:round; stroke-width:4; stroke-opacity:1; fill:none" points="147.478,253.704 166.376,253.704 "/>
<path clip-path="url(#clip720)" d="M51.3625 1351.7 L81.0383 1351.7 L81.0383 1355.63 L51.3625 1355.63 L51.3625 1351.7 Z" fill="#000000" fill-rule="nonzero" fill-opacity="1" /><path clip-path="url(#clip720)" d="M95.1586 1364.59 L111.478 1364.59 L111.478 1368.53 L89.5336 1368.53 L89.5336 1364.59 Q92.1956 1361.84 96.7789 1357.21 Q101.385 1352.55 102.566 1351.21 Q104.811 1348.69 105.691 1346.95 Q106.594 1345.19 106.594 1343.5 Q106.594 1340.75 104.649 1339.01 Q102.728 1337.28 99.6261 1337.28 Q97.4271 1337.28 94.9734 1338.04 Q92.5428 1338.8 89.7651 1340.35 L89.7651 1335.63 Q92.5891 1334.5 95.0428 1333.92 Q97.4965 1333.34 99.5335 1333.34 Q104.904 1333.34 108.098 1336.03 Q111.293 1338.71 111.293 1343.2 Q111.293 1345.33 110.483 1347.25 Q109.696 1349.15 107.589 1351.74 Q107.01 1352.41 103.909 1355.63 Q100.807 1358.83 95.1586 1364.59 Z" fill="#000000" fill-rule="nonzero" fill-opacity="1" /><path clip-path="url(#clip720)" d="M50.9921 985.85 L80.6679 985.85 L80.6679 989.785 L50.9921 989.785 L50.9921 985.85 Z" fill="#000000" fill-rule="nonzero" fill-opacity="1" /><path clip-path="url(#clip720)" d="M91.5706 998.743 L99.2095 998.743 L99.2095 972.378 L90.8993 974.044 L90.8993 969.785 L99.1632 968.119 L103.839 968.119 L103.839 998.743 L111.478 998.743 L111.478 1002.68 L91.5706 1002.68 L91.5706 998.743 Z" fill="#000000" fill-rule="nonzero" fill-opacity="1" /><path clip-path="url(#clip720)" d="M99.5335 605.35 Q95.9224 605.35 94.0937 608.915 Q92.2882 612.457 92.2882 619.586 Q92.2882 626.693 94.0937 630.257 Q95.9224 633.799 99.5335 633.799 Q103.168 633.799 104.973 630.257 Q106.802 626.693 106.802 619.586 Q106.802 612.457 104.973 608.915 Q103.168 605.35 99.5335 605.35 M99.5335 601.646 Q105.344 601.646 108.399 606.253 Q111.478 610.836 111.478 619.586 Q111.478 628.313 108.399 632.919 Q105.344 637.503 99.5335 637.503 Q93.7234 637.503 90.6447 632.919 Q87.5892 628.313 87.5892 619.586 Q87.5892 610.836 90.6447 606.253 Q93.7234 601.646 99.5335 601.646 Z" fill="#000000" fill-rule="nonzero" fill-opacity="1" /><path clip-path="url(#clip720)" d="M91.5706 267.049 L99.2095 267.049 L99.2095 240.684 L90.8993 242.35 L90.8993 238.091 L99.1632 236.424 L103.839 236.424 L103.839 267.049 L111.478 267.049 L111.478 270.984 L91.5706 270.984 L91.5706 267.049 Z" fill="#000000" fill-rule="nonzero" fill-opacity="1" /><polyline clip-path="url(#clip722)" style="stroke:#009af9; stroke-linecap:round; stroke-linejoin:round; stroke-width:4; stroke-opacity:1; fill:none" points="147.478,619.551 149.685,615.524 151.893,611.57 154.1,607.718 156.308,603.916 158.515,600.117 160.723,596.276 162.93,592.433 165.138,588.815 167.345,585.297 169.553,581.858 171.76,578.478 173.968,575.138 176.175,571.818 178.383,568.497 180.59,565.157 182.798,561.777 185.005,558.337 187.213,554.817 189.42,551.449 191.628,548.376 193.835,545.391 196.043,542.481 198.25,539.635 200.458,536.842 202.665,534.09 204.873,531.367 207.08,528.663 209.288,525.965 211.495,523.263 213.702,520.545 215.91,517.799 218.117,515.013 220.325,512.177 222.532,509.279 224.74,506.307 226.947,503.547 229.155,501.098 231.362,498.72 233.57,496.405 235.777,494.148 237.985,491.94 240.192,489.775 242.4,487.646 244.607,485.547 246.815,483.469 249.022,481.406 251.23,479.352 253.437,477.299 255.645,475.24 257.852,473.169 260.06,471.078 262.267,468.961 264.475,466.81 266.682,464.619 268.89,462.381 271.097,460.088 273.305,457.735 275.512,455.695 277.72,453.873 279.927,452.103 282.135,450.382 284.342,448.705 286.549,447.069 288.757,445.469 290.964,443.902 293.172,442.364 295.379,440.85 297.587,439.357 299.794,437.881 302.002,436.418 304.209,434.965 306.417,433.516 308.624,432.068 310.832,430.618 313.039,429.16 315.247,427.692 317.454,426.21 319.662,424.709 321.869,423.185 324.077,421.635 326.284,420.055 328.492,418.44 330.699,416.787 332.907,415.092 335.114,413.351 337.322,411.973 339.529,410.722 341.737,409.505 343.944,408.314 346.152,407.143 348.359,405.987 350.567,404.84 352.774,403.695 354.982,402.546 357.189,401.388 359.397,400.215 361.604,399.02 363.811,397.797 366.019,396.621 368.226,396.047 370.434,396.097 372.641,396.747 374.849,397.969 377.056,399.738 379.264,402.027 381.471,404.81 383.679,408.06 385.886,411.753 388.094,415.86 390.301,420.356 392.509,425.215 394.716,430.411 396.924,435.916 399.131,441.706 401.339,447.753 403.546,454.032 405.754,460.516 407.961,467.179 410.169,473.995 412.376,480.937 414.584,487.98 416.791,495.096 418.999,502.26 421.206,509.446 423.414,516.626 425.621,523.776 427.829,530.869 430.036,537.877 432.244,544.777 434.451,551.304 436.659,555.792 438.866,560.152 441.073,564.403 443.281,568.567 445.488,572.666 447.696,576.721 449.903,580.753 452.111,584.783 454.318,588.833 456.526,592.924 458.733,597.078 460.941,601.315 463.148,605.658 465.356,609.657 467.563,613.352 469.771,616.943 471.978,620.435 474.186,623.833 476.393,627.144 478.601,630.374 480.808,633.529 483.016,636.614 485.223,639.636 487.431,642.601 489.638,645.513 491.846,648.381 494.053,651.208 496.261,654.002 498.468,656.768 500.676,659.512 502.883,662.241 505.091,664.959 507.298,667.674 509.506,670.39 511.713,673.114 513.921,675.852 516.128,678.61 518.335,681.394 520.543,684.209 522.75,687.062 524.958,689.958 527.165,692.904 529.373,695.905 531.58,698.968 533.788,702.098 535.995,705.301 538.203,708.583 540.41,711.951 542.618,715.409 544.825,718.042 547.033,720.32 549.24,722.535 551.448,724.694 553.655,726.805 555.863,728.875 558.07,730.914 560.278,732.927 562.485,734.924 564.693,736.911 566.9,738.897 569.108,740.89 571.315,742.898 573.523,744.927 575.73,746.986 577.938,749.083 580.145,751.225 582.353,753.421 584.56,755.563 586.768,756.974 588.975,757.806 591.182,758.088 593.39,757.848 595.597,757.114 597.805,755.915 600.012,754.278 602.22,752.232 604.427,749.805 606.635,747.025 608.842,743.921 611.05,740.521 613.257,736.853 615.465,732.945 617.672,728.826 619.88,724.523 622.087,720.065 624.295,715.481 626.502,710.798 628.71,706.045 630.917,701.25 633.125,696.441 635.332,691.647 637.54,686.895 639.747,682.214 641.955,677.633 644.162,673.178 646.37,669.088 648.577,666.163 650.785,663.323 652.992,660.555 655.2,657.848 657.407,655.189 659.615,652.567 661.822,649.968 664.03,647.381 666.237,644.794 668.444,642.193 670.652,639.568 672.859,636.906 675.067,634.195 677.274,631.422 679.482,628.576 681.689,626.153 683.897,623.817 686.104,621.547 688.312,619.339 690.519,617.188 692.727,615.093 694.934,613.048 697.142,611.05 699.349,609.095 701.557,607.179 703.764,605.299 705.972,603.451 708.179,601.631 710.387,599.834 712.594,598.059 714.802,596.299 717.009,594.553 719.217,592.815 721.424,591.083 723.632,589.352 725.839,587.619 728.047,585.879 730.254,584.13 732.462,582.366 734.669,580.586 736.877,578.783 739.084,576.956 741.292,575.1 743.499,573.211 745.706,571.286 747.914,569.32 750.121,567.31 752.329,565.253 754.536,563.143 756.744,560.979 758.951,558.8 761.159,557.293 763.366,555.793 765.574,554.298 767.781,552.81 769.989,551.328 772.196,549.851 774.404,548.379 776.611,546.913 778.819,545.451 781.026,543.993 783.234,542.54 785.441,541.091 787.649,539.646 789.856,538.204 792.064,536.766 794.271,535.331 796.479,533.898 798.686,532.468 800.894,531.04 803.101,529.615 805.309,528.191 807.516,526.769 809.724,525.348 811.931,523.928 814.139,522.509 816.346,521.091 818.553,519.673 820.761,518.255 822.968,516.825 825.176,515.417 827.383,514.049 829.591,512.718 831.798,511.419 834.006,510.148 836.213,508.901 838.421,507.674 840.628,506.462 842.836,505.263 845.043,504.07 847.251,502.881 849.458,501.691 851.666,500.496 853.873,499.291 856.081,498.074 858.288,496.838 860.496,495.582 862.703,494.299 864.911,492.987 867.118,491.64 869.326,490.383 871.533,489.314 873.741,488.274 875.948,487.262 878.156,486.277 880.363,485.318 882.571,484.383 884.778,483.472 886.986,482.584 889.193,481.717 891.401,480.87 893.608,480.042 895.815,479.232 898.023,478.439 900.23,477.662 902.438,476.899 904.645,476.15 906.853,475.413 909.06,474.687 911.268,473.972 913.475,473.265 915.683,472.566 917.89,471.874 920.098,471.187 922.305,470.505 924.513,469.826 926.72,469.149 928.928,468.473 931.135,467.798 933.343,467.121 935.55,466.442 937.758,465.759 939.965,465.072 942.173,464.379 944.38,463.679 946.588,462.972 948.795,462.255 951.003,461.528 953.21,460.79 955.418,460.039 957.625,459.275 959.833,458.496 962.04,457.702 964.248,456.89 966.455,456.061 968.663,455.212 970.87,454.343 973.077,453.452 975.285,452.539 977.492,451.602 979.7,450.641 981.907,450.034 984.115,449.499 986.322,448.978 988.53,448.471 990.737,447.974 992.945,447.488 995.152,447.009 997.36,446.536 999.567,446.067 1001.77,445.601 1003.98,445.135 1006.19,444.668 1008.4,444.198 1010.6,443.724 1012.81,443.243 1015.02,442.754 1017.23,442.255 1019.43,441.745 1021.64,441.22 1023.85,440.965 1026.06,441.45 1028.26,442.639 1030.47,444.499 1032.68,446.992 1034.89,450.085 1037.09,453.743 1039.3,457.928 1041.51,462.608 1043.72,467.746 1045.92,473.306 1048.13,479.255 1050.34,485.557 1052.55,492.176 1054.75,499.077 1056.96,506.226 1059.17,513.586 1061.38,521.123 1063.58,528.801 1065.79,536.585 1068,544.44 1070.21,552.332 1072.41,560.223 1074.62,568.08 1076.83,575.867 1079.04,583.549 1081.24,591.09 1083.45,597.348 1085.66,602.479 1087.87,607.47 1090.07,612.345 1092.28,617.129 1094.49,621.844 1096.7,626.515 1098.9,631.166 1101.11,635.821 1103.32,640.505 1105.53,645.24 1107.73,650.052 1109.94,654.964 1112.15,660 1114.36,664.55 1116.56,668.797 1118.77,672.922 1120.98,676.934 1123.19,680.842 1125.39,684.653 1127.6,688.376 1129.81,692.019 1132.02,695.591 1134.22,699.099 1136.43,702.553 1138.64,705.961 1140.85,709.33 1143.05,712.669 1145.26,715.987 1147.47,719.292 1149.68,722.592 1151.88,725.896 1154.09,729.211 1156.3,732.546 1158.51,735.91 1160.71,739.311 1162.92,742.757 1165.13,746.256 1167.34,749.818 1169.54,753.449 1171.75,757.158 1173.96,760.955 1176.17,764.846 1178.37,768.841 1180.58,772.503 1182.79,775.366 1185,778.146 1187.2,780.849 1189.41,783.48 1191.62,786.046 1193.83,788.551 1196.03,791.002 1198.24,793.406 1200.45,795.766 1202.66,798.091 1204.86,800.384 1207.07,802.653 1209.28,804.902 1211.49,807.139 1213.69,809.368 1215.9,811.595 1218.11,813.827 1220.32,816.069 1222.52,818.327 1224.73,820.607 1226.94,822.914 1229.15,825.255 1231.35,827.635 1233.56,830.06 1235.77,832.537 1237.98,835.07 1240.18,837.666 1242.39,840.33 1244.6,842.868 1246.81,845.1 1249.01,847.629 1251.22,850.449 1253.43,853.547 1255.64,856.916 1257.84,860.546 1260.05,864.427 1262.26,868.55 1264.47,872.905 1266.67,877.483 1268.88,882.274 1271.09,887.27 1273.3,892.46 1275.5,897.836 1277.71,903.387 1279.92,909.104 1282.13,914.978 1284.33,921 1286.54,927.159 1288.75,933.447 1290.96,939.854 1293.16,946.37 1295.37,952.986 1297.58,959.693 1299.79,966.482 1301.99,973.342 1304.2,980.264 1306.41,987.239 1308.62,994.258 1310.82,1001.31 1313.03,1008.39 1315.24,1015.48 1317.45,1022.58 1319.65,1029.67 1321.86,1034.95 1324.07,1039.48 1326.28,1043.88 1328.48,1048.16 1330.69,1052.35 1332.9,1056.45 1335.11,1060.47 1337.31,1064.43 1339.52,1068.34 1341.73,1072.21 1343.94,1076.07 1346.14,1079.91 1348.35,1083.76 1350.56,1087.63 1352.76,1091.53 1354.97,1095.47 1357.18,1099.47 1359.39,1103.55 1361.59,1107.7 1363.8,1111.96 1366.01,1116.33 1368.22,1120.33 1370.42,1123.78 1372.63,1127.12 1374.84,1130.37 1377.05,1133.54 1379.25,1136.62 1381.46,1139.63 1383.67,1142.56 1385.88,1145.43 1388.08,1148.25 1390.29,1151 1392.5,1153.71 1394.71,1156.38 1396.91,1159.01 1399.12,1161.61 1401.33,1164.19 1403.54,1166.74 1405.74,1169.28 1407.95,1171.81 1410.16,1174.33 1412.37,1176.86 1414.57,1179.4 1416.78,1181.95 1418.99,1184.52 1421.2,1187.11 1423.4,1189.73 1425.61,1192.39 1427.82,1195.09 1430.03,1197.84 1432.23,1200.64 1434.44,1203.49 1436.65,1206.42 1438.86,1209.41 1441.06,1212.47 1443.27,1215.62 1445.48,1218.83 1447.69,1221 1449.89,1223.12 1452.1,1225.2 1454.31,1227.27 1456.52,1229.35 1458.72,1231.46 1460.93,1233.55 1463.14,1234.47 1465.35,1233.88 1467.55,1231.84 1469.76,1228.42 1471.97,1223.69 1474.18,1217.72 1476.38,1210.57 1478.59,1202.33 1480.8,1193.05 1483.01,1182.8 1485.21,1171.65 1487.42,1159.67 1489.63,1146.93 1491.84,1133.5 1494.04,1119.44 1496.25,1104.83 1498.46,1089.73 1500.67,1074.22 1502.87,1058.35 1505.08,1042.2 1507.29,1025.84 1509.5,1009.34 1511.7,992.756 1513.91,976.168 1516.12,959.642 1518.33,943.245 1520.53,927.047 1522.74,911.117 1524.95,895.872 1527.16,885.252 1529.36,874.941 1531.57,864.89 1533.78,855.051 1535.99,845.375 1538.19,835.813 1540.4,826.317 1542.61,816.838 1544.82,807.328 1547.02,797.739 1549.23,788.02 1551.44,778.125 1553.65,768.003 1555.85,757.875 1558.06,749.066 1560.27,740.51 1562.48,732.194 1564.68,724.104 1566.89,716.226 1569.1,708.546 1571.31,701.052 1573.51,693.73 1575.72,686.566 1577.93,679.546 1580.14,672.657 1582.34,665.886 1584.55,659.219 1586.76,652.642 1588.97,646.143 1591.17,639.706 1593.38,633.32 1595.59,626.969 1597.8,620.642 1600,614.324 1602.21,608.001 1604.42,601.66 1606.63,595.288 1608.83,588.872 1611.04,582.396 1613.25,575.849 1615.46,569.216 1617.66,562.484 1619.87,555.639 1622.08,548.668 1624.29,541.558 1626.49,534.294 1628.7,526.863 1630.91,519.252 1633.12,511.447 1635.32,503.435 1637.53,496.114 1639.74,490.759 1641.95,485.546 1644.15,480.44 1646.36,475.406 1648.57,470.41 1650.78,465.417 1652.98,460.392 1655.19,455.302 1657.4,450.112 1659.61,444.892 1661.81,440.196 1664.02,435.634 1666.23,431.185 1668.44,426.826 1670.64,422.537 1672.85,418.294 1675.06,414.076 1677.27,409.861 1679.47,405.628 1681.68,401.353 1683.89,397.016 1686.1,392.594 1688.3,388.066 1690.51,383.952 1692.72,381.594 1694.93,380.789 1697.13,381.423 1699.34,383.384 1701.55,386.56 1703.76,390.838 1705.96,396.105 1708.17,402.251 1710.38,409.161 1712.59,416.723 1714.79,424.826 1717,433.356 1719.21,442.201 1721.42,451.249 1723.62,460.387 1725.83,469.503 1728.04,478.484 1730.25,487.219 1732.45,495.593 1734.66,503.301 1736.87,509.145 1739.07,514.829 1741.28,520.393 1743.49,525.874 1745.7,531.313 1747.9,536.748 1750.11,542.217 1752.32,547.76 1754.53,553.416 1756.73,559.003 1758.94,564.103 1761.15,569.057 1763.36,573.872 1765.56,578.557 1767.77,583.123 1769.98,587.578 1772.19,591.931 1774.39,596.191 1776.6,600.368 1778.81,604.47 1781.02,608.508 1783.22,612.489 1785.43,616.423 1787.64,620.32 1789.85,624.188 1792.05,628.037 1794.26,631.875 1796.47,635.712 1798.68,639.557 1800.88,643.42 1803.09,647.308 1805.3,651.232 1807.51,655.201 1809.71,659.223 1811.92,663.309 1814.13,667.466 1816.34,671.704 1818.54,676.033 1820.75,680.462 1822.96,684.999 1825.17,689.653 1827.37,694.435 1829.58,697.972 1831.79,701.223 1834,704.382 1836.2,707.46 1838.41,710.464 1840.62,713.404 1842.83,716.289 1845.03,719.13 1847.24,721.934 1849.45,724.711 1851.66,727.47 1853.86,730.221 1856.07,732.973 1858.28,735.735 1860.49,738.516 1862.69,741.325 1864.9,744.172 1867.11,747.066 1869.32,750.017 1871.52,753.032 1873.73,756.123 1875.94,759.297 1878.15,761.883 1880.35,764.306 1882.56,766.666 1884.77,768.972 1886.98,771.235 1889.18,773.467 1891.39,775.677 1893.6,777.876 1895.81,780.075 1898.01,782.285 1900.22,784.515 1902.43,786.778 1904.64,789.084 1906.84,791.443 1909.05,793.811 1911.26,795.555 1913.47,796.794 1915.67,797.553 1917.88,797.856 1920.09,797.729 1922.3,797.199 1924.5,796.289 1926.71,795.026 1928.92,793.435 1931.13,791.541 1933.33,789.37 1935.54,786.947 1937.75,784.298 1939.96,781.448 1942.16,778.422 1944.37,775.245 1946.58,771.944 1948.79,768.544 1950.99,765.069 1953.2,761.546 1955.41,757.999 1957.62,754.455 1959.82,750.938 1962.03,747.474 1964.24,744.089 1966.45,740.807 1968.65,737.655 1970.86,735.099 1973.07,733.053 1975.28,731.064 1977.48,729.122 1979.69,727.22 1981.9,725.347 1984.11,723.495 1986.31,721.655 1988.52,719.817 1990.73,717.974 1992.94,716.116 1995.14,714.233 1997.35,712.318 1999.56,710.361 2001.77,708.353 2003.97,706.59 2006.18,704.92 2008.39,703.297 2010.6,701.719 2012.8,700.183 2015.01,698.686 2017.22,697.227 2019.43,695.802 2021.63,694.41 2023.84,693.048 2026.05,691.714 2028.26,690.406 2030.46,689.12 2032.67,687.855 2034.88,686.608 2037.09,685.378 2039.29,684.16 2041.5,682.954 2043.71,681.757 2045.92,680.566 2048.12,679.378 2050.33,678.193 2052.54,677.007 2054.75,675.817 2056.95,674.622 2059.16,673.42 2061.37,672.207 2063.58,670.981 2065.78,669.74 2067.99,668.482 2070.2,667.204 2072.41,665.904 2074.61,664.579 2076.82,663.228 2079.03,661.847 2081.24,660.434 2083.44,658.988 2085.65,657.505 2087.86,655.983 2090.07,654.42 2092.27,653.373 2094.48,652.397 2096.69,651.449 2098.9,650.523 2101.1,649.617 2103.31,648.728 2105.52,647.851 2107.73,646.983 2109.93,646.122 2112.14,645.262 2114.35,644.402 2116.55,643.536 2118.76,642.663 2120.97,641.778 2123.18,640.878 2125.38,639.96 2127.59,639.019 2129.8,638.053 2132.01,637.081 2134.21,635.78 2136.42,634.163 2138.63,632.246 2140.84,630.043 2143.04,627.569 2145.25,624.838 2147.46,621.866 2149.67,618.666 2151.87,615.255 2154.08,611.645 2156.29,607.852 2158.5,603.891 2160.7,599.776 2162.91,595.522 2165.12,591.144 2167.33,586.656 2169.53,582.073 2171.74,577.409 2173.95,572.68 2176.16,567.9 2178.36,563.084 2180.57,558.246 2182.78,553.401 2184.99,548.564 2187.19,543.75 2189.4,538.972 2191.61,534.381 2193.82,531.074 2196.02,527.864 2198.23,524.738 2200.44,521.682 2202.65,518.683 2204.85,515.727 2207.06,512.8 2209.27,509.891 2211.48,506.984 2213.68,504.068 2215.89,501.128 2218.1,498.151 2220.31,495.123 2222.51,492.032 2224.72,488.864 2226.93,485.891 2229.14,483.233 2231.34,480.649 2233.55,478.137 2235.76,475.693 2237.97,473.312 2240.17,470.992 2242.38,468.728 2244.59,466.517 2246.8,464.355 2249,462.239 2251.21,460.165 2253.42,458.129 2255.63,456.127 2257.83,454.156 2260.04,452.213 2262.25,450.293 2264.46,448.393 2266.66,446.509 2268.87,444.638 2271.08,442.776 2273.29,440.918 2275.49,439.063 2277.7,437.205 2279.91,435.341 2282.12,433.468 2284.32,431.582 2286.53,429.678 2288.74,427.755 2290.95,425.807 2293.15,423.831 2295.36,421.824 2297.57,419.782 2299.78,417.701 2301.98,415.577 2304.19,413.407 2306.4,411.187 2308.61,408.914 2310.81,406.583 2313.02,404.192 2315.23,401.736 2317.44,400.047 2319.64,398.522 2321.85,397.038 2324.06,395.59 2326.27,394.172 2328.47,392.778 2330.68,391.402 2332.89,390.039 2335.1,388.682 2337.3,387.326 2339.51,385.966 2341.72,384.594 2343.93,383.206 2346.13,381.796 2348.34,380.358 2350.55,378.886 2352.76,377.374 "/>
<polyline clip-path="url(#clip722)" style="stroke:#e26f46; stroke-linecap:round; stroke-linejoin:round; stroke-width:4; stroke-opacity:1; fill:none" points="147.478,315.471 149.685,315.471 151.893,315.471 154.1,315.471 156.308,315.471 158.515,315.471 160.723,315.471 162.93,315.471 165.138,315.471 167.345,315.471 169.553,315.471 171.76,315.471 173.968,315.471 176.175,315.471 178.383,315.471 180.59,315.471 182.798,315.471 185.005,315.471 187.213,315.471 189.42,315.471 191.628,315.471 193.835,315.471 196.043,315.471 198.25,315.471 200.458,315.471 202.665,315.471 204.873,315.471 207.08,315.471 209.288,315.471 211.495,315.471 213.702,315.471 215.91,315.471 218.117,315.471 220.325,315.471 222.532,315.471 224.74,315.471 226.947,315.471 229.155,315.471 231.362,315.471 233.57,315.471 235.777,315.471 237.985,315.471 240.192,315.471 242.4,315.471 244.607,315.471 246.815,315.471 249.022,315.471 251.23,315.471 253.437,315.471 255.645,315.471 257.852,315.471 260.06,315.471 262.267,315.471 264.475,315.471 266.682,315.471 268.89,315.471 271.097,315.471 273.305,315.471 275.512,315.471 277.72,315.471 279.927,315.471 282.135,315.471 284.342,315.471 286.549,315.471 288.757,315.471 290.964,315.471 293.172,315.471 295.379,315.471 297.587,315.471 299.794,315.471 302.002,315.471 304.209,315.471 306.417,315.471 308.624,315.471 310.832,315.471 313.039,315.471 315.247,315.471 317.454,315.471 319.662,315.471 321.869,315.471 324.077,315.471 326.284,315.471 328.492,315.471 330.699,315.471 332.907,315.471 335.114,315.471 337.322,315.471 339.529,315.471 341.737,315.471 343.944,315.471 346.152,315.471 348.359,315.471 350.567,315.471 352.774,315.471 354.982,315.471 357.189,315.471 359.397,315.471 361.604,315.471 363.811,315.471 366.019,315.471 368.226,893.76 370.434,893.76 372.641,893.76 374.849,893.76 377.056,893.76 379.264,893.76 381.471,893.76 383.679,893.76 385.886,893.76 388.094,893.76 390.301,893.76 392.509,893.76 394.716,893.76 396.924,893.76 399.131,893.76 401.339,893.76 403.546,893.76 405.754,893.76 407.961,893.76 410.169,893.76 412.376,893.76 414.584,893.76 416.791,893.76 418.999,893.76 421.206,893.76 423.414,893.76 425.621,893.76 427.829,893.76 430.036,893.76 432.244,893.76 434.451,893.76 436.659,893.76 438.866,893.76 441.073,893.76 443.281,893.76 445.488,893.76 447.696,893.76 449.903,893.76 452.111,893.76 454.318,893.76 456.526,893.76 458.733,893.76 460.941,893.76 463.148,893.76 465.356,893.76 467.563,893.76 469.771,893.76 471.978,893.76 474.186,893.76 476.393,893.76 478.601,893.76 480.808,893.76 483.016,893.76 485.223,893.76 487.431,893.76 489.638,893.76 491.846,893.76 494.053,893.76 496.261,893.76 498.468,893.76 500.676,893.76 502.883,893.76 505.091,893.76 507.298,893.76 509.506,893.76 511.713,893.76 513.921,893.76 516.128,893.76 518.335,893.76 520.543,893.76 522.75,893.76 524.958,893.76 527.165,893.76 529.373,893.76 531.58,893.76 533.788,893.76 535.995,893.76 538.203,893.76 540.41,893.76 542.618,893.76 544.825,893.76 547.033,893.76 549.24,893.76 551.448,893.76 553.655,893.76 555.863,893.76 558.07,893.76 560.278,893.76 562.485,893.76 564.693,893.76 566.9,893.76 569.108,893.76 571.315,893.76 573.523,893.76 575.73,893.76 577.938,893.76 580.145,893.76 582.353,893.76 584.56,893.76 586.768,893.76 588.975,445.709 591.182,445.709 593.39,445.709 595.597,445.709 597.805,445.709 600.012,445.709 602.22,445.709 604.427,445.709 606.635,445.709 608.842,445.709 611.05,445.709 613.257,445.709 615.465,445.709 617.672,445.709 619.88,445.709 622.087,445.709 624.295,445.709 626.502,445.709 628.71,445.709 630.917,445.709 633.125,445.709 635.332,445.709 637.54,445.709 639.747,445.709 641.955,445.709 644.162,445.709 646.37,445.709 648.577,445.709 650.785,445.709 652.992,445.709 655.2,445.709 657.407,445.709 659.615,445.709 661.822,445.709 664.03,445.709 666.237,445.709 668.444,445.709 670.652,445.709 672.859,445.709 675.067,445.709 677.274,445.709 679.482,445.709 681.689,445.709 683.897,445.709 686.104,445.709 688.312,445.709 690.519,445.709 692.727,445.709 694.934,445.709 697.142,445.709 699.349,445.709 701.557,445.709 703.764,445.709 705.972,445.709 708.179,445.709 710.387,445.709 712.594,445.709 714.802,445.709 717.009,445.709 719.217,445.709 721.424,445.709 723.632,445.709 725.839,445.709 728.047,445.709 730.254,445.709 732.462,445.709 734.669,445.709 736.877,445.709 739.084,445.709 741.292,445.709 743.499,445.709 745.706,445.709 747.914,445.709 750.121,445.709 752.329,445.709 754.536,445.709 756.744,445.709 758.951,445.709 761.159,445.709 763.366,445.709 765.574,445.709 767.781,445.709 769.989,445.709 772.196,445.709 774.404,445.709 776.611,445.709 778.819,445.709 781.026,445.709 783.234,445.709 785.441,445.709 787.649,445.709 789.856,445.709 792.064,445.709 794.271,445.709 796.479,445.709 798.686,445.709 800.894,445.709 803.101,445.709 805.309,445.709 807.516,445.709 809.724,408.652 811.931,408.652 814.139,408.652 816.346,408.652 818.553,408.652 820.761,408.652 822.968,408.652 825.176,408.652 827.383,408.652 829.591,408.652 831.798,408.652 834.006,408.652 836.213,408.652 838.421,408.652 840.628,408.652 842.836,408.652 845.043,408.652 847.251,408.652 849.458,408.652 851.666,408.652 853.873,408.652 856.081,408.652 858.288,408.652 860.496,408.652 862.703,408.652 864.911,408.652 867.118,408.652 869.326,408.652 871.533,408.652 873.741,408.652 875.948,408.652 878.156,408.652 880.363,408.652 882.571,408.652 884.778,408.652 886.986,408.652 889.193,408.652 891.401,408.652 893.608,408.652 895.815,408.652 898.023,408.652 900.23,408.652 902.438,408.652 904.645,408.652 906.853,408.652 909.06,408.652 911.268,408.652 913.475,408.652 915.683,408.652 917.89,408.652 920.098,408.652 922.305,408.652 924.513,408.652 926.72,408.652 928.928,408.652 931.135,408.652 933.343,408.652 935.55,408.652 937.758,408.652 939.965,408.652 942.173,408.652 944.38,408.652 946.588,408.652 948.795,408.652 951.003,408.652 953.21,408.652 955.418,408.652 957.625,408.652 959.833,408.652 962.04,408.652 964.248,408.652 966.455,408.652 968.663,408.652 970.87,408.652 973.077,408.652 975.285,408.652 977.492,408.652 979.7,408.652 981.907,408.652 984.115,408.652 986.322,408.652 988.53,408.652 990.737,408.652 992.945,408.652 995.152,408.652 997.36,408.652 999.567,408.652 1001.77,408.652 1003.98,408.652 1006.19,408.652 1008.4,408.652 1010.6,408.652 1012.81,408.652 1015.02,408.652 1017.23,408.652 1019.43,408.652 1021.64,408.652 1023.85,408.652 1026.06,408.652 1028.26,408.652 1030.47,991.699 1032.68,991.699 1034.89,991.699 1037.09,991.699 1039.3,991.699 1041.51,991.699 1043.72,991.699 1045.92,991.699 1048.13,991.699 1050.34,991.699 1052.55,991.699 1054.75,991.699 1056.96,991.699 1059.17,991.699 1061.38,991.699 1063.58,991.699 1065.79,991.699 1068,991.699 1070.21,991.699 1072.41,991.699 1074.62,991.699 1076.83,991.699 1079.04,991.699 1081.24,991.699 1083.45,991.699 1085.66,991.699 1087.87,991.699 1090.07,991.699 1092.28,991.699 1094.49,991.699 1096.7,991.699 1098.9,991.699 1101.11,991.699 1103.32,991.699 1105.53,991.699 1107.73,991.699 1109.94,991.699 1112.15,991.699 1114.36,991.699 1116.56,991.699 1118.77,991.699 1120.98,991.699 1123.19,991.699 1125.39,991.699 1127.6,991.699 1129.81,991.699 1132.02,991.699 1134.22,991.699 1136.43,991.699 1138.64,991.699 1140.85,991.699 1143.05,991.699 1145.26,991.699 1147.47,991.699 1149.68,991.699 1151.88,991.699 1154.09,991.699 1156.3,991.699 1158.51,991.699 1160.71,991.699 1162.92,991.699 1165.13,991.699 1167.34,991.699 1169.54,991.699 1171.75,991.699 1173.96,991.699 1176.17,991.699 1178.37,991.699 1180.58,991.699 1182.79,991.699 1185,991.699 1187.2,991.699 1189.41,991.699 1191.62,991.699 1193.83,991.699 1196.03,991.699 1198.24,991.699 1200.45,991.699 1202.66,991.699 1204.86,991.699 1207.07,991.699 1209.28,991.699 1211.49,991.699 1213.69,991.699 1215.9,991.699 1218.11,991.699 1220.32,991.699 1222.52,991.699 1224.73,991.699 1226.94,991.699 1229.15,991.699 1231.35,991.699 1233.56,991.699 1235.77,991.699 1237.98,991.699 1240.18,991.699 1242.39,991.699 1244.6,991.699 1246.81,991.699 1249.01,991.699 1251.22,1384.24 1253.43,1384.24 1255.64,1384.24 1257.84,1384.24 1260.05,1384.24 1262.26,1384.24 1264.47,1384.24 1266.67,1384.24 1268.88,1384.24 1271.09,1384.24 1273.3,1384.24 1275.5,1384.24 1277.71,1384.24 1279.92,1384.24 1282.13,1384.24 1284.33,1384.24 1286.54,1384.24 1288.75,1384.24 1290.96,1384.24 1293.16,1384.24 1295.37,1384.24 1297.58,1384.24 1299.79,1384.24 1301.99,1384.24 1304.2,1384.24 1306.41,1384.24 1308.62,1384.24 1310.82,1384.24 1313.03,1384.24 1315.24,1384.24 1317.45,1384.24 1319.65,1384.24 1321.86,1384.24 1324.07,1384.24 1326.28,1384.24 1328.48,1384.24 1330.69,1384.24 1332.9,1384.24 1335.11,1384.24 1337.31,1384.24 1339.52,1384.24 1341.73,1384.24 1343.94,1384.24 1346.14,1384.24 1348.35,1384.24 1350.56,1384.24 1352.76,1384.24 1354.97,1384.24 1357.18,1384.24 1359.39,1384.24 1361.59,1384.24 1363.8,1384.24 1366.01,1384.24 1368.22,1384.24 1370.42,1384.24 1372.63,1384.24 1374.84,1384.24 1377.05,1384.24 1379.25,1384.24 1381.46,1384.24 1383.67,1384.24 1385.88,1384.24 1388.08,1384.24 1390.29,1384.24 1392.5,1384.24 1394.71,1384.24 1396.91,1384.24 1399.12,1384.24 1401.33,1384.24 1403.54,1384.24 1405.74,1384.24 1407.95,1384.24 1410.16,1384.24 1412.37,1384.24 1414.57,1384.24 1416.78,1384.24 1418.99,1384.24 1421.2,1384.24 1423.4,1384.24 1425.61,1384.24 1427.82,1384.24 1430.03,1384.24 1432.23,1384.24 1434.44,1384.24 1436.65,1384.24 1438.86,1384.24 1441.06,1384.24 1443.27,1384.24 1445.48,1384.24 1447.69,1384.24 1449.89,1384.24 1452.1,1384.24 1454.31,1384.24 1456.52,1384.24 1458.72,1384.24 1460.93,1384.24 1463.14,1384.24 1465.35,1384.24 1467.55,1384.24 1469.76,1384.24 1471.97,86.1857 1474.18,86.1857 1476.38,86.1857 1478.59,86.1857 1480.8,86.1857 1483.01,86.1857 1485.21,86.1857 1487.42,86.1857 1489.63,86.1857 1491.84,86.1857 1494.04,86.1857 1496.25,86.1857 1498.46,86.1857 1500.67,86.1857 1502.87,86.1857 1505.08,86.1857 1507.29,86.1857 1509.5,86.1857 1511.7,86.1857 1513.91,86.1857 1516.12,86.1857 1518.33,86.1857 1520.53,86.1857 1522.74,86.1857 1524.95,86.1857 1527.16,86.1857 1529.36,86.1857 1531.57,86.1857 1533.78,86.1857 1535.99,86.1857 1538.19,86.1857 1540.4,86.1857 1542.61,86.1857 1544.82,86.1857 1547.02,86.1857 1549.23,86.1857 1551.44,86.1857 1553.65,86.1857 1555.85,86.1857 1558.06,86.1857 1560.27,86.1857 1562.48,86.1857 1564.68,86.1857 1566.89,86.1857 1569.1,86.1857 1571.31,86.1857 1573.51,86.1857 1575.72,86.1857 1577.93,86.1857 1580.14,86.1857 1582.34,86.1857 1584.55,86.1857 1586.76,86.1857 1588.97,86.1857 1591.17,86.1857 1593.38,86.1857 1595.59,86.1857 1597.8,86.1857 1600,86.1857 1602.21,86.1857 1604.42,86.1857 1606.63,86.1857 1608.83,86.1857 1611.04,86.1857 1613.25,86.1857 1615.46,86.1857 1617.66,86.1857 1619.87,86.1857 1622.08,86.1857 1624.29,86.1857 1626.49,86.1857 1628.7,86.1857 1630.91,86.1857 1633.12,86.1857 1635.32,86.1857 1637.53,86.1857 1639.74,86.1857 1641.95,86.1857 1644.15,86.1857 1646.36,86.1857 1648.57,86.1857 1650.78,86.1857 1652.98,86.1857 1655.19,86.1857 1657.4,86.1857 1659.61,86.1857 1661.81,86.1857 1664.02,86.1857 1666.23,86.1857 1668.44,86.1857 1670.64,86.1857 1672.85,86.1857 1675.06,86.1857 1677.27,86.1857 1679.47,86.1857 1681.68,86.1857 1683.89,86.1857 1686.1,86.1857 1688.3,86.1857 1690.51,86.1857 1692.72,949.152 1694.93,949.152 1697.13,949.152 1699.34,949.152 1701.55,949.152 1703.76,949.152 1705.96,949.152 1708.17,949.152 1710.38,949.152 1712.59,949.152 1714.79,949.152 1717,949.152 1719.21,949.152 1721.42,949.152 1723.62,949.152 1725.83,949.152 1728.04,949.152 1730.25,949.152 1732.45,949.152 1734.66,949.152 1736.87,949.152 1739.07,949.152 1741.28,949.152 1743.49,949.152 1745.7,949.152 1747.9,949.152 1750.11,949.152 1752.32,949.152 1754.53,949.152 1756.73,949.152 1758.94,949.152 1761.15,949.152 1763.36,949.152 1765.56,949.152 1767.77,949.152 1769.98,949.152 1772.19,949.152 1774.39,949.152 1776.6,949.152 1778.81,949.152 1781.02,949.152 1783.22,949.152 1785.43,949.152 1787.64,949.152 1789.85,949.152 1792.05,949.152 1794.26,949.152 1796.47,949.152 1798.68,949.152 1800.88,949.152 1803.09,949.152 1805.3,949.152 1807.51,949.152 1809.71,949.152 1811.92,949.152 1814.13,949.152 1816.34,949.152 1818.54,949.152 1820.75,949.152 1822.96,949.152 1825.17,949.152 1827.37,949.152 1829.58,949.152 1831.79,949.152 1834,949.152 1836.2,949.152 1838.41,949.152 1840.62,949.152 1842.83,949.152 1845.03,949.152 1847.24,949.152 1849.45,949.152 1851.66,949.152 1853.86,949.152 1856.07,949.152 1858.28,949.152 1860.49,949.152 1862.69,949.152 1864.9,949.152 1867.11,949.152 1869.32,949.152 1871.52,949.152 1873.73,949.152 1875.94,949.152 1878.15,949.152 1880.35,949.152 1882.56,949.152 1884.77,949.152 1886.98,949.152 1889.18,949.152 1891.39,949.152 1893.6,949.152 1895.81,949.152 1898.01,949.152 1900.22,949.152 1902.43,949.152 1904.64,949.152 1906.84,949.152 1909.05,949.152 1911.26,949.152 1913.47,577.936 1915.67,577.936 1917.88,577.936 1920.09,577.936 1922.3,577.936 1924.5,577.936 1926.71,577.936 1928.92,577.936 1931.13,577.936 1933.33,577.936 1935.54,577.936 1937.75,577.936 1939.96,577.936 1942.16,577.936 1944.37,577.936 1946.58,577.936 1948.79,577.936 1950.99,577.936 1953.2,577.936 1955.41,577.936 1957.62,577.936 1959.82,577.936 1962.03,577.936 1964.24,577.936 1966.45,577.936 1968.65,577.936 1970.86,577.936 1973.07,577.936 1975.28,577.936 1977.48,577.936 1979.69,577.936 1981.9,577.936 1984.11,577.936 1986.31,577.936 1988.52,577.936 1990.73,577.936 1992.94,577.936 1995.14,577.936 1997.35,577.936 1999.56,577.936 2001.77,577.936 2003.97,577.936 2006.18,577.936 2008.39,577.936 2010.6,577.936 2012.8,577.936 2015.01,577.936 2017.22,577.936 2019.43,577.936 2021.63,577.936 2023.84,577.936 2026.05,577.936 2028.26,577.936 2030.46,577.936 2032.67,577.936 2034.88,577.936 2037.09,577.936 2039.29,577.936 2041.5,577.936 2043.71,577.936 2045.92,577.936 2048.12,577.936 2050.33,577.936 2052.54,577.936 2054.75,577.936 2056.95,577.936 2059.16,577.936 2061.37,577.936 2063.58,577.936 2065.78,577.936 2067.99,577.936 2070.2,577.936 2072.41,577.936 2074.61,577.936 2076.82,577.936 2079.03,577.936 2081.24,577.936 2083.44,577.936 2085.65,577.936 2087.86,577.936 2090.07,577.936 2092.27,577.936 2094.48,577.936 2096.69,577.936 2098.9,577.936 2101.1,577.936 2103.31,577.936 2105.52,577.936 2107.73,577.936 2109.93,577.936 2112.14,577.936 2114.35,577.936 2116.55,577.936 2118.76,577.936 2120.97,577.936 2123.18,577.936 2125.38,577.936 2127.59,577.936 2129.8,577.936 2132.01,577.936 2134.21,282.179 2136.42,282.179 2138.63,282.179 2140.84,282.179 2143.04,282.179 2145.25,282.179 2147.46,282.179 2149.67,282.179 2151.87,282.179 2154.08,282.179 2156.29,282.179 2158.5,282.179 2160.7,282.179 2162.91,282.179 2165.12,282.179 2167.33,282.179 2169.53,282.179 2171.74,282.179 2173.95,282.179 2176.16,282.179 2178.36,282.179 2180.57,282.179 2182.78,282.179 2184.99,282.179 2187.19,282.179 2189.4,282.179 2191.61,282.179 2193.82,282.179 2196.02,282.179 2198.23,282.179 2200.44,282.179 2202.65,282.179 2204.85,282.179 2207.06,282.179 2209.27,282.179 2211.48,282.179 2213.68,282.179 2215.89,282.179 2218.1,282.179 2220.31,282.179 2222.51,282.179 2224.72,282.179 2226.93,282.179 2229.14,282.179 2231.34,282.179 2233.55,282.179 2235.76,282.179 2237.97,282.179 2240.17,282.179 2242.38,282.179 2244.59,282.179 2246.8,282.179 2249,282.179 2251.21,282.179 2253.42,282.179 2255.63,282.179 2257.83,282.179 2260.04,282.179 2262.25,282.179 2264.46,282.179 2266.66,282.179 2268.87,282.179 2271.08,282.179 2273.29,282.179 2275.49,282.179 2277.7,282.179 2279.91,282.179 2282.12,282.179 2284.32,282.179 2286.53,282.179 2288.74,282.179 2290.95,282.179 2293.15,282.179 2295.36,282.179 2297.57,282.179 2299.78,282.179 2301.98,282.179 2304.19,282.179 2306.4,282.179 2308.61,282.179 2310.81,282.179 2313.02,282.179 2315.23,282.179 2317.44,282.179 2319.64,282.179 2321.85,282.179 2324.06,282.179 2326.27,282.179 2328.47,282.179 2330.68,282.179 2332.89,282.179 2335.1,282.179 2337.3,282.179 2339.51,282.179 2341.72,282.179 2343.93,282.179 2346.13,282.179 2348.34,282.179 2350.55,282.179 2352.76,282.179 "/>
<path clip-path="url(#clip720)" d="M2033.58 1377.32 L2279.25 1377.32 L2279.25 1221.8 L2033.58 1221.8  Z" fill="#ffffff" fill-rule="evenodd" fill-opacity="1"/>
<polyline clip-path="url(#clip720)" style="stroke:#000000; stroke-linecap:round; stroke-linejoin:round; stroke-width:4; stroke-opacity:1; fill:none" points="2033.58,1377.32 2279.25,1377.32 2279.25,1221.8 2033.58,1221.8 2033.58,1377.32 "/>
<polyline clip-path="url(#clip720)" style="stroke:#009af9; stroke-linecap:round; stroke-linejoin:round; stroke-width:4; stroke-opacity:1; fill:none" points="2058.08,1273.64 2205.1,1273.64 "/>
<path clip-path="url(#clip720)" d="M2254.26 1264.99 L2244.88 1277.61 L2254.74 1290.92 L2249.72 1290.92 L2242.17 1280.73 L2234.63 1290.92 L2229.6 1290.92 L2239.67 1277.35 L2230.46 1264.99 L2235.48 1264.99 L2242.36 1274.23 L2249.23 1264.99 L2254.26 1264.99 Z" fill="#000000" fill-rule="nonzero" fill-opacity="1" /><polyline clip-path="url(#clip720)" style="stroke:#e26f46; stroke-linecap:round; stroke-linejoin:round; stroke-width:4; stroke-opacity:1; fill:none" points="2058.08,1325.48 2205.1,1325.48 "/>
<path clip-path="url(#clip720)" d="M2246.11 1306.74 L2246.11 1310.28 L2242.04 1310.28 Q2239.74 1310.28 2238.84 1311.2 Q2237.96 1312.13 2237.96 1314.54 L2237.96 1316.83 L2244.98 1316.83 L2244.98 1320.14 L2237.96 1320.14 L2237.96 1342.76 L2233.68 1342.76 L2233.68 1320.14 L2229.6 1320.14 L2229.6 1316.83 L2233.68 1316.83 L2233.68 1315.02 Q2233.68 1310.7 2235.69 1308.73 Q2237.71 1306.74 2242.08 1306.74 L2246.11 1306.74 Z" fill="#000000" fill-rule="nonzero" fill-opacity="1" /></svg>
