<?xml version="1.0" encoding="utf-8"?>
<svg xmlns="http://www.w3.org/2000/svg" xmlns:xlink="http://www.w3.org/1999/xlink" width="600" height="400" viewBox="0 0 2400 1600">
<defs>
  <clipPath id="clip300">
    <rect x="0" y="0" width="2400" height="1600"/>
  </clipPath>
</defs>
<path clip-path="url(#clip300)" d="M0 1600 L2400 1600 L2400 0 L0 0  Z" fill="#ffffff" fill-rule="evenodd" fill-opacity="1"/>
<defs>
  <clipPath id="clip301">
    <rect x="147" y="47" width="2206" height="1377"/>
  </clipPath>
</defs>
<path clip-path="url(#clip300)" d="M147.478 1423.18 L2352.76 1423.18 L2352.76 47.2441 L147.478 47.2441  Z" fill="#ffffff" fill-rule="evenodd" fill-opacity="1"/>
<polyline clip-path="url(#clip301)" style="stroke:#000000; stroke-linecap:round; stroke-linejoin:round; stroke-width:2; stroke-opacity:0.1; fill:none" points="147.478,1423.18 147.478,47.2441 "/>
<polyline clip-path="url(#clip301)" style="stroke:#000000; stroke-linecap:round; stroke-linejoin:round; stroke-width:2; stroke-opacity:0.1; fill:none" points="588.534,1423.18 588.534,47.2441 "/>
<polyline clip-path="url(#clip301)" style="stroke:#000000; stroke-linecap:round; stroke-linejoin:round; stroke-width:2; stroke-opacity:0.1; fill:none" points="1029.59,1423.18 1029.59,47.2441 "/>
<polyline clip-path="url(#clip301)" style="stroke:#000000; stroke-linecap:round; stroke-linejoin:round; stroke-width:2; stroke-opacity:0.1; fill:none" points="1470.64,1423.18 1470.64,47.2441 "/>
<polyline clip-path="url(#clip301)" style="stroke:#000000; stroke-linecap:round; stroke-linejoin:round; stroke-width:2; stroke-opacity:0.1; fill:none" points="1911.7,1423.18 1911.7,47.2441 "/>
<polyline clip-path="url(#clip301)" style="stroke:#000000; stroke-linecap:round; stroke-linejoin:round; stroke-width:2; stroke-opacity:0.1; fill:none" points="2352.76,1423.18 2352.76,47.2441 "/>
<polyline clip-path="url(#clip301)" style="stroke:#000000; stroke-linecap:round; stroke-linejoin:round; stroke-width:2; stroke-opacity:0.1; fill:none" points="147.478,1166.69 2352.76,1166.69 "/>
<polyline clip-path="url(#clip301)" style="stroke:#000000; stroke-linecap:round; stroke-linejoin:round; stroke-width:2; stroke-opacity:0.1; fill:none" points="147.478,888.598 2352.76,888.598 "/>
<polyline clip-path="url(#clip301)" style="stroke:#000000; stroke-linecap:round; stroke-linejoin:round; stroke-width:2; stroke-opacity:0.1; fill:none" points="147.478,610.503 2352.76,610.503 "/>
<polyline clip-path="url(#clip301)" style="stroke:#000000; stroke-linecap:round; stroke-linejoin:round; stroke-width:2; stroke-opacity:0.1; fill:none" points="147.478,332.407 2352.76,332.407 "/>
<polyline clip-path="url(#clip301)" style="stroke:#000000; stroke-linecap:round; stroke-linejoin:round; stroke-width:2; stroke-opacity:0.1; fill:none" points="147.478,54.3119 2352.76,54.3119 "/>
<polyline clip-path="url(#clip300)" style="stroke:#000000; stroke-linecap:round; stroke-linejoin:round; stroke-width:4; stroke-opacity:1; fill:none" points="147.478,1423.18 2352.76,1423.18 "/>
<polyline clip-path="url(#clip300)" style="stroke:#000000; stroke-linecap:round; stroke-linejoin:round; stroke-width:4; stroke-opacity:1; fill:none" points="147.478,1423.18 147.478,1404.28 "/>
<polyline clip-path="url(#clip300)" style="stroke:#000000; stroke-linecap:round; stroke-linejoin:round; stroke-width:4; stroke-opacity:1; fill:none" points="588.534,1423.18 588.534,1404.28 "/>
<polyline clip-path="url(#clip300)" style="stroke:#000000; stroke-linecap:round; stroke-linejoin:round; stroke-width:4; stroke-opacity:1; fill:none" points="1029.59,1423.18 1029.59,1404.28 "/>
<polyline clip-path="url(#clip300)" style="stroke:#000000; stroke-linecap:round; stroke-linejoin:round; stroke-width:4; stroke-opacity:1; fill:none" points="1470.64,1423.18 1470.64,1404.28 "/>
<polyline clip-path="url(#clip300)" style="stroke:#000000; stroke-linecap:round; stroke-linejoin:round; stroke-width:4; stroke-opacity:1; fill:none" points="1911.7,1423.18 1911.7,1404.28 "/>
<polyline clip-path="url(#clip300)" style="stroke:#000000; stroke-linecap:round; stroke-linejoin:round; stroke-width:4; stroke-opacity:1; fill:none" points="2352.76,1423.18 2352.76,1404.28 "/>
<path clip-path="url(#clip300)" d="M147.478 1454.1 Q143.867 1454.1 142.038 1457.66 Q140.233 1461.2 140.233 1468.33 Q140.233 1475.44 142.038 1479.01 Q143.867 1482.55 147.478 1482.55 Q151.112 1482.55 152.918 1479.01 Q154.746 1475.44 154.746 1468.33 Q154.746 1461.2 152.918 1457.66 Q151.112 1454.1 147.478 1454.1 M147.478 1450.39 Q153.288 1450.39 156.344 1455 Q159.422 1459.58 159.422 1468.33 Q159.422 1477.06 156.344 1481.67 Q153.288 1486.25 147.478 1486.25 Q141.668 1486.25 138.589 1481.67 Q135.534 1477.06 135.534 1468.33 Q135.534 1459.58 138.589 1455 Q141.668 1450.39 147.478 1450.39 Z" fill="#000000" fill-rule="nonzero" fill-opacity="1" /><path clip-path="url(#clip300)" d="M583.186 1481.64 L599.506 1481.64 L599.506 1485.58 L577.561 1485.58 L577.561 1481.64 Q580.223 1478.89 584.807 1474.26 Q589.413 1469.61 590.594 1468.27 Q592.839 1465.74 593.719 1464.01 Q594.621 1462.25 594.621 1460.56 Q594.621 1457.8 592.677 1456.07 Q590.756 1454.33 587.654 1454.33 Q585.455 1454.33 583.001 1455.09 Q580.571 1455.86 577.793 1457.41 L577.793 1452.69 Q580.617 1451.55 583.071 1450.97 Q585.524 1450.39 587.561 1450.39 Q592.932 1450.39 596.126 1453.08 Q599.32 1455.77 599.32 1460.26 Q599.32 1462.39 598.51 1464.31 Q597.723 1466.2 595.617 1468.8 Q595.038 1469.47 591.936 1472.69 Q588.834 1475.88 583.186 1481.64 Z" fill="#000000" fill-rule="nonzero" fill-opacity="1" /><path clip-path="url(#clip300)" d="M1032.6 1455.09 L1020.79 1473.54 L1032.6 1473.54 L1032.6 1455.09 M1031.37 1451.02 L1037.25 1451.02 L1037.25 1473.54 L1042.18 1473.54 L1042.18 1477.43 L1037.25 1477.43 L1037.25 1485.58 L1032.6 1485.58 L1032.6 1477.43 L1017 1477.43 L1017 1472.92 L1031.37 1451.02 Z" fill="#000000" fill-rule="nonzero" fill-opacity="1" /><path clip-path="url(#clip300)" d="M1471.05 1466.44 Q1467.9 1466.44 1466.05 1468.59 Q1464.22 1470.74 1464.22 1474.49 Q1464.22 1478.22 1466.05 1480.39 Q1467.9 1482.55 1471.05 1482.55 Q1474.2 1482.55 1476.03 1480.39 Q1477.88 1478.22 1477.88 1474.49 Q1477.88 1470.74 1476.03 1468.59 Q1474.2 1466.44 1471.05 1466.44 M1480.33 1451.78 L1480.33 1456.04 Q1478.57 1455.21 1476.77 1454.77 Q1474.98 1454.33 1473.23 1454.33 Q1468.6 1454.33 1466.14 1457.45 Q1463.71 1460.58 1463.36 1466.9 Q1464.73 1464.89 1466.79 1463.82 Q1468.85 1462.73 1471.33 1462.73 Q1476.54 1462.73 1479.55 1465.9 Q1482.58 1469.05 1482.58 1474.49 Q1482.58 1479.82 1479.43 1483.03 Q1476.28 1486.25 1471.05 1486.25 Q1465.05 1486.25 1461.88 1481.67 Q1458.71 1477.06 1458.71 1468.33 Q1458.71 1460.14 1462.6 1455.28 Q1466.49 1450.39 1473.04 1450.39 Q1474.8 1450.39 1476.58 1450.74 Q1478.39 1451.09 1480.33 1451.78 Z" fill="#000000" fill-rule="nonzero" fill-opacity="1" /><path clip-path="url(#clip300)" d="M1911.7 1469.17 Q1908.37 1469.17 1906.45 1470.95 Q1904.55 1472.73 1904.55 1475.86 Q1904.55 1478.98 1906.45 1480.77 Q1908.37 1482.55 1911.7 1482.55 Q1915.03 1482.55 1916.95 1480.77 Q1918.88 1478.96 1918.88 1475.86 Q1918.88 1472.73 1916.95 1470.95 Q1915.06 1469.17 1911.7 1469.17 M1907.02 1467.18 Q1904.02 1466.44 1902.33 1464.38 Q1900.66 1462.32 1900.66 1459.35 Q1900.66 1455.21 1903.6 1452.8 Q1906.56 1450.39 1911.7 1450.39 Q1916.86 1450.39 1919.8 1452.8 Q1922.74 1455.21 1922.74 1459.35 Q1922.74 1462.32 1921.05 1464.38 Q1919.39 1466.44 1916.4 1467.18 Q1919.78 1467.96 1921.65 1470.26 Q1923.55 1472.55 1923.55 1475.86 Q1923.55 1480.88 1920.47 1483.57 Q1917.42 1486.25 1911.7 1486.25 Q1905.98 1486.25 1902.9 1483.57 Q1899.85 1480.88 1899.85 1475.86 Q1899.85 1472.55 1901.75 1470.26 Q1903.64 1467.96 1907.02 1467.18 M1905.31 1459.79 Q1905.31 1462.48 1906.98 1463.98 Q1908.67 1465.49 1911.7 1465.49 Q1914.71 1465.49 1916.4 1463.98 Q1918.11 1462.48 1918.11 1459.79 Q1918.11 1457.11 1916.4 1455.6 Q1914.71 1454.1 1911.7 1454.1 Q1908.67 1454.1 1906.98 1455.6 Q1905.31 1457.11 1905.31 1459.79 Z" fill="#000000" fill-rule="nonzero" fill-opacity="1" /><path clip-path="url(#clip300)" d="M2327.44 1481.64 L2335.08 1481.64 L2335.08 1455.28 L2326.77 1456.95 L2326.77 1452.69 L2335.04 1451.02 L2339.71 1451.02 L2339.71 1481.64 L2347.35 1481.64 L2347.35 1485.58 L2327.44 1485.58 L2327.44 1481.64 Z" fill="#000000" fill-rule="nonzero" fill-opacity="1" /><path clip-path="url(#clip300)" d="M2366.8 1454.1 Q2363.18 1454.1 2361.36 1457.66 Q2359.55 1461.2 2359.55 1468.33 Q2359.55 1475.44 2361.36 1479.01 Q2363.18 1482.55 2366.8 1482.55 Q2370.43 1482.55 2372.23 1479.01 Q2374.06 1475.44 2374.06 1468.33 Q2374.06 1461.2 2372.23 1457.66 Q2370.43 1454.1 2366.8 1454.1 M2366.8 1450.39 Q2372.61 1450.39 2375.66 1455 Q2378.74 1459.58 2378.74 1468.33 Q2378.74 1477.06 2375.66 1481.67 Q2372.61 1486.25 2366.8 1486.25 Q2360.99 1486.25 2357.91 1481.67 Q2354.85 1477.06 2354.85 1468.33 Q2354.85 1459.58 2357.91 1455 Q2360.99 1450.39 2366.8 1450.39 Z" fill="#000000" fill-rule="nonzero" fill-opacity="1" /><path clip-path="url(#clip300)" d="M1249.18 1522.27 L1249.18 1532.4 L1261.24 1532.4 L1261.24 1536.95 L1249.18 1536.95 L1249.18 1556.3 Q1249.18 1560.66 1250.36 1561.9 Q1251.57 1563.14 1255.23 1563.14 L1261.24 1563.14 L1261.24 1568.04 L1255.23 1568.04 Q1248.45 1568.04 1245.87 1565.53 Q1243.29 1562.98 1243.29 1556.3 L1243.29 1536.95 L1238.99 1536.95 L1238.99 1532.4 L1243.29 1532.4 L1243.29 1522.27 L1249.18 1522.27 Z" fill="#000000" fill-rule="nonzero" fill-opacity="1" /><polyline clip-path="url(#clip300)" style="stroke:#000000; stroke-linecap:round; stroke-linejoin:round; stroke-width:4; stroke-opacity:1; fill:none" points="147.478,1423.18 147.478,47.2441 "/>
<polyline clip-path="url(#clip300)" style="stroke:#000000; stroke-linecap:round; stroke-linejoin:round; stroke-width:4; stroke-opacity:1; fill:none" points="147.478,1166.69 166.376,1166.69 "/>
<polyline clip-path="url(#clip300)" style="stroke:#000000; stroke-linecap:round; stroke-linejoin:round; stroke-width:4; stroke-opacity:1; fill:none" points="147.478,888.598 166.376,888.598 "/>
<polyline clip-path="url(#clip300)" style="stroke:#000000; stroke-linecap:round; stroke-linejoin:round; stroke-width:4; stroke-opacity:1; fill:none" points="147.478,610.503 166.376,610.503 "/>
<polyline clip-path="url(#clip300)" style="stroke:#000000; stroke-linecap:round; stroke-linejoin:round; stroke-width:4; stroke-opacity:1; fill:none" points="147.478,332.407 166.376,332.407 "/>
<polyline clip-path="url(#clip300)" style="stroke:#000000; stroke-linecap:round; stroke-linejoin:round; stroke-width:4; stroke-opacity:1; fill:none" points="147.478,54.3119 166.376,54.3119 "/>
<path clip-path="url(#clip300)" d="M50.9921 1167.14 L80.6679 1167.14 L80.6679 1171.08 L50.9921 1171.08 L50.9921 1167.14 Z" fill="#000000" fill-rule="nonzero" fill-opacity="1" /><path clip-path="url(#clip300)" d="M91.5706 1180.04 L99.2095 1180.04 L99.2095 1153.67 L90.8993 1155.34 L90.8993 1151.08 L99.1632 1149.41 L103.839 1149.41 L103.839 1180.04 L111.478 1180.04 L111.478 1183.97 L91.5706 1183.97 L91.5706 1180.04 Z" fill="#000000" fill-rule="nonzero" fill-opacity="1" /><path clip-path="url(#clip300)" d="M99.5335 874.397 Q95.9224 874.397 94.0937 877.962 Q92.2882 881.503 92.2882 888.633 Q92.2882 895.739 94.0937 899.304 Q95.9224 902.846 99.5335 902.846 Q103.168 902.846 104.973 899.304 Q106.802 895.739 106.802 888.633 Q106.802 881.503 104.973 877.962 Q103.168 874.397 99.5335 874.397 M99.5335 870.693 Q105.344 870.693 108.399 875.3 Q111.478 879.883 111.478 888.633 Q111.478 897.36 108.399 901.966 Q105.344 906.549 99.5335 906.549 Q93.7234 906.549 90.6447 901.966 Q87.5892 897.36 87.5892 888.633 Q87.5892 879.883 90.6447 875.3 Q93.7234 870.693 99.5335 870.693 Z" fill="#000000" fill-rule="nonzero" fill-opacity="1" /><path clip-path="url(#clip300)" d="M91.5706 623.848 L99.2095 623.848 L99.2095 597.482 L90.8993 599.149 L90.8993 594.889 L99.1632 593.223 L103.839 593.223 L103.839 623.848 L111.478 623.848 L111.478 627.783 L91.5706 627.783 L91.5706 623.848 Z" fill="#000000" fill-rule="nonzero" fill-opacity="1" /><path clip-path="url(#clip300)" d="M95.1586 345.752 L111.478 345.752 L111.478 349.687 L89.5336 349.687 L89.5336 345.752 Q92.1956 342.998 96.7789 338.368 Q101.385 333.715 102.566 332.373 Q104.811 329.849 105.691 328.113 Q106.594 326.354 106.594 324.664 Q106.594 321.91 104.649 320.174 Q102.728 318.437 99.6261 318.437 Q97.4271 318.437 94.9734 319.201 Q92.5428 319.965 89.7651 321.516 L89.7651 316.794 Q92.5891 315.66 95.0428 315.081 Q97.4965 314.502 99.5335 314.502 Q104.904 314.502 108.098 317.187 Q111.293 319.873 111.293 324.363 Q111.293 326.493 110.483 328.414 Q109.696 330.312 107.589 332.905 Q107.01 333.576 103.909 336.794 Q100.807 339.988 95.1586 345.752 Z" fill="#000000" fill-rule="nonzero" fill-opacity="1" /><path clip-path="url(#clip300)" d="M104.348 52.9577 Q107.705 53.6753 109.58 55.9438 Q111.478 58.2123 111.478 61.5457 Q111.478 66.6614 107.959 69.4623 Q104.441 72.2632 97.9595 72.2632 Q95.7836 72.2632 93.4688 71.8234 Q91.1771 71.4067 88.7234 70.5502 L88.7234 66.0364 Q90.6678 67.1706 92.9826 67.7493 Q95.2974 68.328 97.8206 68.328 Q102.219 68.328 104.51 66.5919 Q106.825 64.8558 106.825 61.5457 Q106.825 58.4901 104.672 56.7772 Q102.543 55.0411 98.7234 55.0411 L94.6956 55.0411 L94.6956 51.1985 L98.9085 51.1985 Q102.358 51.1985 104.186 49.8328 Q106.015 48.4439 106.015 45.8513 Q106.015 43.1893 104.117 41.7772 Q102.242 40.3421 98.7234 40.3421 Q96.8021 40.3421 94.603 40.7587 Q92.4039 41.1754 89.7651 42.055 L89.7651 37.8884 Q92.4271 37.1476 94.7419 36.7773 Q97.0798 36.4069 99.14 36.4069 Q104.464 36.4069 107.566 38.8374 Q110.668 41.2448 110.668 45.3652 Q110.668 48.2355 109.024 50.2263 Q107.381 52.1939 104.348 52.9577 Z" fill="#000000" fill-rule="nonzero" fill-opacity="1" /><polyline clip-path="url(#clip301)" style="stroke:#009af9; stroke-linecap:round; stroke-linejoin:round; stroke-width:4; stroke-opacity:1; fill:none" points="147.478,888.598 149.685,893.713 151.893,898.759 154.1,903.739 156.308,908.653 158.515,913.501 160.723,918.286 162.93,923.007 165.138,927.665 167.345,932.261 169.553,936.797 171.76,941.273 173.968,945.689 176.175,950.046 178.383,954.346 180.59,958.589 182.798,962.775 185.005,966.906 187.213,970.983 189.42,975.005 191.628,978.974 193.835,982.89 196.043,986.755 198.25,990.568 200.458,994.33 202.665,998.043 204.873,1001.71 207.08,1005.32 209.288,1008.89 211.495,1012.41 213.702,1015.88 215.91,1019.31 218.117,1022.69 220.325,1026.03 222.532,1029.32 224.74,1032.57 226.947,1035.77 229.155,1038.94 231.362,1042.06 233.57,1045.14 235.777,1048.18 237.985,1051.18 240.192,1054.13 242.4,1057.05 244.607,1059.94 246.815,1062.78 249.022,1065.58 251.23,1068.35 253.437,1071.08 255.645,1073.78 257.852,1076.44 260.06,1079.06 262.267,1081.65 264.475,1084.21 266.682,1086.73 268.89,1089.21 271.097,1091.67 273.305,1094.09 275.512,1096.48 277.72,1098.84 279.927,1101.17 282.135,1103.46 284.342,1105.73 286.549,1107.97 288.757,1110.17 290.964,1112.35 293.172,1114.5 295.379,1116.62 297.587,1118.71 299.794,1120.77 302.002,1122.81 304.209,1124.82 306.417,1126.8 308.624,1128.76 310.832,1130.69 313.039,1132.59 315.247,1134.47 317.454,1136.32 319.662,1138.16 321.869,1139.96 324.077,1141.74 326.284,1143.5 328.492,1145.24 330.699,1146.95 332.907,1148.64 335.114,1150.3 337.322,1151.95 339.529,1153.57 341.737,1155.17 343.944,1156.75 346.152,1158.31 348.359,1159.85 350.567,1161.37 352.774,1162.87 354.982,1164.35 357.189,1165.8 359.397,1167.24 361.604,1168.66 363.811,1170.07 366.019,1171.44 368.226,1172.01 370.434,1171.37 372.641,1169.66 374.849,1167.02 377.056,1163.57 379.264,1159.44 381.471,1154.75 383.679,1149.6 385.886,1144.08 388.094,1138.3 390.301,1132.32 392.509,1126.23 394.716,1120.1 396.924,1113.97 399.131,1107.91 401.339,1101.95 403.546,1096.14 405.754,1090.5 407.961,1085.04 410.169,1079.79 412.376,1074.75 414.584,1069.9 416.791,1065.25 418.999,1060.77 421.206,1056.44 423.414,1052.21 425.621,1048.06 427.829,1043.92 430.036,1039.74 432.244,1035.49 434.451,1031.29 436.659,1027.14 438.866,1023.04 441.073,1019 443.281,1015.02 445.488,1011.08 447.696,1007.2 449.903,1003.37 452.111,999.593 454.318,995.864 456.526,992.184 458.733,988.553 460.941,984.97 463.148,981.435 465.356,977.947 467.563,974.504 469.771,971.108 471.978,967.756 474.186,964.449 476.393,961.185 478.601,957.965 480.808,954.787 483.016,951.652 485.223,948.558 487.431,945.505 489.638,942.493 491.846,939.521 494.053,936.588 496.261,933.694 498.468,930.838 500.676,928.021 502.883,925.24 505.091,922.497 507.298,919.79 509.506,917.119 511.713,914.484 513.921,911.883 516.128,909.317 518.335,906.785 520.543,904.286 522.75,901.821 524.958,899.388 527.165,896.988 529.373,894.62 531.58,892.282 533.788,889.976 535.995,887.701 538.203,885.455 540.41,883.239 542.618,881.053 544.825,878.896 547.033,876.767 549.24,874.666 551.448,872.594 553.655,870.551 555.863,868.537 558.07,866.551 560.278,864.592 562.485,862.659 564.693,860.751 566.9,858.867 569.108,857.006 571.315,855.168 573.523,853.352 575.73,851.558 577.938,849.784 580.145,848.032 582.353,846.299 584.56,844.586 586.768,842.893 588.975,841.219 591.182,839.564 593.39,837.929 595.597,836.313 597.805,834.716 600.012,833.139 602.22,831.582 604.427,830.044 606.635,828.527 608.842,827.031 611.05,825.556 613.257,824.101 615.465,822.665 617.672,821.249 619.88,819.851 622.087,818.472 624.295,817.111 626.502,815.768 628.71,814.443 630.917,813.135 633.125,811.845 635.332,810.572 637.54,809.316 639.747,808.076 641.955,806.853 644.162,805.646 646.37,804.455 648.577,803.28 650.785,802.121 652.992,800.977 655.2,799.848 657.407,798.734 659.615,797.634 661.822,796.55 664.03,795.479 666.237,794.423 668.444,793.381 670.652,792.353 672.859,791.338 675.067,790.337 677.274,789.349 679.482,788.374 681.689,787.412 683.897,786.463 686.104,785.526 688.312,784.602 690.519,783.69 692.727,782.79 694.934,781.902 697.142,781.026 699.349,780.161 701.557,779.308 703.764,778.466 705.972,777.635 708.179,776.816 710.387,776.007 712.594,775.209 714.802,774.422 717.009,773.645 719.217,772.878 721.424,772.122 723.632,771.375 725.839,770.639 728.047,769.912 730.254,769.195 732.462,768.488 734.669,767.789 736.877,767.1 739.084,766.421 741.292,765.75 743.499,765.088 745.706,764.435 747.914,763.791 750.121,763.155 752.329,762.528 754.536,761.908 756.744,761.297 758.951,760.695 761.159,760.1 763.366,759.513 765.574,758.934 767.781,758.362 769.989,757.798 772.196,757.242 774.404,756.693 776.611,756.151 778.819,755.616 781.026,755.088 783.234,754.568 785.441,754.054 787.649,753.547 789.856,753.047 792.064,752.553 794.271,752.067 796.479,751.586 798.686,751.112 800.894,750.644 803.101,750.182 805.309,749.727 807.516,749.277 809.724,748.89 811.931,749.16 814.139,750.175 816.346,751.845 818.553,754.088 820.761,756.822 822.968,759.975 825.176,763.475 827.383,767.259 829.591,771.265 831.798,775.437 834.006,779.725 836.213,784.083 838.421,788.468 840.628,792.843 842.836,797.177 845.043,801.442 847.251,805.614 849.458,809.677 851.666,813.615 853.873,817.422 856.081,821.091 858.288,824.625 860.496,828.029 862.703,831.312 864.911,834.489 867.118,837.58 869.326,840.609 871.533,843.605 873.741,846.601 875.948,849.636 878.156,852.682 880.363,855.688 882.571,858.654 884.778,861.58 886.986,864.468 889.193,867.317 891.401,870.129 893.608,872.903 895.815,875.641 898.023,878.342 900.23,881.007 902.438,883.637 904.645,886.233 906.853,888.793 909.06,891.32 911.268,893.814 913.475,896.274 915.683,898.702 917.89,901.098 920.098,903.462 922.305,905.794 924.513,908.096 926.72,910.367 928.928,912.608 931.135,914.819 933.343,917.001 935.55,919.154 937.758,921.278 939.965,923.374 942.173,925.443 944.38,927.484 946.588,929.498 948.795,931.485 951.003,933.445 953.21,935.38 955.418,937.289 957.625,939.173 959.833,941.032 962.04,942.866 964.248,944.676 966.455,946.462 968.663,948.224 970.87,949.963 973.077,951.679 975.285,953.372 977.492,955.043 979.7,956.691 981.907,958.318 984.115,959.923 986.322,961.507 988.53,963.07 990.737,964.612 992.945,966.133 995.152,967.635 997.36,969.117 999.567,970.579 1001.77,972.021 1003.98,973.445 1006.19,974.849 1008.4,976.235 1010.6,977.603 1012.81,978.952 1015.02,980.284 1017.23,981.597 1019.43,982.894 1021.64,984.173 1023.85,985.436 1026.06,986.681 1028.26,987.91 1030.47,988.042 1032.68,984.972 1034.89,979.792 1037.09,973.514 1039.3,966.897 1041.51,960.458 1043.72,954.46 1045.92,948.923 1048.13,943.617 1050.34,938.184 1052.55,932.782 1054.75,927.451 1056.96,922.191 1059.17,917 1061.38,911.879 1063.58,906.825 1065.79,901.838 1068,896.917 1070.21,892.062 1072.41,887.271 1074.62,882.543 1076.83,877.879 1079.04,873.276 1081.24,868.734 1083.45,864.252 1085.66,859.83 1087.87,855.466 1090.07,851.16 1092.28,846.912 1094.49,842.719 1096.7,838.583 1098.9,834.501 1101.11,830.473 1103.32,826.498 1105.53,822.577 1107.73,818.707 1109.94,814.888 1112.15,811.121 1114.36,807.403 1116.56,803.734 1118.77,800.114 1120.98,796.542 1123.19,793.018 1125.39,789.54 1127.6,786.108 1129.81,782.722 1132.02,779.38 1134.22,776.083 1136.43,772.83 1138.64,769.62 1140.85,766.452 1143.05,763.326 1145.26,760.242 1147.47,757.199 1149.68,754.196 1151.88,751.233 1154.09,748.309 1156.3,745.424 1158.51,742.577 1160.71,739.768 1162.92,736.996 1165.13,734.26 1167.34,731.562 1169.54,728.898 1171.75,726.27 1173.96,723.677 1176.17,721.119 1178.37,718.594 1180.58,716.103 1182.79,713.645 1185,711.219 1187.2,708.826 1189.41,706.464 1191.62,704.134 1193.83,701.835 1196.03,699.566 1198.24,697.327 1200.45,695.118 1202.66,692.938 1204.86,690.787 1207.07,688.665 1209.28,686.57 1211.49,684.504 1213.69,682.465 1215.9,680.453 1218.11,678.467 1220.32,676.508 1222.52,674.575 1224.73,672.667 1226.94,670.785 1229.15,668.928 1231.35,667.095 1233.56,665.287 1235.77,663.502 1237.98,661.741 1240.18,660.004 1242.39,658.29 1244.6,656.598 1246.81,654.929 1249.01,653.282 1251.22,651.991 1253.43,651.612 1255.64,652.059 1257.84,653.233 1260.05,655.044 1262.26,657.403 1264.47,660.229 1266.67,663.446 1268.88,666.982 1271.09,670.77 1273.3,674.75 1275.5,678.864 1277.71,683.063 1279.92,687.299 1282.13,691.532 1284.33,695.726 1286.54,699.85 1288.75,703.88 1290.96,707.793 1293.16,711.576 1295.37,715.217 1297.58,718.711 1299.79,722.059 1301.99,725.265 1304.2,728.34 1306.41,731.298 1308.62,734.16 1310.82,736.952 1313.03,739.704 1315.24,742.452 1317.45,745.236 1319.65,748.076 1321.86,750.887 1324.07,753.662 1326.28,756.399 1328.48,759.1 1330.69,761.766 1332.9,764.396 1335.11,766.991 1337.31,769.552 1339.52,772.079 1341.73,774.572 1343.94,777.033 1346.14,779.46 1348.35,781.856 1350.56,784.22 1352.76,786.552 1354.97,788.854 1357.18,791.125 1359.39,793.366 1361.59,795.578 1363.8,797.76 1366.01,799.913 1368.22,802.038 1370.42,804.134 1372.63,806.203 1374.84,808.244 1377.05,810.258 1379.25,812.246 1381.46,814.207 1383.67,816.142 1385.88,818.051 1388.08,819.935 1390.29,821.794 1392.5,823.628 1394.71,825.438 1396.91,827.224 1399.12,828.986 1401.33,830.725 1403.54,832.44 1405.74,834.133 1407.95,835.804 1410.16,837.452 1412.37,839.079 1414.57,840.683 1416.78,842.267 1418.99,843.83 1421.2,845.372 1423.4,846.893 1425.61,848.394 1427.82,849.876 1430.03,851.337 1432.23,852.78 1434.44,854.203 1436.65,855.608 1438.86,856.994 1441.06,858.361 1443.27,859.711 1445.48,861.042 1447.69,862.356 1449.89,863.653 1452.1,864.932 1454.31,866.194 1456.52,867.44 1458.72,868.669 1460.93,869.882 1463.14,871.078 1465.35,872.259 1467.55,873.425 1469.76,873.924 1471.97,872.687 1474.18,869.901 1476.38,865.768 1478.59,860.48 1480.8,854.216 1483.01,847.143 1485.21,839.417 1487.42,831.182 1489.63,822.57 1491.84,813.701 1494.04,804.684 1496.25,795.615 1498.46,786.579 1500.67,777.648 1502.87,768.886 1505.08,760.34 1507.29,752.048 1509.5,744.037 1511.7,736.32 1513.91,728.899 1516.12,721.765 1518.33,714.897 1520.53,708.261 1522.74,701.813 1524.95,695.496 1527.16,689.24 1529.36,682.966 1531.57,676.592 1533.78,670.236 1535.99,663.964 1538.19,657.776 1540.4,651.67 1542.61,645.644 1544.82,639.699 1547.02,633.832 1549.23,628.043 1551.44,622.331 1553.65,616.694 1555.85,611.133 1558.06,605.645 1560.27,600.229 1562.48,594.886 1564.68,589.613 1566.89,584.41 1569.1,579.276 1571.31,574.21 1573.51,569.211 1575.72,564.278 1577.93,559.41 1580.14,554.608 1582.34,549.868 1584.55,545.192 1586.76,540.578 1588.97,536.025 1591.17,531.532 1593.38,527.099 1595.59,522.725 1597.8,518.409 1600,514.151 1602.21,509.949 1604.42,505.802 1606.63,501.711 1608.83,497.674 1611.04,493.69 1613.25,489.76 1615.46,485.881 1617.66,482.054 1619.87,478.278 1622.08,474.552 1624.29,470.875 1626.49,467.247 1628.7,463.667 1630.91,460.135 1633.12,456.649 1635.32,453.21 1637.53,449.816 1639.74,446.467 1641.95,443.162 1644.15,439.901 1646.36,436.684 1648.57,433.509 1650.78,430.383 1652.98,427.383 1655.19,424.508 1657.4,421.729 1659.61,419.021 1661.81,416.36 1664.02,413.726 1666.23,411.099 1668.44,408.46 1670.64,405.794 1672.85,403.087 1675.06,400.328 1677.27,397.506 1679.47,394.614 1681.68,391.645 1683.89,388.596 1686.1,385.465 1688.3,382.25 1690.51,378.955 1692.72,375.582 1694.93,372.137 1697.13,368.629 1699.34,365.065 1701.55,361.459 1703.76,357.823 1705.96,354.173 1708.17,350.525 1710.38,346.9 1712.59,343.319 1714.79,339.804 1717,336.38 1719.21,333.058 1721.42,329.785 1723.62,326.555 1725.83,323.368 1728.04,320.224 1730.25,317.121 1732.45,314.059 1734.66,311.038 1736.87,308.057 1739.07,305.115 1741.28,302.212 1743.49,299.348 1745.7,296.522 1747.9,293.734 1750.11,290.982 1752.32,288.267 1754.53,285.588 1756.73,282.944 1758.94,280.335 1761.15,277.761 1763.36,275.222 1765.56,272.715 1767.77,270.242 1769.98,267.802 1772.19,265.394 1774.39,263.018 1776.6,260.673 1778.81,258.358 1781.02,256.075 1783.22,253.822 1785.43,251.598 1787.64,249.404 1789.85,247.239 1792.05,245.102 1794.26,242.994 1796.47,240.914 1798.68,238.861 1800.88,236.836 1803.09,234.838 1805.3,232.866 1807.51,230.92 1809.71,229.001 1811.92,227.107 1814.13,225.238 1816.34,223.394 1818.54,221.574 1820.75,219.779 1822.96,218.007 1825.17,216.26 1827.37,214.535 1829.58,212.834 1831.79,211.155 1834,209.498 1836.2,207.864 1838.41,206.251 1840.62,204.66 1842.83,203.09 1845.03,201.541 1847.24,200.012 1849.45,198.504 1851.66,197.016 1853.86,195.547 1856.07,194.098 1858.28,192.668 1860.49,191.258 1862.69,189.866 1864.9,188.492 1867.11,187.137 1869.32,185.799 1871.52,184.479 1873.73,183.177 1875.94,181.892 1878.15,180.624 1880.35,179.372 1882.56,178.137 1884.77,176.919 1886.98,175.716 1889.18,174.529 1891.39,173.358 1893.6,172.202 1895.81,171.062 1898.01,169.937 1900.22,168.826 1902.43,168.24 1904.64,170.116 1906.84,174.396 1909.05,180.812 1911.26,189.108 1913.47,199.041 1915.67,210.381 1917.88,222.912 1920.09,236.43 1922.3,250.747 1924.5,265.686 1926.71,281.082 1928.92,296.787 1931.13,312.664 1933.33,328.589 1935.54,344.451 1937.75,360.155 1939.96,375.615 1942.16,390.763 1944.37,405.54 1946.58,419.902 1948.79,433.82 1950.99,447.275 1953.2,460.263 1955.41,472.794 1957.62,484.89 1959.82,496.586 1962.03,507.931 1964.24,518.988 1966.45,529.832 1968.65,540.552 1970.86,551.248 1973.07,562.038 1975.28,572.927 1977.48,583.683 1979.69,594.297 1981.9,604.77 1984.11,615.104 1986.31,625.301 1988.52,635.363 1990.73,645.292 1992.94,655.089 1995.14,664.756 1997.35,674.295 1999.56,683.707 2001.77,692.995 2003.97,702.159 2006.18,711.202 2008.39,720.126 2010.6,728.931 2012.8,737.62 2015.01,746.193 2017.22,754.654 2019.43,763.002 2021.63,771.239 2023.84,779.367 2026.05,787.387 2028.26,795.301 2030.46,803.11 2032.67,810.815 2034.88,818.418 2037.09,825.92 2039.29,833.323 2041.5,840.627 2043.71,847.834 2045.92,854.946 2048.12,861.963 2050.33,868.887 2052.54,875.719 2054.75,882.461 2056.95,889.113 2059.16,895.677 2061.37,902.153 2063.58,908.544 2065.78,914.85 2067.99,921.073 2070.2,927.212 2072.41,933.271 2074.61,939.249 2076.82,945.148 2079.03,950.969 2081.24,956.713 2083.44,962.381 2085.65,967.973 2087.86,973.492 2090.07,978.937 2092.27,984.311 2094.48,989.613 2096.69,994.845 2098.9,1000.01 2101.1,1005.1 2103.31,1010.13 2105.52,1015.09 2107.73,1019.98 2109.93,1024.81 2112.14,1029.58 2114.35,1034.28 2116.55,1038.92 2118.76,1043.5 2120.97,1048.01 2123.18,1052.47 2125.38,1056.87 2127.59,1061.21 2129.8,1065.4 2132.01,1068.91 2134.21,1071.71 2136.42,1073.88 2138.63,1075.49 2140.84,1076.63 2143.04,1077.35 2145.25,1077.73 2147.46,1077.81 2149.67,1077.65 2151.87,1077.32 2154.08,1076.83 2156.29,1076.26 2158.5,1075.62 2160.7,1074.95 2162.91,1074.28 2165.12,1073.64 2167.33,1073.04 2169.53,1072.51 2171.74,1072.05 2173.95,1071.66 2176.16,1071.37 2178.36,1071.15 2180.57,1071.01 2182.78,1070.93 2184.99,1070.91 2187.19,1070.92 2189.4,1070.94 2191.61,1070.94 2193.82,1070.9 2196.02,1070.78 2198.23,1070.64 2200.44,1070.51 2202.65,1070.38 2204.85,1070.25 2207.06,1070.12 2209.27,1069.99 2211.48,1069.86 2213.68,1069.74 2215.89,1069.62 2218.1,1069.5 2220.31,1069.38 2222.51,1069.26 2224.72,1069.15 2226.93,1069.03 2229.14,1068.92 2231.34,1068.81 2233.55,1068.7 2235.76,1068.59 2237.97,1068.48 2240.17,1068.38 2242.38,1068.27 2244.59,1068.17 2246.8,1068.07 2249,1067.97 2251.21,1067.87 2253.42,1067.77 2255.63,1067.68 2257.83,1067.58 2260.04,1067.49 2262.25,1067.4 2264.46,1067.3 2266.66,1067.21 2268.87,1067.13 2271.08,1067.04 2273.29,1066.95 2275.49,1066.87 2277.7,1066.78 2279.91,1066.7 2282.12,1066.62 2284.32,1066.54 2286.53,1066.46 2288.74,1066.38 2290.95,1066.3 2293.15,1066.22 2295.36,1066.15 2297.57,1066.07 2299.78,1066 2301.98,1065.93 2304.19,1065.86 2306.4,1065.79 2308.61,1065.72 2310.81,1065.65 2313.02,1065.58 2315.23,1065.51 2317.44,1065.45 2319.64,1065.38 2321.85,1065.32 2324.06,1065.25 2326.27,1065.19 2328.47,1065.13 2330.68,1065.07 2332.89,1065.01 2335.1,1064.95 2337.3,1064.89 2339.51,1064.83 2341.72,1064.77 2343.93,1064.72 2346.13,1064.66 2348.34,1064.61 2350.55,1064.55 2352.76,1064.5 "/>
<polyline clip-path="url(#clip301)" style="stroke:#e26f46; stroke-linecap:round; stroke-linejoin:round; stroke-width:4; stroke-opacity:1; fill:none" points="147.478,1274.36 149.685,1274.36 151.893,1274.36 154.1,1274.36 156.308,1274.36 158.515,1274.36 160.723,1274.36 162.93,1274.36 165.138,1274.36 167.345,1274.36 169.553,1274.36 171.76,1274.36 173.968,1274.36 176.175,1274.36 178.383,1274.36 180.59,1274.36 182.798,1274.36 185.005,1274.36 187.213,1274.36 189.42,1274.36 191.628,1274.36 193.835,1274.36 196.043,1274.36 198.25,1274.36 200.458,1274.36 202.665,1274.36 204.873,1274.36 207.08,1274.36 209.288,1274.36 211.495,1274.36 213.702,1274.36 215.91,1274.36 218.117,1274.36 220.325,1274.36 222.532,1274.36 224.74,1274.36 226.947,1274.36 229.155,1274.36 231.362,1274.36 233.57,1274.36 235.777,1274.36 237.985,1274.36 240.192,1274.36 242.4,1274.36 244.607,1274.36 246.815,1274.36 249.022,1274.36 251.23,1274.36 253.437,1274.36 255.645,1274.36 257.852,1274.36 260.06,1274.36 262.267,1274.36 264.475,1274.36 266.682,1274.36 268.89,1274.36 271.097,1274.36 273.305,1274.36 275.512,1274.36 277.72,1274.36 279.927,1274.36 282.135,1274.36 284.342,1274.36 286.549,1274.36 288.757,1274.36 290.964,1274.36 293.172,1274.36 295.379,1274.36 297.587,1274.36 299.794,1274.36 302.002,1274.36 304.209,1274.36 306.417,1274.36 308.624,1274.36 310.832,1274.36 313.039,1274.36 315.247,1274.36 317.454,1274.36 319.662,1274.36 321.869,1274.36 324.077,1274.36 326.284,1274.36 328.492,1274.36 330.699,1274.36 332.907,1274.36 335.114,1274.36 337.322,1274.36 339.529,1274.36 341.737,1274.36 343.944,1274.36 346.152,1274.36 348.359,1274.36 350.567,1274.36 352.774,1274.36 354.982,1274.36 357.189,1274.36 359.397,1274.36 361.604,1274.36 363.811,1274.36 366.019,1274.36 368.226,718.318 370.434,718.318 372.641,718.318 374.849,718.318 377.056,718.318 379.264,718.318 381.471,718.318 383.679,718.318 385.886,718.318 388.094,718.318 390.301,718.318 392.509,718.318 394.716,718.318 396.924,718.318 399.131,718.318 401.339,718.318 403.546,718.318 405.754,718.318 407.961,718.318 410.169,718.318 412.376,718.318 414.584,718.318 416.791,718.318 418.999,718.318 421.206,718.318 423.414,718.318 425.621,718.318 427.829,718.318 430.036,718.318 432.244,718.318 434.451,718.318 436.659,718.318 438.866,718.318 441.073,718.318 443.281,718.318 445.488,718.318 447.696,718.318 449.903,718.318 452.111,718.318 454.318,718.318 456.526,718.318 458.733,718.318 460.941,718.318 463.148,718.318 465.356,718.318 467.563,718.318 469.771,718.318 471.978,718.318 474.186,718.318 476.393,718.318 478.601,718.318 480.808,718.318 483.016,718.318 485.223,718.318 487.431,718.318 489.638,718.318 491.846,718.318 494.053,718.318 496.261,718.318 498.468,718.318 500.676,718.318 502.883,718.318 505.091,718.318 507.298,718.318 509.506,718.318 511.713,718.318 513.921,718.318 516.128,718.318 518.335,718.318 520.543,718.318 522.75,718.318 524.958,718.318 527.165,718.318 529.373,718.318 531.58,718.318 533.788,718.318 535.995,718.318 538.203,718.318 540.41,718.318 542.618,718.318 544.825,718.318 547.033,718.318 549.24,718.318 551.448,718.318 553.655,718.318 555.863,718.318 558.07,718.318 560.278,718.318 562.485,718.318 564.693,718.318 566.9,718.318 569.108,718.318 571.315,718.318 573.523,718.318 575.73,718.318 577.938,718.318 580.145,718.318 582.353,718.318 584.56,718.318 586.768,718.318 588.975,715.822 591.182,715.822 593.39,715.822 595.597,715.822 597.805,715.822 600.012,715.822 602.22,715.822 604.427,715.822 606.635,715.822 608.842,715.822 611.05,715.822 613.257,715.822 615.465,715.822 617.672,715.822 619.88,715.822 622.087,715.822 624.295,715.822 626.502,715.822 628.71,715.822 630.917,715.822 633.125,715.822 635.332,715.822 637.54,715.822 639.747,715.822 641.955,715.822 644.162,715.822 646.37,715.822 648.577,715.822 650.785,715.822 652.992,715.822 655.2,715.822 657.407,715.822 659.615,715.822 661.822,715.822 664.03,715.822 666.237,715.822 668.444,715.822 670.652,715.822 672.859,715.822 675.067,715.822 677.274,715.822 679.482,715.822 681.689,715.822 683.897,715.822 686.104,715.822 688.312,715.822 690.519,715.822 692.727,715.822 694.934,715.822 697.142,715.822 699.349,715.822 701.557,715.822 703.764,715.822 705.972,715.822 708.179,715.822 710.387,715.822 712.594,715.822 714.802,715.822 717.009,715.822 719.217,715.822 721.424,715.822 723.632,715.822 725.839,715.822 728.047,715.822 730.254,715.822 732.462,715.822 734.669,715.822 736.877,715.822 739.084,715.822 741.292,715.822 743.499,715.822 745.706,715.822 747.914,715.822 750.121,715.822 752.329,715.822 754.536,715.822 756.744,715.822 758.951,715.822 761.159,715.822 763.366,715.822 765.574,715.822 767.781,715.822 769.989,715.822 772.196,715.822 774.404,715.822 776.611,715.822 778.819,715.822 781.026,715.822 783.234,715.822 785.441,715.822 787.649,715.822 789.856,715.822 792.064,715.822 794.271,715.822 796.479,715.822 798.686,715.822 800.894,715.822 803.101,715.822 805.309,715.822 807.516,715.822 809.724,1079.39 811.931,1079.39 814.139,1079.39 816.346,1079.39 818.553,1079.39 820.761,1079.39 822.968,1079.39 825.176,1079.39 827.383,1079.39 829.591,1079.39 831.798,1079.39 834.006,1079.39 836.213,1079.39 838.421,1079.39 840.628,1079.39 842.836,1079.39 845.043,1079.39 847.251,1079.39 849.458,1079.39 851.666,1079.39 853.873,1079.39 856.081,1079.39 858.288,1079.39 860.496,1079.39 862.703,1079.39 864.911,1079.39 867.118,1079.39 869.326,1079.39 871.533,1079.39 873.741,1079.39 875.948,1079.39 878.156,1079.39 880.363,1079.39 882.571,1079.39 884.778,1079.39 886.986,1079.39 889.193,1079.39 891.401,1079.39 893.608,1079.39 895.815,1079.39 898.023,1079.39 900.23,1079.39 902.438,1079.39 904.645,1079.39 906.853,1079.39 909.06,1079.39 911.268,1079.39 913.475,1079.39 915.683,1079.39 917.89,1079.39 920.098,1079.39 922.305,1079.39 924.513,1079.39 926.72,1079.39 928.928,1079.39 931.135,1079.39 933.343,1079.39 935.55,1079.39 937.758,1079.39 939.965,1079.39 942.173,1079.39 944.38,1079.39 946.588,1079.39 948.795,1079.39 951.003,1079.39 953.21,1079.39 955.418,1079.39 957.625,1079.39 959.833,1079.39 962.04,1079.39 964.248,1079.39 966.455,1079.39 968.663,1079.39 970.87,1079.39 973.077,1079.39 975.285,1079.39 977.492,1079.39 979.7,1079.39 981.907,1079.39 984.115,1079.39 986.322,1079.39 988.53,1079.39 990.737,1079.39 992.945,1079.39 995.152,1079.39 997.36,1079.39 999.567,1079.39 1001.77,1079.39 1003.98,1079.39 1006.19,1079.39 1008.4,1079.39 1010.6,1079.39 1012.81,1079.39 1015.02,1079.39 1017.23,1079.39 1019.43,1079.39 1021.64,1079.39 1023.85,1079.39 1026.06,1079.39 1028.26,1079.39 1030.47,530.696 1032.68,530.696 1034.89,530.696 1037.09,530.696 1039.3,530.696 1041.51,530.696 1043.72,530.696 1045.92,530.696 1048.13,530.696 1050.34,530.696 1052.55,530.696 1054.75,530.696 1056.96,530.696 1059.17,530.696 1061.38,530.696 1063.58,530.696 1065.79,530.696 1068,530.696 1070.21,530.696 1072.41,530.696 1074.62,530.696 1076.83,530.696 1079.04,530.696 1081.24,530.696 1083.45,530.696 1085.66,530.696 1087.87,530.696 1090.07,530.696 1092.28,530.696 1094.49,530.696 1096.7,530.696 1098.9,530.696 1101.11,530.696 1103.32,530.696 1105.53,530.696 1107.73,530.696 1109.94,530.696 1112.15,530.696 1114.36,530.696 1116.56,530.696 1118.77,530.696 1120.98,530.696 1123.19,530.696 1125.39,530.696 1127.6,530.696 1129.81,530.696 1132.02,530.696 1134.22,530.696 1136.43,530.696 1138.64,530.696 1140.85,530.696 1143.05,530.696 1145.26,530.696 1147.47,530.696 1149.68,530.696 1151.88,530.696 1154.09,530.696 1156.3,530.696 1158.51,530.696 1160.71,530.696 1162.92,530.696 1165.13,530.696 1167.34,530.696 1169.54,530.696 1171.75,530.696 1173.96,530.696 1176.17,530.696 1178.37,530.696 1180.58,530.696 1182.79,530.696 1185,530.696 1187.2,530.696 1189.41,530.696 1191.62,530.696 1193.83,530.696 1196.03,530.696 1198.24,530.696 1200.45,530.696 1202.66,530.696 1204.86,530.696 1207.07,530.696 1209.28,530.696 1211.49,530.696 1213.69,530.696 1215.9,530.696 1218.11,530.696 1220.32,530.696 1222.52,530.696 1224.73,530.696 1226.94,530.696 1229.15,530.696 1231.35,530.696 1233.56,530.696 1235.77,530.696 1237.98,530.696 1240.18,530.696 1242.39,530.696 1244.6,530.696 1246.81,530.696 1249.01,530.696 1251.22,960.146 1253.43,960.146 1255.64,960.146 1257.84,960.146 1260.05,960.146 1262.26,960.146 1264.47,960.146 1266.67,960.146 1268.88,960.146 1271.09,960.146 1273.3,960.146 1275.5,960.146 1277.71,960.146 1279.92,960.146 1282.13,960.146 1284.33,960.146 1286.54,960.146 1288.75,960.146 1290.96,960.146 1293.16,960.146 1295.37,960.146 1297.58,960.146 1299.79,960.146 1301.99,960.146 1304.2,960.146 1306.41,960.146 1308.62,960.146 1310.82,960.146 1313.03,960.146 1315.24,960.146 1317.45,960.146 1319.65,960.146 1321.86,960.146 1324.07,960.146 1326.28,960.146 1328.48,960.146 1330.69,960.146 1332.9,960.146 1335.11,960.146 1337.31,960.146 1339.52,960.146 1341.73,960.146 1343.94,960.146 1346.14,960.146 1348.35,960.146 1350.56,960.146 1352.76,960.146 1354.97,960.146 1357.18,960.146 1359.39,960.146 1361.59,960.146 1363.8,960.146 1366.01,960.146 1368.22,960.146 1370.42,960.146 1372.63,960.146 1374.84,960.146 1377.05,960.146 1379.25,960.146 1381.46,960.146 1383.67,960.146 1385.88,960.146 1388.08,960.146 1390.29,960.146 1392.5,960.146 1394.71,960.146 1396.91,960.146 1399.12,960.146 1401.33,960.146 1403.54,960.146 1405.74,960.146 1407.95,960.146 1410.16,960.146 1412.37,960.146 1414.57,960.146 1416.78,960.146 1418.99,960.146 1421.2,960.146 1423.4,960.146 1425.61,960.146 1427.82,960.146 1430.03,960.146 1432.23,960.146 1434.44,960.146 1436.65,960.146 1438.86,960.146 1441.06,960.146 1443.27,960.146 1445.48,960.146 1447.69,960.146 1449.89,960.146 1452.1,960.146 1454.31,960.146 1456.52,960.146 1458.72,960.146 1460.93,960.146 1463.14,960.146 1465.35,960.146 1467.55,960.146 1469.76,960.146 1471.97,197.194 1474.18,197.194 1476.38,197.194 1478.59,197.194 1480.8,197.194 1483.01,197.194 1485.21,197.194 1487.42,197.194 1489.63,197.194 1491.84,197.194 1494.04,197.194 1496.25,197.194 1498.46,197.194 1500.67,197.194 1502.87,197.194 1505.08,197.194 1507.29,197.194 1509.5,197.194 1511.7,197.194 1513.91,197.194 1516.12,197.194 1518.33,197.194 1520.53,197.194 1522.74,197.194 1524.95,197.194 1527.16,197.194 1529.36,197.194 1531.57,197.194 1533.78,197.194 1535.99,197.194 1538.19,197.194 1540.4,197.194 1542.61,197.194 1544.82,197.194 1547.02,197.194 1549.23,197.194 1551.44,197.194 1553.65,197.194 1555.85,197.194 1558.06,197.194 1560.27,197.194 1562.48,197.194 1564.68,197.194 1566.89,197.194 1569.1,197.194 1571.31,197.194 1573.51,197.194 1575.72,197.194 1577.93,197.194 1580.14,197.194 1582.34,197.194 1584.55,197.194 1586.76,197.194 1588.97,197.194 1591.17,197.194 1593.38,197.194 1595.59,197.194 1597.8,197.194 1600,197.194 1602.21,197.194 1604.42,197.194 1606.63,197.194 1608.83,197.194 1611.04,197.194 1613.25,197.194 1615.46,197.194 1617.66,197.194 1619.87,197.194 1622.08,197.194 1624.29,197.194 1626.49,197.194 1628.7,197.194 1630.91,197.194 1633.12,197.194 1635.32,197.194 1637.53,197.194 1639.74,197.194 1641.95,197.194 1644.15,197.194 1646.36,197.194 1648.57,197.194 1650.78,197.194 1652.98,197.194 1655.19,197.194 1657.4,197.194 1659.61,197.194 1661.81,197.194 1664.02,197.194 1666.23,197.194 1668.44,197.194 1670.64,197.194 1672.85,197.194 1675.06,197.194 1677.27,197.194 1679.47,197.194 1681.68,197.194 1683.89,197.194 1686.1,197.194 1688.3,197.194 1690.51,197.194 1692.72,86.1857 1694.93,86.1857 1697.13,86.1857 1699.34,86.1857 1701.55,86.1857 1703.76,86.1857 1705.96,86.1857 1708.17,86.1857 1710.38,86.1857 1712.59,86.1857 1714.79,86.1857 1717,86.1857 1719.21,86.1857 1721.42,86.1857 1723.62,86.1857 1725.83,86.1857 1728.04,86.1857 1730.25,86.1857 1732.45,86.1857 1734.66,86.1857 1736.87,86.1857 1739.07,86.1857 1741.28,86.1857 1743.49,86.1857 1745.7,86.1857 1747.9,86.1857 1750.11,86.1857 1752.32,86.1857 1754.53,86.1857 1756.73,86.1857 1758.94,86.1857 1761.15,86.1857 1763.36,86.1857 1765.56,86.1857 1767.77,86.1857 1769.98,86.1857 1772.19,86.1857 1774.39,86.1857 1776.6,86.1857 1778.81,86.1857 1781.02,86.1857 1783.22,86.1857 1785.43,86.1857 1787.64,86.1857 1789.85,86.1857 1792.05,86.1857 1794.26,86.1857 1796.47,86.1857 1798.68,86.1857 1800.88,86.1857 1803.09,86.1857 1805.3,86.1857 1807.51,86.1857 1809.71,86.1857 1811.92,86.1857 1814.13,86.1857 1816.34,86.1857 1818.54,86.1857 1820.75,86.1857 1822.96,86.1857 1825.17,86.1857 1827.37,86.1857 1829.58,86.1857 1831.79,86.1857 1834,86.1857 1836.2,86.1857 1838.41,86.1857 1840.62,86.1857 1842.83,86.1857 1845.03,86.1857 1847.24,86.1857 1849.45,86.1857 1851.66,86.1857 1853.86,86.1857 1856.07,86.1857 1858.28,86.1857 1860.49,86.1857 1862.69,86.1857 1864.9,86.1857 1867.11,86.1857 1869.32,86.1857 1871.52,86.1857 1873.73,86.1857 1875.94,86.1857 1878.15,86.1857 1880.35,86.1857 1882.56,86.1857 1884.77,86.1857 1886.98,86.1857 1889.18,86.1857 1891.39,86.1857 1893.6,86.1857 1895.81,86.1857 1898.01,86.1857 1900.22,86.1857 1902.43,86.1857 1904.64,86.1857 1906.84,86.1857 1909.05,86.1857 1911.26,86.1857 1913.47,1384.24 1915.67,1384.24 1917.88,1384.24 1920.09,1384.24 1922.3,1384.24 1924.5,1384.24 1926.71,1384.24 1928.92,1384.24 1931.13,1384.24 1933.33,1384.24 1935.54,1384.24 1937.75,1384.24 1939.96,1384.24 1942.16,1384.24 1944.37,1384.24 1946.58,1384.24 1948.79,1384.24 1950.99,1384.24 1953.2,1384.24 1955.41,1384.24 1957.62,1384.24 1959.82,1384.24 1962.03,1384.24 1964.24,1384.24 1966.45,1384.24 1968.65,1384.24 1970.86,1384.24 1973.07,1384.24 1975.28,1384.24 1977.48,1384.24 1979.69,1384.24 1981.9,1384.24 1984.11,1384.24 1986.31,1384.24 1988.52,1384.24 1990.73,1384.24 1992.94,1384.24 1995.14,1384.24 1997.35,1384.24 1999.56,1384.24 2001.77,1384.24 2003.97,1384.24 2006.18,1384.24 2008.39,1384.24 2010.6,1384.24 2012.8,1384.24 2015.01,1384.24 2017.22,1384.24 2019.43,1384.24 2021.63,1384.24 2023.84,1384.24 2026.05,1384.24 2028.26,1384.24 2030.46,1384.24 2032.67,1384.24 2034.88,1384.24 2037.09,1384.24 2039.29,1384.24 2041.5,1384.24 2043.71,1384.24 2045.92,1384.24 2048.12,1384.24 2050.33,1384.24 2052.54,1384.24 2054.75,1384.24 2056.95,1384.24 2059.16,1384.24 2061.37,1384.24 2063.58,1384.24 2065.78,1384.24 2067.99,1384.24 2070.2,1384.24 2072.41,1384.24 2074.61,1384.24 2076.82,1384.24 2079.03,1384.24 2081.24,1384.24 2083.44,1384.24 2085.65,1384.24 2087.86,1384.24 2090.07,1384.24 2092.27,1384.24 2094.48,1384.24 2096.69,1384.24 2098.9,1384.24 2101.1,1384.24 2103.31,1384.24 2105.52,1384.24 2107.73,1384.24 2109.93,1384.24 2112.14,1384.24 2114.35,1384.24 2116.55,1384.24 2118.76,1384.24 2120.97,1384.24 2123.18,1384.24 2125.38,1384.24 2127.59,1384.24 2129.8,1384.24 2132.01,1384.24 2134.21,1060.52 2136.42,1060.52 2138.63,1060.52 2140.84,1060.52 2143.04,1060.52 2145.25,1060.52 2147.46,1060.52 2149.67,1060.52 2151.87,1060.52 2154.08,1060.52 2156.29,1060.52 2158.5,1060.52 2160.7,1060.52 2162.91,1060.52 2165.12,1060.52 2167.33,1060.52 2169.53,1060.52 2171.74,1060.52 2173.95,1060.52 2176.16,1060.52 2178.36,1060.52 2180.57,1060.52 2182.78,1060.52 2184.99,1060.52 2187.19,1060.52 2189.4,1060.52 2191.61,1060.52 2193.82,1060.52 2196.02,1060.52 2198.23,1060.52 2200.44,1060.52 2202.65,1060.52 2204.85,1060.52 2207.06,1060.52 2209.27,1060.52 2211.48,1060.52 2213.68,1060.52 2215.89,1060.52 2218.1,1060.52 2220.31,1060.52 2222.51,1060.52 2224.72,1060.52 2226.93,1060.52 2229.14,1060.52 2231.34,1060.52 2233.55,1060.52 2235.76,1060.52 2237.97,1060.52 2240.17,1060.52 2242.38,1060.52 2244.59,1060.52 2246.8,1060.52 2249,1060.52 2251.21,1060.52 2253.42,1060.52 2255.63,1060.52 2257.83,1060.52 2260.04,1060.52 2262.25,1060.52 2264.46,1060.52 2266.66,1060.52 2268.87,1060.52 2271.08,1060.52 2273.29,1060.52 2275.49,1060.52 2277.7,1060.52 2279.91,1060.52 2282.12,1060.52 2284.32,1060.52 2286.53,1060.52 2288.74,1060.52 2290.95,1060.52 2293.15,1060.52 2295.36,1060.52 2297.57,1060.52 2299.78,1060.52 2301.98,1060.52 2304.19,1060.52 2306.4,1060.52 2308.61,1060.52 2310.81,1060.52 2313.02,1060.52 2315.23,1060.52 2317.44,1060.52 2319.64,1060.52 2321.85,1060.52 2324.06,1060.52 2326.27,1060.52 2328.47,1060.52 2330.68,1060.52 2332.89,1060.52 2335.1,1060.52 2337.3,1060.52 2339.51,1060.52 2341.72,1060.52 2343.93,1060.52 2346.13,1060.52 2348.34,1060.52 2350.55,1060.52 2352.76,1060.52 "/>
<path clip-path="url(#clip300)" d="M220.987 248.629 L466.654 248.629 L466.654 93.1086 L220.987 93.1086  Z" fill="#ffffff" fill-rule="evenodd" fill-opacity="1"/>
<polyline clip-path="url(#clip300)" style="stroke:#000000; stroke-linecap:round; stroke-linejoin:round; stroke-width:4; stroke-opacity:1; fill:none" points="220.987,248.629 466.654,248.629 466.654,93.1086 220.987,93.1086 220.987,248.629 "/>
<polyline clip-path="url(#clip300)" style="stroke:#009af9; stroke-linecap:round; stroke-linejoin:round; stroke-width:4; stroke-opacity:1; fill:none" points="245.49,144.949 392.509,144.949 "/>
<path clip-path="url(#clip300)" d="M441.665 136.303 L432.29 148.919 L442.151 162.229 L437.128 162.229 L429.581 152.043 L422.035 162.229 L417.012 162.229 L427.081 148.664 L417.868 136.303 L422.891 136.303 L429.766 145.539 L436.641 136.303 L441.665 136.303 Z" fill="#000000" fill-rule="nonzero" fill-opacity="1" /><polyline clip-path="url(#clip300)" style="stroke:#e26f46; stroke-linecap:round; stroke-linejoin:round; stroke-width:4; stroke-opacity:1; fill:none" points="245.49,196.789 392.509,196.789 "/>
<path clip-path="url(#clip300)" d="M433.516 178.05 L433.516 181.592 L429.442 181.592 Q427.151 181.592 426.248 182.518 Q425.368 183.444 425.368 185.851 L425.368 188.143 L432.382 188.143 L432.382 191.453 L425.368 191.453 L425.368 214.069 L421.086 214.069 L421.086 191.453 L417.012 191.453 L417.012 188.143 L421.086 188.143 L421.086 186.337 Q421.086 182.009 423.1 180.041 Q425.114 178.05 429.489 178.05 L433.516 178.05 Z" fill="#000000" fill-rule="nonzero" fill-opacity="1" /></svg>
