<?xml version="1.0" encoding="utf-8"?>
<svg xmlns="http://www.w3.org/2000/svg" xmlns:xlink="http://www.w3.org/1999/xlink" width="600" height="400" viewBox="0 0 2400 1600">
<defs>
  <clipPath id="clip450">
    <rect x="0" y="0" width="2400" height="1600"/>
  </clipPath>
</defs>
<path clip-path="url(#clip450)" d="M0 1600 L2400 1600 L2400 0 L0 0  Z" fill="#ffffff" fill-rule="evenodd" fill-opacity="1"/>
<defs>
  <clipPath id="clip451">
    <rect x="480" y="0" width="1681" height="1600"/>
  </clipPath>
</defs>
<defs>
  <clipPath id="clip452">
    <rect x="112" y="47" width="2242" height="1440"/>
  </clipPath>
</defs>
<path clip-path="url(#clip452)" d="M-664.465 2578.03 L-664.465 2291 L-317.696 2147.49 L282.925 2230.34 L282.925 2517.37 L-63.8438 2660.88 L-664.465 2578.03  Z" fill="#ffffff" fill-rule="evenodd" fill-opacity="1"/>
<polyline clip-path="url(#clip452)" style="stroke:#000000; stroke-linecap:round; stroke-linejoin:round; stroke-width:2; stroke-opacity:0.1; fill:none" points="717.793,1217.94 1133.26,858.14 1133.26,138.538 "/>
<polyline clip-path="url(#clip452)" style="stroke:#000000; stroke-linecap:round; stroke-linejoin:round; stroke-width:2; stroke-opacity:0.1; fill:none" points="867.948,1261.29 1283.41,901.486 1283.41,181.884 "/>
<polyline clip-path="url(#clip452)" style="stroke:#000000; stroke-linecap:round; stroke-linejoin:round; stroke-width:2; stroke-opacity:0.1; fill:none" points="1018.1,1304.63 1433.57,944.832 1433.57,225.23 "/>
<polyline clip-path="url(#clip452)" style="stroke:#000000; stroke-linecap:round; stroke-linejoin:round; stroke-width:2; stroke-opacity:0.1; fill:none" points="1168.26,1347.98 1583.72,988.178 1583.72,268.576 "/>
<polyline clip-path="url(#clip452)" style="stroke:#000000; stroke-linecap:round; stroke-linejoin:round; stroke-width:2; stroke-opacity:0.1; fill:none" points="1318.41,1391.33 1733.88,1031.52 1733.88,311.922 "/>
<polyline clip-path="url(#clip452)" style="stroke:#000000; stroke-linecap:round; stroke-linejoin:round; stroke-width:2; stroke-opacity:0.1; fill:none" points="1451.04,1352.82 731.437,1145.09 731.437,425.487 "/>
<polyline clip-path="url(#clip452)" style="stroke:#000000; stroke-linecap:round; stroke-linejoin:round; stroke-width:2; stroke-opacity:0.1; fill:none" points="1533.9,1281.06 814.295,1073.33 814.295,353.73 "/>
<polyline clip-path="url(#clip452)" style="stroke:#000000; stroke-linecap:round; stroke-linejoin:round; stroke-width:2; stroke-opacity:0.1; fill:none" points="1616.75,1209.31 897.152,1001.58 897.152,281.973 "/>
<polyline clip-path="url(#clip452)" style="stroke:#000000; stroke-linecap:round; stroke-linejoin:round; stroke-width:2; stroke-opacity:0.1; fill:none" points="1699.61,1137.55 980.01,929.818 980.01,210.216 "/>
<polyline clip-path="url(#clip452)" style="stroke:#000000; stroke-linecap:round; stroke-linejoin:round; stroke-width:2; stroke-opacity:0.1; fill:none" points="1782.47,1065.79 1062.87,858.062 1062.87,138.46 "/>
<polyline clip-path="url(#clip452)" style="stroke:#000000; stroke-linecap:round; stroke-linejoin:round; stroke-width:2; stroke-opacity:0.1; fill:none" points="664.934,1196.51 1080.4,836.705 1800,1044.44 "/>
<polyline clip-path="url(#clip452)" style="stroke:#000000; stroke-linecap:round; stroke-linejoin:round; stroke-width:2; stroke-opacity:0.1; fill:none" points="664.934,1076.46 1080.4,716.661 1800,924.392 "/>
<polyline clip-path="url(#clip452)" style="stroke:#000000; stroke-linecap:round; stroke-linejoin:round; stroke-width:2; stroke-opacity:0.1; fill:none" points="664.934,956.419 1080.4,596.618 1800,804.349 "/>
<polyline clip-path="url(#clip452)" style="stroke:#000000; stroke-linecap:round; stroke-linejoin:round; stroke-width:2; stroke-opacity:0.1; fill:none" points="664.934,836.375 1080.4,476.574 1800,684.305 "/>
<polyline clip-path="url(#clip452)" style="stroke:#000000; stroke-linecap:round; stroke-linejoin:round; stroke-width:2; stroke-opacity:0.1; fill:none" points="664.934,716.331 1080.4,356.53 1800,564.262 "/>
<polyline clip-path="url(#clip452)" style="stroke:#000000; stroke-linecap:round; stroke-linejoin:round; stroke-width:2; stroke-opacity:0.1; fill:none" points="664.934,596.288 1080.4,236.487 1800,444.218 "/>
<polyline clip-path="url(#clip450)" style="stroke:#000000; stroke-linecap:round; stroke-linejoin:round; stroke-width:4; stroke-opacity:1; fill:none" points="664.934,1202.68 1384.54,1410.41 "/>
<polyline clip-path="url(#clip450)" style="stroke:#000000; stroke-linecap:round; stroke-linejoin:round; stroke-width:4; stroke-opacity:1; fill:none" points="717.793,1217.94 722.778,1213.62 "/>
<polyline clip-path="url(#clip450)" style="stroke:#000000; stroke-linecap:round; stroke-linejoin:round; stroke-width:4; stroke-opacity:1; fill:none" points="867.948,1261.29 872.934,1256.97 "/>
<polyline clip-path="url(#clip450)" style="stroke:#000000; stroke-linecap:round; stroke-linejoin:round; stroke-width:4; stroke-opacity:1; fill:none" points="1018.1,1304.63 1023.09,1300.32 "/>
<polyline clip-path="url(#clip450)" style="stroke:#000000; stroke-linecap:round; stroke-linejoin:round; stroke-width:4; stroke-opacity:1; fill:none" points="1168.26,1347.98 1173.24,1343.66 "/>
<polyline clip-path="url(#clip450)" style="stroke:#000000; stroke-linecap:round; stroke-linejoin:round; stroke-width:4; stroke-opacity:1; fill:none" points="1318.41,1391.33 1323.4,1387.01 "/>
<path clip-path="url(#clip450)" d="M657.677 1232.27 Q654.066 1232.27 652.237 1235.83 Q650.432 1239.38 650.432 1246.51 Q650.432 1253.61 652.237 1257.18 Q654.066 1260.72 657.677 1260.72 Q661.311 1260.72 663.117 1257.18 Q664.945 1253.61 664.945 1246.51 Q664.945 1239.38 663.117 1235.83 Q661.311 1232.27 657.677 1232.27 M657.677 1228.57 Q663.487 1228.57 666.543 1233.17 Q669.621 1237.76 669.621 1246.51 Q669.621 1255.23 666.543 1259.84 Q663.487 1264.42 657.677 1264.42 Q651.867 1264.42 648.788 1259.84 Q645.732 1255.23 645.732 1246.51 Q645.732 1237.76 648.788 1233.17 Q651.867 1228.57 657.677 1228.57 Z" fill="#000000" fill-rule="nonzero" fill-opacity="1" /><path clip-path="url(#clip450)" d="M677.839 1257.87 L682.723 1257.87 L682.723 1263.75 L677.839 1263.75 L677.839 1257.87 Z" fill="#000000" fill-rule="nonzero" fill-opacity="1" /><path clip-path="url(#clip450)" d="M692.954 1229.19 L711.311 1229.19 L711.311 1233.13 L697.237 1233.13 L697.237 1241.6 Q698.255 1241.25 699.274 1241.09 Q700.292 1240.9 701.311 1240.9 Q707.098 1240.9 710.478 1244.07 Q713.857 1247.25 713.857 1252.66 Q713.857 1258.24 710.385 1261.34 Q706.913 1264.42 700.593 1264.42 Q698.417 1264.42 696.149 1264.05 Q693.904 1263.68 691.496 1262.94 L691.496 1258.24 Q693.579 1259.38 695.802 1259.93 Q698.024 1260.49 700.501 1260.49 Q704.505 1260.49 706.843 1258.38 Q709.181 1256.27 709.181 1252.66 Q709.181 1249.05 706.843 1246.95 Q704.505 1244.84 700.501 1244.84 Q698.626 1244.84 696.751 1245.26 Q694.899 1245.67 692.954 1246.55 L692.954 1229.19 Z" fill="#000000" fill-rule="nonzero" fill-opacity="1" /><path clip-path="url(#clip450)" d="M797.647 1303.16 L805.286 1303.16 L805.286 1276.8 L796.976 1278.46 L796.976 1274.2 L805.24 1272.54 L809.916 1272.54 L809.916 1303.16 L817.554 1303.16 L817.554 1307.1 L797.647 1307.1 L797.647 1303.16 Z" fill="#000000" fill-rule="nonzero" fill-opacity="1" /><path clip-path="url(#clip450)" d="M826.999 1301.22 L831.883 1301.22 L831.883 1307.1 L826.999 1307.1 L826.999 1301.22 Z" fill="#000000" fill-rule="nonzero" fill-opacity="1" /><path clip-path="url(#clip450)" d="M852.068 1275.62 Q848.457 1275.62 846.628 1279.18 Q844.823 1282.72 844.823 1289.85 Q844.823 1296.96 846.628 1300.52 Q848.457 1304.06 852.068 1304.06 Q855.702 1304.06 857.508 1300.52 Q859.337 1296.96 859.337 1289.85 Q859.337 1282.72 857.508 1279.18 Q855.702 1275.62 852.068 1275.62 M852.068 1271.91 Q857.878 1271.91 860.934 1276.52 Q864.013 1281.1 864.013 1289.85 Q864.013 1298.58 860.934 1303.18 Q857.878 1307.77 852.068 1307.77 Q846.258 1307.77 843.179 1303.18 Q840.124 1298.58 840.124 1289.85 Q840.124 1281.1 843.179 1276.52 Q846.258 1271.91 852.068 1271.91 Z" fill="#000000" fill-rule="nonzero" fill-opacity="1" /><path clip-path="url(#clip450)" d="M948.798 1346.51 L956.437 1346.51 L956.437 1320.14 L948.127 1321.81 L948.127 1317.55 L956.39 1315.88 L961.066 1315.88 L961.066 1346.51 L968.705 1346.51 L968.705 1350.44 L948.798 1350.44 L948.798 1346.51 Z" fill="#000000" fill-rule="nonzero" fill-opacity="1" /><path clip-path="url(#clip450)" d="M978.15 1344.56 L983.034 1344.56 L983.034 1350.44 L978.15 1350.44 L978.15 1344.56 Z" fill="#000000" fill-rule="nonzero" fill-opacity="1" /><path clip-path="url(#clip450)" d="M993.265 1315.88 L1011.62 1315.88 L1011.62 1319.82 L997.548 1319.82 L997.548 1328.29 Q998.566 1327.94 999.585 1327.78 Q1000.6 1327.6 1001.62 1327.6 Q1007.41 1327.6 1010.79 1330.77 Q1014.17 1333.94 1014.17 1339.35 Q1014.17 1344.93 1010.7 1348.04 Q1007.22 1351.11 1000.9 1351.11 Q998.728 1351.11 996.46 1350.74 Q994.214 1350.37 991.807 1349.63 L991.807 1344.93 Q993.89 1346.07 996.112 1346.62 Q998.335 1347.18 1000.81 1347.18 Q1004.82 1347.18 1007.15 1345.07 Q1009.49 1342.97 1009.49 1339.35 Q1009.49 1335.74 1007.15 1333.64 Q1004.82 1331.53 1000.81 1331.53 Q998.937 1331.53 997.062 1331.95 Q995.21 1332.36 993.265 1333.24 L993.265 1315.88 Z" fill="#000000" fill-rule="nonzero" fill-opacity="1" /><path clip-path="url(#clip450)" d="M1101.18 1389.85 L1117.49 1389.85 L1117.49 1393.79 L1095.55 1393.79 L1095.55 1389.85 Q1098.21 1387.1 1102.8 1382.47 Q1107.4 1377.82 1108.58 1376.47 Q1110.83 1373.95 1111.71 1372.21 Q1112.61 1370.46 1112.61 1368.77 Q1112.61 1366.01 1110.67 1364.28 Q1108.74 1362.54 1105.64 1362.54 Q1103.44 1362.54 1100.99 1363.3 Q1098.56 1364.07 1095.78 1365.62 L1095.78 1360.9 Q1098.61 1359.76 1101.06 1359.18 Q1103.51 1358.6 1105.55 1358.6 Q1110.92 1358.6 1114.12 1361.29 Q1117.31 1363.97 1117.31 1368.47 Q1117.31 1370.59 1116.5 1372.52 Q1115.71 1374.41 1113.61 1377.01 Q1113.03 1377.68 1109.93 1380.9 Q1106.82 1384.09 1101.18 1389.85 Z" fill="#000000" fill-rule="nonzero" fill-opacity="1" /><path clip-path="url(#clip450)" d="M1127.31 1387.91 L1132.19 1387.91 L1132.19 1393.79 L1127.31 1393.79 L1127.31 1387.91 Z" fill="#000000" fill-rule="nonzero" fill-opacity="1" /><path clip-path="url(#clip450)" d="M1152.38 1362.31 Q1148.77 1362.31 1146.94 1365.87 Q1145.13 1369.41 1145.13 1376.54 Q1145.13 1383.65 1146.94 1387.21 Q1148.77 1390.76 1152.38 1390.76 Q1156.01 1390.76 1157.82 1387.21 Q1159.65 1383.65 1159.65 1376.54 Q1159.65 1369.41 1157.82 1365.87 Q1156.01 1362.31 1152.38 1362.31 M1152.38 1358.6 Q1158.19 1358.6 1161.24 1363.21 Q1164.32 1367.79 1164.32 1376.54 Q1164.32 1385.27 1161.24 1389.88 Q1158.19 1394.46 1152.38 1394.46 Q1146.57 1394.46 1143.49 1389.88 Q1140.43 1385.27 1140.43 1376.54 Q1140.43 1367.79 1143.49 1363.21 Q1146.57 1358.6 1152.38 1358.6 Z" fill="#000000" fill-rule="nonzero" fill-opacity="1" /><path clip-path="url(#clip450)" d="M1252.33 1433.2 L1268.65 1433.2 L1268.65 1437.14 L1246.7 1437.14 L1246.7 1433.2 Q1249.36 1430.45 1253.95 1425.82 Q1258.55 1421.16 1259.73 1419.82 Q1261.98 1417.3 1262.86 1415.56 Q1263.76 1413.8 1263.76 1412.11 Q1263.76 1409.36 1261.82 1407.62 Q1259.9 1405.89 1256.79 1405.89 Q1254.59 1405.89 1252.14 1406.65 Q1249.71 1407.41 1246.93 1408.96 L1246.93 1404.24 Q1249.76 1403.11 1252.21 1402.53 Q1254.66 1401.95 1256.7 1401.95 Q1262.07 1401.95 1265.27 1404.64 Q1268.46 1407.32 1268.46 1411.81 Q1268.46 1413.94 1267.65 1415.86 Q1266.86 1417.76 1264.76 1420.35 Q1264.18 1421.02 1261.08 1424.24 Q1257.97 1427.44 1252.33 1433.2 Z" fill="#000000" fill-rule="nonzero" fill-opacity="1" /><path clip-path="url(#clip450)" d="M1278.46 1431.26 L1283.34 1431.26 L1283.34 1437.14 L1278.46 1437.14 L1278.46 1431.26 Z" fill="#000000" fill-rule="nonzero" fill-opacity="1" /><path clip-path="url(#clip450)" d="M1293.58 1402.58 L1311.93 1402.58 L1311.93 1406.51 L1297.86 1406.51 L1297.86 1414.98 Q1298.88 1414.64 1299.9 1414.47 Q1300.91 1414.29 1301.93 1414.29 Q1307.72 1414.29 1311.1 1417.46 Q1314.48 1420.63 1314.48 1426.05 Q1314.48 1431.63 1311.01 1434.73 Q1307.53 1437.81 1301.21 1437.81 Q1299.04 1437.81 1296.77 1437.44 Q1294.53 1437.07 1292.12 1436.32 L1292.12 1431.63 Q1294.2 1432.76 1296.42 1433.32 Q1298.65 1433.87 1301.12 1433.87 Q1305.13 1433.87 1307.46 1431.76 Q1309.8 1429.66 1309.8 1426.05 Q1309.8 1422.44 1307.46 1420.33 Q1305.13 1418.22 1301.12 1418.22 Q1299.25 1418.22 1297.37 1418.64 Q1295.52 1419.06 1293.58 1419.94 L1293.58 1402.58 Z" fill="#000000" fill-rule="nonzero" fill-opacity="1" /><polyline clip-path="url(#clip450)" style="stroke:#000000; stroke-linecap:round; stroke-linejoin:round; stroke-width:4; stroke-opacity:1; fill:none" points="1384.54,1410.41 1800,1050.61 "/>
<polyline clip-path="url(#clip450)" style="stroke:#000000; stroke-linecap:round; stroke-linejoin:round; stroke-width:4; stroke-opacity:1; fill:none" points="1451.04,1352.82 1442.4,1350.33 "/>
<polyline clip-path="url(#clip450)" style="stroke:#000000; stroke-linecap:round; stroke-linejoin:round; stroke-width:4; stroke-opacity:1; fill:none" points="1533.9,1281.06 1525.26,1278.57 "/>
<polyline clip-path="url(#clip450)" style="stroke:#000000; stroke-linecap:round; stroke-linejoin:round; stroke-width:4; stroke-opacity:1; fill:none" points="1616.75,1209.31 1608.12,1206.81 "/>
<polyline clip-path="url(#clip450)" style="stroke:#000000; stroke-linecap:round; stroke-linejoin:round; stroke-width:4; stroke-opacity:1; fill:none" points="1699.61,1137.55 1690.98,1135.06 "/>
<polyline clip-path="url(#clip450)" style="stroke:#000000; stroke-linecap:round; stroke-linejoin:round; stroke-width:4; stroke-opacity:1; fill:none" points="1782.47,1065.79 1773.83,1063.3 "/>
<path clip-path="url(#clip450)" d="M1477.65 1366.23 L1465.85 1384.67 L1477.65 1384.67 L1477.65 1366.23 M1476.43 1362.15 L1482.31 1362.15 L1482.31 1384.67 L1487.24 1384.67 L1487.24 1388.56 L1482.31 1388.56 L1482.31 1396.71 L1477.65 1396.71 L1477.65 1388.56 L1462.05 1388.56 L1462.05 1384.05 L1476.43 1362.15 Z" fill="#000000" fill-rule="nonzero" fill-opacity="1" /><path clip-path="url(#clip450)" d="M1546.37 1290.39 L1564.72 1290.39 L1564.72 1294.33 L1550.65 1294.33 L1550.65 1302.8 Q1551.67 1302.45 1552.69 1302.29 Q1553.71 1302.11 1554.72 1302.11 Q1560.51 1302.11 1563.89 1305.28 Q1567.27 1308.45 1567.27 1313.87 Q1567.27 1319.44 1563.8 1322.55 Q1560.33 1325.63 1554.01 1325.63 Q1551.83 1325.63 1549.56 1325.26 Q1547.32 1324.88 1544.91 1324.14 L1544.91 1319.44 Q1546.99 1320.58 1549.22 1321.13 Q1551.44 1321.69 1553.91 1321.69 Q1557.92 1321.69 1560.26 1319.58 Q1562.59 1317.48 1562.59 1313.87 Q1562.59 1310.26 1560.26 1308.15 Q1557.92 1306.04 1553.91 1306.04 Q1552.04 1306.04 1550.16 1306.46 Q1548.31 1306.88 1546.37 1307.76 L1546.37 1290.39 Z" fill="#000000" fill-rule="nonzero" fill-opacity="1" /><path clip-path="url(#clip450)" d="M1640.11 1234.05 Q1636.96 1234.05 1635.11 1236.21 Q1633.28 1238.36 1633.28 1242.11 Q1633.28 1245.84 1635.11 1248.01 Q1636.96 1250.17 1640.11 1250.17 Q1643.25 1250.17 1645.08 1248.01 Q1646.93 1245.84 1646.93 1242.11 Q1646.93 1238.36 1645.08 1236.21 Q1643.25 1234.05 1640.11 1234.05 M1649.39 1219.4 L1649.39 1223.66 Q1647.63 1222.83 1645.82 1222.39 Q1644.04 1221.95 1642.28 1221.95 Q1637.65 1221.95 1635.2 1225.07 Q1632.77 1228.2 1632.42 1234.52 Q1633.79 1232.5 1635.85 1231.44 Q1637.91 1230.35 1640.38 1230.35 Q1645.59 1230.35 1648.6 1233.52 Q1651.63 1236.67 1651.63 1242.11 Q1651.63 1247.43 1648.48 1250.65 Q1645.34 1253.87 1640.11 1253.87 Q1634.11 1253.87 1630.94 1249.29 Q1627.77 1244.68 1627.77 1235.95 Q1627.77 1227.76 1631.66 1222.9 Q1635.55 1218.01 1642.1 1218.01 Q1643.86 1218.01 1645.64 1218.36 Q1647.44 1218.71 1649.39 1219.4 Z" fill="#000000" fill-rule="nonzero" fill-opacity="1" /><path clip-path="url(#clip450)" d="M1710.63 1146.88 L1732.85 1146.88 L1732.85 1148.87 L1720.3 1181.44 L1715.42 1181.44 L1727.22 1150.82 L1710.63 1150.82 L1710.63 1146.88 Z" fill="#000000" fill-rule="nonzero" fill-opacity="1" /><path clip-path="url(#clip450)" d="M1805.33 1093.27 Q1802 1093.27 1800.08 1095.05 Q1798.18 1096.84 1798.18 1099.96 Q1798.18 1103.09 1800.08 1104.87 Q1802 1106.65 1805.33 1106.65 Q1808.67 1106.65 1810.59 1104.87 Q1812.51 1103.06 1812.51 1099.96 Q1812.51 1096.84 1810.59 1095.05 Q1808.69 1093.27 1805.33 1093.27 M1800.66 1091.28 Q1797.65 1090.54 1795.96 1088.48 Q1794.29 1086.42 1794.29 1083.46 Q1794.29 1079.31 1797.23 1076.91 Q1800.2 1074.5 1805.33 1074.5 Q1810.5 1074.5 1813.44 1076.91 Q1816.38 1079.31 1816.38 1083.46 Q1816.38 1086.42 1814.69 1088.48 Q1813.02 1090.54 1810.03 1091.28 Q1813.41 1092.07 1815.29 1094.36 Q1817.19 1096.65 1817.19 1099.96 Q1817.19 1104.98 1814.11 1107.67 Q1811.05 1110.36 1805.33 1110.36 Q1799.62 1110.36 1796.54 1107.67 Q1793.48 1104.98 1793.48 1099.96 Q1793.48 1096.65 1795.38 1094.36 Q1797.28 1092.07 1800.66 1091.28 M1798.95 1083.9 Q1798.95 1086.58 1800.61 1088.09 Q1802.3 1089.59 1805.33 1089.59 Q1808.34 1089.59 1810.03 1088.09 Q1811.75 1086.58 1811.75 1083.9 Q1811.75 1081.21 1810.03 1079.71 Q1808.34 1078.2 1805.33 1078.2 Q1802.3 1078.2 1800.61 1079.71 Q1798.95 1081.21 1798.95 1083.9 Z" fill="#000000" fill-rule="nonzero" fill-opacity="1" /><polyline clip-path="url(#clip450)" style="stroke:#000000; stroke-linecap:round; stroke-linejoin:round; stroke-width:4; stroke-opacity:1; fill:none" points="664.934,1202.68 664.934,483.08 "/>
<polyline clip-path="url(#clip450)" style="stroke:#000000; stroke-linecap:round; stroke-linejoin:round; stroke-width:4; stroke-opacity:1; fill:none" points="664.934,1196.51 669.92,1192.19 "/>
<polyline clip-path="url(#clip450)" style="stroke:#000000; stroke-linecap:round; stroke-linejoin:round; stroke-width:4; stroke-opacity:1; fill:none" points="664.934,1076.46 669.92,1072.14 "/>
<polyline clip-path="url(#clip450)" style="stroke:#000000; stroke-linecap:round; stroke-linejoin:round; stroke-width:4; stroke-opacity:1; fill:none" points="664.934,956.419 669.92,952.101 "/>
<polyline clip-path="url(#clip450)" style="stroke:#000000; stroke-linecap:round; stroke-linejoin:round; stroke-width:4; stroke-opacity:1; fill:none" points="664.934,836.375 669.92,832.057 "/>
<polyline clip-path="url(#clip450)" style="stroke:#000000; stroke-linecap:round; stroke-linejoin:round; stroke-width:4; stroke-opacity:1; fill:none" points="664.934,716.331 669.92,712.014 "/>
<polyline clip-path="url(#clip450)" style="stroke:#000000; stroke-linecap:round; stroke-linejoin:round; stroke-width:4; stroke-opacity:1; fill:none" points="664.934,596.288 669.92,591.97 "/>
<path clip-path="url(#clip450)" d="M629.005 1195.15 Q632.361 1195.87 634.236 1198.14 Q636.134 1200.41 636.134 1203.74 Q636.134 1208.86 632.616 1211.66 Q629.097 1214.46 622.616 1214.46 Q620.44 1214.46 618.125 1214.02 Q615.834 1213.6 613.38 1212.74 L613.38 1208.23 Q615.324 1209.36 617.639 1209.94 Q619.954 1210.52 622.477 1210.52 Q626.875 1210.52 629.167 1208.79 Q631.482 1207.05 631.482 1203.74 Q631.482 1200.68 629.329 1198.97 Q627.199 1197.24 623.38 1197.24 L619.352 1197.24 L619.352 1193.39 L623.565 1193.39 Q627.014 1193.39 628.843 1192.03 Q630.671 1190.64 630.671 1188.05 Q630.671 1185.38 628.773 1183.97 Q626.898 1182.54 623.38 1182.54 Q621.459 1182.54 619.26 1182.95 Q617.06 1183.37 614.422 1184.25 L614.422 1180.08 Q617.084 1179.34 619.398 1178.97 Q621.736 1178.6 623.797 1178.6 Q629.121 1178.6 632.222 1181.03 Q635.324 1183.44 635.324 1187.56 Q635.324 1190.43 633.681 1192.42 Q632.037 1194.39 629.005 1195.15 Z" fill="#000000" fill-rule="nonzero" fill-opacity="1" /><path clip-path="url(#clip450)" d="M626.551 1063.26 L614.746 1081.71 L626.551 1081.71 L626.551 1063.26 M625.324 1059.18 L631.204 1059.18 L631.204 1081.71 L636.134 1081.71 L636.134 1085.59 L631.204 1085.59 L631.204 1093.74 L626.551 1093.74 L626.551 1085.59 L610.949 1085.59 L610.949 1081.08 L625.324 1059.18 Z" fill="#000000" fill-rule="nonzero" fill-opacity="1" /><path clip-path="url(#clip450)" d="M615.232 939.139 L633.588 939.139 L633.588 943.074 L619.514 943.074 L619.514 951.546 Q620.533 951.199 621.551 951.037 Q622.57 950.852 623.588 950.852 Q629.375 950.852 632.755 954.023 Q636.134 957.194 636.134 962.611 Q636.134 968.189 632.662 971.291 Q629.19 974.37 622.871 974.37 Q620.695 974.37 618.426 974 Q616.181 973.629 613.773 972.888 L613.773 968.189 Q615.857 969.324 618.079 969.879 Q620.301 970.435 622.778 970.435 Q626.783 970.435 629.121 968.328 Q631.459 966.222 631.459 962.611 Q631.459 959 629.121 956.893 Q626.783 954.787 622.778 954.787 Q620.903 954.787 619.028 955.203 Q617.176 955.62 615.232 956.5 L615.232 939.139 Z" fill="#000000" fill-rule="nonzero" fill-opacity="1" /><path clip-path="url(#clip450)" d="M624.607 834.512 Q621.459 834.512 619.607 836.664 Q617.778 838.817 617.778 842.567 Q617.778 846.294 619.607 848.47 Q621.459 850.623 624.607 850.623 Q627.755 850.623 629.584 848.47 Q631.435 846.294 631.435 842.567 Q631.435 838.817 629.584 836.664 Q627.755 834.512 624.607 834.512 M633.889 819.859 L633.889 824.118 Q632.13 823.285 630.324 822.845 Q628.542 822.405 626.783 822.405 Q622.153 822.405 619.699 825.53 Q617.269 828.655 616.922 834.975 Q618.287 832.961 620.347 831.896 Q622.408 830.808 624.884 830.808 Q630.093 830.808 633.102 833.979 Q636.134 837.127 636.134 842.567 Q636.134 847.891 632.986 851.109 Q629.838 854.326 624.607 854.326 Q618.611 854.326 615.44 849.743 Q612.269 845.137 612.269 836.41 Q612.269 828.215 616.158 823.354 Q620.047 818.47 626.597 818.47 Q628.357 818.47 630.139 818.817 Q631.945 819.164 633.889 819.859 Z" fill="#000000" fill-rule="nonzero" fill-opacity="1" /><path clip-path="url(#clip450)" d="M613.912 699.051 L636.134 699.051 L636.134 701.042 L623.588 733.611 L618.704 733.611 L630.509 702.987 L613.912 702.987 L613.912 699.051 Z" fill="#000000" fill-rule="nonzero" fill-opacity="1" /><path clip-path="url(#clip450)" d="M624.283 597.156 Q620.949 597.156 619.028 598.938 Q617.13 600.721 617.13 603.846 Q617.13 606.971 619.028 608.753 Q620.949 610.535 624.283 610.535 Q627.616 610.535 629.537 608.753 Q631.459 606.947 631.459 603.846 Q631.459 600.721 629.537 598.938 Q627.639 597.156 624.283 597.156 M619.607 595.165 Q616.597 594.424 614.908 592.364 Q613.241 590.304 613.241 587.341 Q613.241 583.198 616.181 580.79 Q619.144 578.383 624.283 578.383 Q629.445 578.383 632.384 580.79 Q635.324 583.198 635.324 587.341 Q635.324 590.304 633.634 592.364 Q631.968 594.424 628.982 595.165 Q632.361 595.952 634.236 598.244 Q636.134 600.535 636.134 603.846 Q636.134 608.869 633.056 611.554 Q630 614.239 624.283 614.239 Q618.565 614.239 615.486 611.554 Q612.431 608.869 612.431 603.846 Q612.431 600.535 614.329 598.244 Q616.227 595.952 619.607 595.165 M617.894 587.781 Q617.894 590.466 619.56 591.971 Q621.25 593.475 624.283 593.475 Q627.292 593.475 628.982 591.971 Q630.695 590.466 630.695 587.781 Q630.695 585.096 628.982 583.591 Q627.292 582.086 624.283 582.086 Q621.25 582.086 619.56 583.591 Q617.894 585.096 617.894 587.781 Z" fill="#000000" fill-rule="nonzero" fill-opacity="1" /><polyline clip-path="url(#clip452)" style="stroke:#009af9; stroke-linecap:round; stroke-linejoin:round; stroke-width:4; stroke-opacity:1; fill:none" points="1017.31,885.674 1014.34,888.962 1014.62,888.383 1011.06,892.468 1016.05,886.136 1020.98,879.836 1015.95,885.684 1013.11,888.844 1017.25,883.349 1013.62,887.366 1020.72,878.301 1019.37,879.455 1010.2,890.108 1018.12,879.873 1023.56,872.949 1037.82,855.416 1031.66,863.126 1037.92,855.616 1014.42,883.983 1040.45,852.34 1050.03,841.609 1045.28,848.205 1036.11,859.908 1044.02,851.768 1061.12,833.822 1060.77,836.92 1079.93,817.576 1057.4,846.112 1034.53,870.338 1008.21,896.86 960.268,948.451 1010.74,883.636 1029.76,859.674 995.404,898.592 992.322,899.019 1020.63,869.598 1000.02,891.046 968.361,932.4 903.722,990.548 815.542,1079.08 816.869,1058.06 793.314,1084.11 829.882,1043.35 820.198,1058.98 876.944,991.369 929.589,937.625 1006.41,867.491 1098.21,783.687 1094.24,805.952 1098.17,812.687 1066.53,837.797 1043.7,847.431 1225.45,675.333 1302.21,632.68 1292.22,662.063 1477.07,498.575 1457.61,550.866 1496.76,523.887 1478.49,550.112 1474.03,556.224 1301.51,698.71 1229.61,743.272 1257.59,702.869 1194.72,749.903 1223.58,719.49 1307.49,643.095 1361.32,621.049 1385.12,600.301 1324.15,667.689 1266.46,701.907 1276.66,685.403 1250.91,708.633 1203.09,752.514 1141.43,788.076 1153.84,775.028 1141.99,787.561 1154.23,772.704 1059.87,860.664 1024.77,889.125 971.475,935.56 938.723,958.934 950.833,935.133 865.287,1022.51 846.636,1038.54 808.884,1076.27 827.423,1043.72 885.058,981.092 820.903,1066.05 785.707,1099.64 774.317,1101.38 836.789,1021.86 905.664,959.487 950.735,920.25 1025.39,839.894 977.896,904.566 987.266,903.694 986.722,910.19 1133.62,764.833 1179.57,731.271 1243.61,691.162 1307.41,661.323 1265.44,697.376 1333.8,623.665 1391.75,579.577 1289.2,687.32 1269.96,695.94 1251.52,701.726 1322.48,647.092 1429.96,571.614 1477.06,565.152 1504.85,525.862 1381.02,630.559 1395.68,617.217 1346.37,648.125 1291.33,692.864 1311.69,677.55 1290.88,691.185 1285.38,684.971 1249.21,714.494 1206.28,745.955 1234.13,711.52 1179.3,778.55 1209.91,731.601 1292.63,655.965 1198.28,748.078 1096.46,823.015 1015.77,898.946 1015.11,888.871 993.345,894.838 1020.65,867.843 1016.89,867.078 1039.17,855.451 1166.08,733.731 1107.65,816.262 1224.75,704.866 1264.29,675.132 1171.32,768.61 1206.17,729.627 1251.74,714.49 1189.42,760.057 1177.55,748.443 1198.2,729.822 1152.52,777.187 1115.67,796.684 1093.6,818.392 1079.38,836.802 1115.15,800.817 1041.66,878.872 1039.77,859.815 1024.61,872.866 1018.3,875.887 981.965,914.116 953.463,941.148 857.286,1032.65 918.895,953.455 946.221,927.765 941.375,939.492 937.737,939.657 861.94,1022.19 879.025,988.47 894.013,972.667 889.805,979.481 893.793,981.267 966.047,918.617 980.953,908.821 1011.65,887.732 1043.21,865.123 1053.84,851.177 1125.05,794.777 1146.21,766.129 1111.83,805.983 1037.18,873.289 999.964,906.174 1041.81,850.516 979.28,900.325 906.416,976.996 945.691,934.7 959.649,913.612 1006.28,880.592 952.482,933.152 1033.44,863.793 991.05,907.218 978.502,914.249 991.084,909.652 1094.59,794.611 1122.19,761.65 1059.39,829.992 969.39,907.956 955.938,922.823 989.436,897.069 1091.69,807.339 1136.5,772.892 1163.36,768.939 1119.02,792.985 1152.5,792.239 1139.38,796.532 1083.61,822.465 1058.81,858.763 1109.55,806.604 1102.34,812.921 1144.34,772.255 1151.25,790.334 1087.66,837.472 1118.97,801.781 1044.56,850.127 1055.14,839.706 1057.98,841.053 1085.64,828.035 1024.46,881.838 1011.3,895.636 1025.46,877.788 1003.95,902.991 911.334,976.663 921.582,960.817 918.445,967.904 876.747,999.629 923.957,946.51 919.606,955.82 984.894,885.266 1016.29,884.867 1116.99,796.166 1110.01,804.888 1128.83,793.417 1143.1,778.7 1209.17,722.539 1172.95,759.52 1224.01,722.094 1130.69,799.312 1138.91,785.491 1135.85,795.057 1272.3,698.44 1273.21,691.6 1262.01,691.489 1214.15,750.609 1149.25,791.129 1106.16,819.274 1080.83,833.27 1047.91,864.781 1059.88,842.819 1049.49,848.915 1132.99,768.254 1122.89,787.83 1196.91,715.025 1321.95,633.03 1376.59,615.236 1292.58,685.578 1399.5,593.604 1353.94,646.598 1215.27,756.384 1195.83,756.193 1206.91,754.338 1147.08,792.172 1053.78,876.902 967.442,951.657 1040.38,851.724 1028.02,864.196 936.802,958.957 918.144,972.019 913.051,971.771 822.996,1067.34 878.772,995.814 877.826,1003.25 831.034,1050.73 870.71,1002.56 889.557,982.223 884.859,984.704 879.972,992.551 892.663,973.82 934.334,943.437 969.224,916.982 985.352,902.177 974.077,920.165 1041.01,861.019 1084.79,830.635 986.881,915.933 1061.68,827.382 1109.93,803.592 1095.21,817.729 1042.6,857.219 1119.44,806.011 1047.99,872.523 979.156,928.212 921.996,973.782 870.997,1015.08 852.246,1029.31 858.407,1020.67 889.336,979.509 969.538,903.251 1046.99,836.268 1064.32,827.694 1024.91,871.12 1052.11,849.897 1089.38,811.408 1109.65,815.393 1191.42,738.388 1227.93,707.062 1131.76,793.894 1114.28,795.594 1076.2,832.602 1128.26,789.672 1131.61,781.989 1199.33,721.445 1145.15,772 1088.84,818.87 1028.83,871.589 1183.67,743.055 1227.07,709.069 1193.46,744.09 1266.88,679.427 1376.77,589.251 1342.81,619.222 1411.68,577.928 1380.84,626.223 1378.63,623.863 1302.34,679.243 1277.48,687.444 1216.52,725.912 1223.12,734.751 1179.93,771.292 1252.75,699.838 1193.25,754.428 1179.19,747.49 1120.07,802.72 1159.97,766.599 1240.84,698.832 1253.9,689.601 1336.57,621.659 1339.58,635.607 1384.6,599.389 1267.98,704.061 1250.73,702.684 1249.39,698.894 1159.55,766.875 1151.98,771.833 1113.45,807.351 1140.54,774.123 1162.76,773.789 1103.59,820.691 1107.41,809.67 1183.86,760.236 1105.63,822.958 1063.54,854.482 1077.82,830.831 1187.06,726.248 1338.93,610.436 1439.73,544.145 1460.54,540.469 1541.97,520.412 1469.26,581.903 1500.27,542.964 1379.8,638.449 1296.98,686.916 1241.77,727.867 1263.48,691.122 1362.18,618.025 1334.39,638.13 1159.2,795.828 1214.34,721.637 1177.14,750.01 1315.91,628.951 1273.2,686.665 1264.61,676.409 1198.35,722.954 1306.33,662.891 1291.37,688.559 1225.56,716.965 1226.92,717.427 1189.22,757.215 1248.02,707.384 1181.46,765.732 1077.64,854.526 1073.03,844.993 1029.29,881.713 1011.76,889.804 1014.14,893.247 955.206,938.843 1046.58,847.86 1030.66,870.229 968.379,932.351 887.238,1003.23 969.156,902.466 1044.53,835.058 1065.37,821.481 1144.35,757.715 1204.26,720.226 1191.41,740.777 1110.25,811.962 1168.47,761.144 1131.86,783.787 1160.45,744.475 1230.69,693.167 1203.2,725.484 1276.46,677.654 1286.08,689.422 1346.18,629.445 1326.68,657.456 1286.07,687.602 1412.71,576.165 1352.45,629.271 1343.94,638.894 1447.49,559.619 1366.92,623.28 1374.54,608.808 1370.68,630.041 1362.43,634.547 1508.31,533.723 1485.07,543.358 1622.43,426.117 1581.89,462.464 1570.48,494.493 1522.8,534.134 1649.89,434.547 1634.7,460.878 1496.25,559.787 1482.36,564.454 1479.98,560.6 1504.47,535.455 1445.54,579.76 1399.54,609.136 1395.99,603.971 1317.03,670.962 1274.3,702.95 1250.4,713.978 1267.43,686.529 1269.57,698.251 1362.75,610.779 1365.23,617.606 1306.54,672.118 1173.3,769.263 1143.7,790.161 1126.74,797.751 1226.84,706.248 1338.6,617.655 1380.32,613.552 1409.51,600.362 1321.32,658.737 1293.94,668.216 1213.02,739.641 1268.01,686.452 1231.92,718.445 1264.34,683.819 1260.62,705.395 1380.91,612.635 1381.88,617.384 1242.39,740.26 1185.33,771.545 1156.44,783.541 1195.55,729.614 1120.56,812.066 1168.95,747.536 1203.84,728.7 1181.39,749.208 1208.99,728.604 1259.68,680.553 1329.35,639.276 1288.65,676.482 1357.38,609.27 1358.41,628.296 1449.75,546.777 1455.71,558.471 1313.8,678.573 1263.27,723.012 1356.62,622.405 1424.74,574.365 1415.89,588.791 1572.56,481.875 1524.78,509.388 1454.41,576.824 1568.98,474.34 1483,545.092 1477.55,553.351 1529.68,522.94 1484.46,556.431 1378.01,633.218 1289.49,704.926 1257.43,713.847 1167.26,783.188 1103.94,829.46 1048.42,871.622 1043.65,868.653 1084.15,819.701 1121.2,785.826 1171.52,747.796 1131.65,797.524 1029.86,894.366 1062.21,848.608 1048.75,854.109 1035.12,866.645 1002.74,893.17 981.855,913.586 918.734,971.15 1007.83,875.333 954.686,925.317 935.299,944.804 914.911,956.904 877.794,991.93 909.485,965.576 857.095,1022.56 896.219,982.928 926.367,946.045 904.598,971.861 858.462,1032.73 837.981,1051.72 818.398,1063.07 845.269,1027 812.817,1061.61 866.057,1002.92 865.717,1002.94 911.187,964.717 912.807,963.009 937.766,943.71 972.486,923.76 994.482,908.967 1014.09,869.269 996.966,892.917 1063.37,843.502 1107.94,794.77 1157.65,757.469 1102.8,819.825 1072.57,850.181 1056.42,871.548 957.937,956.397 915.454,981.939 902.807,984.802 942.303,933.972 884.511,995.374 843.922,1042.13 808.852,1068.63 859.224,1007.29 841.033,1031.34 850.73,1020.88 869.155,1001.87 877.81,993.663 878.984,986.585 833.666,1043.94 886.659,979.017 900.233,968.501 972.455,898.562 990.4,894.008 996.439,884.661 984.189,904.096 1012.01,873.303 1033.44,857.037 995.273,895.656 1108.95,796.308 1150.64,755.882 1173.79,754.312 1130.11,789.626 1079.5,845.597 1059.44,872.476 1047.21,865.816 1006.25,901.736 923.802,977.285 920.95,968.385 950.097,929.419 1041.57,832.407 956.256,930.67 846.579,1043.35 812.339,1076.24 831.794,1052.79 907.684,967.974 963.09,911.297 1040.53,844.589 1127.85,768.714 1111.16,803.008 1212.2,707.84 1212.14,730.502 1248.12,679.249 1313.3,636.672 1273.5,689.12 1209.07,735.665 1139.81,812.9 1166.72,779.2 1094.71,831.722 1132.4,783.07 1263.18,665.114 1282,661.715 1285.76,665.668 1365.99,602.866 1428.47,557.702 1449.65,562.406 1447.98,565.995 1465.36,565.278 1502.99,537.027 1511.63,542.112 1446.42,602.18 1381.59,638.71 1372.52,633.175 1380.89,611.223 1368.46,617.966 1303.39,687.556 1279.79,686.155 1281.2,686.354 1282.28,685.78 1200.37,754.099 1207.63,732.541 1262.78,680.387 1270.03,692.643 1275.6,680.474 1334.24,639.068 1366.34,616.75 1321.24,656.65 1401.75,606.591 1479.1,553.209 1477.38,575.546 1432.2,599.97 1357.75,645.101 1376.73,623.611 1328.04,656.015 1422.69,561.387 1370.46,617.096 1226.15,756.659 1289.17,671.971 1330.91,640.152 1271.49,695.709 1167.03,783.592 1044.67,886.809 1038.65,870.096 993.823,906.95 930.493,965.201 956.525,931.745 1020.59,861.76 1076.05,814.64 1060.17,843.297 978.644,921.025 1002.84,888.926 1032.87,869.485 1019.56,886.986 997.235,899.047 1100.64,797.625 1083.25,827.867 1084.36,823.615 1033.96,881.738 1142.44,772.13 1254.79,693.615 1297.86,680.998 1301.22,689.527 1286.11,699.093 1235.61,719.823 1095.44,827.493 1043.39,873.625 1075.4,829.467 1021.97,882.836 946.893,939.537 942.362,941.456 936.046,940.674 924.391,950.921 984.646,889.057 1005.53,870.712 937.937,952.945 824.126,1060.7 851.776,1021.4 929.944,931.247 988.462,885.628 1078.1,800.561 1104.39,795.436 1066.02,846.903 1029.04,877.973 979.692,919.329 999.871,897.174 1063.6,835.061 1073,826.739 1038.46,852.638 1070.21,842.16 1076.81,835.747 1040.16,877.138 1121.82,796.028 1119.65,807.216 1075.44,832.934 1153.16,761.839 1161.47,764.337 1255.21,687.046 1228.54,717.641 1047.46,860.174 1068.99,837.467 1157.97,774.91 1094.26,833.234 1118.13,801.013 1120.4,808.596 1091.72,824.733 1084.8,835.799 1043.26,858.616 1083.54,829.53 1077.37,854.902 1086.27,828.992 1048.36,855.348 1054.88,847.964 1142.47,783.843 1143.05,778.949 1121.31,800.319 1159.28,758.454 1196.25,766.742 1201.48,749.591 1250.9,689.702 1139.74,786.055 1043.35,866.03 1012.47,886.713 985.414,897.834 1032.83,854.481 1005.84,902.106 1022.26,882.366 970.281,930.548 1015.38,873.927 937.534,943.068 902.745,968.417 903.048,980.716 912.251,975.254 920.874,960.068 856.457,1019.79 879.785,1006.21 893.188,991.9 912.33,972.033 891.541,980.983 920.15,945.373 945.655,921.204 910.982,969.546 904.753,971.474 924.52,957.031 980.732,894.897 968.18,909.623 1025.81,856.821 1082.61,822.742 1172.53,747.196 1089.98,834.32 1071.35,842.862 1125.07,792.875 1094.28,815.854 999.412,910.735 942.176,972.377 970.584,936.888 1038.95,856.915 992.176,891.17 970.292,897.721 1011.28,882.346 1056.08,845.098 1034.05,867.341 1049.52,845.712 1142.15,783.163 1219.52,709.309 1267.18,678.936 1205.09,728.508 1266.45,692.81 1207.66,743.471 1123.39,800.607 1117.03,795.688 1006.46,911.402 1008.6,890.535 1047.01,840.764 1077.14,822.793 1150.98,750.857 1233.1,690.922 1197.02,738.121 1273.94,661.8 1275.34,664.18 1227.98,715.853 1127.98,801.018 1109.5,812.145 1084.85,824.283 1093.43,816.293 1060.92,827.18 1051.85,840.637 1082.8,799.304 1114.37,773.419 1146.84,765.619 1155.42,767.179 1184.75,741.487 1203.1,738.295 1326.27,630.354 1413.98,576.815 1427.73,570.042 1351.7,641.223 1396.17,599.265 1290.72,683.436 1149.81,794.783 1207.25,725.085 1164.03,775.966 1173.7,773.604 1160.29,766.065 1160.66,760.198 1202.37,723.852 1141.06,793.537 1146.94,773.812 1047.1,877.371 1056.27,845.403 1096.37,802.207 1072.73,833.524 1006.37,896.046 1004.12,892.145 889.688,1002.21 913.065,967.787 929.225,948.096 921.062,961.186 926.068,951.154 937.333,934.617 994.908,885.465 977.431,909.577 959.886,932.318 988.656,894.292 970.746,923.759 1075.57,816.156 1127.03,780.804 1119.46,804.91 1047.86,869.498 1076.98,833.902 1109.36,820.186 1061.42,856.693 1127.15,794.357 1070.55,820.963 1097.37,788.681 1132.26,777.43 1312.42,636.073 1211.52,734.215 1231.69,713.894 1161.53,765.019 1110,812.432 1138.38,780.898 1131.07,788.872 1117.9,798.901 1151.84,763.52 1186.1,735.126 1236.28,689.924 1213.88,734.943 1358.92,616.307 1327.06,649.772 1338.83,632.355 1275.57,678.732 1273.13,698.31 1257.76,700.284 1351.46,630.296 1158.52,777.712 1146.78,777.731 1183.19,745.569 1203.73,719.885 1248.6,677.693 1197.51,735.425 1220.71,722.027 1422.42,574.721 1465.4,558.076 1677.76,388.999 1498.64,558.399 1485.16,576.419 1488.36,567.181 1429.44,607.456 1310.36,691.573 1307.52,683.113 1353.72,636.824 1366.25,617.148 1405.74,590.42 1222.7,739.212 1236.86,715.372 1210.15,733.299 1272.59,671.223 1273.01,690.185 1263.56,694.272 1293.16,664.186 1244.4,722.768 1318.6,657.876 1344.48,629.738 1398.15,614.666 1266.83,717.044 1155.24,808.095 1090.62,845.361 1111.32,807.854 1130.88,791.409 1228.63,688.849 1243.99,682.256 1265.41,679.008 1186.64,755.222 1183.85,755.698 1088.5,837.368 1106.68,812.27 1147.38,767.372 1210.22,709.098 1249.82,680.875 1273.85,670.63 1259.94,689.387 1164.3,776.078 1235.48,719.772 1239.87,715.506 1233.24,713.733 1192.28,731.009 1065.06,849.738 998.157,904.531 1010.17,886.825 1003.64,891.757 960.445,933.934 946.8,940.815 861.926,1017.38 931.616,943.422 995.949,880.729 1034.33,853.14 963.516,918.572 960.318,926.723 1016.37,867.233 1025.57,857.043 1019.58,874.668 1025.45,874.815 1108.41,828.569 1235.41,702.697 1226.19,716.899 1084.51,840.21 975.461,927.36 1036.32,850.574 1084.55,812.465 1111.25,790.67 1060.21,852.3 1078.54,837.998 1020.2,881.386 991.476,890.741 971.478,918.545 1026.28,862.28 895.195,990.404 930.993,947.432 926.687,947.501 900.66,977.267 906.525,967.946 910.41,957.153 902.821,970.865 932.673,943.462 913.328,965.585 914.432,959.716 965.034,922.708 1065.77,815.211 1144.88,753.226 1188.11,741.856 1204.74,733.304 1215.36,728.22 1178.23,747.788 1155.1,772.99 1255.29,699.372 1224.57,730.105 1107.73,813.837 1104.91,812.06 1031.63,885.012 992.836,918.282 980.834,924.858 1024.09,870.726 1039.17,858.343 1063.85,841.983 1057.92,842.487 1072.1,819.947 1047.43,856.384 1091.74,816.201 1117.37,780.92 1187.56,719.047 1204.41,715.947 1244.88,682.322 1241.89,715.505 1247.39,707.668 1253.32,700.086 1276.33,671.461 1312.85,664.112 1362.91,615.895 1350.44,649.867 1271.68,716.551 1263.08,705.392 1178.64,772.331 1258.79,690.635 1285.74,681.33 1336.5,631.724 1406.67,597.994 1399.83,606.588 1317.13,666.051 1270.33,701.902 1268.67,697.618 1279.27,684.606 1290.57,673.767 1363.68,610.065 1381.41,614.813 1415.33,590.086 1284.15,693.094 1308.31,669.555 1377.06,591.95 1275.67,686.71 1153.32,795.372 1034.96,890.212 1016.79,892.66 1065.68,835.806 1050.55,860.481 1076,833.895 1141.67,776.383 1159.45,760.846 1118.92,798.6 1096.38,808.866 1133.95,789.487 1138.61,790.876 1209.37,724.74 1146.01,799.697 1148.82,780.348 1037.06,878.932 961.525,944.148 973.477,916.711 1022.87,862.025 1027.57,866.036 1198.45,712.736 1159.1,763.003 1147.88,779.762 1203.4,723.796 1368.63,590.191 1238.88,736.967 1206.45,752.315 1210.76,738.37 1198.54,757.318 1093.17,840.514 1096.84,823.797 1199.41,715.632 1306.32,627.884 1322.39,627.8 1316.15,643.927 1421.44,558.483 1410.96,578.268 1415.8,586.788 1592.18,448.977 1512.16,535.411 1483.62,559.572 1490.39,551.385 1433.48,582.616 1404.77,613.313 1280.73,723.584 1286.69,692.598 1293.37,680.04 1292.96,669.287 1386.78,579.07 1470.15,531.575 1532.84,494.415 1541.56,497.141 1590.92,478.593 1495.16,551.066 1416.61,614.817 1351.76,649.703 1351.6,639.682 1394.53,599.428 1364.98,618.738 1346.37,633.772 1321.66,659.888 1280.48,684.831 1270.06,696.937 1162.92,771.995 1241.8,692.089 1199.08,742.28 1185.65,753.23 1181.84,758.153 1114,815.865 993.476,929.106 969.797,941.18 950.857,946.869 958.47,937.846 951.221,940.03 935.174,955.953 930.916,952.57 930.318,955.025 979.661,892.572 848.016,1032.89 805.851,1070.6 788.331,1086.12 780.421,1094.83 750.886,1125.39 761.343,1104.86 799.034,1060.17 786.618,1084.21 812.892,1054.25 871.467,988.327 915.687,944.648 964.785,897.909 988.826,901.108 1025.54,860.394 1072.38,827.306 1177.98,726.891 1230.3,691.04 1203.12,728.96 1250.07,702.251 1193.03,760.518 1218.39,730.116 1220.24,726.474 1307.99,661.58 1309.83,657.496 1288.76,684.04 1249.12,705.665 1245.23,704.089 1233.7,712.067 1133.33,802.364 1166.33,763.262 1212.58,726.068 1154.38,776.57 1185.67,743.405 1080.11,822.096 1021.35,886.427 1019.32,881.872 1037.78,857.178 1041.07,854.469 1042.99,862.676 1003.45,894.956 938.116,956.141 946.505,937.682 974.254,902.929 940.17,939.037 915.503,976.062 859.989,1021.41 833.521,1044.04 814.699,1060.77 787.653,1088.88 774.711,1101.79 762.425,1109.58 767.77,1110.29 734.342,1138.59 778.317,1087.05 825.622,1044.81 959.339,901.409 958.585,921.304 904.812,985.427 920.768,959.029 974.15,910.615 978.844,906.261 1143.98,743.874 1099.63,804.508 1085.58,819.28 1059.89,849.007 1072.5,836.855 1044.1,866.372 939.839,966.89 1007.52,881.9 1029.98,863.899 1010.92,885.111 1008.08,887.807 980.273,916.029 912.384,979.896 956.149,927.353 884.811,1001.21 779.35,1101.36 822.64,1050.35 895.586,975.123 950.522,924.61 1051.04,827.377 1019.24,889.105 1063.8,837.369 1059.09,845.263 1073.94,829.783 1178.78,741.225 1137.49,784.611 1167.66,759.332 1143.9,779.748 1251.32,710.223 1292.45,672.583 1287.91,677.07 1324.54,642.696 1273.53,702.978 1138.3,803.956 1054.27,879.26 1093.25,822.337 1122.44,786.679 1133.03,793.374 1239.29,691.67 1354.69,599.424 1318.24,652.978 1411.99,574.396 1357.09,639.242 1357.96,645.341 1371.35,640.208 1246.7,727.57 1200.43,752.484 1166.99,770.657 1144.22,789.864 1182.95,744.967 1135.68,795.519 1162.87,762.128 1068.63,848.326 1037.91,862 1044.9,847.844 1085.23,814.323 1214.54,711.356 1344.16,618.176 1499.95,501.188 1568.76,468.464 1343.91,659.875 1344.49,631.676 1388.98,600.619 1405.88,578.579 1296.57,679.636 1340.87,635.5 1279.46,667.61 1363.44,608.728 1237.11,706.326 1313.38,631.907 1360.37,624.617 1279.11,693.69 1310.27,660.496 1236.51,738.508 1138.63,811.704 1135.24,798.468 1095.94,836.39 1112.92,807.219 1088.02,824.519 1144.79,766.254 1135.93,772.67 1162.71,765.994 1115.89,806.67 1196.02,724.158 1227.52,714.018 1338.16,618.693 1414.85,576.924 1397.94,592.994 1392.17,590.086 1427.1,575.322 1343.34,652.176 1321.23,653.695 1360.9,624.837 1373.94,609.191 1303.83,673.198 1315.63,650.301 1140.91,782.897 1098.7,822.234 1060.25,846.968 1036.7,857.88 1080.68,824.007 1041.23,856.081 1091.07,808.74 1005.56,885.612 1072.71,815.998 1204.5,716.918 1179.13,754.143 1256.15,689.842 1243.9,706.045 1340.75,632.975 1295.98,669.552 1272.8,709.302 1332.32,654.746 1294.76,702.308 1200.24,773 1191.8,755.847 1194.61,751.884 1252.12,698.995 1184.94,769.978 1141.59,805.094 1215.72,724.223 1235.78,711.066 1165.81,783.7 1179.77,756.579 1185.54,756.596 1231.88,714.732 1400.45,598.519 1332.73,665.378 1336.96,656.694 1474.13,523.437 1508.37,526.129 1550.55,504.715 1511.68,542.876 1514.66,532.224 1465.88,573.169 1440.96,590.708 1361.96,644.508 1356.65,629.982 1276.47,702.789 1360.94,617.906 1308.04,664.701 1335.26,634.097 1305.35,669.985 1250.95,717.712 1126.05,815.765 1073.87,857.602 1102.47,814.684 1097.17,826.817 1142.81,752.289 1217.42,700.159 1272.12,665.507 1308.97,649.473 1238.43,721.005 1261.08,689.733 1280.37,667.704 1350.39,611.047 1294.34,672.217 1165.34,781.019 1139.49,784.371 1196.85,736.795 1208.43,737.684 1270.59,685.352 1227.61,721.971 1184.52,734.203 1199.54,729.879 1196.84,739.451 1269.48,688.783 1216.59,737.701 1197.6,759.53 1136.87,793.537 1105.96,814.872 1052.58,851.848 1092.23,801.907 1106.81,796.482 1062.23,845.318 1062.92,834.295 1128.58,771.361 1123.06,790.843 1127.37,792.181 1132.58,782.792 1179.74,742.08 1178.52,745.726 1162.49,758.799 1093.27,834.287 1070.52,836.901 1102.05,799.044 1051.71,845.923 1072.04,827.121 1126.91,775.6 1212.75,697.54 1314.31,629.28 1295.66,662.908 1291.03,671.636 1227.54,727.534 1160.51,776.463 1202.03,746.238 1170.04,774.86 1184.68,737.355 1202.42,731.592 1232.03,701.481 1345.11,614.78 1332.8,636.875 1282.07,686.741 1356.03,634.539 1440.62,559.462 1513.42,520.509 1585.34,474.854 1638.45,459.359 1635.44,476.415 1563.66,522.535 1586.23,489.897 1549.51,522.576 1442.16,596.455 1383.58,637.78 1363.95,634.878 1246.15,737.763 1203.45,762.901 1246.36,706.914 1175.22,770.471 1151,776.834 1139.94,785.239 1185.62,736.527 1253.35,679.127 1289.93,650.52 1245.63,703.451 1287.39,664.946 1407.3,566.099 1397.34,587.775 1361.65,633.555 1257.68,726.052 1228.54,730.001 1265.04,682.546 1380.81,585.942 1426.32,558.134 1404.11,593.051 1303.78,678.285 1335.32,641.953 1385.07,605.581 1364.25,615.561 1302.11,675.894 1231.23,719.464 1243.76,704.907 1202.92,746.403 1226.17,717.708 1206.56,727.307 1179.87,755.317 1177.54,765.08 1258.01,682.324 1096,764.599 1051.9,834.833 1064.7,823.866 1101.51,812.626 1021.18,897.058 1003.58,892.75 969.548,926.726 967.073,921.47 974.973,911.583 1066.95,815.691 1154.03,742.219 1182.99,727.05 1159.76,762.304 1174.84,746.693 1158.36,774.831 1089.08,834.214 997.481,917.874 1039.8,854.721 1014.72,889.018 1033.11,862.99 1072.34,831.953 1097.92,791.358 1155.45,772.547 1170.18,753.775 1204.54,727.921 1271.78,666.168 1209.38,736.393 1183.31,756.636 1112.93,804.17 1112.29,806.846 1063.83,858.161 1020.01,898.61 1041.46,857.903 966.466,930.827 937.246,953.62 908.373,981.047 903.418,977.688 978.924,890.234 968.463,911.282 981.548,900.626 1019.5,870.778 1002.68,889.967 1053.26,850.449 1017.62,882.9 1064.93,833.453 996.127,900.524 1072.76,830.695 1049.68,855.484 1045.5,862.586 1019.53,888.081 1033.02,875.908 1179.74,731.174 1010.33,870.795 1068.11,838.987 1048.95,856.994 1147.51,749.229 1169.14,742.736 1147.31,775.517 1110.38,809.303 1146.45,772.779 1249.85,695.94 1313.33,651.71 1345.78,618.717 1349.79,631.382 1276.06,690.184 1260.87,699.61 1283.91,672.752 1150.21,781.273 1050.59,865.751 988.182,920.406 963.612,927.614 892.221,994.598 895.17,981.585 961.303,912.65 1040.57,848.19 1003.95,898.382 1039.87,854.163 1074.37,824.68 1066.33,850.024 973.011,940.95 976.57,920.992 995.578,888.514 915.944,959.35 879.808,1004.99 919.635,954.594 1033.72,839.951 1047.02,845.95 1068.2,837.799 1018.17,894.598 935.274,968.546 921.798,970.686 903.104,975.861 989.392,882.348 1124.21,761.474 1178.35,733.538 1190.45,737.019 1117.85,808.589 1130.86,791.689 1116.07,808.953 1110.72,815.411 1029.84,886.638 1025.98,875.497 1029.57,862.889 1088.87,833.351 1052.74,856.507 1090.41,813.433 1028.06,872.898 1038.08,869.353 990.333,892.828 1004.78,888.24 1056.63,841.35 1119.52,789.166 1096.95,808.867 1116.11,805.52 1137.24,762.841 1077.18,832.27 1099.16,816.667 1124.48,791.964 1097.53,825.397 1027.34,882.625 960.688,929.78 970.787,914.683 1038.1,851.387 1152.73,746.415 1086.03,815.861 1040.6,843.509 1055.2,841.455 1033.29,860.901 1073.38,824.596 1090.75,822.962 1052.58,861.352 1078.46,852.452 1103.73,808.807 1050.65,851.662 1057.58,834.432 1156.57,756.833 1195.39,747.476 1278.09,685.692 1317.4,646.618 1500.47,498.759 1608.4,438.98 1573.33,502.722 1497.85,558.527 1367.42,655.757 1246.1,750.63 1266.07,707.012 1279.4,684.425 1177.92,778.675 1126.67,814.719 1108.55,821.921 1075.75,846.336 1143.02,772.563 1231.57,691.383 1270.85,659.118 1303.87,644.811 1252.98,700.265 1203.26,751.174 1151.95,795.617 1095.54,841.435 1112.62,812.4 1112.16,804.26 1177.78,739.553 1205.5,723.035 1281.69,657.349 1271.18,689.886 1247.31,709.736 1212.22,726.817 1192.19,741.253 1207.73,723.656 1129.38,794.19 1187.29,738.602 1195.06,739.597 1105.95,819.264 1147.42,774.584 1162.45,741.389 1098.53,797.579 1174.39,740.123 1137.93,796.035 1172.45,777.32 1162.2,756.765 1170.73,743.008 1282.98,670.178 1363.52,602.106 1256.72,712.106 1408.66,589.42 1402.1,603.33 1407.6,601.198 1366.14,630.689 1319.97,660.631 1343.67,640.857 1278.41,696.857 1203.97,760.324 1096.39,842.25 1089.67,838.843 1101.59,814.436 1035.13,874.58 1052.02,854.486 1085.24,819.475 1067.96,837.383 1005.34,891.361 1080.72,821.49 1089.29,830.59 1097.68,812.777 1098.65,803.487 1210.32,720.531 1223.65,714.469 1259.5,685.996 1260.13,690.051 1348.58,640.592 1312.07,665.428 1454.83,546.068 1321.78,656.336 1253.51,709.987 1220.78,719.401 1261.25,695.617 1414.83,559.212 1495.63,523.68 1464.37,562.56 1465.28,556.595 1406.65,601.253 1357.12,646.295 1317.77,662.916 1227.9,727.11 1183.63,761.544 1088.34,841.073 1125.87,791.458 1144.76,776.491 1090.56,816.912 1079.73,833.909 1048.48,856.441 1093.27,807.073 1121.88,787.068 1159.17,753.947 1160.91,758.743 1165.61,758.614 1080.38,820.212 1078.7,822.423 1083.27,818.127 1013.75,879.317 999.846,882.57 932.746,949.483 865.449,1010.51 890.486,993.764 905.381,973.822 921.473,982.456 897.121,1002.37 1013.94,882.298 1053.02,833.786 1082.95,811.417 1147.22,764.798 1212.38,709.87 1316.91,618.502 1314.48,662.733 1309.33,654.592 1290.57,671.596 1316.58,649.057 1436.64,547.283 1496.67,528.96 1462.24,566.265 1382.1,626.712 1355.3,647.116 1354.56,637.818 1196.73,759.269 1220.84,728.452 1219.48,720.207 1220.93,723.906 1214.56,718.916 1244.75,701.16 1251.66,693.071 1220.46,722.092 1196.31,743.743 1105.7,818.857 1034.51,878.727 1012.22,894.606 985.964,920.518 1040.26,865.454 972.718,913.194 1022.75,863.092 1030.92,853.475 1040.15,834.368 1041.7,845.592 1046.7,849.863 1042.74,867.995 980.09,929.981 952.754,960.138 917.802,989.157 972.548,922.637 1044.72,860.169 1191.09,740.074 1284.16,670.685 1239.5,727.37 1277.1,692.718 1299.91,668.224 1354.75,618.223 1225.54,728.727 1294.98,667.533 1314.9,647.637 1299.39,659.434 1318.96,664.6 1437.4,574.509 1464.1,590.742 1519.17,515.857 1351.83,665.315 1334.86,646.824 1276.52,691.511 1305.16,662.913 1392.74,575.795 1270.4,704.975 1188.76,751.639 1173.2,766.472 1148.12,788.777 1132.76,794.354 1171,746.142 1218.5,704.986 1105.94,815.519 1182.93,748.508 1108.19,816.619 1051.65,865.338 1023.42,878.326 1031.19,874.735 969.229,934.175 975.697,916.403 909.353,980.048 899.393,986.836 978.749,893.825 955.551,925.675 957.364,926.274 1030.11,865.78 1019.79,880.466 1083.89,817.928 1109.88,781.379 1234.97,677.206 1305.9,642 1270.28,690.645 1356.28,614.387 1351.42,627.083 1351.01,640.072 1321.75,658.329 1261.26,722.218 1287.72,679.699 1274.11,671.775 1398.02,583.838 1343.61,640.371 1244.35,708.593 1278.38,677.968 1250.41,712.103 1258.24,713.931 1256.79,705.535 1300.72,676.691 1316.15,663.394 1171.94,766.543 1086.64,854.06 1154.33,770.436 1101.75,823.13 1077.67,832.207 1174.78,738.11 1207.04,721.54 1113.5,800.543 1059.57,863.693 998.264,912.978 942.027,963.663 874.781,1017.05 811.997,1082.26 837.861,1040.56 830.722,1046.95 792.522,1087.81 748.854,1134.64 731.107,1149.17 728.792,1150.27 700.152,1178.9 712.061,1157.3 702.789,1166.98 721.59,1149.07 723.32,1146.9 712.284,1164.72 737.305,1133.42 824.243,1031.94 828.72,1033.57 854.372,1015.9 874.721,992.845 882.126,986.206 890.712,978.564 934.206,938.366 991.781,878.612 937.108,945.829 898.58,992.076 963.91,917.848 1007.56,884.472 1018.91,871.239 1001.06,888.472 971.397,920.707 907.568,980.327 1005.33,873.655 997.641,885.423 1051.72,838.101 1064.98,828.288 1176.6,746.723 1172.87,759.773 1113.23,813.403 1137.18,789.321 1059.04,853.44 1082.49,829.749 1076,857.248 1089.69,825.508 1074.66,837.76 1100.37,800.03 999.395,894.443 956.73,914.638 964.651,917.496 1002.73,902.136 1059.55,842.714 1094.05,813.419 1186.23,749.227 1257.15,681.055 1255.15,687.983 1186.01,744.451 1115.71,809.678 1119.59,786.651 1073.36,841.076 1101.93,816.796 1123.26,794.754 1103.63,801.071 1149.29,769.919 1246.55,714.114 1212.65,736.114 1408.13,578.1 1434.22,571.072 1314.82,647.72 1236.23,708.329 1099.14,832.147 978.517,940.473 1008.24,891.928 1026.84,868.65 943.847,942.95 923.9,958.034 838.807,1060.57 864.972,1017.84 818.945,1052.18 806.055,1070.15 848.936,1020.65 933.352,937.149 972.793,907.57 953.23,936.828 924.261,966.74 888.702,996.467 966.687,900.674 912.265,956.4 874.586,1000.52 911.23,967.025 945.241,934.521 948.014,940.984 1009.56,886.494 979.003,907.166 1026.82,870.754 1082.75,811.752 1057.39,843.159 1023.01,878.366 938.542,973.196 884.512,1006.67 855.579,1030.46 909.031,967.714 942.615,939.448 1034.17,832.368 1051.38,834.747 1144.49,743.576 1177.45,744.402 1154.04,765.681 1162.13,769.155 1242.27,693.977 1232.06,703.658 1120.06,808.706 1013.59,905.464 938.274,963.368 942.472,950.199 948.349,936.474 980.26,901.483 964.017,925.544 979.87,908.89 1013.84,873.228 950.198,947.1 920.979,978.213 947.926,954.048 813.321,1085.62 818.348,1067.51 839.424,1035.37 860.199,1013.27 890.743,988.401 918.912,954.367 870.973,1003.38 868.609,1001.62 875.17,994.875 872.47,1002.91 969.031,902.254 993.414,889.386 1014.22,884.265 1044.74,859.827 1002.31,888.538 1051.13,845.908 1065.98,825.519 1108.71,825.024 1169.14,753.325 1151.63,772.331 1093.54,830.331 1073.1,826.34 1080.5,814.738 1163.48,749.613 1152.39,771.106 1079.29,843.565 1048.55,859.15 1008.66,899.901 1054.42,839.882 1031.61,860.088 1076.31,818.535 1055.83,844.164 1002.1,897.146 979.914,912.63 955.682,933.945 975.605,908.241 1006.4,872.477 1035.25,850.703 980.773,902.082 1057.59,836.791 1007.45,891.732 1076.29,807.349 1029.96,869.335 982.046,922.712 973.477,925.645 918.559,967.534 884.47,1007.84 884.027,1002.82 929.751,946.569 932.86,953.146 932.685,941.597 921.689,951.051 920.226,954.287 891.052,980.41 904.005,971.31 882.347,998.96 867.048,1018.7 955.52,919.997 1003.41,889.242 1076.1,813.548 1004.11,886.205 992.626,896.243 999.104,900.93 1168.43,746.67 1218.22,707.327 1254.93,679.396 1298.03,655.386 1235.83,716.887 1267.86,691.275 1277.62,670.636 1296.44,667.102 1284.86,662 1343.07,599.3 1353.59,576.472 1267.25,671.866 1211.01,706.571 1305.31,647.888 1234.78,688.856 1313.24,654.155 1495.04,510.385 1444.81,563.193 1600.44,448.473 1498.27,524.577 1572.23,473.946 1767.87,355.68 1720.77,399.899 1606.3,490.399 1516.67,559.203 1465.35,580.95 1548.74,499.826 1488.73,562.615 1391.06,630.187 1297.94,695.485 1201.33,772.802 1157.45,797.475 1147.71,789.82 1139.81,784.491 1137.55,777.85 1227.68,689.331 1167.25,755.452 1164.67,758.956 1159.38,770.551 1055.23,864.688 1040.21,876.223 1117.36,786.937 1127.89,787.182 1104.11,810.084 1089.02,816.55 1150.72,761.785 1094.57,822.28 1153.84,755.066 1171.64,750.158 1198.43,723.22 1143.4,780.025 1013.72,909.991 1058.84,839.829 1107.58,789.862 1052.79,845.545 1015.65,879.433 1137.36,762.924 1164.39,750.641 1146.62,767.478 1208.06,714.645 1267.54,679.254 1336.96,630.458 1238.86,723.441 1268.83,670.475 1204.74,744.177 1262.51,712.162 1256.38,702.773 1241.15,706.012 1185.57,748.563 1156.37,786.932 1128.09,811.556 1105.69,812.556 1171.83,752.52 1135.74,773.81 1022.35,890.736 1048.73,847.823 1076.58,821.504 1159.33,737.838 1314.42,613.046 1378.76,586.173 1438.03,545.084 1382.06,600.531 1385.92,616.177 1341.55,634.933 1355.97,618.858 1320.95,656.61 1302.43,661.4 1320.68,648.746 1261.33,713.047 1142.59,801.896 1162.92,771.523 1222.66,714.247 1282.83,661.568 1398.22,576.865 1405,579.159 1310.66,679.218 1280.47,692.652 1351,613.584 1285.7,685.447 1260.68,713.198 1245.35,715.726 1231.33,725.324 1162.66,770.993 1129.85,796.994 1107.26,805.367 1080.13,838.564 1080.09,838.836 1054.86,850.227 1084,813.517 1186.46,727.159 1159.87,762.931 1227.65,698.723 1319.36,637.89 1257.82,703.298 1285.87,682.836 1330.74,634.415 1251.81,697.697 1307.78,654.384 1346.54,638.993 1321.71,678.867 1223.32,747.538 1166.69,775.765 1184.62,747.949 1153.86,770.99 1210.59,715.952 1141.24,775.421 1090.63,837.293 1153.78,767.698 1158.62,760.113 1202.39,726.342 1186.48,719.556 1097.96,784.817 1103.92,775.305 1122.25,781.587 1156.52,758.032 1198.24,727.81 1325.26,631.724 1282.18,665.7 1418.26,559.351 1364.91,631.017 1292.51,684.543 1241.91,732.018 1226.49,729.158 1141.18,810.289 1162.15,766.592 1222.99,708.216 1261.28,666.142 1228.97,702.206 1297.25,664.964 1279.94,676.201 1416.09,564.478 1391.01,602.878 1374.26,621.741 1439.57,578.181 1464.23,568.434 1404,603.014 1439.85,572.385 1374.86,631.607 1302.69,690.276 1344.8,636.529 1249.22,715.365 1297.95,669.279 1388.16,588.686 1288.03,691.763 1157.29,789.2 1114.57,822.849 1087.92,831.587 990.32,926.222 977.276,925.416 908.267,990.737 871.604,1018.88 894.369,985.782 875.39,1007.55 857.407,1026.82 873.297,1003.58 893.469,982.001 952.298,920.787 963.578,904.949 962.549,920.526 999.634,884.365 967.882,914.236 930.832,956.057 1000.97,882.12 1000.63,882.545 982.568,905.114 1017.44,872.154 989.889,897.276 1107.64,794.95 1119.27,783.688 1154.43,759.05 1059.21,854.326 1029.64,853.621 1046.6,845.608 1005.77,901.087 882.571,1013.3 855.179,1032.21 896.28,976.622 971.469,903.703 1015.01,859.801 1033.83,853.754 1020.64,877.293 1024.98,880.745 1058.94,845.346 1217.94,696.623 1248.71,700.24 1208.11,736.541 1268.93,688.1 1216.59,735.74 1183.43,764.653 1181.59,760.637 1105.7,808.953 1080.2,834.535 1060.88,842.527 1059.55,839.325 1039.57,862.491 1066.88,832.024 1109.1,809.147 1137,782.081 1115.52,804.141 1091,822.941 1196.62,730.008 1189.49,749.47 1189.3,749.467 1177.55,748.522 1139.37,786.538 1113.81,823.892 1134.79,784.139 1241.03,686.702 1202.14,729.473 1164.91,768.26 1132.64,798.746 1134.77,779.935 1165.34,770.146 1083.61,832.219 1079.68,833.657 1033.46,874.61 1051.65,845.928 1119.09,779.507 1107.71,799.491 1083.46,816.582 1131.04,765.867 1131.67,784.633 1164.01,767.617 1173.5,763.476 1123.76,807.38 1174.71,752.248 1291.11,685.957 1168.03,787.537 1120.62,813.549 1092.27,822.42 1038.91,861.216 996.25,898.41 1053.25,859.154 1074.86,837.198 1141.79,769.78 1139.4,770.75 1169.74,771.86 1101.82,827.229 1117.13,798.643 1136.35,785.97 1148.49,771.487 1002.62,920.807 1070.9,854.939 1188.01,741.794 1235.92,715.842 1205.98,733.87 1299.37,639.539 1297.2,643.443 1225.73,704.923 1243.71,696.873 1268.55,668.913 1035.62,838.567 1080.79,810.164 1203.69,729.531 1117.87,808.703 1007.98,902.77 1085.11,816.262 1082.34,824.166 1126.6,772.488 1174.2,742.253 1174.48,752.733 1146.9,783.28 1191.09,740.179 1391.43,579.028 1445.62,549.231 1388.61,617.391 1455.23,557.633 1332.76,673.848 1248.38,726.659 1265.14,701.352 1280.26,683.246 1197.07,753.058 1134.68,798.766 1103.11,824.784 1073.61,844.754 1084.5,821.658 1186.04,719.269 1159.48,757.509 1217.54,709.159 1267.21,671.988 1227.73,717.202 1230.15,717.348 1163.05,753.92 1162.48,767.708 1124.75,796.863 1115.99,796.214 1146.1,774.053 1121.92,789.255 1201.12,730.613 1241.54,696.79 1239.48,698.36 1264.58,668.234 1245.22,680.727 1129.02,778.841 1119.83,804.657 1121.71,793.486 1166.98,745.584 1303.17,654.953 1321.18,644.657 1343.56,642.195 1378.2,608.732 1435.06,576.37 1434.1,563.722 1388.24,617.418 1347.33,654.74 1381.98,617.809 1307.19,667.715 1337.09,641.353 1283.88,707.664 1321.87,665.635 1290.47,693.998 1264.72,703.014 1203.66,754.662 1122.35,808.367 1047.21,869.343 1012.22,891.488 959.146,927.706 957.011,924.473 946.945,939.006 850.752,1044.81 827.642,1057.84 839.994,1034.64 835.262,1042.26 858.373,1013.18 922.222,942.091 1049.48,821.393 1181.8,706.35 1276.88,647.36 1308.97,640.787 1362.72,594.277 1339.99,628.049 1277.96,680.005 1208.5,738.627 1285.51,677.529 1253.48,692.667 1319.32,646.891 1382.56,615.709 1252.42,727.47 1234.38,712.187 1237.08,710.532 1111.54,827.175 1073.27,853.976 1022.69,891.17 1025.99,873.988 1047.62,853.563 1025.17,864.366 966.202,924.41 923.81,969.519 900.095,990.548 914.191,974.249 975.308,916.198 1004.06,888.86 1055.61,838.02 1037.12,864.756 1002.48,890.469 976.198,920.635 1119.35,792.758 1168.38,744.721 1371.73,578.653 1369.55,609.163 1363.89,620.768 1386.56,601.525 1413.9,593.022 1469.38,556.792 1394.01,606.133 1496.13,517.105 1556.87,479.261 1497.02,550.023 1354.81,657.317 1254.66,732.304 1215.09,748.469 1246.17,703.698 1271.54,675.746 1277.08,673.802 1207.47,744.675 1109.17,822.157 1089,833.286 1091.19,823.307 1111.63,802.883 1068.5,839.528 1122.25,789.76 1206.24,729.754 1188.59,755.98 1259.03,685.173 1329.23,636.219 1347.72,625.764 1415.22,579.469 1361.58,638.113 1356.17,636.913 1263.57,709.115 1236.33,721.808 1358.35,613.863 1316.18,659.763 1363.62,627.679 1246.19,712.346 1361.27,617.504 1248.33,716.639 1269.65,685.005 1132.93,806.384 1167.43,759.435 1164.11,763.458 1192.52,754.239 1129.58,802.177 1213.63,720.316 1156.83,772.84 1245.29,684.256 1217.33,725.32 1201.22,756.248 1259.59,717.126 1165.54,783 1079.88,843.048 1120.25,787.767 1165.52,751.151 1240.08,685.122 1209.35,706.54 1248.84,688.06 1265.59,680.746 1315.02,656.922 1244.83,720.211 1338.94,637.208 1299.37,676.099 1377.91,622.212 1402.47,578.171 1287.64,680.928 1239.97,713.639 1236.98,705.269 1258.96,687.437 1169.94,768.443 1147.47,785.743 1034.26,871.29 1044.01,858.636 1060.68,846.643 1159.05,746.789 1136.81,777.528 1153.31,771.529 1117.05,798.687 1072.26,829.335 1083.31,825.097 1108.44,801.923 1057.97,834.466 1089.57,834.965 1143.68,770.312 1067.85,821.191 1031.18,857.869 1124.59,786.606 1171.98,740.172 1181.91,758.288 1231.57,721.287 1211.66,737.686 1255.88,677.323 1128.26,772.703 1206.24,726.163 1131.78,793.614 1141.36,780.8 1075.11,817.867 1118.2,781.964 1179.1,752.174 1204,735.471 1192.58,753.241 1221.67,730.164 1056.34,859.932 1068.9,842.577 1114.97,788.352 1119.96,797.514 1131.96,787.091 1124.24,791.209 1102.95,805.568 1085.54,820.385 1048.4,852.998 1107.45,814.386 1136.27,781.943 1256.37,677.979 1341.49,612.59 1372.22,585.058 1407.56,583.423 1402.42,591.302 1400.05,591.666 1464.52,544.832 1391.94,618.119 1353.02,643.873 1236.1,742.963 1246.03,714.482 1305.28,651.601 1289.53,661.802 1312.53,659.51 1211.88,738.783 1228.79,734.794 1225.35,721.254 1174.64,760.894 1230.95,711.743 1254.56,679.198 1198.38,736.699 1225.18,709.411 1145.6,793.382 1132.06,812.409 1049.1,868.282 1051.43,857.12 1127.86,778.12 1086.02,821.217 1056.1,844.178 1041.33,876.395 1052,861.593 965.249,929.014 974.314,913.438 1007.59,889.108 1049.33,854.251 1056.87,840.324 1195.34,726.348 1304.37,639.33 1345.35,627.093 1294.83,676.699 1130.72,824.625 1150.83,788.62 1164.89,767.652 1234.76,708.829 1339.8,620.026 1315.44,653.636 1284.71,675.635 1311.92,660.569 1413.79,573.817 1392.16,588.745 1293.82,669.48 1237.94,719.992 1371.93,627.025 1383.06,607.115 1407.76,599.964 1313.17,667.275 1365.59,632.982 1290.63,702.274 1222.68,734.853 1110.24,831.689 1189.73,732.201 1157.14,768.597 1181.61,747.779 1116.96,801.931 1038.45,877.933 1001.24,897.385 971.528,926.972 1013.59,879.1 945.459,936.111 1044.26,835.149 1056.67,834.868 1079.03,818.955 1079.02,831.123 1064.46,841.783 1110.72,790.929 1225.85,711.111 1208.06,728.895 1222.61,732.462 1229.23,716.401 1240.39,710.887 1339.85,621.963 1238.87,711.798 1179.52,755.05 1121.63,813.282 1155.63,781.169 1119.06,798.291 1092.42,817.874 1035.78,874.205 972.197,939.163 966.008,928.691 923.119,973.949 923.686,958.726 929.358,951.837 950.99,922.716 972.688,910.609 959.453,932.248 1006.05,887.178 942.413,947.225 802.008,1081.53 759.811,1123.23 830.217,1041.12 862.744,1017.23 851.025,1025.18 858.867,1013.25 849.811,1023.01 876.914,990.684 937.372,929.418 981.094,885.845 942.26,935.73 947.957,927.104 903.173,972 925.934,944.866 932.743,945.105 985.126,905.317 948.705,936.81 953.057,922.218 920.028,946.085 905.389,972.335 967.007,904.834 990.565,889.678 1045.86,842.22 1025.09,866.827 1035.05,862.584 1045.32,860.366 1025.77,880.489 993.665,901.952 1038.77,872.503 1055.39,844.544 1117.34,799.798 1145.62,771.332 1050.44,864.299 1108.09,800.595 1125.92,785.882 1205.12,725.389 1198.27,759.389 1144.22,804.981 1201.4,749.952 1161.32,756.829 1244.38,697.121 1125.93,799.064 1010.53,892.514 1007.83,883.365 1010.67,886.372 1070.16,833.878 1094.34,808.209 1157.73,750.203 1261.09,684.105 1217.13,727.674 1229.89,712.652 1283.7,672.059 1165.38,790.653 1176.55,771.619 1202.93,737.785 1230.03,720.599 1204.04,742.443 1118.42,815.007 1131.44,794.933 1112.44,807.454 1062.26,837.513 1047.19,857.103 1032.3,861.184 1044.47,847.383 1084.66,831.222 1026.38,877.533 1018.39,867.827 1097.49,806.388 1111.31,813.942 1065.18,834.27 1065.08,837.161 1162.61,764.988 1265.61,683.616 1204.72,739.306 1090.7,837.929 1157.03,763.499 1285.91,650.739 1326.39,632.297 1369.32,604.242 1423.47,568.705 1539.26,480.312 1626.81,434.426 1657.19,433.533 1608.83,486.388 1560.68,521.569 1582.15,489.234 1561.07,509.586 1502.42,543.73 1468.15,571.319 1520.58,530.176 1575.87,488.756 1518.1,532.826 1490.95,557.822 1540.25,501.611 1515.97,519.676 1486.55,530.616 1505.78,521.66 1437.7,585.855 1426.63,589.494 1413.6,601.465 1450.18,564.114 1328.22,660.958 1310.82,663.588 1216.5,753.277 1181.1,777.556 1161.66,776.21 1157.34,771.333 1138.15,781.417 1074.01,843.491 1117.8,797.937 1116.08,795.964 1080.87,837.145 1059,869.317 1098.23,821.199 1136.51,772.968 1152.47,748.701 1169.42,756.909 1159.74,765.591 1111.13,791.915 1118.98,789.329 1085.61,808.244 1125.46,772.368 1083.44,820.407 1051.15,844.155 1115.27,806.145 1116.56,803.853 1230.85,711.519 1324.39,628.73 1356.08,637.537 1405.32,596.023 1372.69,642.925 1308.2,686.471 1212.72,756.42 1302.17,651.543 1437.45,544.507 1454.98,546.732 1405.3,600.432 1300.11,681.804 1367.63,611.791 1384.47,589.745 1371.19,612.214 1387.51,599.744 1403.6,584.97 1357.4,609.916 1278.15,678.568 1466.55,530.182 1470.77,544.319 1603.08,456.905 1668.27,422.627 1711.96,426.19 1711.85,430.078 1719.56,418.691 1675.47,440.547 1530.87,555.762 1586.22,487.721 1694.22,385.186 1583.85,489.756 1589.86,482.201 1607.87,469.933 1547.56,511.089 1563.21,497.789 1562.16,508.478 1575.07,485.055 1559.35,503.349 1510.6,541.731 1464.3,576.066 1345.14,666.393 1412.42,588.632 1477.59,528.753 1440.96,571.183 1438.26,569.357 1500.01,514.443 1586.6,452.32 1555.08,499.99 1495.57,548.945 1504.23,530.985 1450.54,567.193 1364.93,650.281 1300.9,691.933 1327.64,648.645 1402.96,580.807 1344.52,647.205 1368.57,625.448 1406.95,584.268 1327.07,660.159 1328.46,661.449 1324.38,658.053 1197.74,763.179 1099.97,842.941 1086.46,850.025 985.308,932.89 1003.92,900.205 992.409,904.688 1017.57,871.745 935.248,956.82 848.891,1043.32 837.196,1047.96 804.551,1078.19 799.285,1082.24 826.381,1042.72 846.088,1026.23 921.446,939.362 941.699,935.078 980.067,899.173 972.119,913.851 996.61,903.982 967.358,930.574 1013.56,874.89 1026.09,853.83 1063.37,835.935 1100.56,802.749 1022.69,876.426 1043.51,850.662 991.189,901.402 1001.89,882.537 1115.08,792.828 1074.16,830.82 1138.11,773.061 1101.96,803.359 1136.68,771.98 1245.68,685.748 1343.05,602.132 "/>
<path clip-path="url(#clip450)" d="M186.863 198.898 L550.897 198.898 L550.897 95.2176 L186.863 95.2176  Z" fill="#ffffff" fill-rule="evenodd" fill-opacity="1"/>
<polyline clip-path="url(#clip450)" style="stroke:#000000; stroke-linecap:round; stroke-linejoin:round; stroke-width:4; stroke-opacity:1; fill:none" points="186.863,198.898 550.897,198.898 550.897,95.2176 186.863,95.2176 186.863,198.898 "/>
<polyline clip-path="url(#clip450)" style="stroke:#009af9; stroke-linecap:round; stroke-linejoin:round; stroke-width:4; stroke-opacity:1; fill:none" points="211.758,147.058 361.13,147.058 "/>
<path clip-path="url(#clip450)" d="M396.651 128.366 Q393.549 133.69 392.044 138.898 Q390.54 144.106 390.54 149.453 Q390.54 154.801 392.044 160.055 Q393.572 165.287 396.651 170.588 L392.947 170.588 Q389.475 165.148 387.739 159.893 Q386.026 154.639 386.026 149.453 Q386.026 144.291 387.739 139.06 Q389.452 133.828 392.947 128.366 L396.651 128.366 Z" fill="#000000" fill-rule="nonzero" fill-opacity="1" /><path clip-path="url(#clip450)" d="M403.063 138.412 L423.294 138.412 L423.294 142.301 L407.276 160.935 L423.294 160.935 L423.294 164.338 L402.484 164.338 L402.484 160.449 L418.502 141.815 L403.063 141.815 L403.063 138.412 Z" fill="#000000" fill-rule="nonzero" fill-opacity="1" /><path clip-path="url(#clip450)" d="M430.887 158.458 L435.771 158.458 L435.771 162.439 L431.975 169.847 L428.988 169.847 L430.887 162.439 L430.887 158.458 Z" fill="#000000" fill-rule="nonzero" fill-opacity="1" /><path clip-path="url(#clip450)" d="M455.655 166.745 Q453.849 171.375 452.136 172.787 Q450.423 174.199 447.553 174.199 L444.15 174.199 L444.15 170.634 L446.65 170.634 Q448.41 170.634 449.382 169.8 Q450.354 168.967 451.535 165.865 L452.298 163.921 L441.812 138.412 L446.326 138.412 L454.428 158.689 L462.53 138.412 L467.044 138.412 L455.655 166.745 Z" fill="#000000" fill-rule="nonzero" fill-opacity="1" /><path clip-path="url(#clip450)" d="M474.011 158.458 L478.896 158.458 L478.896 162.439 L475.099 169.847 L472.113 169.847 L474.011 162.439 L474.011 158.458 Z" fill="#000000" fill-rule="nonzero" fill-opacity="1" /><path clip-path="url(#clip450)" d="M509.544 138.412 L500.169 151.027 L510.03 164.338 L505.007 164.338 L497.46 154.152 L489.914 164.338 L484.891 164.338 L494.96 150.773 L485.747 138.412 L490.77 138.412 L497.645 147.648 L504.52 138.412 L509.544 138.412 Z" fill="#000000" fill-rule="nonzero" fill-opacity="1" /><path clip-path="url(#clip450)" d="M515.377 128.366 L519.081 128.366 Q522.553 133.828 524.266 139.06 Q526.002 144.291 526.002 149.453 Q526.002 154.639 524.266 159.893 Q522.553 165.148 519.081 170.588 L515.377 170.588 Q518.456 165.287 519.96 160.055 Q521.488 154.801 521.488 149.453 Q521.488 144.106 519.96 138.898 Q518.456 133.69 515.377 128.366 Z" fill="#000000" fill-rule="nonzero" fill-opacity="1" /></svg>
