<?xml version="1.0" encoding="utf-8"?>
<svg xmlns="http://www.w3.org/2000/svg" xmlns:xlink="http://www.w3.org/1999/xlink" width="600" height="400" viewBox="0 0 2400 1600">
<defs>
  <clipPath id="clip990">
    <rect x="0" y="0" width="2400" height="1600"/>
  </clipPath>
</defs>
<path clip-path="url(#clip990)" d="M0 1600 L2400 1600 L2400 0 L0 0  Z" fill="#ffffff" fill-rule="evenodd" fill-opacity="1"/>
<defs>
  <clipPath id="clip991">
    <rect x="480" y="0" width="1681" height="1600"/>
  </clipPath>
</defs>
<defs>
  <clipPath id="clip992">
    <rect x="155" y="47" width="2198" height="1440"/>
  </clipPath>
</defs>
<path clip-path="url(#clip992)" d="M-857.193 2344.68 L-857.193 2076.88 L-723.946 1942.98 L-493.156 2020.29 L-493.156 2288.08 L-626.402 2421.98 L-857.193 2344.68  Z" fill="#ffffff" fill-rule="evenodd" fill-opacity="1"/>
<polyline clip-path="url(#clip992)" style="stroke:#000000; stroke-linecap:round; stroke-linejoin:round; stroke-width:2; stroke-opacity:0.1; fill:none" points="760.748,1224.05 1176.21,864.249 1176.21,144.647 "/>
<polyline clip-path="url(#clip992)" style="stroke:#000000; stroke-linecap:round; stroke-linejoin:round; stroke-width:2; stroke-opacity:0.1; fill:none" points="876.143,1257.36 1291.61,897.56 1291.61,177.958 "/>
<polyline clip-path="url(#clip992)" style="stroke:#000000; stroke-linecap:round; stroke-linejoin:round; stroke-width:2; stroke-opacity:0.1; fill:none" points="991.538,1290.67 1407,930.872 1407,211.27 "/>
<polyline clip-path="url(#clip992)" style="stroke:#000000; stroke-linecap:round; stroke-linejoin:round; stroke-width:2; stroke-opacity:0.1; fill:none" points="1106.93,1323.98 1522.4,964.184 1522.4,244.582 "/>
<polyline clip-path="url(#clip992)" style="stroke:#000000; stroke-linecap:round; stroke-linejoin:round; stroke-width:2; stroke-opacity:0.1; fill:none" points="1222.33,1357.3 1637.79,997.495 1637.79,277.894 "/>
<polyline clip-path="url(#clip992)" style="stroke:#000000; stroke-linecap:round; stroke-linejoin:round; stroke-width:2; stroke-opacity:0.1; fill:none" points="1337.72,1390.61 1753.19,1030.81 1753.19,311.205 "/>
<polyline clip-path="url(#clip992)" style="stroke:#000000; stroke-linecap:round; stroke-linejoin:round; stroke-width:2; stroke-opacity:0.1; fill:none" points="1437.32,1383.58 717.718,1175.84 717.718,456.242 "/>
<polyline clip-path="url(#clip992)" style="stroke:#000000; stroke-linecap:round; stroke-linejoin:round; stroke-width:2; stroke-opacity:0.1; fill:none" points="1514.63,1316.63 795.024,1108.9 795.024,389.293 "/>
<polyline clip-path="url(#clip992)" style="stroke:#000000; stroke-linecap:round; stroke-linejoin:round; stroke-width:2; stroke-opacity:0.1; fill:none" points="1591.93,1249.68 872.329,1041.95 872.329,322.345 "/>
<polyline clip-path="url(#clip992)" style="stroke:#000000; stroke-linecap:round; stroke-linejoin:round; stroke-width:2; stroke-opacity:0.1; fill:none" points="1669.24,1182.73 949.635,974.998 949.635,255.396 "/>
<polyline clip-path="url(#clip992)" style="stroke:#000000; stroke-linecap:round; stroke-linejoin:round; stroke-width:2; stroke-opacity:0.1; fill:none" points="1746.54,1115.78 1026.94,908.049 1026.94,188.447 "/>
<polyline clip-path="url(#clip992)" style="stroke:#000000; stroke-linecap:round; stroke-linejoin:round; stroke-width:2; stroke-opacity:0.1; fill:none" points="686.728,1109.98 1102.19,750.174 1821.79,957.905 "/>
<polyline clip-path="url(#clip992)" style="stroke:#000000; stroke-linecap:round; stroke-linejoin:round; stroke-width:2; stroke-opacity:0.1; fill:none" points="686.728,955.477 1102.19,595.676 1821.79,803.407 "/>
<polyline clip-path="url(#clip992)" style="stroke:#000000; stroke-linecap:round; stroke-linejoin:round; stroke-width:2; stroke-opacity:0.1; fill:none" points="686.728,800.979 1102.19,441.178 1821.79,648.909 "/>
<polyline clip-path="url(#clip992)" style="stroke:#000000; stroke-linecap:round; stroke-linejoin:round; stroke-width:2; stroke-opacity:0.1; fill:none" points="686.728,646.481 1102.19,286.68 1821.79,494.411 "/>
<polyline clip-path="url(#clip992)" style="stroke:#000000; stroke-linecap:round; stroke-linejoin:round; stroke-width:2; stroke-opacity:0.1; fill:none" points="686.728,491.983 1102.19,132.182 1821.79,339.913 "/>
<polyline clip-path="url(#clip990)" style="stroke:#000000; stroke-linecap:round; stroke-linejoin:round; stroke-width:4; stroke-opacity:1; fill:none" points="686.728,1202.68 1406.33,1410.41 "/>
<polyline clip-path="url(#clip990)" style="stroke:#000000; stroke-linecap:round; stroke-linejoin:round; stroke-width:4; stroke-opacity:1; fill:none" points="760.748,1224.05 765.734,1219.73 "/>
<polyline clip-path="url(#clip990)" style="stroke:#000000; stroke-linecap:round; stroke-linejoin:round; stroke-width:4; stroke-opacity:1; fill:none" points="876.143,1257.36 881.129,1253.04 "/>
<polyline clip-path="url(#clip990)" style="stroke:#000000; stroke-linecap:round; stroke-linejoin:round; stroke-width:4; stroke-opacity:1; fill:none" points="991.538,1290.67 996.524,1286.36 "/>
<polyline clip-path="url(#clip990)" style="stroke:#000000; stroke-linecap:round; stroke-linejoin:round; stroke-width:4; stroke-opacity:1; fill:none" points="1106.93,1323.98 1111.92,1319.67 "/>
<polyline clip-path="url(#clip990)" style="stroke:#000000; stroke-linecap:round; stroke-linejoin:round; stroke-width:4; stroke-opacity:1; fill:none" points="1222.33,1357.3 1227.31,1352.98 "/>
<polyline clip-path="url(#clip990)" style="stroke:#000000; stroke-linecap:round; stroke-linejoin:round; stroke-width:4; stroke-opacity:1; fill:none" points="1337.72,1390.61 1342.71,1386.29 "/>
<path clip-path="url(#clip990)" d="M744.471 1250 Q747.828 1250.72 749.703 1252.99 Q751.601 1255.26 751.601 1258.59 Q751.601 1263.71 748.082 1266.51 Q744.564 1269.31 738.082 1269.31 Q735.906 1269.31 733.592 1268.87 Q731.3 1268.45 728.846 1267.6 L728.846 1263.08 Q730.791 1264.22 733.106 1264.8 Q735.42 1265.37 737.943 1265.37 Q742.342 1265.37 744.633 1263.64 Q746.948 1261.9 746.948 1258.59 Q746.948 1255.54 744.795 1253.82 Q742.666 1252.09 738.846 1252.09 L734.818 1252.09 L734.818 1248.24 L739.031 1248.24 Q742.48 1248.24 744.309 1246.88 Q746.138 1245.49 746.138 1242.9 Q746.138 1240.24 744.24 1238.82 Q742.365 1237.39 738.846 1237.39 Q736.925 1237.39 734.726 1237.81 Q732.527 1238.22 729.888 1239.1 L729.888 1234.93 Q732.55 1234.19 734.865 1233.82 Q737.203 1233.45 739.263 1233.45 Q744.587 1233.45 747.689 1235.88 Q750.791 1238.29 750.791 1242.41 Q750.791 1245.28 749.147 1247.27 Q747.504 1249.24 744.471 1250 Z" fill="#000000" fill-rule="nonzero" fill-opacity="1" /><path clip-path="url(#clip990)" d="M857.413 1271.46 L845.607 1289.91 L857.413 1289.91 L857.413 1271.46 M856.186 1267.39 L862.065 1267.39 L862.065 1289.91 L866.996 1289.91 L866.996 1293.8 L862.065 1293.8 L862.065 1301.95 L857.413 1301.95 L857.413 1293.8 L841.811 1293.8 L841.811 1289.29 L856.186 1267.39 Z" fill="#000000" fill-rule="nonzero" fill-opacity="1" /><path clip-path="url(#clip990)" d="M961.488 1300.7 L979.845 1300.7 L979.845 1304.64 L965.771 1304.64 L965.771 1313.11 Q966.789 1312.76 967.808 1312.6 Q968.826 1312.41 969.845 1312.41 Q975.632 1312.41 979.011 1315.59 Q982.391 1318.76 982.391 1324.17 Q982.391 1329.75 978.919 1332.85 Q975.447 1335.93 969.127 1335.93 Q966.951 1335.93 964.683 1335.56 Q962.438 1335.19 960.03 1334.45 L960.03 1329.75 Q962.113 1330.89 964.336 1331.44 Q966.558 1332 969.035 1332 Q973.039 1332 975.377 1329.89 Q977.715 1327.78 977.715 1324.17 Q977.715 1320.56 975.377 1318.46 Q973.039 1316.35 969.035 1316.35 Q967.16 1316.35 965.285 1316.77 Q963.433 1317.18 961.488 1318.06 L961.488 1300.7 Z" fill="#000000" fill-rule="nonzero" fill-opacity="1" /><path clip-path="url(#clip990)" d="M1086.26 1349.43 Q1083.11 1349.43 1081.26 1351.58 Q1079.43 1353.74 1079.43 1357.49 Q1079.43 1361.21 1081.26 1363.39 Q1083.11 1365.54 1086.26 1365.54 Q1089.41 1365.54 1091.24 1363.39 Q1093.09 1361.21 1093.09 1357.49 Q1093.09 1353.74 1091.24 1351.58 Q1089.41 1349.43 1086.26 1349.43 M1095.54 1334.78 L1095.54 1339.04 Q1093.78 1338.2 1091.98 1337.76 Q1090.19 1337.32 1088.43 1337.32 Q1083.8 1337.32 1081.35 1340.45 Q1078.92 1343.57 1078.57 1349.89 Q1079.94 1347.88 1082 1346.81 Q1084.06 1345.73 1086.54 1345.73 Q1091.74 1345.73 1094.75 1348.9 Q1097.79 1352.05 1097.79 1357.49 Q1097.79 1362.81 1094.64 1366.03 Q1091.49 1369.24 1086.26 1369.24 Q1080.26 1369.24 1077.09 1364.66 Q1073.92 1360.05 1073.92 1351.33 Q1073.92 1343.13 1077.81 1338.27 Q1081.7 1333.39 1088.25 1333.39 Q1090.01 1333.39 1091.79 1333.74 Q1093.6 1334.08 1095.54 1334.78 Z" fill="#000000" fill-rule="nonzero" fill-opacity="1" /><path clip-path="url(#clip990)" d="M1190.96 1367.33 L1213.18 1367.33 L1213.18 1369.32 L1200.64 1401.89 L1195.75 1401.89 L1207.56 1371.26 L1190.96 1371.26 L1190.96 1367.33 Z" fill="#000000" fill-rule="nonzero" fill-opacity="1" /><path clip-path="url(#clip990)" d="M1316.72 1418.78 Q1313.39 1418.78 1311.47 1420.57 Q1309.57 1422.35 1309.57 1425.47 Q1309.57 1428.6 1311.47 1430.38 Q1313.39 1432.16 1316.72 1432.16 Q1320.06 1432.16 1321.98 1430.38 Q1323.9 1428.58 1323.9 1425.47 Q1323.9 1422.35 1321.98 1420.57 Q1320.08 1418.78 1316.72 1418.78 M1312.05 1416.79 Q1309.04 1416.05 1307.35 1413.99 Q1305.68 1411.93 1305.68 1408.97 Q1305.68 1404.83 1308.62 1402.42 Q1311.59 1400.01 1316.72 1400.01 Q1321.89 1400.01 1324.83 1402.42 Q1327.77 1404.83 1327.77 1408.97 Q1327.77 1411.93 1326.08 1413.99 Q1324.41 1416.05 1321.42 1416.79 Q1324.8 1417.58 1326.68 1419.87 Q1328.58 1422.16 1328.58 1425.47 Q1328.58 1430.5 1325.5 1433.18 Q1322.44 1435.87 1316.72 1435.87 Q1311.01 1435.87 1307.93 1433.18 Q1304.87 1430.5 1304.87 1425.47 Q1304.87 1422.16 1306.77 1419.87 Q1308.67 1417.58 1312.05 1416.79 M1310.34 1409.41 Q1310.34 1412.1 1312 1413.6 Q1313.69 1415.1 1316.72 1415.1 Q1319.73 1415.1 1321.42 1413.6 Q1323.14 1412.1 1323.14 1409.41 Q1323.14 1406.72 1321.42 1405.22 Q1319.73 1403.72 1316.72 1403.72 Q1313.69 1403.72 1312 1405.22 Q1310.34 1406.72 1310.34 1409.41 Z" fill="#000000" fill-rule="nonzero" fill-opacity="1" /><polyline clip-path="url(#clip990)" style="stroke:#000000; stroke-linecap:round; stroke-linejoin:round; stroke-width:4; stroke-opacity:1; fill:none" points="1406.33,1410.41 1821.79,1050.61 "/>
<polyline clip-path="url(#clip990)" style="stroke:#000000; stroke-linecap:round; stroke-linejoin:round; stroke-width:4; stroke-opacity:1; fill:none" points="1437.32,1383.58 1428.68,1381.08 "/>
<polyline clip-path="url(#clip990)" style="stroke:#000000; stroke-linecap:round; stroke-linejoin:round; stroke-width:4; stroke-opacity:1; fill:none" points="1514.63,1316.63 1505.99,1314.13 "/>
<polyline clip-path="url(#clip990)" style="stroke:#000000; stroke-linecap:round; stroke-linejoin:round; stroke-width:4; stroke-opacity:1; fill:none" points="1591.93,1249.68 1583.3,1247.18 "/>
<polyline clip-path="url(#clip990)" style="stroke:#000000; stroke-linecap:round; stroke-linejoin:round; stroke-width:4; stroke-opacity:1; fill:none" points="1669.24,1182.73 1660.6,1180.24 "/>
<polyline clip-path="url(#clip990)" style="stroke:#000000; stroke-linecap:round; stroke-linejoin:round; stroke-width:4; stroke-opacity:1; fill:none" points="1746.54,1115.78 1737.91,1113.29 "/>
<path clip-path="url(#clip990)" d="M1473.36 1402.54 Q1476.72 1403.25 1478.59 1405.52 Q1480.49 1407.79 1480.49 1411.12 Q1480.49 1416.24 1476.97 1419.04 Q1473.45 1421.84 1466.97 1421.84 Q1464.79 1421.84 1462.48 1421.4 Q1460.19 1420.99 1457.73 1420.13 L1457.73 1415.61 Q1459.68 1416.75 1461.99 1417.33 Q1464.31 1417.91 1466.83 1417.91 Q1471.23 1417.91 1473.52 1416.17 Q1475.84 1414.43 1475.84 1411.12 Q1475.84 1408.07 1473.68 1406.36 Q1471.55 1404.62 1467.73 1404.62 L1463.71 1404.62 L1463.71 1400.78 L1467.92 1400.78 Q1471.37 1400.78 1473.2 1399.41 Q1475.03 1398.02 1475.03 1395.43 Q1475.03 1392.77 1473.13 1391.36 Q1471.25 1389.92 1467.73 1389.92 Q1465.81 1389.92 1463.61 1390.34 Q1461.41 1390.75 1458.78 1391.63 L1458.78 1387.47 Q1461.44 1386.73 1463.75 1386.36 Q1466.09 1385.99 1468.15 1385.99 Q1473.47 1385.99 1476.58 1388.42 Q1479.68 1390.82 1479.68 1394.94 Q1479.68 1397.81 1478.03 1399.8 Q1476.39 1401.77 1473.36 1402.54 Z" fill="#000000" fill-rule="nonzero" fill-opacity="1" /><path clip-path="url(#clip990)" d="M1550.64 1323.74 L1538.84 1342.18 L1550.64 1342.18 L1550.64 1323.74 M1549.41 1319.66 L1555.29 1319.66 L1555.29 1342.18 L1560.22 1342.18 L1560.22 1346.07 L1555.29 1346.07 L1555.29 1354.22 L1550.64 1354.22 L1550.64 1346.07 L1535.04 1346.07 L1535.04 1341.56 L1549.41 1319.66 Z" fill="#000000" fill-rule="nonzero" fill-opacity="1" /><path clip-path="url(#clip990)" d="M1613.8 1252.71 L1632.16 1252.71 L1632.16 1256.65 L1618.09 1256.65 L1618.09 1265.12 Q1619.1 1264.77 1620.12 1264.61 Q1621.14 1264.43 1622.16 1264.43 Q1627.95 1264.43 1631.33 1267.6 Q1634.71 1270.77 1634.71 1276.18 Q1634.71 1281.76 1631.23 1284.87 Q1627.76 1287.94 1621.44 1287.94 Q1619.27 1287.94 1617 1287.57 Q1614.75 1287.2 1612.35 1286.46 L1612.35 1281.76 Q1614.43 1282.9 1616.65 1283.45 Q1618.87 1284.01 1621.35 1284.01 Q1625.35 1284.01 1627.69 1281.9 Q1630.03 1279.8 1630.03 1276.18 Q1630.03 1272.57 1627.69 1270.47 Q1625.35 1268.36 1621.35 1268.36 Q1619.48 1268.36 1617.6 1268.78 Q1615.75 1269.19 1613.8 1270.07 L1613.8 1252.71 Z" fill="#000000" fill-rule="nonzero" fill-opacity="1" /><path clip-path="url(#clip990)" d="M1701.99 1201.18 Q1698.84 1201.18 1696.99 1203.33 Q1695.16 1205.49 1695.16 1209.24 Q1695.16 1212.96 1696.99 1215.14 Q1698.84 1217.29 1701.99 1217.29 Q1705.14 1217.29 1706.97 1215.14 Q1708.82 1212.96 1708.82 1209.24 Q1708.82 1205.49 1706.97 1203.33 Q1705.14 1201.18 1701.99 1201.18 M1711.27 1186.53 L1711.27 1190.79 Q1709.51 1189.95 1707.71 1189.51 Q1705.92 1189.07 1704.17 1189.07 Q1699.54 1189.07 1697.08 1192.2 Q1694.65 1195.32 1694.3 1201.64 Q1695.67 1199.63 1697.73 1198.56 Q1699.79 1197.48 1702.27 1197.48 Q1707.48 1197.48 1710.48 1200.65 Q1713.52 1203.8 1713.52 1209.24 Q1713.52 1214.56 1710.37 1217.78 Q1707.22 1221 1701.99 1221 Q1695.99 1221 1692.82 1216.41 Q1689.65 1211.81 1689.65 1203.08 Q1689.65 1194.88 1693.54 1190.02 Q1697.43 1185.14 1703.98 1185.14 Q1705.74 1185.14 1707.52 1185.49 Q1709.33 1185.83 1711.27 1186.53 Z" fill="#000000" fill-rule="nonzero" fill-opacity="1" /><path clip-path="url(#clip990)" d="M1766.96 1118.82 L1789.18 1118.82 L1789.18 1120.81 L1776.63 1153.38 L1771.75 1153.38 L1783.55 1122.75 L1766.96 1122.75 L1766.96 1118.82 Z" fill="#000000" fill-rule="nonzero" fill-opacity="1" /><polyline clip-path="url(#clip990)" style="stroke:#000000; stroke-linecap:round; stroke-linejoin:round; stroke-width:4; stroke-opacity:1; fill:none" points="686.728,1202.68 686.728,483.08 "/>
<polyline clip-path="url(#clip990)" style="stroke:#000000; stroke-linecap:round; stroke-linejoin:round; stroke-width:4; stroke-opacity:1; fill:none" points="686.728,1109.98 691.714,1105.66 "/>
<polyline clip-path="url(#clip990)" style="stroke:#000000; stroke-linecap:round; stroke-linejoin:round; stroke-width:4; stroke-opacity:1; fill:none" points="686.728,955.477 691.714,951.159 "/>
<polyline clip-path="url(#clip990)" style="stroke:#000000; stroke-linecap:round; stroke-linejoin:round; stroke-width:4; stroke-opacity:1; fill:none" points="686.728,800.979 691.714,796.661 "/>
<polyline clip-path="url(#clip990)" style="stroke:#000000; stroke-linecap:round; stroke-linejoin:round; stroke-width:4; stroke-opacity:1; fill:none" points="686.728,646.481 691.714,642.163 "/>
<polyline clip-path="url(#clip990)" style="stroke:#000000; stroke-linecap:round; stroke-linejoin:round; stroke-width:4; stroke-opacity:1; fill:none" points="686.728,491.983 691.714,487.665 "/>
<path clip-path="url(#clip990)" d="M601.748 1095.77 Q598.137 1095.77 596.308 1099.34 Q594.503 1102.88 594.503 1110.01 Q594.503 1117.12 596.308 1120.68 Q598.137 1124.22 601.748 1124.22 Q605.382 1124.22 607.188 1120.68 Q609.017 1117.12 609.017 1110.01 Q609.017 1102.88 607.188 1099.34 Q605.382 1095.77 601.748 1095.77 M601.748 1092.07 Q607.558 1092.07 610.614 1096.68 Q613.692 1101.26 613.692 1110.01 Q613.692 1118.74 610.614 1123.34 Q607.558 1127.93 601.748 1127.93 Q595.938 1127.93 592.859 1123.34 Q589.804 1118.74 589.804 1110.01 Q589.804 1101.26 592.859 1096.68 Q595.938 1092.07 601.748 1092.07 Z" fill="#000000" fill-rule="nonzero" fill-opacity="1" /><path clip-path="url(#clip990)" d="M621.91 1121.38 L626.794 1121.38 L626.794 1127.26 L621.91 1127.26 L621.91 1121.38 Z" fill="#000000" fill-rule="nonzero" fill-opacity="1" /><path clip-path="url(#clip990)" d="M637.026 1092.7 L655.382 1092.7 L655.382 1096.63 L641.308 1096.63 L641.308 1105.1 Q642.327 1104.76 643.345 1104.59 Q644.364 1104.41 645.382 1104.41 Q651.169 1104.41 654.549 1107.58 Q657.928 1110.75 657.928 1116.17 Q657.928 1121.75 654.456 1124.85 Q650.984 1127.93 644.664 1127.93 Q642.489 1127.93 640.22 1127.56 Q637.975 1127.19 635.567 1126.45 L635.567 1121.75 Q637.651 1122.88 639.873 1123.44 Q642.095 1123.99 644.572 1123.99 Q648.576 1123.99 650.914 1121.88 Q653.252 1119.78 653.252 1116.17 Q653.252 1112.56 650.914 1110.45 Q648.576 1108.34 644.572 1108.34 Q642.697 1108.34 640.822 1108.76 Q638.97 1109.18 637.026 1110.06 L637.026 1092.7 Z" fill="#000000" fill-rule="nonzero" fill-opacity="1" /><path clip-path="url(#clip990)" d="M591.563 968.822 L599.202 968.822 L599.202 942.456 L590.892 944.123 L590.892 939.864 L599.155 938.197 L603.831 938.197 L603.831 968.822 L611.47 968.822 L611.47 972.757 L591.563 972.757 L591.563 968.822 Z" fill="#000000" fill-rule="nonzero" fill-opacity="1" /><path clip-path="url(#clip990)" d="M620.915 966.878 L625.799 966.878 L625.799 972.757 L620.915 972.757 L620.915 966.878 Z" fill="#000000" fill-rule="nonzero" fill-opacity="1" /><path clip-path="url(#clip990)" d="M645.984 941.276 Q642.373 941.276 640.544 944.841 Q638.739 948.382 638.739 955.512 Q638.739 962.618 640.544 966.183 Q642.373 969.725 645.984 969.725 Q649.618 969.725 651.424 966.183 Q653.252 962.618 653.252 955.512 Q653.252 948.382 651.424 944.841 Q649.618 941.276 645.984 941.276 M645.984 937.572 Q651.794 937.572 654.85 942.179 Q657.928 946.762 657.928 955.512 Q657.928 964.239 654.85 968.845 Q651.794 973.428 645.984 973.428 Q640.174 973.428 637.095 968.845 Q634.04 964.239 634.04 955.512 Q634.04 946.762 637.095 942.179 Q640.174 937.572 645.984 937.572 Z" fill="#000000" fill-rule="nonzero" fill-opacity="1" /><path clip-path="url(#clip990)" d="M592.558 814.324 L600.197 814.324 L600.197 787.958 L591.887 789.625 L591.887 785.366 L600.151 783.699 L604.827 783.699 L604.827 814.324 L612.466 814.324 L612.466 818.259 L592.558 818.259 L592.558 814.324 Z" fill="#000000" fill-rule="nonzero" fill-opacity="1" /><path clip-path="url(#clip990)" d="M621.91 812.379 L626.794 812.379 L626.794 818.259 L621.91 818.259 L621.91 812.379 Z" fill="#000000" fill-rule="nonzero" fill-opacity="1" /><path clip-path="url(#clip990)" d="M637.026 783.699 L655.382 783.699 L655.382 787.634 L641.308 787.634 L641.308 796.106 Q642.327 795.759 643.345 795.597 Q644.364 795.412 645.382 795.412 Q651.169 795.412 654.549 798.583 Q657.928 801.754 657.928 807.171 Q657.928 812.75 654.456 815.852 Q650.984 818.93 644.664 818.93 Q642.489 818.93 640.22 818.56 Q637.975 818.19 635.567 817.449 L635.567 812.75 Q637.651 813.884 639.873 814.44 Q642.095 814.995 644.572 814.995 Q648.576 814.995 650.914 812.889 Q653.252 810.782 653.252 807.171 Q653.252 803.56 650.914 801.453 Q648.576 799.347 644.572 799.347 Q642.697 799.347 640.822 799.764 Q638.97 800.18 637.026 801.06 L637.026 783.699 Z" fill="#000000" fill-rule="nonzero" fill-opacity="1" /><path clip-path="url(#clip990)" d="M594.78 659.826 L611.1 659.826 L611.1 663.761 L589.156 663.761 L589.156 659.826 Q591.818 657.071 596.401 652.441 Q601.007 647.789 602.188 646.446 Q604.433 643.923 605.313 642.187 Q606.216 640.428 606.216 638.738 Q606.216 635.983 604.271 634.247 Q602.35 632.511 599.248 632.511 Q597.049 632.511 594.595 633.275 Q592.165 634.039 589.387 635.59 L589.387 630.867 Q592.211 629.733 594.665 629.155 Q597.118 628.576 599.155 628.576 Q604.526 628.576 607.72 631.261 Q610.915 633.946 610.915 638.437 Q610.915 640.566 610.104 642.488 Q609.317 644.386 607.211 646.978 Q606.632 647.65 603.53 650.867 Q600.429 654.062 594.78 659.826 Z" fill="#000000" fill-rule="nonzero" fill-opacity="1" /><path clip-path="url(#clip990)" d="M620.915 657.881 L625.799 657.881 L625.799 663.761 L620.915 663.761 L620.915 657.881 Z" fill="#000000" fill-rule="nonzero" fill-opacity="1" /><path clip-path="url(#clip990)" d="M645.984 632.279 Q642.373 632.279 640.544 635.844 Q638.739 639.386 638.739 646.516 Q638.739 653.622 640.544 657.187 Q642.373 660.728 645.984 660.728 Q649.618 660.728 651.424 657.187 Q653.252 653.622 653.252 646.516 Q653.252 639.386 651.424 635.844 Q649.618 632.279 645.984 632.279 M645.984 628.576 Q651.794 628.576 654.85 633.182 Q657.928 637.766 657.928 646.516 Q657.928 655.242 654.85 659.849 Q651.794 664.432 645.984 664.432 Q640.174 664.432 637.095 659.849 Q634.04 655.242 634.04 646.516 Q634.04 637.766 637.095 633.182 Q640.174 628.576 645.984 628.576 Z" fill="#000000" fill-rule="nonzero" fill-opacity="1" /><path clip-path="url(#clip990)" d="M595.776 505.327 L612.095 505.327 L612.095 509.263 L590.151 509.263 L590.151 505.327 Q592.813 502.573 597.396 497.943 Q602.003 493.291 603.183 491.948 Q605.429 489.425 606.308 487.689 Q607.211 485.929 607.211 484.24 Q607.211 481.485 605.267 479.749 Q603.345 478.013 600.243 478.013 Q598.044 478.013 595.591 478.777 Q593.16 479.541 590.382 481.092 L590.382 476.369 Q593.206 475.235 595.66 474.656 Q598.114 474.078 600.151 474.078 Q605.521 474.078 608.716 476.763 Q611.91 479.448 611.91 483.939 Q611.91 486.068 611.1 487.99 Q610.313 489.888 608.206 492.48 Q607.628 493.152 604.526 496.369 Q601.424 499.564 595.776 505.327 Z" fill="#000000" fill-rule="nonzero" fill-opacity="1" /><path clip-path="url(#clip990)" d="M621.91 503.383 L626.794 503.383 L626.794 509.263 L621.91 509.263 L621.91 503.383 Z" fill="#000000" fill-rule="nonzero" fill-opacity="1" /><path clip-path="url(#clip990)" d="M637.026 474.703 L655.382 474.703 L655.382 478.638 L641.308 478.638 L641.308 487.11 Q642.327 486.763 643.345 486.601 Q644.364 486.416 645.382 486.416 Q651.169 486.416 654.549 489.587 Q657.928 492.758 657.928 498.175 Q657.928 503.753 654.456 506.855 Q650.984 509.934 644.664 509.934 Q642.489 509.934 640.22 509.564 Q637.975 509.193 635.567 508.452 L635.567 503.753 Q637.651 504.888 639.873 505.443 Q642.095 505.999 644.572 505.999 Q648.576 505.999 650.914 503.892 Q653.252 501.786 653.252 498.175 Q653.252 494.564 650.914 492.457 Q648.576 490.351 644.572 490.351 Q642.697 490.351 640.822 490.767 Q638.97 491.184 637.026 492.064 L637.026 474.703 Z" fill="#000000" fill-rule="nonzero" fill-opacity="1" /><polyline clip-path="url(#clip992)" style="stroke:#009af9; stroke-linecap:round; stroke-linejoin:round; stroke-width:4; stroke-opacity:1; fill:none" points="1177.14,882.733 1187.42,877.832 1180.84,881.193 1183.02,880.241 1186.69,878.554 1181.93,881.056 1191.6,876.47 1192.36,876.205 1200.14,872.429 1197.53,873.774 1188.73,878.281 1180.57,882.537 1182.79,881.658 1177.35,884.733 1141.87,902.907 1161.47,894.133 1125,913.119 1097.43,928.416 1095.87,931.628 1075.15,944.245 1070.59,949.359 1075.33,949.722 1073.81,952.852 1093.86,945.673 1090.77,948.865 1072.32,959.22 1078.8,958.089 1134.17,930.758 1101.91,944.592 1101.65,944.829 1154.38,916.227 1155.52,912.019 1123.81,926.649 1125.94,925.81 1161.98,904.244 1147.38,909.62 1200.91,878.779 1364.62,772.947 1310.4,783.854 1375.99,740.705 1329.98,764.598 1414.25,706.125 1547.35,588.283 1572.34,554.904 1633.26,502.39 1643.34,480.481 1623.26,488.723 1691.03,439.518 1686.57,455.769 1540.64,557.076 1684.73,452.933 1787.45,357.602 1769.26,366.212 1693.52,425.595 1678,437.894 1581.55,515.527 1574.32,535.353 1564.5,553.903 1548.99,571.336 1468.04,627.906 1499.12,621.145 1436.3,670.334 1446.28,673.023 1410.03,689.941 1373.87,718.322 1368.33,729.101 1359.97,736.511 1384.08,722.697 1323.89,772.386 1206.17,854.74 1130.45,907.604 1123.92,922.913 1211.99,872.272 1293.62,808.913 1313.18,783.059 1389.79,731.861 1455.03,675.854 1528.86,603.199 1528.25,601.255 1526.1,594.457 1472.72,637.845 1533.2,599.036 1532.04,596.171 1350.23,746.813 1274.35,791.28 1259.25,807.476 1289.64,799.084 1388.25,719.742 1293.71,786.486 1194.27,863.611 1224.51,842.727 1251.49,825.429 1221.86,854.246 1191.68,874.407 1193.06,872.368 1223.92,859.908 1217.05,868.835 1262.65,834.143 1216.53,859.267 1180.5,871.68 1181.81,866.343 1128.5,909.382 1208.46,865.105 1192.88,879.422 1201.09,874.219 1131.31,918.344 1174.32,887.774 1237.72,848.042 1288.15,794.026 1231.75,840.083 1291.04,793.898 1194.44,858.929 1194.83,865.864 1238,841.764 1277.79,797.418 1246.14,815.42 1314.88,775.12 1290.58,806.437 1399.51,706.366 1367.98,732.818 1427.44,687.829 1490.21,640.044 1287.92,779.851 1378.17,737.373 1390.18,728.02 1354.75,740.497 1243.06,808.929 1273.99,797.598 1247,834.901 1202.9,860.041 1211.3,853.358 1257.94,818.697 1350.92,745.138 1372.91,714.206 1322.9,755.025 1388.96,743.336 1355.73,762.182 1358.35,762.499 1240.33,850.464 1411.91,726.717 1409.2,701.954 1368.08,727.143 1430.67,693.129 1403.79,700.735 1356.48,736.252 1316.13,763.184 1396.44,714.289 1276.94,802.717 1242.73,828.38 1254.57,831.244 1268.26,822.434 1234.36,845.638 1207.55,861.048 1176.56,883.903 1188.35,875.143 1088.29,933.296 1098.11,940.417 1047.67,968.001 1062.95,969.463 1134.26,926.807 1091.66,955.203 1049.37,982.318 1093.75,948.308 1090.98,944.624 1184.86,893.501 1195.2,883.105 1171.51,885.164 1204.63,869.254 1201.76,863.304 1135.4,912.865 1162.6,891.791 1148.18,909.069 1255.9,827.653 1345.43,761.073 1408.44,703.724 1367,738.471 1364.61,735.952 1441.83,682.253 1456.45,668.985 1525.64,598.754 1505.77,621.668 1404.31,715.526 1456.59,677.933 1440.56,663.796 1288.71,788.766 1302.06,785.55 1174.01,870.314 1102.52,928.148 1168.25,898.237 1188.63,888.321 1202.2,876.652 1203.42,876.862 1252.2,843.149 1278.69,823.942 1281.4,801.154 1311.1,773.805 1262.85,803.72 1243.8,826.564 1164.16,882.561 1242.78,834.892 1214.18,851.499 1263.44,822.923 1305.6,791.588 1388.68,732.684 1562.38,604.205 1535.68,593.765 1416.49,674.043 1367.78,725.962 1326.28,760.135 1352.82,746.183 1391.52,709.408 1423.38,685.486 1415.87,690.983 1451.62,667.917 1465.19,651.924 1443.08,658.905 1440.24,673.814 1466.37,637.867 1653.74,475.689 1746.27,402.272 1522.23,573.291 1503.15,590.399 1454.81,645.397 1336.42,733.253 1372.46,724.809 1368.3,728.777 1275.33,798.312 1281.01,795.873 1265.01,811.09 1284.27,810.183 1248.58,825.707 1202.82,860.604 1187.01,873.273 1172.73,890.697 1164.88,896.523 1265.7,837.6 1242.2,838.884 1292.93,802.007 1304.62,789.638 1300.51,791.21 1501.21,636.355 1514.07,617.754 1484.36,625.443 1451.66,653.216 1480.15,626.676 1441.67,667.38 1448.12,667.796 1389.47,717.054 1289.59,781.492 1239.57,818.027 1302.64,791.208 1195.77,860.756 1156.41,882.04 1235.51,843.379 1223.8,850.964 1300.08,785.126 1381.92,730.191 1392.82,710.226 1429.03,684.696 1397.53,701.733 1220.66,838.178 1173.89,875.81 1254.25,835.511 1264.79,830.986 1225.73,849.118 1158.46,891.946 1279.35,826.997 1258.11,841.689 1258.71,824.445 1246.39,828.355 1263.08,813.336 1352.88,751.629 1477.54,645.457 1431.75,671.008 1426.12,692.144 1434.1,685.004 1432.62,686.4 1433.53,682.142 1346.41,745.793 1393.3,721.972 1371.66,725.287 1449.41,648.36 1414.55,690.427 1490.12,651.244 1563.32,581.412 1564.21,561.783 1721.5,408.508 1573.06,518.606 1507.21,583.449 1439.89,645.098 1418.37,671.918 1412.61,674.152 1388.34,709.319 1362.93,728.48 1405.32,697.517 1341.54,753.529 1390.41,724.026 1348.43,747.365 1344.06,751.872 1388.23,721.596 1398.06,709.542 1381.15,715.349 1276.98,795.438 1294.53,791.827 1241.31,833.176 1262.55,813.216 1332.28,767.106 1264.6,804.581 1291.01,783.449 1245.99,834.647 1234.03,841.275 1320.74,781.297 1300.83,789.091 1362.18,750.455 1455.69,676.541 1641.67,545.674 1736.15,438.144 1743.97,411.088 1682.24,438.108 1624.86,482.59 1627.22,483.518 1618.1,487.094 1633.66,483.776 1653.35,472.875 1615.87,501.297 1656.6,469.279 1622.06,506.583 1596.47,526.493 1522.46,581.879 1626.59,517.063 1587.69,534.667 1396.02,679.906 1355.94,725.693 1437.18,683.235 1362.47,733.466 1372.59,733.259 1434.03,695.479 1310.96,778.388 1261.88,806.215 1361.61,745.325 1266.58,821.587 1203.69,861.9 1242.11,842.06 1191.43,867.875 1236.4,849.233 1094.41,936.626 1235.19,854.817 1260.9,824.099 1175.77,884.924 1173.24,878.068 1189.81,868.824 1222.57,844.185 1369.83,747 1330.79,759.673 1233.94,838.057 1280.9,803.802 1214.17,854.865 1218.72,845.052 1144.21,897.57 1026.18,974.743 1085.6,946.929 1072.28,961.982 1219.19,870.326 1281.9,818.471 1256.55,841.842 1268,815.617 1149.65,894.085 1175.99,891.015 1270.63,833.496 1294.39,804.162 1239.03,832.288 1165.88,882.892 1202.17,872.313 1265.05,839.807 1232.99,867.258 1300.29,813.245 1199.18,866.523 1182.04,881.483 1185.02,874.6 1179.63,893.593 1244,833.516 1453.63,698.154 1439.3,670.247 1492.14,626.552 1581.3,554.15 1678.82,460.572 1633.66,477.893 1561.13,531.191 1502.61,597.56 1473.97,627.591 1520.79,599.817 1490.93,631.171 1446,662.726 1481,634.994 1486.97,629.253 1387.4,701.829 1472.92,643.762 1432.43,676.336 1392.48,696.855 1447.48,670.45 1399.04,698.847 1408.84,698.223 1499.18,630.301 1565.68,573.28 1559.39,582.993 1525.67,582.216 1354.58,707.243 1297.88,761.759 1263.44,799.795 1252.92,815.431 1319.41,784.667 1222.1,844.748 1230.79,847.812 1239.02,848.249 1221.78,847.833 1186.56,872.969 1220.12,852.478 1319.68,788.045 1241.83,828.02 1219.09,854.606 1227.14,851.217 1270.56,835.192 1188.33,889.866 1190.64,871.8 1407.57,729.074 1359.06,740.274 1479.09,659.47 1372.04,749.302 1381.21,738.389 1441.48,669.628 1500.59,618.879 1441.43,669.735 1448.03,647.597 1408.58,685.927 1507.45,628.47 1471.43,651.454 1544.91,571.502 1432.48,658.601 1472.76,634.185 1297.02,772.147 1298.82,784.203 1202.17,858.924 1153.28,896.142 1182.97,884.972 1224.33,854.907 1329.77,779.509 1302.86,787.785 1348.36,754.896 1293.11,785.166 1412.83,712.156 1444.78,663.225 1464.94,643.966 1495.8,631.881 1468.13,640.647 1468.21,639.99 1443.74,673.925 1377.81,715.485 1402.1,713.926 1398.58,712.396 1348.13,750.566 1441.94,682.469 1399.85,702.119 1309.24,780.143 1357.23,749.223 1280.67,806.531 1255.42,823.725 1164.97,887.628 1185.94,882.466 1171.58,889.118 1229.56,854.745 1145.05,911.767 1262.38,841.316 1333.29,783.857 1256.22,827.623 1189.35,874.722 1165.97,895.095 1165.41,896.346 1080.9,957.272 1066.17,972.196 1149.8,918.001 1158.31,908.865 1119.43,935.534 1242.97,844.986 1169.48,887.955 1186.01,882.144 1161.7,892.574 1229.58,855.588 1209.51,875.77 1126.57,930.909 1121.58,932.742 1185.53,890.43 1137.8,928.639 1078.6,959.892 1164.59,911.047 1143.44,919.965 1244.36,849.563 1329.49,785.401 1359.78,762.381 1330,781.757 1324.91,767.33 1351.91,735.699 1358.21,727.732 1365.27,722.328 1473.21,630.43 1383.18,694.442 1313.53,749.542 1400.68,691.639 1464.1,647.883 1363.85,724.927 1380.34,706.27 1459.33,636.248 1451.98,635.234 1383.14,702.563 1428.79,676.551 1523.3,605.796 1562.75,574.335 1449.47,646.019 1569.35,561.352 1470.01,626.308 1526.82,593.779 1519.56,595.541 1672.2,468.73 1663.46,457.257 1543.07,559.656 1474.86,610.097 1570.42,564.391 1647.26,501.169 1552.49,559.182 1440.9,651.196 1459.8,644.576 1402.27,687.678 1422.01,681.965 1472.53,643.782 1497.41,615.518 1370.07,699.948 1331.39,733.796 1318.15,759.234 1296.92,786.945 1397.67,725.215 1439.92,684.019 1450.66,656.681 1578.27,567.137 1492.63,619.562 1437.68,663.472 1417.57,672.762 1416.56,681.403 1370.73,726.076 1437.26,675.212 1320.87,771.015 1324.65,773.827 1286.61,800.28 1382.9,741.679 1359.64,754.598 1332.55,766.159 1387.02,722.18 1260.95,777.221 1178.23,850 1137.63,888.96 1145.17,896.997 1117.19,920.1 1183.43,887.915 1177.89,890.125 1163.37,902.17 1197.97,873.796 1158.83,896.65 1299.5,812.477 1398.9,723.665 1342.71,748.022 1398.83,713.175 1330.65,744.141 1239.52,812.11 1279.79,800.448 1256.37,824.59 1193.95,870.629 1080.33,944.457 1035.36,983.256 1124.4,936.261 1140.76,922.198 1097.25,943.939 1212.74,877.204 1150.74,904.865 1157.47,908.759 1257.07,845.604 1298.99,798.059 1268.9,818.974 1299.91,796.108 1327.76,774.232 1278.75,798.338 1235.47,826.067 1211.8,843.769 1203.34,861.806 1215.25,856.065 1136.17,903.945 1182.26,892.16 1163.05,902.782 1103.43,933.488 1130.53,926.65 1228.28,872.993 1222.3,877.441 1132.53,918.742 1198.53,867.064 1196.91,872.637 1208.14,865.44 1266.82,835.346 1288.68,802.346 1268,813.827 1324.76,752.208 1330.95,755.533 1377.31,728.794 1298.31,799.923 1361.41,750.921 1322.9,770.921 1439.87,695.656 1363.78,730.366 1315.9,759.945 1282.76,790.5 1315.59,785.484 1316.92,781.341 1286.07,796.714 1398.14,728.546 1398.07,724.389 1461,675.812 1494.31,624.79 1405.42,673.025 1451.73,651.018 1385.78,699.676 1251.79,802.781 1220.86,838.084 1270.36,820.999 1364.64,756.168 1319.59,783.209 1218.81,846.353 1154.47,900.6 1186.72,880.968 1254.48,833.925 1170.44,884.212 1130.54,906.542 1164.73,892.78 1276.33,822.674 1259.48,832.137 1264.84,829.245 1302.79,792.987 1376.27,750.792 1296.24,790.158 1361.76,744.746 1310.52,776.166 1326.01,792.699 1385.59,744.274 1390.6,716.919 1347.66,745.825 1387.58,727.831 1333.94,764.007 1146.22,890.766 1235.12,847.501 1293.84,810.111 1276.35,814.16 1369.16,754.406 1252.29,820.953 1278.15,813.778 1253.05,830.365 1233.09,838.623 1187.18,872.126 1272.75,818.021 1221.24,844.991 1230.64,845.081 1193.75,857.722 1150.17,895.085 1098.78,937.247 1130.96,928.399 1215.41,864.365 1127.95,914.703 1115.23,924.297 1103.82,925.487 1124.89,916.508 1174.4,888.653 1167.66,900.533 1243.5,853.443 1262.12,839.498 1283.9,796.318 1343.12,759.175 1286.54,812.209 1349.23,755.75 1404.15,709.344 1527.18,602.895 1391.05,706.503 1346.06,739.638 1391.6,718.241 1463.68,679.489 1494.01,641.621 1478.92,632.11 1371.52,717.156 1433.94,687.628 1439.11,661.514 1407.36,702.385 1413.24,707.782 1487.94,639.303 1407.88,697.365 1387.53,716.848 1396.05,713.731 1357.21,726.781 1344.97,752.493 1345.11,754.217 1365.62,728.561 1276.15,795.616 1253.83,821.807 1308.77,793.408 1363.37,736.897 1360.33,738.259 1362.33,735.48 1280.94,794.271 1301.75,787.068 1291.44,791.498 1282.98,800.503 1330.56,771.333 1347.12,746.29 1324.64,763.693 1394.02,716.207 1369.72,727.541 1364.56,729.132 1356.64,736.631 1307.79,767.685 1285.46,786.634 1291.6,792.117 1310.9,778.516 1417.67,697.927 1307.98,766.874 1310.67,776.273 1205.45,845.652 1255.29,826.42 1214.37,851.415 1148.2,902.953 1146.85,906.262 1195.52,885.798 1215.47,873.6 1166.35,894.838 1149.13,908.467 1161.5,902.242 1209.22,870.769 1135.79,911.393 1164.2,899.956 1148.42,884.035 1122.77,922.21 1226.83,860.571 1283.54,811.85 1307.77,794.069 1395.54,723.203 1348.47,745.071 1375.28,732.331 1369.24,733.991 1354.46,730.756 1413.27,710.268 1407.31,701.768 1401.97,700.714 1554.02,568.088 1452.82,640.784 1395.75,696.471 1321.7,748.473 1341.3,746.72 1375.84,725.179 1309.27,792.16 1257.54,816.008 1229.86,841.014 1210.2,856.315 1179.97,877.861 1143.18,903.244 1128.67,918.329 1120.87,923.247 1076.9,948.659 1086.01,950.666 1098.75,945.886 1069,963.856 1060.76,971.733 1174.24,895.686 1153.89,910.778 1286.66,829.096 1281.69,820.712 1278.29,807.625 1291.48,804.025 1248.53,833.811 1289.6,800.503 1239.61,846.989 1285.44,808.783 1324.87,779.888 1355.81,766.585 1353.83,761.574 1421.77,689.408 1352.71,742.739 1279.02,801.293 1200.42,851.656 1185.94,873.493 1170.88,880.357 1114.53,912.395 1252.43,840.781 1202.67,871.21 1292.8,803.136 1326.63,779.027 1269.77,800.979 1285.45,790.828 1289.85,798.772 1232.16,845.895 1156.9,897.412 1301.73,813.258 1310.44,788.36 1345.06,745.71 1342.23,752.38 1230.75,824.757 1293.47,785.685 1250.06,825.559 1258.08,824.358 1185.49,872.329 1065.84,954.877 1146.25,897.362 1217.38,860.653 1316.11,790.992 1358.56,760.825 1302.66,796.078 1367.38,749.09 1265.28,815.013 1293.76,785.244 1378.1,730.11 1427.86,696.617 1505.03,624.479 1660.27,491.414 1639.53,471.075 1624.33,479.379 1572.14,519 1629.58,478.034 1695.58,428.635 1624.86,474.847 1652.01,462.034 1689.52,427.504 1615.36,487.043 1543.91,551.826 1458.9,623.874 1382.11,694.435 1369.41,714.935 1410.43,695.313 1473.15,659.194 1404.84,702.119 1343.62,751.101 1287.18,794.059 1330.91,768.565 1302.82,787.53 1164.22,888.602 1240.44,852.87 1179.79,885.918 1170.4,893.763 1142.02,914.127 1214.87,863.535 1217.28,857.68 1189.11,861.931 1171.4,876.929 1184.13,870.974 1306.27,796.643 1332.26,781.849 1343.75,757.682 1347.67,750.359 1284.86,805.007 1287.56,791.932 1198.74,871.069 1274.07,825.163 1278.99,810.817 1176.9,878.901 1221.82,857.767 1263.77,840.209 1283.69,828.03 1367.7,752.637 1290.14,802.74 1148.86,899.174 1132.2,915.559 1162.39,901.806 1143.84,914.671 1243.4,844.561 1148.4,909.738 1145.93,901.782 1150.27,901.945 1200.59,880.671 1130.33,932.993 1197.86,897.989 1197.44,880.367 1214.01,860.163 1183.71,881.9 1167.19,889.365 1127.43,923.04 1139.81,928.193 1056.17,974.133 972.333,1033.74 1070.28,979.803 1114.48,943.755 1160.34,906.94 1174.1,894.452 1081.8,950.31 1088.02,956.939 1087.62,945.358 1120.68,928.131 1018.74,998.156 986.859,1011.47 1030.94,991.995 1066.44,969.488 1118.2,927.576 1158.51,904.591 1182.61,878.887 1228.23,851.783 1264.71,802.672 1287.42,800.384 1274.44,811.288 1340.27,765.719 1358.81,744.611 1246.45,819.485 1269.09,806.902 1288.51,786.325 1176.85,877.344 1168.31,888.231 1197.87,871.265 1127.36,909.931 1129.96,907.651 1085.34,952.205 1080.86,957.256 1133.2,931.915 1010.14,1014 1066.08,975.35 1027.73,992.206 1005.23,1008.91 935.455,1042.8 974.33,1030.46 1004.01,1017.29 1026.41,1004.26 1018.02,1008.79 1025.78,1008.7 995.232,1016.86 1078.03,970.908 1118.27,938.5 1156.67,916.372 1238.14,854.215 1189.54,874.116 1119.82,922.111 1217.76,860.485 1196.26,877.509 1178.96,888.305 1170.67,872.385 1218.19,844.62 1195.82,864.326 1161.52,892.67 1233.24,858.877 1313.01,796.372 1434.82,703.993 1403.2,723.911 1448.68,677.281 1520.94,619.236 1317.7,766.155 1272.75,805.946 1217.81,843.617 1222.94,846.469 1225.45,837.502 1304.94,789.315 1388.91,707.157 1311.72,774.721 1279.41,788.227 1274.69,815.967 1270.75,816.776 1306.3,795.613 1241.32,841.24 1201.06,873.521 1276.86,811.001 1259.91,824.022 1189.08,871.741 1172.52,883.654 1103.25,936.358 1158.17,906.08 1125.38,930.926 1118.56,929.946 1116.16,934.519 1225.53,864.204 1288.15,819.028 1269.81,810.711 1238.91,827.452 1246.73,826.738 1239.08,847.197 1155.23,895.243 1115.99,921.585 1115.05,927.286 1129.73,920.091 1093.13,953.162 1120.41,936.387 1099.35,960.212 1121.43,931.652 1079.66,957.41 1150.25,909.877 1160.99,900.885 1254.25,817.54 1207.73,850.557 1285.16,795.957 1352.31,748.066 1308.04,776.773 1325.48,759.236 1370.56,729.726 1322.82,765.205 1293.69,799.949 1191.64,866.449 1202.86,857.738 1159.74,896.248 1107.92,929.206 1083.22,950.592 1096.43,950.201 1095.32,947.04 1065.7,969.51 1069.01,962.601 1101.53,942.526 1097,946.491 1088.68,948.135 1161.79,905.314 1207.2,883.331 1252.17,844.515 1191.77,874.86 1265.54,828.757 1409.4,728.882 1315.99,763.763 1312.96,772.342 1360.05,761.343 1363.2,740.095 1504.08,629.277 1518.33,623.908 1575.85,579.318 1639.51,504.938 1524.38,586.402 1447.66,652.584 1419.38,674.032 1465.43,643.654 1372.77,707.957 1294.84,779.629 1288.64,789.397 1318.86,776.382 1327.06,766.055 1367.22,747.237 1359.89,746.976 1393.3,696.697 1355.51,735.487 1414.31,694.378 1492.27,626.88 1542.7,589.422 1625.4,520.803 1629.74,500.653 1577.75,537.081 1539.67,566.882 1671.19,463.527 1461.12,614.062 1502.7,612.089 1410.26,676.406 1535.55,588.793 1480.1,617.795 1358,715.179 1272.85,782.295 1245.78,814.211 1205.18,852.445 1183.87,874.898 1136.22,908.912 1084.87,948.766 1091.86,946.8 1124.01,933.225 1091.46,954.919 1079.8,957.481 1056.57,970.039 986.555,1020.56 956.498,1040.71 923.533,1062.4 911.296,1067.89 877.025,1085.89 855.317,1098.44 887.577,1083.93 942.134,1052.47 894.015,1076.26 803.567,1122.35 785.413,1136.23 768.154,1148.1 767.088,1150.86 745.61,1161.8 745.3,1162.68 718.853,1176.21 747.148,1166.58 759.239,1162.38 788.63,1147.44 760.392,1157.89 748.701,1163.66 723.405,1176.84 758.859,1162.09 784.121,1151.44 834.211,1126.21 822.896,1127.56 799.847,1136.58 816.98,1126.76 935.681,1072.2 934.46,1065.97 905.496,1074.28 924.397,1067.53 893.057,1079.86 944.068,1055.74 900.401,1070.91 886.964,1080.4 897.039,1076 832.013,1109.9 916.19,1073.82 943.274,1061.1 966.66,1045.87 1043.83,997.427 1046.64,990.697 1126.42,942.817 1092.84,946.849 1108.56,938.522 1179.14,898.382 1129.07,929.125 1133.84,916.337 1184.81,880.51 1191.06,874.847 1161.44,901.406 1197.26,875.764 1180.78,891.863 1118.04,930.229 1260.39,828.239 1176.05,883.215 1228.36,858.38 1226.23,867.696 1345.22,770.428 1242.23,837.52 1223,852.497 1165.83,899.246 1217.34,868.504 1207.85,870.601 1193.08,873.556 1163.09,890.766 1214.2,854.433 1235.49,843.564 1328.49,774.798 1283.61,798.977 1394.42,728.731 1552.58,598.885 1469.45,638.322 1384.53,693.808 1401.57,714.215 1373.39,720.868 1401.53,711.96 1444.41,689.272 1500.42,635.866 1445.34,661.878 1425.79,680.048 1376.12,713.73 1243.19,817.379 1213.82,844.066 1233.53,839.054 1187.84,869.896 1171.73,885.344 1168.96,898.882 1181.04,892.112 1223.34,857.461 1243.12,839.237 1173.81,883.893 1136.5,908.219 1056.54,957.192 1155.64,908.969 1126.26,924.057 1187.44,881.844 1118.49,916.364 1048.12,965.796 1116.34,926.301 1006.23,987.404 1024.26,993.037 1006.46,1007.97 1016.43,1006.04 992.428,1026.68 973.181,1035.58 1002.25,1022.35 947.976,1047.25 916.867,1065.03 911.172,1072.18 1004.56,1018.43 1124.52,942.517 1133.91,930.423 1140.67,920.508 1153.75,911.98 1097.16,947.009 1195.77,890.357 1178.41,894.819 1184.52,876.831 1205.51,859.041 1144.62,905.483 1215.24,865.583 1160.92,904.238 1215.69,862.101 1243.39,840.238 1218.1,851.233 1351.04,745.188 1361.9,738.356 1422.78,698.015 1362.25,743.091 1393.02,714.258 1470.55,662.69 1378.92,719.702 1321.3,754.205 1302.47,774.812 1288.12,789.025 1214.32,852.602 1291.17,807.638 1221.61,853.284 1247.77,838.92 1167.02,888.265 1257.01,827.51 1262.44,816.362 1294.09,796.96 1239.62,845.131 1299.3,800.533 1460.84,671.718 1370.43,731.329 1439.15,675.195 1535.36,600.82 1483.75,621.851 1363.45,728.705 1258.08,806.35 1236.95,838.264 1279.72,813.733 1278.18,817.568 1280.97,810.939 1289.06,793.664 1282.65,795.309 1294.09,796.925 1280.31,812.214 1351.8,748.034 1258.26,801.703 1310.42,788.006 1318.5,783.747 1321.22,775.365 1326.28,768.81 1291.99,795.06 1322.81,773.678 1407.07,714.53 1454.45,669.489 1461.28,663.223 1440.42,672.813 1490.52,631.157 1560.9,569.683 1561.52,562.009 1511.8,585.274 1550.31,572.043 1444.21,663.536 1275.43,792.151 1272.06,800.956 1244.59,820.532 1243.34,825.708 1214.75,851.782 1330.29,775.618 1386.94,726.544 1320.92,764.227 1253.81,813.899 1330.75,770.457 1270.27,803.25 1240.19,825.025 1156.9,895.854 1118.73,923.314 1199.56,875.541 1191.23,874.63 1164.68,888.989 1158.38,904.725 1154.3,905.801 1179.96,870.751 1207.42,866.848 1299.01,805.017 1353.41,763.575 1362.31,751.537 1381.43,737.211 1343.16,744.409 1263.51,802.388 1293.75,786.064 1265.33,789.827 1351.52,710.799 1219.66,819.521 1256.85,812.758 1260.18,819.452 1383.1,746.238 1342.27,758.077 1309.38,774.22 1294.6,791.635 1244.39,819.42 1351.75,759.656 1333.41,755.262 1240.26,817.147 1244.07,816.662 1209.98,842.787 1120.79,906.152 1086.7,937.918 1114.19,934.482 1058.95,965.24 1129.04,923.396 1183.32,895.202 1254.15,836.405 1342.54,772.369 1344.02,763.228 1419.67,700.074 1427.46,688.347 1309.14,764.687 1211.49,839.355 1209.28,850.983 1186.41,874.577 1217.52,861.211 1232.4,848.245 1247.08,834.321 1358.73,771.192 1433.22,698.495 1526.54,626.688 1575.66,556.286 1551.14,565.249 1438.78,646.171 1491.19,617.365 1431.18,671.028 1458.56,645.347 1376.12,708.437 1389.46,706.607 1448.27,672.72 1461.44,660.499 1459.71,652.861 1444.86,661.292 1345.56,757.578 1372.34,732.978 1316.01,763.893 1283.34,792.051 1302.4,788.264 1294.02,797.562 1285.77,801.051 1249.09,825.659 1268.26,815.785 1343.15,765.017 1340.81,760.287 1388.21,728.837 1378.55,740.817 1328.49,773.476 1383.83,718.918 1457.14,651.079 1600.16,554.788 1712.94,429.748 1725.99,410.525 1694.01,435.958 1765.22,364.428 1727.26,399.293 1631.34,477.172 1587.81,519.084 1591.41,530.864 1525.93,581.834 1500.11,606.018 1392.45,688.531 1342.44,739.36 1284.85,787.625 1244.69,818.753 1233.28,834.631 1192.06,871.714 1191.42,876.856 1135.62,910.333 1067.57,960.058 1055.6,973.442 1041.44,982.856 1066.13,973.692 1050.89,981.754 1000.43,1003.27 1011.79,1003.26 986.08,1018.28 1071.16,968.093 1086.14,958.48 1098.07,949.128 1011.47,1001.64 1065.09,971.198 1153.49,920.732 1269.96,833.817 1242.76,839.962 1264.42,814.944 1315.22,781.248 1328.61,757.19 1392.97,716.217 1285.93,799.427 1254.49,830.03 1198.32,872.692 1229.2,842.967 1198.25,871.431 1280.86,806.359 1251.42,829.313 1202.04,863.1 1117.33,918.878 1149.87,899.338 1319.66,787.923 1288.19,808.874 1301.44,790.945 1340.44,763.414 1328.74,767.712 1284.95,806.274 1343.9,773.146 1446.89,682.522 1454.53,652.046 1489.75,619.188 1516.15,565.406 1421.36,655.99 1351.11,718.784 1301.94,767.349 1299.01,780.793 1310.78,780.547 1261.02,816.002 1250.52,828.51 1215.02,848.822 1222.4,833.33 1083.53,930.736 1097.34,941.57 1100.24,947.534 1156.84,916.602 1151.98,902.103 1199.32,880.237 1292.16,806.294 1302.04,799.164 1279.14,805.249 1272.12,807.168 1274.67,794.393 1241.47,828.652 1199.27,855.195 1186.48,864.823 1211.73,856.761 1370.13,744.9 1298.5,787.669 1264.64,814.318 1296.1,788.318 1263.49,818.753 1259.88,823.832 1342.46,759.522 1288.19,789.536 1331.59,767.384 1279.29,803.751 1377.23,729.308 1288.21,782.059 1307.79,769.538 1206.52,846.321 1259.01,824.43 1201.26,863.001 1305.14,800.091 1363.87,751.75 1371.67,731.156 1367.4,724.972 1351.45,735.061 1401.1,682.238 1351.31,731.261 1365.47,736.173 1391.34,724.343 1344.21,763.918 1322.2,768.712 1344.84,746.071 1324.47,765.18 1402.11,710.892 1549.62,595.716 1535.48,599.108 1453.05,659.361 1461.8,626.943 1444.14,657.408 1404,681.653 1476.81,635.683 1423.91,668.748 1684.9,481.947 1578.59,543.112 1630.43,492.695 1619.74,505.265 1627.66,506.06 1542.45,576.33 1520.28,593.864 1422.46,678.991 1360.14,725.334 1422.48,706.794 1448.51,669.989 1366.12,717.692 1425.53,684.3 1350.5,747.263 1516.15,619.574 1464.68,650.58 1483.94,631.796 1669.66,479.932 1645.12,474.687 1610.96,511.219 1583.95,545.762 1408.84,673.467 1469.81,648.009 1344.82,735.229 1445.22,675.788 1490.34,639.635 1493.3,634.267 1362.43,728.572 1502.2,634.905 1424.2,675.606 1559.7,548.702 1495.23,608.789 1591.01,552.515 1496.66,611.631 1536.66,573.221 1436.05,646.164 1327.03,737.357 1350.24,743.28 1282.48,790.933 1242.06,834.687 1215.88,850.806 1340.37,776.72 1393.04,729.34 1461.94,668.056 1440.63,678.412 1394.22,712.904 1410,696.866 1394.19,707.378 1265.36,812.567 1341.45,772.354 1233.39,831.89 1351.97,767.236 1475.35,659.977 1526.33,616.875 1515.39,609.41 1525.82,597.748 1506.53,614.147 1488.17,627.797 1697.05,459.285 1695.44,442.326 1568.2,534.062 1547.82,563.94 1563.23,553.311 1474.12,624.741 1457.23,643.338 1446.61,655.385 1458.55,652.425 1436.81,668.462 1490.39,632.633 1509.13,628.933 1513.68,613.799 1600.16,533.609 1487.59,610.772 1526.24,599.976 1468.69,636.045 1621.73,492.717 1558.69,557.849 1566.16,541.561 1494.33,597.03 1474,613.645 1401.1,680.508 1407.43,688.018 1372.46,722.788 1367.49,731.549 1288.8,789.946 1284.88,801.021 1361.48,758.394 1225.78,842.637 1231.57,835.986 1215.66,833.517 1287.97,801.12 1348.55,755.997 1493.69,633.689 1473.69,633.416 1502.87,622.666 1388.44,725.906 1501.48,645.403 1523.51,618.72 1517.05,609.916 1421.39,678.56 1379.23,710.445 1288.41,772.185 1205.54,842.343 1252.64,828.255 1373.68,756.739 1321.17,774.398 1384.62,735.388 1413.23,708.718 1401.11,705.895 1406.88,697.554 1486.22,645.356 1536.24,587.352 1589.47,537.42 1597.04,537.305 1632.9,488.833 1606.1,496.04 1548.12,527.089 1447.17,622.632 1409.5,665.019 1432.88,664.66 1503.95,622.653 1567.45,567.967 1627.95,513.486 1693.85,448.993 1670.3,447.442 1610.87,501.607 1555.28,552.142 1529.86,575.633 1391.09,676.074 1402.18,687.452 1410.31,695.067 1518.46,625.678 1434.75,674.848 1420.42,686.528 1298.45,779.503 1345.68,761.151 1252.73,820.9 1356.94,761.719 1399.6,725.768 1282.99,793.794 1176.97,857.256 1315.61,786.57 1327.98,768.212 1316.69,775.007 1308.69,784.048 1276.06,803.673 1257.13,816.227 1339.71,764.241 1347.27,751.966 1256.25,818.221 1175.34,873.764 1333.63,782.526 1315.74,788.071 1293.82,808.62 1438.66,698.731 1508.16,627.641 1414.96,686.64 1401.78,700.625 1327.25,750.18 1281.85,790.329 1323.07,770.317 1341.45,749.76 1281.14,788.93 1275.79,809.622 1255.64,817.064 1316.38,781.706 1404.63,711.886 1412.07,698.464 1355.77,734.302 1322.15,773.654 1266,810.883 1324.13,780.876 1300.72,789.091 1289.75,801.671 1262.35,821.917 1322.44,782.615 1277.81,804.392 1254.99,833.241 1274.99,819.932 1361.69,747.914 1380.55,727.599 1328.95,760.568 1324.41,763.523 1365.85,737.106 1525.8,619.414 1604.59,540.218 1551.75,565.238 1532.02,589.092 1373.83,709.61 1448.78,668.483 1495.21,635.082 1516.47,607.736 1497.55,619.037 1359.13,727.45 1281.47,785.001 1338.38,759.659 1560.24,603.092 1616.91,541.744 1565.02,552.449 1495.68,595.304 1484.48,624.288 1401.96,688.598 1415.36,679.051 1392.75,703.128 1451.31,663.397 1491.48,630.769 1455.98,638.104 1410.31,679.212 1411.2,687.484 1386.19,705.381 1432.1,672.298 1418.14,685.251 1447.55,666.16 1435.58,687.297 1261.3,811.05 1435.68,701.924 1360.03,757.913 1423.4,710.114 1511.89,623.512 1464.92,646.199 1539.89,600.055 1510.9,592.774 1559.57,560.763 1509.25,607.04 1451.14,653.218 1358.69,718.939 1392.67,707.42 1434.53,683.908 1561.85,574.847 1567.94,563.376 1592.41,526.036 1589.25,527.701 1485.35,617.582 1399.09,679.634 1325.97,746.209 1293.49,778.244 1265.92,804.52 1252.6,818.806 1280.93,805.352 1373.09,742.055 1476.79,663.639 1417.49,682.42 1356.03,727.372 1419.28,687.299 1467.54,638.851 1415.36,676.46 1409.49,682.834 1436.33,676.158 1466.5,644.712 1397.01,690.914 1352.7,743.969 1342.95,752.771 1300.8,784.158 1348.17,748.897 1366.61,729.378 1293.66,799.879 1211.31,850.89 1142.94,898.558 1207.89,868.64 1205.89,869.51 1278.71,820.495 1288.14,814.21 1349.12,756.432 1348.8,753.345 1332.98,762.443 1374.16,742.398 1358.45,751.213 1284.4,796.1 1209.7,855.183 1244.95,839.018 1228.24,850.232 1279.16,808.583 1340.34,772.806 1362.68,747.891 1324,773.345 1390.21,733.206 1478.62,670.123 1404.21,707.202 1372.33,722.343 1380.28,720.668 1437.23,686.696 1501.31,632.527 1544.58,595.68 1505.86,600.4 1583.4,550.183 1580.79,541.867 1541.9,571.143 1510.47,587.294 1510.67,597.155 1449.15,645.644 1415.27,689.027 1326.07,748.287 1338.09,748.514 1432.02,689.048 1446.85,669.86 1464.41,645.699 1374.07,693.883 1389.52,705.012 1425.51,677.797 1414.16,694.894 1334.68,758.723 1399.44,717.426 1292.42,786.005 1389.34,721.291 1422.96,682.086 1345.7,736.98 1252.78,815.371 1223.88,838.61 1280.85,810.501 1222.2,847.695 1190.7,871.051 1211.43,865.848 1089.95,942.656 1110.12,938.576 1144.6,910.335 1062.44,962.958 1095.49,950.684 1112.17,936.667 1107.92,949.614 1150.14,903.171 1212.45,859.367 1176,888.389 1248.36,834.883 1261.81,828.091 1278.07,815.985 1396.19,735.513 1392.64,714.791 1399.73,714.929 1421.9,688.166 1519.49,620.598 1551.08,592.675 1428.44,664.516 1438.84,660.578 1373.68,730.254 1351.65,744.344 1420.59,692.853 1414.95,700.025 1439.81,678.195 1436.95,670.053 1479.17,643.669 1444.74,685.39 1333.53,765.516 1255.51,825.768 1306.47,801.342 1300.36,800.628 1309.24,788.275 1386.96,747.763 1503.18,643.244 1410.79,693.948 1290.9,783.356 1372.44,745.665 1454.98,679.489 1506.37,636.986 1465.24,650.39 1509.91,605.388 1546,572.049 1447.63,649.435 1348.79,724.486 1292.27,773.569 1329.21,755.261 1376.24,726.663 1453.89,660.551 1406.88,683.287 1339.22,750.281 1306.76,768.825 1262.08,803.572 1163.03,868.859 1169.99,876.922 1125.74,911.22 1095.17,941.632 1144.24,917.626 1182.37,893.846 1213.43,869.071 1212.06,866.922 1260.03,823.747 1261.92,821.732 1236.6,839.447 1224.58,845.948 1215.76,857.077 1206.21,869.322 1426.96,721.01 1464.63,671.848 1515.33,605.809 1542.2,584.368 1568.84,553.263 1535.19,580.631 1474.84,639.783 1500.72,623.08 1647.34,516.128 1601.5,519.782 1666.54,469.413 1661.06,439.172 1618.89,487.396 1713.01,417.961 1727.63,385.784 1742.57,377.574 1642.21,451.634 1595.5,498.036 1587.02,515.697 1470.34,607.295 1467.98,630.152 1416.8,673.159 1488.66,636.532 1466.27,653.868 1550.12,597.557 1505.96,615.663 1562.79,562.042 1537.27,579.558 1449.74,648.824 1528.64,597.022 1431.01,662.246 1316.09,754.858 1295.2,780.886 1261.14,812.738 1302.11,794.982 1322.18,775.411 1297.7,780.758 1280.73,798.712 1350.39,757.763 1379.37,731.796 1405.43,703.951 1365.43,728.435 1366.97,737.256 1423.15,700.637 1392.32,708.12 1380.21,723.19 1448.18,670.568 1417.04,688.24 1424.35,694.515 1319.77,781.738 1376.41,738.962 1286.56,791.615 1352.78,742.866 1413.22,679.624 1334.41,743.31 1389.88,698.067 1523.11,602.821 1415.9,688.104 1372.17,726.594 1273.92,802.078 1335.88,765.6 1222.44,851.928 1158.54,889.47 1129.8,915.813 1111.5,931.522 1108.08,938.307 1133.79,926.431 1135.71,921.303 1178.03,895.242 1315.61,806.199 1381.71,758.046 1456.65,686.625 1390.63,712.335 1321.08,762.668 1372.01,720.939 1400.69,707.091 1473.08,642.519 1384.87,698.885 1369.85,721.675 1323.73,755.024 1404.75,712.035 1445.17,676.707 1466.55,653.081 1403.87,687.245 1399.55,702.435 1262.38,790.666 1237.6,826.944 1167.7,878.373 1137.43,907.846 1182.22,887.272 1199.85,875.434 1265.85,834.368 1294.73,804.224 1291.99,792.242 1238.2,826.668 1294.74,801.523 1240.67,831.183 1186.43,868.207 1221.8,856.497 1255.38,824.877 1239.71,843.893 1349.25,755.658 1319.09,769.869 1296.57,806.781 1346.11,770.635 1303.21,776.585 1353.48,743.135 1522.24,606.714 1557.29,579.103 1544.13,575.574 1549.87,565.783 1535.18,578.861 1405.99,679.107 1424.96,671.29 1424.49,680.512 1349.34,737.887 1335.86,748.843 1345.77,753.067 1410.31,704.805 1380.01,718.292 1364.2,736.473 1219.22,844.363 1274.63,814.074 1258.21,823.736 1272.38,821.855 1295.08,813.811 1331.66,760.261 1473.68,669.285 1486.54,635.366 1448.48,659.425 1581.16,570.017 1622.62,526.735 1608.66,524.278 1671.56,462.607 1648.97,478.923 1658.05,465.508 1655.74,460.329 1590.27,516.121 1584.62,529.604 1658.23,482.574 1568.8,542.802 1507.79,598.702 1540.21,580.649 1539.4,578.576 1391.18,686.314 1304.16,759.907 1446.97,685.486 1470.19,665.619 1422.76,684.398 1439.99,670.87 1505.74,625.775 1511.3,612.71 1507.35,623.445 1437.2,662.654 1368.02,715.061 1447.52,665.461 1443.68,652.988 1397.47,698.209 1415.94,694.643 1325.37,755.55 1474.71,650.874 1402.55,700.049 1343.48,723.927 1322.98,758.319 1201.92,846.386 1252.3,822.024 1206.29,861.435 1169.99,889.559 1200.87,874.409 1147.68,903.498 1167.6,903.49 1222.82,862.045 1155.08,905.929 1213.96,873.473 1171.5,887.242 1061.66,961.185 1078.14,952.767 1048.86,970.767 1078.65,961.909 1130.21,926.366 1084.76,953.415 1075.94,960.843 1075.31,957.451 1021.27,990.228 970.129,1021.28 985.101,1026.04 1010.4,1009.13 1039.13,997.623 998.247,1011.66 1027.81,991.016 1067.2,972.565 1088.4,950.12 1015.07,1002.47 1064.12,967.065 1041.76,986.502 1070.17,967.303 1132.55,923.019 1132.34,924.581 1203.16,880.048 1276.62,826.249 1286.44,809.717 1311.69,789.361 1223.26,830.669 1196.76,851.902 1211.93,853.735 1139.28,907.664 1166.31,893.322 1282.31,806.127 1332.56,764.63 1355.37,749.229 1326.5,767.081 1530.3,605.009 1548.36,574.937 1553.72,565.754 1640.7,495.94 1622.38,488.388 1465.7,619.375 1514.43,595.72 1437.58,653.595 1450.36,658.486 1499.65,624.297 1479.02,637.201 1509.2,622.904 1712.01,469.563 1558.35,548.157 1476.67,613.307 1436.46,651.094 1381.13,697.24 1335.5,744.365 1317.96,763.407 1335.96,763.447 1369.83,736.93 1338.81,761.047 1385.86,713.418 1524,612.003 1496.06,630.122 1483.6,624.646 1339.23,735.792 1499.8,643.336 1385.95,718.48 1324.48,760.014 1386.06,717.226 1350.27,732.528 1277.34,803.601 1253.61,823.651 1247.42,832.094 1203.04,865.578 1225.21,853.178 1184.78,879.818 1126.67,915.583 1056.07,969.724 1085.96,957.949 1158.28,917.579 1311,816.12 1375.13,756.395 1410.26,717.059 1458.33,669.146 1404.64,699.923 1438.94,678.588 1419.87,684.51 1517.7,614.54 1426.73,677.642 1537.75,594.852 1466.81,636.415 1538.68,581.037 1620.34,533.011 1491.09,628.734 1500.4,610.293 1371.34,706.655 1261.49,796.967 1288.42,792.331 1208.64,850.384 1216.96,852.176 1311.2,793.668 1311.43,786.08 1210.2,862.112 1177.64,876.662 1203.1,862.667 1135.19,911.671 1199.4,873.273 1155.48,894.853 1165.27,894.326 1222.12,848.907 1290.52,809.654 1389.55,733.718 1307.47,781.463 1350.31,751.63 1341.79,754.334 1457.72,697.052 1364.05,762.116 1390.45,736.694 1413.77,698.615 1393.02,708.911 1343.55,748.03 1340.49,763.269 1419.17,699.373 1413.89,699.996 1362.07,749.983 1356.9,754.243 1299.78,788.168 1294.14,794.203 1220.57,842.495 1228.19,840.657 1292.62,802.933 1227.73,860.716 1233.74,846.265 1229.53,842.184 1248.24,844.163 1228.81,857.456 1217.57,876.831 1158.17,922.626 1223.4,877.727 1178.09,905.481 1101.22,952.668 1097.89,959.476 1162.16,917.969 1207.48,872.284 1139.54,903.545 1078.05,956.105 1105.48,942.978 1237.59,862.509 1216.88,858.208 1210.11,847.992 1143.81,902.152 1114.48,919.226 1051.45,963.342 987.848,1012.29 957.101,1031.63 967.069,1034.54 949.45,1046.06 928.094,1055.49 895.875,1076.25 955.854,1043.69 935.018,1053 1013.6,1009.47 1080.7,970.659 1112.61,946.52 1111.11,939.503 1064.64,960.348 1090.29,950.591 1097.7,950.481 1134.02,931.931 1251.4,849.282 1227.7,850.628 1203.18,870.127 1201.16,870.789 1158.47,900.64 1187.25,879.43 1166.87,887.491 1195.97,868.18 1183.36,885.686 1153.07,906.703 1234.03,848.106 1285.51,795.079 1374.55,740.705 1340.43,762.69 1347.32,748.616 1355.06,743.536 1380.18,713.022 1469.99,637.767 1543.54,561.899 1665.38,453.464 1652.84,471.961 1630.62,480.536 1576.32,534.404 1468.49,618.221 1432.3,664.651 1424.01,680.989 1400.68,702.108 1416.38,683.965 1312.66,770.012 1287.88,798.336 1255.56,830.498 1285.93,814.467 1229.77,850.286 1256.89,825.725 1221.95,852.479 1307.86,800.325 1166.78,893.401 1184.31,882.06 1157.01,908.749 1153.14,906.993 1140.9,913.395 1047.81,970.56 1062.58,955.402 1085.14,932.832 1113.88,915.866 1184.64,878.796 1182.85,869.789 1265.14,813.937 1167.1,900.75 1183.01,892.999 1156.34,915.833 1115.16,933.224 1072.94,962.01 1131.85,919.781 1187.77,869.198 1270.11,830.827 1303.37,781.373 1356.95,745.455 1436.21,684.562 1485.49,638.225 1527.05,602.457 1355.61,726.323 1384.25,707.049 1459.76,649.84 1597.79,535.703 1519.86,588.616 1593.12,526.55 1522.72,596.545 1537.73,586.704 1563.06,566.864 1514.64,602.646 1583.43,560.314 1511.37,605.304 1445.22,664.025 1360.24,723.636 1476,640.464 1432.61,682.268 1530.83,608.506 1457.28,671.186 1550.91,589.138 1487.31,641.528 1616.92,522.26 1546.56,588.312 1484.47,634.968 1535.41,590.726 1547.86,559.615 1569.41,553.358 1535.47,584.412 1610.3,521.123 1593.89,544.748 1491.23,631.538 1504.71,624.194 1580.11,553.784 1549.57,570.586 1547.43,553.879 1501.28,603.263 1458.55,651.392 1538.43,606.197 1552.85,582.061 1672.89,487.192 1710.56,410.58 1700.38,415.54 1608.67,486.808 1571.49,531.271 1549.99,554.156 1524.75,572.6 1404.47,663.6 1434.1,666.492 1378.51,716.998 1436.37,680.75 1395.21,710.806 1384.68,719.56 1389.15,718.638 1552.04,604.803 1442.52,663.336 1472.98,641.521 1515.14,602.212 1579.87,534.995 1568.4,566.335 1670.34,479.967 1553.21,551.065 1544.17,556.524 1451.25,633.711 1396.82,684.245 1414.83,682.303 1329.73,755.253 1342.57,752.858 1285.81,791.589 1389.33,724.47 1269.9,803.182 1290.55,795.081 1363.95,745.281 1212.53,866.27 1154.95,892.059 1212.65,861.292 1234.36,851.676 1174.88,879.673 1117.07,907.462 1055.83,946.841 1087.28,942.137 1271.86,832.622 1245.22,842.788 1357.16,773.948 1465.19,679.48 1492.46,644.765 1531.93,603.302 1436.53,664.646 1389.85,697.873 1411.61,695.075 1359.99,733.946 1475.24,665.656 1428.12,686.043 1366.32,721.045 1391.48,723.489 1259.34,810.269 1183.23,865.661 1329.56,789.44 1243.74,834.707 1158.72,890.738 1089.07,934.122 1044.68,967.888 1013.09,996.401 1014.11,999.399 1051.86,982.526 1044.5,982.245 1056.02,971.766 1059.5,969.325 1055.18,973.079 1002.05,1002.9 1031.96,990.497 1080.99,969.645 1119.44,942.209 1052,975.645 1084.9,960.171 1081.33,959.696 1037.43,983.722 1044.68,975.439 1079.11,965.567 1022.6,1000.76 1071.74,964.537 1049.68,974.43 1086.08,950.434 1178.81,882.939 1230.04,851.246 1203.11,870.575 1292.22,819.943 1370.92,751.625 1335.62,754.133 1405.38,697.675 1381.91,733.563 1395.05,728.196 1358.75,755.883 1426.47,673.492 1382.44,706.869 1305.48,768.758 1239.13,822.952 1200.9,851.801 1202.64,860.314 1097.49,930.833 1125.94,926.357 1100.48,937.512 1016.16,994.749 1133.89,934.4 1139.31,912.517 1181,889.582 1176.06,889.688 1190.2,881.489 1291.47,805.675 1279.71,808.814 1345.73,760.939 1322.15,770.058 1333.69,763.75 1281.55,801.267 1292.62,786.829 1282.79,790.929 1350.08,744.569 1464.89,651.174 1531.93,598.914 1358.8,728.557 1370.25,739.18 1344.04,746.41 1415.77,696.516 1407.72,678.304 1376.1,700.835 1470.97,648.94 1467.6,653.046 1306.63,773.686 1320.08,767.951 1325.87,773.21 1421.58,681.302 1374.97,721.212 1246.76,825.377 1191.52,864.612 1263.03,832.805 1180.06,881.744 1182.02,884.596 1238.08,837.502 1254.33,835.911 1176.35,897.735 1151.5,906.978 1240.1,864.953 1153.75,906.471 1098.35,936.807 1153.72,914.725 1147.86,919.237 1142.75,927.663 1105.41,948.677 1236.89,862.374 1235.64,857.987 1178.68,893.354 1168.77,887.901 1153.14,900.037 1199.49,879.476 1243.56,839.264 1176.3,885.197 1262.08,827.494 1310.15,785.597 1409.47,714.611 1389.82,706.809 1288.23,785.912 1261.24,825.216 1246.4,833.009 1333.52,771.338 1392.73,725.48 1384.21,711.608 1352.66,733.403 1358.99,742.404 1364.74,733.879 1422.95,705.666 1429.52,659.943 1434.35,662.493 1439.53,662.764 1621.53,538.973 1698.43,471.903 1644.54,495.558 1606.67,511.988 1531.35,572.129 1553.81,573.31 1546.57,575.259 1549.64,571.094 1593.7,536.959 1634.01,497.138 1614.98,512.708 1627.44,510.41 1422.02,674.82 1449.36,663.546 1426.7,679.965 1416.55,690.502 1421.87,680.957 1338.71,744.06 1316.12,769.018 1289.9,792.612 1374.86,737.055 1328.26,756.23 1258.19,811.429 1348.59,757.742 1378.61,726.568 1282.02,787.293 1406.52,714.043 1326.04,769.809 1218.07,844.468 1212.87,853.208 1233.72,844.179 1207.26,858.59 1255.73,816.079 1201.69,849.104 1325.82,776.293 1369.51,743.698 1343.02,748.908 1373.77,728.144 1474.15,625.878 1389.79,681.389 1356.68,718.883 1301.09,762.76 1242.37,813.573 1250.26,819.426 1252.17,821.35 1222.97,842.841 1182.7,874.951 1237.93,853.566 1234.42,851.508 1215.09,860.924 1230.71,848.328 1306.11,790.671 1329.45,774.024 1333.79,769.251 1397.05,727.154 1367.62,727.146 1261.05,811.857 1257.49,804.43 1212.52,833.541 1316.65,770.287 1246.58,826.255 1238.01,835.036 1270.68,816.222 1258.6,822.953 1337.64,768.704 1321.54,797.956 1367.12,762.714 1446.42,678.691 1479.23,639.638 1435.61,668.123 1479.58,648.694 1512.71,649.762 1513.8,623.282 1519.96,616.027 1637.16,485.974 1642.81,487.084 1545.15,568.615 1583.61,540.464 1453.95,636.601 1416.06,672.293 1536.11,596.84 1386.63,695.113 1325.59,745.511 1283.83,783.167 1352.59,742.815 1283.6,794.379 1326.12,777.71 1322.65,780.276 1209.91,841.537 1206.26,845.934 1293.99,802.215 1232.89,842.085 1322.41,782.465 1257.44,817.856 1227.37,844.485 1220.07,848.831 1215.84,853.689 1270.28,823.642 1312.03,791.739 1216.41,846.435 1199.98,861.387 1228.19,847.056 1245.23,831.535 1129.76,910.406 1151.51,890.888 1170.63,885.977 1256.37,833.169 1217.52,842.416 1223.15,857.442 1254.88,839.06 1234.24,831.881 1295.18,812.179 1347.76,765.165 1374.13,737.845 1291.59,813.844 1387.45,753.286 1281.44,831.728 1283.08,836.715 1337.6,788.449 1240.91,847.289 1318.27,791.175 1368.15,724.792 1410.87,706.504 1465.18,653.048 1506.42,616.058 1493.02,613.394 1392.28,694.482 1436.23,672.611 1400.49,698.95 1451.23,664.869 1463.89,647.344 1413.59,687.154 1469.67,647.36 1379.07,716.112 1431.19,684.831 1374.35,712.683 1308.9,762.158 1421.96,702.448 1331.36,755.513 1347.77,751.364 1414.83,706.235 1272.27,800.864 1198.98,863.201 1222.36,859.725 1195.01,880.153 1269.9,823.966 1232.39,854.828 1295.76,810.302 1247.35,832.552 1174.64,882.095 1080.42,950.727 1058.21,972.021 1067.48,968.119 1119.44,934.589 1147.27,907.618 1129.75,923.165 1153.83,912.639 1090.22,956.29 1036.03,983.707 1009.19,996.736 974.584,1022.37 964.707,1028.86 934.796,1047.12 945.34,1047.93 982.472,1024.31 1031.12,998.243 1092.79,961.68 1078.55,966.66 1079.13,959.343 1111.1,944.949 1161.9,906.706 1114.37,932.992 1087.39,952.559 1053.07,964.826 1035.13,983.63 1073.1,968.131 1067.39,970.62 1008.56,1011.44 972.324,1033.39 971.251,1039.01 1025.63,998.941 1066.76,976.049 986.011,1016.72 1023.81,1000.15 1071.97,969.097 1143.76,919.037 1135.36,922.034 1104.51,937.412 1116.52,927.298 1186.08,896.33 1284.15,829.245 1359.28,762.091 1383.48,743.911 1289.67,802.888 1246.39,830.137 1254.85,839.392 1215.85,861.46 1220.56,844.417 1228.8,836.264 1185.06,873.217 1304.22,801.572 1314.76,779.848 1394.16,720.964 1234.39,833.869 1146.72,912.035 1099.95,943.476 1055.6,967.975 1015.46,999.069 958.195,1033.36 1018.6,1002.54 1079.57,966.69 1121.35,944.63 1048.57,987.997 1116.02,945.949 1146.3,923.092 1146.55,922.114 1114.61,945.753 1022.37,994.856 1116.63,938.212 1169.19,902.674 1231.09,852.269 1317.46,794.938 1293.08,811.685 1253.39,834.555 1324.89,778.345 1290.32,815.668 1248.34,822.031 1252.88,827.238 1217.94,854.884 1197.8,873.893 1268.05,818.035 1285.67,795.531 1398.43,720.579 1374.45,732.96 1295.44,794.895 1378.89,720.965 1470.93,640.523 1408.01,680.478 1304.36,769.741 1243.62,821.619 1228.15,831.649 1155.85,895.105 1167.23,892.37 1196.83,873.686 1243.61,838.9 1194.25,870.33 1325.32,797.368 1232.63,845.356 1282.51,816.274 1273.78,816.074 1296.58,794.645 "/>
<path clip-path="url(#clip990)" d="M228.998 198.898 L588.673 198.898 L588.673 95.2176 L228.998 95.2176  Z" fill="#ffffff" fill-rule="evenodd" fill-opacity="1"/>
<polyline clip-path="url(#clip990)" style="stroke:#000000; stroke-linecap:round; stroke-linejoin:round; stroke-width:4; stroke-opacity:1; fill:none" points="228.998,198.898 588.673,198.898 588.673,95.2176 228.998,95.2176 228.998,198.898 "/>
<polyline clip-path="url(#clip990)" style="stroke:#009af9; stroke-linecap:round; stroke-linejoin:round; stroke-width:4; stroke-opacity:1; fill:none" points="253.409,147.058 399.875,147.058 "/>
<path clip-path="url(#clip990)" d="M434.911 128.366 Q431.809 133.69 430.305 138.898 Q428.8 144.106 428.8 149.453 Q428.8 154.801 430.305 160.055 Q431.832 165.287 434.911 170.588 L431.207 170.588 Q427.735 165.148 425.999 159.893 Q424.286 154.639 424.286 149.453 Q424.286 144.291 425.999 139.06 Q427.712 133.828 431.207 128.366 L434.911 128.366 Z" fill="#000000" fill-rule="nonzero" fill-opacity="1" /><path clip-path="url(#clip990)" d="M464.726 138.412 L455.351 151.027 L465.212 164.338 L460.189 164.338 L452.642 154.152 L445.096 164.338 L440.073 164.338 L450.142 150.773 L440.929 138.412 L445.953 138.412 L452.828 147.648 L459.703 138.412 L464.726 138.412 Z" fill="#000000" fill-rule="nonzero" fill-opacity="1" /><path clip-path="url(#clip990)" d="M472.318 158.458 L477.202 158.458 L477.202 162.439 L473.406 169.847 L470.42 169.847 L472.318 162.439 L472.318 158.458 Z" fill="#000000" fill-rule="nonzero" fill-opacity="1" /><path clip-path="url(#clip990)" d="M497.087 166.745 Q495.281 171.375 493.568 172.787 Q491.855 174.199 488.985 174.199 L485.582 174.199 L485.582 170.634 L488.082 170.634 Q489.841 170.634 490.813 169.8 Q491.786 168.967 492.966 165.865 L493.73 163.921 L483.244 138.412 L487.758 138.412 L495.86 158.689 L503.962 138.412 L508.475 138.412 L497.087 166.745 Z" fill="#000000" fill-rule="nonzero" fill-opacity="1" /><path clip-path="url(#clip990)" d="M515.443 158.458 L520.327 158.458 L520.327 162.439 L516.531 169.847 L513.545 169.847 L515.443 162.439 L515.443 158.458 Z" fill="#000000" fill-rule="nonzero" fill-opacity="1" /><path clip-path="url(#clip990)" d="M527.573 138.412 L547.804 138.412 L547.804 142.301 L531.785 160.935 L547.804 160.935 L547.804 164.338 L526.994 164.338 L526.994 160.449 L543.012 141.815 L527.573 141.815 L527.573 138.412 Z" fill="#000000" fill-rule="nonzero" fill-opacity="1" /><path clip-path="url(#clip990)" d="M553.637 128.366 L557.341 128.366 Q560.813 133.828 562.526 139.06 Q564.262 144.291 564.262 149.453 Q564.262 154.639 562.526 159.893 Q560.813 165.148 557.341 170.588 L553.637 170.588 Q556.716 165.287 558.22 160.055 Q559.748 154.801 559.748 149.453 Q559.748 144.106 558.22 138.898 Q556.716 133.69 553.637 128.366 Z" fill="#000000" fill-rule="nonzero" fill-opacity="1" /></svg>
