<?xml version="1.0" encoding="utf-8"?>
<svg xmlns="http://www.w3.org/2000/svg" xmlns:xlink="http://www.w3.org/1999/xlink" width="600" height="400" viewBox="0 0 2400 1600">
<defs>
  <clipPath id="clip160">
    <rect x="0" y="0" width="2400" height="1600"/>
  </clipPath>
</defs>
<path clip-path="url(#clip160)" d="M0 1600 L2400 1600 L2400 0 L0 0  Z" fill="#ffffff" fill-rule="evenodd" fill-opacity="1"/>
<defs>
  <clipPath id="clip161">
    <rect x="480" y="0" width="1681" height="1600"/>
  </clipPath>
</defs>
<path clip-path="url(#clip160)" d="M147.478 1423.18 L2352.76 1423.18 L2352.76 47.2441 L147.478 47.2441  Z" fill="#ffffff" fill-rule="evenodd" fill-opacity="1"/>
<defs>
  <clipPath id="clip162">
    <rect x="147" y="47" width="2206" height="1377"/>
  </clipPath>
</defs>
<polyline clip-path="url(#clip162)" style="stroke:#000000; stroke-linecap:round; stroke-linejoin:round; stroke-width:2; stroke-opacity:0.1; fill:none" points="147.478,1423.18 147.478,47.2441 "/>
<polyline clip-path="url(#clip162)" style="stroke:#000000; stroke-linecap:round; stroke-linejoin:round; stroke-width:2; stroke-opacity:0.1; fill:none" points="588.534,1423.18 588.534,47.2441 "/>
<polyline clip-path="url(#clip162)" style="stroke:#000000; stroke-linecap:round; stroke-linejoin:round; stroke-width:2; stroke-opacity:0.1; fill:none" points="1029.59,1423.18 1029.59,47.2441 "/>
<polyline clip-path="url(#clip162)" style="stroke:#000000; stroke-linecap:round; stroke-linejoin:round; stroke-width:2; stroke-opacity:0.1; fill:none" points="1470.64,1423.18 1470.64,47.2441 "/>
<polyline clip-path="url(#clip162)" style="stroke:#000000; stroke-linecap:round; stroke-linejoin:round; stroke-width:2; stroke-opacity:0.1; fill:none" points="1911.7,1423.18 1911.7,47.2441 "/>
<polyline clip-path="url(#clip162)" style="stroke:#000000; stroke-linecap:round; stroke-linejoin:round; stroke-width:2; stroke-opacity:0.1; fill:none" points="2352.76,1423.18 2352.76,47.2441 "/>
<polyline clip-path="url(#clip160)" style="stroke:#000000; stroke-linecap:round; stroke-linejoin:round; stroke-width:4; stroke-opacity:1; fill:none" points="147.478,1423.18 2352.76,1423.18 "/>
<polyline clip-path="url(#clip160)" style="stroke:#000000; stroke-linecap:round; stroke-linejoin:round; stroke-width:4; stroke-opacity:1; fill:none" points="147.478,1423.18 147.478,1404.28 "/>
<polyline clip-path="url(#clip160)" style="stroke:#000000; stroke-linecap:round; stroke-linejoin:round; stroke-width:4; stroke-opacity:1; fill:none" points="588.534,1423.18 588.534,1404.28 "/>
<polyline clip-path="url(#clip160)" style="stroke:#000000; stroke-linecap:round; stroke-linejoin:round; stroke-width:4; stroke-opacity:1; fill:none" points="1029.59,1423.18 1029.59,1404.28 "/>
<polyline clip-path="url(#clip160)" style="stroke:#000000; stroke-linecap:round; stroke-linejoin:round; stroke-width:4; stroke-opacity:1; fill:none" points="1470.64,1423.18 1470.64,1404.28 "/>
<polyline clip-path="url(#clip160)" style="stroke:#000000; stroke-linecap:round; stroke-linejoin:round; stroke-width:4; stroke-opacity:1; fill:none" points="1911.7,1423.18 1911.7,1404.28 "/>
<polyline clip-path="url(#clip160)" style="stroke:#000000; stroke-linecap:round; stroke-linejoin:round; stroke-width:4; stroke-opacity:1; fill:none" points="2352.76,1423.18 2352.76,1404.28 "/>
<path clip-path="url(#clip160)" d="M147.478 1454.1 Q143.867 1454.1 142.038 1457.66 Q140.233 1461.2 140.233 1468.33 Q140.233 1475.44 142.038 1479.01 Q143.867 1482.55 147.478 1482.55 Q151.112 1482.55 152.918 1479.01 Q154.746 1475.44 154.746 1468.33 Q154.746 1461.2 152.918 1457.66 Q151.112 1454.1 147.478 1454.1 M147.478 1450.39 Q153.288 1450.39 156.344 1455 Q159.422 1459.58 159.422 1468.33 Q159.422 1477.06 156.344 1481.67 Q153.288 1486.25 147.478 1486.25 Q141.668 1486.25 138.589 1481.67 Q135.534 1477.06 135.534 1468.33 Q135.534 1459.58 138.589 1455 Q141.668 1450.39 147.478 1450.39 Z" fill="#000000" fill-rule="nonzero" fill-opacity="1" /><path clip-path="url(#clip160)" d="M583.186 1481.64 L599.506 1481.64 L599.506 1485.58 L577.561 1485.58 L577.561 1481.64 Q580.223 1478.89 584.807 1474.26 Q589.413 1469.61 590.594 1468.27 Q592.839 1465.74 593.719 1464.01 Q594.621 1462.25 594.621 1460.56 Q594.621 1457.8 592.677 1456.07 Q590.756 1454.33 587.654 1454.33 Q585.455 1454.33 583.001 1455.09 Q580.571 1455.86 577.793 1457.41 L577.793 1452.69 Q580.617 1451.55 583.071 1450.97 Q585.524 1450.39 587.561 1450.39 Q592.932 1450.39 596.126 1453.08 Q599.32 1455.77 599.32 1460.26 Q599.32 1462.39 598.51 1464.31 Q597.723 1466.2 595.617 1468.8 Q595.038 1469.47 591.936 1472.69 Q588.834 1475.88 583.186 1481.64 Z" fill="#000000" fill-rule="nonzero" fill-opacity="1" /><path clip-path="url(#clip160)" d="M1032.6 1455.09 L1020.79 1473.54 L1032.6 1473.54 L1032.6 1455.09 M1031.37 1451.02 L1037.25 1451.02 L1037.25 1473.54 L1042.18 1473.54 L1042.18 1477.43 L1037.25 1477.43 L1037.25 1485.58 L1032.6 1485.58 L1032.6 1477.43 L1017 1477.43 L1017 1472.92 L1031.37 1451.02 Z" fill="#000000" fill-rule="nonzero" fill-opacity="1" /><path clip-path="url(#clip160)" d="M1471.05 1466.44 Q1467.9 1466.44 1466.05 1468.59 Q1464.22 1470.74 1464.22 1474.49 Q1464.22 1478.22 1466.05 1480.39 Q1467.9 1482.55 1471.05 1482.55 Q1474.2 1482.55 1476.03 1480.39 Q1477.88 1478.22 1477.88 1474.49 Q1477.88 1470.74 1476.03 1468.59 Q1474.2 1466.44 1471.05 1466.44 M1480.33 1451.78 L1480.33 1456.04 Q1478.57 1455.21 1476.77 1454.77 Q1474.98 1454.33 1473.23 1454.33 Q1468.6 1454.33 1466.14 1457.45 Q1463.71 1460.58 1463.36 1466.9 Q1464.73 1464.89 1466.79 1463.82 Q1468.85 1462.73 1471.33 1462.73 Q1476.54 1462.73 1479.55 1465.9 Q1482.58 1469.05 1482.58 1474.49 Q1482.58 1479.82 1479.43 1483.03 Q1476.28 1486.25 1471.05 1486.25 Q1465.05 1486.25 1461.88 1481.67 Q1458.71 1477.06 1458.71 1468.33 Q1458.71 1460.14 1462.6 1455.28 Q1466.49 1450.39 1473.04 1450.39 Q1474.8 1450.39 1476.58 1450.74 Q1478.39 1451.09 1480.33 1451.78 Z" fill="#000000" fill-rule="nonzero" fill-opacity="1" /><path clip-path="url(#clip160)" d="M1911.7 1469.17 Q1908.37 1469.17 1906.45 1470.95 Q1904.55 1472.73 1904.55 1475.86 Q1904.55 1478.98 1906.45 1480.77 Q1908.37 1482.55 1911.7 1482.55 Q1915.03 1482.55 1916.95 1480.77 Q1918.88 1478.96 1918.88 1475.86 Q1918.88 1472.73 1916.95 1470.95 Q1915.06 1469.17 1911.7 1469.17 M1907.02 1467.18 Q1904.02 1466.44 1902.33 1464.38 Q1900.66 1462.32 1900.66 1459.35 Q1900.66 1455.21 1903.6 1452.8 Q1906.56 1450.39 1911.7 1450.39 Q1916.86 1450.39 1919.8 1452.8 Q1922.74 1455.21 1922.74 1459.35 Q1922.74 1462.32 1921.05 1464.38 Q1919.39 1466.44 1916.4 1467.18 Q1919.78 1467.96 1921.65 1470.26 Q1923.55 1472.55 1923.55 1475.86 Q1923.55 1480.88 1920.47 1483.57 Q1917.42 1486.25 1911.7 1486.25 Q1905.98 1486.25 1902.9 1483.57 Q1899.85 1480.88 1899.85 1475.86 Q1899.85 1472.55 1901.75 1470.26 Q1903.64 1467.96 1907.02 1467.18 M1905.31 1459.79 Q1905.31 1462.48 1906.98 1463.98 Q1908.67 1465.49 1911.7 1465.49 Q1914.71 1465.49 1916.4 1463.98 Q1918.11 1462.48 1918.11 1459.79 Q1918.11 1457.11 1916.4 1455.6 Q1914.71 1454.1 1911.7 1454.1 Q1908.67 1454.1 1906.98 1455.6 Q1905.31 1457.11 1905.31 1459.79 Z" fill="#000000" fill-rule="nonzero" fill-opacity="1" /><path clip-path="url(#clip160)" d="M2327.44 1481.64 L2335.08 1481.64 L2335.08 1455.28 L2326.77 1456.95 L2326.77 1452.69 L2335.04 1451.02 L2339.71 1451.02 L2339.71 1481.64 L2347.35 1481.64 L2347.35 1485.58 L2327.44 1485.58 L2327.44 1481.64 Z" fill="#000000" fill-rule="nonzero" fill-opacity="1" /><path clip-path="url(#clip160)" d="M2366.8 1454.1 Q2363.18 1454.1 2361.36 1457.66 Q2359.55 1461.2 2359.55 1468.33 Q2359.55 1475.44 2361.36 1479.01 Q2363.18 1482.55 2366.8 1482.55 Q2370.43 1482.55 2372.23 1479.01 Q2374.06 1475.44 2374.06 1468.33 Q2374.06 1461.2 2372.23 1457.66 Q2370.43 1454.1 2366.8 1454.1 M2366.8 1450.39 Q2372.61 1450.39 2375.66 1455 Q2378.74 1459.58 2378.74 1468.33 Q2378.74 1477.06 2375.66 1481.67 Q2372.61 1486.25 2366.8 1486.25 Q2360.99 1486.25 2357.91 1481.67 Q2354.85 1477.06 2354.85 1468.33 Q2354.85 1459.58 2357.91 1455 Q2360.99 1450.39 2366.8 1450.39 Z" fill="#000000" fill-rule="nonzero" fill-opacity="1" /><path clip-path="url(#clip160)" d="M1249.18 1522.27 L1249.18 1532.4 L1261.24 1532.4 L1261.24 1536.95 L1249.18 1536.95 L1249.18 1556.3 Q1249.18 1560.66 1250.36 1561.9 Q1251.57 1563.14 1255.23 1563.14 L1261.24 1563.14 L1261.24 1568.04 L1255.23 1568.04 Q1248.45 1568.04 1245.87 1565.53 Q1243.29 1562.98 1243.29 1556.3 L1243.29 1536.95 L1238.99 1536.95 L1238.99 1532.4 L1243.29 1532.4 L1243.29 1522.27 L1249.18 1522.27 Z" fill="#000000" fill-rule="nonzero" fill-opacity="1" /><polyline clip-path="url(#clip162)" style="stroke:#000000; stroke-linecap:round; stroke-linejoin:round; stroke-width:2; stroke-opacity:0.1; fill:none" points="147.478,1308.51 2352.76,1308.51 "/>
<polyline clip-path="url(#clip162)" style="stroke:#000000; stroke-linecap:round; stroke-linejoin:round; stroke-width:2; stroke-opacity:0.1; fill:none" points="147.478,898.742 2352.76,898.742 "/>
<polyline clip-path="url(#clip162)" style="stroke:#000000; stroke-linecap:round; stroke-linejoin:round; stroke-width:2; stroke-opacity:0.1; fill:none" points="147.478,488.975 2352.76,488.975 "/>
<polyline clip-path="url(#clip162)" style="stroke:#000000; stroke-linecap:round; stroke-linejoin:round; stroke-width:2; stroke-opacity:0.1; fill:none" points="147.478,79.2077 2352.76,79.2077 "/>
<polyline clip-path="url(#clip160)" style="stroke:#000000; stroke-linecap:round; stroke-linejoin:round; stroke-width:4; stroke-opacity:1; fill:none" points="147.478,1423.18 147.478,47.2441 "/>
<polyline clip-path="url(#clip160)" style="stroke:#000000; stroke-linecap:round; stroke-linejoin:round; stroke-width:4; stroke-opacity:1; fill:none" points="147.478,1308.51 166.376,1308.51 "/>
<polyline clip-path="url(#clip160)" style="stroke:#000000; stroke-linecap:round; stroke-linejoin:round; stroke-width:4; stroke-opacity:1; fill:none" points="147.478,898.742 166.376,898.742 "/>
<polyline clip-path="url(#clip160)" style="stroke:#000000; stroke-linecap:round; stroke-linejoin:round; stroke-width:4; stroke-opacity:1; fill:none" points="147.478,488.975 166.376,488.975 "/>
<polyline clip-path="url(#clip160)" style="stroke:#000000; stroke-linecap:round; stroke-linejoin:round; stroke-width:4; stroke-opacity:1; fill:none" points="147.478,79.2077 166.376,79.2077 "/>
<path clip-path="url(#clip160)" d="M51.3625 1308.96 L81.0383 1308.96 L81.0383 1312.9 L51.3625 1312.9 L51.3625 1308.96 Z" fill="#000000" fill-rule="nonzero" fill-opacity="1" /><path clip-path="url(#clip160)" d="M95.1586 1321.85 L111.478 1321.85 L111.478 1325.79 L89.5336 1325.79 L89.5336 1321.85 Q92.1956 1319.1 96.7789 1314.47 Q101.385 1309.82 102.566 1308.47 Q104.811 1305.95 105.691 1304.22 Q106.594 1302.46 106.594 1300.77 Q106.594 1298.01 104.649 1296.28 Q102.728 1294.54 99.6261 1294.54 Q97.4271 1294.54 94.9734 1295.3 Q92.5428 1296.07 89.7651 1297.62 L89.7651 1292.9 Q92.5891 1291.76 95.0428 1291.18 Q97.4965 1290.6 99.5335 1290.6 Q104.904 1290.6 108.098 1293.29 Q111.293 1295.98 111.293 1300.47 Q111.293 1302.6 110.483 1304.52 Q109.696 1306.41 107.589 1309.01 Q107.01 1309.68 103.909 1312.9 Q100.807 1316.09 95.1586 1321.85 Z" fill="#000000" fill-rule="nonzero" fill-opacity="1" /><path clip-path="url(#clip160)" d="M50.9921 899.194 L80.6679 899.194 L80.6679 903.129 L50.9921 903.129 L50.9921 899.194 Z" fill="#000000" fill-rule="nonzero" fill-opacity="1" /><path clip-path="url(#clip160)" d="M91.5706 912.087 L99.2095 912.087 L99.2095 885.722 L90.8993 887.388 L90.8993 883.129 L99.1632 881.462 L103.839 881.462 L103.839 912.087 L111.478 912.087 L111.478 916.022 L91.5706 916.022 L91.5706 912.087 Z" fill="#000000" fill-rule="nonzero" fill-opacity="1" /><path clip-path="url(#clip160)" d="M99.5335 474.774 Q95.9224 474.774 94.0937 478.339 Q92.2882 481.88 92.2882 489.01 Q92.2882 496.116 94.0937 499.681 Q95.9224 503.223 99.5335 503.223 Q103.168 503.223 104.973 499.681 Q106.802 496.116 106.802 489.01 Q106.802 481.88 104.973 478.339 Q103.168 474.774 99.5335 474.774 M99.5335 471.07 Q105.344 471.07 108.399 475.677 Q111.478 480.26 111.478 489.01 Q111.478 497.737 108.399 502.343 Q105.344 506.926 99.5335 506.926 Q93.7234 506.926 90.6447 502.343 Q87.5892 497.737 87.5892 489.01 Q87.5892 480.26 90.6447 475.677 Q93.7234 471.07 99.5335 471.07 Z" fill="#000000" fill-rule="nonzero" fill-opacity="1" /><path clip-path="url(#clip160)" d="M91.5706 92.5526 L99.2095 92.5526 L99.2095 66.187 L90.8993 67.8536 L90.8993 63.5944 L99.1632 61.9277 L103.839 61.9277 L103.839 92.5526 L111.478 92.5526 L111.478 96.4877 L91.5706 96.4877 L91.5706 92.5526 Z" fill="#000000" fill-rule="nonzero" fill-opacity="1" /><polyline clip-path="url(#clip162)" style="stroke:#009af9; stroke-linecap:round; stroke-linejoin:round; stroke-width:4; stroke-opacity:1; fill:none" points="147.478,488.975 149.685,487.5 151.893,486.045 154.1,484.61 156.308,483.193 158.515,481.795 160.723,480.416 162.93,479.055 165.138,477.711 167.345,476.386 169.553,475.079 171.76,473.788 173.968,472.515 176.175,471.259 178.383,470.019 180.59,468.796 182.798,467.589 185.005,466.397 187.213,465.222 189.42,464.063 191.628,462.918 193.835,461.789 196.043,460.675 198.25,459.576 200.458,458.491 202.665,457.42 204.873,456.364 207.08,455.322 209.288,454.293 211.495,453.279 213.702,452.277 215.91,451.289 218.117,450.314 220.325,449.352 222.532,448.403 224.74,447.466 226.947,446.542 229.155,445.63 231.362,444.73 233.57,443.842 235.777,442.966 237.985,442.101 240.192,441.248 242.4,440.406 244.607,439.576 246.815,438.756 249.022,437.947 251.23,437.149 253.437,436.362 255.645,435.585 257.852,434.818 260.06,434.061 262.267,433.315 264.475,432.578 266.682,431.851 268.89,431.134 271.097,430.426 273.305,429.728 275.512,429.039 277.72,428.359 279.927,427.688 282.135,427.026 284.342,426.373 286.549,425.728 288.757,425.092 290.964,424.464 293.172,423.845 295.379,423.234 297.587,422.631 299.794,422.036 302.002,421.449 304.209,420.869 306.417,420.298 308.624,419.734 310.832,419.177 313.039,418.628 315.247,418.086 317.454,417.551 319.662,417.024 321.869,416.503 324.077,415.989 326.284,415.482 328.492,414.982 330.699,414.489 332.907,414.002 335.114,413.521 337.322,413.047 339.529,412.579 341.737,412.117 343.944,411.661 346.152,411.212 348.359,410.768 350.567,410.331 352.774,409.899 354.982,409.472 357.189,409.052 359.397,408.637 361.604,408.227 363.811,407.823 366.019,407.476 368.226,408.501 370.434,411.282 372.641,415.571 374.849,421.133 377.056,427.753 379.264,435.229 381.471,443.375 383.679,452.023 385.886,461.018 388.094,470.224 390.301,479.52 392.509,488.799 394.716,497.972 396.924,506.966 399.131,515.724 401.339,524.203 403.546,532.377 405.754,540.238 407.961,547.792 410.169,555.06 412.376,562.081 414.584,568.91 416.791,575.615 418.999,582.283 421.206,589.017 423.414,595.808 425.621,602.511 427.829,609.126 430.036,615.652 432.244,622.092 434.451,628.447 436.659,634.717 438.866,640.904 441.073,647.01 443.281,653.034 445.488,658.978 447.696,664.844 449.903,670.632 452.111,676.343 454.318,681.978 456.526,687.539 458.733,693.026 460.941,698.44 463.148,703.783 465.356,709.054 467.563,714.256 469.771,719.389 471.978,724.454 474.186,729.452 476.393,734.383 478.601,739.249 480.808,744.051 483.016,748.789 485.223,753.463 487.431,758.076 489.638,762.628 491.846,767.119 494.053,771.551 496.261,775.924 498.468,780.239 500.676,784.497 502.883,788.698 505.091,792.844 507.298,796.934 509.506,800.971 511.713,804.953 513.921,808.883 516.128,812.761 518.335,816.588 520.543,820.364 522.75,824.09 524.958,827.766 527.165,831.394 529.373,834.974 531.58,838.559 533.788,842.239 535.995,845.978 538.203,849.737 540.41,853.482 542.618,857.181 544.825,860.805 547.033,864.327 549.24,867.724 551.448,870.976 553.655,874.064 555.863,876.975 558.07,879.694 560.278,882.215 562.485,884.529 564.693,886.634 566.9,888.528 569.108,890.214 571.315,891.697 573.523,892.985 575.73,894.087 577.938,895.019 580.145,895.795 582.353,896.435 584.56,896.961 586.768,897.397 588.975,897.772 591.182,898.116 593.39,898.462 595.597,898.847 597.805,899.308 600.012,899.816 602.22,900.318 604.427,900.812 606.635,901.3 608.842,901.782 611.05,902.257 613.257,902.726 615.465,903.189 617.672,903.645 619.88,904.096 622.087,904.541 624.295,904.979 626.502,905.412 628.71,905.839 630.917,906.261 633.125,906.677 635.332,907.087 637.54,907.492 639.747,907.891 641.955,908.286 644.162,908.675 646.37,909.059 648.577,909.438 650.785,909.812 652.992,910.181 655.2,910.545 657.407,910.904 659.615,911.259 661.822,911.609 664.03,911.955 666.237,912.296 668.444,912.632 670.652,912.964 672.859,913.292 675.067,913.615 677.274,913.934 679.482,914.248 681.689,914.559 683.897,914.865 686.104,915.167 688.312,915.466 690.519,915.76 692.727,916.05 694.934,916.337 697.142,916.619 699.349,916.898 701.557,917.173 703.764,917.445 705.972,917.712 708.179,917.977 710.387,918.237 712.594,918.494 714.802,918.748 717.009,918.998 719.217,919.245 721.424,919.489 723.632,919.729 725.839,919.966 728.047,920.2 730.254,920.431 732.462,920.659 734.669,920.883 736.877,921.105 739.084,921.324 741.292,921.539 743.499,921.752 745.706,921.962 747.914,922.17 750.121,922.374 752.329,922.576 754.536,922.775 756.744,922.971 758.951,923.165 761.159,923.356 763.366,923.545 765.574,923.731 767.781,923.915 769.989,924.096 772.196,924.275 774.404,924.452 776.611,924.626 778.819,924.798 781.026,924.968 783.234,925.136 785.441,925.301 787.649,925.464 789.856,925.625 792.064,925.784 794.271,925.941 796.479,925.567 798.686,924.184 800.894,921.941 803.101,918.977 805.309,915.418 807.516,911.383 809.724,906.981 811.931,902.308 814.139,897.454 816.346,892.496 818.553,887.502 820.761,882.53 822.968,877.629 825.176,872.837 827.383,868.181 829.591,863.68 831.798,859.341 834.006,855.164 836.213,851.135 838.421,847.234 840.628,843.428 842.836,839.675 845.043,835.924 847.251,832.133 849.458,828.377 851.666,824.671 853.873,821.014 856.081,817.406 858.288,813.845 860.496,810.331 862.703,806.864 864.911,803.443 867.118,800.068 869.326,796.737 871.533,793.45 873.741,790.207 875.948,787.007 878.156,783.849 880.363,780.733 882.571,777.659 884.778,774.625 886.986,771.631 889.193,768.677 891.401,765.761 893.608,762.885 895.815,760.046 898.023,757.245 900.23,754.481 902.438,751.754 904.645,749.063 906.853,746.408 909.06,743.787 911.268,741.202 913.475,738.651 915.683,736.134 917.89,733.65 920.098,731.2 922.305,728.781 924.513,726.396 926.72,724.041 928.928,721.718 931.135,719.426 933.343,717.165 935.55,714.933 937.758,712.731 939.965,710.558 942.173,708.415 944.38,706.299 946.588,704.212 948.795,702.153 951.003,700.12 953.21,698.115 955.418,696.137 957.625,694.184 959.833,692.258 962.04,690.357 964.248,688.481 966.455,686.63 968.663,684.804 970.87,683.002 973.077,681.224 975.285,679.469 977.492,677.737 979.7,676.029 981.907,674.343 984.115,672.679 986.322,671.037 988.53,669.417 990.737,667.818 992.945,666.241 995.152,664.684 997.36,663.148 999.567,661.632 1001.77,660.137 1003.98,658.661 1006.19,657.205 1008.4,655.768 1010.6,654.351 1012.81,652.952 1015.02,651.571 1017.23,650.209 1019.43,648.865 1021.64,647.539 1023.85,646.23 1026.06,645.186 1028.26,645.753 1030.47,647.965 1032.68,651.632 1034.89,656.569 1037.09,662.605 1039.3,669.576 1041.51,677.332 1043.72,685.728 1045.92,694.633 1048.13,703.923 1050.34,713.487 1052.55,723.222 1054.75,733.035 1056.96,742.843 1059.17,752.575 1061.38,762.167 1063.58,771.566 1065.79,780.731 1068,789.628 1070.21,798.235 1072.41,806.539 1074.62,814.537 1076.83,822.237 1079.04,829.656 1081.24,836.822 1083.45,843.771 1085.66,850.551 1087.87,857.219 1090.07,863.843 1092.28,870.499 1094.49,877.257 1096.7,883.979 1098.9,890.611 1101.11,897.156 1103.32,903.613 1105.53,909.986 1107.73,916.273 1109.94,922.478 1112.15,928.6 1114.36,934.64 1116.56,940.601 1118.77,946.483 1120.98,952.287 1123.19,958.013 1125.39,963.664 1127.6,969.24 1129.81,974.743 1132.02,980.173 1134.22,985.53 1136.43,990.817 1138.64,996.034 1140.85,1001.18 1143.05,1006.26 1145.26,1011.27 1147.47,1016.22 1149.68,1021.1 1151.88,1025.91 1154.09,1030.67 1156.3,1035.35 1158.51,1039.98 1160.71,1044.55 1162.92,1049.05 1165.13,1053.49 1167.34,1057.88 1169.54,1062.21 1171.75,1066.48 1173.96,1070.69 1176.17,1074.84 1178.37,1078.95 1180.58,1082.99 1182.79,1086.99 1185,1090.93 1187.2,1094.82 1189.41,1098.65 1191.62,1102.44 1193.83,1106.17 1196.03,1109.86 1198.24,1113.5 1200.45,1117.08 1202.66,1120.63 1204.86,1124.12 1207.07,1127.57 1209.28,1130.97 1211.49,1134.33 1213.69,1137.64 1215.9,1140.91 1218.11,1144.13 1220.32,1147.32 1222.52,1150.46 1224.73,1153.56 1226.94,1156.62 1229.15,1159.63 1231.35,1162.61 1233.56,1165.55 1235.77,1168.45 1237.98,1171.31 1240.18,1174.13 1242.39,1175.99 1244.6,1175.97 1246.81,1174.28 1249.01,1171.1 1251.22,1166.63 1253.43,1161.02 1255.64,1154.46 1257.84,1147.07 1260.05,1139.02 1262.26,1130.44 1264.47,1121.44 1266.67,1112.14 1268.88,1102.65 1271.09,1093.06 1273.3,1083.45 1275.5,1073.9 1277.71,1064.48 1279.92,1055.24 1282.13,1046.22 1284.33,1037.47 1286.54,1029.01 1288.75,1020.85 1290.96,1013 1293.16,1005.47 1295.37,998.23 1297.58,991.269 1299.79,984.551 1301.99,978.036 1304.2,971.671 1306.41,965.396 1308.62,959.141 1310.82,952.824 1313.03,946.392 1315.24,940.01 1317.45,933.713 1319.65,927.5 1321.86,921.369 1324.07,915.319 1326.28,909.349 1328.48,903.459 1330.69,897.646 1332.9,891.911 1335.11,886.251 1337.31,880.667 1339.52,875.157 1341.73,869.72 1343.94,864.355 1346.14,859.061 1348.35,853.836 1350.56,848.681 1352.76,843.595 1354.97,838.575 1357.18,833.622 1359.39,828.735 1361.59,823.912 1363.8,819.153 1366.01,814.458 1368.22,809.824 1370.42,805.253 1372.63,800.741 1374.84,796.29 1377.05,791.898 1379.25,787.564 1381.46,783.288 1383.67,779.068 1385.88,774.905 1388.08,770.797 1390.29,766.743 1392.5,762.743 1394.71,758.797 1396.91,754.903 1399.12,751.06 1401.33,747.269 1403.54,743.528 1405.74,739.836 1407.95,736.194 1410.16,732.599 1412.37,729.053 1414.57,725.554 1416.78,722.101 1418.99,718.693 1421.2,715.331 1423.4,712.014 1425.61,708.74 1427.82,705.51 1430.03,702.322 1432.23,699.177 1434.44,696.073 1436.65,693.011 1438.86,689.989 1441.06,687.007 1443.27,684.064 1445.48,681.16 1447.69,678.295 1449.89,675.468 1452.1,672.678 1454.31,669.925 1456.52,667.209 1458.72,664.529 1460.93,661.884 1463.14,659.274 1465.35,656.699 1467.55,654.159 1469.76,651.68 1471.97,649.81 1474.18,648.696 1476.38,648.258 1478.59,648.42 1480.8,649.111 1483.01,650.263 1485.21,651.811 1487.42,653.696 1489.63,655.86 1491.84,658.252 1494.04,660.821 1496.25,663.523 1498.46,666.316 1500.67,669.163 1502.87,672.03 1505.08,674.887 1507.29,677.707 1509.5,680.469 1511.7,683.153 1513.91,685.745 1516.12,688.234 1518.33,690.611 1520.53,692.875 1522.74,695.025 1524.95,697.065 1527.16,699.003 1529.36,700.851 1531.57,702.624 1533.78,704.342 1535.99,706.027 1538.19,707.707 1540.4,709.412 1542.61,711.175 1544.82,712.954 1547.02,714.71 1549.23,716.443 1551.44,718.152 1553.65,719.839 1555.85,721.504 1558.06,723.146 1560.27,724.767 1562.48,726.366 1564.68,727.944 1566.89,729.501 1569.1,731.038 1571.31,732.554 1573.51,734.05 1575.72,735.526 1577.93,736.982 1580.14,738.42 1582.34,739.838 1584.55,741.238 1586.76,742.619 1588.97,743.982 1591.17,745.327 1593.38,746.654 1595.59,747.963 1597.8,749.255 1600,750.53 1602.21,751.788 1604.42,753.03 1606.63,754.254 1608.83,755.463 1611.04,756.655 1613.25,757.832 1615.46,758.993 1617.66,760.139 1619.87,761.269 1622.08,762.384 1624.29,763.485 1626.49,764.571 1628.7,765.642 1630.91,766.699 1633.12,767.742 1635.32,768.772 1637.53,769.787 1639.74,770.789 1641.95,771.778 1644.15,772.754 1646.36,773.716 1648.57,774.666 1650.78,775.603 1652.98,776.528 1655.19,777.441 1657.4,778.341 1659.61,779.23 1661.81,780.107 1664.02,780.972 1666.23,781.825 1668.44,782.668 1670.64,783.499 1672.85,784.319 1675.06,785.129 1677.27,785.928 1679.47,786.716 1681.68,787.494 1683.89,788.259 1686.1,788.499 1688.3,787.873 1690.51,786.48 1692.72,784.411 1694.93,781.754 1697.13,778.591 1699.34,775.001 1701.55,771.054 1703.76,766.821 1705.96,762.363 1708.17,757.739 1710.38,753.001 1712.59,748.199 1714.79,743.376 1717,738.569 1719.21,733.814 1721.42,729.139 1723.62,724.568 1725.83,720.119 1728.04,715.808 1730.25,711.642 1732.45,707.628 1734.66,703.764 1736.87,700.046 1739.07,696.462 1741.28,692.998 1743.49,689.634 1745.7,686.344 1747.9,683.1 1750.11,679.867 1752.32,676.605 1754.53,673.298 1756.73,670.026 1758.94,666.797 1761.15,663.611 1763.36,660.467 1765.56,657.364 1767.77,654.303 1769.98,651.283 1772.19,648.302 1774.39,645.361 1776.6,642.459 1778.81,639.596 1781.02,636.77 1783.22,633.982 1785.43,631.231 1787.64,628.517 1789.85,625.838 1792.05,623.195 1794.26,620.587 1796.47,618.013 1798.68,615.474 1800.88,612.968 1803.09,610.496 1805.3,608.056 1807.51,605.648 1809.71,603.273 1811.92,600.928 1814.13,598.615 1816.34,596.332 1818.54,594.08 1820.75,591.857 1822.96,589.664 1825.17,587.5 1827.37,585.364 1829.58,583.257 1831.79,581.178 1834,579.127 1836.2,577.102 1838.41,575.105 1840.62,573.134 1842.83,571.189 1845.03,569.271 1847.24,567.377 1849.45,565.509 1851.66,563.666 1853.86,561.847 1856.07,560.052 1858.28,558.281 1860.49,556.534 1862.69,554.81 1864.9,553.109 1867.11,551.43 1869.32,549.774 1871.52,548.14 1873.73,546.527 1875.94,544.936 1878.15,543.366 1880.35,541.817 1882.56,540.288 1884.77,538.78 1886.98,537.291 1889.18,535.823 1891.39,534.374 1893.6,532.943 1895.81,531.532 1898.01,530.14 1900.22,528.766 1902.43,527.41 1904.64,526.072 1906.84,524.752 1909.05,523.449 1911.26,521.981 1913.47,519.789 1915.67,516.919 1917.88,513.461 1920.09,509.498 1922.3,505.11 1924.5,500.372 1926.71,495.351 1928.92,490.113 1931.13,484.716 1933.33,479.214 1935.54,473.655 1937.75,468.082 1939.96,462.535 1942.16,457.046 1944.37,451.643 1946.58,446.35 1948.79,441.185 1950.99,436.159 1953.2,431.281 1955.41,426.553 1957.62,421.972 1959.82,417.532 1962.03,413.218 1964.24,409.014 1966.45,404.895 1968.65,400.834 1970.86,396.797 1973.07,392.747 1975.28,388.684 1977.48,384.673 1979.69,380.716 1981.9,376.811 1984.11,372.958 1986.31,369.156 1988.52,365.404 1990.73,361.702 1992.94,358.05 1995.14,354.445 1997.35,350.889 1999.56,347.379 2001.77,343.916 2003.97,340.499 2006.18,337.128 2008.39,333.801 2010.6,330.518 2012.8,327.278 2015.01,324.082 2017.22,320.928 2019.43,317.816 2021.63,314.745 2023.84,311.715 2026.05,308.724 2028.26,305.774 2030.46,302.862 2032.67,299.989 2034.88,297.154 2037.09,294.356 2039.29,291.595 2041.5,288.871 2043.71,286.184 2045.92,283.531 2048.12,280.914 2050.33,278.332 2052.54,275.784 2054.75,273.27 2056.95,270.789 2059.16,268.341 2061.37,265.926 2063.58,263.543 2065.78,261.191 2067.99,258.871 2070.2,256.581 2072.41,254.322 2074.61,252.093 2076.82,249.894 2079.03,247.723 2081.24,245.582 2083.44,243.469 2085.65,241.384 2087.86,239.327 2090.07,237.297 2092.27,235.294 2094.48,233.318 2096.69,231.368 2098.9,229.444 2101.1,227.545 2103.31,225.671 2105.52,223.822 2107.73,221.998 2109.93,220.198 2112.14,218.422 2114.35,216.669 2116.55,214.939 2118.76,213.233 2120.97,211.548 2123.18,209.886 2125.38,208.246 2127.59,206.868 2129.8,207.178 2132.01,209.226 2134.21,212.797 2136.42,217.688 2138.63,223.708 2140.84,230.678 2143.04,238.431 2145.25,246.812 2147.46,255.676 2149.67,264.893 2151.87,274.341 2154.08,283.915 2156.29,293.516 2158.5,303.061 2160.7,312.477 2162.91,321.704 2165.12,330.694 2167.33,339.408 2169.53,347.823 2171.74,355.925 2173.95,363.713 2176.16,371.197 2178.36,378.4 2180.57,385.356 2182.78,392.112 2184.99,398.724 2187.19,405.264 2189.4,411.812 2191.61,418.461 2193.82,425.13 2196.02,431.711 2198.23,438.204 2200.44,444.612 2202.65,450.934 2204.85,457.173 2207.06,463.329 2209.27,469.403 2211.48,475.396 2213.68,481.311 2215.89,487.146 2218.1,492.905 2220.31,498.587 2222.51,504.193 2224.72,509.726 2226.93,515.185 2229.14,520.572 2231.34,525.887 2233.55,531.132 2235.76,536.307 2237.97,541.413 2240.17,546.452 2242.38,551.425 2244.59,556.331 2246.8,561.173 2249,565.95 2251.21,570.664 2253.42,575.316 2255.63,579.905 2257.83,584.434 2260.04,588.903 2262.25,593.313 2264.46,597.664 2266.66,601.958 2268.87,606.194 2271.08,610.374 2273.29,614.499 2275.49,618.569 2277.7,622.585 2279.91,626.548 2282.12,630.458 2284.32,634.316 2286.53,638.123 2288.74,641.88 2290.95,645.586 2293.15,649.244 2295.36,652.853 2297.57,656.414 2299.78,659.928 2301.98,663.395 2304.19,666.817 2306.4,670.193 2308.61,673.524 2310.81,676.811 2313.02,680.055 2315.23,683.255 2317.44,686.414 2319.64,689.53 2321.85,692.605 2324.06,695.64 2326.27,698.634 2328.47,701.588 2330.68,704.504 2332.89,707.38 2335.1,710.219 2337.3,713.02 2339.51,715.784 2341.72,718.511 2343.93,721.202 2346.13,723.857 2348.34,726.477 2350.55,729.062 2352.76,731.614 "/>
<polyline clip-path="url(#clip162)" style="stroke:#e26f46; stroke-linecap:round; stroke-linejoin:round; stroke-width:4; stroke-opacity:1; fill:none" points="147.478,377.752 149.685,377.752 151.893,377.752 154.1,377.752 156.308,377.752 158.515,377.752 160.723,377.752 162.93,377.752 165.138,377.752 167.345,377.752 169.553,377.752 171.76,377.752 173.968,377.752 176.175,377.752 178.383,377.752 180.59,377.752 182.798,377.752 185.005,377.752 187.213,377.752 189.42,377.752 191.628,377.752 193.835,377.752 196.043,377.752 198.25,377.752 200.458,377.752 202.665,377.752 204.873,377.752 207.08,377.752 209.288,377.752 211.495,377.752 213.702,377.752 215.91,377.752 218.117,377.752 220.325,377.752 222.532,377.752 224.74,377.752 226.947,377.752 229.155,377.752 231.362,377.752 233.57,377.752 235.777,377.752 237.985,377.752 240.192,377.752 242.4,377.752 244.607,377.752 246.815,377.752 249.022,377.752 251.23,377.752 253.437,377.752 255.645,377.752 257.852,377.752 260.06,377.752 262.267,377.752 264.475,377.752 266.682,377.752 268.89,377.752 271.097,377.752 273.305,377.752 275.512,377.752 277.72,377.752 279.927,377.752 282.135,377.752 284.342,377.752 286.549,377.752 288.757,377.752 290.964,377.752 293.172,377.752 295.379,377.752 297.587,377.752 299.794,377.752 302.002,377.752 304.209,377.752 306.417,377.752 308.624,377.752 310.832,377.752 313.039,377.752 315.247,377.752 317.454,377.752 319.662,377.752 321.869,377.752 324.077,377.752 326.284,377.752 328.492,377.752 330.699,377.752 332.907,377.752 335.114,377.752 337.322,377.752 339.529,377.752 341.737,377.752 343.944,377.752 346.152,377.752 348.359,377.752 350.567,377.752 352.774,377.752 354.982,377.752 357.189,377.752 359.397,377.752 361.604,377.752 363.811,377.752 366.019,377.752 368.226,1101.4 370.434,1101.4 372.641,1101.4 374.849,1101.4 377.056,1101.4 379.264,1101.4 381.471,1101.4 383.679,1101.4 385.886,1101.4 388.094,1101.4 390.301,1101.4 392.509,1101.4 394.716,1101.4 396.924,1101.4 399.131,1101.4 401.339,1101.4 403.546,1101.4 405.754,1101.4 407.961,1101.4 410.169,1101.4 412.376,1101.4 414.584,1101.4 416.791,1101.4 418.999,1101.4 421.206,1101.4 423.414,1101.4 425.621,1101.4 427.829,1101.4 430.036,1101.4 432.244,1101.4 434.451,1101.4 436.659,1101.4 438.866,1101.4 441.073,1101.4 443.281,1101.4 445.488,1101.4 447.696,1101.4 449.903,1101.4 452.111,1101.4 454.318,1101.4 456.526,1101.4 458.733,1101.4 460.941,1101.4 463.148,1101.4 465.356,1101.4 467.563,1101.4 469.771,1101.4 471.978,1101.4 474.186,1101.4 476.393,1101.4 478.601,1101.4 480.808,1101.4 483.016,1101.4 485.223,1101.4 487.431,1101.4 489.638,1101.4 491.846,1101.4 494.053,1101.4 496.261,1101.4 498.468,1101.4 500.676,1101.4 502.883,1101.4 505.091,1101.4 507.298,1101.4 509.506,1101.4 511.713,1101.4 513.921,1101.4 516.128,1101.4 518.335,1101.4 520.543,1101.4 522.75,1101.4 524.958,1101.4 527.165,1101.4 529.373,1101.4 531.58,1101.4 533.788,1101.4 535.995,1101.4 538.203,1101.4 540.41,1101.4 542.618,1101.4 544.825,1101.4 547.033,1101.4 549.24,1101.4 551.448,1101.4 553.655,1101.4 555.863,1101.4 558.07,1101.4 560.278,1101.4 562.485,1101.4 564.693,1101.4 566.9,1101.4 569.108,1101.4 571.315,1101.4 573.523,1101.4 575.73,1101.4 577.938,1101.4 580.145,1101.4 582.353,1101.4 584.56,1101.4 586.768,1101.4 588.975,937.627 591.182,937.627 593.39,937.627 595.597,937.627 597.805,937.627 600.012,937.627 602.22,937.627 604.427,937.627 606.635,937.627 608.842,937.627 611.05,937.627 613.257,937.627 615.465,937.627 617.672,937.627 619.88,937.627 622.087,937.627 624.295,937.627 626.502,937.627 628.71,937.627 630.917,937.627 633.125,937.627 635.332,937.627 637.54,937.627 639.747,937.627 641.955,937.627 644.162,937.627 646.37,937.627 648.577,937.627 650.785,937.627 652.992,937.627 655.2,937.627 657.407,937.627 659.615,937.627 661.822,937.627 664.03,937.627 666.237,937.627 668.444,937.627 670.652,937.627 672.859,937.627 675.067,937.627 677.274,937.627 679.482,937.627 681.689,937.627 683.897,937.627 686.104,937.627 688.312,937.627 690.519,937.627 692.727,937.627 694.934,937.627 697.142,937.627 699.349,937.627 701.557,937.627 703.764,937.627 705.972,937.627 708.179,937.627 710.387,937.627 712.594,937.627 714.802,937.627 717.009,937.627 719.217,937.627 721.424,937.627 723.632,937.627 725.839,937.627 728.047,937.627 730.254,937.627 732.462,937.627 734.669,937.627 736.877,937.627 739.084,937.627 741.292,937.627 743.499,937.627 745.706,937.627 747.914,937.627 750.121,937.627 752.329,937.627 754.536,937.627 756.744,937.627 758.951,937.627 761.159,937.627 763.366,937.627 765.574,937.627 767.781,937.627 769.989,937.627 772.196,937.627 774.404,937.627 776.611,937.627 778.819,937.627 781.026,937.627 783.234,937.627 785.441,937.627 787.649,937.627 789.856,937.627 792.064,937.627 794.271,937.627 796.479,937.627 798.686,937.627 800.894,937.627 803.101,937.627 805.309,937.627 807.516,937.627 809.724,548.834 811.931,548.834 814.139,548.834 816.346,548.834 818.553,548.834 820.761,548.834 822.968,548.834 825.176,548.834 827.383,548.834 829.591,548.834 831.798,548.834 834.006,548.834 836.213,548.834 838.421,548.834 840.628,548.834 842.836,548.834 845.043,548.834 847.251,548.834 849.458,548.834 851.666,548.834 853.873,548.834 856.081,548.834 858.288,548.834 860.496,548.834 862.703,548.834 864.911,548.834 867.118,548.834 869.326,548.834 871.533,548.834 873.741,548.834 875.948,548.834 878.156,548.834 880.363,548.834 882.571,548.834 884.778,548.834 886.986,548.834 889.193,548.834 891.401,548.834 893.608,548.834 895.815,548.834 898.023,548.834 900.23,548.834 902.438,548.834 904.645,548.834 906.853,548.834 909.06,548.834 911.268,548.834 913.475,548.834 915.683,548.834 917.89,548.834 920.098,548.834 922.305,548.834 924.513,548.834 926.72,548.834 928.928,548.834 931.135,548.834 933.343,548.834 935.55,548.834 937.758,548.834 939.965,548.834 942.173,548.834 944.38,548.834 946.588,548.834 948.795,548.834 951.003,548.834 953.21,548.834 955.418,548.834 957.625,548.834 959.833,548.834 962.04,548.834 964.248,548.834 966.455,548.834 968.663,548.834 970.87,548.834 973.077,548.834 975.285,548.834 977.492,548.834 979.7,548.834 981.907,548.834 984.115,548.834 986.322,548.834 988.53,548.834 990.737,548.834 992.945,548.834 995.152,548.834 997.36,548.834 999.567,548.834 1001.77,548.834 1003.98,548.834 1006.19,548.834 1008.4,548.834 1010.6,548.834 1012.81,548.834 1015.02,548.834 1017.23,548.834 1019.43,548.834 1021.64,548.834 1023.85,548.834 1026.06,548.834 1028.26,548.834 1030.47,1384.24 1032.68,1384.24 1034.89,1384.24 1037.09,1384.24 1039.3,1384.24 1041.51,1384.24 1043.72,1384.24 1045.92,1384.24 1048.13,1384.24 1050.34,1384.24 1052.55,1384.24 1054.75,1384.24 1056.96,1384.24 1059.17,1384.24 1061.38,1384.24 1063.58,1384.24 1065.79,1384.24 1068,1384.24 1070.21,1384.24 1072.41,1384.24 1074.62,1384.24 1076.83,1384.24 1079.04,1384.24 1081.24,1384.24 1083.45,1384.24 1085.66,1384.24 1087.87,1384.24 1090.07,1384.24 1092.28,1384.24 1094.49,1384.24 1096.7,1384.24 1098.9,1384.24 1101.11,1384.24 1103.32,1384.24 1105.53,1384.24 1107.73,1384.24 1109.94,1384.24 1112.15,1384.24 1114.36,1384.24 1116.56,1384.24 1118.77,1384.24 1120.98,1384.24 1123.19,1384.24 1125.39,1384.24 1127.6,1384.24 1129.81,1384.24 1132.02,1384.24 1134.22,1384.24 1136.43,1384.24 1138.64,1384.24 1140.85,1384.24 1143.05,1384.24 1145.26,1384.24 1147.47,1384.24 1149.68,1384.24 1151.88,1384.24 1154.09,1384.24 1156.3,1384.24 1158.51,1384.24 1160.71,1384.24 1162.92,1384.24 1165.13,1384.24 1167.34,1384.24 1169.54,1384.24 1171.75,1384.24 1173.96,1384.24 1176.17,1384.24 1178.37,1384.24 1180.58,1384.24 1182.79,1384.24 1185,1384.24 1187.2,1384.24 1189.41,1384.24 1191.62,1384.24 1193.83,1384.24 1196.03,1384.24 1198.24,1384.24 1200.45,1384.24 1202.66,1384.24 1204.86,1384.24 1207.07,1384.24 1209.28,1384.24 1211.49,1384.24 1213.69,1384.24 1215.9,1384.24 1218.11,1384.24 1220.32,1384.24 1222.52,1384.24 1224.73,1384.24 1226.94,1384.24 1229.15,1384.24 1231.35,1384.24 1233.56,1384.24 1235.77,1384.24 1237.98,1384.24 1240.18,1384.24 1242.39,1384.24 1244.6,1384.24 1246.81,1384.24 1249.01,1384.24 1251.22,465.05 1253.43,465.05 1255.64,465.05 1257.84,465.05 1260.05,465.05 1262.26,465.05 1264.47,465.05 1266.67,465.05 1268.88,465.05 1271.09,465.05 1273.3,465.05 1275.5,465.05 1277.71,465.05 1279.92,465.05 1282.13,465.05 1284.33,465.05 1286.54,465.05 1288.75,465.05 1290.96,465.05 1293.16,465.05 1295.37,465.05 1297.58,465.05 1299.79,465.05 1301.99,465.05 1304.2,465.05 1306.41,465.05 1308.62,465.05 1310.82,465.05 1313.03,465.05 1315.24,465.05 1317.45,465.05 1319.65,465.05 1321.86,465.05 1324.07,465.05 1326.28,465.05 1328.48,465.05 1330.69,465.05 1332.9,465.05 1335.11,465.05 1337.31,465.05 1339.52,465.05 1341.73,465.05 1343.94,465.05 1346.14,465.05 1348.35,465.05 1350.56,465.05 1352.76,465.05 1354.97,465.05 1357.18,465.05 1359.39,465.05 1361.59,465.05 1363.8,465.05 1366.01,465.05 1368.22,465.05 1370.42,465.05 1372.63,465.05 1374.84,465.05 1377.05,465.05 1379.25,465.05 1381.46,465.05 1383.67,465.05 1385.88,465.05 1388.08,465.05 1390.29,465.05 1392.5,465.05 1394.71,465.05 1396.91,465.05 1399.12,465.05 1401.33,465.05 1403.54,465.05 1405.74,465.05 1407.95,465.05 1410.16,465.05 1412.37,465.05 1414.57,465.05 1416.78,465.05 1418.99,465.05 1421.2,465.05 1423.4,465.05 1425.61,465.05 1427.82,465.05 1430.03,465.05 1432.23,465.05 1434.44,465.05 1436.65,465.05 1438.86,465.05 1441.06,465.05 1443.27,465.05 1445.48,465.05 1447.69,465.05 1449.89,465.05 1452.1,465.05 1454.31,465.05 1456.52,465.05 1458.72,465.05 1460.93,465.05 1463.14,465.05 1465.35,465.05 1467.55,465.05 1469.76,465.05 1471.97,845.387 1474.18,845.387 1476.38,845.387 1478.59,845.387 1480.8,845.387 1483.01,845.387 1485.21,845.387 1487.42,845.387 1489.63,845.387 1491.84,845.387 1494.04,845.387 1496.25,845.387 1498.46,845.387 1500.67,845.387 1502.87,845.387 1505.08,845.387 1507.29,845.387 1509.5,845.387 1511.7,845.387 1513.91,845.387 1516.12,845.387 1518.33,845.387 1520.53,845.387 1522.74,845.387 1524.95,845.387 1527.16,845.387 1529.36,845.387 1531.57,845.387 1533.78,845.387 1535.99,845.387 1538.19,845.387 1540.4,845.387 1542.61,845.387 1544.82,845.387 1547.02,845.387 1549.23,845.387 1551.44,845.387 1553.65,845.387 1555.85,845.387 1558.06,845.387 1560.27,845.387 1562.48,845.387 1564.68,845.387 1566.89,845.387 1569.1,845.387 1571.31,845.387 1573.51,845.387 1575.72,845.387 1577.93,845.387 1580.14,845.387 1582.34,845.387 1584.55,845.387 1586.76,845.387 1588.97,845.387 1591.17,845.387 1593.38,845.387 1595.59,845.387 1597.8,845.387 1600,845.387 1602.21,845.387 1604.42,845.387 1606.63,845.387 1608.83,845.387 1611.04,845.387 1613.25,845.387 1615.46,845.387 1617.66,845.387 1619.87,845.387 1622.08,845.387 1624.29,845.387 1626.49,845.387 1628.7,845.387 1630.91,845.387 1633.12,845.387 1635.32,845.387 1637.53,845.387 1639.74,845.387 1641.95,845.387 1644.15,845.387 1646.36,845.387 1648.57,845.387 1650.78,845.387 1652.98,845.387 1655.19,845.387 1657.4,845.387 1659.61,845.387 1661.81,845.387 1664.02,845.387 1666.23,845.387 1668.44,845.387 1670.64,845.387 1672.85,845.387 1675.06,845.387 1677.27,845.387 1679.47,845.387 1681.68,845.387 1683.89,845.387 1686.1,845.387 1688.3,845.387 1690.51,845.387 1692.72,426.477 1694.93,426.477 1697.13,426.477 1699.34,426.477 1701.55,426.477 1703.76,426.477 1705.96,426.477 1708.17,426.477 1710.38,426.477 1712.59,426.477 1714.79,426.477 1717,426.477 1719.21,426.477 1721.42,426.477 1723.62,426.477 1725.83,426.477 1728.04,426.477 1730.25,426.477 1732.45,426.477 1734.66,426.477 1736.87,426.477 1739.07,426.477 1741.28,426.477 1743.49,426.477 1745.7,426.477 1747.9,426.477 1750.11,426.477 1752.32,426.477 1754.53,426.477 1756.73,426.477 1758.94,426.477 1761.15,426.477 1763.36,426.477 1765.56,426.477 1767.77,426.477 1769.98,426.477 1772.19,426.477 1774.39,426.477 1776.6,426.477 1778.81,426.477 1781.02,426.477 1783.22,426.477 1785.43,426.477 1787.64,426.477 1789.85,426.477 1792.05,426.477 1794.26,426.477 1796.47,426.477 1798.68,426.477 1800.88,426.477 1803.09,426.477 1805.3,426.477 1807.51,426.477 1809.71,426.477 1811.92,426.477 1814.13,426.477 1816.34,426.477 1818.54,426.477 1820.75,426.477 1822.96,426.477 1825.17,426.477 1827.37,426.477 1829.58,426.477 1831.79,426.477 1834,426.477 1836.2,426.477 1838.41,426.477 1840.62,426.477 1842.83,426.477 1845.03,426.477 1847.24,426.477 1849.45,426.477 1851.66,426.477 1853.86,426.477 1856.07,426.477 1858.28,426.477 1860.49,426.477 1862.69,426.477 1864.9,426.477 1867.11,426.477 1869.32,426.477 1871.52,426.477 1873.73,426.477 1875.94,426.477 1878.15,426.477 1880.35,426.477 1882.56,426.477 1884.77,426.477 1886.98,426.477 1889.18,426.477 1891.39,426.477 1893.6,426.477 1895.81,426.477 1898.01,426.477 1900.22,426.477 1902.43,426.477 1904.64,426.477 1906.84,426.477 1909.05,426.477 1911.26,426.477 1913.47,86.1857 1915.67,86.1857 1917.88,86.1857 1920.09,86.1857 1922.3,86.1857 1924.5,86.1857 1926.71,86.1857 1928.92,86.1857 1931.13,86.1857 1933.33,86.1857 1935.54,86.1857 1937.75,86.1857 1939.96,86.1857 1942.16,86.1857 1944.37,86.1857 1946.58,86.1857 1948.79,86.1857 1950.99,86.1857 1953.2,86.1857 1955.41,86.1857 1957.62,86.1857 1959.82,86.1857 1962.03,86.1857 1964.24,86.1857 1966.45,86.1857 1968.65,86.1857 1970.86,86.1857 1973.07,86.1857 1975.28,86.1857 1977.48,86.1857 1979.69,86.1857 1981.9,86.1857 1984.11,86.1857 1986.31,86.1857 1988.52,86.1857 1990.73,86.1857 1992.94,86.1857 1995.14,86.1857 1997.35,86.1857 1999.56,86.1857 2001.77,86.1857 2003.97,86.1857 2006.18,86.1857 2008.39,86.1857 2010.6,86.1857 2012.8,86.1857 2015.01,86.1857 2017.22,86.1857 2019.43,86.1857 2021.63,86.1857 2023.84,86.1857 2026.05,86.1857 2028.26,86.1857 2030.46,86.1857 2032.67,86.1857 2034.88,86.1857 2037.09,86.1857 2039.29,86.1857 2041.5,86.1857 2043.71,86.1857 2045.92,86.1857 2048.12,86.1857 2050.33,86.1857 2052.54,86.1857 2054.75,86.1857 2056.95,86.1857 2059.16,86.1857 2061.37,86.1857 2063.58,86.1857 2065.78,86.1857 2067.99,86.1857 2070.2,86.1857 2072.41,86.1857 2074.61,86.1857 2076.82,86.1857 2079.03,86.1857 2081.24,86.1857 2083.44,86.1857 2085.65,86.1857 2087.86,86.1857 2090.07,86.1857 2092.27,86.1857 2094.48,86.1857 2096.69,86.1857 2098.9,86.1857 2101.1,86.1857 2103.31,86.1857 2105.52,86.1857 2107.73,86.1857 2109.93,86.1857 2112.14,86.1857 2114.35,86.1857 2116.55,86.1857 2118.76,86.1857 2120.97,86.1857 2123.18,86.1857 2125.38,86.1857 2127.59,86.1857 2129.8,86.1857 2132.01,86.1857 2134.21,921.481 2136.42,921.481 2138.63,921.481 2140.84,921.481 2143.04,921.481 2145.25,921.481 2147.46,921.481 2149.67,921.481 2151.87,921.481 2154.08,921.481 2156.29,921.481 2158.5,921.481 2160.7,921.481 2162.91,921.481 2165.12,921.481 2167.33,921.481 2169.53,921.481 2171.74,921.481 2173.95,921.481 2176.16,921.481 2178.36,921.481 2180.57,921.481 2182.78,921.481 2184.99,921.481 2187.19,921.481 2189.4,921.481 2191.61,921.481 2193.82,921.481 2196.02,921.481 2198.23,921.481 2200.44,921.481 2202.65,921.481 2204.85,921.481 2207.06,921.481 2209.27,921.481 2211.48,921.481 2213.68,921.481 2215.89,921.481 2218.1,921.481 2220.31,921.481 2222.51,921.481 2224.72,921.481 2226.93,921.481 2229.14,921.481 2231.34,921.481 2233.55,921.481 2235.76,921.481 2237.97,921.481 2240.17,921.481 2242.38,921.481 2244.59,921.481 2246.8,921.481 2249,921.481 2251.21,921.481 2253.42,921.481 2255.63,921.481 2257.83,921.481 2260.04,921.481 2262.25,921.481 2264.46,921.481 2266.66,921.481 2268.87,921.481 2271.08,921.481 2273.29,921.481 2275.49,921.481 2277.7,921.481 2279.91,921.481 2282.12,921.481 2284.32,921.481 2286.53,921.481 2288.74,921.481 2290.95,921.481 2293.15,921.481 2295.36,921.481 2297.57,921.481 2299.78,921.481 2301.98,921.481 2304.19,921.481 2306.4,921.481 2308.61,921.481 2310.81,921.481 2313.02,921.481 2315.23,921.481 2317.44,921.481 2319.64,921.481 2321.85,921.481 2324.06,921.481 2326.27,921.481 2328.47,921.481 2330.68,921.481 2332.89,921.481 2335.1,921.481 2337.3,921.481 2339.51,921.481 2341.72,921.481 2343.93,921.481 2346.13,921.481 2348.34,921.481 2350.55,921.481 2352.76,921.481 "/>
<path clip-path="url(#clip160)" d="M2033.58 1377.32 L2279.25 1377.32 L2279.25 1221.8 L2033.58 1221.8  Z" fill="#ffffff" fill-rule="evenodd" fill-opacity="1"/>
<polyline clip-path="url(#clip160)" style="stroke:#000000; stroke-linecap:round; stroke-linejoin:round; stroke-width:4; stroke-opacity:1; fill:none" points="2033.58,1377.32 2279.25,1377.32 2279.25,1221.8 2033.58,1221.8 2033.58,1377.32 "/>
<polyline clip-path="url(#clip160)" style="stroke:#009af9; stroke-linecap:round; stroke-linejoin:round; stroke-width:4; stroke-opacity:1; fill:none" points="2058.08,1273.64 2205.1,1273.64 "/>
<path clip-path="url(#clip160)" d="M2254.26 1264.99 L2244.88 1277.61 L2254.74 1290.92 L2249.72 1290.92 L2242.17 1280.73 L2234.63 1290.92 L2229.6 1290.92 L2239.67 1277.35 L2230.46 1264.99 L2235.48 1264.99 L2242.36 1274.23 L2249.23 1264.99 L2254.26 1264.99 Z" fill="#000000" fill-rule="nonzero" fill-opacity="1" /><polyline clip-path="url(#clip160)" style="stroke:#e26f46; stroke-linecap:round; stroke-linejoin:round; stroke-width:4; stroke-opacity:1; fill:none" points="2058.08,1325.48 2205.1,1325.48 "/>
<path clip-path="url(#clip160)" d="M2246.11 1306.74 L2246.11 1310.28 L2242.04 1310.28 Q2239.74 1310.28 2238.84 1311.2 Q2237.96 1312.13 2237.96 1314.54 L2237.96 1316.83 L2244.98 1316.83 L2244.98 1320.14 L2237.96 1320.14 L2237.96 1342.76 L2233.68 1342.76 L2233.68 1320.14 L2229.6 1320.14 L2229.6 1316.83 L2233.68 1316.83 L2233.68 1315.02 Q2233.68 1310.7 2235.69 1308.73 Q2237.71 1306.74 2242.08 1306.74 L2246.11 1306.74 Z" fill="#000000" fill-rule="nonzero" fill-opacity="1" /></svg>
