<?xml version="1.0" encoding="utf-8"?>
<svg xmlns="http://www.w3.org/2000/svg" xmlns:xlink="http://www.w3.org/1999/xlink" width="600" height="400" viewBox="0 0 2400 1600">
<defs>
  <clipPath id="clip150">
    <rect x="0" y="0" width="2400" height="1600"/>
  </clipPath>
</defs>
<path clip-path="url(#clip150)" d="M0 1600 L2400 1600 L2400 0 L0 0  Z" fill="#ffffff" fill-rule="evenodd" fill-opacity="1"/>
<defs>
  <clipPath id="clip151">
    <rect x="480" y="0" width="1681" height="1600"/>
  </clipPath>
</defs>
<path clip-path="url(#clip150)" d="M193.936 1423.18 L2352.76 1423.18 L2352.76 47.2441 L193.936 47.2441  Z" fill="#ffffff" fill-rule="evenodd" fill-opacity="1"/>
<defs>
  <clipPath id="clip152">
    <rect x="193" y="47" width="2160" height="1377"/>
  </clipPath>
</defs>
<polyline clip-path="url(#clip152)" style="stroke:#000000; stroke-linecap:round; stroke-linejoin:round; stroke-width:2; stroke-opacity:0.1; fill:none" points="193.936,1423.18 193.936,47.2441 "/>
<polyline clip-path="url(#clip152)" style="stroke:#000000; stroke-linecap:round; stroke-linejoin:round; stroke-width:2; stroke-opacity:0.1; fill:none" points="625.7,1423.18 625.7,47.2441 "/>
<polyline clip-path="url(#clip152)" style="stroke:#000000; stroke-linecap:round; stroke-linejoin:round; stroke-width:2; stroke-opacity:0.1; fill:none" points="1057.46,1423.18 1057.46,47.2441 "/>
<polyline clip-path="url(#clip152)" style="stroke:#000000; stroke-linecap:round; stroke-linejoin:round; stroke-width:2; stroke-opacity:0.1; fill:none" points="1489.23,1423.18 1489.23,47.2441 "/>
<polyline clip-path="url(#clip152)" style="stroke:#000000; stroke-linecap:round; stroke-linejoin:round; stroke-width:2; stroke-opacity:0.1; fill:none" points="1920.99,1423.18 1920.99,47.2441 "/>
<polyline clip-path="url(#clip152)" style="stroke:#000000; stroke-linecap:round; stroke-linejoin:round; stroke-width:2; stroke-opacity:0.1; fill:none" points="2352.76,1423.18 2352.76,47.2441 "/>
<polyline clip-path="url(#clip150)" style="stroke:#000000; stroke-linecap:round; stroke-linejoin:round; stroke-width:4; stroke-opacity:1; fill:none" points="193.936,1423.18 2352.76,1423.18 "/>
<polyline clip-path="url(#clip150)" style="stroke:#000000; stroke-linecap:round; stroke-linejoin:round; stroke-width:4; stroke-opacity:1; fill:none" points="193.936,1423.18 193.936,1404.28 "/>
<polyline clip-path="url(#clip150)" style="stroke:#000000; stroke-linecap:round; stroke-linejoin:round; stroke-width:4; stroke-opacity:1; fill:none" points="625.7,1423.18 625.7,1404.28 "/>
<polyline clip-path="url(#clip150)" style="stroke:#000000; stroke-linecap:round; stroke-linejoin:round; stroke-width:4; stroke-opacity:1; fill:none" points="1057.46,1423.18 1057.46,1404.28 "/>
<polyline clip-path="url(#clip150)" style="stroke:#000000; stroke-linecap:round; stroke-linejoin:round; stroke-width:4; stroke-opacity:1; fill:none" points="1489.23,1423.18 1489.23,1404.28 "/>
<polyline clip-path="url(#clip150)" style="stroke:#000000; stroke-linecap:round; stroke-linejoin:round; stroke-width:4; stroke-opacity:1; fill:none" points="1920.99,1423.18 1920.99,1404.28 "/>
<polyline clip-path="url(#clip150)" style="stroke:#000000; stroke-linecap:round; stroke-linejoin:round; stroke-width:4; stroke-opacity:1; fill:none" points="2352.76,1423.18 2352.76,1404.28 "/>
<path clip-path="url(#clip150)" d="M193.936 1454.1 Q190.325 1454.1 188.496 1457.66 Q186.691 1461.2 186.691 1468.33 Q186.691 1475.44 188.496 1479.01 Q190.325 1482.55 193.936 1482.55 Q197.57 1482.55 199.376 1479.01 Q201.204 1475.44 201.204 1468.33 Q201.204 1461.2 199.376 1457.66 Q197.57 1454.1 193.936 1454.1 M193.936 1450.39 Q199.746 1450.39 202.802 1455 Q205.88 1459.58 205.88 1468.33 Q205.88 1477.06 202.802 1481.67 Q199.746 1486.25 193.936 1486.25 Q188.126 1486.25 185.047 1481.67 Q181.992 1477.06 181.992 1468.33 Q181.992 1459.58 185.047 1455 Q188.126 1450.39 193.936 1450.39 Z" fill="#000000" fill-rule="nonzero" fill-opacity="1" /><path clip-path="url(#clip150)" d="M620.353 1481.64 L636.672 1481.64 L636.672 1485.58 L614.728 1485.58 L614.728 1481.64 Q617.39 1478.89 621.973 1474.26 Q626.58 1469.61 627.76 1468.27 Q630.006 1465.74 630.885 1464.01 Q631.788 1462.25 631.788 1460.56 Q631.788 1457.8 629.843 1456.07 Q627.922 1454.33 624.82 1454.33 Q622.621 1454.33 620.168 1455.09 Q617.737 1455.86 614.959 1457.41 L614.959 1452.69 Q617.783 1451.55 620.237 1450.97 Q622.691 1450.39 624.728 1450.39 Q630.098 1450.39 633.293 1453.08 Q636.487 1455.77 636.487 1460.26 Q636.487 1462.39 635.677 1464.31 Q634.89 1466.2 632.783 1468.8 Q632.205 1469.47 629.103 1472.69 Q626.001 1475.88 620.353 1481.64 Z" fill="#000000" fill-rule="nonzero" fill-opacity="1" /><path clip-path="url(#clip150)" d="M1060.47 1455.09 L1048.67 1473.54 L1060.47 1473.54 L1060.47 1455.09 M1059.25 1451.02 L1065.13 1451.02 L1065.13 1473.54 L1070.06 1473.54 L1070.06 1477.43 L1065.13 1477.43 L1065.13 1485.58 L1060.47 1485.58 L1060.47 1477.43 L1044.87 1477.43 L1044.87 1472.92 L1059.25 1451.02 Z" fill="#000000" fill-rule="nonzero" fill-opacity="1" /><path clip-path="url(#clip150)" d="M1489.63 1466.44 Q1486.48 1466.44 1484.63 1468.59 Q1482.8 1470.74 1482.8 1474.49 Q1482.8 1478.22 1484.63 1480.39 Q1486.48 1482.55 1489.63 1482.55 Q1492.78 1482.55 1494.61 1480.39 Q1496.46 1478.22 1496.46 1474.49 Q1496.46 1470.74 1494.61 1468.59 Q1492.78 1466.44 1489.63 1466.44 M1498.92 1451.78 L1498.92 1456.04 Q1497.16 1455.21 1495.35 1454.77 Q1493.57 1454.33 1491.81 1454.33 Q1487.18 1454.33 1484.73 1457.45 Q1482.3 1460.58 1481.95 1466.9 Q1483.31 1464.89 1485.37 1463.82 Q1487.43 1462.73 1489.91 1462.73 Q1495.12 1462.73 1498.13 1465.9 Q1501.16 1469.05 1501.16 1474.49 Q1501.16 1479.82 1498.01 1483.03 Q1494.86 1486.25 1489.63 1486.25 Q1483.64 1486.25 1480.47 1481.67 Q1477.3 1477.06 1477.3 1468.33 Q1477.3 1460.14 1481.18 1455.28 Q1485.07 1450.39 1491.62 1450.39 Q1493.38 1450.39 1495.17 1450.74 Q1496.97 1451.09 1498.92 1451.78 Z" fill="#000000" fill-rule="nonzero" fill-opacity="1" /><path clip-path="url(#clip150)" d="M1920.99 1469.17 Q1917.66 1469.17 1915.74 1470.95 Q1913.84 1472.73 1913.84 1475.86 Q1913.84 1478.98 1915.74 1480.77 Q1917.66 1482.55 1920.99 1482.55 Q1924.33 1482.55 1926.25 1480.77 Q1928.17 1478.96 1928.17 1475.86 Q1928.17 1472.73 1926.25 1470.95 Q1924.35 1469.17 1920.99 1469.17 M1916.32 1467.18 Q1913.31 1466.44 1911.62 1464.38 Q1909.95 1462.32 1909.95 1459.35 Q1909.95 1455.21 1912.89 1452.8 Q1915.85 1450.39 1920.99 1450.39 Q1926.15 1450.39 1929.09 1452.8 Q1932.03 1455.21 1932.03 1459.35 Q1932.03 1462.32 1930.34 1464.38 Q1928.68 1466.44 1925.69 1467.18 Q1929.07 1467.96 1930.95 1470.26 Q1932.84 1472.55 1932.84 1475.86 Q1932.84 1480.88 1929.77 1483.57 Q1926.71 1486.25 1920.99 1486.25 Q1915.27 1486.25 1912.2 1483.57 Q1909.14 1480.88 1909.14 1475.86 Q1909.14 1472.55 1911.04 1470.26 Q1912.94 1467.96 1916.32 1467.18 M1914.6 1459.79 Q1914.6 1462.48 1916.27 1463.98 Q1917.96 1465.49 1920.99 1465.49 Q1924 1465.49 1925.69 1463.98 Q1927.4 1462.48 1927.4 1459.79 Q1927.4 1457.11 1925.69 1455.6 Q1924 1454.1 1920.99 1454.1 Q1917.96 1454.1 1916.27 1455.6 Q1914.6 1457.11 1914.6 1459.79 Z" fill="#000000" fill-rule="nonzero" fill-opacity="1" /><path clip-path="url(#clip150)" d="M2327.44 1481.64 L2335.08 1481.64 L2335.08 1455.28 L2326.77 1456.95 L2326.77 1452.69 L2335.04 1451.02 L2339.71 1451.02 L2339.71 1481.64 L2347.35 1481.64 L2347.35 1485.58 L2327.44 1485.58 L2327.44 1481.64 Z" fill="#000000" fill-rule="nonzero" fill-opacity="1" /><path clip-path="url(#clip150)" d="M2366.8 1454.1 Q2363.18 1454.1 2361.36 1457.66 Q2359.55 1461.2 2359.55 1468.33 Q2359.55 1475.44 2361.36 1479.01 Q2363.18 1482.55 2366.8 1482.55 Q2370.43 1482.55 2372.23 1479.01 Q2374.06 1475.44 2374.06 1468.33 Q2374.06 1461.2 2372.23 1457.66 Q2370.43 1454.1 2366.8 1454.1 M2366.8 1450.39 Q2372.61 1450.39 2375.66 1455 Q2378.74 1459.58 2378.74 1468.33 Q2378.74 1477.06 2375.66 1481.67 Q2372.61 1486.25 2366.8 1486.25 Q2360.99 1486.25 2357.91 1481.67 Q2354.85 1477.06 2354.85 1468.33 Q2354.85 1459.58 2357.91 1455 Q2360.99 1450.39 2366.8 1450.39 Z" fill="#000000" fill-rule="nonzero" fill-opacity="1" /><path clip-path="url(#clip150)" d="M1272.41 1522.27 L1272.41 1532.4 L1284.47 1532.4 L1284.47 1536.95 L1272.41 1536.95 L1272.41 1556.3 Q1272.41 1560.66 1273.58 1561.9 Q1274.79 1563.14 1278.45 1563.14 L1284.47 1563.14 L1284.47 1568.04 L1278.45 1568.04 Q1271.67 1568.04 1269.1 1565.53 Q1266.52 1562.98 1266.52 1556.3 L1266.52 1536.95 L1262.22 1536.95 L1262.22 1532.4 L1266.52 1532.4 L1266.52 1522.27 L1272.41 1522.27 Z" fill="#000000" fill-rule="nonzero" fill-opacity="1" /><polyline clip-path="url(#clip152)" style="stroke:#000000; stroke-linecap:round; stroke-linejoin:round; stroke-width:2; stroke-opacity:0.1; fill:none" points="193.936,1398.29 2352.76,1398.29 "/>
<polyline clip-path="url(#clip152)" style="stroke:#000000; stroke-linecap:round; stroke-linejoin:round; stroke-width:2; stroke-opacity:0.1; fill:none" points="193.936,1201.14 2352.76,1201.14 "/>
<polyline clip-path="url(#clip152)" style="stroke:#000000; stroke-linecap:round; stroke-linejoin:round; stroke-width:2; stroke-opacity:0.1; fill:none" points="193.936,1004 2352.76,1004 "/>
<polyline clip-path="url(#clip152)" style="stroke:#000000; stroke-linecap:round; stroke-linejoin:round; stroke-width:2; stroke-opacity:0.1; fill:none" points="193.936,806.846 2352.76,806.846 "/>
<polyline clip-path="url(#clip152)" style="stroke:#000000; stroke-linecap:round; stroke-linejoin:round; stroke-width:2; stroke-opacity:0.1; fill:none" points="193.936,609.697 2352.76,609.697 "/>
<polyline clip-path="url(#clip152)" style="stroke:#000000; stroke-linecap:round; stroke-linejoin:round; stroke-width:2; stroke-opacity:0.1; fill:none" points="193.936,412.547 2352.76,412.547 "/>
<polyline clip-path="url(#clip152)" style="stroke:#000000; stroke-linecap:round; stroke-linejoin:round; stroke-width:2; stroke-opacity:0.1; fill:none" points="193.936,215.398 2352.76,215.398 "/>
<polyline clip-path="url(#clip150)" style="stroke:#000000; stroke-linecap:round; stroke-linejoin:round; stroke-width:4; stroke-opacity:1; fill:none" points="193.936,1423.18 193.936,47.2441 "/>
<polyline clip-path="url(#clip150)" style="stroke:#000000; stroke-linecap:round; stroke-linejoin:round; stroke-width:4; stroke-opacity:1; fill:none" points="193.936,1398.29 212.834,1398.29 "/>
<polyline clip-path="url(#clip150)" style="stroke:#000000; stroke-linecap:round; stroke-linejoin:round; stroke-width:4; stroke-opacity:1; fill:none" points="193.936,1201.14 212.834,1201.14 "/>
<polyline clip-path="url(#clip150)" style="stroke:#000000; stroke-linecap:round; stroke-linejoin:round; stroke-width:4; stroke-opacity:1; fill:none" points="193.936,1004 212.834,1004 "/>
<polyline clip-path="url(#clip150)" style="stroke:#000000; stroke-linecap:round; stroke-linejoin:round; stroke-width:4; stroke-opacity:1; fill:none" points="193.936,806.846 212.834,806.846 "/>
<polyline clip-path="url(#clip150)" style="stroke:#000000; stroke-linecap:round; stroke-linejoin:round; stroke-width:4; stroke-opacity:1; fill:none" points="193.936,609.697 212.834,609.697 "/>
<polyline clip-path="url(#clip150)" style="stroke:#000000; stroke-linecap:round; stroke-linejoin:round; stroke-width:4; stroke-opacity:1; fill:none" points="193.936,412.547 212.834,412.547 "/>
<polyline clip-path="url(#clip150)" style="stroke:#000000; stroke-linecap:round; stroke-linejoin:round; stroke-width:4; stroke-opacity:1; fill:none" points="193.936,215.398 212.834,215.398 "/>
<path clip-path="url(#clip150)" d="M51.9875 1398.74 L81.6633 1398.74 L81.6633 1402.68 L51.9875 1402.68 L51.9875 1398.74 Z" fill="#000000" fill-rule="nonzero" fill-opacity="1" /><path clip-path="url(#clip150)" d="M92.566 1411.64 L100.205 1411.64 L100.205 1385.27 L91.8947 1386.94 L91.8947 1382.68 L100.159 1381.01 L104.834 1381.01 L104.834 1411.64 L112.473 1411.64 L112.473 1415.57 L92.566 1415.57 L92.566 1411.64 Z" fill="#000000" fill-rule="nonzero" fill-opacity="1" /><path clip-path="url(#clip150)" d="M121.918 1409.69 L126.802 1409.69 L126.802 1415.57 L121.918 1415.57 L121.918 1409.69 Z" fill="#000000" fill-rule="nonzero" fill-opacity="1" /><path clip-path="url(#clip150)" d="M137.033 1381.01 L155.39 1381.01 L155.39 1384.95 L141.316 1384.95 L141.316 1393.42 Q142.334 1393.07 143.353 1392.91 Q144.371 1392.73 145.39 1392.73 Q151.177 1392.73 154.556 1395.9 Q157.936 1399.07 157.936 1404.49 Q157.936 1410.06 154.464 1413.17 Q150.992 1416.24 144.672 1416.24 Q142.496 1416.24 140.228 1415.87 Q137.982 1415.5 135.575 1414.76 L135.575 1410.06 Q137.658 1411.2 139.881 1411.75 Q142.103 1412.31 144.58 1412.31 Q148.584 1412.31 150.922 1410.2 Q153.26 1408.1 153.26 1404.49 Q153.26 1400.87 150.922 1398.77 Q148.584 1396.66 144.58 1396.66 Q142.705 1396.66 140.83 1397.08 Q138.978 1397.49 137.033 1398.37 L137.033 1381.01 Z" fill="#000000" fill-rule="nonzero" fill-opacity="1" /><path clip-path="url(#clip150)" d="M50.9921 1201.6 L80.6679 1201.6 L80.6679 1205.53 L50.9921 1205.53 L50.9921 1201.6 Z" fill="#000000" fill-rule="nonzero" fill-opacity="1" /><path clip-path="url(#clip150)" d="M91.5706 1214.49 L99.2095 1214.49 L99.2095 1188.12 L90.8993 1189.79 L90.8993 1185.53 L99.1632 1183.86 L103.839 1183.86 L103.839 1214.49 L111.478 1214.49 L111.478 1218.42 L91.5706 1218.42 L91.5706 1214.49 Z" fill="#000000" fill-rule="nonzero" fill-opacity="1" /><path clip-path="url(#clip150)" d="M120.922 1212.54 L125.807 1212.54 L125.807 1218.42 L120.922 1218.42 L120.922 1212.54 Z" fill="#000000" fill-rule="nonzero" fill-opacity="1" /><path clip-path="url(#clip150)" d="M145.992 1186.94 Q142.381 1186.94 140.552 1190.51 Q138.746 1194.05 138.746 1201.18 Q138.746 1208.29 140.552 1211.85 Q142.381 1215.39 145.992 1215.39 Q149.626 1215.39 151.431 1211.85 Q153.26 1208.29 153.26 1201.18 Q153.26 1194.05 151.431 1190.51 Q149.626 1186.94 145.992 1186.94 M145.992 1183.24 Q151.802 1183.24 154.857 1187.85 Q157.936 1192.43 157.936 1201.18 Q157.936 1209.91 154.857 1214.51 Q151.802 1219.1 145.992 1219.1 Q140.181 1219.1 137.103 1214.51 Q134.047 1209.91 134.047 1201.18 Q134.047 1192.43 137.103 1187.85 Q140.181 1183.24 145.992 1183.24 Z" fill="#000000" fill-rule="nonzero" fill-opacity="1" /><path clip-path="url(#clip150)" d="M51.9875 1004.45 L81.6633 1004.45 L81.6633 1008.38 L51.9875 1008.38 L51.9875 1004.45 Z" fill="#000000" fill-rule="nonzero" fill-opacity="1" /><path clip-path="url(#clip150)" d="M101.756 989.794 Q98.1447 989.794 96.316 993.359 Q94.5104 996.9 94.5104 1004.03 Q94.5104 1011.14 96.316 1014.7 Q98.1447 1018.24 101.756 1018.24 Q105.39 1018.24 107.196 1014.7 Q109.024 1011.14 109.024 1004.03 Q109.024 996.9 107.196 993.359 Q105.39 989.794 101.756 989.794 M101.756 986.09 Q107.566 986.09 110.621 990.697 Q113.7 995.28 113.7 1004.03 Q113.7 1012.76 110.621 1017.36 Q107.566 1021.95 101.756 1021.95 Q95.9456 1021.95 92.8669 1017.36 Q89.8114 1012.76 89.8114 1004.03 Q89.8114 995.28 92.8669 990.697 Q95.9456 986.09 101.756 986.09 Z" fill="#000000" fill-rule="nonzero" fill-opacity="1" /><path clip-path="url(#clip150)" d="M121.918 1015.4 L126.802 1015.4 L126.802 1021.28 L121.918 1021.28 L121.918 1015.4 Z" fill="#000000" fill-rule="nonzero" fill-opacity="1" /><path clip-path="url(#clip150)" d="M137.033 986.715 L155.39 986.715 L155.39 990.65 L141.316 990.65 L141.316 999.122 Q142.334 998.775 143.353 998.613 Q144.371 998.428 145.39 998.428 Q151.177 998.428 154.556 1001.6 Q157.936 1004.77 157.936 1010.19 Q157.936 1015.77 154.464 1018.87 Q150.992 1021.95 144.672 1021.95 Q142.496 1021.95 140.228 1021.58 Q137.982 1021.21 135.575 1020.46 L135.575 1015.77 Q137.658 1016.9 139.881 1017.46 Q142.103 1018.01 144.58 1018.01 Q148.584 1018.01 150.922 1015.9 Q153.26 1013.8 153.26 1010.19 Q153.26 1006.58 150.922 1004.47 Q148.584 1002.36 144.58 1002.36 Q142.705 1002.36 140.83 1002.78 Q138.978 1003.2 137.033 1004.08 L137.033 986.715 Z" fill="#000000" fill-rule="nonzero" fill-opacity="1" /><path clip-path="url(#clip150)" d="M100.76 792.645 Q97.1493 792.645 95.3206 796.209 Q93.515 799.751 93.515 806.881 Q93.515 813.987 95.3206 817.552 Q97.1493 821.093 100.76 821.093 Q104.395 821.093 106.2 817.552 Q108.029 813.987 108.029 806.881 Q108.029 799.751 106.2 796.209 Q104.395 792.645 100.76 792.645 M100.76 788.941 Q106.571 788.941 109.626 793.547 Q112.705 798.131 112.705 806.881 Q112.705 815.607 109.626 820.214 Q106.571 824.797 100.76 824.797 Q94.9502 824.797 91.8715 820.214 Q88.816 815.607 88.816 806.881 Q88.816 798.131 91.8715 793.547 Q94.9502 788.941 100.76 788.941 Z" fill="#000000" fill-rule="nonzero" fill-opacity="1" /><path clip-path="url(#clip150)" d="M120.922 818.246 L125.807 818.246 L125.807 824.126 L120.922 824.126 L120.922 818.246 Z" fill="#000000" fill-rule="nonzero" fill-opacity="1" /><path clip-path="url(#clip150)" d="M145.992 792.645 Q142.381 792.645 140.552 796.209 Q138.746 799.751 138.746 806.881 Q138.746 813.987 140.552 817.552 Q142.381 821.093 145.992 821.093 Q149.626 821.093 151.431 817.552 Q153.26 813.987 153.26 806.881 Q153.26 799.751 151.431 796.209 Q149.626 792.645 145.992 792.645 M145.992 788.941 Q151.802 788.941 154.857 793.547 Q157.936 798.131 157.936 806.881 Q157.936 815.607 154.857 820.214 Q151.802 824.797 145.992 824.797 Q140.181 824.797 137.103 820.214 Q134.047 815.607 134.047 806.881 Q134.047 798.131 137.103 793.547 Q140.181 788.941 145.992 788.941 Z" fill="#000000" fill-rule="nonzero" fill-opacity="1" /><path clip-path="url(#clip150)" d="M101.756 595.495 Q98.1447 595.495 96.316 599.06 Q94.5104 602.602 94.5104 609.731 Q94.5104 616.838 96.316 620.403 Q98.1447 623.944 101.756 623.944 Q105.39 623.944 107.196 620.403 Q109.024 616.838 109.024 609.731 Q109.024 602.602 107.196 599.06 Q105.39 595.495 101.756 595.495 M101.756 591.792 Q107.566 591.792 110.621 596.398 Q113.7 600.981 113.7 609.731 Q113.7 618.458 110.621 623.065 Q107.566 627.648 101.756 627.648 Q95.9456 627.648 92.8669 623.065 Q89.8114 618.458 89.8114 609.731 Q89.8114 600.981 92.8669 596.398 Q95.9456 591.792 101.756 591.792 Z" fill="#000000" fill-rule="nonzero" fill-opacity="1" /><path clip-path="url(#clip150)" d="M121.918 621.097 L126.802 621.097 L126.802 626.977 L121.918 626.977 L121.918 621.097 Z" fill="#000000" fill-rule="nonzero" fill-opacity="1" /><path clip-path="url(#clip150)" d="M137.033 592.417 L155.39 592.417 L155.39 596.352 L141.316 596.352 L141.316 604.824 Q142.334 604.477 143.353 604.315 Q144.371 604.13 145.39 604.13 Q151.177 604.13 154.556 607.301 Q157.936 610.472 157.936 615.889 Q157.936 621.467 154.464 624.569 Q150.992 627.648 144.672 627.648 Q142.496 627.648 140.228 627.278 Q137.982 626.907 135.575 626.167 L135.575 621.467 Q137.658 622.602 139.881 623.157 Q142.103 623.713 144.58 623.713 Q148.584 623.713 150.922 621.606 Q153.26 619.5 153.26 615.889 Q153.26 612.278 150.922 610.171 Q148.584 608.065 144.58 608.065 Q142.705 608.065 140.83 608.481 Q138.978 608.898 137.033 609.778 L137.033 592.417 Z" fill="#000000" fill-rule="nonzero" fill-opacity="1" /><path clip-path="url(#clip150)" d="M91.5706 425.892 L99.2095 425.892 L99.2095 399.527 L90.8993 401.193 L90.8993 396.934 L99.1632 395.267 L103.839 395.267 L103.839 425.892 L111.478 425.892 L111.478 429.827 L91.5706 429.827 L91.5706 425.892 Z" fill="#000000" fill-rule="nonzero" fill-opacity="1" /><path clip-path="url(#clip150)" d="M120.922 423.948 L125.807 423.948 L125.807 429.827 L120.922 429.827 L120.922 423.948 Z" fill="#000000" fill-rule="nonzero" fill-opacity="1" /><path clip-path="url(#clip150)" d="M145.992 398.346 Q142.381 398.346 140.552 401.911 Q138.746 405.453 138.746 412.582 Q138.746 419.689 140.552 423.253 Q142.381 426.795 145.992 426.795 Q149.626 426.795 151.431 423.253 Q153.26 419.689 153.26 412.582 Q153.26 405.453 151.431 401.911 Q149.626 398.346 145.992 398.346 M145.992 394.643 Q151.802 394.643 154.857 399.249 Q157.936 403.832 157.936 412.582 Q157.936 421.309 154.857 425.915 Q151.802 430.499 145.992 430.499 Q140.181 430.499 137.103 425.915 Q134.047 421.309 134.047 412.582 Q134.047 403.832 137.103 399.249 Q140.181 394.643 145.992 394.643 Z" fill="#000000" fill-rule="nonzero" fill-opacity="1" /><path clip-path="url(#clip150)" d="M92.566 228.743 L100.205 228.743 L100.205 202.378 L91.8947 204.044 L91.8947 199.785 L100.159 198.118 L104.834 198.118 L104.834 228.743 L112.473 228.743 L112.473 232.678 L92.566 232.678 L92.566 228.743 Z" fill="#000000" fill-rule="nonzero" fill-opacity="1" /><path clip-path="url(#clip150)" d="M121.918 226.799 L126.802 226.799 L126.802 232.678 L121.918 232.678 L121.918 226.799 Z" fill="#000000" fill-rule="nonzero" fill-opacity="1" /><path clip-path="url(#clip150)" d="M137.033 198.118 L155.39 198.118 L155.39 202.053 L141.316 202.053 L141.316 210.526 Q142.334 210.178 143.353 210.016 Q144.371 209.831 145.39 209.831 Q151.177 209.831 154.556 213.002 Q157.936 216.174 157.936 221.59 Q157.936 227.169 154.464 230.271 Q150.992 233.35 144.672 233.35 Q142.496 233.35 140.228 232.979 Q137.982 232.609 135.575 231.868 L135.575 227.169 Q137.658 228.303 139.881 228.859 Q142.103 229.414 144.58 229.414 Q148.584 229.414 150.922 227.308 Q153.26 225.201 153.26 221.59 Q153.26 217.979 150.922 215.873 Q148.584 213.766 144.58 213.766 Q142.705 213.766 140.83 214.183 Q138.978 214.6 137.033 215.479 L137.033 198.118 Z" fill="#000000" fill-rule="nonzero" fill-opacity="1" /><polyline clip-path="url(#clip152)" style="stroke:#009af9; stroke-linecap:round; stroke-linejoin:round; stroke-width:4; stroke-opacity:1; fill:none" points="193.936,806.846 196.097,814.501 198.258,822.055 200.419,829.508 202.58,836.863 204.741,844.12 206.902,851.281 209.063,858.347 211.224,865.319 213.385,872.199 215.546,878.987 217.707,885.686 219.868,892.296 222.029,898.818 224.19,905.254 226.351,911.604 228.512,917.87 230.673,924.053 232.834,930.154 234.995,936.175 237.156,942.115 239.317,947.977 241.478,953.761 243.639,959.468 245.8,965.1 247.961,970.657 250.122,976.14 252.282,981.55 254.443,986.889 256.604,992.157 258.765,997.356 260.926,1002.48 263.087,1007.55 265.248,1012.54 267.409,1017.47 269.57,1022.33 271.731,1027.13 273.892,1031.86 276.053,1036.54 278.214,1041.15 280.375,1045.69 282.536,1050.18 284.697,1054.61 286.858,1058.98 289.019,1063.29 291.18,1067.55 293.341,1071.75 295.502,1075.89 297.663,1079.98 299.824,1084.01 301.985,1087.99 304.146,1091.92 306.307,1095.8 308.468,1099.62 310.629,1103.39 312.79,1107.12 314.951,1110.79 317.112,1114.42 319.273,1117.99 321.434,1121.52 323.595,1125.01 325.756,1128.44 327.917,1131.84 330.078,1135.18 332.239,1138.48 334.4,1141.74 336.561,1144.96 338.722,1148.13 340.883,1151.26 343.044,1154.35 345.205,1157.4 347.366,1160.4 349.527,1163.37 351.688,1166.3 353.849,1169.19 356.01,1172.04 358.171,1174.85 360.332,1177.63 362.493,1180.37 364.653,1183.07 366.814,1185.74 368.975,1188.37 371.136,1190.97 373.297,1193.53 375.458,1196.06 377.619,1198.55 379.78,1201.01 381.941,1203.44 384.102,1205.84 386.263,1208.21 388.424,1210.54 390.585,1212.84 392.746,1215.11 394.907,1217.36 397.068,1219.57 399.229,1221.51 401.39,1222.24 403.551,1221.84 405.712,1220.5 407.873,1218.41 410.034,1215.7 412.195,1212.54 414.356,1209.04 416.517,1205.33 418.678,1201.49 420.839,1197.63 423,1193.8 425.161,1190.07 427.322,1186.47 429.483,1183.03 431.644,1179.77 433.805,1176.67 435.966,1173.72 438.127,1170.89 440.288,1168.12 442.449,1165.37 444.61,1162.55 446.771,1159.72 448.932,1156.94 451.093,1154.19 453.254,1151.47 455.415,1148.8 457.576,1146.16 459.737,1143.55 461.898,1140.98 464.059,1138.44 466.22,1135.93 468.381,1133.46 470.542,1131.02 472.703,1128.62 474.864,1126.24 477.024,1123.9 479.185,1121.59 481.346,1119.31 483.507,1117.06 485.668,1114.84 487.829,1112.64 489.99,1110.48 492.151,1108.35 494.312,1106.24 496.473,1104.17 498.634,1102.12 500.795,1100.09 502.956,1098.1 505.117,1096.13 507.278,1094.18 509.439,1092.27 511.6,1090.37 513.761,1088.51 515.922,1086.67 518.083,1084.85 520.244,1083.05 522.405,1081.28 524.566,1079.54 526.727,1077.82 528.888,1076.12 531.049,1074.44 533.21,1072.78 535.371,1071.15 537.532,1069.54 539.693,1067.95 541.854,1066.38 544.015,1064.83 546.176,1063.3 548.337,1061.79 550.498,1060.3 552.659,1058.84 554.82,1057.39 556.981,1055.96 559.142,1054.55 561.303,1053.16 563.464,1051.78 565.625,1050.43 567.786,1049.09 569.947,1047.77 572.108,1046.47 574.269,1045.18 576.43,1043.91 578.591,1042.66 580.752,1041.43 582.913,1040.21 585.074,1039.01 587.235,1037.82 589.396,1036.65 591.556,1035.5 593.717,1034.36 595.878,1033.23 598.039,1032.12 600.2,1031.03 602.361,1029.95 604.522,1028.88 606.683,1027.83 608.844,1026.79 611.005,1025.77 613.166,1024.76 615.327,1023.76 617.488,1022.78 619.649,1021.81 621.81,1020.85 623.971,1019.9 626.132,1019.04 628.293,1018.94 630.454,1019.66 632.615,1021.1 634.776,1023.15 636.937,1025.69 639.098,1028.65 641.259,1031.94 643.42,1035.47 645.581,1039.17 647.742,1042.99 649.903,1046.86 652.064,1050.73 654.225,1054.56 656.386,1058.32 658.547,1061.98 660.708,1065.52 662.869,1068.92 665.03,1072.17 667.191,1075.29 669.352,1078.28 671.513,1081.14 673.674,1083.92 675.835,1086.63 677.996,1089.31 680.157,1092.01 682.318,1094.77 684.479,1097.51 686.64,1100.21 688.801,1102.87 690.962,1105.5 693.123,1108.1 695.284,1110.66 697.445,1113.19 699.606,1115.68 701.767,1118.14 703.927,1120.57 706.088,1122.96 708.249,1125.33 710.41,1127.66 712.571,1129.96 714.732,1132.23 716.893,1134.47 719.054,1136.68 721.215,1138.87 723.376,1141.02 725.537,1143.14 727.698,1145.24 729.859,1147.31 732.02,1149.35 734.181,1151.36 736.342,1153.35 738.503,1155.31 740.664,1157.25 742.825,1159.16 744.986,1161.04 747.147,1162.9 749.308,1164.73 751.469,1166.54 753.63,1168.33 755.791,1170.09 757.952,1171.83 760.113,1173.55 762.274,1175.24 764.435,1176.91 766.596,1178.56 768.757,1180.18 770.918,1181.79 773.079,1183.37 775.24,1184.94 777.401,1186.48 779.562,1188 781.723,1189.5 783.884,1190.98 786.045,1192.44 788.206,1193.88 790.367,1195.31 792.528,1196.71 794.689,1198.1 796.85,1199.47 799.011,1200.81 801.172,1202.15 803.333,1203.46 805.494,1204.76 807.655,1206.04 809.816,1207.3 811.977,1208.54 814.138,1209.77 816.298,1210.99 818.459,1212.18 820.62,1213.36 822.781,1214.53 824.942,1215.68 827.103,1216.81 829.264,1217.61 831.425,1217.39 833.586,1216.27 835.747,1214.4 837.908,1211.92 840.069,1208.94 842.23,1205.59 844.391,1201.95 846.552,1198.12 848.713,1194.19 850.874,1190.22 853.035,1186.26 855.196,1182.38 857.357,1178.6 859.518,1174.95 861.679,1171.44 863.84,1168.09 866.001,1164.88 868.162,1161.8 870.323,1158.81 872.484,1155.89 874.645,1152.98 876.806,1150.03 878.967,1147.07 881.128,1144.15 883.289,1141.28 885.45,1138.44 887.611,1135.64 889.772,1132.87 891.933,1130.15 894.094,1127.45 896.255,1124.8 898.416,1122.18 900.577,1119.59 902.738,1117.04 904.899,1114.52 907.06,1112.04 909.221,1109.59 911.382,1107.17 913.543,1104.78 915.704,1102.42 917.865,1100.1 920.026,1097.81 922.187,1095.54 924.348,1093.31 926.509,1091.11 928.669,1088.93 930.83,1086.79 932.991,1084.67 935.152,1082.58 937.313,1080.52 939.474,1078.49 941.635,1076.48 943.796,1074.5 945.957,1072.55 948.118,1070.62 950.279,1068.72 952.44,1066.84 954.601,1064.99 956.762,1063.16 958.923,1061.36 961.084,1059.58 963.245,1057.82 965.406,1056.09 967.567,1054.38 969.728,1052.7 971.889,1051.03 974.05,1049.39 976.211,1047.77 978.372,1046.17 980.533,1044.59 982.694,1043.04 984.855,1041.5 987.016,1039.98 989.177,1038.49 991.338,1037.01 993.499,1035.55 995.66,1034.12 997.821,1032.7 999.982,1031.3 1002.14,1029.92 1004.3,1028.56 1006.46,1027.21 1008.63,1025.88 1010.79,1024.58 1012.95,1023.28 1015.11,1022.01 1017.27,1020.75 1019.43,1019.51 1021.59,1018.29 1023.75,1017.08 1025.91,1015.88 1028.07,1014.71 1030.24,1013.55 1032.4,1012.4 1034.56,1011.27 1036.72,1010.16 1038.88,1009.06 1041.04,1007.97 1043.2,1006.9 1045.36,1005.84 1047.52,1004.8 1049.68,1003.77 1051.85,1002.74 1054.01,1000.28 1056.17,995.657 1058.33,989.187 1060.49,981.178 1062.65,971.91 1064.81,961.644 1066.97,950.616 1069.13,939.041 1071.29,927.114 1073.46,915.004 1075.62,902.861 1077.78,890.812 1079.94,878.961 1082.1,867.39 1084.26,856.161 1086.42,845.31 1088.58,834.855 1090.74,824.789 1092.9,815.085 1095.07,805.691 1097.23,796.536 1099.39,787.526 1101.55,778.543 1103.71,769.457 1105.87,760.398 1108.03,751.46 1110.19,742.639 1112.35,733.936 1114.51,725.348 1116.67,716.874 1118.84,708.513 1121,700.262 1123.16,692.12 1125.32,684.087 1127.48,676.16 1129.64,668.338 1131.8,660.62 1133.96,653.004 1136.12,645.489 1138.28,638.073 1140.45,630.756 1142.61,623.536 1144.77,616.411 1146.93,609.381 1149.09,602.445 1151.25,595.6 1153.41,588.846 1155.57,582.182 1157.73,575.606 1159.89,569.117 1162.06,562.714 1164.22,556.396 1166.38,550.163 1168.54,544.011 1170.7,537.942 1172.86,531.952 1175.02,526.043 1177.18,520.211 1179.34,514.457 1181.5,508.779 1183.67,503.177 1185.83,497.648 1187.99,492.193 1190.15,486.811 1192.31,481.499 1194.47,476.258 1196.63,471.087 1198.79,465.984 1200.95,460.948 1203.11,455.98 1205.28,451.077 1207.44,446.239 1209.6,441.465 1211.76,436.755 1213.92,432.107 1216.08,427.521 1218.24,422.995 1220.4,418.53 1222.56,414.123 1224.72,409.776 1226.88,405.485 1229.05,401.252 1231.21,397.075 1233.37,392.953 1235.53,388.886 1237.69,384.873 1239.85,380.913 1242.01,377.006 1244.17,373.15 1246.33,369.346 1248.49,365.592 1250.66,361.887 1252.82,358.232 1254.98,354.625 1257.14,351.066 1259.3,347.542 1261.46,343.198 1263.62,338.322 1265.78,333.863 1267.94,330.535 1270.1,328.812 1272.27,328.934 1274.43,330.9 1276.59,334.473 1278.75,339.179 1280.91,344.304 1283.07,348.98 1285.23,353.393 1287.39,357.747 1289.55,362.044 1291.71,366.284 1293.88,370.467 1296.04,374.595 1298.2,378.669 1300.36,382.688 1302.52,386.654 1304.68,390.568 1306.84,394.43 1309,398.241 1311.16,402.001 1313.32,405.711 1315.49,409.372 1317.65,412.985 1319.81,416.549 1321.97,420.066 1324.13,423.537 1326.29,426.962 1328.45,430.341 1330.61,433.675 1332.77,436.965 1334.93,440.211 1337.09,443.415 1339.26,446.575 1341.42,449.694 1343.58,452.772 1345.74,455.808 1347.9,458.805 1350.06,461.761 1352.22,464.679 1354.38,467.558 1356.54,470.398 1358.7,473.201 1360.87,475.967 1363.03,478.696 1365.19,481.389 1367.35,484.046 1369.51,486.669 1371.67,489.256 1373.83,491.809 1375.99,494.328 1378.15,496.814 1380.31,499.267 1382.48,501.688 1384.64,504.076 1386.8,506.433 1388.96,508.758 1391.12,511.053 1393.28,513.317 1395.44,515.551 1397.6,517.756 1399.76,519.931 1401.92,522.078 1404.09,524.196 1406.25,526.286 1408.41,528.348 1410.57,530.383 1412.73,532.39 1414.89,534.372 1417.05,536.327 1419.21,538.256 1421.37,540.159 1423.53,542.037 1425.7,543.891 1427.86,545.719 1430.02,547.524 1432.18,549.305 1434.34,551.062 1436.5,552.795 1438.66,554.506 1440.82,556.194 1442.98,557.86 1445.14,559.503 1447.3,561.125 1449.47,562.725 1451.63,564.305 1453.79,565.863 1455.95,567.4 1458.11,568.917 1460.27,570.414 1462.43,571.891 1464.59,573.349 1466.75,574.787 1468.91,576.206 1471.08,577.607 1473.24,578.989 1475.4,580.352 1477.56,581.697 1479.72,583.025 1481.88,584.335 1484.04,585.627 1486.2,586.909 1488.36,588.625 1490.52,590.996 1492.69,593.945 1494.85,597.399 1497.01,601.289 1499.17,605.549 1501.33,610.118 1503.49,614.938 1505.65,619.956 1507.81,625.123 1509.97,630.393 1512.13,635.723 1514.3,641.078 1516.46,646.421 1518.62,651.725 1520.78,656.963 1522.94,662.113 1525.1,667.157 1527.26,672.081 1529.42,676.875 1531.58,681.533 1533.74,686.052 1535.91,690.435 1538.07,694.688 1540.23,698.819 1542.39,702.842 1544.55,706.776 1546.71,710.641 1548.87,714.463 1551.03,718.271 1553.19,722.099 1555.35,725.921 1557.51,729.692 1559.68,733.414 1561.84,737.086 1564,740.709 1566.16,744.284 1568.32,747.812 1570.48,751.293 1572.64,754.728 1574.8,758.117 1576.96,761.462 1579.12,764.762 1581.29,768.018 1583.45,771.231 1585.61,774.402 1587.77,777.531 1589.93,780.618 1592.09,783.664 1594.25,786.67 1596.41,789.636 1598.57,792.563 1600.73,795.451 1602.9,798.3 1605.06,801.112 1607.22,803.887 1609.38,806.625 1611.54,809.326 1613.7,811.992 1615.86,814.623 1618.02,817.218 1620.18,819.779 1622.34,822.306 1624.51,824.799 1626.67,827.26 1628.83,829.687 1630.99,832.083 1633.15,834.447 1635.31,836.779 1637.47,839.08 1639.63,841.351 1641.79,843.592 1643.95,845.803 1646.12,847.985 1648.28,850.137 1650.44,852.262 1652.6,854.358 1654.76,856.426 1656.92,858.467 1659.08,860.481 1661.24,862.468 1663.4,864.429 1665.56,866.364 1667.72,868.273 1669.89,870.157 1672.05,872.016 1674.21,873.85 1676.37,875.66 1678.53,877.446 1680.69,879.209 1682.85,880.948 1685.01,882.664 1687.17,884.357 1689.33,886.028 1691.5,887.676 1693.66,889.303 1695.82,890.908 1697.98,892.492 1700.14,894.055 1702.3,895.597 1704.46,896.904 1706.62,897.652 1708.78,897.903 1710.94,897.721 1713.11,897.165 1715.27,896.291 1717.43,895.152 1719.59,893.798 1721.75,892.271 1723.91,890.615 1726.07,888.867 1728.23,887.06 1730.39,885.226 1732.55,883.389 1734.72,881.575 1736.88,879.8 1739.04,878.082 1741.2,876.431 1743.36,874.855 1745.52,873.36 1747.68,871.945 1749.84,870.607 1752,869.34 1754.16,868.133 1756.33,866.971 1758.49,865.838 1760.65,864.71 1762.81,863.564 1764.97,862.375 1767.13,861.186 1769.29,860.013 1771.45,858.855 1773.61,857.713 1775.77,856.585 1777.93,855.473 1780.1,854.376 1782.26,853.293 1784.42,852.224 1786.58,851.17 1788.74,850.129 1790.9,849.103 1793.06,848.09 1795.22,847.09 1797.38,846.104 1799.54,845.13 1801.71,844.17 1803.87,843.222 1806.03,842.287 1808.19,841.364 1810.35,840.454 1812.51,839.555 1814.67,838.669 1816.83,837.794 1818.99,836.931 1821.15,836.079 1823.32,835.238 1825.48,834.409 1827.64,833.591 1829.8,832.783 1831.96,831.987 1834.12,831.201 1836.28,830.425 1838.44,829.66 1840.6,828.904 1842.76,828.159 1844.93,827.424 1847.09,826.698 1849.25,825.982 1851.41,825.276 1853.57,824.579 1855.73,823.891 1857.89,823.212 1860.05,822.543 1862.21,821.882 1864.37,821.23 1866.54,820.586 1868.7,819.951 1870.86,819.325 1873.02,818.707 1875.18,818.097 1877.34,817.495 1879.5,816.901 1881.66,816.315 1883.82,815.737 1885.98,815.166 1888.15,814.603 1890.31,814.047 1892.47,813.499 1894.63,812.958 1896.79,812.424 1898.95,811.897 1901.11,811.378 1903.27,810.865 1905.43,810.359 1907.59,809.859 1909.75,809.366 1911.92,808.88 1914.08,808.4 1916.24,807.927 1918.4,807.46 1920.56,806.999 1922.72,802.704 1924.88,797.483 1927.04,792.331 1929.2,787.248 1931.36,782.232 1933.53,777.282 1935.69,772.398 1937.85,767.579 1940.01,762.824 1942.17,758.132 1944.33,753.502 1946.49,748.933 1948.65,744.425 1950.81,739.977 1952.97,735.588 1955.14,731.257 1957.3,726.983 1959.46,722.766 1961.62,718.605 1963.78,714.499 1965.94,710.447 1968.1,706.449 1970.26,702.505 1972.42,698.612 1974.58,694.771 1976.75,690.981 1978.91,687.242 1981.07,683.552 1983.23,679.91 1985.39,676.317 1987.55,672.772 1989.71,669.274 1991.87,665.822 1994.03,662.416 1996.19,659.055 1998.36,655.738 2000.52,652.466 2002.68,649.237 2004.84,646.05 2007,642.906 2009.16,639.804 2011.32,636.743 2013.48,633.722 2015.64,630.742 2017.8,627.801 2019.96,624.899 2022.13,622.035 2024.29,619.209 2026.45,616.421 2028.61,613.67 2030.77,610.955 2032.93,608.276 2035.09,605.633 2037.25,603.025 2039.41,600.451 2041.57,597.912 2043.74,595.406 2045.9,592.934 2048.06,590.494 2050.22,588.086 2052.38,585.711 2054.54,583.367 2056.7,581.054 2058.86,578.772 2061.02,576.52 2063.18,574.297 2065.35,572.105 2067.51,569.941 2069.67,567.806 2071.83,565.699 2073.99,563.621 2076.15,561.57 2078.31,559.546 2080.47,557.549 2082.63,555.578 2084.79,553.633 2086.96,551.715 2089.12,549.821 2091.28,547.953 2093.44,546.11 2095.6,544.291 2097.76,542.496 2099.92,540.725 2102.08,538.977 2104.24,537.252 2106.4,535.551 2108.57,533.872 2110.73,532.215 2112.89,530.58 2115.05,528.967 2117.21,527.376 2119.37,525.805 2121.53,524.255 2123.69,522.726 2125.85,521.217 2128.01,519.793 2130.17,519.739 2132.34,521.389 2134.5,524.527 2136.66,528.952 2138.82,534.472 2140.98,540.91 2143.14,548.101 2145.3,555.889 2147.46,564.134 2149.62,572.707 2151.78,581.489 2153.95,590.376 2156.11,599.274 2158.27,608.104 2160.43,616.796 2162.59,625.294 2164.75,633.554 2166.91,641.543 2169.07,649.242 2171.23,656.643 2173.39,663.75 2175.56,670.579 2177.72,677.159 2179.88,683.532 2182.04,689.75 2184.2,695.878 2186.36,701.994 2188.52,708.186 2190.68,714.44 2192.84,720.614 2195,726.705 2197.17,732.716 2199.33,738.647 2201.49,744.5 2203.65,750.274 2205.81,755.973 2207.97,761.595 2210.13,767.144 2212.29,772.618 2214.45,778.02 2216.61,783.351 2218.78,788.61 2220.94,793.8 2223.1,798.922 2225.26,803.975 2227.42,808.962 2229.58,813.882 2231.74,818.737 2233.9,823.528 2236.06,828.256 2238.22,832.92 2240.38,837.523 2242.55,842.065 2244.71,846.546 2246.87,850.969 2249.03,855.332 2251.19,859.637 2253.35,863.886 2255.51,868.078 2257.67,872.214 2259.83,876.296 2261.99,880.323 2264.16,884.297 2266.32,888.218 2268.48,892.088 2270.64,895.906 2272.8,899.673 2274.96,903.39 2277.12,907.058 2279.28,910.678 2281.44,914.249 2283.6,917.773 2285.77,921.251 2287.93,924.682 2290.09,928.068 2292.25,931.409 2294.41,934.705 2296.57,937.958 2298.73,941.168 2300.89,944.336 2303.05,947.461 2305.21,950.545 2307.38,953.588 2309.54,956.591 2311.7,959.554 2313.86,962.478 2316.02,965.363 2318.18,968.209 2320.34,971.018 2322.5,973.79 2324.66,976.525 2326.82,979.223 2328.99,981.886 2331.15,984.514 2333.31,987.107 2335.47,989.665 2337.63,992.189 2339.79,994.68 2341.95,997.138 2344.11,999.563 2346.27,1001.96 2348.43,1004.32 2350.59,1006.65 2352.76,1008.95 "/>
<polyline clip-path="url(#clip152)" style="stroke:#e26f46; stroke-linecap:round; stroke-linejoin:round; stroke-width:4; stroke-opacity:1; fill:none" points="193.936,1384.24 196.097,1384.24 198.258,1384.24 200.419,1384.24 202.58,1384.24 204.741,1384.24 206.902,1384.24 209.063,1384.24 211.224,1384.24 213.385,1384.24 215.546,1384.24 217.707,1384.24 219.868,1384.24 222.029,1384.24 224.19,1384.24 226.351,1384.24 228.512,1384.24 230.673,1384.24 232.834,1384.24 234.995,1384.24 237.156,1384.24 239.317,1384.24 241.478,1384.24 243.639,1384.24 245.8,1384.24 247.961,1384.24 250.122,1384.24 252.282,1384.24 254.443,1384.24 256.604,1384.24 258.765,1384.24 260.926,1384.24 263.087,1384.24 265.248,1384.24 267.409,1384.24 269.57,1384.24 271.731,1384.24 273.892,1384.24 276.053,1384.24 278.214,1384.24 280.375,1384.24 282.536,1384.24 284.697,1384.24 286.858,1384.24 289.019,1384.24 291.18,1384.24 293.341,1384.24 295.502,1384.24 297.663,1384.24 299.824,1384.24 301.985,1384.24 304.146,1384.24 306.307,1384.24 308.468,1384.24 310.629,1384.24 312.79,1384.24 314.951,1384.24 317.112,1384.24 319.273,1384.24 321.434,1384.24 323.595,1384.24 325.756,1384.24 327.917,1384.24 330.078,1384.24 332.239,1384.24 334.4,1384.24 336.561,1384.24 338.722,1384.24 340.883,1384.24 343.044,1384.24 345.205,1384.24 347.366,1384.24 349.527,1384.24 351.688,1384.24 353.849,1384.24 356.01,1384.24 358.171,1384.24 360.332,1384.24 362.493,1384.24 364.653,1384.24 366.814,1384.24 368.975,1384.24 371.136,1384.24 373.297,1384.24 375.458,1384.24 377.619,1384.24 379.78,1384.24 381.941,1384.24 384.102,1384.24 386.263,1384.24 388.424,1384.24 390.585,1384.24 392.746,1384.24 394.907,1384.24 397.068,1384.24 399.229,1384.24 401.39,1384.24 403.551,1384.24 405.712,1384.24 407.873,1384.24 410.034,949.554 412.195,949.554 414.356,949.554 416.517,949.554 418.678,949.554 420.839,949.554 423,949.554 425.161,949.554 427.322,949.554 429.483,949.554 431.644,949.554 433.805,949.554 435.966,949.554 438.127,949.554 440.288,949.554 442.449,949.554 444.61,949.554 446.771,949.554 448.932,949.554 451.093,949.554 453.254,949.554 455.415,949.554 457.576,949.554 459.737,949.554 461.898,949.554 464.059,949.554 466.22,949.554 468.381,949.554 470.542,949.554 472.703,949.554 474.864,949.554 477.024,949.554 479.185,949.554 481.346,949.554 483.507,949.554 485.668,949.554 487.829,949.554 489.99,949.554 492.151,949.554 494.312,949.554 496.473,949.554 498.634,949.554 500.795,949.554 502.956,949.554 505.117,949.554 507.278,949.554 509.439,949.554 511.6,949.554 513.761,949.554 515.922,949.554 518.083,949.554 520.244,949.554 522.405,949.554 524.566,949.554 526.727,949.554 528.888,949.554 531.049,949.554 533.21,949.554 535.371,949.554 537.532,949.554 539.693,949.554 541.854,949.554 544.015,949.554 546.176,949.554 548.337,949.554 550.498,949.554 552.659,949.554 554.82,949.554 556.981,949.554 559.142,949.554 561.303,949.554 563.464,949.554 565.625,949.554 567.786,949.554 569.947,949.554 572.108,949.554 574.269,949.554 576.43,949.554 578.591,949.554 580.752,949.554 582.913,949.554 585.074,949.554 587.235,949.554 589.396,949.554 591.556,949.554 593.717,949.554 595.878,949.554 598.039,949.554 600.2,949.554 602.361,949.554 604.522,949.554 606.683,949.554 608.844,949.554 611.005,949.554 613.166,949.554 615.327,949.554 617.488,949.554 619.649,949.554 621.81,949.554 623.971,949.554 626.132,1301.24 628.293,1301.24 630.454,1301.24 632.615,1301.24 634.776,1301.24 636.937,1301.24 639.098,1301.24 641.259,1301.24 643.42,1301.24 645.581,1301.24 647.742,1301.24 649.903,1301.24 652.064,1301.24 654.225,1301.24 656.386,1301.24 658.547,1301.24 660.708,1301.24 662.869,1301.24 665.03,1301.24 667.191,1301.24 669.352,1301.24 671.513,1301.24 673.674,1301.24 675.835,1301.24 677.996,1301.24 680.157,1301.24 682.318,1301.24 684.479,1301.24 686.64,1301.24 688.801,1301.24 690.962,1301.24 693.123,1301.24 695.284,1301.24 697.445,1301.24 699.606,1301.24 701.767,1301.24 703.927,1301.24 706.088,1301.24 708.249,1301.24 710.41,1301.24 712.571,1301.24 714.732,1301.24 716.893,1301.24 719.054,1301.24 721.215,1301.24 723.376,1301.24 725.537,1301.24 727.698,1301.24 729.859,1301.24 732.02,1301.24 734.181,1301.24 736.342,1301.24 738.503,1301.24 740.664,1301.24 742.825,1301.24 744.986,1301.24 747.147,1301.24 749.308,1301.24 751.469,1301.24 753.63,1301.24 755.791,1301.24 757.952,1301.24 760.113,1301.24 762.274,1301.24 764.435,1301.24 766.596,1301.24 768.757,1301.24 770.918,1301.24 773.079,1301.24 775.24,1301.24 777.401,1301.24 779.562,1301.24 781.723,1301.24 783.884,1301.24 786.045,1301.24 788.206,1301.24 790.367,1301.24 792.528,1301.24 794.689,1301.24 796.85,1301.24 799.011,1301.24 801.172,1301.24 803.333,1301.24 805.494,1301.24 807.655,1301.24 809.816,1301.24 811.977,1301.24 814.138,1301.24 816.298,1301.24 818.459,1301.24 820.62,1301.24 822.781,1301.24 824.942,1301.24 827.103,1301.24 829.264,1301.24 831.425,1301.24 833.586,1301.24 835.747,1301.24 837.908,1301.24 840.069,1301.24 842.23,927.142 844.391,927.142 846.552,927.142 848.713,927.142 850.874,927.142 853.035,927.142 855.196,927.142 857.357,927.142 859.518,927.142 861.679,927.142 863.84,927.142 866.001,927.142 868.162,927.142 870.323,927.142 872.484,927.142 874.645,927.142 876.806,927.142 878.967,927.142 881.128,927.142 883.289,927.142 885.45,927.142 887.611,927.142 889.772,927.142 891.933,927.142 894.094,927.142 896.255,927.142 898.416,927.142 900.577,927.142 902.738,927.142 904.899,927.142 907.06,927.142 909.221,927.142 911.382,927.142 913.543,927.142 915.704,927.142 917.865,927.142 920.026,927.142 922.187,927.142 924.348,927.142 926.509,927.142 928.669,927.142 930.83,927.142 932.991,927.142 935.152,927.142 937.313,927.142 939.474,927.142 941.635,927.142 943.796,927.142 945.957,927.142 948.118,927.142 950.279,927.142 952.44,927.142 954.601,927.142 956.762,927.142 958.923,927.142 961.084,927.142 963.245,927.142 965.406,927.142 967.567,927.142 969.728,927.142 971.889,927.142 974.05,927.142 976.211,927.142 978.372,927.142 980.533,927.142 982.694,927.142 984.855,927.142 987.016,927.142 989.177,927.142 991.338,927.142 993.499,927.142 995.66,927.142 997.821,927.142 999.982,927.142 1002.14,927.142 1004.3,927.142 1006.46,927.142 1008.63,927.142 1010.79,927.142 1012.95,927.142 1015.11,927.142 1017.27,927.142 1019.43,927.142 1021.59,927.142 1023.75,927.142 1025.91,927.142 1028.07,927.142 1030.24,927.142 1032.4,927.142 1034.56,927.142 1036.72,927.142 1038.88,927.142 1041.04,927.142 1043.2,927.142 1045.36,927.142 1047.52,927.142 1049.68,927.142 1051.85,927.142 1054.01,927.142 1056.17,927.142 1058.33,86.1857 1060.49,86.1857 1062.65,86.1857 1064.81,86.1857 1066.97,86.1857 1069.13,86.1857 1071.29,86.1857 1073.46,86.1857 1075.62,86.1857 1077.78,86.1857 1079.94,86.1857 1082.1,86.1857 1084.26,86.1857 1086.42,86.1857 1088.58,86.1857 1090.74,86.1857 1092.9,86.1857 1095.07,86.1857 1097.23,86.1857 1099.39,86.1857 1101.55,86.1857 1103.71,86.1857 1105.87,86.1857 1108.03,86.1857 1110.19,86.1857 1112.35,86.1857 1114.51,86.1857 1116.67,86.1857 1118.84,86.1857 1121,86.1857 1123.16,86.1857 1125.32,86.1857 1127.48,86.1857 1129.64,86.1857 1131.8,86.1857 1133.96,86.1857 1136.12,86.1857 1138.28,86.1857 1140.45,86.1857 1142.61,86.1857 1144.77,86.1857 1146.93,86.1857 1149.09,86.1857 1151.25,86.1857 1153.41,86.1857 1155.57,86.1857 1157.73,86.1857 1159.89,86.1857 1162.06,86.1857 1164.22,86.1857 1166.38,86.1857 1168.54,86.1857 1170.7,86.1857 1172.86,86.1857 1175.02,86.1857 1177.18,86.1857 1179.34,86.1857 1181.5,86.1857 1183.67,86.1857 1185.83,86.1857 1187.99,86.1857 1190.15,86.1857 1192.31,86.1857 1194.47,86.1857 1196.63,86.1857 1198.79,86.1857 1200.95,86.1857 1203.11,86.1857 1205.28,86.1857 1207.44,86.1857 1209.6,86.1857 1211.76,86.1857 1213.92,86.1857 1216.08,86.1857 1218.24,86.1857 1220.4,86.1857 1222.56,86.1857 1224.72,86.1857 1226.88,86.1857 1229.05,86.1857 1231.21,86.1857 1233.37,86.1857 1235.53,86.1857 1237.69,86.1857 1239.85,86.1857 1242.01,86.1857 1244.17,86.1857 1246.33,86.1857 1248.49,86.1857 1250.66,86.1857 1252.82,86.1857 1254.98,86.1857 1257.14,86.1857 1259.3,86.1857 1261.46,86.1857 1263.62,86.1857 1265.78,86.1857 1267.94,86.1857 1270.1,86.1857 1272.27,86.1857 1274.43,681.83 1276.59,681.83 1278.75,681.83 1280.91,681.83 1283.07,681.83 1285.23,681.83 1287.39,681.83 1289.55,681.83 1291.71,681.83 1293.88,681.83 1296.04,681.83 1298.2,681.83 1300.36,681.83 1302.52,681.83 1304.68,681.83 1306.84,681.83 1309,681.83 1311.16,681.83 1313.32,681.83 1315.49,681.83 1317.65,681.83 1319.81,681.83 1321.97,681.83 1324.13,681.83 1326.29,681.83 1328.45,681.83 1330.61,681.83 1332.77,681.83 1334.93,681.83 1337.09,681.83 1339.26,681.83 1341.42,681.83 1343.58,681.83 1345.74,681.83 1347.9,681.83 1350.06,681.83 1352.22,681.83 1354.38,681.83 1356.54,681.83 1358.7,681.83 1360.87,681.83 1363.03,681.83 1365.19,681.83 1367.35,681.83 1369.51,681.83 1371.67,681.83 1373.83,681.83 1375.99,681.83 1378.15,681.83 1380.31,681.83 1382.48,681.83 1384.64,681.83 1386.8,681.83 1388.96,681.83 1391.12,681.83 1393.28,681.83 1395.44,681.83 1397.6,681.83 1399.76,681.83 1401.92,681.83 1404.09,681.83 1406.25,681.83 1408.41,681.83 1410.57,681.83 1412.73,681.83 1414.89,681.83 1417.05,681.83 1419.21,681.83 1421.37,681.83 1423.53,681.83 1425.7,681.83 1427.86,681.83 1430.02,681.83 1432.18,681.83 1434.34,681.83 1436.5,681.83 1438.66,681.83 1440.82,681.83 1442.98,681.83 1445.14,681.83 1447.3,681.83 1449.47,681.83 1451.63,681.83 1453.79,681.83 1455.95,681.83 1458.11,681.83 1460.27,681.83 1462.43,681.83 1464.59,681.83 1466.75,681.83 1468.91,681.83 1471.08,681.83 1473.24,681.83 1475.4,681.83 1477.56,681.83 1479.72,681.83 1481.88,681.83 1484.04,681.83 1486.2,681.83 1488.36,681.83 1490.52,1010.38 1492.69,1010.38 1494.85,1010.38 1497.01,1010.38 1499.17,1010.38 1501.33,1010.38 1503.49,1010.38 1505.65,1010.38 1507.81,1010.38 1509.97,1010.38 1512.13,1010.38 1514.3,1010.38 1516.46,1010.38 1518.62,1010.38 1520.78,1010.38 1522.94,1010.38 1525.1,1010.38 1527.26,1010.38 1529.42,1010.38 1531.58,1010.38 1533.74,1010.38 1535.91,1010.38 1538.07,1010.38 1540.23,1010.38 1542.39,1010.38 1544.55,1010.38 1546.71,1010.38 1548.87,1010.38 1551.03,1010.38 1553.19,1010.38 1555.35,1010.38 1557.51,1010.38 1559.68,1010.38 1561.84,1010.38 1564,1010.38 1566.16,1010.38 1568.32,1010.38 1570.48,1010.38 1572.64,1010.38 1574.8,1010.38 1576.96,1010.38 1579.12,1010.38 1581.29,1010.38 1583.45,1010.38 1585.61,1010.38 1587.77,1010.38 1589.93,1010.38 1592.09,1010.38 1594.25,1010.38 1596.41,1010.38 1598.57,1010.38 1600.73,1010.38 1602.9,1010.38 1605.06,1010.38 1607.22,1010.38 1609.38,1010.38 1611.54,1010.38 1613.7,1010.38 1615.86,1010.38 1618.02,1010.38 1620.18,1010.38 1622.34,1010.38 1624.51,1010.38 1626.67,1010.38 1628.83,1010.38 1630.99,1010.38 1633.15,1010.38 1635.31,1010.38 1637.47,1010.38 1639.63,1010.38 1641.79,1010.38 1643.95,1010.38 1646.12,1010.38 1648.28,1010.38 1650.44,1010.38 1652.6,1010.38 1654.76,1010.38 1656.92,1010.38 1659.08,1010.38 1661.24,1010.38 1663.4,1010.38 1665.56,1010.38 1667.72,1010.38 1669.89,1010.38 1672.05,1010.38 1674.21,1010.38 1676.37,1010.38 1678.53,1010.38 1680.69,1010.38 1682.85,1010.38 1685.01,1010.38 1687.17,1010.38 1689.33,1010.38 1691.5,1010.38 1693.66,1010.38 1695.82,1010.38 1697.98,1010.38 1700.14,1010.38 1702.3,1010.38 1704.46,1010.38 1706.62,772.693 1708.78,772.693 1710.94,772.693 1713.11,772.693 1715.27,772.693 1717.43,772.693 1719.59,772.693 1721.75,772.693 1723.91,772.693 1726.07,772.693 1728.23,772.693 1730.39,772.693 1732.55,772.693 1734.72,772.693 1736.88,772.693 1739.04,772.693 1741.2,772.693 1743.36,772.693 1745.52,772.693 1747.68,772.693 1749.84,772.693 1752,772.693 1754.16,772.693 1756.33,772.693 1758.49,772.693 1760.65,772.693 1762.81,772.693 1764.97,772.693 1767.13,772.693 1769.29,772.693 1771.45,772.693 1773.61,772.693 1775.77,772.693 1777.93,772.693 1780.1,772.693 1782.26,772.693 1784.42,772.693 1786.58,772.693 1788.74,772.693 1790.9,772.693 1793.06,772.693 1795.22,772.693 1797.38,772.693 1799.54,772.693 1801.71,772.693 1803.87,772.693 1806.03,772.693 1808.19,772.693 1810.35,772.693 1812.51,772.693 1814.67,772.693 1816.83,772.693 1818.99,772.693 1821.15,772.693 1823.32,772.693 1825.48,772.693 1827.64,772.693 1829.8,772.693 1831.96,772.693 1834.12,772.693 1836.28,772.693 1838.44,772.693 1840.6,772.693 1842.76,772.693 1844.93,772.693 1847.09,772.693 1849.25,772.693 1851.41,772.693 1853.57,772.693 1855.73,772.693 1857.89,772.693 1860.05,772.693 1862.21,772.693 1864.37,772.693 1866.54,772.693 1868.7,772.693 1870.86,772.693 1873.02,772.693 1875.18,772.693 1877.34,772.693 1879.5,772.693 1881.66,772.693 1883.82,772.693 1885.98,772.693 1888.15,772.693 1890.31,772.693 1892.47,772.693 1894.63,772.693 1896.79,772.693 1898.95,772.693 1901.11,772.693 1903.27,772.693 1905.43,772.693 1907.59,772.693 1909.75,772.693 1911.92,772.693 1914.08,772.693 1916.24,772.693 1918.4,772.693 1920.56,772.693 1922.72,408.909 1924.88,408.909 1927.04,408.909 1929.2,408.909 1931.36,408.909 1933.53,408.909 1935.69,408.909 1937.85,408.909 1940.01,408.909 1942.17,408.909 1944.33,408.909 1946.49,408.909 1948.65,408.909 1950.81,408.909 1952.97,408.909 1955.14,408.909 1957.3,408.909 1959.46,408.909 1961.62,408.909 1963.78,408.909 1965.94,408.909 1968.1,408.909 1970.26,408.909 1972.42,408.909 1974.58,408.909 1976.75,408.909 1978.91,408.909 1981.07,408.909 1983.23,408.909 1985.39,408.909 1987.55,408.909 1989.71,408.909 1991.87,408.909 1994.03,408.909 1996.19,408.909 1998.36,408.909 2000.52,408.909 2002.68,408.909 2004.84,408.909 2007,408.909 2009.16,408.909 2011.32,408.909 2013.48,408.909 2015.64,408.909 2017.8,408.909 2019.96,408.909 2022.13,408.909 2024.29,408.909 2026.45,408.909 2028.61,408.909 2030.77,408.909 2032.93,408.909 2035.09,408.909 2037.25,408.909 2039.41,408.909 2041.57,408.909 2043.74,408.909 2045.9,408.909 2048.06,408.909 2050.22,408.909 2052.38,408.909 2054.54,408.909 2056.7,408.909 2058.86,408.909 2061.02,408.909 2063.18,408.909 2065.35,408.909 2067.51,408.909 2069.67,408.909 2071.83,408.909 2073.99,408.909 2076.15,408.909 2078.31,408.909 2080.47,408.909 2082.63,408.909 2084.79,408.909 2086.96,408.909 2089.12,408.909 2091.28,408.909 2093.44,408.909 2095.6,408.909 2097.76,408.909 2099.92,408.909 2102.08,408.909 2104.24,408.909 2106.4,408.909 2108.57,408.909 2110.73,408.909 2112.89,408.909 2115.05,408.909 2117.21,408.909 2119.37,408.909 2121.53,408.909 2123.69,408.909 2125.85,408.909 2128.01,408.909 2130.17,408.909 2132.34,408.909 2134.5,408.909 2136.66,408.909 2138.82,1180.07 2140.98,1180.07 2143.14,1180.07 2145.3,1180.07 2147.46,1180.07 2149.62,1180.07 2151.78,1180.07 2153.95,1180.07 2156.11,1180.07 2158.27,1180.07 2160.43,1180.07 2162.59,1180.07 2164.75,1180.07 2166.91,1180.07 2169.07,1180.07 2171.23,1180.07 2173.39,1180.07 2175.56,1180.07 2177.72,1180.07 2179.88,1180.07 2182.04,1180.07 2184.2,1180.07 2186.36,1180.07 2188.52,1180.07 2190.68,1180.07 2192.84,1180.07 2195,1180.07 2197.17,1180.07 2199.33,1180.07 2201.49,1180.07 2203.65,1180.07 2205.81,1180.07 2207.97,1180.07 2210.13,1180.07 2212.29,1180.07 2214.45,1180.07 2216.61,1180.07 2218.78,1180.07 2220.94,1180.07 2223.1,1180.07 2225.26,1180.07 2227.42,1180.07 2229.58,1180.07 2231.74,1180.07 2233.9,1180.07 2236.06,1180.07 2238.22,1180.07 2240.38,1180.07 2242.55,1180.07 2244.71,1180.07 2246.87,1180.07 2249.03,1180.07 2251.19,1180.07 2253.35,1180.07 2255.51,1180.07 2257.67,1180.07 2259.83,1180.07 2261.99,1180.07 2264.16,1180.07 2266.32,1180.07 2268.48,1180.07 2270.64,1180.07 2272.8,1180.07 2274.96,1180.07 2277.12,1180.07 2279.28,1180.07 2281.44,1180.07 2283.6,1180.07 2285.77,1180.07 2287.93,1180.07 2290.09,1180.07 2292.25,1180.07 2294.41,1180.07 2296.57,1180.07 2298.73,1180.07 2300.89,1180.07 2303.05,1180.07 2305.21,1180.07 2307.38,1180.07 2309.54,1180.07 2311.7,1180.07 2313.86,1180.07 2316.02,1180.07 2318.18,1180.07 2320.34,1180.07 2322.5,1180.07 2324.66,1180.07 2326.82,1180.07 2328.99,1180.07 2331.15,1180.07 2333.31,1180.07 2335.47,1180.07 2337.63,1180.07 2339.79,1180.07 2341.95,1180.07 2344.11,1180.07 2346.27,1180.07 2348.43,1180.07 2350.59,1180.07 2352.76,1180.07 "/>
<path clip-path="url(#clip150)" d="M2039.77 248.629 L2280.8 248.629 L2280.8 93.1086 L2039.77 93.1086  Z" fill="#ffffff" fill-rule="evenodd" fill-opacity="1"/>
<polyline clip-path="url(#clip150)" style="stroke:#000000; stroke-linecap:round; stroke-linejoin:round; stroke-width:4; stroke-opacity:1; fill:none" points="2039.77,248.629 2280.8,248.629 2280.8,93.1086 2039.77,93.1086 2039.77,248.629 "/>
<polyline clip-path="url(#clip150)" style="stroke:#009af9; stroke-linecap:round; stroke-linejoin:round; stroke-width:4; stroke-opacity:1; fill:none" points="2063.76,144.949 2207.68,144.949 "/>
<path clip-path="url(#clip150)" d="M2256.32 136.303 L2246.95 148.919 L2256.81 162.229 L2251.79 162.229 L2244.24 152.043 L2236.69 162.229 L2231.67 162.229 L2241.74 148.664 L2232.53 136.303 L2237.55 136.303 L2244.42 145.539 L2251.3 136.303 L2256.32 136.303 Z" fill="#000000" fill-rule="nonzero" fill-opacity="1" /><polyline clip-path="url(#clip150)" style="stroke:#e26f46; stroke-linecap:round; stroke-linejoin:round; stroke-width:4; stroke-opacity:1; fill:none" points="2063.76,196.789 2207.68,196.789 "/>
<path clip-path="url(#clip150)" d="M2248.17 178.05 L2248.17 181.592 L2244.1 181.592 Q2241.81 181.592 2240.91 182.518 Q2240.03 183.444 2240.03 185.851 L2240.03 188.143 L2247.04 188.143 L2247.04 191.453 L2240.03 191.453 L2240.03 214.069 L2235.74 214.069 L2235.74 191.453 L2231.67 191.453 L2231.67 188.143 L2235.74 188.143 L2235.74 186.337 Q2235.74 182.009 2237.76 180.041 Q2239.77 178.05 2244.15 178.05 L2248.17 178.05 Z" fill="#000000" fill-rule="nonzero" fill-opacity="1" /></svg>
