<?xml version="1.0" encoding="utf-8"?>
<svg xmlns="http://www.w3.org/2000/svg" xmlns:xlink="http://www.w3.org/1999/xlink" width="600" height="400" viewBox="0 0 2400 1600">
<defs>
  <clipPath id="clip140">
    <rect x="0" y="0" width="2400" height="1600"/>
  </clipPath>
</defs>
<path clip-path="url(#clip140)" d="M0 1600 L2400 1600 L2400 0 L0 0  Z" fill="#ffffff" fill-rule="evenodd" fill-opacity="1"/>
<defs>
  <clipPath id="clip141">
    <rect x="192" y="47" width="2161" height="1377"/>
  </clipPath>
</defs>
<path clip-path="url(#clip140)" d="M192.941 1423.18 L2352.76 1423.18 L2352.76 47.2441 L192.941 47.2441  Z" fill="#ffffff" fill-rule="evenodd" fill-opacity="1"/>
<polyline clip-path="url(#clip141)" style="stroke:#000000; stroke-linecap:round; stroke-linejoin:round; stroke-width:2; stroke-opacity:0.1; fill:none" points="192.941,1423.18 192.941,47.2441 "/>
<polyline clip-path="url(#clip141)" style="stroke:#000000; stroke-linecap:round; stroke-linejoin:round; stroke-width:2; stroke-opacity:0.1; fill:none" points="624.904,1423.18 624.904,47.2441 "/>
<polyline clip-path="url(#clip141)" style="stroke:#000000; stroke-linecap:round; stroke-linejoin:round; stroke-width:2; stroke-opacity:0.1; fill:none" points="1056.87,1423.18 1056.87,47.2441 "/>
<polyline clip-path="url(#clip141)" style="stroke:#000000; stroke-linecap:round; stroke-linejoin:round; stroke-width:2; stroke-opacity:0.1; fill:none" points="1488.83,1423.18 1488.83,47.2441 "/>
<polyline clip-path="url(#clip141)" style="stroke:#000000; stroke-linecap:round; stroke-linejoin:round; stroke-width:2; stroke-opacity:0.1; fill:none" points="1920.79,1423.18 1920.79,47.2441 "/>
<polyline clip-path="url(#clip141)" style="stroke:#000000; stroke-linecap:round; stroke-linejoin:round; stroke-width:2; stroke-opacity:0.1; fill:none" points="2352.76,1423.18 2352.76,47.2441 "/>
<polyline clip-path="url(#clip141)" style="stroke:#000000; stroke-linecap:round; stroke-linejoin:round; stroke-width:2; stroke-opacity:0.1; fill:none" points="192.941,1130.01 2352.76,1130.01 "/>
<polyline clip-path="url(#clip141)" style="stroke:#000000; stroke-linecap:round; stroke-linejoin:round; stroke-width:2; stroke-opacity:0.1; fill:none" points="192.941,805.563 2352.76,805.563 "/>
<polyline clip-path="url(#clip141)" style="stroke:#000000; stroke-linecap:round; stroke-linejoin:round; stroke-width:2; stroke-opacity:0.1; fill:none" points="192.941,481.115 2352.76,481.115 "/>
<polyline clip-path="url(#clip141)" style="stroke:#000000; stroke-linecap:round; stroke-linejoin:round; stroke-width:2; stroke-opacity:0.1; fill:none" points="192.941,156.668 2352.76,156.668 "/>
<polyline clip-path="url(#clip140)" style="stroke:#000000; stroke-linecap:round; stroke-linejoin:round; stroke-width:4; stroke-opacity:1; fill:none" points="192.941,1423.18 2352.76,1423.18 "/>
<polyline clip-path="url(#clip140)" style="stroke:#000000; stroke-linecap:round; stroke-linejoin:round; stroke-width:4; stroke-opacity:1; fill:none" points="192.941,1423.18 192.941,1404.28 "/>
<polyline clip-path="url(#clip140)" style="stroke:#000000; stroke-linecap:round; stroke-linejoin:round; stroke-width:4; stroke-opacity:1; fill:none" points="624.904,1423.18 624.904,1404.28 "/>
<polyline clip-path="url(#clip140)" style="stroke:#000000; stroke-linecap:round; stroke-linejoin:round; stroke-width:4; stroke-opacity:1; fill:none" points="1056.87,1423.18 1056.87,1404.28 "/>
<polyline clip-path="url(#clip140)" style="stroke:#000000; stroke-linecap:round; stroke-linejoin:round; stroke-width:4; stroke-opacity:1; fill:none" points="1488.83,1423.18 1488.83,1404.28 "/>
<polyline clip-path="url(#clip140)" style="stroke:#000000; stroke-linecap:round; stroke-linejoin:round; stroke-width:4; stroke-opacity:1; fill:none" points="1920.79,1423.18 1920.79,1404.28 "/>
<polyline clip-path="url(#clip140)" style="stroke:#000000; stroke-linecap:round; stroke-linejoin:round; stroke-width:4; stroke-opacity:1; fill:none" points="2352.76,1423.18 2352.76,1404.28 "/>
<path clip-path="url(#clip140)" d="M192.941 1454.1 Q189.33 1454.1 187.501 1457.66 Q185.695 1461.2 185.695 1468.33 Q185.695 1475.44 187.501 1479.01 Q189.33 1482.55 192.941 1482.55 Q196.575 1482.55 198.38 1479.01 Q200.209 1475.44 200.209 1468.33 Q200.209 1461.2 198.38 1457.66 Q196.575 1454.1 192.941 1454.1 M192.941 1450.39 Q198.751 1450.39 201.806 1455 Q204.885 1459.58 204.885 1468.33 Q204.885 1477.06 201.806 1481.67 Q198.751 1486.25 192.941 1486.25 Q187.13 1486.25 184.052 1481.67 Q180.996 1477.06 180.996 1468.33 Q180.996 1459.58 184.052 1455 Q187.13 1450.39 192.941 1450.39 Z" fill="#000000" fill-rule="nonzero" fill-opacity="1" /><path clip-path="url(#clip140)" d="M619.556 1481.64 L635.876 1481.64 L635.876 1485.58 L613.932 1485.58 L613.932 1481.64 Q616.594 1478.89 621.177 1474.26 Q625.783 1469.61 626.964 1468.27 Q629.209 1465.74 630.089 1464.01 Q630.992 1462.25 630.992 1460.56 Q630.992 1457.8 629.047 1456.07 Q627.126 1454.33 624.024 1454.33 Q621.825 1454.33 619.371 1455.09 Q616.941 1455.86 614.163 1457.41 L614.163 1452.69 Q616.987 1451.55 619.441 1450.97 Q621.894 1450.39 623.931 1450.39 Q629.302 1450.39 632.496 1453.08 Q635.691 1455.77 635.691 1460.26 Q635.691 1462.39 634.88 1464.31 Q634.093 1466.2 631.987 1468.8 Q631.408 1469.47 628.306 1472.69 Q625.205 1475.88 619.556 1481.64 Z" fill="#000000" fill-rule="nonzero" fill-opacity="1" /><path clip-path="url(#clip140)" d="M1059.88 1455.09 L1048.07 1473.54 L1059.88 1473.54 L1059.88 1455.09 M1058.65 1451.02 L1064.53 1451.02 L1064.53 1473.54 L1069.46 1473.54 L1069.46 1477.43 L1064.53 1477.43 L1064.53 1485.58 L1059.88 1485.58 L1059.88 1477.43 L1044.27 1477.43 L1044.27 1472.92 L1058.65 1451.02 Z" fill="#000000" fill-rule="nonzero" fill-opacity="1" /><path clip-path="url(#clip140)" d="M1489.23 1466.44 Q1486.09 1466.44 1484.23 1468.59 Q1482.41 1470.74 1482.41 1474.49 Q1482.41 1478.22 1484.23 1480.39 Q1486.09 1482.55 1489.23 1482.55 Q1492.38 1482.55 1494.21 1480.39 Q1496.06 1478.22 1496.06 1474.49 Q1496.06 1470.74 1494.21 1468.59 Q1492.38 1466.44 1489.23 1466.44 M1498.52 1451.78 L1498.52 1456.04 Q1496.76 1455.21 1494.95 1454.77 Q1493.17 1454.33 1491.41 1454.33 Q1486.78 1454.33 1484.33 1457.45 Q1481.9 1460.58 1481.55 1466.9 Q1482.92 1464.89 1484.98 1463.82 Q1487.04 1462.73 1489.51 1462.73 Q1494.72 1462.73 1497.73 1465.9 Q1500.76 1469.05 1500.76 1474.49 Q1500.76 1479.82 1497.61 1483.03 Q1494.47 1486.25 1489.23 1486.25 Q1483.24 1486.25 1480.07 1481.67 Q1476.9 1477.06 1476.9 1468.33 Q1476.9 1460.14 1480.79 1455.28 Q1484.67 1450.39 1491.23 1450.39 Q1492.98 1450.39 1494.77 1450.74 Q1496.57 1451.09 1498.52 1451.78 Z" fill="#000000" fill-rule="nonzero" fill-opacity="1" /><path clip-path="url(#clip140)" d="M1920.79 1469.17 Q1917.46 1469.17 1915.54 1470.95 Q1913.64 1472.73 1913.64 1475.86 Q1913.64 1478.98 1915.54 1480.77 Q1917.46 1482.55 1920.79 1482.55 Q1924.13 1482.55 1926.05 1480.77 Q1927.97 1478.96 1927.97 1475.86 Q1927.97 1472.73 1926.05 1470.95 Q1924.15 1469.17 1920.79 1469.17 M1916.12 1467.18 Q1913.11 1466.44 1911.42 1464.38 Q1909.75 1462.32 1909.75 1459.35 Q1909.75 1455.21 1912.69 1452.8 Q1915.65 1450.39 1920.79 1450.39 Q1925.95 1450.39 1928.89 1452.8 Q1931.83 1455.21 1931.83 1459.35 Q1931.83 1462.32 1930.14 1464.38 Q1928.48 1466.44 1925.49 1467.18 Q1928.87 1467.96 1930.75 1470.26 Q1932.64 1472.55 1932.64 1475.86 Q1932.64 1480.88 1929.57 1483.57 Q1926.51 1486.25 1920.79 1486.25 Q1915.08 1486.25 1912 1483.57 Q1908.94 1480.88 1908.94 1475.86 Q1908.94 1472.55 1910.84 1470.26 Q1912.74 1467.96 1916.12 1467.18 M1914.4 1459.79 Q1914.4 1462.48 1916.07 1463.98 Q1917.76 1465.49 1920.79 1465.49 Q1923.8 1465.49 1925.49 1463.98 Q1927.2 1462.48 1927.2 1459.79 Q1927.2 1457.11 1925.49 1455.6 Q1923.8 1454.1 1920.79 1454.1 Q1917.76 1454.1 1916.07 1455.6 Q1914.4 1457.11 1914.4 1459.79 Z" fill="#000000" fill-rule="nonzero" fill-opacity="1" /><path clip-path="url(#clip140)" d="M2327.44 1481.64 L2335.08 1481.64 L2335.08 1455.28 L2326.77 1456.95 L2326.77 1452.69 L2335.04 1451.02 L2339.71 1451.02 L2339.71 1481.64 L2347.35 1481.64 L2347.35 1485.58 L2327.44 1485.58 L2327.44 1481.64 Z" fill="#000000" fill-rule="nonzero" fill-opacity="1" /><path clip-path="url(#clip140)" d="M2366.8 1454.1 Q2363.18 1454.1 2361.36 1457.66 Q2359.55 1461.2 2359.55 1468.33 Q2359.55 1475.44 2361.36 1479.01 Q2363.18 1482.55 2366.8 1482.55 Q2370.43 1482.55 2372.23 1479.01 Q2374.06 1475.44 2374.06 1468.33 Q2374.06 1461.2 2372.23 1457.66 Q2370.43 1454.1 2366.8 1454.1 M2366.8 1450.39 Q2372.61 1450.39 2375.66 1455 Q2378.74 1459.58 2378.74 1468.33 Q2378.74 1477.06 2375.66 1481.67 Q2372.61 1486.25 2366.8 1486.25 Q2360.99 1486.25 2357.91 1481.67 Q2354.85 1477.06 2354.85 1468.33 Q2354.85 1459.58 2357.91 1455 Q2360.99 1450.39 2366.8 1450.39 Z" fill="#000000" fill-rule="nonzero" fill-opacity="1" /><path clip-path="url(#clip140)" d="M1271.91 1522.27 L1271.91 1532.4 L1283.97 1532.4 L1283.97 1536.95 L1271.91 1536.95 L1271.91 1556.3 Q1271.91 1560.66 1273.09 1561.9 Q1274.3 1563.14 1277.96 1563.14 L1283.97 1563.14 L1283.97 1568.04 L1277.96 1568.04 Q1271.18 1568.04 1268.6 1565.53 Q1266.02 1562.98 1266.02 1556.3 L1266.02 1536.95 L1261.72 1536.95 L1261.72 1532.4 L1266.02 1532.4 L1266.02 1522.27 L1271.91 1522.27 Z" fill="#000000" fill-rule="nonzero" fill-opacity="1" /><polyline clip-path="url(#clip140)" style="stroke:#000000; stroke-linecap:round; stroke-linejoin:round; stroke-width:4; stroke-opacity:1; fill:none" points="192.941,1423.18 192.941,47.2441 "/>
<polyline clip-path="url(#clip140)" style="stroke:#000000; stroke-linecap:round; stroke-linejoin:round; stroke-width:4; stroke-opacity:1; fill:none" points="192.941,1130.01 211.838,1130.01 "/>
<polyline clip-path="url(#clip140)" style="stroke:#000000; stroke-linecap:round; stroke-linejoin:round; stroke-width:4; stroke-opacity:1; fill:none" points="192.941,805.563 211.838,805.563 "/>
<polyline clip-path="url(#clip140)" style="stroke:#000000; stroke-linecap:round; stroke-linejoin:round; stroke-width:4; stroke-opacity:1; fill:none" points="192.941,481.115 211.838,481.115 "/>
<polyline clip-path="url(#clip140)" style="stroke:#000000; stroke-linecap:round; stroke-linejoin:round; stroke-width:4; stroke-opacity:1; fill:none" points="192.941,156.668 211.838,156.668 "/>
<path clip-path="url(#clip140)" d="M50.9921 1130.46 L80.6679 1130.46 L80.6679 1134.4 L50.9921 1134.4 L50.9921 1130.46 Z" fill="#000000" fill-rule="nonzero" fill-opacity="1" /><path clip-path="url(#clip140)" d="M100.76 1115.81 Q97.1493 1115.81 95.3206 1119.37 Q93.515 1122.92 93.515 1130.04 Q93.515 1137.15 95.3206 1140.72 Q97.1493 1144.26 100.76 1144.26 Q104.395 1144.26 106.2 1140.72 Q108.029 1137.15 108.029 1130.04 Q108.029 1122.92 106.2 1119.37 Q104.395 1115.81 100.76 1115.81 M100.76 1112.11 Q106.571 1112.11 109.626 1116.71 Q112.705 1121.29 112.705 1130.04 Q112.705 1138.77 109.626 1143.38 Q106.571 1147.96 100.76 1147.96 Q94.9502 1147.96 91.8715 1143.38 Q88.816 1138.77 88.816 1130.04 Q88.816 1121.29 91.8715 1116.71 Q94.9502 1112.11 100.76 1112.11 Z" fill="#000000" fill-rule="nonzero" fill-opacity="1" /><path clip-path="url(#clip140)" d="M120.922 1141.41 L125.807 1141.41 L125.807 1147.29 L120.922 1147.29 L120.922 1141.41 Z" fill="#000000" fill-rule="nonzero" fill-opacity="1" /><path clip-path="url(#clip140)" d="M136.038 1112.73 L154.394 1112.73 L154.394 1116.67 L140.32 1116.67 L140.32 1125.14 Q141.339 1124.79 142.357 1124.63 Q143.376 1124.44 144.394 1124.44 Q150.181 1124.44 153.561 1127.61 Q156.941 1130.79 156.941 1136.2 Q156.941 1141.78 153.468 1144.88 Q149.996 1147.96 143.677 1147.96 Q141.501 1147.96 139.232 1147.59 Q136.987 1147.22 134.58 1146.48 L134.58 1141.78 Q136.663 1142.92 138.885 1143.47 Q141.107 1144.03 143.584 1144.03 Q147.589 1144.03 149.927 1141.92 Q152.265 1139.81 152.265 1136.2 Q152.265 1132.59 149.927 1130.48 Q147.589 1128.38 143.584 1128.38 Q141.709 1128.38 139.834 1128.79 Q137.982 1129.21 136.038 1130.09 L136.038 1112.73 Z" fill="#000000" fill-rule="nonzero" fill-opacity="1" /><path clip-path="url(#clip140)" d="M99.765 791.361 Q96.1539 791.361 94.3252 794.926 Q92.5197 798.468 92.5197 805.597 Q92.5197 812.704 94.3252 816.269 Q96.1539 819.81 99.765 819.81 Q103.399 819.81 105.205 816.269 Q107.033 812.704 107.033 805.597 Q107.033 798.468 105.205 794.926 Q103.399 791.361 99.765 791.361 M99.765 787.658 Q105.575 787.658 108.631 792.264 Q111.709 796.847 111.709 805.597 Q111.709 814.324 108.631 818.931 Q105.575 823.514 99.765 823.514 Q93.9549 823.514 90.8762 818.931 Q87.8206 814.324 87.8206 805.597 Q87.8206 796.847 90.8762 792.264 Q93.9549 787.658 99.765 787.658 Z" fill="#000000" fill-rule="nonzero" fill-opacity="1" /><path clip-path="url(#clip140)" d="M119.927 816.963 L124.811 816.963 L124.811 822.843 L119.927 822.843 L119.927 816.963 Z" fill="#000000" fill-rule="nonzero" fill-opacity="1" /><path clip-path="url(#clip140)" d="M144.996 791.361 Q141.385 791.361 139.556 794.926 Q137.751 798.468 137.751 805.597 Q137.751 812.704 139.556 816.269 Q141.385 819.81 144.996 819.81 Q148.63 819.81 150.436 816.269 Q152.265 812.704 152.265 805.597 Q152.265 798.468 150.436 794.926 Q148.63 791.361 144.996 791.361 M144.996 787.658 Q150.806 787.658 153.862 792.264 Q156.941 796.847 156.941 805.597 Q156.941 814.324 153.862 818.931 Q150.806 823.514 144.996 823.514 Q139.186 823.514 136.107 818.931 Q133.052 814.324 133.052 805.597 Q133.052 796.847 136.107 792.264 Q139.186 787.658 144.996 787.658 Z" fill="#000000" fill-rule="nonzero" fill-opacity="1" /><path clip-path="url(#clip140)" d="M100.76 466.914 Q97.1493 466.914 95.3206 470.479 Q93.515 474.02 93.515 481.15 Q93.515 488.257 95.3206 491.821 Q97.1493 495.363 100.76 495.363 Q104.395 495.363 106.2 491.821 Q108.029 488.257 108.029 481.15 Q108.029 474.02 106.2 470.479 Q104.395 466.914 100.76 466.914 M100.76 463.21 Q106.571 463.21 109.626 467.817 Q112.705 472.4 112.705 481.15 Q112.705 489.877 109.626 494.483 Q106.571 499.067 100.76 499.067 Q94.9502 499.067 91.8715 494.483 Q88.816 489.877 88.816 481.15 Q88.816 472.4 91.8715 467.817 Q94.9502 463.21 100.76 463.21 Z" fill="#000000" fill-rule="nonzero" fill-opacity="1" /><path clip-path="url(#clip140)" d="M120.922 492.516 L125.807 492.516 L125.807 498.395 L120.922 498.395 L120.922 492.516 Z" fill="#000000" fill-rule="nonzero" fill-opacity="1" /><path clip-path="url(#clip140)" d="M136.038 463.835 L154.394 463.835 L154.394 467.77 L140.32 467.77 L140.32 476.243 Q141.339 475.895 142.357 475.733 Q143.376 475.548 144.394 475.548 Q150.181 475.548 153.561 478.72 Q156.941 481.891 156.941 487.307 Q156.941 492.886 153.468 495.988 Q149.996 499.067 143.677 499.067 Q141.501 499.067 139.232 498.696 Q136.987 498.326 134.58 497.585 L134.58 492.886 Q136.663 494.02 138.885 494.576 Q141.107 495.131 143.584 495.131 Q147.589 495.131 149.927 493.025 Q152.265 490.919 152.265 487.307 Q152.265 483.696 149.927 481.59 Q147.589 479.483 143.584 479.483 Q141.709 479.483 139.834 479.9 Q137.982 480.317 136.038 481.196 L136.038 463.835 Z" fill="#000000" fill-rule="nonzero" fill-opacity="1" /><path clip-path="url(#clip140)" d="M90.5752 170.013 L98.2141 170.013 L98.2141 143.647 L89.904 145.314 L89.904 141.055 L98.1678 139.388 L102.844 139.388 L102.844 170.013 L110.483 170.013 L110.483 173.948 L90.5752 173.948 L90.5752 170.013 Z" fill="#000000" fill-rule="nonzero" fill-opacity="1" /><path clip-path="url(#clip140)" d="M119.927 168.068 L124.811 168.068 L124.811 173.948 L119.927 173.948 L119.927 168.068 Z" fill="#000000" fill-rule="nonzero" fill-opacity="1" /><path clip-path="url(#clip140)" d="M144.996 142.467 Q141.385 142.467 139.556 146.031 Q137.751 149.573 137.751 156.703 Q137.751 163.809 139.556 167.374 Q141.385 170.916 144.996 170.916 Q148.63 170.916 150.436 167.374 Q152.265 163.809 152.265 156.703 Q152.265 149.573 150.436 146.031 Q148.63 142.467 144.996 142.467 M144.996 138.763 Q150.806 138.763 153.862 143.369 Q156.941 147.953 156.941 156.703 Q156.941 165.429 153.862 170.036 Q150.806 174.619 144.996 174.619 Q139.186 174.619 136.107 170.036 Q133.052 165.429 133.052 156.703 Q133.052 147.953 136.107 143.369 Q139.186 138.763 144.996 138.763 Z" fill="#000000" fill-rule="nonzero" fill-opacity="1" /><polyline clip-path="url(#clip141)" style="stroke:#009af9; stroke-linecap:round; stroke-linejoin:round; stroke-width:4; stroke-opacity:1; fill:none" points="192.941,805.563 195.103,809.572 197.265,813.529 199.427,817.432 201.589,821.285 203.751,825.086 205.912,828.836 208.074,832.537 210.236,836.189 212.398,839.793 214.56,843.348 216.722,846.857 218.884,850.319 221.046,853.735 223.208,857.106 225.37,860.432 227.532,863.714 229.694,866.953 231.856,870.148 234.018,873.301 236.18,876.413 238.342,879.483 240.504,882.512 242.666,885.502 244.828,888.451 246.99,891.362 249.152,894.234 251.314,897.068 253.476,899.864 255.638,902.623 257.8,905.346 259.962,908.033 262.124,910.684 264.286,913.3 266.448,915.881 268.61,918.428 270.772,920.941 272.934,923.421 275.096,925.868 277.258,928.282 279.42,930.665 281.582,933.015 283.744,935.335 285.906,937.624 288.068,939.883 290.23,942.111 292.392,944.311 294.554,946.481 296.716,948.622 298.878,950.735 301.039,952.819 303.201,954.877 305.363,956.906 307.525,958.909 309.687,960.886 311.849,962.836 314.011,964.761 316.173,966.659 318.335,968.533 320.497,970.382 322.659,972.206 324.821,974.007 326.983,975.783 329.145,977.536 331.307,979.265 333.469,980.972 335.631,982.655 337.793,984.317 339.955,985.957 342.117,987.574 344.279,989.171 346.441,990.746 348.603,992.3 350.765,993.834 352.927,995.347 355.089,996.841 357.251,998.314 359.413,999.768 361.575,1001.2 363.737,1002.62 365.899,1004.02 368.061,1005.39 370.223,1006.75 372.385,1008.1 374.547,1009.42 376.709,1010.73 378.871,1012.02 381.033,1013.29 383.195,1014.54 385.357,1015.78 387.519,1017.01 389.681,1018.21 391.843,1019.4 394.005,1020.58 396.166,1021.74 398.328,1022.88 400.49,1024.01 402.652,1025.12 404.814,1026.22 406.976,1027.3 409.138,1028.45 411.3,1030.06 413.462,1032.14 415.624,1034.64 417.786,1037.51 419.948,1040.71 422.11,1044.19 424.272,1047.91 426.434,1051.83 428.596,1055.92 430.758,1060.13 432.92,1064.45 435.082,1068.83 437.244,1073.25 439.406,1077.69 441.568,1082.12 443.73,1086.52 445.892,1090.88 448.054,1095.17 450.216,1099.39 452.378,1103.53 454.54,1107.56 456.702,1111.5 458.864,1115.33 461.026,1119.05 463.188,1122.66 465.35,1126.17 467.512,1129.59 469.674,1132.91 471.836,1136.14 473.998,1139.31 476.16,1142.43 478.322,1145.5 480.484,1148.56 482.646,1151.62 484.808,1154.7 486.97,1157.74 489.132,1160.75 491.293,1163.71 493.455,1166.63 495.617,1169.52 497.779,1172.37 499.941,1175.17 502.103,1177.95 504.265,1180.68 506.427,1183.38 508.589,1186.04 510.751,1188.67 512.913,1191.26 515.075,1193.82 517.237,1196.35 519.399,1198.84 521.561,1201.3 523.723,1203.72 525.885,1206.11 528.047,1208.48 530.209,1210.81 532.371,1213.11 534.533,1215.37 536.695,1217.61 538.857,1219.82 541.019,1222 543.181,1224.15 545.343,1226.28 547.505,1228.37 549.667,1230.44 551.829,1232.48 553.991,1234.49 556.153,1236.47 558.315,1238.43 560.477,1240.37 562.639,1242.27 564.801,1244.15 566.963,1246.01 569.125,1247.84 571.287,1249.65 573.449,1251.44 575.611,1253.2 577.773,1254.94 579.935,1256.65 582.097,1258.34 584.259,1260.01 586.42,1261.66 588.582,1263.28 590.744,1264.89 592.906,1266.47 595.068,1268.03 597.23,1269.57 599.392,1271.09 601.554,1272.59 603.716,1274.07 605.878,1275.53 608.04,1276.97 610.202,1278.4 612.364,1279.8 614.526,1281.18 616.688,1282.55 618.85,1283.9 621.012,1285.23 623.174,1286.53 625.336,1287.1 627.498,1286.57 629.66,1285.05 631.822,1282.64 633.984,1279.46 636.146,1275.59 638.308,1271.13 640.47,1266.16 642.632,1260.77 644.794,1255.03 646.956,1249.02 649.118,1242.8 651.28,1236.43 653.442,1229.97 655.604,1223.47 657.766,1216.98 659.928,1210.53 662.09,1204.17 664.252,1197.93 666.414,1191.82 668.576,1185.88 670.738,1180.11 672.9,1174.53 675.062,1169.15 677.224,1163.96 679.386,1158.96 681.547,1154.14 683.709,1149.49 685.871,1144.99 688.033,1140.61 690.195,1136.32 692.357,1132.09 694.519,1127.88 696.681,1123.65 698.843,1119.34 701.005,1115.06 703.167,1110.83 705.329,1106.66 707.491,1102.54 709.653,1098.48 711.815,1094.47 713.977,1090.52 716.139,1086.62 718.301,1082.77 720.463,1078.97 722.625,1075.22 724.787,1071.52 726.949,1067.87 729.111,1064.27 731.273,1060.71 733.435,1057.21 735.597,1053.75 737.759,1050.33 739.921,1046.96 742.083,1043.64 744.245,1040.35 746.407,1037.12 748.569,1033.92 750.731,1030.77 752.893,1027.66 755.055,1024.59 757.217,1021.56 759.379,1018.57 761.541,1015.62 763.703,1012.71 765.865,1009.84 768.027,1007.01 770.189,1004.21 772.351,1001.46 774.513,998.735 776.674,996.05 778.836,993.4 780.998,990.786 783.16,988.206 785.322,985.661 787.484,983.149 789.646,980.671 791.808,978.226 793.97,975.813 796.132,973.432 798.294,971.083 800.456,968.765 802.618,966.478 804.78,964.221 806.942,961.994 809.104,959.796 811.266,957.628 813.428,955.489 815.59,953.377 817.752,951.294 819.914,949.238 822.076,947.21 824.238,945.208 826.4,943.233 828.562,941.284 830.724,939.36 832.886,937.462 835.048,935.532 837.21,933.338 839.372,930.884 841.534,928.203 843.696,925.325 845.858,922.279 848.02,919.092 850.182,915.791 852.344,912.398 854.506,908.937 856.668,905.428 858.83,901.891 860.992,898.342 863.154,894.799 865.316,891.274 867.478,887.782 869.64,884.332 871.801,880.935 873.963,877.597 876.125,874.326 878.287,871.126 880.449,868 882.611,864.948 884.773,861.972 886.935,859.068 889.097,856.233 891.259,853.463 893.421,850.749 895.583,848.085 897.745,845.459 899.907,842.86 902.069,840.275 904.231,837.691 906.393,835.129 908.555,832.601 910.717,830.107 912.879,827.646 915.041,825.217 917.203,822.821 919.365,820.456 921.527,818.123 923.689,815.82 925.851,813.549 928.013,811.307 930.175,809.095 932.337,806.912 934.499,804.759 936.661,802.634 938.823,800.537 940.985,798.467 943.147,796.426 945.309,794.411 947.471,792.423 949.633,790.461 951.795,788.526 953.957,786.616 956.119,784.731 958.281,782.872 960.443,781.037 962.605,779.226 964.767,777.439 966.928,775.676 969.09,773.936 971.252,772.22 973.414,770.526 975.576,768.854 977.738,767.205 979.9,765.577 982.062,763.972 984.224,762.387 986.386,760.823 988.548,759.281 990.71,757.758 992.872,756.256 995.034,754.774 997.196,753.312 999.358,751.869 1001.52,750.445 1003.68,749.04 1005.84,747.654 1008.01,746.286 1010.17,744.936 1012.33,743.604 1014.49,742.29 1016.65,740.993 1018.82,739.713 1020.98,738.451 1023.14,737.205 1025.3,735.975 1027.46,734.762 1029.63,733.565 1031.79,732.384 1033.95,731.219 1036.11,730.069 1038.27,728.934 1040.44,727.814 1042.6,726.709 1044.76,725.618 1046.92,724.543 1049.08,723.481 1051.25,722.433 1053.41,721.4 1055.57,720.38 1057.73,722.656 1059.89,729.644 1062.06,738.223 1064.22,746.54 1066.38,754.025 1068.54,761.326 1070.7,768.686 1072.87,775.948 1075.03,783.115 1077.19,790.186 1079.35,797.163 1081.51,804.048 1083.68,810.842 1085.84,817.546 1088,824.16 1090.16,830.688 1092.32,837.128 1094.49,843.483 1096.65,849.754 1098.81,855.942 1100.97,862.047 1103.13,868.072 1105.3,874.017 1107.46,879.883 1109.62,885.671 1111.78,891.383 1113.94,897.019 1116.1,902.58 1118.27,908.067 1120.43,913.482 1122.59,918.825 1124.75,924.097 1126.91,929.299 1129.08,934.432 1131.24,939.497 1133.4,944.495 1135.56,949.427 1137.72,954.293 1139.89,959.095 1142.05,963.833 1144.21,968.508 1146.37,973.121 1148.53,977.673 1150.7,982.165 1152.86,986.597 1155.02,990.971 1157.18,995.286 1159.34,999.545 1161.51,1003.75 1163.67,1007.89 1165.83,1011.98 1167.99,1016.02 1170.15,1020 1172.32,1023.93 1174.48,1027.81 1176.64,1031.64 1178.8,1035.42 1180.96,1039.14 1183.13,1042.82 1185.29,1046.45 1187.45,1050.03 1189.61,1053.56 1191.77,1057.05 1193.94,1060.49 1196.1,1063.88 1198.26,1067.23 1200.42,1070.53 1202.58,1073.79 1204.75,1077.01 1206.91,1080.18 1209.07,1083.32 1211.23,1086.41 1213.39,1089.46 1215.56,1092.47 1217.72,1095.44 1219.88,1098.37 1222.04,1101.26 1224.2,1104.11 1226.37,1106.93 1228.53,1109.71 1230.69,1112.45 1232.85,1115.15 1235.01,1117.82 1237.18,1120.46 1239.34,1123.06 1241.5,1125.62 1243.66,1128.15 1245.82,1130.65 1247.99,1133.11 1250.15,1135.54 1252.31,1137.94 1254.47,1140.31 1256.63,1142.64 1258.8,1144.95 1260.96,1147.22 1263.12,1149.46 1265.28,1151.68 1267.44,1153.4 1269.61,1153.93 1271.77,1153.39 1273.93,1151.9 1276.09,1149.6 1278.25,1146.59 1280.42,1142.97 1282.58,1138.86 1284.74,1134.34 1286.9,1129.5 1289.06,1124.42 1291.23,1119.17 1293.39,1113.82 1295.55,1108.43 1297.71,1103.05 1299.87,1097.72 1302.03,1092.5 1304.2,1087.4 1306.36,1082.46 1308.52,1077.68 1310.68,1073.1 1312.84,1068.7 1315.01,1064.49 1317.17,1060.47 1319.33,1056.6 1321.49,1052.88 1323.65,1049.28 1325.82,1045.75 1327.98,1042.26 1330.14,1038.76 1332.3,1035.19 1334.46,1031.58 1336.63,1028.02 1338.79,1024.5 1340.95,1021.04 1343.11,1017.61 1345.27,1014.24 1347.44,1010.91 1349.6,1007.62 1351.76,1004.38 1353.92,1001.18 1356.08,998.019 1358.25,994.903 1360.41,991.829 1362.57,988.795 1364.73,985.801 1366.89,982.847 1369.06,979.932 1371.22,977.056 1373.38,974.217 1375.54,971.416 1377.7,968.653 1379.87,965.926 1382.03,963.235 1384.19,960.579 1386.35,957.959 1388.51,955.374 1390.68,952.822 1392.84,950.305 1395,947.821 1397.16,945.37 1399.32,942.952 1401.49,940.565 1403.65,938.211 1405.81,935.887 1407.97,933.595 1410.13,931.333 1412.3,929.101 1414.46,926.899 1416.62,924.725 1418.78,922.581 1420.94,920.466 1423.11,918.378 1425.27,916.318 1427.43,914.285 1429.59,912.28 1431.75,910.301 1433.92,908.348 1436.08,906.421 1438.24,904.52 1440.4,902.644 1442.56,900.793 1444.73,898.966 1446.89,897.164 1449.05,895.385 1451.21,893.631 1453.37,891.899 1455.54,890.19 1457.7,888.504 1459.86,886.84 1462.02,885.198 1464.18,883.578 1466.35,881.979 1468.51,880.402 1470.67,878.845 1472.83,877.309 1474.99,875.793 1477.16,874.298 1479.32,872.822 1481.48,871.366 1483.64,869.929 1485.8,868.662 1487.97,868.586 1490.13,869.756 1492.29,872.016 1494.45,875.219 1496.61,879.227 1498.77,883.908 1500.94,889.143 1503.1,894.819 1505.26,900.831 1507.42,907.087 1509.58,913.499 1511.75,919.991 1513.91,926.495 1516.07,932.95 1518.23,939.306 1520.39,945.521 1522.56,951.563 1524.72,957.406 1526.88,963.035 1529.04,968.443 1531.2,973.633 1533.37,978.615 1535.53,983.408 1537.69,988.042 1539.85,992.553 1542.01,996.988 1544.18,1001.4 1546.34,1005.86 1548.5,1010.38 1550.66,1014.87 1552.82,1019.29 1554.99,1023.66 1557.15,1027.97 1559.31,1032.22 1561.47,1036.42 1563.63,1040.56 1565.8,1044.64 1567.96,1048.67 1570.12,1052.65 1572.28,1056.57 1574.44,1060.45 1576.61,1064.27 1578.77,1068.04 1580.93,1071.76 1583.09,1075.43 1585.25,1079.05 1587.42,1082.63 1589.58,1086.15 1591.74,1089.63 1593.9,1093.07 1596.06,1096.46 1598.23,1099.8 1600.39,1103.1 1602.55,1106.36 1604.71,1109.57 1606.87,1112.74 1609.04,1115.87 1611.2,1118.95 1613.36,1122 1615.52,1125 1617.68,1127.97 1619.85,1130.89 1622.01,1133.78 1624.17,1136.63 1626.33,1139.44 1628.49,1142.21 1630.66,1144.95 1632.82,1147.65 1634.98,1150.32 1637.14,1152.94 1639.3,1155.54 1641.47,1158.1 1643.63,1160.63 1645.79,1163.12 1647.95,1165.58 1650.11,1168 1652.28,1170.4 1654.44,1172.76 1656.6,1175.09 1658.76,1177.39 1660.92,1179.66 1663.09,1181.9 1665.25,1184.12 1667.41,1186.33 1669.57,1188.61 1671.73,1190.93 1673.9,1193.27 1676.06,1195.6 1678.22,1197.9 1680.38,1200.15 1682.54,1202.34 1684.7,1204.45 1686.87,1206.47 1689.03,1208.38 1691.19,1210.18 1693.35,1211.86 1695.51,1213.41 1697.68,1214.82 1699.84,1216.1 1702,1217.24 1704.16,1218.25 1706.32,1219.13 1708.49,1219.87 1710.65,1220.5 1712.81,1221.02 1714.97,1221.43 1717.13,1221.76 1719.3,1222.01 1721.46,1222.2 1723.62,1222.34 1725.78,1222.47 1727.94,1222.59 1730.11,1222.73 1732.27,1222.92 1734.43,1223.16 1736.59,1223.39 1738.75,1223.62 1740.92,1223.85 1743.08,1224.07 1745.24,1224.29 1747.4,1224.51 1749.56,1224.72 1751.73,1224.94 1753.89,1225.15 1756.05,1225.35 1758.21,1225.56 1760.37,1225.76 1762.54,1225.96 1764.7,1226.15 1766.86,1226.35 1769.02,1226.54 1771.18,1226.73 1773.35,1226.91 1775.51,1227.09 1777.67,1227.28 1779.83,1227.45 1781.99,1227.63 1784.16,1227.8 1786.32,1227.98 1788.48,1228.14 1790.64,1228.31 1792.8,1228.48 1794.97,1228.64 1797.13,1228.8 1799.29,1228.96 1801.45,1229.11 1803.61,1229.27 1805.78,1229.42 1807.94,1229.57 1810.1,1229.72 1812.26,1229.86 1814.42,1230.01 1816.59,1230.15 1818.75,1230.29 1820.91,1230.43 1823.07,1230.57 1825.23,1230.7 1827.4,1230.83 1829.56,1230.97 1831.72,1231.09 1833.88,1231.22 1836.04,1231.35 1838.21,1231.47 1840.37,1231.6 1842.53,1231.72 1844.69,1231.84 1846.85,1231.95 1849.02,1232.07 1851.18,1232.19 1853.34,1232.3 1855.5,1232.41 1857.66,1232.52 1859.83,1232.63 1861.99,1232.74 1864.15,1232.84 1866.31,1232.95 1868.47,1233.05 1870.63,1233.15 1872.8,1233.25 1874.96,1233.35 1877.12,1233.45 1879.28,1233.55 1881.44,1233.64 1883.61,1233.74 1885.77,1233.83 1887.93,1233.92 1890.09,1234.01 1892.25,1234.1 1894.42,1234.19 1896.58,1234.28 1898.74,1234.36 1900.9,1234.45 1903.06,1234.53 1905.23,1234.61 1907.39,1234.69 1909.55,1234.77 1911.71,1234.85 1913.87,1234.93 1916.04,1235.01 1918.2,1233.75 1920.36,1230.11 1922.52,1224.4 1924.68,1216.91 1926.85,1207.93 1929.01,1197.7 1931.17,1186.48 1933.33,1174.48 1935.49,1161.91 1937.66,1148.94 1939.82,1135.75 1941.98,1122.48 1944.14,1109.25 1946.3,1096.19 1948.47,1083.37 1950.63,1070.88 1952.79,1058.75 1954.95,1047.04 1957.11,1035.75 1959.28,1024.87 1961.44,1014.4 1963.6,1004.28 1965.76,994.467 1967.92,984.872 1970.09,975.402 1972.25,965.941 1974.41,956.361 1976.57,946.789 1978.73,937.345 1980.9,928.025 1983.06,918.829 1985.22,909.755 1987.38,900.801 1989.54,891.966 1991.71,883.248 1993.87,874.645 1996.03,866.157 1998.19,857.781 2000.35,849.516 2002.52,841.361 2004.68,833.314 2006.84,825.374 2009,817.538 2011.16,809.807 2013.33,802.178 2015.49,794.65 2017.65,787.222 2019.81,779.892 2021.97,772.66 2024.14,765.523 2026.3,758.481 2028.46,751.533 2030.62,744.677 2032.78,737.911 2034.95,731.236 2037.11,724.649 2039.27,718.149 2041.43,711.736 2043.59,705.407 2045.76,699.163 2047.92,693.001 2050.08,686.921 2052.24,680.922 2054.4,675.002 2056.57,669.161 2058.73,663.397 2060.89,657.71 2063.05,652.098 2065.21,646.56 2067.37,641.096 2069.54,635.704 2071.7,630.383 2073.86,625.133 2076.02,619.953 2078.18,614.841 2080.35,609.798 2082.51,604.82 2084.67,599.909 2086.83,595.063 2088.99,590.282 2091.16,585.563 2093.32,580.907 2095.48,576.313 2097.64,571.78 2099.8,567.307 2101.97,562.894 2104.13,558.538 2106.29,554.241 2108.45,550.001 2110.61,545.816 2112.78,541.688 2114.94,537.614 2117.1,533.594 2119.26,529.627 2121.42,525.713 2123.59,521.851 2125.75,518.04 2127.91,514.28 2130.07,510.569 2132.23,506.907 2134.4,503.293 2136.56,499.573 2138.72,495.658 2140.88,491.568 2143.04,487.325 2145.21,482.948 2147.37,478.456 2149.53,473.867 2151.69,469.199 2153.85,464.467 2156.02,459.687 2158.18,454.874 2160.34,450.041 2162.5,445.201 2164.66,440.366 2166.83,435.547 2168.99,430.755 2171.15,425.998 2173.31,421.286 2175.47,416.625 2177.64,412.022 2179.8,407.484 2181.96,403.016 2184.12,398.621 2186.28,394.303 2188.45,390.065 2190.61,385.907 2192.77,381.831 2194.93,377.836 2197.09,373.921 2199.26,370.085 2201.42,366.325 2203.58,362.637 2205.74,359.016 2207.9,355.457 2210.07,351.955 2212.23,348.501 2214.39,345.088 2216.55,341.707 2218.71,338.348 2220.88,335.008 2223.04,331.709 2225.2,328.454 2227.36,325.242 2229.52,322.072 2231.69,318.945 2233.85,315.859 2236.01,312.814 2238.17,309.809 2240.33,306.845 2242.5,303.919 2244.66,301.032 2246.82,298.184 2248.98,295.373 2251.14,292.6 2253.3,289.863 2255.47,287.163 2257.63,284.498 2259.79,281.869 2261.95,279.275 2264.11,276.715 2266.28,274.189 2268.44,271.696 2270.6,269.237 2272.76,266.81 2274.92,264.415 2277.09,262.052 2279.25,259.721 2281.41,257.42 2283.57,255.149 2285.73,252.909 2287.9,250.699 2290.06,248.517 2292.22,246.365 2294.38,244.241 2296.54,242.146 2298.71,240.078 2300.87,238.037 2303.03,236.024 2305.19,234.037 2307.35,232.077 2309.52,230.143 2311.68,228.234 2313.84,226.351 2316,224.493 2318.16,222.659 2320.33,220.85 2322.49,219.065 2324.65,217.303 2326.81,215.565 2328.97,213.85 2331.14,212.157 2333.3,210.487 2335.46,208.839 2337.62,207.213 2339.78,205.609 2341.95,204.026 2344.11,202.463 2346.27,200.922 2348.43,199.401 2350.59,197.9 2352.76,196.418 "/>
<polyline clip-path="url(#clip141)" style="stroke:#e26f46; stroke-linecap:round; stroke-linejoin:round; stroke-width:4; stroke-opacity:1; fill:none" points="192.941,1107.98 195.103,1107.98 197.265,1107.98 199.427,1107.98 201.589,1107.98 203.751,1107.98 205.912,1107.98 208.074,1107.98 210.236,1107.98 212.398,1107.98 214.56,1107.98 216.722,1107.98 218.884,1107.98 221.046,1107.98 223.208,1107.98 225.37,1107.98 227.532,1107.98 229.694,1107.98 231.856,1107.98 234.018,1107.98 236.18,1107.98 238.342,1107.98 240.504,1107.98 242.666,1107.98 244.828,1107.98 246.99,1107.98 249.152,1107.98 251.314,1107.98 253.476,1107.98 255.638,1107.98 257.8,1107.98 259.962,1107.98 262.124,1107.98 264.286,1107.98 266.448,1107.98 268.61,1107.98 270.772,1107.98 272.934,1107.98 275.096,1107.98 277.258,1107.98 279.42,1107.98 281.582,1107.98 283.744,1107.98 285.906,1107.98 288.068,1107.98 290.23,1107.98 292.392,1107.98 294.554,1107.98 296.716,1107.98 298.878,1107.98 301.039,1107.98 303.201,1107.98 305.363,1107.98 307.525,1107.98 309.687,1107.98 311.849,1107.98 314.011,1107.98 316.173,1107.98 318.335,1107.98 320.497,1107.98 322.659,1107.98 324.821,1107.98 326.983,1107.98 329.145,1107.98 331.307,1107.98 333.469,1107.98 335.631,1107.98 337.793,1107.98 339.955,1107.98 342.117,1107.98 344.279,1107.98 346.441,1107.98 348.603,1107.98 350.765,1107.98 352.927,1107.98 355.089,1107.98 357.251,1107.98 359.413,1107.98 361.575,1107.98 363.737,1107.98 365.899,1107.98 368.061,1107.98 370.223,1107.98 372.385,1107.98 374.547,1107.98 376.709,1107.98 378.871,1107.98 381.033,1107.98 383.195,1107.98 385.357,1107.98 387.519,1107.98 389.681,1107.98 391.843,1107.98 394.005,1107.98 396.166,1107.98 398.328,1107.98 400.49,1107.98 402.652,1107.98 404.814,1107.98 406.976,1107.98 409.138,1384.24 411.3,1384.24 413.462,1384.24 415.624,1384.24 417.786,1384.24 419.948,1384.24 422.11,1384.24 424.272,1384.24 426.434,1384.24 428.596,1384.24 430.758,1384.24 432.92,1384.24 435.082,1384.24 437.244,1384.24 439.406,1384.24 441.568,1384.24 443.73,1384.24 445.892,1384.24 448.054,1384.24 450.216,1384.24 452.378,1384.24 454.54,1384.24 456.702,1384.24 458.864,1384.24 461.026,1384.24 463.188,1384.24 465.35,1384.24 467.512,1384.24 469.674,1384.24 471.836,1384.24 473.998,1384.24 476.16,1384.24 478.322,1384.24 480.484,1384.24 482.646,1384.24 484.808,1384.24 486.97,1384.24 489.132,1384.24 491.293,1384.24 493.455,1384.24 495.617,1384.24 497.779,1384.24 499.941,1384.24 502.103,1384.24 504.265,1384.24 506.427,1384.24 508.589,1384.24 510.751,1384.24 512.913,1384.24 515.075,1384.24 517.237,1384.24 519.399,1384.24 521.561,1384.24 523.723,1384.24 525.885,1384.24 528.047,1384.24 530.209,1384.24 532.371,1384.24 534.533,1384.24 536.695,1384.24 538.857,1384.24 541.019,1384.24 543.181,1384.24 545.343,1384.24 547.505,1384.24 549.667,1384.24 551.829,1384.24 553.991,1384.24 556.153,1384.24 558.315,1384.24 560.477,1384.24 562.639,1384.24 564.801,1384.24 566.963,1384.24 569.125,1384.24 571.287,1384.24 573.449,1384.24 575.611,1384.24 577.773,1384.24 579.935,1384.24 582.097,1384.24 584.259,1384.24 586.42,1384.24 588.582,1384.24 590.744,1384.24 592.906,1384.24 595.068,1384.24 597.23,1384.24 599.392,1384.24 601.554,1384.24 603.716,1384.24 605.878,1384.24 608.04,1384.24 610.202,1384.24 612.364,1384.24 614.526,1384.24 616.688,1384.24 618.85,1384.24 621.012,1384.24 623.174,1384.24 625.336,796.202 627.498,796.202 629.66,796.202 631.822,796.202 633.984,796.202 636.146,796.202 638.308,796.202 640.47,796.202 642.632,796.202 644.794,796.202 646.956,796.202 649.118,796.202 651.28,796.202 653.442,796.202 655.604,796.202 657.766,796.202 659.928,796.202 662.09,796.202 664.252,796.202 666.414,796.202 668.576,796.202 670.738,796.202 672.9,796.202 675.062,796.202 677.224,796.202 679.386,796.202 681.547,796.202 683.709,796.202 685.871,796.202 688.033,796.202 690.195,796.202 692.357,796.202 694.519,796.202 696.681,796.202 698.843,796.202 701.005,796.202 703.167,796.202 705.329,796.202 707.491,796.202 709.653,796.202 711.815,796.202 713.977,796.202 716.139,796.202 718.301,796.202 720.463,796.202 722.625,796.202 724.787,796.202 726.949,796.202 729.111,796.202 731.273,796.202 733.435,796.202 735.597,796.202 737.759,796.202 739.921,796.202 742.083,796.202 744.245,796.202 746.407,796.202 748.569,796.202 750.731,796.202 752.893,796.202 755.055,796.202 757.217,796.202 759.379,796.202 761.541,796.202 763.703,796.202 765.865,796.202 768.027,796.202 770.189,796.202 772.351,796.202 774.513,796.202 776.674,796.202 778.836,796.202 780.998,796.202 783.16,796.202 785.322,796.202 787.484,796.202 789.646,796.202 791.808,796.202 793.97,796.202 796.132,796.202 798.294,796.202 800.456,796.202 802.618,796.202 804.78,796.202 806.942,796.202 809.104,796.202 811.266,796.202 813.428,796.202 815.59,796.202 817.752,796.202 819.914,796.202 822.076,796.202 824.238,796.202 826.4,796.202 828.562,796.202 830.724,796.202 832.886,796.202 835.048,796.202 837.21,796.202 839.372,796.202 841.534,644.466 843.696,644.466 845.858,644.466 848.02,644.466 850.182,644.466 852.344,644.466 854.506,644.466 856.668,644.466 858.83,644.466 860.992,644.466 863.154,644.466 865.316,644.466 867.478,644.466 869.64,644.466 871.801,644.466 873.963,644.466 876.125,644.466 878.287,644.466 880.449,644.466 882.611,644.466 884.773,644.466 886.935,644.466 889.097,644.466 891.259,644.466 893.421,644.466 895.583,644.466 897.745,644.466 899.907,644.466 902.069,644.466 904.231,644.466 906.393,644.466 908.555,644.466 910.717,644.466 912.879,644.466 915.041,644.466 917.203,644.466 919.365,644.466 921.527,644.466 923.689,644.466 925.851,644.466 928.013,644.466 930.175,644.466 932.337,644.466 934.499,644.466 936.661,644.466 938.823,644.466 940.985,644.466 943.147,644.466 945.309,644.466 947.471,644.466 949.633,644.466 951.795,644.466 953.957,644.466 956.119,644.466 958.281,644.466 960.443,644.466 962.605,644.466 964.767,644.466 966.928,644.466 969.09,644.466 971.252,644.466 973.414,644.466 975.576,644.466 977.738,644.466 979.9,644.466 982.062,644.466 984.224,644.466 986.386,644.466 988.548,644.466 990.71,644.466 992.872,644.466 995.034,644.466 997.196,644.466 999.358,644.466 1001.52,644.466 1003.68,644.466 1005.84,644.466 1008.01,644.466 1010.17,644.466 1012.33,644.466 1014.49,644.466 1016.65,644.466 1018.82,644.466 1020.98,644.466 1023.14,644.466 1025.3,644.466 1027.46,644.466 1029.63,644.466 1031.79,644.466 1033.95,644.466 1036.11,644.466 1038.27,644.466 1040.44,644.466 1042.6,644.466 1044.76,644.466 1046.92,644.466 1049.08,644.466 1051.25,644.466 1053.41,644.466 1055.57,644.466 1057.73,1316.47 1059.89,1316.47 1062.06,1316.47 1064.22,1316.47 1066.38,1316.47 1068.54,1316.47 1070.7,1316.47 1072.87,1316.47 1075.03,1316.47 1077.19,1316.47 1079.35,1316.47 1081.51,1316.47 1083.68,1316.47 1085.84,1316.47 1088,1316.47 1090.16,1316.47 1092.32,1316.47 1094.49,1316.47 1096.65,1316.47 1098.81,1316.47 1100.97,1316.47 1103.13,1316.47 1105.3,1316.47 1107.46,1316.47 1109.62,1316.47 1111.78,1316.47 1113.94,1316.47 1116.1,1316.47 1118.27,1316.47 1120.43,1316.47 1122.59,1316.47 1124.75,1316.47 1126.91,1316.47 1129.08,1316.47 1131.24,1316.47 1133.4,1316.47 1135.56,1316.47 1137.72,1316.47 1139.89,1316.47 1142.05,1316.47 1144.21,1316.47 1146.37,1316.47 1148.53,1316.47 1150.7,1316.47 1152.86,1316.47 1155.02,1316.47 1157.18,1316.47 1159.34,1316.47 1161.51,1316.47 1163.67,1316.47 1165.83,1316.47 1167.99,1316.47 1170.15,1316.47 1172.32,1316.47 1174.48,1316.47 1176.64,1316.47 1178.8,1316.47 1180.96,1316.47 1183.13,1316.47 1185.29,1316.47 1187.45,1316.47 1189.61,1316.47 1191.77,1316.47 1193.94,1316.47 1196.1,1316.47 1198.26,1316.47 1200.42,1316.47 1202.58,1316.47 1204.75,1316.47 1206.91,1316.47 1209.07,1316.47 1211.23,1316.47 1213.39,1316.47 1215.56,1316.47 1217.72,1316.47 1219.88,1316.47 1222.04,1316.47 1224.2,1316.47 1226.37,1316.47 1228.53,1316.47 1230.69,1316.47 1232.85,1316.47 1235.01,1316.47 1237.18,1316.47 1239.34,1316.47 1241.5,1316.47 1243.66,1316.47 1245.82,1316.47 1247.99,1316.47 1250.15,1316.47 1252.31,1316.47 1254.47,1316.47 1256.63,1316.47 1258.8,1316.47 1260.96,1316.47 1263.12,1316.47 1265.28,1316.47 1267.44,1316.47 1269.61,1316.47 1271.77,1316.47 1273.93,762.987 1276.09,762.987 1278.25,762.987 1280.42,762.987 1282.58,762.987 1284.74,762.987 1286.9,762.987 1289.06,762.987 1291.23,762.987 1293.39,762.987 1295.55,762.987 1297.71,762.987 1299.87,762.987 1302.03,762.987 1304.2,762.987 1306.36,762.987 1308.52,762.987 1310.68,762.987 1312.84,762.987 1315.01,762.987 1317.17,762.987 1319.33,762.987 1321.49,762.987 1323.65,762.987 1325.82,762.987 1327.98,762.987 1330.14,762.987 1332.3,762.987 1334.46,762.987 1336.63,762.987 1338.79,762.987 1340.95,762.987 1343.11,762.987 1345.27,762.987 1347.44,762.987 1349.6,762.987 1351.76,762.987 1353.92,762.987 1356.08,762.987 1358.25,762.987 1360.41,762.987 1362.57,762.987 1364.73,762.987 1366.89,762.987 1369.06,762.987 1371.22,762.987 1373.38,762.987 1375.54,762.987 1377.7,762.987 1379.87,762.987 1382.03,762.987 1384.19,762.987 1386.35,762.987 1388.51,762.987 1390.68,762.987 1392.84,762.987 1395,762.987 1397.16,762.987 1399.32,762.987 1401.49,762.987 1403.65,762.987 1405.81,762.987 1407.97,762.987 1410.13,762.987 1412.3,762.987 1414.46,762.987 1416.62,762.987 1418.78,762.987 1420.94,762.987 1423.11,762.987 1425.27,762.987 1427.43,762.987 1429.59,762.987 1431.75,762.987 1433.92,762.987 1436.08,762.987 1438.24,762.987 1440.4,762.987 1442.56,762.987 1444.73,762.987 1446.89,762.987 1449.05,762.987 1451.21,762.987 1453.37,762.987 1455.54,762.987 1457.7,762.987 1459.86,762.987 1462.02,762.987 1464.18,762.987 1466.35,762.987 1468.51,762.987 1470.67,762.987 1472.83,762.987 1474.99,762.987 1477.16,762.987 1479.32,762.987 1481.48,762.987 1483.64,762.987 1485.8,762.987 1487.97,762.987 1490.13,1348.65 1492.29,1348.65 1494.45,1348.65 1496.61,1348.65 1498.77,1348.65 1500.94,1348.65 1503.1,1348.65 1505.26,1348.65 1507.42,1348.65 1509.58,1348.65 1511.75,1348.65 1513.91,1348.65 1516.07,1348.65 1518.23,1348.65 1520.39,1348.65 1522.56,1348.65 1524.72,1348.65 1526.88,1348.65 1529.04,1348.65 1531.2,1348.65 1533.37,1348.65 1535.53,1348.65 1537.69,1348.65 1539.85,1348.65 1542.01,1348.65 1544.18,1348.65 1546.34,1348.65 1548.5,1348.65 1550.66,1348.65 1552.82,1348.65 1554.99,1348.65 1557.15,1348.65 1559.31,1348.65 1561.47,1348.65 1563.63,1348.65 1565.8,1348.65 1567.96,1348.65 1570.12,1348.65 1572.28,1348.65 1574.44,1348.65 1576.61,1348.65 1578.77,1348.65 1580.93,1348.65 1583.09,1348.65 1585.25,1348.65 1587.42,1348.65 1589.58,1348.65 1591.74,1348.65 1593.9,1348.65 1596.06,1348.65 1598.23,1348.65 1600.39,1348.65 1602.55,1348.65 1604.71,1348.65 1606.87,1348.65 1609.04,1348.65 1611.2,1348.65 1613.36,1348.65 1615.52,1348.65 1617.68,1348.65 1619.85,1348.65 1622.01,1348.65 1624.17,1348.65 1626.33,1348.65 1628.49,1348.65 1630.66,1348.65 1632.82,1348.65 1634.98,1348.65 1637.14,1348.65 1639.3,1348.65 1641.47,1348.65 1643.63,1348.65 1645.79,1348.65 1647.95,1348.65 1650.11,1348.65 1652.28,1348.65 1654.44,1348.65 1656.6,1348.65 1658.76,1348.65 1660.92,1348.65 1663.09,1348.65 1665.25,1348.65 1667.41,1348.65 1669.57,1348.65 1671.73,1348.65 1673.9,1348.65 1676.06,1348.65 1678.22,1348.65 1680.38,1348.65 1682.54,1348.65 1684.7,1348.65 1686.87,1348.65 1689.03,1348.65 1691.19,1348.65 1693.35,1348.65 1695.51,1348.65 1697.68,1348.65 1699.84,1348.65 1702,1348.65 1704.16,1348.65 1706.32,1240.74 1708.49,1240.74 1710.65,1240.74 1712.81,1240.74 1714.97,1240.74 1717.13,1240.74 1719.3,1240.74 1721.46,1240.74 1723.62,1240.74 1725.78,1240.74 1727.94,1240.74 1730.11,1240.74 1732.27,1240.74 1734.43,1240.74 1736.59,1240.74 1738.75,1240.74 1740.92,1240.74 1743.08,1240.74 1745.24,1240.74 1747.4,1240.74 1749.56,1240.74 1751.73,1240.74 1753.89,1240.74 1756.05,1240.74 1758.21,1240.74 1760.37,1240.74 1762.54,1240.74 1764.7,1240.74 1766.86,1240.74 1769.02,1240.74 1771.18,1240.74 1773.35,1240.74 1775.51,1240.74 1777.67,1240.74 1779.83,1240.74 1781.99,1240.74 1784.16,1240.74 1786.32,1240.74 1788.48,1240.74 1790.64,1240.74 1792.8,1240.74 1794.97,1240.74 1797.13,1240.74 1799.29,1240.74 1801.45,1240.74 1803.61,1240.74 1805.78,1240.74 1807.94,1240.74 1810.1,1240.74 1812.26,1240.74 1814.42,1240.74 1816.59,1240.74 1818.75,1240.74 1820.91,1240.74 1823.07,1240.74 1825.23,1240.74 1827.4,1240.74 1829.56,1240.74 1831.72,1240.74 1833.88,1240.74 1836.04,1240.74 1838.21,1240.74 1840.37,1240.74 1842.53,1240.74 1844.69,1240.74 1846.85,1240.74 1849.02,1240.74 1851.18,1240.74 1853.34,1240.74 1855.5,1240.74 1857.66,1240.74 1859.83,1240.74 1861.99,1240.74 1864.15,1240.74 1866.31,1240.74 1868.47,1240.74 1870.63,1240.74 1872.8,1240.74 1874.96,1240.74 1877.12,1240.74 1879.28,1240.74 1881.44,1240.74 1883.61,1240.74 1885.77,1240.74 1887.93,1240.74 1890.09,1240.74 1892.25,1240.74 1894.42,1240.74 1896.58,1240.74 1898.74,1240.74 1900.9,1240.74 1903.06,1240.74 1905.23,1240.74 1907.39,1240.74 1909.55,1240.74 1911.71,1240.74 1913.87,1240.74 1916.04,1240.74 1918.2,1240.74 1920.36,1240.74 1922.52,234.4 1924.68,234.4 1926.85,234.4 1929.01,234.4 1931.17,234.4 1933.33,234.4 1935.49,234.4 1937.66,234.4 1939.82,234.4 1941.98,234.4 1944.14,234.4 1946.3,234.4 1948.47,234.4 1950.63,234.4 1952.79,234.4 1954.95,234.4 1957.11,234.4 1959.28,234.4 1961.44,234.4 1963.6,234.4 1965.76,234.4 1967.92,234.4 1970.09,234.4 1972.25,234.4 1974.41,234.4 1976.57,234.4 1978.73,234.4 1980.9,234.4 1983.06,234.4 1985.22,234.4 1987.38,234.4 1989.54,234.4 1991.71,234.4 1993.87,234.4 1996.03,234.4 1998.19,234.4 2000.35,234.4 2002.52,234.4 2004.68,234.4 2006.84,234.4 2009,234.4 2011.16,234.4 2013.33,234.4 2015.49,234.4 2017.65,234.4 2019.81,234.4 2021.97,234.4 2024.14,234.4 2026.3,234.4 2028.46,234.4 2030.62,234.4 2032.78,234.4 2034.95,234.4 2037.11,234.4 2039.27,234.4 2041.43,234.4 2043.59,234.4 2045.76,234.4 2047.92,234.4 2050.08,234.4 2052.24,234.4 2054.4,234.4 2056.57,234.4 2058.73,234.4 2060.89,234.4 2063.05,234.4 2065.21,234.4 2067.37,234.4 2069.54,234.4 2071.7,234.4 2073.86,234.4 2076.02,234.4 2078.18,234.4 2080.35,234.4 2082.51,234.4 2084.67,234.4 2086.83,234.4 2088.99,234.4 2091.16,234.4 2093.32,234.4 2095.48,234.4 2097.64,234.4 2099.8,234.4 2101.97,234.4 2104.13,234.4 2106.29,234.4 2108.45,234.4 2110.61,234.4 2112.78,234.4 2114.94,234.4 2117.1,234.4 2119.26,234.4 2121.42,234.4 2123.59,234.4 2125.75,234.4 2127.91,234.4 2130.07,234.4 2132.23,234.4 2134.4,234.4 2136.56,234.4 2138.72,86.1857 2140.88,86.1857 2143.04,86.1857 2145.21,86.1857 2147.37,86.1857 2149.53,86.1857 2151.69,86.1857 2153.85,86.1857 2156.02,86.1857 2158.18,86.1857 2160.34,86.1857 2162.5,86.1857 2164.66,86.1857 2166.83,86.1857 2168.99,86.1857 2171.15,86.1857 2173.31,86.1857 2175.47,86.1857 2177.64,86.1857 2179.8,86.1857 2181.96,86.1857 2184.12,86.1857 2186.28,86.1857 2188.45,86.1857 2190.61,86.1857 2192.77,86.1857 2194.93,86.1857 2197.09,86.1857 2199.26,86.1857 2201.42,86.1857 2203.58,86.1857 2205.74,86.1857 2207.9,86.1857 2210.07,86.1857 2212.23,86.1857 2214.39,86.1857 2216.55,86.1857 2218.71,86.1857 2220.88,86.1857 2223.04,86.1857 2225.2,86.1857 2227.36,86.1857 2229.52,86.1857 2231.69,86.1857 2233.85,86.1857 2236.01,86.1857 2238.17,86.1857 2240.33,86.1857 2242.5,86.1857 2244.66,86.1857 2246.82,86.1857 2248.98,86.1857 2251.14,86.1857 2253.3,86.1857 2255.47,86.1857 2257.63,86.1857 2259.79,86.1857 2261.95,86.1857 2264.11,86.1857 2266.28,86.1857 2268.44,86.1857 2270.6,86.1857 2272.76,86.1857 2274.92,86.1857 2277.09,86.1857 2279.25,86.1857 2281.41,86.1857 2283.57,86.1857 2285.73,86.1857 2287.9,86.1857 2290.06,86.1857 2292.22,86.1857 2294.38,86.1857 2296.54,86.1857 2298.71,86.1857 2300.87,86.1857 2303.03,86.1857 2305.19,86.1857 2307.35,86.1857 2309.52,86.1857 2311.68,86.1857 2313.84,86.1857 2316,86.1857 2318.16,86.1857 2320.33,86.1857 2322.49,86.1857 2324.65,86.1857 2326.81,86.1857 2328.97,86.1857 2331.14,86.1857 2333.3,86.1857 2335.46,86.1857 2337.62,86.1857 2339.78,86.1857 2341.95,86.1857 2344.11,86.1857 2346.27,86.1857 2348.43,86.1857 2350.59,86.1857 2352.76,86.1857 "/>
<path clip-path="url(#clip140)" d="M264.934 248.629 L506.055 248.629 L506.055 93.1086 L264.934 93.1086  Z" fill="#ffffff" fill-rule="evenodd" fill-opacity="1"/>
<polyline clip-path="url(#clip140)" style="stroke:#000000; stroke-linecap:round; stroke-linejoin:round; stroke-width:4; stroke-opacity:1; fill:none" points="264.934,248.629 506.055,248.629 506.055,93.1086 264.934,93.1086 264.934,248.629 "/>
<polyline clip-path="url(#clip140)" style="stroke:#009af9; stroke-linecap:round; stroke-linejoin:round; stroke-width:4; stroke-opacity:1; fill:none" points="288.932,144.949 432.92,144.949 "/>
<path clip-path="url(#clip140)" d="M481.571 136.303 L472.196 148.919 L482.057 162.229 L477.034 162.229 L469.487 152.043 L461.941 162.229 L456.918 162.229 L466.987 148.664 L457.775 136.303 L462.798 136.303 L469.673 145.539 L476.548 136.303 L481.571 136.303 Z" fill="#000000" fill-rule="nonzero" fill-opacity="1" /><polyline clip-path="url(#clip140)" style="stroke:#e26f46; stroke-linecap:round; stroke-linejoin:round; stroke-width:4; stroke-opacity:1; fill:none" points="288.932,196.789 432.92,196.789 "/>
<path clip-path="url(#clip140)" d="M473.423 178.05 L473.423 181.592 L469.349 181.592 Q467.057 181.592 466.154 182.518 Q465.274 183.444 465.274 185.851 L465.274 188.143 L472.288 188.143 L472.288 191.453 L465.274 191.453 L465.274 214.069 L460.992 214.069 L460.992 191.453 L456.918 191.453 L456.918 188.143 L460.992 188.143 L460.992 186.337 Q460.992 182.009 463.006 180.041 Q465.02 178.05 469.395 178.05 L473.423 178.05 Z" fill="#000000" fill-rule="nonzero" fill-opacity="1" /></svg>
