<?xml version="1.0" encoding="utf-8"?>
<svg xmlns="http://www.w3.org/2000/svg" xmlns:xlink="http://www.w3.org/1999/xlink" width="600" height="400" viewBox="0 0 2400 1600">
<defs>
  <clipPath id="clip340">
    <rect x="0" y="0" width="2400" height="1600"/>
  </clipPath>
</defs>
<path clip-path="url(#clip340)" d="M0 1600 L2400 1600 L2400 0 L0 0  Z" fill="#ffffff" fill-rule="evenodd" fill-opacity="1"/>
<defs>
  <clipPath id="clip341">
    <rect x="480" y="0" width="1681" height="1600"/>
  </clipPath>
</defs>
<defs>
  <clipPath id="clip342">
    <rect x="155" y="47" width="2198" height="1440"/>
  </clipPath>
</defs>
<path clip-path="url(#clip342)" d="M-1057.38 2556.95 L-1057.38 2279.94 L-926.968 2141.44 L-701.079 2221.4 L-701.079 2498.41 L-831.496 2636.91 L-1057.38 2556.95  Z" fill="#ffffff" fill-rule="evenodd" fill-opacity="1"/>
<polyline clip-path="url(#clip342)" style="stroke:#000000; stroke-linecap:round; stroke-linejoin:round; stroke-width:2; stroke-opacity:0.1; fill:none" points="799.503,1235.24 1214.97,875.436 1214.97,155.834 "/>
<polyline clip-path="url(#clip342)" style="stroke:#000000; stroke-linecap:round; stroke-linejoin:round; stroke-width:2; stroke-opacity:0.1; fill:none" points="912.447,1267.84 1327.91,908.04 1327.91,188.438 "/>
<polyline clip-path="url(#clip342)" style="stroke:#000000; stroke-linecap:round; stroke-linejoin:round; stroke-width:2; stroke-opacity:0.1; fill:none" points="1025.39,1300.45 1440.85,940.645 1440.85,221.043 "/>
<polyline clip-path="url(#clip342)" style="stroke:#000000; stroke-linecap:round; stroke-linejoin:round; stroke-width:2; stroke-opacity:0.1; fill:none" points="1138.34,1333.05 1553.8,973.249 1553.8,253.647 "/>
<polyline clip-path="url(#clip342)" style="stroke:#000000; stroke-linecap:round; stroke-linejoin:round; stroke-width:2; stroke-opacity:0.1; fill:none" points="1251.28,1365.65 1666.74,1005.85 1666.74,286.251 "/>
<polyline clip-path="url(#clip342)" style="stroke:#000000; stroke-linecap:round; stroke-linejoin:round; stroke-width:2; stroke-opacity:0.1; fill:none" points="1364.22,1398.26 1779.69,1038.46 1779.69,318.855 "/>
<polyline clip-path="url(#clip342)" style="stroke:#000000; stroke-linecap:round; stroke-linejoin:round; stroke-width:2; stroke-opacity:0.1; fill:none" points="1465.59,1359.09 745.993,1151.36 745.993,431.755 "/>
<polyline clip-path="url(#clip342)" style="stroke:#000000; stroke-linecap:round; stroke-linejoin:round; stroke-width:2; stroke-opacity:0.1; fill:none" points="1545.56,1289.84 825.957,1082.11 825.957,362.504 "/>
<polyline clip-path="url(#clip342)" style="stroke:#000000; stroke-linecap:round; stroke-linejoin:round; stroke-width:2; stroke-opacity:0.1; fill:none" points="1625.52,1220.59 905.922,1012.85 905.922,293.252 "/>
<polyline clip-path="url(#clip342)" style="stroke:#000000; stroke-linecap:round; stroke-linejoin:round; stroke-width:2; stroke-opacity:0.1; fill:none" points="1705.49,1151.33 985.887,943.603 985.887,224.001 "/>
<polyline clip-path="url(#clip342)" style="stroke:#000000; stroke-linecap:round; stroke-linejoin:round; stroke-width:2; stroke-opacity:0.1; fill:none" points="1785.45,1082.08 1065.85,874.351 1065.85,154.749 "/>
<polyline clip-path="url(#clip342)" style="stroke:#000000; stroke-linecap:round; stroke-linejoin:round; stroke-width:2; stroke-opacity:0.1; fill:none" points="686.728,1163.42 1102.19,803.614 1821.79,1011.35 "/>
<polyline clip-path="url(#clip342)" style="stroke:#000000; stroke-linecap:round; stroke-linejoin:round; stroke-width:2; stroke-opacity:0.1; fill:none" points="686.728,1028.81 1102.19,669.01 1821.79,876.742 "/>
<polyline clip-path="url(#clip342)" style="stroke:#000000; stroke-linecap:round; stroke-linejoin:round; stroke-width:2; stroke-opacity:0.1; fill:none" points="686.728,894.207 1102.19,534.406 1821.79,742.137 "/>
<polyline clip-path="url(#clip342)" style="stroke:#000000; stroke-linecap:round; stroke-linejoin:round; stroke-width:2; stroke-opacity:0.1; fill:none" points="686.728,759.603 1102.19,399.802 1821.79,607.533 "/>
<polyline clip-path="url(#clip342)" style="stroke:#000000; stroke-linecap:round; stroke-linejoin:round; stroke-width:2; stroke-opacity:0.1; fill:none" points="686.728,624.999 1102.19,265.198 1821.79,472.929 "/>
<polyline clip-path="url(#clip342)" style="stroke:#000000; stroke-linecap:round; stroke-linejoin:round; stroke-width:2; stroke-opacity:0.1; fill:none" points="686.728,490.395 1102.19,130.594 1821.79,338.325 "/>
<polyline clip-path="url(#clip340)" style="stroke:#000000; stroke-linecap:round; stroke-linejoin:round; stroke-width:4; stroke-opacity:1; fill:none" points="686.728,1202.68 1406.33,1410.41 "/>
<polyline clip-path="url(#clip340)" style="stroke:#000000; stroke-linecap:round; stroke-linejoin:round; stroke-width:4; stroke-opacity:1; fill:none" points="799.503,1235.24 804.488,1230.92 "/>
<polyline clip-path="url(#clip340)" style="stroke:#000000; stroke-linecap:round; stroke-linejoin:round; stroke-width:4; stroke-opacity:1; fill:none" points="912.447,1267.84 917.433,1263.52 "/>
<polyline clip-path="url(#clip340)" style="stroke:#000000; stroke-linecap:round; stroke-linejoin:round; stroke-width:4; stroke-opacity:1; fill:none" points="1025.39,1300.45 1030.38,1296.13 "/>
<polyline clip-path="url(#clip340)" style="stroke:#000000; stroke-linecap:round; stroke-linejoin:round; stroke-width:4; stroke-opacity:1; fill:none" points="1138.34,1333.05 1143.32,1328.73 "/>
<polyline clip-path="url(#clip340)" style="stroke:#000000; stroke-linecap:round; stroke-linejoin:round; stroke-width:4; stroke-opacity:1; fill:none" points="1251.28,1365.65 1256.27,1361.34 "/>
<polyline clip-path="url(#clip340)" style="stroke:#000000; stroke-linecap:round; stroke-linejoin:round; stroke-width:4; stroke-opacity:1; fill:none" points="1364.22,1398.26 1369.21,1393.94 "/>
<path clip-path="url(#clip340)" d="M780.309 1249.18 L768.503 1267.63 L780.309 1267.63 L780.309 1249.18 M779.082 1245.11 L784.962 1245.11 L784.962 1267.63 L789.892 1267.63 L789.892 1271.52 L784.962 1271.52 L784.962 1279.67 L780.309 1279.67 L780.309 1271.52 L764.707 1271.52 L764.707 1267 L779.082 1245.11 Z" fill="#000000" fill-rule="nonzero" fill-opacity="1" /><path clip-path="url(#clip340)" d="M881.934 1277.71 L900.29 1277.71 L900.29 1281.65 L886.216 1281.65 L886.216 1290.12 Q887.235 1289.77 888.253 1289.61 Q889.272 1289.42 890.29 1289.42 Q896.077 1289.42 899.457 1292.59 Q902.836 1295.77 902.836 1301.18 Q902.836 1306.76 899.364 1309.86 Q895.892 1312.94 889.573 1312.94 Q887.397 1312.94 885.128 1312.57 Q882.883 1312.2 880.475 1311.46 L880.475 1306.76 Q882.559 1307.9 884.781 1308.45 Q887.003 1309.01 889.48 1309.01 Q893.485 1309.01 895.823 1306.9 Q898.161 1304.79 898.161 1301.18 Q898.161 1297.57 895.823 1295.46 Q893.485 1293.36 889.48 1293.36 Q887.605 1293.36 885.73 1293.78 Q883.878 1294.19 881.934 1295.07 L881.934 1277.71 Z" fill="#000000" fill-rule="nonzero" fill-opacity="1" /><path clip-path="url(#clip340)" d="M1004.25 1325.73 Q1001.1 1325.73 999.253 1327.88 Q997.424 1330.04 997.424 1333.79 Q997.424 1337.51 999.253 1339.69 Q1001.1 1341.84 1004.25 1341.84 Q1007.4 1341.84 1009.23 1339.69 Q1011.08 1337.51 1011.08 1333.79 Q1011.08 1330.04 1009.23 1327.88 Q1007.4 1325.73 1004.25 1325.73 M1013.54 1311.08 L1013.54 1315.34 Q1011.78 1314.5 1009.97 1314.06 Q1008.19 1313.62 1006.43 1313.62 Q1001.8 1313.62 999.346 1316.75 Q996.915 1319.87 996.568 1326.19 Q997.934 1324.18 999.994 1323.12 Q1002.05 1322.03 1004.53 1322.03 Q1009.74 1322.03 1012.75 1325.2 Q1015.78 1328.35 1015.78 1333.79 Q1015.78 1339.11 1012.63 1342.33 Q1009.48 1345.55 1004.25 1345.55 Q998.258 1345.55 995.086 1340.96 Q991.915 1336.36 991.915 1327.63 Q991.915 1319.43 995.804 1314.57 Q999.693 1309.69 1006.24 1309.69 Q1008 1309.69 1009.79 1310.04 Q1011.59 1310.38 1013.54 1311.08 Z" fill="#000000" fill-rule="nonzero" fill-opacity="1" /><path clip-path="url(#clip340)" d="M1106.5 1342.92 L1128.73 1342.92 L1128.73 1344.91 L1116.18 1377.48 L1111.29 1377.48 L1123.1 1346.85 L1106.5 1346.85 L1106.5 1342.92 Z" fill="#000000" fill-rule="nonzero" fill-opacity="1" /><path clip-path="url(#clip340)" d="M1229.82 1393.67 Q1226.48 1393.67 1224.56 1395.45 Q1222.66 1397.24 1222.66 1400.36 Q1222.66 1403.49 1224.56 1405.27 Q1226.48 1407.05 1229.82 1407.05 Q1233.15 1407.05 1235.07 1405.27 Q1236.99 1403.46 1236.99 1400.36 Q1236.99 1397.24 1235.07 1395.45 Q1233.17 1393.67 1229.82 1393.67 M1225.14 1391.68 Q1222.13 1390.94 1220.44 1388.88 Q1218.78 1386.82 1218.78 1383.86 Q1218.78 1379.71 1221.72 1377.31 Q1224.68 1374.9 1229.82 1374.9 Q1234.98 1374.9 1237.92 1377.31 Q1240.86 1379.71 1240.86 1383.86 Q1240.86 1386.82 1239.17 1388.88 Q1237.5 1390.94 1234.52 1391.68 Q1237.9 1392.47 1239.77 1394.76 Q1241.67 1397.05 1241.67 1400.36 Q1241.67 1405.38 1238.59 1408.07 Q1235.54 1410.75 1229.82 1410.75 Q1224.1 1410.75 1221.02 1408.07 Q1217.97 1405.38 1217.97 1400.36 Q1217.97 1397.05 1219.86 1394.76 Q1221.76 1392.47 1225.14 1391.68 M1223.43 1384.3 Q1223.43 1386.98 1225.1 1388.49 Q1226.79 1389.99 1229.82 1389.99 Q1232.83 1389.99 1234.52 1388.49 Q1236.23 1386.98 1236.23 1384.3 Q1236.23 1381.61 1234.52 1380.11 Q1232.83 1378.6 1229.82 1378.6 Q1226.79 1378.6 1225.1 1380.11 Q1223.43 1381.61 1223.43 1384.3 Z" fill="#000000" fill-rule="nonzero" fill-opacity="1" /><path clip-path="url(#clip340)" d="M1332.99 1441.97 L1332.99 1437.71 Q1334.75 1438.54 1336.56 1438.98 Q1338.36 1439.42 1340.1 1439.42 Q1344.73 1439.42 1347.16 1436.32 Q1349.61 1433.2 1349.96 1426.85 Q1348.62 1428.84 1346.56 1429.91 Q1344.5 1430.97 1342 1430.97 Q1336.81 1430.97 1333.78 1427.85 Q1330.77 1424.7 1330.77 1419.26 Q1330.77 1413.94 1333.92 1410.72 Q1337.07 1407.5 1342.3 1407.5 Q1348.29 1407.5 1351.44 1412.11 Q1354.61 1416.69 1354.61 1425.44 Q1354.61 1433.61 1350.72 1438.5 Q1346.86 1443.36 1340.31 1443.36 Q1338.55 1443.36 1336.74 1443.01 Q1334.94 1442.66 1332.99 1441.97 M1342.3 1427.32 Q1345.45 1427.32 1347.28 1425.16 Q1349.13 1423.01 1349.13 1419.26 Q1349.13 1415.53 1347.28 1413.38 Q1345.45 1411.21 1342.3 1411.21 Q1339.15 1411.21 1337.3 1413.38 Q1335.47 1415.53 1335.47 1419.26 Q1335.47 1423.01 1337.3 1425.16 Q1339.15 1427.32 1342.3 1427.32 Z" fill="#000000" fill-rule="nonzero" fill-opacity="1" /><polyline clip-path="url(#clip340)" style="stroke:#000000; stroke-linecap:round; stroke-linejoin:round; stroke-width:4; stroke-opacity:1; fill:none" points="1406.33,1410.41 1821.79,1050.61 "/>
<polyline clip-path="url(#clip340)" style="stroke:#000000; stroke-linecap:round; stroke-linejoin:round; stroke-width:4; stroke-opacity:1; fill:none" points="1465.59,1359.09 1456.96,1356.6 "/>
<polyline clip-path="url(#clip340)" style="stroke:#000000; stroke-linecap:round; stroke-linejoin:round; stroke-width:4; stroke-opacity:1; fill:none" points="1545.56,1289.84 1536.92,1287.34 "/>
<polyline clip-path="url(#clip340)" style="stroke:#000000; stroke-linecap:round; stroke-linejoin:round; stroke-width:4; stroke-opacity:1; fill:none" points="1625.52,1220.59 1616.89,1218.09 "/>
<polyline clip-path="url(#clip340)" style="stroke:#000000; stroke-linecap:round; stroke-linejoin:round; stroke-width:4; stroke-opacity:1; fill:none" points="1705.49,1151.33 1696.85,1148.84 "/>
<polyline clip-path="url(#clip340)" style="stroke:#000000; stroke-linecap:round; stroke-linejoin:round; stroke-width:4; stroke-opacity:1; fill:none" points="1785.45,1082.08 1776.82,1079.59 "/>
<path clip-path="url(#clip340)" d="M1502.16 1365.63 L1490.36 1384.07 L1502.16 1384.07 L1502.16 1365.63 M1500.94 1361.55 L1506.82 1361.55 L1506.82 1384.07 L1511.75 1384.07 L1511.75 1387.96 L1506.82 1387.96 L1506.82 1396.11 L1502.16 1396.11 L1502.16 1387.96 L1486.56 1387.96 L1486.56 1383.45 L1500.94 1361.55 Z" fill="#000000" fill-rule="nonzero" fill-opacity="1" /><path clip-path="url(#clip340)" d="M1567.99 1292.3 L1586.34 1292.3 L1586.34 1296.24 L1572.27 1296.24 L1572.27 1304.71 Q1573.29 1304.36 1574.3 1304.2 Q1575.32 1304.01 1576.34 1304.01 Q1582.13 1304.01 1585.51 1307.18 Q1588.89 1310.36 1588.89 1315.77 Q1588.89 1321.35 1585.42 1324.45 Q1581.94 1327.53 1575.62 1327.53 Q1573.45 1327.53 1571.18 1327.16 Q1568.93 1326.79 1566.53 1326.05 L1566.53 1321.35 Q1568.61 1322.49 1570.83 1323.04 Q1573.05 1323.6 1575.53 1323.6 Q1579.54 1323.6 1581.87 1321.49 Q1584.21 1319.38 1584.21 1315.77 Q1584.21 1312.16 1581.87 1310.05 Q1579.54 1307.95 1575.53 1307.95 Q1573.66 1307.95 1571.78 1308.37 Q1569.93 1308.78 1567.99 1309.66 L1567.99 1292.3 Z" fill="#000000" fill-rule="nonzero" fill-opacity="1" /><path clip-path="url(#clip340)" d="M1658.83 1238.47 Q1655.68 1238.47 1653.83 1240.62 Q1652 1242.77 1652 1246.52 Q1652 1250.25 1653.83 1252.42 Q1655.68 1254.58 1658.83 1254.58 Q1661.98 1254.58 1663.81 1252.42 Q1665.66 1250.25 1665.66 1246.52 Q1665.66 1242.77 1663.81 1240.62 Q1661.98 1238.47 1658.83 1238.47 M1668.11 1223.81 L1668.11 1228.07 Q1666.35 1227.24 1664.55 1226.8 Q1662.76 1226.36 1661.01 1226.36 Q1656.38 1226.36 1653.92 1229.48 Q1651.49 1232.61 1651.14 1238.93 Q1652.51 1236.91 1654.57 1235.85 Q1656.63 1234.76 1659.11 1234.76 Q1664.32 1234.76 1667.32 1237.93 Q1670.36 1241.08 1670.36 1246.52 Q1670.36 1251.85 1667.21 1255.06 Q1664.06 1258.28 1658.83 1258.28 Q1652.83 1258.28 1649.66 1253.7 Q1646.49 1249.09 1646.49 1240.36 Q1646.49 1232.17 1650.38 1227.31 Q1654.27 1222.42 1660.82 1222.42 Q1662.58 1222.42 1664.36 1222.77 Q1666.17 1223.12 1668.11 1223.81 Z" fill="#000000" fill-rule="nonzero" fill-opacity="1" /><path clip-path="url(#clip340)" d="M1726.46 1153.8 L1748.68 1153.8 L1748.68 1155.79 L1736.13 1188.36 L1731.25 1188.36 L1743.05 1157.73 L1726.46 1157.73 L1726.46 1153.8 Z" fill="#000000" fill-rule="nonzero" fill-opacity="1" /><path clip-path="url(#clip340)" d="M1818.27 1102.69 Q1814.94 1102.69 1813.02 1104.48 Q1811.12 1106.26 1811.12 1109.38 Q1811.12 1112.51 1813.02 1114.29 Q1814.94 1116.07 1818.27 1116.07 Q1821.61 1116.07 1823.53 1114.29 Q1825.45 1112.49 1825.45 1109.38 Q1825.45 1106.26 1823.53 1104.48 Q1821.63 1102.69 1818.27 1102.69 M1813.6 1100.7 Q1810.59 1099.96 1808.9 1097.9 Q1807.23 1095.84 1807.23 1092.88 Q1807.23 1088.74 1810.17 1086.33 Q1813.13 1083.92 1818.27 1083.92 Q1823.43 1083.92 1826.37 1086.33 Q1829.31 1088.74 1829.31 1092.88 Q1829.31 1095.84 1827.62 1097.9 Q1825.96 1099.96 1822.97 1100.7 Q1826.35 1101.49 1828.23 1103.78 Q1830.12 1106.07 1830.12 1109.38 Q1830.12 1114.41 1827.05 1117.09 Q1823.99 1119.78 1818.27 1119.78 Q1812.56 1119.78 1809.48 1117.09 Q1806.42 1114.41 1806.42 1109.38 Q1806.42 1106.07 1808.32 1103.78 Q1810.22 1101.49 1813.6 1100.7 M1811.88 1093.32 Q1811.88 1096 1813.55 1097.51 Q1815.24 1099.01 1818.27 1099.01 Q1821.28 1099.01 1822.97 1097.51 Q1824.68 1096 1824.68 1093.32 Q1824.68 1090.63 1822.97 1089.13 Q1821.28 1087.62 1818.27 1087.62 Q1815.24 1087.62 1813.55 1089.13 Q1811.88 1090.63 1811.88 1093.32 Z" fill="#000000" fill-rule="nonzero" fill-opacity="1" /><polyline clip-path="url(#clip340)" style="stroke:#000000; stroke-linecap:round; stroke-linejoin:round; stroke-width:4; stroke-opacity:1; fill:none" points="686.728,1202.68 686.728,483.08 "/>
<polyline clip-path="url(#clip340)" style="stroke:#000000; stroke-linecap:round; stroke-linejoin:round; stroke-width:4; stroke-opacity:1; fill:none" points="686.728,1163.42 691.714,1159.1 "/>
<polyline clip-path="url(#clip340)" style="stroke:#000000; stroke-linecap:round; stroke-linejoin:round; stroke-width:4; stroke-opacity:1; fill:none" points="686.728,1028.81 691.714,1024.49 "/>
<polyline clip-path="url(#clip340)" style="stroke:#000000; stroke-linecap:round; stroke-linejoin:round; stroke-width:4; stroke-opacity:1; fill:none" points="686.728,894.207 691.714,889.89 "/>
<polyline clip-path="url(#clip340)" style="stroke:#000000; stroke-linecap:round; stroke-linejoin:round; stroke-width:4; stroke-opacity:1; fill:none" points="686.728,759.603 691.714,755.286 "/>
<polyline clip-path="url(#clip340)" style="stroke:#000000; stroke-linecap:round; stroke-linejoin:round; stroke-width:4; stroke-opacity:1; fill:none" points="686.728,624.999 691.714,620.682 "/>
<polyline clip-path="url(#clip340)" style="stroke:#000000; stroke-linecap:round; stroke-linejoin:round; stroke-width:4; stroke-opacity:1; fill:none" points="686.728,490.395 691.714,486.078 "/>
<path clip-path="url(#clip340)" d="M601.748 1149.21 Q598.137 1149.21 596.308 1152.78 Q594.503 1156.32 594.503 1163.45 Q594.503 1170.56 596.308 1174.12 Q598.137 1177.66 601.748 1177.66 Q605.382 1177.66 607.188 1174.12 Q609.017 1170.56 609.017 1163.45 Q609.017 1156.32 607.188 1152.78 Q605.382 1149.21 601.748 1149.21 M601.748 1145.51 Q607.558 1145.51 610.614 1150.12 Q613.692 1154.7 613.692 1163.45 Q613.692 1172.18 610.614 1176.78 Q607.558 1181.37 601.748 1181.37 Q595.938 1181.37 592.859 1176.78 Q589.804 1172.18 589.804 1163.45 Q589.804 1154.7 592.859 1150.12 Q595.938 1145.51 601.748 1145.51 Z" fill="#000000" fill-rule="nonzero" fill-opacity="1" /><path clip-path="url(#clip340)" d="M621.91 1174.82 L626.794 1174.82 L626.794 1180.7 L621.91 1180.7 L621.91 1174.82 Z" fill="#000000" fill-rule="nonzero" fill-opacity="1" /><path clip-path="url(#clip340)" d="M637.026 1146.14 L655.382 1146.14 L655.382 1150.07 L641.308 1150.07 L641.308 1158.54 Q642.327 1158.2 643.345 1158.03 Q644.364 1157.85 645.382 1157.85 Q651.169 1157.85 654.549 1161.02 Q657.928 1164.19 657.928 1169.61 Q657.928 1175.19 654.456 1178.29 Q650.984 1181.37 644.664 1181.37 Q642.489 1181.37 640.22 1181 Q637.975 1180.63 635.567 1179.89 L635.567 1175.19 Q637.651 1176.32 639.873 1176.88 Q642.095 1177.43 644.572 1177.43 Q648.576 1177.43 650.914 1175.32 Q653.252 1173.22 653.252 1169.61 Q653.252 1166 650.914 1163.89 Q648.576 1161.78 644.572 1161.78 Q642.697 1161.78 640.822 1162.2 Q638.97 1162.62 637.026 1163.5 L637.026 1146.14 Z" fill="#000000" fill-rule="nonzero" fill-opacity="1" /><path clip-path="url(#clip340)" d="M591.563 1042.16 L599.202 1042.16 L599.202 1015.79 L590.892 1017.46 L590.892 1013.2 L599.155 1011.53 L603.831 1011.53 L603.831 1042.16 L611.47 1042.16 L611.47 1046.09 L591.563 1046.09 L591.563 1042.16 Z" fill="#000000" fill-rule="nonzero" fill-opacity="1" /><path clip-path="url(#clip340)" d="M620.915 1040.21 L625.799 1040.21 L625.799 1046.09 L620.915 1046.09 L620.915 1040.21 Z" fill="#000000" fill-rule="nonzero" fill-opacity="1" /><path clip-path="url(#clip340)" d="M645.984 1014.61 Q642.373 1014.61 640.544 1018.17 Q638.739 1021.72 638.739 1028.85 Q638.739 1035.95 640.544 1039.52 Q642.373 1043.06 645.984 1043.06 Q649.618 1043.06 651.424 1039.52 Q653.252 1035.95 653.252 1028.85 Q653.252 1021.72 651.424 1018.17 Q649.618 1014.61 645.984 1014.61 M645.984 1010.91 Q651.794 1010.91 654.85 1015.51 Q657.928 1020.1 657.928 1028.85 Q657.928 1037.57 654.85 1042.18 Q651.794 1046.76 645.984 1046.76 Q640.174 1046.76 637.095 1042.18 Q634.04 1037.57 634.04 1028.85 Q634.04 1020.1 637.095 1015.51 Q640.174 1010.91 645.984 1010.91 Z" fill="#000000" fill-rule="nonzero" fill-opacity="1" /><path clip-path="url(#clip340)" d="M592.558 907.552 L600.197 907.552 L600.197 881.186 L591.887 882.853 L591.887 878.594 L600.151 876.927 L604.827 876.927 L604.827 907.552 L612.466 907.552 L612.466 911.487 L592.558 911.487 L592.558 907.552 Z" fill="#000000" fill-rule="nonzero" fill-opacity="1" /><path clip-path="url(#clip340)" d="M621.91 905.608 L626.794 905.608 L626.794 911.487 L621.91 911.487 L621.91 905.608 Z" fill="#000000" fill-rule="nonzero" fill-opacity="1" /><path clip-path="url(#clip340)" d="M637.026 876.927 L655.382 876.927 L655.382 880.862 L641.308 880.862 L641.308 889.335 Q642.327 888.987 643.345 888.825 Q644.364 888.64 645.382 888.64 Q651.169 888.64 654.549 891.811 Q657.928 894.983 657.928 900.399 Q657.928 905.978 654.456 909.08 Q650.984 912.159 644.664 912.159 Q642.489 912.159 640.22 911.788 Q637.975 911.418 635.567 910.677 L635.567 905.978 Q637.651 907.112 639.873 907.668 Q642.095 908.223 644.572 908.223 Q648.576 908.223 650.914 906.117 Q653.252 904.01 653.252 900.399 Q653.252 896.788 650.914 894.682 Q648.576 892.575 644.572 892.575 Q642.697 892.575 640.822 892.992 Q638.97 893.409 637.026 894.288 L637.026 876.927 Z" fill="#000000" fill-rule="nonzero" fill-opacity="1" /><path clip-path="url(#clip340)" d="M594.78 772.948 L611.1 772.948 L611.1 776.883 L589.156 776.883 L589.156 772.948 Q591.818 770.193 596.401 765.564 Q601.007 760.911 602.188 759.569 Q604.433 757.045 605.313 755.309 Q606.216 753.55 606.216 751.86 Q606.216 749.106 604.271 747.369 Q602.35 745.633 599.248 745.633 Q597.049 745.633 594.595 746.397 Q592.165 747.161 589.387 748.712 L589.387 743.99 Q592.211 742.856 594.665 742.277 Q597.118 741.698 599.155 741.698 Q604.526 741.698 607.72 744.383 Q610.915 747.069 610.915 751.559 Q610.915 753.689 610.104 755.61 Q609.317 757.508 607.211 760.101 Q606.632 760.772 603.53 763.99 Q600.429 767.184 594.78 772.948 Z" fill="#000000" fill-rule="nonzero" fill-opacity="1" /><path clip-path="url(#clip340)" d="M620.915 771.004 L625.799 771.004 L625.799 776.883 L620.915 776.883 L620.915 771.004 Z" fill="#000000" fill-rule="nonzero" fill-opacity="1" /><path clip-path="url(#clip340)" d="M645.984 745.402 Q642.373 745.402 640.544 748.967 Q638.739 752.508 638.739 759.638 Q638.739 766.744 640.544 770.309 Q642.373 773.851 645.984 773.851 Q649.618 773.851 651.424 770.309 Q653.252 766.744 653.252 759.638 Q653.252 752.508 651.424 748.967 Q649.618 745.402 645.984 745.402 M645.984 741.698 Q651.794 741.698 654.85 746.305 Q657.928 750.888 657.928 759.638 Q657.928 768.365 654.85 772.971 Q651.794 777.555 645.984 777.555 Q640.174 777.555 637.095 772.971 Q634.04 768.365 634.04 759.638 Q634.04 750.888 637.095 746.305 Q640.174 741.698 645.984 741.698 Z" fill="#000000" fill-rule="nonzero" fill-opacity="1" /><path clip-path="url(#clip340)" d="M595.776 638.344 L612.095 638.344 L612.095 642.279 L590.151 642.279 L590.151 638.344 Q592.813 635.589 597.396 630.96 Q602.003 626.307 603.183 624.964 Q605.429 622.441 606.308 620.705 Q607.211 618.946 607.211 617.256 Q607.211 614.502 605.267 612.765 Q603.345 611.029 600.243 611.029 Q598.044 611.029 595.591 611.793 Q593.16 612.557 590.382 614.108 L590.382 609.386 Q593.206 608.252 595.66 607.673 Q598.114 607.094 600.151 607.094 Q605.521 607.094 608.716 609.779 Q611.91 612.465 611.91 616.955 Q611.91 619.085 611.1 621.006 Q610.313 622.904 608.206 625.497 Q607.628 626.168 604.526 629.386 Q601.424 632.58 595.776 638.344 Z" fill="#000000" fill-rule="nonzero" fill-opacity="1" /><path clip-path="url(#clip340)" d="M621.91 636.4 L626.794 636.4 L626.794 642.279 L621.91 642.279 L621.91 636.4 Z" fill="#000000" fill-rule="nonzero" fill-opacity="1" /><path clip-path="url(#clip340)" d="M637.026 607.719 L655.382 607.719 L655.382 611.654 L641.308 611.654 L641.308 620.127 Q642.327 619.779 643.345 619.617 Q644.364 619.432 645.382 619.432 Q651.169 619.432 654.549 622.603 Q657.928 625.775 657.928 631.191 Q657.928 636.77 654.456 639.872 Q650.984 642.95 644.664 642.95 Q642.489 642.95 640.22 642.58 Q637.975 642.21 635.567 641.469 L635.567 636.77 Q637.651 637.904 639.873 638.46 Q642.095 639.015 644.572 639.015 Q648.576 639.015 650.914 636.909 Q653.252 634.802 653.252 631.191 Q653.252 627.58 650.914 625.474 Q648.576 623.367 644.572 623.367 Q642.697 623.367 640.822 623.784 Q638.97 624.201 637.026 625.08 L637.026 607.719 Z" fill="#000000" fill-rule="nonzero" fill-opacity="1" /><path clip-path="url(#clip340)" d="M604.919 489.041 Q608.276 489.759 610.151 492.027 Q612.049 494.296 612.049 497.629 Q612.049 502.745 608.53 505.546 Q605.012 508.346 598.53 508.346 Q596.355 508.346 594.04 507.907 Q591.748 507.49 589.294 506.633 L589.294 502.12 Q591.239 503.254 593.554 503.833 Q595.868 504.411 598.392 504.411 Q602.79 504.411 605.081 502.675 Q607.396 500.939 607.396 497.629 Q607.396 494.573 605.243 492.86 Q603.114 491.124 599.294 491.124 L595.267 491.124 L595.267 487.282 L599.48 487.282 Q602.929 487.282 604.757 485.916 Q606.586 484.527 606.586 481.935 Q606.586 479.273 604.688 477.86 Q602.813 476.425 599.294 476.425 Q597.373 476.425 595.174 476.842 Q592.975 477.259 590.336 478.138 L590.336 473.972 Q592.998 473.231 595.313 472.861 Q597.651 472.49 599.711 472.49 Q605.035 472.49 608.137 474.921 Q611.239 477.328 611.239 481.448 Q611.239 484.319 609.595 486.31 Q607.952 488.277 604.919 489.041 Z" fill="#000000" fill-rule="nonzero" fill-opacity="1" /><path clip-path="url(#clip340)" d="M620.915 501.796 L625.799 501.796 L625.799 507.675 L620.915 507.675 L620.915 501.796 Z" fill="#000000" fill-rule="nonzero" fill-opacity="1" /><path clip-path="url(#clip340)" d="M645.984 476.194 Q642.373 476.194 640.544 479.759 Q638.739 483.3 638.739 490.43 Q638.739 497.536 640.544 501.101 Q642.373 504.643 645.984 504.643 Q649.618 504.643 651.424 501.101 Q653.252 497.536 653.252 490.43 Q653.252 483.3 651.424 479.759 Q649.618 476.194 645.984 476.194 M645.984 472.49 Q651.794 472.49 654.85 477.097 Q657.928 481.68 657.928 490.43 Q657.928 499.157 654.85 503.763 Q651.794 508.346 645.984 508.346 Q640.174 508.346 637.095 503.763 Q634.04 499.157 634.04 490.43 Q634.04 481.68 637.095 477.097 Q640.174 472.49 645.984 472.49 Z" fill="#000000" fill-rule="nonzero" fill-opacity="1" /><polyline clip-path="url(#clip342)" style="stroke:#009af9; stroke-linecap:round; stroke-linejoin:round; stroke-width:4; stroke-opacity:1; fill:none" points="1051.68,973.395 1064.34,967.613 1060.04,969.693 1067.26,966.389 1059.59,970.059 1063.67,968.235 1050.25,974.667 1037,981.123 1030.72,984.397 1022.38,988.729 1030.92,985.181 1055.06,974.279 1037.45,982.782 1026.78,988.321 1012.23,995.788 1019.23,993.291 1013.84,996.69 1032.85,988.642 1026.96,992.019 1017.82,996.907 1014.64,999.375 1014.07,1000.83 998.123,1009.22 1023.08,998.497 1028.17,996.274 1062.82,979.619 1084.88,966.907 1090.98,960.779 1069.93,968.105 1082.17,961.092 1048.45,977.062 1128.49,937.757 1071.51,961.586 1090.32,951.158 1175.49,904.817 1178.67,893.492 1180.34,891.393 1243.1,849.916 1185.01,877.536 1211.07,859.492 1174.35,878.367 1221.66,857.267 1276.83,810.655 1225.77,837.165 1262.57,814.057 1325.22,772.243 1301.36,791.536 1305.82,786.481 1152.71,879.405 1140.95,904.214 1204.32,875.669 1180.82,892.973 1131.73,919.651 1122.69,929.472 1085.67,955.555 1148.36,925.946 1169.2,902.122 1099.61,933.908 1140.49,915.54 1069.14,956.782 1061.85,959.88 1101.88,938.801 1126.42,915.791 1085.07,951.54 1066.77,964.933 1047.72,988.167 1073.34,968.241 1099.49,946.128 1210,879.629 1195.09,864.889 1174.77,871.047 1281.74,807.179 1281.71,808.388 1106.71,936.714 1234.68,855.279 1304.77,797.773 1311.65,785.302 1360.14,747.309 1345.18,745.562 1249.44,827.59 1127.8,907.134 1120.47,923.098 1118.65,928.391 1147.85,924.775 1165.08,901.302 1211.85,859.813 1235.98,842.44 1255.11,826.9 1209.15,857.702 1234.64,830.739 1130.84,911.736 1012.05,988.942 995.728,1007.08 1007.1,1007.72 1009.61,1007.68 1058.2,979.318 1244.38,863.813 1296.67,810.77 1333.8,773.398 1453.98,693.869 1380.49,720.957 1423.74,696.936 1432.37,675.515 1524.19,609.358 1604.34,524.138 1626.62,498.707 1751,412.727 1628.41,492.652 1608.08,510.301 1607.56,506.586 1588.54,528.257 1508.7,590.537 1480.35,625.715 1422.55,666.773 1359.39,717.583 1363.22,725.636 1359.7,740.637 1218.45,829.145 1183.08,864.001 1199.24,866.842 1190.24,874.2 1207.52,865.871 1144.73,902.36 1139.95,910.569 1174.17,893.451 1231.89,858.861 1208,871.498 1333.53,793.862 1384.47,747.373 1524.3,640.277 1517,619.111 1462.23,652.159 1423.98,684.257 1418.2,685.303 1486.91,630.704 1390.7,697.878 1364.93,734.636 1282.82,792.681 1278.04,798.438 1227.84,829.477 1222.61,840.247 1110.12,920.488 1129.67,917.826 1078.51,950.691 1097.43,947.569 1088.07,951.389 1040.09,988.407 1027.66,992.29 1088.67,958.301 1176.68,897.865 1184.31,883.932 1188.84,875.677 1163.42,893.49 1221.36,857.58 1379.34,743.041 1406.54,711.693 1431.14,692.064 1419.88,686.479 1380.45,726.251 1493.96,642.087 1530.35,617.614 1474.98,642.947 1409.34,693.959 1450.45,653.588 1422.08,678.024 1337.88,742.278 1435.12,694.844 1494.04,640.541 1399.81,694.361 1337.72,742.705 1358.85,739.658 1276.41,795.673 1261,814.135 1316.96,789.315 1321.52,778.085 1422.7,703.23 1380.98,720.131 1366.98,728.566 1370.24,728.83 1370.63,722.567 1329.92,768.939 1364.25,750.826 1419.92,705.818 1378.07,725.052 1525.75,617.38 1518.01,610.464 1486.01,639.546 1568.9,577.024 1493.97,621.666 1370.44,706.163 1317.15,758.401 1282.73,792 1347.8,763.931 1298.02,793.435 1311.72,770.576 1197.93,853.245 1145.18,896.089 1147.45,907.421 1174.26,891.895 1144.72,909.383 1283.8,829.09 1449.7,708.865 1457.61,678.297 1514.39,636.082 1688.73,496.253 1661.37,486.79 1648.76,479.738 1562,547.025 1505.69,591.295 1407.43,667.605 1427.67,670.701 1299.69,765.005 1233.98,814.136 1189.19,857.65 1286.72,813.023 1347.65,775.054 1349.88,760.029 1291.76,789.855 1313.46,781.301 1270.38,808.247 1217.62,846.413 1323.06,791.936 1344.39,772.523 1325.13,778.358 1277.67,811.145 1268.65,821.562 1151.32,897.633 1164.13,897.451 1147.95,910.39 1059.08,967.158 955.887,1038.16 936.238,1052.28 1016.67,1007.65 1062.1,975.498 1121.74,938.426 1153.49,909.89 1152.51,903.598 1157.27,897.478 1200.33,876.265 1210.53,870.438 1080.77,947.404 1122.02,915.151 1163.54,887.088 1056.07,968.547 1023.91,992.281 1026.41,998.088 1004.78,1003.12 990.365,1021.17 1059.42,982.899 1037.84,992.517 1044.31,990.129 1144,924.346 1177.58,897.626 1318.8,796.522 1412.45,716.122 1381.17,721.347 1300.41,801.987 1242.55,829.543 1224.81,840.951 1185.27,883.249 1232.04,851.562 1367.58,762.349 1356.06,763.067 1266.66,814.69 1228.77,855.175 1312.13,799.66 1296.27,795.584 1286.58,803.933 1337.75,756.826 1402.26,714.976 1439.09,687.738 1484.47,651.489 1439.58,669.994 1396.79,701.912 1425.41,684.586 1435.87,683.459 1372.69,724.402 1504.04,639.917 1516.24,619.4 1513.48,613.652 1517.54,602.68 1486.51,619.562 1429.44,669.371 1453.06,656.97 1380.58,713.284 1468.93,667.26 1426.98,694.407 1456.28,674.288 1425.27,684.617 1389.76,722.971 1275.15,792.287 1229.68,838.134 1182.64,874.244 1242.29,837.282 1175.81,886.277 1176.16,886.851 1205.25,869.593 1189.9,875.746 1191.27,876.431 1215.2,861.036 1159.48,893.491 1056.19,959.316 1076.41,956.532 1108.6,938.91 1191.65,890.048 1183.64,884.451 1297.58,813.665 1318.45,784.928 1474.84,669.972 1437.43,676.204 1276.42,792.126 1281.76,793.106 1198.17,855.759 1151.78,890.508 1163.77,897.042 1116.52,931.156 1054.53,966.15 973.02,1018.78 904.742,1062.22 806.808,1118.06 833.899,1113.52 807.199,1128.25 862.42,1104.2 929.087,1071.6 958.016,1048.03 897.461,1079.99 891.769,1083.33 881.732,1090.09 843.034,1106.42 855.581,1099.42 823.926,1115.74 817.21,1126.47 827.832,1118.16 891.913,1087.35 870.469,1088.33 845.442,1105.35 905.687,1076.46 912.499,1068.72 949.116,1046.8 861.957,1094.38 869.644,1089.32 852.178,1106.21 884.975,1091.56 840.761,1114.07 907.214,1082.31 974.601,1038.79 1063.42,984.579 1128.29,936.624 1176.66,899.327 1117.19,929.401 1152.19,908.15 1050.37,976.13 999.801,1008.71 1070.53,977.7 1186.71,896.447 1214.2,861.482 1111.23,922.945 1076.1,951.598 1164.58,903.009 1013.52,990.585 1119.98,934.703 1067.76,961.352 1041.76,982.231 1062.98,973.41 1052.36,990.599 1062.02,978.588 1122.2,934.967 1181.92,901.226 1259.72,848.033 1333.98,775.036 1330.07,763.6 1446.11,696.555 1417.61,702.269 1505.96,614.103 1444.16,658.12 1424.46,669.834 1320.26,735.92 1280.41,781.561 1162.57,868.489 1177.87,870.501 1177.04,881.111 1205.4,869.634 1213.71,866.643 1222.44,856.147 1149.07,898.136 1212.52,876.367 1180.68,876.578 1148.86,902.648 1029.83,976.51 987.008,1008.22 990.901,1018.3 1021.53,1001.11 1052.28,981.07 1062.97,978.778 1109.32,942.2 1049.04,973.647 1060.54,973.609 1081.37,964.114 1091.49,960.949 1116.27,935.674 1179.7,899.87 1133.2,916.699 1182.42,893.135 1226.06,847.402 1102.06,928.638 1160.8,900.58 1176.65,880.726 1231.35,848.602 1160.3,888.151 1143.53,898.097 1101.33,928.575 1105.13,934.284 1062,968.604 1124.59,932.011 1165.43,901.949 1048.33,970.547 1087.89,950.996 1074.98,952.015 1082.76,950.029 1135.9,922.495 1199.12,882.836 1164.67,898.63 1156.47,895.637 1222.44,862.018 1250.52,858.912 1246.17,848.07 1346.03,770.923 1382.48,742.012 1476.92,665.281 1344.95,756.373 1202.41,850.177 1151.97,898.519 1115.88,921.252 1092.93,944.363 1166.99,903.009 1237.05,854.326 1304.17,803.762 1334.62,773.837 1403.69,712.321 1417.05,699.814 1531.97,611.475 1447.63,664.392 1382.42,720.252 1338.76,749.611 1414.65,713.37 1479.58,651.89 1441.8,669.89 1388.24,712.97 1428.01,694.801 1369.59,735.793 1284.54,787.919 1292.25,794.684 1264.48,808.317 1155.4,889.8 1178.13,888.021 1194.37,883.061 1170.84,897.347 1294.25,817.399 1267.96,824.924 1220.83,851.925 1185.96,872.529 1111.82,918.743 1117.03,924.868 1056.18,962.828 1173.93,902.986 1117.59,927.72 1162.33,901.516 1208.64,870.973 1236.24,846.653 1363.12,767.168 1246.69,824.652 1256.59,828.65 1223.34,850.589 1250,823.338 1275.4,807.53 1195.84,862.435 1170.47,886.001 1243.81,838.133 1154.35,893.396 1128.69,913.239 1128.84,906.65 1192.31,869.914 1386.35,727.459 1307.9,768.69 1328.2,764.669 1331.37,759.088 1353.81,733.825 1266.24,806.075 1247.69,828.241 1334.79,775.522 1357.34,750.744 1452.41,691.935 1544.26,600.003 1448.82,651.701 1516.85,615.808 1478.65,639.313 1408.43,681.646 1382.83,706.14 1265.97,793.787 1241.13,822.82 1210.52,855.344 1187.86,872.067 1152.5,898.078 1154.31,904.521 1131.96,917.902 1081.96,952.245 1096.3,949.542 1066.48,963.309 1047.12,980.159 1018.34,988.814 1089.27,956.838 1119.83,933.127 1145.81,913.439 1215.25,857.536 1303.82,794.747 1325.86,763.83 1305.34,771.536 1346.14,737.91 1243.35,821.991 1281.66,801.315 1185.05,865.986 1269,827.447 1373.7,752.558 1323.9,774.013 1467.05,675.33 1463.87,667.79 1397.29,697.309 1397.43,692.825 1400.25,696.291 1433.17,672.545 1565.14,573.503 1446.4,669.817 1379.26,722.681 1492.94,644.896 1603.07,550.66 1575.82,562.057 1568.17,551.63 1539.29,587.04 1466.32,643.284 1427.02,685.925 1498.36,641.482 1471.29,651.793 1388.19,703.864 1363.24,729.048 1348.7,744.887 1416.69,706.343 1471.82,665.212 1370.62,720.811 1419.08,701.392 1415.68,697.531 1352.34,735.071 1261,803.374 1241.27,824.76 1271.44,809.67 1164.15,884.694 1113.08,920.729 1074.46,955.614 1181.64,901.582 1141.69,915.052 1184.4,896.622 1178.92,889.728 1233.66,861.254 1255.44,834.605 1244.56,837.191 1259.52,823.488 1247.89,824.398 1242.1,830.172 1298.24,803.068 1324.59,785.834 1270.02,811.167 1388.23,731.098 1468.57,669.387 1364.69,727.464 1225.33,833.197 1343.5,768.073 1274.16,801.028 1311.94,774.773 1207.22,839.525 1197.86,856.305 1245.84,831.791 1231.31,842.462 1277.62,815.176 1391.44,727.297 1396.84,720.289 1377.32,722.963 1389.2,717.512 1419.23,694.775 1361.25,739.667 1334.59,753.139 1272.05,796.262 1225.87,831.841 1147.75,885.534 1137.87,904.749 1220.35,859.152 1154.04,896.014 1117.79,929.468 1139.49,923.382 1223.72,870.113 1255.71,843.216 1295.09,805.322 1309.88,784.394 1322.95,771.144 1285.14,803.237 1226.91,846.546 1266.66,823.055 1325.55,782.641 1191.91,861.789 1174.72,881.958 1179.18,881.593 1282.47,817.597 1350.7,782.008 1364.1,744.038 1328.92,761.994 1297.51,779.687 1237.9,817.705 1240.01,824.686 1230.08,835.273 1275.25,807.543 1301.89,793.545 1179.01,877.57 1151.24,896.805 1103.39,933.338 1122.12,926.959 1015.49,988.052 986.184,1007.52 1021.99,997.723 1061.93,979.076 991.858,1011.92 1048.92,982.598 1057.39,976.712 1065.65,969.983 1141.92,924.606 1166.54,901.906 1162.49,897.632 1215.66,855.076 1404.53,723.574 1451.42,672.707 1547.01,606.944 1469.08,652.027 1526.02,594.834 1531.8,585.403 1341.4,722.778 1292.71,772.897 1330.73,762.204 1255.31,812.484 1276.87,806.259 1146.07,886.48 1094.77,929.574 1159.75,905.498 1184.55,884.9 1193.77,876.537 1237.94,848.153 1187.95,880.94 1336.27,783.372 1278.9,809.662 1311.07,787.891 1277.99,803.663 1194.08,873.173 1218,857.322 1129.58,912.45 1128.26,918.608 1190.7,885.368 1213.57,869.564 1235.73,852.031 1330.75,792.651 1295.29,796.622 1339.09,763.259 1339.76,763.617 1282.84,800.588 1270.82,800.152 1166.57,886.165 1145.07,900.972 1147.38,909.759 1123.11,923.17 1084.26,948.762 1069.82,956.706 1132.63,926.312 1166.56,909.412 1142.8,921.116 1130.52,922.289 1239.7,863.449 1196.7,878.088 1133.36,909.614 1121.57,922.565 1162.46,908.67 1231.94,861.844 1277.45,827.048 1314.98,795.7 1227.6,851.028 1251.25,842.043 1352.46,757.803 1356.75,746.4 1320.74,771.753 1235.57,824.915 1209.5,860.398 1224.63,858.819 1120.22,919.209 1094.47,939.55 1005.42,992.337 984.944,1015.31 953.383,1038.1 962.358,1034.26 1011.16,1003.37 1078.52,967.822 1118.67,934.146 1095.9,937.92 1033.22,976.373 979.305,1010.35 1026.16,990.538 1061.35,971.053 942.619,1038.99 1080.9,965.794 1023,1000.99 1107.96,951.963 1055.5,982.724 1049.39,974.946 973.15,1029.49 997.781,1011.02 1007.11,1001.43 1040.24,984.662 1041.26,992.103 1081.09,958.335 1134.27,923.604 1141.1,923.463 997.041,1013.53 930.021,1053.86 1065.98,964.711 1040.03,979.282 1164.74,906 1244.3,839.938 1238.82,847.496 1266.27,820.988 1372.5,753.958 1350.75,756.921 1341.04,747.989 1366.59,735.226 1311.57,773.742 1253.38,811.653 1299.87,792.286 1413.81,712.126 1499.25,620.907 1407.37,672.055 1329.77,744.198 1265.71,796.33 1239.3,821.661 1200.9,858.617 1228.3,844.849 1178.59,874.263 1181.73,874.575 1223.92,853.777 1301.57,798.615 1215.88,851.682 1210.22,847.131 1279.63,796.18 1338.96,760.504 1298.59,797.949 1222.38,845.819 1268.39,826.027 1189.16,879.426 1254.71,847.509 1356.72,778.688 1273.79,813.988 1252.49,829.744 1221.83,848.497 1072.62,959.469 1019.72,991.596 1011.16,999.647 992.008,1013.29 965.86,1033.08 1027.34,997.736 1077.1,964.511 1069.66,965.818 1046.51,976.661 1107.37,940.196 1063.46,968.531 1204.08,869.992 1305.93,804.219 1390.08,737.14 1418.37,708.362 1480.66,648.614 1587.81,567.667 1496.12,627.752 1599.16,555.802 1360.26,728.103 1411.8,702.497 1412.29,708.458 1436.2,691.916 1301.09,793.608 1309.58,782.906 1235.02,835.018 1191.2,861.277 1088.85,930.949 1097.84,932.834 1135.72,922.267 1160.93,909.512 1232.91,861.704 1248.94,844.344 1120.02,909.939 1203.63,868.295 1280.17,819.669 1367.75,761.88 1392.95,732.966 1368.89,737.947 1353.72,742.013 1388.06,716.465 1376.45,727.275 1426.95,675.148 1430.29,671.257 1435.45,658.767 1428.28,682.88 1371.94,716.845 1490.58,638.464 1309.18,770.569 1355.75,752.514 1252.2,822.562 1228.85,843.31 1252.04,837.26 1215.51,865.093 1333.3,794.644 1204.22,863.637 1268.42,818.467 1147.03,908.771 1222.03,869.347 1257.11,842.409 1227.33,844.578 1300.82,801.311 1277.15,803.589 1273.18,800.27 1187.97,858.959 1166.2,880.065 1152.53,893.9 1209,859.48 1321.08,775.193 1274.57,804.083 1245.35,825.361 1279.61,808.878 1240.95,831.19 1277.23,815.432 1237.15,845.073 1240.68,833.809 1058.34,960.723 1030.75,983.254 981.359,1017.62 1045.05,986.904 1073.2,970.103 1101.08,950.715 1162.78,901.221 1156.03,906.972 1112.95,930.546 1250.61,852.816 1138.77,910.001 1120.34,927.534 1236.31,845.28 1275.53,818.324 1257.84,816.007 1421.49,700.071 1399.62,709.443 1388.7,717.186 1359.74,731.581 1279.07,798.101 1355.8,752.04 1322.84,779.51 1321.72,777.494 1255.71,821.432 1170.24,874.745 1142.05,902.171 1123.84,916.295 1101.8,932.016 1239.86,848.895 1174.05,878.814 1234.86,837.829 1336.37,780.13 1348.21,775.064 1163.66,910.242 1244.97,831.523 1206.98,856.239 1141.96,909.337 1096.57,939.585 1174.33,904.105 1232.6,860.548 1336.19,786.598 1403.55,729.241 1497.28,656.959 1404.99,698.504 1578.33,586.899 1584.89,559.812 1524.7,593.693 1592.96,543.934 1469.96,630.99 1458.67,653.901 1551.27,591.383 1456.82,650.206 1373.51,706.406 1338.63,745.641 1432.44,691.568 1366.15,731.89 1318.52,765.66 1305.64,776.192 1268.17,808.72 1220.3,840.153 1218.66,849.173 1234.05,845.772 1209.37,858.302 1210.37,854.797 1336.07,767.052 1331.75,765.628 1240.41,827.278 1285.7,806.39 1308.99,788.77 1346.63,753.953 1384.25,727.153 1348.25,747.54 1389.87,723.226 1382.49,733.995 1306.5,770.281 1351.5,753.009 1414.42,718.861 1399.49,708.258 1420.08,686.847 1265.56,799.917 1274.85,808.655 1354.25,760.968 1324.81,779.002 1297.77,790.847 1304.12,785.684 1306.08,784.563 1342.09,761.836 1265.65,813.544 1405.43,713.866 1348.65,765.15 1312.32,779.112 1301.87,782.525 1353.67,741.606 1441.09,701.342 1294.87,826.828 1267.79,851.641 1247.01,846.742 1279.06,820.394 1267.55,811.713 1323.15,771.649 1259.1,831.692 1245.67,840.289 1287.41,787.282 1229.61,832.274 1180.49,872.426 1209.58,862.896 1175.03,885.615 1206.3,869.302 1269.05,833.304 1336.36,764.282 1357.94,739.432 1319.91,764.417 1223.18,835.981 1224.78,843.116 1302.86,802.833 1253.36,819.425 1287.2,806.03 1259.83,829.975 1365.22,753.347 1298.3,791.96 1263.12,813.679 1277.93,812.312 1229.42,844.349 1140.64,910.983 1133.44,914.493 1213.28,868.621 1292.42,811.029 1335.93,782.024 1337.29,765.859 1333.83,764.013 1322.16,773.251 1445.21,672.499 1302.74,770.228 1197.4,855.607 1131.16,903.997 1096.18,937.071 1060.47,961.05 1094.46,947.662 1126.51,935.158 1090.49,946.37 1153.89,914.741 1173.92,898.745 1118.99,925.647 1138.07,907.893 1169.64,896.864 1232.64,855.993 1242.22,835.885 1213.26,858.211 1306.53,802.879 1280.95,782.976 1287.15,789.915 1339.79,765.888 1335.68,768.811 1254.69,826.478 1374.92,737.65 1344.37,758.892 1325.7,789.618 1340.06,762.095 1236.22,833.518 1172.27,872.643 1308.3,790.113 1297.21,793.218 1287.37,805.325 1332.7,760.499 1231.88,850.937 1235.68,847.247 1170.21,899.944 1244.44,844.572 1239.98,844.549 1317.48,779.528 1342.59,754.818 1326.09,762.72 1219.83,824.027 1134.22,893.061 1117.64,916.625 1069.39,950.782 1047.7,970.506 1024.21,984.94 1013.75,997.218 958.232,1031.83 985.459,1023.6 907.85,1069.41 933.645,1057.14 1115.56,951.754 1105.18,945.969 1128.4,927.406 1216.34,865.696 1141.65,909.233 1062.17,956.887 1048.05,977.592 1029.01,993.111 1035.95,983.176 968.252,1027.92 959.84,1034.57 1163.73,915.469 1196.93,882.145 1133.38,914.473 1105.7,934.101 1060.67,960.689 1036.95,983.065 1034.75,989.026 1034.53,988.654 1059.36,970.908 1023.93,987.357 1000.96,1003.53 1037.5,991.227 1123.68,924.755 1164.16,903.619 1199.49,871.701 1107.27,932.865 1044.95,966.431 1086.43,955.403 1058.11,975.084 1035.24,994.209 1106.34,939.978 1138.11,921.357 1140.85,916.115 1164.07,903.056 1138.49,918.996 1137.3,921.462 1231.51,847.883 1244.28,833.788 1290.49,811.011 1229.8,841.19 1177.98,883.304 1026.3,981.439 989.184,1003.54 1090.57,955.412 1091.13,948.351 1125.98,924.158 1154.76,893.876 1121.95,917.318 1126.62,919.305 1175.26,880.498 1241.06,846.037 1233.14,836.164 1272.02,812.105 1340.03,773.639 1386.31,725.807 1397.88,709.387 1291.43,793.394 1312.4,780.198 1255.84,811.645 1276.48,813.897 1258.74,829.585 1269.25,820.218 1270.36,817.17 1284.45,817.296 1372.66,744.043 1291.72,789.278 1252.45,818.587 1329.95,784.197 1332.12,775.797 1335.22,780.202 1348.07,781.013 1482.49,665.668 1496.99,633.949 1462.45,658.388 1342.06,738.137 1281.46,790.882 1199.12,848.945 1182.73,866.906 1169.91,882.986 1179.81,884.509 1145.66,901.841 1116.47,916.13 1075.5,941.238 1133.25,918.464 1110.27,925.39 1100.4,941.222 1086.26,960.278 1015.48,1000.77 962.363,1039.38 904.275,1077.76 866.326,1094.73 868.019,1094.33 916.745,1065.19 891.385,1074.76 881.905,1086.24 868.747,1096.6 827.127,1122.59 840.871,1110.57 823.879,1123.26 865.415,1104.86 917.334,1074.08 904.871,1078 909.483,1077.52 896.775,1082.11 919.394,1064.06 936.864,1054.04 896.696,1074.91 897.799,1078.04 1049.21,994.196 1098.4,958.623 1027.65,994.477 1012.65,1003.81 1054.25,986.986 1230.33,882.093 1268.53,839.068 1223.28,851.847 1187.76,882.57 1125.46,917.319 1074.3,947.325 1040.59,974.831 975.138,1013.88 991.105,1013.37 961.68,1036.91 960.427,1036.61 964.298,1031.49 994.535,1015.66 1136.35,937.927 1034.92,999.857 1018.66,1005.79 933.759,1054.24 938.342,1053.5 966.507,1039.96 1089.75,958.519 1134.76,920.559 1139.79,912.725 1109.31,922.912 1059.12,956.802 1104.99,929.026 1222.55,852.787 1203.97,861.952 1200.55,875.22 1202,852.865 1265.42,823.873 1376.03,733.369 1502.09,649.78 1479.48,640.079 1512.93,617.781 1494.39,614.827 1580.07,560.291 1559.37,551.853 1579.11,548.906 1438.04,654.487 1510.59,620.391 1427.78,667.58 1380.03,704.786 1365.49,723.246 1359.79,733.158 1293.8,787.234 1298.38,787.537 1262.59,813.878 1282.45,800.634 1283.23,801.402 1254.31,825.515 1253.93,829.774 1248.66,833.712 1422.35,697.347 1462.35,671.751 1444.1,668.455 1410.9,692.299 1477,643.744 1521.97,608.571 1503.52,619.811 1509.09,621.21 1435.41,667.588 1367.53,717.412 1429.73,687.876 1370.03,723.498 1305.13,773.492 1299.84,783.522 1325,781.203 1374.48,729.44 1427.11,696.147 1364.86,741.141 1359.28,744.185 1361.65,750.5 1314.98,774.914 1352.72,756.44 1270.14,803.893 1356.21,755.008 1393,720.881 1284.2,804.181 1301.4,785.811 1170.87,875.558 1106.54,916.253 1117.72,917.593 1180.84,887.516 1155.53,902.878 1213.27,871.878 1117.02,931.294 1096.07,931.704 1013.59,984.428 1035.25,974.143 1088.31,955.626 1164.55,896.259 1110.85,930.533 1089.44,943.974 1316.09,800.068 1370.13,745.16 1404.73,722.906 1349.34,743.438 1225.6,848.083 1273.73,824.397 1304.21,799.727 1331.05,765.37 1296.93,788.609 1244.15,820.218 1194.34,860.932 1165.4,885.766 1190.22,874.064 1053.6,961.992 1029.33,979.934 1066.43,967.529 1085.34,954.905 1132.13,927.825 1208.04,870.435 1204.6,868.039 1110.68,928.034 1082.09,945.874 1043.73,970.895 1083.47,954.826 1097.61,950.255 1105.13,939.168 972.695,1028.82 1106.84,958.145 1092.01,955.149 1104.39,945.903 1127.92,923.448 1181.97,887.714 1187.7,886.495 1164.86,893.176 1130.57,912.702 1123.36,907.852 1078.72,945.47 1051.2,971.632 1006.01,1006.23 1113.78,936.529 1179.23,889.969 1177.56,899.035 1204.82,878.704 1318.6,806.111 1252.87,842.234 1246.13,845.142 1251.85,825.194 1240.37,833.72 1304.73,782.894 1338.37,752.447 1341.67,753.31 1341.63,766.51 1426.9,700.95 1405.25,711.2 1435.27,704.303 1400.08,711.439 1329.61,768.503 1457.92,679.654 1329.59,773.585 1464.58,674.354 1538.79,607.283 1298.49,784.945 1410.19,723.206 1439.01,685.154 1370.85,733.201 1422.18,696.065 1382.19,717.611 1384.52,723.955 1427.99,688.559 1388.86,700.477 1375.53,728.768 1383.81,726.756 1390.36,728.438 1279.05,801.151 1236.7,820.558 1329.68,767.23 1358.17,742.078 1259.46,828.885 1271.78,820.671 1302.36,793.72 1201.38,863.895 1252.34,827.536 1125.92,912.717 1109.83,931.024 1134.06,925.253 1176.86,895.164 1289.37,817.163 1237.23,841.142 1333.49,767.782 1260.79,813.651 1201.57,854.984 1167.79,882.376 1218.31,859.078 1103.62,931.145 1007.89,988.074 961.909,1019.65 944.266,1040.03 945.157,1042.13 953.503,1046.84 970.995,1039.94 948.935,1050.87 976.938,1034.93 941.401,1048.58 887.017,1075.01 831.49,1106.88 909.093,1076.71 970.747,1034.69 889.922,1079.15 899.783,1082.09 927.462,1062.74 945.823,1054.25 918.438,1067.57 919.287,1069.59 946.189,1053.29 957.819,1043.49 893.131,1083.91 967.116,1042.78 1051.23,981.778 1102.67,952.895 1176.98,899.43 1131.78,918.688 1126.18,920.224 1267.62,836.478 1358.45,761.748 1315.91,779.078 1305.65,781.321 1395.6,730.308 1387.12,722.489 1292.26,784.607 1339.72,767.408 1370.23,732.282 1427.24,702.374 1499.41,623.998 1484.31,628.058 1393.46,699.099 1310.29,764.689 1258.51,813.637 1191.85,861.042 1112.9,913.88 1053.8,965.088 1005.76,996.391 1021.66,996.232 1022.78,999.227 956.675,1033.04 1069.88,971.303 1050.5,982.111 993.043,1023.48 967.124,1036.84 1019.15,1010.57 1018.88,1011.8 1087.49,970.553 1005.62,1003.28 1117.44,936.598 1245.62,860.647 1232.37,851.252 1314.46,788.289 1277.42,797.881 1163.5,886.064 1247.9,844.698 1325.15,796.166 1437.34,721.872 1314.66,779.428 1284.5,798.614 1291.94,795.477 1448.09,687.744 1406.11,704.666 1356.2,735.9 1356.07,739.726 1410.99,711.981 1345.06,754.094 1453.61,690.753 1425.39,704.658 1312.6,775.019 1258.83,806.501 1162.35,878.935 1149.14,899.446 1129.4,920.56 1109.71,937.384 1097.66,946.719 1095.84,963.157 1006.59,1006.95 934.453,1053.1 1001.66,1013.13 1036.18,989.047 961.079,1033.67 958.408,1039.02 1064.7,972.671 1091.41,942.13 1018.83,983.183 1005.45,996.269 969.679,1022.52 999.541,1010.84 1124.07,938.403 1073.53,962.45 1158.85,908.622 1099.2,938.404 1166.87,886.806 1234.87,850.483 1226.23,834.891 1300.6,799.721 1190.3,874.404 1093.77,931.249 1187.12,881.448 1013.39,1006.28 1001.68,1011.13 1019.23,1002.97 1047.21,979.665 1033.93,978.892 1094.49,952.155 1249.47,856.047 1279.43,806.006 1366.35,756.329 1380.5,740.066 1263.45,803.093 1206.29,847.18 1221.35,841.856 1151.07,890.22 1150.36,895.158 1187.47,873.514 1275.18,822.76 1225.62,848.201 1240.77,843.316 1268.52,826.203 1293.43,806.413 1284.98,809.331 1172.47,897.082 1124.34,927.984 1036.15,977.687 993.194,1006.65 1049.9,975.473 1001.31,1009.79 1057.45,972.648 1169.3,906.762 1082.12,953.901 1087.47,956.954 997.808,1024.71 859.281,1101.18 831.977,1114.75 944.039,1050.64 963.319,1039.84 939.055,1057.12 890.088,1077.39 966.988,1038.04 954.211,1045 937.909,1046.69 1021.89,997.933 1140.88,922.693 1091.58,943.141 1061.9,965.662 1039.86,978.568 1162.13,893.647 1133.37,911.835 1118.98,922.8 1097.9,938.153 1125,919.764 1050.43,957.016 1163.21,891.772 1199.36,885.758 1319.83,800.203 1323.56,783.465 1324.57,777.99 1274.59,808.511 1360.09,759.022 1427.98,682.371 1476.19,652.679 1533.97,600.055 1520.34,604.441 1441.45,651.943 1553.59,586.766 1435,672.394 1416.67,691.391 1403.83,701.567 1382.53,715.333 1511.91,629.289 1498.04,623.152 1280.93,772.549 1308.01,774.411 1358.92,747.638 1398.17,724.605 1258.1,812.819 1300.64,794.742 1323.23,776.804 1228.52,839.21 1219.28,853.316 1369.38,754.749 1418.32,700.794 1394.09,724.17 1340.35,757.43 1528.07,620.915 1507.55,618.649 1431.54,672.377 1348.28,722.218 1229.11,810.375 1292.83,790.44 1175.62,865.203 1088.22,928.387 1075.34,945.442 1152.52,906.677 1201.43,874.481 1184.21,875.778 1120.87,916.791 1093.93,937.308 1221.54,856.81 1056.94,966.972 1030.32,991.275 1012.01,1001.29 1123.53,930.163 1125.94,926.998 1211.59,860.13 1233.52,843.527 1243.39,833.014 1180.81,873.905 1189.65,874.108 1196.13,847.628 1184.87,874.785 1168.26,889.816 1197.98,861.482 1210.5,860.301 1233.13,848.692 1154.93,915.125 1241.72,855.384 1308.34,807.375 1379.68,743.159 1192.16,854.887 1192.87,862.715 1187.73,878.824 1070.14,952.357 1107.68,939.412 1042.73,975.484 962.347,1025.22 946.914,1030.11 953.978,1039.79 1033.05,996.445 1093.06,960.416 1083.79,959.991 1156.46,910.542 1015.82,990.591 926.203,1051.4 927.99,1054.32 909.136,1065.77 914.728,1066.8 888.135,1082.01 859.907,1100.24 822.701,1117.62 872.252,1097.21 940.427,1057.16 983.974,1035.02 968.391,1036.42 943.167,1048.19 1004.04,1016.96 967.843,1039.78 996.914,1018.06 1021.23,997.712 1019.32,1000.86 1051.69,972.866 1071.98,961.491 986.447,1013.13 1040.73,991.992 1061.89,967.57 1143.3,926.41 1158.45,917.46 1066.98,956.07 1095.08,947.337 1063.73,964.108 1006.24,996.247 965.364,1029.67 1016.48,999.253 922.225,1060.04 878.11,1094.08 903.479,1078.49 938.523,1057.54 931.161,1059.55 885.471,1088.27 1026.11,1011.73 1068.82,975.456 1079.72,965.568 1042.9,980.816 1083.88,949.016 1171.48,903.442 1303.17,810.262 1432.05,710.789 1505.62,640.134 1509,617.154 1336.78,734.401 1396.49,707.564 1333.09,746.927 1256.22,810.857 1282.23,801.092 1208.81,844.413 1280.78,808.787 1256.71,820.47 1158.04,895.16 1156.36,901.13 1029.43,979.864 1064.05,965.374 1048.89,970.331 1109.38,941.299 1003.34,1004.52 1040.03,991.825 934.105,1051.47 1063.69,974.848 1088.79,951.271 1200.91,887.339 1129.98,931.205 1164.11,899.469 1133.63,927.909 1101.68,948.325 948.533,1032.37 974.573,1005.78 1053.02,977.206 968.794,1036.63 1031.68,999.18 949.985,1050.75 1090.05,965.698 1148.24,925.945 1206.72,880.157 1317.13,791.624 1427.19,709.487 1344,762.981 1365.14,722.082 1279.33,796.516 1157.78,882.466 1141.5,892.711 1149.66,899.496 1159.53,900.035 1103.39,931.221 1028.16,979.032 1095.21,946.96 1011.6,992.416 1047.75,967.417 1144.34,913.665 1101.59,947.915 1223.96,861.884 1147,901.018 1189.8,877.644 1151.96,908.804 1122.06,934.043 1038.66,994.537 1071.61,973.541 1022.64,1002.82 897.795,1076.18 899.226,1074.84 958.82,1044.96 933.377,1064.01 895.745,1086.28 794.402,1142.05 798.741,1139.33 832.146,1119.16 893.464,1082.43 870.293,1095.08 933.314,1059.67 944.543,1048.67 1028.81,1005.62 1076.49,967.82 1093.05,945.824 1156.57,903.919 1082.61,949.781 1147.5,912.505 1038.34,976.475 1032.87,972.909 1107.65,933.29 1189.21,871.457 1157.78,903.336 1139.28,914.544 1190.51,861.182 1263.84,806.693 1228.52,843.933 1240.09,837.637 1200.62,868.888 1182.95,869.589 1164.15,891.177 1318.33,795.668 1259.35,823.747 1195.13,876.266 1184.91,886.253 1084.13,949.463 1075.26,953.828 1179.6,895.292 1148.19,921.526 1019.12,1003.11 1095.9,944.093 1088.16,944.523 1028.74,974.665 1129.82,927.461 1063.55,959.534 1061.55,959.228 1000.86,1008.26 954.051,1034.92 1008.72,1007.1 968.997,1030.5 1059.15,983.102 1160.93,913.972 1102.64,947.405 1098.45,943.724 1172.81,895.188 1064.14,969.021 1091.35,940.486 1057.49,968.148 1014.62,1004.02 1001.09,1013.17 1034.15,991.518 1123.27,931.515 1244.33,861.136 1291.92,813.087 1280.53,809.342 1224.72,850.53 1267.32,810.35 1259.26,820.078 1178.72,881.272 1176.12,884.929 1125.77,918.755 1087.18,942.909 1049.55,966.907 1049.49,972.373 1046.16,972.381 1149.68,914.966 1161.44,900.982 1179.47,883.057 1212.59,860.588 1275.34,806.848 1280.28,797.503 1385,722.322 1315.17,785.457 1319.26,784.77 1233.29,863.617 1171.19,891.684 1112.25,931.024 1120.69,930.411 1021.39,989.272 995.865,1016.65 988.88,1017.58 971.145,1027.85 1035.68,990.073 970.337,1024.38 995.883,1017.05 1120.61,941.566 1161.04,905.589 1145.94,913.748 1119.36,915.369 1140.02,907.906 1160.46,891.054 1184.46,870.313 1166.48,884.202 1140.96,916.567 1086.06,950.169 1105.82,942.444 1096.8,952.988 974.598,1030.47 1090.74,957.914 1181.08,899.943 1029.82,987.032 973.304,1017.64 961.913,1031.07 896.72,1072.33 949.818,1047.71 1056.36,985.664 1059.64,971.48 1110.22,935.493 1090.54,952.905 1227.49,854.245 1197.01,870.383 1095.79,931.577 1186.25,877.206 1201.68,874.071 1243.19,844.735 1235.52,845.706 1300.83,785.164 1312.19,782.938 1381.47,735.939 1437,686.84 1422.79,689.232 1329.66,752.362 1206.9,842.444 1260.09,820.076 1220.43,847.205 1057.81,951.334 1047.64,967.792 1067.06,962.946 1146.48,920.921 1118.14,934.956 1097.55,942.601 1157.83,897.331 1114.73,929.483 1074.43,956.497 1097.2,950.487 952.467,1040.44 940.599,1051.23 952.317,1049.16 951.585,1050.92 930.997,1060.34 886.49,1087.66 884.236,1084.99 904.966,1076.22 868.939,1097.71 879.032,1095.88 934.301,1064.01 922.766,1062.49 845.773,1105.48 847.315,1102.59 855.627,1100.3 836.765,1114.15 918.685,1072.04 954.872,1048.13 1015.93,1009.77 968.924,1028.84 997.695,1018.3 1066.46,975.519 1043.23,982.062 1070.82,965.084 1068.24,966.03 1213.37,868.88 1383.55,752.494 1318.36,784.914 1348.5,749.578 1234.24,832.212 1296.92,787.407 1271.07,820.552 1254.4,827.509 1271.74,812.645 1199.74,868.734 1253.21,828.683 1204.37,858.1 1198.86,865.724 1166.27,883.391 1110.52,932.971 1102.03,940.931 1027.31,988.519 1046.71,980.173 1054.08,979.179 990.75,1012.05 1085.82,963.166 1169.56,897.224 1288.12,833.689 1357.76,771.482 1312.03,786.972 1358.06,753.682 1250.83,817.516 1248.85,819.426 1223.33,833.926 1332.25,773.292 1390.29,732.241 1373.8,732.275 1347.63,747.397 1338.52,760.9 1403.93,709.253 1455.4,647.393 1420.81,684.266 1485.06,642.356 1351.49,738.126 1236.89,817.778 1186.92,867.44 1182.82,879.486 1172.37,888.012 1246.72,841.577 1248.73,838.98 1281.44,806.192 1382.13,750.103 1366.16,742.39 1447.66,691.119 1491.2,653.63 1503.3,632.605 1406.46,682.16 1446.82,660.109 1388.42,702.359 1440.14,669.752 1436.24,677.003 1367.83,724.474 1374.27,726.932 1286.46,786.464 1242.51,818.521 1212.16,847.559 1327.04,781.175 1204.68,852.69 1143.28,903.648 1134.81,912.256 1130.07,921.715 1110.25,933.976 1089.79,948.849 1134.74,922.31 1132.62,927.945 1165.18,900.095 1171.23,887.597 1115.55,919.451 1022.55,986.46 1036.57,984.154 1036.5,982.48 1110.74,943.829 1195.63,879.084 1129.11,912.553 1161.38,893.853 1087.34,941.806 1114.97,928.889 1098.93,944.45 1052.26,967.636 976.493,1013.25 1009.19,1004.2 961.776,1032.59 954.897,1039.88 1021.27,1003.82 1061.19,967.939 1073.09,961.473 978.716,1016.03 1019.49,1003.24 1156.59,918.396 1142.36,908.546 1220.68,867.195 1138.83,907.808 1119.1,927.183 1111.5,930.193 1099.59,946.187 1166.38,902.789 1138.25,917.529 1234.53,840.016 1198.65,857.288 1344.1,767.206 1306.68,781.381 1307.47,787.249 1227.11,843.564 1246.42,835.744 1137.04,916.818 1098.98,935.532 1110.17,938.38 1148.72,912.691 1126.14,927.162 1119.12,922.357 1141.99,911.942 1303.47,799.979 1302.55,789.177 1296.1,790.482 1324.36,771.75 1443.7,696.853 1502.33,639.14 1447.02,661.379 1489.24,640.388 1496.81,615.577 1376.02,698.899 1377.4,709.544 1301.01,770.376 1365.5,737.591 1317.79,772.403 1339.1,764.221 1306.43,782.767 1403.2,727.988 1325.63,777.182 1371.88,751.874 1490.91,660.409 1415.8,696.658 1327.22,771.604 1366.17,749.427 1318.16,777.421 1151.34,892.068 1150.26,900.115 1159.26,899.301 1184.09,884.832 1196.89,875.837 1210.19,871.012 1182.64,884.871 1214.66,858.772 1200.85,867.569 1149.75,903.479 1242.29,844.879 1249.85,826.116 1181.91,867.958 1194.88,874.273 1121.43,924.551 1072.3,959.435 1009.63,1001.72 1000.6,1003.13 1047.13,983.099 1042.11,980.854 1005.16,1010.7 1055.26,983.35 1098.48,950.926 1065.52,972.414 1081.98,965.501 1049.69,979.378 1079.58,961.458 1023.37,1003.9 954.041,1042.66 892.668,1077.71 887.314,1068.25 960.106,1028.01 1095.75,949.308 1136.17,921.067 1233.79,849.561 1272.35,817.315 1268.66,813.926 1144.43,892.906 1178.73,892.875 1266.37,839.087 1209.95,844.946 1197.06,858.117 1045.91,958.571 995.342,999.296 1098.8,942.32 1165.32,906.979 1138.28,912.684 1212.84,858.57 1264.94,829.764 1237.99,838.168 1245.41,844.145 1244.12,832.548 1124.36,905.945 1126.03,918.487 1139.75,913.551 1161.47,892.738 1225.45,848.256 1231.74,844.787 1236.86,842.025 1229.82,846.226 1233.62,832.362 1256.5,823.044 1242.23,836.249 1303.26,792.239 1340.97,758.401 1266.49,826.457 1394.41,729.973 1376.36,739.429 1340.45,752.88 1154.76,883.192 1074.39,943.85 1096.03,941.043 1113.52,932.962 1133.64,924.46 1151.47,907.807 1213.73,870.736 1344.97,767.367 1311.77,790.745 1217.83,851.201 1187.91,876.572 1116.37,914.532 1066.54,955.844 1058.69,966.67 1100.21,947.933 992.475,1009.02 945.6,1038.14 979.455,1023.43 910.069,1060.16 902.763,1068.73 919.819,1063.56 813.522,1120.86 771.487,1147.15 875.872,1097.64 868.201,1099.76 820.877,1122.1 818.092,1125.55 828.107,1124.93 829.986,1125.64 786.771,1144.34 745.301,1162.65 718.853,1176.34 732.648,1174.71 808.347,1139.38 812.222,1132.78 816.384,1127.17 940.341,1064.95 1054.87,994.53 1163.49,919.848 1210.22,880.111 1278.12,832.943 1189.69,877.116 1290.55,812.649 1203.27,861.056 1154.39,879.79 1015.05,977.136 1048.31,971.472 1067.42,964.961 1133.02,929.454 1091.08,944.721 1145.92,916.633 1190.86,890.658 1238.33,852.26 1246.61,837.577 1249.28,834.865 1231.55,842.863 1163.97,888.245 1168.62,882.381 1162.8,902.77 1178.71,894.365 1146.97,909.621 1185.51,889.442 1101.13,938.243 1227.19,852.094 1186.07,877.994 1205.48,871.257 1314.14,794.142 1243.78,832.961 1246.75,830.49 1222.82,849.836 1233.05,844.851 1220.24,849.629 1265.57,823.667 1360.85,758.142 1356.82,756.114 1345.79,757.294 1331.99,765.987 1253.56,813.282 1277.75,808.27 1268.75,818.444 1281.52,808.991 1337,779.384 1366.5,746.799 1314.48,775.415 1231.72,830.697 1201.64,858.896 1218.5,854.187 1165.79,887.807 1160.7,893.932 1170.76,886.75 1128.82,909.312 1144.54,904.561 1148.62,894.654 1188.72,866.777 1185.38,875.884 1128.96,917.664 1254.66,843.804 1280.98,831.483 1291.97,798.971 1411.69,713.615 1443.9,691.678 1401.48,702.429 1338.83,741.787 1214.31,828.565 1209.21,847.975 1312.29,797.508 1438.48,717.59 1379.8,746.703 1457.25,681.109 1393.75,708.533 1582.46,566.657 1598.35,543.756 1577.02,549.242 1483.19,620.311 1337.19,720.934 1234.83,800.063 1268.73,802.242 1146.44,885.441 1147.19,896.399 1078.76,942.746 1152.26,911.414 1088.76,948.159 1092.72,945.248 1082.25,951.93 1293.12,835.479 1389.17,754.98 1500.78,664.721 1556.03,600.734 1575.49,573.043 1614.03,528.508 1543.7,568.19 1483.08,618.833 1464.04,641.493 1480.57,632.087 1397.68,689.376 1281.47,770.099 1293.42,776.436 1319.55,770.665 1296.13,784.99 1260.06,820.44 1320.96,777.858 1328.28,772.792 1267.67,809.233 1199.08,860.827 1129.04,911.33 1214.87,868.102 1156.23,896.534 1135.01,904.149 1095.05,940.602 1088.2,949.469 1079.74,956.688 1061.26,967.77 1093.84,950.031 1081.87,952.703 1096.25,949.099 1113.98,926.023 1199.33,878.397 1201.06,872.907 1224.93,847.682 1299.22,802.726 1332.52,780.947 1324.45,767.118 1269.53,814.941 1289.6,796.434 1246.01,817.442 1280.6,803.429 1261.35,817.391 1173.67,897.484 1156.66,899.041 1264.13,829.501 1367.93,751.511 1511.36,630.726 1511.66,614.427 1426.73,672.577 1501.4,625.119 1388.83,707.374 1388.1,718.469 1410.18,699.891 1420.62,694.488 1311.72,767.56 1275.69,801.137 1214.97,851.232 1259.42,824.295 1189.57,870.337 1156.39,888.909 1199.67,862.317 1306.34,800.717 1295.5,801.929 1314.36,782.957 1269.12,814.866 1291.03,793.814 1367.16,733.191 1321.14,766.99 1400.21,707.758 1355.71,727.704 1554.39,594.329 1592.73,543.507 1455.78,646.837 1375.82,710.02 1387.73,713.969 1429.7,686.645 1510.46,635.154 1497.34,624.472 1476.28,627.888 1416.65,679.434 1388.23,714.783 1301.83,770.815 1262.18,803.981 1252.58,815.907 1366.4,751.21 1341.98,768.845 1250.43,827.188 1312.8,797.656 1368.5,750.696 1454.04,691.735 1378.57,726.348 1248.6,815.575 1194.95,858.822 1096.58,928.761 1145.66,905.049 1078.61,946.332 1081.54,950.141 1070.15,956.065 1133.19,915.158 1149.31,904.174 1102.02,941.871 1108.98,940.535 1134.15,922.946 1030.76,986.097 998.819,1018.62 990.192,1012.68 979.842,1020.72 888.45,1083.97 926.391,1067.34 935.025,1063.55 1002.79,1023.6 1034.31,995.191 1107.36,947.779 1186.89,894.264 1189.16,870.478 1216.88,852.905 1083.34,938.239 1008.75,986.879 1060.9,966.634 984.12,1018.17 998.551,1012.13 974.172,1014.29 1050.79,979.313 1060.54,977.13 974.662,1024.21 1009.44,1009.47 1035.16,984.663 1031.53,986.061 1124.13,925.426 1138.83,916.655 1149.4,907.387 1143.87,893.381 1097.28,925.356 1051.29,968.724 1099.09,945.973 1097.06,945.71 993.306,1013.78 938.858,1047.52 949.551,1042.59 948.867,1043.34 981.077,1023.08 1036.05,995.901 1079.78,968.483 1062.13,973.708 994.084,1014.39 922.75,1063.94 948.88,1043.57 1036.19,996.109 1103.89,950.299 1170.89,897.297 1206.4,879.143 1243.21,832.451 1206.7,852.296 1211.18,849.278 1298.97,796.744 1235.99,829.909 1371.19,757.806 1334.85,763.707 1356.36,745.581 1350.69,751.071 1372.15,742.12 1380.39,735.099 1401.25,715.602 1404.11,702.491 1374.88,727.439 1370.71,725.921 1265.42,805.821 1268.35,806.898 1183.53,876.057 1081.67,934.679 1112.92,932.427 1095.66,947.204 1107.34,935.968 1207.56,875.572 1185.7,887.616 1140.28,911.889 1140.85,913.996 1144.52,908.375 1135.78,907.83 1192.95,868.397 1092.73,917.679 1062.98,953.695 999.649,995.971 1032.97,985.441 993.987,1008.31 956.033,1030.37 913.297,1063.11 935.99,1056.66 953.187,1049.55 981.93,1031.46 1021.83,1005.01 1074.89,974.739 1076.97,962.377 1176.7,906.226 1142.22,908.404 1154.89,906.728 1232.73,852.018 1307.92,799.787 1227.33,845.316 1249.01,835.938 1260.72,823.238 1214.02,855.645 1256.75,829.529 1256.52,832.823 1390.79,731.886 1446.39,692.14 1540.51,622.201 1426.43,682.219 1410.13,689.451 1459.73,656.422 1383.71,702.233 1390.93,702.244 1398.88,704.763 1386.26,720.274 1291.59,777.015 1225.4,818.685 1198.76,857.965 1185.63,870.418 1208.13,860.408 1132.38,908.316 1173.9,892.044 1286.58,824.003 1338.02,780.978 1368.63,753.06 1412.2,712.227 1405,701.749 1331.86,750.551 1282.5,796.159 1232.88,828.404 1194.17,858.816 1227.53,848.615 1150.25,895.656 1107.1,920.913 1092.51,935.584 1130.99,919.755 1187.53,878.487 1175.36,884.42 1340.43,778.152 1367.75,738.411 1393,725.832 1456.6,670.719 1408.21,700.175 1352.36,733.935 1399.83,715.219 1388.74,716.639 1387.1,712.081 1410.19,698.007 1346.39,744.967 1336.01,770.144 1342.29,761.818 1337.43,761.897 1240.68,830.336 1335.26,777.575 1326.67,769.903 1363.67,736.475 1411.58,699.497 1651.35,519.433 1706.35,464.792 1768.3,398.167 1789.46,355.857 1765.81,372.301 1674.54,442.418 1571.63,525.117 1532.53,571.915 1576.8,553.408 1633.35,520.745 1599.01,532.374 1518.25,592.714 1497.51,616.952 1542.85,589.527 1538.42,597.748 1571.5,574.513 1584.13,551.708 1529.15,590.669 1461.06,641.076 1445.73,653.213 1492.34,629.859 1554.31,593.407 1593.18,554.72 1574.09,559.224 1500.47,608.39 1576.16,562.324 1453.75,645.612 1530.01,607.421 1485.81,635.894 1551.51,595.117 1440.15,668.49 1402.07,704.001 1418.47,696.3 1472.02,670.105 1458.66,664.362 1346.99,731.814 1340.29,745.125 1274.04,791.03 1407.29,717.024 1488.75,653.231 1536.29,615.155 1440.98,667.121 1366.33,718.635 1415.78,695.04 1480.96,652.799 1522.14,599.004 1461.35,649.206 1557.05,577.505 1392.76,703.203 1402.52,696.029 1420.32,688.875 1482.91,645.372 1329.41,746.248 1286.32,789.572 1322.15,776.421 1355.58,756.299 1358.46,752.05 1282.12,795.919 1240.02,828.976 1185.47,869.385 1176.65,885.33 1212.6,858.477 1312.74,795.561 1244.97,824.527 1275.98,809.911 1282.73,790.372 1192.28,865.562 1148.33,895.995 1134.35,911.077 1142.38,908.072 1254.2,842.654 1235.46,840.75 1194.59,865.693 1201.93,863.646 1264.55,820.355 1409.68,721.01 1316.3,760.002 1438.04,703.497 1430.52,672.237 1481.09,642.305 1410.35,696.837 1471.87,651.607 1419.18,690.182 1297.77,781.945 1209.76,845.372 1184.68,869.622 1102.26,928.305 1144.52,914.617 1098.84,939.263 1137.25,927.309 1239.21,861.118 1232,854.667 1223.54,858.956 1131.96,917.623 986.591,1013.55 998.153,1008.7 1056.5,981.574 1118.08,939.49 1247.98,853.451 1294.99,810.107 1369.33,752.078 1399.62,709.116 1528.79,616.464 1438.7,661.705 1324.2,751.628 1343.43,753.942 1299.24,785.247 1271.93,812.387 1361.18,753.644 1324.27,762.236 1337.69,756.137 1316.13,782.116 1335.49,769.382 1228.95,831.602 1344.78,752.911 1284.69,793.547 1239.29,828.301 1255.47,825.11 1281.64,800.475 1160.64,894.8 1127.49,918.607 1110.16,930.419 1059.31,971.685 1059.09,973.057 1085.86,948.389 1029.63,988.251 1072.98,960.943 1055.2,969.669 1019.84,995.874 1075.09,951.538 1161.07,907.043 1168.15,904.761 1074.93,960.17 1024.14,990.334 988.282,1017.64 1003.83,1016.72 1000.45,1020.08 1040.85,987.307 1095.04,948.082 1136.72,923.36 1128.7,931.846 1164.56,902.557 1261.65,827.052 1309.33,794.133 1254.76,824.443 1135.81,913.143 1170.1,891.805 1185.02,875.413 1259.32,819.754 1125.1,904.502 1058.71,956.155 1028.26,986.278 940.8,1042.13 932.774,1052.32 892.268,1076.38 957.111,1044 1005.58,1009.64 1176.03,908.058 1260.23,837.222 1303.27,809.052 1337.46,768.426 1262.59,805.699 1234.09,832.708 1191.36,865.75 1180.66,875.719 1110.44,918.153 1173.89,877.756 1259.35,821.196 1382.62,729.842 1309.86,772.713 1322.12,759.409 1359.51,746.797 1302.44,799.387 1354.97,755.6 1486.7,643.774 1511.79,612.84 1463.4,640.019 1280.12,772.285 1340.68,759.269 1381.35,732.465 1401.28,715.891 1284.61,786.23 1384.38,726.783 1291.03,800.183 1321.11,780.774 1319.31,787.098 1375.68,748.946 1329.63,772.579 1347.02,753.901 1302.65,785.395 1157.38,891.796 1051.1,961.784 1041.84,977.116 1033.27,988.248 1088.73,958.155 1138.2,928.018 1047.48,977.565 1004.94,1002.57 928.962,1048.26 952.79,1044.88 890.701,1077.66 917.117,1065.7 922.531,1065.29 1070.03,975.242 1061.75,969.774 1021.41,992.581 1002.26,1001.44 962.478,1023.2 1006.46,1001.76 1045.9,982.401 1101.84,937.756 1113.82,926.214 1070.15,953.487 1054.56,956.431 1039.08,974.973 1044.26,973.002 1043.3,981.901 1045.92,978.75 1019.99,997.913 1046.31,976.908 1010.03,1009.73 1069.66,974.226 1002.57,1004.01 987.451,1022.72 1072.59,980.053 1109.94,938.942 1130.78,922.432 1119.4,931.513 1089.64,950.507 1082.81,957.296 1218.64,878.025 1167.85,892.315 1135.93,913.656 1150.02,901.989 1195.9,884.116 1301.24,808.213 1259.18,817.563 1270.49,806.988 1145.08,901.865 1201.24,875.622 1174.82,883.022 1267.54,824.64 1281.93,806.933 1393.4,729.118 1473.23,667.341 1572.32,584.745 1500,606.079 1555.81,567.008 1579.01,523.212 1497.88,587.278 1405.77,667.78 1373.03,704.177 1394.72,702.953 1357.66,734.656 1380.4,723.627 1377.52,718.827 1275.27,792.747 1336.64,761.2 1303.5,780.576 1222.13,834.647 1204.23,854.565 1286.22,814.482 1457.25,705.745 1436.69,690.424 1380.32,721.462 1411.25,704.102 1465.5,664.953 1452.28,661.771 1361.35,722.587 1504.14,641.77 1444.8,669.444 1345.54,742.105 1519.25,630.651 1476.59,643.285 1490.35,629.053 1549.51,594.986 1597.47,546.982 1503.64,604.419 1573.29,569.085 1626.09,524.016 1409.34,678.608 1438.21,673.215 1329.74,750.636 1347,748.338 1348.38,748.88 1361.24,749.574 1390.71,728.223 1412.81,710.672 1387.43,716.943 1336.17,745.594 1398.5,715.679 1428.12,698.243 1288.69,798.803 1301.41,787.341 1266.82,808.874 1269.64,809.829 1215.08,837.147 1346.61,755.099 1415.87,697.535 1429.01,663.797 1454.21,651.243 1346.93,727.143 1355.7,738.581 1323.8,765.108 1326.16,759.088 1315.57,755.866 1520.18,614.515 1458.15,648.595 1426.33,687.89 1310.02,775.77 1285.21,793.803 1236.06,838.948 1212.01,853.907 1183.36,873.679 1080.97,942.959 1056.33,960.354 1094.4,945.4 1070.55,954.734 1073.93,960.527 1073.99,961.854 1029.61,987.163 959.863,1029.85 1076.59,977.396 1052.56,985.501 994.562,1010.47 1039.84,993.438 1062.37,978.345 964.015,1032.98 861.58,1092.93 874.462,1089.41 930.404,1055.12 995.726,1022.66 1065.96,970.39 1133.41,924.024 1038.82,979.229 1124.98,935.126 1197.5,881.492 1184.43,881.942 1241,848.986 1260.93,827.175 1280.36,811.547 1295.38,804.988 1267.43,799.457 1307.23,779.62 1215.36,845.436 1133.72,900.925 1069.19,946.953 1107.24,933.847 1110.09,935.461 1155.29,901.352 1130.16,915.059 1157.05,900.77 1143.14,909.198 1330.08,788.171 1383.61,744.174 1369.97,743.589 1300.2,786.845 1178.04,872.555 1208.7,858.649 1310.58,793.329 1225.79,843.571 1191.39,869.401 1264.56,831.317 1234.09,843.973 1211.51,860.203 1199.13,864.286 1109.91,914.985 1170.17,888.672 1102.47,934.596 1061.21,966.603 1112.86,938.859 1217.92,882.689 1211.27,862.186 1161.51,891.479 1205.34,867.488 1144.51,905.295 1246.07,847.372 1167.55,888.757 1138.84,908.822 1069.47,953.574 1188.63,886.845 1174.99,888.667 1297.91,814.732 1374.45,757.592 1427.34,695.176 1336.42,757.759 1353.23,748.659 1323.41,765.12 1407.1,716.004 1467.83,672.34 1512.68,611.171 1365.52,714.914 1341.85,729.684 1402.31,689.33 1315.84,763.476 1244.38,819.268 1214.01,846.583 1168.74,878.244 1267.93,824.36 1165.61,886.083 1215.67,851.809 1079.79,948.613 1176.91,898.979 1132.17,917.918 1165.46,899.643 1117.29,925.481 1079.41,950.147 1137.93,918.566 1074.84,955.457 1030.51,981.203 1014.49,994.115 998.351,1006.77 1033.45,984.782 1136.51,916.906 1175.07,889.165 1192.21,872.847 1254.18,833.331 1118.5,926.488 1093.97,951.67 1069.98,961.99 "/>
<path clip-path="url(#clip340)" d="M228.998 198.898 L588.673 198.898 L588.673 95.2176 L228.998 95.2176  Z" fill="#ffffff" fill-rule="evenodd" fill-opacity="1"/>
<polyline clip-path="url(#clip340)" style="stroke:#000000; stroke-linecap:round; stroke-linejoin:round; stroke-width:4; stroke-opacity:1; fill:none" points="228.998,198.898 588.673,198.898 588.673,95.2176 228.998,95.2176 228.998,198.898 "/>
<polyline clip-path="url(#clip340)" style="stroke:#009af9; stroke-linecap:round; stroke-linejoin:round; stroke-width:4; stroke-opacity:1; fill:none" points="253.409,147.058 399.875,147.058 "/>
<path clip-path="url(#clip340)" d="M434.911 128.366 Q431.809 133.69 430.305 138.898 Q428.8 144.106 428.8 149.453 Q428.8 154.801 430.305 160.055 Q431.832 165.287 434.911 170.588 L431.207 170.588 Q427.735 165.148 425.999 159.893 Q424.286 154.639 424.286 149.453 Q424.286 144.291 425.999 139.06 Q427.712 133.828 431.207 128.366 L434.911 128.366 Z" fill="#000000" fill-rule="nonzero" fill-opacity="1" /><path clip-path="url(#clip340)" d="M464.726 138.412 L455.351 151.027 L465.212 164.338 L460.189 164.338 L452.642 154.152 L445.096 164.338 L440.073 164.338 L450.142 150.773 L440.929 138.412 L445.953 138.412 L452.828 147.648 L459.703 138.412 L464.726 138.412 Z" fill="#000000" fill-rule="nonzero" fill-opacity="1" /><path clip-path="url(#clip340)" d="M472.318 158.458 L477.202 158.458 L477.202 162.439 L473.406 169.847 L470.42 169.847 L472.318 162.439 L472.318 158.458 Z" fill="#000000" fill-rule="nonzero" fill-opacity="1" /><path clip-path="url(#clip340)" d="M497.087 166.745 Q495.281 171.375 493.568 172.787 Q491.855 174.199 488.985 174.199 L485.582 174.199 L485.582 170.634 L488.082 170.634 Q489.841 170.634 490.813 169.8 Q491.786 168.967 492.966 165.865 L493.73 163.921 L483.244 138.412 L487.758 138.412 L495.86 158.689 L503.962 138.412 L508.475 138.412 L497.087 166.745 Z" fill="#000000" fill-rule="nonzero" fill-opacity="1" /><path clip-path="url(#clip340)" d="M515.443 158.458 L520.327 158.458 L520.327 162.439 L516.531 169.847 L513.545 169.847 L515.443 162.439 L515.443 158.458 Z" fill="#000000" fill-rule="nonzero" fill-opacity="1" /><path clip-path="url(#clip340)" d="M527.573 138.412 L547.804 138.412 L547.804 142.301 L531.785 160.935 L547.804 160.935 L547.804 164.338 L526.994 164.338 L526.994 160.449 L543.012 141.815 L527.573 141.815 L527.573 138.412 Z" fill="#000000" fill-rule="nonzero" fill-opacity="1" /><path clip-path="url(#clip340)" d="M553.637 128.366 L557.341 128.366 Q560.813 133.828 562.526 139.06 Q564.262 144.291 564.262 149.453 Q564.262 154.639 562.526 159.893 Q560.813 165.148 557.341 170.588 L553.637 170.588 Q556.716 165.287 558.22 160.055 Q559.748 154.801 559.748 149.453 Q559.748 144.106 558.22 138.898 Q556.716 133.69 553.637 128.366 Z" fill="#000000" fill-rule="nonzero" fill-opacity="1" /></svg>
