<?xml version="1.0" encoding="utf-8"?>
<svg xmlns="http://www.w3.org/2000/svg" xmlns:xlink="http://www.w3.org/1999/xlink" width="600" height="400" viewBox="0 0 2400 1600">
<defs>
  <clipPath id="clip260">
    <rect x="0" y="0" width="2400" height="1600"/>
  </clipPath>
</defs>
<path clip-path="url(#clip260)" d="M0 1600 L2400 1600 L2400 0 L0 0  Z" fill="#ffffff" fill-rule="evenodd" fill-opacity="1"/>
<defs>
  <clipPath id="clip261">
    <rect x="480" y="0" width="1681" height="1600"/>
  </clipPath>
</defs>
<path clip-path="url(#clip260)" d="M193.936 1423.18 L2352.76 1423.18 L2352.76 47.2441 L193.936 47.2441  Z" fill="#ffffff" fill-rule="evenodd" fill-opacity="1"/>
<defs>
  <clipPath id="clip262">
    <rect x="193" y="47" width="2160" height="1377"/>
  </clipPath>
</defs>
<polyline clip-path="url(#clip262)" style="stroke:#000000; stroke-linecap:round; stroke-linejoin:round; stroke-width:2; stroke-opacity:0.1; fill:none" points="193.936,1423.18 193.936,47.2441 "/>
<polyline clip-path="url(#clip262)" style="stroke:#000000; stroke-linecap:round; stroke-linejoin:round; stroke-width:2; stroke-opacity:0.1; fill:none" points="625.7,1423.18 625.7,47.2441 "/>
<polyline clip-path="url(#clip262)" style="stroke:#000000; stroke-linecap:round; stroke-linejoin:round; stroke-width:2; stroke-opacity:0.1; fill:none" points="1057.46,1423.18 1057.46,47.2441 "/>
<polyline clip-path="url(#clip262)" style="stroke:#000000; stroke-linecap:round; stroke-linejoin:round; stroke-width:2; stroke-opacity:0.1; fill:none" points="1489.23,1423.18 1489.23,47.2441 "/>
<polyline clip-path="url(#clip262)" style="stroke:#000000; stroke-linecap:round; stroke-linejoin:round; stroke-width:2; stroke-opacity:0.1; fill:none" points="1920.99,1423.18 1920.99,47.2441 "/>
<polyline clip-path="url(#clip262)" style="stroke:#000000; stroke-linecap:round; stroke-linejoin:round; stroke-width:2; stroke-opacity:0.1; fill:none" points="2352.76,1423.18 2352.76,47.2441 "/>
<polyline clip-path="url(#clip260)" style="stroke:#000000; stroke-linecap:round; stroke-linejoin:round; stroke-width:4; stroke-opacity:1; fill:none" points="193.936,1423.18 2352.76,1423.18 "/>
<polyline clip-path="url(#clip260)" style="stroke:#000000; stroke-linecap:round; stroke-linejoin:round; stroke-width:4; stroke-opacity:1; fill:none" points="193.936,1423.18 193.936,1404.28 "/>
<polyline clip-path="url(#clip260)" style="stroke:#000000; stroke-linecap:round; stroke-linejoin:round; stroke-width:4; stroke-opacity:1; fill:none" points="625.7,1423.18 625.7,1404.28 "/>
<polyline clip-path="url(#clip260)" style="stroke:#000000; stroke-linecap:round; stroke-linejoin:round; stroke-width:4; stroke-opacity:1; fill:none" points="1057.46,1423.18 1057.46,1404.28 "/>
<polyline clip-path="url(#clip260)" style="stroke:#000000; stroke-linecap:round; stroke-linejoin:round; stroke-width:4; stroke-opacity:1; fill:none" points="1489.23,1423.18 1489.23,1404.28 "/>
<polyline clip-path="url(#clip260)" style="stroke:#000000; stroke-linecap:round; stroke-linejoin:round; stroke-width:4; stroke-opacity:1; fill:none" points="1920.99,1423.18 1920.99,1404.28 "/>
<polyline clip-path="url(#clip260)" style="stroke:#000000; stroke-linecap:round; stroke-linejoin:round; stroke-width:4; stroke-opacity:1; fill:none" points="2352.76,1423.18 2352.76,1404.28 "/>
<path clip-path="url(#clip260)" d="M193.936 1454.1 Q190.325 1454.1 188.496 1457.66 Q186.691 1461.2 186.691 1468.33 Q186.691 1475.44 188.496 1479.01 Q190.325 1482.55 193.936 1482.55 Q197.57 1482.55 199.376 1479.01 Q201.204 1475.44 201.204 1468.33 Q201.204 1461.2 199.376 1457.66 Q197.57 1454.1 193.936 1454.1 M193.936 1450.39 Q199.746 1450.39 202.802 1455 Q205.88 1459.58 205.88 1468.33 Q205.88 1477.06 202.802 1481.67 Q199.746 1486.25 193.936 1486.25 Q188.126 1486.25 185.047 1481.67 Q181.992 1477.06 181.992 1468.33 Q181.992 1459.58 185.047 1455 Q188.126 1450.39 193.936 1450.39 Z" fill="#000000" fill-rule="nonzero" fill-opacity="1" /><path clip-path="url(#clip260)" d="M620.353 1481.64 L636.672 1481.64 L636.672 1485.58 L614.728 1485.58 L614.728 1481.64 Q617.39 1478.89 621.973 1474.26 Q626.58 1469.61 627.76 1468.27 Q630.006 1465.74 630.885 1464.01 Q631.788 1462.25 631.788 1460.56 Q631.788 1457.8 629.843 1456.07 Q627.922 1454.33 624.82 1454.33 Q622.621 1454.33 620.168 1455.09 Q617.737 1455.86 614.959 1457.41 L614.959 1452.69 Q617.783 1451.55 620.237 1450.97 Q622.691 1450.39 624.728 1450.39 Q630.098 1450.39 633.293 1453.08 Q636.487 1455.77 636.487 1460.26 Q636.487 1462.39 635.677 1464.31 Q634.89 1466.2 632.783 1468.8 Q632.205 1469.47 629.103 1472.69 Q626.001 1475.88 620.353 1481.64 Z" fill="#000000" fill-rule="nonzero" fill-opacity="1" /><path clip-path="url(#clip260)" d="M1060.47 1455.09 L1048.67 1473.54 L1060.47 1473.54 L1060.47 1455.09 M1059.25 1451.02 L1065.13 1451.02 L1065.13 1473.54 L1070.06 1473.54 L1070.06 1477.43 L1065.13 1477.43 L1065.13 1485.58 L1060.47 1485.58 L1060.47 1477.43 L1044.87 1477.43 L1044.87 1472.92 L1059.25 1451.02 Z" fill="#000000" fill-rule="nonzero" fill-opacity="1" /><path clip-path="url(#clip260)" d="M1489.63 1466.44 Q1486.48 1466.44 1484.63 1468.59 Q1482.8 1470.74 1482.8 1474.49 Q1482.8 1478.22 1484.63 1480.39 Q1486.48 1482.55 1489.63 1482.55 Q1492.78 1482.55 1494.61 1480.39 Q1496.46 1478.22 1496.46 1474.49 Q1496.46 1470.74 1494.61 1468.59 Q1492.78 1466.44 1489.63 1466.44 M1498.92 1451.78 L1498.92 1456.04 Q1497.16 1455.21 1495.35 1454.77 Q1493.57 1454.33 1491.81 1454.33 Q1487.18 1454.33 1484.73 1457.45 Q1482.3 1460.58 1481.95 1466.9 Q1483.31 1464.89 1485.37 1463.82 Q1487.43 1462.73 1489.91 1462.73 Q1495.12 1462.73 1498.13 1465.9 Q1501.16 1469.05 1501.16 1474.49 Q1501.16 1479.82 1498.01 1483.03 Q1494.86 1486.25 1489.63 1486.25 Q1483.64 1486.25 1480.47 1481.67 Q1477.3 1477.06 1477.3 1468.33 Q1477.3 1460.14 1481.18 1455.28 Q1485.07 1450.39 1491.62 1450.39 Q1493.38 1450.39 1495.17 1450.74 Q1496.97 1451.09 1498.92 1451.78 Z" fill="#000000" fill-rule="nonzero" fill-opacity="1" /><path clip-path="url(#clip260)" d="M1920.99 1469.17 Q1917.66 1469.17 1915.74 1470.95 Q1913.84 1472.73 1913.84 1475.86 Q1913.84 1478.98 1915.74 1480.77 Q1917.66 1482.55 1920.99 1482.55 Q1924.33 1482.55 1926.25 1480.77 Q1928.17 1478.96 1928.17 1475.86 Q1928.17 1472.73 1926.25 1470.95 Q1924.35 1469.17 1920.99 1469.17 M1916.32 1467.18 Q1913.31 1466.44 1911.62 1464.38 Q1909.95 1462.32 1909.95 1459.35 Q1909.95 1455.21 1912.89 1452.8 Q1915.85 1450.39 1920.99 1450.39 Q1926.15 1450.39 1929.09 1452.8 Q1932.03 1455.21 1932.03 1459.35 Q1932.03 1462.32 1930.34 1464.38 Q1928.68 1466.44 1925.69 1467.18 Q1929.07 1467.96 1930.95 1470.26 Q1932.84 1472.55 1932.84 1475.86 Q1932.84 1480.88 1929.77 1483.57 Q1926.71 1486.25 1920.99 1486.25 Q1915.27 1486.25 1912.2 1483.57 Q1909.14 1480.88 1909.14 1475.86 Q1909.14 1472.55 1911.04 1470.26 Q1912.94 1467.96 1916.32 1467.18 M1914.6 1459.79 Q1914.6 1462.48 1916.27 1463.98 Q1917.96 1465.49 1920.99 1465.49 Q1924 1465.49 1925.69 1463.98 Q1927.4 1462.48 1927.4 1459.79 Q1927.4 1457.11 1925.69 1455.6 Q1924 1454.1 1920.99 1454.1 Q1917.96 1454.1 1916.27 1455.6 Q1914.6 1457.11 1914.6 1459.79 Z" fill="#000000" fill-rule="nonzero" fill-opacity="1" /><path clip-path="url(#clip260)" d="M2327.44 1481.64 L2335.08 1481.64 L2335.08 1455.28 L2326.77 1456.95 L2326.77 1452.69 L2335.04 1451.02 L2339.71 1451.02 L2339.71 1481.64 L2347.35 1481.64 L2347.35 1485.58 L2327.44 1485.58 L2327.44 1481.64 Z" fill="#000000" fill-rule="nonzero" fill-opacity="1" /><path clip-path="url(#clip260)" d="M2366.8 1454.1 Q2363.18 1454.1 2361.36 1457.66 Q2359.55 1461.2 2359.55 1468.33 Q2359.55 1475.44 2361.36 1479.01 Q2363.18 1482.55 2366.8 1482.55 Q2370.43 1482.55 2372.23 1479.01 Q2374.06 1475.44 2374.06 1468.33 Q2374.06 1461.2 2372.23 1457.66 Q2370.43 1454.1 2366.8 1454.1 M2366.8 1450.39 Q2372.61 1450.39 2375.66 1455 Q2378.74 1459.58 2378.74 1468.33 Q2378.74 1477.06 2375.66 1481.67 Q2372.61 1486.25 2366.8 1486.25 Q2360.99 1486.25 2357.91 1481.67 Q2354.85 1477.06 2354.85 1468.33 Q2354.85 1459.58 2357.91 1455 Q2360.99 1450.39 2366.8 1450.39 Z" fill="#000000" fill-rule="nonzero" fill-opacity="1" /><path clip-path="url(#clip260)" d="M1272.41 1522.27 L1272.41 1532.4 L1284.47 1532.4 L1284.47 1536.95 L1272.41 1536.95 L1272.41 1556.3 Q1272.41 1560.66 1273.58 1561.9 Q1274.79 1563.14 1278.45 1563.14 L1284.47 1563.14 L1284.47 1568.04 L1278.45 1568.04 Q1271.67 1568.04 1269.1 1565.53 Q1266.52 1562.98 1266.52 1556.3 L1266.52 1536.95 L1262.22 1536.95 L1262.22 1532.4 L1266.52 1532.4 L1266.52 1522.27 L1272.41 1522.27 Z" fill="#000000" fill-rule="nonzero" fill-opacity="1" /><polyline clip-path="url(#clip262)" style="stroke:#000000; stroke-linecap:round; stroke-linejoin:round; stroke-width:2; stroke-opacity:0.1; fill:none" points="193.936,1341.33 2352.76,1341.33 "/>
<polyline clip-path="url(#clip262)" style="stroke:#000000; stroke-linecap:round; stroke-linejoin:round; stroke-width:2; stroke-opacity:0.1; fill:none" points="193.936,1100.13 2352.76,1100.13 "/>
<polyline clip-path="url(#clip262)" style="stroke:#000000; stroke-linecap:round; stroke-linejoin:round; stroke-width:2; stroke-opacity:0.1; fill:none" points="193.936,858.931 2352.76,858.931 "/>
<polyline clip-path="url(#clip262)" style="stroke:#000000; stroke-linecap:round; stroke-linejoin:round; stroke-width:2; stroke-opacity:0.1; fill:none" points="193.936,617.731 2352.76,617.731 "/>
<polyline clip-path="url(#clip262)" style="stroke:#000000; stroke-linecap:round; stroke-linejoin:round; stroke-width:2; stroke-opacity:0.1; fill:none" points="193.936,376.531 2352.76,376.531 "/>
<polyline clip-path="url(#clip262)" style="stroke:#000000; stroke-linecap:round; stroke-linejoin:round; stroke-width:2; stroke-opacity:0.1; fill:none" points="193.936,135.331 2352.76,135.331 "/>
<polyline clip-path="url(#clip260)" style="stroke:#000000; stroke-linecap:round; stroke-linejoin:round; stroke-width:4; stroke-opacity:1; fill:none" points="193.936,1423.18 193.936,47.2441 "/>
<polyline clip-path="url(#clip260)" style="stroke:#000000; stroke-linecap:round; stroke-linejoin:round; stroke-width:4; stroke-opacity:1; fill:none" points="193.936,1341.33 212.834,1341.33 "/>
<polyline clip-path="url(#clip260)" style="stroke:#000000; stroke-linecap:round; stroke-linejoin:round; stroke-width:4; stroke-opacity:1; fill:none" points="193.936,1100.13 212.834,1100.13 "/>
<polyline clip-path="url(#clip260)" style="stroke:#000000; stroke-linecap:round; stroke-linejoin:round; stroke-width:4; stroke-opacity:1; fill:none" points="193.936,858.931 212.834,858.931 "/>
<polyline clip-path="url(#clip260)" style="stroke:#000000; stroke-linecap:round; stroke-linejoin:round; stroke-width:4; stroke-opacity:1; fill:none" points="193.936,617.731 212.834,617.731 "/>
<polyline clip-path="url(#clip260)" style="stroke:#000000; stroke-linecap:round; stroke-linejoin:round; stroke-width:4; stroke-opacity:1; fill:none" points="193.936,376.531 212.834,376.531 "/>
<polyline clip-path="url(#clip260)" style="stroke:#000000; stroke-linecap:round; stroke-linejoin:round; stroke-width:4; stroke-opacity:1; fill:none" points="193.936,135.331 212.834,135.331 "/>
<path clip-path="url(#clip260)" d="M51.9875 1341.78 L81.6633 1341.78 L81.6633 1345.72 L51.9875 1345.72 L51.9875 1341.78 Z" fill="#000000" fill-rule="nonzero" fill-opacity="1" /><path clip-path="url(#clip260)" d="M92.566 1354.68 L100.205 1354.68 L100.205 1328.31 L91.8947 1329.98 L91.8947 1325.72 L100.159 1324.05 L104.834 1324.05 L104.834 1354.68 L112.473 1354.68 L112.473 1358.61 L92.566 1358.61 L92.566 1354.68 Z" fill="#000000" fill-rule="nonzero" fill-opacity="1" /><path clip-path="url(#clip260)" d="M121.918 1352.73 L126.802 1352.73 L126.802 1358.61 L121.918 1358.61 L121.918 1352.73 Z" fill="#000000" fill-rule="nonzero" fill-opacity="1" /><path clip-path="url(#clip260)" d="M137.033 1324.05 L155.39 1324.05 L155.39 1327.99 L141.316 1327.99 L141.316 1336.46 Q142.334 1336.11 143.353 1335.95 Q144.371 1335.76 145.39 1335.76 Q151.177 1335.76 154.556 1338.94 Q157.936 1342.11 157.936 1347.52 Q157.936 1353.1 154.464 1356.2 Q150.992 1359.28 144.672 1359.28 Q142.496 1359.28 140.228 1358.91 Q137.982 1358.54 135.575 1357.8 L135.575 1353.1 Q137.658 1354.24 139.881 1354.79 Q142.103 1355.35 144.58 1355.35 Q148.584 1355.35 150.922 1353.24 Q153.26 1351.13 153.26 1347.52 Q153.26 1343.91 150.922 1341.81 Q148.584 1339.7 144.58 1339.7 Q142.705 1339.7 140.83 1340.12 Q138.978 1340.53 137.033 1341.41 L137.033 1324.05 Z" fill="#000000" fill-rule="nonzero" fill-opacity="1" /><path clip-path="url(#clip260)" d="M50.9921 1100.58 L80.6679 1100.58 L80.6679 1104.52 L50.9921 1104.52 L50.9921 1100.58 Z" fill="#000000" fill-rule="nonzero" fill-opacity="1" /><path clip-path="url(#clip260)" d="M91.5706 1113.48 L99.2095 1113.48 L99.2095 1087.11 L90.8993 1088.78 L90.8993 1084.52 L99.1632 1082.85 L103.839 1082.85 L103.839 1113.48 L111.478 1113.48 L111.478 1117.41 L91.5706 1117.41 L91.5706 1113.48 Z" fill="#000000" fill-rule="nonzero" fill-opacity="1" /><path clip-path="url(#clip260)" d="M120.922 1111.53 L125.807 1111.53 L125.807 1117.41 L120.922 1117.41 L120.922 1111.53 Z" fill="#000000" fill-rule="nonzero" fill-opacity="1" /><path clip-path="url(#clip260)" d="M145.992 1085.93 Q142.381 1085.93 140.552 1089.49 Q138.746 1093.04 138.746 1100.17 Q138.746 1107.27 140.552 1110.84 Q142.381 1114.38 145.992 1114.38 Q149.626 1114.38 151.431 1110.84 Q153.26 1107.27 153.26 1100.17 Q153.26 1093.04 151.431 1089.49 Q149.626 1085.93 145.992 1085.93 M145.992 1082.23 Q151.802 1082.23 154.857 1086.83 Q157.936 1091.42 157.936 1100.17 Q157.936 1108.89 154.857 1113.5 Q151.802 1118.08 145.992 1118.08 Q140.181 1118.08 137.103 1113.5 Q134.047 1108.89 134.047 1100.17 Q134.047 1091.42 137.103 1086.83 Q140.181 1082.23 145.992 1082.23 Z" fill="#000000" fill-rule="nonzero" fill-opacity="1" /><path clip-path="url(#clip260)" d="M51.9875 859.383 L81.6633 859.383 L81.6633 863.318 L51.9875 863.318 L51.9875 859.383 Z" fill="#000000" fill-rule="nonzero" fill-opacity="1" /><path clip-path="url(#clip260)" d="M101.756 844.73 Q98.1447 844.73 96.316 848.295 Q94.5104 851.836 94.5104 858.966 Q94.5104 866.072 96.316 869.637 Q98.1447 873.179 101.756 873.179 Q105.39 873.179 107.196 869.637 Q109.024 866.072 109.024 858.966 Q109.024 851.836 107.196 848.295 Q105.39 844.73 101.756 844.73 M101.756 841.026 Q107.566 841.026 110.621 845.633 Q113.7 850.216 113.7 858.966 Q113.7 867.693 110.621 872.299 Q107.566 876.883 101.756 876.883 Q95.9456 876.883 92.8669 872.299 Q89.8114 867.693 89.8114 858.966 Q89.8114 850.216 92.8669 845.633 Q95.9456 841.026 101.756 841.026 Z" fill="#000000" fill-rule="nonzero" fill-opacity="1" /><path clip-path="url(#clip260)" d="M121.918 870.332 L126.802 870.332 L126.802 876.211 L121.918 876.211 L121.918 870.332 Z" fill="#000000" fill-rule="nonzero" fill-opacity="1" /><path clip-path="url(#clip260)" d="M137.033 841.651 L155.39 841.651 L155.39 845.586 L141.316 845.586 L141.316 854.059 Q142.334 853.711 143.353 853.549 Q144.371 853.364 145.39 853.364 Q151.177 853.364 154.556 856.535 Q157.936 859.707 157.936 865.123 Q157.936 870.702 154.464 873.804 Q150.992 876.883 144.672 876.883 Q142.496 876.883 140.228 876.512 Q137.982 876.142 135.575 875.401 L135.575 870.702 Q137.658 871.836 139.881 872.392 Q142.103 872.947 144.58 872.947 Q148.584 872.947 150.922 870.841 Q153.26 868.734 153.26 865.123 Q153.26 861.512 150.922 859.406 Q148.584 857.299 144.58 857.299 Q142.705 857.299 140.83 857.716 Q138.978 858.133 137.033 859.012 L137.033 841.651 Z" fill="#000000" fill-rule="nonzero" fill-opacity="1" /><path clip-path="url(#clip260)" d="M100.76 603.53 Q97.1493 603.53 95.3206 607.095 Q93.515 610.636 93.515 617.766 Q93.515 624.872 95.3206 628.437 Q97.1493 631.979 100.76 631.979 Q104.395 631.979 106.2 628.437 Q108.029 624.872 108.029 617.766 Q108.029 610.636 106.2 607.095 Q104.395 603.53 100.76 603.53 M100.76 599.826 Q106.571 599.826 109.626 604.433 Q112.705 609.016 112.705 617.766 Q112.705 626.493 109.626 631.099 Q106.571 635.682 100.76 635.682 Q94.9502 635.682 91.8715 631.099 Q88.816 626.493 88.816 617.766 Q88.816 609.016 91.8715 604.433 Q94.9502 599.826 100.76 599.826 Z" fill="#000000" fill-rule="nonzero" fill-opacity="1" /><path clip-path="url(#clip260)" d="M120.922 629.132 L125.807 629.132 L125.807 635.011 L120.922 635.011 L120.922 629.132 Z" fill="#000000" fill-rule="nonzero" fill-opacity="1" /><path clip-path="url(#clip260)" d="M145.992 603.53 Q142.381 603.53 140.552 607.095 Q138.746 610.636 138.746 617.766 Q138.746 624.872 140.552 628.437 Q142.381 631.979 145.992 631.979 Q149.626 631.979 151.431 628.437 Q153.26 624.872 153.26 617.766 Q153.26 610.636 151.431 607.095 Q149.626 603.53 145.992 603.53 M145.992 599.826 Q151.802 599.826 154.857 604.433 Q157.936 609.016 157.936 617.766 Q157.936 626.493 154.857 631.099 Q151.802 635.682 145.992 635.682 Q140.181 635.682 137.103 631.099 Q134.047 626.493 134.047 617.766 Q134.047 609.016 137.103 604.433 Q140.181 599.826 145.992 599.826 Z" fill="#000000" fill-rule="nonzero" fill-opacity="1" /><path clip-path="url(#clip260)" d="M101.756 362.33 Q98.1447 362.33 96.316 365.894 Q94.5104 369.436 94.5104 376.566 Q94.5104 383.672 96.316 387.237 Q98.1447 390.779 101.756 390.779 Q105.39 390.779 107.196 387.237 Q109.024 383.672 109.024 376.566 Q109.024 369.436 107.196 365.894 Q105.39 362.33 101.756 362.33 M101.756 358.626 Q107.566 358.626 110.621 363.232 Q113.7 367.816 113.7 376.566 Q113.7 385.292 110.621 389.899 Q107.566 394.482 101.756 394.482 Q95.9456 394.482 92.8669 389.899 Q89.8114 385.292 89.8114 376.566 Q89.8114 367.816 92.8669 363.232 Q95.9456 358.626 101.756 358.626 Z" fill="#000000" fill-rule="nonzero" fill-opacity="1" /><path clip-path="url(#clip260)" d="M121.918 387.931 L126.802 387.931 L126.802 393.811 L121.918 393.811 L121.918 387.931 Z" fill="#000000" fill-rule="nonzero" fill-opacity="1" /><path clip-path="url(#clip260)" d="M137.033 359.251 L155.39 359.251 L155.39 363.186 L141.316 363.186 L141.316 371.658 Q142.334 371.311 143.353 371.149 Q144.371 370.964 145.39 370.964 Q151.177 370.964 154.556 374.135 Q157.936 377.306 157.936 382.723 Q157.936 388.302 154.464 391.404 Q150.992 394.482 144.672 394.482 Q142.496 394.482 140.228 394.112 Q137.982 393.742 135.575 393.001 L135.575 388.302 Q137.658 389.436 139.881 389.992 Q142.103 390.547 144.58 390.547 Q148.584 390.547 150.922 388.441 Q153.26 386.334 153.26 382.723 Q153.26 379.112 150.922 377.005 Q148.584 374.899 144.58 374.899 Q142.705 374.899 140.83 375.316 Q138.978 375.732 137.033 376.612 L137.033 359.251 Z" fill="#000000" fill-rule="nonzero" fill-opacity="1" /><path clip-path="url(#clip260)" d="M91.5706 148.676 L99.2095 148.676 L99.2095 122.31 L90.8993 123.977 L90.8993 119.717 L99.1632 118.051 L103.839 118.051 L103.839 148.676 L111.478 148.676 L111.478 152.611 L91.5706 152.611 L91.5706 148.676 Z" fill="#000000" fill-rule="nonzero" fill-opacity="1" /><path clip-path="url(#clip260)" d="M120.922 146.731 L125.807 146.731 L125.807 152.611 L120.922 152.611 L120.922 146.731 Z" fill="#000000" fill-rule="nonzero" fill-opacity="1" /><path clip-path="url(#clip260)" d="M145.992 121.13 Q142.381 121.13 140.552 124.694 Q138.746 128.236 138.746 135.366 Q138.746 142.472 140.552 146.037 Q142.381 149.578 145.992 149.578 Q149.626 149.578 151.431 146.037 Q153.26 142.472 153.26 135.366 Q153.26 128.236 151.431 124.694 Q149.626 121.13 145.992 121.13 M145.992 117.426 Q151.802 117.426 154.857 122.032 Q157.936 126.616 157.936 135.366 Q157.936 144.092 154.857 148.699 Q151.802 153.282 145.992 153.282 Q140.181 153.282 137.103 148.699 Q134.047 144.092 134.047 135.366 Q134.047 126.616 137.103 122.032 Q140.181 117.426 145.992 117.426 Z" fill="#000000" fill-rule="nonzero" fill-opacity="1" /><polyline clip-path="url(#clip262)" style="stroke:#009af9; stroke-linecap:round; stroke-linejoin:round; stroke-width:4; stroke-opacity:1; fill:none" points="193.936,617.731 196.097,625.147 198.258,632.464 200.419,639.684 202.58,646.809 204.741,653.839 206.902,660.776 209.063,667.621 211.224,674.375 213.385,681.04 215.546,687.616 217.707,694.105 219.868,700.508 222.029,706.826 224.19,713.06 226.351,719.212 228.512,725.282 230.673,731.272 232.834,737.182 234.995,743.014 237.156,748.769 239.317,754.447 241.478,760.05 243.639,765.579 245.8,771.034 247.961,776.418 250.122,781.729 252.282,786.971 254.443,792.142 256.604,797.246 258.765,802.281 260.926,807.25 263.087,812.153 265.248,816.991 267.409,821.765 269.57,826.475 271.731,831.123 273.892,835.71 276.053,840.236 278.214,844.701 280.375,849.108 282.536,853.456 284.697,857.746 286.858,861.98 289.019,866.157 291.18,870.279 293.341,874.346 295.502,878.36 297.663,882.32 299.824,886.227 301.985,890.083 304.146,893.888 306.307,897.642 308.468,901.347 310.629,905.002 312.79,908.609 314.951,912.168 317.112,915.68 319.273,919.146 321.434,922.565 323.595,925.939 325.756,929.269 327.917,932.554 330.078,935.796 332.239,938.995 334.4,942.151 336.561,945.265 338.722,948.339 340.883,951.371 343.044,954.363 345.205,957.316 347.366,960.229 349.527,963.104 351.688,965.941 353.849,968.74 356.01,971.501 358.171,974.227 360.332,976.916 362.493,979.569 364.653,982.188 366.814,984.771 368.975,987.321 371.136,989.836 373.297,992.318 375.458,994.768 377.619,997.184 379.78,999.569 381.941,1001.92 384.102,1004.24 386.263,1006.54 388.424,1008.8 390.585,1011.03 392.746,1013.23 394.907,1015.67 397.068,1018.63 399.229,1021.72 401.39,1024.64 403.551,1027.12 405.712,1028.95 407.873,1029.98 410.034,1030.14 412.195,1029.39 414.356,1027.77 416.517,1025.37 418.678,1022.34 420.839,1018.89 423,1015.29 425.161,1011.88 427.322,1008.78 429.483,1005.72 431.644,1002.71 433.805,999.736 435.966,996.802 438.127,993.908 440.288,991.051 442.449,988.233 444.61,985.451 446.771,982.707 448.932,979.999 451.093,977.326 453.254,974.689 455.415,972.088 457.576,969.52 459.737,966.987 461.898,964.487 464.059,962.021 466.22,959.587 468.381,957.185 470.542,954.815 472.703,952.477 474.864,950.17 477.024,947.893 479.185,945.647 481.346,943.431 483.507,941.243 485.668,939.085 487.829,936.956 489.99,934.855 492.151,932.781 494.312,930.736 496.473,928.717 498.634,926.725 500.795,924.759 502.956,922.82 505.117,920.906 507.278,919.018 509.439,917.155 511.6,915.316 513.761,913.501 515.922,911.711 518.083,909.945 520.244,908.201 522.405,906.481 524.566,904.784 526.727,903.109 528.888,901.457 531.049,899.826 533.21,898.217 535.371,896.629 537.532,895.062 539.693,893.516 541.854,891.991 544.015,890.485 546.176,889 548.337,887.534 550.498,886.088 552.659,884.661 554.82,883.253 556.981,881.864 559.142,880.493 561.303,879.14 563.464,877.805 565.625,876.488 567.786,875.189 569.947,873.906 572.108,872.641 574.269,871.392 576.43,870.16 578.591,868.944 580.752,867.745 582.913,866.561 585.074,865.393 587.235,864.24 589.396,863.103 591.556,861.981 593.717,860.892 595.878,859.86 598.039,858.879 600.2,857.939 602.361,857.034 604.522,856.155 606.683,855.297 608.844,854.452 611.005,853.615 613.166,852.779 615.327,851.94 617.488,851.093 619.649,850.232 621.81,849.354 623.971,848.455 626.132,847.532 628.293,846.581 630.454,845.601 632.615,844.588 634.776,843.541 636.937,842.459 639.098,841.34 641.259,840.184 643.42,838.991 645.581,837.76 647.742,836.492 649.903,835.189 652.064,833.851 654.225,832.48 656.386,831.078 658.547,829.647 660.708,828.191 662.869,826.713 665.03,825.216 667.191,823.704 669.352,822.181 671.513,820.653 673.674,819.125 675.835,817.602 677.996,816.089 680.157,814.595 682.318,813.124 684.479,811.685 686.64,810.284 688.801,808.93 690.962,807.613 693.123,806.314 695.284,805.031 697.445,803.766 699.606,802.518 701.767,801.286 703.927,800.07 706.088,798.87 708.249,797.687 710.41,796.519 712.571,795.367 714.732,794.23 716.893,793.107 719.054,792 721.215,790.908 723.376,789.83 725.537,788.766 727.698,787.717 729.859,786.681 732.02,785.659 734.181,784.651 736.342,783.656 738.503,782.674 740.664,781.705 742.825,780.749 744.986,779.806 747.147,778.875 749.308,777.956 751.469,777.05 753.63,776.156 755.791,775.273 757.952,774.402 760.113,773.543 762.274,772.695 764.435,771.858 766.596,771.033 768.757,770.218 770.918,769.414 773.079,768.621 775.24,767.839 777.401,767.066 779.562,766.305 781.723,765.553 783.884,764.811 786.045,764.079 788.206,763.357 790.367,762.644 792.528,761.941 794.689,761.247 796.85,760.562 799.011,759.886 801.172,759.22 803.333,758.562 805.494,757.913 807.655,757.272 809.816,756.64 811.977,756.017 814.138,755.401 816.298,754.794 818.459,754.195 820.62,753.604 822.781,753.021 824.942,752.445 827.103,751.877 829.264,751.317 831.425,750.763 833.586,750.218 835.747,749.679 837.908,749.282 840.069,749.6 842.23,750.628 844.391,752.288 846.552,754.505 848.713,757.207 850.874,760.327 853.035,763.802 855.196,767.571 857.357,771.58 859.518,775.775 861.679,780.11 863.84,784.541 866.001,789.026 868.162,793.529 870.323,798.019 872.484,802.466 874.645,806.845 876.806,811.136 878.967,815.322 881.128,819.389 883.289,823.328 885.45,827.134 887.611,830.805 889.772,834.344 891.933,837.756 894.094,841.052 896.255,844.245 898.416,847.354 900.577,850.4 902.738,853.409 904.899,856.409 907.06,859.435 909.221,862.497 911.382,865.526 913.543,868.514 915.704,871.463 917.865,874.373 920.026,877.244 922.187,880.077 924.348,882.873 926.509,885.632 928.669,888.353 930.83,891.039 932.991,893.69 935.152,896.305 937.313,898.885 939.474,901.431 941.635,903.944 943.796,906.423 945.957,908.869 948.118,911.283 950.279,913.665 952.44,916.015 954.601,918.334 956.762,920.623 958.923,922.881 961.084,925.109 963.245,927.308 965.406,929.477 967.567,931.618 969.728,933.73 971.889,935.814 974.05,937.871 976.211,939.9 978.372,941.903 980.533,943.879 982.694,945.828 984.855,947.752 987.016,949.65 989.177,951.524 991.338,953.372 993.499,955.196 995.66,956.995 997.821,958.771 999.982,960.523 1002.14,962.252 1004.3,963.958 1006.46,965.642 1008.63,967.303 1010.79,968.942 1012.95,970.56 1015.11,972.156 1017.27,973.73 1019.43,975.284 1021.59,976.818 1023.75,978.331 1025.91,979.824 1028.07,981.297 1030.24,982.75 1032.4,984.185 1034.56,985.6 1036.72,986.997 1038.88,988.375 1041.04,989.735 1043.2,991.076 1045.36,992.4 1047.52,993.707 1049.68,994.996 1051.85,996.268 1054.01,997.523 1056.17,998.751 1058.33,999.353 1060.49,999.05 1062.65,997.932 1064.81,996.087 1066.97,993.599 1069.13,990.545 1071.29,987.001 1073.46,983.037 1075.62,978.721 1077.78,974.115 1079.94,969.277 1082.1,964.262 1084.26,959.12 1086.42,953.898 1088.58,948.638 1090.74,943.378 1092.9,938.151 1095.07,932.989 1097.23,927.917 1099.39,922.956 1101.55,918.124 1103.71,913.436 1105.87,908.9 1108.03,904.522 1110.19,900.304 1112.35,896.242 1114.51,892.33 1116.67,888.558 1118.84,884.909 1121,881.365 1123.16,877.904 1125.32,874.497 1127.48,871.114 1129.64,867.719 1131.8,864.272 1133.96,860.812 1136.12,857.397 1138.28,854.027 1140.45,850.702 1142.61,847.422 1144.77,844.184 1146.93,840.99 1149.09,837.838 1151.25,834.728 1153.41,831.659 1155.57,828.63 1157.73,825.642 1159.89,822.694 1162.06,819.784 1164.22,816.913 1166.38,814.08 1168.54,811.285 1170.7,808.527 1172.86,805.805 1175.02,803.119 1177.18,800.468 1179.34,797.853 1181.5,795.272 1183.67,792.726 1185.83,790.213 1187.99,787.733 1190.15,785.287 1192.31,782.873 1194.47,780.491 1196.63,778.14 1198.79,775.821 1200.95,773.533 1203.11,771.275 1205.28,769.047 1207.44,766.848 1209.6,764.679 1211.76,762.538 1213.92,760.427 1216.08,758.343 1218.24,756.287 1220.4,754.258 1222.56,752.256 1224.72,750.28 1226.88,748.331 1229.05,746.408 1231.21,744.511 1233.37,742.638 1235.53,740.79 1237.69,738.967 1239.85,737.168 1242.01,735.393 1244.17,733.642 1246.33,731.914 1248.49,730.208 1250.66,728.525 1252.82,726.865 1254.98,725.226 1257.14,723.609 1259.3,722.014 1261.46,720.439 1263.62,718.886 1265.78,717.353 1267.94,715.84 1270.1,714.204 1272.27,711.45 1274.43,707.533 1276.59,702.618 1278.75,696.862 1280.91,690.41 1283.07,683.397 1285.23,675.948 1287.39,668.178 1289.55,660.188 1291.71,652.073 1293.88,643.914 1296.04,635.784 1298.2,627.744 1300.36,619.844 1302.52,612.125 1304.68,604.616 1306.84,597.337 1309,590.296 1311.16,583.492 1313.32,576.912 1315.49,570.532 1317.65,564.321 1319.81,558.233 1321.97,552.214 1324.13,546.198 1326.29,540.13 1328.45,534.112 1330.61,528.173 1332.77,522.313 1334.93,516.531 1337.09,510.825 1339.26,505.195 1341.42,499.64 1343.58,494.159 1345.74,488.75 1347.9,483.412 1350.06,478.146 1352.22,472.949 1354.38,467.822 1356.54,462.762 1358.7,457.769 1360.87,452.843 1363.03,447.982 1365.19,443.185 1367.35,438.452 1369.51,433.782 1371.67,429.173 1373.83,424.626 1375.99,420.139 1378.15,415.711 1380.31,411.342 1382.48,407.031 1384.64,402.777 1386.8,398.579 1388.96,394.436 1391.12,390.349 1393.28,386.316 1395.44,382.336 1397.6,378.409 1399.76,374.535 1401.92,370.711 1404.09,366.939 1406.25,363.216 1408.41,359.543 1410.57,355.919 1412.73,352.343 1414.89,348.814 1417.05,345.332 1419.21,341.896 1421.37,338.506 1423.53,335.161 1425.7,331.861 1427.86,328.604 1430.02,325.39 1432.18,322.219 1434.34,319.09 1436.5,316.003 1438.66,312.956 1440.82,309.95 1442.98,306.984 1445.14,304.057 1447.3,301.169 1449.47,298.319 1451.63,295.507 1453.79,292.732 1455.95,289.994 1458.11,287.292 1460.27,284.626 1462.43,281.995 1464.59,279.399 1466.75,276.837 1468.91,274.31 1471.08,271.815 1473.24,269.354 1475.4,266.926 1477.56,264.53 1479.72,262.165 1481.88,259.832 1484.04,257.53 1486.2,255.258 1488.36,253.017 1490.52,251.628 1492.69,251.706 1494.85,253.081 1497.01,255.591 1499.17,259.083 1501.33,263.414 1503.49,268.449 1505.65,274.061 1507.81,280.134 1509.97,286.56 1512.13,293.24 1514.3,300.084 1516.46,307.012 1518.62,313.951 1520.78,320.839 1522.94,327.622 1525.1,334.254 1527.26,340.701 1529.42,346.934 1531.58,352.937 1533.74,358.7 1535.91,364.223 1538.07,369.516 1540.23,374.596 1542.39,379.491 1544.55,384.236 1546.71,388.878 1548.87,393.469 1551.03,398.073 1553.19,402.762 1555.35,407.484 1557.51,412.144 1559.68,416.742 1561.84,421.279 1564,425.756 1566.16,430.174 1568.32,434.533 1570.48,438.834 1572.64,443.079 1574.8,447.267 1576.96,451.399 1579.12,455.477 1581.29,459.5 1583.45,463.471 1585.61,467.388 1587.77,471.254 1589.93,475.069 1592.09,478.833 1594.25,482.547 1596.41,486.212 1598.57,489.829 1600.73,493.397 1602.9,496.919 1605.06,500.393 1607.22,503.822 1609.38,507.205 1611.54,510.543 1613.7,513.837 1615.86,517.087 1618.02,520.294 1620.18,523.458 1622.34,526.58 1624.51,529.661 1626.67,532.701 1628.83,535.701 1630.99,538.66 1633.15,541.581 1635.31,544.463 1637.47,547.306 1639.63,550.112 1641.79,552.881 1643.95,555.613 1646.12,558.308 1648.28,560.968 1650.44,563.593 1652.6,566.183 1654.76,568.738 1656.92,571.26 1659.08,573.748 1661.24,576.204 1663.4,578.626 1665.56,581.017 1667.72,583.376 1669.89,585.704 1672.05,588.001 1674.21,590.268 1676.37,592.504 1678.53,594.711 1680.69,596.889 1682.85,599.038 1685.01,601.158 1687.17,603.25 1689.33,605.314 1691.5,607.351 1693.66,609.361 1695.82,611.345 1697.98,613.562 1700.14,617.169 1702.3,622.129 1704.46,628.253 1706.62,635.361 1708.78,643.285 1710.94,651.871 1713.11,660.974 1715.27,670.463 1717.43,680.217 1719.59,690.129 1721.75,700.101 1723.91,710.05 1726.07,719.902 1728.23,729.597 1730.39,739.085 1732.55,748.329 1734.72,757.304 1736.88,765.995 1739.04,774.402 1741.2,782.533 1743.36,790.411 1745.52,798.07 1747.68,805.554 1749.84,812.921 1752,820.24 1754.16,827.591 1756.33,834.969 1758.49,842.251 1760.65,849.437 1762.81,856.527 1764.97,863.524 1767.13,870.427 1769.29,877.24 1771.45,883.961 1773.61,890.594 1775.77,897.139 1777.93,903.597 1780.1,909.969 1782.26,916.257 1784.42,922.461 1786.58,928.584 1788.74,934.625 1790.9,940.586 1793.06,946.468 1795.22,952.273 1797.38,958 1799.54,963.652 1801.71,969.228 1803.87,974.731 1806.03,980.161 1808.19,985.518 1810.35,990.805 1812.51,996.022 1814.67,1001.17 1816.83,1006.25 1818.99,1011.26 1821.15,1016.2 1823.32,1021.08 1825.48,1025.9 1827.64,1030.65 1829.8,1035.34 1831.96,1039.96 1834.12,1044.53 1836.28,1049.03 1838.44,1053.47 1840.6,1057.86 1842.76,1062.19 1844.93,1066.46 1847.09,1070.67 1849.25,1074.82 1851.41,1078.93 1853.57,1082.97 1855.73,1086.97 1857.89,1090.91 1860.05,1094.8 1862.21,1098.63 1864.37,1102.42 1866.54,1106.16 1868.7,1109.84 1870.86,1113.48 1873.02,1117.07 1875.18,1120.61 1877.34,1124.11 1879.5,1127.56 1881.66,1130.96 1883.82,1134.32 1885.98,1137.63 1888.15,1140.9 1890.31,1144.13 1892.47,1147.31 1894.63,1150.45 1896.79,1153.55 1898.95,1156.61 1901.11,1159.63 1903.27,1162.61 1905.43,1165.54 1907.59,1168.44 1909.75,1171.69 1911.92,1176.76 1914.08,1181.09 1916.24,1182.4 1918.4,1179.58 1920.56,1172.59 1922.72,1162.55 1924.88,1151.66 1927.04,1141.74 1929.2,1131.98 1931.36,1122.34 1933.53,1112.83 1935.69,1103.44 1937.85,1094.18 1940.01,1085.05 1942.17,1076.03 1944.33,1067.13 1946.49,1058.35 1948.65,1049.69 1950.81,1041.15 1952.97,1032.71 1955.14,1024.39 1957.3,1016.18 1959.46,1008.07 1961.62,1000.08 1963.78,992.19 1965.94,984.405 1968.1,976.724 1970.26,969.144 1972.42,961.665 1974.58,954.285 1976.75,947.003 1978.91,939.818 1981.07,932.727 1983.23,925.731 1985.39,918.828 1987.55,912.016 1989.71,905.294 1991.87,898.661 1994.03,892.116 1996.19,885.658 1998.36,879.286 2000.52,872.998 2002.68,866.793 2004.84,860.671 2007,854.63 2009.16,848.669 2011.32,842.787 2013.48,836.983 2015.64,831.256 2017.8,825.605 2019.96,820.029 2022.13,814.526 2024.29,809.097 2026.45,803.74 2028.61,798.454 2030.77,793.237 2032.93,788.09 2035.09,783.012 2037.25,778 2039.41,773.055 2041.57,768.176 2043.74,763.361 2045.9,758.61 2048.06,753.922 2050.22,749.296 2052.38,744.732 2054.54,740.228 2056.7,735.783 2058.86,731.398 2061.02,727.07 2063.18,722.8 2065.35,718.587 2067.51,714.43 2069.67,710.327 2071.83,706.279 2073.99,702.285 2076.15,698.344 2078.31,694.455 2080.47,690.618 2082.63,686.831 2084.79,683.095 2086.96,679.408 2089.12,675.77 2091.28,672.181 2093.44,668.639 2095.6,665.144 2097.76,661.695 2099.92,658.292 2102.08,654.935 2104.24,651.621 2106.4,648.352 2108.57,645.126 2110.73,641.943 2112.89,638.801 2115.05,635.702 2117.21,632.643 2119.37,629.626 2121.53,626.648 2123.69,623.709 2125.85,620.81 2128.01,617.949 2130.17,615.126 2132.34,612.34 2134.5,609.591 2136.66,606.879 2138.82,609.664 2140.98,613.636 2143.14,617.559 2145.3,621.43 2147.46,625.25 2149.62,629.019 2151.78,632.738 2153.95,636.408 2156.11,640.03 2158.27,643.603 2160.43,647.129 2162.59,650.608 2164.75,654.041 2166.91,657.428 2169.07,660.771 2171.23,664.069 2173.39,667.323 2175.56,670.535 2177.72,673.704 2179.88,676.83 2182.04,679.916 2184.2,682.96 2186.36,685.964 2188.52,688.928 2190.68,691.853 2192.84,694.739 2195,697.587 2197.17,700.397 2199.33,703.17 2201.49,705.906 2203.65,708.606 2205.81,711.27 2207.97,713.899 2210.13,716.493 2212.29,719.052 2214.45,721.578 2216.61,724.07 2218.78,726.529 2220.94,728.955 2223.1,731.35 2225.26,733.712 2227.42,736.043 2229.58,738.344 2231.74,740.613 2233.9,742.853 2236.06,745.063 2238.22,747.244 2240.38,749.395 2242.55,751.519 2244.71,753.614 2246.87,755.681 2249.03,757.721 2251.19,759.734 2253.35,761.72 2255.51,763.68 2257.67,765.614 2259.83,767.522 2261.99,769.405 2264.16,771.263 2266.32,773.096 2268.48,774.905 2270.64,776.69 2272.8,778.452 2274.96,780.19 2277.12,781.905 2279.28,783.597 2281.44,785.267 2283.6,786.914 2285.77,788.54 2287.93,790.144 2290.09,791.727 2292.25,793.289 2294.41,794.831 2296.57,796.352 2298.73,797.852 2300.89,799.333 2303.05,800.794 2305.21,802.236 2307.38,803.659 2309.54,805.063 2311.7,806.448 2313.86,807.815 2316.02,809.164 2318.18,810.494 2320.34,811.808 2322.5,813.103 2324.66,814.382 2326.82,815.644 2328.99,816.889 2331.15,818.117 2333.31,819.329 2335.47,820.525 2337.63,821.705 2339.79,822.87 2341.95,824.019 2344.11,825.153 2346.27,826.272 2348.43,827.376 2350.59,828.465 2352.76,829.54 "/>
<polyline clip-path="url(#clip262)" style="stroke:#e26f46; stroke-linecap:round; stroke-linejoin:round; stroke-width:4; stroke-opacity:1; fill:none" points="193.936,1177.06 196.097,1177.06 198.258,1177.06 200.419,1177.06 202.58,1177.06 204.741,1177.06 206.902,1177.06 209.063,1177.06 211.224,1177.06 213.385,1177.06 215.546,1177.06 217.707,1177.06 219.868,1177.06 222.029,1177.06 224.19,1177.06 226.351,1177.06 228.512,1177.06 230.673,1177.06 232.834,1177.06 234.995,1177.06 237.156,1177.06 239.317,1177.06 241.478,1177.06 243.639,1177.06 245.8,1177.06 247.961,1177.06 250.122,1177.06 252.282,1177.06 254.443,1177.06 256.604,1177.06 258.765,1177.06 260.926,1177.06 263.087,1177.06 265.248,1177.06 267.409,1177.06 269.57,1177.06 271.731,1177.06 273.892,1177.06 276.053,1177.06 278.214,1177.06 280.375,1177.06 282.536,1177.06 284.697,1177.06 286.858,1177.06 289.019,1177.06 291.18,1177.06 293.341,1177.06 295.502,1177.06 297.663,1177.06 299.824,1177.06 301.985,1177.06 304.146,1177.06 306.307,1177.06 308.468,1177.06 310.629,1177.06 312.79,1177.06 314.951,1177.06 317.112,1177.06 319.273,1177.06 321.434,1177.06 323.595,1177.06 325.756,1177.06 327.917,1177.06 330.078,1177.06 332.239,1177.06 334.4,1177.06 336.561,1177.06 338.722,1177.06 340.883,1177.06 343.044,1177.06 345.205,1177.06 347.366,1177.06 349.527,1177.06 351.688,1177.06 353.849,1177.06 356.01,1177.06 358.171,1177.06 360.332,1177.06 362.493,1177.06 364.653,1177.06 366.814,1177.06 368.975,1177.06 371.136,1177.06 373.297,1177.06 375.458,1177.06 377.619,1177.06 379.78,1177.06 381.941,1177.06 384.102,1177.06 386.263,1177.06 388.424,1177.06 390.585,1177.06 392.746,1177.06 394.907,1177.06 397.068,1177.06 399.229,1177.06 401.39,1177.06 403.551,1177.06 405.712,1177.06 407.873,1177.06 410.034,778.458 412.195,778.458 414.356,778.458 416.517,778.458 418.678,778.458 420.839,778.458 423,778.458 425.161,778.458 427.322,778.458 429.483,778.458 431.644,778.458 433.805,778.458 435.966,778.458 438.127,778.458 440.288,778.458 442.449,778.458 444.61,778.458 446.771,778.458 448.932,778.458 451.093,778.458 453.254,778.458 455.415,778.458 457.576,778.458 459.737,778.458 461.898,778.458 464.059,778.458 466.22,778.458 468.381,778.458 470.542,778.458 472.703,778.458 474.864,778.458 477.024,778.458 479.185,778.458 481.346,778.458 483.507,778.458 485.668,778.458 487.829,778.458 489.99,778.458 492.151,778.458 494.312,778.458 496.473,778.458 498.634,778.458 500.795,778.458 502.956,778.458 505.117,778.458 507.278,778.458 509.439,778.458 511.6,778.458 513.761,778.458 515.922,778.458 518.083,778.458 520.244,778.458 522.405,778.458 524.566,778.458 526.727,778.458 528.888,778.458 531.049,778.458 533.21,778.458 535.371,778.458 537.532,778.458 539.693,778.458 541.854,778.458 544.015,778.458 546.176,778.458 548.337,778.458 550.498,778.458 552.659,778.458 554.82,778.458 556.981,778.458 559.142,778.458 561.303,778.458 563.464,778.458 565.625,778.458 567.786,778.458 569.947,778.458 572.108,778.458 574.269,778.458 576.43,778.458 578.591,778.458 580.752,778.458 582.913,778.458 585.074,778.458 587.235,778.458 589.396,778.458 591.556,778.458 593.717,778.458 595.878,778.458 598.039,778.458 600.2,778.458 602.361,778.458 604.522,778.458 606.683,778.458 608.844,778.458 611.005,778.458 613.166,778.458 615.327,778.458 617.488,778.458 619.649,778.458 621.81,778.458 623.971,778.458 626.132,709.598 628.293,709.598 630.454,709.598 632.615,709.598 634.776,709.598 636.937,709.598 639.098,709.598 641.259,709.598 643.42,709.598 645.581,709.598 647.742,709.598 649.903,709.598 652.064,709.598 654.225,709.598 656.386,709.598 658.547,709.598 660.708,709.598 662.869,709.598 665.03,709.598 667.191,709.598 669.352,709.598 671.513,709.598 673.674,709.598 675.835,709.598 677.996,709.598 680.157,709.598 682.318,709.598 684.479,709.598 686.64,709.598 688.801,709.598 690.962,709.598 693.123,709.598 695.284,709.598 697.445,709.598 699.606,709.598 701.767,709.598 703.927,709.598 706.088,709.598 708.249,709.598 710.41,709.598 712.571,709.598 714.732,709.598 716.893,709.598 719.054,709.598 721.215,709.598 723.376,709.598 725.537,709.598 727.698,709.598 729.859,709.598 732.02,709.598 734.181,709.598 736.342,709.598 738.503,709.598 740.664,709.598 742.825,709.598 744.986,709.598 747.147,709.598 749.308,709.598 751.469,709.598 753.63,709.598 755.791,709.598 757.952,709.598 760.113,709.598 762.274,709.598 764.435,709.598 766.596,709.598 768.757,709.598 770.918,709.598 773.079,709.598 775.24,709.598 777.401,709.598 779.562,709.598 781.723,709.598 783.884,709.598 786.045,709.598 788.206,709.598 790.367,709.598 792.528,709.598 794.689,709.598 796.85,709.598 799.011,709.598 801.172,709.598 803.333,709.598 805.494,709.598 807.655,709.598 809.816,709.598 811.977,709.598 814.138,709.598 816.298,709.598 818.459,709.598 820.62,709.598 822.781,709.598 824.942,709.598 827.103,709.598 829.264,709.598 831.425,709.598 833.586,709.598 835.747,709.598 837.908,709.598 840.069,709.598 842.23,1090.94 844.391,1090.94 846.552,1090.94 848.713,1090.94 850.874,1090.94 853.035,1090.94 855.196,1090.94 857.357,1090.94 859.518,1090.94 861.679,1090.94 863.84,1090.94 866.001,1090.94 868.162,1090.94 870.323,1090.94 872.484,1090.94 874.645,1090.94 876.806,1090.94 878.967,1090.94 881.128,1090.94 883.289,1090.94 885.45,1090.94 887.611,1090.94 889.772,1090.94 891.933,1090.94 894.094,1090.94 896.255,1090.94 898.416,1090.94 900.577,1090.94 902.738,1090.94 904.899,1090.94 907.06,1090.94 909.221,1090.94 911.382,1090.94 913.543,1090.94 915.704,1090.94 917.865,1090.94 920.026,1090.94 922.187,1090.94 924.348,1090.94 926.509,1090.94 928.669,1090.94 930.83,1090.94 932.991,1090.94 935.152,1090.94 937.313,1090.94 939.474,1090.94 941.635,1090.94 943.796,1090.94 945.957,1090.94 948.118,1090.94 950.279,1090.94 952.44,1090.94 954.601,1090.94 956.762,1090.94 958.923,1090.94 961.084,1090.94 963.245,1090.94 965.406,1090.94 967.567,1090.94 969.728,1090.94 971.889,1090.94 974.05,1090.94 976.211,1090.94 978.372,1090.94 980.533,1090.94 982.694,1090.94 984.855,1090.94 987.016,1090.94 989.177,1090.94 991.338,1090.94 993.499,1090.94 995.66,1090.94 997.821,1090.94 999.982,1090.94 1002.14,1090.94 1004.3,1090.94 1006.46,1090.94 1008.63,1090.94 1010.79,1090.94 1012.95,1090.94 1015.11,1090.94 1017.27,1090.94 1019.43,1090.94 1021.59,1090.94 1023.75,1090.94 1025.91,1090.94 1028.07,1090.94 1030.24,1090.94 1032.4,1090.94 1034.56,1090.94 1036.72,1090.94 1038.88,1090.94 1041.04,1090.94 1043.2,1090.94 1045.36,1090.94 1047.52,1090.94 1049.68,1090.94 1051.85,1090.94 1054.01,1090.94 1056.17,1090.94 1058.33,603.244 1060.49,603.244 1062.65,603.244 1064.81,603.244 1066.97,603.244 1069.13,603.244 1071.29,603.244 1073.46,603.244 1075.62,603.244 1077.78,603.244 1079.94,603.244 1082.1,603.244 1084.26,603.244 1086.42,603.244 1088.58,603.244 1090.74,603.244 1092.9,603.244 1095.07,603.244 1097.23,603.244 1099.39,603.244 1101.55,603.244 1103.71,603.244 1105.87,603.244 1108.03,603.244 1110.19,603.244 1112.35,603.244 1114.51,603.244 1116.67,603.244 1118.84,603.244 1121,603.244 1123.16,603.244 1125.32,603.244 1127.48,603.244 1129.64,603.244 1131.8,603.244 1133.96,603.244 1136.12,603.244 1138.28,603.244 1140.45,603.244 1142.61,603.244 1144.77,603.244 1146.93,603.244 1149.09,603.244 1151.25,603.244 1153.41,603.244 1155.57,603.244 1157.73,603.244 1159.89,603.244 1162.06,603.244 1164.22,603.244 1166.38,603.244 1168.54,603.244 1170.7,603.244 1172.86,603.244 1175.02,603.244 1177.18,603.244 1179.34,603.244 1181.5,603.244 1183.67,603.244 1185.83,603.244 1187.99,603.244 1190.15,603.244 1192.31,603.244 1194.47,603.244 1196.63,603.244 1198.79,603.244 1200.95,603.244 1203.11,603.244 1205.28,603.244 1207.44,603.244 1209.6,603.244 1211.76,603.244 1213.92,603.244 1216.08,603.244 1218.24,603.244 1220.4,603.244 1222.56,603.244 1224.72,603.244 1226.88,603.244 1229.05,603.244 1231.21,603.244 1233.37,603.244 1235.53,603.244 1237.69,603.244 1239.85,603.244 1242.01,603.244 1244.17,603.244 1246.33,603.244 1248.49,603.244 1250.66,603.244 1252.82,603.244 1254.98,603.244 1257.14,603.244 1259.3,603.244 1261.46,603.244 1263.62,603.244 1265.78,603.244 1267.94,603.244 1270.1,603.244 1272.27,603.244 1274.43,86.1857 1276.59,86.1857 1278.75,86.1857 1280.91,86.1857 1283.07,86.1857 1285.23,86.1857 1287.39,86.1857 1289.55,86.1857 1291.71,86.1857 1293.88,86.1857 1296.04,86.1857 1298.2,86.1857 1300.36,86.1857 1302.52,86.1857 1304.68,86.1857 1306.84,86.1857 1309,86.1857 1311.16,86.1857 1313.32,86.1857 1315.49,86.1857 1317.65,86.1857 1319.81,86.1857 1321.97,86.1857 1324.13,86.1857 1326.29,86.1857 1328.45,86.1857 1330.61,86.1857 1332.77,86.1857 1334.93,86.1857 1337.09,86.1857 1339.26,86.1857 1341.42,86.1857 1343.58,86.1857 1345.74,86.1857 1347.9,86.1857 1350.06,86.1857 1352.22,86.1857 1354.38,86.1857 1356.54,86.1857 1358.7,86.1857 1360.87,86.1857 1363.03,86.1857 1365.19,86.1857 1367.35,86.1857 1369.51,86.1857 1371.67,86.1857 1373.83,86.1857 1375.99,86.1857 1378.15,86.1857 1380.31,86.1857 1382.48,86.1857 1384.64,86.1857 1386.8,86.1857 1388.96,86.1857 1391.12,86.1857 1393.28,86.1857 1395.44,86.1857 1397.6,86.1857 1399.76,86.1857 1401.92,86.1857 1404.09,86.1857 1406.25,86.1857 1408.41,86.1857 1410.57,86.1857 1412.73,86.1857 1414.89,86.1857 1417.05,86.1857 1419.21,86.1857 1421.37,86.1857 1423.53,86.1857 1425.7,86.1857 1427.86,86.1857 1430.02,86.1857 1432.18,86.1857 1434.34,86.1857 1436.5,86.1857 1438.66,86.1857 1440.82,86.1857 1442.98,86.1857 1445.14,86.1857 1447.3,86.1857 1449.47,86.1857 1451.63,86.1857 1453.79,86.1857 1455.95,86.1857 1458.11,86.1857 1460.27,86.1857 1462.43,86.1857 1464.59,86.1857 1466.75,86.1857 1468.91,86.1857 1471.08,86.1857 1473.24,86.1857 1475.4,86.1857 1477.56,86.1857 1479.72,86.1857 1481.88,86.1857 1484.04,86.1857 1486.2,86.1857 1488.36,86.1857 1490.52,758.961 1492.69,758.961 1494.85,758.961 1497.01,758.961 1499.17,758.961 1501.33,758.961 1503.49,758.961 1505.65,758.961 1507.81,758.961 1509.97,758.961 1512.13,758.961 1514.3,758.961 1516.46,758.961 1518.62,758.961 1520.78,758.961 1522.94,758.961 1525.1,758.961 1527.26,758.961 1529.42,758.961 1531.58,758.961 1533.74,758.961 1535.91,758.961 1538.07,758.961 1540.23,758.961 1542.39,758.961 1544.55,758.961 1546.71,758.961 1548.87,758.961 1551.03,758.961 1553.19,758.961 1555.35,758.961 1557.51,758.961 1559.68,758.961 1561.84,758.961 1564,758.961 1566.16,758.961 1568.32,758.961 1570.48,758.961 1572.64,758.961 1574.8,758.961 1576.96,758.961 1579.12,758.961 1581.29,758.961 1583.45,758.961 1585.61,758.961 1587.77,758.961 1589.93,758.961 1592.09,758.961 1594.25,758.961 1596.41,758.961 1598.57,758.961 1600.73,758.961 1602.9,758.961 1605.06,758.961 1607.22,758.961 1609.38,758.961 1611.54,758.961 1613.7,758.961 1615.86,758.961 1618.02,758.961 1620.18,758.961 1622.34,758.961 1624.51,758.961 1626.67,758.961 1628.83,758.961 1630.99,758.961 1633.15,758.961 1635.31,758.961 1637.47,758.961 1639.63,758.961 1641.79,758.961 1643.95,758.961 1646.12,758.961 1648.28,758.961 1650.44,758.961 1652.6,758.961 1654.76,758.961 1656.92,758.961 1659.08,758.961 1661.24,758.961 1663.4,758.961 1665.56,758.961 1667.72,758.961 1669.89,758.961 1672.05,758.961 1674.21,758.961 1676.37,758.961 1678.53,758.961 1680.69,758.961 1682.85,758.961 1685.01,758.961 1687.17,758.961 1689.33,758.961 1691.5,758.961 1693.66,758.961 1695.82,758.961 1697.98,758.961 1700.14,758.961 1702.3,758.961 1704.46,758.961 1706.62,1384.24 1708.78,1384.24 1710.94,1384.24 1713.11,1384.24 1715.27,1384.24 1717.43,1384.24 1719.59,1384.24 1721.75,1384.24 1723.91,1384.24 1726.07,1384.24 1728.23,1384.24 1730.39,1384.24 1732.55,1384.24 1734.72,1384.24 1736.88,1384.24 1739.04,1384.24 1741.2,1384.24 1743.36,1384.24 1745.52,1384.24 1747.68,1384.24 1749.84,1384.24 1752,1384.24 1754.16,1384.24 1756.33,1384.24 1758.49,1384.24 1760.65,1384.24 1762.81,1384.24 1764.97,1384.24 1767.13,1384.24 1769.29,1384.24 1771.45,1384.24 1773.61,1384.24 1775.77,1384.24 1777.93,1384.24 1780.1,1384.24 1782.26,1384.24 1784.42,1384.24 1786.58,1384.24 1788.74,1384.24 1790.9,1384.24 1793.06,1384.24 1795.22,1384.24 1797.38,1384.24 1799.54,1384.24 1801.71,1384.24 1803.87,1384.24 1806.03,1384.24 1808.19,1384.24 1810.35,1384.24 1812.51,1384.24 1814.67,1384.24 1816.83,1384.24 1818.99,1384.24 1821.15,1384.24 1823.32,1384.24 1825.48,1384.24 1827.64,1384.24 1829.8,1384.24 1831.96,1384.24 1834.12,1384.24 1836.28,1384.24 1838.44,1384.24 1840.6,1384.24 1842.76,1384.24 1844.93,1384.24 1847.09,1384.24 1849.25,1384.24 1851.41,1384.24 1853.57,1384.24 1855.73,1384.24 1857.89,1384.24 1860.05,1384.24 1862.21,1384.24 1864.37,1384.24 1866.54,1384.24 1868.7,1384.24 1870.86,1384.24 1873.02,1384.24 1875.18,1384.24 1877.34,1384.24 1879.5,1384.24 1881.66,1384.24 1883.82,1384.24 1885.98,1384.24 1888.15,1384.24 1890.31,1384.24 1892.47,1384.24 1894.63,1384.24 1896.79,1384.24 1898.95,1384.24 1901.11,1384.24 1903.27,1384.24 1905.43,1384.24 1907.59,1384.24 1909.75,1384.24 1911.92,1384.24 1914.08,1384.24 1916.24,1384.24 1918.4,1384.24 1920.56,1384.24 1922.72,405.016 1924.88,405.016 1927.04,405.016 1929.2,405.016 1931.36,405.016 1933.53,405.016 1935.69,405.016 1937.85,405.016 1940.01,405.016 1942.17,405.016 1944.33,405.016 1946.49,405.016 1948.65,405.016 1950.81,405.016 1952.97,405.016 1955.14,405.016 1957.3,405.016 1959.46,405.016 1961.62,405.016 1963.78,405.016 1965.94,405.016 1968.1,405.016 1970.26,405.016 1972.42,405.016 1974.58,405.016 1976.75,405.016 1978.91,405.016 1981.07,405.016 1983.23,405.016 1985.39,405.016 1987.55,405.016 1989.71,405.016 1991.87,405.016 1994.03,405.016 1996.19,405.016 1998.36,405.016 2000.52,405.016 2002.68,405.016 2004.84,405.016 2007,405.016 2009.16,405.016 2011.32,405.016 2013.48,405.016 2015.64,405.016 2017.8,405.016 2019.96,405.016 2022.13,405.016 2024.29,405.016 2026.45,405.016 2028.61,405.016 2030.77,405.016 2032.93,405.016 2035.09,405.016 2037.25,405.016 2039.41,405.016 2041.57,405.016 2043.74,405.016 2045.9,405.016 2048.06,405.016 2050.22,405.016 2052.38,405.016 2054.54,405.016 2056.7,405.016 2058.86,405.016 2061.02,405.016 2063.18,405.016 2065.35,405.016 2067.51,405.016 2069.67,405.016 2071.83,405.016 2073.99,405.016 2076.15,405.016 2078.31,405.016 2080.47,405.016 2082.63,405.016 2084.79,405.016 2086.96,405.016 2089.12,405.016 2091.28,405.016 2093.44,405.016 2095.6,405.016 2097.76,405.016 2099.92,405.016 2102.08,405.016 2104.24,405.016 2106.4,405.016 2108.57,405.016 2110.73,405.016 2112.89,405.016 2115.05,405.016 2117.21,405.016 2119.37,405.016 2121.53,405.016 2123.69,405.016 2125.85,405.016 2128.01,405.016 2130.17,405.016 2132.34,405.016 2134.5,405.016 2136.66,405.016 2138.82,909.544 2140.98,909.544 2143.14,909.544 2145.3,909.544 2147.46,909.544 2149.62,909.544 2151.78,909.544 2153.95,909.544 2156.11,909.544 2158.27,909.544 2160.43,909.544 2162.59,909.544 2164.75,909.544 2166.91,909.544 2169.07,909.544 2171.23,909.544 2173.39,909.544 2175.56,909.544 2177.72,909.544 2179.88,909.544 2182.04,909.544 2184.2,909.544 2186.36,909.544 2188.52,909.544 2190.68,909.544 2192.84,909.544 2195,909.544 2197.17,909.544 2199.33,909.544 2201.49,909.544 2203.65,909.544 2205.81,909.544 2207.97,909.544 2210.13,909.544 2212.29,909.544 2214.45,909.544 2216.61,909.544 2218.78,909.544 2220.94,909.544 2223.1,909.544 2225.26,909.544 2227.42,909.544 2229.58,909.544 2231.74,909.544 2233.9,909.544 2236.06,909.544 2238.22,909.544 2240.38,909.544 2242.55,909.544 2244.71,909.544 2246.87,909.544 2249.03,909.544 2251.19,909.544 2253.35,909.544 2255.51,909.544 2257.67,909.544 2259.83,909.544 2261.99,909.544 2264.16,909.544 2266.32,909.544 2268.48,909.544 2270.64,909.544 2272.8,909.544 2274.96,909.544 2277.12,909.544 2279.28,909.544 2281.44,909.544 2283.6,909.544 2285.77,909.544 2287.93,909.544 2290.09,909.544 2292.25,909.544 2294.41,909.544 2296.57,909.544 2298.73,909.544 2300.89,909.544 2303.05,909.544 2305.21,909.544 2307.38,909.544 2309.54,909.544 2311.7,909.544 2313.86,909.544 2316.02,909.544 2318.18,909.544 2320.34,909.544 2322.5,909.544 2324.66,909.544 2326.82,909.544 2328.99,909.544 2331.15,909.544 2333.31,909.544 2335.47,909.544 2337.63,909.544 2339.79,909.544 2341.95,909.544 2344.11,909.544 2346.27,909.544 2348.43,909.544 2350.59,909.544 2352.76,909.544 "/>
<path clip-path="url(#clip260)" d="M2039.77 248.629 L2280.8 248.629 L2280.8 93.1086 L2039.77 93.1086  Z" fill="#ffffff" fill-rule="evenodd" fill-opacity="1"/>
<polyline clip-path="url(#clip260)" style="stroke:#000000; stroke-linecap:round; stroke-linejoin:round; stroke-width:4; stroke-opacity:1; fill:none" points="2039.77,248.629 2280.8,248.629 2280.8,93.1086 2039.77,93.1086 2039.77,248.629 "/>
<polyline clip-path="url(#clip260)" style="stroke:#009af9; stroke-linecap:round; stroke-linejoin:round; stroke-width:4; stroke-opacity:1; fill:none" points="2063.76,144.949 2207.68,144.949 "/>
<path clip-path="url(#clip260)" d="M2256.32 136.303 L2246.95 148.919 L2256.81 162.229 L2251.79 162.229 L2244.24 152.043 L2236.69 162.229 L2231.67 162.229 L2241.74 148.664 L2232.53 136.303 L2237.55 136.303 L2244.42 145.539 L2251.3 136.303 L2256.32 136.303 Z" fill="#000000" fill-rule="nonzero" fill-opacity="1" /><polyline clip-path="url(#clip260)" style="stroke:#e26f46; stroke-linecap:round; stroke-linejoin:round; stroke-width:4; stroke-opacity:1; fill:none" points="2063.76,196.789 2207.68,196.789 "/>
<path clip-path="url(#clip260)" d="M2248.17 178.05 L2248.17 181.592 L2244.1 181.592 Q2241.81 181.592 2240.91 182.518 Q2240.03 183.444 2240.03 185.851 L2240.03 188.143 L2247.04 188.143 L2247.04 191.453 L2240.03 191.453 L2240.03 214.069 L2235.74 214.069 L2235.74 191.453 L2231.67 191.453 L2231.67 188.143 L2235.74 188.143 L2235.74 186.337 Q2235.74 182.009 2237.76 180.041 Q2239.77 178.05 2244.15 178.05 L2248.17 178.05 Z" fill="#000000" fill-rule="nonzero" fill-opacity="1" /></svg>
