<?xml version="1.0" encoding="utf-8"?>
<svg xmlns="http://www.w3.org/2000/svg" xmlns:xlink="http://www.w3.org/1999/xlink" width="600" height="400" viewBox="0 0 2400 1600">
<defs>
  <clipPath id="clip750">
    <rect x="0" y="0" width="2400" height="1600"/>
  </clipPath>
</defs>
<path clip-path="url(#clip750)" d="M0 1600 L2400 1600 L2400 0 L0 0  Z" fill="#ffffff" fill-rule="evenodd" fill-opacity="1"/>
<defs>
  <clipPath id="clip751">
    <rect x="480" y="0" width="1681" height="1600"/>
  </clipPath>
</defs>
<path clip-path="url(#clip750)" d="M193.936 1423.18 L2352.76 1423.18 L2352.76 47.2441 L193.936 47.2441  Z" fill="#ffffff" fill-rule="evenodd" fill-opacity="1"/>
<defs>
  <clipPath id="clip752">
    <rect x="193" y="47" width="2160" height="1377"/>
  </clipPath>
</defs>
<polyline clip-path="url(#clip752)" style="stroke:#000000; stroke-linecap:round; stroke-linejoin:round; stroke-width:2; stroke-opacity:0.1; fill:none" points="193.936,1423.18 193.936,47.2441 "/>
<polyline clip-path="url(#clip752)" style="stroke:#000000; stroke-linecap:round; stroke-linejoin:round; stroke-width:2; stroke-opacity:0.1; fill:none" points="625.7,1423.18 625.7,47.2441 "/>
<polyline clip-path="url(#clip752)" style="stroke:#000000; stroke-linecap:round; stroke-linejoin:round; stroke-width:2; stroke-opacity:0.1; fill:none" points="1057.46,1423.18 1057.46,47.2441 "/>
<polyline clip-path="url(#clip752)" style="stroke:#000000; stroke-linecap:round; stroke-linejoin:round; stroke-width:2; stroke-opacity:0.1; fill:none" points="1489.23,1423.18 1489.23,47.2441 "/>
<polyline clip-path="url(#clip752)" style="stroke:#000000; stroke-linecap:round; stroke-linejoin:round; stroke-width:2; stroke-opacity:0.1; fill:none" points="1920.99,1423.18 1920.99,47.2441 "/>
<polyline clip-path="url(#clip752)" style="stroke:#000000; stroke-linecap:round; stroke-linejoin:round; stroke-width:2; stroke-opacity:0.1; fill:none" points="2352.76,1423.18 2352.76,47.2441 "/>
<polyline clip-path="url(#clip750)" style="stroke:#000000; stroke-linecap:round; stroke-linejoin:round; stroke-width:4; stroke-opacity:1; fill:none" points="193.936,1423.18 2352.76,1423.18 "/>
<polyline clip-path="url(#clip750)" style="stroke:#000000; stroke-linecap:round; stroke-linejoin:round; stroke-width:4; stroke-opacity:1; fill:none" points="193.936,1423.18 193.936,1404.28 "/>
<polyline clip-path="url(#clip750)" style="stroke:#000000; stroke-linecap:round; stroke-linejoin:round; stroke-width:4; stroke-opacity:1; fill:none" points="625.7,1423.18 625.7,1404.28 "/>
<polyline clip-path="url(#clip750)" style="stroke:#000000; stroke-linecap:round; stroke-linejoin:round; stroke-width:4; stroke-opacity:1; fill:none" points="1057.46,1423.18 1057.46,1404.28 "/>
<polyline clip-path="url(#clip750)" style="stroke:#000000; stroke-linecap:round; stroke-linejoin:round; stroke-width:4; stroke-opacity:1; fill:none" points="1489.23,1423.18 1489.23,1404.28 "/>
<polyline clip-path="url(#clip750)" style="stroke:#000000; stroke-linecap:round; stroke-linejoin:round; stroke-width:4; stroke-opacity:1; fill:none" points="1920.99,1423.18 1920.99,1404.28 "/>
<polyline clip-path="url(#clip750)" style="stroke:#000000; stroke-linecap:round; stroke-linejoin:round; stroke-width:4; stroke-opacity:1; fill:none" points="2352.76,1423.18 2352.76,1404.28 "/>
<path clip-path="url(#clip750)" d="M193.936 1454.1 Q190.325 1454.1 188.496 1457.66 Q186.691 1461.2 186.691 1468.33 Q186.691 1475.44 188.496 1479.01 Q190.325 1482.55 193.936 1482.55 Q197.57 1482.55 199.376 1479.01 Q201.204 1475.44 201.204 1468.33 Q201.204 1461.2 199.376 1457.66 Q197.57 1454.1 193.936 1454.1 M193.936 1450.39 Q199.746 1450.39 202.802 1455 Q205.88 1459.58 205.88 1468.33 Q205.88 1477.06 202.802 1481.67 Q199.746 1486.25 193.936 1486.25 Q188.126 1486.25 185.047 1481.67 Q181.992 1477.06 181.992 1468.33 Q181.992 1459.58 185.047 1455 Q188.126 1450.39 193.936 1450.39 Z" fill="#000000" fill-rule="nonzero" fill-opacity="1" /><path clip-path="url(#clip750)" d="M620.353 1481.64 L636.672 1481.64 L636.672 1485.58 L614.728 1485.58 L614.728 1481.64 Q617.39 1478.89 621.973 1474.26 Q626.58 1469.61 627.76 1468.27 Q630.006 1465.74 630.885 1464.01 Q631.788 1462.25 631.788 1460.56 Q631.788 1457.8 629.843 1456.07 Q627.922 1454.33 624.82 1454.33 Q622.621 1454.33 620.168 1455.09 Q617.737 1455.86 614.959 1457.41 L614.959 1452.69 Q617.783 1451.55 620.237 1450.97 Q622.691 1450.39 624.728 1450.39 Q630.098 1450.39 633.293 1453.08 Q636.487 1455.77 636.487 1460.26 Q636.487 1462.39 635.677 1464.31 Q634.89 1466.2 632.783 1468.8 Q632.205 1469.47 629.103 1472.69 Q626.001 1475.88 620.353 1481.64 Z" fill="#000000" fill-rule="nonzero" fill-opacity="1" /><path clip-path="url(#clip750)" d="M1060.47 1455.09 L1048.67 1473.54 L1060.47 1473.54 L1060.47 1455.09 M1059.25 1451.02 L1065.13 1451.02 L1065.13 1473.54 L1070.06 1473.54 L1070.06 1477.43 L1065.13 1477.43 L1065.13 1485.58 L1060.47 1485.58 L1060.47 1477.43 L1044.87 1477.43 L1044.87 1472.92 L1059.25 1451.02 Z" fill="#000000" fill-rule="nonzero" fill-opacity="1" /><path clip-path="url(#clip750)" d="M1489.63 1466.44 Q1486.48 1466.44 1484.63 1468.59 Q1482.8 1470.74 1482.8 1474.49 Q1482.8 1478.22 1484.63 1480.39 Q1486.48 1482.55 1489.63 1482.55 Q1492.78 1482.55 1494.61 1480.39 Q1496.46 1478.22 1496.46 1474.49 Q1496.46 1470.74 1494.61 1468.59 Q1492.78 1466.44 1489.63 1466.44 M1498.92 1451.78 L1498.92 1456.04 Q1497.16 1455.21 1495.35 1454.77 Q1493.57 1454.33 1491.81 1454.33 Q1487.18 1454.33 1484.73 1457.45 Q1482.3 1460.58 1481.95 1466.9 Q1483.31 1464.89 1485.37 1463.82 Q1487.43 1462.73 1489.91 1462.73 Q1495.12 1462.73 1498.13 1465.9 Q1501.16 1469.05 1501.16 1474.49 Q1501.16 1479.82 1498.01 1483.03 Q1494.86 1486.25 1489.63 1486.25 Q1483.64 1486.25 1480.47 1481.67 Q1477.3 1477.06 1477.3 1468.33 Q1477.3 1460.14 1481.18 1455.28 Q1485.07 1450.39 1491.62 1450.39 Q1493.38 1450.39 1495.17 1450.74 Q1496.97 1451.09 1498.92 1451.78 Z" fill="#000000" fill-rule="nonzero" fill-opacity="1" /><path clip-path="url(#clip750)" d="M1920.99 1469.17 Q1917.66 1469.17 1915.74 1470.95 Q1913.84 1472.73 1913.84 1475.86 Q1913.84 1478.98 1915.74 1480.77 Q1917.66 1482.55 1920.99 1482.55 Q1924.33 1482.55 1926.25 1480.77 Q1928.17 1478.96 1928.17 1475.86 Q1928.17 1472.73 1926.25 1470.95 Q1924.35 1469.17 1920.99 1469.17 M1916.32 1467.18 Q1913.31 1466.44 1911.62 1464.38 Q1909.95 1462.32 1909.95 1459.35 Q1909.95 1455.21 1912.89 1452.8 Q1915.85 1450.39 1920.99 1450.39 Q1926.15 1450.39 1929.09 1452.8 Q1932.03 1455.21 1932.03 1459.35 Q1932.03 1462.32 1930.34 1464.38 Q1928.68 1466.44 1925.69 1467.18 Q1929.07 1467.96 1930.95 1470.26 Q1932.84 1472.55 1932.84 1475.86 Q1932.84 1480.88 1929.77 1483.57 Q1926.71 1486.25 1920.99 1486.25 Q1915.27 1486.25 1912.2 1483.57 Q1909.14 1480.88 1909.14 1475.86 Q1909.14 1472.55 1911.04 1470.26 Q1912.94 1467.96 1916.32 1467.18 M1914.6 1459.79 Q1914.6 1462.48 1916.27 1463.98 Q1917.96 1465.49 1920.99 1465.49 Q1924 1465.49 1925.69 1463.98 Q1927.4 1462.48 1927.4 1459.79 Q1927.4 1457.11 1925.69 1455.6 Q1924 1454.1 1920.99 1454.1 Q1917.96 1454.1 1916.27 1455.6 Q1914.6 1457.11 1914.6 1459.79 Z" fill="#000000" fill-rule="nonzero" fill-opacity="1" /><path clip-path="url(#clip750)" d="M2327.44 1481.64 L2335.08 1481.64 L2335.08 1455.28 L2326.77 1456.95 L2326.77 1452.69 L2335.04 1451.02 L2339.71 1451.02 L2339.71 1481.64 L2347.35 1481.64 L2347.35 1485.58 L2327.44 1485.58 L2327.44 1481.64 Z" fill="#000000" fill-rule="nonzero" fill-opacity="1" /><path clip-path="url(#clip750)" d="M2366.8 1454.1 Q2363.18 1454.1 2361.36 1457.66 Q2359.55 1461.2 2359.55 1468.33 Q2359.55 1475.44 2361.36 1479.01 Q2363.18 1482.55 2366.8 1482.55 Q2370.43 1482.55 2372.23 1479.01 Q2374.06 1475.44 2374.06 1468.33 Q2374.06 1461.2 2372.23 1457.66 Q2370.43 1454.1 2366.8 1454.1 M2366.8 1450.39 Q2372.61 1450.39 2375.66 1455 Q2378.74 1459.58 2378.74 1468.33 Q2378.74 1477.06 2375.66 1481.67 Q2372.61 1486.25 2366.8 1486.25 Q2360.99 1486.25 2357.91 1481.67 Q2354.85 1477.06 2354.85 1468.33 Q2354.85 1459.58 2357.91 1455 Q2360.99 1450.39 2366.8 1450.39 Z" fill="#000000" fill-rule="nonzero" fill-opacity="1" /><path clip-path="url(#clip750)" d="M1272.41 1522.27 L1272.41 1532.4 L1284.47 1532.4 L1284.47 1536.95 L1272.41 1536.95 L1272.41 1556.3 Q1272.41 1560.66 1273.58 1561.9 Q1274.79 1563.14 1278.45 1563.14 L1284.47 1563.14 L1284.47 1568.04 L1278.45 1568.04 Q1271.67 1568.04 1269.1 1565.53 Q1266.52 1562.98 1266.52 1556.3 L1266.52 1536.95 L1262.22 1536.95 L1262.22 1532.4 L1266.52 1532.4 L1266.52 1522.27 L1272.41 1522.27 Z" fill="#000000" fill-rule="nonzero" fill-opacity="1" /><polyline clip-path="url(#clip752)" style="stroke:#000000; stroke-linecap:round; stroke-linejoin:round; stroke-width:2; stroke-opacity:0.1; fill:none" points="193.936,1380.44 2352.76,1380.44 "/>
<polyline clip-path="url(#clip752)" style="stroke:#000000; stroke-linecap:round; stroke-linejoin:round; stroke-width:2; stroke-opacity:0.1; fill:none" points="193.936,1158.16 2352.76,1158.16 "/>
<polyline clip-path="url(#clip752)" style="stroke:#000000; stroke-linecap:round; stroke-linejoin:round; stroke-width:2; stroke-opacity:0.1; fill:none" points="193.936,935.891 2352.76,935.891 "/>
<polyline clip-path="url(#clip752)" style="stroke:#000000; stroke-linecap:round; stroke-linejoin:round; stroke-width:2; stroke-opacity:0.1; fill:none" points="193.936,713.619 2352.76,713.619 "/>
<polyline clip-path="url(#clip752)" style="stroke:#000000; stroke-linecap:round; stroke-linejoin:round; stroke-width:2; stroke-opacity:0.1; fill:none" points="193.936,491.347 2352.76,491.347 "/>
<polyline clip-path="url(#clip752)" style="stroke:#000000; stroke-linecap:round; stroke-linejoin:round; stroke-width:2; stroke-opacity:0.1; fill:none" points="193.936,269.074 2352.76,269.074 "/>
<polyline clip-path="url(#clip750)" style="stroke:#000000; stroke-linecap:round; stroke-linejoin:round; stroke-width:4; stroke-opacity:1; fill:none" points="193.936,1423.18 193.936,47.2441 "/>
<polyline clip-path="url(#clip750)" style="stroke:#000000; stroke-linecap:round; stroke-linejoin:round; stroke-width:4; stroke-opacity:1; fill:none" points="193.936,1380.44 212.834,1380.44 "/>
<polyline clip-path="url(#clip750)" style="stroke:#000000; stroke-linecap:round; stroke-linejoin:round; stroke-width:4; stroke-opacity:1; fill:none" points="193.936,1158.16 212.834,1158.16 "/>
<polyline clip-path="url(#clip750)" style="stroke:#000000; stroke-linecap:round; stroke-linejoin:round; stroke-width:4; stroke-opacity:1; fill:none" points="193.936,935.891 212.834,935.891 "/>
<polyline clip-path="url(#clip750)" style="stroke:#000000; stroke-linecap:round; stroke-linejoin:round; stroke-width:4; stroke-opacity:1; fill:none" points="193.936,713.619 212.834,713.619 "/>
<polyline clip-path="url(#clip750)" style="stroke:#000000; stroke-linecap:round; stroke-linejoin:round; stroke-width:4; stroke-opacity:1; fill:none" points="193.936,491.347 212.834,491.347 "/>
<polyline clip-path="url(#clip750)" style="stroke:#000000; stroke-linecap:round; stroke-linejoin:round; stroke-width:4; stroke-opacity:1; fill:none" points="193.936,269.074 212.834,269.074 "/>
<path clip-path="url(#clip750)" d="M51.9875 1380.89 L81.6633 1380.89 L81.6633 1384.82 L51.9875 1384.82 L51.9875 1380.89 Z" fill="#000000" fill-rule="nonzero" fill-opacity="1" /><path clip-path="url(#clip750)" d="M92.566 1393.78 L100.205 1393.78 L100.205 1367.41 L91.8947 1369.08 L91.8947 1364.82 L100.159 1363.16 L104.834 1363.16 L104.834 1393.78 L112.473 1393.78 L112.473 1397.72 L92.566 1397.72 L92.566 1393.78 Z" fill="#000000" fill-rule="nonzero" fill-opacity="1" /><path clip-path="url(#clip750)" d="M121.918 1391.84 L126.802 1391.84 L126.802 1397.72 L121.918 1397.72 L121.918 1391.84 Z" fill="#000000" fill-rule="nonzero" fill-opacity="1" /><path clip-path="url(#clip750)" d="M137.033 1363.16 L155.39 1363.16 L155.39 1367.09 L141.316 1367.09 L141.316 1375.56 Q142.334 1375.22 143.353 1375.05 Q144.371 1374.87 145.39 1374.87 Q151.177 1374.87 154.556 1378.04 Q157.936 1381.21 157.936 1386.63 Q157.936 1392.21 154.464 1395.31 Q150.992 1398.39 144.672 1398.39 Q142.496 1398.39 140.228 1398.02 Q137.982 1397.65 135.575 1396.91 L135.575 1392.21 Q137.658 1393.34 139.881 1393.9 Q142.103 1394.45 144.58 1394.45 Q148.584 1394.45 150.922 1392.35 Q153.26 1390.24 153.26 1386.63 Q153.26 1383.02 150.922 1380.91 Q148.584 1378.8 144.58 1378.8 Q142.705 1378.8 140.83 1379.22 Q138.978 1379.64 137.033 1380.52 L137.033 1363.16 Z" fill="#000000" fill-rule="nonzero" fill-opacity="1" /><path clip-path="url(#clip750)" d="M50.9921 1158.61 L80.6679 1158.61 L80.6679 1162.55 L50.9921 1162.55 L50.9921 1158.61 Z" fill="#000000" fill-rule="nonzero" fill-opacity="1" /><path clip-path="url(#clip750)" d="M91.5706 1171.51 L99.2095 1171.51 L99.2095 1145.14 L90.8993 1146.81 L90.8993 1142.55 L99.1632 1140.88 L103.839 1140.88 L103.839 1171.51 L111.478 1171.51 L111.478 1175.44 L91.5706 1175.44 L91.5706 1171.51 Z" fill="#000000" fill-rule="nonzero" fill-opacity="1" /><path clip-path="url(#clip750)" d="M120.922 1169.56 L125.807 1169.56 L125.807 1175.44 L120.922 1175.44 L120.922 1169.56 Z" fill="#000000" fill-rule="nonzero" fill-opacity="1" /><path clip-path="url(#clip750)" d="M145.992 1143.96 Q142.381 1143.96 140.552 1147.53 Q138.746 1151.07 138.746 1158.2 Q138.746 1165.3 140.552 1168.87 Q142.381 1172.41 145.992 1172.41 Q149.626 1172.41 151.431 1168.87 Q153.26 1165.3 153.26 1158.2 Q153.26 1151.07 151.431 1147.53 Q149.626 1143.96 145.992 1143.96 M145.992 1140.26 Q151.802 1140.26 154.857 1144.86 Q157.936 1149.45 157.936 1158.2 Q157.936 1166.92 154.857 1171.53 Q151.802 1176.11 145.992 1176.11 Q140.181 1176.11 137.103 1171.53 Q134.047 1166.92 134.047 1158.2 Q134.047 1149.45 137.103 1144.86 Q140.181 1140.26 145.992 1140.26 Z" fill="#000000" fill-rule="nonzero" fill-opacity="1" /><path clip-path="url(#clip750)" d="M51.9875 936.343 L81.6633 936.343 L81.6633 940.278 L51.9875 940.278 L51.9875 936.343 Z" fill="#000000" fill-rule="nonzero" fill-opacity="1" /><path clip-path="url(#clip750)" d="M101.756 921.69 Q98.1447 921.69 96.316 925.255 Q94.5104 928.796 94.5104 935.926 Q94.5104 943.032 96.316 946.597 Q98.1447 950.139 101.756 950.139 Q105.39 950.139 107.196 946.597 Q109.024 943.032 109.024 935.926 Q109.024 928.796 107.196 925.255 Q105.39 921.69 101.756 921.69 M101.756 917.986 Q107.566 917.986 110.621 922.593 Q113.7 927.176 113.7 935.926 Q113.7 944.653 110.621 949.259 Q107.566 953.842 101.756 953.842 Q95.9456 953.842 92.8669 949.259 Q89.8114 944.653 89.8114 935.926 Q89.8114 927.176 92.8669 922.593 Q95.9456 917.986 101.756 917.986 Z" fill="#000000" fill-rule="nonzero" fill-opacity="1" /><path clip-path="url(#clip750)" d="M121.918 947.292 L126.802 947.292 L126.802 953.171 L121.918 953.171 L121.918 947.292 Z" fill="#000000" fill-rule="nonzero" fill-opacity="1" /><path clip-path="url(#clip750)" d="M137.033 918.611 L155.39 918.611 L155.39 922.546 L141.316 922.546 L141.316 931.018 Q142.334 930.671 143.353 930.509 Q144.371 930.324 145.39 930.324 Q151.177 930.324 154.556 933.495 Q157.936 936.667 157.936 942.083 Q157.936 947.662 154.464 950.764 Q150.992 953.842 144.672 953.842 Q142.496 953.842 140.228 953.472 Q137.982 953.102 135.575 952.361 L135.575 947.662 Q137.658 948.796 139.881 949.352 Q142.103 949.907 144.58 949.907 Q148.584 949.907 150.922 947.801 Q153.26 945.694 153.26 942.083 Q153.26 938.472 150.922 936.366 Q148.584 934.259 144.58 934.259 Q142.705 934.259 140.83 934.676 Q138.978 935.093 137.033 935.972 L137.033 918.611 Z" fill="#000000" fill-rule="nonzero" fill-opacity="1" /><path clip-path="url(#clip750)" d="M100.76 699.418 Q97.1493 699.418 95.3206 702.982 Q93.515 706.524 93.515 713.654 Q93.515 720.76 95.3206 724.325 Q97.1493 727.866 100.76 727.866 Q104.395 727.866 106.2 724.325 Q108.029 720.76 108.029 713.654 Q108.029 706.524 106.2 702.982 Q104.395 699.418 100.76 699.418 M100.76 695.714 Q106.571 695.714 109.626 700.32 Q112.705 704.904 112.705 713.654 Q112.705 722.38 109.626 726.987 Q106.571 731.57 100.76 731.57 Q94.9502 731.57 91.8715 726.987 Q88.816 722.38 88.816 713.654 Q88.816 704.904 91.8715 700.32 Q94.9502 695.714 100.76 695.714 Z" fill="#000000" fill-rule="nonzero" fill-opacity="1" /><path clip-path="url(#clip750)" d="M120.922 725.019 L125.807 725.019 L125.807 730.899 L120.922 730.899 L120.922 725.019 Z" fill="#000000" fill-rule="nonzero" fill-opacity="1" /><path clip-path="url(#clip750)" d="M145.992 699.418 Q142.381 699.418 140.552 702.982 Q138.746 706.524 138.746 713.654 Q138.746 720.76 140.552 724.325 Q142.381 727.866 145.992 727.866 Q149.626 727.866 151.431 724.325 Q153.26 720.76 153.26 713.654 Q153.26 706.524 151.431 702.982 Q149.626 699.418 145.992 699.418 M145.992 695.714 Q151.802 695.714 154.857 700.32 Q157.936 704.904 157.936 713.654 Q157.936 722.38 154.857 726.987 Q151.802 731.57 145.992 731.57 Q140.181 731.57 137.103 726.987 Q134.047 722.38 134.047 713.654 Q134.047 704.904 137.103 700.32 Q140.181 695.714 145.992 695.714 Z" fill="#000000" fill-rule="nonzero" fill-opacity="1" /><path clip-path="url(#clip750)" d="M101.756 477.145 Q98.1447 477.145 96.316 480.71 Q94.5104 484.252 94.5104 491.381 Q94.5104 498.488 96.316 502.053 Q98.1447 505.594 101.756 505.594 Q105.39 505.594 107.196 502.053 Q109.024 498.488 109.024 491.381 Q109.024 484.252 107.196 480.71 Q105.39 477.145 101.756 477.145 M101.756 473.442 Q107.566 473.442 110.621 478.048 Q113.7 482.631 113.7 491.381 Q113.7 500.108 110.621 504.715 Q107.566 509.298 101.756 509.298 Q95.9456 509.298 92.8669 504.715 Q89.8114 500.108 89.8114 491.381 Q89.8114 482.631 92.8669 478.048 Q95.9456 473.442 101.756 473.442 Z" fill="#000000" fill-rule="nonzero" fill-opacity="1" /><path clip-path="url(#clip750)" d="M121.918 502.747 L126.802 502.747 L126.802 508.627 L121.918 508.627 L121.918 502.747 Z" fill="#000000" fill-rule="nonzero" fill-opacity="1" /><path clip-path="url(#clip750)" d="M137.033 474.067 L155.39 474.067 L155.39 478.002 L141.316 478.002 L141.316 486.474 Q142.334 486.127 143.353 485.965 Q144.371 485.779 145.39 485.779 Q151.177 485.779 154.556 488.951 Q157.936 492.122 157.936 497.539 Q157.936 503.117 154.464 506.219 Q150.992 509.298 144.672 509.298 Q142.496 509.298 140.228 508.927 Q137.982 508.557 135.575 507.816 L135.575 503.117 Q137.658 504.252 139.881 504.807 Q142.103 505.363 144.58 505.363 Q148.584 505.363 150.922 503.256 Q153.26 501.15 153.26 497.539 Q153.26 493.928 150.922 491.821 Q148.584 489.715 144.58 489.715 Q142.705 489.715 140.83 490.131 Q138.978 490.548 137.033 491.428 L137.033 474.067 Z" fill="#000000" fill-rule="nonzero" fill-opacity="1" /><path clip-path="url(#clip750)" d="M91.5706 282.419 L99.2095 282.419 L99.2095 256.053 L90.8993 257.72 L90.8993 253.461 L99.1632 251.794 L103.839 251.794 L103.839 282.419 L111.478 282.419 L111.478 286.354 L91.5706 286.354 L91.5706 282.419 Z" fill="#000000" fill-rule="nonzero" fill-opacity="1" /><path clip-path="url(#clip750)" d="M120.922 280.475 L125.807 280.475 L125.807 286.354 L120.922 286.354 L120.922 280.475 Z" fill="#000000" fill-rule="nonzero" fill-opacity="1" /><path clip-path="url(#clip750)" d="M145.992 254.873 Q142.381 254.873 140.552 258.438 Q138.746 261.979 138.746 269.109 Q138.746 276.215 140.552 279.78 Q142.381 283.322 145.992 283.322 Q149.626 283.322 151.431 279.78 Q153.26 276.215 153.26 269.109 Q153.26 261.979 151.431 258.438 Q149.626 254.873 145.992 254.873 M145.992 251.169 Q151.802 251.169 154.857 255.776 Q157.936 260.359 157.936 269.109 Q157.936 277.836 154.857 282.442 Q151.802 287.026 145.992 287.026 Q140.181 287.026 137.103 282.442 Q134.047 277.836 134.047 269.109 Q134.047 260.359 137.103 255.776 Q140.181 251.169 145.992 251.169 Z" fill="#000000" fill-rule="nonzero" fill-opacity="1" /><polyline clip-path="url(#clip752)" style="stroke:#009af9; stroke-linecap:round; stroke-linejoin:round; stroke-width:4; stroke-opacity:1; fill:none" points="193.936,713.619 196.097,709.851 198.258,706.153 200.419,702.55 202.58,698.994 204.741,695.441 206.902,691.849 209.063,688.251 211.224,684.867 213.385,681.575 215.546,678.358 217.707,675.197 219.868,672.073 222.029,668.968 224.19,665.864 226.351,662.741 228.512,659.582 230.673,656.368 232.834,653.08 234.995,649.914 237.156,647.038 239.317,644.244 241.478,641.521 243.639,638.858 245.8,636.245 247.961,633.671 250.122,631.125 252.282,628.597 254.443,626.075 256.604,623.55 258.765,621.01 260.926,618.444 263.087,615.843 265.248,613.195 267.409,610.489 269.57,607.715 271.731,605.106 273.892,602.813 276.053,600.587 278.214,598.421 280.375,596.308 282.536,594.242 284.697,592.216 286.858,590.225 289.019,588.261 291.18,586.318 293.341,584.39 295.502,582.47 297.663,580.551 299.824,578.628 301.985,576.694 304.146,574.741 306.307,572.765 308.468,570.758 310.629,568.713 312.79,566.625 314.951,564.487 317.112,562.292 319.273,560.345 321.434,558.638 323.595,556.981 325.756,555.369 327.917,553.799 330.078,552.267 332.239,550.77 334.4,549.303 336.561,547.864 338.722,546.448 340.883,545.052 343.044,543.672 345.205,542.304 347.366,540.945 349.527,539.591 351.688,538.239 353.849,536.885 356.01,535.524 358.171,534.154 360.332,532.77 362.493,531.37 364.653,529.949 366.814,528.504 368.975,527.03 371.136,525.525 373.297,523.985 375.458,522.406 377.619,520.783 379.78,519.447 381.941,518.273 384.102,517.125 386.263,515.992 388.424,514.863 390.585,513.73 392.746,512.583 394.907,511.41 397.068,509.981 399.229,507.646 401.39,504.463 403.551,500.531 405.712,495.953 407.873,490.829 410.034,485.258 412.195,479.343 414.356,473.184 416.517,466.881 418.678,460.535 420.839,454.247 423,448.117 425.161,442.247 427.322,436.737 429.483,431.687 431.644,427.198 433.805,423.371 435.966,420.307 438.127,418.106 440.288,415.783 442.449,411.476 444.61,407.279 446.771,403.159 448.932,399.086 451.093,395.026 453.254,390.948 455.415,386.82 457.576,382.611 459.737,378.479 461.898,374.659 464.059,370.948 466.22,367.34 468.381,363.828 470.542,360.409 472.703,357.076 474.864,353.825 477.024,350.649 479.185,347.543 481.346,344.502 483.507,341.521 485.668,338.594 487.829,335.715 489.99,332.88 492.151,330.082 494.312,327.317 496.473,324.58 498.634,321.863 500.795,319.163 502.956,316.474 505.117,313.79 507.278,311.106 509.439,308.417 511.6,305.717 513.761,303.001 515.922,300.263 518.083,297.498 520.244,294.701 522.405,291.866 524.566,288.988 526.727,286.061 528.888,283.08 531.049,280.039 533.21,276.934 535.371,273.759 537.532,270.507 539.693,267.175 541.854,263.756 544.015,260.246 546.176,257.574 548.337,255.347 550.498,253.184 552.659,251.08 554.82,249.032 556.981,247.035 559.142,245.084 561.303,243.176 563.464,241.306 565.625,239.47 567.786,237.665 569.947,235.884 572.108,234.125 574.269,232.383 576.43,230.654 578.591,228.934 580.752,227.218 582.913,225.502 585.074,223.782 587.235,222.053 589.396,220.312 591.556,218.554 593.717,216.775 595.878,214.971 598.039,213.137 600.2,211.27 602.361,209.364 604.522,207.416 606.683,205.422 608.844,203.377 611.005,201.276 613.166,199.7 615.327,199.468 617.488,200.323 619.649,202.16 621.81,204.871 623.971,208.348 626.132,212.484 628.293,217.171 630.454,222.303 632.615,227.771 634.776,233.469 636.937,239.288 639.098,245.122 641.259,250.863 643.42,256.404 645.581,261.637 647.742,266.456 649.903,270.751 652.064,274.417 654.225,277.345 656.386,279.429 658.547,280.56 660.708,280.632 662.869,280.597 665.03,283.969 667.191,287.246 669.352,290.443 671.513,293.578 673.674,296.668 675.835,299.728 677.996,302.775 680.157,305.826 682.318,308.898 684.479,312.006 686.64,315.168 688.801,318.4 690.962,321.651 693.123,324.496 695.284,327.262 697.445,329.953 699.606,332.571 701.767,335.121 703.927,337.604 706.088,340.024 708.249,342.385 710.41,344.689 712.571,346.941 714.732,349.142 716.893,351.297 719.054,353.408 721.215,355.48 723.376,357.514 725.537,359.514 727.698,361.484 729.859,363.426 732.02,365.344 734.181,367.241 736.342,369.121 738.503,370.986 740.664,372.839 742.825,374.685 744.986,376.526 747.147,378.365 749.308,380.205 751.469,382.051 753.63,383.904 755.791,385.769 757.952,387.648 760.113,389.544 762.274,391.462 764.435,393.404 766.596,395.373 768.757,397.372 770.918,399.405 773.079,401.475 775.24,403.585 777.401,405.739 779.562,407.939 781.723,410.189 783.884,412.492 786.045,414.852 788.206,417.27 790.367,419.752 792.528,422.299 794.689,424.14 796.85,425.621 799.011,427.061 801.172,428.464 803.333,429.833 805.494,431.175 807.655,432.492 809.816,433.79 811.977,435.073 814.138,436.346 816.298,437.613 818.459,438.879 820.62,440.149 822.781,441.426 824.942,442.716 827.103,444.023 829.264,445.351 831.425,446.705 833.586,448.09 835.747,449.51 837.908,450.908 840.069,452.376 842.23,454.233 844.391,456.465 846.552,459.059 848.713,462 850.874,465.274 853.035,468.868 855.196,472.767 857.357,476.958 859.518,481.426 861.679,486.157 863.84,491.138 866.001,496.354 868.162,501.791 870.323,507.436 872.484,513.274 874.645,519.291 876.806,525.474 878.967,531.808 881.128,538.279 883.289,544.873 885.45,551.577 887.611,558.375 889.772,565.256 891.933,572.203 894.094,579.203 896.255,586.243 898.416,593.308 900.577,600.384 902.738,607.458 904.899,614.514 907.06,621.54 909.221,627.954 911.382,632.543 913.543,637 915.704,641.343 917.865,645.591 920.026,649.763 922.187,653.876 924.348,657.95 926.509,662.003 928.669,666.054 930.83,670.121 932.991,674.222 935.152,678.378 937.313,682.605 939.474,686.923 941.635,691.351 943.796,695.429 945.957,699.122 948.118,702.711 950.279,706.2 952.44,709.596 954.601,712.904 956.762,716.129 958.923,719.277 961.084,722.353 963.245,725.363 965.406,728.313 967.567,731.207 969.728,734.051 971.889,736.852 974.05,739.613 976.211,742.341 978.372,745.041 980.533,747.719 982.694,750.38 984.855,753.029 987.016,755.673 989.177,758.316 991.338,760.964 993.499,763.623 995.66,766.297 997.821,768.993 999.982,771.716 1002.14,774.471 1004.3,777.265 1006.46,780.101 1008.63,782.986 1010.79,785.926 1012.95,788.926 1015.11,791.99 1017.27,795.126 1019.43,798.338 1021.59,801.631 1023.75,805.011 1025.91,808.203 1028.07,810.436 1030.24,812.605 1032.4,814.722 1034.56,816.798 1036.72,818.842 1038.88,820.866 1041.04,822.881 1043.2,824.896 1045.36,826.924 1047.52,828.975 1049.68,831.06 1051.85,833.188 1054.01,835.372 1056.17,837.45 1058.33,839.829 1060.49,842.522 1062.65,845.52 1064.81,848.81 1066.97,852.383 1069.13,856.228 1071.29,860.334 1073.46,864.692 1075.62,869.29 1077.78,874.117 1079.94,879.164 1082.1,884.419 1084.26,889.873 1086.42,895.513 1088.58,901.331 1090.74,907.315 1092.9,913.455 1095.07,919.74 1097.23,926.159 1099.39,932.703 1101.55,939.36 1103.71,946.119 1105.87,952.972 1108.03,959.905 1110.19,966.91 1112.35,973.976 1114.51,981.091 1116.67,988.246 1118.84,995.43 1121,1002.63 1123.16,1009.84 1125.32,1017.05 1127.48,1024.16 1129.64,1028.88 1131.8,1033.47 1133.96,1037.94 1136.12,1042.31 1138.28,1046.6 1140.45,1050.82 1142.61,1055.01 1144.77,1059.18 1146.93,1063.34 1149.09,1067.53 1151.25,1071.75 1153.41,1076.03 1155.57,1080.39 1157.73,1084.84 1159.89,1089.41 1162.06,1093.37 1164.22,1097.15 1166.38,1100.82 1168.54,1104.39 1170.7,1107.87 1172.86,1111.26 1175.02,1114.56 1177.18,1117.78 1179.34,1120.92 1181.5,1123.99 1183.67,1126.99 1185.83,1129.93 1187.99,1132.81 1190.15,1135.64 1192.31,1138.42 1194.47,1141.15 1196.63,1143.84 1198.79,1146.49 1200.95,1149.11 1203.11,1151.71 1205.28,1154.28 1207.44,1156.83 1209.6,1159.37 1211.76,1161.9 1213.92,1164.43 1216.08,1166.96 1218.24,1169.49 1220.4,1172.03 1222.56,1174.58 1224.72,1177.15 1226.88,1179.74 1229.05,1182.36 1231.21,1185.02 1233.37,1187.7 1235.53,1190.43 1237.69,1193.2 1239.85,1196.03 1242.01,1198.9 1244.17,1201.84 1246.33,1204.84 1248.49,1207.9 1250.66,1211.04 1252.82,1214.25 1254.98,1217.55 1257.14,1220.93 1259.3,1224.4 1261.46,1226.82 1263.62,1228.88 1265.78,1230.92 1267.94,1233 1270.1,1234.42 1272.27,1234.36 1274.43,1232.88 1276.59,1230.04 1278.75,1225.93 1280.91,1220.62 1283.07,1214.17 1285.23,1206.66 1287.39,1198.15 1289.55,1188.72 1291.71,1178.44 1293.88,1167.38 1296.04,1155.61 1298.2,1143.2 1300.36,1130.23 1302.52,1116.76 1304.68,1102.87 1306.84,1088.62 1309,1074.1 1311.16,1059.36 1313.32,1044.48 1315.49,1029.53 1317.65,1014.58 1319.81,999.703 1321.97,984.972 1324.13,970.456 1326.29,956.226 1328.45,943.53 1330.61,933.928 1332.77,924.598 1334.93,915.496 1337.09,906.58 1339.26,897.804 1341.42,889.127 1343.58,880.504 1345.74,871.892 1347.9,863.247 1350.06,854.526 1352.22,845.686 1354.38,836.682 1356.54,827.472 1358.7,818.261 1360.87,810.267 1363.03,802.504 1365.19,794.958 1367.35,787.617 1369.51,780.468 1371.67,773.497 1373.83,766.692 1375.99,760.04 1378.15,753.527 1380.31,747.142 1382.48,740.87 1384.64,734.699 1386.8,728.616 1388.96,722.607 1391.12,716.661 1393.28,710.763 1395.44,704.901 1397.6,699.063 1399.76,693.234 1401.92,687.402 1404.09,681.553 1406.25,675.676 1408.41,669.757 1410.57,663.783 1412.73,657.741 1414.89,651.618 1417.05,645.401 1419.21,639.077 1421.37,632.633 1423.53,626.056 1425.7,619.333 1427.86,612.451 1430.02,605.397 1432.18,598.159 1434.34,590.723 1436.5,585.699 1438.66,580.826 1440.82,576.091 1442.98,571.481 1445.14,566.984 1447.3,562.589 1449.47,558.282 1451.63,554.053 1453.79,549.889 1455.95,545.777 1458.11,541.707 1460.27,537.665 1462.43,533.641 1464.59,529.621 1466.75,525.594 1468.91,521.548 1471.08,517.47 1473.24,513.349 1475.4,509.173 1477.56,504.929 1479.72,500.606 1481.88,496.191 1484.04,491.673 1486.2,487.039 1488.36,482.301 1490.52,479.104 1492.69,476.762 1494.85,475.233 1497.01,474.48 1499.17,474.461 1501.33,475.138 1503.49,476.47 1505.65,478.419 1507.81,480.945 1509.97,484.008 1512.13,487.568 1514.3,491.585 1516.46,496.022 1518.62,500.836 1520.78,505.99 1522.94,511.444 1525.1,517.157 1527.26,523.09 1529.42,529.204 1531.58,535.459 1533.74,541.816 1535.91,548.234 1538.07,554.675 1540.23,561.098 1542.39,567.464 1544.55,573.734 1546.71,579.868 1548.87,585.825 1551.03,591.568 1553.19,596.071 1555.35,599.738 1557.51,603.302 1559.68,606.776 1561.84,610.172 1564,613.506 1566.16,616.789 1568.32,620.035 1570.48,623.257 1572.64,626.468 1574.8,629.682 1576.96,632.912 1579.12,636.172 1581.29,639.474 1583.45,642.831 1585.61,646.258 1587.77,649.767 1589.93,653.339 1592.09,656.294 1594.25,659.165 1596.41,661.957 1598.57,664.672 1600.73,667.316 1602.9,669.891 1605.06,672.402 1607.22,674.853 1609.38,677.247 1611.54,679.589 1613.7,681.882 1615.86,684.13 1618.02,686.337 1620.18,688.507 1622.34,690.643 1624.51,692.75 1626.67,694.832 1628.83,696.892 1630.99,698.934 1633.15,700.962 1635.31,702.981 1637.47,704.993 1639.63,707.003 1641.79,709.014 1643.95,711.031 1646.12,713.057 1648.28,715.097 1650.44,717.153 1652.6,719.231 1654.76,721.333 1656.92,723.464 1659.08,725.628 1661.24,727.828 1663.4,730.068 1665.56,732.353 1667.72,734.685 1669.89,737.07 1672.05,739.51 1674.21,742.011 1676.37,744.574 1678.53,747.206 1680.69,749.802 1682.85,751.484 1685.01,753.12 1687.17,754.718 1689.33,756.289 1691.5,757.842 1693.66,759.389 1695.82,760.938 1697.98,762.5 1700.14,764.084 1702.3,765.701 1704.46,767.332 1706.62,769.084 1708.78,771.226 1710.94,773.741 1713.11,776.617 1715.27,779.837 1717.43,783.387 1719.59,787.253 1721.75,791.42 1723.91,795.873 1726.07,800.597 1728.23,805.578 1730.39,810.801 1732.55,816.251 1734.72,821.913 1736.88,827.774 1739.04,833.817 1741.2,840.028 1743.36,846.393 1745.52,852.897 1747.68,859.524 1749.84,866.261 1752,873.093 1754.16,880.005 1756.33,886.982 1758.49,894.009 1760.65,901.072 1762.81,908.156 1764.97,915.247 1767.13,922.329 1769.29,929.387 1771.45,936.408 1773.61,941.481 1775.77,946.099 1777.93,950.597 1780.1,954.994 1782.26,959.314 1784.42,963.576 1786.58,967.802 1788.74,972.015 1790.9,976.234 1793.06,980.482 1795.22,984.779 1797.38,989.147 1799.54,993.608 1801.71,998.182 1803.87,1002.29 1806.03,1006.14 1808.19,1009.88 1810.35,1013.52 1812.51,1017.06 1814.67,1020.5 1816.83,1023.87 1818.99,1027.15 1821.15,1030.35 1823.32,1033.48 1825.48,1036.54 1827.64,1039.54 1829.8,1042.48 1831.96,1045.37 1834.12,1048.22 1836.28,1051.02 1838.44,1053.78 1840.6,1056.52 1842.76,1059.22 1844.93,1061.9 1847.09,1064.57 1849.25,1067.22 1851.41,1069.86 1853.57,1072.51 1855.73,1075.15 1857.89,1077.81 1860.05,1080.47 1862.21,1083.15 1864.37,1085.86 1866.54,1088.59 1868.7,1091.36 1870.86,1094.16 1873.02,1097.01 1875.18,1099.9 1877.34,1102.85 1879.5,1105.85 1881.66,1108.92 1883.82,1112.05 1885.98,1115.26 1888.15,1118.54 1890.31,1121.91 1892.47,1125.36 1894.63,1128.91 1896.79,1131.51 1898.95,1133.68 1901.11,1135.82 1903.27,1137.95 1905.43,1140.1 1907.59,1142.28 1909.75,1143.26 1911.92,1142.66 1914.08,1140.85 1916.24,1138.26 1918.4,1135.28 1920.56,1132.31 1922.72,1129.75 1924.88,1128 1927.04,1127.47 1929.2,1128.56 1931.36,1122.79 1933.53,1117.11 1935.69,1111.46 1937.85,1105.76 1940.01,1100.15 1942.17,1094.78 1944.33,1089.57 1946.49,1084.5 1948.65,1079.57 1950.81,1074.76 1952.97,1070.06 1955.14,1065.47 1957.3,1060.97 1959.46,1056.56 1961.62,1052.22 1963.78,1047.95 1965.94,1043.73 1968.1,1039.56 1970.26,1035.42 1972.42,1031.31 1974.58,1027.21 1976.75,1023.12 1978.91,1019.02 1981.07,1014.91 1983.23,1010.77 1985.39,1006.6 1987.55,1002.39 1989.71,998.12 1991.87,993.788 1994.03,989.382 1996.19,984.892 1998.36,980.309 2000.52,975.622 2002.68,970.821 2004.84,965.898 2007,960.841 2009.16,956.787 2011.32,953.292 2013.48,949.898 2015.64,946.596 2017.8,943.379 2019.96,940.239 2022.13,937.168 2024.29,934.159 2026.45,931.204 2028.61,928.295 2030.77,925.425 2032.93,922.585 2035.09,919.768 2037.25,916.966 2039.41,914.171 2041.57,911.377 2043.74,908.574 2045.9,905.756 2048.06,902.914 2050.22,900.041 2052.38,897.129 2054.54,894.17 2056.7,891.157 2058.86,888.082 2061.02,884.937 2063.18,881.715 2065.35,878.407 2067.51,875.362 2069.67,872.911 2071.83,870.532 2073.99,868.219 2076.15,865.967 2078.31,863.771 2080.47,861.626 2082.63,859.528 2084.79,857.47 2086.96,855.449 2089.12,853.458 2091.28,851.493 2093.44,849.55 2095.6,847.622 2097.76,845.705 2099.92,843.794 2102.08,841.884 2104.24,839.97 2106.4,838.047 2108.57,836.109 2110.73,834.152 2112.89,832.171 2115.05,830.161 2117.21,828.116 2119.37,826.032 2121.53,823.904 2123.69,821.726 2125.85,819.494 2128.01,817.202 2130.17,815.115 2132.34,813.249 2134.5,811.222 2136.66,809.039 2138.82,806.706 2140.98,804.228 2143.14,801.611 2145.3,798.862 2147.46,795.985 2149.62,792.987 2151.78,789.874 2153.95,786.651 2156.11,783.324 2158.27,779.899 2160.43,776.381 2162.59,772.777 2164.75,769.092 2166.91,765.331 2169.07,761.502 2171.23,757.609 2173.39,753.659 2175.56,749.656 2177.72,745.607 2179.88,741.518 2182.04,737.395 2184.2,733.243 2186.36,729.067 2188.52,724.875 2190.68,720.671 2192.84,716.461 2195,712.853 2197.17,709.978 2199.33,707.186 2201.49,704.468 2203.65,701.813 2205.81,699.213 2207.97,696.657 2210.13,694.138 2212.29,691.645 2214.45,689.169 2216.61,686.7 2218.78,684.23 2220.94,681.748 2223.1,679.246 2225.26,676.714 2227.42,674.143 2229.58,671.523 2231.74,668.845 2233.9,666.099 2236.06,663.428 2238.22,661.185 2240.38,659.007 2242.55,656.889 2244.71,654.829 2246.87,652.823 2249.03,650.867 2251.19,648.959 2253.35,647.095 2255.51,645.273 2257.67,643.488 2259.83,641.737 2261.99,640.017 2264.16,638.326 2266.32,636.659 2268.48,635.013 2270.64,633.385 2272.8,631.772 2274.96,630.17 2277.12,628.577 2279.28,626.988 2281.44,625.401 2283.6,623.812 2285.77,622.219 2287.93,620.617 2290.09,619.004 2292.25,617.376 2294.41,615.73 2296.57,614.062 2298.73,612.37 2300.89,610.65 2303.05,608.899 2305.21,607.113 2307.38,605.29 2309.54,603.425 2311.7,601.517 2313.86,599.56 2316.02,597.553 2318.18,595.492 2320.34,593.956 2322.5,592.637 2324.66,591.354 2326.82,590.101 2328.99,588.874 2331.15,587.666 2333.31,586.473 2335.47,585.288 2337.63,584.107 2339.79,582.925 2341.95,581.735 2344.11,580.533 2346.27,579.312 2348.43,578.069 2350.59,576.796 2352.76,575.49 "/>
<polyline clip-path="url(#clip752)" style="stroke:#e26f46; stroke-linecap:round; stroke-linejoin:round; stroke-width:4; stroke-opacity:1; fill:none" points="193.936,429.18 196.097,429.18 198.258,429.18 200.419,429.18 202.58,429.18 204.741,429.18 206.902,429.18 209.063,429.18 211.224,429.18 213.385,429.18 215.546,429.18 217.707,429.18 219.868,429.18 222.029,429.18 224.19,429.18 226.351,429.18 228.512,429.18 230.673,429.18 232.834,429.18 234.995,429.18 237.156,429.18 239.317,429.18 241.478,429.18 243.639,429.18 245.8,429.18 247.961,429.18 250.122,429.18 252.282,429.18 254.443,429.18 256.604,429.18 258.765,429.18 260.926,429.18 263.087,429.18 265.248,429.18 267.409,429.18 269.57,429.18 271.731,429.18 273.892,429.18 276.053,429.18 278.214,429.18 280.375,429.18 282.536,429.18 284.697,429.18 286.858,429.18 289.019,429.18 291.18,429.18 293.341,429.18 295.502,429.18 297.663,429.18 299.824,429.18 301.985,429.18 304.146,429.18 306.307,429.18 308.468,429.18 310.629,429.18 312.79,429.18 314.951,429.18 317.112,429.18 319.273,429.18 321.434,429.18 323.595,429.18 325.756,429.18 327.917,429.18 330.078,429.18 332.239,429.18 334.4,429.18 336.561,429.18 338.722,429.18 340.883,429.18 343.044,429.18 345.205,429.18 347.366,429.18 349.527,429.18 351.688,429.18 353.849,429.18 356.01,429.18 358.171,429.18 360.332,429.18 362.493,429.18 364.653,429.18 366.814,429.18 368.975,429.18 371.136,429.18 373.297,429.18 375.458,429.18 377.619,429.18 379.78,429.18 381.941,429.18 384.102,429.18 386.263,429.18 388.424,429.18 390.585,429.18 392.746,429.18 394.907,429.18 397.068,429.18 399.229,429.18 401.39,429.18 403.551,429.18 405.712,429.18 407.873,429.18 410.034,86.1857 412.195,86.1857 414.356,86.1857 416.517,86.1857 418.678,86.1857 420.839,86.1857 423,86.1857 425.161,86.1857 427.322,86.1857 429.483,86.1857 431.644,86.1857 433.805,86.1857 435.966,86.1857 438.127,86.1857 440.288,86.1857 442.449,86.1857 444.61,86.1857 446.771,86.1857 448.932,86.1857 451.093,86.1857 453.254,86.1857 455.415,86.1857 457.576,86.1857 459.737,86.1857 461.898,86.1857 464.059,86.1857 466.22,86.1857 468.381,86.1857 470.542,86.1857 472.703,86.1857 474.864,86.1857 477.024,86.1857 479.185,86.1857 481.346,86.1857 483.507,86.1857 485.668,86.1857 487.829,86.1857 489.99,86.1857 492.151,86.1857 494.312,86.1857 496.473,86.1857 498.634,86.1857 500.795,86.1857 502.956,86.1857 505.117,86.1857 507.278,86.1857 509.439,86.1857 511.6,86.1857 513.761,86.1857 515.922,86.1857 518.083,86.1857 520.244,86.1857 522.405,86.1857 524.566,86.1857 526.727,86.1857 528.888,86.1857 531.049,86.1857 533.21,86.1857 535.371,86.1857 537.532,86.1857 539.693,86.1857 541.854,86.1857 544.015,86.1857 546.176,86.1857 548.337,86.1857 550.498,86.1857 552.659,86.1857 554.82,86.1857 556.981,86.1857 559.142,86.1857 561.303,86.1857 563.464,86.1857 565.625,86.1857 567.786,86.1857 569.947,86.1857 572.108,86.1857 574.269,86.1857 576.43,86.1857 578.591,86.1857 580.752,86.1857 582.913,86.1857 585.074,86.1857 587.235,86.1857 589.396,86.1857 591.556,86.1857 593.717,86.1857 595.878,86.1857 598.039,86.1857 600.2,86.1857 602.361,86.1857 604.522,86.1857 606.683,86.1857 608.844,86.1857 611.005,86.1857 613.166,86.1857 615.327,86.1857 617.488,86.1857 619.649,86.1857 621.81,86.1857 623.971,86.1857 626.132,538.327 628.293,538.327 630.454,538.327 632.615,538.327 634.776,538.327 636.937,538.327 639.098,538.327 641.259,538.327 643.42,538.327 645.581,538.327 647.742,538.327 649.903,538.327 652.064,538.327 654.225,538.327 656.386,538.327 658.547,538.327 660.708,538.327 662.869,538.327 665.03,538.327 667.191,538.327 669.352,538.327 671.513,538.327 673.674,538.327 675.835,538.327 677.996,538.327 680.157,538.327 682.318,538.327 684.479,538.327 686.64,538.327 688.801,538.327 690.962,538.327 693.123,538.327 695.284,538.327 697.445,538.327 699.606,538.327 701.767,538.327 703.927,538.327 706.088,538.327 708.249,538.327 710.41,538.327 712.571,538.327 714.732,538.327 716.893,538.327 719.054,538.327 721.215,538.327 723.376,538.327 725.537,538.327 727.698,538.327 729.859,538.327 732.02,538.327 734.181,538.327 736.342,538.327 738.503,538.327 740.664,538.327 742.825,538.327 744.986,538.327 747.147,538.327 749.308,538.327 751.469,538.327 753.63,538.327 755.791,538.327 757.952,538.327 760.113,538.327 762.274,538.327 764.435,538.327 766.596,538.327 768.757,538.327 770.918,538.327 773.079,538.327 775.24,538.327 777.401,538.327 779.562,538.327 781.723,538.327 783.884,538.327 786.045,538.327 788.206,538.327 790.367,538.327 792.528,538.327 794.689,538.327 796.85,538.327 799.011,538.327 801.172,538.327 803.333,538.327 805.494,538.327 807.655,538.327 809.816,538.327 811.977,538.327 814.138,538.327 816.298,538.327 818.459,538.327 820.62,538.327 822.781,538.327 824.942,538.327 827.103,538.327 829.264,538.327 831.425,538.327 833.586,538.327 835.747,538.327 837.908,538.327 840.069,538.327 842.23,978.907 844.391,978.907 846.552,978.907 848.713,978.907 850.874,978.907 853.035,978.907 855.196,978.907 857.357,978.907 859.518,978.907 861.679,978.907 863.84,978.907 866.001,978.907 868.162,978.907 870.323,978.907 872.484,978.907 874.645,978.907 876.806,978.907 878.967,978.907 881.128,978.907 883.289,978.907 885.45,978.907 887.611,978.907 889.772,978.907 891.933,978.907 894.094,978.907 896.255,978.907 898.416,978.907 900.577,978.907 902.738,978.907 904.899,978.907 907.06,978.907 909.221,978.907 911.382,978.907 913.543,978.907 915.704,978.907 917.865,978.907 920.026,978.907 922.187,978.907 924.348,978.907 926.509,978.907 928.669,978.907 930.83,978.907 932.991,978.907 935.152,978.907 937.313,978.907 939.474,978.907 941.635,978.907 943.796,978.907 945.957,978.907 948.118,978.907 950.279,978.907 952.44,978.907 954.601,978.907 956.762,978.907 958.923,978.907 961.084,978.907 963.245,978.907 965.406,978.907 967.567,978.907 969.728,978.907 971.889,978.907 974.05,978.907 976.211,978.907 978.372,978.907 980.533,978.907 982.694,978.907 984.855,978.907 987.016,978.907 989.177,978.907 991.338,978.907 993.499,978.907 995.66,978.907 997.821,978.907 999.982,978.907 1002.14,978.907 1004.3,978.907 1006.46,978.907 1008.63,978.907 1010.79,978.907 1012.95,978.907 1015.11,978.907 1017.27,978.907 1019.43,978.907 1021.59,978.907 1023.75,978.907 1025.91,978.907 1028.07,978.907 1030.24,978.907 1032.4,978.907 1034.56,978.907 1036.72,978.907 1038.88,978.907 1041.04,978.907 1043.2,978.907 1045.36,978.907 1047.52,978.907 1049.68,978.907 1051.85,978.907 1054.01,978.907 1056.17,978.907 1058.33,1384.24 1060.49,1384.24 1062.65,1384.24 1064.81,1384.24 1066.97,1384.24 1069.13,1384.24 1071.29,1384.24 1073.46,1384.24 1075.62,1384.24 1077.78,1384.24 1079.94,1384.24 1082.1,1384.24 1084.26,1384.24 1086.42,1384.24 1088.58,1384.24 1090.74,1384.24 1092.9,1384.24 1095.07,1384.24 1097.23,1384.24 1099.39,1384.24 1101.55,1384.24 1103.71,1384.24 1105.87,1384.24 1108.03,1384.24 1110.19,1384.24 1112.35,1384.24 1114.51,1384.24 1116.67,1384.24 1118.84,1384.24 1121,1384.24 1123.16,1384.24 1125.32,1384.24 1127.48,1384.24 1129.64,1384.24 1131.8,1384.24 1133.96,1384.24 1136.12,1384.24 1138.28,1384.24 1140.45,1384.24 1142.61,1384.24 1144.77,1384.24 1146.93,1384.24 1149.09,1384.24 1151.25,1384.24 1153.41,1384.24 1155.57,1384.24 1157.73,1384.24 1159.89,1384.24 1162.06,1384.24 1164.22,1384.24 1166.38,1384.24 1168.54,1384.24 1170.7,1384.24 1172.86,1384.24 1175.02,1384.24 1177.18,1384.24 1179.34,1384.24 1181.5,1384.24 1183.67,1384.24 1185.83,1384.24 1187.99,1384.24 1190.15,1384.24 1192.31,1384.24 1194.47,1384.24 1196.63,1384.24 1198.79,1384.24 1200.95,1384.24 1203.11,1384.24 1205.28,1384.24 1207.44,1384.24 1209.6,1384.24 1211.76,1384.24 1213.92,1384.24 1216.08,1384.24 1218.24,1384.24 1220.4,1384.24 1222.56,1384.24 1224.72,1384.24 1226.88,1384.24 1229.05,1384.24 1231.21,1384.24 1233.37,1384.24 1235.53,1384.24 1237.69,1384.24 1239.85,1384.24 1242.01,1384.24 1244.17,1384.24 1246.33,1384.24 1248.49,1384.24 1250.66,1384.24 1252.82,1384.24 1254.98,1384.24 1257.14,1384.24 1259.3,1384.24 1261.46,1384.24 1263.62,1384.24 1265.78,1384.24 1267.94,1384.24 1270.1,1384.24 1272.27,1384.24 1274.43,208.567 1276.59,208.567 1278.75,208.567 1280.91,208.567 1283.07,208.567 1285.23,208.567 1287.39,208.567 1289.55,208.567 1291.71,208.567 1293.88,208.567 1296.04,208.567 1298.2,208.567 1300.36,208.567 1302.52,208.567 1304.68,208.567 1306.84,208.567 1309,208.567 1311.16,208.567 1313.32,208.567 1315.49,208.567 1317.65,208.567 1319.81,208.567 1321.97,208.567 1324.13,208.567 1326.29,208.567 1328.45,208.567 1330.61,208.567 1332.77,208.567 1334.93,208.567 1337.09,208.567 1339.26,208.567 1341.42,208.567 1343.58,208.567 1345.74,208.567 1347.9,208.567 1350.06,208.567 1352.22,208.567 1354.38,208.567 1356.54,208.567 1358.7,208.567 1360.87,208.567 1363.03,208.567 1365.19,208.567 1367.35,208.567 1369.51,208.567 1371.67,208.567 1373.83,208.567 1375.99,208.567 1378.15,208.567 1380.31,208.567 1382.48,208.567 1384.64,208.567 1386.8,208.567 1388.96,208.567 1391.12,208.567 1393.28,208.567 1395.44,208.567 1397.6,208.567 1399.76,208.567 1401.92,208.567 1404.09,208.567 1406.25,208.567 1408.41,208.567 1410.57,208.567 1412.73,208.567 1414.89,208.567 1417.05,208.567 1419.21,208.567 1421.37,208.567 1423.53,208.567 1425.7,208.567 1427.86,208.567 1430.02,208.567 1432.18,208.567 1434.34,208.567 1436.5,208.567 1438.66,208.567 1440.82,208.567 1442.98,208.567 1445.14,208.567 1447.3,208.567 1449.47,208.567 1451.63,208.567 1453.79,208.567 1455.95,208.567 1458.11,208.567 1460.27,208.567 1462.43,208.567 1464.59,208.567 1466.75,208.567 1468.91,208.567 1471.08,208.567 1473.24,208.567 1475.4,208.567 1477.56,208.567 1479.72,208.567 1481.88,208.567 1484.04,208.567 1486.2,208.567 1488.36,208.567 1490.52,878.139 1492.69,878.139 1494.85,878.139 1497.01,878.139 1499.17,878.139 1501.33,878.139 1503.49,878.139 1505.65,878.139 1507.81,878.139 1509.97,878.139 1512.13,878.139 1514.3,878.139 1516.46,878.139 1518.62,878.139 1520.78,878.139 1522.94,878.139 1525.1,878.139 1527.26,878.139 1529.42,878.139 1531.58,878.139 1533.74,878.139 1535.91,878.139 1538.07,878.139 1540.23,878.139 1542.39,878.139 1544.55,878.139 1546.71,878.139 1548.87,878.139 1551.03,878.139 1553.19,878.139 1555.35,878.139 1557.51,878.139 1559.68,878.139 1561.84,878.139 1564,878.139 1566.16,878.139 1568.32,878.139 1570.48,878.139 1572.64,878.139 1574.8,878.139 1576.96,878.139 1579.12,878.139 1581.29,878.139 1583.45,878.139 1585.61,878.139 1587.77,878.139 1589.93,878.139 1592.09,878.139 1594.25,878.139 1596.41,878.139 1598.57,878.139 1600.73,878.139 1602.9,878.139 1605.06,878.139 1607.22,878.139 1609.38,878.139 1611.54,878.139 1613.7,878.139 1615.86,878.139 1618.02,878.139 1620.18,878.139 1622.34,878.139 1624.51,878.139 1626.67,878.139 1628.83,878.139 1630.99,878.139 1633.15,878.139 1635.31,878.139 1637.47,878.139 1639.63,878.139 1641.79,878.139 1643.95,878.139 1646.12,878.139 1648.28,878.139 1650.44,878.139 1652.6,878.139 1654.76,878.139 1656.92,878.139 1659.08,878.139 1661.24,878.139 1663.4,878.139 1665.56,878.139 1667.72,878.139 1669.89,878.139 1672.05,878.139 1674.21,878.139 1676.37,878.139 1678.53,878.139 1680.69,878.139 1682.85,878.139 1685.01,878.139 1687.17,878.139 1689.33,878.139 1691.5,878.139 1693.66,878.139 1695.82,878.139 1697.98,878.139 1700.14,878.139 1702.3,878.139 1704.46,878.139 1706.62,1298.22 1708.78,1298.22 1710.94,1298.22 1713.11,1298.22 1715.27,1298.22 1717.43,1298.22 1719.59,1298.22 1721.75,1298.22 1723.91,1298.22 1726.07,1298.22 1728.23,1298.22 1730.39,1298.22 1732.55,1298.22 1734.72,1298.22 1736.88,1298.22 1739.04,1298.22 1741.2,1298.22 1743.36,1298.22 1745.52,1298.22 1747.68,1298.22 1749.84,1298.22 1752,1298.22 1754.16,1298.22 1756.33,1298.22 1758.49,1298.22 1760.65,1298.22 1762.81,1298.22 1764.97,1298.22 1767.13,1298.22 1769.29,1298.22 1771.45,1298.22 1773.61,1298.22 1775.77,1298.22 1777.93,1298.22 1780.1,1298.22 1782.26,1298.22 1784.42,1298.22 1786.58,1298.22 1788.74,1298.22 1790.9,1298.22 1793.06,1298.22 1795.22,1298.22 1797.38,1298.22 1799.54,1298.22 1801.71,1298.22 1803.87,1298.22 1806.03,1298.22 1808.19,1298.22 1810.35,1298.22 1812.51,1298.22 1814.67,1298.22 1816.83,1298.22 1818.99,1298.22 1821.15,1298.22 1823.32,1298.22 1825.48,1298.22 1827.64,1298.22 1829.8,1298.22 1831.96,1298.22 1834.12,1298.22 1836.28,1298.22 1838.44,1298.22 1840.6,1298.22 1842.76,1298.22 1844.93,1298.22 1847.09,1298.22 1849.25,1298.22 1851.41,1298.22 1853.57,1298.22 1855.73,1298.22 1857.89,1298.22 1860.05,1298.22 1862.21,1298.22 1864.37,1298.22 1866.54,1298.22 1868.7,1298.22 1870.86,1298.22 1873.02,1298.22 1875.18,1298.22 1877.34,1298.22 1879.5,1298.22 1881.66,1298.22 1883.82,1298.22 1885.98,1298.22 1888.15,1298.22 1890.31,1298.22 1892.47,1298.22 1894.63,1298.22 1896.79,1298.22 1898.95,1298.22 1901.11,1298.22 1903.27,1298.22 1905.43,1298.22 1907.59,1298.22 1909.75,1298.22 1911.92,1298.22 1914.08,1298.22 1916.24,1298.22 1918.4,1298.22 1920.56,1298.22 1922.72,687.705 1924.88,687.705 1927.04,687.705 1929.2,687.705 1931.36,687.705 1933.53,687.705 1935.69,687.705 1937.85,687.705 1940.01,687.705 1942.17,687.705 1944.33,687.705 1946.49,687.705 1948.65,687.705 1950.81,687.705 1952.97,687.705 1955.14,687.705 1957.3,687.705 1959.46,687.705 1961.62,687.705 1963.78,687.705 1965.94,687.705 1968.1,687.705 1970.26,687.705 1972.42,687.705 1974.58,687.705 1976.75,687.705 1978.91,687.705 1981.07,687.705 1983.23,687.705 1985.39,687.705 1987.55,687.705 1989.71,687.705 1991.87,687.705 1994.03,687.705 1996.19,687.705 1998.36,687.705 2000.52,687.705 2002.68,687.705 2004.84,687.705 2007,687.705 2009.16,687.705 2011.32,687.705 2013.48,687.705 2015.64,687.705 2017.8,687.705 2019.96,687.705 2022.13,687.705 2024.29,687.705 2026.45,687.705 2028.61,687.705 2030.77,687.705 2032.93,687.705 2035.09,687.705 2037.25,687.705 2039.41,687.705 2041.57,687.705 2043.74,687.705 2045.9,687.705 2048.06,687.705 2050.22,687.705 2052.38,687.705 2054.54,687.705 2056.7,687.705 2058.86,687.705 2061.02,687.705 2063.18,687.705 2065.35,687.705 2067.51,687.705 2069.67,687.705 2071.83,687.705 2073.99,687.705 2076.15,687.705 2078.31,687.705 2080.47,687.705 2082.63,687.705 2084.79,687.705 2086.96,687.705 2089.12,687.705 2091.28,687.705 2093.44,687.705 2095.6,687.705 2097.76,687.705 2099.92,687.705 2102.08,687.705 2104.24,687.705 2106.4,687.705 2108.57,687.705 2110.73,687.705 2112.89,687.705 2115.05,687.705 2117.21,687.705 2119.37,687.705 2121.53,687.705 2123.69,687.705 2125.85,687.705 2128.01,687.705 2130.17,687.705 2132.34,687.705 2134.5,687.705 2136.66,687.705 2138.82,492.209 2140.98,492.209 2143.14,492.209 2145.3,492.209 2147.46,492.209 2149.62,492.209 2151.78,492.209 2153.95,492.209 2156.11,492.209 2158.27,492.209 2160.43,492.209 2162.59,492.209 2164.75,492.209 2166.91,492.209 2169.07,492.209 2171.23,492.209 2173.39,492.209 2175.56,492.209 2177.72,492.209 2179.88,492.209 2182.04,492.209 2184.2,492.209 2186.36,492.209 2188.52,492.209 2190.68,492.209 2192.84,492.209 2195,492.209 2197.17,492.209 2199.33,492.209 2201.49,492.209 2203.65,492.209 2205.81,492.209 2207.97,492.209 2210.13,492.209 2212.29,492.209 2214.45,492.209 2216.61,492.209 2218.78,492.209 2220.94,492.209 2223.1,492.209 2225.26,492.209 2227.42,492.209 2229.58,492.209 2231.74,492.209 2233.9,492.209 2236.06,492.209 2238.22,492.209 2240.38,492.209 2242.55,492.209 2244.71,492.209 2246.87,492.209 2249.03,492.209 2251.19,492.209 2253.35,492.209 2255.51,492.209 2257.67,492.209 2259.83,492.209 2261.99,492.209 2264.16,492.209 2266.32,492.209 2268.48,492.209 2270.64,492.209 2272.8,492.209 2274.96,492.209 2277.12,492.209 2279.28,492.209 2281.44,492.209 2283.6,492.209 2285.77,492.209 2287.93,492.209 2290.09,492.209 2292.25,492.209 2294.41,492.209 2296.57,492.209 2298.73,492.209 2300.89,492.209 2303.05,492.209 2305.21,492.209 2307.38,492.209 2309.54,492.209 2311.7,492.209 2313.86,492.209 2316.02,492.209 2318.18,492.209 2320.34,492.209 2322.5,492.209 2324.66,492.209 2326.82,492.209 2328.99,492.209 2331.15,492.209 2333.31,492.209 2335.47,492.209 2337.63,492.209 2339.79,492.209 2341.95,492.209 2344.11,492.209 2346.27,492.209 2348.43,492.209 2350.59,492.209 2352.76,492.209 "/>
<path clip-path="url(#clip750)" d="M2039.77 248.629 L2280.8 248.629 L2280.8 93.1086 L2039.77 93.1086  Z" fill="#ffffff" fill-rule="evenodd" fill-opacity="1"/>
<polyline clip-path="url(#clip750)" style="stroke:#000000; stroke-linecap:round; stroke-linejoin:round; stroke-width:4; stroke-opacity:1; fill:none" points="2039.77,248.629 2280.8,248.629 2280.8,93.1086 2039.77,93.1086 2039.77,248.629 "/>
<polyline clip-path="url(#clip750)" style="stroke:#009af9; stroke-linecap:round; stroke-linejoin:round; stroke-width:4; stroke-opacity:1; fill:none" points="2063.76,144.949 2207.68,144.949 "/>
<path clip-path="url(#clip750)" d="M2256.32 136.303 L2246.95 148.919 L2256.81 162.229 L2251.79 162.229 L2244.24 152.043 L2236.69 162.229 L2231.67 162.229 L2241.74 148.664 L2232.53 136.303 L2237.55 136.303 L2244.42 145.539 L2251.3 136.303 L2256.32 136.303 Z" fill="#000000" fill-rule="nonzero" fill-opacity="1" /><polyline clip-path="url(#clip750)" style="stroke:#e26f46; stroke-linecap:round; stroke-linejoin:round; stroke-width:4; stroke-opacity:1; fill:none" points="2063.76,196.789 2207.68,196.789 "/>
<path clip-path="url(#clip750)" d="M2248.17 178.05 L2248.17 181.592 L2244.1 181.592 Q2241.81 181.592 2240.91 182.518 Q2240.03 183.444 2240.03 185.851 L2240.03 188.143 L2247.04 188.143 L2247.04 191.453 L2240.03 191.453 L2240.03 214.069 L2235.74 214.069 L2235.74 191.453 L2231.67 191.453 L2231.67 188.143 L2235.74 188.143 L2235.74 186.337 Q2235.74 182.009 2237.76 180.041 Q2239.77 178.05 2244.15 178.05 L2248.17 178.05 Z" fill="#000000" fill-rule="nonzero" fill-opacity="1" /></svg>
