<?xml version="1.0" encoding="utf-8"?>
<svg xmlns="http://www.w3.org/2000/svg" xmlns:xlink="http://www.w3.org/1999/xlink" width="600" height="400" viewBox="0 0 2400 1600">
<defs>
  <clipPath id="clip460">
    <rect x="0" y="0" width="2400" height="1600"/>
  </clipPath>
</defs>
<path clip-path="url(#clip460)" d="M0 1600 L2400 1600 L2400 0 L0 0  Z" fill="#ffffff" fill-rule="evenodd" fill-opacity="1"/>
<defs>
  <clipPath id="clip461">
    <rect x="480" y="0" width="1681" height="1600"/>
  </clipPath>
</defs>
<defs>
  <clipPath id="clip462">
    <rect x="155" y="47" width="2198" height="1440"/>
  </clipPath>
</defs>
<path clip-path="url(#clip462)" d="M-956.12 2450.41 L-956.12 2174.23 L-822.962 2036.14 L-592.325 2115.87 L-592.325 2392.05 L-725.483 2530.14 L-956.12 2450.41  Z" fill="#ffffff" fill-rule="evenodd" fill-opacity="1"/>
<polyline clip-path="url(#clip462)" style="stroke:#000000; stroke-linecap:round; stroke-linejoin:round; stroke-width:2; stroke-opacity:0.1; fill:none" points="728.076,1214.62 1143.54,854.817 1143.54,135.215 "/>
<polyline clip-path="url(#clip462)" style="stroke:#000000; stroke-linecap:round; stroke-linejoin:round; stroke-width:2; stroke-opacity:0.1; fill:none" points="843.394,1247.91 1258.86,888.106 1258.86,168.504 "/>
<polyline clip-path="url(#clip462)" style="stroke:#000000; stroke-linecap:round; stroke-linejoin:round; stroke-width:2; stroke-opacity:0.1; fill:none" points="958.712,1281.2 1374.17,921.396 1374.17,201.794 "/>
<polyline clip-path="url(#clip462)" style="stroke:#000000; stroke-linecap:round; stroke-linejoin:round; stroke-width:2; stroke-opacity:0.1; fill:none" points="1074.03,1314.49 1489.49,954.685 1489.49,235.084 "/>
<polyline clip-path="url(#clip462)" style="stroke:#000000; stroke-linecap:round; stroke-linejoin:round; stroke-width:2; stroke-opacity:0.1; fill:none" points="1189.35,1347.78 1604.81,987.975 1604.81,268.373 "/>
<polyline clip-path="url(#clip462)" style="stroke:#000000; stroke-linecap:round; stroke-linejoin:round; stroke-width:2; stroke-opacity:0.1; fill:none" points="1304.67,1381.07 1720.13,1021.26 1720.13,301.663 "/>
<polyline clip-path="url(#clip462)" style="stroke:#000000; stroke-linecap:round; stroke-linejoin:round; stroke-width:2; stroke-opacity:0.1; fill:none" points="1415.53,1402.45 695.926,1194.72 695.926,475.115 "/>
<polyline clip-path="url(#clip462)" style="stroke:#000000; stroke-linecap:round; stroke-linejoin:round; stroke-width:2; stroke-opacity:0.1; fill:none" points="1495.25,1333.4 775.653,1125.67 775.653,406.069 "/>
<polyline clip-path="url(#clip462)" style="stroke:#000000; stroke-linecap:round; stroke-linejoin:round; stroke-width:2; stroke-opacity:0.1; fill:none" points="1574.98,1264.36 855.381,1056.62 855.381,337.023 "/>
<polyline clip-path="url(#clip462)" style="stroke:#000000; stroke-linecap:round; stroke-linejoin:round; stroke-width:2; stroke-opacity:0.1; fill:none" points="1654.71,1195.31 935.108,987.579 935.108,267.977 "/>
<polyline clip-path="url(#clip462)" style="stroke:#000000; stroke-linecap:round; stroke-linejoin:round; stroke-width:2; stroke-opacity:0.1; fill:none" points="1734.44,1126.26 1014.84,918.533 1014.84,198.931 "/>
<polyline clip-path="url(#clip462)" style="stroke:#000000; stroke-linecap:round; stroke-linejoin:round; stroke-width:2; stroke-opacity:0.1; fill:none" points="1814.16,1057.22 1094.56,849.487 1094.56,129.885 "/>
<polyline clip-path="url(#clip462)" style="stroke:#000000; stroke-linecap:round; stroke-linejoin:round; stroke-width:2; stroke-opacity:0.1; fill:none" points="686.728,1134.2 1102.19,774.398 1821.79,982.129 "/>
<polyline clip-path="url(#clip462)" style="stroke:#000000; stroke-linecap:round; stroke-linejoin:round; stroke-width:2; stroke-opacity:0.1; fill:none" points="686.728,990.665 1102.19,630.864 1821.79,838.595 "/>
<polyline clip-path="url(#clip462)" style="stroke:#000000; stroke-linecap:round; stroke-linejoin:round; stroke-width:2; stroke-opacity:0.1; fill:none" points="686.728,847.131 1102.19,487.33 1821.79,695.061 "/>
<polyline clip-path="url(#clip462)" style="stroke:#000000; stroke-linecap:round; stroke-linejoin:round; stroke-width:2; stroke-opacity:0.1; fill:none" points="686.728,703.597 1102.19,343.796 1821.79,551.527 "/>
<polyline clip-path="url(#clip462)" style="stroke:#000000; stroke-linecap:round; stroke-linejoin:round; stroke-width:2; stroke-opacity:0.1; fill:none" points="686.728,560.063 1102.19,200.262 1821.79,407.993 "/>
<polyline clip-path="url(#clip460)" style="stroke:#000000; stroke-linecap:round; stroke-linejoin:round; stroke-width:4; stroke-opacity:1; fill:none" points="686.728,1202.68 1406.33,1410.41 "/>
<polyline clip-path="url(#clip460)" style="stroke:#000000; stroke-linecap:round; stroke-linejoin:round; stroke-width:4; stroke-opacity:1; fill:none" points="728.076,1214.62 733.061,1210.3 "/>
<polyline clip-path="url(#clip460)" style="stroke:#000000; stroke-linecap:round; stroke-linejoin:round; stroke-width:4; stroke-opacity:1; fill:none" points="843.394,1247.91 848.379,1243.59 "/>
<polyline clip-path="url(#clip460)" style="stroke:#000000; stroke-linecap:round; stroke-linejoin:round; stroke-width:4; stroke-opacity:1; fill:none" points="958.712,1281.2 963.698,1276.88 "/>
<polyline clip-path="url(#clip460)" style="stroke:#000000; stroke-linecap:round; stroke-linejoin:round; stroke-width:4; stroke-opacity:1; fill:none" points="1074.03,1314.49 1079.02,1310.17 "/>
<polyline clip-path="url(#clip460)" style="stroke:#000000; stroke-linecap:round; stroke-linejoin:round; stroke-width:4; stroke-opacity:1; fill:none" points="1189.35,1347.78 1194.33,1343.46 "/>
<polyline clip-path="url(#clip460)" style="stroke:#000000; stroke-linecap:round; stroke-linejoin:round; stroke-width:4; stroke-opacity:1; fill:none" points="1304.67,1381.07 1309.65,1376.75 "/>
<path clip-path="url(#clip460)" d="M711.537 1240.48 Q714.893 1241.2 716.768 1243.47 Q718.666 1245.74 718.666 1249.07 Q718.666 1254.19 715.148 1256.99 Q711.629 1259.79 705.148 1259.79 Q702.972 1259.79 700.657 1259.35 Q698.365 1258.93 695.912 1258.08 L695.912 1253.56 Q697.856 1254.7 700.171 1255.27 Q702.486 1255.85 705.009 1255.85 Q709.407 1255.85 711.699 1254.12 Q714.013 1252.38 714.013 1249.07 Q714.013 1246.02 711.861 1244.3 Q709.731 1242.57 705.912 1242.57 L701.884 1242.57 L701.884 1238.72 L706.097 1238.72 Q709.546 1238.72 711.375 1237.36 Q713.203 1235.97 713.203 1233.38 Q713.203 1230.71 711.305 1229.3 Q709.43 1227.87 705.912 1227.87 Q703.99 1227.87 701.791 1228.28 Q699.592 1228.7 696.953 1229.58 L696.953 1225.41 Q699.615 1224.67 701.93 1224.3 Q704.268 1223.93 706.328 1223.93 Q711.652 1223.93 714.754 1226.36 Q717.856 1228.77 717.856 1232.89 Q717.856 1235.76 716.212 1237.75 Q714.569 1239.72 711.537 1240.48 Z" fill="#000000" fill-rule="nonzero" fill-opacity="1" /><path clip-path="url(#clip460)" d="M824.401 1261.92 L812.596 1280.37 L824.401 1280.37 L824.401 1261.92 M823.174 1257.85 L829.054 1257.85 L829.054 1280.37 L833.985 1280.37 L833.985 1284.26 L829.054 1284.26 L829.054 1292.41 L824.401 1292.41 L824.401 1284.26 L808.8 1284.26 L808.8 1279.74 L823.174 1257.85 Z" fill="#000000" fill-rule="nonzero" fill-opacity="1" /><path clip-path="url(#clip460)" d="M928.4 1291.14 L946.757 1291.14 L946.757 1295.07 L932.683 1295.07 L932.683 1303.54 Q933.701 1303.2 934.72 1303.03 Q935.738 1302.85 936.757 1302.85 Q942.544 1302.85 945.923 1306.02 Q949.303 1309.19 949.303 1314.61 Q949.303 1320.19 945.831 1323.29 Q942.359 1326.37 936.039 1326.37 Q933.863 1326.37 931.595 1326 Q929.349 1325.63 926.942 1324.89 L926.942 1320.19 Q929.025 1321.32 931.247 1321.88 Q933.47 1322.43 935.947 1322.43 Q939.951 1322.43 942.289 1320.33 Q944.627 1318.22 944.627 1314.61 Q944.627 1311 942.289 1308.89 Q939.951 1306.78 935.947 1306.78 Q934.072 1306.78 932.197 1307.2 Q930.345 1307.62 928.4 1308.5 L928.4 1291.14 Z" fill="#000000" fill-rule="nonzero" fill-opacity="1" /><path clip-path="url(#clip460)" d="M1053.09 1339.84 Q1049.95 1339.84 1048.09 1342 Q1046.26 1344.15 1046.26 1347.9 Q1046.26 1351.62 1048.09 1353.8 Q1049.95 1355.95 1053.09 1355.95 Q1056.24 1355.95 1058.07 1353.8 Q1059.92 1351.62 1059.92 1347.9 Q1059.92 1344.15 1058.07 1342 Q1056.24 1339.84 1053.09 1339.84 M1062.38 1325.19 L1062.38 1329.45 Q1060.62 1328.62 1058.81 1328.18 Q1057.03 1327.74 1055.27 1327.74 Q1050.64 1327.74 1048.19 1330.86 Q1045.76 1333.99 1045.41 1340.31 Q1046.77 1338.29 1048.83 1337.23 Q1050.89 1336.14 1053.37 1336.14 Q1058.58 1336.14 1061.59 1339.31 Q1064.62 1342.46 1064.62 1347.9 Q1064.62 1353.22 1061.47 1356.44 Q1058.33 1359.66 1053.09 1359.66 Q1047.1 1359.66 1043.93 1355.07 Q1040.76 1350.47 1040.76 1341.74 Q1040.76 1333.55 1044.64 1328.69 Q1048.53 1323.8 1055.08 1323.8 Q1056.84 1323.8 1058.63 1324.15 Q1060.43 1324.5 1062.38 1325.19 Z" fill="#000000" fill-rule="nonzero" fill-opacity="1" /><path clip-path="url(#clip460)" d="M1157.72 1357.72 L1179.94 1357.72 L1179.94 1359.71 L1167.39 1392.28 L1162.51 1392.28 L1174.31 1361.65 L1157.72 1361.65 L1157.72 1357.72 Z" fill="#000000" fill-rule="nonzero" fill-opacity="1" /><path clip-path="url(#clip460)" d="M1283.41 1409.15 Q1280.07 1409.15 1278.15 1410.94 Q1276.25 1412.72 1276.25 1415.84 Q1276.25 1418.97 1278.15 1420.75 Q1280.07 1422.53 1283.41 1422.53 Q1286.74 1422.53 1288.66 1420.75 Q1290.58 1418.94 1290.58 1415.84 Q1290.58 1412.72 1288.66 1410.94 Q1286.76 1409.15 1283.41 1409.15 M1278.73 1407.16 Q1275.72 1406.42 1274.03 1404.36 Q1272.36 1402.3 1272.36 1399.34 Q1272.36 1395.19 1275.3 1392.79 Q1278.27 1390.38 1283.41 1390.38 Q1288.57 1390.38 1291.51 1392.79 Q1294.45 1395.19 1294.45 1399.34 Q1294.45 1402.3 1292.76 1404.36 Q1291.09 1406.42 1288.11 1407.16 Q1291.48 1407.95 1293.36 1410.24 Q1295.26 1412.53 1295.26 1415.84 Q1295.26 1420.87 1292.18 1423.55 Q1289.12 1426.24 1283.41 1426.24 Q1277.69 1426.24 1274.61 1423.55 Q1271.55 1420.87 1271.55 1415.84 Q1271.55 1412.53 1273.45 1410.24 Q1275.35 1407.95 1278.73 1407.16 M1277.02 1399.78 Q1277.02 1402.46 1278.68 1403.97 Q1280.37 1405.47 1283.41 1405.47 Q1286.42 1405.47 1288.11 1403.97 Q1289.82 1402.46 1289.82 1399.78 Q1289.82 1397.09 1288.11 1395.59 Q1286.42 1394.08 1283.41 1394.08 Q1280.37 1394.08 1278.68 1395.59 Q1277.02 1397.09 1277.02 1399.78 Z" fill="#000000" fill-rule="nonzero" fill-opacity="1" /><polyline clip-path="url(#clip460)" style="stroke:#000000; stroke-linecap:round; stroke-linejoin:round; stroke-width:4; stroke-opacity:1; fill:none" points="1406.33,1410.41 1821.79,1050.61 "/>
<polyline clip-path="url(#clip460)" style="stroke:#000000; stroke-linecap:round; stroke-linejoin:round; stroke-width:4; stroke-opacity:1; fill:none" points="1415.53,1402.45 1406.89,1399.96 "/>
<polyline clip-path="url(#clip460)" style="stroke:#000000; stroke-linecap:round; stroke-linejoin:round; stroke-width:4; stroke-opacity:1; fill:none" points="1495.25,1333.4 1486.62,1330.91 "/>
<polyline clip-path="url(#clip460)" style="stroke:#000000; stroke-linecap:round; stroke-linejoin:round; stroke-width:4; stroke-opacity:1; fill:none" points="1574.98,1264.36 1566.35,1261.86 "/>
<polyline clip-path="url(#clip460)" style="stroke:#000000; stroke-linecap:round; stroke-linejoin:round; stroke-width:4; stroke-opacity:1; fill:none" points="1654.71,1195.31 1646.07,1192.82 "/>
<polyline clip-path="url(#clip460)" style="stroke:#000000; stroke-linecap:round; stroke-linejoin:round; stroke-width:4; stroke-opacity:1; fill:none" points="1734.44,1126.26 1725.8,1123.77 "/>
<polyline clip-path="url(#clip460)" style="stroke:#000000; stroke-linecap:round; stroke-linejoin:round; stroke-width:4; stroke-opacity:1; fill:none" points="1814.16,1057.22 1805.53,1054.73 "/>
<path clip-path="url(#clip460)" d="M1451.88 1421.08 Q1455.24 1421.8 1457.12 1424.07 Q1459.01 1426.34 1459.01 1429.67 Q1459.01 1434.79 1455.5 1437.59 Q1451.98 1440.39 1445.5 1440.39 Q1443.32 1440.39 1441 1439.95 Q1438.71 1439.53 1436.26 1438.68 L1436.26 1434.16 Q1438.2 1435.3 1440.52 1435.88 Q1442.83 1436.45 1445.36 1436.45 Q1449.75 1436.45 1452.05 1434.72 Q1454.36 1432.98 1454.36 1429.67 Q1454.36 1426.62 1452.21 1424.9 Q1450.08 1423.17 1446.26 1423.17 L1442.23 1423.17 L1442.23 1419.33 L1446.44 1419.33 Q1449.89 1419.33 1451.72 1417.96 Q1453.55 1416.57 1453.55 1413.98 Q1453.55 1411.32 1451.65 1409.9 Q1449.78 1408.47 1446.26 1408.47 Q1444.34 1408.47 1442.14 1408.89 Q1439.94 1409.3 1437.3 1410.18 L1437.3 1406.02 Q1439.96 1405.27 1442.28 1404.9 Q1444.62 1404.53 1446.68 1404.53 Q1452 1404.53 1455.1 1406.96 Q1458.2 1409.37 1458.2 1413.49 Q1458.2 1416.36 1456.56 1418.35 Q1454.92 1420.32 1451.88 1421.08 Z" fill="#000000" fill-rule="nonzero" fill-opacity="1" /><path clip-path="url(#clip460)" d="M1531.59 1340.19 L1519.78 1358.64 L1531.59 1358.64 L1531.59 1340.19 M1530.36 1336.11 L1536.24 1336.11 L1536.24 1358.64 L1541.17 1358.64 L1541.17 1362.52 L1536.24 1362.52 L1536.24 1370.67 L1531.59 1370.67 L1531.59 1362.52 L1515.99 1362.52 L1515.99 1358.01 L1530.36 1336.11 Z" fill="#000000" fill-rule="nonzero" fill-opacity="1" /><path clip-path="url(#clip460)" d="M1597.17 1267.07 L1615.53 1267.07 L1615.53 1271 L1601.45 1271 L1601.45 1279.47 Q1602.47 1279.13 1603.49 1278.96 Q1604.51 1278.78 1605.53 1278.78 Q1611.32 1278.78 1614.7 1281.95 Q1618.08 1285.12 1618.08 1290.54 Q1618.08 1296.12 1614.6 1299.22 Q1611.13 1302.3 1604.81 1302.3 Q1602.64 1302.3 1600.37 1301.93 Q1598.12 1301.56 1595.71 1300.82 L1595.71 1296.12 Q1597.8 1297.25 1600.02 1297.81 Q1602.24 1298.36 1604.72 1298.36 Q1608.72 1298.36 1611.06 1296.26 Q1613.4 1294.15 1613.4 1290.54 Q1613.4 1286.93 1611.06 1284.82 Q1608.72 1282.71 1604.72 1282.71 Q1602.84 1282.71 1600.97 1283.13 Q1599.12 1283.55 1597.17 1284.43 L1597.17 1267.07 Z" fill="#000000" fill-rule="nonzero" fill-opacity="1" /><path clip-path="url(#clip460)" d="M1687.78 1213.44 Q1684.63 1213.44 1682.78 1215.59 Q1680.95 1217.74 1680.95 1221.49 Q1680.95 1225.22 1682.78 1227.4 Q1684.63 1229.55 1687.78 1229.55 Q1690.93 1229.55 1692.76 1227.4 Q1694.61 1225.22 1694.61 1221.49 Q1694.61 1217.74 1692.76 1215.59 Q1690.93 1213.44 1687.78 1213.44 M1697.06 1198.78 L1697.06 1203.04 Q1695.3 1202.21 1693.5 1201.77 Q1691.71 1201.33 1689.96 1201.33 Q1685.33 1201.33 1682.87 1204.46 Q1680.44 1207.58 1680.09 1213.9 Q1681.46 1211.89 1683.52 1210.82 Q1685.58 1209.73 1688.06 1209.73 Q1693.27 1209.73 1696.27 1212.9 Q1699.31 1216.05 1699.31 1221.49 Q1699.31 1226.82 1696.16 1230.03 Q1693.01 1233.25 1687.78 1233.25 Q1681.78 1233.25 1678.61 1228.67 Q1675.44 1224.06 1675.44 1215.34 Q1675.44 1207.14 1679.33 1202.28 Q1683.22 1197.4 1689.77 1197.4 Q1691.53 1197.4 1693.31 1197.74 Q1695.12 1198.09 1697.06 1198.78 Z" fill="#000000" fill-rule="nonzero" fill-opacity="1" /><path clip-path="url(#clip460)" d="M1755.17 1128.97 L1777.39 1128.97 L1777.39 1130.97 L1764.84 1163.53 L1759.96 1163.53 L1771.77 1132.91 L1755.17 1132.91 L1755.17 1128.97 Z" fill="#000000" fill-rule="nonzero" fill-opacity="1" /><path clip-path="url(#clip460)" d="M1846.75 1078.08 Q1843.41 1078.08 1841.49 1079.86 Q1839.6 1081.64 1839.6 1084.77 Q1839.6 1087.89 1841.49 1089.67 Q1843.41 1091.46 1846.75 1091.46 Q1850.08 1091.46 1852 1089.67 Q1853.92 1087.87 1853.92 1084.77 Q1853.92 1081.64 1852 1079.86 Q1850.1 1078.08 1846.75 1078.08 M1842.07 1076.09 Q1839.06 1075.35 1837.37 1073.29 Q1835.71 1071.23 1835.71 1068.26 Q1835.71 1064.12 1838.65 1061.71 Q1841.61 1059.3 1846.75 1059.3 Q1851.91 1059.3 1854.85 1061.71 Q1857.79 1064.12 1857.79 1068.26 Q1857.79 1071.23 1856.1 1073.29 Q1854.43 1075.35 1851.45 1076.09 Q1854.83 1076.87 1856.7 1079.16 Q1858.6 1081.46 1858.6 1084.77 Q1858.6 1089.79 1855.52 1092.47 Q1852.47 1095.16 1846.75 1095.16 Q1841.03 1095.16 1837.95 1092.47 Q1834.9 1089.79 1834.9 1084.77 Q1834.9 1081.46 1836.79 1079.16 Q1838.69 1076.87 1842.07 1076.09 M1840.36 1068.7 Q1840.36 1071.39 1842.03 1072.89 Q1843.72 1074.4 1846.75 1074.4 Q1849.76 1074.4 1851.45 1072.89 Q1853.16 1071.39 1853.16 1068.7 Q1853.16 1066.02 1851.45 1064.51 Q1849.76 1063.01 1846.75 1063.01 Q1843.72 1063.01 1842.03 1064.51 Q1840.36 1066.02 1840.36 1068.7 Z" fill="#000000" fill-rule="nonzero" fill-opacity="1" /><polyline clip-path="url(#clip460)" style="stroke:#000000; stroke-linecap:round; stroke-linejoin:round; stroke-width:4; stroke-opacity:1; fill:none" points="686.728,1202.68 686.728,483.08 "/>
<polyline clip-path="url(#clip460)" style="stroke:#000000; stroke-linecap:round; stroke-linejoin:round; stroke-width:4; stroke-opacity:1; fill:none" points="686.728,1134.2 691.714,1129.88 "/>
<polyline clip-path="url(#clip460)" style="stroke:#000000; stroke-linecap:round; stroke-linejoin:round; stroke-width:4; stroke-opacity:1; fill:none" points="686.728,990.665 691.714,986.347 "/>
<polyline clip-path="url(#clip460)" style="stroke:#000000; stroke-linecap:round; stroke-linejoin:round; stroke-width:4; stroke-opacity:1; fill:none" points="686.728,847.131 691.714,842.813 "/>
<polyline clip-path="url(#clip460)" style="stroke:#000000; stroke-linecap:round; stroke-linejoin:round; stroke-width:4; stroke-opacity:1; fill:none" points="686.728,703.597 691.714,699.279 "/>
<polyline clip-path="url(#clip460)" style="stroke:#000000; stroke-linecap:round; stroke-linejoin:round; stroke-width:4; stroke-opacity:1; fill:none" points="686.728,560.063 691.714,555.745 "/>
<path clip-path="url(#clip460)" d="M601.748 1120 Q598.137 1120 596.308 1123.56 Q594.503 1127.1 594.503 1134.23 Q594.503 1141.34 596.308 1144.9 Q598.137 1148.45 601.748 1148.45 Q605.382 1148.45 607.188 1144.9 Q609.017 1141.34 609.017 1134.23 Q609.017 1127.1 607.188 1123.56 Q605.382 1120 601.748 1120 M601.748 1116.29 Q607.558 1116.29 610.614 1120.9 Q613.692 1125.48 613.692 1134.23 Q613.692 1142.96 610.614 1147.57 Q607.558 1152.15 601.748 1152.15 Q595.938 1152.15 592.859 1147.57 Q589.804 1142.96 589.804 1134.23 Q589.804 1125.48 592.859 1120.9 Q595.938 1116.29 601.748 1116.29 Z" fill="#000000" fill-rule="nonzero" fill-opacity="1" /><path clip-path="url(#clip460)" d="M621.91 1145.6 L626.794 1145.6 L626.794 1151.48 L621.91 1151.48 L621.91 1145.6 Z" fill="#000000" fill-rule="nonzero" fill-opacity="1" /><path clip-path="url(#clip460)" d="M637.026 1116.92 L655.382 1116.92 L655.382 1120.85 L641.308 1120.85 L641.308 1129.33 Q642.327 1128.98 643.345 1128.82 Q644.364 1128.63 645.382 1128.63 Q651.169 1128.63 654.549 1131.8 Q657.928 1134.97 657.928 1140.39 Q657.928 1145.97 654.456 1149.07 Q650.984 1152.15 644.664 1152.15 Q642.489 1152.15 640.22 1151.78 Q637.975 1151.41 635.567 1150.67 L635.567 1145.97 Q637.651 1147.1 639.873 1147.66 Q642.095 1148.21 644.572 1148.21 Q648.576 1148.21 650.914 1146.11 Q653.252 1144 653.252 1140.39 Q653.252 1136.78 650.914 1134.67 Q648.576 1132.57 644.572 1132.57 Q642.697 1132.57 640.822 1132.98 Q638.97 1133.4 637.026 1134.28 L637.026 1116.92 Z" fill="#000000" fill-rule="nonzero" fill-opacity="1" /><path clip-path="url(#clip460)" d="M591.563 1004.01 L599.202 1004.01 L599.202 977.644 L590.892 979.311 L590.892 975.051 L599.155 973.385 L603.831 973.385 L603.831 1004.01 L611.47 1004.01 L611.47 1007.94 L591.563 1007.94 L591.563 1004.01 Z" fill="#000000" fill-rule="nonzero" fill-opacity="1" /><path clip-path="url(#clip460)" d="M620.915 1002.07 L625.799 1002.07 L625.799 1007.94 L620.915 1007.94 L620.915 1002.07 Z" fill="#000000" fill-rule="nonzero" fill-opacity="1" /><path clip-path="url(#clip460)" d="M645.984 976.463 Q642.373 976.463 640.544 980.028 Q638.739 983.57 638.739 990.699 Q638.739 997.806 640.544 1001.37 Q642.373 1004.91 645.984 1004.91 Q649.618 1004.91 651.424 1001.37 Q653.252 997.806 653.252 990.699 Q653.252 983.57 651.424 980.028 Q649.618 976.463 645.984 976.463 M645.984 972.76 Q651.794 972.76 654.85 977.366 Q657.928 981.949 657.928 990.699 Q657.928 999.426 654.85 1004.03 Q651.794 1008.62 645.984 1008.62 Q640.174 1008.62 637.095 1004.03 Q634.04 999.426 634.04 990.699 Q634.04 981.949 637.095 977.366 Q640.174 972.76 645.984 972.76 Z" fill="#000000" fill-rule="nonzero" fill-opacity="1" /><path clip-path="url(#clip460)" d="M592.558 860.475 L600.197 860.475 L600.197 834.11 L591.887 835.777 L591.887 831.517 L600.151 829.851 L604.827 829.851 L604.827 860.475 L612.466 860.475 L612.466 864.411 L592.558 864.411 L592.558 860.475 Z" fill="#000000" fill-rule="nonzero" fill-opacity="1" /><path clip-path="url(#clip460)" d="M621.91 858.531 L626.794 858.531 L626.794 864.411 L621.91 864.411 L621.91 858.531 Z" fill="#000000" fill-rule="nonzero" fill-opacity="1" /><path clip-path="url(#clip460)" d="M637.026 829.851 L655.382 829.851 L655.382 833.786 L641.308 833.786 L641.308 842.258 Q642.327 841.911 643.345 841.749 Q644.364 841.564 645.382 841.564 Q651.169 841.564 654.549 844.735 Q657.928 847.906 657.928 853.323 Q657.928 858.901 654.456 862.003 Q650.984 865.082 644.664 865.082 Q642.489 865.082 640.22 864.712 Q637.975 864.341 635.567 863.6 L635.567 858.901 Q637.651 860.036 639.873 860.591 Q642.095 861.147 644.572 861.147 Q648.576 861.147 650.914 859.04 Q653.252 856.934 653.252 853.323 Q653.252 849.712 650.914 847.605 Q648.576 845.499 644.572 845.499 Q642.697 845.499 640.822 845.915 Q638.97 846.332 637.026 847.212 L637.026 829.851 Z" fill="#000000" fill-rule="nonzero" fill-opacity="1" /><path clip-path="url(#clip460)" d="M594.78 716.941 L611.1 716.941 L611.1 720.877 L589.156 720.877 L589.156 716.941 Q591.818 714.187 596.401 709.557 Q601.007 704.904 602.188 703.562 Q604.433 701.039 605.313 699.303 Q606.216 697.543 606.216 695.854 Q606.216 693.099 604.271 691.363 Q602.35 689.627 599.248 689.627 Q597.049 689.627 594.595 690.391 Q592.165 691.155 589.387 692.705 L589.387 687.983 Q592.211 686.849 594.665 686.27 Q597.118 685.692 599.155 685.692 Q604.526 685.692 607.72 688.377 Q610.915 691.062 610.915 695.553 Q610.915 697.682 610.104 699.604 Q609.317 701.502 607.211 704.094 Q606.632 704.766 603.53 707.983 Q600.429 711.178 594.78 716.941 Z" fill="#000000" fill-rule="nonzero" fill-opacity="1" /><path clip-path="url(#clip460)" d="M620.915 714.997 L625.799 714.997 L625.799 720.877 L620.915 720.877 L620.915 714.997 Z" fill="#000000" fill-rule="nonzero" fill-opacity="1" /><path clip-path="url(#clip460)" d="M645.984 689.395 Q642.373 689.395 640.544 692.96 Q638.739 696.502 638.739 703.631 Q638.739 710.738 640.544 714.303 Q642.373 717.844 645.984 717.844 Q649.618 717.844 651.424 714.303 Q653.252 710.738 653.252 703.631 Q653.252 696.502 651.424 692.96 Q649.618 689.395 645.984 689.395 M645.984 685.692 Q651.794 685.692 654.85 690.298 Q657.928 694.881 657.928 703.631 Q657.928 712.358 654.85 716.965 Q651.794 721.548 645.984 721.548 Q640.174 721.548 637.095 716.965 Q634.04 712.358 634.04 703.631 Q634.04 694.881 637.095 690.298 Q640.174 685.692 645.984 685.692 Z" fill="#000000" fill-rule="nonzero" fill-opacity="1" /><path clip-path="url(#clip460)" d="M595.776 573.407 L612.095 573.407 L612.095 577.343 L590.151 577.343 L590.151 573.407 Q592.813 570.653 597.396 566.023 Q602.003 561.37 603.183 560.028 Q605.429 557.505 606.308 555.769 Q607.211 554.009 607.211 552.32 Q607.211 549.565 605.267 547.829 Q603.345 546.093 600.243 546.093 Q598.044 546.093 595.591 546.857 Q593.16 547.621 590.382 549.171 L590.382 544.449 Q593.206 543.315 595.66 542.736 Q598.114 542.158 600.151 542.158 Q605.521 542.158 608.716 544.843 Q611.91 547.528 611.91 552.019 Q611.91 554.148 611.1 556.07 Q610.313 557.968 608.206 560.56 Q607.628 561.232 604.526 564.449 Q601.424 567.644 595.776 573.407 Z" fill="#000000" fill-rule="nonzero" fill-opacity="1" /><path clip-path="url(#clip460)" d="M621.91 571.463 L626.794 571.463 L626.794 577.343 L621.91 577.343 L621.91 571.463 Z" fill="#000000" fill-rule="nonzero" fill-opacity="1" /><path clip-path="url(#clip460)" d="M637.026 542.783 L655.382 542.783 L655.382 546.718 L641.308 546.718 L641.308 555.19 Q642.327 554.843 643.345 554.681 Q644.364 554.496 645.382 554.496 Q651.169 554.496 654.549 557.667 Q657.928 560.838 657.928 566.255 Q657.928 571.833 654.456 574.935 Q650.984 578.014 644.664 578.014 Q642.489 578.014 640.22 577.644 Q637.975 577.273 635.567 576.532 L635.567 571.833 Q637.651 572.968 639.873 573.523 Q642.095 574.079 644.572 574.079 Q648.576 574.079 650.914 571.972 Q653.252 569.866 653.252 566.255 Q653.252 562.644 650.914 560.537 Q648.576 558.431 644.572 558.431 Q642.697 558.431 640.822 558.847 Q638.97 559.264 637.026 560.144 L637.026 542.783 Z" fill="#000000" fill-rule="nonzero" fill-opacity="1" /><polyline clip-path="url(#clip462)" style="stroke:#009af9; stroke-linecap:round; stroke-linejoin:round; stroke-width:4; stroke-opacity:1; fill:none" points="1127.36,923.123 1123.94,924.958 1127.34,923.475 1116.64,928.748 1124.46,925.186 1139.88,917.987 1141.5,917.308 1139.53,918.318 1148.98,913.893 1145.94,915.443 1143.31,916.819 1158.89,909.396 1152.11,912.553 1147.32,914.901 1142.85,917.196 1132.95,922.211 1138.02,920.153 1126.72,925.733 1131.78,923.756 1112.95,933.384 1123.1,929.288 1114.92,933.817 1108.45,937.978 1115.9,935.197 1106.7,940.217 1087.95,950.577 1093.39,949.825 1106.51,944.235 1182.55,906.895 1194.4,894.175 1174.26,900.766 1151.86,909.892 1147.61,909.125 1123.38,923.121 1150.87,910.351 1116.58,930.298 1171.12,901.551 1104.27,940.188 1056.31,970.96 1080.17,962.366 1091.78,952.748 1100.7,942.453 1084.49,954.762 1110.24,937.344 1151.95,916.129 1193.31,892.181 1386.12,762.699 1353.22,767.536 1313.37,790.976 1270.86,808.52 1245.43,826.291 1244.59,828.415 1347.54,748.397 1324.55,764.556 1376.2,737.545 1325.1,769.116 1371,728.68 1271.26,805.471 1140.84,899.22 1191.08,873.459 1149.78,899.331 1161.64,893.682 1240.55,844.881 1163.74,894.502 1225.69,856.125 1253.86,826.791 1196.01,864.515 1161.93,891.877 1148.83,909.426 1095.47,933.708 996.655,1001.84 1009.26,1006.59 1035.41,992.391 996.02,1015.8 1004.47,1017.27 942.984,1044.2 990.661,1020.36 1029.91,997.227 1050.03,991.193 1075.31,959.481 1057.72,963.482 1086.37,956.447 1252.88,849.774 1400.07,749.551 1470.38,674.334 1458.2,663.498 1456.61,659.201 1437.61,677.397 1407.96,698.188 1385.06,712.301 1339.32,760.515 1452.43,688.141 1548.69,608.783 1482.99,625.993 1425.85,671.044 1380.88,706.367 1388.67,714.474 1330.84,764.873 1318.19,774.769 1327.88,778.758 1315.39,788.747 1274.64,810.927 1211.5,859.295 1123.44,915.989 1092.17,946.955 1022.29,990.391 1012.22,1001.65 1089.75,964.762 1171.31,915.383 1090.21,956.335 1201.1,890.316 1227.12,864.038 1242.24,848.323 1208.01,870.193 1225.09,862.886 1191.76,874.596 1240.65,843.743 1216.3,866.341 1285.05,823.239 1209.17,856.742 1182.03,879.462 1160.23,891.803 1077.88,956.781 1032.82,981.682 1106.35,939.357 1212.07,868.893 1321.4,797.403 1347.99,764.199 1386.68,704.922 1403.03,701.582 1390.07,715.42 1298.25,791.582 1315.82,779.102 1442.2,693.69 1498.47,643.843 1560.05,584.554 1616.27,527.621 1649.56,509.778 1708.86,452.937 1624.63,511.863 1566.39,561.695 1547.6,571.909 1561.31,564.563 1451.26,649.271 1398.5,691.211 1369.64,722.945 1368.29,736.253 1451.48,688.068 1387.01,723.517 1449.13,691.527 1400.94,713.011 1446.78,679.266 1392.46,712.825 1442.68,666.362 1403.93,702.67 1346.17,767.555 1333.47,775.027 1366.15,748.397 1318.75,779.76 1345.46,765.305 1430.85,703.033 1383.81,734.178 1412.51,709.957 1262.04,826.708 1167.58,884.609 1116.62,926.816 1230.4,861.791 1279.53,819.916 1266.17,819.281 1287.53,809.521 1310.95,784.948 1267.74,823.177 1211.71,870.532 1219.01,856.096 1193.13,877.577 1339.75,765.899 1266.54,809.429 1275.97,807.365 1282.47,800.745 1419.51,706.812 1508.88,640.029 1497.08,643.785 1476.72,645.311 1535.34,585.87 1466.65,653.334 1539.58,598.706 1434.51,674.666 1445.96,667.784 1361.08,722.917 1400.31,707.279 1387.97,711.088 1378.08,729.18 1330.74,763.657 1240.28,832.086 1230.24,849.724 1273.6,824.781 1206.46,859.155 1275.17,819.744 1107.57,927.735 1081.77,951.186 1058.98,961.565 1061.96,975.189 1128.16,937.268 1217.67,880.223 1291.67,823.215 1288.41,817.417 1240.37,840.99 1203.4,869.715 1261.72,834.923 1297.74,804.228 1187.26,873.082 1233.38,844.814 1242.04,837.544 1357.84,754.228 1373.71,748.31 1317.24,765.076 1323.89,764.423 1252.49,815.288 1215.29,849.374 1247.39,834.461 1306.72,801.38 1325.56,780.083 1401.38,727.414 1471.99,664.22 1459.94,661.914 1506.68,620.563 1386.23,702.976 1298.35,766.099 1232.01,823.268 1246.86,824.412 1316.44,794.743 1432.57,707.766 1443.54,686.397 1424,684.443 1598.49,573.662 1506.97,617.348 1529.66,609.634 1585.47,559.672 1488.59,636.602 1454.28,657.889 1457.5,663.655 1523.28,615.192 1439.98,668.022 1487.81,643.766 1370.62,728.746 1522.05,630.385 1474.04,647.439 1548.99,593.523 1511.51,613.821 1455.86,650.029 1574.56,582.198 1443.16,676.759 1364.34,741.57 1343.04,760.045 1230.84,838.26 1277.37,815.573 1271.36,814.552 1320.75,784.885 1409.52,705.543 1383.5,714.182 1434.76,680.403 1428.81,690.76 1437.35,679.796 1450.48,680.511 1396.63,707.433 1282.23,791.091 1386.74,734.768 1358.44,745.369 1227.95,838.421 1335.97,785.641 1351.02,768.701 1279.39,808.003 1395.11,734.819 1412.57,713.811 1401.76,717.221 1352.42,742.415 1385.63,732.897 1280.32,796.85 1262.3,818.136 1254.61,832.986 1188.76,872.753 1183.99,873.942 1225.62,859.326 1282.02,822.594 1246.61,844.566 1214.08,864.144 1213.85,857.79 1255.16,840.369 1306.38,808.551 1297.89,796.594 1307.25,777.398 1379.38,743.228 1324.38,781.603 1472.69,650.63 1487.11,636.892 1442.3,663.07 1365.51,722.006 1389.96,716.206 1350.29,759.866 1295.65,794.807 1289.09,801.436 1226.83,844.952 1236.03,846.538 1256.95,833.65 1208.04,856.291 1190.83,868.45 1179.09,886.924 1116.27,928.146 1184.63,886.521 1115.62,915.515 1156.48,884.716 1165.82,889.964 1105.96,942.329 1075.2,956.648 1192.63,877.164 1145.85,896.376 1195.22,879.885 1365.1,769.449 1477.5,667.942 1376.46,732.088 1330.31,764.321 1417.48,700.485 1467.68,668.141 1455.58,670.327 1470.77,648.528 1481.99,627.996 1404.01,703.186 1400.2,707.014 1411.52,703.329 1387.84,711.864 1489.05,651.579 1383.79,728.692 1281.83,795.441 1282.98,811.767 1171.52,887.716 1163.38,892.178 1013.6,993.37 988.974,1011.35 990.009,1015.66 975.095,1026.36 926.101,1054.35 875.973,1085.12 884.598,1085.75 941.246,1060.5 925.468,1063.59 1022.33,1015.07 973.778,1036.73 963.064,1036.36 951.464,1043.27 1001.27,1022.7 992.983,1021.69 1027.32,1001.61 1003.8,1010.78 979.997,1027.66 951.866,1041.13 944.049,1043.9 1098.11,962.893 1205.41,890.37 1190.15,887.108 1198.09,881.734 1259.32,837.528 1336.88,777.316 1433.35,703.984 1395.5,713.087 1479.03,656.625 1475.79,667.282 1430.36,684.602 1354.66,754.561 1369.93,746.997 1404.73,715.12 1390.77,730.703 1402.39,718.184 1457.09,672.149 1467.44,667.34 1470.66,685.127 1581.37,581.257 1408.15,718.809 1429.08,691.051 1418.23,684.922 1310.38,770.847 1297.26,787.97 1305.07,782.453 1328.45,769.951 1318.84,766.318 1248.73,833.071 1194.5,865.834 1151.5,894.706 1132.63,919.947 1147.72,911.133 1125.02,923.324 1199.45,882.736 1291.05,828.249 1299.1,802.614 1310.52,788.445 1266.15,814.033 1354.86,760.485 1384.63,737.566 1266.74,805.811 1290.69,793.496 1240.92,831.791 1066.64,946.24 1097.23,946.502 1167.59,910.403 1168.12,912.446 1097.72,952.183 1180.15,899.744 1268.23,838.287 1285.62,823.529 1297.62,821.05 1280.51,818.384 1257.19,831.654 1271.04,824.964 1180.69,892.679 1169.65,894.503 1218.84,869.548 1267.29,829.986 1217.26,854.932 1179.51,873.165 1126.57,910.435 1187.89,878.161 1175.47,888.146 1202.45,868.671 1161.06,901.962 1114.62,930.034 1065.24,965.176 1006.47,1004.4 1055.29,984.157 1063.97,968.972 1132.77,930.39 1193.62,872.535 1130.65,910.819 1116.56,929.661 1048.65,974.419 1052.75,975.071 1003.09,1005.89 1052.29,984.884 1068.74,975.06 1032.03,997.037 1000.29,1019.88 1038.79,990.285 1021.77,999.844 1063.6,980.41 1066.15,969.098 1110.47,941.451 1210.62,875.426 1152.61,914.342 1068.28,961.241 1108.34,933.473 1135.36,917.433 1068.7,957.851 1046.06,975.759 1136.71,914.41 1116.39,933.607 1048.5,974.331 1071.2,959.245 1138.92,911.79 1153.24,898.543 1265.33,837.534 1068.53,978.985 1185.33,909.595 1180.26,890.934 1183.23,887.09 1247.23,844.357 1230.22,858.979 1306.74,803.554 1261.98,824.076 1357.3,763.697 1343.18,769.64 1349.46,758.226 1282.23,803.713 1338.73,731.81 1421.1,677.73 1446.24,662.591 1444.4,685.91 1364.47,742.453 1456.11,675.21 1422.21,701.522 1477.11,655.253 1535.55,611.56 1580.75,558.528 1501.72,615.635 1479.73,620.453 1569.78,563.755 1462.12,651.218 1455.44,678.221 1301.12,781.591 1236.41,838.148 1244.01,842.157 1248.59,844.757 1150.97,897.693 1137.45,922.325 1216.1,882.647 1169.67,898.058 1146.76,912.832 1175.31,894.306 1217.46,870.662 1147.64,908.279 1192.39,887.06 1260.87,837.63 1275.58,817.054 1318.02,785.887 1327.73,774.683 1263.53,828.136 1257.5,831.128 1253.39,835.101 1298.18,785.239 1350.52,759.718 1360.85,754.691 1366.91,766.71 1359.04,753.668 1323.71,766.972 1307.67,784.506 1415.47,713.809 1416.91,694.948 1353.66,734.839 1311.46,773.527 1226.12,838.121 1214.12,852.8 1216.75,857.452 1304,809.887 1239.98,842.856 1239.2,837.013 1414.05,712.373 1315.33,769.346 1285.43,793.886 1349.91,755.531 1308.84,781.929 1308.11,772.222 1400.73,718.69 1367.88,747.265 1353.89,750.575 1213.18,862.363 1192.88,871.718 1182.99,879.519 1209.13,870.321 1161.45,906.533 1256.26,846.93 1275.98,827.081 1247.16,847.147 1295.07,818.532 1247.49,841.929 1160.32,906.329 1120.43,933.203 1072.54,968.399 1070.93,969.431 1029.95,1003.78 971.94,1020.16 910.829,1063.14 882.96,1075.14 916.888,1067.15 988.327,1033.62 1000.94,1026.83 1083.21,967.429 1114.81,946.667 1122.46,941.316 1130.67,928.56 1152.41,913.063 1103.51,943.78 1054.4,974.88 1058.79,976.261 1099.77,942.942 1074.49,965.233 1173.68,900.59 1216.04,864.263 1335.84,786.575 1297.34,802.777 1279.39,808.779 1235.22,831.634 1384.25,716.026 1441.42,682.178 1402.77,707.523 1335.26,753.407 1369.71,738.712 1322.89,764.741 1300.5,801.562 1220.42,847.909 1225.72,853.066 1294.89,814.503 1278.71,820.971 1190.72,862.404 1199.92,862.49 1160.88,889.797 1220.22,858.649 1249.61,846.461 1236.61,847.17 1259.99,823.993 1319.52,785.224 1298.06,802.712 1374.5,720.389 1393.95,712.894 1325.85,758.66 1390.9,733.54 1431.4,697.464 1301.78,794.032 1318.34,783.303 1329.4,763.116 1346.39,756.744 1239.99,823.884 1261.29,812.22 1203.88,861.832 1227.55,849.015 1179.38,878.908 1159.51,900.125 1173.05,892.893 1216.49,864.049 1281.76,817.177 1292.21,807.708 1324.34,790.054 1285.31,802.968 1286.82,802.381 1309.2,784.509 1234.65,838.913 1233.88,844.558 1135.96,904.816 1191.27,882.487 1192.5,876.527 1252.42,843.111 1226.53,854.406 1270.76,819.466 1334.08,769.327 1306,771.254 1375.13,714.03 1255.87,813.345 1227.55,845.166 1252.43,825.719 1257.53,821.863 1213.16,844.487 1310.32,793.037 1531.39,634.148 1653.97,514.581 1633.71,508.277 1723.28,437.649 1739.39,414.571 1657.78,469.453 1635.75,503.836 1562.74,556.033 1524.44,591.514 1511.85,609.93 1583.77,549.694 1545.53,580.591 1596.89,555.116 1626.39,521.891 1644.83,502.514 1491.18,600.924 1477.07,622.9 1519.37,609.326 1502.21,622.805 1472.8,641.984 1475.73,653.736 1445.99,674.797 1516.8,632.214 1499.31,627.372 1500.29,640.691 1505.05,626.734 1497.91,628.755 1349.27,738.877 1399.88,714.771 1336.92,755.672 1394.4,720.256 1266.95,803.549 1340.47,767.046 1268.74,815.495 1265.85,828.511 1326.99,779.566 1399.2,721.524 1464.32,666.749 1439.6,667.849 1375.75,726.587 1282.33,794.197 1256.63,823.517 1334,778.871 1349.18,753.036 1290.56,792.243 1291.34,794.955 1355.05,745.242 1373.27,741.501 1455.3,682.122 1513.36,619.363 1493,631.132 1385.81,712.332 1352.33,736.654 1341.74,757.013 1418.55,708.12 1382.12,718.723 1388.9,716.929 1385.38,734.645 1327.11,770.653 1361.73,752.531 1423.42,706.409 1526.56,624.13 1442.06,668.193 1433.86,683.225 1284.85,791.322 1348.73,764.654 1291.1,805.161 1222.79,847.91 1323.07,799.243 1343.67,775.127 1169.57,886.75 1080.46,947.014 1109.25,943.286 1033,988.245 979.89,1023.97 987.084,1022.34 1098.77,963.369 1132.67,927.416 1145.11,917.612 1151.18,910.075 1229.39,860.43 1257.15,845.778 1274.76,825.083 1359.56,766.456 1532.78,649.701 1599.66,573.762 1618.5,537.448 1567.56,561.191 1688.33,476.15 1567.79,547.17 1651.7,501.695 1570.49,556.701 1583.54,561.219 1526.45,582.919 1472.39,620.697 1417.28,668.986 1539.07,604.246 1507.02,618.215 1544.56,591.664 1454.93,658.072 1391.04,708.47 1332.04,754.964 1286.5,791.738 1252.25,829.064 1304.36,804.809 1273.13,816.09 1291.13,800.73 1266.71,830.697 1256.05,831.565 1316.02,793.557 1353.24,758.969 1359.55,752.425 1290.01,791.791 1296.3,792.562 1259.25,821.917 1247.56,830.209 1289.56,805.201 1314.79,786.523 1286.06,798.803 1250.16,821.586 1344.56,774.832 1352.71,766.09 1378.83,747.247 1468.17,659.446 1448.19,669.305 1311.18,778.722 1280.59,803.454 1379.81,743.708 1351.15,756.485 1357.71,751.161 1348.72,750.221 1242.89,833.018 1276.46,813.167 1294.87,799.55 1292.89,794.918 1233.19,840.81 1182.6,875.063 1098.65,932.549 1233.06,863.684 1259.77,833.6 1280.9,811.105 1252.64,823.332 1299.88,798.808 1452.2,703.988 1488.53,666.192 1463.11,674.514 1467.63,670.474 1497.77,637.62 1611.01,547.221 1566.28,568.503 1582,532.99 1500.89,597.235 1528.17,594.483 1491.62,628.099 1630.44,535.814 1496.09,623.374 1434.43,678.025 1468.84,659.392 1471.13,658.518 1437.71,679.934 1454.83,670.175 1409.84,706.546 1503.4,637.918 1449.34,666.435 1368.58,721.026 1281.04,786.303 1321.6,775.994 1336.32,763.033 1321.62,762.846 1404.3,712.265 1316.63,771.712 1300.44,782.59 1401.16,697.367 1455.01,667.945 1389.33,714.674 1305.52,759.861 1292.81,779.432 1200.5,851.797 1222.46,849.771 1194.92,875.466 1161.21,898.411 1202.2,879.641 1223.24,854.826 1196.28,876.39 1254.48,842.463 1291.52,795.69 1345.39,757.664 1297.08,795.453 1232.7,842.014 1259.46,840.332 1328.79,776.145 1269.55,813.585 1328.48,773.833 1293.55,791 1368.58,745.771 1362.06,740.745 1261.97,815.768 1156.65,891.529 1178.75,884.165 1203.44,874.243 1210.09,871.126 1140.78,915.097 1207.98,875.732 1310.44,816.877 1265.14,839.146 1279.05,806.197 1319.99,787.843 1199.7,868.684 1257.22,839.39 1368.73,752.006 1375.97,736.912 1324.75,760.286 1337.59,762.975 1348.59,752.171 1399.31,723.286 1226.42,847.957 1226.48,851.655 1133.3,909.975 1197.57,879.676 1281.13,822.15 1312.51,792.55 1227.76,849.472 1344.25,775.094 1489.6,672.622 1379.66,721.152 1442.23,681.437 1396.16,717.69 1366.05,732.55 1434.13,673.411 1416.25,688.608 1370.54,727.439 1377.35,726.868 1287.09,789.673 1311.89,782.507 1294.55,791.758 1214.64,849.06 1188.88,870.885 1220.7,861.92 1130.51,913.676 1089.57,946.768 1111.62,939.416 1169.58,902.509 1096.22,942.421 1184.92,896.028 1162.19,903.152 1239.44,845.192 1217.09,862.767 1285.8,810.77 1254.68,827.96 1182.67,878.04 1237.54,849.231 1268.48,823.525 1366.56,757.355 1358.06,756.387 1324.23,777.33 1327.59,786.548 1412.58,725.294 1539.17,638.687 1639.18,534.658 1560.02,570.096 1412.81,668.739 1292.87,764.852 1286.7,784.772 1270.25,806.704 1320.21,778.117 1396.19,734.867 1286.83,803.414 1299.3,795.357 1293.18,806.719 1390.22,733.976 1431.73,695.393 1366,732.655 1219.28,834.106 1281.02,807.91 1268.13,813.315 1222.94,847.155 1306.27,804.894 1270.15,822.624 1241.38,838.545 1220.05,849.545 1270.26,824.407 1322.54,802.067 1347.67,777.892 1363.07,765.9 1319.35,773.514 1302.37,787.197 1362.62,753.211 1461.84,671.553 1398.62,706.536 1417.04,699.439 1375.15,723.833 1485.72,661.713 1459.12,666.545 1363.32,723.575 1402.15,709.083 1493.32,647.573 1454.44,665.592 1433.34,676.058 1386.12,716.537 1392.17,716.69 1471.42,669.547 1420.64,698.394 1337.62,762.976 1259.35,814.179 1291.08,801.206 1204.32,859.447 1212.13,860.696 1178.24,880.87 1127.08,914.521 1207.34,871.193 1212.9,860.736 1149.44,900.043 1094.48,944.646 1076.28,957.458 1119.14,936.793 1094.67,944.094 1136.77,908.497 1123.84,930.673 1123.12,929.563 1282.51,815.663 1324.56,787.152 1334.98,770.29 1444.34,693.594 1366.06,733.119 1443.31,687.105 1464.6,660.928 1484.55,640.056 1452.31,660.941 1477.39,653.575 1471.55,648.296 1366.33,737.174 1260.85,800.487 1211.66,851.904 1222.25,856.304 1167.52,890.34 1068.28,954.648 1075.08,961.496 1040.23,979.934 989.901,1009.96 1067.04,977.405 1009.54,1009.17 1048.76,987.28 1031.71,984.952 1049.42,975.268 1008.55,1003.91 1029.4,994.295 1111.29,943.876 1028.77,988.399 1074.5,963.816 1062.28,969.56 1083.68,952.042 1033.85,979.965 1017.14,989.931 1108.94,933.087 1164.32,901.074 1116.46,926.671 1060.72,963.387 957.517,1029.92 882.109,1075.95 964.632,1040.04 923.999,1059.19 834.7,1110.31 943.354,1058.19 1029.8,1010.92 1034.07,1001.04 1045.7,989.479 1007.61,1011.32 1042.56,992.472 1040.71,990.713 1045.14,982.019 1060.26,975.111 1104.73,946.764 1043.77,981.095 1076.87,963.023 944.262,1057.19 950.288,1044.95 966.941,1041.32 941.886,1053.39 1087.45,970.003 1045.17,990.178 1053.83,984.06 1017.79,998.259 1058.88,978.591 1052.94,989.949 1045.73,994.025 1107.76,949.76 1097.28,950.503 1032.24,999.861 1091.36,958.021 1178.95,908.201 1117.02,928.907 1151.83,913.62 1192.01,887.29 1208.51,875.251 1231.35,856.594 1408.25,739.012 1370.6,754.69 1349.94,769.213 1363.42,749.533 1377.93,733.939 1361.66,746.444 1300.34,798.28 1391.47,726.022 1310.5,779.79 1320,778.186 1358.42,745.714 1443.15,670.813 1489.41,642.434 1454.03,662.731 1502.91,621.721 1472.66,644.729 1406.72,684.42 1378.93,716.454 1514.4,620.426 1528.24,602.1 1398,701.927 1242.63,812.337 1234.38,833.238 1195.86,867.001 1168.47,893.499 1269.6,838.22 1237.38,855.35 1240.18,855.964 1370.4,754.946 1388.36,737.293 1372.52,736.1 1406.09,708.653 1470.29,648.286 1580.39,572.983 1584.24,559.856 1511.86,613.751 1416.43,690.177 1427.88,684.58 1363.5,725.874 1295.64,788.901 1295.37,789.395 1307.73,788.852 1269.66,814.471 1264.05,825.718 1361.14,767.924 1277.23,815.477 1306.62,805.362 1427.26,718.062 1535.1,620.424 1556.25,586.511 1590.08,561.995 1639.32,503.706 1634.13,493.726 1765.9,392.586 1772.95,369.76 1781.69,361.826 1657.62,460.062 1754.43,396.492 1705.53,422.365 1552.87,539.26 1559.56,555.514 1621.66,526.96 1602.76,535.638 1540.32,580.484 1398.51,684.228 1398.9,697.633 1410.48,702.44 1371.54,729.2 1423.41,704.181 1408.48,715.443 1372.68,734.469 1326.33,759.382 1361.49,743.291 1314.49,779.207 1198,862.774 1209.37,858.688 1202.15,867.159 1146.62,906.031 1125.57,919.851 1165.91,899.289 1094.98,942.446 1016.31,992.584 1086.25,954.251 1177.01,901.573 1178.37,898.376 1186.21,883.389 1191.89,886.951 1113.05,935.073 1109.96,956.556 1140.93,931.73 1234.27,863.911 1112.2,929.335 1068.01,959.228 1143.89,918.715 1121.7,925.45 1088.15,947.712 1188.66,873.676 1214.34,867.969 1249.23,836.414 1177.83,882.149 1184.26,879.34 1155.15,900.971 1143.75,918.111 1093.68,952.883 1133.35,929.136 1173.8,892.539 1255.06,848.786 1245.29,842.625 1265.32,832.511 1213.21,861.31 1120.54,919.865 1122.31,926.222 1008.76,1000.66 1014.36,1004.78 1056.73,979.508 1158.42,917.63 1112.96,933.67 1087.04,948.455 1089.35,952.804 1016.27,1003.58 1032.69,1004.41 1093.97,966.191 1102.34,954.645 1118.73,935.71 1029.87,992.494 1142.53,922.647 1120.82,928.284 1130.22,922.741 1170.69,899.889 1256.04,843.769 1218.96,859.825 1204.36,877.123 1290.27,811.876 1295.94,792.793 1240.37,830.105 1128.83,915.466 1060.89,964.119 972.222,1023.52 928.365,1048.43 857.73,1091.21 822.594,1112.71 855.486,1101.75 915.331,1076.77 967.172,1048.67 1066.28,983.63 1067.98,977.18 1036.41,989.564 1080.24,972.088 1068.15,973.206 996.08,1009.34 1090.16,964.665 1161.81,924.585 1165.75,912.733 1142.5,918.184 1062.42,959.565 997.833,1005.47 1001.13,1004.89 967.883,1027.28 1069.51,973.816 1049.15,986.801 1009.42,1009.6 1002.81,1019.94 1039.07,995.651 1034.53,997.367 1057.39,980.547 1113.77,946.763 1130.09,929.639 1208.46,867.192 1242.01,845.579 1318.35,780.593 1226.52,838.532 1233.92,837.977 1225.05,845.054 1260.77,824.068 1255.06,810.427 1274.7,810.532 1198.13,863.222 1219.56,856.928 1302.28,808.802 1414.98,709.953 1493.34,648.48 1557.45,583.995 1565.16,566.594 1581.03,549.167 1591.91,531.74 1571.01,549.326 1454.49,649.643 1360.24,717.035 1295.48,779.736 1321.44,773.399 1326.64,775.541 1289.44,800.75 1315.81,790.421 1298.13,803.07 1358.12,767.114 1299.55,800.546 1253.28,830.086 1349.31,772.912 1325.43,781.289 1267.47,827.357 1261.2,820.015 1158.65,897.116 1107.65,944.289 1075.48,968.26 1079.29,966.961 1151.33,918.534 1178.94,890.541 1179.73,887.602 1222.87,863.148 1139.07,917.362 1161.45,901.169 1136.93,910.174 1178.01,887.445 1105.96,953.524 941.532,1056.56 1055.61,995.862 1083.56,963.545 1203.29,892.862 1161.83,898.025 1225.49,867.754 1205.01,864.549 1153.26,893.821 1211.69,869.712 1164.47,903.899 1189.43,889.567 1249.46,852.075 1147.3,917.221 1207.27,867.878 1177.63,885.601 1140.46,903.427 1199.7,873.763 1202.23,864.918 1141.74,909.785 1327.2,794.631 1323.64,769.242 1371.6,732.98 1332.21,770.132 1371.46,737.437 1244.02,825.7 1202.5,869.546 1149.49,899.204 1139,906.682 1187.7,870.636 1174.28,884.829 1217.92,838.821 1118.38,916.82 1067.15,955.775 968.547,1017.77 1066.22,974.777 1111.45,935.039 1135.01,926.109 1137.77,923.588 1190.03,891.797 1176.86,884.902 1176.51,889.015 1222.37,863.487 1289.36,813.003 1283.49,813.994 1301.15,804.016 1313.56,792.818 1260.25,833.97 1258.34,825.675 1388.12,729.418 1351.4,720.843 1545.34,604.084 1478.3,643.128 1387.61,724.813 1393.08,719.091 1447.13,680.695 1468.3,657.062 1394.98,712.211 1478.05,655.297 1424.22,682.896 1410.22,678.771 1346.26,740.828 1264.57,804.713 1252.56,825.547 1314.33,799.567 1231.73,845.599 1243.24,832.779 1303.16,792.577 1297.86,786.527 1289.89,801.557 1325.66,777.53 1402.3,725.469 1450.83,682.298 1382.35,711.225 1413.11,685.806 1288.99,785.99 1276.83,803.248 1273.52,811.761 1312.42,790.032 1297.98,805.889 1325.42,787.41 1317.6,784.709 1333.51,765.673 1345.18,766.25 1312.84,769.672 1430.43,669.182 1458.44,635.776 1391.82,702.132 1369.76,722.658 1399.82,714.833 1441.37,695.037 1385.71,720.668 1385.75,723.103 1352.49,754.546 1358,748.978 1351.31,754.216 1301.16,798.605 1323.33,771.377 1379.2,731.586 1342.99,745.708 1388.19,715.442 1421.69,669.799 1504.39,625.162 1394.41,703.731 1470.65,649.702 1338.33,755.589 1271.56,806.49 1294.14,794.755 1207.12,862.845 1195.11,873.248 1257.69,836.68 1233.91,849.983 1383.56,752.252 1383.33,742.31 1375.55,738.764 1396.45,728.687 1404.92,715.587 1381.44,729.307 1446.16,695.291 1409.14,706.661 1370.45,730.86 1383.43,717.554 1255.47,811.434 1274.36,807.722 1231.88,835.518 1285.12,809.423 1359.59,756.941 1431.29,692.825 1457.27,666.94 1499.84,649.809 1450.74,675.356 1556.13,599.498 1621.84,506.304 1568.79,544.692 1542.82,578.821 1470.92,642.377 1405.58,691.833 1463.1,666.484 1511.76,627.412 1563.77,572.777 1575.15,564.1 1603.29,553.916 1551.91,577.248 1598.14,547.994 1436.45,666.376 1364.05,723.95 1401.8,716.065 1397.36,724.358 1381.67,735.805 1349.91,760.116 1274.33,797.084 1240.98,836.825 1233.65,845.935 1283.65,818.573 1308.75,802.226 1306.11,798.17 1365.13,756.08 1366.1,740.504 1335.44,749.215 1326.83,760.644 1346.63,751.898 1298.85,797.388 1146.43,900.096 1104.06,933.901 1074.39,954.282 1011.94,1001.51 994.798,1018.26 1017.05,1001.26 967.246,1033.88 963.667,1041.7 951.944,1047.07 919.375,1063.81 886.666,1083.96 906.259,1068.47 869.239,1092.26 899.172,1080.89 887.792,1088.55 925.821,1068.82 900.79,1077.48 904.55,1077.54 890.919,1086.27 922.868,1069.67 981.359,1033.25 942.826,1051.06 940.98,1049.81 1014.87,1008.48 1002.34,1016.54 1002.2,1010.05 963.113,1035.83 969.824,1036.67 988.979,1025.25 1001.19,1014.84 1023.41,1001.67 935.597,1053.98 904.771,1072.03 869.083,1099.61 757.508,1154 740.02,1167.85 718.853,1178.01 753.996,1165.63 796.723,1142.87 789.815,1140.69 768.357,1150.41 784.353,1143.98 816.577,1129.38 854.173,1111.6 859.048,1107.55 898.504,1085.25 989.704,1032.64 931.26,1056.04 917.003,1064.57 908.818,1071.18 989.593,1028.79 961.519,1041.99 1013.56,1011.94 1000.21,1008.71 1024,1002.97 1037.69,986.389 1140.6,935.589 1114.56,936.719 1097.67,947.112 1060.98,968.794 1045.37,986.295 1086.31,962.665 1066.95,972.01 1119.45,940.23 1101.64,946.068 1041.63,984.484 1052.63,973.218 1116.66,919.996 1160.55,902.055 1224.59,857.087 1273.78,823.598 1240.31,843.164 1226.4,851.006 1346.42,770.467 1335.56,771.207 1303.55,783.858 1290.02,787.661 1356.26,735.127 1328.22,764.858 1340.8,754.192 1301.85,778.884 1372.09,744.593 1265.98,806.625 1196.41,853.764 1173.05,877.533 1205.28,867.2 1155.54,900.711 1208.59,863.561 1215.6,857.223 1112.61,934.447 1060.52,974.427 1081.11,965.138 1045.34,971.439 1111.02,934.49 1140.31,917.865 1158.44,913.361 1099.39,955.962 1067.71,967.64 1046.85,987.257 1055.39,980.552 1015.71,1006.07 887.595,1081.67 873.842,1096.87 901.166,1084.41 858.539,1099.86 892.954,1080.72 954.94,1052.16 1015.61,1017.3 989.185,1026.42 952.517,1042.48 993.912,1023.07 1141.89,929.816 1189.91,892.995 1194.25,873.331 1102.91,928.254 1070.74,948.223 1045.56,974.982 1015.1,996.782 1046,987.155 964.555,1034.6 1026.77,1007.02 1121.63,941.507 1184.77,899.732 1237.4,857.073 1231.42,857.029 1241.56,847.839 1209.65,872.484 1258.44,830.399 1280.15,822.788 1182.32,874.835 1219.9,851.725 1279.33,809.646 1215.88,854.138 1246.9,830.891 1296.35,790.348 1395.97,719.078 1343.58,781.665 1154.96,902.47 1118.82,911.182 1046.45,962.623 1071.93,960.603 1082.89,959.91 1100.28,953.591 1129.24,925.895 1182.84,889.081 1264.85,825.482 1313.63,783.825 1182.04,883.529 1155.71,908.588 1079.44,957.244 1071.97,941.461 1072.69,956.25 1111.56,934.544 1074.27,958.016 1118.56,935.652 1054.62,975.709 1107.68,939.146 1074.94,961.232 1123.25,924.91 1053.97,978.15 1166.8,909.644 1162.98,913.985 1173.89,893.152 1175.95,899.784 1179.25,891.048 1280.6,814.255 1248.31,838.007 1228.43,847.1 1263.49,831.39 1301.64,809.467 1330.78,765.761 1320.3,772.697 1329.56,778.76 1314.34,789.213 1295.38,796.425 1286.82,805.569 1281.33,815.353 1303.68,797.843 1176.11,884.706 1207.86,865.253 1164.4,899.412 1219.36,855.709 1068.43,955.59 1048.39,971.893 1013.66,993.908 986.475,1014.47 1085.66,964.761 1090.31,946.947 1156.5,912.655 1150.26,919.227 1226.88,869.87 1148.61,916.221 1147.8,915.23 1084.09,952.933 1196.43,883.215 1268.97,825.364 1168.68,889.605 1176.59,893.031 1215.79,850.125 1299.82,801.674 1321.52,776.989 1200.45,869.513 1135.5,917.727 1062.53,963.987 1130.33,935.018 1138.36,909.552 1174.3,892.481 1186.8,888.077 1215.79,865.779 1323.53,781.801 1286.21,806.394 1387.53,731.643 1394.73,717.78 1355.73,744.801 1295.32,783.415 1270.15,817.221 1314.45,798.337 1364.43,748.366 1357.92,749.544 1398.68,724.528 1395.24,715.721 1343.58,749.795 1362,737.698 1389.5,712.193 1351.53,739.717 1392.92,716.412 1434.24,691.105 1437.01,671.724 1379.44,720.76 1345.24,748.716 1345.21,754.764 1299.27,787.894 1499.3,653.706 1412.1,700.797 1306.38,781.879 1308.5,784.315 1227.92,837.192 1261.74,819.832 1259.69,821.547 1280.46,811.65 1358.03,762.367 1490.84,663.814 1368.87,748.364 1460,681 1606.98,544.041 1561.4,569.523 1603.78,535.415 1447.71,656.24 1432.56,670.204 1424.53,677.123 1367.2,731.688 1533.08,624.054 1523.43,622.69 1478.5,645.674 1479.89,644.289 1477.94,643.984 1428.34,685.974 1358.6,739.525 1333.92,769.757 1377.95,730.043 1441.99,688.422 1482.5,650.934 1465.83,663.579 1463.68,658.983 1538.92,601.594 1546.26,577.11 1630.29,531.429 1462.72,668.788 1465.47,671.951 1455.21,681.142 1410.63,701.537 1456.75,661.839 1460.99,668.877 1516.68,614.699 1505.65,628.909 1393.43,716.319 1428.13,683.026 1466.97,648.562 1390.22,714.766 1502.88,641.33 1417.9,699.922 1363.73,738.543 1251.73,814.39 1129.87,898.018 1134.75,909.581 1123.53,924.716 1099.91,945.416 1102.93,945.391 1125.62,928.001 1044.36,972.793 1120.61,940.814 1104.76,940.083 1056.62,970.251 1039.92,985.953 955.188,1036.15 1020.96,1003.18 1061.98,976.498 1031.15,996.222 1091.93,952.847 1115.54,940.899 1167.44,893.585 1170.45,886.666 1116.38,927.484 1157.71,914.08 1172.71,898.517 1226.6,860.357 1249.16,833.759 1232.84,839.815 1275.89,829.163 1330.4,770.378 1394.99,729.433 1295.68,792.733 1417.04,716.936 1404.52,699.614 1349.87,745.097 1378.86,729.554 1307.63,781.131 1351.6,757.159 1322.67,785.179 1260.06,814.64 1224.15,851.503 1207.36,864.045 1142.28,905.001 1133.27,918.297 1266.88,838.844 1348.35,774.85 1401.09,731.621 1511.26,648.407 1450.9,661.306 1566.62,584.815 1509.54,604.422 1466.05,633.211 1465.25,644.801 1522.95,612.59 1386.11,696.244 1471.91,649.122 1378,715.881 1307.02,771.706 1347.58,762.257 1239.25,836.024 1316.15,787.633 1261.54,828.771 1250.94,841.168 1254.02,830.18 1367.93,753.85 1315.43,781.732 1346.29,762.664 1414.86,699.511 1394.1,708.661 1445.25,682.428 1328.53,769.6 1280.5,807.316 1288.18,803.696 1386.84,740.619 1391.79,731.149 1497.77,639.352 1450.72,676.402 1480.96,649.985 1435.57,683.857 1419.61,689.294 1329.8,750.393 1329.55,768.604 1370.44,748.478 1290.31,790.775 1246.37,816.567 1268.81,803.558 1205.2,863.077 1122.01,916.869 1101.06,935.525 1083.76,950.532 1117.56,935.326 1112.29,932.332 1207.68,867.987 1206.6,873.059 1195.91,885.992 1203.93,874.661 1189.34,884.667 1270.27,827.036 1368.18,767.882 1496.56,659.487 1458.86,669.753 1371.85,722.327 1449.79,679.687 1395.64,721.531 1329.7,759.007 1292.27,790.764 1388.05,732.338 1386.62,742.875 1354.28,765.79 1339.43,762.084 1439.18,691.779 1378.12,719.718 1338.78,749.975 1226.58,839.825 1181.46,874.864 1159.66,890.389 1186.88,875.506 1190.65,879.914 1136.32,914.297 1182.95,887.791 1169.51,899.577 1077.94,955.618 1187.71,875.943 1190.04,878.983 1367.85,761.457 1477.3,673.404 1346.44,757.349 1354.08,741.152 1309.18,769.833 1350.6,742.786 1263.2,790.366 1216.76,841.002 1157.38,884.198 1161.03,890.18 1177.16,887.42 1154.11,899.094 1233.09,863.249 1198.08,888.548 1191.04,877.421 1214.5,862.208 1172.15,888.882 1096.32,942.219 1090.45,947.879 1040.93,979.964 995.957,1011.42 1029.64,992.55 1026.76,994.617 1007.51,1007.74 1139.8,930.61 1110.59,932.829 1053.32,972.236 1086.57,958.107 1161.04,913.39 1108.99,949.316 1098.38,952.667 1081.56,965.17 1068.65,964.107 1049.72,970.836 1050.68,972.8 1078.56,956.898 1052.96,948.867 1002.86,997.661 1062.24,977.089 1139.28,933.436 1103.39,947.982 1043.2,981.004 1157.91,917.518 1155.84,907.086 1174.54,890.409 1158.21,899.416 1200.12,876.201 1288.95,810.421 1281.9,812.16 1270.57,819.527 1304.39,789.308 1336.45,764.235 1375.84,742.048 1425.02,711.955 1427.17,697.497 1426.71,693.138 1395.9,717.732 1493.45,645.212 1448.61,666.543 1331.08,757.542 1407.22,712.638 1400.7,705.462 1422.31,686.326 1306.4,751.602 1329.89,762.539 1318.18,781.88 1177.61,877.092 1124.78,916.653 1076.66,947.72 1117.37,935.547 1057.83,975.388 1020.2,998.15 1005.61,1008.72 1115.78,951.056 1199.96,895.29 1164.8,912.703 1121.59,937.132 1055.9,975.886 1059.48,980.108 1012.88,1012.6 981.829,1030.17 1049.45,989.05 1110.3,943.98 1199.45,887.108 1105.63,938 1110.88,942.326 1144.44,917.472 1230.71,856.711 1367.88,754.725 1363.3,736.92 1305.7,779.561 1312.59,777.62 1222.07,855.665 1176.83,881.223 1209.76,869.5 1255.25,841.173 1274.98,812.299 1263.43,819.401 1245.23,828.956 1407.71,722.699 1384.53,733.302 1283.84,797.037 1271.74,815.264 1309.91,789.387 1292.83,802.646 1294.52,806.535 1220.07,849.648 1219.31,849.426 1206.49,857.31 1096.25,939.666 1070.96,959.009 1118.14,935.21 1097.57,949.382 1083.21,961.984 995.029,1010.07 976.102,1029.77 992.821,1022.93 889.189,1082.81 965.377,1046.68 959.081,1047.23 1018.68,1012.66 1014,1010.17 1002.92,1017.94 955.905,1039.26 1012.47,1009.9 1047.07,990.372 968.63,1030.43 1012.52,1008.88 949.039,1051.53 931.16,1058.27 936.914,1059.27 960.567,1045.89 960.026,1044.25 1006.07,1018.66 1041.52,991.983 1044.58,990.25 1088.89,959.058 1092.89,958.394 1131.07,927.557 1120.92,932.684 1079.45,963.039 1070.83,973.761 1067.5,977.881 1143.45,924.522 1078.08,960.377 1012.61,1005.42 931.965,1051.34 868.709,1091.17 810.258,1124.25 793.299,1134.73 789.958,1142.66 795.793,1139.89 797.201,1138.72 757.134,1156.8 814.535,1134.63 837.261,1122.28 838.795,1117.71 866.041,1104.46 1017.81,1023.11 1050.25,997.041 1106.39,953.274 1056.65,975.069 1072.69,965.419 1032.2,993.219 1097.24,958.605 1079.42,961.269 1116.44,935.688 1138.02,926.296 1107.35,942.711 1229.1,853.555 1229.45,858.215 1228.43,855.496 1232.26,847.629 1309.39,793.886 1423.46,704.228 1224.81,823.474 1259.64,818.112 1309.62,788.669 1272.38,810.716 1268.52,810.43 1309.25,778.38 1367.76,745.405 1385.42,734.596 1323.84,777.012 1332,781.702 1412.61,714.983 1450.08,673.914 1347.95,735.719 1496.64,654.882 1508.47,629.28 1429.88,686.153 1405.64,715.039 1402.94,711.487 1355.27,757.385 1301.75,794.385 1345.23,769.315 1307.34,778.944 1343.41,768.76 1340.51,772.719 1339.14,763.171 1418.06,704.424 1315.63,766.302 1415.41,720.156 1461.66,678.264 1408.14,707.288 1334.07,773.696 1218.15,853.878 1350.95,778.005 1253.06,816.983 1101.69,923.683 1041.14,966.704 1122.34,932.995 1164.42,911.325 1205.69,873.849 1136.06,910.392 1070.4,951.917 1102.76,945.862 1102.24,951.079 1097.94,949.501 1112.99,933.033 1097.77,941.927 1242.14,867.539 1142.96,931.792 1220.53,884.262 1164.2,907.684 1150.71,914.711 1165.59,904.444 1160.49,914.03 1154.24,903.465 1222.34,872.86 1335.75,797.452 1314.47,785.845 1217.82,839.635 1122.82,908.098 1080.96,939.154 1073.45,951.145 1061.47,965.016 1062.38,969.139 1116.65,942.223 1104.45,944.063 1155.21,915.239 1164.89,907.377 1113.28,937.076 1069.47,957.987 1059.02,969.979 1093.84,949.733 1134.19,924.971 1207.02,882.771 1271.86,826.715 1273.41,815.169 1260.09,824.233 1355.12,762.371 1313.68,783.566 1283.02,809.104 1148.72,895.171 1116.86,931.635 1128.05,923.892 1132.46,918.941 1118.27,928.411 1111.42,932.695 1154.25,913.648 1110.45,942.299 1079.13,960.996 1102.88,949.417 1068.48,976.81 1125.45,928.989 1193.85,882.752 1306.87,807.744 1206.47,871.52 1224.2,854.386 1260.2,811.153 1216.79,848.442 1225.79,851.303 1137.01,909.251 1118.04,914.168 1295.49,809.846 1499.86,662.907 1504.67,634.579 1460,657.664 1437.02,676.037 1347.24,735.998 1369.35,736.075 1378.95,715.849 1374.54,728.685 1341,762.472 1288.01,800.064 1225.95,850.667 1175.61,883.625 1195.54,869.155 1188.82,886.528 1233.8,862.643 1284.02,818.871 1204.44,862.179 1251.63,838.038 1273.8,828.57 1390.71,745.86 1377.56,739.801 1477.49,672.511 1426.82,695.658 1376.65,732.81 1364.84,737.427 1541.81,622.048 1667.48,492.4 1557.86,559.48 1507.02,598.463 1565.1,567.463 1469.88,629.998 1472.13,649.483 1392.72,700.787 1491.89,645.54 1411.89,694.311 1399.92,708.981 1294.92,780.441 1349.27,762.9 1352.62,744.387 1263.19,809.74 1271.73,814.197 1258.99,826.519 1234.8,851.257 1327.15,781.962 1289.86,798.562 1313.91,781.87 1171.76,878.48 1112.41,923.323 1082.31,948.813 1018.7,992.379 1051.19,981.103 1030.93,990.36 1052.36,978.13 1134.15,932.147 1108.47,938.137 1105.74,941.681 1053.02,970.931 1065.58,971.139 1111.01,938.112 1048.26,971.701 1124.29,940.478 1132.9,936.264 1191.14,899.536 1090.09,957.352 1120.34,926.448 1163.84,899.903 1137.37,926.852 1207.31,875.358 1289.62,812.605 1321.87,780.421 1192.25,867.414 1079.4,941.372 1167.83,902.449 1221.09,866.619 1213.3,850.894 1166.13,882.064 1192.89,882.941 1107.52,938.921 1221.42,874.788 1166.79,906.461 1168.06,910.633 1180.74,872.964 1137.98,905.75 1082.08,940.188 1062.46,963.572 1023.81,989.722 1058.42,976.984 1056.7,984.549 1154.89,924.125 1150.43,911.601 1211.26,869.999 1176.08,883.676 1216.6,857.158 1304.94,794.301 1168.36,884.833 1181.44,889.117 1211.32,866.121 1257.5,820.232 1390.29,718.163 1461.75,670.685 1377.47,720.965 1495.79,626.409 1405.06,702.04 1398.97,713.54 1472.21,654.416 1477.25,628.656 1394.05,695.351 1338.75,734.663 1230.38,820.667 1212.11,847.91 1196.08,867.582 1214.71,862.879 1231.6,852.526 1248.67,848.706 1414.28,734.692 1395.71,730.258 1357.83,737.998 1389.71,714.41 1413.43,698.77 1296.51,789.776 1236.87,827.334 1288.29,804.335 1337.78,776.696 1412.54,720.7 1400.98,724.359 1543.93,629.358 1442.73,679.453 1425.21,686.283 1377.8,714.13 1359.92,741.393 1359.78,744.543 1329.33,765.881 1226.8,837.938 1223.96,846.279 1137.62,905.08 1124.27,919.559 1166.71,898.584 1234.48,862.39 1251.18,840.263 1238.52,845.73 1264.91,823.457 1270.53,818.599 1284.97,817.699 1332.3,788.223 1268.7,823.992 1211.68,858.368 1238.58,837.73 1221.5,860.236 1230.39,852.877 1271.26,828.748 1217.55,852.082 1250.2,836.022 1270.76,824.982 1357.32,770.196 1454.86,671.812 1515.47,615.593 1428.03,666.383 1431.86,676.047 1348.28,736.002 1265.38,807.457 1243.18,827.493 1234.8,844.406 1177,883.131 1214.4,862.917 1187.06,882.717 1185.44,883.557 1190.7,877.807 1240.77,852.925 1214.44,863.984 1299.21,803.346 1393.42,732.433 1410.57,716.939 1643.07,534.358 1639.49,507.943 1688.34,446.986 1567,549.251 1459.55,630.922 1404.64,685.603 1440.6,666.987 1449.6,672.971 1404.84,704.482 1346.29,745.42 1401.08,716.97 1334.54,770.062 1480.28,680.655 1371.68,736.254 1334.72,757.745 1284.81,798.838 1219.35,848.73 1249.36,838.166 1187.71,878.723 1214.83,858.62 1299.48,798.862 1338.05,772.043 1460.62,686.581 1287.98,786.702 1328.18,778.218 1369.77,747.305 1375.13,731.678 1267.58,802.78 1293.95,792.34 1241.25,832.319 1243.86,840.825 1167.22,897.363 1167.29,895.484 1219.28,856.35 1260.89,833.262 1203.68,866.027 1125.11,909.58 1105.97,937.029 1050.96,976.152 1189.95,897.081 1146.89,917.089 1143.18,921.611 1201.66,875.618 1281.89,823.321 1291.73,803.607 1189.28,861.374 1115.64,925.001 1163.19,905.579 1200.61,886.506 1297.93,819.416 1300.84,804.132 1284.63,809.306 1337.51,780.944 1421.96,715.248 1431.72,701.192 1354.51,744.374 1445.1,688.074 1451.5,677.474 1480.06,651.622 1521.31,614.521 1590.43,547.49 1592.3,538.88 1510.52,603.671 1521.43,611.098 1474.69,635.018 1495.14,631.925 1594.84,545.119 1507.99,608.823 1440.73,661.095 1419.81,685.951 1465.71,657.098 1436.9,670.839 1278.3,782.18 1193.99,851.908 1194.6,864 1168.25,886.097 1153.53,902.694 1085.42,946.556 1103.33,946.334 1161.73,911.695 1251.6,853.968 1150.75,906.747 1046.73,967.624 1049.88,973.652 1077.65,960.972 1087.56,958.622 1082.18,952.619 1022.38,986.632 1023.94,991.433 1026.9,990.797 1116.09,946.885 1072.44,955.498 1166.46,915.164 1181.8,889.94 1211.37,869.895 1308.89,802.838 1324.61,787.05 1365,764.303 1259.24,838.021 1301.9,814.842 1279.75,819.102 1295.11,801.49 1252.07,835.123 1360.99,749.313 1289.29,790.688 1258.44,819.215 1234.9,835.981 1173.84,873.297 1090.13,932.713 1106.1,935.529 1147.98,916.752 1126.83,922.496 1139.59,922.473 1239.73,854.004 1276.3,823.644 1277.62,817.026 1310.67,792.92 1379.2,737.669 1353.52,749.575 1252.8,816.104 1304.88,794.249 1253.4,830.315 1220.74,870.432 1177.23,878.188 1097.1,940.093 1105.07,935.046 1084.29,954.026 1068.66,963.141 1051.82,978.915 1016.13,1003.22 972.947,1029.76 949.931,1039.7 895.069,1073.56 878.107,1092.18 877.314,1090.33 928.788,1063.52 942.407,1055.12 1080.42,977.521 1116.81,945.406 1075.19,959.463 1125.32,929.55 1139.28,922.974 1239.2,848.908 1175.16,886.556 1124.27,920.542 1194.83,877.398 1242.59,851.189 1106.15,944.571 1159.72,910.943 1323.54,802.278 1462.64,688.959 1451.63,672.565 1549.31,601.032 1604.56,548.913 1578.8,557.248 1677.72,454.077 1634.44,490.285 1662.24,457.407 1789.67,359.361 1701.34,428.268 1691.35,438.237 1713.52,430.93 1628.53,496.377 1588.57,527.36 1555.33,560.246 1620.65,530.351 1662.32,502.512 1677.53,473.54 1719.05,433.983 1590.18,529.736 1610.79,529.45 1649.7,507.746 1713.83,458.574 1621.79,512.861 1677.04,477.881 1610.7,515.344 1712.35,451.639 1682.64,462.838 1550.28,558.201 1433.22,650.287 1550.44,589.883 1633.4,538.345 1591,554.869 1549.17,577.231 1589.31,557.812 1631.24,531.634 1753.82,437.387 1721.72,425.713 1699.49,441.043 1704.34,436.397 1687.26,441.759 1706.52,424.367 1665.42,459.765 1692.59,451.197 1697.65,450.086 1701.77,445.786 1606.19,515.928 1581.89,540.097 1486.06,620.767 1454.51,648.981 1449.79,666.797 1465.49,662.561 1536.77,610.654 1475.18,646.185 1451.97,662.144 1370.34,724.184 1331.71,756.867 1295.84,787.177 1322.69,781.947 1355.17,764.4 1430.72,712.175 1347.33,751.497 1445.47,687.312 1494.73,656.096 1443.2,676.834 1426.94,687.736 1352.47,754.192 1335,766.85 1433.22,689.656 1544.66,610.584 1553.32,591.893 1510.89,622.686 1551.43,593.616 1466.4,657.145 1427.08,686.715 1396.09,709.911 1262.83,808.711 1281.26,812.594 1398.17,744.729 1397.3,732.555 1417.18,708.938 1311.21,779.189 1387.6,729.621 1417.96,696.433 1438.45,685.093 1362.36,734.605 1361.38,741.447 1346.03,750.191 1346.21,761.724 1288.19,800.63 1474.11,676.72 1618.8,552.665 1601.1,540.412 1651.36,495.932 1620.63,507.356 1589.79,536.997 1557.86,577.694 1548.89,575.602 1440.87,654.379 1465.09,660.312 1455.46,673.643 1437.81,683.161 1423.3,697.298 1345.11,750.264 1400.19,721.351 1430.78,691.962 1412.19,694.485 1392.28,704.992 1404.82,715.457 1344.46,759.709 1286.28,803.973 1200.99,849.929 1326.56,781.505 1392.87,717.221 1354.38,747.576 1288.64,786.972 1305.7,792.727 1259.88,819.329 1258.42,826.267 1331.94,776.693 1331.07,780.7 1364.53,761.134 1268.16,824.092 1193.85,871.917 1335.45,791.777 1510.94,674.442 1441.51,699.99 1459.23,671.889 1420.99,687.512 1491.14,642.895 1449.6,673.793 1386.16,707.696 1322.6,767.666 1250.14,819.914 1325.38,784.629 1451.24,704.608 1605.23,574.631 1528.89,601.365 1534.35,602.138 1529.6,603.086 1509.55,619.09 1436.5,666.797 1349.96,731.971 1274.8,799.426 1191.63,856.855 1271.01,821.431 1210.63,853.477 1193,864.9 1266.25,824.864 1165.21,887.772 1110.12,920.353 1068.11,955.691 1075.84,959.287 1101.81,950.863 1115.93,942.292 1134.94,926.607 1140.8,927.866 1151.56,920.168 1085.25,957.189 1059.43,972.75 1053.97,981.311 1256.78,856.309 1263.22,828.49 1221.34,843.094 1194.22,861.15 1133.32,912.12 1077.37,945.122 1076.88,956.104 1123.64,929.407 1115.01,930.392 1090.17,949.296 1085.02,962.288 1100.47,955.18 1079.27,961.904 1141.88,918.83 1210.49,878.026 1274.59,822.903 1244.63,830.603 1216.52,864.664 1307.13,806.642 1350.73,767.712 1331.51,777.456 1373.86,737.931 1298.35,790.827 1380.58,716.107 1448.74,670.318 1422.54,689.191 1435.29,665.085 1407.12,694.66 1419.55,682.474 1386.79,708.481 1321.78,762.474 1311.53,783.627 1376.78,745.048 1391.17,745.146 1420.46,722.746 1491.55,649.111 1488.28,626.804 1568.38,572.595 1454.31,659.681 1408.74,697.373 1352.72,748.284 1335.41,761.126 1379.73,734.175 1432.55,688.171 1436.25,676.552 1394.77,696.814 1340.23,748.298 1286.94,792.529 1247.22,831.221 1269.39,829.878 1204.02,859.776 1202.57,863.624 1242.38,834.918 1216.26,852.269 1150.56,894.139 1128.85,905.325 1128.65,914.275 1252.6,840.978 1311.65,797.949 1268.88,815.697 1194.51,865.775 1261.39,827.278 1275.08,847.403 1182.8,903.178 1202.18,888.067 1228.85,875.324 1242.94,882.428 1216.95,887.499 1274.41,829.283 1287.84,813.926 1425.06,715.786 1411.27,702.05 1316.39,766.59 1292.83,797.224 1415.29,719.519 1504.84,646.368 1572.7,589.01 1485.29,645.372 1558,570.926 1702.02,474.392 1631.84,520.354 1564.72,557.172 1529.9,582.034 1473.95,639.616 1407.46,692.341 1449.93,681.811 1367.46,737.538 1360.61,754.716 1324.96,773.598 1255.93,820.336 1227.64,847.814 1225.06,858.275 1237.46,847.828 1210.42,871.14 1265.92,833.759 1259.24,839.07 1239.78,845.556 1171.23,887.641 1126.27,914.406 1169.05,890.603 1146.75,915.355 1204.23,877.862 1222.65,854.159 1229.08,848.34 1265.15,826.237 1243.02,834.324 1474.02,672.105 1489.88,648.6 1475.77,648.404 1449.4,675.16 1379.42,724.837 1395.57,724.484 1349.75,756.898 1402.13,708.094 1344.14,757.668 1318.12,778.707 1344.5,761.849 1381.47,733.227 1480,655.612 1460.3,661.357 1509.39,619.571 1553.38,581.085 1499.75,636.836 1630.67,538.173 1656.15,486.729 1472.48,625.506 1424.2,673.489 1298.75,764.598 1299.82,780.073 1244.94,826.135 1192.93,861.733 1282.91,819.475 1379.54,757.765 1367.73,757.774 1367.77,745.219 1363.53,741.983 1417.67,687.793 1438.33,682.898 1429.44,691.96 1354.96,740.02 1266.24,806.206 1181.16,867.028 1138.23,909.265 1230.15,862.397 1321.71,799.34 1326.05,790.574 1326.26,774.963 1354.54,761.331 1309.74,778.932 1339.54,764.108 1299.99,793.622 1287.63,802.458 1208.14,857.075 1251.77,839.317 1272.62,827.575 1290.61,806.552 1286.04,809.617 1288.03,808.074 1291.93,802.841 1267.32,818.373 1235.64,837.558 1226.34,850.033 1158.24,895.514 1117.09,920.927 1035.61,977.224 1080.06,958.949 982.156,1011.14 1003.66,1006.77 1027.11,1004.33 1088.47,968.203 1148.66,929.689 1180.06,904.316 1144.33,915.794 1258.34,844.874 1311.5,803.578 1336.61,783.725 1374.41,742.642 1442.99,700.39 1504.52,644.525 1628.01,537.145 1677.25,480.197 1695.11,459.017 1581.52,540.941 1649.01,497.041 1614.44,527.035 1561.59,559.975 1465.77,635.104 1390.63,702.993 1311.35,765.357 1335.05,761.407 1308.61,785.463 1283.01,810.775 1229.71,852.68 1236.52,851.189 1140.96,905.921 1112.34,925.402 1153.64,910.693 1156.8,905.057 1140.97,915.935 1124.92,931.924 1239.59,844.031 1250.58,842.696 1303.2,802.104 "/>
<path clip-path="url(#clip460)" d="M228.998 198.898 L588.673 198.898 L588.673 95.2176 L228.998 95.2176  Z" fill="#ffffff" fill-rule="evenodd" fill-opacity="1"/>
<polyline clip-path="url(#clip460)" style="stroke:#000000; stroke-linecap:round; stroke-linejoin:round; stroke-width:4; stroke-opacity:1; fill:none" points="228.998,198.898 588.673,198.898 588.673,95.2176 228.998,95.2176 228.998,198.898 "/>
<polyline clip-path="url(#clip460)" style="stroke:#009af9; stroke-linecap:round; stroke-linejoin:round; stroke-width:4; stroke-opacity:1; fill:none" points="253.409,147.058 399.875,147.058 "/>
<path clip-path="url(#clip460)" d="M434.911 128.366 Q431.809 133.69 430.305 138.898 Q428.8 144.106 428.8 149.453 Q428.8 154.801 430.305 160.055 Q431.832 165.287 434.911 170.588 L431.207 170.588 Q427.735 165.148 425.999 159.893 Q424.286 154.639 424.286 149.453 Q424.286 144.291 425.999 139.06 Q427.712 133.828 431.207 128.366 L434.911 128.366 Z" fill="#000000" fill-rule="nonzero" fill-opacity="1" /><path clip-path="url(#clip460)" d="M464.726 138.412 L455.351 151.027 L465.212 164.338 L460.189 164.338 L452.642 154.152 L445.096 164.338 L440.073 164.338 L450.142 150.773 L440.929 138.412 L445.953 138.412 L452.828 147.648 L459.703 138.412 L464.726 138.412 Z" fill="#000000" fill-rule="nonzero" fill-opacity="1" /><path clip-path="url(#clip460)" d="M472.318 158.458 L477.202 158.458 L477.202 162.439 L473.406 169.847 L470.42 169.847 L472.318 162.439 L472.318 158.458 Z" fill="#000000" fill-rule="nonzero" fill-opacity="1" /><path clip-path="url(#clip460)" d="M497.087 166.745 Q495.281 171.375 493.568 172.787 Q491.855 174.199 488.985 174.199 L485.582 174.199 L485.582 170.634 L488.082 170.634 Q489.841 170.634 490.813 169.8 Q491.786 168.967 492.966 165.865 L493.73 163.921 L483.244 138.412 L487.758 138.412 L495.86 158.689 L503.962 138.412 L508.475 138.412 L497.087 166.745 Z" fill="#000000" fill-rule="nonzero" fill-opacity="1" /><path clip-path="url(#clip460)" d="M515.443 158.458 L520.327 158.458 L520.327 162.439 L516.531 169.847 L513.545 169.847 L515.443 162.439 L515.443 158.458 Z" fill="#000000" fill-rule="nonzero" fill-opacity="1" /><path clip-path="url(#clip460)" d="M527.573 138.412 L547.804 138.412 L547.804 142.301 L531.785 160.935 L547.804 160.935 L547.804 164.338 L526.994 164.338 L526.994 160.449 L543.012 141.815 L527.573 141.815 L527.573 138.412 Z" fill="#000000" fill-rule="nonzero" fill-opacity="1" /><path clip-path="url(#clip460)" d="M553.637 128.366 L557.341 128.366 Q560.813 133.828 562.526 139.06 Q564.262 144.291 564.262 149.453 Q564.262 154.639 562.526 159.893 Q560.813 165.148 557.341 170.588 L553.637 170.588 Q556.716 165.287 558.22 160.055 Q559.748 154.801 559.748 149.453 Q559.748 144.106 558.22 138.898 Q556.716 133.69 553.637 128.366 Z" fill="#000000" fill-rule="nonzero" fill-opacity="1" /></svg>
