<?xml version="1.0" encoding="utf-8"?>
<svg xmlns="http://www.w3.org/2000/svg" xmlns:xlink="http://www.w3.org/1999/xlink" width="600" height="400" viewBox="0 0 2400 1600">
<defs>
  <clipPath id="clip540">
    <rect x="0" y="0" width="2400" height="1600"/>
  </clipPath>
</defs>
<path clip-path="url(#clip540)" d="M0 1600 L2400 1600 L2400 0 L0 0  Z" fill="#ffffff" fill-rule="evenodd" fill-opacity="1"/>
<defs>
  <clipPath id="clip541">
    <rect x="480" y="0" width="1681" height="1600"/>
  </clipPath>
</defs>
<defs>
  <clipPath id="clip542">
    <rect x="155" y="47" width="2198" height="1440"/>
  </clipPath>
</defs>
<path clip-path="url(#clip542)" d="M-1279.51 2779.24 L-1279.51 2482.52 L-1145.59 2334.16 L-913.624 2419.82 L-913.624 2716.53 L-1047.55 2864.89 L-1279.51 2779.24  Z" fill="#ffffff" fill-rule="evenodd" fill-opacity="1"/>
<polyline clip-path="url(#clip542)" style="stroke:#000000; stroke-linecap:round; stroke-linejoin:round; stroke-width:2; stroke-opacity:0.1; fill:none" points="740.468,1218.2 1155.93,858.394 1155.93,138.792 "/>
<polyline clip-path="url(#clip542)" style="stroke:#000000; stroke-linecap:round; stroke-linejoin:round; stroke-width:2; stroke-opacity:0.1; fill:none" points="856.45,1251.68 1271.91,891.875 1271.91,172.274 "/>
<polyline clip-path="url(#clip542)" style="stroke:#000000; stroke-linecap:round; stroke-linejoin:round; stroke-width:2; stroke-opacity:0.1; fill:none" points="972.433,1285.16 1387.89,925.357 1387.89,205.755 "/>
<polyline clip-path="url(#clip542)" style="stroke:#000000; stroke-linecap:round; stroke-linejoin:round; stroke-width:2; stroke-opacity:0.1; fill:none" points="1088.41,1318.64 1503.88,958.838 1503.88,239.236 "/>
<polyline clip-path="url(#clip542)" style="stroke:#000000; stroke-linecap:round; stroke-linejoin:round; stroke-width:2; stroke-opacity:0.1; fill:none" points="1204.4,1352.12 1619.86,992.319 1619.86,272.717 "/>
<polyline clip-path="url(#clip542)" style="stroke:#000000; stroke-linecap:round; stroke-linejoin:round; stroke-width:2; stroke-opacity:0.1; fill:none" points="1320.38,1385.6 1735.84,1025.8 1735.84,306.198 "/>
<polyline clip-path="url(#clip542)" style="stroke:#000000; stroke-linecap:round; stroke-linejoin:round; stroke-width:2; stroke-opacity:0.1; fill:none" points="1427.63,1391.97 708.029,1184.24 708.029,464.633 "/>
<polyline clip-path="url(#clip542)" style="stroke:#000000; stroke-linecap:round; stroke-linejoin:round; stroke-width:2; stroke-opacity:0.1; fill:none" points="1513.29,1317.79 793.683,1110.06 793.683,390.454 "/>
<polyline clip-path="url(#clip542)" style="stroke:#000000; stroke-linecap:round; stroke-linejoin:round; stroke-width:2; stroke-opacity:0.1; fill:none" points="1598.94,1243.61 879.338,1035.88 879.338,316.275 "/>
<polyline clip-path="url(#clip542)" style="stroke:#000000; stroke-linecap:round; stroke-linejoin:round; stroke-width:2; stroke-opacity:0.1; fill:none" points="1684.59,1169.43 964.992,961.698 964.992,242.096 "/>
<polyline clip-path="url(#clip542)" style="stroke:#000000; stroke-linecap:round; stroke-linejoin:round; stroke-width:2; stroke-opacity:0.1; fill:none" points="1770.25,1095.25 1050.65,887.519 1050.65,167.917 "/>
<polyline clip-path="url(#clip542)" style="stroke:#000000; stroke-linecap:round; stroke-linejoin:round; stroke-width:2; stroke-opacity:0.1; fill:none" points="686.728,1071.41 1102.19,711.611 1821.79,919.342 "/>
<polyline clip-path="url(#clip542)" style="stroke:#000000; stroke-linecap:round; stroke-linejoin:round; stroke-width:2; stroke-opacity:0.1; fill:none" points="686.728,936.407 1102.19,576.606 1821.79,784.337 "/>
<polyline clip-path="url(#clip542)" style="stroke:#000000; stroke-linecap:round; stroke-linejoin:round; stroke-width:2; stroke-opacity:0.1; fill:none" points="686.728,801.402 1102.19,441.601 1821.79,649.332 "/>
<polyline clip-path="url(#clip542)" style="stroke:#000000; stroke-linecap:round; stroke-linejoin:round; stroke-width:2; stroke-opacity:0.1; fill:none" points="686.728,666.397 1102.19,306.596 1821.79,514.327 "/>
<polyline clip-path="url(#clip542)" style="stroke:#000000; stroke-linecap:round; stroke-linejoin:round; stroke-width:2; stroke-opacity:0.1; fill:none" points="686.728,531.392 1102.19,171.591 1821.79,379.322 "/>
<polyline clip-path="url(#clip540)" style="stroke:#000000; stroke-linecap:round; stroke-linejoin:round; stroke-width:4; stroke-opacity:1; fill:none" points="686.728,1202.68 1406.33,1410.41 "/>
<polyline clip-path="url(#clip540)" style="stroke:#000000; stroke-linecap:round; stroke-linejoin:round; stroke-width:4; stroke-opacity:1; fill:none" points="740.468,1218.2 745.454,1213.88 "/>
<polyline clip-path="url(#clip540)" style="stroke:#000000; stroke-linecap:round; stroke-linejoin:round; stroke-width:4; stroke-opacity:1; fill:none" points="856.45,1251.68 861.436,1247.36 "/>
<polyline clip-path="url(#clip540)" style="stroke:#000000; stroke-linecap:round; stroke-linejoin:round; stroke-width:4; stroke-opacity:1; fill:none" points="972.433,1285.16 977.418,1280.84 "/>
<polyline clip-path="url(#clip540)" style="stroke:#000000; stroke-linecap:round; stroke-linejoin:round; stroke-width:4; stroke-opacity:1; fill:none" points="1088.41,1318.64 1093.4,1314.32 "/>
<polyline clip-path="url(#clip540)" style="stroke:#000000; stroke-linecap:round; stroke-linejoin:round; stroke-width:4; stroke-opacity:1; fill:none" points="1204.4,1352.12 1209.38,1347.8 "/>
<polyline clip-path="url(#clip540)" style="stroke:#000000; stroke-linecap:round; stroke-linejoin:round; stroke-width:4; stroke-opacity:1; fill:none" points="1320.38,1385.6 1325.36,1381.28 "/>
<path clip-path="url(#clip540)" d="M720.909 1232.01 L709.103 1250.46 L720.909 1250.46 L720.909 1232.01 M719.682 1227.93 L725.561 1227.93 L725.561 1250.46 L730.492 1250.46 L730.492 1254.34 L725.561 1254.34 L725.561 1262.49 L720.909 1262.49 L720.909 1254.34 L705.307 1254.34 L705.307 1249.83 L719.682 1227.93 Z" fill="#000000" fill-rule="nonzero" fill-opacity="1" /><path clip-path="url(#clip540)" d="M825.571 1261.41 L843.928 1261.41 L843.928 1265.35 L829.854 1265.35 L829.854 1273.82 Q830.872 1273.47 831.891 1273.31 Q832.909 1273.13 833.928 1273.13 Q839.715 1273.13 843.095 1276.3 Q846.474 1279.47 846.474 1284.89 Q846.474 1290.46 843.002 1293.57 Q839.53 1296.64 833.21 1296.64 Q831.034 1296.64 828.766 1296.27 Q826.521 1295.9 824.113 1295.16 L824.113 1290.46 Q826.196 1291.6 828.419 1292.15 Q830.641 1292.71 833.118 1292.71 Q837.122 1292.71 839.46 1290.6 Q841.798 1288.5 841.798 1284.89 Q841.798 1281.27 839.46 1279.17 Q837.122 1277.06 833.118 1277.06 Q831.243 1277.06 829.368 1277.48 Q827.516 1277.89 825.571 1278.77 L825.571 1261.41 Z" fill="#000000" fill-rule="nonzero" fill-opacity="1" /><path clip-path="url(#clip540)" d="M950.929 1310.31 Q947.781 1310.31 945.929 1312.46 Q944.1 1314.62 944.1 1318.37 Q944.1 1322.09 945.929 1324.27 Q947.781 1326.42 950.929 1326.42 Q954.077 1326.42 955.906 1324.27 Q957.757 1322.09 957.757 1318.37 Q957.757 1314.62 955.906 1312.46 Q954.077 1310.31 950.929 1310.31 M960.211 1295.66 L960.211 1299.92 Q958.452 1299.08 956.646 1298.64 Q954.864 1298.2 953.105 1298.2 Q948.475 1298.2 946.021 1301.33 Q943.591 1304.45 943.244 1310.77 Q944.609 1308.76 946.669 1307.7 Q948.73 1306.61 951.206 1306.61 Q956.415 1306.61 959.424 1309.78 Q962.456 1312.93 962.456 1318.37 Q962.456 1323.69 959.308 1326.91 Q956.16 1330.13 950.929 1330.13 Q944.933 1330.13 941.762 1325.54 Q938.591 1320.94 938.591 1312.21 Q938.591 1304.01 942.48 1299.15 Q946.369 1294.27 952.919 1294.27 Q954.679 1294.27 956.461 1294.62 Q958.267 1294.96 960.211 1295.66 Z" fill="#000000" fill-rule="nonzero" fill-opacity="1" /><path clip-path="url(#clip540)" d="M1056.22 1328.38 L1078.44 1328.38 L1078.44 1330.37 L1065.89 1362.94 L1061.01 1362.94 L1072.81 1332.31 L1056.22 1332.31 L1056.22 1328.38 Z" fill="#000000" fill-rule="nonzero" fill-opacity="1" /><path clip-path="url(#clip540)" d="M1182.57 1380 Q1179.24 1380 1177.31 1381.79 Q1175.42 1383.57 1175.42 1386.69 Q1175.42 1389.82 1177.31 1391.6 Q1179.24 1393.38 1182.57 1393.38 Q1185.9 1393.38 1187.82 1391.6 Q1189.75 1389.8 1189.75 1386.69 Q1189.75 1383.57 1187.82 1381.79 Q1185.93 1380 1182.57 1380 M1177.89 1378.01 Q1174.88 1377.27 1173.19 1375.21 Q1171.53 1373.15 1171.53 1370.19 Q1171.53 1366.05 1174.47 1363.64 Q1177.43 1361.23 1182.57 1361.23 Q1187.73 1361.23 1190.67 1363.64 Q1193.61 1366.05 1193.61 1370.19 Q1193.61 1373.15 1191.92 1375.21 Q1190.25 1377.27 1187.27 1378.01 Q1190.65 1378.8 1192.52 1381.09 Q1194.42 1383.38 1194.42 1386.69 Q1194.42 1391.72 1191.34 1394.4 Q1188.29 1397.09 1182.57 1397.09 Q1176.85 1397.09 1173.77 1394.4 Q1170.72 1391.72 1170.72 1386.69 Q1170.72 1383.38 1172.62 1381.09 Q1174.51 1378.8 1177.89 1378.01 M1176.18 1370.63 Q1176.18 1373.32 1177.85 1374.82 Q1179.54 1376.32 1182.57 1376.32 Q1185.58 1376.32 1187.27 1374.82 Q1188.98 1373.32 1188.98 1370.63 Q1188.98 1367.94 1187.27 1366.44 Q1185.58 1364.94 1182.57 1364.94 Q1179.54 1364.94 1177.85 1366.44 Q1176.18 1367.94 1176.18 1370.63 Z" fill="#000000" fill-rule="nonzero" fill-opacity="1" /><path clip-path="url(#clip540)" d="M1288.78 1429.18 L1288.78 1424.92 Q1290.54 1425.75 1292.35 1426.19 Q1294.15 1426.63 1295.89 1426.63 Q1300.52 1426.63 1302.95 1423.53 Q1305.4 1420.41 1305.75 1414.06 Q1304.41 1416.06 1302.35 1417.12 Q1300.29 1418.19 1297.79 1418.19 Q1292.6 1418.19 1289.57 1415.06 Q1286.56 1411.91 1286.56 1406.47 Q1286.56 1401.15 1289.71 1397.93 Q1292.86 1394.71 1298.09 1394.71 Q1304.08 1394.71 1307.23 1399.32 Q1310.4 1403.9 1310.4 1412.65 Q1310.4 1420.82 1306.51 1425.71 Q1302.65 1430.57 1296.1 1430.57 Q1294.34 1430.57 1292.53 1430.22 Q1290.73 1429.87 1288.78 1429.18 M1298.09 1414.53 Q1301.24 1414.53 1303.07 1412.38 Q1304.92 1410.22 1304.92 1406.47 Q1304.92 1402.75 1303.07 1400.59 Q1301.24 1398.42 1298.09 1398.42 Q1294.94 1398.42 1293.09 1400.59 Q1291.26 1402.75 1291.26 1406.47 Q1291.26 1410.22 1293.09 1412.38 Q1294.94 1414.53 1298.09 1414.53 Z" fill="#000000" fill-rule="nonzero" fill-opacity="1" /><polyline clip-path="url(#clip540)" style="stroke:#000000; stroke-linecap:round; stroke-linejoin:round; stroke-width:4; stroke-opacity:1; fill:none" points="1406.33,1410.41 1821.79,1050.61 "/>
<polyline clip-path="url(#clip540)" style="stroke:#000000; stroke-linecap:round; stroke-linejoin:round; stroke-width:4; stroke-opacity:1; fill:none" points="1427.63,1391.97 1419,1389.47 "/>
<polyline clip-path="url(#clip540)" style="stroke:#000000; stroke-linecap:round; stroke-linejoin:round; stroke-width:4; stroke-opacity:1; fill:none" points="1513.29,1317.79 1504.65,1315.29 "/>
<polyline clip-path="url(#clip540)" style="stroke:#000000; stroke-linecap:round; stroke-linejoin:round; stroke-width:4; stroke-opacity:1; fill:none" points="1598.94,1243.61 1590.3,1241.12 "/>
<polyline clip-path="url(#clip540)" style="stroke:#000000; stroke-linecap:round; stroke-linejoin:round; stroke-width:4; stroke-opacity:1; fill:none" points="1684.59,1169.43 1675.96,1166.94 "/>
<polyline clip-path="url(#clip540)" style="stroke:#000000; stroke-linecap:round; stroke-linejoin:round; stroke-width:4; stroke-opacity:1; fill:none" points="1770.25,1095.25 1761.61,1092.76 "/>
<path clip-path="url(#clip540)" d="M1464.61 1398.06 L1452.8 1416.51 L1464.61 1416.51 L1464.61 1398.06 M1463.38 1393.98 L1469.26 1393.98 L1469.26 1416.51 L1474.19 1416.51 L1474.19 1420.4 L1469.26 1420.4 L1469.26 1428.54 L1464.61 1428.54 L1464.61 1420.4 L1449.01 1420.4 L1449.01 1415.88 L1463.38 1393.98 Z" fill="#000000" fill-rule="nonzero" fill-opacity="1" /><path clip-path="url(#clip540)" d="M1536.12 1319.81 L1554.48 1319.81 L1554.48 1323.74 L1540.4 1323.74 L1540.4 1332.21 Q1541.42 1331.87 1542.44 1331.7 Q1543.46 1331.52 1544.48 1331.52 Q1550.26 1331.52 1553.64 1334.69 Q1557.02 1337.86 1557.02 1343.28 Q1557.02 1348.86 1553.55 1351.96 Q1550.08 1355.04 1543.76 1355.04 Q1541.58 1355.04 1539.32 1354.67 Q1537.07 1354.3 1534.66 1353.56 L1534.66 1348.86 Q1536.75 1349.99 1538.97 1350.55 Q1541.19 1351.1 1543.67 1351.1 Q1547.67 1351.1 1550.01 1349 Q1552.35 1346.89 1552.35 1343.28 Q1552.35 1339.67 1550.01 1337.56 Q1547.67 1335.45 1543.67 1335.45 Q1541.79 1335.45 1539.92 1335.87 Q1538.07 1336.29 1536.12 1337.17 L1536.12 1319.81 Z" fill="#000000" fill-rule="nonzero" fill-opacity="1" /><path clip-path="url(#clip540)" d="M1632.66 1261.04 Q1629.51 1261.04 1627.66 1263.2 Q1625.83 1265.35 1625.83 1269.1 Q1625.83 1272.83 1627.66 1275 Q1629.51 1277.15 1632.66 1277.15 Q1635.8 1277.15 1637.63 1275 Q1639.48 1272.83 1639.48 1269.1 Q1639.48 1265.35 1637.63 1263.2 Q1635.8 1261.04 1632.66 1261.04 M1641.94 1246.39 L1641.94 1250.65 Q1640.18 1249.82 1638.37 1249.38 Q1636.59 1248.94 1634.83 1248.94 Q1630.2 1248.94 1627.75 1252.06 Q1625.32 1255.19 1624.97 1261.51 Q1626.34 1259.49 1628.4 1258.43 Q1630.46 1257.34 1632.93 1257.34 Q1638.14 1257.34 1641.15 1260.51 Q1644.18 1263.66 1644.18 1269.1 Q1644.18 1274.42 1641.04 1277.64 Q1637.89 1280.86 1632.66 1280.86 Q1626.66 1280.86 1623.49 1276.27 Q1620.32 1271.67 1620.32 1262.94 Q1620.32 1254.75 1624.21 1249.89 Q1628.1 1245 1634.65 1245 Q1636.41 1245 1638.19 1245.35 Q1639.99 1245.7 1641.94 1246.39 Z" fill="#000000" fill-rule="nonzero" fill-opacity="1" /><path clip-path="url(#clip540)" d="M1705.97 1171.45 L1728.19 1171.45 L1728.19 1173.44 L1715.65 1206.01 L1710.76 1206.01 L1722.57 1175.38 L1705.97 1175.38 L1705.97 1171.45 Z" fill="#000000" fill-rule="nonzero" fill-opacity="1" /><path clip-path="url(#clip540)" d="M1803.48 1115.42 Q1800.15 1115.42 1798.22 1117.2 Q1796.33 1118.98 1796.33 1122.11 Q1796.33 1125.23 1798.22 1127.01 Q1800.15 1128.8 1803.48 1128.8 Q1806.81 1128.8 1808.73 1127.01 Q1810.65 1125.21 1810.65 1122.11 Q1810.65 1118.98 1808.73 1117.2 Q1806.84 1115.42 1803.48 1115.42 M1798.8 1113.43 Q1795.79 1112.68 1794.1 1110.62 Q1792.44 1108.56 1792.44 1105.6 Q1792.44 1101.46 1795.38 1099.05 Q1798.34 1096.64 1803.48 1096.64 Q1808.64 1096.64 1811.58 1099.05 Q1814.52 1101.46 1814.52 1105.6 Q1814.52 1108.56 1812.83 1110.62 Q1811.16 1112.68 1808.18 1113.43 Q1811.56 1114.21 1813.43 1116.5 Q1815.33 1118.8 1815.33 1122.11 Q1815.33 1127.13 1812.25 1129.81 Q1809.2 1132.5 1803.48 1132.5 Q1797.76 1132.5 1794.68 1129.81 Q1791.63 1127.13 1791.63 1122.11 Q1791.63 1118.8 1793.53 1116.5 Q1795.42 1114.21 1798.8 1113.43 M1797.09 1106.04 Q1797.09 1108.73 1798.76 1110.23 Q1800.45 1111.74 1803.48 1111.74 Q1806.49 1111.74 1808.18 1110.23 Q1809.89 1108.73 1809.89 1106.04 Q1809.89 1103.36 1808.18 1101.85 Q1806.49 1100.35 1803.48 1100.35 Q1800.45 1100.35 1798.76 1101.85 Q1797.09 1103.36 1797.09 1106.04 Z" fill="#000000" fill-rule="nonzero" fill-opacity="1" /><polyline clip-path="url(#clip540)" style="stroke:#000000; stroke-linecap:round; stroke-linejoin:round; stroke-width:4; stroke-opacity:1; fill:none" points="686.728,1202.68 686.728,483.08 "/>
<polyline clip-path="url(#clip540)" style="stroke:#000000; stroke-linecap:round; stroke-linejoin:round; stroke-width:4; stroke-opacity:1; fill:none" points="686.728,1071.41 691.714,1067.09 "/>
<polyline clip-path="url(#clip540)" style="stroke:#000000; stroke-linecap:round; stroke-linejoin:round; stroke-width:4; stroke-opacity:1; fill:none" points="686.728,936.407 691.714,932.089 "/>
<polyline clip-path="url(#clip540)" style="stroke:#000000; stroke-linecap:round; stroke-linejoin:round; stroke-width:4; stroke-opacity:1; fill:none" points="686.728,801.402 691.714,797.084 "/>
<polyline clip-path="url(#clip540)" style="stroke:#000000; stroke-linecap:round; stroke-linejoin:round; stroke-width:4; stroke-opacity:1; fill:none" points="686.728,666.397 691.714,662.079 "/>
<polyline clip-path="url(#clip540)" style="stroke:#000000; stroke-linecap:round; stroke-linejoin:round; stroke-width:4; stroke-opacity:1; fill:none" points="686.728,531.392 691.714,527.075 "/>
<path clip-path="url(#clip540)" d="M591.563 1084.76 L599.202 1084.76 L599.202 1058.39 L590.892 1060.06 L590.892 1055.8 L599.155 1054.13 L603.831 1054.13 L603.831 1084.76 L611.47 1084.76 L611.47 1088.69 L591.563 1088.69 L591.563 1084.76 Z" fill="#000000" fill-rule="nonzero" fill-opacity="1" /><path clip-path="url(#clip540)" d="M620.915 1082.81 L625.799 1082.81 L625.799 1088.69 L620.915 1088.69 L620.915 1082.81 Z" fill="#000000" fill-rule="nonzero" fill-opacity="1" /><path clip-path="url(#clip540)" d="M645.984 1057.21 Q642.373 1057.21 640.544 1060.78 Q638.739 1064.32 638.739 1071.45 Q638.739 1078.55 640.544 1082.12 Q642.373 1085.66 645.984 1085.66 Q649.618 1085.66 651.424 1082.12 Q653.252 1078.55 653.252 1071.45 Q653.252 1064.32 651.424 1060.78 Q649.618 1057.21 645.984 1057.21 M645.984 1053.51 Q651.794 1053.51 654.85 1058.11 Q657.928 1062.7 657.928 1071.45 Q657.928 1080.17 654.85 1084.78 Q651.794 1089.36 645.984 1089.36 Q640.174 1089.36 637.095 1084.78 Q634.04 1080.17 634.04 1071.45 Q634.04 1062.7 637.095 1058.11 Q640.174 1053.51 645.984 1053.51 Z" fill="#000000" fill-rule="nonzero" fill-opacity="1" /><path clip-path="url(#clip540)" d="M592.558 949.752 L600.197 949.752 L600.197 923.386 L591.887 925.053 L591.887 920.794 L600.151 919.127 L604.827 919.127 L604.827 949.752 L612.466 949.752 L612.466 953.687 L592.558 953.687 L592.558 949.752 Z" fill="#000000" fill-rule="nonzero" fill-opacity="1" /><path clip-path="url(#clip540)" d="M621.91 947.807 L626.794 947.807 L626.794 953.687 L621.91 953.687 L621.91 947.807 Z" fill="#000000" fill-rule="nonzero" fill-opacity="1" /><path clip-path="url(#clip540)" d="M637.026 919.127 L655.382 919.127 L655.382 923.062 L641.308 923.062 L641.308 931.534 Q642.327 931.187 643.345 931.025 Q644.364 930.84 645.382 930.84 Q651.169 930.84 654.549 934.011 Q657.928 937.182 657.928 942.599 Q657.928 948.178 654.456 951.28 Q650.984 954.358 644.664 954.358 Q642.489 954.358 640.22 953.988 Q637.975 953.618 635.567 952.877 L635.567 948.178 Q637.651 949.312 639.873 949.868 Q642.095 950.423 644.572 950.423 Q648.576 950.423 650.914 948.317 Q653.252 946.21 653.252 942.599 Q653.252 938.988 650.914 936.881 Q648.576 934.775 644.572 934.775 Q642.697 934.775 640.822 935.192 Q638.97 935.608 637.026 936.488 L637.026 919.127 Z" fill="#000000" fill-rule="nonzero" fill-opacity="1" /><path clip-path="url(#clip540)" d="M594.78 814.747 L611.1 814.747 L611.1 818.682 L589.156 818.682 L589.156 814.747 Q591.818 811.992 596.401 807.363 Q601.007 802.71 602.188 801.367 Q604.433 798.844 605.313 797.108 Q606.216 795.349 606.216 793.659 Q606.216 790.904 604.271 789.168 Q602.35 787.432 599.248 787.432 Q597.049 787.432 594.595 788.196 Q592.165 788.96 589.387 790.511 L589.387 785.789 Q592.211 784.654 594.665 784.076 Q597.118 783.497 599.155 783.497 Q604.526 783.497 607.72 786.182 Q610.915 788.867 610.915 793.358 Q610.915 795.488 610.104 797.409 Q609.317 799.307 607.211 801.9 Q606.632 802.571 603.53 805.789 Q600.429 808.983 594.78 814.747 Z" fill="#000000" fill-rule="nonzero" fill-opacity="1" /><path clip-path="url(#clip540)" d="M620.915 812.802 L625.799 812.802 L625.799 818.682 L620.915 818.682 L620.915 812.802 Z" fill="#000000" fill-rule="nonzero" fill-opacity="1" /><path clip-path="url(#clip540)" d="M645.984 787.201 Q642.373 787.201 640.544 790.765 Q638.739 794.307 638.739 801.437 Q638.739 808.543 640.544 812.108 Q642.373 815.65 645.984 815.65 Q649.618 815.65 651.424 812.108 Q653.252 808.543 653.252 801.437 Q653.252 794.307 651.424 790.765 Q649.618 787.201 645.984 787.201 M645.984 783.497 Q651.794 783.497 654.85 788.103 Q657.928 792.687 657.928 801.437 Q657.928 810.164 654.85 814.77 Q651.794 819.353 645.984 819.353 Q640.174 819.353 637.095 814.77 Q634.04 810.164 634.04 801.437 Q634.04 792.687 637.095 788.103 Q640.174 783.497 645.984 783.497 Z" fill="#000000" fill-rule="nonzero" fill-opacity="1" /><path clip-path="url(#clip540)" d="M595.776 679.742 L612.095 679.742 L612.095 683.677 L590.151 683.677 L590.151 679.742 Q592.813 676.987 597.396 672.358 Q602.003 667.705 603.183 666.362 Q605.429 663.839 606.308 662.103 Q607.211 660.344 607.211 658.654 Q607.211 655.899 605.267 654.163 Q603.345 652.427 600.243 652.427 Q598.044 652.427 595.591 653.191 Q593.16 653.955 590.382 655.506 L590.382 650.784 Q593.206 649.649 595.66 649.071 Q598.114 648.492 600.151 648.492 Q605.521 648.492 608.716 651.177 Q611.91 653.862 611.91 658.353 Q611.91 660.483 611.1 662.404 Q610.313 664.302 608.206 666.895 Q607.628 667.566 604.526 670.784 Q601.424 673.978 595.776 679.742 Z" fill="#000000" fill-rule="nonzero" fill-opacity="1" /><path clip-path="url(#clip540)" d="M621.91 677.797 L626.794 677.797 L626.794 683.677 L621.91 683.677 L621.91 677.797 Z" fill="#000000" fill-rule="nonzero" fill-opacity="1" /><path clip-path="url(#clip540)" d="M637.026 649.117 L655.382 649.117 L655.382 653.052 L641.308 653.052 L641.308 661.524 Q642.327 661.177 643.345 661.015 Q644.364 660.83 645.382 660.83 Q651.169 660.83 654.549 664.001 Q657.928 667.173 657.928 672.589 Q657.928 678.168 654.456 681.27 Q650.984 684.348 644.664 684.348 Q642.489 684.348 640.22 683.978 Q637.975 683.608 635.567 682.867 L635.567 678.168 Q637.651 679.302 639.873 679.858 Q642.095 680.413 644.572 680.413 Q648.576 680.413 650.914 678.307 Q653.252 676.2 653.252 672.589 Q653.252 668.978 650.914 666.872 Q648.576 664.765 644.572 664.765 Q642.697 664.765 640.822 665.182 Q638.97 665.598 637.026 666.478 L637.026 649.117 Z" fill="#000000" fill-rule="nonzero" fill-opacity="1" /><path clip-path="url(#clip540)" d="M604.919 530.038 Q608.276 530.756 610.151 533.024 Q612.049 535.293 612.049 538.626 Q612.049 543.742 608.53 546.543 Q605.012 549.343 598.53 549.343 Q596.355 549.343 594.04 548.904 Q591.748 548.487 589.294 547.63 L589.294 543.117 Q591.239 544.251 593.554 544.83 Q595.868 545.408 598.392 545.408 Q602.79 545.408 605.081 543.672 Q607.396 541.936 607.396 538.626 Q607.396 535.57 605.243 533.857 Q603.114 532.121 599.294 532.121 L595.267 532.121 L595.267 528.279 L599.48 528.279 Q602.929 528.279 604.757 526.913 Q606.586 525.524 606.586 522.932 Q606.586 520.269 604.688 518.857 Q602.813 517.422 599.294 517.422 Q597.373 517.422 595.174 517.839 Q592.975 518.256 590.336 519.135 L590.336 514.969 Q592.998 514.228 595.313 513.857 Q597.651 513.487 599.711 513.487 Q605.035 513.487 608.137 515.918 Q611.239 518.325 611.239 522.445 Q611.239 525.316 609.595 527.306 Q607.952 529.274 604.919 530.038 Z" fill="#000000" fill-rule="nonzero" fill-opacity="1" /><path clip-path="url(#clip540)" d="M620.915 542.793 L625.799 542.793 L625.799 548.672 L620.915 548.672 L620.915 542.793 Z" fill="#000000" fill-rule="nonzero" fill-opacity="1" /><path clip-path="url(#clip540)" d="M645.984 517.191 Q642.373 517.191 640.544 520.756 Q638.739 524.297 638.739 531.427 Q638.739 538.533 640.544 542.098 Q642.373 545.64 645.984 545.64 Q649.618 545.64 651.424 542.098 Q653.252 538.533 653.252 531.427 Q653.252 524.297 651.424 520.756 Q649.618 517.191 645.984 517.191 M645.984 513.487 Q651.794 513.487 654.85 518.094 Q657.928 522.677 657.928 531.427 Q657.928 540.154 654.85 544.76 Q651.794 549.343 645.984 549.343 Q640.174 549.343 637.095 544.76 Q634.04 540.154 634.04 531.427 Q634.04 522.677 637.095 518.094 Q640.174 513.487 645.984 513.487 Z" fill="#000000" fill-rule="nonzero" fill-opacity="1" /><polyline clip-path="url(#clip542)" style="stroke:#009af9; stroke-linecap:round; stroke-linejoin:round; stroke-width:4; stroke-opacity:1; fill:none" points="963.405,1027.78 960.167,1029.46 969.761,1025.07 967.788,1026.09 975.543,1022.55 979.483,1020.81 974.595,1023.2 970.556,1025.23 956.165,1032.23 949.383,1035.73 944.756,1038.27 956.059,1033.38 948.259,1037.41 961.83,1031.41 974.4,1025.68 941.928,1041.27 934.438,1045.41 916.738,1054.48 906.58,1060.42 909.644,1060.16 872.732,1079.11 884.357,1075.74 906.247,1067.26 887.558,1076.74 909.237,1068.41 902.999,1072.23 939.107,1055.29 989.129,1030.07 1004.46,1017.15 1007.35,1012.94 1039.23,993.675 1163.22,922.841 1186.31,897.375 1227.3,863.591 1295.94,812.147 1275.47,810.648 1255.94,816.113 1229.23,828.19 1276.8,803.852 1316.03,777.518 1253.39,812.388 1173.83,864.642 1038.52,951.993 1039.84,967.217 1061.01,958.565 1045.58,971.181 1077.87,948.823 1015.33,985.889 1060.68,964.722 930.215,1037.14 798.236,1115.94 910.338,1071.33 924.224,1060.38 1013.22,1003.7 1013.86,997.212 974.301,1014.58 976.235,1015.03 941.296,1034.6 1024.57,985.119 1105.34,920.655 1049.82,957.4 1107.46,928.47 1039.05,971.64 1007.47,1001.29 1010.85,1000.02 1044.55,972.911 1043.38,967.707 1054.11,965.129 1066.23,950.719 1237.35,834.836 1136.97,902.039 1035.96,969.003 1070.02,950.421 1002.91,995.134 949.177,1031.91 892.193,1067.24 887.216,1075.64 923.063,1062.31 926.198,1059.09 959.891,1032.82 909.916,1057.76 926.053,1052.7 938.704,1043.96 921.42,1061.59 1023.81,1002.05 1056.9,978.212 1038.24,979.297 1004.92,991.269 937.624,1032.24 933.104,1035.89 1033.47,993.707 1031.64,984.589 1146.43,905.004 1222.76,847.462 1227.52,828.189 1258.6,821.256 1246.73,815.861 1303.19,754.566 1391.8,713.832 1382.64,708.028 1360.33,715.438 1382.27,716.443 1391.86,699.928 1316.04,749.236 1283.83,789.239 1227.77,831.353 1159.55,873.692 1254.36,818.694 1211.46,855.675 1129.04,896.691 1220.34,846.001 1138.35,900.405 1165.23,895.338 1245.79,818.587 1110.54,904.733 1061.71,945.308 1006.41,988.565 1025.05,983.531 1011.61,982.518 1020.25,983.332 1089.23,953.879 1034.93,975.874 1013.17,991.385 982.766,1012.17 1051.24,975.832 1003.16,1016.72 1061.72,972.405 1102.3,927.937 1104.23,928.06 1264.2,814.694 1243.92,814.416 1296.36,772.09 1317.25,744.807 1388.84,689.303 1386.44,689.328 1375.48,699.227 1334.56,740.541 1311.48,753.641 1246.27,816.366 1273.4,801.943 1258.57,814.94 1247.1,823.855 1284.43,792.013 1256.05,819.588 1272.68,804.905 1197.14,852.727 1161.33,875.524 1190.22,865.133 1062.48,950.86 1172.35,898.274 1066.51,961.059 1088.07,950.17 983.124,1012.99 1039.6,975.904 967.121,1029.69 1001.52,1010.88 831.003,1121.6 873.415,1102.98 994.239,1026.12 1061.58,976.872 989.42,1013 890.545,1071.09 904.413,1058.01 947.532,1039.02 1115.8,946.186 1080.04,944.885 1179.89,886.49 983.402,1003.11 917.765,1047.06 948.843,1036.97 940.96,1041.06 898.821,1069.6 959.608,1037.34 940.189,1040.6 942.994,1041.31 919.097,1051.45 994.432,1006.53 985.497,1014.18 1037.95,981.159 946.489,1036.29 1111,945.412 1132.05,919.852 1131.4,910.073 1103.89,933.555 1089.47,935.581 1020.15,992.592 949.595,1027.73 971.16,1021.9 925.845,1057.27 949.134,1045.44 995.432,1017.4 847.324,1099.63 870.209,1081.96 872.594,1084.97 925.299,1058.54 951.035,1046.85 942.042,1048.84 887.394,1078.77 983.081,1025.39 1146.7,914.519 1155.48,898.104 1068.89,948 1008.94,987.616 1131.11,918.614 1085.35,933.383 1209.9,862.435 1150.57,887.353 1222.9,824.033 1296.61,786.05 1285.73,804.835 1222.74,841.476 1241.25,829.59 1330.56,754.391 1364.64,732.613 1463.36,667.819 1238.26,833.675 1237.43,836.397 1293.77,804.751 1159.46,895.89 1178.37,882.778 1110.51,926.37 1053.03,966.346 1210.27,874.642 1325.18,770.759 1289.66,783.684 1240.91,812.728 1342.41,744.95 1283.49,779.19 1268.06,794.172 1352.44,740.851 1260.55,796.523 1212.66,833.524 1091.34,918.455 1115.53,914.07 1151.95,900.878 1227.51,850.39 1195.11,862.882 1332.28,753.278 1252.17,807.485 1379.05,715.731 1558.63,580.692 1696.7,456.999 1657.13,457.728 1771.01,370.987 1716.31,400.105 1688.23,419.912 1734.08,388.107 1655.3,447.486 1764.28,377.664 1678.98,441.717 1594.56,506.555 1597.23,511.167 1595.1,520.441 1602.83,524.189 1643.94,503.14 1558.59,553.027 1542.64,572.148 1566.38,556.944 1456.73,632.621 1399.76,673.06 1458.6,651.779 1434.66,667.233 1403.08,690.47 1426.66,682.483 1341.41,736.259 1347.18,739.959 1330.02,752.125 1358.79,740.407 1374.51,724.476 1375.21,723.177 1358.21,733.759 1412.85,696.016 1333.89,748.844 1340.61,747.676 1346.63,755.098 1273.77,796.154 1254.62,808.103 1396.46,725.927 1285.68,787.727 1271.53,805.121 1257.35,819.383 1309.15,779.538 1239.12,810.174 1299.4,769.918 1359.23,720.985 1296.83,765.647 1244.65,801.676 1180.16,858.756 1137.62,896.482 1195.35,860.812 1238.58,830.134 1256.28,829.945 1258.98,816.43 1247.53,824.912 1158.68,892.196 1172.09,886.147 1187.3,869.614 1132.16,900.901 1088.7,948.651 1037.52,977.318 1108.55,938.145 1142.67,905.54 1037,964.146 964.64,1011.61 927.749,1039.61 967.567,1023.82 1040.22,985.164 1054.36,972.318 1085.39,954.274 1100.53,937.965 1024.55,984.987 1038.43,981.256 1127.06,919.927 1167.4,896.975 1216.49,855.435 1178.2,872.285 1204.94,858.622 1237.17,830.979 1164.32,869.163 1192.58,858.256 1217.28,849.327 1324.53,777.626 1307.1,778.509 1281.66,788.44 1249.98,811.565 1229.54,836.518 1246.54,826.617 1136.41,902.747 1055.48,957.243 1108.47,931.441 1093.12,939.282 995.939,996.586 999.517,1003.61 1056.06,972.222 1056.72,971.161 1024.37,990.397 1016.63,990.396 945.412,1029.03 939.722,1041.15 1017.27,998.151 985.905,1013.49 944.112,1037.16 869.917,1097.58 904.989,1078.18 941.743,1060.38 957.878,1045.45 939.769,1047.62 928.92,1058.68 869.713,1091.95 988.587,1019.34 1023.61,992.278 937.158,1040.49 1040.7,986.408 1167.82,904.707 1158.41,895.884 1300.41,800.918 1310.73,773.411 1330.29,751.426 1234.07,818.077 1299.49,772.98 1345.22,743.108 1323.39,748.301 1450.85,670.763 1386.13,699.274 1415.01,679.393 1333.97,738.263 1427.27,686.734 1283.97,780.623 1195.37,847.921 1220.73,837.222 1168.32,878.71 1143.75,895.894 1049.81,960.321 1006.76,991.2 969.448,1027.9 973.45,1023.73 984.611,1023.72 1013.7,1004.29 1001.89,1001.32 975.225,1019.65 1002.36,1007.4 1046.97,984.807 1108.58,940.202 1089.96,943.651 1165.49,893.656 1134.86,906.925 1159.8,884.11 1204.81,851.743 1013.98,995.083 994.867,1006.93 1048.95,978.074 996.005,1006.34 997.616,1012.52 782.321,1145.8 761.362,1160.15 752.612,1164.68 797.854,1131.4 860.34,1103.1 1022.26,1017.73 1067.57,976.811 1082.41,962.945 1039.38,980.717 938.483,1037.13 1014.3,992.245 989.543,996.693 1044.99,973.012 1156.63,894.573 1275.72,814.852 1187.23,855.287 1251.96,825.605 1244.3,817.659 1355.76,742.82 1154.1,868.12 1247.16,813.796 1272.18,794.83 1311.06,755.99 1233.28,803.49 1190.86,846.801 1119.3,896.359 1111.17,916.069 1050.04,965.046 1067.65,958.541 1190.08,881.899 1209.78,853.716 1052.33,950.346 970.776,1012.81 899.428,1055.26 913.891,1055.47 918.739,1060.6 943.165,1046.71 998.902,1019.33 1143.33,917.559 1113.84,924.068 1116.41,916.89 1084.15,937.11 1085.5,941.589 929.782,1032.48 993.753,1009.85 1011.23,1003.88 1046.55,975.54 1046.06,970.485 1124.14,914.735 1112.92,929.69 1258.18,822.444 1288.53,792.382 1295.11,789.04 1096.8,919.188 1096.45,930.661 1069.62,947.504 1063.81,959.569 1139.86,915.884 1102.2,942.491 1193.25,879.722 1187.05,876.949 1082.29,934.852 1096.73,929.299 997.291,993.251 1052.03,965.878 1087.15,946.307 1198.4,879.554 1193.21,868.985 1175.46,873.41 1181.13,870.651 1199.47,863.71 1141.61,892.228 1172.16,874.234 1140.42,895.47 1061.38,950.168 1045.09,970.33 1107.09,940.883 1117.51,931.812 1100.15,936.198 1076.73,950.75 980.988,1011.23 993.32,1008.49 1046.02,973.278 1079.74,947.343 1097.03,938.121 1025.6,981.644 982.791,1008.53 926.445,1047.6 894.907,1070.79 912.257,1061.94 851.754,1103.98 895.211,1082.65 835.184,1115.94 840.29,1113.94 908.866,1068 916.543,1063.2 981.962,1024.49 976.039,1016.95 986.813,1008.87 962.227,1026.54 978.975,1016.58 960.903,1033.7 1054.64,975.269 1140.72,921.305 1134.08,911.887 1000.52,1009.39 1000.68,1004.51 926.527,1055.01 903.573,1067.71 868.485,1085.55 934.488,1041.62 932.206,1044.42 879.714,1081.18 882.476,1076.95 893.603,1058.3 914.174,1049.51 895.093,1060.66 910.223,1053.01 1012.43,1004.22 1175.35,902.112 1055.66,968.39 1118.87,929.469 1228.34,847.872 1136.19,903.562 1035.11,987.389 1001.03,1005.52 1041.8,987.43 1120.16,931.125 1154.31,906.382 1218.72,856.277 1226.25,841.073 1185.98,861.278 1210.48,847.594 1194.62,863.499 1211.55,852.59 1213.94,852.397 1282.9,792.008 1335.34,745.315 1287.33,769.767 1310.55,746.768 1226.37,820.227 1265.53,807.01 1266.07,808.124 1294.1,783.919 1339.49,754.934 1324.03,757.668 1257.02,802.121 1103.64,912.446 1105.24,927.625 1016.21,978.841 930.892,1039.43 846.94,1093.8 845.372,1101.9 865.351,1097.49 814.423,1122.55 914.981,1070.35 911.388,1071.58 868.083,1094.5 947.172,1052.11 1087.42,967.091 1059.3,976.504 1093.84,945.877 1114.95,923.737 1234.52,839.479 1276.45,812.694 1425.67,708.753 1333.35,749.763 1371.61,723.91 1430.1,664.011 1503.85,604.183 1475.29,622.635 1429.48,658.259 1397.4,687.22 1300.68,756.36 1304.38,762.656 1210.81,829.506 1146.15,881.64 1238.41,839.247 1229.95,831.878 1157.59,877.554 1115.25,909.744 1081.47,939.455 1170.07,895.89 1085.72,942.304 1049.47,965.595 1015.79,990.782 977.591,1010.83 962.813,1029.05 1062.04,975.983 1118.23,930.097 1106.77,934.076 1096.05,938.879 1115.14,924.255 1149.07,897.353 1138.19,905.818 1079.53,952.479 1110.5,928.033 1121.04,919.313 1120.07,919.333 1186.87,874.758 1152.28,887.518 1220.13,846.81 1275.15,794.793 1236.52,819.664 1203.1,851.828 1125.72,902.915 1097.12,923.403 1025.12,977.923 1059.43,964.7 1059.59,964.163 1102.87,942.038 1093.84,941.311 1078.57,946.111 1124,920.72 1109.37,932.076 1099.6,937.528 1112.59,933.704 1091.26,936.157 1029.94,977.568 955.482,1033.37 951.941,1040.92 891.856,1078.33 822.595,1122.11 829.225,1112.1 861.617,1098.07 884.062,1081.45 922.32,1068.56 938.328,1061.78 994.612,1017.7 1090.08,951.713 1108.29,926.817 1273.91,819.59 1234.24,841.552 1222.45,843.474 1189.93,864.397 1056.64,955.407 1162.31,898.738 1159.16,903.28 1056,975.078 1079.88,946.45 1123.7,926.562 1109.99,926.565 1046.5,961.599 1057.45,962.522 1125.1,921.172 1080.32,951.011 991.47,1002.28 1046.54,971.281 1155.45,897.04 1157.02,879.357 1072.9,933.065 1108.72,904.551 1021.36,965.529 1111.39,928.049 1136.41,905.093 1124.29,922.521 1103.32,940.032 1186.83,888.354 1173.42,883.916 987.444,1003.04 943.277,1034.03 937.489,1039.28 953.432,1033.63 947.685,1037.81 919.768,1051.64 893.19,1067.13 856.9,1080.71 849.589,1103.18 884.561,1090.01 871.869,1092.92 873.593,1095.01 902.887,1074.06 1006.15,1013.82 949.796,1039.91 962.848,1030.92 952.332,1036.03 978.547,1019.41 999.738,1012.14 1053.98,962.016 1054.15,955.907 1216.37,861.91 1071.8,959.106 1088.84,948.897 1014.49,997.257 1048.55,989.459 1107.42,940.837 1187.7,891.549 1154.82,905.747 1140.48,901.711 1139.22,901.282 1265.72,810.023 1276.87,801.174 1313.46,773.273 1282.77,787.847 1248.87,808.766 1293.03,771.695 1229.52,813.429 1215.88,828.815 1124.35,894.553 1039.89,952.971 1153.45,897.774 1067.61,953.677 1189.63,876.755 1118.12,916.547 1041.02,965.764 957.425,1025.09 938.232,1042.84 944.487,1040.64 868.951,1079.25 823.3,1113.96 774.968,1143.01 815.76,1134.33 776.385,1150.8 792.207,1141.8 867.789,1100.67 950.164,1052.36 961.194,1032.81 993.39,1017.46 1062.35,966.508 991.448,1005.07 919.296,1047.41 1014.16,996.634 1037.91,978.71 1083,952.797 1032.22,979.734 947.961,1037.66 940.331,1038.89 904.852,1070.49 919.951,1058.74 1039.74,987.635 1124.9,928.118 1042,971.136 995.182,999.975 1043.75,976.024 956.208,1038.79 930,1043.15 991.142,1011.92 989.846,1019.53 1085.28,959.621 1008.83,994.699 1075.02,959.881 1146.84,900.628 1186.05,862.39 1251.45,832.713 1213.48,847.955 1265.88,805.628 1288.71,789.586 1162.12,890.697 1166.46,885.05 1058.76,963.426 1020.96,988.151 1041.51,977.523 1092.52,948.561 1163.96,896.375 1168.13,885.882 1117.74,908.589 1065.22,943.901 1063.05,955.493 1009.07,992.803 1020.62,992.343 1013.94,990.276 953.063,1035.32 1006.05,1002.07 1006.34,1001.31 1005.48,991.47 1064.64,951.151 987.823,1007.37 1052.16,975.347 1056.91,949.741 1180.85,887.914 1285.48,801.528 1193.15,854.085 1253.71,817.225 1170.98,869.442 1338.98,769.112 1330.45,762.65 1169.53,865.778 1227.99,839.948 1140.05,896.382 1377.7,748.343 1189.38,864.824 1227.07,840.044 1122.62,919.413 1157.79,904.853 1057.28,963.043 1096.79,935.63 1231.45,838.617 1274.71,801.74 1217.59,845.706 1316.29,769.453 1248.15,810.789 1187.62,858.999 1217.22,840.012 1271.17,810.401 1231.25,834.893 1246.6,832.435 1280.6,804.726 1134.07,898.796 1126.47,902.232 1178.26,873.702 1352,741.557 1344.79,758.678 1140.57,903.081 1069.76,949.263 1114.46,919.936 1057.56,954.43 1010.79,993.851 1027.23,987.142 996.096,1001.83 855.219,1089.53 867.118,1090.28 765.386,1148.61 771.368,1150.34 753.444,1163.38 801.357,1136.14 835.364,1114.53 993.617,1030.94 1030.44,998.521 1011.98,998.872 1074.55,957.929 1082.99,945.372 1129.88,912.301 1123.46,924.371 1106.26,929.131 1154.22,903.002 1204.55,859.8 1108.89,910.061 1025.99,967.099 987.992,998.397 1019.91,985.911 1053.54,969.714 1079.03,957.605 1153.58,907.968 1092.42,937.882 1065.33,952.974 1192.99,863.132 1216.57,848.084 1123.05,902.484 1086.42,926.892 1115.73,916.67 1028.21,972.737 1024.71,982.895 1025.17,985.329 987.667,1002.11 1022.13,990.018 988.818,996.041 1010.02,993.747 986.199,1009.12 919.822,1051.54 958.1,1033.9 951.033,1036.56 986.265,1009.18 881.967,1074.08 1047.02,983.1 947.398,1042.22 990.322,996.853 1019.39,990.735 962.387,1029.99 1058.35,961.876 1076.48,948.239 1024.92,987.14 1048.58,952.996 1086.36,940.566 1041.65,965.326 1158.36,899.104 1238.96,822.978 1075.04,940.371 1056.49,955.875 968.4,1010.35 974.658,1019.1 998.529,1010.93 1062.64,967.562 1099.27,937.259 1160.31,897.727 1153.39,903 1124.8,908.913 1045.92,961.761 1100.85,925.555 984.201,1007.8 944.853,1033.06 929.239,1043.6 898.885,1061.65 904.711,1068.61 860.001,1088.29 828.932,1111.25 860.337,1096.65 839.893,1109.35 872.212,1096.83 951.889,1045.69 1021.71,1002.95 999.971,1011.48 902.201,1066.69 918.569,1063.52 919.958,1060.64 991.224,1023.97 1050.82,984.975 1076.45,958.378 1082.86,948.677 1031.44,988.839 986.935,1013.35 1055.77,969.351 1145.65,907.997 1113.71,928.289 1034.16,981.652 979.775,1004.65 1059.45,956.967 1112.85,912.411 1216.45,831.903 1305.42,787.501 1493.34,645.445 1463.14,642.905 1494.13,607.752 1425.52,661.496 1330.24,730.649 1396.91,699.185 1327.31,751.653 1359.91,734.61 1397.25,712.545 1404.65,714.911 1408.59,697.386 1471.02,643.372 1415.87,679.234 1417.74,674.214 1387.05,686.331 1259.39,784.182 1251.34,796.856 1333.22,751.864 1365.19,740.418 1381.84,722.452 1263.82,791.923 1285.68,790.235 1257.94,809.062 1166.29,874.247 1045.5,949.171 1044.82,958.138 1013.79,983.811 952.412,1023.68 969.95,1018.61 1024.11,990.693 971.523,1024.59 863.191,1086.21 783.943,1137.97 778.376,1147.55 807.789,1133.65 775.104,1148.85 814.017,1135.68 845.77,1115.83 843.657,1112.78 835.947,1108.16 783.772,1139.67 746.232,1159.89 824.316,1119.71 808.765,1125.46 800.04,1134.95 896.322,1077.6 969.588,1037.03 925.88,1060.65 852.405,1100.2 923.625,1046.71 897.627,1070.42 838.592,1103.85 786.395,1140.87 776.621,1146.01 788.429,1144.39 806.811,1133.45 897.043,1082.26 949.395,1040.77 958.045,1037.12 1004.77,1003.63 1039.57,977.1 979.949,1009.42 962.181,1011.74 885.845,1066.33 933.819,1049.08 923.215,1063.95 913.692,1063.2 826.355,1110.04 838.62,1107.64 894.309,1075.63 846.052,1101.78 960.353,1042.29 994.545,1024.43 1001.4,1013.25 972.486,1021.19 1025.58,989.772 998.009,1003.25 952.508,1026.15 881.2,1060.92 945.959,1017.9 913.605,1058.6 844.216,1101.07 830.844,1116.41 813.962,1129.18 862.418,1100.95 863.469,1100.04 916.608,1072.2 1023.09,1000.69 1025.8,987.37 1012.47,986.044 990.487,1007.9 983.306,1014.63 928.218,1052.73 890.673,1066.97 827.734,1113.83 833.295,1116.37 830.538,1122.85 878.473,1097.48 943.937,1052.38 1005.74,1007.45 1177.19,910.345 1161.9,894.271 1206.35,861.838 1183.79,869.415 1156.12,888.591 1135.66,900.145 1043.99,957.762 1022.1,982.195 1098.18,944.651 1069.15,956.659 998.575,995.988 998.523,1002.45 948.472,1033.1 1021.79,999.375 993.147,1008.45 1045.26,975.123 1096.08,941.74 1113.19,918.355 1144.12,902.304 1207.88,851.296 1148.69,886.947 1193.24,861.739 1348.52,752.963 1434.86,687.041 1414.8,685.21 1547.01,589.78 1424.25,658.433 1393.28,690.573 1453.41,652.355 1361.75,711.849 1388.09,697.747 1374.54,711.934 1359.27,725.536 1319.69,752.934 1297.51,775.105 1260.02,806.336 1231.81,829.077 1221.44,845.084 1219.99,849.809 1296.71,790.179 1350.46,740.445 1277.03,791.214 1315.34,759.581 1440.48,682.343 1319.54,760.252 1356.22,728.036 1308.32,770.511 1190.02,860.903 1185,869.945 1175.82,870.444 1138.8,894.332 1054.99,953.777 1016.88,984.458 1096.68,940.197 1072.45,953.709 1055.44,963.945 1109.75,926.32 1089.48,937.026 1145.91,891.897 1242,836.846 1275.12,808.315 1262.88,808.228 1218.11,843.352 1245.86,831.173 1151.6,882.857 1234.23,824.352 1418.52,693.4 1383.1,704.567 1304.28,777.157 1293.35,784.235 1271.18,796.022 1208.38,844.603 1173.44,866.941 1086.03,930.531 1048.01,963.512 1132.26,919.176 1127.59,924.679 1078.66,949.696 1124.62,929.249 1131.61,924.842 1103.57,939.678 1143.94,902.096 1140.34,904.186 1153.51,891.507 1262.09,814.504 1264.41,799.842 1406.24,687.841 1350.92,737.681 1300.93,772.227 1363.1,735.583 1478.01,629.056 1416.57,665.253 1538.46,594.927 1449.98,665.277 1436.7,668.04 1430.17,677.04 1387.25,690.731 1255.17,784.124 1267.21,792.109 1305.92,779.472 1211.76,835.525 1275.58,801.729 1177.48,877.813 1174.51,882.474 1164.7,893.613 1195.94,872.046 1211.86,858.865 1133.01,896.305 1170.91,870.314 1141.75,872.683 1157.77,883.879 1147.5,892.169 1150.83,893.298 1233.31,855.597 1244.03,838.245 1290.89,796.758 1502.89,646.456 1454.97,667.293 1418.71,679.387 1273.64,779.053 1206.82,835.455 1067.43,928.517 1009.75,979.145 983.901,1006.93 1070.45,966.7 1081.21,961.224 1106.95,937.425 1029.9,982.456 997.617,1003.6 1110,948.381 1077.46,951.215 1021.87,980.707 1108.66,935.261 982.31,1008.74 927.668,1041.51 956.422,1032.09 977.992,1020.8 985.645,1014.94 910.417,1062.24 887.499,1073.12 839.893,1102.9 843.577,1098.55 797.128,1128.36 802.157,1136.87 836.376,1122.98 947.456,1054.83 959.699,1045.85 934.801,1051.44 948.266,1045.49 1021.67,998.697 934.579,1035.46 919.96,1049.68 944.484,1047.36 1003.72,1009.92 1035.47,979.796 1025.9,978.954 1026.2,969.988 1108.17,941.562 1094.24,945.026 1164.18,886.739 1250.35,810.702 1188.46,843.167 1296.4,770.841 1265.69,796.573 1175.72,861.904 1164.91,880.427 1193.56,858.758 1113.88,908.445 1081.29,941.617 1046.42,969.536 1113.84,924.832 1122.64,906.16 994.213,992.28 957.519,1028.97 968.755,1033.46 1067.55,969.824 1067.14,961.505 1219.59,854.623 1153.31,895.146 1151.11,887.855 1190.9,865.006 1108.19,926.657 1140.38,905.405 1175.34,883.463 1142.04,902.458 1065.91,959.511 1111.47,939.605 1086.17,947.868 1105.83,934.542 1068.97,955.186 1003.16,993.298 938.547,1031.15 1021.21,994.751 971.954,1024.63 938.066,1052.93 901.5,1071.39 919.78,1065.26 1003.47,1016.21 1044.32,987.467 1063.92,965.678 1118.99,938.9 1131.35,919.163 1088.74,944.356 1209.49,859.432 1201.27,860.697 1160.89,877.429 1239.56,830.323 1232.16,836.428 1209.45,853.502 1350.35,747.599 1278.48,788.344 1259.26,798.477 1278.19,789.633 1245.21,828.737 1254.13,812.915 1278.59,798.655 1252.47,814.998 1260.95,805.729 1220.97,836.241 1114.15,905.73 1249.41,825.31 1130.07,912.469 1332.8,784.57 1230.05,837.67 1444.46,681.009 1452.61,656.069 1418.16,665.178 1276.68,770.406 1232.93,814.769 1172.3,858.497 1236.64,832.515 1263.38,822.538 1349.2,764.88 1321.48,758.702 1397.73,705.278 1411.07,671.364 1313.54,750.769 1349.09,733.395 1321.41,762.006 1274.56,788.472 1248.34,799.172 1310.34,770.475 1253.91,807.771 1179.44,861.522 1122.01,907.122 1177.12,877.502 1095.47,927.407 1052.09,961.46 953.818,1022.59 892.803,1064.75 952.537,1040.91 922.564,1059.06 933.453,1055.46 962.948,1031.65 919.478,1058.1 913.991,1064.47 983.812,1025.08 984.927,1023.53 1015.53,999.353 1105.01,943.074 1140.72,915.359 1228.85,841.235 1209.19,850.161 1222.37,833.264 1107.33,908.361 1217.14,848.445 1134.39,912.218 1100.08,931.516 1105.22,923.881 1221.41,845.301 1210.01,850.451 1131.08,896.764 1251.62,829.268 1297.85,778.645 1388.29,725.346 1400.57,699.522 1402.6,692.244 1453.53,662.654 1281.31,766.432 1277.84,782.71 1236.76,812.564 1176.31,860.327 1232.48,837.44 1296.03,801.578 1247.8,822.147 1230.12,830.652 1280.19,801.664 1178.58,872.442 1155.37,898.242 982.386,1004.42 1044.44,972.317 1025.56,982.255 941.902,1033.47 919.475,1054.33 936.507,1048.49 940.666,1040.3 865.106,1094.01 818.308,1125.11 778.875,1142.19 792.748,1140.47 761.989,1161.35 828.501,1126.58 875.352,1099.53 855.753,1100.86 924.026,1059.2 1021.49,999.326 947.39,1041.02 999.545,1007.72 992.806,1011.31 1042.87,976.457 1091.1,940.43 1161.31,884.352 1194.72,866.911 1160.01,894.921 1151.09,909.532 1205.36,879.283 1141.11,914.76 1158,900.362 1029.11,992.002 948.579,1056.23 983.709,1028.9 1121.67,933.815 1244.59,839.008 1237.89,838.221 1302.1,782.91 1263.37,810.291 1259.82,803.551 1290.29,787.56 1291.59,791.589 1117.21,903.705 1145.72,896.449 1093.39,929.318 945.452,1028.58 976.255,1024.94 988.786,1018.15 951.498,1031.06 928.081,1055.31 971.451,1033.47 953.807,1041.69 997.743,1018.22 986.192,1014.05 996.19,1012.69 1044.21,979.034 1003.05,994.383 921.286,1053.67 953.673,1036.8 952.352,1038.03 936.113,1049.41 953.199,1039.26 1003.8,1004.13 1106.62,939.137 1020.2,986.397 1019.06,991.244 1062.09,957.859 1060.91,966.009 1139.72,896.89 1266.84,822.76 1235.71,835.039 1165.31,876.264 1151.6,894.733 1067.71,945.041 1062.02,952.758 1031.44,980.769 1070.17,960.421 1117.14,925.575 1058.12,964.082 980.038,1011.02 925.095,1046.13 997.851,1011.59 1035.69,986.736 1022.04,983.645 1162.23,901.515 1032.16,975.606 1036.78,974.548 1009.76,1003.21 1105.59,941.326 1109.52,932.28 1132.98,915.491 1073.36,943.953 1115.87,919.239 1170.44,873.464 1165.11,883.5 1109.87,926.65 1256.27,820.149 1258.02,823.682 1271.27,803.312 1255.22,808.843 1088.78,925.579 1151.14,893.205 1105.94,917.934 1162.2,892.032 1041.03,966.824 998.575,999.883 1028.45,989.457 981.799,1016 862.641,1093.86 845.434,1104.93 809.495,1128.52 944.011,1061.27 1067.7,980.584 1058.97,972.21 1140.24,915.993 1192.72,873.154 1161.18,884.35 1274.6,817.332 1346.66,754.279 1286.18,795.338 1348.96,748.581 1282.7,787.876 1311.33,774.809 1400.3,710.882 1286.86,783.207 1199.2,857.785 1214.42,852.5 1231.82,836.958 1322.34,770.601 1278.64,791.898 1279.84,800.948 1358.33,750.011 1291.9,779.257 1304.85,778.401 1197.26,852.586 1168.33,881.289 1073.38,948.218 1052.36,963.504 1019.02,982.368 1066.89,958.914 977.674,1013.4 969.251,1024.56 884.271,1076.71 890.856,1073.73 819.278,1115.24 904.794,1082.41 928.734,1066.06 965.628,1033.52 954.193,1031.46 884.037,1084.49 863.755,1098.76 915.442,1070.26 968.456,1039.86 949.947,1042.62 907.624,1071.46 972.128,1034.63 968.101,1030.8 906.227,1066.07 904.714,1069.82 857.187,1097.08 953.504,1040.39 978.295,1023.04 990.466,1008.73 1108.48,933.351 1128.96,910.248 1202.14,850.059 1161.8,871.797 1204.42,858.942 1168.88,891.122 1091.75,937.9 1027.58,966.787 997.291,995.772 1050.6,967.862 969.101,1016.15 864.955,1081.14 807.977,1117.5 750.131,1156.5 780.176,1147.62 824.394,1129.43 820.141,1128.72 899.056,1094.03 1020.27,1017.54 1045.81,988.027 1017.14,997.344 1059.06,969.861 1085.6,953.133 1079.81,951.249 1152.95,910.685 1073.73,963.187 1005.33,1018.37 1022.34,994.206 981.222,1020.6 1174.86,899.45 1059.13,964.264 1082.02,949.581 1018.48,985.847 1048.02,976.125 1146.2,912.392 1114.37,923.957 1063.37,955.487 972.721,1017.77 1034.03,984.866 1034.48,976.958 1031.03,985.324 1042.71,981.74 963.615,1022.13 988.689,1009.26 1054.05,981.047 1128.76,916.427 1182.74,887.048 1248.49,848.724 1255.82,831.918 1261.38,827.179 1268.13,804.913 1191.45,851.358 1267.31,801.063 1178.19,859.314 1114.17,919.541 1029.61,974.069 1030.25,982.758 1026.42,987.569 1102.36,951.117 1064.51,971.19 1088.54,949.299 1153.72,909.281 1162.99,888.947 1182.38,862.899 1055.6,958.356 1067.52,955.003 956.791,1026.3 962.956,1026.93 887.191,1077.92 892.975,1075.86 907.24,1071.5 862.081,1095.42 921.718,1062.39 903.215,1073.48 892.511,1084.01 891.471,1078.77 967.643,1038.83 927.128,1058.98 886.729,1076.25 911.879,1056.72 956.54,1019.27 964.297,1024.09 990.553,1004.51 1010.68,1004.23 1132.08,920.4 1078.89,951.554 988.209,1015.63 1016.45,996.66 1083.87,951.972 1096.98,920.27 1150.38,900.026 1137.87,898.882 1006.06,999.155 951.665,1030.25 1017.92,993.347 1022.22,1004.81 977.907,1024.24 1064.95,976.416 933.979,1059.59 980.201,1018.65 986.448,1020.48 900.09,1063.79 877.556,1087.18 863.211,1094.56 859.495,1098.75 854.081,1103.1 866.725,1094.61 753.743,1158.8 815.523,1134.17 879.948,1085.9 845.284,1110.03 755.521,1159.88 828.012,1117.59 834.726,1103.3 937.748,1054.63 947.063,1046.55 979.748,1023.91 1043.25,976.453 1221.57,865.214 1163.33,882.964 1130.33,906.016 1186.53,867.001 1205.15,859.678 1157.63,883.371 1155.17,896.037 1147.94,912.649 1052.87,974.224 1020.27,987.047 1016.43,989.461 1104.08,941.382 1097.47,922.308 1125.8,914.702 1050.19,963.651 1199.6,876.954 1293.67,795.817 1119.3,907.618 1044.37,968.762 1106.23,940.077 1140.97,913.872 1082.86,938.03 1078.14,952.005 1064.83,948.066 1031.54,963.707 1044.05,965.159 1069.59,960.964 1115.42,930.065 1100.76,927.826 1203.76,859.916 1164.22,877.059 1282.34,803.298 1357.72,727.174 1499.86,615.72 1349.58,731.832 1370.57,711.13 1286.81,762.224 1374.46,719.558 1340.44,741.668 1187.46,855.05 1142.95,890.884 1169.02,878.965 1235.82,837.382 1255.61,826.19 1230.99,844.372 1185.42,877.015 1211.17,855.544 1147.44,881.333 1232.92,796.623 1367.37,702.837 1488.89,644.401 1369.81,736.489 1416.72,696.604 1243.82,820.356 1154.85,892.468 1047.79,965.935 1024.43,984.703 1048.12,981.98 1032.37,980.854 1104.22,941.096 1081.73,951.916 1073.43,949.373 1074.53,945.609 1100.37,921.891 1159.43,883.071 1056.28,970.507 1054,969.975 1107.06,937.443 1079.52,953.366 1201.25,860.294 1173.99,868.528 1224.91,845.1 1258.35,817.262 1299.96,767.759 1277.44,787.083 1249.68,813.821 1230.23,820.692 1333.53,758.49 1212.49,836.631 1094.61,925.056 1079.92,945.636 978.808,1005.42 939.474,1038.27 940.98,1041.88 1034.82,994.412 1036.77,988.286 1009.95,1005.64 1020.01,995.062 1111.64,942.131 1211.87,872.288 1206.88,868.512 1305.66,805.866 1280.16,802.242 1304.73,786.417 1188.83,862.345 1224.97,846.258 1263.22,815.889 1151.54,907.629 1204.69,871.461 1167.59,898.79 1192.36,882.688 1422.54,718.324 1607.57,564.506 1629.76,505.299 1561.1,542.471 1474.24,601.974 1527.62,576.166 1549.01,567.158 1537.3,566.301 1459.24,633.557 1468.84,638.168 1459.4,633.657 1383.34,684.393 1430.25,659.369 1448.32,658.129 1369.33,705.139 1333.44,738.04 1360.26,730.98 1308.44,764.443 1214.8,835.837 1158.95,875.229 1123.64,900.714 1164.56,887.929 1143.84,902.033 1077.17,940.725 1027.67,977.418 1108.81,933.914 977.904,1012.73 976.489,1021.26 944.99,1038.18 943.638,1041.24 937.863,1051.98 861.762,1094.52 837.487,1109.64 908.206,1074.47 919.564,1065.59 887.625,1083.04 936.653,1046.97 947.202,1043.25 1052.26,983.482 1126.83,925.553 1201.94,874.508 1226.67,842.441 1143.16,893.363 1064.83,951.907 1095.68,942.796 1126.62,917.02 1155.89,896.821 1210.18,858.056 1103.41,928.307 1043.25,970.067 1001.12,991.711 948.992,1036.07 939.841,1044.18 905.314,1064.31 1156.48,921.871 1154.98,907.84 1205.79,868.709 1178.41,879.251 1024.16,969.317 1104.54,933.781 1094.25,937.094 1163.73,888.219 1120.62,908.593 1074.04,940.803 1228.34,850.063 1258.7,804.322 1135.12,886.487 1039.33,955.008 1112.63,922.976 1044.25,968.327 1014.36,988.034 900.039,1064.07 920.246,1061.9 918.105,1062.3 940.015,1052.78 942.707,1053.56 913.21,1067.27 961.474,1041.56 955.21,1034.82 914.086,1065.32 883.345,1087.25 803.089,1135.05 890.344,1082.51 915.392,1064.93 927.668,1061.11 886.398,1080.49 1032.64,985.417 1023.08,989.667 1059.99,960.767 1066.33,955.1 1040.24,977.404 981.407,1012.56 1189.36,878.521 1180.07,873.825 1395.27,732.674 1385.85,723.085 1369.58,720.367 1506.2,612.526 1403.76,686.155 1340.99,745.01 1223.27,827.926 1116.05,900.483 1068.98,940.174 1139.71,908.854 1135.17,909.755 1132.02,911.816 1118.94,917.952 1136.19,907.564 1163.86,884.397 1205.76,858.314 1146.89,909.578 1094.69,929.646 1150.11,892.151 1011,988.399 1038.81,981.058 1034.66,982.97 987.216,1016.05 996.096,1007.52 989.47,1017.56 1035.07,984.778 1143.2,908.029 1277.32,817.005 1188.97,872.958 1162.31,887.402 1274.39,820.932 1253.4,838.97 1165.11,895.4 1186.54,874.883 1114.11,939.11 1074.89,954.485 937.18,1058.44 1011.94,1012.67 970.014,1029.93 947.374,1041.53 1026.48,979.759 949.03,1023.37 987.051,1006.36 1006.98,987.102 929.953,1042.72 1070.5,971.122 1051.58,985.917 996.262,1009.61 1043.96,986.442 1027.29,994.667 924.736,1052.3 1057.79,966.651 1005.62,1009.9 979.358,1009.82 991.867,1006.71 977.113,1008.28 956.507,1028.64 1025.38,990.764 1053.94,966.483 1094.76,936.26 1057.47,958.158 1209.9,849.811 1355.13,760.866 1389.87,727.368 1461.7,661.93 1344.91,731.267 1123.08,884.791 1124.35,904.956 1104.8,924.676 1158.14,890.883 1123.44,913.59 1166.97,887.241 1145.07,894.543 1060.32,950.105 1043.84,966.934 991.309,999.565 954.594,1028.53 1080.07,962.461 1109.47,938.807 1131.2,911.202 1125.94,916.939 1123.48,913.39 1187.08,875.354 1194.49,860.729 1151.76,883.64 1140.82,897.904 1279.19,815.104 1200.57,849.594 1313.65,777.077 1211.94,842.893 1128.55,886.442 1172.97,872.818 1130.21,895.622 1049.36,951.932 1010.84,982.436 1021.97,987.797 1060.47,970.689 1024.08,986.905 1083.28,946.551 1159.82,891.183 1225.6,847.112 1236.2,826.593 1338.41,751.327 1319.78,759.573 1213.14,823.331 1031.33,947.705 991.39,983.607 1045.42,969.026 1069.62,956.021 1021.01,983.906 1065.04,966.882 1100.48,938.645 1095.36,941.199 1063.61,965.572 1052.8,974.041 1023.09,990.149 1085.88,945.662 1095.79,948.025 1306.01,815.613 1342.55,774.913 1224.5,827.765 1294.56,789.804 1352.15,744.605 1361.14,728.635 1440.11,662.609 1261.65,785.831 1266.43,792.577 1302.63,782.766 1222.03,842.995 1323.27,767.325 1279.44,790.602 1269.41,801.645 1296.12,782.528 1176.28,861.283 1133.17,903.031 1019.78,973.016 1028.78,984.43 991.959,1009.81 980.765,1018.04 1079.46,950.649 1051.95,966.335 1125.73,917.901 1068.88,949.861 960.319,1020.18 899.192,1059.13 888.63,1070.39 821.257,1108.15 861.567,1097.57 955.043,1050.47 1015.65,1012.63 1116.45,945.778 1156.01,912.669 1228.84,861.29 1319.56,788.408 1285.39,798.333 1222.38,831.011 1196.91,852.864 1179.81,881.079 1170.5,884.072 1210.58,856.783 1300.95,792.399 1381.37,731.911 1306.39,772.954 1423.18,688.623 1354.93,732.227 1441.33,666.14 1477.73,645.21 1330.86,747.368 1286.34,785.828 1221.47,822.693 1150.83,883.375 1113.18,916.779 1116.2,918.646 1100.27,934.687 1107.45,932.135 1064.83,961.99 1088.22,949.715 1079.55,962.009 1067.29,965.835 1018.74,997.368 1096.77,937.633 1143.07,909.077 1055.9,960.1 958.117,1017.87 1035.45,980.597 1033.46,983.21 1040.53,980.464 1015.61,989.448 1044.3,965.295 1038.43,964.404 980.045,1016.33 906.76,1061.41 937.963,1042.93 962.668,1028.56 885.629,1082.83 862.297,1093.66 850.705,1106.55 940.109,1062.85 940.589,1059.74 965.309,1036.94 991.398,1018.84 1086.36,952.844 1016.31,982.07 1027.75,972.88 1007.51,1001.51 975.076,1027.54 1138.9,931.434 1120.47,926.761 1139.23,909.817 1162.3,890.705 1193.83,858.731 1130.31,888.652 1163.04,879.3 1125.33,903.266 1009.49,981.219 943.601,1025.35 793.878,1115.9 820.345,1115.61 775.972,1142.89 831.183,1115.99 867.552,1091.57 867.734,1092.82 873.512,1092.02 969.023,1036.94 962.835,1040.9 939.247,1052.17 994.051,1021.01 1110.21,944.637 1085.97,959.419 1087.66,952.775 1121.49,918.079 1109.21,926.964 1057.08,964.184 1202.23,867.841 1207.89,854.363 1270.63,808.455 1206.2,846.087 1249.71,823.21 1259.13,808.493 1272.56,796.474 1434.79,665.126 1261.69,781.709 1250.67,806.555 1254.63,813.05 1227.98,837.829 1328.31,771.655 1245.37,830.265 1266.77,811.894 1354.48,737.812 1327.16,767.067 1233.21,825.777 1202.92,834.894 1266.88,803.304 1259.41,813.406 1194.06,878.485 1055.9,954.492 1172.16,893.66 1187.41,866.597 1204.13,852.082 1063.2,942.576 1041.6,961.735 1024.27,979.026 1032.71,975.179 1010.5,992.441 1112.03,937.304 1114.88,928.981 1074.06,956.527 1055.12,971.26 991.189,1006.19 904.118,1064.28 1007.28,1012.24 1191.09,890.218 1208.32,867.991 1184.95,870.313 1192.73,857.194 1079.93,925.392 1133.44,914.214 1172.28,882.998 1209.69,852.768 1201.98,856.78 1185.94,865.42 1359.21,747.093 1440.45,687.279 1342.15,724.908 1348.61,729.899 1308.68,766.774 1345.65,745.551 1240.76,815.869 1290.08,777.495 1262.37,797.995 1307.01,770.264 1308.62,759.426 1289.03,766.925 1188.27,846.983 1195.82,851.216 1172.74,870.296 1200.42,852.973 1092.38,923.525 970.534,1004.72 994.35,1003.93 947.535,1035.19 1023.62,993.924 994.683,1006.11 1158.05,906.389 1180.95,882.727 1214.06,849.133 1187.92,858.764 1220.9,854.089 1145.99,891.554 1106.13,926.774 1109.43,924.479 1122.85,917.006 1144.68,906.292 1071.14,949.357 1093.33,924.676 1011.94,982.932 1027.26,978.408 1061.22,965.645 1032.1,987.017 946.94,1034.5 961.247,1026.22 942.468,1041.4 990.876,1010.53 955.746,1035.14 993.638,1029.23 932.979,1063.45 962.722,1036.37 1079.12,969.489 1226.13,868.285 1242.29,839.568 1267.15,818.312 1336.91,760.894 1345.02,744.879 1318.65,732.595 1312.07,746.039 1315.14,752.593 1379.36,713.717 1330.33,746.62 1377.29,722.925 1255.78,794.347 1276.97,792.098 1173.51,866.404 1281.49,811.208 1281.29,810.181 1189.89,866.533 1173.55,877.457 1268.18,810.731 1196.77,880.987 1182.59,861.761 1207.27,858.498 1136.61,919.584 1202.07,874.428 1191.94,858.104 1125.73,909.545 1151.68,904.836 1085.89,942.205 1102.7,923.843 1035.41,977.706 1120.39,933.668 1125.75,926.363 1078.62,952.898 1048.81,966.334 1052.55,971.422 1206.98,865.63 1231.05,844.492 1268.71,809.981 1259.2,805.637 1259.51,817.472 1331.31,764.246 1315.98,770.286 1191.38,864.704 1019.91,978.931 1014.52,988.83 1025.27,992.238 997.555,1022.3 865.37,1098.44 853.935,1113.92 787.934,1146.06 804.183,1143.13 757.489,1158.25 782.325,1154.93 832.25,1123.87 862.714,1102.4 927.929,1055.67 915.328,1063.12 903.241,1067.73 947.506,1045.89 1058.37,973.774 1016.03,995.085 1048.3,970.401 1026.67,973.605 1035.13,976.909 1175.77,881.467 1054.24,952.538 1082.75,936.702 1097.81,927.838 1150.04,872.958 1186.63,857.28 1183.09,861.99 1340.46,761.373 1405.86,703.187 1386.88,709.411 1499.28,621.443 1433.73,649.929 1330.37,732.25 1253.72,788.617 1261.6,803.878 1178.35,865.892 1166.4,878.829 1071.21,941.687 1039.33,972.293 1099.16,943.332 1071.71,964.089 1120.39,932.72 1102.84,940.905 1034.77,988.022 1108.14,942.365 1025.31,979.71 1067.11,951.399 1141.28,898.242 1207.77,843.584 1278.52,800.944 1227.67,836.036 1297.82,775.916 1278.88,785.851 1075.48,924.199 1137.81,902.207 1102.7,937.69 1100,927.23 1055.53,951.304 1148.58,904.59 1112.46,922.485 1110.66,922.827 1126.84,900.744 1189.23,846.853 1155.57,887.703 1090.72,931.088 1096.07,913.74 1146.26,888.256 1193.38,859.583 1081.64,946.175 1201.22,871.707 1152.55,892.776 1208.37,851.568 1170.7,869.053 1007.84,983.31 992.359,1005.56 971.836,1017.68 1021.36,989.5 970.554,1014.87 1039.3,980.139 1208.6,864.492 1166.4,880.561 1228.02,849.976 1117.6,917.994 1121.01,913.846 1276.92,803.208 1318.49,771.038 1318.04,763.928 1333.66,755.618 1237.35,824.229 1307.79,786.072 1229.68,831.034 1252.46,812.692 1216.71,854.29 1246.58,832.711 1161.1,872.02 1125.68,904.151 1073.77,945.677 1037.41,970.088 1088.85,943.777 1127.93,917.547 1074.48,938.441 1149.22,913.215 1104.77,929.793 1099.08,933.575 1035.93,963.899 1104.74,929.177 1229.11,833.616 1328.68,766.648 1188.13,864.933 1311.47,772.074 1282.7,784.965 1283.07,790.246 1381.89,724.642 1404.48,682.353 1277.83,784.191 1241.1,811.586 1333.13,770.852 1387.34,712.354 1442.88,659.861 1458.15,651.627 1480.05,622.198 1357.8,708.942 1488.56,632.522 1413.8,687.357 1536.4,602.177 1415.05,688.176 1444.53,661.233 1364.03,716.081 1217.69,810.112 1229.62,820.294 1279.16,792.875 1230.84,825.925 1326.89,773.485 1274.37,805.092 1439.61,689.071 1390.58,704.163 1365.54,721.839 1492.35,638.905 1453.13,649.669 1348.57,718.312 1314.59,759.101 1309,765.475 1370.16,730.019 1238.06,818.516 1157.2,878.223 1051.31,950.601 1070.05,950.521 1126.82,924.199 1098.01,938.305 1064.45,958.723 1054.17,962.677 1089.23,943.927 1016.59,988.92 1005.29,1003.97 939.168,1039.62 927.019,1050.05 974.123,1027.3 1008.81,992.191 1106.94,936.033 1073.54,952.105 981.314,1004.34 928.788,1045.9 945.595,1037.42 909.599,1053.29 865.184,1089.18 884.567,1088.14 838.95,1113.54 718.853,1177.37 739.433,1172.26 785.16,1146.66 827.423,1123.27 895.454,1085.1 901.193,1077.46 1012.98,1011.96 981.815,1023.93 1063.53,979.542 1132.45,931.915 1147.14,904.084 1216.56,852.237 1122.3,908.749 1181.61,867.805 1162.09,878.346 1118.03,919.268 1152.57,895.918 1093.57,930.056 1044.52,960.387 1101.88,935.094 1086.81,940.998 1100.81,932.363 1177.4,893.491 1173.67,880.659 1191.98,866.005 1256.96,826.85 1228.07,844.206 1277.73,785.756 1183.9,851.94 1169.48,866.686 1184.31,862.864 1223.7,850.833 1274.55,807.863 1359.82,736.479 1493.46,636.373 1394.54,701.869 1387.13,711.709 1405.59,681.635 1316.55,758.351 1392.96,712.39 1475.71,631.673 1400.82,676.878 1330.15,726.394 1371.05,714.105 1284.18,769.031 1229.95,815.879 1147.97,879.155 1065.88,941.27 1049.04,960.296 1011.23,990.086 1026.66,987.971 967.848,1023.4 988.456,1019.07 896.851,1063.93 891.965,1072.19 930.075,1058.58 965.23,1036.64 1007.37,998.922 1038.41,979.748 1019.08,987.082 1082.87,942.334 1213.95,862.515 1212.64,842.931 1206.2,842.059 1239.97,823.994 1226.68,837.104 1319.62,752.273 1353.09,730.205 1323.49,745.926 1280.66,788.065 1289.52,783.355 1280.26,785.144 1276.29,796.918 1337.82,757.302 1366.56,739.69 1248.8,796.644 1227.98,828.179 1268.08,805.278 1268.64,810.686 1262.83,809.595 1265.31,806.975 1238,836.155 1328.6,771.922 1411.61,702.446 1278.87,777.226 1290.72,784.638 1225.27,828.071 1164.5,874.793 1134.55,906.823 1260.93,824.939 1282.72,815.961 1271.66,816.726 1274.43,807.404 1150.94,887.615 1117.86,902.085 1105.24,915.286 1196.58,871.077 1199.37,870.525 1195.09,872.167 1106.42,932.674 961.224,1032.21 1061.42,976.668 1024.48,991.433 999.606,995.77 1131.28,912.613 1154.93,896.005 1055.25,958.067 1084.55,944.324 1014.44,1006.71 1055.55,981.126 1022.17,1005.06 1011.4,991.674 1126.85,921.332 1285.51,822.272 1264.1,812.374 1169.72,868.076 1226.92,826.239 1236.23,828.892 1238.99,833.992 1278.33,794.526 1260.86,804.191 1103.54,917.748 1076.46,945.922 1106.2,931.515 1239.27,838.203 1183.09,868.007 1198.8,850.784 1129.4,902.052 1096.58,927.422 1109.71,922.905 1190.24,875.549 1198.89,862.032 1201.81,859.642 1276.82,806.165 1319.79,775.286 1246.42,808.415 1234.01,831.077 1334.15,765.904 1316.91,755.751 1366.2,735.505 1366.43,726.132 1371.18,720.26 1430.43,681.6 1276.49,787.115 1196.11,843.581 1125.55,898.784 1097.29,918.446 994.22,994.637 959.583,1022.92 987.424,1016.91 937.476,1043.24 882.758,1079.52 884.213,1078.99 934.693,1053.26 1002.71,1009.41 1009.43,1002.85 1073.53,961.728 1079.14,954.288 1018.38,989.734 1034.34,979.12 972.099,1028.75 1002.79,1014.1 964.677,1037.57 1055.05,983.09 1054.78,975.029 1052.88,970.207 1104.07,938.942 1144.72,912.787 1066.79,947.902 936.82,1040.31 906.479,1066.98 909.999,1066.04 893.56,1080.48 869.38,1095.41 881.084,1096.99 1068.9,992.686 1131.35,938.735 1162.91,903.035 1159.91,900.245 1142.94,900.754 1209.03,863.106 1102.49,926.351 957.955,1022.35 1107.71,949.747 1093.69,951.19 1124.57,925.475 1111.87,929.655 1138.72,911.705 1161.66,890.772 1141.6,906.409 1130.55,908.694 1252.36,839.264 1199.17,867.657 1044.09,969.903 1051.93,971.551 1056.16,971.153 935.38,1037.29 1020.78,970.072 1116.14,928.686 1110.31,929.99 1115.74,918.406 1041.55,966.815 1120.33,907.636 1038.67,953.093 1003.27,993.093 977.244,1017.16 910.873,1060.89 947.219,1039.9 974.185,1028.33 1096.42,953.921 1018.58,988.105 985.955,1012.11 1039.16,991.926 1025.59,995.573 1073.77,954.035 1067.38,955.196 1003.66,998.006 1115.2,926.031 1021.03,990.56 1033.9,988.886 1038.83,978.185 1056.34,973.312 1085.73,939.946 1034.82,969.882 1111.24,926.899 1246.49,842.879 1219.98,839.996 1160.59,872.769 1023.45,962.26 1145.97,901.7 1117.88,911.603 1022.95,964.344 930.985,1032.97 936.491,1040.54 938.801,1042.29 894.57,1070.48 906.597,1069.11 901.814,1075.72 1000.48,1027.87 956.826,1047.59 953.064,1040.19 1008.21,1008.05 1061.68,967.618 1120.07,929.321 1010.1,992.937 1022.4,987.695 975.636,1017.38 1126.11,929.977 1282,815.256 1264.62,805.555 1136.65,888.813 1142.94,896.094 1119.95,912.485 1050.8,954.257 1071.2,946.677 1076.86,954.651 1163.36,896.784 1133.91,892.715 1098.86,932.299 1165.91,880.487 1163.35,882.556 1041.85,963.412 1031.46,977.239 948.349,1027.82 916.117,1053.19 931.155,1053.24 932.561,1050.94 812.999,1123.4 840.756,1110.6 758.728,1155.82 753.487,1161.62 775.268,1152.36 831.648,1124.48 760.144,1162.97 834.616,1126.82 973.377,1046.17 1019.4,1000.62 1004.06,1001.76 982.674,1013.01 1074.64,962.609 998.806,1009.3 1097.33,939.067 1119.72,929.263 1134.81,915.024 1030.38,974.972 912.042,1051.47 872.866,1079.91 900.804,1071.2 869.233,1087.93 942.578,1053.76 947.274,1047.57 964.78,1028.96 963.293,1028.44 899.481,1070.13 926.982,1057.8 955.549,1043.52 910.474,1066.74 957.342,1042.04 900.735,1074.32 884.02,1080.92 1005.85,998.847 1187.21,889.441 1216.76,847.877 1275,806.038 1308.77,764.932 1313.57,765.639 1334.83,755.215 1233.79,830.285 1319.21,781.41 1389.51,733.752 1317.84,766.888 1298.95,766.239 1129.41,889.367 1148.35,889.667 1171.95,880.555 1126.58,906.617 1201.08,871.215 1130.22,907.68 1159.85,884.626 1160.71,890.678 1057.84,955.631 1095.09,926.044 1160.64,880.278 1133.75,909.088 1111.82,915.967 1004.89,999.215 1060.13,966.696 1028.62,989.952 1120.9,945.642 1140.15,921.317 1104.56,941.301 1100.7,934.351 1139.67,908.274 1212.97,863.238 1116.91,912.7 1092.01,930.347 1095.39,935.89 1148.09,900.627 1273.86,797.588 1320.99,765.9 1286.54,778.315 1260.36,802.59 1232.5,825.596 1279.52,802.32 1261.16,820.551 1198.2,859.472 1136.6,899.57 1108.1,916.021 1088.64,946.704 1105.04,938.832 1068.1,969.141 1209.14,869.799 1266.58,806.066 1299.57,782.327 1217.57,841.013 1184.27,873.507 1105.14,921.715 1111.98,923.932 1236.97,835.534 1216.63,839.022 1227.43,843.809 1104,926.862 1042.54,964.589 1113.29,918.827 1116.4,924.424 1239.08,827.915 1094.05,938.037 1209.47,860.057 1257.76,824.707 1228.74,838.191 "/>
<path clip-path="url(#clip540)" d="M228.998 198.898 L588.673 198.898 L588.673 95.2176 L228.998 95.2176  Z" fill="#ffffff" fill-rule="evenodd" fill-opacity="1"/>
<polyline clip-path="url(#clip540)" style="stroke:#000000; stroke-linecap:round; stroke-linejoin:round; stroke-width:4; stroke-opacity:1; fill:none" points="228.998,198.898 588.673,198.898 588.673,95.2176 228.998,95.2176 228.998,198.898 "/>
<polyline clip-path="url(#clip540)" style="stroke:#009af9; stroke-linecap:round; stroke-linejoin:round; stroke-width:4; stroke-opacity:1; fill:none" points="253.409,147.058 399.875,147.058 "/>
<path clip-path="url(#clip540)" d="M434.911 128.366 Q431.809 133.69 430.305 138.898 Q428.8 144.106 428.8 149.453 Q428.8 154.801 430.305 160.055 Q431.832 165.287 434.911 170.588 L431.207 170.588 Q427.735 165.148 425.999 159.893 Q424.286 154.639 424.286 149.453 Q424.286 144.291 425.999 139.06 Q427.712 133.828 431.207 128.366 L434.911 128.366 Z" fill="#000000" fill-rule="nonzero" fill-opacity="1" /><path clip-path="url(#clip540)" d="M464.726 138.412 L455.351 151.027 L465.212 164.338 L460.189 164.338 L452.642 154.152 L445.096 164.338 L440.073 164.338 L450.142 150.773 L440.929 138.412 L445.953 138.412 L452.828 147.648 L459.703 138.412 L464.726 138.412 Z" fill="#000000" fill-rule="nonzero" fill-opacity="1" /><path clip-path="url(#clip540)" d="M472.318 158.458 L477.202 158.458 L477.202 162.439 L473.406 169.847 L470.42 169.847 L472.318 162.439 L472.318 158.458 Z" fill="#000000" fill-rule="nonzero" fill-opacity="1" /><path clip-path="url(#clip540)" d="M497.087 166.745 Q495.281 171.375 493.568 172.787 Q491.855 174.199 488.985 174.199 L485.582 174.199 L485.582 170.634 L488.082 170.634 Q489.841 170.634 490.813 169.8 Q491.786 168.967 492.966 165.865 L493.73 163.921 L483.244 138.412 L487.758 138.412 L495.86 158.689 L503.962 138.412 L508.475 138.412 L497.087 166.745 Z" fill="#000000" fill-rule="nonzero" fill-opacity="1" /><path clip-path="url(#clip540)" d="M515.443 158.458 L520.327 158.458 L520.327 162.439 L516.531 169.847 L513.545 169.847 L515.443 162.439 L515.443 158.458 Z" fill="#000000" fill-rule="nonzero" fill-opacity="1" /><path clip-path="url(#clip540)" d="M527.573 138.412 L547.804 138.412 L547.804 142.301 L531.785 160.935 L547.804 160.935 L547.804 164.338 L526.994 164.338 L526.994 160.449 L543.012 141.815 L527.573 141.815 L527.573 138.412 Z" fill="#000000" fill-rule="nonzero" fill-opacity="1" /><path clip-path="url(#clip540)" d="M553.637 128.366 L557.341 128.366 Q560.813 133.828 562.526 139.06 Q564.262 144.291 564.262 149.453 Q564.262 154.639 562.526 159.893 Q560.813 165.148 557.341 170.588 L553.637 170.588 Q556.716 165.287 558.22 160.055 Q559.748 154.801 559.748 149.453 Q559.748 144.106 558.22 138.898 Q556.716 133.69 553.637 128.366 Z" fill="#000000" fill-rule="nonzero" fill-opacity="1" /></svg>
