<?xml version="1.0" encoding="utf-8"?>
<svg xmlns="http://www.w3.org/2000/svg" xmlns:xlink="http://www.w3.org/1999/xlink" width="600" height="400" viewBox="0 0 2400 1600">
<defs>
  <clipPath id="clip490">
    <rect x="0" y="0" width="2400" height="1600"/>
  </clipPath>
</defs>
<path clip-path="url(#clip490)" d="M0 1600 L2400 1600 L2400 0 L0 0  Z" fill="#ffffff" fill-rule="evenodd" fill-opacity="1"/>
<defs>
  <clipPath id="clip491">
    <rect x="480" y="0" width="1681" height="1600"/>
  </clipPath>
</defs>
<path clip-path="url(#clip490)" d="M192.941 1423.18 L2352.76 1423.18 L2352.76 47.2441 L192.941 47.2441  Z" fill="#ffffff" fill-rule="evenodd" fill-opacity="1"/>
<defs>
  <clipPath id="clip492">
    <rect x="192" y="47" width="2161" height="1377"/>
  </clipPath>
</defs>
<polyline clip-path="url(#clip492)" style="stroke:#000000; stroke-linecap:round; stroke-linejoin:round; stroke-width:2; stroke-opacity:0.1; fill:none" points="192.941,1423.18 192.941,47.2441 "/>
<polyline clip-path="url(#clip492)" style="stroke:#000000; stroke-linecap:round; stroke-linejoin:round; stroke-width:2; stroke-opacity:0.1; fill:none" points="624.904,1423.18 624.904,47.2441 "/>
<polyline clip-path="url(#clip492)" style="stroke:#000000; stroke-linecap:round; stroke-linejoin:round; stroke-width:2; stroke-opacity:0.1; fill:none" points="1056.87,1423.18 1056.87,47.2441 "/>
<polyline clip-path="url(#clip492)" style="stroke:#000000; stroke-linecap:round; stroke-linejoin:round; stroke-width:2; stroke-opacity:0.1; fill:none" points="1488.83,1423.18 1488.83,47.2441 "/>
<polyline clip-path="url(#clip492)" style="stroke:#000000; stroke-linecap:round; stroke-linejoin:round; stroke-width:2; stroke-opacity:0.1; fill:none" points="1920.79,1423.18 1920.79,47.2441 "/>
<polyline clip-path="url(#clip492)" style="stroke:#000000; stroke-linecap:round; stroke-linejoin:round; stroke-width:2; stroke-opacity:0.1; fill:none" points="2352.76,1423.18 2352.76,47.2441 "/>
<polyline clip-path="url(#clip490)" style="stroke:#000000; stroke-linecap:round; stroke-linejoin:round; stroke-width:4; stroke-opacity:1; fill:none" points="192.941,1423.18 2352.76,1423.18 "/>
<polyline clip-path="url(#clip490)" style="stroke:#000000; stroke-linecap:round; stroke-linejoin:round; stroke-width:4; stroke-opacity:1; fill:none" points="192.941,1423.18 192.941,1404.28 "/>
<polyline clip-path="url(#clip490)" style="stroke:#000000; stroke-linecap:round; stroke-linejoin:round; stroke-width:4; stroke-opacity:1; fill:none" points="624.904,1423.18 624.904,1404.28 "/>
<polyline clip-path="url(#clip490)" style="stroke:#000000; stroke-linecap:round; stroke-linejoin:round; stroke-width:4; stroke-opacity:1; fill:none" points="1056.87,1423.18 1056.87,1404.28 "/>
<polyline clip-path="url(#clip490)" style="stroke:#000000; stroke-linecap:round; stroke-linejoin:round; stroke-width:4; stroke-opacity:1; fill:none" points="1488.83,1423.18 1488.83,1404.28 "/>
<polyline clip-path="url(#clip490)" style="stroke:#000000; stroke-linecap:round; stroke-linejoin:round; stroke-width:4; stroke-opacity:1; fill:none" points="1920.79,1423.18 1920.79,1404.28 "/>
<polyline clip-path="url(#clip490)" style="stroke:#000000; stroke-linecap:round; stroke-linejoin:round; stroke-width:4; stroke-opacity:1; fill:none" points="2352.76,1423.18 2352.76,1404.28 "/>
<path clip-path="url(#clip490)" d="M192.941 1454.1 Q189.33 1454.1 187.501 1457.66 Q185.695 1461.2 185.695 1468.33 Q185.695 1475.44 187.501 1479.01 Q189.33 1482.55 192.941 1482.55 Q196.575 1482.55 198.38 1479.01 Q200.209 1475.44 200.209 1468.33 Q200.209 1461.2 198.38 1457.66 Q196.575 1454.1 192.941 1454.1 M192.941 1450.39 Q198.751 1450.39 201.806 1455 Q204.885 1459.58 204.885 1468.33 Q204.885 1477.06 201.806 1481.67 Q198.751 1486.25 192.941 1486.25 Q187.13 1486.25 184.052 1481.67 Q180.996 1477.06 180.996 1468.33 Q180.996 1459.58 184.052 1455 Q187.13 1450.39 192.941 1450.39 Z" fill="#000000" fill-rule="nonzero" fill-opacity="1" /><path clip-path="url(#clip490)" d="M619.556 1481.64 L635.876 1481.64 L635.876 1485.58 L613.932 1485.58 L613.932 1481.64 Q616.594 1478.89 621.177 1474.26 Q625.783 1469.61 626.964 1468.27 Q629.209 1465.74 630.089 1464.01 Q630.992 1462.25 630.992 1460.56 Q630.992 1457.8 629.047 1456.07 Q627.126 1454.33 624.024 1454.33 Q621.825 1454.33 619.371 1455.09 Q616.941 1455.86 614.163 1457.41 L614.163 1452.69 Q616.987 1451.55 619.441 1450.97 Q621.894 1450.39 623.931 1450.39 Q629.302 1450.39 632.496 1453.08 Q635.691 1455.77 635.691 1460.26 Q635.691 1462.39 634.88 1464.31 Q634.093 1466.2 631.987 1468.8 Q631.408 1469.47 628.306 1472.69 Q625.205 1475.88 619.556 1481.64 Z" fill="#000000" fill-rule="nonzero" fill-opacity="1" /><path clip-path="url(#clip490)" d="M1059.88 1455.09 L1048.07 1473.54 L1059.88 1473.54 L1059.88 1455.09 M1058.65 1451.02 L1064.53 1451.02 L1064.53 1473.54 L1069.46 1473.54 L1069.46 1477.43 L1064.53 1477.43 L1064.53 1485.58 L1059.88 1485.58 L1059.88 1477.43 L1044.27 1477.43 L1044.27 1472.92 L1058.65 1451.02 Z" fill="#000000" fill-rule="nonzero" fill-opacity="1" /><path clip-path="url(#clip490)" d="M1489.23 1466.44 Q1486.09 1466.44 1484.23 1468.59 Q1482.41 1470.74 1482.41 1474.49 Q1482.41 1478.22 1484.23 1480.39 Q1486.09 1482.55 1489.23 1482.55 Q1492.38 1482.55 1494.21 1480.39 Q1496.06 1478.22 1496.06 1474.49 Q1496.06 1470.74 1494.21 1468.59 Q1492.38 1466.44 1489.23 1466.44 M1498.52 1451.78 L1498.52 1456.04 Q1496.76 1455.21 1494.95 1454.77 Q1493.17 1454.33 1491.41 1454.33 Q1486.78 1454.33 1484.33 1457.45 Q1481.9 1460.58 1481.55 1466.9 Q1482.92 1464.89 1484.98 1463.82 Q1487.04 1462.73 1489.51 1462.73 Q1494.72 1462.73 1497.73 1465.9 Q1500.76 1469.05 1500.76 1474.49 Q1500.76 1479.82 1497.61 1483.03 Q1494.47 1486.25 1489.23 1486.25 Q1483.24 1486.25 1480.07 1481.67 Q1476.9 1477.06 1476.9 1468.33 Q1476.9 1460.14 1480.79 1455.28 Q1484.67 1450.39 1491.23 1450.39 Q1492.98 1450.39 1494.77 1450.74 Q1496.57 1451.09 1498.52 1451.78 Z" fill="#000000" fill-rule="nonzero" fill-opacity="1" /><path clip-path="url(#clip490)" d="M1920.79 1469.17 Q1917.46 1469.17 1915.54 1470.95 Q1913.64 1472.73 1913.64 1475.86 Q1913.64 1478.98 1915.54 1480.77 Q1917.46 1482.55 1920.79 1482.55 Q1924.13 1482.55 1926.05 1480.77 Q1927.97 1478.96 1927.97 1475.86 Q1927.97 1472.73 1926.05 1470.95 Q1924.15 1469.17 1920.79 1469.17 M1916.12 1467.18 Q1913.11 1466.44 1911.42 1464.38 Q1909.75 1462.32 1909.75 1459.35 Q1909.75 1455.21 1912.69 1452.8 Q1915.65 1450.39 1920.79 1450.39 Q1925.95 1450.39 1928.89 1452.8 Q1931.83 1455.21 1931.83 1459.35 Q1931.83 1462.32 1930.14 1464.38 Q1928.48 1466.44 1925.49 1467.18 Q1928.87 1467.96 1930.75 1470.26 Q1932.64 1472.55 1932.64 1475.86 Q1932.64 1480.88 1929.57 1483.57 Q1926.51 1486.25 1920.79 1486.25 Q1915.08 1486.25 1912 1483.57 Q1908.94 1480.88 1908.94 1475.86 Q1908.94 1472.55 1910.84 1470.26 Q1912.74 1467.96 1916.12 1467.18 M1914.4 1459.79 Q1914.4 1462.48 1916.07 1463.98 Q1917.76 1465.49 1920.79 1465.49 Q1923.8 1465.49 1925.49 1463.98 Q1927.2 1462.48 1927.2 1459.79 Q1927.2 1457.11 1925.49 1455.6 Q1923.8 1454.1 1920.79 1454.1 Q1917.76 1454.1 1916.07 1455.6 Q1914.4 1457.11 1914.4 1459.79 Z" fill="#000000" fill-rule="nonzero" fill-opacity="1" /><path clip-path="url(#clip490)" d="M2327.44 1481.64 L2335.08 1481.64 L2335.08 1455.28 L2326.77 1456.95 L2326.77 1452.69 L2335.04 1451.02 L2339.71 1451.02 L2339.71 1481.64 L2347.35 1481.64 L2347.35 1485.58 L2327.44 1485.58 L2327.44 1481.64 Z" fill="#000000" fill-rule="nonzero" fill-opacity="1" /><path clip-path="url(#clip490)" d="M2366.8 1454.1 Q2363.18 1454.1 2361.36 1457.66 Q2359.55 1461.2 2359.55 1468.33 Q2359.55 1475.44 2361.36 1479.01 Q2363.18 1482.55 2366.8 1482.55 Q2370.43 1482.55 2372.23 1479.01 Q2374.06 1475.44 2374.06 1468.33 Q2374.06 1461.2 2372.23 1457.66 Q2370.43 1454.1 2366.8 1454.1 M2366.8 1450.39 Q2372.61 1450.39 2375.66 1455 Q2378.74 1459.58 2378.74 1468.33 Q2378.74 1477.06 2375.66 1481.67 Q2372.61 1486.25 2366.8 1486.25 Q2360.99 1486.25 2357.91 1481.67 Q2354.85 1477.06 2354.85 1468.33 Q2354.85 1459.58 2357.91 1455 Q2360.99 1450.39 2366.8 1450.39 Z" fill="#000000" fill-rule="nonzero" fill-opacity="1" /><path clip-path="url(#clip490)" d="M1271.91 1522.27 L1271.91 1532.4 L1283.97 1532.4 L1283.97 1536.95 L1271.91 1536.95 L1271.91 1556.3 Q1271.91 1560.66 1273.09 1561.9 Q1274.3 1563.14 1277.96 1563.14 L1283.97 1563.14 L1283.97 1568.04 L1277.96 1568.04 Q1271.18 1568.04 1268.6 1565.53 Q1266.02 1562.98 1266.02 1556.3 L1266.02 1536.95 L1261.72 1536.95 L1261.72 1532.4 L1266.02 1532.4 L1266.02 1522.27 L1271.91 1522.27 Z" fill="#000000" fill-rule="nonzero" fill-opacity="1" /><polyline clip-path="url(#clip492)" style="stroke:#000000; stroke-linecap:round; stroke-linejoin:round; stroke-width:2; stroke-opacity:0.1; fill:none" points="192.941,1181.57 2352.76,1181.57 "/>
<polyline clip-path="url(#clip492)" style="stroke:#000000; stroke-linecap:round; stroke-linejoin:round; stroke-width:2; stroke-opacity:0.1; fill:none" points="192.941,888.568 2352.76,888.568 "/>
<polyline clip-path="url(#clip492)" style="stroke:#000000; stroke-linecap:round; stroke-linejoin:round; stroke-width:2; stroke-opacity:0.1; fill:none" points="192.941,595.562 2352.76,595.562 "/>
<polyline clip-path="url(#clip492)" style="stroke:#000000; stroke-linecap:round; stroke-linejoin:round; stroke-width:2; stroke-opacity:0.1; fill:none" points="192.941,302.556 2352.76,302.556 "/>
<polyline clip-path="url(#clip490)" style="stroke:#000000; stroke-linecap:round; stroke-linejoin:round; stroke-width:4; stroke-opacity:1; fill:none" points="192.941,1423.18 192.941,47.2441 "/>
<polyline clip-path="url(#clip490)" style="stroke:#000000; stroke-linecap:round; stroke-linejoin:round; stroke-width:4; stroke-opacity:1; fill:none" points="192.941,1181.57 211.838,1181.57 "/>
<polyline clip-path="url(#clip490)" style="stroke:#000000; stroke-linecap:round; stroke-linejoin:round; stroke-width:4; stroke-opacity:1; fill:none" points="192.941,888.568 211.838,888.568 "/>
<polyline clip-path="url(#clip490)" style="stroke:#000000; stroke-linecap:round; stroke-linejoin:round; stroke-width:4; stroke-opacity:1; fill:none" points="192.941,595.562 211.838,595.562 "/>
<polyline clip-path="url(#clip490)" style="stroke:#000000; stroke-linecap:round; stroke-linejoin:round; stroke-width:4; stroke-opacity:1; fill:none" points="192.941,302.556 211.838,302.556 "/>
<path clip-path="url(#clip490)" d="M50.9921 1182.02 L80.6679 1182.02 L80.6679 1185.96 L50.9921 1185.96 L50.9921 1182.02 Z" fill="#000000" fill-rule="nonzero" fill-opacity="1" /><path clip-path="url(#clip490)" d="M100.76 1167.37 Q97.1493 1167.37 95.3206 1170.94 Q93.515 1174.48 93.515 1181.61 Q93.515 1188.71 95.3206 1192.28 Q97.1493 1195.82 100.76 1195.82 Q104.395 1195.82 106.2 1192.28 Q108.029 1188.71 108.029 1181.61 Q108.029 1174.48 106.2 1170.94 Q104.395 1167.37 100.76 1167.37 M100.76 1163.67 Q106.571 1163.67 109.626 1168.27 Q112.705 1172.86 112.705 1181.61 Q112.705 1190.34 109.626 1194.94 Q106.571 1199.52 100.76 1199.52 Q94.9502 1199.52 91.8715 1194.94 Q88.816 1190.34 88.816 1181.61 Q88.816 1172.86 91.8715 1168.27 Q94.9502 1163.67 100.76 1163.67 Z" fill="#000000" fill-rule="nonzero" fill-opacity="1" /><path clip-path="url(#clip490)" d="M120.922 1192.97 L125.807 1192.97 L125.807 1198.85 L120.922 1198.85 L120.922 1192.97 Z" fill="#000000" fill-rule="nonzero" fill-opacity="1" /><path clip-path="url(#clip490)" d="M136.038 1164.29 L154.394 1164.29 L154.394 1168.23 L140.32 1168.23 L140.32 1176.7 Q141.339 1176.35 142.357 1176.19 Q143.376 1176.01 144.394 1176.01 Q150.181 1176.01 153.561 1179.18 Q156.941 1182.35 156.941 1187.77 Q156.941 1193.34 153.468 1196.45 Q149.996 1199.52 143.677 1199.52 Q141.501 1199.52 139.232 1199.15 Q136.987 1198.78 134.58 1198.04 L134.58 1193.34 Q136.663 1194.48 138.885 1195.03 Q141.107 1195.59 143.584 1195.59 Q147.589 1195.59 149.927 1193.48 Q152.265 1191.38 152.265 1187.77 Q152.265 1184.15 149.927 1182.05 Q147.589 1179.94 143.584 1179.94 Q141.709 1179.94 139.834 1180.36 Q137.982 1180.77 136.038 1181.65 L136.038 1164.29 Z" fill="#000000" fill-rule="nonzero" fill-opacity="1" /><path clip-path="url(#clip490)" d="M99.765 874.366 Q96.1539 874.366 94.3252 877.931 Q92.5197 881.473 92.5197 888.602 Q92.5197 895.709 94.3252 899.274 Q96.1539 902.815 99.765 902.815 Q103.399 902.815 105.205 899.274 Q107.033 895.709 107.033 888.602 Q107.033 881.473 105.205 877.931 Q103.399 874.366 99.765 874.366 M99.765 870.663 Q105.575 870.663 108.631 875.269 Q111.709 879.852 111.709 888.602 Q111.709 897.329 108.631 901.936 Q105.575 906.519 99.765 906.519 Q93.9549 906.519 90.8762 901.936 Q87.8206 897.329 87.8206 888.602 Q87.8206 879.852 90.8762 875.269 Q93.9549 870.663 99.765 870.663 Z" fill="#000000" fill-rule="nonzero" fill-opacity="1" /><path clip-path="url(#clip490)" d="M119.927 899.968 L124.811 899.968 L124.811 905.848 L119.927 905.848 L119.927 899.968 Z" fill="#000000" fill-rule="nonzero" fill-opacity="1" /><path clip-path="url(#clip490)" d="M144.996 874.366 Q141.385 874.366 139.556 877.931 Q137.751 881.473 137.751 888.602 Q137.751 895.709 139.556 899.274 Q141.385 902.815 144.996 902.815 Q148.63 902.815 150.436 899.274 Q152.265 895.709 152.265 888.602 Q152.265 881.473 150.436 877.931 Q148.63 874.366 144.996 874.366 M144.996 870.663 Q150.806 870.663 153.862 875.269 Q156.941 879.852 156.941 888.602 Q156.941 897.329 153.862 901.936 Q150.806 906.519 144.996 906.519 Q139.186 906.519 136.107 901.936 Q133.052 897.329 133.052 888.602 Q133.052 879.852 136.107 875.269 Q139.186 870.663 144.996 870.663 Z" fill="#000000" fill-rule="nonzero" fill-opacity="1" /><path clip-path="url(#clip490)" d="M100.76 581.36 Q97.1493 581.36 95.3206 584.925 Q93.515 588.467 93.515 595.596 Q93.515 602.703 95.3206 606.268 Q97.1493 609.809 100.76 609.809 Q104.395 609.809 106.2 606.268 Q108.029 602.703 108.029 595.596 Q108.029 588.467 106.2 584.925 Q104.395 581.36 100.76 581.36 M100.76 577.657 Q106.571 577.657 109.626 582.263 Q112.705 586.846 112.705 595.596 Q112.705 604.323 109.626 608.93 Q106.571 613.513 100.76 613.513 Q94.9502 613.513 91.8715 608.93 Q88.816 604.323 88.816 595.596 Q88.816 586.846 91.8715 582.263 Q94.9502 577.657 100.76 577.657 Z" fill="#000000" fill-rule="nonzero" fill-opacity="1" /><path clip-path="url(#clip490)" d="M120.922 606.962 L125.807 606.962 L125.807 612.842 L120.922 612.842 L120.922 606.962 Z" fill="#000000" fill-rule="nonzero" fill-opacity="1" /><path clip-path="url(#clip490)" d="M136.038 578.282 L154.394 578.282 L154.394 582.217 L140.32 582.217 L140.32 590.689 Q141.339 590.342 142.357 590.18 Q143.376 589.995 144.394 589.995 Q150.181 589.995 153.561 593.166 Q156.941 596.337 156.941 601.754 Q156.941 607.332 153.468 610.434 Q149.996 613.513 143.677 613.513 Q141.501 613.513 139.232 613.143 Q136.987 612.772 134.58 612.032 L134.58 607.332 Q136.663 608.467 138.885 609.022 Q141.107 609.578 143.584 609.578 Q147.589 609.578 149.927 607.471 Q152.265 605.365 152.265 601.754 Q152.265 598.143 149.927 596.036 Q147.589 593.93 143.584 593.93 Q141.709 593.93 139.834 594.346 Q137.982 594.763 136.038 595.643 L136.038 578.282 Z" fill="#000000" fill-rule="nonzero" fill-opacity="1" /><path clip-path="url(#clip490)" d="M90.5752 315.901 L98.2141 315.901 L98.2141 289.535 L89.904 291.202 L89.904 286.942 L98.1678 285.276 L102.844 285.276 L102.844 315.901 L110.483 315.901 L110.483 319.836 L90.5752 319.836 L90.5752 315.901 Z" fill="#000000" fill-rule="nonzero" fill-opacity="1" /><path clip-path="url(#clip490)" d="M119.927 313.956 L124.811 313.956 L124.811 319.836 L119.927 319.836 L119.927 313.956 Z" fill="#000000" fill-rule="nonzero" fill-opacity="1" /><path clip-path="url(#clip490)" d="M144.996 288.354 Q141.385 288.354 139.556 291.919 Q137.751 295.461 137.751 302.591 Q137.751 309.697 139.556 313.262 Q141.385 316.803 144.996 316.803 Q148.63 316.803 150.436 313.262 Q152.265 309.697 152.265 302.591 Q152.265 295.461 150.436 291.919 Q148.63 288.354 144.996 288.354 M144.996 284.651 Q150.806 284.651 153.862 289.257 Q156.941 293.841 156.941 302.591 Q156.941 311.317 153.862 315.924 Q150.806 320.507 144.996 320.507 Q139.186 320.507 136.107 315.924 Q133.052 311.317 133.052 302.591 Q133.052 293.841 136.107 289.257 Q139.186 284.651 144.996 284.651 Z" fill="#000000" fill-rule="nonzero" fill-opacity="1" /><polyline clip-path="url(#clip492)" style="stroke:#009af9; stroke-linecap:round; stroke-linejoin:round; stroke-width:4; stroke-opacity:1; fill:none" points="192.941,888.568 195.103,888.395 197.265,888.224 199.427,888.055 201.589,887.889 203.751,887.725 205.912,887.563 208.074,887.404 210.236,887.246 212.398,887.091 214.56,886.937 216.722,886.786 218.884,886.636 221.046,886.489 223.208,886.344 225.37,886.2 227.532,886.058 229.694,885.919 231.856,885.781 234.018,885.645 236.18,885.511 238.342,885.378 240.504,885.247 242.666,885.118 244.828,884.991 246.99,884.866 249.152,884.742 251.314,884.619 253.476,884.499 255.638,884.38 257.8,884.262 259.962,884.146 262.124,884.032 264.286,883.919 266.448,883.808 268.61,883.698 270.772,883.589 272.934,883.482 275.096,883.377 277.258,883.272 279.42,883.17 281.582,883.068 283.744,882.968 285.906,882.869 288.068,882.772 290.23,882.676 292.392,882.581 294.554,882.487 296.716,882.395 298.878,882.304 301.039,882.214 303.201,882.125 305.363,882.037 307.525,881.951 309.687,881.866 311.849,881.782 314.011,881.698 316.173,881.617 318.335,881.536 320.497,881.456 322.659,881.377 324.821,881.3 326.983,881.223 329.145,881.147 331.307,881.073 333.469,880.999 335.631,880.926 337.793,880.855 339.955,880.784 342.117,880.714 344.279,880.645 346.441,880.577 348.603,880.51 350.765,880.444 352.927,880.379 355.089,880.314 357.251,880.251 359.413,880.188 361.575,880.126 363.737,880.065 365.899,880.005 368.061,879.945 370.223,879.887 372.385,879.829 374.547,879.771 376.709,879.715 378.871,879.659 381.033,879.605 383.195,879.55 385.357,879.497 387.519,879.444 389.681,879.392 391.843,879.341 394.005,879.29 396.166,879.24 398.328,879.191 400.49,879.142 402.652,879.094 404.814,879.047 406.976,878.118 409.138,875.12 411.3,870.337 413.462,864.049 415.624,856.52 417.786,847.99 419.948,838.681 422.11,828.795 424.272,818.516 426.434,808.006 428.596,797.407 430.758,786.842 432.92,776.415 435.082,766.209 437.244,756.288 439.406,746.696 441.568,737.457 443.73,728.575 445.892,720.034 448.054,711.8 450.216,703.817 452.378,696.011 454.54,688.286 456.702,680.529 458.864,672.672 461.026,664.896 463.188,657.224 465.35,649.653 467.512,642.183 469.674,634.811 471.836,627.537 473.998,620.36 476.16,613.278 478.322,606.29 480.484,599.394 482.646,592.59 484.808,585.876 486.97,579.251 489.132,572.714 491.293,566.264 493.455,559.899 495.617,553.618 497.779,547.42 499.941,541.305 502.103,535.27 504.265,529.316 506.427,523.441 508.589,517.643 510.751,511.923 512.913,506.278 515.075,500.708 517.237,495.213 519.399,489.79 521.561,484.439 523.723,479.159 525.885,473.949 528.047,468.808 530.209,463.735 532.371,458.73 534.533,453.791 536.695,448.918 538.857,444.109 541.019,439.364 543.181,434.682 545.343,430.061 547.505,425.503 549.667,421.004 551.829,416.565 553.991,412.185 556.153,407.863 558.315,403.599 560.477,399.391 562.639,395.238 564.801,391.141 566.963,387.098 569.125,383.108 571.287,379.172 573.449,375.287 575.611,371.454 577.773,367.672 579.935,363.94 582.097,360.258 584.259,356.624 586.42,353.039 588.582,349.501 590.744,346.01 592.906,342.565 595.068,339.166 597.23,335.812 599.392,332.502 601.554,329.237 603.716,326.014 605.878,322.835 608.04,319.697 610.202,316.601 612.364,313.546 614.526,309.404 616.688,303.435 618.85,300.533 621.012,303.645 623.174,313.3 625.336,327.605 627.498,342.367 629.66,356.18 631.822,369.81 633.984,383.259 636.146,396.53 638.308,409.626 640.47,422.547 642.632,435.297 644.794,447.879 646.956,460.293 649.118,472.543 651.28,484.63 653.442,496.557 655.604,508.326 657.766,519.939 659.928,531.398 662.09,542.705 664.252,553.862 666.414,564.871 668.576,575.734 670.738,586.453 672.9,597.03 675.062,607.466 677.224,617.765 679.386,627.927 681.547,637.954 683.709,647.848 685.871,657.611 688.033,667.245 690.195,676.751 692.357,686.13 694.519,695.386 696.681,704.519 698.843,713.531 701.005,722.423 703.167,731.198 705.329,739.856 707.491,748.399 709.653,756.829 711.815,765.147 713.977,773.355 716.139,781.454 718.301,789.446 720.463,797.331 722.625,805.112 724.787,812.79 726.949,820.367 729.111,827.842 731.273,835.219 733.435,842.498 735.597,849.68 737.759,856.767 739.921,863.761 742.083,870.661 744.245,877.47 746.407,884.189 748.569,890.819 750.731,897.361 752.893,903.816 755.055,910.186 757.217,916.471 759.379,922.673 761.541,928.792 763.703,934.831 765.865,940.789 768.027,946.668 770.189,952.469 772.351,958.194 774.513,963.842 776.674,969.416 778.836,974.915 780.998,980.342 783.16,985.697 785.322,990.98 787.484,996.194 789.646,1001.34 791.808,1006.41 793.97,1011.42 796.132,1016.37 798.294,1021.24 800.456,1026.06 802.618,1030.81 804.78,1035.49 806.942,1040.11 809.104,1044.68 811.266,1049.18 813.428,1053.62 815.59,1058 817.752,1062.33 819.914,1066.6 822.076,1070.81 824.238,1074.96 826.4,1079.06 828.562,1083.11 830.724,1087.1 832.886,1091.04 835.048,1094.93 837.21,1098.77 839.372,1102.55 841.534,1105.78 843.696,1104.63 845.858,1099.43 848.02,1091.43 850.182,1081.68 852.344,1071.05 854.506,1060.21 856.668,1049.65 858.83,1039.68 860.992,1030.41 863.154,1021.77 865.316,1013.49 867.478,1005.12 869.64,996.589 871.801,988.175 873.963,979.871 876.125,971.678 878.287,963.594 880.449,955.616 882.611,947.745 884.773,939.978 886.935,932.313 889.097,924.75 891.259,917.288 893.421,909.924 895.583,902.659 897.745,895.489 899.907,888.415 902.069,881.434 904.231,874.546 906.393,867.749 908.555,861.043 910.717,854.425 912.879,847.895 915.041,841.452 917.203,835.094 919.365,828.82 921.527,822.63 923.689,816.522 925.851,810.494 928.013,804.547 930.175,798.678 932.337,792.887 934.499,787.173 936.661,781.535 938.823,775.971 940.985,770.482 943.147,765.065 945.309,759.719 947.471,754.445 949.633,749.24 951.795,744.105 953.957,739.038 956.119,734.037 958.281,729.104 960.443,724.235 962.605,719.431 964.767,714.691 966.928,710.014 969.09,705.398 971.252,700.844 973.414,696.351 975.576,691.916 977.738,687.541 979.9,683.223 982.062,678.963 984.224,674.76 986.386,670.612 988.548,666.518 990.71,662.48 992.872,658.494 995.034,654.562 997.196,650.681 999.358,646.852 1001.52,643.074 1003.68,639.346 1005.84,635.668 1008.01,632.038 1010.17,628.456 1012.33,624.922 1014.49,621.435 1016.65,617.994 1018.82,614.599 1020.98,611.249 1023.14,607.943 1025.3,604.681 1027.46,601.462 1029.63,598.286 1031.79,595.152 1033.95,592.06 1036.11,589.008 1038.27,585.997 1040.44,583.026 1042.6,580.095 1044.76,577.202 1046.92,574.347 1049.08,571.531 1051.25,568.752 1053.41,566.009 1055.57,563.902 1057.73,563.905 1059.89,565.843 1062.06,569.465 1064.22,574.532 1066.38,580.822 1068.54,588.126 1070.7,596.252 1072.87,605.02 1075.03,614.268 1077.19,623.846 1079.35,633.619 1081.51,643.47 1083.68,653.292 1085.84,662.996 1088,672.507 1090.16,681.764 1092.32,690.723 1094.49,699.351 1096.65,707.634 1098.81,715.57 1100.97,723.172 1103.13,730.469 1105.3,737.504 1107.46,744.335 1109.62,751.034 1111.78,757.688 1113.94,764.401 1116.1,771.246 1118.27,778.04 1120.43,784.745 1122.59,791.36 1124.75,797.887 1126.91,804.328 1129.08,810.684 1131.24,816.955 1133.4,823.144 1135.56,829.25 1137.72,835.275 1139.89,841.22 1142.05,847.087 1144.21,852.875 1146.37,858.587 1148.53,864.224 1150.7,869.785 1152.86,875.273 1155.02,880.688 1157.18,886.031 1159.34,891.304 1161.51,896.507 1163.67,901.64 1165.83,906.706 1167.99,911.705 1170.15,916.637 1172.32,921.505 1174.48,926.307 1176.64,931.046 1178.8,935.722 1180.96,940.336 1183.13,944.889 1185.29,949.381 1187.45,953.814 1189.61,958.187 1191.77,962.503 1193.94,966.762 1196.1,970.964 1198.26,975.11 1200.42,979.201 1202.58,983.238 1204.75,987.222 1206.91,991.152 1209.07,995.031 1211.23,998.858 1213.39,1002.63 1215.56,1006.36 1217.72,1010.04 1219.88,1013.66 1222.04,1017.24 1224.2,1020.78 1226.37,1024.26 1228.53,1027.7 1230.69,1031.1 1232.85,1034.44 1235.01,1037.75 1237.18,1041.01 1239.34,1044.23 1241.5,1047.4 1243.66,1050.54 1245.82,1053.63 1247.99,1056.68 1250.15,1059.69 1252.31,1062.66 1254.47,1065.59 1256.63,1068.48 1258.8,1071.33 1260.96,1074.07 1263.12,1076.01 1265.28,1077.15 1267.44,1077.65 1269.61,1077.63 1271.77,1077.22 1273.93,1076.53 1276.09,1075.65 1278.25,1074.67 1280.42,1073.65 1282.58,1072.66 1284.74,1071.71 1286.9,1070.86 1289.06,1070.1 1291.23,1069.43 1293.39,1068.85 1295.55,1068.32 1297.71,1067.8 1299.87,1067.23 1302.03,1066.63 1304.2,1066.04 1306.36,1065.46 1308.52,1064.88 1310.68,1064.31 1312.84,1063.75 1315.01,1063.2 1317.17,1062.65 1319.33,1062.11 1321.49,1061.58 1323.65,1061.06 1325.82,1060.54 1327.98,1060.03 1330.14,1059.52 1332.3,1059.02 1334.46,1058.53 1336.63,1058.05 1338.79,1057.57 1340.95,1057.1 1343.11,1056.63 1345.27,1056.17 1347.44,1055.72 1349.6,1055.27 1351.76,1054.83 1353.92,1054.39 1356.08,1053.96 1358.25,1053.54 1360.41,1053.12 1362.57,1052.71 1364.73,1052.3 1366.89,1051.9 1369.06,1051.5 1371.22,1051.11 1373.38,1050.73 1375.54,1050.35 1377.7,1049.97 1379.87,1049.6 1382.03,1049.23 1384.19,1048.87 1386.35,1048.51 1388.51,1048.16 1390.68,1047.82 1392.84,1047.47 1395,1047.14 1397.16,1046.8 1399.32,1046.47 1401.49,1046.15 1403.65,1045.83 1405.81,1045.51 1407.97,1045.2 1410.13,1044.89 1412.3,1044.59 1414.46,1044.29 1416.62,1043.99 1418.78,1043.7 1420.94,1043.41 1423.11,1043.13 1425.27,1042.85 1427.43,1042.57 1429.59,1042.3 1431.75,1042.03 1433.92,1041.76 1436.08,1041.5 1438.24,1041.24 1440.4,1040.99 1442.56,1040.74 1444.73,1040.49 1446.89,1040.24 1449.05,1040 1451.21,1039.76 1453.37,1039.53 1455.54,1039.29 1457.7,1039.06 1459.86,1038.84 1462.02,1038.61 1464.18,1038.39 1466.35,1038.18 1468.51,1037.96 1470.67,1037.75 1472.83,1037.54 1474.99,1037.33 1477.16,1037.13 1479.32,1036.93 1481.48,1036.73 1483.64,1036.54 1485.8,1036.34 1487.97,1036.05 1490.13,1034.55 1492.29,1031.72 1494.45,1027.74 1496.61,1022.77 1498.77,1016.99 1500.94,1010.53 1503.1,1003.55 1505.26,996.157 1507.42,988.481 1509.58,980.622 1511.75,972.675 1513.91,964.722 1516.07,956.832 1518.23,949.067 1520.39,941.474 1522.56,934.09 1524.72,926.94 1526.88,920.04 1529.04,913.391 1531.2,906.986 1533.37,900.805 1535.53,894.818 1537.69,888.981 1539.85,883.241 1542.01,877.533 1544.18,871.782 1546.34,865.985 1548.5,860.263 1550.66,854.617 1552.82,849.045 1554.99,843.547 1557.15,838.122 1559.31,832.769 1561.47,827.487 1563.63,822.275 1565.8,817.132 1567.96,812.058 1570.12,807.05 1572.28,802.109 1574.44,797.234 1576.61,792.423 1578.77,787.676 1580.93,782.991 1583.09,778.369 1585.25,773.808 1587.42,769.307 1589.58,764.867 1591.74,760.485 1593.9,756.161 1596.06,751.894 1598.23,747.685 1600.39,743.531 1602.55,739.432 1604.71,735.387 1606.87,731.396 1609.04,727.458 1611.2,723.572 1613.36,719.738 1615.52,715.955 1617.68,712.222 1619.85,708.538 1622.01,704.903 1624.17,701.317 1626.33,697.778 1628.49,694.286 1630.66,690.84 1632.82,687.439 1634.98,684.084 1637.14,680.774 1639.3,677.507 1641.47,674.283 1643.63,671.103 1645.79,667.964 1647.95,664.867 1650.11,661.811 1652.28,658.796 1654.44,655.82 1656.6,652.884 1658.76,649.987 1660.92,647.128 1663.09,644.307 1665.25,641.524 1667.41,638.778 1669.57,636.068 1671.73,633.393 1673.9,630.755 1676.06,628.151 1678.22,625.582 1680.38,623.047 1682.54,620.545 1684.7,618.149 1686.87,615.982 1689.03,614.026 1691.19,612.263 1693.35,610.673 1695.51,609.24 1697.68,607.946 1699.84,606.775 1702,605.712 1704.16,604.744 1706.32,603.857 1708.49,603.038 1710.65,602.275 1712.81,601.56 1714.97,600.881 1717.13,600.23 1719.3,599.598 1721.46,598.979 1723.62,598.367 1725.78,597.757 1727.94,597.143 1730.11,596.522 1732.27,595.892 1734.43,595.251 1736.59,594.597 1738.75,593.932 1740.92,593.256 1743.08,592.57 1745.24,591.878 1747.4,591.182 1749.56,590.487 1751.73,589.8 1753.89,589.125 1756.05,588.469 1758.21,587.842 1760.37,587.24 1762.54,586.647 1764.7,586.062 1766.86,585.484 1769.02,584.915 1771.18,584.352 1773.35,583.797 1775.51,583.25 1777.67,582.71 1779.83,582.177 1781.99,581.651 1784.16,581.132 1786.32,580.62 1788.48,580.114 1790.64,579.616 1792.8,579.124 1794.97,578.638 1797.13,578.159 1799.29,577.686 1801.45,577.22 1803.61,576.76 1805.78,576.306 1807.94,575.857 1810.1,575.415 1812.26,574.979 1814.42,574.548 1816.59,574.124 1818.75,573.704 1820.91,573.291 1823.07,572.883 1825.23,572.48 1827.4,572.082 1829.56,571.69 1831.72,571.303 1833.88,570.922 1836.04,570.545 1838.21,570.173 1840.37,569.806 1842.53,569.444 1844.69,569.087 1846.85,568.735 1849.02,568.387 1851.18,568.044 1853.34,567.705 1855.5,567.371 1857.66,567.042 1859.83,566.716 1861.99,566.395 1864.15,566.079 1866.31,565.766 1868.47,565.458 1870.63,565.153 1872.8,564.853 1874.96,564.557 1877.12,564.264 1879.28,563.976 1881.44,563.691 1883.61,563.41 1885.77,563.133 1887.93,562.86 1890.09,562.59 1892.25,562.324 1894.42,562.061 1896.58,561.802 1898.74,561.546 1900.9,561.293 1903.06,561.044 1905.23,560.798 1907.39,560.556 1909.55,560.317 1911.71,560.699 1913.87,562.549 1916.04,565.596 1918.2,569.583 1920.36,574.278 1922.52,579.474 1924.68,584.989 1926.85,590.671 1929.01,596.389 1931.17,602.042 1933.33,607.552 1935.49,612.868 1937.66,617.966 1939.82,622.846 1941.98,627.535 1944.14,632.086 1946.3,636.577 1948.47,641.11 1950.63,645.635 1952.79,650.1 1954.95,654.506 1957.11,658.854 1959.28,663.144 1961.44,667.377 1963.6,671.554 1965.76,675.675 1967.92,679.742 1970.09,683.756 1972.25,687.716 1974.41,691.623 1976.57,695.479 1978.73,699.284 1980.9,703.038 1983.06,706.742 1985.22,710.398 1987.38,714.004 1989.54,717.563 1991.71,721.075 1993.87,724.54 1996.03,727.959 1998.19,731.333 2000.35,734.662 2002.52,737.947 2004.68,741.188 2006.84,744.387 2009,747.543 2011.16,750.656 2013.33,753.729 2015.49,756.761 2017.65,759.753 2019.81,762.705 2021.97,765.618 2024.14,768.492 2026.3,771.328 2028.46,774.127 2030.62,776.888 2032.78,779.613 2034.95,782.302 2037.11,784.955 2039.27,787.573 2041.43,790.157 2043.59,792.706 2045.76,795.221 2047.92,797.703 2050.08,800.152 2052.24,802.569 2054.4,804.954 2056.57,807.307 2058.73,809.629 2060.89,811.92 2063.05,814.18 2065.21,816.411 2067.37,818.612 2069.54,820.784 2071.7,822.927 2073.86,825.042 2076.02,827.128 2078.18,829.187 2080.35,831.219 2082.51,833.224 2084.67,835.202 2086.83,837.154 2088.99,839.08 2091.16,840.98 2093.32,842.856 2095.48,844.706 2097.64,846.532 2099.8,848.334 2101.97,850.112 2104.13,851.866 2106.29,853.597 2108.45,855.305 2110.61,856.99 2112.78,858.653 2114.94,860.294 2117.1,861.914 2119.26,863.512 2121.42,865.088 2123.59,866.644 2125.75,868.179 2127.91,869.694 2130.07,871.188 2132.23,872.663 2134.4,873.995 2136.56,874.505 2138.72,874.19 2140.88,873.165 2143.04,871.539 2145.21,869.414 2147.37,866.881 2149.53,864.027 2151.69,860.931 2153.85,857.664 2156.02,854.29 2158.18,850.865 2160.34,847.438 2162.5,844.051 2164.66,840.739 2166.83,837.527 2168.99,834.436 2171.15,831.478 2173.31,828.658 2175.47,825.972 2177.64,823.411 2179.8,820.957 2181.96,818.586 2184.12,816.265 2186.28,813.955 2188.45,811.609 2190.61,809.213 2192.77,806.844 2194.93,804.507 2197.09,802.2 2199.26,799.924 2201.42,797.678 2203.58,795.462 2205.74,793.275 2207.9,791.118 2210.07,788.989 2212.23,786.888 2214.39,784.815 2216.55,782.769 2218.71,780.751 2220.88,778.759 2223.04,776.794 2225.2,774.855 2227.36,772.941 2229.52,771.053 2231.69,769.19 2233.85,767.351 2236.01,765.537 2238.17,763.747 2240.33,761.981 2242.5,760.238 2244.66,758.518 2246.82,756.821 2248.98,755.146 2251.14,753.494 2253.3,751.864 2255.47,750.255 2257.63,748.668 2259.79,747.101 2261.95,745.556 2264.11,744.031 2266.28,742.526 2268.44,741.041 2270.6,739.576 2272.76,738.13 2274.92,736.704 2277.09,735.296 2279.25,733.908 2281.41,732.537 2283.57,731.185 2285.73,729.85 2287.9,728.534 2290.06,727.235 2292.22,725.952 2294.38,724.687 2296.54,723.439 2298.71,722.207 2300.87,720.992 2303.03,719.793 2305.19,718.609 2307.35,717.442 2309.52,716.289 2311.68,715.152 2313.84,714.03 2316,712.923 2318.16,711.831 2320.33,710.753 2322.49,709.689 2324.65,708.64 2326.81,707.604 2328.97,706.582 2331.14,705.574 2333.3,704.579 2335.46,703.597 2337.62,702.629 2339.78,701.673 2341.95,700.729 2344.11,699.799 2346.27,698.88 2348.43,697.974 2350.59,697.08 2352.76,696.198 "/>
<polyline clip-path="url(#clip492)" style="stroke:#e26f46; stroke-linecap:round; stroke-linejoin:round; stroke-width:4; stroke-opacity:1; fill:none" points="192.941,875.519 195.103,875.519 197.265,875.519 199.427,875.519 201.589,875.519 203.751,875.519 205.912,875.519 208.074,875.519 210.236,875.519 212.398,875.519 214.56,875.519 216.722,875.519 218.884,875.519 221.046,875.519 223.208,875.519 225.37,875.519 227.532,875.519 229.694,875.519 231.856,875.519 234.018,875.519 236.18,875.519 238.342,875.519 240.504,875.519 242.666,875.519 244.828,875.519 246.99,875.519 249.152,875.519 251.314,875.519 253.476,875.519 255.638,875.519 257.8,875.519 259.962,875.519 262.124,875.519 264.286,875.519 266.448,875.519 268.61,875.519 270.772,875.519 272.934,875.519 275.096,875.519 277.258,875.519 279.42,875.519 281.582,875.519 283.744,875.519 285.906,875.519 288.068,875.519 290.23,875.519 292.392,875.519 294.554,875.519 296.716,875.519 298.878,875.519 301.039,875.519 303.201,875.519 305.363,875.519 307.525,875.519 309.687,875.519 311.849,875.519 314.011,875.519 316.173,875.519 318.335,875.519 320.497,875.519 322.659,875.519 324.821,875.519 326.983,875.519 329.145,875.519 331.307,875.519 333.469,875.519 335.631,875.519 337.793,875.519 339.955,875.519 342.117,875.519 344.279,875.519 346.441,875.519 348.603,875.519 350.765,875.519 352.927,875.519 355.089,875.519 357.251,875.519 359.413,875.519 361.575,875.519 363.737,875.519 365.899,875.519 368.061,875.519 370.223,875.519 372.385,875.519 374.547,875.519 376.709,875.519 378.871,875.519 381.033,875.519 383.195,875.519 385.357,875.519 387.519,875.519 389.681,875.519 391.843,875.519 394.005,875.519 396.166,875.519 398.328,875.519 400.49,875.519 402.652,875.519 404.814,875.519 406.976,875.519 409.138,86.1857 411.3,86.1857 413.462,86.1857 415.624,86.1857 417.786,86.1857 419.948,86.1857 422.11,86.1857 424.272,86.1857 426.434,86.1857 428.596,86.1857 430.758,86.1857 432.92,86.1857 435.082,86.1857 437.244,86.1857 439.406,86.1857 441.568,86.1857 443.73,86.1857 445.892,86.1857 448.054,86.1857 450.216,86.1857 452.378,86.1857 454.54,86.1857 456.702,86.1857 458.864,86.1857 461.026,86.1857 463.188,86.1857 465.35,86.1857 467.512,86.1857 469.674,86.1857 471.836,86.1857 473.998,86.1857 476.16,86.1857 478.322,86.1857 480.484,86.1857 482.646,86.1857 484.808,86.1857 486.97,86.1857 489.132,86.1857 491.293,86.1857 493.455,86.1857 495.617,86.1857 497.779,86.1857 499.941,86.1857 502.103,86.1857 504.265,86.1857 506.427,86.1857 508.589,86.1857 510.751,86.1857 512.913,86.1857 515.075,86.1857 517.237,86.1857 519.399,86.1857 521.561,86.1857 523.723,86.1857 525.885,86.1857 528.047,86.1857 530.209,86.1857 532.371,86.1857 534.533,86.1857 536.695,86.1857 538.857,86.1857 541.019,86.1857 543.181,86.1857 545.343,86.1857 547.505,86.1857 549.667,86.1857 551.829,86.1857 553.991,86.1857 556.153,86.1857 558.315,86.1857 560.477,86.1857 562.639,86.1857 564.801,86.1857 566.963,86.1857 569.125,86.1857 571.287,86.1857 573.449,86.1857 575.611,86.1857 577.773,86.1857 579.935,86.1857 582.097,86.1857 584.259,86.1857 586.42,86.1857 588.582,86.1857 590.744,86.1857 592.906,86.1857 595.068,86.1857 597.23,86.1857 599.392,86.1857 601.554,86.1857 603.716,86.1857 605.878,86.1857 608.04,86.1857 610.202,86.1857 612.364,86.1857 614.526,86.1857 616.688,86.1857 618.85,86.1857 621.012,86.1857 623.174,86.1857 625.336,1384.24 627.498,1384.24 629.66,1384.24 631.822,1384.24 633.984,1384.24 636.146,1384.24 638.308,1384.24 640.47,1384.24 642.632,1384.24 644.794,1384.24 646.956,1384.24 649.118,1384.24 651.28,1384.24 653.442,1384.24 655.604,1384.24 657.766,1384.24 659.928,1384.24 662.09,1384.24 664.252,1384.24 666.414,1384.24 668.576,1384.24 670.738,1384.24 672.9,1384.24 675.062,1384.24 677.224,1384.24 679.386,1384.24 681.547,1384.24 683.709,1384.24 685.871,1384.24 688.033,1384.24 690.195,1384.24 692.357,1384.24 694.519,1384.24 696.681,1384.24 698.843,1384.24 701.005,1384.24 703.167,1384.24 705.329,1384.24 707.491,1384.24 709.653,1384.24 711.815,1384.24 713.977,1384.24 716.139,1384.24 718.301,1384.24 720.463,1384.24 722.625,1384.24 724.787,1384.24 726.949,1384.24 729.111,1384.24 731.273,1384.24 733.435,1384.24 735.597,1384.24 737.759,1384.24 739.921,1384.24 742.083,1384.24 744.245,1384.24 746.407,1384.24 748.569,1384.24 750.731,1384.24 752.893,1384.24 755.055,1384.24 757.217,1384.24 759.379,1384.24 761.541,1384.24 763.703,1384.24 765.865,1384.24 768.027,1384.24 770.189,1384.24 772.351,1384.24 774.513,1384.24 776.674,1384.24 778.836,1384.24 780.998,1384.24 783.16,1384.24 785.322,1384.24 787.484,1384.24 789.646,1384.24 791.808,1384.24 793.97,1384.24 796.132,1384.24 798.294,1384.24 800.456,1384.24 802.618,1384.24 804.78,1384.24 806.942,1384.24 809.104,1384.24 811.266,1384.24 813.428,1384.24 815.59,1384.24 817.752,1384.24 819.914,1384.24 822.076,1384.24 824.238,1384.24 826.4,1384.24 828.562,1384.24 830.724,1384.24 832.886,1384.24 835.048,1384.24 837.21,1384.24 839.372,1384.24 841.534,361.895 843.696,361.895 845.858,361.895 848.02,361.895 850.182,361.895 852.344,361.895 854.506,361.895 856.668,361.895 858.83,361.895 860.992,361.895 863.154,361.895 865.316,361.895 867.478,361.895 869.64,361.895 871.801,361.895 873.963,361.895 876.125,361.895 878.287,361.895 880.449,361.895 882.611,361.895 884.773,361.895 886.935,361.895 889.097,361.895 891.259,361.895 893.421,361.895 895.583,361.895 897.745,361.895 899.907,361.895 902.069,361.895 904.231,361.895 906.393,361.895 908.555,361.895 910.717,361.895 912.879,361.895 915.041,361.895 917.203,361.895 919.365,361.895 921.527,361.895 923.689,361.895 925.851,361.895 928.013,361.895 930.175,361.895 932.337,361.895 934.499,361.895 936.661,361.895 938.823,361.895 940.985,361.895 943.147,361.895 945.309,361.895 947.471,361.895 949.633,361.895 951.795,361.895 953.957,361.895 956.119,361.895 958.281,361.895 960.443,361.895 962.605,361.895 964.767,361.895 966.928,361.895 969.09,361.895 971.252,361.895 973.414,361.895 975.576,361.895 977.738,361.895 979.9,361.895 982.062,361.895 984.224,361.895 986.386,361.895 988.548,361.895 990.71,361.895 992.872,361.895 995.034,361.895 997.196,361.895 999.358,361.895 1001.52,361.895 1003.68,361.895 1005.84,361.895 1008.01,361.895 1010.17,361.895 1012.33,361.895 1014.49,361.895 1016.65,361.895 1018.82,361.895 1020.98,361.895 1023.14,361.895 1025.3,361.895 1027.46,361.895 1029.63,361.895 1031.79,361.895 1033.95,361.895 1036.11,361.895 1038.27,361.895 1040.44,361.895 1042.6,361.895 1044.76,361.895 1046.92,361.895 1049.08,361.895 1051.25,361.895 1053.41,361.895 1055.57,361.895 1057.73,1283.71 1059.89,1283.71 1062.06,1283.71 1064.22,1283.71 1066.38,1283.71 1068.54,1283.71 1070.7,1283.71 1072.87,1283.71 1075.03,1283.71 1077.19,1283.71 1079.35,1283.71 1081.51,1283.71 1083.68,1283.71 1085.84,1283.71 1088,1283.71 1090.16,1283.71 1092.32,1283.71 1094.49,1283.71 1096.65,1283.71 1098.81,1283.71 1100.97,1283.71 1103.13,1283.71 1105.3,1283.71 1107.46,1283.71 1109.62,1283.71 1111.78,1283.71 1113.94,1283.71 1116.1,1283.71 1118.27,1283.71 1120.43,1283.71 1122.59,1283.71 1124.75,1283.71 1126.91,1283.71 1129.08,1283.71 1131.24,1283.71 1133.4,1283.71 1135.56,1283.71 1137.72,1283.71 1139.89,1283.71 1142.05,1283.71 1144.21,1283.71 1146.37,1283.71 1148.53,1283.71 1150.7,1283.71 1152.86,1283.71 1155.02,1283.71 1157.18,1283.71 1159.34,1283.71 1161.51,1283.71 1163.67,1283.71 1165.83,1283.71 1167.99,1283.71 1170.15,1283.71 1172.32,1283.71 1174.48,1283.71 1176.64,1283.71 1178.8,1283.71 1180.96,1283.71 1183.13,1283.71 1185.29,1283.71 1187.45,1283.71 1189.61,1283.71 1191.77,1283.71 1193.94,1283.71 1196.1,1283.71 1198.26,1283.71 1200.42,1283.71 1202.58,1283.71 1204.75,1283.71 1206.91,1283.71 1209.07,1283.71 1211.23,1283.71 1213.39,1283.71 1215.56,1283.71 1217.72,1283.71 1219.88,1283.71 1222.04,1283.71 1224.2,1283.71 1226.37,1283.71 1228.53,1283.71 1230.69,1283.71 1232.85,1283.71 1235.01,1283.71 1237.18,1283.71 1239.34,1283.71 1241.5,1283.71 1243.66,1283.71 1245.82,1283.71 1247.99,1283.71 1250.15,1283.71 1252.31,1283.71 1254.47,1283.71 1256.63,1283.71 1258.8,1283.71 1260.96,1283.71 1263.12,1283.71 1265.28,1283.71 1267.44,1283.71 1269.61,1283.71 1271.77,1283.71 1273.93,1021.98 1276.09,1021.98 1278.25,1021.98 1280.42,1021.98 1282.58,1021.98 1284.74,1021.98 1286.9,1021.98 1289.06,1021.98 1291.23,1021.98 1293.39,1021.98 1295.55,1021.98 1297.71,1021.98 1299.87,1021.98 1302.03,1021.98 1304.2,1021.98 1306.36,1021.98 1308.52,1021.98 1310.68,1021.98 1312.84,1021.98 1315.01,1021.98 1317.17,1021.98 1319.33,1021.98 1321.49,1021.98 1323.65,1021.98 1325.82,1021.98 1327.98,1021.98 1330.14,1021.98 1332.3,1021.98 1334.46,1021.98 1336.63,1021.98 1338.79,1021.98 1340.95,1021.98 1343.11,1021.98 1345.27,1021.98 1347.44,1021.98 1349.6,1021.98 1351.76,1021.98 1353.92,1021.98 1356.08,1021.98 1358.25,1021.98 1360.41,1021.98 1362.57,1021.98 1364.73,1021.98 1366.89,1021.98 1369.06,1021.98 1371.22,1021.98 1373.38,1021.98 1375.54,1021.98 1377.7,1021.98 1379.87,1021.98 1382.03,1021.98 1384.19,1021.98 1386.35,1021.98 1388.51,1021.98 1390.68,1021.98 1392.84,1021.98 1395,1021.98 1397.16,1021.98 1399.32,1021.98 1401.49,1021.98 1403.65,1021.98 1405.81,1021.98 1407.97,1021.98 1410.13,1021.98 1412.3,1021.98 1414.46,1021.98 1416.62,1021.98 1418.78,1021.98 1420.94,1021.98 1423.11,1021.98 1425.27,1021.98 1427.43,1021.98 1429.59,1021.98 1431.75,1021.98 1433.92,1021.98 1436.08,1021.98 1438.24,1021.98 1440.4,1021.98 1442.56,1021.98 1444.73,1021.98 1446.89,1021.98 1449.05,1021.98 1451.21,1021.98 1453.37,1021.98 1455.54,1021.98 1457.7,1021.98 1459.86,1021.98 1462.02,1021.98 1464.18,1021.98 1466.35,1021.98 1468.51,1021.98 1470.67,1021.98 1472.83,1021.98 1474.99,1021.98 1477.16,1021.98 1479.32,1021.98 1481.48,1021.98 1483.64,1021.98 1485.8,1021.98 1487.97,1021.98 1490.13,434.368 1492.29,434.368 1494.45,434.368 1496.61,434.368 1498.77,434.368 1500.94,434.368 1503.1,434.368 1505.26,434.368 1507.42,434.368 1509.58,434.368 1511.75,434.368 1513.91,434.368 1516.07,434.368 1518.23,434.368 1520.39,434.368 1522.56,434.368 1524.72,434.368 1526.88,434.368 1529.04,434.368 1531.2,434.368 1533.37,434.368 1535.53,434.368 1537.69,434.368 1539.85,434.368 1542.01,434.368 1544.18,434.368 1546.34,434.368 1548.5,434.368 1550.66,434.368 1552.82,434.368 1554.99,434.368 1557.15,434.368 1559.31,434.368 1561.47,434.368 1563.63,434.368 1565.8,434.368 1567.96,434.368 1570.12,434.368 1572.28,434.368 1574.44,434.368 1576.61,434.368 1578.77,434.368 1580.93,434.368 1583.09,434.368 1585.25,434.368 1587.42,434.368 1589.58,434.368 1591.74,434.368 1593.9,434.368 1596.06,434.368 1598.23,434.368 1600.39,434.368 1602.55,434.368 1604.71,434.368 1606.87,434.368 1609.04,434.368 1611.2,434.368 1613.36,434.368 1615.52,434.368 1617.68,434.368 1619.85,434.368 1622.01,434.368 1624.17,434.368 1626.33,434.368 1628.49,434.368 1630.66,434.368 1632.82,434.368 1634.98,434.368 1637.14,434.368 1639.3,434.368 1641.47,434.368 1643.63,434.368 1645.79,434.368 1647.95,434.368 1650.11,434.368 1652.28,434.368 1654.44,434.368 1656.6,434.368 1658.76,434.368 1660.92,434.368 1663.09,434.368 1665.25,434.368 1667.41,434.368 1669.57,434.368 1671.73,434.368 1673.9,434.368 1676.06,434.368 1678.22,434.368 1680.38,434.368 1682.54,434.368 1684.7,434.368 1686.87,434.368 1689.03,434.368 1691.19,434.368 1693.35,434.368 1695.51,434.368 1697.68,434.368 1699.84,434.368 1702,434.368 1704.16,434.368 1706.32,542.505 1708.49,542.505 1710.65,542.505 1712.81,542.505 1714.97,542.505 1717.13,542.505 1719.3,542.505 1721.46,542.505 1723.62,542.505 1725.78,542.505 1727.94,542.505 1730.11,542.505 1732.27,542.505 1734.43,542.505 1736.59,542.505 1738.75,542.505 1740.92,542.505 1743.08,542.505 1745.24,542.505 1747.4,542.505 1749.56,542.505 1751.73,542.505 1753.89,542.505 1756.05,542.505 1758.21,542.505 1760.37,542.505 1762.54,542.505 1764.7,542.505 1766.86,542.505 1769.02,542.505 1771.18,542.505 1773.35,542.505 1775.51,542.505 1777.67,542.505 1779.83,542.505 1781.99,542.505 1784.16,542.505 1786.32,542.505 1788.48,542.505 1790.64,542.505 1792.8,542.505 1794.97,542.505 1797.13,542.505 1799.29,542.505 1801.45,542.505 1803.61,542.505 1805.78,542.505 1807.94,542.505 1810.1,542.505 1812.26,542.505 1814.42,542.505 1816.59,542.505 1818.75,542.505 1820.91,542.505 1823.07,542.505 1825.23,542.505 1827.4,542.505 1829.56,542.505 1831.72,542.505 1833.88,542.505 1836.04,542.505 1838.21,542.505 1840.37,542.505 1842.53,542.505 1844.69,542.505 1846.85,542.505 1849.02,542.505 1851.18,542.505 1853.34,542.505 1855.5,542.505 1857.66,542.505 1859.83,542.505 1861.99,542.505 1864.15,542.505 1866.31,542.505 1868.47,542.505 1870.63,542.505 1872.8,542.505 1874.96,542.505 1877.12,542.505 1879.28,542.505 1881.44,542.505 1883.61,542.505 1885.77,542.505 1887.93,542.505 1890.09,542.505 1892.25,542.505 1894.42,542.505 1896.58,542.505 1898.74,542.505 1900.9,542.505 1903.06,542.505 1905.23,542.505 1907.39,542.505 1909.55,542.505 1911.71,542.505 1913.87,542.505 1916.04,542.505 1918.2,542.505 1920.36,542.505 1922.52,982.43 1924.68,982.43 1926.85,982.43 1929.01,982.43 1931.17,982.43 1933.33,982.43 1935.49,982.43 1937.66,982.43 1939.82,982.43 1941.98,982.43 1944.14,982.43 1946.3,982.43 1948.47,982.43 1950.63,982.43 1952.79,982.43 1954.95,982.43 1957.11,982.43 1959.28,982.43 1961.44,982.43 1963.6,982.43 1965.76,982.43 1967.92,982.43 1970.09,982.43 1972.25,982.43 1974.41,982.43 1976.57,982.43 1978.73,982.43 1980.9,982.43 1983.06,982.43 1985.22,982.43 1987.38,982.43 1989.54,982.43 1991.71,982.43 1993.87,982.43 1996.03,982.43 1998.19,982.43 2000.35,982.43 2002.52,982.43 2004.68,982.43 2006.84,982.43 2009,982.43 2011.16,982.43 2013.33,982.43 2015.49,982.43 2017.65,982.43 2019.81,982.43 2021.97,982.43 2024.14,982.43 2026.3,982.43 2028.46,982.43 2030.62,982.43 2032.78,982.43 2034.95,982.43 2037.11,982.43 2039.27,982.43 2041.43,982.43 2043.59,982.43 2045.76,982.43 2047.92,982.43 2050.08,982.43 2052.24,982.43 2054.4,982.43 2056.57,982.43 2058.73,982.43 2060.89,982.43 2063.05,982.43 2065.21,982.43 2067.37,982.43 2069.54,982.43 2071.7,982.43 2073.86,982.43 2076.02,982.43 2078.18,982.43 2080.35,982.43 2082.51,982.43 2084.67,982.43 2086.83,982.43 2088.99,982.43 2091.16,982.43 2093.32,982.43 2095.48,982.43 2097.64,982.43 2099.8,982.43 2101.97,982.43 2104.13,982.43 2106.29,982.43 2108.45,982.43 2110.61,982.43 2112.78,982.43 2114.94,982.43 2117.1,982.43 2119.26,982.43 2121.42,982.43 2123.59,982.43 2125.75,982.43 2127.91,982.43 2130.07,982.43 2132.23,982.43 2134.4,982.43 2136.56,982.43 2138.72,630.529 2140.88,630.529 2143.04,630.529 2145.21,630.529 2147.37,630.529 2149.53,630.529 2151.69,630.529 2153.85,630.529 2156.02,630.529 2158.18,630.529 2160.34,630.529 2162.5,630.529 2164.66,630.529 2166.83,630.529 2168.99,630.529 2171.15,630.529 2173.31,630.529 2175.47,630.529 2177.64,630.529 2179.8,630.529 2181.96,630.529 2184.12,630.529 2186.28,630.529 2188.45,630.529 2190.61,630.529 2192.77,630.529 2194.93,630.529 2197.09,630.529 2199.26,630.529 2201.42,630.529 2203.58,630.529 2205.74,630.529 2207.9,630.529 2210.07,630.529 2212.23,630.529 2214.39,630.529 2216.55,630.529 2218.71,630.529 2220.88,630.529 2223.04,630.529 2225.2,630.529 2227.36,630.529 2229.52,630.529 2231.69,630.529 2233.85,630.529 2236.01,630.529 2238.17,630.529 2240.33,630.529 2242.5,630.529 2244.66,630.529 2246.82,630.529 2248.98,630.529 2251.14,630.529 2253.3,630.529 2255.47,630.529 2257.63,630.529 2259.79,630.529 2261.95,630.529 2264.11,630.529 2266.28,630.529 2268.44,630.529 2270.6,630.529 2272.76,630.529 2274.92,630.529 2277.09,630.529 2279.25,630.529 2281.41,630.529 2283.57,630.529 2285.73,630.529 2287.9,630.529 2290.06,630.529 2292.22,630.529 2294.38,630.529 2296.54,630.529 2298.71,630.529 2300.87,630.529 2303.03,630.529 2305.19,630.529 2307.35,630.529 2309.52,630.529 2311.68,630.529 2313.84,630.529 2316,630.529 2318.16,630.529 2320.33,630.529 2322.49,630.529 2324.65,630.529 2326.81,630.529 2328.97,630.529 2331.14,630.529 2333.3,630.529 2335.46,630.529 2337.62,630.529 2339.78,630.529 2341.95,630.529 2344.11,630.529 2346.27,630.529 2348.43,630.529 2350.59,630.529 2352.76,630.529 "/>
<path clip-path="url(#clip490)" d="M2039.64 248.629 L2280.76 248.629 L2280.76 93.1086 L2039.64 93.1086  Z" fill="#ffffff" fill-rule="evenodd" fill-opacity="1"/>
<polyline clip-path="url(#clip490)" style="stroke:#000000; stroke-linecap:round; stroke-linejoin:round; stroke-width:4; stroke-opacity:1; fill:none" points="2039.64,248.629 2280.76,248.629 2280.76,93.1086 2039.64,93.1086 2039.64,248.629 "/>
<polyline clip-path="url(#clip490)" style="stroke:#009af9; stroke-linecap:round; stroke-linejoin:round; stroke-width:4; stroke-opacity:1; fill:none" points="2063.64,144.949 2207.63,144.949 "/>
<path clip-path="url(#clip490)" d="M2256.28 136.303 L2246.9 148.919 L2256.76 162.229 L2251.74 162.229 L2244.19 152.043 L2236.65 162.229 L2231.63 162.229 L2241.69 148.664 L2232.48 136.303 L2237.5 136.303 L2244.38 145.539 L2251.25 136.303 L2256.28 136.303 Z" fill="#000000" fill-rule="nonzero" fill-opacity="1" /><polyline clip-path="url(#clip490)" style="stroke:#e26f46; stroke-linecap:round; stroke-linejoin:round; stroke-width:4; stroke-opacity:1; fill:none" points="2063.64,196.789 2207.63,196.789 "/>
<path clip-path="url(#clip490)" d="M2248.13 178.05 L2248.13 181.592 L2244.06 181.592 Q2241.76 181.592 2240.86 182.518 Q2239.98 183.444 2239.98 185.851 L2239.98 188.143 L2247 188.143 L2247 191.453 L2239.98 191.453 L2239.98 214.069 L2235.7 214.069 L2235.7 191.453 L2231.63 191.453 L2231.63 188.143 L2235.7 188.143 L2235.7 186.337 Q2235.7 182.009 2237.71 180.041 Q2239.73 178.05 2244.1 178.05 L2248.13 178.05 Z" fill="#000000" fill-rule="nonzero" fill-opacity="1" /></svg>
