<?xml version="1.0" encoding="utf-8"?>
<svg xmlns="http://www.w3.org/2000/svg" xmlns:xlink="http://www.w3.org/1999/xlink" width="600" height="400" viewBox="0 0 2400 1600">
<defs>
  <clipPath id="clip800">
    <rect x="0" y="0" width="2400" height="1600"/>
  </clipPath>
</defs>
<path clip-path="url(#clip800)" d="M0 1600 L2400 1600 L2400 0 L0 0  Z" fill="#ffffff" fill-rule="evenodd" fill-opacity="1"/>
<defs>
  <clipPath id="clip801">
    <rect x="112" y="47" width="2242" height="1440"/>
  </clipPath>
</defs>
<path clip-path="url(#clip801)" d="M-660.144 2573.57 L-660.144 2302.27 L-344.773 2166.63 L201.464 2244.94 L201.464 2516.23 L-113.906 2651.88 L-660.144 2573.57  Z" fill="#ffffff" fill-rule="evenodd" fill-opacity="1"/>
<polyline clip-path="url(#clip801)" style="stroke:#000000; stroke-linecap:round; stroke-linejoin:round; stroke-width:2; stroke-opacity:0.1; fill:none" points="691.81,1210.44 1107.27,850.639 1107.27,131.037 "/>
<polyline clip-path="url(#clip801)" style="stroke:#000000; stroke-linecap:round; stroke-linejoin:round; stroke-width:2; stroke-opacity:0.1; fill:none" points="828.369,1249.86 1243.83,890.06 1243.83,170.458 "/>
<polyline clip-path="url(#clip801)" style="stroke:#000000; stroke-linecap:round; stroke-linejoin:round; stroke-width:2; stroke-opacity:0.1; fill:none" points="964.928,1289.28 1380.39,929.482 1380.39,209.88 "/>
<polyline clip-path="url(#clip801)" style="stroke:#000000; stroke-linecap:round; stroke-linejoin:round; stroke-width:2; stroke-opacity:0.1; fill:none" points="1101.49,1328.7 1516.95,968.903 1516.95,249.301 "/>
<polyline clip-path="url(#clip801)" style="stroke:#000000; stroke-linecap:round; stroke-linejoin:round; stroke-width:2; stroke-opacity:0.1; fill:none" points="1238.05,1368.13 1653.51,1008.32 1653.51,288.722 "/>
<polyline clip-path="url(#clip801)" style="stroke:#000000; stroke-linecap:round; stroke-linejoin:round; stroke-width:2; stroke-opacity:0.1; fill:none" points="1374.61,1407.55 1790.07,1047.75 1790.07,328.144 "/>
<polyline clip-path="url(#clip801)" style="stroke:#000000; stroke-linecap:round; stroke-linejoin:round; stroke-width:2; stroke-opacity:0.1; fill:none" points="1431.41,1369.82 711.806,1162.09 711.806,442.488 "/>
<polyline clip-path="url(#clip801)" style="stroke:#000000; stroke-linecap:round; stroke-linejoin:round; stroke-width:2; stroke-opacity:0.1; fill:none" points="1509.72,1302 790.122,1094.27 790.122,374.664 "/>
<polyline clip-path="url(#clip801)" style="stroke:#000000; stroke-linecap:round; stroke-linejoin:round; stroke-width:2; stroke-opacity:0.1; fill:none" points="1588.04,1234.17 868.438,1026.44 868.438,306.841 "/>
<polyline clip-path="url(#clip801)" style="stroke:#000000; stroke-linecap:round; stroke-linejoin:round; stroke-width:2; stroke-opacity:0.1; fill:none" points="1666.36,1166.35 946.754,958.619 946.754,239.017 "/>
<polyline clip-path="url(#clip801)" style="stroke:#000000; stroke-linecap:round; stroke-linejoin:round; stroke-width:2; stroke-opacity:0.1; fill:none" points="1744.67,1098.53 1025.07,890.796 1025.07,171.194 "/>
<polyline clip-path="url(#clip801)" style="stroke:#000000; stroke-linecap:round; stroke-linejoin:round; stroke-width:2; stroke-opacity:0.1; fill:none" points="664.934,1109.39 1080.4,749.585 1800,957.316 "/>
<polyline clip-path="url(#clip801)" style="stroke:#000000; stroke-linecap:round; stroke-linejoin:round; stroke-width:2; stroke-opacity:0.1; fill:none" points="664.934,996.154 1080.4,636.353 1800,844.084 "/>
<polyline clip-path="url(#clip801)" style="stroke:#000000; stroke-linecap:round; stroke-linejoin:round; stroke-width:2; stroke-opacity:0.1; fill:none" points="664.934,882.922 1080.4,523.121 1800,730.852 "/>
<polyline clip-path="url(#clip801)" style="stroke:#000000; stroke-linecap:round; stroke-linejoin:round; stroke-width:2; stroke-opacity:0.1; fill:none" points="664.934,769.69 1080.4,409.889 1800,617.621 "/>
<polyline clip-path="url(#clip801)" style="stroke:#000000; stroke-linecap:round; stroke-linejoin:round; stroke-width:2; stroke-opacity:0.1; fill:none" points="664.934,656.459 1080.4,296.658 1800,504.389 "/>
<polyline clip-path="url(#clip801)" style="stroke:#000000; stroke-linecap:round; stroke-linejoin:round; stroke-width:2; stroke-opacity:0.1; fill:none" points="664.934,543.227 1080.4,183.426 1800,391.157 "/>
<polyline clip-path="url(#clip800)" style="stroke:#000000; stroke-linecap:round; stroke-linejoin:round; stroke-width:4; stroke-opacity:1; fill:none" points="664.934,1202.68 1384.54,1410.41 "/>
<polyline clip-path="url(#clip800)" style="stroke:#000000; stroke-linecap:round; stroke-linejoin:round; stroke-width:4; stroke-opacity:1; fill:none" points="691.81,1210.44 696.795,1206.12 "/>
<polyline clip-path="url(#clip800)" style="stroke:#000000; stroke-linecap:round; stroke-linejoin:round; stroke-width:4; stroke-opacity:1; fill:none" points="828.369,1249.86 833.355,1245.54 "/>
<polyline clip-path="url(#clip800)" style="stroke:#000000; stroke-linecap:round; stroke-linejoin:round; stroke-width:4; stroke-opacity:1; fill:none" points="964.928,1289.28 969.914,1284.96 "/>
<polyline clip-path="url(#clip800)" style="stroke:#000000; stroke-linecap:round; stroke-linejoin:round; stroke-width:4; stroke-opacity:1; fill:none" points="1101.49,1328.7 1106.47,1324.39 "/>
<polyline clip-path="url(#clip800)" style="stroke:#000000; stroke-linecap:round; stroke-linejoin:round; stroke-width:4; stroke-opacity:1; fill:none" points="1238.05,1368.13 1243.03,1363.81 "/>
<polyline clip-path="url(#clip800)" style="stroke:#000000; stroke-linecap:round; stroke-linejoin:round; stroke-width:4; stroke-opacity:1; fill:none" points="1374.61,1407.55 1379.59,1403.23 "/>
<path clip-path="url(#clip800)" d="M631.542 1224.75 Q627.931 1224.75 626.102 1228.31 Q624.297 1231.85 624.297 1238.98 Q624.297 1246.09 626.102 1249.65 Q627.931 1253.2 631.542 1253.2 Q635.176 1253.2 636.982 1249.65 Q638.81 1246.09 638.81 1238.98 Q638.81 1231.85 636.982 1228.31 Q635.176 1224.75 631.542 1224.75 M631.542 1221.04 Q637.352 1221.04 640.408 1225.65 Q643.486 1230.23 643.486 1238.98 Q643.486 1247.71 640.408 1252.32 Q637.352 1256.9 631.542 1256.9 Q625.732 1256.9 622.653 1252.32 Q619.598 1247.71 619.598 1238.98 Q619.598 1230.23 622.653 1225.65 Q625.732 1221.04 631.542 1221.04 Z" fill="#000000" fill-rule="nonzero" fill-opacity="1" /><path clip-path="url(#clip800)" d="M651.704 1250.35 L656.588 1250.35 L656.588 1256.23 L651.704 1256.23 L651.704 1250.35 Z" fill="#000000" fill-rule="nonzero" fill-opacity="1" /><path clip-path="url(#clip800)" d="M666.82 1221.67 L685.176 1221.67 L685.176 1225.6 L671.102 1225.6 L671.102 1234.08 Q672.12 1233.73 673.139 1233.57 Q674.158 1233.38 675.176 1233.38 Q680.963 1233.38 684.343 1236.55 Q687.722 1239.72 687.722 1245.14 Q687.722 1250.72 684.25 1253.82 Q680.778 1256.9 674.458 1256.9 Q672.283 1256.9 670.014 1256.53 Q667.769 1256.16 665.361 1255.42 L665.361 1250.72 Q667.445 1251.85 669.667 1252.41 Q671.889 1252.96 674.366 1252.96 Q678.37 1252.96 680.708 1250.86 Q683.046 1248.75 683.046 1245.14 Q683.046 1241.53 680.708 1239.42 Q678.37 1237.32 674.366 1237.32 Q672.491 1237.32 670.616 1237.73 Q668.764 1238.15 666.82 1239.03 L666.82 1221.67 Z" fill="#000000" fill-rule="nonzero" fill-opacity="1" /><path clip-path="url(#clip800)" d="M757.916 1291.71 L765.555 1291.71 L765.555 1265.35 L757.245 1267.02 L757.245 1262.76 L765.509 1261.09 L770.185 1261.09 L770.185 1291.71 L777.824 1291.71 L777.824 1295.65 L757.916 1295.65 L757.916 1291.71 Z" fill="#000000" fill-rule="nonzero" fill-opacity="1" /><path clip-path="url(#clip800)" d="M787.268 1289.77 L792.152 1289.77 L792.152 1295.65 L787.268 1295.65 L787.268 1289.77 Z" fill="#000000" fill-rule="nonzero" fill-opacity="1" /><path clip-path="url(#clip800)" d="M812.337 1264.17 Q808.726 1264.17 806.897 1267.73 Q805.092 1271.27 805.092 1278.4 Q805.092 1285.51 806.897 1289.08 Q808.726 1292.62 812.337 1292.62 Q815.971 1292.62 817.777 1289.08 Q819.606 1285.51 819.606 1278.4 Q819.606 1271.27 817.777 1267.73 Q815.971 1264.17 812.337 1264.17 M812.337 1260.46 Q818.147 1260.46 821.203 1265.07 Q824.282 1269.65 824.282 1278.4 Q824.282 1287.13 821.203 1291.74 Q818.147 1296.32 812.337 1296.32 Q806.527 1296.32 803.448 1291.74 Q800.393 1287.13 800.393 1278.4 Q800.393 1269.65 803.448 1265.07 Q806.527 1260.46 812.337 1260.46 Z" fill="#000000" fill-rule="nonzero" fill-opacity="1" /><path clip-path="url(#clip800)" d="M895.471 1331.14 L903.11 1331.14 L903.11 1304.77 L894.8 1306.44 L894.8 1302.18 L903.064 1300.51 L907.739 1300.51 L907.739 1331.14 L915.378 1331.14 L915.378 1335.07 L895.471 1335.07 L895.471 1331.14 Z" fill="#000000" fill-rule="nonzero" fill-opacity="1" /><path clip-path="url(#clip800)" d="M924.823 1329.19 L929.707 1329.19 L929.707 1335.07 L924.823 1335.07 L924.823 1329.19 Z" fill="#000000" fill-rule="nonzero" fill-opacity="1" /><path clip-path="url(#clip800)" d="M939.938 1300.51 L958.295 1300.51 L958.295 1304.45 L944.221 1304.45 L944.221 1312.92 Q945.239 1312.57 946.258 1312.41 Q947.276 1312.22 948.295 1312.22 Q954.082 1312.22 957.461 1315.4 Q960.841 1318.57 960.841 1323.98 Q960.841 1329.56 957.369 1332.66 Q953.897 1335.74 947.577 1335.74 Q945.401 1335.74 943.133 1335.37 Q940.887 1335 938.48 1334.26 L938.48 1329.56 Q940.563 1330.7 942.786 1331.25 Q945.008 1331.81 947.485 1331.81 Q951.489 1331.81 953.827 1329.7 Q956.165 1327.59 956.165 1323.98 Q956.165 1320.37 953.827 1318.27 Q951.489 1316.16 947.485 1316.16 Q945.61 1316.16 943.735 1316.58 Q941.883 1316.99 939.938 1317.87 L939.938 1300.51 Z" fill="#000000" fill-rule="nonzero" fill-opacity="1" /><path clip-path="url(#clip800)" d="M1034.25 1370.56 L1050.57 1370.56 L1050.57 1374.49 L1028.63 1374.49 L1028.63 1370.56 Q1031.29 1367.8 1035.87 1363.17 Q1040.48 1358.52 1041.66 1357.18 Q1043.91 1354.65 1044.78 1352.92 Q1045.69 1351.16 1045.69 1349.47 Q1045.69 1346.71 1043.74 1344.98 Q1041.82 1343.24 1038.72 1343.24 Q1036.52 1343.24 1034.07 1344.01 Q1031.64 1344.77 1028.86 1346.32 L1028.86 1341.6 Q1031.68 1340.46 1034.14 1339.89 Q1036.59 1339.31 1038.63 1339.31 Q1044 1339.31 1047.19 1341.99 Q1050.39 1344.68 1050.39 1349.17 Q1050.39 1351.3 1049.58 1353.22 Q1048.79 1355.12 1046.68 1357.71 Q1046.1 1358.38 1043 1361.6 Q1039.9 1364.79 1034.25 1370.56 Z" fill="#000000" fill-rule="nonzero" fill-opacity="1" /><path clip-path="url(#clip800)" d="M1060.39 1368.61 L1065.27 1368.61 L1065.27 1374.49 L1060.39 1374.49 L1060.39 1368.61 Z" fill="#000000" fill-rule="nonzero" fill-opacity="1" /><path clip-path="url(#clip800)" d="M1085.46 1343.01 Q1081.84 1343.01 1080.02 1346.58 Q1078.21 1350.12 1078.21 1357.25 Q1078.21 1364.35 1080.02 1367.92 Q1081.84 1371.46 1085.46 1371.46 Q1089.09 1371.46 1090.9 1367.92 Q1092.72 1364.35 1092.72 1357.25 Q1092.72 1350.12 1090.9 1346.58 Q1089.09 1343.01 1085.46 1343.01 M1085.46 1339.31 Q1091.27 1339.31 1094.32 1343.91 Q1097.4 1348.5 1097.4 1357.25 Q1097.4 1365.97 1094.32 1370.58 Q1091.27 1375.16 1085.46 1375.16 Q1079.65 1375.16 1076.57 1370.58 Q1073.51 1365.97 1073.51 1357.25 Q1073.51 1348.5 1076.57 1343.91 Q1079.65 1339.31 1085.46 1339.31 Z" fill="#000000" fill-rule="nonzero" fill-opacity="1" /><path clip-path="url(#clip800)" d="M1171.81 1409.98 L1188.13 1409.98 L1188.13 1413.91 L1166.18 1413.91 L1166.18 1409.98 Q1168.84 1407.22 1173.43 1402.59 Q1178.03 1397.94 1179.21 1396.6 Q1181.46 1394.08 1182.34 1392.34 Q1183.24 1390.58 1183.24 1388.89 Q1183.24 1386.14 1181.3 1384.4 Q1179.38 1382.66 1176.27 1382.66 Q1174.08 1382.66 1171.62 1383.43 Q1169.19 1384.19 1166.41 1385.74 L1166.41 1381.02 Q1169.24 1379.89 1171.69 1379.31 Q1174.15 1378.73 1176.18 1378.73 Q1181.55 1378.73 1184.75 1381.41 Q1187.94 1384.1 1187.94 1388.59 Q1187.94 1390.72 1187.13 1392.64 Q1186.34 1394.54 1184.24 1397.13 Q1183.66 1397.8 1180.56 1401.02 Q1177.46 1404.21 1171.81 1409.98 Z" fill="#000000" fill-rule="nonzero" fill-opacity="1" /><path clip-path="url(#clip800)" d="M1197.94 1408.03 L1202.83 1408.03 L1202.83 1413.91 L1197.94 1413.91 L1197.94 1408.03 Z" fill="#000000" fill-rule="nonzero" fill-opacity="1" /><path clip-path="url(#clip800)" d="M1213.06 1379.35 L1231.41 1379.35 L1231.41 1383.29 L1217.34 1383.29 L1217.34 1391.76 Q1218.36 1391.41 1219.38 1391.25 Q1220.4 1391.07 1221.41 1391.07 Q1227.2 1391.07 1230.58 1394.24 Q1233.96 1397.41 1233.96 1402.83 Q1233.96 1408.4 1230.49 1411.51 Q1227.02 1414.58 1220.7 1414.58 Q1218.52 1414.58 1216.25 1414.21 Q1214.01 1413.84 1211.6 1413.1 L1211.6 1408.4 Q1213.68 1409.54 1215.9 1410.09 Q1218.13 1410.65 1220.6 1410.65 Q1224.61 1410.65 1226.95 1408.54 Q1229.28 1406.44 1229.28 1402.83 Q1229.28 1399.21 1226.95 1397.11 Q1224.61 1395 1220.6 1395 Q1218.73 1395 1216.85 1395.42 Q1215 1395.84 1213.06 1396.71 L1213.06 1379.35 Z" fill="#000000" fill-rule="nonzero" fill-opacity="1" /><path clip-path="url(#clip800)" d="M1317.51 1434.7 Q1320.87 1435.42 1322.74 1437.69 Q1324.64 1439.96 1324.64 1443.29 Q1324.64 1448.4 1321.12 1451.21 Q1317.6 1454.01 1311.12 1454.01 Q1308.95 1454.01 1306.63 1453.57 Q1304.34 1453.15 1301.89 1452.29 L1301.89 1447.78 Q1303.83 1448.91 1306.14 1449.49 Q1308.46 1450.07 1310.98 1450.07 Q1315.38 1450.07 1317.67 1448.34 Q1319.99 1446.6 1319.99 1443.29 Q1319.99 1440.23 1317.83 1438.52 Q1315.7 1436.78 1311.89 1436.78 L1307.86 1436.78 L1307.86 1432.94 L1312.07 1432.94 Q1315.52 1432.94 1317.35 1431.58 Q1319.18 1430.19 1319.18 1427.59 Q1319.18 1424.93 1317.28 1423.52 Q1315.4 1422.09 1311.89 1422.09 Q1309.96 1422.09 1307.76 1422.5 Q1305.57 1422.92 1302.93 1423.8 L1302.93 1419.63 Q1305.59 1418.89 1307.9 1418.52 Q1310.24 1418.15 1312.3 1418.15 Q1317.63 1418.15 1320.73 1420.58 Q1323.83 1422.99 1323.83 1427.11 Q1323.83 1429.98 1322.19 1431.97 Q1320.54 1433.94 1317.51 1434.7 Z" fill="#000000" fill-rule="nonzero" fill-opacity="1" /><path clip-path="url(#clip800)" d="M1333.51 1447.46 L1338.39 1447.46 L1338.39 1453.33 L1333.51 1453.33 L1333.51 1447.46 Z" fill="#000000" fill-rule="nonzero" fill-opacity="1" /><path clip-path="url(#clip800)" d="M1358.57 1421.85 Q1354.96 1421.85 1353.13 1425.42 Q1351.33 1428.96 1351.33 1436.09 Q1351.33 1443.2 1353.13 1446.76 Q1354.96 1450.3 1358.57 1450.3 Q1362.21 1450.3 1364.01 1446.76 Q1365.84 1443.2 1365.84 1436.09 Q1365.84 1428.96 1364.01 1425.42 Q1362.21 1421.85 1358.57 1421.85 M1358.57 1418.15 Q1364.38 1418.15 1367.44 1422.76 Q1370.52 1427.34 1370.52 1436.09 Q1370.52 1444.82 1367.44 1449.42 Q1364.38 1454.01 1358.57 1454.01 Q1352.76 1454.01 1349.69 1449.42 Q1346.63 1444.82 1346.63 1436.09 Q1346.63 1427.34 1349.69 1422.76 Q1352.76 1418.15 1358.57 1418.15 Z" fill="#000000" fill-rule="nonzero" fill-opacity="1" /><polyline clip-path="url(#clip800)" style="stroke:#000000; stroke-linecap:round; stroke-linejoin:round; stroke-width:4; stroke-opacity:1; fill:none" points="1384.54,1410.41 1800,1050.61 "/>
<polyline clip-path="url(#clip800)" style="stroke:#000000; stroke-linecap:round; stroke-linejoin:round; stroke-width:4; stroke-opacity:1; fill:none" points="1431.41,1369.82 1422.77,1367.33 "/>
<polyline clip-path="url(#clip800)" style="stroke:#000000; stroke-linecap:round; stroke-linejoin:round; stroke-width:4; stroke-opacity:1; fill:none" points="1509.72,1302 1501.09,1299.5 "/>
<polyline clip-path="url(#clip800)" style="stroke:#000000; stroke-linecap:round; stroke-linejoin:round; stroke-width:4; stroke-opacity:1; fill:none" points="1588.04,1234.17 1579.4,1231.68 "/>
<polyline clip-path="url(#clip800)" style="stroke:#000000; stroke-linecap:round; stroke-linejoin:round; stroke-width:4; stroke-opacity:1; fill:none" points="1666.36,1166.35 1657.72,1163.86 "/>
<polyline clip-path="url(#clip800)" style="stroke:#000000; stroke-linecap:round; stroke-linejoin:round; stroke-width:4; stroke-opacity:1; fill:none" points="1744.67,1098.53 1736.04,1096.03 "/>
<path clip-path="url(#clip800)" d="M1458.39 1383.07 L1446.58 1401.52 L1458.39 1401.52 L1458.39 1383.07 M1457.16 1379 L1463.04 1379 L1463.04 1401.52 L1467.97 1401.52 L1467.97 1405.41 L1463.04 1405.41 L1463.04 1413.56 L1458.39 1413.56 L1458.39 1405.41 L1442.79 1405.41 L1442.79 1400.9 L1457.16 1379 Z" fill="#000000" fill-rule="nonzero" fill-opacity="1" /><path clip-path="url(#clip800)" d="M1522.56 1311.17 L1540.92 1311.17 L1540.92 1315.11 L1526.84 1315.11 L1526.84 1323.58 Q1527.86 1323.23 1528.88 1323.07 Q1529.9 1322.89 1530.92 1322.89 Q1536.71 1322.89 1540.08 1326.06 Q1543.46 1329.23 1543.46 1334.65 Q1543.46 1340.22 1539.99 1343.33 Q1536.52 1346.41 1530.2 1346.41 Q1528.02 1346.41 1525.76 1346.03 Q1523.51 1345.66 1521.1 1344.92 L1521.1 1340.22 Q1523.19 1341.36 1525.41 1341.91 Q1527.63 1342.47 1530.11 1342.47 Q1534.11 1342.47 1536.45 1340.36 Q1538.79 1338.26 1538.79 1334.65 Q1538.79 1331.03 1536.45 1328.93 Q1534.11 1326.82 1530.11 1326.82 Q1528.23 1326.82 1526.36 1327.24 Q1524.51 1327.66 1522.56 1328.53 L1522.56 1311.17 Z" fill="#000000" fill-rule="nonzero" fill-opacity="1" /><path clip-path="url(#clip800)" d="M1611.76 1258.77 Q1608.61 1258.77 1606.76 1260.92 Q1604.93 1263.07 1604.93 1266.82 Q1604.93 1270.55 1606.76 1272.73 Q1608.61 1274.88 1611.76 1274.88 Q1614.91 1274.88 1616.73 1272.73 Q1618.59 1270.55 1618.59 1266.82 Q1618.59 1263.07 1616.73 1260.92 Q1614.91 1258.77 1611.76 1258.77 M1621.04 1244.11 L1621.04 1248.37 Q1619.28 1247.54 1617.47 1247.1 Q1615.69 1246.66 1613.93 1246.66 Q1609.3 1246.66 1606.85 1249.79 Q1604.42 1252.91 1604.07 1259.23 Q1605.44 1257.22 1607.5 1256.15 Q1609.56 1255.06 1612.03 1255.06 Q1617.24 1255.06 1620.25 1258.23 Q1623.28 1261.38 1623.28 1266.82 Q1623.28 1272.15 1620.14 1275.36 Q1616.99 1278.58 1611.76 1278.58 Q1605.76 1278.58 1602.59 1274 Q1599.42 1269.39 1599.42 1260.67 Q1599.42 1252.47 1603.31 1247.61 Q1607.2 1242.73 1613.75 1242.73 Q1615.51 1242.73 1617.29 1243.07 Q1619.1 1243.42 1621.04 1244.11 Z" fill="#000000" fill-rule="nonzero" fill-opacity="1" /><path clip-path="url(#clip800)" d="M1677.73 1175.53 L1699.96 1175.53 L1699.96 1177.52 L1687.41 1210.09 L1682.53 1210.09 L1694.33 1179.46 L1677.73 1179.46 L1677.73 1175.53 Z" fill="#000000" fill-rule="nonzero" fill-opacity="1" /><path clip-path="url(#clip800)" d="M1767.9 1125.85 Q1764.57 1125.85 1762.65 1127.63 Q1760.75 1129.42 1760.75 1132.54 Q1760.75 1135.67 1762.65 1137.45 Q1764.57 1139.23 1767.9 1139.23 Q1771.24 1139.23 1773.16 1137.45 Q1775.08 1135.64 1775.08 1132.54 Q1775.08 1129.42 1773.16 1127.63 Q1771.26 1125.85 1767.9 1125.85 M1763.23 1123.86 Q1760.22 1123.12 1758.53 1121.06 Q1756.86 1119 1756.86 1116.04 Q1756.86 1111.89 1759.8 1109.49 Q1762.76 1107.08 1767.9 1107.08 Q1773.06 1107.08 1776 1109.49 Q1778.94 1111.89 1778.94 1116.04 Q1778.94 1119 1777.25 1121.06 Q1775.59 1123.12 1772.6 1123.86 Q1775.98 1124.65 1777.86 1126.94 Q1779.75 1129.23 1779.75 1132.54 Q1779.75 1137.56 1776.68 1140.25 Q1773.62 1142.93 1767.9 1142.93 Q1762.18 1142.93 1759.11 1140.25 Q1756.05 1137.56 1756.05 1132.54 Q1756.05 1129.23 1757.95 1126.94 Q1759.85 1124.65 1763.23 1123.86 M1761.51 1116.48 Q1761.51 1119.16 1763.18 1120.67 Q1764.87 1122.17 1767.9 1122.17 Q1770.91 1122.17 1772.6 1120.67 Q1774.31 1119.16 1774.31 1116.48 Q1774.31 1113.79 1772.6 1112.29 Q1770.91 1110.78 1767.9 1110.78 Q1764.87 1110.78 1763.18 1112.29 Q1761.51 1113.79 1761.51 1116.48 Z" fill="#000000" fill-rule="nonzero" fill-opacity="1" /><polyline clip-path="url(#clip800)" style="stroke:#000000; stroke-linecap:round; stroke-linejoin:round; stroke-width:4; stroke-opacity:1; fill:none" points="664.934,1202.68 664.934,483.08 "/>
<polyline clip-path="url(#clip800)" style="stroke:#000000; stroke-linecap:round; stroke-linejoin:round; stroke-width:4; stroke-opacity:1; fill:none" points="664.934,1109.39 669.92,1105.07 "/>
<polyline clip-path="url(#clip800)" style="stroke:#000000; stroke-linecap:round; stroke-linejoin:round; stroke-width:4; stroke-opacity:1; fill:none" points="664.934,996.154 669.92,991.836 "/>
<polyline clip-path="url(#clip800)" style="stroke:#000000; stroke-linecap:round; stroke-linejoin:round; stroke-width:4; stroke-opacity:1; fill:none" points="664.934,882.922 669.92,878.605 "/>
<polyline clip-path="url(#clip800)" style="stroke:#000000; stroke-linecap:round; stroke-linejoin:round; stroke-width:4; stroke-opacity:1; fill:none" points="664.934,769.69 669.92,765.373 "/>
<polyline clip-path="url(#clip800)" style="stroke:#000000; stroke-linecap:round; stroke-linejoin:round; stroke-width:4; stroke-opacity:1; fill:none" points="664.934,656.459 669.92,652.141 "/>
<polyline clip-path="url(#clip800)" style="stroke:#000000; stroke-linecap:round; stroke-linejoin:round; stroke-width:4; stroke-opacity:1; fill:none" points="664.934,543.227 669.92,538.909 "/>
<path clip-path="url(#clip800)" d="M626.551 1096.18 L614.746 1114.63 L626.551 1114.63 L626.551 1096.18 M625.324 1092.11 L631.204 1092.11 L631.204 1114.63 L636.134 1114.63 L636.134 1118.52 L631.204 1118.52 L631.204 1126.67 L626.551 1126.67 L626.551 1118.52 L610.949 1118.52 L610.949 1114 L625.324 1092.11 Z" fill="#000000" fill-rule="nonzero" fill-opacity="1" /><path clip-path="url(#clip800)" d="M615.232 978.874 L633.588 978.874 L633.588 982.809 L619.514 982.809 L619.514 991.281 Q620.533 990.934 621.551 990.772 Q622.57 990.587 623.588 990.587 Q629.375 990.587 632.755 993.758 Q636.134 996.93 636.134 1002.35 Q636.134 1007.92 632.662 1011.03 Q629.19 1014.11 622.871 1014.11 Q620.695 1014.11 618.426 1013.74 Q616.181 1013.36 613.773 1012.62 L613.773 1007.92 Q615.857 1009.06 618.079 1009.61 Q620.301 1010.17 622.778 1010.17 Q626.783 1010.17 629.121 1008.06 Q631.459 1005.96 631.459 1002.35 Q631.459 998.735 629.121 996.629 Q626.783 994.522 622.778 994.522 Q620.903 994.522 619.028 994.939 Q617.176 995.355 615.232 996.235 L615.232 978.874 Z" fill="#000000" fill-rule="nonzero" fill-opacity="1" /><path clip-path="url(#clip800)" d="M624.607 881.059 Q621.459 881.059 619.607 883.212 Q617.778 885.364 617.778 889.114 Q617.778 892.841 619.607 895.017 Q621.459 897.17 624.607 897.17 Q627.755 897.17 629.584 895.017 Q631.435 892.841 631.435 889.114 Q631.435 885.364 629.584 883.212 Q627.755 881.059 624.607 881.059 M633.889 866.406 L633.889 870.665 Q632.13 869.832 630.324 869.392 Q628.542 868.952 626.783 868.952 Q622.153 868.952 619.699 872.077 Q617.269 875.202 616.922 881.522 Q618.287 879.508 620.347 878.443 Q622.408 877.355 624.884 877.355 Q630.093 877.355 633.102 880.526 Q636.134 883.675 636.134 889.114 Q636.134 894.438 632.986 897.656 Q629.838 900.874 624.607 900.874 Q618.611 900.874 615.44 896.29 Q612.269 891.684 612.269 882.957 Q612.269 874.763 616.158 869.902 Q620.047 865.017 626.597 865.017 Q628.357 865.017 630.139 865.364 Q631.945 865.712 633.889 866.406 Z" fill="#000000" fill-rule="nonzero" fill-opacity="1" /><path clip-path="url(#clip800)" d="M613.912 752.41 L636.134 752.41 L636.134 754.401 L623.588 786.97 L618.704 786.97 L630.509 756.346 L613.912 756.346 L613.912 752.41 Z" fill="#000000" fill-rule="nonzero" fill-opacity="1" /><path clip-path="url(#clip800)" d="M624.283 657.327 Q620.949 657.327 619.028 659.109 Q617.13 660.891 617.13 664.016 Q617.13 667.141 619.028 668.924 Q620.949 670.706 624.283 670.706 Q627.616 670.706 629.537 668.924 Q631.459 667.118 631.459 664.016 Q631.459 660.891 629.537 659.109 Q627.639 657.327 624.283 657.327 M619.607 655.336 Q616.597 654.595 614.908 652.535 Q613.241 650.475 613.241 647.512 Q613.241 643.368 616.181 640.961 Q619.144 638.554 624.283 638.554 Q629.445 638.554 632.384 640.961 Q635.324 643.368 635.324 647.512 Q635.324 650.475 633.634 652.535 Q631.968 654.595 628.982 655.336 Q632.361 656.123 634.236 658.415 Q636.134 660.706 636.134 664.016 Q636.134 669.04 633.056 671.725 Q630 674.41 624.283 674.41 Q618.565 674.41 615.486 671.725 Q612.431 669.04 612.431 664.016 Q612.431 660.706 614.329 658.415 Q616.227 656.123 619.607 655.336 M617.894 647.952 Q617.894 650.637 619.56 652.141 Q621.25 653.646 624.283 653.646 Q627.292 653.646 628.982 652.141 Q630.695 650.637 630.695 647.952 Q630.695 645.267 628.982 643.762 Q627.292 642.257 624.283 642.257 Q621.25 642.257 619.56 643.762 Q617.894 645.267 617.894 647.952 Z" fill="#000000" fill-rule="nonzero" fill-opacity="1" /><path clip-path="url(#clip800)" d="M614.514 559.789 L614.514 555.53 Q616.273 556.363 618.079 556.803 Q619.885 557.243 621.621 557.243 Q626.25 557.243 628.681 554.141 Q631.134 551.016 631.482 544.674 Q630.139 546.664 628.079 547.729 Q626.019 548.794 623.519 548.794 Q618.334 548.794 615.301 545.669 Q612.292 542.521 612.292 537.081 Q612.292 531.757 615.44 528.539 Q618.588 525.322 623.82 525.322 Q629.815 525.322 632.963 529.928 Q636.134 534.512 636.134 543.261 Q636.134 551.433 632.246 556.317 Q628.38 561.178 621.829 561.178 Q620.07 561.178 618.264 560.831 Q616.459 560.484 614.514 559.789 M623.82 545.136 Q626.968 545.136 628.796 542.984 Q630.648 540.831 630.648 537.081 Q630.648 533.354 628.796 531.201 Q626.968 529.025 623.82 529.025 Q620.672 529.025 618.82 531.201 Q616.991 533.354 616.991 537.081 Q616.991 540.831 618.82 542.984 Q620.672 545.136 623.82 545.136 Z" fill="#000000" fill-rule="nonzero" fill-opacity="1" /><polyline clip-path="url(#clip801)" style="stroke:#009af9; stroke-linecap:round; stroke-linejoin:round; stroke-width:4; stroke-opacity:1; fill:none" points="953.557,934.918 951.943,936.628 965.904,919.129 966.096,918.792 971.466,912.017 967.238,917.226 967.579,916.695 969.597,914.086 972.537,910.359 964.598,920.107 961.709,923.509 964.054,920.341 955.417,930.744 966.797,916.244 980.432,899.422 976.88,904.194 986.656,892.568 972.203,911.131 972.643,910.577 963.843,921.283 966.905,916.792 957.504,928.282 989.655,889.091 997.29,881.754 1004.94,875.171 959.212,930.579 944.044,945.168 953.775,931.561 979.199,899.661 978.3,904.807 985.365,899.89 995.712,886.306 1008.37,871.514 953.852,938.975 874.746,1018.9 857.421,1027.45 855.566,1020.27 863.21,1010.13 795.252,1080.5 792.449,1077.35 803.417,1065.03 790.628,1076.87 832.837,1029.06 833.467,1033.14 827.769,1041.46 834.997,1027.45 813.58,1054.54 832.499,1023.29 804.549,1058.49 847.579,1010.44 836.548,1020.48 826.538,1034.83 814.851,1056.44 790.232,1084.13 786.095,1089.31 806.204,1044.62 812.471,1047.37 910.898,937.96 940.502,921.811 947.435,919.502 947.875,931.69 951.12,932.201 969.219,909.181 979.857,919.928 962.268,933.802 1010.9,878.925 1073.54,825.863 1156.14,757.248 1065.7,849.788 1027.97,873.08 1040.47,858.997 1021.98,880.813 1032.12,869.005 960.633,923.053 985.609,898.118 1010.49,870.591 1125.86,773.4 1125.98,788.699 1046.38,862.887 1027.68,865.339 1063.56,838.217 1159.57,754.06 1058.91,861.896 1077.6,836.524 1080.59,826.484 1042.01,859.164 1021.12,884.404 1058.36,863.08 1058.34,848.151 941.864,955.303 1031.62,868.957 954.382,937.88 1079.94,822.701 1028.66,859.247 1003.22,890.583 1010.78,882.719 952.62,938.224 928.345,951.172 825.348,1045.61 826.724,1037.16 881.948,975.598 920.542,953.035 882.104,1001.89 804.329,1074.34 733.592,1145.2 697.771,1178.22 721.036,1145.18 769.313,1089.4 765.637,1099.19 726.873,1141.42 716.716,1153.2 701.748,1171.31 706.996,1167.07 709.568,1157.04 781.452,1063.28 838.425,1009.65 886.873,968.12 846.823,1022.06 894.72,967.137 936.892,928.029 938.03,937.848 912.392,966.984 993.883,878.674 1030.01,862.456 1017.41,875.362 1052.09,839.167 1110.09,770.95 1254.32,659.496 1354.95,587.955 1292.97,671.492 1270.39,690.019 1276.31,691.027 1309.37,655.91 1340.29,639.994 1344.14,640.449 1373.43,601.942 1270.79,698.574 1322.07,656.787 1179.99,771.319 1158.38,783.615 1199.09,733.687 1297.24,655.832 1318.09,653.64 1408.34,595.515 1453.73,553.247 1425.25,577.358 1464,563.152 1348.5,659.639 1371.36,642.181 1356.69,642.833 1311.22,670.67 1352.78,627.298 1269.35,698.488 1276.32,685.955 1358.83,618.595 1351.27,634.097 1235.18,731.8 1273.32,683.505 1209.63,735.348 1191.12,751.357 1207.8,727.79 1208.89,721.714 1165.03,775.052 1190.47,763.793 1251.43,707.449 1283.88,680.348 1388.79,585.056 1348.9,626.049 1236,719.175 1186.93,745.975 1170,763.235 1112.96,813.56 1053.95,863.474 1082.82,817.934 1085.65,834.378 966.264,946.187 914.505,984.773 988.366,891.546 912.456,965.87 899.864,968.037 921.863,947.984 922.765,960.736 930.081,941.928 947.088,927.879 1040.55,833.693 1085.31,799.475 1084.07,806.896 1190.69,726.815 1108.5,810.373 1029.55,873.92 1017.92,869.408 1012.52,882.247 1003.59,906.159 963.737,942 962.512,927.066 1020.83,862.914 1032.28,871.006 1077.8,819.707 1026.34,872.322 1109.23,811.929 1076.36,836.917 1126.85,780.269 1104.96,793.424 1257.26,665.352 1233.74,709.862 1212.36,738.723 1234.34,710.57 1271.63,674.365 1379.31,587.099 1401.12,593.648 1315.08,678.161 1324.87,664.415 1352.08,651.258 1278.06,711.539 1283.31,696.277 1224.22,731.923 1266.97,686.706 1171,777.373 1186.37,743.725 1180.81,747.457 1082.08,835.937 1095.92,809.767 1151.15,755.757 1096.3,813.772 1015.77,894.821 951.363,945.758 943.321,945.408 921.912,960.827 866.168,1020.85 941.859,927.69 963.783,917.314 970.451,914.357 930.815,950.707 1049.8,824.602 1062.01,832.757 1157.74,742.741 1066.6,848.963 1150.53,754.422 1106.12,806.912 1153.1,771.311 1142.26,775.701 1101.74,814.704 1185.76,767.095 1180.58,758.714 1257.64,683.01 1409.23,562.446 1494.9,501.53 1540.55,495.941 1450.06,593.885 1392.38,625.75 1370.69,636.898 1348.94,645.435 1336.36,654.327 1363.48,624.034 1421.06,564.421 1531.69,479.467 1458.28,559.78 1589.36,471.284 1605.67,476.655 1575.07,497.987 1597.92,479.3 1619.1,464.981 1617.27,469.469 1547.2,524.038 1528.67,536.029 1520.36,532.391 1406.81,626.726 1427.05,592.096 1382.86,627.188 1319.21,673.661 1369.8,615.673 1366.38,616.445 1347.42,629.795 1278.91,695.801 1257.87,696.216 1255.64,694.412 1265.13,685.317 1256.2,691.374 1235.73,717.108 1189.83,755.502 1126.38,804.264 1090.34,835.577 1053.13,858.657 1030.57,874.38 1065.4,834.213 1124.35,787.773 1103.51,808.125 1081.51,828.941 1153.35,767.534 1134.76,788.05 1222.04,699.661 1249.57,690.363 1275.43,676.565 1316.91,644.921 1322.17,656.651 1250.11,713.733 1311.97,661.047 1353.25,634.206 1418.51,581.533 1368.57,619.685 1329.3,645.608 1264.35,705.805 1123.08,832.543 1138.54,793.43 1083.8,834.773 1107.92,806.375 1097.9,815.727 1059.87,862.799 982.884,931.969 932.615,970.16 953.175,934.56 936.648,952.712 951.701,921.124 952.795,927.741 959.99,922.964 959.193,922.617 879.312,1000.83 919.141,957.731 926.286,941.952 934.603,935.004 910.411,969.353 925.641,954.619 985.837,907.655 1049.13,855.282 1019.15,881.948 1136.29,775.539 1208.26,706.78 1217.69,716.297 1227.54,724.694 1153.86,768.593 1039.88,869.88 1020.83,870.796 1138.76,755.896 1126.51,794.71 1164.96,765.076 1142.69,780.641 1048.51,852.994 1068.46,833.691 1014.56,884.499 975.284,917.664 936.717,954.077 909.26,976.995 873.437,1004.73 904.837,964.474 901.471,976.281 868.139,1008.71 805.851,1067.46 822.45,1043.54 771.205,1094.9 779.597,1083.95 828.98,1036.38 854.951,1007.87 880.508,988.921 908.776,958.188 936.872,951.325 932.515,944.057 939.429,937.247 951.796,935.657 1003.02,877.873 1009.51,873.225 1010.53,881.149 956.217,925.632 1019.99,854.478 1080.71,804.066 953.023,932.256 1031.15,857.906 1130.08,763.875 1185.1,721.785 1262.44,687.553 1186.97,761.056 1168.86,767.007 1081.63,837.849 1047.75,862.572 1042.62,865.654 984.404,912.222 1037.7,852.871 1039.63,848.921 1016.41,875.31 1012.57,876.822 1049.57,843.635 1126.95,782.611 1130.52,790.647 1006.44,894.908 976.064,914.043 941.939,941.879 986.383,895.569 992.022,901.596 1042.79,852.546 1024.46,877.473 994.876,900.969 890.098,1005.16 909.643,983.469 982.857,913.014 1025.65,870.106 1040.11,869.958 1061.17,853.216 972.414,911.072 959.413,928.401 907.258,985.145 908.437,974.297 889.618,984.763 906.054,973.089 906.831,958.851 859.082,1006.56 877.91,988.994 881.085,992.207 872.873,1000.43 851.044,1015.89 881.392,993.052 828.345,1037.67 878.755,978.776 873.524,985.033 912.56,952.499 950.298,911.872 950.859,922.271 1022.45,858.143 1071.73,829.417 1069.87,840.586 1093.73,805.055 1148.27,758.29 1148.05,769.758 1160.65,755.726 1185.59,740.899 1236.94,704.478 1266.72,687.32 1105.14,809.246 1186.47,733.896 1189.3,751.808 1187.26,753.444 1199.16,730.866 1144.9,788.409 1079.82,851.389 1161.64,757.954 1073.95,837.422 1110.38,794.054 1014.72,880.78 1086.69,813.833 1116.96,789.606 1247.34,697.351 1184.76,759.041 1222.29,718.373 1254.99,697.44 1217.64,727.087 1198.49,735.106 1161.9,772.663 1135.4,786.026 1091.54,826.689 1193.33,717.837 1235.26,704.786 1213.54,724.59 1213.39,721.073 1187.59,748.587 1186.86,744.693 1198.88,737.355 1206.94,751.529 1077.27,855.182 1061.34,853.578 1137.3,762.519 1143.35,770.92 1119.57,797.247 1153.97,756.494 1083.51,825.503 1026.51,871.593 1041.56,854.895 1023.77,871.871 1011.44,876.668 976.174,916.332 1023.53,868.985 1083.7,812.005 1011.76,885.913 897.144,996.382 940.801,935.877 955.716,925.99 998.848,886.016 1142.76,744.392 1063.91,841.489 1067.54,835.464 1084.14,820.851 1052.45,852.596 1033.65,882.171 1037.3,866.236 970.06,922.259 911.521,981.443 882.053,1001.67 899.357,988.466 919.397,956.044 885.984,981.484 894.07,987.252 920.718,959.209 966.605,924.601 1000.96,888.011 934.464,951.151 927.44,960.482 932.022,931.78 983.05,899.873 965.089,932.185 942.775,944.027 978.889,922.932 994.46,902.661 1106.78,811.226 1024.36,888.771 1023.39,887.981 975.688,927.652 1026.62,857.713 1039.09,850.707 1008.69,878.296 964.108,931.814 981.715,919.112 1001.38,897.923 1085.36,849.226 1058.42,862.52 969.862,930.071 968.131,927.626 1009.5,878.211 1057.5,823.107 1037.96,850.764 1068.98,824.332 982.208,906.725 1087.34,812.324 1022.34,873.507 1010.42,890.687 1013.19,892.321 1044.9,853.061 1214.57,708.043 1329.05,622.437 1402.1,573.316 1380.72,619.514 1359.91,633.125 1273.34,693.727 1213.74,740.298 1166.12,769.332 1143.16,781.815 1156.63,771.322 1144.13,767.266 1076.15,837.264 998.185,897.298 1028.47,861.593 1036.15,857.307 1091.68,807.317 1047.16,855.405 1055.21,844.279 1051.78,843.829 1037.88,857.004 993.004,895.589 995.731,898.536 971.882,927.557 998.331,889.736 1098.12,812.454 1108.57,816.361 1128.67,797.269 1168.32,749.764 1298.19,662.264 1394.58,578.874 1306.82,664.633 1203.83,757 1158.64,783.039 1106.01,821.71 1048.58,866.023 1044.6,863.674 1022.86,877.977 955.736,939.932 917.949,967.13 941.506,936.021 912.165,976.917 863.095,1021.99 849.76,1024.26 818.402,1062.3 761.195,1115.93 749.93,1122.92 750.678,1119.01 751.769,1118.13 767.75,1095.37 795.411,1060.29 775.384,1088.3 798.517,1063.56 811.467,1047.97 797.896,1074.05 810.095,1065.76 883.461,982.238 864.526,1007.07 853.092,1013.82 802.431,1068.51 866.871,998.894 865.922,1003.51 874.864,1004.1 887.116,986.142 912.039,962.638 992.488,880.306 940.117,942.133 1055.5,835.146 983,904.305 1039.48,852.884 1052.73,838.529 1076.55,814.255 1040.69,859.697 991.214,903.11 843.822,1035.38 802.082,1077.89 785.32,1087.17 833.325,1027.2 866.823,996.043 949.538,910.357 1017.31,855.13 1098.91,781.952 1036.89,864.701 1064.77,832.793 1023.46,881.735 1057.24,849.469 1171.31,751.735 1395.01,554.846 1409.82,580.776 1404.76,592.165 1318.56,671.006 1251.38,725.183 1159.31,789.252 1104.98,831.745 1040.11,886.096 1002.81,908.315 969.403,933.789 977.809,910.865 883.54,1014.75 822.051,1067.63 840.734,1034.86 873.671,988.244 842.839,1025.26 871.51,992.887 857.036,1012.51 881.373,985.959 946.466,923.399 1002.94,874.548 1037.34,851.559 1143.26,766.929 1199.27,728.742 1145.1,790.818 1140.77,788.849 1147.52,767.395 1236.43,682.052 1288.67,660.992 1295.69,667.95 1166,769.185 1098.6,824.099 1146.47,784.235 1100.45,823.569 962.692,951.407 917.434,980.438 872.081,1018.11 887.62,995.94 863.305,1019.73 816.118,1068.18 771.825,1107.57 842.613,1016.93 831.768,1035.06 868.616,994.113 892.68,974.62 961.693,903.688 977.904,897.353 904.343,977.448 908.269,976.324 872.884,1012.13 816.117,1061.37 856.165,1008.93 823.013,1043.66 826.27,1035.1 815.721,1043.83 873.96,981.843 969.366,894.153 987.755,886.324 999.011,884.573 1043.91,833.585 1030.28,869.49 1037.51,861.67 1110.31,795.899 1125.73,787.719 1157.82,757.518 1156.3,765.362 1239.83,731.303 1230.39,726.181 1316.99,645.194 1317.01,654.087 1234.41,720.781 1307.17,666.222 1261.19,707.604 1231.26,723.965 1232.83,717.088 1341.18,626.197 1247.79,705.037 1193.26,753.002 1116.59,806.574 1062.24,852.647 998.029,914.172 994.005,907.404 1020.67,871.576 951.465,928.131 977.234,899.904 1098.07,798.419 1033.85,863.264 969.409,931.155 958.998,932.404 897.36,993.433 895.803,981.101 898.044,979.651 935.534,937.015 919.562,955.779 885.481,995.781 925.979,946.441 987.09,894.266 1062.48,826.801 974.623,918.717 994.757,896.346 960.112,932.023 974.141,906.381 1027.65,878.503 890.848,994.688 948.599,918.47 978.411,889.504 995.919,882.952 985.522,898.987 993.054,893.95 927.744,960.115 940.634,941.114 1041.2,844.613 1059.06,842.712 1063.69,846.89 1097.57,802.459 1120.89,776.66 1131.17,756.826 1172.69,734.783 1116.1,798.881 1081.9,829.289 1097.02,818.655 1145.48,777.435 1187.81,736.253 1311.97,659.429 1259.38,710.17 1229.32,746.407 1201.42,747.065 1104.23,836.399 1096.51,820.847 1065.85,847.995 1038.19,872.897 988.605,905.409 986.869,905.276 878.981,1013.09 864.153,1020.59 821.537,1063.86 838.613,1030.64 815.931,1060.54 880.53,981.685 918.74,947.244 861.641,1017.64 830.697,1050.63 926.715,943.154 913.884,958.315 874.132,1000.54 877.614,992.317 951.156,914.904 999.942,873.67 921.339,953.074 980.198,901.616 978.178,902.516 980.953,900.757 1017.04,859.529 1121.26,780.681 1203.55,720.081 1333.17,624.381 1298.06,675.117 1259.74,721.696 1185.23,772.214 1175.37,761.503 1145.79,782.644 1181.71,749.282 1181.27,747.961 1095.37,823.513 1009.85,897.036 1027.71,867.202 1042.17,859.049 1069.35,821.728 1112.04,792.672 1114.46,794.988 1274.38,678.872 1285.47,671.824 1338.87,624.648 1348.25,628.442 1352.64,630.313 1254.9,710.538 1156.45,793.889 1195.4,745.618 1197.41,750.717 1152.99,779.394 1167.95,759.704 1156.37,773.596 1173.04,759.894 1213.39,727.044 1201.82,737.357 1121.7,810.227 1174.54,750.833 1371.54,586.521 1405.92,585.667 1354.35,638.284 1216.45,753.991 1211.1,736.493 1234.9,707.026 1223.69,721.019 1241.24,707.851 1291.72,674.731 1324.19,647.245 1382.77,606.988 1286.86,695.252 1154.81,799.994 1081.37,851.815 1088.82,825.585 1082.67,824.065 1205.73,693.473 1235.49,692.819 1301.94,634.78 1339.26,619.4 1350.38,620.992 1366.28,609.959 1368.39,617.638 1317.65,671.304 1311.31,662.777 1175.37,773.883 1190.88,748.374 1077.18,857.278 1037.27,882.649 1020.86,887.085 1040.27,857.661 1076.24,824.686 1103.23,813.156 1075.55,841.381 1008.28,900.657 1025.54,874.908 1041.82,846.043 1065.52,826.702 1071.77,832.803 1004.69,902.25 1008.85,890.089 983.517,909.706 1012.26,875.759 1116.83,789.295 1106.22,796.772 1060.18,826.08 1182.72,727.785 1220.71,712.726 1186.17,757.062 1295.08,665.379 1234.06,716.69 1284.23,663.856 1178.13,761.224 1202.27,738.253 1176.44,764.453 1085.63,842.097 1065.6,852.453 1116,804.72 1068.18,844.42 1020.11,880.573 959.223,932.774 994.975,893.388 950.297,943.508 872.731,1008.92 847.326,1033.44 831.367,1036.28 780.36,1094.92 841.382,1023.45 810.379,1064.53 837.613,1037.43 803.36,1070.47 836.57,1014.01 844.286,1018.36 833.551,1038.39 808.444,1059.32 865.416,1001.99 797.086,1076.5 791.781,1081.94 788.304,1083.66 812.855,1055.24 847.203,1014.68 859.151,995.386 912.047,954.456 888.253,988.496 852.162,1021.2 853.719,1022.06 822.701,1055.38 870.013,1006.03 788.04,1094.39 798.299,1066.01 847.577,1013.54 802.016,1070.73 821.351,1044.41 871.518,993.7 910.908,949.72 867.759,1005.46 838.408,1036.36 938.312,932.473 944.802,937.26 953.577,931.545 961.336,926.361 980.286,909.478 930.097,952.751 1019.33,862.086 1088.27,822.524 1129.39,774.221 1152.71,756.542 1070.33,834.946 1107.2,804.271 1101.87,801.976 1044.6,854.713 1023.7,876.281 931.344,969.883 861.157,1034.52 939.595,943.696 949.781,934.003 1007.12,884.09 1096.69,797.287 1187.89,729.588 1105.79,797.682 1182.33,741.085 1238.5,688.74 1178.59,761.83 1199.49,742.269 1129.63,800.169 1135.29,786.962 1139.91,778.776 1145.56,778.616 1098,829.909 984.889,919.331 989.005,908.384 989.928,897.171 1015.01,873.286 1016.44,875.253 974.359,922.229 1057.19,844.452 1023.95,880.371 1057.13,843.224 1019.29,884.503 1031.98,859.622 1103.21,797.607 1151.39,778.761 1168.27,759.857 1162.04,761.046 1146.92,782.459 1040.28,863.939 1056.03,854.904 1052.08,861.613 1063.16,836.74 1090.88,810.437 1167.15,741.743 1235.72,693.042 1225.71,709.021 1185.61,759.654 1222.49,726.727 1229.95,723.808 1292.02,671.303 1214.31,740.63 1188.82,757.632 1128.03,800.663 1286.19,648.57 1329.09,640.134 1313.14,673.478 1147.16,810.94 1084.41,855.065 1089.88,830.371 1126.78,788.456 1134.36,784.95 1258.75,667.418 1283.77,659.094 1249.87,703.823 1302.28,652.128 1290.2,675.174 1391.74,599.894 1358.59,647.322 1337.32,649.238 1372.54,610.999 1324.8,653.687 1219.95,735.589 1226.58,722.627 1235.08,713.725 1326.17,633.224 1375.28,615.217 1435.65,580.304 1591.44,458.661 1491.92,559.214 1553.35,501.664 1446.57,611.333 1361.14,668.569 1361.98,648.022 1421.44,577.771 1415.32,577.704 1399.1,603.541 1346.93,646.607 1388.37,606.014 1378.68,622.114 1343.37,653.139 1414.2,580.911 1398.54,600.138 1355.5,636.872 1422.73,572.397 1475.7,547.274 1345.04,658.259 1269.5,714.666 1288.9,677.336 1305.27,664.293 1377.23,607.399 1336.92,653.552 1290.39,686.502 1186.52,773.937 1231.85,715.119 1197.02,749.576 1139.76,798.885 1160.69,770.926 1211.1,718.806 1150.53,772.841 1187.11,738.157 1123.17,788.876 1172.09,755.461 1194.1,736.473 1167.3,767.747 1156.45,764.798 1071.67,848.821 1014.68,900.671 961.616,929.969 978.14,908.968 1020.96,870.455 1075.31,816.284 1101.29,806.283 1109.27,800.548 1036.84,868.916 988.164,911.057 932.226,957.157 928.059,958.198 883.588,998.653 880.029,991.633 970.511,894.496 1028.75,854.541 1094.72,799.766 1063.75,845.9 1121.76,796.186 1109.71,812.629 1127.6,801.638 1102.86,795.518 1083.19,812.575 1120.73,783.579 1171.95,743.972 1149.11,776.111 1210.56,702.905 1253.92,688.495 1311.2,639.404 1298.81,671.477 1226.61,736.786 1202.41,745.426 1283.87,659.642 1382.08,583.142 1402.77,588.414 1346.3,652.112 1312.45,674.843 1369.84,618.332 1349.55,645.007 1378.25,605.527 1296.23,678.368 1323.07,643.835 1367.5,614.081 1344.14,640.551 1449.63,549.986 1423.39,583.949 1462.78,557.005 1468.3,564.92 1298.88,703.496 1229.63,748.351 1193.2,757.985 1224.1,723.041 1272.61,670.91 1270,679.361 1215.05,730.006 1219.55,722.942 1128.81,795.769 1181.84,743.121 1175.19,756.711 1251.1,688.32 1365.53,602.226 1383.66,601.679 1236.95,732.548 1242.03,707.104 1236.46,706.006 1215.95,737.591 1267.68,677.343 1168.59,783.571 1278.74,673.373 1240.89,709.881 1377.7,584.852 1257.91,711.521 1363.27,620.787 1282.95,678.319 1310.63,644.029 1252.54,696.256 1131.55,797.911 1125.33,797.985 1088.21,830.314 1132.62,777.78 1158.36,772.738 1095.85,814.843 1058.27,852.167 1102.38,806.72 1240.81,700.247 1191.13,752.283 1167.3,772.012 1226.49,716.733 1205.82,735.251 1113.94,808.784 1189.69,725.27 1171.62,757.281 1179.01,742.639 1185.74,740.198 1173.91,756.821 1180.14,754.849 1206.96,732.653 1142.81,790.615 1121.33,800.667 1176.32,736.383 1242.17,694.102 1236.75,704.88 1178.12,759.301 1146.36,782.198 1083.1,833.206 1032.2,886.558 952.576,951.881 932.845,957.361 962.624,920.883 981.049,899.804 997.126,885.076 953.745,935.584 949.391,925.895 1055.72,827.398 1054.73,840.17 1113.73,790.749 1054.39,850.077 1136.66,764.967 1139.74,794.924 1112.21,817.521 1074.13,845.769 1010.01,902.84 1012.31,890.683 1143.43,775.835 1163.1,759.416 1176.95,755.611 1186.09,735.024 1198.8,750.978 1136.55,791.361 1198.44,723.194 1255.86,668.928 1167.28,764.364 1109.09,826.193 1113.69,799.42 1094.95,819.7 1182.81,741.228 1223.29,710.693 1266.65,674.103 1227.65,721.556 1130.05,806.608 1176.16,753.564 1170.77,759.584 1246.82,701.328 1270.2,681.86 1208.55,755.952 1274.69,681.185 1239.95,693.14 1130.62,804.443 1067.39,858.201 1009.06,900.272 1028.03,862.763 992.939,900.032 962.205,923.794 1026.9,859.724 1114.03,784.35 1130.78,784.855 1157.24,765.424 1153.32,795.522 1115.4,816.094 1089.96,829.675 1114.79,799.171 1164.53,753.747 1106.8,803.693 1204.65,710.171 1213.14,708.754 1210.56,719.721 1219.29,718.841 1133.87,785.233 1112.04,812.387 1048.77,867.334 1047.92,844.13 1117.86,778.846 1208.06,691.154 1238.14,685.892 1169.17,769.984 1216.51,726.352 1293.58,660.45 1214.72,726.009 1337.5,630.239 1238.24,717.983 1357.27,622.591 1264.95,688.823 1276.35,672.401 1337.66,628.075 1296.54,661.394 1333.21,641.098 1230.15,731.821 1196.82,736.819 1214.55,724.277 1206.52,743.061 1140.14,792.944 1089.76,827.287 1023.7,886.588 1030.83,881.628 988.619,927.647 921.471,981.319 895.774,993.843 915.815,961.895 915.648,964.375 941.014,940.959 962.787,919.026 952.193,925.31 957.362,917.48 982.845,888.325 1009.15,881.407 1043.49,848.652 1060.63,839.355 1033.31,869.07 1061.31,849.348 1162.45,771.956 1165.1,760.37 1093.63,827.143 1144.93,790.124 1188.39,750.609 1184.62,761.862 1143.85,787.237 1106.7,818.907 1160.42,773.507 1214.16,747.337 1197.73,753.264 1251.11,690.477 1205.75,720.334 1285.24,653.585 1230.07,731.948 1139.87,819.296 1138.85,798.003 1163.55,766.912 1093.7,830.512 1172.74,757.697 1163.84,759.056 1131.18,791.946 1168.17,783.335 1202.38,717.308 1130.82,773.633 1174.65,733.645 1264.25,677.07 1236.05,716.034 1292.96,681.807 1151.75,787.647 1159.87,774.714 1112.93,820.217 1006.1,907.244 1068.41,823.555 1085.66,817.376 1055.7,850.381 1157.85,763.119 1172.09,752.046 1193.55,739.983 1204.15,733.611 1163.55,768.429 1128.3,802.28 1178.25,754.954 1218.67,718.291 1203.67,743.181 1184.55,758.823 1251.53,691.408 1200.8,732.734 1164.67,787.357 1240.89,713.421 1370.18,639.228 1421.52,586.115 1483.78,541.771 1528.49,525.45 1480.69,567.353 1501.47,548.826 1475.26,554.943 1431.24,588.721 1375.24,632.653 1354.91,637.309 1415.25,584.15 1319.45,673.229 1334.59,639.68 1416.05,564.245 1370.76,629.282 1356.31,639.892 1330.17,655.655 1311.52,661.125 1376.39,596.296 1455.65,540.981 1375.6,618.265 1305.29,669.239 1332.14,647.753 1336.84,635.122 1273.99,703.127 1188.14,771.039 1058.49,885.898 1089.97,831.761 1100.51,814.217 1122.27,792.566 1180.55,733.919 1170.64,744.323 1160.39,748.285 1099.76,817.192 1079.73,833.023 1119.03,789.748 1153.19,781.397 1181.15,752.138 1220.98,709.766 1253.92,689.568 1287.29,659.325 1310.02,652.143 1273.6,698.256 1255.35,707.64 1172.72,768.168 1203.93,737.956 1220.22,710.581 1321.63,620.805 1315.97,642.237 1262.73,688.565 1223.45,726.344 1143.98,793.593 1156.75,762.588 1168.99,762.24 1016.95,893.337 1027.98,869.5 1023.76,878.016 958.294,932.015 929.691,956.932 907.978,974.988 936.079,938.958 946.23,934.623 962.96,915.207 1026.59,849.657 1060.14,830.693 1086.72,809.401 1077.46,827.766 1075.43,837.977 1059.88,839.113 1030.2,879.286 1054.68,856.902 1174.98,736.486 1123.09,778.492 1081.74,821.273 1027.41,866.139 1006.65,875.923 1066.87,828.553 1181.7,744.176 1179.74,742.537 1150.05,787.384 1107.65,805.992 1100.77,814.685 1063.25,844.864 1015.75,893.967 995.282,906.332 981.811,916.047 976.212,916.533 985.057,904.622 959.767,926.544 918.895,969.271 973.353,899.562 1003.43,877.142 953.624,932.71 1001.32,883.626 997.395,897.55 954.733,942.695 978.224,910.171 992.58,908.801 971.505,923.692 1007.44,881.075 1015.79,881.286 1046.43,832.57 1082.93,817.933 1091.16,822.022 1102.8,807.263 1128.75,794.573 1140.14,780.381 975.325,926.43 1002.33,889.625 1011.05,880.696 1000.3,888.053 1082.89,799.533 1085.3,804.955 1045.24,855.65 1018.72,885.353 1017.37,878.731 1018,875.921 1070.21,838.223 967.9,936.891 951.756,937.563 928.957,955.971 921.043,959.951 925.745,953.078 944.059,944.789 965.497,920.55 960.839,918.91 962.93,923.528 912.632,964.466 929.731,949.406 952.919,927.405 927.444,958.632 1024.1,863.272 1053.23,843.781 1040.74,866.716 1107.26,818.969 1166.53,785.177 1148.56,791.545 1217.25,743.499 1160.94,781.184 1024.49,900.174 1034.4,864.198 1024.34,872.863 968.377,921.561 977.534,911.198 1091.53,787.868 1128.06,767.747 1011.33,887.203 1144.52,771.672 1114.95,801.03 1120.62,784.555 1155.97,764.05 1162.44,759.716 1312.18,630.1 1293.62,662.371 1206.26,753.935 1167.25,774.096 1132.69,801.1 1145.1,776.82 1018.63,902.768 1112.18,788.397 1097.77,814.038 1141.84,763.871 1261.9,659.713 1249.06,691.96 1169.35,779.17 1181,754.676 1147.75,788.797 1132.68,795.374 1163.87,755.844 1105.28,817.987 1138.02,779.925 1143.03,778.015 1126.3,795.642 1241.44,688.82 1251.83,690.845 1272.39,679.849 1286.58,673.549 1186.83,766.544 1146.17,797.258 1098.09,825.907 1175.71,742.622 1113.91,809.574 1044.97,867.417 1094.52,809.18 1040.6,867.654 1095.67,808.442 1104.24,814.156 1119.43,798.476 1089.27,827.54 1080.75,830.023 1057.74,851.788 1078.76,823.03 1093.6,813.168 1072.14,846.16 988.46,912.707 977.672,921.062 944.565,954.563 948.938,940.07 1007.98,879.658 1086.97,802.022 1162.73,739.559 1127.37,797.906 1129.73,804.248 1103.03,813.869 1159.07,757.828 1127.1,792.679 1205.51,726.081 1197.93,746.782 1218.38,720.804 1160.1,763.36 1202.23,720.089 1175.44,754.313 1185.27,751.926 1017.24,895.494 1028.02,872.809 1058.05,837.699 1093.02,803.541 1103.55,804.582 1151.23,767.285 1152.42,774.804 1114.46,827.648 1092.44,832.721 1048.51,863.152 1040.58,861.55 926.843,963.207 948.712,941.604 973.571,907.585 966.849,917.476 982.996,894.592 885.79,988.095 907.76,971.473 886.302,1005.93 797.428,1087.35 800.095,1076.45 798.244,1068.38 814.331,1053.69 835.04,1028.97 849.682,1011.81 853.098,1007.79 874.979,990.129 849.017,1020.14 830.746,1029.64 872.695,991.465 858.167,1014.06 824.665,1051.14 796.499,1076.72 797.236,1071.78 823.531,1045.41 847.421,1025.23 881.627,990.629 843.331,1031.76 810.221,1068.4 769.255,1100.38 774.759,1091.73 794.747,1074.44 823.074,1044.5 865.923,991.543 963.078,904.836 908.573,963.474 948.782,922.44 952.165,929.136 948.101,928.845 955.206,931.344 933.134,948.339 922.413,956.927 897.442,986.177 958.676,917.03 933.779,936.429 937.32,932.267 931.113,937.478 968.979,908.471 973.963,915.604 1057.3,827.696 965.732,906.341 992.256,895.059 960.058,941.255 878.668,1006.6 901.425,973.355 869.182,1006.96 968.091,902.703 1034.85,849.21 1112.7,787.652 1131.53,787.373 1218.37,706.558 1146.93,780.094 1092.69,819.076 1128.74,796.547 1092.71,836.693 1067.41,848.605 1053.44,854.772 1135.75,775.918 1131.35,788.122 1040.43,860.875 1000.01,903.135 971.1,918.526 907.448,974.213 867.508,1012.26 858.42,1012.31 881.375,990.21 886.667,980.515 899.168,975.767 872.116,998.746 924.395,951.175 969.573,913.073 931.958,972.51 980.948,914.954 963.939,923.71 877.572,1006.47 970.82,913.298 959.547,948.336 952.069,943.969 905.953,974.283 960.296,921.638 936.909,939.905 1015.85,883.771 990.588,916.575 886.564,1006.82 863.433,1025.34 883.291,988.392 862.723,1006.58 818.386,1046.84 838.442,1031.53 831.114,1036.43 807.313,1057.87 828.058,1030.96 846.687,1015.71 859.572,1006.71 808.993,1061.69 812.501,1062.71 845.582,1016.27 907.414,964.947 880.138,992.158 828.444,1043.3 889.322,981.616 899.931,973.494 869.735,1001.22 855.963,1009.78 841.628,1030.38 855.983,1009.7 874.768,997.681 893.169,983.377 1017.45,853.153 1109.5,785.852 1067.13,841.722 1002.39,902.846 1056.17,842.439 1124.82,791.992 1262.27,660.625 1284.65,669.058 1251.3,709.288 1271.07,680.584 1346.25,623.217 1453.47,546.754 1421.51,595.298 1494.65,523.255 1598.09,463.068 1533.08,525.808 1474.17,563.983 1505.65,543.07 1412.85,610.06 1366.84,640.512 1312.39,673.824 1325.77,650.422 1398.84,578.17 1307.88,669.82 1320.85,655.497 1218.94,752.135 1249.63,712.744 1172.9,773.715 1116.95,817.792 1093.86,829.312 1105.14,807.238 1097.76,816.333 1117.37,800.425 1086.47,835.464 1095.69,824.774 1093.9,824.204 963.19,945.235 969.874,920.771 996.767,887.102 985.189,897.811 1044.72,858.932 1042.17,858.223 1077.66,821.471 1052.98,836.371 1059.09,828.893 1015.87,866.769 947.15,935.638 903.292,990.979 850.524,1054.23 873.595,1001.49 875.201,996.336 867.764,1005.32 934.928,927.091 905.093,966.884 911.92,973.8 834.059,1053.27 827.234,1054.36 834.242,1037.22 842.276,1028.46 828.728,1037.83 885.191,987.641 916.469,945.904 984.336,885.413 942.282,933.876 914.269,961.213 900.18,967.863 848.661,1019.97 809.207,1063.22 820.16,1050.58 813.842,1052.52 795.225,1076.17 816.244,1049.76 808.041,1055.95 809.513,1056.28 893.161,971.241 862.199,1004.1 874.29,999.013 845.633,1032.84 817.318,1057.59 831.151,1032.51 866.155,996.3 923.832,947.574 1027.72,845.357 1119.78,774.589 1171.41,746.051 1389.06,560.654 1308.42,655.72 1208.62,745.794 1095.9,832.86 1055.78,863.043 1031.04,883.858 962.722,939.417 957.154,935.762 976.908,907.529 967.1,915.694 1011.38,871.629 1017.14,861.892 1104.82,783.658 1070.44,831.641 1025.19,867.928 1012.95,872.57 949.034,946.27 896.938,987.07 919.478,954.583 917.592,957.449 964.509,914.506 1001.34,885.321 1086.19,808.794 1145.91,751.641 1086.73,816.386 1135.64,785.299 1181.85,730.219 1127.39,786.736 1100.09,822.118 968.659,935.338 944.784,948.436 953.853,928.218 955.377,928.514 997.882,886.719 1045.43,842.774 1008.3,886.594 1103.05,802.544 1105.67,808.435 1171.58,741.041 1199.65,727.696 1122.87,804.542 1168.39,754.566 1169.92,756.888 1191.7,741.228 1176.32,742.904 1116.19,793.786 1042.38,864.237 1041.64,856.223 1071.93,844.528 1188.95,735.27 1118.32,771.846 982.367,871.275 990.143,868.493 956.674,904.933 921.606,937.353 969.086,894.724 957.869,911.631 1108.64,750.138 1072.58,817.002 1103.45,799.552 1080.5,830.3 1156.42,751.564 1100.53,811.821 1208.36,712.155 1227.66,689.178 1205.82,721.624 1120.8,804.304 1173.01,739.515 1099.62,818.574 1187.41,721.969 1304.3,643.312 1263.03,693.541 1331.94,624.849 1283.25,680.772 1219.29,732.824 1231.22,714.724 1175.94,775.305 1265.12,690.816 1203.06,747.946 1282.56,672.175 1254.66,697.265 1198.13,738.18 1220.37,706.834 1268.37,690.309 1308.83,652.854 1339.84,623.635 1373.35,602.811 1384.17,597.606 1506.5,524.194 1359.13,638.533 1300.61,677.373 1304.82,671.916 1335.34,625.672 1333.63,642.128 1307.06,665.438 1226.83,726.243 1148.97,796.154 1142.41,773.891 1131.88,788.465 1060.68,844.668 1054.53,847.788 1004.99,894.585 1023.54,870.961 982.422,912.809 957.582,937.586 957.01,928.102 942.377,939.722 1010.55,861.326 1079.04,810.691 1100.08,810.078 1163.98,753.228 1209.71,729.646 1237.44,723.332 1232.32,712.438 1192.02,754.869 1234.68,728.572 1211.54,742.045 1243.81,700.892 1175.02,761.926 1206.35,733.207 1229.51,730.253 1114.88,817.787 1082.84,835.352 1129.25,777.469 1044.56,853.65 985.255,912.037 1145.9,777.91 1094.78,825.746 1163.41,743.985 1215.62,739.648 1273.99,682.056 1202.82,741.471 1163.21,782.261 1174.55,765.922 1222.88,719.373 1192.67,751.802 1105.27,811.493 1090.36,819.01 1095.87,811.493 1063.33,850.62 987.696,918.735 1004.36,890.693 1072.76,809.898 1085.08,804.055 1066.57,830.615 1073.25,821.652 1062.02,836.706 1079.77,812.152 1070.92,830.797 1122.57,780.645 1131.76,782.915 1119.21,792.215 1170.71,742.894 1146.62,783.097 1068.73,856.632 1106.34,808.843 1064.26,849.554 1110.49,796.276 1094.82,808.956 1211.34,706.367 1252.53,682.105 1242.5,703.696 1185.83,761.842 1195.79,746.908 1259.94,686.141 1178.68,772.31 1349.28,622.205 1237.07,718.894 1204.02,751.379 1157.55,786.394 1149.63,794.878 1095.35,822.513 1014.34,907.483 1031.49,872.364 1116.42,783.562 1160.07,745.119 1125.14,782.94 1048.91,864.631 1036.09,873.82 1086.48,818.253 1110.79,790.644 1039.73,860.689 1112.26,782.771 1295.35,635.571 1331.5,626.972 1377.35,608.236 1505.76,511.435 1470.95,558.105 1360.16,646.025 1343.74,655.689 1320.08,666.379 1291.17,682.074 1221.02,738.151 1206.22,751.265 1181.81,767.369 1174.31,762.342 1145.19,770.924 1100.16,811.535 1075.36,831.681 1093.34,815.496 1090.27,824.964 995.204,907.827 957.674,935.204 1007.45,883.818 1009.66,877.96 1034.96,858.359 1178.36,713.774 1156.8,760.506 1139.52,777.944 1192.14,736.817 1146.02,784.855 1172.89,754.594 1297.82,642.674 1282.98,673.53 1308.58,651.526 1262.23,691.659 1174.81,770.059 1143.71,789.349 1150.55,784.106 1161.79,753.946 1181.62,743.52 1177.33,754.903 1116.64,815.228 1086.61,833.061 1085.16,827.015 1119.6,790.671 1208.26,728.824 1163.98,775.52 1215.2,715.432 1272.85,667.79 1252.47,701.726 1311.49,644.486 1306.34,659.28 1301.23,667.956 1246.34,714.789 1229.75,723.309 1164.66,782.477 1138.18,794.723 1080.07,846.27 1049.9,861.163 1104.6,800.842 1047.26,857.89 1088.96,801.687 1036.37,865.618 1020.94,872.289 1029.56,861.803 954.476,925.784 961.806,915.18 942.916,923.26 956.52,919.531 1015.07,851.76 953.393,918.799 969.547,907.72 1030.94,865.71 1016.58,881.174 1043.46,858.315 1038.21,860.3 1096.87,801.159 1055.51,840.196 1138.04,760.772 1258.18,672.119 1372.83,604.452 1373.45,626.544 1436.13,578.737 1474.59,567.496 1385.76,625.756 1462.53,545.243 1437.05,572.88 1313.58,677.62 1335.39,649.259 1386.03,606.218 1434.86,568.751 1368.57,656.304 1248.16,746.142 1152.46,819.966 1131.92,820.421 1137.4,799.28 1142.49,787.268 1041.71,884.913 988.589,924.661 1009.9,886.879 992.689,899.272 981.557,907.598 1016.38,868.895 946.136,951.3 987.487,892.226 1001.74,886.506 945.422,937.769 999.884,876.399 1013.47,876.43 917.007,966.877 849.354,1032.36 942.71,920.832 969.279,909.676 984.008,902.236 976.876,917.496 1044.61,846.719 1164.89,752.803 1108.46,805.725 1115.99,795.207 1050.66,842.706 1057.99,835.961 1050.16,853.865 1099.47,797.328 1106.18,781.625 1161.19,741.5 1123.84,797.377 1148.37,768.002 1217.34,707.375 1211.05,726.72 1160.1,780.119 1127.87,802.447 1065.14,858.201 994.861,917.762 951.872,948.19 943.458,951.135 930.669,955.89 937.877,941.882 958.969,921.982 996.039,888.349 993.019,886.073 955.526,929.07 1066.4,812.846 1071.96,818.863 1041.09,861.16 1034.69,867.38 1066.33,833.821 1186.94,729.885 1116.28,797.762 1102.52,805.868 1308.87,626.371 1252.01,702.844 1243.59,706.898 1216.99,730.632 1169.48,758.938 1137.29,792.645 1087.36,839.252 1064.29,848.779 951.195,957.778 966.486,925.705 1076.12,806.176 957.306,929.555 1081.67,800.837 1094.51,802.464 1121.82,779.028 1100.22,808.963 1153.13,757.665 1009.27,891.512 1020.36,865.914 894.049,989.799 897.743,978.824 896.427,981.291 903.642,968.478 884.003,993.663 856.365,1027.79 887.11,997.914 883.06,994.312 967.145,909.806 1033.61,858.893 1013.16,892.548 1077.42,823.991 966.395,918.776 999.449,872.182 939.964,935.285 966.495,920.182 1013.33,887.267 1018.01,881.835 893.356,979.117 881.478,989.274 892.209,981.567 898.766,967.405 1044.28,818.16 1101.65,787.71 1085.29,817.442 1144.41,767.531 1172.03,755.551 1255.59,679.284 1342.49,602.866 1410.68,574.829 1387.82,613.66 1435.1,577.523 1459.08,582.658 1392.06,625.334 1386.58,615.591 1342.64,657.016 1268.7,720.057 1203.19,762.45 1167.27,781.795 1105.88,824.291 1119.75,798.547 1048.53,868.773 1071.46,829.809 1057.25,841.234 1057.52,846.991 1105.7,792.849 1076.91,829.32 1181.59,736.943 1117.43,811.585 1093.21,820.862 1108.31,801.57 1071.07,842.922 1046.64,855.572 1091.56,810.572 1136.75,767.605 1166.74,747.811 1189.08,729.563 1140.41,778.571 1135.58,785.163 1005.03,904.026 1036.9,859.105 1012.02,886.416 989.166,907.91 952.58,940.648 961.402,923.13 944.187,936.093 981.525,899.94 976.761,909.461 1067.3,825.618 1123.36,775.808 1138.04,784.678 1238.71,673.925 1243.45,690.161 1215.22,729.75 1277.09,668.766 1244.76,702.936 1305.41,663.698 1261.66,712.401 1341.03,633.383 1443.79,564.402 1475.47,542.617 1453.2,582.104 1436.96,583.223 1443.51,572.953 1439.44,582.224 1405.96,600.441 1353.33,646.984 1298.63,683.182 1340.14,642.068 1240.45,726.541 1131.89,818.378 1191.69,738.755 1169.21,759.781 1163.06,768.241 1201.57,733.937 1153.03,780.127 1079.37,834.824 1125.06,783.776 1104.67,809.784 1053.33,846.008 1121.66,774.062 1132.7,773.38 1174.08,741.711 1138,782.111 1083.14,829.365 1054.45,852.451 1050.85,845.543 1123.22,775.387 1131.29,778.816 1065.62,842.116 1055.97,841.181 1016.87,893.024 1017.73,889.82 1078.99,819.667 1032.92,874.041 1037.44,867.556 991.372,926.56 1074.06,850.11 1200.24,734.906 1170.02,756.876 1227.64,724.258 1167.55,756.362 1135.59,777.441 1218.9,694.659 1013.91,855.5 967.755,906.249 1103.62,797 1101.9,813.146 1206.37,718.67 1207.64,745.302 1192.04,751.103 1153.43,787.876 1070.76,855.348 1128.29,794.888 1195.76,743.054 1166.88,779.274 1154.18,791.748 1156.41,789.215 1165.8,764.765 1116.08,812.125 1082.34,827.281 1033,872.17 998.073,900.565 987.267,903.712 1019.6,868.553 981.431,911.656 943.751,948.529 943.373,931.193 968.953,904.017 983.272,893.636 932.228,958.27 956.923,933.212 1020.67,855.765 1025.13,852.79 1076.07,813.67 1076.33,817.729 1168.66,746.032 1241.68,694.194 1295.2,642.118 1328.64,643.211 1406.44,590.781 1475.48,527.641 1337.12,653.44 1423.58,575.048 1344.75,658.865 1390.28,605.004 1339.77,647.437 1340.09,639.308 1437.32,566.751 1359.51,621.902 1216.35,735.526 1241.65,704.66 1159.95,782.143 1080.99,839.03 1082.09,827.6 1052.05,860.399 1043.39,857.551 1091.05,802.396 1046.2,860.168 995.297,909.424 998.517,895.323 1009.78,878.456 1093.6,807.61 1118.57,789.677 1186.6,727.127 1063.79,847.592 1130.52,774.309 1132.62,780.761 1111.28,819.024 1056.11,856.845 963.869,946.9 928.029,972.017 891.898,992.214 880.752,993.128 947.611,919.231 966.514,904.439 961.971,911.788 978.868,908.223 1000.36,881.943 1090.58,820.503 1124.95,791.578 1093.12,823.775 1136.29,783.1 1213.35,717.791 1339.24,626.622 1369.74,609.446 1336.12,650.697 1283.65,697.68 1229.35,723.403 1193.46,752.384 1170.16,760.42 1225.1,708.693 1322.85,632.952 1434.24,545.435 1476.1,542.622 1510.26,525.303 1617,452.901 1767.87,355.68 1735.06,410.286 1588.41,524.711 1476.66,604.017 1392.29,655.867 1388.44,641.345 1295.44,703.812 1287.98,693.687 1280.46,695.622 1295.93,671.022 1259.84,702.675 1209.34,742.86 1254.82,688.411 1324.43,624.992 1437.82,538.266 1482.57,522.136 1394.69,608.055 1491.21,534.943 1423.69,591.825 1436.36,573.024 1396.11,614.71 1329.12,663.892 1278.45,697.444 1258.51,713.618 1229.1,728.311 1194.32,746.378 1092.31,838.953 1109.59,808.819 1084.16,828.003 1184.05,730.994 1163.65,756.202 1085.45,828.707 1065.84,836.802 1077.79,828.272 951.221,943.612 948.434,939.309 914.709,969.293 876.73,1005.04 889.502,984.65 869.442,1009.2 961.685,906.016 977.276,893.877 973.805,907.186 945.304,941.846 973.022,910.153 954.169,923.722 945.495,935.797 923.183,958.326 936.682,936.499 955.202,925.404 975.099,909.411 1039.5,854.705 1050.26,873.879 1095.26,825.837 1106.2,804.726 963.158,916.992 892.392,992.784 906.349,983.348 911.439,968.06 896.076,982.347 935.349,952.502 965.237,923.746 969.842,915.786 1034.81,849.848 1000.95,893.59 1062.31,834.229 1087.33,825.226 1065.59,827.368 1093.93,810.573 990.785,890.814 1062.52,823.508 1006.13,881.359 913.514,951.021 910.839,968.595 886.77,998.068 916.975,972.6 924.051,965.357 895.668,997.081 879.617,1007.15 883.265,1001.18 868.549,1009.09 920.348,953.611 952.932,907.281 928.882,948.382 912.994,954.188 914.265,953.915 903.825,966.211 940.569,938.694 978.454,910.67 995.136,905.451 961.287,929.287 978.505,905.623 1035.8,860.795 1118.51,816.73 1012.31,887.597 1020.26,872.294 937.399,956.253 968.373,909.912 1006.42,868.373 1021.52,854.267 993.387,903.665 991.454,910.116 1008.46,886.868 1057.82,850.501 967.861,929.62 984.034,898.214 911.843,960.789 948.521,928.019 927.873,951.304 994.789,912.257 965.8,926.16 996.61,883.573 1059.52,848.836 1049.23,843.907 1085.63,821.032 1040.25,858.496 1017.24,882.84 1045.56,851.435 965.474,922.998 915.359,970.507 942.045,943.533 1041.23,846.431 935.88,943.777 975.569,906.475 963.599,915.516 937.589,948.494 970.68,909.685 950.613,916.611 922.531,960.704 893.337,998.011 948.618,936.27 1032.2,846.251 1189.95,712.115 1205.07,717.294 1277.9,667.742 1279.71,694.767 1346.99,630.147 1398.25,590.045 1266.18,708.33 1230.21,722.29 1258.16,692.013 1201.48,748.429 1223.92,724.509 1123.74,805.795 1053.38,860.286 1033.38,872.604 985.879,907.39 994.229,888.663 1039.68,839.097 1006.46,876.155 1045.56,844.962 1041.86,853.061 1061.33,825.249 1053.46,832.499 1137.26,753.931 1249.09,656.156 1324.1,630.809 1265.88,697.2 1187.65,757.749 1152.33,786.087 1130.24,798.351 1083.49,828.289 1088.75,823.122 1067.32,839.837 1061.77,844.748 996.006,899.63 964.744,929.79 995.381,895.141 992.963,894.717 921.985,965.611 930.708,952.843 885.032,1001.3 872.597,1000.32 826.94,1050.68 853.898,1011.38 912.819,955.209 888.024,985.679 933.912,934.022 955.345,923.086 1003.23,869.222 1060.35,834.475 1068.92,826.56 1032.24,870.642 1010.37,894.438 1027.64,882.343 992.823,903.891 925.867,963.278 945.057,942.383 1077.51,817.804 1109.23,797.382 1103.06,813.672 1195.98,735.25 1192.15,750.665 1120.5,796.239 1070.18,840.151 1073.53,836.287 950.983,932.914 967.839,911.373 1035.06,841.161 1069.09,813.146 1175.33,717.039 1166.86,744.075 1150.62,770.069 1167.1,759.789 1148.72,784.811 1062.78,855.997 1022.86,886.445 1016.63,887.251 1069.7,824.147 1046.69,858.57 1085.43,816.951 1094.21,806.787 1080.28,835.555 1066.96,843.842 1020.53,886.149 948.366,961.136 921.186,965.333 894.781,995.958 993.447,878.705 994.345,890.762 1060.18,820.964 1040.85,838.41 1053.89,846.639 993.895,903.31 940.067,959.827 964.543,922.365 970.713,911.196 903.681,973.433 915.413,947.606 951.938,925.532 942.185,936.235 1010.35,880.619 1111.17,788.308 1133.19,771.56 1142.07,766.359 1174.47,733.175 1134.98,785.355 1129.82,800.544 1240.2,716.313 1218.68,737.245 1250.84,701.896 1364.98,606.552 1465.67,552.906 1456.98,560.783 1462.45,575.973 1395.34,627.131 1388,630.561 1415.03,608.262 1396.43,618.347 1398.53,608.394 1227.06,756.188 1244.74,720.646 1272.61,689.67 1124.37,815.515 1066.7,860.635 1081.78,827.25 1119.4,785.05 1208.05,696.929 1311.32,626.503 1343.52,616.4 1294.74,670.926 1283.6,677.236 1216.1,737.035 1216.66,719.263 1258.12,685.476 1357.6,609.843 1234.86,731.405 1190.31,754.802 1265.93,674.09 1317.84,643.75 1373.61,601.45 1254.12,718.846 1312.12,663.625 1238.88,729.264 1285.29,680.186 1309.21,653.428 1300.32,673.814 1199.81,737.213 1222.54,720.54 1144.4,799.144 1095.36,835.737 1005.88,910.814 963.213,942.553 987.814,900.559 1024.27,868.226 1008.59,881.838 993.854,896.589 908.523,978.786 926.824,953.617 953.934,922.268 928.237,951.458 963.014,920.248 987.657,896.086 924.994,954.121 879.964,1015.99 908.635,988.467 1024.18,887.107 975.216,924.635 939.201,950.239 953.76,935.184 989.777,888.705 1008.09,870.122 998.329,886.511 1044.69,856.682 1074.47,833.904 1053.49,844.06 1058.97,839.055 1064.21,835.054 1049.36,840.423 1113.96,808.396 1011.9,876.758 918.007,973.578 1019.62,863.784 949.648,933.074 905.666,965.022 1032.35,846.982 1077.18,815.827 1152.73,756.825 1171.11,749.79 1112.51,802.374 1259.46,671.599 1274.01,689.786 1346.42,638.048 1346.45,640.677 1270.88,704.563 1276.82,687.965 1144.52,805.322 1149.81,781.966 1132.89,790.414 1048.94,863.321 1065.05,844.995 1019.98,888.526 1078.96,816.907 1096.83,808.907 1115.53,794.758 1126.22,783.105 1233.67,699.338 1206.26,740.289 1086.65,845.003 1088.27,823.722 1146.27,761.696 1130.38,778.241 1218.33,695.429 1249.42,680.945 1342.71,608.275 1390.56,593.217 1249.49,719.08 1333.92,637.84 1211.77,738.716 1193.77,752.402 1139.05,796.687 1097.54,824.689 1139.48,781.838 1131.29,793.065 1192.38,740.716 1206.49,726.413 1165.91,762.201 1169.06,756.048 1140.56,793.789 1059.15,855.542 1038.44,870.268 998.956,903.093 1032.07,859.656 1082.73,809.437 1082.91,817.808 1134.14,778.252 1060.71,850.897 955.135,930.138 987.609,893.41 944.738,939.643 906.883,970.378 921.722,952.806 948.088,925.412 996.53,876.238 942.829,941.201 920.932,966.765 873.735,999.274 873.966,995.55 904.812,959.925 852.02,1024.09 852.54,1020.99 861.275,1001.12 812.667,1060.76 853.294,1011.27 962.844,901.762 1029.57,843.096 1038.98,850.547 1104.27,790.309 1123.75,789.58 1105.42,817.242 1082.12,834.937 1053.68,854.12 1091.69,807.259 1191.03,735.089 1224.34,715.462 1169.7,778.912 1154.04,783.602 1136.77,793.093 1176.8,739.985 1054.28,849.06 966.766,926.652 962.671,926.929 980.925,903.704 1005.1,867.252 1052.1,820.127 1053.84,834.059 1104.44,787.483 1147.31,750.374 1187.08,741.575 1237.72,709.799 1166.8,769.56 1122.59,809.179 1113.28,814.138 1250.72,707.946 1287.09,682.519 1402.33,621.972 1367.38,634.938 1315.81,663.03 1229.4,741.857 1207.49,748.038 1232.52,722.102 1219.7,733.589 1128.86,804.903 1298.84,632.146 1261.01,693.69 1283.59,676.466 1289.47,674.725 1291.63,674.319 1324.93,651.568 1259.9,687.378 1273.37,680.256 1345.86,617.478 1296.54,687.026 1190.09,770.312 1153.25,792.722 1111.31,826.575 1076.87,853.853 1046.21,875.003 1144.51,758.895 1190.18,734.397 1243.42,682.31 1216.28,721.156 1311.49,634.437 1382.87,590.756 1292.16,687.639 1242.92,727.072 1143.52,806.238 1074.71,857.903 1050.53,865.731 1010.31,894.099 983.323,912.499 989.959,902.051 1020.81,867.445 1086.77,810.11 1087.81,814.719 1029.6,877.579 1123.99,780.714 1179.92,740.225 1242.19,695.607 1201.45,743.86 1203.99,736.454 1248.03,693.908 1192.39,750.956 1162.56,783.421 1091.91,823.96 1115.22,783.159 1184.14,736.97 1169.25,750.413 1169.25,753.251 1252.1,669.011 1232.82,704.984 1233.58,706.097 1231.42,720.917 1212.44,720.136 1169.58,772.562 1234.96,707.286 1361.92,592.351 1426.96,557.393 1342.83,637.857 1359.84,635.168 1287.2,704.283 1262.06,707.791 1268.08,691.906 1327.89,639.55 1297.65,661.895 1258.32,710.951 1314.25,647 1388.61,583.287 1385.41,594.123 1505.43,531.87 1430.54,589.69 1389.2,624.187 1360.57,635.63 1347.38,643.545 1267.27,697.743 1191.89,759.472 1101.79,825.136 1087.74,828.267 1061.11,846.397 1087.2,817.5 1095.51,804.624 1188.55,725.61 1190.04,743.21 1218.37,726.304 1183.67,762.135 1092.67,828.796 967.081,948.86 969.077,922.832 985.345,908.964 1042.1,844.645 1096.67,801.241 1079.08,828.624 999.179,909.03 1002.82,898.217 941.967,954.974 984.867,902.327 1030.87,860.689 1110.38,790.468 1221.52,700.958 1217.42,725.148 1156.33,769.427 1226.56,713.311 1179.54,760.989 1151.85,781.347 1081.6,844.965 1063.9,847.291 1083.96,824.081 1050.93,853.421 941.513,941.889 973.095,907.498 999.353,890.065 1041.62,844.521 1149.69,751.313 1267.7,657.045 1317.37,642.891 1338.27,635.62 1275.45,694.659 1243.75,720.546 1233.94,729.803 1152.77,795.852 1081.01,851.788 1026.51,894.405 960.839,945.343 976.885,912.755 986.298,905.02 1031.37,851.757 1062.27,821.644 1037.13,855.3 1033.68,859.689 "/>
<path clip-path="url(#clip800)" d="M186.863 198.898 L550.897 198.898 L550.897 95.2176 L186.863 95.2176  Z" fill="#ffffff" fill-rule="evenodd" fill-opacity="1"/>
<polyline clip-path="url(#clip800)" style="stroke:#000000; stroke-linecap:round; stroke-linejoin:round; stroke-width:4; stroke-opacity:1; fill:none" points="186.863,198.898 550.897,198.898 550.897,95.2176 186.863,95.2176 186.863,198.898 "/>
<polyline clip-path="url(#clip800)" style="stroke:#009af9; stroke-linecap:round; stroke-linejoin:round; stroke-width:4; stroke-opacity:1; fill:none" points="211.758,147.058 361.13,147.058 "/>
<path clip-path="url(#clip800)" d="M396.651 128.366 Q393.549 133.69 392.044 138.898 Q390.54 144.106 390.54 149.453 Q390.54 154.801 392.044 160.055 Q393.572 165.287 396.651 170.588 L392.947 170.588 Q389.475 165.148 387.739 159.893 Q386.026 154.639 386.026 149.453 Q386.026 144.291 387.739 139.06 Q389.452 133.828 392.947 128.366 L396.651 128.366 Z" fill="#000000" fill-rule="nonzero" fill-opacity="1" /><path clip-path="url(#clip800)" d="M403.063 138.412 L423.294 138.412 L423.294 142.301 L407.276 160.935 L423.294 160.935 L423.294 164.338 L402.484 164.338 L402.484 160.449 L418.502 141.815 L403.063 141.815 L403.063 138.412 Z" fill="#000000" fill-rule="nonzero" fill-opacity="1" /><path clip-path="url(#clip800)" d="M430.887 158.458 L435.771 158.458 L435.771 162.439 L431.975 169.847 L428.988 169.847 L430.887 162.439 L430.887 158.458 Z" fill="#000000" fill-rule="nonzero" fill-opacity="1" /><path clip-path="url(#clip800)" d="M455.655 166.745 Q453.849 171.375 452.136 172.787 Q450.423 174.199 447.553 174.199 L444.15 174.199 L444.15 170.634 L446.65 170.634 Q448.41 170.634 449.382 169.8 Q450.354 168.967 451.535 165.865 L452.298 163.921 L441.812 138.412 L446.326 138.412 L454.428 158.689 L462.53 138.412 L467.044 138.412 L455.655 166.745 Z" fill="#000000" fill-rule="nonzero" fill-opacity="1" /><path clip-path="url(#clip800)" d="M474.011 158.458 L478.896 158.458 L478.896 162.439 L475.099 169.847 L472.113 169.847 L474.011 162.439 L474.011 158.458 Z" fill="#000000" fill-rule="nonzero" fill-opacity="1" /><path clip-path="url(#clip800)" d="M509.544 138.412 L500.169 151.027 L510.03 164.338 L505.007 164.338 L497.46 154.152 L489.914 164.338 L484.891 164.338 L494.96 150.773 L485.747 138.412 L490.77 138.412 L497.645 147.648 L504.52 138.412 L509.544 138.412 Z" fill="#000000" fill-rule="nonzero" fill-opacity="1" /><path clip-path="url(#clip800)" d="M515.377 128.366 L519.081 128.366 Q522.553 133.828 524.266 139.06 Q526.002 144.291 526.002 149.453 Q526.002 154.639 524.266 159.893 Q522.553 165.148 519.081 170.588 L515.377 170.588 Q518.456 165.287 519.96 160.055 Q521.488 154.801 521.488 149.453 Q521.488 144.106 519.96 138.898 Q518.456 133.69 515.377 128.366 Z" fill="#000000" fill-rule="nonzero" fill-opacity="1" /></svg>
