<?xml version="1.0" encoding="utf-8"?>
<svg xmlns="http://www.w3.org/2000/svg" xmlns:xlink="http://www.w3.org/1999/xlink" width="600" height="400" viewBox="0 0 2400 1600">
<defs>
  <clipPath id="clip720">
    <rect x="0" y="0" width="2400" height="1600"/>
  </clipPath>
</defs>
<path clip-path="url(#clip720)" d="M0 1600 L2400 1600 L2400 0 L0 0  Z" fill="#ffffff" fill-rule="evenodd" fill-opacity="1"/>
<defs>
  <clipPath id="clip721">
    <rect x="480" y="0" width="1681" height="1600"/>
  </clipPath>
</defs>
<path clip-path="url(#clip720)" d="M193.936 1423.18 L2352.76 1423.18 L2352.76 47.2441 L193.936 47.2441  Z" fill="#ffffff" fill-rule="evenodd" fill-opacity="1"/>
<defs>
  <clipPath id="clip722">
    <rect x="193" y="47" width="2160" height="1377"/>
  </clipPath>
</defs>
<polyline clip-path="url(#clip722)" style="stroke:#000000; stroke-linecap:round; stroke-linejoin:round; stroke-width:2; stroke-opacity:0.1; fill:none" points="193.936,1423.18 193.936,47.2441 "/>
<polyline clip-path="url(#clip722)" style="stroke:#000000; stroke-linecap:round; stroke-linejoin:round; stroke-width:2; stroke-opacity:0.1; fill:none" points="625.7,1423.18 625.7,47.2441 "/>
<polyline clip-path="url(#clip722)" style="stroke:#000000; stroke-linecap:round; stroke-linejoin:round; stroke-width:2; stroke-opacity:0.1; fill:none" points="1057.46,1423.18 1057.46,47.2441 "/>
<polyline clip-path="url(#clip722)" style="stroke:#000000; stroke-linecap:round; stroke-linejoin:round; stroke-width:2; stroke-opacity:0.1; fill:none" points="1489.23,1423.18 1489.23,47.2441 "/>
<polyline clip-path="url(#clip722)" style="stroke:#000000; stroke-linecap:round; stroke-linejoin:round; stroke-width:2; stroke-opacity:0.1; fill:none" points="1920.99,1423.18 1920.99,47.2441 "/>
<polyline clip-path="url(#clip722)" style="stroke:#000000; stroke-linecap:round; stroke-linejoin:round; stroke-width:2; stroke-opacity:0.1; fill:none" points="2352.76,1423.18 2352.76,47.2441 "/>
<polyline clip-path="url(#clip720)" style="stroke:#000000; stroke-linecap:round; stroke-linejoin:round; stroke-width:4; stroke-opacity:1; fill:none" points="193.936,1423.18 2352.76,1423.18 "/>
<polyline clip-path="url(#clip720)" style="stroke:#000000; stroke-linecap:round; stroke-linejoin:round; stroke-width:4; stroke-opacity:1; fill:none" points="193.936,1423.18 193.936,1404.28 "/>
<polyline clip-path="url(#clip720)" style="stroke:#000000; stroke-linecap:round; stroke-linejoin:round; stroke-width:4; stroke-opacity:1; fill:none" points="625.7,1423.18 625.7,1404.28 "/>
<polyline clip-path="url(#clip720)" style="stroke:#000000; stroke-linecap:round; stroke-linejoin:round; stroke-width:4; stroke-opacity:1; fill:none" points="1057.46,1423.18 1057.46,1404.28 "/>
<polyline clip-path="url(#clip720)" style="stroke:#000000; stroke-linecap:round; stroke-linejoin:round; stroke-width:4; stroke-opacity:1; fill:none" points="1489.23,1423.18 1489.23,1404.28 "/>
<polyline clip-path="url(#clip720)" style="stroke:#000000; stroke-linecap:round; stroke-linejoin:round; stroke-width:4; stroke-opacity:1; fill:none" points="1920.99,1423.18 1920.99,1404.28 "/>
<polyline clip-path="url(#clip720)" style="stroke:#000000; stroke-linecap:round; stroke-linejoin:round; stroke-width:4; stroke-opacity:1; fill:none" points="2352.76,1423.18 2352.76,1404.28 "/>
<path clip-path="url(#clip720)" d="M193.936 1454.1 Q190.325 1454.1 188.496 1457.66 Q186.691 1461.2 186.691 1468.33 Q186.691 1475.44 188.496 1479.01 Q190.325 1482.55 193.936 1482.55 Q197.57 1482.55 199.376 1479.01 Q201.204 1475.44 201.204 1468.33 Q201.204 1461.2 199.376 1457.66 Q197.57 1454.1 193.936 1454.1 M193.936 1450.39 Q199.746 1450.39 202.802 1455 Q205.88 1459.58 205.88 1468.33 Q205.88 1477.06 202.802 1481.67 Q199.746 1486.25 193.936 1486.25 Q188.126 1486.25 185.047 1481.67 Q181.992 1477.06 181.992 1468.33 Q181.992 1459.58 185.047 1455 Q188.126 1450.39 193.936 1450.39 Z" fill="#000000" fill-rule="nonzero" fill-opacity="1" /><path clip-path="url(#clip720)" d="M620.353 1481.64 L636.672 1481.64 L636.672 1485.58 L614.728 1485.58 L614.728 1481.64 Q617.39 1478.89 621.973 1474.26 Q626.58 1469.61 627.76 1468.27 Q630.006 1465.74 630.885 1464.01 Q631.788 1462.25 631.788 1460.56 Q631.788 1457.8 629.843 1456.07 Q627.922 1454.33 624.82 1454.33 Q622.621 1454.33 620.168 1455.09 Q617.737 1455.86 614.959 1457.41 L614.959 1452.69 Q617.783 1451.55 620.237 1450.97 Q622.691 1450.39 624.728 1450.39 Q630.098 1450.39 633.293 1453.08 Q636.487 1455.77 636.487 1460.26 Q636.487 1462.39 635.677 1464.31 Q634.89 1466.2 632.783 1468.8 Q632.205 1469.47 629.103 1472.69 Q626.001 1475.88 620.353 1481.64 Z" fill="#000000" fill-rule="nonzero" fill-opacity="1" /><path clip-path="url(#clip720)" d="M1060.47 1455.09 L1048.67 1473.54 L1060.47 1473.54 L1060.47 1455.09 M1059.25 1451.02 L1065.13 1451.02 L1065.13 1473.54 L1070.06 1473.54 L1070.06 1477.43 L1065.13 1477.43 L1065.13 1485.58 L1060.47 1485.58 L1060.47 1477.43 L1044.87 1477.43 L1044.87 1472.92 L1059.25 1451.02 Z" fill="#000000" fill-rule="nonzero" fill-opacity="1" /><path clip-path="url(#clip720)" d="M1489.63 1466.44 Q1486.48 1466.44 1484.63 1468.59 Q1482.8 1470.74 1482.8 1474.49 Q1482.8 1478.22 1484.63 1480.39 Q1486.48 1482.55 1489.63 1482.55 Q1492.78 1482.55 1494.61 1480.39 Q1496.46 1478.22 1496.46 1474.49 Q1496.46 1470.74 1494.61 1468.59 Q1492.78 1466.44 1489.63 1466.44 M1498.92 1451.78 L1498.92 1456.04 Q1497.16 1455.21 1495.35 1454.77 Q1493.57 1454.33 1491.81 1454.33 Q1487.18 1454.33 1484.73 1457.45 Q1482.3 1460.58 1481.95 1466.9 Q1483.31 1464.89 1485.37 1463.82 Q1487.43 1462.73 1489.91 1462.73 Q1495.12 1462.73 1498.13 1465.9 Q1501.16 1469.05 1501.16 1474.49 Q1501.16 1479.82 1498.01 1483.03 Q1494.86 1486.25 1489.63 1486.25 Q1483.64 1486.25 1480.47 1481.67 Q1477.3 1477.06 1477.3 1468.33 Q1477.3 1460.14 1481.18 1455.28 Q1485.07 1450.39 1491.62 1450.39 Q1493.38 1450.39 1495.17 1450.74 Q1496.97 1451.09 1498.92 1451.78 Z" fill="#000000" fill-rule="nonzero" fill-opacity="1" /><path clip-path="url(#clip720)" d="M1920.99 1469.17 Q1917.66 1469.17 1915.74 1470.95 Q1913.84 1472.73 1913.84 1475.86 Q1913.84 1478.98 1915.74 1480.77 Q1917.66 1482.55 1920.99 1482.55 Q1924.33 1482.55 1926.25 1480.77 Q1928.17 1478.96 1928.17 1475.86 Q1928.17 1472.73 1926.25 1470.95 Q1924.35 1469.17 1920.99 1469.17 M1916.32 1467.18 Q1913.31 1466.44 1911.62 1464.38 Q1909.95 1462.32 1909.95 1459.35 Q1909.95 1455.21 1912.89 1452.8 Q1915.85 1450.39 1920.99 1450.39 Q1926.15 1450.39 1929.09 1452.8 Q1932.03 1455.21 1932.03 1459.35 Q1932.03 1462.32 1930.34 1464.38 Q1928.68 1466.44 1925.69 1467.18 Q1929.07 1467.96 1930.95 1470.26 Q1932.84 1472.55 1932.84 1475.86 Q1932.84 1480.88 1929.77 1483.57 Q1926.71 1486.25 1920.99 1486.25 Q1915.27 1486.25 1912.2 1483.57 Q1909.14 1480.88 1909.14 1475.86 Q1909.14 1472.55 1911.04 1470.26 Q1912.94 1467.96 1916.32 1467.18 M1914.6 1459.79 Q1914.6 1462.48 1916.27 1463.98 Q1917.96 1465.49 1920.99 1465.49 Q1924 1465.49 1925.69 1463.98 Q1927.4 1462.48 1927.4 1459.79 Q1927.4 1457.11 1925.69 1455.6 Q1924 1454.1 1920.99 1454.1 Q1917.96 1454.1 1916.27 1455.6 Q1914.6 1457.11 1914.6 1459.79 Z" fill="#000000" fill-rule="nonzero" fill-opacity="1" /><path clip-path="url(#clip720)" d="M2327.44 1481.64 L2335.08 1481.64 L2335.08 1455.28 L2326.77 1456.95 L2326.77 1452.69 L2335.04 1451.02 L2339.71 1451.02 L2339.71 1481.64 L2347.35 1481.64 L2347.35 1485.58 L2327.44 1485.58 L2327.44 1481.64 Z" fill="#000000" fill-rule="nonzero" fill-opacity="1" /><path clip-path="url(#clip720)" d="M2366.8 1454.1 Q2363.18 1454.1 2361.36 1457.66 Q2359.55 1461.2 2359.55 1468.33 Q2359.55 1475.44 2361.36 1479.01 Q2363.18 1482.55 2366.8 1482.55 Q2370.43 1482.55 2372.23 1479.01 Q2374.06 1475.44 2374.06 1468.33 Q2374.06 1461.2 2372.23 1457.66 Q2370.43 1454.1 2366.8 1454.1 M2366.8 1450.39 Q2372.61 1450.39 2375.66 1455 Q2378.74 1459.58 2378.74 1468.33 Q2378.74 1477.06 2375.66 1481.67 Q2372.61 1486.25 2366.8 1486.25 Q2360.99 1486.25 2357.91 1481.67 Q2354.85 1477.06 2354.85 1468.33 Q2354.85 1459.58 2357.91 1455 Q2360.99 1450.39 2366.8 1450.39 Z" fill="#000000" fill-rule="nonzero" fill-opacity="1" /><path clip-path="url(#clip720)" d="M1272.41 1522.27 L1272.41 1532.4 L1284.47 1532.4 L1284.47 1536.95 L1272.41 1536.95 L1272.41 1556.3 Q1272.41 1560.66 1273.58 1561.9 Q1274.79 1563.14 1278.45 1563.14 L1284.47 1563.14 L1284.47 1568.04 L1278.45 1568.04 Q1271.67 1568.04 1269.1 1565.53 Q1266.52 1562.98 1266.52 1556.3 L1266.52 1536.95 L1262.22 1536.95 L1262.22 1532.4 L1266.52 1532.4 L1266.52 1522.27 L1272.41 1522.27 Z" fill="#000000" fill-rule="nonzero" fill-opacity="1" /><polyline clip-path="url(#clip722)" style="stroke:#000000; stroke-linecap:round; stroke-linejoin:round; stroke-width:2; stroke-opacity:0.1; fill:none" points="193.936,1387.26 2352.76,1387.26 "/>
<polyline clip-path="url(#clip722)" style="stroke:#000000; stroke-linecap:round; stroke-linejoin:round; stroke-width:2; stroke-opacity:0.1; fill:none" points="193.936,1069.95 2352.76,1069.95 "/>
<polyline clip-path="url(#clip722)" style="stroke:#000000; stroke-linecap:round; stroke-linejoin:round; stroke-width:2; stroke-opacity:0.1; fill:none" points="193.936,752.642 2352.76,752.642 "/>
<polyline clip-path="url(#clip722)" style="stroke:#000000; stroke-linecap:round; stroke-linejoin:round; stroke-width:2; stroke-opacity:0.1; fill:none" points="193.936,435.331 2352.76,435.331 "/>
<polyline clip-path="url(#clip722)" style="stroke:#000000; stroke-linecap:round; stroke-linejoin:round; stroke-width:2; stroke-opacity:0.1; fill:none" points="193.936,118.019 2352.76,118.019 "/>
<polyline clip-path="url(#clip720)" style="stroke:#000000; stroke-linecap:round; stroke-linejoin:round; stroke-width:4; stroke-opacity:1; fill:none" points="193.936,1423.18 193.936,47.2441 "/>
<polyline clip-path="url(#clip720)" style="stroke:#000000; stroke-linecap:round; stroke-linejoin:round; stroke-width:4; stroke-opacity:1; fill:none" points="193.936,1387.26 212.834,1387.26 "/>
<polyline clip-path="url(#clip720)" style="stroke:#000000; stroke-linecap:round; stroke-linejoin:round; stroke-width:4; stroke-opacity:1; fill:none" points="193.936,1069.95 212.834,1069.95 "/>
<polyline clip-path="url(#clip720)" style="stroke:#000000; stroke-linecap:round; stroke-linejoin:round; stroke-width:4; stroke-opacity:1; fill:none" points="193.936,752.642 212.834,752.642 "/>
<polyline clip-path="url(#clip720)" style="stroke:#000000; stroke-linecap:round; stroke-linejoin:round; stroke-width:4; stroke-opacity:1; fill:none" points="193.936,435.331 212.834,435.331 "/>
<polyline clip-path="url(#clip720)" style="stroke:#000000; stroke-linecap:round; stroke-linejoin:round; stroke-width:4; stroke-opacity:1; fill:none" points="193.936,118.019 212.834,118.019 "/>
<path clip-path="url(#clip720)" d="M50.9921 1387.72 L80.6679 1387.72 L80.6679 1391.65 L50.9921 1391.65 L50.9921 1387.72 Z" fill="#000000" fill-rule="nonzero" fill-opacity="1" /><path clip-path="url(#clip720)" d="M91.5706 1400.61 L99.2095 1400.61 L99.2095 1374.24 L90.8993 1375.91 L90.8993 1371.65 L99.1632 1369.98 L103.839 1369.98 L103.839 1400.61 L111.478 1400.61 L111.478 1404.54 L91.5706 1404.54 L91.5706 1400.61 Z" fill="#000000" fill-rule="nonzero" fill-opacity="1" /><path clip-path="url(#clip720)" d="M120.922 1398.66 L125.807 1398.66 L125.807 1404.54 L120.922 1404.54 L120.922 1398.66 Z" fill="#000000" fill-rule="nonzero" fill-opacity="1" /><path clip-path="url(#clip720)" d="M145.992 1373.06 Q142.381 1373.06 140.552 1376.63 Q138.746 1380.17 138.746 1387.3 Q138.746 1394.41 140.552 1397.97 Q142.381 1401.51 145.992 1401.51 Q149.626 1401.51 151.431 1397.97 Q153.26 1394.41 153.26 1387.3 Q153.26 1380.17 151.431 1376.63 Q149.626 1373.06 145.992 1373.06 M145.992 1369.36 Q151.802 1369.36 154.857 1373.97 Q157.936 1378.55 157.936 1387.3 Q157.936 1396.03 154.857 1400.63 Q151.802 1405.22 145.992 1405.22 Q140.181 1405.22 137.103 1400.63 Q134.047 1396.03 134.047 1387.3 Q134.047 1378.55 137.103 1373.97 Q140.181 1369.36 145.992 1369.36 Z" fill="#000000" fill-rule="nonzero" fill-opacity="1" /><path clip-path="url(#clip720)" d="M51.9875 1070.4 L81.6633 1070.4 L81.6633 1074.34 L51.9875 1074.34 L51.9875 1070.4 Z" fill="#000000" fill-rule="nonzero" fill-opacity="1" /><path clip-path="url(#clip720)" d="M101.756 1055.75 Q98.1447 1055.75 96.316 1059.32 Q94.5104 1062.86 94.5104 1069.99 Q94.5104 1077.09 96.316 1080.66 Q98.1447 1084.2 101.756 1084.2 Q105.39 1084.2 107.196 1080.66 Q109.024 1077.09 109.024 1069.99 Q109.024 1062.86 107.196 1059.32 Q105.39 1055.75 101.756 1055.75 M101.756 1052.05 Q107.566 1052.05 110.621 1056.65 Q113.7 1061.24 113.7 1069.99 Q113.7 1078.71 110.621 1083.32 Q107.566 1087.9 101.756 1087.9 Q95.9456 1087.9 92.8669 1083.32 Q89.8114 1078.71 89.8114 1069.99 Q89.8114 1061.24 92.8669 1056.65 Q95.9456 1052.05 101.756 1052.05 Z" fill="#000000" fill-rule="nonzero" fill-opacity="1" /><path clip-path="url(#clip720)" d="M121.918 1081.35 L126.802 1081.35 L126.802 1087.23 L121.918 1087.23 L121.918 1081.35 Z" fill="#000000" fill-rule="nonzero" fill-opacity="1" /><path clip-path="url(#clip720)" d="M137.033 1052.67 L155.39 1052.67 L155.39 1056.61 L141.316 1056.61 L141.316 1065.08 Q142.334 1064.73 143.353 1064.57 Q144.371 1064.39 145.39 1064.39 Q151.177 1064.39 154.556 1067.56 Q157.936 1070.73 157.936 1076.15 Q157.936 1081.72 154.464 1084.83 Q150.992 1087.9 144.672 1087.9 Q142.496 1087.9 140.228 1087.53 Q137.982 1087.16 135.575 1086.42 L135.575 1081.72 Q137.658 1082.86 139.881 1083.41 Q142.103 1083.97 144.58 1083.97 Q148.584 1083.97 150.922 1081.86 Q153.26 1079.76 153.26 1076.15 Q153.26 1072.53 150.922 1070.43 Q148.584 1068.32 144.58 1068.32 Q142.705 1068.32 140.83 1068.74 Q138.978 1069.15 137.033 1070.03 L137.033 1052.67 Z" fill="#000000" fill-rule="nonzero" fill-opacity="1" /><path clip-path="url(#clip720)" d="M100.76 738.441 Q97.1493 738.441 95.3206 742.005 Q93.515 745.547 93.515 752.677 Q93.515 759.783 95.3206 763.348 Q97.1493 766.889 100.76 766.889 Q104.395 766.889 106.2 763.348 Q108.029 759.783 108.029 752.677 Q108.029 745.547 106.2 742.005 Q104.395 738.441 100.76 738.441 M100.76 734.737 Q106.571 734.737 109.626 739.343 Q112.705 743.927 112.705 752.677 Q112.705 761.403 109.626 766.01 Q106.571 770.593 100.76 770.593 Q94.9502 770.593 91.8715 766.01 Q88.816 761.403 88.816 752.677 Q88.816 743.927 91.8715 739.343 Q94.9502 734.737 100.76 734.737 Z" fill="#000000" fill-rule="nonzero" fill-opacity="1" /><path clip-path="url(#clip720)" d="M120.922 764.042 L125.807 764.042 L125.807 769.922 L120.922 769.922 L120.922 764.042 Z" fill="#000000" fill-rule="nonzero" fill-opacity="1" /><path clip-path="url(#clip720)" d="M145.992 738.441 Q142.381 738.441 140.552 742.005 Q138.746 745.547 138.746 752.677 Q138.746 759.783 140.552 763.348 Q142.381 766.889 145.992 766.889 Q149.626 766.889 151.431 763.348 Q153.26 759.783 153.26 752.677 Q153.26 745.547 151.431 742.005 Q149.626 738.441 145.992 738.441 M145.992 734.737 Q151.802 734.737 154.857 739.343 Q157.936 743.927 157.936 752.677 Q157.936 761.403 154.857 766.01 Q151.802 770.593 145.992 770.593 Q140.181 770.593 137.103 766.01 Q134.047 761.403 134.047 752.677 Q134.047 743.927 137.103 739.343 Q140.181 734.737 145.992 734.737 Z" fill="#000000" fill-rule="nonzero" fill-opacity="1" /><path clip-path="url(#clip720)" d="M101.756 421.129 Q98.1447 421.129 96.316 424.694 Q94.5104 428.236 94.5104 435.365 Q94.5104 442.472 96.316 446.036 Q98.1447 449.578 101.756 449.578 Q105.39 449.578 107.196 446.036 Q109.024 442.472 109.024 435.365 Q109.024 428.236 107.196 424.694 Q105.39 421.129 101.756 421.129 M101.756 417.426 Q107.566 417.426 110.621 422.032 Q113.7 426.615 113.7 435.365 Q113.7 444.092 110.621 448.699 Q107.566 453.282 101.756 453.282 Q95.9456 453.282 92.8669 448.699 Q89.8114 444.092 89.8114 435.365 Q89.8114 426.615 92.8669 422.032 Q95.9456 417.426 101.756 417.426 Z" fill="#000000" fill-rule="nonzero" fill-opacity="1" /><path clip-path="url(#clip720)" d="M121.918 446.731 L126.802 446.731 L126.802 452.611 L121.918 452.611 L121.918 446.731 Z" fill="#000000" fill-rule="nonzero" fill-opacity="1" /><path clip-path="url(#clip720)" d="M137.033 418.051 L155.39 418.051 L155.39 421.986 L141.316 421.986 L141.316 430.458 Q142.334 430.111 143.353 429.949 Q144.371 429.763 145.39 429.763 Q151.177 429.763 154.556 432.935 Q157.936 436.106 157.936 441.523 Q157.936 447.101 154.464 450.203 Q150.992 453.282 144.672 453.282 Q142.496 453.282 140.228 452.911 Q137.982 452.541 135.575 451.8 L135.575 447.101 Q137.658 448.236 139.881 448.791 Q142.103 449.347 144.58 449.347 Q148.584 449.347 150.922 447.24 Q153.26 445.134 153.26 441.523 Q153.26 437.912 150.922 435.805 Q148.584 433.699 144.58 433.699 Q142.705 433.699 140.83 434.115 Q138.978 434.532 137.033 435.412 L137.033 418.051 Z" fill="#000000" fill-rule="nonzero" fill-opacity="1" /><path clip-path="url(#clip720)" d="M91.5706 131.364 L99.2095 131.364 L99.2095 104.998 L90.8993 106.665 L90.8993 102.406 L99.1632 100.739 L103.839 100.739 L103.839 131.364 L111.478 131.364 L111.478 135.299 L91.5706 135.299 L91.5706 131.364 Z" fill="#000000" fill-rule="nonzero" fill-opacity="1" /><path clip-path="url(#clip720)" d="M120.922 129.42 L125.807 129.42 L125.807 135.299 L120.922 135.299 L120.922 129.42 Z" fill="#000000" fill-rule="nonzero" fill-opacity="1" /><path clip-path="url(#clip720)" d="M145.992 103.818 Q142.381 103.818 140.552 107.383 Q138.746 110.924 138.746 118.054 Q138.746 125.16 140.552 128.725 Q142.381 132.267 145.992 132.267 Q149.626 132.267 151.431 128.725 Q153.26 125.16 153.26 118.054 Q153.26 110.924 151.431 107.383 Q149.626 103.818 145.992 103.818 M145.992 100.114 Q151.802 100.114 154.857 104.721 Q157.936 109.304 157.936 118.054 Q157.936 126.781 154.857 131.387 Q151.802 135.97 145.992 135.97 Q140.181 135.97 137.103 131.387 Q134.047 126.781 134.047 118.054 Q134.047 109.304 137.103 104.721 Q140.181 100.114 145.992 100.114 Z" fill="#000000" fill-rule="nonzero" fill-opacity="1" /><polyline clip-path="url(#clip722)" style="stroke:#009af9; stroke-linecap:round; stroke-linejoin:round; stroke-width:4; stroke-opacity:1; fill:none" points="193.936,752.642 196.097,750.485 198.258,748.369 200.419,746.307 202.58,744.272 204.741,742.242 206.902,740.19 209.063,738.121 211.224,736.18 213.385,734.294 215.546,732.451 217.707,730.642 219.868,728.856 222.029,727.083 224.19,725.311 226.351,723.532 228.512,721.733 230.673,719.905 232.834,718.038 234.995,716.176 237.156,714.523 239.317,712.918 241.478,711.355 243.639,709.829 245.8,708.332 247.961,706.859 250.122,705.404 252.282,703.961 254.443,702.523 256.604,701.085 258.765,699.64 260.926,698.183 263.087,696.708 265.248,695.208 267.409,693.676 269.57,692.109 271.731,690.529 273.892,689.209 276.053,687.927 278.214,686.682 280.375,685.468 282.536,684.282 284.697,683.12 286.858,681.98 289.019,680.856 291.18,679.747 293.341,678.647 295.502,677.553 297.663,676.462 299.824,675.369 301.985,674.272 304.146,673.166 306.307,672.049 308.468,670.915 310.629,669.762 312.79,668.586 314.951,667.384 317.112,666.15 319.273,664.908 321.434,663.923 323.595,662.967 325.756,662.037 327.917,661.133 330.078,660.251 332.239,659.391 334.4,658.548 336.561,657.723 338.722,656.911 340.883,656.113 343.044,655.324 345.205,654.544 347.366,653.77 349.527,653 351.688,652.232 353.849,651.464 356.01,650.694 358.171,649.919 360.332,649.139 362.493,648.35 364.653,647.55 366.814,646.738 368.975,645.912 371.136,645.069 373.297,644.207 375.458,643.324 377.619,642.418 379.78,641.499 381.941,640.711 384.102,639.759 386.263,638.666 388.424,637.452 390.585,636.14 392.746,634.751 394.907,633.308 397.068,631.832 399.229,630.345 401.39,628.869 403.551,627.425 405.712,626.037 407.873,624.725 410.034,623.511 412.195,622.417 414.356,621.465 416.517,620.678 418.678,619.001 420.839,617.152 423,615.346 425.161,613.57 427.322,611.811 429.483,610.055 431.644,608.291 433.805,606.506 435.966,604.686 438.127,602.857 440.288,601.2 442.449,599.589 444.61,598.023 446.771,596.5 448.932,595.016 451.093,593.571 453.254,592.161 455.415,590.785 457.576,589.44 459.737,588.124 461.898,586.835 464.059,585.57 466.22,584.328 468.381,583.105 470.542,581.9 472.703,580.711 474.864,579.535 477.024,578.37 479.185,577.213 481.346,576.063 483.507,574.917 485.668,573.773 487.829,572.629 489.99,571.482 492.151,570.331 494.312,569.172 496.473,568.004 498.634,566.825 500.795,565.631 502.956,564.422 505.117,563.194 507.278,561.946 509.439,560.675 511.6,559.379 513.761,558.056 515.922,556.703 518.083,555.318 520.244,553.899 522.405,552.444 524.566,550.951 526.727,549.592 528.888,548.636 531.049,547.708 533.21,546.805 535.371,545.926 537.532,545.07 539.693,544.235 541.854,543.418 544.015,542.619 546.176,541.835 548.337,541.064 550.498,540.306 552.659,539.557 554.82,538.816 556.981,538.082 559.142,537.353 561.303,536.626 563.464,535.901 565.625,535.175 567.786,534.447 569.947,533.714 572.108,532.976 574.269,532.23 576.43,531.474 578.591,530.707 580.752,529.927 582.913,529.132 585.074,528.321 587.235,527.491 589.396,526.641 591.556,525.769 593.717,524.874 595.878,524.178 598.039,523.558 600.2,522.952 602.361,522.353 604.522,521.757 606.683,521.159 608.844,520.553 611.005,519.935 613.166,519.044 615.327,517.104 617.488,514.314 619.649,510.957 621.81,507.315 623.971,503.67 626.132,500.306 628.293,497.503 630.454,495.545 632.615,493.265 634.776,487.931 636.937,482.674 639.098,477.407 641.259,472.1 643.42,467.046 645.581,462.139 647.742,457.37 649.903,452.728 652.064,448.205 654.225,443.789 656.386,439.471 658.547,435.241 660.708,431.089 662.869,427.005 665.03,422.979 667.191,419.002 669.352,415.063 671.513,411.152 673.674,407.26 675.835,403.376 677.996,399.49 680.157,395.594 682.318,391.676 684.479,387.726 686.64,383.736 688.801,379.694 690.962,375.591 693.123,371.417 695.284,367.162 697.445,362.817 699.606,358.37 701.767,353.813 703.927,349.134 706.088,344.77 708.249,341.39 710.41,338.109 712.571,334.919 714.732,331.813 716.893,328.783 719.054,325.822 721.215,322.924 723.376,320.079 725.537,317.281 727.698,314.522 729.859,311.796 732.02,309.094 734.181,306.409 736.342,303.734 738.503,301.061 740.664,298.384 742.825,295.693 744.986,292.983 747.147,290.246 749.308,287.473 751.469,284.659 753.63,281.795 755.791,278.874 757.952,275.889 760.113,272.831 762.274,269.695 764.435,266.527 766.596,264.16 768.757,261.864 770.918,259.631 773.079,257.456 775.24,255.333 777.401,253.254 779.562,251.214 781.723,249.205 783.884,247.223 786.045,245.26 788.206,243.31 790.367,241.367 792.528,239.425 794.689,237.476 796.85,235.515 799.011,233.535 801.172,231.53 803.333,229.494 805.494,227.42 807.655,225.302 809.816,223.133 811.977,220.907 814.138,218.879 816.298,217.314 818.459,215.966 820.62,214.822 822.781,213.87 824.942,213.096 827.103,212.488 829.264,212.033 831.425,211.718 833.586,211.531 835.747,211.459 837.908,211.49 840.069,211.61 842.23,211.807 844.391,212.069 846.552,212.382 848.713,212.733 850.874,213.112 853.035,213.503 855.196,213.895 857.357,214.276 859.518,214.631 861.679,214.95 863.84,215.218 866.001,215.424 868.162,215.554 870.323,215.597 872.484,215.538 874.645,215.366 876.806,215.068 878.967,214.63 881.128,214.042 883.289,213.288 885.45,212.358 887.611,211.239 889.772,209.916 891.933,208.469 894.094,209.718 896.255,210.93 898.416,212.108 900.577,213.259 902.738,214.385 904.899,215.492 907.06,216.583 909.221,217.663 911.382,218.736 913.543,219.807 915.704,220.88 917.865,221.959 920.026,223.049 922.187,224.154 924.348,225.278 926.509,226.425 928.669,227.601 930.83,228.782 932.991,229.763 935.152,230.715 937.313,231.641 939.474,232.542 941.635,233.42 943.796,234.277 945.957,235.115 948.118,235.936 950.279,236.742 952.44,237.535 954.601,238.317 956.762,239.09 958.923,239.856 961.084,240.616 963.245,241.374 965.406,242.13 967.567,242.887 969.728,243.647 971.889,244.412 974.05,245.183 976.211,245.963 978.372,246.754 980.533,247.557 982.694,248.375 984.855,249.209 987.016,250.062 989.177,250.935 991.338,251.831 993.499,252.752 995.66,253.458 997.821,254.107 999.982,254.738 1002.14,255.352 1004.3,255.95 1006.46,256.535 1008.63,257.107 1010.79,257.669 1012.95,258.221 1015.11,258.766 1017.27,259.304 1019.43,259.838 1021.59,260.369 1023.75,260.899 1025.91,261.429 1028.07,261.96 1030.24,262.494 1032.4,263.034 1034.56,263.579 1036.72,264.132 1038.88,264.695 1041.04,265.268 1043.2,265.854 1045.36,266.454 1047.52,267.069 1049.68,267.69 1051.85,268.882 1054.01,271.185 1056.17,274.554 1058.33,278.946 1060.49,284.314 1062.65,290.614 1064.81,297.8 1066.97,305.828 1069.13,314.653 1071.29,324.229 1073.46,334.512 1075.62,345.457 1077.78,357.018 1079.94,369.15 1082.1,381.81 1084.26,394.95 1086.42,408.527 1088.58,422.496 1090.74,436.81 1092.9,451.427 1095.07,466.299 1097.23,481.383 1099.39,496.634 1101.55,512.005 1103.71,527.453 1105.87,542.933 1108.03,558.398 1110.19,573.805 1112.35,589.108 1114.51,604.262 1116.67,618.774 1118.84,628.811 1121,638.554 1123.16,648.048 1125.32,657.336 1127.48,666.462 1129.64,675.467 1131.8,684.397 1133.96,693.293 1136.12,702.2 1138.28,711.16 1140.45,720.217 1142.61,729.414 1144.77,738.794 1146.93,748.402 1149.09,757.645 1151.25,765.832 1153.41,773.784 1155.57,781.514 1157.73,789.037 1159.89,796.364 1162.06,803.51 1164.22,810.487 1166.38,817.309 1168.54,823.988 1170.7,830.538 1172.86,836.973 1175.02,843.304 1177.18,849.546 1179.34,855.712 1181.5,861.814 1183.67,867.866 1185.83,873.881 1187.99,879.873 1190.15,885.854 1192.31,891.838 1194.47,897.837 1196.63,903.865 1198.79,909.936 1200.95,916.062 1203.11,922.257 1205.28,928.533 1207.44,934.904 1209.6,941.383 1211.76,947.983 1213.92,954.718 1216.08,961.601 1218.24,968.644 1220.4,975.861 1222.56,983.265 1224.72,990.869 1226.88,996.678 1229.05,1001.7 1231.21,1006.59 1233.37,1011.35 1235.53,1016 1237.69,1020.55 1239.85,1025.03 1242.01,1029.45 1244.17,1033.83 1246.33,1038.17 1248.49,1042.51 1250.66,1046.85 1252.82,1051.2 1254.98,1055.6 1257.14,1060.04 1259.3,1064.56 1261.46,1069.16 1263.62,1073.86 1265.78,1078.67 1267.94,1083.5 1270.1,1086.64 1272.27,1088.4 1274.43,1088.85 1276.59,1088.05 1278.75,1086.07 1280.91,1082.98 1283.07,1078.84 1285.23,1073.71 1287.39,1067.68 1289.55,1060.79 1291.71,1053.11 1293.88,1044.72 1296.04,1035.68 1298.2,1026.05 1300.36,1015.91 1302.52,1005.3 1304.68,994.316 1306.84,983.006 1309,971.441 1311.16,959.686 1313.32,947.808 1315.49,935.874 1317.65,923.948 1319.81,912.097 1321.97,900.387 1324.13,888.885 1326.29,877.655 1328.45,866.765 1330.61,858.898 1332.77,851.718 1334.93,844.731 1337.09,837.906 1339.26,831.213 1341.42,824.622 1343.58,818.103 1345.74,811.625 1347.9,805.159 1350.06,798.675 1352.22,792.143 1354.38,785.531 1356.54,778.811 1358.7,771.953 1360.87,764.925 1363.03,758.24 1365.19,752.313 1367.35,746.556 1369.51,740.959 1371.67,735.512 1373.83,730.206 1375.99,725.032 1378.15,719.979 1380.31,715.039 1382.48,710.202 1384.64,705.458 1386.8,700.797 1388.96,696.211 1391.12,691.69 1393.28,687.223 1395.44,682.802 1397.6,678.417 1399.76,674.059 1401.92,669.717 1404.09,665.383 1406.25,661.047 1408.41,656.699 1410.57,652.33 1412.73,647.93 1414.89,643.49 1417.05,639 1419.21,634.451 1421.37,629.832 1423.53,625.136 1425.7,620.351 1427.86,615.469 1430.02,610.48 1432.18,605.374 1434.34,600.142 1436.5,594.774 1438.66,589.261 1440.82,585.062 1442.98,581.422 1445.14,577.883 1447.3,574.433 1449.47,571.061 1451.63,567.754 1453.79,564.499 1455.95,561.283 1458.11,558.096 1460.27,554.924 1462.43,551.755 1464.59,548.577 1466.75,545.377 1468.91,542.143 1471.08,538.862 1473.24,535.523 1475.4,532.113 1477.56,528.619 1479.72,525.082 1481.88,522.173 1484.04,519.267 1486.2,520.975 1488.36,526.655 1490.52,528.935 1492.69,538.903 1494.85,549.947 1497.01,560.639 1499.17,571.043 1501.33,581.21 1503.49,591.191 1505.65,601.04 1507.81,610.806 1509.97,620.543 1512.13,630.302 1514.3,640.134 1516.46,650.092 1518.62,660.227 1520.78,670.591 1522.94,680.94 1525.1,689.988 1527.26,698.771 1529.42,707.322 1531.58,715.671 1533.74,723.851 1535.91,731.894 1538.07,739.831 1540.23,747.695 1542.39,755.518 1544.55,763.331 1546.71,771.167 1548.87,779.057 1551.03,787.033 1553.19,795.127 1555.35,803.372 1557.51,811.798 1559.68,820.439 1561.84,828.541 1564,835.625 1566.16,842.505 1568.32,849.205 1570.48,855.749 1572.64,862.162 1574.8,868.465 1576.96,874.684 1579.12,880.841 1581.29,886.962 1583.45,893.068 1585.61,899.185 1587.77,905.335 1589.93,911.543 1592.09,917.832 1594.25,924.225 1596.41,930.748 1598.57,937.422 1600.73,944.273 1602.9,950.287 1605.06,955.765 1607.22,961.085 1609.38,966.261 1611.54,971.304 1613.7,976.227 1615.86,981.042 1618.02,985.761 1620.18,990.396 1622.34,994.96 1624.51,999.465 1626.67,1003.92 1628.83,1008.35 1630.99,1012.75 1633.15,1017.14 1635.31,1021.53 1637.47,1025.94 1639.63,1030.37 1641.79,1034.85 1643.95,1039.37 1646.12,1043.96 1648.28,1048.62 1650.44,1053.38 1652.6,1058.23 1654.76,1063.19 1656.92,1068.28 1659.08,1073.51 1661.24,1077.93 1663.4,1081.76 1665.56,1085.49 1667.72,1089.16 1669.89,1092.79 1672.05,1096.42 1674.21,1100.06 1676.37,1103.74 1678.53,1107.5 1680.69,1111.21 1682.85,1113.95 1685.01,1115.83 1687.17,1117 1689.33,1117.63 1691.5,1117.87 1693.66,1117.89 1695.82,1117.85 1697.98,1117.9 1700.14,1118.21 1702.3,1118.93 1704.46,1120.24 1706.62,1122.27 1708.78,1125 1710.94,1123.12 1713.11,1121.29 1715.27,1119.48 1717.43,1117.66 1719.59,1115.83 1721.75,1113.99 1723.91,1112.26 1726.07,1110.58 1728.23,1108.95 1730.39,1107.36 1732.55,1105.81 1734.72,1104.31 1736.88,1102.83 1739.04,1101.4 1741.2,1099.99 1743.36,1098.62 1745.52,1097.27 1747.68,1095.95 1749.84,1094.65 1752,1093.37 1754.16,1092.1 1756.33,1090.85 1758.49,1089.62 1760.65,1088.39 1762.81,1087.18 1764.97,1085.96 1767.13,1084.75 1769.29,1083.55 1771.45,1082.33 1773.61,1081.12 1775.77,1079.9 1777.93,1078.67 1780.1,1077.42 1782.26,1076.17 1784.42,1074.89 1786.58,1073.6 1788.74,1072.29 1790.9,1070.95 1793.06,1069.59 1795.22,1068.19 1797.38,1066.77 1799.54,1065.31 1801.71,1063.82 1803.87,1062.29 1806.03,1060.71 1808.19,1059.37 1810.35,1058.36 1812.51,1057.38 1814.67,1056.43 1816.83,1055.5 1818.99,1054.59 1821.15,1053.71 1823.32,1052.85 1825.48,1052.01 1827.64,1051.18 1829.8,1050.37 1831.96,1049.57 1834.12,1048.78 1836.28,1048.01 1838.44,1047.24 1840.6,1046.47 1842.76,1045.72 1844.93,1044.96 1847.09,1044.21 1849.25,1043.45 1851.41,1042.7 1853.57,1041.94 1855.73,1041.17 1857.89,1040.4 1860.05,1039.62 1862.21,1038.82 1864.37,1038.02 1866.54,1037.19 1868.7,1036.36 1870.86,1035.5 1873.02,1034.63 1875.18,1033.73 1877.34,1032.81 1879.5,1031.87 1881.66,1031.12 1883.82,1030.44 1885.98,1029.74 1888.15,1029.03 1890.31,1028.31 1892.47,1027.57 1894.63,1026.83 1896.79,1026.07 1898.95,1025.3 1901.11,1024.52 1903.27,1023.74 1905.43,1022.94 1907.59,1022.14 1909.75,1021.33 1911.92,1020.51 1914.08,1019.69 1916.24,1018.87 1918.4,1018.04 1920.56,1017.21 1922.72,1016.37 1924.88,1015.54 1927.04,1014.7 1929.2,1013.86 1931.36,1013.03 1933.53,1012.19 1935.69,1011.36 1937.85,1010.53 1940.01,1009.7 1942.17,1008.88 1944.33,1008.06 1946.49,1007.24 1948.65,1006.44 1950.81,1005.64 1952.97,1004.84 1955.14,1004.06 1957.3,1003.29 1959.46,1002.52 1961.62,1001.76 1963.78,1001.02 1965.94,1000.29 1968.1,999.57 1970.26,998.864 1972.42,998.172 1974.58,997.494 1976.75,996.833 1978.91,996.187 1981.07,995.559 1983.23,994.948 1985.39,994.166 1987.55,993.275 1989.71,992.409 1991.87,991.567 1994.03,990.748 1996.19,989.948 1998.36,989.167 2000.52,988.403 2002.68,987.653 2004.84,986.916 2007,986.191 2009.16,985.474 2011.32,984.766 2013.48,984.062 2015.64,983.363 2017.8,982.666 2019.96,981.968 2022.13,981.269 2024.29,980.567 2026.45,979.86 2028.61,979.145 2030.77,978.421 2032.93,977.687 2035.09,976.94 2037.25,976.179 2039.41,975.401 2041.57,974.606 2043.74,973.79 2045.9,972.953 2048.06,972.189 2050.22,971.581 2052.38,970.991 2054.54,970.417 2056.7,969.858 2058.86,969.315 2061.02,968.784 2063.18,968.267 2065.35,967.761 2067.51,967.266 2069.67,966.78 2071.83,966.304 2073.99,965.835 2076.15,965.374 2078.31,964.918 2080.47,964.468 2082.63,964.021 2084.79,963.578 2086.96,963.137 2089.12,962.698 2091.28,962.259 2093.44,961.819 2095.6,961.378 2097.76,960.934 2099.92,960.487 2102.08,960.035 2104.24,959.579 2106.4,959.116 2108.57,958.645 2110.73,958.167 2112.89,957.68 2115.05,957.182 2117.21,956.674 2119.37,956.154 2121.53,955.621 2123.69,955.074 2125.85,954.512 2128.01,954.133 2130.17,954.097 2132.34,954.345 2134.5,954.869 2136.66,955.658 2138.82,956.702 2140.98,957.99 2143.14,959.512 2145.3,961.258 2147.46,963.218 2149.62,965.381 2151.78,967.738 2153.95,970.277 2156.11,972.989 2158.27,975.864 2160.43,978.891 2162.59,982.059 2164.75,985.36 2166.91,988.782 2169.07,992.315 2171.23,995.949 2173.39,999.674 2175.56,1003.48 2177.72,1007.35 2179.88,1011.29 2182.04,1015.27 2184.2,1019.3 2186.36,1023.35 2188.52,1027.42 2190.68,1031.51 2192.84,1035.59 2195,1039.65 2197.17,1043.7 2199.33,1047.71 2201.49,1051.68 2203.65,1055.27 2205.81,1057.75 2207.97,1060.15 2210.13,1062.49 2212.29,1064.77 2214.45,1067 2216.61,1069.19 2218.78,1071.34 2220.94,1073.47 2223.1,1075.57 2225.26,1077.66 2227.42,1079.74 2229.58,1081.83 2231.74,1083.93 2233.9,1086.04 2236.06,1088.18 2238.22,1090.34 2240.38,1092.55 2242.55,1094.81 2244.71,1097.11 2246.87,1099.48 2249.03,1101.54 2251.19,1103.4 2253.35,1105.21 2255.51,1106.97 2257.67,1108.69 2259.83,1110.36 2261.99,1111.99 2264.16,1113.57 2266.32,1115.12 2268.48,1116.64 2270.64,1118.11 2272.8,1119.56 2274.96,1120.97 2277.12,1122.36 2279.28,1123.72 2281.44,1125.06 2283.6,1126.37 2285.77,1127.67 2287.93,1128.95 2290.09,1130.21 2292.25,1131.45 2294.41,1132.69 2296.57,1133.91 2298.73,1135.13 2300.89,1136.35 2303.05,1137.56 2305.21,1138.76 2307.38,1139.97 2309.54,1141.18 2311.7,1142.4 2313.86,1143.62 2316.02,1144.86 2318.18,1146.1 2320.34,1147.36 2322.5,1148.63 2324.66,1149.92 2326.82,1151.23 2328.99,1152.56 2331.15,1153.91 2333.31,1155.29 2335.47,1156.7 2337.63,1158.14 2339.79,1159.6 2341.95,1161.11 2344.11,1162.64 2346.27,1164.22 2348.43,1165.84 2350.59,1167.5 2352.76,1169.2 "/>
<polyline clip-path="url(#clip722)" style="stroke:#e26f46; stroke-linecap:round; stroke-linejoin:round; stroke-width:4; stroke-opacity:1; fill:none" points="193.936,589.835 196.097,589.835 198.258,589.835 200.419,589.835 202.58,589.835 204.741,589.835 206.902,589.835 209.063,589.835 211.224,589.835 213.385,589.835 215.546,589.835 217.707,589.835 219.868,589.835 222.029,589.835 224.19,589.835 226.351,589.835 228.512,589.835 230.673,589.835 232.834,589.835 234.995,589.835 237.156,589.835 239.317,589.835 241.478,589.835 243.639,589.835 245.8,589.835 247.961,589.835 250.122,589.835 252.282,589.835 254.443,589.835 256.604,589.835 258.765,589.835 260.926,589.835 263.087,589.835 265.248,589.835 267.409,589.835 269.57,589.835 271.731,589.835 273.892,589.835 276.053,589.835 278.214,589.835 280.375,589.835 282.536,589.835 284.697,589.835 286.858,589.835 289.019,589.835 291.18,589.835 293.341,589.835 295.502,589.835 297.663,589.835 299.824,589.835 301.985,589.835 304.146,589.835 306.307,589.835 308.468,589.835 310.629,589.835 312.79,589.835 314.951,589.835 317.112,589.835 319.273,589.835 321.434,589.835 323.595,589.835 325.756,589.835 327.917,589.835 330.078,589.835 332.239,589.835 334.4,589.835 336.561,589.835 338.722,589.835 340.883,589.835 343.044,589.835 345.205,589.835 347.366,589.835 349.527,589.835 351.688,589.835 353.849,589.835 356.01,589.835 358.171,589.835 360.332,589.835 362.493,589.835 364.653,589.835 366.814,589.835 368.975,589.835 371.136,589.835 373.297,589.835 375.458,589.835 377.619,589.835 379.78,589.835 381.941,589.835 384.102,589.835 386.263,589.835 388.424,589.835 390.585,589.835 392.746,589.835 394.907,589.835 397.068,589.835 399.229,589.835 401.39,589.835 403.551,589.835 405.712,589.835 407.873,589.835 410.034,476.467 412.195,476.467 414.356,476.467 416.517,476.467 418.678,476.467 420.839,476.467 423,476.467 425.161,476.467 427.322,476.467 429.483,476.467 431.644,476.467 433.805,476.467 435.966,476.467 438.127,476.467 440.288,476.467 442.449,476.467 444.61,476.467 446.771,476.467 448.932,476.467 451.093,476.467 453.254,476.467 455.415,476.467 457.576,476.467 459.737,476.467 461.898,476.467 464.059,476.467 466.22,476.467 468.381,476.467 470.542,476.467 472.703,476.467 474.864,476.467 477.024,476.467 479.185,476.467 481.346,476.467 483.507,476.467 485.668,476.467 487.829,476.467 489.99,476.467 492.151,476.467 494.312,476.467 496.473,476.467 498.634,476.467 500.795,476.467 502.956,476.467 505.117,476.467 507.278,476.467 509.439,476.467 511.6,476.467 513.761,476.467 515.922,476.467 518.083,476.467 520.244,476.467 522.405,476.467 524.566,476.467 526.727,476.467 528.888,476.467 531.049,476.467 533.21,476.467 535.371,476.467 537.532,476.467 539.693,476.467 541.854,476.467 544.015,476.467 546.176,476.467 548.337,476.467 550.498,476.467 552.659,476.467 554.82,476.467 556.981,476.467 559.142,476.467 561.303,476.467 563.464,476.467 565.625,476.467 567.786,476.467 569.947,476.467 572.108,476.467 574.269,476.467 576.43,476.467 578.591,476.467 580.752,476.467 582.913,476.467 585.074,476.467 587.235,476.467 589.396,476.467 591.556,476.467 593.717,476.467 595.878,476.467 598.039,476.467 600.2,476.467 602.361,476.467 604.522,476.467 606.683,476.467 608.844,476.467 611.005,476.467 613.166,476.467 615.327,476.467 617.488,476.467 619.649,476.467 621.81,476.467 623.971,476.467 626.132,86.1857 628.293,86.1857 630.454,86.1857 632.615,86.1857 634.776,86.1857 636.937,86.1857 639.098,86.1857 641.259,86.1857 643.42,86.1857 645.581,86.1857 647.742,86.1857 649.903,86.1857 652.064,86.1857 654.225,86.1857 656.386,86.1857 658.547,86.1857 660.708,86.1857 662.869,86.1857 665.03,86.1857 667.191,86.1857 669.352,86.1857 671.513,86.1857 673.674,86.1857 675.835,86.1857 677.996,86.1857 680.157,86.1857 682.318,86.1857 684.479,86.1857 686.64,86.1857 688.801,86.1857 690.962,86.1857 693.123,86.1857 695.284,86.1857 697.445,86.1857 699.606,86.1857 701.767,86.1857 703.927,86.1857 706.088,86.1857 708.249,86.1857 710.41,86.1857 712.571,86.1857 714.732,86.1857 716.893,86.1857 719.054,86.1857 721.215,86.1857 723.376,86.1857 725.537,86.1857 727.698,86.1857 729.859,86.1857 732.02,86.1857 734.181,86.1857 736.342,86.1857 738.503,86.1857 740.664,86.1857 742.825,86.1857 744.986,86.1857 747.147,86.1857 749.308,86.1857 751.469,86.1857 753.63,86.1857 755.791,86.1857 757.952,86.1857 760.113,86.1857 762.274,86.1857 764.435,86.1857 766.596,86.1857 768.757,86.1857 770.918,86.1857 773.079,86.1857 775.24,86.1857 777.401,86.1857 779.562,86.1857 781.723,86.1857 783.884,86.1857 786.045,86.1857 788.206,86.1857 790.367,86.1857 792.528,86.1857 794.689,86.1857 796.85,86.1857 799.011,86.1857 801.172,86.1857 803.333,86.1857 805.494,86.1857 807.655,86.1857 809.816,86.1857 811.977,86.1857 814.138,86.1857 816.298,86.1857 818.459,86.1857 820.62,86.1857 822.781,86.1857 824.942,86.1857 827.103,86.1857 829.264,86.1857 831.425,86.1857 833.586,86.1857 835.747,86.1857 837.908,86.1857 840.069,86.1857 842.23,303.583 844.391,303.583 846.552,303.583 848.713,303.583 850.874,303.583 853.035,303.583 855.196,303.583 857.357,303.583 859.518,303.583 861.679,303.583 863.84,303.583 866.001,303.583 868.162,303.583 870.323,303.583 872.484,303.583 874.645,303.583 876.806,303.583 878.967,303.583 881.128,303.583 883.289,303.583 885.45,303.583 887.611,303.583 889.772,303.583 891.933,303.583 894.094,303.583 896.255,303.583 898.416,303.583 900.577,303.583 902.738,303.583 904.899,303.583 907.06,303.583 909.221,303.583 911.382,303.583 913.543,303.583 915.704,303.583 917.865,303.583 920.026,303.583 922.187,303.583 924.348,303.583 926.509,303.583 928.669,303.583 930.83,303.583 932.991,303.583 935.152,303.583 937.313,303.583 939.474,303.583 941.635,303.583 943.796,303.583 945.957,303.583 948.118,303.583 950.279,303.583 952.44,303.583 954.601,303.583 956.762,303.583 958.923,303.583 961.084,303.583 963.245,303.583 965.406,303.583 967.567,303.583 969.728,303.583 971.889,303.583 974.05,303.583 976.211,303.583 978.372,303.583 980.533,303.583 982.694,303.583 984.855,303.583 987.016,303.583 989.177,303.583 991.338,303.583 993.499,303.583 995.66,303.583 997.821,303.583 999.982,303.583 1002.14,303.583 1004.3,303.583 1006.46,303.583 1008.63,303.583 1010.79,303.583 1012.95,303.583 1015.11,303.583 1017.27,303.583 1019.43,303.583 1021.59,303.583 1023.75,303.583 1025.91,303.583 1028.07,303.583 1030.24,303.583 1032.4,303.583 1034.56,303.583 1036.72,303.583 1038.88,303.583 1041.04,303.583 1043.2,303.583 1045.36,303.583 1047.52,303.583 1049.68,303.583 1051.85,303.583 1054.01,303.583 1056.17,303.583 1058.33,1384.24 1060.49,1384.24 1062.65,1384.24 1064.81,1384.24 1066.97,1384.24 1069.13,1384.24 1071.29,1384.24 1073.46,1384.24 1075.62,1384.24 1077.78,1384.24 1079.94,1384.24 1082.1,1384.24 1084.26,1384.24 1086.42,1384.24 1088.58,1384.24 1090.74,1384.24 1092.9,1384.24 1095.07,1384.24 1097.23,1384.24 1099.39,1384.24 1101.55,1384.24 1103.71,1384.24 1105.87,1384.24 1108.03,1384.24 1110.19,1384.24 1112.35,1384.24 1114.51,1384.24 1116.67,1384.24 1118.84,1384.24 1121,1384.24 1123.16,1384.24 1125.32,1384.24 1127.48,1384.24 1129.64,1384.24 1131.8,1384.24 1133.96,1384.24 1136.12,1384.24 1138.28,1384.24 1140.45,1384.24 1142.61,1384.24 1144.77,1384.24 1146.93,1384.24 1149.09,1384.24 1151.25,1384.24 1153.41,1384.24 1155.57,1384.24 1157.73,1384.24 1159.89,1384.24 1162.06,1384.24 1164.22,1384.24 1166.38,1384.24 1168.54,1384.24 1170.7,1384.24 1172.86,1384.24 1175.02,1384.24 1177.18,1384.24 1179.34,1384.24 1181.5,1384.24 1183.67,1384.24 1185.83,1384.24 1187.99,1384.24 1190.15,1384.24 1192.31,1384.24 1194.47,1384.24 1196.63,1384.24 1198.79,1384.24 1200.95,1384.24 1203.11,1384.24 1205.28,1384.24 1207.44,1384.24 1209.6,1384.24 1211.76,1384.24 1213.92,1384.24 1216.08,1384.24 1218.24,1384.24 1220.4,1384.24 1222.56,1384.24 1224.72,1384.24 1226.88,1384.24 1229.05,1384.24 1231.21,1384.24 1233.37,1384.24 1235.53,1384.24 1237.69,1384.24 1239.85,1384.24 1242.01,1384.24 1244.17,1384.24 1246.33,1384.24 1248.49,1384.24 1250.66,1384.24 1252.82,1384.24 1254.98,1384.24 1257.14,1384.24 1259.3,1384.24 1261.46,1384.24 1263.62,1384.24 1265.78,1384.24 1267.94,1384.24 1270.1,1384.24 1272.27,1384.24 1274.43,304.279 1276.59,304.279 1278.75,304.279 1280.91,304.279 1283.07,304.279 1285.23,304.279 1287.39,304.279 1289.55,304.279 1291.71,304.279 1293.88,304.279 1296.04,304.279 1298.2,304.279 1300.36,304.279 1302.52,304.279 1304.68,304.279 1306.84,304.279 1309,304.279 1311.16,304.279 1313.32,304.279 1315.49,304.279 1317.65,304.279 1319.81,304.279 1321.97,304.279 1324.13,304.279 1326.29,304.279 1328.45,304.279 1330.61,304.279 1332.77,304.279 1334.93,304.279 1337.09,304.279 1339.26,304.279 1341.42,304.279 1343.58,304.279 1345.74,304.279 1347.9,304.279 1350.06,304.279 1352.22,304.279 1354.38,304.279 1356.54,304.279 1358.7,304.279 1360.87,304.279 1363.03,304.279 1365.19,304.279 1367.35,304.279 1369.51,304.279 1371.67,304.279 1373.83,304.279 1375.99,304.279 1378.15,304.279 1380.31,304.279 1382.48,304.279 1384.64,304.279 1386.8,304.279 1388.96,304.279 1391.12,304.279 1393.28,304.279 1395.44,304.279 1397.6,304.279 1399.76,304.279 1401.92,304.279 1404.09,304.279 1406.25,304.279 1408.41,304.279 1410.57,304.279 1412.73,304.279 1414.89,304.279 1417.05,304.279 1419.21,304.279 1421.37,304.279 1423.53,304.279 1425.7,304.279 1427.86,304.279 1430.02,304.279 1432.18,304.279 1434.34,304.279 1436.5,304.279 1438.66,304.279 1440.82,304.279 1442.98,304.279 1445.14,304.279 1447.3,304.279 1449.47,304.279 1451.63,304.279 1453.79,304.279 1455.95,304.279 1458.11,304.279 1460.27,304.279 1462.43,304.279 1464.59,304.279 1466.75,304.279 1468.91,304.279 1471.08,304.279 1473.24,304.279 1475.4,304.279 1477.56,304.279 1479.72,304.279 1481.88,304.279 1484.04,304.279 1486.2,304.279 1488.36,304.279 1490.52,1372.14 1492.69,1372.14 1494.85,1372.14 1497.01,1372.14 1499.17,1372.14 1501.33,1372.14 1503.49,1372.14 1505.65,1372.14 1507.81,1372.14 1509.97,1372.14 1512.13,1372.14 1514.3,1372.14 1516.46,1372.14 1518.62,1372.14 1520.78,1372.14 1522.94,1372.14 1525.1,1372.14 1527.26,1372.14 1529.42,1372.14 1531.58,1372.14 1533.74,1372.14 1535.91,1372.14 1538.07,1372.14 1540.23,1372.14 1542.39,1372.14 1544.55,1372.14 1546.71,1372.14 1548.87,1372.14 1551.03,1372.14 1553.19,1372.14 1555.35,1372.14 1557.51,1372.14 1559.68,1372.14 1561.84,1372.14 1564,1372.14 1566.16,1372.14 1568.32,1372.14 1570.48,1372.14 1572.64,1372.14 1574.8,1372.14 1576.96,1372.14 1579.12,1372.14 1581.29,1372.14 1583.45,1372.14 1585.61,1372.14 1587.77,1372.14 1589.93,1372.14 1592.09,1372.14 1594.25,1372.14 1596.41,1372.14 1598.57,1372.14 1600.73,1372.14 1602.9,1372.14 1605.06,1372.14 1607.22,1372.14 1609.38,1372.14 1611.54,1372.14 1613.7,1372.14 1615.86,1372.14 1618.02,1372.14 1620.18,1372.14 1622.34,1372.14 1624.51,1372.14 1626.67,1372.14 1628.83,1372.14 1630.99,1372.14 1633.15,1372.14 1635.31,1372.14 1637.47,1372.14 1639.63,1372.14 1641.79,1372.14 1643.95,1372.14 1646.12,1372.14 1648.28,1372.14 1650.44,1372.14 1652.6,1372.14 1654.76,1372.14 1656.92,1372.14 1659.08,1372.14 1661.24,1372.14 1663.4,1372.14 1665.56,1372.14 1667.72,1372.14 1669.89,1372.14 1672.05,1372.14 1674.21,1372.14 1676.37,1372.14 1678.53,1372.14 1680.69,1372.14 1682.85,1372.14 1685.01,1372.14 1687.17,1372.14 1689.33,1372.14 1691.5,1372.14 1693.66,1372.14 1695.82,1372.14 1697.98,1372.14 1700.14,1372.14 1702.3,1372.14 1704.46,1372.14 1706.62,981.948 1708.78,981.948 1710.94,981.948 1713.11,981.948 1715.27,981.948 1717.43,981.948 1719.59,981.948 1721.75,981.948 1723.91,981.948 1726.07,981.948 1728.23,981.948 1730.39,981.948 1732.55,981.948 1734.72,981.948 1736.88,981.948 1739.04,981.948 1741.2,981.948 1743.36,981.948 1745.52,981.948 1747.68,981.948 1749.84,981.948 1752,981.948 1754.16,981.948 1756.33,981.948 1758.49,981.948 1760.65,981.948 1762.81,981.948 1764.97,981.948 1767.13,981.948 1769.29,981.948 1771.45,981.948 1773.61,981.948 1775.77,981.948 1777.93,981.948 1780.1,981.948 1782.26,981.948 1784.42,981.948 1786.58,981.948 1788.74,981.948 1790.9,981.948 1793.06,981.948 1795.22,981.948 1797.38,981.948 1799.54,981.948 1801.71,981.948 1803.87,981.948 1806.03,981.948 1808.19,981.948 1810.35,981.948 1812.51,981.948 1814.67,981.948 1816.83,981.948 1818.99,981.948 1821.15,981.948 1823.32,981.948 1825.48,981.948 1827.64,981.948 1829.8,981.948 1831.96,981.948 1834.12,981.948 1836.28,981.948 1838.44,981.948 1840.6,981.948 1842.76,981.948 1844.93,981.948 1847.09,981.948 1849.25,981.948 1851.41,981.948 1853.57,981.948 1855.73,981.948 1857.89,981.948 1860.05,981.948 1862.21,981.948 1864.37,981.948 1866.54,981.948 1868.7,981.948 1870.86,981.948 1873.02,981.948 1875.18,981.948 1877.34,981.948 1879.5,981.948 1881.66,981.948 1883.82,981.948 1885.98,981.948 1888.15,981.948 1890.31,981.948 1892.47,981.948 1894.63,981.948 1896.79,981.948 1898.95,981.948 1901.11,981.948 1903.27,981.948 1905.43,981.948 1907.59,981.948 1909.75,981.948 1911.92,981.948 1914.08,981.948 1916.24,981.948 1918.4,981.948 1920.56,981.948 1922.72,925.693 1924.88,925.693 1927.04,925.693 1929.2,925.693 1931.36,925.693 1933.53,925.693 1935.69,925.693 1937.85,925.693 1940.01,925.693 1942.17,925.693 1944.33,925.693 1946.49,925.693 1948.65,925.693 1950.81,925.693 1952.97,925.693 1955.14,925.693 1957.3,925.693 1959.46,925.693 1961.62,925.693 1963.78,925.693 1965.94,925.693 1968.1,925.693 1970.26,925.693 1972.42,925.693 1974.58,925.693 1976.75,925.693 1978.91,925.693 1981.07,925.693 1983.23,925.693 1985.39,925.693 1987.55,925.693 1989.71,925.693 1991.87,925.693 1994.03,925.693 1996.19,925.693 1998.36,925.693 2000.52,925.693 2002.68,925.693 2004.84,925.693 2007,925.693 2009.16,925.693 2011.32,925.693 2013.48,925.693 2015.64,925.693 2017.8,925.693 2019.96,925.693 2022.13,925.693 2024.29,925.693 2026.45,925.693 2028.61,925.693 2030.77,925.693 2032.93,925.693 2035.09,925.693 2037.25,925.693 2039.41,925.693 2041.57,925.693 2043.74,925.693 2045.9,925.693 2048.06,925.693 2050.22,925.693 2052.38,925.693 2054.54,925.693 2056.7,925.693 2058.86,925.693 2061.02,925.693 2063.18,925.693 2065.35,925.693 2067.51,925.693 2069.67,925.693 2071.83,925.693 2073.99,925.693 2076.15,925.693 2078.31,925.693 2080.47,925.693 2082.63,925.693 2084.79,925.693 2086.96,925.693 2089.12,925.693 2091.28,925.693 2093.44,925.693 2095.6,925.693 2097.76,925.693 2099.92,925.693 2102.08,925.693 2104.24,925.693 2106.4,925.693 2108.57,925.693 2110.73,925.693 2112.89,925.693 2115.05,925.693 2117.21,925.693 2119.37,925.693 2121.53,925.693 2123.69,925.693 2125.85,925.693 2128.01,925.693 2130.17,925.693 2132.34,925.693 2134.5,925.693 2136.66,925.693 2138.82,1244.57 2140.98,1244.57 2143.14,1244.57 2145.3,1244.57 2147.46,1244.57 2149.62,1244.57 2151.78,1244.57 2153.95,1244.57 2156.11,1244.57 2158.27,1244.57 2160.43,1244.57 2162.59,1244.57 2164.75,1244.57 2166.91,1244.57 2169.07,1244.57 2171.23,1244.57 2173.39,1244.57 2175.56,1244.57 2177.72,1244.57 2179.88,1244.57 2182.04,1244.57 2184.2,1244.57 2186.36,1244.57 2188.52,1244.57 2190.68,1244.57 2192.84,1244.57 2195,1244.57 2197.17,1244.57 2199.33,1244.57 2201.49,1244.57 2203.65,1244.57 2205.81,1244.57 2207.97,1244.57 2210.13,1244.57 2212.29,1244.57 2214.45,1244.57 2216.61,1244.57 2218.78,1244.57 2220.94,1244.57 2223.1,1244.57 2225.26,1244.57 2227.42,1244.57 2229.58,1244.57 2231.74,1244.57 2233.9,1244.57 2236.06,1244.57 2238.22,1244.57 2240.38,1244.57 2242.55,1244.57 2244.71,1244.57 2246.87,1244.57 2249.03,1244.57 2251.19,1244.57 2253.35,1244.57 2255.51,1244.57 2257.67,1244.57 2259.83,1244.57 2261.99,1244.57 2264.16,1244.57 2266.32,1244.57 2268.48,1244.57 2270.64,1244.57 2272.8,1244.57 2274.96,1244.57 2277.12,1244.57 2279.28,1244.57 2281.44,1244.57 2283.6,1244.57 2285.77,1244.57 2287.93,1244.57 2290.09,1244.57 2292.25,1244.57 2294.41,1244.57 2296.57,1244.57 2298.73,1244.57 2300.89,1244.57 2303.05,1244.57 2305.21,1244.57 2307.38,1244.57 2309.54,1244.57 2311.7,1244.57 2313.86,1244.57 2316.02,1244.57 2318.18,1244.57 2320.34,1244.57 2322.5,1244.57 2324.66,1244.57 2326.82,1244.57 2328.99,1244.57 2331.15,1244.57 2333.31,1244.57 2335.47,1244.57 2337.63,1244.57 2339.79,1244.57 2341.95,1244.57 2344.11,1244.57 2346.27,1244.57 2348.43,1244.57 2350.59,1244.57 2352.76,1244.57 "/>
<path clip-path="url(#clip720)" d="M2039.77 248.629 L2280.8 248.629 L2280.8 93.1086 L2039.77 93.1086  Z" fill="#ffffff" fill-rule="evenodd" fill-opacity="1"/>
<polyline clip-path="url(#clip720)" style="stroke:#000000; stroke-linecap:round; stroke-linejoin:round; stroke-width:4; stroke-opacity:1; fill:none" points="2039.77,248.629 2280.8,248.629 2280.8,93.1086 2039.77,93.1086 2039.77,248.629 "/>
<polyline clip-path="url(#clip720)" style="stroke:#009af9; stroke-linecap:round; stroke-linejoin:round; stroke-width:4; stroke-opacity:1; fill:none" points="2063.76,144.949 2207.68,144.949 "/>
<path clip-path="url(#clip720)" d="M2256.32 136.303 L2246.95 148.919 L2256.81 162.229 L2251.79 162.229 L2244.24 152.043 L2236.69 162.229 L2231.67 162.229 L2241.74 148.664 L2232.53 136.303 L2237.55 136.303 L2244.42 145.539 L2251.3 136.303 L2256.32 136.303 Z" fill="#000000" fill-rule="nonzero" fill-opacity="1" /><polyline clip-path="url(#clip720)" style="stroke:#e26f46; stroke-linecap:round; stroke-linejoin:round; stroke-width:4; stroke-opacity:1; fill:none" points="2063.76,196.789 2207.68,196.789 "/>
<path clip-path="url(#clip720)" d="M2248.17 178.05 L2248.17 181.592 L2244.1 181.592 Q2241.81 181.592 2240.91 182.518 Q2240.03 183.444 2240.03 185.851 L2240.03 188.143 L2247.04 188.143 L2247.04 191.453 L2240.03 191.453 L2240.03 214.069 L2235.74 214.069 L2235.74 191.453 L2231.67 191.453 L2231.67 188.143 L2235.74 188.143 L2235.74 186.337 Q2235.74 182.009 2237.76 180.041 Q2239.77 178.05 2244.15 178.05 L2248.17 178.05 Z" fill="#000000" fill-rule="nonzero" fill-opacity="1" /></svg>
