<?xml version="1.0" encoding="utf-8"?>
<svg xmlns="http://www.w3.org/2000/svg" xmlns:xlink="http://www.w3.org/1999/xlink" width="600" height="400" viewBox="0 0 2400 1600">
<defs>
  <clipPath id="clip310">
    <rect x="0" y="0" width="2400" height="1600"/>
  </clipPath>
</defs>
<path clip-path="url(#clip310)" d="M0 1600 L2400 1600 L2400 0 L0 0  Z" fill="#ffffff" fill-rule="evenodd" fill-opacity="1"/>
<defs>
  <clipPath id="clip311">
    <rect x="480" y="0" width="1681" height="1600"/>
  </clipPath>
</defs>
<path clip-path="url(#clip310)" d="M193.936 1423.18 L2352.76 1423.18 L2352.76 47.2441 L193.936 47.2441  Z" fill="#ffffff" fill-rule="evenodd" fill-opacity="1"/>
<defs>
  <clipPath id="clip312">
    <rect x="193" y="47" width="2160" height="1377"/>
  </clipPath>
</defs>
<polyline clip-path="url(#clip312)" style="stroke:#000000; stroke-linecap:round; stroke-linejoin:round; stroke-width:2; stroke-opacity:0.1; fill:none" points="193.936,1423.18 193.936,47.2441 "/>
<polyline clip-path="url(#clip312)" style="stroke:#000000; stroke-linecap:round; stroke-linejoin:round; stroke-width:2; stroke-opacity:0.1; fill:none" points="625.7,1423.18 625.7,47.2441 "/>
<polyline clip-path="url(#clip312)" style="stroke:#000000; stroke-linecap:round; stroke-linejoin:round; stroke-width:2; stroke-opacity:0.1; fill:none" points="1057.46,1423.18 1057.46,47.2441 "/>
<polyline clip-path="url(#clip312)" style="stroke:#000000; stroke-linecap:round; stroke-linejoin:round; stroke-width:2; stroke-opacity:0.1; fill:none" points="1489.23,1423.18 1489.23,47.2441 "/>
<polyline clip-path="url(#clip312)" style="stroke:#000000; stroke-linecap:round; stroke-linejoin:round; stroke-width:2; stroke-opacity:0.1; fill:none" points="1920.99,1423.18 1920.99,47.2441 "/>
<polyline clip-path="url(#clip312)" style="stroke:#000000; stroke-linecap:round; stroke-linejoin:round; stroke-width:2; stroke-opacity:0.1; fill:none" points="2352.76,1423.18 2352.76,47.2441 "/>
<polyline clip-path="url(#clip310)" style="stroke:#000000; stroke-linecap:round; stroke-linejoin:round; stroke-width:4; stroke-opacity:1; fill:none" points="193.936,1423.18 2352.76,1423.18 "/>
<polyline clip-path="url(#clip310)" style="stroke:#000000; stroke-linecap:round; stroke-linejoin:round; stroke-width:4; stroke-opacity:1; fill:none" points="193.936,1423.18 193.936,1404.28 "/>
<polyline clip-path="url(#clip310)" style="stroke:#000000; stroke-linecap:round; stroke-linejoin:round; stroke-width:4; stroke-opacity:1; fill:none" points="625.7,1423.18 625.7,1404.28 "/>
<polyline clip-path="url(#clip310)" style="stroke:#000000; stroke-linecap:round; stroke-linejoin:round; stroke-width:4; stroke-opacity:1; fill:none" points="1057.46,1423.18 1057.46,1404.28 "/>
<polyline clip-path="url(#clip310)" style="stroke:#000000; stroke-linecap:round; stroke-linejoin:round; stroke-width:4; stroke-opacity:1; fill:none" points="1489.23,1423.18 1489.23,1404.28 "/>
<polyline clip-path="url(#clip310)" style="stroke:#000000; stroke-linecap:round; stroke-linejoin:round; stroke-width:4; stroke-opacity:1; fill:none" points="1920.99,1423.18 1920.99,1404.28 "/>
<polyline clip-path="url(#clip310)" style="stroke:#000000; stroke-linecap:round; stroke-linejoin:round; stroke-width:4; stroke-opacity:1; fill:none" points="2352.76,1423.18 2352.76,1404.28 "/>
<path clip-path="url(#clip310)" d="M193.936 1454.1 Q190.325 1454.1 188.496 1457.66 Q186.691 1461.2 186.691 1468.33 Q186.691 1475.44 188.496 1479.01 Q190.325 1482.55 193.936 1482.55 Q197.57 1482.55 199.376 1479.01 Q201.204 1475.44 201.204 1468.33 Q201.204 1461.2 199.376 1457.66 Q197.57 1454.1 193.936 1454.1 M193.936 1450.39 Q199.746 1450.39 202.802 1455 Q205.88 1459.58 205.88 1468.33 Q205.88 1477.06 202.802 1481.67 Q199.746 1486.25 193.936 1486.25 Q188.126 1486.25 185.047 1481.67 Q181.992 1477.06 181.992 1468.33 Q181.992 1459.58 185.047 1455 Q188.126 1450.39 193.936 1450.39 Z" fill="#000000" fill-rule="nonzero" fill-opacity="1" /><path clip-path="url(#clip310)" d="M620.353 1481.64 L636.672 1481.64 L636.672 1485.58 L614.728 1485.58 L614.728 1481.64 Q617.39 1478.89 621.973 1474.26 Q626.58 1469.61 627.76 1468.27 Q630.006 1465.74 630.885 1464.01 Q631.788 1462.25 631.788 1460.56 Q631.788 1457.8 629.843 1456.07 Q627.922 1454.33 624.82 1454.33 Q622.621 1454.33 620.168 1455.09 Q617.737 1455.86 614.959 1457.41 L614.959 1452.69 Q617.783 1451.55 620.237 1450.97 Q622.691 1450.39 624.728 1450.39 Q630.098 1450.39 633.293 1453.08 Q636.487 1455.77 636.487 1460.26 Q636.487 1462.39 635.677 1464.31 Q634.89 1466.2 632.783 1468.8 Q632.205 1469.47 629.103 1472.69 Q626.001 1475.88 620.353 1481.64 Z" fill="#000000" fill-rule="nonzero" fill-opacity="1" /><path clip-path="url(#clip310)" d="M1060.47 1455.09 L1048.67 1473.54 L1060.47 1473.54 L1060.47 1455.09 M1059.25 1451.02 L1065.13 1451.02 L1065.13 1473.54 L1070.06 1473.54 L1070.06 1477.43 L1065.13 1477.43 L1065.13 1485.58 L1060.47 1485.58 L1060.47 1477.43 L1044.87 1477.43 L1044.87 1472.92 L1059.25 1451.02 Z" fill="#000000" fill-rule="nonzero" fill-opacity="1" /><path clip-path="url(#clip310)" d="M1489.63 1466.44 Q1486.48 1466.44 1484.63 1468.59 Q1482.8 1470.74 1482.8 1474.49 Q1482.8 1478.22 1484.63 1480.39 Q1486.48 1482.55 1489.63 1482.55 Q1492.78 1482.55 1494.61 1480.39 Q1496.46 1478.22 1496.46 1474.49 Q1496.46 1470.74 1494.61 1468.59 Q1492.78 1466.44 1489.63 1466.44 M1498.92 1451.78 L1498.92 1456.04 Q1497.16 1455.21 1495.35 1454.77 Q1493.57 1454.33 1491.81 1454.33 Q1487.18 1454.33 1484.73 1457.45 Q1482.3 1460.58 1481.95 1466.9 Q1483.31 1464.89 1485.37 1463.82 Q1487.43 1462.73 1489.91 1462.73 Q1495.12 1462.73 1498.13 1465.9 Q1501.16 1469.05 1501.16 1474.49 Q1501.16 1479.82 1498.01 1483.03 Q1494.86 1486.25 1489.63 1486.25 Q1483.64 1486.25 1480.47 1481.67 Q1477.3 1477.06 1477.3 1468.33 Q1477.3 1460.14 1481.18 1455.28 Q1485.07 1450.39 1491.62 1450.39 Q1493.38 1450.39 1495.17 1450.74 Q1496.97 1451.09 1498.92 1451.78 Z" fill="#000000" fill-rule="nonzero" fill-opacity="1" /><path clip-path="url(#clip310)" d="M1920.99 1469.17 Q1917.66 1469.17 1915.74 1470.95 Q1913.84 1472.73 1913.84 1475.86 Q1913.84 1478.98 1915.74 1480.77 Q1917.66 1482.55 1920.99 1482.55 Q1924.33 1482.55 1926.25 1480.77 Q1928.17 1478.96 1928.17 1475.86 Q1928.17 1472.73 1926.25 1470.95 Q1924.35 1469.17 1920.99 1469.17 M1916.32 1467.18 Q1913.31 1466.44 1911.62 1464.38 Q1909.95 1462.32 1909.95 1459.35 Q1909.95 1455.21 1912.89 1452.8 Q1915.85 1450.39 1920.99 1450.39 Q1926.15 1450.39 1929.09 1452.8 Q1932.03 1455.21 1932.03 1459.35 Q1932.03 1462.32 1930.34 1464.38 Q1928.68 1466.44 1925.69 1467.18 Q1929.07 1467.96 1930.95 1470.26 Q1932.84 1472.55 1932.84 1475.86 Q1932.84 1480.88 1929.77 1483.57 Q1926.71 1486.25 1920.99 1486.25 Q1915.27 1486.25 1912.2 1483.57 Q1909.14 1480.88 1909.14 1475.86 Q1909.14 1472.55 1911.04 1470.26 Q1912.94 1467.96 1916.32 1467.18 M1914.6 1459.79 Q1914.6 1462.48 1916.27 1463.98 Q1917.96 1465.49 1920.99 1465.49 Q1924 1465.49 1925.69 1463.98 Q1927.4 1462.48 1927.4 1459.79 Q1927.4 1457.11 1925.69 1455.6 Q1924 1454.1 1920.99 1454.1 Q1917.96 1454.1 1916.27 1455.6 Q1914.6 1457.11 1914.6 1459.79 Z" fill="#000000" fill-rule="nonzero" fill-opacity="1" /><path clip-path="url(#clip310)" d="M2327.44 1481.64 L2335.08 1481.64 L2335.08 1455.28 L2326.77 1456.95 L2326.77 1452.69 L2335.04 1451.02 L2339.71 1451.02 L2339.71 1481.64 L2347.35 1481.64 L2347.35 1485.58 L2327.44 1485.58 L2327.44 1481.64 Z" fill="#000000" fill-rule="nonzero" fill-opacity="1" /><path clip-path="url(#clip310)" d="M2366.8 1454.1 Q2363.18 1454.1 2361.36 1457.66 Q2359.55 1461.2 2359.55 1468.33 Q2359.55 1475.44 2361.36 1479.01 Q2363.18 1482.55 2366.8 1482.55 Q2370.43 1482.55 2372.23 1479.01 Q2374.06 1475.44 2374.06 1468.33 Q2374.06 1461.2 2372.23 1457.66 Q2370.43 1454.1 2366.8 1454.1 M2366.8 1450.39 Q2372.61 1450.39 2375.66 1455 Q2378.74 1459.58 2378.74 1468.33 Q2378.74 1477.06 2375.66 1481.67 Q2372.61 1486.25 2366.8 1486.25 Q2360.99 1486.25 2357.91 1481.67 Q2354.85 1477.06 2354.85 1468.33 Q2354.85 1459.58 2357.91 1455 Q2360.99 1450.39 2366.8 1450.39 Z" fill="#000000" fill-rule="nonzero" fill-opacity="1" /><path clip-path="url(#clip310)" d="M1272.41 1522.27 L1272.41 1532.4 L1284.47 1532.4 L1284.47 1536.95 L1272.41 1536.95 L1272.41 1556.3 Q1272.41 1560.66 1273.58 1561.9 Q1274.79 1563.14 1278.45 1563.14 L1284.47 1563.14 L1284.47 1568.04 L1278.45 1568.04 Q1271.67 1568.04 1269.1 1565.53 Q1266.52 1562.98 1266.52 1556.3 L1266.52 1536.95 L1262.22 1536.95 L1262.22 1532.4 L1266.52 1532.4 L1266.52 1522.27 L1272.41 1522.27 Z" fill="#000000" fill-rule="nonzero" fill-opacity="1" /><polyline clip-path="url(#clip312)" style="stroke:#000000; stroke-linecap:round; stroke-linejoin:round; stroke-width:2; stroke-opacity:0.1; fill:none" points="193.936,1160.73 2352.76,1160.73 "/>
<polyline clip-path="url(#clip312)" style="stroke:#000000; stroke-linecap:round; stroke-linejoin:round; stroke-width:2; stroke-opacity:0.1; fill:none" points="193.936,886.794 2352.76,886.794 "/>
<polyline clip-path="url(#clip312)" style="stroke:#000000; stroke-linecap:round; stroke-linejoin:round; stroke-width:2; stroke-opacity:0.1; fill:none" points="193.936,612.858 2352.76,612.858 "/>
<polyline clip-path="url(#clip312)" style="stroke:#000000; stroke-linecap:round; stroke-linejoin:round; stroke-width:2; stroke-opacity:0.1; fill:none" points="193.936,338.921 2352.76,338.921 "/>
<polyline clip-path="url(#clip312)" style="stroke:#000000; stroke-linecap:round; stroke-linejoin:round; stroke-width:2; stroke-opacity:0.1; fill:none" points="193.936,64.9844 2352.76,64.9844 "/>
<polyline clip-path="url(#clip310)" style="stroke:#000000; stroke-linecap:round; stroke-linejoin:round; stroke-width:4; stroke-opacity:1; fill:none" points="193.936,1423.18 193.936,47.2441 "/>
<polyline clip-path="url(#clip310)" style="stroke:#000000; stroke-linecap:round; stroke-linejoin:round; stroke-width:4; stroke-opacity:1; fill:none" points="193.936,1160.73 212.834,1160.73 "/>
<polyline clip-path="url(#clip310)" style="stroke:#000000; stroke-linecap:round; stroke-linejoin:round; stroke-width:4; stroke-opacity:1; fill:none" points="193.936,886.794 212.834,886.794 "/>
<polyline clip-path="url(#clip310)" style="stroke:#000000; stroke-linecap:round; stroke-linejoin:round; stroke-width:4; stroke-opacity:1; fill:none" points="193.936,612.858 212.834,612.858 "/>
<polyline clip-path="url(#clip310)" style="stroke:#000000; stroke-linecap:round; stroke-linejoin:round; stroke-width:4; stroke-opacity:1; fill:none" points="193.936,338.921 212.834,338.921 "/>
<polyline clip-path="url(#clip310)" style="stroke:#000000; stroke-linecap:round; stroke-linejoin:round; stroke-width:4; stroke-opacity:1; fill:none" points="193.936,64.9844 212.834,64.9844 "/>
<path clip-path="url(#clip310)" d="M51.9875 1161.18 L81.6633 1161.18 L81.6633 1165.12 L51.9875 1165.12 L51.9875 1161.18 Z" fill="#000000" fill-rule="nonzero" fill-opacity="1" /><path clip-path="url(#clip310)" d="M92.566 1174.08 L100.205 1174.08 L100.205 1147.71 L91.8947 1149.38 L91.8947 1145.12 L100.159 1143.45 L104.834 1143.45 L104.834 1174.08 L112.473 1174.08 L112.473 1178.01 L92.566 1178.01 L92.566 1174.08 Z" fill="#000000" fill-rule="nonzero" fill-opacity="1" /><path clip-path="url(#clip310)" d="M121.918 1172.13 L126.802 1172.13 L126.802 1178.01 L121.918 1178.01 L121.918 1172.13 Z" fill="#000000" fill-rule="nonzero" fill-opacity="1" /><path clip-path="url(#clip310)" d="M137.033 1143.45 L155.39 1143.45 L155.39 1147.39 L141.316 1147.39 L141.316 1155.86 Q142.334 1155.51 143.353 1155.35 Q144.371 1155.16 145.39 1155.16 Q151.177 1155.16 154.556 1158.34 Q157.936 1161.51 157.936 1166.92 Q157.936 1172.5 154.464 1175.6 Q150.992 1178.68 144.672 1178.68 Q142.496 1178.68 140.228 1178.31 Q137.982 1177.94 135.575 1177.2 L135.575 1172.5 Q137.658 1173.64 139.881 1174.19 Q142.103 1174.75 144.58 1174.75 Q148.584 1174.75 150.922 1172.64 Q153.26 1170.53 153.26 1166.92 Q153.26 1163.31 150.922 1161.21 Q148.584 1159.1 144.58 1159.1 Q142.705 1159.1 140.83 1159.52 Q138.978 1159.93 137.033 1160.81 L137.033 1143.45 Z" fill="#000000" fill-rule="nonzero" fill-opacity="1" /><path clip-path="url(#clip310)" d="M50.9921 887.246 L80.6679 887.246 L80.6679 891.181 L50.9921 891.181 L50.9921 887.246 Z" fill="#000000" fill-rule="nonzero" fill-opacity="1" /><path clip-path="url(#clip310)" d="M91.5706 900.139 L99.2095 900.139 L99.2095 873.773 L90.8993 875.44 L90.8993 871.181 L99.1632 869.514 L103.839 869.514 L103.839 900.139 L111.478 900.139 L111.478 904.074 L91.5706 904.074 L91.5706 900.139 Z" fill="#000000" fill-rule="nonzero" fill-opacity="1" /><path clip-path="url(#clip310)" d="M120.922 898.195 L125.807 898.195 L125.807 904.074 L120.922 904.074 L120.922 898.195 Z" fill="#000000" fill-rule="nonzero" fill-opacity="1" /><path clip-path="url(#clip310)" d="M145.992 872.593 Q142.381 872.593 140.552 876.158 Q138.746 879.699 138.746 886.829 Q138.746 893.935 140.552 897.5 Q142.381 901.042 145.992 901.042 Q149.626 901.042 151.431 897.5 Q153.26 893.935 153.26 886.829 Q153.26 879.699 151.431 876.158 Q149.626 872.593 145.992 872.593 M145.992 868.889 Q151.802 868.889 154.857 873.496 Q157.936 878.079 157.936 886.829 Q157.936 895.556 154.857 900.162 Q151.802 904.746 145.992 904.746 Q140.181 904.746 137.103 900.162 Q134.047 895.556 134.047 886.829 Q134.047 878.079 137.103 873.496 Q140.181 868.889 145.992 868.889 Z" fill="#000000" fill-rule="nonzero" fill-opacity="1" /><path clip-path="url(#clip310)" d="M51.9875 613.309 L81.6633 613.309 L81.6633 617.244 L51.9875 617.244 L51.9875 613.309 Z" fill="#000000" fill-rule="nonzero" fill-opacity="1" /><path clip-path="url(#clip310)" d="M101.756 598.656 Q98.1447 598.656 96.316 602.221 Q94.5104 605.763 94.5104 612.892 Q94.5104 619.999 96.316 623.564 Q98.1447 627.105 101.756 627.105 Q105.39 627.105 107.196 623.564 Q109.024 619.999 109.024 612.892 Q109.024 605.763 107.196 602.221 Q105.39 598.656 101.756 598.656 M101.756 594.953 Q107.566 594.953 110.621 599.559 Q113.7 604.142 113.7 612.892 Q113.7 621.619 110.621 626.226 Q107.566 630.809 101.756 630.809 Q95.9456 630.809 92.8669 626.226 Q89.8114 621.619 89.8114 612.892 Q89.8114 604.142 92.8669 599.559 Q95.9456 594.953 101.756 594.953 Z" fill="#000000" fill-rule="nonzero" fill-opacity="1" /><path clip-path="url(#clip310)" d="M121.918 624.258 L126.802 624.258 L126.802 630.138 L121.918 630.138 L121.918 624.258 Z" fill="#000000" fill-rule="nonzero" fill-opacity="1" /><path clip-path="url(#clip310)" d="M137.033 595.578 L155.39 595.578 L155.39 599.513 L141.316 599.513 L141.316 607.985 Q142.334 607.638 143.353 607.476 Q144.371 607.291 145.39 607.291 Q151.177 607.291 154.556 610.462 Q157.936 613.633 157.936 619.05 Q157.936 624.628 154.464 627.73 Q150.992 630.809 144.672 630.809 Q142.496 630.809 140.228 630.439 Q137.982 630.068 135.575 629.327 L135.575 624.628 Q137.658 625.763 139.881 626.318 Q142.103 626.874 144.58 626.874 Q148.584 626.874 150.922 624.767 Q153.26 622.661 153.26 619.05 Q153.26 615.439 150.922 613.332 Q148.584 611.226 144.58 611.226 Q142.705 611.226 140.83 611.642 Q138.978 612.059 137.033 612.939 L137.033 595.578 Z" fill="#000000" fill-rule="nonzero" fill-opacity="1" /><path clip-path="url(#clip310)" d="M100.76 324.72 Q97.1493 324.72 95.3206 328.284 Q93.515 331.826 93.515 338.956 Q93.515 346.062 95.3206 349.627 Q97.1493 353.169 100.76 353.169 Q104.395 353.169 106.2 349.627 Q108.029 346.062 108.029 338.956 Q108.029 331.826 106.2 328.284 Q104.395 324.72 100.76 324.72 M100.76 321.016 Q106.571 321.016 109.626 325.622 Q112.705 330.206 112.705 338.956 Q112.705 347.683 109.626 352.289 Q106.571 356.872 100.76 356.872 Q94.9502 356.872 91.8715 352.289 Q88.816 347.683 88.816 338.956 Q88.816 330.206 91.8715 325.622 Q94.9502 321.016 100.76 321.016 Z" fill="#000000" fill-rule="nonzero" fill-opacity="1" /><path clip-path="url(#clip310)" d="M120.922 350.321 L125.807 350.321 L125.807 356.201 L120.922 356.201 L120.922 350.321 Z" fill="#000000" fill-rule="nonzero" fill-opacity="1" /><path clip-path="url(#clip310)" d="M145.992 324.72 Q142.381 324.72 140.552 328.284 Q138.746 331.826 138.746 338.956 Q138.746 346.062 140.552 349.627 Q142.381 353.169 145.992 353.169 Q149.626 353.169 151.431 349.627 Q153.26 346.062 153.26 338.956 Q153.26 331.826 151.431 328.284 Q149.626 324.72 145.992 324.72 M145.992 321.016 Q151.802 321.016 154.857 325.622 Q157.936 330.206 157.936 338.956 Q157.936 347.683 154.857 352.289 Q151.802 356.872 145.992 356.872 Q140.181 356.872 137.103 352.289 Q134.047 347.683 134.047 338.956 Q134.047 330.206 137.103 325.622 Q140.181 321.016 145.992 321.016 Z" fill="#000000" fill-rule="nonzero" fill-opacity="1" /><path clip-path="url(#clip310)" d="M101.756 50.7831 Q98.1447 50.7831 96.316 54.3479 Q94.5104 57.8895 94.5104 65.0191 Q94.5104 72.1256 96.316 75.6904 Q98.1447 79.232 101.756 79.232 Q105.39 79.232 107.196 75.6904 Q109.024 72.1256 109.024 65.0191 Q109.024 57.8895 107.196 54.3479 Q105.39 50.7831 101.756 50.7831 M101.756 47.0794 Q107.566 47.0794 110.621 51.6859 Q113.7 56.2692 113.7 65.0191 Q113.7 73.7459 110.621 78.3524 Q107.566 82.9357 101.756 82.9357 Q95.9456 82.9357 92.8669 78.3524 Q89.8114 73.7459 89.8114 65.0191 Q89.8114 56.2692 92.8669 51.6859 Q95.9456 47.0794 101.756 47.0794 Z" fill="#000000" fill-rule="nonzero" fill-opacity="1" /><path clip-path="url(#clip310)" d="M121.918 76.3848 L126.802 76.3848 L126.802 82.2644 L121.918 82.2644 L121.918 76.3848 Z" fill="#000000" fill-rule="nonzero" fill-opacity="1" /><path clip-path="url(#clip310)" d="M137.033 47.7044 L155.39 47.7044 L155.39 51.6396 L141.316 51.6396 L141.316 60.1117 Q142.334 59.7645 143.353 59.6025 Q144.371 59.4173 145.39 59.4173 Q151.177 59.4173 154.556 62.5886 Q157.936 65.7599 157.936 71.1765 Q157.936 76.7552 154.464 79.857 Q150.992 82.9357 144.672 82.9357 Q142.496 82.9357 140.228 82.5653 Q137.982 82.1949 135.575 81.4542 L135.575 76.7552 Q137.658 77.8894 139.881 78.445 Q142.103 79.0005 144.58 79.0005 Q148.584 79.0005 150.922 76.8941 Q153.26 74.7876 153.26 71.1765 Q153.26 67.5654 150.922 65.4589 Q148.584 63.3525 144.58 63.3525 Q142.705 63.3525 140.83 63.7691 Q138.978 64.1858 137.033 65.0654 L137.033 47.7044 Z" fill="#000000" fill-rule="nonzero" fill-opacity="1" /><polyline clip-path="url(#clip312)" style="stroke:#009af9; stroke-linecap:round; stroke-linejoin:round; stroke-width:4; stroke-opacity:1; fill:none" points="193.936,338.921 196.097,345.798 198.258,352.583 200.419,359.279 202.58,365.886 204.741,372.405 206.902,378.838 209.063,385.185 211.224,391.449 213.385,397.629 215.546,403.728 217.707,409.745 219.868,415.683 222.029,421.542 224.19,427.323 226.351,433.028 228.512,438.657 230.673,444.212 232.834,449.692 234.995,455.101 237.156,460.437 239.317,465.703 241.478,470.899 243.639,476.026 245.8,481.085 247.961,486.077 250.122,491.002 252.282,495.863 254.443,500.659 256.604,505.391 258.765,510.061 260.926,514.669 263.087,519.215 265.248,523.702 267.409,528.129 269.57,532.497 271.731,536.807 273.892,541.061 276.053,545.257 278.214,549.399 280.375,553.485 282.536,557.517 284.697,561.496 286.858,565.421 289.019,569.295 291.18,573.118 293.341,576.89 295.502,580.611 297.663,584.284 299.824,587.907 301.985,591.483 304.146,595.011 306.307,598.493 308.468,601.928 310.629,605.318 312.79,608.663 314.951,611.963 317.112,615.22 319.273,618.434 321.434,621.605 323.595,624.734 325.756,627.821 327.917,630.868 330.078,633.874 332.239,636.84 334.4,639.767 336.561,642.656 338.722,645.505 340.883,648.317 343.044,651.092 345.205,653.83 347.366,656.532 349.527,659.198 351.688,661.828 353.849,664.424 356.01,666.985 358.171,669.512 360.332,672.006 362.493,674.467 364.653,676.895 366.814,679.291 368.975,681.655 371.136,683.987 373.297,686.289 375.458,688.561 377.619,690.802 379.78,693.013 381.941,695.196 384.102,697.349 386.263,699.474 388.424,701.57 390.585,703.639 392.746,705.68 394.907,708.258 397.068,711.396 399.229,714.28 401.39,716.296 403.551,717.031 405.712,716.277 407.873,714.026 410.034,710.473 412.195,706.017 414.356,701.257 416.517,696.894 418.678,692.719 420.839,688.6 423,684.535 425.161,680.524 427.322,676.566 429.483,672.66 431.644,668.807 433.805,665.004 435.966,661.252 438.127,657.55 440.288,653.896 442.449,650.291 444.61,646.734 446.771,643.224 448.932,639.761 451.093,636.343 453.254,632.971 455.415,629.644 457.576,626.361 459.737,623.121 461.898,619.924 464.059,616.77 466.22,613.657 468.381,610.586 470.542,607.556 472.703,604.566 474.864,601.615 477.024,598.704 479.185,595.831 481.346,592.996 483.507,590.199 485.668,587.438 487.829,584.715 489.99,582.027 492.151,579.375 494.312,576.759 496.473,574.177 498.634,571.629 500.795,569.115 502.956,566.634 505.117,564.186 507.278,561.771 509.439,559.387 511.6,557.035 513.761,554.715 515.922,552.425 518.083,550.165 520.244,547.936 522.405,545.736 524.566,543.565 526.727,541.423 528.888,539.31 531.049,537.224 533.21,535.166 535.371,533.135 537.532,531.132 539.693,529.155 541.854,527.204 544.015,525.279 546.176,523.379 548.337,521.505 550.498,519.655 552.659,517.83 554.82,516.03 556.981,514.253 559.142,512.499 561.303,510.769 563.464,509.062 565.625,507.377 567.786,505.715 569.947,504.075 572.108,502.457 574.269,500.86 576.43,499.284 578.591,497.729 580.752,496.195 582.913,494.681 585.074,493.187 587.235,491.713 589.396,490.258 591.556,488.823 593.717,487.407 595.878,486.009 598.039,484.63 600.2,483.27 602.361,481.927 604.522,480.602 606.683,479.321 608.844,478.302 611.005,477.424 613.166,476.507 615.327,475.407 617.488,474.018 619.649,472.269 621.81,470.127 623.971,467.597 626.132,464.718 628.293,461.569 630.454,458.265 632.615,454.957 634.776,451.81 636.937,448.747 639.098,445.724 641.259,442.741 643.42,439.798 645.581,436.893 647.742,434.027 649.903,431.199 652.064,428.409 654.225,425.656 656.386,422.939 658.547,420.258 660.708,417.612 662.869,415.002 665.03,412.426 667.191,409.885 669.352,407.377 671.513,404.903 673.674,402.461 675.835,400.052 677.996,397.674 680.157,395.328 682.318,393.014 684.479,390.73 686.64,388.476 688.801,386.252 690.962,384.058 693.123,381.893 695.284,379.756 697.445,377.648 699.606,375.568 701.767,373.515 703.927,371.489 706.088,369.491 708.249,367.519 710.41,365.572 712.571,363.652 714.732,361.757 716.893,359.888 719.054,358.043 721.215,356.222 723.376,354.426 725.537,352.654 727.698,350.905 729.859,349.179 732.02,347.476 734.181,345.796 736.342,344.138 738.503,342.502 740.664,340.887 742.825,339.294 744.986,337.722 747.147,336.171 749.308,334.641 751.469,333.131 753.63,331.641 755.791,330.17 757.952,328.719 760.113,327.288 762.274,325.875 764.435,324.481 766.596,323.106 768.757,321.748 770.918,320.409 773.079,319.088 775.24,317.784 777.401,316.497 779.562,315.227 781.723,313.975 783.884,312.738 786.045,311.519 788.206,310.315 790.367,309.127 792.528,307.955 794.689,306.799 796.85,305.658 799.011,304.532 801.172,303.421 803.333,302.325 805.494,301.243 807.655,300.176 809.816,299.123 811.977,298.083 814.138,297.058 816.298,296.046 818.459,295.048 820.62,294.063 822.781,293.09 824.942,292.131 827.103,291.185 829.264,290.251 831.425,289.329 833.586,288.419 835.747,287.522 837.908,286.637 840.069,285.763 842.23,287.04 844.391,292.276 846.552,298.596 848.713,304.467 850.874,309.814 853.035,315.26 855.196,320.635 857.357,325.94 859.518,331.174 861.679,336.339 863.84,341.436 866.001,346.465 868.162,351.427 870.323,356.323 872.484,361.155 874.645,365.922 876.806,370.626 878.967,375.268 881.128,379.848 883.289,384.368 885.45,388.828 887.611,393.228 889.772,397.57 891.933,401.855 894.094,406.083 896.255,410.255 898.416,414.371 900.577,418.433 902.738,422.441 904.899,426.396 907.06,430.298 909.221,434.149 911.382,437.949 913.543,441.698 915.704,445.397 917.865,449.048 920.026,452.65 922.187,456.204 924.348,459.712 926.509,463.172 928.669,466.587 930.83,469.957 932.991,473.282 935.152,476.563 937.313,479.8 939.474,482.995 941.635,486.147 943.796,489.257 945.957,492.326 948.118,495.354 950.279,498.343 952.44,501.291 954.601,504.201 956.762,507.072 958.923,509.905 961.084,512.7 963.245,515.458 965.406,518.18 967.567,520.865 969.728,523.515 971.889,526.13 974.05,528.71 976.211,531.256 978.372,533.768 980.533,536.247 982.694,538.693 984.855,541.107 987.016,543.488 989.177,545.838 991.338,548.157 993.499,550.445 995.66,552.703 997.821,554.931 999.982,557.129 1002.14,559.299 1004.3,561.439 1006.46,563.551 1008.63,565.635 1010.79,567.692 1012.95,569.721 1015.11,571.723 1017.27,573.699 1019.43,575.648 1021.59,577.572 1023.75,579.47 1025.91,581.343 1028.07,583.191 1030.24,585.015 1032.4,586.814 1034.56,588.59 1036.72,590.342 1038.88,592.071 1041.04,593.777 1043.2,595.46 1045.36,597.121 1047.52,598.76 1049.68,600.377 1051.85,601.973 1054.01,602.711 1056.17,601.784 1058.33,599.427 1060.49,595.862 1062.65,591.297 1064.81,585.922 1066.97,579.912 1069.13,573.428 1071.29,566.614 1073.46,559.598 1075.62,552.494 1077.78,545.399 1079.94,538.395 1082.1,531.549 1084.26,524.912 1086.42,518.52 1088.58,512.391 1090.74,506.532 1092.9,500.929 1095.07,495.557 1097.23,490.373 1099.39,485.32 1101.55,480.323 1103.71,475.294 1105.87,470.164 1108.03,465.074 1110.19,460.05 1112.35,455.094 1114.51,450.203 1116.67,445.377 1118.84,440.614 1121,435.915 1123.16,431.279 1125.32,426.703 1127.48,422.189 1129.64,417.734 1131.8,413.338 1133.96,409.001 1136.12,404.721 1138.28,400.498 1140.45,396.331 1142.61,392.219 1144.77,388.161 1146.93,384.158 1149.09,380.207 1151.25,376.309 1153.41,372.462 1155.57,368.666 1157.73,364.921 1159.89,361.225 1162.06,357.579 1164.22,353.981 1166.38,350.43 1168.54,346.927 1170.7,343.47 1172.86,340.059 1175.02,336.693 1177.18,333.372 1179.34,330.095 1181.5,326.861 1183.67,323.671 1185.83,320.522 1187.99,317.415 1190.15,314.35 1192.31,311.325 1194.47,308.34 1196.63,305.395 1198.79,302.489 1200.95,299.621 1203.11,296.791 1205.28,293.999 1207.44,291.244 1209.6,288.525 1211.76,285.843 1213.92,283.196 1216.08,280.584 1218.24,278.006 1220.4,275.463 1222.56,272.954 1224.72,270.477 1226.88,268.034 1229.05,265.623 1231.21,263.244 1233.37,260.897 1235.53,258.58 1237.69,256.295 1239.85,254.04 1242.01,251.814 1244.17,249.618 1246.33,247.451 1248.49,245.313 1250.66,243.204 1252.82,241.122 1254.98,239.068 1257.14,237.041 1259.3,235.041 1261.46,233.067 1263.62,231.12 1265.78,229.199 1267.94,227.302 1270.1,224.839 1272.27,224.236 1274.43,230.39 1276.59,237.001 1278.75,243.521 1280.91,249.956 1283.07,256.305 1285.23,262.57 1287.39,268.751 1289.55,274.851 1291.71,280.87 1293.88,286.809 1296.04,292.67 1298.2,298.452 1300.36,304.158 1302.52,309.789 1304.68,315.344 1306.84,320.826 1309,326.236 1311.16,331.573 1313.32,336.84 1315.49,342.037 1317.65,347.166 1319.81,352.226 1321.97,357.219 1324.13,362.146 1326.29,367.007 1328.45,371.804 1330.61,376.538 1332.77,381.209 1334.93,385.817 1337.09,390.365 1339.26,394.853 1341.42,399.281 1343.58,403.65 1345.74,407.961 1347.9,412.215 1350.06,416.413 1352.22,420.555 1354.38,424.642 1356.54,428.675 1358.7,432.655 1360.87,436.582 1363.03,440.456 1365.19,444.28 1367.35,448.052 1369.51,451.775 1371.67,455.448 1373.83,459.073 1375.99,462.649 1378.15,466.178 1380.31,469.661 1382.48,473.097 1384.64,476.487 1386.8,479.833 1388.96,483.134 1391.12,486.392 1393.28,489.606 1395.44,492.778 1397.6,495.908 1399.76,498.996 1401.92,502.043 1404.09,505.05 1406.25,508.017 1408.41,510.944 1410.57,513.833 1412.73,516.683 1414.89,519.496 1417.05,522.272 1419.21,525.01 1421.37,527.712 1423.53,530.379 1425.7,533.01 1427.86,535.606 1430.02,538.168 1432.18,540.696 1434.34,543.19 1436.5,545.652 1438.66,548.08 1440.82,550.477 1442.98,552.841 1445.14,555.175 1447.3,557.477 1449.47,559.749 1451.63,561.991 1453.79,564.203 1455.95,566.385 1458.11,568.539 1460.27,570.664 1462.43,572.761 1464.59,574.831 1466.75,576.872 1468.91,578.887 1471.08,580.875 1473.24,582.837 1475.4,584.772 1477.56,586.682 1479.72,588.567 1481.88,590.427 1484.04,592.262 1486.2,594.072 1488.36,595.604 1490.52,595.681 1492.69,594.362 1494.85,591.868 1497.01,588.405 1499.17,584.163 1501.33,579.316 1503.49,574.022 1505.65,568.422 1507.81,562.64 1509.97,556.786 1512.13,550.952 1514.3,545.215 1516.46,539.634 1518.62,534.254 1520.78,529.102 1522.94,524.19 1525.1,519.512 1527.26,515.049 1529.42,510.762 1531.58,506.598 1533.74,502.487 1535.91,498.344 1538.07,494.106 1540.23,489.902 1542.39,485.754 1544.55,481.661 1546.71,477.622 1548.87,473.637 1551.03,469.704 1553.19,465.824 1555.35,461.995 1557.51,458.216 1559.68,454.488 1561.84,450.81 1564,447.18 1566.16,443.598 1568.32,440.064 1570.48,436.576 1572.64,433.135 1574.8,429.739 1576.96,426.388 1579.12,423.082 1581.29,419.819 1583.45,416.6 1585.61,413.424 1587.77,410.289 1589.93,407.197 1592.09,404.145 1594.25,401.133 1596.41,398.162 1598.57,395.23 1600.73,392.337 1602.9,389.483 1605.06,386.666 1607.22,383.887 1609.38,381.144 1611.54,378.438 1613.7,375.768 1615.86,373.133 1618.02,370.533 1620.18,367.967 1622.34,365.436 1624.51,362.938 1626.67,360.473 1628.83,358.041 1630.99,355.641 1633.15,353.273 1635.31,350.937 1637.47,348.631 1639.63,346.356 1641.79,344.111 1643.95,341.895 1646.12,339.709 1648.28,337.552 1650.44,335.424 1652.6,333.324 1654.76,331.252 1656.92,329.207 1659.08,327.189 1661.24,325.198 1663.4,323.234 1665.56,321.295 1667.72,319.382 1669.89,317.495 1672.05,315.632 1674.21,313.795 1676.37,311.981 1678.53,310.192 1680.69,308.427 1682.85,306.684 1685.01,304.965 1687.17,303.269 1689.33,301.595 1691.5,299.944 1693.66,298.314 1695.82,296.754 1697.98,295.358 1700.14,294.115 1702.3,293.008 1704.46,292.025 1706.62,291.15 1708.78,290.373 1710.94,289.679 1713.11,289.058 1715.27,288.499 1717.43,287.992 1719.59,287.528 1721.75,287.098 1723.91,286.695 1726.07,286.312 1728.23,285.941 1730.39,285.579 1732.55,285.219 1734.72,284.858 1736.88,284.492 1739.04,284.119 1741.2,283.737 1743.36,283.344 1745.52,282.941 1747.68,282.527 1749.84,282.103 1752,281.671 1754.16,281.233 1756.33,280.794 1758.49,280.356 1760.65,279.924 1762.81,279.504 1764.97,279.101 1767.13,278.719 1769.29,278.344 1771.45,277.974 1773.61,277.608 1775.77,277.248 1777.93,276.892 1780.1,276.541 1782.26,276.194 1784.42,275.852 1786.58,275.515 1788.74,275.182 1790.9,274.854 1793.06,274.53 1795.22,274.21 1797.38,273.894 1799.54,273.583 1801.71,273.276 1803.87,272.973 1806.03,272.674 1808.19,272.378 1810.35,272.087 1812.51,271.8 1814.67,271.516 1816.83,271.236 1818.99,270.96 1821.15,270.688 1823.32,270.419 1825.48,270.154 1827.64,269.892 1829.8,269.634 1831.96,269.379 1834.12,269.127 1836.28,268.879 1838.44,268.634 1840.6,268.393 1842.76,268.154 1844.93,267.919 1847.09,267.687 1849.25,267.458 1851.41,267.232 1853.57,267.009 1855.73,266.789 1857.89,266.571 1860.05,266.357 1862.21,266.146 1864.37,265.937 1866.54,265.731 1868.7,265.528 1870.86,265.328 1873.02,265.13 1875.18,264.935 1877.34,264.742 1879.5,264.552 1881.66,264.365 1883.82,264.18 1885.98,263.997 1888.15,263.817 1890.31,263.639 1892.47,263.464 1894.63,263.291 1896.79,263.12 1898.95,262.952 1901.11,262.785 1903.27,262.621 1905.43,262.459 1907.59,262.3 1909.75,262.142 1911.92,261.987 1914.08,261.833 1916.24,261.682 1918.4,261.766 1920.56,262.533 1922.72,263.912 1924.88,265.82 1927.04,268.176 1929.2,270.909 1931.36,273.949 1933.53,277.233 1935.69,280.703 1937.85,284.305 1940.01,287.992 1942.17,291.72 1944.33,295.452 1946.49,299.154 1948.65,302.799 1950.81,306.364 1952.97,309.831 1955.14,313.188 1957.3,316.428 1959.46,319.547 1961.62,322.549 1963.78,325.442 1965.94,328.238 1968.1,330.956 1970.26,333.618 1972.42,336.252 1974.58,338.892 1976.75,341.57 1978.91,344.234 1981.07,346.862 1983.23,349.456 1985.39,352.015 1987.55,354.54 1989.71,357.032 1991.87,359.49 1994.03,361.916 1996.19,364.31 1998.36,366.672 2000.52,369.003 2002.68,371.303 2004.84,373.573 2007,375.812 2009.16,378.022 2011.32,380.202 2013.48,382.354 2015.64,384.477 2017.8,386.572 2019.96,388.639 2022.13,390.679 2024.29,392.691 2026.45,394.677 2028.61,396.637 2030.77,398.57 2032.93,400.478 2035.09,402.361 2037.25,404.219 2039.41,406.052 2041.57,407.86 2043.74,409.645 2045.9,411.406 2048.06,413.144 2050.22,414.859 2052.38,416.551 2054.54,418.22 2056.7,419.867 2058.86,421.493 2061.02,423.097 2063.18,424.68 2065.35,426.241 2067.51,427.782 2069.67,429.303 2071.83,430.803 2073.99,432.284 2076.15,433.745 2078.31,435.187 2080.47,436.609 2082.63,438.013 2084.79,439.398 2086.96,440.764 2089.12,442.113 2091.28,443.444 2093.44,444.757 2095.6,446.052 2097.76,447.331 2099.92,448.592 2102.08,449.837 2104.24,451.065 2106.4,452.277 2108.57,453.473 2110.73,454.653 2112.89,455.817 2115.05,456.966 2117.21,458.1 2119.37,459.219 2121.53,460.323 2123.69,461.412 2125.85,462.487 2128.01,463.547 2130.17,464.594 2132.34,465.626 2134.5,466.645 2136.66,468.499 2138.82,473.016 2140.98,479.804 2143.14,488.411 2145.3,498.427 2147.46,509.481 2149.62,521.244 2151.78,533.428 2153.95,545.784 2156.11,558.108 2158.27,570.232 2160.43,582.032 2162.59,593.425 2164.75,604.368 2166.91,614.858 2169.07,624.935 2171.23,634.679 2173.39,644.211 2175.56,653.692 2177.72,663.297 2179.88,672.855 2182.04,682.287 2184.2,691.593 2186.36,700.777 2188.52,709.838 2190.68,718.779 2192.84,727.602 2195,736.307 2197.17,744.898 2199.33,753.374 2201.49,761.738 2203.65,769.992 2205.81,778.136 2207.97,786.172 2210.13,794.102 2212.29,801.926 2214.45,809.647 2216.61,817.265 2218.78,824.783 2220.94,832.2 2223.1,839.519 2225.26,846.742 2227.42,853.868 2229.58,860.899 2231.74,867.838 2233.9,874.684 2236.06,881.44 2238.22,888.106 2240.38,894.683 2242.55,901.173 2244.71,907.577 2246.87,913.897 2249.03,920.132 2251.19,926.285 2253.35,932.356 2255.51,938.347 2257.67,944.258 2259.83,950.091 2261.99,955.847 2264.16,961.526 2266.32,967.13 2268.48,972.66 2270.64,978.117 2272.8,983.501 2274.96,988.814 2277.12,994.057 2279.28,999.23 2281.44,1004.33 2283.6,1009.37 2285.77,1014.34 2287.93,1019.25 2290.09,1024.08 2292.25,1028.86 2294.41,1033.57 2296.57,1038.22 2298.73,1042.81 2300.89,1047.33 2303.05,1051.8 2305.21,1056.21 2307.38,1060.56 2309.54,1064.85 2311.7,1069.08 2313.86,1073.26 2316.02,1077.38 2318.18,1081.45 2320.34,1085.47 2322.5,1089.43 2324.66,1093.34 2326.82,1097.19 2328.99,1101 2331.15,1104.75 2333.31,1108.46 2335.47,1112.12 2337.63,1115.72 2339.79,1119.28 2341.95,1122.8 2344.11,1126.26 2346.27,1129.68 2348.43,1133.06 2350.59,1136.39 2352.76,1139.67 "/>
<polyline clip-path="url(#clip312)" style="stroke:#e26f46; stroke-linecap:round; stroke-linejoin:round; stroke-width:4; stroke-opacity:1; fill:none" points="193.936,857.608 196.097,857.608 198.258,857.608 200.419,857.608 202.58,857.608 204.741,857.608 206.902,857.608 209.063,857.608 211.224,857.608 213.385,857.608 215.546,857.608 217.707,857.608 219.868,857.608 222.029,857.608 224.19,857.608 226.351,857.608 228.512,857.608 230.673,857.608 232.834,857.608 234.995,857.608 237.156,857.608 239.317,857.608 241.478,857.608 243.639,857.608 245.8,857.608 247.961,857.608 250.122,857.608 252.282,857.608 254.443,857.608 256.604,857.608 258.765,857.608 260.926,857.608 263.087,857.608 265.248,857.608 267.409,857.608 269.57,857.608 271.731,857.608 273.892,857.608 276.053,857.608 278.214,857.608 280.375,857.608 282.536,857.608 284.697,857.608 286.858,857.608 289.019,857.608 291.18,857.608 293.341,857.608 295.502,857.608 297.663,857.608 299.824,857.608 301.985,857.608 304.146,857.608 306.307,857.608 308.468,857.608 310.629,857.608 312.79,857.608 314.951,857.608 317.112,857.608 319.273,857.608 321.434,857.608 323.595,857.608 325.756,857.608 327.917,857.608 330.078,857.608 332.239,857.608 334.4,857.608 336.561,857.608 338.722,857.608 340.883,857.608 343.044,857.608 345.205,857.608 347.366,857.608 349.527,857.608 351.688,857.608 353.849,857.608 356.01,857.608 358.171,857.608 360.332,857.608 362.493,857.608 364.653,857.608 366.814,857.608 368.975,857.608 371.136,857.608 373.297,857.608 375.458,857.608 377.619,857.608 379.78,857.608 381.941,857.608 384.102,857.608 386.263,857.608 388.424,857.608 390.585,857.608 392.746,857.608 394.907,857.608 397.068,857.608 399.229,857.608 401.39,857.608 403.551,857.608 405.712,857.608 407.873,857.608 410.034,382.002 412.195,382.002 414.356,382.002 416.517,382.002 418.678,382.002 420.839,382.002 423,382.002 425.161,382.002 427.322,382.002 429.483,382.002 431.644,382.002 433.805,382.002 435.966,382.002 438.127,382.002 440.288,382.002 442.449,382.002 444.61,382.002 446.771,382.002 448.932,382.002 451.093,382.002 453.254,382.002 455.415,382.002 457.576,382.002 459.737,382.002 461.898,382.002 464.059,382.002 466.22,382.002 468.381,382.002 470.542,382.002 472.703,382.002 474.864,382.002 477.024,382.002 479.185,382.002 481.346,382.002 483.507,382.002 485.668,382.002 487.829,382.002 489.99,382.002 492.151,382.002 494.312,382.002 496.473,382.002 498.634,382.002 500.795,382.002 502.956,382.002 505.117,382.002 507.278,382.002 509.439,382.002 511.6,382.002 513.761,382.002 515.922,382.002 518.083,382.002 520.244,382.002 522.405,382.002 524.566,382.002 526.727,382.002 528.888,382.002 531.049,382.002 533.21,382.002 535.371,382.002 537.532,382.002 539.693,382.002 541.854,382.002 544.015,382.002 546.176,382.002 548.337,382.002 550.498,382.002 552.659,382.002 554.82,382.002 556.981,382.002 559.142,382.002 561.303,382.002 563.464,382.002 565.625,382.002 567.786,382.002 569.947,382.002 572.108,382.002 574.269,382.002 576.43,382.002 578.591,382.002 580.752,382.002 582.913,382.002 585.074,382.002 587.235,382.002 589.396,382.002 591.556,382.002 593.717,382.002 595.878,382.002 598.039,382.002 600.2,382.002 602.361,382.002 604.522,382.002 606.683,382.002 608.844,382.002 611.005,382.002 613.166,382.002 615.327,382.002 617.488,382.002 619.649,382.002 621.81,382.002 623.971,382.002 626.132,220.736 628.293,220.736 630.454,220.736 632.615,220.736 634.776,220.736 636.937,220.736 639.098,220.736 641.259,220.736 643.42,220.736 645.581,220.736 647.742,220.736 649.903,220.736 652.064,220.736 654.225,220.736 656.386,220.736 658.547,220.736 660.708,220.736 662.869,220.736 665.03,220.736 667.191,220.736 669.352,220.736 671.513,220.736 673.674,220.736 675.835,220.736 677.996,220.736 680.157,220.736 682.318,220.736 684.479,220.736 686.64,220.736 688.801,220.736 690.962,220.736 693.123,220.736 695.284,220.736 697.445,220.736 699.606,220.736 701.767,220.736 703.927,220.736 706.088,220.736 708.249,220.736 710.41,220.736 712.571,220.736 714.732,220.736 716.893,220.736 719.054,220.736 721.215,220.736 723.376,220.736 725.537,220.736 727.698,220.736 729.859,220.736 732.02,220.736 734.181,220.736 736.342,220.736 738.503,220.736 740.664,220.736 742.825,220.736 744.986,220.736 747.147,220.736 749.308,220.736 751.469,220.736 753.63,220.736 755.791,220.736 757.952,220.736 760.113,220.736 762.274,220.736 764.435,220.736 766.596,220.736 768.757,220.736 770.918,220.736 773.079,220.736 775.24,220.736 777.401,220.736 779.562,220.736 781.723,220.736 783.884,220.736 786.045,220.736 788.206,220.736 790.367,220.736 792.528,220.736 794.689,220.736 796.85,220.736 799.011,220.736 801.172,220.736 803.333,220.736 805.494,220.736 807.655,220.736 809.816,220.736 811.977,220.736 814.138,220.736 816.298,220.736 818.459,220.736 820.62,220.736 822.781,220.736 824.942,220.736 827.103,220.736 829.264,220.736 831.425,220.736 833.586,220.736 835.747,220.736 837.908,220.736 840.069,220.736 842.23,720.743 844.391,720.743 846.552,720.743 848.713,720.743 850.874,720.743 853.035,720.743 855.196,720.743 857.357,720.743 859.518,720.743 861.679,720.743 863.84,720.743 866.001,720.743 868.162,720.743 870.323,720.743 872.484,720.743 874.645,720.743 876.806,720.743 878.967,720.743 881.128,720.743 883.289,720.743 885.45,720.743 887.611,720.743 889.772,720.743 891.933,720.743 894.094,720.743 896.255,720.743 898.416,720.743 900.577,720.743 902.738,720.743 904.899,720.743 907.06,720.743 909.221,720.743 911.382,720.743 913.543,720.743 915.704,720.743 917.865,720.743 920.026,720.743 922.187,720.743 924.348,720.743 926.509,720.743 928.669,720.743 930.83,720.743 932.991,720.743 935.152,720.743 937.313,720.743 939.474,720.743 941.635,720.743 943.796,720.743 945.957,720.743 948.118,720.743 950.279,720.743 952.44,720.743 954.601,720.743 956.762,720.743 958.923,720.743 961.084,720.743 963.245,720.743 965.406,720.743 967.567,720.743 969.728,720.743 971.889,720.743 974.05,720.743 976.211,720.743 978.372,720.743 980.533,720.743 982.694,720.743 984.855,720.743 987.016,720.743 989.177,720.743 991.338,720.743 993.499,720.743 995.66,720.743 997.821,720.743 999.982,720.743 1002.14,720.743 1004.3,720.743 1006.46,720.743 1008.63,720.743 1010.79,720.743 1012.95,720.743 1015.11,720.743 1017.27,720.743 1019.43,720.743 1021.59,720.743 1023.75,720.743 1025.91,720.743 1028.07,720.743 1030.24,720.743 1032.4,720.743 1034.56,720.743 1036.72,720.743 1038.88,720.743 1041.04,720.743 1043.2,720.743 1045.36,720.743 1047.52,720.743 1049.68,720.743 1051.85,720.743 1054.01,720.743 1056.17,720.743 1058.33,86.1857 1060.49,86.1857 1062.65,86.1857 1064.81,86.1857 1066.97,86.1857 1069.13,86.1857 1071.29,86.1857 1073.46,86.1857 1075.62,86.1857 1077.78,86.1857 1079.94,86.1857 1082.1,86.1857 1084.26,86.1857 1086.42,86.1857 1088.58,86.1857 1090.74,86.1857 1092.9,86.1857 1095.07,86.1857 1097.23,86.1857 1099.39,86.1857 1101.55,86.1857 1103.71,86.1857 1105.87,86.1857 1108.03,86.1857 1110.19,86.1857 1112.35,86.1857 1114.51,86.1857 1116.67,86.1857 1118.84,86.1857 1121,86.1857 1123.16,86.1857 1125.32,86.1857 1127.48,86.1857 1129.64,86.1857 1131.8,86.1857 1133.96,86.1857 1136.12,86.1857 1138.28,86.1857 1140.45,86.1857 1142.61,86.1857 1144.77,86.1857 1146.93,86.1857 1149.09,86.1857 1151.25,86.1857 1153.41,86.1857 1155.57,86.1857 1157.73,86.1857 1159.89,86.1857 1162.06,86.1857 1164.22,86.1857 1166.38,86.1857 1168.54,86.1857 1170.7,86.1857 1172.86,86.1857 1175.02,86.1857 1177.18,86.1857 1179.34,86.1857 1181.5,86.1857 1183.67,86.1857 1185.83,86.1857 1187.99,86.1857 1190.15,86.1857 1192.31,86.1857 1194.47,86.1857 1196.63,86.1857 1198.79,86.1857 1200.95,86.1857 1203.11,86.1857 1205.28,86.1857 1207.44,86.1857 1209.6,86.1857 1211.76,86.1857 1213.92,86.1857 1216.08,86.1857 1218.24,86.1857 1220.4,86.1857 1222.56,86.1857 1224.72,86.1857 1226.88,86.1857 1229.05,86.1857 1231.21,86.1857 1233.37,86.1857 1235.53,86.1857 1237.69,86.1857 1239.85,86.1857 1242.01,86.1857 1244.17,86.1857 1246.33,86.1857 1248.49,86.1857 1250.66,86.1857 1252.82,86.1857 1254.98,86.1857 1257.14,86.1857 1259.3,86.1857 1261.46,86.1857 1263.62,86.1857 1265.78,86.1857 1267.94,86.1857 1270.1,86.1857 1272.27,86.1857 1274.43,728.835 1276.59,728.835 1278.75,728.835 1280.91,728.835 1283.07,728.835 1285.23,728.835 1287.39,728.835 1289.55,728.835 1291.71,728.835 1293.88,728.835 1296.04,728.835 1298.2,728.835 1300.36,728.835 1302.52,728.835 1304.68,728.835 1306.84,728.835 1309,728.835 1311.16,728.835 1313.32,728.835 1315.49,728.835 1317.65,728.835 1319.81,728.835 1321.97,728.835 1324.13,728.835 1326.29,728.835 1328.45,728.835 1330.61,728.835 1332.77,728.835 1334.93,728.835 1337.09,728.835 1339.26,728.835 1341.42,728.835 1343.58,728.835 1345.74,728.835 1347.9,728.835 1350.06,728.835 1352.22,728.835 1354.38,728.835 1356.54,728.835 1358.7,728.835 1360.87,728.835 1363.03,728.835 1365.19,728.835 1367.35,728.835 1369.51,728.835 1371.67,728.835 1373.83,728.835 1375.99,728.835 1378.15,728.835 1380.31,728.835 1382.48,728.835 1384.64,728.835 1386.8,728.835 1388.96,728.835 1391.12,728.835 1393.28,728.835 1395.44,728.835 1397.6,728.835 1399.76,728.835 1401.92,728.835 1404.09,728.835 1406.25,728.835 1408.41,728.835 1410.57,728.835 1412.73,728.835 1414.89,728.835 1417.05,728.835 1419.21,728.835 1421.37,728.835 1423.53,728.835 1425.7,728.835 1427.86,728.835 1430.02,728.835 1432.18,728.835 1434.34,728.835 1436.5,728.835 1438.66,728.835 1440.82,728.835 1442.98,728.835 1445.14,728.835 1447.3,728.835 1449.47,728.835 1451.63,728.835 1453.79,728.835 1455.95,728.835 1458.11,728.835 1460.27,728.835 1462.43,728.835 1464.59,728.835 1466.75,728.835 1468.91,728.835 1471.08,728.835 1473.24,728.835 1475.4,728.835 1477.56,728.835 1479.72,728.835 1481.88,728.835 1484.04,728.835 1486.2,728.835 1488.36,728.835 1490.52,177.02 1492.69,177.02 1494.85,177.02 1497.01,177.02 1499.17,177.02 1501.33,177.02 1503.49,177.02 1505.65,177.02 1507.81,177.02 1509.97,177.02 1512.13,177.02 1514.3,177.02 1516.46,177.02 1518.62,177.02 1520.78,177.02 1522.94,177.02 1525.1,177.02 1527.26,177.02 1529.42,177.02 1531.58,177.02 1533.74,177.02 1535.91,177.02 1538.07,177.02 1540.23,177.02 1542.39,177.02 1544.55,177.02 1546.71,177.02 1548.87,177.02 1551.03,177.02 1553.19,177.02 1555.35,177.02 1557.51,177.02 1559.68,177.02 1561.84,177.02 1564,177.02 1566.16,177.02 1568.32,177.02 1570.48,177.02 1572.64,177.02 1574.8,177.02 1576.96,177.02 1579.12,177.02 1581.29,177.02 1583.45,177.02 1585.61,177.02 1587.77,177.02 1589.93,177.02 1592.09,177.02 1594.25,177.02 1596.41,177.02 1598.57,177.02 1600.73,177.02 1602.9,177.02 1605.06,177.02 1607.22,177.02 1609.38,177.02 1611.54,177.02 1613.7,177.02 1615.86,177.02 1618.02,177.02 1620.18,177.02 1622.34,177.02 1624.51,177.02 1626.67,177.02 1628.83,177.02 1630.99,177.02 1633.15,177.02 1635.31,177.02 1637.47,177.02 1639.63,177.02 1641.79,177.02 1643.95,177.02 1646.12,177.02 1648.28,177.02 1650.44,177.02 1652.6,177.02 1654.76,177.02 1656.92,177.02 1659.08,177.02 1661.24,177.02 1663.4,177.02 1665.56,177.02 1667.72,177.02 1669.89,177.02 1672.05,177.02 1674.21,177.02 1676.37,177.02 1678.53,177.02 1680.69,177.02 1682.85,177.02 1685.01,177.02 1687.17,177.02 1689.33,177.02 1691.5,177.02 1693.66,177.02 1695.82,177.02 1697.98,177.02 1700.14,177.02 1702.3,177.02 1704.46,177.02 1706.62,250.41 1708.78,250.41 1710.94,250.41 1713.11,250.41 1715.27,250.41 1717.43,250.41 1719.59,250.41 1721.75,250.41 1723.91,250.41 1726.07,250.41 1728.23,250.41 1730.39,250.41 1732.55,250.41 1734.72,250.41 1736.88,250.41 1739.04,250.41 1741.2,250.41 1743.36,250.41 1745.52,250.41 1747.68,250.41 1749.84,250.41 1752,250.41 1754.16,250.41 1756.33,250.41 1758.49,250.41 1760.65,250.41 1762.81,250.41 1764.97,250.41 1767.13,250.41 1769.29,250.41 1771.45,250.41 1773.61,250.41 1775.77,250.41 1777.93,250.41 1780.1,250.41 1782.26,250.41 1784.42,250.41 1786.58,250.41 1788.74,250.41 1790.9,250.41 1793.06,250.41 1795.22,250.41 1797.38,250.41 1799.54,250.41 1801.71,250.41 1803.87,250.41 1806.03,250.41 1808.19,250.41 1810.35,250.41 1812.51,250.41 1814.67,250.41 1816.83,250.41 1818.99,250.41 1821.15,250.41 1823.32,250.41 1825.48,250.41 1827.64,250.41 1829.8,250.41 1831.96,250.41 1834.12,250.41 1836.28,250.41 1838.44,250.41 1840.6,250.41 1842.76,250.41 1844.93,250.41 1847.09,250.41 1849.25,250.41 1851.41,250.41 1853.57,250.41 1855.73,250.41 1857.89,250.41 1860.05,250.41 1862.21,250.41 1864.37,250.41 1866.54,250.41 1868.7,250.41 1870.86,250.41 1873.02,250.41 1875.18,250.41 1877.34,250.41 1879.5,250.41 1881.66,250.41 1883.82,250.41 1885.98,250.41 1888.15,250.41 1890.31,250.41 1892.47,250.41 1894.63,250.41 1896.79,250.41 1898.95,250.41 1901.11,250.41 1903.27,250.41 1905.43,250.41 1907.59,250.41 1909.75,250.41 1911.92,250.41 1914.08,250.41 1916.24,250.41 1918.4,250.41 1920.56,250.41 1922.72,542.479 1924.88,542.479 1927.04,542.479 1929.2,542.479 1931.36,542.479 1933.53,542.479 1935.69,542.479 1937.85,542.479 1940.01,542.479 1942.17,542.479 1944.33,542.479 1946.49,542.479 1948.65,542.479 1950.81,542.479 1952.97,542.479 1955.14,542.479 1957.3,542.479 1959.46,542.479 1961.62,542.479 1963.78,542.479 1965.94,542.479 1968.1,542.479 1970.26,542.479 1972.42,542.479 1974.58,542.479 1976.75,542.479 1978.91,542.479 1981.07,542.479 1983.23,542.479 1985.39,542.479 1987.55,542.479 1989.71,542.479 1991.87,542.479 1994.03,542.479 1996.19,542.479 1998.36,542.479 2000.52,542.479 2002.68,542.479 2004.84,542.479 2007,542.479 2009.16,542.479 2011.32,542.479 2013.48,542.479 2015.64,542.479 2017.8,542.479 2019.96,542.479 2022.13,542.479 2024.29,542.479 2026.45,542.479 2028.61,542.479 2030.77,542.479 2032.93,542.479 2035.09,542.479 2037.25,542.479 2039.41,542.479 2041.57,542.479 2043.74,542.479 2045.9,542.479 2048.06,542.479 2050.22,542.479 2052.38,542.479 2054.54,542.479 2056.7,542.479 2058.86,542.479 2061.02,542.479 2063.18,542.479 2065.35,542.479 2067.51,542.479 2069.67,542.479 2071.83,542.479 2073.99,542.479 2076.15,542.479 2078.31,542.479 2080.47,542.479 2082.63,542.479 2084.79,542.479 2086.96,542.479 2089.12,542.479 2091.28,542.479 2093.44,542.479 2095.6,542.479 2097.76,542.479 2099.92,542.479 2102.08,542.479 2104.24,542.479 2106.4,542.479 2108.57,542.479 2110.73,542.479 2112.89,542.479 2115.05,542.479 2117.21,542.479 2119.37,542.479 2121.53,542.479 2123.69,542.479 2125.85,542.479 2128.01,542.479 2130.17,542.479 2132.34,542.479 2134.5,542.479 2136.66,542.479 2138.82,1384.24 2140.98,1384.24 2143.14,1384.24 2145.3,1384.24 2147.46,1384.24 2149.62,1384.24 2151.78,1384.24 2153.95,1384.24 2156.11,1384.24 2158.27,1384.24 2160.43,1384.24 2162.59,1384.24 2164.75,1384.24 2166.91,1384.24 2169.07,1384.24 2171.23,1384.24 2173.39,1384.24 2175.56,1384.24 2177.72,1384.24 2179.88,1384.24 2182.04,1384.24 2184.2,1384.24 2186.36,1384.24 2188.52,1384.24 2190.68,1384.24 2192.84,1384.24 2195,1384.24 2197.17,1384.24 2199.33,1384.24 2201.49,1384.24 2203.65,1384.24 2205.81,1384.24 2207.97,1384.24 2210.13,1384.24 2212.29,1384.24 2214.45,1384.24 2216.61,1384.24 2218.78,1384.24 2220.94,1384.24 2223.1,1384.24 2225.26,1384.24 2227.42,1384.24 2229.58,1384.24 2231.74,1384.24 2233.9,1384.24 2236.06,1384.24 2238.22,1384.24 2240.38,1384.24 2242.55,1384.24 2244.71,1384.24 2246.87,1384.24 2249.03,1384.24 2251.19,1384.24 2253.35,1384.24 2255.51,1384.24 2257.67,1384.24 2259.83,1384.24 2261.99,1384.24 2264.16,1384.24 2266.32,1384.24 2268.48,1384.24 2270.64,1384.24 2272.8,1384.24 2274.96,1384.24 2277.12,1384.24 2279.28,1384.24 2281.44,1384.24 2283.6,1384.24 2285.77,1384.24 2287.93,1384.24 2290.09,1384.24 2292.25,1384.24 2294.41,1384.24 2296.57,1384.24 2298.73,1384.24 2300.89,1384.24 2303.05,1384.24 2305.21,1384.24 2307.38,1384.24 2309.54,1384.24 2311.7,1384.24 2313.86,1384.24 2316.02,1384.24 2318.18,1384.24 2320.34,1384.24 2322.5,1384.24 2324.66,1384.24 2326.82,1384.24 2328.99,1384.24 2331.15,1384.24 2333.31,1384.24 2335.47,1384.24 2337.63,1384.24 2339.79,1384.24 2341.95,1384.24 2344.11,1384.24 2346.27,1384.24 2348.43,1384.24 2350.59,1384.24 2352.76,1384.24 "/>
<path clip-path="url(#clip310)" d="M265.897 1377.32 L506.917 1377.32 L506.917 1221.8 L265.897 1221.8  Z" fill="#ffffff" fill-rule="evenodd" fill-opacity="1"/>
<polyline clip-path="url(#clip310)" style="stroke:#000000; stroke-linecap:round; stroke-linejoin:round; stroke-width:4; stroke-opacity:1; fill:none" points="265.897,1377.32 506.917,1377.32 506.917,1221.8 265.897,1221.8 265.897,1377.32 "/>
<polyline clip-path="url(#clip310)" style="stroke:#009af9; stroke-linecap:round; stroke-linejoin:round; stroke-width:4; stroke-opacity:1; fill:none" points="289.884,1273.64 433.805,1273.64 "/>
<path clip-path="url(#clip310)" d="M482.444 1264.99 L473.069 1277.61 L482.931 1290.92 L477.907 1290.92 L470.361 1280.73 L462.815 1290.92 L457.792 1290.92 L467.861 1277.35 L458.648 1264.99 L463.671 1264.99 L470.546 1274.23 L477.421 1264.99 L482.444 1264.99 Z" fill="#000000" fill-rule="nonzero" fill-opacity="1" /><polyline clip-path="url(#clip310)" style="stroke:#e26f46; stroke-linecap:round; stroke-linejoin:round; stroke-width:4; stroke-opacity:1; fill:none" points="289.884,1325.48 433.805,1325.48 "/>
<path clip-path="url(#clip310)" d="M474.296 1306.74 L474.296 1310.28 L470.222 1310.28 Q467.931 1310.28 467.028 1311.2 Q466.148 1312.13 466.148 1314.54 L466.148 1316.83 L473.162 1316.83 L473.162 1320.14 L466.148 1320.14 L466.148 1342.76 L461.866 1342.76 L461.866 1320.14 L457.792 1320.14 L457.792 1316.83 L461.866 1316.83 L461.866 1315.02 Q461.866 1310.7 463.88 1308.73 Q465.894 1306.74 470.269 1306.74 L474.296 1306.74 Z" fill="#000000" fill-rule="nonzero" fill-opacity="1" /></svg>
