<?xml version="1.0" encoding="utf-8"?>
<svg xmlns="http://www.w3.org/2000/svg" xmlns:xlink="http://www.w3.org/1999/xlink" width="600" height="400" viewBox="0 0 2400 1600">
<defs>
  <clipPath id="clip450">
    <rect x="0" y="0" width="2400" height="1600"/>
  </clipPath>
</defs>
<path clip-path="url(#clip450)" d="M0 1600 L2400 1600 L2400 0 L0 0  Z" fill="#ffffff" fill-rule="evenodd" fill-opacity="1"/>
<defs>
  <clipPath id="clip451">
    <rect x="480" y="0" width="1681" height="1600"/>
  </clipPath>
</defs>
<path clip-path="url(#clip450)" d="M147.478 1423.18 L2352.76 1423.18 L2352.76 47.2441 L147.478 47.2441  Z" fill="#ffffff" fill-rule="evenodd" fill-opacity="1"/>
<defs>
  <clipPath id="clip452">
    <rect x="147" y="47" width="2206" height="1377"/>
  </clipPath>
</defs>
<polyline clip-path="url(#clip452)" style="stroke:#000000; stroke-linecap:round; stroke-linejoin:round; stroke-width:2; stroke-opacity:0.1; fill:none" points="147.478,1423.18 147.478,47.2441 "/>
<polyline clip-path="url(#clip452)" style="stroke:#000000; stroke-linecap:round; stroke-linejoin:round; stroke-width:2; stroke-opacity:0.1; fill:none" points="588.534,1423.18 588.534,47.2441 "/>
<polyline clip-path="url(#clip452)" style="stroke:#000000; stroke-linecap:round; stroke-linejoin:round; stroke-width:2; stroke-opacity:0.1; fill:none" points="1029.59,1423.18 1029.59,47.2441 "/>
<polyline clip-path="url(#clip452)" style="stroke:#000000; stroke-linecap:round; stroke-linejoin:round; stroke-width:2; stroke-opacity:0.1; fill:none" points="1470.64,1423.18 1470.64,47.2441 "/>
<polyline clip-path="url(#clip452)" style="stroke:#000000; stroke-linecap:round; stroke-linejoin:round; stroke-width:2; stroke-opacity:0.1; fill:none" points="1911.7,1423.18 1911.7,47.2441 "/>
<polyline clip-path="url(#clip452)" style="stroke:#000000; stroke-linecap:round; stroke-linejoin:round; stroke-width:2; stroke-opacity:0.1; fill:none" points="2352.76,1423.18 2352.76,47.2441 "/>
<polyline clip-path="url(#clip452)" style="stroke:#000000; stroke-linecap:round; stroke-linejoin:round; stroke-width:2; stroke-opacity:0.1; fill:none" points="147.478,1357.22 2352.76,1357.22 "/>
<polyline clip-path="url(#clip452)" style="stroke:#000000; stroke-linecap:round; stroke-linejoin:round; stroke-width:2; stroke-opacity:0.1; fill:none" points="147.478,946.362 2352.76,946.362 "/>
<polyline clip-path="url(#clip452)" style="stroke:#000000; stroke-linecap:round; stroke-linejoin:round; stroke-width:2; stroke-opacity:0.1; fill:none" points="147.478,535.504 2352.76,535.504 "/>
<polyline clip-path="url(#clip452)" style="stroke:#000000; stroke-linecap:round; stroke-linejoin:round; stroke-width:2; stroke-opacity:0.1; fill:none" points="147.478,124.646 2352.76,124.646 "/>
<polyline clip-path="url(#clip450)" style="stroke:#000000; stroke-linecap:round; stroke-linejoin:round; stroke-width:4; stroke-opacity:1; fill:none" points="147.478,1423.18 2352.76,1423.18 "/>
<polyline clip-path="url(#clip450)" style="stroke:#000000; stroke-linecap:round; stroke-linejoin:round; stroke-width:4; stroke-opacity:1; fill:none" points="147.478,1423.18 147.478,1404.28 "/>
<polyline clip-path="url(#clip450)" style="stroke:#000000; stroke-linecap:round; stroke-linejoin:round; stroke-width:4; stroke-opacity:1; fill:none" points="588.534,1423.18 588.534,1404.28 "/>
<polyline clip-path="url(#clip450)" style="stroke:#000000; stroke-linecap:round; stroke-linejoin:round; stroke-width:4; stroke-opacity:1; fill:none" points="1029.59,1423.18 1029.59,1404.28 "/>
<polyline clip-path="url(#clip450)" style="stroke:#000000; stroke-linecap:round; stroke-linejoin:round; stroke-width:4; stroke-opacity:1; fill:none" points="1470.64,1423.18 1470.64,1404.28 "/>
<polyline clip-path="url(#clip450)" style="stroke:#000000; stroke-linecap:round; stroke-linejoin:round; stroke-width:4; stroke-opacity:1; fill:none" points="1911.7,1423.18 1911.7,1404.28 "/>
<polyline clip-path="url(#clip450)" style="stroke:#000000; stroke-linecap:round; stroke-linejoin:round; stroke-width:4; stroke-opacity:1; fill:none" points="2352.76,1423.18 2352.76,1404.28 "/>
<path clip-path="url(#clip450)" d="M147.478 1454.1 Q143.867 1454.1 142.038 1457.66 Q140.233 1461.2 140.233 1468.33 Q140.233 1475.44 142.038 1479.01 Q143.867 1482.55 147.478 1482.55 Q151.112 1482.55 152.918 1479.01 Q154.746 1475.44 154.746 1468.33 Q154.746 1461.2 152.918 1457.66 Q151.112 1454.1 147.478 1454.1 M147.478 1450.39 Q153.288 1450.39 156.344 1455 Q159.422 1459.58 159.422 1468.33 Q159.422 1477.06 156.344 1481.67 Q153.288 1486.25 147.478 1486.25 Q141.668 1486.25 138.589 1481.67 Q135.534 1477.06 135.534 1468.33 Q135.534 1459.58 138.589 1455 Q141.668 1450.39 147.478 1450.39 Z" fill="#000000" fill-rule="nonzero" fill-opacity="1" /><path clip-path="url(#clip450)" d="M583.186 1481.64 L599.506 1481.64 L599.506 1485.58 L577.561 1485.58 L577.561 1481.64 Q580.223 1478.89 584.807 1474.26 Q589.413 1469.61 590.594 1468.27 Q592.839 1465.74 593.719 1464.01 Q594.621 1462.25 594.621 1460.56 Q594.621 1457.8 592.677 1456.07 Q590.756 1454.33 587.654 1454.33 Q585.455 1454.33 583.001 1455.09 Q580.571 1455.86 577.793 1457.41 L577.793 1452.69 Q580.617 1451.55 583.071 1450.97 Q585.524 1450.39 587.561 1450.39 Q592.932 1450.39 596.126 1453.08 Q599.32 1455.77 599.32 1460.26 Q599.32 1462.39 598.51 1464.31 Q597.723 1466.2 595.617 1468.8 Q595.038 1469.47 591.936 1472.69 Q588.834 1475.88 583.186 1481.64 Z" fill="#000000" fill-rule="nonzero" fill-opacity="1" /><path clip-path="url(#clip450)" d="M1032.6 1455.09 L1020.79 1473.54 L1032.6 1473.54 L1032.6 1455.09 M1031.37 1451.02 L1037.25 1451.02 L1037.25 1473.54 L1042.18 1473.54 L1042.18 1477.43 L1037.25 1477.43 L1037.25 1485.58 L1032.6 1485.58 L1032.6 1477.43 L1017 1477.43 L1017 1472.92 L1031.37 1451.02 Z" fill="#000000" fill-rule="nonzero" fill-opacity="1" /><path clip-path="url(#clip450)" d="M1471.05 1466.44 Q1467.9 1466.44 1466.05 1468.59 Q1464.22 1470.74 1464.22 1474.49 Q1464.22 1478.22 1466.05 1480.39 Q1467.9 1482.55 1471.05 1482.55 Q1474.2 1482.55 1476.03 1480.39 Q1477.88 1478.22 1477.88 1474.49 Q1477.88 1470.74 1476.03 1468.59 Q1474.2 1466.44 1471.05 1466.44 M1480.33 1451.78 L1480.33 1456.04 Q1478.57 1455.21 1476.77 1454.77 Q1474.98 1454.33 1473.23 1454.33 Q1468.6 1454.33 1466.14 1457.45 Q1463.71 1460.58 1463.36 1466.9 Q1464.73 1464.89 1466.79 1463.82 Q1468.85 1462.73 1471.33 1462.73 Q1476.54 1462.73 1479.55 1465.9 Q1482.58 1469.05 1482.58 1474.49 Q1482.58 1479.82 1479.43 1483.03 Q1476.28 1486.25 1471.05 1486.25 Q1465.05 1486.25 1461.88 1481.67 Q1458.71 1477.06 1458.71 1468.33 Q1458.71 1460.14 1462.6 1455.28 Q1466.49 1450.39 1473.04 1450.39 Q1474.8 1450.39 1476.58 1450.74 Q1478.39 1451.09 1480.33 1451.78 Z" fill="#000000" fill-rule="nonzero" fill-opacity="1" /><path clip-path="url(#clip450)" d="M1911.7 1469.17 Q1908.37 1469.17 1906.45 1470.95 Q1904.55 1472.73 1904.55 1475.86 Q1904.55 1478.98 1906.45 1480.77 Q1908.37 1482.55 1911.7 1482.55 Q1915.03 1482.55 1916.95 1480.77 Q1918.88 1478.96 1918.88 1475.86 Q1918.88 1472.73 1916.95 1470.95 Q1915.06 1469.17 1911.7 1469.17 M1907.02 1467.18 Q1904.02 1466.44 1902.33 1464.38 Q1900.66 1462.32 1900.66 1459.35 Q1900.66 1455.21 1903.6 1452.8 Q1906.56 1450.39 1911.7 1450.39 Q1916.86 1450.39 1919.8 1452.8 Q1922.74 1455.21 1922.74 1459.35 Q1922.74 1462.32 1921.05 1464.38 Q1919.39 1466.44 1916.4 1467.18 Q1919.78 1467.96 1921.65 1470.26 Q1923.55 1472.55 1923.55 1475.86 Q1923.55 1480.88 1920.47 1483.57 Q1917.42 1486.25 1911.7 1486.25 Q1905.98 1486.25 1902.9 1483.57 Q1899.85 1480.88 1899.85 1475.86 Q1899.85 1472.55 1901.75 1470.26 Q1903.64 1467.96 1907.02 1467.18 M1905.31 1459.79 Q1905.31 1462.48 1906.98 1463.98 Q1908.67 1465.49 1911.7 1465.49 Q1914.71 1465.49 1916.4 1463.98 Q1918.11 1462.48 1918.11 1459.79 Q1918.11 1457.11 1916.4 1455.6 Q1914.71 1454.1 1911.7 1454.1 Q1908.67 1454.1 1906.98 1455.6 Q1905.31 1457.11 1905.31 1459.79 Z" fill="#000000" fill-rule="nonzero" fill-opacity="1" /><path clip-path="url(#clip450)" d="M2327.44 1481.64 L2335.08 1481.64 L2335.08 1455.28 L2326.77 1456.95 L2326.77 1452.69 L2335.04 1451.02 L2339.71 1451.02 L2339.71 1481.64 L2347.35 1481.64 L2347.35 1485.58 L2327.44 1485.58 L2327.44 1481.64 Z" fill="#000000" fill-rule="nonzero" fill-opacity="1" /><path clip-path="url(#clip450)" d="M2366.8 1454.1 Q2363.18 1454.1 2361.36 1457.66 Q2359.55 1461.2 2359.55 1468.33 Q2359.55 1475.44 2361.36 1479.01 Q2363.18 1482.55 2366.8 1482.55 Q2370.43 1482.55 2372.23 1479.01 Q2374.06 1475.44 2374.06 1468.33 Q2374.06 1461.2 2372.23 1457.66 Q2370.43 1454.1 2366.8 1454.1 M2366.8 1450.39 Q2372.61 1450.39 2375.66 1455 Q2378.74 1459.58 2378.74 1468.33 Q2378.74 1477.06 2375.66 1481.67 Q2372.61 1486.25 2366.8 1486.25 Q2360.99 1486.25 2357.91 1481.67 Q2354.85 1477.06 2354.85 1468.33 Q2354.85 1459.58 2357.91 1455 Q2360.99 1450.39 2366.8 1450.39 Z" fill="#000000" fill-rule="nonzero" fill-opacity="1" /><path clip-path="url(#clip450)" d="M1249.18 1522.27 L1249.18 1532.4 L1261.24 1532.4 L1261.24 1536.95 L1249.18 1536.95 L1249.18 1556.3 Q1249.18 1560.66 1250.36 1561.9 Q1251.57 1563.14 1255.23 1563.14 L1261.24 1563.14 L1261.24 1568.04 L1255.23 1568.04 Q1248.45 1568.04 1245.87 1565.53 Q1243.29 1562.98 1243.29 1556.3 L1243.29 1536.95 L1238.99 1536.95 L1238.99 1532.4 L1243.29 1532.4 L1243.29 1522.27 L1249.18 1522.27 Z" fill="#000000" fill-rule="nonzero" fill-opacity="1" /><polyline clip-path="url(#clip450)" style="stroke:#000000; stroke-linecap:round; stroke-linejoin:round; stroke-width:4; stroke-opacity:1; fill:none" points="147.478,1423.18 147.478,47.2441 "/>
<polyline clip-path="url(#clip450)" style="stroke:#000000; stroke-linecap:round; stroke-linejoin:round; stroke-width:4; stroke-opacity:1; fill:none" points="147.478,1357.22 166.376,1357.22 "/>
<polyline clip-path="url(#clip450)" style="stroke:#000000; stroke-linecap:round; stroke-linejoin:round; stroke-width:4; stroke-opacity:1; fill:none" points="147.478,946.362 166.376,946.362 "/>
<polyline clip-path="url(#clip450)" style="stroke:#000000; stroke-linecap:round; stroke-linejoin:round; stroke-width:4; stroke-opacity:1; fill:none" points="147.478,535.504 166.376,535.504 "/>
<polyline clip-path="url(#clip450)" style="stroke:#000000; stroke-linecap:round; stroke-linejoin:round; stroke-width:4; stroke-opacity:1; fill:none" points="147.478,124.646 166.376,124.646 "/>
<path clip-path="url(#clip450)" d="M50.9921 1357.67 L80.6679 1357.67 L80.6679 1361.61 L50.9921 1361.61 L50.9921 1357.67 Z" fill="#000000" fill-rule="nonzero" fill-opacity="1" /><path clip-path="url(#clip450)" d="M91.5706 1370.57 L99.2095 1370.57 L99.2095 1344.2 L90.8993 1345.87 L90.8993 1341.61 L99.1632 1339.94 L103.839 1339.94 L103.839 1370.57 L111.478 1370.57 L111.478 1374.5 L91.5706 1374.5 L91.5706 1370.57 Z" fill="#000000" fill-rule="nonzero" fill-opacity="1" /><path clip-path="url(#clip450)" d="M99.5335 932.161 Q95.9224 932.161 94.0937 935.726 Q92.2882 939.267 92.2882 946.397 Q92.2882 953.503 94.0937 957.068 Q95.9224 960.61 99.5335 960.61 Q103.168 960.61 104.973 957.068 Q106.802 953.503 106.802 946.397 Q106.802 939.267 104.973 935.726 Q103.168 932.161 99.5335 932.161 M99.5335 928.457 Q105.344 928.457 108.399 933.064 Q111.478 937.647 111.478 946.397 Q111.478 955.124 108.399 959.73 Q105.344 964.313 99.5335 964.313 Q93.7234 964.313 90.6447 959.73 Q87.5892 955.124 87.5892 946.397 Q87.5892 937.647 90.6447 933.064 Q93.7234 928.457 99.5335 928.457 Z" fill="#000000" fill-rule="nonzero" fill-opacity="1" /><path clip-path="url(#clip450)" d="M91.5706 548.849 L99.2095 548.849 L99.2095 522.483 L90.8993 524.15 L90.8993 519.891 L99.1632 518.224 L103.839 518.224 L103.839 548.849 L111.478 548.849 L111.478 552.784 L91.5706 552.784 L91.5706 548.849 Z" fill="#000000" fill-rule="nonzero" fill-opacity="1" /><path clip-path="url(#clip450)" d="M95.1586 137.991 L111.478 137.991 L111.478 141.926 L89.5336 141.926 L89.5336 137.991 Q92.1956 135.236 96.7789 130.606 Q101.385 125.954 102.566 124.611 Q104.811 122.088 105.691 120.352 Q106.594 118.593 106.594 116.903 Q106.594 114.148 104.649 112.412 Q102.728 110.676 99.6261 110.676 Q97.4271 110.676 94.9734 111.44 Q92.5428 112.204 89.7651 113.755 L89.7651 109.032 Q92.5891 107.898 95.0428 107.319 Q97.4965 106.741 99.5335 106.741 Q104.904 106.741 108.098 109.426 Q111.293 112.111 111.293 116.602 Q111.293 118.731 110.483 120.653 Q109.696 122.551 107.589 125.143 Q107.01 125.815 103.909 129.032 Q100.807 132.227 95.1586 137.991 Z" fill="#000000" fill-rule="nonzero" fill-opacity="1" /><polyline clip-path="url(#clip452)" style="stroke:#009af9; stroke-linecap:round; stroke-linejoin:round; stroke-width:4; stroke-opacity:1; fill:none" points="147.478,946.362 149.685,949.057 151.893,951.716 154.1,954.341 156.308,956.93 158.515,959.485 160.723,962.006 162.93,964.494 165.138,966.948 167.345,969.371 169.553,971.761 171.76,974.119 173.968,976.446 176.175,978.742 178.383,981.008 180.59,983.244 182.798,985.45 185.005,987.627 187.213,989.775 189.42,991.894 191.628,993.986 193.835,996.049 196.043,998.086 198.25,1000.1 200.458,1002.08 202.665,1004.03 204.873,1005.96 207.08,1007.87 209.288,1009.75 211.495,1011.6 213.702,1013.43 215.91,1015.24 218.117,1017.02 220.325,1018.78 222.532,1020.51 224.74,1022.23 226.947,1023.92 229.155,1025.58 231.362,1027.23 233.57,1028.85 235.777,1030.45 237.985,1032.03 240.192,1033.59 242.4,1035.13 244.607,1036.65 246.815,1038.15 249.022,1039.62 251.23,1041.08 253.437,1042.52 255.645,1043.94 257.852,1045.34 260.06,1046.73 262.267,1048.09 264.475,1049.44 266.682,1050.77 268.89,1052.08 271.097,1053.37 273.305,1054.65 275.512,1055.91 277.72,1057.15 279.927,1058.38 282.135,1059.59 284.342,1060.78 286.549,1061.96 288.757,1063.12 290.964,1064.27 293.172,1065.4 295.379,1066.52 297.587,1067.62 299.794,1068.71 302.002,1069.78 304.209,1070.84 306.417,1071.88 308.624,1072.91 310.832,1073.93 313.039,1074.93 315.247,1075.92 317.454,1076.9 319.662,1077.87 321.869,1078.82 324.077,1079.76 326.284,1080.68 328.492,1081.6 330.699,1082.5 332.907,1083.39 335.114,1084.27 337.322,1085.14 339.529,1085.99 341.737,1086.83 343.944,1087.67 346.152,1088.49 348.359,1089.3 350.567,1090.1 352.774,1090.89 354.982,1091.67 357.189,1092.44 359.397,1093.19 361.604,1093.94 363.811,1094.58 366.019,1094.17 368.226,1092.59 370.434,1090 372.641,1086.54 374.849,1082.37 377.056,1077.6 379.264,1072.35 381.471,1066.73 383.679,1060.84 385.886,1054.77 388.094,1048.61 390.301,1042.42 392.509,1036.27 394.716,1030.2 396.924,1024.27 399.131,1018.5 401.339,1012.92 403.546,1007.54 405.754,1002.38 407.961,997.415 410.169,992.645 412.376,988.043 414.584,983.576 416.791,979.204 418.999,974.874 421.206,970.525 423.414,966.104 425.621,961.712 427.829,957.378 430.036,953.101 432.244,948.881 434.451,944.718 436.659,940.609 438.866,936.555 441.073,932.554 443.281,928.607 445.488,924.712 447.696,920.868 449.903,917.076 452.111,913.334 454.318,909.641 456.526,905.997 458.733,902.402 460.941,898.854 463.148,895.353 465.356,891.899 467.563,888.49 469.771,885.127 471.978,881.808 474.186,878.534 476.393,875.302 478.601,872.114 480.808,868.968 483.016,865.864 485.223,862.8 487.431,859.778 489.638,856.795 491.846,853.852 494.053,850.948 496.261,848.083 498.468,845.256 500.676,842.466 502.883,839.713 505.091,836.996 507.298,834.316 509.506,831.671 511.713,829.061 513.921,826.486 516.128,823.944 518.335,821.437 520.543,818.963 522.75,816.521 524.958,814.112 527.165,811.735 529.373,809.389 531.58,807.075 533.788,804.791 535.995,802.537 538.203,800.314 540.41,798.119 542.618,795.954 544.825,793.818 547.033,791.71 549.24,789.63 551.448,787.577 553.655,785.552 555.863,783.553 558.07,781.582 560.278,779.636 562.485,777.716 564.693,775.821 566.9,773.952 569.108,772.107 571.315,770.287 573.523,768.491 575.73,766.719 577.938,764.97 580.145,763.244 582.353,761.542 584.56,760.312 586.768,759.925 588.975,760.287 591.182,761.305 593.39,762.894 595.597,764.972 597.805,767.465 600.012,770.301 602.22,773.413 604.427,776.74 606.635,780.227 608.842,783.821 611.05,787.477 613.257,791.153 615.465,794.812 617.672,798.423 619.88,801.96 622.087,805.4 624.295,808.728 626.502,811.93 628.71,815.001 630.917,817.938 633.125,820.745 635.332,823.429 637.54,826.004 639.747,828.487 641.955,830.901 644.162,833.275 646.37,835.64 648.577,838.034 650.785,840.485 652.992,842.921 655.2,845.325 657.407,847.697 659.615,850.037 661.822,852.347 664.03,854.625 666.237,856.874 668.444,859.093 670.652,861.282 672.859,863.442 675.067,865.574 677.274,867.678 679.482,869.753 681.689,871.801 683.897,873.822 686.104,875.816 688.312,877.784 690.519,879.725 692.727,881.641 694.934,883.531 697.142,885.397 699.349,887.238 701.557,889.054 703.764,890.847 705.972,892.615 708.179,894.361 710.387,896.083 712.594,897.782 714.802,899.459 717.009,901.113 719.217,902.746 721.424,904.357 723.632,905.946 725.839,907.514 728.047,909.062 730.254,910.589 732.462,912.095 734.669,913.582 736.877,915.049 739.084,916.496 741.292,917.925 743.499,919.334 745.706,920.724 747.914,922.096 750.121,923.45 752.329,924.786 754.536,926.104 756.744,927.405 758.951,928.688 761.159,929.955 763.366,931.204 765.574,932.437 767.781,933.654 769.989,934.855 772.196,936.039 774.404,937.208 776.611,938.362 778.819,939.5 781.026,940.623 783.234,941.731 785.441,942.825 787.649,943.904 789.856,944.969 792.064,946.02 794.271,947.057 796.479,948.08 798.686,949.09 800.894,950.086 803.101,951.069 805.309,952.039 807.516,952.996 809.724,952.949 811.931,951.017 814.139,947.49 816.346,942.634 818.553,936.701 820.761,929.916 822.968,922.489 825.176,914.605 827.383,906.433 829.591,898.119 831.798,889.788 834.006,881.546 836.213,873.478 838.421,865.649 840.628,858.103 842.836,850.864 845.043,843.936 847.251,837.301 849.458,830.921 851.666,824.74 853.873,818.679 856.081,812.638 858.288,806.502 860.496,800.349 862.703,794.279 864.911,788.289 867.118,782.378 869.326,776.545 871.533,770.79 873.741,765.111 875.948,759.508 878.156,753.979 880.363,748.523 882.571,743.139 884.778,737.827 886.986,732.585 889.193,727.412 891.401,722.308 893.608,717.272 895.815,712.303 898.023,707.399 900.23,702.56 902.438,697.786 904.645,693.075 906.853,688.426 909.06,683.839 911.268,679.313 913.475,674.847 915.683,670.44 917.89,666.092 920.098,661.801 922.305,657.567 924.513,653.39 926.72,649.267 928.928,645.2 931.135,641.186 933.343,637.226 935.55,633.318 937.758,629.462 939.965,625.658 942.173,621.903 944.38,618.199 946.588,614.543 948.795,610.936 951.003,607.377 953.21,603.864 955.418,600.399 957.625,596.979 959.833,593.605 962.04,590.275 964.248,586.99 966.455,583.748 968.663,580.548 970.87,577.392 973.077,574.277 975.285,571.204 977.492,568.171 979.7,565.178 981.907,562.225 984.115,559.312 986.322,556.437 988.53,553.6 990.737,550.801 992.945,548.038 995.152,545.313 997.36,542.624 999.567,539.97 1001.77,537.351 1003.98,534.767 1006.19,532.218 1008.4,529.702 1010.6,527.22 1012.81,524.77 1015.02,522.353 1017.23,519.968 1019.43,517.615 1021.64,515.293 1023.85,512.869 1026.06,510.083 1028.26,506.958 1030.47,503.527 1032.68,499.819 1034.89,495.865 1037.09,491.694 1039.3,487.331 1041.51,482.805 1043.72,478.138 1045.92,473.355 1048.13,468.478 1050.34,463.529 1052.55,458.526 1054.75,453.489 1056.96,448.435 1059.17,443.381 1061.38,438.342 1063.58,433.33 1065.79,428.36 1068,423.442 1070.21,418.586 1072.41,413.802 1074.62,409.097 1076.83,404.477 1079.04,399.949 1081.24,395.515 1083.45,391.179 1085.66,386.943 1087.87,382.807 1090.07,378.769 1092.28,374.829 1094.49,370.983 1096.7,367.226 1098.9,363.552 1101.11,359.956 1103.32,356.428 1105.53,352.96 1107.73,349.54 1109.94,346.157 1112.15,342.799 1114.36,339.45 1116.56,336.102 1118.77,332.788 1120.98,329.519 1123.19,326.293 1125.39,323.109 1127.6,319.968 1129.81,316.869 1132.02,313.81 1134.22,310.792 1136.43,307.815 1138.64,304.876 1140.85,301.977 1143.05,299.116 1145.26,296.293 1147.47,293.507 1149.68,290.759 1151.88,288.046 1154.09,285.37 1156.3,282.729 1158.51,280.124 1160.71,277.552 1162.92,275.015 1165.13,272.512 1167.34,270.042 1169.54,267.604 1171.75,265.199 1173.96,262.825 1176.17,260.483 1178.37,258.173 1180.58,255.892 1182.79,253.642 1185,251.422 1187.2,249.232 1189.41,247.07 1191.62,244.937 1193.83,242.832 1196.03,240.755 1198.24,238.706 1200.45,236.684 1202.66,234.689 1204.86,232.72 1207.07,230.777 1209.28,228.86 1211.49,226.969 1213.69,225.102 1215.9,223.236 1218.11,220.884 1220.32,218.071 1222.52,215.064 1224.73,212.099 1226.94,209.381 1229.15,207.087 1231.35,205.36 1233.56,204.315 1235.77,204.036 1237.98,204.577 1240.18,205.96 1242.39,208.179 1244.6,211.196 1246.81,214.943 1249.01,219.321 1251.22,224.201 1253.43,229.424 1255.64,234.802 1257.84,240.112 1260.05,245.105 1262.26,249.761 1264.47,254.352 1266.67,258.882 1268.88,263.352 1271.09,267.763 1273.3,272.115 1275.5,276.409 1277.71,280.647 1279.92,284.828 1282.13,288.954 1284.33,293.025 1286.54,297.043 1288.75,301.007 1290.96,304.919 1293.16,308.779 1295.37,312.589 1297.58,316.347 1299.79,320.056 1301.99,323.715 1304.2,327.326 1306.41,330.889 1308.62,334.405 1310.82,337.874 1313.03,341.297 1315.24,344.675 1317.45,348.008 1319.65,351.296 1321.86,354.541 1324.07,357.743 1326.28,360.902 1328.48,364.019 1330.69,367.095 1332.9,370.13 1335.11,373.125 1337.31,376.08 1339.52,378.995 1341.73,381.872 1343.94,384.711 1346.14,387.512 1348.35,390.276 1350.56,393.004 1352.76,395.695 1354.97,398.35 1357.18,400.97 1359.39,403.556 1361.59,406.107 1363.8,408.625 1366.01,411.109 1368.22,413.56 1370.42,415.979 1372.63,418.366 1374.84,420.721 1377.05,423.046 1379.25,425.339 1381.46,427.602 1383.67,429.835 1385.88,432.038 1388.08,434.213 1390.29,436.358 1392.5,438.475 1394.71,440.564 1396.91,442.625 1399.12,444.659 1401.33,446.666 1403.54,448.647 1405.74,450.601 1407.95,452.529 1410.16,454.431 1412.37,456.309 1414.57,458.161 1416.78,459.989 1418.99,461.792 1421.2,463.572 1423.4,465.328 1425.61,467.061 1427.82,468.771 1430.03,470.458 1432.23,472.123 1434.44,473.765 1436.65,475.386 1438.86,476.986 1441.06,478.564 1443.27,480.121 1445.48,481.658 1447.69,483.174 1449.89,484.67 1452.1,486.147 1454.31,487.465 1456.52,488.172 1458.72,488.569 1460.93,488.991 1463.14,489.72 1465.35,490.979 1467.55,492.937 1469.76,495.706 1471.97,499.344 1474.18,503.851 1476.38,509.174 1478.59,515.201 1480.8,521.768 1483.01,528.651 1485.21,535.574 1487.42,542.204 1489.63,548.51 1491.84,554.733 1494.04,560.873 1496.25,566.932 1498.46,572.91 1500.67,578.809 1502.87,584.63 1505.08,590.374 1507.29,596.041 1509.5,601.634 1511.7,607.152 1513.91,612.598 1516.12,617.971 1518.33,623.273 1520.53,628.505 1522.74,633.667 1524.95,638.761 1527.16,643.788 1529.36,648.748 1531.57,653.642 1533.78,658.471 1535.99,663.236 1538.19,667.938 1540.4,672.577 1542.61,677.155 1544.82,681.672 1547.02,686.129 1549.23,690.527 1551.44,694.866 1553.65,699.148 1555.85,703.373 1558.06,707.543 1560.27,711.656 1562.48,715.716 1564.68,719.721 1566.89,723.673 1569.1,727.573 1571.31,731.421 1573.51,735.218 1575.72,738.965 1577.93,742.662 1580.14,746.311 1582.34,749.911 1584.55,753.463 1586.76,756.968 1588.97,760.427 1591.17,763.839 1593.38,767.207 1595.59,770.53 1597.8,773.809 1600,777.045 1602.21,780.238 1604.42,783.388 1606.63,786.497 1608.83,789.564 1611.04,792.591 1613.25,795.577 1615.46,798.524 1617.66,801.432 1619.87,804.302 1622.08,807.133 1624.29,809.927 1626.49,812.683 1628.7,815.403 1630.91,818.088 1633.12,820.736 1635.32,823.349 1637.53,825.928 1639.74,828.473 1641.95,830.983 1644.15,833.461 1646.36,835.905 1648.57,838.318 1650.78,840.698 1652.98,843.047 1655.19,845.364 1657.4,847.651 1659.61,849.908 1661.81,852.134 1664.02,854.332 1666.23,856.5 1668.44,858.639 1670.64,860.75 1672.85,862.833 1675.06,864.888 1677.27,866.916 1679.47,868.917 1681.68,870.892 1683.89,872.84 1686.1,875.213 1688.3,878.609 1690.51,882.678 1692.72,887.114 1694.93,891.681 1697.13,896.21 1699.34,900.599 1701.55,904.812 1703.76,908.884 1705.96,912.913 1708.17,916.931 1710.38,920.896 1712.59,924.808 1714.79,928.668 1717,932.477 1719.21,936.236 1721.42,939.945 1723.62,943.604 1725.83,947.216 1728.04,950.779 1730.25,954.295 1732.45,957.764 1734.66,961.188 1736.87,964.566 1739.07,967.899 1741.28,971.188 1743.49,974.433 1745.7,977.636 1747.9,980.796 1750.11,983.914 1752.32,986.99 1754.53,990.026 1756.73,993.022 1758.94,995.978 1761.15,998.895 1763.36,1001.77 1765.56,1004.61 1767.77,1007.41 1769.98,1010.18 1772.19,1012.91 1774.39,1015.6 1776.6,1018.26 1778.81,1020.88 1781.02,1023.47 1783.22,1026.02 1785.43,1028.54 1787.64,1031.02 1789.85,1033.47 1792.05,1035.89 1794.26,1038.28 1796.47,1040.64 1798.68,1042.96 1800.88,1045.26 1803.09,1047.52 1805.3,1049.75 1807.51,1051.96 1809.71,1054.13 1811.92,1056.28 1814.13,1058.39 1816.34,1060.48 1818.54,1062.54 1820.75,1064.58 1822.96,1066.59 1825.17,1068.57 1827.37,1070.52 1829.58,1072.45 1831.79,1074.35 1834,1076.23 1836.2,1078.08 1838.41,1079.91 1840.62,1081.72 1842.83,1083.5 1845.03,1085.25 1847.24,1086.98 1849.45,1088.69 1851.66,1090.38 1853.86,1092.05 1856.07,1093.69 1858.28,1095.31 1860.49,1096.91 1862.69,1098.49 1864.9,1100.05 1867.11,1101.58 1869.32,1103.1 1871.52,1104.6 1873.73,1106.07 1875.94,1107.53 1878.15,1108.97 1880.35,1110.39 1882.56,1111.79 1884.77,1113.17 1886.98,1114.53 1889.18,1115.88 1891.39,1117.2 1893.6,1118.51 1895.81,1119.81 1898.01,1121.08 1900.22,1122.34 1902.43,1123.58 1904.64,1124.81 1906.84,1126.01 1909.05,1127.21 1911.26,1128.14 1913.47,1128.47 1915.67,1128.26 1917.88,1127.57 1920.09,1126.46 1922.3,1124.99 1924.5,1123.2 1926.71,1121.15 1928.92,1118.89 1931.13,1116.45 1933.33,1113.88 1935.54,1111.21 1937.75,1108.48 1939.96,1105.72 1942.16,1102.95 1944.37,1100.2 1946.58,1097.49 1948.79,1094.84 1950.99,1092.26 1953.2,1089.76 1955.41,1087.35 1957.62,1085.03 1959.82,1082.81 1962.03,1080.69 1964.24,1078.65 1966.45,1076.7 1968.65,1074.82 1970.86,1072.99 1973.07,1071.2 1975.28,1069.43 1977.48,1067.66 1979.69,1065.85 1981.9,1064.01 1984.11,1062.2 1986.31,1060.42 1988.52,1058.66 1990.73,1056.92 1992.94,1055.21 1995.14,1053.51 1997.35,1051.84 1999.56,1050.2 2001.77,1048.57 2003.97,1046.97 2006.18,1045.38 2008.39,1043.82 2010.6,1042.28 2012.8,1040.76 2015.01,1039.26 2017.22,1037.78 2019.43,1036.32 2021.63,1034.88 2023.84,1033.45 2026.05,1032.05 2028.26,1030.66 2030.46,1029.3 2032.67,1027.95 2034.88,1026.62 2037.09,1025.3 2039.29,1024.01 2041.5,1022.73 2043.71,1021.47 2045.92,1020.22 2048.12,1019 2050.33,1017.78 2052.54,1016.59 2054.75,1015.41 2056.95,1014.24 2059.16,1013.09 2061.37,1011.96 2063.58,1010.84 2065.78,1009.74 2067.99,1008.65 2070.2,1007.57 2072.41,1006.51 2074.61,1005.47 2076.82,1004.44 2079.03,1003.42 2081.24,1002.41 2083.44,1001.42 2085.65,1000.44 2087.86,999.475 2090.07,998.522 2092.27,997.582 2094.48,996.654 2096.69,995.738 2098.9,994.835 2101.1,993.943 2103.31,993.063 2105.52,992.195 2107.73,991.339 2109.93,990.493 2112.14,989.659 2114.35,988.836 2116.55,988.024 2118.76,987.223 2120.97,986.432 2123.18,985.652 2125.38,984.882 2127.59,984.122 2129.8,983.387 2132.01,983.342 2134.21,984.265 2136.42,986.041 2138.63,988.562 2140.84,991.726 2143.04,995.436 2145.25,999.603 2147.46,1004.14 2149.67,1008.97 2151.87,1014.03 2154.08,1019.24 2156.29,1024.55 2158.5,1029.9 2160.7,1035.25 2162.91,1040.54 2165.12,1045.76 2167.33,1050.86 2169.53,1055.83 2171.74,1060.64 2173.95,1065.29 2176.16,1069.77 2178.36,1074.08 2180.57,1078.22 2182.78,1082.22 2184.99,1086.08 2187.19,1089.84 2189.4,1093.52 2191.61,1097.16 2193.82,1100.81 2196.02,1104.51 2198.23,1108.22 2200.44,1111.87 2202.65,1115.49 2204.85,1119.05 2207.06,1122.56 2209.27,1126.03 2211.48,1129.46 2213.68,1132.84 2215.89,1136.17 2218.1,1139.46 2220.31,1142.7 2222.51,1145.9 2224.72,1149.06 2226.93,1152.18 2229.14,1155.26 2231.34,1158.3 2233.55,1161.29 2235.76,1164.25 2237.97,1167.16 2240.17,1170.04 2242.38,1172.88 2244.59,1175.69 2246.8,1178.45 2249,1181.18 2251.21,1183.87 2253.42,1186.53 2255.63,1189.15 2257.83,1191.74 2260.04,1194.29 2262.25,1196.81 2264.46,1199.29 2266.66,1201.75 2268.87,1204.16 2271.08,1206.55 2273.29,1208.91 2275.49,1211.23 2277.7,1213.53 2279.91,1215.79 2282.12,1218.02 2284.32,1220.23 2286.53,1222.4 2288.74,1224.54 2290.95,1226.66 2293.15,1228.75 2295.36,1230.81 2297.57,1232.85 2299.78,1234.85 2301.98,1236.83 2304.19,1238.79 2306.4,1240.71 2308.61,1242.62 2310.81,1244.49 2313.02,1246.35 2315.23,1248.18 2317.44,1249.98 2319.64,1251.76 2321.85,1253.52 2324.06,1255.25 2326.27,1256.96 2328.47,1258.65 2330.68,1260.31 2332.89,1261.95 2335.1,1263.58 2337.3,1265.18 2339.51,1266.75 2341.72,1268.31 2343.93,1269.85 2346.13,1271.37 2348.34,1272.86 2350.55,1274.34 2352.76,1275.8 "/>
<polyline clip-path="url(#clip452)" style="stroke:#e26f46; stroke-linecap:round; stroke-linejoin:round; stroke-width:4; stroke-opacity:1; fill:none" points="147.478,1149.64 149.685,1149.64 151.893,1149.64 154.1,1149.64 156.308,1149.64 158.515,1149.64 160.723,1149.64 162.93,1149.64 165.138,1149.64 167.345,1149.64 169.553,1149.64 171.76,1149.64 173.968,1149.64 176.175,1149.64 178.383,1149.64 180.59,1149.64 182.798,1149.64 185.005,1149.64 187.213,1149.64 189.42,1149.64 191.628,1149.64 193.835,1149.64 196.043,1149.64 198.25,1149.64 200.458,1149.64 202.665,1149.64 204.873,1149.64 207.08,1149.64 209.288,1149.64 211.495,1149.64 213.702,1149.64 215.91,1149.64 218.117,1149.64 220.325,1149.64 222.532,1149.64 224.74,1149.64 226.947,1149.64 229.155,1149.64 231.362,1149.64 233.57,1149.64 235.777,1149.64 237.985,1149.64 240.192,1149.64 242.4,1149.64 244.607,1149.64 246.815,1149.64 249.022,1149.64 251.23,1149.64 253.437,1149.64 255.645,1149.64 257.852,1149.64 260.06,1149.64 262.267,1149.64 264.475,1149.64 266.682,1149.64 268.89,1149.64 271.097,1149.64 273.305,1149.64 275.512,1149.64 277.72,1149.64 279.927,1149.64 282.135,1149.64 284.342,1149.64 286.549,1149.64 288.757,1149.64 290.964,1149.64 293.172,1149.64 295.379,1149.64 297.587,1149.64 299.794,1149.64 302.002,1149.64 304.209,1149.64 306.417,1149.64 308.624,1149.64 310.832,1149.64 313.039,1149.64 315.247,1149.64 317.454,1149.64 319.662,1149.64 321.869,1149.64 324.077,1149.64 326.284,1149.64 328.492,1149.64 330.699,1149.64 332.907,1149.64 335.114,1149.64 337.322,1149.64 339.529,1149.64 341.737,1149.64 343.944,1149.64 346.152,1149.64 348.359,1149.64 350.567,1149.64 352.774,1149.64 354.982,1149.64 357.189,1149.64 359.397,1149.64 361.604,1149.64 363.811,1149.64 366.019,1149.64 368.226,634.815 370.434,634.815 372.641,634.815 374.849,634.815 377.056,634.815 379.264,634.815 381.471,634.815 383.679,634.815 385.886,634.815 388.094,634.815 390.301,634.815 392.509,634.815 394.716,634.815 396.924,634.815 399.131,634.815 401.339,634.815 403.546,634.815 405.754,634.815 407.961,634.815 410.169,634.815 412.376,634.815 414.584,634.815 416.791,634.815 418.999,634.815 421.206,634.815 423.414,634.815 425.621,634.815 427.829,634.815 430.036,634.815 432.244,634.815 434.451,634.815 436.659,634.815 438.866,634.815 441.073,634.815 443.281,634.815 445.488,634.815 447.696,634.815 449.903,634.815 452.111,634.815 454.318,634.815 456.526,634.815 458.733,634.815 460.941,634.815 463.148,634.815 465.356,634.815 467.563,634.815 469.771,634.815 471.978,634.815 474.186,634.815 476.393,634.815 478.601,634.815 480.808,634.815 483.016,634.815 485.223,634.815 487.431,634.815 489.638,634.815 491.846,634.815 494.053,634.815 496.261,634.815 498.468,634.815 500.676,634.815 502.883,634.815 505.091,634.815 507.298,634.815 509.506,634.815 511.713,634.815 513.921,634.815 516.128,634.815 518.335,634.815 520.543,634.815 522.75,634.815 524.958,634.815 527.165,634.815 529.373,634.815 531.58,634.815 533.788,634.815 535.995,634.815 538.203,634.815 540.41,634.815 542.618,634.815 544.825,634.815 547.033,634.815 549.24,634.815 551.448,634.815 553.655,634.815 555.863,634.815 558.07,634.815 560.278,634.815 562.485,634.815 564.693,634.815 566.9,634.815 569.108,634.815 571.315,634.815 573.523,634.815 575.73,634.815 577.938,634.815 580.145,634.815 582.353,634.815 584.56,634.815 586.768,634.815 588.975,1024.23 591.182,1024.23 593.39,1024.23 595.597,1024.23 597.805,1024.23 600.012,1024.23 602.22,1024.23 604.427,1024.23 606.635,1024.23 608.842,1024.23 611.05,1024.23 613.257,1024.23 615.465,1024.23 617.672,1024.23 619.88,1024.23 622.087,1024.23 624.295,1024.23 626.502,1024.23 628.71,1024.23 630.917,1024.23 633.125,1024.23 635.332,1024.23 637.54,1024.23 639.747,1024.23 641.955,1024.23 644.162,1024.23 646.37,1024.23 648.577,1024.23 650.785,1024.23 652.992,1024.23 655.2,1024.23 657.407,1024.23 659.615,1024.23 661.822,1024.23 664.03,1024.23 666.237,1024.23 668.444,1024.23 670.652,1024.23 672.859,1024.23 675.067,1024.23 677.274,1024.23 679.482,1024.23 681.689,1024.23 683.897,1024.23 686.104,1024.23 688.312,1024.23 690.519,1024.23 692.727,1024.23 694.934,1024.23 697.142,1024.23 699.349,1024.23 701.557,1024.23 703.764,1024.23 705.972,1024.23 708.179,1024.23 710.387,1024.23 712.594,1024.23 714.802,1024.23 717.009,1024.23 719.217,1024.23 721.424,1024.23 723.632,1024.23 725.839,1024.23 728.047,1024.23 730.254,1024.23 732.462,1024.23 734.669,1024.23 736.877,1024.23 739.084,1024.23 741.292,1024.23 743.499,1024.23 745.706,1024.23 747.914,1024.23 750.121,1024.23 752.329,1024.23 754.536,1024.23 756.744,1024.23 758.951,1024.23 761.159,1024.23 763.366,1024.23 765.574,1024.23 767.781,1024.23 769.989,1024.23 772.196,1024.23 774.404,1024.23 776.611,1024.23 778.819,1024.23 781.026,1024.23 783.234,1024.23 785.441,1024.23 787.649,1024.23 789.856,1024.23 792.064,1024.23 794.271,1024.23 796.479,1024.23 798.686,1024.23 800.894,1024.23 803.101,1024.23 805.309,1024.23 807.516,1024.23 809.724,342.46 811.931,342.46 814.139,342.46 816.346,342.46 818.553,342.46 820.761,342.46 822.968,342.46 825.176,342.46 827.383,342.46 829.591,342.46 831.798,342.46 834.006,342.46 836.213,342.46 838.421,342.46 840.628,342.46 842.836,342.46 845.043,342.46 847.251,342.46 849.458,342.46 851.666,342.46 853.873,342.46 856.081,342.46 858.288,342.46 860.496,342.46 862.703,342.46 864.911,342.46 867.118,342.46 869.326,342.46 871.533,342.46 873.741,342.46 875.948,342.46 878.156,342.46 880.363,342.46 882.571,342.46 884.778,342.46 886.986,342.46 889.193,342.46 891.401,342.46 893.608,342.46 895.815,342.46 898.023,342.46 900.23,342.46 902.438,342.46 904.645,342.46 906.853,342.46 909.06,342.46 911.268,342.46 913.475,342.46 915.683,342.46 917.89,342.46 920.098,342.46 922.305,342.46 924.513,342.46 926.72,342.46 928.928,342.46 931.135,342.46 933.343,342.46 935.55,342.46 937.758,342.46 939.965,342.46 942.173,342.46 944.38,342.46 946.588,342.46 948.795,342.46 951.003,342.46 953.21,342.46 955.418,342.46 957.625,342.46 959.833,342.46 962.04,342.46 964.248,342.46 966.455,342.46 968.663,342.46 970.87,342.46 973.077,342.46 975.285,342.46 977.492,342.46 979.7,342.46 981.907,342.46 984.115,342.46 986.322,342.46 988.53,342.46 990.737,342.46 992.945,342.46 995.152,342.46 997.36,342.46 999.567,342.46 1001.77,342.46 1003.98,342.46 1006.19,342.46 1008.4,342.46 1010.6,342.46 1012.81,342.46 1015.02,342.46 1017.23,342.46 1019.43,342.46 1021.64,342.46 1023.85,342.46 1026.06,342.46 1028.26,342.46 1030.47,86.1857 1032.68,86.1857 1034.89,86.1857 1037.09,86.1857 1039.3,86.1857 1041.51,86.1857 1043.72,86.1857 1045.92,86.1857 1048.13,86.1857 1050.34,86.1857 1052.55,86.1857 1054.75,86.1857 1056.96,86.1857 1059.17,86.1857 1061.38,86.1857 1063.58,86.1857 1065.79,86.1857 1068,86.1857 1070.21,86.1857 1072.41,86.1857 1074.62,86.1857 1076.83,86.1857 1079.04,86.1857 1081.24,86.1857 1083.45,86.1857 1085.66,86.1857 1087.87,86.1857 1090.07,86.1857 1092.28,86.1857 1094.49,86.1857 1096.7,86.1857 1098.9,86.1857 1101.11,86.1857 1103.32,86.1857 1105.53,86.1857 1107.73,86.1857 1109.94,86.1857 1112.15,86.1857 1114.36,86.1857 1116.56,86.1857 1118.77,86.1857 1120.98,86.1857 1123.19,86.1857 1125.39,86.1857 1127.6,86.1857 1129.81,86.1857 1132.02,86.1857 1134.22,86.1857 1136.43,86.1857 1138.64,86.1857 1140.85,86.1857 1143.05,86.1857 1145.26,86.1857 1147.47,86.1857 1149.68,86.1857 1151.88,86.1857 1154.09,86.1857 1156.3,86.1857 1158.51,86.1857 1160.71,86.1857 1162.92,86.1857 1165.13,86.1857 1167.34,86.1857 1169.54,86.1857 1171.75,86.1857 1173.96,86.1857 1176.17,86.1857 1178.37,86.1857 1180.58,86.1857 1182.79,86.1857 1185,86.1857 1187.2,86.1857 1189.41,86.1857 1191.62,86.1857 1193.83,86.1857 1196.03,86.1857 1198.24,86.1857 1200.45,86.1857 1202.66,86.1857 1204.86,86.1857 1207.07,86.1857 1209.28,86.1857 1211.49,86.1857 1213.69,86.1857 1215.9,86.1857 1218.11,86.1857 1220.32,86.1857 1222.52,86.1857 1224.73,86.1857 1226.94,86.1857 1229.15,86.1857 1231.35,86.1857 1233.56,86.1857 1235.77,86.1857 1237.98,86.1857 1240.18,86.1857 1242.39,86.1857 1244.6,86.1857 1246.81,86.1857 1249.01,86.1857 1251.22,596.029 1253.43,596.029 1255.64,596.029 1257.84,596.029 1260.05,596.029 1262.26,596.029 1264.47,596.029 1266.67,596.029 1268.88,596.029 1271.09,596.029 1273.3,596.029 1275.5,596.029 1277.71,596.029 1279.92,596.029 1282.13,596.029 1284.33,596.029 1286.54,596.029 1288.75,596.029 1290.96,596.029 1293.16,596.029 1295.37,596.029 1297.58,596.029 1299.79,596.029 1301.99,596.029 1304.2,596.029 1306.41,596.029 1308.62,596.029 1310.82,596.029 1313.03,596.029 1315.24,596.029 1317.45,596.029 1319.65,596.029 1321.86,596.029 1324.07,596.029 1326.28,596.029 1328.48,596.029 1330.69,596.029 1332.9,596.029 1335.11,596.029 1337.31,596.029 1339.52,596.029 1341.73,596.029 1343.94,596.029 1346.14,596.029 1348.35,596.029 1350.56,596.029 1352.76,596.029 1354.97,596.029 1357.18,596.029 1359.39,596.029 1361.59,596.029 1363.8,596.029 1366.01,596.029 1368.22,596.029 1370.42,596.029 1372.63,596.029 1374.84,596.029 1377.05,596.029 1379.25,596.029 1381.46,596.029 1383.67,596.029 1385.88,596.029 1388.08,596.029 1390.29,596.029 1392.5,596.029 1394.71,596.029 1396.91,596.029 1399.12,596.029 1401.33,596.029 1403.54,596.029 1405.74,596.029 1407.95,596.029 1410.16,596.029 1412.37,596.029 1414.57,596.029 1416.78,596.029 1418.99,596.029 1421.2,596.029 1423.4,596.029 1425.61,596.029 1427.82,596.029 1430.03,596.029 1432.23,596.029 1434.44,596.029 1436.65,596.029 1438.86,596.029 1441.06,596.029 1443.27,596.029 1445.48,596.029 1447.69,596.029 1449.89,596.029 1452.1,596.029 1454.31,596.029 1456.52,596.029 1458.72,596.029 1460.93,596.029 1463.14,596.029 1465.35,596.029 1467.55,596.029 1469.76,596.029 1471.97,1017.85 1474.18,1017.85 1476.38,1017.85 1478.59,1017.85 1480.8,1017.85 1483.01,1017.85 1485.21,1017.85 1487.42,1017.85 1489.63,1017.85 1491.84,1017.85 1494.04,1017.85 1496.25,1017.85 1498.46,1017.85 1500.67,1017.85 1502.87,1017.85 1505.08,1017.85 1507.29,1017.85 1509.5,1017.85 1511.7,1017.85 1513.91,1017.85 1516.12,1017.85 1518.33,1017.85 1520.53,1017.85 1522.74,1017.85 1524.95,1017.85 1527.16,1017.85 1529.36,1017.85 1531.57,1017.85 1533.78,1017.85 1535.99,1017.85 1538.19,1017.85 1540.4,1017.85 1542.61,1017.85 1544.82,1017.85 1547.02,1017.85 1549.23,1017.85 1551.44,1017.85 1553.65,1017.85 1555.85,1017.85 1558.06,1017.85 1560.27,1017.85 1562.48,1017.85 1564.68,1017.85 1566.89,1017.85 1569.1,1017.85 1571.31,1017.85 1573.51,1017.85 1575.72,1017.85 1577.93,1017.85 1580.14,1017.85 1582.34,1017.85 1584.55,1017.85 1586.76,1017.85 1588.97,1017.85 1591.17,1017.85 1593.38,1017.85 1595.59,1017.85 1597.8,1017.85 1600,1017.85 1602.21,1017.85 1604.42,1017.85 1606.63,1017.85 1608.83,1017.85 1611.04,1017.85 1613.25,1017.85 1615.46,1017.85 1617.66,1017.85 1619.87,1017.85 1622.08,1017.85 1624.29,1017.85 1626.49,1017.85 1628.7,1017.85 1630.91,1017.85 1633.12,1017.85 1635.32,1017.85 1637.53,1017.85 1639.74,1017.85 1641.95,1017.85 1644.15,1017.85 1646.36,1017.85 1648.57,1017.85 1650.78,1017.85 1652.98,1017.85 1655.19,1017.85 1657.4,1017.85 1659.61,1017.85 1661.81,1017.85 1664.02,1017.85 1666.23,1017.85 1668.44,1017.85 1670.64,1017.85 1672.85,1017.85 1675.06,1017.85 1677.27,1017.85 1679.47,1017.85 1681.68,1017.85 1683.89,1017.85 1686.1,1017.85 1688.3,1017.85 1690.51,1017.85 1692.72,1215.98 1694.93,1215.98 1697.13,1215.98 1699.34,1215.98 1701.55,1215.98 1703.76,1215.98 1705.96,1215.98 1708.17,1215.98 1710.38,1215.98 1712.59,1215.98 1714.79,1215.98 1717,1215.98 1719.21,1215.98 1721.42,1215.98 1723.62,1215.98 1725.83,1215.98 1728.04,1215.98 1730.25,1215.98 1732.45,1215.98 1734.66,1215.98 1736.87,1215.98 1739.07,1215.98 1741.28,1215.98 1743.49,1215.98 1745.7,1215.98 1747.9,1215.98 1750.11,1215.98 1752.32,1215.98 1754.53,1215.98 1756.73,1215.98 1758.94,1215.98 1761.15,1215.98 1763.36,1215.98 1765.56,1215.98 1767.77,1215.98 1769.98,1215.98 1772.19,1215.98 1774.39,1215.98 1776.6,1215.98 1778.81,1215.98 1781.02,1215.98 1783.22,1215.98 1785.43,1215.98 1787.64,1215.98 1789.85,1215.98 1792.05,1215.98 1794.26,1215.98 1796.47,1215.98 1798.68,1215.98 1800.88,1215.98 1803.09,1215.98 1805.3,1215.98 1807.51,1215.98 1809.71,1215.98 1811.92,1215.98 1814.13,1215.98 1816.34,1215.98 1818.54,1215.98 1820.75,1215.98 1822.96,1215.98 1825.17,1215.98 1827.37,1215.98 1829.58,1215.98 1831.79,1215.98 1834,1215.98 1836.2,1215.98 1838.41,1215.98 1840.62,1215.98 1842.83,1215.98 1845.03,1215.98 1847.24,1215.98 1849.45,1215.98 1851.66,1215.98 1853.86,1215.98 1856.07,1215.98 1858.28,1215.98 1860.49,1215.98 1862.69,1215.98 1864.9,1215.98 1867.11,1215.98 1869.32,1215.98 1871.52,1215.98 1873.73,1215.98 1875.94,1215.98 1878.15,1215.98 1880.35,1215.98 1882.56,1215.98 1884.77,1215.98 1886.98,1215.98 1889.18,1215.98 1891.39,1215.98 1893.6,1215.98 1895.81,1215.98 1898.01,1215.98 1900.22,1215.98 1902.43,1215.98 1904.64,1215.98 1906.84,1215.98 1909.05,1215.98 1911.26,1215.98 1913.47,927.582 1915.67,927.582 1917.88,927.582 1920.09,927.582 1922.3,927.582 1924.5,927.582 1926.71,927.582 1928.92,927.582 1931.13,927.582 1933.33,927.582 1935.54,927.582 1937.75,927.582 1939.96,927.582 1942.16,927.582 1944.37,927.582 1946.58,927.582 1948.79,927.582 1950.99,927.582 1953.2,927.582 1955.41,927.582 1957.62,927.582 1959.82,927.582 1962.03,927.582 1964.24,927.582 1966.45,927.582 1968.65,927.582 1970.86,927.582 1973.07,927.582 1975.28,927.582 1977.48,927.582 1979.69,927.582 1981.9,927.582 1984.11,927.582 1986.31,927.582 1988.52,927.582 1990.73,927.582 1992.94,927.582 1995.14,927.582 1997.35,927.582 1999.56,927.582 2001.77,927.582 2003.97,927.582 2006.18,927.582 2008.39,927.582 2010.6,927.582 2012.8,927.582 2015.01,927.582 2017.22,927.582 2019.43,927.582 2021.63,927.582 2023.84,927.582 2026.05,927.582 2028.26,927.582 2030.46,927.582 2032.67,927.582 2034.88,927.582 2037.09,927.582 2039.29,927.582 2041.5,927.582 2043.71,927.582 2045.92,927.582 2048.12,927.582 2050.33,927.582 2052.54,927.582 2054.75,927.582 2056.95,927.582 2059.16,927.582 2061.37,927.582 2063.58,927.582 2065.78,927.582 2067.99,927.582 2070.2,927.582 2072.41,927.582 2074.61,927.582 2076.82,927.582 2079.03,927.582 2081.24,927.582 2083.44,927.582 2085.65,927.582 2087.86,927.582 2090.07,927.582 2092.27,927.582 2094.48,927.582 2096.69,927.582 2098.9,927.582 2101.1,927.582 2103.31,927.582 2105.52,927.582 2107.73,927.582 2109.93,927.582 2112.14,927.582 2114.35,927.582 2116.55,927.582 2118.76,927.582 2120.97,927.582 2123.18,927.582 2125.38,927.582 2127.59,927.582 2129.8,927.582 2132.01,927.582 2134.21,1384.24 2136.42,1384.24 2138.63,1384.24 2140.84,1384.24 2143.04,1384.24 2145.25,1384.24 2147.46,1384.24 2149.67,1384.24 2151.87,1384.24 2154.08,1384.24 2156.29,1384.24 2158.5,1384.24 2160.7,1384.24 2162.91,1384.24 2165.12,1384.24 2167.33,1384.24 2169.53,1384.24 2171.74,1384.24 2173.95,1384.24 2176.16,1384.24 2178.36,1384.24 2180.57,1384.24 2182.78,1384.24 2184.99,1384.24 2187.19,1384.24 2189.4,1384.24 2191.61,1384.24 2193.82,1384.24 2196.02,1384.24 2198.23,1384.24 2200.44,1384.24 2202.65,1384.24 2204.85,1384.24 2207.06,1384.24 2209.27,1384.24 2211.48,1384.24 2213.68,1384.24 2215.89,1384.24 2218.1,1384.24 2220.31,1384.24 2222.51,1384.24 2224.72,1384.24 2226.93,1384.24 2229.14,1384.24 2231.34,1384.24 2233.55,1384.24 2235.76,1384.24 2237.97,1384.24 2240.17,1384.24 2242.38,1384.24 2244.59,1384.24 2246.8,1384.24 2249,1384.24 2251.21,1384.24 2253.42,1384.24 2255.63,1384.24 2257.83,1384.24 2260.04,1384.24 2262.25,1384.24 2264.46,1384.24 2266.66,1384.24 2268.87,1384.24 2271.08,1384.24 2273.29,1384.24 2275.49,1384.24 2277.7,1384.24 2279.91,1384.24 2282.12,1384.24 2284.32,1384.24 2286.53,1384.24 2288.74,1384.24 2290.95,1384.24 2293.15,1384.24 2295.36,1384.24 2297.57,1384.24 2299.78,1384.24 2301.98,1384.24 2304.19,1384.24 2306.4,1384.24 2308.61,1384.24 2310.81,1384.24 2313.02,1384.24 2315.23,1384.24 2317.44,1384.24 2319.64,1384.24 2321.85,1384.24 2324.06,1384.24 2326.27,1384.24 2328.47,1384.24 2330.68,1384.24 2332.89,1384.24 2335.1,1384.24 2337.3,1384.24 2339.51,1384.24 2341.72,1384.24 2343.93,1384.24 2346.13,1384.24 2348.34,1384.24 2350.55,1384.24 2352.76,1384.24 "/>
<path clip-path="url(#clip450)" d="M2033.58 248.629 L2279.25 248.629 L2279.25 93.1086 L2033.58 93.1086  Z" fill="#ffffff" fill-rule="evenodd" fill-opacity="1"/>
<polyline clip-path="url(#clip450)" style="stroke:#000000; stroke-linecap:round; stroke-linejoin:round; stroke-width:4; stroke-opacity:1; fill:none" points="2033.58,248.629 2279.25,248.629 2279.25,93.1086 2033.58,93.1086 2033.58,248.629 "/>
<polyline clip-path="url(#clip450)" style="stroke:#009af9; stroke-linecap:round; stroke-linejoin:round; stroke-width:4; stroke-opacity:1; fill:none" points="2058.08,144.949 2205.1,144.949 "/>
<path clip-path="url(#clip450)" d="M2254.26 136.303 L2244.88 148.919 L2254.74 162.229 L2249.72 162.229 L2242.17 152.043 L2234.63 162.229 L2229.6 162.229 L2239.67 148.664 L2230.46 136.303 L2235.48 136.303 L2242.36 145.539 L2249.23 136.303 L2254.26 136.303 Z" fill="#000000" fill-rule="nonzero" fill-opacity="1" /><polyline clip-path="url(#clip450)" style="stroke:#e26f46; stroke-linecap:round; stroke-linejoin:round; stroke-width:4; stroke-opacity:1; fill:none" points="2058.08,196.789 2205.1,196.789 "/>
<path clip-path="url(#clip450)" d="M2246.11 178.05 L2246.11 181.592 L2242.04 181.592 Q2239.74 181.592 2238.84 182.518 Q2237.96 183.444 2237.96 185.851 L2237.96 188.143 L2244.98 188.143 L2244.98 191.453 L2237.96 191.453 L2237.96 214.069 L2233.68 214.069 L2233.68 191.453 L2229.6 191.453 L2229.6 188.143 L2233.68 188.143 L2233.68 186.337 Q2233.68 182.009 2235.69 180.041 Q2237.71 178.05 2242.08 178.05 L2246.11 178.05 Z" fill="#000000" fill-rule="nonzero" fill-opacity="1" /></svg>
