<?xml version="1.0" encoding="utf-8"?>
<svg xmlns="http://www.w3.org/2000/svg" xmlns:xlink="http://www.w3.org/1999/xlink" width="600" height="400" viewBox="0 0 2400 1600">
<defs>
  <clipPath id="clip970">
    <rect x="0" y="0" width="2400" height="1600"/>
  </clipPath>
</defs>
<path clip-path="url(#clip970)" d="M0 1600 L2400 1600 L2400 0 L0 0  Z" fill="#ffffff" fill-rule="evenodd" fill-opacity="1"/>
<defs>
  <clipPath id="clip971">
    <rect x="193" y="47" width="2160" height="1377"/>
  </clipPath>
</defs>
<path clip-path="url(#clip970)" d="M193.936 1423.18 L2352.76 1423.18 L2352.76 47.2441 L193.936 47.2441  Z" fill="#ffffff" fill-rule="evenodd" fill-opacity="1"/>
<polyline clip-path="url(#clip971)" style="stroke:#000000; stroke-linecap:round; stroke-linejoin:round; stroke-width:2; stroke-opacity:0.1; fill:none" points="193.936,1423.18 193.936,47.2441 "/>
<polyline clip-path="url(#clip971)" style="stroke:#000000; stroke-linecap:round; stroke-linejoin:round; stroke-width:2; stroke-opacity:0.1; fill:none" points="625.7,1423.18 625.7,47.2441 "/>
<polyline clip-path="url(#clip971)" style="stroke:#000000; stroke-linecap:round; stroke-linejoin:round; stroke-width:2; stroke-opacity:0.1; fill:none" points="1057.46,1423.18 1057.46,47.2441 "/>
<polyline clip-path="url(#clip971)" style="stroke:#000000; stroke-linecap:round; stroke-linejoin:round; stroke-width:2; stroke-opacity:0.1; fill:none" points="1489.23,1423.18 1489.23,47.2441 "/>
<polyline clip-path="url(#clip971)" style="stroke:#000000; stroke-linecap:round; stroke-linejoin:round; stroke-width:2; stroke-opacity:0.1; fill:none" points="1920.99,1423.18 1920.99,47.2441 "/>
<polyline clip-path="url(#clip971)" style="stroke:#000000; stroke-linecap:round; stroke-linejoin:round; stroke-width:2; stroke-opacity:0.1; fill:none" points="2352.76,1423.18 2352.76,47.2441 "/>
<polyline clip-path="url(#clip971)" style="stroke:#000000; stroke-linecap:round; stroke-linejoin:round; stroke-width:2; stroke-opacity:0.1; fill:none" points="193.936,1393.89 2352.76,1393.89 "/>
<polyline clip-path="url(#clip971)" style="stroke:#000000; stroke-linecap:round; stroke-linejoin:round; stroke-width:2; stroke-opacity:0.1; fill:none" points="193.936,1148.29 2352.76,1148.29 "/>
<polyline clip-path="url(#clip971)" style="stroke:#000000; stroke-linecap:round; stroke-linejoin:round; stroke-width:2; stroke-opacity:0.1; fill:none" points="193.936,902.683 2352.76,902.683 "/>
<polyline clip-path="url(#clip971)" style="stroke:#000000; stroke-linecap:round; stroke-linejoin:round; stroke-width:2; stroke-opacity:0.1; fill:none" points="193.936,657.08 2352.76,657.08 "/>
<polyline clip-path="url(#clip971)" style="stroke:#000000; stroke-linecap:round; stroke-linejoin:round; stroke-width:2; stroke-opacity:0.1; fill:none" points="193.936,411.476 2352.76,411.476 "/>
<polyline clip-path="url(#clip971)" style="stroke:#000000; stroke-linecap:round; stroke-linejoin:round; stroke-width:2; stroke-opacity:0.1; fill:none" points="193.936,165.872 2352.76,165.872 "/>
<polyline clip-path="url(#clip970)" style="stroke:#000000; stroke-linecap:round; stroke-linejoin:round; stroke-width:4; stroke-opacity:1; fill:none" points="193.936,1423.18 2352.76,1423.18 "/>
<polyline clip-path="url(#clip970)" style="stroke:#000000; stroke-linecap:round; stroke-linejoin:round; stroke-width:4; stroke-opacity:1; fill:none" points="193.936,1423.18 193.936,1404.28 "/>
<polyline clip-path="url(#clip970)" style="stroke:#000000; stroke-linecap:round; stroke-linejoin:round; stroke-width:4; stroke-opacity:1; fill:none" points="625.7,1423.18 625.7,1404.28 "/>
<polyline clip-path="url(#clip970)" style="stroke:#000000; stroke-linecap:round; stroke-linejoin:round; stroke-width:4; stroke-opacity:1; fill:none" points="1057.46,1423.18 1057.46,1404.28 "/>
<polyline clip-path="url(#clip970)" style="stroke:#000000; stroke-linecap:round; stroke-linejoin:round; stroke-width:4; stroke-opacity:1; fill:none" points="1489.23,1423.18 1489.23,1404.28 "/>
<polyline clip-path="url(#clip970)" style="stroke:#000000; stroke-linecap:round; stroke-linejoin:round; stroke-width:4; stroke-opacity:1; fill:none" points="1920.99,1423.18 1920.99,1404.28 "/>
<polyline clip-path="url(#clip970)" style="stroke:#000000; stroke-linecap:round; stroke-linejoin:round; stroke-width:4; stroke-opacity:1; fill:none" points="2352.76,1423.18 2352.76,1404.28 "/>
<path clip-path="url(#clip970)" d="M193.936 1454.1 Q190.325 1454.1 188.496 1457.66 Q186.691 1461.2 186.691 1468.33 Q186.691 1475.44 188.496 1479.01 Q190.325 1482.55 193.936 1482.55 Q197.57 1482.55 199.376 1479.01 Q201.204 1475.44 201.204 1468.33 Q201.204 1461.2 199.376 1457.66 Q197.57 1454.1 193.936 1454.1 M193.936 1450.39 Q199.746 1450.39 202.802 1455 Q205.88 1459.58 205.88 1468.33 Q205.88 1477.06 202.802 1481.67 Q199.746 1486.25 193.936 1486.25 Q188.126 1486.25 185.047 1481.67 Q181.992 1477.06 181.992 1468.33 Q181.992 1459.58 185.047 1455 Q188.126 1450.39 193.936 1450.39 Z" fill="#000000" fill-rule="nonzero" fill-opacity="1" /><path clip-path="url(#clip970)" d="M620.353 1481.64 L636.672 1481.64 L636.672 1485.58 L614.728 1485.58 L614.728 1481.64 Q617.39 1478.89 621.973 1474.26 Q626.58 1469.61 627.76 1468.27 Q630.006 1465.74 630.885 1464.01 Q631.788 1462.25 631.788 1460.56 Q631.788 1457.8 629.843 1456.07 Q627.922 1454.33 624.82 1454.33 Q622.621 1454.33 620.168 1455.09 Q617.737 1455.86 614.959 1457.41 L614.959 1452.69 Q617.783 1451.55 620.237 1450.97 Q622.691 1450.39 624.728 1450.39 Q630.098 1450.39 633.293 1453.08 Q636.487 1455.77 636.487 1460.26 Q636.487 1462.39 635.677 1464.31 Q634.89 1466.2 632.783 1468.8 Q632.205 1469.47 629.103 1472.69 Q626.001 1475.88 620.353 1481.64 Z" fill="#000000" fill-rule="nonzero" fill-opacity="1" /><path clip-path="url(#clip970)" d="M1060.47 1455.09 L1048.67 1473.54 L1060.47 1473.54 L1060.47 1455.09 M1059.25 1451.02 L1065.13 1451.02 L1065.13 1473.54 L1070.06 1473.54 L1070.06 1477.43 L1065.13 1477.43 L1065.13 1485.58 L1060.47 1485.58 L1060.47 1477.43 L1044.87 1477.43 L1044.87 1472.92 L1059.25 1451.02 Z" fill="#000000" fill-rule="nonzero" fill-opacity="1" /><path clip-path="url(#clip970)" d="M1489.63 1466.44 Q1486.48 1466.44 1484.63 1468.59 Q1482.8 1470.74 1482.8 1474.49 Q1482.8 1478.22 1484.63 1480.39 Q1486.48 1482.55 1489.63 1482.55 Q1492.78 1482.55 1494.61 1480.39 Q1496.46 1478.22 1496.46 1474.49 Q1496.46 1470.74 1494.61 1468.59 Q1492.78 1466.44 1489.63 1466.44 M1498.92 1451.78 L1498.92 1456.04 Q1497.16 1455.21 1495.35 1454.77 Q1493.57 1454.33 1491.81 1454.33 Q1487.18 1454.33 1484.73 1457.45 Q1482.3 1460.58 1481.95 1466.9 Q1483.31 1464.89 1485.37 1463.82 Q1487.43 1462.73 1489.91 1462.73 Q1495.12 1462.73 1498.13 1465.9 Q1501.16 1469.05 1501.16 1474.49 Q1501.16 1479.82 1498.01 1483.03 Q1494.86 1486.25 1489.63 1486.25 Q1483.64 1486.25 1480.47 1481.67 Q1477.3 1477.06 1477.3 1468.33 Q1477.3 1460.14 1481.18 1455.28 Q1485.07 1450.39 1491.62 1450.39 Q1493.38 1450.39 1495.17 1450.74 Q1496.97 1451.09 1498.92 1451.78 Z" fill="#000000" fill-rule="nonzero" fill-opacity="1" /><path clip-path="url(#clip970)" d="M1920.99 1469.17 Q1917.66 1469.17 1915.74 1470.95 Q1913.84 1472.73 1913.84 1475.86 Q1913.84 1478.98 1915.74 1480.77 Q1917.66 1482.55 1920.99 1482.55 Q1924.33 1482.55 1926.25 1480.77 Q1928.17 1478.96 1928.17 1475.86 Q1928.17 1472.73 1926.25 1470.95 Q1924.35 1469.17 1920.99 1469.17 M1916.32 1467.18 Q1913.31 1466.44 1911.62 1464.38 Q1909.95 1462.32 1909.95 1459.35 Q1909.95 1455.21 1912.89 1452.8 Q1915.85 1450.39 1920.99 1450.39 Q1926.15 1450.39 1929.09 1452.8 Q1932.03 1455.21 1932.03 1459.35 Q1932.03 1462.32 1930.34 1464.38 Q1928.68 1466.44 1925.69 1467.18 Q1929.07 1467.96 1930.95 1470.26 Q1932.84 1472.55 1932.84 1475.86 Q1932.84 1480.88 1929.77 1483.57 Q1926.71 1486.25 1920.99 1486.25 Q1915.27 1486.25 1912.2 1483.57 Q1909.14 1480.88 1909.14 1475.86 Q1909.14 1472.55 1911.04 1470.26 Q1912.94 1467.96 1916.32 1467.18 M1914.6 1459.79 Q1914.6 1462.48 1916.27 1463.98 Q1917.96 1465.49 1920.99 1465.49 Q1924 1465.49 1925.69 1463.98 Q1927.4 1462.48 1927.4 1459.79 Q1927.4 1457.11 1925.69 1455.6 Q1924 1454.1 1920.99 1454.1 Q1917.96 1454.1 1916.27 1455.6 Q1914.6 1457.11 1914.6 1459.79 Z" fill="#000000" fill-rule="nonzero" fill-opacity="1" /><path clip-path="url(#clip970)" d="M2327.44 1481.64 L2335.08 1481.64 L2335.08 1455.28 L2326.77 1456.95 L2326.77 1452.69 L2335.04 1451.02 L2339.71 1451.02 L2339.71 1481.64 L2347.35 1481.64 L2347.35 1485.58 L2327.44 1485.58 L2327.44 1481.64 Z" fill="#000000" fill-rule="nonzero" fill-opacity="1" /><path clip-path="url(#clip970)" d="M2366.8 1454.1 Q2363.18 1454.1 2361.36 1457.66 Q2359.55 1461.2 2359.55 1468.33 Q2359.55 1475.44 2361.36 1479.01 Q2363.18 1482.55 2366.8 1482.55 Q2370.43 1482.55 2372.23 1479.01 Q2374.06 1475.44 2374.06 1468.33 Q2374.06 1461.2 2372.23 1457.66 Q2370.43 1454.1 2366.8 1454.1 M2366.8 1450.39 Q2372.61 1450.39 2375.66 1455 Q2378.74 1459.58 2378.74 1468.33 Q2378.74 1477.06 2375.66 1481.67 Q2372.61 1486.25 2366.8 1486.25 Q2360.99 1486.25 2357.91 1481.67 Q2354.85 1477.06 2354.85 1468.33 Q2354.85 1459.58 2357.91 1455 Q2360.99 1450.39 2366.8 1450.39 Z" fill="#000000" fill-rule="nonzero" fill-opacity="1" /><path clip-path="url(#clip970)" d="M1272.41 1522.27 L1272.41 1532.4 L1284.47 1532.4 L1284.47 1536.95 L1272.41 1536.95 L1272.41 1556.3 Q1272.41 1560.66 1273.58 1561.9 Q1274.79 1563.14 1278.45 1563.14 L1284.47 1563.14 L1284.47 1568.04 L1278.45 1568.04 Q1271.67 1568.04 1269.1 1565.53 Q1266.52 1562.98 1266.52 1556.3 L1266.52 1536.95 L1262.22 1536.95 L1262.22 1532.4 L1266.52 1532.4 L1266.52 1522.27 L1272.41 1522.27 Z" fill="#000000" fill-rule="nonzero" fill-opacity="1" /><polyline clip-path="url(#clip970)" style="stroke:#000000; stroke-linecap:round; stroke-linejoin:round; stroke-width:4; stroke-opacity:1; fill:none" points="193.936,1423.18 193.936,47.2441 "/>
<polyline clip-path="url(#clip970)" style="stroke:#000000; stroke-linecap:round; stroke-linejoin:round; stroke-width:4; stroke-opacity:1; fill:none" points="193.936,1393.89 212.834,1393.89 "/>
<polyline clip-path="url(#clip970)" style="stroke:#000000; stroke-linecap:round; stroke-linejoin:round; stroke-width:4; stroke-opacity:1; fill:none" points="193.936,1148.29 212.834,1148.29 "/>
<polyline clip-path="url(#clip970)" style="stroke:#000000; stroke-linecap:round; stroke-linejoin:round; stroke-width:4; stroke-opacity:1; fill:none" points="193.936,902.683 212.834,902.683 "/>
<polyline clip-path="url(#clip970)" style="stroke:#000000; stroke-linecap:round; stroke-linejoin:round; stroke-width:4; stroke-opacity:1; fill:none" points="193.936,657.08 212.834,657.08 "/>
<polyline clip-path="url(#clip970)" style="stroke:#000000; stroke-linecap:round; stroke-linejoin:round; stroke-width:4; stroke-opacity:1; fill:none" points="193.936,411.476 212.834,411.476 "/>
<polyline clip-path="url(#clip970)" style="stroke:#000000; stroke-linecap:round; stroke-linejoin:round; stroke-width:4; stroke-opacity:1; fill:none" points="193.936,165.872 212.834,165.872 "/>
<path clip-path="url(#clip970)" d="M50.9921 1394.34 L80.6679 1394.34 L80.6679 1398.28 L50.9921 1398.28 L50.9921 1394.34 Z" fill="#000000" fill-rule="nonzero" fill-opacity="1" /><path clip-path="url(#clip970)" d="M91.5706 1407.24 L99.2095 1407.24 L99.2095 1380.87 L90.8993 1382.54 L90.8993 1378.28 L99.1632 1376.61 L103.839 1376.61 L103.839 1407.24 L111.478 1407.24 L111.478 1411.17 L91.5706 1411.17 L91.5706 1407.24 Z" fill="#000000" fill-rule="nonzero" fill-opacity="1" /><path clip-path="url(#clip970)" d="M120.922 1405.29 L125.807 1405.29 L125.807 1411.17 L120.922 1411.17 L120.922 1405.29 Z" fill="#000000" fill-rule="nonzero" fill-opacity="1" /><path clip-path="url(#clip970)" d="M145.992 1379.69 Q142.381 1379.69 140.552 1383.25 Q138.746 1386.8 138.746 1393.93 Q138.746 1401.03 140.552 1404.6 Q142.381 1408.14 145.992 1408.14 Q149.626 1408.14 151.431 1404.6 Q153.26 1401.03 153.26 1393.93 Q153.26 1386.8 151.431 1383.25 Q149.626 1379.69 145.992 1379.69 M145.992 1375.99 Q151.802 1375.99 154.857 1380.59 Q157.936 1385.18 157.936 1393.93 Q157.936 1402.65 154.857 1407.26 Q151.802 1411.84 145.992 1411.84 Q140.181 1411.84 137.103 1407.26 Q134.047 1402.65 134.047 1393.93 Q134.047 1385.18 137.103 1380.59 Q140.181 1375.99 145.992 1375.99 Z" fill="#000000" fill-rule="nonzero" fill-opacity="1" /><path clip-path="url(#clip970)" d="M51.9875 1148.74 L81.6633 1148.74 L81.6633 1152.67 L51.9875 1152.67 L51.9875 1148.74 Z" fill="#000000" fill-rule="nonzero" fill-opacity="1" /><path clip-path="url(#clip970)" d="M101.756 1134.09 Q98.1447 1134.09 96.316 1137.65 Q94.5104 1141.19 94.5104 1148.32 Q94.5104 1155.43 96.316 1158.99 Q98.1447 1162.53 101.756 1162.53 Q105.39 1162.53 107.196 1158.99 Q109.024 1155.43 109.024 1148.32 Q109.024 1141.19 107.196 1137.65 Q105.39 1134.09 101.756 1134.09 M101.756 1130.38 Q107.566 1130.38 110.621 1134.99 Q113.7 1139.57 113.7 1148.32 Q113.7 1157.05 110.621 1161.66 Q107.566 1166.24 101.756 1166.24 Q95.9456 1166.24 92.8669 1161.66 Q89.8114 1157.05 89.8114 1148.32 Q89.8114 1139.57 92.8669 1134.99 Q95.9456 1130.38 101.756 1130.38 Z" fill="#000000" fill-rule="nonzero" fill-opacity="1" /><path clip-path="url(#clip970)" d="M121.918 1159.69 L126.802 1159.69 L126.802 1165.57 L121.918 1165.57 L121.918 1159.69 Z" fill="#000000" fill-rule="nonzero" fill-opacity="1" /><path clip-path="url(#clip970)" d="M137.033 1131.01 L155.39 1131.01 L155.39 1134.94 L141.316 1134.94 L141.316 1143.41 Q142.334 1143.07 143.353 1142.91 Q144.371 1142.72 145.39 1142.72 Q151.177 1142.72 154.556 1145.89 Q157.936 1149.06 157.936 1154.48 Q157.936 1160.06 154.464 1163.16 Q150.992 1166.24 144.672 1166.24 Q142.496 1166.24 140.228 1165.87 Q137.982 1165.5 135.575 1164.76 L135.575 1160.06 Q137.658 1161.19 139.881 1161.75 Q142.103 1162.3 144.58 1162.3 Q148.584 1162.3 150.922 1160.2 Q153.26 1158.09 153.26 1154.48 Q153.26 1150.87 150.922 1148.76 Q148.584 1146.66 144.58 1146.66 Q142.705 1146.66 140.83 1147.07 Q138.978 1147.49 137.033 1148.37 L137.033 1131.01 Z" fill="#000000" fill-rule="nonzero" fill-opacity="1" /><path clip-path="url(#clip970)" d="M100.76 888.482 Q97.1493 888.482 95.3206 892.047 Q93.515 895.589 93.515 902.718 Q93.515 909.825 95.3206 913.389 Q97.1493 916.931 100.76 916.931 Q104.395 916.931 106.2 913.389 Q108.029 909.825 108.029 902.718 Q108.029 895.589 106.2 892.047 Q104.395 888.482 100.76 888.482 M100.76 884.778 Q106.571 884.778 109.626 889.385 Q112.705 893.968 112.705 902.718 Q112.705 911.445 109.626 916.051 Q106.571 920.635 100.76 920.635 Q94.9502 920.635 91.8715 916.051 Q88.816 911.445 88.816 902.718 Q88.816 893.968 91.8715 889.385 Q94.9502 884.778 100.76 884.778 Z" fill="#000000" fill-rule="nonzero" fill-opacity="1" /><path clip-path="url(#clip970)" d="M120.922 914.084 L125.807 914.084 L125.807 919.963 L120.922 919.963 L120.922 914.084 Z" fill="#000000" fill-rule="nonzero" fill-opacity="1" /><path clip-path="url(#clip970)" d="M145.992 888.482 Q142.381 888.482 140.552 892.047 Q138.746 895.589 138.746 902.718 Q138.746 909.825 140.552 913.389 Q142.381 916.931 145.992 916.931 Q149.626 916.931 151.431 913.389 Q153.26 909.825 153.26 902.718 Q153.26 895.589 151.431 892.047 Q149.626 888.482 145.992 888.482 M145.992 884.778 Q151.802 884.778 154.857 889.385 Q157.936 893.968 157.936 902.718 Q157.936 911.445 154.857 916.051 Q151.802 920.635 145.992 920.635 Q140.181 920.635 137.103 916.051 Q134.047 911.445 134.047 902.718 Q134.047 893.968 137.103 889.385 Q140.181 884.778 145.992 884.778 Z" fill="#000000" fill-rule="nonzero" fill-opacity="1" /><path clip-path="url(#clip970)" d="M101.756 642.878 Q98.1447 642.878 96.316 646.443 Q94.5104 649.985 94.5104 657.115 Q94.5104 664.221 96.316 667.786 Q98.1447 671.327 101.756 671.327 Q105.39 671.327 107.196 667.786 Q109.024 664.221 109.024 657.115 Q109.024 649.985 107.196 646.443 Q105.39 642.878 101.756 642.878 M101.756 639.175 Q107.566 639.175 110.621 643.781 Q113.7 648.365 113.7 657.115 Q113.7 665.841 110.621 670.448 Q107.566 675.031 101.756 675.031 Q95.9456 675.031 92.8669 670.448 Q89.8114 665.841 89.8114 657.115 Q89.8114 648.365 92.8669 643.781 Q95.9456 639.175 101.756 639.175 Z" fill="#000000" fill-rule="nonzero" fill-opacity="1" /><path clip-path="url(#clip970)" d="M121.918 668.48 L126.802 668.48 L126.802 674.36 L121.918 674.36 L121.918 668.48 Z" fill="#000000" fill-rule="nonzero" fill-opacity="1" /><path clip-path="url(#clip970)" d="M137.033 639.8 L155.39 639.8 L155.39 643.735 L141.316 643.735 L141.316 652.207 Q142.334 651.86 143.353 651.698 Q144.371 651.513 145.39 651.513 Q151.177 651.513 154.556 654.684 Q157.936 657.855 157.936 663.272 Q157.936 668.851 154.464 671.952 Q150.992 675.031 144.672 675.031 Q142.496 675.031 140.228 674.661 Q137.982 674.29 135.575 673.55 L135.575 668.851 Q137.658 669.985 139.881 670.54 Q142.103 671.096 144.58 671.096 Q148.584 671.096 150.922 668.989 Q153.26 666.883 153.26 663.272 Q153.26 659.661 150.922 657.554 Q148.584 655.448 144.58 655.448 Q142.705 655.448 140.83 655.865 Q138.978 656.281 137.033 657.161 L137.033 639.8 Z" fill="#000000" fill-rule="nonzero" fill-opacity="1" /><path clip-path="url(#clip970)" d="M91.5706 424.821 L99.2095 424.821 L99.2095 398.455 L90.8993 400.122 L90.8993 395.863 L99.1632 394.196 L103.839 394.196 L103.839 424.821 L111.478 424.821 L111.478 428.756 L91.5706 428.756 L91.5706 424.821 Z" fill="#000000" fill-rule="nonzero" fill-opacity="1" /><path clip-path="url(#clip970)" d="M120.922 422.877 L125.807 422.877 L125.807 428.756 L120.922 428.756 L120.922 422.877 Z" fill="#000000" fill-rule="nonzero" fill-opacity="1" /><path clip-path="url(#clip970)" d="M145.992 397.275 Q142.381 397.275 140.552 400.84 Q138.746 404.381 138.746 411.511 Q138.746 418.617 140.552 422.182 Q142.381 425.724 145.992 425.724 Q149.626 425.724 151.431 422.182 Q153.26 418.617 153.26 411.511 Q153.26 404.381 151.431 400.84 Q149.626 397.275 145.992 397.275 M145.992 393.571 Q151.802 393.571 154.857 398.178 Q157.936 402.761 157.936 411.511 Q157.936 420.238 154.857 424.844 Q151.802 429.427 145.992 429.427 Q140.181 429.427 137.103 424.844 Q134.047 420.238 134.047 411.511 Q134.047 402.761 137.103 398.178 Q140.181 393.571 145.992 393.571 Z" fill="#000000" fill-rule="nonzero" fill-opacity="1" /><path clip-path="url(#clip970)" d="M92.566 179.217 L100.205 179.217 L100.205 152.852 L91.8947 154.518 L91.8947 150.259 L100.159 148.592 L104.834 148.592 L104.834 179.217 L112.473 179.217 L112.473 183.152 L92.566 183.152 L92.566 179.217 Z" fill="#000000" fill-rule="nonzero" fill-opacity="1" /><path clip-path="url(#clip970)" d="M121.918 177.273 L126.802 177.273 L126.802 183.152 L121.918 183.152 L121.918 177.273 Z" fill="#000000" fill-rule="nonzero" fill-opacity="1" /><path clip-path="url(#clip970)" d="M137.033 148.592 L155.39 148.592 L155.39 152.528 L141.316 152.528 L141.316 161 Q142.334 160.653 143.353 160.491 Q144.371 160.305 145.39 160.305 Q151.177 160.305 154.556 163.477 Q157.936 166.648 157.936 172.065 Q157.936 177.643 154.464 180.745 Q150.992 183.824 144.672 183.824 Q142.496 183.824 140.228 183.453 Q137.982 183.083 135.575 182.342 L135.575 177.643 Q137.658 178.777 139.881 179.333 Q142.103 179.889 144.58 179.889 Q148.584 179.889 150.922 177.782 Q153.26 175.676 153.26 172.065 Q153.26 168.453 150.922 166.347 Q148.584 164.241 144.58 164.241 Q142.705 164.241 140.83 164.657 Q138.978 165.074 137.033 165.953 L137.033 148.592 Z" fill="#000000" fill-rule="nonzero" fill-opacity="1" /><polyline clip-path="url(#clip971)" style="stroke:#009af9; stroke-linecap:round; stroke-linejoin:round; stroke-width:4; stroke-opacity:1; fill:none" points="193.936,902.683 196.097,901.483 198.258,900.298 200.419,899.128 202.58,897.974 204.741,896.836 206.902,895.713 209.063,894.604 211.224,893.51 213.385,892.431 215.546,891.366 217.707,890.315 219.868,889.278 222.029,888.255 224.19,887.245 226.351,886.249 228.512,885.266 230.673,884.296 232.834,883.339 234.995,882.394 237.156,881.462 239.317,880.543 241.478,879.635 243.639,878.74 245.8,877.857 247.961,876.985 250.122,876.125 252.282,875.276 254.443,874.438 256.604,873.612 258.765,872.796 260.926,871.992 263.087,871.198 265.248,870.414 267.409,869.641 269.57,868.878 271.731,868.125 273.892,867.383 276.053,866.65 278.214,865.926 280.375,865.213 282.536,864.509 284.697,863.814 286.858,863.128 289.019,862.452 291.18,861.784 293.341,861.126 295.502,860.476 297.663,859.834 299.824,859.201 301.985,858.577 304.146,857.961 306.307,857.353 308.468,856.753 310.629,856.161 312.79,855.577 314.951,855 317.112,854.432 319.273,853.87 321.434,853.317 323.595,852.77 325.756,852.231 327.917,851.699 330.078,851.174 332.239,850.656 334.4,850.145 336.561,849.64 338.722,849.143 340.883,848.652 343.044,848.167 345.205,847.689 347.366,847.217 349.527,846.752 351.688,846.292 353.849,845.839 356.01,845.392 358.171,844.95 360.332,844.515 362.493,844.085 364.653,843.661 366.814,843.243 368.975,842.83 371.136,842.422 373.297,842.02 375.458,841.624 377.619,841.232 379.78,840.846 381.941,840.465 384.102,840.089 386.263,839.718 388.424,839.352 390.585,838.991 392.746,838.634 394.907,838.282 397.068,837.935 399.229,837.593 401.39,837.255 403.551,836.921 405.712,836.358 407.873,835.28 410.034,833.741 412.195,831.794 414.356,829.49 416.517,826.876 418.678,823.997 420.839,820.897 423,817.615 425.161,814.188 427.322,810.651 429.483,807.035 431.644,803.371 433.805,799.685 435.966,796.001 438.127,792.34 440.288,788.721 442.449,785.161 444.61,781.672 446.771,778.266 448.932,774.951 451.093,771.732 453.254,768.612 455.415,765.592 457.576,762.669 459.737,759.838 461.898,757.092 464.059,754.421 466.22,751.81 468.381,749.246 470.542,746.709 472.703,744.179 474.864,741.632 477.024,739.076 479.185,736.552 481.346,734.062 483.507,731.605 485.668,729.181 487.829,726.789 489.99,724.428 492.151,722.099 494.312,719.801 496.473,717.533 498.634,715.295 500.795,713.087 502.956,710.908 505.117,708.758 507.278,706.636 509.439,704.543 511.6,702.477 513.761,700.439 515.922,698.427 518.083,696.442 520.244,694.484 522.405,692.551 524.566,690.644 526.727,688.762 528.888,686.906 531.049,685.073 533.21,683.266 535.371,681.482 537.532,679.721 539.693,677.985 541.854,676.271 544.015,674.58 546.176,672.911 548.337,671.265 550.498,669.641 552.659,668.038 554.82,666.456 556.981,664.896 559.142,663.356 561.303,661.836 563.464,660.337 565.625,658.858 567.786,657.398 569.947,655.958 572.108,654.537 574.269,653.134 576.43,651.751 578.591,650.385 580.752,649.038 582.913,647.709 585.074,646.397 587.235,645.103 589.396,643.825 591.556,642.565 593.717,641.321 595.878,640.094 598.039,638.883 600.2,637.688 602.361,636.509 604.522,635.346 606.683,634.198 608.844,633.065 611.005,631.947 613.166,630.844 615.327,629.755 617.488,628.681 619.649,627.835 621.81,628.356 623.971,630.262 626.132,633.385 628.293,637.565 630.454,642.651 632.615,648.503 634.776,654.988 636.937,661.982 639.098,669.372 641.259,677.054 643.42,684.931 645.581,692.918 647.742,700.936 649.903,708.919 652.064,716.806 654.225,724.549 656.386,732.107 658.547,739.447 660.708,746.549 662.869,753.399 665.03,759.993 667.191,766.337 669.352,772.444 671.513,778.338 673.674,784.052 675.835,789.629 677.996,795.118 680.157,800.581 682.318,806.086 684.479,811.67 686.64,817.198 688.801,822.653 690.962,828.035 693.123,833.346 695.284,838.587 697.445,843.758 699.606,848.861 701.767,853.896 703.927,858.864 706.088,863.767 708.249,868.604 710.41,873.377 712.571,878.087 714.732,882.735 716.893,887.321 719.054,891.847 721.215,896.312 723.376,900.718 725.537,905.066 727.698,909.356 729.859,913.589 732.02,917.767 734.181,921.888 736.342,925.955 738.503,929.968 740.664,933.928 742.825,937.836 744.986,941.691 747.147,945.495 749.308,949.249 751.469,952.953 753.63,956.608 755.791,960.214 757.952,963.773 760.113,967.284 762.274,970.749 764.435,974.168 766.596,977.541 768.757,980.87 770.918,984.155 773.079,987.396 775.24,990.594 777.401,993.75 779.562,996.864 781.723,999.937 783.884,1002.97 786.045,1005.96 788.206,1008.91 790.367,1011.83 792.528,1014.7 794.689,1017.54 796.85,1020.34 799.011,1023.1 801.172,1025.82 803.333,1028.51 805.494,1031.16 807.655,1033.78 809.816,1036.37 811.977,1038.91 814.138,1041.43 816.298,1043.91 818.459,1046.36 820.62,1048.78 822.781,1051.16 824.942,1053.52 827.103,1055.84 829.264,1058.13 831.425,1060.39 833.586,1062.62 835.747,1064.82 837.908,1066.99 840.069,1069.13 842.23,1068.51 844.391,1059.8 846.552,1046.77 848.713,1032.51 850.874,1018.87 853.035,1006.48 855.196,994.723 857.357,982.691 859.518,970.805 861.679,959.076 863.84,947.504 866.001,936.084 868.162,924.816 870.323,913.698 872.484,902.726 874.645,891.901 876.806,881.218 878.967,870.678 881.128,860.277 883.289,850.014 885.45,839.887 887.611,829.895 889.772,820.035 891.933,810.305 894.094,800.705 896.255,791.232 898.416,781.885 900.577,772.661 902.738,763.56 904.899,754.579 907.06,745.717 909.221,736.973 911.382,728.345 913.543,719.831 915.704,711.431 917.865,703.141 920.026,694.961 922.187,686.89 924.348,678.926 926.509,671.068 928.669,663.313 930.83,655.662 932.991,648.112 935.152,640.662 937.313,633.31 939.474,626.057 941.635,618.899 943.796,611.836 945.957,604.867 948.118,597.99 950.279,591.205 952.44,584.509 954.601,577.902 956.762,571.383 958.923,564.95 961.084,558.603 963.245,552.339 965.406,546.159 967.567,540.06 969.728,534.043 971.889,528.105 974.05,522.246 976.211,516.465 978.372,510.76 980.533,505.131 982.694,499.577 984.855,494.096 987.016,488.688 989.177,483.352 991.338,478.086 993.499,472.891 995.66,467.764 997.821,462.705 999.982,457.713 1002.14,452.788 1004.3,447.927 1006.46,443.131 1008.63,438.399 1010.79,433.729 1012.95,429.122 1015.11,424.575 1017.27,420.089 1019.43,415.662 1021.59,411.293 1023.75,406.983 1025.91,402.73 1028.07,398.533 1030.24,394.392 1032.4,390.306 1034.56,386.274 1036.72,382.295 1038.88,378.37 1041.04,374.496 1043.2,370.673 1045.36,366.902 1047.52,363.18 1049.68,358.268 1051.85,351.925 1054.01,350.165 1056.17,355.856 1058.33,368.162 1060.49,382.56 1062.65,395.84 1064.81,408.944 1066.97,421.875 1069.13,434.634 1071.29,447.224 1073.46,459.647 1075.62,471.905 1077.78,484.001 1079.94,495.937 1082.1,507.714 1084.26,519.335 1086.42,530.802 1088.58,542.117 1090.74,553.281 1092.9,564.298 1095.07,575.169 1097.23,585.895 1099.39,596.48 1101.55,606.924 1103.71,617.229 1105.87,627.398 1108.03,637.432 1110.19,647.333 1112.35,657.103 1114.51,666.744 1116.67,676.256 1118.84,685.643 1121,694.905 1123.16,704.044 1125.32,713.062 1127.48,721.96 1129.64,730.741 1131.8,739.405 1133.96,747.954 1136.12,756.39 1138.28,764.714 1140.45,772.928 1142.61,781.033 1144.77,789.03 1146.93,796.921 1149.09,804.708 1151.25,812.391 1153.41,819.973 1155.57,827.454 1157.73,834.835 1159.89,842.119 1162.06,849.307 1164.22,856.399 1166.38,863.397 1168.54,870.302 1170.7,877.116 1172.86,883.84 1175.02,890.474 1177.18,897.021 1179.34,903.48 1181.5,909.854 1183.67,916.144 1185.83,922.35 1187.99,928.474 1190.15,934.516 1192.31,940.479 1194.47,946.362 1196.63,952.167 1198.79,957.896 1200.95,963.548 1203.11,969.126 1205.28,974.629 1207.44,980.06 1209.6,985.418 1211.76,990.706 1213.92,995.923 1216.08,1001.07 1218.24,1006.15 1220.4,1011.16 1222.56,1016.11 1224.72,1020.99 1226.88,1025.81 1229.05,1030.56 1231.21,1035.25 1233.37,1039.87 1235.53,1044.44 1237.69,1048.95 1239.85,1053.39 1242.01,1057.78 1244.17,1062.11 1246.33,1066.38 1248.49,1070.59 1250.66,1074.75 1252.82,1078.85 1254.98,1082.9 1257.14,1086.9 1259.3,1090.84 1261.46,1094.73 1263.62,1098.57 1265.78,1102.35 1267.94,1106.09 1270.1,1109.45 1272.27,1110.25 1274.43,1108.43 1276.59,1104.37 1278.75,1098.4 1280.91,1090.86 1283.07,1082.05 1285.23,1072.23 1287.39,1061.66 1289.55,1050.57 1291.71,1039.16 1293.88,1027.61 1296.04,1016.08 1298.2,1004.7 1300.36,993.568 1302.52,982.779 1304.68,972.388 1306.84,962.432 1309,952.921 1311.16,943.842 1313.32,935.16 1315.49,926.814 1317.65,918.719 1319.81,910.766 1321.97,902.822 1324.13,894.732 1326.29,886.557 1328.45,878.491 1330.61,870.532 1332.77,862.678 1334.93,854.929 1337.09,847.282 1339.26,839.736 1341.42,832.291 1343.58,824.944 1345.74,817.695 1347.9,810.542 1350.06,803.484 1352.22,796.519 1354.38,789.647 1356.54,782.865 1358.7,776.174 1360.87,769.571 1363.03,763.056 1365.19,756.627 1367.35,750.284 1369.51,744.024 1371.67,737.847 1373.83,731.752 1375.99,725.738 1378.15,719.804 1380.31,713.949 1382.48,708.171 1384.64,702.469 1386.8,696.844 1388.96,691.293 1391.12,685.815 1393.28,680.411 1395.44,675.078 1397.6,669.815 1399.76,664.623 1401.92,659.499 1404.09,654.444 1406.25,649.455 1408.41,644.533 1410.57,639.675 1412.73,634.883 1414.89,630.153 1417.05,625.487 1419.21,620.882 1421.37,616.339 1423.53,611.855 1425.7,607.431 1427.86,603.066 1430.02,598.758 1432.18,594.508 1434.34,590.295 1436.5,585.99 1438.66,581.601 1440.82,577.172 1442.98,572.74 1445.14,568.342 1447.3,564.01 1449.47,559.775 1451.63,555.663 1453.79,551.699 1455.95,547.904 1458.11,544.298 1460.27,540.894 1462.43,537.707 1464.59,534.746 1466.75,532.019 1468.91,529.528 1471.08,527.277 1473.24,525.262 1475.4,523.479 1477.56,521.922 1479.72,520.579 1481.88,519.438 1484.04,518.482 1486.2,517.693 1488.36,517.049 1490.52,516.524 1492.69,516.093 1494.85,515.723 1497.01,515.383 1499.17,515.035 1501.33,514.64 1503.49,514.157 1505.65,513.614 1507.81,513.079 1509.97,512.55 1512.13,512.029 1514.3,511.514 1516.46,511.007 1518.62,510.506 1520.78,510.011 1522.94,509.524 1525.1,509.042 1527.26,508.568 1529.42,508.099 1531.58,507.637 1533.74,507.18 1535.91,506.73 1538.07,506.286 1540.23,505.847 1542.39,505.415 1544.55,504.988 1546.71,504.567 1548.87,504.151 1551.03,503.741 1553.19,503.336 1555.35,502.937 1557.51,502.543 1559.68,502.154 1561.84,501.77 1564,501.391 1566.16,501.017 1568.32,500.648 1570.48,500.283 1572.64,499.924 1574.8,499.569 1576.96,499.219 1579.12,498.874 1581.29,498.533 1583.45,498.197 1585.61,497.865 1587.77,497.538 1589.93,497.215 1592.09,496.897 1594.25,496.582 1596.41,496.272 1598.57,495.966 1600.73,495.664 1602.9,495.366 1605.06,495.072 1607.22,494.782 1609.38,494.496 1611.54,494.214 1613.7,493.935 1615.86,493.661 1618.02,493.39 1620.18,493.122 1622.34,492.858 1624.51,492.598 1626.67,492.341 1628.83,492.088 1630.99,491.838 1633.15,491.592 1635.31,491.348 1637.47,491.108 1639.63,490.871 1641.79,490.638 1643.95,490.407 1646.12,490.18 1648.28,489.956 1650.44,489.734 1652.6,489.516 1654.76,489.3 1656.92,489.088 1659.08,488.878 1661.24,488.671 1663.4,488.467 1665.56,488.265 1667.72,488.066 1669.89,487.87 1672.05,487.676 1674.21,487.485 1676.37,487.297 1678.53,487.111 1680.69,486.927 1682.85,486.746 1685.01,486.567 1687.17,486.39 1689.33,486.216 1691.5,486.044 1693.66,485.874 1695.82,485.707 1697.98,485.541 1700.14,485.382 1702.3,485.262 1704.46,485.185 1706.62,485.148 1708.78,485.147 1710.94,485.181 1713.11,485.246 1715.27,485.339 1717.43,485.459 1719.59,485.601 1721.75,485.765 1723.91,485.948 1726.07,486.147 1728.23,486.36 1730.39,486.586 1732.55,486.823 1734.72,487.068 1736.88,487.32 1739.04,487.577 1741.2,487.838 1743.36,488.101 1745.52,488.366 1747.68,488.63 1749.84,488.893 1752,489.154 1754.16,489.411 1756.33,489.664 1758.49,489.912 1760.65,490.155 1762.81,490.392 1764.97,490.622 1767.13,490.845 1769.29,491.061 1771.45,491.269 1773.61,491.471 1775.77,491.665 1777.93,491.851 1780.1,492.031 1782.26,492.204 1784.42,492.371 1786.58,492.532 1788.74,492.687 1790.9,492.839 1793.06,492.987 1795.22,493.132 1797.38,493.275 1799.54,493.418 1801.71,493.562 1803.87,493.707 1806.03,493.855 1808.19,494.002 1810.35,494.147 1812.51,494.29 1814.67,494.432 1816.83,494.571 1818.99,494.708 1821.15,494.844 1823.32,494.978 1825.48,495.11 1827.64,495.24 1829.8,495.369 1831.96,495.495 1834.12,495.621 1836.28,495.744 1838.44,495.866 1840.6,495.986 1842.76,496.105 1844.93,496.222 1847.09,496.338 1849.25,496.452 1851.41,496.564 1853.57,496.675 1855.73,496.785 1857.89,496.893 1860.05,496.999 1862.21,497.104 1864.37,497.208 1866.54,497.311 1868.7,497.412 1870.86,497.511 1873.02,497.61 1875.18,497.707 1877.34,497.803 1879.5,497.897 1881.66,497.991 1883.82,498.083 1885.98,498.174 1888.15,498.263 1890.31,498.352 1892.47,498.438 1894.63,498.122 1896.79,497.36 1898.95,496.516 1901.11,495.891 1903.27,495.728 1905.43,496.212 1907.59,497.468 1909.75,499.562 1911.92,502.501 1914.08,506.235 1916.24,510.651 1918.4,515.58 1920.56,520.794 1922.72,526.004 1924.88,530.887 1927.04,535.584 1929.2,540.22 1931.36,544.794 1933.53,549.307 1935.69,553.761 1937.85,558.155 1940.01,562.491 1942.17,566.77 1944.33,570.992 1946.49,575.158 1948.65,579.269 1950.81,583.326 1952.97,587.328 1955.14,591.278 1957.3,595.175 1959.46,599.021 1961.62,602.816 1963.78,606.56 1965.94,610.255 1968.1,613.9 1970.26,617.498 1972.42,621.047 1974.58,624.549 1976.75,628.005 1978.91,631.415 1981.07,634.78 1983.23,638.1 1985.39,641.376 1987.55,644.609 1989.71,647.799 1991.87,650.946 1994.03,654.052 1996.19,657.116 1998.36,660.14 2000.52,663.124 2002.68,666.068 2004.84,668.973 2007,671.84 2009.16,674.669 2011.32,677.46 2013.48,680.214 2015.64,682.932 2017.8,685.614 2019.96,688.26 2022.13,690.871 2024.29,693.448 2026.45,695.99 2028.61,698.499 2030.77,700.974 2032.93,703.417 2035.09,705.828 2037.25,708.206 2039.41,710.553 2041.57,712.868 2043.74,715.153 2045.9,717.408 2048.06,719.633 2050.22,721.828 2052.38,723.994 2054.54,726.132 2056.7,728.241 2058.86,730.322 2061.02,732.375 2063.18,734.402 2065.35,736.401 2067.51,738.374 2069.67,740.321 2071.83,742.242 2073.99,744.137 2076.15,746.008 2078.31,747.853 2080.47,749.674 2082.63,751.471 2084.79,753.244 2086.96,754.994 2089.12,756.721 2091.28,758.424 2093.44,760.105 2095.6,761.764 2097.76,763.401 2099.92,765.016 2102.08,766.609 2104.24,768.182 2106.4,769.733 2108.57,771.264 2110.73,772.775 2112.89,774.266 2115.05,775.737 2117.21,777.188 2119.37,778.62 2121.53,780.034 2123.69,781.428 2125.85,782.804 2128.01,784.162 2130.17,785.501 2132.34,786.921 2134.5,789.048 2136.66,791.91 2138.82,795.408 2140.98,799.448 2143.14,803.944 2145.3,808.814 2147.46,813.982 2149.62,819.378 2151.78,824.939 2153.95,830.607 2156.11,836.328 2158.27,842.057 2160.43,847.752 2162.59,853.379 2164.75,858.908 2166.91,864.316 2169.07,869.586 2171.23,874.705 2173.39,879.667 2175.56,884.473 2177.72,889.128 2179.88,893.644 2182.04,898.037 2184.2,902.33 2186.36,906.553 2188.52,910.741 2190.68,914.932 2192.84,919.15 2195,923.321 2197.17,927.437 2199.33,931.498 2201.49,935.505 2203.65,939.459 2205.81,943.361 2207.97,947.211 2210.13,951.01 2212.29,954.759 2214.45,958.458 2216.61,962.108 2218.78,965.709 2220.94,969.263 2223.1,972.769 2225.26,976.23 2227.42,979.644 2229.58,983.013 2231.74,986.337 2233.9,989.618 2236.06,992.855 2238.22,996.049 2240.38,999.2 2242.55,1002.31 2244.71,1005.38 2246.87,1008.41 2249.03,1011.39 2251.19,1014.34 2253.35,1017.25 2255.51,1020.12 2257.67,1022.95 2259.83,1025.75 2261.99,1028.51 2264.16,1031.23 2266.32,1033.91 2268.48,1036.56 2270.64,1039.18 2272.8,1041.76 2274.96,1044.3 2277.12,1046.81 2279.28,1049.29 2281.44,1051.74 2283.6,1054.15 2285.77,1056.53 2287.93,1058.88 2290.09,1061.2 2292.25,1063.49 2294.41,1065.74 2296.57,1067.97 2298.73,1070.17 2300.89,1072.34 2303.05,1074.48 2305.21,1076.59 2307.38,1078.67 2309.54,1080.73 2311.7,1082.76 2313.86,1084.76 2316.02,1086.74 2318.18,1088.68 2320.34,1090.61 2322.5,1092.51 2324.66,1094.38 2326.82,1096.23 2328.99,1098.05 2331.15,1099.85 2333.31,1101.62 2335.47,1103.38 2337.63,1105.1 2339.79,1106.81 2341.95,1108.49 2344.11,1110.15 2346.27,1111.79 2348.43,1113.41 2350.59,1115.01 2352.76,1116.58 "/>
<polyline clip-path="url(#clip971)" style="stroke:#e26f46; stroke-linecap:round; stroke-linejoin:round; stroke-width:4; stroke-opacity:1; fill:none" points="193.936,812.102 196.097,812.102 198.258,812.102 200.419,812.102 202.58,812.102 204.741,812.102 206.902,812.102 209.063,812.102 211.224,812.102 213.385,812.102 215.546,812.102 217.707,812.102 219.868,812.102 222.029,812.102 224.19,812.102 226.351,812.102 228.512,812.102 230.673,812.102 232.834,812.102 234.995,812.102 237.156,812.102 239.317,812.102 241.478,812.102 243.639,812.102 245.8,812.102 247.961,812.102 250.122,812.102 252.282,812.102 254.443,812.102 256.604,812.102 258.765,812.102 260.926,812.102 263.087,812.102 265.248,812.102 267.409,812.102 269.57,812.102 271.731,812.102 273.892,812.102 276.053,812.102 278.214,812.102 280.375,812.102 282.536,812.102 284.697,812.102 286.858,812.102 289.019,812.102 291.18,812.102 293.341,812.102 295.502,812.102 297.663,812.102 299.824,812.102 301.985,812.102 304.146,812.102 306.307,812.102 308.468,812.102 310.629,812.102 312.79,812.102 314.951,812.102 317.112,812.102 319.273,812.102 321.434,812.102 323.595,812.102 325.756,812.102 327.917,812.102 330.078,812.102 332.239,812.102 334.4,812.102 336.561,812.102 338.722,812.102 340.883,812.102 343.044,812.102 345.205,812.102 347.366,812.102 349.527,812.102 351.688,812.102 353.849,812.102 356.01,812.102 358.171,812.102 360.332,812.102 362.493,812.102 364.653,812.102 366.814,812.102 368.975,812.102 371.136,812.102 373.297,812.102 375.458,812.102 377.619,812.102 379.78,812.102 381.941,812.102 384.102,812.102 386.263,812.102 388.424,812.102 390.585,812.102 392.746,812.102 394.907,812.102 397.068,812.102 399.229,812.102 401.39,812.102 403.551,812.102 405.712,812.102 407.873,812.102 410.034,548.743 412.195,548.743 414.356,548.743 416.517,548.743 418.678,548.743 420.839,548.743 423,548.743 425.161,548.743 427.322,548.743 429.483,548.743 431.644,548.743 433.805,548.743 435.966,548.743 438.127,548.743 440.288,548.743 442.449,548.743 444.61,548.743 446.771,548.743 448.932,548.743 451.093,548.743 453.254,548.743 455.415,548.743 457.576,548.743 459.737,548.743 461.898,548.743 464.059,548.743 466.22,548.743 468.381,548.743 470.542,548.743 472.703,548.743 474.864,548.743 477.024,548.743 479.185,548.743 481.346,548.743 483.507,548.743 485.668,548.743 487.829,548.743 489.99,548.743 492.151,548.743 494.312,548.743 496.473,548.743 498.634,548.743 500.795,548.743 502.956,548.743 505.117,548.743 507.278,548.743 509.439,548.743 511.6,548.743 513.761,548.743 515.922,548.743 518.083,548.743 520.244,548.743 522.405,548.743 524.566,548.743 526.727,548.743 528.888,548.743 531.049,548.743 533.21,548.743 535.371,548.743 537.532,548.743 539.693,548.743 541.854,548.743 544.015,548.743 546.176,548.743 548.337,548.743 550.498,548.743 552.659,548.743 554.82,548.743 556.981,548.743 559.142,548.743 561.303,548.743 563.464,548.743 565.625,548.743 567.786,548.743 569.947,548.743 572.108,548.743 574.269,548.743 576.43,548.743 578.591,548.743 580.752,548.743 582.913,548.743 585.074,548.743 587.235,548.743 589.396,548.743 591.556,548.743 593.717,548.743 595.878,548.743 598.039,548.743 600.2,548.743 602.361,548.743 604.522,548.743 606.683,548.743 608.844,548.743 611.005,548.743 613.166,548.743 615.327,548.743 617.488,548.743 619.649,548.743 621.81,548.743 623.971,548.743 626.132,1228.64 628.293,1228.64 630.454,1228.64 632.615,1228.64 634.776,1228.64 636.937,1228.64 639.098,1228.64 641.259,1228.64 643.42,1228.64 645.581,1228.64 647.742,1228.64 649.903,1228.64 652.064,1228.64 654.225,1228.64 656.386,1228.64 658.547,1228.64 660.708,1228.64 662.869,1228.64 665.03,1228.64 667.191,1228.64 669.352,1228.64 671.513,1228.64 673.674,1228.64 675.835,1228.64 677.996,1228.64 680.157,1228.64 682.318,1228.64 684.479,1228.64 686.64,1228.64 688.801,1228.64 690.962,1228.64 693.123,1228.64 695.284,1228.64 697.445,1228.64 699.606,1228.64 701.767,1228.64 703.927,1228.64 706.088,1228.64 708.249,1228.64 710.41,1228.64 712.571,1228.64 714.732,1228.64 716.893,1228.64 719.054,1228.64 721.215,1228.64 723.376,1228.64 725.537,1228.64 727.698,1228.64 729.859,1228.64 732.02,1228.64 734.181,1228.64 736.342,1228.64 738.503,1228.64 740.664,1228.64 742.825,1228.64 744.986,1228.64 747.147,1228.64 749.308,1228.64 751.469,1228.64 753.63,1228.64 755.791,1228.64 757.952,1228.64 760.113,1228.64 762.274,1228.64 764.435,1228.64 766.596,1228.64 768.757,1228.64 770.918,1228.64 773.079,1228.64 775.24,1228.64 777.401,1228.64 779.562,1228.64 781.723,1228.64 783.884,1228.64 786.045,1228.64 788.206,1228.64 790.367,1228.64 792.528,1228.64 794.689,1228.64 796.85,1228.64 799.011,1228.64 801.172,1228.64 803.333,1228.64 805.494,1228.64 807.655,1228.64 809.816,1228.64 811.977,1228.64 814.138,1228.64 816.298,1228.64 818.459,1228.64 820.62,1228.64 822.781,1228.64 824.942,1228.64 827.103,1228.64 829.264,1228.64 831.425,1228.64 833.586,1228.64 835.747,1228.64 837.908,1228.64 840.069,1228.64 842.23,86.1857 844.391,86.1857 846.552,86.1857 848.713,86.1857 850.874,86.1857 853.035,86.1857 855.196,86.1857 857.357,86.1857 859.518,86.1857 861.679,86.1857 863.84,86.1857 866.001,86.1857 868.162,86.1857 870.323,86.1857 872.484,86.1857 874.645,86.1857 876.806,86.1857 878.967,86.1857 881.128,86.1857 883.289,86.1857 885.45,86.1857 887.611,86.1857 889.772,86.1857 891.933,86.1857 894.094,86.1857 896.255,86.1857 898.416,86.1857 900.577,86.1857 902.738,86.1857 904.899,86.1857 907.06,86.1857 909.221,86.1857 911.382,86.1857 913.543,86.1857 915.704,86.1857 917.865,86.1857 920.026,86.1857 922.187,86.1857 924.348,86.1857 926.509,86.1857 928.669,86.1857 930.83,86.1857 932.991,86.1857 935.152,86.1857 937.313,86.1857 939.474,86.1857 941.635,86.1857 943.796,86.1857 945.957,86.1857 948.118,86.1857 950.279,86.1857 952.44,86.1857 954.601,86.1857 956.762,86.1857 958.923,86.1857 961.084,86.1857 963.245,86.1857 965.406,86.1857 967.567,86.1857 969.728,86.1857 971.889,86.1857 974.05,86.1857 976.211,86.1857 978.372,86.1857 980.533,86.1857 982.694,86.1857 984.855,86.1857 987.016,86.1857 989.177,86.1857 991.338,86.1857 993.499,86.1857 995.66,86.1857 997.821,86.1857 999.982,86.1857 1002.14,86.1857 1004.3,86.1857 1006.46,86.1857 1008.63,86.1857 1010.79,86.1857 1012.95,86.1857 1015.11,86.1857 1017.27,86.1857 1019.43,86.1857 1021.59,86.1857 1023.75,86.1857 1025.91,86.1857 1028.07,86.1857 1030.24,86.1857 1032.4,86.1857 1034.56,86.1857 1036.72,86.1857 1038.88,86.1857 1041.04,86.1857 1043.2,86.1857 1045.36,86.1857 1047.52,86.1857 1049.68,86.1857 1051.85,86.1857 1054.01,86.1857 1056.17,86.1857 1058.33,1384.24 1060.49,1384.24 1062.65,1384.24 1064.81,1384.24 1066.97,1384.24 1069.13,1384.24 1071.29,1384.24 1073.46,1384.24 1075.62,1384.24 1077.78,1384.24 1079.94,1384.24 1082.1,1384.24 1084.26,1384.24 1086.42,1384.24 1088.58,1384.24 1090.74,1384.24 1092.9,1384.24 1095.07,1384.24 1097.23,1384.24 1099.39,1384.24 1101.55,1384.24 1103.71,1384.24 1105.87,1384.24 1108.03,1384.24 1110.19,1384.24 1112.35,1384.24 1114.51,1384.24 1116.67,1384.24 1118.84,1384.24 1121,1384.24 1123.16,1384.24 1125.32,1384.24 1127.48,1384.24 1129.64,1384.24 1131.8,1384.24 1133.96,1384.24 1136.12,1384.24 1138.28,1384.24 1140.45,1384.24 1142.61,1384.24 1144.77,1384.24 1146.93,1384.24 1149.09,1384.24 1151.25,1384.24 1153.41,1384.24 1155.57,1384.24 1157.73,1384.24 1159.89,1384.24 1162.06,1384.24 1164.22,1384.24 1166.38,1384.24 1168.54,1384.24 1170.7,1384.24 1172.86,1384.24 1175.02,1384.24 1177.18,1384.24 1179.34,1384.24 1181.5,1384.24 1183.67,1384.24 1185.83,1384.24 1187.99,1384.24 1190.15,1384.24 1192.31,1384.24 1194.47,1384.24 1196.63,1384.24 1198.79,1384.24 1200.95,1384.24 1203.11,1384.24 1205.28,1384.24 1207.44,1384.24 1209.6,1384.24 1211.76,1384.24 1213.92,1384.24 1216.08,1384.24 1218.24,1384.24 1220.4,1384.24 1222.56,1384.24 1224.72,1384.24 1226.88,1384.24 1229.05,1384.24 1231.21,1384.24 1233.37,1384.24 1235.53,1384.24 1237.69,1384.24 1239.85,1384.24 1242.01,1384.24 1244.17,1384.24 1246.33,1384.24 1248.49,1384.24 1250.66,1384.24 1252.82,1384.24 1254.98,1384.24 1257.14,1384.24 1259.3,1384.24 1261.46,1384.24 1263.62,1384.24 1265.78,1384.24 1267.94,1384.24 1270.1,1384.24 1272.27,1384.24 1274.43,278.16 1276.59,278.16 1278.75,278.16 1280.91,278.16 1283.07,278.16 1285.23,278.16 1287.39,278.16 1289.55,278.16 1291.71,278.16 1293.88,278.16 1296.04,278.16 1298.2,278.16 1300.36,278.16 1302.52,278.16 1304.68,278.16 1306.84,278.16 1309,278.16 1311.16,278.16 1313.32,278.16 1315.49,278.16 1317.65,278.16 1319.81,278.16 1321.97,278.16 1324.13,278.16 1326.29,278.16 1328.45,278.16 1330.61,278.16 1332.77,278.16 1334.93,278.16 1337.09,278.16 1339.26,278.16 1341.42,278.16 1343.58,278.16 1345.74,278.16 1347.9,278.16 1350.06,278.16 1352.22,278.16 1354.38,278.16 1356.54,278.16 1358.7,278.16 1360.87,278.16 1363.03,278.16 1365.19,278.16 1367.35,278.16 1369.51,278.16 1371.67,278.16 1373.83,278.16 1375.99,278.16 1378.15,278.16 1380.31,278.16 1382.48,278.16 1384.64,278.16 1386.8,278.16 1388.96,278.16 1391.12,278.16 1393.28,278.16 1395.44,278.16 1397.6,278.16 1399.76,278.16 1401.92,278.16 1404.09,278.16 1406.25,278.16 1408.41,278.16 1410.57,278.16 1412.73,278.16 1414.89,278.16 1417.05,278.16 1419.21,278.16 1421.37,278.16 1423.53,278.16 1425.7,278.16 1427.86,278.16 1430.02,278.16 1432.18,278.16 1434.34,278.16 1436.5,278.16 1438.66,278.16 1440.82,278.16 1442.98,278.16 1445.14,278.16 1447.3,278.16 1449.47,278.16 1451.63,278.16 1453.79,278.16 1455.95,278.16 1458.11,278.16 1460.27,278.16 1462.43,278.16 1464.59,278.16 1466.75,278.16 1468.91,278.16 1471.08,278.16 1473.24,278.16 1475.4,278.16 1477.56,278.16 1479.72,278.16 1481.88,278.16 1484.04,278.16 1486.2,278.16 1488.36,278.16 1490.52,473.222 1492.69,473.222 1494.85,473.222 1497.01,473.222 1499.17,473.222 1501.33,473.222 1503.49,473.222 1505.65,473.222 1507.81,473.222 1509.97,473.222 1512.13,473.222 1514.3,473.222 1516.46,473.222 1518.62,473.222 1520.78,473.222 1522.94,473.222 1525.1,473.222 1527.26,473.222 1529.42,473.222 1531.58,473.222 1533.74,473.222 1535.91,473.222 1538.07,473.222 1540.23,473.222 1542.39,473.222 1544.55,473.222 1546.71,473.222 1548.87,473.222 1551.03,473.222 1553.19,473.222 1555.35,473.222 1557.51,473.222 1559.68,473.222 1561.84,473.222 1564,473.222 1566.16,473.222 1568.32,473.222 1570.48,473.222 1572.64,473.222 1574.8,473.222 1576.96,473.222 1579.12,473.222 1581.29,473.222 1583.45,473.222 1585.61,473.222 1587.77,473.222 1589.93,473.222 1592.09,473.222 1594.25,473.222 1596.41,473.222 1598.57,473.222 1600.73,473.222 1602.9,473.222 1605.06,473.222 1607.22,473.222 1609.38,473.222 1611.54,473.222 1613.7,473.222 1615.86,473.222 1618.02,473.222 1620.18,473.222 1622.34,473.222 1624.51,473.222 1626.67,473.222 1628.83,473.222 1630.99,473.222 1633.15,473.222 1635.31,473.222 1637.47,473.222 1639.63,473.222 1641.79,473.222 1643.95,473.222 1646.12,473.222 1648.28,473.222 1650.44,473.222 1652.6,473.222 1654.76,473.222 1656.92,473.222 1659.08,473.222 1661.24,473.222 1663.4,473.222 1665.56,473.222 1667.72,473.222 1669.89,473.222 1672.05,473.222 1674.21,473.222 1676.37,473.222 1678.53,473.222 1680.69,473.222 1682.85,473.222 1685.01,473.222 1687.17,473.222 1689.33,473.222 1691.5,473.222 1693.66,473.222 1695.82,473.222 1697.98,473.222 1700.14,473.222 1702.3,473.222 1704.46,473.222 1706.62,504.936 1708.78,504.936 1710.94,504.936 1713.11,504.936 1715.27,504.936 1717.43,504.936 1719.59,504.936 1721.75,504.936 1723.91,504.936 1726.07,504.936 1728.23,504.936 1730.39,504.936 1732.55,504.936 1734.72,504.936 1736.88,504.936 1739.04,504.936 1741.2,504.936 1743.36,504.936 1745.52,504.936 1747.68,504.936 1749.84,504.936 1752,504.936 1754.16,504.936 1756.33,504.936 1758.49,504.936 1760.65,504.936 1762.81,504.936 1764.97,504.936 1767.13,504.936 1769.29,504.936 1771.45,504.936 1773.61,504.936 1775.77,504.936 1777.93,504.936 1780.1,504.936 1782.26,504.936 1784.42,504.936 1786.58,504.936 1788.74,504.936 1790.9,504.936 1793.06,504.936 1795.22,504.936 1797.38,504.936 1799.54,504.936 1801.71,504.936 1803.87,504.936 1806.03,504.936 1808.19,504.936 1810.35,504.936 1812.51,504.936 1814.67,504.936 1816.83,504.936 1818.99,504.936 1821.15,504.936 1823.32,504.936 1825.48,504.936 1827.64,504.936 1829.8,504.936 1831.96,504.936 1834.12,504.936 1836.28,504.936 1838.44,504.936 1840.6,504.936 1842.76,504.936 1844.93,504.936 1847.09,504.936 1849.25,504.936 1851.41,504.936 1853.57,504.936 1855.73,504.936 1857.89,504.936 1860.05,504.936 1862.21,504.936 1864.37,504.936 1866.54,504.936 1868.7,504.936 1870.86,504.936 1873.02,504.936 1875.18,504.936 1877.34,504.936 1879.5,504.936 1881.66,504.936 1883.82,504.936 1885.98,504.936 1888.15,504.936 1890.31,504.936 1892.47,504.936 1894.63,504.936 1896.79,504.936 1898.95,504.936 1901.11,504.936 1903.27,504.936 1905.43,504.936 1907.59,504.936 1909.75,504.936 1911.92,504.936 1914.08,504.936 1916.24,504.936 1918.4,504.936 1920.56,504.936 1922.72,885.214 1924.88,885.214 1927.04,885.214 1929.2,885.214 1931.36,885.214 1933.53,885.214 1935.69,885.214 1937.85,885.214 1940.01,885.214 1942.17,885.214 1944.33,885.214 1946.49,885.214 1948.65,885.214 1950.81,885.214 1952.97,885.214 1955.14,885.214 1957.3,885.214 1959.46,885.214 1961.62,885.214 1963.78,885.214 1965.94,885.214 1968.1,885.214 1970.26,885.214 1972.42,885.214 1974.58,885.214 1976.75,885.214 1978.91,885.214 1981.07,885.214 1983.23,885.214 1985.39,885.214 1987.55,885.214 1989.71,885.214 1991.87,885.214 1994.03,885.214 1996.19,885.214 1998.36,885.214 2000.52,885.214 2002.68,885.214 2004.84,885.214 2007,885.214 2009.16,885.214 2011.32,885.214 2013.48,885.214 2015.64,885.214 2017.8,885.214 2019.96,885.214 2022.13,885.214 2024.29,885.214 2026.45,885.214 2028.61,885.214 2030.77,885.214 2032.93,885.214 2035.09,885.214 2037.25,885.214 2039.41,885.214 2041.57,885.214 2043.74,885.214 2045.9,885.214 2048.06,885.214 2050.22,885.214 2052.38,885.214 2054.54,885.214 2056.7,885.214 2058.86,885.214 2061.02,885.214 2063.18,885.214 2065.35,885.214 2067.51,885.214 2069.67,885.214 2071.83,885.214 2073.99,885.214 2076.15,885.214 2078.31,885.214 2080.47,885.214 2082.63,885.214 2084.79,885.214 2086.96,885.214 2089.12,885.214 2091.28,885.214 2093.44,885.214 2095.6,885.214 2097.76,885.214 2099.92,885.214 2102.08,885.214 2104.24,885.214 2106.4,885.214 2108.57,885.214 2110.73,885.214 2112.89,885.214 2115.05,885.214 2117.21,885.214 2119.37,885.214 2121.53,885.214 2123.69,885.214 2125.85,885.214 2128.01,885.214 2130.17,885.214 2132.34,885.214 2134.5,885.214 2136.66,885.214 2138.82,1233.75 2140.98,1233.75 2143.14,1233.75 2145.3,1233.75 2147.46,1233.75 2149.62,1233.75 2151.78,1233.75 2153.95,1233.75 2156.11,1233.75 2158.27,1233.75 2160.43,1233.75 2162.59,1233.75 2164.75,1233.75 2166.91,1233.75 2169.07,1233.75 2171.23,1233.75 2173.39,1233.75 2175.56,1233.75 2177.72,1233.75 2179.88,1233.75 2182.04,1233.75 2184.2,1233.75 2186.36,1233.75 2188.52,1233.75 2190.68,1233.75 2192.84,1233.75 2195,1233.75 2197.17,1233.75 2199.33,1233.75 2201.49,1233.75 2203.65,1233.75 2205.81,1233.75 2207.97,1233.75 2210.13,1233.75 2212.29,1233.75 2214.45,1233.75 2216.61,1233.75 2218.78,1233.75 2220.94,1233.75 2223.1,1233.75 2225.26,1233.75 2227.42,1233.75 2229.58,1233.75 2231.74,1233.75 2233.9,1233.75 2236.06,1233.75 2238.22,1233.75 2240.38,1233.75 2242.55,1233.75 2244.71,1233.75 2246.87,1233.75 2249.03,1233.75 2251.19,1233.75 2253.35,1233.75 2255.51,1233.75 2257.67,1233.75 2259.83,1233.75 2261.99,1233.75 2264.16,1233.75 2266.32,1233.75 2268.48,1233.75 2270.64,1233.75 2272.8,1233.75 2274.96,1233.75 2277.12,1233.75 2279.28,1233.75 2281.44,1233.75 2283.6,1233.75 2285.77,1233.75 2287.93,1233.75 2290.09,1233.75 2292.25,1233.75 2294.41,1233.75 2296.57,1233.75 2298.73,1233.75 2300.89,1233.75 2303.05,1233.75 2305.21,1233.75 2307.38,1233.75 2309.54,1233.75 2311.7,1233.75 2313.86,1233.75 2316.02,1233.75 2318.18,1233.75 2320.34,1233.75 2322.5,1233.75 2324.66,1233.75 2326.82,1233.75 2328.99,1233.75 2331.15,1233.75 2333.31,1233.75 2335.47,1233.75 2337.63,1233.75 2339.79,1233.75 2341.95,1233.75 2344.11,1233.75 2346.27,1233.75 2348.43,1233.75 2350.59,1233.75 2352.76,1233.75 "/>
<path clip-path="url(#clip970)" d="M2039.77 248.629 L2280.8 248.629 L2280.8 93.1086 L2039.77 93.1086  Z" fill="#ffffff" fill-rule="evenodd" fill-opacity="1"/>
<polyline clip-path="url(#clip970)" style="stroke:#000000; stroke-linecap:round; stroke-linejoin:round; stroke-width:4; stroke-opacity:1; fill:none" points="2039.77,248.629 2280.8,248.629 2280.8,93.1086 2039.77,93.1086 2039.77,248.629 "/>
<polyline clip-path="url(#clip970)" style="stroke:#009af9; stroke-linecap:round; stroke-linejoin:round; stroke-width:4; stroke-opacity:1; fill:none" points="2063.76,144.949 2207.68,144.949 "/>
<path clip-path="url(#clip970)" d="M2256.32 136.303 L2246.95 148.919 L2256.81 162.229 L2251.79 162.229 L2244.24 152.043 L2236.69 162.229 L2231.67 162.229 L2241.74 148.664 L2232.53 136.303 L2237.55 136.303 L2244.42 145.539 L2251.3 136.303 L2256.32 136.303 Z" fill="#000000" fill-rule="nonzero" fill-opacity="1" /><polyline clip-path="url(#clip970)" style="stroke:#e26f46; stroke-linecap:round; stroke-linejoin:round; stroke-width:4; stroke-opacity:1; fill:none" points="2063.76,196.789 2207.68,196.789 "/>
<path clip-path="url(#clip970)" d="M2248.17 178.05 L2248.17 181.592 L2244.1 181.592 Q2241.81 181.592 2240.91 182.518 Q2240.03 183.444 2240.03 185.851 L2240.03 188.143 L2247.04 188.143 L2247.04 191.453 L2240.03 191.453 L2240.03 214.069 L2235.74 214.069 L2235.74 191.453 L2231.67 191.453 L2231.67 188.143 L2235.74 188.143 L2235.74 186.337 Q2235.74 182.009 2237.76 180.041 Q2239.77 178.05 2244.15 178.05 L2248.17 178.05 Z" fill="#000000" fill-rule="nonzero" fill-opacity="1" /></svg>
