<?xml version="1.0" encoding="utf-8"?>
<svg xmlns="http://www.w3.org/2000/svg" xmlns:xlink="http://www.w3.org/1999/xlink" width="600" height="400" viewBox="0 0 2400 1600">
<defs>
  <clipPath id="clip100">
    <rect x="0" y="0" width="2400" height="1600"/>
  </clipPath>
</defs>
<path clip-path="url(#clip100)" d="M0 1600 L2400 1600 L2400 0 L0 0  Z" fill="#ffffff" fill-rule="evenodd" fill-opacity="1"/>
<defs>
  <clipPath id="clip101">
    <rect x="148" y="47" width="2206" height="1377"/>
  </clipPath>
</defs>
<path clip-path="url(#clip100)" d="M148.057 1423.18 L2352.76 1423.18 L2352.76 47.2441 L148.057 47.2441  Z" fill="#ffffff" fill-rule="evenodd" fill-opacity="1"/>
<polyline clip-path="url(#clip101)" style="stroke:#000000; stroke-linecap:round; stroke-linejoin:round; stroke-width:2; stroke-opacity:0.1; fill:none" points="148.057,1423.18 148.057,47.2441 "/>
<polyline clip-path="url(#clip101)" style="stroke:#000000; stroke-linecap:round; stroke-linejoin:round; stroke-width:2; stroke-opacity:0.1; fill:none" points="588.996,1423.18 588.996,47.2441 "/>
<polyline clip-path="url(#clip101)" style="stroke:#000000; stroke-linecap:round; stroke-linejoin:round; stroke-width:2; stroke-opacity:0.1; fill:none" points="1029.94,1423.18 1029.94,47.2441 "/>
<polyline clip-path="url(#clip101)" style="stroke:#000000; stroke-linecap:round; stroke-linejoin:round; stroke-width:2; stroke-opacity:0.1; fill:none" points="1470.88,1423.18 1470.88,47.2441 "/>
<polyline clip-path="url(#clip101)" style="stroke:#000000; stroke-linecap:round; stroke-linejoin:round; stroke-width:2; stroke-opacity:0.1; fill:none" points="1911.82,1423.18 1911.82,47.2441 "/>
<polyline clip-path="url(#clip101)" style="stroke:#000000; stroke-linecap:round; stroke-linejoin:round; stroke-width:2; stroke-opacity:0.1; fill:none" points="2352.76,1423.18 2352.76,47.2441 "/>
<polyline clip-path="url(#clip101)" style="stroke:#000000; stroke-linecap:round; stroke-linejoin:round; stroke-width:2; stroke-opacity:0.1; fill:none" points="148.057,1422.68 2352.76,1422.68 "/>
<polyline clip-path="url(#clip101)" style="stroke:#000000; stroke-linecap:round; stroke-linejoin:round; stroke-width:2; stroke-opacity:0.1; fill:none" points="148.057,1180.67 2352.76,1180.67 "/>
<polyline clip-path="url(#clip101)" style="stroke:#000000; stroke-linecap:round; stroke-linejoin:round; stroke-width:2; stroke-opacity:0.1; fill:none" points="148.057,938.659 2352.76,938.659 "/>
<polyline clip-path="url(#clip101)" style="stroke:#000000; stroke-linecap:round; stroke-linejoin:round; stroke-width:2; stroke-opacity:0.1; fill:none" points="148.057,696.65 2352.76,696.65 "/>
<polyline clip-path="url(#clip101)" style="stroke:#000000; stroke-linecap:round; stroke-linejoin:round; stroke-width:2; stroke-opacity:0.1; fill:none" points="148.057,454.641 2352.76,454.641 "/>
<polyline clip-path="url(#clip101)" style="stroke:#000000; stroke-linecap:round; stroke-linejoin:round; stroke-width:2; stroke-opacity:0.1; fill:none" points="148.057,212.631 2352.76,212.631 "/>
<polyline clip-path="url(#clip100)" style="stroke:#000000; stroke-linecap:round; stroke-linejoin:round; stroke-width:4; stroke-opacity:1; fill:none" points="148.057,1423.18 2352.76,1423.18 "/>
<polyline clip-path="url(#clip100)" style="stroke:#000000; stroke-linecap:round; stroke-linejoin:round; stroke-width:4; stroke-opacity:1; fill:none" points="148.057,1423.18 148.057,1404.28 "/>
<polyline clip-path="url(#clip100)" style="stroke:#000000; stroke-linecap:round; stroke-linejoin:round; stroke-width:4; stroke-opacity:1; fill:none" points="588.996,1423.18 588.996,1404.28 "/>
<polyline clip-path="url(#clip100)" style="stroke:#000000; stroke-linecap:round; stroke-linejoin:round; stroke-width:4; stroke-opacity:1; fill:none" points="1029.94,1423.18 1029.94,1404.28 "/>
<polyline clip-path="url(#clip100)" style="stroke:#000000; stroke-linecap:round; stroke-linejoin:round; stroke-width:4; stroke-opacity:1; fill:none" points="1470.88,1423.18 1470.88,1404.28 "/>
<polyline clip-path="url(#clip100)" style="stroke:#000000; stroke-linecap:round; stroke-linejoin:round; stroke-width:4; stroke-opacity:1; fill:none" points="1911.82,1423.18 1911.82,1404.28 "/>
<polyline clip-path="url(#clip100)" style="stroke:#000000; stroke-linecap:round; stroke-linejoin:round; stroke-width:4; stroke-opacity:1; fill:none" points="2352.76,1423.18 2352.76,1404.28 "/>
<path clip-path="url(#clip100)" d="M148.057 1454.1 Q144.446 1454.1 142.617 1457.66 Q140.811 1461.2 140.811 1468.33 Q140.811 1475.44 142.617 1479.01 Q144.446 1482.55 148.057 1482.55 Q151.691 1482.55 153.496 1479.01 Q155.325 1475.44 155.325 1468.33 Q155.325 1461.2 153.496 1457.66 Q151.691 1454.1 148.057 1454.1 M148.057 1450.39 Q153.867 1450.39 156.922 1455 Q160.001 1459.58 160.001 1468.33 Q160.001 1477.06 156.922 1481.67 Q153.867 1486.25 148.057 1486.25 Q142.246 1486.25 139.168 1481.67 Q136.112 1477.06 136.112 1468.33 Q136.112 1459.58 139.168 1455 Q142.246 1450.39 148.057 1450.39 Z" fill="#000000" fill-rule="nonzero" fill-opacity="1" /><path clip-path="url(#clip100)" d="M583.649 1481.64 L599.969 1481.64 L599.969 1485.58 L578.024 1485.58 L578.024 1481.64 Q580.686 1478.89 585.27 1474.26 Q589.876 1469.61 591.057 1468.27 Q593.302 1465.74 594.182 1464.01 Q595.084 1462.25 595.084 1460.56 Q595.084 1457.8 593.14 1456.07 Q591.219 1454.33 588.117 1454.33 Q585.918 1454.33 583.464 1455.09 Q581.034 1455.86 578.256 1457.41 L578.256 1452.69 Q581.08 1451.55 583.534 1450.97 Q585.987 1450.39 588.024 1450.39 Q593.395 1450.39 596.589 1453.08 Q599.783 1455.77 599.783 1460.26 Q599.783 1462.39 598.973 1464.31 Q598.186 1466.2 596.08 1468.8 Q595.501 1469.47 592.399 1472.69 Q589.297 1475.88 583.649 1481.64 Z" fill="#000000" fill-rule="nonzero" fill-opacity="1" /><path clip-path="url(#clip100)" d="M1032.95 1455.09 L1021.14 1473.54 L1032.95 1473.54 L1032.95 1455.09 M1031.72 1451.02 L1037.6 1451.02 L1037.6 1473.54 L1042.53 1473.54 L1042.53 1477.43 L1037.6 1477.43 L1037.6 1485.58 L1032.95 1485.58 L1032.95 1477.43 L1017.34 1477.43 L1017.34 1472.92 L1031.72 1451.02 Z" fill="#000000" fill-rule="nonzero" fill-opacity="1" /><path clip-path="url(#clip100)" d="M1471.28 1466.44 Q1468.13 1466.44 1466.28 1468.59 Q1464.45 1470.74 1464.45 1474.49 Q1464.45 1478.22 1466.28 1480.39 Q1468.13 1482.55 1471.28 1482.55 Q1474.43 1482.55 1476.26 1480.39 Q1478.11 1478.22 1478.11 1474.49 Q1478.11 1470.74 1476.26 1468.59 Q1474.43 1466.44 1471.28 1466.44 M1480.56 1451.78 L1480.56 1456.04 Q1478.8 1455.21 1477 1454.77 Q1475.22 1454.33 1473.46 1454.33 Q1468.83 1454.33 1466.37 1457.45 Q1463.94 1460.58 1463.6 1466.9 Q1464.96 1464.89 1467.02 1463.82 Q1469.08 1462.73 1471.56 1462.73 Q1476.77 1462.73 1479.78 1465.9 Q1482.81 1469.05 1482.81 1474.49 Q1482.81 1479.82 1479.66 1483.03 Q1476.51 1486.25 1471.28 1486.25 Q1465.29 1486.25 1462.11 1481.67 Q1458.94 1477.06 1458.94 1468.33 Q1458.94 1460.14 1462.83 1455.28 Q1466.72 1450.39 1473.27 1450.39 Q1475.03 1450.39 1476.81 1450.74 Q1478.62 1451.09 1480.56 1451.78 Z" fill="#000000" fill-rule="nonzero" fill-opacity="1" /><path clip-path="url(#clip100)" d="M1911.82 1469.17 Q1908.48 1469.17 1906.56 1470.95 Q1904.66 1472.73 1904.66 1475.86 Q1904.66 1478.98 1906.56 1480.77 Q1908.48 1482.55 1911.82 1482.55 Q1915.15 1482.55 1917.07 1480.77 Q1918.99 1478.96 1918.99 1475.86 Q1918.99 1472.73 1917.07 1470.95 Q1915.17 1469.17 1911.82 1469.17 M1907.14 1467.18 Q1904.13 1466.44 1902.44 1464.38 Q1900.77 1462.32 1900.77 1459.35 Q1900.77 1455.21 1903.71 1452.8 Q1906.68 1450.39 1911.82 1450.39 Q1916.98 1450.39 1919.92 1452.8 Q1922.86 1455.21 1922.86 1459.35 Q1922.86 1462.32 1921.17 1464.38 Q1919.5 1466.44 1916.52 1467.18 Q1919.89 1467.96 1921.77 1470.26 Q1923.67 1472.55 1923.67 1475.86 Q1923.67 1480.88 1920.59 1483.57 Q1917.53 1486.25 1911.82 1486.25 Q1906.1 1486.25 1903.02 1483.57 Q1899.96 1480.88 1899.96 1475.86 Q1899.96 1472.55 1901.86 1470.26 Q1903.76 1467.96 1907.14 1467.18 M1905.43 1459.79 Q1905.43 1462.48 1907.09 1463.98 Q1908.78 1465.49 1911.82 1465.49 Q1914.83 1465.49 1916.52 1463.98 Q1918.23 1462.48 1918.23 1459.79 Q1918.23 1457.11 1916.52 1455.6 Q1914.83 1454.1 1911.82 1454.1 Q1908.78 1454.1 1907.09 1455.6 Q1905.43 1457.11 1905.43 1459.79 Z" fill="#000000" fill-rule="nonzero" fill-opacity="1" /><path clip-path="url(#clip100)" d="M2327.44 1481.64 L2335.08 1481.64 L2335.08 1455.28 L2326.77 1456.95 L2326.77 1452.69 L2335.04 1451.02 L2339.71 1451.02 L2339.71 1481.64 L2347.35 1481.64 L2347.35 1485.58 L2327.44 1485.58 L2327.44 1481.64 Z" fill="#000000" fill-rule="nonzero" fill-opacity="1" /><path clip-path="url(#clip100)" d="M2366.8 1454.1 Q2363.18 1454.1 2361.36 1457.66 Q2359.55 1461.2 2359.55 1468.33 Q2359.55 1475.44 2361.36 1479.01 Q2363.18 1482.55 2366.8 1482.55 Q2370.43 1482.55 2372.23 1479.01 Q2374.06 1475.44 2374.06 1468.33 Q2374.06 1461.2 2372.23 1457.66 Q2370.43 1454.1 2366.8 1454.1 M2366.8 1450.39 Q2372.61 1450.39 2375.66 1455 Q2378.74 1459.58 2378.74 1468.33 Q2378.74 1477.06 2375.66 1481.67 Q2372.61 1486.25 2366.8 1486.25 Q2360.99 1486.25 2357.91 1481.67 Q2354.85 1477.06 2354.85 1468.33 Q2354.85 1459.58 2357.91 1455 Q2360.99 1450.39 2366.8 1450.39 Z" fill="#000000" fill-rule="nonzero" fill-opacity="1" /><path clip-path="url(#clip100)" d="M1249.47 1522.27 L1249.47 1532.4 L1261.53 1532.4 L1261.53 1536.95 L1249.47 1536.95 L1249.47 1556.3 Q1249.47 1560.66 1250.64 1561.9 Q1251.85 1563.14 1255.51 1563.14 L1261.53 1563.14 L1261.53 1568.04 L1255.51 1568.04 Q1248.74 1568.04 1246.16 1565.53 Q1243.58 1562.98 1243.58 1556.3 L1243.58 1536.95 L1239.28 1536.95 L1239.28 1532.4 L1243.58 1532.4 L1243.58 1522.27 L1249.47 1522.27 Z" fill="#000000" fill-rule="nonzero" fill-opacity="1" /><polyline clip-path="url(#clip100)" style="stroke:#000000; stroke-linecap:round; stroke-linejoin:round; stroke-width:4; stroke-opacity:1; fill:none" points="148.057,1423.18 148.057,47.2441 "/>
<polyline clip-path="url(#clip100)" style="stroke:#000000; stroke-linecap:round; stroke-linejoin:round; stroke-width:4; stroke-opacity:1; fill:none" points="148.057,1422.68 166.954,1422.68 "/>
<polyline clip-path="url(#clip100)" style="stroke:#000000; stroke-linecap:round; stroke-linejoin:round; stroke-width:4; stroke-opacity:1; fill:none" points="148.057,1180.67 166.954,1180.67 "/>
<polyline clip-path="url(#clip100)" style="stroke:#000000; stroke-linecap:round; stroke-linejoin:round; stroke-width:4; stroke-opacity:1; fill:none" points="148.057,938.659 166.954,938.659 "/>
<polyline clip-path="url(#clip100)" style="stroke:#000000; stroke-linecap:round; stroke-linejoin:round; stroke-width:4; stroke-opacity:1; fill:none" points="148.057,696.65 166.954,696.65 "/>
<polyline clip-path="url(#clip100)" style="stroke:#000000; stroke-linecap:round; stroke-linejoin:round; stroke-width:4; stroke-opacity:1; fill:none" points="148.057,454.641 166.954,454.641 "/>
<polyline clip-path="url(#clip100)" style="stroke:#000000; stroke-linecap:round; stroke-linejoin:round; stroke-width:4; stroke-opacity:1; fill:none" points="148.057,212.631 166.954,212.631 "/>
<path clip-path="url(#clip100)" d="M50.9921 1423.13 L80.6679 1423.13 L80.6679 1427.06 L50.9921 1427.06 L50.9921 1423.13 Z" fill="#000000" fill-rule="nonzero" fill-opacity="1" /><path clip-path="url(#clip100)" d="M104.927 1421.32 Q108.283 1422.04 110.158 1424.31 Q112.057 1426.58 112.057 1429.91 Q112.057 1435.03 108.538 1437.83 Q105.02 1440.63 98.5382 1440.63 Q96.3623 1440.63 94.0475 1440.19 Q91.7558 1439.77 89.3021 1438.92 L89.3021 1434.4 Q91.2465 1435.54 93.5613 1436.11 Q95.8761 1436.69 98.3993 1436.69 Q102.797 1436.69 105.089 1434.96 Q107.404 1433.22 107.404 1429.91 Q107.404 1426.86 105.251 1425.14 Q103.121 1423.41 99.3021 1423.41 L95.2743 1423.41 L95.2743 1419.56 L99.4872 1419.56 Q102.936 1419.56 104.765 1418.2 Q106.594 1416.81 106.594 1414.22 Q106.594 1411.55 104.696 1410.14 Q102.821 1408.71 99.3021 1408.71 Q97.3808 1408.71 95.1817 1409.12 Q92.9826 1409.54 90.3438 1410.42 L90.3438 1406.25 Q93.0058 1405.51 95.3206 1405.14 Q97.6585 1404.77 99.7187 1404.77 Q105.043 1404.77 108.145 1407.2 Q111.246 1409.61 111.246 1413.73 Q111.246 1416.6 109.603 1418.59 Q107.959 1420.56 104.927 1421.32 Z" fill="#000000" fill-rule="nonzero" fill-opacity="1" /><path clip-path="url(#clip100)" d="M51.9412 1181.12 L81.617 1181.12 L81.617 1185.05 L51.9412 1185.05 L51.9412 1181.12 Z" fill="#000000" fill-rule="nonzero" fill-opacity="1" /><path clip-path="url(#clip100)" d="M95.7373 1194.01 L112.057 1194.01 L112.057 1197.95 L90.1123 1197.95 L90.1123 1194.01 Q92.7743 1191.26 97.3576 1186.63 Q101.964 1181.98 103.145 1180.63 Q105.39 1178.11 106.27 1176.37 Q107.172 1174.62 107.172 1172.93 Q107.172 1170.17 105.228 1168.43 Q103.307 1166.7 100.205 1166.7 Q98.0058 1166.7 95.5521 1167.46 Q93.1215 1168.23 90.3438 1169.78 L90.3438 1165.05 Q93.1678 1163.92 95.6215 1163.34 Q98.0752 1162.76 100.112 1162.76 Q105.483 1162.76 108.677 1165.45 Q111.871 1168.13 111.871 1172.62 Q111.871 1174.75 111.061 1176.68 Q110.274 1178.57 108.168 1181.17 Q107.589 1181.84 104.487 1185.05 Q101.385 1188.25 95.7373 1194.01 Z" fill="#000000" fill-rule="nonzero" fill-opacity="1" /><path clip-path="url(#clip100)" d="M51.5708 939.11 L81.2466 939.11 L81.2466 943.046 L51.5708 943.046 L51.5708 939.11 Z" fill="#000000" fill-rule="nonzero" fill-opacity="1" /><path clip-path="url(#clip100)" d="M92.1493 952.004 L99.7882 952.004 L99.7882 925.638 L91.478 927.305 L91.478 923.046 L99.7419 921.379 L104.418 921.379 L104.418 952.004 L112.057 952.004 L112.057 955.939 L92.1493 955.939 L92.1493 952.004 Z" fill="#000000" fill-rule="nonzero" fill-opacity="1" /><path clip-path="url(#clip100)" d="M100.112 682.448 Q96.5011 682.448 94.6724 686.013 Q92.8669 689.555 92.8669 696.684 Q92.8669 703.791 94.6724 707.356 Q96.5011 710.897 100.112 710.897 Q103.746 710.897 105.552 707.356 Q107.381 703.791 107.381 696.684 Q107.381 689.555 105.552 686.013 Q103.746 682.448 100.112 682.448 M100.112 678.745 Q105.922 678.745 108.978 683.351 Q112.057 687.935 112.057 696.684 Q112.057 705.411 108.978 710.018 Q105.922 714.601 100.112 714.601 Q94.3021 714.601 91.2234 710.018 Q88.1679 705.411 88.1679 696.684 Q88.1679 687.935 91.2234 683.351 Q94.3021 678.745 100.112 678.745 Z" fill="#000000" fill-rule="nonzero" fill-opacity="1" /><path clip-path="url(#clip100)" d="M92.1493 467.985 L99.7882 467.985 L99.7882 441.62 L91.478 443.286 L91.478 439.027 L99.7419 437.361 L104.418 437.361 L104.418 467.985 L112.057 467.985 L112.057 471.921 L92.1493 471.921 L92.1493 467.985 Z" fill="#000000" fill-rule="nonzero" fill-opacity="1" /><path clip-path="url(#clip100)" d="M95.7373 225.976 L112.057 225.976 L112.057 229.911 L90.1123 229.911 L90.1123 225.976 Q92.7743 223.222 97.3576 218.592 Q101.964 213.939 103.145 212.597 Q105.39 210.073 106.27 208.337 Q107.172 206.578 107.172 204.888 Q107.172 202.134 105.228 200.398 Q103.307 198.661 100.205 198.661 Q98.0058 198.661 95.5521 199.425 Q93.1215 200.189 90.3438 201.74 L90.3438 197.018 Q93.1678 195.884 95.6215 195.305 Q98.0752 194.726 100.112 194.726 Q105.483 194.726 108.677 197.411 Q111.871 200.097 111.871 204.587 Q111.871 206.717 111.061 208.638 Q110.274 210.536 108.168 213.129 Q107.589 213.8 104.487 217.018 Q101.385 220.212 95.7373 225.976 Z" fill="#000000" fill-rule="nonzero" fill-opacity="1" /><polyline clip-path="url(#clip101)" style="stroke:#009af9; stroke-linecap:round; stroke-linejoin:round; stroke-width:4; stroke-opacity:1; fill:none" points="148.057,696.65 150.264,696.574 152.47,696.499 154.677,696.425 156.884,696.353 159.091,696.281 161.298,696.21 163.505,696.14 165.712,696.071 167.919,696.003 170.126,695.936 172.333,695.869 174.539,695.804 176.746,695.739 178.953,695.676 181.16,695.613 183.367,695.551 185.574,695.49 187.781,695.429 189.988,695.37 192.195,695.311 194.402,695.253 196.609,695.196 198.815,695.139 201.022,695.083 203.229,695.028 205.436,694.974 207.643,694.921 209.85,694.868 212.057,694.816 214.264,694.764 216.471,694.713 218.678,694.663 220.885,694.614 223.091,694.565 225.298,694.517 227.505,694.469 229.712,694.423 231.919,694.376 234.126,694.331 236.333,694.286 238.54,694.241 240.747,694.197 242.954,694.154 245.16,694.112 247.367,694.069 249.574,694.028 251.781,693.987 253.988,693.946 256.195,693.906 258.402,693.867 260.609,693.828 262.816,693.79 265.023,693.752 267.23,693.715 269.436,693.678 271.643,693.641 273.85,693.606 276.057,693.57 278.264,693.535 280.471,693.501 282.678,693.467 284.885,693.433 287.092,693.4 289.299,693.367 291.506,693.335 293.712,693.303 295.919,693.272 298.126,693.241 300.333,693.21 302.54,693.18 304.747,693.15 306.954,693.121 309.161,693.092 311.368,693.063 313.575,693.035 315.781,693.007 317.988,692.98 320.195,692.953 322.402,692.926 324.609,692.9 326.816,692.874 329.023,692.848 331.23,692.822 333.437,692.797 335.644,692.773 337.851,692.748 340.057,692.724 342.264,692.701 344.471,692.677 346.678,692.654 348.885,692.631 351.092,692.609 353.299,692.587 355.506,692.565 357.713,692.543 359.92,692.522 362.127,692.501 364.333,692.48 366.54,692.736 368.747,694.453 370.954,697.601 373.161,701.996 375.368,707.467 377.575,713.851 379.782,720.996 381.989,728.76 384.196,737.012 386.402,745.631 388.609,754.507 390.816,763.54 393.023,772.639 395.23,781.726 397.437,790.731 399.644,799.595 401.851,808.272 404.058,816.721 406.265,824.917 408.472,832.841 410.678,840.486 412.885,847.857 415.092,854.968 417.299,861.841 419.506,868.513 421.713,875.028 423.92,881.441 426.127,887.818 428.334,894.235 430.541,900.719 432.748,907.13 434.954,913.455 437.161,919.697 439.368,925.856 441.575,931.933 443.782,937.93 445.989,943.847 448.196,949.685 450.403,955.447 452.61,961.132 454.817,966.741 457.023,972.276 459.23,977.738 461.437,983.128 463.644,988.446 465.851,993.694 468.058,998.872 470.265,1003.98 472.472,1009.02 474.679,1014 476.886,1018.91 479.093,1023.75 481.299,1028.53 483.506,1033.25 485.713,1037.9 487.92,1042.49 490.127,1047.03 492.334,1051.5 494.541,1055.91 496.748,1060.26 498.955,1064.56 501.162,1068.79 503.369,1072.98 505.575,1077.1 507.782,1081.17 509.989,1085.19 512.196,1089.16 514.403,1093.07 516.61,1096.93 518.817,1100.74 521.024,1104.5 523.231,1108.2 525.438,1111.86 527.644,1115.47 529.851,1119.04 532.058,1122.55 534.265,1126.02 536.472,1129.44 538.679,1132.82 540.886,1136.16 543.093,1139.44 545.3,1142.69 547.507,1145.94 549.714,1149.39 551.92,1153.01 554.127,1156.71 556.334,1160.41 558.541,1164.05 560.748,1167.56 562.955,1170.9 565.162,1174.01 567.369,1176.86 569.576,1179.42 571.783,1181.65 573.99,1183.53 576.196,1185.06 578.403,1186.23 580.61,1187.04 582.817,1187.5 585.024,1187.62 587.231,1187.43 589.438,1186.95 591.645,1186.22 593.852,1185.28 596.059,1184.19 598.265,1182.99 600.472,1181.75 602.679,1180.54 604.886,1179.45 607.093,1178.52 609.3,1177.64 611.507,1176.78 613.714,1175.92 615.921,1175.08 618.128,1174.24 620.335,1173.42 622.541,1172.61 624.748,1171.81 626.955,1171.02 629.162,1170.25 631.369,1169.48 633.576,1168.72 635.783,1167.97 637.99,1167.23 640.197,1166.51 642.404,1165.79 644.611,1165.08 646.817,1164.38 649.024,1163.69 651.231,1163.01 653.438,1162.33 655.645,1161.67 657.852,1161.02 660.059,1160.37 662.266,1159.73 664.473,1159.1 666.68,1158.48 668.886,1157.87 671.093,1157.26 673.3,1156.67 675.507,1156.08 677.714,1155.5 679.921,1154.92 682.128,1154.36 684.335,1153.8 686.542,1153.25 688.749,1152.7 690.956,1152.17 693.162,1151.64 695.369,1151.12 697.576,1150.6 699.783,1150.09 701.99,1149.59 704.197,1149.1 706.404,1148.61 708.611,1148.13 710.818,1147.65 713.025,1147.19 715.232,1146.72 717.438,1146.27 719.645,1145.82 721.852,1145.37 724.059,1144.93 726.266,1144.5 728.473,1144.08 730.68,1143.65 732.887,1143.24 735.094,1142.83 737.301,1142.43 739.507,1142.03 741.714,1141.63 743.921,1141.24 746.128,1140.86 748.335,1140.48 750.542,1140.11 752.749,1139.74 754.956,1139.38 757.163,1139.02 759.37,1138.67 761.577,1138.32 763.783,1137.97 765.99,1137.63 768.197,1137.3 770.404,1136.97 772.611,1136.64 774.818,1136.32 777.025,1136 779.232,1135.69 781.439,1135.38 783.646,1135.07 785.853,1134.77 788.059,1134.47 790.266,1134.18 792.473,1133.89 794.68,1133.6 796.887,1133.32 799.094,1133.04 801.301,1132.77 803.508,1132.5 805.715,1132.23 807.922,1131.96 810.128,1130.76 812.335,1127.24 814.542,1121.67 816.749,1114.32 818.956,1105.45 821.163,1095.29 823.37,1084.08 825.577,1072.01 827.784,1059.29 829.991,1046.09 832.198,1032.58 834.404,1018.88 836.611,1005.15 838.818,991.477 841.025,977.975 843.232,964.72 845.439,951.779 847.646,939.202 849.853,927.021 852.06,915.255 854.267,903.907 856.474,892.962 858.68,882.391 860.887,872.149 863.094,862.173 865.301,852.387 867.508,842.697 869.715,832.995 871.922,823.173 874.129,813.402 876.336,803.76 878.543,794.246 880.749,784.859 882.956,775.596 885.163,766.456 887.37,757.437 889.577,748.537 891.784,739.756 893.991,731.091 896.198,722.541 898.405,714.104 900.612,705.779 902.819,697.564 905.025,689.459 907.232,681.46 909.439,673.568 911.646,665.78 913.853,658.095 916.06,650.512 918.267,643.03 920.474,635.647 922.681,628.362 924.888,621.174 927.095,614.081 929.301,607.082 931.508,600.176 933.715,593.361 935.922,586.637 938.129,580.002 940.336,573.455 942.543,566.995 944.75,560.621 946.957,554.331 949.164,548.125 951.37,542.001 953.577,535.958 955.784,529.995 957.991,524.111 960.198,518.305 962.405,512.576 964.612,506.924 966.819,501.346 969.026,495.841 971.233,490.41 973.44,485.051 975.646,479.763 977.853,474.545 980.06,469.396 982.267,464.315 984.474,459.302 986.681,454.355 988.888,449.474 991.095,444.658 993.302,439.905 995.509,435.216 997.715,430.588 999.922,426.022 1002.13,421.516 1004.34,417.071 1006.54,412.684 1008.75,408.355 1010.96,404.084 1013.16,399.869 1015.37,395.71 1017.58,391.607 1019.78,387.557 1021.99,383.562 1024.2,379.619 1026.41,375.729 1028.61,371.89 1030.82,368.795 1033.03,367.53 1035.23,367.817 1037.44,369.373 1039.65,371.941 1041.85,375.285 1044.06,379.196 1046.27,383.486 1048.47,387.994 1050.68,392.58 1052.89,397.131 1055.1,401.554 1057.3,405.785 1059.51,409.779 1061.72,413.519 1063.92,417.01 1066.13,420.281 1068.34,423.385 1070.54,426.4 1072.75,429.427 1074.96,432.58 1077.16,435.757 1079.37,438.892 1081.58,441.985 1083.78,445.037 1085.99,448.049 1088.2,451.021 1090.41,453.954 1092.61,456.848 1094.82,459.703 1097.03,462.52 1099.23,465.301 1101.44,468.044 1103.65,470.751 1105.85,473.422 1108.06,476.058 1110.27,478.659 1112.47,481.225 1114.68,483.758 1116.89,486.256 1119.1,488.722 1121.3,491.155 1123.51,493.556 1125.72,495.924 1127.92,498.262 1130.13,500.568 1132.34,502.844 1134.54,505.089 1136.75,507.305 1138.96,509.491 1141.16,511.649 1143.37,513.777 1145.58,515.878 1147.79,517.95 1149.99,519.995 1152.2,522.013 1154.41,524.005 1156.61,525.969 1158.82,527.908 1161.03,529.821 1163.23,531.709 1165.44,533.571 1167.65,535.409 1169.85,537.223 1172.06,539.013 1174.27,540.778 1176.47,542.521 1178.68,544.24 1180.89,545.937 1183.1,547.611 1185.3,549.263 1187.51,550.893 1189.72,552.502 1191.92,554.089 1194.13,555.655 1196.34,557.201 1198.54,558.725 1200.75,560.23 1202.96,561.715 1205.16,563.18 1207.37,564.625 1209.58,566.052 1211.79,567.459 1213.99,568.848 1216.2,570.219 1218.41,571.571 1220.61,572.905 1222.82,574.222 1225.03,575.521 1227.23,576.803 1229.44,578.068 1231.65,579.316 1233.85,580.548 1236.06,581.763 1238.27,582.962 1240.48,584.145 1242.68,585.313 1244.89,586.465 1247.1,587.602 1249.3,588.702 1251.51,589.727 1253.72,590.682 1255.92,591.572 1258.13,592.402 1260.34,593.177 1262.54,593.902 1264.75,594.58 1266.96,595.216 1269.16,595.814 1271.37,596.378 1273.58,596.912 1275.79,597.419 1277.99,597.902 1280.2,598.364 1282.41,598.808 1284.61,599.237 1286.82,599.653 1289.03,600.059 1291.23,600.456 1293.44,600.847 1295.65,601.233 1297.85,601.616 1300.06,601.996 1302.27,602.376 1304.48,602.755 1306.68,603.136 1308.89,603.517 1311.1,603.9 1313.3,604.284 1315.51,604.67 1317.72,605.058 1319.92,605.446 1322.13,605.834 1324.34,606.222 1326.54,606.608 1328.75,606.991 1330.96,607.369 1333.17,607.742 1335.37,608.107 1337.58,608.462 1339.79,608.805 1341.99,609.142 1344.2,609.475 1346.41,609.803 1348.61,610.127 1350.82,610.446 1353.03,610.761 1355.23,611.073 1357.44,611.38 1359.65,611.682 1361.86,611.981 1364.06,612.276 1366.27,612.567 1368.48,612.854 1370.68,613.138 1372.89,613.417 1375.1,613.693 1377.3,613.966 1379.51,614.234 1381.72,614.499 1383.92,614.761 1386.13,615.019 1388.34,615.274 1390.54,615.525 1392.75,615.773 1394.96,616.017 1397.17,616.259 1399.37,616.497 1401.58,616.732 1403.79,616.964 1405.99,617.193 1408.2,617.419 1410.41,617.642 1412.61,617.862 1414.82,618.079 1417.03,618.293 1419.23,618.504 1421.44,618.712 1423.65,618.918 1425.86,619.121 1428.06,619.321 1430.27,619.519 1432.48,619.714 1434.68,619.906 1436.89,620.096 1439.1,620.284 1441.3,620.468 1443.51,620.651 1445.72,620.831 1447.92,621.008 1450.13,621.184 1452.34,621.357 1454.55,621.527 1456.75,621.696 1458.96,621.862 1461.17,622.026 1463.37,622.188 1465.58,622.347 1467.79,622.505 1469.99,622.873 1472.2,624.131 1474.41,626.223 1476.61,629.033 1478.82,632.451 1481.03,636.377 1483.23,640.716 1485.44,645.382 1487.65,650.293 1489.86,655.377 1492.06,660.569 1494.27,665.809 1496.48,671.046 1498.68,676.235 1500.89,681.34 1503.1,686.33 1505.3,691.182 1507.51,695.881 1509.72,700.417 1511.92,704.789 1514.13,709.002 1516.34,713.069 1518.55,717.01 1520.75,720.852 1522.96,724.628 1525.17,728.38 1527.37,732.157 1529.58,735.968 1531.79,739.733 1533.99,743.448 1536.2,747.114 1538.41,750.731 1540.61,754.3 1542.82,757.822 1545.03,761.297 1547.24,764.726 1549.44,768.11 1551.65,771.449 1553.86,774.743 1556.06,777.994 1558.27,781.202 1560.48,784.367 1562.68,787.49 1564.89,790.572 1567.1,793.614 1569.3,796.614 1571.51,799.576 1573.72,802.497 1575.92,805.38 1578.13,808.225 1580.34,811.032 1582.55,813.802 1584.75,816.535 1586.96,819.232 1589.17,821.893 1591.37,824.519 1593.58,827.11 1595.79,829.666 1597.99,832.189 1600.2,834.678 1602.41,837.134 1604.61,839.558 1606.82,841.949 1609.03,844.309 1611.24,846.637 1613.44,848.935 1615.65,851.202 1617.86,853.439 1620.06,855.646 1622.27,857.824 1624.48,859.974 1626.68,862.094 1628.89,864.187 1631.1,866.252 1633.3,868.29 1635.51,870.3 1637.72,872.284 1639.93,874.242 1642.13,876.174 1644.34,878.08 1646.55,879.961 1648.75,881.816 1650.96,883.648 1653.17,885.455 1655.37,887.238 1657.58,888.997 1659.79,890.733 1661.99,892.446 1664.2,894.137 1666.41,895.805 1668.61,897.45 1670.82,899.074 1673.03,900.677 1675.24,902.187 1677.44,903.553 1679.65,904.786 1681.86,905.899 1684.06,906.902 1686.27,907.808 1688.48,908.624 1690.68,909.363 1692.89,910.032 1695.1,910.64 1697.3,911.196 1699.51,911.707 1701.72,912.181 1703.93,912.623 1706.13,913.04 1708.34,913.439 1710.55,913.823 1712.75,914.197 1714.96,914.565 1717.17,914.931 1719.37,915.298 1721.58,915.668 1723.79,916.044 1725.99,916.426 1728.2,916.816 1730.41,917.213 1732.62,917.619 1734.82,918.032 1737.03,918.45 1739.24,918.873 1741.44,919.299 1743.65,919.724 1745.86,920.145 1748.06,920.558 1750.27,920.96 1752.48,921.345 1754.68,921.712 1756.89,922.072 1759.1,922.427 1761.31,922.777 1763.51,923.123 1765.72,923.464 1767.93,923.801 1770.13,924.133 1772.34,924.461 1774.55,924.784 1776.75,925.104 1778.96,925.419 1781.17,925.729 1783.37,926.036 1785.58,926.339 1787.79,926.637 1789.99,926.932 1792.2,927.223 1794.41,927.509 1796.62,927.792 1798.82,928.072 1801.03,928.347 1803.24,928.619 1805.44,928.888 1807.65,929.153 1809.86,929.414 1812.06,929.672 1814.27,929.926 1816.48,930.177 1818.68,930.425 1820.89,930.669 1823.1,930.911 1825.31,931.149 1827.51,931.383 1829.72,931.615 1831.93,931.844 1834.13,932.069 1836.34,932.292 1838.55,932.512 1840.75,932.728 1842.96,932.942 1845.17,933.153 1847.37,933.361 1849.58,933.567 1851.79,933.769 1854,933.97 1856.2,934.167 1858.41,934.362 1860.62,934.554 1862.82,934.743 1865.03,934.931 1867.24,935.115 1869.44,935.297 1871.65,935.477 1873.86,935.654 1876.06,935.829 1878.27,936.002 1880.48,936.173 1882.68,936.341 1884.89,936.507 1887.1,936.671 1889.31,936.832 1891.51,936.992 1893.72,937.149 1895.93,937.304 1898.13,937.457 1900.34,937.608 1902.55,937.758 1904.75,937.489 1906.96,936.218 1909.17,934.054 1911.37,931.111 1913.58,927.496 1915.79,923.311 1918,918.649 1920.2,913.599 1922.41,908.242 1924.62,902.655 1926.82,896.905 1929.03,891.056 1931.24,885.164 1933.44,879.278 1935.65,873.444 1937.86,867.697 1940.06,862.069 1942.27,856.585 1944.48,851.263 1946.69,846.114 1948.89,841.144 1951.1,836.353 1953.31,831.732 1955.51,827.27 1957.72,822.945 1959.93,818.732 1962.13,814.598 1964.34,810.505 1966.55,806.406 1968.75,802.254 1970.96,798.114 1973.17,794.029 1975.37,789.999 1977.58,786.021 1979.79,782.097 1982,778.224 1984.2,774.403 1986.41,770.632 1988.62,766.912 1990.82,763.24 1993.03,759.618 1995.24,756.043 1997.44,752.516 1999.65,749.036 2001.86,745.601 2004.06,742.213 2006.27,738.869 2008.48,735.569 2010.69,732.313 2012.89,729.1 2015.1,725.93 2017.31,722.802 2019.51,719.715 2021.72,716.669 2023.93,713.664 2026.13,710.699 2028.34,707.773 2030.55,704.885 2032.75,702.036 2034.96,699.225 2037.17,696.451 2039.38,693.714 2041.58,691.014 2043.79,688.349 2046,685.719 2048.2,683.125 2050.41,680.564 2052.62,678.038 2054.82,675.545 2057.03,673.086 2059.24,670.659 2061.44,668.264 2063.65,665.9 2065.86,663.569 2068.07,661.268 2070.27,658.997 2072.48,656.757 2074.69,654.546 2076.89,652.365 2079.1,650.212 2081.31,648.088 2083.51,645.992 2085.72,643.924 2087.93,641.883 2090.13,639.87 2092.34,637.883 2094.55,635.922 2096.75,633.988 2098.96,632.079 2101.17,630.195 2103.38,628.336 2105.58,626.502 2107.79,624.693 2110,622.907 2112.2,621.145 2114.41,619.406 2116.62,617.691 2118.82,615.998 2121.03,614.327 2123.24,612.679 2125.44,611.053 2127.65,609.448 2129.86,607.864 2132.07,606.299 2134.27,604.458 2136.48,602.196 2138.69,599.596 2140.89,596.729 2143.1,593.664 2145.31,590.459 2147.51,587.169 2149.72,583.838 2151.93,580.507 2154.13,577.208 2156.34,573.966 2158.55,570.799 2160.76,567.721 2162.96,564.735 2165.17,561.84 2167.38,559.026 2169.58,556.279 2171.79,553.575 2174,550.884 2176.2,548.188 2178.41,545.523 2180.62,542.893 2182.82,540.298 2185.03,537.737 2187.24,535.211 2189.44,532.718 2191.65,530.258 2193.86,527.83 2196.07,525.435 2198.27,523.071 2200.48,520.739 2202.69,518.438 2204.89,516.167 2207.1,513.926 2209.31,511.715 2211.51,509.533 2213.72,507.38 2215.93,505.256 2218.13,503.16 2220.34,501.092 2222.55,499.051 2224.76,497.037 2226.96,495.05 2229.17,493.089 2231.38,491.154 2233.58,489.245 2235.79,487.362 2238,485.503 2240.2,483.669 2242.41,481.859 2244.62,480.073 2246.82,478.311 2249.03,476.573 2251.24,474.857 2253.45,473.164 2255.65,471.494 2257.86,469.846 2260.07,468.219 2262.27,466.614 2264.48,465.031 2266.69,463.468 2268.89,461.926 2271.1,460.405 2273.31,458.903 2275.51,457.422 2277.72,455.96 2279.93,454.518 2282.13,453.094 2284.34,451.69 2286.55,450.304 2288.76,448.937 2290.96,447.587 2293.17,446.256 2295.38,444.942 2297.58,443.646 2299.79,442.366 2302,441.104 2304.2,439.859 2306.41,438.63 2308.62,437.417 2310.82,436.221 2313.03,435.04 2315.24,433.875 2317.45,432.725 2319.65,431.591 2321.86,430.472 2324.07,429.367 2326.27,428.277 2328.48,427.202 2330.69,426.141 2332.89,425.094 2335.1,424.06 2337.31,423.041 2339.51,422.035 2341.72,421.042 2343.93,420.063 2346.14,419.096 2348.34,418.143 2350.55,417.202 2352.76,416.273 "/>
<polyline clip-path="url(#clip101)" style="stroke:#e26f46; stroke-linecap:round; stroke-linejoin:round; stroke-width:4; stroke-opacity:1; fill:none" points="148.057,690.935 150.264,690.935 152.47,690.935 154.677,690.935 156.884,690.935 159.091,690.935 161.298,690.935 163.505,690.935 165.712,690.935 167.919,690.935 170.126,690.935 172.333,690.935 174.539,690.935 176.746,690.935 178.953,690.935 181.16,690.935 183.367,690.935 185.574,690.935 187.781,690.935 189.988,690.935 192.195,690.935 194.402,690.935 196.609,690.935 198.815,690.935 201.022,690.935 203.229,690.935 205.436,690.935 207.643,690.935 209.85,690.935 212.057,690.935 214.264,690.935 216.471,690.935 218.678,690.935 220.885,690.935 223.091,690.935 225.298,690.935 227.505,690.935 229.712,690.935 231.919,690.935 234.126,690.935 236.333,690.935 238.54,690.935 240.747,690.935 242.954,690.935 245.16,690.935 247.367,690.935 249.574,690.935 251.781,690.935 253.988,690.935 256.195,690.935 258.402,690.935 260.609,690.935 262.816,690.935 265.023,690.935 267.23,690.935 269.436,690.935 271.643,690.935 273.85,690.935 276.057,690.935 278.264,690.935 280.471,690.935 282.678,690.935 284.885,690.935 287.092,690.935 289.299,690.935 291.506,690.935 293.712,690.935 295.919,690.935 298.126,690.935 300.333,690.935 302.54,690.935 304.747,690.935 306.954,690.935 309.161,690.935 311.368,690.935 313.575,690.935 315.781,690.935 317.988,690.935 320.195,690.935 322.402,690.935 324.609,690.935 326.816,690.935 329.023,690.935 331.23,690.935 333.437,690.935 335.644,690.935 337.851,690.935 340.057,690.935 342.264,690.935 344.471,690.935 346.678,690.935 348.885,690.935 351.092,690.935 353.299,690.935 355.506,690.935 357.713,690.935 359.92,690.935 362.127,690.935 364.333,690.935 366.54,690.935 368.747,1384.24 370.954,1384.24 373.161,1384.24 375.368,1384.24 377.575,1384.24 379.782,1384.24 381.989,1384.24 384.196,1384.24 386.402,1384.24 388.609,1384.24 390.816,1384.24 393.023,1384.24 395.23,1384.24 397.437,1384.24 399.644,1384.24 401.851,1384.24 404.058,1384.24 406.265,1384.24 408.472,1384.24 410.678,1384.24 412.885,1384.24 415.092,1384.24 417.299,1384.24 419.506,1384.24 421.713,1384.24 423.92,1384.24 426.127,1384.24 428.334,1384.24 430.541,1384.24 432.748,1384.24 434.954,1384.24 437.161,1384.24 439.368,1384.24 441.575,1384.24 443.782,1384.24 445.989,1384.24 448.196,1384.24 450.403,1384.24 452.61,1384.24 454.817,1384.24 457.023,1384.24 459.23,1384.24 461.437,1384.24 463.644,1384.24 465.851,1384.24 468.058,1384.24 470.265,1384.24 472.472,1384.24 474.679,1384.24 476.886,1384.24 479.093,1384.24 481.299,1384.24 483.506,1384.24 485.713,1384.24 487.92,1384.24 490.127,1384.24 492.334,1384.24 494.541,1384.24 496.748,1384.24 498.955,1384.24 501.162,1384.24 503.369,1384.24 505.575,1384.24 507.782,1384.24 509.989,1384.24 512.196,1384.24 514.403,1384.24 516.61,1384.24 518.817,1384.24 521.024,1384.24 523.231,1384.24 525.438,1384.24 527.644,1384.24 529.851,1384.24 532.058,1384.24 534.265,1384.24 536.472,1384.24 538.679,1384.24 540.886,1384.24 543.093,1384.24 545.3,1384.24 547.507,1384.24 549.714,1384.24 551.92,1384.24 554.127,1384.24 556.334,1384.24 558.541,1384.24 560.748,1384.24 562.955,1384.24 565.162,1384.24 567.369,1384.24 569.576,1384.24 571.783,1384.24 573.99,1384.24 576.196,1384.24 578.403,1384.24 580.61,1384.24 582.817,1384.24 585.024,1384.24 587.231,1384.24 589.438,1112.3 591.645,1112.3 593.852,1112.3 596.059,1112.3 598.265,1112.3 600.472,1112.3 602.679,1112.3 604.886,1112.3 607.093,1112.3 609.3,1112.3 611.507,1112.3 613.714,1112.3 615.921,1112.3 618.128,1112.3 620.335,1112.3 622.541,1112.3 624.748,1112.3 626.955,1112.3 629.162,1112.3 631.369,1112.3 633.576,1112.3 635.783,1112.3 637.99,1112.3 640.197,1112.3 642.404,1112.3 644.611,1112.3 646.817,1112.3 649.024,1112.3 651.231,1112.3 653.438,1112.3 655.645,1112.3 657.852,1112.3 660.059,1112.3 662.266,1112.3 664.473,1112.3 666.68,1112.3 668.886,1112.3 671.093,1112.3 673.3,1112.3 675.507,1112.3 677.714,1112.3 679.921,1112.3 682.128,1112.3 684.335,1112.3 686.542,1112.3 688.749,1112.3 690.956,1112.3 693.162,1112.3 695.369,1112.3 697.576,1112.3 699.783,1112.3 701.99,1112.3 704.197,1112.3 706.404,1112.3 708.611,1112.3 710.818,1112.3 713.025,1112.3 715.232,1112.3 717.438,1112.3 719.645,1112.3 721.852,1112.3 724.059,1112.3 726.266,1112.3 728.473,1112.3 730.68,1112.3 732.887,1112.3 735.094,1112.3 737.301,1112.3 739.507,1112.3 741.714,1112.3 743.921,1112.3 746.128,1112.3 748.335,1112.3 750.542,1112.3 752.749,1112.3 754.956,1112.3 757.163,1112.3 759.37,1112.3 761.577,1112.3 763.783,1112.3 765.99,1112.3 768.197,1112.3 770.404,1112.3 772.611,1112.3 774.818,1112.3 777.025,1112.3 779.232,1112.3 781.439,1112.3 783.646,1112.3 785.853,1112.3 788.059,1112.3 790.266,1112.3 792.473,1112.3 794.68,1112.3 796.887,1112.3 799.094,1112.3 801.301,1112.3 803.508,1112.3 805.715,1112.3 807.922,1112.3 810.128,86.1857 812.335,86.1857 814.542,86.1857 816.749,86.1857 818.956,86.1857 821.163,86.1857 823.37,86.1857 825.577,86.1857 827.784,86.1857 829.991,86.1857 832.198,86.1857 834.404,86.1857 836.611,86.1857 838.818,86.1857 841.025,86.1857 843.232,86.1857 845.439,86.1857 847.646,86.1857 849.853,86.1857 852.06,86.1857 854.267,86.1857 856.474,86.1857 858.68,86.1857 860.887,86.1857 863.094,86.1857 865.301,86.1857 867.508,86.1857 869.715,86.1857 871.922,86.1857 874.129,86.1857 876.336,86.1857 878.543,86.1857 880.749,86.1857 882.956,86.1857 885.163,86.1857 887.37,86.1857 889.577,86.1857 891.784,86.1857 893.991,86.1857 896.198,86.1857 898.405,86.1857 900.612,86.1857 902.819,86.1857 905.025,86.1857 907.232,86.1857 909.439,86.1857 911.646,86.1857 913.853,86.1857 916.06,86.1857 918.267,86.1857 920.474,86.1857 922.681,86.1857 924.888,86.1857 927.095,86.1857 929.301,86.1857 931.508,86.1857 933.715,86.1857 935.922,86.1857 938.129,86.1857 940.336,86.1857 942.543,86.1857 944.75,86.1857 946.957,86.1857 949.164,86.1857 951.37,86.1857 953.577,86.1857 955.784,86.1857 957.991,86.1857 960.198,86.1857 962.405,86.1857 964.612,86.1857 966.819,86.1857 969.026,86.1857 971.233,86.1857 973.44,86.1857 975.646,86.1857 977.853,86.1857 980.06,86.1857 982.267,86.1857 984.474,86.1857 986.681,86.1857 988.888,86.1857 991.095,86.1857 993.302,86.1857 995.509,86.1857 997.715,86.1857 999.922,86.1857 1002.13,86.1857 1004.34,86.1857 1006.54,86.1857 1008.75,86.1857 1010.96,86.1857 1013.16,86.1857 1015.37,86.1857 1017.58,86.1857 1019.78,86.1857 1021.99,86.1857 1024.2,86.1857 1026.41,86.1857 1028.61,86.1857 1030.82,672.214 1033.03,672.214 1035.23,672.214 1037.44,672.214 1039.65,672.214 1041.85,672.214 1044.06,672.214 1046.27,672.214 1048.47,672.214 1050.68,672.214 1052.89,672.214 1055.1,672.214 1057.3,672.214 1059.51,672.214 1061.72,672.214 1063.92,672.214 1066.13,672.214 1068.34,672.214 1070.54,672.214 1072.75,672.214 1074.96,672.214 1077.16,672.214 1079.37,672.214 1081.58,672.214 1083.78,672.214 1085.99,672.214 1088.2,672.214 1090.41,672.214 1092.61,672.214 1094.82,672.214 1097.03,672.214 1099.23,672.214 1101.44,672.214 1103.65,672.214 1105.85,672.214 1108.06,672.214 1110.27,672.214 1112.47,672.214 1114.68,672.214 1116.89,672.214 1119.1,672.214 1121.3,672.214 1123.51,672.214 1125.72,672.214 1127.92,672.214 1130.13,672.214 1132.34,672.214 1134.54,672.214 1136.75,672.214 1138.96,672.214 1141.16,672.214 1143.37,672.214 1145.58,672.214 1147.79,672.214 1149.99,672.214 1152.2,672.214 1154.41,672.214 1156.61,672.214 1158.82,672.214 1161.03,672.214 1163.23,672.214 1165.44,672.214 1167.65,672.214 1169.85,672.214 1172.06,672.214 1174.27,672.214 1176.47,672.214 1178.68,672.214 1180.89,672.214 1183.1,672.214 1185.3,672.214 1187.51,672.214 1189.72,672.214 1191.92,672.214 1194.13,672.214 1196.34,672.214 1198.54,672.214 1200.75,672.214 1202.96,672.214 1205.16,672.214 1207.37,672.214 1209.58,672.214 1211.79,672.214 1213.99,672.214 1216.2,672.214 1218.41,672.214 1220.61,672.214 1222.82,672.214 1225.03,672.214 1227.23,672.214 1229.44,672.214 1231.65,672.214 1233.85,672.214 1236.06,672.214 1238.27,672.214 1240.48,672.214 1242.68,672.214 1244.89,672.214 1247.1,672.214 1249.3,672.214 1251.51,634.227 1253.72,634.227 1255.92,634.227 1258.13,634.227 1260.34,634.227 1262.54,634.227 1264.75,634.227 1266.96,634.227 1269.16,634.227 1271.37,634.227 1273.58,634.227 1275.79,634.227 1277.99,634.227 1280.2,634.227 1282.41,634.227 1284.61,634.227 1286.82,634.227 1289.03,634.227 1291.23,634.227 1293.44,634.227 1295.65,634.227 1297.85,634.227 1300.06,634.227 1302.27,634.227 1304.48,634.227 1306.68,634.227 1308.89,634.227 1311.1,634.227 1313.3,634.227 1315.51,634.227 1317.72,634.227 1319.92,634.227 1322.13,634.227 1324.34,634.227 1326.54,634.227 1328.75,634.227 1330.96,634.227 1333.17,634.227 1335.37,634.227 1337.58,634.227 1339.79,634.227 1341.99,634.227 1344.2,634.227 1346.41,634.227 1348.61,634.227 1350.82,634.227 1353.03,634.227 1355.23,634.227 1357.44,634.227 1359.65,634.227 1361.86,634.227 1364.06,634.227 1366.27,634.227 1368.48,634.227 1370.68,634.227 1372.89,634.227 1375.1,634.227 1377.3,634.227 1379.51,634.227 1381.72,634.227 1383.92,634.227 1386.13,634.227 1388.34,634.227 1390.54,634.227 1392.75,634.227 1394.96,634.227 1397.17,634.227 1399.37,634.227 1401.58,634.227 1403.79,634.227 1405.99,634.227 1408.2,634.227 1410.41,634.227 1412.61,634.227 1414.82,634.227 1417.03,634.227 1419.23,634.227 1421.44,634.227 1423.65,634.227 1425.86,634.227 1428.06,634.227 1430.27,634.227 1432.48,634.227 1434.68,634.227 1436.89,634.227 1439.1,634.227 1441.3,634.227 1443.51,634.227 1445.72,634.227 1447.92,634.227 1450.13,634.227 1452.34,634.227 1454.55,634.227 1456.75,634.227 1458.96,634.227 1461.17,634.227 1463.37,634.227 1465.58,634.227 1467.79,634.227 1469.99,634.227 1472.2,1019.94 1474.41,1019.94 1476.61,1019.94 1478.82,1019.94 1481.03,1019.94 1483.23,1019.94 1485.44,1019.94 1487.65,1019.94 1489.86,1019.94 1492.06,1019.94 1494.27,1019.94 1496.48,1019.94 1498.68,1019.94 1500.89,1019.94 1503.1,1019.94 1505.3,1019.94 1507.51,1019.94 1509.72,1019.94 1511.92,1019.94 1514.13,1019.94 1516.34,1019.94 1518.55,1019.94 1520.75,1019.94 1522.96,1019.94 1525.17,1019.94 1527.37,1019.94 1529.58,1019.94 1531.79,1019.94 1533.99,1019.94 1536.2,1019.94 1538.41,1019.94 1540.61,1019.94 1542.82,1019.94 1545.03,1019.94 1547.24,1019.94 1549.44,1019.94 1551.65,1019.94 1553.86,1019.94 1556.06,1019.94 1558.27,1019.94 1560.48,1019.94 1562.68,1019.94 1564.89,1019.94 1567.1,1019.94 1569.3,1019.94 1571.51,1019.94 1573.72,1019.94 1575.92,1019.94 1578.13,1019.94 1580.34,1019.94 1582.55,1019.94 1584.75,1019.94 1586.96,1019.94 1589.17,1019.94 1591.37,1019.94 1593.58,1019.94 1595.79,1019.94 1597.99,1019.94 1600.2,1019.94 1602.41,1019.94 1604.61,1019.94 1606.82,1019.94 1609.03,1019.94 1611.24,1019.94 1613.44,1019.94 1615.65,1019.94 1617.86,1019.94 1620.06,1019.94 1622.27,1019.94 1624.48,1019.94 1626.68,1019.94 1628.89,1019.94 1631.1,1019.94 1633.3,1019.94 1635.51,1019.94 1637.72,1019.94 1639.93,1019.94 1642.13,1019.94 1644.34,1019.94 1646.55,1019.94 1648.75,1019.94 1650.96,1019.94 1653.17,1019.94 1655.37,1019.94 1657.58,1019.94 1659.79,1019.94 1661.99,1019.94 1664.2,1019.94 1666.41,1019.94 1668.61,1019.94 1670.82,1019.94 1673.03,1019.94 1675.24,1019.94 1677.44,1019.94 1679.65,1019.94 1681.86,1019.94 1684.06,1019.94 1686.27,1019.94 1688.48,1019.94 1690.68,1019.94 1692.89,948.859 1695.1,948.859 1697.3,948.859 1699.51,948.859 1701.72,948.859 1703.93,948.859 1706.13,948.859 1708.34,948.859 1710.55,948.859 1712.75,948.859 1714.96,948.859 1717.17,948.859 1719.37,948.859 1721.58,948.859 1723.79,948.859 1725.99,948.859 1728.2,948.859 1730.41,948.859 1732.62,948.859 1734.82,948.859 1737.03,948.859 1739.24,948.859 1741.44,948.859 1743.65,948.859 1745.86,948.859 1748.06,948.859 1750.27,948.859 1752.48,948.859 1754.68,948.859 1756.89,948.859 1759.1,948.859 1761.31,948.859 1763.51,948.859 1765.72,948.859 1767.93,948.859 1770.13,948.859 1772.34,948.859 1774.55,948.859 1776.75,948.859 1778.96,948.859 1781.17,948.859 1783.37,948.859 1785.58,948.859 1787.79,948.859 1789.99,948.859 1792.2,948.859 1794.41,948.859 1796.62,948.859 1798.82,948.859 1801.03,948.859 1803.24,948.859 1805.44,948.859 1807.65,948.859 1809.86,948.859 1812.06,948.859 1814.27,948.859 1816.48,948.859 1818.68,948.859 1820.89,948.859 1823.1,948.859 1825.31,948.859 1827.51,948.859 1829.72,948.859 1831.93,948.859 1834.13,948.859 1836.34,948.859 1838.55,948.859 1840.75,948.859 1842.96,948.859 1845.17,948.859 1847.37,948.859 1849.58,948.859 1851.79,948.859 1854,948.859 1856.2,948.859 1858.41,948.859 1860.62,948.859 1862.82,948.859 1865.03,948.859 1867.24,948.859 1869.44,948.859 1871.65,948.859 1873.86,948.859 1876.06,948.859 1878.27,948.859 1880.48,948.859 1882.68,948.859 1884.89,948.859 1887.1,948.859 1889.31,948.859 1891.51,948.859 1893.72,948.859 1895.93,948.859 1898.13,948.859 1900.34,948.859 1902.55,948.859 1904.75,948.859 1906.96,948.859 1909.17,948.859 1911.37,948.859 1913.58,490.004 1915.79,490.004 1918,490.004 1920.2,490.004 1922.41,490.004 1924.62,490.004 1926.82,490.004 1929.03,490.004 1931.24,490.004 1933.44,490.004 1935.65,490.004 1937.86,490.004 1940.06,490.004 1942.27,490.004 1944.48,490.004 1946.69,490.004 1948.89,490.004 1951.1,490.004 1953.31,490.004 1955.51,490.004 1957.72,490.004 1959.93,490.004 1962.13,490.004 1964.34,490.004 1966.55,490.004 1968.75,490.004 1970.96,490.004 1973.17,490.004 1975.37,490.004 1977.58,490.004 1979.79,490.004 1982,490.004 1984.2,490.004 1986.41,490.004 1988.62,490.004 1990.82,490.004 1993.03,490.004 1995.24,490.004 1997.44,490.004 1999.65,490.004 2001.86,490.004 2004.06,490.004 2006.27,490.004 2008.48,490.004 2010.69,490.004 2012.89,490.004 2015.1,490.004 2017.31,490.004 2019.51,490.004 2021.72,490.004 2023.93,490.004 2026.13,490.004 2028.34,490.004 2030.55,490.004 2032.75,490.004 2034.96,490.004 2037.17,490.004 2039.38,490.004 2041.58,490.004 2043.79,490.004 2046,490.004 2048.2,490.004 2050.41,490.004 2052.62,490.004 2054.82,490.004 2057.03,490.004 2059.24,490.004 2061.44,490.004 2063.65,490.004 2065.86,490.004 2068.07,490.004 2070.27,490.004 2072.48,490.004 2074.69,490.004 2076.89,490.004 2079.1,490.004 2081.31,490.004 2083.51,490.004 2085.72,490.004 2087.93,490.004 2090.13,490.004 2092.34,490.004 2094.55,490.004 2096.75,490.004 2098.96,490.004 2101.17,490.004 2103.38,490.004 2105.58,490.004 2107.79,490.004 2110,490.004 2112.2,490.004 2114.41,490.004 2116.62,490.004 2118.82,490.004 2121.03,490.004 2123.24,490.004 2125.44,490.004 2127.65,490.004 2129.86,490.004 2132.07,490.004 2134.27,347.163 2136.48,347.163 2138.69,347.163 2140.89,347.163 2143.1,347.163 2145.31,347.163 2147.51,347.163 2149.72,347.163 2151.93,347.163 2154.13,347.163 2156.34,347.163 2158.55,347.163 2160.76,347.163 2162.96,347.163 2165.17,347.163 2167.38,347.163 2169.58,347.163 2171.79,347.163 2174,347.163 2176.2,347.163 2178.41,347.163 2180.62,347.163 2182.82,347.163 2185.03,347.163 2187.24,347.163 2189.44,347.163 2191.65,347.163 2193.86,347.163 2196.07,347.163 2198.27,347.163 2200.48,347.163 2202.69,347.163 2204.89,347.163 2207.1,347.163 2209.31,347.163 2211.51,347.163 2213.72,347.163 2215.93,347.163 2218.13,347.163 2220.34,347.163 2222.55,347.163 2224.76,347.163 2226.96,347.163 2229.17,347.163 2231.38,347.163 2233.58,347.163 2235.79,347.163 2238,347.163 2240.2,347.163 2242.41,347.163 2244.62,347.163 2246.82,347.163 2249.03,347.163 2251.24,347.163 2253.45,347.163 2255.65,347.163 2257.86,347.163 2260.07,347.163 2262.27,347.163 2264.48,347.163 2266.69,347.163 2268.89,347.163 2271.1,347.163 2273.31,347.163 2275.51,347.163 2277.72,347.163 2279.93,347.163 2282.13,347.163 2284.34,347.163 2286.55,347.163 2288.76,347.163 2290.96,347.163 2293.17,347.163 2295.38,347.163 2297.58,347.163 2299.79,347.163 2302,347.163 2304.2,347.163 2306.41,347.163 2308.62,347.163 2310.82,347.163 2313.03,347.163 2315.24,347.163 2317.45,347.163 2319.65,347.163 2321.86,347.163 2324.07,347.163 2326.27,347.163 2328.48,347.163 2330.69,347.163 2332.89,347.163 2335.1,347.163 2337.31,347.163 2339.51,347.163 2341.72,347.163 2343.93,347.163 2346.14,347.163 2348.34,347.163 2350.55,347.163 2352.76,347.163 "/>
<path clip-path="url(#clip100)" d="M221.547 248.629 L467.155 248.629 L467.155 93.1086 L221.547 93.1086  Z" fill="#ffffff" fill-rule="evenodd" fill-opacity="1"/>
<polyline clip-path="url(#clip100)" style="stroke:#000000; stroke-linecap:round; stroke-linejoin:round; stroke-width:4; stroke-opacity:1; fill:none" points="221.547,248.629 467.155,248.629 467.155,93.1086 221.547,93.1086 221.547,248.629 "/>
<polyline clip-path="url(#clip100)" style="stroke:#009af9; stroke-linecap:round; stroke-linejoin:round; stroke-width:4; stroke-opacity:1; fill:none" points="246.043,144.949 393.023,144.949 "/>
<path clip-path="url(#clip100)" d="M442.173 136.303 L432.798 148.919 L442.659 162.229 L437.635 162.229 L430.089 152.043 L422.543 162.229 L417.52 162.229 L427.589 148.664 L418.376 136.303 L423.399 136.303 L430.274 145.539 L437.149 136.303 L442.173 136.303 Z" fill="#000000" fill-rule="nonzero" fill-opacity="1" /><polyline clip-path="url(#clip100)" style="stroke:#e26f46; stroke-linecap:round; stroke-linejoin:round; stroke-width:4; stroke-opacity:1; fill:none" points="246.043,196.789 393.023,196.789 "/>
<path clip-path="url(#clip100)" d="M434.024 178.05 L434.024 181.592 L429.95 181.592 Q427.659 181.592 426.756 182.518 Q425.876 183.444 425.876 185.851 L425.876 188.143 L432.89 188.143 L432.89 191.453 L425.876 191.453 L425.876 214.069 L421.594 214.069 L421.594 191.453 L417.52 191.453 L417.52 188.143 L421.594 188.143 L421.594 186.337 Q421.594 182.009 423.608 180.041 Q425.622 178.05 429.997 178.05 L434.024 178.05 Z" fill="#000000" fill-rule="nonzero" fill-opacity="1" /></svg>
