<?xml version="1.0" encoding="utf-8"?>
<svg xmlns="http://www.w3.org/2000/svg" xmlns:xlink="http://www.w3.org/1999/xlink" width="600" height="400" viewBox="0 0 2400 1600">
<defs>
  <clipPath id="clip270">
    <rect x="0" y="0" width="2400" height="1600"/>
  </clipPath>
</defs>
<path clip-path="url(#clip270)" d="M0 1600 L2400 1600 L2400 0 L0 0  Z" fill="#ffffff" fill-rule="evenodd" fill-opacity="1"/>
<defs>
  <clipPath id="clip271">
    <rect x="480" y="0" width="1681" height="1600"/>
  </clipPath>
</defs>
<defs>
  <clipPath id="clip272">
    <rect x="155" y="47" width="2198" height="1440"/>
  </clipPath>
</defs>
<path clip-path="url(#clip272)" d="M-1095.73 2514.73 L-1095.73 2244.56 L-961.022 2109.48 L-727.694 2187.47 L-727.694 2457.64 L-862.406 2592.72 L-1095.73 2514.73  Z" fill="#ffffff" fill-rule="evenodd" fill-opacity="1"/>
<polyline clip-path="url(#clip272)" style="stroke:#000000; stroke-linecap:round; stroke-linejoin:round; stroke-width:2; stroke-opacity:0.1; fill:none" points="687.078,1202.78 1102.54,842.982 1102.54,123.38 "/>
<polyline clip-path="url(#clip272)" style="stroke:#000000; stroke-linecap:round; stroke-linejoin:round; stroke-width:2; stroke-opacity:0.1; fill:none" points="803.742,1236.46 1219.2,876.66 1219.2,157.058 "/>
<polyline clip-path="url(#clip272)" style="stroke:#000000; stroke-linecap:round; stroke-linejoin:round; stroke-width:2; stroke-opacity:0.1; fill:none" points="920.406,1270.14 1335.87,910.338 1335.87,190.736 "/>
<polyline clip-path="url(#clip272)" style="stroke:#000000; stroke-linecap:round; stroke-linejoin:round; stroke-width:2; stroke-opacity:0.1; fill:none" points="1037.07,1303.82 1452.53,944.016 1452.53,224.414 "/>
<polyline clip-path="url(#clip272)" style="stroke:#000000; stroke-linecap:round; stroke-linejoin:round; stroke-width:2; stroke-opacity:0.1; fill:none" points="1153.73,1337.49 1569.2,977.694 1569.2,258.092 "/>
<polyline clip-path="url(#clip272)" style="stroke:#000000; stroke-linecap:round; stroke-linejoin:round; stroke-width:2; stroke-opacity:0.1; fill:none" points="1270.4,1371.17 1685.86,1011.37 1685.86,291.77 "/>
<polyline clip-path="url(#clip272)" style="stroke:#000000; stroke-linecap:round; stroke-linejoin:round; stroke-width:2; stroke-opacity:0.1; fill:none" points="1387.06,1404.85 1802.52,1045.05 1802.52,325.448 "/>
<polyline clip-path="url(#clip272)" style="stroke:#000000; stroke-linecap:round; stroke-linejoin:round; stroke-width:2; stroke-opacity:0.1; fill:none" points="1468.69,1356.41 749.086,1148.68 749.086,429.076 "/>
<polyline clip-path="url(#clip272)" style="stroke:#000000; stroke-linecap:round; stroke-linejoin:round; stroke-width:2; stroke-opacity:0.1; fill:none" points="1546.68,1288.87 827.077,1081.14 827.077,361.534 "/>
<polyline clip-path="url(#clip272)" style="stroke:#000000; stroke-linecap:round; stroke-linejoin:round; stroke-width:2; stroke-opacity:0.1; fill:none" points="1624.67,1221.33 905.067,1013.59 905.067,293.993 "/>
<polyline clip-path="url(#clip272)" style="stroke:#000000; stroke-linecap:round; stroke-linejoin:round; stroke-width:2; stroke-opacity:0.1; fill:none" points="1702.66,1153.78 983.058,946.053 983.058,226.451 "/>
<polyline clip-path="url(#clip272)" style="stroke:#000000; stroke-linecap:round; stroke-linejoin:round; stroke-width:2; stroke-opacity:0.1; fill:none" points="1780.65,1086.24 1061.05,878.511 1061.05,158.91 "/>
<polyline clip-path="url(#clip272)" style="stroke:#000000; stroke-linecap:round; stroke-linejoin:round; stroke-width:2; stroke-opacity:0.1; fill:none" points="686.728,1163.72 1102.19,803.924 1821.79,1011.65 "/>
<polyline clip-path="url(#clip272)" style="stroke:#000000; stroke-linecap:round; stroke-linejoin:round; stroke-width:2; stroke-opacity:0.1; fill:none" points="686.728,1018.06 1102.19,658.255 1821.79,865.986 "/>
<polyline clip-path="url(#clip272)" style="stroke:#000000; stroke-linecap:round; stroke-linejoin:round; stroke-width:2; stroke-opacity:0.1; fill:none" points="686.728,872.387 1102.19,512.586 1821.79,720.317 "/>
<polyline clip-path="url(#clip272)" style="stroke:#000000; stroke-linecap:round; stroke-linejoin:round; stroke-width:2; stroke-opacity:0.1; fill:none" points="686.728,726.718 1102.19,366.917 1821.79,574.648 "/>
<polyline clip-path="url(#clip272)" style="stroke:#000000; stroke-linecap:round; stroke-linejoin:round; stroke-width:2; stroke-opacity:0.1; fill:none" points="686.728,581.049 1102.19,221.248 1821.79,428.98 "/>
<polyline clip-path="url(#clip270)" style="stroke:#000000; stroke-linecap:round; stroke-linejoin:round; stroke-width:4; stroke-opacity:1; fill:none" points="686.728,1202.68 1406.33,1410.41 "/>
<polyline clip-path="url(#clip270)" style="stroke:#000000; stroke-linecap:round; stroke-linejoin:round; stroke-width:4; stroke-opacity:1; fill:none" points="687.078,1202.78 692.064,1198.47 "/>
<polyline clip-path="url(#clip270)" style="stroke:#000000; stroke-linecap:round; stroke-linejoin:round; stroke-width:4; stroke-opacity:1; fill:none" points="803.742,1236.46 808.728,1232.14 "/>
<polyline clip-path="url(#clip270)" style="stroke:#000000; stroke-linecap:round; stroke-linejoin:round; stroke-width:4; stroke-opacity:1; fill:none" points="920.406,1270.14 925.392,1265.82 "/>
<polyline clip-path="url(#clip270)" style="stroke:#000000; stroke-linecap:round; stroke-linejoin:round; stroke-width:4; stroke-opacity:1; fill:none" points="1037.07,1303.82 1042.06,1299.5 "/>
<polyline clip-path="url(#clip270)" style="stroke:#000000; stroke-linecap:round; stroke-linejoin:round; stroke-width:4; stroke-opacity:1; fill:none" points="1153.73,1337.49 1158.72,1333.18 "/>
<polyline clip-path="url(#clip270)" style="stroke:#000000; stroke-linecap:round; stroke-linejoin:round; stroke-width:4; stroke-opacity:1; fill:none" points="1270.4,1371.17 1275.38,1366.86 "/>
<polyline clip-path="url(#clip270)" style="stroke:#000000; stroke-linecap:round; stroke-linejoin:round; stroke-width:4; stroke-opacity:1; fill:none" points="1387.06,1404.85 1392.05,1400.53 "/>
<path clip-path="url(#clip270)" d="M670.819 1228.74 Q674.175 1229.46 676.05 1231.73 Q677.948 1234 677.948 1237.33 Q677.948 1242.45 674.43 1245.25 Q670.911 1248.05 664.43 1248.05 Q662.254 1248.05 659.939 1247.61 Q657.647 1247.19 655.194 1246.34 L655.194 1241.82 Q657.138 1242.96 659.453 1243.53 Q661.768 1244.11 664.291 1244.11 Q668.689 1244.11 670.981 1242.38 Q673.296 1240.64 673.296 1237.33 Q673.296 1234.28 671.143 1232.56 Q669.013 1230.83 665.194 1230.83 L661.166 1230.83 L661.166 1226.98 L665.379 1226.98 Q668.828 1226.98 670.657 1225.62 Q672.485 1224.23 672.485 1221.64 Q672.485 1218.97 670.587 1217.56 Q668.712 1216.13 665.194 1216.13 Q663.272 1216.13 661.073 1216.54 Q658.874 1216.96 656.235 1217.84 L656.235 1213.67 Q658.897 1212.93 661.212 1212.56 Q663.55 1212.19 665.61 1212.19 Q670.934 1212.19 674.036 1214.62 Q677.138 1217.03 677.138 1221.15 Q677.138 1224.02 675.495 1226.01 Q673.851 1227.98 670.819 1228.74 Z" fill="#000000" fill-rule="nonzero" fill-opacity="1" /><path clip-path="url(#clip270)" d="M785.029 1250.57 L773.223 1269.02 L785.029 1269.02 L785.029 1250.57 M783.802 1246.5 L789.682 1246.5 L789.682 1269.02 L794.612 1269.02 L794.612 1272.91 L789.682 1272.91 L789.682 1281.06 L785.029 1281.06 L785.029 1272.91 L769.427 1272.91 L769.427 1268.39 L783.802 1246.5 Z" fill="#000000" fill-rule="nonzero" fill-opacity="1" /><path clip-path="url(#clip270)" d="M890.373 1280.17 L908.73 1280.17 L908.73 1284.11 L894.656 1284.11 L894.656 1292.58 Q895.674 1292.23 896.693 1292.07 Q897.711 1291.89 898.73 1291.89 Q904.517 1291.89 907.897 1295.06 Q911.276 1298.23 911.276 1303.65 Q911.276 1309.22 907.804 1312.33 Q904.332 1315.4 898.012 1315.4 Q895.836 1315.4 893.568 1315.03 Q891.323 1314.66 888.915 1313.92 L888.915 1309.22 Q890.998 1310.36 893.221 1310.91 Q895.443 1311.47 897.92 1311.47 Q901.924 1311.47 904.262 1309.36 Q906.6 1307.26 906.6 1303.65 Q906.6 1300.03 904.262 1297.93 Q901.924 1295.82 897.92 1295.82 Q896.045 1295.82 894.17 1296.24 Q892.318 1296.65 890.373 1297.53 L890.373 1280.17 Z" fill="#000000" fill-rule="nonzero" fill-opacity="1" /><path clip-path="url(#clip270)" d="M1016.41 1329.27 Q1013.26 1329.27 1011.41 1331.42 Q1009.58 1333.57 1009.58 1337.32 Q1009.58 1341.05 1011.41 1343.23 Q1013.26 1345.38 1016.41 1345.38 Q1019.56 1345.38 1021.39 1343.23 Q1023.24 1341.05 1023.24 1337.32 Q1023.24 1333.57 1021.39 1331.42 Q1019.56 1329.27 1016.41 1329.27 M1025.69 1314.62 L1025.69 1318.87 Q1023.94 1318.04 1022.13 1317.6 Q1020.35 1317.16 1018.59 1317.16 Q1013.96 1317.16 1011.5 1320.29 Q1009.07 1323.41 1008.73 1329.73 Q1010.09 1327.72 1012.15 1326.65 Q1014.21 1325.56 1016.69 1325.56 Q1021.9 1325.56 1024.91 1328.74 Q1027.94 1331.88 1027.94 1337.32 Q1027.94 1342.65 1024.79 1345.87 Q1021.64 1349.08 1016.41 1349.08 Q1010.42 1349.08 1007.25 1344.5 Q1004.07 1339.89 1004.07 1331.17 Q1004.07 1322.97 1007.96 1318.11 Q1011.85 1313.23 1018.4 1313.23 Q1020.16 1313.23 1021.94 1313.57 Q1023.75 1313.92 1025.69 1314.62 Z" fill="#000000" fill-rule="nonzero" fill-opacity="1" /><path clip-path="url(#clip270)" d="M1122.38 1347.53 L1144.6 1347.53 L1144.6 1349.52 L1132.06 1382.09 L1127.17 1382.09 L1138.98 1351.46 L1122.38 1351.46 L1122.38 1347.53 Z" fill="#000000" fill-rule="nonzero" fill-opacity="1" /><path clip-path="url(#clip270)" d="M1249.42 1399.36 Q1246.08 1399.36 1244.16 1401.14 Q1242.26 1402.92 1242.26 1406.05 Q1242.26 1409.17 1244.16 1410.95 Q1246.08 1412.73 1249.42 1412.73 Q1252.75 1412.73 1254.67 1410.95 Q1256.59 1409.15 1256.59 1406.05 Q1256.59 1402.92 1254.67 1401.14 Q1252.77 1399.36 1249.42 1399.36 M1244.74 1397.36 Q1241.73 1396.62 1240.04 1394.56 Q1238.37 1392.5 1238.37 1389.54 Q1238.37 1385.4 1241.31 1382.99 Q1244.28 1380.58 1249.42 1380.58 Q1254.58 1380.58 1257.52 1382.99 Q1260.46 1385.4 1260.46 1389.54 Q1260.46 1392.5 1258.77 1394.56 Q1257.1 1396.62 1254.12 1397.36 Q1257.49 1398.15 1259.37 1400.44 Q1261.27 1402.73 1261.27 1406.05 Q1261.27 1411.07 1258.19 1413.75 Q1255.13 1416.44 1249.42 1416.44 Q1243.7 1416.44 1240.62 1413.75 Q1237.56 1411.07 1237.56 1406.05 Q1237.56 1402.73 1239.46 1400.44 Q1241.36 1398.15 1244.74 1397.36 M1243.03 1389.98 Q1243.03 1392.67 1244.69 1394.17 Q1246.38 1395.67 1249.42 1395.67 Q1252.43 1395.67 1254.12 1394.17 Q1255.83 1392.67 1255.83 1389.98 Q1255.83 1387.3 1254.12 1385.79 Q1252.43 1384.29 1249.42 1384.29 Q1246.38 1384.29 1244.69 1385.79 Q1243.03 1387.3 1243.03 1389.98 Z" fill="#000000" fill-rule="nonzero" fill-opacity="1" /><path clip-path="url(#clip270)" d="M1356.31 1448.73 L1356.31 1444.47 Q1358.07 1445.3 1359.88 1445.74 Q1361.68 1446.18 1363.42 1446.18 Q1368.05 1446.18 1370.48 1443.08 Q1372.93 1439.95 1373.28 1433.61 Q1371.94 1435.6 1369.88 1436.67 Q1367.82 1437.73 1365.32 1437.73 Q1360.13 1437.73 1357.1 1434.61 Q1354.09 1431.46 1354.09 1426.02 Q1354.09 1420.7 1357.24 1417.48 Q1360.39 1414.26 1365.62 1414.26 Q1371.61 1414.26 1374.76 1418.87 Q1377.93 1423.45 1377.93 1432.2 Q1377.93 1440.37 1374.04 1445.26 Q1370.18 1450.12 1363.63 1450.12 Q1361.87 1450.12 1360.06 1449.77 Q1358.26 1449.42 1356.31 1448.73 M1365.62 1434.07 Q1368.77 1434.07 1370.59 1431.92 Q1372.45 1429.77 1372.45 1426.02 Q1372.45 1422.29 1370.59 1420.14 Q1368.77 1417.96 1365.62 1417.96 Q1362.47 1417.96 1360.62 1420.14 Q1358.79 1422.29 1358.79 1426.02 Q1358.79 1429.77 1360.62 1431.92 Q1362.47 1434.07 1365.62 1434.07 Z" fill="#000000" fill-rule="nonzero" fill-opacity="1" /><polyline clip-path="url(#clip270)" style="stroke:#000000; stroke-linecap:round; stroke-linejoin:round; stroke-width:4; stroke-opacity:1; fill:none" points="1406.33,1410.41 1821.79,1050.61 "/>
<polyline clip-path="url(#clip270)" style="stroke:#000000; stroke-linecap:round; stroke-linejoin:round; stroke-width:4; stroke-opacity:1; fill:none" points="1468.69,1356.41 1460.05,1353.92 "/>
<polyline clip-path="url(#clip270)" style="stroke:#000000; stroke-linecap:round; stroke-linejoin:round; stroke-width:4; stroke-opacity:1; fill:none" points="1546.68,1288.87 1538.04,1286.37 "/>
<polyline clip-path="url(#clip270)" style="stroke:#000000; stroke-linecap:round; stroke-linejoin:round; stroke-width:4; stroke-opacity:1; fill:none" points="1624.67,1221.33 1616.03,1218.83 "/>
<polyline clip-path="url(#clip270)" style="stroke:#000000; stroke-linecap:round; stroke-linejoin:round; stroke-width:4; stroke-opacity:1; fill:none" points="1702.66,1153.78 1694.02,1151.29 "/>
<polyline clip-path="url(#clip270)" style="stroke:#000000; stroke-linecap:round; stroke-linejoin:round; stroke-width:4; stroke-opacity:1; fill:none" points="1780.65,1086.24 1772.01,1083.75 "/>
<path clip-path="url(#clip270)" d="M1504.68 1363.54 L1492.88 1381.99 L1504.68 1381.99 L1504.68 1363.54 M1503.46 1359.47 L1509.34 1359.47 L1509.34 1381.99 L1514.27 1381.99 L1514.27 1385.88 L1509.34 1385.88 L1509.34 1394.03 L1504.68 1394.03 L1504.68 1385.88 L1489.08 1385.88 L1489.08 1381.36 L1503.46 1359.47 Z" fill="#000000" fill-rule="nonzero" fill-opacity="1" /><path clip-path="url(#clip270)" d="M1568.53 1291.92 L1586.89 1291.92 L1586.89 1295.86 L1572.81 1295.86 L1572.81 1304.33 Q1573.83 1303.98 1574.85 1303.82 Q1575.87 1303.64 1576.89 1303.64 Q1582.67 1303.64 1586.05 1306.81 Q1589.43 1309.98 1589.43 1315.4 Q1589.43 1320.97 1585.96 1324.08 Q1582.49 1327.16 1576.17 1327.16 Q1573.99 1327.16 1571.72 1326.79 Q1569.48 1326.41 1567.07 1325.67 L1567.07 1320.97 Q1569.15 1322.11 1571.38 1322.66 Q1573.6 1323.22 1576.08 1323.22 Q1580.08 1323.22 1582.42 1321.11 Q1584.76 1319.01 1584.76 1315.4 Q1584.76 1311.79 1582.42 1309.68 Q1580.08 1307.57 1576.08 1307.57 Q1574.2 1307.57 1572.33 1307.99 Q1570.47 1308.41 1568.53 1309.29 L1568.53 1291.92 Z" fill="#000000" fill-rule="nonzero" fill-opacity="1" /><path clip-path="url(#clip270)" d="M1657.4 1239.8 Q1654.25 1239.8 1652.4 1241.95 Q1650.57 1244.1 1650.57 1247.85 Q1650.57 1251.58 1652.4 1253.76 Q1654.25 1255.91 1657.4 1255.91 Q1660.55 1255.91 1662.38 1253.76 Q1664.23 1251.58 1664.23 1247.85 Q1664.23 1244.1 1662.38 1241.95 Q1660.55 1239.8 1657.4 1239.8 M1666.68 1225.15 L1666.68 1229.41 Q1664.92 1228.57 1663.12 1228.13 Q1661.33 1227.69 1659.58 1227.69 Q1654.95 1227.69 1652.49 1230.82 Q1650.06 1233.94 1649.71 1240.26 Q1651.08 1238.25 1653.14 1237.18 Q1655.2 1236.1 1657.68 1236.1 Q1662.89 1236.1 1665.9 1239.27 Q1668.93 1242.41 1668.93 1247.85 Q1668.93 1253.18 1665.78 1256.4 Q1662.63 1259.61 1657.4 1259.61 Q1651.4 1259.61 1648.23 1255.03 Q1645.06 1250.42 1645.06 1241.7 Q1645.06 1233.5 1648.95 1228.64 Q1652.84 1223.76 1659.39 1223.76 Q1661.15 1223.76 1662.93 1224.1 Q1664.74 1224.45 1666.68 1225.15 Z" fill="#000000" fill-rule="nonzero" fill-opacity="1" /><path clip-path="url(#clip270)" d="M1723.05 1156.84 L1745.27 1156.84 L1745.27 1158.83 L1732.73 1191.4 L1727.84 1191.4 L1739.65 1160.78 L1723.05 1160.78 L1723.05 1156.84 Z" fill="#000000" fill-rule="nonzero" fill-opacity="1" /><path clip-path="url(#clip270)" d="M1812.89 1107.45 Q1809.56 1107.45 1807.64 1109.23 Q1805.74 1111.01 1805.74 1114.14 Q1805.74 1117.26 1807.64 1119.04 Q1809.56 1120.83 1812.89 1120.83 Q1816.23 1120.83 1818.15 1119.04 Q1820.07 1117.24 1820.07 1114.14 Q1820.07 1111.01 1818.15 1109.23 Q1816.25 1107.45 1812.89 1107.45 M1808.22 1105.46 Q1805.21 1104.72 1803.52 1102.66 Q1801.85 1100.6 1801.85 1097.63 Q1801.85 1093.49 1804.79 1091.08 Q1807.76 1088.67 1812.89 1088.67 Q1818.06 1088.67 1821 1091.08 Q1823.94 1093.49 1823.94 1097.63 Q1823.94 1100.6 1822.25 1102.66 Q1820.58 1104.72 1817.59 1105.46 Q1820.97 1106.24 1822.85 1108.54 Q1824.75 1110.83 1824.75 1114.14 Q1824.75 1119.16 1821.67 1121.85 Q1818.61 1124.53 1812.89 1124.53 Q1807.18 1124.53 1804.1 1121.85 Q1801.04 1119.16 1801.04 1114.14 Q1801.04 1110.83 1802.94 1108.54 Q1804.84 1106.24 1808.22 1105.46 M1806.51 1098.07 Q1806.51 1100.76 1808.17 1102.26 Q1809.86 1103.77 1812.89 1103.77 Q1815.9 1103.77 1817.59 1102.26 Q1819.31 1100.76 1819.31 1098.07 Q1819.31 1095.39 1817.59 1093.88 Q1815.9 1092.38 1812.89 1092.38 Q1809.86 1092.38 1808.17 1093.88 Q1806.51 1095.39 1806.51 1098.07 Z" fill="#000000" fill-rule="nonzero" fill-opacity="1" /><polyline clip-path="url(#clip270)" style="stroke:#000000; stroke-linecap:round; stroke-linejoin:round; stroke-width:4; stroke-opacity:1; fill:none" points="686.728,1202.68 686.728,483.08 "/>
<polyline clip-path="url(#clip270)" style="stroke:#000000; stroke-linecap:round; stroke-linejoin:round; stroke-width:4; stroke-opacity:1; fill:none" points="686.728,1163.72 691.714,1159.41 "/>
<polyline clip-path="url(#clip270)" style="stroke:#000000; stroke-linecap:round; stroke-linejoin:round; stroke-width:4; stroke-opacity:1; fill:none" points="686.728,1018.06 691.714,1013.74 "/>
<polyline clip-path="url(#clip270)" style="stroke:#000000; stroke-linecap:round; stroke-linejoin:round; stroke-width:4; stroke-opacity:1; fill:none" points="686.728,872.387 691.714,868.069 "/>
<polyline clip-path="url(#clip270)" style="stroke:#000000; stroke-linecap:round; stroke-linejoin:round; stroke-width:4; stroke-opacity:1; fill:none" points="686.728,726.718 691.714,722.401 "/>
<polyline clip-path="url(#clip270)" style="stroke:#000000; stroke-linecap:round; stroke-linejoin:round; stroke-width:4; stroke-opacity:1; fill:none" points="686.728,581.049 691.714,576.732 "/>
<path clip-path="url(#clip270)" d="M601.748 1149.52 Q598.137 1149.52 596.308 1153.09 Q594.503 1156.63 594.503 1163.76 Q594.503 1170.87 596.308 1174.43 Q598.137 1177.97 601.748 1177.97 Q605.382 1177.97 607.188 1174.43 Q609.017 1170.87 609.017 1163.76 Q609.017 1156.63 607.188 1153.09 Q605.382 1149.52 601.748 1149.52 M601.748 1145.82 Q607.558 1145.82 610.614 1150.43 Q613.692 1155.01 613.692 1163.76 Q613.692 1172.49 610.614 1177.09 Q607.558 1181.68 601.748 1181.68 Q595.938 1181.68 592.859 1177.09 Q589.804 1172.49 589.804 1163.76 Q589.804 1155.01 592.859 1150.43 Q595.938 1145.82 601.748 1145.82 Z" fill="#000000" fill-rule="nonzero" fill-opacity="1" /><path clip-path="url(#clip270)" d="M621.91 1175.13 L626.794 1175.13 L626.794 1181 L621.91 1181 L621.91 1175.13 Z" fill="#000000" fill-rule="nonzero" fill-opacity="1" /><path clip-path="url(#clip270)" d="M637.026 1146.44 L655.382 1146.44 L655.382 1150.38 L641.308 1150.38 L641.308 1158.85 Q642.327 1158.5 643.345 1158.34 Q644.364 1158.16 645.382 1158.16 Q651.169 1158.16 654.549 1161.33 Q657.928 1164.5 657.928 1169.92 Q657.928 1175.5 654.456 1178.6 Q650.984 1181.68 644.664 1181.68 Q642.489 1181.68 640.22 1181.31 Q637.975 1180.94 635.567 1180.19 L635.567 1175.5 Q637.651 1176.63 639.873 1177.19 Q642.095 1177.74 644.572 1177.74 Q648.576 1177.74 650.914 1175.63 Q653.252 1173.53 653.252 1169.92 Q653.252 1166.31 650.914 1164.2 Q648.576 1162.09 644.572 1162.09 Q642.697 1162.09 640.822 1162.51 Q638.97 1162.93 637.026 1163.81 L637.026 1146.44 Z" fill="#000000" fill-rule="nonzero" fill-opacity="1" /><path clip-path="url(#clip270)" d="M591.563 1031.4 L599.202 1031.4 L599.202 1005.04 L590.892 1006.7 L590.892 1002.44 L599.155 1000.78 L603.831 1000.78 L603.831 1031.4 L611.47 1031.4 L611.47 1035.34 L591.563 1035.34 L591.563 1031.4 Z" fill="#000000" fill-rule="nonzero" fill-opacity="1" /><path clip-path="url(#clip270)" d="M620.915 1029.46 L625.799 1029.46 L625.799 1035.34 L620.915 1035.34 L620.915 1029.46 Z" fill="#000000" fill-rule="nonzero" fill-opacity="1" /><path clip-path="url(#clip270)" d="M645.984 1003.85 Q642.373 1003.85 640.544 1007.42 Q638.739 1010.96 638.739 1018.09 Q638.739 1025.2 640.544 1028.76 Q642.373 1032.3 645.984 1032.3 Q649.618 1032.3 651.424 1028.76 Q653.252 1025.2 653.252 1018.09 Q653.252 1010.96 651.424 1007.42 Q649.618 1003.85 645.984 1003.85 M645.984 1000.15 Q651.794 1000.15 654.85 1004.76 Q657.928 1009.34 657.928 1018.09 Q657.928 1026.82 654.85 1031.42 Q651.794 1036.01 645.984 1036.01 Q640.174 1036.01 637.095 1031.42 Q634.04 1026.82 634.04 1018.09 Q634.04 1009.34 637.095 1004.76 Q640.174 1000.15 645.984 1000.15 Z" fill="#000000" fill-rule="nonzero" fill-opacity="1" /><path clip-path="url(#clip270)" d="M592.558 885.732 L600.197 885.732 L600.197 859.366 L591.887 861.033 L591.887 856.774 L600.151 855.107 L604.827 855.107 L604.827 885.732 L612.466 885.732 L612.466 889.667 L592.558 889.667 L592.558 885.732 Z" fill="#000000" fill-rule="nonzero" fill-opacity="1" /><path clip-path="url(#clip270)" d="M621.91 883.787 L626.794 883.787 L626.794 889.667 L621.91 889.667 L621.91 883.787 Z" fill="#000000" fill-rule="nonzero" fill-opacity="1" /><path clip-path="url(#clip270)" d="M637.026 855.107 L655.382 855.107 L655.382 859.042 L641.308 859.042 L641.308 867.514 Q642.327 867.167 643.345 867.005 Q644.364 866.82 645.382 866.82 Q651.169 866.82 654.549 869.991 Q657.928 873.162 657.928 878.579 Q657.928 884.158 654.456 887.26 Q650.984 890.338 644.664 890.338 Q642.489 890.338 640.22 889.968 Q637.975 889.598 635.567 888.857 L635.567 884.158 Q637.651 885.292 639.873 885.848 Q642.095 886.403 644.572 886.403 Q648.576 886.403 650.914 884.297 Q653.252 882.19 653.252 878.579 Q653.252 874.968 650.914 872.862 Q648.576 870.755 644.572 870.755 Q642.697 870.755 640.822 871.172 Q638.97 871.588 637.026 872.468 L637.026 855.107 Z" fill="#000000" fill-rule="nonzero" fill-opacity="1" /><path clip-path="url(#clip270)" d="M594.78 740.063 L611.1 740.063 L611.1 743.998 L589.156 743.998 L589.156 740.063 Q591.818 737.308 596.401 732.679 Q601.007 728.026 602.188 726.683 Q604.433 724.16 605.313 722.424 Q606.216 720.665 606.216 718.975 Q606.216 716.221 604.271 714.484 Q602.35 712.748 599.248 712.748 Q597.049 712.748 594.595 713.512 Q592.165 714.276 589.387 715.827 L589.387 711.105 Q592.211 709.971 594.665 709.392 Q597.118 708.813 599.155 708.813 Q604.526 708.813 607.72 711.498 Q610.915 714.184 610.915 718.674 Q610.915 720.804 610.104 722.725 Q609.317 724.623 607.211 727.216 Q606.632 727.887 603.53 731.105 Q600.429 734.299 594.78 740.063 Z" fill="#000000" fill-rule="nonzero" fill-opacity="1" /><path clip-path="url(#clip270)" d="M620.915 738.119 L625.799 738.119 L625.799 743.998 L620.915 743.998 L620.915 738.119 Z" fill="#000000" fill-rule="nonzero" fill-opacity="1" /><path clip-path="url(#clip270)" d="M645.984 712.517 Q642.373 712.517 640.544 716.082 Q638.739 719.623 638.739 726.753 Q638.739 733.859 640.544 737.424 Q642.373 740.966 645.984 740.966 Q649.618 740.966 651.424 737.424 Q653.252 733.859 653.252 726.753 Q653.252 719.623 651.424 716.082 Q649.618 712.517 645.984 712.517 M645.984 708.813 Q651.794 708.813 654.85 713.42 Q657.928 718.003 657.928 726.753 Q657.928 735.48 654.85 740.086 Q651.794 744.669 645.984 744.669 Q640.174 744.669 637.095 740.086 Q634.04 735.48 634.04 726.753 Q634.04 718.003 637.095 713.42 Q640.174 708.813 645.984 708.813 Z" fill="#000000" fill-rule="nonzero" fill-opacity="1" /><path clip-path="url(#clip270)" d="M595.776 594.394 L612.095 594.394 L612.095 598.329 L590.151 598.329 L590.151 594.394 Q592.813 591.64 597.396 587.01 Q602.003 582.357 603.183 581.015 Q605.429 578.491 606.308 576.755 Q607.211 574.996 607.211 573.306 Q607.211 570.552 605.267 568.816 Q603.345 567.079 600.243 567.079 Q598.044 567.079 595.591 567.843 Q593.16 568.607 590.382 570.158 L590.382 565.436 Q593.206 564.302 595.66 563.723 Q598.114 563.144 600.151 563.144 Q605.521 563.144 608.716 565.829 Q611.91 568.515 611.91 573.005 Q611.91 575.135 611.1 577.056 Q610.313 578.954 608.206 581.547 Q607.628 582.218 604.526 585.436 Q601.424 588.63 595.776 594.394 Z" fill="#000000" fill-rule="nonzero" fill-opacity="1" /><path clip-path="url(#clip270)" d="M621.91 592.45 L626.794 592.45 L626.794 598.329 L621.91 598.329 L621.91 592.45 Z" fill="#000000" fill-rule="nonzero" fill-opacity="1" /><path clip-path="url(#clip270)" d="M637.026 563.769 L655.382 563.769 L655.382 567.704 L641.308 567.704 L641.308 576.177 Q642.327 575.829 643.345 575.667 Q644.364 575.482 645.382 575.482 Q651.169 575.482 654.549 578.653 Q657.928 581.825 657.928 587.241 Q657.928 592.82 654.456 595.922 Q650.984 599.001 644.664 599.001 Q642.489 599.001 640.22 598.63 Q637.975 598.26 635.567 597.519 L635.567 592.82 Q637.651 593.954 639.873 594.51 Q642.095 595.065 644.572 595.065 Q648.576 595.065 650.914 592.959 Q653.252 590.852 653.252 587.241 Q653.252 583.63 650.914 581.524 Q648.576 579.417 644.572 579.417 Q642.697 579.417 640.822 579.834 Q638.97 580.251 637.026 581.13 L637.026 563.769 Z" fill="#000000" fill-rule="nonzero" fill-opacity="1" /><polyline clip-path="url(#clip272)" style="stroke:#009af9; stroke-linecap:round; stroke-linejoin:round; stroke-width:4; stroke-opacity:1; fill:none" points="1060.75,963.967 1059.87,964.584 1044.61,971.945 1046.5,971.261 1050,969.825 1030.34,979.408 1032.74,978.59 1026.14,982.092 1008.71,990.828 1006.97,992.294 1016.06,988.644 1012.17,991.136 1013.04,991.499 1009.86,993.851 1007.37,995.932 985.466,1007.28 999.165,1002.26 1021.65,992.899 1033.9,987.7 1022.79,993.226 1005.9,1001.98 1003.26,1004.7 1012.71,1001.18 1030.41,993.189 1047.08,984.997 999.532,1007.72 1014.33,1002.05 1022.28,997.373 1015.39,1000.21 1084.18,965.977 1119.14,944.711 1069.37,964.223 1083.01,956.951 1108.74,941.907 1101.85,941.905 1126.92,926.046 1169.84,897.364 1178.33,885.369 1074.67,949.812 1031.09,978.369 1036.43,979.246 987.593,1012.51 944.292,1040.91 945.945,1044.88 913.368,1062.8 958.327,1043.18 893.235,1086.8 906.879,1082.41 867.431,1094.74 944.765,1056.39 1056.8,979.616 1062.42,972.712 1087.28,950.208 1170.14,895.682 1159.94,900.773 1265.24,817.626 1241.49,823.654 1202.78,846.182 1285.66,794.323 1264.65,811.643 1300.51,782.703 1313.39,770.333 1411.51,694.165 1343.18,738.287 1304.6,777.527 1377.33,725.201 1441.42,665.188 1400.37,689.597 1447.04,652.358 1487.01,631.138 1256.49,804.501 1255.75,816.035 1090.83,926.363 1113.13,921.325 1109.86,924.128 1189.89,885.77 1190.86,880.07 1237.6,842.97 1288.89,805.069 1188.8,867.484 1064.31,955.385 1094.13,940.915 1011.81,986.965 1054.74,968.933 1045.58,980.38 1087.13,952.818 1105.77,940.412 1065.96,963.42 1090.96,950.262 1076.17,937.311 1072.15,949.258 1017.39,998.085 971.425,1030.83 954.743,1039.34 1015.47,1005.89 1118.49,947.98 1111.86,932.056 1058.82,959.195 1031.07,979.326 1107.33,932.416 1100.98,944.156 1171.58,884.747 1262.68,823.932 1269.79,811.718 1372.96,708.644 1318.7,752.812 1218.49,828.742 1108.93,911.355 1046.76,954.164 1034.87,973.654 1052.96,973.317 1031.92,985.728 1058.2,977.793 1169.63,893.497 1160.11,892.576 1202.81,871.089 1069.43,949.984 1044.49,967.872 1062.94,962.436 1057.82,962.121 989.221,1010.01 999.616,1002.34 1063.76,969.013 1179.41,893.483 1094.95,937.219 1020.92,985.25 930.154,1046.31 900.422,1073.33 841.681,1111.13 853.157,1106.36 868.633,1086.25 856.139,1095.7 845.932,1106.87 859.426,1098.5 885.258,1084.86 924.004,1068.65 947.478,1052.36 892.191,1077.07 920.061,1069.1 947.604,1050.86 911.303,1073.16 960.302,1045.29 941.715,1056.87 1019.03,1025.15 1075.74,975.994 1017.3,999.328 1064.16,972.723 1067.95,961.597 1038.62,981.907 992.276,1010.09 935.744,1040.48 988.437,1017.57 978.929,1014.26 1080.9,959.506 1078.04,958.275 1147.06,903.545 1116.69,919.388 1047.98,967.486 1178.45,894.99 1106.34,944.925 1174.19,886.073 1256.07,826.297 1097.46,928.124 1194.77,864.871 1123.19,917.508 1244.38,832.737 1166.65,880.748 1120.71,922.032 1053.22,965.677 1036.14,985.045 1122.01,932.203 1202.51,868.684 1337.69,777.089 1345.69,752.824 1251.51,807.164 1291.58,787.898 1312.08,754.301 1304.62,769.512 1279.54,797.462 1195.2,859.886 1188.22,875.653 1202.68,867.79 1209.65,869.622 1134.59,919.921 1119.46,935.827 978.615,1035.96 992.128,1018.17 945.992,1042.11 999.552,1019.19 1041.25,987.971 1053.75,982.52 925.44,1057.19 820.787,1121.92 895.864,1077.78 884.116,1085.08 886.114,1092.06 906.546,1073.23 890.856,1079.58 981.42,1023.55 1008.92,1010.15 1018.29,994.463 954.655,1031.51 978.269,1022.12 1015.1,1002.7 1113.7,930.739 1174.7,886.703 1209.41,859.293 1125.86,908.509 1154.49,895.876 1194.92,892.527 1209.6,868.271 1341.72,762.241 1362.44,733.045 1342.98,744.926 1394.2,707.748 1494.15,613.8 1356.92,727.464 1429.89,664.685 1438.62,654.467 1391.05,698.042 1320.48,751.49 1379.11,710.525 1359.35,723.08 1346.61,724.821 1384.82,702.971 1452.89,645.422 1618.37,507.612 1666.34,460.922 1718.22,398.894 1702.36,395.929 1688.41,415.71 1571.53,496.916 1574.39,506.834 1614.36,495.673 1593.82,515.345 1467.18,610.936 1444.17,632.596 1394.53,675.491 1372.99,702.873 1305.71,755.121 1236.97,812.536 1201.02,844.009 1257.56,819.12 1237.03,832.472 1249.72,823.398 1257.55,823.594 1320.97,784.918 1283.28,796.252 1397.88,725.126 1339.58,749.434 1319.56,769.967 1396.85,716.495 1406.08,691.598 1311.26,755.868 1240.78,810.832 1268.27,802.355 1248.19,826.427 1243.9,832.055 1190.58,856.429 1128.53,906.979 1096.98,933.343 1074.46,950.529 1109.08,937.74 1138.81,917.259 1018.14,988.633 905.996,1054.78 883.032,1073.1 850.265,1096.93 797.02,1128.38 718.853,1170.86 769.492,1156.24 787.538,1149.05 859.499,1112.74 876.684,1099.08 850.389,1106.96 859.13,1105.29 880.887,1095.99 867.059,1101.51 838.009,1120.86 821.723,1128.64 818.964,1128.29 904.174,1082.82 972.538,1043.84 992.873,1027.27 1036.69,988.058 976.846,1018.49 999.89,1006.97 1012.85,1003.81 988.253,1014.75 961.568,1036.17 993.27,1012.96 997.451,1009.98 915.077,1058.65 876.557,1079.84 967.197,1046.83 910.765,1077.28 897.921,1082.85 859.423,1103.85 927.324,1066.33 922.677,1061.94 909.865,1070.67 990.289,1028.64 962.119,1042.76 1012.81,1010.57 943.867,1049.56 962.123,1030.71 1065.52,982.168 1156.62,910.028 1100.73,943.721 1235.83,868.058 1238.81,843.558 1181.66,868.99 1236.1,829.255 1126.1,900.397 1145.08,896.406 1096.5,933.658 1114.48,933.513 1204.29,875.824 1297.61,806.74 1441.39,688.917 1469.5,648.309 1450.37,657.934 1442.37,667.525 1286.18,764.152 1210.52,831.204 1299.5,796.966 1326.48,772.334 1369.93,735.321 1355.2,748.847 1333.59,750.381 1282.2,786.559 1246.05,818.544 1381.45,706.143 1398.7,699.299 1376.67,710.287 1413.83,682.509 1400.66,691.754 1438.93,656.477 1336.44,741.001 1292.72,778.155 1393.59,703.275 1412.66,701.294 1389.93,699.049 1374.97,730.405 1435.49,675.43 1338.47,745.166 1398,701.68 1415.82,670.236 1441.58,653.762 1425.28,657.315 1395.27,694.99 1316.17,754.718 1228.91,827.643 1263.48,818.138 1341.06,762.725 1405.96,707.472 1498.67,639.416 1409.02,689.567 1305.48,763.511 1370.46,738.991 1403.49,703.915 1381.63,726.667 1216.93,835.528 1154.92,888.319 1120.87,916.377 1102.29,930.358 1175.1,891.272 1192.7,878.871 1101.39,939.35 1040.47,985.979 916.407,1060.72 873.7,1085.8 804.587,1131.74 801.044,1135.21 798.294,1139.28 828.372,1123.16 831.121,1114.68 848.635,1109.22 908.287,1081.66 940.105,1058.52 984.597,1025.3 921.144,1055.41 926.781,1055.34 811.543,1118.01 808.223,1124.59 738.154,1167.44 782.17,1151.55 856.15,1112.64 988.392,1042.37 980.871,1030.66 998.193,1020.68 1151.1,931.655 1189.31,885.244 1237.51,848.076 1118.14,909.538 1156.27,889.313 1138.44,906.638 1174.94,891.263 1128.35,908.163 1303.07,803.707 1261.37,818.056 1348.5,752.869 1256.56,815.379 1307.93,787.384 1330.6,762.793 1293.67,782.941 1283.21,789.813 1232.86,832.026 1246.92,833.2 1210.43,844.196 1309.99,794.301 1301.2,804.109 1460.02,668.624 1403.67,694.756 1565.35,586.318 1546.03,577.994 1471.24,621.689 1478.2,615.165 1394.48,676.888 1349.75,717.359 1328.07,746.085 1254.61,800.307 1295.13,787.253 1337.66,760.645 1282.38,793.034 1328.83,764.405 1390.76,717.346 1362.83,711.788 1290.49,757.638 1224.46,821.987 1186.03,853.356 1162.46,874.935 1122.08,907.771 1117.3,919.705 1140.11,912.142 1115.48,921.203 1109.27,929.904 1090.39,947.284 1051.88,972.531 1121.02,930.835 1214.99,867.97 1201.92,863.99 1201.73,875.961 1244.45,834.031 1253.65,823.377 1263.84,808.988 1343.71,757.67 1394.99,720.731 1339.49,754.191 1385.2,732.284 1320.1,782.19 1265.52,826.695 1221.66,842.065 1332.08,729.96 1217.23,826.845 1088.41,922.32 1141.34,900.677 1294.37,816.973 1286.71,798.555 1304.26,781.67 1269.18,796.384 1303.6,777.733 1223.41,842.223 1223.72,847.792 1200.58,861.447 1274.54,812.378 1268.28,806.813 1205.52,859.405 1135.69,901.025 1118.72,912.165 1102.37,925.357 1097.57,931.3 1026.32,988.769 1222.81,875.249 1269.12,826.977 1300.48,793.327 1440.16,678.002 1393.74,702.469 1321.04,755.668 1449.39,678.097 1418.89,694.651 1407.31,687.736 1311.1,749.223 1360.49,730.986 1247.07,806.078 1305.4,770.638 1377.51,711.155 1272.68,774.289 1134.08,877.554 1155.85,880.988 1140.16,897.246 1093.38,929.922 1048.79,965.073 1102.16,940.702 1080.92,950.608 1139.2,913.781 1100.64,933.089 1206.78,868.169 1182.31,883.488 1115.21,928.087 1293.13,808.061 1331.16,766.778 1298.56,784.508 1307.89,785.208 1216.04,851.541 1250.11,827.653 1331.96,752.929 1280.75,790.214 1271.81,807.139 1405.71,717.355 1466.96,661.611 1447.55,656.414 1428.68,664.444 1439.94,668.658 1447.64,665.686 1508.13,597.085 1456.19,632.117 1624.82,514.034 1490.44,616.961 1404.12,685.653 1448.08,661.751 1414.32,685.523 1350.94,723.759 1340.14,746.543 1309.28,774.195 1262.25,804.448 1264.8,798.513 1265.48,806.743 1200.8,853.8 1192.69,862.246 1294.21,804.862 1364.98,753.39 1486.93,659.808 1519.88,622.286 1610.98,533.556 1507.45,586.982 1608.73,515.357 1416.15,658.808 1380.3,695.303 1341.54,737.677 1287.67,785.316 1262.77,808.156 1286.57,788.271 1344.97,754.683 1272.36,802.397 1259.13,817.654 1364.57,744.497 1294.47,788.911 1390.29,713.944 1388.39,711.609 1319.34,765.13 1280.98,785.551 1244.5,792.995 1311.35,744.142 1423.3,673.675 1438.71,665.405 1503.33,614.205 1437.59,679.03 1486.62,636.386 1439.62,649.255 1467.17,627.326 1491.28,626.292 1391.04,703.694 1275.09,779.662 1324.24,754.544 1459.14,658.917 1463.45,624.242 1314.83,730.874 1277.12,776.961 1259.08,798.451 1142.88,885.411 1070.66,940.031 1102.95,933.946 1106.06,934.971 1108.74,934.914 1132.75,924.98 1045.74,976.883 1039.84,983.449 1014.37,1002.98 1026.87,988.959 952.653,1036.56 1006.33,1012.01 986.129,1021.88 995.387,1015.42 939.652,1056.94 865.403,1106.42 918.234,1076.34 1031.35,1002.78 1010.11,1007.53 1103.84,952.511 1021.77,992.778 1050.69,978.858 1098.58,948.207 1151.61,911.702 1190.57,870.754 1228.52,849.016 1092.13,939.457 1087.33,937.275 1146.7,889.36 1184.49,873.169 1131.11,907.113 1250.71,830.518 1078.67,951.877 1055.47,968.264 1128.05,927.829 1112.59,925.451 1128.91,921.212 1144.6,900.649 1224.1,857.891 1175.66,880.2 1194.75,861.344 1133.39,912.054 1141.93,901.264 1200.83,884.171 1155.39,914.595 1076.73,960.441 1074.85,956.719 1193.28,867.922 1160.32,895.657 1241.87,831.597 1255.63,822.358 1371.89,735.412 1412.45,703.956 1331.85,760.055 1288.35,782.401 1204.62,846.867 1177.69,864.948 1123.46,911.313 1153.97,902.742 1152.32,906.683 1215.59,864.768 1321.03,785.802 1231.64,832.76 1151.69,885.368 1107.2,926.648 1167.1,892.925 1215.72,859.055 1221.75,859.597 1172.58,889.293 1308.15,792.978 1252.17,818.642 1141,889.885 1118.32,915.361 1063.89,950.037 995.756,1001.46 960.103,1029.24 976.404,1026.13 978.481,1023.73 1052.78,981.212 1037.82,991.955 1043.66,998.973 1151.67,920.922 1207.4,870.495 1310.93,805.064 1352.71,759.869 1301.28,783.601 1299.75,781.341 1281.18,791.269 1323.62,755.409 1294.96,768.038 1350.65,741.505 1432.5,682.729 1429.97,675.601 1556.07,556.746 1461.93,614.62 1350.03,709.38 1270.55,777.498 1237.32,810.127 1136.68,883.543 1102.62,919.049 1073.88,945.649 1023.23,981.709 1089.79,956.065 1058.03,973.631 1102.22,953.463 1097.03,952.192 1109.52,939.003 1074.71,960.777 1098.68,941.489 1135.37,927.307 1231.25,844.966 1238.48,838.034 1208.95,854.567 1321.55,783.496 1269.45,801.235 1256.38,815.046 1220.27,837.438 1273.65,805.816 1308.9,774.463 1338.94,750.972 1371.17,723.578 1206.5,841.915 1103.18,911.216 1113.36,912.28 1050.2,959.068 1048.57,972.546 1114.19,942.629 1221.82,864.439 1224.97,856.72 1204.09,864.165 1181.44,874.163 1145.11,894.257 1064.49,950.607 1093.54,941.312 1152.27,910.06 1126.92,919.643 1205.31,876.52 1197.5,873.446 1171.79,889.909 1212.98,859.24 1254.9,827.263 1308.97,793.03 1277.12,802.69 1404.59,718.323 1430.29,681.83 1458.86,652.383 1430.8,663.79 1498.94,619.557 1441.46,675.03 1384.13,726.101 1419.79,713.353 1582.82,577.386 1537.09,582.276 1439.26,638.631 1392.91,685.701 1270.04,777.303 1428.73,693.28 1395.42,703.767 1357.97,734.497 1349.47,735.205 1419.15,683.117 1538.86,582.893 1528.79,587.702 1470.06,639.802 1470.93,632.848 1361.34,715.469 1299.36,766.791 1355.7,732.119 1342.61,742.192 1298.43,762.443 1204.5,841.711 1252.84,813.427 1214.03,838.62 1185.95,863.459 1145.2,891.715 1213.59,858.456 1187.65,867.554 1237.66,837.39 1264.44,821.438 1280.31,816.479 1391.68,719.093 1503.03,646.18 1466.75,651.433 1400.32,690.781 1294.79,763.919 1276.17,779.801 1224.4,821.741 1217.97,831.137 1156.76,874.286 1142.78,891.734 1172.12,881.434 1135.33,906.62 1126.41,917.039 1002.69,989.817 980.28,1011.47 957.829,1028.16 911.202,1063.12 880.406,1083.65 858.576,1096.76 814.129,1124.95 783.765,1142.61 811.125,1133.32 772.251,1154.92 832.692,1125.5 802.263,1134.64 829.485,1124.22 854.445,1109.74 894.755,1087.88 852.156,1106.35 820.652,1123.01 723.727,1175.35 777.151,1155.09 858.763,1112.39 837.539,1119.1 874.209,1097.93 919.341,1071.32 909.701,1071.31 943.864,1055.72 957.637,1044.22 950.938,1043.25 976.956,1033.32 936.366,1053.73 968.273,1031.81 993.963,1015.93 1022.23,996.551 989.833,1017.13 1023.39,1002.34 1041.89,991.928 1138.83,927.61 1075.6,962.413 1093.45,946.107 1006.22,1006.97 968.084,1032.67 1020.76,1006.12 950.307,1050.6 1033.15,992.418 1061.11,974.886 1010.4,1003.5 1104.88,940.366 1149.6,904.312 1106,934.854 1012.53,996.247 1017.15,997.513 953.152,1037.41 999.212,1015.71 1007.79,1007.65 1033.21,1000.64 1178.03,904.099 1180.75,889.479 1092.35,944.697 1134.3,916.245 1054.56,962.96 939.913,1038.55 937.722,1048.08 912.862,1057.88 942.15,1046.68 958.905,1045.02 880.445,1086.41 969.839,1043.12 982.341,1033.44 936.53,1050.84 974.302,1029.1 1017.89,996.014 995.749,1011.57 979.544,1018.36 1024.52,991.672 989.235,1020.19 1146.81,930.228 1173.84,899.401 1164.36,895.585 1113.43,925.875 1101.7,932.15 1106.82,934.875 1096.32,934.784 1080.7,954.896 1028,986.206 1044.44,975.134 1234.82,861.782 1300.1,806.297 1334.28,756.409 1292.35,787.763 1407.8,711.182 1551.85,578.267 1533.78,580.43 1408.69,673.472 1407.09,686.062 1310.25,757.841 1402.11,706.873 1247.55,811.645 1212.67,844.449 1231.82,831.919 1283.7,801.9 1390.33,722.626 1365.66,730.652 1315.78,763.007 1354.16,736.453 1387.21,713.882 1425.9,668.147 1270.38,784.827 1159.03,866.601 1150.74,886.034 1077.73,944.485 1085.5,946.313 1043.11,969.166 1096.92,947.105 1067.93,966.658 1096.5,953.789 1186.07,884.221 1243.3,844.176 1302.03,795.582 1267.55,812.108 1323.11,778.208 1279.99,795.992 1263.43,806.549 1283.42,798.912 1209.49,839.699 1240.22,805.729 1228.74,829.909 1232.95,825.372 1161.4,886.152 1131.05,908.138 1087.23,934.945 1076.63,947.122 1043.84,972.895 1088.15,955.931 1143.02,923.99 1250.39,844.582 1211.64,861.669 1243.62,831.618 1257.82,817.541 1404.42,721.562 1326.21,748.304 1231.64,818.103 1198,852.164 1165.05,880.142 1165.98,884.311 1103.24,930.369 1057.99,957.813 1104.14,936.584 1041.57,979.715 983.834,1019.64 1052.61,980.239 1029.24,981.065 1045.96,978.682 1014.18,993.356 1075.09,944.471 1054.81,967.231 1161.85,903.488 1350.75,769.519 1364.18,744.466 1311.39,771.083 1249.74,800.671 1305.73,764.812 1264.91,810.151 1272.29,807.861 1290.51,793.892 1237.63,831.617 1246.12,829.046 1203.89,854.846 1112.99,916.988 1138.9,907.969 1061.29,956.316 1158.75,905.569 1176.2,898.138 1224.63,850.515 1256.2,822.068 1231.92,838.491 1125.66,909.726 1186.18,876.314 1186.46,872.37 1126.37,910.948 1197.62,877.661 1167.37,896.178 1093.41,946.651 1201.22,876.122 1251.69,843.825 1250.63,832.717 1208.22,856.085 1222.22,845.927 1262.55,814.326 1399.2,719.594 1351.92,746.413 1456.05,655.084 1403.36,682.492 1221.45,808.689 1206.91,835.52 1205.22,844.875 1325.57,777.98 1326.85,779.522 1413.12,702.351 1514.78,618.807 1459.58,643.894 1414.72,675.467 1405.27,698.02 1333.95,740.862 1381.79,715.339 1382.67,716.484 1322.93,741.835 1432.15,681.922 1325.58,762.108 1297.72,785.187 1195.19,871.311 1103.56,930.908 1067.28,964.782 1149.27,924.129 1217.76,873.174 1343.47,786.337 1291.93,797.275 1214.1,838.363 1222.16,841.56 1200.07,853.046 1098.86,920.66 1006.26,979.468 1052.54,967.192 1076.98,960.447 1144.99,919.093 1217.59,869.313 1245.61,848.823 1320.58,785.906 1346.13,759.862 1448.73,676.238 1460.79,656.319 1507.54,615.9 1383.37,687.305 1371.73,703.104 1290.64,752.236 1313.01,752.555 1283.81,783.648 1326.86,764.737 1277.24,791.378 1225.8,836.05 1217.59,845.07 1172.98,879.565 1243,843.061 1258.22,827.981 1307.73,788.325 1185.52,862.802 1126.59,904.779 1103.74,927.338 1058.25,954.094 1055.3,967.11 1103.71,942.613 1154.17,909.694 1169.81,886.575 1328.91,795.769 1244.49,831.944 1271.48,812.583 1211.58,842.977 1229.99,840.491 1292.77,804.492 1203.95,850.097 1261.06,814.088 1160.47,885.784 1074.39,943.794 1161.08,895.559 1141.75,910.552 1208.62,868.539 1183.74,881.35 1215.47,865.574 1151.79,897.935 1071.93,970.502 1075.6,962.81 1103.26,946.008 1009.56,1001.68 1062.86,954.242 1010.99,998.205 969.449,1015.85 972.355,1019.04 1026.83,990.65 1079.66,950.125 1095.22,934.279 1117.34,924.992 1025.69,990.46 929.331,1053.08 925.413,1057.72 916.198,1066.95 968.827,1025.98 1048.4,977.62 1055.4,964.13 1081.19,950.385 1042.28,977.312 1108.36,931.687 1072.42,962.434 1181.71,892.38 1150.17,914.85 1219.39,869.054 1277.59,817.616 1305.51,797.137 1290.39,798.932 1254.7,836.687 1209.7,853.125 1210.58,859.169 1334,757.18 1278.11,800.377 1260.39,806.692 1244.01,825.838 1266.37,813.259 1185.33,875.899 1198.17,867.732 1203.78,863.938 1160.2,890.835 1171.4,892.717 1126.97,902.03 1225.86,850.87 1230.54,839.736 1277.52,811.259 1241.27,824.984 1331.33,763.238 1220.77,842.893 1254.43,823.55 1212.7,862.543 1211.74,855.422 1174.59,883.026 1273.72,815.037 1233.44,835.775 1293.76,796.402 1289.26,790.417 1392.95,697.539 1296.48,770.51 1269.51,791.353 1215.48,827.958 1265.43,816.477 1222.59,846.859 1205.88,857.043 1233.52,827.082 1217.81,837.02 1155.3,892.449 1065.58,949.654 1003.56,994.457 1048.09,970.885 1026.83,991.543 1064.22,968.593 1094.01,949.042 1128.39,929.593 1214.78,878.358 1320.28,791.794 1513.44,650.058 1390.09,709.217 1399.49,697.323 1473.11,636.319 1455.63,647.488 1539.43,579.221 1450.08,640.955 1422.35,661.645 1396.51,677.526 1391.83,688.166 1499.34,627.894 1439.41,658.926 1281.84,779.41 1355.32,744.33 1417.16,701.136 1413.65,707.846 1503.66,635.266 1539.24,589.501 1520.55,589.009 1505.41,594.838 1516.22,583.914 1380.5,692.242 1311.75,753.748 1183.22,848.433 1143.38,883.118 1111.24,914.561 1142.44,909.775 1079.11,949.304 1058.2,971.562 1090.37,959.133 1061.33,971.514 1110.15,938.352 1261.99,847.295 1357.28,767.083 1394.96,721.705 1313.21,767.616 1250.67,809.431 1308.53,774.946 1264.21,801.282 1281.88,797.483 1226.42,840.034 1281.83,804.716 1318.94,790.539 1262.41,826.454 1219.79,861.853 1218.63,833.755 1176.82,871.892 1205.15,845.161 1160.53,869.674 1204.74,842.809 1361.15,732.45 1485.27,635.466 1427.94,664.963 1476.7,629.351 1326.84,746.699 1287.85,782.46 1417.88,712.36 1330.91,772.098 1267.91,812.527 1270.9,822.876 1258.25,825.03 1323.05,769.66 1196.84,863.002 1239.33,827.581 1196.7,859.703 1280.95,793.613 1277.49,806.037 1165.75,870.108 1268.05,796.626 1323.29,759.626 1248.6,811.734 1329.16,734.835 1306.84,766.538 1243.78,827.179 1250.7,831.982 1217.45,854.883 1276.4,793.307 1262.89,797.868 1273.21,796.801 1254.05,809.557 1272.95,801.715 1311.52,767.167 1267.18,802.784 1369.79,741.556 1280.11,799.432 1330.25,758.714 1321.81,754.504 1303.34,791.646 1250.45,829.139 1382.53,743.803 1359.87,759.347 1349.93,734.248 1351.28,727.766 1318.22,752.074 1283.93,798.303 1254.34,825.314 1191.59,864.082 1239.54,840.275 1317.82,784.426 1277.53,804.639 1321.62,755.56 1358.86,731.771 1383.45,710.634 1382.04,717.087 1386.34,720.979 1377.69,729.405 1404.74,693.852 1354.01,718.526 1508.8,584.109 1432.22,659.133 1370.44,705.91 1379.24,712.603 1254.25,796.42 1259.18,800.881 1202.7,835.62 1179.95,852.615 1133.99,899.236 1158.76,890.405 1197.4,879.223 1322.72,774.472 1323.81,765.411 1353.08,741.598 1391.47,714.342 1416.29,690.11 1293.95,780.047 1339.27,753.176 1285.4,786.553 1213.5,847.655 1243.43,830.648 1292.6,786.529 1245.25,818.487 1279.04,801.639 1302.32,768.276 1156.51,865.502 1155.45,881.814 1135.98,904.664 1103.34,924.525 1076.89,946.564 1046.08,975.703 1039.93,980.384 1024.44,987.925 1085.83,942.81 1067.31,958.339 1064.13,967.49 1018.88,994.933 1114.75,925.598 1084.33,944.135 1131.25,920.398 1128.13,922.616 1095.99,940.002 1256.04,832.317 1259.13,825.431 1393.13,719.474 1394.26,703.181 1457.59,660.422 1383.86,696.463 1290.06,768.018 1307.85,766.492 1224.79,826.573 1296.22,788.504 1266.07,807.37 1165.03,873.14 1152.81,890.207 1152.53,899.336 1139.39,908.646 1034.38,976.165 1017.1,994.326 1056.57,977.123 999.546,1014.49 1027.82,995.02 1027.34,989.773 1022.29,989.75 1050.09,973.09 1095.23,951.235 1178.35,897.017 1176.02,882.058 1114.72,928.587 1164.84,879.313 1075.78,940.292 1091.16,943.39 1072.05,962.546 1022.78,981.266 1029.13,989.676 1062.85,971.226 1083.43,953.867 1122.74,919.007 1203.71,867.575 1268.5,814.452 1314.06,757.789 1287.61,774.288 1245.58,801.234 1239.9,814.339 1202.45,825.326 1236.97,829.799 1308.31,790.963 1188.71,858.371 1144.2,893.392 1175.69,884.427 1207,865.955 1144.15,903.427 1153.22,901.137 1118.77,919.76 1123.58,924.233 1137.39,911.664 1141.12,902.983 1247.57,837.561 1292.86,796.675 1210.76,856.867 1122.2,921.903 1148.81,904.657 1196.59,871.781 1231.62,860.029 1192.79,872.846 1218.8,851.585 1256.94,833.624 1156.91,893.105 1202.94,864.652 1060.39,959.95 1042.93,971.398 974.425,1012.06 1069.08,961.553 1037.68,984.173 1087.73,961.27 1129.02,926.542 1173.28,896.55 1334.52,773.476 1254.7,816.977 1179.97,850.806 1159.15,880.426 1188.21,866.765 1241.66,835.854 1213.68,850.111 1252.08,821.468 1250.83,826.346 1259.28,824.435 1165.93,892.075 1264.43,837.705 1166.38,886.265 1168.5,886.078 1086.62,934.649 1029.65,974.434 1047.15,972.281 1086.47,949.314 1079.26,954.102 1097.6,949.462 1104.22,939.153 1169.49,892.995 1222.49,846.836 1246.19,832.677 1216.88,843.948 1158.32,895.411 1222.51,846.415 1220.48,841.232 1294.01,780.927 1236.96,829.662 1273.4,809.238 1354.84,744.124 1378.5,729.676 1408.11,701.592 1338.37,730.837 1204.76,825.021 1210.56,837.319 1210.84,843.934 1228.54,843.168 1324.95,786.144 1264.02,820.781 1265.22,815.107 1229.42,825.843 1223.29,841.727 1216.62,854.562 1358.56,744.082 1378.66,726.44 1447.59,671.922 1432.16,687.537 1397.2,691.634 1312.55,762.495 1365.34,738.788 1391.96,713.138 1397.17,703.306 1292,789.967 1228.34,839.702 1253.59,823.928 1187.58,869.573 1229.7,829.571 1198.25,866.676 1215.28,852.305 1136.92,900.475 1251.17,842.626 1253.55,832.037 1247.42,831.977 1212.18,856.389 1140.21,893.405 1134.99,919.418 1085.56,946.514 1075.79,949.1 984.231,1004.76 966.367,1021.41 994.206,1015.87 953.35,1037.02 979.807,1025.26 986.085,1019.8 997.155,1010.57 1048.21,985.362 1028.13,994.592 990.445,1012.34 1103.06,942.015 1126.05,918.838 1191.68,876.773 1166.82,894.599 1271.55,802.824 1259.65,805.045 1337.17,749.906 1311.32,761.052 1289.85,775.418 1234.03,805.825 1202.98,836.48 1127.74,905.203 1106.92,924.93 1176.9,882.637 1134.97,912.976 1115.86,925.394 1272.86,815.553 1267.46,805.041 1329.16,764.604 1221.86,841.564 1166.41,882.992 1221.37,848.719 1211.49,863.088 1192.21,865.204 1307.55,784.919 1173.12,873.846 1110.65,927.674 1184.81,873.807 1180.28,878.62 1252.36,820.272 1195.35,859.659 1243.23,835.375 1128.38,901.984 1147.26,896.938 1038.95,964.179 1043.45,975.096 1106.24,938.201 1206.1,875.79 1253.02,837.425 1187.08,872.17 1059.42,953.76 1140.55,911.252 1041.13,968.512 1164.07,893.758 1119.98,919.511 1218.71,855.81 1303.43,792.422 1216.49,843.498 1220.62,842.338 1261.74,817.84 1210.61,846.745 1438.1,690.759 1493.29,635.819 1561.06,557.72 1540.89,567.552 1543.35,555.746 1455.43,623.986 1358.05,707.092 1386.32,700.068 1384.65,709.194 1384.88,710.627 1353.43,743.183 1312.37,767.556 1284.77,788.589 1369.92,737.484 1456.74,650.732 1476.58,638.329 1578.53,551.798 1498.52,596.6 1453.97,637.282 1415.21,668.353 1314.52,743.725 1323.41,746.239 1396.48,700.302 1448.64,664.241 1408.61,680.261 1309.53,753.213 1188.22,847.206 1181.6,863.557 1018.79,970.065 991.994,999.125 969.873,1020.75 916.963,1055.68 896.87,1073.22 851.305,1100.92 878.525,1092.3 883.437,1089.76 1007.68,1030.71 957.569,1045.42 961.442,1042.56 951.592,1043.1 958.935,1041.05 971.954,1031.58 981.357,1028.48 931.285,1059 930.288,1054.49 948.932,1045.6 964.924,1024.44 1030.19,987.445 1045.81,979.607 1050.66,982.352 1121,928.409 1185.59,873.215 1220.36,837.262 1223.02,829.407 1226.54,832.187 1113.63,923.704 1125.59,926.14 1113.29,930.957 1068.11,949.606 1039.97,976.041 1039.41,981.784 1071,962.627 1029.89,988.984 993.07,1006.13 995.634,1014.73 1066.64,974.544 1115.19,941.599 1084.23,962.585 914.13,1070.9 929.763,1060.88 975.987,1036.64 871.64,1095.41 854.182,1104.7 856.872,1097 770.091,1147.85 766.86,1157.45 777.147,1154.85 838.656,1124.71 789.771,1143.6 903.131,1085.84 940.213,1058.05 971.692,1038.83 1029.04,1002.77 1049.88,981.55 1056.54,972.409 1261.05,842.562 1249.4,829.241 1228.67,839.284 1237.44,832.562 1212.78,848.027 1148.06,905.663 1125.46,920.017 1116.83,920.231 1199.23,874.869 1264.97,820.847 1219.88,847.356 1270.91,802.419 1334.04,762.137 1383.23,729.383 1378.34,721.501 1412.44,695.983 1350.8,735.642 1346.61,737.152 1458.37,653.306 1362.6,724.102 1331.68,743.305 1329.92,749.566 1339.56,741.064 1284.33,779.8 1288.43,789.693 1424.92,703.76 1443.64,672.862 1438.31,671.786 1395.4,696.036 1348.18,743.062 1390.11,724.028 1414.96,693.613 1370.23,717.224 1331.15,752.034 1183.24,852.427 1049.58,946.166 1093.81,936.814 1044.82,966.863 1039.64,973.837 1162.06,916.865 1176.16,886.793 1146.75,904.057 1097.69,935.484 1133.21,919.81 1176.84,894.828 1139.1,913.163 1055.19,962.378 1135.14,917.077 1094.33,935.549 1250.61,828.97 1260,820.159 1301.53,797.992 1332.32,790.949 1403.97,707.233 1310.67,757.214 1323.51,752.594 1357.41,739.002 1267.45,797.299 1192.07,856.775 1156.43,884.772 1173.41,882.122 1147.07,906.542 1146.84,908.808 1171.67,894.766 1242.29,843.845 1220.63,856.752 1172.93,884.087 1093.57,940.002 1147.43,907.802 1224.34,857.566 1236.32,835.572 1317.29,792.247 1284.38,803.476 1283.87,804.89 1361.34,746.503 1336.47,754.56 1327.42,760.673 1292.35,780.783 1196.41,849.917 1250.39,827.066 1257.1,819.401 1298.92,790.93 1284.67,792.398 1254.44,813.133 1191.32,871.835 1267.49,828.058 1227.16,840.864 1264.72,816.714 1260.99,813.405 1189.44,862.804 1253.68,823.964 1159.16,886.92 1151.17,900.965 1191.65,873.748 1131.15,904.75 1136.14,906.933 1155.38,897.343 1095.56,931.934 1155.49,902.144 1228.94,849.782 1160.5,896.001 1259.81,823.713 1286.77,807.541 1334.3,769.88 1363.65,743.637 1374.37,732.616 1365.63,736.494 1307.33,775.39 1261.74,819.637 1245.22,833.501 1261.4,817.096 1292.56,776.317 1327.02,767.125 1248.69,813.205 1329.81,752.15 1301.4,782.712 1342.03,739.511 1369.99,713.992 1277.61,790.177 1123.47,888.729 1038.64,953.069 1094.5,937.134 1042.59,974.239 1076.87,959.043 1040.22,979.883 1033.45,990.934 1203.04,887.51 1093.1,946.788 1127.94,931.314 1144.07,911.723 1196.37,876.707 1177.9,886.438 1154.79,904.517 1126.08,927.309 1064.8,962.13 1149.66,903.673 1177.04,898.711 1190.11,874.115 1229.76,852.788 1245.73,833.374 1268.6,813.235 1290.18,785.548 1273.96,796.638 1218.86,837.179 1221.98,839.115 1440.39,707.443 1437.05,673.796 1489.21,621.403 1484.09,615.857 1516.86,591.668 1441.32,651.21 1415.04,669.697 1365.79,706.036 1381.54,696.097 1430.52,666.933 1294.82,761.432 1436.85,679.397 1483.78,615.589 1579.73,552.844 1581.06,551.466 1581.26,537.848 1489.67,605.589 1464.06,633.337 1368.85,704.273 1334.08,733.52 1336.83,745.884 1327.84,753.727 1219.5,834.726 1206.63,851.152 1168.46,876.993 1199.5,861.861 1163.5,887.471 1219.2,856.568 1206.43,858.248 1173.76,875.698 1170.98,893.432 1146.51,902.689 1226.43,854.768 1211.63,852.037 1257.47,827.105 1288.86,796.542 1317.54,773.419 1326.19,768.397 1347.12,747.945 1418.94,698.946 1459.65,652.774 1399.6,690.061 1409.33,680.002 1458.66,649.865 1531.08,589.918 1633.44,475.429 1540.04,537.281 1399.7,647.567 1378.73,690.852 1366.92,710.207 1357.8,724.34 1306.05,764.766 1210.24,833.116 1229.17,836.409 1215.54,846.344 1230.42,840.34 1205.38,861.167 1216.7,855.895 1164.79,893.991 1190.6,877.111 1265.27,825.354 1361.73,760.8 1443.96,691.291 1478.46,653.123 1510.11,609.437 1358.16,706.671 1180.78,834.3 1132.06,880.763 1164.24,874.743 1148.91,891.639 1119.09,915.02 1103.21,930.058 1069.55,952.331 1073.24,958.073 1109.3,929.316 1076.27,944.011 1162.26,900.641 1145.18,899.353 1123.72,915.754 1059.7,962.755 1065.3,969.041 1177.81,897.975 1240.6,837.224 1189.62,868.223 1284.83,804.898 1309.29,789.892 1201.84,855.365 1245.73,819.076 1255.24,812.676 1407.24,718.127 1414.94,689.712 1422.42,678.87 1395.43,689.386 1332.85,739.824 1354.29,730.815 1397.22,704.589 1394.66,707.662 1361.88,718.97 1215.19,832.038 1217,839.707 1255.46,819.852 1245.04,820.817 1295.64,784.831 1266.83,805.943 1179.76,865.953 1171.36,874.085 1151.42,893.838 1140.64,905.84 1122.81,917.464 1149.71,906.874 1257.51,829.525 1242.19,835.076 1208.52,855.824 1237.05,829.23 1325.94,772.81 1305.89,781.075 1340.59,750.537 1347.67,734.165 1346.18,712.232 1218.07,811.578 1242.48,812.397 1304.9,780.993 1310.27,784.622 1300.93,786.564 1267.79,807.983 1202.08,857.034 1197.08,864.725 1140.49,898.406 1104.33,923.409 1094.53,928.02 1084.48,947.929 1129.83,925.997 1136.56,901.054 1114.69,923.212 1256.68,836.898 1111.98,922.522 1182.07,881.734 1183.36,877.959 1113.83,929.548 1204.26,861.004 1258.63,827.144 1144.98,903.832 1039.4,975.155 1096.23,944.588 1064,962.804 1115.99,931.376 1184.73,877.411 1155.08,889.701 1161.55,885.538 1095.15,907.197 1199.36,860.667 1220.19,852.425 1345.69,754.901 1381.94,729.725 1292.65,780.429 1390.71,725.907 1177.18,880.484 1187.77,880.727 1196.78,879.952 1230.47,849.756 1303.43,801.308 1211.22,842.524 1117.24,913.471 1123.78,923.976 1197.46,867.536 1164.17,888.543 1178.51,879.042 1173.44,874.855 1106.64,919.562 1097.32,952.99 1203.52,884.067 1156.03,896.131 1087.54,938.874 1067.16,951.739 1092,941.979 1129.21,916.281 1109.67,934.106 1142.37,913.246 1070.15,966.561 1061.14,974.13 1016.2,999.372 1014.07,1004.07 1036.76,996.556 1023.73,986.153 1060.94,951.443 985.29,1010.69 965.412,1029.12 975.086,1028.73 1056.11,962.609 1064.96,958.221 1034.9,980.289 1109.88,940.963 989.299,1009.64 1101.44,951.114 1242.66,846.679 1330.02,786.206 1344.18,753.579 1338.72,753.089 1373.79,724.027 1368.81,719.138 1416.11,683.938 1313.56,770.225 1248.82,812.351 1305.11,782.516 1285.43,793.101 1196.44,849.525 1115.6,910.321 1072.15,947.629 1059.86,962.874 1026.59,984.611 1010.96,1006.97 997.919,1013.59 1142.57,926.137 1186.33,888.03 1204.23,871.806 1234.01,838.736 1281.94,809.323 1365.96,735.736 1303.43,767.283 1232.06,817.689 1231.61,828.413 1202.85,851.702 1155.01,896.753 1162.17,898.145 1119.14,922.671 1149.24,907.52 1231.39,855.661 1172.26,897.294 1221.22,857.263 1244.06,840.913 1190.9,864.99 1155.97,890.209 1255.77,833.562 1291.67,801.329 1263.65,815.479 1256.17,812.872 1338.2,755.297 1487.46,629.634 1688.35,451.883 1759.24,373.496 1691.73,424.936 1487.19,574.249 1399.01,655.296 1380.74,686.873 1399.04,681.954 1369.22,711.654 1325.79,746.42 1276.47,789.436 1202.81,843.287 1181.36,867.788 1158.05,887.9 1098.33,928.889 1159.61,899.576 1190.29,876.807 1167.67,891.276 1100.97,926.797 1119.59,923.015 1041.65,974.368 1037.63,977.921 1031.75,991.235 1062.36,969.383 1028.52,987.402 1058.98,979.279 1034.36,989.351 1108.17,948.772 1082.16,961.188 1005.54,1001.69 1048.6,974.032 1037.02,978.207 1017.8,1001.09 1153.77,913.24 1181.06,876.383 1283.31,805.694 1320.3,763.608 1310.16,765.926 1249.36,821.553 1343.07,762.858 1366.21,736.425 1359.73,734.695 1488,616.079 1523.47,585.139 1550.81,549.56 1567.81,538.981 1461.45,619.75 1517.86,594.45 1426.67,658.768 1326.73,741.817 1240.31,808.671 1133.26,886.863 1093.91,922.595 1158.04,894.659 1249.56,847.956 1231.4,849.675 1350.64,771.04 1367.68,743.119 1386.09,722.826 1362.69,726.917 1483.19,642.061 1406.71,685.956 1362.76,722.688 1427.48,683.133 1440.73,651.123 1521.68,592.466 1452.77,652.396 1348.86,725.222 1300,761.088 1322.89,753.128 1415.07,683.638 1408.38,698.958 1468.64,658.668 1526.2,620.559 1698.63,464.748 1655.87,475.031 1612.54,486.325 1602.78,510.57 1508.13,579.018 1452.34,632.966 1559.43,574.173 1535.1,583.806 1487.55,619.589 1563.22,562.935 1539.65,571.017 1520.82,586.882 1588.26,539.018 1529.89,581.837 1524.25,590.995 1520.63,590.409 1612.06,526.157 1453.21,631.353 1474.79,630.003 1506,613.254 1444.47,647.919 1528.25,608.524 1431.17,661.571 1467.92,647.278 1451.56,655.106 1402.58,687.773 1335.57,736.999 1315.44,742.981 1362.08,735.202 1361.32,733.61 1417.67,688.247 1386.85,706.174 1357.51,736.058 1380.83,709.047 1396.74,705.06 1357.13,735.582 1306.35,779.963 1428.64,688.724 1486.62,653.48 1441.98,669.538 1442.38,662.393 1455.4,654.351 1557.01,560.713 1464.97,625.774 1444.65,637.453 1515.66,600.184 1422.7,678.018 1442.6,661.587 1350.73,732.607 1289.6,773.742 1345.96,751.052 1286.35,792.735 1241.17,820.786 1303.22,779.322 1398.13,711.183 1367.35,743.249 1266.79,799.428 1295.69,782.498 1365.9,730.243 1309.76,781.341 1303.22,781.074 1391.37,715.672 1399.56,690.543 1444.64,679.023 1452.94,647.587 1408.49,689.021 1487.14,634.298 1612.17,510.303 1568.77,529.852 1450.44,611.891 1498.87,601.682 1466.98,627.77 1462.81,638.237 1502.21,621.322 1361.63,706.663 1229.85,806.197 1178.29,854.624 1238.99,833.064 1264.53,814.964 1204.68,854.988 1229.96,844.585 1070.25,941.894 1156.13,905.528 1267.66,840.198 1231.07,849.204 1212.05,850.86 1192.78,874.936 1167.76,886.641 1186.72,875.494 1206.34,863.698 1297.08,798.368 1216.41,841.055 1349.05,773.863 1282.69,802.245 1287.73,795.427 1270.68,804.237 1269.65,809.573 1334.66,768.552 1368.61,742.804 1356.21,737.698 1215.24,832.143 1303.05,791.695 1327.83,769.906 1233.35,834.142 1131.19,910.087 1057.59,963.485 1085.28,955.281 1096.99,949.226 1019.19,992.773 1035.73,982.044 1119.99,929.177 1031.08,975.479 1079.72,940.585 1128.36,904.931 1079.16,944.778 1072.67,943.453 1040.61,949.337 1133.36,902.936 1125.89,885.229 1313.36,758.72 1483.9,619.672 1366.89,707.229 1309.26,767.127 1282.34,798.093 1420.59,693.939 1453.37,642.821 1450.48,648.34 1492.15,599.047 1441.62,658.345 1331.58,737.915 1322.74,761.382 1344.86,751.796 1341.92,752.65 1305.31,777.13 1372.58,720.534 1336.8,739.089 1307.02,761.04 1377.03,721.523 1401.37,683.771 1347.19,737.791 1422.54,677.878 1422.08,678.093 1356.3,732.998 1352.35,742.408 1277.15,804.765 1286.31,787.861 1310.21,770.707 1199.52,864.471 1216.85,857.591 1355.36,771.71 1335.49,763.212 1275.36,798.352 1286.52,790.553 1301.99,786.815 1331.95,755.966 1343.74,743.127 1314.42,769.966 1358.68,737.727 1308.32,766.826 1307.26,762.416 1244.15,807.343 1205.59,843.141 1165.45,865.981 1033.19,959.47 1031.77,974.452 1064.08,964.744 1112.32,942.158 1073.3,963.283 1096.57,952.291 1085.82,945.278 1064.14,962.575 1149.94,912.025 1201.96,875.276 1229.08,851.921 1318.81,780.244 1135.22,888.387 1115.83,916.296 1145.13,902.945 1129.25,917.321 1099.57,936.084 1056.1,959.271 1010.88,996.012 1046.52,979.565 1064.92,973.514 1146.98,916.851 1168.65,898.3 1266.83,840.053 1242.33,837.6 1296.47,799.743 1229.62,827.305 1178.71,869.791 1205.51,858.135 1263.68,819.747 1255.54,818.93 1237.18,824.068 1276.31,787.834 1262.5,804.532 1358.56,748.75 1329.88,771.158 1288.96,786.406 1291.3,797.9 1289.05,785.382 1134.11,905.04 1070.11,954.454 1166.59,911.109 1118.91,928.788 1125.85,914.384 1163.43,905.915 1227.15,861.7 1298.06,810.205 1261.14,817.366 1300.26,788.227 1329.85,774.927 1394.97,718.88 1328.24,764.359 1327.44,751.32 1313.55,760.994 1331.72,745.096 1407.34,703.471 1346.03,751.066 1286.36,789.129 1157.76,885.081 1039.24,969.015 1063.33,961.387 1080.7,955.945 1108.69,935.221 1106.39,928.815 1036.54,982.71 1132.38,911.798 1117.98,933.09 1167.75,885.805 1150.63,903.803 1158.51,895.52 1184.1,883.151 1200.75,874.099 1194.93,871.599 1205.21,861.483 1104.75,943.609 1130.53,926.417 1147.41,925.656 1130.7,934.227 1036.38,991.037 997.079,1012.98 985.618,1022.65 1109.16,939.219 1097.51,947.781 1187.46,881.362 1175.64,870.783 1196.6,866.56 1286.55,799.951 1256.26,819.006 1184.87,867.747 1260.98,826.881 1421.42,693.914 1333.83,742.775 1386.56,713.755 1458.75,661.987 1515.45,612.346 1612.42,527.228 1591.84,528.536 1649.51,478.052 1789.67,355.68 1705.85,400.341 1723.77,382.281 1695.28,409.637 1652.05,445.411 1617.27,476.278 1514.49,560.327 1466.75,603.276 1404.15,658.701 1461.64,635.85 1382.77,694.607 1395.59,699.086 1352.53,733.304 1259.78,794.606 1304.23,775.027 1287,793.652 1333.48,766.092 1371.96,730.909 1500.34,636.723 1466.73,640.669 1440.3,651.198 1395.99,696.189 1370.6,720.959 1282.72,786.959 1255.66,809.202 1199.39,852.354 1180.33,870.503 1273.29,817.423 1285.1,803.384 1304.93,790.609 1282.43,799.581 1099.7,927.29 1096.2,937.418 1078.44,944.11 1114.5,930.45 1120.98,931.337 1165.11,897.755 1163.42,895.515 1194.1,866.436 1185.81,866.738 1259.13,829.993 1400.76,725.419 1371.73,733.07 1402.05,707.484 1501.3,631.021 1493.69,626.86 1521.21,594.536 1578.66,546.894 1391.31,685.263 1437.9,657.402 1415.61,682.468 1366.7,715.179 1384.87,718.687 1365.57,728.748 1333.94,753.567 1414.68,694.643 1330.89,740.847 1338.12,742.358 1387.26,714.112 1422.74,685.234 1363.93,730.457 1338.93,744.893 1292.62,787.838 1358.6,738.03 1357.12,736.346 1322.67,772.849 1320.38,778.59 1277.29,805.365 1226.78,850.13 1266.4,816.51 1150.78,902.497 1120.41,916.277 1072.22,944.289 1030.23,979.382 1039.07,981.527 1034.33,983.955 1039.14,985.035 1071.33,974.683 1082.18,963.609 1099.82,947.626 1006.78,1003.15 878.407,1073.43 928.638,1050.64 911.432,1056.98 845.701,1097.53 823.642,1116.9 909.891,1075.39 821.417,1124.57 837.188,1117.88 813.606,1134.29 857.515,1113.28 878.5,1090.87 855.793,1101.96 872.333,1095.98 956.063,1039.66 988.733,1025.43 996.179,1018.97 969.215,1029.56 952.14,1042.14 1065.5,979.683 1089.94,951.468 1122.63,929.178 1107.08,940.725 1074.72,954.808 1065.11,966.266 1141.15,923.876 1142.86,905.38 1014.42,989.072 944.757,1044.19 862.017,1094.75 896.966,1075.83 897.551,1077.85 928.57,1065.33 927.762,1055.78 983.987,1026.09 971.245,1032.44 958.09,1039.11 951.092,1042.39 997.585,1019.08 986.002,1027.87 961.558,1034.48 1027.67,998.595 973.999,1022.29 933.265,1047.49 996.636,1018.83 974.092,1036.34 959.366,1037.24 976.749,1025.6 1048.82,992.097 1091.9,960.889 1073.48,953.791 1066.19,961.834 1082.54,953.243 1069.36,955.737 1000,995.081 1119.05,919.102 1107.01,931.482 1071.71,964.637 1160.03,902.645 1228.41,855.361 1068.17,962.599 992.922,1008.71 957.362,1037.79 871.049,1089.58 877.176,1083.75 884.999,1087.16 918.062,1066.37 874.676,1090.98 921.332,1066.77 976.847,1039.42 894.652,1083.62 865.885,1099.07 857.498,1105.4 844.665,1114.08 817.906,1128.26 875.109,1094.2 938.109,1059.59 1017.61,1009.54 1049.57,984.966 1102.99,947.22 1139.68,909.683 1172.06,892.018 1209.14,870.069 1094.94,938.56 1122.72,920.288 1145.97,898.177 1130.2,916.552 1267.99,812.317 1272.12,807.661 1288.68,806.129 1266.84,804.647 1205.78,848.741 1230.68,841.308 1183.87,874.598 1232.69,842.162 1369.07,742.818 1326.92,767.118 1438.63,677.136 1379.36,710.294 1510.35,618.701 1505.06,591.449 1424.8,642.166 1413.58,664.631 1329.96,732.276 1316.27,762.465 1274.83,791.609 1326.08,759.438 1379.69,725.873 1411.09,693.672 1409.6,695.752 1293.57,779.943 1232.2,823.043 1168.29,865.926 1206.51,853.009 1138.31,904.64 1241.92,854.136 1234.64,861.253 1269.01,833.41 1237.36,835.532 1170,873.23 1101.75,926.399 1099.19,928.603 1089.94,940.877 1170.15,899.749 1256.47,845.767 1267.09,827.686 1313.77,789.144 1395.37,727.318 1258.15,799.815 1256.95,806.188 1207.84,849.581 1209.14,853.242 1213.57,851.911 1181.37,873.86 1218.1,853.363 1102.02,924.565 1154.94,897.384 1210.23,869.67 1233.93,842.958 1181.53,873.927 1142.09,895.842 1220.29,853.906 1214.65,850.673 1148.42,888.058 1088.54,934.699 1086.9,943.09 1053.07,963.975 984.875,1004.24 942.781,1034.32 954.524,1035.5 959.183,1038.08 942.06,1048.54 866.13,1088.24 857.688,1101.13 919.016,1072.46 991.126,1026.23 972.186,1031.72 1012.65,1008.24 976.527,1026.36 1019.55,995.803 942.134,1039.47 954.22,1037.76 983.48,1021.91 933.963,1052.96 972.724,1030.02 885.282,1083.06 903.136,1073.47 962.216,1038.15 917.776,1058.97 950.628,1045.65 1007.91,1014.76 997.248,1013.01 1003.13,1011.58 1018.86,1012.84 1079.38,979.72 1128.62,936.987 1209.79,874.294 1241.07,840.38 1306.34,796.944 1224.38,848.835 1142.83,910.555 1079.44,951.353 1105.75,930.708 1221.24,868.824 1091.12,961.518 1058.31,986.732 1092.78,959.781 1209.54,877.553 1204.15,865.722 1201.95,861.618 1346.96,752.777 1276.54,792.944 1323.07,759.826 1268.14,805.689 1371.47,745.53 1395.25,723.07 1498.74,640.129 1456.93,653.828 1421.6,655.958 1273.11,766.84 1295.48,774.526 1291.51,794.499 1259.31,815.611 1316.58,775.55 1407.03,705.075 1345.11,743.509 1334.9,752.039 1304.27,778.918 1354.82,759.956 1440.25,681.235 1406.76,701.507 1412.54,687.446 1309.61,764.508 1307.78,776.352 1501.08,640.524 1560.73,579.617 1513.23,608.347 1569.69,571.265 1546.93,534.27 1477.26,592.465 1410.54,656.172 1348.75,714.963 1379.59,707.09 1417.81,689.026 1378.13,713.262 1342.48,743.926 1414.87,704.451 1334.59,761.575 1420.98,697.762 1357.37,740.666 1376.98,728.39 1227.48,830.148 1288.09,797.898 1418.53,706.091 1406.66,694.788 1345.88,731.015 1363.85,729.076 1218.52,835.247 1164.29,873.85 1196.36,868.936 1190.4,870.471 1128.71,915.933 1310.48,814.182 1397.16,732.505 1411.11,705.183 1444.24,674.235 1385.41,705.034 1394.45,704.953 1420.73,673.89 1389.54,701.077 1320.57,741.498 1303.92,761.988 1274.47,786.089 1187.08,852.298 1156.94,883.85 1167.52,887.554 1117.78,923.494 1054.11,967.619 1030.73,986.236 1043.58,987.414 1035.03,990.118 968.989,1017.17 1037.73,982.034 1017.8,997.376 1092.1,960.387 1094.45,951.077 1093.09,941.478 1010.89,995.502 1006.77,1010.02 939.127,1053.09 900.894,1080.51 997.179,1018.03 1001,1010.61 1005.93,993.973 951.933,1031.97 1026.05,989.795 1050.75,966.242 1125.19,927.362 1031.6,990.397 958.394,1038 960.347,1044.44 907.588,1068 917.869,1056.6 857.843,1090.72 813.651,1124.07 885.904,1089.11 909.235,1080.71 895.562,1086.13 870.263,1099.46 908.563,1079.51 899.565,1077.21 855.337,1108.55 856.071,1106.2 919.87,1072.87 903.947,1075.24 897.062,1076.79 907.149,1073.87 929.78,1057.5 932.07,1060.67 1012.34,1006.03 1143.19,929.715 1150.33,917.942 1165.56,889.595 1169.11,884.977 1241.47,836.065 1285.84,807.335 1292.95,788.975 1216.28,845.063 1192.75,860.391 1244.25,820.061 1261.51,813.174 1279.62,784.119 1222.74,837.874 1103.74,918.064 1214.61,871.697 1229.04,852.636 1100.65,926.748 1026.25,982.198 998.459,1001.9 1013.05,998.83 1096.68,953.591 1086.47,954.124 1136.56,921.873 1191.5,892.198 1204.89,876.651 1236.01,852.706 1287.18,803.313 1272.67,803.453 1334.63,757.501 1334.48,760.076 1305.68,773.361 1283.6,792.027 1300.49,769.024 1464.96,647.122 1499.13,624.116 1365.78,721.033 1315.14,770.93 1342.41,750.919 1414.37,701.107 1440.89,647.27 1539.77,581.286 1527.81,584.13 1480.39,631.462 1436.19,664.876 1499.42,614.004 1464.01,656.181 1489.65,633.638 1438.83,671.185 1462.21,645.092 1508.2,612.884 1481.91,624.112 1453.43,639.326 1441.47,668.399 1447.49,665.172 1449.48,661.553 1415.75,690.316 1353.37,727.052 1362.97,728.072 1266,796.78 1274.23,800.694 1147.04,873.456 1168.32,881.715 1175.09,883.422 1148.12,895.25 1066.03,952.053 1120.31,925.959 1180.65,891.638 1189.95,879.752 1158.15,897.647 1156.63,902.27 1143.67,913.107 1180.93,884.14 1168.8,888.001 1208.53,855.384 1215.89,851.188 1271.08,814.002 1309.61,775.404 1244.27,819.68 1233.95,835.851 1160.93,898.975 1160.53,901.216 1189.88,871.172 1129.42,909.577 1139.75,905.433 1118.71,908.926 1162.42,889.805 1189.84,866.31 1288.65,804.123 1338.4,760.701 1309.22,777.721 1301.13,763.602 1271,794.909 1154.93,880.869 1121.42,907.879 1171.8,897.395 1169.17,880.102 1247.56,827.73 1373.3,718.461 1268.83,789.638 1245.79,809.196 1217.9,830.735 1159.54,879.636 1158.45,884.017 1210.39,850.866 1224.2,836.208 1173.44,882.977 1190.83,866.859 1251.88,833.874 1171.76,891.094 1193.08,878.657 1259.64,829.251 1261.46,812.936 1260.15,814.453 1248.74,810.999 1319.91,767.396 1382.21,715.6 1439.95,664.989 1467,651.385 1529.29,580.264 1579.26,534.179 1547.31,547.786 1448.09,631.274 1381.44,690.079 1387.13,704.233 1325.61,748.804 1266.36,798.587 1288.16,791.712 1304.6,787.792 1376.73,736.402 1363.42,732.575 1218.93,834.765 1191.79,858.504 1192.75,868.041 1207.53,861.468 1164.01,886.71 1188.63,871.309 1288.44,804.431 1213.27,842.307 1115.34,907.837 1166.06,892.402 1151.45,891.642 1087.6,936.85 1159.39,907.73 1103.48,933.763 1069.59,952.734 1164.08,888.16 1140.33,897.857 1107.8,928.686 1108.2,930.358 1171.22,897.075 1291.24,797.265 1193.85,847.387 1224.5,843.646 1158.08,876.107 1108.91,920.305 1117.65,921.605 1153.58,905.677 1082.29,943.633 1061.62,961.921 1095.46,948.227 1042.76,978.154 1045.29,976.517 1079.47,959.35 1090.47,953.91 1195.61,879.98 1125.5,920.516 1153.08,904.02 1140.94,914.814 1183.85,885.787 1238.55,846.851 1293.43,792.988 1384.29,713.874 1349.52,736.576 1388.75,705.756 1426.02,676.6 "/>
<path clip-path="url(#clip270)" d="M228.998 198.898 L588.673 198.898 L588.673 95.2176 L228.998 95.2176  Z" fill="#ffffff" fill-rule="evenodd" fill-opacity="1"/>
<polyline clip-path="url(#clip270)" style="stroke:#000000; stroke-linecap:round; stroke-linejoin:round; stroke-width:4; stroke-opacity:1; fill:none" points="228.998,198.898 588.673,198.898 588.673,95.2176 228.998,95.2176 228.998,198.898 "/>
<polyline clip-path="url(#clip270)" style="stroke:#009af9; stroke-linecap:round; stroke-linejoin:round; stroke-width:4; stroke-opacity:1; fill:none" points="253.409,147.058 399.875,147.058 "/>
<path clip-path="url(#clip270)" d="M434.911 128.366 Q431.809 133.69 430.305 138.898 Q428.8 144.106 428.8 149.453 Q428.8 154.801 430.305 160.055 Q431.832 165.287 434.911 170.588 L431.207 170.588 Q427.735 165.148 425.999 159.893 Q424.286 154.639 424.286 149.453 Q424.286 144.291 425.999 139.06 Q427.712 133.828 431.207 128.366 L434.911 128.366 Z" fill="#000000" fill-rule="nonzero" fill-opacity="1" /><path clip-path="url(#clip270)" d="M464.726 138.412 L455.351 151.027 L465.212 164.338 L460.189 164.338 L452.642 154.152 L445.096 164.338 L440.073 164.338 L450.142 150.773 L440.929 138.412 L445.953 138.412 L452.828 147.648 L459.703 138.412 L464.726 138.412 Z" fill="#000000" fill-rule="nonzero" fill-opacity="1" /><path clip-path="url(#clip270)" d="M472.318 158.458 L477.202 158.458 L477.202 162.439 L473.406 169.847 L470.42 169.847 L472.318 162.439 L472.318 158.458 Z" fill="#000000" fill-rule="nonzero" fill-opacity="1" /><path clip-path="url(#clip270)" d="M497.087 166.745 Q495.281 171.375 493.568 172.787 Q491.855 174.199 488.985 174.199 L485.582 174.199 L485.582 170.634 L488.082 170.634 Q489.841 170.634 490.813 169.8 Q491.786 168.967 492.966 165.865 L493.73 163.921 L483.244 138.412 L487.758 138.412 L495.86 158.689 L503.962 138.412 L508.475 138.412 L497.087 166.745 Z" fill="#000000" fill-rule="nonzero" fill-opacity="1" /><path clip-path="url(#clip270)" d="M515.443 158.458 L520.327 158.458 L520.327 162.439 L516.531 169.847 L513.545 169.847 L515.443 162.439 L515.443 158.458 Z" fill="#000000" fill-rule="nonzero" fill-opacity="1" /><path clip-path="url(#clip270)" d="M527.573 138.412 L547.804 138.412 L547.804 142.301 L531.785 160.935 L547.804 160.935 L547.804 164.338 L526.994 164.338 L526.994 160.449 L543.012 141.815 L527.573 141.815 L527.573 138.412 Z" fill="#000000" fill-rule="nonzero" fill-opacity="1" /><path clip-path="url(#clip270)" d="M553.637 128.366 L557.341 128.366 Q560.813 133.828 562.526 139.06 Q564.262 144.291 564.262 149.453 Q564.262 154.639 562.526 159.893 Q560.813 165.148 557.341 170.588 L553.637 170.588 Q556.716 165.287 558.22 160.055 Q559.748 154.801 559.748 149.453 Q559.748 144.106 558.22 138.898 Q556.716 133.69 553.637 128.366 Z" fill="#000000" fill-rule="nonzero" fill-opacity="1" /></svg>
