<?xml version="1.0" encoding="utf-8"?>
<svg xmlns="http://www.w3.org/2000/svg" xmlns:xlink="http://www.w3.org/1999/xlink" width="600" height="400" viewBox="0 0 2400 1600">
<defs>
  <clipPath id="clip150">
    <rect x="0" y="0" width="2400" height="1600"/>
  </clipPath>
</defs>
<path clip-path="url(#clip150)" d="M0 1600 L2400 1600 L2400 0 L0 0  Z" fill="#ffffff" fill-rule="evenodd" fill-opacity="1"/>
<defs>
  <clipPath id="clip151">
    <rect x="480" y="0" width="1681" height="1600"/>
  </clipPath>
</defs>
<path clip-path="url(#clip150)" d="M192.941 1423.18 L2352.76 1423.18 L2352.76 47.2441 L192.941 47.2441  Z" fill="#ffffff" fill-rule="evenodd" fill-opacity="1"/>
<defs>
  <clipPath id="clip152">
    <rect x="192" y="47" width="2161" height="1377"/>
  </clipPath>
</defs>
<polyline clip-path="url(#clip152)" style="stroke:#000000; stroke-linecap:round; stroke-linejoin:round; stroke-width:2; stroke-opacity:0.1; fill:none" points="192.941,1423.18 192.941,47.2441 "/>
<polyline clip-path="url(#clip152)" style="stroke:#000000; stroke-linecap:round; stroke-linejoin:round; stroke-width:2; stroke-opacity:0.1; fill:none" points="624.904,1423.18 624.904,47.2441 "/>
<polyline clip-path="url(#clip152)" style="stroke:#000000; stroke-linecap:round; stroke-linejoin:round; stroke-width:2; stroke-opacity:0.1; fill:none" points="1056.87,1423.18 1056.87,47.2441 "/>
<polyline clip-path="url(#clip152)" style="stroke:#000000; stroke-linecap:round; stroke-linejoin:round; stroke-width:2; stroke-opacity:0.1; fill:none" points="1488.83,1423.18 1488.83,47.2441 "/>
<polyline clip-path="url(#clip152)" style="stroke:#000000; stroke-linecap:round; stroke-linejoin:round; stroke-width:2; stroke-opacity:0.1; fill:none" points="1920.79,1423.18 1920.79,47.2441 "/>
<polyline clip-path="url(#clip152)" style="stroke:#000000; stroke-linecap:round; stroke-linejoin:round; stroke-width:2; stroke-opacity:0.1; fill:none" points="2352.76,1423.18 2352.76,47.2441 "/>
<polyline clip-path="url(#clip150)" style="stroke:#000000; stroke-linecap:round; stroke-linejoin:round; stroke-width:4; stroke-opacity:1; fill:none" points="192.941,1423.18 2352.76,1423.18 "/>
<polyline clip-path="url(#clip150)" style="stroke:#000000; stroke-linecap:round; stroke-linejoin:round; stroke-width:4; stroke-opacity:1; fill:none" points="192.941,1423.18 192.941,1404.28 "/>
<polyline clip-path="url(#clip150)" style="stroke:#000000; stroke-linecap:round; stroke-linejoin:round; stroke-width:4; stroke-opacity:1; fill:none" points="624.904,1423.18 624.904,1404.28 "/>
<polyline clip-path="url(#clip150)" style="stroke:#000000; stroke-linecap:round; stroke-linejoin:round; stroke-width:4; stroke-opacity:1; fill:none" points="1056.87,1423.18 1056.87,1404.28 "/>
<polyline clip-path="url(#clip150)" style="stroke:#000000; stroke-linecap:round; stroke-linejoin:round; stroke-width:4; stroke-opacity:1; fill:none" points="1488.83,1423.18 1488.83,1404.28 "/>
<polyline clip-path="url(#clip150)" style="stroke:#000000; stroke-linecap:round; stroke-linejoin:round; stroke-width:4; stroke-opacity:1; fill:none" points="1920.79,1423.18 1920.79,1404.28 "/>
<polyline clip-path="url(#clip150)" style="stroke:#000000; stroke-linecap:round; stroke-linejoin:round; stroke-width:4; stroke-opacity:1; fill:none" points="2352.76,1423.18 2352.76,1404.28 "/>
<path clip-path="url(#clip150)" d="M192.941 1454.1 Q189.33 1454.1 187.501 1457.66 Q185.695 1461.2 185.695 1468.33 Q185.695 1475.44 187.501 1479.01 Q189.33 1482.55 192.941 1482.55 Q196.575 1482.55 198.38 1479.01 Q200.209 1475.44 200.209 1468.33 Q200.209 1461.2 198.38 1457.66 Q196.575 1454.1 192.941 1454.1 M192.941 1450.39 Q198.751 1450.39 201.806 1455 Q204.885 1459.58 204.885 1468.33 Q204.885 1477.06 201.806 1481.67 Q198.751 1486.25 192.941 1486.25 Q187.13 1486.25 184.052 1481.67 Q180.996 1477.06 180.996 1468.33 Q180.996 1459.58 184.052 1455 Q187.13 1450.39 192.941 1450.39 Z" fill="#000000" fill-rule="nonzero" fill-opacity="1" /><path clip-path="url(#clip150)" d="M619.556 1481.64 L635.876 1481.64 L635.876 1485.58 L613.932 1485.58 L613.932 1481.64 Q616.594 1478.89 621.177 1474.26 Q625.783 1469.61 626.964 1468.27 Q629.209 1465.74 630.089 1464.01 Q630.992 1462.25 630.992 1460.56 Q630.992 1457.8 629.047 1456.07 Q627.126 1454.33 624.024 1454.33 Q621.825 1454.33 619.371 1455.09 Q616.941 1455.86 614.163 1457.41 L614.163 1452.69 Q616.987 1451.55 619.441 1450.97 Q621.894 1450.39 623.931 1450.39 Q629.302 1450.39 632.496 1453.08 Q635.691 1455.77 635.691 1460.26 Q635.691 1462.39 634.88 1464.31 Q634.093 1466.2 631.987 1468.8 Q631.408 1469.47 628.306 1472.69 Q625.205 1475.88 619.556 1481.64 Z" fill="#000000" fill-rule="nonzero" fill-opacity="1" /><path clip-path="url(#clip150)" d="M1059.88 1455.09 L1048.07 1473.54 L1059.88 1473.54 L1059.88 1455.09 M1058.65 1451.02 L1064.53 1451.02 L1064.53 1473.54 L1069.46 1473.54 L1069.46 1477.43 L1064.53 1477.43 L1064.53 1485.58 L1059.88 1485.58 L1059.88 1477.43 L1044.27 1477.43 L1044.27 1472.92 L1058.65 1451.02 Z" fill="#000000" fill-rule="nonzero" fill-opacity="1" /><path clip-path="url(#clip150)" d="M1489.23 1466.44 Q1486.09 1466.44 1484.23 1468.59 Q1482.41 1470.74 1482.41 1474.49 Q1482.41 1478.22 1484.23 1480.39 Q1486.09 1482.55 1489.23 1482.55 Q1492.38 1482.55 1494.21 1480.39 Q1496.06 1478.22 1496.06 1474.49 Q1496.06 1470.74 1494.21 1468.59 Q1492.38 1466.44 1489.23 1466.44 M1498.52 1451.78 L1498.52 1456.04 Q1496.76 1455.21 1494.95 1454.77 Q1493.17 1454.33 1491.41 1454.33 Q1486.78 1454.33 1484.33 1457.45 Q1481.9 1460.58 1481.55 1466.9 Q1482.92 1464.89 1484.98 1463.82 Q1487.04 1462.73 1489.51 1462.73 Q1494.72 1462.73 1497.73 1465.9 Q1500.76 1469.05 1500.76 1474.49 Q1500.76 1479.82 1497.61 1483.03 Q1494.47 1486.25 1489.23 1486.25 Q1483.24 1486.25 1480.07 1481.67 Q1476.9 1477.06 1476.9 1468.33 Q1476.9 1460.14 1480.79 1455.28 Q1484.67 1450.39 1491.23 1450.39 Q1492.98 1450.39 1494.77 1450.74 Q1496.57 1451.09 1498.52 1451.78 Z" fill="#000000" fill-rule="nonzero" fill-opacity="1" /><path clip-path="url(#clip150)" d="M1920.79 1469.17 Q1917.46 1469.17 1915.54 1470.95 Q1913.64 1472.73 1913.64 1475.86 Q1913.64 1478.98 1915.54 1480.77 Q1917.46 1482.55 1920.79 1482.55 Q1924.13 1482.55 1926.05 1480.77 Q1927.97 1478.96 1927.97 1475.86 Q1927.97 1472.73 1926.05 1470.95 Q1924.15 1469.17 1920.79 1469.17 M1916.12 1467.18 Q1913.11 1466.44 1911.42 1464.38 Q1909.75 1462.32 1909.75 1459.35 Q1909.75 1455.21 1912.69 1452.8 Q1915.65 1450.39 1920.79 1450.39 Q1925.95 1450.39 1928.89 1452.8 Q1931.83 1455.21 1931.83 1459.35 Q1931.83 1462.32 1930.14 1464.38 Q1928.48 1466.44 1925.49 1467.18 Q1928.87 1467.96 1930.75 1470.26 Q1932.64 1472.55 1932.64 1475.86 Q1932.64 1480.88 1929.57 1483.57 Q1926.51 1486.25 1920.79 1486.25 Q1915.08 1486.25 1912 1483.57 Q1908.94 1480.88 1908.94 1475.86 Q1908.94 1472.55 1910.84 1470.26 Q1912.74 1467.96 1916.12 1467.18 M1914.4 1459.79 Q1914.4 1462.48 1916.07 1463.98 Q1917.76 1465.49 1920.79 1465.49 Q1923.8 1465.49 1925.49 1463.98 Q1927.2 1462.48 1927.2 1459.79 Q1927.2 1457.11 1925.49 1455.6 Q1923.8 1454.1 1920.79 1454.1 Q1917.76 1454.1 1916.07 1455.6 Q1914.4 1457.11 1914.4 1459.79 Z" fill="#000000" fill-rule="nonzero" fill-opacity="1" /><path clip-path="url(#clip150)" d="M2327.44 1481.64 L2335.08 1481.64 L2335.08 1455.28 L2326.77 1456.95 L2326.77 1452.69 L2335.04 1451.02 L2339.71 1451.02 L2339.71 1481.64 L2347.35 1481.64 L2347.35 1485.58 L2327.44 1485.58 L2327.44 1481.64 Z" fill="#000000" fill-rule="nonzero" fill-opacity="1" /><path clip-path="url(#clip150)" d="M2366.8 1454.1 Q2363.18 1454.1 2361.36 1457.66 Q2359.55 1461.2 2359.55 1468.33 Q2359.55 1475.44 2361.36 1479.01 Q2363.18 1482.55 2366.8 1482.55 Q2370.43 1482.55 2372.23 1479.01 Q2374.06 1475.44 2374.06 1468.33 Q2374.06 1461.2 2372.23 1457.66 Q2370.43 1454.1 2366.8 1454.1 M2366.8 1450.39 Q2372.61 1450.39 2375.66 1455 Q2378.74 1459.58 2378.74 1468.33 Q2378.74 1477.06 2375.66 1481.67 Q2372.61 1486.25 2366.8 1486.25 Q2360.99 1486.25 2357.91 1481.67 Q2354.85 1477.06 2354.85 1468.33 Q2354.85 1459.58 2357.91 1455 Q2360.99 1450.39 2366.8 1450.39 Z" fill="#000000" fill-rule="nonzero" fill-opacity="1" /><path clip-path="url(#clip150)" d="M1271.91 1522.27 L1271.91 1532.4 L1283.97 1532.4 L1283.97 1536.95 L1271.91 1536.95 L1271.91 1556.3 Q1271.91 1560.66 1273.09 1561.9 Q1274.3 1563.14 1277.96 1563.14 L1283.97 1563.14 L1283.97 1568.04 L1277.96 1568.04 Q1271.18 1568.04 1268.6 1565.53 Q1266.02 1562.98 1266.02 1556.3 L1266.02 1536.95 L1261.72 1536.95 L1261.72 1532.4 L1266.02 1532.4 L1266.02 1522.27 L1271.91 1522.27 Z" fill="#000000" fill-rule="nonzero" fill-opacity="1" /><polyline clip-path="url(#clip152)" style="stroke:#000000; stroke-linecap:round; stroke-linejoin:round; stroke-width:2; stroke-opacity:0.1; fill:none" points="192.941,1237.14 2352.76,1237.14 "/>
<polyline clip-path="url(#clip152)" style="stroke:#000000; stroke-linecap:round; stroke-linejoin:round; stroke-width:2; stroke-opacity:0.1; fill:none" points="192.941,1017.85 2352.76,1017.85 "/>
<polyline clip-path="url(#clip152)" style="stroke:#000000; stroke-linecap:round; stroke-linejoin:round; stroke-width:2; stroke-opacity:0.1; fill:none" points="192.941,798.559 2352.76,798.559 "/>
<polyline clip-path="url(#clip152)" style="stroke:#000000; stroke-linecap:round; stroke-linejoin:round; stroke-width:2; stroke-opacity:0.1; fill:none" points="192.941,579.268 2352.76,579.268 "/>
<polyline clip-path="url(#clip152)" style="stroke:#000000; stroke-linecap:round; stroke-linejoin:round; stroke-width:2; stroke-opacity:0.1; fill:none" points="192.941,359.978 2352.76,359.978 "/>
<polyline clip-path="url(#clip152)" style="stroke:#000000; stroke-linecap:round; stroke-linejoin:round; stroke-width:2; stroke-opacity:0.1; fill:none" points="192.941,140.688 2352.76,140.688 "/>
<polyline clip-path="url(#clip150)" style="stroke:#000000; stroke-linecap:round; stroke-linejoin:round; stroke-width:4; stroke-opacity:1; fill:none" points="192.941,1423.18 192.941,47.2441 "/>
<polyline clip-path="url(#clip150)" style="stroke:#000000; stroke-linecap:round; stroke-linejoin:round; stroke-width:4; stroke-opacity:1; fill:none" points="192.941,1237.14 211.838,1237.14 "/>
<polyline clip-path="url(#clip150)" style="stroke:#000000; stroke-linecap:round; stroke-linejoin:round; stroke-width:4; stroke-opacity:1; fill:none" points="192.941,1017.85 211.838,1017.85 "/>
<polyline clip-path="url(#clip150)" style="stroke:#000000; stroke-linecap:round; stroke-linejoin:round; stroke-width:4; stroke-opacity:1; fill:none" points="192.941,798.559 211.838,798.559 "/>
<polyline clip-path="url(#clip150)" style="stroke:#000000; stroke-linecap:round; stroke-linejoin:round; stroke-width:4; stroke-opacity:1; fill:none" points="192.941,579.268 211.838,579.268 "/>
<polyline clip-path="url(#clip150)" style="stroke:#000000; stroke-linecap:round; stroke-linejoin:round; stroke-width:4; stroke-opacity:1; fill:none" points="192.941,359.978 211.838,359.978 "/>
<polyline clip-path="url(#clip150)" style="stroke:#000000; stroke-linecap:round; stroke-linejoin:round; stroke-width:4; stroke-opacity:1; fill:none" points="192.941,140.688 211.838,140.688 "/>
<path clip-path="url(#clip150)" d="M50.9921 1237.59 L80.6679 1237.59 L80.6679 1241.53 L50.9921 1241.53 L50.9921 1237.59 Z" fill="#000000" fill-rule="nonzero" fill-opacity="1" /><path clip-path="url(#clip150)" d="M100.76 1222.94 Q97.1493 1222.94 95.3206 1226.5 Q93.515 1230.04 93.515 1237.17 Q93.515 1244.28 95.3206 1247.85 Q97.1493 1251.39 100.76 1251.39 Q104.395 1251.39 106.2 1247.85 Q108.029 1244.28 108.029 1237.17 Q108.029 1230.04 106.2 1226.5 Q104.395 1222.94 100.76 1222.94 M100.76 1219.23 Q106.571 1219.23 109.626 1223.84 Q112.705 1228.42 112.705 1237.17 Q112.705 1245.9 109.626 1250.51 Q106.571 1255.09 100.76 1255.09 Q94.9502 1255.09 91.8715 1250.51 Q88.816 1245.9 88.816 1237.17 Q88.816 1228.42 91.8715 1223.84 Q94.9502 1219.23 100.76 1219.23 Z" fill="#000000" fill-rule="nonzero" fill-opacity="1" /><path clip-path="url(#clip150)" d="M120.922 1248.54 L125.807 1248.54 L125.807 1254.42 L120.922 1254.42 L120.922 1248.54 Z" fill="#000000" fill-rule="nonzero" fill-opacity="1" /><path clip-path="url(#clip150)" d="M136.038 1219.86 L154.394 1219.86 L154.394 1223.79 L140.32 1223.79 L140.32 1232.27 Q141.339 1231.92 142.357 1231.76 Q143.376 1231.57 144.394 1231.57 Q150.181 1231.57 153.561 1234.74 Q156.941 1237.91 156.941 1243.33 Q156.941 1248.91 153.468 1252.01 Q149.996 1255.09 143.677 1255.09 Q141.501 1255.09 139.232 1254.72 Q136.987 1254.35 134.58 1253.61 L134.58 1248.91 Q136.663 1250.04 138.885 1250.6 Q141.107 1251.16 143.584 1251.16 Q147.589 1251.16 149.927 1249.05 Q152.265 1246.94 152.265 1243.33 Q152.265 1239.72 149.927 1237.61 Q147.589 1235.51 143.584 1235.51 Q141.709 1235.51 139.834 1235.92 Q137.982 1236.34 136.038 1237.22 L136.038 1219.86 Z" fill="#000000" fill-rule="nonzero" fill-opacity="1" /><path clip-path="url(#clip150)" d="M99.765 1003.65 Q96.1539 1003.65 94.3252 1007.21 Q92.5197 1010.75 92.5197 1017.88 Q92.5197 1024.99 94.3252 1028.55 Q96.1539 1032.1 99.765 1032.1 Q103.399 1032.1 105.205 1028.55 Q107.033 1024.99 107.033 1017.88 Q107.033 1010.75 105.205 1007.21 Q103.399 1003.65 99.765 1003.65 M99.765 999.944 Q105.575 999.944 108.631 1004.55 Q111.709 1009.13 111.709 1017.88 Q111.709 1026.61 108.631 1031.22 Q105.575 1035.8 99.765 1035.8 Q93.9549 1035.8 90.8762 1031.22 Q87.8206 1026.61 87.8206 1017.88 Q87.8206 1009.13 90.8762 1004.55 Q93.9549 999.944 99.765 999.944 Z" fill="#000000" fill-rule="nonzero" fill-opacity="1" /><path clip-path="url(#clip150)" d="M119.927 1029.25 L124.811 1029.25 L124.811 1035.13 L119.927 1035.13 L119.927 1029.25 Z" fill="#000000" fill-rule="nonzero" fill-opacity="1" /><path clip-path="url(#clip150)" d="M144.996 1003.65 Q141.385 1003.65 139.556 1007.21 Q137.751 1010.75 137.751 1017.88 Q137.751 1024.99 139.556 1028.55 Q141.385 1032.1 144.996 1032.1 Q148.63 1032.1 150.436 1028.55 Q152.265 1024.99 152.265 1017.88 Q152.265 1010.75 150.436 1007.21 Q148.63 1003.65 144.996 1003.65 M144.996 999.944 Q150.806 999.944 153.862 1004.55 Q156.941 1009.13 156.941 1017.88 Q156.941 1026.61 153.862 1031.22 Q150.806 1035.8 144.996 1035.8 Q139.186 1035.8 136.107 1031.22 Q133.052 1026.61 133.052 1017.88 Q133.052 1009.13 136.107 1004.55 Q139.186 999.944 144.996 999.944 Z" fill="#000000" fill-rule="nonzero" fill-opacity="1" /><path clip-path="url(#clip150)" d="M100.76 784.357 Q97.1493 784.357 95.3206 787.922 Q93.515 791.464 93.515 798.593 Q93.515 805.7 95.3206 809.265 Q97.1493 812.806 100.76 812.806 Q104.395 812.806 106.2 809.265 Q108.029 805.7 108.029 798.593 Q108.029 791.464 106.2 787.922 Q104.395 784.357 100.76 784.357 M100.76 780.654 Q106.571 780.654 109.626 785.26 Q112.705 789.843 112.705 798.593 Q112.705 807.32 109.626 811.927 Q106.571 816.51 100.76 816.51 Q94.9502 816.51 91.8715 811.927 Q88.816 807.32 88.816 798.593 Q88.816 789.843 91.8715 785.26 Q94.9502 780.654 100.76 780.654 Z" fill="#000000" fill-rule="nonzero" fill-opacity="1" /><path clip-path="url(#clip150)" d="M120.922 809.959 L125.807 809.959 L125.807 815.839 L120.922 815.839 L120.922 809.959 Z" fill="#000000" fill-rule="nonzero" fill-opacity="1" /><path clip-path="url(#clip150)" d="M136.038 781.279 L154.394 781.279 L154.394 785.214 L140.32 785.214 L140.32 793.686 Q141.339 793.339 142.357 793.177 Q143.376 792.992 144.394 792.992 Q150.181 792.992 153.561 796.163 Q156.941 799.334 156.941 804.751 Q156.941 810.329 153.468 813.431 Q149.996 816.51 143.677 816.51 Q141.501 816.51 139.232 816.14 Q136.987 815.769 134.58 815.029 L134.58 810.329 Q136.663 811.464 138.885 812.019 Q141.107 812.575 143.584 812.575 Q147.589 812.575 149.927 810.468 Q152.265 808.362 152.265 804.751 Q152.265 801.14 149.927 799.033 Q147.589 796.927 143.584 796.927 Q141.709 796.927 139.834 797.343 Q137.982 797.76 136.038 798.64 L136.038 781.279 Z" fill="#000000" fill-rule="nonzero" fill-opacity="1" /><path clip-path="url(#clip150)" d="M90.5752 592.613 L98.2141 592.613 L98.2141 566.248 L89.904 567.914 L89.904 563.655 L98.1678 561.988 L102.844 561.988 L102.844 592.613 L110.483 592.613 L110.483 596.548 L90.5752 596.548 L90.5752 592.613 Z" fill="#000000" fill-rule="nonzero" fill-opacity="1" /><path clip-path="url(#clip150)" d="M119.927 590.669 L124.811 590.669 L124.811 596.548 L119.927 596.548 L119.927 590.669 Z" fill="#000000" fill-rule="nonzero" fill-opacity="1" /><path clip-path="url(#clip150)" d="M144.996 565.067 Q141.385 565.067 139.556 568.632 Q137.751 572.174 137.751 579.303 Q137.751 586.41 139.556 589.974 Q141.385 593.516 144.996 593.516 Q148.63 593.516 150.436 589.974 Q152.265 586.41 152.265 579.303 Q152.265 572.174 150.436 568.632 Q148.63 565.067 144.996 565.067 M144.996 561.363 Q150.806 561.363 153.862 565.97 Q156.941 570.553 156.941 579.303 Q156.941 588.03 153.862 592.636 Q150.806 597.22 144.996 597.22 Q139.186 597.22 136.107 592.636 Q133.052 588.03 133.052 579.303 Q133.052 570.553 136.107 565.97 Q139.186 561.363 144.996 561.363 Z" fill="#000000" fill-rule="nonzero" fill-opacity="1" /><path clip-path="url(#clip150)" d="M91.5706 373.323 L99.2095 373.323 L99.2095 346.957 L90.8993 348.624 L90.8993 344.365 L99.1632 342.698 L103.839 342.698 L103.839 373.323 L111.478 373.323 L111.478 377.258 L91.5706 377.258 L91.5706 373.323 Z" fill="#000000" fill-rule="nonzero" fill-opacity="1" /><path clip-path="url(#clip150)" d="M120.922 371.378 L125.807 371.378 L125.807 377.258 L120.922 377.258 L120.922 371.378 Z" fill="#000000" fill-rule="nonzero" fill-opacity="1" /><path clip-path="url(#clip150)" d="M136.038 342.698 L154.394 342.698 L154.394 346.633 L140.32 346.633 L140.32 355.105 Q141.339 354.758 142.357 354.596 Q143.376 354.411 144.394 354.411 Q150.181 354.411 153.561 357.582 Q156.941 360.754 156.941 366.17 Q156.941 371.749 153.468 374.851 Q149.996 377.929 143.677 377.929 Q141.501 377.929 139.232 377.559 Q136.987 377.189 134.58 376.448 L134.58 371.749 Q136.663 372.883 138.885 373.439 Q141.107 373.994 143.584 373.994 Q147.589 373.994 149.927 371.888 Q152.265 369.781 152.265 366.17 Q152.265 362.559 149.927 360.453 Q147.589 358.346 143.584 358.346 Q141.709 358.346 139.834 358.763 Q137.982 359.179 136.038 360.059 L136.038 342.698 Z" fill="#000000" fill-rule="nonzero" fill-opacity="1" /><path clip-path="url(#clip150)" d="M93.7928 154.033 L110.112 154.033 L110.112 157.968 L88.1679 157.968 L88.1679 154.033 Q90.8299 151.278 95.4132 146.648 Q100.02 141.996 101.2 140.653 Q103.446 138.13 104.325 136.394 Q105.228 134.635 105.228 132.945 Q105.228 130.19 103.284 128.454 Q101.362 126.718 98.2604 126.718 Q96.0613 126.718 93.6076 127.482 Q91.1771 128.246 88.3993 129.797 L88.3993 125.074 Q91.2234 123.94 93.6771 123.361 Q96.1308 122.783 98.1678 122.783 Q103.538 122.783 106.733 125.468 Q109.927 128.153 109.927 132.644 Q109.927 134.773 109.117 136.695 Q108.33 138.593 106.223 141.185 Q105.645 141.857 102.543 145.074 Q99.4409 148.269 93.7928 154.033 Z" fill="#000000" fill-rule="nonzero" fill-opacity="1" /><path clip-path="url(#clip150)" d="M119.927 152.088 L124.811 152.088 L124.811 157.968 L119.927 157.968 L119.927 152.088 Z" fill="#000000" fill-rule="nonzero" fill-opacity="1" /><path clip-path="url(#clip150)" d="M144.996 126.486 Q141.385 126.486 139.556 130.051 Q137.751 133.593 137.751 140.723 Q137.751 147.829 139.556 151.394 Q141.385 154.935 144.996 154.935 Q148.63 154.935 150.436 151.394 Q152.265 147.829 152.265 140.723 Q152.265 133.593 150.436 130.051 Q148.63 126.486 144.996 126.486 M144.996 122.783 Q150.806 122.783 153.862 127.389 Q156.941 131.973 156.941 140.723 Q156.941 149.449 153.862 154.056 Q150.806 158.639 144.996 158.639 Q139.186 158.639 136.107 154.056 Q133.052 149.449 133.052 140.723 Q133.052 131.973 136.107 127.389 Q139.186 122.783 144.996 122.783 Z" fill="#000000" fill-rule="nonzero" fill-opacity="1" /><polyline clip-path="url(#clip152)" style="stroke:#009af9; stroke-linecap:round; stroke-linejoin:round; stroke-width:4; stroke-opacity:1; fill:none" points="192.941,1017.85 195.103,1022.6 197.265,1027.29 199.427,1031.92 201.589,1036.49 203.751,1041 205.912,1045.44 208.074,1049.83 210.236,1054.16 212.398,1058.43 214.56,1062.65 216.722,1066.81 218.884,1070.91 221.046,1074.96 223.208,1078.96 225.37,1082.9 227.532,1086.79 229.694,1090.63 231.856,1094.42 234.018,1098.16 236.18,1101.85 238.342,1105.49 240.504,1109.08 242.666,1112.63 244.828,1116.12 246.99,1119.57 249.152,1122.98 251.314,1126.34 253.476,1129.65 255.638,1132.93 257.8,1136.15 259.962,1139.34 262.124,1142.48 264.286,1145.58 266.448,1148.64 268.61,1151.66 270.772,1154.64 272.934,1157.58 275.096,1160.48 277.258,1163.35 279.42,1166.17 281.582,1168.96 283.744,1171.71 285.906,1174.42 288.068,1177.1 290.23,1179.74 292.392,1182.35 294.554,1184.92 296.716,1187.46 298.878,1189.97 301.039,1192.44 303.201,1194.88 305.363,1197.28 307.525,1199.66 309.687,1202 311.849,1204.31 314.011,1206.6 316.173,1208.85 318.335,1211.07 320.497,1213.26 322.659,1215.42 324.821,1217.56 326.983,1219.66 329.145,1221.74 331.307,1223.79 333.469,1225.82 335.631,1227.81 337.793,1229.78 339.955,1231.73 342.117,1233.64 344.279,1235.54 346.441,1237.4 348.603,1239.25 350.765,1241.07 352.927,1242.86 355.089,1244.63 357.251,1246.38 359.413,1248.1 361.575,1249.8 363.737,1251.48 365.899,1253.14 368.061,1254.77 370.223,1256.38 372.385,1257.98 374.547,1259.55 376.709,1261.09 378.871,1262.67 381.033,1264.33 383.195,1266.06 385.357,1267.82 387.519,1269.58 389.681,1271.32 391.843,1273.02 394.005,1274.65 396.166,1276.2 398.328,1277.65 400.49,1278.98 402.652,1280.18 404.814,1281.24 406.976,1282.16 409.138,1282.93 411.3,1283.54 413.462,1284.01 415.624,1284.32 417.786,1284.48 419.948,1284.5 422.11,1284.38 424.272,1284.15 426.434,1283.8 428.596,1283.36 430.758,1282.85 432.92,1282.28 435.082,1281.68 437.244,1281.06 439.406,1280.47 441.568,1279.92 443.73,1279.45 445.892,1279.01 448.054,1278.58 450.216,1278.15 452.378,1277.73 454.54,1277.32 456.702,1276.91 458.864,1276.51 461.026,1276.11 463.188,1275.72 465.35,1275.33 467.512,1274.95 469.674,1274.57 471.836,1274.2 473.998,1273.83 476.16,1273.47 478.322,1273.12 480.484,1272.76 482.646,1272.41 484.808,1272.07 486.97,1271.73 489.132,1271.4 491.293,1271.07 493.455,1270.74 495.617,1270.42 497.779,1270.1 499.941,1269.79 502.103,1269.48 504.265,1269.18 506.427,1268.88 508.589,1268.58 510.751,1268.29 512.913,1268 515.075,1267.71 517.237,1267.43 519.399,1267.15 521.561,1266.88 523.723,1266.61 525.885,1266.34 528.047,1266.08 530.209,1265.82 532.371,1265.56 534.533,1265.31 536.695,1265.06 538.857,1264.82 541.019,1264.57 543.181,1264.33 545.343,1264.1 547.505,1263.87 549.667,1263.64 551.829,1263.41 553.991,1263.18 556.153,1262.96 558.315,1262.75 560.477,1262.53 562.639,1262.32 564.801,1262.11 566.963,1261.9 569.125,1261.7 571.287,1261.5 573.449,1261.3 575.611,1261.1 577.773,1260.91 579.935,1260.72 582.097,1260.53 584.259,1260.35 586.42,1260.16 588.582,1259.98 590.744,1259.81 592.906,1259.63 595.068,1259.46 597.23,1259.28 599.392,1259.12 601.554,1258.95 603.716,1258.78 605.878,1258.62 608.04,1258.46 610.202,1258.3 612.364,1258.15 614.526,1257.99 616.688,1257.84 618.85,1257.69 621.012,1256.27 623.174,1251.98 625.336,1245.2 627.498,1236.29 629.66,1225.59 631.822,1213.44 633.984,1200.11 636.146,1185.89 638.308,1171.03 640.47,1155.74 642.632,1140.23 644.794,1124.67 646.956,1109.21 649.118,1093.99 651.28,1079.09 653.442,1064.61 655.604,1050.6 657.766,1037.08 659.928,1024.07 662.09,1011.55 664.252,999.465 666.414,987.763 668.576,976.35 670.738,965.11 672.9,953.907 675.062,942.579 677.224,931.224 679.386,920.021 681.547,908.966 683.709,898.057 685.871,887.293 688.033,876.672 690.195,866.192 692.357,855.851 694.519,845.646 696.681,835.577 698.843,825.642 701.005,815.838 703.167,806.165 705.329,796.619 707.491,787.2 709.653,777.906 711.815,768.736 713.977,759.686 716.139,750.757 718.301,741.946 720.463,733.252 722.625,724.673 724.787,716.208 726.949,707.855 729.111,699.613 731.273,691.479 733.435,683.453 735.597,675.534 737.759,667.72 739.921,660.009 742.083,652.401 744.245,644.893 746.407,637.485 748.569,630.175 750.731,622.963 752.893,615.846 755.055,608.823 757.217,601.894 759.379,595.056 761.541,588.31 763.703,581.653 765.865,575.084 768.027,568.602 770.189,562.207 772.351,555.896 774.513,549.669 776.674,543.525 778.836,537.462 780.998,531.48 783.16,525.577 785.322,519.752 787.484,514.004 789.646,508.333 791.808,502.736 793.97,497.214 796.132,491.765 798.294,486.388 800.456,481.083 802.618,475.848 804.78,470.682 806.942,465.584 809.104,460.502 811.266,455.33 813.428,450.099 815.59,444.841 817.752,439.589 819.914,434.37 822.076,429.214 824.238,424.144 826.4,419.184 828.562,414.355 830.724,409.677 832.886,405.167 835.048,400.84 837.21,396.71 839.372,392.786 841.534,389.08 843.696,385.597 845.858,382.343 848.02,379.322 850.182,376.533 852.344,373.977 854.506,371.651 856.668,369.549 858.83,367.665 860.992,365.99 863.154,364.512 865.316,363.219 867.478,362.097 869.64,361.127 871.801,360.291 873.963,359.569 876.125,358.936 878.287,358.368 880.449,357.838 882.611,357.317 884.773,356.774 886.935,356.176 889.097,355.487 891.259,354.75 893.421,354.022 895.583,353.304 897.745,352.596 899.907,351.897 902.069,351.207 904.231,350.526 906.393,349.855 908.555,349.192 910.717,348.538 912.879,347.893 915.041,347.256 917.203,346.628 919.365,346.008 921.527,345.396 923.689,344.793 925.851,344.197 928.013,343.609 930.175,343.03 932.337,342.457 934.499,341.893 936.661,341.336 938.823,340.786 940.985,340.243 943.147,339.708 945.309,339.18 947.471,338.659 949.633,338.144 951.795,337.637 953.957,337.136 956.119,336.642 958.281,336.154 960.443,335.673 962.605,335.199 964.767,334.73 966.928,334.268 969.09,333.812 971.252,333.362 973.414,332.918 975.576,332.48 977.738,332.047 979.9,331.621 982.062,331.2 984.224,330.784 986.386,330.375 988.548,329.97 990.71,329.571 992.872,329.177 995.034,328.789 997.196,328.405 999.358,328.027 1001.52,327.654 1003.68,327.285 1005.84,326.922 1008.01,326.563 1010.17,326.209 1012.33,325.86 1014.49,325.515 1016.65,325.175 1018.82,324.84 1020.98,324.509 1023.14,324.182 1025.3,323.86 1027.46,323.542 1029.63,323.228 1031.79,322.918 1033.95,322.612 1036.11,322.311 1038.27,322.013 1040.44,321.72 1042.6,321.43 1044.76,321.144 1046.92,320.862 1049.08,320.584 1051.25,320.309 1053.41,320.038 1055.57,320.843 1057.73,323.821 1059.89,328.739 1062.06,335.369 1064.22,343.498 1066.38,352.922 1068.54,363.449 1070.7,374.901 1072.87,387.107 1075.03,399.912 1077.19,413.168 1079.35,426.743 1081.51,440.514 1083.68,454.369 1085.84,468.208 1088,481.944 1090.16,495.5 1092.32,508.81 1094.49,521.821 1096.65,534.491 1098.81,546.788 1100.97,558.693 1103.13,570.198 1105.3,581.308 1107.46,592.037 1109.62,602.412 1111.78,612.471 1113.94,622.263 1116.1,631.85 1118.27,641.304 1120.43,650.709 1122.59,660.16 1124.75,669.721 1126.91,679.194 1129.08,688.541 1131.24,697.765 1133.4,706.866 1135.56,715.847 1137.72,724.708 1139.89,733.452 1142.05,742.08 1144.21,750.594 1146.37,758.995 1148.53,767.284 1150.7,775.464 1152.86,783.535 1155.02,791.499 1157.18,799.358 1159.34,807.113 1161.51,814.765 1163.67,822.316 1165.83,829.766 1167.99,837.118 1170.15,844.373 1172.32,851.531 1174.48,858.595 1176.64,865.565 1178.8,872.442 1180.96,879.228 1183.13,885.924 1185.29,892.531 1187.45,899.051 1189.61,905.484 1191.77,911.831 1193.94,918.094 1196.1,924.275 1198.26,930.373 1200.42,936.39 1202.58,942.327 1204.75,948.185 1206.91,953.966 1209.07,959.67 1211.23,965.298 1213.39,970.852 1215.56,976.332 1217.72,981.739 1219.88,987.075 1222.04,992.34 1224.2,997.535 1226.37,1002.66 1228.53,1007.72 1230.69,1012.71 1232.85,1017.64 1235.01,1022.5 1237.18,1027.29 1239.34,1032.02 1241.5,1036.69 1243.66,1041.3 1245.82,1045.86 1247.99,1050.38 1250.15,1054.85 1252.31,1059.26 1254.47,1063.62 1256.63,1067.91 1258.8,1072.15 1260.96,1076.31 1263.12,1080.4 1265.28,1084.43 1267.44,1088.38 1269.61,1092.26 1271.77,1096.07 1273.93,1099.8 1276.09,1103.46 1278.25,1107.05 1280.42,1110.56 1282.58,1114.01 1284.74,1117.39 1286.9,1120.71 1289.06,1123.97 1291.23,1127.17 1293.39,1130.31 1295.55,1133.41 1297.71,1136.46 1299.87,1139.48 1302.03,1142.46 1304.2,1145.41 1306.36,1148.32 1308.52,1151.2 1310.68,1154.04 1312.84,1156.84 1315.01,1159.6 1317.17,1162.33 1319.33,1165.02 1321.49,1167.68 1323.65,1170.3 1325.82,1172.88 1327.98,1175.43 1330.14,1177.95 1332.3,1180.43 1334.46,1182.88 1336.63,1185.3 1338.79,1187.69 1340.95,1190.04 1343.11,1192.37 1345.27,1194.66 1347.44,1196.92 1349.6,1199.15 1351.76,1201.36 1353.92,1203.53 1356.08,1205.67 1358.25,1207.79 1360.41,1209.88 1362.57,1211.94 1364.73,1213.97 1366.89,1215.98 1369.06,1217.96 1371.22,1219.91 1373.38,1221.84 1375.54,1223.74 1377.7,1225.62 1379.87,1227.47 1382.03,1229.3 1384.19,1231.1 1386.35,1232.88 1388.51,1234.64 1390.68,1236.37 1392.84,1238.08 1395,1239.77 1397.16,1241.43 1399.32,1243.07 1401.49,1244.69 1403.65,1246.29 1405.81,1247.87 1407.97,1249.43 1410.13,1250.96 1412.3,1252.48 1414.46,1253.97 1416.62,1255.45 1418.78,1256.9 1420.94,1258.34 1423.11,1259.76 1425.27,1261.16 1427.43,1262.54 1429.59,1263.9 1431.75,1265.24 1433.92,1266.57 1436.08,1267.88 1438.24,1269.17 1440.4,1270.44 1442.56,1271.7 1444.73,1272.94 1446.89,1274.16 1449.05,1275.37 1451.21,1276.56 1453.37,1277.74 1455.54,1278.9 1457.7,1280.06 1459.86,1281.27 1462.02,1282.52 1464.18,1283.8 1466.35,1285.1 1468.51,1286.41 1470.67,1287.72 1472.83,1289 1474.99,1290.27 1477.16,1291.49 1479.32,1292.68 1481.48,1293.81 1483.64,1294.88 1485.8,1295.89 1487.97,1296.83 1490.13,1297.69 1492.29,1298.47 1494.45,1299.17 1496.61,1299.78 1498.77,1300.31 1500.94,1300.74 1503.1,1301.09 1505.26,1301.35 1507.42,1301.51 1509.58,1301.59 1511.75,1301.59 1513.91,1301.5 1516.07,1301.33 1518.23,1301.09 1520.39,1300.79 1522.56,1300.42 1524.72,1299.99 1526.88,1299.51 1529.04,1299 1531.2,1298.45 1533.37,1297.88 1535.53,1297.3 1537.69,1296.72 1539.85,1296.15 1542.01,1295.6 1544.18,1295.08 1546.34,1294.62 1548.5,1294.2 1550.66,1293.78 1552.82,1293.36 1554.99,1292.96 1557.15,1292.55 1559.31,1292.16 1561.47,1291.76 1563.63,1291.38 1565.8,1290.99 1567.96,1290.62 1570.12,1290.24 1572.28,1289.88 1574.44,1289.52 1576.61,1289.16 1578.77,1288.81 1580.93,1288.46 1583.09,1288.11 1585.25,1287.78 1587.42,1287.44 1589.58,1287.11 1591.74,1286.79 1593.9,1286.47 1596.06,1286.15 1598.23,1285.84 1600.39,1285.53 1602.55,1285.22 1604.71,1284.92 1606.87,1284.63 1609.04,1284.33 1611.2,1284.07 1613.36,1283.85 1615.52,1283.67 1617.68,1283.52 1619.85,1283.39 1622.01,1283.29 1624.17,1283.2 1626.33,1283.12 1628.49,1283.06 1630.66,1282.99 1632.82,1282.93 1634.98,1282.86 1637.14,1282.78 1639.3,1282.69 1641.47,1282.59 1643.63,1282.47 1645.79,1282.33 1647.95,1282.16 1650.11,1281.97 1652.28,1281.75 1654.44,1281.51 1656.6,1281.23 1658.76,1280.92 1660.92,1280.57 1663.09,1280.19 1665.25,1279.77 1667.41,1279.31 1669.57,1278.82 1671.73,1278.28 1673.9,1277.71 1676.06,1277.09 1678.22,1276.44 1680.38,1275.75 1682.54,1275.02 1684.7,1274.25 1686.87,1273.44 1689.03,1272.6 1691.19,1271.73 1693.35,1270.82 1695.51,1269.88 1697.68,1268.9 1699.84,1267.9 1702,1266.88 1704.16,1265.83 1706.32,1264.76 1708.49,1263.68 1710.65,1262.58 1712.81,1261.46 1714.97,1260.34 1717.13,1259.22 1719.3,1258.09 1721.46,1256.97 1723.62,1255.85 1725.78,1254.74 1727.94,1253.66 1730.11,1252.59 1732.27,1251.55 1734.43,1250.54 1736.59,1249.56 1738.75,1248.63 1740.92,1247.72 1743.08,1246.83 1745.24,1245.95 1747.4,1245.08 1749.56,1244.22 1751.73,1243.38 1753.89,1242.54 1756.05,1241.72 1758.21,1240.91 1760.37,1240.1 1762.54,1239.31 1764.7,1238.53 1766.86,1237.76 1769.02,1237 1771.18,1236.25 1773.35,1235.51 1775.51,1234.78 1777.67,1234.06 1779.83,1233.35 1781.99,1232.65 1784.16,1231.95 1786.32,1231.27 1788.48,1230.6 1790.64,1229.93 1792.8,1229.28 1794.97,1228.63 1797.13,1227.99 1799.29,1227.36 1801.45,1226.74 1803.61,1226.12 1805.78,1225.52 1807.94,1224.92 1810.1,1224.33 1812.26,1223.75 1814.42,1223.17 1816.59,1222.6 1818.75,1222.04 1820.91,1221.49 1823.07,1220.95 1825.23,1220.41 1827.4,1219.88 1829.56,1219.36 1831.72,1218.84 1833.88,1218.33 1836.04,1217.83 1838.21,1217.33 1840.37,1216.84 1842.53,1216.36 1844.69,1215.88 1846.85,1215.41 1849.02,1214.95 1851.18,1214.49 1853.34,1214.04 1855.5,1213.59 1857.66,1213.15 1859.83,1212.72 1861.99,1212.29 1864.15,1211.87 1866.31,1211.45 1868.47,1211.04 1870.63,1210.63 1872.8,1210.23 1874.96,1209.84 1877.12,1209.45 1879.28,1209.06 1881.44,1208.68 1883.61,1208.31 1885.77,1207.94 1887.93,1207.57 1890.09,1207.21 1892.25,1206.86 1894.42,1206.51 1896.58,1206.16 1898.74,1205.82 1900.9,1205.48 1903.06,1205.15 1905.23,1204.82 1907.39,1204.5 1909.55,1204.18 1911.71,1203.87 1913.87,1203.56 1916.04,1203.25 1918.2,1202.95 1920.36,1202.65 1922.52,1201.96 1924.68,1200.39 1926.85,1198.05 1929.01,1195.04 1931.17,1191.44 1933.33,1187.35 1935.49,1182.85 1937.66,1178.02 1939.82,1172.92 1941.98,1167.63 1944.14,1162.2 1946.3,1156.7 1948.47,1151.16 1950.63,1145.63 1952.79,1140.16 1954.95,1134.77 1957.11,1129.49 1959.28,1124.34 1961.44,1119.34 1963.6,1114.5 1965.76,1109.82 1967.92,1105.3 1970.09,1100.93 1972.25,1096.7 1974.41,1092.6 1976.57,1088.6 1978.73,1084.68 1980.9,1080.78 1983.06,1076.89 1985.22,1072.95 1987.38,1069.03 1989.54,1065.17 1991.71,1061.35 1993.87,1057.59 1996.03,1053.87 1998.19,1050.21 2000.35,1046.59 2002.52,1043.02 2004.68,1039.5 2006.84,1036.03 2009,1032.6 2011.16,1029.22 2013.33,1025.88 2015.49,1022.58 2017.65,1019.33 2019.81,1016.13 2021.97,1012.96 2024.14,1009.84 2026.3,1006.76 2028.46,1003.72 2030.62,1000.72 2032.78,997.756 2034.95,994.835 2037.11,991.953 2039.27,989.108 2041.43,986.302 2043.59,983.533 2045.76,980.8 2047.92,978.104 2050.08,975.443 2052.24,972.818 2054.4,970.227 2056.57,967.671 2058.73,965.149 2060.89,962.661 2063.05,960.205 2065.21,957.782 2067.37,955.391 2069.54,953.031 2071.7,950.703 2073.86,948.406 2076.02,946.14 2078.18,943.903 2080.35,941.696 2082.51,939.518 2084.67,937.369 2086.83,935.249 2088.99,933.156 2091.16,931.092 2093.32,929.054 2095.48,927.044 2097.64,925.06 2099.8,923.103 2101.97,921.172 2104.13,919.266 2106.29,917.385 2108.45,915.53 2110.61,913.699 2112.78,911.892 2114.94,910.11 2117.1,908.35 2119.26,906.615 2121.42,904.902 2123.59,903.212 2125.75,901.544 2127.91,899.899 2130.07,898.275 2132.23,896.673 2134.4,894.517 2136.56,891.231 2138.72,886.944 2140.88,881.78 2143.04,875.855 2145.21,869.28 2147.37,862.157 2149.53,854.585 2151.69,846.654 2153.85,838.447 2156.02,830.044 2158.18,821.514 2160.34,812.922 2162.5,804.327 2164.66,795.781 2166.83,787.327 2168.99,779.005 2171.15,770.847 2173.31,762.878 2175.47,755.118 2177.64,747.579 2179.8,740.266 2181.96,733.181 2184.12,726.314 2186.28,719.654 2188.45,713.179 2190.61,706.864 2192.77,700.675 2194.93,694.572 2197.09,688.511 2199.26,682.438 2201.42,676.324 2203.58,670.276 2205.74,664.307 2207.9,658.418 2210.07,652.607 2212.23,646.873 2214.39,641.215 2216.55,635.632 2218.71,630.123 2220.88,624.688 2223.04,619.324 2225.2,614.031 2227.36,608.809 2229.52,603.655 2231.69,598.57 2233.85,593.553 2236.01,588.602 2238.17,583.716 2240.33,578.895 2242.5,574.138 2244.66,569.444 2246.82,564.812 2248.98,560.241 2251.14,555.731 2253.3,551.28 2255.47,546.888 2257.63,542.555 2259.79,538.279 2261.95,534.06 2264.11,529.897 2266.28,525.789 2268.44,521.736 2270.6,517.736 2272.76,513.79 2274.92,509.896 2277.09,506.054 2279.25,502.263 2281.41,498.522 2283.57,494.831 2285.73,491.189 2287.9,487.595 2290.06,484.049 2292.22,480.55 2294.38,477.098 2296.54,473.692 2298.71,470.33 2300.87,467.014 2303.03,463.741 2305.19,460.512 2307.35,457.325 2309.52,454.181 2311.68,451.079 2313.84,448.018 2316,444.997 2318.16,442.016 2320.33,439.075 2322.49,436.172 2324.65,433.309 2326.81,430.483 2328.97,427.694 2331.14,424.942 2333.3,422.227 2335.46,419.547 2337.62,416.903 2339.78,414.294 2341.95,411.72 2344.11,409.18 2346.27,406.673 2348.43,404.2 2350.59,401.759 2352.76,399.351 "/>
<polyline clip-path="url(#clip152)" style="stroke:#e26f46; stroke-linecap:round; stroke-linejoin:round; stroke-width:4; stroke-opacity:1; fill:none" points="192.941,1376.4 195.103,1376.4 197.265,1376.4 199.427,1376.4 201.589,1376.4 203.751,1376.4 205.912,1376.4 208.074,1376.4 210.236,1376.4 212.398,1376.4 214.56,1376.4 216.722,1376.4 218.884,1376.4 221.046,1376.4 223.208,1376.4 225.37,1376.4 227.532,1376.4 229.694,1376.4 231.856,1376.4 234.018,1376.4 236.18,1376.4 238.342,1376.4 240.504,1376.4 242.666,1376.4 244.828,1376.4 246.99,1376.4 249.152,1376.4 251.314,1376.4 253.476,1376.4 255.638,1376.4 257.8,1376.4 259.962,1376.4 262.124,1376.4 264.286,1376.4 266.448,1376.4 268.61,1376.4 270.772,1376.4 272.934,1376.4 275.096,1376.4 277.258,1376.4 279.42,1376.4 281.582,1376.4 283.744,1376.4 285.906,1376.4 288.068,1376.4 290.23,1376.4 292.392,1376.4 294.554,1376.4 296.716,1376.4 298.878,1376.4 301.039,1376.4 303.201,1376.4 305.363,1376.4 307.525,1376.4 309.687,1376.4 311.849,1376.4 314.011,1376.4 316.173,1376.4 318.335,1376.4 320.497,1376.4 322.659,1376.4 324.821,1376.4 326.983,1376.4 329.145,1376.4 331.307,1376.4 333.469,1376.4 335.631,1376.4 337.793,1376.4 339.955,1376.4 342.117,1376.4 344.279,1376.4 346.441,1376.4 348.603,1376.4 350.765,1376.4 352.927,1376.4 355.089,1376.4 357.251,1376.4 359.413,1376.4 361.575,1376.4 363.737,1376.4 365.899,1376.4 368.061,1376.4 370.223,1376.4 372.385,1376.4 374.547,1376.4 376.709,1376.4 378.871,1376.4 381.033,1376.4 383.195,1376.4 385.357,1376.4 387.519,1376.4 389.681,1376.4 391.843,1376.4 394.005,1376.4 396.166,1376.4 398.328,1376.4 400.49,1376.4 402.652,1376.4 404.814,1376.4 406.976,1376.4 409.138,1246.52 411.3,1246.52 413.462,1246.52 415.624,1246.52 417.786,1246.52 419.948,1246.52 422.11,1246.52 424.272,1246.52 426.434,1246.52 428.596,1246.52 430.758,1246.52 432.92,1246.52 435.082,1246.52 437.244,1246.52 439.406,1246.52 441.568,1246.52 443.73,1246.52 445.892,1246.52 448.054,1246.52 450.216,1246.52 452.378,1246.52 454.54,1246.52 456.702,1246.52 458.864,1246.52 461.026,1246.52 463.188,1246.52 465.35,1246.52 467.512,1246.52 469.674,1246.52 471.836,1246.52 473.998,1246.52 476.16,1246.52 478.322,1246.52 480.484,1246.52 482.646,1246.52 484.808,1246.52 486.97,1246.52 489.132,1246.52 491.293,1246.52 493.455,1246.52 495.617,1246.52 497.779,1246.52 499.941,1246.52 502.103,1246.52 504.265,1246.52 506.427,1246.52 508.589,1246.52 510.751,1246.52 512.913,1246.52 515.075,1246.52 517.237,1246.52 519.399,1246.52 521.561,1246.52 523.723,1246.52 525.885,1246.52 528.047,1246.52 530.209,1246.52 532.371,1246.52 534.533,1246.52 536.695,1246.52 538.857,1246.52 541.019,1246.52 543.181,1246.52 545.343,1246.52 547.505,1246.52 549.667,1246.52 551.829,1246.52 553.991,1246.52 556.153,1246.52 558.315,1246.52 560.477,1246.52 562.639,1246.52 564.801,1246.52 566.963,1246.52 569.125,1246.52 571.287,1246.52 573.449,1246.52 575.611,1246.52 577.773,1246.52 579.935,1246.52 582.097,1246.52 584.259,1246.52 586.42,1246.52 588.582,1246.52 590.744,1246.52 592.906,1246.52 595.068,1246.52 597.23,1246.52 599.392,1246.52 601.554,1246.52 603.716,1246.52 605.878,1246.52 608.04,1246.52 610.202,1246.52 612.364,1246.52 614.526,1246.52 616.688,1246.52 618.85,1246.52 621.012,1246.52 623.174,1246.52 625.336,86.1857 627.498,86.1857 629.66,86.1857 631.822,86.1857 633.984,86.1857 636.146,86.1857 638.308,86.1857 640.47,86.1857 642.632,86.1857 644.794,86.1857 646.956,86.1857 649.118,86.1857 651.28,86.1857 653.442,86.1857 655.604,86.1857 657.766,86.1857 659.928,86.1857 662.09,86.1857 664.252,86.1857 666.414,86.1857 668.576,86.1857 670.738,86.1857 672.9,86.1857 675.062,86.1857 677.224,86.1857 679.386,86.1857 681.547,86.1857 683.709,86.1857 685.871,86.1857 688.033,86.1857 690.195,86.1857 692.357,86.1857 694.519,86.1857 696.681,86.1857 698.843,86.1857 701.005,86.1857 703.167,86.1857 705.329,86.1857 707.491,86.1857 709.653,86.1857 711.815,86.1857 713.977,86.1857 716.139,86.1857 718.301,86.1857 720.463,86.1857 722.625,86.1857 724.787,86.1857 726.949,86.1857 729.111,86.1857 731.273,86.1857 733.435,86.1857 735.597,86.1857 737.759,86.1857 739.921,86.1857 742.083,86.1857 744.245,86.1857 746.407,86.1857 748.569,86.1857 750.731,86.1857 752.893,86.1857 755.055,86.1857 757.217,86.1857 759.379,86.1857 761.541,86.1857 763.703,86.1857 765.865,86.1857 768.027,86.1857 770.189,86.1857 772.351,86.1857 774.513,86.1857 776.674,86.1857 778.836,86.1857 780.998,86.1857 783.16,86.1857 785.322,86.1857 787.484,86.1857 789.646,86.1857 791.808,86.1857 793.97,86.1857 796.132,86.1857 798.294,86.1857 800.456,86.1857 802.618,86.1857 804.78,86.1857 806.942,86.1857 809.104,86.1857 811.266,86.1857 813.428,86.1857 815.59,86.1857 817.752,86.1857 819.914,86.1857 822.076,86.1857 824.238,86.1857 826.4,86.1857 828.562,86.1857 830.724,86.1857 832.886,86.1857 835.048,86.1857 837.21,86.1857 839.372,86.1857 841.534,299.869 843.696,299.869 845.858,299.869 848.02,299.869 850.182,299.869 852.344,299.869 854.506,299.869 856.668,299.869 858.83,299.869 860.992,299.869 863.154,299.869 865.316,299.869 867.478,299.869 869.64,299.869 871.801,299.869 873.963,299.869 876.125,299.869 878.287,299.869 880.449,299.869 882.611,299.869 884.773,299.869 886.935,299.869 889.097,299.869 891.259,299.869 893.421,299.869 895.583,299.869 897.745,299.869 899.907,299.869 902.069,299.869 904.231,299.869 906.393,299.869 908.555,299.869 910.717,299.869 912.879,299.869 915.041,299.869 917.203,299.869 919.365,299.869 921.527,299.869 923.689,299.869 925.851,299.869 928.013,299.869 930.175,299.869 932.337,299.869 934.499,299.869 936.661,299.869 938.823,299.869 940.985,299.869 943.147,299.869 945.309,299.869 947.471,299.869 949.633,299.869 951.795,299.869 953.957,299.869 956.119,299.869 958.281,299.869 960.443,299.869 962.605,299.869 964.767,299.869 966.928,299.869 969.09,299.869 971.252,299.869 973.414,299.869 975.576,299.869 977.738,299.869 979.9,299.869 982.062,299.869 984.224,299.869 986.386,299.869 988.548,299.869 990.71,299.869 992.872,299.869 995.034,299.869 997.196,299.869 999.358,299.869 1001.52,299.869 1003.68,299.869 1005.84,299.869 1008.01,299.869 1010.17,299.869 1012.33,299.869 1014.49,299.869 1016.65,299.869 1018.82,299.869 1020.98,299.869 1023.14,299.869 1025.3,299.869 1027.46,299.869 1029.63,299.869 1031.79,299.869 1033.95,299.869 1036.11,299.869 1038.27,299.869 1040.44,299.869 1042.6,299.869 1044.76,299.869 1046.92,299.869 1049.08,299.869 1051.25,299.869 1053.41,299.869 1055.57,299.869 1057.73,1384.24 1059.89,1384.24 1062.06,1384.24 1064.22,1384.24 1066.38,1384.24 1068.54,1384.24 1070.7,1384.24 1072.87,1384.24 1075.03,1384.24 1077.19,1384.24 1079.35,1384.24 1081.51,1384.24 1083.68,1384.24 1085.84,1384.24 1088,1384.24 1090.16,1384.24 1092.32,1384.24 1094.49,1384.24 1096.65,1384.24 1098.81,1384.24 1100.97,1384.24 1103.13,1384.24 1105.3,1384.24 1107.46,1384.24 1109.62,1384.24 1111.78,1384.24 1113.94,1384.24 1116.1,1384.24 1118.27,1384.24 1120.43,1384.24 1122.59,1384.24 1124.75,1384.24 1126.91,1384.24 1129.08,1384.24 1131.24,1384.24 1133.4,1384.24 1135.56,1384.24 1137.72,1384.24 1139.89,1384.24 1142.05,1384.24 1144.21,1384.24 1146.37,1384.24 1148.53,1384.24 1150.7,1384.24 1152.86,1384.24 1155.02,1384.24 1157.18,1384.24 1159.34,1384.24 1161.51,1384.24 1163.67,1384.24 1165.83,1384.24 1167.99,1384.24 1170.15,1384.24 1172.32,1384.24 1174.48,1384.24 1176.64,1384.24 1178.8,1384.24 1180.96,1384.24 1183.13,1384.24 1185.29,1384.24 1187.45,1384.24 1189.61,1384.24 1191.77,1384.24 1193.94,1384.24 1196.1,1384.24 1198.26,1384.24 1200.42,1384.24 1202.58,1384.24 1204.75,1384.24 1206.91,1384.24 1209.07,1384.24 1211.23,1384.24 1213.39,1384.24 1215.56,1384.24 1217.72,1384.24 1219.88,1384.24 1222.04,1384.24 1224.2,1384.24 1226.37,1384.24 1228.53,1384.24 1230.69,1384.24 1232.85,1384.24 1235.01,1384.24 1237.18,1384.24 1239.34,1384.24 1241.5,1384.24 1243.66,1384.24 1245.82,1384.24 1247.99,1384.24 1250.15,1384.24 1252.31,1384.24 1254.47,1384.24 1256.63,1384.24 1258.8,1384.24 1260.96,1384.24 1263.12,1384.24 1265.28,1384.24 1267.44,1384.24 1269.61,1384.24 1271.77,1384.24 1273.93,1365.29 1276.09,1365.29 1278.25,1365.29 1280.42,1365.29 1282.58,1365.29 1284.74,1365.29 1286.9,1365.29 1289.06,1365.29 1291.23,1365.29 1293.39,1365.29 1295.55,1365.29 1297.71,1365.29 1299.87,1365.29 1302.03,1365.29 1304.2,1365.29 1306.36,1365.29 1308.52,1365.29 1310.68,1365.29 1312.84,1365.29 1315.01,1365.29 1317.17,1365.29 1319.33,1365.29 1321.49,1365.29 1323.65,1365.29 1325.82,1365.29 1327.98,1365.29 1330.14,1365.29 1332.3,1365.29 1334.46,1365.29 1336.63,1365.29 1338.79,1365.29 1340.95,1365.29 1343.11,1365.29 1345.27,1365.29 1347.44,1365.29 1349.6,1365.29 1351.76,1365.29 1353.92,1365.29 1356.08,1365.29 1358.25,1365.29 1360.41,1365.29 1362.57,1365.29 1364.73,1365.29 1366.89,1365.29 1369.06,1365.29 1371.22,1365.29 1373.38,1365.29 1375.54,1365.29 1377.7,1365.29 1379.87,1365.29 1382.03,1365.29 1384.19,1365.29 1386.35,1365.29 1388.51,1365.29 1390.68,1365.29 1392.84,1365.29 1395,1365.29 1397.16,1365.29 1399.32,1365.29 1401.49,1365.29 1403.65,1365.29 1405.81,1365.29 1407.97,1365.29 1410.13,1365.29 1412.3,1365.29 1414.46,1365.29 1416.62,1365.29 1418.78,1365.29 1420.94,1365.29 1423.11,1365.29 1425.27,1365.29 1427.43,1365.29 1429.59,1365.29 1431.75,1365.29 1433.92,1365.29 1436.08,1365.29 1438.24,1365.29 1440.4,1365.29 1442.56,1365.29 1444.73,1365.29 1446.89,1365.29 1449.05,1365.29 1451.21,1365.29 1453.37,1365.29 1455.54,1365.29 1457.7,1365.29 1459.86,1365.29 1462.02,1365.29 1464.18,1365.29 1466.35,1365.29 1468.51,1365.29 1470.67,1365.29 1472.83,1365.29 1474.99,1365.29 1477.16,1365.29 1479.32,1365.29 1481.48,1365.29 1483.64,1365.29 1485.8,1365.29 1487.97,1365.29 1490.13,1262.56 1492.29,1262.56 1494.45,1262.56 1496.61,1262.56 1498.77,1262.56 1500.94,1262.56 1503.1,1262.56 1505.26,1262.56 1507.42,1262.56 1509.58,1262.56 1511.75,1262.56 1513.91,1262.56 1516.07,1262.56 1518.23,1262.56 1520.39,1262.56 1522.56,1262.56 1524.72,1262.56 1526.88,1262.56 1529.04,1262.56 1531.2,1262.56 1533.37,1262.56 1535.53,1262.56 1537.69,1262.56 1539.85,1262.56 1542.01,1262.56 1544.18,1262.56 1546.34,1262.56 1548.5,1262.56 1550.66,1262.56 1552.82,1262.56 1554.99,1262.56 1557.15,1262.56 1559.31,1262.56 1561.47,1262.56 1563.63,1262.56 1565.8,1262.56 1567.96,1262.56 1570.12,1262.56 1572.28,1262.56 1574.44,1262.56 1576.61,1262.56 1578.77,1262.56 1580.93,1262.56 1583.09,1262.56 1585.25,1262.56 1587.42,1262.56 1589.58,1262.56 1591.74,1262.56 1593.9,1262.56 1596.06,1262.56 1598.23,1262.56 1600.39,1262.56 1602.55,1262.56 1604.71,1262.56 1606.87,1262.56 1609.04,1262.56 1611.2,1262.56 1613.36,1262.56 1615.52,1262.56 1617.68,1262.56 1619.85,1262.56 1622.01,1262.56 1624.17,1262.56 1626.33,1262.56 1628.49,1262.56 1630.66,1262.56 1632.82,1262.56 1634.98,1262.56 1637.14,1262.56 1639.3,1262.56 1641.47,1262.56 1643.63,1262.56 1645.79,1262.56 1647.95,1262.56 1650.11,1262.56 1652.28,1262.56 1654.44,1262.56 1656.6,1262.56 1658.76,1262.56 1660.92,1262.56 1663.09,1262.56 1665.25,1262.56 1667.41,1262.56 1669.57,1262.56 1671.73,1262.56 1673.9,1262.56 1676.06,1262.56 1678.22,1262.56 1680.38,1262.56 1682.54,1262.56 1684.7,1262.56 1686.87,1262.56 1689.03,1262.56 1691.19,1262.56 1693.35,1262.56 1695.51,1262.56 1697.68,1262.56 1699.84,1262.56 1702,1262.56 1704.16,1262.56 1706.32,1180.42 1708.49,1180.42 1710.65,1180.42 1712.81,1180.42 1714.97,1180.42 1717.13,1180.42 1719.3,1180.42 1721.46,1180.42 1723.62,1180.42 1725.78,1180.42 1727.94,1180.42 1730.11,1180.42 1732.27,1180.42 1734.43,1180.42 1736.59,1180.42 1738.75,1180.42 1740.92,1180.42 1743.08,1180.42 1745.24,1180.42 1747.4,1180.42 1749.56,1180.42 1751.73,1180.42 1753.89,1180.42 1756.05,1180.42 1758.21,1180.42 1760.37,1180.42 1762.54,1180.42 1764.7,1180.42 1766.86,1180.42 1769.02,1180.42 1771.18,1180.42 1773.35,1180.42 1775.51,1180.42 1777.67,1180.42 1779.83,1180.42 1781.99,1180.42 1784.16,1180.42 1786.32,1180.42 1788.48,1180.42 1790.64,1180.42 1792.8,1180.42 1794.97,1180.42 1797.13,1180.42 1799.29,1180.42 1801.45,1180.42 1803.61,1180.42 1805.78,1180.42 1807.94,1180.42 1810.1,1180.42 1812.26,1180.42 1814.42,1180.42 1816.59,1180.42 1818.75,1180.42 1820.91,1180.42 1823.07,1180.42 1825.23,1180.42 1827.4,1180.42 1829.56,1180.42 1831.72,1180.42 1833.88,1180.42 1836.04,1180.42 1838.21,1180.42 1840.37,1180.42 1842.53,1180.42 1844.69,1180.42 1846.85,1180.42 1849.02,1180.42 1851.18,1180.42 1853.34,1180.42 1855.5,1180.42 1857.66,1180.42 1859.83,1180.42 1861.99,1180.42 1864.15,1180.42 1866.31,1180.42 1868.47,1180.42 1870.63,1180.42 1872.8,1180.42 1874.96,1180.42 1877.12,1180.42 1879.28,1180.42 1881.44,1180.42 1883.61,1180.42 1885.77,1180.42 1887.93,1180.42 1890.09,1180.42 1892.25,1180.42 1894.42,1180.42 1896.58,1180.42 1898.74,1180.42 1900.9,1180.42 1903.06,1180.42 1905.23,1180.42 1907.39,1180.42 1909.55,1180.42 1911.71,1180.42 1913.87,1180.42 1916.04,1180.42 1918.2,1180.42 1920.36,1180.42 1922.52,777.428 1924.68,777.428 1926.85,777.428 1929.01,777.428 1931.17,777.428 1933.33,777.428 1935.49,777.428 1937.66,777.428 1939.82,777.428 1941.98,777.428 1944.14,777.428 1946.3,777.428 1948.47,777.428 1950.63,777.428 1952.79,777.428 1954.95,777.428 1957.11,777.428 1959.28,777.428 1961.44,777.428 1963.6,777.428 1965.76,777.428 1967.92,777.428 1970.09,777.428 1972.25,777.428 1974.41,777.428 1976.57,777.428 1978.73,777.428 1980.9,777.428 1983.06,777.428 1985.22,777.428 1987.38,777.428 1989.54,777.428 1991.71,777.428 1993.87,777.428 1996.03,777.428 1998.19,777.428 2000.35,777.428 2002.52,777.428 2004.68,777.428 2006.84,777.428 2009,777.428 2011.16,777.428 2013.33,777.428 2015.49,777.428 2017.65,777.428 2019.81,777.428 2021.97,777.428 2024.14,777.428 2026.3,777.428 2028.46,777.428 2030.62,777.428 2032.78,777.428 2034.95,777.428 2037.11,777.428 2039.27,777.428 2041.43,777.428 2043.59,777.428 2045.76,777.428 2047.92,777.428 2050.08,777.428 2052.24,777.428 2054.4,777.428 2056.57,777.428 2058.73,777.428 2060.89,777.428 2063.05,777.428 2065.21,777.428 2067.37,777.428 2069.54,777.428 2071.7,777.428 2073.86,777.428 2076.02,777.428 2078.18,777.428 2080.35,777.428 2082.51,777.428 2084.67,777.428 2086.83,777.428 2088.99,777.428 2091.16,777.428 2093.32,777.428 2095.48,777.428 2097.64,777.428 2099.8,777.428 2101.97,777.428 2104.13,777.428 2106.29,777.428 2108.45,777.428 2110.61,777.428 2112.78,777.428 2114.94,777.428 2117.1,777.428 2119.26,777.428 2121.42,777.428 2123.59,777.428 2125.75,777.428 2127.91,777.428 2130.07,777.428 2132.23,777.428 2134.4,777.428 2136.56,777.428 2138.72,220.116 2140.88,220.116 2143.04,220.116 2145.21,220.116 2147.37,220.116 2149.53,220.116 2151.69,220.116 2153.85,220.116 2156.02,220.116 2158.18,220.116 2160.34,220.116 2162.5,220.116 2164.66,220.116 2166.83,220.116 2168.99,220.116 2171.15,220.116 2173.31,220.116 2175.47,220.116 2177.64,220.116 2179.8,220.116 2181.96,220.116 2184.12,220.116 2186.28,220.116 2188.45,220.116 2190.61,220.116 2192.77,220.116 2194.93,220.116 2197.09,220.116 2199.26,220.116 2201.42,220.116 2203.58,220.116 2205.74,220.116 2207.9,220.116 2210.07,220.116 2212.23,220.116 2214.39,220.116 2216.55,220.116 2218.71,220.116 2220.88,220.116 2223.04,220.116 2225.2,220.116 2227.36,220.116 2229.52,220.116 2231.69,220.116 2233.85,220.116 2236.01,220.116 2238.17,220.116 2240.33,220.116 2242.5,220.116 2244.66,220.116 2246.82,220.116 2248.98,220.116 2251.14,220.116 2253.3,220.116 2255.47,220.116 2257.63,220.116 2259.79,220.116 2261.95,220.116 2264.11,220.116 2266.28,220.116 2268.44,220.116 2270.6,220.116 2272.76,220.116 2274.92,220.116 2277.09,220.116 2279.25,220.116 2281.41,220.116 2283.57,220.116 2285.73,220.116 2287.9,220.116 2290.06,220.116 2292.22,220.116 2294.38,220.116 2296.54,220.116 2298.71,220.116 2300.87,220.116 2303.03,220.116 2305.19,220.116 2307.35,220.116 2309.52,220.116 2311.68,220.116 2313.84,220.116 2316,220.116 2318.16,220.116 2320.33,220.116 2322.49,220.116 2324.65,220.116 2326.81,220.116 2328.97,220.116 2331.14,220.116 2333.3,220.116 2335.46,220.116 2337.62,220.116 2339.78,220.116 2341.95,220.116 2344.11,220.116 2346.27,220.116 2348.43,220.116 2350.59,220.116 2352.76,220.116 "/>
<path clip-path="url(#clip150)" d="M264.934 248.629 L506.055 248.629 L506.055 93.1086 L264.934 93.1086  Z" fill="#ffffff" fill-rule="evenodd" fill-opacity="1"/>
<polyline clip-path="url(#clip150)" style="stroke:#000000; stroke-linecap:round; stroke-linejoin:round; stroke-width:4; stroke-opacity:1; fill:none" points="264.934,248.629 506.055,248.629 506.055,93.1086 264.934,93.1086 264.934,248.629 "/>
<polyline clip-path="url(#clip150)" style="stroke:#009af9; stroke-linecap:round; stroke-linejoin:round; stroke-width:4; stroke-opacity:1; fill:none" points="288.932,144.949 432.92,144.949 "/>
<path clip-path="url(#clip150)" d="M481.571 136.303 L472.196 148.919 L482.057 162.229 L477.034 162.229 L469.487 152.043 L461.941 162.229 L456.918 162.229 L466.987 148.664 L457.775 136.303 L462.798 136.303 L469.673 145.539 L476.548 136.303 L481.571 136.303 Z" fill="#000000" fill-rule="nonzero" fill-opacity="1" /><polyline clip-path="url(#clip150)" style="stroke:#e26f46; stroke-linecap:round; stroke-linejoin:round; stroke-width:4; stroke-opacity:1; fill:none" points="288.932,196.789 432.92,196.789 "/>
<path clip-path="url(#clip150)" d="M473.423 178.05 L473.423 181.592 L469.349 181.592 Q467.057 181.592 466.154 182.518 Q465.274 183.444 465.274 185.851 L465.274 188.143 L472.288 188.143 L472.288 191.453 L465.274 191.453 L465.274 214.069 L460.992 214.069 L460.992 191.453 L456.918 191.453 L456.918 188.143 L460.992 188.143 L460.992 186.337 Q460.992 182.009 463.006 180.041 Q465.02 178.05 469.395 178.05 L473.423 178.05 Z" fill="#000000" fill-rule="nonzero" fill-opacity="1" /></svg>
