<?xml version="1.0" encoding="utf-8"?>
<svg xmlns="http://www.w3.org/2000/svg" xmlns:xlink="http://www.w3.org/1999/xlink" width="600" height="400" viewBox="0 0 2400 1600">
<defs>
  <clipPath id="clip610">
    <rect x="0" y="0" width="2400" height="1600"/>
  </clipPath>
</defs>
<path clip-path="url(#clip610)" d="M0 1600 L2400 1600 L2400 0 L0 0  Z" fill="#ffffff" fill-rule="evenodd" fill-opacity="1"/>
<defs>
  <clipPath id="clip611">
    <rect x="480" y="0" width="1681" height="1600"/>
  </clipPath>
</defs>
<defs>
  <clipPath id="clip612">
    <rect x="155" y="47" width="2198" height="1440"/>
  </clipPath>
</defs>
<path clip-path="url(#clip612)" d="M-1278.84 2673.69 L-1278.84 2378.21 L-1132.58 2230.48 L-879.264 2315.77 L-879.264 2611.24 L-1025.52 2758.98 L-1278.84 2673.69  Z" fill="#ffffff" fill-rule="evenodd" fill-opacity="1"/>
<polyline clip-path="url(#clip612)" style="stroke:#000000; stroke-linecap:round; stroke-linejoin:round; stroke-width:2; stroke-opacity:0.1; fill:none" points="788.915,1232.18 1204.38,872.38 1204.38,152.778 "/>
<polyline clip-path="url(#clip612)" style="stroke:#000000; stroke-linecap:round; stroke-linejoin:round; stroke-width:2; stroke-opacity:0.1; fill:none" points="915.575,1268.74 1331.04,908.943 1331.04,189.341 "/>
<polyline clip-path="url(#clip612)" style="stroke:#000000; stroke-linecap:round; stroke-linejoin:round; stroke-width:2; stroke-opacity:0.1; fill:none" points="1042.23,1305.31 1457.7,945.507 1457.7,225.905 "/>
<polyline clip-path="url(#clip612)" style="stroke:#000000; stroke-linecap:round; stroke-linejoin:round; stroke-width:2; stroke-opacity:0.1; fill:none" points="1168.89,1341.87 1584.36,982.07 1584.36,262.468 "/>
<polyline clip-path="url(#clip612)" style="stroke:#000000; stroke-linecap:round; stroke-linejoin:round; stroke-width:2; stroke-opacity:0.1; fill:none" points="1295.55,1378.43 1711.02,1018.63 1711.02,299.032 "/>
<polyline clip-path="url(#clip612)" style="stroke:#000000; stroke-linecap:round; stroke-linejoin:round; stroke-width:2; stroke-opacity:0.1; fill:none" points="1456.45,1367.01 736.846,1159.28 736.846,439.677 "/>
<polyline clip-path="url(#clip612)" style="stroke:#000000; stroke-linecap:round; stroke-linejoin:round; stroke-width:2; stroke-opacity:0.1; fill:none" points="1541.74,1293.14 822.141,1085.41 822.141,365.809 "/>
<polyline clip-path="url(#clip612)" style="stroke:#000000; stroke-linecap:round; stroke-linejoin:round; stroke-width:2; stroke-opacity:0.1; fill:none" points="1627.04,1219.27 907.437,1011.54 907.437,291.94 "/>
<polyline clip-path="url(#clip612)" style="stroke:#000000; stroke-linecap:round; stroke-linejoin:round; stroke-width:2; stroke-opacity:0.1; fill:none" points="1712.33,1145.41 992.733,937.674 992.733,218.072 "/>
<polyline clip-path="url(#clip612)" style="stroke:#000000; stroke-linecap:round; stroke-linejoin:round; stroke-width:2; stroke-opacity:0.1; fill:none" points="1797.63,1071.54 1078.03,863.806 1078.03,144.204 "/>
<polyline clip-path="url(#clip612)" style="stroke:#000000; stroke-linecap:round; stroke-linejoin:round; stroke-width:2; stroke-opacity:0.1; fill:none" points="686.728,1172.7 1102.19,812.894 1821.79,1020.63 "/>
<polyline clip-path="url(#clip612)" style="stroke:#000000; stroke-linecap:round; stroke-linejoin:round; stroke-width:2; stroke-opacity:0.1; fill:none" points="686.728,1017.64 1102.19,657.838 1821.79,865.57 "/>
<polyline clip-path="url(#clip612)" style="stroke:#000000; stroke-linecap:round; stroke-linejoin:round; stroke-width:2; stroke-opacity:0.1; fill:none" points="686.728,862.583 1102.19,502.782 1821.79,710.513 "/>
<polyline clip-path="url(#clip612)" style="stroke:#000000; stroke-linecap:round; stroke-linejoin:round; stroke-width:2; stroke-opacity:0.1; fill:none" points="686.728,707.527 1102.19,347.726 1821.79,555.457 "/>
<polyline clip-path="url(#clip612)" style="stroke:#000000; stroke-linecap:round; stroke-linejoin:round; stroke-width:2; stroke-opacity:0.1; fill:none" points="686.728,552.471 1102.19,192.67 1821.79,400.401 "/>
<polyline clip-path="url(#clip610)" style="stroke:#000000; stroke-linecap:round; stroke-linejoin:round; stroke-width:4; stroke-opacity:1; fill:none" points="686.728,1202.68 1406.33,1410.41 "/>
<polyline clip-path="url(#clip610)" style="stroke:#000000; stroke-linecap:round; stroke-linejoin:round; stroke-width:4; stroke-opacity:1; fill:none" points="788.915,1232.18 793.901,1227.86 "/>
<polyline clip-path="url(#clip610)" style="stroke:#000000; stroke-linecap:round; stroke-linejoin:round; stroke-width:4; stroke-opacity:1; fill:none" points="915.575,1268.74 920.56,1264.43 "/>
<polyline clip-path="url(#clip610)" style="stroke:#000000; stroke-linecap:round; stroke-linejoin:round; stroke-width:4; stroke-opacity:1; fill:none" points="1042.23,1305.31 1047.22,1300.99 "/>
<polyline clip-path="url(#clip610)" style="stroke:#000000; stroke-linecap:round; stroke-linejoin:round; stroke-width:4; stroke-opacity:1; fill:none" points="1168.89,1341.87 1173.88,1337.55 "/>
<polyline clip-path="url(#clip610)" style="stroke:#000000; stroke-linecap:round; stroke-linejoin:round; stroke-width:4; stroke-opacity:1; fill:none" points="1295.55,1378.43 1300.54,1374.12 "/>
<path clip-path="url(#clip610)" d="M770.142 1246.27 L758.336 1264.72 L770.142 1264.72 L770.142 1246.27 M768.915 1242.19 L774.794 1242.19 L774.794 1264.72 L779.725 1264.72 L779.725 1268.61 L774.794 1268.61 L774.794 1276.75 L770.142 1276.75 L770.142 1268.61 L754.54 1268.61 L754.54 1264.09 L768.915 1242.19 Z" fill="#000000" fill-rule="nonzero" fill-opacity="1" /><path clip-path="url(#clip610)" d="M885.482 1278.76 L903.838 1278.76 L903.838 1282.69 L889.764 1282.69 L889.764 1291.17 Q890.783 1290.82 891.801 1290.66 Q892.82 1290.47 893.838 1290.47 Q899.625 1290.47 903.005 1293.64 Q906.385 1296.81 906.385 1302.23 Q906.385 1307.81 902.912 1310.91 Q899.44 1313.99 893.121 1313.99 Q890.945 1313.99 888.676 1313.62 Q886.431 1313.25 884.024 1312.51 L884.024 1307.81 Q886.107 1308.94 888.329 1309.5 Q890.551 1310.05 893.028 1310.05 Q897.033 1310.05 899.371 1307.95 Q901.709 1305.84 901.709 1302.23 Q901.709 1298.62 899.371 1296.51 Q897.033 1294.41 893.028 1294.41 Q891.153 1294.41 889.278 1294.82 Q887.426 1295.24 885.482 1296.12 L885.482 1278.76 Z" fill="#000000" fill-rule="nonzero" fill-opacity="1" /><path clip-path="url(#clip610)" d="M1021.52 1330.74 Q1018.37 1330.74 1016.52 1332.89 Q1014.69 1335.04 1014.69 1338.79 Q1014.69 1342.52 1016.52 1344.7 Q1018.37 1346.85 1021.52 1346.85 Q1024.66 1346.85 1026.49 1344.7 Q1028.35 1342.52 1028.35 1338.79 Q1028.35 1335.04 1026.49 1332.89 Q1024.66 1330.74 1021.52 1330.74 M1030.8 1316.09 L1030.8 1320.35 Q1029.04 1319.51 1027.23 1319.07 Q1025.45 1318.63 1023.69 1318.63 Q1019.06 1318.63 1016.61 1321.76 Q1014.18 1324.88 1013.83 1331.2 Q1015.2 1329.19 1017.26 1328.12 Q1019.32 1327.03 1021.79 1327.03 Q1027 1327.03 1030.01 1330.21 Q1033.04 1333.35 1033.04 1338.79 Q1033.04 1344.12 1029.9 1347.34 Q1026.75 1350.55 1021.52 1350.55 Q1015.52 1350.55 1012.35 1345.97 Q1009.18 1341.36 1009.18 1332.64 Q1009.18 1324.44 1013.07 1319.58 Q1016.96 1314.7 1023.51 1314.7 Q1025.27 1314.7 1027.05 1315.04 Q1028.85 1315.39 1030.8 1316.09 Z" fill="#000000" fill-rule="nonzero" fill-opacity="1" /><path clip-path="url(#clip610)" d="M1137.48 1351.89 L1159.7 1351.89 L1159.7 1353.88 L1147.16 1386.45 L1142.27 1386.45 L1154.08 1355.82 L1137.48 1355.82 L1137.48 1351.89 Z" fill="#000000" fill-rule="nonzero" fill-opacity="1" /><path clip-path="url(#clip610)" d="M1274.51 1406.6 Q1271.18 1406.6 1269.26 1408.38 Q1267.36 1410.16 1267.36 1413.29 Q1267.36 1416.41 1269.26 1418.19 Q1271.18 1419.98 1274.51 1419.98 Q1277.84 1419.98 1279.77 1418.19 Q1281.69 1416.39 1281.69 1413.29 Q1281.69 1410.16 1279.77 1408.38 Q1277.87 1406.6 1274.51 1406.6 M1269.84 1404.61 Q1266.83 1403.87 1265.14 1401.81 Q1263.47 1399.75 1263.47 1396.78 Q1263.47 1392.64 1266.41 1390.23 Q1269.37 1387.82 1274.51 1387.82 Q1279.67 1387.82 1282.61 1390.23 Q1285.55 1392.64 1285.55 1396.78 Q1285.55 1399.75 1283.86 1401.81 Q1282.2 1403.87 1279.21 1404.61 Q1282.59 1405.39 1284.47 1407.68 Q1286.36 1409.98 1286.36 1413.29 Q1286.36 1418.31 1283.28 1420.99 Q1280.23 1423.68 1274.51 1423.68 Q1268.79 1423.68 1265.72 1420.99 Q1262.66 1418.31 1262.66 1413.29 Q1262.66 1409.98 1264.56 1407.68 Q1266.46 1405.39 1269.84 1404.61 M1268.12 1397.22 Q1268.12 1399.91 1269.79 1401.41 Q1271.48 1402.92 1274.51 1402.92 Q1277.52 1402.92 1279.21 1401.41 Q1280.92 1399.91 1280.92 1397.22 Q1280.92 1394.54 1279.21 1393.03 Q1277.52 1391.53 1274.51 1391.53 Q1271.48 1391.53 1269.79 1393.03 Q1268.12 1394.54 1268.12 1397.22 Z" fill="#000000" fill-rule="nonzero" fill-opacity="1" /><polyline clip-path="url(#clip610)" style="stroke:#000000; stroke-linecap:round; stroke-linejoin:round; stroke-width:4; stroke-opacity:1; fill:none" points="1406.33,1410.41 1821.79,1050.61 "/>
<polyline clip-path="url(#clip610)" style="stroke:#000000; stroke-linecap:round; stroke-linejoin:round; stroke-width:4; stroke-opacity:1; fill:none" points="1456.45,1367.01 1447.81,1364.52 "/>
<polyline clip-path="url(#clip610)" style="stroke:#000000; stroke-linecap:round; stroke-linejoin:round; stroke-width:4; stroke-opacity:1; fill:none" points="1541.74,1293.14 1533.11,1290.65 "/>
<polyline clip-path="url(#clip610)" style="stroke:#000000; stroke-linecap:round; stroke-linejoin:round; stroke-width:4; stroke-opacity:1; fill:none" points="1627.04,1219.27 1618.4,1216.78 "/>
<polyline clip-path="url(#clip610)" style="stroke:#000000; stroke-linecap:round; stroke-linejoin:round; stroke-width:4; stroke-opacity:1; fill:none" points="1712.33,1145.41 1703.7,1142.91 "/>
<polyline clip-path="url(#clip610)" style="stroke:#000000; stroke-linecap:round; stroke-linejoin:round; stroke-width:4; stroke-opacity:1; fill:none" points="1797.63,1071.54 1789,1069.04 "/>
<path clip-path="url(#clip610)" d="M1492.52 1374.07 L1480.71 1392.51 L1492.52 1392.51 L1492.52 1374.07 M1491.29 1369.99 L1497.17 1369.99 L1497.17 1392.51 L1502.1 1392.51 L1502.1 1396.4 L1497.17 1396.4 L1497.17 1404.55 L1492.52 1404.55 L1492.52 1396.4 L1476.91 1396.4 L1476.91 1391.89 L1491.29 1369.99 Z" fill="#000000" fill-rule="nonzero" fill-opacity="1" /><path clip-path="url(#clip610)" d="M1563.67 1296.12 L1582.03 1296.12 L1582.03 1300.06 L1567.95 1300.06 L1567.95 1308.53 Q1568.97 1308.18 1569.99 1308.02 Q1571.01 1307.84 1572.03 1307.84 Q1577.81 1307.84 1581.19 1311.01 Q1584.57 1314.18 1584.57 1319.6 Q1584.57 1325.17 1581.1 1328.28 Q1577.63 1331.35 1571.31 1331.35 Q1569.13 1331.35 1566.86 1330.98 Q1564.62 1330.61 1562.21 1329.87 L1562.21 1325.17 Q1564.29 1326.31 1566.52 1326.86 Q1568.74 1327.42 1571.22 1327.42 Q1575.22 1327.42 1577.56 1325.31 Q1579.9 1323.21 1579.9 1319.6 Q1579.9 1315.98 1577.56 1313.88 Q1575.22 1311.77 1571.22 1311.77 Q1569.34 1311.77 1567.47 1312.19 Q1565.61 1312.6 1563.67 1313.48 L1563.67 1296.12 Z" fill="#000000" fill-rule="nonzero" fill-opacity="1" /><path clip-path="url(#clip610)" d="M1659.84 1237.67 Q1656.7 1237.67 1654.84 1239.82 Q1653.02 1241.98 1653.02 1245.73 Q1653.02 1249.45 1654.84 1251.63 Q1656.7 1253.78 1659.84 1253.78 Q1662.99 1253.78 1664.82 1251.63 Q1666.67 1249.45 1666.67 1245.73 Q1666.67 1241.98 1664.82 1239.82 Q1662.99 1237.67 1659.84 1237.67 M1669.13 1223.02 L1669.13 1227.28 Q1667.37 1226.45 1665.56 1226.01 Q1663.78 1225.57 1662.02 1225.57 Q1657.39 1225.57 1654.94 1228.69 Q1652.51 1231.82 1652.16 1238.13 Q1653.52 1236.12 1655.58 1235.06 Q1657.65 1233.97 1660.12 1233.97 Q1665.33 1233.97 1668.34 1237.14 Q1671.37 1240.29 1671.37 1245.73 Q1671.37 1251.05 1668.22 1254.27 Q1665.08 1257.49 1659.84 1257.49 Q1653.85 1257.49 1650.68 1252.9 Q1647.51 1248.3 1647.51 1239.57 Q1647.51 1231.38 1651.4 1226.51 Q1655.28 1221.63 1661.83 1221.63 Q1663.59 1221.63 1665.38 1221.98 Q1667.18 1222.32 1669.13 1223.02 Z" fill="#000000" fill-rule="nonzero" fill-opacity="1" /><path clip-path="url(#clip610)" d="M1732.8 1148.39 L1755.02 1148.39 L1755.02 1150.38 L1742.48 1182.95 L1737.59 1182.95 L1749.4 1152.32 L1732.8 1152.32 L1732.8 1148.39 Z" fill="#000000" fill-rule="nonzero" fill-opacity="1" /><path clip-path="url(#clip610)" d="M1829.95 1092.67 Q1826.62 1092.67 1824.69 1094.45 Q1822.8 1096.23 1822.8 1099.36 Q1822.8 1102.48 1824.69 1104.26 Q1826.62 1106.05 1829.95 1106.05 Q1833.28 1106.05 1835.2 1104.26 Q1837.13 1102.46 1837.13 1099.36 Q1837.13 1096.23 1835.2 1094.45 Q1833.31 1092.67 1829.95 1092.67 M1825.27 1090.68 Q1822.26 1089.94 1820.57 1087.88 Q1818.91 1085.81 1818.91 1082.85 Q1818.91 1078.71 1821.85 1076.3 Q1824.81 1073.89 1829.95 1073.89 Q1835.11 1073.89 1838.05 1076.3 Q1840.99 1078.71 1840.99 1082.85 Q1840.99 1085.81 1839.3 1087.88 Q1837.63 1089.94 1834.65 1090.68 Q1838.03 1091.46 1839.9 1093.75 Q1841.8 1096.05 1841.8 1099.36 Q1841.8 1104.38 1838.72 1107.06 Q1835.67 1109.75 1829.95 1109.75 Q1824.23 1109.75 1821.15 1107.06 Q1818.1 1104.38 1818.1 1099.36 Q1818.1 1096.05 1820 1093.75 Q1821.89 1091.46 1825.27 1090.68 M1823.56 1083.29 Q1823.56 1085.98 1825.23 1087.48 Q1826.92 1088.99 1829.95 1088.99 Q1832.96 1088.99 1834.65 1087.48 Q1836.36 1085.98 1836.36 1083.29 Q1836.36 1080.61 1834.65 1079.1 Q1832.96 1077.6 1829.95 1077.6 Q1826.92 1077.6 1825.23 1079.1 Q1823.56 1080.61 1823.56 1083.29 Z" fill="#000000" fill-rule="nonzero" fill-opacity="1" /><polyline clip-path="url(#clip610)" style="stroke:#000000; stroke-linecap:round; stroke-linejoin:round; stroke-width:4; stroke-opacity:1; fill:none" points="686.728,1202.68 686.728,483.08 "/>
<polyline clip-path="url(#clip610)" style="stroke:#000000; stroke-linecap:round; stroke-linejoin:round; stroke-width:4; stroke-opacity:1; fill:none" points="686.728,1172.7 691.714,1168.38 "/>
<polyline clip-path="url(#clip610)" style="stroke:#000000; stroke-linecap:round; stroke-linejoin:round; stroke-width:4; stroke-opacity:1; fill:none" points="686.728,1017.64 691.714,1013.32 "/>
<polyline clip-path="url(#clip610)" style="stroke:#000000; stroke-linecap:round; stroke-linejoin:round; stroke-width:4; stroke-opacity:1; fill:none" points="686.728,862.583 691.714,858.266 "/>
<polyline clip-path="url(#clip610)" style="stroke:#000000; stroke-linecap:round; stroke-linejoin:round; stroke-width:4; stroke-opacity:1; fill:none" points="686.728,707.527 691.714,703.209 "/>
<polyline clip-path="url(#clip610)" style="stroke:#000000; stroke-linecap:round; stroke-linejoin:round; stroke-width:4; stroke-opacity:1; fill:none" points="686.728,552.471 691.714,548.153 "/>
<path clip-path="url(#clip610)" d="M601.748 1158.49 Q598.137 1158.49 596.308 1162.06 Q594.503 1165.6 594.503 1172.73 Q594.503 1179.84 596.308 1183.4 Q598.137 1186.94 601.748 1186.94 Q605.382 1186.94 607.188 1183.4 Q609.017 1179.84 609.017 1172.73 Q609.017 1165.6 607.188 1162.06 Q605.382 1158.49 601.748 1158.49 M601.748 1154.79 Q607.558 1154.79 610.614 1159.4 Q613.692 1163.98 613.692 1172.73 Q613.692 1181.46 610.614 1186.06 Q607.558 1190.65 601.748 1190.65 Q595.938 1190.65 592.859 1186.06 Q589.804 1181.46 589.804 1172.73 Q589.804 1163.98 592.859 1159.4 Q595.938 1154.79 601.748 1154.79 Z" fill="#000000" fill-rule="nonzero" fill-opacity="1" /><path clip-path="url(#clip610)" d="M621.91 1184.1 L626.794 1184.1 L626.794 1189.98 L621.91 1189.98 L621.91 1184.1 Z" fill="#000000" fill-rule="nonzero" fill-opacity="1" /><path clip-path="url(#clip610)" d="M637.026 1155.42 L655.382 1155.42 L655.382 1159.35 L641.308 1159.35 L641.308 1167.82 Q642.327 1167.48 643.345 1167.31 Q644.364 1167.13 645.382 1167.13 Q651.169 1167.13 654.549 1170.3 Q657.928 1173.47 657.928 1178.89 Q657.928 1184.47 654.456 1187.57 Q650.984 1190.65 644.664 1190.65 Q642.489 1190.65 640.22 1190.28 Q637.975 1189.91 635.567 1189.17 L635.567 1184.47 Q637.651 1185.6 639.873 1186.16 Q642.095 1186.71 644.572 1186.71 Q648.576 1186.71 650.914 1184.61 Q653.252 1182.5 653.252 1178.89 Q653.252 1175.28 650.914 1173.17 Q648.576 1171.06 644.572 1171.06 Q642.697 1171.06 640.822 1171.48 Q638.97 1171.9 637.026 1172.78 L637.026 1155.42 Z" fill="#000000" fill-rule="nonzero" fill-opacity="1" /><path clip-path="url(#clip610)" d="M591.563 1030.98 L599.202 1030.98 L599.202 1004.62 L590.892 1006.29 L590.892 1002.03 L599.155 1000.36 L603.831 1000.36 L603.831 1030.98 L611.47 1030.98 L611.47 1034.92 L591.563 1034.92 L591.563 1030.98 Z" fill="#000000" fill-rule="nonzero" fill-opacity="1" /><path clip-path="url(#clip610)" d="M620.915 1029.04 L625.799 1029.04 L625.799 1034.92 L620.915 1034.92 L620.915 1029.04 Z" fill="#000000" fill-rule="nonzero" fill-opacity="1" /><path clip-path="url(#clip610)" d="M645.984 1003.44 Q642.373 1003.44 640.544 1007 Q638.739 1010.54 638.739 1017.67 Q638.739 1024.78 640.544 1028.35 Q642.373 1031.89 645.984 1031.89 Q649.618 1031.89 651.424 1028.35 Q653.252 1024.78 653.252 1017.67 Q653.252 1010.54 651.424 1007 Q649.618 1003.44 645.984 1003.44 M645.984 999.734 Q651.794 999.734 654.85 1004.34 Q657.928 1008.92 657.928 1017.67 Q657.928 1026.4 654.85 1031.01 Q651.794 1035.59 645.984 1035.59 Q640.174 1035.59 637.095 1031.01 Q634.04 1026.4 634.04 1017.67 Q634.04 1008.92 637.095 1004.34 Q640.174 999.734 645.984 999.734 Z" fill="#000000" fill-rule="nonzero" fill-opacity="1" /><path clip-path="url(#clip610)" d="M592.558 875.928 L600.197 875.928 L600.197 849.562 L591.887 851.229 L591.887 846.97 L600.151 845.303 L604.827 845.303 L604.827 875.928 L612.466 875.928 L612.466 879.863 L592.558 879.863 L592.558 875.928 Z" fill="#000000" fill-rule="nonzero" fill-opacity="1" /><path clip-path="url(#clip610)" d="M621.91 873.984 L626.794 873.984 L626.794 879.863 L621.91 879.863 L621.91 873.984 Z" fill="#000000" fill-rule="nonzero" fill-opacity="1" /><path clip-path="url(#clip610)" d="M637.026 845.303 L655.382 845.303 L655.382 849.238 L641.308 849.238 L641.308 857.711 Q642.327 857.363 643.345 857.201 Q644.364 857.016 645.382 857.016 Q651.169 857.016 654.549 860.187 Q657.928 863.359 657.928 868.775 Q657.928 874.354 654.456 877.456 Q650.984 880.534 644.664 880.534 Q642.489 880.534 640.22 880.164 Q637.975 879.794 635.567 879.053 L635.567 874.354 Q637.651 875.488 639.873 876.044 Q642.095 876.599 644.572 876.599 Q648.576 876.599 650.914 874.493 Q653.252 872.386 653.252 868.775 Q653.252 865.164 650.914 863.058 Q648.576 860.951 644.572 860.951 Q642.697 860.951 640.822 861.368 Q638.97 861.785 637.026 862.664 L637.026 845.303 Z" fill="#000000" fill-rule="nonzero" fill-opacity="1" /><path clip-path="url(#clip610)" d="M594.78 720.872 L611.1 720.872 L611.1 724.807 L589.156 724.807 L589.156 720.872 Q591.818 718.117 596.401 713.488 Q601.007 708.835 602.188 707.492 Q604.433 704.969 605.313 703.233 Q606.216 701.474 606.216 699.784 Q606.216 697.029 604.271 695.293 Q602.35 693.557 599.248 693.557 Q597.049 693.557 594.595 694.321 Q592.165 695.085 589.387 696.636 L589.387 691.914 Q592.211 690.78 594.665 690.201 Q597.118 689.622 599.155 689.622 Q604.526 689.622 607.72 692.307 Q610.915 694.992 610.915 699.483 Q610.915 701.613 610.104 703.534 Q609.317 705.432 607.211 708.025 Q606.632 708.696 603.53 711.914 Q600.429 715.108 594.78 720.872 Z" fill="#000000" fill-rule="nonzero" fill-opacity="1" /><path clip-path="url(#clip610)" d="M620.915 718.927 L625.799 718.927 L625.799 724.807 L620.915 724.807 L620.915 718.927 Z" fill="#000000" fill-rule="nonzero" fill-opacity="1" /><path clip-path="url(#clip610)" d="M645.984 693.326 Q642.373 693.326 640.544 696.891 Q638.739 700.432 638.739 707.562 Q638.739 714.668 640.544 718.233 Q642.373 721.775 645.984 721.775 Q649.618 721.775 651.424 718.233 Q653.252 714.668 653.252 707.562 Q653.252 700.432 651.424 696.891 Q649.618 693.326 645.984 693.326 M645.984 689.622 Q651.794 689.622 654.85 694.229 Q657.928 698.812 657.928 707.562 Q657.928 716.289 654.85 720.895 Q651.794 725.478 645.984 725.478 Q640.174 725.478 637.095 720.895 Q634.04 716.289 634.04 707.562 Q634.04 698.812 637.095 694.229 Q640.174 689.622 645.984 689.622 Z" fill="#000000" fill-rule="nonzero" fill-opacity="1" /><path clip-path="url(#clip610)" d="M595.776 565.816 L612.095 565.816 L612.095 569.751 L590.151 569.751 L590.151 565.816 Q592.813 563.061 597.396 558.432 Q602.003 553.779 603.183 552.436 Q605.429 549.913 606.308 548.177 Q607.211 546.418 607.211 544.728 Q607.211 541.973 605.267 540.237 Q603.345 538.501 600.243 538.501 Q598.044 538.501 595.591 539.265 Q593.16 540.029 590.382 541.58 L590.382 536.858 Q593.206 535.723 595.66 535.145 Q598.114 534.566 600.151 534.566 Q605.521 534.566 608.716 537.251 Q611.91 539.936 611.91 544.427 Q611.91 546.557 611.1 548.478 Q610.313 550.376 608.206 552.969 Q607.628 553.64 604.526 556.858 Q601.424 560.052 595.776 565.816 Z" fill="#000000" fill-rule="nonzero" fill-opacity="1" /><path clip-path="url(#clip610)" d="M621.91 563.871 L626.794 563.871 L626.794 569.751 L621.91 569.751 L621.91 563.871 Z" fill="#000000" fill-rule="nonzero" fill-opacity="1" /><path clip-path="url(#clip610)" d="M637.026 535.191 L655.382 535.191 L655.382 539.126 L641.308 539.126 L641.308 547.598 Q642.327 547.251 643.345 547.089 Q644.364 546.904 645.382 546.904 Q651.169 546.904 654.549 550.075 Q657.928 553.246 657.928 558.663 Q657.928 564.242 654.456 567.344 Q650.984 570.422 644.664 570.422 Q642.489 570.422 640.22 570.052 Q637.975 569.682 635.567 568.941 L635.567 564.242 Q637.651 565.376 639.873 565.932 Q642.095 566.487 644.572 566.487 Q648.576 566.487 650.914 564.381 Q653.252 562.274 653.252 558.663 Q653.252 555.052 650.914 552.946 Q648.576 550.839 644.572 550.839 Q642.697 550.839 640.822 551.256 Q638.97 551.672 637.026 552.552 L637.026 535.191 Z" fill="#000000" fill-rule="nonzero" fill-opacity="1" /><polyline clip-path="url(#clip612)" style="stroke:#009af9; stroke-linecap:round; stroke-linejoin:round; stroke-width:4; stroke-opacity:1; fill:none" points="1050.99,966.43 1047.92,968.094 1049.78,967.353 1051.11,966.883 1043.54,970.608 1039.27,972.846 1027.54,978.617 1030.63,977.516 1037.47,974.678 1038.39,974.581 1046.03,971.379 1022.71,982.741 1015.04,986.952 1010.26,990.003 1008,991.912 1012.44,990.706 990.323,1002.11 1011.8,993.21 1017.21,991.427 997.074,1001.57 1027.67,988.593 1040.14,983.574 1055.39,976.204 1083.05,961.988 1121.11,941.149 1069.28,962.201 1095.16,949.43 1106.89,941.225 1100.57,941.185 1142.61,917.361 1108.45,928.678 1095.4,933.704 1077.01,947.143 1058.86,963.173 1059.32,961.918 1022.37,984.461 1025.34,987.855 1013.39,994.823 1045.99,978.281 1079.71,960.64 1140.98,925.863 1031.14,989.768 1080.8,955.584 1055.81,967.968 1017.26,988.557 922.277,1054.62 938.665,1052.68 1092.53,954.21 1158.72,910.573 1156.43,907.347 1133.99,914.605 1157.98,887.573 1220.06,850.991 1232.83,829.423 1173.36,855.71 1147.76,897.979 1114.98,917.541 1032.95,971.204 1076.57,954.107 1139.04,919.405 1195.88,875.68 1144.49,901.003 1158.25,885.054 1176.44,876.1 1299.6,799.085 1305.41,785.214 1447.65,688.289 1385.4,720.984 1325.32,758.907 1258.67,810.148 1327.48,765.428 1405.99,709.067 1477.01,661.896 1489.8,636.232 1515.92,606.982 1413.4,678.873 1356.19,707.755 1337.69,736.602 1356.81,728.091 1394.98,700.854 1286.96,782.303 1353.35,746.854 1333.4,760.442 1310.64,777.615 1244.17,822.173 1322.31,778.403 1172.22,876.704 1168.83,877.143 1199.8,840.182 1256.04,812.111 1268.84,807.293 1346.97,745.141 1394.53,708.627 1541.72,596.483 1587.95,538.473 1578.87,537.662 1466.96,619.32 1618.84,517.683 1573.41,530.334 1517.45,567.907 1429.53,648.935 1418.17,668.051 1333.73,734.486 1282.38,775.423 1216.43,831.028 1257.35,816.452 1227.77,836.574 1282.44,805.022 1260.47,818.873 1244.06,818.957 1256.61,811.062 1209.13,853.652 1180.48,873.229 1169.06,878.808 1171.05,887.543 1107.73,922.155 1051.29,956.292 1118.57,927.636 1026.31,985.452 939.722,1035.78 970.207,1029.58 1015.13,1006.29 1087.81,960.186 1098.1,949.022 1042.28,972.675 1055.65,967.884 1105.55,943.045 1066.85,960.827 1077.25,943.419 1010.56,999.07 1052.57,981.486 1254.43,857.519 1374.93,758.42 1445.68,692.626 1411.07,703.538 1342.68,741.977 1420.36,693.261 1433.42,685.799 1518.54,609.239 1414.54,666.583 1471.65,645.363 1485.27,627.755 1407.1,680.181 1419.44,672.064 1505.07,617.152 1454.35,657.172 1495.42,624.19 1462.47,627.479 1427.57,654.254 1370.1,714.742 1370.34,713.024 1359.83,727.893 1302.24,770.51 1311.88,773.027 1255.85,807.129 1298.54,783.968 1291.62,793.959 1263.43,813.825 1201.03,851.63 1164.27,894.19 1126.56,904.614 1085.3,934 1053,969.875 1026.42,987.711 1150.23,910.185 1023.04,979.784 1032.99,977.597 1055.5,967.263 1066.76,954.392 1012.62,984.193 1006.77,1002.33 998.353,1004.97 940.466,1034.13 961.2,1022.45 941.889,1048.99 1031.51,997.046 1039.25,1002.16 1054.51,973.243 1059.96,970.292 1134.17,917.856 1059.65,944.717 1088.85,943.82 1139.32,907.226 1192.31,876.412 1140.76,902.866 1173.07,874.302 1147.43,870.872 1122.42,881.465 1177.47,868.005 1251.27,818.429 1178.45,872.646 1061.68,957.026 1087.97,951.788 1144.7,912.077 1081.65,948.731 1207.43,862.304 1257.21,819.355 1143.46,910.298 1069.63,960.7 1046.12,979.94 1015.09,1003.86 989.154,1004.17 1071.41,952.836 1062.2,965.064 1045.41,963.331 1202.53,855.664 1238.93,835.432 1245.26,837.669 1263.92,806.919 1377.75,727.008 1428.28,683.66 1416.8,679.959 1367.18,730.616 1381.89,728.158 1442.3,672.037 1402.18,703.056 1468.29,657.467 1533.89,586.387 1644.01,503.316 1580.27,520.932 1546.57,542.598 1544.45,560.133 1415.94,663.363 1360.36,715.459 1252.98,793.309 1239.51,821.449 1336.47,769.676 1320.3,771.679 1237.49,823.738 1302.46,790.487 1420.58,708.407 1367.48,730.214 1377.45,717.273 1390.27,712.374 1437.28,684.028 1263.5,805.203 1391.69,720.888 1488.93,634.342 1413.48,667.198 1415.79,673.319 1318.37,740.956 1293.07,764.899 1293.92,768.864 1227.1,828.66 1177.15,867.992 1180.68,874.158 1210.23,852.102 1286.56,807.958 1208.54,855.605 1198.26,855.75 1131.73,887.086 1136.27,898.348 1159.64,884.511 1154.72,891.543 1257.66,822.388 1315.21,777.404 1328.32,755.192 1343.33,737.859 1304.23,766.914 1164.01,867.919 1274.62,805.128 1308.51,773.762 1411.1,712.692 1321.71,768.138 1207.63,861.477 1260.85,833.84 1253.83,823.545 1235.14,833.357 1132.61,898.281 1099.93,919.706 1112.14,920.05 1153.31,902.905 1138.69,907.17 1067.87,951.083 1043.54,970.058 964.279,1019.16 945.519,1035.67 944.342,1044.53 927.773,1052.6 985.414,1023.17 975.002,1015.78 935.341,1039.13 974.346,1020.43 1019.35,988.489 933.037,1039.05 1001.36,996.802 1100.99,935.744 1089.42,950.592 1045.09,986.728 1097.67,942.04 1144.16,912.921 1231.7,856.936 1326.15,785.901 1354.47,755.002 1533.03,607.881 1418.81,665.186 1314.52,744.967 1356.88,731.475 1401.24,698.255 1332.34,739.387 1297.07,779.033 1309.39,774.055 1278.94,788.506 1407.15,702.345 1297.7,791.721 1271.79,808.67 1348.91,749.655 1300.7,771.669 1343.28,722.982 1311.29,764.167 1324.35,761.672 1173.89,859.255 1079.55,928.35 1075.58,940.34 1064.64,953.042 1164.4,905.181 1160.22,893.167 1190.62,870.029 1170.84,889.3 1135.75,910.99 1071.4,945.721 1035.24,975.856 1036.66,980.158 1073.52,950.945 1129.45,916.495 1077.88,943.261 1068.62,956.913 1101.23,943.328 1196.54,864.019 1249.5,830.681 1234.56,838.245 1440.72,703.572 1479.89,655.239 1520.42,609.878 1500.43,608.497 1509.88,600.852 1376,706.314 1261.22,792.071 1224.84,826.136 1383.8,740.73 1342.35,762.368 1380.5,720.926 1341.01,744.221 1271.75,790.498 1283.11,792.075 1217.72,828.979 1297.48,795.833 1259.23,816.593 1331.87,772.519 1368.02,731.951 1442.35,675.061 1335.16,743.981 1304.1,753.086 1381.6,696.742 1303.54,771.648 1335.99,751.396 1432.63,681.694 1287.01,781.233 1377.11,721.209 1321.31,760.549 1369.83,719.095 1534.26,586.96 1532.74,592.402 1506.56,599.195 1501.42,598.059 1617.66,511.211 1468.4,617.409 1333.63,715.619 1252.45,785.938 1283.27,790.202 1274.13,802.274 1374.12,744.374 1439,683.275 1370.81,721.34 1312.33,759.539 1319.99,756.442 1331.42,759.186 1251.98,804.598 1328.37,766.394 1395.06,714.038 1528.64,610.351 1584.18,534.091 1678.06,445.887 1596.47,507.898 1529.02,561.95 1455.19,627.943 1520.28,596.437 1491.62,612.183 1518.71,595.801 1396.25,673.694 1300.64,751.355 1274.83,788.959 1278.75,793.319 1243.07,827.744 1194.3,857.051 1123.45,904.609 1006.83,980.469 997.874,997.867 1033.59,986.921 1023.25,994.197 1029.9,994.484 1020.62,988.608 970.451,1017.72 950.949,1037.11 913.652,1060.21 941.745,1047.62 880.667,1083.49 881.208,1080.05 931.997,1055.56 999.834,1015.21 1017.09,999.756 996.858,1012.73 964.607,1029.86 952.718,1036.75 1094.76,958.679 1137.96,919.193 1190.68,871.694 1207.08,849.311 1160.91,877.529 1152.45,898.678 1001.61,993.429 999.157,1006.14 968.15,1025.43 983.185,1017.73 1055.48,967.522 1151.64,922.79 1275.21,826.405 1265.04,815.186 1218.77,837.913 1398.12,728.171 1341.4,756.746 1407.39,693.902 1373.02,714.798 1423.64,679.228 1353.04,718.99 1295.37,771.147 1335.75,743.259 1353.24,724.524 1377.22,720.286 1344.92,734.068 1171.57,864.454 1131.13,893.81 1167.56,887.663 1145.66,897.471 1159.75,886.537 1266.53,819.478 1236.57,834.3 1139.13,892.154 1174.45,877.358 1253.3,825.623 1168.78,871.555 1306.84,798.366 1505.04,644.542 1578.4,576.823 1595.92,542.39 1674.14,467.492 1672.17,461.381 1587.52,519.914 1628.7,489.164 1524.43,557.335 1470.14,610.719 1462.69,625.098 1332.1,717.835 1260.07,778.814 1239.39,807.353 1177.69,858.595 1102.6,910.57 1156.85,893.851 1155.4,896.435 1084.79,937.856 1032.48,972.743 1010.64,993.634 1107.48,943.902 1126.7,927.989 1211.88,869.715 1200.49,873.838 1245.85,834.228 1243.92,827.812 1138.77,894.722 1119.57,907.331 1289.23,803.137 1296.27,782.012 1207.22,837.889 1192.72,850.006 1209.05,853.431 1333.35,777.954 1347.57,752.807 1355.31,741.262 1280.24,780.651 1320.64,773.874 1392.51,723.592 1335.56,746.94 1404.08,695.17 1435.39,695.588 1406.27,699.363 1426.69,693.439 1407.45,681.91 1449.38,655.377 1412.43,685.448 1253.52,810.049 1409.16,720.564 1369.76,734.163 1323.95,762.059 1235.35,825.608 1292.78,791.947 1323.32,772.189 1303.7,784.837 1330.17,754.425 1307.66,775.645 1380.83,721.019 1282.12,796.14 1265.88,803.933 1241.84,835.907 1187.24,860.298 1175.43,879.865 1145.08,897.484 1043.31,959.542 994.869,993.824 994.519,1004.68 1023.55,990.597 1034.67,984.643 978.257,1019.12 1071.32,968.016 1055.84,977.951 1131.62,918.232 1212.53,870.266 1171.36,884.882 1228.11,837.207 1276.21,804.551 1304.56,777.812 1228.86,822.621 1135.64,881.311 1083.93,924.793 1065.95,951.42 1143.4,914.544 1077.1,953.933 1169.14,900.084 1137.68,907.154 1191.16,883.148 1184.37,883.701 1114.96,923.9 1097.28,941.417 995.186,1006.04 1065.28,962.499 961.328,1032.75 1057.06,979.412 1099.39,953.36 1082.08,947.471 1142.32,910.661 1260.66,812.788 1250.04,814.272 1203,854.205 1224.59,843.247 1188.39,861.952 1250.48,830.154 1175.42,893.937 1204.84,875.636 1183.44,874.07 1236.56,834.747 1122.64,915.452 1075.54,952.129 1159.96,902.632 1242.68,838.768 1307.27,805.692 1448.82,690.156 1473.08,647.158 1380.33,699.519 1435.77,659.682 1237.89,807.138 1154.72,867.825 1230.37,835.553 1229.97,840.04 1111.49,916.671 1139.39,904.852 1185.61,882.483 1107.96,930.11 1079.16,947.834 1080.26,955.863 1150.86,906.432 1073.84,956.907 1169.32,898.217 1301.5,791.672 1274.91,795.182 1270.82,787.569 1226.8,835.307 1217.34,848.235 1131.47,907.229 1161.92,892.45 1276.14,824.939 1298.28,793.698 1203.06,848.725 1200.11,862.614 1189.77,869.33 1109.76,918.287 1233.68,857.478 1252.63,831.542 1232.09,838.86 1154.03,880.549 1179.08,869.205 1188.31,865.713 1207.73,857.411 1143.71,891.989 1304.12,803.198 1271.99,806.948 1283.57,797.645 1300.75,781.423 1200.28,845.461 1140.29,889.939 1097.03,928.327 1109.64,924.779 1101.71,930.418 1127.58,913.129 1169.15,887.585 1226.96,840.002 1123.17,913.803 1132.95,916.115 1238.39,857.018 1055.23,962.178 1030.27,980.289 1033.43,988.438 1188.54,894.62 1100.14,941.082 1250.5,843.09 1305.02,794.245 1355.08,751.415 1263.85,814.971 1388.43,709.862 1293.82,761.251 1160.53,863.915 1168.06,870.151 1193.42,859.509 1156.5,885.571 1038.11,958.555 1047.64,966.19 1107.69,938.513 1172.69,896.796 1222.3,856.492 1167.21,883.08 1090.82,929.526 1054.28,958.993 1046.72,970.17 1008.26,991.485 889.382,1067.92 905.642,1062.62 861.827,1089.09 973.426,1033.7 1010.35,1008.26 959.146,1033.05 911.65,1062.61 991.465,1018.52 1030.48,988.62 1052.63,972.846 1066.39,958.42 1044.99,974.662 989.281,1000.09 1122.02,927.087 1052.19,971.712 1089.63,934.319 1176.37,877.476 1332.72,766.555 1341.05,760.529 1434.71,690.573 1310.96,776.143 1348.14,761.222 1381.14,733.427 1395.46,708.594 1400.39,709.336 1674.45,492.95 1601.52,520.533 1562.75,539.506 1475.51,613.014 1470.7,617.499 1417.42,676.162 1369.05,715.085 1378.08,717.163 1389.47,714.801 1464.51,660.036 1430.6,657.365 1333.69,725.992 1356.96,725.526 1240.39,805.471 1160.8,863.398 1143.01,885.763 1142.33,898.615 1153.6,895.617 1125.7,912.492 1155.86,893.613 1057.62,968.971 1083.42,953.336 1184.25,891.255 1151.45,897.498 1265.19,833.409 1248.05,836.594 1374.35,748.806 1430.82,693.836 1459.3,654.23 1435.98,664.286 1518.83,592.745 1502.7,602.979 1454.46,644.032 1455.2,647.474 1388.15,698.116 1476.38,640.666 1437.36,664.359 1432.79,675.447 1483.79,638.946 1552.58,584.634 1551.55,562.7 1519.39,579.143 1363.21,689.229 1389.72,699.409 1307.59,763.567 1272.28,790.058 1236.72,821.417 1160.66,876.056 1094.46,925.379 1105.56,933.756 1130.13,921.46 1157.99,894.958 1223.63,859.327 1202.26,866.799 1223.13,852.957 1152.63,889.689 1195.04,865.197 1223.12,849.213 1386.69,743.401 1342.71,752.611 1376.66,732.619 1338.28,751.545 1241.34,822.765 1185.84,867.576 1211.27,854.237 1264.46,814.35 1324.64,766.428 1199.35,850.566 1120.51,915.888 1075.21,941.738 1034.15,973.396 1078.1,960.561 1070.06,960.393 1049.79,970.821 1099.11,947.229 1078.76,953.48 1068.43,953.393 1110.4,932.872 1252.3,833.134 1293.71,802.944 1350.93,753.67 1475.43,644.011 1489.86,614.62 1682.89,475.67 1496.17,590.224 1369.85,686.098 1344.52,722.802 1435.61,675.497 1443.23,659.311 1621.35,548.79 1693.86,446.435 1711.09,434.315 1622.2,499.239 1593.77,526.08 1546.51,564.3 1529.6,587.469 1505.06,613.516 1420.66,662.018 1514.99,610.538 1351.62,723.785 1329.01,749.345 1277.81,790.486 1311.67,772.848 1257.92,806.414 1210.09,843.971 1230,833.08 1253.63,817.255 1247.34,832.707 1203.44,856.433 1272,815.707 1214.35,845.135 1188.77,858.898 1131.46,904.617 1050.59,959.504 1132.08,921.275 1018.4,982.522 989.518,1003.78 961.212,1030.48 981.083,1015.74 1046.57,986.115 1146.08,912.411 1243.31,850.627 1189.34,866.026 1061.37,940.688 1194.43,878.68 1369.75,757.225 1501.9,656.259 1496.39,633.255 1362.26,706.028 1408.82,684.677 1274.05,783.107 1218.44,829.624 1166.66,867.792 1238.67,838.397 1347.29,771.372 1388.93,726.634 1523.82,628.829 1519.58,600.988 1554.2,574.196 1522.25,580.795 1447.19,645.26 1325.94,734.498 1314.48,753.988 1257.03,800.887 1197.83,848.478 1201.98,856.948 1208.37,853.356 1260.85,812.913 1196.27,857.136 1213.74,852.392 1377.86,752.456 1326.79,761.849 1330.7,741.733 1307.86,766.398 1255.04,792.239 1357.25,731.369 1546.44,586.071 1514.64,596.222 1528.68,567.804 1482.53,612.989 1376.94,700.166 1361.83,719.062 1227.81,814.19 1185.24,851.274 1133.62,891.249 1121.76,913.823 1056.74,956.251 1032.23,978.602 1095.7,944.161 1112.48,931.874 1114.17,927.815 1029.73,987.784 980.284,1019.83 980.859,1011.48 1053.16,982.358 972.273,1027.82 960.553,1025.65 932.774,1047.26 1022.74,1010.1 1026.86,992.12 1062.97,964.909 981.158,1015.6 950.868,1041.32 925.098,1059.86 872.135,1090.67 948.83,1055.04 990.02,1014.49 967.737,1029.23 936.31,1041.31 1023.47,995.979 977.667,1016.96 951.317,1035.94 1122.78,935.75 1134.54,920.869 1225.25,856.615 1346.64,755.387 1405.15,702.06 1388.67,712.062 1542.95,607.073 1503.03,616.815 1436.11,658.373 1467.91,625.525 1304.85,744.011 1345.94,739.189 1370.4,725.419 1271.68,798.258 1302.8,778.546 1229.94,836.738 1288.07,808.291 1202.25,854.419 1359.79,761.022 1376.01,735.207 1407.34,710.069 1483.54,647.372 1548.55,590.709 1493.44,623.355 1490.84,615.989 1455.63,634.057 1347.97,716.687 1264.35,779.662 1159.06,858.752 1289.74,803.498 1292.25,797.912 1267.03,811.479 1317.72,779.985 1201.45,863.69 1132.5,909.648 1094.99,938.391 1165.35,898.246 1141.89,902.91 1207.66,868.812 1261.12,813.647 1290.28,794.56 1344.9,747.499 1339.91,740.896 1311.94,768.172 1213.01,839.176 1226.62,838.383 1271.6,814.166 1196.91,852.38 1043.49,952.626 1068.59,950.197 983.327,1002.52 1031.34,984.594 1063.47,973.53 1040.25,986.834 925.348,1043.65 879.191,1080.7 944.978,1050.83 963.209,1040 985.21,1015.44 1031.52,984.022 1058.86,965.756 1075.58,959.362 1219.53,878.049 1174.17,890.107 1180.7,878.082 1229.15,834.609 1244.13,825.394 1169.06,876.601 1294.44,802.065 1249.53,811.749 1296.79,783.384 1355.65,730.222 1274.48,780.838 1355.8,735.177 1451.41,654.024 1406.88,682.774 1500.61,627.993 1500.48,617.255 1363.8,713.36 1393.6,701.871 1437.85,665.951 1288.4,774.109 1352.02,743.045 1447.72,670.454 1476.94,640.454 1497.5,607.124 1473.82,604.832 1383.98,684.154 1365.98,705.276 1325.68,747.709 1161.75,853.929 1128.73,893.182 1102.67,922.322 1112.98,924.658 1128.25,915.993 1044.1,971.03 1136.09,927.322 1181.41,893.466 1240.78,852.494 1277.47,821.659 1207.19,854.902 1264.81,819.979 1261.83,814.326 1435.65,694.258 1436.03,686.096 1434.88,669.979 1411.67,679.502 1399.68,694.352 1539.22,599.478 1447.62,640.137 1585.79,548.61 1515.45,599.534 1507.46,601.412 1474.85,627.547 1579.34,547.01 1418.68,661.997 1355.03,713.386 1277.86,784.845 1264.74,801.716 1208.36,844.217 1176.99,870.656 1218.53,852.577 1239.84,838.283 1232.11,834.074 1256.6,819.207 1283.43,796.318 1302.15,783.487 1331.95,750.716 1277.98,784.992 1335.6,759.837 1297.09,790.635 1258.73,824.221 1377.4,746.707 1271.06,803.899 1334.81,762.676 1300.48,785.958 1271.02,789.357 1302.17,738.004 1242.37,800.152 1160.61,860.353 1145.53,892.303 1073.18,935.855 1040.09,967.096 985.214,1005.17 997.663,1000.52 912.107,1053.08 936.421,1043.31 979.772,1025.11 1004.29,1013.07 946.351,1039.13 955.135,1039.81 962.994,1039.26 1011.99,1009.38 988.219,1016.97 942.561,1036.03 988.724,1016.09 1069.85,972.662 1108.06,938.431 964.723,1022.13 1030.26,998.783 930.961,1042.11 991.636,1010.88 1016.17,993.31 987.384,1014.01 961.752,1038.05 1092.62,945.991 1141.46,912.19 1369.36,767.572 1322.05,780.066 1297.32,779.851 1308.63,772.914 1300.18,786.891 1459.17,651.882 1437.01,660.191 1416.82,673.799 1370.46,709.642 1252.06,807.266 1280.43,791.404 1200.22,849.604 1244.2,830.853 1316.18,790.109 1254.5,825.387 1232.85,830.355 1306.09,794.216 1354.89,754.955 1390.67,725.855 1311.61,766.795 1296.32,779.769 1261.26,810.719 1187.46,848.412 1146.51,890.724 1180.5,878.102 1149.34,894.208 1212.71,859.186 1178.08,874.53 1259.05,826.733 1252.56,820.614 1307.04,786.834 1186.4,848.73 1269.09,806.023 1260.19,797.494 1281.71,800.149 1316.82,767.837 1221.27,826.096 1280.59,819.935 1280.57,814.584 1238.03,831.257 1253.11,814.684 1205.12,829.967 1233.43,822.924 1245.36,818.856 1197.76,861.97 1233.03,824.754 1345.03,750.844 1456.85,671.696 1434.04,678.274 1419,685.503 1375.44,727.931 1367.06,737.848 1435.05,677.786 1324.03,755.316 1300.21,792.319 1269.6,824.208 1262.7,817.245 1274.65,769.417 1474.49,639.01 1419.17,653.69 1571.32,549.686 1487.51,591.944 1487.84,615.457 1520.47,595.055 1507.75,598.499 1487.09,626.394 1466.93,634.449 1462.39,652.339 1406.67,684.059 1447.12,655.18 1342.57,735.032 1401.69,703.832 1506.91,625.311 1370.1,710.019 1285.58,769.973 1266.81,798.725 1430.66,701.523 1365.78,726.732 1355.35,731.033 1310.96,753.077 1303.91,761.046 1335.23,751.262 1408.61,713.779 1468.02,643.624 1431.01,672.103 1311.53,757.49 1262.47,801.903 1214.92,835.591 1087.86,921.825 1047.15,959.689 1001.25,996.774 945.301,1033.56 972.37,1024.55 995.475,1014.38 1104.37,936.883 1157.8,898.751 1153.78,895.338 1089.64,930.159 1099.33,927.371 1133.29,909.747 1225.34,842.91 1250.76,830.985 1304.21,788.043 1319.72,775.461 1451.74,681.992 1502.14,609.074 1444.78,647.412 1424.96,661.441 1338.51,723.858 1374.55,712.95 1341.14,742.233 1545.13,605.858 1477.47,639.629 1472.82,640.39 1429.67,671.313 1426.3,663.803 1398.06,708.014 1423.05,695.412 1429.76,672.638 1454.33,639.601 1434.23,652.271 1429.28,662.45 1435.04,658.129 1356.49,729.851 1356.49,731.828 1356.85,726.885 1224,826.183 1263.67,815.257 1187.94,862.498 1182.17,865.041 1310.96,781.749 1322.99,773.074 1313.01,780.134 1268.26,806.648 1150.81,896.123 1065.33,949.832 951.83,1016.3 969.106,1013.36 997.119,1007.89 1154.52,915.97 1100.43,933.352 1124.43,923.056 1060.86,959.061 1149.77,892.067 1148.32,897.652 1051.68,958.525 1148.01,906.736 1202.55,868.123 1208.97,868.475 1121.84,914.537 1143.28,902.468 1227.81,854.504 1196.82,882.08 1168.14,891.749 1153.17,886.851 1345.24,746.915 1287.55,781.068 1342.74,729.935 1311.59,754.429 1364.49,729.053 1518.22,622.444 1433.56,673.191 1484.75,628.797 1388.79,699.367 1213.91,828.354 1128.71,894.739 1214.64,856.106 1140.29,905.339 1112.09,922.648 1243.29,835.763 1244.34,829.871 1262.18,825.391 1268.5,804.408 1293.48,793.08 1373.28,738.378 1287.29,780.914 1198.1,836.56 1209.98,843.847 1146.34,881.711 1258.3,823.745 1203.1,851.276 1206.25,845.982 1169.62,875.277 1161.71,882.435 1202.87,865.213 1231.95,850.07 1294.65,806.882 1281.02,806.708 1280.07,799.588 1218.44,830.539 1275.18,803.48 1363.2,741.408 1289.01,783.672 1185.19,846.608 1168.01,868.594 1106.04,915.28 1226.5,849.26 1131.33,900.511 1275.58,816.283 1312.6,785.479 1358.26,751.763 1301.36,785.333 1134.37,899.553 1252.02,841.142 1185.89,879.98 1190.16,871.694 1186.84,879.738 1103.15,940.882 987.761,1009.29 997.748,1008.66 1059.52,968.469 1099.88,946.954 1159.41,913.659 1173.19,885.006 1107.29,927.905 1081.21,942.258 1077.07,951.036 1148.73,900.044 1056.62,965.46 1177.42,889.446 1228.2,846.056 1291.11,785.815 1326.25,763.316 1084.41,935.322 1112.73,924.081 1005.35,987.951 1001.08,996.677 977.431,1013.85 920.98,1047.89 954.733,1033.3 964.602,1031.11 895.591,1067.88 922.665,1046.78 869.196,1087.52 879.768,1085.72 849.543,1105.61 844.729,1103.6 820.314,1114.88 772.806,1140.16 814.253,1123.31 873.079,1095.46 821.198,1121.29 786.141,1140.39 794.236,1133.16 894.817,1085.96 928.065,1064.55 957.323,1046.14 1018.36,1008.28 1019.67,998.142 1141.68,923.978 1128.85,919.037 1180.58,878.772 1332.56,781.524 1465.4,675.039 1430.71,682.927 1452.17,669.701 1418.18,683.072 1304.61,769.046 1239.32,807.481 1132.2,888.04 998.336,977.659 1030.53,976.958 1149.64,913.572 1103.99,933.066 1101.23,940.765 1114.19,931.471 1137.9,911.33 1003.04,1004.23 1120.37,945.421 1083,956.728 1004.42,1000.13 1081.48,954.244 1090.5,954.011 1209.8,875.993 1203.56,872.392 1209.89,857.738 1248.09,832.326 1206.63,841.66 1217.85,837.739 1221.11,829.96 1119.54,911.771 1124.34,916.381 1114.87,927.201 1146.25,912.693 1127.04,918.301 1145.9,905.126 1135.53,894.986 1051.54,953.762 1071.6,948.188 1092.85,936.513 1128.97,894.551 1152.27,893.34 980.898,1003.04 925.542,1048.16 887.839,1075.88 901.862,1067.99 906.241,1069.08 893.347,1072.11 922.31,1061.3 910.006,1076.56 935.234,1058.57 974.931,1032.49 1046.25,981.826 1127.06,931.33 1120.21,920.609 1138.84,912.353 1133.21,917.046 1073.66,947.431 1009.77,997.258 1095.88,947.778 1137.1,923.464 1145.3,920.928 1117.02,917.386 1208.16,860.488 1213.45,858.698 1119.24,926.058 1006.07,987.923 964.945,1016.06 979.98,1014.8 1080.8,945.289 1205.94,855.933 1167.6,890.546 1175.8,891.27 1292.63,790.48 1318.13,764.959 1258.5,800.251 1182.47,855.419 1040.92,945.976 1014,978.853 970.678,1009.4 991.539,1009.71 980.989,1018.13 940.29,1045.8 918.094,1059.56 958.653,1031.97 1092.11,959.106 1184.77,893.604 1261.5,842.12 1312.67,792.866 1253.08,815.892 1218.54,836.754 1236.55,829.766 1163.03,889.545 1183.38,877.702 1245.86,837.214 1249.86,825.945 1215.38,841.619 1162.5,885.518 1140.55,899.929 1119.39,917.051 1052.91,950.008 1062.84,957.349 1079.98,950.692 1027.26,976.468 979.844,1007.12 1028.8,981.035 969.52,1019.82 900.195,1056.09 935.636,1046.79 924.482,1055.61 906.704,1069.71 972.254,1029.43 980.93,1024.17 1012.24,1003.56 1060.85,976.999 1095.86,949.008 1116.69,921.831 1226.07,844.991 1282.19,803.455 1216.99,836.387 1233.8,827.005 1354.34,749.269 1317.81,762.831 1277.03,787.529 1249.63,789.319 1141.13,864.592 1097.26,915.791 1054.04,946.33 1078.61,951.572 1155.57,902.253 1184.92,879.012 1234.06,843.999 1175.24,888.681 1100.16,928.764 1151.41,906.84 1050.96,961.927 1008.53,1002.98 1005.45,1003.89 1125.28,919.491 1105.68,921.532 1046.32,966.324 1068.81,959.949 1001.52,1005.29 1109.25,928.359 1170.17,889.449 1093.83,928.876 1138.97,908.306 1218.95,828.139 1402.49,709.46 1271.72,787.514 1236.33,831.905 1200.57,852.484 1165.31,878.786 1204.7,857.249 1077.32,933.222 1072.21,949.694 1135.06,923.278 1255.4,858.121 1145.36,903.378 1138.27,912.44 1224.85,866.17 1252.48,834.442 1199.56,860.264 1195.76,866.17 1201.6,855.439 1215.03,849.851 1173.27,867.174 1211.76,851.797 1130.99,913.629 1163.54,899.574 1189.24,875.468 1122.35,909.768 1136.54,904.032 1099.32,928.78 1098.14,940.111 1086.03,948.612 1149.3,918.933 1247.48,838.011 1234.51,838.966 1267.73,810.44 1340.05,764.395 1272.55,793.831 1211.77,844.854 1178.82,865.214 1256.13,814.26 1170.32,864.107 1252.74,830.056 1243.27,851.821 1251.06,824.208 1343.59,752.968 1316.56,761.197 1243.96,812.73 1151.12,884.336 1166.66,880.452 1203.45,856.403 1238.06,827.583 1276.12,804.562 1176.77,874.96 1156.16,885.959 1214.57,853.518 1248.36,833.256 1080.1,944.934 1108.13,919.453 955.663,1021.07 884.986,1066.8 911.38,1055.01 919.504,1061.31 891.021,1079.21 866.178,1093.51 833.852,1110.3 972.554,1036.64 890.115,1075.29 987.645,1008.09 1021.11,988.856 1027.42,987.881 1047.15,978.874 1168.31,897.563 1170.95,883.736 1216.25,857.857 1353.84,742.452 1457.73,663.788 1537.22,593.734 1377.39,699.112 1390.35,704.403 1318.75,750.006 1468.21,670.221 1460.74,641.526 1477.5,627.664 1599.89,538.451 1514.66,584.146 1510.02,589.877 1502.43,594.165 1486.45,613.007 1428.17,664.666 1498.14,620.249 1492.91,616.91 1450.07,658.455 1580.12,572.481 1527.5,593.644 1405.88,677.417 1426.14,677.439 1439.73,667.273 1396.99,688.196 1384.66,701.137 1313.35,760.411 1292.6,780.812 1291.13,789.84 1159.07,876.537 1231.78,839.254 1162.2,889.247 1210.13,861.518 1299.15,802.676 1214.93,840.865 1229.56,830.83 1148.27,895.111 1161.98,889.154 1115.91,915.14 1163.92,892.481 1126.8,912.079 1097.3,930.626 1065.27,951.079 1065.21,955.407 1088.76,943.993 1144.48,913.122 1193.4,875.481 1267.26,826.632 1248.66,819.003 1265.67,801.192 1188.12,863.757 1283.01,809.967 1307.06,783.115 1319.34,770.259 1317.06,772.023 1360.76,746.044 1427.72,686.79 1451.59,668.139 1366.8,713.957 1418.17,681.788 1322.86,739.126 1361.14,730.888 1323.62,750.711 1301.54,781.371 1267.85,807.037 1219.07,847.745 1147.96,894.605 1178,882.734 1164.35,895.614 1242.66,813.702 1199.83,845.436 1267.2,807.138 1218.14,837.691 1108.7,918.64 1031.72,963.491 1101.82,932.669 1068.26,958.227 1067.53,959.369 1094.78,943.502 1079.05,947.667 1024.86,983.395 1059.98,969.506 1069.87,952.194 1091.49,951.43 1013.94,987.229 1047.17,972.673 1127.84,927.816 975.752,1025.35 1047.27,977.94 975.475,1013.74 940.607,1049.48 937.797,1047.66 911.505,1055.61 916.313,1060.96 853.306,1094.81 859.119,1094.17 861.189,1096.87 949.914,1052.41 934.486,1049.28 960.256,1039.95 907.677,1067.89 933.27,1054.56 961.731,1035.37 1037.8,986.756 1071.22,955.601 1167.06,893.332 1110.63,931.109 1170.03,880.844 1154.18,892.613 1069.49,957.902 1043.68,970.87 1025.08,985.51 939.803,1041.13 985.525,1014.95 1036.74,986.567 1078.33,962.881 1130.33,919.444 1024.85,987.071 1183.63,895.236 1057.33,960.115 1059.62,959.483 1038.17,970.552 1109.91,922.93 986.125,1013.03 1058.91,979.992 1063.21,963.325 974.876,1012.13 997.962,1014.51 991.548,1013.21 1035.29,987.412 1161.62,898.949 1285.6,817.974 1350.25,767.025 1360.28,741.891 1428.39,689.223 1330.07,742.375 1259.97,804.665 1156.3,881.251 1283.86,803.337 1271.72,809.786 1278.44,794.793 1266.7,800.455 1297.9,782.037 1361.89,730.256 1494.12,641.397 1365.61,709.492 1364.77,714.935 1345.51,747.001 1456.53,664.492 1510.06,612.586 1578.19,558.202 1648.13,484.242 1644.11,477.29 1747.67,401.635 1513.24,571.191 1433.21,642.463 1355.22,711.219 1271.56,778.135 1225.72,815.034 1214.49,833.791 1253.89,820.782 1154.62,880.065 1156.47,887.059 1215.64,861.993 1144.43,901.987 1109.82,928.487 1084.79,940.728 1125.17,922.934 1155.66,897.823 1072.17,952.78 1080.09,951.696 1172.28,896.912 1135.82,915.696 1206.13,865.735 1255.47,821.437 1295.19,793.922 1259.69,824.487 1360.49,755.148 1406.46,711.799 1488.96,632.349 1432.07,664.834 1315.36,753.288 1159.65,866.117 1105.31,910.137 1084.32,931.249 1112.82,929.962 1085.8,941.006 1079.8,947.962 963.708,1021.59 919.899,1047.75 893.342,1067.34 943.153,1046.11 863.666,1096.9 865.444,1096.19 942.263,1058.72 899.487,1068.77 894.266,1077.63 872.595,1090.13 793.69,1137.73 839.822,1118.03 886.477,1090.85 927.835,1063.19 902.456,1070.73 903.821,1064.47 961.559,1038.8 1057.23,975.578 1121.83,929.059 1109.61,935.875 1136.59,915.84 1154.62,897.951 1062.45,964.565 1153.96,910.463 1129.58,916.718 1160.31,902.369 1082.72,955.652 1174.88,901.629 1233.31,859.156 1287.77,814.04 1507.86,655.067 1485.95,645.629 1363.35,723.495 1457.11,662.99 1548.16,596.811 1501.62,627.716 1360.04,710.49 1353.59,733.267 1296.6,777.678 1100.61,911.583 1196.95,869.839 1170.61,886.749 1109.89,923.074 1134.3,918.744 1101.3,937.259 1177.54,895.986 1212.89,848.468 1368.22,745.075 1417.08,692.913 1444,667.235 1589.51,550.26 1594.85,514.224 1680.88,454.113 1673.93,453.674 1684.35,435.345 1561.96,537.039 1558.91,553.138 1615.33,509.139 1612.86,527.038 1590.31,541.373 1553.4,563.488 1574.42,554.295 1572.38,554.323 1442.32,643.886 1424.06,668.134 1367.7,704.765 1245.1,798.347 1259.5,799.71 1270.7,805.003 1253.78,812.39 1211.66,842.217 1195.26,861.366 1183.14,871.285 1079.26,934.807 1059.27,951.324 1018.27,978.432 1006.29,992.644 989.117,1007.01 1012.76,993.95 1042.9,978.333 984.181,1014.36 937.809,1041.9 943.785,1042.87 922.182,1054.24 953.717,1040.86 921.771,1044.6 978.18,1014.67 933.945,1042.11 999.832,1007.6 1000.39,1000.87 999.405,1001.75 997.925,998.549 1175.43,884.729 1176.21,883.082 1163.49,892.404 1019.4,987.559 1156.25,900.097 1246.48,826.327 1266.56,801.421 1123.05,897.647 1109.11,921.718 1117.48,911.579 1112.72,908.36 974.373,994.534 951.534,1023.79 910.249,1053.97 879.438,1078.9 957.588,1040.21 1016.26,997.218 1140.88,921.799 1294.62,816.709 1274.69,816.036 1226.82,842.635 1227.22,841.224 1243.33,815.667 1206.82,849.785 1225.72,845.004 1078.37,943.582 1128.34,921.639 1155.78,895.726 1174.23,872.585 1218.49,844.214 1127.94,908.331 1050.95,961.328 1092.39,933.15 1031.06,967.539 1063.68,947.823 974.131,1011.95 981.44,1009.18 918.974,1046.44 865.044,1081.23 978.015,1025.69 995.271,1010.09 1095.77,957.413 1080.02,944.332 1024.32,973.772 1150.62,916.923 1096.21,943.655 1189.47,882.618 1257.96,820.332 1276.8,808.437 1292.33,776.959 1194.87,842.829 1192.2,853.68 1223.14,837.65 1293.98,798.217 1142.68,911.656 1155.59,902.545 1164.37,889.758 1191.58,883.162 1144.31,903.77 1162.91,889.654 1149.88,898.275 1138.18,906.957 1137.98,909.576 1117.5,931.243 1195.67,858.406 1160.32,882.423 1191.35,876.764 1411.02,722.483 1372.29,732.079 1350.5,746.344 1136.04,881.072 1008.85,970.676 1034.11,970.354 1041.42,974.381 1101.89,941.477 1164.58,905.034 1123.36,923.23 1283.97,826.774 1273.27,819 1255.7,818.824 1228.39,834.271 1095.39,919.499 1101.47,922.109 1075.49,946.324 1050.96,966.353 1075.56,955.465 1063.51,955.168 1073.37,952.875 1115.72,929.028 1193.7,871.742 1139.58,904.528 1090.63,930.222 1083.35,941.936 1026.91,982.816 948.363,1039.55 1020.49,1002.2 1008.67,1000.5 950.496,1033.07 958.372,1023.21 983.069,1013.19 1011.89,994.36 1039.83,970.134 986.384,1016.1 1062.53,982.722 1013.63,1010.02 1135.77,937.964 1172.55,891.487 1047.81,958.809 1102.39,939.059 1143.55,893.479 1068.55,944.301 1144.71,905.285 1197.69,873.686 1187.57,869.294 1143.61,902.019 1058.96,957.443 922.814,1041.71 899.983,1062.23 894.006,1072.56 825.759,1108.84 780.729,1133.58 718.853,1172.81 724.636,1175.93 773.449,1154.06 757.56,1159.07 772.416,1151.36 798.77,1134.42 816.173,1126.53 803.327,1129.05 784.172,1135.33 806.639,1125.9 839.381,1111.27 986.412,1033.49 1032.53,992.54 997.256,1011.69 1037.09,987.071 1023.41,995.653 1082.83,954.931 1101.01,941.767 1053.11,968.368 940.543,1026.82 938.45,1039.52 946.903,1043.65 1022.57,996.197 1006.77,1010.61 1109.67,948.945 1064.35,965.695 1078.61,950.669 1181.24,878.698 1212.63,839.425 1165.74,878.024 1142.63,901.939 1126.36,922.669 1139.61,922.626 1203.64,852.074 1203.48,851.223 1253.09,826.69 1170.11,879.792 1148.49,904.821 1057.56,945.497 1102.64,934.047 1174.19,883.145 1004.63,987.875 982.139,1004.37 968.808,1015.58 1052.25,972.362 1055.42,959.894 1011.94,998.663 1073.74,945.632 1038.75,974.66 1063.88,961.173 1112.75,919.019 1092.67,944.191 1083.53,943.097 993.447,1011.34 1001.91,1004.71 984.463,1018.32 1075.86,972.954 1164.76,900.036 1045.34,966.601 1020.09,987.684 922.266,1049.24 879.971,1079.54 883.262,1081.58 953.381,1044.68 916.222,1062.32 882.536,1075.39 960.308,1035.67 1016.94,999.632 1138,922.805 1111.51,934.551 1095.85,937.046 1143.39,913.558 1170.41,876.358 1195.7,861.632 1284.28,794.58 1424.68,703.967 1332.63,753.667 1508.91,635.591 1464.21,649.33 1417.81,658.715 1406.62,680.282 1370.03,716.914 1417.79,683.007 1233.97,806.78 1242.6,816.083 1185.76,854.197 1186.35,868.132 1225.34,848.514 1142.15,907.949 1209.94,872.657 1226.82,847.831 1301.43,800.176 1334.16,764.155 1336.93,753.393 1281.44,781.814 1315.77,764.306 1449.3,666.082 1424.78,662.316 1448.68,653.58 1498.93,610.874 1656.65,504.06 1651.19,492.523 1741.1,409.931 1629.16,475.301 1440.94,620.962 1389.2,679.552 1476.74,631.938 1533.36,600.874 1522.41,596.109 1506.14,601.712 1516.76,593.641 1443.8,644.695 1423.79,668.382 1377.75,701.062 1236.73,798.87 1264.47,801.029 1213.3,838.116 1274.87,802.781 1237.26,834.02 1237.3,831.393 1262.86,812.905 1305.91,785.619 1259.83,809.35 1274.84,804.093 1270.68,807.384 1321.13,769.66 1362.94,743.643 1297.23,782.887 1225.35,841.599 1080.52,944.18 966.492,1009.87 901.293,1046.2 904.252,1061.69 842.698,1099.26 865.928,1093.29 868.609,1096.72 882.392,1089.18 967.018,1040.52 961.647,1040.02 972.97,1025.76 995.002,1006.73 1101.52,950.432 1135.96,922.432 1193.25,864.981 1258.73,818.366 1366.98,743.423 1354.3,739.837 1388.93,712.43 1396.33,689.718 1424.2,690.187 1307.78,747.814 1347.5,711.676 1340.57,736.631 1252.59,792.987 1193.76,848.716 1093.17,914.109 1102.82,928.481 1002.39,990.65 1083.48,956.009 1096.39,938.45 1075.73,947.76 1032.16,973.276 1024.93,981.408 963.576,1024.12 1091.89,953.344 1170.35,901.352 1189.41,878.333 1207.91,867.902 1287.88,804.377 1225.47,844.649 1077.57,934.867 1039.03,971.411 1008.93,989.874 1045.12,979.267 1031.19,991.754 1046.12,976.337 1096.94,950.917 1086.52,940.053 997.358,988.962 1061.54,965.434 1056.17,970.248 1064.21,964.674 1109.6,926.622 1250.58,845.997 1152.89,913.888 1157.28,908.978 1258.98,840.338 1185.39,891.384 1199.78,866.615 1273.92,807.623 1337.63,762.211 1499.09,623.802 1320.06,731.577 1363.72,709.409 1376.09,701.373 1449.32,645.075 1596,552.769 1538.31,597.832 1483.09,621.185 1532.23,578.775 1498.19,597.673 1491.78,618.1 1396.07,681.923 1424.53,672.581 1537.05,589.288 1316.37,749.043 1423.77,690.87 1513.78,614.083 1479.75,640.74 1621.25,519.031 1528.28,575.984 1586.52,529.748 1552.53,556.104 1447.83,634.967 1384.04,686.015 1392.33,698.861 1364.05,720.102 1356.64,731.919 1314.32,766.342 1360.07,737.53 1355.07,752.381 1265.9,807.59 1244.98,830.527 1144.82,891.26 1166.24,886.107 1299.08,802.352 1364.37,744.001 1280.42,791.674 1302.59,784.313 1192.88,868.892 1034.42,969.405 937.638,1038.42 918.774,1055.53 947.752,1045.92 1015.04,1009.34 962.624,1027.14 964.932,1034.62 999.957,1020.24 1034.1,990.85 1018.26,999.195 970.397,1026.89 1036.31,995.453 1031.68,985.066 1047.36,978.578 1058.27,968.748 1099.63,930.224 1114.44,928.734 1246.68,839.177 1142.7,883.82 1161.6,882.265 1146.19,900.652 1131.72,903.848 1182.75,877.86 1244.81,847.522 1391.11,725.041 1522.57,637.826 1516.94,615.842 1549.43,580.167 1583.28,538.308 1471.09,619.841 1427.96,648.433 1343.33,717.505 1247.84,796.236 1316.91,767.724 1248.2,817.034 1296.56,798.089 1395.37,732.514 1446.32,683.233 1376.97,709.52 1399.47,702.116 1341.38,738.611 1429.93,689.59 1357.61,734.445 1297.05,796.881 1280.97,798.864 1519.42,629.376 1492.08,628.424 1384.41,690.604 1258.99,784.738 1209.18,828.839 1234.88,825.151 1291.28,796.137 1310.32,783.07 1320.52,768.857 1458.23,680.603 1496.64,630.878 1456.08,645.748 1398.21,688.82 1415.13,670.849 1385.97,691.694 1340.76,746.539 1350.77,738.659 1255.3,800.715 1277.81,796.052 1217.8,842.335 1227.26,841.998 1175.13,871.853 1168.59,872.579 1124.87,910.851 1205.9,870.122 1146.36,893.69 1235.6,845.152 1287.67,807.275 1368.43,756.051 1351.52,746.734 1449.8,678.801 1368.39,716.631 1358.96,728.041 1349.2,727.999 1346.9,741.304 1290.74,780.339 1226.08,821.982 1158.01,876.715 1269.16,821.62 1403.84,720.423 1375.09,730.492 1331.03,758.096 1387.88,711.08 1397.01,703.687 1346.44,730.736 1354.99,731.232 1332.21,751.821 1324.43,752.7 1263.06,791.772 1184.07,859.414 1224.12,850.992 1088.24,934.742 1049.15,961.717 1143.4,916.054 1097.89,932.478 1023.26,988.47 973.568,1019.84 965.163,1027.39 917.498,1056.63 987.295,1020.91 974.917,1026.1 950.424,1039.77 927.806,1049.02 963.639,1026.77 980.249,1025.69 996.439,1018.09 1095.9,954.19 1200.39,870.42 1165.14,877.364 1186.63,871.219 1306.12,780.216 1379.52,735.283 1355.75,730.127 1297.89,769.91 1361.78,727.677 1308.33,772.646 1264.62,801.684 1282.07,797.102 1297.02,784.678 1243.03,824.234 1151.33,893.133 1263.44,825.793 1256.87,820.804 1148.12,890.993 1090.25,943.343 1038.56,963.482 1023.02,983.093 970.341,1024.13 1024.44,993.482 1005.1,1003.51 1041.21,976.843 1000.12,998.442 970.498,1021.46 958.063,1030.44 883.673,1069.68 879.335,1070.77 941,1036.64 1025.79,991.401 972.18,1012.1 953.705,1027.77 927.165,1046.65 1008.91,1006.84 1048.05,964.185 1128.87,922.16 1229.99,853.205 1166.02,882.601 1102.88,921.198 1096.93,926.761 1071.93,939.066 1224.35,846.128 1161.67,884.759 1251.38,829.559 1289.25,799.336 1490.17,643.766 1419.69,678.371 1350.26,729.278 1440.25,654.632 1425.66,668.465 1510.85,615.232 1372.37,718.991 1324.19,763.634 1313.31,769.276 1243.09,819.597 1177.43,880.748 1186.44,873.17 1215.41,841.967 1228.7,838.296 1326.69,770.804 1354.31,747.762 1357.93,741.428 1235.63,824.13 1243.53,823.671 1190.2,868.644 1162.58,882.306 1083.95,945.391 1058.99,960.078 1051.31,966.888 1047.04,973.142 1062.58,963.853 1128.03,921.3 1157.09,895.35 1161.97,893.515 1249.33,840.418 1225.33,850.286 1157,884.308 1239.69,846.156 1213.65,862.413 1139.55,895.558 1184.38,869.863 1361.37,744.773 1327.43,761.733 1241.9,828.854 1346.22,758.631 1307.63,769.086 1208.93,845.924 1271.75,799.218 1276.74,805.439 1170.65,868.275 1271.08,789.707 1301.9,776.717 1320.32,776.455 1348.48,749.492 1500.96,621.537 1462.48,642.156 1458.77,645.047 1455.98,649.981 1466.04,658.364 1522.18,612.647 1481.78,635.315 1292.43,774.209 1283.32,791.588 1270.49,798.782 1233.13,842.776 1212.64,850.244 1182.73,867.166 1095.4,928.506 1042.58,971.704 1032.34,979.505 936.743,1035.76 943.116,1035.92 776.759,1123.9 773.282,1141.3 831.786,1119.33 832.053,1118.46 829.762,1119.84 880.652,1093.42 877.647,1090.1 872.212,1095.13 901.5,1077.44 893.274,1072.29 890.228,1075.71 920.763,1064.44 833.501,1110.57 1009.43,1013.54 1003.64,1012.82 944.153,1045.36 1108.86,950.859 1162.75,903.825 1163.8,893.256 1156.59,895.603 1166.89,896.323 1089.94,941.222 985.605,1001.4 929.101,1049.29 963.835,1031.99 1092.88,957.453 1108.66,942.419 1313.88,810.831 1353.71,774.106 1357.89,753.122 1342.77,747.223 1295.86,772.087 1377.87,729.811 1377.77,724.481 1351.63,733.337 1331.67,751.949 1465.34,653.9 1537.92,592.563 1419.3,670.23 1387.75,678.266 1398.15,696.866 1310.31,761.759 1266.94,803.995 1342.86,761.791 1337.67,762.096 1464.92,675.746 1453.49,667.823 1422.8,679.094 1446.19,650.854 1487.52,633.483 1385.77,687.931 1372.48,706.675 1406.24,690.251 1346.85,725.173 1323.34,750.819 1253.3,800.817 1123.3,895.685 1198.07,862.168 1206.5,860.453 1162.59,894.118 1081.59,942.53 1106.4,925.816 1136.5,903.843 1291.82,787.201 1367.25,730.764 1397.49,703.188 1334.86,724.327 1262.5,797.024 1200.21,841.412 1105.87,908.734 1159.05,889.305 1074.79,940.806 965.746,1012.72 985.096,1007.69 970.927,1019.6 958.342,1029.82 929.958,1047.33 896.04,1072.81 909.904,1063.42 909.322,1067.5 942.157,1049.03 892.915,1079.19 863.165,1099.08 872.465,1090.79 745.356,1156.68 767.705,1154.42 787.702,1147.32 868.325,1103.46 809.775,1124.46 837.935,1115.7 850.751,1105.14 815.379,1127 867.852,1102.93 859.085,1108.23 858.405,1106.66 831.052,1117.4 804.173,1129.42 845.548,1111.74 860.415,1103.37 891.381,1085.8 852.618,1105.47 939.98,1056.98 1037.59,1000.45 1005.55,998.812 1033.2,979.953 1002.07,996.819 1057.5,970.063 1108.87,928.797 1150.05,906.501 1134.86,908.448 1196.46,868.805 1189.43,881.831 1113.68,940.701 1129.86,924.016 1153.31,899.052 1228.12,846.878 1347.36,762.414 1369.51,748.175 1446.51,656.397 1349.76,726.543 1302.13,776.807 1289.78,797.957 1361.85,743.228 1448.07,669.747 1402.47,682.749 1417.07,669.918 1374.21,706.77 1326.68,738.791 1273.17,788.148 1292.35,791.289 1220.14,832.023 1142.1,901.672 1163.92,888.034 1124.05,897.966 1090.61,927.696 1065.49,951.099 1030.65,972.89 1079.99,948.352 1126.89,916.032 1044.44,967.613 1141.97,906.702 1168.1,889.82 1251.7,821.177 1188.64,863.62 1240.61,826.231 1033.81,954.48 1096.17,926.949 1075.57,941.097 1072.82,947.437 1084.06,945.868 1046.93,965.296 1027.45,984.901 1014.06,979.68 1210.47,869.509 1178.16,885.669 1288.59,811.097 1280.25,797.101 1326.6,766.512 1163.08,896.761 1176.63,888.257 1220.28,868.088 1174.13,888.891 1192.57,867.414 1291.22,797.739 1297.26,780.511 1357.07,730.079 1347.76,727.637 1248.65,807.215 1117.94,898.629 1205.6,863.427 1106.73,930.478 1073.38,946.021 1208.84,838.843 1261.55,813.352 1326.21,755.034 1393.67,711.54 1487.48,641.847 1525.8,608.241 1385.24,697.462 1399.56,688.946 1283.87,774.692 1207.68,834.664 1276.73,804.928 1299.13,792.594 1242.02,820.316 1250.76,815.128 1173.82,867.866 1148.12,891.48 1209.03,849.033 1268.05,817.773 1302.85,798.236 1265.2,815.856 1321.56,771.707 1228.54,833.016 1195.91,864.414 1334.94,786.078 1315.58,778.543 1449.45,695.277 1455.65,671.233 1450.98,655.858 1340.95,732.831 1507.09,638.464 1615,555.006 1637.73,509.294 1653.95,478.971 1675.56,458.928 1624.42,500.33 1666.67,469.54 1661.98,453.257 1634.47,485.7 1519.52,561.223 1537.71,563.985 1419.79,653.962 1521.51,601.235 1469.54,633.138 1435.39,657.521 1387.63,699.726 1378.42,715.345 1367.39,727.317 1414.64,692.209 1415.91,691.69 1361.63,717.315 1302.16,768.24 1310.84,773.463 1311,780.853 1454.81,674.5 1293.48,775.76 1261.55,798.082 1256.74,801.908 1157.64,877.92 1165.01,877.943 1185.83,877.133 1134.42,906.636 1125.08,910.565 1152.47,890.632 1249.56,823.46 1216.14,834.276 1241.97,830.85 1265.29,814.132 1315.03,770.247 1292.05,773.149 1196.67,848.974 1293.05,796.857 1303.33,782.909 1339.37,758.554 1326.67,761.435 1520.39,642.969 1524.02,620.266 1529.28,598.287 1557.92,566.253 1574.75,543.705 1570.48,545.525 1789.67,385.529 1708.32,417.691 1760.31,373.762 1587.17,498.328 1599.72,503.382 1505.85,575.966 1410.22,658.163 1378.89,693.441 1482.17,640.352 1542.17,596.249 1650.4,514.593 1522.31,590.394 1470.68,624.547 1497.67,614.08 1516.99,596.61 1544.85,578.714 1473.17,629.302 1413.25,673.547 1299.07,753.358 1299.93,770.506 1287.17,786.43 1279.49,795.346 1384.98,735.355 1279,799.188 1206.99,852.69 1178.85,880.497 1197.86,875.122 1219.39,854.687 1256.72,830.76 1336.22,763.592 1434.59,684.472 1522.94,602.388 1465.26,638.089 1430.62,659.266 1285.26,772.846 1408.16,699.718 1350.81,733.699 1295.99,780.093 1213.07,839.022 1248.02,823.708 1255.21,821.765 1196.4,859.448 1238.54,827.747 1170.63,879.069 1151.21,885.369 1159.33,881.777 1237.06,846.524 1238.71,828.286 1228.59,834.643 1146.33,897.253 1228.45,851.496 1170.66,880.544 1226.3,846.808 1295.69,803.081 1332.9,771.823 1335.95,759.228 1310.78,769.205 1374.88,726.38 1385.84,721.06 1206.32,850.453 1132.65,904.962 1189.5,872.491 1250.81,820.044 1294.65,794.771 1287.24,794.997 1212.51,847.813 1203.97,856.372 1263.21,825.938 1289.88,797.076 1320.48,773.58 1298.3,784.711 1365.72,743.107 1434.76,686.092 1532,613.652 1490.32,615.792 1474.48,624.671 1495.93,612.588 1421.29,672.591 1407.66,688.836 1454.58,652.438 1394.25,689.487 1316.03,757.586 1339.58,744.152 1375.26,730.791 1316.49,754.451 1463.7,662.498 1339.17,748.475 1151.6,871.533 1191.42,864.273 1265.31,825.843 1307.36,790.868 1346.77,756.099 1492.66,643.146 1585.38,564.897 1536.39,580.218 1366.04,704.242 1412.83,680.878 1481.99,638.421 1421.54,681.223 1456.01,659.9 1460.36,651.586 1345.06,745.511 1329.79,761.915 1259.88,807.477 1371.58,738.186 1350.89,737.843 1375.19,709.022 1380.73,703.279 1371.88,717.556 1400.06,702.751 1428.64,682.16 1248.68,801.87 1358.29,742.898 1302.53,796.495 1312.89,784.807 1225.55,835.72 1118.22,913.131 1077.61,933.774 1083.91,939.357 1099.39,939.185 1223.49,851.656 1144.07,886.669 1133.21,903.078 1106.1,919.524 1133.14,899.012 1024.2,981.028 1036.48,975.479 996.84,996.593 930.371,1037.79 1002.09,1005.47 873.452,1083.95 871.171,1088.58 888.369,1085.76 978.09,1033.61 1002.59,1017.28 975.509,1022.9 928.547,1050.34 959.86,1035.79 978.2,1028.55 942.947,1042.29 927.465,1049.81 987.13,1018.11 1017.33,996.008 996.047,1006.87 981.993,1014.67 1053.65,961.364 1007.41,988.519 989.368,1000.77 1089.35,929.232 1071.43,953.086 937.83,1035.63 878.288,1080.28 941.597,1050.4 971.405,1028.2 936.676,1047.11 990.149,1006.46 1016.76,997.211 961.204,1026.11 1038.21,983.991 1102.33,946.98 1195.28,887.492 1196.52,872.76 1105.88,925.867 1125.95,920.864 1198.32,879.29 1179.29,891.596 1309.48,794.547 1259.97,812.074 1190.9,864.163 1153.05,870.636 1346.26,753.973 1186.15,868.151 1235.04,845.821 1165.77,886.199 1345.07,775.542 1338.94,743.963 1417.76,684.483 1235.74,830.442 1216.64,849.4 1126.2,918.668 1132.62,924.089 1139.28,904.869 1136.17,900.931 1144.08,908.823 1194.41,873.897 1271.12,825.904 1226.58,839.28 1222.27,840.915 1212.39,845.712 1173.44,870.741 1264.29,804.305 1378.77,719.413 1500.44,619.699 1550.48,568.001 1509.4,595.888 1407.02,670.093 1401.08,699.126 1307.3,759.833 1465.65,669.238 1563.69,567.932 1524.44,573.125 1529.27,581.106 1439.91,642.6 1353.35,708.198 1351,723.556 1322.39,758.458 1317.82,767.442 1408.9,709.769 1404.34,711.416 1400.64,719.437 1406.13,707.54 1245.87,816.747 1265.43,802.72 1250.94,805.673 1438.65,680.994 1481.14,638.074 1578.82,560.441 1548.63,567.449 1535.05,587.407 1449.8,649.839 1467.67,651.672 1495.91,615.802 1473.11,628.54 1416.98,678.203 1523.98,603.154 1512.28,600.407 1495.11,614.791 1688.16,483.637 1537.56,582.759 1365.74,700.447 1408.07,685.877 1236.37,801.73 1203.16,834.124 1086.7,919.557 1007.24,976.53 922.677,1036.58 934.546,1041.16 954.412,1038.2 1011.53,1008.53 1046.17,981.467 1095.59,950.213 1095.49,944.705 1173.31,900.245 1201.13,879.361 1099.41,931.907 1142.88,908.557 1063.84,950.323 1001.07,993.688 1013.82,993.174 998.394,1013.98 995.765,1012.88 937.11,1051.18 912.52,1067.05 881.896,1086.89 873.922,1090.99 982.923,1022.01 986.173,1019.72 1103.93,943.247 1048.95,970.873 1189.68,890.044 1285.29,818.236 1290.33,800.543 1316.86,789.724 1339.49,752.345 1353.15,745.651 1419.99,708.493 1403.2,701.895 1405.95,700.963 1331.38,748.415 1351.69,736.773 1272.31,778.265 1229.91,809.694 "/>
<path clip-path="url(#clip610)" d="M228.998 198.898 L588.673 198.898 L588.673 95.2176 L228.998 95.2176  Z" fill="#ffffff" fill-rule="evenodd" fill-opacity="1"/>
<polyline clip-path="url(#clip610)" style="stroke:#000000; stroke-linecap:round; stroke-linejoin:round; stroke-width:4; stroke-opacity:1; fill:none" points="228.998,198.898 588.673,198.898 588.673,95.2176 228.998,95.2176 228.998,198.898 "/>
<polyline clip-path="url(#clip610)" style="stroke:#009af9; stroke-linecap:round; stroke-linejoin:round; stroke-width:4; stroke-opacity:1; fill:none" points="253.409,147.058 399.875,147.058 "/>
<path clip-path="url(#clip610)" d="M434.911 128.366 Q431.809 133.69 430.305 138.898 Q428.8 144.106 428.8 149.453 Q428.8 154.801 430.305 160.055 Q431.832 165.287 434.911 170.588 L431.207 170.588 Q427.735 165.148 425.999 159.893 Q424.286 154.639 424.286 149.453 Q424.286 144.291 425.999 139.06 Q427.712 133.828 431.207 128.366 L434.911 128.366 Z" fill="#000000" fill-rule="nonzero" fill-opacity="1" /><path clip-path="url(#clip610)" d="M464.726 138.412 L455.351 151.027 L465.212 164.338 L460.189 164.338 L452.642 154.152 L445.096 164.338 L440.073 164.338 L450.142 150.773 L440.929 138.412 L445.953 138.412 L452.828 147.648 L459.703 138.412 L464.726 138.412 Z" fill="#000000" fill-rule="nonzero" fill-opacity="1" /><path clip-path="url(#clip610)" d="M472.318 158.458 L477.202 158.458 L477.202 162.439 L473.406 169.847 L470.42 169.847 L472.318 162.439 L472.318 158.458 Z" fill="#000000" fill-rule="nonzero" fill-opacity="1" /><path clip-path="url(#clip610)" d="M497.087 166.745 Q495.281 171.375 493.568 172.787 Q491.855 174.199 488.985 174.199 L485.582 174.199 L485.582 170.634 L488.082 170.634 Q489.841 170.634 490.813 169.8 Q491.786 168.967 492.966 165.865 L493.73 163.921 L483.244 138.412 L487.758 138.412 L495.86 158.689 L503.962 138.412 L508.475 138.412 L497.087 166.745 Z" fill="#000000" fill-rule="nonzero" fill-opacity="1" /><path clip-path="url(#clip610)" d="M515.443 158.458 L520.327 158.458 L520.327 162.439 L516.531 169.847 L513.545 169.847 L515.443 162.439 L515.443 158.458 Z" fill="#000000" fill-rule="nonzero" fill-opacity="1" /><path clip-path="url(#clip610)" d="M527.573 138.412 L547.804 138.412 L547.804 142.301 L531.785 160.935 L547.804 160.935 L547.804 164.338 L526.994 164.338 L526.994 160.449 L543.012 141.815 L527.573 141.815 L527.573 138.412 Z" fill="#000000" fill-rule="nonzero" fill-opacity="1" /><path clip-path="url(#clip610)" d="M553.637 128.366 L557.341 128.366 Q560.813 133.828 562.526 139.06 Q564.262 144.291 564.262 149.453 Q564.262 154.639 562.526 159.893 Q560.813 165.148 557.341 170.588 L553.637 170.588 Q556.716 165.287 558.22 160.055 Q559.748 154.801 559.748 149.453 Q559.748 144.106 558.22 138.898 Q556.716 133.69 553.637 128.366 Z" fill="#000000" fill-rule="nonzero" fill-opacity="1" /></svg>
