<?xml version="1.0" encoding="utf-8"?>
<svg xmlns="http://www.w3.org/2000/svg" xmlns:xlink="http://www.w3.org/1999/xlink" width="600" height="400" viewBox="0 0 2400 1600">
<defs>
  <clipPath id="clip480">
    <rect x="0" y="0" width="2400" height="1600"/>
  </clipPath>
</defs>
<path clip-path="url(#clip480)" d="M0 1600 L2400 1600 L2400 0 L0 0  Z" fill="#ffffff" fill-rule="evenodd" fill-opacity="1"/>
<defs>
  <clipPath id="clip481">
    <rect x="112" y="47" width="2242" height="1440"/>
  </clipPath>
</defs>
<path clip-path="url(#clip481)" d="M-600.977 2416.7 L-600.977 2146.81 L-255.116 2011.86 L343.933 2089.77 L343.933 2359.67 L-1.92798 2494.62 L-600.977 2416.7  Z" fill="#ffffff" fill-rule="evenodd" fill-opacity="1"/>
<polyline clip-path="url(#clip481)" style="stroke:#000000; stroke-linecap:round; stroke-linejoin:round; stroke-width:2; stroke-opacity:0.1; fill:none" points="737.392,1223.6 1152.85,863.798 1152.85,144.196 "/>
<polyline clip-path="url(#clip481)" style="stroke:#000000; stroke-linecap:round; stroke-linejoin:round; stroke-width:2; stroke-opacity:0.1; fill:none" points="887.154,1266.83 1302.62,907.03 1302.62,187.428 "/>
<polyline clip-path="url(#clip481)" style="stroke:#000000; stroke-linecap:round; stroke-linejoin:round; stroke-width:2; stroke-opacity:0.1; fill:none" points="1036.92,1310.06 1452.38,950.263 1452.38,230.661 "/>
<polyline clip-path="url(#clip481)" style="stroke:#000000; stroke-linecap:round; stroke-linejoin:round; stroke-width:2; stroke-opacity:0.1; fill:none" points="1186.68,1353.3 1602.14,993.496 1602.14,273.894 "/>
<polyline clip-path="url(#clip481)" style="stroke:#000000; stroke-linecap:round; stroke-linejoin:round; stroke-width:2; stroke-opacity:0.1; fill:none" points="1336.44,1396.53 1751.9,1036.73 1751.9,317.126 "/>
<polyline clip-path="url(#clip481)" style="stroke:#000000; stroke-linecap:round; stroke-linejoin:round; stroke-width:2; stroke-opacity:0.1; fill:none" points="1396.92,1399.69 677.318,1191.96 677.318,472.355 "/>
<polyline clip-path="url(#clip481)" style="stroke:#000000; stroke-linecap:round; stroke-linejoin:round; stroke-width:2; stroke-opacity:0.1; fill:none" points="1474.83,1332.21 755.23,1124.48 755.23,404.882 "/>
<polyline clip-path="url(#clip481)" style="stroke:#000000; stroke-linecap:round; stroke-linejoin:round; stroke-width:2; stroke-opacity:0.1; fill:none" points="1552.74,1264.74 833.142,1057.01 833.142,337.408 "/>
<polyline clip-path="url(#clip481)" style="stroke:#000000; stroke-linecap:round; stroke-linejoin:round; stroke-width:2; stroke-opacity:0.1; fill:none" points="1630.66,1197.27 911.055,989.535 911.055,269.934 "/>
<polyline clip-path="url(#clip481)" style="stroke:#000000; stroke-linecap:round; stroke-linejoin:round; stroke-width:2; stroke-opacity:0.1; fill:none" points="1708.57,1129.79 988.967,922.061 988.967,202.46 "/>
<polyline clip-path="url(#clip481)" style="stroke:#000000; stroke-linecap:round; stroke-linejoin:round; stroke-width:2; stroke-opacity:0.1; fill:none" points="1786.48,1062.32 1066.88,854.588 1066.88,134.986 "/>
<polyline clip-path="url(#clip481)" style="stroke:#000000; stroke-linecap:round; stroke-linejoin:round; stroke-width:2; stroke-opacity:0.1; fill:none" points="664.934,1155.57 1080.4,795.767 1800,1003.5 "/>
<polyline clip-path="url(#clip481)" style="stroke:#000000; stroke-linecap:round; stroke-linejoin:round; stroke-width:2; stroke-opacity:0.1; fill:none" points="664.934,1037.59 1080.4,677.784 1800,885.515 "/>
<polyline clip-path="url(#clip481)" style="stroke:#000000; stroke-linecap:round; stroke-linejoin:round; stroke-width:2; stroke-opacity:0.1; fill:none" points="664.934,919.602 1080.4,559.801 1800,767.533 "/>
<polyline clip-path="url(#clip481)" style="stroke:#000000; stroke-linecap:round; stroke-linejoin:round; stroke-width:2; stroke-opacity:0.1; fill:none" points="664.934,801.619 1080.4,441.818 1800,649.55 "/>
<polyline clip-path="url(#clip481)" style="stroke:#000000; stroke-linecap:round; stroke-linejoin:round; stroke-width:2; stroke-opacity:0.1; fill:none" points="664.934,683.636 1080.4,323.835 1800,531.567 "/>
<polyline clip-path="url(#clip481)" style="stroke:#000000; stroke-linecap:round; stroke-linejoin:round; stroke-width:2; stroke-opacity:0.1; fill:none" points="664.934,565.653 1080.4,205.852 1800,413.584 "/>
<polyline clip-path="url(#clip480)" style="stroke:#000000; stroke-linecap:round; stroke-linejoin:round; stroke-width:4; stroke-opacity:1; fill:none" points="664.934,1202.68 1384.54,1410.41 "/>
<polyline clip-path="url(#clip480)" style="stroke:#000000; stroke-linecap:round; stroke-linejoin:round; stroke-width:4; stroke-opacity:1; fill:none" points="737.392,1223.6 742.377,1219.28 "/>
<polyline clip-path="url(#clip480)" style="stroke:#000000; stroke-linecap:round; stroke-linejoin:round; stroke-width:4; stroke-opacity:1; fill:none" points="887.154,1266.83 892.14,1262.51 "/>
<polyline clip-path="url(#clip480)" style="stroke:#000000; stroke-linecap:round; stroke-linejoin:round; stroke-width:4; stroke-opacity:1; fill:none" points="1036.92,1310.06 1041.9,1305.75 "/>
<polyline clip-path="url(#clip480)" style="stroke:#000000; stroke-linecap:round; stroke-linejoin:round; stroke-width:4; stroke-opacity:1; fill:none" points="1186.68,1353.3 1191.66,1348.98 "/>
<polyline clip-path="url(#clip480)" style="stroke:#000000; stroke-linecap:round; stroke-linejoin:round; stroke-width:4; stroke-opacity:1; fill:none" points="1336.44,1396.53 1341.43,1392.21 "/>
<path clip-path="url(#clip480)" d="M677.497 1237.96 Q673.886 1237.96 672.057 1241.52 Q670.252 1245.06 670.252 1252.19 Q670.252 1259.3 672.057 1262.86 Q673.886 1266.41 677.497 1266.41 Q681.131 1266.41 682.937 1262.86 Q684.766 1259.3 684.766 1252.19 Q684.766 1245.06 682.937 1241.52 Q681.131 1237.96 677.497 1237.96 M677.497 1234.25 Q683.307 1234.25 686.363 1238.86 Q689.442 1243.44 689.442 1252.19 Q689.442 1260.92 686.363 1265.53 Q683.307 1270.11 677.497 1270.11 Q671.687 1270.11 668.608 1265.53 Q665.553 1260.92 665.553 1252.19 Q665.553 1243.44 668.608 1238.86 Q671.687 1234.25 677.497 1234.25 Z" fill="#000000" fill-rule="nonzero" fill-opacity="1" /><path clip-path="url(#clip480)" d="M697.659 1263.56 L702.543 1263.56 L702.543 1269.44 L697.659 1269.44 L697.659 1263.56 Z" fill="#000000" fill-rule="nonzero" fill-opacity="1" /><path clip-path="url(#clip480)" d="M712.775 1234.88 L731.131 1234.88 L731.131 1238.81 L717.057 1238.81 L717.057 1247.29 Q718.076 1246.94 719.094 1246.78 Q720.113 1246.59 721.131 1246.59 Q726.918 1246.59 730.298 1249.76 Q733.677 1252.93 733.677 1258.35 Q733.677 1263.93 730.205 1267.03 Q726.733 1270.11 720.414 1270.11 Q718.238 1270.11 715.969 1269.74 Q713.724 1269.37 711.316 1268.63 L711.316 1263.93 Q713.4 1265.06 715.622 1265.62 Q717.844 1266.17 720.321 1266.17 Q724.326 1266.17 726.664 1264.07 Q729.002 1261.96 729.002 1258.35 Q729.002 1254.74 726.664 1252.63 Q724.326 1250.53 720.321 1250.53 Q718.446 1250.53 716.571 1250.94 Q714.719 1251.36 712.775 1252.24 L712.775 1234.88 Z" fill="#000000" fill-rule="nonzero" fill-opacity="1" /><path clip-path="url(#clip480)" d="M817.074 1308.74 L824.713 1308.74 L824.713 1282.37 L816.403 1284.04 L816.403 1279.78 L824.667 1278.11 L829.343 1278.11 L829.343 1308.74 L836.982 1308.74 L836.982 1312.67 L817.074 1312.67 L817.074 1308.74 Z" fill="#000000" fill-rule="nonzero" fill-opacity="1" /><path clip-path="url(#clip480)" d="M846.426 1306.79 L851.31 1306.79 L851.31 1312.67 L846.426 1312.67 L846.426 1306.79 Z" fill="#000000" fill-rule="nonzero" fill-opacity="1" /><path clip-path="url(#clip480)" d="M871.495 1281.19 Q867.884 1281.19 866.056 1284.75 Q864.25 1288.3 864.25 1295.43 Q864.25 1302.53 866.056 1306.1 Q867.884 1309.64 871.495 1309.64 Q875.13 1309.64 876.935 1306.1 Q878.764 1302.53 878.764 1295.43 Q878.764 1288.3 876.935 1284.75 Q875.13 1281.19 871.495 1281.19 M871.495 1277.49 Q877.306 1277.49 880.361 1282.09 Q883.44 1286.68 883.44 1295.43 Q883.44 1304.15 880.361 1308.76 Q877.306 1313.34 871.495 1313.34 Q865.685 1313.34 862.607 1308.76 Q859.551 1304.15 859.551 1295.43 Q859.551 1286.68 862.607 1282.09 Q865.685 1277.49 871.495 1277.49 Z" fill="#000000" fill-rule="nonzero" fill-opacity="1" /><path clip-path="url(#clip480)" d="M967.832 1351.97 L975.471 1351.97 L975.471 1325.6 L967.161 1327.27 L967.161 1323.01 L975.425 1321.34 L980.101 1321.34 L980.101 1351.97 L987.739 1351.97 L987.739 1355.9 L967.832 1355.9 L967.832 1351.97 Z" fill="#000000" fill-rule="nonzero" fill-opacity="1" /><path clip-path="url(#clip480)" d="M997.184 1350.02 L1002.07 1350.02 L1002.07 1355.9 L997.184 1355.9 L997.184 1350.02 Z" fill="#000000" fill-rule="nonzero" fill-opacity="1" /><path clip-path="url(#clip480)" d="M1012.3 1321.34 L1030.66 1321.34 L1030.66 1325.28 L1016.58 1325.28 L1016.58 1333.75 Q1017.6 1333.4 1018.62 1333.24 Q1019.64 1333.06 1020.66 1333.06 Q1026.44 1333.06 1029.82 1336.23 Q1033.2 1339.4 1033.2 1344.82 Q1033.2 1350.39 1029.73 1353.5 Q1026.26 1356.57 1019.94 1356.57 Q1017.76 1356.57 1015.49 1356.2 Q1013.25 1355.83 1010.84 1355.09 L1010.84 1350.39 Q1012.92 1351.53 1015.15 1352.08 Q1017.37 1352.64 1019.85 1352.64 Q1023.85 1352.64 1026.19 1350.53 Q1028.53 1348.43 1028.53 1344.82 Q1028.53 1341.2 1026.19 1339.1 Q1023.85 1336.99 1019.85 1336.99 Q1017.97 1336.99 1016.1 1337.41 Q1014.24 1337.82 1012.3 1338.7 L1012.3 1321.34 Z" fill="#000000" fill-rule="nonzero" fill-opacity="1" /><path clip-path="url(#clip480)" d="M1119.82 1395.2 L1136.14 1395.2 L1136.14 1399.14 L1114.19 1399.14 L1114.19 1395.2 Q1116.85 1392.45 1121.44 1387.82 Q1126.04 1383.16 1127.22 1381.82 Q1129.47 1379.3 1130.35 1377.56 Q1131.25 1375.8 1131.25 1374.11 Q1131.25 1371.36 1129.31 1369.62 Q1127.39 1367.89 1124.28 1367.89 Q1122.09 1367.89 1119.63 1368.65 Q1117.2 1369.41 1114.42 1370.96 L1114.42 1366.24 Q1117.25 1365.11 1119.7 1364.53 Q1122.15 1363.95 1124.19 1363.95 Q1129.56 1363.95 1132.76 1366.64 Q1135.95 1369.32 1135.95 1373.81 Q1135.95 1375.94 1135.14 1377.86 Q1134.35 1379.76 1132.25 1382.35 Q1131.67 1383.02 1128.57 1386.24 Q1125.46 1389.44 1119.82 1395.2 Z" fill="#000000" fill-rule="nonzero" fill-opacity="1" /><path clip-path="url(#clip480)" d="M1145.95 1393.26 L1150.84 1393.26 L1150.84 1399.14 L1145.95 1399.14 L1145.95 1393.26 Z" fill="#000000" fill-rule="nonzero" fill-opacity="1" /><path clip-path="url(#clip480)" d="M1171.02 1367.65 Q1167.41 1367.65 1165.58 1371.22 Q1163.77 1374.76 1163.77 1381.89 Q1163.77 1389 1165.58 1392.56 Q1167.41 1396.1 1171.02 1396.1 Q1174.65 1396.1 1176.46 1392.56 Q1178.29 1389 1178.29 1381.89 Q1178.29 1374.76 1176.46 1371.22 Q1174.65 1367.65 1171.02 1367.65 M1171.02 1363.95 Q1176.83 1363.95 1179.89 1368.56 Q1182.96 1373.14 1182.96 1381.89 Q1182.96 1390.62 1179.89 1395.22 Q1176.83 1399.81 1171.02 1399.81 Q1165.21 1399.81 1162.13 1395.22 Q1159.08 1390.62 1159.08 1381.89 Q1159.08 1373.14 1162.13 1368.56 Q1165.21 1363.95 1171.02 1363.95 Z" fill="#000000" fill-rule="nonzero" fill-opacity="1" /><path clip-path="url(#clip480)" d="M1270.57 1438.43 L1286.89 1438.43 L1286.89 1442.37 L1264.95 1442.37 L1264.95 1438.43 Q1267.61 1435.68 1272.19 1431.05 Q1276.8 1426.4 1277.98 1425.05 Q1280.23 1422.53 1281.11 1420.79 Q1282.01 1419.04 1282.01 1417.35 Q1282.01 1414.59 1280.07 1412.85 Q1278.14 1411.12 1275.04 1411.12 Q1272.84 1411.12 1270.39 1411.88 Q1267.96 1412.65 1265.18 1414.2 L1265.18 1409.48 Q1268 1408.34 1270.46 1407.76 Q1272.91 1407.18 1274.95 1407.18 Q1280.32 1407.18 1283.51 1409.87 Q1286.71 1412.55 1286.71 1417.04 Q1286.71 1419.17 1285.9 1421.1 Q1285.11 1422.99 1283 1425.59 Q1282.43 1426.26 1279.32 1429.48 Q1276.22 1432.67 1270.57 1438.43 Z" fill="#000000" fill-rule="nonzero" fill-opacity="1" /><path clip-path="url(#clip480)" d="M1296.71 1436.49 L1301.59 1436.49 L1301.59 1442.37 L1296.71 1442.37 L1296.71 1436.49 Z" fill="#000000" fill-rule="nonzero" fill-opacity="1" /><path clip-path="url(#clip480)" d="M1311.82 1407.81 L1330.18 1407.81 L1330.18 1411.74 L1316.11 1411.74 L1316.11 1420.22 Q1317.13 1419.87 1318.14 1419.71 Q1319.16 1419.52 1320.18 1419.52 Q1325.97 1419.52 1329.35 1422.69 Q1332.73 1425.86 1332.73 1431.28 Q1332.73 1436.86 1329.25 1439.96 Q1325.78 1443.04 1319.46 1443.04 Q1317.29 1443.04 1315.02 1442.67 Q1312.77 1442.3 1310.37 1441.56 L1310.37 1436.86 Q1312.45 1437.99 1314.67 1438.55 Q1316.89 1439.1 1319.37 1439.1 Q1323.38 1439.1 1325.71 1437 Q1328.05 1434.89 1328.05 1431.28 Q1328.05 1427.67 1325.71 1425.56 Q1323.38 1423.46 1319.37 1423.46 Q1317.5 1423.46 1315.62 1423.87 Q1313.77 1424.29 1311.82 1425.17 L1311.82 1407.81 Z" fill="#000000" fill-rule="nonzero" fill-opacity="1" /><polyline clip-path="url(#clip480)" style="stroke:#000000; stroke-linecap:round; stroke-linejoin:round; stroke-width:4; stroke-opacity:1; fill:none" points="1384.54,1410.41 1800,1050.61 "/>
<polyline clip-path="url(#clip480)" style="stroke:#000000; stroke-linecap:round; stroke-linejoin:round; stroke-width:4; stroke-opacity:1; fill:none" points="1396.92,1399.69 1388.28,1397.2 "/>
<polyline clip-path="url(#clip480)" style="stroke:#000000; stroke-linecap:round; stroke-linejoin:round; stroke-width:4; stroke-opacity:1; fill:none" points="1474.83,1332.21 1466.2,1329.72 "/>
<polyline clip-path="url(#clip480)" style="stroke:#000000; stroke-linecap:round; stroke-linejoin:round; stroke-width:4; stroke-opacity:1; fill:none" points="1552.74,1264.74 1544.11,1262.25 "/>
<polyline clip-path="url(#clip480)" style="stroke:#000000; stroke-linecap:round; stroke-linejoin:round; stroke-width:4; stroke-opacity:1; fill:none" points="1630.66,1197.27 1622.02,1194.77 "/>
<polyline clip-path="url(#clip480)" style="stroke:#000000; stroke-linecap:round; stroke-linejoin:round; stroke-width:4; stroke-opacity:1; fill:none" points="1708.57,1129.79 1699.93,1127.3 "/>
<polyline clip-path="url(#clip480)" style="stroke:#000000; stroke-linecap:round; stroke-linejoin:round; stroke-width:4; stroke-opacity:1; fill:none" points="1786.48,1062.32 1777.85,1059.83 "/>
<path clip-path="url(#clip480)" d="M1423.01 1425.16 Q1426.37 1425.88 1428.24 1428.15 Q1430.14 1430.42 1430.14 1433.75 Q1430.14 1438.87 1426.62 1441.67 Q1423.11 1444.47 1416.62 1444.47 Q1414.45 1444.47 1412.13 1444.03 Q1409.84 1443.61 1407.39 1442.76 L1407.39 1438.24 Q1409.33 1439.38 1411.65 1439.96 Q1413.96 1440.53 1416.49 1440.53 Q1420.88 1440.53 1423.18 1438.8 Q1425.49 1437.06 1425.49 1433.75 Q1425.49 1430.7 1423.34 1428.98 Q1421.21 1427.25 1417.39 1427.25 L1413.36 1427.25 L1413.36 1423.41 L1417.57 1423.41 Q1421.02 1423.41 1422.85 1422.04 Q1424.68 1420.65 1424.68 1418.06 Q1424.68 1415.4 1422.78 1413.98 Q1420.91 1412.55 1417.39 1412.55 Q1415.47 1412.55 1413.27 1412.97 Q1411.07 1413.38 1408.43 1414.26 L1408.43 1410.1 Q1411.09 1409.35 1413.41 1408.98 Q1415.74 1408.61 1417.8 1408.61 Q1423.13 1408.61 1426.23 1411.04 Q1429.33 1413.45 1429.33 1417.57 Q1429.33 1420.44 1427.69 1422.43 Q1426.05 1424.4 1423.01 1425.16 Z" fill="#000000" fill-rule="nonzero" fill-opacity="1" /><path clip-path="url(#clip480)" d="M1500.9 1345.84 L1489.1 1364.29 L1500.9 1364.29 L1500.9 1345.84 M1499.68 1341.76 L1505.56 1341.76 L1505.56 1364.29 L1510.49 1364.29 L1510.49 1368.18 L1505.56 1368.18 L1505.56 1376.32 L1500.9 1376.32 L1500.9 1368.18 L1485.3 1368.18 L1485.3 1363.66 L1499.68 1341.76 Z" fill="#000000" fill-rule="nonzero" fill-opacity="1" /><path clip-path="url(#clip480)" d="M1564.67 1274.29 L1583.03 1274.29 L1583.03 1278.23 L1568.95 1278.23 L1568.95 1286.7 Q1569.97 1286.35 1570.99 1286.19 Q1572.01 1286 1573.03 1286 Q1578.81 1286 1582.19 1289.17 Q1585.57 1292.35 1585.57 1297.76 Q1585.57 1303.34 1582.1 1306.44 Q1578.63 1309.52 1572.31 1309.52 Q1570.13 1309.52 1567.87 1309.15 Q1565.62 1308.78 1563.21 1308.04 L1563.21 1303.34 Q1565.3 1304.48 1567.52 1305.03 Q1569.74 1305.59 1572.22 1305.59 Q1576.22 1305.59 1578.56 1303.48 Q1580.9 1301.37 1580.9 1297.76 Q1580.9 1294.15 1578.56 1292.05 Q1576.22 1289.94 1572.22 1289.94 Q1570.34 1289.94 1568.47 1290.36 Q1566.62 1290.77 1564.67 1291.65 L1564.67 1274.29 Z" fill="#000000" fill-rule="nonzero" fill-opacity="1" /><path clip-path="url(#clip480)" d="M1653.46 1222.23 Q1650.31 1222.23 1648.46 1224.39 Q1646.63 1226.54 1646.63 1230.29 Q1646.63 1234.02 1648.46 1236.19 Q1650.31 1238.34 1653.46 1238.34 Q1656.61 1238.34 1658.44 1236.19 Q1660.29 1234.02 1660.29 1230.29 Q1660.29 1226.54 1658.44 1224.39 Q1656.61 1222.23 1653.46 1222.23 M1662.75 1207.58 L1662.75 1211.84 Q1660.99 1211.01 1659.18 1210.57 Q1657.4 1210.13 1655.64 1210.13 Q1651.01 1210.13 1648.56 1213.25 Q1646.13 1216.38 1645.78 1222.7 Q1647.14 1220.68 1649.2 1219.62 Q1651.26 1218.53 1653.74 1218.53 Q1658.95 1218.53 1661.96 1221.7 Q1664.99 1224.85 1664.99 1230.29 Q1664.99 1235.61 1661.84 1238.83 Q1658.69 1242.05 1653.46 1242.05 Q1647.47 1242.05 1644.3 1237.46 Q1641.13 1232.86 1641.13 1224.13 Q1641.13 1215.94 1645.01 1211.08 Q1648.9 1206.19 1655.45 1206.19 Q1657.21 1206.19 1659 1206.54 Q1660.8 1206.89 1662.75 1207.58 Z" fill="#000000" fill-rule="nonzero" fill-opacity="1" /><path clip-path="url(#clip480)" d="M1719.04 1139.34 L1741.26 1139.34 L1741.26 1141.33 L1728.71 1173.9 L1723.83 1173.9 L1735.63 1143.28 L1719.04 1143.28 L1719.04 1139.34 Z" fill="#000000" fill-rule="nonzero" fill-opacity="1" /><path clip-path="url(#clip480)" d="M1808.8 1090.02 Q1805.47 1090.02 1803.55 1091.8 Q1801.65 1093.58 1801.65 1096.71 Q1801.65 1099.83 1803.55 1101.61 Q1805.47 1103.4 1808.8 1103.4 Q1812.13 1103.4 1814.06 1101.61 Q1815.98 1099.81 1815.98 1096.71 Q1815.98 1093.58 1814.06 1091.8 Q1812.16 1090.02 1808.8 1090.02 M1804.13 1088.03 Q1801.12 1087.29 1799.43 1085.23 Q1797.76 1083.16 1797.76 1080.2 Q1797.76 1076.06 1800.7 1073.65 Q1803.66 1071.24 1808.8 1071.24 Q1813.96 1071.24 1816.9 1073.65 Q1819.84 1076.06 1819.84 1080.2 Q1819.84 1083.16 1818.15 1085.23 Q1816.49 1087.29 1813.5 1088.03 Q1816.88 1088.81 1818.75 1091.1 Q1820.65 1093.4 1820.65 1096.71 Q1820.65 1101.73 1817.57 1104.41 Q1814.52 1107.1 1808.8 1107.1 Q1803.08 1107.1 1800.01 1104.41 Q1796.95 1101.73 1796.95 1096.71 Q1796.95 1093.4 1798.85 1091.1 Q1800.75 1088.81 1804.13 1088.03 M1802.41 1080.64 Q1802.41 1083.33 1804.08 1084.83 Q1805.77 1086.34 1808.8 1086.34 Q1811.81 1086.34 1813.5 1084.83 Q1815.21 1083.33 1815.21 1080.64 Q1815.21 1077.96 1813.5 1076.45 Q1811.81 1074.95 1808.8 1074.95 Q1805.77 1074.95 1804.08 1076.45 Q1802.41 1077.96 1802.41 1080.64 Z" fill="#000000" fill-rule="nonzero" fill-opacity="1" /><polyline clip-path="url(#clip480)" style="stroke:#000000; stroke-linecap:round; stroke-linejoin:round; stroke-width:4; stroke-opacity:1; fill:none" points="664.934,1202.68 664.934,483.08 "/>
<polyline clip-path="url(#clip480)" style="stroke:#000000; stroke-linecap:round; stroke-linejoin:round; stroke-width:4; stroke-opacity:1; fill:none" points="664.934,1155.57 669.92,1151.25 "/>
<polyline clip-path="url(#clip480)" style="stroke:#000000; stroke-linecap:round; stroke-linejoin:round; stroke-width:4; stroke-opacity:1; fill:none" points="664.934,1037.59 669.92,1033.27 "/>
<polyline clip-path="url(#clip480)" style="stroke:#000000; stroke-linecap:round; stroke-linejoin:round; stroke-width:4; stroke-opacity:1; fill:none" points="664.934,919.602 669.92,915.285 "/>
<polyline clip-path="url(#clip480)" style="stroke:#000000; stroke-linecap:round; stroke-linejoin:round; stroke-width:4; stroke-opacity:1; fill:none" points="664.934,801.619 669.92,797.302 "/>
<polyline clip-path="url(#clip480)" style="stroke:#000000; stroke-linecap:round; stroke-linejoin:round; stroke-width:4; stroke-opacity:1; fill:none" points="664.934,683.636 669.92,679.319 "/>
<polyline clip-path="url(#clip480)" style="stroke:#000000; stroke-linecap:round; stroke-linejoin:round; stroke-width:4; stroke-opacity:1; fill:none" points="664.934,565.653 669.92,561.336 "/>
<path clip-path="url(#clip480)" d="M629.005 1154.21 Q632.361 1154.93 634.236 1157.2 Q636.134 1159.47 636.134 1162.8 Q636.134 1167.92 632.616 1170.72 Q629.097 1173.52 622.616 1173.52 Q620.44 1173.52 618.125 1173.08 Q615.834 1172.66 613.38 1171.81 L613.38 1167.29 Q615.324 1168.43 617.639 1169.01 Q619.954 1169.58 622.477 1169.58 Q626.875 1169.58 629.167 1167.85 Q631.482 1166.11 631.482 1162.8 Q631.482 1159.75 629.329 1158.03 Q627.199 1156.3 623.38 1156.3 L619.352 1156.3 L619.352 1152.45 L623.565 1152.45 Q627.014 1152.45 628.843 1151.09 Q630.671 1149.7 630.671 1147.11 Q630.671 1144.45 628.773 1143.03 Q626.898 1141.6 623.38 1141.6 Q621.459 1141.6 619.26 1142.02 Q617.06 1142.43 614.422 1143.31 L614.422 1139.14 Q617.084 1138.4 619.398 1138.03 Q621.736 1137.66 623.797 1137.66 Q629.121 1137.66 632.222 1140.09 Q635.324 1142.5 635.324 1146.62 Q635.324 1149.49 633.681 1151.48 Q632.037 1153.45 629.005 1154.21 Z" fill="#000000" fill-rule="nonzero" fill-opacity="1" /><path clip-path="url(#clip480)" d="M626.551 1024.38 L614.746 1042.83 L626.551 1042.83 L626.551 1024.38 M625.324 1020.31 L631.204 1020.31 L631.204 1042.83 L636.134 1042.83 L636.134 1046.72 L631.204 1046.72 L631.204 1054.87 L626.551 1054.87 L626.551 1046.72 L610.949 1046.72 L610.949 1042.2 L625.324 1020.31 Z" fill="#000000" fill-rule="nonzero" fill-opacity="1" /><path clip-path="url(#clip480)" d="M615.232 902.322 L633.588 902.322 L633.588 906.257 L619.514 906.257 L619.514 914.73 Q620.533 914.382 621.551 914.22 Q622.57 914.035 623.588 914.035 Q629.375 914.035 632.755 917.206 Q636.134 920.378 636.134 925.794 Q636.134 931.373 632.662 934.475 Q629.19 937.554 622.871 937.554 Q620.695 937.554 618.426 937.183 Q616.181 936.813 613.773 936.072 L613.773 931.373 Q615.857 932.507 618.079 933.063 Q620.301 933.618 622.778 933.618 Q626.783 933.618 629.121 931.512 Q631.459 929.405 631.459 925.794 Q631.459 922.183 629.121 920.077 Q626.783 917.97 622.778 917.97 Q620.903 917.97 619.028 918.387 Q617.176 918.804 615.232 919.683 L615.232 902.322 Z" fill="#000000" fill-rule="nonzero" fill-opacity="1" /><path clip-path="url(#clip480)" d="M624.607 799.756 Q621.459 799.756 619.607 801.909 Q617.778 804.061 617.778 807.811 Q617.778 811.538 619.607 813.714 Q621.459 815.867 624.607 815.867 Q627.755 815.867 629.584 813.714 Q631.435 811.538 631.435 807.811 Q631.435 804.061 629.584 801.909 Q627.755 799.756 624.607 799.756 M633.889 785.103 L633.889 789.362 Q632.13 788.529 630.324 788.089 Q628.542 787.649 626.783 787.649 Q622.153 787.649 619.699 790.774 Q617.269 793.899 616.922 800.219 Q618.287 798.205 620.347 797.14 Q622.408 796.052 624.884 796.052 Q630.093 796.052 633.102 799.224 Q636.134 802.372 636.134 807.811 Q636.134 813.135 632.986 816.353 Q629.838 819.571 624.607 819.571 Q618.611 819.571 615.44 814.987 Q612.269 810.381 612.269 801.654 Q612.269 793.46 616.158 788.599 Q620.047 783.714 626.597 783.714 Q628.357 783.714 630.139 784.062 Q631.945 784.409 633.889 785.103 Z" fill="#000000" fill-rule="nonzero" fill-opacity="1" /><path clip-path="url(#clip480)" d="M613.912 666.356 L636.134 666.356 L636.134 668.347 L623.588 700.916 L618.704 700.916 L630.509 670.292 L613.912 670.292 L613.912 666.356 Z" fill="#000000" fill-rule="nonzero" fill-opacity="1" /><path clip-path="url(#clip480)" d="M624.283 566.521 Q620.949 566.521 619.028 568.304 Q617.13 570.086 617.13 573.211 Q617.13 576.336 619.028 578.119 Q620.949 579.901 624.283 579.901 Q627.616 579.901 629.537 578.119 Q631.459 576.313 631.459 573.211 Q631.459 570.086 629.537 568.304 Q627.639 566.521 624.283 566.521 M619.607 564.531 Q616.597 563.79 614.908 561.73 Q613.241 559.67 613.241 556.707 Q613.241 552.563 616.181 550.156 Q619.144 547.748 624.283 547.748 Q629.445 547.748 632.384 550.156 Q635.324 552.563 635.324 556.707 Q635.324 559.67 633.634 561.73 Q631.968 563.79 628.982 564.531 Q632.361 565.318 634.236 567.609 Q636.134 569.901 636.134 573.211 Q636.134 578.234 633.056 580.92 Q630 583.605 624.283 583.605 Q618.565 583.605 615.486 580.92 Q612.431 578.234 612.431 573.211 Q612.431 569.901 614.329 567.609 Q616.227 565.318 619.607 564.531 M617.894 557.147 Q617.894 559.832 619.56 561.336 Q621.25 562.841 624.283 562.841 Q627.292 562.841 628.982 561.336 Q630.695 559.832 630.695 557.147 Q630.695 554.461 628.982 552.957 Q627.292 551.452 624.283 551.452 Q621.25 551.452 619.56 552.957 Q617.894 554.461 617.894 557.147 Z" fill="#000000" fill-rule="nonzero" fill-opacity="1" /><polyline clip-path="url(#clip481)" style="stroke:#009af9; stroke-linecap:round; stroke-linejoin:round; stroke-width:4; stroke-opacity:1; fill:none" points="1055.36,838.079 1052.33,841.452 1062.05,829.408 1062.66,828.487 1059.93,831.597 1063.61,826.875 1066.43,823.258 1073.62,814.398 1072.13,816.141 1078.85,807.951 1086.96,798.21 1084.02,801.998 1065.51,824.568 1069.64,819.278 1064.08,825.643 1062.25,827.561 1031.54,863.9 1034.2,858.705 1052.5,835.007 1042.01,846.996 1057.04,827.483 1066.39,816.741 1068.22,814.908 1024.53,867.708 988.534,907.267 1007.57,878.984 994.489,892.266 1012.64,866.716 992.448,889.906 997.399,880.132 1010.52,864.43 1011.7,862.569 974.247,904.949 982.548,889.996 1019.05,847.951 1063.92,803.403 1139.23,739.417 1143.05,754.128 1166.22,735.931 1231.91,669.602 1295.08,628.206 1338.93,607.12 1413.77,562.642 1421.74,567.581 1449.3,550.901 1311.43,663.906 1256.5,700.775 1229.18,708.544 1087.97,830.139 1027.48,879.177 1030.94,866.136 1026.12,865.565 1061.36,823.137 1042.28,836.709 1074.09,801.833 1087.34,803.56 1019.48,861.177 1052.77,825.212 1064.53,820.311 1057.82,822.505 1081.16,810.514 1059.31,836.306 1111.21,791.54 1132.24,777.707 1091.56,812.086 1003.59,870.695 977.304,894.69 1028.68,846.738 1027.52,855.997 1019.05,860.593 1084.54,802.444 1126.16,776.381 1040.78,847.942 1084.8,803.742 1044.79,845.803 940.167,928.803 944.272,923.289 919.86,951.524 893.316,977.504 837.198,1040.99 810.3,1060.33 799.787,1067.55 795.23,1063.23 817.017,1039.59 874.085,983.285 909.365,947.787 918.662,943.647 998.529,869.982 1031.17,843.404 1045.06,836.363 1069.68,817.341 1103.47,781.159 1210.57,684.955 1165.59,733.192 1190.97,712.886 1271.83,657.368 1155.76,764.712 1084.34,825.357 1106.2,799.394 1120.89,784.235 1122.58,773.697 1086.61,804.184 1142.47,772.414 1181.07,720.887 1167.36,733.355 1241.83,689.247 1261.34,669.079 1243.55,696.484 1260.44,677.242 1339.74,615.168 1420.17,552.665 1369.72,609.864 1297.01,668.182 1248.49,690.436 1181.4,751.445 1213.06,706.932 1279.04,641.688 1261.9,669.058 1338.72,623.371 1395.45,567.868 1264.96,678.558 1257.86,682.546 1185.92,739.249 1172.54,736.174 1205.79,716.909 1251.58,668.436 1186.48,724.697 1199.9,722.399 1204.55,721.09 1146.94,741.917 1191.65,708.221 1229.41,681.663 1230.88,692.031 1149.23,779.153 1072,843.423 1077.13,826.863 1109.82,784.889 1112.2,780.704 1101.97,790.216 1163.49,729.792 1126.67,776.554 1081.22,820.119 1128.61,773.309 1232.65,661.304 1022.29,859.949 1002.59,868.006 963.966,914.645 948.986,929.481 943.525,924.378 926.264,945.011 927.471,940.607 936.025,925.868 900.933,963.113 951.038,910.798 946.84,921.223 996.678,862.765 1027.47,858.678 1084.84,802.272 1140.77,760.874 1193.91,702.507 1162.37,744.374 1150.45,752.226 1125.66,785.682 1165.79,738.26 1302.11,631.789 1284.82,655.738 1326.2,628.433 1412.78,561.527 1432.52,563.818 1310.86,654.403 1325.87,620.336 1343.49,623.273 1618.34,397.286 1632.4,427.731 1571.37,490.235 1534.82,506.761 1493.01,538.908 1502.19,529.358 1694.11,386.954 1644.51,430.41 1645.36,426.739 1624.83,441.521 1525.41,531.661 1569.07,481.398 1532.23,502.292 1459.5,562.804 1420.95,577.79 1398.89,602.132 1403.96,589.718 1427.19,569.657 1394.3,597.483 1367.23,625.011 1417.07,579.583 1365.65,609.661 1356.94,606.908 1323.94,633.712 1331.82,627.472 1371.79,592.731 1356.15,627.905 1392.97,597.762 1514.49,495.203 1482.43,525.164 1418.78,579.526 1492.2,539.544 1486.7,540.085 1564.25,492.518 1444.87,583.501 1373.5,619.201 1299.93,673.535 1310.3,651.071 1343.87,621.367 1238.77,715.821 1186.17,748.581 1195.93,720.899 1192.98,715.263 1155.27,752.052 1124.54,785.4 1140.62,770.83 1240.56,675.862 1278.03,647.684 1317.31,632.495 1248.53,699.633 1212.17,708.605 1141.16,777.517 1109.84,800.116 1104.04,797.403 1177.75,729.609 1133.96,773.016 1131.57,768.151 1102.78,790.07 1190.71,713.405 1273.59,653.309 1253.76,686.746 1223.67,722.503 1208.01,724.484 1226.44,694.963 1234.01,698.003 1210.4,712.513 1259.85,674.41 1319.04,636.832 1533.97,470.079 1504.3,501.607 1438.6,560.401 1460.82,566.757 1552.29,478.023 1441.6,563.713 1563.92,460.79 1702.41,364.787 1581.74,470.554 1568.85,472.945 1667.31,421.025 1632.61,448.811 1580.41,476.903 1609.53,445.775 1612.17,461.309 1557.4,508.615 1550.05,496.072 1450.49,581.95 1415.05,592.21 1420.27,580.358 1308.6,667.228 1267.91,691.826 1247.01,697.062 1305.05,630.554 1293.55,642.877 1313.38,635.284 1264.23,672.955 1300.37,638.092 1328.52,622.23 1222.48,724.085 1274.85,668.282 1288.59,647.533 1218.6,695.432 1117.69,792.619 1175.26,730.763 1095.1,798.209 1105.34,779.281 1204.73,700.193 1127.45,779.329 1042.91,846.803 1032.25,852.385 1099.64,778.443 1051.52,823.877 1216.19,682.241 1258.16,657.612 1256.96,680.88 1295.64,642.887 1255,687.186 1261.26,673.87 1125.92,783.75 1131.2,770.448 1133.97,777.077 1156.9,750.392 1296.75,646.558 1205.42,734.613 1266.79,670.122 1362.88,593.907 1372.89,593.434 1359.95,611.812 1399.3,567.321 1450.04,533.806 1482.62,508.913 1534.14,489.812 1506.11,526.317 1403.39,601.859 1391.95,603.299 1295.3,676.856 1338.39,625.865 1278.08,673.478 1215.96,729.019 1231.98,698.872 1197.66,733.421 1206.65,729.627 1134.32,789.404 1114.54,802.216 1063.94,838.89 1085.92,806.024 1033.06,860.885 1080.21,806.28 1133.39,758.101 1163.64,740.195 1146.6,757.033 1142.54,759.783 1117.69,787.32 1142.07,757.652 1204.38,710.017 1115.43,791.618 1167.86,739.701 1135.64,765.844 1197.73,718.264 1218.74,695.66 1241.76,688.408 1348.77,593.241 1500.05,486.874 1521.08,496.547 1429.45,573.965 1357.7,634.52 1332.72,639.881 1252.99,700.842 1252.7,693.165 1217.47,716.763 1169.2,755.235 1115.52,787.214 1138.19,755.546 1106.35,787.026 1018.99,888.717 959.271,937.113 949.597,931.367 967.43,910.394 920.851,957.502 942.934,929.129 945.543,923.674 959.454,906.212 1034.59,831.294 1076.58,804.626 1119.72,764.72 1197.94,693.915 1191.17,727.34 1131.1,784.041 1090.65,809.294 1060.15,831.002 1133.82,761.169 1094.7,799.948 1061.93,833.888 977.772,915.05 1028.23,854.077 1037.04,847.603 1025.33,857.899 1024.66,863.644 1105.26,786.023 1055.99,827.552 1071.9,799.469 998.892,880.032 1017.98,853.825 1085.24,810.49 1119.05,776.668 1038.9,850.953 1017.59,869.259 1043.95,833.312 1043.3,830.376 955.536,906.839 897.307,957.057 914.979,941.769 1009.55,844.03 992.764,880.953 1110.44,767.113 1097.12,796.194 1045.68,851.136 1112.57,782.679 1149.85,752.582 1210.57,722.095 1202.76,735.114 1193.3,737.308 1260.54,690.915 1275.59,663.101 1332.65,619.021 1315.38,626.502 1290.98,657.669 1263.08,661.476 1198.46,695.031 1068.11,801.286 1024.62,839.52 1116.06,761.394 1187.08,701.979 1202.34,704.479 1043.21,846.466 1144.43,741.85 1164.38,742.553 1140.59,765.322 1290.68,650.669 1305.31,638.75 1302.23,651.926 1223.8,721.119 1232.58,704.314 1260.98,689.3 1217.55,720.315 1204.17,725.969 1199.77,733.357 1225.78,714.301 1228.92,697.39 1215.64,720.77 1223.93,712.564 1190.31,734.993 1238.88,693.947 1223.09,702.091 1311.95,630.074 1378.86,591.736 1371.63,608.538 1325.79,644.251 1326.93,635.176 1354.56,620.803 1311.62,633.215 1319.12,634.054 1312.75,633.707 1309.65,637.366 1337.81,629.722 1227.65,706.563 1222.3,721.353 1151.04,789.474 1153.19,766.354 1111.09,805.804 1108.52,793.104 1061.42,830.155 1151.76,729.624 1117.52,788.106 1066.38,840.027 992.364,901.319 1010.8,871.172 1045.55,831.094 1045.1,838.083 1016.2,867.033 1018.52,864.874 978.681,899.558 946.188,930.194 961.763,903.701 957.689,905.406 1029.18,846.338 1004.07,876.43 1072.2,804.463 1184.15,683.459 1281.55,618.161 1221.07,707.435 1265.73,662.295 1274.67,667.819 1254.77,689.904 1302.66,637.447 1265.53,678.121 1299.33,651.299 1317.97,625.677 1491.01,500.618 1462.91,537.589 1484.59,516.616 1504.26,516.435 1572.24,471.967 1558.93,485.112 1531.94,507.724 1431.1,585.083 1333,654.871 1259.17,711.725 1318.66,635.3 1373.39,585.801 1282.64,681.965 1354.36,605.759 1268.86,679.929 1253.32,677.594 1389.82,550.415 1423.6,546.085 1373.47,605.582 1327.24,646.427 1234.15,714.38 1246.96,688.923 1300.46,639.083 1284.88,656.828 1209.79,725.451 1212.3,710.49 1181.85,743.589 1199.5,731.106 1257.49,662.179 1253.67,691.433 1213.73,734.426 1119.78,799.11 1109.27,800.73 1054.97,853.804 1033.67,866.988 1038.21,851.901 1001.27,890.768 1005.62,879.019 962.089,926.079 986.546,894.819 908.027,964.544 924.408,940.67 939.563,923.407 941.381,920.067 1004.07,864.615 978.285,898.754 973.309,901.109 1010.81,855.178 996.575,873.504 968.433,905.722 1001.66,871.774 982.353,900.163 945.721,930.026 1021.57,845.341 1109.87,768.253 1147.18,755.719 1130.65,770.892 1178.75,732.462 1177.4,738.787 1219.92,704.857 1254.88,676.83 1282.31,673.994 1204.07,714.734 1209.25,705.727 1182.08,726.151 1124.14,775.946 1140.8,767.817 1131.27,750.325 1076.44,796.449 1176.42,732.889 1138.6,771.076 1110.93,799.81 1115.99,782.114 1180,721.242 1310.57,622.748 1376.47,580.033 1334.99,621.354 1350.58,612.931 1384.24,586.902 1394.82,584.241 1436.43,568.594 1494.21,509.257 1392.97,605.876 1464.97,540.953 1499.8,504.586 1552.4,461.458 1491.49,514.054 1522.01,495.598 1489.65,528.79 1437.36,577.53 1350.7,642.815 1333.42,637.124 1256.67,699.646 1170.96,760.541 1166.78,748.295 1219.89,686.616 1327.45,602.623 1382.45,566.031 1430.45,534.597 1485.58,509.86 1459.13,535.476 1450.31,547.793 1329.05,650.014 1261.02,699.803 1293.46,656.968 1311.81,638.253 1293.21,663.131 1213.37,739.584 1102.64,825.825 1029.19,882.785 1053.04,840.349 1018.13,869.409 983.963,906.271 1036.29,839.371 1113.46,766.033 1160.24,734.724 1147.84,754.768 1173.86,735.036 1174.04,726.923 1152.24,753.492 1223.89,701.631 1297.41,641.165 1276.47,654.464 1352.92,619.146 1281.13,682.589 1243.71,707.571 1219.38,718.684 1208.06,726.142 1200.56,717.174 1154.56,764.621 1188.27,715.854 1154,755.158 1171.44,738.483 1014.57,875.072 1014.94,864.224 1023.41,849.902 1015.53,863.83 1005.82,875.697 1004.23,876.389 1043.24,831.599 965.896,910.116 990.809,885.611 1072.36,811.064 1163.3,731.568 1164.96,739.388 1062.35,822.238 1065.83,829.685 1013.13,883.214 1046.72,843.496 1105.16,778.62 1091.42,804.682 1166.76,746.705 1187.76,739.62 1114.83,795.728 1051.61,826.641 1003.16,871.832 1065.88,815.826 1199.26,691.693 1132.22,763.758 1259.57,656.303 1373.86,570.393 1366.97,597.651 1370.51,594.738 1438.9,524.975 1487.81,504.668 1519,488.167 1697.29,368.072 1695.3,403.867 1638.52,439.805 1509.6,537.9 1446.08,582.817 1351.49,648.989 1218.14,752.298 1110.83,838.511 1080.97,846.446 1050.94,857.85 1031.75,866.255 1052.48,831.886 1085.05,792.829 1078.09,808.944 1068.35,820.077 1068.49,817.668 1114.06,787.205 1185.41,723.576 1095.77,816.441 1197.73,710.499 1155.27,754.203 1106.17,805.508 1033.38,861.118 988.77,899.47 927.452,954.054 899.175,977.869 911.527,950.731 918.206,937.493 876.09,987.935 854.94,1010.73 879.405,979.881 878.766,982.978 908.051,954.068 934.229,921.591 973.181,888.964 937.705,927.374 947.986,920.321 1029.49,832.072 1021.99,853.081 997.109,875.605 1069.19,815.154 1008.13,882.73 1016.27,869.764 998.914,875.6 1004.84,871.166 1015.45,863.118 1083.22,790.39 1122.49,760.213 1083.46,798.268 1250.33,649.481 1312.4,610.528 1284.24,651.016 1338.54,617.765 1386.92,581.43 1292.94,659.003 1278.74,663.69 1255.82,684.82 1220.44,722.543 1152.96,783.736 1102.78,810.685 1146.03,758.163 1086.84,817.723 1036.47,866.101 1118.7,771.942 1085.81,802.701 1104.85,786.548 1171.3,730.386 1232.75,676.608 1239.87,677.237 1305.57,636.97 1370.93,589.855 1235.11,693.045 1314.5,634.693 1277.46,644.944 1283.38,655.237 1235.28,691.163 1139.16,766.573 1186.39,744.249 1145.48,763.498 1119.79,798.153 1254.81,684.287 1337.81,628.286 1335.85,632.293 1314.15,642.396 1314.83,648.73 1270.87,650.369 1328.81,611.751 1263.39,681.606 1238.44,696.708 1244.49,690.753 1275.52,670.707 1368.76,604.916 1368.46,593.963 1386.85,600.736 1422.12,578.773 1343.85,639.051 1343.08,629.36 1389.28,590.623 1391.75,587.413 1317.53,646.966 1376.06,595.089 1242.37,694.509 1271.9,663.789 1206.09,722.661 1222.55,707.4 1291.11,647.551 1253.99,683.433 1240.68,701.385 1342.91,616.228 1229.22,719.602 1230.99,699.182 1170.53,748.314 1147.51,771.164 1160.57,749.945 1141.22,768.875 1171.76,733.154 1167.32,722.121 1203.04,684.68 1210.11,694.857 1221.03,691.155 1243.27,667.644 1250.11,661.854 1202.38,689.286 1243.27,685.462 1207.45,722.385 1167.23,744.262 1174.65,738.055 1165.89,745.742 1170.74,736.786 1171.28,737.894 1129.05,772.537 1113.19,786.549 1152.91,750.839 1098.28,802.455 1172.28,725.188 1128.62,770.092 1127.76,783.063 1154.62,753.78 1198.39,723.494 1072.68,828.775 1147.15,776.572 1148.72,769.398 1119.97,783.166 1150.42,743.876 1215.62,713.488 1157.9,765.017 1085.3,819.262 1083.66,816.964 1139.67,756.316 1104.28,790.563 1045.64,838.174 1076.43,812.709 1146.86,753.552 1215.54,711.081 1229.95,704.751 1289.38,649.347 1345.37,621.001 1310.29,660.581 1326.81,643.474 1428.25,550.016 1410.24,568.111 1501.61,496.177 1472.14,535.904 1427.23,555.646 1319.38,641.138 1363.83,611.97 1486.82,518.935 1308.29,659.22 1280.21,671.132 1350.51,605.124 1248.13,687.314 1253.21,669.726 1368.06,569.893 1429.96,536.87 1520.55,481.641 1451.02,556.813 1519.64,516.645 1484.13,536.215 1533.94,483.186 1460.22,551.389 1479.21,536.083 1426.48,568.472 1282.02,688.16 1350.92,613.959 1431.81,552.441 1497.16,500.441 1546.75,485.305 1630.92,417.105 1466.4,544.964 1394.28,601.409 1313.29,650.759 1260.89,683.583 1291.72,652.5 1208.47,730.516 1103.2,820.157 1096.25,811.565 1053.99,844.702 1064.94,827.342 1146.42,749.345 1078.62,819.225 1052.51,840.617 1024.48,868.659 1009.54,881.471 1049.81,841.184 1016.15,860.652 1055.11,820.857 1087.21,806.751 1054.34,835.9 1036.42,864.622 1011.67,880.673 964.038,923.932 992.292,877.361 990.199,881.942 1052.85,812.979 1032.12,844.127 1044.88,835.584 996.752,883.253 1003.53,904.35 1087.82,800.215 1147.25,756.44 1145.17,762.892 1138.27,775.221 1265.08,651.669 1326.9,608.696 1376.25,593.48 1382.92,582.42 1534.45,475.778 1530.55,496.212 1563.05,487.109 1622.78,435.12 1567.7,500.835 1516.89,522.246 1442.02,574.32 1386.63,605.397 1395.53,590.78 1373.42,602.329 1358.97,608.801 1268.65,690.402 1264.58,686.521 1360.08,590.303 1293.59,664.949 1199.13,743.723 1151.75,778.044 1083.8,821.205 1085.63,810.153 1039,848.292 1014.9,868.653 988.554,889.28 1005.7,874.031 1074.23,797.917 1076.32,811.029 1043.98,837.284 1076.71,806.23 1061.22,823.823 1069.16,812.588 1070.84,814.536 1129.34,761.116 1165.56,732.795 1185.78,725.158 1286.62,655.84 1274.19,667.741 1114.16,815.037 1060.84,851.066 1106.99,790.453 1047,849.784 1045.62,848.569 1090.05,809.355 1119.3,788.935 1096.63,792.514 1150.79,751.328 1277.79,645.517 1266.65,656.325 1459.85,515.681 1444.32,554.491 1412.55,569.965 1250.27,706.022 1201.04,735.872 1222.95,706.82 1185.47,744.08 1226.3,704.93 1102.16,805.292 1157.35,736.338 1198.37,698.124 1134.25,767.777 1071.57,827.998 1062.34,832.417 1079.58,813.947 1016.93,862.489 1038.68,836.573 990.896,887.653 972.905,909.916 943.803,937.218 935.891,940.87 982.86,881.302 947.717,919.189 948.878,913.638 878.812,993.682 869.24,999.477 860.056,1009.65 872.304,1000.92 859.448,1010.43 862.961,1003.95 900.578,968.325 887.551,976.686 892.625,978.057 888.072,982.625 905.381,964.657 890.168,979.501 942.554,928.304 919.293,957.847 909.676,967.985 916.284,961.677 1005.47,880.081 991.382,889.471 913.763,959.413 884.941,985.285 854.343,1017.55 790.412,1080.44 802.238,1063.35 801.201,1062.57 758.069,1112.56 737.292,1132.75 704.116,1168.96 697.537,1178.15 699.495,1173.14 711.808,1157.61 723.175,1144.02 727.326,1136.45 730.083,1132.1 732.311,1130.27 714.068,1156.55 714.386,1155.08 725.029,1135.32 741.957,1113.94 779.755,1069.06 814.706,1032.11 824.271,1036.08 826.793,1035.57 845.659,1014.37 902.868,952.384 866.874,996.809 875.69,985.695 907.464,952.838 905.898,959.851 963.219,903.64 886.856,989.598 844.328,1032.3 859.982,1011.14 825.501,1046.33 844.665,1016.44 835.144,1027.94 782.343,1086.8 838.682,1016.99 805.117,1055.15 791.506,1069.72 823.33,1030.17 880.289,969.587 921.109,936.92 902.992,962.34 867.135,1004.65 827.423,1040.18 852.38,999.627 839.987,1020.05 858.137,997.943 868.876,990.618 864.755,997.638 922.869,927.61 926.187,934.525 940.063,924.017 948.704,909.982 948.357,915.907 1030.93,834.138 1089.44,792.861 1157.35,743.764 1204.95,713.635 1195.73,732.21 1150.52,760.995 1143.12,769.6 1170.27,735.794 1198.73,715.687 1238.33,697.123 1217.58,718.027 1257.85,686.946 1240.5,679.635 1348.78,618.588 1338.38,630.109 1271.95,699.142 1404.58,579.325 1396.97,571.576 1309.24,648.743 1330.02,623.235 1279.1,654.133 1286.31,666.945 1397.82,579.815 1417.07,548.18 1478.97,534.69 1384.68,598.079 1384.58,591.837 1271.28,677.374 1287.09,652.85 1250.7,680.09 1173.79,762.205 1084.72,828.505 1095.04,800.312 1049.58,842.323 978.534,910.852 943.215,935.61 939.395,933.611 959.117,910.032 1064.63,811.714 1016.97,864.046 1082.54,805.335 1176.72,715.709 1186.96,718.27 1151.95,761.117 1087.55,807.629 1106.13,789.399 1166.68,733.276 1138.6,763.065 1135.28,769.171 1009.4,875.883 1006.2,868.89 967.931,910.514 925.356,944.51 990.082,872.453 1020.01,853.095 1004.04,872.371 982.481,885.092 1013.44,860.016 1045.46,836.446 1095.59,790.984 1059.83,837.724 999.778,885.992 1021.02,852.266 1091.08,806.758 1105.8,780.725 1196.91,694.387 1218.24,681.33 1232.85,678.748 1283.67,650.155 1281.68,665.501 1378.91,586.667 1278,695.805 1257.6,693.947 1184.54,746.452 1225.39,690.983 1271.19,670.913 1174.59,755.2 1059.17,843.803 1026.94,866.046 1041.03,842.538 1040.59,840.436 1144.14,746.531 1155.94,745.323 1290.18,618.023 1324.47,620.086 1361.44,594.843 1444.67,535.434 1368.47,611.289 1320.05,648.456 1402.1,579.024 1363.5,624.375 1352.62,625.094 1302.47,664.834 1202.39,740.031 1235.28,700.934 1334.6,616.353 1307.33,638.416 1401.48,574.879 1390.92,587.104 1378.56,601.698 1411.21,569.547 1409.42,570.861 1388.12,592.028 1245.53,705.322 1220.32,718.757 1278.85,635.526 1300.96,623.814 1306.6,635.633 1335.03,618.425 1263.78,676.583 1265.86,668.074 1403.36,573.176 1493.99,523.819 1525.92,499.172 1398.21,599.585 1408.34,572.621 1263.12,685.882 1263.04,669.4 1092.03,813.704 1086.05,814.362 1078.85,810.771 959.732,923.987 946.953,921.374 1019.17,838.42 1072.83,801.514 1157.49,731.639 1138.21,764.49 1124.97,772.05 1135.62,764.747 1234.28,670.487 1330.94,599.444 1320.14,635.805 1333.39,618.234 1365.68,609.125 1409.05,571.513 1426.81,568.042 1372.15,608.185 1379.12,596.59 1454.76,543.253 1474.81,536.725 1429.45,583.781 1580.34,455.86 1435.36,561.092 1460.03,539.07 1587.08,451.708 1470.1,563.35 1506.79,521.254 1549.29,494.528 1590.68,464.406 1486.56,536.931 1469.91,551.02 1454.79,538.155 1368.05,628.888 1388.74,594.785 1398.58,595.726 1272.66,703.475 1229.21,723.861 1275.75,654.965 1338.75,600.294 1292.04,663.566 1273.58,675.782 1283.53,643.558 1294.39,647.284 1247.38,699.928 1330.48,624.492 1266.9,689.364 1270.96,660.757 1154.34,758.334 1151.37,742.827 1107.94,793.41 1094.23,787.445 1173.86,728.163 1178.77,731.997 1187.44,719.654 1158.53,734.098 1232.17,685.928 1171.95,740.414 1082.1,829.652 1042.8,855.099 1069.41,820.354 1077.44,808.666 1150.31,739.653 1230.94,675.372 1249.86,669.854 1283.49,649.615 1437.64,520.41 1417.11,563.528 1495.86,503.769 1668.58,380.023 1672.25,413.842 1711.88,400.126 1509.19,558.783 1385.74,640.35 1370.42,629.603 1390.35,592.984 1381.64,604.21 1322.62,649.447 1299.75,658.096 1189.24,750.322 1164.75,761.007 1156.59,758.979 1206.49,705.436 1152.58,762.809 1167.27,745.764 1117.79,791.471 1020.15,888.049 989.462,897.652 914.96,973.668 923.393,949.365 988.982,878.481 1065.73,797.322 1061.23,830.295 1081.87,809.476 1142.98,752.557 1189.52,713.084 1271.47,653.367 1322.39,620.127 1339.85,602.586 1274.88,684.202 1259.4,686.238 1269.04,663.18 1251.39,680.759 1335.75,618.209 1381.5,579.441 1357.58,606.502 1403.84,587.834 1428.49,580.192 1292.8,678.302 1196.61,752.204 1132.15,798.897 1133.05,776.782 1170,731.678 1105.52,797.26 1145.11,760.086 1142.62,767.264 1200.1,718.532 1228.89,690.874 1221.74,693.445 1087.89,812.465 1183.54,726.551 1205.37,712.305 1210.88,711.387 1169.05,752.092 1246.11,701.535 1317.01,642.491 1374.57,592.726 1462.07,541.025 1509.59,514.536 1564.18,483.866 1513.64,520.178 1475.74,556.209 1384.01,626.399 1343.8,635.311 1282.24,677.835 1320.15,637.809 1386.45,578.39 1407.26,569.547 1373.56,610.309 1385.98,583.881 1479.19,507.406 1456.84,548.572 1297.26,676.865 1371.47,594.598 1365.08,594.076 1309.71,647.795 1327.78,646.845 1192.43,758.036 1234.72,691.007 1257.57,663.013 1137.62,773.841 1136.68,770.402 1053.08,835.986 1061.92,823.131 1157.51,731.486 1172.33,731.936 1163.96,739.748 1156.12,753.92 1107.87,802.788 1093.92,818.848 1056.22,838.138 1071.8,817.428 1089.53,801.097 1153.92,749.285 1173.64,728.259 1169.47,729.851 1101.92,797.819 1046.18,840.348 1053.43,839.942 1055.49,846.204 1091.69,799.866 1074.42,804.54 1067.22,823.032 1084.36,805.852 1201.34,694.741 1200.53,721.118 1263.66,667.82 1206.73,701.576 1155.3,734.293 1132.41,749.545 1265.3,642.454 1184.02,728.886 1203.28,709.993 1139.14,758.495 1194.75,732.3 1131.63,774.663 1197.96,714.812 1242.99,684.874 1183.43,742.951 1118.44,801.247 1130.26,776.684 1245.64,656.703 1243.38,676.007 1351.77,600.332 1263.83,675.584 1207.71,720.503 1248.16,690.453 1258.66,666.516 1293.6,634.752 1252.73,693.411 1235.98,720.98 1159.55,761.419 1110.56,805.693 1099.58,807.717 1149.83,749.503 1119.69,784.626 1100.05,801.499 1049.76,845.526 1050.08,839.319 1109.63,764.715 1133.81,759.839 1149.5,754.378 1132.77,770.055 1193.02,717.44 1220.63,696.285 1183.9,739.679 1222.48,702.917 1212.08,705.146 1113.13,778.065 1080.77,801.898 1137.43,755.639 1178.85,724.64 1123.91,783.47 1105.54,801.101 1065.41,820.629 1042.08,841.776 1045.2,837.703 1026.43,861.55 962.169,902.694 990.625,881.53 1007.48,861.672 1017.79,856.654 975.287,897.119 927.823,944.559 914.523,958.481 880.472,987.569 875.647,990.999 932.65,925.892 992.864,868.641 1021,853.85 1029.46,851.719 1059.83,823.672 962.972,909.155 1029.86,840.114 1038.09,824.487 1074.5,811.234 1029.48,855.974 1003.44,869.911 1037.53,839.924 1040.48,845.384 1051.02,848.839 1050.86,837.525 1051.64,831.993 1103.63,785.83 1075.59,824.091 1095.33,780.234 1078.36,797.233 1007.71,865.241 1005.09,864.299 1066.98,818.899 1162.35,737.783 1151.12,748.11 1256.72,680.095 1261.69,682.858 1205.77,718.432 1135.99,770.44 1113.61,793.544 1033.44,863.142 1012.67,869.612 1049.5,823.323 1014.44,862.055 994.049,893.393 951.629,943.43 1014.75,868.223 1033.42,862.046 1032.67,862.811 1001.48,881.081 975.227,899.15 1015.55,855.044 1064,807.801 1076.08,820.537 1044.14,857.615 1102.21,809.813 1069.32,831.063 1073.64,814.113 1167.31,740.416 1175.98,741.333 1111.6,795.523 1104.59,800.913 1053.01,834.801 1007.28,871.653 1066.85,827.017 983.468,892.557 1035.04,844.265 1020.88,869.438 1054.77,834.064 959.133,939.911 970.238,918.28 1024,860.364 1008.79,870.463 1090.03,804.009 1084.5,822.855 1199.13,710.058 1226.91,700.558 1291.44,650.465 1321.9,637.493 1229.98,676.144 1220.92,709.985 1186.48,735.87 1209.58,722.038 1305.96,642.212 1321.97,630.609 1388.18,577.031 1396.41,550.465 1397.44,574.216 1235.69,711.673 1165.18,755.496 1156.42,764.989 1246.94,673.463 1259.52,669.162 1221.77,685.468 1298.67,644.467 1308.24,630.024 1337.59,618.579 1430.16,535.214 1534.21,470.739 1570.39,452.21 1615.97,425.184 1699.72,398.975 1618.83,454.864 1645.18,437.813 1544.08,505.531 1422.42,598.264 1411.34,596.284 1495.64,512.405 1439.49,558.582 1340.14,643.894 1298.16,666.388 1360.45,602.943 1399.82,578.863 1388.51,593.785 1285.01,675.672 1277.44,672.864 1309.49,645.298 1260.39,678.571 1273.78,665.947 1327.8,615.527 1375,595.031 1372.51,604.242 1454.92,533.622 1401.11,586.84 1349.73,631.528 1337.66,627.42 1304.27,649.154 1247.19,688.781 1351.18,605.306 1203.15,736.027 1098.69,812.923 1099.27,803.328 1091.35,810.713 1125.46,769.786 1092.22,800.12 1027.99,864.971 1084.87,805.941 1184.49,705.556 1211.55,694.947 1132.03,788.898 1085.84,823.753 1092.95,794.02 1060.56,823.349 991.609,890.885 984.555,897.685 1024.23,862.688 1051.62,834.673 1019.05,860.83 1011.3,867.652 984.51,892.339 1024.89,859.25 1049.51,832.425 1046.44,812.141 1019.12,838.997 1002.33,875.44 1078.73,810.291 1187.37,721.892 1191.33,736.186 1258.83,665.777 1214.58,732.285 1206.2,732.534 1211.76,722.707 1270.56,679.908 1170.57,766.053 1061.06,848.448 979.666,926.188 970.644,912.081 1064.38,803.367 995.124,887.991 970.35,917.529 918.819,961.376 918.973,950.726 941.513,919.065 933.844,925.838 989.474,864.404 1030.32,837.451 1093.96,780.194 1211.92,682.546 1252.4,669.216 1274.83,672.039 1289.97,654.783 1255.18,685.754 1259.01,690.544 1296.95,653.595 1347.12,627.857 1418.82,564.66 1436.98,549.379 1441.52,553.723 1388.68,607.096 1471.86,533.534 1441.42,590.661 1369.17,630.147 1345.95,624.173 1285.73,676.295 1233.8,715.027 1163.78,756.531 1244,673.038 1197.56,731.359 1304.47,634.108 1414.1,544.168 1364.39,594.448 1373.61,594.306 1278.58,683.626 1198.91,752.77 1167.73,767.309 1228.14,704.807 1382.74,567.208 1499.79,482.002 1517.92,490.363 1505.13,511.3 1505.29,515.356 1437.85,565.124 1481.21,532.3 1517.06,521.158 1440.52,570.104 1391.79,605.73 1340.99,650.215 1249.47,711.369 1310.81,636.837 1301.03,646.074 1300.06,649.451 1403.89,558.697 1477.13,510.238 1382.52,605.007 1331.23,639.792 1317.98,645.192 1238.05,716.417 1290.97,656.02 1399.81,568.627 1350.58,617.158 1325.1,631.256 1350.54,600.102 1192.32,726.368 1235.86,681.565 1206.62,707.85 1241.69,686.582 1310.46,620.95 1290.87,648.923 1251.45,676.471 1408.72,571.195 1448.15,539.521 1480.19,521.833 1437.28,556.908 1354.2,616.558 1335.16,628.458 1294.92,675.39 1289.59,663.17 1213.3,729.815 1306.43,628.981 1273.45,683.459 1342.5,625.714 1232.04,715.141 1291.36,645.825 1204.38,729.403 1251.85,687.475 1148.92,771.315 1164.1,741.017 1230.41,673.982 1188.95,725.43 1161.51,755.792 1063.71,844.554 1028.28,871.285 1041.01,851.713 1046.34,836.875 1062.6,817.65 1068.69,812.38 1061.2,823.744 1056.99,824.872 1087.92,805.75 1024.59,874.578 1020.67,861.57 1013.95,870.137 966.75,899.248 929.177,937.072 975.688,889.633 951.053,918.373 958.667,909.675 1055.2,818.624 1061.81,819.805 1131.74,771.668 1210.13,685.975 1208.08,707.523 1278.24,650.508 1264.82,680.835 1201.08,735.052 1162.47,765.253 1077.73,830.758 1127.18,778.466 1070.54,824.449 1081.51,813.412 1094.4,792.408 1195.16,723.17 1128.76,785.987 1172.87,738.167 1170.51,733.49 1187.57,740.152 1159.39,760.993 1190,733.733 1145.34,763.584 1163.45,746.072 1067.21,831.281 1098.98,794.533 1092.49,801.352 1104.38,793.814 1077.42,820.11 1216.45,685.294 1213.83,700.334 1191.65,708.219 1224,690.13 1125.38,789.308 1133.53,778.598 1165.24,750.513 1198.67,703.618 1329.18,595.655 1244.56,686.442 1251.97,676.55 1265.79,674.488 1324.54,611.354 1242.32,703.448 1261.38,677.122 1311.49,620.253 1239.68,699.51 1258.26,684.608 1233.86,702.435 1169.78,756.943 1250.17,678.874 1237.98,695.985 1165.61,756.106 1160.38,748.703 1095.54,809.958 1155.15,750.188 1175.7,734.244 1220.67,681.152 1175.77,738.123 1203.75,707.053 1202.42,720.094 1119.19,792.543 1049.42,859.321 946.723,944.616 911.369,971.451 943.31,926.001 1022.46,828.927 1159.09,707.74 1177.64,708.018 1241.47,658.859 1285.8,638.987 1215.85,716.698 1185.92,747.395 1175.95,754.195 1181.07,736.953 1161.03,751.268 1184.74,729.826 1116.21,789.123 1170.07,729.518 1159.28,744.958 1139.08,763.117 1089.67,797.1 1081.05,814.053 1192.82,705.88 1177.83,732.211 1152.53,745.941 1216.06,688.365 1163.3,763.664 1155.67,755.412 1256.16,658.931 1337.09,602.635 1247.56,684.083 1325.95,623.019 1206.61,740.761 1210.73,725.421 1250.79,682.987 1238.02,699.195 1227.47,718.214 1151.99,757.981 1178.31,732.682 1181.74,731.352 1119.84,793.372 1098.88,809.456 1108.44,796.396 1167.93,719.318 1187.37,727.184 1116.67,797.806 1139.61,766.593 1114.23,797.029 1009.67,886.966 981.313,913.344 954.559,934.966 965.606,910.858 941.652,936.571 923.576,948.37 930.129,935.833 949.272,913.938 939.636,931.678 911.891,957.163 862.642,1007.17 895.56,965.037 917.236,948.196 962.434,897.917 998.618,872.081 1023.53,853.054 1007.54,870.838 999.019,878.078 952.807,918.2 935.738,938.02 890.03,982.256 895.396,974.965 945.736,927.987 900.848,966.773 924.604,936.073 934.208,930.473 918.046,948.105 1046.2,815.579 1063.48,819.318 1156.41,724.016 1232.79,683.29 1214.92,709.621 1162.52,761.419 1160.2,763.146 1153.04,772.941 1029.2,866.996 1021.77,869.036 995.065,886.574 1004.91,875.409 1078.31,787.307 1084.73,797.891 1101.72,784.809 1126.51,763.085 1195.16,698.953 1220.62,692.784 1312,616.214 1332.47,616.779 1414.97,551.666 1477.59,512.718 1399,601.015 1323.29,644.955 1267.2,679.054 1237.33,697.621 1239.08,683.906 1179.15,741.557 1133.82,774.976 1187.49,722.128 1228.82,689.733 1207.02,701.78 1237.57,673.843 1218.44,700.702 1165.6,746.241 1144.18,757.733 1207.34,700.083 1116.55,778.002 1135.19,755.05 1035.53,824.616 1068.07,800.47 1078.11,802.86 1066.82,827.985 1139.55,760.343 1183.88,714.47 1263.1,675.255 1212.49,728.167 1229.5,700.589 1219.79,719.038 1156.59,779.551 1067.08,843.51 1030.02,872.69 1059.69,827.891 1088.51,802.359 1116.15,779.633 1051.73,845.178 1064.44,821.998 1054.36,816.895 1034.18,855.655 1024.31,856.582 982.148,889.481 925.521,942.497 943.896,925.44 988.795,873.373 983.445,881.022 1044.36,832.182 1078.74,801.973 954.235,924.038 901.194,963.584 944.296,918.248 942.31,936.251 949.511,924.503 952.509,930.259 978.118,901.1 968.267,903.124 978.771,887.482 943.823,919.255 937.462,923.51 1019.39,847.571 1018.44,863.883 1052.69,839.823 1093.91,793.977 1058.98,823.517 1080.38,807.745 1127.78,760.254 1110.95,791.194 1006.72,903.426 1018.19,890.921 994.883,893.936 979.109,905.064 907.313,961.671 964.575,896.028 1066.82,791.757 1022.48,857.11 1009.31,867.603 1039.44,841.68 1068.48,814.465 1079.38,808.336 1078.39,819.021 1122.16,766.359 1177.07,732.644 1187.17,721.441 1383.42,564.042 1438.59,530.573 1350.6,617.648 1298.8,658.232 1355.95,594.787 1294,650.211 1264.8,664.047 1185.76,751.914 1277.61,655.197 1331.5,623.398 1229.02,712.42 1221.52,723.668 1203.6,718.465 1241.52,686.409 1221.21,709.671 1118.49,800.369 1122.43,786.572 1135.87,763.222 1125.51,771.319 1147.69,753.84 1183.4,728.211 1235.12,680.119 1210.69,709.867 1247.95,684.159 1347.02,614.434 1381.74,591.632 1353.31,615.194 1257.63,699.1 1225.69,716.137 1247.59,684.372 1177.56,746.716 1190.52,725.19 1107.4,786.345 1093.57,803.663 1108.56,790.222 1082.76,810.574 1006.66,877.845 966.846,911.25 944.165,932.574 947.693,939.159 962.772,915.266 1015.19,878.689 1010.54,874.627 938.876,943.573 962.364,914.856 1062.66,809.774 1027.27,844.813 1074.06,799.2 1158.42,738.763 1300.71,610.041 1374.99,574.611 1489.48,498.776 1460.95,542.473 1512.16,506.121 1496.28,512.873 1531.63,492.588 1520.82,518.407 1544,487.518 1602.45,452.564 1513.63,524.335 1467.73,549.885 1348.37,640.763 1366.92,603.248 1293.57,664.002 1196.45,745.202 1161.78,747.788 1255.71,661.139 1362.43,562.353 1467.25,508.393 1608.09,405.182 1576.58,461.634 1498.54,544.722 1459.51,559.915 1429.99,572.88 1344.41,645.96 1351.71,630.613 1291.1,674.1 1300.31,648.548 1220.4,722.272 1212.79,726.166 1288.67,645.714 1231.46,693.307 1301.46,641.785 1471.56,511.024 1394.26,593.701 1393.46,603.643 1329.24,652.795 1304.2,660.394 1389.01,576.163 1522.72,489.597 1480.38,534.391 1544.36,490.26 1456.68,565.82 1492.54,527.618 1513.94,519.919 1500.1,521.903 1450.24,561.36 1333.47,642.471 1340.48,617.889 1300.01,660.685 1213.89,722.262 1219.31,707.979 1192.01,734.414 1192.66,720.547 1224.58,690.932 1201.57,721.302 1219.12,699.172 1180.72,730.669 1236.22,688.734 1295.16,633.612 1391.43,568.919 1470.2,520.262 1501.46,507.203 1394.47,598.796 1286.76,682.915 1434.55,535.279 1403.74,559.933 1347.62,615.622 1130.99,797.423 1098.55,812.586 1063.39,835.401 1069.91,819.773 1025.09,857.785 1095.59,785.024 1165.34,732.821 1246.76,656.484 1335.58,585.194 1397.68,554.077 1441.94,546.527 1444.18,538.579 1461.23,552.471 1505.85,517.137 1549.41,487.24 1695.39,386.725 1494.51,561.66 1461.34,572.242 1523.8,504.801 1580.7,452.638 1587.05,458.725 1517.14,513.485 1537.9,492.111 1585.07,450.834 1687.16,391.954 1747.98,372.91 1738.44,386.501 1596.25,491.722 1592.44,481.293 1509.31,540.962 1473.45,561.111 1491.38,539.676 1487.92,529.845 1425.44,580.13 1426.92,576.982 1402.35,584.581 1418.92,572.803 1419.02,570.434 1474.38,525.743 1453.17,549.422 1410.12,593.143 1416.98,574.699 1380.55,597.834 1320.56,646.448 1320.75,635.69 1339,626.271 1299.22,662.653 1338.45,608.872 1355.57,611.72 1416.99,558.625 1347.25,620.011 1348.92,623.472 1228.11,713.543 1102.88,812.401 1069.3,836.902 1008.74,883.244 993.036,893.22 981.541,899.097 961.636,912.408 948.836,925.406 958.932,910.276 1050.63,821.334 1067.86,806.016 1037.83,840.077 1123.98,766.527 1177.44,722.748 1159.54,757.731 1171.09,733.376 1151.71,752.56 1084.76,829.601 1063.5,843.779 1087.3,825.013 1190.6,719.541 1103.74,792.558 1232.4,688.145 1271.71,672.861 1416.17,561.394 1532.81,481.426 1436.6,565.731 1471.93,545.378 1336.24,640.25 1316.27,648.738 1296.21,660.241 1221.8,714.213 1276.88,656.307 1293.26,650.63 1177.21,745.286 1118.34,796.791 1116.37,781.824 1116.72,774.524 1187.46,707.023 1123.27,787.915 1084.24,834.338 1075.56,816.601 1071.58,815.746 1150.82,744.411 1077.23,820.414 1079.8,810.079 1054.5,826.402 1097.19,775.719 1066.51,810.068 1029.86,856.643 1071.94,816.427 1139.02,771.413 1128.74,785.498 1190.87,728.897 1183.71,739.773 1234.74,670.91 1154.79,741.93 1213.39,712.293 1188.88,732.339 1164.01,755.221 1168.46,729.705 1230.93,686.326 1270.81,648.644 1234.7,700.323 1267.77,654.962 1311.04,630.092 1326.01,640.001 1390.17,599.372 1574.91,474.864 1744.6,359.105 1604.38,469.844 1637.27,427.301 1584.38,480.228 1535.55,514.198 1468.38,557.229 1539.19,489.051 1332.69,660.507 1262.63,706.359 1176.87,766.531 1176.75,749.444 1093.75,823.935 1077.73,826.542 1089.75,802.315 1126.71,772.674 1088.45,806.805 1046.91,842.422 1026.15,850.085 1130.67,758.078 1134.58,762.948 1237.96,675.952 1285.14,641.531 1276.77,668.13 1236.26,691.903 1217.5,711.014 1163.89,753.685 1128.64,783.476 1140.72,773.184 1088.26,824.983 1150.29,748.034 1132.4,764.802 1146.9,755.052 1147.32,760.285 1121.06,776.908 1112.02,789.173 1212.12,693.425 1230.37,693.655 1218.37,698.879 1186.96,736.658 1251.98,678.005 1347.86,609.172 1405.02,583.242 1377.47,605.284 1274.33,694.671 1194.71,748.096 1112.48,815.061 1145.64,763.03 1168.05,742.759 1150.91,761.807 1103.18,793.208 1082.85,814.538 1074.54,812.331 1047.07,839.999 1032.26,850.642 1058.08,825.173 1006.87,878.622 1018.55,870.915 1054.23,835.209 1043.11,831.099 1030.26,836.274 1092.08,789.129 1134.34,766.926 1192.06,729.368 1229.89,695.628 1337.94,608.076 1315.77,633.296 1278.44,665.794 1328.59,621.036 1450.34,531.719 1467.81,554.969 1420.69,583.172 1388.78,605.656 1281.83,676.702 1375.67,586.406 1329.64,632.88 1252.01,709.25 1139.79,794.98 1109.88,804.647 1105.04,794.213 1083.77,819.101 1200.31,703.154 1216.23,702.696 1248.58,679.978 1285.61,660.891 1320.87,628.792 1330.46,626.132 1387.88,564.61 1264.72,680.44 1359.44,604.88 1313.96,621.114 1217.09,716.011 1205.14,709.115 1151,759.32 1278.62,664.741 1305.99,642.301 1323.7,623.809 1326.13,622.943 1369.92,598.577 1308.11,655.85 1372.33,599.438 1350.1,610.912 1263.72,683.066 1217.98,710.643 1112.45,799.849 1144.43,752.918 1257.82,662.434 1273.76,677.696 1261.82,673.89 1286.54,664.641 1283.91,677.008 1414.91,545.375 1466.29,547.376 1489.07,529.268 1449.46,566.704 1408.78,606.33 1377.65,617.095 1479.77,523.733 1445.42,566.891 1511.81,500.172 1485.23,526.69 1431.34,571.003 1327.01,654.669 1351.33,609.112 1212.45,728.502 1201.71,730.089 1231.52,699.479 1209.08,710.802 1126.81,782.99 1172.22,735.419 1169.92,739.045 1217.11,695.726 1220.54,687.804 1136.34,774.754 1035.48,869.815 1029.54,859.504 1063.24,822.164 1089.54,793.86 1027.13,854.796 1076.92,797.212 1162.86,733.885 1080.5,818.091 1089.3,803.965 1108.52,794.284 1162.04,775.952 1177.12,752.233 1060.75,832.027 1035.28,853.197 1124.83,760.276 1106.51,788.935 1103.67,797.509 1120.82,780.227 1247.22,662.666 1222.16,697.559 1236.03,676.3 1202.15,710.903 1160.55,734.697 1084.52,828.009 1111.89,796.249 1052.95,842.516 1048.66,841.443 1088.94,808.377 1039.17,844.92 978.036,901.337 1064.15,800.57 1061.52,809.673 1076.69,807.336 1120.97,779.123 1171.7,737.989 1128.34,776.164 1079.97,816.462 1128.05,746.945 1139.24,748.72 1225.9,659.427 1230.64,674.196 1215.04,702.594 1105.31,794.985 1105.64,816.099 1191.61,747.103 1257.54,674.116 1252.69,688.998 1358.39,624.98 1322.85,645.459 1273.41,678.685 1224.66,696.554 1260.74,683.611 1317.43,631.921 1357.56,605.678 1521.77,508.746 1473.53,557.883 1430.35,556.692 1428.15,569.32 1534.08,479.491 1561.47,470.841 1327.48,658.368 1256.32,705.547 1345.55,614.022 1410.91,562.241 1343.81,627.46 1317.82,641.849 1333.15,635.226 1298.82,662.412 1319.74,626.803 1394.55,576.59 1398.48,584.912 1482.61,517.398 1589.01,468.819 1632.32,428.996 1624.46,456.089 1526.13,527.057 1501.68,531.453 1355.04,640.074 1335.25,642.967 1378.56,605.704 1352.89,619.378 1370.43,595.605 1245.54,705.867 1248.56,690.491 1212.96,715.392 1150.57,770.596 1201.16,709.138 1132.65,772.092 1206.96,708.342 1163.28,746.322 1172.08,752.802 1187.44,730.602 1123.94,782.949 1079.81,828.378 1072.35,841.379 1179.1,747.259 1194.17,720.831 1195.72,713.126 1216.39,706.821 1209.35,707.254 1159.88,754.308 1329.72,616.528 1328.81,619.712 1339.8,631.375 1322.1,637.262 1269.34,678.199 1299.87,647.372 1213.9,735.22 1278.97,659.361 1194.32,748.69 1205.28,739.622 1128.71,799.266 1052.67,849.472 1101.51,802.768 1076.96,812.068 1061.99,824.078 1037.51,849.044 1071.75,812.568 1088.09,809.573 1066.61,820.318 1089.84,808.912 1173.44,731.845 1351.57,576.885 1316.09,638.564 1413.13,545.676 1488.16,526.366 1500.42,518.293 1493.96,527.864 1542.18,491.488 1526.28,498.665 1508.91,519.457 1471.13,555.644 1454.32,551.702 1429.2,576.68 1526.95,482.342 1469.18,538.996 1387.62,605.798 1393.75,597.481 1558.83,447.715 1376.08,598.485 1378.11,592.743 1294.9,649.095 1311.79,635.333 1259.15,693.037 1262.87,673.408 1278.46,656.797 1309.18,638.951 1228.14,702.649 1375.22,578.11 1442.06,543.188 1446.74,537.909 1548.22,462.412 1491.32,536.939 1474.64,526.166 1383.84,602.308 1366.45,611.81 1308.1,663.612 1268.78,672.364 1245.42,697.008 1275.61,672.858 1374.06,568.803 1475.08,539.876 1441.47,569.821 1502.22,513.278 1494.82,530.211 1403.91,593.819 1339.73,646 1301.42,667.841 1360.73,604.458 1262.33,690.587 1339.33,608.695 1305.96,645.633 1321.91,626.358 1330.77,619.741 1310.96,648.218 1195.56,746.629 1085.23,837.914 1074.46,827.741 1103.51,793.315 1155.14,742.353 1193.82,711.975 1196.18,719.289 1318.23,613.482 1275.09,673.721 1190.15,743.628 1122.57,785.111 1012.22,891.084 1072.96,814.829 1091.17,804.549 1088.47,807.378 1081.04,814.656 1078.86,807.275 1086.68,796.685 1038.72,844.752 998.76,862.879 928.789,949.956 969.7,901.852 995.257,872.371 1067.44,815.911 1084.79,805.391 1070.11,815.665 1096.6,777.022 1055.34,823.452 1182.52,718.025 1210.25,704.956 1211.05,698.742 1154.39,741.022 1234.53,707.278 1248.67,686.543 1212.23,709.552 1159.27,758.888 1085.93,813.189 1069.63,824.83 1010.08,879.788 971.079,916.524 1050.65,839.37 1030.86,847.91 1068.33,808.51 1100.93,788.519 1165.12,728.806 1041.98,854.297 972.251,917.511 993.458,882.072 1112.35,758.506 1123.34,763.471 1161.23,726.925 1109.92,783.644 1158.85,762.34 1211.81,701.864 1213.36,707.587 1246.56,676.784 1246.97,673.125 1260.49,672.18 1293.05,650.138 1245.53,693.181 1366,592.119 1405.93,559.014 1562.58,454.352 1657.33,409.394 1601.87,469.325 1635.77,460.679 1565.22,511.986 1481.08,560.061 1411.02,614.635 1496.3,511.177 1437.66,560.6 1414.8,573.266 1270.16,701.514 1306,645.2 1303.5,643.846 1310.5,640.481 1245.09,703.159 1173.04,757.301 1230,691.979 1261.91,665.427 1238.65,690.683 1215.45,703.201 1275.2,662.866 1344.19,603.387 1297.97,654.06 1266.1,683.318 1144.46,768.611 1122.92,779.633 1051.9,834.126 1052.78,827.618 974.327,917.326 995.69,874.83 1018.24,844.162 968.103,903.737 990.215,883.173 1006.98,862.928 1053.13,837.412 1127.71,755.363 1170.82,730.819 1148.97,755.128 1160.53,746.919 1146.41,760.074 1211.43,698.727 1235.06,688.328 1330.17,612.919 1242.27,715.276 1304.9,661.825 1190.65,741.13 1189.44,733.007 1213.3,699.508 1252.89,668.799 1210.83,702.271 1187.06,727.746 1288.1,633.852 1255.73,678.652 1311.3,630.038 1226.18,735.537 1169.82,759.439 1099.36,819.999 1074.85,823.7 1071.95,819.369 1101.96,786.006 1163.95,729.965 1172.6,737.901 1149.92,763.157 1188.98,723.409 1255.44,665.449 1282.58,653.295 1306.15,627.267 1330.13,623.469 1331.52,628.408 1326.2,624.844 1355.6,598.084 1346.75,605.222 1475.83,509.473 1364.11,625.268 1371.17,612.819 1299.08,663.266 1369.28,589.926 1357.12,608.454 1330.48,640.165 1341.46,634.786 1429.1,584.909 1390.24,586.61 1355.04,622.477 1401.46,572.261 1320.39,641.75 1214.76,717.306 1157.71,766.336 1149.85,761.323 1157.66,738.704 1234.72,675.746 1251.8,664.421 1294.62,631.287 1398.62,557.147 1471.1,536.74 1534.7,490.385 1472.74,528.846 1547.99,473.073 1532.22,495.862 1438.67,570.597 1444.66,560.932 1425.25,562.649 1395.22,589.847 1472.61,511.969 1270.91,682.902 1303.05,648.976 1326.85,620.801 1478.1,511.287 1360.95,613.876 1286.77,664.725 1231.43,696.622 1208.57,713.039 1134.85,786.301 1143.84,769.871 1108.48,792.148 1064.17,829.379 1053.68,823.395 1049.05,840.247 1024.75,860.305 1027.66,850.822 1001.81,889.625 1061.13,846.671 1080.38,830.214 1051.09,843.787 987.61,890.44 977.374,905.67 949.826,925.248 983.024,897.584 985.183,888.252 984.13,898.998 1073.22,807.658 1090,798.882 1052.79,835.201 1185.23,715.549 1122.66,769.525 1048.86,844.314 956.324,922.698 1008.63,854.466 973.627,906.333 996.417,878.861 1076.37,800.95 1056.82,832.721 1047.36,839.903 1037.83,852.835 1015.29,850.567 984.3,889.636 1044.39,848.692 983.588,907.887 1165.85,718.311 1232.84,673.841 1251.64,679.584 1252.98,684.531 1276.64,667.067 1339.24,626.673 1269.23,685.52 1282.23,662.061 1242.1,687.279 1251.61,697.406 1227.96,704.769 1140.89,772.12 1002.24,892.745 1038.4,837.081 1026.69,850.365 957.688,921.338 1011.62,856.272 933.16,928.662 878.269,989.387 833.119,1033.92 833.874,1031.55 881.864,975.192 943.647,908.755 1019.08,826.865 1051.44,823.056 1066.38,822.344 1059.39,834.864 1059.28,835.872 1003.62,883.751 1119,762.305 1178.62,714.545 1140.36,753.135 1214.95,702.168 1290.38,638.856 1228.45,707.572 1306.92,644.249 1369.42,605.665 1260.01,690.184 1165.68,763.901 1195.47,728.058 1125.45,789.56 1146.21,770.758 1188.96,716.984 1102.67,814.355 1052.85,833.89 1045.32,833.859 1068.61,812.212 1138.44,748.25 1170.54,733.578 1082.75,824.293 1073.77,822.881 1168.05,723.971 1193.56,707.639 1223.04,696.24 1160.92,758.715 1214.98,704.345 1246.01,674.871 1362.62,584.387 1340.07,625.769 1335.53,636.953 1251.33,698.876 1336.36,607.745 1323.52,628.296 1307,659.029 1286.95,651.104 1304.97,638.96 1286.14,671.785 1254.51,698.634 1157.32,772.938 1154.62,766.155 1123.22,785.599 1111.44,786.78 1053.42,843.956 1070.69,821.506 1066.25,824.069 1023.33,869.681 937.65,964.98 933.914,936.36 929.485,934.865 949.076,914.108 932.782,934.081 885.393,983.285 855.706,1009.37 826.865,1043.78 808.924,1059.79 802.607,1061.06 805.145,1054.69 842.821,1013.09 930.332,915.375 981.112,870.67 970.635,891.724 998.404,868.272 1031.09,838.765 1075.34,786.598 994.626,877.001 1024.78,854.632 948.351,928.725 1001.22,880.196 966.093,920.902 987.691,907.383 937.561,953.608 998.003,888.88 1006.66,866.654 993.35,882.964 1026.01,858.735 1130.4,779.835 1211.54,702.387 1145.37,771.427 1077.18,826.932 1044.37,854.306 1038.45,851.521 1047.12,855.233 1026.41,876.587 999.833,891.81 1005.67,877.675 1010.73,867.124 "/>
<path clip-path="url(#clip480)" d="M186.863 198.898 L550.897 198.898 L550.897 95.2176 L186.863 95.2176  Z" fill="#ffffff" fill-rule="evenodd" fill-opacity="1"/>
<polyline clip-path="url(#clip480)" style="stroke:#000000; stroke-linecap:round; stroke-linejoin:round; stroke-width:4; stroke-opacity:1; fill:none" points="186.863,198.898 550.897,198.898 550.897,95.2176 186.863,95.2176 186.863,198.898 "/>
<polyline clip-path="url(#clip480)" style="stroke:#009af9; stroke-linecap:round; stroke-linejoin:round; stroke-width:4; stroke-opacity:1; fill:none" points="211.758,147.058 361.13,147.058 "/>
<path clip-path="url(#clip480)" d="M396.651 128.366 Q393.549 133.69 392.044 138.898 Q390.54 144.106 390.54 149.453 Q390.54 154.801 392.044 160.055 Q393.572 165.287 396.651 170.588 L392.947 170.588 Q389.475 165.148 387.739 159.893 Q386.026 154.639 386.026 149.453 Q386.026 144.291 387.739 139.06 Q389.452 133.828 392.947 128.366 L396.651 128.366 Z" fill="#000000" fill-rule="nonzero" fill-opacity="1" /><path clip-path="url(#clip480)" d="M403.063 138.412 L423.294 138.412 L423.294 142.301 L407.276 160.935 L423.294 160.935 L423.294 164.338 L402.484 164.338 L402.484 160.449 L418.502 141.815 L403.063 141.815 L403.063 138.412 Z" fill="#000000" fill-rule="nonzero" fill-opacity="1" /><path clip-path="url(#clip480)" d="M430.887 158.458 L435.771 158.458 L435.771 162.439 L431.975 169.847 L428.988 169.847 L430.887 162.439 L430.887 158.458 Z" fill="#000000" fill-rule="nonzero" fill-opacity="1" /><path clip-path="url(#clip480)" d="M455.655 166.745 Q453.849 171.375 452.136 172.787 Q450.423 174.199 447.553 174.199 L444.15 174.199 L444.15 170.634 L446.65 170.634 Q448.41 170.634 449.382 169.8 Q450.354 168.967 451.535 165.865 L452.298 163.921 L441.812 138.412 L446.326 138.412 L454.428 158.689 L462.53 138.412 L467.044 138.412 L455.655 166.745 Z" fill="#000000" fill-rule="nonzero" fill-opacity="1" /><path clip-path="url(#clip480)" d="M474.011 158.458 L478.896 158.458 L478.896 162.439 L475.099 169.847 L472.113 169.847 L474.011 162.439 L474.011 158.458 Z" fill="#000000" fill-rule="nonzero" fill-opacity="1" /><path clip-path="url(#clip480)" d="M509.544 138.412 L500.169 151.027 L510.03 164.338 L505.007 164.338 L497.46 154.152 L489.914 164.338 L484.891 164.338 L494.96 150.773 L485.747 138.412 L490.77 138.412 L497.645 147.648 L504.52 138.412 L509.544 138.412 Z" fill="#000000" fill-rule="nonzero" fill-opacity="1" /><path clip-path="url(#clip480)" d="M515.377 128.366 L519.081 128.366 Q522.553 133.828 524.266 139.06 Q526.002 144.291 526.002 149.453 Q526.002 154.639 524.266 159.893 Q522.553 165.148 519.081 170.588 L515.377 170.588 Q518.456 165.287 519.96 160.055 Q521.488 154.801 521.488 149.453 Q521.488 144.106 519.96 138.898 Q518.456 133.69 515.377 128.366 Z" fill="#000000" fill-rule="nonzero" fill-opacity="1" /></svg>
