<?xml version="1.0" encoding="utf-8"?>
<svg xmlns="http://www.w3.org/2000/svg" xmlns:xlink="http://www.w3.org/1999/xlink" width="600" height="400" viewBox="0 0 2400 1600">
<defs>
  <clipPath id="clip210">
    <rect x="0" y="0" width="2400" height="1600"/>
  </clipPath>
</defs>
<path clip-path="url(#clip210)" d="M0 1600 L2400 1600 L2400 0 L0 0  Z" fill="#ffffff" fill-rule="evenodd" fill-opacity="1"/>
<defs>
  <clipPath id="clip211">
    <rect x="193" y="47" width="2160" height="1377"/>
  </clipPath>
</defs>
<path clip-path="url(#clip210)" d="M193.936 1423.18 L2352.76 1423.18 L2352.76 47.2441 L193.936 47.2441  Z" fill="#ffffff" fill-rule="evenodd" fill-opacity="1"/>
<polyline clip-path="url(#clip211)" style="stroke:#000000; stroke-linecap:round; stroke-linejoin:round; stroke-width:2; stroke-opacity:0.1; fill:none" points="193.936,1423.18 193.936,47.2441 "/>
<polyline clip-path="url(#clip211)" style="stroke:#000000; stroke-linecap:round; stroke-linejoin:round; stroke-width:2; stroke-opacity:0.1; fill:none" points="625.7,1423.18 625.7,47.2441 "/>
<polyline clip-path="url(#clip211)" style="stroke:#000000; stroke-linecap:round; stroke-linejoin:round; stroke-width:2; stroke-opacity:0.1; fill:none" points="1057.46,1423.18 1057.46,47.2441 "/>
<polyline clip-path="url(#clip211)" style="stroke:#000000; stroke-linecap:round; stroke-linejoin:round; stroke-width:2; stroke-opacity:0.1; fill:none" points="1489.23,1423.18 1489.23,47.2441 "/>
<polyline clip-path="url(#clip211)" style="stroke:#000000; stroke-linecap:round; stroke-linejoin:round; stroke-width:2; stroke-opacity:0.1; fill:none" points="1920.99,1423.18 1920.99,47.2441 "/>
<polyline clip-path="url(#clip211)" style="stroke:#000000; stroke-linecap:round; stroke-linejoin:round; stroke-width:2; stroke-opacity:0.1; fill:none" points="2352.76,1423.18 2352.76,47.2441 "/>
<polyline clip-path="url(#clip211)" style="stroke:#000000; stroke-linecap:round; stroke-linejoin:round; stroke-width:2; stroke-opacity:0.1; fill:none" points="193.936,1362.78 2352.76,1362.78 "/>
<polyline clip-path="url(#clip211)" style="stroke:#000000; stroke-linecap:round; stroke-linejoin:round; stroke-width:2; stroke-opacity:0.1; fill:none" points="193.936,1093.84 2352.76,1093.84 "/>
<polyline clip-path="url(#clip211)" style="stroke:#000000; stroke-linecap:round; stroke-linejoin:round; stroke-width:2; stroke-opacity:0.1; fill:none" points="193.936,824.896 2352.76,824.896 "/>
<polyline clip-path="url(#clip211)" style="stroke:#000000; stroke-linecap:round; stroke-linejoin:round; stroke-width:2; stroke-opacity:0.1; fill:none" points="193.936,555.954 2352.76,555.954 "/>
<polyline clip-path="url(#clip211)" style="stroke:#000000; stroke-linecap:round; stroke-linejoin:round; stroke-width:2; stroke-opacity:0.1; fill:none" points="193.936,287.012 2352.76,287.012 "/>
<polyline clip-path="url(#clip210)" style="stroke:#000000; stroke-linecap:round; stroke-linejoin:round; stroke-width:4; stroke-opacity:1; fill:none" points="193.936,1423.18 2352.76,1423.18 "/>
<polyline clip-path="url(#clip210)" style="stroke:#000000; stroke-linecap:round; stroke-linejoin:round; stroke-width:4; stroke-opacity:1; fill:none" points="193.936,1423.18 193.936,1404.28 "/>
<polyline clip-path="url(#clip210)" style="stroke:#000000; stroke-linecap:round; stroke-linejoin:round; stroke-width:4; stroke-opacity:1; fill:none" points="625.7,1423.18 625.7,1404.28 "/>
<polyline clip-path="url(#clip210)" style="stroke:#000000; stroke-linecap:round; stroke-linejoin:round; stroke-width:4; stroke-opacity:1; fill:none" points="1057.46,1423.18 1057.46,1404.28 "/>
<polyline clip-path="url(#clip210)" style="stroke:#000000; stroke-linecap:round; stroke-linejoin:round; stroke-width:4; stroke-opacity:1; fill:none" points="1489.23,1423.18 1489.23,1404.28 "/>
<polyline clip-path="url(#clip210)" style="stroke:#000000; stroke-linecap:round; stroke-linejoin:round; stroke-width:4; stroke-opacity:1; fill:none" points="1920.99,1423.18 1920.99,1404.28 "/>
<polyline clip-path="url(#clip210)" style="stroke:#000000; stroke-linecap:round; stroke-linejoin:round; stroke-width:4; stroke-opacity:1; fill:none" points="2352.76,1423.18 2352.76,1404.28 "/>
<path clip-path="url(#clip210)" d="M193.936 1454.1 Q190.325 1454.1 188.496 1457.66 Q186.691 1461.2 186.691 1468.33 Q186.691 1475.44 188.496 1479.01 Q190.325 1482.55 193.936 1482.55 Q197.57 1482.55 199.376 1479.01 Q201.204 1475.44 201.204 1468.33 Q201.204 1461.2 199.376 1457.66 Q197.57 1454.1 193.936 1454.1 M193.936 1450.39 Q199.746 1450.39 202.802 1455 Q205.88 1459.58 205.88 1468.33 Q205.88 1477.06 202.802 1481.67 Q199.746 1486.25 193.936 1486.25 Q188.126 1486.25 185.047 1481.67 Q181.992 1477.06 181.992 1468.33 Q181.992 1459.58 185.047 1455 Q188.126 1450.39 193.936 1450.39 Z" fill="#000000" fill-rule="nonzero" fill-opacity="1" /><path clip-path="url(#clip210)" d="M620.353 1481.64 L636.672 1481.64 L636.672 1485.58 L614.728 1485.58 L614.728 1481.64 Q617.39 1478.89 621.973 1474.26 Q626.58 1469.61 627.76 1468.27 Q630.006 1465.74 630.885 1464.01 Q631.788 1462.25 631.788 1460.56 Q631.788 1457.8 629.843 1456.07 Q627.922 1454.33 624.82 1454.33 Q622.621 1454.33 620.168 1455.09 Q617.737 1455.86 614.959 1457.41 L614.959 1452.69 Q617.783 1451.55 620.237 1450.97 Q622.691 1450.39 624.728 1450.39 Q630.098 1450.39 633.293 1453.08 Q636.487 1455.77 636.487 1460.26 Q636.487 1462.39 635.677 1464.31 Q634.89 1466.2 632.783 1468.8 Q632.205 1469.47 629.103 1472.69 Q626.001 1475.88 620.353 1481.64 Z" fill="#000000" fill-rule="nonzero" fill-opacity="1" /><path clip-path="url(#clip210)" d="M1060.47 1455.09 L1048.67 1473.54 L1060.47 1473.54 L1060.47 1455.09 M1059.25 1451.02 L1065.13 1451.02 L1065.13 1473.54 L1070.06 1473.54 L1070.06 1477.43 L1065.13 1477.43 L1065.13 1485.58 L1060.47 1485.58 L1060.47 1477.43 L1044.87 1477.43 L1044.87 1472.92 L1059.25 1451.02 Z" fill="#000000" fill-rule="nonzero" fill-opacity="1" /><path clip-path="url(#clip210)" d="M1489.63 1466.44 Q1486.48 1466.44 1484.63 1468.59 Q1482.8 1470.74 1482.8 1474.49 Q1482.8 1478.22 1484.63 1480.39 Q1486.48 1482.55 1489.63 1482.55 Q1492.78 1482.55 1494.61 1480.39 Q1496.46 1478.22 1496.46 1474.49 Q1496.46 1470.74 1494.61 1468.59 Q1492.78 1466.44 1489.63 1466.44 M1498.92 1451.78 L1498.92 1456.04 Q1497.16 1455.21 1495.35 1454.77 Q1493.57 1454.33 1491.81 1454.33 Q1487.18 1454.33 1484.73 1457.45 Q1482.3 1460.58 1481.95 1466.9 Q1483.31 1464.89 1485.37 1463.82 Q1487.43 1462.73 1489.91 1462.73 Q1495.12 1462.73 1498.13 1465.9 Q1501.16 1469.05 1501.16 1474.49 Q1501.16 1479.82 1498.01 1483.03 Q1494.86 1486.25 1489.63 1486.25 Q1483.64 1486.25 1480.47 1481.67 Q1477.3 1477.06 1477.3 1468.33 Q1477.3 1460.14 1481.18 1455.28 Q1485.07 1450.39 1491.62 1450.39 Q1493.38 1450.39 1495.17 1450.74 Q1496.97 1451.09 1498.92 1451.78 Z" fill="#000000" fill-rule="nonzero" fill-opacity="1" /><path clip-path="url(#clip210)" d="M1920.99 1469.17 Q1917.66 1469.17 1915.74 1470.95 Q1913.84 1472.73 1913.84 1475.86 Q1913.84 1478.98 1915.74 1480.77 Q1917.66 1482.55 1920.99 1482.55 Q1924.33 1482.55 1926.25 1480.77 Q1928.17 1478.96 1928.17 1475.86 Q1928.17 1472.73 1926.25 1470.95 Q1924.35 1469.17 1920.99 1469.17 M1916.32 1467.18 Q1913.31 1466.44 1911.62 1464.38 Q1909.95 1462.32 1909.95 1459.35 Q1909.95 1455.21 1912.89 1452.8 Q1915.85 1450.39 1920.99 1450.39 Q1926.15 1450.39 1929.09 1452.8 Q1932.03 1455.21 1932.03 1459.35 Q1932.03 1462.32 1930.34 1464.38 Q1928.68 1466.44 1925.69 1467.18 Q1929.07 1467.96 1930.95 1470.26 Q1932.84 1472.55 1932.84 1475.86 Q1932.84 1480.88 1929.77 1483.57 Q1926.71 1486.25 1920.99 1486.25 Q1915.27 1486.25 1912.2 1483.57 Q1909.14 1480.88 1909.14 1475.86 Q1909.14 1472.55 1911.04 1470.26 Q1912.94 1467.96 1916.32 1467.18 M1914.6 1459.79 Q1914.6 1462.48 1916.27 1463.98 Q1917.96 1465.49 1920.99 1465.49 Q1924 1465.49 1925.69 1463.98 Q1927.4 1462.48 1927.4 1459.79 Q1927.4 1457.11 1925.69 1455.6 Q1924 1454.1 1920.99 1454.1 Q1917.96 1454.1 1916.27 1455.6 Q1914.6 1457.11 1914.6 1459.79 Z" fill="#000000" fill-rule="nonzero" fill-opacity="1" /><path clip-path="url(#clip210)" d="M2327.44 1481.64 L2335.08 1481.64 L2335.08 1455.28 L2326.77 1456.95 L2326.77 1452.69 L2335.04 1451.02 L2339.71 1451.02 L2339.71 1481.64 L2347.35 1481.64 L2347.35 1485.58 L2327.44 1485.58 L2327.44 1481.64 Z" fill="#000000" fill-rule="nonzero" fill-opacity="1" /><path clip-path="url(#clip210)" d="M2366.8 1454.1 Q2363.18 1454.1 2361.36 1457.66 Q2359.55 1461.2 2359.55 1468.33 Q2359.55 1475.44 2361.36 1479.01 Q2363.18 1482.55 2366.8 1482.55 Q2370.43 1482.55 2372.23 1479.01 Q2374.06 1475.44 2374.06 1468.33 Q2374.06 1461.2 2372.23 1457.66 Q2370.43 1454.1 2366.8 1454.1 M2366.8 1450.39 Q2372.61 1450.39 2375.66 1455 Q2378.74 1459.58 2378.74 1468.33 Q2378.74 1477.06 2375.66 1481.67 Q2372.61 1486.25 2366.8 1486.25 Q2360.99 1486.25 2357.91 1481.67 Q2354.85 1477.06 2354.85 1468.33 Q2354.85 1459.58 2357.91 1455 Q2360.99 1450.39 2366.8 1450.39 Z" fill="#000000" fill-rule="nonzero" fill-opacity="1" /><path clip-path="url(#clip210)" d="M1272.41 1522.27 L1272.41 1532.4 L1284.47 1532.4 L1284.47 1536.95 L1272.41 1536.95 L1272.41 1556.3 Q1272.41 1560.66 1273.58 1561.9 Q1274.79 1563.14 1278.45 1563.14 L1284.47 1563.14 L1284.47 1568.04 L1278.45 1568.04 Q1271.67 1568.04 1269.1 1565.53 Q1266.52 1562.98 1266.52 1556.3 L1266.52 1536.95 L1262.22 1536.95 L1262.22 1532.4 L1266.52 1532.4 L1266.52 1522.27 L1272.41 1522.27 Z" fill="#000000" fill-rule="nonzero" fill-opacity="1" /><polyline clip-path="url(#clip210)" style="stroke:#000000; stroke-linecap:round; stroke-linejoin:round; stroke-width:4; stroke-opacity:1; fill:none" points="193.936,1423.18 193.936,47.2441 "/>
<polyline clip-path="url(#clip210)" style="stroke:#000000; stroke-linecap:round; stroke-linejoin:round; stroke-width:4; stroke-opacity:1; fill:none" points="193.936,1362.78 212.834,1362.78 "/>
<polyline clip-path="url(#clip210)" style="stroke:#000000; stroke-linecap:round; stroke-linejoin:round; stroke-width:4; stroke-opacity:1; fill:none" points="193.936,1093.84 212.834,1093.84 "/>
<polyline clip-path="url(#clip210)" style="stroke:#000000; stroke-linecap:round; stroke-linejoin:round; stroke-width:4; stroke-opacity:1; fill:none" points="193.936,824.896 212.834,824.896 "/>
<polyline clip-path="url(#clip210)" style="stroke:#000000; stroke-linecap:round; stroke-linejoin:round; stroke-width:4; stroke-opacity:1; fill:none" points="193.936,555.954 212.834,555.954 "/>
<polyline clip-path="url(#clip210)" style="stroke:#000000; stroke-linecap:round; stroke-linejoin:round; stroke-width:4; stroke-opacity:1; fill:none" points="193.936,287.012 212.834,287.012 "/>
<path clip-path="url(#clip210)" d="M51.9875 1363.23 L81.6633 1363.23 L81.6633 1367.17 L51.9875 1367.17 L51.9875 1363.23 Z" fill="#000000" fill-rule="nonzero" fill-opacity="1" /><path clip-path="url(#clip210)" d="M92.566 1376.12 L100.205 1376.12 L100.205 1349.76 L91.8947 1351.43 L91.8947 1347.17 L100.159 1345.5 L104.834 1345.5 L104.834 1376.12 L112.473 1376.12 L112.473 1380.06 L92.566 1380.06 L92.566 1376.12 Z" fill="#000000" fill-rule="nonzero" fill-opacity="1" /><path clip-path="url(#clip210)" d="M121.918 1374.18 L126.802 1374.18 L126.802 1380.06 L121.918 1380.06 L121.918 1374.18 Z" fill="#000000" fill-rule="nonzero" fill-opacity="1" /><path clip-path="url(#clip210)" d="M137.033 1345.5 L155.39 1345.5 L155.39 1349.43 L141.316 1349.43 L141.316 1357.91 Q142.334 1357.56 143.353 1357.4 Q144.371 1357.21 145.39 1357.21 Q151.177 1357.21 154.556 1360.38 Q157.936 1363.56 157.936 1368.97 Q157.936 1374.55 154.464 1377.65 Q150.992 1380.73 144.672 1380.73 Q142.496 1380.73 140.228 1380.36 Q137.982 1379.99 135.575 1379.25 L135.575 1374.55 Q137.658 1375.68 139.881 1376.24 Q142.103 1376.8 144.58 1376.8 Q148.584 1376.8 150.922 1374.69 Q153.26 1372.58 153.26 1368.97 Q153.26 1365.36 150.922 1363.25 Q148.584 1361.15 144.58 1361.15 Q142.705 1361.15 140.83 1361.56 Q138.978 1361.98 137.033 1362.86 L137.033 1345.5 Z" fill="#000000" fill-rule="nonzero" fill-opacity="1" /><path clip-path="url(#clip210)" d="M50.9921 1094.29 L80.6679 1094.29 L80.6679 1098.22 L50.9921 1098.22 L50.9921 1094.29 Z" fill="#000000" fill-rule="nonzero" fill-opacity="1" /><path clip-path="url(#clip210)" d="M91.5706 1107.18 L99.2095 1107.18 L99.2095 1080.82 L90.8993 1082.48 L90.8993 1078.22 L99.1632 1076.56 L103.839 1076.56 L103.839 1107.18 L111.478 1107.18 L111.478 1111.12 L91.5706 1111.12 L91.5706 1107.18 Z" fill="#000000" fill-rule="nonzero" fill-opacity="1" /><path clip-path="url(#clip210)" d="M120.922 1105.24 L125.807 1105.24 L125.807 1111.12 L120.922 1111.12 L120.922 1105.24 Z" fill="#000000" fill-rule="nonzero" fill-opacity="1" /><path clip-path="url(#clip210)" d="M145.992 1079.64 Q142.381 1079.64 140.552 1083.2 Q138.746 1086.74 138.746 1093.87 Q138.746 1100.98 140.552 1104.54 Q142.381 1108.09 145.992 1108.09 Q149.626 1108.09 151.431 1104.54 Q153.26 1100.98 153.26 1093.87 Q153.26 1086.74 151.431 1083.2 Q149.626 1079.64 145.992 1079.64 M145.992 1075.93 Q151.802 1075.93 154.857 1080.54 Q157.936 1085.12 157.936 1093.87 Q157.936 1102.6 154.857 1107.21 Q151.802 1111.79 145.992 1111.79 Q140.181 1111.79 137.103 1107.21 Q134.047 1102.6 134.047 1093.87 Q134.047 1085.12 137.103 1080.54 Q140.181 1075.93 145.992 1075.93 Z" fill="#000000" fill-rule="nonzero" fill-opacity="1" /><path clip-path="url(#clip210)" d="M51.9875 825.347 L81.6633 825.347 L81.6633 829.282 L51.9875 829.282 L51.9875 825.347 Z" fill="#000000" fill-rule="nonzero" fill-opacity="1" /><path clip-path="url(#clip210)" d="M101.756 810.695 Q98.1447 810.695 96.316 814.259 Q94.5104 817.801 94.5104 824.931 Q94.5104 832.037 96.316 835.602 Q98.1447 839.143 101.756 839.143 Q105.39 839.143 107.196 835.602 Q109.024 832.037 109.024 824.931 Q109.024 817.801 107.196 814.259 Q105.39 810.695 101.756 810.695 M101.756 806.991 Q107.566 806.991 110.621 811.597 Q113.7 816.181 113.7 824.931 Q113.7 833.657 110.621 838.264 Q107.566 842.847 101.756 842.847 Q95.9456 842.847 92.8669 838.264 Q89.8114 833.657 89.8114 824.931 Q89.8114 816.181 92.8669 811.597 Q95.9456 806.991 101.756 806.991 Z" fill="#000000" fill-rule="nonzero" fill-opacity="1" /><path clip-path="url(#clip210)" d="M121.918 836.296 L126.802 836.296 L126.802 842.176 L121.918 842.176 L121.918 836.296 Z" fill="#000000" fill-rule="nonzero" fill-opacity="1" /><path clip-path="url(#clip210)" d="M137.033 807.616 L155.39 807.616 L155.39 811.551 L141.316 811.551 L141.316 820.023 Q142.334 819.676 143.353 819.514 Q144.371 819.329 145.39 819.329 Q151.177 819.329 154.556 822.5 Q157.936 825.671 157.936 831.088 Q157.936 836.667 154.464 839.768 Q150.992 842.847 144.672 842.847 Q142.496 842.847 140.228 842.477 Q137.982 842.106 135.575 841.366 L135.575 836.667 Q137.658 837.801 139.881 838.356 Q142.103 838.912 144.58 838.912 Q148.584 838.912 150.922 836.805 Q153.26 834.699 153.26 831.088 Q153.26 827.477 150.922 825.37 Q148.584 823.264 144.58 823.264 Q142.705 823.264 140.83 823.681 Q138.978 824.097 137.033 824.977 L137.033 807.616 Z" fill="#000000" fill-rule="nonzero" fill-opacity="1" /><path clip-path="url(#clip210)" d="M100.76 541.753 Q97.1493 541.753 95.3206 545.317 Q93.515 548.859 93.515 555.989 Q93.515 563.095 95.3206 566.66 Q97.1493 570.202 100.76 570.202 Q104.395 570.202 106.2 566.66 Q108.029 563.095 108.029 555.989 Q108.029 548.859 106.2 545.317 Q104.395 541.753 100.76 541.753 M100.76 538.049 Q106.571 538.049 109.626 542.655 Q112.705 547.239 112.705 555.989 Q112.705 564.715 109.626 569.322 Q106.571 573.905 100.76 573.905 Q94.9502 573.905 91.8715 569.322 Q88.816 564.715 88.816 555.989 Q88.816 547.239 91.8715 542.655 Q94.9502 538.049 100.76 538.049 Z" fill="#000000" fill-rule="nonzero" fill-opacity="1" /><path clip-path="url(#clip210)" d="M120.922 567.354 L125.807 567.354 L125.807 573.234 L120.922 573.234 L120.922 567.354 Z" fill="#000000" fill-rule="nonzero" fill-opacity="1" /><path clip-path="url(#clip210)" d="M145.992 541.753 Q142.381 541.753 140.552 545.317 Q138.746 548.859 138.746 555.989 Q138.746 563.095 140.552 566.66 Q142.381 570.202 145.992 570.202 Q149.626 570.202 151.431 566.66 Q153.26 563.095 153.26 555.989 Q153.26 548.859 151.431 545.317 Q149.626 541.753 145.992 541.753 M145.992 538.049 Q151.802 538.049 154.857 542.655 Q157.936 547.239 157.936 555.989 Q157.936 564.715 154.857 569.322 Q151.802 573.905 145.992 573.905 Q140.181 573.905 137.103 569.322 Q134.047 564.715 134.047 555.989 Q134.047 547.239 137.103 542.655 Q140.181 538.049 145.992 538.049 Z" fill="#000000" fill-rule="nonzero" fill-opacity="1" /><path clip-path="url(#clip210)" d="M101.756 272.811 Q98.1447 272.811 96.316 276.376 Q94.5104 279.917 94.5104 287.047 Q94.5104 294.153 96.316 297.718 Q98.1447 301.26 101.756 301.26 Q105.39 301.26 107.196 297.718 Q109.024 294.153 109.024 287.047 Q109.024 279.917 107.196 276.376 Q105.39 272.811 101.756 272.811 M101.756 269.107 Q107.566 269.107 110.621 273.713 Q113.7 278.297 113.7 287.047 Q113.7 295.774 110.621 300.38 Q107.566 304.963 101.756 304.963 Q95.9456 304.963 92.8669 300.38 Q89.8114 295.774 89.8114 287.047 Q89.8114 278.297 92.8669 273.713 Q95.9456 269.107 101.756 269.107 Z" fill="#000000" fill-rule="nonzero" fill-opacity="1" /><path clip-path="url(#clip210)" d="M121.918 298.412 L126.802 298.412 L126.802 304.292 L121.918 304.292 L121.918 298.412 Z" fill="#000000" fill-rule="nonzero" fill-opacity="1" /><path clip-path="url(#clip210)" d="M137.033 269.732 L155.39 269.732 L155.39 273.667 L141.316 273.667 L141.316 282.139 Q142.334 281.792 143.353 281.63 Q144.371 281.445 145.39 281.445 Q151.177 281.445 154.556 284.616 Q157.936 287.787 157.936 293.204 Q157.936 298.783 154.464 301.885 Q150.992 304.963 144.672 304.963 Q142.496 304.963 140.228 304.593 Q137.982 304.223 135.575 303.482 L135.575 298.783 Q137.658 299.917 139.881 300.473 Q142.103 301.028 144.58 301.028 Q148.584 301.028 150.922 298.922 Q153.26 296.815 153.26 293.204 Q153.26 289.593 150.922 287.487 Q148.584 285.38 144.58 285.38 Q142.705 285.38 140.83 285.797 Q138.978 286.213 137.033 287.093 L137.033 269.732 Z" fill="#000000" fill-rule="nonzero" fill-opacity="1" /><polyline clip-path="url(#clip211)" style="stroke:#009af9; stroke-linecap:round; stroke-linejoin:round; stroke-width:4; stroke-opacity:1; fill:none" points="193.936,555.954 196.097,550.765 198.258,545.645 200.419,540.593 202.58,535.608 204.741,530.689 206.902,525.835 209.063,521.046 211.224,516.32 213.385,511.657 215.546,507.055 217.707,502.515 219.868,498.035 222.029,493.614 224.19,489.251 226.351,484.947 228.512,480.7 230.673,476.509 232.834,472.373 234.995,468.293 237.156,464.266 239.317,460.293 241.478,456.372 243.639,452.504 245.8,448.687 247.961,444.92 250.122,441.204 252.282,437.536 254.443,433.917 256.604,430.347 258.765,426.823 260.926,423.347 263.087,419.916 265.248,416.531 267.409,413.19 269.57,409.894 271.731,406.642 273.892,403.433 276.053,400.266 278.214,397.142 280.375,394.059 282.536,391.016 284.697,388.014 286.858,385.052 289.019,382.129 291.18,379.245 293.341,376.399 295.502,373.591 297.663,370.82 299.824,368.086 301.985,365.388 304.146,362.725 306.307,360.099 308.468,357.506 310.629,354.949 312.79,352.425 314.951,349.934 317.112,347.477 319.273,345.052 321.434,342.66 323.595,340.299 325.756,337.969 327.917,335.67 330.078,333.402 332.239,331.164 334.4,328.956 336.561,326.776 338.722,324.626 340.883,322.504 343.044,320.411 345.205,318.345 347.366,316.306 349.527,314.295 351.688,312.31 353.849,310.352 356.01,308.419 358.171,306.512 360.332,304.631 362.493,302.774 364.653,300.942 366.814,299.134 368.975,297.35 371.136,295.59 373.297,293.853 375.458,292.139 377.619,290.448 379.78,288.78 381.941,287.133 384.102,285.508 386.263,283.905 388.424,282.323 390.585,280.762 392.746,279.222 394.907,277.702 397.068,276.203 399.229,274.723 401.39,273.263 403.551,271.822 405.712,270.4 407.873,269.232 410.034,268.621 412.195,268.514 414.356,268.859 416.517,269.605 418.678,270.703 420.839,272.108 423,273.775 425.161,275.666 427.322,277.741 429.483,279.965 431.644,282.304 433.805,284.728 435.966,287.209 438.127,289.72 440.288,292.24 442.449,294.746 444.61,297.222 446.771,299.651 448.932,302.021 451.093,304.32 453.254,306.541 455.415,308.678 457.576,310.728 459.737,312.691 461.898,314.568 464.059,316.364 466.22,318.085 468.381,319.743 470.542,321.347 472.703,322.913 474.864,324.458 477.024,326.002 479.185,327.566 481.346,329.169 483.507,330.767 485.668,332.344 487.829,333.9 489.99,335.435 492.151,336.95 494.312,338.445 496.473,339.92 498.634,341.375 500.795,342.812 502.956,344.229 505.117,345.627 507.278,347.007 509.439,348.368 511.6,349.712 513.761,351.037 515.922,352.345 518.083,353.636 520.244,354.91 522.405,356.167 524.566,357.407 526.727,358.63 528.888,359.838 531.049,361.029 533.21,362.205 535.371,363.365 537.532,364.509 539.693,365.639 541.854,366.753 544.015,367.853 546.176,368.938 548.337,370.009 550.498,371.065 552.659,372.108 554.82,373.136 556.981,374.152 559.142,375.153 561.303,376.141 563.464,377.117 565.625,378.079 567.786,379.028 569.947,379.965 572.108,380.89 574.269,381.802 576.43,382.702 578.591,383.591 580.752,384.467 582.913,385.332 585.074,386.185 587.235,387.027 589.396,387.858 591.556,388.678 593.717,389.487 595.878,390.286 598.039,391.073 600.2,391.85 602.361,392.617 604.522,393.409 606.683,394.388 608.844,395.474 611.005,396.56 613.166,397.558 615.327,398.392 617.488,399.006 619.649,399.356 621.81,399.416 623.971,399.176 626.132,398.639 628.293,397.827 630.454,396.777 632.615,395.54 634.776,394.185 636.937,392.796 639.098,391.472 641.259,390.268 643.42,389.087 645.581,387.921 647.742,386.77 649.903,385.635 652.064,384.515 654.225,383.41 656.386,382.319 658.547,381.243 660.708,380.181 662.869,379.133 665.03,378.099 667.191,377.079 669.352,376.072 671.513,375.079 673.674,374.098 675.835,373.131 677.996,372.177 680.157,371.235 682.318,370.305 684.479,369.389 686.64,368.484 688.801,367.591 690.962,366.71 693.123,365.841 695.284,364.983 697.445,364.137 699.606,363.302 701.767,362.478 703.927,361.665 706.088,360.863 708.249,360.071 710.41,359.29 712.571,358.519 714.732,357.759 716.893,357.008 719.054,356.268 721.215,355.537 723.376,354.816 725.537,354.105 727.698,353.403 729.859,352.71 732.02,352.026 734.181,351.352 736.342,350.686 738.503,350.03 740.664,349.382 742.825,348.742 744.986,348.111 747.147,347.489 749.308,346.874 751.469,346.268 753.63,345.67 755.791,345.08 757.952,344.497 760.113,343.922 762.274,343.355 764.435,342.796 766.596,342.244 768.757,341.699 770.918,341.161 773.079,340.631 775.24,340.107 777.401,339.591 779.562,339.081 781.723,338.578 783.884,338.082 786.045,337.592 788.206,337.109 790.367,336.632 792.528,336.162 794.689,335.698 796.85,335.24 799.011,334.788 801.172,334.342 803.333,333.902 805.494,333.468 807.655,333.039 809.816,332.616 811.977,332.199 814.138,331.788 816.298,331.381 818.459,330.981 820.62,330.585 822.781,330.195 824.942,329.81 827.103,329.43 829.264,329.055 831.425,328.685 833.586,328.32 835.747,327.96 837.908,327.604 840.069,327.253 842.23,327.418 844.391,328.848 846.552,331.401 848.713,334.929 850.874,339.294 853.035,344.365 855.196,350.02 857.357,356.147 859.518,362.64 861.679,369.404 863.84,376.351 866.001,383.402 868.162,390.487 870.323,397.543 872.484,404.518 874.645,411.366 876.806,418.051 878.967,424.546 881.128,430.831 883.289,436.896 885.45,442.739 887.611,448.366 889.772,453.792 891.933,459.04 894.094,464.143 896.255,469.141 898.416,474.084 900.577,479.029 902.738,484.04 904.899,489.048 907.06,493.988 909.221,498.864 911.382,503.674 913.543,508.421 915.704,513.105 917.865,517.727 920.026,522.288 922.187,526.788 924.348,531.228 926.509,535.61 928.669,539.933 930.83,544.199 932.991,548.409 935.152,552.563 937.313,556.662 939.474,560.706 941.635,564.697 943.796,568.635 945.957,572.521 948.118,576.355 950.279,580.139 952.44,583.872 954.601,587.556 956.762,591.191 958.923,594.777 961.084,598.316 963.245,601.808 965.406,605.254 967.567,608.654 969.728,612.009 971.889,615.32 974.05,618.586 976.211,621.81 978.372,624.99 980.533,628.128 982.694,631.225 984.855,634.281 987.016,637.296 989.177,640.271 991.338,643.207 993.499,646.104 995.66,648.962 997.821,651.783 999.982,654.566 1002.14,657.312 1004.3,660.022 1006.46,662.696 1008.63,665.335 1010.79,667.938 1012.95,670.507 1015.11,673.042 1017.27,675.544 1019.43,678.012 1021.59,680.448 1023.75,682.851 1025.91,685.222 1028.07,687.562 1030.24,689.871 1032.4,692.149 1034.56,694.397 1036.72,696.615 1038.88,698.804 1041.04,700.964 1043.2,703.095 1045.36,705.198 1047.52,707.273 1049.68,709.321 1051.85,711.341 1054.01,713.335 1056.17,713.747 1058.33,710.698 1060.49,705.235 1062.65,698.28 1064.81,690.58 1066.97,682.71 1069.13,675.071 1071.29,667.893 1073.46,661.232 1075.62,654.971 1077.78,648.821 1079.94,642.498 1082.1,636.234 1084.26,630.053 1086.42,623.954 1088.58,617.936 1090.74,611.997 1092.9,606.138 1095.07,600.355 1097.23,594.65 1099.39,589.02 1101.55,583.465 1103.71,577.984 1105.87,572.575 1108.03,567.238 1110.19,561.971 1112.35,556.775 1114.51,551.647 1116.67,546.588 1118.84,541.595 1121,536.669 1123.16,531.808 1125.32,527.012 1127.48,522.279 1129.64,517.609 1131.8,513.001 1133.96,508.453 1136.12,503.967 1138.28,499.539 1140.45,495.17 1142.61,490.86 1144.77,486.606 1146.93,482.409 1149.09,478.267 1151.25,474.18 1153.41,470.148 1155.57,466.169 1157.73,462.243 1159.89,458.368 1162.06,454.545 1164.22,450.773 1166.38,447.051 1168.54,443.378 1170.7,439.754 1172.86,436.178 1175.02,432.649 1177.18,429.167 1179.34,425.732 1181.5,422.342 1183.67,418.996 1185.83,415.695 1187.99,412.438 1190.15,409.224 1192.31,406.053 1194.47,402.924 1196.63,399.836 1198.79,396.789 1200.95,393.782 1203.11,390.815 1205.28,387.888 1207.44,385 1209.6,382.149 1211.76,379.337 1213.92,376.562 1216.08,373.823 1218.24,371.121 1220.4,368.455 1222.56,365.824 1224.72,363.229 1226.88,360.667 1229.05,358.14 1231.21,355.646 1233.37,353.185 1235.53,350.756 1237.69,348.36 1239.85,345.996 1242.01,343.663 1244.17,341.361 1246.33,339.09 1248.49,336.848 1250.66,334.637 1252.82,332.454 1254.98,330.301 1257.14,328.176 1259.3,326.079 1261.46,323.961 1263.62,321.717 1265.78,319.356 1267.94,316.894 1270.1,314.346 1272.27,311.725 1274.43,309.043 1276.59,306.315 1278.75,303.549 1280.91,300.759 1283.07,297.953 1285.23,295.141 1287.39,292.332 1289.55,289.533 1291.71,286.752 1293.88,283.995 1296.04,281.267 1298.2,278.573 1300.36,275.919 1302.52,273.306 1304.68,270.739 1306.84,268.218 1309,265.745 1311.16,263.322 1313.32,260.947 1315.49,258.619 1317.65,256.337 1319.81,254.099 1321.97,251.902 1324.13,249.741 1326.29,247.612 1328.45,245.509 1330.61,243.428 1332.77,241.36 1334.93,239.305 1337.09,237.275 1339.26,235.271 1341.42,233.295 1343.58,231.344 1345.74,229.42 1347.9,227.521 1350.06,225.647 1352.22,223.798 1354.38,221.974 1356.54,220.173 1358.7,218.397 1360.87,216.644 1363.03,214.914 1365.19,213.208 1367.35,211.524 1369.51,209.862 1371.67,208.222 1373.83,206.604 1375.99,205.008 1378.15,203.432 1380.31,201.878 1382.48,200.344 1384.64,198.831 1386.8,197.337 1388.96,195.863 1391.12,194.409 1393.28,192.974 1395.44,191.558 1397.6,190.161 1399.76,188.783 1401.92,187.422 1404.09,186.08 1406.25,184.756 1408.41,183.449 1410.57,182.159 1412.73,180.887 1414.89,179.631 1417.05,178.392 1419.21,177.17 1421.37,175.964 1423.53,174.773 1425.7,173.599 1427.86,172.44 1430.02,171.296 1432.18,170.168 1434.34,169.055 1436.5,167.956 1438.66,166.872 1440.82,165.802 1442.98,164.747 1445.14,163.705 1447.3,162.678 1449.47,161.664 1451.63,160.663 1453.79,159.676 1455.95,158.701 1458.11,157.74 1460.27,156.791 1462.43,155.855 1464.59,154.932 1466.75,154.02 1468.91,153.121 1471.08,152.233 1473.24,151.358 1475.4,150.494 1477.56,149.641 1479.72,148.8 1481.88,147.97 1484.04,147.15 1486.2,146.342 1488.36,145.545 1490.52,145.897 1492.69,149.978 1494.85,157.328 1497.01,167.376 1499.17,179.599 1501.33,193.519 1503.49,208.702 1505.65,224.758 1507.81,241.343 1509.97,258.158 1512.13,274.948 1514.3,291.504 1516.46,307.661 1518.62,323.298 1520.78,338.342 1522.94,352.762 1525.1,366.572 1527.26,379.832 1529.42,392.647 1531.58,405.165 1533.74,417.582 1535.91,430.136 1538.07,442.785 1540.23,455.266 1542.39,467.583 1544.55,479.736 1546.71,491.728 1548.87,503.561 1551.03,515.237 1553.19,526.758 1555.35,538.126 1557.51,549.344 1559.68,560.413 1561.84,571.336 1564,582.113 1566.16,592.748 1568.32,603.242 1570.48,613.597 1572.64,623.814 1574.8,633.896 1576.96,643.844 1579.12,653.661 1581.29,663.347 1583.45,672.904 1585.61,682.335 1587.77,691.641 1589.93,700.823 1592.09,709.884 1594.25,718.825 1596.41,727.646 1598.57,736.351 1600.73,744.941 1602.9,753.416 1605.06,761.78 1607.22,770.032 1609.38,778.175 1611.54,786.21 1613.7,794.139 1615.86,801.962 1618.02,809.682 1620.18,817.299 1622.34,824.816 1624.51,832.233 1626.67,839.551 1628.83,846.773 1630.99,853.898 1633.15,860.93 1635.31,867.868 1637.47,874.714 1639.63,881.469 1641.79,888.135 1643.95,894.712 1646.12,901.203 1648.28,907.607 1650.44,913.926 1652.6,920.161 1654.76,926.314 1656.92,932.385 1659.08,938.375 1661.24,944.287 1663.4,950.12 1665.56,955.875 1667.72,961.554 1669.89,967.158 1672.05,972.688 1674.21,978.144 1676.37,983.528 1678.53,988.841 1680.69,994.083 1682.85,999.256 1685.01,1004.36 1687.17,1009.4 1689.33,1014.37 1691.5,1019.27 1693.66,1024.11 1695.82,1027.72 1697.98,1029.18 1700.14,1028.9 1702.3,1027.22 1704.46,1024.47 1706.62,1020.92 1708.78,1016.84 1710.94,1012.44 1713.11,1007.9 1715.27,1003.38 1717.43,998.99 1719.59,994.808 1721.75,990.884 1723.91,987.231 1726.07,983.828 1728.23,980.619 1730.39,977.515 1732.55,974.392 1734.72,971.146 1736.88,967.919 1739.04,964.735 1741.2,961.593 1743.36,958.492 1745.52,955.433 1747.68,952.414 1749.84,949.435 1752,946.496 1754.16,943.596 1756.33,940.734 1758.49,937.909 1760.65,935.123 1762.81,932.373 1764.97,929.659 1767.13,926.982 1769.29,924.34 1771.45,921.733 1773.61,919.161 1775.77,916.623 1777.93,914.118 1780.1,911.647 1782.26,909.208 1784.42,906.802 1786.58,904.428 1788.74,902.086 1790.9,899.774 1793.06,897.493 1795.22,895.243 1797.38,893.022 1799.54,890.831 1801.71,888.669 1803.87,886.535 1806.03,884.43 1808.19,882.353 1810.35,880.304 1812.51,878.281 1814.67,876.285 1816.83,874.316 1818.99,872.373 1821.15,870.456 1823.32,868.564 1825.48,866.697 1827.64,864.855 1829.8,863.037 1831.96,861.244 1834.12,859.474 1836.28,857.727 1838.44,856.004 1840.6,854.304 1842.76,852.626 1844.93,850.97 1847.09,849.336 1849.25,847.724 1851.41,846.133 1853.57,844.563 1855.73,843.014 1857.89,841.486 1860.05,839.978 1862.21,838.49 1864.37,837.021 1866.54,835.572 1868.7,834.143 1870.86,832.732 1873.02,831.34 1875.18,829.966 1877.34,828.611 1879.5,827.274 1881.66,825.954 1883.82,824.652 1885.98,823.367 1888.15,822.099 1890.31,820.848 1892.47,819.614 1894.63,818.396 1896.79,817.194 1898.95,816.008 1901.11,814.838 1903.27,813.683 1905.43,812.544 1907.59,811.419 1909.75,810.31 1911.92,809.043 1914.08,807.467 1916.24,805.615 1918.4,803.513 1920.56,801.19 1922.72,798.672 1924.88,795.985 1927.04,793.152 1929.2,790.195 1931.36,787.137 1933.53,783.997 1935.69,780.794 1937.85,777.547 1940.01,774.271 1942.17,770.981 1944.33,767.693 1946.49,764.418 1948.65,761.167 1950.81,757.952 1952.97,754.782 1955.14,751.663 1957.3,748.603 1959.46,745.608 1961.62,742.68 1963.78,739.823 1965.94,737.039 1968.1,734.327 1970.26,731.688 1972.42,729.118 1974.58,726.615 1976.75,724.174 1978.91,721.79 1981.07,719.454 1983.23,717.16 1985.39,714.896 1987.55,712.654 1989.71,710.42 1991.87,708.181 1994.03,705.948 1996.19,703.745 1998.36,701.571 2000.52,699.426 2002.68,697.309 2004.84,695.221 2007,693.16 2009.16,691.126 2011.32,689.12 2013.48,687.14 2015.64,685.186 2017.8,683.258 2019.96,681.356 2022.13,679.479 2024.29,677.627 2026.45,675.799 2028.61,673.996 2030.77,672.216 2032.93,670.46 2035.09,668.728 2037.25,667.018 2039.41,665.331 2041.57,663.671 2043.74,662.045 2045.9,660.45 2048.06,658.885 2050.22,657.347 2052.38,655.834 2054.54,654.345 2056.7,652.877 2058.86,651.429 2061.02,649.999 2063.18,648.586 2065.35,647.187 2067.51,645.803 2069.67,644.431 2071.83,643.071 2073.99,641.72 2076.15,640.379 2078.31,639.045 2080.47,637.719 2082.63,636.399 2084.79,635.085 2086.96,633.776 2089.12,632.471 2091.28,631.17 2093.44,629.873 2095.6,628.579 2097.76,627.288 2099.92,626.001 2102.08,624.716 2104.24,623.434 2106.4,622.155 2108.57,620.88 2110.73,619.608 2112.89,618.34 2115.05,617.077 2117.21,615.818 2119.37,614.566 2121.53,613.319 2123.69,612.08 2125.85,610.848 2128.01,609.626 2130.17,608.413 2132.34,607.212 2134.5,606.023 2136.66,604.847 2138.82,603.687 2140.98,602.543 2143.14,601.417 2145.3,600.311 2147.46,599.226 2149.62,598.164 2151.78,597.117 2153.95,596.084 2156.11,595.065 2158.27,594.059 2160.43,593.067 2162.59,592.088 2164.75,591.121 2166.91,590.168 2169.07,589.227 2171.23,588.299 2173.39,587.383 2175.56,586.479 2177.72,585.587 2179.88,584.707 2182.04,583.839 2184.2,582.982 2186.36,582.137 2188.52,581.303 2190.68,580.48 2192.84,579.667 2195,578.866 2197.17,578.075 2199.33,577.295 2201.49,576.525 2203.65,575.765 2205.81,575.015 2207.97,574.275 2210.13,573.545 2212.29,572.825 2214.45,572.114 2216.61,571.413 2218.78,570.72 2220.94,570.037 2223.1,569.363 2225.26,568.698 2227.42,568.042 2229.58,567.395 2231.74,566.756 2233.9,566.125 2236.06,565.503 2238.22,564.889 2240.38,564.283 2242.55,563.686 2244.71,563.096 2246.87,562.514 2249.03,561.94 2251.19,561.373 2253.35,560.814 2255.51,560.262 2257.67,559.718 2259.83,559.181 2261.99,558.651 2264.16,558.128 2266.32,557.613 2268.48,557.103 2270.64,556.601 2272.8,556.106 2274.96,555.617 2277.12,555.134 2279.28,554.658 2281.44,554.188 2283.6,553.725 2285.77,553.267 2287.93,552.816 2290.09,552.37 2292.25,551.931 2294.41,551.497 2296.57,551.069 2298.73,550.647 2300.89,550.231 2303.05,549.819 2305.21,549.414 2307.38,549.013 2309.54,548.618 2311.7,548.229 2313.86,547.844 2316.02,547.464 2318.18,547.09 2320.34,546.72 2322.5,546.356 2324.66,545.996 2326.82,545.641 2328.99,545.29 2331.15,544.945 2333.31,544.603 2335.47,544.267 2337.63,543.935 2339.79,543.607 2341.95,543.283 2344.11,542.964 2346.27,542.649 2348.43,542.339 2350.59,542.032 2352.76,541.729 "/>
<polyline clip-path="url(#clip211)" style="stroke:#e26f46; stroke-linecap:round; stroke-linejoin:round; stroke-width:4; stroke-opacity:1; fill:none" points="193.936,164.587 196.097,164.587 198.258,164.587 200.419,164.587 202.58,164.587 204.741,164.587 206.902,164.587 209.063,164.587 211.224,164.587 213.385,164.587 215.546,164.587 217.707,164.587 219.868,164.587 222.029,164.587 224.19,164.587 226.351,164.587 228.512,164.587 230.673,164.587 232.834,164.587 234.995,164.587 237.156,164.587 239.317,164.587 241.478,164.587 243.639,164.587 245.8,164.587 247.961,164.587 250.122,164.587 252.282,164.587 254.443,164.587 256.604,164.587 258.765,164.587 260.926,164.587 263.087,164.587 265.248,164.587 267.409,164.587 269.57,164.587 271.731,164.587 273.892,164.587 276.053,164.587 278.214,164.587 280.375,164.587 282.536,164.587 284.697,164.587 286.858,164.587 289.019,164.587 291.18,164.587 293.341,164.587 295.502,164.587 297.663,164.587 299.824,164.587 301.985,164.587 304.146,164.587 306.307,164.587 308.468,164.587 310.629,164.587 312.79,164.587 314.951,164.587 317.112,164.587 319.273,164.587 321.434,164.587 323.595,164.587 325.756,164.587 327.917,164.587 330.078,164.587 332.239,164.587 334.4,164.587 336.561,164.587 338.722,164.587 340.883,164.587 343.044,164.587 345.205,164.587 347.366,164.587 349.527,164.587 351.688,164.587 353.849,164.587 356.01,164.587 358.171,164.587 360.332,164.587 362.493,164.587 364.653,164.587 366.814,164.587 368.975,164.587 371.136,164.587 373.297,164.587 375.458,164.587 377.619,164.587 379.78,164.587 381.941,164.587 384.102,164.587 386.263,164.587 388.424,164.587 390.585,164.587 392.746,164.587 394.907,164.587 397.068,164.587 399.229,164.587 401.39,164.587 403.551,164.587 405.712,164.587 407.873,164.587 410.034,449.699 412.195,449.699 414.356,449.699 416.517,449.699 418.678,449.699 420.839,449.699 423,449.699 425.161,449.699 427.322,449.699 429.483,449.699 431.644,449.699 433.805,449.699 435.966,449.699 438.127,449.699 440.288,449.699 442.449,449.699 444.61,449.699 446.771,449.699 448.932,449.699 451.093,449.699 453.254,449.699 455.415,449.699 457.576,449.699 459.737,449.699 461.898,449.699 464.059,449.699 466.22,449.699 468.381,449.699 470.542,449.699 472.703,449.699 474.864,449.699 477.024,449.699 479.185,449.699 481.346,449.699 483.507,449.699 485.668,449.699 487.829,449.699 489.99,449.699 492.151,449.699 494.312,449.699 496.473,449.699 498.634,449.699 500.795,449.699 502.956,449.699 505.117,449.699 507.278,449.699 509.439,449.699 511.6,449.699 513.761,449.699 515.922,449.699 518.083,449.699 520.244,449.699 522.405,449.699 524.566,449.699 526.727,449.699 528.888,449.699 531.049,449.699 533.21,449.699 535.371,449.699 537.532,449.699 539.693,449.699 541.854,449.699 544.015,449.699 546.176,449.699 548.337,449.699 550.498,449.699 552.659,449.699 554.82,449.699 556.981,449.699 559.142,449.699 561.303,449.699 563.464,449.699 565.625,449.699 567.786,449.699 569.947,449.699 572.108,449.699 574.269,449.699 576.43,449.699 578.591,449.699 580.752,449.699 582.913,449.699 585.074,449.699 587.235,449.699 589.396,449.699 591.556,449.699 593.717,449.699 595.878,449.699 598.039,449.699 600.2,449.699 602.361,449.699 604.522,449.699 606.683,449.699 608.844,449.699 611.005,449.699 613.166,449.699 615.327,449.699 617.488,449.699 619.649,449.699 621.81,449.699 623.971,449.699 626.132,301.15 628.293,301.15 630.454,301.15 632.615,301.15 634.776,301.15 636.937,301.15 639.098,301.15 641.259,301.15 643.42,301.15 645.581,301.15 647.742,301.15 649.903,301.15 652.064,301.15 654.225,301.15 656.386,301.15 658.547,301.15 660.708,301.15 662.869,301.15 665.03,301.15 667.191,301.15 669.352,301.15 671.513,301.15 673.674,301.15 675.835,301.15 677.996,301.15 680.157,301.15 682.318,301.15 684.479,301.15 686.64,301.15 688.801,301.15 690.962,301.15 693.123,301.15 695.284,301.15 697.445,301.15 699.606,301.15 701.767,301.15 703.927,301.15 706.088,301.15 708.249,301.15 710.41,301.15 712.571,301.15 714.732,301.15 716.893,301.15 719.054,301.15 721.215,301.15 723.376,301.15 725.537,301.15 727.698,301.15 729.859,301.15 732.02,301.15 734.181,301.15 736.342,301.15 738.503,301.15 740.664,301.15 742.825,301.15 744.986,301.15 747.147,301.15 749.308,301.15 751.469,301.15 753.63,301.15 755.791,301.15 757.952,301.15 760.113,301.15 762.274,301.15 764.435,301.15 766.596,301.15 768.757,301.15 770.918,301.15 773.079,301.15 775.24,301.15 777.401,301.15 779.562,301.15 781.723,301.15 783.884,301.15 786.045,301.15 788.206,301.15 790.367,301.15 792.528,301.15 794.689,301.15 796.85,301.15 799.011,301.15 801.172,301.15 803.333,301.15 805.494,301.15 807.655,301.15 809.816,301.15 811.977,301.15 814.138,301.15 816.298,301.15 818.459,301.15 820.62,301.15 822.781,301.15 824.942,301.15 827.103,301.15 829.264,301.15 831.425,301.15 833.586,301.15 835.747,301.15 837.908,301.15 840.069,301.15 842.23,861.713 844.391,861.713 846.552,861.713 848.713,861.713 850.874,861.713 853.035,861.713 855.196,861.713 857.357,861.713 859.518,861.713 861.679,861.713 863.84,861.713 866.001,861.713 868.162,861.713 870.323,861.713 872.484,861.713 874.645,861.713 876.806,861.713 878.967,861.713 881.128,861.713 883.289,861.713 885.45,861.713 887.611,861.713 889.772,861.713 891.933,861.713 894.094,861.713 896.255,861.713 898.416,861.713 900.577,861.713 902.738,861.713 904.899,861.713 907.06,861.713 909.221,861.713 911.382,861.713 913.543,861.713 915.704,861.713 917.865,861.713 920.026,861.713 922.187,861.713 924.348,861.713 926.509,861.713 928.669,861.713 930.83,861.713 932.991,861.713 935.152,861.713 937.313,861.713 939.474,861.713 941.635,861.713 943.796,861.713 945.957,861.713 948.118,861.713 950.279,861.713 952.44,861.713 954.601,861.713 956.762,861.713 958.923,861.713 961.084,861.713 963.245,861.713 965.406,861.713 967.567,861.713 969.728,861.713 971.889,861.713 974.05,861.713 976.211,861.713 978.372,861.713 980.533,861.713 982.694,861.713 984.855,861.713 987.016,861.713 989.177,861.713 991.338,861.713 993.499,861.713 995.66,861.713 997.821,861.713 999.982,861.713 1002.14,861.713 1004.3,861.713 1006.46,861.713 1008.63,861.713 1010.79,861.713 1012.95,861.713 1015.11,861.713 1017.27,861.713 1019.43,861.713 1021.59,861.713 1023.75,861.713 1025.91,861.713 1028.07,861.713 1030.24,861.713 1032.4,861.713 1034.56,861.713 1036.72,861.713 1038.88,861.713 1041.04,861.713 1043.2,861.713 1045.36,861.713 1047.52,861.713 1049.68,861.713 1051.85,861.713 1054.01,861.713 1056.17,861.713 1058.33,170.024 1060.49,170.024 1062.65,170.024 1064.81,170.024 1066.97,170.024 1069.13,170.024 1071.29,170.024 1073.46,170.024 1075.62,170.024 1077.78,170.024 1079.94,170.024 1082.1,170.024 1084.26,170.024 1086.42,170.024 1088.58,170.024 1090.74,170.024 1092.9,170.024 1095.07,170.024 1097.23,170.024 1099.39,170.024 1101.55,170.024 1103.71,170.024 1105.87,170.024 1108.03,170.024 1110.19,170.024 1112.35,170.024 1114.51,170.024 1116.67,170.024 1118.84,170.024 1121,170.024 1123.16,170.024 1125.32,170.024 1127.48,170.024 1129.64,170.024 1131.8,170.024 1133.96,170.024 1136.12,170.024 1138.28,170.024 1140.45,170.024 1142.61,170.024 1144.77,170.024 1146.93,170.024 1149.09,170.024 1151.25,170.024 1153.41,170.024 1155.57,170.024 1157.73,170.024 1159.89,170.024 1162.06,170.024 1164.22,170.024 1166.38,170.024 1168.54,170.024 1170.7,170.024 1172.86,170.024 1175.02,170.024 1177.18,170.024 1179.34,170.024 1181.5,170.024 1183.67,170.024 1185.83,170.024 1187.99,170.024 1190.15,170.024 1192.31,170.024 1194.47,170.024 1196.63,170.024 1198.79,170.024 1200.95,170.024 1203.11,170.024 1205.28,170.024 1207.44,170.024 1209.6,170.024 1211.76,170.024 1213.92,170.024 1216.08,170.024 1218.24,170.024 1220.4,170.024 1222.56,170.024 1224.72,170.024 1226.88,170.024 1229.05,170.024 1231.21,170.024 1233.37,170.024 1235.53,170.024 1237.69,170.024 1239.85,170.024 1242.01,170.024 1244.17,170.024 1246.33,170.024 1248.49,170.024 1250.66,170.024 1252.82,170.024 1254.98,170.024 1257.14,170.024 1259.3,170.024 1261.46,170.024 1263.62,170.024 1265.78,170.024 1267.94,170.024 1270.1,170.024 1272.27,170.024 1274.43,86.1857 1276.59,86.1857 1278.75,86.1857 1280.91,86.1857 1283.07,86.1857 1285.23,86.1857 1287.39,86.1857 1289.55,86.1857 1291.71,86.1857 1293.88,86.1857 1296.04,86.1857 1298.2,86.1857 1300.36,86.1857 1302.52,86.1857 1304.68,86.1857 1306.84,86.1857 1309,86.1857 1311.16,86.1857 1313.32,86.1857 1315.49,86.1857 1317.65,86.1857 1319.81,86.1857 1321.97,86.1857 1324.13,86.1857 1326.29,86.1857 1328.45,86.1857 1330.61,86.1857 1332.77,86.1857 1334.93,86.1857 1337.09,86.1857 1339.26,86.1857 1341.42,86.1857 1343.58,86.1857 1345.74,86.1857 1347.9,86.1857 1350.06,86.1857 1352.22,86.1857 1354.38,86.1857 1356.54,86.1857 1358.7,86.1857 1360.87,86.1857 1363.03,86.1857 1365.19,86.1857 1367.35,86.1857 1369.51,86.1857 1371.67,86.1857 1373.83,86.1857 1375.99,86.1857 1378.15,86.1857 1380.31,86.1857 1382.48,86.1857 1384.64,86.1857 1386.8,86.1857 1388.96,86.1857 1391.12,86.1857 1393.28,86.1857 1395.44,86.1857 1397.6,86.1857 1399.76,86.1857 1401.92,86.1857 1404.09,86.1857 1406.25,86.1857 1408.41,86.1857 1410.57,86.1857 1412.73,86.1857 1414.89,86.1857 1417.05,86.1857 1419.21,86.1857 1421.37,86.1857 1423.53,86.1857 1425.7,86.1857 1427.86,86.1857 1430.02,86.1857 1432.18,86.1857 1434.34,86.1857 1436.5,86.1857 1438.66,86.1857 1440.82,86.1857 1442.98,86.1857 1445.14,86.1857 1447.3,86.1857 1449.47,86.1857 1451.63,86.1857 1453.79,86.1857 1455.95,86.1857 1458.11,86.1857 1460.27,86.1857 1462.43,86.1857 1464.59,86.1857 1466.75,86.1857 1468.91,86.1857 1471.08,86.1857 1473.24,86.1857 1475.4,86.1857 1477.56,86.1857 1479.72,86.1857 1481.88,86.1857 1484.04,86.1857 1486.2,86.1857 1488.36,86.1857 1490.52,1384.24 1492.69,1384.24 1494.85,1384.24 1497.01,1384.24 1499.17,1384.24 1501.33,1384.24 1503.49,1384.24 1505.65,1384.24 1507.81,1384.24 1509.97,1384.24 1512.13,1384.24 1514.3,1384.24 1516.46,1384.24 1518.62,1384.24 1520.78,1384.24 1522.94,1384.24 1525.1,1384.24 1527.26,1384.24 1529.42,1384.24 1531.58,1384.24 1533.74,1384.24 1535.91,1384.24 1538.07,1384.24 1540.23,1384.24 1542.39,1384.24 1544.55,1384.24 1546.71,1384.24 1548.87,1384.24 1551.03,1384.24 1553.19,1384.24 1555.35,1384.24 1557.51,1384.24 1559.68,1384.24 1561.84,1384.24 1564,1384.24 1566.16,1384.24 1568.32,1384.24 1570.48,1384.24 1572.64,1384.24 1574.8,1384.24 1576.96,1384.24 1579.12,1384.24 1581.29,1384.24 1583.45,1384.24 1585.61,1384.24 1587.77,1384.24 1589.93,1384.24 1592.09,1384.24 1594.25,1384.24 1596.41,1384.24 1598.57,1384.24 1600.73,1384.24 1602.9,1384.24 1605.06,1384.24 1607.22,1384.24 1609.38,1384.24 1611.54,1384.24 1613.7,1384.24 1615.86,1384.24 1618.02,1384.24 1620.18,1384.24 1622.34,1384.24 1624.51,1384.24 1626.67,1384.24 1628.83,1384.24 1630.99,1384.24 1633.15,1384.24 1635.31,1384.24 1637.47,1384.24 1639.63,1384.24 1641.79,1384.24 1643.95,1384.24 1646.12,1384.24 1648.28,1384.24 1650.44,1384.24 1652.6,1384.24 1654.76,1384.24 1656.92,1384.24 1659.08,1384.24 1661.24,1384.24 1663.4,1384.24 1665.56,1384.24 1667.72,1384.24 1669.89,1384.24 1672.05,1384.24 1674.21,1384.24 1676.37,1384.24 1678.53,1384.24 1680.69,1384.24 1682.85,1384.24 1685.01,1384.24 1687.17,1384.24 1689.33,1384.24 1691.5,1384.24 1693.66,1384.24 1695.82,1384.24 1697.98,1384.24 1700.14,1384.24 1702.3,1384.24 1704.46,1384.24 1706.62,727.738 1708.78,727.738 1710.94,727.738 1713.11,727.738 1715.27,727.738 1717.43,727.738 1719.59,727.738 1721.75,727.738 1723.91,727.738 1726.07,727.738 1728.23,727.738 1730.39,727.738 1732.55,727.738 1734.72,727.738 1736.88,727.738 1739.04,727.738 1741.2,727.738 1743.36,727.738 1745.52,727.738 1747.68,727.738 1749.84,727.738 1752,727.738 1754.16,727.738 1756.33,727.738 1758.49,727.738 1760.65,727.738 1762.81,727.738 1764.97,727.738 1767.13,727.738 1769.29,727.738 1771.45,727.738 1773.61,727.738 1775.77,727.738 1777.93,727.738 1780.1,727.738 1782.26,727.738 1784.42,727.738 1786.58,727.738 1788.74,727.738 1790.9,727.738 1793.06,727.738 1795.22,727.738 1797.38,727.738 1799.54,727.738 1801.71,727.738 1803.87,727.738 1806.03,727.738 1808.19,727.738 1810.35,727.738 1812.51,727.738 1814.67,727.738 1816.83,727.738 1818.99,727.738 1821.15,727.738 1823.32,727.738 1825.48,727.738 1827.64,727.738 1829.8,727.738 1831.96,727.738 1834.12,727.738 1836.28,727.738 1838.44,727.738 1840.6,727.738 1842.76,727.738 1844.93,727.738 1847.09,727.738 1849.25,727.738 1851.41,727.738 1853.57,727.738 1855.73,727.738 1857.89,727.738 1860.05,727.738 1862.21,727.738 1864.37,727.738 1866.54,727.738 1868.7,727.738 1870.86,727.738 1873.02,727.738 1875.18,727.738 1877.34,727.738 1879.5,727.738 1881.66,727.738 1883.82,727.738 1885.98,727.738 1888.15,727.738 1890.31,727.738 1892.47,727.738 1894.63,727.738 1896.79,727.738 1898.95,727.738 1901.11,727.738 1903.27,727.738 1905.43,727.738 1907.59,727.738 1909.75,727.738 1911.92,727.738 1914.08,727.738 1916.24,727.738 1918.4,727.738 1920.56,727.738 1922.72,539.776 1924.88,539.776 1927.04,539.776 1929.2,539.776 1931.36,539.776 1933.53,539.776 1935.69,539.776 1937.85,539.776 1940.01,539.776 1942.17,539.776 1944.33,539.776 1946.49,539.776 1948.65,539.776 1950.81,539.776 1952.97,539.776 1955.14,539.776 1957.3,539.776 1959.46,539.776 1961.62,539.776 1963.78,539.776 1965.94,539.776 1968.1,539.776 1970.26,539.776 1972.42,539.776 1974.58,539.776 1976.75,539.776 1978.91,539.776 1981.07,539.776 1983.23,539.776 1985.39,539.776 1987.55,539.776 1989.71,539.776 1991.87,539.776 1994.03,539.776 1996.19,539.776 1998.36,539.776 2000.52,539.776 2002.68,539.776 2004.84,539.776 2007,539.776 2009.16,539.776 2011.32,539.776 2013.48,539.776 2015.64,539.776 2017.8,539.776 2019.96,539.776 2022.13,539.776 2024.29,539.776 2026.45,539.776 2028.61,539.776 2030.77,539.776 2032.93,539.776 2035.09,539.776 2037.25,539.776 2039.41,539.776 2041.57,539.776 2043.74,539.776 2045.9,539.776 2048.06,539.776 2050.22,539.776 2052.38,539.776 2054.54,539.776 2056.7,539.776 2058.86,539.776 2061.02,539.776 2063.18,539.776 2065.35,539.776 2067.51,539.776 2069.67,539.776 2071.83,539.776 2073.99,539.776 2076.15,539.776 2078.31,539.776 2080.47,539.776 2082.63,539.776 2084.79,539.776 2086.96,539.776 2089.12,539.776 2091.28,539.776 2093.44,539.776 2095.6,539.776 2097.76,539.776 2099.92,539.776 2102.08,539.776 2104.24,539.776 2106.4,539.776 2108.57,539.776 2110.73,539.776 2112.89,539.776 2115.05,539.776 2117.21,539.776 2119.37,539.776 2121.53,539.776 2123.69,539.776 2125.85,539.776 2128.01,539.776 2130.17,539.776 2132.34,539.776 2134.5,539.776 2136.66,539.776 2138.82,519.213 2140.98,519.213 2143.14,519.213 2145.3,519.213 2147.46,519.213 2149.62,519.213 2151.78,519.213 2153.95,519.213 2156.11,519.213 2158.27,519.213 2160.43,519.213 2162.59,519.213 2164.75,519.213 2166.91,519.213 2169.07,519.213 2171.23,519.213 2173.39,519.213 2175.56,519.213 2177.72,519.213 2179.88,519.213 2182.04,519.213 2184.2,519.213 2186.36,519.213 2188.52,519.213 2190.68,519.213 2192.84,519.213 2195,519.213 2197.17,519.213 2199.33,519.213 2201.49,519.213 2203.65,519.213 2205.81,519.213 2207.97,519.213 2210.13,519.213 2212.29,519.213 2214.45,519.213 2216.61,519.213 2218.78,519.213 2220.94,519.213 2223.1,519.213 2225.26,519.213 2227.42,519.213 2229.58,519.213 2231.74,519.213 2233.9,519.213 2236.06,519.213 2238.22,519.213 2240.38,519.213 2242.55,519.213 2244.71,519.213 2246.87,519.213 2249.03,519.213 2251.19,519.213 2253.35,519.213 2255.51,519.213 2257.67,519.213 2259.83,519.213 2261.99,519.213 2264.16,519.213 2266.32,519.213 2268.48,519.213 2270.64,519.213 2272.8,519.213 2274.96,519.213 2277.12,519.213 2279.28,519.213 2281.44,519.213 2283.6,519.213 2285.77,519.213 2287.93,519.213 2290.09,519.213 2292.25,519.213 2294.41,519.213 2296.57,519.213 2298.73,519.213 2300.89,519.213 2303.05,519.213 2305.21,519.213 2307.38,519.213 2309.54,519.213 2311.7,519.213 2313.86,519.213 2316.02,519.213 2318.18,519.213 2320.34,519.213 2322.5,519.213 2324.66,519.213 2326.82,519.213 2328.99,519.213 2331.15,519.213 2333.31,519.213 2335.47,519.213 2337.63,519.213 2339.79,519.213 2341.95,519.213 2344.11,519.213 2346.27,519.213 2348.43,519.213 2350.59,519.213 2352.76,519.213 "/>
<path clip-path="url(#clip210)" d="M2039.77 248.629 L2280.8 248.629 L2280.8 93.1086 L2039.77 93.1086  Z" fill="#ffffff" fill-rule="evenodd" fill-opacity="1"/>
<polyline clip-path="url(#clip210)" style="stroke:#000000; stroke-linecap:round; stroke-linejoin:round; stroke-width:4; stroke-opacity:1; fill:none" points="2039.77,248.629 2280.8,248.629 2280.8,93.1086 2039.77,93.1086 2039.77,248.629 "/>
<polyline clip-path="url(#clip210)" style="stroke:#009af9; stroke-linecap:round; stroke-linejoin:round; stroke-width:4; stroke-opacity:1; fill:none" points="2063.76,144.949 2207.68,144.949 "/>
<path clip-path="url(#clip210)" d="M2256.32 136.303 L2246.95 148.919 L2256.81 162.229 L2251.79 162.229 L2244.24 152.043 L2236.69 162.229 L2231.67 162.229 L2241.74 148.664 L2232.53 136.303 L2237.55 136.303 L2244.42 145.539 L2251.3 136.303 L2256.32 136.303 Z" fill="#000000" fill-rule="nonzero" fill-opacity="1" /><polyline clip-path="url(#clip210)" style="stroke:#e26f46; stroke-linecap:round; stroke-linejoin:round; stroke-width:4; stroke-opacity:1; fill:none" points="2063.76,196.789 2207.68,196.789 "/>
<path clip-path="url(#clip210)" d="M2248.17 178.05 L2248.17 181.592 L2244.1 181.592 Q2241.81 181.592 2240.91 182.518 Q2240.03 183.444 2240.03 185.851 L2240.03 188.143 L2247.04 188.143 L2247.04 191.453 L2240.03 191.453 L2240.03 214.069 L2235.74 214.069 L2235.74 191.453 L2231.67 191.453 L2231.67 188.143 L2235.74 188.143 L2235.74 186.337 Q2235.74 182.009 2237.76 180.041 Q2239.77 178.05 2244.15 178.05 L2248.17 178.05 Z" fill="#000000" fill-rule="nonzero" fill-opacity="1" /></svg>
