<?xml version="1.0" encoding="utf-8"?>
<svg xmlns="http://www.w3.org/2000/svg" xmlns:xlink="http://www.w3.org/1999/xlink" width="600" height="400" viewBox="0 0 2400 1600">
<defs>
  <clipPath id="clip420">
    <rect x="0" y="0" width="2400" height="1600"/>
  </clipPath>
</defs>
<path clip-path="url(#clip420)" d="M0 1600 L2400 1600 L2400 0 L0 0  Z" fill="#ffffff" fill-rule="evenodd" fill-opacity="1"/>
<defs>
  <clipPath id="clip421">
    <rect x="480" y="0" width="1681" height="1600"/>
  </clipPath>
</defs>
<path clip-path="url(#clip420)" d="M193.936 1423.18 L2352.76 1423.18 L2352.76 47.2441 L193.936 47.2441  Z" fill="#ffffff" fill-rule="evenodd" fill-opacity="1"/>
<defs>
  <clipPath id="clip422">
    <rect x="193" y="47" width="2160" height="1377"/>
  </clipPath>
</defs>
<polyline clip-path="url(#clip422)" style="stroke:#000000; stroke-linecap:round; stroke-linejoin:round; stroke-width:2; stroke-opacity:0.1; fill:none" points="193.936,1423.18 193.936,47.2441 "/>
<polyline clip-path="url(#clip422)" style="stroke:#000000; stroke-linecap:round; stroke-linejoin:round; stroke-width:2; stroke-opacity:0.1; fill:none" points="625.7,1423.18 625.7,47.2441 "/>
<polyline clip-path="url(#clip422)" style="stroke:#000000; stroke-linecap:round; stroke-linejoin:round; stroke-width:2; stroke-opacity:0.1; fill:none" points="1057.46,1423.18 1057.46,47.2441 "/>
<polyline clip-path="url(#clip422)" style="stroke:#000000; stroke-linecap:round; stroke-linejoin:round; stroke-width:2; stroke-opacity:0.1; fill:none" points="1489.23,1423.18 1489.23,47.2441 "/>
<polyline clip-path="url(#clip422)" style="stroke:#000000; stroke-linecap:round; stroke-linejoin:round; stroke-width:2; stroke-opacity:0.1; fill:none" points="1920.99,1423.18 1920.99,47.2441 "/>
<polyline clip-path="url(#clip422)" style="stroke:#000000; stroke-linecap:round; stroke-linejoin:round; stroke-width:2; stroke-opacity:0.1; fill:none" points="2352.76,1423.18 2352.76,47.2441 "/>
<polyline clip-path="url(#clip422)" style="stroke:#000000; stroke-linecap:round; stroke-linejoin:round; stroke-width:2; stroke-opacity:0.1; fill:none" points="193.936,1261.09 2352.76,1261.09 "/>
<polyline clip-path="url(#clip422)" style="stroke:#000000; stroke-linecap:round; stroke-linejoin:round; stroke-width:2; stroke-opacity:0.1; fill:none" points="193.936,1025.86 2352.76,1025.86 "/>
<polyline clip-path="url(#clip422)" style="stroke:#000000; stroke-linecap:round; stroke-linejoin:round; stroke-width:2; stroke-opacity:0.1; fill:none" points="193.936,790.621 2352.76,790.621 "/>
<polyline clip-path="url(#clip422)" style="stroke:#000000; stroke-linecap:round; stroke-linejoin:round; stroke-width:2; stroke-opacity:0.1; fill:none" points="193.936,555.384 2352.76,555.384 "/>
<polyline clip-path="url(#clip422)" style="stroke:#000000; stroke-linecap:round; stroke-linejoin:round; stroke-width:2; stroke-opacity:0.1; fill:none" points="193.936,320.147 2352.76,320.147 "/>
<polyline clip-path="url(#clip422)" style="stroke:#000000; stroke-linecap:round; stroke-linejoin:round; stroke-width:2; stroke-opacity:0.1; fill:none" points="193.936,84.91 2352.76,84.91 "/>
<polyline clip-path="url(#clip420)" style="stroke:#000000; stroke-linecap:round; stroke-linejoin:round; stroke-width:4; stroke-opacity:1; fill:none" points="193.936,1423.18 2352.76,1423.18 "/>
<polyline clip-path="url(#clip420)" style="stroke:#000000; stroke-linecap:round; stroke-linejoin:round; stroke-width:4; stroke-opacity:1; fill:none" points="193.936,1423.18 193.936,1404.28 "/>
<polyline clip-path="url(#clip420)" style="stroke:#000000; stroke-linecap:round; stroke-linejoin:round; stroke-width:4; stroke-opacity:1; fill:none" points="625.7,1423.18 625.7,1404.28 "/>
<polyline clip-path="url(#clip420)" style="stroke:#000000; stroke-linecap:round; stroke-linejoin:round; stroke-width:4; stroke-opacity:1; fill:none" points="1057.46,1423.18 1057.46,1404.28 "/>
<polyline clip-path="url(#clip420)" style="stroke:#000000; stroke-linecap:round; stroke-linejoin:round; stroke-width:4; stroke-opacity:1; fill:none" points="1489.23,1423.18 1489.23,1404.28 "/>
<polyline clip-path="url(#clip420)" style="stroke:#000000; stroke-linecap:round; stroke-linejoin:round; stroke-width:4; stroke-opacity:1; fill:none" points="1920.99,1423.18 1920.99,1404.28 "/>
<polyline clip-path="url(#clip420)" style="stroke:#000000; stroke-linecap:round; stroke-linejoin:round; stroke-width:4; stroke-opacity:1; fill:none" points="2352.76,1423.18 2352.76,1404.28 "/>
<path clip-path="url(#clip420)" d="M193.936 1454.1 Q190.325 1454.1 188.496 1457.66 Q186.691 1461.2 186.691 1468.33 Q186.691 1475.44 188.496 1479.01 Q190.325 1482.55 193.936 1482.55 Q197.57 1482.55 199.376 1479.01 Q201.204 1475.44 201.204 1468.33 Q201.204 1461.2 199.376 1457.66 Q197.57 1454.1 193.936 1454.1 M193.936 1450.39 Q199.746 1450.39 202.802 1455 Q205.88 1459.58 205.88 1468.33 Q205.88 1477.06 202.802 1481.67 Q199.746 1486.25 193.936 1486.25 Q188.126 1486.25 185.047 1481.67 Q181.992 1477.06 181.992 1468.33 Q181.992 1459.58 185.047 1455 Q188.126 1450.39 193.936 1450.39 Z" fill="#000000" fill-rule="nonzero" fill-opacity="1" /><path clip-path="url(#clip420)" d="M620.353 1481.64 L636.672 1481.64 L636.672 1485.58 L614.728 1485.58 L614.728 1481.64 Q617.39 1478.89 621.973 1474.26 Q626.58 1469.61 627.76 1468.27 Q630.006 1465.74 630.885 1464.01 Q631.788 1462.25 631.788 1460.56 Q631.788 1457.8 629.843 1456.07 Q627.922 1454.33 624.82 1454.33 Q622.621 1454.33 620.168 1455.09 Q617.737 1455.86 614.959 1457.41 L614.959 1452.69 Q617.783 1451.55 620.237 1450.97 Q622.691 1450.39 624.728 1450.39 Q630.098 1450.39 633.293 1453.08 Q636.487 1455.77 636.487 1460.26 Q636.487 1462.39 635.677 1464.31 Q634.89 1466.2 632.783 1468.8 Q632.205 1469.47 629.103 1472.69 Q626.001 1475.88 620.353 1481.64 Z" fill="#000000" fill-rule="nonzero" fill-opacity="1" /><path clip-path="url(#clip420)" d="M1060.47 1455.09 L1048.67 1473.54 L1060.47 1473.54 L1060.47 1455.09 M1059.25 1451.02 L1065.13 1451.02 L1065.13 1473.54 L1070.06 1473.54 L1070.06 1477.43 L1065.13 1477.43 L1065.13 1485.58 L1060.47 1485.58 L1060.47 1477.43 L1044.87 1477.43 L1044.87 1472.92 L1059.25 1451.02 Z" fill="#000000" fill-rule="nonzero" fill-opacity="1" /><path clip-path="url(#clip420)" d="M1489.63 1466.44 Q1486.48 1466.44 1484.63 1468.59 Q1482.8 1470.74 1482.8 1474.49 Q1482.8 1478.22 1484.63 1480.39 Q1486.48 1482.55 1489.63 1482.55 Q1492.78 1482.55 1494.61 1480.39 Q1496.46 1478.22 1496.46 1474.49 Q1496.46 1470.74 1494.61 1468.59 Q1492.78 1466.44 1489.63 1466.44 M1498.92 1451.78 L1498.92 1456.04 Q1497.16 1455.21 1495.35 1454.77 Q1493.57 1454.33 1491.81 1454.33 Q1487.18 1454.33 1484.73 1457.45 Q1482.3 1460.58 1481.95 1466.9 Q1483.31 1464.89 1485.37 1463.82 Q1487.43 1462.73 1489.91 1462.73 Q1495.12 1462.73 1498.13 1465.9 Q1501.16 1469.05 1501.16 1474.49 Q1501.16 1479.82 1498.01 1483.03 Q1494.86 1486.25 1489.63 1486.25 Q1483.64 1486.25 1480.47 1481.67 Q1477.3 1477.06 1477.3 1468.33 Q1477.3 1460.14 1481.18 1455.28 Q1485.07 1450.39 1491.62 1450.39 Q1493.38 1450.39 1495.17 1450.74 Q1496.97 1451.09 1498.92 1451.78 Z" fill="#000000" fill-rule="nonzero" fill-opacity="1" /><path clip-path="url(#clip420)" d="M1920.99 1469.17 Q1917.66 1469.17 1915.74 1470.95 Q1913.84 1472.73 1913.84 1475.86 Q1913.84 1478.98 1915.74 1480.77 Q1917.66 1482.55 1920.99 1482.55 Q1924.33 1482.55 1926.25 1480.77 Q1928.17 1478.96 1928.17 1475.86 Q1928.17 1472.73 1926.25 1470.95 Q1924.35 1469.17 1920.99 1469.17 M1916.32 1467.18 Q1913.31 1466.44 1911.62 1464.38 Q1909.95 1462.32 1909.95 1459.35 Q1909.95 1455.21 1912.89 1452.8 Q1915.85 1450.39 1920.99 1450.39 Q1926.15 1450.39 1929.09 1452.8 Q1932.03 1455.21 1932.03 1459.35 Q1932.03 1462.32 1930.34 1464.38 Q1928.68 1466.44 1925.69 1467.18 Q1929.07 1467.96 1930.95 1470.26 Q1932.84 1472.55 1932.84 1475.86 Q1932.84 1480.88 1929.77 1483.57 Q1926.71 1486.25 1920.99 1486.25 Q1915.27 1486.25 1912.2 1483.57 Q1909.14 1480.88 1909.14 1475.86 Q1909.14 1472.55 1911.04 1470.26 Q1912.94 1467.96 1916.32 1467.18 M1914.6 1459.79 Q1914.6 1462.48 1916.27 1463.98 Q1917.96 1465.49 1920.99 1465.49 Q1924 1465.49 1925.69 1463.98 Q1927.4 1462.48 1927.4 1459.79 Q1927.4 1457.11 1925.69 1455.6 Q1924 1454.1 1920.99 1454.1 Q1917.96 1454.1 1916.27 1455.6 Q1914.6 1457.11 1914.6 1459.79 Z" fill="#000000" fill-rule="nonzero" fill-opacity="1" /><path clip-path="url(#clip420)" d="M2327.44 1481.64 L2335.08 1481.64 L2335.08 1455.28 L2326.77 1456.95 L2326.77 1452.69 L2335.04 1451.02 L2339.71 1451.02 L2339.71 1481.64 L2347.35 1481.64 L2347.35 1485.58 L2327.44 1485.58 L2327.44 1481.64 Z" fill="#000000" fill-rule="nonzero" fill-opacity="1" /><path clip-path="url(#clip420)" d="M2366.8 1454.1 Q2363.18 1454.1 2361.36 1457.66 Q2359.55 1461.2 2359.55 1468.33 Q2359.55 1475.44 2361.36 1479.01 Q2363.18 1482.55 2366.8 1482.55 Q2370.43 1482.55 2372.23 1479.01 Q2374.06 1475.44 2374.06 1468.33 Q2374.06 1461.2 2372.23 1457.66 Q2370.43 1454.1 2366.8 1454.1 M2366.8 1450.39 Q2372.61 1450.39 2375.66 1455 Q2378.74 1459.58 2378.74 1468.33 Q2378.74 1477.06 2375.66 1481.67 Q2372.61 1486.25 2366.8 1486.25 Q2360.99 1486.25 2357.91 1481.67 Q2354.85 1477.06 2354.85 1468.33 Q2354.85 1459.58 2357.91 1455 Q2360.99 1450.39 2366.8 1450.39 Z" fill="#000000" fill-rule="nonzero" fill-opacity="1" /><path clip-path="url(#clip420)" d="M1272.41 1522.27 L1272.41 1532.4 L1284.47 1532.4 L1284.47 1536.95 L1272.41 1536.95 L1272.41 1556.3 Q1272.41 1560.66 1273.58 1561.9 Q1274.79 1563.14 1278.45 1563.14 L1284.47 1563.14 L1284.47 1568.04 L1278.45 1568.04 Q1271.67 1568.04 1269.1 1565.53 Q1266.52 1562.98 1266.52 1556.3 L1266.52 1536.95 L1262.22 1536.95 L1262.22 1532.4 L1266.52 1532.4 L1266.52 1522.27 L1272.41 1522.27 Z" fill="#000000" fill-rule="nonzero" fill-opacity="1" /><polyline clip-path="url(#clip420)" style="stroke:#000000; stroke-linecap:round; stroke-linejoin:round; stroke-width:4; stroke-opacity:1; fill:none" points="193.936,1423.18 193.936,47.2441 "/>
<polyline clip-path="url(#clip420)" style="stroke:#000000; stroke-linecap:round; stroke-linejoin:round; stroke-width:4; stroke-opacity:1; fill:none" points="193.936,1261.09 212.834,1261.09 "/>
<polyline clip-path="url(#clip420)" style="stroke:#000000; stroke-linecap:round; stroke-linejoin:round; stroke-width:4; stroke-opacity:1; fill:none" points="193.936,1025.86 212.834,1025.86 "/>
<polyline clip-path="url(#clip420)" style="stroke:#000000; stroke-linecap:round; stroke-linejoin:round; stroke-width:4; stroke-opacity:1; fill:none" points="193.936,790.621 212.834,790.621 "/>
<polyline clip-path="url(#clip420)" style="stroke:#000000; stroke-linecap:round; stroke-linejoin:round; stroke-width:4; stroke-opacity:1; fill:none" points="193.936,555.384 212.834,555.384 "/>
<polyline clip-path="url(#clip420)" style="stroke:#000000; stroke-linecap:round; stroke-linejoin:round; stroke-width:4; stroke-opacity:1; fill:none" points="193.936,320.147 212.834,320.147 "/>
<polyline clip-path="url(#clip420)" style="stroke:#000000; stroke-linecap:round; stroke-linejoin:round; stroke-width:4; stroke-opacity:1; fill:none" points="193.936,84.91 212.834,84.91 "/>
<path clip-path="url(#clip420)" d="M50.9921 1261.55 L80.6679 1261.55 L80.6679 1265.48 L50.9921 1265.48 L50.9921 1261.55 Z" fill="#000000" fill-rule="nonzero" fill-opacity="1" /><path clip-path="url(#clip420)" d="M91.5706 1274.44 L99.2095 1274.44 L99.2095 1248.07 L90.8993 1249.74 L90.8993 1245.48 L99.1632 1243.81 L103.839 1243.81 L103.839 1274.44 L111.478 1274.44 L111.478 1278.37 L91.5706 1278.37 L91.5706 1274.44 Z" fill="#000000" fill-rule="nonzero" fill-opacity="1" /><path clip-path="url(#clip420)" d="M120.922 1272.5 L125.807 1272.5 L125.807 1278.37 L120.922 1278.37 L120.922 1272.5 Z" fill="#000000" fill-rule="nonzero" fill-opacity="1" /><path clip-path="url(#clip420)" d="M145.992 1246.89 Q142.381 1246.89 140.552 1250.46 Q138.746 1254 138.746 1261.13 Q138.746 1268.24 140.552 1271.8 Q142.381 1275.34 145.992 1275.34 Q149.626 1275.34 151.431 1271.8 Q153.26 1268.24 153.26 1261.13 Q153.26 1254 151.431 1250.46 Q149.626 1246.89 145.992 1246.89 M145.992 1243.19 Q151.802 1243.19 154.857 1247.8 Q157.936 1252.38 157.936 1261.13 Q157.936 1269.86 154.857 1274.46 Q151.802 1279.05 145.992 1279.05 Q140.181 1279.05 137.103 1274.46 Q134.047 1269.86 134.047 1261.13 Q134.047 1252.38 137.103 1247.8 Q140.181 1243.19 145.992 1243.19 Z" fill="#000000" fill-rule="nonzero" fill-opacity="1" /><path clip-path="url(#clip420)" d="M51.9875 1026.31 L81.6633 1026.31 L81.6633 1030.24 L51.9875 1030.24 L51.9875 1026.31 Z" fill="#000000" fill-rule="nonzero" fill-opacity="1" /><path clip-path="url(#clip420)" d="M101.756 1011.66 Q98.1447 1011.66 96.316 1015.22 Q94.5104 1018.76 94.5104 1025.89 Q94.5104 1033 96.316 1036.56 Q98.1447 1040.11 101.756 1040.11 Q105.39 1040.11 107.196 1036.56 Q109.024 1033 109.024 1025.89 Q109.024 1018.76 107.196 1015.22 Q105.39 1011.66 101.756 1011.66 M101.756 1007.95 Q107.566 1007.95 110.621 1012.56 Q113.7 1017.14 113.7 1025.89 Q113.7 1034.62 110.621 1039.23 Q107.566 1043.81 101.756 1043.81 Q95.9456 1043.81 92.8669 1039.23 Q89.8114 1034.62 89.8114 1025.89 Q89.8114 1017.14 92.8669 1012.56 Q95.9456 1007.95 101.756 1007.95 Z" fill="#000000" fill-rule="nonzero" fill-opacity="1" /><path clip-path="url(#clip420)" d="M121.918 1037.26 L126.802 1037.26 L126.802 1043.14 L121.918 1043.14 L121.918 1037.26 Z" fill="#000000" fill-rule="nonzero" fill-opacity="1" /><path clip-path="url(#clip420)" d="M137.033 1008.58 L155.39 1008.58 L155.39 1012.51 L141.316 1012.51 L141.316 1020.99 Q142.334 1020.64 143.353 1020.48 Q144.371 1020.29 145.39 1020.29 Q151.177 1020.29 154.556 1023.46 Q157.936 1026.63 157.936 1032.05 Q157.936 1037.63 154.464 1040.73 Q150.992 1043.81 144.672 1043.81 Q142.496 1043.81 140.228 1043.44 Q137.982 1043.07 135.575 1042.33 L135.575 1037.63 Q137.658 1038.76 139.881 1039.32 Q142.103 1039.87 144.58 1039.87 Q148.584 1039.87 150.922 1037.77 Q153.26 1035.66 153.26 1032.05 Q153.26 1028.44 150.922 1026.33 Q148.584 1024.23 144.58 1024.23 Q142.705 1024.23 140.83 1024.64 Q138.978 1025.06 137.033 1025.94 L137.033 1008.58 Z" fill="#000000" fill-rule="nonzero" fill-opacity="1" /><path clip-path="url(#clip420)" d="M100.76 776.42 Q97.1493 776.42 95.3206 779.984 Q93.515 783.526 93.515 790.656 Q93.515 797.762 95.3206 801.327 Q97.1493 804.869 100.76 804.869 Q104.395 804.869 106.2 801.327 Q108.029 797.762 108.029 790.656 Q108.029 783.526 106.2 779.984 Q104.395 776.42 100.76 776.42 M100.76 772.716 Q106.571 772.716 109.626 777.322 Q112.705 781.906 112.705 790.656 Q112.705 799.382 109.626 803.989 Q106.571 808.572 100.76 808.572 Q94.9502 808.572 91.8715 803.989 Q88.816 799.382 88.816 790.656 Q88.816 781.906 91.8715 777.322 Q94.9502 772.716 100.76 772.716 Z" fill="#000000" fill-rule="nonzero" fill-opacity="1" /><path clip-path="url(#clip420)" d="M120.922 802.021 L125.807 802.021 L125.807 807.901 L120.922 807.901 L120.922 802.021 Z" fill="#000000" fill-rule="nonzero" fill-opacity="1" /><path clip-path="url(#clip420)" d="M145.992 776.42 Q142.381 776.42 140.552 779.984 Q138.746 783.526 138.746 790.656 Q138.746 797.762 140.552 801.327 Q142.381 804.869 145.992 804.869 Q149.626 804.869 151.431 801.327 Q153.26 797.762 153.26 790.656 Q153.26 783.526 151.431 779.984 Q149.626 776.42 145.992 776.42 M145.992 772.716 Q151.802 772.716 154.857 777.322 Q157.936 781.906 157.936 790.656 Q157.936 799.382 154.857 803.989 Q151.802 808.572 145.992 808.572 Q140.181 808.572 137.103 803.989 Q134.047 799.382 134.047 790.656 Q134.047 781.906 137.103 777.322 Q140.181 772.716 145.992 772.716 Z" fill="#000000" fill-rule="nonzero" fill-opacity="1" /><path clip-path="url(#clip420)" d="M101.756 541.183 Q98.1447 541.183 96.316 544.747 Q94.5104 548.289 94.5104 555.419 Q94.5104 562.525 96.316 566.09 Q98.1447 569.632 101.756 569.632 Q105.39 569.632 107.196 566.09 Q109.024 562.525 109.024 555.419 Q109.024 548.289 107.196 544.747 Q105.39 541.183 101.756 541.183 M101.756 537.479 Q107.566 537.479 110.621 542.085 Q113.7 546.669 113.7 555.419 Q113.7 564.146 110.621 568.752 Q107.566 573.335 101.756 573.335 Q95.9456 573.335 92.8669 568.752 Q89.8114 564.146 89.8114 555.419 Q89.8114 546.669 92.8669 542.085 Q95.9456 537.479 101.756 537.479 Z" fill="#000000" fill-rule="nonzero" fill-opacity="1" /><path clip-path="url(#clip420)" d="M121.918 566.784 L126.802 566.784 L126.802 572.664 L121.918 572.664 L121.918 566.784 Z" fill="#000000" fill-rule="nonzero" fill-opacity="1" /><path clip-path="url(#clip420)" d="M137.033 538.104 L155.39 538.104 L155.39 542.039 L141.316 542.039 L141.316 550.511 Q142.334 550.164 143.353 550.002 Q144.371 549.817 145.39 549.817 Q151.177 549.817 154.556 552.988 Q157.936 556.159 157.936 561.576 Q157.936 567.155 154.464 570.257 Q150.992 573.335 144.672 573.335 Q142.496 573.335 140.228 572.965 Q137.982 572.595 135.575 571.854 L135.575 567.155 Q137.658 568.289 139.881 568.845 Q142.103 569.4 144.58 569.4 Q148.584 569.4 150.922 567.294 Q153.26 565.187 153.26 561.576 Q153.26 557.965 150.922 555.859 Q148.584 553.752 144.58 553.752 Q142.705 553.752 140.83 554.169 Q138.978 554.585 137.033 555.465 L137.033 538.104 Z" fill="#000000" fill-rule="nonzero" fill-opacity="1" /><path clip-path="url(#clip420)" d="M91.5706 333.492 L99.2095 333.492 L99.2095 307.126 L90.8993 308.793 L90.8993 304.534 L99.1632 302.867 L103.839 302.867 L103.839 333.492 L111.478 333.492 L111.478 337.427 L91.5706 337.427 L91.5706 333.492 Z" fill="#000000" fill-rule="nonzero" fill-opacity="1" /><path clip-path="url(#clip420)" d="M120.922 331.547 L125.807 331.547 L125.807 337.427 L120.922 337.427 L120.922 331.547 Z" fill="#000000" fill-rule="nonzero" fill-opacity="1" /><path clip-path="url(#clip420)" d="M145.992 305.946 Q142.381 305.946 140.552 309.51 Q138.746 313.052 138.746 320.182 Q138.746 327.288 140.552 330.853 Q142.381 334.395 145.992 334.395 Q149.626 334.395 151.431 330.853 Q153.26 327.288 153.26 320.182 Q153.26 313.052 151.431 309.51 Q149.626 305.946 145.992 305.946 M145.992 302.242 Q151.802 302.242 154.857 306.848 Q157.936 311.432 157.936 320.182 Q157.936 328.909 154.857 333.515 Q151.802 338.098 145.992 338.098 Q140.181 338.098 137.103 333.515 Q134.047 328.909 134.047 320.182 Q134.047 311.432 137.103 306.848 Q140.181 302.242 145.992 302.242 Z" fill="#000000" fill-rule="nonzero" fill-opacity="1" /><path clip-path="url(#clip420)" d="M92.566 98.2549 L100.205 98.2549 L100.205 71.8893 L91.8947 73.5559 L91.8947 69.2967 L100.159 67.63 L104.834 67.63 L104.834 98.2549 L112.473 98.2549 L112.473 102.19 L92.566 102.19 L92.566 98.2549 Z" fill="#000000" fill-rule="nonzero" fill-opacity="1" /><path clip-path="url(#clip420)" d="M121.918 96.3104 L126.802 96.3104 L126.802 102.19 L121.918 102.19 L121.918 96.3104 Z" fill="#000000" fill-rule="nonzero" fill-opacity="1" /><path clip-path="url(#clip420)" d="M137.033 67.63 L155.39 67.63 L155.39 71.5652 L141.316 71.5652 L141.316 80.0374 Q142.334 79.6902 143.353 79.5281 Q144.371 79.3429 145.39 79.3429 Q151.177 79.3429 154.556 82.5142 Q157.936 85.6855 157.936 91.1021 Q157.936 96.6808 154.464 99.7826 Q150.992 102.861 144.672 102.861 Q142.496 102.861 140.228 102.491 Q137.982 102.121 135.575 101.38 L135.575 96.6808 Q137.658 97.8151 139.881 98.3706 Q142.103 98.9262 144.58 98.9262 Q148.584 98.9262 150.922 96.8197 Q153.26 94.7132 153.26 91.1021 Q153.26 87.491 150.922 85.3846 Q148.584 83.2781 144.58 83.2781 Q142.705 83.2781 140.83 83.6948 Q138.978 84.1114 137.033 84.9911 L137.033 67.63 Z" fill="#000000" fill-rule="nonzero" fill-opacity="1" /><polyline clip-path="url(#clip422)" style="stroke:#009af9; stroke-linecap:round; stroke-linejoin:round; stroke-width:4; stroke-opacity:1; fill:none" points="193.936,790.621 196.097,788.759 198.258,786.922 200.419,785.109 202.58,783.32 204.741,781.555 206.902,779.813 209.063,778.095 211.224,776.399 213.385,774.726 215.546,773.074 217.707,771.445 219.868,769.837 222.029,768.251 224.19,766.686 226.351,765.141 228.512,763.617 230.673,762.113 232.834,760.629 234.995,759.165 237.156,757.72 239.317,756.294 241.478,754.888 243.639,753.499 245.8,752.13 247.961,750.778 250.122,749.444 252.282,748.128 254.443,746.83 256.604,745.549 258.765,744.284 260.926,743.037 263.087,741.806 265.248,740.591 267.409,739.392 269.57,738.21 271.731,737.042 273.892,735.891 276.053,734.755 278.214,733.633 280.375,732.527 282.536,731.435 284.697,730.358 286.858,729.295 289.019,728.246 291.18,727.211 293.341,726.19 295.502,725.182 297.663,724.188 299.824,723.207 301.985,722.239 304.146,721.284 306.307,720.341 308.468,719.411 310.629,718.493 312.79,717.587 314.951,716.694 317.112,715.812 319.273,714.942 321.434,714.083 323.595,713.236 325.756,712.4 327.917,711.575 330.078,710.761 332.239,709.958 334.4,709.166 336.561,708.384 338.722,707.612 340.883,706.851 343.044,706.099 345.205,705.358 347.366,704.627 349.527,703.905 351.688,703.193 353.849,702.49 356.01,701.796 358.171,701.112 360.332,700.437 362.493,699.771 364.653,699.113 366.814,698.465 368.975,697.825 371.136,697.193 373.297,696.57 375.458,695.955 377.619,695.348 379.78,694.749 381.941,694.158 384.102,693.575 386.263,693 388.424,692.432 390.585,691.872 392.746,691.32 394.907,690.774 397.068,690.236 399.229,689.705 401.39,689.181 403.551,688.664 405.712,688.154 407.873,687.767 410.034,688.092 412.195,689.127 414.356,690.776 416.517,692.952 418.678,695.569 420.839,698.551 423,701.825 425.161,705.324 427.322,708.987 429.483,712.761 431.644,716.594 433.805,720.444 435.966,724.273 438.127,728.048 440.288,731.742 442.449,735.335 444.61,738.812 446.771,742.162 448.932,745.384 451.093,748.477 453.254,751.45 455.415,754.316 457.576,757.095 459.737,759.81 461.898,762.493 464.059,765.179 466.22,767.909 468.381,770.637 470.542,773.329 472.703,775.986 474.864,778.607 477.024,781.193 479.185,783.745 481.346,786.263 483.507,788.748 485.668,791.2 487.829,793.62 489.99,796.007 492.151,798.363 494.312,800.687 496.473,802.981 498.634,805.244 500.795,807.477 502.956,809.681 505.117,811.856 507.278,814.001 509.439,816.119 511.6,818.208 513.761,820.269 515.922,822.303 518.083,824.31 520.244,826.291 522.405,828.245 524.566,830.173 526.727,832.076 528.888,833.953 531.049,835.806 533.21,837.634 535.371,839.438 537.532,841.218 539.693,842.974 541.854,844.707 544.015,846.417 546.176,848.104 548.337,849.769 550.498,851.412 552.659,853.033 554.82,854.633 556.981,856.211 559.142,857.769 561.303,859.306 563.464,860.822 565.625,862.318 567.786,863.795 569.947,865.252 572.108,866.69 574.269,868.108 576.43,869.508 578.591,870.889 580.752,872.252 582.913,873.597 585.074,874.924 587.235,876.234 589.396,877.526 591.556,878.801 593.717,880.059 595.878,881.3 598.039,882.525 600.2,883.733 602.361,884.926 604.522,886.103 606.683,887.264 608.844,888.41 611.005,889.54 613.166,890.656 615.327,891.757 617.488,892.843 619.649,893.915 621.81,894.973 623.971,895.979 626.132,896.796 628.293,897.425 630.454,897.886 632.615,898.196 634.776,898.374 636.937,898.435 639.098,898.395 641.259,898.267 643.42,898.067 645.581,897.805 647.742,897.495 649.903,897.147 652.064,896.772 654.225,896.377 656.386,895.973 658.547,895.566 660.708,895.162 662.869,894.768 665.03,894.388 667.191,894.026 669.352,893.684 671.513,893.366 673.674,893.073 675.835,892.804 677.996,892.559 680.157,892.337 682.318,892.136 684.479,891.951 686.64,891.781 688.801,891.618 690.962,891.458 693.123,891.294 695.284,891.117 697.445,890.923 699.606,890.725 701.767,890.53 703.927,890.338 706.088,890.148 708.249,889.961 710.41,889.776 712.571,889.594 714.732,889.414 716.893,889.237 719.054,889.061 721.215,888.889 723.376,888.718 725.537,888.55 727.698,888.384 729.859,888.22 732.02,888.058 734.181,887.899 736.342,887.741 738.503,887.586 740.664,887.433 742.825,887.281 744.986,887.132 747.147,886.985 749.308,886.839 751.469,886.696 753.63,886.555 755.791,886.415 757.952,886.277 760.113,886.141 762.274,886.007 764.435,885.875 766.596,885.744 768.757,885.615 770.918,885.488 773.079,885.363 775.24,885.239 777.401,885.117 779.562,884.996 781.723,884.877 783.884,884.76 786.045,884.644 788.206,884.53 790.367,884.417 792.528,884.306 794.689,884.196 796.85,884.088 799.011,883.981 801.172,883.875 803.333,883.771 805.494,883.668 807.655,883.567 809.816,883.467 811.977,883.368 814.138,883.271 816.298,883.175 818.459,883.08 820.62,882.987 822.781,882.894 824.942,882.803 827.103,882.713 829.264,882.625 831.425,882.537 833.586,882.451 835.747,882.366 837.908,882.282 840.069,882.068 842.23,880.212 844.391,876.498 846.552,871.191 848.713,864.537 850.874,856.766 853.035,848.091 855.196,838.71 857.357,828.801 859.518,818.528 861.679,808.036 863.84,797.455 866.001,786.897 868.162,776.457 870.323,766.216 872.484,756.234 874.645,746.556 876.806,737.212 878.967,728.213 881.128,719.554 883.289,711.212 885.45,703.149 887.611,695.309 889.772,687.62 891.933,679.993 894.094,672.322 896.255,664.565 898.416,656.897 900.577,649.33 902.738,641.864 904.899,634.497 907.06,627.227 909.221,620.054 911.382,612.976 913.543,605.992 915.704,599.1 917.865,592.3 920.026,585.59 922.187,578.969 924.348,572.436 926.509,565.989 928.669,559.628 930.83,553.35 932.991,547.156 935.152,541.045 937.313,535.014 939.474,529.063 941.635,523.191 943.796,517.397 945.957,511.679 948.118,506.038 950.279,500.471 952.44,494.979 954.601,489.559 956.762,484.211 958.923,478.934 961.084,473.727 963.245,468.589 965.406,463.519 967.567,458.517 969.728,453.58 971.889,448.71 974.05,443.904 976.211,439.161 978.372,434.482 980.533,429.864 982.694,425.308 984.855,420.812 987.016,416.376 989.177,411.998 991.338,407.679 993.499,403.417 995.66,399.211 997.821,395.061 999.982,390.966 1002.14,386.925 1004.3,382.938 1006.46,379.003 1008.63,375.121 1010.79,371.291 1012.95,367.511 1015.11,363.781 1017.27,360.1 1019.43,356.469 1021.59,352.885 1023.75,349.35 1025.91,345.861 1028.07,342.418 1030.24,339.021 1032.4,335.669 1034.56,332.361 1036.72,329.097 1038.88,325.877 1041.04,322.699 1043.2,319.563 1045.36,316.469 1047.52,313.416 1049.68,310.61 1051.85,309.341 1054.01,309.678 1056.17,311.438 1058.33,314.447 1060.49,318.541 1062.65,323.566 1064.81,329.376 1066.97,335.835 1069.13,342.818 1071.29,350.205 1073.46,357.89 1075.62,365.774 1077.78,373.767 1079.94,381.789 1082.1,389.77 1084.26,397.647 1086.42,405.37 1088.58,412.895 1090.74,420.188 1092.9,427.226 1095.07,433.994 1097.23,440.486 1099.39,446.706 1101.55,452.668 1103.71,458.393 1105.87,463.914 1108.03,469.272 1110.19,474.517 1112.35,479.708 1114.51,484.916 1116.67,490.218 1118.84,495.578 1121,500.866 1123.16,506.085 1125.32,511.235 1127.48,516.316 1129.64,521.33 1131.8,526.277 1133.96,531.159 1136.12,535.976 1138.28,540.73 1140.45,545.42 1142.61,550.048 1144.77,554.615 1146.93,559.121 1149.09,563.567 1151.25,567.955 1153.41,572.284 1155.57,576.556 1157.73,580.771 1159.89,584.931 1162.06,589.036 1164.22,593.087 1166.38,597.083 1168.54,601.027 1170.7,604.919 1172.86,608.759 1175.02,612.548 1177.18,616.287 1179.34,619.976 1181.5,623.616 1183.67,627.208 1185.83,630.752 1187.99,634.249 1190.15,637.7 1192.31,641.104 1194.47,644.464 1196.63,647.779 1198.79,651.05 1200.95,654.277 1203.11,657.462 1205.28,660.604 1207.44,663.705 1209.6,666.764 1211.76,669.783 1213.92,672.762 1216.08,675.701 1218.24,678.601 1220.4,681.463 1222.56,684.287 1224.72,687.073 1226.88,689.823 1229.05,692.536 1231.21,695.213 1233.37,697.854 1235.53,700.461 1237.69,703.033 1239.85,705.571 1242.01,708.075 1244.17,710.547 1246.33,712.985 1248.49,715.392 1250.66,717.766 1252.82,720.109 1254.98,722.421 1257.14,724.703 1259.3,726.954 1261.46,729.175 1263.62,731.367 1265.78,733.53 1267.94,735.666 1270.1,738.482 1272.27,742.212 1274.43,746.46 1276.59,750.919 1278.75,755.372 1280.91,759.691 1283.07,763.836 1285.23,767.856 1287.39,771.864 1289.55,775.832 1291.71,779.748 1293.88,783.613 1296.04,787.426 1298.2,791.188 1300.36,794.901 1302.52,798.564 1304.68,802.179 1306.84,805.746 1309,809.265 1311.16,812.738 1313.32,816.165 1315.49,819.546 1317.65,822.883 1319.81,826.175 1321.97,829.424 1324.13,832.629 1326.29,835.792 1328.45,838.914 1330.61,841.993 1332.77,845.032 1334.93,848.031 1337.09,850.99 1339.26,853.91 1341.42,856.791 1343.58,859.633 1345.74,862.439 1347.9,865.206 1350.06,867.938 1352.22,870.633 1354.38,873.292 1356.54,875.916 1358.7,878.505 1360.87,881.06 1363.03,883.581 1365.19,886.069 1367.35,888.523 1369.51,890.945 1371.67,893.335 1373.83,895.694 1375.99,898.021 1378.15,900.317 1380.31,902.582 1382.48,904.818 1384.64,907.024 1386.8,909.201 1388.96,911.349 1391.12,913.468 1393.28,915.56 1395.44,917.623 1397.6,919.66 1399.76,921.669 1401.92,923.652 1404.09,925.608 1406.25,927.539 1408.41,929.443 1410.57,931.323 1412.73,933.178 1414.89,935.008 1417.05,936.813 1419.21,938.595 1421.37,940.353 1423.53,942.088 1425.7,943.8 1427.86,945.489 1430.02,947.156 1432.18,948.801 1434.34,950.424 1436.5,952.025 1438.66,953.605 1440.82,955.164 1442.98,956.703 1445.14,958.221 1447.3,959.719 1449.47,961.197 1451.63,962.656 1453.79,964.095 1455.95,965.515 1458.11,966.916 1460.27,968.299 1462.43,969.664 1464.59,971.01 1466.75,972.338 1468.91,973.649 1471.08,974.943 1473.24,976.219 1475.4,977.478 1477.56,978.721 1479.72,979.947 1481.88,981.157 1484.04,982.351 1486.2,983.513 1488.36,984.054 1490.52,983.756 1492.69,982.719 1494.85,981.038 1497.01,978.802 1499.17,976.096 1501.33,972.999 1503.49,969.583 1505.65,965.917 1507.81,962.063 1509.97,958.078 1512.13,954.014 1514.3,949.917 1516.46,945.827 1518.62,941.78 1520.78,937.807 1522.94,933.931 1525.1,930.171 1527.26,926.542 1529.42,923.051 1531.58,919.701 1533.74,916.491 1535.91,913.411 1538.07,910.449 1540.23,907.585 1542.39,904.796 1544.55,902.051 1546.71,899.316 1548.87,896.55 1551.03,893.735 1553.19,890.948 1555.35,888.198 1557.51,885.485 1559.68,882.808 1561.84,880.166 1564,877.559 1566.16,874.986 1568.32,872.448 1570.48,869.944 1572.64,867.472 1574.8,865.034 1576.96,862.627 1579.12,860.253 1581.29,857.91 1583.45,855.598 1585.61,853.317 1587.77,851.066 1589.93,848.844 1592.09,846.653 1594.25,844.49 1596.41,842.356 1598.57,840.25 1600.73,838.172 1602.9,836.121 1605.06,834.098 1607.22,832.102 1609.38,830.132 1611.54,828.188 1613.7,826.271 1615.86,824.378 1618.02,822.511 1620.18,820.668 1622.34,818.85 1624.51,817.056 1626.67,815.286 1628.83,813.539 1630.99,811.816 1633.15,810.115 1635.31,808.437 1637.47,806.782 1639.63,805.148 1641.79,803.536 1643.95,801.945 1646.12,800.375 1648.28,798.826 1650.44,797.298 1652.6,795.79 1654.76,794.302 1656.92,792.833 1659.08,791.385 1661.24,789.955 1663.4,788.544 1665.56,787.152 1667.72,785.778 1669.89,784.423 1672.05,783.085 1674.21,781.765 1676.37,780.463 1678.53,779.178 1680.69,777.91 1682.85,776.659 1685.01,775.424 1687.17,774.206 1689.33,773.004 1691.5,771.818 1693.66,770.647 1695.82,769.492 1697.98,768.353 1700.14,767.228 1702.3,766.304 1704.46,765.916 1706.62,765.999 1708.78,766.48 1710.94,767.291 1713.11,768.37 1715.27,769.659 1717.43,771.108 1719.59,772.668 1721.75,774.298 1723.91,775.963 1726.07,777.629 1728.23,779.271 1730.39,780.869 1732.55,782.405 1734.72,783.87 1736.88,785.258 1739.04,786.568 1741.2,787.805 1743.36,788.98 1745.52,790.106 1747.68,791.205 1749.84,792.302 1752,793.427 1754.16,794.577 1756.33,795.713 1758.49,796.834 1760.65,797.94 1762.81,799.031 1764.97,800.107 1767.13,801.17 1769.29,802.218 1771.45,803.253 1773.61,804.273 1775.77,805.281 1777.93,806.274 1780.1,807.255 1782.26,808.223 1784.42,809.178 1786.58,810.12 1788.74,811.05 1790.9,811.967 1793.06,812.872 1795.22,813.765 1797.38,814.647 1799.54,815.517 1801.71,816.375 1803.87,817.222 1806.03,818.057 1808.19,818.882 1810.35,819.695 1812.51,820.498 1814.67,821.29 1816.83,822.072 1818.99,822.843 1821.15,823.604 1823.32,824.355 1825.48,825.096 1827.64,825.827 1829.8,826.548 1831.96,827.26 1834.12,827.962 1836.28,828.655 1838.44,829.339 1840.6,830.014 1842.76,830.68 1844.93,831.337 1847.09,831.986 1849.25,832.625 1851.41,833.257 1853.57,833.88 1855.73,834.494 1857.89,835.101 1860.05,835.699 1862.21,836.29 1864.37,836.873 1866.54,837.448 1868.7,838.015 1870.86,838.575 1873.02,839.127 1875.18,839.673 1877.34,840.21 1879.5,840.741 1881.66,841.265 1883.82,841.782 1885.98,842.292 1888.15,842.795 1890.31,843.291 1892.47,843.781 1894.63,844.264 1896.79,844.741 1898.95,845.212 1901.11,845.677 1903.27,846.135 1905.43,846.587 1907.59,847.033 1909.75,847.473 1911.92,847.908 1914.08,848.337 1916.24,848.76 1918.4,849.275 1920.56,850.68 1922.72,853.054 1924.88,856.285 1927.04,860.268 1929.2,864.902 1931.36,870.092 1933.53,875.75 1935.69,881.79 1937.85,888.137 1940.01,894.716 1942.17,901.463 1944.33,908.315 1946.49,915.217 1948.65,922.12 1950.81,928.98 1952.97,935.758 1955.14,942.422 1957.3,948.944 1959.46,955.304 1961.62,961.485 1963.78,967.476 1965.94,973.275 1968.1,978.881 1970.26,984.302 1972.42,989.549 1974.58,994.642 1976.75,999.603 1978.91,1004.46 1981.07,1009.26 1983.23,1014.02 1985.39,1018.81 1987.55,1023.64 1989.71,1028.42 1991.87,1033.14 1994.03,1037.79 1996.19,1042.39 1998.36,1046.92 2000.52,1051.39 2002.68,1055.8 2004.84,1060.16 2007,1064.45 2009.16,1068.69 2011.32,1072.88 2013.48,1077.01 2015.64,1081.08 2017.8,1085.1 2019.96,1089.06 2022.13,1092.98 2024.29,1096.84 2026.45,1100.65 2028.61,1104.41 2030.77,1108.12 2032.93,1111.78 2035.09,1115.39 2037.25,1118.96 2039.41,1122.48 2041.57,1125.95 2043.74,1129.37 2045.9,1132.75 2048.06,1136.09 2050.22,1139.38 2052.38,1142.63 2054.54,1145.83 2056.7,1148.99 2058.86,1152.11 2061.02,1155.19 2063.18,1158.23 2065.35,1161.22 2067.51,1164.18 2069.67,1167.1 2071.83,1169.98 2073.99,1172.82 2076.15,1175.62 2078.31,1178.39 2080.47,1181.12 2082.63,1183.81 2084.79,1186.47 2086.96,1189.09 2089.12,1191.67 2091.28,1194.23 2093.44,1196.74 2095.6,1199.23 2097.76,1201.68 2099.92,1204.1 2102.08,1206.49 2104.24,1208.84 2106.4,1211.17 2108.57,1213.46 2110.73,1215.73 2112.89,1217.96 2115.05,1220.16 2117.21,1222.34 2119.37,1224.48 2121.53,1226.6 2123.69,1228.69 2125.85,1230.75 2128.01,1232.79 2130.17,1234.71 2132.34,1234.79 2134.5,1232.55 2136.66,1228.29 2138.82,1222.25 2140.98,1214.7 2143.14,1205.87 2145.3,1195.97 2147.46,1185.22 2149.62,1173.8 2151.78,1161.88 2153.95,1149.63 2156.11,1137.19 2158.27,1124.68 2160.43,1112.22 2162.59,1099.91 2164.75,1087.82 2166.91,1076.03 2169.07,1064.58 2171.23,1053.51 2173.39,1042.85 2175.56,1032.6 2177.72,1022.74 2179.88,1013.26 2182.04,1004.11 2184.2,995.238 2186.36,986.574 2188.52,978.031 2190.68,969.507 2192.84,960.886 2195,952.169 2197.17,943.561 2199.33,935.067 2201.49,926.686 2203.65,918.416 2205.81,910.255 2207.97,902.203 2210.13,894.257 2212.29,886.417 2214.45,878.681 2216.61,871.047 2218.78,863.515 2220.94,856.082 2223.1,848.748 2225.26,841.511 2227.42,834.371 2229.58,827.324 2231.74,820.372 2233.9,813.511 2236.06,806.741 2238.22,800.061 2240.38,793.47 2242.55,786.966 2244.71,780.548 2246.87,774.215 2249.03,767.966 2251.19,761.799 2253.35,755.714 2255.51,749.71 2257.67,743.785 2259.83,737.939 2261.99,732.171 2264.16,726.479 2266.32,720.863 2268.48,715.321 2270.64,709.853 2272.8,704.457 2274.96,699.133 2277.12,693.879 2279.28,688.696 2281.44,683.581 2283.6,678.534 2285.77,673.554 2287.93,668.64 2290.09,663.792 2292.25,659.007 2294.41,654.287 2296.57,649.628 2298.73,645.032 2300.89,640.497 2303.05,636.021 2305.21,631.606 2307.38,627.248 2309.54,622.949 2311.7,618.706 2313.86,614.52 2316.02,610.389 2318.18,606.312 2320.34,602.29 2322.5,598.321 2324.66,594.405 2326.82,590.54 2328.99,586.727 2331.15,582.964 2333.31,579.251 2335.47,575.587 2337.63,571.971 2339.79,568.404 2341.95,564.884 2344.11,561.411 2346.27,557.983 2348.43,554.602 2350.59,551.264 2352.76,547.972 "/>
<polyline clip-path="url(#clip422)" style="stroke:#e26f46; stroke-linecap:round; stroke-linejoin:round; stroke-width:4; stroke-opacity:1; fill:none" points="193.936,650.184 196.097,650.184 198.258,650.184 200.419,650.184 202.58,650.184 204.741,650.184 206.902,650.184 209.063,650.184 211.224,650.184 213.385,650.184 215.546,650.184 217.707,650.184 219.868,650.184 222.029,650.184 224.19,650.184 226.351,650.184 228.512,650.184 230.673,650.184 232.834,650.184 234.995,650.184 237.156,650.184 239.317,650.184 241.478,650.184 243.639,650.184 245.8,650.184 247.961,650.184 250.122,650.184 252.282,650.184 254.443,650.184 256.604,650.184 258.765,650.184 260.926,650.184 263.087,650.184 265.248,650.184 267.409,650.184 269.57,650.184 271.731,650.184 273.892,650.184 276.053,650.184 278.214,650.184 280.375,650.184 282.536,650.184 284.697,650.184 286.858,650.184 289.019,650.184 291.18,650.184 293.341,650.184 295.502,650.184 297.663,650.184 299.824,650.184 301.985,650.184 304.146,650.184 306.307,650.184 308.468,650.184 310.629,650.184 312.79,650.184 314.951,650.184 317.112,650.184 319.273,650.184 321.434,650.184 323.595,650.184 325.756,650.184 327.917,650.184 330.078,650.184 332.239,650.184 334.4,650.184 336.561,650.184 338.722,650.184 340.883,650.184 343.044,650.184 345.205,650.184 347.366,650.184 349.527,650.184 351.688,650.184 353.849,650.184 356.01,650.184 358.171,650.184 360.332,650.184 362.493,650.184 364.653,650.184 366.814,650.184 368.975,650.184 371.136,650.184 373.297,650.184 375.458,650.184 377.619,650.184 379.78,650.184 381.941,650.184 384.102,650.184 386.263,650.184 388.424,650.184 390.585,650.184 392.746,650.184 394.907,650.184 397.068,650.184 399.229,650.184 401.39,650.184 403.551,650.184 405.712,650.184 407.873,650.184 410.034,973.689 412.195,973.689 414.356,973.689 416.517,973.689 418.678,973.689 420.839,973.689 423,973.689 425.161,973.689 427.322,973.689 429.483,973.689 431.644,973.689 433.805,973.689 435.966,973.689 438.127,973.689 440.288,973.689 442.449,973.689 444.61,973.689 446.771,973.689 448.932,973.689 451.093,973.689 453.254,973.689 455.415,973.689 457.576,973.689 459.737,973.689 461.898,973.689 464.059,973.689 466.22,973.689 468.381,973.689 470.542,973.689 472.703,973.689 474.864,973.689 477.024,973.689 479.185,973.689 481.346,973.689 483.507,973.689 485.668,973.689 487.829,973.689 489.99,973.689 492.151,973.689 494.312,973.689 496.473,973.689 498.634,973.689 500.795,973.689 502.956,973.689 505.117,973.689 507.278,973.689 509.439,973.689 511.6,973.689 513.761,973.689 515.922,973.689 518.083,973.689 520.244,973.689 522.405,973.689 524.566,973.689 526.727,973.689 528.888,973.689 531.049,973.689 533.21,973.689 535.371,973.689 537.532,973.689 539.693,973.689 541.854,973.689 544.015,973.689 546.176,973.689 548.337,973.689 550.498,973.689 552.659,973.689 554.82,973.689 556.981,973.689 559.142,973.689 561.303,973.689 563.464,973.689 565.625,973.689 567.786,973.689 569.947,973.689 572.108,973.689 574.269,973.689 576.43,973.689 578.591,973.689 580.752,973.689 582.913,973.689 585.074,973.689 587.235,973.689 589.396,973.689 591.556,973.689 593.717,973.689 595.878,973.689 598.039,973.689 600.2,973.689 602.361,973.689 604.522,973.689 606.683,973.689 608.844,973.689 611.005,973.689 613.166,973.689 615.327,973.689 617.488,973.689 619.649,973.689 621.81,973.689 623.971,973.689 626.132,876.024 628.293,876.024 630.454,876.024 632.615,876.024 634.776,876.024 636.937,876.024 639.098,876.024 641.259,876.024 643.42,876.024 645.581,876.024 647.742,876.024 649.903,876.024 652.064,876.024 654.225,876.024 656.386,876.024 658.547,876.024 660.708,876.024 662.869,876.024 665.03,876.024 667.191,876.024 669.352,876.024 671.513,876.024 673.674,876.024 675.835,876.024 677.996,876.024 680.157,876.024 682.318,876.024 684.479,876.024 686.64,876.024 688.801,876.024 690.962,876.024 693.123,876.024 695.284,876.024 697.445,876.024 699.606,876.024 701.767,876.024 703.927,876.024 706.088,876.024 708.249,876.024 710.41,876.024 712.571,876.024 714.732,876.024 716.893,876.024 719.054,876.024 721.215,876.024 723.376,876.024 725.537,876.024 727.698,876.024 729.859,876.024 732.02,876.024 734.181,876.024 736.342,876.024 738.503,876.024 740.664,876.024 742.825,876.024 744.986,876.024 747.147,876.024 749.308,876.024 751.469,876.024 753.63,876.024 755.791,876.024 757.952,876.024 760.113,876.024 762.274,876.024 764.435,876.024 766.596,876.024 768.757,876.024 770.918,876.024 773.079,876.024 775.24,876.024 777.401,876.024 779.562,876.024 781.723,876.024 783.884,876.024 786.045,876.024 788.206,876.024 790.367,876.024 792.528,876.024 794.689,876.024 796.85,876.024 799.011,876.024 801.172,876.024 803.333,876.024 805.494,876.024 807.655,876.024 809.816,876.024 811.977,876.024 814.138,876.024 816.298,876.024 818.459,876.024 820.62,876.024 822.781,876.024 824.942,876.024 827.103,876.024 829.264,876.024 831.425,876.024 833.586,876.024 835.747,876.024 837.908,876.024 840.069,876.024 842.23,86.1857 844.391,86.1857 846.552,86.1857 848.713,86.1857 850.874,86.1857 853.035,86.1857 855.196,86.1857 857.357,86.1857 859.518,86.1857 861.679,86.1857 863.84,86.1857 866.001,86.1857 868.162,86.1857 870.323,86.1857 872.484,86.1857 874.645,86.1857 876.806,86.1857 878.967,86.1857 881.128,86.1857 883.289,86.1857 885.45,86.1857 887.611,86.1857 889.772,86.1857 891.933,86.1857 894.094,86.1857 896.255,86.1857 898.416,86.1857 900.577,86.1857 902.738,86.1857 904.899,86.1857 907.06,86.1857 909.221,86.1857 911.382,86.1857 913.543,86.1857 915.704,86.1857 917.865,86.1857 920.026,86.1857 922.187,86.1857 924.348,86.1857 926.509,86.1857 928.669,86.1857 930.83,86.1857 932.991,86.1857 935.152,86.1857 937.313,86.1857 939.474,86.1857 941.635,86.1857 943.796,86.1857 945.957,86.1857 948.118,86.1857 950.279,86.1857 952.44,86.1857 954.601,86.1857 956.762,86.1857 958.923,86.1857 961.084,86.1857 963.245,86.1857 965.406,86.1857 967.567,86.1857 969.728,86.1857 971.889,86.1857 974.05,86.1857 976.211,86.1857 978.372,86.1857 980.533,86.1857 982.694,86.1857 984.855,86.1857 987.016,86.1857 989.177,86.1857 991.338,86.1857 993.499,86.1857 995.66,86.1857 997.821,86.1857 999.982,86.1857 1002.14,86.1857 1004.3,86.1857 1006.46,86.1857 1008.63,86.1857 1010.79,86.1857 1012.95,86.1857 1015.11,86.1857 1017.27,86.1857 1019.43,86.1857 1021.59,86.1857 1023.75,86.1857 1025.91,86.1857 1028.07,86.1857 1030.24,86.1857 1032.4,86.1857 1034.56,86.1857 1036.72,86.1857 1038.88,86.1857 1041.04,86.1857 1043.2,86.1857 1045.36,86.1857 1047.52,86.1857 1049.68,86.1857 1051.85,86.1857 1054.01,86.1857 1056.17,86.1857 1058.33,894.496 1060.49,894.496 1062.65,894.496 1064.81,894.496 1066.97,894.496 1069.13,894.496 1071.29,894.496 1073.46,894.496 1075.62,894.496 1077.78,894.496 1079.94,894.496 1082.1,894.496 1084.26,894.496 1086.42,894.496 1088.58,894.496 1090.74,894.496 1092.9,894.496 1095.07,894.496 1097.23,894.496 1099.39,894.496 1101.55,894.496 1103.71,894.496 1105.87,894.496 1108.03,894.496 1110.19,894.496 1112.35,894.496 1114.51,894.496 1116.67,894.496 1118.84,894.496 1121,894.496 1123.16,894.496 1125.32,894.496 1127.48,894.496 1129.64,894.496 1131.8,894.496 1133.96,894.496 1136.12,894.496 1138.28,894.496 1140.45,894.496 1142.61,894.496 1144.77,894.496 1146.93,894.496 1149.09,894.496 1151.25,894.496 1153.41,894.496 1155.57,894.496 1157.73,894.496 1159.89,894.496 1162.06,894.496 1164.22,894.496 1166.38,894.496 1168.54,894.496 1170.7,894.496 1172.86,894.496 1175.02,894.496 1177.18,894.496 1179.34,894.496 1181.5,894.496 1183.67,894.496 1185.83,894.496 1187.99,894.496 1190.15,894.496 1192.31,894.496 1194.47,894.496 1196.63,894.496 1198.79,894.496 1200.95,894.496 1203.11,894.496 1205.28,894.496 1207.44,894.496 1209.6,894.496 1211.76,894.496 1213.92,894.496 1216.08,894.496 1218.24,894.496 1220.4,894.496 1222.56,894.496 1224.72,894.496 1226.88,894.496 1229.05,894.496 1231.21,894.496 1233.37,894.496 1235.53,894.496 1237.69,894.496 1239.85,894.496 1242.01,894.496 1244.17,894.496 1246.33,894.496 1248.49,894.496 1250.66,894.496 1252.82,894.496 1254.98,894.496 1257.14,894.496 1259.3,894.496 1261.46,894.496 1263.62,894.496 1265.78,894.496 1267.94,894.496 1270.1,894.496 1272.27,894.496 1274.43,1071.21 1276.59,1071.21 1278.75,1071.21 1280.91,1071.21 1283.07,1071.21 1285.23,1071.21 1287.39,1071.21 1289.55,1071.21 1291.71,1071.21 1293.88,1071.21 1296.04,1071.21 1298.2,1071.21 1300.36,1071.21 1302.52,1071.21 1304.68,1071.21 1306.84,1071.21 1309,1071.21 1311.16,1071.21 1313.32,1071.21 1315.49,1071.21 1317.65,1071.21 1319.81,1071.21 1321.97,1071.21 1324.13,1071.21 1326.29,1071.21 1328.45,1071.21 1330.61,1071.21 1332.77,1071.21 1334.93,1071.21 1337.09,1071.21 1339.26,1071.21 1341.42,1071.21 1343.58,1071.21 1345.74,1071.21 1347.9,1071.21 1350.06,1071.21 1352.22,1071.21 1354.38,1071.21 1356.54,1071.21 1358.7,1071.21 1360.87,1071.21 1363.03,1071.21 1365.19,1071.21 1367.35,1071.21 1369.51,1071.21 1371.67,1071.21 1373.83,1071.21 1375.99,1071.21 1378.15,1071.21 1380.31,1071.21 1382.48,1071.21 1384.64,1071.21 1386.8,1071.21 1388.96,1071.21 1391.12,1071.21 1393.28,1071.21 1395.44,1071.21 1397.6,1071.21 1399.76,1071.21 1401.92,1071.21 1404.09,1071.21 1406.25,1071.21 1408.41,1071.21 1410.57,1071.21 1412.73,1071.21 1414.89,1071.21 1417.05,1071.21 1419.21,1071.21 1421.37,1071.21 1423.53,1071.21 1425.7,1071.21 1427.86,1071.21 1430.02,1071.21 1432.18,1071.21 1434.34,1071.21 1436.5,1071.21 1438.66,1071.21 1440.82,1071.21 1442.98,1071.21 1445.14,1071.21 1447.3,1071.21 1449.47,1071.21 1451.63,1071.21 1453.79,1071.21 1455.95,1071.21 1458.11,1071.21 1460.27,1071.21 1462.43,1071.21 1464.59,1071.21 1466.75,1071.21 1468.91,1071.21 1471.08,1071.21 1473.24,1071.21 1475.4,1071.21 1477.56,1071.21 1479.72,1071.21 1481.88,1071.21 1484.04,1071.21 1486.2,1071.21 1488.36,1071.21 1490.52,683.537 1492.69,683.537 1494.85,683.537 1497.01,683.537 1499.17,683.537 1501.33,683.537 1503.49,683.537 1505.65,683.537 1507.81,683.537 1509.97,683.537 1512.13,683.537 1514.3,683.537 1516.46,683.537 1518.62,683.537 1520.78,683.537 1522.94,683.537 1525.1,683.537 1527.26,683.537 1529.42,683.537 1531.58,683.537 1533.74,683.537 1535.91,683.537 1538.07,683.537 1540.23,683.537 1542.39,683.537 1544.55,683.537 1546.71,683.537 1548.87,683.537 1551.03,683.537 1553.19,683.537 1555.35,683.537 1557.51,683.537 1559.68,683.537 1561.84,683.537 1564,683.537 1566.16,683.537 1568.32,683.537 1570.48,683.537 1572.64,683.537 1574.8,683.537 1576.96,683.537 1579.12,683.537 1581.29,683.537 1583.45,683.537 1585.61,683.537 1587.77,683.537 1589.93,683.537 1592.09,683.537 1594.25,683.537 1596.41,683.537 1598.57,683.537 1600.73,683.537 1602.9,683.537 1605.06,683.537 1607.22,683.537 1609.38,683.537 1611.54,683.537 1613.7,683.537 1615.86,683.537 1618.02,683.537 1620.18,683.537 1622.34,683.537 1624.51,683.537 1626.67,683.537 1628.83,683.537 1630.99,683.537 1633.15,683.537 1635.31,683.537 1637.47,683.537 1639.63,683.537 1641.79,683.537 1643.95,683.537 1646.12,683.537 1648.28,683.537 1650.44,683.537 1652.6,683.537 1654.76,683.537 1656.92,683.537 1659.08,683.537 1661.24,683.537 1663.4,683.537 1665.56,683.537 1667.72,683.537 1669.89,683.537 1672.05,683.537 1674.21,683.537 1676.37,683.537 1678.53,683.537 1680.69,683.537 1682.85,683.537 1685.01,683.537 1687.17,683.537 1689.33,683.537 1691.5,683.537 1693.66,683.537 1695.82,683.537 1697.98,683.537 1700.14,683.537 1702.3,683.537 1704.46,683.537 1706.62,880.243 1708.78,880.243 1710.94,880.243 1713.11,880.243 1715.27,880.243 1717.43,880.243 1719.59,880.243 1721.75,880.243 1723.91,880.243 1726.07,880.243 1728.23,880.243 1730.39,880.243 1732.55,880.243 1734.72,880.243 1736.88,880.243 1739.04,880.243 1741.2,880.243 1743.36,880.243 1745.52,880.243 1747.68,880.243 1749.84,880.243 1752,880.243 1754.16,880.243 1756.33,880.243 1758.49,880.243 1760.65,880.243 1762.81,880.243 1764.97,880.243 1767.13,880.243 1769.29,880.243 1771.45,880.243 1773.61,880.243 1775.77,880.243 1777.93,880.243 1780.1,880.243 1782.26,880.243 1784.42,880.243 1786.58,880.243 1788.74,880.243 1790.9,880.243 1793.06,880.243 1795.22,880.243 1797.38,880.243 1799.54,880.243 1801.71,880.243 1803.87,880.243 1806.03,880.243 1808.19,880.243 1810.35,880.243 1812.51,880.243 1814.67,880.243 1816.83,880.243 1818.99,880.243 1821.15,880.243 1823.32,880.243 1825.48,880.243 1827.64,880.243 1829.8,880.243 1831.96,880.243 1834.12,880.243 1836.28,880.243 1838.44,880.243 1840.6,880.243 1842.76,880.243 1844.93,880.243 1847.09,880.243 1849.25,880.243 1851.41,880.243 1853.57,880.243 1855.73,880.243 1857.89,880.243 1860.05,880.243 1862.21,880.243 1864.37,880.243 1866.54,880.243 1868.7,880.243 1870.86,880.243 1873.02,880.243 1875.18,880.243 1877.34,880.243 1879.5,880.243 1881.66,880.243 1883.82,880.243 1885.98,880.243 1888.15,880.243 1890.31,880.243 1892.47,880.243 1894.63,880.243 1896.79,880.243 1898.95,880.243 1901.11,880.243 1903.27,880.243 1905.43,880.243 1907.59,880.243 1909.75,880.243 1911.92,880.243 1914.08,880.243 1916.24,880.243 1918.4,880.243 1920.56,880.243 1922.72,1384.24 1924.88,1384.24 1927.04,1384.24 1929.2,1384.24 1931.36,1384.24 1933.53,1384.24 1935.69,1384.24 1937.85,1384.24 1940.01,1384.24 1942.17,1384.24 1944.33,1384.24 1946.49,1384.24 1948.65,1384.24 1950.81,1384.24 1952.97,1384.24 1955.14,1384.24 1957.3,1384.24 1959.46,1384.24 1961.62,1384.24 1963.78,1384.24 1965.94,1384.24 1968.1,1384.24 1970.26,1384.24 1972.42,1384.24 1974.58,1384.24 1976.75,1384.24 1978.91,1384.24 1981.07,1384.24 1983.23,1384.24 1985.39,1384.24 1987.55,1384.24 1989.71,1384.24 1991.87,1384.24 1994.03,1384.24 1996.19,1384.24 1998.36,1384.24 2000.52,1384.24 2002.68,1384.24 2004.84,1384.24 2007,1384.24 2009.16,1384.24 2011.32,1384.24 2013.48,1384.24 2015.64,1384.24 2017.8,1384.24 2019.96,1384.24 2022.13,1384.24 2024.29,1384.24 2026.45,1384.24 2028.61,1384.24 2030.77,1384.24 2032.93,1384.24 2035.09,1384.24 2037.25,1384.24 2039.41,1384.24 2041.57,1384.24 2043.74,1384.24 2045.9,1384.24 2048.06,1384.24 2050.22,1384.24 2052.38,1384.24 2054.54,1384.24 2056.7,1384.24 2058.86,1384.24 2061.02,1384.24 2063.18,1384.24 2065.35,1384.24 2067.51,1384.24 2069.67,1384.24 2071.83,1384.24 2073.99,1384.24 2076.15,1384.24 2078.31,1384.24 2080.47,1384.24 2082.63,1384.24 2084.79,1384.24 2086.96,1384.24 2089.12,1384.24 2091.28,1384.24 2093.44,1384.24 2095.6,1384.24 2097.76,1384.24 2099.92,1384.24 2102.08,1384.24 2104.24,1384.24 2106.4,1384.24 2108.57,1384.24 2110.73,1384.24 2112.89,1384.24 2115.05,1384.24 2117.21,1384.24 2119.37,1384.24 2121.53,1384.24 2123.69,1384.24 2125.85,1384.24 2128.01,1384.24 2130.17,1384.24 2132.34,1384.24 2134.5,1384.24 2136.66,1384.24 2138.82,302.902 2140.98,302.902 2143.14,302.902 2145.3,302.902 2147.46,302.902 2149.62,302.902 2151.78,302.902 2153.95,302.902 2156.11,302.902 2158.27,302.902 2160.43,302.902 2162.59,302.902 2164.75,302.902 2166.91,302.902 2169.07,302.902 2171.23,302.902 2173.39,302.902 2175.56,302.902 2177.72,302.902 2179.88,302.902 2182.04,302.902 2184.2,302.902 2186.36,302.902 2188.52,302.902 2190.68,302.902 2192.84,302.902 2195,302.902 2197.17,302.902 2199.33,302.902 2201.49,302.902 2203.65,302.902 2205.81,302.902 2207.97,302.902 2210.13,302.902 2212.29,302.902 2214.45,302.902 2216.61,302.902 2218.78,302.902 2220.94,302.902 2223.1,302.902 2225.26,302.902 2227.42,302.902 2229.58,302.902 2231.74,302.902 2233.9,302.902 2236.06,302.902 2238.22,302.902 2240.38,302.902 2242.55,302.902 2244.71,302.902 2246.87,302.902 2249.03,302.902 2251.19,302.902 2253.35,302.902 2255.51,302.902 2257.67,302.902 2259.83,302.902 2261.99,302.902 2264.16,302.902 2266.32,302.902 2268.48,302.902 2270.64,302.902 2272.8,302.902 2274.96,302.902 2277.12,302.902 2279.28,302.902 2281.44,302.902 2283.6,302.902 2285.77,302.902 2287.93,302.902 2290.09,302.902 2292.25,302.902 2294.41,302.902 2296.57,302.902 2298.73,302.902 2300.89,302.902 2303.05,302.902 2305.21,302.902 2307.38,302.902 2309.54,302.902 2311.7,302.902 2313.86,302.902 2316.02,302.902 2318.18,302.902 2320.34,302.902 2322.5,302.902 2324.66,302.902 2326.82,302.902 2328.99,302.902 2331.15,302.902 2333.31,302.902 2335.47,302.902 2337.63,302.902 2339.79,302.902 2341.95,302.902 2344.11,302.902 2346.27,302.902 2348.43,302.902 2350.59,302.902 2352.76,302.902 "/>
<path clip-path="url(#clip420)" d="M265.897 248.629 L506.917 248.629 L506.917 93.1086 L265.897 93.1086  Z" fill="#ffffff" fill-rule="evenodd" fill-opacity="1"/>
<polyline clip-path="url(#clip420)" style="stroke:#000000; stroke-linecap:round; stroke-linejoin:round; stroke-width:4; stroke-opacity:1; fill:none" points="265.897,248.629 506.917,248.629 506.917,93.1086 265.897,93.1086 265.897,248.629 "/>
<polyline clip-path="url(#clip420)" style="stroke:#009af9; stroke-linecap:round; stroke-linejoin:round; stroke-width:4; stroke-opacity:1; fill:none" points="289.884,144.949 433.805,144.949 "/>
<path clip-path="url(#clip420)" d="M482.444 136.303 L473.069 148.919 L482.931 162.229 L477.907 162.229 L470.361 152.043 L462.815 162.229 L457.792 162.229 L467.861 148.664 L458.648 136.303 L463.671 136.303 L470.546 145.539 L477.421 136.303 L482.444 136.303 Z" fill="#000000" fill-rule="nonzero" fill-opacity="1" /><polyline clip-path="url(#clip420)" style="stroke:#e26f46; stroke-linecap:round; stroke-linejoin:round; stroke-width:4; stroke-opacity:1; fill:none" points="289.884,196.789 433.805,196.789 "/>
<path clip-path="url(#clip420)" d="M474.296 178.05 L474.296 181.592 L470.222 181.592 Q467.931 181.592 467.028 182.518 Q466.148 183.444 466.148 185.851 L466.148 188.143 L473.162 188.143 L473.162 191.453 L466.148 191.453 L466.148 214.069 L461.866 214.069 L461.866 191.453 L457.792 191.453 L457.792 188.143 L461.866 188.143 L461.866 186.337 Q461.866 182.009 463.88 180.041 Q465.894 178.05 470.269 178.05 L474.296 178.05 Z" fill="#000000" fill-rule="nonzero" fill-opacity="1" /></svg>
