<?xml version="1.0" encoding="utf-8"?>
<svg xmlns="http://www.w3.org/2000/svg" xmlns:xlink="http://www.w3.org/1999/xlink" width="600" height="400" viewBox="0 0 2400 1600">
<defs>
  <clipPath id="clip990">
    <rect x="0" y="0" width="2400" height="1600"/>
  </clipPath>
</defs>
<path clip-path="url(#clip990)" d="M0 1600 L2400 1600 L2400 0 L0 0  Z" fill="#ffffff" fill-rule="evenodd" fill-opacity="1"/>
<defs>
  <clipPath id="clip991">
    <rect x="480" y="0" width="1681" height="1600"/>
  </clipPath>
</defs>
<path clip-path="url(#clip990)" d="M193.936 1423.18 L2352.76 1423.18 L2352.76 47.2441 L193.936 47.2441  Z" fill="#ffffff" fill-rule="evenodd" fill-opacity="1"/>
<defs>
  <clipPath id="clip992">
    <rect x="193" y="47" width="2160" height="1377"/>
  </clipPath>
</defs>
<polyline clip-path="url(#clip992)" style="stroke:#000000; stroke-linecap:round; stroke-linejoin:round; stroke-width:2; stroke-opacity:0.1; fill:none" points="193.936,1423.18 193.936,47.2441 "/>
<polyline clip-path="url(#clip992)" style="stroke:#000000; stroke-linecap:round; stroke-linejoin:round; stroke-width:2; stroke-opacity:0.1; fill:none" points="625.7,1423.18 625.7,47.2441 "/>
<polyline clip-path="url(#clip992)" style="stroke:#000000; stroke-linecap:round; stroke-linejoin:round; stroke-width:2; stroke-opacity:0.1; fill:none" points="1057.46,1423.18 1057.46,47.2441 "/>
<polyline clip-path="url(#clip992)" style="stroke:#000000; stroke-linecap:round; stroke-linejoin:round; stroke-width:2; stroke-opacity:0.1; fill:none" points="1489.23,1423.18 1489.23,47.2441 "/>
<polyline clip-path="url(#clip992)" style="stroke:#000000; stroke-linecap:round; stroke-linejoin:round; stroke-width:2; stroke-opacity:0.1; fill:none" points="1920.99,1423.18 1920.99,47.2441 "/>
<polyline clip-path="url(#clip992)" style="stroke:#000000; stroke-linecap:round; stroke-linejoin:round; stroke-width:2; stroke-opacity:0.1; fill:none" points="2352.76,1423.18 2352.76,47.2441 "/>
<polyline clip-path="url(#clip992)" style="stroke:#000000; stroke-linecap:round; stroke-linejoin:round; stroke-width:2; stroke-opacity:0.1; fill:none" points="193.936,1294.2 2352.76,1294.2 "/>
<polyline clip-path="url(#clip992)" style="stroke:#000000; stroke-linecap:round; stroke-linejoin:round; stroke-width:2; stroke-opacity:0.1; fill:none" points="193.936,1113.61 2352.76,1113.61 "/>
<polyline clip-path="url(#clip992)" style="stroke:#000000; stroke-linecap:round; stroke-linejoin:round; stroke-width:2; stroke-opacity:0.1; fill:none" points="193.936,933.029 2352.76,933.029 "/>
<polyline clip-path="url(#clip992)" style="stroke:#000000; stroke-linecap:round; stroke-linejoin:round; stroke-width:2; stroke-opacity:0.1; fill:none" points="193.936,752.445 2352.76,752.445 "/>
<polyline clip-path="url(#clip992)" style="stroke:#000000; stroke-linecap:round; stroke-linejoin:round; stroke-width:2; stroke-opacity:0.1; fill:none" points="193.936,571.861 2352.76,571.861 "/>
<polyline clip-path="url(#clip992)" style="stroke:#000000; stroke-linecap:round; stroke-linejoin:round; stroke-width:2; stroke-opacity:0.1; fill:none" points="193.936,391.277 2352.76,391.277 "/>
<polyline clip-path="url(#clip992)" style="stroke:#000000; stroke-linecap:round; stroke-linejoin:round; stroke-width:2; stroke-opacity:0.1; fill:none" points="193.936,210.694 2352.76,210.694 "/>
<polyline clip-path="url(#clip990)" style="stroke:#000000; stroke-linecap:round; stroke-linejoin:round; stroke-width:4; stroke-opacity:1; fill:none" points="193.936,1423.18 2352.76,1423.18 "/>
<polyline clip-path="url(#clip990)" style="stroke:#000000; stroke-linecap:round; stroke-linejoin:round; stroke-width:4; stroke-opacity:1; fill:none" points="193.936,1423.18 193.936,1404.28 "/>
<polyline clip-path="url(#clip990)" style="stroke:#000000; stroke-linecap:round; stroke-linejoin:round; stroke-width:4; stroke-opacity:1; fill:none" points="625.7,1423.18 625.7,1404.28 "/>
<polyline clip-path="url(#clip990)" style="stroke:#000000; stroke-linecap:round; stroke-linejoin:round; stroke-width:4; stroke-opacity:1; fill:none" points="1057.46,1423.18 1057.46,1404.28 "/>
<polyline clip-path="url(#clip990)" style="stroke:#000000; stroke-linecap:round; stroke-linejoin:round; stroke-width:4; stroke-opacity:1; fill:none" points="1489.23,1423.18 1489.23,1404.28 "/>
<polyline clip-path="url(#clip990)" style="stroke:#000000; stroke-linecap:round; stroke-linejoin:round; stroke-width:4; stroke-opacity:1; fill:none" points="1920.99,1423.18 1920.99,1404.28 "/>
<polyline clip-path="url(#clip990)" style="stroke:#000000; stroke-linecap:round; stroke-linejoin:round; stroke-width:4; stroke-opacity:1; fill:none" points="2352.76,1423.18 2352.76,1404.28 "/>
<path clip-path="url(#clip990)" d="M193.936 1454.1 Q190.325 1454.1 188.496 1457.66 Q186.691 1461.2 186.691 1468.33 Q186.691 1475.44 188.496 1479.01 Q190.325 1482.55 193.936 1482.55 Q197.57 1482.55 199.376 1479.01 Q201.204 1475.44 201.204 1468.33 Q201.204 1461.2 199.376 1457.66 Q197.57 1454.1 193.936 1454.1 M193.936 1450.39 Q199.746 1450.39 202.802 1455 Q205.88 1459.58 205.88 1468.33 Q205.88 1477.06 202.802 1481.67 Q199.746 1486.25 193.936 1486.25 Q188.126 1486.25 185.047 1481.67 Q181.992 1477.06 181.992 1468.33 Q181.992 1459.58 185.047 1455 Q188.126 1450.39 193.936 1450.39 Z" fill="#000000" fill-rule="nonzero" fill-opacity="1" /><path clip-path="url(#clip990)" d="M620.353 1481.64 L636.672 1481.64 L636.672 1485.58 L614.728 1485.58 L614.728 1481.64 Q617.39 1478.89 621.973 1474.26 Q626.58 1469.61 627.76 1468.27 Q630.006 1465.74 630.885 1464.01 Q631.788 1462.25 631.788 1460.56 Q631.788 1457.8 629.843 1456.07 Q627.922 1454.33 624.82 1454.33 Q622.621 1454.33 620.168 1455.09 Q617.737 1455.86 614.959 1457.41 L614.959 1452.69 Q617.783 1451.55 620.237 1450.97 Q622.691 1450.39 624.728 1450.39 Q630.098 1450.39 633.293 1453.08 Q636.487 1455.77 636.487 1460.26 Q636.487 1462.39 635.677 1464.31 Q634.89 1466.2 632.783 1468.8 Q632.205 1469.47 629.103 1472.69 Q626.001 1475.88 620.353 1481.64 Z" fill="#000000" fill-rule="nonzero" fill-opacity="1" /><path clip-path="url(#clip990)" d="M1060.47 1455.09 L1048.67 1473.54 L1060.47 1473.54 L1060.47 1455.09 M1059.25 1451.02 L1065.13 1451.02 L1065.13 1473.54 L1070.06 1473.54 L1070.06 1477.43 L1065.13 1477.43 L1065.13 1485.58 L1060.47 1485.58 L1060.47 1477.43 L1044.87 1477.43 L1044.87 1472.92 L1059.25 1451.02 Z" fill="#000000" fill-rule="nonzero" fill-opacity="1" /><path clip-path="url(#clip990)" d="M1489.63 1466.44 Q1486.48 1466.44 1484.63 1468.59 Q1482.8 1470.74 1482.8 1474.49 Q1482.8 1478.22 1484.63 1480.39 Q1486.48 1482.55 1489.63 1482.55 Q1492.78 1482.55 1494.61 1480.39 Q1496.46 1478.22 1496.46 1474.49 Q1496.46 1470.74 1494.61 1468.59 Q1492.78 1466.44 1489.63 1466.44 M1498.92 1451.78 L1498.92 1456.04 Q1497.16 1455.21 1495.35 1454.77 Q1493.57 1454.33 1491.81 1454.33 Q1487.18 1454.33 1484.73 1457.45 Q1482.3 1460.58 1481.95 1466.9 Q1483.31 1464.89 1485.37 1463.82 Q1487.43 1462.73 1489.91 1462.73 Q1495.12 1462.73 1498.13 1465.9 Q1501.16 1469.05 1501.16 1474.49 Q1501.16 1479.82 1498.01 1483.03 Q1494.86 1486.25 1489.63 1486.25 Q1483.64 1486.25 1480.47 1481.67 Q1477.3 1477.06 1477.3 1468.33 Q1477.3 1460.14 1481.18 1455.28 Q1485.07 1450.39 1491.62 1450.39 Q1493.38 1450.39 1495.17 1450.74 Q1496.97 1451.09 1498.92 1451.78 Z" fill="#000000" fill-rule="nonzero" fill-opacity="1" /><path clip-path="url(#clip990)" d="M1920.99 1469.17 Q1917.66 1469.17 1915.74 1470.95 Q1913.84 1472.73 1913.84 1475.86 Q1913.84 1478.98 1915.74 1480.77 Q1917.66 1482.55 1920.99 1482.55 Q1924.33 1482.55 1926.25 1480.77 Q1928.17 1478.96 1928.17 1475.86 Q1928.17 1472.73 1926.25 1470.95 Q1924.35 1469.17 1920.99 1469.17 M1916.32 1467.18 Q1913.31 1466.44 1911.62 1464.38 Q1909.95 1462.32 1909.95 1459.35 Q1909.95 1455.21 1912.89 1452.8 Q1915.85 1450.39 1920.99 1450.39 Q1926.15 1450.39 1929.09 1452.8 Q1932.03 1455.21 1932.03 1459.35 Q1932.03 1462.32 1930.34 1464.38 Q1928.68 1466.44 1925.69 1467.18 Q1929.07 1467.96 1930.95 1470.26 Q1932.84 1472.55 1932.84 1475.86 Q1932.84 1480.88 1929.77 1483.57 Q1926.71 1486.25 1920.99 1486.25 Q1915.27 1486.25 1912.2 1483.57 Q1909.14 1480.88 1909.14 1475.86 Q1909.14 1472.55 1911.04 1470.26 Q1912.94 1467.96 1916.32 1467.18 M1914.6 1459.79 Q1914.6 1462.48 1916.27 1463.98 Q1917.96 1465.49 1920.99 1465.49 Q1924 1465.49 1925.69 1463.98 Q1927.4 1462.48 1927.4 1459.79 Q1927.4 1457.11 1925.69 1455.6 Q1924 1454.1 1920.99 1454.1 Q1917.96 1454.1 1916.27 1455.6 Q1914.6 1457.11 1914.6 1459.79 Z" fill="#000000" fill-rule="nonzero" fill-opacity="1" /><path clip-path="url(#clip990)" d="M2327.44 1481.64 L2335.08 1481.64 L2335.08 1455.28 L2326.77 1456.95 L2326.77 1452.69 L2335.04 1451.02 L2339.71 1451.02 L2339.71 1481.64 L2347.35 1481.64 L2347.35 1485.58 L2327.44 1485.58 L2327.44 1481.64 Z" fill="#000000" fill-rule="nonzero" fill-opacity="1" /><path clip-path="url(#clip990)" d="M2366.8 1454.1 Q2363.18 1454.1 2361.36 1457.66 Q2359.55 1461.2 2359.55 1468.33 Q2359.55 1475.44 2361.36 1479.01 Q2363.18 1482.55 2366.8 1482.55 Q2370.43 1482.55 2372.23 1479.01 Q2374.06 1475.44 2374.06 1468.33 Q2374.06 1461.2 2372.23 1457.66 Q2370.43 1454.1 2366.8 1454.1 M2366.8 1450.39 Q2372.61 1450.39 2375.66 1455 Q2378.74 1459.58 2378.74 1468.33 Q2378.74 1477.06 2375.66 1481.67 Q2372.61 1486.25 2366.8 1486.25 Q2360.99 1486.25 2357.91 1481.67 Q2354.85 1477.06 2354.85 1468.33 Q2354.85 1459.58 2357.91 1455 Q2360.99 1450.39 2366.8 1450.39 Z" fill="#000000" fill-rule="nonzero" fill-opacity="1" /><path clip-path="url(#clip990)" d="M1272.41 1522.27 L1272.41 1532.4 L1284.47 1532.4 L1284.47 1536.95 L1272.41 1536.95 L1272.41 1556.3 Q1272.41 1560.66 1273.58 1561.9 Q1274.79 1563.14 1278.45 1563.14 L1284.47 1563.14 L1284.47 1568.04 L1278.45 1568.04 Q1271.67 1568.04 1269.1 1565.53 Q1266.52 1562.98 1266.52 1556.3 L1266.52 1536.95 L1262.22 1536.95 L1262.22 1532.4 L1266.52 1532.4 L1266.52 1522.27 L1272.41 1522.27 Z" fill="#000000" fill-rule="nonzero" fill-opacity="1" /><polyline clip-path="url(#clip990)" style="stroke:#000000; stroke-linecap:round; stroke-linejoin:round; stroke-width:4; stroke-opacity:1; fill:none" points="193.936,1423.18 193.936,47.2441 "/>
<polyline clip-path="url(#clip990)" style="stroke:#000000; stroke-linecap:round; stroke-linejoin:round; stroke-width:4; stroke-opacity:1; fill:none" points="193.936,1294.2 212.834,1294.2 "/>
<polyline clip-path="url(#clip990)" style="stroke:#000000; stroke-linecap:round; stroke-linejoin:round; stroke-width:4; stroke-opacity:1; fill:none" points="193.936,1113.61 212.834,1113.61 "/>
<polyline clip-path="url(#clip990)" style="stroke:#000000; stroke-linecap:round; stroke-linejoin:round; stroke-width:4; stroke-opacity:1; fill:none" points="193.936,933.029 212.834,933.029 "/>
<polyline clip-path="url(#clip990)" style="stroke:#000000; stroke-linecap:round; stroke-linejoin:round; stroke-width:4; stroke-opacity:1; fill:none" points="193.936,752.445 212.834,752.445 "/>
<polyline clip-path="url(#clip990)" style="stroke:#000000; stroke-linecap:round; stroke-linejoin:round; stroke-width:4; stroke-opacity:1; fill:none" points="193.936,571.861 212.834,571.861 "/>
<polyline clip-path="url(#clip990)" style="stroke:#000000; stroke-linecap:round; stroke-linejoin:round; stroke-width:4; stroke-opacity:1; fill:none" points="193.936,391.277 212.834,391.277 "/>
<polyline clip-path="url(#clip990)" style="stroke:#000000; stroke-linecap:round; stroke-linejoin:round; stroke-width:4; stroke-opacity:1; fill:none" points="193.936,210.694 212.834,210.694 "/>
<path clip-path="url(#clip990)" d="M51.9875 1294.65 L81.6633 1294.65 L81.6633 1298.58 L51.9875 1298.58 L51.9875 1294.65 Z" fill="#000000" fill-rule="nonzero" fill-opacity="1" /><path clip-path="url(#clip990)" d="M92.566 1307.54 L100.205 1307.54 L100.205 1281.18 L91.8947 1282.84 L91.8947 1278.58 L100.159 1276.92 L104.834 1276.92 L104.834 1307.54 L112.473 1307.54 L112.473 1311.48 L92.566 1311.48 L92.566 1307.54 Z" fill="#000000" fill-rule="nonzero" fill-opacity="1" /><path clip-path="url(#clip990)" d="M121.918 1305.6 L126.802 1305.6 L126.802 1311.48 L121.918 1311.48 L121.918 1305.6 Z" fill="#000000" fill-rule="nonzero" fill-opacity="1" /><path clip-path="url(#clip990)" d="M137.033 1276.92 L155.39 1276.92 L155.39 1280.85 L141.316 1280.85 L141.316 1289.32 Q142.334 1288.98 143.353 1288.81 Q144.371 1288.63 145.39 1288.63 Q151.177 1288.63 154.556 1291.8 Q157.936 1294.97 157.936 1300.39 Q157.936 1305.97 154.464 1309.07 Q150.992 1312.15 144.672 1312.15 Q142.496 1312.15 140.228 1311.78 Q137.982 1311.41 135.575 1310.67 L135.575 1305.97 Q137.658 1307.1 139.881 1307.66 Q142.103 1308.21 144.58 1308.21 Q148.584 1308.21 150.922 1306.11 Q153.26 1304 153.26 1300.39 Q153.26 1296.78 150.922 1294.67 Q148.584 1292.56 144.58 1292.56 Q142.705 1292.56 140.83 1292.98 Q138.978 1293.4 137.033 1294.28 L137.033 1276.92 Z" fill="#000000" fill-rule="nonzero" fill-opacity="1" /><path clip-path="url(#clip990)" d="M50.9921 1114.06 L80.6679 1114.06 L80.6679 1118 L50.9921 1118 L50.9921 1114.06 Z" fill="#000000" fill-rule="nonzero" fill-opacity="1" /><path clip-path="url(#clip990)" d="M91.5706 1126.96 L99.2095 1126.96 L99.2095 1100.59 L90.8993 1102.26 L90.8993 1098 L99.1632 1096.33 L103.839 1096.33 L103.839 1126.96 L111.478 1126.96 L111.478 1130.89 L91.5706 1130.89 L91.5706 1126.96 Z" fill="#000000" fill-rule="nonzero" fill-opacity="1" /><path clip-path="url(#clip990)" d="M120.922 1125.01 L125.807 1125.01 L125.807 1130.89 L120.922 1130.89 L120.922 1125.01 Z" fill="#000000" fill-rule="nonzero" fill-opacity="1" /><path clip-path="url(#clip990)" d="M145.992 1099.41 Q142.381 1099.41 140.552 1102.98 Q138.746 1106.52 138.746 1113.65 Q138.746 1120.75 140.552 1124.32 Q142.381 1127.86 145.992 1127.86 Q149.626 1127.86 151.431 1124.32 Q153.26 1120.75 153.26 1113.65 Q153.26 1106.52 151.431 1102.98 Q149.626 1099.41 145.992 1099.41 M145.992 1095.71 Q151.802 1095.71 154.857 1100.31 Q157.936 1104.9 157.936 1113.65 Q157.936 1122.37 154.857 1126.98 Q151.802 1131.56 145.992 1131.56 Q140.181 1131.56 137.103 1126.98 Q134.047 1122.37 134.047 1113.65 Q134.047 1104.9 137.103 1100.31 Q140.181 1095.71 145.992 1095.71 Z" fill="#000000" fill-rule="nonzero" fill-opacity="1" /><path clip-path="url(#clip990)" d="M51.9875 933.48 L81.6633 933.48 L81.6633 937.415 L51.9875 937.415 L51.9875 933.48 Z" fill="#000000" fill-rule="nonzero" fill-opacity="1" /><path clip-path="url(#clip990)" d="M101.756 918.827 Q98.1447 918.827 96.316 922.392 Q94.5104 925.934 94.5104 933.063 Q94.5104 940.17 96.316 943.734 Q98.1447 947.276 101.756 947.276 Q105.39 947.276 107.196 943.734 Q109.024 940.17 109.024 933.063 Q109.024 925.934 107.196 922.392 Q105.39 918.827 101.756 918.827 M101.756 915.124 Q107.566 915.124 110.621 919.73 Q113.7 924.313 113.7 933.063 Q113.7 941.79 110.621 946.396 Q107.566 950.98 101.756 950.98 Q95.9456 950.98 92.8669 946.396 Q89.8114 941.79 89.8114 933.063 Q89.8114 924.313 92.8669 919.73 Q95.9456 915.124 101.756 915.124 Z" fill="#000000" fill-rule="nonzero" fill-opacity="1" /><path clip-path="url(#clip990)" d="M121.918 944.429 L126.802 944.429 L126.802 950.309 L121.918 950.309 L121.918 944.429 Z" fill="#000000" fill-rule="nonzero" fill-opacity="1" /><path clip-path="url(#clip990)" d="M137.033 915.749 L155.39 915.749 L155.39 919.684 L141.316 919.684 L141.316 928.156 Q142.334 927.809 143.353 927.647 Q144.371 927.461 145.39 927.461 Q151.177 927.461 154.556 930.633 Q157.936 933.804 157.936 939.221 Q157.936 944.799 154.464 947.901 Q150.992 950.98 144.672 950.98 Q142.496 950.98 140.228 950.609 Q137.982 950.239 135.575 949.498 L135.575 944.799 Q137.658 945.934 139.881 946.489 Q142.103 947.045 144.58 947.045 Q148.584 947.045 150.922 944.938 Q153.26 942.832 153.26 939.221 Q153.26 935.61 150.922 933.503 Q148.584 931.397 144.58 931.397 Q142.705 931.397 140.83 931.813 Q138.978 932.23 137.033 933.11 L137.033 915.749 Z" fill="#000000" fill-rule="nonzero" fill-opacity="1" /><path clip-path="url(#clip990)" d="M100.76 738.243 Q97.1493 738.243 95.3206 741.808 Q93.515 745.35 93.515 752.48 Q93.515 759.586 95.3206 763.151 Q97.1493 766.692 100.76 766.692 Q104.395 766.692 106.2 763.151 Q108.029 759.586 108.029 752.48 Q108.029 745.35 106.2 741.808 Q104.395 738.243 100.76 738.243 M100.76 734.54 Q106.571 734.54 109.626 739.146 Q112.705 743.73 112.705 752.48 Q112.705 761.206 109.626 765.813 Q106.571 770.396 100.76 770.396 Q94.9502 770.396 91.8715 765.813 Q88.816 761.206 88.816 752.48 Q88.816 743.73 91.8715 739.146 Q94.9502 734.54 100.76 734.54 Z" fill="#000000" fill-rule="nonzero" fill-opacity="1" /><path clip-path="url(#clip990)" d="M120.922 763.845 L125.807 763.845 L125.807 769.725 L120.922 769.725 L120.922 763.845 Z" fill="#000000" fill-rule="nonzero" fill-opacity="1" /><path clip-path="url(#clip990)" d="M145.992 738.243 Q142.381 738.243 140.552 741.808 Q138.746 745.35 138.746 752.48 Q138.746 759.586 140.552 763.151 Q142.381 766.692 145.992 766.692 Q149.626 766.692 151.431 763.151 Q153.26 759.586 153.26 752.48 Q153.26 745.35 151.431 741.808 Q149.626 738.243 145.992 738.243 M145.992 734.54 Q151.802 734.54 154.857 739.146 Q157.936 743.73 157.936 752.48 Q157.936 761.206 154.857 765.813 Q151.802 770.396 145.992 770.396 Q140.181 770.396 137.103 765.813 Q134.047 761.206 134.047 752.48 Q134.047 743.73 137.103 739.146 Q140.181 734.54 145.992 734.54 Z" fill="#000000" fill-rule="nonzero" fill-opacity="1" /><path clip-path="url(#clip990)" d="M101.756 557.66 Q98.1447 557.66 96.316 561.225 Q94.5104 564.766 94.5104 571.896 Q94.5104 579.002 96.316 582.567 Q98.1447 586.109 101.756 586.109 Q105.39 586.109 107.196 582.567 Q109.024 579.002 109.024 571.896 Q109.024 564.766 107.196 561.225 Q105.39 557.66 101.756 557.66 M101.756 553.956 Q107.566 553.956 110.621 558.563 Q113.7 563.146 113.7 571.896 Q113.7 580.623 110.621 585.229 Q107.566 589.812 101.756 589.812 Q95.9456 589.812 92.8669 585.229 Q89.8114 580.623 89.8114 571.896 Q89.8114 563.146 92.8669 558.563 Q95.9456 553.956 101.756 553.956 Z" fill="#000000" fill-rule="nonzero" fill-opacity="1" /><path clip-path="url(#clip990)" d="M121.918 583.261 L126.802 583.261 L126.802 589.141 L121.918 589.141 L121.918 583.261 Z" fill="#000000" fill-rule="nonzero" fill-opacity="1" /><path clip-path="url(#clip990)" d="M137.033 554.581 L155.39 554.581 L155.39 558.516 L141.316 558.516 L141.316 566.988 Q142.334 566.641 143.353 566.479 Q144.371 566.294 145.39 566.294 Q151.177 566.294 154.556 569.465 Q157.936 572.637 157.936 578.053 Q157.936 583.632 154.464 586.734 Q150.992 589.812 144.672 589.812 Q142.496 589.812 140.228 589.442 Q137.982 589.072 135.575 588.331 L135.575 583.632 Q137.658 584.766 139.881 585.322 Q142.103 585.877 144.58 585.877 Q148.584 585.877 150.922 583.771 Q153.26 581.664 153.26 578.053 Q153.26 574.442 150.922 572.336 Q148.584 570.229 144.58 570.229 Q142.705 570.229 140.83 570.646 Q138.978 571.062 137.033 571.942 L137.033 554.581 Z" fill="#000000" fill-rule="nonzero" fill-opacity="1" /><path clip-path="url(#clip990)" d="M91.5706 404.622 L99.2095 404.622 L99.2095 378.257 L90.8993 379.923 L90.8993 375.664 L99.1632 373.997 L103.839 373.997 L103.839 404.622 L111.478 404.622 L111.478 408.557 L91.5706 408.557 L91.5706 404.622 Z" fill="#000000" fill-rule="nonzero" fill-opacity="1" /><path clip-path="url(#clip990)" d="M120.922 402.678 L125.807 402.678 L125.807 408.557 L120.922 408.557 L120.922 402.678 Z" fill="#000000" fill-rule="nonzero" fill-opacity="1" /><path clip-path="url(#clip990)" d="M145.992 377.076 Q142.381 377.076 140.552 380.641 Q138.746 384.182 138.746 391.312 Q138.746 398.418 140.552 401.983 Q142.381 405.525 145.992 405.525 Q149.626 405.525 151.431 401.983 Q153.26 398.418 153.26 391.312 Q153.26 384.182 151.431 380.641 Q149.626 377.076 145.992 377.076 M145.992 373.372 Q151.802 373.372 154.857 377.979 Q157.936 382.562 157.936 391.312 Q157.936 400.039 154.857 404.645 Q151.802 409.229 145.992 409.229 Q140.181 409.229 137.103 404.645 Q134.047 400.039 134.047 391.312 Q134.047 382.562 137.103 377.979 Q140.181 373.372 145.992 373.372 Z" fill="#000000" fill-rule="nonzero" fill-opacity="1" /><path clip-path="url(#clip990)" d="M92.566 224.038 L100.205 224.038 L100.205 197.673 L91.8947 199.339 L91.8947 195.08 L100.159 193.414 L104.834 193.414 L104.834 224.038 L112.473 224.038 L112.473 227.974 L92.566 227.974 L92.566 224.038 Z" fill="#000000" fill-rule="nonzero" fill-opacity="1" /><path clip-path="url(#clip990)" d="M121.918 222.094 L126.802 222.094 L126.802 227.974 L121.918 227.974 L121.918 222.094 Z" fill="#000000" fill-rule="nonzero" fill-opacity="1" /><path clip-path="url(#clip990)" d="M137.033 193.414 L155.39 193.414 L155.39 197.349 L141.316 197.349 L141.316 205.821 Q142.334 205.474 143.353 205.312 Q144.371 205.126 145.39 205.126 Q151.177 205.126 154.556 208.298 Q157.936 211.469 157.936 216.886 Q157.936 222.464 154.464 225.566 Q150.992 228.645 144.672 228.645 Q142.496 228.645 140.228 228.275 Q137.982 227.904 135.575 227.163 L135.575 222.464 Q137.658 223.599 139.881 224.154 Q142.103 224.71 144.58 224.71 Q148.584 224.71 150.922 222.603 Q153.26 220.497 153.26 216.886 Q153.26 213.275 150.922 211.168 Q148.584 209.062 144.58 209.062 Q142.705 209.062 140.83 209.478 Q138.978 209.895 137.033 210.775 L137.033 193.414 Z" fill="#000000" fill-rule="nonzero" fill-opacity="1" /><polyline clip-path="url(#clip992)" style="stroke:#009af9; stroke-linecap:round; stroke-linejoin:round; stroke-width:4; stroke-opacity:1; fill:none" points="193.936,752.445 196.097,756.355 198.258,760.213 200.419,764.019 202.58,767.776 204.741,771.482 206.902,775.14 209.063,778.748 211.224,782.31 213.385,785.823 215.546,789.291 217.707,792.712 219.868,796.088 222.029,799.419 224.19,802.706 226.351,805.949 228.512,809.15 230.673,812.308 232.834,815.424 234.995,818.499 237.156,821.533 239.317,824.527 241.478,827.481 243.639,830.396 245.8,833.272 247.961,836.11 250.122,838.911 252.282,841.674 254.443,844.401 256.604,847.092 258.765,849.747 260.926,852.366 263.087,854.951 265.248,857.502 267.409,860.019 269.57,862.503 271.731,864.953 273.892,867.371 276.053,869.757 278.214,872.112 280.375,874.435 282.536,876.728 284.697,878.99 286.858,881.222 289.019,883.424 291.18,885.598 293.341,887.742 295.502,889.858 297.663,891.946 299.824,894.006 301.985,896.039 304.146,898.045 306.307,900.025 308.468,901.978 310.629,903.905 312.79,905.807 314.951,907.683 317.112,909.535 319.273,911.362 321.434,913.165 323.595,914.944 325.756,916.699 327.917,918.431 330.078,920.141 332.239,921.827 334.4,923.491 336.561,925.133 338.722,926.754 340.883,928.352 343.044,929.93 345.205,931.487 347.366,933.023 349.527,934.538 351.688,936.034 353.849,937.51 356.01,938.966 358.171,940.403 360.332,941.821 362.493,943.22 364.653,944.6 366.814,945.962 368.975,947.306 371.136,948.633 373.297,949.941 375.458,951.233 377.619,952.507 379.78,953.764 381.941,955.005 384.102,956.229 386.263,957.437 388.424,958.629 390.585,959.805 392.746,960.966 394.907,962.111 397.068,963.241 399.229,964.356 401.39,965.457 403.551,966.542 405.712,967.614 407.873,968.536 410.034,968.273 412.195,966.749 414.356,964.126 416.517,960.559 418.678,956.191 420.839,951.159 423,945.587 425.161,939.592 427.322,933.28 429.483,926.747 431.644,920.082 433.805,913.362 435.966,906.655 438.127,900.021 440.288,893.508 442.449,887.158 444.61,880.999 446.771,875.053 448.932,869.331 451.093,863.834 453.254,858.556 455.415,853.479 457.576,848.576 459.737,843.811 461.898,839.138 464.059,834.502 466.22,829.837 468.381,825.094 470.542,820.386 472.703,815.741 474.864,811.157 477.024,806.633 479.185,802.17 481.346,797.766 483.507,793.42 485.668,789.132 487.829,784.901 489.99,780.726 492.151,776.606 494.312,772.541 496.473,768.53 498.634,764.572 500.795,760.666 502.956,756.812 505.117,753.009 507.278,749.257 509.439,745.554 511.6,741.9 513.761,738.295 515.922,734.738 518.083,731.227 520.244,727.764 522.405,724.346 524.566,720.974 526.727,717.646 528.888,714.363 531.049,711.123 533.21,707.926 535.371,704.771 537.532,701.658 539.693,698.587 541.854,695.556 544.015,692.566 546.176,689.615 548.337,686.703 550.498,683.83 552.659,680.995 554.82,678.198 556.981,675.438 559.142,672.714 561.303,670.026 563.464,667.374 565.625,664.757 567.786,662.175 569.947,659.627 572.108,657.113 574.269,654.632 576.43,652.184 578.591,649.768 580.752,647.385 582.913,645.033 585.074,642.712 587.235,640.422 589.396,638.162 591.556,635.933 593.717,633.733 595.878,631.562 598.039,629.419 600.2,627.306 602.361,625.22 604.522,623.162 606.683,621.131 608.844,619.127 611.005,617.15 613.166,615.199 615.327,613.274 617.488,611.374 619.649,609.499 621.81,607.65 623.971,605.825 626.132,604.419 628.293,605.569 630.454,609.2 632.615,614.878 634.776,622.202 636.937,630.806 639.098,640.361 641.259,650.571 643.42,661.177 645.581,671.954 647.742,682.713 649.903,693.299 652.064,703.594 654.225,713.514 656.386,723.009 658.547,732.067 660.708,740.71 662.869,748.993 665.03,757.01 667.191,764.887 669.352,772.787 671.513,780.846 673.674,788.846 675.835,796.739 677.996,804.528 680.157,812.214 682.318,819.798 684.479,827.281 686.64,834.665 688.801,841.952 690.962,849.141 693.123,856.236 695.284,863.236 697.445,870.144 699.606,876.96 701.767,883.686 703.927,890.322 706.088,896.871 708.249,903.332 710.41,909.708 712.571,916 714.732,922.208 716.893,928.333 719.054,934.378 721.215,940.342 723.376,946.227 725.537,952.034 727.698,957.764 729.859,963.418 732.02,968.997 734.181,974.503 736.342,979.935 738.503,985.295 740.664,990.584 742.825,995.803 744.986,1000.95 747.147,1006.03 749.308,1011.05 751.469,1016 753.63,1020.88 755.791,1025.7 757.952,1030.45 760.113,1035.14 762.274,1039.77 764.435,1044.33 766.596,1048.84 768.757,1053.29 770.918,1057.68 773.079,1062.01 775.24,1066.28 777.401,1070.49 779.562,1074.65 781.723,1078.76 783.884,1082.81 786.045,1086.8 788.206,1090.75 790.367,1094.64 792.528,1098.48 794.689,1102.27 796.85,1106 799.011,1109.69 801.172,1113.33 803.333,1116.92 805.494,1120.47 807.655,1123.97 809.816,1127.42 811.977,1130.82 814.138,1134.18 816.298,1137.5 818.459,1140.77 820.62,1144 822.781,1147.18 824.942,1150.32 827.103,1153.43 829.264,1156.49 831.425,1158.93 833.586,1160.33 835.747,1160.85 837.908,1160.63 840.069,1159.79 842.23,1158.46 844.391,1156.74 846.552,1154.74 848.713,1152.55 850.874,1150.24 853.035,1147.89 855.196,1145.54 857.357,1143.24 859.518,1141.03 861.679,1138.94 863.84,1136.97 866.001,1135.13 868.162,1133.42 870.323,1131.81 872.484,1130.28 874.645,1128.78 876.806,1127.28 878.967,1125.7 881.128,1124.12 883.289,1122.55 885.45,1121.01 887.611,1119.49 889.772,1117.98 891.933,1116.5 894.094,1115.04 896.255,1113.59 898.416,1112.17 900.577,1110.76 902.738,1109.38 904.899,1108.01 907.06,1106.66 909.221,1105.32 911.382,1104.01 913.543,1102.71 915.704,1101.43 917.865,1100.17 920.026,1098.92 922.187,1097.69 924.348,1096.48 926.509,1095.28 928.669,1094.1 930.83,1092.93 932.991,1091.78 935.152,1090.64 937.313,1089.52 939.474,1088.42 941.635,1087.33 943.796,1086.25 945.957,1085.19 948.118,1084.14 950.279,1083.11 952.44,1082.08 954.601,1081.08 956.762,1080.08 958.923,1079.1 961.084,1078.14 963.245,1077.18 965.406,1076.24 967.567,1075.31 969.728,1074.4 971.889,1073.49 974.05,1072.6 976.211,1071.72 978.372,1070.85 980.533,1069.99 982.694,1069.14 984.855,1068.31 987.016,1067.49 989.177,1066.67 991.338,1065.87 993.499,1065.08 995.66,1064.3 997.821,1063.53 999.982,1062.76 1002.14,1062.01 1004.3,1061.27 1006.46,1060.54 1008.63,1059.82 1010.79,1059.11 1012.95,1058.41 1015.11,1057.71 1017.27,1057.03 1019.43,1056.36 1021.59,1055.69 1023.75,1055.03 1025.91,1054.38 1028.07,1053.75 1030.24,1053.11 1032.4,1052.49 1034.56,1051.88 1036.72,1051.27 1038.88,1050.67 1041.04,1050.08 1043.2,1049.5 1045.36,1048.94 1047.52,1049.21 1049.68,1049.81 1051.85,1049.66 1054.01,1048.06 1056.17,1044.66 1058.33,1039.48 1060.49,1032.87 1062.65,1025.58 1064.81,1018.61 1066.97,1011.92 1069.13,1005.33 1071.29,998.822 1073.46,992.402 1075.62,986.066 1077.78,979.814 1079.94,973.646 1082.1,967.559 1084.26,961.552 1086.42,955.626 1088.58,949.778 1090.74,944.007 1092.9,938.313 1095.07,932.695 1097.23,927.151 1099.39,921.68 1101.55,916.282 1103.71,910.956 1105.87,905.701 1108.03,900.515 1110.19,895.397 1112.35,890.348 1114.51,885.366 1116.67,880.449 1118.84,875.598 1121,870.811 1123.16,866.088 1125.32,861.427 1127.48,856.828 1129.64,852.29 1131.8,847.812 1133.96,843.394 1136.12,839.034 1138.28,834.731 1140.45,830.486 1142.61,826.297 1144.77,822.164 1146.93,818.085 1149.09,814.061 1151.25,810.09 1153.41,806.171 1155.57,802.305 1157.73,798.49 1159.89,794.725 1162.06,791.01 1164.22,787.345 1166.38,783.728 1168.54,780.159 1170.7,776.638 1172.86,773.163 1175.02,769.734 1177.18,766.351 1179.34,763.012 1181.5,759.718 1183.67,756.467 1185.83,753.26 1187.99,750.095 1190.15,746.972 1192.31,743.89 1194.47,740.849 1196.63,737.849 1198.79,734.888 1200.95,731.966 1203.11,729.084 1205.28,726.239 1207.44,723.432 1209.6,720.663 1211.76,717.93 1213.92,715.233 1216.08,712.573 1218.24,709.947 1220.4,707.356 1222.56,704.8 1224.72,702.278 1226.88,699.789 1229.05,697.333 1231.21,694.909 1233.37,692.518 1235.53,690.158 1237.69,687.83 1239.85,685.532 1242.01,683.265 1244.17,681.029 1246.33,678.821 1248.49,676.643 1250.66,674.494 1252.82,672.373 1254.98,670.281 1257.14,668.216 1259.3,666.178 1261.46,664.168 1263.62,662.184 1265.78,660.227 1267.94,658.295 1270.1,655.461 1272.27,650.634 1274.43,644.405 1276.59,637.29 1278.75,629.715 1280.91,622.012 1283.07,614.422 1285.23,607.093 1287.39,600.081 1289.55,593.349 1291.71,586.769 1293.88,580.162 1296.04,573.613 1298.2,567.15 1300.36,560.774 1302.52,554.482 1304.68,548.273 1306.84,542.147 1309,536.101 1311.16,530.136 1313.32,524.25 1315.49,518.442 1317.65,512.711 1319.81,507.056 1321.97,501.476 1324.13,495.97 1326.29,490.537 1328.45,485.176 1330.61,479.886 1332.77,474.667 1334.93,469.516 1337.09,464.434 1339.26,459.419 1341.42,454.471 1343.58,449.588 1345.74,444.771 1347.9,440.017 1350.06,435.326 1352.22,430.697 1354.38,426.129 1356.54,421.623 1358.7,417.175 1360.87,412.787 1363.03,408.457 1365.19,404.184 1367.35,399.968 1369.51,395.808 1371.67,391.703 1373.83,387.653 1375.99,383.656 1378.15,379.712 1380.31,375.82 1382.48,371.98 1384.64,368.191 1386.8,364.452 1388.96,360.763 1391.12,357.123 1393.28,353.53 1395.44,349.986 1397.6,346.489 1399.76,343.038 1401.92,339.632 1404.09,336.272 1406.25,332.957 1408.41,329.685 1410.57,326.457 1412.73,323.271 1414.89,320.128 1417.05,317.026 1419.21,313.966 1421.37,310.946 1423.53,307.966 1425.7,305.026 1427.86,302.124 1430.02,299.261 1432.18,296.436 1434.34,293.649 1436.5,290.898 1438.66,288.184 1440.82,285.506 1442.98,282.863 1445.14,280.256 1447.3,277.683 1449.47,275.144 1451.63,272.639 1453.79,270.167 1455.95,267.727 1458.11,265.321 1460.27,262.946 1462.43,260.602 1464.59,258.29 1466.75,256.008 1468.91,253.757 1471.08,251.535 1473.24,249.343 1475.4,247.18 1477.56,245.045 1479.72,242.939 1481.88,240.861 1484.04,238.982 1486.2,238.667 1488.36,240.045 1490.52,242.921 1492.69,247.108 1494.85,252.431 1497.01,258.724 1499.17,265.832 1501.33,273.61 1503.49,281.923 1505.65,290.644 1507.81,299.661 1509.97,308.867 1512.13,318.168 1514.3,327.479 1516.46,336.726 1518.62,345.845 1520.78,354.781 1522.94,363.491 1525.1,371.94 1527.26,380.104 1529.42,387.97 1531.58,395.533 1533.74,402.802 1535.91,409.791 1538.07,416.529 1540.23,423.051 1542.39,429.405 1544.55,435.648 1546.71,441.846 1548.87,448.079 1551.03,454.421 1553.19,460.745 1555.35,466.985 1557.51,473.142 1559.68,479.218 1561.84,485.213 1564,491.129 1566.16,496.966 1568.32,502.726 1570.48,508.409 1572.64,514.017 1574.8,519.551 1576.96,525.011 1579.12,530.399 1581.29,535.716 1583.45,540.962 1585.61,546.139 1587.77,551.246 1589.93,556.287 1592.09,561.26 1594.25,566.168 1596.41,571.011 1598.57,575.79 1600.73,580.505 1602.9,585.158 1605.06,589.75 1607.22,594.28 1609.38,598.751 1611.54,603.162 1613.7,607.514 1615.86,611.809 1618.02,616.047 1620.18,620.229 1622.34,624.355 1624.51,628.426 1626.67,632.443 1628.83,636.407 1630.99,640.318 1633.15,644.178 1635.31,647.985 1637.47,651.743 1639.63,655.45 1641.79,659.109 1643.95,662.718 1646.12,666.28 1648.28,669.795 1650.44,673.263 1652.6,676.684 1654.76,680.061 1656.92,683.393 1659.08,686.68 1661.24,689.924 1663.4,693.125 1665.56,696.284 1667.72,699.4 1669.89,702.476 1672.05,705.51 1674.21,708.505 1676.37,711.46 1678.53,714.376 1680.69,717.253 1682.85,720.092 1685.01,722.894 1687.17,725.658 1689.33,728.386 1691.5,731.078 1693.66,733.734 1695.82,736.354 1697.98,738.94 1700.14,741.492 1702.3,744.01 1704.46,746.536 1706.62,746.986 1708.78,747.036 1710.94,747.085 1713.11,747.134 1715.27,747.182 1717.43,747.23 1719.59,747.277 1721.75,747.323 1723.91,747.369 1726.07,747.414 1728.23,747.458 1730.39,747.502 1732.55,747.546 1734.72,747.588 1736.88,747.63 1739.04,747.672 1741.2,747.713 1743.36,747.754 1745.52,747.794 1747.68,747.833 1749.84,747.872 1752,747.91 1754.16,747.948 1756.33,747.986 1758.49,748.023 1760.65,748.059 1762.81,748.095 1764.97,748.13 1767.13,748.165 1769.29,748.2 1771.45,748.234 1773.61,748.268 1775.77,748.301 1777.93,748.333 1780.1,748.366 1782.26,748.398 1784.42,748.429 1786.58,748.46 1788.74,748.491 1790.9,748.521 1793.06,748.551 1795.22,748.58 1797.38,748.609 1799.54,748.638 1801.71,748.666 1803.87,748.694 1806.03,748.721 1808.19,748.748 1810.35,748.775 1812.51,748.802 1814.67,748.828 1816.83,748.854 1818.99,748.879 1821.15,748.904 1823.32,748.929 1825.48,748.953 1827.64,748.977 1829.8,749.001 1831.96,749.024 1834.12,749.047 1836.28,749.07 1838.44,749.093 1840.6,749.115 1842.76,749.137 1844.93,749.159 1847.09,749.18 1849.25,749.201 1851.41,749.222 1853.57,749.242 1855.73,749.263 1857.89,749.283 1860.05,749.302 1862.21,749.322 1864.37,749.341 1866.54,749.36 1868.7,749.378 1870.86,749.397 1873.02,749.415 1875.18,749.433 1877.34,749.451 1879.5,749.468 1881.66,749.485 1883.82,749.502 1885.98,749.519 1888.15,749.536 1890.31,749.552 1892.47,749.568 1894.63,749.584 1896.79,749.6 1898.95,749.615 1901.11,749.631 1903.27,749.646 1905.43,749.661 1907.59,749.675 1909.75,749.69 1911.92,749.704 1914.08,749.718 1916.24,749.732 1918.4,749.746 1920.56,749.787 1922.72,750.559 1924.88,752.281 1927.04,754.836 1929.2,758.116 1931.36,762.016 1933.53,766.439 1935.69,771.296 1937.85,776.502 1940.01,781.978 1942.17,787.653 1944.33,793.462 1946.49,799.343 1948.65,805.246 1950.81,811.123 1952.97,816.933 1955.14,822.642 1957.3,828.222 1959.46,833.653 1961.62,838.917 1963.78,844.007 1965.94,848.918 1968.1,853.656 1970.26,858.229 1972.42,862.653 1974.58,866.951 1976.75,871.151 1978.91,875.289 1981.07,879.404 1983.23,883.544 1985.39,887.727 1987.55,891.863 1989.71,895.944 1991.87,899.97 1994.03,903.944 1996.19,907.864 1998.36,911.733 2000.52,915.55 2002.68,919.317 2004.84,923.034 2007,926.701 2009.16,930.32 2011.32,933.891 2013.48,937.414 2015.64,940.891 2017.8,944.322 2019.96,947.707 2022.13,951.048 2024.29,954.344 2026.45,957.596 2028.61,960.806 2030.77,963.973 2032.93,967.098 2035.09,970.182 2037.25,973.225 2039.41,976.228 2041.57,979.191 2043.74,982.114 2045.9,984.999 2048.06,987.845 2050.22,990.654 2052.38,993.426 2054.54,996.16 2056.7,998.858 2058.86,1001.52 2061.02,1004.15 2063.18,1006.74 2065.35,1009.3 2067.51,1011.82 2069.67,1014.31 2071.83,1016.77 2073.99,1019.19 2076.15,1021.59 2078.31,1023.95 2080.47,1026.28 2082.63,1028.57 2084.79,1030.84 2086.96,1033.08 2089.12,1035.29 2091.28,1037.47 2093.44,1039.62 2095.6,1041.74 2097.76,1043.83 2099.92,1045.9 2102.08,1047.93 2104.24,1049.95 2106.4,1051.93 2108.57,1053.89 2110.73,1055.82 2112.89,1057.73 2115.05,1059.61 2117.21,1061.47 2119.37,1063.3 2121.53,1065.06 2123.69,1066.75 2125.85,1068.37 2128.01,1069.91 2130.17,1071.4 2132.34,1072.83 2134.5,1074.21 2136.66,1075.54 2138.82,1076.83 2140.98,1078.08 2143.14,1079.29 2145.3,1080.47 2147.46,1081.63 2149.62,1082.75 2151.78,1083.86 2153.95,1084.95 2156.11,1086.02 2158.27,1087.07 2160.43,1088.11 2162.59,1089.14 2164.75,1090.16 2166.91,1091.17 2169.07,1092.18 2171.23,1093.17 2173.39,1094.16 2175.56,1095.13 2177.72,1096.11 2179.88,1097.07 2182.04,1098.03 2184.2,1098.97 2186.36,1099.91 2188.52,1100.84 2190.68,1101.75 2192.84,1102.65 2195,1103.53 2197.17,1104.39 2199.33,1105.24 2201.49,1106.08 2203.65,1106.91 2205.81,1107.73 2207.97,1108.53 2210.13,1109.33 2212.29,1110.11 2214.45,1110.89 2216.61,1111.65 2218.78,1112.41 2220.94,1113.15 2223.1,1113.89 2225.26,1114.61 2227.42,1115.33 2229.58,1116.03 2231.74,1116.73 2233.9,1117.42 2236.06,1118.1 2238.22,1118.77 2240.38,1119.43 2242.55,1120.08 2244.71,1120.72 2246.87,1121.35 2249.03,1121.98 2251.19,1122.6 2253.35,1123.21 2255.51,1123.81 2257.67,1124.4 2259.83,1124.99 2261.99,1125.57 2264.16,1126.14 2266.32,1126.7 2268.48,1127.25 2270.64,1127.8 2272.8,1128.34 2274.96,1128.88 2277.12,1129.4 2279.28,1129.92 2281.44,1130.43 2283.6,1130.94 2285.77,1131.44 2287.93,1131.93 2290.09,1132.42 2292.25,1132.9 2294.41,1133.37 2296.57,1133.84 2298.73,1134.3 2300.89,1134.75 2303.05,1135.2 2305.21,1135.64 2307.38,1136.08 2309.54,1136.51 2311.7,1136.94 2313.86,1137.35 2316.02,1137.77 2318.18,1138.18 2320.34,1138.58 2322.5,1138.98 2324.66,1139.37 2326.82,1139.76 2328.99,1140.14 2331.15,1140.52 2333.31,1140.89 2335.47,1141.25 2337.63,1141.62 2339.79,1141.97 2341.95,1142.33 2344.11,1142.67 2346.27,1143.02 2348.43,1143.36 2350.59,1143.69 2352.76,1144.02 "/>
<polyline clip-path="url(#clip992)" style="stroke:#e26f46; stroke-linecap:round; stroke-linejoin:round; stroke-width:4; stroke-opacity:1; fill:none" points="193.936,1047.34 196.097,1047.34 198.258,1047.34 200.419,1047.34 202.58,1047.34 204.741,1047.34 206.902,1047.34 209.063,1047.34 211.224,1047.34 213.385,1047.34 215.546,1047.34 217.707,1047.34 219.868,1047.34 222.029,1047.34 224.19,1047.34 226.351,1047.34 228.512,1047.34 230.673,1047.34 232.834,1047.34 234.995,1047.34 237.156,1047.34 239.317,1047.34 241.478,1047.34 243.639,1047.34 245.8,1047.34 247.961,1047.34 250.122,1047.34 252.282,1047.34 254.443,1047.34 256.604,1047.34 258.765,1047.34 260.926,1047.34 263.087,1047.34 265.248,1047.34 267.409,1047.34 269.57,1047.34 271.731,1047.34 273.892,1047.34 276.053,1047.34 278.214,1047.34 280.375,1047.34 282.536,1047.34 284.697,1047.34 286.858,1047.34 289.019,1047.34 291.18,1047.34 293.341,1047.34 295.502,1047.34 297.663,1047.34 299.824,1047.34 301.985,1047.34 304.146,1047.34 306.307,1047.34 308.468,1047.34 310.629,1047.34 312.79,1047.34 314.951,1047.34 317.112,1047.34 319.273,1047.34 321.434,1047.34 323.595,1047.34 325.756,1047.34 327.917,1047.34 330.078,1047.34 332.239,1047.34 334.4,1047.34 336.561,1047.34 338.722,1047.34 340.883,1047.34 343.044,1047.34 345.205,1047.34 347.366,1047.34 349.527,1047.34 351.688,1047.34 353.849,1047.34 356.01,1047.34 358.171,1047.34 360.332,1047.34 362.493,1047.34 364.653,1047.34 366.814,1047.34 368.975,1047.34 371.136,1047.34 373.297,1047.34 375.458,1047.34 377.619,1047.34 379.78,1047.34 381.941,1047.34 384.102,1047.34 386.263,1047.34 388.424,1047.34 390.585,1047.34 392.746,1047.34 394.907,1047.34 397.068,1047.34 399.229,1047.34 401.39,1047.34 403.551,1047.34 405.712,1047.34 407.873,1047.34 410.034,469.987 412.195,469.987 414.356,469.987 416.517,469.987 418.678,469.987 420.839,469.987 423,469.987 425.161,469.987 427.322,469.987 429.483,469.987 431.644,469.987 433.805,469.987 435.966,469.987 438.127,469.987 440.288,469.987 442.449,469.987 444.61,469.987 446.771,469.987 448.932,469.987 451.093,469.987 453.254,469.987 455.415,469.987 457.576,469.987 459.737,469.987 461.898,469.987 464.059,469.987 466.22,469.987 468.381,469.987 470.542,469.987 472.703,469.987 474.864,469.987 477.024,469.987 479.185,469.987 481.346,469.987 483.507,469.987 485.668,469.987 487.829,469.987 489.99,469.987 492.151,469.987 494.312,469.987 496.473,469.987 498.634,469.987 500.795,469.987 502.956,469.987 505.117,469.987 507.278,469.987 509.439,469.987 511.6,469.987 513.761,469.987 515.922,469.987 518.083,469.987 520.244,469.987 522.405,469.987 524.566,469.987 526.727,469.987 528.888,469.987 531.049,469.987 533.21,469.987 535.371,469.987 537.532,469.987 539.693,469.987 541.854,469.987 544.015,469.987 546.176,469.987 548.337,469.987 550.498,469.987 552.659,469.987 554.82,469.987 556.981,469.987 559.142,469.987 561.303,469.987 563.464,469.987 565.625,469.987 567.786,469.987 569.947,469.987 572.108,469.987 574.269,469.987 576.43,469.987 578.591,469.987 580.752,469.987 582.913,469.987 585.074,469.987 587.235,469.987 589.396,469.987 591.556,469.987 593.717,469.987 595.878,469.987 598.039,469.987 600.2,469.987 602.361,469.987 604.522,469.987 606.683,469.987 608.844,469.987 611.005,469.987 613.166,469.987 615.327,469.987 617.488,469.987 619.649,469.987 621.81,469.987 623.971,469.987 626.132,1384.24 628.293,1384.24 630.454,1384.24 632.615,1384.24 634.776,1384.24 636.937,1384.24 639.098,1384.24 641.259,1384.24 643.42,1384.24 645.581,1384.24 647.742,1384.24 649.903,1384.24 652.064,1384.24 654.225,1384.24 656.386,1384.24 658.547,1384.24 660.708,1384.24 662.869,1384.24 665.03,1384.24 667.191,1384.24 669.352,1384.24 671.513,1384.24 673.674,1384.24 675.835,1384.24 677.996,1384.24 680.157,1384.24 682.318,1384.24 684.479,1384.24 686.64,1384.24 688.801,1384.24 690.962,1384.24 693.123,1384.24 695.284,1384.24 697.445,1384.24 699.606,1384.24 701.767,1384.24 703.927,1384.24 706.088,1384.24 708.249,1384.24 710.41,1384.24 712.571,1384.24 714.732,1384.24 716.893,1384.24 719.054,1384.24 721.215,1384.24 723.376,1384.24 725.537,1384.24 727.698,1384.24 729.859,1384.24 732.02,1384.24 734.181,1384.24 736.342,1384.24 738.503,1384.24 740.664,1384.24 742.825,1384.24 744.986,1384.24 747.147,1384.24 749.308,1384.24 751.469,1384.24 753.63,1384.24 755.791,1384.24 757.952,1384.24 760.113,1384.24 762.274,1384.24 764.435,1384.24 766.596,1384.24 768.757,1384.24 770.918,1384.24 773.079,1384.24 775.24,1384.24 777.401,1384.24 779.562,1384.24 781.723,1384.24 783.884,1384.24 786.045,1384.24 788.206,1384.24 790.367,1384.24 792.528,1384.24 794.689,1384.24 796.85,1384.24 799.011,1384.24 801.172,1384.24 803.333,1384.24 805.494,1384.24 807.655,1384.24 809.816,1384.24 811.977,1384.24 814.138,1384.24 816.298,1384.24 818.459,1384.24 820.62,1384.24 822.781,1384.24 824.942,1384.24 827.103,1384.24 829.264,1384.24 831.425,1384.24 833.586,1384.24 835.747,1384.24 837.908,1384.24 840.069,1384.24 842.23,1006.14 844.391,1006.14 846.552,1006.14 848.713,1006.14 850.874,1006.14 853.035,1006.14 855.196,1006.14 857.357,1006.14 859.518,1006.14 861.679,1006.14 863.84,1006.14 866.001,1006.14 868.162,1006.14 870.323,1006.14 872.484,1006.14 874.645,1006.14 876.806,1006.14 878.967,1006.14 881.128,1006.14 883.289,1006.14 885.45,1006.14 887.611,1006.14 889.772,1006.14 891.933,1006.14 894.094,1006.14 896.255,1006.14 898.416,1006.14 900.577,1006.14 902.738,1006.14 904.899,1006.14 907.06,1006.14 909.221,1006.14 911.382,1006.14 913.543,1006.14 915.704,1006.14 917.865,1006.14 920.026,1006.14 922.187,1006.14 924.348,1006.14 926.509,1006.14 928.669,1006.14 930.83,1006.14 932.991,1006.14 935.152,1006.14 937.313,1006.14 939.474,1006.14 941.635,1006.14 943.796,1006.14 945.957,1006.14 948.118,1006.14 950.279,1006.14 952.44,1006.14 954.601,1006.14 956.762,1006.14 958.923,1006.14 961.084,1006.14 963.245,1006.14 965.406,1006.14 967.567,1006.14 969.728,1006.14 971.889,1006.14 974.05,1006.14 976.211,1006.14 978.372,1006.14 980.533,1006.14 982.694,1006.14 984.855,1006.14 987.016,1006.14 989.177,1006.14 991.338,1006.14 993.499,1006.14 995.66,1006.14 997.821,1006.14 999.982,1006.14 1002.14,1006.14 1004.3,1006.14 1006.46,1006.14 1008.63,1006.14 1010.79,1006.14 1012.95,1006.14 1015.11,1006.14 1017.27,1006.14 1019.43,1006.14 1021.59,1006.14 1023.75,1006.14 1025.91,1006.14 1028.07,1006.14 1030.24,1006.14 1032.4,1006.14 1034.56,1006.14 1036.72,1006.14 1038.88,1006.14 1041.04,1006.14 1043.2,1006.14 1045.36,1006.14 1047.52,1006.14 1049.68,1006.14 1051.85,1006.14 1054.01,1006.14 1056.17,1006.14 1058.33,514.538 1060.49,514.538 1062.65,514.538 1064.81,514.538 1066.97,514.538 1069.13,514.538 1071.29,514.538 1073.46,514.538 1075.62,514.538 1077.78,514.538 1079.94,514.538 1082.1,514.538 1084.26,514.538 1086.42,514.538 1088.58,514.538 1090.74,514.538 1092.9,514.538 1095.07,514.538 1097.23,514.538 1099.39,514.538 1101.55,514.538 1103.71,514.538 1105.87,514.538 1108.03,514.538 1110.19,514.538 1112.35,514.538 1114.51,514.538 1116.67,514.538 1118.84,514.538 1121,514.538 1123.16,514.538 1125.32,514.538 1127.48,514.538 1129.64,514.538 1131.8,514.538 1133.96,514.538 1136.12,514.538 1138.28,514.538 1140.45,514.538 1142.61,514.538 1144.77,514.538 1146.93,514.538 1149.09,514.538 1151.25,514.538 1153.41,514.538 1155.57,514.538 1157.73,514.538 1159.89,514.538 1162.06,514.538 1164.22,514.538 1166.38,514.538 1168.54,514.538 1170.7,514.538 1172.86,514.538 1175.02,514.538 1177.18,514.538 1179.34,514.538 1181.5,514.538 1183.67,514.538 1185.83,514.538 1187.99,514.538 1190.15,514.538 1192.31,514.538 1194.47,514.538 1196.63,514.538 1198.79,514.538 1200.95,514.538 1203.11,514.538 1205.28,514.538 1207.44,514.538 1209.6,514.538 1211.76,514.538 1213.92,514.538 1216.08,514.538 1218.24,514.538 1220.4,514.538 1222.56,514.538 1224.72,514.538 1226.88,514.538 1229.05,514.538 1231.21,514.538 1233.37,514.538 1235.53,514.538 1237.69,514.538 1239.85,514.538 1242.01,514.538 1244.17,514.538 1246.33,514.538 1248.49,514.538 1250.66,514.538 1252.82,514.538 1254.98,514.538 1257.14,514.538 1259.3,514.538 1261.46,514.538 1263.62,514.538 1265.78,514.538 1267.94,514.538 1270.1,514.538 1272.27,514.538 1274.43,86.1857 1276.59,86.1857 1278.75,86.1857 1280.91,86.1857 1283.07,86.1857 1285.23,86.1857 1287.39,86.1857 1289.55,86.1857 1291.71,86.1857 1293.88,86.1857 1296.04,86.1857 1298.2,86.1857 1300.36,86.1857 1302.52,86.1857 1304.68,86.1857 1306.84,86.1857 1309,86.1857 1311.16,86.1857 1313.32,86.1857 1315.49,86.1857 1317.65,86.1857 1319.81,86.1857 1321.97,86.1857 1324.13,86.1857 1326.29,86.1857 1328.45,86.1857 1330.61,86.1857 1332.77,86.1857 1334.93,86.1857 1337.09,86.1857 1339.26,86.1857 1341.42,86.1857 1343.58,86.1857 1345.74,86.1857 1347.9,86.1857 1350.06,86.1857 1352.22,86.1857 1354.38,86.1857 1356.54,86.1857 1358.7,86.1857 1360.87,86.1857 1363.03,86.1857 1365.19,86.1857 1367.35,86.1857 1369.51,86.1857 1371.67,86.1857 1373.83,86.1857 1375.99,86.1857 1378.15,86.1857 1380.31,86.1857 1382.48,86.1857 1384.64,86.1857 1386.8,86.1857 1388.96,86.1857 1391.12,86.1857 1393.28,86.1857 1395.44,86.1857 1397.6,86.1857 1399.76,86.1857 1401.92,86.1857 1404.09,86.1857 1406.25,86.1857 1408.41,86.1857 1410.57,86.1857 1412.73,86.1857 1414.89,86.1857 1417.05,86.1857 1419.21,86.1857 1421.37,86.1857 1423.53,86.1857 1425.7,86.1857 1427.86,86.1857 1430.02,86.1857 1432.18,86.1857 1434.34,86.1857 1436.5,86.1857 1438.66,86.1857 1440.82,86.1857 1442.98,86.1857 1445.14,86.1857 1447.3,86.1857 1449.47,86.1857 1451.63,86.1857 1453.79,86.1857 1455.95,86.1857 1458.11,86.1857 1460.27,86.1857 1462.43,86.1857 1464.59,86.1857 1466.75,86.1857 1468.91,86.1857 1471.08,86.1857 1473.24,86.1857 1475.4,86.1857 1477.56,86.1857 1479.72,86.1857 1481.88,86.1857 1484.04,86.1857 1486.2,86.1857 1488.36,86.1857 1490.52,931.408 1492.69,931.408 1494.85,931.408 1497.01,931.408 1499.17,931.408 1501.33,931.408 1503.49,931.408 1505.65,931.408 1507.81,931.408 1509.97,931.408 1512.13,931.408 1514.3,931.408 1516.46,931.408 1518.62,931.408 1520.78,931.408 1522.94,931.408 1525.1,931.408 1527.26,931.408 1529.42,931.408 1531.58,931.408 1533.74,931.408 1535.91,931.408 1538.07,931.408 1540.23,931.408 1542.39,931.408 1544.55,931.408 1546.71,931.408 1548.87,931.408 1551.03,931.408 1553.19,931.408 1555.35,931.408 1557.51,931.408 1559.68,931.408 1561.84,931.408 1564,931.408 1566.16,931.408 1568.32,931.408 1570.48,931.408 1572.64,931.408 1574.8,931.408 1576.96,931.408 1579.12,931.408 1581.29,931.408 1583.45,931.408 1585.61,931.408 1587.77,931.408 1589.93,931.408 1592.09,931.408 1594.25,931.408 1596.41,931.408 1598.57,931.408 1600.73,931.408 1602.9,931.408 1605.06,931.408 1607.22,931.408 1609.38,931.408 1611.54,931.408 1613.7,931.408 1615.86,931.408 1618.02,931.408 1620.18,931.408 1622.34,931.408 1624.51,931.408 1626.67,931.408 1628.83,931.408 1630.99,931.408 1633.15,931.408 1635.31,931.408 1637.47,931.408 1639.63,931.408 1641.79,931.408 1643.95,931.408 1646.12,931.408 1648.28,931.408 1650.44,931.408 1652.6,931.408 1654.76,931.408 1656.92,931.408 1659.08,931.408 1661.24,931.408 1663.4,931.408 1665.56,931.408 1667.72,931.408 1669.89,931.408 1672.05,931.408 1674.21,931.408 1676.37,931.408 1678.53,931.408 1680.69,931.408 1682.85,931.408 1685.01,931.408 1687.17,931.408 1689.33,931.408 1691.5,931.408 1693.66,931.408 1695.82,931.408 1697.98,931.408 1700.14,931.408 1702.3,931.408 1704.46,931.408 1706.62,750.769 1708.78,750.769 1710.94,750.769 1713.11,750.769 1715.27,750.769 1717.43,750.769 1719.59,750.769 1721.75,750.769 1723.91,750.769 1726.07,750.769 1728.23,750.769 1730.39,750.769 1732.55,750.769 1734.72,750.769 1736.88,750.769 1739.04,750.769 1741.2,750.769 1743.36,750.769 1745.52,750.769 1747.68,750.769 1749.84,750.769 1752,750.769 1754.16,750.769 1756.33,750.769 1758.49,750.769 1760.65,750.769 1762.81,750.769 1764.97,750.769 1767.13,750.769 1769.29,750.769 1771.45,750.769 1773.61,750.769 1775.77,750.769 1777.93,750.769 1780.1,750.769 1782.26,750.769 1784.42,750.769 1786.58,750.769 1788.74,750.769 1790.9,750.769 1793.06,750.769 1795.22,750.769 1797.38,750.769 1799.54,750.769 1801.71,750.769 1803.87,750.769 1806.03,750.769 1808.19,750.769 1810.35,750.769 1812.51,750.769 1814.67,750.769 1816.83,750.769 1818.99,750.769 1821.15,750.769 1823.32,750.769 1825.48,750.769 1827.64,750.769 1829.8,750.769 1831.96,750.769 1834.12,750.769 1836.28,750.769 1838.44,750.769 1840.6,750.769 1842.76,750.769 1844.93,750.769 1847.09,750.769 1849.25,750.769 1851.41,750.769 1853.57,750.769 1855.73,750.769 1857.89,750.769 1860.05,750.769 1862.21,750.769 1864.37,750.769 1866.54,750.769 1868.7,750.769 1870.86,750.769 1873.02,750.769 1875.18,750.769 1877.34,750.769 1879.5,750.769 1881.66,750.769 1883.82,750.769 1885.98,750.769 1888.15,750.769 1890.31,750.769 1892.47,750.769 1894.63,750.769 1896.79,750.769 1898.95,750.769 1901.11,750.769 1903.27,750.769 1905.43,750.769 1907.59,750.769 1909.75,750.769 1911.92,750.769 1914.08,750.769 1916.24,750.769 1918.4,750.769 1920.56,750.769 1922.72,1199.66 1924.88,1199.66 1927.04,1199.66 1929.2,1199.66 1931.36,1199.66 1933.53,1199.66 1935.69,1199.66 1937.85,1199.66 1940.01,1199.66 1942.17,1199.66 1944.33,1199.66 1946.49,1199.66 1948.65,1199.66 1950.81,1199.66 1952.97,1199.66 1955.14,1199.66 1957.3,1199.66 1959.46,1199.66 1961.62,1199.66 1963.78,1199.66 1965.94,1199.66 1968.1,1199.66 1970.26,1199.66 1972.42,1199.66 1974.58,1199.66 1976.75,1199.66 1978.91,1199.66 1981.07,1199.66 1983.23,1199.66 1985.39,1199.66 1987.55,1199.66 1989.71,1199.66 1991.87,1199.66 1994.03,1199.66 1996.19,1199.66 1998.36,1199.66 2000.52,1199.66 2002.68,1199.66 2004.84,1199.66 2007,1199.66 2009.16,1199.66 2011.32,1199.66 2013.48,1199.66 2015.64,1199.66 2017.8,1199.66 2019.96,1199.66 2022.13,1199.66 2024.29,1199.66 2026.45,1199.66 2028.61,1199.66 2030.77,1199.66 2032.93,1199.66 2035.09,1199.66 2037.25,1199.66 2039.41,1199.66 2041.57,1199.66 2043.74,1199.66 2045.9,1199.66 2048.06,1199.66 2050.22,1199.66 2052.38,1199.66 2054.54,1199.66 2056.7,1199.66 2058.86,1199.66 2061.02,1199.66 2063.18,1199.66 2065.35,1199.66 2067.51,1199.66 2069.67,1199.66 2071.83,1199.66 2073.99,1199.66 2076.15,1199.66 2078.31,1199.66 2080.47,1199.66 2082.63,1199.66 2084.79,1199.66 2086.96,1199.66 2089.12,1199.66 2091.28,1199.66 2093.44,1199.66 2095.6,1199.66 2097.76,1199.66 2099.92,1199.66 2102.08,1199.66 2104.24,1199.66 2106.4,1199.66 2108.57,1199.66 2110.73,1199.66 2112.89,1199.66 2115.05,1199.66 2117.21,1199.66 2119.37,1199.66 2121.53,1199.66 2123.69,1199.66 2125.85,1199.66 2128.01,1199.66 2130.17,1199.66 2132.34,1199.66 2134.5,1199.66 2136.66,1199.66 2138.82,1168.57 2140.98,1168.57 2143.14,1168.57 2145.3,1168.57 2147.46,1168.57 2149.62,1168.57 2151.78,1168.57 2153.95,1168.57 2156.11,1168.57 2158.27,1168.57 2160.43,1168.57 2162.59,1168.57 2164.75,1168.57 2166.91,1168.57 2169.07,1168.57 2171.23,1168.57 2173.39,1168.57 2175.56,1168.57 2177.72,1168.57 2179.88,1168.57 2182.04,1168.57 2184.2,1168.57 2186.36,1168.57 2188.52,1168.57 2190.68,1168.57 2192.84,1168.57 2195,1168.57 2197.17,1168.57 2199.33,1168.57 2201.49,1168.57 2203.65,1168.57 2205.81,1168.57 2207.97,1168.57 2210.13,1168.57 2212.29,1168.57 2214.45,1168.57 2216.61,1168.57 2218.78,1168.57 2220.94,1168.57 2223.1,1168.57 2225.26,1168.57 2227.42,1168.57 2229.58,1168.57 2231.74,1168.57 2233.9,1168.57 2236.06,1168.57 2238.22,1168.57 2240.38,1168.57 2242.55,1168.57 2244.71,1168.57 2246.87,1168.57 2249.03,1168.57 2251.19,1168.57 2253.35,1168.57 2255.51,1168.57 2257.67,1168.57 2259.83,1168.57 2261.99,1168.57 2264.16,1168.57 2266.32,1168.57 2268.48,1168.57 2270.64,1168.57 2272.8,1168.57 2274.96,1168.57 2277.12,1168.57 2279.28,1168.57 2281.44,1168.57 2283.6,1168.57 2285.77,1168.57 2287.93,1168.57 2290.09,1168.57 2292.25,1168.57 2294.41,1168.57 2296.57,1168.57 2298.73,1168.57 2300.89,1168.57 2303.05,1168.57 2305.21,1168.57 2307.38,1168.57 2309.54,1168.57 2311.7,1168.57 2313.86,1168.57 2316.02,1168.57 2318.18,1168.57 2320.34,1168.57 2322.5,1168.57 2324.66,1168.57 2326.82,1168.57 2328.99,1168.57 2331.15,1168.57 2333.31,1168.57 2335.47,1168.57 2337.63,1168.57 2339.79,1168.57 2341.95,1168.57 2344.11,1168.57 2346.27,1168.57 2348.43,1168.57 2350.59,1168.57 2352.76,1168.57 "/>
<path clip-path="url(#clip990)" d="M2039.77 248.629 L2280.8 248.629 L2280.8 93.1086 L2039.77 93.1086  Z" fill="#ffffff" fill-rule="evenodd" fill-opacity="1"/>
<polyline clip-path="url(#clip990)" style="stroke:#000000; stroke-linecap:round; stroke-linejoin:round; stroke-width:4; stroke-opacity:1; fill:none" points="2039.77,248.629 2280.8,248.629 2280.8,93.1086 2039.77,93.1086 2039.77,248.629 "/>
<polyline clip-path="url(#clip990)" style="stroke:#009af9; stroke-linecap:round; stroke-linejoin:round; stroke-width:4; stroke-opacity:1; fill:none" points="2063.76,144.949 2207.68,144.949 "/>
<path clip-path="url(#clip990)" d="M2256.32 136.303 L2246.95 148.919 L2256.81 162.229 L2251.79 162.229 L2244.24 152.043 L2236.69 162.229 L2231.67 162.229 L2241.74 148.664 L2232.53 136.303 L2237.55 136.303 L2244.42 145.539 L2251.3 136.303 L2256.32 136.303 Z" fill="#000000" fill-rule="nonzero" fill-opacity="1" /><polyline clip-path="url(#clip990)" style="stroke:#e26f46; stroke-linecap:round; stroke-linejoin:round; stroke-width:4; stroke-opacity:1; fill:none" points="2063.76,196.789 2207.68,196.789 "/>
<path clip-path="url(#clip990)" d="M2248.17 178.05 L2248.17 181.592 L2244.1 181.592 Q2241.81 181.592 2240.91 182.518 Q2240.03 183.444 2240.03 185.851 L2240.03 188.143 L2247.04 188.143 L2247.04 191.453 L2240.03 191.453 L2240.03 214.069 L2235.74 214.069 L2235.74 191.453 L2231.67 191.453 L2231.67 188.143 L2235.74 188.143 L2235.74 186.337 Q2235.74 182.009 2237.76 180.041 Q2239.77 178.05 2244.15 178.05 L2248.17 178.05 Z" fill="#000000" fill-rule="nonzero" fill-opacity="1" /></svg>
