<?xml version="1.0" encoding="utf-8"?>
<svg xmlns="http://www.w3.org/2000/svg" xmlns:xlink="http://www.w3.org/1999/xlink" width="600" height="400" viewBox="0 0 2400 1600">
<defs>
  <clipPath id="clip790">
    <rect x="0" y="0" width="2400" height="1600"/>
  </clipPath>
</defs>
<path clip-path="url(#clip790)" d="M0 1600 L2400 1600 L2400 0 L0 0  Z" fill="#ffffff" fill-rule="evenodd" fill-opacity="1"/>
<defs>
  <clipPath id="clip791">
    <rect x="480" y="0" width="1681" height="1600"/>
  </clipPath>
</defs>
<path clip-path="url(#clip790)" d="M193.936 1423.18 L2352.76 1423.18 L2352.76 47.2441 L193.936 47.2441  Z" fill="#ffffff" fill-rule="evenodd" fill-opacity="1"/>
<defs>
  <clipPath id="clip792">
    <rect x="193" y="47" width="2160" height="1377"/>
  </clipPath>
</defs>
<polyline clip-path="url(#clip792)" style="stroke:#000000; stroke-linecap:round; stroke-linejoin:round; stroke-width:2; stroke-opacity:0.1; fill:none" points="193.936,1423.18 193.936,47.2441 "/>
<polyline clip-path="url(#clip792)" style="stroke:#000000; stroke-linecap:round; stroke-linejoin:round; stroke-width:2; stroke-opacity:0.1; fill:none" points="625.7,1423.18 625.7,47.2441 "/>
<polyline clip-path="url(#clip792)" style="stroke:#000000; stroke-linecap:round; stroke-linejoin:round; stroke-width:2; stroke-opacity:0.1; fill:none" points="1057.46,1423.18 1057.46,47.2441 "/>
<polyline clip-path="url(#clip792)" style="stroke:#000000; stroke-linecap:round; stroke-linejoin:round; stroke-width:2; stroke-opacity:0.1; fill:none" points="1489.23,1423.18 1489.23,47.2441 "/>
<polyline clip-path="url(#clip792)" style="stroke:#000000; stroke-linecap:round; stroke-linejoin:round; stroke-width:2; stroke-opacity:0.1; fill:none" points="1920.99,1423.18 1920.99,47.2441 "/>
<polyline clip-path="url(#clip792)" style="stroke:#000000; stroke-linecap:round; stroke-linejoin:round; stroke-width:2; stroke-opacity:0.1; fill:none" points="2352.76,1423.18 2352.76,47.2441 "/>
<polyline clip-path="url(#clip790)" style="stroke:#000000; stroke-linecap:round; stroke-linejoin:round; stroke-width:4; stroke-opacity:1; fill:none" points="193.936,1423.18 2352.76,1423.18 "/>
<polyline clip-path="url(#clip790)" style="stroke:#000000; stroke-linecap:round; stroke-linejoin:round; stroke-width:4; stroke-opacity:1; fill:none" points="193.936,1423.18 193.936,1404.28 "/>
<polyline clip-path="url(#clip790)" style="stroke:#000000; stroke-linecap:round; stroke-linejoin:round; stroke-width:4; stroke-opacity:1; fill:none" points="625.7,1423.18 625.7,1404.28 "/>
<polyline clip-path="url(#clip790)" style="stroke:#000000; stroke-linecap:round; stroke-linejoin:round; stroke-width:4; stroke-opacity:1; fill:none" points="1057.46,1423.18 1057.46,1404.28 "/>
<polyline clip-path="url(#clip790)" style="stroke:#000000; stroke-linecap:round; stroke-linejoin:round; stroke-width:4; stroke-opacity:1; fill:none" points="1489.23,1423.18 1489.23,1404.28 "/>
<polyline clip-path="url(#clip790)" style="stroke:#000000; stroke-linecap:round; stroke-linejoin:round; stroke-width:4; stroke-opacity:1; fill:none" points="1920.99,1423.18 1920.99,1404.28 "/>
<polyline clip-path="url(#clip790)" style="stroke:#000000; stroke-linecap:round; stroke-linejoin:round; stroke-width:4; stroke-opacity:1; fill:none" points="2352.76,1423.18 2352.76,1404.28 "/>
<path clip-path="url(#clip790)" d="M193.936 1454.1 Q190.325 1454.1 188.496 1457.66 Q186.691 1461.2 186.691 1468.33 Q186.691 1475.44 188.496 1479.01 Q190.325 1482.55 193.936 1482.55 Q197.57 1482.55 199.376 1479.01 Q201.204 1475.44 201.204 1468.33 Q201.204 1461.2 199.376 1457.66 Q197.57 1454.1 193.936 1454.1 M193.936 1450.39 Q199.746 1450.39 202.802 1455 Q205.88 1459.58 205.88 1468.33 Q205.88 1477.06 202.802 1481.67 Q199.746 1486.25 193.936 1486.25 Q188.126 1486.25 185.047 1481.67 Q181.992 1477.06 181.992 1468.33 Q181.992 1459.58 185.047 1455 Q188.126 1450.39 193.936 1450.39 Z" fill="#000000" fill-rule="nonzero" fill-opacity="1" /><path clip-path="url(#clip790)" d="M620.353 1481.64 L636.672 1481.64 L636.672 1485.58 L614.728 1485.58 L614.728 1481.64 Q617.39 1478.89 621.973 1474.26 Q626.58 1469.61 627.76 1468.27 Q630.006 1465.74 630.885 1464.01 Q631.788 1462.25 631.788 1460.56 Q631.788 1457.8 629.843 1456.07 Q627.922 1454.33 624.82 1454.33 Q622.621 1454.33 620.168 1455.09 Q617.737 1455.86 614.959 1457.41 L614.959 1452.69 Q617.783 1451.55 620.237 1450.97 Q622.691 1450.39 624.728 1450.39 Q630.098 1450.39 633.293 1453.08 Q636.487 1455.77 636.487 1460.26 Q636.487 1462.39 635.677 1464.31 Q634.89 1466.2 632.783 1468.8 Q632.205 1469.47 629.103 1472.69 Q626.001 1475.88 620.353 1481.64 Z" fill="#000000" fill-rule="nonzero" fill-opacity="1" /><path clip-path="url(#clip790)" d="M1060.47 1455.09 L1048.67 1473.54 L1060.47 1473.54 L1060.47 1455.09 M1059.25 1451.02 L1065.13 1451.02 L1065.13 1473.54 L1070.06 1473.54 L1070.06 1477.43 L1065.13 1477.43 L1065.13 1485.58 L1060.47 1485.58 L1060.47 1477.43 L1044.87 1477.43 L1044.87 1472.92 L1059.25 1451.02 Z" fill="#000000" fill-rule="nonzero" fill-opacity="1" /><path clip-path="url(#clip790)" d="M1489.63 1466.44 Q1486.48 1466.44 1484.63 1468.59 Q1482.8 1470.74 1482.8 1474.49 Q1482.8 1478.22 1484.63 1480.39 Q1486.48 1482.55 1489.63 1482.55 Q1492.78 1482.55 1494.61 1480.39 Q1496.46 1478.22 1496.46 1474.49 Q1496.46 1470.74 1494.61 1468.59 Q1492.78 1466.44 1489.63 1466.44 M1498.92 1451.78 L1498.92 1456.04 Q1497.16 1455.21 1495.35 1454.77 Q1493.57 1454.33 1491.81 1454.33 Q1487.18 1454.33 1484.73 1457.45 Q1482.3 1460.58 1481.95 1466.9 Q1483.31 1464.89 1485.37 1463.82 Q1487.43 1462.73 1489.91 1462.73 Q1495.12 1462.73 1498.13 1465.9 Q1501.16 1469.05 1501.16 1474.49 Q1501.16 1479.82 1498.01 1483.03 Q1494.86 1486.25 1489.63 1486.25 Q1483.64 1486.25 1480.47 1481.67 Q1477.3 1477.06 1477.3 1468.33 Q1477.3 1460.14 1481.18 1455.28 Q1485.07 1450.39 1491.62 1450.39 Q1493.38 1450.39 1495.17 1450.74 Q1496.97 1451.09 1498.92 1451.78 Z" fill="#000000" fill-rule="nonzero" fill-opacity="1" /><path clip-path="url(#clip790)" d="M1920.99 1469.17 Q1917.66 1469.17 1915.74 1470.95 Q1913.84 1472.73 1913.84 1475.86 Q1913.84 1478.98 1915.74 1480.77 Q1917.66 1482.55 1920.99 1482.55 Q1924.33 1482.55 1926.25 1480.77 Q1928.17 1478.96 1928.17 1475.86 Q1928.17 1472.73 1926.25 1470.95 Q1924.35 1469.17 1920.99 1469.17 M1916.32 1467.18 Q1913.31 1466.44 1911.62 1464.38 Q1909.95 1462.32 1909.95 1459.35 Q1909.95 1455.21 1912.89 1452.8 Q1915.85 1450.39 1920.99 1450.39 Q1926.15 1450.39 1929.09 1452.8 Q1932.03 1455.21 1932.03 1459.35 Q1932.03 1462.32 1930.34 1464.38 Q1928.68 1466.44 1925.69 1467.18 Q1929.07 1467.96 1930.95 1470.26 Q1932.84 1472.55 1932.84 1475.86 Q1932.84 1480.88 1929.77 1483.57 Q1926.71 1486.25 1920.99 1486.25 Q1915.27 1486.25 1912.2 1483.57 Q1909.14 1480.88 1909.14 1475.86 Q1909.14 1472.55 1911.04 1470.26 Q1912.94 1467.96 1916.32 1467.18 M1914.6 1459.79 Q1914.6 1462.48 1916.27 1463.98 Q1917.96 1465.49 1920.99 1465.49 Q1924 1465.49 1925.69 1463.98 Q1927.4 1462.48 1927.4 1459.79 Q1927.4 1457.11 1925.69 1455.6 Q1924 1454.1 1920.99 1454.1 Q1917.96 1454.1 1916.27 1455.6 Q1914.6 1457.11 1914.6 1459.79 Z" fill="#000000" fill-rule="nonzero" fill-opacity="1" /><path clip-path="url(#clip790)" d="M2327.44 1481.64 L2335.08 1481.64 L2335.08 1455.28 L2326.77 1456.95 L2326.77 1452.69 L2335.04 1451.02 L2339.71 1451.02 L2339.71 1481.64 L2347.35 1481.64 L2347.35 1485.58 L2327.44 1485.58 L2327.44 1481.64 Z" fill="#000000" fill-rule="nonzero" fill-opacity="1" /><path clip-path="url(#clip790)" d="M2366.8 1454.1 Q2363.18 1454.1 2361.36 1457.66 Q2359.55 1461.2 2359.55 1468.33 Q2359.55 1475.44 2361.36 1479.01 Q2363.18 1482.55 2366.8 1482.55 Q2370.43 1482.55 2372.23 1479.01 Q2374.06 1475.44 2374.06 1468.33 Q2374.06 1461.2 2372.23 1457.66 Q2370.43 1454.1 2366.8 1454.1 M2366.8 1450.39 Q2372.61 1450.39 2375.66 1455 Q2378.74 1459.58 2378.74 1468.33 Q2378.74 1477.06 2375.66 1481.67 Q2372.61 1486.25 2366.8 1486.25 Q2360.99 1486.25 2357.91 1481.67 Q2354.85 1477.06 2354.85 1468.33 Q2354.85 1459.58 2357.91 1455 Q2360.99 1450.39 2366.8 1450.39 Z" fill="#000000" fill-rule="nonzero" fill-opacity="1" /><path clip-path="url(#clip790)" d="M1272.41 1522.27 L1272.41 1532.4 L1284.47 1532.4 L1284.47 1536.95 L1272.41 1536.95 L1272.41 1556.3 Q1272.41 1560.66 1273.58 1561.9 Q1274.79 1563.14 1278.45 1563.14 L1284.47 1563.14 L1284.47 1568.04 L1278.45 1568.04 Q1271.67 1568.04 1269.1 1565.53 Q1266.52 1562.98 1266.52 1556.3 L1266.52 1536.95 L1262.22 1536.95 L1262.22 1532.4 L1266.52 1532.4 L1266.52 1522.27 L1272.41 1522.27 Z" fill="#000000" fill-rule="nonzero" fill-opacity="1" /><polyline clip-path="url(#clip792)" style="stroke:#000000; stroke-linecap:round; stroke-linejoin:round; stroke-width:2; stroke-opacity:0.1; fill:none" points="193.936,1228.88 2352.76,1228.88 "/>
<polyline clip-path="url(#clip792)" style="stroke:#000000; stroke-linecap:round; stroke-linejoin:round; stroke-width:2; stroke-opacity:0.1; fill:none" points="193.936,1006.9 2352.76,1006.9 "/>
<polyline clip-path="url(#clip792)" style="stroke:#000000; stroke-linecap:round; stroke-linejoin:round; stroke-width:2; stroke-opacity:0.1; fill:none" points="193.936,784.922 2352.76,784.922 "/>
<polyline clip-path="url(#clip792)" style="stroke:#000000; stroke-linecap:round; stroke-linejoin:round; stroke-width:2; stroke-opacity:0.1; fill:none" points="193.936,562.944 2352.76,562.944 "/>
<polyline clip-path="url(#clip792)" style="stroke:#000000; stroke-linecap:round; stroke-linejoin:round; stroke-width:2; stroke-opacity:0.1; fill:none" points="193.936,340.967 2352.76,340.967 "/>
<polyline clip-path="url(#clip792)" style="stroke:#000000; stroke-linecap:round; stroke-linejoin:round; stroke-width:2; stroke-opacity:0.1; fill:none" points="193.936,118.989 2352.76,118.989 "/>
<polyline clip-path="url(#clip790)" style="stroke:#000000; stroke-linecap:round; stroke-linejoin:round; stroke-width:4; stroke-opacity:1; fill:none" points="193.936,1423.18 193.936,47.2441 "/>
<polyline clip-path="url(#clip790)" style="stroke:#000000; stroke-linecap:round; stroke-linejoin:round; stroke-width:4; stroke-opacity:1; fill:none" points="193.936,1228.88 212.834,1228.88 "/>
<polyline clip-path="url(#clip790)" style="stroke:#000000; stroke-linecap:round; stroke-linejoin:round; stroke-width:4; stroke-opacity:1; fill:none" points="193.936,1006.9 212.834,1006.9 "/>
<polyline clip-path="url(#clip790)" style="stroke:#000000; stroke-linecap:round; stroke-linejoin:round; stroke-width:4; stroke-opacity:1; fill:none" points="193.936,784.922 212.834,784.922 "/>
<polyline clip-path="url(#clip790)" style="stroke:#000000; stroke-linecap:round; stroke-linejoin:round; stroke-width:4; stroke-opacity:1; fill:none" points="193.936,562.944 212.834,562.944 "/>
<polyline clip-path="url(#clip790)" style="stroke:#000000; stroke-linecap:round; stroke-linejoin:round; stroke-width:4; stroke-opacity:1; fill:none" points="193.936,340.967 212.834,340.967 "/>
<polyline clip-path="url(#clip790)" style="stroke:#000000; stroke-linecap:round; stroke-linejoin:round; stroke-width:4; stroke-opacity:1; fill:none" points="193.936,118.989 212.834,118.989 "/>
<path clip-path="url(#clip790)" d="M50.9921 1229.33 L80.6679 1229.33 L80.6679 1233.26 L50.9921 1233.26 L50.9921 1229.33 Z" fill="#000000" fill-rule="nonzero" fill-opacity="1" /><path clip-path="url(#clip790)" d="M91.5706 1242.22 L99.2095 1242.22 L99.2095 1215.86 L90.8993 1217.52 L90.8993 1213.26 L99.1632 1211.6 L103.839 1211.6 L103.839 1242.22 L111.478 1242.22 L111.478 1246.16 L91.5706 1246.16 L91.5706 1242.22 Z" fill="#000000" fill-rule="nonzero" fill-opacity="1" /><path clip-path="url(#clip790)" d="M120.922 1240.28 L125.807 1240.28 L125.807 1246.16 L120.922 1246.16 L120.922 1240.28 Z" fill="#000000" fill-rule="nonzero" fill-opacity="1" /><path clip-path="url(#clip790)" d="M145.992 1214.68 Q142.381 1214.68 140.552 1218.24 Q138.746 1221.78 138.746 1228.91 Q138.746 1236.02 140.552 1239.58 Q142.381 1243.12 145.992 1243.12 Q149.626 1243.12 151.431 1239.58 Q153.26 1236.02 153.26 1228.91 Q153.26 1221.78 151.431 1218.24 Q149.626 1214.68 145.992 1214.68 M145.992 1210.97 Q151.802 1210.97 154.857 1215.58 Q157.936 1220.16 157.936 1228.91 Q157.936 1237.64 154.857 1242.24 Q151.802 1246.83 145.992 1246.83 Q140.181 1246.83 137.103 1242.24 Q134.047 1237.64 134.047 1228.91 Q134.047 1220.16 137.103 1215.58 Q140.181 1210.97 145.992 1210.97 Z" fill="#000000" fill-rule="nonzero" fill-opacity="1" /><path clip-path="url(#clip790)" d="M51.9875 1007.35 L81.6633 1007.35 L81.6633 1011.29 L51.9875 1011.29 L51.9875 1007.35 Z" fill="#000000" fill-rule="nonzero" fill-opacity="1" /><path clip-path="url(#clip790)" d="M101.756 992.698 Q98.1447 992.698 96.316 996.263 Q94.5104 999.804 94.5104 1006.93 Q94.5104 1014.04 96.316 1017.61 Q98.1447 1021.15 101.756 1021.15 Q105.39 1021.15 107.196 1017.61 Q109.024 1014.04 109.024 1006.93 Q109.024 999.804 107.196 996.263 Q105.39 992.698 101.756 992.698 M101.756 988.994 Q107.566 988.994 110.621 993.601 Q113.7 998.184 113.7 1006.93 Q113.7 1015.66 110.621 1020.27 Q107.566 1024.85 101.756 1024.85 Q95.9456 1024.85 92.8669 1020.27 Q89.8114 1015.66 89.8114 1006.93 Q89.8114 998.184 92.8669 993.601 Q95.9456 988.994 101.756 988.994 Z" fill="#000000" fill-rule="nonzero" fill-opacity="1" /><path clip-path="url(#clip790)" d="M121.918 1018.3 L126.802 1018.3 L126.802 1024.18 L121.918 1024.18 L121.918 1018.3 Z" fill="#000000" fill-rule="nonzero" fill-opacity="1" /><path clip-path="url(#clip790)" d="M137.033 989.619 L155.39 989.619 L155.39 993.554 L141.316 993.554 L141.316 1002.03 Q142.334 1001.68 143.353 1001.52 Q144.371 1001.33 145.39 1001.33 Q151.177 1001.33 154.556 1004.5 Q157.936 1007.67 157.936 1013.09 Q157.936 1018.67 154.464 1021.77 Q150.992 1024.85 144.672 1024.85 Q142.496 1024.85 140.228 1024.48 Q137.982 1024.11 135.575 1023.37 L135.575 1018.67 Q137.658 1019.8 139.881 1020.36 Q142.103 1020.92 144.58 1020.92 Q148.584 1020.92 150.922 1018.81 Q153.26 1016.7 153.26 1013.09 Q153.26 1009.48 150.922 1007.37 Q148.584 1005.27 144.58 1005.27 Q142.705 1005.27 140.83 1005.68 Q138.978 1006.1 137.033 1006.98 L137.033 989.619 Z" fill="#000000" fill-rule="nonzero" fill-opacity="1" /><path clip-path="url(#clip790)" d="M100.76 770.72 Q97.1493 770.72 95.3206 774.285 Q93.515 777.827 93.515 784.956 Q93.515 792.063 95.3206 795.628 Q97.1493 799.169 100.76 799.169 Q104.395 799.169 106.2 795.628 Q108.029 792.063 108.029 784.956 Q108.029 777.827 106.2 774.285 Q104.395 770.72 100.76 770.72 M100.76 767.017 Q106.571 767.017 109.626 771.623 Q112.705 776.206 112.705 784.956 Q112.705 793.683 109.626 798.29 Q106.571 802.873 100.76 802.873 Q94.9502 802.873 91.8715 798.29 Q88.816 793.683 88.816 784.956 Q88.816 776.206 91.8715 771.623 Q94.9502 767.017 100.76 767.017 Z" fill="#000000" fill-rule="nonzero" fill-opacity="1" /><path clip-path="url(#clip790)" d="M120.922 796.322 L125.807 796.322 L125.807 802.202 L120.922 802.202 L120.922 796.322 Z" fill="#000000" fill-rule="nonzero" fill-opacity="1" /><path clip-path="url(#clip790)" d="M145.992 770.72 Q142.381 770.72 140.552 774.285 Q138.746 777.827 138.746 784.956 Q138.746 792.063 140.552 795.628 Q142.381 799.169 145.992 799.169 Q149.626 799.169 151.431 795.628 Q153.26 792.063 153.26 784.956 Q153.26 777.827 151.431 774.285 Q149.626 770.72 145.992 770.72 M145.992 767.017 Q151.802 767.017 154.857 771.623 Q157.936 776.206 157.936 784.956 Q157.936 793.683 154.857 798.29 Q151.802 802.873 145.992 802.873 Q140.181 802.873 137.103 798.29 Q134.047 793.683 134.047 784.956 Q134.047 776.206 137.103 771.623 Q140.181 767.017 145.992 767.017 Z" fill="#000000" fill-rule="nonzero" fill-opacity="1" /><path clip-path="url(#clip790)" d="M101.756 548.743 Q98.1447 548.743 96.316 552.308 Q94.5104 555.849 94.5104 562.979 Q94.5104 570.085 96.316 573.65 Q98.1447 577.192 101.756 577.192 Q105.39 577.192 107.196 573.65 Q109.024 570.085 109.024 562.979 Q109.024 555.849 107.196 552.308 Q105.39 548.743 101.756 548.743 M101.756 545.039 Q107.566 545.039 110.621 549.646 Q113.7 554.229 113.7 562.979 Q113.7 571.706 110.621 576.312 Q107.566 580.895 101.756 580.895 Q95.9456 580.895 92.8669 576.312 Q89.8114 571.706 89.8114 562.979 Q89.8114 554.229 92.8669 549.646 Q95.9456 545.039 101.756 545.039 Z" fill="#000000" fill-rule="nonzero" fill-opacity="1" /><path clip-path="url(#clip790)" d="M121.918 574.344 L126.802 574.344 L126.802 580.224 L121.918 580.224 L121.918 574.344 Z" fill="#000000" fill-rule="nonzero" fill-opacity="1" /><path clip-path="url(#clip790)" d="M137.033 545.664 L155.39 545.664 L155.39 549.599 L141.316 549.599 L141.316 558.071 Q142.334 557.724 143.353 557.562 Q144.371 557.377 145.39 557.377 Q151.177 557.377 154.556 560.548 Q157.936 563.72 157.936 569.136 Q157.936 574.715 154.464 577.817 Q150.992 580.895 144.672 580.895 Q142.496 580.895 140.228 580.525 Q137.982 580.155 135.575 579.414 L135.575 574.715 Q137.658 575.849 139.881 576.405 Q142.103 576.96 144.58 576.96 Q148.584 576.96 150.922 574.854 Q153.26 572.747 153.26 569.136 Q153.26 565.525 150.922 563.419 Q148.584 561.312 144.58 561.312 Q142.705 561.312 140.83 561.729 Q138.978 562.145 137.033 563.025 L137.033 545.664 Z" fill="#000000" fill-rule="nonzero" fill-opacity="1" /><path clip-path="url(#clip790)" d="M91.5706 354.311 L99.2095 354.311 L99.2095 327.946 L90.8993 329.612 L90.8993 325.353 L99.1632 323.687 L103.839 323.687 L103.839 354.311 L111.478 354.311 L111.478 358.247 L91.5706 358.247 L91.5706 354.311 Z" fill="#000000" fill-rule="nonzero" fill-opacity="1" /><path clip-path="url(#clip790)" d="M120.922 352.367 L125.807 352.367 L125.807 358.247 L120.922 358.247 L120.922 352.367 Z" fill="#000000" fill-rule="nonzero" fill-opacity="1" /><path clip-path="url(#clip790)" d="M145.992 326.765 Q142.381 326.765 140.552 330.33 Q138.746 333.872 138.746 341.001 Q138.746 348.108 140.552 351.673 Q142.381 355.214 145.992 355.214 Q149.626 355.214 151.431 351.673 Q153.26 348.108 153.26 341.001 Q153.26 333.872 151.431 330.33 Q149.626 326.765 145.992 326.765 M145.992 323.062 Q151.802 323.062 154.857 327.668 Q157.936 332.251 157.936 341.001 Q157.936 349.728 154.857 354.335 Q151.802 358.918 145.992 358.918 Q140.181 358.918 137.103 354.335 Q134.047 349.728 134.047 341.001 Q134.047 332.251 137.103 327.668 Q140.181 323.062 145.992 323.062 Z" fill="#000000" fill-rule="nonzero" fill-opacity="1" /><path clip-path="url(#clip790)" d="M92.566 132.334 L100.205 132.334 L100.205 105.968 L91.8947 107.635 L91.8947 103.376 L100.159 101.709 L104.834 101.709 L104.834 132.334 L112.473 132.334 L112.473 136.269 L92.566 136.269 L92.566 132.334 Z" fill="#000000" fill-rule="nonzero" fill-opacity="1" /><path clip-path="url(#clip790)" d="M121.918 130.389 L126.802 130.389 L126.802 136.269 L121.918 136.269 L121.918 130.389 Z" fill="#000000" fill-rule="nonzero" fill-opacity="1" /><path clip-path="url(#clip790)" d="M137.033 101.709 L155.39 101.709 L155.39 105.644 L141.316 105.644 L141.316 114.116 Q142.334 113.769 143.353 113.607 Q144.371 113.422 145.39 113.422 Q151.177 113.422 154.556 116.593 Q157.936 119.764 157.936 125.181 Q157.936 130.76 154.464 133.862 Q150.992 136.94 144.672 136.94 Q142.496 136.94 140.228 136.57 Q137.982 136.2 135.575 135.459 L135.575 130.76 Q137.658 131.894 139.881 132.45 Q142.103 133.005 144.58 133.005 Q148.584 133.005 150.922 130.899 Q153.26 128.792 153.26 125.181 Q153.26 121.57 150.922 119.464 Q148.584 117.357 144.58 117.357 Q142.705 117.357 140.83 117.774 Q138.978 118.19 137.033 119.07 L137.033 101.709 Z" fill="#000000" fill-rule="nonzero" fill-opacity="1" /><polyline clip-path="url(#clip792)" style="stroke:#009af9; stroke-linecap:round; stroke-linejoin:round; stroke-width:4; stroke-opacity:1; fill:none" points="193.936,784.922 196.097,792.867 198.258,800.708 200.419,808.444 202.58,816.078 204.741,823.611 206.902,831.044 209.063,838.378 211.224,845.615 213.385,852.756 215.546,859.802 217.707,866.755 219.868,873.616 222.029,880.386 224.19,887.066 226.351,893.658 228.512,900.162 230.673,906.58 232.834,912.912 234.995,919.161 237.156,925.327 239.317,931.411 241.478,937.415 243.639,943.339 245.8,949.184 247.961,954.952 250.122,960.644 252.282,966.26 254.443,971.801 256.604,977.27 258.765,982.665 260.926,987.989 263.087,993.243 265.248,998.426 267.409,1003.54 269.57,1008.59 271.731,1013.57 273.892,1018.48 276.053,1023.33 278.214,1028.12 280.375,1032.84 282.536,1037.5 284.697,1042.1 286.858,1046.63 289.019,1051.11 291.18,1055.52 293.341,1059.88 295.502,1064.18 297.663,1068.43 299.824,1072.61 301.985,1076.74 304.146,1080.82 306.307,1084.84 308.468,1088.81 310.629,1092.73 312.79,1096.59 314.951,1100.41 317.112,1104.17 319.273,1107.88 321.434,1111.55 323.595,1115.16 325.756,1118.73 327.917,1122.25 330.078,1125.72 332.239,1129.15 334.4,1132.53 336.561,1135.87 338.722,1139.16 340.883,1142.41 343.044,1145.62 345.205,1148.78 347.366,1151.9 349.527,1154.98 351.688,1158.02 353.849,1161.02 356.01,1163.98 358.171,1166.9 360.332,1169.78 362.493,1172.63 364.653,1175.43 366.814,1178.2 368.975,1180.93 371.136,1183.63 373.297,1186.29 375.458,1188.91 377.619,1191.5 379.78,1194.06 381.941,1196.58 384.102,1199.07 386.263,1201.52 388.424,1203.94 390.585,1206.33 392.746,1208.69 394.907,1211.02 397.068,1213.32 399.229,1215.58 401.39,1217.82 403.551,1220.03 405.712,1222.2 407.873,1223.99 410.034,1223.53 412.195,1220.78 414.356,1216.02 416.517,1209.49 418.678,1201.44 420.839,1192.09 423,1181.65 425.161,1170.32 427.322,1158.29 429.483,1145.73 431.644,1132.79 433.805,1119.61 435.966,1106.32 438.127,1093.04 440.288,1079.86 442.449,1066.88 444.61,1054.17 446.771,1041.77 448.932,1029.75 451.093,1018.13 453.254,1006.92 455.415,996.136 457.576,985.759 459.737,975.766 461.898,966.118 464.059,956.764 466.22,947.635 468.381,938.652 470.542,929.72 472.703,920.731 474.864,911.599 477.024,902.53 479.185,893.582 481.346,884.752 483.507,876.039 485.668,867.442 487.829,858.959 489.99,850.589 492.151,842.329 494.312,834.179 496.473,826.137 498.634,818.201 500.795,810.371 502.956,802.645 505.117,795.02 507.278,787.497 509.439,780.074 511.6,772.749 513.761,765.52 515.922,758.388 518.083,751.35 520.244,744.406 522.405,737.554 524.566,730.792 526.727,724.121 528.888,717.537 531.049,711.041 533.21,704.632 535.371,698.307 537.532,692.066 539.693,685.909 541.854,679.832 544.015,673.837 546.176,667.921 548.337,662.083 550.498,656.323 552.659,650.639 554.82,645.031 556.981,639.497 559.142,634.036 561.303,628.648 563.464,623.331 565.625,618.085 567.786,612.908 569.947,607.8 572.108,602.759 574.269,597.785 576.43,592.877 578.591,588.034 580.752,583.256 582.913,578.54 585.074,573.888 587.235,569.296 589.396,564.766 591.556,560.296 593.717,555.885 595.878,551.532 598.039,547.238 600.2,543 602.361,538.818 604.522,534.692 606.683,530.62 608.844,526.603 611.005,522.639 613.166,518.727 615.327,514.867 617.488,511.058 619.649,507.3 621.81,503.592 623.971,499.963 626.132,497.293 628.293,495.879 630.454,495.574 632.615,496.244 634.776,497.757 636.937,499.994 639.098,502.839 641.259,506.187 643.42,509.939 645.581,514.003 647.742,518.296 649.903,522.743 652.064,527.273 654.225,531.828 656.386,536.353 658.547,540.804 660.708,545.142 662.869,549.336 665.03,553.365 667.191,557.213 669.352,560.872 671.513,564.343 673.674,567.633 675.835,570.757 677.996,573.739 680.157,576.609 682.318,579.404 684.479,582.171 686.64,584.963 688.801,587.841 690.962,590.769 693.123,593.659 695.284,596.51 697.445,599.324 699.606,602.1 701.767,604.839 703.927,607.542 706.088,610.21 708.249,612.841 710.41,615.438 712.571,618.001 714.732,620.53 716.893,623.025 719.054,625.487 721.215,627.916 723.376,630.313 725.537,632.678 727.698,635.012 729.859,637.316 732.02,639.589 734.181,641.831 736.342,644.044 738.503,646.228 740.664,648.383 742.825,650.509 744.986,652.607 747.147,654.677 749.308,656.72 751.469,658.736 753.63,660.724 755.791,662.687 757.952,664.623 760.113,666.534 762.274,668.419 764.435,670.279 766.596,672.115 768.757,673.926 770.918,675.713 773.079,677.477 775.24,679.217 777.401,680.933 779.562,682.627 781.723,684.299 783.884,685.948 786.045,687.576 788.206,689.182 790.367,690.766 792.528,692.33 794.689,693.872 796.85,695.395 799.011,696.897 801.172,698.379 803.333,699.842 805.494,701.285 807.655,702.709 809.816,704.114 811.977,705.501 814.138,706.869 816.298,708.219 818.459,709.552 820.62,710.866 822.781,712.164 824.942,713.444 827.103,714.707 829.264,715.954 831.425,717.184 833.586,718.397 835.747,719.595 837.908,720.577 840.069,721.685 842.23,725.428 844.391,730.35 846.552,735.09 848.713,739.767 850.874,744.381 853.035,748.935 855.196,753.428 857.357,757.861 859.518,762.236 861.679,766.553 863.84,770.812 866.001,775.015 868.162,779.162 870.323,783.255 872.484,787.293 874.645,791.277 876.806,795.209 878.967,799.088 881.128,802.916 883.289,806.694 885.45,810.421 887.611,814.099 889.772,817.728 891.933,821.309 894.094,824.843 896.255,828.329 898.416,831.77 900.577,835.164 902.738,838.514 904.899,841.82 907.06,845.081 909.221,848.3 911.382,851.475 913.543,854.609 915.704,857.701 917.865,860.752 920.026,863.763 922.187,866.733 924.348,869.665 926.509,872.557 928.669,875.411 930.83,878.227 932.991,881.006 935.152,883.748 937.313,886.454 939.474,889.124 941.635,891.758 943.796,894.358 945.957,896.923 948.118,899.454 950.279,901.951 952.44,904.415 954.601,906.847 956.762,909.247 958.923,911.614 961.084,913.95 963.245,916.256 965.406,918.531 967.567,920.775 969.728,922.99 971.889,925.175 974.05,927.332 976.211,929.46 978.372,931.559 980.533,933.631 982.694,935.676 984.855,937.693 987.016,939.683 989.177,941.647 991.338,943.585 993.499,945.498 995.66,947.385 997.821,949.247 999.982,951.084 1002.14,952.897 1004.3,954.686 1006.46,956.451 1008.63,958.193 1010.79,959.911 1012.95,961.607 1015.11,963.281 1017.27,964.932 1019.43,966.561 1021.59,968.169 1023.75,969.756 1025.91,971.321 1028.07,972.866 1030.24,974.39 1032.4,975.894 1034.56,977.378 1036.72,978.842 1038.88,980.287 1041.04,981.872 1043.2,983.777 1045.36,985.696 1047.52,987.369 1049.68,988.602 1051.85,989.264 1054.01,989.294 1056.17,988.692 1058.33,987.528 1060.49,985.934 1062.65,984.11 1064.81,982.321 1066.97,980.73 1069.13,979.168 1071.29,977.626 1073.46,976.105 1075.62,974.605 1077.78,973.124 1079.94,971.662 1082.1,970.22 1084.26,968.797 1086.42,967.393 1088.58,966.008 1090.74,964.641 1092.9,963.292 1095.07,961.961 1097.23,960.647 1099.39,959.351 1101.55,958.073 1103.71,956.811 1105.87,955.566 1108.03,954.337 1110.19,953.125 1112.35,951.929 1114.51,950.748 1116.67,949.584 1118.84,948.435 1121,947.301 1123.16,946.182 1125.32,945.078 1127.48,943.988 1129.64,942.913 1131.8,941.853 1133.96,940.806 1136.12,939.773 1138.28,938.754 1140.45,937.748 1142.61,936.756 1144.77,935.777 1146.93,934.811 1149.09,933.858 1151.25,932.917 1153.41,931.989 1155.57,931.073 1157.73,930.169 1159.89,929.277 1162.06,928.397 1164.22,927.529 1166.38,926.672 1168.54,925.826 1170.7,924.992 1172.86,924.169 1175.02,923.356 1177.18,922.555 1179.34,921.764 1181.5,920.984 1183.67,920.214 1185.83,919.454 1187.99,918.704 1190.15,917.964 1192.31,917.234 1194.47,916.514 1196.63,915.803 1198.79,915.102 1200.95,914.41 1203.11,913.727 1205.28,913.053 1207.44,912.388 1209.6,911.732 1211.76,911.085 1213.92,910.446 1216.08,909.816 1218.24,909.194 1220.4,908.58 1222.56,907.974 1224.72,907.377 1226.88,906.787 1229.05,906.205 1231.21,905.631 1233.37,905.065 1235.53,904.506 1237.69,903.954 1239.85,903.41 1242.01,902.873 1244.17,902.343 1246.33,901.82 1248.49,901.304 1250.66,900.795 1252.82,900.292 1254.98,899.797 1257.14,899.307 1259.3,898.825 1261.46,898.348 1263.62,897.879 1265.78,897.415 1267.94,896.957 1270.1,896.506 1272.27,896.064 1274.43,896.045 1276.59,896.667 1278.75,897.86 1280.91,899.556 1283.07,901.689 1285.23,904.198 1287.39,907.027 1289.55,910.121 1291.71,913.43 1293.88,916.907 1296.04,920.509 1298.2,924.196 1300.36,927.932 1302.52,931.685 1304.68,935.426 1306.84,939.13 1309,942.774 1311.16,946.341 1313.32,949.816 1315.49,953.188 1317.65,956.45 1319.81,959.598 1321.97,962.631 1324.13,965.553 1326.29,968.37 1328.45,971.094 1330.61,973.738 1332.77,976.319 1334.93,978.86 1337.09,981.383 1339.26,983.919 1341.42,986.493 1343.58,989.052 1345.74,991.578 1347.9,994.07 1350.06,996.529 1352.22,998.955 1354.38,1001.35 1356.54,1003.71 1358.7,1006.04 1360.87,1008.34 1363.03,1010.61 1365.19,1012.85 1367.35,1015.06 1369.51,1017.24 1371.67,1019.4 1373.83,1021.52 1375.99,1023.61 1378.15,1025.68 1380.31,1027.72 1382.48,1029.73 1384.64,1031.72 1386.8,1033.68 1388.96,1035.62 1391.12,1037.52 1393.28,1039.41 1395.44,1041.27 1397.6,1043.1 1399.76,1044.91 1401.92,1046.69 1404.09,1048.46 1406.25,1050.19 1408.41,1051.91 1410.57,1053.6 1412.73,1055.27 1414.89,1056.92 1417.05,1058.55 1419.21,1060.15 1421.37,1061.73 1423.53,1063.3 1425.7,1064.84 1427.86,1066.36 1430.02,1067.86 1432.18,1069.34 1434.34,1070.8 1436.5,1072.24 1438.66,1073.66 1440.82,1075.07 1442.98,1076.45 1445.14,1077.82 1447.3,1079.17 1449.47,1080.5 1451.63,1081.81 1453.79,1083.1 1455.95,1084.38 1458.11,1085.64 1460.27,1086.89 1462.43,1088.12 1464.59,1089.33 1466.75,1090.52 1468.91,1091.7 1471.08,1092.87 1473.24,1094.02 1475.4,1095.15 1477.56,1096.27 1479.72,1097.36 1481.88,1098.07 1484.04,1098.27 1486.2,1098 1488.36,1097.32 1490.52,1096.27 1492.69,1094.89 1494.85,1093.23 1497.01,1091.33 1499.17,1089.22 1501.33,1086.94 1503.49,1084.51 1505.65,1081.99 1507.81,1079.38 1509.97,1076.72 1512.13,1074.03 1514.3,1071.33 1516.46,1068.64 1518.62,1065.98 1520.78,1063.36 1522.94,1060.8 1525.1,1058.31 1527.26,1055.89 1529.42,1053.55 1531.58,1051.3 1533.74,1049.14 1535.91,1047.06 1538.07,1045.06 1540.23,1043.14 1542.39,1041.3 1544.55,1039.51 1546.71,1037.77 1548.87,1036.07 1551.03,1034.39 1553.19,1032.71 1555.35,1031.01 1557.51,1029.28 1559.68,1027.56 1561.84,1025.86 1564,1024.18 1566.16,1022.53 1568.32,1020.89 1570.48,1019.28 1572.64,1017.69 1574.8,1016.13 1576.96,1014.58 1579.12,1013.05 1581.29,1011.54 1583.45,1010.06 1585.61,1008.59 1587.77,1007.14 1589.93,1005.72 1592.09,1004.31 1594.25,1002.91 1596.41,1001.54 1598.57,1000.19 1600.73,998.852 1602.9,997.534 1605.06,996.233 1607.22,994.949 1609.38,993.682 1611.54,992.432 1613.7,991.199 1615.86,989.982 1618.02,988.781 1620.18,987.596 1622.34,986.427 1624.51,985.273 1626.67,984.134 1628.83,983.011 1630.99,981.902 1633.15,980.809 1635.31,979.729 1637.47,978.664 1639.63,977.613 1641.79,976.576 1643.95,975.553 1646.12,974.544 1648.28,973.548 1650.44,972.565 1652.6,971.595 1654.76,970.638 1656.92,969.693 1659.08,968.761 1661.24,967.842 1663.4,966.935 1665.56,966.039 1667.72,965.156 1669.89,964.284 1672.05,963.424 1674.21,962.576 1676.37,961.738 1678.53,960.912 1680.69,960.096 1682.85,959.292 1685.01,958.498 1687.17,957.714 1689.33,956.941 1691.5,956.178 1693.66,955.426 1695.82,954.683 1697.98,953.95 1700.14,952.222 1702.3,948.362 1704.46,942.677 1706.62,935.458 1708.78,926.976 1710.94,917.483 1713.11,907.209 1715.27,896.361 1717.43,885.13 1719.59,873.681 1721.75,862.162 1723.91,850.7 1726.07,839.398 1728.23,828.342 1730.39,817.596 1732.55,807.202 1734.72,797.181 1736.88,787.537 1739.04,778.249 1741.2,769.277 1743.36,760.56 1745.52,752.016 1747.68,743.544 1749.84,735.018 1752,726.422 1754.16,717.934 1756.33,709.558 1758.49,701.293 1760.65,693.138 1762.81,685.091 1764.97,677.151 1767.13,669.316 1769.29,661.585 1771.45,653.956 1773.61,646.429 1775.77,639.001 1777.93,631.672 1780.1,624.44 1782.26,617.303 1784.42,610.262 1786.58,603.313 1788.74,596.457 1790.9,589.691 1793.06,583.016 1795.22,576.428 1797.38,569.929 1799.54,563.515 1801.71,557.186 1803.87,550.942 1806.03,544.78 1808.19,538.7 1810.35,532.7 1812.51,526.781 1814.67,520.939 1816.83,515.175 1818.99,509.488 1821.15,503.876 1823.32,498.339 1825.48,492.874 1827.64,487.483 1829.8,482.163 1831.96,476.913 1834.12,471.733 1836.28,466.621 1838.44,461.578 1840.6,456.601 1842.76,451.69 1844.93,446.844 1847.09,442.063 1849.25,437.344 1851.41,432.689 1853.57,428.095 1855.73,423.561 1857.89,419.088 1860.05,414.675 1862.21,410.32 1864.37,406.022 1866.54,401.782 1868.7,397.597 1870.86,393.469 1873.02,389.395 1875.18,385.375 1877.34,381.408 1879.5,377.494 1881.66,373.632 1883.82,369.821 1885.98,366.061 1888.15,362.35 1890.31,358.689 1892.47,355.076 1894.63,351.511 1896.79,347.994 1898.95,344.523 1901.11,341.098 1903.27,337.718 1905.43,334.383 1907.59,331.093 1909.75,327.643 1911.92,323.068 1914.08,318.425 1916.24,314.828 1918.4,313.035 1920.56,313.445 1922.72,316.098 1924.88,320.679 1927.04,326.514 1929.2,332.571 1931.36,338 1933.53,343.319 1935.69,348.566 1937.85,353.744 1940.01,358.854 1942.17,363.896 1944.33,368.87 1946.49,373.78 1948.65,378.624 1950.81,383.403 1952.97,388.12 1955.14,392.774 1957.3,397.366 1959.46,401.898 1961.62,406.369 1963.78,410.781 1965.94,415.134 1968.1,419.43 1970.26,423.669 1972.42,427.851 1974.58,431.978 1976.75,436.05 1978.91,440.069 1981.07,444.033 1983.23,447.946 1985.39,451.806 1987.55,455.615 1989.71,459.374 1991.87,463.083 1994.03,466.742 1996.19,470.354 1998.36,473.917 2000.52,477.433 2002.68,480.902 2004.84,484.326 2007,487.704 2009.16,491.037 2011.32,494.326 2013.48,497.572 2015.64,500.774 2017.8,503.934 2019.96,507.053 2022.13,510.13 2024.29,513.166 2026.45,516.162 2028.61,519.118 2030.77,522.035 2032.93,524.913 2035.09,527.753 2037.25,530.556 2039.41,533.321 2041.57,536.05 2043.74,538.742 2045.9,541.399 2048.06,544.021 2050.22,546.607 2052.38,549.16 2054.54,551.678 2056.7,554.164 2058.86,556.616 2061.02,559.036 2063.18,561.423 2065.35,563.779 2067.51,566.104 2069.67,568.398 2071.83,570.662 2073.99,572.895 2076.15,575.099 2078.31,577.274 2080.47,579.42 2082.63,581.537 2084.79,583.627 2086.96,585.688 2089.12,587.723 2091.28,589.73 2093.44,591.711 2095.6,593.665 2097.76,595.594 2099.92,597.497 2102.08,599.375 2104.24,601.228 2106.4,603.056 2108.57,604.86 2110.73,606.64 2112.89,608.397 2115.05,610.13 2117.21,611.84 2119.37,613.528 2121.53,615.193 2123.69,616.836 2125.85,618.458 2128.01,620.058 2130.17,621.636 2132.34,623.194 2134.5,624.731 2136.66,626.494 2138.82,628.698 2140.98,631.29 2143.14,634.221 2145.3,637.446 2147.46,640.92 2149.62,644.601 2151.78,648.451 2153.95,652.433 2156.11,656.515 2158.27,660.665 2160.43,664.855 2162.59,669.06 2164.75,673.255 2166.91,677.421 2169.07,681.539 2171.23,685.595 2173.39,689.576 2175.56,693.471 2177.72,697.273 2179.88,700.977 2182.04,704.581 2184.2,708.085 2186.36,711.493 2188.52,714.809 2190.68,718.042 2192.84,721.203 2195,724.305 2197.17,727.363 2199.33,730.397 2201.49,733.428 2203.65,736.467 2205.81,739.472 2207.97,742.438 2210.13,745.364 2212.29,748.251 2214.45,751.101 2216.61,753.912 2218.78,756.686 2220.94,759.424 2223.1,762.125 2225.26,764.79 2227.42,767.42 2229.58,770.015 2231.74,772.576 2233.9,775.102 2236.06,777.596 2238.22,780.056 2240.38,782.483 2242.55,784.879 2244.71,787.242 2246.87,789.575 2249.03,791.876 2251.19,794.147 2253.35,796.388 2255.51,798.599 2257.67,800.781 2259.83,802.934 2261.99,805.058 2264.16,807.155 2266.32,809.223 2268.48,811.264 2270.64,813.278 2272.8,815.265 2274.96,817.226 2277.12,819.161 2279.28,821.07 2281.44,822.953 2283.6,824.812 2285.77,826.646 2287.93,828.456 2290.09,830.242 2292.25,832.004 2294.41,833.742 2296.57,835.458 2298.73,837.151 2300.89,838.821 2303.05,840.47 2305.21,842.096 2307.38,843.701 2309.54,845.285 2311.7,846.847 2313.86,848.389 2316.02,849.911 2318.18,851.412 2320.34,852.893 2322.5,854.355 2324.66,855.798 2326.82,857.221 2328.99,858.625 2331.15,860.011 2333.31,861.379 2335.47,862.728 2337.63,864.06 2339.79,865.373 2341.95,866.67 2344.11,867.949 2346.27,869.211 2348.43,870.457 2350.59,871.686 2352.76,872.899 "/>
<polyline clip-path="url(#clip792)" style="stroke:#e26f46; stroke-linecap:round; stroke-linejoin:round; stroke-width:4; stroke-opacity:1; fill:none" points="193.936,1384.24 196.097,1384.24 198.258,1384.24 200.419,1384.24 202.58,1384.24 204.741,1384.24 206.902,1384.24 209.063,1384.24 211.224,1384.24 213.385,1384.24 215.546,1384.24 217.707,1384.24 219.868,1384.24 222.029,1384.24 224.19,1384.24 226.351,1384.24 228.512,1384.24 230.673,1384.24 232.834,1384.24 234.995,1384.24 237.156,1384.24 239.317,1384.24 241.478,1384.24 243.639,1384.24 245.8,1384.24 247.961,1384.24 250.122,1384.24 252.282,1384.24 254.443,1384.24 256.604,1384.24 258.765,1384.24 260.926,1384.24 263.087,1384.24 265.248,1384.24 267.409,1384.24 269.57,1384.24 271.731,1384.24 273.892,1384.24 276.053,1384.24 278.214,1384.24 280.375,1384.24 282.536,1384.24 284.697,1384.24 286.858,1384.24 289.019,1384.24 291.18,1384.24 293.341,1384.24 295.502,1384.24 297.663,1384.24 299.824,1384.24 301.985,1384.24 304.146,1384.24 306.307,1384.24 308.468,1384.24 310.629,1384.24 312.79,1384.24 314.951,1384.24 317.112,1384.24 319.273,1384.24 321.434,1384.24 323.595,1384.24 325.756,1384.24 327.917,1384.24 330.078,1384.24 332.239,1384.24 334.4,1384.24 336.561,1384.24 338.722,1384.24 340.883,1384.24 343.044,1384.24 345.205,1384.24 347.366,1384.24 349.527,1384.24 351.688,1384.24 353.849,1384.24 356.01,1384.24 358.171,1384.24 360.332,1384.24 362.493,1384.24 364.653,1384.24 366.814,1384.24 368.975,1384.24 371.136,1384.24 373.297,1384.24 375.458,1384.24 377.619,1384.24 379.78,1384.24 381.941,1384.24 384.102,1384.24 386.263,1384.24 388.424,1384.24 390.585,1384.24 392.746,1384.24 394.907,1384.24 397.068,1384.24 399.229,1384.24 401.39,1384.24 403.551,1384.24 405.712,1384.24 407.873,1384.24 410.034,227.594 412.195,227.594 414.356,227.594 416.517,227.594 418.678,227.594 420.839,227.594 423,227.594 425.161,227.594 427.322,227.594 429.483,227.594 431.644,227.594 433.805,227.594 435.966,227.594 438.127,227.594 440.288,227.594 442.449,227.594 444.61,227.594 446.771,227.594 448.932,227.594 451.093,227.594 453.254,227.594 455.415,227.594 457.576,227.594 459.737,227.594 461.898,227.594 464.059,227.594 466.22,227.594 468.381,227.594 470.542,227.594 472.703,227.594 474.864,227.594 477.024,227.594 479.185,227.594 481.346,227.594 483.507,227.594 485.668,227.594 487.829,227.594 489.99,227.594 492.151,227.594 494.312,227.594 496.473,227.594 498.634,227.594 500.795,227.594 502.956,227.594 505.117,227.594 507.278,227.594 509.439,227.594 511.6,227.594 513.761,227.594 515.922,227.594 518.083,227.594 520.244,227.594 522.405,227.594 524.566,227.594 526.727,227.594 528.888,227.594 531.049,227.594 533.21,227.594 535.371,227.594 537.532,227.594 539.693,227.594 541.854,227.594 544.015,227.594 546.176,227.594 548.337,227.594 550.498,227.594 552.659,227.594 554.82,227.594 556.981,227.594 559.142,227.594 561.303,227.594 563.464,227.594 565.625,227.594 567.786,227.594 569.947,227.594 572.108,227.594 574.269,227.594 576.43,227.594 578.591,227.594 580.752,227.594 582.913,227.594 585.074,227.594 587.235,227.594 589.396,227.594 591.556,227.594 593.717,227.594 595.878,227.594 598.039,227.594 600.2,227.594 602.361,227.594 604.522,227.594 606.683,227.594 608.844,227.594 611.005,227.594 613.166,227.594 615.327,227.594 617.488,227.594 619.649,227.594 621.81,227.594 623.971,227.594 626.132,808.722 628.293,808.722 630.454,808.722 632.615,808.722 634.776,808.722 636.937,808.722 639.098,808.722 641.259,808.722 643.42,808.722 645.581,808.722 647.742,808.722 649.903,808.722 652.064,808.722 654.225,808.722 656.386,808.722 658.547,808.722 660.708,808.722 662.869,808.722 665.03,808.722 667.191,808.722 669.352,808.722 671.513,808.722 673.674,808.722 675.835,808.722 677.996,808.722 680.157,808.722 682.318,808.722 684.479,808.722 686.64,808.722 688.801,808.722 690.962,808.722 693.123,808.722 695.284,808.722 697.445,808.722 699.606,808.722 701.767,808.722 703.927,808.722 706.088,808.722 708.249,808.722 710.41,808.722 712.571,808.722 714.732,808.722 716.893,808.722 719.054,808.722 721.215,808.722 723.376,808.722 725.537,808.722 727.698,808.722 729.859,808.722 732.02,808.722 734.181,808.722 736.342,808.722 738.503,808.722 740.664,808.722 742.825,808.722 744.986,808.722 747.147,808.722 749.308,808.722 751.469,808.722 753.63,808.722 755.791,808.722 757.952,808.722 760.113,808.722 762.274,808.722 764.435,808.722 766.596,808.722 768.757,808.722 770.918,808.722 773.079,808.722 775.24,808.722 777.401,808.722 779.562,808.722 781.723,808.722 783.884,808.722 786.045,808.722 788.206,808.722 790.367,808.722 792.528,808.722 794.689,808.722 796.85,808.722 799.011,808.722 801.172,808.722 803.333,808.722 805.494,808.722 807.655,808.722 809.816,808.722 811.977,808.722 814.138,808.722 816.298,808.722 818.459,808.722 820.62,808.722 822.781,808.722 824.942,808.722 827.103,808.722 829.264,808.722 831.425,808.722 833.586,808.722 835.747,808.722 837.908,808.722 840.069,808.722 842.23,1087.83 844.391,1087.83 846.552,1087.83 848.713,1087.83 850.874,1087.83 853.035,1087.83 855.196,1087.83 857.357,1087.83 859.518,1087.83 861.679,1087.83 863.84,1087.83 866.001,1087.83 868.162,1087.83 870.323,1087.83 872.484,1087.83 874.645,1087.83 876.806,1087.83 878.967,1087.83 881.128,1087.83 883.289,1087.83 885.45,1087.83 887.611,1087.83 889.772,1087.83 891.933,1087.83 894.094,1087.83 896.255,1087.83 898.416,1087.83 900.577,1087.83 902.738,1087.83 904.899,1087.83 907.06,1087.83 909.221,1087.83 911.382,1087.83 913.543,1087.83 915.704,1087.83 917.865,1087.83 920.026,1087.83 922.187,1087.83 924.348,1087.83 926.509,1087.83 928.669,1087.83 930.83,1087.83 932.991,1087.83 935.152,1087.83 937.313,1087.83 939.474,1087.83 941.635,1087.83 943.796,1087.83 945.957,1087.83 948.118,1087.83 950.279,1087.83 952.44,1087.83 954.601,1087.83 956.762,1087.83 958.923,1087.83 961.084,1087.83 963.245,1087.83 965.406,1087.83 967.567,1087.83 969.728,1087.83 971.889,1087.83 974.05,1087.83 976.211,1087.83 978.372,1087.83 980.533,1087.83 982.694,1087.83 984.855,1087.83 987.016,1087.83 989.177,1087.83 991.338,1087.83 993.499,1087.83 995.66,1087.83 997.821,1087.83 999.982,1087.83 1002.14,1087.83 1004.3,1087.83 1006.46,1087.83 1008.63,1087.83 1010.79,1087.83 1012.95,1087.83 1015.11,1087.83 1017.27,1087.83 1019.43,1087.83 1021.59,1087.83 1023.75,1087.83 1025.91,1087.83 1028.07,1087.83 1030.24,1087.83 1032.4,1087.83 1034.56,1087.83 1036.72,1087.83 1038.88,1087.83 1041.04,1087.83 1043.2,1087.83 1045.36,1087.83 1047.52,1087.83 1049.68,1087.83 1051.85,1087.83 1054.01,1087.83 1056.17,1087.83 1058.33,862.902 1060.49,862.902 1062.65,862.902 1064.81,862.902 1066.97,862.902 1069.13,862.902 1071.29,862.902 1073.46,862.902 1075.62,862.902 1077.78,862.902 1079.94,862.902 1082.1,862.902 1084.26,862.902 1086.42,862.902 1088.58,862.902 1090.74,862.902 1092.9,862.902 1095.07,862.902 1097.23,862.902 1099.39,862.902 1101.55,862.902 1103.71,862.902 1105.87,862.902 1108.03,862.902 1110.19,862.902 1112.35,862.902 1114.51,862.902 1116.67,862.902 1118.84,862.902 1121,862.902 1123.16,862.902 1125.32,862.902 1127.48,862.902 1129.64,862.902 1131.8,862.902 1133.96,862.902 1136.12,862.902 1138.28,862.902 1140.45,862.902 1142.61,862.902 1144.77,862.902 1146.93,862.902 1149.09,862.902 1151.25,862.902 1153.41,862.902 1155.57,862.902 1157.73,862.902 1159.89,862.902 1162.06,862.902 1164.22,862.902 1166.38,862.902 1168.54,862.902 1170.7,862.902 1172.86,862.902 1175.02,862.902 1177.18,862.902 1179.34,862.902 1181.5,862.902 1183.67,862.902 1185.83,862.902 1187.99,862.902 1190.15,862.902 1192.31,862.902 1194.47,862.902 1196.63,862.902 1198.79,862.902 1200.95,862.902 1203.11,862.902 1205.28,862.902 1207.44,862.902 1209.6,862.902 1211.76,862.902 1213.92,862.902 1216.08,862.902 1218.24,862.902 1220.4,862.902 1222.56,862.902 1224.72,862.902 1226.88,862.902 1229.05,862.902 1231.21,862.902 1233.37,862.902 1235.53,862.902 1237.69,862.902 1239.85,862.902 1242.01,862.902 1244.17,862.902 1246.33,862.902 1248.49,862.902 1250.66,862.902 1252.82,862.902 1254.98,862.902 1257.14,862.902 1259.3,862.902 1261.46,862.902 1263.62,862.902 1265.78,862.902 1267.94,862.902 1270.1,862.902 1272.27,862.902 1274.43,1179.54 1276.59,1179.54 1278.75,1179.54 1280.91,1179.54 1283.07,1179.54 1285.23,1179.54 1287.39,1179.54 1289.55,1179.54 1291.71,1179.54 1293.88,1179.54 1296.04,1179.54 1298.2,1179.54 1300.36,1179.54 1302.52,1179.54 1304.68,1179.54 1306.84,1179.54 1309,1179.54 1311.16,1179.54 1313.32,1179.54 1315.49,1179.54 1317.65,1179.54 1319.81,1179.54 1321.97,1179.54 1324.13,1179.54 1326.29,1179.54 1328.45,1179.54 1330.61,1179.54 1332.77,1179.54 1334.93,1179.54 1337.09,1179.54 1339.26,1179.54 1341.42,1179.54 1343.58,1179.54 1345.74,1179.54 1347.9,1179.54 1350.06,1179.54 1352.22,1179.54 1354.38,1179.54 1356.54,1179.54 1358.7,1179.54 1360.87,1179.54 1363.03,1179.54 1365.19,1179.54 1367.35,1179.54 1369.51,1179.54 1371.67,1179.54 1373.83,1179.54 1375.99,1179.54 1378.15,1179.54 1380.31,1179.54 1382.48,1179.54 1384.64,1179.54 1386.8,1179.54 1388.96,1179.54 1391.12,1179.54 1393.28,1179.54 1395.44,1179.54 1397.6,1179.54 1399.76,1179.54 1401.92,1179.54 1404.09,1179.54 1406.25,1179.54 1408.41,1179.54 1410.57,1179.54 1412.73,1179.54 1414.89,1179.54 1417.05,1179.54 1419.21,1179.54 1421.37,1179.54 1423.53,1179.54 1425.7,1179.54 1427.86,1179.54 1430.02,1179.54 1432.18,1179.54 1434.34,1179.54 1436.5,1179.54 1438.66,1179.54 1440.82,1179.54 1442.98,1179.54 1445.14,1179.54 1447.3,1179.54 1449.47,1179.54 1451.63,1179.54 1453.79,1179.54 1455.95,1179.54 1458.11,1179.54 1460.27,1179.54 1462.43,1179.54 1464.59,1179.54 1466.75,1179.54 1468.91,1179.54 1471.08,1179.54 1473.24,1179.54 1475.4,1179.54 1477.56,1179.54 1479.72,1179.54 1481.88,1179.54 1484.04,1179.54 1486.2,1179.54 1488.36,1179.54 1490.52,899.405 1492.69,899.405 1494.85,899.405 1497.01,899.405 1499.17,899.405 1501.33,899.405 1503.49,899.405 1505.65,899.405 1507.81,899.405 1509.97,899.405 1512.13,899.405 1514.3,899.405 1516.46,899.405 1518.62,899.405 1520.78,899.405 1522.94,899.405 1525.1,899.405 1527.26,899.405 1529.42,899.405 1531.58,899.405 1533.74,899.405 1535.91,899.405 1538.07,899.405 1540.23,899.405 1542.39,899.405 1544.55,899.405 1546.71,899.405 1548.87,899.405 1551.03,899.405 1553.19,899.405 1555.35,899.405 1557.51,899.405 1559.68,899.405 1561.84,899.405 1564,899.405 1566.16,899.405 1568.32,899.405 1570.48,899.405 1572.64,899.405 1574.8,899.405 1576.96,899.405 1579.12,899.405 1581.29,899.405 1583.45,899.405 1585.61,899.405 1587.77,899.405 1589.93,899.405 1592.09,899.405 1594.25,899.405 1596.41,899.405 1598.57,899.405 1600.73,899.405 1602.9,899.405 1605.06,899.405 1607.22,899.405 1609.38,899.405 1611.54,899.405 1613.7,899.405 1615.86,899.405 1618.02,899.405 1620.18,899.405 1622.34,899.405 1624.51,899.405 1626.67,899.405 1628.83,899.405 1630.99,899.405 1633.15,899.405 1635.31,899.405 1637.47,899.405 1639.63,899.405 1641.79,899.405 1643.95,899.405 1646.12,899.405 1648.28,899.405 1650.44,899.405 1652.6,899.405 1654.76,899.405 1656.92,899.405 1659.08,899.405 1661.24,899.405 1663.4,899.405 1665.56,899.405 1667.72,899.405 1669.89,899.405 1672.05,899.405 1674.21,899.405 1676.37,899.405 1678.53,899.405 1680.69,899.405 1682.85,899.405 1685.01,899.405 1687.17,899.405 1689.33,899.405 1691.5,899.405 1693.66,899.405 1695.82,899.405 1697.98,899.405 1700.14,899.405 1702.3,899.405 1704.46,899.405 1706.62,86.1857 1708.78,86.1857 1710.94,86.1857 1713.11,86.1857 1715.27,86.1857 1717.43,86.1857 1719.59,86.1857 1721.75,86.1857 1723.91,86.1857 1726.07,86.1857 1728.23,86.1857 1730.39,86.1857 1732.55,86.1857 1734.72,86.1857 1736.88,86.1857 1739.04,86.1857 1741.2,86.1857 1743.36,86.1857 1745.52,86.1857 1747.68,86.1857 1749.84,86.1857 1752,86.1857 1754.16,86.1857 1756.33,86.1857 1758.49,86.1857 1760.65,86.1857 1762.81,86.1857 1764.97,86.1857 1767.13,86.1857 1769.29,86.1857 1771.45,86.1857 1773.61,86.1857 1775.77,86.1857 1777.93,86.1857 1780.1,86.1857 1782.26,86.1857 1784.42,86.1857 1786.58,86.1857 1788.74,86.1857 1790.9,86.1857 1793.06,86.1857 1795.22,86.1857 1797.38,86.1857 1799.54,86.1857 1801.71,86.1857 1803.87,86.1857 1806.03,86.1857 1808.19,86.1857 1810.35,86.1857 1812.51,86.1857 1814.67,86.1857 1816.83,86.1857 1818.99,86.1857 1821.15,86.1857 1823.32,86.1857 1825.48,86.1857 1827.64,86.1857 1829.8,86.1857 1831.96,86.1857 1834.12,86.1857 1836.28,86.1857 1838.44,86.1857 1840.6,86.1857 1842.76,86.1857 1844.93,86.1857 1847.09,86.1857 1849.25,86.1857 1851.41,86.1857 1853.57,86.1857 1855.73,86.1857 1857.89,86.1857 1860.05,86.1857 1862.21,86.1857 1864.37,86.1857 1866.54,86.1857 1868.7,86.1857 1870.86,86.1857 1873.02,86.1857 1875.18,86.1857 1877.34,86.1857 1879.5,86.1857 1881.66,86.1857 1883.82,86.1857 1885.98,86.1857 1888.15,86.1857 1890.31,86.1857 1892.47,86.1857 1894.63,86.1857 1896.79,86.1857 1898.95,86.1857 1901.11,86.1857 1903.27,86.1857 1905.43,86.1857 1907.59,86.1857 1909.75,86.1857 1911.92,86.1857 1914.08,86.1857 1916.24,86.1857 1918.4,86.1857 1920.56,86.1857 1922.72,739.131 1924.88,739.131 1927.04,739.131 1929.2,739.131 1931.36,739.131 1933.53,739.131 1935.69,739.131 1937.85,739.131 1940.01,739.131 1942.17,739.131 1944.33,739.131 1946.49,739.131 1948.65,739.131 1950.81,739.131 1952.97,739.131 1955.14,739.131 1957.3,739.131 1959.46,739.131 1961.62,739.131 1963.78,739.131 1965.94,739.131 1968.1,739.131 1970.26,739.131 1972.42,739.131 1974.58,739.131 1976.75,739.131 1978.91,739.131 1981.07,739.131 1983.23,739.131 1985.39,739.131 1987.55,739.131 1989.71,739.131 1991.87,739.131 1994.03,739.131 1996.19,739.131 1998.36,739.131 2000.52,739.131 2002.68,739.131 2004.84,739.131 2007,739.131 2009.16,739.131 2011.32,739.131 2013.48,739.131 2015.64,739.131 2017.8,739.131 2019.96,739.131 2022.13,739.131 2024.29,739.131 2026.45,739.131 2028.61,739.131 2030.77,739.131 2032.93,739.131 2035.09,739.131 2037.25,739.131 2039.41,739.131 2041.57,739.131 2043.74,739.131 2045.9,739.131 2048.06,739.131 2050.22,739.131 2052.38,739.131 2054.54,739.131 2056.7,739.131 2058.86,739.131 2061.02,739.131 2063.18,739.131 2065.35,739.131 2067.51,739.131 2069.67,739.131 2071.83,739.131 2073.99,739.131 2076.15,739.131 2078.31,739.131 2080.47,739.131 2082.63,739.131 2084.79,739.131 2086.96,739.131 2089.12,739.131 2091.28,739.131 2093.44,739.131 2095.6,739.131 2097.76,739.131 2099.92,739.131 2102.08,739.131 2104.24,739.131 2106.4,739.131 2108.57,739.131 2110.73,739.131 2112.89,739.131 2115.05,739.131 2117.21,739.131 2119.37,739.131 2121.53,739.131 2123.69,739.131 2125.85,739.131 2128.01,739.131 2130.17,739.131 2132.34,739.131 2134.5,739.131 2136.66,739.131 2138.82,963.156 2140.98,963.156 2143.14,963.156 2145.3,963.156 2147.46,963.156 2149.62,963.156 2151.78,963.156 2153.95,963.156 2156.11,963.156 2158.27,963.156 2160.43,963.156 2162.59,963.156 2164.75,963.156 2166.91,963.156 2169.07,963.156 2171.23,963.156 2173.39,963.156 2175.56,963.156 2177.72,963.156 2179.88,963.156 2182.04,963.156 2184.2,963.156 2186.36,963.156 2188.52,963.156 2190.68,963.156 2192.84,963.156 2195,963.156 2197.17,963.156 2199.33,963.156 2201.49,963.156 2203.65,963.156 2205.81,963.156 2207.97,963.156 2210.13,963.156 2212.29,963.156 2214.45,963.156 2216.61,963.156 2218.78,963.156 2220.94,963.156 2223.1,963.156 2225.26,963.156 2227.42,963.156 2229.58,963.156 2231.74,963.156 2233.9,963.156 2236.06,963.156 2238.22,963.156 2240.38,963.156 2242.55,963.156 2244.71,963.156 2246.87,963.156 2249.03,963.156 2251.19,963.156 2253.35,963.156 2255.51,963.156 2257.67,963.156 2259.83,963.156 2261.99,963.156 2264.16,963.156 2266.32,963.156 2268.48,963.156 2270.64,963.156 2272.8,963.156 2274.96,963.156 2277.12,963.156 2279.28,963.156 2281.44,963.156 2283.6,963.156 2285.77,963.156 2287.93,963.156 2290.09,963.156 2292.25,963.156 2294.41,963.156 2296.57,963.156 2298.73,963.156 2300.89,963.156 2303.05,963.156 2305.21,963.156 2307.38,963.156 2309.54,963.156 2311.7,963.156 2313.86,963.156 2316.02,963.156 2318.18,963.156 2320.34,963.156 2322.5,963.156 2324.66,963.156 2326.82,963.156 2328.99,963.156 2331.15,963.156 2333.31,963.156 2335.47,963.156 2337.63,963.156 2339.79,963.156 2341.95,963.156 2344.11,963.156 2346.27,963.156 2348.43,963.156 2350.59,963.156 2352.76,963.156 "/>
<path clip-path="url(#clip790)" d="M2039.77 1377.32 L2280.8 1377.32 L2280.8 1221.8 L2039.77 1221.8  Z" fill="#ffffff" fill-rule="evenodd" fill-opacity="1"/>
<polyline clip-path="url(#clip790)" style="stroke:#000000; stroke-linecap:round; stroke-linejoin:round; stroke-width:4; stroke-opacity:1; fill:none" points="2039.77,1377.32 2280.8,1377.32 2280.8,1221.8 2039.77,1221.8 2039.77,1377.32 "/>
<polyline clip-path="url(#clip790)" style="stroke:#009af9; stroke-linecap:round; stroke-linejoin:round; stroke-width:4; stroke-opacity:1; fill:none" points="2063.76,1273.64 2207.68,1273.64 "/>
<path clip-path="url(#clip790)" d="M2256.32 1264.99 L2246.95 1277.61 L2256.81 1290.92 L2251.79 1290.92 L2244.24 1280.73 L2236.69 1290.92 L2231.67 1290.92 L2241.74 1277.35 L2232.53 1264.99 L2237.55 1264.99 L2244.42 1274.23 L2251.3 1264.99 L2256.32 1264.99 Z" fill="#000000" fill-rule="nonzero" fill-opacity="1" /><polyline clip-path="url(#clip790)" style="stroke:#e26f46; stroke-linecap:round; stroke-linejoin:round; stroke-width:4; stroke-opacity:1; fill:none" points="2063.76,1325.48 2207.68,1325.48 "/>
<path clip-path="url(#clip790)" d="M2248.17 1306.74 L2248.17 1310.28 L2244.1 1310.28 Q2241.81 1310.28 2240.91 1311.2 Q2240.03 1312.13 2240.03 1314.54 L2240.03 1316.83 L2247.04 1316.83 L2247.04 1320.14 L2240.03 1320.14 L2240.03 1342.76 L2235.74 1342.76 L2235.74 1320.14 L2231.67 1320.14 L2231.67 1316.83 L2235.74 1316.83 L2235.74 1315.02 Q2235.74 1310.7 2237.76 1308.73 Q2239.77 1306.74 2244.15 1306.74 L2248.17 1306.74 Z" fill="#000000" fill-rule="nonzero" fill-opacity="1" /></svg>
