<?xml version="1.0" encoding="utf-8"?>
<svg xmlns="http://www.w3.org/2000/svg" xmlns:xlink="http://www.w3.org/1999/xlink" width="600" height="400" viewBox="0 0 2400 1600">
<defs>
  <clipPath id="clip220">
    <rect x="0" y="0" width="2400" height="1600"/>
  </clipPath>
</defs>
<path clip-path="url(#clip220)" d="M0 1600 L2400 1600 L2400 0 L0 0  Z" fill="#ffffff" fill-rule="evenodd" fill-opacity="1"/>
<defs>
  <clipPath id="clip221">
    <rect x="480" y="0" width="1681" height="1600"/>
  </clipPath>
</defs>
<path clip-path="url(#clip220)" d="M192.941 1423.18 L2352.76 1423.18 L2352.76 47.2441 L192.941 47.2441  Z" fill="#ffffff" fill-rule="evenodd" fill-opacity="1"/>
<defs>
  <clipPath id="clip222">
    <rect x="192" y="47" width="2161" height="1377"/>
  </clipPath>
</defs>
<polyline clip-path="url(#clip222)" style="stroke:#000000; stroke-linecap:round; stroke-linejoin:round; stroke-width:2; stroke-opacity:0.1; fill:none" points="192.941,1423.18 192.941,47.2441 "/>
<polyline clip-path="url(#clip222)" style="stroke:#000000; stroke-linecap:round; stroke-linejoin:round; stroke-width:2; stroke-opacity:0.1; fill:none" points="624.904,1423.18 624.904,47.2441 "/>
<polyline clip-path="url(#clip222)" style="stroke:#000000; stroke-linecap:round; stroke-linejoin:round; stroke-width:2; stroke-opacity:0.1; fill:none" points="1056.87,1423.18 1056.87,47.2441 "/>
<polyline clip-path="url(#clip222)" style="stroke:#000000; stroke-linecap:round; stroke-linejoin:round; stroke-width:2; stroke-opacity:0.1; fill:none" points="1488.83,1423.18 1488.83,47.2441 "/>
<polyline clip-path="url(#clip222)" style="stroke:#000000; stroke-linecap:round; stroke-linejoin:round; stroke-width:2; stroke-opacity:0.1; fill:none" points="1920.79,1423.18 1920.79,47.2441 "/>
<polyline clip-path="url(#clip222)" style="stroke:#000000; stroke-linecap:round; stroke-linejoin:round; stroke-width:2; stroke-opacity:0.1; fill:none" points="2352.76,1423.18 2352.76,47.2441 "/>
<polyline clip-path="url(#clip220)" style="stroke:#000000; stroke-linecap:round; stroke-linejoin:round; stroke-width:4; stroke-opacity:1; fill:none" points="192.941,1423.18 2352.76,1423.18 "/>
<polyline clip-path="url(#clip220)" style="stroke:#000000; stroke-linecap:round; stroke-linejoin:round; stroke-width:4; stroke-opacity:1; fill:none" points="192.941,1423.18 192.941,1404.28 "/>
<polyline clip-path="url(#clip220)" style="stroke:#000000; stroke-linecap:round; stroke-linejoin:round; stroke-width:4; stroke-opacity:1; fill:none" points="624.904,1423.18 624.904,1404.28 "/>
<polyline clip-path="url(#clip220)" style="stroke:#000000; stroke-linecap:round; stroke-linejoin:round; stroke-width:4; stroke-opacity:1; fill:none" points="1056.87,1423.18 1056.87,1404.28 "/>
<polyline clip-path="url(#clip220)" style="stroke:#000000; stroke-linecap:round; stroke-linejoin:round; stroke-width:4; stroke-opacity:1; fill:none" points="1488.83,1423.18 1488.83,1404.28 "/>
<polyline clip-path="url(#clip220)" style="stroke:#000000; stroke-linecap:round; stroke-linejoin:round; stroke-width:4; stroke-opacity:1; fill:none" points="1920.79,1423.18 1920.79,1404.28 "/>
<polyline clip-path="url(#clip220)" style="stroke:#000000; stroke-linecap:round; stroke-linejoin:round; stroke-width:4; stroke-opacity:1; fill:none" points="2352.76,1423.18 2352.76,1404.28 "/>
<path clip-path="url(#clip220)" d="M192.941 1454.1 Q189.33 1454.1 187.501 1457.66 Q185.695 1461.2 185.695 1468.33 Q185.695 1475.44 187.501 1479.01 Q189.33 1482.55 192.941 1482.55 Q196.575 1482.55 198.38 1479.01 Q200.209 1475.44 200.209 1468.33 Q200.209 1461.2 198.38 1457.66 Q196.575 1454.1 192.941 1454.1 M192.941 1450.39 Q198.751 1450.39 201.806 1455 Q204.885 1459.58 204.885 1468.33 Q204.885 1477.06 201.806 1481.67 Q198.751 1486.25 192.941 1486.25 Q187.13 1486.25 184.052 1481.67 Q180.996 1477.06 180.996 1468.33 Q180.996 1459.58 184.052 1455 Q187.13 1450.39 192.941 1450.39 Z" fill="#000000" fill-rule="nonzero" fill-opacity="1" /><path clip-path="url(#clip220)" d="M619.556 1481.64 L635.876 1481.64 L635.876 1485.58 L613.932 1485.58 L613.932 1481.64 Q616.594 1478.89 621.177 1474.26 Q625.783 1469.61 626.964 1468.27 Q629.209 1465.74 630.089 1464.01 Q630.992 1462.25 630.992 1460.56 Q630.992 1457.8 629.047 1456.07 Q627.126 1454.33 624.024 1454.33 Q621.825 1454.33 619.371 1455.09 Q616.941 1455.86 614.163 1457.41 L614.163 1452.69 Q616.987 1451.55 619.441 1450.97 Q621.894 1450.39 623.931 1450.39 Q629.302 1450.39 632.496 1453.08 Q635.691 1455.77 635.691 1460.26 Q635.691 1462.39 634.88 1464.31 Q634.093 1466.2 631.987 1468.8 Q631.408 1469.47 628.306 1472.69 Q625.205 1475.88 619.556 1481.64 Z" fill="#000000" fill-rule="nonzero" fill-opacity="1" /><path clip-path="url(#clip220)" d="M1059.88 1455.09 L1048.07 1473.54 L1059.88 1473.54 L1059.88 1455.09 M1058.65 1451.02 L1064.53 1451.02 L1064.53 1473.54 L1069.46 1473.54 L1069.46 1477.43 L1064.53 1477.43 L1064.53 1485.58 L1059.88 1485.58 L1059.88 1477.43 L1044.27 1477.43 L1044.27 1472.92 L1058.65 1451.02 Z" fill="#000000" fill-rule="nonzero" fill-opacity="1" /><path clip-path="url(#clip220)" d="M1489.23 1466.44 Q1486.09 1466.44 1484.23 1468.59 Q1482.41 1470.74 1482.41 1474.49 Q1482.41 1478.22 1484.23 1480.39 Q1486.09 1482.55 1489.23 1482.55 Q1492.38 1482.55 1494.21 1480.39 Q1496.06 1478.22 1496.06 1474.49 Q1496.06 1470.74 1494.21 1468.59 Q1492.38 1466.44 1489.23 1466.44 M1498.52 1451.78 L1498.52 1456.04 Q1496.76 1455.21 1494.95 1454.77 Q1493.17 1454.33 1491.41 1454.33 Q1486.78 1454.33 1484.33 1457.45 Q1481.9 1460.58 1481.55 1466.9 Q1482.92 1464.89 1484.98 1463.82 Q1487.04 1462.73 1489.51 1462.73 Q1494.72 1462.73 1497.73 1465.9 Q1500.76 1469.05 1500.76 1474.49 Q1500.76 1479.82 1497.61 1483.03 Q1494.47 1486.25 1489.23 1486.25 Q1483.24 1486.25 1480.07 1481.67 Q1476.9 1477.06 1476.9 1468.33 Q1476.9 1460.14 1480.79 1455.28 Q1484.67 1450.39 1491.23 1450.39 Q1492.98 1450.39 1494.77 1450.74 Q1496.57 1451.09 1498.52 1451.78 Z" fill="#000000" fill-rule="nonzero" fill-opacity="1" /><path clip-path="url(#clip220)" d="M1920.79 1469.17 Q1917.46 1469.17 1915.54 1470.95 Q1913.64 1472.73 1913.64 1475.86 Q1913.64 1478.98 1915.54 1480.77 Q1917.46 1482.55 1920.79 1482.55 Q1924.13 1482.55 1926.05 1480.77 Q1927.97 1478.96 1927.97 1475.86 Q1927.97 1472.73 1926.05 1470.95 Q1924.15 1469.17 1920.79 1469.17 M1916.12 1467.18 Q1913.11 1466.44 1911.42 1464.38 Q1909.75 1462.32 1909.75 1459.35 Q1909.75 1455.21 1912.69 1452.8 Q1915.65 1450.39 1920.79 1450.39 Q1925.95 1450.39 1928.89 1452.8 Q1931.83 1455.21 1931.83 1459.35 Q1931.83 1462.32 1930.14 1464.38 Q1928.48 1466.44 1925.49 1467.18 Q1928.87 1467.96 1930.75 1470.26 Q1932.64 1472.55 1932.64 1475.86 Q1932.64 1480.88 1929.57 1483.57 Q1926.51 1486.25 1920.79 1486.25 Q1915.08 1486.25 1912 1483.57 Q1908.94 1480.88 1908.94 1475.86 Q1908.94 1472.55 1910.84 1470.26 Q1912.74 1467.96 1916.12 1467.18 M1914.4 1459.79 Q1914.4 1462.48 1916.07 1463.98 Q1917.76 1465.49 1920.79 1465.49 Q1923.8 1465.49 1925.49 1463.98 Q1927.2 1462.48 1927.2 1459.79 Q1927.2 1457.11 1925.49 1455.6 Q1923.8 1454.1 1920.79 1454.1 Q1917.76 1454.1 1916.07 1455.6 Q1914.4 1457.11 1914.4 1459.79 Z" fill="#000000" fill-rule="nonzero" fill-opacity="1" /><path clip-path="url(#clip220)" d="M2327.44 1481.64 L2335.08 1481.64 L2335.08 1455.28 L2326.77 1456.95 L2326.77 1452.69 L2335.04 1451.02 L2339.71 1451.02 L2339.71 1481.64 L2347.35 1481.64 L2347.35 1485.58 L2327.44 1485.58 L2327.44 1481.64 Z" fill="#000000" fill-rule="nonzero" fill-opacity="1" /><path clip-path="url(#clip220)" d="M2366.8 1454.1 Q2363.18 1454.1 2361.36 1457.66 Q2359.55 1461.2 2359.55 1468.33 Q2359.55 1475.44 2361.36 1479.01 Q2363.18 1482.55 2366.8 1482.55 Q2370.43 1482.55 2372.23 1479.01 Q2374.06 1475.44 2374.06 1468.33 Q2374.06 1461.2 2372.23 1457.66 Q2370.43 1454.1 2366.8 1454.1 M2366.8 1450.39 Q2372.61 1450.39 2375.66 1455 Q2378.74 1459.58 2378.74 1468.33 Q2378.74 1477.06 2375.66 1481.67 Q2372.61 1486.25 2366.8 1486.25 Q2360.99 1486.25 2357.91 1481.67 Q2354.85 1477.06 2354.85 1468.33 Q2354.85 1459.58 2357.91 1455 Q2360.99 1450.39 2366.8 1450.39 Z" fill="#000000" fill-rule="nonzero" fill-opacity="1" /><path clip-path="url(#clip220)" d="M1271.91 1522.27 L1271.91 1532.4 L1283.97 1532.4 L1283.97 1536.95 L1271.91 1536.95 L1271.91 1556.3 Q1271.91 1560.66 1273.09 1561.9 Q1274.3 1563.14 1277.96 1563.14 L1283.97 1563.14 L1283.97 1568.04 L1277.96 1568.04 Q1271.18 1568.04 1268.6 1565.53 Q1266.02 1562.98 1266.02 1556.3 L1266.02 1536.95 L1261.72 1536.95 L1261.72 1532.4 L1266.02 1532.4 L1266.02 1522.27 L1271.91 1522.27 Z" fill="#000000" fill-rule="nonzero" fill-opacity="1" /><polyline clip-path="url(#clip222)" style="stroke:#000000; stroke-linecap:round; stroke-linejoin:round; stroke-width:2; stroke-opacity:0.1; fill:none" points="192.941,1411.55 2352.76,1411.55 "/>
<polyline clip-path="url(#clip222)" style="stroke:#000000; stroke-linecap:round; stroke-linejoin:round; stroke-width:2; stroke-opacity:0.1; fill:none" points="192.941,1055.69 2352.76,1055.69 "/>
<polyline clip-path="url(#clip222)" style="stroke:#000000; stroke-linecap:round; stroke-linejoin:round; stroke-width:2; stroke-opacity:0.1; fill:none" points="192.941,699.829 2352.76,699.829 "/>
<polyline clip-path="url(#clip222)" style="stroke:#000000; stroke-linecap:round; stroke-linejoin:round; stroke-width:2; stroke-opacity:0.1; fill:none" points="192.941,343.969 2352.76,343.969 "/>
<polyline clip-path="url(#clip220)" style="stroke:#000000; stroke-linecap:round; stroke-linejoin:round; stroke-width:4; stroke-opacity:1; fill:none" points="192.941,1423.18 192.941,47.2441 "/>
<polyline clip-path="url(#clip220)" style="stroke:#000000; stroke-linecap:round; stroke-linejoin:round; stroke-width:4; stroke-opacity:1; fill:none" points="192.941,1411.55 211.838,1411.55 "/>
<polyline clip-path="url(#clip220)" style="stroke:#000000; stroke-linecap:round; stroke-linejoin:round; stroke-width:4; stroke-opacity:1; fill:none" points="192.941,1055.69 211.838,1055.69 "/>
<polyline clip-path="url(#clip220)" style="stroke:#000000; stroke-linecap:round; stroke-linejoin:round; stroke-width:4; stroke-opacity:1; fill:none" points="192.941,699.829 211.838,699.829 "/>
<polyline clip-path="url(#clip220)" style="stroke:#000000; stroke-linecap:round; stroke-linejoin:round; stroke-width:4; stroke-opacity:1; fill:none" points="192.941,343.969 211.838,343.969 "/>
<path clip-path="url(#clip220)" d="M50.9921 1412 L80.6679 1412 L80.6679 1415.94 L50.9921 1415.94 L50.9921 1412 Z" fill="#000000" fill-rule="nonzero" fill-opacity="1" /><path clip-path="url(#clip220)" d="M100.76 1397.35 Q97.1493 1397.35 95.3206 1400.91 Q93.515 1404.46 93.515 1411.59 Q93.515 1418.69 95.3206 1422.26 Q97.1493 1425.8 100.76 1425.8 Q104.395 1425.8 106.2 1422.26 Q108.029 1418.69 108.029 1411.59 Q108.029 1404.46 106.2 1400.91 Q104.395 1397.35 100.76 1397.35 M100.76 1393.65 Q106.571 1393.65 109.626 1398.25 Q112.705 1402.84 112.705 1411.59 Q112.705 1420.31 109.626 1424.92 Q106.571 1429.5 100.76 1429.5 Q94.9502 1429.5 91.8715 1424.92 Q88.816 1420.31 88.816 1411.59 Q88.816 1402.84 91.8715 1398.25 Q94.9502 1393.65 100.76 1393.65 Z" fill="#000000" fill-rule="nonzero" fill-opacity="1" /><path clip-path="url(#clip220)" d="M120.922 1422.95 L125.807 1422.95 L125.807 1428.83 L120.922 1428.83 L120.922 1422.95 Z" fill="#000000" fill-rule="nonzero" fill-opacity="1" /><path clip-path="url(#clip220)" d="M136.038 1394.27 L154.394 1394.27 L154.394 1398.21 L140.32 1398.21 L140.32 1406.68 Q141.339 1406.33 142.357 1406.17 Q143.376 1405.98 144.394 1405.98 Q150.181 1405.98 153.561 1409.15 Q156.941 1412.33 156.941 1417.74 Q156.941 1423.32 153.468 1426.42 Q149.996 1429.5 143.677 1429.5 Q141.501 1429.5 139.232 1429.13 Q136.987 1428.76 134.58 1428.02 L134.58 1423.32 Q136.663 1424.46 138.885 1425.01 Q141.107 1425.57 143.584 1425.57 Q147.589 1425.57 149.927 1423.46 Q152.265 1421.35 152.265 1417.74 Q152.265 1414.13 149.927 1412.03 Q147.589 1409.92 143.584 1409.92 Q141.709 1409.92 139.834 1410.34 Q137.982 1410.75 136.038 1411.63 L136.038 1394.27 Z" fill="#000000" fill-rule="nonzero" fill-opacity="1" /><path clip-path="url(#clip220)" d="M99.765 1041.49 Q96.1539 1041.49 94.3252 1045.05 Q92.5197 1048.6 92.5197 1055.72 Q92.5197 1062.83 94.3252 1066.4 Q96.1539 1069.94 99.765 1069.94 Q103.399 1069.94 105.205 1066.4 Q107.033 1062.83 107.033 1055.72 Q107.033 1048.6 105.205 1045.05 Q103.399 1041.49 99.765 1041.49 M99.765 1037.79 Q105.575 1037.79 108.631 1042.39 Q111.709 1046.97 111.709 1055.72 Q111.709 1064.45 108.631 1069.06 Q105.575 1073.64 99.765 1073.64 Q93.9549 1073.64 90.8762 1069.06 Q87.8206 1064.45 87.8206 1055.72 Q87.8206 1046.97 90.8762 1042.39 Q93.9549 1037.79 99.765 1037.79 Z" fill="#000000" fill-rule="nonzero" fill-opacity="1" /><path clip-path="url(#clip220)" d="M119.927 1067.09 L124.811 1067.09 L124.811 1072.97 L119.927 1072.97 L119.927 1067.09 Z" fill="#000000" fill-rule="nonzero" fill-opacity="1" /><path clip-path="url(#clip220)" d="M144.996 1041.49 Q141.385 1041.49 139.556 1045.05 Q137.751 1048.6 137.751 1055.72 Q137.751 1062.83 139.556 1066.4 Q141.385 1069.94 144.996 1069.94 Q148.63 1069.94 150.436 1066.4 Q152.265 1062.83 152.265 1055.72 Q152.265 1048.6 150.436 1045.05 Q148.63 1041.49 144.996 1041.49 M144.996 1037.79 Q150.806 1037.79 153.862 1042.39 Q156.941 1046.97 156.941 1055.72 Q156.941 1064.45 153.862 1069.06 Q150.806 1073.64 144.996 1073.64 Q139.186 1073.64 136.107 1069.06 Q133.052 1064.45 133.052 1055.72 Q133.052 1046.97 136.107 1042.39 Q139.186 1037.79 144.996 1037.79 Z" fill="#000000" fill-rule="nonzero" fill-opacity="1" /><path clip-path="url(#clip220)" d="M100.76 685.628 Q97.1493 685.628 95.3206 689.193 Q93.515 692.735 93.515 699.864 Q93.515 706.971 95.3206 710.535 Q97.1493 714.077 100.76 714.077 Q104.395 714.077 106.2 710.535 Q108.029 706.971 108.029 699.864 Q108.029 692.735 106.2 689.193 Q104.395 685.628 100.76 685.628 M100.76 681.924 Q106.571 681.924 109.626 686.531 Q112.705 691.114 112.705 699.864 Q112.705 708.591 109.626 713.197 Q106.571 717.781 100.76 717.781 Q94.9502 717.781 91.8715 713.197 Q88.816 708.591 88.816 699.864 Q88.816 691.114 91.8715 686.531 Q94.9502 681.924 100.76 681.924 Z" fill="#000000" fill-rule="nonzero" fill-opacity="1" /><path clip-path="url(#clip220)" d="M120.922 711.23 L125.807 711.23 L125.807 717.109 L120.922 717.109 L120.922 711.23 Z" fill="#000000" fill-rule="nonzero" fill-opacity="1" /><path clip-path="url(#clip220)" d="M136.038 682.549 L154.394 682.549 L154.394 686.485 L140.32 686.485 L140.32 694.957 Q141.339 694.61 142.357 694.448 Q143.376 694.262 144.394 694.262 Q150.181 694.262 153.561 697.434 Q156.941 700.605 156.941 706.022 Q156.941 711.6 153.468 714.702 Q149.996 717.781 143.677 717.781 Q141.501 717.781 139.232 717.41 Q136.987 717.04 134.58 716.299 L134.58 711.6 Q136.663 712.734 138.885 713.29 Q141.107 713.846 143.584 713.846 Q147.589 713.846 149.927 711.739 Q152.265 709.633 152.265 706.022 Q152.265 702.41 149.927 700.304 Q147.589 698.198 143.584 698.198 Q141.709 698.198 139.834 698.614 Q137.982 699.031 136.038 699.91 L136.038 682.549 Z" fill="#000000" fill-rule="nonzero" fill-opacity="1" /><path clip-path="url(#clip220)" d="M90.5752 357.314 L98.2141 357.314 L98.2141 330.948 L89.904 332.615 L89.904 328.355 L98.1678 326.689 L102.844 326.689 L102.844 357.314 L110.483 357.314 L110.483 361.249 L90.5752 361.249 L90.5752 357.314 Z" fill="#000000" fill-rule="nonzero" fill-opacity="1" /><path clip-path="url(#clip220)" d="M119.927 355.369 L124.811 355.369 L124.811 361.249 L119.927 361.249 L119.927 355.369 Z" fill="#000000" fill-rule="nonzero" fill-opacity="1" /><path clip-path="url(#clip220)" d="M144.996 329.768 Q141.385 329.768 139.556 333.332 Q137.751 336.874 137.751 344.004 Q137.751 351.11 139.556 354.675 Q141.385 358.216 144.996 358.216 Q148.63 358.216 150.436 354.675 Q152.265 351.11 152.265 344.004 Q152.265 336.874 150.436 333.332 Q148.63 329.768 144.996 329.768 M144.996 326.064 Q150.806 326.064 153.862 330.67 Q156.941 335.254 156.941 344.004 Q156.941 352.73 153.862 357.337 Q150.806 361.92 144.996 361.92 Q139.186 361.92 136.107 357.337 Q133.052 352.73 133.052 344.004 Q133.052 335.254 136.107 330.67 Q139.186 326.064 144.996 326.064 Z" fill="#000000" fill-rule="nonzero" fill-opacity="1" /><polyline clip-path="url(#clip222)" style="stroke:#009af9; stroke-linecap:round; stroke-linejoin:round; stroke-width:4; stroke-opacity:1; fill:none" points="192.941,1055.69 195.103,1042.84 197.265,1030.15 199.427,1017.64 201.589,1005.29 203.751,993.103 205.912,981.079 208.074,969.215 210.236,957.508 212.398,945.956 214.56,934.557 216.722,923.309 218.884,912.211 221.046,901.259 223.208,890.453 225.37,879.79 227.532,869.268 229.694,858.886 231.856,848.642 234.018,838.533 236.18,828.558 238.342,818.716 240.504,809.004 242.666,799.421 244.828,789.965 246.99,780.634 249.152,771.427 251.314,762.342 253.476,753.378 255.638,744.532 257.8,735.804 259.962,727.191 262.124,718.693 264.286,710.307 266.448,702.032 268.61,693.867 270.772,685.811 272.934,677.861 275.096,670.016 277.258,662.276 279.42,654.638 281.582,647.101 283.744,639.665 285.906,632.327 288.068,625.086 290.23,617.941 292.392,610.891 294.554,603.935 296.716,597.07 298.878,590.297 301.039,583.614 303.201,577.019 305.363,570.511 307.525,564.09 309.687,557.754 311.849,551.502 314.011,545.333 316.173,539.246 318.335,533.239 320.497,527.312 322.659,521.463 324.821,515.692 326.983,509.998 329.145,504.379 331.307,498.834 333.469,493.363 335.631,487.965 337.793,482.638 339.955,477.382 342.117,472.195 344.279,467.078 346.441,462.028 348.603,457.045 350.765,452.128 352.927,447.276 355.089,442.489 357.251,437.765 359.413,433.104 361.575,428.505 363.737,423.966 365.899,419.488 368.061,415.069 370.223,410.709 372.385,406.407 374.547,402.161 376.709,397.972 378.871,393.797 381.033,389.599 383.195,385.397 385.357,381.21 387.519,377.054 389.681,372.947 391.843,368.901 394.005,364.931 396.166,361.048 398.328,357.263 400.49,353.586 402.652,350.025 404.814,346.586 406.976,343.275 409.138,340.098 411.3,337.056 413.462,334.151 415.624,331.385 417.786,328.756 419.948,326.262 422.11,323.901 424.272,321.666 426.434,319.554 428.596,317.556 430.758,315.664 432.92,313.869 435.082,312.159 437.244,310.523 439.406,308.947 441.568,307.415 443.73,305.913 445.892,304.423 448.054,302.926 450.216,301.403 452.378,299.866 454.54,298.349 456.702,296.853 458.864,295.376 461.026,293.919 463.188,292.482 465.35,291.063 467.512,289.663 469.674,288.282 471.836,286.919 473.998,285.574 476.16,284.247 478.322,282.938 480.484,281.646 482.646,280.371 484.808,279.113 486.97,277.871 489.132,276.646 491.293,275.438 493.455,274.245 495.617,273.068 497.779,271.907 499.941,270.761 502.103,269.631 504.265,268.515 506.427,267.414 508.589,266.328 510.751,265.256 512.913,264.198 515.075,263.154 517.237,262.125 519.399,261.108 521.561,260.106 523.723,259.116 525.885,258.14 528.047,257.177 530.209,256.226 532.371,255.288 534.533,254.363 536.695,253.45 538.857,252.549 541.019,251.659 543.181,250.782 545.343,249.916 547.505,249.062 549.667,248.219 551.829,247.387 553.991,246.567 556.153,245.757 558.315,244.958 560.477,244.169 562.639,243.391 564.801,242.624 566.963,241.866 569.125,241.118 571.287,240.381 573.449,239.571 575.611,238.533 577.773,237.313 579.935,235.958 582.097,234.514 584.259,233.024 586.42,231.529 588.582,230.067 590.744,228.673 592.906,227.378 595.068,226.213 597.23,225.205 599.392,224.378 601.554,223.754 603.716,223.351 605.878,223.186 608.04,223.272 610.202,223.621 612.364,224.239 614.526,225.133 616.688,226.305 618.85,227.756 621.012,229.483 623.174,231.48 625.336,233.739 627.498,236.25 629.66,238.999 631.822,241.971 633.984,245.145 636.146,248.501 638.308,252.015 640.47,255.66 642.632,259.405 644.794,263.219 646.956,267.067 649.118,270.911 651.28,274.711 653.442,278.423 655.604,282.003 657.766,285.4 659.928,288.616 662.09,291.779 664.252,294.901 666.414,297.98 668.576,301.02 670.738,304.018 672.9,306.977 675.062,309.897 677.224,312.778 679.386,315.621 681.547,318.426 683.709,321.194 685.871,323.925 688.033,326.62 690.195,329.28 692.357,331.904 694.519,334.493 696.681,337.048 698.843,339.569 701.005,342.057 703.167,344.511 705.329,346.934 707.491,349.324 709.653,351.683 711.815,354.011 713.977,356.308 716.139,358.575 718.301,360.813 720.463,363.02 722.625,365.198 724.787,367.348 726.949,369.469 729.111,371.562 731.273,373.627 733.435,375.665 735.597,377.676 737.759,379.66 739.921,381.617 742.083,383.549 744.245,385.455 746.407,387.335 748.569,389.191 750.731,391.021 752.893,392.828 755.055,394.61 757.217,396.368 759.379,398.103 761.541,399.815 763.703,401.504 765.865,403.171 768.027,404.815 770.189,406.437 772.351,408.038 774.513,409.617 776.674,411.175 778.836,412.713 780.998,414.23 783.16,415.726 785.322,417.203 787.484,418.66 789.646,420.098 791.808,421.517 793.97,422.916 796.132,424.298 798.294,425.66 800.456,427.005 802.618,428.332 804.78,429.641 806.942,430.933 809.104,432.208 811.266,433.466 813.428,434.708 815.59,435.933 817.752,437.142 819.914,438.335 822.076,439.512 824.238,440.674 826.4,441.821 828.562,442.952 830.724,444.069 832.886,445.177 835.048,447.149 837.21,450.491 839.372,455.057 841.534,460.71 843.696,467.317 845.858,474.754 848.02,482.902 850.182,491.651 852.344,500.894 854.506,510.535 856.668,520.481 858.83,530.648 860.992,540.957 863.154,551.338 865.316,561.726 867.478,572.062 869.64,582.296 871.801,592.383 873.963,602.285 876.125,611.97 878.287,621.415 880.449,630.601 882.611,639.518 884.773,648.161 886.935,656.531 889.097,664.639 891.259,672.5 893.421,680.137 895.583,687.577 897.745,694.857 899.907,702.021 902.069,709.115 904.231,716.197 906.393,723.33 908.555,730.471 910.717,737.518 912.879,744.471 915.041,751.332 917.203,758.102 919.365,764.783 921.527,771.375 923.689,777.879 925.851,784.298 928.013,790.631 930.175,796.88 932.337,803.046 934.499,809.131 936.661,815.135 938.823,821.059 940.985,826.904 943.147,832.673 945.309,838.364 947.471,843.981 949.633,849.522 951.795,854.991 953.957,860.387 956.119,865.711 958.281,870.965 960.443,876.149 962.605,881.264 964.767,886.312 966.928,891.292 969.09,896.207 971.252,901.056 973.414,905.841 975.576,910.563 977.738,915.222 979.9,919.82 982.062,924.356 984.224,928.832 986.386,933.249 988.548,937.607 990.71,941.908 992.872,946.151 995.034,950.339 997.196,954.47 999.358,958.547 1001.52,962.57 1003.68,966.54 1005.84,970.457 1008.01,974.322 1010.17,978.135 1012.33,981.899 1014.49,985.612 1016.65,989.276 1018.82,992.892 1020.98,996.459 1023.14,999.979 1025.3,1003.45 1027.46,1006.88 1029.63,1010.26 1031.79,1013.6 1033.95,1016.89 1036.11,1020.14 1038.27,1023.35 1040.44,1026.51 1042.6,1029.63 1044.76,1032.71 1046.92,1035.75 1049.08,1038.75 1051.25,1041.71 1053.41,1044.63 1055.57,1047.52 1057.73,1044.51 1059.89,1032.31 1062.06,1020.27 1064.22,1008.38 1066.38,996.66 1068.54,985.092 1070.7,973.677 1072.87,962.413 1075.03,951.298 1077.19,940.331 1079.35,929.509 1081.51,918.831 1083.68,908.294 1085.84,897.897 1088,887.638 1090.16,877.515 1092.32,867.526 1094.49,857.67 1096.65,847.944 1098.81,838.347 1100.97,828.878 1103.13,819.534 1105.3,810.313 1107.46,801.215 1109.62,792.238 1111.78,783.38 1113.94,774.639 1116.1,766.014 1118.27,757.503 1120.43,749.105 1122.59,740.819 1124.75,732.642 1126.91,724.574 1129.08,716.613 1131.24,708.757 1133.4,701.006 1135.56,693.357 1137.72,685.81 1139.89,678.363 1142.05,671.014 1144.21,663.763 1146.37,656.608 1148.53,649.548 1150.7,642.581 1152.86,635.707 1155.02,628.924 1157.18,622.231 1159.34,615.627 1161.51,609.11 1163.67,602.679 1165.83,596.334 1167.99,590.073 1170.15,583.895 1172.32,577.799 1174.48,571.784 1176.64,565.848 1178.8,559.992 1180.96,554.212 1183.13,548.51 1185.29,542.883 1187.45,537.331 1189.61,531.852 1191.77,526.446 1193.94,521.112 1196.1,515.848 1198.26,510.654 1200.42,505.529 1202.58,500.472 1204.75,495.482 1206.91,490.558 1209.07,485.699 1211.23,480.904 1213.39,476.174 1215.56,471.506 1217.72,466.9 1219.88,462.354 1222.04,457.87 1224.2,453.444 1226.37,449.078 1228.53,444.769 1230.69,440.518 1232.85,436.323 1235.01,432.183 1237.18,428.098 1239.34,424.068 1241.5,420.091 1243.66,416.167 1245.82,412.295 1247.99,408.474 1250.15,404.703 1252.31,400.983 1254.47,397.312 1256.63,393.69 1258.8,390.115 1260.96,386.589 1263.12,383.108 1265.28,379.891 1267.44,377.46 1269.61,375.77 1271.77,374.749 1273.93,374.329 1276.09,374.444 1278.25,375.031 1280.42,376.032 1282.58,377.39 1284.74,379.053 1286.9,380.971 1289.06,383.097 1291.23,385.388 1293.39,387.804 1295.55,390.308 1297.71,392.865 1299.87,395.446 1302.03,398.023 1304.2,400.57 1306.36,403.068 1308.52,405.498 1310.68,407.845 1312.84,410.097 1315.01,412.247 1317.17,414.288 1319.33,416.218 1321.49,418.038 1323.65,419.752 1325.82,421.369 1327.98,422.897 1330.14,424.351 1332.3,425.747 1334.46,427.105 1336.63,428.449 1338.79,429.805 1340.95,431.201 1343.11,432.664 1345.27,434.13 1347.44,435.577 1349.6,437.005 1351.76,438.413 1353.92,439.803 1356.08,441.174 1358.25,442.528 1360.41,443.863 1362.57,445.181 1364.73,446.481 1366.89,447.764 1369.06,449.03 1371.22,450.279 1373.38,451.511 1375.54,452.728 1377.7,453.928 1379.87,455.112 1382.03,456.28 1384.19,457.433 1386.35,458.571 1388.51,459.694 1390.68,460.801 1392.84,461.894 1395,462.973 1397.16,464.037 1399.32,465.087 1401.49,466.124 1403.65,467.146 1405.81,468.155 1407.97,469.151 1410.13,470.133 1412.3,471.102 1414.46,472.059 1416.62,473.003 1418.78,473.934 1420.94,474.853 1423.11,475.76 1425.27,476.654 1427.43,477.537 1429.59,478.408 1431.75,479.268 1433.92,480.116 1436.08,480.953 1438.24,481.779 1440.4,482.594 1442.56,483.398 1444.73,484.192 1446.89,484.975 1449.05,485.747 1451.21,486.51 1453.37,487.262 1455.54,488.004 1457.7,488.736 1459.86,489.459 1462.02,490.172 1464.18,490.876 1466.35,491.57 1468.51,492.255 1470.67,492.931 1472.83,493.598 1474.99,494.257 1477.16,494.906 1479.32,495.547 1481.48,496.179 1483.64,496.803 1485.8,497.849 1487.97,500.526 1490.13,504.735 1492.29,510.292 1494.45,517.022 1496.61,524.761 1498.77,533.354 1500.94,542.656 1503.1,552.531 1505.26,562.852 1507.42,573.505 1509.58,584.381 1511.75,595.384 1513.91,606.427 1516.07,617.431 1518.23,628.33 1520.39,639.063 1522.56,649.582 1524.72,659.849 1526.88,669.834 1529.04,679.516 1531.2,688.885 1533.37,697.942 1535.53,706.694 1537.69,715.161 1539.85,723.371 1542.01,731.362 1544.18,739.182 1546.34,746.887 1548.5,754.545 1550.66,762.232 1552.82,769.996 1554.99,777.683 1557.15,785.269 1559.31,792.754 1561.47,800.14 1563.63,807.428 1565.8,814.619 1567.96,821.715 1570.12,828.717 1572.28,835.626 1574.44,842.444 1576.61,849.171 1578.77,855.808 1580.93,862.358 1583.09,868.821 1585.25,875.199 1587.42,881.492 1589.58,887.701 1591.74,893.829 1593.9,899.875 1596.06,905.841 1598.23,911.729 1600.39,917.538 1602.55,923.27 1604.71,928.926 1606.87,934.507 1609.04,940.014 1611.2,945.448 1613.36,950.81 1615.52,956.101 1617.68,961.322 1619.85,966.473 1622.01,971.556 1624.17,976.571 1626.33,981.52 1628.49,986.403 1630.66,991.221 1632.82,995.975 1634.98,1000.67 1637.14,1005.3 1639.3,1009.86 1641.47,1014.37 1643.63,1018.82 1645.79,1023.21 1647.95,1027.54 1650.11,1031.81 1652.28,1036.02 1654.44,1040.18 1656.6,1044.29 1658.76,1048.34 1660.92,1052.34 1663.09,1056.28 1665.25,1060.17 1667.41,1064.01 1669.57,1067.8 1671.73,1071.54 1673.9,1075.23 1676.06,1078.87 1678.22,1082.46 1680.38,1086.01 1682.54,1089.51 1684.7,1092.96 1686.87,1096.36 1689.03,1099.72 1691.19,1103.04 1693.35,1106.31 1695.51,1109.44 1697.68,1112.37 1699.84,1115.13 1702,1117.73 1704.16,1120.2 1706.32,1122.55 1708.49,1124.79 1710.65,1126.95 1712.81,1129.04 1714.97,1131.06 1717.13,1133.04 1719.3,1134.97 1721.46,1136.88 1723.62,1138.76 1725.78,1140.63 1727.94,1142.48 1730.11,1144.31 1732.27,1146.15 1734.43,1147.97 1736.59,1149.78 1738.75,1151.59 1740.92,1153.38 1743.08,1155.14 1745.24,1156.89 1747.4,1158.6 1749.56,1160.28 1751.73,1161.93 1753.89,1163.56 1756.05,1165.16 1758.21,1166.75 1760.37,1168.32 1762.54,1169.86 1764.7,1171.38 1766.86,1172.89 1769.02,1174.37 1771.18,1175.84 1773.35,1177.28 1775.51,1178.71 1777.67,1180.12 1779.83,1181.5 1781.99,1182.87 1784.16,1184.23 1786.32,1185.56 1788.48,1186.88 1790.64,1188.17 1792.8,1189.46 1794.97,1190.72 1797.13,1191.97 1799.29,1193.2 1801.45,1194.41 1803.61,1195.61 1805.78,1196.8 1807.94,1197.96 1810.1,1199.11 1812.26,1200.25 1814.42,1201.37 1816.59,1202.48 1818.75,1203.57 1820.91,1204.65 1823.07,1205.71 1825.23,1206.76 1827.4,1207.79 1829.56,1208.82 1831.72,1209.82 1833.88,1210.82 1836.04,1211.8 1838.21,1212.77 1840.37,1213.72 1842.53,1214.66 1844.69,1215.59 1846.85,1216.51 1849.02,1217.42 1851.18,1218.31 1853.34,1219.19 1855.5,1220.06 1857.66,1220.92 1859.83,1221.77 1861.99,1222.6 1864.15,1223.42 1866.31,1224.14 1868.47,1224.78 1870.63,1225.36 1872.8,1225.91 1874.96,1226.44 1877.12,1226.97 1879.28,1227.52 1881.44,1228.1 1883.61,1228.72 1885.77,1229.4 1887.93,1230.15 1890.09,1230.98 1892.25,1231.88 1894.42,1232.87 1896.58,1233.95 1898.74,1235.13 1900.9,1236.4 1903.06,1237.75 1905.23,1239.2 1907.39,1240.73 1909.55,1242.34 1911.71,1244.02 1913.87,1245.76 1916.04,1247.55 1918.2,1249.38 1920.36,1251.24 1922.52,1253.1 1924.68,1254.95 1926.85,1256.77 1929.01,1258.54 1931.17,1260.25 1933.33,1261.89 1935.49,1263.51 1937.66,1265.11 1939.82,1266.69 1941.98,1268.25 1944.14,1269.79 1946.3,1271.31 1948.47,1272.8 1950.63,1274.28 1952.79,1275.74 1954.95,1277.18 1957.11,1278.6 1959.28,1280 1961.44,1281.38 1963.6,1282.74 1965.76,1284.09 1967.92,1285.42 1970.09,1286.73 1972.25,1288.02 1974.41,1289.3 1976.57,1290.55 1978.73,1291.8 1980.9,1293.02 1983.06,1294.23 1985.22,1295.43 1987.38,1296.6 1989.54,1297.77 1991.71,1298.91 1993.87,1300.04 1996.03,1301.16 1998.19,1302.26 2000.35,1303.35 2002.52,1304.42 2004.68,1305.48 2006.84,1306.53 2009,1307.56 2011.16,1308.58 2013.33,1309.58 2015.49,1310.57 2017.65,1311.55 2019.81,1312.51 2021.97,1313.46 2024.14,1314.4 2026.3,1315.33 2028.46,1316.24 2030.62,1317.14 2032.78,1318.03 2034.95,1318.91 2037.11,1319.78 2039.27,1320.63 2041.43,1321.47 2043.59,1322.3 2045.76,1323.13 2047.92,1323.94 2050.08,1324.73 2052.24,1325.52 2054.4,1326.3 2056.57,1327.07 2058.73,1327.83 2060.89,1328.57 2063.05,1329.31 2065.21,1330.04 2067.37,1330.76 2069.54,1331.47 2071.7,1332.16 2073.86,1332.85 2076.02,1333.54 2078.18,1334.21 2080.35,1334.87 2082.51,1335.52 2084.67,1336.17 2086.83,1336.81 2088.99,1337.44 2091.16,1338.06 2093.32,1338.67 2095.48,1339.27 2097.64,1339.87 2099.8,1340.47 2101.97,1341.07 2104.13,1341.67 2106.29,1342.27 2108.45,1342.86 2110.61,1343.44 2112.78,1344.02 2114.94,1344.59 2117.1,1345.14 2119.26,1345.69 2121.42,1346.22 2123.59,1346.74 2125.75,1347.25 2127.91,1347.74 2130.07,1348.22 2132.23,1348.68 2134.4,1349.13 2136.56,1349.56 2138.72,1349.97 2140.88,1350.36 2143.04,1350.74 2145.21,1351.1 2147.37,1351.45 2149.53,1351.78 2151.69,1352.09 2153.85,1352.39 2156.02,1352.67 2158.18,1352.94 2160.34,1353.19 2162.5,1353.44 2164.66,1353.67 2166.83,1353.89 2168.99,1354.1 2171.15,1354.3 2173.31,1354.49 2175.47,1354.68 2177.64,1354.87 2179.8,1355.05 2181.96,1355.24 2184.12,1355.42 2186.28,1355.61 2188.45,1355.8 2190.61,1355.99 2192.77,1356.18 2194.93,1356.36 2197.09,1356.54 2199.26,1356.72 2201.42,1356.9 2203.58,1357.07 2205.74,1357.24 2207.9,1357.41 2210.07,1357.58 2212.23,1357.74 2214.39,1357.91 2216.55,1358.07 2218.71,1358.22 2220.88,1358.38 2223.04,1358.54 2225.2,1358.69 2227.36,1358.84 2229.52,1358.99 2231.69,1359.13 2233.85,1359.28 2236.01,1359.42 2238.17,1359.56 2240.33,1359.7 2242.5,1359.83 2244.66,1359.97 2246.82,1360.1 2248.98,1360.23 2251.14,1360.36 2253.3,1360.49 2255.47,1360.62 2257.63,1360.74 2259.79,1360.87 2261.95,1360.99 2264.11,1361.11 2266.28,1361.22 2268.44,1361.34 2270.6,1361.46 2272.76,1361.57 2274.92,1361.68 2277.09,1361.79 2279.25,1361.9 2281.41,1362.01 2283.57,1362.11 2285.73,1362.22 2287.9,1362.32 2290.06,1362.42 2292.22,1362.52 2294.38,1362.62 2296.54,1362.72 2298.71,1362.82 2300.87,1362.91 2303.03,1363.01 2305.19,1363.1 2307.35,1363.19 2309.52,1363.28 2311.68,1363.37 2313.84,1363.46 2316,1363.55 2318.16,1363.63 2320.33,1363.72 2322.49,1363.8 2324.65,1363.88 2326.81,1363.96 2328.97,1364.04 2331.14,1364.12 2333.3,1364.2 2335.46,1364.28 2337.62,1364.36 2339.78,1364.43 2341.95,1364.5 2344.11,1364.58 2346.27,1364.65 2348.43,1364.72 2350.59,1364.79 2352.76,1364.86 "/>
<polyline clip-path="url(#clip222)" style="stroke:#e26f46; stroke-linecap:round; stroke-linejoin:round; stroke-width:4; stroke-opacity:1; fill:none" points="192.941,86.1857 195.103,86.1857 197.265,86.1857 199.427,86.1857 201.589,86.1857 203.751,86.1857 205.912,86.1857 208.074,86.1857 210.236,86.1857 212.398,86.1857 214.56,86.1857 216.722,86.1857 218.884,86.1857 221.046,86.1857 223.208,86.1857 225.37,86.1857 227.532,86.1857 229.694,86.1857 231.856,86.1857 234.018,86.1857 236.18,86.1857 238.342,86.1857 240.504,86.1857 242.666,86.1857 244.828,86.1857 246.99,86.1857 249.152,86.1857 251.314,86.1857 253.476,86.1857 255.638,86.1857 257.8,86.1857 259.962,86.1857 262.124,86.1857 264.286,86.1857 266.448,86.1857 268.61,86.1857 270.772,86.1857 272.934,86.1857 275.096,86.1857 277.258,86.1857 279.42,86.1857 281.582,86.1857 283.744,86.1857 285.906,86.1857 288.068,86.1857 290.23,86.1857 292.392,86.1857 294.554,86.1857 296.716,86.1857 298.878,86.1857 301.039,86.1857 303.201,86.1857 305.363,86.1857 307.525,86.1857 309.687,86.1857 311.849,86.1857 314.011,86.1857 316.173,86.1857 318.335,86.1857 320.497,86.1857 322.659,86.1857 324.821,86.1857 326.983,86.1857 329.145,86.1857 331.307,86.1857 333.469,86.1857 335.631,86.1857 337.793,86.1857 339.955,86.1857 342.117,86.1857 344.279,86.1857 346.441,86.1857 348.603,86.1857 350.765,86.1857 352.927,86.1857 355.089,86.1857 357.251,86.1857 359.413,86.1857 361.575,86.1857 363.737,86.1857 365.899,86.1857 368.061,86.1857 370.223,86.1857 372.385,86.1857 374.547,86.1857 376.709,86.1857 378.871,86.1857 381.033,86.1857 383.195,86.1857 385.357,86.1857 387.519,86.1857 389.681,86.1857 391.843,86.1857 394.005,86.1857 396.166,86.1857 398.328,86.1857 400.49,86.1857 402.652,86.1857 404.814,86.1857 406.976,86.1857 409.138,185.482 411.3,185.482 413.462,185.482 415.624,185.482 417.786,185.482 419.948,185.482 422.11,185.482 424.272,185.482 426.434,185.482 428.596,185.482 430.758,185.482 432.92,185.482 435.082,185.482 437.244,185.482 439.406,185.482 441.568,185.482 443.73,185.482 445.892,185.482 448.054,185.482 450.216,185.482 452.378,185.482 454.54,185.482 456.702,185.482 458.864,185.482 461.026,185.482 463.188,185.482 465.35,185.482 467.512,185.482 469.674,185.482 471.836,185.482 473.998,185.482 476.16,185.482 478.322,185.482 480.484,185.482 482.646,185.482 484.808,185.482 486.97,185.482 489.132,185.482 491.293,185.482 493.455,185.482 495.617,185.482 497.779,185.482 499.941,185.482 502.103,185.482 504.265,185.482 506.427,185.482 508.589,185.482 510.751,185.482 512.913,185.482 515.075,185.482 517.237,185.482 519.399,185.482 521.561,185.482 523.723,185.482 525.885,185.482 528.047,185.482 530.209,185.482 532.371,185.482 534.533,185.482 536.695,185.482 538.857,185.482 541.019,185.482 543.181,185.482 545.343,185.482 547.505,185.482 549.667,185.482 551.829,185.482 553.991,185.482 556.153,185.482 558.315,185.482 560.477,185.482 562.639,185.482 564.801,185.482 566.963,185.482 569.125,185.482 571.287,185.482 573.449,185.482 575.611,185.482 577.773,185.482 579.935,185.482 582.097,185.482 584.259,185.482 586.42,185.482 588.582,185.482 590.744,185.482 592.906,185.482 595.068,185.482 597.23,185.482 599.392,185.482 601.554,185.482 603.716,185.482 605.878,185.482 608.04,185.482 610.202,185.482 612.364,185.482 614.526,185.482 616.688,185.482 618.85,185.482 621.012,185.482 623.174,185.482 625.336,527.203 627.498,527.203 629.66,527.203 631.822,527.203 633.984,527.203 636.146,527.203 638.308,527.203 640.47,527.203 642.632,527.203 644.794,527.203 646.956,527.203 649.118,527.203 651.28,527.203 653.442,527.203 655.604,527.203 657.766,527.203 659.928,527.203 662.09,527.203 664.252,527.203 666.414,527.203 668.576,527.203 670.738,527.203 672.9,527.203 675.062,527.203 677.224,527.203 679.386,527.203 681.547,527.203 683.709,527.203 685.871,527.203 688.033,527.203 690.195,527.203 692.357,527.203 694.519,527.203 696.681,527.203 698.843,527.203 701.005,527.203 703.167,527.203 705.329,527.203 707.491,527.203 709.653,527.203 711.815,527.203 713.977,527.203 716.139,527.203 718.301,527.203 720.463,527.203 722.625,527.203 724.787,527.203 726.949,527.203 729.111,527.203 731.273,527.203 733.435,527.203 735.597,527.203 737.759,527.203 739.921,527.203 742.083,527.203 744.245,527.203 746.407,527.203 748.569,527.203 750.731,527.203 752.893,527.203 755.055,527.203 757.217,527.203 759.379,527.203 761.541,527.203 763.703,527.203 765.865,527.203 768.027,527.203 770.189,527.203 772.351,527.203 774.513,527.203 776.674,527.203 778.836,527.203 780.998,527.203 783.16,527.203 785.322,527.203 787.484,527.203 789.646,527.203 791.808,527.203 793.97,527.203 796.132,527.203 798.294,527.203 800.456,527.203 802.618,527.203 804.78,527.203 806.942,527.203 809.104,527.203 811.266,527.203 813.428,527.203 815.59,527.203 817.752,527.203 819.914,527.203 822.076,527.203 824.238,527.203 826.4,527.203 828.562,527.203 830.724,527.203 832.886,527.203 835.048,527.203 837.21,527.203 839.372,527.203 841.534,1261.98 843.696,1261.98 845.858,1261.98 848.02,1261.98 850.182,1261.98 852.344,1261.98 854.506,1261.98 856.668,1261.98 858.83,1261.98 860.992,1261.98 863.154,1261.98 865.316,1261.98 867.478,1261.98 869.64,1261.98 871.801,1261.98 873.963,1261.98 876.125,1261.98 878.287,1261.98 880.449,1261.98 882.611,1261.98 884.773,1261.98 886.935,1261.98 889.097,1261.98 891.259,1261.98 893.421,1261.98 895.583,1261.98 897.745,1261.98 899.907,1261.98 902.069,1261.98 904.231,1261.98 906.393,1261.98 908.555,1261.98 910.717,1261.98 912.879,1261.98 915.041,1261.98 917.203,1261.98 919.365,1261.98 921.527,1261.98 923.689,1261.98 925.851,1261.98 928.013,1261.98 930.175,1261.98 932.337,1261.98 934.499,1261.98 936.661,1261.98 938.823,1261.98 940.985,1261.98 943.147,1261.98 945.309,1261.98 947.471,1261.98 949.633,1261.98 951.795,1261.98 953.957,1261.98 956.119,1261.98 958.281,1261.98 960.443,1261.98 962.605,1261.98 964.767,1261.98 966.928,1261.98 969.09,1261.98 971.252,1261.98 973.414,1261.98 975.576,1261.98 977.738,1261.98 979.9,1261.98 982.062,1261.98 984.224,1261.98 986.386,1261.98 988.548,1261.98 990.71,1261.98 992.872,1261.98 995.034,1261.98 997.196,1261.98 999.358,1261.98 1001.52,1261.98 1003.68,1261.98 1005.84,1261.98 1008.01,1261.98 1010.17,1261.98 1012.33,1261.98 1014.49,1261.98 1016.65,1261.98 1018.82,1261.98 1020.98,1261.98 1023.14,1261.98 1025.3,1261.98 1027.46,1261.98 1029.63,1261.98 1031.79,1261.98 1033.95,1261.98 1036.11,1261.98 1038.27,1261.98 1040.44,1261.98 1042.6,1261.98 1044.76,1261.98 1046.92,1261.98 1049.08,1261.98 1051.25,1261.98 1053.41,1261.98 1055.57,1261.98 1057.73,124.091 1059.89,124.091 1062.06,124.091 1064.22,124.091 1066.38,124.091 1068.54,124.091 1070.7,124.091 1072.87,124.091 1075.03,124.091 1077.19,124.091 1079.35,124.091 1081.51,124.091 1083.68,124.091 1085.84,124.091 1088,124.091 1090.16,124.091 1092.32,124.091 1094.49,124.091 1096.65,124.091 1098.81,124.091 1100.97,124.091 1103.13,124.091 1105.3,124.091 1107.46,124.091 1109.62,124.091 1111.78,124.091 1113.94,124.091 1116.1,124.091 1118.27,124.091 1120.43,124.091 1122.59,124.091 1124.75,124.091 1126.91,124.091 1129.08,124.091 1131.24,124.091 1133.4,124.091 1135.56,124.091 1137.72,124.091 1139.89,124.091 1142.05,124.091 1144.21,124.091 1146.37,124.091 1148.53,124.091 1150.7,124.091 1152.86,124.091 1155.02,124.091 1157.18,124.091 1159.34,124.091 1161.51,124.091 1163.67,124.091 1165.83,124.091 1167.99,124.091 1170.15,124.091 1172.32,124.091 1174.48,124.091 1176.64,124.091 1178.8,124.091 1180.96,124.091 1183.13,124.091 1185.29,124.091 1187.45,124.091 1189.61,124.091 1191.77,124.091 1193.94,124.091 1196.1,124.091 1198.26,124.091 1200.42,124.091 1202.58,124.091 1204.75,124.091 1206.91,124.091 1209.07,124.091 1211.23,124.091 1213.39,124.091 1215.56,124.091 1217.72,124.091 1219.88,124.091 1222.04,124.091 1224.2,124.091 1226.37,124.091 1228.53,124.091 1230.69,124.091 1232.85,124.091 1235.01,124.091 1237.18,124.091 1239.34,124.091 1241.5,124.091 1243.66,124.091 1245.82,124.091 1247.99,124.091 1250.15,124.091 1252.31,124.091 1254.47,124.091 1256.63,124.091 1258.8,124.091 1260.96,124.091 1263.12,124.091 1265.28,124.091 1267.44,124.091 1269.61,124.091 1271.77,124.091 1273.93,543.246 1276.09,543.246 1278.25,543.246 1280.42,543.246 1282.58,543.246 1284.74,543.246 1286.9,543.246 1289.06,543.246 1291.23,543.246 1293.39,543.246 1295.55,543.246 1297.71,543.246 1299.87,543.246 1302.03,543.246 1304.2,543.246 1306.36,543.246 1308.52,543.246 1310.68,543.246 1312.84,543.246 1315.01,543.246 1317.17,543.246 1319.33,543.246 1321.49,543.246 1323.65,543.246 1325.82,543.246 1327.98,543.246 1330.14,543.246 1332.3,543.246 1334.46,543.246 1336.63,543.246 1338.79,543.246 1340.95,543.246 1343.11,543.246 1345.27,543.246 1347.44,543.246 1349.6,543.246 1351.76,543.246 1353.92,543.246 1356.08,543.246 1358.25,543.246 1360.41,543.246 1362.57,543.246 1364.73,543.246 1366.89,543.246 1369.06,543.246 1371.22,543.246 1373.38,543.246 1375.54,543.246 1377.7,543.246 1379.87,543.246 1382.03,543.246 1384.19,543.246 1386.35,543.246 1388.51,543.246 1390.68,543.246 1392.84,543.246 1395,543.246 1397.16,543.246 1399.32,543.246 1401.49,543.246 1403.65,543.246 1405.81,543.246 1407.97,543.246 1410.13,543.246 1412.3,543.246 1414.46,543.246 1416.62,543.246 1418.78,543.246 1420.94,543.246 1423.11,543.246 1425.27,543.246 1427.43,543.246 1429.59,543.246 1431.75,543.246 1433.92,543.246 1436.08,543.246 1438.24,543.246 1440.4,543.246 1442.56,543.246 1444.73,543.246 1446.89,543.246 1449.05,543.246 1451.21,543.246 1453.37,543.246 1455.54,543.246 1457.7,543.246 1459.86,543.246 1462.02,543.246 1464.18,543.246 1466.35,543.246 1468.51,543.246 1470.67,543.246 1472.83,543.246 1474.99,543.246 1477.16,543.246 1479.32,543.246 1481.48,543.246 1483.64,543.246 1485.8,543.246 1487.97,543.246 1490.13,1349.84 1492.29,1349.84 1494.45,1349.84 1496.61,1349.84 1498.77,1349.84 1500.94,1349.84 1503.1,1349.84 1505.26,1349.84 1507.42,1349.84 1509.58,1349.84 1511.75,1349.84 1513.91,1349.84 1516.07,1349.84 1518.23,1349.84 1520.39,1349.84 1522.56,1349.84 1524.72,1349.84 1526.88,1349.84 1529.04,1349.84 1531.2,1349.84 1533.37,1349.84 1535.53,1349.84 1537.69,1349.84 1539.85,1349.84 1542.01,1349.84 1544.18,1349.84 1546.34,1349.84 1548.5,1349.84 1550.66,1349.84 1552.82,1349.84 1554.99,1349.84 1557.15,1349.84 1559.31,1349.84 1561.47,1349.84 1563.63,1349.84 1565.8,1349.84 1567.96,1349.84 1570.12,1349.84 1572.28,1349.84 1574.44,1349.84 1576.61,1349.84 1578.77,1349.84 1580.93,1349.84 1583.09,1349.84 1585.25,1349.84 1587.42,1349.84 1589.58,1349.84 1591.74,1349.84 1593.9,1349.84 1596.06,1349.84 1598.23,1349.84 1600.39,1349.84 1602.55,1349.84 1604.71,1349.84 1606.87,1349.84 1609.04,1349.84 1611.2,1349.84 1613.36,1349.84 1615.52,1349.84 1617.68,1349.84 1619.85,1349.84 1622.01,1349.84 1624.17,1349.84 1626.33,1349.84 1628.49,1349.84 1630.66,1349.84 1632.82,1349.84 1634.98,1349.84 1637.14,1349.84 1639.3,1349.84 1641.47,1349.84 1643.63,1349.84 1645.79,1349.84 1647.95,1349.84 1650.11,1349.84 1652.28,1349.84 1654.44,1349.84 1656.6,1349.84 1658.76,1349.84 1660.92,1349.84 1663.09,1349.84 1665.25,1349.84 1667.41,1349.84 1669.57,1349.84 1671.73,1349.84 1673.9,1349.84 1676.06,1349.84 1678.22,1349.84 1680.38,1349.84 1682.54,1349.84 1684.7,1349.84 1686.87,1349.84 1689.03,1349.84 1691.19,1349.84 1693.35,1349.84 1695.51,1349.84 1697.68,1349.84 1699.84,1349.84 1702,1349.84 1704.16,1349.84 1706.32,1284.83 1708.49,1284.83 1710.65,1284.83 1712.81,1284.83 1714.97,1284.83 1717.13,1284.83 1719.3,1284.83 1721.46,1284.83 1723.62,1284.83 1725.78,1284.83 1727.94,1284.83 1730.11,1284.83 1732.27,1284.83 1734.43,1284.83 1736.59,1284.83 1738.75,1284.83 1740.92,1284.83 1743.08,1284.83 1745.24,1284.83 1747.4,1284.83 1749.56,1284.83 1751.73,1284.83 1753.89,1284.83 1756.05,1284.83 1758.21,1284.83 1760.37,1284.83 1762.54,1284.83 1764.7,1284.83 1766.86,1284.83 1769.02,1284.83 1771.18,1284.83 1773.35,1284.83 1775.51,1284.83 1777.67,1284.83 1779.83,1284.83 1781.99,1284.83 1784.16,1284.83 1786.32,1284.83 1788.48,1284.83 1790.64,1284.83 1792.8,1284.83 1794.97,1284.83 1797.13,1284.83 1799.29,1284.83 1801.45,1284.83 1803.61,1284.83 1805.78,1284.83 1807.94,1284.83 1810.1,1284.83 1812.26,1284.83 1814.42,1284.83 1816.59,1284.83 1818.75,1284.83 1820.91,1284.83 1823.07,1284.83 1825.23,1284.83 1827.4,1284.83 1829.56,1284.83 1831.72,1284.83 1833.88,1284.83 1836.04,1284.83 1838.21,1284.83 1840.37,1284.83 1842.53,1284.83 1844.69,1284.83 1846.85,1284.83 1849.02,1284.83 1851.18,1284.83 1853.34,1284.83 1855.5,1284.83 1857.66,1284.83 1859.83,1284.83 1861.99,1284.83 1864.15,1284.83 1866.31,1284.83 1868.47,1284.83 1870.63,1284.83 1872.8,1284.83 1874.96,1284.83 1877.12,1284.83 1879.28,1284.83 1881.44,1284.83 1883.61,1284.83 1885.77,1284.83 1887.93,1284.83 1890.09,1284.83 1892.25,1284.83 1894.42,1284.83 1896.58,1284.83 1898.74,1284.83 1900.9,1284.83 1903.06,1284.83 1905.23,1284.83 1907.39,1284.83 1909.55,1284.83 1911.71,1284.83 1913.87,1284.83 1916.04,1284.83 1918.2,1284.83 1920.36,1284.83 1922.52,1384.24 1924.68,1384.24 1926.85,1384.24 1929.01,1384.24 1931.17,1384.24 1933.33,1384.24 1935.49,1384.24 1937.66,1384.24 1939.82,1384.24 1941.98,1384.24 1944.14,1384.24 1946.3,1384.24 1948.47,1384.24 1950.63,1384.24 1952.79,1384.24 1954.95,1384.24 1957.11,1384.24 1959.28,1384.24 1961.44,1384.24 1963.6,1384.24 1965.76,1384.24 1967.92,1384.24 1970.09,1384.24 1972.25,1384.24 1974.41,1384.24 1976.57,1384.24 1978.73,1384.24 1980.9,1384.24 1983.06,1384.24 1985.22,1384.24 1987.38,1384.24 1989.54,1384.24 1991.71,1384.24 1993.87,1384.24 1996.03,1384.24 1998.19,1384.24 2000.35,1384.24 2002.52,1384.24 2004.68,1384.24 2006.84,1384.24 2009,1384.24 2011.16,1384.24 2013.33,1384.24 2015.49,1384.24 2017.65,1384.24 2019.81,1384.24 2021.97,1384.24 2024.14,1384.24 2026.3,1384.24 2028.46,1384.24 2030.62,1384.24 2032.78,1384.24 2034.95,1384.24 2037.11,1384.24 2039.27,1384.24 2041.43,1384.24 2043.59,1384.24 2045.76,1384.24 2047.92,1384.24 2050.08,1384.24 2052.24,1384.24 2054.4,1384.24 2056.57,1384.24 2058.73,1384.24 2060.89,1384.24 2063.05,1384.24 2065.21,1384.24 2067.37,1384.24 2069.54,1384.24 2071.7,1384.24 2073.86,1384.24 2076.02,1384.24 2078.18,1384.24 2080.35,1384.24 2082.51,1384.24 2084.67,1384.24 2086.83,1384.24 2088.99,1384.24 2091.16,1384.24 2093.32,1384.24 2095.48,1384.24 2097.64,1384.24 2099.8,1384.24 2101.97,1384.24 2104.13,1384.24 2106.29,1384.24 2108.45,1384.24 2110.61,1384.24 2112.78,1384.24 2114.94,1384.24 2117.1,1384.24 2119.26,1384.24 2121.42,1384.24 2123.59,1384.24 2125.75,1384.24 2127.91,1384.24 2130.07,1384.24 2132.23,1384.24 2134.4,1384.24 2136.56,1384.24 2138.72,1370.01 2140.88,1370.01 2143.04,1370.01 2145.21,1370.01 2147.37,1370.01 2149.53,1370.01 2151.69,1370.01 2153.85,1370.01 2156.02,1370.01 2158.18,1370.01 2160.34,1370.01 2162.5,1370.01 2164.66,1370.01 2166.83,1370.01 2168.99,1370.01 2171.15,1370.01 2173.31,1370.01 2175.47,1370.01 2177.64,1370.01 2179.8,1370.01 2181.96,1370.01 2184.12,1370.01 2186.28,1370.01 2188.45,1370.01 2190.61,1370.01 2192.77,1370.01 2194.93,1370.01 2197.09,1370.01 2199.26,1370.01 2201.42,1370.01 2203.58,1370.01 2205.74,1370.01 2207.9,1370.01 2210.07,1370.01 2212.23,1370.01 2214.39,1370.01 2216.55,1370.01 2218.71,1370.01 2220.88,1370.01 2223.04,1370.01 2225.2,1370.01 2227.36,1370.01 2229.52,1370.01 2231.69,1370.01 2233.85,1370.01 2236.01,1370.01 2238.17,1370.01 2240.33,1370.01 2242.5,1370.01 2244.66,1370.01 2246.82,1370.01 2248.98,1370.01 2251.14,1370.01 2253.3,1370.01 2255.47,1370.01 2257.63,1370.01 2259.79,1370.01 2261.95,1370.01 2264.11,1370.01 2266.28,1370.01 2268.44,1370.01 2270.6,1370.01 2272.76,1370.01 2274.92,1370.01 2277.09,1370.01 2279.25,1370.01 2281.41,1370.01 2283.57,1370.01 2285.73,1370.01 2287.9,1370.01 2290.06,1370.01 2292.22,1370.01 2294.38,1370.01 2296.54,1370.01 2298.71,1370.01 2300.87,1370.01 2303.03,1370.01 2305.19,1370.01 2307.35,1370.01 2309.52,1370.01 2311.68,1370.01 2313.84,1370.01 2316,1370.01 2318.16,1370.01 2320.33,1370.01 2322.49,1370.01 2324.65,1370.01 2326.81,1370.01 2328.97,1370.01 2331.14,1370.01 2333.3,1370.01 2335.46,1370.01 2337.62,1370.01 2339.78,1370.01 2341.95,1370.01 2344.11,1370.01 2346.27,1370.01 2348.43,1370.01 2350.59,1370.01 2352.76,1370.01 "/>
<path clip-path="url(#clip220)" d="M2039.64 248.629 L2280.76 248.629 L2280.76 93.1086 L2039.64 93.1086  Z" fill="#ffffff" fill-rule="evenodd" fill-opacity="1"/>
<polyline clip-path="url(#clip220)" style="stroke:#000000; stroke-linecap:round; stroke-linejoin:round; stroke-width:4; stroke-opacity:1; fill:none" points="2039.64,248.629 2280.76,248.629 2280.76,93.1086 2039.64,93.1086 2039.64,248.629 "/>
<polyline clip-path="url(#clip220)" style="stroke:#009af9; stroke-linecap:round; stroke-linejoin:round; stroke-width:4; stroke-opacity:1; fill:none" points="2063.64,144.949 2207.63,144.949 "/>
<path clip-path="url(#clip220)" d="M2256.28 136.303 L2246.9 148.919 L2256.76 162.229 L2251.74 162.229 L2244.19 152.043 L2236.65 162.229 L2231.63 162.229 L2241.69 148.664 L2232.48 136.303 L2237.5 136.303 L2244.38 145.539 L2251.25 136.303 L2256.28 136.303 Z" fill="#000000" fill-rule="nonzero" fill-opacity="1" /><polyline clip-path="url(#clip220)" style="stroke:#e26f46; stroke-linecap:round; stroke-linejoin:round; stroke-width:4; stroke-opacity:1; fill:none" points="2063.64,196.789 2207.63,196.789 "/>
<path clip-path="url(#clip220)" d="M2248.13 178.05 L2248.13 181.592 L2244.06 181.592 Q2241.76 181.592 2240.86 182.518 Q2239.98 183.444 2239.98 185.851 L2239.98 188.143 L2247 188.143 L2247 191.453 L2239.98 191.453 L2239.98 214.069 L2235.7 214.069 L2235.7 191.453 L2231.63 191.453 L2231.63 188.143 L2235.7 188.143 L2235.7 186.337 Q2235.7 182.009 2237.71 180.041 Q2239.73 178.05 2244.1 178.05 L2248.13 178.05 Z" fill="#000000" fill-rule="nonzero" fill-opacity="1" /></svg>
