<?xml version="1.0" encoding="utf-8"?>
<svg xmlns="http://www.w3.org/2000/svg" xmlns:xlink="http://www.w3.org/1999/xlink" width="600" height="400" viewBox="0 0 2400 1600">
<defs>
  <clipPath id="clip160">
    <rect x="0" y="0" width="2400" height="1600"/>
  </clipPath>
</defs>
<path clip-path="url(#clip160)" d="M0 1600 L2400 1600 L2400 0 L0 0  Z" fill="#ffffff" fill-rule="evenodd" fill-opacity="1"/>
<defs>
  <clipPath id="clip161">
    <rect x="480" y="0" width="1681" height="1600"/>
  </clipPath>
</defs>
<path clip-path="url(#clip160)" d="M193.936 1423.18 L2352.76 1423.18 L2352.76 47.2441 L193.936 47.2441  Z" fill="#ffffff" fill-rule="evenodd" fill-opacity="1"/>
<defs>
  <clipPath id="clip162">
    <rect x="193" y="47" width="2160" height="1377"/>
  </clipPath>
</defs>
<polyline clip-path="url(#clip162)" style="stroke:#000000; stroke-linecap:round; stroke-linejoin:round; stroke-width:2; stroke-opacity:0.1; fill:none" points="193.936,1423.18 193.936,47.2441 "/>
<polyline clip-path="url(#clip162)" style="stroke:#000000; stroke-linecap:round; stroke-linejoin:round; stroke-width:2; stroke-opacity:0.1; fill:none" points="625.7,1423.18 625.7,47.2441 "/>
<polyline clip-path="url(#clip162)" style="stroke:#000000; stroke-linecap:round; stroke-linejoin:round; stroke-width:2; stroke-opacity:0.1; fill:none" points="1057.46,1423.18 1057.46,47.2441 "/>
<polyline clip-path="url(#clip162)" style="stroke:#000000; stroke-linecap:round; stroke-linejoin:round; stroke-width:2; stroke-opacity:0.1; fill:none" points="1489.23,1423.18 1489.23,47.2441 "/>
<polyline clip-path="url(#clip162)" style="stroke:#000000; stroke-linecap:round; stroke-linejoin:round; stroke-width:2; stroke-opacity:0.1; fill:none" points="1920.99,1423.18 1920.99,47.2441 "/>
<polyline clip-path="url(#clip162)" style="stroke:#000000; stroke-linecap:round; stroke-linejoin:round; stroke-width:2; stroke-opacity:0.1; fill:none" points="2352.76,1423.18 2352.76,47.2441 "/>
<polyline clip-path="url(#clip160)" style="stroke:#000000; stroke-linecap:round; stroke-linejoin:round; stroke-width:4; stroke-opacity:1; fill:none" points="193.936,1423.18 2352.76,1423.18 "/>
<polyline clip-path="url(#clip160)" style="stroke:#000000; stroke-linecap:round; stroke-linejoin:round; stroke-width:4; stroke-opacity:1; fill:none" points="193.936,1423.18 193.936,1404.28 "/>
<polyline clip-path="url(#clip160)" style="stroke:#000000; stroke-linecap:round; stroke-linejoin:round; stroke-width:4; stroke-opacity:1; fill:none" points="625.7,1423.18 625.7,1404.28 "/>
<polyline clip-path="url(#clip160)" style="stroke:#000000; stroke-linecap:round; stroke-linejoin:round; stroke-width:4; stroke-opacity:1; fill:none" points="1057.46,1423.18 1057.46,1404.28 "/>
<polyline clip-path="url(#clip160)" style="stroke:#000000; stroke-linecap:round; stroke-linejoin:round; stroke-width:4; stroke-opacity:1; fill:none" points="1489.23,1423.18 1489.23,1404.28 "/>
<polyline clip-path="url(#clip160)" style="stroke:#000000; stroke-linecap:round; stroke-linejoin:round; stroke-width:4; stroke-opacity:1; fill:none" points="1920.99,1423.18 1920.99,1404.28 "/>
<polyline clip-path="url(#clip160)" style="stroke:#000000; stroke-linecap:round; stroke-linejoin:round; stroke-width:4; stroke-opacity:1; fill:none" points="2352.76,1423.18 2352.76,1404.28 "/>
<path clip-path="url(#clip160)" d="M193.936 1454.1 Q190.325 1454.1 188.496 1457.66 Q186.691 1461.2 186.691 1468.33 Q186.691 1475.44 188.496 1479.01 Q190.325 1482.55 193.936 1482.55 Q197.57 1482.55 199.376 1479.01 Q201.204 1475.44 201.204 1468.33 Q201.204 1461.2 199.376 1457.66 Q197.57 1454.1 193.936 1454.1 M193.936 1450.39 Q199.746 1450.39 202.802 1455 Q205.88 1459.58 205.88 1468.33 Q205.88 1477.06 202.802 1481.67 Q199.746 1486.25 193.936 1486.25 Q188.126 1486.25 185.047 1481.67 Q181.992 1477.06 181.992 1468.33 Q181.992 1459.58 185.047 1455 Q188.126 1450.39 193.936 1450.39 Z" fill="#000000" fill-rule="nonzero" fill-opacity="1" /><path clip-path="url(#clip160)" d="M620.353 1481.64 L636.672 1481.64 L636.672 1485.58 L614.728 1485.58 L614.728 1481.64 Q617.39 1478.89 621.973 1474.26 Q626.58 1469.61 627.76 1468.27 Q630.006 1465.74 630.885 1464.01 Q631.788 1462.25 631.788 1460.56 Q631.788 1457.8 629.843 1456.07 Q627.922 1454.33 624.82 1454.33 Q622.621 1454.33 620.168 1455.09 Q617.737 1455.86 614.959 1457.41 L614.959 1452.69 Q617.783 1451.55 620.237 1450.97 Q622.691 1450.39 624.728 1450.39 Q630.098 1450.39 633.293 1453.08 Q636.487 1455.77 636.487 1460.26 Q636.487 1462.39 635.677 1464.31 Q634.89 1466.2 632.783 1468.8 Q632.205 1469.47 629.103 1472.69 Q626.001 1475.88 620.353 1481.64 Z" fill="#000000" fill-rule="nonzero" fill-opacity="1" /><path clip-path="url(#clip160)" d="M1060.47 1455.09 L1048.67 1473.54 L1060.47 1473.54 L1060.47 1455.09 M1059.25 1451.02 L1065.13 1451.02 L1065.13 1473.54 L1070.06 1473.54 L1070.06 1477.43 L1065.13 1477.43 L1065.13 1485.58 L1060.47 1485.58 L1060.47 1477.43 L1044.87 1477.43 L1044.87 1472.92 L1059.25 1451.02 Z" fill="#000000" fill-rule="nonzero" fill-opacity="1" /><path clip-path="url(#clip160)" d="M1489.63 1466.44 Q1486.48 1466.44 1484.63 1468.59 Q1482.8 1470.74 1482.8 1474.49 Q1482.8 1478.22 1484.63 1480.39 Q1486.48 1482.55 1489.63 1482.55 Q1492.78 1482.55 1494.61 1480.39 Q1496.46 1478.22 1496.46 1474.49 Q1496.46 1470.74 1494.61 1468.59 Q1492.78 1466.44 1489.63 1466.44 M1498.92 1451.78 L1498.92 1456.04 Q1497.16 1455.21 1495.35 1454.77 Q1493.57 1454.33 1491.81 1454.33 Q1487.18 1454.33 1484.73 1457.45 Q1482.3 1460.58 1481.95 1466.9 Q1483.31 1464.89 1485.37 1463.82 Q1487.43 1462.73 1489.91 1462.73 Q1495.12 1462.73 1498.13 1465.9 Q1501.16 1469.05 1501.16 1474.49 Q1501.16 1479.82 1498.01 1483.03 Q1494.86 1486.25 1489.63 1486.25 Q1483.64 1486.25 1480.47 1481.67 Q1477.3 1477.06 1477.3 1468.33 Q1477.3 1460.14 1481.18 1455.28 Q1485.07 1450.39 1491.62 1450.39 Q1493.38 1450.39 1495.17 1450.74 Q1496.97 1451.09 1498.92 1451.78 Z" fill="#000000" fill-rule="nonzero" fill-opacity="1" /><path clip-path="url(#clip160)" d="M1920.99 1469.17 Q1917.66 1469.17 1915.74 1470.95 Q1913.84 1472.73 1913.84 1475.86 Q1913.84 1478.98 1915.74 1480.77 Q1917.66 1482.55 1920.99 1482.55 Q1924.33 1482.55 1926.25 1480.77 Q1928.17 1478.96 1928.17 1475.86 Q1928.17 1472.73 1926.25 1470.95 Q1924.35 1469.17 1920.99 1469.17 M1916.32 1467.18 Q1913.31 1466.44 1911.62 1464.38 Q1909.95 1462.32 1909.95 1459.35 Q1909.95 1455.21 1912.89 1452.8 Q1915.85 1450.39 1920.99 1450.39 Q1926.15 1450.39 1929.09 1452.8 Q1932.03 1455.21 1932.03 1459.35 Q1932.03 1462.32 1930.34 1464.38 Q1928.68 1466.44 1925.69 1467.18 Q1929.07 1467.96 1930.95 1470.26 Q1932.84 1472.55 1932.84 1475.86 Q1932.84 1480.88 1929.77 1483.57 Q1926.71 1486.25 1920.99 1486.25 Q1915.27 1486.25 1912.2 1483.57 Q1909.14 1480.88 1909.14 1475.86 Q1909.14 1472.55 1911.04 1470.26 Q1912.94 1467.96 1916.32 1467.18 M1914.6 1459.79 Q1914.6 1462.48 1916.27 1463.98 Q1917.96 1465.49 1920.99 1465.49 Q1924 1465.49 1925.69 1463.98 Q1927.4 1462.48 1927.4 1459.79 Q1927.4 1457.11 1925.69 1455.6 Q1924 1454.1 1920.99 1454.1 Q1917.96 1454.1 1916.27 1455.6 Q1914.6 1457.11 1914.6 1459.79 Z" fill="#000000" fill-rule="nonzero" fill-opacity="1" /><path clip-path="url(#clip160)" d="M2327.44 1481.64 L2335.08 1481.64 L2335.08 1455.28 L2326.77 1456.95 L2326.77 1452.69 L2335.04 1451.02 L2339.71 1451.02 L2339.71 1481.64 L2347.35 1481.64 L2347.35 1485.58 L2327.44 1485.58 L2327.44 1481.64 Z" fill="#000000" fill-rule="nonzero" fill-opacity="1" /><path clip-path="url(#clip160)" d="M2366.8 1454.1 Q2363.18 1454.1 2361.36 1457.66 Q2359.55 1461.2 2359.55 1468.33 Q2359.55 1475.44 2361.36 1479.01 Q2363.18 1482.55 2366.8 1482.55 Q2370.43 1482.55 2372.23 1479.01 Q2374.06 1475.44 2374.06 1468.33 Q2374.06 1461.2 2372.23 1457.66 Q2370.43 1454.1 2366.8 1454.1 M2366.8 1450.39 Q2372.61 1450.39 2375.66 1455 Q2378.74 1459.58 2378.74 1468.33 Q2378.74 1477.06 2375.66 1481.67 Q2372.61 1486.25 2366.8 1486.25 Q2360.99 1486.25 2357.91 1481.67 Q2354.85 1477.06 2354.85 1468.33 Q2354.85 1459.58 2357.91 1455 Q2360.99 1450.39 2366.8 1450.39 Z" fill="#000000" fill-rule="nonzero" fill-opacity="1" /><path clip-path="url(#clip160)" d="M1272.41 1522.27 L1272.41 1532.4 L1284.47 1532.4 L1284.47 1536.95 L1272.41 1536.95 L1272.41 1556.3 Q1272.41 1560.66 1273.58 1561.9 Q1274.79 1563.14 1278.45 1563.14 L1284.47 1563.14 L1284.47 1568.04 L1278.45 1568.04 Q1271.67 1568.04 1269.1 1565.53 Q1266.52 1562.98 1266.52 1556.3 L1266.52 1536.95 L1262.22 1536.95 L1262.22 1532.4 L1266.52 1532.4 L1266.52 1522.27 L1272.41 1522.27 Z" fill="#000000" fill-rule="nonzero" fill-opacity="1" /><polyline clip-path="url(#clip162)" style="stroke:#000000; stroke-linecap:round; stroke-linejoin:round; stroke-width:2; stroke-opacity:0.1; fill:none" points="193.936,1247.42 2352.76,1247.42 "/>
<polyline clip-path="url(#clip162)" style="stroke:#000000; stroke-linecap:round; stroke-linejoin:round; stroke-width:2; stroke-opacity:0.1; fill:none" points="193.936,1002.05 2352.76,1002.05 "/>
<polyline clip-path="url(#clip162)" style="stroke:#000000; stroke-linecap:round; stroke-linejoin:round; stroke-width:2; stroke-opacity:0.1; fill:none" points="193.936,756.671 2352.76,756.671 "/>
<polyline clip-path="url(#clip162)" style="stroke:#000000; stroke-linecap:round; stroke-linejoin:round; stroke-width:2; stroke-opacity:0.1; fill:none" points="193.936,511.295 2352.76,511.295 "/>
<polyline clip-path="url(#clip162)" style="stroke:#000000; stroke-linecap:round; stroke-linejoin:round; stroke-width:2; stroke-opacity:0.1; fill:none" points="193.936,265.919 2352.76,265.919 "/>
<polyline clip-path="url(#clip160)" style="stroke:#000000; stroke-linecap:round; stroke-linejoin:round; stroke-width:4; stroke-opacity:1; fill:none" points="193.936,1423.18 193.936,47.2441 "/>
<polyline clip-path="url(#clip160)" style="stroke:#000000; stroke-linecap:round; stroke-linejoin:round; stroke-width:4; stroke-opacity:1; fill:none" points="193.936,1247.42 212.834,1247.42 "/>
<polyline clip-path="url(#clip160)" style="stroke:#000000; stroke-linecap:round; stroke-linejoin:round; stroke-width:4; stroke-opacity:1; fill:none" points="193.936,1002.05 212.834,1002.05 "/>
<polyline clip-path="url(#clip160)" style="stroke:#000000; stroke-linecap:round; stroke-linejoin:round; stroke-width:4; stroke-opacity:1; fill:none" points="193.936,756.671 212.834,756.671 "/>
<polyline clip-path="url(#clip160)" style="stroke:#000000; stroke-linecap:round; stroke-linejoin:round; stroke-width:4; stroke-opacity:1; fill:none" points="193.936,511.295 212.834,511.295 "/>
<polyline clip-path="url(#clip160)" style="stroke:#000000; stroke-linecap:round; stroke-linejoin:round; stroke-width:4; stroke-opacity:1; fill:none" points="193.936,265.919 212.834,265.919 "/>
<path clip-path="url(#clip160)" d="M50.9921 1247.87 L80.6679 1247.87 L80.6679 1251.81 L50.9921 1251.81 L50.9921 1247.87 Z" fill="#000000" fill-rule="nonzero" fill-opacity="1" /><path clip-path="url(#clip160)" d="M91.5706 1260.77 L99.2095 1260.77 L99.2095 1234.4 L90.8993 1236.07 L90.8993 1231.81 L99.1632 1230.14 L103.839 1230.14 L103.839 1260.77 L111.478 1260.77 L111.478 1264.7 L91.5706 1264.7 L91.5706 1260.77 Z" fill="#000000" fill-rule="nonzero" fill-opacity="1" /><path clip-path="url(#clip160)" d="M120.922 1258.82 L125.807 1258.82 L125.807 1264.7 L120.922 1264.7 L120.922 1258.82 Z" fill="#000000" fill-rule="nonzero" fill-opacity="1" /><path clip-path="url(#clip160)" d="M145.992 1233.22 Q142.381 1233.22 140.552 1236.79 Q138.746 1240.33 138.746 1247.46 Q138.746 1254.56 140.552 1258.13 Q142.381 1261.67 145.992 1261.67 Q149.626 1261.67 151.431 1258.13 Q153.26 1254.56 153.26 1247.46 Q153.26 1240.33 151.431 1236.79 Q149.626 1233.22 145.992 1233.22 M145.992 1229.52 Q151.802 1229.52 154.857 1234.12 Q157.936 1238.71 157.936 1247.46 Q157.936 1256.18 154.857 1260.79 Q151.802 1265.37 145.992 1265.37 Q140.181 1265.37 137.103 1260.79 Q134.047 1256.18 134.047 1247.46 Q134.047 1238.71 137.103 1234.12 Q140.181 1229.52 145.992 1229.52 Z" fill="#000000" fill-rule="nonzero" fill-opacity="1" /><path clip-path="url(#clip160)" d="M51.9875 1002.5 L81.6633 1002.5 L81.6633 1006.43 L51.9875 1006.43 L51.9875 1002.5 Z" fill="#000000" fill-rule="nonzero" fill-opacity="1" /><path clip-path="url(#clip160)" d="M101.756 987.846 Q98.1447 987.846 96.316 991.411 Q94.5104 994.952 94.5104 1002.08 Q94.5104 1009.19 96.316 1012.75 Q98.1447 1016.29 101.756 1016.29 Q105.39 1016.29 107.196 1012.75 Q109.024 1009.19 109.024 1002.08 Q109.024 994.952 107.196 991.411 Q105.39 987.846 101.756 987.846 M101.756 984.142 Q107.566 984.142 110.621 988.749 Q113.7 993.332 113.7 1002.08 Q113.7 1010.81 110.621 1015.42 Q107.566 1020 101.756 1020 Q95.9456 1020 92.8669 1015.42 Q89.8114 1010.81 89.8114 1002.08 Q89.8114 993.332 92.8669 988.749 Q95.9456 984.142 101.756 984.142 Z" fill="#000000" fill-rule="nonzero" fill-opacity="1" /><path clip-path="url(#clip160)" d="M121.918 1013.45 L126.802 1013.45 L126.802 1019.33 L121.918 1019.33 L121.918 1013.45 Z" fill="#000000" fill-rule="nonzero" fill-opacity="1" /><path clip-path="url(#clip160)" d="M137.033 984.767 L155.39 984.767 L155.39 988.702 L141.316 988.702 L141.316 997.175 Q142.334 996.827 143.353 996.665 Q144.371 996.48 145.39 996.48 Q151.177 996.48 154.556 999.651 Q157.936 1002.82 157.936 1008.24 Q157.936 1013.82 154.464 1016.92 Q150.992 1020 144.672 1020 Q142.496 1020 140.228 1019.63 Q137.982 1019.26 135.575 1018.52 L135.575 1013.82 Q137.658 1014.95 139.881 1015.51 Q142.103 1016.06 144.58 1016.06 Q148.584 1016.06 150.922 1013.96 Q153.26 1011.85 153.26 1008.24 Q153.26 1004.63 150.922 1002.52 Q148.584 1000.42 144.58 1000.42 Q142.705 1000.42 140.83 1000.83 Q138.978 1001.25 137.033 1002.13 L137.033 984.767 Z" fill="#000000" fill-rule="nonzero" fill-opacity="1" /><path clip-path="url(#clip160)" d="M100.76 742.47 Q97.1493 742.47 95.3206 746.035 Q93.515 749.576 93.515 756.706 Q93.515 763.812 95.3206 767.377 Q97.1493 770.919 100.76 770.919 Q104.395 770.919 106.2 767.377 Q108.029 763.812 108.029 756.706 Q108.029 749.576 106.2 746.035 Q104.395 742.47 100.76 742.47 M100.76 738.766 Q106.571 738.766 109.626 743.373 Q112.705 747.956 112.705 756.706 Q112.705 765.433 109.626 770.039 Q106.571 774.623 100.76 774.623 Q94.9502 774.623 91.8715 770.039 Q88.816 765.433 88.816 756.706 Q88.816 747.956 91.8715 743.373 Q94.9502 738.766 100.76 738.766 Z" fill="#000000" fill-rule="nonzero" fill-opacity="1" /><path clip-path="url(#clip160)" d="M120.922 768.072 L125.807 768.072 L125.807 773.951 L120.922 773.951 L120.922 768.072 Z" fill="#000000" fill-rule="nonzero" fill-opacity="1" /><path clip-path="url(#clip160)" d="M145.992 742.47 Q142.381 742.47 140.552 746.035 Q138.746 749.576 138.746 756.706 Q138.746 763.812 140.552 767.377 Q142.381 770.919 145.992 770.919 Q149.626 770.919 151.431 767.377 Q153.26 763.812 153.26 756.706 Q153.26 749.576 151.431 746.035 Q149.626 742.47 145.992 742.47 M145.992 738.766 Q151.802 738.766 154.857 743.373 Q157.936 747.956 157.936 756.706 Q157.936 765.433 154.857 770.039 Q151.802 774.623 145.992 774.623 Q140.181 774.623 137.103 770.039 Q134.047 765.433 134.047 756.706 Q134.047 747.956 137.103 743.373 Q140.181 738.766 145.992 738.766 Z" fill="#000000" fill-rule="nonzero" fill-opacity="1" /><path clip-path="url(#clip160)" d="M101.756 497.094 Q98.1447 497.094 96.316 500.659 Q94.5104 504.2 94.5104 511.33 Q94.5104 518.436 96.316 522.001 Q98.1447 525.543 101.756 525.543 Q105.39 525.543 107.196 522.001 Q109.024 518.436 109.024 511.33 Q109.024 504.2 107.196 500.659 Q105.39 497.094 101.756 497.094 M101.756 493.39 Q107.566 493.39 110.621 497.997 Q113.7 502.58 113.7 511.33 Q113.7 520.057 110.621 524.663 Q107.566 529.246 101.756 529.246 Q95.9456 529.246 92.8669 524.663 Q89.8114 520.057 89.8114 511.33 Q89.8114 502.58 92.8669 497.997 Q95.9456 493.39 101.756 493.39 Z" fill="#000000" fill-rule="nonzero" fill-opacity="1" /><path clip-path="url(#clip160)" d="M121.918 522.696 L126.802 522.696 L126.802 528.575 L121.918 528.575 L121.918 522.696 Z" fill="#000000" fill-rule="nonzero" fill-opacity="1" /><path clip-path="url(#clip160)" d="M137.033 494.015 L155.39 494.015 L155.39 497.95 L141.316 497.95 L141.316 506.422 Q142.334 506.075 143.353 505.913 Q144.371 505.728 145.39 505.728 Q151.177 505.728 154.556 508.899 Q157.936 512.071 157.936 517.487 Q157.936 523.066 154.464 526.168 Q150.992 529.246 144.672 529.246 Q142.496 529.246 140.228 528.876 Q137.982 528.506 135.575 527.765 L135.575 523.066 Q137.658 524.2 139.881 524.756 Q142.103 525.311 144.58 525.311 Q148.584 525.311 150.922 523.205 Q153.26 521.098 153.26 517.487 Q153.26 513.876 150.922 511.77 Q148.584 509.663 144.58 509.663 Q142.705 509.663 140.83 510.08 Q138.978 510.497 137.033 511.376 L137.033 494.015 Z" fill="#000000" fill-rule="nonzero" fill-opacity="1" /><path clip-path="url(#clip160)" d="M91.5706 279.264 L99.2095 279.264 L99.2095 252.898 L90.8993 254.565 L90.8993 250.306 L99.1632 248.639 L103.839 248.639 L103.839 279.264 L111.478 279.264 L111.478 283.199 L91.5706 283.199 L91.5706 279.264 Z" fill="#000000" fill-rule="nonzero" fill-opacity="1" /><path clip-path="url(#clip160)" d="M120.922 277.319 L125.807 277.319 L125.807 283.199 L120.922 283.199 L120.922 277.319 Z" fill="#000000" fill-rule="nonzero" fill-opacity="1" /><path clip-path="url(#clip160)" d="M145.992 251.718 Q142.381 251.718 140.552 255.283 Q138.746 258.824 138.746 265.954 Q138.746 273.06 140.552 276.625 Q142.381 280.167 145.992 280.167 Q149.626 280.167 151.431 276.625 Q153.26 273.06 153.26 265.954 Q153.26 258.824 151.431 255.283 Q149.626 251.718 145.992 251.718 M145.992 248.014 Q151.802 248.014 154.857 252.621 Q157.936 257.204 157.936 265.954 Q157.936 274.681 154.857 279.287 Q151.802 283.87 145.992 283.87 Q140.181 283.87 137.103 279.287 Q134.047 274.681 134.047 265.954 Q134.047 257.204 137.103 252.621 Q140.181 248.014 145.992 248.014 Z" fill="#000000" fill-rule="nonzero" fill-opacity="1" /><polyline clip-path="url(#clip162)" style="stroke:#009af9; stroke-linecap:round; stroke-linejoin:round; stroke-width:4; stroke-opacity:1; fill:none" points="193.936,756.671 196.097,760.044 198.258,763.371 200.419,766.655 202.58,769.895 204.741,773.092 206.902,776.247 209.063,779.36 211.224,782.431 213.385,785.462 215.546,788.453 217.707,791.404 219.868,794.316 222.029,797.189 224.19,800.025 226.351,802.822 228.512,805.583 230.673,808.307 232.834,810.995 234.995,813.647 237.156,816.264 239.317,818.846 241.478,821.395 243.639,823.909 245.8,826.39 247.961,828.838 250.122,831.254 252.282,833.637 254.443,835.989 256.604,838.31 258.765,840.6 260.926,842.86 263.087,845.09 265.248,847.29 267.409,849.461 269.57,851.603 271.731,853.717 273.892,855.803 276.053,857.861 278.214,859.892 280.375,861.896 282.536,863.873 284.697,865.824 286.858,867.75 289.019,869.649 291.18,871.524 293.341,873.374 295.502,875.199 297.663,877 299.824,878.777 301.985,880.531 304.146,882.261 306.307,883.968 308.468,885.653 310.629,887.315 312.79,888.956 314.951,890.574 317.112,892.171 319.273,893.747 321.434,895.303 323.595,896.837 325.756,898.351 327.917,899.845 330.078,901.32 332.239,902.774 334.4,904.21 336.561,905.626 338.722,907.024 340.883,908.403 343.044,909.764 345.205,911.106 347.366,912.431 349.527,913.739 351.688,915.029 353.849,916.302 356.01,917.558 358.171,918.797 360.332,920.02 362.493,921.227 364.653,922.417 366.814,923.592 368.975,924.752 371.136,925.896 373.297,927.025 375.458,928.139 377.619,929.238 379.78,930.322 381.941,931.392 384.102,932.448 386.263,933.49 388.424,934.519 390.585,935.533 392.746,936.534 394.907,937.522 397.068,938.497 399.229,939.458 401.39,940.408 403.551,941.344 405.712,942.268 407.873,943.18 410.034,943.884 412.195,941.808 414.356,936.705 416.517,929.225 418.678,919.954 420.839,909.412 423,898.052 425.161,886.261 427.322,874.363 429.483,862.612 431.644,851.199 433.805,840.248 435.966,829.817 438.127,819.9 440.288,810.422 442.449,801.244 444.61,792.161 446.771,782.923 448.932,773.685 451.093,764.571 453.254,755.577 455.415,746.702 457.576,737.945 459.737,729.304 461.898,720.777 464.059,712.364 466.22,704.062 468.381,695.87 470.542,687.787 472.703,679.81 474.864,671.94 477.024,664.174 479.185,656.511 481.346,648.95 483.507,641.488 485.668,634.126 487.829,626.862 489.99,619.693 492.151,612.62 494.312,605.641 496.473,598.754 498.634,591.958 500.795,585.253 502.956,578.636 505.117,572.108 507.278,565.665 509.439,559.308 511.6,553.036 513.761,546.846 515.922,540.739 518.083,534.712 520.244,528.766 522.405,522.898 524.566,517.108 526.727,511.395 528.888,505.757 531.049,500.195 533.21,494.706 535.371,489.289 537.532,483.945 539.693,478.672 541.854,473.468 544.015,468.333 546.176,463.267 548.337,458.268 550.498,453.335 552.659,448.467 554.82,443.664 556.981,438.924 559.142,434.248 561.303,429.633 563.464,425.08 565.625,420.52 567.786,415.849 569.947,411.11 572.108,406.343 574.269,401.588 576.43,396.881 578.591,392.255 580.752,387.74 582.913,383.364 585.074,379.151 587.235,375.121 589.396,371.295 591.556,367.686 593.717,364.308 595.878,361.17 598.039,358.278 600.2,355.638 602.361,353.248 604.522,351.108 606.683,349.212 608.844,347.551 611.005,346.116 613.166,344.891 615.327,343.86 617.488,343.004 619.649,342.299 621.81,341.719 623.971,341.237 626.132,340.82 628.293,340.434 630.454,340.041 632.615,339.601 634.776,339.071 636.937,338.471 639.098,337.879 641.259,337.294 643.42,336.717 645.581,336.148 647.742,335.586 649.903,335.032 652.064,334.485 654.225,333.946 656.386,333.413 658.547,332.888 660.708,332.369 662.869,331.858 665.03,331.353 667.191,330.855 669.352,330.363 671.513,329.878 673.674,329.4 675.835,328.928 677.996,328.462 680.157,328.002 682.318,327.548 684.479,327.1 686.64,326.657 688.801,326.221 690.962,325.791 693.123,325.366 695.284,324.947 697.445,324.533 699.606,324.125 701.767,323.722 703.927,323.324 706.088,322.932 708.249,322.545 710.41,322.163 712.571,321.786 714.732,321.415 716.893,321.048 719.054,320.686 721.215,320.329 723.376,319.977 725.537,319.629 727.698,319.286 729.859,318.948 732.02,318.614 734.181,318.285 736.342,317.96 738.503,317.639 740.664,317.323 742.825,317.011 744.986,316.703 747.147,316.399 749.308,316.099 751.469,315.804 753.63,315.512 755.791,315.224 757.952,314.94 760.113,314.66 762.274,314.384 764.435,314.111 766.596,313.842 768.757,313.576 770.918,313.314 773.079,313.056 775.24,312.801 777.401,312.549 779.562,312.301 781.723,312.056 783.884,311.814 786.045,311.576 788.206,311.34 790.367,311.108 792.528,310.879 794.689,310.653 796.85,310.429 799.011,310.209 801.172,309.992 803.333,309.777 805.494,309.565 807.655,309.356 809.816,309.15 811.977,308.947 814.138,308.746 816.298,308.547 818.459,308.352 820.62,308.159 822.781,307.968 824.942,307.78 827.103,307.594 829.264,307.411 831.425,307.231 833.586,307.366 835.747,308.688 837.908,311.133 840.069,314.58 842.23,318.912 844.391,324.018 846.552,329.794 848.713,336.141 850.874,342.965 853.035,350.18 855.196,357.704 857.357,365.462 859.518,373.382 861.679,381.401 863.84,389.461 866.001,397.509 868.162,405.498 870.323,413.387 872.484,421.14 874.645,428.729 876.806,436.129 878.967,443.322 881.128,450.297 883.289,457.047 885.45,463.571 887.611,469.875 889.772,475.969 891.933,481.871 894.094,487.602 896.255,493.192 898.416,498.673 900.577,504.087 902.738,509.479 904.899,514.9 907.06,520.38 909.221,525.806 911.382,531.16 913.543,536.444 915.704,541.657 917.865,546.801 920.026,551.877 922.187,556.886 924.348,561.828 926.509,566.705 928.669,571.517 930.83,576.265 932.991,580.951 935.152,585.574 937.313,590.136 939.474,594.637 941.635,599.079 943.796,603.462 945.957,607.788 948.118,612.056 950.279,616.267 952.44,620.423 954.601,624.523 956.762,628.569 958.923,632.562 961.084,636.501 963.245,640.389 965.406,644.224 967.567,648.009 969.728,651.744 971.889,655.429 974.05,659.065 976.211,662.652 978.372,666.192 980.533,669.685 982.694,673.132 984.855,676.533 987.016,679.889 989.177,683.2 991.338,686.467 993.499,689.691 995.66,692.872 997.821,696.011 999.982,699.108 1002.14,702.165 1004.3,705.18 1006.46,708.156 1008.63,711.092 1010.79,713.99 1012.95,716.849 1015.11,719.67 1017.27,722.453 1019.43,725.2 1021.59,727.911 1023.75,730.585 1025.91,733.224 1028.07,735.829 1030.24,738.398 1032.4,740.929 1034.56,743.418 1036.72,745.868 1038.88,748.281 1041.04,750.662 1043.2,753.012 1045.36,755.333 1047.52,757.628 1049.68,759.898 1051.85,762.145 1054.01,764.371 1056.17,766.577 1058.33,768.763 1060.49,770.932 1062.65,773.082 1064.81,775.216 1066.97,777.333 1069.13,779.433 1071.29,781.515 1073.46,783.581 1075.62,785.628 1077.78,787.656 1079.94,789.665 1082.1,791.653 1084.26,793.618 1086.42,795.56 1088.58,797.476 1090.74,799.364 1092.9,801.222 1095.07,803.052 1097.23,804.858 1099.39,806.64 1101.55,808.399 1103.71,810.134 1105.87,811.846 1108.03,813.535 1110.19,815.202 1112.35,816.847 1114.51,818.47 1116.67,820.071 1118.84,821.652 1121,823.211 1123.16,824.75 1125.32,826.268 1127.48,827.766 1129.64,829.244 1131.8,830.703 1133.96,832.142 1136.12,833.563 1138.28,834.964 1140.45,836.347 1142.61,837.712 1144.77,839.058 1146.93,840.387 1149.09,841.698 1151.25,842.991 1153.41,844.268 1155.57,845.528 1157.73,846.771 1159.89,847.997 1162.06,849.208 1164.22,850.402 1166.38,851.58 1168.54,852.743 1170.7,853.89 1172.86,855.023 1175.02,856.14 1177.18,857.242 1179.34,858.33 1181.5,859.403 1183.67,860.462 1185.83,861.507 1187.99,862.538 1190.15,863.555 1192.31,864.559 1194.47,865.549 1196.63,866.526 1198.79,867.491 1200.95,868.442 1203.11,869.381 1205.28,870.307 1207.44,871.222 1209.6,872.124 1211.76,873.014 1213.92,873.892 1216.08,874.758 1218.24,875.613 1220.4,876.457 1222.56,877.29 1224.72,878.111 1226.88,878.922 1229.05,879.722 1231.21,880.511 1233.37,881.29 1235.53,882.058 1237.69,882.817 1239.85,883.565 1242.01,884.304 1244.17,885.032 1246.33,885.751 1248.49,886.461 1250.66,887.161 1252.82,887.852 1254.98,888.533 1257.14,889.206 1259.3,889.87 1261.46,890.525 1263.62,891.171 1265.78,891.809 1267.94,892.438 1270.1,893.059 1272.27,893.671 1274.43,894.551 1276.59,896.305 1278.75,898.864 1280.91,902.134 1283.07,906.028 1285.23,910.46 1287.39,915.352 1289.55,920.63 1291.71,926.221 1293.88,932.063 1296.04,938.094 1298.2,944.258 1300.36,950.504 1302.52,956.786 1304.68,963.062 1306.84,969.295 1309,975.452 1311.16,981.507 1313.32,987.435 1315.49,993.219 1317.65,998.845 1319.81,1004.3 1321.97,1009.59 1324.13,1014.71 1326.29,1019.67 1328.45,1024.47 1330.61,1029.12 1332.77,1033.66 1334.93,1038.1 1337.09,1042.48 1339.26,1046.81 1341.42,1051.16 1343.58,1055.54 1345.74,1059.9 1347.9,1064.2 1350.06,1068.44 1352.22,1072.63 1354.38,1076.76 1356.54,1080.84 1358.7,1084.86 1360.87,1088.83 1363.03,1092.74 1365.19,1096.61 1367.35,1100.42 1369.51,1104.18 1371.67,1107.9 1373.83,1111.56 1375.99,1115.18 1378.15,1118.74 1380.31,1122.26 1382.48,1125.74 1384.64,1129.17 1386.8,1132.55 1388.96,1135.89 1391.12,1139.18 1393.28,1142.43 1395.44,1145.63 1397.6,1148.8 1399.76,1151.92 1401.92,1155 1404.09,1158.04 1406.25,1161.04 1408.41,1164 1410.57,1166.92 1412.73,1169.8 1414.89,1172.65 1417.05,1175.45 1419.21,1178.22 1421.37,1180.95 1423.53,1183.65 1425.7,1186.3 1427.86,1188.93 1430.02,1191.52 1432.18,1194.07 1434.34,1196.59 1436.5,1199.08 1438.66,1201.53 1440.82,1203.96 1442.98,1206.35 1445.14,1208.7 1447.3,1211.03 1449.47,1213.33 1451.63,1215.59 1453.79,1217.83 1455.95,1220.03 1458.11,1222.21 1460.27,1224.36 1462.43,1226.48 1464.59,1228.57 1466.75,1230.63 1468.91,1232.67 1471.08,1234.68 1473.24,1236.66 1475.4,1238.62 1477.56,1240.55 1479.72,1242.45 1481.88,1244.33 1484.04,1246.05 1486.2,1246.09 1488.36,1244.25 1490.52,1240.74 1492.69,1235.8 1494.85,1229.63 1497.01,1222.41 1499.17,1214.34 1501.33,1205.58 1503.49,1196.28 1505.65,1186.6 1507.81,1176.65 1509.97,1166.55 1512.13,1156.42 1514.3,1146.33 1516.46,1136.38 1518.62,1126.62 1520.78,1117.11 1522.94,1107.89 1525.1,1098.98 1527.26,1090.41 1529.42,1082.18 1531.58,1074.26 1533.74,1066.65 1535.91,1059.31 1538.07,1052.18 1540.23,1045.2 1542.39,1038.31 1544.55,1031.41 1546.71,1024.4 1548.87,1017.37 1551.03,1010.42 1553.19,1003.57 1555.35,996.807 1557.51,990.135 1559.68,983.552 1561.84,977.056 1564,970.646 1566.16,964.32 1568.32,958.079 1570.48,951.921 1572.64,945.844 1574.8,939.848 1576.96,933.931 1579.12,928.093 1581.29,922.331 1583.45,916.647 1585.61,911.037 1587.77,905.502 1589.93,900.04 1592.09,894.65 1594.25,889.332 1596.41,884.085 1598.57,878.907 1600.73,873.797 1602.9,868.756 1605.06,863.781 1607.22,858.873 1609.38,854.029 1611.54,849.25 1613.7,844.535 1615.86,839.882 1618.02,835.29 1620.18,830.76 1622.34,826.29 1624.51,821.879 1626.67,817.526 1628.83,813.232 1630.99,808.994 1633.15,804.812 1635.31,800.686 1637.47,796.615 1639.63,792.598 1641.79,788.633 1643.95,784.722 1646.12,780.862 1648.28,777.054 1650.44,773.295 1652.6,769.587 1654.76,765.928 1656.92,762.317 1659.08,758.754 1661.24,755.238 1663.4,751.769 1665.56,748.346 1667.72,744.968 1669.89,741.635 1672.05,738.346 1674.21,735.101 1676.37,731.899 1678.53,728.739 1680.69,725.621 1682.85,722.544 1685.01,719.509 1687.17,716.519 1689.33,713.619 1691.5,710.804 1693.66,708.053 1695.82,705.351 1697.98,702.68 1700.14,700.027 1702.3,697.379 1704.46,694.726 1706.62,692.057 1708.78,689.366 1710.94,686.646 1713.11,683.893 1715.27,681.105 1717.43,678.28 1719.59,675.418 1721.75,672.522 1723.91,669.595 1726.07,666.644 1728.23,663.674 1730.39,660.694 1732.55,657.716 1734.72,654.75 1736.88,651.81 1739.04,648.911 1741.2,646.071 1743.36,643.301 1745.52,640.574 1747.68,637.883 1749.84,635.228 1752,632.608 1754.16,630.023 1756.33,627.472 1758.49,624.955 1760.65,622.471 1762.81,620.02 1764.97,617.602 1767.13,615.216 1769.29,612.861 1771.45,610.538 1773.61,608.245 1775.77,605.982 1777.93,603.75 1780.1,601.547 1782.26,599.373 1784.42,597.229 1786.58,595.112 1788.74,593.024 1790.9,590.963 1793.06,588.93 1795.22,586.923 1797.38,584.944 1799.54,582.99 1801.71,581.063 1803.87,579.161 1806.03,577.284 1808.19,575.432 1810.35,573.605 1812.51,571.802 1814.67,570.023 1816.83,568.268 1818.99,566.536 1821.15,564.827 1823.32,563.14 1825.48,561.476 1827.64,559.834 1829.8,558.214 1831.96,556.616 1834.12,555.038 1836.28,553.481 1838.44,551.946 1840.6,550.43 1842.76,548.934 1844.93,547.459 1847.09,546.003 1849.25,544.566 1851.41,543.148 1853.57,541.749 1855.73,540.368 1857.89,539.006 1860.05,537.662 1862.21,536.335 1864.37,535.026 1866.54,533.735 1868.7,532.461 1870.86,531.203 1873.02,529.962 1875.18,528.738 1877.34,527.53 1879.5,526.338 1881.66,525.161 1883.82,524.001 1885.98,522.855 1888.15,521.725 1890.31,520.61 1892.47,519.51 1894.63,518.424 1896.79,517.353 1898.95,516.296 1901.11,515.252 1903.27,514.223 1905.43,513.207 1907.59,512.205 1909.75,511.314 1911.92,511.367 1914.08,512.396 1916.24,514.216 1918.4,516.659 1920.56,519.572 1922.72,522.821 1924.88,526.286 1927.04,529.865 1929.2,533.474 1931.36,537.042 1933.53,540.516 1935.69,543.862 1937.85,547.059 1940.01,550.104 1942.17,553.01 1944.33,555.809 1946.49,558.545 1948.65,561.283 1950.81,564.066 1952.97,566.821 1955.14,569.538 1957.3,572.22 1959.46,574.866 1961.62,577.477 1963.78,580.054 1965.94,582.596 1968.1,585.105 1970.26,587.58 1972.42,590.023 1974.58,592.433 1976.75,594.812 1978.91,597.159 1981.07,599.474 1983.23,601.759 1985.39,604.014 1987.55,606.239 1989.71,608.434 1991.87,610.601 1994.03,612.738 1996.19,614.847 1998.36,616.928 2000.52,618.982 2002.68,621.008 2004.84,623.007 2007,624.98 2009.16,626.927 2011.32,628.848 2013.48,630.743 2015.64,632.613 2017.8,634.458 2019.96,636.279 2022.13,638.076 2024.29,639.849 2026.45,641.598 2028.61,643.325 2030.77,645.028 2032.93,646.709 2035.09,648.367 2037.25,650.004 2039.41,651.619 2041.57,653.212 2043.74,654.784 2045.9,656.336 2048.06,657.867 2050.22,659.377 2052.38,660.868 2054.54,662.339 2056.7,663.79 2058.86,665.223 2061.02,666.636 2063.18,668.03 2065.35,669.406 2067.51,670.764 2069.67,672.104 2071.83,673.426 2073.99,674.73 2076.15,676.017 2078.31,677.287 2080.47,678.54 2082.63,679.777 2084.79,680.997 2086.96,682.201 2089.12,683.389 2091.28,684.561 2093.44,685.718 2095.6,686.86 2097.76,687.986 2099.92,689.097 2102.08,690.194 2104.24,691.276 2106.4,692.344 2108.57,693.397 2110.73,694.437 2112.89,695.463 2115.05,696.475 2117.21,697.474 2119.37,698.459 2121.53,699.432 2123.69,700.391 2125.85,701.338 2128.01,702.064 2130.17,702.738 2132.34,703.963 2134.5,705.977 2136.66,708.641 2138.82,711.447 2140.98,714.123 2143.14,716.763 2145.3,719.368 2147.46,721.939 2149.62,724.476 2151.78,726.979 2153.95,729.449 2156.11,731.886 2158.27,734.29 2160.43,736.663 2162.59,739.005 2164.75,741.315 2166.91,743.595 2169.07,745.844 2171.23,748.064 2173.39,750.254 2175.56,752.416 2177.72,754.548 2179.88,756.652 2182.04,758.729 2184.2,760.778 2186.36,762.799 2188.52,764.794 2190.68,766.763 2192.84,768.705 2195,770.622 2197.17,772.513 2199.33,774.379 2201.49,776.221 2203.65,778.037 2205.81,779.83 2207.97,781.6 2210.13,783.345 2212.29,785.068 2214.45,786.767 2216.61,788.445 2218.78,790.099 2220.94,791.732 2223.1,793.344 2225.26,794.934 2227.42,796.503 2229.58,798.051 2231.74,799.578 2233.9,801.085 2236.06,802.573 2238.22,804.04 2240.38,805.489 2242.55,806.918 2244.71,808.328 2246.87,809.719 2249.03,811.092 2251.19,812.446 2253.35,813.783 2255.51,815.102 2257.67,816.404 2259.83,817.688 2261.99,818.955 2264.16,820.205 2266.32,821.439 2268.48,822.657 2270.64,823.858 2272.8,825.043 2274.96,826.213 2277.12,827.367 2279.28,828.506 2281.44,829.63 2283.6,830.739 2285.77,831.833 2287.93,832.912 2290.09,833.978 2292.25,835.029 2294.41,836.066 2296.57,837.09 2298.73,838.1 2300.89,839.096 2303.05,840.08 2305.21,841.05 2307.38,842.008 2309.54,842.952 2311.7,843.885 2313.86,844.805 2316.02,845.712 2318.18,846.608 2320.34,847.492 2322.5,848.364 2324.66,849.224 2326.82,850.073 2328.99,850.911 2331.15,851.738 2333.31,852.554 2335.47,853.359 2337.63,854.153 2339.79,854.937 2341.95,855.71 2344.11,856.473 2346.27,857.226 2348.43,857.969 2350.59,858.702 2352.76,859.426 "/>
<polyline clip-path="url(#clip162)" style="stroke:#e26f46; stroke-linecap:round; stroke-linejoin:round; stroke-width:4; stroke-opacity:1; fill:none" points="193.936,1011.04 196.097,1011.04 198.258,1011.04 200.419,1011.04 202.58,1011.04 204.741,1011.04 206.902,1011.04 209.063,1011.04 211.224,1011.04 213.385,1011.04 215.546,1011.04 217.707,1011.04 219.868,1011.04 222.029,1011.04 224.19,1011.04 226.351,1011.04 228.512,1011.04 230.673,1011.04 232.834,1011.04 234.995,1011.04 237.156,1011.04 239.317,1011.04 241.478,1011.04 243.639,1011.04 245.8,1011.04 247.961,1011.04 250.122,1011.04 252.282,1011.04 254.443,1011.04 256.604,1011.04 258.765,1011.04 260.926,1011.04 263.087,1011.04 265.248,1011.04 267.409,1011.04 269.57,1011.04 271.731,1011.04 273.892,1011.04 276.053,1011.04 278.214,1011.04 280.375,1011.04 282.536,1011.04 284.697,1011.04 286.858,1011.04 289.019,1011.04 291.18,1011.04 293.341,1011.04 295.502,1011.04 297.663,1011.04 299.824,1011.04 301.985,1011.04 304.146,1011.04 306.307,1011.04 308.468,1011.04 310.629,1011.04 312.79,1011.04 314.951,1011.04 317.112,1011.04 319.273,1011.04 321.434,1011.04 323.595,1011.04 325.756,1011.04 327.917,1011.04 330.078,1011.04 332.239,1011.04 334.4,1011.04 336.561,1011.04 338.722,1011.04 340.883,1011.04 343.044,1011.04 345.205,1011.04 347.366,1011.04 349.527,1011.04 351.688,1011.04 353.849,1011.04 356.01,1011.04 358.171,1011.04 360.332,1011.04 362.493,1011.04 364.653,1011.04 366.814,1011.04 368.975,1011.04 371.136,1011.04 373.297,1011.04 375.458,1011.04 377.619,1011.04 379.78,1011.04 381.941,1011.04 384.102,1011.04 386.263,1011.04 388.424,1011.04 390.585,1011.04 392.746,1011.04 394.907,1011.04 397.068,1011.04 399.229,1011.04 401.39,1011.04 403.551,1011.04 405.712,1011.04 407.873,1011.04 410.034,86.1857 412.195,86.1857 414.356,86.1857 416.517,86.1857 418.678,86.1857 420.839,86.1857 423,86.1857 425.161,86.1857 427.322,86.1857 429.483,86.1857 431.644,86.1857 433.805,86.1857 435.966,86.1857 438.127,86.1857 440.288,86.1857 442.449,86.1857 444.61,86.1857 446.771,86.1857 448.932,86.1857 451.093,86.1857 453.254,86.1857 455.415,86.1857 457.576,86.1857 459.737,86.1857 461.898,86.1857 464.059,86.1857 466.22,86.1857 468.381,86.1857 470.542,86.1857 472.703,86.1857 474.864,86.1857 477.024,86.1857 479.185,86.1857 481.346,86.1857 483.507,86.1857 485.668,86.1857 487.829,86.1857 489.99,86.1857 492.151,86.1857 494.312,86.1857 496.473,86.1857 498.634,86.1857 500.795,86.1857 502.956,86.1857 505.117,86.1857 507.278,86.1857 509.439,86.1857 511.6,86.1857 513.761,86.1857 515.922,86.1857 518.083,86.1857 520.244,86.1857 522.405,86.1857 524.566,86.1857 526.727,86.1857 528.888,86.1857 531.049,86.1857 533.21,86.1857 535.371,86.1857 537.532,86.1857 539.693,86.1857 541.854,86.1857 544.015,86.1857 546.176,86.1857 548.337,86.1857 550.498,86.1857 552.659,86.1857 554.82,86.1857 556.981,86.1857 559.142,86.1857 561.303,86.1857 563.464,86.1857 565.625,86.1857 567.786,86.1857 569.947,86.1857 572.108,86.1857 574.269,86.1857 576.43,86.1857 578.591,86.1857 580.752,86.1857 582.913,86.1857 585.074,86.1857 587.235,86.1857 589.396,86.1857 591.556,86.1857 593.717,86.1857 595.878,86.1857 598.039,86.1857 600.2,86.1857 602.361,86.1857 604.522,86.1857 606.683,86.1857 608.844,86.1857 611.005,86.1857 613.166,86.1857 615.327,86.1857 617.488,86.1857 619.649,86.1857 621.81,86.1857 623.971,86.1857 626.132,293.784 628.293,293.784 630.454,293.784 632.615,293.784 634.776,293.784 636.937,293.784 639.098,293.784 641.259,293.784 643.42,293.784 645.581,293.784 647.742,293.784 649.903,293.784 652.064,293.784 654.225,293.784 656.386,293.784 658.547,293.784 660.708,293.784 662.869,293.784 665.03,293.784 667.191,293.784 669.352,293.784 671.513,293.784 673.674,293.784 675.835,293.784 677.996,293.784 680.157,293.784 682.318,293.784 684.479,293.784 686.64,293.784 688.801,293.784 690.962,293.784 693.123,293.784 695.284,293.784 697.445,293.784 699.606,293.784 701.767,293.784 703.927,293.784 706.088,293.784 708.249,293.784 710.41,293.784 712.571,293.784 714.732,293.784 716.893,293.784 719.054,293.784 721.215,293.784 723.376,293.784 725.537,293.784 727.698,293.784 729.859,293.784 732.02,293.784 734.181,293.784 736.342,293.784 738.503,293.784 740.664,293.784 742.825,293.784 744.986,293.784 747.147,293.784 749.308,293.784 751.469,293.784 753.63,293.784 755.791,293.784 757.952,293.784 760.113,293.784 762.274,293.784 764.435,293.784 766.596,293.784 768.757,293.784 770.918,293.784 773.079,293.784 775.24,293.784 777.401,293.784 779.562,293.784 781.723,293.784 783.884,293.784 786.045,293.784 788.206,293.784 790.367,293.784 792.528,293.784 794.689,293.784 796.85,293.784 799.011,293.784 801.172,293.784 803.333,293.784 805.494,293.784 807.655,293.784 809.816,293.784 811.977,293.784 814.138,293.784 816.298,293.784 818.459,293.784 820.62,293.784 822.781,293.784 824.942,293.784 827.103,293.784 829.264,293.784 831.425,293.784 833.586,293.784 835.747,293.784 837.908,293.784 840.069,293.784 842.23,929.662 844.391,929.662 846.552,929.662 848.713,929.662 850.874,929.662 853.035,929.662 855.196,929.662 857.357,929.662 859.518,929.662 861.679,929.662 863.84,929.662 866.001,929.662 868.162,929.662 870.323,929.662 872.484,929.662 874.645,929.662 876.806,929.662 878.967,929.662 881.128,929.662 883.289,929.662 885.45,929.662 887.611,929.662 889.772,929.662 891.933,929.662 894.094,929.662 896.255,929.662 898.416,929.662 900.577,929.662 902.738,929.662 904.899,929.662 907.06,929.662 909.221,929.662 911.382,929.662 913.543,929.662 915.704,929.662 917.865,929.662 920.026,929.662 922.187,929.662 924.348,929.662 926.509,929.662 928.669,929.662 930.83,929.662 932.991,929.662 935.152,929.662 937.313,929.662 939.474,929.662 941.635,929.662 943.796,929.662 945.957,929.662 948.118,929.662 950.279,929.662 952.44,929.662 954.601,929.662 956.762,929.662 958.923,929.662 961.084,929.662 963.245,929.662 965.406,929.662 967.567,929.662 969.728,929.662 971.889,929.662 974.05,929.662 976.211,929.662 978.372,929.662 980.533,929.662 982.694,929.662 984.855,929.662 987.016,929.662 989.177,929.662 991.338,929.662 993.499,929.662 995.66,929.662 997.821,929.662 999.982,929.662 1002.14,929.662 1004.3,929.662 1006.46,929.662 1008.63,929.662 1010.79,929.662 1012.95,929.662 1015.11,929.662 1017.27,929.662 1019.43,929.662 1021.59,929.662 1023.75,929.662 1025.91,929.662 1028.07,929.662 1030.24,929.662 1032.4,929.662 1034.56,929.662 1036.72,929.662 1038.88,929.662 1041.04,929.662 1043.2,929.662 1045.36,929.662 1047.52,929.662 1049.68,929.662 1051.85,929.662 1054.01,929.662 1056.17,929.662 1058.33,939.268 1060.49,939.268 1062.65,939.268 1064.81,939.268 1066.97,939.268 1069.13,939.268 1071.29,939.268 1073.46,939.268 1075.62,939.268 1077.78,939.268 1079.94,939.268 1082.1,939.268 1084.26,939.268 1086.42,939.268 1088.58,939.268 1090.74,939.268 1092.9,939.268 1095.07,939.268 1097.23,939.268 1099.39,939.268 1101.55,939.268 1103.71,939.268 1105.87,939.268 1108.03,939.268 1110.19,939.268 1112.35,939.268 1114.51,939.268 1116.67,939.268 1118.84,939.268 1121,939.268 1123.16,939.268 1125.32,939.268 1127.48,939.268 1129.64,939.268 1131.8,939.268 1133.96,939.268 1136.12,939.268 1138.28,939.268 1140.45,939.268 1142.61,939.268 1144.77,939.268 1146.93,939.268 1149.09,939.268 1151.25,939.268 1153.41,939.268 1155.57,939.268 1157.73,939.268 1159.89,939.268 1162.06,939.268 1164.22,939.268 1166.38,939.268 1168.54,939.268 1170.7,939.268 1172.86,939.268 1175.02,939.268 1177.18,939.268 1179.34,939.268 1181.5,939.268 1183.67,939.268 1185.83,939.268 1187.99,939.268 1190.15,939.268 1192.31,939.268 1194.47,939.268 1196.63,939.268 1198.79,939.268 1200.95,939.268 1203.11,939.268 1205.28,939.268 1207.44,939.268 1209.6,939.268 1211.76,939.268 1213.92,939.268 1216.08,939.268 1218.24,939.268 1220.4,939.268 1222.56,939.268 1224.72,939.268 1226.88,939.268 1229.05,939.268 1231.21,939.268 1233.37,939.268 1235.53,939.268 1237.69,939.268 1239.85,939.268 1242.01,939.268 1244.17,939.268 1246.33,939.268 1248.49,939.268 1250.66,939.268 1252.82,939.268 1254.98,939.268 1257.14,939.268 1259.3,939.268 1261.46,939.268 1263.62,939.268 1265.78,939.268 1267.94,939.268 1270.1,939.268 1272.27,939.268 1274.43,1384.24 1276.59,1384.24 1278.75,1384.24 1280.91,1384.24 1283.07,1384.24 1285.23,1384.24 1287.39,1384.24 1289.55,1384.24 1291.71,1384.24 1293.88,1384.24 1296.04,1384.24 1298.2,1384.24 1300.36,1384.24 1302.52,1384.24 1304.68,1384.24 1306.84,1384.24 1309,1384.24 1311.16,1384.24 1313.32,1384.24 1315.49,1384.24 1317.65,1384.24 1319.81,1384.24 1321.97,1384.24 1324.13,1384.24 1326.29,1384.24 1328.45,1384.24 1330.61,1384.24 1332.77,1384.24 1334.93,1384.24 1337.09,1384.24 1339.26,1384.24 1341.42,1384.24 1343.58,1384.24 1345.74,1384.24 1347.9,1384.24 1350.06,1384.24 1352.22,1384.24 1354.38,1384.24 1356.54,1384.24 1358.7,1384.24 1360.87,1384.24 1363.03,1384.24 1365.19,1384.24 1367.35,1384.24 1369.51,1384.24 1371.67,1384.24 1373.83,1384.24 1375.99,1384.24 1378.15,1384.24 1380.31,1384.24 1382.48,1384.24 1384.64,1384.24 1386.8,1384.24 1388.96,1384.24 1391.12,1384.24 1393.28,1384.24 1395.44,1384.24 1397.6,1384.24 1399.76,1384.24 1401.92,1384.24 1404.09,1384.24 1406.25,1384.24 1408.41,1384.24 1410.57,1384.24 1412.73,1384.24 1414.89,1384.24 1417.05,1384.24 1419.21,1384.24 1421.37,1384.24 1423.53,1384.24 1425.7,1384.24 1427.86,1384.24 1430.02,1384.24 1432.18,1384.24 1434.34,1384.24 1436.5,1384.24 1438.66,1384.24 1440.82,1384.24 1442.98,1384.24 1445.14,1384.24 1447.3,1384.24 1449.47,1384.24 1451.63,1384.24 1453.79,1384.24 1455.95,1384.24 1458.11,1384.24 1460.27,1384.24 1462.43,1384.24 1464.59,1384.24 1466.75,1384.24 1468.91,1384.24 1471.08,1384.24 1473.24,1384.24 1475.4,1384.24 1477.56,1384.24 1479.72,1384.24 1481.88,1384.24 1484.04,1384.24 1486.2,1384.24 1488.36,1384.24 1490.52,493.569 1492.69,493.569 1494.85,493.569 1497.01,493.569 1499.17,493.569 1501.33,493.569 1503.49,493.569 1505.65,493.569 1507.81,493.569 1509.97,493.569 1512.13,493.569 1514.3,493.569 1516.46,493.569 1518.62,493.569 1520.78,493.569 1522.94,493.569 1525.1,493.569 1527.26,493.569 1529.42,493.569 1531.58,493.569 1533.74,493.569 1535.91,493.569 1538.07,493.569 1540.23,493.569 1542.39,493.569 1544.55,493.569 1546.71,493.569 1548.87,493.569 1551.03,493.569 1553.19,493.569 1555.35,493.569 1557.51,493.569 1559.68,493.569 1561.84,493.569 1564,493.569 1566.16,493.569 1568.32,493.569 1570.48,493.569 1572.64,493.569 1574.8,493.569 1576.96,493.569 1579.12,493.569 1581.29,493.569 1583.45,493.569 1585.61,493.569 1587.77,493.569 1589.93,493.569 1592.09,493.569 1594.25,493.569 1596.41,493.569 1598.57,493.569 1600.73,493.569 1602.9,493.569 1605.06,493.569 1607.22,493.569 1609.38,493.569 1611.54,493.569 1613.7,493.569 1615.86,493.569 1618.02,493.569 1620.18,493.569 1622.34,493.569 1624.51,493.569 1626.67,493.569 1628.83,493.569 1630.99,493.569 1633.15,493.569 1635.31,493.569 1637.47,493.569 1639.63,493.569 1641.79,493.569 1643.95,493.569 1646.12,493.569 1648.28,493.569 1650.44,493.569 1652.6,493.569 1654.76,493.569 1656.92,493.569 1659.08,493.569 1661.24,493.569 1663.4,493.569 1665.56,493.569 1667.72,493.569 1669.89,493.569 1672.05,493.569 1674.21,493.569 1676.37,493.569 1678.53,493.569 1680.69,493.569 1682.85,493.569 1685.01,493.569 1687.17,493.569 1689.33,493.569 1691.5,493.569 1693.66,493.569 1695.82,493.569 1697.98,493.569 1700.14,493.569 1702.3,493.569 1704.46,493.569 1706.62,437.615 1708.78,437.615 1710.94,437.615 1713.11,437.615 1715.27,437.615 1717.43,437.615 1719.59,437.615 1721.75,437.615 1723.91,437.615 1726.07,437.615 1728.23,437.615 1730.39,437.615 1732.55,437.615 1734.72,437.615 1736.88,437.615 1739.04,437.615 1741.2,437.615 1743.36,437.615 1745.52,437.615 1747.68,437.615 1749.84,437.615 1752,437.615 1754.16,437.615 1756.33,437.615 1758.49,437.615 1760.65,437.615 1762.81,437.615 1764.97,437.615 1767.13,437.615 1769.29,437.615 1771.45,437.615 1773.61,437.615 1775.77,437.615 1777.93,437.615 1780.1,437.615 1782.26,437.615 1784.42,437.615 1786.58,437.615 1788.74,437.615 1790.9,437.615 1793.06,437.615 1795.22,437.615 1797.38,437.615 1799.54,437.615 1801.71,437.615 1803.87,437.615 1806.03,437.615 1808.19,437.615 1810.35,437.615 1812.51,437.615 1814.67,437.615 1816.83,437.615 1818.99,437.615 1821.15,437.615 1823.32,437.615 1825.48,437.615 1827.64,437.615 1829.8,437.615 1831.96,437.615 1834.12,437.615 1836.28,437.615 1838.44,437.615 1840.6,437.615 1842.76,437.615 1844.93,437.615 1847.09,437.615 1849.25,437.615 1851.41,437.615 1853.57,437.615 1855.73,437.615 1857.89,437.615 1860.05,437.615 1862.21,437.615 1864.37,437.615 1866.54,437.615 1868.7,437.615 1870.86,437.615 1873.02,437.615 1875.18,437.615 1877.34,437.615 1879.5,437.615 1881.66,437.615 1883.82,437.615 1885.98,437.615 1888.15,437.615 1890.31,437.615 1892.47,437.615 1894.63,437.615 1896.79,437.615 1898.95,437.615 1901.11,437.615 1903.27,437.615 1905.43,437.615 1907.59,437.615 1909.75,437.615 1911.92,437.615 1914.08,437.615 1916.24,437.615 1918.4,437.615 1920.56,437.615 1922.72,771.812 1924.88,771.812 1927.04,771.812 1929.2,771.812 1931.36,771.812 1933.53,771.812 1935.69,771.812 1937.85,771.812 1940.01,771.812 1942.17,771.812 1944.33,771.812 1946.49,771.812 1948.65,771.812 1950.81,771.812 1952.97,771.812 1955.14,771.812 1957.3,771.812 1959.46,771.812 1961.62,771.812 1963.78,771.812 1965.94,771.812 1968.1,771.812 1970.26,771.812 1972.42,771.812 1974.58,771.812 1976.75,771.812 1978.91,771.812 1981.07,771.812 1983.23,771.812 1985.39,771.812 1987.55,771.812 1989.71,771.812 1991.87,771.812 1994.03,771.812 1996.19,771.812 1998.36,771.812 2000.52,771.812 2002.68,771.812 2004.84,771.812 2007,771.812 2009.16,771.812 2011.32,771.812 2013.48,771.812 2015.64,771.812 2017.8,771.812 2019.96,771.812 2022.13,771.812 2024.29,771.812 2026.45,771.812 2028.61,771.812 2030.77,771.812 2032.93,771.812 2035.09,771.812 2037.25,771.812 2039.41,771.812 2041.57,771.812 2043.74,771.812 2045.9,771.812 2048.06,771.812 2050.22,771.812 2052.38,771.812 2054.54,771.812 2056.7,771.812 2058.86,771.812 2061.02,771.812 2063.18,771.812 2065.35,771.812 2067.51,771.812 2069.67,771.812 2071.83,771.812 2073.99,771.812 2076.15,771.812 2078.31,771.812 2080.47,771.812 2082.63,771.812 2084.79,771.812 2086.96,771.812 2089.12,771.812 2091.28,771.812 2093.44,771.812 2095.6,771.812 2097.76,771.812 2099.92,771.812 2102.08,771.812 2104.24,771.812 2106.4,771.812 2108.57,771.812 2110.73,771.812 2112.89,771.812 2115.05,771.812 2117.21,771.812 2119.37,771.812 2121.53,771.812 2123.69,771.812 2125.85,771.812 2128.01,771.812 2130.17,771.812 2132.34,771.812 2134.5,771.812 2136.66,771.812 2138.82,913.268 2140.98,913.268 2143.14,913.268 2145.3,913.268 2147.46,913.268 2149.62,913.268 2151.78,913.268 2153.95,913.268 2156.11,913.268 2158.27,913.268 2160.43,913.268 2162.59,913.268 2164.75,913.268 2166.91,913.268 2169.07,913.268 2171.23,913.268 2173.39,913.268 2175.56,913.268 2177.72,913.268 2179.88,913.268 2182.04,913.268 2184.2,913.268 2186.36,913.268 2188.52,913.268 2190.68,913.268 2192.84,913.268 2195,913.268 2197.17,913.268 2199.33,913.268 2201.49,913.268 2203.65,913.268 2205.81,913.268 2207.97,913.268 2210.13,913.268 2212.29,913.268 2214.45,913.268 2216.61,913.268 2218.78,913.268 2220.94,913.268 2223.1,913.268 2225.26,913.268 2227.42,913.268 2229.58,913.268 2231.74,913.268 2233.9,913.268 2236.06,913.268 2238.22,913.268 2240.38,913.268 2242.55,913.268 2244.71,913.268 2246.87,913.268 2249.03,913.268 2251.19,913.268 2253.35,913.268 2255.51,913.268 2257.67,913.268 2259.83,913.268 2261.99,913.268 2264.16,913.268 2266.32,913.268 2268.48,913.268 2270.64,913.268 2272.8,913.268 2274.96,913.268 2277.12,913.268 2279.28,913.268 2281.44,913.268 2283.6,913.268 2285.77,913.268 2287.93,913.268 2290.09,913.268 2292.25,913.268 2294.41,913.268 2296.57,913.268 2298.73,913.268 2300.89,913.268 2303.05,913.268 2305.21,913.268 2307.38,913.268 2309.54,913.268 2311.7,913.268 2313.86,913.268 2316.02,913.268 2318.18,913.268 2320.34,913.268 2322.5,913.268 2324.66,913.268 2326.82,913.268 2328.99,913.268 2331.15,913.268 2333.31,913.268 2335.47,913.268 2337.63,913.268 2339.79,913.268 2341.95,913.268 2344.11,913.268 2346.27,913.268 2348.43,913.268 2350.59,913.268 2352.76,913.268 "/>
<path clip-path="url(#clip160)" d="M2039.77 248.629 L2280.8 248.629 L2280.8 93.1086 L2039.77 93.1086  Z" fill="#ffffff" fill-rule="evenodd" fill-opacity="1"/>
<polyline clip-path="url(#clip160)" style="stroke:#000000; stroke-linecap:round; stroke-linejoin:round; stroke-width:4; stroke-opacity:1; fill:none" points="2039.77,248.629 2280.8,248.629 2280.8,93.1086 2039.77,93.1086 2039.77,248.629 "/>
<polyline clip-path="url(#clip160)" style="stroke:#009af9; stroke-linecap:round; stroke-linejoin:round; stroke-width:4; stroke-opacity:1; fill:none" points="2063.76,144.949 2207.68,144.949 "/>
<path clip-path="url(#clip160)" d="M2256.32 136.303 L2246.95 148.919 L2256.81 162.229 L2251.79 162.229 L2244.24 152.043 L2236.69 162.229 L2231.67 162.229 L2241.74 148.664 L2232.53 136.303 L2237.55 136.303 L2244.42 145.539 L2251.3 136.303 L2256.32 136.303 Z" fill="#000000" fill-rule="nonzero" fill-opacity="1" /><polyline clip-path="url(#clip160)" style="stroke:#e26f46; stroke-linecap:round; stroke-linejoin:round; stroke-width:4; stroke-opacity:1; fill:none" points="2063.76,196.789 2207.68,196.789 "/>
<path clip-path="url(#clip160)" d="M2248.17 178.05 L2248.17 181.592 L2244.1 181.592 Q2241.81 181.592 2240.91 182.518 Q2240.03 183.444 2240.03 185.851 L2240.03 188.143 L2247.04 188.143 L2247.04 191.453 L2240.03 191.453 L2240.03 214.069 L2235.74 214.069 L2235.74 191.453 L2231.67 191.453 L2231.67 188.143 L2235.74 188.143 L2235.74 186.337 Q2235.74 182.009 2237.76 180.041 Q2239.77 178.05 2244.15 178.05 L2248.17 178.05 Z" fill="#000000" fill-rule="nonzero" fill-opacity="1" /></svg>
