<?xml version="1.0" encoding="utf-8"?>
<svg xmlns="http://www.w3.org/2000/svg" xmlns:xlink="http://www.w3.org/1999/xlink" width="600" height="400" viewBox="0 0 2400 1600">
<defs>
  <clipPath id="clip090">
    <rect x="0" y="0" width="2400" height="1600"/>
  </clipPath>
</defs>
<path clip-path="url(#clip090)" d="M0 1600 L2400 1600 L2400 0 L0 0  Z" fill="#ffffff" fill-rule="evenodd" fill-opacity="1"/>
<defs>
  <clipPath id="clip091">
    <rect x="112" y="47" width="2242" height="1440"/>
  </clipPath>
</defs>
<path clip-path="url(#clip091)" d="M-616.472 2459.1 L-616.472 2186.98 L-273.151 2050.93 L321.498 2129.48 L321.498 2401.59 L-21.8229 2537.65 L-616.472 2459.1  Z" fill="#ffffff" fill-rule="evenodd" fill-opacity="1"/>
<polyline clip-path="url(#clip091)" style="stroke:#000000; stroke-linecap:round; stroke-linejoin:round; stroke-width:2; stroke-opacity:0.1; fill:none" points="730.201,1221.52 1145.66,861.722 1145.66,142.12 "/>
<polyline clip-path="url(#clip091)" style="stroke:#000000; stroke-linecap:round; stroke-linejoin:round; stroke-width:2; stroke-opacity:0.1; fill:none" points="878.863,1264.44 1294.33,904.637 1294.33,185.035 "/>
<polyline clip-path="url(#clip091)" style="stroke:#000000; stroke-linecap:round; stroke-linejoin:round; stroke-width:2; stroke-opacity:0.1; fill:none" points="1027.53,1307.35 1442.99,947.552 1442.99,227.95 "/>
<polyline clip-path="url(#clip091)" style="stroke:#000000; stroke-linecap:round; stroke-linejoin:round; stroke-width:2; stroke-opacity:0.1; fill:none" points="1176.19,1350.27 1591.65,990.467 1591.65,270.865 "/>
<polyline clip-path="url(#clip091)" style="stroke:#000000; stroke-linecap:round; stroke-linejoin:round; stroke-width:2; stroke-opacity:0.1; fill:none" points="1324.85,1393.18 1740.31,1033.38 1740.31,313.78 "/>
<polyline clip-path="url(#clip091)" style="stroke:#000000; stroke-linecap:round; stroke-linejoin:round; stroke-width:2; stroke-opacity:0.1; fill:none" points="1386.99,1408.29 667.388,1200.56 667.388,480.955 "/>
<polyline clip-path="url(#clip091)" style="stroke:#000000; stroke-linecap:round; stroke-linejoin:round; stroke-width:2; stroke-opacity:0.1; fill:none" points="1465.54,1340.26 745.941,1132.53 745.941,412.927 "/>
<polyline clip-path="url(#clip091)" style="stroke:#000000; stroke-linecap:round; stroke-linejoin:round; stroke-width:2; stroke-opacity:0.1; fill:none" points="1544.09,1272.23 824.493,1064.5 824.493,344.898 "/>
<polyline clip-path="url(#clip091)" style="stroke:#000000; stroke-linecap:round; stroke-linejoin:round; stroke-width:2; stroke-opacity:0.1; fill:none" points="1622.65,1204.2 903.045,996.472 903.045,276.87 "/>
<polyline clip-path="url(#clip091)" style="stroke:#000000; stroke-linecap:round; stroke-linejoin:round; stroke-width:2; stroke-opacity:0.1; fill:none" points="1701.2,1136.17 981.598,928.443 981.598,208.841 "/>
<polyline clip-path="url(#clip091)" style="stroke:#000000; stroke-linecap:round; stroke-linejoin:round; stroke-width:2; stroke-opacity:0.1; fill:none" points="1779.75,1068.15 1060.15,860.415 1060.15,140.813 "/>
<polyline clip-path="url(#clip091)" style="stroke:#000000; stroke-linecap:round; stroke-linejoin:round; stroke-width:2; stroke-opacity:0.1; fill:none" points="664.934,1170.09 1080.4,810.294 1800,1018.03 "/>
<polyline clip-path="url(#clip091)" style="stroke:#000000; stroke-linecap:round; stroke-linejoin:round; stroke-width:2; stroke-opacity:0.1; fill:none" points="664.934,1051.54 1080.4,691.735 1800,899.466 "/>
<polyline clip-path="url(#clip091)" style="stroke:#000000; stroke-linecap:round; stroke-linejoin:round; stroke-width:2; stroke-opacity:0.1; fill:none" points="664.934,932.978 1080.4,573.177 1800,780.908 "/>
<polyline clip-path="url(#clip091)" style="stroke:#000000; stroke-linecap:round; stroke-linejoin:round; stroke-width:2; stroke-opacity:0.1; fill:none" points="664.934,814.419 1080.4,454.618 1800,662.349 "/>
<polyline clip-path="url(#clip091)" style="stroke:#000000; stroke-linecap:round; stroke-linejoin:round; stroke-width:2; stroke-opacity:0.1; fill:none" points="664.934,695.861 1080.4,336.06 1800,543.791 "/>
<polyline clip-path="url(#clip091)" style="stroke:#000000; stroke-linecap:round; stroke-linejoin:round; stroke-width:2; stroke-opacity:0.1; fill:none" points="664.934,577.302 1080.4,217.501 1800,425.232 "/>
<polyline clip-path="url(#clip090)" style="stroke:#000000; stroke-linecap:round; stroke-linejoin:round; stroke-width:4; stroke-opacity:1; fill:none" points="664.934,1202.68 1384.54,1410.41 "/>
<polyline clip-path="url(#clip090)" style="stroke:#000000; stroke-linecap:round; stroke-linejoin:round; stroke-width:4; stroke-opacity:1; fill:none" points="730.201,1221.52 735.186,1217.21 "/>
<polyline clip-path="url(#clip090)" style="stroke:#000000; stroke-linecap:round; stroke-linejoin:round; stroke-width:4; stroke-opacity:1; fill:none" points="878.863,1264.44 883.849,1260.12 "/>
<polyline clip-path="url(#clip090)" style="stroke:#000000; stroke-linecap:round; stroke-linejoin:round; stroke-width:4; stroke-opacity:1; fill:none" points="1027.53,1307.35 1032.51,1303.04 "/>
<polyline clip-path="url(#clip090)" style="stroke:#000000; stroke-linecap:round; stroke-linejoin:round; stroke-width:4; stroke-opacity:1; fill:none" points="1176.19,1350.27 1181.17,1345.95 "/>
<polyline clip-path="url(#clip090)" style="stroke:#000000; stroke-linecap:round; stroke-linejoin:round; stroke-width:4; stroke-opacity:1; fill:none" points="1324.85,1393.18 1329.84,1388.87 "/>
<path clip-path="url(#clip090)" d="M670.249 1235.87 Q666.638 1235.87 664.809 1239.44 Q663.004 1242.98 663.004 1250.11 Q663.004 1257.22 664.809 1260.78 Q666.638 1264.32 670.249 1264.32 Q673.883 1264.32 675.689 1260.78 Q677.517 1257.22 677.517 1250.11 Q677.517 1242.98 675.689 1239.44 Q673.883 1235.87 670.249 1235.87 M670.249 1232.17 Q676.059 1232.17 679.115 1236.78 Q682.193 1241.36 682.193 1250.11 Q682.193 1258.84 679.115 1263.44 Q676.059 1268.03 670.249 1268.03 Q664.439 1268.03 661.36 1263.44 Q658.305 1258.84 658.305 1250.11 Q658.305 1241.36 661.36 1236.78 Q664.439 1232.17 670.249 1232.17 Z" fill="#000000" fill-rule="nonzero" fill-opacity="1" /><path clip-path="url(#clip090)" d="M690.411 1261.47 L695.295 1261.47 L695.295 1267.35 L690.411 1267.35 L690.411 1261.47 Z" fill="#000000" fill-rule="nonzero" fill-opacity="1" /><path clip-path="url(#clip090)" d="M705.527 1232.79 L723.883 1232.79 L723.883 1236.73 L709.809 1236.73 L709.809 1245.2 Q710.827 1244.85 711.846 1244.69 Q712.865 1244.51 713.883 1244.51 Q719.67 1244.51 723.05 1247.68 Q726.429 1250.85 726.429 1256.27 Q726.429 1261.85 722.957 1264.95 Q719.485 1268.03 713.165 1268.03 Q710.99 1268.03 708.721 1267.66 Q706.476 1267.29 704.068 1266.54 L704.068 1261.85 Q706.152 1262.98 708.374 1263.54 Q710.596 1264.09 713.073 1264.09 Q717.077 1264.09 719.415 1261.98 Q721.753 1259.88 721.753 1256.27 Q721.753 1252.66 719.415 1250.55 Q717.077 1248.44 713.073 1248.44 Q711.198 1248.44 709.323 1248.86 Q707.471 1249.28 705.527 1250.16 L705.527 1232.79 Z" fill="#000000" fill-rule="nonzero" fill-opacity="1" /><path clip-path="url(#clip090)" d="M808.726 1306.33 L816.365 1306.33 L816.365 1279.97 L808.055 1281.64 L808.055 1277.38 L816.319 1275.71 L820.995 1275.71 L820.995 1306.33 L828.634 1306.33 L828.634 1310.27 L808.726 1310.27 L808.726 1306.33 Z" fill="#000000" fill-rule="nonzero" fill-opacity="1" /><path clip-path="url(#clip090)" d="M838.078 1304.39 L842.962 1304.39 L842.962 1310.27 L838.078 1310.27 L838.078 1304.39 Z" fill="#000000" fill-rule="nonzero" fill-opacity="1" /><path clip-path="url(#clip090)" d="M863.147 1278.79 Q859.536 1278.79 857.707 1282.35 Q855.902 1285.89 855.902 1293.02 Q855.902 1300.13 857.707 1303.7 Q859.536 1307.24 863.147 1307.24 Q866.781 1307.24 868.587 1303.7 Q870.416 1300.13 870.416 1293.02 Q870.416 1285.89 868.587 1282.35 Q866.781 1278.79 863.147 1278.79 M863.147 1275.08 Q868.957 1275.08 872.013 1279.69 Q875.092 1284.27 875.092 1293.02 Q875.092 1301.75 872.013 1306.36 Q868.957 1310.94 863.147 1310.94 Q857.337 1310.94 854.258 1306.36 Q851.203 1301.75 851.203 1293.02 Q851.203 1284.27 854.258 1279.69 Q857.337 1275.08 863.147 1275.08 Z" fill="#000000" fill-rule="nonzero" fill-opacity="1" /><path clip-path="url(#clip090)" d="M958.384 1349.25 L966.023 1349.25 L966.023 1322.88 L957.713 1324.55 L957.713 1320.29 L965.976 1318.62 L970.652 1318.62 L970.652 1349.25 L978.291 1349.25 L978.291 1353.18 L958.384 1353.18 L958.384 1349.25 Z" fill="#000000" fill-rule="nonzero" fill-opacity="1" /><path clip-path="url(#clip090)" d="M987.736 1347.31 L992.62 1347.31 L992.62 1353.18 L987.736 1353.18 L987.736 1347.31 Z" fill="#000000" fill-rule="nonzero" fill-opacity="1" /><path clip-path="url(#clip090)" d="M1002.85 1318.62 L1021.21 1318.62 L1021.21 1322.56 L1007.13 1322.56 L1007.13 1331.03 Q1008.15 1330.68 1009.17 1330.52 Q1010.19 1330.34 1011.21 1330.34 Q1016.99 1330.34 1020.37 1333.51 Q1023.75 1336.68 1023.75 1342.1 Q1023.75 1347.68 1020.28 1350.78 Q1016.81 1353.86 1010.49 1353.86 Q1008.31 1353.86 1006.05 1353.49 Q1003.8 1353.12 1001.39 1352.37 L1001.39 1347.68 Q1003.48 1348.81 1005.7 1349.37 Q1007.92 1349.92 1010.4 1349.92 Q1014.4 1349.92 1016.74 1347.81 Q1019.08 1345.71 1019.08 1342.1 Q1019.08 1338.49 1016.74 1336.38 Q1014.4 1334.27 1010.4 1334.27 Q1008.52 1334.27 1006.65 1334.69 Q1004.8 1335.11 1002.85 1335.99 L1002.85 1318.62 Z" fill="#000000" fill-rule="nonzero" fill-opacity="1" /><path clip-path="url(#clip090)" d="M1109.27 1392.16 L1125.59 1392.16 L1125.59 1396.1 L1103.64 1396.1 L1103.64 1392.16 Q1106.31 1389.41 1110.89 1384.78 Q1115.5 1380.13 1116.68 1378.79 Q1118.92 1376.26 1119.8 1374.53 Q1120.7 1372.77 1120.7 1371.08 Q1120.7 1368.32 1118.76 1366.59 Q1116.84 1364.85 1113.74 1364.85 Q1111.54 1364.85 1109.08 1365.61 Q1106.65 1366.38 1103.87 1367.93 L1103.87 1363.21 Q1106.7 1362.07 1109.15 1361.49 Q1111.61 1360.91 1113.64 1360.91 Q1119.01 1360.91 1122.21 1363.6 Q1125.4 1366.29 1125.4 1370.78 Q1125.4 1372.91 1124.59 1374.83 Q1123.81 1376.73 1121.7 1379.32 Q1121.12 1379.99 1118.02 1383.21 Q1114.92 1386.4 1109.27 1392.16 Z" fill="#000000" fill-rule="nonzero" fill-opacity="1" /><path clip-path="url(#clip090)" d="M1135.4 1390.22 L1140.29 1390.22 L1140.29 1396.1 L1135.4 1396.1 L1135.4 1390.22 Z" fill="#000000" fill-rule="nonzero" fill-opacity="1" /><path clip-path="url(#clip090)" d="M1160.47 1364.62 Q1156.86 1364.62 1155.03 1368.18 Q1153.23 1371.73 1153.23 1378.85 Q1153.23 1385.96 1155.03 1389.53 Q1156.86 1393.07 1160.47 1393.07 Q1164.11 1393.07 1165.91 1389.53 Q1167.74 1385.96 1167.74 1378.85 Q1167.74 1371.73 1165.91 1368.18 Q1164.11 1364.62 1160.47 1364.62 M1160.47 1360.91 Q1166.28 1360.91 1169.34 1365.52 Q1172.42 1370.1 1172.42 1378.85 Q1172.42 1387.58 1169.34 1392.19 Q1166.28 1396.77 1160.47 1396.77 Q1154.66 1396.77 1151.58 1392.19 Q1148.53 1387.58 1148.53 1378.85 Q1148.53 1370.1 1151.58 1365.52 Q1154.66 1360.91 1160.47 1360.91 Z" fill="#000000" fill-rule="nonzero" fill-opacity="1" /><path clip-path="url(#clip090)" d="M1258.93 1435.08 L1275.25 1435.08 L1275.25 1439.02 L1253.3 1439.02 L1253.3 1435.08 Q1255.96 1432.33 1260.55 1427.7 Q1265.15 1423.04 1266.33 1421.7 Q1268.58 1419.18 1269.46 1417.44 Q1270.36 1415.68 1270.36 1413.99 Q1270.36 1411.24 1268.42 1409.5 Q1266.5 1407.77 1263.39 1407.77 Q1261.19 1407.77 1258.74 1408.53 Q1256.31 1409.29 1253.53 1410.84 L1253.53 1406.12 Q1256.36 1404.99 1258.81 1404.41 Q1261.26 1403.83 1263.3 1403.83 Q1268.67 1403.83 1271.87 1406.52 Q1275.06 1409.2 1275.06 1413.69 Q1275.06 1415.82 1274.25 1417.74 Q1273.46 1419.64 1271.36 1422.23 Q1270.78 1422.9 1267.68 1426.12 Q1264.57 1429.32 1258.93 1435.08 Z" fill="#000000" fill-rule="nonzero" fill-opacity="1" /><path clip-path="url(#clip090)" d="M1285.06 1433.14 L1289.94 1433.14 L1289.94 1439.02 L1285.06 1439.02 L1285.06 1433.14 Z" fill="#000000" fill-rule="nonzero" fill-opacity="1" /><path clip-path="url(#clip090)" d="M1300.18 1404.46 L1318.53 1404.46 L1318.53 1408.39 L1304.46 1408.39 L1304.46 1416.86 Q1305.48 1416.52 1306.5 1416.35 Q1307.51 1416.17 1308.53 1416.17 Q1314.32 1416.17 1317.7 1419.34 Q1321.08 1422.51 1321.08 1427.93 Q1321.08 1433.51 1317.61 1436.61 Q1314.13 1439.69 1307.81 1439.69 Q1305.64 1439.69 1303.37 1439.32 Q1301.13 1438.95 1298.72 1438.2 L1298.72 1433.51 Q1300.8 1434.64 1303.02 1435.2 Q1305.25 1435.75 1307.72 1435.75 Q1311.73 1435.75 1314.06 1433.64 Q1316.4 1431.54 1316.4 1427.93 Q1316.4 1424.32 1314.06 1422.21 Q1311.73 1420.1 1307.72 1420.1 Q1305.85 1420.1 1303.97 1420.52 Q1302.12 1420.94 1300.18 1421.82 L1300.18 1404.46 Z" fill="#000000" fill-rule="nonzero" fill-opacity="1" /><polyline clip-path="url(#clip090)" style="stroke:#000000; stroke-linecap:round; stroke-linejoin:round; stroke-width:4; stroke-opacity:1; fill:none" points="1384.54,1410.41 1800,1050.61 "/>
<polyline clip-path="url(#clip090)" style="stroke:#000000; stroke-linecap:round; stroke-linejoin:round; stroke-width:4; stroke-opacity:1; fill:none" points="1386.99,1408.29 1378.35,1405.8 "/>
<polyline clip-path="url(#clip090)" style="stroke:#000000; stroke-linecap:round; stroke-linejoin:round; stroke-width:4; stroke-opacity:1; fill:none" points="1465.54,1340.26 1456.91,1337.77 "/>
<polyline clip-path="url(#clip090)" style="stroke:#000000; stroke-linecap:round; stroke-linejoin:round; stroke-width:4; stroke-opacity:1; fill:none" points="1544.09,1272.23 1535.46,1269.74 "/>
<polyline clip-path="url(#clip090)" style="stroke:#000000; stroke-linecap:round; stroke-linejoin:round; stroke-width:4; stroke-opacity:1; fill:none" points="1622.65,1204.2 1614.01,1201.71 "/>
<polyline clip-path="url(#clip090)" style="stroke:#000000; stroke-linecap:round; stroke-linejoin:round; stroke-width:4; stroke-opacity:1; fill:none" points="1701.2,1136.17 1692.56,1133.68 "/>
<polyline clip-path="url(#clip090)" style="stroke:#000000; stroke-linecap:round; stroke-linejoin:round; stroke-width:4; stroke-opacity:1; fill:none" points="1779.75,1068.15 1771.12,1065.65 "/>
<path clip-path="url(#clip090)" d="M1413.23 1433.71 Q1416.58 1434.43 1418.46 1436.69 Q1420.36 1438.96 1420.36 1442.3 Q1420.36 1447.41 1416.84 1450.21 Q1413.32 1453.01 1406.84 1453.01 Q1404.66 1453.01 1402.35 1452.57 Q1400.05 1452.16 1397.6 1451.3 L1397.6 1446.79 Q1399.54 1447.92 1401.86 1448.5 Q1404.17 1449.08 1406.7 1449.08 Q1411.1 1449.08 1413.39 1447.34 Q1415.7 1445.61 1415.7 1442.3 Q1415.7 1439.24 1413.55 1437.53 Q1411.42 1435.79 1407.6 1435.79 L1403.57 1435.79 L1403.57 1431.95 L1407.79 1431.95 Q1411.23 1431.95 1413.06 1430.58 Q1414.89 1429.19 1414.89 1426.6 Q1414.89 1423.94 1412.99 1422.53 Q1411.12 1421.09 1407.6 1421.09 Q1405.68 1421.09 1403.48 1421.51 Q1401.28 1421.93 1398.64 1422.81 L1398.64 1418.64 Q1401.3 1417.9 1403.62 1417.53 Q1405.96 1417.16 1408.02 1417.16 Q1413.34 1417.16 1416.44 1419.59 Q1419.54 1422 1419.54 1426.12 Q1419.54 1428.99 1417.9 1430.98 Q1416.26 1432.94 1413.23 1433.71 Z" fill="#000000" fill-rule="nonzero" fill-opacity="1" /><path clip-path="url(#clip090)" d="M1491.75 1353.83 L1479.95 1372.28 L1491.75 1372.28 L1491.75 1353.83 M1490.53 1349.75 L1496.41 1349.75 L1496.41 1372.28 L1501.34 1372.28 L1501.34 1376.17 L1496.41 1376.17 L1496.41 1384.31 L1491.75 1384.31 L1491.75 1376.17 L1476.15 1376.17 L1476.15 1371.65 L1490.53 1349.75 Z" fill="#000000" fill-rule="nonzero" fill-opacity="1" /><path clip-path="url(#clip090)" d="M1556.16 1281.73 L1574.52 1281.73 L1574.52 1285.66 L1560.45 1285.66 L1560.45 1294.13 Q1561.46 1293.79 1562.48 1293.62 Q1563.5 1293.44 1564.52 1293.44 Q1570.31 1293.44 1573.69 1296.61 Q1577.07 1299.78 1577.07 1305.2 Q1577.07 1310.78 1573.59 1313.88 Q1570.12 1316.96 1563.8 1316.96 Q1561.63 1316.96 1559.36 1316.59 Q1557.11 1316.22 1554.71 1315.48 L1554.71 1310.78 Q1556.79 1311.91 1559.01 1312.47 Q1561.23 1313.02 1563.71 1313.02 Q1567.71 1313.02 1570.05 1310.92 Q1572.39 1308.81 1572.39 1305.2 Q1572.39 1301.59 1570.05 1299.48 Q1567.71 1297.37 1563.71 1297.37 Q1561.83 1297.37 1559.96 1297.79 Q1558.11 1298.21 1556.16 1299.09 L1556.16 1281.73 Z" fill="#000000" fill-rule="nonzero" fill-opacity="1" /><path clip-path="url(#clip090)" d="M1645.6 1229.11 Q1642.45 1229.11 1640.6 1231.27 Q1638.77 1233.42 1638.77 1237.17 Q1638.77 1240.9 1640.6 1243.07 Q1642.45 1245.22 1645.6 1245.22 Q1648.74 1245.22 1650.57 1243.07 Q1652.42 1240.9 1652.42 1237.17 Q1652.42 1233.42 1650.57 1231.27 Q1648.74 1229.11 1645.6 1229.11 M1654.88 1214.46 L1654.88 1218.72 Q1653.12 1217.89 1651.31 1217.45 Q1649.53 1217.01 1647.77 1217.01 Q1643.14 1217.01 1640.69 1220.13 Q1638.26 1223.26 1637.91 1229.58 Q1639.28 1227.56 1641.34 1226.5 Q1643.4 1225.41 1645.87 1225.41 Q1651.08 1225.41 1654.09 1228.58 Q1657.12 1231.73 1657.12 1237.17 Q1657.12 1242.49 1653.98 1245.71 Q1650.83 1248.93 1645.6 1248.93 Q1639.6 1248.93 1636.43 1244.34 Q1633.26 1239.74 1633.26 1231.01 Q1633.26 1222.82 1637.15 1217.96 Q1641.04 1213.07 1647.59 1213.07 Q1649.35 1213.07 1651.13 1213.42 Q1652.93 1213.77 1654.88 1214.46 Z" fill="#000000" fill-rule="nonzero" fill-opacity="1" /><path clip-path="url(#clip090)" d="M1711.81 1145.67 L1734.03 1145.67 L1734.03 1147.66 L1721.49 1180.23 L1716.6 1180.23 L1728.41 1149.6 L1711.81 1149.6 L1711.81 1145.67 Z" fill="#000000" fill-rule="nonzero" fill-opacity="1" /><path clip-path="url(#clip090)" d="M1802.21 1095.79 Q1798.88 1095.79 1796.96 1097.57 Q1795.06 1099.35 1795.06 1102.48 Q1795.06 1105.6 1796.96 1107.39 Q1798.88 1109.17 1802.21 1109.17 Q1805.55 1109.17 1807.47 1107.39 Q1809.39 1105.58 1809.39 1102.48 Q1809.39 1099.35 1807.47 1097.57 Q1805.57 1095.79 1802.21 1095.79 M1797.54 1093.8 Q1794.53 1093.06 1792.84 1091 Q1791.17 1088.94 1791.17 1085.97 Q1791.17 1081.83 1794.11 1079.42 Q1797.08 1077.02 1802.21 1077.02 Q1807.38 1077.02 1810.32 1079.42 Q1813.26 1081.83 1813.26 1085.97 Q1813.26 1088.94 1811.57 1091 Q1809.9 1093.06 1806.91 1093.8 Q1810.29 1094.58 1812.17 1096.88 Q1814.07 1099.17 1814.07 1102.48 Q1814.07 1107.5 1810.99 1110.19 Q1807.93 1112.87 1802.21 1112.87 Q1796.5 1112.87 1793.42 1110.19 Q1790.36 1107.5 1790.36 1102.48 Q1790.36 1099.17 1792.26 1096.88 Q1794.16 1094.58 1797.54 1093.8 M1795.83 1086.41 Q1795.83 1089.1 1797.49 1090.6 Q1799.18 1092.11 1802.21 1092.11 Q1805.22 1092.11 1806.91 1090.6 Q1808.63 1089.1 1808.63 1086.41 Q1808.63 1083.73 1806.91 1082.22 Q1805.22 1080.72 1802.21 1080.72 Q1799.18 1080.72 1797.49 1082.22 Q1795.83 1083.73 1795.83 1086.41 Z" fill="#000000" fill-rule="nonzero" fill-opacity="1" /><polyline clip-path="url(#clip090)" style="stroke:#000000; stroke-linecap:round; stroke-linejoin:round; stroke-width:4; stroke-opacity:1; fill:none" points="664.934,1202.68 664.934,483.08 "/>
<polyline clip-path="url(#clip090)" style="stroke:#000000; stroke-linecap:round; stroke-linejoin:round; stroke-width:4; stroke-opacity:1; fill:none" points="664.934,1170.09 669.92,1165.78 "/>
<polyline clip-path="url(#clip090)" style="stroke:#000000; stroke-linecap:round; stroke-linejoin:round; stroke-width:4; stroke-opacity:1; fill:none" points="664.934,1051.54 669.92,1047.22 "/>
<polyline clip-path="url(#clip090)" style="stroke:#000000; stroke-linecap:round; stroke-linejoin:round; stroke-width:4; stroke-opacity:1; fill:none" points="664.934,932.978 669.92,928.66 "/>
<polyline clip-path="url(#clip090)" style="stroke:#000000; stroke-linecap:round; stroke-linejoin:round; stroke-width:4; stroke-opacity:1; fill:none" points="664.934,814.419 669.92,810.102 "/>
<polyline clip-path="url(#clip090)" style="stroke:#000000; stroke-linecap:round; stroke-linejoin:round; stroke-width:4; stroke-opacity:1; fill:none" points="664.934,695.861 669.92,691.543 "/>
<polyline clip-path="url(#clip090)" style="stroke:#000000; stroke-linecap:round; stroke-linejoin:round; stroke-width:4; stroke-opacity:1; fill:none" points="664.934,577.302 669.92,572.984 "/>
<path clip-path="url(#clip090)" d="M629.005 1168.74 Q632.361 1169.46 634.236 1171.73 Q636.134 1174 636.134 1177.33 Q636.134 1182.44 632.616 1185.25 Q629.097 1188.05 622.616 1188.05 Q620.44 1188.05 618.125 1187.61 Q615.834 1187.19 613.38 1186.33 L613.38 1181.82 Q615.324 1182.95 617.639 1183.53 Q619.954 1184.11 622.477 1184.11 Q626.875 1184.11 629.167 1182.37 Q631.482 1180.64 631.482 1177.33 Q631.482 1174.27 629.329 1172.56 Q627.199 1170.82 623.38 1170.82 L619.352 1170.82 L619.352 1166.98 L623.565 1166.98 Q627.014 1166.98 628.843 1165.62 Q630.671 1164.23 630.671 1161.63 Q630.671 1158.97 628.773 1157.56 Q626.898 1156.12 623.38 1156.12 Q621.459 1156.12 619.26 1156.54 Q617.06 1156.96 614.422 1157.84 L614.422 1153.67 Q617.084 1152.93 619.398 1152.56 Q621.736 1152.19 623.797 1152.19 Q629.121 1152.19 632.222 1154.62 Q635.324 1157.03 635.324 1161.15 Q635.324 1164.02 633.681 1166.01 Q632.037 1167.98 629.005 1168.74 Z" fill="#000000" fill-rule="nonzero" fill-opacity="1" /><path clip-path="url(#clip090)" d="M626.551 1038.33 L614.746 1056.78 L626.551 1056.78 L626.551 1038.33 M625.324 1034.26 L631.204 1034.26 L631.204 1056.78 L636.134 1056.78 L636.134 1060.67 L631.204 1060.67 L631.204 1068.82 L626.551 1068.82 L626.551 1060.67 L610.949 1060.67 L610.949 1056.15 L625.324 1034.26 Z" fill="#000000" fill-rule="nonzero" fill-opacity="1" /><path clip-path="url(#clip090)" d="M615.232 915.698 L633.588 915.698 L633.588 919.633 L619.514 919.633 L619.514 928.105 Q620.533 927.758 621.551 927.596 Q622.57 927.411 623.588 927.411 Q629.375 927.411 632.755 930.582 Q636.134 933.753 636.134 939.17 Q636.134 944.748 632.662 947.85 Q629.19 950.929 622.871 950.929 Q620.695 950.929 618.426 950.559 Q616.181 950.188 613.773 949.447 L613.773 944.748 Q615.857 945.883 618.079 946.438 Q620.301 946.994 622.778 946.994 Q626.783 946.994 629.121 944.887 Q631.459 942.781 631.459 939.17 Q631.459 935.559 629.121 933.452 Q626.783 931.346 622.778 931.346 Q620.903 931.346 619.028 931.762 Q617.176 932.179 615.232 933.059 L615.232 915.698 Z" fill="#000000" fill-rule="nonzero" fill-opacity="1" /><path clip-path="url(#clip090)" d="M624.607 812.556 Q621.459 812.556 619.607 814.708 Q617.778 816.861 617.778 820.611 Q617.778 824.338 619.607 826.514 Q621.459 828.667 624.607 828.667 Q627.755 828.667 629.584 826.514 Q631.435 824.338 631.435 820.611 Q631.435 816.861 629.584 814.708 Q627.755 812.556 624.607 812.556 M633.889 797.903 L633.889 802.162 Q632.13 801.329 630.324 800.889 Q628.542 800.449 626.783 800.449 Q622.153 800.449 619.699 803.574 Q617.269 806.699 616.922 813.019 Q618.287 811.005 620.347 809.94 Q622.408 808.852 624.884 808.852 Q630.093 808.852 633.102 812.023 Q636.134 815.171 636.134 820.611 Q636.134 825.935 632.986 829.153 Q629.838 832.37 624.607 832.37 Q618.611 832.37 615.44 827.787 Q612.269 823.181 612.269 814.454 Q612.269 806.259 616.158 801.398 Q620.047 796.514 626.597 796.514 Q628.357 796.514 630.139 796.861 Q631.945 797.209 633.889 797.903 Z" fill="#000000" fill-rule="nonzero" fill-opacity="1" /><path clip-path="url(#clip090)" d="M613.912 678.581 L636.134 678.581 L636.134 680.571 L623.588 713.141 L618.704 713.141 L630.509 682.516 L613.912 682.516 L613.912 678.581 Z" fill="#000000" fill-rule="nonzero" fill-opacity="1" /><path clip-path="url(#clip090)" d="M624.283 578.17 Q620.949 578.17 619.028 579.952 Q617.13 581.735 617.13 584.86 Q617.13 587.985 619.028 589.767 Q620.949 591.55 624.283 591.55 Q627.616 591.55 629.537 589.767 Q631.459 587.962 631.459 584.86 Q631.459 581.735 629.537 579.952 Q627.639 578.17 624.283 578.17 M619.607 576.179 Q616.597 575.439 614.908 573.378 Q613.241 571.318 613.241 568.355 Q613.241 564.212 616.181 561.804 Q619.144 559.397 624.283 559.397 Q629.445 559.397 632.384 561.804 Q635.324 564.212 635.324 568.355 Q635.324 571.318 633.634 573.378 Q631.968 575.439 628.982 576.179 Q632.361 576.966 634.236 579.258 Q636.134 581.55 636.134 584.86 Q636.134 589.883 633.056 592.568 Q630 595.253 624.283 595.253 Q618.565 595.253 615.486 592.568 Q612.431 589.883 612.431 584.86 Q612.431 581.55 614.329 579.258 Q616.227 576.966 619.607 576.179 M617.894 568.795 Q617.894 571.48 619.56 572.985 Q621.25 574.49 624.283 574.49 Q627.292 574.49 628.982 572.985 Q630.695 571.48 630.695 568.795 Q630.695 566.11 628.982 564.605 Q627.292 563.101 624.283 563.101 Q621.25 563.101 619.56 564.605 Q617.894 566.11 617.894 568.795 Z" fill="#000000" fill-rule="nonzero" fill-opacity="1" /><polyline clip-path="url(#clip091)" style="stroke:#009af9; stroke-linecap:round; stroke-linejoin:round; stroke-width:4; stroke-opacity:1; fill:none" points="1038.42,856.552 1041.73,852.209 1046.12,846.623 1050.62,840.941 1045.31,847.295 1057.75,831.891 1061.93,826.741 1050.46,840.765 1057.3,832.236 1053.27,837.039 1060.11,828.622 1053.13,837.112 1045.8,845.929 1050.8,839.572 1042.04,849.811 1039.92,851.698 1022.26,872.406 1026.36,865.836 1023.53,868.177 1018.92,872.24 1011.48,879.842 1003.41,887.854 982.428,911.212 928.207,972.627 915.06,980.985 918.669,969.174 891.086,997.402 897.68,981.486 906.255,966.693 918.207,948.715 894.625,977.966 876.193,996.781 835.216,1043.1 831.098,1041.73 846.813,1018.72 804.995,1069.08 802.827,1064.4 796.055,1072.67 803.408,1061.99 808.881,1057.3 803.074,1060.94 750.863,1126.97 733.713,1143.02 699.762,1178.11 702.165,1169.21 697.596,1177.55 714.084,1155.48 757.792,1103.71 776.778,1089.05 798.226,1062.43 842.297,1010.45 880.528,974.394 869.639,989.392 899.937,960.421 917.998,946.831 880.168,988.196 841.652,1031.04 817.837,1050.57 830.323,1029.2 799.919,1071.98 840.694,1024.4 893.521,966.844 928.328,932.893 950.385,917.628 1028.12,839.728 1087.69,789.436 1173.84,724.152 1211.27,696.123 1225.68,696.753 1205.08,706.012 1288.27,644.247 1285.03,656.684 1287.56,673.477 1286.33,672.427 1289.26,666.343 1136.25,797.889 1144.52,777.52 1040.11,873.813 1011.99,887.831 942.363,947.34 944.277,932.485 951.978,922.372 937.01,938.814 904.713,975.806 923.778,952.894 893.034,985.91 866.599,1007.57 854.806,1021.25 898.099,967.766 869.785,998.461 885.745,976.051 931.75,932.084 1020.99,837.065 1019.51,856.756 1042.66,841.3 1099.12,794.555 983.39,909.109 1013.86,869.191 1030.95,849.959 1053.92,825.235 1054.48,846.543 992.717,904.835 965.015,918.716 990.305,872.878 983.402,894.968 995.792,882.649 1053.46,827.74 1090.7,796.418 1041.38,851.04 1007.65,894.318 1058.98,832.987 1174.32,724.055 1209.19,711.919 1065.57,830.106 1072.59,834.057 1241.2,692.962 1237.42,695.016 1260.06,670.55 1289.45,660.1 1310.6,657.904 1180.47,749.079 1170.45,753.043 1144.05,765.631 1196.45,721.893 1332.7,582.807 1298.37,642.462 1382.72,572.856 1339.66,620.684 1279.7,669.073 1329.53,626.442 1211.17,726.803 1194.08,729.672 1235.37,692.188 1277.11,676.203 1351.38,607.22 1429.97,565.4 1363.82,625.929 1316.94,656.436 1335.56,627.939 1325.1,637.545 1328.93,625.062 1335.59,623.088 1325.97,626.083 1238.5,690.296 1191.21,743.53 1127.24,794.451 1115.5,792.955 1087.03,821.678 1062,841.756 1103.92,793.561 1106.1,799.193 1016.81,880.784 1005.59,881.843 974.225,912.684 1059.96,817.099 1046.97,845.988 1043.1,842.483 1049.93,850.189 1000.66,886.985 997.416,880.858 1048.34,836.603 1070.22,812.451 1008.48,880.867 987.989,903.608 1052.51,851.815 1039.8,854.986 1081.82,815.285 1197.11,710.137 1156.05,748.459 1118.11,801.772 1053.09,853.644 1171.42,752.849 1150.32,770.164 1220.79,709.944 1133.06,780.626 1181.79,725.619 1172.26,732.435 1077.73,798.048 1077.56,815.534 1159.1,737.877 1204.99,717.149 1137.17,769.198 1114.92,784.357 1164.76,745.501 1154.74,759.727 1130.45,762.264 1011.67,862.749 977.054,888.516 1081.96,806.977 1153.01,743.877 1270.78,661.527 1298.41,657.096 1190.56,744.379 1187.03,749.581 1220.77,723.687 1291.79,661.568 1314.1,648.796 1275.92,665.617 1179.47,756.737 1209.61,724.44 1224.7,693.715 1170.74,735.026 1295.33,649.512 1337.99,619.542 1359.88,600.986 1454.25,553.63 1329.28,659.676 1292.5,695.991 1226.34,727.251 1181.58,759.393 1200.23,728.818 1116.77,809.259 1089.18,824.169 1081.07,819.286 1057.32,829.914 1116.64,775.261 1146.62,748.623 1095.62,794.724 1159.91,746.179 1087.99,826.911 1040.9,865.515 1049.33,846.305 1149.69,748.064 1102.05,812.276 1072.27,844.301 1059.82,836.688 1069.02,822.204 1126.7,779.076 1126.32,785.249 1148.81,767.195 1119.93,795.648 1149.69,748.149 1067.05,834.66 1186.7,721.825 1209.96,722.401 1225.12,700.35 1212.43,709.525 1245.67,683.909 1165.74,753.807 1169.19,760.781 1134.81,786.641 1083.44,820.923 1054.6,845.623 1103.12,810.409 1203.08,708.652 1341.23,600.902 1304.8,651.382 1309.63,646.808 1419.62,570.669 1547.37,458.859 1410.2,591.891 1387.54,608.803 1370.52,611.031 1334.65,632.379 1369,607.072 1338.64,631.9 1329.25,636.133 1300.15,656.899 1293.73,638.724 1339.15,618.569 1333.24,633.254 1284.33,664.909 1180.79,751.121 1075.28,841.813 1038.65,859.42 982.235,902.62 1006.19,864.689 1042.65,838.841 994.221,884.266 1004.62,875.17 1047.13,837.171 1078.04,808.552 1102.35,808.65 1088.54,820.439 1156.36,745.869 1091.84,801.037 1143.7,791.721 1189.53,736.426 1203.36,712.976 1207.6,720.609 1219.18,718.456 1309.11,632.991 1209.35,704.718 1063.2,834.319 1153.06,757.396 1245.34,681.826 1278.92,663.719 1241.69,697.871 1198.01,739.044 1244.08,706.451 1241.17,742.528 1246.15,720.735 1226.03,706.956 1349.98,614.98 1246.56,711.043 1419.83,576.391 1573.38,448.494 1463.87,546.289 1403.78,595.108 1405.67,586.051 1371.58,606.525 1346.04,629.441 1318.31,646.23 1292.59,674.158 1399.05,602.662 1347.03,620.854 1255.5,700.086 1215.8,724.67 1153.29,769.983 1131.78,776.705 1088.79,815.414 1049.48,849.844 1036.38,860.253 909.523,977.918 911.265,966.339 955.35,911.409 985.06,893.972 1028.02,846.71 1137.53,746.802 1140.24,765.58 1228.31,703.047 1243.91,697.943 1230.85,706.823 1219.76,716.91 1275.64,668.924 1227.4,715.681 1323.34,628.972 1290.88,653.94 1300.24,644.868 1310.12,655.185 1401.76,595.237 1373.58,633.686 1398.26,600.608 1429.47,577.913 1422.66,572.908 1305.29,670.672 1263.42,697.253 1218.15,731.064 1202.73,733.983 1211.98,719.371 1358.71,584.198 1343.81,604.612 1370.34,581.796 1227.6,676.476 1221.45,708.636 1195.52,720.374 1183.6,770.632 1235.19,691.772 1166.2,744.429 1147.65,743.289 1178.69,735.365 1272.71,646.398 1175.13,734.043 1214.57,698.747 1096.68,808.532 1139.02,796.729 1200.24,724.931 1255.44,673.855 1401.41,583.019 1511.12,503.2 1500.74,526.877 1325.97,666.615 1250.47,710.03 1214.43,724.1 1248.33,680.311 1161.09,763.212 1062.39,841.824 1139.43,759.09 1068.95,831.754 1011.62,875.332 963.765,921.379 990.788,883.863 1021.7,865.406 1005.22,883.966 1027.17,861.599 998.892,891.636 959.08,932.13 896.503,990.315 909.665,970.666 980.039,892.205 979.767,904.37 962.086,926.862 1005.85,877.281 1003.41,884.54 975.093,914.344 1062.5,823.359 1060.87,833.14 1064.05,819.125 914.81,948.623 938.14,941.765 854.379,1016.75 877.529,989.315 914.233,945.93 904.107,966.536 886.456,992.814 868.242,1005.24 893.645,973.667 907.003,959.314 950.668,914.561 1037.24,821.691 1072.1,799.319 1077.73,804.357 1032.71,849.736 1021.89,860.71 968.556,898.125 1021.1,851.53 1061.61,822.496 1043.72,836.738 1012.88,874.306 988.185,900.972 1078.26,816.281 1155.18,747.129 1254.9,680.584 1276.21,680.012 1302.99,654.374 1302.47,642.011 1257.38,688.322 1153.62,790.896 1091.23,832.445 1066.62,840.615 1065.02,832.145 1132.4,767.022 1077.85,830.161 1062.64,849.27 945.232,962.636 922.479,963.549 915.437,957.073 909.752,968.224 882.643,996.975 905.883,963.954 946.217,917.932 958.666,912.098 880.002,993.728 842.27,1023.5 813.647,1059.5 806.934,1061.03 789.554,1081.34 844.175,1006.92 858.896,1006.31 843.992,1020.57 863.829,992.087 886.061,978.014 944.776,915.129 943.691,921.37 963.064,914.319 989.551,884.893 1077.26,793.208 1116.94,776.036 1086.26,803.944 1181.52,724.201 1179.65,736.425 1210.5,707.233 1271.56,658.48 1370.31,576.192 1549.73,453.186 1526.59,510.853 1464.09,566.41 1535.18,497.117 1506.52,516.824 1496.7,536.753 1654.03,399.52 1392.23,618.126 1438.51,571.822 1384,620.131 1333.49,653.031 1249.32,720.652 1195.22,759.426 1219.58,719.636 1274.95,663.856 1177.72,746.607 1252.89,670.707 1306.12,633.381 1395.11,562.249 1454.7,534.267 1436.71,561.032 1446.59,556.201 1439.16,563.959 1405.66,595.662 1328.1,653.836 1346.36,623.594 1380.56,589.383 1320.08,638.86 1172.54,770.098 1247.7,678.949 1332.28,611.069 1392.4,594.821 1413.4,570.707 1398.72,587.175 1362.12,624.305 1386.75,599.156 1411.31,573.115 1494.76,517.843 1464.99,547.298 1610.13,451.649 1467.42,566.305 1473.94,552.095 1492.14,531.801 1476.4,536.048 1534.47,504.126 1463.99,557.766 1556.41,470.432 1443.37,582.099 1350.1,649.421 1387.03,598.699 1381.27,598.128 1395.55,585.137 1379.33,610.522 1433.47,547.623 1343.24,640.891 1288.02,680.437 1270.63,681.554 1197.94,741.884 1168.13,760.667 1151.28,775.986 1137.79,774.001 1081.37,826.423 1064.78,834.535 1039.25,849.634 1075.02,824.222 1184.12,734.128 1325.66,624.985 1316.06,656.091 1210.22,730.432 1251.31,681.435 1288.91,646.682 1255.4,657.081 1413.99,550.077 1412.07,570.813 1345.85,639.954 1307.1,661.464 1213.97,745.176 1205.95,730.388 1238.74,689.255 1166.93,759.273 1151.57,752.953 1090.18,811.728 990.5,905.918 1005.28,877.957 1025.01,856.268 1037.4,844.866 1147.02,743.192 1149.38,749.17 1177.17,732.041 1140.03,777.069 1192.22,725.113 1116.08,807.14 1145.92,770.549 1147.8,762.187 1163.48,763.479 1047.16,858.783 1023.96,867.635 1035.7,853.657 951.934,928.261 1051.67,843.696 1090.14,788.417 1052.57,834.652 1135.07,755.144 1115.83,777.965 1117.5,791.431 1114.67,777.446 1187.23,737.918 1242.83,692.818 1295.19,646.505 1292.81,631.15 1299.46,639.957 1293.2,648.179 1279.61,658.997 1439.61,532.905 1678.52,364.272 1678.54,410.037 1596.63,487.598 1421.14,614.711 1370.29,639.82 1275.67,711.842 1317.54,647.922 1249.5,706.207 1277,672.268 1275.2,666.435 1352.04,612.845 1400.31,576.065 1531.52,476.853 1577.5,457.378 1633.04,418.752 1587.15,467.165 1594.35,473.305 1564.45,499.64 1478.01,562.237 1535.36,499.958 1659.22,414.42 1634.33,457.493 1582.59,481.782 1590.04,473.705 1488.78,550.075 1412.09,607.74 1293.67,698.545 1291.23,679.48 1243.12,716.867 1114.87,826.632 1114.59,807.911 1111.92,801.493 1025.77,882.68 1049.05,843.077 1035.74,855.074 1018.7,874.272 1112.17,766.253 1129.45,761.902 1100.46,797.158 1094.37,799.886 1111.71,787.332 1088.67,810.551 1062.06,832.501 1095.3,792.099 1156.73,734.886 1197.16,701.692 1218.82,698.038 1158.63,761.789 1222.49,699.535 1257.49,676.131 1236.4,697.368 1125.69,776.554 1134.52,769.536 1056.07,841.428 1103.81,786.64 1114.18,784.643 1081.24,823.939 1036.6,865.347 1005.07,888.372 964.303,926.732 1000.06,872.17 1053.53,824.579 1027.83,858.165 1038.16,840.722 1037.72,853.937 1069.83,820.776 1080.22,815.745 1011.76,868.832 1044.62,841.769 1017.04,867.546 1026.12,875.449 1041.29,844.821 1012.4,877.132 1011.33,875.787 951.351,931.723 933.646,934.252 971.379,905.825 1005.93,872.844 1102.29,795.245 1073.43,825.248 1092.87,801.099 1019.82,869.165 1068.24,815.986 1192.03,720.56 1192.18,730.242 1132.03,784.554 1256.7,665.085 1208.91,718.985 1170.52,734.499 1178.36,748.504 1159.59,772.712 1177.67,759.987 1123.93,797.402 1040.86,862.552 1075.31,817.788 1120.59,770.167 1181.43,723.888 1221.18,694.469 1319.23,619.024 1363.3,596.816 1368,601.164 1451.29,543.633 1395.01,610.64 1308.04,679.014 1326.63,655.362 1325.29,641.111 1315.49,648.754 1340.47,619.281 1351.38,613.797 1566.11,446.233 1579.8,465.172 1646.6,422.162 1617.38,460.808 1512.37,539.033 1492,542.299 1345.59,658.767 1337.79,648.629 1349.47,627.34 1323.11,639.522 1270.91,685.649 1277.87,669.378 1243.7,693.913 1127.96,792.355 1049.83,860.414 946.165,950.678 927.93,953.405 931.823,939.989 965.165,904.242 929.942,943.472 936.028,939.768 971.141,898.671 948.531,936.003 834.012,1044.55 843.676,1017.89 893.416,961.628 935.567,913.057 966.511,901.17 965.871,912.348 972.779,897.946 958.055,915.489 846.742,1039.88 829.896,1049.73 804.294,1069.45 807.972,1062.49 779.37,1087.37 803.517,1057.53 764.481,1102.46 721.78,1154.31 752.01,1110.08 768.365,1092.29 775.011,1086.27 767.573,1097.28 779.384,1078.67 777.176,1089.91 816.311,1039.31 830.538,1026.62 829.458,1032.5 843.879,1014.03 799.424,1071.21 797.619,1068.54 814.197,1046.62 841.146,1015.12 808.981,1051.86 806.092,1055.47 806.485,1057.47 818.753,1042.21 852.571,1004.74 830.478,1035.92 829.358,1040.24 785.463,1086.91 748.96,1128.26 795.86,1064.82 835.699,1021.18 923.609,930.253 960.858,899.97 995.488,866.507 952.481,922.84 971.328,906.06 986.155,893.294 1087.52,787.647 1152.77,743.357 1166.7,748.827 1242.96,690.049 1212.19,720.462 1331.05,631.938 1337.94,626.882 1320.59,646.379 1331.64,631.293 1286.47,671.862 1185.94,749.995 1132.56,787.305 1130.43,780.521 1106.24,788.168 1180.97,733.374 1245.26,680.407 1204.68,719.841 1207.32,728.967 1090.44,822.421 1146.35,757.835 1124.78,776.583 1141.3,776.713 1135.81,780.883 1188.35,721.871 1189.22,724.682 1130.53,790.005 1120.05,791.803 1079.63,825.725 1077.58,820.223 1100.5,784.745 1108.16,786.334 1155.83,744.699 1043.98,845.309 987.932,895.98 917.748,968.455 871.722,993.885 856.426,1007.65 919.723,942.815 923.578,939.709 991.674,869.043 1026.45,837.934 1005.66,870.188 1016.92,853.506 1098.48,780.479 1138.34,747.361 1179.74,719.017 1216.23,690.184 1275.62,637.299 1308.55,631.346 1296.08,660.325 1369.8,597.32 1279.47,678.75 1312.12,643.915 1331.98,650.656 1231.55,715.522 1180.34,758.389 1100.6,812.985 1091.68,809.144 1056.77,843.554 1108.19,779.619 1095.16,805.477 1025.15,861.858 1114.09,766.749 1169.59,742.999 1139.89,768.796 1178.33,726.353 1123.86,777.531 1204.55,700.566 1201.17,721.739 1164.92,754.076 1034.52,866.743 1005.75,887.728 999.105,891.019 985.838,903.429 1026.5,845.796 999.484,876.719 1046.26,836.61 993.386,884.988 984.62,896.786 1006.73,870.886 921.944,953.954 980.343,888.1 1033.12,854.954 1000.82,887.534 1021.2,865.914 1179.33,715.683 1068.8,836.465 1076.9,817.763 1061.47,830.129 1192.76,701.544 1291.7,644.04 1303.51,653.764 1312.39,639.589 1314.36,645.848 1374.62,604.264 1350.73,645.246 1358.08,622.094 1249.7,712.204 1122.91,813.609 1154.27,760.444 1136.36,784.066 1088.01,819.491 1045.77,852.487 1031.71,859.747 1008.89,876.681 1057.85,826.284 1002.99,885.173 991.903,878.926 1016.62,867.647 1038.61,849.22 1066.22,826.289 1103.87,798.174 1119.02,776.33 1083.77,802.621 1138.45,751.953 1176.04,734.514 1220.42,706.401 1168.76,757.987 1135.63,763.265 1150.38,754.921 1075.7,834.458 980.956,921.045 973.176,914.718 939.68,938.332 919.338,956.791 906.112,968.536 921.576,948.741 962.43,909.218 985.923,888.42 1000.58,882.854 1002.98,884.627 1001.28,884.236 941.452,943.346 890.406,984.078 913.301,960.948 963.76,909.904 989.382,887.979 980.21,903.965 957.722,928.228 985.452,904.611 992.016,891.598 1092.36,814.269 1201.66,714.191 1196.21,726.831 1258.33,692.878 1175.26,751.856 1046.6,849.572 991.459,892.495 1073.54,818.463 1114.11,790.701 1176.02,735.809 1190.58,709.912 1239.29,678.573 1374.95,580.547 1395.66,587.806 1476.27,539.057 1429.57,584.101 1363.85,630.818 1267.22,697.337 1220.23,726.691 1192.96,743.034 1187.94,726.156 1280.19,657.603 1380.3,589.107 1418.01,583.446 1368.23,616.168 1323.38,652.308 1212.42,731.366 1230.04,700.862 1311.57,615.879 1308.98,640.042 1255.21,686.38 1253.3,689.516 1453.41,517.427 1446.99,541.51 1472.72,531.747 1415.23,585.876 1468.01,544.974 1506.04,518.735 1473.08,547.04 1413.54,596.783 1342.23,640.191 1197.13,761.677 1208.9,726.578 1222.76,713.466 1151.05,767.708 1185.81,730.933 1239.18,681.457 1250.05,674.521 1270.99,652.379 1294.3,640.676 1237.88,706.895 1258.37,680.135 1226.68,709.43 1368.8,578.082 1368.16,592.86 1455.47,547.925 1453.85,553.51 1584.15,452.068 1652.16,401.315 1639.59,439.36 1648.35,428.04 1699.31,404.427 1661.13,437.907 1617.53,471.349 1583.49,487.395 1534.89,518.632 1522.56,522.462 1453.61,580.57 1407.21,605.274 1415.46,581.076 1369.33,616.892 1358.08,625.648 1313.89,659.374 1292.81,666.524 1203.75,740.265 1241.37,694.501 1306.59,633.819 1344.92,605.877 1269.4,676.567 1407.79,548.325 1488.16,516.064 1418.24,584.145 1286.2,692.597 1216.62,743.613 1175.95,765.798 1210.51,716.643 1209.53,728.791 1225.06,703.643 1221.34,711.604 1231.2,701.324 1337.8,615.104 1319.16,638.825 1301.02,651.402 1356.36,607.501 1411.07,577.449 1433.15,569.261 1308.86,685.93 1246.23,725.546 1172.88,771.4 1059.43,871.649 1067.49,841.508 1092.49,805.903 1099.85,798.219 1113.12,777.906 1149.6,760.818 1166.16,747.657 1090.97,826.888 1027.11,885.549 1046.72,847.809 1033.53,857.394 1048.31,845.66 1074.54,811.985 1008.82,885.093 932.488,954.847 967.482,905.341 1000.97,868.941 968.958,908.33 953.721,922.986 984.664,882.576 1041.46,830.847 1059.18,835.257 1054.15,832.744 1063.15,823.155 1044.83,840.89 1217.04,688.616 1321.57,633.529 1335.57,623.738 1399.2,570.669 1428.91,556.526 1491.49,516.506 1522.02,523.95 1529.82,508.517 1571.95,489.044 1516.22,534.349 1485.17,537.856 1397.8,598.093 1340.47,644.022 1369.5,593.481 1318.25,644.875 1373.37,581.661 1367.97,599.293 1335.63,623.489 1317.22,634.495 1512.31,501.768 1407.22,592.298 1363.07,627.087 1230.76,726.457 1173.23,770.669 1195.82,739.5 1174.55,739.525 1208.59,717.223 1156.48,762.574 1173.28,740.955 1048.82,855.712 1068.47,828.064 1035.85,858.192 981.659,907.236 969.11,906.96 988.416,889.979 928.926,949.914 933.786,950.256 878.723,1009.55 867.016,1012.14 844.882,1027.29 862.447,1005.98 924.569,926.794 911.009,951.864 914.53,954.932 896.517,963.435 935.022,921.678 969.091,899.584 1004.13,866.815 1107.24,780.828 1132.24,768.448 1083,808.461 1006.01,881.879 1010.96,867.072 1031.03,853.333 1201.06,699.529 1239.09,686.007 1271.14,663.937 1314.21,643.735 1329.81,648.309 1370.41,595.029 1350.47,635.38 1421.82,576.843 1350.56,643.274 1324.12,646.746 1188.53,748.372 1181.85,752.168 1226.7,695.589 1306.11,633.871 1343,621.464 1379.12,590.945 1513.3,489.99 1471.57,528.127 1444.1,560.876 1353.65,650.067 1450.87,564.168 1495.36,512.882 1482.25,540.994 1544.76,484.138 1392.56,599.869 1400.8,587.081 1517.64,503.481 1389.37,604.228 1367.95,624.531 1401.62,580.658 1394.6,605.853 1264.95,699.768 1237.88,705.358 1273.39,661.974 1249.94,683.301 1305.77,629.22 1208.76,723.304 1253.9,673.904 1255.48,677.85 1222.43,708.967 1157.55,756.102 1214.96,695.695 1239.01,699.608 1213.86,712.93 1196.79,727.946 1163.62,766.532 1038.73,875.708 1031.73,871.342 1064.78,825.45 1019.68,877.659 1025.74,863.464 1010.04,877.893 1027.76,850.356 1030.69,856.954 1017.02,852.688 1018.84,861.104 991.217,891.006 1028.18,855.194 1006.62,880.674 969.109,918.549 945.896,938.712 856.827,1027.07 853.756,1013.75 807.429,1069.77 852.114,1005.01 883.326,971.906 858.344,1007.16 885.023,979.143 888.45,973.716 948.875,901.45 976.427,896.972 939.445,930.558 930.304,948.153 869.998,1008.1 844.083,1035.56 830.692,1044.72 872.779,988.096 857.671,1002.84 872.218,990.094 954.602,899.202 963.639,897.375 986.744,873.436 1046.97,819.272 1166.12,725.179 1159.64,746.259 1115,788.928 1052.33,851.389 1040.92,861.272 1080.61,811.838 1035.52,854.62 1087.18,808.961 1063.4,838.422 1139.3,764.654 1097.75,778.5 1054.79,820.31 1048.95,839.651 1236.77,668.247 1299.22,626.9 1265.59,699.131 1262.73,685.328 1264.55,686.614 1186.31,764.708 1172.39,769.333 1157.38,764.855 1121.78,793.715 1118.46,775.685 1226.5,691.03 1301.57,656.542 1292,658.976 1367.92,597.934 1340.96,608.788 1397.75,574.544 1374.98,614.926 1361.16,615.456 1376.8,603.285 1412.54,561.369 1383.84,586.572 1308.33,648.954 1354.93,607.712 1430.11,562.916 1432.16,573.82 1375.46,606.581 1215.78,732.738 1243.45,690.383 1304.45,627.756 1385.77,571.982 1313.86,645.244 1345.89,608.807 1421.84,548.411 1394.16,582.403 1404.58,582.006 1386.02,601.025 1428.28,588.823 1535.68,487.806 1600.05,470.651 1492.27,555.248 1409.95,610.077 1307.15,680.5 1361.41,614.222 1413.68,564.944 1487.92,522.035 1487.17,535.894 1482.64,528.333 1513.15,509.63 1515.91,521.8 1493.67,529.115 1546.72,479.226 1507.82,531.719 1638.1,434.244 1578.8,474.386 1519.18,518.161 1535.8,500.671 1345.5,664.647 1294.35,692.945 1250.8,718.563 1242.59,711.607 1208.16,730.486 1155.93,772.228 1130.36,785.518 1082.71,823.909 1076.29,821.039 1130.56,764.599 1144.35,771.376 1160.47,753.583 1146.53,762.924 1173.95,746.229 1235.24,691.449 1265.12,654.64 1360.25,594.495 1457.55,514.575 1578.77,427.327 1552.07,479.046 1609.53,433.814 1752.26,353.663 1745.89,374.888 1606.72,485.452 1520.93,545.148 1453.8,585.259 1501.26,521.739 1441.08,575.656 1348.83,653.546 1357.88,624.084 1374.14,605.668 1336.01,645.021 1319.71,644.46 1345.99,624.347 1430.34,548.097 1389.69,589.296 1275.92,696.867 1305.02,651.257 1314.83,632.507 1327,620.029 1373.96,583.74 1351.71,607.481 1319.41,643.657 1248.08,698.006 1181.3,759.654 1218.02,729.586 1278.2,672.097 1191.54,759.497 1181.98,748.944 1221.17,703.467 1209.25,709.164 1201.97,722.555 1182.11,737.654 1106.18,784.42 1157.41,749.718 1196.75,712.317 1389.53,552.827 1456.12,521.447 1473.72,531.212 1495.59,525.362 1439.02,572.032 1477.87,524.199 1440.66,577.496 1419.5,571.788 1392.6,590.34 1294.46,673.264 1357.47,615.644 1372.44,607.171 1384.15,602.09 1370.37,626.44 1441.22,564.305 1393.22,596.505 1368.2,606.892 1378.25,598.349 1341.61,653.558 1363.1,633.759 1310.32,654.418 1352.59,615.246 1439.33,552.557 1432.06,550.803 1357.23,610.35 1266.39,677.411 1309.42,658.972 1276.94,675.181 1307.68,646.085 1271.48,676.681 1341.79,638.369 1231.37,723.259 1183.75,743.651 1231.32,702.909 1196.66,726.9 1162.02,768.251 1096.73,823.879 1065.44,846.842 986.691,916.886 991.486,900.55 1000.74,883.497 991.568,888.722 1023.7,849.938 1082.19,792.96 1084.39,802.142 1092.21,796.443 1128.84,761.589 1167.03,734.75 1179.79,728.838 1153.24,768.051 1164.42,753.305 1153.87,755.664 1223.63,699.522 1209.92,720.023 1249.76,692.781 1164.55,763.981 1087.02,830.334 1131.63,794.847 1098.02,812.693 1082.56,826.36 1070.31,821.851 1051.15,835.199 1061.73,833.394 1008.67,884.76 935.062,948.025 1055.75,816.488 1061.32,827.746 1068.32,822.761 1071.88,821.168 952.587,925.074 941.574,922.751 955.612,908.145 1102.32,759.439 1090.42,802.242 1083.3,812.484 1054.45,833.398 1141.29,752.933 1134.07,760.364 1130.97,770.298 1248,665.564 1324.74,607.87 1357.41,606.528 1330.74,633.567 1316.65,657.294 1367.91,604.409 1333.14,655.776 1248.47,713.289 1216.4,727.617 1191.07,729.077 1162.45,755.385 1114.9,799.186 1058.25,836.29 1037.24,858.2 1034.53,857.744 1116.47,778.299 1204.78,702.218 1183.64,735.459 1191.77,735.148 1150.27,797.747 1100.41,833.964 1020.36,886.452 1041.87,850.692 1060.07,832.73 1060.22,827.332 1121.96,764.242 1116.5,780.399 1186.64,731.16 1179.65,734.92 1216.28,713.084 1206.25,719.386 1177.91,749.786 1198.83,726.314 1202.4,721.085 1222.12,721.023 1322.11,620.554 1354.5,606.316 1252.21,703.87 1211.35,739.06 1207.28,728.551 1193.04,738.277 1191.92,734.907 1168.45,755.199 1122.19,785.401 1122.71,784.426 1168.12,744.117 1155.54,752.835 1118.5,792.205 990.993,897.153 945.343,943.888 990.655,880.277 1004.1,868.667 1089.52,783.437 1118.02,769.828 1183.84,711.833 1237.86,676.116 1235.92,692.241 1317.45,623.718 1277.07,671.319 1392.06,565.928 1306.89,644.087 1295.57,653.462 1335.08,648.802 1275.58,678.189 1369.81,588.026 1297.78,671.016 1156.16,780.928 1103.37,823.38 1060.27,854.591 1059.91,842.191 1102.49,795.417 1091.15,797.214 1141.99,756.608 1190.13,717.652 1214.13,704.38 1227.3,717.418 1312.78,640.85 1432.36,547.063 1455.08,530.81 1459.7,547.73 1476.53,527.552 1464.46,548.727 1497.06,522.948 1476.88,539.884 1462.79,538.576 1385.18,606.107 1418.13,575.071 1359.42,610.343 1281.9,680.205 1249.56,703.126 1259.86,681.539 1244.38,695.283 1409.02,561.346 1313.91,648.257 1438.54,567.96 1365.2,623.14 1523.44,486.962 1449.2,552.991 1498.13,523.68 1411.19,585.747 1352.78,638.988 1301.71,671.645 1308.35,663.327 1313.21,641.525 1298.02,655.729 1283.17,663.461 1331.32,610.402 1266.43,691.685 1182.55,742.58 1111.17,805.441 1127.76,783.522 1075.42,820.045 1102.22,789.965 1232.01,673.159 1258.37,661.897 1220.23,706.655 1154.27,766.711 1154.05,764.049 1107.33,807.314 1118.97,782.761 1183.16,721.536 1112.55,802.381 1039.99,857.676 1013.73,886.807 1021.54,864.865 1081.67,799.204 1027.12,861.43 1033.01,839.894 933.361,937.982 917.436,956.856 961.437,900.366 891.258,970.694 924.115,942.04 926.177,944.362 860.84,1019.51 849.643,1037.45 854.631,1016.28 857.21,1017.28 917.627,948.977 860.39,1009.4 848.872,1022.81 896.378,967.48 943.475,922.806 952.47,911.781 1018.5,833.386 1069.67,807.818 1020.54,870.332 955.116,936.035 1008.2,868.402 1063.85,817.671 1048.64,834.106 1031.54,854.599 1048.78,829.564 1078.02,803.141 1139.41,763.948 1135.13,775.483 1162.29,755.744 1124.85,787.237 1138.57,767.114 1165.02,758.949 1129.51,771.509 1193.98,726.791 1063.19,840.445 1123.49,791.649 1148.95,768.638 1138.88,782.519 1217.06,729.833 1160.13,755.164 1242.88,675.962 1271.33,670.133 1196.15,733.742 1129.19,781.333 1130.99,766.654 1115.6,797.488 1052.24,839.006 1075.89,812.435 1029.96,857.244 1002.25,862.983 982.65,898.656 999.587,880.613 949.012,933.625 1033.81,836.743 998.424,882.177 1018.19,879.813 997.066,894.658 1038.19,846.921 1010.93,872.498 990.195,903.831 1107.03,777.604 1144.97,759.685 1175.59,739.475 1073.12,845.349 1085.29,841.997 1051.86,869.056 987.974,905.279 994.275,891.519 953.533,927.642 900.277,981.036 906.819,967.734 892.122,978.565 859.075,1016.74 914.059,948.526 955.178,908.791 1020.44,846.341 1026.17,852.487 936.683,957.501 993.775,897.483 1023.55,875.792 1048.49,848.266 1114.57,804.045 1161.34,743.738 1220.24,699.266 1209.26,712.269 1205.2,732.081 1213.71,720.262 1152.1,766.605 1192.64,728.86 1170.29,756.835 1189.55,734.702 1200.01,713.635 1148.58,756.843 1177.68,731.602 1134.3,781.117 1072.92,838.838 1050.63,839.158 1003.77,878.708 1024.39,865.897 991.228,894.786 958.284,921.833 1097.64,778.947 1143.78,766.537 1198.49,721.904 1248.54,680.279 1366.97,617.229 1326,650.17 1387.92,596.167 1313.23,653.722 1306.41,655.257 1251.81,703.798 1359.35,592.201 1412.74,568.87 1462.87,546.439 1433.37,573.62 1306.31,670.032 1357.98,623.647 1336.9,632.61 1377.7,595.87 1334,643.661 1312.53,639.101 1281.38,671.984 1320.11,625.395 1359.65,611.162 1370.84,596.015 1373.07,581.505 1558.58,454.124 1524.64,497.284 1426.33,594.113 1343.23,648.941 1315.25,659.476 1269.25,693.443 1314.94,630.453 1330.27,638.488 1362.47,605.589 1281.93,675.554 1195.86,754.056 1309.88,641.711 1348.63,607.675 1267.42,693.609 1244.62,696.535 1201.64,725.021 1105.43,796.834 1112.85,798.148 1133.12,765.05 1271.17,649.629 1311.78,645.1 1289.58,671.062 1279.78,683.791 1141.19,791.959 1156.05,763.069 1162.51,746.281 1162.04,751.986 1212.86,698.131 1195.75,720.705 1160.2,753.879 1129.51,770.401 1188.85,713.914 1166.12,757.872 1241.3,684.08 1287.62,644.091 1406.22,556.029 1350.82,619.981 1333.06,634.619 1280.37,673.703 1250.75,688.592 1218.84,719.739 1293.07,656.755 1142.75,779.162 1098.71,808.589 1061.45,837.227 965.136,930.493 1045.58,833.065 1149.26,743.471 1167.18,742.528 1056.8,847.631 1070.77,815.97 1115.25,774.803 1139.71,764.906 1054.71,840.926 1080.99,804.118 1089.08,804.823 1091.78,809.509 1075.79,831.967 994.301,891.214 1034.57,853.847 1107.52,790.546 1068.7,832.454 1137.13,770.412 1171.27,746.161 1245.03,699.33 1370.83,601.802 1339.55,640.298 1179.28,757.418 1115.61,810.822 1111.61,796.085 1158.08,742.426 1094.45,808.496 1043.64,857.823 1006.2,893.258 1032.45,854.937 1000.64,874.793 1066.51,814.752 1078.23,810.119 1128.54,761.54 1033.59,860.851 1138.5,776.189 1077.57,822.477 1133.44,764.048 1108.7,794.377 1047.59,835.93 963.433,920.797 973.882,891.252 994.031,875.827 1006.27,876.567 995.478,883.241 1021.61,853.771 1023.84,845.31 922.512,941.056 860.83,1001.98 925.391,940.962 887.468,976.776 953.547,922.111 1025.1,845.207 977.653,891.628 1012.73,867.699 1053.1,833.55 1043.28,843.208 1010.09,860.099 984.164,879.5 986.441,890.012 946.515,932.142 870.003,1001.59 813.383,1062.52 779.769,1099.53 818.909,1041.14 721.037,1151.35 742.846,1120.4 703.543,1163.51 739.377,1118.34 759.034,1099.8 724.08,1147.01 730.914,1137.87 744.664,1120.03 775.36,1086.82 817.777,1038.5 816.377,1049.41 868.517,986.91 857.981,1004.33 891.227,967.676 902.043,960.277 862.827,1014.3 842.318,1028.72 891.411,966.303 991.365,866.945 1083.01,792.972 1056.28,833.259 1067.77,816.848 1094.36,787.699 1199.83,698.228 1267.19,649.182 1214.7,702.92 1293.15,650.987 1269.22,688.739 1409.75,559.819 1424.4,571.513 1413.23,583.826 1547.83,475.541 1493.69,538.021 1474.12,542.293 1248.02,733.756 1154.29,798.804 1143.1,786.042 1151.95,764.342 1167.75,742.428 1170.58,746.087 1180.91,732.126 1124.45,793.049 1117.68,803.085 1203.47,730.007 1181.54,745.174 1261.07,668.68 1172.04,734.829 1226.68,707.519 1213.09,720.113 1127.43,789.34 1104.71,805.922 1041.61,866.051 1037.52,852.319 1078.84,821.536 1036.87,864.912 1087.82,801.336 1032.31,840.024 1090.86,793.9 1165.75,732.882 1064.41,820.866 1090.03,808.893 1188.15,713.005 1260.22,667.174 1211.2,728.622 1249.72,697.194 1236.08,712.587 1319.39,639.924 1326.94,631.874 1300.08,674.789 1399.68,588.432 1464.18,550.252 1360.59,607.889 1313.33,654.398 1361.62,610.575 1261.42,705.389 1308.06,630.812 1334.18,614.049 1382.3,575.975 1386.41,583.71 1544.25,460.717 1438.24,555.454 1401.06,587.856 1301.46,660.578 1292.89,667.287 1149.46,782.989 1148.34,771.35 1044.36,861.479 1006.56,887.262 1036.23,846.549 1047.15,838.26 1024.99,864.893 1143.17,755.75 1119.38,789.51 1161.05,741.446 1091.89,813.369 1091.75,817.28 1104.62,794.603 1067.85,828.013 1100.62,806.442 1086.48,811.813 1159.54,745.812 1104.77,792.869 1114.36,778.439 1071.01,840.262 1073.61,813.678 1119.89,776.577 996.94,878.126 998.044,874.541 1065.96,826.983 1053.18,854.59 1037.17,864.548 1088.36,812.96 1032.28,859.789 1132.08,781.467 1139.85,780.372 1214.09,717.704 1237.01,711.009 1109.88,800.196 1025.88,882.064 949.414,948.017 928.669,952.717 904.087,970.121 896.341,967.638 949.949,922.648 1010.45,858.249 950.197,928.181 950.74,925.767 941.87,939.928 933.374,946.435 986.926,885.795 966.282,909.594 1043.97,835.971 1136.3,751.27 1148.34,754.95 1244.67,693.364 1382.52,577.94 1388.74,592.394 1321.67,658.435 1193.67,762.433 1092.42,840.91 1024.21,884.709 970.611,922.966 951.084,928.759 907.447,966.292 888.778,981.881 822.568,1054.15 802.012,1069.55 794.645,1072.1 794.496,1070.55 792.741,1069.53 819.828,1045.13 799.886,1064.43 784.851,1091.12 784.564,1084.48 867.454,979.627 922.858,934.474 940.69,923.804 983.502,886.877 998.031,879.622 1082.51,804.221 1088.5,808.673 1154.29,741.355 1079.63,815.849 1067.88,835.716 1025.57,870.54 968.425,915.582 971.437,921.108 981.775,907.284 898.159,988.432 890.958,989.148 918.455,951.667 968.867,899.723 1109.23,766.212 1125.43,767.014 1122.74,786.013 1192.16,731.403 1189.48,725.622 1221.75,690.43 1271.94,658.042 1335.25,622.39 1322.95,631.729 1219.93,712.762 1231.44,698.152 1219.32,710.704 1320.05,618.565 1485.67,484.262 1470.98,524.879 1429.05,574.57 1266.12,703.655 1235.26,711.384 1157.59,772.735 1114.66,809.057 1061.52,848.377 1117.43,774.331 1135.84,764.657 1145.73,751.652 1121.18,768.076 1160.54,763.574 1160.57,754.561 1104.98,809.516 1077.48,820.956 1043.53,853.107 1056.94,842.995 1002.32,889.645 984.286,895.653 1034.19,839.262 1029.86,867.253 1047.39,849.261 1088.19,805.865 1003.42,892.972 1015.68,874.122 1077.94,811.768 1107.3,802.94 1081.22,819.874 1064.69,828.66 1036.24,868.096 1032.86,862.009 952.315,919.34 935.155,937.747 1017.79,859.178 1020.57,860.974 1004.85,889.961 1036.28,842.824 992.332,884.272 992.886,894.588 1028.11,868.924 1040.52,866.651 1007.52,895.89 1038.97,858.3 992.959,888.374 1034.51,859.013 974.275,912.272 1098.16,802.224 1092.82,809.802 1217.71,682.496 1177.68,728.727 1147.69,766.444 1170.62,726.843 1239.86,694.431 1345.53,596.565 1443.91,530.968 1483.74,514.322 1593.61,433.742 1675.44,389.531 1727.1,379.597 1680.07,425.649 1613.93,469.481 1577.8,491.551 1569.07,491.681 1512.46,536.107 1437.6,588.288 1330.65,664.434 1319.29,657.427 1285.27,677.332 1304.65,654.107 1261.33,695.463 1263.84,687.551 1218.34,716.576 1215.8,718.48 1085.46,841.206 1067.47,844.667 1098.65,795.741 1074.09,821.984 1060.71,830.284 1031.8,862.236 1009.96,877.723 1020.69,860.67 1013.78,861.617 978.593,886.493 1009.03,866.91 1144.88,748.032 1244.01,671.474 1278.43,656.391 1250.87,694.738 1280.53,674.421 1330.38,645.14 1328.98,638.395 1398.8,584.945 1398.95,590.138 1380.08,612.126 1443.13,562.027 1517.68,498.33 1572.6,450.126 1655.71,434.67 1678.43,437.63 1632.64,479.615 1740.2,379.643 1722.49,386.928 1608.13,489.063 1559.05,510.7 1414.76,618.56 1319.39,683.851 1276.22,706.367 1235.26,725.925 1203.1,743.642 1209.61,725.883 1206.58,723.151 1198.64,719.812 1143.27,777.831 1163.61,745.37 1112.54,791.512 1100.04,808.095 1085.65,819.277 1115.98,775.813 1119.33,782.351 1186.76,723.707 1126.09,782.844 1083.15,822.364 1093.44,801.617 1091.34,792.256 980.265,893.319 1110.41,785.932 1080.47,819.863 1060.6,827.152 1063.52,837.173 981.429,914.836 956.184,930.698 967.227,914.67 1021.67,858.627 1054.83,832.891 962.806,918.894 969.932,899.256 989.18,874.381 1077.36,805.798 1123.81,767.633 1104.34,793.14 1086.84,816.013 1029.18,858.845 1012.13,874.148 982.366,896.186 982.023,888.137 1047.44,837.854 994.203,889.035 1014.21,866.295 1096.52,793.528 1012.95,869.891 1133.58,756.287 1206.2,693.26 1246.93,688.967 1270.13,665.316 1262.91,669.786 1315.77,627.266 1438.51,545.396 1521.72,490.913 1454.61,575.873 1362.47,645.451 1253.17,719.772 1229.31,722.94 1169.89,767.462 1097.41,828.642 1142.26,764.326 1071.89,836.551 1030.74,853.226 1047.11,832.781 1083.42,795.876 1172.13,712.152 1189.87,716.446 1241.55,672.007 1200.67,724.614 1241.74,680.889 1335.28,612.493 1251.65,698.04 1182.48,757.756 1174.34,754.862 1196.5,726.017 1227.33,700.921 1189.76,737.027 1149.11,769.603 1102.41,811.397 1146.53,751.085 1109.32,785.622 1238.73,664.951 1254.97,668.362 1283.29,654.085 1295.09,652.227 1282.75,671.692 1350.92,601.139 1406.75,579.376 1394.59,591.685 1391.25,588.464 1385.67,597.713 1305.19,657.742 1323.25,633.023 1242.02,703.284 1196.04,733.861 1078.72,841.516 1032.81,868.55 1021.55,871.427 997.438,886.519 1031.31,857.312 1071.01,815.772 1063.16,828.182 1075.19,818.243 1063.13,826.994 1191.92,728.879 1168.35,748.83 1194.47,713.584 1227.93,676.151 1184.52,723.62 1099.95,797.064 1079.31,810.264 1078.36,805.912 1010.9,851.823 976.27,885.85 1106.78,774.571 1108.08,783.728 1118.55,777.62 1194.44,694.335 1154.73,751.932 1219.85,698.762 1276.65,662.254 1307.92,653.994 1311.39,633.768 1300.36,643.79 1282.03,649.91 1324.11,605.22 1075.14,760.63 1031.35,822.645 1025.49,852.167 991.296,884.202 1058.02,824.905 1029.27,846.074 1059.96,812.88 1066.24,820.469 1068.86,818.781 1147.32,739.44 1121.98,777.01 1221.97,687.364 1185.93,731.678 1311.04,634.037 1250.65,700.754 1235.09,686.28 1309.03,618.759 1319.18,640.866 1309.04,657.855 1368.03,604.354 1332.58,641.779 1433.89,560.228 1317.83,665.833 1223.23,733.143 1265.04,678.175 1240.22,701.004 1244.89,708.267 1228.21,713.633 1238.11,691.808 1257.12,684.617 1178.07,745.909 1398.83,553.205 1392.83,576.032 1339.98,623.192 1392.59,587.726 1453.13,541.899 1424.45,576.737 1539.41,514.604 1547.02,494.33 1490.4,527.931 1478.04,537.153 1387.13,606.021 1415.16,567.034 1390.68,594.242 1356.6,618.622 1350.93,626.2 1340.14,624.242 1418.13,552.358 1309.7,642.999 1345.41,613.268 1158.45,770.041 1191.05,732.832 1213.31,714.54 1288.66,653.324 1259.93,683.128 1277.19,659.557 1254.27,673.163 1299.75,650.836 1330.06,631.092 1366.11,592.339 1484,533.426 1563.1,480.256 1625.59,443.878 1741.19,379.112 1551.88,534.983 1534.63,522.992 1513.43,538.255 1439.29,585.62 1380.78,622.524 1441.93,547.842 1434.18,553.322 1410.92,579.126 1416.91,573.393 1308.23,662.501 1331.07,631.634 1377.7,614.905 1342.27,633.601 1280.22,694.93 1283.53,672.407 1226.82,719.585 1182.31,755.921 1204.05,722.046 1281.91,656.659 1304.81,652.429 1302.78,663.758 1231.36,714.286 1144.6,781.62 1151.32,773.355 1095.09,811.519 1116.73,793.008 1146.64,758.875 1178.36,747.3 1127.71,797.161 1169.03,744.568 1229.49,700.404 1255.97,679.482 1272.4,670.374 1281.48,668.531 1143.95,784.277 1119.28,800.907 1099.48,812.138 1025.18,877.054 1054.95,839.17 1010.68,878.918 995.7,886.775 1013.99,867.752 1112.54,767.188 1161.78,741.11 1204.95,709.619 1153.34,757.22 1230.22,684.974 1194.78,719.916 1198.85,706.724 1102.94,801.729 1033.68,853.763 1034.57,852.242 974.068,908.811 997.905,873.143 1003.17,875.439 1117.96,761.437 1106.82,786.622 1102.71,800.406 1143.38,755.97 1055.89,837.426 1118.11,784.409 1144.26,767.248 1215.67,707.742 1125.24,791.184 1203.75,717.259 1149.86,785.372 1205.29,734.959 1135.87,806.976 1142.07,790.279 1073.72,849.848 1041.4,851.403 1090.66,801.077 1108.29,779.402 1173.38,729.884 1147.04,753.91 1080.91,809.988 974.823,903.211 982.046,887.844 988.442,884.078 1049.24,823.076 962.632,909.168 914.797,962.367 903.48,965.785 988.363,881.731 951.52,936.125 916.993,959.445 916.259,961.002 955.909,927.651 935.071,948.049 951.703,926.159 973.042,902.564 964.422,913.865 934.117,942.117 897.749,976.869 909.389,970.207 973.861,883.696 878.309,967.966 846.372,1008.96 885.324,979.956 875.153,991.563 912.835,952.487 957.55,900.3 999.468,870.264 1077.3,792.198 1045.56,846.523 1008.86,873.088 1063.41,824.98 1041.41,848.138 1099.15,783.822 1029.48,861.22 1104.35,801.839 1083.61,821.391 980.545,902.813 976.467,898.795 966.503,911.02 947.458,933.744 962.647,929.666 1036.99,847.801 1124.55,773.482 1200.3,715.844 1181.89,732.572 1136.47,769.303 1151.33,760.978 1140.19,769.239 1076.14,803.147 1067.23,831.136 1009.38,884.715 918.339,960.098 955.249,914.979 980.817,886.224 1033.14,849.135 1094.44,793.549 1114.48,789.174 1084.61,814.278 1019.27,882.358 1146.08,749.671 1219.19,682.971 1244.62,674.79 1265.36,689.695 1323.33,627.371 1213.5,732.577 1100.08,831.155 1067.16,844.077 1105.19,796.458 1078.21,820.618 1069.29,824.772 1025.96,861.004 943.727,941.423 946.001,937.24 970.799,899.547 958.965,924.817 958.212,922.086 904.277,963.743 905.65,968.902 886.065,979.607 920.806,936.56 1014.89,846.911 1065.56,813.614 1052.41,832.643 1119.8,770.662 1174.47,740.283 1213.99,709.424 1252.87,680.861 1246.13,689.11 1194.69,733.528 1215.48,715.493 1339.72,609.967 1349.38,611.375 1340.64,619.436 1222.98,720.612 1172.34,758.453 1069.44,843.408 1102.24,813.256 1100.93,808.426 1094.28,805.694 1056.58,856.25 1160.26,746.372 1232.8,679.83 1134.87,765.2 1112.68,790.838 1162.94,764.26 1092.78,836.288 1229.52,707.169 1188.21,732.68 1166.59,741.751 1209.84,707.953 1232.87,704.495 1384.3,597.013 1317.67,641.504 1270.4,672.663 1280.33,669.499 1505.91,501.007 1530.63,486.422 1412.61,588.087 1360.51,629.981 1377.53,605.846 1418.14,555.167 1517.98,471.151 1428.07,555.933 1446.78,536.61 1408.28,593.77 1321.23,649.143 1492.22,489.064 1372.11,611.473 1288.28,677.88 1298.43,649.275 1267.51,684.44 1189.55,747.194 1168.96,757.009 1118.39,794.666 1126.42,786.701 1110.74,809.599 1118.47,792.994 1117.32,777.901 1144.55,760.859 1117.04,782.026 1186.01,717.495 1201.92,723.248 1151.88,769.568 1069.04,836.202 1051.51,846.307 1016.37,880.725 979.951,910.824 1023.32,853.337 1060.63,818.333 1083.63,800.641 1030.74,858.701 1115.04,770.938 1112.5,783.43 995.001,901.551 991.593,895.28 954.034,916.313 995.271,877.638 998.521,887.584 993.096,892.211 1073.5,803.919 1084.17,806.078 1116.42,781.182 1250.89,659.489 1195.44,724.369 1217.62,703.883 1228.01,693.101 1077.6,823.245 1075.58,822.105 1029.51,860.768 980.278,906.038 1027.07,844.14 1064.69,814.183 1076.61,817.019 1121.08,770.54 1227.5,695.267 1328.63,614.236 1406.63,581.354 1405.03,574.571 1328.51,650.672 1393.08,600.969 1472.75,540.822 1433.19,567.869 1458.68,546.004 1419.48,609.958 1371.66,630.58 1363.1,615.82 1338.38,627.037 1306.34,655.108 1350.87,611.943 1288.68,663.911 1235.3,697.171 1326.21,609.658 1302.37,675.686 1276.29,692.35 1246.01,706.589 1150.95,777.172 1098.84,815.425 1058.6,847.27 1089.88,808.358 1046.21,843.124 1123.94,777.63 1102.11,802.789 1203.53,701.227 1164.14,749.536 1236.02,690.406 1290.14,648.19 1234.32,687.396 1273.25,667.436 1412.73,552.474 1338.02,616.585 1352.79,620.025 1402.82,599.603 1340.47,636.219 1483.51,508.38 1524.47,493.227 1491.06,532.848 1395.79,623.436 1408.95,597.195 1348.4,638.143 1459.73,532.722 1446.76,551.443 1463.16,542.346 1388.91,609.856 1284.62,683.893 1201.31,747.952 1159.78,769.264 1173.4,747.165 1237.04,677.372 1314.69,615.75 1377.69,576.657 1390.91,582.176 1408.5,574.762 1372.2,617.283 1264.13,708.334 1173.52,777.391 1172.58,754.727 1192.56,736.708 1266.7,665.341 1263.3,686.202 1225.12,714.363 1194.43,734.968 1160.35,769.769 1218.1,703.109 1260.57,694.75 1185.69,745.311 1134.68,787.507 1148.39,768.552 1097.3,807.935 1053.34,846.348 1004.41,890.233 976.623,903.801 1013.51,861.398 990.12,889.019 965.683,916.849 931.16,945.97 913.571,960.36 882.799,989.507 969.113,901.665 1053.92,821.865 1134.36,749.335 1133.27,761.472 1230.52,674.461 1184.9,731.673 1147.45,762.706 1205.56,703.933 1187.65,744.131 1131.25,781.946 1146.3,772.829 1097.99,816.956 1107.38,788.303 1036.43,872 1071.5,827.498 1039.62,861.503 1071.89,829.033 1117.36,790.114 1165.99,750.436 1060.42,825.498 1116.44,787.88 1053.38,836.665 1120.23,776.453 1125.96,769.973 1077.29,792.159 833.79,988.076 828.983,1021.64 834.596,1022.99 812.611,1055.8 880.632,974.167 841.402,1025.76 842.269,1030.06 803.27,1067.67 759.343,1109.97 778.483,1087.13 820.564,1040.16 849.219,1006.01 858.506,1001.26 889.649,963.67 939.112,910.278 906.097,958.537 940.818,924.663 991.506,870.315 957.94,924.554 940.063,938.487 927.921,950.41 868.642,1011.34 903.488,962.758 891.285,981.807 824.01,1052.08 854.724,1006.68 891.97,958.397 915.9,947.12 964.046,897.15 911.367,965.489 912.984,958.479 898.414,965.302 879.407,985.298 856.747,1011.06 810.881,1052.71 849.61,1011.88 855.384,1008.85 885.39,975.114 937.016,928.151 862.693,1015.46 829.599,1048.1 815.244,1056.83 774.499,1093.94 805.935,1051.84 863.603,992.564 899.226,953.389 876.548,987.317 898.751,968.412 868.6,1004.04 913.402,956.914 930.849,934.939 950.998,912.225 1040.73,826.935 1035.63,842.6 1012.4,870.42 1065.66,819.168 1147.4,759.503 1153.99,747.724 1131.77,773.062 1177.92,740.003 1165.28,762.701 1167.58,758.363 1217.72,726.67 1177.81,742.427 1172.67,747.864 1139.27,784.312 1043.58,858.1 1056.12,835.083 1006.31,883.44 1030.05,857.808 1080.63,799.435 1055.96,853.037 1096.27,802.538 1147.73,749.241 1186.16,718.647 1184,730.939 1213.95,703.259 1228.55,691.295 1126.17,796.432 1064.12,847.68 1020.22,875.511 981.816,913.859 1041.06,841.659 1011.94,870.9 1012.28,867.084 1065.44,823.431 1111.74,784.52 1121.25,784.044 1218.08,709.568 1296.95,651.254 1267.64,681.971 1237.78,684.346 1211.49,720.449 1226.55,712.076 1146.05,769.532 1242.49,677.345 1148.91,778.795 1105.9,823.446 1074.83,832.906 1034.28,869.164 1027.38,866.067 921.543,962.896 913.674,963.397 856.29,1024.44 864.468,1011.55 844.579,1030.5 811.31,1066.04 817.059,1049.99 760.154,1115.36 769.987,1098.82 754.638,1116.22 737.201,1127.93 754.358,1107.31 801.416,1046.97 787.507,1071.66 838.78,1012.75 824.827,1035.13 829.891,1026.96 808.333,1056 778.985,1093.37 847.844,1010.88 850.627,1016.66 868.024,987.964 878.356,987.636 919.025,945.782 918.199,946.019 969.688,901.464 1077.45,795.657 1138.09,758.838 1071.17,834.979 1071.38,824.4 1061.84,833.576 1060.38,837.89 1098.11,802.65 1131.98,769.124 1148.81,748.195 1133.35,771.681 1080.21,813.519 1083.86,799.224 1035.23,832.79 1056.62,808.224 1018.12,842.178 1024.48,849.579 985.101,886.168 1097.46,781.052 1178.31,725.315 1125.4,780.306 1069.28,837.384 1052.65,845.372 1079.92,806.415 1199.49,715.876 1217.18,704.142 1332.57,600.145 1273.23,672.533 1243.24,700.799 1178.36,753.663 1111.33,816.42 1074.74,833.207 1070.92,828.371 1069,824.713 1030.78,864.302 1103.18,783.706 1074.84,832.428 1104.26,804.025 1011.64,887.68 985.609,901.936 982.413,899.287 986.8,896.142 1061.15,819.736 1084.84,808.009 1066.69,823.688 1017.37,876.427 1007.57,879.335 "/>
<path clip-path="url(#clip090)" d="M186.863 198.898 L550.897 198.898 L550.897 95.2176 L186.863 95.2176  Z" fill="#ffffff" fill-rule="evenodd" fill-opacity="1"/>
<polyline clip-path="url(#clip090)" style="stroke:#000000; stroke-linecap:round; stroke-linejoin:round; stroke-width:4; stroke-opacity:1; fill:none" points="186.863,198.898 550.897,198.898 550.897,95.2176 186.863,95.2176 186.863,198.898 "/>
<polyline clip-path="url(#clip090)" style="stroke:#009af9; stroke-linecap:round; stroke-linejoin:round; stroke-width:4; stroke-opacity:1; fill:none" points="211.758,147.058 361.13,147.058 "/>
<path clip-path="url(#clip090)" d="M396.651 128.366 Q393.549 133.69 392.044 138.898 Q390.54 144.106 390.54 149.453 Q390.54 154.801 392.044 160.055 Q393.572 165.287 396.651 170.588 L392.947 170.588 Q389.475 165.148 387.739 159.893 Q386.026 154.639 386.026 149.453 Q386.026 144.291 387.739 139.06 Q389.452 133.828 392.947 128.366 L396.651 128.366 Z" fill="#000000" fill-rule="nonzero" fill-opacity="1" /><path clip-path="url(#clip090)" d="M403.063 138.412 L423.294 138.412 L423.294 142.301 L407.276 160.935 L423.294 160.935 L423.294 164.338 L402.484 164.338 L402.484 160.449 L418.502 141.815 L403.063 141.815 L403.063 138.412 Z" fill="#000000" fill-rule="nonzero" fill-opacity="1" /><path clip-path="url(#clip090)" d="M430.887 158.458 L435.771 158.458 L435.771 162.439 L431.975 169.847 L428.988 169.847 L430.887 162.439 L430.887 158.458 Z" fill="#000000" fill-rule="nonzero" fill-opacity="1" /><path clip-path="url(#clip090)" d="M455.655 166.745 Q453.849 171.375 452.136 172.787 Q450.423 174.199 447.553 174.199 L444.15 174.199 L444.15 170.634 L446.65 170.634 Q448.41 170.634 449.382 169.8 Q450.354 168.967 451.535 165.865 L452.298 163.921 L441.812 138.412 L446.326 138.412 L454.428 158.689 L462.53 138.412 L467.044 138.412 L455.655 166.745 Z" fill="#000000" fill-rule="nonzero" fill-opacity="1" /><path clip-path="url(#clip090)" d="M474.011 158.458 L478.896 158.458 L478.896 162.439 L475.099 169.847 L472.113 169.847 L474.011 162.439 L474.011 158.458 Z" fill="#000000" fill-rule="nonzero" fill-opacity="1" /><path clip-path="url(#clip090)" d="M509.544 138.412 L500.169 151.027 L510.03 164.338 L505.007 164.338 L497.46 154.152 L489.914 164.338 L484.891 164.338 L494.96 150.773 L485.747 138.412 L490.77 138.412 L497.645 147.648 L504.52 138.412 L509.544 138.412 Z" fill="#000000" fill-rule="nonzero" fill-opacity="1" /><path clip-path="url(#clip090)" d="M515.377 128.366 L519.081 128.366 Q522.553 133.828 524.266 139.06 Q526.002 144.291 526.002 149.453 Q526.002 154.639 524.266 159.893 Q522.553 165.148 519.081 170.588 L515.377 170.588 Q518.456 165.287 519.96 160.055 Q521.488 154.801 521.488 149.453 Q521.488 144.106 519.96 138.898 Q518.456 133.69 515.377 128.366 Z" fill="#000000" fill-rule="nonzero" fill-opacity="1" /></svg>
