<?xml version="1.0" encoding="utf-8"?>
<svg xmlns="http://www.w3.org/2000/svg" xmlns:xlink="http://www.w3.org/1999/xlink" width="600" height="400" viewBox="0 0 2400 1600">
<defs>
  <clipPath id="clip360">
    <rect x="0" y="0" width="2400" height="1600"/>
  </clipPath>
</defs>
<path clip-path="url(#clip360)" d="M0 1600 L2400 1600 L2400 0 L0 0  Z" fill="#ffffff" fill-rule="evenodd" fill-opacity="1"/>
<defs>
  <clipPath id="clip361">
    <rect x="480" y="0" width="1681" height="1600"/>
  </clipPath>
</defs>
<path clip-path="url(#clip360)" d="M147.478 1423.18 L2352.76 1423.18 L2352.76 47.2441 L147.478 47.2441  Z" fill="#ffffff" fill-rule="evenodd" fill-opacity="1"/>
<defs>
  <clipPath id="clip362">
    <rect x="147" y="47" width="2206" height="1377"/>
  </clipPath>
</defs>
<polyline clip-path="url(#clip362)" style="stroke:#000000; stroke-linecap:round; stroke-linejoin:round; stroke-width:2; stroke-opacity:0.1; fill:none" points="147.478,1423.18 147.478,47.2441 "/>
<polyline clip-path="url(#clip362)" style="stroke:#000000; stroke-linecap:round; stroke-linejoin:round; stroke-width:2; stroke-opacity:0.1; fill:none" points="588.534,1423.18 588.534,47.2441 "/>
<polyline clip-path="url(#clip362)" style="stroke:#000000; stroke-linecap:round; stroke-linejoin:round; stroke-width:2; stroke-opacity:0.1; fill:none" points="1029.59,1423.18 1029.59,47.2441 "/>
<polyline clip-path="url(#clip362)" style="stroke:#000000; stroke-linecap:round; stroke-linejoin:round; stroke-width:2; stroke-opacity:0.1; fill:none" points="1470.64,1423.18 1470.64,47.2441 "/>
<polyline clip-path="url(#clip362)" style="stroke:#000000; stroke-linecap:round; stroke-linejoin:round; stroke-width:2; stroke-opacity:0.1; fill:none" points="1911.7,1423.18 1911.7,47.2441 "/>
<polyline clip-path="url(#clip362)" style="stroke:#000000; stroke-linecap:round; stroke-linejoin:round; stroke-width:2; stroke-opacity:0.1; fill:none" points="2352.76,1423.18 2352.76,47.2441 "/>
<polyline clip-path="url(#clip360)" style="stroke:#000000; stroke-linecap:round; stroke-linejoin:round; stroke-width:4; stroke-opacity:1; fill:none" points="147.478,1423.18 2352.76,1423.18 "/>
<polyline clip-path="url(#clip360)" style="stroke:#000000; stroke-linecap:round; stroke-linejoin:round; stroke-width:4; stroke-opacity:1; fill:none" points="147.478,1423.18 147.478,1404.28 "/>
<polyline clip-path="url(#clip360)" style="stroke:#000000; stroke-linecap:round; stroke-linejoin:round; stroke-width:4; stroke-opacity:1; fill:none" points="588.534,1423.18 588.534,1404.28 "/>
<polyline clip-path="url(#clip360)" style="stroke:#000000; stroke-linecap:round; stroke-linejoin:round; stroke-width:4; stroke-opacity:1; fill:none" points="1029.59,1423.18 1029.59,1404.28 "/>
<polyline clip-path="url(#clip360)" style="stroke:#000000; stroke-linecap:round; stroke-linejoin:round; stroke-width:4; stroke-opacity:1; fill:none" points="1470.64,1423.18 1470.64,1404.28 "/>
<polyline clip-path="url(#clip360)" style="stroke:#000000; stroke-linecap:round; stroke-linejoin:round; stroke-width:4; stroke-opacity:1; fill:none" points="1911.7,1423.18 1911.7,1404.28 "/>
<polyline clip-path="url(#clip360)" style="stroke:#000000; stroke-linecap:round; stroke-linejoin:round; stroke-width:4; stroke-opacity:1; fill:none" points="2352.76,1423.18 2352.76,1404.28 "/>
<path clip-path="url(#clip360)" d="M147.478 1454.1 Q143.867 1454.1 142.038 1457.66 Q140.233 1461.2 140.233 1468.33 Q140.233 1475.44 142.038 1479.01 Q143.867 1482.55 147.478 1482.55 Q151.112 1482.55 152.918 1479.01 Q154.746 1475.44 154.746 1468.33 Q154.746 1461.2 152.918 1457.66 Q151.112 1454.1 147.478 1454.1 M147.478 1450.39 Q153.288 1450.39 156.344 1455 Q159.422 1459.58 159.422 1468.33 Q159.422 1477.06 156.344 1481.67 Q153.288 1486.25 147.478 1486.25 Q141.668 1486.25 138.589 1481.67 Q135.534 1477.06 135.534 1468.33 Q135.534 1459.58 138.589 1455 Q141.668 1450.39 147.478 1450.39 Z" fill="#000000" fill-rule="nonzero" fill-opacity="1" /><path clip-path="url(#clip360)" d="M583.186 1481.64 L599.506 1481.64 L599.506 1485.58 L577.561 1485.58 L577.561 1481.64 Q580.223 1478.89 584.807 1474.26 Q589.413 1469.61 590.594 1468.27 Q592.839 1465.74 593.719 1464.01 Q594.621 1462.25 594.621 1460.56 Q594.621 1457.8 592.677 1456.07 Q590.756 1454.33 587.654 1454.33 Q585.455 1454.33 583.001 1455.09 Q580.571 1455.86 577.793 1457.41 L577.793 1452.69 Q580.617 1451.55 583.071 1450.97 Q585.524 1450.39 587.561 1450.39 Q592.932 1450.39 596.126 1453.08 Q599.32 1455.77 599.32 1460.26 Q599.32 1462.39 598.51 1464.31 Q597.723 1466.2 595.617 1468.8 Q595.038 1469.47 591.936 1472.69 Q588.834 1475.88 583.186 1481.64 Z" fill="#000000" fill-rule="nonzero" fill-opacity="1" /><path clip-path="url(#clip360)" d="M1032.6 1455.09 L1020.79 1473.54 L1032.6 1473.54 L1032.6 1455.09 M1031.37 1451.02 L1037.25 1451.02 L1037.25 1473.54 L1042.18 1473.54 L1042.18 1477.43 L1037.25 1477.43 L1037.25 1485.58 L1032.6 1485.58 L1032.6 1477.43 L1017 1477.43 L1017 1472.92 L1031.37 1451.02 Z" fill="#000000" fill-rule="nonzero" fill-opacity="1" /><path clip-path="url(#clip360)" d="M1471.05 1466.44 Q1467.9 1466.44 1466.05 1468.59 Q1464.22 1470.74 1464.22 1474.49 Q1464.22 1478.22 1466.05 1480.39 Q1467.9 1482.55 1471.05 1482.55 Q1474.2 1482.55 1476.03 1480.39 Q1477.88 1478.22 1477.88 1474.49 Q1477.88 1470.74 1476.03 1468.59 Q1474.2 1466.44 1471.05 1466.44 M1480.33 1451.78 L1480.33 1456.04 Q1478.57 1455.21 1476.77 1454.77 Q1474.98 1454.33 1473.23 1454.33 Q1468.6 1454.33 1466.14 1457.45 Q1463.71 1460.58 1463.36 1466.9 Q1464.73 1464.89 1466.79 1463.82 Q1468.85 1462.73 1471.33 1462.73 Q1476.54 1462.73 1479.55 1465.9 Q1482.58 1469.05 1482.58 1474.49 Q1482.58 1479.82 1479.43 1483.03 Q1476.28 1486.25 1471.05 1486.25 Q1465.05 1486.25 1461.88 1481.67 Q1458.71 1477.06 1458.71 1468.33 Q1458.71 1460.14 1462.6 1455.28 Q1466.49 1450.39 1473.04 1450.39 Q1474.8 1450.39 1476.58 1450.74 Q1478.39 1451.09 1480.33 1451.78 Z" fill="#000000" fill-rule="nonzero" fill-opacity="1" /><path clip-path="url(#clip360)" d="M1911.7 1469.17 Q1908.37 1469.17 1906.45 1470.95 Q1904.55 1472.73 1904.55 1475.86 Q1904.55 1478.98 1906.45 1480.77 Q1908.37 1482.55 1911.7 1482.55 Q1915.03 1482.55 1916.95 1480.77 Q1918.88 1478.96 1918.88 1475.86 Q1918.88 1472.73 1916.95 1470.95 Q1915.06 1469.17 1911.7 1469.17 M1907.02 1467.18 Q1904.02 1466.44 1902.33 1464.38 Q1900.66 1462.32 1900.66 1459.35 Q1900.66 1455.21 1903.6 1452.8 Q1906.56 1450.39 1911.7 1450.39 Q1916.86 1450.39 1919.8 1452.8 Q1922.74 1455.21 1922.74 1459.35 Q1922.74 1462.32 1921.05 1464.38 Q1919.39 1466.44 1916.4 1467.18 Q1919.78 1467.96 1921.65 1470.26 Q1923.55 1472.55 1923.55 1475.86 Q1923.55 1480.88 1920.47 1483.57 Q1917.42 1486.25 1911.7 1486.25 Q1905.98 1486.25 1902.9 1483.57 Q1899.85 1480.88 1899.85 1475.86 Q1899.85 1472.55 1901.75 1470.26 Q1903.64 1467.96 1907.02 1467.18 M1905.31 1459.79 Q1905.31 1462.48 1906.98 1463.98 Q1908.67 1465.49 1911.7 1465.49 Q1914.71 1465.49 1916.4 1463.98 Q1918.11 1462.48 1918.11 1459.79 Q1918.11 1457.11 1916.4 1455.6 Q1914.71 1454.1 1911.7 1454.1 Q1908.67 1454.1 1906.98 1455.6 Q1905.31 1457.11 1905.31 1459.79 Z" fill="#000000" fill-rule="nonzero" fill-opacity="1" /><path clip-path="url(#clip360)" d="M2327.44 1481.64 L2335.08 1481.64 L2335.08 1455.28 L2326.77 1456.95 L2326.77 1452.69 L2335.04 1451.02 L2339.71 1451.02 L2339.71 1481.64 L2347.35 1481.64 L2347.35 1485.58 L2327.44 1485.58 L2327.44 1481.64 Z" fill="#000000" fill-rule="nonzero" fill-opacity="1" /><path clip-path="url(#clip360)" d="M2366.8 1454.1 Q2363.18 1454.1 2361.36 1457.66 Q2359.55 1461.2 2359.55 1468.33 Q2359.55 1475.44 2361.36 1479.01 Q2363.18 1482.55 2366.8 1482.55 Q2370.43 1482.55 2372.23 1479.01 Q2374.06 1475.44 2374.06 1468.33 Q2374.06 1461.2 2372.23 1457.66 Q2370.43 1454.1 2366.8 1454.1 M2366.8 1450.39 Q2372.61 1450.39 2375.66 1455 Q2378.74 1459.58 2378.74 1468.33 Q2378.74 1477.06 2375.66 1481.67 Q2372.61 1486.25 2366.8 1486.25 Q2360.99 1486.25 2357.91 1481.67 Q2354.85 1477.06 2354.85 1468.33 Q2354.85 1459.58 2357.91 1455 Q2360.99 1450.39 2366.8 1450.39 Z" fill="#000000" fill-rule="nonzero" fill-opacity="1" /><path clip-path="url(#clip360)" d="M1249.18 1522.27 L1249.18 1532.4 L1261.24 1532.4 L1261.24 1536.95 L1249.18 1536.95 L1249.18 1556.3 Q1249.18 1560.66 1250.36 1561.9 Q1251.57 1563.14 1255.23 1563.14 L1261.24 1563.14 L1261.24 1568.04 L1255.23 1568.04 Q1248.45 1568.04 1245.87 1565.53 Q1243.29 1562.98 1243.29 1556.3 L1243.29 1536.95 L1238.99 1536.95 L1238.99 1532.4 L1243.29 1532.4 L1243.29 1522.27 L1249.18 1522.27 Z" fill="#000000" fill-rule="nonzero" fill-opacity="1" /><polyline clip-path="url(#clip362)" style="stroke:#000000; stroke-linecap:round; stroke-linejoin:round; stroke-width:2; stroke-opacity:0.1; fill:none" points="147.478,1159.84 2352.76,1159.84 "/>
<polyline clip-path="url(#clip362)" style="stroke:#000000; stroke-linecap:round; stroke-linejoin:round; stroke-width:2; stroke-opacity:0.1; fill:none" points="147.478,877.233 2352.76,877.233 "/>
<polyline clip-path="url(#clip362)" style="stroke:#000000; stroke-linecap:round; stroke-linejoin:round; stroke-width:2; stroke-opacity:0.1; fill:none" points="147.478,594.631 2352.76,594.631 "/>
<polyline clip-path="url(#clip362)" style="stroke:#000000; stroke-linecap:round; stroke-linejoin:round; stroke-width:2; stroke-opacity:0.1; fill:none" points="147.478,312.029 2352.76,312.029 "/>
<polyline clip-path="url(#clip360)" style="stroke:#000000; stroke-linecap:round; stroke-linejoin:round; stroke-width:4; stroke-opacity:1; fill:none" points="147.478,1423.18 147.478,47.2441 "/>
<polyline clip-path="url(#clip360)" style="stroke:#000000; stroke-linecap:round; stroke-linejoin:round; stroke-width:4; stroke-opacity:1; fill:none" points="147.478,1159.84 166.376,1159.84 "/>
<polyline clip-path="url(#clip360)" style="stroke:#000000; stroke-linecap:round; stroke-linejoin:round; stroke-width:4; stroke-opacity:1; fill:none" points="147.478,877.233 166.376,877.233 "/>
<polyline clip-path="url(#clip360)" style="stroke:#000000; stroke-linecap:round; stroke-linejoin:round; stroke-width:4; stroke-opacity:1; fill:none" points="147.478,594.631 166.376,594.631 "/>
<polyline clip-path="url(#clip360)" style="stroke:#000000; stroke-linecap:round; stroke-linejoin:round; stroke-width:4; stroke-opacity:1; fill:none" points="147.478,312.029 166.376,312.029 "/>
<path clip-path="url(#clip360)" d="M51.3625 1160.29 L81.0383 1160.29 L81.0383 1164.22 L51.3625 1164.22 L51.3625 1160.29 Z" fill="#000000" fill-rule="nonzero" fill-opacity="1" /><path clip-path="url(#clip360)" d="M95.1586 1173.18 L111.478 1173.18 L111.478 1177.12 L89.5336 1177.12 L89.5336 1173.18 Q92.1956 1170.43 96.7789 1165.8 Q101.385 1161.14 102.566 1159.8 Q104.811 1157.28 105.691 1155.54 Q106.594 1153.78 106.594 1152.09 Q106.594 1149.34 104.649 1147.6 Q102.728 1145.87 99.6261 1145.87 Q97.4271 1145.87 94.9734 1146.63 Q92.5428 1147.39 89.7651 1148.94 L89.7651 1144.22 Q92.5891 1143.09 95.0428 1142.51 Q97.4965 1141.93 99.5335 1141.93 Q104.904 1141.93 108.098 1144.62 Q111.293 1147.3 111.293 1151.79 Q111.293 1153.92 110.483 1155.84 Q109.696 1157.74 107.589 1160.33 Q107.01 1161 103.909 1164.22 Q100.807 1167.42 95.1586 1173.18 Z" fill="#000000" fill-rule="nonzero" fill-opacity="1" /><path clip-path="url(#clip360)" d="M50.9921 877.684 L80.6679 877.684 L80.6679 881.62 L50.9921 881.62 L50.9921 877.684 Z" fill="#000000" fill-rule="nonzero" fill-opacity="1" /><path clip-path="url(#clip360)" d="M91.5706 890.578 L99.2095 890.578 L99.2095 864.212 L90.8993 865.879 L90.8993 861.62 L99.1632 859.953 L103.839 859.953 L103.839 890.578 L111.478 890.578 L111.478 894.513 L91.5706 894.513 L91.5706 890.578 Z" fill="#000000" fill-rule="nonzero" fill-opacity="1" /><path clip-path="url(#clip360)" d="M99.5335 580.43 Q95.9224 580.43 94.0937 583.994 Q92.2882 587.536 92.2882 594.666 Q92.2882 601.772 94.0937 605.337 Q95.9224 608.879 99.5335 608.879 Q103.168 608.879 104.973 605.337 Q106.802 601.772 106.802 594.666 Q106.802 587.536 104.973 583.994 Q103.168 580.43 99.5335 580.43 M99.5335 576.726 Q105.344 576.726 108.399 581.332 Q111.478 585.916 111.478 594.666 Q111.478 603.392 108.399 607.999 Q105.344 612.582 99.5335 612.582 Q93.7234 612.582 90.6447 607.999 Q87.5892 603.392 87.5892 594.666 Q87.5892 585.916 90.6447 581.332 Q93.7234 576.726 99.5335 576.726 Z" fill="#000000" fill-rule="nonzero" fill-opacity="1" /><path clip-path="url(#clip360)" d="M91.5706 325.374 L99.2095 325.374 L99.2095 299.008 L90.8993 300.675 L90.8993 296.415 L99.1632 294.749 L103.839 294.749 L103.839 325.374 L111.478 325.374 L111.478 329.309 L91.5706 329.309 L91.5706 325.374 Z" fill="#000000" fill-rule="nonzero" fill-opacity="1" /><polyline clip-path="url(#clip362)" style="stroke:#009af9; stroke-linecap:round; stroke-linejoin:round; stroke-width:4; stroke-opacity:1; fill:none" points="147.478,594.631 149.685,603.534 151.893,612.319 154.1,620.987 156.308,629.541 158.515,637.981 160.723,646.309 162.93,654.527 165.138,662.636 167.345,670.638 169.553,678.533 171.76,686.324 173.968,694.011 176.175,701.596 178.383,709.081 180.59,716.467 182.798,723.754 185.005,730.946 187.213,738.041 189.42,745.043 191.628,751.952 193.835,758.769 196.043,765.496 198.25,772.134 200.458,778.683 202.665,785.146 204.873,791.523 207.08,797.816 209.288,804.025 211.495,810.152 213.702,816.198 215.91,822.163 218.117,828.049 220.325,833.858 222.532,839.589 224.74,845.244 226.947,850.825 229.155,856.331 231.362,861.765 233.57,867.126 235.777,872.416 237.985,877.636 240.192,882.787 242.4,887.87 244.607,892.885 246.815,897.834 249.022,902.717 251.23,907.536 253.437,912.29 255.645,916.982 257.852,921.611 260.06,926.179 262.267,930.686 264.475,935.134 266.682,939.522 268.89,943.853 271.097,948.126 273.305,952.342 275.512,956.502 277.72,960.608 279.927,964.659 282.135,968.656 284.342,972.6 286.549,976.492 288.757,980.333 290.964,984.122 293.172,987.861 295.379,991.551 297.587,995.191 299.794,998.784 302.002,1002.33 304.209,1005.83 306.417,1009.28 308.624,1012.68 310.832,1016.04 313.039,1019.36 315.247,1022.63 317.454,1025.86 319.662,1029.05 321.869,1032.19 324.077,1035.29 326.284,1038.35 328.492,1041.37 330.699,1044.35 332.907,1047.29 335.114,1050.19 337.322,1053.06 339.529,1055.88 341.737,1058.67 343.944,1061.42 346.152,1064.14 348.359,1066.81 350.567,1069.46 352.774,1072.06 354.982,1074.9 357.189,1079.25 359.397,1083.38 361.604,1085.57 363.811,1084.82 366.019,1080.79 368.226,1073.87 370.434,1065.12 372.641,1056.3 374.849,1048.18 377.056,1040.17 379.264,1032.26 381.471,1024.46 383.679,1016.76 385.886,1009.17 388.094,1001.67 390.301,994.274 392.509,986.976 394.716,979.775 396.924,972.669 399.131,965.657 401.339,958.739 403.546,951.912 405.754,945.176 407.961,938.529 410.169,931.97 412.376,925.498 414.584,919.112 416.791,912.811 418.999,906.593 421.206,900.458 423.414,894.404 425.621,888.43 427.829,882.536 430.036,876.719 432.244,870.98 434.451,865.317 436.659,859.729 438.866,854.215 441.073,848.774 443.281,843.405 445.488,838.107 447.696,832.88 449.903,827.722 452.111,822.632 454.318,817.61 456.526,812.654 458.733,807.764 460.941,802.939 463.148,798.177 465.356,793.479 467.563,788.844 469.771,784.269 471.978,779.756 474.186,775.302 476.393,770.907 478.601,766.571 480.808,762.292 483.016,758.07 485.223,753.903 487.431,749.792 489.638,745.736 491.846,741.733 494.053,737.783 496.261,733.886 498.468,730.04 500.676,726.246 502.883,722.501 505.091,718.807 507.298,715.161 509.506,711.563 511.713,708.013 513.921,704.511 516.128,701.054 518.335,697.644 520.543,694.278 522.75,690.958 524.958,687.681 527.165,684.448 529.373,681.258 531.58,678.11 533.788,675.003 535.995,671.938 538.203,668.914 540.41,665.93 542.618,662.985 544.825,660.08 547.033,657.213 549.24,654.384 551.448,651.592 553.655,648.838 555.863,646.12 558.07,643.438 560.278,640.791 562.485,638.18 564.693,635.603 566.9,633.061 569.108,630.552 571.315,628.076 573.523,625.634 575.73,623.223 577.938,620.845 580.145,618.498 582.353,616.182 584.56,613.897 586.768,611.642 588.975,609.507 591.182,608.944 593.39,609.185 595.597,609.311 597.805,609.318 600.012,609.367 602.22,609.415 604.427,609.462 606.635,609.509 608.842,609.555 611.05,609.6 613.257,609.645 615.465,609.689 617.672,609.732 619.88,609.775 622.087,609.818 624.295,609.86 626.502,609.901 628.71,609.942 630.917,609.982 633.125,610.022 635.332,610.061 637.54,610.1 639.747,610.138 641.955,610.175 644.162,610.212 646.37,610.249 648.577,610.285 650.785,610.321 652.992,610.356 655.2,610.391 657.407,610.425 659.615,610.459 661.822,610.492 664.03,610.525 666.237,610.558 668.444,610.59 670.652,610.621 672.859,610.653 675.067,610.683 677.274,610.714 679.482,610.744 681.689,610.773 683.897,610.803 686.104,610.831 688.312,610.86 690.519,610.888 692.727,610.916 694.934,610.943 697.142,610.97 699.349,610.996 701.557,611.023 703.764,611.049 705.972,611.074 708.179,611.099 710.387,611.124 712.594,611.149 714.802,611.173 717.009,611.197 719.217,611.221 721.424,611.244 723.632,611.267 725.839,611.289 728.047,611.312 730.254,611.334 732.462,611.356 734.669,611.377 736.877,611.398 739.084,611.419 741.292,611.44 743.499,611.46 745.706,611.48 747.914,611.5 750.121,611.52 752.329,611.539 754.536,611.558 756.744,611.577 758.951,611.595 761.159,611.614 763.366,611.632 765.574,611.65 767.781,611.667 769.989,611.685 772.196,611.702 774.404,611.719 776.611,611.735 778.819,611.752 781.026,611.768 783.234,611.784 785.441,611.8 787.649,611.815 789.856,611.831 792.064,611.846 794.271,611.861 796.479,611.876 798.686,611.89 800.894,611.905 803.101,611.919 805.309,611.933 807.516,611.947 809.724,611.966 811.931,612.067 814.139,612.264 816.346,612.547 818.553,612.907 820.761,613.331 822.968,613.813 825.176,614.342 827.383,614.911 829.591,615.512 831.798,616.138 834.006,616.782 836.213,617.438 838.421,618.101 840.628,618.766 842.836,619.428 845.043,620.084 847.251,620.73 849.458,621.363 851.666,621.981 853.873,622.582 856.081,623.165 858.288,623.73 860.496,624.276 862.703,624.803 864.911,625.313 867.118,625.807 869.326,626.286 871.533,626.755 873.741,627.214 875.948,627.669 878.156,628.124 880.363,628.582 882.571,629.042 884.778,629.496 886.986,629.944 889.193,630.386 891.401,630.822 893.608,631.253 895.815,631.677 898.023,632.096 900.23,632.51 902.438,632.918 904.645,633.32 906.853,633.718 909.06,634.11 911.268,634.496 913.475,634.878 915.683,635.255 917.89,635.626 920.098,635.993 922.305,636.355 924.513,636.712 926.72,637.064 928.928,637.412 931.135,637.755 933.343,638.094 935.55,638.428 937.758,638.757 939.965,639.082 942.173,639.403 944.38,639.72 946.588,640.032 948.795,640.341 951.003,640.645 953.21,640.945 955.418,641.241 957.625,641.533 959.833,641.822 962.04,642.106 964.248,642.387 966.455,642.664 968.663,642.937 970.87,643.207 973.077,643.473 975.285,643.736 977.492,643.995 979.7,644.251 981.907,644.503 984.115,644.752 986.322,644.997 988.53,645.24 990.737,645.479 992.945,645.715 995.152,645.948 997.36,646.178 999.567,646.404 1001.77,646.628 1003.98,646.849 1006.19,647.067 1008.4,647.282 1010.6,647.494 1012.81,647.703 1015.02,647.91 1017.23,648.114 1019.43,648.315 1021.64,648.513 1023.85,648.709 1026.06,648.902 1028.26,649.093 1030.47,649.141 1032.68,648.154 1034.89,646.106 1037.09,643.149 1039.3,639.423 1041.51,635.06 1043.72,630.182 1045.92,624.902 1048.13,619.322 1050.34,613.536 1052.55,607.626 1054.75,601.668 1056.96,595.724 1059.17,589.85 1061.38,584.09 1063.58,578.481 1065.79,573.046 1068,567.803 1070.21,562.758 1072.41,557.908 1074.62,553.238 1076.83,548.728 1079.04,544.345 1081.24,540.047 1083.45,535.782 1085.66,531.489 1087.87,527.144 1090.07,522.848 1092.28,518.609 1094.49,514.427 1096.7,510.299 1098.9,506.227 1101.11,502.208 1103.32,498.243 1105.53,494.33 1107.73,490.47 1109.94,486.66 1112.15,482.901 1114.36,479.192 1116.56,475.532 1118.77,471.92 1120.98,468.356 1123.19,464.84 1125.39,461.37 1127.6,457.946 1129.81,454.567 1132.02,451.233 1134.22,447.944 1136.43,444.698 1138.64,441.495 1140.85,438.334 1143.05,435.216 1145.26,432.139 1147.47,429.102 1149.68,426.106 1151.88,423.15 1154.09,420.233 1156.3,417.355 1158.51,414.514 1160.71,411.712 1162.92,408.947 1165.13,406.218 1167.34,403.526 1169.54,400.869 1171.75,398.247 1173.96,395.661 1176.17,393.108 1178.37,390.589 1180.58,388.104 1182.79,385.652 1185,383.232 1187.2,380.844 1189.41,378.488 1191.62,376.163 1193.83,373.869 1196.03,371.605 1198.24,369.371 1200.45,367.167 1202.66,364.992 1204.86,362.846 1207.07,360.729 1209.28,358.639 1211.49,356.577 1213.69,354.543 1215.9,352.536 1218.11,350.555 1220.32,348.6 1222.52,346.671 1224.73,344.768 1226.94,342.89 1229.15,341.037 1231.35,339.209 1233.56,337.405 1235.77,335.624 1237.98,333.868 1240.18,332.134 1242.39,330.46 1244.6,329.58 1246.81,329.7 1249.01,330.706 1251.22,332.489 1253.43,334.948 1255.64,337.986 1257.84,341.512 1260.05,345.444 1262.26,349.7 1264.47,354.21 1266.67,358.905 1268.88,363.724 1271.09,368.612 1273.3,373.52 1275.5,378.402 1277.71,383.222 1279.92,387.948 1282.13,392.552 1284.33,397.014 1286.54,401.321 1288.75,405.462 1290.96,409.435 1293.16,413.243 1295.37,416.894 1297.58,420.402 1299.79,423.789 1301.99,427.079 1304.2,430.305 1306.41,433.505 1308.62,436.723 1310.82,440.005 1313.03,443.297 1315.24,446.545 1317.45,449.751 1319.65,452.913 1321.86,456.034 1324.07,459.114 1326.28,462.152 1328.48,465.151 1330.69,468.109 1332.9,471.028 1335.11,473.909 1337.31,476.752 1339.52,479.556 1341.73,482.324 1343.94,485.055 1346.14,487.749 1348.35,490.408 1350.56,493.032 1352.76,495.621 1354.97,498.176 1357.18,500.697 1359.39,503.185 1361.59,505.64 1363.8,508.062 1366.01,510.452 1368.22,512.81 1370.42,515.137 1372.63,517.434 1374.84,519.699 1377.05,521.935 1379.25,524.141 1381.46,526.317 1383.67,528.465 1385.88,530.585 1388.08,532.676 1390.29,534.739 1392.5,536.775 1394.71,538.784 1396.91,540.766 1399.12,542.722 1401.33,544.652 1403.54,546.556 1405.74,548.435 1407.95,550.289 1410.16,552.119 1412.37,553.924 1414.57,555.705 1416.78,557.463 1418.99,559.197 1421.2,560.909 1423.4,562.597 1425.61,564.264 1427.82,565.908 1430.03,567.53 1432.23,569.131 1434.44,570.711 1436.65,572.27 1438.86,573.808 1441.06,575.326 1443.27,576.824 1445.48,578.302 1447.69,579.761 1449.89,581.2 1452.1,582.62 1454.31,584.021 1456.52,585.403 1458.72,586.768 1460.93,588.114 1463.14,589.442 1465.35,590.753 1467.55,592.046 1469.76,593.322 1471.97,594.934 1474.18,598.089 1476.38,602.705 1478.59,608.583 1480.8,615.536 1483.01,623.391 1485.21,631.984 1487.42,641.165 1489.63,650.793 1491.84,660.743 1494.04,670.898 1496.25,681.156 1498.46,691.423 1500.67,701.621 1502.87,711.68 1505.08,721.546 1507.29,731.173 1509.5,740.529 1511.7,749.593 1513.91,758.357 1516.12,766.822 1518.33,775.005 1520.53,782.93 1522.74,790.638 1524.95,798.178 1527.16,805.613 1529.36,813.015 1531.57,820.472 1533.78,827.946 1535.99,835.321 1538.19,842.599 1540.4,849.78 1542.61,856.866 1544.82,863.858 1547.02,870.757 1549.23,877.565 1551.44,884.282 1553.65,890.911 1555.85,897.451 1558.06,903.905 1560.27,910.273 1562.48,916.557 1564.68,922.758 1566.89,928.876 1569.1,934.913 1571.31,940.871 1573.51,946.75 1575.72,952.55 1577.93,958.274 1580.14,963.922 1582.34,969.496 1584.55,974.995 1586.76,980.421 1588.97,985.776 1591.17,991.059 1593.38,996.272 1595.59,1001.42 1597.8,1006.49 1600,1011.5 1602.21,1016.44 1604.42,1021.32 1606.63,1026.13 1608.83,1030.88 1611.04,1035.56 1613.25,1040.18 1615.46,1044.75 1617.66,1049.25 1619.87,1053.69 1622.08,1058.07 1624.29,1062.39 1626.49,1066.66 1628.7,1070.87 1630.91,1075.02 1633.12,1079.12 1635.32,1083.17 1637.53,1087.16 1639.74,1091.1 1641.95,1094.98 1644.15,1098.82 1646.36,1102.6 1648.57,1106.34 1650.78,1110.02 1652.98,1113.66 1655.19,1117.24 1657.4,1120.78 1659.61,1124.28 1661.81,1127.72 1664.02,1131.12 1666.23,1134.48 1668.44,1137.79 1670.64,1141.06 1672.85,1144.28 1675.06,1147.46 1677.27,1150.6 1679.47,1153.7 1681.68,1156.76 1683.89,1159.77 1686.1,1161.26 1688.3,1157.98 1690.51,1150.93 1692.72,1141.18 1694.93,1129.65 1697.13,1117.13 1699.34,1104.23 1701.55,1091.44 1703.76,1079.09 1705.96,1067.37 1708.17,1056.3 1710.38,1045.77 1712.59,1035.52 1714.79,1025.16 1717,1014.79 1719.21,1004.55 1721.42,994.449 1723.62,984.48 1725.83,974.644 1728.04,964.938 1730.25,955.361 1732.45,945.911 1734.66,936.586 1736.87,927.384 1739.07,918.304 1741.28,909.345 1743.49,900.505 1745.7,891.782 1747.9,883.174 1750.11,874.681 1752.32,866.3 1754.53,858.031 1756.73,849.871 1758.94,841.819 1761.15,833.875 1763.36,826.035 1765.56,818.3 1767.77,810.667 1769.98,803.136 1772.19,795.704 1774.39,788.371 1776.6,781.135 1778.81,773.995 1781.02,766.95 1783.22,759.998 1785.43,753.138 1787.64,746.369 1789.85,739.69 1792.05,733.099 1794.26,726.596 1796.47,720.179 1798.68,713.847 1800.88,707.599 1803.09,701.433 1805.3,695.35 1807.51,689.347 1809.71,683.423 1811.92,677.579 1814.13,671.811 1816.34,666.12 1818.54,660.505 1820.75,654.964 1822.96,649.497 1825.17,644.102 1827.37,638.778 1829.58,633.525 1831.79,628.342 1834,623.228 1836.2,618.181 1838.41,613.201 1840.62,608.288 1842.83,603.439 1845.03,598.655 1847.24,593.934 1849.45,589.276 1851.66,584.679 1853.86,580.143 1856.07,575.657 1858.28,571.206 1860.49,566.797 1862.69,562.435 1864.9,558.125 1867.11,553.871 1869.32,549.677 1871.52,545.548 1873.73,541.485 1875.94,537.493 1878.15,533.573 1880.35,529.727 1882.56,525.956 1884.77,522.262 1886.98,518.645 1889.18,515.105 1891.39,511.643 1893.6,508.256 1895.81,504.945 1898.01,501.707 1900.22,498.54 1902.43,495.442 1904.64,492.411 1906.84,489.442 1909.05,486.531 1911.26,483.676 1913.47,480.87 1915.67,478.109 1917.88,475.388 1920.09,472.7 1922.3,470.039 1924.5,467.398 1926.71,464.787 1928.92,462.21 1931.13,459.668 1933.33,457.159 1935.54,454.683 1937.75,452.241 1939.96,449.83 1942.16,447.452 1944.37,445.105 1946.58,442.79 1948.79,440.505 1950.99,438.25 1953.2,436.025 1955.41,433.83 1957.62,431.664 1959.82,429.526 1962.03,427.417 1964.24,425.336 1966.45,423.282 1968.65,421.256 1970.86,419.256 1973.07,417.283 1975.28,415.336 1977.48,413.415 1979.69,411.519 1981.9,409.649 1984.11,407.803 1986.31,405.981 1988.52,404.184 1990.73,402.41 1992.94,400.66 1995.14,398.933 1997.35,397.229 1999.56,395.548 2001.77,393.888 2003.97,392.251 2006.18,390.636 2008.39,389.042 2010.6,387.47 2012.8,385.918 2015.01,384.387 2017.22,382.876 2019.43,381.385 2021.63,379.914 2023.84,378.463 2026.05,377.031 2028.26,375.618 2030.46,374.224 2032.67,372.848 2034.88,371.491 2037.09,370.151 2039.29,368.83 2041.5,367.526 2043.71,366.239 2045.92,364.969 2048.12,363.716 2050.33,362.48 2052.54,361.26 2054.75,360.056 2056.95,358.869 2059.16,357.697 2061.37,356.54 2063.58,355.399 2065.78,354.273 2067.99,353.161 2070.2,352.065 2072.41,350.983 2074.61,349.915 2076.82,348.862 2079.03,347.822 2081.24,346.796 2083.44,345.784 2085.65,344.785 2087.86,343.799 2090.07,342.826 2092.27,341.867 2094.48,340.92 2096.69,339.985 2098.9,339.063 2101.1,338.154 2103.31,337.256 2105.52,336.37 2107.73,335.496 2109.93,334.645 2112.14,333.969 2114.35,333.461 2116.55,333.055 2118.76,332.69 2120.97,332.311 2123.18,331.869 2125.38,331.322 2127.59,330.633 2129.8,329.773 2132.01,328.717 2134.21,327.446 2136.42,325.949 2138.63,324.22 2140.84,322.259 2143.04,320.073 2145.25,317.673 2147.46,315.079 2149.67,312.315 2151.87,309.411 2154.08,306.404 2156.29,303.338 2158.5,300.262 2160.7,297.229 2162.91,294.303 2165.12,291.525 2167.33,288.803 2169.53,286.116 2171.74,283.466 2173.95,280.85 2176.16,278.269 2178.36,275.723 2180.57,273.21 2182.78,270.73 2184.99,268.284 2187.19,265.869 2189.4,263.487 2191.61,261.136 2193.82,258.817 2196.02,256.527 2198.23,254.269 2200.44,252.04 2202.65,249.841 2204.85,247.67 2207.06,245.529 2209.27,243.416 2211.48,241.331 2213.68,239.274 2215.89,237.244 2218.1,235.241 2220.31,233.264 2222.51,231.314 2224.72,229.39 2226.93,227.491 2229.14,225.618 2231.34,223.769 2233.55,221.945 2235.76,220.145 2237.97,218.369 2240.17,216.617 2242.38,214.888 2244.59,213.182 2246.8,211.498 2249,209.837 2251.21,208.198 2253.42,206.581 2255.63,204.985 2257.83,203.41 2260.04,201.856 2262.25,200.323 2264.46,198.81 2266.66,197.317 2268.87,195.844 2271.08,194.391 2273.29,192.956 2275.49,191.541 2277.7,190.144 2279.91,188.766 2282.12,187.406 2284.32,186.064 2286.53,184.74 2288.74,183.434 2290.95,182.144 2293.15,180.872 2295.36,179.617 2297.57,178.378 2299.78,177.156 2301.98,175.949 2304.19,174.759 2306.4,173.585 2308.61,172.426 2310.81,171.283 2313.02,170.155 2315.23,169.041 2317.44,167.943 2319.64,166.859 2321.85,165.789 2324.06,164.734 2326.27,163.693 2328.47,162.665 2330.68,161.651 2332.89,160.651 2335.1,159.663 2337.3,158.689 2339.51,157.728 2341.72,156.78 2343.93,155.844 2346.13,154.92 2348.34,154.009 2350.55,153.11 2352.76,152.222 "/>
<polyline clip-path="url(#clip362)" style="stroke:#e26f46; stroke-linecap:round; stroke-linejoin:round; stroke-width:4; stroke-opacity:1; fill:none" points="147.478,1266.15 149.685,1266.15 151.893,1266.15 154.1,1266.15 156.308,1266.15 158.515,1266.15 160.723,1266.15 162.93,1266.15 165.138,1266.15 167.345,1266.15 169.553,1266.15 171.76,1266.15 173.968,1266.15 176.175,1266.15 178.383,1266.15 180.59,1266.15 182.798,1266.15 185.005,1266.15 187.213,1266.15 189.42,1266.15 191.628,1266.15 193.835,1266.15 196.043,1266.15 198.25,1266.15 200.458,1266.15 202.665,1266.15 204.873,1266.15 207.08,1266.15 209.288,1266.15 211.495,1266.15 213.702,1266.15 215.91,1266.15 218.117,1266.15 220.325,1266.15 222.532,1266.15 224.74,1266.15 226.947,1266.15 229.155,1266.15 231.362,1266.15 233.57,1266.15 235.777,1266.15 237.985,1266.15 240.192,1266.15 242.4,1266.15 244.607,1266.15 246.815,1266.15 249.022,1266.15 251.23,1266.15 253.437,1266.15 255.645,1266.15 257.852,1266.15 260.06,1266.15 262.267,1266.15 264.475,1266.15 266.682,1266.15 268.89,1266.15 271.097,1266.15 273.305,1266.15 275.512,1266.15 277.72,1266.15 279.927,1266.15 282.135,1266.15 284.342,1266.15 286.549,1266.15 288.757,1266.15 290.964,1266.15 293.172,1266.15 295.379,1266.15 297.587,1266.15 299.794,1266.15 302.002,1266.15 304.209,1266.15 306.417,1266.15 308.624,1266.15 310.832,1266.15 313.039,1266.15 315.247,1266.15 317.454,1266.15 319.662,1266.15 321.869,1266.15 324.077,1266.15 326.284,1266.15 328.492,1266.15 330.699,1266.15 332.907,1266.15 335.114,1266.15 337.322,1266.15 339.529,1266.15 341.737,1266.15 343.944,1266.15 346.152,1266.15 348.359,1266.15 350.567,1266.15 352.774,1266.15 354.982,1266.15 357.189,1266.15 359.397,1266.15 361.604,1266.15 363.811,1266.15 366.019,1266.15 368.226,443.822 370.434,443.822 372.641,443.822 374.849,443.822 377.056,443.822 379.264,443.822 381.471,443.822 383.679,443.822 385.886,443.822 388.094,443.822 390.301,443.822 392.509,443.822 394.716,443.822 396.924,443.822 399.131,443.822 401.339,443.822 403.546,443.822 405.754,443.822 407.961,443.822 410.169,443.822 412.376,443.822 414.584,443.822 416.791,443.822 418.999,443.822 421.206,443.822 423.414,443.822 425.621,443.822 427.829,443.822 430.036,443.822 432.244,443.822 434.451,443.822 436.659,443.822 438.866,443.822 441.073,443.822 443.281,443.822 445.488,443.822 447.696,443.822 449.903,443.822 452.111,443.822 454.318,443.822 456.526,443.822 458.733,443.822 460.941,443.822 463.148,443.822 465.356,443.822 467.563,443.822 469.771,443.822 471.978,443.822 474.186,443.822 476.393,443.822 478.601,443.822 480.808,443.822 483.016,443.822 485.223,443.822 487.431,443.822 489.638,443.822 491.846,443.822 494.053,443.822 496.261,443.822 498.468,443.822 500.676,443.822 502.883,443.822 505.091,443.822 507.298,443.822 509.506,443.822 511.713,443.822 513.921,443.822 516.128,443.822 518.335,443.822 520.543,443.822 522.75,443.822 524.958,443.822 527.165,443.822 529.373,443.822 531.58,443.822 533.788,443.822 535.995,443.822 538.203,443.822 540.41,443.822 542.618,443.822 544.825,443.822 547.033,443.822 549.24,443.822 551.448,443.822 553.655,443.822 555.863,443.822 558.07,443.822 560.278,443.822 562.485,443.822 564.693,443.822 566.9,443.822 569.108,443.822 571.315,443.822 573.523,443.822 575.73,443.822 577.938,443.822 580.145,443.822 582.353,443.822 584.56,443.822 586.768,443.822 588.975,612.976 591.182,612.976 593.39,612.976 595.597,612.976 597.805,612.976 600.012,612.976 602.22,612.976 604.427,612.976 606.635,612.976 608.842,612.976 611.05,612.976 613.257,612.976 615.465,612.976 617.672,612.976 619.88,612.976 622.087,612.976 624.295,612.976 626.502,612.976 628.71,612.976 630.917,612.976 633.125,612.976 635.332,612.976 637.54,612.976 639.747,612.976 641.955,612.976 644.162,612.976 646.37,612.976 648.577,612.976 650.785,612.976 652.992,612.976 655.2,612.976 657.407,612.976 659.615,612.976 661.822,612.976 664.03,612.976 666.237,612.976 668.444,612.976 670.652,612.976 672.859,612.976 675.067,612.976 677.274,612.976 679.482,612.976 681.689,612.976 683.897,612.976 686.104,612.976 688.312,612.976 690.519,612.976 692.727,612.976 694.934,612.976 697.142,612.976 699.349,612.976 701.557,612.976 703.764,612.976 705.972,612.976 708.179,612.976 710.387,612.976 712.594,612.976 714.802,612.976 717.009,612.976 719.217,612.976 721.424,612.976 723.632,612.976 725.839,612.976 728.047,612.976 730.254,612.976 732.462,612.976 734.669,612.976 736.877,612.976 739.084,612.976 741.292,612.976 743.499,612.976 745.706,612.976 747.914,612.976 750.121,612.976 752.329,612.976 754.536,612.976 756.744,612.976 758.951,612.976 761.159,612.976 763.366,612.976 765.574,612.976 767.781,612.976 769.989,612.976 772.196,612.976 774.404,612.976 776.611,612.976 778.819,612.976 781.026,612.976 783.234,612.976 785.441,612.976 787.649,612.976 789.856,612.976 792.064,612.976 794.271,612.976 796.479,612.976 798.686,612.976 800.894,612.976 803.101,612.976 805.309,612.976 807.516,612.976 809.724,663.283 811.931,663.283 814.139,663.283 816.346,663.283 818.553,663.283 820.761,663.283 822.968,663.283 825.176,663.283 827.383,663.283 829.591,663.283 831.798,663.283 834.006,663.283 836.213,663.283 838.421,663.283 840.628,663.283 842.836,663.283 845.043,663.283 847.251,663.283 849.458,663.283 851.666,663.283 853.873,663.283 856.081,663.283 858.288,663.283 860.496,663.283 862.703,663.283 864.911,663.283 867.118,663.283 869.326,663.283 871.533,663.283 873.741,663.283 875.948,663.283 878.156,663.283 880.363,663.283 882.571,663.283 884.778,663.283 886.986,663.283 889.193,663.283 891.401,663.283 893.608,663.283 895.815,663.283 898.023,663.283 900.23,663.283 902.438,663.283 904.645,663.283 906.853,663.283 909.06,663.283 911.268,663.283 913.475,663.283 915.683,663.283 917.89,663.283 920.098,663.283 922.305,663.283 924.513,663.283 926.72,663.283 928.928,663.283 931.135,663.283 933.343,663.283 935.55,663.283 937.758,663.283 939.965,663.283 942.173,663.283 944.38,663.283 946.588,663.283 948.795,663.283 951.003,663.283 953.21,663.283 955.418,663.283 957.625,663.283 959.833,663.283 962.04,663.283 964.248,663.283 966.455,663.283 968.663,663.283 970.87,663.283 973.077,663.283 975.285,663.283 977.492,663.283 979.7,663.283 981.907,663.283 984.115,663.283 986.322,663.283 988.53,663.283 990.737,663.283 992.945,663.283 995.152,663.283 997.36,663.283 999.567,663.283 1001.77,663.283 1003.98,663.283 1006.19,663.283 1008.4,663.283 1010.6,663.283 1012.81,663.283 1015.02,663.283 1017.23,663.283 1019.43,663.283 1021.64,663.283 1023.85,663.283 1026.06,663.283 1028.26,663.283 1030.47,203.125 1032.68,203.125 1034.89,203.125 1037.09,203.125 1039.3,203.125 1041.51,203.125 1043.72,203.125 1045.92,203.125 1048.13,203.125 1050.34,203.125 1052.55,203.125 1054.75,203.125 1056.96,203.125 1059.17,203.125 1061.38,203.125 1063.58,203.125 1065.79,203.125 1068,203.125 1070.21,203.125 1072.41,203.125 1074.62,203.125 1076.83,203.125 1079.04,203.125 1081.24,203.125 1083.45,203.125 1085.66,203.125 1087.87,203.125 1090.07,203.125 1092.28,203.125 1094.49,203.125 1096.7,203.125 1098.9,203.125 1101.11,203.125 1103.32,203.125 1105.53,203.125 1107.73,203.125 1109.94,203.125 1112.15,203.125 1114.36,203.125 1116.56,203.125 1118.77,203.125 1120.98,203.125 1123.19,203.125 1125.39,203.125 1127.6,203.125 1129.81,203.125 1132.02,203.125 1134.22,203.125 1136.43,203.125 1138.64,203.125 1140.85,203.125 1143.05,203.125 1145.26,203.125 1147.47,203.125 1149.68,203.125 1151.88,203.125 1154.09,203.125 1156.3,203.125 1158.51,203.125 1160.71,203.125 1162.92,203.125 1165.13,203.125 1167.34,203.125 1169.54,203.125 1171.75,203.125 1173.96,203.125 1176.17,203.125 1178.37,203.125 1180.58,203.125 1182.79,203.125 1185,203.125 1187.2,203.125 1189.41,203.125 1191.62,203.125 1193.83,203.125 1196.03,203.125 1198.24,203.125 1200.45,203.125 1202.66,203.125 1204.86,203.125 1207.07,203.125 1209.28,203.125 1211.49,203.125 1213.69,203.125 1215.9,203.125 1218.11,203.125 1220.32,203.125 1222.52,203.125 1224.73,203.125 1226.94,203.125 1229.15,203.125 1231.35,203.125 1233.56,203.125 1235.77,203.125 1237.98,203.125 1240.18,203.125 1242.39,203.125 1244.6,203.125 1246.81,203.125 1249.01,203.125 1251.22,688.304 1253.43,688.304 1255.64,688.304 1257.84,688.304 1260.05,688.304 1262.26,688.304 1264.47,688.304 1266.67,688.304 1268.88,688.304 1271.09,688.304 1273.3,688.304 1275.5,688.304 1277.71,688.304 1279.92,688.304 1282.13,688.304 1284.33,688.304 1286.54,688.304 1288.75,688.304 1290.96,688.304 1293.16,688.304 1295.37,688.304 1297.58,688.304 1299.79,688.304 1301.99,688.304 1304.2,688.304 1306.41,688.304 1308.62,688.304 1310.82,688.304 1313.03,688.304 1315.24,688.304 1317.45,688.304 1319.65,688.304 1321.86,688.304 1324.07,688.304 1326.28,688.304 1328.48,688.304 1330.69,688.304 1332.9,688.304 1335.11,688.304 1337.31,688.304 1339.52,688.304 1341.73,688.304 1343.94,688.304 1346.14,688.304 1348.35,688.304 1350.56,688.304 1352.76,688.304 1354.97,688.304 1357.18,688.304 1359.39,688.304 1361.59,688.304 1363.8,688.304 1366.01,688.304 1368.22,688.304 1370.42,688.304 1372.63,688.304 1374.84,688.304 1377.05,688.304 1379.25,688.304 1381.46,688.304 1383.67,688.304 1385.88,688.304 1388.08,688.304 1390.29,688.304 1392.5,688.304 1394.71,688.304 1396.91,688.304 1399.12,688.304 1401.33,688.304 1403.54,688.304 1405.74,688.304 1407.95,688.304 1410.16,688.304 1412.37,688.304 1414.57,688.304 1416.78,688.304 1418.99,688.304 1421.2,688.304 1423.4,688.304 1425.61,688.304 1427.82,688.304 1430.03,688.304 1432.23,688.304 1434.44,688.304 1436.65,688.304 1438.86,688.304 1441.06,688.304 1443.27,688.304 1445.48,688.304 1447.69,688.304 1449.89,688.304 1452.1,688.304 1454.31,688.304 1456.52,688.304 1458.72,688.304 1460.93,688.304 1463.14,688.304 1465.35,688.304 1467.55,688.304 1469.76,688.304 1471.97,1384.24 1474.18,1384.24 1476.38,1384.24 1478.59,1384.24 1480.8,1384.24 1483.01,1384.24 1485.21,1384.24 1487.42,1384.24 1489.63,1384.24 1491.84,1384.24 1494.04,1384.24 1496.25,1384.24 1498.46,1384.24 1500.67,1384.24 1502.87,1384.24 1505.08,1384.24 1507.29,1384.24 1509.5,1384.24 1511.7,1384.24 1513.91,1384.24 1516.12,1384.24 1518.33,1384.24 1520.53,1384.24 1522.74,1384.24 1524.95,1384.24 1527.16,1384.24 1529.36,1384.24 1531.57,1384.24 1533.78,1384.24 1535.99,1384.24 1538.19,1384.24 1540.4,1384.24 1542.61,1384.24 1544.82,1384.24 1547.02,1384.24 1549.23,1384.24 1551.44,1384.24 1553.65,1384.24 1555.85,1384.24 1558.06,1384.24 1560.27,1384.24 1562.48,1384.24 1564.68,1384.24 1566.89,1384.24 1569.1,1384.24 1571.31,1384.24 1573.51,1384.24 1575.72,1384.24 1577.93,1384.24 1580.14,1384.24 1582.34,1384.24 1584.55,1384.24 1586.76,1384.24 1588.97,1384.24 1591.17,1384.24 1593.38,1384.24 1595.59,1384.24 1597.8,1384.24 1600,1384.24 1602.21,1384.24 1604.42,1384.24 1606.63,1384.24 1608.83,1384.24 1611.04,1384.24 1613.25,1384.24 1615.46,1384.24 1617.66,1384.24 1619.87,1384.24 1622.08,1384.24 1624.29,1384.24 1626.49,1384.24 1628.7,1384.24 1630.91,1384.24 1633.12,1384.24 1635.32,1384.24 1637.53,1384.24 1639.74,1384.24 1641.95,1384.24 1644.15,1384.24 1646.36,1384.24 1648.57,1384.24 1650.78,1384.24 1652.98,1384.24 1655.19,1384.24 1657.4,1384.24 1659.61,1384.24 1661.81,1384.24 1664.02,1384.24 1666.23,1384.24 1668.44,1384.24 1670.64,1384.24 1672.85,1384.24 1675.06,1384.24 1677.27,1384.24 1679.47,1384.24 1681.68,1384.24 1683.89,1384.24 1686.1,1384.24 1688.3,1384.24 1690.51,1384.24 1692.72,242.574 1694.93,242.574 1697.13,242.574 1699.34,242.574 1701.55,242.574 1703.76,242.574 1705.96,242.574 1708.17,242.574 1710.38,242.574 1712.59,242.574 1714.79,242.574 1717,242.574 1719.21,242.574 1721.42,242.574 1723.62,242.574 1725.83,242.574 1728.04,242.574 1730.25,242.574 1732.45,242.574 1734.66,242.574 1736.87,242.574 1739.07,242.574 1741.28,242.574 1743.49,242.574 1745.7,242.574 1747.9,242.574 1750.11,242.574 1752.32,242.574 1754.53,242.574 1756.73,242.574 1758.94,242.574 1761.15,242.574 1763.36,242.574 1765.56,242.574 1767.77,242.574 1769.98,242.574 1772.19,242.574 1774.39,242.574 1776.6,242.574 1778.81,242.574 1781.02,242.574 1783.22,242.574 1785.43,242.574 1787.64,242.574 1789.85,242.574 1792.05,242.574 1794.26,242.574 1796.47,242.574 1798.68,242.574 1800.88,242.574 1803.09,242.574 1805.3,242.574 1807.51,242.574 1809.71,242.574 1811.92,242.574 1814.13,242.574 1816.34,242.574 1818.54,242.574 1820.75,242.574 1822.96,242.574 1825.17,242.574 1827.37,242.574 1829.58,242.574 1831.79,242.574 1834,242.574 1836.2,242.574 1838.41,242.574 1840.62,242.574 1842.83,242.574 1845.03,242.574 1847.24,242.574 1849.45,242.574 1851.66,242.574 1853.86,242.574 1856.07,242.574 1858.28,242.574 1860.49,242.574 1862.69,242.574 1864.9,242.574 1867.11,242.574 1869.32,242.574 1871.52,242.574 1873.73,242.574 1875.94,242.574 1878.15,242.574 1880.35,242.574 1882.56,242.574 1884.77,242.574 1886.98,242.574 1889.18,242.574 1891.39,242.574 1893.6,242.574 1895.81,242.574 1898.01,242.574 1900.22,242.574 1902.43,242.574 1904.64,242.574 1906.84,242.574 1909.05,242.574 1911.26,242.574 1913.47,270.441 1915.67,270.441 1917.88,270.441 1920.09,270.441 1922.3,270.441 1924.5,270.441 1926.71,270.441 1928.92,270.441 1931.13,270.441 1933.33,270.441 1935.54,270.441 1937.75,270.441 1939.96,270.441 1942.16,270.441 1944.37,270.441 1946.58,270.441 1948.79,270.441 1950.99,270.441 1953.2,270.441 1955.41,270.441 1957.62,270.441 1959.82,270.441 1962.03,270.441 1964.24,270.441 1966.45,270.441 1968.65,270.441 1970.86,270.441 1973.07,270.441 1975.28,270.441 1977.48,270.441 1979.69,270.441 1981.9,270.441 1984.11,270.441 1986.31,270.441 1988.52,270.441 1990.73,270.441 1992.94,270.441 1995.14,270.441 1997.35,270.441 1999.56,270.441 2001.77,270.441 2003.97,270.441 2006.18,270.441 2008.39,270.441 2010.6,270.441 2012.8,270.441 2015.01,270.441 2017.22,270.441 2019.43,270.441 2021.63,270.441 2023.84,270.441 2026.05,270.441 2028.26,270.441 2030.46,270.441 2032.67,270.441 2034.88,270.441 2037.09,270.441 2039.29,270.441 2041.5,270.441 2043.71,270.441 2045.92,270.441 2048.12,270.441 2050.33,270.441 2052.54,270.441 2054.75,270.441 2056.95,270.441 2059.16,270.441 2061.37,270.441 2063.58,270.441 2065.78,270.441 2067.99,270.441 2070.2,270.441 2072.41,270.441 2074.61,270.441 2076.82,270.441 2079.03,270.441 2081.24,270.441 2083.44,270.441 2085.65,270.441 2087.86,270.441 2090.07,270.441 2092.27,270.441 2094.48,270.441 2096.69,270.441 2098.9,270.441 2101.1,270.441 2103.31,270.441 2105.52,270.441 2107.73,270.441 2109.93,270.441 2112.14,270.441 2114.35,270.441 2116.55,270.441 2118.76,270.441 2120.97,270.441 2123.18,270.441 2125.38,270.441 2127.59,270.441 2129.8,270.441 2132.01,270.441 2134.21,86.1857 2136.42,86.1857 2138.63,86.1857 2140.84,86.1857 2143.04,86.1857 2145.25,86.1857 2147.46,86.1857 2149.67,86.1857 2151.87,86.1857 2154.08,86.1857 2156.29,86.1857 2158.5,86.1857 2160.7,86.1857 2162.91,86.1857 2165.12,86.1857 2167.33,86.1857 2169.53,86.1857 2171.74,86.1857 2173.95,86.1857 2176.16,86.1857 2178.36,86.1857 2180.57,86.1857 2182.78,86.1857 2184.99,86.1857 2187.19,86.1857 2189.4,86.1857 2191.61,86.1857 2193.82,86.1857 2196.02,86.1857 2198.23,86.1857 2200.44,86.1857 2202.65,86.1857 2204.85,86.1857 2207.06,86.1857 2209.27,86.1857 2211.48,86.1857 2213.68,86.1857 2215.89,86.1857 2218.1,86.1857 2220.31,86.1857 2222.51,86.1857 2224.72,86.1857 2226.93,86.1857 2229.14,86.1857 2231.34,86.1857 2233.55,86.1857 2235.76,86.1857 2237.97,86.1857 2240.17,86.1857 2242.38,86.1857 2244.59,86.1857 2246.8,86.1857 2249,86.1857 2251.21,86.1857 2253.42,86.1857 2255.63,86.1857 2257.83,86.1857 2260.04,86.1857 2262.25,86.1857 2264.46,86.1857 2266.66,86.1857 2268.87,86.1857 2271.08,86.1857 2273.29,86.1857 2275.49,86.1857 2277.7,86.1857 2279.91,86.1857 2282.12,86.1857 2284.32,86.1857 2286.53,86.1857 2288.74,86.1857 2290.95,86.1857 2293.15,86.1857 2295.36,86.1857 2297.57,86.1857 2299.78,86.1857 2301.98,86.1857 2304.19,86.1857 2306.4,86.1857 2308.61,86.1857 2310.81,86.1857 2313.02,86.1857 2315.23,86.1857 2317.44,86.1857 2319.64,86.1857 2321.85,86.1857 2324.06,86.1857 2326.27,86.1857 2328.47,86.1857 2330.68,86.1857 2332.89,86.1857 2335.1,86.1857 2337.3,86.1857 2339.51,86.1857 2341.72,86.1857 2343.93,86.1857 2346.13,86.1857 2348.34,86.1857 2350.55,86.1857 2352.76,86.1857 "/>
<path clip-path="url(#clip360)" d="M220.987 248.629 L466.654 248.629 L466.654 93.1086 L220.987 93.1086  Z" fill="#ffffff" fill-rule="evenodd" fill-opacity="1"/>
<polyline clip-path="url(#clip360)" style="stroke:#000000; stroke-linecap:round; stroke-linejoin:round; stroke-width:4; stroke-opacity:1; fill:none" points="220.987,248.629 466.654,248.629 466.654,93.1086 220.987,93.1086 220.987,248.629 "/>
<polyline clip-path="url(#clip360)" style="stroke:#009af9; stroke-linecap:round; stroke-linejoin:round; stroke-width:4; stroke-opacity:1; fill:none" points="245.49,144.949 392.509,144.949 "/>
<path clip-path="url(#clip360)" d="M441.665 136.303 L432.29 148.919 L442.151 162.229 L437.128 162.229 L429.581 152.043 L422.035 162.229 L417.012 162.229 L427.081 148.664 L417.868 136.303 L422.891 136.303 L429.766 145.539 L436.641 136.303 L441.665 136.303 Z" fill="#000000" fill-rule="nonzero" fill-opacity="1" /><polyline clip-path="url(#clip360)" style="stroke:#e26f46; stroke-linecap:round; stroke-linejoin:round; stroke-width:4; stroke-opacity:1; fill:none" points="245.49,196.789 392.509,196.789 "/>
<path clip-path="url(#clip360)" d="M433.516 178.05 L433.516 181.592 L429.442 181.592 Q427.151 181.592 426.248 182.518 Q425.368 183.444 425.368 185.851 L425.368 188.143 L432.382 188.143 L432.382 191.453 L425.368 191.453 L425.368 214.069 L421.086 214.069 L421.086 191.453 L417.012 191.453 L417.012 188.143 L421.086 188.143 L421.086 186.337 Q421.086 182.009 423.1 180.041 Q425.114 178.05 429.489 178.05 L433.516 178.05 Z" fill="#000000" fill-rule="nonzero" fill-opacity="1" /></svg>
