<?xml version="1.0" encoding="utf-8"?>
<svg xmlns="http://www.w3.org/2000/svg" xmlns:xlink="http://www.w3.org/1999/xlink" width="600" height="400" viewBox="0 0 2400 1600">
<defs>
  <clipPath id="clip660">
    <rect x="0" y="0" width="2400" height="1600"/>
  </clipPath>
</defs>
<path clip-path="url(#clip660)" d="M0 1600 L2400 1600 L2400 0 L0 0  Z" fill="#ffffff" fill-rule="evenodd" fill-opacity="1"/>
<defs>
  <clipPath id="clip661">
    <rect x="480" y="0" width="1681" height="1600"/>
  </clipPath>
</defs>
<path clip-path="url(#clip660)" d="M193.936 1423.18 L2352.76 1423.18 L2352.76 47.2441 L193.936 47.2441  Z" fill="#ffffff" fill-rule="evenodd" fill-opacity="1"/>
<defs>
  <clipPath id="clip662">
    <rect x="193" y="47" width="2160" height="1377"/>
  </clipPath>
</defs>
<polyline clip-path="url(#clip662)" style="stroke:#000000; stroke-linecap:round; stroke-linejoin:round; stroke-width:2; stroke-opacity:0.1; fill:none" points="193.936,1423.18 193.936,47.2441 "/>
<polyline clip-path="url(#clip662)" style="stroke:#000000; stroke-linecap:round; stroke-linejoin:round; stroke-width:2; stroke-opacity:0.1; fill:none" points="625.7,1423.18 625.7,47.2441 "/>
<polyline clip-path="url(#clip662)" style="stroke:#000000; stroke-linecap:round; stroke-linejoin:round; stroke-width:2; stroke-opacity:0.1; fill:none" points="1057.46,1423.18 1057.46,47.2441 "/>
<polyline clip-path="url(#clip662)" style="stroke:#000000; stroke-linecap:round; stroke-linejoin:round; stroke-width:2; stroke-opacity:0.1; fill:none" points="1489.23,1423.18 1489.23,47.2441 "/>
<polyline clip-path="url(#clip662)" style="stroke:#000000; stroke-linecap:round; stroke-linejoin:round; stroke-width:2; stroke-opacity:0.1; fill:none" points="1920.99,1423.18 1920.99,47.2441 "/>
<polyline clip-path="url(#clip662)" style="stroke:#000000; stroke-linecap:round; stroke-linejoin:round; stroke-width:2; stroke-opacity:0.1; fill:none" points="2352.76,1423.18 2352.76,47.2441 "/>
<polyline clip-path="url(#clip662)" style="stroke:#000000; stroke-linecap:round; stroke-linejoin:round; stroke-width:2; stroke-opacity:0.1; fill:none" points="193.936,1413.36 2352.76,1413.36 "/>
<polyline clip-path="url(#clip662)" style="stroke:#000000; stroke-linecap:round; stroke-linejoin:round; stroke-width:2; stroke-opacity:0.1; fill:none" points="193.936,1177.57 2352.76,1177.57 "/>
<polyline clip-path="url(#clip662)" style="stroke:#000000; stroke-linecap:round; stroke-linejoin:round; stroke-width:2; stroke-opacity:0.1; fill:none" points="193.936,941.776 2352.76,941.776 "/>
<polyline clip-path="url(#clip662)" style="stroke:#000000; stroke-linecap:round; stroke-linejoin:round; stroke-width:2; stroke-opacity:0.1; fill:none" points="193.936,705.986 2352.76,705.986 "/>
<polyline clip-path="url(#clip662)" style="stroke:#000000; stroke-linecap:round; stroke-linejoin:round; stroke-width:2; stroke-opacity:0.1; fill:none" points="193.936,470.195 2352.76,470.195 "/>
<polyline clip-path="url(#clip662)" style="stroke:#000000; stroke-linecap:round; stroke-linejoin:round; stroke-width:2; stroke-opacity:0.1; fill:none" points="193.936,234.404 2352.76,234.404 "/>
<polyline clip-path="url(#clip660)" style="stroke:#000000; stroke-linecap:round; stroke-linejoin:round; stroke-width:4; stroke-opacity:1; fill:none" points="193.936,1423.18 2352.76,1423.18 "/>
<polyline clip-path="url(#clip660)" style="stroke:#000000; stroke-linecap:round; stroke-linejoin:round; stroke-width:4; stroke-opacity:1; fill:none" points="193.936,1423.18 193.936,1404.28 "/>
<polyline clip-path="url(#clip660)" style="stroke:#000000; stroke-linecap:round; stroke-linejoin:round; stroke-width:4; stroke-opacity:1; fill:none" points="625.7,1423.18 625.7,1404.28 "/>
<polyline clip-path="url(#clip660)" style="stroke:#000000; stroke-linecap:round; stroke-linejoin:round; stroke-width:4; stroke-opacity:1; fill:none" points="1057.46,1423.18 1057.46,1404.28 "/>
<polyline clip-path="url(#clip660)" style="stroke:#000000; stroke-linecap:round; stroke-linejoin:round; stroke-width:4; stroke-opacity:1; fill:none" points="1489.23,1423.18 1489.23,1404.28 "/>
<polyline clip-path="url(#clip660)" style="stroke:#000000; stroke-linecap:round; stroke-linejoin:round; stroke-width:4; stroke-opacity:1; fill:none" points="1920.99,1423.18 1920.99,1404.28 "/>
<polyline clip-path="url(#clip660)" style="stroke:#000000; stroke-linecap:round; stroke-linejoin:round; stroke-width:4; stroke-opacity:1; fill:none" points="2352.76,1423.18 2352.76,1404.28 "/>
<path clip-path="url(#clip660)" d="M193.936 1454.1 Q190.325 1454.1 188.496 1457.66 Q186.691 1461.2 186.691 1468.33 Q186.691 1475.44 188.496 1479.01 Q190.325 1482.55 193.936 1482.55 Q197.57 1482.55 199.376 1479.01 Q201.204 1475.44 201.204 1468.33 Q201.204 1461.2 199.376 1457.66 Q197.57 1454.1 193.936 1454.1 M193.936 1450.39 Q199.746 1450.39 202.802 1455 Q205.88 1459.58 205.88 1468.33 Q205.88 1477.06 202.802 1481.67 Q199.746 1486.25 193.936 1486.25 Q188.126 1486.25 185.047 1481.67 Q181.992 1477.06 181.992 1468.33 Q181.992 1459.58 185.047 1455 Q188.126 1450.39 193.936 1450.39 Z" fill="#000000" fill-rule="nonzero" fill-opacity="1" /><path clip-path="url(#clip660)" d="M620.353 1481.64 L636.672 1481.64 L636.672 1485.58 L614.728 1485.58 L614.728 1481.64 Q617.39 1478.89 621.973 1474.26 Q626.58 1469.61 627.76 1468.27 Q630.006 1465.74 630.885 1464.01 Q631.788 1462.25 631.788 1460.56 Q631.788 1457.8 629.843 1456.07 Q627.922 1454.33 624.82 1454.33 Q622.621 1454.33 620.168 1455.09 Q617.737 1455.86 614.959 1457.41 L614.959 1452.69 Q617.783 1451.55 620.237 1450.97 Q622.691 1450.39 624.728 1450.39 Q630.098 1450.39 633.293 1453.08 Q636.487 1455.77 636.487 1460.26 Q636.487 1462.39 635.677 1464.31 Q634.89 1466.2 632.783 1468.8 Q632.205 1469.47 629.103 1472.69 Q626.001 1475.88 620.353 1481.64 Z" fill="#000000" fill-rule="nonzero" fill-opacity="1" /><path clip-path="url(#clip660)" d="M1060.47 1455.09 L1048.67 1473.54 L1060.47 1473.54 L1060.47 1455.09 M1059.25 1451.02 L1065.13 1451.02 L1065.13 1473.54 L1070.06 1473.54 L1070.06 1477.43 L1065.13 1477.43 L1065.13 1485.58 L1060.47 1485.58 L1060.47 1477.43 L1044.87 1477.43 L1044.87 1472.92 L1059.25 1451.02 Z" fill="#000000" fill-rule="nonzero" fill-opacity="1" /><path clip-path="url(#clip660)" d="M1489.63 1466.44 Q1486.48 1466.44 1484.63 1468.59 Q1482.8 1470.74 1482.8 1474.49 Q1482.8 1478.22 1484.63 1480.39 Q1486.48 1482.55 1489.63 1482.55 Q1492.78 1482.55 1494.61 1480.39 Q1496.46 1478.22 1496.46 1474.49 Q1496.46 1470.74 1494.61 1468.59 Q1492.78 1466.44 1489.63 1466.44 M1498.92 1451.78 L1498.92 1456.04 Q1497.16 1455.21 1495.35 1454.77 Q1493.57 1454.33 1491.81 1454.33 Q1487.18 1454.33 1484.73 1457.45 Q1482.3 1460.58 1481.95 1466.9 Q1483.31 1464.89 1485.37 1463.82 Q1487.43 1462.73 1489.91 1462.73 Q1495.12 1462.73 1498.13 1465.9 Q1501.16 1469.05 1501.16 1474.49 Q1501.16 1479.82 1498.01 1483.03 Q1494.86 1486.25 1489.63 1486.25 Q1483.64 1486.25 1480.47 1481.67 Q1477.3 1477.06 1477.3 1468.33 Q1477.3 1460.14 1481.18 1455.28 Q1485.07 1450.39 1491.62 1450.39 Q1493.38 1450.39 1495.17 1450.74 Q1496.97 1451.09 1498.92 1451.78 Z" fill="#000000" fill-rule="nonzero" fill-opacity="1" /><path clip-path="url(#clip660)" d="M1920.99 1469.17 Q1917.66 1469.17 1915.74 1470.95 Q1913.84 1472.73 1913.84 1475.86 Q1913.84 1478.98 1915.74 1480.77 Q1917.66 1482.55 1920.99 1482.55 Q1924.33 1482.55 1926.25 1480.77 Q1928.17 1478.96 1928.17 1475.86 Q1928.17 1472.73 1926.25 1470.95 Q1924.35 1469.17 1920.99 1469.17 M1916.32 1467.18 Q1913.31 1466.44 1911.62 1464.38 Q1909.95 1462.32 1909.95 1459.35 Q1909.95 1455.21 1912.89 1452.8 Q1915.85 1450.39 1920.99 1450.39 Q1926.15 1450.39 1929.09 1452.8 Q1932.03 1455.21 1932.03 1459.35 Q1932.03 1462.32 1930.34 1464.38 Q1928.68 1466.44 1925.69 1467.18 Q1929.07 1467.96 1930.95 1470.26 Q1932.84 1472.55 1932.84 1475.86 Q1932.84 1480.88 1929.77 1483.57 Q1926.71 1486.25 1920.99 1486.25 Q1915.27 1486.25 1912.2 1483.57 Q1909.14 1480.88 1909.14 1475.86 Q1909.14 1472.55 1911.04 1470.26 Q1912.94 1467.96 1916.32 1467.18 M1914.6 1459.79 Q1914.6 1462.48 1916.27 1463.98 Q1917.96 1465.49 1920.99 1465.49 Q1924 1465.49 1925.69 1463.98 Q1927.4 1462.48 1927.4 1459.79 Q1927.4 1457.11 1925.69 1455.6 Q1924 1454.1 1920.99 1454.1 Q1917.96 1454.1 1916.27 1455.6 Q1914.6 1457.11 1914.6 1459.79 Z" fill="#000000" fill-rule="nonzero" fill-opacity="1" /><path clip-path="url(#clip660)" d="M2327.44 1481.64 L2335.08 1481.64 L2335.08 1455.28 L2326.77 1456.95 L2326.77 1452.69 L2335.04 1451.02 L2339.71 1451.02 L2339.71 1481.64 L2347.35 1481.64 L2347.35 1485.58 L2327.44 1485.58 L2327.44 1481.64 Z" fill="#000000" fill-rule="nonzero" fill-opacity="1" /><path clip-path="url(#clip660)" d="M2366.8 1454.1 Q2363.18 1454.1 2361.36 1457.66 Q2359.55 1461.2 2359.55 1468.33 Q2359.55 1475.44 2361.36 1479.01 Q2363.18 1482.55 2366.8 1482.55 Q2370.43 1482.55 2372.23 1479.01 Q2374.06 1475.44 2374.06 1468.33 Q2374.06 1461.2 2372.23 1457.66 Q2370.43 1454.1 2366.8 1454.1 M2366.8 1450.39 Q2372.61 1450.39 2375.66 1455 Q2378.74 1459.58 2378.74 1468.33 Q2378.74 1477.06 2375.66 1481.67 Q2372.61 1486.25 2366.8 1486.25 Q2360.99 1486.25 2357.91 1481.67 Q2354.85 1477.06 2354.85 1468.33 Q2354.85 1459.58 2357.91 1455 Q2360.99 1450.39 2366.8 1450.39 Z" fill="#000000" fill-rule="nonzero" fill-opacity="1" /><path clip-path="url(#clip660)" d="M1272.41 1522.27 L1272.41 1532.4 L1284.47 1532.4 L1284.47 1536.95 L1272.41 1536.95 L1272.41 1556.3 Q1272.41 1560.66 1273.58 1561.9 Q1274.79 1563.14 1278.45 1563.14 L1284.47 1563.14 L1284.47 1568.04 L1278.45 1568.04 Q1271.67 1568.04 1269.1 1565.53 Q1266.52 1562.98 1266.52 1556.3 L1266.52 1536.95 L1262.22 1536.95 L1262.22 1532.4 L1266.52 1532.4 L1266.52 1522.27 L1272.41 1522.27 Z" fill="#000000" fill-rule="nonzero" fill-opacity="1" /><polyline clip-path="url(#clip660)" style="stroke:#000000; stroke-linecap:round; stroke-linejoin:round; stroke-width:4; stroke-opacity:1; fill:none" points="193.936,1423.18 193.936,47.2441 "/>
<polyline clip-path="url(#clip660)" style="stroke:#000000; stroke-linecap:round; stroke-linejoin:round; stroke-width:4; stroke-opacity:1; fill:none" points="193.936,1413.36 212.834,1413.36 "/>
<polyline clip-path="url(#clip660)" style="stroke:#000000; stroke-linecap:round; stroke-linejoin:round; stroke-width:4; stroke-opacity:1; fill:none" points="193.936,1177.57 212.834,1177.57 "/>
<polyline clip-path="url(#clip660)" style="stroke:#000000; stroke-linecap:round; stroke-linejoin:round; stroke-width:4; stroke-opacity:1; fill:none" points="193.936,941.776 212.834,941.776 "/>
<polyline clip-path="url(#clip660)" style="stroke:#000000; stroke-linecap:round; stroke-linejoin:round; stroke-width:4; stroke-opacity:1; fill:none" points="193.936,705.986 212.834,705.986 "/>
<polyline clip-path="url(#clip660)" style="stroke:#000000; stroke-linecap:round; stroke-linejoin:round; stroke-width:4; stroke-opacity:1; fill:none" points="193.936,470.195 212.834,470.195 "/>
<polyline clip-path="url(#clip660)" style="stroke:#000000; stroke-linecap:round; stroke-linejoin:round; stroke-width:4; stroke-opacity:1; fill:none" points="193.936,234.404 212.834,234.404 "/>
<path clip-path="url(#clip660)" d="M51.9875 1413.81 L81.6633 1413.81 L81.6633 1417.74 L51.9875 1417.74 L51.9875 1413.81 Z" fill="#000000" fill-rule="nonzero" fill-opacity="1" /><path clip-path="url(#clip660)" d="M92.566 1426.7 L100.205 1426.7 L100.205 1400.34 L91.8947 1402 L91.8947 1397.74 L100.159 1396.08 L104.834 1396.08 L104.834 1426.7 L112.473 1426.7 L112.473 1430.64 L92.566 1430.64 L92.566 1426.7 Z" fill="#000000" fill-rule="nonzero" fill-opacity="1" /><path clip-path="url(#clip660)" d="M121.918 1424.76 L126.802 1424.76 L126.802 1430.64 L121.918 1430.64 L121.918 1424.76 Z" fill="#000000" fill-rule="nonzero" fill-opacity="1" /><path clip-path="url(#clip660)" d="M137.033 1396.08 L155.39 1396.08 L155.39 1400.01 L141.316 1400.01 L141.316 1408.49 Q142.334 1408.14 143.353 1407.98 Q144.371 1407.79 145.39 1407.79 Q151.177 1407.79 154.556 1410.96 Q157.936 1414.13 157.936 1419.55 Q157.936 1425.13 154.464 1428.23 Q150.992 1431.31 144.672 1431.31 Q142.496 1431.31 140.228 1430.94 Q137.982 1430.57 135.575 1429.83 L135.575 1425.13 Q137.658 1426.26 139.881 1426.82 Q142.103 1427.37 144.58 1427.37 Q148.584 1427.37 150.922 1425.27 Q153.26 1423.16 153.26 1419.55 Q153.26 1415.94 150.922 1413.83 Q148.584 1411.73 144.58 1411.73 Q142.705 1411.73 140.83 1412.14 Q138.978 1412.56 137.033 1413.44 L137.033 1396.08 Z" fill="#000000" fill-rule="nonzero" fill-opacity="1" /><path clip-path="url(#clip660)" d="M50.9921 1178.02 L80.6679 1178.02 L80.6679 1181.95 L50.9921 1181.95 L50.9921 1178.02 Z" fill="#000000" fill-rule="nonzero" fill-opacity="1" /><path clip-path="url(#clip660)" d="M91.5706 1190.91 L99.2095 1190.91 L99.2095 1164.55 L90.8993 1166.21 L90.8993 1161.95 L99.1632 1160.29 L103.839 1160.29 L103.839 1190.91 L111.478 1190.91 L111.478 1194.85 L91.5706 1194.85 L91.5706 1190.91 Z" fill="#000000" fill-rule="nonzero" fill-opacity="1" /><path clip-path="url(#clip660)" d="M120.922 1188.97 L125.807 1188.97 L125.807 1194.85 L120.922 1194.85 L120.922 1188.97 Z" fill="#000000" fill-rule="nonzero" fill-opacity="1" /><path clip-path="url(#clip660)" d="M145.992 1163.37 Q142.381 1163.37 140.552 1166.93 Q138.746 1170.47 138.746 1177.6 Q138.746 1184.71 140.552 1188.27 Q142.381 1191.81 145.992 1191.81 Q149.626 1191.81 151.431 1188.27 Q153.26 1184.71 153.26 1177.6 Q153.26 1170.47 151.431 1166.93 Q149.626 1163.37 145.992 1163.37 M145.992 1159.66 Q151.802 1159.66 154.857 1164.27 Q157.936 1168.85 157.936 1177.6 Q157.936 1186.33 154.857 1190.94 Q151.802 1195.52 145.992 1195.52 Q140.181 1195.52 137.103 1190.94 Q134.047 1186.33 134.047 1177.6 Q134.047 1168.85 137.103 1164.27 Q140.181 1159.66 145.992 1159.66 Z" fill="#000000" fill-rule="nonzero" fill-opacity="1" /><path clip-path="url(#clip660)" d="M51.9875 942.228 L81.6633 942.228 L81.6633 946.163 L51.9875 946.163 L51.9875 942.228 Z" fill="#000000" fill-rule="nonzero" fill-opacity="1" /><path clip-path="url(#clip660)" d="M101.756 927.575 Q98.1447 927.575 96.316 931.14 Q94.5104 934.682 94.5104 941.811 Q94.5104 948.918 96.316 952.482 Q98.1447 956.024 101.756 956.024 Q105.39 956.024 107.196 952.482 Q109.024 948.918 109.024 941.811 Q109.024 934.682 107.196 931.14 Q105.39 927.575 101.756 927.575 M101.756 923.871 Q107.566 923.871 110.621 928.478 Q113.7 933.061 113.7 941.811 Q113.7 950.538 110.621 955.144 Q107.566 959.728 101.756 959.728 Q95.9456 959.728 92.8669 955.144 Q89.8114 950.538 89.8114 941.811 Q89.8114 933.061 92.8669 928.478 Q95.9456 923.871 101.756 923.871 Z" fill="#000000" fill-rule="nonzero" fill-opacity="1" /><path clip-path="url(#clip660)" d="M121.918 953.177 L126.802 953.177 L126.802 959.056 L121.918 959.056 L121.918 953.177 Z" fill="#000000" fill-rule="nonzero" fill-opacity="1" /><path clip-path="url(#clip660)" d="M137.033 924.496 L155.39 924.496 L155.39 928.432 L141.316 928.432 L141.316 936.904 Q142.334 936.557 143.353 936.395 Q144.371 936.209 145.39 936.209 Q151.177 936.209 154.556 939.381 Q157.936 942.552 157.936 947.969 Q157.936 953.547 154.464 956.649 Q150.992 959.728 144.672 959.728 Q142.496 959.728 140.228 959.357 Q137.982 958.987 135.575 958.246 L135.575 953.547 Q137.658 954.681 139.881 955.237 Q142.103 955.793 144.58 955.793 Q148.584 955.793 150.922 953.686 Q153.26 951.58 153.26 947.969 Q153.26 944.357 150.922 942.251 Q148.584 940.144 144.58 940.144 Q142.705 940.144 140.83 940.561 Q138.978 940.978 137.033 941.857 L137.033 924.496 Z" fill="#000000" fill-rule="nonzero" fill-opacity="1" /><path clip-path="url(#clip660)" d="M100.76 691.784 Q97.1493 691.784 95.3206 695.349 Q93.515 698.891 93.515 706.02 Q93.515 713.127 95.3206 716.691 Q97.1493 720.233 100.76 720.233 Q104.395 720.233 106.2 716.691 Q108.029 713.127 108.029 706.02 Q108.029 698.891 106.2 695.349 Q104.395 691.784 100.76 691.784 M100.76 688.081 Q106.571 688.081 109.626 692.687 Q112.705 697.27 112.705 706.02 Q112.705 714.747 109.626 719.354 Q106.571 723.937 100.76 723.937 Q94.9502 723.937 91.8715 719.354 Q88.816 714.747 88.816 706.02 Q88.816 697.27 91.8715 692.687 Q94.9502 688.081 100.76 688.081 Z" fill="#000000" fill-rule="nonzero" fill-opacity="1" /><path clip-path="url(#clip660)" d="M120.922 717.386 L125.807 717.386 L125.807 723.266 L120.922 723.266 L120.922 717.386 Z" fill="#000000" fill-rule="nonzero" fill-opacity="1" /><path clip-path="url(#clip660)" d="M145.992 691.784 Q142.381 691.784 140.552 695.349 Q138.746 698.891 138.746 706.02 Q138.746 713.127 140.552 716.691 Q142.381 720.233 145.992 720.233 Q149.626 720.233 151.431 716.691 Q153.26 713.127 153.26 706.02 Q153.26 698.891 151.431 695.349 Q149.626 691.784 145.992 691.784 M145.992 688.081 Q151.802 688.081 154.857 692.687 Q157.936 697.27 157.936 706.02 Q157.936 714.747 154.857 719.354 Q151.802 723.937 145.992 723.937 Q140.181 723.937 137.103 719.354 Q134.047 714.747 134.047 706.02 Q134.047 697.27 137.103 692.687 Q140.181 688.081 145.992 688.081 Z" fill="#000000" fill-rule="nonzero" fill-opacity="1" /><path clip-path="url(#clip660)" d="M101.756 455.993 Q98.1447 455.993 96.316 459.558 Q94.5104 463.1 94.5104 470.229 Q94.5104 477.336 96.316 480.901 Q98.1447 484.442 101.756 484.442 Q105.39 484.442 107.196 480.901 Q109.024 477.336 109.024 470.229 Q109.024 463.1 107.196 459.558 Q105.39 455.993 101.756 455.993 M101.756 452.29 Q107.566 452.29 110.621 456.896 Q113.7 461.479 113.7 470.229 Q113.7 478.956 110.621 483.563 Q107.566 488.146 101.756 488.146 Q95.9456 488.146 92.8669 483.563 Q89.8114 478.956 89.8114 470.229 Q89.8114 461.479 92.8669 456.896 Q95.9456 452.29 101.756 452.29 Z" fill="#000000" fill-rule="nonzero" fill-opacity="1" /><path clip-path="url(#clip660)" d="M121.918 481.595 L126.802 481.595 L126.802 487.475 L121.918 487.475 L121.918 481.595 Z" fill="#000000" fill-rule="nonzero" fill-opacity="1" /><path clip-path="url(#clip660)" d="M137.033 452.915 L155.39 452.915 L155.39 456.85 L141.316 456.85 L141.316 465.322 Q142.334 464.975 143.353 464.813 Q144.371 464.628 145.39 464.628 Q151.177 464.628 154.556 467.799 Q157.936 470.97 157.936 476.387 Q157.936 481.965 154.464 485.067 Q150.992 488.146 144.672 488.146 Q142.496 488.146 140.228 487.776 Q137.982 487.405 135.575 486.664 L135.575 481.965 Q137.658 483.1 139.881 483.655 Q142.103 484.211 144.58 484.211 Q148.584 484.211 150.922 482.104 Q153.26 479.998 153.26 476.387 Q153.26 472.776 150.922 470.669 Q148.584 468.563 144.58 468.563 Q142.705 468.563 140.83 468.979 Q138.978 469.396 137.033 470.276 L137.033 452.915 Z" fill="#000000" fill-rule="nonzero" fill-opacity="1" /><path clip-path="url(#clip660)" d="M91.5706 247.749 L99.2095 247.749 L99.2095 221.383 L90.8993 223.05 L90.8993 218.79 L99.1632 217.124 L103.839 217.124 L103.839 247.749 L111.478 247.749 L111.478 251.684 L91.5706 251.684 L91.5706 247.749 Z" fill="#000000" fill-rule="nonzero" fill-opacity="1" /><path clip-path="url(#clip660)" d="M120.922 245.804 L125.807 245.804 L125.807 251.684 L120.922 251.684 L120.922 245.804 Z" fill="#000000" fill-rule="nonzero" fill-opacity="1" /><path clip-path="url(#clip660)" d="M145.992 220.202 Q142.381 220.202 140.552 223.767 Q138.746 227.309 138.746 234.438 Q138.746 241.545 140.552 245.11 Q142.381 248.651 145.992 248.651 Q149.626 248.651 151.431 245.11 Q153.26 241.545 153.26 234.438 Q153.26 227.309 151.431 223.767 Q149.626 220.202 145.992 220.202 M145.992 216.499 Q151.802 216.499 154.857 221.105 Q157.936 225.689 157.936 234.438 Q157.936 243.165 154.857 247.772 Q151.802 252.355 145.992 252.355 Q140.181 252.355 137.103 247.772 Q134.047 243.165 134.047 234.438 Q134.047 225.689 137.103 221.105 Q140.181 216.499 145.992 216.499 Z" fill="#000000" fill-rule="nonzero" fill-opacity="1" /><polyline clip-path="url(#clip662)" style="stroke:#009af9; stroke-linecap:round; stroke-linejoin:round; stroke-width:4; stroke-opacity:1; fill:none" points="193.936,705.986 196.097,701.706 198.258,697.484 200.419,693.317 202.58,689.206 204.741,685.149 206.902,681.146 209.063,677.196 211.224,673.299 213.385,669.453 215.546,665.658 217.707,661.913 219.868,658.218 222.029,654.573 224.19,650.975 226.351,647.425 228.512,643.922 230.673,640.466 232.834,637.055 234.995,633.69 237.156,630.369 239.317,627.092 241.478,623.859 243.639,620.669 245.8,617.521 247.961,614.414 250.122,611.349 252.282,608.324 254.443,605.34 256.604,602.395 258.765,599.489 260.926,596.622 263.087,593.793 265.248,591.001 267.409,588.246 269.57,585.528 271.731,582.846 273.892,580.199 276.053,577.587 278.214,575.01 280.375,572.468 282.536,569.959 284.697,567.483 286.858,565.04 289.019,562.629 291.18,560.251 293.341,557.904 295.502,555.588 297.663,553.302 299.824,551.047 301.985,548.822 304.146,546.627 306.307,544.46 308.468,542.323 310.629,540.213 312.79,538.132 314.951,536.078 317.112,534.051 319.273,532.052 321.434,530.078 323.595,528.131 325.756,526.21 327.917,524.314 330.078,522.443 332.239,520.598 334.4,518.776 336.561,516.979 338.722,515.206 340.883,513.456 343.044,511.729 345.205,510.025 347.366,508.344 349.527,506.685 351.688,505.048 353.849,503.433 356.01,501.839 358.171,500.267 360.332,498.715 362.493,497.184 364.653,495.673 366.814,494.182 368.975,492.711 371.136,491.259 373.297,489.827 375.458,488.413 377.619,487.019 379.78,485.642 381.941,484.285 384.102,482.945 386.263,481.622 388.424,480.318 390.585,479.03 392.746,477.76 394.907,476.507 397.068,475.27 399.229,474.244 401.39,473.973 403.551,474.376 405.712,475.337 407.873,476.749 410.034,478.513 412.195,480.542 414.356,482.756 416.517,485.086 418.678,487.473 420.839,489.865 423,492.221 425.161,494.51 427.322,496.709 429.483,498.806 431.644,500.798 433.805,502.69 435.966,504.498 438.127,506.248 440.288,507.973 442.449,509.718 444.61,511.493 446.771,513.246 448.932,514.976 451.093,516.683 453.254,518.368 455.415,520.03 457.576,521.67 459.737,523.288 461.898,524.885 464.059,526.461 466.22,528.016 468.381,529.55 470.542,531.064 472.703,532.558 474.864,534.032 477.024,535.487 479.185,536.922 481.346,538.338 483.507,539.736 485.668,541.115 487.829,542.475 489.99,543.818 492.151,545.143 494.312,546.45 496.473,547.74 498.634,549.013 500.795,550.268 502.956,551.508 505.117,552.73 507.278,553.937 509.439,555.127 511.6,556.302 513.761,557.461 515.922,558.605 518.083,559.733 520.244,560.847 522.405,561.945 524.566,563.03 526.727,564.099 528.888,565.155 531.049,566.197 533.21,567.224 535.371,568.239 537.532,569.239 539.693,570.227 541.854,571.201 544.015,572.163 546.176,573.112 548.337,574.048 550.498,574.972 552.659,575.883 554.82,576.783 556.981,577.67 559.142,578.546 561.303,579.411 563.464,580.263 565.625,581.105 567.786,581.935 569.947,582.755 572.108,583.563 574.269,584.361 576.43,585.148 578.591,585.925 580.752,586.691 582.913,587.447 585.074,588.194 587.235,588.93 589.396,589.657 591.556,590.373 593.717,591.081 595.878,591.779 598.039,592.468 600.2,593.147 602.361,593.818 604.522,594.48 606.683,595.133 608.844,595.777 611.005,596.413 613.166,597.04 615.327,597.659 617.488,598.27 619.649,598.873 621.81,599.456 623.971,599.287 626.132,598.022 628.293,595.792 630.454,592.723 632.615,588.932 634.776,584.53 636.937,579.622 639.098,574.302 641.259,568.661 643.42,562.78 645.581,556.736 647.742,550.595 649.903,544.419 652.064,538.261 654.225,532.168 656.386,526.18 658.547,520.328 660.708,514.639 662.869,509.13 665.03,503.812 667.191,498.69 669.352,493.76 671.513,489.011 673.674,484.427 675.835,479.982 677.996,475.645 680.157,471.378 682.318,467.134 684.479,462.86 686.64,458.528 688.801,454.24 690.962,450.008 693.123,445.832 695.284,441.712 697.445,437.646 699.606,433.634 701.767,429.676 703.927,425.77 706.088,421.915 708.249,418.112 710.41,414.359 712.571,410.656 714.732,407.002 716.893,403.397 719.054,399.839 721.215,396.329 723.376,392.865 725.537,389.446 727.698,386.074 729.859,382.745 732.02,379.461 734.181,376.22 736.342,373.022 738.503,369.866 740.664,366.753 742.825,363.68 744.986,360.648 747.147,357.656 749.308,354.704 751.469,351.792 753.63,348.918 755.791,346.082 757.952,343.283 760.113,340.522 762.274,337.798 764.435,335.109 766.596,332.457 768.757,329.84 770.918,327.257 773.079,324.709 775.24,322.195 777.401,319.714 779.562,317.266 781.723,314.85 783.884,312.467 786.045,310.115 788.206,307.795 790.367,305.505 792.528,303.246 794.689,301.016 796.85,298.817 799.011,296.646 801.172,294.504 803.333,292.391 805.494,290.305 807.655,288.247 809.816,286.217 811.977,284.213 814.138,282.236 816.298,280.285 818.459,278.36 820.62,276.46 822.781,274.586 824.942,272.736 827.103,270.91 829.264,269.109 831.425,267.332 833.586,265.578 835.747,263.853 837.908,263.295 840.069,264.596 842.23,267.528 844.391,271.876 846.552,277.437 848.713,284.022 850.874,291.452 853.035,299.562 855.196,308.201 857.357,317.229 859.518,326.519 861.679,335.956 863.84,345.438 866.001,354.877 868.162,364.195 870.323,373.328 872.484,382.225 874.645,390.847 876.806,399.168 878.967,407.173 881.128,414.862 883.289,422.246 885.45,429.35 887.611,436.21 889.772,442.874 891.933,449.406 894.094,455.88 896.255,462.382 898.416,468.998 900.577,475.59 902.738,482.095 904.899,488.513 907.06,494.847 909.221,501.096 911.382,507.263 913.543,513.348 915.704,519.352 917.865,525.277 920.026,531.123 922.187,536.891 924.348,542.584 926.509,548.2 928.669,553.742 930.83,559.211 932.991,564.608 935.152,569.933 937.313,575.187 939.474,580.372 941.635,585.488 943.796,590.536 945.957,595.517 948.118,600.433 950.279,605.283 952.44,610.068 954.601,614.791 956.762,619.45 958.923,624.048 961.084,628.585 963.245,633.061 965.406,637.478 967.567,641.837 969.728,646.137 971.889,650.381 974.05,654.568 976.211,658.7 978.372,662.777 980.533,666.8 982.694,670.769 984.855,674.686 987.016,678.551 989.177,682.364 991.338,686.127 993.499,689.84 995.66,693.504 997.821,697.12 999.982,700.687 1002.14,704.208 1004.3,707.681 1006.46,711.109 1008.63,714.491 1010.79,717.829 1012.95,721.122 1015.11,724.372 1017.27,727.578 1019.43,730.742 1021.59,733.864 1023.75,736.945 1025.91,739.984 1028.07,742.984 1030.24,745.944 1032.4,748.864 1034.56,751.746 1036.72,754.497 1038.88,757.086 1041.04,759.619 1043.2,762.18 1045.36,764.84 1047.52,767.648 1049.68,770.636 1051.85,773.819 1054.01,777.195 1056.17,780.741 1058.33,784.418 1060.49,788.17 1062.65,791.921 1064.81,795.577 1066.97,799.13 1069.13,802.636 1071.29,806.096 1073.46,809.509 1075.62,812.878 1077.78,816.201 1079.94,819.481 1082.1,822.717 1084.26,825.91 1086.42,829.061 1088.58,832.171 1090.74,835.239 1092.9,838.266 1095.07,841.253 1097.23,844.201 1099.39,847.109 1101.55,849.979 1103.71,852.811 1105.87,855.605 1108.03,858.362 1110.19,861.083 1112.35,863.768 1114.51,866.417 1116.67,869.03 1118.84,871.609 1121,874.154 1123.16,876.666 1125.32,879.143 1127.48,881.588 1129.64,884.001 1131.8,886.382 1133.96,888.731 1136.12,891.049 1138.28,893.336 1140.45,895.593 1142.61,897.82 1144.77,900.017 1146.93,902.186 1149.09,904.325 1151.25,906.437 1153.41,908.52 1155.57,910.576 1157.73,912.604 1159.89,914.606 1162.06,916.581 1164.22,918.529 1166.38,920.452 1168.54,922.35 1170.7,924.222 1172.86,926.07 1175.02,927.893 1177.18,929.691 1179.34,931.466 1181.5,933.218 1183.67,934.946 1185.83,936.651 1187.99,938.334 1190.15,939.994 1192.31,941.633 1194.47,943.249 1196.63,944.844 1198.79,946.418 1200.95,947.972 1203.11,949.504 1205.28,951.016 1207.44,952.509 1209.6,953.981 1211.76,955.434 1213.92,956.868 1216.08,958.282 1218.24,959.678 1220.4,961.056 1222.56,962.415 1224.72,963.756 1226.88,965.079 1229.05,966.385 1231.21,967.674 1233.37,968.945 1235.53,970.199 1237.69,971.437 1239.85,972.659 1242.01,973.864 1244.17,975.053 1246.33,976.227 1248.49,977.385 1250.66,978.528 1252.82,979.655 1254.98,980.768 1257.14,981.596 1259.3,981.994 1261.46,982.274 1263.62,982.699 1265.78,983.482 1267.94,984.785 1270.1,986.72 1272.27,989.348 1274.43,992.682 1276.59,996.682 1278.75,1001.26 1280.91,1006.27 1283.07,1011.53 1285.23,1016.8 1287.39,1021.79 1289.55,1026.59 1291.71,1031.34 1293.88,1036.01 1296.04,1040.63 1298.2,1045.19 1300.36,1049.68 1302.52,1054.12 1304.68,1058.49 1306.84,1062.81 1309,1067.08 1311.16,1071.28 1313.32,1075.43 1315.49,1079.52 1317.65,1083.56 1319.81,1087.55 1321.97,1091.48 1324.13,1095.37 1326.29,1099.2 1328.45,1102.98 1330.61,1106.7 1332.77,1110.38 1334.93,1114.02 1337.09,1117.6 1339.26,1121.13 1341.42,1124.62 1343.58,1128.06 1345.74,1131.46 1347.9,1134.81 1350.06,1138.12 1352.22,1141.38 1354.38,1144.6 1356.54,1147.78 1358.7,1150.91 1360.87,1154 1363.03,1157.06 1365.19,1160.07 1367.35,1163.04 1369.51,1165.97 1371.67,1168.87 1373.83,1171.72 1375.99,1174.54 1378.15,1177.32 1380.31,1180.06 1382.48,1182.77 1384.64,1185.44 1386.8,1188.08 1388.96,1190.68 1391.12,1193.24 1393.28,1195.78 1395.44,1198.27 1397.6,1200.74 1399.76,1203.17 1401.92,1205.57 1404.09,1207.94 1406.25,1210.28 1408.41,1212.59 1410.57,1214.86 1412.73,1217.11 1414.89,1219.32 1417.05,1221.51 1419.21,1223.67 1421.37,1225.8 1423.53,1227.9 1425.7,1229.97 1427.86,1232.01 1430.02,1234.03 1432.18,1236.02 1434.34,1237.99 1436.5,1239.93 1438.66,1241.84 1440.82,1243.73 1442.98,1245.59 1445.14,1247.43 1447.3,1249.24 1449.47,1251.03 1451.63,1252.8 1453.79,1254.54 1455.95,1256.26 1458.11,1257.96 1460.27,1259.63 1462.43,1261.28 1464.59,1262.91 1466.75,1264.52 1468.91,1266.11 1471.08,1267.68 1473.24,1269.22 1475.4,1270.75 1477.56,1272.25 1479.72,1273.74 1481.88,1275.2 1484.04,1276.56 1486.2,1276.27 1488.36,1273.96 1490.52,1269.89 1492.69,1264.26 1494.85,1257.28 1497.01,1249.17 1499.17,1240.09 1501.33,1230.23 1503.49,1219.74 1505.65,1208.77 1507.81,1197.47 1509.97,1185.96 1512.13,1174.34 1514.3,1162.72 1516.46,1151.2 1518.62,1139.83 1520.78,1128.69 1522.94,1117.83 1525.1,1107.29 1527.26,1097.09 1529.42,1087.26 1531.58,1077.79 1533.74,1068.67 1535.91,1059.88 1538.07,1051.39 1540.23,1043.16 1542.39,1035.11 1544.55,1027.2 1546.71,1019.32 1548.87,1011.39 1551.03,1003.34 1553.19,995.37 1555.35,987.501 1557.51,979.737 1559.68,972.076 1561.84,964.516 1564,957.056 1566.16,949.696 1568.32,942.433 1570.48,935.266 1572.64,928.194 1574.8,921.216 1576.96,914.331 1579.12,907.537 1581.29,900.833 1583.45,894.217 1585.61,887.69 1587.77,881.248 1589.93,874.892 1592.09,868.62 1594.25,862.431 1596.41,856.325 1598.57,850.299 1600.73,844.353 1602.9,838.486 1605.06,832.697 1607.22,826.985 1609.38,821.348 1611.54,815.786 1613.7,810.298 1615.86,804.883 1618.02,799.54 1620.18,794.268 1622.34,789.066 1624.51,783.932 1626.67,778.867 1628.83,773.869 1630.99,768.938 1633.15,764.072 1635.31,759.27 1637.47,754.532 1639.63,749.857 1641.79,745.244 1643.95,740.693 1646.12,736.201 1648.28,731.769 1650.44,727.396 1652.6,723.081 1654.76,718.822 1656.92,714.621 1659.08,710.475 1661.24,706.383 1663.4,702.346 1665.56,698.363 1667.72,694.432 1669.89,690.553 1672.05,686.726 1674.21,682.95 1676.37,679.223 1678.53,675.546 1680.69,671.918 1682.85,668.337 1685.01,664.805 1687.17,661.319 1689.33,657.879 1691.5,654.485 1693.66,651.136 1695.82,647.831 1697.98,644.57 1700.14,641.455 1702.3,638.823 1704.46,636.651 1706.62,634.886 1708.78,633.476 1710.94,632.375 1713.11,631.539 1715.27,630.926 1717.43,630.497 1719.59,630.217 1721.75,630.053 1723.91,629.976 1726.07,629.958 1728.23,629.976 1730.39,630.008 1732.55,630.038 1734.72,630.049 1736.88,630.031 1739.04,629.972 1741.2,629.868 1743.36,629.716 1745.52,629.513 1747.68,629.265 1749.84,628.975 1752,628.652 1754.16,628.309 1756.33,627.958 1758.49,627.618 1760.65,627.308 1762.81,627.051 1764.97,626.818 1767.13,626.589 1769.29,626.362 1771.45,626.139 1773.61,625.918 1775.77,625.701 1777.93,625.486 1780.1,625.274 1782.26,625.065 1784.42,624.859 1786.58,624.655 1788.74,624.454 1790.9,624.256 1793.06,624.061 1795.22,623.868 1797.38,623.677 1799.54,623.489 1801.71,623.304 1803.87,623.121 1806.03,622.94 1808.19,622.762 1810.35,622.586 1812.51,622.413 1814.67,622.242 1816.83,622.073 1818.99,621.906 1821.15,621.742 1823.32,621.579 1825.48,621.419 1827.64,621.261 1829.8,621.105 1831.96,620.951 1834.12,620.799 1836.28,620.65 1838.44,620.502 1840.6,620.356 1842.76,620.212 1844.93,620.07 1847.09,619.93 1849.25,619.792 1851.41,619.655 1853.57,619.521 1855.73,619.388 1857.89,619.257 1860.05,619.128 1862.21,619 1864.37,618.875 1866.54,618.75 1868.7,618.628 1870.86,618.507 1873.02,618.388 1875.18,618.27 1877.34,618.154 1879.5,618.039 1881.66,617.926 1883.82,617.815 1885.98,617.705 1888.15,617.596 1890.31,617.489 1892.47,617.383 1894.63,617.279 1896.79,617.176 1898.95,617.074 1901.11,616.974 1903.27,616.875 1905.43,616.777 1907.59,616.681 1909.75,616.586 1911.92,616.492 1914.08,616.4 1916.24,616.308 1918.4,616.094 1920.56,614.937 1922.72,612.782 1924.88,609.744 1927.04,605.93 1929.2,601.443 1931.36,596.379 1933.53,590.83 1935.69,584.882 1937.85,578.612 1940.01,572.096 1942.17,565.402 1944.33,558.592 1946.49,551.723 1948.65,544.846 1950.81,538.007 1952.97,531.244 1955.14,524.593 1957.3,518.082 1959.46,511.732 1961.62,505.562 1963.78,499.582 1965.94,493.797 1968.1,488.208 1970.26,482.809 1972.42,477.588 1974.58,472.527 1976.75,467.605 1978.91,462.791 1981.07,458.053 1983.23,453.349 1985.39,448.634 1987.55,443.864 1989.71,439.122 1991.87,434.443 1994.03,429.825 1996.19,425.269 1998.36,420.774 2000.52,416.338 2002.68,411.961 2004.84,407.642 2007,403.38 2009.16,399.174 2011.32,395.025 2013.48,390.93 2015.64,386.89 2017.8,382.903 2019.96,378.969 2022.13,375.088 2024.29,371.257 2026.45,367.478 2028.61,363.749 2030.77,360.069 2032.93,356.437 2035.09,352.854 2037.25,349.319 2039.41,345.83 2041.57,342.388 2043.74,338.991 2045.9,335.639 2048.06,332.332 2050.22,329.069 2052.38,325.848 2054.54,322.671 2056.7,319.536 2058.86,316.442 2061.02,313.389 2063.18,310.377 2065.35,307.405 2067.51,304.472 2069.67,301.578 2071.83,298.722 2073.99,295.904 2076.15,293.124 2078.31,290.38 2080.47,287.673 2082.63,285.002 2084.79,282.366 2086.96,279.765 2089.12,277.198 2091.28,274.666 2093.44,272.167 2095.6,269.701 2097.76,267.268 2099.92,264.868 2102.08,262.499 2104.24,260.161 2106.4,257.854 2108.57,255.578 2110.73,253.333 2112.89,251.117 2115.05,248.93 2117.21,246.772 2119.37,244.643 2121.53,242.542 2123.69,240.469 2125.85,237.01 2128.01,232.898 2130.17,231.183 2132.34,233.57 2134.5,240.4 2136.66,250.66 2138.82,261.974 2140.98,272.343 2143.14,282.559 2145.3,292.639 2147.46,302.586 2149.62,312.4 2151.78,322.085 2153.95,331.642 2156.11,341.071 2158.27,350.376 2160.43,359.557 2162.59,368.617 2164.75,377.556 2166.91,386.377 2169.07,395.081 2171.23,403.669 2173.39,412.144 2175.56,420.506 2177.72,428.757 2179.88,436.899 2182.04,444.933 2184.2,452.861 2186.36,460.683 2188.52,468.401 2190.68,476.018 2192.84,483.533 2195,490.949 2197.17,498.266 2199.33,505.486 2201.49,512.611 2203.65,519.641 2205.81,526.578 2207.97,533.423 2210.13,540.178 2212.29,546.843 2214.45,553.419 2216.61,559.908 2218.78,566.312 2220.94,572.63 2223.1,578.864 2225.26,585.016 2227.42,591.087 2229.58,597.076 2231.74,602.987 2233.9,608.819 2236.06,614.573 2238.22,620.252 2240.38,625.855 2242.55,631.384 2244.71,636.839 2246.87,642.222 2249.03,647.534 2251.19,652.775 2253.35,657.947 2255.51,663.051 2257.67,668.087 2259.83,673.056 2261.99,677.959 2264.16,682.797 2266.32,687.571 2268.48,692.282 2270.64,696.93 2272.8,701.517 2274.96,706.042 2277.12,710.508 2279.28,714.915 2281.44,719.263 2283.6,723.553 2285.77,727.787 2287.93,731.964 2290.09,736.086 2292.25,740.154 2294.41,744.167 2296.57,748.127 2298.73,752.035 2300.89,755.891 2303.05,759.695 2305.21,763.45 2307.38,767.154 2309.54,770.81 2311.7,774.417 2313.86,777.976 2316.02,781.488 2318.18,784.953 2320.34,788.373 2322.5,791.747 2324.66,795.076 2326.82,798.362 2328.99,801.603 2331.15,804.802 2333.31,807.959 2335.47,811.073 2337.63,814.146 2339.79,817.179 2341.95,820.171 2344.11,823.124 2346.27,826.037 2348.43,828.912 2350.59,831.749 2352.76,834.548 "/>
<polyline clip-path="url(#clip662)" style="stroke:#e26f46; stroke-linecap:round; stroke-linejoin:round; stroke-width:4; stroke-opacity:1; fill:none" points="193.936,383.219 196.097,383.219 198.258,383.219 200.419,383.219 202.58,383.219 204.741,383.219 206.902,383.219 209.063,383.219 211.224,383.219 213.385,383.219 215.546,383.219 217.707,383.219 219.868,383.219 222.029,383.219 224.19,383.219 226.351,383.219 228.512,383.219 230.673,383.219 232.834,383.219 234.995,383.219 237.156,383.219 239.317,383.219 241.478,383.219 243.639,383.219 245.8,383.219 247.961,383.219 250.122,383.219 252.282,383.219 254.443,383.219 256.604,383.219 258.765,383.219 260.926,383.219 263.087,383.219 265.248,383.219 267.409,383.219 269.57,383.219 271.731,383.219 273.892,383.219 276.053,383.219 278.214,383.219 280.375,383.219 282.536,383.219 284.697,383.219 286.858,383.219 289.019,383.219 291.18,383.219 293.341,383.219 295.502,383.219 297.663,383.219 299.824,383.219 301.985,383.219 304.146,383.219 306.307,383.219 308.468,383.219 310.629,383.219 312.79,383.219 314.951,383.219 317.112,383.219 319.273,383.219 321.434,383.219 323.595,383.219 325.756,383.219 327.917,383.219 330.078,383.219 332.239,383.219 334.4,383.219 336.561,383.219 338.722,383.219 340.883,383.219 343.044,383.219 345.205,383.219 347.366,383.219 349.527,383.219 351.688,383.219 353.849,383.219 356.01,383.219 358.171,383.219 360.332,383.219 362.493,383.219 364.653,383.219 366.814,383.219 368.975,383.219 371.136,383.219 373.297,383.219 375.458,383.219 377.619,383.219 379.78,383.219 381.941,383.219 384.102,383.219 386.263,383.219 388.424,383.219 390.585,383.219 392.746,383.219 394.907,383.219 397.068,383.219 399.229,383.219 401.39,383.219 403.551,383.219 405.712,383.219 407.873,383.219 410.034,643.733 412.195,643.733 414.356,643.733 416.517,643.733 418.678,643.733 420.839,643.733 423,643.733 425.161,643.733 427.322,643.733 429.483,643.733 431.644,643.733 433.805,643.733 435.966,643.733 438.127,643.733 440.288,643.733 442.449,643.733 444.61,643.733 446.771,643.733 448.932,643.733 451.093,643.733 453.254,643.733 455.415,643.733 457.576,643.733 459.737,643.733 461.898,643.733 464.059,643.733 466.22,643.733 468.381,643.733 470.542,643.733 472.703,643.733 474.864,643.733 477.024,643.733 479.185,643.733 481.346,643.733 483.507,643.733 485.668,643.733 487.829,643.733 489.99,643.733 492.151,643.733 494.312,643.733 496.473,643.733 498.634,643.733 500.795,643.733 502.956,643.733 505.117,643.733 507.278,643.733 509.439,643.733 511.6,643.733 513.761,643.733 515.922,643.733 518.083,643.733 520.244,643.733 522.405,643.733 524.566,643.733 526.727,643.733 528.888,643.733 531.049,643.733 533.21,643.733 535.371,643.733 537.532,643.733 539.693,643.733 541.854,643.733 544.015,643.733 546.176,643.733 548.337,643.733 550.498,643.733 552.659,643.733 554.82,643.733 556.981,643.733 559.142,643.733 561.303,643.733 563.464,643.733 565.625,643.733 567.786,643.733 569.947,643.733 572.108,643.733 574.269,643.733 576.43,643.733 578.591,643.733 580.752,643.733 582.913,643.733 585.074,643.733 587.235,643.733 589.396,643.733 591.556,643.733 593.717,643.733 595.878,643.733 598.039,643.733 600.2,643.733 602.361,643.733 604.522,643.733 606.683,643.733 608.844,643.733 611.005,643.733 613.166,643.733 615.327,643.733 617.488,643.733 619.649,643.733 621.81,643.733 623.971,643.733 626.132,135.053 628.293,135.053 630.454,135.053 632.615,135.053 634.776,135.053 636.937,135.053 639.098,135.053 641.259,135.053 643.42,135.053 645.581,135.053 647.742,135.053 649.903,135.053 652.064,135.053 654.225,135.053 656.386,135.053 658.547,135.053 660.708,135.053 662.869,135.053 665.03,135.053 667.191,135.053 669.352,135.053 671.513,135.053 673.674,135.053 675.835,135.053 677.996,135.053 680.157,135.053 682.318,135.053 684.479,135.053 686.64,135.053 688.801,135.053 690.962,135.053 693.123,135.053 695.284,135.053 697.445,135.053 699.606,135.053 701.767,135.053 703.927,135.053 706.088,135.053 708.249,135.053 710.41,135.053 712.571,135.053 714.732,135.053 716.893,135.053 719.054,135.053 721.215,135.053 723.376,135.053 725.537,135.053 727.698,135.053 729.859,135.053 732.02,135.053 734.181,135.053 736.342,135.053 738.503,135.053 740.664,135.053 742.825,135.053 744.986,135.053 747.147,135.053 749.308,135.053 751.469,135.053 753.63,135.053 755.791,135.053 757.952,135.053 760.113,135.053 762.274,135.053 764.435,135.053 766.596,135.053 768.757,135.053 770.918,135.053 773.079,135.053 775.24,135.053 777.401,135.053 779.562,135.053 781.723,135.053 783.884,135.053 786.045,135.053 788.206,135.053 790.367,135.053 792.528,135.053 794.689,135.053 796.85,135.053 799.011,135.053 801.172,135.053 803.333,135.053 805.494,135.053 807.655,135.053 809.816,135.053 811.977,135.053 814.138,135.053 816.298,135.053 818.459,135.053 820.62,135.053 822.781,135.053 824.942,135.053 827.103,135.053 829.264,135.053 831.425,135.053 833.586,135.053 835.747,135.053 837.908,135.053 840.069,135.053 842.23,966.224 844.391,966.224 846.552,966.224 848.713,966.224 850.874,966.224 853.035,966.224 855.196,966.224 857.357,966.224 859.518,966.224 861.679,966.224 863.84,966.224 866.001,966.224 868.162,966.224 870.323,966.224 872.484,966.224 874.645,966.224 876.806,966.224 878.967,966.224 881.128,966.224 883.289,966.224 885.45,966.224 887.611,966.224 889.772,966.224 891.933,966.224 894.094,966.224 896.255,966.224 898.416,966.224 900.577,966.224 902.738,966.224 904.899,966.224 907.06,966.224 909.221,966.224 911.382,966.224 913.543,966.224 915.704,966.224 917.865,966.224 920.026,966.224 922.187,966.224 924.348,966.224 926.509,966.224 928.669,966.224 930.83,966.224 932.991,966.224 935.152,966.224 937.313,966.224 939.474,966.224 941.635,966.224 943.796,966.224 945.957,966.224 948.118,966.224 950.279,966.224 952.44,966.224 954.601,966.224 956.762,966.224 958.923,966.224 961.084,966.224 963.245,966.224 965.406,966.224 967.567,966.224 969.728,966.224 971.889,966.224 974.05,966.224 976.211,966.224 978.372,966.224 980.533,966.224 982.694,966.224 984.855,966.224 987.016,966.224 989.177,966.224 991.338,966.224 993.499,966.224 995.66,966.224 997.821,966.224 999.982,966.224 1002.14,966.224 1004.3,966.224 1006.46,966.224 1008.63,966.224 1010.79,966.224 1012.95,966.224 1015.11,966.224 1017.27,966.224 1019.43,966.224 1021.59,966.224 1023.75,966.224 1025.91,966.224 1028.07,966.224 1030.24,966.224 1032.4,966.224 1034.56,966.224 1036.72,966.224 1038.88,966.224 1041.04,966.224 1043.2,966.224 1045.36,966.224 1047.52,966.224 1049.68,966.224 1051.85,966.224 1054.01,966.224 1056.17,966.224 1058.33,1063.57 1060.49,1063.57 1062.65,1063.57 1064.81,1063.57 1066.97,1063.57 1069.13,1063.57 1071.29,1063.57 1073.46,1063.57 1075.62,1063.57 1077.78,1063.57 1079.94,1063.57 1082.1,1063.57 1084.26,1063.57 1086.42,1063.57 1088.58,1063.57 1090.74,1063.57 1092.9,1063.57 1095.07,1063.57 1097.23,1063.57 1099.39,1063.57 1101.55,1063.57 1103.71,1063.57 1105.87,1063.57 1108.03,1063.57 1110.19,1063.57 1112.35,1063.57 1114.51,1063.57 1116.67,1063.57 1118.84,1063.57 1121,1063.57 1123.16,1063.57 1125.32,1063.57 1127.48,1063.57 1129.64,1063.57 1131.8,1063.57 1133.96,1063.57 1136.12,1063.57 1138.28,1063.57 1140.45,1063.57 1142.61,1063.57 1144.77,1063.57 1146.93,1063.57 1149.09,1063.57 1151.25,1063.57 1153.41,1063.57 1155.57,1063.57 1157.73,1063.57 1159.89,1063.57 1162.06,1063.57 1164.22,1063.57 1166.38,1063.57 1168.54,1063.57 1170.7,1063.57 1172.86,1063.57 1175.02,1063.57 1177.18,1063.57 1179.34,1063.57 1181.5,1063.57 1183.67,1063.57 1185.83,1063.57 1187.99,1063.57 1190.15,1063.57 1192.31,1063.57 1194.47,1063.57 1196.63,1063.57 1198.79,1063.57 1200.95,1063.57 1203.11,1063.57 1205.28,1063.57 1207.44,1063.57 1209.6,1063.57 1211.76,1063.57 1213.92,1063.57 1216.08,1063.57 1218.24,1063.57 1220.4,1063.57 1222.56,1063.57 1224.72,1063.57 1226.88,1063.57 1229.05,1063.57 1231.21,1063.57 1233.37,1063.57 1235.53,1063.57 1237.69,1063.57 1239.85,1063.57 1242.01,1063.57 1244.17,1063.57 1246.33,1063.57 1248.49,1063.57 1250.66,1063.57 1252.82,1063.57 1254.98,1063.57 1257.14,1063.57 1259.3,1063.57 1261.46,1063.57 1263.62,1063.57 1265.78,1063.57 1267.94,1063.57 1270.1,1063.57 1272.27,1063.57 1274.43,1384.24 1276.59,1384.24 1278.75,1384.24 1280.91,1384.24 1283.07,1384.24 1285.23,1384.24 1287.39,1384.24 1289.55,1384.24 1291.71,1384.24 1293.88,1384.24 1296.04,1384.24 1298.2,1384.24 1300.36,1384.24 1302.52,1384.24 1304.68,1384.24 1306.84,1384.24 1309,1384.24 1311.16,1384.24 1313.32,1384.24 1315.49,1384.24 1317.65,1384.24 1319.81,1384.24 1321.97,1384.24 1324.13,1384.24 1326.29,1384.24 1328.45,1384.24 1330.61,1384.24 1332.77,1384.24 1334.93,1384.24 1337.09,1384.24 1339.26,1384.24 1341.42,1384.24 1343.58,1384.24 1345.74,1384.24 1347.9,1384.24 1350.06,1384.24 1352.22,1384.24 1354.38,1384.24 1356.54,1384.24 1358.7,1384.24 1360.87,1384.24 1363.03,1384.24 1365.19,1384.24 1367.35,1384.24 1369.51,1384.24 1371.67,1384.24 1373.83,1384.24 1375.99,1384.24 1378.15,1384.24 1380.31,1384.24 1382.48,1384.24 1384.64,1384.24 1386.8,1384.24 1388.96,1384.24 1391.12,1384.24 1393.28,1384.24 1395.44,1384.24 1397.6,1384.24 1399.76,1384.24 1401.92,1384.24 1404.09,1384.24 1406.25,1384.24 1408.41,1384.24 1410.57,1384.24 1412.73,1384.24 1414.89,1384.24 1417.05,1384.24 1419.21,1384.24 1421.37,1384.24 1423.53,1384.24 1425.7,1384.24 1427.86,1384.24 1430.02,1384.24 1432.18,1384.24 1434.34,1384.24 1436.5,1384.24 1438.66,1384.24 1440.82,1384.24 1442.98,1384.24 1445.14,1384.24 1447.3,1384.24 1449.47,1384.24 1451.63,1384.24 1453.79,1384.24 1455.95,1384.24 1458.11,1384.24 1460.27,1384.24 1462.43,1384.24 1464.59,1384.24 1466.75,1384.24 1468.91,1384.24 1471.08,1384.24 1473.24,1384.24 1475.4,1384.24 1477.56,1384.24 1479.72,1384.24 1481.88,1384.24 1484.04,1384.24 1486.2,1384.24 1488.36,1384.24 1490.52,401.875 1492.69,401.875 1494.85,401.875 1497.01,401.875 1499.17,401.875 1501.33,401.875 1503.49,401.875 1505.65,401.875 1507.81,401.875 1509.97,401.875 1512.13,401.875 1514.3,401.875 1516.46,401.875 1518.62,401.875 1520.78,401.875 1522.94,401.875 1525.1,401.875 1527.26,401.875 1529.42,401.875 1531.58,401.875 1533.74,401.875 1535.91,401.875 1538.07,401.875 1540.23,401.875 1542.39,401.875 1544.55,401.875 1546.71,401.875 1548.87,401.875 1551.03,401.875 1553.19,401.875 1555.35,401.875 1557.51,401.875 1559.68,401.875 1561.84,401.875 1564,401.875 1566.16,401.875 1568.32,401.875 1570.48,401.875 1572.64,401.875 1574.8,401.875 1576.96,401.875 1579.12,401.875 1581.29,401.875 1583.45,401.875 1585.61,401.875 1587.77,401.875 1589.93,401.875 1592.09,401.875 1594.25,401.875 1596.41,401.875 1598.57,401.875 1600.73,401.875 1602.9,401.875 1605.06,401.875 1607.22,401.875 1609.38,401.875 1611.54,401.875 1613.7,401.875 1615.86,401.875 1618.02,401.875 1620.18,401.875 1622.34,401.875 1624.51,401.875 1626.67,401.875 1628.83,401.875 1630.99,401.875 1633.15,401.875 1635.31,401.875 1637.47,401.875 1639.63,401.875 1641.79,401.875 1643.95,401.875 1646.12,401.875 1648.28,401.875 1650.44,401.875 1652.6,401.875 1654.76,401.875 1656.92,401.875 1659.08,401.875 1661.24,401.875 1663.4,401.875 1665.56,401.875 1667.72,401.875 1669.89,401.875 1672.05,401.875 1674.21,401.875 1676.37,401.875 1678.53,401.875 1680.69,401.875 1682.85,401.875 1685.01,401.875 1687.17,401.875 1689.33,401.875 1691.5,401.875 1693.66,401.875 1695.82,401.875 1697.98,401.875 1700.14,401.875 1702.3,401.875 1704.46,401.875 1706.62,609.506 1708.78,609.506 1710.94,609.506 1713.11,609.506 1715.27,609.506 1717.43,609.506 1719.59,609.506 1721.75,609.506 1723.91,609.506 1726.07,609.506 1728.23,609.506 1730.39,609.506 1732.55,609.506 1734.72,609.506 1736.88,609.506 1739.04,609.506 1741.2,609.506 1743.36,609.506 1745.52,609.506 1747.68,609.506 1749.84,609.506 1752,609.506 1754.16,609.506 1756.33,609.506 1758.49,609.506 1760.65,609.506 1762.81,609.506 1764.97,609.506 1767.13,609.506 1769.29,609.506 1771.45,609.506 1773.61,609.506 1775.77,609.506 1777.93,609.506 1780.1,609.506 1782.26,609.506 1784.42,609.506 1786.58,609.506 1788.74,609.506 1790.9,609.506 1793.06,609.506 1795.22,609.506 1797.38,609.506 1799.54,609.506 1801.71,609.506 1803.87,609.506 1806.03,609.506 1808.19,609.506 1810.35,609.506 1812.51,609.506 1814.67,609.506 1816.83,609.506 1818.99,609.506 1821.15,609.506 1823.32,609.506 1825.48,609.506 1827.64,609.506 1829.8,609.506 1831.96,609.506 1834.12,609.506 1836.28,609.506 1838.44,609.506 1840.6,609.506 1842.76,609.506 1844.93,609.506 1847.09,609.506 1849.25,609.506 1851.41,609.506 1853.57,609.506 1855.73,609.506 1857.89,609.506 1860.05,609.506 1862.21,609.506 1864.37,609.506 1866.54,609.506 1868.7,609.506 1870.86,609.506 1873.02,609.506 1875.18,609.506 1877.34,609.506 1879.5,609.506 1881.66,609.506 1883.82,609.506 1885.98,609.506 1888.15,609.506 1890.31,609.506 1892.47,609.506 1894.63,609.506 1896.79,609.506 1898.95,609.506 1901.11,609.506 1903.27,609.506 1905.43,609.506 1907.59,609.506 1909.75,609.506 1911.92,609.506 1914.08,609.506 1916.24,609.506 1918.4,609.506 1920.56,609.506 1922.72,86.1857 1924.88,86.1857 1927.04,86.1857 1929.2,86.1857 1931.36,86.1857 1933.53,86.1857 1935.69,86.1857 1937.85,86.1857 1940.01,86.1857 1942.17,86.1857 1944.33,86.1857 1946.49,86.1857 1948.65,86.1857 1950.81,86.1857 1952.97,86.1857 1955.14,86.1857 1957.3,86.1857 1959.46,86.1857 1961.62,86.1857 1963.78,86.1857 1965.94,86.1857 1968.1,86.1857 1970.26,86.1857 1972.42,86.1857 1974.58,86.1857 1976.75,86.1857 1978.91,86.1857 1981.07,86.1857 1983.23,86.1857 1985.39,86.1857 1987.55,86.1857 1989.71,86.1857 1991.87,86.1857 1994.03,86.1857 1996.19,86.1857 1998.36,86.1857 2000.52,86.1857 2002.68,86.1857 2004.84,86.1857 2007,86.1857 2009.16,86.1857 2011.32,86.1857 2013.48,86.1857 2015.64,86.1857 2017.8,86.1857 2019.96,86.1857 2022.13,86.1857 2024.29,86.1857 2026.45,86.1857 2028.61,86.1857 2030.77,86.1857 2032.93,86.1857 2035.09,86.1857 2037.25,86.1857 2039.41,86.1857 2041.57,86.1857 2043.74,86.1857 2045.9,86.1857 2048.06,86.1857 2050.22,86.1857 2052.38,86.1857 2054.54,86.1857 2056.7,86.1857 2058.86,86.1857 2061.02,86.1857 2063.18,86.1857 2065.35,86.1857 2067.51,86.1857 2069.67,86.1857 2071.83,86.1857 2073.99,86.1857 2076.15,86.1857 2078.31,86.1857 2080.47,86.1857 2082.63,86.1857 2084.79,86.1857 2086.96,86.1857 2089.12,86.1857 2091.28,86.1857 2093.44,86.1857 2095.6,86.1857 2097.76,86.1857 2099.92,86.1857 2102.08,86.1857 2104.24,86.1857 2106.4,86.1857 2108.57,86.1857 2110.73,86.1857 2112.89,86.1857 2115.05,86.1857 2117.21,86.1857 2119.37,86.1857 2121.53,86.1857 2123.69,86.1857 2125.85,86.1857 2128.01,86.1857 2130.17,86.1857 2132.34,86.1857 2134.5,86.1857 2136.66,86.1857 2138.82,1042.87 2140.98,1042.87 2143.14,1042.87 2145.3,1042.87 2147.46,1042.87 2149.62,1042.87 2151.78,1042.87 2153.95,1042.87 2156.11,1042.87 2158.27,1042.87 2160.43,1042.87 2162.59,1042.87 2164.75,1042.87 2166.91,1042.87 2169.07,1042.87 2171.23,1042.87 2173.39,1042.87 2175.56,1042.87 2177.72,1042.87 2179.88,1042.87 2182.04,1042.87 2184.2,1042.87 2186.36,1042.87 2188.52,1042.87 2190.68,1042.87 2192.84,1042.87 2195,1042.87 2197.17,1042.87 2199.33,1042.87 2201.49,1042.87 2203.65,1042.87 2205.81,1042.87 2207.97,1042.87 2210.13,1042.87 2212.29,1042.87 2214.45,1042.87 2216.61,1042.87 2218.78,1042.87 2220.94,1042.87 2223.1,1042.87 2225.26,1042.87 2227.42,1042.87 2229.58,1042.87 2231.74,1042.87 2233.9,1042.87 2236.06,1042.87 2238.22,1042.87 2240.38,1042.87 2242.55,1042.87 2244.71,1042.87 2246.87,1042.87 2249.03,1042.87 2251.19,1042.87 2253.35,1042.87 2255.51,1042.87 2257.67,1042.87 2259.83,1042.87 2261.99,1042.87 2264.16,1042.87 2266.32,1042.87 2268.48,1042.87 2270.64,1042.87 2272.8,1042.87 2274.96,1042.87 2277.12,1042.87 2279.28,1042.87 2281.44,1042.87 2283.6,1042.87 2285.77,1042.87 2287.93,1042.87 2290.09,1042.87 2292.25,1042.87 2294.41,1042.87 2296.57,1042.87 2298.73,1042.87 2300.89,1042.87 2303.05,1042.87 2305.21,1042.87 2307.38,1042.87 2309.54,1042.87 2311.7,1042.87 2313.86,1042.87 2316.02,1042.87 2318.18,1042.87 2320.34,1042.87 2322.5,1042.87 2324.66,1042.87 2326.82,1042.87 2328.99,1042.87 2331.15,1042.87 2333.31,1042.87 2335.47,1042.87 2337.63,1042.87 2339.79,1042.87 2341.95,1042.87 2344.11,1042.87 2346.27,1042.87 2348.43,1042.87 2350.59,1042.87 2352.76,1042.87 "/>
<path clip-path="url(#clip660)" d="M2039.77 1377.32 L2280.8 1377.32 L2280.8 1221.8 L2039.77 1221.8  Z" fill="#ffffff" fill-rule="evenodd" fill-opacity="1"/>
<polyline clip-path="url(#clip660)" style="stroke:#000000; stroke-linecap:round; stroke-linejoin:round; stroke-width:4; stroke-opacity:1; fill:none" points="2039.77,1377.32 2280.8,1377.32 2280.8,1221.8 2039.77,1221.8 2039.77,1377.32 "/>
<polyline clip-path="url(#clip660)" style="stroke:#009af9; stroke-linecap:round; stroke-linejoin:round; stroke-width:4; stroke-opacity:1; fill:none" points="2063.76,1273.64 2207.68,1273.64 "/>
<path clip-path="url(#clip660)" d="M2256.32 1264.99 L2246.95 1277.61 L2256.81 1290.92 L2251.79 1290.92 L2244.24 1280.73 L2236.69 1290.92 L2231.67 1290.92 L2241.74 1277.35 L2232.53 1264.99 L2237.55 1264.99 L2244.42 1274.23 L2251.3 1264.99 L2256.32 1264.99 Z" fill="#000000" fill-rule="nonzero" fill-opacity="1" /><polyline clip-path="url(#clip660)" style="stroke:#e26f46; stroke-linecap:round; stroke-linejoin:round; stroke-width:4; stroke-opacity:1; fill:none" points="2063.76,1325.48 2207.68,1325.48 "/>
<path clip-path="url(#clip660)" d="M2248.17 1306.74 L2248.17 1310.28 L2244.1 1310.28 Q2241.81 1310.28 2240.91 1311.2 Q2240.03 1312.13 2240.03 1314.54 L2240.03 1316.83 L2247.04 1316.83 L2247.04 1320.14 L2240.03 1320.14 L2240.03 1342.76 L2235.74 1342.76 L2235.74 1320.14 L2231.67 1320.14 L2231.67 1316.83 L2235.74 1316.83 L2235.74 1315.02 Q2235.74 1310.7 2237.76 1308.73 Q2239.77 1306.74 2244.15 1306.74 L2248.17 1306.74 Z" fill="#000000" fill-rule="nonzero" fill-opacity="1" /></svg>
