<?xml version="1.0" encoding="utf-8"?>
<svg xmlns="http://www.w3.org/2000/svg" xmlns:xlink="http://www.w3.org/1999/xlink" width="600" height="400" viewBox="0 0 2400 1600">
<defs>
  <clipPath id="clip370">
    <rect x="0" y="0" width="2400" height="1600"/>
  </clipPath>
</defs>
<path clip-path="url(#clip370)" d="M0 1600 L2400 1600 L2400 0 L0 0  Z" fill="#ffffff" fill-rule="evenodd" fill-opacity="1"/>
<defs>
  <clipPath id="clip371">
    <rect x="480" y="0" width="1681" height="1600"/>
  </clipPath>
</defs>
<path clip-path="url(#clip370)" d="M147.478 1423.18 L2352.76 1423.18 L2352.76 47.2441 L147.478 47.2441  Z" fill="#ffffff" fill-rule="evenodd" fill-opacity="1"/>
<defs>
  <clipPath id="clip372">
    <rect x="147" y="47" width="2206" height="1377"/>
  </clipPath>
</defs>
<polyline clip-path="url(#clip372)" style="stroke:#000000; stroke-linecap:round; stroke-linejoin:round; stroke-width:2; stroke-opacity:0.1; fill:none" points="147.478,1423.18 147.478,47.2441 "/>
<polyline clip-path="url(#clip372)" style="stroke:#000000; stroke-linecap:round; stroke-linejoin:round; stroke-width:2; stroke-opacity:0.1; fill:none" points="588.534,1423.18 588.534,47.2441 "/>
<polyline clip-path="url(#clip372)" style="stroke:#000000; stroke-linecap:round; stroke-linejoin:round; stroke-width:2; stroke-opacity:0.1; fill:none" points="1029.59,1423.18 1029.59,47.2441 "/>
<polyline clip-path="url(#clip372)" style="stroke:#000000; stroke-linecap:round; stroke-linejoin:round; stroke-width:2; stroke-opacity:0.1; fill:none" points="1470.64,1423.18 1470.64,47.2441 "/>
<polyline clip-path="url(#clip372)" style="stroke:#000000; stroke-linecap:round; stroke-linejoin:round; stroke-width:2; stroke-opacity:0.1; fill:none" points="1911.7,1423.18 1911.7,47.2441 "/>
<polyline clip-path="url(#clip372)" style="stroke:#000000; stroke-linecap:round; stroke-linejoin:round; stroke-width:2; stroke-opacity:0.1; fill:none" points="2352.76,1423.18 2352.76,47.2441 "/>
<polyline clip-path="url(#clip372)" style="stroke:#000000; stroke-linecap:round; stroke-linejoin:round; stroke-width:2; stroke-opacity:0.1; fill:none" points="147.478,1399.54 2352.76,1399.54 "/>
<polyline clip-path="url(#clip372)" style="stroke:#000000; stroke-linecap:round; stroke-linejoin:round; stroke-width:2; stroke-opacity:0.1; fill:none" points="147.478,983.429 2352.76,983.429 "/>
<polyline clip-path="url(#clip372)" style="stroke:#000000; stroke-linecap:round; stroke-linejoin:round; stroke-width:2; stroke-opacity:0.1; fill:none" points="147.478,567.322 2352.76,567.322 "/>
<polyline clip-path="url(#clip372)" style="stroke:#000000; stroke-linecap:round; stroke-linejoin:round; stroke-width:2; stroke-opacity:0.1; fill:none" points="147.478,151.215 2352.76,151.215 "/>
<polyline clip-path="url(#clip370)" style="stroke:#000000; stroke-linecap:round; stroke-linejoin:round; stroke-width:4; stroke-opacity:1; fill:none" points="147.478,1423.18 2352.76,1423.18 "/>
<polyline clip-path="url(#clip370)" style="stroke:#000000; stroke-linecap:round; stroke-linejoin:round; stroke-width:4; stroke-opacity:1; fill:none" points="147.478,1423.18 147.478,1404.28 "/>
<polyline clip-path="url(#clip370)" style="stroke:#000000; stroke-linecap:round; stroke-linejoin:round; stroke-width:4; stroke-opacity:1; fill:none" points="588.534,1423.18 588.534,1404.28 "/>
<polyline clip-path="url(#clip370)" style="stroke:#000000; stroke-linecap:round; stroke-linejoin:round; stroke-width:4; stroke-opacity:1; fill:none" points="1029.59,1423.18 1029.59,1404.28 "/>
<polyline clip-path="url(#clip370)" style="stroke:#000000; stroke-linecap:round; stroke-linejoin:round; stroke-width:4; stroke-opacity:1; fill:none" points="1470.64,1423.18 1470.64,1404.28 "/>
<polyline clip-path="url(#clip370)" style="stroke:#000000; stroke-linecap:round; stroke-linejoin:round; stroke-width:4; stroke-opacity:1; fill:none" points="1911.7,1423.18 1911.7,1404.28 "/>
<polyline clip-path="url(#clip370)" style="stroke:#000000; stroke-linecap:round; stroke-linejoin:round; stroke-width:4; stroke-opacity:1; fill:none" points="2352.76,1423.18 2352.76,1404.28 "/>
<path clip-path="url(#clip370)" d="M147.478 1454.1 Q143.867 1454.1 142.038 1457.66 Q140.233 1461.2 140.233 1468.33 Q140.233 1475.44 142.038 1479.01 Q143.867 1482.55 147.478 1482.55 Q151.112 1482.55 152.918 1479.01 Q154.746 1475.44 154.746 1468.33 Q154.746 1461.2 152.918 1457.66 Q151.112 1454.1 147.478 1454.1 M147.478 1450.39 Q153.288 1450.39 156.344 1455 Q159.422 1459.58 159.422 1468.33 Q159.422 1477.06 156.344 1481.67 Q153.288 1486.25 147.478 1486.25 Q141.668 1486.25 138.589 1481.67 Q135.534 1477.06 135.534 1468.33 Q135.534 1459.58 138.589 1455 Q141.668 1450.39 147.478 1450.39 Z" fill="#000000" fill-rule="nonzero" fill-opacity="1" /><path clip-path="url(#clip370)" d="M583.186 1481.64 L599.506 1481.64 L599.506 1485.58 L577.561 1485.58 L577.561 1481.64 Q580.223 1478.89 584.807 1474.26 Q589.413 1469.61 590.594 1468.27 Q592.839 1465.74 593.719 1464.01 Q594.621 1462.25 594.621 1460.56 Q594.621 1457.8 592.677 1456.07 Q590.756 1454.33 587.654 1454.33 Q585.455 1454.33 583.001 1455.09 Q580.571 1455.86 577.793 1457.41 L577.793 1452.69 Q580.617 1451.55 583.071 1450.97 Q585.524 1450.39 587.561 1450.39 Q592.932 1450.39 596.126 1453.08 Q599.32 1455.77 599.32 1460.26 Q599.32 1462.39 598.51 1464.31 Q597.723 1466.2 595.617 1468.8 Q595.038 1469.47 591.936 1472.69 Q588.834 1475.88 583.186 1481.64 Z" fill="#000000" fill-rule="nonzero" fill-opacity="1" /><path clip-path="url(#clip370)" d="M1032.6 1455.09 L1020.79 1473.54 L1032.6 1473.54 L1032.6 1455.09 M1031.37 1451.02 L1037.25 1451.02 L1037.25 1473.54 L1042.18 1473.54 L1042.18 1477.43 L1037.25 1477.43 L1037.25 1485.58 L1032.6 1485.58 L1032.6 1477.43 L1017 1477.43 L1017 1472.92 L1031.37 1451.02 Z" fill="#000000" fill-rule="nonzero" fill-opacity="1" /><path clip-path="url(#clip370)" d="M1471.05 1466.44 Q1467.9 1466.44 1466.05 1468.59 Q1464.22 1470.74 1464.22 1474.49 Q1464.22 1478.22 1466.05 1480.39 Q1467.9 1482.55 1471.05 1482.55 Q1474.2 1482.55 1476.03 1480.39 Q1477.88 1478.22 1477.88 1474.49 Q1477.88 1470.74 1476.03 1468.59 Q1474.2 1466.44 1471.05 1466.44 M1480.33 1451.78 L1480.33 1456.04 Q1478.57 1455.21 1476.77 1454.77 Q1474.98 1454.33 1473.23 1454.33 Q1468.6 1454.33 1466.14 1457.45 Q1463.71 1460.58 1463.36 1466.9 Q1464.73 1464.89 1466.79 1463.82 Q1468.85 1462.73 1471.33 1462.73 Q1476.54 1462.73 1479.55 1465.9 Q1482.58 1469.05 1482.58 1474.49 Q1482.58 1479.82 1479.43 1483.03 Q1476.28 1486.25 1471.05 1486.25 Q1465.05 1486.25 1461.88 1481.67 Q1458.71 1477.06 1458.71 1468.33 Q1458.71 1460.14 1462.6 1455.28 Q1466.49 1450.39 1473.04 1450.39 Q1474.8 1450.39 1476.58 1450.74 Q1478.39 1451.09 1480.33 1451.78 Z" fill="#000000" fill-rule="nonzero" fill-opacity="1" /><path clip-path="url(#clip370)" d="M1911.7 1469.17 Q1908.37 1469.17 1906.45 1470.95 Q1904.55 1472.73 1904.55 1475.86 Q1904.55 1478.98 1906.45 1480.77 Q1908.37 1482.55 1911.7 1482.55 Q1915.03 1482.55 1916.95 1480.77 Q1918.88 1478.96 1918.88 1475.86 Q1918.88 1472.73 1916.95 1470.95 Q1915.06 1469.17 1911.7 1469.17 M1907.02 1467.18 Q1904.02 1466.44 1902.33 1464.38 Q1900.66 1462.32 1900.66 1459.35 Q1900.66 1455.21 1903.6 1452.8 Q1906.56 1450.39 1911.7 1450.39 Q1916.86 1450.39 1919.8 1452.8 Q1922.74 1455.21 1922.74 1459.35 Q1922.74 1462.32 1921.05 1464.38 Q1919.39 1466.44 1916.4 1467.18 Q1919.78 1467.96 1921.65 1470.26 Q1923.55 1472.55 1923.55 1475.86 Q1923.55 1480.88 1920.47 1483.57 Q1917.42 1486.25 1911.7 1486.25 Q1905.98 1486.25 1902.9 1483.57 Q1899.85 1480.88 1899.85 1475.86 Q1899.85 1472.55 1901.75 1470.26 Q1903.64 1467.96 1907.02 1467.18 M1905.31 1459.79 Q1905.31 1462.48 1906.98 1463.98 Q1908.67 1465.49 1911.7 1465.49 Q1914.71 1465.49 1916.4 1463.98 Q1918.11 1462.48 1918.11 1459.79 Q1918.11 1457.11 1916.4 1455.6 Q1914.71 1454.1 1911.7 1454.1 Q1908.67 1454.1 1906.98 1455.6 Q1905.31 1457.11 1905.31 1459.79 Z" fill="#000000" fill-rule="nonzero" fill-opacity="1" /><path clip-path="url(#clip370)" d="M2327.44 1481.64 L2335.08 1481.64 L2335.08 1455.28 L2326.77 1456.95 L2326.77 1452.69 L2335.04 1451.02 L2339.71 1451.02 L2339.71 1481.64 L2347.35 1481.64 L2347.35 1485.58 L2327.44 1485.58 L2327.44 1481.64 Z" fill="#000000" fill-rule="nonzero" fill-opacity="1" /><path clip-path="url(#clip370)" d="M2366.8 1454.1 Q2363.18 1454.1 2361.36 1457.66 Q2359.55 1461.2 2359.55 1468.33 Q2359.55 1475.44 2361.36 1479.01 Q2363.18 1482.55 2366.8 1482.55 Q2370.43 1482.55 2372.23 1479.01 Q2374.06 1475.44 2374.06 1468.33 Q2374.06 1461.2 2372.23 1457.66 Q2370.43 1454.1 2366.8 1454.1 M2366.8 1450.39 Q2372.61 1450.39 2375.66 1455 Q2378.74 1459.58 2378.74 1468.33 Q2378.74 1477.06 2375.66 1481.67 Q2372.61 1486.25 2366.8 1486.25 Q2360.99 1486.25 2357.91 1481.67 Q2354.85 1477.06 2354.85 1468.33 Q2354.85 1459.58 2357.91 1455 Q2360.99 1450.39 2366.8 1450.39 Z" fill="#000000" fill-rule="nonzero" fill-opacity="1" /><path clip-path="url(#clip370)" d="M1249.18 1522.27 L1249.18 1532.4 L1261.24 1532.4 L1261.24 1536.95 L1249.18 1536.95 L1249.18 1556.3 Q1249.18 1560.66 1250.36 1561.9 Q1251.57 1563.14 1255.23 1563.14 L1261.24 1563.14 L1261.24 1568.04 L1255.23 1568.04 Q1248.45 1568.04 1245.87 1565.53 Q1243.29 1562.98 1243.29 1556.3 L1243.29 1536.95 L1238.99 1536.95 L1238.99 1532.4 L1243.29 1532.4 L1243.29 1522.27 L1249.18 1522.27 Z" fill="#000000" fill-rule="nonzero" fill-opacity="1" /><polyline clip-path="url(#clip370)" style="stroke:#000000; stroke-linecap:round; stroke-linejoin:round; stroke-width:4; stroke-opacity:1; fill:none" points="147.478,1423.18 147.478,47.2441 "/>
<polyline clip-path="url(#clip370)" style="stroke:#000000; stroke-linecap:round; stroke-linejoin:round; stroke-width:4; stroke-opacity:1; fill:none" points="147.478,1399.54 166.376,1399.54 "/>
<polyline clip-path="url(#clip370)" style="stroke:#000000; stroke-linecap:round; stroke-linejoin:round; stroke-width:4; stroke-opacity:1; fill:none" points="147.478,983.429 166.376,983.429 "/>
<polyline clip-path="url(#clip370)" style="stroke:#000000; stroke-linecap:round; stroke-linejoin:round; stroke-width:4; stroke-opacity:1; fill:none" points="147.478,567.322 166.376,567.322 "/>
<polyline clip-path="url(#clip370)" style="stroke:#000000; stroke-linecap:round; stroke-linejoin:round; stroke-width:4; stroke-opacity:1; fill:none" points="147.478,151.215 166.376,151.215 "/>
<path clip-path="url(#clip370)" d="M51.3625 1399.99 L81.0383 1399.99 L81.0383 1403.92 L51.3625 1403.92 L51.3625 1399.99 Z" fill="#000000" fill-rule="nonzero" fill-opacity="1" /><path clip-path="url(#clip370)" d="M95.1586 1412.88 L111.478 1412.88 L111.478 1416.82 L89.5336 1416.82 L89.5336 1412.88 Q92.1956 1410.13 96.7789 1405.5 Q101.385 1400.84 102.566 1399.5 Q104.811 1396.98 105.691 1395.24 Q106.594 1393.48 106.594 1391.79 Q106.594 1389.04 104.649 1387.3 Q102.728 1385.57 99.6261 1385.57 Q97.4271 1385.57 94.9734 1386.33 Q92.5428 1387.09 89.7651 1388.64 L89.7651 1383.92 Q92.5891 1382.79 95.0428 1382.21 Q97.4965 1381.63 99.5335 1381.63 Q104.904 1381.63 108.098 1384.32 Q111.293 1387 111.293 1391.49 Q111.293 1393.62 110.483 1395.54 Q109.696 1397.44 107.589 1400.03 Q107.01 1400.7 103.909 1403.92 Q100.807 1407.12 95.1586 1412.88 Z" fill="#000000" fill-rule="nonzero" fill-opacity="1" /><path clip-path="url(#clip370)" d="M50.9921 983.88 L80.6679 983.88 L80.6679 987.815 L50.9921 987.815 L50.9921 983.88 Z" fill="#000000" fill-rule="nonzero" fill-opacity="1" /><path clip-path="url(#clip370)" d="M91.5706 996.774 L99.2095 996.774 L99.2095 970.408 L90.8993 972.075 L90.8993 967.816 L99.1632 966.149 L103.839 966.149 L103.839 996.774 L111.478 996.774 L111.478 1000.71 L91.5706 1000.71 L91.5706 996.774 Z" fill="#000000" fill-rule="nonzero" fill-opacity="1" /><path clip-path="url(#clip370)" d="M99.5335 553.12 Q95.9224 553.12 94.0937 556.685 Q92.2882 560.227 92.2882 567.356 Q92.2882 574.463 94.0937 578.028 Q95.9224 581.569 99.5335 581.569 Q103.168 581.569 104.973 578.028 Q106.802 574.463 106.802 567.356 Q106.802 560.227 104.973 556.685 Q103.168 553.12 99.5335 553.12 M99.5335 549.417 Q105.344 549.417 108.399 554.023 Q111.478 558.607 111.478 567.356 Q111.478 576.083 108.399 580.69 Q105.344 585.273 99.5335 585.273 Q93.7234 585.273 90.6447 580.69 Q87.5892 576.083 87.5892 567.356 Q87.5892 558.607 90.6447 554.023 Q93.7234 549.417 99.5335 549.417 Z" fill="#000000" fill-rule="nonzero" fill-opacity="1" /><path clip-path="url(#clip370)" d="M91.5706 164.56 L99.2095 164.56 L99.2095 138.194 L90.8993 139.861 L90.8993 135.601 L99.1632 133.935 L103.839 133.935 L103.839 164.56 L111.478 164.56 L111.478 168.495 L91.5706 168.495 L91.5706 164.56 Z" fill="#000000" fill-rule="nonzero" fill-opacity="1" /><polyline clip-path="url(#clip372)" style="stroke:#009af9; stroke-linecap:round; stroke-linejoin:round; stroke-width:4; stroke-opacity:1; fill:none" points="147.478,567.322 149.685,561.885 151.893,556.52 154.1,551.226 156.308,546.002 158.515,540.848 160.723,535.762 162.93,530.743 165.138,525.791 167.345,520.905 169.553,516.083 171.76,511.326 173.968,506.631 176.175,501.999 178.383,497.428 180.59,492.917 182.798,488.467 185.005,484.075 187.213,479.742 189.42,475.466 191.628,471.247 193.835,467.083 196.043,462.975 198.25,458.922 200.458,454.922 202.665,450.975 204.873,447.081 207.08,443.238 209.288,439.446 211.495,435.704 213.702,432.012 215.91,428.369 218.117,424.774 220.325,421.227 222.532,417.727 224.74,414.273 226.947,410.865 229.155,407.503 231.362,404.184 233.57,400.91 235.777,397.68 237.985,394.492 240.192,391.346 242.4,388.242 244.607,385.179 246.815,382.157 249.022,379.175 251.23,376.232 253.437,373.329 255.645,370.464 257.852,367.637 260.06,364.847 262.267,362.095 264.475,359.378 266.682,356.698 268.89,354.054 271.097,351.444 273.305,348.869 275.512,346.329 277.72,343.821 279.927,341.348 282.135,338.906 284.342,336.498 286.549,334.121 288.757,331.776 290.964,329.461 293.172,327.178 295.379,324.925 297.587,322.701 299.794,320.507 302.002,318.343 304.209,316.207 306.417,314.099 308.624,312.019 310.832,309.967 313.039,307.942 315.247,305.944 317.454,303.972 319.662,302.027 321.869,300.107 324.077,298.213 326.284,296.344 328.492,294.499 330.699,292.679 332.907,290.884 335.114,289.112 337.322,287.363 339.529,285.638 341.737,283.935 343.944,282.255 346.152,280.598 348.359,278.962 350.567,277.348 352.774,275.756 354.982,274.184 357.189,272.634 359.397,271.104 361.604,269.594 363.811,268.104 366.019,266.634 368.226,265.193 370.434,264.31 372.641,264.222 374.849,264.843 377.056,266.089 379.264,267.881 381.471,270.146 383.679,272.812 385.886,275.814 388.094,279.091 390.301,282.586 392.509,286.244 394.716,290.019 396.924,293.866 399.131,297.745 401.339,301.621 403.546,305.462 405.754,309.241 407.961,312.936 410.169,316.529 412.376,320.006 414.584,323.357 416.791,326.577 418.999,329.665 421.206,332.625 423.414,335.464 425.621,338.195 427.829,340.833 430.036,343.4 432.244,345.92 434.451,348.423 436.659,350.943 438.866,353.515 441.073,356.092 443.281,358.634 445.488,361.143 447.696,363.618 449.903,366.061 452.111,368.471 454.318,370.849 456.526,373.196 458.733,375.512 460.941,377.797 463.148,380.051 465.356,382.276 467.563,384.471 469.771,386.637 471.978,388.775 474.186,390.884 476.393,392.965 478.601,395.019 480.808,397.046 483.016,399.045 485.223,401.019 487.431,402.966 489.638,404.887 491.846,406.783 494.053,408.654 496.261,410.5 498.468,412.321 500.676,414.118 502.883,415.891 505.091,417.641 507.298,419.368 509.506,421.071 511.713,422.752 513.921,424.411 516.128,426.048 518.335,427.663 520.543,429.256 522.75,430.828 524.958,432.38 527.165,433.91 529.373,435.421 531.58,436.911 533.788,438.382 535.995,439.833 538.203,441.265 540.41,442.678 542.618,444.072 544.825,445.448 547.033,446.805 549.24,448.144 551.448,449.466 553.655,450.77 555.863,452.057 558.07,453.327 560.278,454.58 562.485,455.817 564.693,457.037 566.9,458.241 569.108,459.429 571.315,460.601 573.523,461.758 575.73,462.899 577.938,464.026 580.145,465.137 582.353,466.234 584.56,467.316 586.768,468.774 588.975,472.182 591.182,477.459 593.39,484.336 595.597,492.56 597.805,501.896 600.012,512.127 602.22,523.053 604.427,534.489 606.635,546.271 608.842,558.249 611.05,570.292 613.257,582.286 615.465,594.133 617.672,605.754 619.88,617.086 622.087,628.084 624.295,638.72 626.502,648.984 628.71,658.88 630.917,668.433 633.125,677.684 635.332,686.691 637.54,695.53 639.747,704.292 641.955,713.087 644.162,721.967 646.37,730.748 648.577,739.412 650.785,747.961 652.992,756.397 655.2,764.72 657.407,772.934 659.615,781.039 661.822,789.036 664.03,796.927 666.237,804.714 668.444,812.397 670.652,819.978 672.859,827.459 675.067,834.841 677.274,842.125 679.482,849.313 681.689,856.405 683.897,863.404 686.104,870.309 688.312,877.124 690.519,883.847 692.727,890.482 694.934,897.028 697.142,903.488 699.349,909.862 701.557,916.152 703.764,922.358 705.972,928.481 708.179,934.524 710.387,940.486 712.594,946.369 714.802,952.174 717.009,957.902 719.217,963.554 721.424,969.132 723.632,974.635 725.839,980.065 728.047,985.423 730.254,990.71 732.462,995.927 734.669,1001.08 736.877,1006.16 739.084,1011.17 741.292,1016.11 743.499,1020.99 745.706,1025.81 747.914,1030.56 750.121,1035.25 752.329,1039.88 754.536,1044.44 756.744,1048.95 758.951,1053.39 761.159,1057.78 763.366,1062.11 765.574,1066.38 767.781,1070.59 769.989,1074.75 772.196,1078.85 774.404,1082.9 776.611,1086.9 778.819,1090.84 781.026,1094.73 783.234,1098.57 785.441,1102.36 787.649,1106.09 789.856,1109.78 792.064,1113.42 794.271,1117.01 796.479,1120.55 798.686,1124.26 800.894,1130.58 803.101,1135.21 805.309,1134.02 807.516,1125.78 809.724,1112.21 811.931,1097.83 814.139,1084.42 816.346,1071.19 818.553,1058.13 820.761,1045.24 822.968,1032.53 825.176,1019.98 827.383,1007.6 829.591,995.382 831.798,983.327 834.006,971.433 836.213,959.696 838.421,948.115 840.628,936.687 842.836,925.411 845.043,914.285 847.251,903.306 849.458,892.473 851.666,881.783 853.873,871.235 856.081,860.827 858.288,850.557 860.496,840.423 862.703,830.424 864.911,820.557 867.118,810.821 869.326,801.213 871.533,791.734 873.741,782.38 875.948,773.149 878.156,764.042 880.363,755.055 882.571,746.187 884.778,737.436 886.986,728.802 889.193,720.282 891.401,711.875 893.608,703.58 895.815,695.394 898.023,687.317 900.23,679.347 902.438,671.483 904.645,663.723 906.853,656.067 909.06,648.511 911.268,641.056 913.475,633.699 915.683,626.441 917.89,619.278 920.098,612.21 922.305,605.236 924.513,598.355 926.72,591.564 928.928,584.864 931.135,578.252 933.343,571.729 935.55,565.291 937.758,558.939 939.965,552.671 942.173,546.486 944.38,540.383 946.588,534.361 948.795,528.419 951.003,522.556 953.21,516.771 955.418,511.062 957.625,505.429 959.833,499.871 962.04,494.386 964.248,488.974 966.455,483.634 968.663,478.365 970.87,473.166 973.077,468.035 975.285,462.973 977.492,457.977 979.7,453.048 981.907,448.185 984.115,443.385 986.322,438.65 988.53,433.977 990.737,429.366 992.945,424.816 995.152,420.326 997.36,415.896 999.567,411.525 1001.77,407.211 1003.98,402.955 1006.19,398.756 1008.4,394.611 1010.6,390.522 1012.81,386.487 1015.02,382.506 1017.23,378.577 1019.43,374.701 1021.64,370.876 1023.85,367.101 1026.06,363.401 1028.26,360.323 1030.47,358.03 1032.68,356.435 1034.89,355.455 1037.09,355.013 1039.3,355.034 1041.51,355.45 1043.72,356.196 1045.92,357.213 1048.13,358.444 1050.34,359.839 1052.55,361.35 1054.75,362.937 1056.96,364.562 1059.17,366.191 1061.38,367.795 1063.58,369.351 1065.79,370.839 1068,372.244 1070.21,373.555 1072.41,374.766 1074.62,375.876 1076.83,376.886 1079.04,377.806 1081.24,378.645 1083.45,379.421 1085.66,380.155 1087.87,380.871 1090.07,381.6 1092.28,382.375 1094.49,383.222 1096.7,384.074 1098.9,384.914 1101.11,385.743 1103.32,386.561 1105.53,387.368 1107.73,388.165 1109.94,388.951 1112.15,389.726 1114.36,390.491 1116.56,391.246 1118.77,391.992 1120.98,392.727 1123.19,393.452 1125.39,394.168 1127.6,394.874 1129.81,395.571 1132.02,396.259 1134.22,396.938 1136.43,397.608 1138.64,398.269 1140.85,398.921 1143.05,399.565 1145.26,400.2 1147.47,400.826 1149.68,401.445 1151.88,402.055 1154.09,402.657 1156.3,403.251 1158.51,403.837 1160.71,404.415 1162.92,404.986 1165.13,405.549 1167.34,406.105 1169.54,406.653 1171.75,407.194 1173.96,407.728 1176.17,408.254 1178.37,408.774 1180.58,409.287 1182.79,409.792 1185,410.292 1187.2,410.784 1189.41,411.27 1191.62,411.75 1193.83,412.223 1196.03,412.69 1198.24,413.15 1200.45,413.605 1202.66,414.053 1204.86,414.496 1207.07,414.932 1209.28,415.363 1211.49,415.788 1213.69,416.208 1215.9,416.622 1218.11,417.03 1220.32,417.433 1222.52,417.831 1224.73,418.223 1226.94,418.611 1229.15,418.993 1231.35,419.37 1233.56,419.742 1235.77,420.109 1237.98,420.472 1240.18,420.829 1242.39,421.152 1244.6,421.313 1246.81,421.311 1249.01,421.164 1251.22,420.885 1253.43,420.489 1255.64,419.989 1257.84,419.4 1260.05,418.732 1262.26,417.998 1264.47,417.209 1266.67,416.374 1268.88,415.504 1271.09,414.608 1273.3,413.694 1275.5,412.769 1277.71,411.841 1279.92,410.915 1282.13,409.997 1284.33,409.093 1286.54,408.206 1288.75,407.34 1290.96,406.498 1293.16,405.682 1295.37,404.894 1297.58,404.134 1299.79,403.404 1301.99,402.701 1304.2,402.026 1306.41,401.376 1308.62,400.749 1310.82,400.141 1313.03,399.55 1315.24,398.969 1317.45,398.395 1319.65,397.821 1321.86,397.241 1324.07,396.65 1326.28,396.063 1328.48,395.484 1330.69,394.912 1332.9,394.348 1335.11,393.792 1337.31,393.242 1339.52,392.7 1341.73,392.166 1343.94,391.638 1346.14,391.117 1348.35,390.604 1350.56,390.097 1352.76,389.597 1354.97,389.103 1357.18,388.616 1359.39,388.135 1361.59,387.661 1363.8,387.193 1366.01,386.732 1368.22,386.276 1370.42,385.827 1372.63,385.383 1374.84,384.945 1377.05,384.513 1379.25,384.087 1381.46,383.667 1383.67,383.252 1385.88,382.842 1388.08,382.438 1390.29,382.04 1392.5,381.646 1394.71,381.258 1396.91,380.875 1399.12,380.497 1401.33,380.124 1403.54,379.756 1405.74,379.393 1407.95,379.035 1410.16,378.681 1412.37,378.332 1414.57,377.988 1416.78,377.648 1418.99,377.313 1421.2,376.983 1423.4,376.656 1425.61,376.334 1427.82,376.017 1430.03,375.703 1432.23,375.394 1434.44,375.088 1436.65,374.787 1438.86,374.49 1441.06,374.197 1443.27,373.907 1445.48,373.622 1447.69,373.34 1449.89,373.062 1452.1,372.787 1454.31,372.517 1456.52,372.25 1458.72,371.986 1460.93,371.726 1463.14,371.469 1465.35,371.216 1467.55,371.038 1469.76,371.534 1471.97,372.769 1474.18,374.659 1476.38,377.122 1478.59,380.084 1480.8,383.472 1483.01,387.219 1485.21,391.261 1487.42,395.54 1489.63,400.001 1491.84,404.593 1494.04,409.271 1496.25,413.993 1498.46,418.72 1500.67,423.421 1502.87,428.065 1505.08,432.629 1507.29,437.091 1509.5,441.436 1511.7,445.652 1513.91,449.731 1516.12,453.669 1518.33,457.469 1520.53,461.134 1522.74,464.675 1524.95,468.106 1527.16,471.444 1529.36,474.712 1531.57,477.936 1533.78,481.148 1535.99,484.382 1538.19,487.653 1540.4,490.887 1542.61,494.079 1544.82,497.228 1547.02,500.335 1549.23,503.402 1551.44,506.427 1553.65,509.413 1555.85,512.359 1558.06,515.266 1560.27,518.134 1562.48,520.964 1564.68,523.757 1566.89,526.513 1569.1,529.232 1571.31,531.915 1573.51,534.563 1575.72,537.176 1577.93,539.754 1580.14,542.298 1582.34,544.808 1584.55,547.285 1586.76,549.729 1588.97,552.141 1591.17,554.52 1593.38,556.868 1595.59,559.185 1597.8,561.471 1600,563.727 1602.21,565.953 1604.42,568.15 1606.63,570.317 1608.83,572.455 1611.04,574.565 1613.25,576.647 1615.46,578.702 1617.66,580.729 1619.87,582.729 1622.08,584.703 1624.29,586.65 1626.49,588.572 1628.7,590.468 1630.91,592.34 1633.12,594.186 1635.32,596.008 1637.53,597.805 1639.74,599.579 1641.95,601.33 1644.15,603.057 1646.36,604.761 1648.57,606.443 1650.78,608.103 1652.98,609.74 1655.19,611.356 1657.4,612.95 1659.61,614.523 1661.81,616.076 1664.02,617.608 1666.23,619.119 1668.44,620.611 1670.64,622.082 1672.85,623.534 1675.06,624.967 1677.27,626.381 1679.47,627.776 1681.68,629.153 1683.89,630.512 1686.1,631.916 1688.3,634.522 1690.51,638.387 1692.72,643.084 1694.93,648.256 1697.13,653.621 1699.34,658.968 1701.55,664.16 1703.76,669.13 1705.96,673.886 1708.17,678.509 1710.38,683.135 1712.59,687.734 1714.79,692.273 1717,696.752 1719.21,701.171 1721.42,705.531 1723.62,709.834 1725.83,714.08 1728.04,718.27 1730.25,722.404 1732.45,726.483 1734.66,730.508 1736.87,734.48 1739.07,738.399 1741.28,742.266 1743.49,746.082 1745.7,749.847 1747.9,753.562 1750.11,757.228 1752.32,760.845 1754.53,764.415 1756.73,767.937 1758.94,771.412 1761.15,774.842 1763.36,778.225 1765.56,781.564 1767.77,784.859 1769.98,788.11 1772.19,791.318 1774.39,794.483 1776.6,797.607 1778.81,800.689 1781.02,803.73 1783.22,806.731 1785.43,809.692 1787.64,812.614 1789.85,815.497 1792.05,818.342 1794.26,821.149 1796.47,823.919 1798.68,826.652 1800.88,829.349 1803.09,832.01 1805.3,834.636 1807.51,837.228 1809.71,839.784 1811.92,842.307 1814.13,844.797 1816.34,847.253 1818.54,849.677 1820.75,852.068 1822.96,854.428 1825.17,856.757 1827.37,859.055 1829.58,861.322 1831.79,863.56 1834,865.767 1836.2,867.946 1838.41,870.095 1840.62,872.216 1842.83,874.309 1845.03,876.374 1847.24,878.412 1849.45,880.423 1851.66,882.407 1853.86,884.365 1856.07,886.297 1858.28,888.203 1860.49,890.084 1862.69,891.94 1864.9,893.771 1867.11,895.578 1869.32,897.361 1871.52,899.121 1873.73,900.857 1875.94,902.57 1878.15,904.261 1880.35,905.929 1882.56,907.575 1884.77,909.199 1886.98,910.801 1889.18,912.382 1891.39,913.943 1893.6,915.482 1895.81,917.002 1898.01,918.501 1900.22,919.98 1902.43,921.44 1904.64,922.88 1906.84,924.301 1909.05,925.704 1911.26,927.087 1913.47,927.533 1915.67,925.605 1917.88,921.609 1920.09,915.866 1922.3,908.669 1924.5,900.295 1926.71,890.994 1928.92,880.998 1931.13,870.514 1933.33,859.728 1935.54,848.805 1937.75,837.886 1939.96,827.092 1942.16,816.519 1944.37,806.245 1946.58,796.322 1948.79,786.783 1950.99,777.636 1953.2,768.871 1955.41,760.452 1957.62,752.323 1959.82,744.405 1962.03,736.598 1964.24,728.78 1966.45,720.824 1968.65,712.897 1970.86,705.075 1973.07,697.356 1975.28,689.74 1977.48,682.224 1979.69,674.809 1981.9,667.491 1984.11,660.271 1986.31,653.146 1988.52,646.116 1990.73,639.179 1992.94,632.334 1995.14,625.58 1997.35,618.915 1999.56,612.339 2001.77,605.85 2003.97,599.447 2006.18,593.129 2008.39,586.894 2010.6,580.742 2012.8,574.671 2015.01,568.682 2017.22,562.771 2019.43,556.939 2021.63,551.184 2023.84,545.506 2026.05,539.903 2028.26,534.374 2030.46,528.918 2032.67,523.535 2034.88,518.224 2037.09,512.982 2039.29,507.811 2041.5,502.707 2043.71,497.672 2045.92,492.703 2048.12,487.8 2050.33,482.963 2052.54,478.189 2054.75,473.479 2056.95,468.831 2059.16,464.244 2061.37,459.719 2063.58,455.253 2065.78,450.846 2067.99,446.498 2070.2,442.208 2072.41,437.974 2074.61,433.797 2076.82,429.675 2079.03,425.608 2081.24,421.594 2083.44,417.634 2085.65,413.726 2087.86,409.87 2090.07,406.065 2092.27,402.311 2094.48,398.606 2096.69,394.951 2098.9,391.344 2101.1,387.785 2103.31,384.273 2105.52,380.807 2107.73,377.388 2109.93,374.014 2112.14,370.685 2114.35,367.399 2116.55,364.158 2118.76,360.959 2120.97,357.803 2123.18,354.688 2125.38,351.615 2127.59,348.599 2129.8,346.078 2132.01,344.193 2134.21,342.877 2136.42,342.065 2138.63,341.698 2140.84,341.716 2143.04,342.066 2145.25,342.698 2147.46,343.564 2149.67,344.618 2151.87,345.822 2154.08,347.136 2156.29,348.527 2158.5,349.964 2160.7,351.418 2162.91,352.867 2165.12,354.288 2167.33,355.665 2169.53,356.982 2171.74,358.229 2173.95,359.398 2176.16,360.485 2178.36,361.488 2180.57,362.41 2182.78,363.257 2184.99,364.037 2187.19,364.762 2189.4,365.448 2191.61,366.114 2193.82,366.782 2196.02,367.477 2198.23,368.228 2200.44,369.005 2202.65,369.772 2204.85,370.529 2207.06,371.276 2209.27,372.012 2211.48,372.739 2213.68,373.457 2215.89,374.165 2218.1,374.863 2220.31,375.552 2222.51,376.232 2224.72,376.903 2226.93,377.566 2229.14,378.219 2231.34,378.864 2233.55,379.5 2235.76,380.128 2237.97,380.747 2240.17,381.358 2242.38,381.961 2244.59,382.557 2246.8,383.144 2249,383.723 2251.21,384.295 2253.42,384.86 2255.63,385.416 2257.83,385.966 2260.04,386.508 2262.25,387.043 2264.46,387.571 2266.66,388.092 2268.87,388.606 2271.08,389.113 2273.29,389.613 2275.49,390.107 2277.7,390.595 2279.91,391.075 2282.12,391.55 2284.32,392.018 2286.53,392.48 2288.74,392.935 2290.95,393.385 2293.15,393.829 2295.36,394.266 2297.57,394.698 2299.78,395.124 2301.98,395.545 2304.19,395.96 2306.4,396.369 2308.61,396.773 2310.81,397.172 2313.02,397.565 2315.23,397.953 2317.44,398.336 2319.64,398.714 2321.85,399.087 2324.06,399.455 2326.27,399.818 2328.47,400.176 2330.68,400.529 2332.89,400.878 2335.1,401.222 2337.3,401.562 2339.51,401.897 2341.72,402.228 2343.93,402.554 2346.13,402.876 2348.34,403.194 2350.55,403.508 2352.76,403.817 "/>
<polyline clip-path="url(#clip372)" style="stroke:#e26f46; stroke-linecap:round; stroke-linejoin:round; stroke-width:4; stroke-opacity:1; fill:none" points="147.478,157.228 149.685,157.228 151.893,157.228 154.1,157.228 156.308,157.228 158.515,157.228 160.723,157.228 162.93,157.228 165.138,157.228 167.345,157.228 169.553,157.228 171.76,157.228 173.968,157.228 176.175,157.228 178.383,157.228 180.59,157.228 182.798,157.228 185.005,157.228 187.213,157.228 189.42,157.228 191.628,157.228 193.835,157.228 196.043,157.228 198.25,157.228 200.458,157.228 202.665,157.228 204.873,157.228 207.08,157.228 209.288,157.228 211.495,157.228 213.702,157.228 215.91,157.228 218.117,157.228 220.325,157.228 222.532,157.228 224.74,157.228 226.947,157.228 229.155,157.228 231.362,157.228 233.57,157.228 235.777,157.228 237.985,157.228 240.192,157.228 242.4,157.228 244.607,157.228 246.815,157.228 249.022,157.228 251.23,157.228 253.437,157.228 255.645,157.228 257.852,157.228 260.06,157.228 262.267,157.228 264.475,157.228 266.682,157.228 268.89,157.228 271.097,157.228 273.305,157.228 275.512,157.228 277.72,157.228 279.927,157.228 282.135,157.228 284.342,157.228 286.549,157.228 288.757,157.228 290.964,157.228 293.172,157.228 295.379,157.228 297.587,157.228 299.794,157.228 302.002,157.228 304.209,157.228 306.417,157.228 308.624,157.228 310.832,157.228 313.039,157.228 315.247,157.228 317.454,157.228 319.662,157.228 321.869,157.228 324.077,157.228 326.284,157.228 328.492,157.228 330.699,157.228 332.907,157.228 335.114,157.228 337.322,157.228 339.529,157.228 341.737,157.228 343.944,157.228 346.152,157.228 348.359,157.228 350.567,157.228 352.774,157.228 354.982,157.228 357.189,157.228 359.397,157.228 361.604,157.228 363.811,157.228 366.019,157.228 368.226,547.855 370.434,547.855 372.641,547.855 374.849,547.855 377.056,547.855 379.264,547.855 381.471,547.855 383.679,547.855 385.886,547.855 388.094,547.855 390.301,547.855 392.509,547.855 394.716,547.855 396.924,547.855 399.131,547.855 401.339,547.855 403.546,547.855 405.754,547.855 407.961,547.855 410.169,547.855 412.376,547.855 414.584,547.855 416.791,547.855 418.999,547.855 421.206,547.855 423.414,547.855 425.621,547.855 427.829,547.855 430.036,547.855 432.244,547.855 434.451,547.855 436.659,547.855 438.866,547.855 441.073,547.855 443.281,547.855 445.488,547.855 447.696,547.855 449.903,547.855 452.111,547.855 454.318,547.855 456.526,547.855 458.733,547.855 460.941,547.855 463.148,547.855 465.356,547.855 467.563,547.855 469.771,547.855 471.978,547.855 474.186,547.855 476.393,547.855 478.601,547.855 480.808,547.855 483.016,547.855 485.223,547.855 487.431,547.855 489.638,547.855 491.846,547.855 494.053,547.855 496.261,547.855 498.468,547.855 500.676,547.855 502.883,547.855 505.091,547.855 507.298,547.855 509.506,547.855 511.713,547.855 513.921,547.855 516.128,547.855 518.335,547.855 520.543,547.855 522.75,547.855 524.958,547.855 527.165,547.855 529.373,547.855 531.58,547.855 533.788,547.855 535.995,547.855 538.203,547.855 540.41,547.855 542.618,547.855 544.825,547.855 547.033,547.855 549.24,547.855 551.448,547.855 553.655,547.855 555.863,547.855 558.07,547.855 560.278,547.855 562.485,547.855 564.693,547.855 566.9,547.855 569.108,547.855 571.315,547.855 573.523,547.855 575.73,547.855 577.938,547.855 580.145,547.855 582.353,547.855 584.56,547.855 586.768,547.855 588.975,1384.24 591.182,1384.24 593.39,1384.24 595.597,1384.24 597.805,1384.24 600.012,1384.24 602.22,1384.24 604.427,1384.24 606.635,1384.24 608.842,1384.24 611.05,1384.24 613.257,1384.24 615.465,1384.24 617.672,1384.24 619.88,1384.24 622.087,1384.24 624.295,1384.24 626.502,1384.24 628.71,1384.24 630.917,1384.24 633.125,1384.24 635.332,1384.24 637.54,1384.24 639.747,1384.24 641.955,1384.24 644.162,1384.24 646.37,1384.24 648.577,1384.24 650.785,1384.24 652.992,1384.24 655.2,1384.24 657.407,1384.24 659.615,1384.24 661.822,1384.24 664.03,1384.24 666.237,1384.24 668.444,1384.24 670.652,1384.24 672.859,1384.24 675.067,1384.24 677.274,1384.24 679.482,1384.24 681.689,1384.24 683.897,1384.24 686.104,1384.24 688.312,1384.24 690.519,1384.24 692.727,1384.24 694.934,1384.24 697.142,1384.24 699.349,1384.24 701.557,1384.24 703.764,1384.24 705.972,1384.24 708.179,1384.24 710.387,1384.24 712.594,1384.24 714.802,1384.24 717.009,1384.24 719.217,1384.24 721.424,1384.24 723.632,1384.24 725.839,1384.24 728.047,1384.24 730.254,1384.24 732.462,1384.24 734.669,1384.24 736.877,1384.24 739.084,1384.24 741.292,1384.24 743.499,1384.24 745.706,1384.24 747.914,1384.24 750.121,1384.24 752.329,1384.24 754.536,1384.24 756.744,1384.24 758.951,1384.24 761.159,1384.24 763.366,1384.24 765.574,1384.24 767.781,1384.24 769.989,1384.24 772.196,1384.24 774.404,1384.24 776.611,1384.24 778.819,1384.24 781.026,1384.24 783.234,1384.24 785.441,1384.24 787.649,1384.24 789.856,1384.24 792.064,1384.24 794.271,1384.24 796.479,1384.24 798.686,1384.24 800.894,1384.24 803.101,1384.24 805.309,1384.24 807.516,1384.24 809.724,86.1857 811.931,86.1857 814.139,86.1857 816.346,86.1857 818.553,86.1857 820.761,86.1857 822.968,86.1857 825.176,86.1857 827.383,86.1857 829.591,86.1857 831.798,86.1857 834.006,86.1857 836.213,86.1857 838.421,86.1857 840.628,86.1857 842.836,86.1857 845.043,86.1857 847.251,86.1857 849.458,86.1857 851.666,86.1857 853.873,86.1857 856.081,86.1857 858.288,86.1857 860.496,86.1857 862.703,86.1857 864.911,86.1857 867.118,86.1857 869.326,86.1857 871.533,86.1857 873.741,86.1857 875.948,86.1857 878.156,86.1857 880.363,86.1857 882.571,86.1857 884.778,86.1857 886.986,86.1857 889.193,86.1857 891.401,86.1857 893.608,86.1857 895.815,86.1857 898.023,86.1857 900.23,86.1857 902.438,86.1857 904.645,86.1857 906.853,86.1857 909.06,86.1857 911.268,86.1857 913.475,86.1857 915.683,86.1857 917.89,86.1857 920.098,86.1857 922.305,86.1857 924.513,86.1857 926.72,86.1857 928.928,86.1857 931.135,86.1857 933.343,86.1857 935.55,86.1857 937.758,86.1857 939.965,86.1857 942.173,86.1857 944.38,86.1857 946.588,86.1857 948.795,86.1857 951.003,86.1857 953.21,86.1857 955.418,86.1857 957.625,86.1857 959.833,86.1857 962.04,86.1857 964.248,86.1857 966.455,86.1857 968.663,86.1857 970.87,86.1857 973.077,86.1857 975.285,86.1857 977.492,86.1857 979.7,86.1857 981.907,86.1857 984.115,86.1857 986.322,86.1857 988.53,86.1857 990.737,86.1857 992.945,86.1857 995.152,86.1857 997.36,86.1857 999.567,86.1857 1001.77,86.1857 1003.98,86.1857 1006.19,86.1857 1008.4,86.1857 1010.6,86.1857 1012.81,86.1857 1015.02,86.1857 1017.23,86.1857 1019.43,86.1857 1021.64,86.1857 1023.85,86.1857 1026.06,86.1857 1028.26,86.1857 1030.47,447.446 1032.68,447.446 1034.89,447.446 1037.09,447.446 1039.3,447.446 1041.51,447.446 1043.72,447.446 1045.92,447.446 1048.13,447.446 1050.34,447.446 1052.55,447.446 1054.75,447.446 1056.96,447.446 1059.17,447.446 1061.38,447.446 1063.58,447.446 1065.79,447.446 1068,447.446 1070.21,447.446 1072.41,447.446 1074.62,447.446 1076.83,447.446 1079.04,447.446 1081.24,447.446 1083.45,447.446 1085.66,447.446 1087.87,447.446 1090.07,447.446 1092.28,447.446 1094.49,447.446 1096.7,447.446 1098.9,447.446 1101.11,447.446 1103.32,447.446 1105.53,447.446 1107.73,447.446 1109.94,447.446 1112.15,447.446 1114.36,447.446 1116.56,447.446 1118.77,447.446 1120.98,447.446 1123.19,447.446 1125.39,447.446 1127.6,447.446 1129.81,447.446 1132.02,447.446 1134.22,447.446 1136.43,447.446 1138.64,447.446 1140.85,447.446 1143.05,447.446 1145.26,447.446 1147.47,447.446 1149.68,447.446 1151.88,447.446 1154.09,447.446 1156.3,447.446 1158.51,447.446 1160.71,447.446 1162.92,447.446 1165.13,447.446 1167.34,447.446 1169.54,447.446 1171.75,447.446 1173.96,447.446 1176.17,447.446 1178.37,447.446 1180.58,447.446 1182.79,447.446 1185,447.446 1187.2,447.446 1189.41,447.446 1191.62,447.446 1193.83,447.446 1196.03,447.446 1198.24,447.446 1200.45,447.446 1202.66,447.446 1204.86,447.446 1207.07,447.446 1209.28,447.446 1211.49,447.446 1213.69,447.446 1215.9,447.446 1218.11,447.446 1220.32,447.446 1222.52,447.446 1224.73,447.446 1226.94,447.446 1229.15,447.446 1231.35,447.446 1233.56,447.446 1235.77,447.446 1237.98,447.446 1240.18,447.446 1242.39,447.446 1244.6,447.446 1246.81,447.446 1249.01,447.446 1251.22,352.368 1253.43,352.368 1255.64,352.368 1257.84,352.368 1260.05,352.368 1262.26,352.368 1264.47,352.368 1266.67,352.368 1268.88,352.368 1271.09,352.368 1273.3,352.368 1275.5,352.368 1277.71,352.368 1279.92,352.368 1282.13,352.368 1284.33,352.368 1286.54,352.368 1288.75,352.368 1290.96,352.368 1293.16,352.368 1295.37,352.368 1297.58,352.368 1299.79,352.368 1301.99,352.368 1304.2,352.368 1306.41,352.368 1308.62,352.368 1310.82,352.368 1313.03,352.368 1315.24,352.368 1317.45,352.368 1319.65,352.368 1321.86,352.368 1324.07,352.368 1326.28,352.368 1328.48,352.368 1330.69,352.368 1332.9,352.368 1335.11,352.368 1337.31,352.368 1339.52,352.368 1341.73,352.368 1343.94,352.368 1346.14,352.368 1348.35,352.368 1350.56,352.368 1352.76,352.368 1354.97,352.368 1357.18,352.368 1359.39,352.368 1361.59,352.368 1363.8,352.368 1366.01,352.368 1368.22,352.368 1370.42,352.368 1372.63,352.368 1374.84,352.368 1377.05,352.368 1379.25,352.368 1381.46,352.368 1383.67,352.368 1385.88,352.368 1388.08,352.368 1390.29,352.368 1392.5,352.368 1394.71,352.368 1396.91,352.368 1399.12,352.368 1401.33,352.368 1403.54,352.368 1405.74,352.368 1407.95,352.368 1410.16,352.368 1412.37,352.368 1414.57,352.368 1416.78,352.368 1418.99,352.368 1421.2,352.368 1423.4,352.368 1425.61,352.368 1427.82,352.368 1430.03,352.368 1432.23,352.368 1434.44,352.368 1436.65,352.368 1438.86,352.368 1441.06,352.368 1443.27,352.368 1445.48,352.368 1447.69,352.368 1449.89,352.368 1452.1,352.368 1454.31,352.368 1456.52,352.368 1458.72,352.368 1460.93,352.368 1463.14,352.368 1465.35,352.368 1467.55,352.368 1469.76,352.368 1471.97,731.614 1474.18,731.614 1476.38,731.614 1478.59,731.614 1480.8,731.614 1483.01,731.614 1485.21,731.614 1487.42,731.614 1489.63,731.614 1491.84,731.614 1494.04,731.614 1496.25,731.614 1498.46,731.614 1500.67,731.614 1502.87,731.614 1505.08,731.614 1507.29,731.614 1509.5,731.614 1511.7,731.614 1513.91,731.614 1516.12,731.614 1518.33,731.614 1520.53,731.614 1522.74,731.614 1524.95,731.614 1527.16,731.614 1529.36,731.614 1531.57,731.614 1533.78,731.614 1535.99,731.614 1538.19,731.614 1540.4,731.614 1542.61,731.614 1544.82,731.614 1547.02,731.614 1549.23,731.614 1551.44,731.614 1553.65,731.614 1555.85,731.614 1558.06,731.614 1560.27,731.614 1562.48,731.614 1564.68,731.614 1566.89,731.614 1569.1,731.614 1571.31,731.614 1573.51,731.614 1575.72,731.614 1577.93,731.614 1580.14,731.614 1582.34,731.614 1584.55,731.614 1586.76,731.614 1588.97,731.614 1591.17,731.614 1593.38,731.614 1595.59,731.614 1597.8,731.614 1600,731.614 1602.21,731.614 1604.42,731.614 1606.63,731.614 1608.83,731.614 1611.04,731.614 1613.25,731.614 1615.46,731.614 1617.66,731.614 1619.87,731.614 1622.08,731.614 1624.29,731.614 1626.49,731.614 1628.7,731.614 1630.91,731.614 1633.12,731.614 1635.32,731.614 1637.53,731.614 1639.74,731.614 1641.95,731.614 1644.15,731.614 1646.36,731.614 1648.57,731.614 1650.78,731.614 1652.98,731.614 1655.19,731.614 1657.4,731.614 1659.61,731.614 1661.81,731.614 1664.02,731.614 1666.23,731.614 1668.44,731.614 1670.64,731.614 1672.85,731.614 1675.06,731.614 1677.27,731.614 1679.47,731.614 1681.68,731.614 1683.89,731.614 1686.1,731.614 1688.3,731.614 1690.51,731.614 1692.72,1030.07 1694.93,1030.07 1697.13,1030.07 1699.34,1030.07 1701.55,1030.07 1703.76,1030.07 1705.96,1030.07 1708.17,1030.07 1710.38,1030.07 1712.59,1030.07 1714.79,1030.07 1717,1030.07 1719.21,1030.07 1721.42,1030.07 1723.62,1030.07 1725.83,1030.07 1728.04,1030.07 1730.25,1030.07 1732.45,1030.07 1734.66,1030.07 1736.87,1030.07 1739.07,1030.07 1741.28,1030.07 1743.49,1030.07 1745.7,1030.07 1747.9,1030.07 1750.11,1030.07 1752.32,1030.07 1754.53,1030.07 1756.73,1030.07 1758.94,1030.07 1761.15,1030.07 1763.36,1030.07 1765.56,1030.07 1767.77,1030.07 1769.98,1030.07 1772.19,1030.07 1774.39,1030.07 1776.6,1030.07 1778.81,1030.07 1781.02,1030.07 1783.22,1030.07 1785.43,1030.07 1787.64,1030.07 1789.85,1030.07 1792.05,1030.07 1794.26,1030.07 1796.47,1030.07 1798.68,1030.07 1800.88,1030.07 1803.09,1030.07 1805.3,1030.07 1807.51,1030.07 1809.71,1030.07 1811.92,1030.07 1814.13,1030.07 1816.34,1030.07 1818.54,1030.07 1820.75,1030.07 1822.96,1030.07 1825.17,1030.07 1827.37,1030.07 1829.58,1030.07 1831.79,1030.07 1834,1030.07 1836.2,1030.07 1838.41,1030.07 1840.62,1030.07 1842.83,1030.07 1845.03,1030.07 1847.24,1030.07 1849.45,1030.07 1851.66,1030.07 1853.86,1030.07 1856.07,1030.07 1858.28,1030.07 1860.49,1030.07 1862.69,1030.07 1864.9,1030.07 1867.11,1030.07 1869.32,1030.07 1871.52,1030.07 1873.73,1030.07 1875.94,1030.07 1878.15,1030.07 1880.35,1030.07 1882.56,1030.07 1884.77,1030.07 1886.98,1030.07 1889.18,1030.07 1891.39,1030.07 1893.6,1030.07 1895.81,1030.07 1898.01,1030.07 1900.22,1030.07 1902.43,1030.07 1904.64,1030.07 1906.84,1030.07 1909.05,1030.07 1911.26,1030.07 1913.47,122.89 1915.67,122.89 1917.88,122.89 1920.09,122.89 1922.3,122.89 1924.5,122.89 1926.71,122.89 1928.92,122.89 1931.13,122.89 1933.33,122.89 1935.54,122.89 1937.75,122.89 1939.96,122.89 1942.16,122.89 1944.37,122.89 1946.58,122.89 1948.79,122.89 1950.99,122.89 1953.2,122.89 1955.41,122.89 1957.62,122.89 1959.82,122.89 1962.03,122.89 1964.24,122.89 1966.45,122.89 1968.65,122.89 1970.86,122.89 1973.07,122.89 1975.28,122.89 1977.48,122.89 1979.69,122.89 1981.9,122.89 1984.11,122.89 1986.31,122.89 1988.52,122.89 1990.73,122.89 1992.94,122.89 1995.14,122.89 1997.35,122.89 1999.56,122.89 2001.77,122.89 2003.97,122.89 2006.18,122.89 2008.39,122.89 2010.6,122.89 2012.8,122.89 2015.01,122.89 2017.22,122.89 2019.43,122.89 2021.63,122.89 2023.84,122.89 2026.05,122.89 2028.26,122.89 2030.46,122.89 2032.67,122.89 2034.88,122.89 2037.09,122.89 2039.29,122.89 2041.5,122.89 2043.71,122.89 2045.92,122.89 2048.12,122.89 2050.33,122.89 2052.54,122.89 2054.75,122.89 2056.95,122.89 2059.16,122.89 2061.37,122.89 2063.58,122.89 2065.78,122.89 2067.99,122.89 2070.2,122.89 2072.41,122.89 2074.61,122.89 2076.82,122.89 2079.03,122.89 2081.24,122.89 2083.44,122.89 2085.65,122.89 2087.86,122.89 2090.07,122.89 2092.27,122.89 2094.48,122.89 2096.69,122.89 2098.9,122.89 2101.1,122.89 2103.31,122.89 2105.52,122.89 2107.73,122.89 2109.93,122.89 2112.14,122.89 2114.35,122.89 2116.55,122.89 2118.76,122.89 2120.97,122.89 2123.18,122.89 2125.38,122.89 2127.59,122.89 2129.8,122.89 2132.01,122.89 2134.21,426.848 2136.42,426.848 2138.63,426.848 2140.84,426.848 2143.04,426.848 2145.25,426.848 2147.46,426.848 2149.67,426.848 2151.87,426.848 2154.08,426.848 2156.29,426.848 2158.5,426.848 2160.7,426.848 2162.91,426.848 2165.12,426.848 2167.33,426.848 2169.53,426.848 2171.74,426.848 2173.95,426.848 2176.16,426.848 2178.36,426.848 2180.57,426.848 2182.78,426.848 2184.99,426.848 2187.19,426.848 2189.4,426.848 2191.61,426.848 2193.82,426.848 2196.02,426.848 2198.23,426.848 2200.44,426.848 2202.65,426.848 2204.85,426.848 2207.06,426.848 2209.27,426.848 2211.48,426.848 2213.68,426.848 2215.89,426.848 2218.1,426.848 2220.31,426.848 2222.51,426.848 2224.72,426.848 2226.93,426.848 2229.14,426.848 2231.34,426.848 2233.55,426.848 2235.76,426.848 2237.97,426.848 2240.17,426.848 2242.38,426.848 2244.59,426.848 2246.8,426.848 2249,426.848 2251.21,426.848 2253.42,426.848 2255.63,426.848 2257.83,426.848 2260.04,426.848 2262.25,426.848 2264.46,426.848 2266.66,426.848 2268.87,426.848 2271.08,426.848 2273.29,426.848 2275.49,426.848 2277.7,426.848 2279.91,426.848 2282.12,426.848 2284.32,426.848 2286.53,426.848 2288.74,426.848 2290.95,426.848 2293.15,426.848 2295.36,426.848 2297.57,426.848 2299.78,426.848 2301.98,426.848 2304.19,426.848 2306.4,426.848 2308.61,426.848 2310.81,426.848 2313.02,426.848 2315.23,426.848 2317.44,426.848 2319.64,426.848 2321.85,426.848 2324.06,426.848 2326.27,426.848 2328.47,426.848 2330.68,426.848 2332.89,426.848 2335.1,426.848 2337.3,426.848 2339.51,426.848 2341.72,426.848 2343.93,426.848 2346.13,426.848 2348.34,426.848 2350.55,426.848 2352.76,426.848 "/>
<path clip-path="url(#clip370)" d="M2033.58 1377.32 L2279.25 1377.32 L2279.25 1221.8 L2033.58 1221.8  Z" fill="#ffffff" fill-rule="evenodd" fill-opacity="1"/>
<polyline clip-path="url(#clip370)" style="stroke:#000000; stroke-linecap:round; stroke-linejoin:round; stroke-width:4; stroke-opacity:1; fill:none" points="2033.58,1377.32 2279.25,1377.32 2279.25,1221.8 2033.58,1221.8 2033.58,1377.32 "/>
<polyline clip-path="url(#clip370)" style="stroke:#009af9; stroke-linecap:round; stroke-linejoin:round; stroke-width:4; stroke-opacity:1; fill:none" points="2058.08,1273.64 2205.1,1273.64 "/>
<path clip-path="url(#clip370)" d="M2254.26 1264.99 L2244.88 1277.61 L2254.74 1290.92 L2249.72 1290.92 L2242.17 1280.73 L2234.63 1290.92 L2229.6 1290.92 L2239.67 1277.35 L2230.46 1264.99 L2235.48 1264.99 L2242.36 1274.23 L2249.23 1264.99 L2254.26 1264.99 Z" fill="#000000" fill-rule="nonzero" fill-opacity="1" /><polyline clip-path="url(#clip370)" style="stroke:#e26f46; stroke-linecap:round; stroke-linejoin:round; stroke-width:4; stroke-opacity:1; fill:none" points="2058.08,1325.48 2205.1,1325.48 "/>
<path clip-path="url(#clip370)" d="M2246.11 1306.74 L2246.11 1310.28 L2242.04 1310.28 Q2239.74 1310.28 2238.84 1311.2 Q2237.96 1312.13 2237.96 1314.54 L2237.96 1316.83 L2244.98 1316.83 L2244.98 1320.14 L2237.96 1320.14 L2237.96 1342.76 L2233.68 1342.76 L2233.68 1320.14 L2229.6 1320.14 L2229.6 1316.83 L2233.68 1316.83 L2233.68 1315.02 Q2233.68 1310.7 2235.69 1308.73 Q2237.71 1306.74 2242.08 1306.74 L2246.11 1306.74 Z" fill="#000000" fill-rule="nonzero" fill-opacity="1" /></svg>
