<?xml version="1.0" encoding="utf-8"?>
<svg xmlns="http://www.w3.org/2000/svg" xmlns:xlink="http://www.w3.org/1999/xlink" width="600" height="400" viewBox="0 0 2400 1600">
<defs>
  <clipPath id="clip640">
    <rect x="0" y="0" width="2400" height="1600"/>
  </clipPath>
</defs>
<path clip-path="url(#clip640)" d="M0 1600 L2400 1600 L2400 0 L0 0  Z" fill="#ffffff" fill-rule="evenodd" fill-opacity="1"/>
<defs>
  <clipPath id="clip641">
    <rect x="480" y="0" width="1681" height="1600"/>
  </clipPath>
</defs>
<path clip-path="url(#clip640)" d="M193.936 1423.18 L2352.76 1423.18 L2352.76 47.2441 L193.936 47.2441  Z" fill="#ffffff" fill-rule="evenodd" fill-opacity="1"/>
<defs>
  <clipPath id="clip642">
    <rect x="193" y="47" width="2160" height="1377"/>
  </clipPath>
</defs>
<polyline clip-path="url(#clip642)" style="stroke:#000000; stroke-linecap:round; stroke-linejoin:round; stroke-width:2; stroke-opacity:0.1; fill:none" points="193.936,1423.18 193.936,47.2441 "/>
<polyline clip-path="url(#clip642)" style="stroke:#000000; stroke-linecap:round; stroke-linejoin:round; stroke-width:2; stroke-opacity:0.1; fill:none" points="625.7,1423.18 625.7,47.2441 "/>
<polyline clip-path="url(#clip642)" style="stroke:#000000; stroke-linecap:round; stroke-linejoin:round; stroke-width:2; stroke-opacity:0.1; fill:none" points="1057.46,1423.18 1057.46,47.2441 "/>
<polyline clip-path="url(#clip642)" style="stroke:#000000; stroke-linecap:round; stroke-linejoin:round; stroke-width:2; stroke-opacity:0.1; fill:none" points="1489.23,1423.18 1489.23,47.2441 "/>
<polyline clip-path="url(#clip642)" style="stroke:#000000; stroke-linecap:round; stroke-linejoin:round; stroke-width:2; stroke-opacity:0.1; fill:none" points="1920.99,1423.18 1920.99,47.2441 "/>
<polyline clip-path="url(#clip642)" style="stroke:#000000; stroke-linecap:round; stroke-linejoin:round; stroke-width:2; stroke-opacity:0.1; fill:none" points="2352.76,1423.18 2352.76,47.2441 "/>
<polyline clip-path="url(#clip642)" style="stroke:#000000; stroke-linecap:round; stroke-linejoin:round; stroke-width:2; stroke-opacity:0.1; fill:none" points="193.936,1210.95 2352.76,1210.95 "/>
<polyline clip-path="url(#clip642)" style="stroke:#000000; stroke-linecap:round; stroke-linejoin:round; stroke-width:2; stroke-opacity:0.1; fill:none" points="193.936,981.092 2352.76,981.092 "/>
<polyline clip-path="url(#clip642)" style="stroke:#000000; stroke-linecap:round; stroke-linejoin:round; stroke-width:2; stroke-opacity:0.1; fill:none" points="193.936,751.236 2352.76,751.236 "/>
<polyline clip-path="url(#clip642)" style="stroke:#000000; stroke-linecap:round; stroke-linejoin:round; stroke-width:2; stroke-opacity:0.1; fill:none" points="193.936,521.38 2352.76,521.38 "/>
<polyline clip-path="url(#clip642)" style="stroke:#000000; stroke-linecap:round; stroke-linejoin:round; stroke-width:2; stroke-opacity:0.1; fill:none" points="193.936,291.524 2352.76,291.524 "/>
<polyline clip-path="url(#clip642)" style="stroke:#000000; stroke-linecap:round; stroke-linejoin:round; stroke-width:2; stroke-opacity:0.1; fill:none" points="193.936,61.6677 2352.76,61.6677 "/>
<polyline clip-path="url(#clip640)" style="stroke:#000000; stroke-linecap:round; stroke-linejoin:round; stroke-width:4; stroke-opacity:1; fill:none" points="193.936,1423.18 2352.76,1423.18 "/>
<polyline clip-path="url(#clip640)" style="stroke:#000000; stroke-linecap:round; stroke-linejoin:round; stroke-width:4; stroke-opacity:1; fill:none" points="193.936,1423.18 193.936,1404.28 "/>
<polyline clip-path="url(#clip640)" style="stroke:#000000; stroke-linecap:round; stroke-linejoin:round; stroke-width:4; stroke-opacity:1; fill:none" points="625.7,1423.18 625.7,1404.28 "/>
<polyline clip-path="url(#clip640)" style="stroke:#000000; stroke-linecap:round; stroke-linejoin:round; stroke-width:4; stroke-opacity:1; fill:none" points="1057.46,1423.18 1057.46,1404.28 "/>
<polyline clip-path="url(#clip640)" style="stroke:#000000; stroke-linecap:round; stroke-linejoin:round; stroke-width:4; stroke-opacity:1; fill:none" points="1489.23,1423.18 1489.23,1404.28 "/>
<polyline clip-path="url(#clip640)" style="stroke:#000000; stroke-linecap:round; stroke-linejoin:round; stroke-width:4; stroke-opacity:1; fill:none" points="1920.99,1423.18 1920.99,1404.28 "/>
<polyline clip-path="url(#clip640)" style="stroke:#000000; stroke-linecap:round; stroke-linejoin:round; stroke-width:4; stroke-opacity:1; fill:none" points="2352.76,1423.18 2352.76,1404.28 "/>
<path clip-path="url(#clip640)" d="M193.936 1454.1 Q190.325 1454.1 188.496 1457.66 Q186.691 1461.2 186.691 1468.33 Q186.691 1475.44 188.496 1479.01 Q190.325 1482.55 193.936 1482.55 Q197.57 1482.55 199.376 1479.01 Q201.204 1475.44 201.204 1468.33 Q201.204 1461.2 199.376 1457.66 Q197.57 1454.1 193.936 1454.1 M193.936 1450.39 Q199.746 1450.39 202.802 1455 Q205.88 1459.58 205.88 1468.33 Q205.88 1477.06 202.802 1481.67 Q199.746 1486.25 193.936 1486.25 Q188.126 1486.25 185.047 1481.67 Q181.992 1477.06 181.992 1468.33 Q181.992 1459.58 185.047 1455 Q188.126 1450.39 193.936 1450.39 Z" fill="#000000" fill-rule="nonzero" fill-opacity="1" /><path clip-path="url(#clip640)" d="M620.353 1481.64 L636.672 1481.64 L636.672 1485.58 L614.728 1485.58 L614.728 1481.64 Q617.39 1478.89 621.973 1474.26 Q626.58 1469.61 627.76 1468.27 Q630.006 1465.74 630.885 1464.01 Q631.788 1462.25 631.788 1460.56 Q631.788 1457.8 629.843 1456.07 Q627.922 1454.33 624.82 1454.33 Q622.621 1454.33 620.168 1455.09 Q617.737 1455.86 614.959 1457.41 L614.959 1452.69 Q617.783 1451.55 620.237 1450.97 Q622.691 1450.39 624.728 1450.39 Q630.098 1450.39 633.293 1453.08 Q636.487 1455.77 636.487 1460.26 Q636.487 1462.39 635.677 1464.31 Q634.89 1466.2 632.783 1468.8 Q632.205 1469.47 629.103 1472.69 Q626.001 1475.88 620.353 1481.64 Z" fill="#000000" fill-rule="nonzero" fill-opacity="1" /><path clip-path="url(#clip640)" d="M1060.47 1455.09 L1048.67 1473.54 L1060.47 1473.54 L1060.47 1455.09 M1059.25 1451.02 L1065.13 1451.02 L1065.13 1473.54 L1070.06 1473.54 L1070.06 1477.43 L1065.13 1477.43 L1065.13 1485.58 L1060.47 1485.58 L1060.47 1477.43 L1044.87 1477.43 L1044.87 1472.92 L1059.25 1451.02 Z" fill="#000000" fill-rule="nonzero" fill-opacity="1" /><path clip-path="url(#clip640)" d="M1489.63 1466.44 Q1486.48 1466.44 1484.63 1468.59 Q1482.8 1470.74 1482.8 1474.49 Q1482.8 1478.22 1484.63 1480.39 Q1486.48 1482.55 1489.63 1482.55 Q1492.78 1482.55 1494.61 1480.39 Q1496.46 1478.22 1496.46 1474.49 Q1496.46 1470.74 1494.61 1468.59 Q1492.78 1466.44 1489.63 1466.44 M1498.92 1451.78 L1498.92 1456.04 Q1497.16 1455.21 1495.35 1454.77 Q1493.57 1454.33 1491.81 1454.33 Q1487.18 1454.33 1484.73 1457.45 Q1482.3 1460.58 1481.95 1466.9 Q1483.31 1464.89 1485.37 1463.82 Q1487.43 1462.73 1489.91 1462.73 Q1495.12 1462.73 1498.13 1465.9 Q1501.16 1469.05 1501.16 1474.49 Q1501.16 1479.82 1498.01 1483.03 Q1494.86 1486.25 1489.63 1486.25 Q1483.64 1486.25 1480.47 1481.67 Q1477.3 1477.06 1477.3 1468.33 Q1477.3 1460.14 1481.18 1455.28 Q1485.07 1450.39 1491.62 1450.39 Q1493.38 1450.39 1495.17 1450.74 Q1496.97 1451.09 1498.92 1451.78 Z" fill="#000000" fill-rule="nonzero" fill-opacity="1" /><path clip-path="url(#clip640)" d="M1920.99 1469.17 Q1917.66 1469.17 1915.74 1470.95 Q1913.84 1472.73 1913.84 1475.86 Q1913.84 1478.98 1915.74 1480.77 Q1917.66 1482.55 1920.99 1482.55 Q1924.33 1482.55 1926.25 1480.77 Q1928.17 1478.96 1928.17 1475.86 Q1928.17 1472.73 1926.25 1470.95 Q1924.35 1469.17 1920.99 1469.17 M1916.32 1467.18 Q1913.31 1466.44 1911.62 1464.38 Q1909.95 1462.32 1909.95 1459.35 Q1909.95 1455.21 1912.89 1452.8 Q1915.85 1450.39 1920.99 1450.39 Q1926.15 1450.39 1929.09 1452.8 Q1932.03 1455.21 1932.03 1459.35 Q1932.03 1462.32 1930.34 1464.38 Q1928.68 1466.44 1925.69 1467.18 Q1929.07 1467.96 1930.95 1470.26 Q1932.84 1472.55 1932.84 1475.86 Q1932.84 1480.88 1929.77 1483.57 Q1926.71 1486.25 1920.99 1486.25 Q1915.27 1486.25 1912.2 1483.57 Q1909.14 1480.88 1909.14 1475.86 Q1909.14 1472.55 1911.04 1470.26 Q1912.94 1467.96 1916.32 1467.18 M1914.6 1459.79 Q1914.6 1462.48 1916.27 1463.98 Q1917.96 1465.49 1920.99 1465.49 Q1924 1465.49 1925.69 1463.98 Q1927.4 1462.48 1927.4 1459.79 Q1927.4 1457.11 1925.69 1455.6 Q1924 1454.1 1920.99 1454.1 Q1917.96 1454.1 1916.27 1455.6 Q1914.6 1457.11 1914.6 1459.79 Z" fill="#000000" fill-rule="nonzero" fill-opacity="1" /><path clip-path="url(#clip640)" d="M2327.44 1481.64 L2335.08 1481.64 L2335.08 1455.28 L2326.77 1456.95 L2326.77 1452.69 L2335.04 1451.02 L2339.71 1451.02 L2339.71 1481.64 L2347.35 1481.64 L2347.35 1485.58 L2327.44 1485.58 L2327.44 1481.64 Z" fill="#000000" fill-rule="nonzero" fill-opacity="1" /><path clip-path="url(#clip640)" d="M2366.8 1454.1 Q2363.18 1454.1 2361.36 1457.66 Q2359.55 1461.2 2359.55 1468.33 Q2359.55 1475.44 2361.36 1479.01 Q2363.18 1482.55 2366.8 1482.55 Q2370.43 1482.55 2372.23 1479.01 Q2374.06 1475.44 2374.06 1468.33 Q2374.06 1461.2 2372.23 1457.66 Q2370.43 1454.1 2366.8 1454.1 M2366.8 1450.39 Q2372.61 1450.39 2375.66 1455 Q2378.74 1459.58 2378.74 1468.33 Q2378.74 1477.06 2375.66 1481.67 Q2372.61 1486.25 2366.8 1486.25 Q2360.99 1486.25 2357.91 1481.67 Q2354.85 1477.06 2354.85 1468.33 Q2354.85 1459.58 2357.91 1455 Q2360.99 1450.39 2366.8 1450.39 Z" fill="#000000" fill-rule="nonzero" fill-opacity="1" /><path clip-path="url(#clip640)" d="M1272.41 1522.27 L1272.41 1532.4 L1284.47 1532.4 L1284.47 1536.95 L1272.41 1536.95 L1272.41 1556.3 Q1272.41 1560.66 1273.58 1561.9 Q1274.79 1563.14 1278.45 1563.14 L1284.47 1563.14 L1284.47 1568.04 L1278.45 1568.04 Q1271.67 1568.04 1269.1 1565.53 Q1266.52 1562.98 1266.52 1556.3 L1266.52 1536.95 L1262.22 1536.95 L1262.22 1532.4 L1266.52 1532.4 L1266.52 1522.27 L1272.41 1522.27 Z" fill="#000000" fill-rule="nonzero" fill-opacity="1" /><polyline clip-path="url(#clip640)" style="stroke:#000000; stroke-linecap:round; stroke-linejoin:round; stroke-width:4; stroke-opacity:1; fill:none" points="193.936,1423.18 193.936,47.2441 "/>
<polyline clip-path="url(#clip640)" style="stroke:#000000; stroke-linecap:round; stroke-linejoin:round; stroke-width:4; stroke-opacity:1; fill:none" points="193.936,1210.95 212.834,1210.95 "/>
<polyline clip-path="url(#clip640)" style="stroke:#000000; stroke-linecap:round; stroke-linejoin:round; stroke-width:4; stroke-opacity:1; fill:none" points="193.936,981.092 212.834,981.092 "/>
<polyline clip-path="url(#clip640)" style="stroke:#000000; stroke-linecap:round; stroke-linejoin:round; stroke-width:4; stroke-opacity:1; fill:none" points="193.936,751.236 212.834,751.236 "/>
<polyline clip-path="url(#clip640)" style="stroke:#000000; stroke-linecap:round; stroke-linejoin:round; stroke-width:4; stroke-opacity:1; fill:none" points="193.936,521.38 212.834,521.38 "/>
<polyline clip-path="url(#clip640)" style="stroke:#000000; stroke-linecap:round; stroke-linejoin:round; stroke-width:4; stroke-opacity:1; fill:none" points="193.936,291.524 212.834,291.524 "/>
<polyline clip-path="url(#clip640)" style="stroke:#000000; stroke-linecap:round; stroke-linejoin:round; stroke-width:4; stroke-opacity:1; fill:none" points="193.936,61.6677 212.834,61.6677 "/>
<path clip-path="url(#clip640)" d="M51.9875 1211.4 L81.6633 1211.4 L81.6633 1215.34 L51.9875 1215.34 L51.9875 1211.4 Z" fill="#000000" fill-rule="nonzero" fill-opacity="1" /><path clip-path="url(#clip640)" d="M92.566 1224.29 L100.205 1224.29 L100.205 1197.93 L91.8947 1199.59 L91.8947 1195.34 L100.159 1193.67 L104.834 1193.67 L104.834 1224.29 L112.473 1224.29 L112.473 1228.23 L92.566 1228.23 L92.566 1224.29 Z" fill="#000000" fill-rule="nonzero" fill-opacity="1" /><path clip-path="url(#clip640)" d="M121.918 1222.35 L126.802 1222.35 L126.802 1228.23 L121.918 1228.23 L121.918 1222.35 Z" fill="#000000" fill-rule="nonzero" fill-opacity="1" /><path clip-path="url(#clip640)" d="M137.033 1193.67 L155.39 1193.67 L155.39 1197.6 L141.316 1197.6 L141.316 1206.08 Q142.334 1205.73 143.353 1205.57 Q144.371 1205.38 145.39 1205.38 Q151.177 1205.38 154.556 1208.55 Q157.936 1211.72 157.936 1217.14 Q157.936 1222.72 154.464 1225.82 Q150.992 1228.9 144.672 1228.9 Q142.496 1228.9 140.228 1228.53 Q137.982 1228.16 135.575 1227.42 L135.575 1222.72 Q137.658 1223.85 139.881 1224.41 Q142.103 1224.96 144.58 1224.96 Q148.584 1224.96 150.922 1222.86 Q153.26 1220.75 153.26 1217.14 Q153.26 1213.53 150.922 1211.42 Q148.584 1209.32 144.58 1209.32 Q142.705 1209.32 140.83 1209.73 Q138.978 1210.15 137.033 1211.03 L137.033 1193.67 Z" fill="#000000" fill-rule="nonzero" fill-opacity="1" /><path clip-path="url(#clip640)" d="M50.9921 981.544 L80.6679 981.544 L80.6679 985.479 L50.9921 985.479 L50.9921 981.544 Z" fill="#000000" fill-rule="nonzero" fill-opacity="1" /><path clip-path="url(#clip640)" d="M91.5706 994.437 L99.2095 994.437 L99.2095 968.072 L90.8993 969.738 L90.8993 965.479 L99.1632 963.812 L103.839 963.812 L103.839 994.437 L111.478 994.437 L111.478 998.372 L91.5706 998.372 L91.5706 994.437 Z" fill="#000000" fill-rule="nonzero" fill-opacity="1" /><path clip-path="url(#clip640)" d="M120.922 992.493 L125.807 992.493 L125.807 998.372 L120.922 998.372 L120.922 992.493 Z" fill="#000000" fill-rule="nonzero" fill-opacity="1" /><path clip-path="url(#clip640)" d="M145.992 966.891 Q142.381 966.891 140.552 970.456 Q138.746 973.998 138.746 981.127 Q138.746 988.234 140.552 991.798 Q142.381 995.34 145.992 995.34 Q149.626 995.34 151.431 991.798 Q153.26 988.234 153.26 981.127 Q153.26 973.998 151.431 970.456 Q149.626 966.891 145.992 966.891 M145.992 963.187 Q151.802 963.187 154.857 967.794 Q157.936 972.377 157.936 981.127 Q157.936 989.854 154.857 994.46 Q151.802 999.044 145.992 999.044 Q140.181 999.044 137.103 994.46 Q134.047 989.854 134.047 981.127 Q134.047 972.377 137.103 967.794 Q140.181 963.187 145.992 963.187 Z" fill="#000000" fill-rule="nonzero" fill-opacity="1" /><path clip-path="url(#clip640)" d="M51.9875 751.688 L81.6633 751.688 L81.6633 755.623 L51.9875 755.623 L51.9875 751.688 Z" fill="#000000" fill-rule="nonzero" fill-opacity="1" /><path clip-path="url(#clip640)" d="M101.756 737.035 Q98.1447 737.035 96.316 740.6 Q94.5104 744.141 94.5104 751.271 Q94.5104 758.377 96.316 761.942 Q98.1447 765.484 101.756 765.484 Q105.39 765.484 107.196 761.942 Q109.024 758.377 109.024 751.271 Q109.024 744.141 107.196 740.6 Q105.39 737.035 101.756 737.035 M101.756 733.331 Q107.566 733.331 110.621 737.938 Q113.7 742.521 113.7 751.271 Q113.7 759.998 110.621 764.604 Q107.566 769.188 101.756 769.188 Q95.9456 769.188 92.8669 764.604 Q89.8114 759.998 89.8114 751.271 Q89.8114 742.521 92.8669 737.938 Q95.9456 733.331 101.756 733.331 Z" fill="#000000" fill-rule="nonzero" fill-opacity="1" /><path clip-path="url(#clip640)" d="M121.918 762.637 L126.802 762.637 L126.802 768.516 L121.918 768.516 L121.918 762.637 Z" fill="#000000" fill-rule="nonzero" fill-opacity="1" /><path clip-path="url(#clip640)" d="M137.033 733.956 L155.39 733.956 L155.39 737.891 L141.316 737.891 L141.316 746.364 Q142.334 746.016 143.353 745.854 Q144.371 745.669 145.39 745.669 Q151.177 745.669 154.556 748.84 Q157.936 752.012 157.936 757.428 Q157.936 763.007 154.464 766.109 Q150.992 769.188 144.672 769.188 Q142.496 769.188 140.228 768.817 Q137.982 768.447 135.575 767.706 L135.575 763.007 Q137.658 764.141 139.881 764.697 Q142.103 765.252 144.58 765.252 Q148.584 765.252 150.922 763.146 Q153.26 761.039 153.26 757.428 Q153.26 753.817 150.922 751.711 Q148.584 749.604 144.58 749.604 Q142.705 749.604 140.83 750.021 Q138.978 750.438 137.033 751.317 L137.033 733.956 Z" fill="#000000" fill-rule="nonzero" fill-opacity="1" /><path clip-path="url(#clip640)" d="M100.76 507.179 Q97.1493 507.179 95.3206 510.744 Q93.515 514.285 93.515 521.415 Q93.515 528.521 95.3206 532.086 Q97.1493 535.628 100.76 535.628 Q104.395 535.628 106.2 532.086 Q108.029 528.521 108.029 521.415 Q108.029 514.285 106.2 510.744 Q104.395 507.179 100.76 507.179 M100.76 503.475 Q106.571 503.475 109.626 508.082 Q112.705 512.665 112.705 521.415 Q112.705 530.142 109.626 534.748 Q106.571 539.331 100.76 539.331 Q94.9502 539.331 91.8715 534.748 Q88.816 530.142 88.816 521.415 Q88.816 512.665 91.8715 508.082 Q94.9502 503.475 100.76 503.475 Z" fill="#000000" fill-rule="nonzero" fill-opacity="1" /><path clip-path="url(#clip640)" d="M120.922 532.78 L125.807 532.78 L125.807 538.66 L120.922 538.66 L120.922 532.78 Z" fill="#000000" fill-rule="nonzero" fill-opacity="1" /><path clip-path="url(#clip640)" d="M145.992 507.179 Q142.381 507.179 140.552 510.744 Q138.746 514.285 138.746 521.415 Q138.746 528.521 140.552 532.086 Q142.381 535.628 145.992 535.628 Q149.626 535.628 151.431 532.086 Q153.26 528.521 153.26 521.415 Q153.26 514.285 151.431 510.744 Q149.626 507.179 145.992 507.179 M145.992 503.475 Q151.802 503.475 154.857 508.082 Q157.936 512.665 157.936 521.415 Q157.936 530.142 154.857 534.748 Q151.802 539.331 145.992 539.331 Q140.181 539.331 137.103 534.748 Q134.047 530.142 134.047 521.415 Q134.047 512.665 137.103 508.082 Q140.181 503.475 145.992 503.475 Z" fill="#000000" fill-rule="nonzero" fill-opacity="1" /><path clip-path="url(#clip640)" d="M101.756 277.323 Q98.1447 277.323 96.316 280.887 Q94.5104 284.429 94.5104 291.559 Q94.5104 298.665 96.316 302.23 Q98.1447 305.771 101.756 305.771 Q105.39 305.771 107.196 302.23 Q109.024 298.665 109.024 291.559 Q109.024 284.429 107.196 280.887 Q105.39 277.323 101.756 277.323 M101.756 273.619 Q107.566 273.619 110.621 278.225 Q113.7 282.809 113.7 291.559 Q113.7 300.285 110.621 304.892 Q107.566 309.475 101.756 309.475 Q95.9456 309.475 92.8669 304.892 Q89.8114 300.285 89.8114 291.559 Q89.8114 282.809 92.8669 278.225 Q95.9456 273.619 101.756 273.619 Z" fill="#000000" fill-rule="nonzero" fill-opacity="1" /><path clip-path="url(#clip640)" d="M121.918 302.924 L126.802 302.924 L126.802 308.804 L121.918 308.804 L121.918 302.924 Z" fill="#000000" fill-rule="nonzero" fill-opacity="1" /><path clip-path="url(#clip640)" d="M137.033 274.244 L155.39 274.244 L155.39 278.179 L141.316 278.179 L141.316 286.651 Q142.334 286.304 143.353 286.142 Q144.371 285.957 145.39 285.957 Q151.177 285.957 154.556 289.128 Q157.936 292.299 157.936 297.716 Q157.936 303.295 154.464 306.396 Q150.992 309.475 144.672 309.475 Q142.496 309.475 140.228 309.105 Q137.982 308.734 135.575 307.994 L135.575 303.295 Q137.658 304.429 139.881 304.984 Q142.103 305.54 144.58 305.54 Q148.584 305.54 150.922 303.434 Q153.26 301.327 153.26 297.716 Q153.26 294.105 150.922 291.998 Q148.584 289.892 144.58 289.892 Q142.705 289.892 140.83 290.309 Q138.978 290.725 137.033 291.605 L137.033 274.244 Z" fill="#000000" fill-rule="nonzero" fill-opacity="1" /><path clip-path="url(#clip640)" d="M91.5706 75.0125 L99.2095 75.0125 L99.2095 48.6469 L90.8993 50.3136 L90.8993 46.0543 L99.1632 44.3877 L103.839 44.3877 L103.839 75.0125 L111.478 75.0125 L111.478 78.9477 L91.5706 78.9477 L91.5706 75.0125 Z" fill="#000000" fill-rule="nonzero" fill-opacity="1" /><path clip-path="url(#clip640)" d="M120.922 73.0681 L125.807 73.0681 L125.807 78.9477 L120.922 78.9477 L120.922 73.0681 Z" fill="#000000" fill-rule="nonzero" fill-opacity="1" /><path clip-path="url(#clip640)" d="M145.992 47.4664 Q142.381 47.4664 140.552 51.0312 Q138.746 54.5728 138.746 61.7024 Q138.746 68.8088 140.552 72.3736 Q142.381 75.9153 145.992 75.9153 Q149.626 75.9153 151.431 72.3736 Q153.26 68.8088 153.26 61.7024 Q153.26 54.5728 151.431 51.0312 Q149.626 47.4664 145.992 47.4664 M145.992 43.7627 Q151.802 43.7627 154.857 48.3691 Q157.936 52.9524 157.936 61.7024 Q157.936 70.4292 154.857 75.0357 Q151.802 79.619 145.992 79.619 Q140.181 79.619 137.103 75.0357 Q134.047 70.4292 134.047 61.7024 Q134.047 52.9524 137.103 48.3691 Q140.181 43.7627 145.992 43.7627 Z" fill="#000000" fill-rule="nonzero" fill-opacity="1" /><polyline clip-path="url(#clip642)" style="stroke:#009af9; stroke-linecap:round; stroke-linejoin:round; stroke-width:4; stroke-opacity:1; fill:none" points="193.936,521.38 196.097,529.504 198.258,537.521 200.419,545.432 202.58,553.237 204.741,560.939 206.902,568.539 209.063,576.038 211.224,583.438 213.385,590.74 215.546,597.945 217.707,605.054 219.868,612.069 222.029,618.991 224.19,625.821 226.351,632.561 228.512,639.211 230.673,645.774 232.834,652.249 234.995,658.638 237.156,664.943 239.317,671.164 241.478,677.302 243.639,683.36 245.8,689.337 247.961,695.234 250.122,701.054 252.282,706.796 254.443,712.462 256.604,718.053 258.765,723.57 260.926,729.014 263.087,734.385 265.248,739.686 267.409,744.916 269.57,750.077 271.731,755.169 273.892,760.194 276.053,765.152 278.214,770.045 280.375,774.872 282.536,779.636 284.697,784.336 286.858,788.975 289.019,793.551 291.18,798.067 293.341,802.523 295.502,806.92 297.663,811.259 299.824,815.54 301.985,819.765 304.146,823.933 306.307,828.046 308.468,832.105 310.629,836.11 312.79,840.061 314.951,843.961 317.112,847.808 319.273,851.605 321.434,855.351 323.595,859.048 325.756,862.696 327.917,866.295 330.078,869.847 332.239,873.351 334.4,876.809 336.561,880.221 338.722,883.588 340.883,886.91 343.044,890.189 345.205,893.423 347.366,896.615 349.527,899.765 351.688,902.872 353.849,905.939 356.01,908.965 358.171,911.951 360.332,914.897 362.493,917.804 364.653,920.673 366.814,923.503 368.975,926.296 371.136,929.052 373.297,931.772 375.458,934.455 377.619,937.103 379.78,939.716 381.941,942.294 384.102,944.838 386.263,947.348 388.424,949.825 390.585,952.269 392.746,954.681 394.907,957.06 397.068,959.409 399.229,962.705 401.39,966.676 403.551,969.87 405.712,971.273 407.873,970.309 410.034,966.84 412.195,961.166 414.356,954.023 416.517,946.588 418.678,939.835 420.839,933.21 423,926.673 425.161,920.223 427.322,913.858 429.483,907.577 431.644,901.38 433.805,895.264 435.966,889.23 438.127,883.276 440.288,877.401 442.449,871.603 444.61,865.883 446.771,860.238 448.932,854.669 451.093,849.173 453.254,843.75 455.415,838.399 457.576,833.119 459.737,827.909 461.898,822.768 464.059,817.695 466.22,812.689 468.381,807.75 470.542,802.877 472.703,798.068 474.864,793.322 477.024,788.64 479.185,784.02 481.346,779.461 483.507,774.962 485.668,770.523 487.829,766.143 489.99,761.821 492.151,757.556 494.312,753.348 496.473,749.195 498.634,745.098 500.795,741.055 502.956,737.065 505.117,733.128 507.278,729.244 509.439,725.411 511.6,721.629 513.761,717.897 515.922,714.214 518.083,710.581 520.244,706.995 522.405,703.457 524.566,699.966 526.727,696.521 528.888,693.122 531.049,689.768 533.21,686.459 535.371,683.193 537.532,679.971 539.693,676.791 541.854,673.654 544.015,670.558 546.176,667.503 548.337,664.489 550.498,661.514 552.659,658.579 554.82,655.683 556.981,652.825 559.142,650.005 561.303,647.223 563.464,644.477 565.625,641.768 567.786,639.095 569.947,636.457 572.108,633.854 574.269,631.286 576.43,628.751 578.591,626.251 580.752,623.783 582.913,621.348 585.074,618.946 587.235,616.575 589.396,614.236 591.556,611.928 593.717,609.651 595.878,607.404 598.039,605.186 600.2,602.998 602.361,600.839 604.522,598.709 606.683,596.607 608.844,594.532 611.005,592.485 613.166,590.466 615.327,588.473 617.488,586.506 619.649,584.566 621.81,582.651 623.971,580.762 626.132,578.879 628.293,576.844 630.454,574.637 632.615,572.281 634.776,569.799 636.937,567.209 639.098,564.533 641.259,561.788 643.42,558.991 645.581,556.158 647.742,553.302 649.903,550.438 652.064,547.577 654.225,544.73 656.386,541.907 658.547,539.116 660.708,536.365 662.869,533.658 665.03,531.001 667.191,528.397 669.352,525.848 671.513,523.356 673.674,520.921 675.835,518.54 677.996,516.212 680.157,513.932 682.318,511.695 684.479,509.495 686.64,507.325 688.801,505.175 690.962,503.037 693.123,500.906 695.284,498.803 697.445,496.727 699.606,494.679 701.767,492.658 703.927,490.664 706.088,488.696 708.249,486.755 710.41,484.839 712.571,482.948 714.732,481.083 716.893,479.242 719.054,477.426 721.215,475.634 723.376,473.866 725.537,472.121 727.698,470.399 729.859,468.7 732.02,467.023 734.181,465.369 736.342,463.737 738.503,462.126 740.664,460.537 742.825,458.968 744.986,457.421 747.147,455.894 749.308,454.387 751.469,452.9 753.63,451.433 755.791,449.985 757.952,448.556 760.113,447.146 762.274,445.756 764.435,444.383 766.596,443.029 768.757,441.693 770.918,440.374 773.079,439.073 775.24,437.789 777.401,436.522 779.562,435.273 781.723,434.039 783.884,432.822 786.045,431.622 788.206,430.437 790.367,429.268 792.528,428.114 794.689,426.976 796.85,425.853 799.011,424.744 801.172,423.651 803.333,422.572 805.494,421.507 807.655,420.457 809.816,419.42 811.977,418.397 814.138,417.387 816.298,416.391 818.459,415.409 820.62,414.439 822.781,413.482 824.942,412.537 827.103,411.606 829.264,410.686 831.425,409.779 833.586,408.884 835.747,408 837.908,407.128 840.069,406.268 842.23,405.713 844.391,407.403 846.552,411.418 848.713,417.444 850.874,425.183 853.035,434.358 855.196,444.711 857.357,456.004 859.518,468.015 861.679,480.546 863.84,493.414 866.001,506.457 868.162,519.533 870.323,532.518 872.484,545.307 874.645,557.814 876.806,569.974 878.967,581.741 881.128,593.085 883.289,603.998 885.45,614.492 887.611,624.596 889.772,634.359 891.933,643.85 894.094,653.155 896.255,662.383 898.416,671.657 900.577,681.065 902.738,690.387 904.899,699.587 907.06,708.664 909.221,717.62 911.382,726.458 913.543,735.179 915.704,743.785 917.865,752.276 920.026,760.654 922.187,768.922 924.348,777.08 926.509,785.129 928.669,793.072 930.83,800.91 932.991,808.645 935.152,816.276 937.313,823.807 939.474,831.238 941.635,838.57 943.796,845.805 945.957,852.944 948.118,859.988 950.279,866.939 952.44,873.798 954.601,880.566 956.762,887.244 958.923,893.833 961.084,900.335 963.245,906.75 965.406,913.081 967.567,919.327 969.728,925.491 971.889,931.572 974.05,937.573 976.211,943.495 978.372,949.338 980.533,955.103 982.694,960.792 984.855,966.406 987.016,971.945 989.177,977.411 991.338,982.804 993.499,988.126 995.66,993.378 997.821,998.559 999.982,1003.67 1002.14,1008.72 1004.3,1013.7 1006.46,1018.61 1008.63,1023.46 1010.79,1028.24 1012.95,1032.96 1015.11,1037.62 1017.27,1042.21 1019.43,1046.75 1021.59,1051.22 1023.75,1055.64 1025.91,1059.99 1028.07,1064.29 1030.24,1068.53 1032.4,1072.72 1034.56,1076.85 1036.72,1081.04 1038.88,1085.74 1041.04,1090.75 1043.2,1095.82 1045.36,1100.71 1047.52,1105.24 1049.68,1109.25 1051.85,1112.6 1054.01,1115.2 1056.17,1116.98 1058.33,1117.93 1060.49,1118.03 1062.65,1117.33 1064.81,1115.9 1066.97,1113.83 1069.13,1111.26 1071.29,1108.36 1073.46,1105.33 1075.62,1102.4 1077.78,1099.81 1079.94,1097.39 1082.1,1094.99 1084.26,1092.63 1086.42,1090.3 1088.58,1088 1090.74,1085.73 1092.9,1083.49 1095.07,1081.28 1097.23,1079.1 1099.39,1076.95 1101.55,1074.82 1103.71,1072.73 1105.87,1070.66 1108.03,1068.62 1110.19,1066.61 1112.35,1064.62 1114.51,1062.66 1116.67,1060.73 1118.84,1058.82 1121,1056.93 1123.16,1055.08 1125.32,1053.24 1127.48,1051.43 1129.64,1049.65 1131.8,1047.89 1133.96,1046.15 1136.12,1044.43 1138.28,1042.74 1140.45,1041.07 1142.61,1039.42 1144.77,1037.8 1146.93,1036.19 1149.09,1034.61 1151.25,1033.05 1153.41,1031.51 1155.57,1029.99 1157.73,1028.49 1159.89,1027.01 1162.06,1025.54 1164.22,1024.1 1166.38,1022.68 1168.54,1021.28 1170.7,1019.89 1172.86,1018.53 1175.02,1017.18 1177.18,1015.85 1179.34,1014.53 1181.5,1013.24 1183.67,1011.96 1185.83,1010.7 1187.99,1009.45 1190.15,1008.23 1192.31,1007.01 1194.47,1005.82 1196.63,1004.64 1198.79,1003.47 1200.95,1002.32 1203.11,1001.19 1205.28,1000.07 1207.44,998.966 1209.6,997.876 1211.76,996.801 1213.92,995.74 1216.08,994.694 1218.24,993.661 1220.4,992.642 1222.56,991.636 1224.72,990.644 1226.88,989.665 1229.05,988.699 1231.21,987.745 1233.37,986.805 1235.53,985.877 1237.69,984.961 1239.85,984.057 1242.01,983.165 1244.17,982.285 1246.33,981.417 1248.49,980.56 1250.66,979.715 1252.82,978.881 1254.98,978.058 1257.14,977.246 1259.3,976.444 1261.46,975.654 1263.62,974.873 1265.78,974.103 1267.94,973.343 1270.1,972.594 1272.27,971.854 1274.43,970.961 1276.59,969.747 1278.75,968.239 1280.91,966.464 1283.07,964.447 1285.23,962.213 1287.39,959.785 1289.55,957.185 1291.71,954.434 1293.88,951.555 1296.04,948.565 1298.2,945.484 1300.36,942.329 1302.52,939.117 1304.68,935.862 1306.84,932.58 1309,929.285 1311.16,925.988 1313.32,922.702 1315.49,919.437 1317.65,916.202 1319.81,913.007 1321.97,909.859 1324.13,906.765 1326.29,903.729 1328.45,900.758 1330.61,897.854 1332.77,895.021 1334.93,892.26 1337.09,889.572 1339.26,886.956 1341.42,884.411 1343.58,881.936 1345.74,879.526 1347.9,877.178 1350.06,874.886 1352.22,872.644 1354.38,870.446 1356.54,868.282 1358.7,866.144 1360.87,864.021 1363.03,861.903 1365.19,859.777 1367.35,857.656 1369.51,855.563 1371.67,853.498 1373.83,851.46 1375.99,849.449 1378.15,847.465 1380.31,845.507 1382.48,843.575 1384.64,841.669 1386.8,839.788 1388.96,837.932 1391.12,836.1 1393.28,834.293 1395.44,832.51 1397.6,830.75 1399.76,829.014 1401.92,827.301 1404.09,825.61 1406.25,823.942 1408.41,822.296 1410.57,820.672 1412.73,819.07 1414.89,817.488 1417.05,815.928 1419.21,814.388 1421.37,812.869 1423.53,811.37 1425.7,809.89 1427.86,808.431 1430.02,806.99 1432.18,805.569 1434.34,804.167 1436.5,802.783 1438.66,801.418 1440.82,800.07 1442.98,798.741 1445.14,797.429 1447.3,796.135 1449.47,794.857 1451.63,793.597 1453.79,792.353 1455.95,791.126 1458.11,789.915 1460.27,788.713 1462.43,787.391 1464.59,785.946 1466.75,784.436 1468.91,782.909 1471.08,781.413 1473.24,779.988 1475.4,778.669 1477.56,777.488 1479.72,776.47 1481.88,775.638 1484.04,775.005 1486.2,774.585 1488.36,774.382 1490.52,774.399 1492.69,774.632 1494.85,775.071 1497.01,775.704 1499.17,776.511 1501.33,777.47 1503.49,778.552 1505.65,779.723 1507.81,780.946 1509.97,782.177 1512.13,783.368 1514.3,784.466 1516.46,785.474 1518.62,786.467 1520.78,787.447 1522.94,788.414 1525.1,789.368 1527.26,790.31 1529.42,791.239 1531.58,792.156 1533.74,793.061 1535.91,793.953 1538.07,794.834 1540.23,795.703 1542.39,796.561 1544.55,797.407 1546.71,798.243 1548.87,799.067 1551.03,799.88 1553.19,800.682 1555.35,801.474 1557.51,802.256 1559.68,803.027 1561.84,803.788 1564,804.538 1566.16,805.279 1568.32,806.01 1570.48,806.731 1572.64,807.443 1574.8,808.145 1576.96,808.838 1579.12,809.522 1581.29,810.196 1583.45,810.862 1585.61,811.519 1587.77,812.167 1589.93,812.806 1592.09,813.437 1594.25,814.059 1596.41,814.674 1598.57,815.28 1600.73,815.878 1602.9,816.468 1605.06,817.05 1607.22,817.624 1609.38,818.191 1611.54,818.75 1613.7,819.302 1615.86,819.847 1618.02,820.384 1620.18,820.914 1622.34,821.437 1624.51,821.954 1626.67,822.463 1628.83,822.966 1630.99,823.462 1633.15,823.951 1635.31,824.434 1637.47,824.91 1639.63,825.381 1641.79,825.845 1643.95,826.303 1646.12,826.754 1648.28,827.2 1650.44,827.64 1652.6,828.074 1654.76,828.503 1656.92,828.926 1659.08,829.343 1661.24,829.755 1663.4,830.161 1665.56,830.561 1667.72,830.957 1669.89,831.347 1672.05,831.732 1674.21,832.112 1676.37,832.487 1678.53,832.857 1680.69,833.222 1682.85,833.582 1685.01,833.938 1687.17,834.288 1689.33,834.635 1691.5,834.976 1693.66,835.313 1695.82,835.645 1697.98,835.974 1700.14,836.297 1702.3,836.617 1704.46,836.817 1706.62,835.545 1708.78,832.588 1710.94,828.163 1713.11,822.475 1715.27,815.714 1717.43,808.061 1719.59,799.682 1721.75,790.732 1723.91,781.352 1726.07,771.674 1728.23,761.813 1730.39,751.874 1732.55,741.951 1734.72,732.122 1736.88,722.455 1739.04,713.006 1741.2,703.816 1743.36,694.917 1745.52,686.325 1747.68,678.046 1749.84,670.073 1752,662.386 1754.16,654.953 1756.33,647.73 1758.49,640.66 1760.65,633.673 1762.81,626.689 1764.97,619.614 1767.13,612.542 1769.29,605.564 1771.45,598.678 1773.61,591.883 1775.77,585.178 1777.93,578.563 1780.1,572.035 1782.26,565.593 1784.42,559.237 1786.58,552.966 1788.74,546.777 1790.9,540.671 1793.06,534.645 1795.22,528.699 1797.38,522.832 1799.54,517.043 1801.71,511.331 1803.87,505.694 1806.03,500.132 1808.19,494.643 1810.35,489.228 1812.51,483.884 1814.67,478.611 1816.83,473.408 1818.99,468.274 1821.15,463.208 1823.32,458.21 1825.48,453.277 1827.64,448.411 1829.8,443.608 1831.96,438.87 1834.12,434.194 1836.28,429.58 1838.44,425.028 1840.6,420.535 1842.76,416.103 1844.93,411.729 1847.09,407.413 1849.25,403.154 1851.41,398.952 1853.57,394.806 1855.73,390.714 1857.89,386.677 1860.05,382.693 1862.21,378.762 1864.37,374.883 1866.54,371.056 1868.7,367.279 1870.86,363.552 1873.02,359.875 1875.18,356.246 1877.34,352.666 1879.5,349.133 1881.66,345.647 1883.82,342.207 1885.98,338.812 1888.15,335.463 1890.31,332.158 1892.47,328.897 1894.63,325.679 1896.79,322.504 1898.95,319.371 1901.11,316.279 1903.27,313.229 1905.43,310.218 1907.59,307.248 1909.75,304.317 1911.92,301.425 1914.08,298.572 1916.24,295.756 1918.4,292.977 1920.56,290.274 1922.72,289.236 1924.88,290.414 1927.04,293.43 1929.2,297.936 1931.36,303.616 1933.53,310.179 1935.69,317.37 1937.85,324.961 1940.01,332.753 1942.17,340.581 1944.33,348.305 1946.49,355.82 1948.65,363.048 1950.81,369.941 1952.97,376.484 1955.14,382.689 1957.3,388.598 1959.46,394.287 1961.62,399.857 1963.78,405.442 1965.94,411.174 1968.1,416.886 1970.26,422.522 1972.42,428.083 1974.58,433.571 1976.75,438.986 1978.91,444.329 1981.07,449.601 1983.23,454.803 1985.39,459.937 1987.55,465.002 1989.71,470 1991.87,474.932 1994.03,479.799 1996.19,484.601 1998.36,489.34 2000.52,494.015 2002.68,498.629 2004.84,503.182 2007,507.674 2009.16,512.106 2011.32,516.48 2013.48,520.796 2015.64,525.054 2017.8,529.256 2019.96,533.402 2022.13,537.494 2024.29,541.531 2026.45,545.514 2028.61,549.445 2030.77,553.323 2032.93,557.15 2035.09,560.927 2037.25,564.653 2039.41,568.33 2041.57,571.958 2043.74,575.538 2045.9,579.071 2048.06,582.556 2050.22,585.996 2052.38,589.39 2054.54,592.739 2056.7,596.044 2058.86,599.304 2061.02,602.522 2063.18,605.697 2065.35,608.83 2067.51,611.921 2069.67,614.971 2071.83,617.981 2073.99,620.951 2076.15,623.882 2078.31,626.774 2080.47,629.627 2082.63,632.443 2084.79,635.221 2086.96,637.962 2089.12,640.667 2091.28,643.336 2093.44,645.97 2095.6,648.569 2097.76,651.134 2099.92,653.664 2102.08,656.161 2104.24,658.625 2106.4,661.056 2108.57,663.455 2110.73,665.822 2112.89,668.158 2115.05,670.462 2117.21,672.736 2119.37,674.98 2121.53,677.195 2123.69,679.38 2125.85,681.536 2128.01,683.663 2130.17,685.762 2132.34,687.833 2134.5,689.877 2136.66,691.568 2138.82,692.373 2140.98,692.391 2143.14,691.727 2145.3,690.479 2147.46,688.739 2149.62,686.594 2151.78,684.123 2153.95,681.399 2156.11,678.489 2158.27,675.454 2160.43,672.346 2162.59,669.215 2164.75,666.101 2166.91,663.04 2169.07,660.059 2171.23,657.181 2173.39,654.423 2175.56,651.793 2177.72,649.294 2179.88,646.924 2182.04,644.673 2184.2,642.524 2186.36,640.456 2188.52,638.439 2190.68,636.439 2192.84,634.415 2195,632.326 2197.17,630.238 2199.33,628.178 2201.49,626.145 2203.65,624.139 2205.81,622.16 2207.97,620.207 2210.13,618.279 2212.29,616.378 2214.45,614.501 2216.61,612.65 2218.78,610.823 2220.94,609.02 2223.1,607.241 2225.26,605.486 2227.42,603.754 2229.58,602.045 2231.74,600.358 2233.9,598.694 2236.06,597.052 2238.22,595.432 2240.38,593.833 2242.55,592.255 2244.71,590.699 2246.87,589.162 2249.03,587.647 2251.19,586.151 2253.35,584.675 2255.51,583.219 2257.67,581.782 2259.83,580.365 2261.99,578.966 2264.16,577.585 2266.32,576.223 2268.48,574.879 2270.64,573.553 2272.8,572.244 2274.96,570.953 2277.12,569.679 2279.28,568.422 2281.44,567.182 2283.6,565.958 2285.77,564.75 2287.93,563.558 2290.09,562.382 2292.25,561.222 2294.41,560.077 2296.57,558.947 2298.73,557.832 2300.89,556.732 2303.05,555.646 2305.21,554.575 2307.38,553.518 2309.54,552.475 2311.7,551.446 2313.86,550.43 2316.02,549.428 2318.18,548.44 2320.34,547.464 2322.5,546.501 2324.66,545.551 2326.82,544.614 2328.99,543.689 2331.15,542.776 2333.31,541.876 2335.47,540.987 2337.63,540.11 2339.79,539.245 2341.95,538.391 2344.11,537.549 2346.27,536.717 2348.43,535.897 2350.59,535.088 2352.76,534.289 "/>
<polyline clip-path="url(#clip642)" style="stroke:#e26f46; stroke-linecap:round; stroke-linejoin:round; stroke-width:4; stroke-opacity:1; fill:none" points="193.936,1134.17 196.097,1134.17 198.258,1134.17 200.419,1134.17 202.58,1134.17 204.741,1134.17 206.902,1134.17 209.063,1134.17 211.224,1134.17 213.385,1134.17 215.546,1134.17 217.707,1134.17 219.868,1134.17 222.029,1134.17 224.19,1134.17 226.351,1134.17 228.512,1134.17 230.673,1134.17 232.834,1134.17 234.995,1134.17 237.156,1134.17 239.317,1134.17 241.478,1134.17 243.639,1134.17 245.8,1134.17 247.961,1134.17 250.122,1134.17 252.282,1134.17 254.443,1134.17 256.604,1134.17 258.765,1134.17 260.926,1134.17 263.087,1134.17 265.248,1134.17 267.409,1134.17 269.57,1134.17 271.731,1134.17 273.892,1134.17 276.053,1134.17 278.214,1134.17 280.375,1134.17 282.536,1134.17 284.697,1134.17 286.858,1134.17 289.019,1134.17 291.18,1134.17 293.341,1134.17 295.502,1134.17 297.663,1134.17 299.824,1134.17 301.985,1134.17 304.146,1134.17 306.307,1134.17 308.468,1134.17 310.629,1134.17 312.79,1134.17 314.951,1134.17 317.112,1134.17 319.273,1134.17 321.434,1134.17 323.595,1134.17 325.756,1134.17 327.917,1134.17 330.078,1134.17 332.239,1134.17 334.4,1134.17 336.561,1134.17 338.722,1134.17 340.883,1134.17 343.044,1134.17 345.205,1134.17 347.366,1134.17 349.527,1134.17 351.688,1134.17 353.849,1134.17 356.01,1134.17 358.171,1134.17 360.332,1134.17 362.493,1134.17 364.653,1134.17 366.814,1134.17 368.975,1134.17 371.136,1134.17 373.297,1134.17 375.458,1134.17 377.619,1134.17 379.78,1134.17 381.941,1134.17 384.102,1134.17 386.263,1134.17 388.424,1134.17 390.585,1134.17 392.746,1134.17 394.907,1134.17 397.068,1134.17 399.229,1134.17 401.39,1134.17 403.551,1134.17 405.712,1134.17 407.873,1134.17 410.034,440.141 412.195,440.141 414.356,440.141 416.517,440.141 418.678,440.141 420.839,440.141 423,440.141 425.161,440.141 427.322,440.141 429.483,440.141 431.644,440.141 433.805,440.141 435.966,440.141 438.127,440.141 440.288,440.141 442.449,440.141 444.61,440.141 446.771,440.141 448.932,440.141 451.093,440.141 453.254,440.141 455.415,440.141 457.576,440.141 459.737,440.141 461.898,440.141 464.059,440.141 466.22,440.141 468.381,440.141 470.542,440.141 472.703,440.141 474.864,440.141 477.024,440.141 479.185,440.141 481.346,440.141 483.507,440.141 485.668,440.141 487.829,440.141 489.99,440.141 492.151,440.141 494.312,440.141 496.473,440.141 498.634,440.141 500.795,440.141 502.956,440.141 505.117,440.141 507.278,440.141 509.439,440.141 511.6,440.141 513.761,440.141 515.922,440.141 518.083,440.141 520.244,440.141 522.405,440.141 524.566,440.141 526.727,440.141 528.888,440.141 531.049,440.141 533.21,440.141 535.371,440.141 537.532,440.141 539.693,440.141 541.854,440.141 544.015,440.141 546.176,440.141 548.337,440.141 550.498,440.141 552.659,440.141 554.82,440.141 556.981,440.141 559.142,440.141 561.303,440.141 563.464,440.141 565.625,440.141 567.786,440.141 569.947,440.141 572.108,440.141 574.269,440.141 576.43,440.141 578.591,440.141 580.752,440.141 582.913,440.141 585.074,440.141 587.235,440.141 589.396,440.141 591.556,440.141 593.717,440.141 595.878,440.141 598.039,440.141 600.2,440.141 602.361,440.141 604.522,440.141 606.683,440.141 608.844,440.141 611.005,440.141 613.166,440.141 615.327,440.141 617.488,440.141 619.649,440.141 621.81,440.141 623.971,440.141 626.132,342.249 628.293,342.249 630.454,342.249 632.615,342.249 634.776,342.249 636.937,342.249 639.098,342.249 641.259,342.249 643.42,342.249 645.581,342.249 647.742,342.249 649.903,342.249 652.064,342.249 654.225,342.249 656.386,342.249 658.547,342.249 660.708,342.249 662.869,342.249 665.03,342.249 667.191,342.249 669.352,342.249 671.513,342.249 673.674,342.249 675.835,342.249 677.996,342.249 680.157,342.249 682.318,342.249 684.479,342.249 686.64,342.249 688.801,342.249 690.962,342.249 693.123,342.249 695.284,342.249 697.445,342.249 699.606,342.249 701.767,342.249 703.927,342.249 706.088,342.249 708.249,342.249 710.41,342.249 712.571,342.249 714.732,342.249 716.893,342.249 719.054,342.249 721.215,342.249 723.376,342.249 725.537,342.249 727.698,342.249 729.859,342.249 732.02,342.249 734.181,342.249 736.342,342.249 738.503,342.249 740.664,342.249 742.825,342.249 744.986,342.249 747.147,342.249 749.308,342.249 751.469,342.249 753.63,342.249 755.791,342.249 757.952,342.249 760.113,342.249 762.274,342.249 764.435,342.249 766.596,342.249 768.757,342.249 770.918,342.249 773.079,342.249 775.24,342.249 777.401,342.249 779.562,342.249 781.723,342.249 783.884,342.249 786.045,342.249 788.206,342.249 790.367,342.249 792.528,342.249 794.689,342.249 796.85,342.249 799.011,342.249 801.172,342.249 803.333,342.249 805.494,342.249 807.655,342.249 809.816,342.249 811.977,342.249 814.138,342.249 816.298,342.249 818.459,342.249 820.62,342.249 822.781,342.249 824.942,342.249 827.103,342.249 829.264,342.249 831.425,342.249 833.586,342.249 835.747,342.249 837.908,342.249 840.069,342.249 842.23,1384.24 844.391,1384.24 846.552,1384.24 848.713,1384.24 850.874,1384.24 853.035,1384.24 855.196,1384.24 857.357,1384.24 859.518,1384.24 861.679,1384.24 863.84,1384.24 866.001,1384.24 868.162,1384.24 870.323,1384.24 872.484,1384.24 874.645,1384.24 876.806,1384.24 878.967,1384.24 881.128,1384.24 883.289,1384.24 885.45,1384.24 887.611,1384.24 889.772,1384.24 891.933,1384.24 894.094,1384.24 896.255,1384.24 898.416,1384.24 900.577,1384.24 902.738,1384.24 904.899,1384.24 907.06,1384.24 909.221,1384.24 911.382,1384.24 913.543,1384.24 915.704,1384.24 917.865,1384.24 920.026,1384.24 922.187,1384.24 924.348,1384.24 926.509,1384.24 928.669,1384.24 930.83,1384.24 932.991,1384.24 935.152,1384.24 937.313,1384.24 939.474,1384.24 941.635,1384.24 943.796,1384.24 945.957,1384.24 948.118,1384.24 950.279,1384.24 952.44,1384.24 954.601,1384.24 956.762,1384.24 958.923,1384.24 961.084,1384.24 963.245,1384.24 965.406,1384.24 967.567,1384.24 969.728,1384.24 971.889,1384.24 974.05,1384.24 976.211,1384.24 978.372,1384.24 980.533,1384.24 982.694,1384.24 984.855,1384.24 987.016,1384.24 989.177,1384.24 991.338,1384.24 993.499,1384.24 995.66,1384.24 997.821,1384.24 999.982,1384.24 1002.14,1384.24 1004.3,1384.24 1006.46,1384.24 1008.63,1384.24 1010.79,1384.24 1012.95,1384.24 1015.11,1384.24 1017.27,1384.24 1019.43,1384.24 1021.59,1384.24 1023.75,1384.24 1025.91,1384.24 1028.07,1384.24 1030.24,1384.24 1032.4,1384.24 1034.56,1384.24 1036.72,1384.24 1038.88,1384.24 1041.04,1384.24 1043.2,1384.24 1045.36,1384.24 1047.52,1384.24 1049.68,1384.24 1051.85,1384.24 1054.01,1384.24 1056.17,1384.24 1058.33,916.795 1060.49,916.795 1062.65,916.795 1064.81,916.795 1066.97,916.795 1069.13,916.795 1071.29,916.795 1073.46,916.795 1075.62,916.795 1077.78,916.795 1079.94,916.795 1082.1,916.795 1084.26,916.795 1086.42,916.795 1088.58,916.795 1090.74,916.795 1092.9,916.795 1095.07,916.795 1097.23,916.795 1099.39,916.795 1101.55,916.795 1103.71,916.795 1105.87,916.795 1108.03,916.795 1110.19,916.795 1112.35,916.795 1114.51,916.795 1116.67,916.795 1118.84,916.795 1121,916.795 1123.16,916.795 1125.32,916.795 1127.48,916.795 1129.64,916.795 1131.8,916.795 1133.96,916.795 1136.12,916.795 1138.28,916.795 1140.45,916.795 1142.61,916.795 1144.77,916.795 1146.93,916.795 1149.09,916.795 1151.25,916.795 1153.41,916.795 1155.57,916.795 1157.73,916.795 1159.89,916.795 1162.06,916.795 1164.22,916.795 1166.38,916.795 1168.54,916.795 1170.7,916.795 1172.86,916.795 1175.02,916.795 1177.18,916.795 1179.34,916.795 1181.5,916.795 1183.67,916.795 1185.83,916.795 1187.99,916.795 1190.15,916.795 1192.31,916.795 1194.47,916.795 1196.63,916.795 1198.79,916.795 1200.95,916.795 1203.11,916.795 1205.28,916.795 1207.44,916.795 1209.6,916.795 1211.76,916.795 1213.92,916.795 1216.08,916.795 1218.24,916.795 1220.4,916.795 1222.56,916.795 1224.72,916.795 1226.88,916.795 1229.05,916.795 1231.21,916.795 1233.37,916.795 1235.53,916.795 1237.69,916.795 1239.85,916.795 1242.01,916.795 1244.17,916.795 1246.33,916.795 1248.49,916.795 1250.66,916.795 1252.82,916.795 1254.98,916.795 1257.14,916.795 1259.3,916.795 1261.46,916.795 1263.62,916.795 1265.78,916.795 1267.94,916.795 1270.1,916.795 1272.27,916.795 1274.43,699.793 1276.59,699.793 1278.75,699.793 1280.91,699.793 1283.07,699.793 1285.23,699.793 1287.39,699.793 1289.55,699.793 1291.71,699.793 1293.88,699.793 1296.04,699.793 1298.2,699.793 1300.36,699.793 1302.52,699.793 1304.68,699.793 1306.84,699.793 1309,699.793 1311.16,699.793 1313.32,699.793 1315.49,699.793 1317.65,699.793 1319.81,699.793 1321.97,699.793 1324.13,699.793 1326.29,699.793 1328.45,699.793 1330.61,699.793 1332.77,699.793 1334.93,699.793 1337.09,699.793 1339.26,699.793 1341.42,699.793 1343.58,699.793 1345.74,699.793 1347.9,699.793 1350.06,699.793 1352.22,699.793 1354.38,699.793 1356.54,699.793 1358.7,699.793 1360.87,699.793 1363.03,699.793 1365.19,699.793 1367.35,699.793 1369.51,699.793 1371.67,699.793 1373.83,699.793 1375.99,699.793 1378.15,699.793 1380.31,699.793 1382.48,699.793 1384.64,699.793 1386.8,699.793 1388.96,699.793 1391.12,699.793 1393.28,699.793 1395.44,699.793 1397.6,699.793 1399.76,699.793 1401.92,699.793 1404.09,699.793 1406.25,699.793 1408.41,699.793 1410.57,699.793 1412.73,699.793 1414.89,699.793 1417.05,699.793 1419.21,699.793 1421.37,699.793 1423.53,699.793 1425.7,699.793 1427.86,699.793 1430.02,699.793 1432.18,699.793 1434.34,699.793 1436.5,699.793 1438.66,699.793 1440.82,699.793 1442.98,699.793 1445.14,699.793 1447.3,699.793 1449.47,699.793 1451.63,699.793 1453.79,699.793 1455.95,699.793 1458.11,699.793 1460.27,699.793 1462.43,699.793 1464.59,699.793 1466.75,699.793 1468.91,699.793 1471.08,699.793 1473.24,699.793 1475.4,699.793 1477.56,699.793 1479.72,699.793 1481.88,699.793 1484.04,699.793 1486.2,699.793 1488.36,699.793 1490.52,860.391 1492.69,860.391 1494.85,860.391 1497.01,860.391 1499.17,860.391 1501.33,860.391 1503.49,860.391 1505.65,860.391 1507.81,860.391 1509.97,860.391 1512.13,860.391 1514.3,860.391 1516.46,860.391 1518.62,860.391 1520.78,860.391 1522.94,860.391 1525.1,860.391 1527.26,860.391 1529.42,860.391 1531.58,860.391 1533.74,860.391 1535.91,860.391 1538.07,860.391 1540.23,860.391 1542.39,860.391 1544.55,860.391 1546.71,860.391 1548.87,860.391 1551.03,860.391 1553.19,860.391 1555.35,860.391 1557.51,860.391 1559.68,860.391 1561.84,860.391 1564,860.391 1566.16,860.391 1568.32,860.391 1570.48,860.391 1572.64,860.391 1574.8,860.391 1576.96,860.391 1579.12,860.391 1581.29,860.391 1583.45,860.391 1585.61,860.391 1587.77,860.391 1589.93,860.391 1592.09,860.391 1594.25,860.391 1596.41,860.391 1598.57,860.391 1600.73,860.391 1602.9,860.391 1605.06,860.391 1607.22,860.391 1609.38,860.391 1611.54,860.391 1613.7,860.391 1615.86,860.391 1618.02,860.391 1620.18,860.391 1622.34,860.391 1624.51,860.391 1626.67,860.391 1628.83,860.391 1630.99,860.391 1633.15,860.391 1635.31,860.391 1637.47,860.391 1639.63,860.391 1641.79,860.391 1643.95,860.391 1646.12,860.391 1648.28,860.391 1650.44,860.391 1652.6,860.391 1654.76,860.391 1656.92,860.391 1659.08,860.391 1661.24,860.391 1663.4,860.391 1665.56,860.391 1667.72,860.391 1669.89,860.391 1672.05,860.391 1674.21,860.391 1676.37,860.391 1678.53,860.391 1680.69,860.391 1682.85,860.391 1685.01,860.391 1687.17,860.391 1689.33,860.391 1691.5,860.391 1693.66,860.391 1695.82,860.391 1697.98,860.391 1700.14,860.391 1702.3,860.391 1704.46,860.391 1706.62,86.1857 1708.78,86.1857 1710.94,86.1857 1713.11,86.1857 1715.27,86.1857 1717.43,86.1857 1719.59,86.1857 1721.75,86.1857 1723.91,86.1857 1726.07,86.1857 1728.23,86.1857 1730.39,86.1857 1732.55,86.1857 1734.72,86.1857 1736.88,86.1857 1739.04,86.1857 1741.2,86.1857 1743.36,86.1857 1745.52,86.1857 1747.68,86.1857 1749.84,86.1857 1752,86.1857 1754.16,86.1857 1756.33,86.1857 1758.49,86.1857 1760.65,86.1857 1762.81,86.1857 1764.97,86.1857 1767.13,86.1857 1769.29,86.1857 1771.45,86.1857 1773.61,86.1857 1775.77,86.1857 1777.93,86.1857 1780.1,86.1857 1782.26,86.1857 1784.42,86.1857 1786.58,86.1857 1788.74,86.1857 1790.9,86.1857 1793.06,86.1857 1795.22,86.1857 1797.38,86.1857 1799.54,86.1857 1801.71,86.1857 1803.87,86.1857 1806.03,86.1857 1808.19,86.1857 1810.35,86.1857 1812.51,86.1857 1814.67,86.1857 1816.83,86.1857 1818.99,86.1857 1821.15,86.1857 1823.32,86.1857 1825.48,86.1857 1827.64,86.1857 1829.8,86.1857 1831.96,86.1857 1834.12,86.1857 1836.28,86.1857 1838.44,86.1857 1840.6,86.1857 1842.76,86.1857 1844.93,86.1857 1847.09,86.1857 1849.25,86.1857 1851.41,86.1857 1853.57,86.1857 1855.73,86.1857 1857.89,86.1857 1860.05,86.1857 1862.21,86.1857 1864.37,86.1857 1866.54,86.1857 1868.7,86.1857 1870.86,86.1857 1873.02,86.1857 1875.18,86.1857 1877.34,86.1857 1879.5,86.1857 1881.66,86.1857 1883.82,86.1857 1885.98,86.1857 1888.15,86.1857 1890.31,86.1857 1892.47,86.1857 1894.63,86.1857 1896.79,86.1857 1898.95,86.1857 1901.11,86.1857 1903.27,86.1857 1905.43,86.1857 1907.59,86.1857 1909.75,86.1857 1911.92,86.1857 1914.08,86.1857 1916.24,86.1857 1918.4,86.1857 1920.56,86.1857 1922.72,841.995 1924.88,841.995 1927.04,841.995 1929.2,841.995 1931.36,841.995 1933.53,841.995 1935.69,841.995 1937.85,841.995 1940.01,841.995 1942.17,841.995 1944.33,841.995 1946.49,841.995 1948.65,841.995 1950.81,841.995 1952.97,841.995 1955.14,841.995 1957.3,841.995 1959.46,841.995 1961.62,841.995 1963.78,841.995 1965.94,841.995 1968.1,841.995 1970.26,841.995 1972.42,841.995 1974.58,841.995 1976.75,841.995 1978.91,841.995 1981.07,841.995 1983.23,841.995 1985.39,841.995 1987.55,841.995 1989.71,841.995 1991.87,841.995 1994.03,841.995 1996.19,841.995 1998.36,841.995 2000.52,841.995 2002.68,841.995 2004.84,841.995 2007,841.995 2009.16,841.995 2011.32,841.995 2013.48,841.995 2015.64,841.995 2017.8,841.995 2019.96,841.995 2022.13,841.995 2024.29,841.995 2026.45,841.995 2028.61,841.995 2030.77,841.995 2032.93,841.995 2035.09,841.995 2037.25,841.995 2039.41,841.995 2041.57,841.995 2043.74,841.995 2045.9,841.995 2048.06,841.995 2050.22,841.995 2052.38,841.995 2054.54,841.995 2056.7,841.995 2058.86,841.995 2061.02,841.995 2063.18,841.995 2065.35,841.995 2067.51,841.995 2069.67,841.995 2071.83,841.995 2073.99,841.995 2076.15,841.995 2078.31,841.995 2080.47,841.995 2082.63,841.995 2084.79,841.995 2086.96,841.995 2089.12,841.995 2091.28,841.995 2093.44,841.995 2095.6,841.995 2097.76,841.995 2099.92,841.995 2102.08,841.995 2104.24,841.995 2106.4,841.995 2108.57,841.995 2110.73,841.995 2112.89,841.995 2115.05,841.995 2117.21,841.995 2119.37,841.995 2121.53,841.995 2123.69,841.995 2125.85,841.995 2128.01,841.995 2130.17,841.995 2132.34,841.995 2134.5,841.995 2136.66,841.995 2138.82,474.848 2140.98,474.848 2143.14,474.848 2145.3,474.848 2147.46,474.848 2149.62,474.848 2151.78,474.848 2153.95,474.848 2156.11,474.848 2158.27,474.848 2160.43,474.848 2162.59,474.848 2164.75,474.848 2166.91,474.848 2169.07,474.848 2171.23,474.848 2173.39,474.848 2175.56,474.848 2177.72,474.848 2179.88,474.848 2182.04,474.848 2184.2,474.848 2186.36,474.848 2188.52,474.848 2190.68,474.848 2192.84,474.848 2195,474.848 2197.17,474.848 2199.33,474.848 2201.49,474.848 2203.65,474.848 2205.81,474.848 2207.97,474.848 2210.13,474.848 2212.29,474.848 2214.45,474.848 2216.61,474.848 2218.78,474.848 2220.94,474.848 2223.1,474.848 2225.26,474.848 2227.42,474.848 2229.58,474.848 2231.74,474.848 2233.9,474.848 2236.06,474.848 2238.22,474.848 2240.38,474.848 2242.55,474.848 2244.71,474.848 2246.87,474.848 2249.03,474.848 2251.19,474.848 2253.35,474.848 2255.51,474.848 2257.67,474.848 2259.83,474.848 2261.99,474.848 2264.16,474.848 2266.32,474.848 2268.48,474.848 2270.64,474.848 2272.8,474.848 2274.96,474.848 2277.12,474.848 2279.28,474.848 2281.44,474.848 2283.6,474.848 2285.77,474.848 2287.93,474.848 2290.09,474.848 2292.25,474.848 2294.41,474.848 2296.57,474.848 2298.73,474.848 2300.89,474.848 2303.05,474.848 2305.21,474.848 2307.38,474.848 2309.54,474.848 2311.7,474.848 2313.86,474.848 2316.02,474.848 2318.18,474.848 2320.34,474.848 2322.5,474.848 2324.66,474.848 2326.82,474.848 2328.99,474.848 2331.15,474.848 2333.31,474.848 2335.47,474.848 2337.63,474.848 2339.79,474.848 2341.95,474.848 2344.11,474.848 2346.27,474.848 2348.43,474.848 2350.59,474.848 2352.76,474.848 "/>
<path clip-path="url(#clip640)" d="M2039.77 1377.32 L2280.8 1377.32 L2280.8 1221.8 L2039.77 1221.8  Z" fill="#ffffff" fill-rule="evenodd" fill-opacity="1"/>
<polyline clip-path="url(#clip640)" style="stroke:#000000; stroke-linecap:round; stroke-linejoin:round; stroke-width:4; stroke-opacity:1; fill:none" points="2039.77,1377.32 2280.8,1377.32 2280.8,1221.8 2039.77,1221.8 2039.77,1377.32 "/>
<polyline clip-path="url(#clip640)" style="stroke:#009af9; stroke-linecap:round; stroke-linejoin:round; stroke-width:4; stroke-opacity:1; fill:none" points="2063.76,1273.64 2207.68,1273.64 "/>
<path clip-path="url(#clip640)" d="M2256.32 1264.99 L2246.95 1277.61 L2256.81 1290.92 L2251.79 1290.92 L2244.24 1280.73 L2236.69 1290.92 L2231.67 1290.92 L2241.74 1277.35 L2232.53 1264.99 L2237.55 1264.99 L2244.42 1274.23 L2251.3 1264.99 L2256.32 1264.99 Z" fill="#000000" fill-rule="nonzero" fill-opacity="1" /><polyline clip-path="url(#clip640)" style="stroke:#e26f46; stroke-linecap:round; stroke-linejoin:round; stroke-width:4; stroke-opacity:1; fill:none" points="2063.76,1325.48 2207.68,1325.48 "/>
<path clip-path="url(#clip640)" d="M2248.17 1306.74 L2248.17 1310.28 L2244.1 1310.28 Q2241.81 1310.28 2240.91 1311.2 Q2240.03 1312.13 2240.03 1314.54 L2240.03 1316.83 L2247.04 1316.83 L2247.04 1320.14 L2240.03 1320.14 L2240.03 1342.76 L2235.74 1342.76 L2235.74 1320.14 L2231.67 1320.14 L2231.67 1316.83 L2235.74 1316.83 L2235.74 1315.02 Q2235.74 1310.7 2237.76 1308.73 Q2239.77 1306.74 2244.15 1306.74 L2248.17 1306.74 Z" fill="#000000" fill-rule="nonzero" fill-opacity="1" /></svg>
