<?xml version="1.0" encoding="utf-8"?>
<svg xmlns="http://www.w3.org/2000/svg" xmlns:xlink="http://www.w3.org/1999/xlink" width="600" height="400" viewBox="0 0 2400 1600">
<defs>
  <clipPath id="clip920">
    <rect x="0" y="0" width="2400" height="1600"/>
  </clipPath>
</defs>
<path clip-path="url(#clip920)" d="M0 1600 L2400 1600 L2400 0 L0 0  Z" fill="#ffffff" fill-rule="evenodd" fill-opacity="1"/>
<defs>
  <clipPath id="clip921">
    <rect x="138" y="47" width="2215" height="1440"/>
  </clipPath>
</defs>
<path clip-path="url(#clip921)" d="M-452.829 2401.04 L-452.829 2159 L-186.014 2037.98 L276.124 2107.85 L276.124 2349.89 L9.30842 2470.91 L-452.829 2401.04  Z" fill="#ffffff" fill-rule="evenodd" fill-opacity="1"/>
<polyline clip-path="url(#clip921)" style="stroke:#000000; stroke-linecap:round; stroke-linejoin:round; stroke-width:2; stroke-opacity:0.1; fill:none" points="719.971,1214.7 1135.43,854.903 1135.43,135.301 "/>
<polyline clip-path="url(#clip921)" style="stroke:#000000; stroke-linecap:round; stroke-linejoin:round; stroke-width:2; stroke-opacity:0.1; fill:none" points="835.506,1248.06 1250.97,888.255 1250.97,168.653 "/>
<polyline clip-path="url(#clip921)" style="stroke:#000000; stroke-linecap:round; stroke-linejoin:round; stroke-width:2; stroke-opacity:0.1; fill:none" points="951.04,1281.41 1366.5,921.607 1366.5,202.005 "/>
<polyline clip-path="url(#clip921)" style="stroke:#000000; stroke-linecap:round; stroke-linejoin:round; stroke-width:2; stroke-opacity:0.1; fill:none" points="1066.57,1314.76 1482.04,954.959 1482.04,235.357 "/>
<polyline clip-path="url(#clip921)" style="stroke:#000000; stroke-linecap:round; stroke-linejoin:round; stroke-width:2; stroke-opacity:0.1; fill:none" points="1182.11,1348.11 1597.57,988.311 1597.57,268.709 "/>
<polyline clip-path="url(#clip921)" style="stroke:#000000; stroke-linecap:round; stroke-linejoin:round; stroke-width:2; stroke-opacity:0.1; fill:none" points="1297.64,1381.46 1713.11,1021.66 1713.11,302.061 "/>
<polyline clip-path="url(#clip921)" style="stroke:#000000; stroke-linecap:round; stroke-linejoin:round; stroke-width:2; stroke-opacity:0.1; fill:none" points="1455.71,1360.37 736.108,1152.64 736.108,433.039 "/>
<polyline clip-path="url(#clip921)" style="stroke:#000000; stroke-linecap:round; stroke-linejoin:round; stroke-width:2; stroke-opacity:0.1; fill:none" points="1525.58,1299.86 805.979,1092.13 805.979,372.529 "/>
<polyline clip-path="url(#clip921)" style="stroke:#000000; stroke-linecap:round; stroke-linejoin:round; stroke-width:2; stroke-opacity:0.1; fill:none" points="1595.45,1239.35 875.85,1031.62 875.85,312.019 "/>
<polyline clip-path="url(#clip921)" style="stroke:#000000; stroke-linecap:round; stroke-linejoin:round; stroke-width:2; stroke-opacity:0.1; fill:none" points="1665.32,1178.84 945.72,971.111 945.72,251.509 "/>
<polyline clip-path="url(#clip921)" style="stroke:#000000; stroke-linecap:round; stroke-linejoin:round; stroke-width:2; stroke-opacity:0.1; fill:none" points="1735.19,1118.33 1015.59,910.601 1015.59,190.999 "/>
<polyline clip-path="url(#clip921)" style="stroke:#000000; stroke-linecap:round; stroke-linejoin:round; stroke-width:2; stroke-opacity:0.1; fill:none" points="1805.06,1057.82 1085.46,850.091 1085.46,130.489 "/>
<polyline clip-path="url(#clip921)" style="stroke:#000000; stroke-linecap:round; stroke-linejoin:round; stroke-width:2; stroke-opacity:0.1; fill:none" points="678.326,1095.19 1093.79,735.393 1813.39,943.124 "/>
<polyline clip-path="url(#clip921)" style="stroke:#000000; stroke-linecap:round; stroke-linejoin:round; stroke-width:2; stroke-opacity:0.1; fill:none" points="678.326,897.088 1093.79,537.287 1813.39,745.018 "/>
<polyline clip-path="url(#clip921)" style="stroke:#000000; stroke-linecap:round; stroke-linejoin:round; stroke-width:2; stroke-opacity:0.1; fill:none" points="678.326,698.982 1093.79,339.181 1813.39,546.912 "/>
<polyline clip-path="url(#clip921)" style="stroke:#000000; stroke-linecap:round; stroke-linejoin:round; stroke-width:2; stroke-opacity:0.1; fill:none" points="678.326,500.876 1093.79,141.075 1813.39,348.806 "/>
<polyline clip-path="url(#clip920)" style="stroke:#000000; stroke-linecap:round; stroke-linejoin:round; stroke-width:4; stroke-opacity:1; fill:none" points="678.326,1202.68 1397.93,1410.41 "/>
<polyline clip-path="url(#clip920)" style="stroke:#000000; stroke-linecap:round; stroke-linejoin:round; stroke-width:4; stroke-opacity:1; fill:none" points="719.971,1214.7 724.957,1210.39 "/>
<polyline clip-path="url(#clip920)" style="stroke:#000000; stroke-linecap:round; stroke-linejoin:round; stroke-width:4; stroke-opacity:1; fill:none" points="835.506,1248.06 840.491,1243.74 "/>
<polyline clip-path="url(#clip920)" style="stroke:#000000; stroke-linecap:round; stroke-linejoin:round; stroke-width:4; stroke-opacity:1; fill:none" points="951.04,1281.41 956.026,1277.09 "/>
<polyline clip-path="url(#clip920)" style="stroke:#000000; stroke-linecap:round; stroke-linejoin:round; stroke-width:4; stroke-opacity:1; fill:none" points="1066.57,1314.76 1071.56,1310.44 "/>
<polyline clip-path="url(#clip920)" style="stroke:#000000; stroke-linecap:round; stroke-linejoin:round; stroke-width:4; stroke-opacity:1; fill:none" points="1182.11,1348.11 1187.09,1343.79 "/>
<polyline clip-path="url(#clip920)" style="stroke:#000000; stroke-linecap:round; stroke-linejoin:round; stroke-width:4; stroke-opacity:1; fill:none" points="1297.64,1381.46 1302.63,1377.15 "/>
<path clip-path="url(#clip920)" d="M659.486 1228.98 Q655.875 1228.98 654.046 1232.54 Q652.24 1236.09 652.24 1243.22 Q652.24 1250.32 654.046 1253.89 Q655.875 1257.43 659.486 1257.43 Q663.12 1257.43 664.926 1253.89 Q666.754 1250.32 666.754 1243.22 Q666.754 1236.09 664.926 1232.54 Q663.12 1228.98 659.486 1228.98 M659.486 1225.28 Q665.296 1225.28 668.351 1229.88 Q671.43 1234.47 671.43 1243.22 Q671.43 1251.94 668.351 1256.55 Q665.296 1261.13 659.486 1261.13 Q653.676 1261.13 650.597 1256.55 Q647.541 1251.94 647.541 1243.22 Q647.541 1234.47 650.597 1229.88 Q653.676 1225.28 659.486 1225.28 Z" fill="#000000" fill-rule="nonzero" fill-opacity="1" /><path clip-path="url(#clip920)" d="M679.648 1254.58 L684.532 1254.58 L684.532 1260.46 L679.648 1260.46 L679.648 1254.58 Z" fill="#000000" fill-rule="nonzero" fill-opacity="1" /><path clip-path="url(#clip920)" d="M694.763 1225.9 L713.12 1225.9 L713.12 1229.84 L699.046 1229.84 L699.046 1238.31 Q700.064 1237.96 701.083 1237.8 Q702.101 1237.61 703.12 1237.61 Q708.907 1237.61 712.286 1240.78 Q715.666 1243.96 715.666 1249.37 Q715.666 1254.95 712.194 1258.05 Q708.722 1261.13 702.402 1261.13 Q700.226 1261.13 697.958 1260.76 Q695.712 1260.39 693.305 1259.65 L693.305 1254.95 Q695.388 1256.09 697.611 1256.64 Q699.833 1257.2 702.31 1257.2 Q706.314 1257.2 708.652 1255.09 Q710.99 1252.98 710.99 1249.37 Q710.99 1245.76 708.652 1243.65 Q706.314 1241.55 702.31 1241.55 Q700.435 1241.55 698.56 1241.97 Q696.708 1242.38 694.763 1243.26 L694.763 1225.9 Z" fill="#000000" fill-rule="nonzero" fill-opacity="1" /><path clip-path="url(#clip920)" d="M764.835 1289.88 L772.474 1289.88 L772.474 1263.51 L764.164 1265.18 L764.164 1260.92 L772.428 1259.25 L777.103 1259.25 L777.103 1289.88 L784.742 1289.88 L784.742 1293.81 L764.835 1293.81 L764.835 1289.88 Z" fill="#000000" fill-rule="nonzero" fill-opacity="1" /><path clip-path="url(#clip920)" d="M794.187 1287.93 L799.071 1287.93 L799.071 1293.81 L794.187 1293.81 L794.187 1287.93 Z" fill="#000000" fill-rule="nonzero" fill-opacity="1" /><path clip-path="url(#clip920)" d="M819.256 1262.33 Q815.645 1262.33 813.816 1265.9 Q812.011 1269.44 812.011 1276.57 Q812.011 1283.67 813.816 1287.24 Q815.645 1290.78 819.256 1290.78 Q822.89 1290.78 824.696 1287.24 Q826.524 1283.67 826.524 1276.57 Q826.524 1269.44 824.696 1265.9 Q822.89 1262.33 819.256 1262.33 M819.256 1258.63 Q825.066 1258.63 828.122 1263.23 Q831.2 1267.82 831.2 1276.57 Q831.2 1285.29 828.122 1289.9 Q825.066 1294.48 819.256 1294.48 Q813.446 1294.48 810.367 1289.9 Q807.312 1285.29 807.312 1276.57 Q807.312 1267.82 810.367 1263.23 Q813.446 1258.63 819.256 1258.63 Z" fill="#000000" fill-rule="nonzero" fill-opacity="1" /><path clip-path="url(#clip920)" d="M881.365 1323.23 L889.004 1323.23 L889.004 1296.86 L880.693 1298.53 L880.693 1294.27 L888.957 1292.6 L893.633 1292.6 L893.633 1323.23 L901.272 1323.23 L901.272 1327.16 L881.365 1327.16 L881.365 1323.23 Z" fill="#000000" fill-rule="nonzero" fill-opacity="1" /><path clip-path="url(#clip920)" d="M910.716 1321.28 L915.601 1321.28 L915.601 1327.16 L910.716 1327.16 L910.716 1321.28 Z" fill="#000000" fill-rule="nonzero" fill-opacity="1" /><path clip-path="url(#clip920)" d="M925.832 1292.6 L944.188 1292.6 L944.188 1296.54 L930.114 1296.54 L930.114 1305.01 Q931.133 1304.66 932.151 1304.5 Q933.17 1304.32 934.189 1304.32 Q939.976 1304.32 943.355 1307.49 Q946.735 1310.66 946.735 1316.08 Q946.735 1321.65 943.263 1324.76 Q939.79 1327.84 933.471 1327.84 Q931.295 1327.84 929.027 1327.47 Q926.781 1327.09 924.374 1326.35 L924.374 1321.65 Q926.457 1322.79 928.679 1323.34 Q930.901 1323.9 933.378 1323.9 Q937.383 1323.9 939.721 1321.79 Q942.059 1319.69 942.059 1316.08 Q942.059 1312.47 939.721 1310.36 Q937.383 1308.25 933.378 1308.25 Q931.503 1308.25 929.628 1308.67 Q927.777 1309.09 925.832 1309.97 L925.832 1292.6 Z" fill="#000000" fill-rule="nonzero" fill-opacity="1" /><path clip-path="url(#clip920)" d="M999.121 1356.58 L1015.44 1356.58 L1015.44 1360.52 L993.496 1360.52 L993.496 1356.58 Q996.158 1353.83 1000.74 1349.2 Q1005.35 1344.54 1006.53 1343.2 Q1008.77 1340.68 1009.65 1338.94 Q1010.56 1337.18 1010.56 1335.49 Q1010.56 1332.74 1008.61 1331 Q1006.69 1329.27 1003.59 1329.27 Q1001.39 1329.27 998.936 1330.03 Q996.506 1330.79 993.728 1332.34 L993.728 1327.62 Q996.552 1326.49 999.006 1325.91 Q1001.46 1325.33 1003.5 1325.33 Q1008.87 1325.33 1012.06 1328.02 Q1015.26 1330.7 1015.26 1335.19 Q1015.26 1337.32 1014.45 1339.24 Q1013.66 1341.14 1011.55 1343.73 Q1010.97 1344.4 1007.87 1347.62 Q1004.77 1350.82 999.121 1356.58 Z" fill="#000000" fill-rule="nonzero" fill-opacity="1" /><path clip-path="url(#clip920)" d="M1025.26 1354.64 L1030.14 1354.64 L1030.14 1360.52 L1025.26 1360.52 L1025.26 1354.64 Z" fill="#000000" fill-rule="nonzero" fill-opacity="1" /><path clip-path="url(#clip920)" d="M1050.32 1329.03 Q1046.71 1329.03 1044.88 1332.6 Q1043.08 1336.14 1043.08 1343.27 Q1043.08 1350.38 1044.88 1353.94 Q1046.71 1357.48 1050.32 1357.48 Q1053.96 1357.48 1055.76 1353.94 Q1057.59 1350.38 1057.59 1343.27 Q1057.59 1336.14 1055.76 1332.6 Q1053.96 1329.03 1050.32 1329.03 M1050.32 1325.33 Q1056.13 1325.33 1059.19 1329.94 Q1062.27 1334.52 1062.27 1343.27 Q1062.27 1352 1059.19 1356.6 Q1056.13 1361.19 1050.32 1361.19 Q1044.51 1361.19 1041.44 1356.6 Q1038.38 1352 1038.38 1343.27 Q1038.38 1334.52 1041.44 1329.94 Q1044.51 1325.33 1050.32 1325.33 Z" fill="#000000" fill-rule="nonzero" fill-opacity="1" /><path clip-path="url(#clip920)" d="M1115.65 1389.93 L1131.97 1389.93 L1131.97 1393.87 L1110.03 1393.87 L1110.03 1389.93 Q1112.69 1387.18 1117.27 1382.55 Q1121.88 1377.9 1123.06 1376.55 Q1125.3 1374.03 1126.18 1372.29 Q1127.09 1370.53 1127.09 1368.84 Q1127.09 1366.09 1125.14 1364.35 Q1123.22 1362.62 1120.12 1362.62 Q1117.92 1362.62 1115.47 1363.38 Q1113.04 1364.15 1110.26 1365.7 L1110.26 1360.97 Q1113.08 1359.84 1115.54 1359.26 Q1117.99 1358.68 1120.03 1358.68 Q1125.4 1358.68 1128.59 1361.37 Q1131.79 1364.05 1131.79 1368.54 Q1131.79 1370.67 1130.98 1372.59 Q1130.19 1374.49 1128.08 1377.09 Q1127.5 1377.76 1124.4 1380.97 Q1121.3 1384.17 1115.65 1389.93 Z" fill="#000000" fill-rule="nonzero" fill-opacity="1" /><path clip-path="url(#clip920)" d="M1141.79 1387.99 L1146.67 1387.99 L1146.67 1393.87 L1141.79 1393.87 L1141.79 1387.99 Z" fill="#000000" fill-rule="nonzero" fill-opacity="1" /><path clip-path="url(#clip920)" d="M1156.9 1359.31 L1175.26 1359.31 L1175.26 1363.24 L1161.18 1363.24 L1161.18 1371.72 Q1162.2 1371.37 1163.22 1371.21 Q1164.24 1371.02 1165.26 1371.02 Q1171.04 1371.02 1174.42 1374.19 Q1177.8 1377.36 1177.8 1382.78 Q1177.8 1388.36 1174.33 1391.46 Q1170.86 1394.54 1164.54 1394.54 Q1162.36 1394.54 1160.1 1394.17 Q1157.85 1393.8 1155.44 1393.06 L1155.44 1388.36 Q1157.53 1389.49 1159.75 1390.05 Q1161.97 1390.6 1164.45 1390.6 Q1168.45 1390.6 1170.79 1388.5 Q1173.13 1386.39 1173.13 1382.78 Q1173.13 1379.17 1170.79 1377.06 Q1168.45 1374.96 1164.45 1374.96 Q1162.57 1374.96 1160.7 1375.37 Q1158.85 1375.79 1156.9 1376.67 L1156.9 1359.31 Z" fill="#000000" fill-rule="nonzero" fill-opacity="1" /><path clip-path="url(#clip920)" d="M1240.33 1408.59 Q1243.69 1409.3 1245.56 1411.57 Q1247.46 1413.84 1247.46 1417.17 Q1247.46 1422.29 1243.94 1425.09 Q1240.42 1427.89 1233.94 1427.89 Q1231.76 1427.89 1229.45 1427.45 Q1227.16 1427.03 1224.7 1426.18 L1224.7 1421.66 Q1226.65 1422.8 1228.96 1423.38 Q1231.28 1423.96 1233.8 1423.96 Q1238.2 1423.96 1240.49 1422.22 Q1242.81 1420.48 1242.81 1417.17 Q1242.81 1414.12 1240.65 1412.41 Q1238.52 1410.67 1234.7 1410.67 L1230.68 1410.67 L1230.68 1406.83 L1234.89 1406.83 Q1238.34 1406.83 1240.17 1405.46 Q1242 1404.07 1242 1401.48 Q1242 1398.82 1240.1 1397.41 Q1238.22 1395.97 1234.7 1395.97 Q1232.78 1395.97 1230.58 1396.39 Q1228.38 1396.8 1225.75 1397.68 L1225.75 1393.52 Q1228.41 1392.78 1230.72 1392.41 Q1233.06 1392.03 1235.12 1392.03 Q1240.44 1392.03 1243.55 1394.47 Q1246.65 1396.87 1246.65 1400.99 Q1246.65 1403.86 1245 1405.85 Q1243.36 1407.82 1240.33 1408.59 Z" fill="#000000" fill-rule="nonzero" fill-opacity="1" /><path clip-path="url(#clip920)" d="M1256.32 1421.34 L1261.21 1421.34 L1261.21 1427.22 L1256.32 1427.22 L1256.32 1421.34 Z" fill="#000000" fill-rule="nonzero" fill-opacity="1" /><path clip-path="url(#clip920)" d="M1281.39 1395.74 Q1277.78 1395.74 1275.95 1399.3 Q1274.15 1402.84 1274.15 1409.97 Q1274.15 1417.08 1275.95 1420.65 Q1277.78 1424.19 1281.39 1424.19 Q1285.03 1424.19 1286.83 1420.65 Q1288.66 1417.08 1288.66 1409.97 Q1288.66 1402.84 1286.83 1399.3 Q1285.03 1395.74 1281.39 1395.74 M1281.39 1392.03 Q1287.2 1392.03 1290.26 1396.64 Q1293.34 1401.22 1293.34 1409.97 Q1293.34 1418.7 1290.26 1423.31 Q1287.2 1427.89 1281.39 1427.89 Q1275.58 1427.89 1272.5 1423.31 Q1269.45 1418.7 1269.45 1409.97 Q1269.45 1401.22 1272.5 1396.64 Q1275.58 1392.03 1281.39 1392.03 Z" fill="#000000" fill-rule="nonzero" fill-opacity="1" /><polyline clip-path="url(#clip920)" style="stroke:#000000; stroke-linecap:round; stroke-linejoin:round; stroke-width:4; stroke-opacity:1; fill:none" points="1397.93,1410.41 1813.39,1050.61 "/>
<polyline clip-path="url(#clip920)" style="stroke:#000000; stroke-linecap:round; stroke-linejoin:round; stroke-width:4; stroke-opacity:1; fill:none" points="1455.71,1360.37 1447.07,1357.88 "/>
<polyline clip-path="url(#clip920)" style="stroke:#000000; stroke-linecap:round; stroke-linejoin:round; stroke-width:4; stroke-opacity:1; fill:none" points="1525.58,1299.86 1516.95,1297.37 "/>
<polyline clip-path="url(#clip920)" style="stroke:#000000; stroke-linecap:round; stroke-linejoin:round; stroke-width:4; stroke-opacity:1; fill:none" points="1595.45,1239.35 1586.82,1236.86 "/>
<polyline clip-path="url(#clip920)" style="stroke:#000000; stroke-linecap:round; stroke-linejoin:round; stroke-width:4; stroke-opacity:1; fill:none" points="1665.32,1178.84 1656.69,1176.35 "/>
<polyline clip-path="url(#clip920)" style="stroke:#000000; stroke-linecap:round; stroke-linejoin:round; stroke-width:4; stroke-opacity:1; fill:none" points="1735.19,1118.33 1726.56,1115.84 "/>
<polyline clip-path="url(#clip920)" style="stroke:#000000; stroke-linecap:round; stroke-linejoin:round; stroke-width:4; stroke-opacity:1; fill:none" points="1805.06,1057.82 1796.43,1055.33 "/>
<path clip-path="url(#clip920)" d="M1483.21 1373.39 L1471.4 1391.84 L1483.21 1391.84 L1483.21 1373.39 M1481.98 1369.32 L1487.86 1369.32 L1487.86 1391.84 L1492.79 1391.84 L1492.79 1395.73 L1487.86 1395.73 L1487.86 1403.88 L1483.21 1403.88 L1483.21 1395.73 L1467.61 1395.73 L1467.61 1391.22 L1481.98 1369.32 Z" fill="#000000" fill-rule="nonzero" fill-opacity="1" /><path clip-path="url(#clip920)" d="M1538.94 1308.81 L1557.29 1308.81 L1557.29 1312.75 L1543.22 1312.75 L1543.22 1321.22 Q1544.24 1320.87 1545.25 1320.71 Q1546.27 1320.52 1547.29 1320.52 Q1553.08 1320.52 1556.46 1323.69 Q1559.84 1326.87 1559.84 1332.28 Q1559.84 1337.86 1556.37 1340.96 Q1552.89 1344.04 1546.57 1344.04 Q1544.4 1344.04 1542.13 1343.67 Q1539.88 1343.3 1537.48 1342.56 L1537.48 1337.86 Q1539.56 1339 1541.78 1339.55 Q1544 1340.11 1546.48 1340.11 Q1550.49 1340.11 1552.82 1338 Q1555.16 1335.89 1555.16 1332.28 Q1555.16 1328.67 1552.82 1326.56 Q1550.49 1324.46 1546.48 1324.46 Q1544.61 1324.46 1542.73 1324.87 Q1540.88 1325.29 1538.94 1326.17 L1538.94 1308.81 Z" fill="#000000" fill-rule="nonzero" fill-opacity="1" /><path clip-path="url(#clip920)" d="M1619.69 1263.72 Q1616.54 1263.72 1614.69 1265.87 Q1612.86 1268.02 1612.86 1271.77 Q1612.86 1275.5 1614.69 1277.68 Q1616.54 1279.83 1619.69 1279.83 Q1622.83 1279.83 1624.66 1277.68 Q1626.51 1275.5 1626.51 1271.77 Q1626.51 1268.02 1624.66 1265.87 Q1622.83 1263.72 1619.69 1263.72 M1628.97 1249.06 L1628.97 1253.32 Q1627.21 1252.49 1625.4 1252.05 Q1623.62 1251.61 1621.86 1251.61 Q1617.23 1251.61 1614.78 1254.74 Q1612.35 1257.86 1612 1264.18 Q1613.37 1262.17 1615.43 1261.1 Q1617.49 1260.01 1619.96 1260.01 Q1625.17 1260.01 1628.18 1263.18 Q1631.21 1266.33 1631.21 1271.77 Q1631.21 1277.1 1628.07 1280.31 Q1624.92 1283.53 1619.69 1283.53 Q1613.69 1283.53 1610.52 1278.95 Q1607.35 1274.34 1607.35 1265.62 Q1607.35 1257.42 1611.24 1252.56 Q1615.13 1247.68 1621.68 1247.68 Q1623.44 1247.68 1625.22 1248.02 Q1627.02 1248.37 1628.97 1249.06 Z" fill="#000000" fill-rule="nonzero" fill-opacity="1" /><path clip-path="url(#clip920)" d="M1677.22 1187.79 L1699.44 1187.79 L1699.44 1189.78 L1686.89 1222.35 L1682.01 1222.35 L1693.82 1191.73 L1677.22 1191.73 L1677.22 1187.79 Z" fill="#000000" fill-rule="nonzero" fill-opacity="1" /><path clip-path="url(#clip920)" d="M1758.94 1145.43 Q1755.61 1145.43 1753.69 1147.21 Q1751.79 1148.99 1751.79 1152.12 Q1751.79 1155.24 1753.69 1157.03 Q1755.61 1158.81 1758.94 1158.81 Q1762.27 1158.81 1764.2 1157.03 Q1766.12 1155.22 1766.12 1152.12 Q1766.12 1148.99 1764.2 1147.21 Q1762.3 1145.43 1758.94 1145.43 M1754.27 1143.44 Q1751.26 1142.7 1749.57 1140.64 Q1747.9 1138.58 1747.9 1135.61 Q1747.9 1131.47 1750.84 1129.06 Q1753.8 1126.66 1758.94 1126.66 Q1764.1 1126.66 1767.04 1129.06 Q1769.98 1131.47 1769.98 1135.61 Q1769.98 1138.58 1768.29 1140.64 Q1766.63 1142.7 1763.64 1143.44 Q1767.02 1144.22 1768.89 1146.52 Q1770.79 1148.81 1770.79 1152.12 Q1770.79 1157.14 1767.71 1159.83 Q1764.66 1162.51 1758.94 1162.51 Q1753.22 1162.51 1750.14 1159.83 Q1747.09 1157.14 1747.09 1152.12 Q1747.09 1148.81 1748.99 1146.52 Q1750.89 1144.22 1754.27 1143.44 M1752.55 1136.05 Q1752.55 1138.74 1754.22 1140.24 Q1755.91 1141.75 1758.94 1141.75 Q1761.95 1141.75 1763.64 1140.24 Q1765.35 1138.74 1765.35 1136.05 Q1765.35 1133.37 1763.64 1131.86 Q1761.95 1130.36 1758.94 1130.36 Q1755.91 1130.36 1754.22 1131.86 Q1752.55 1133.37 1752.55 1136.05 Z" fill="#000000" fill-rule="nonzero" fill-opacity="1" /><path clip-path="url(#clip920)" d="M1819.18 1100.61 L1819.18 1096.35 Q1820.94 1097.19 1822.75 1097.63 Q1824.55 1098.07 1826.29 1098.07 Q1830.92 1098.07 1833.35 1094.96 Q1835.8 1091.84 1836.15 1085.5 Q1834.81 1087.49 1832.75 1088.55 Q1830.69 1089.62 1828.19 1089.62 Q1823 1089.62 1819.97 1086.49 Q1816.96 1083.34 1816.96 1077.9 Q1816.96 1072.58 1820.11 1069.36 Q1823.26 1066.15 1828.49 1066.15 Q1834.48 1066.15 1837.63 1070.75 Q1840.8 1075.34 1840.8 1084.09 Q1840.8 1092.26 1836.91 1097.14 Q1833.05 1102 1826.5 1102 Q1824.74 1102 1822.93 1101.65 Q1821.13 1101.31 1819.18 1100.61 M1828.49 1085.96 Q1831.64 1085.96 1833.46 1083.81 Q1835.32 1081.65 1835.32 1077.9 Q1835.32 1074.18 1833.46 1072.03 Q1831.64 1069.85 1828.49 1069.85 Q1825.34 1069.85 1823.49 1072.03 Q1821.66 1074.18 1821.66 1077.9 Q1821.66 1081.65 1823.49 1083.81 Q1825.34 1085.96 1828.49 1085.96 Z" fill="#000000" fill-rule="nonzero" fill-opacity="1" /><polyline clip-path="url(#clip920)" style="stroke:#000000; stroke-linecap:round; stroke-linejoin:round; stroke-width:4; stroke-opacity:1; fill:none" points="678.326,1202.68 678.326,483.08 "/>
<polyline clip-path="url(#clip920)" style="stroke:#000000; stroke-linecap:round; stroke-linejoin:round; stroke-width:4; stroke-opacity:1; fill:none" points="678.326,1095.19 683.311,1090.88 "/>
<polyline clip-path="url(#clip920)" style="stroke:#000000; stroke-linecap:round; stroke-linejoin:round; stroke-width:4; stroke-opacity:1; fill:none" points="678.326,897.088 683.311,892.77 "/>
<polyline clip-path="url(#clip920)" style="stroke:#000000; stroke-linecap:round; stroke-linejoin:round; stroke-width:4; stroke-opacity:1; fill:none" points="678.326,698.982 683.311,694.664 "/>
<polyline clip-path="url(#clip920)" style="stroke:#000000; stroke-linecap:round; stroke-linejoin:round; stroke-width:4; stroke-opacity:1; fill:none" points="678.326,500.876 683.311,496.558 "/>
<path clip-path="url(#clip920)" d="M639.942 1081.99 L628.137 1100.44 L639.942 1100.44 L639.942 1081.99 M638.715 1077.91 L644.595 1077.91 L644.595 1100.44 L649.526 1100.44 L649.526 1104.33 L644.595 1104.33 L644.595 1112.47 L639.942 1112.47 L639.942 1104.33 L624.341 1104.33 L624.341 1099.81 L638.715 1077.91 Z" fill="#000000" fill-rule="nonzero" fill-opacity="1" /><path clip-path="url(#clip920)" d="M637.998 895.224 Q634.85 895.224 632.998 897.377 Q631.169 899.53 631.169 903.28 Q631.169 907.007 632.998 909.183 Q634.85 911.335 637.998 911.335 Q641.146 911.335 642.975 909.183 Q644.827 907.007 644.827 903.28 Q644.827 899.53 642.975 897.377 Q641.146 895.224 637.998 895.224 M647.28 880.572 L647.28 884.831 Q645.521 883.997 643.715 883.558 Q641.933 883.118 640.174 883.118 Q635.544 883.118 633.09 886.243 Q630.66 889.368 630.313 895.687 Q631.678 893.673 633.739 892.609 Q635.799 891.521 638.276 891.521 Q643.484 891.521 646.493 894.692 Q649.526 897.84 649.526 903.28 Q649.526 908.604 646.377 911.821 Q643.229 915.039 637.998 915.039 Q632.003 915.039 628.831 910.456 Q625.66 905.849 625.66 897.122 Q625.66 888.928 629.549 884.067 Q633.438 879.183 639.989 879.183 Q641.748 879.183 643.53 879.53 Q645.336 879.877 647.28 880.572 Z" fill="#000000" fill-rule="nonzero" fill-opacity="1" /><path clip-path="url(#clip920)" d="M637.674 699.85 Q634.34 699.85 632.419 701.632 Q630.521 703.415 630.521 706.54 Q630.521 709.665 632.419 711.447 Q634.34 713.229 637.674 713.229 Q641.007 713.229 642.928 711.447 Q644.85 709.641 644.85 706.54 Q644.85 703.415 642.928 701.632 Q641.03 699.85 637.674 699.85 M632.998 697.859 Q629.989 697.118 628.299 695.058 Q626.632 692.998 626.632 690.035 Q626.632 685.892 629.572 683.484 Q632.535 681.077 637.674 681.077 Q642.836 681.077 645.776 683.484 Q648.715 685.892 648.715 690.035 Q648.715 692.998 647.026 695.058 Q645.359 697.118 642.373 697.859 Q645.752 698.646 647.627 700.938 Q649.526 703.229 649.526 706.54 Q649.526 711.563 646.447 714.248 Q643.391 716.933 637.674 716.933 Q631.956 716.933 628.878 714.248 Q625.822 711.563 625.822 706.54 Q625.822 703.229 627.72 700.938 Q629.618 698.646 632.998 697.859 M631.285 690.475 Q631.285 693.16 632.952 694.665 Q634.641 696.169 637.674 696.169 Q640.683 696.169 642.373 694.665 Q644.086 693.16 644.086 690.475 Q644.086 687.79 642.373 686.285 Q640.683 684.78 637.674 684.78 Q634.641 684.78 632.952 686.285 Q631.285 687.79 631.285 690.475 Z" fill="#000000" fill-rule="nonzero" fill-opacity="1" /><path clip-path="url(#clip920)" d="M598.23 514.221 L605.868 514.221 L605.868 487.855 L597.558 489.522 L597.558 485.262 L605.822 483.596 L610.498 483.596 L610.498 514.221 L618.137 514.221 L618.137 518.156 L598.23 518.156 L598.23 514.221 Z" fill="#000000" fill-rule="nonzero" fill-opacity="1" /><path clip-path="url(#clip920)" d="M637.581 486.674 Q633.97 486.674 632.141 490.239 Q630.336 493.781 630.336 500.91 Q630.336 508.017 632.141 511.582 Q633.97 515.123 637.581 515.123 Q641.215 515.123 643.021 511.582 Q644.85 508.017 644.85 500.91 Q644.85 493.781 643.021 490.239 Q641.215 486.674 637.581 486.674 M637.581 482.971 Q643.391 482.971 646.447 487.577 Q649.526 492.161 649.526 500.91 Q649.526 509.637 646.447 514.244 Q643.391 518.827 637.581 518.827 Q631.771 518.827 628.692 514.244 Q625.637 509.637 625.637 500.91 Q625.637 492.161 628.692 487.577 Q631.771 482.971 637.581 482.971 Z" fill="#000000" fill-rule="nonzero" fill-opacity="1" /><polyline clip-path="url(#clip921)" style="stroke:#009af9; stroke-linecap:round; stroke-linejoin:round; stroke-width:4; stroke-opacity:1; fill:none" points="963.159,930.964 961.268,933.097 969.246,922.906 965.932,926.962 960.096,934.139 957.584,937.021 958.795,935.196 956.831,937.363 962.621,929.726 961.688,930.592 958.51,934.202 950.074,944.304 958.115,933.549 970.136,918.095 990.704,892.283 997.023,885.214 1011.61,868.16 1028.76,848.854 1046.34,830.126 1060.17,817.42 1050.79,833.277 1038.8,850.666 1024.23,869.75 1030.03,864.082 1020.49,876.151 994.147,906.569 1000.87,897.12 995.616,902.133 973.726,926.857 1014.04,875.788 1064.83,821.752 1081.27,808.846 1088.03,811.074 1125.14,774.499 1121.22,783.714 1133.08,777.493 1132.33,786.417 1107.78,811.59 1050.59,869.7 1053.17,857.683 1144.62,752.177 1132.97,775.713 1095.48,822.652 1198.67,719.392 1213.32,715.401 1228.11,711.542 1136.7,796.573 1144.79,778.746 1123.15,801.294 1122.14,795.152 1174.12,749.315 1281.38,661.758 1225.33,720.721 1268.3,698.671 1279.42,690.453 1333.61,640.618 1309.83,666.265 1430.89,572.471 1369.99,631.407 1360.72,626.967 1379.8,610.27 1283.24,693.638 1269.64,697.568 1283.01,687.399 1255.76,703.735 1257.8,698.277 1148.93,783.499 1065.51,856.816 1118.84,795.663 1066.45,849.423 1015.62,896.44 1041.09,858.257 1057.71,841.329 1073.26,824.93 1010.67,900.529 1044.12,852.561 1001.92,895.106 1075.38,830.712 1066.38,834.427 1057.47,845.737 1107.45,792.775 1139.68,771.133 1179.96,754.163 1281.33,662.02 1288.39,667.846 1215.36,726.146 1216.13,731.635 1121.75,820.117 1130.16,801.417 1059.29,860.691 1098.24,814.891 1033.75,882.895 1082.98,830.734 1103.46,795.901 1054.83,846.012 995.188,896.822 999.796,892.978 924.585,974.226 926.388,959.348 906.908,975.872 928.156,954.506 833.956,1054.9 793.793,1089.14 786.52,1093.3 801.593,1073.95 830.784,1046.71 813.679,1067.74 840.992,1028.01 873.567,994.898 951.111,918.49 994.83,884.413 1039.98,846.387 1102.78,797.627 1145.36,768.132 1135.05,791.104 1200.23,727.391 1159.69,767.692 1106.43,823.214 1009.75,902.978 998.529,901.201 976.87,920.166 973.774,920.528 991.16,894.52 1005.76,885.492 1007.01,883.233 1046.94,847.882 1037.82,867.01 1074.44,833.926 1065.94,846.083 1104.03,821.818 1101.02,818.505 1089.66,830.612 1064.43,847.077 1001.11,911.012 1024.43,874.816 1152.95,767.834 1137.18,786.947 1159.54,771.374 1125.43,788.414 1222.69,704.438 1202.29,731.308 1297.05,649.167 1193.93,745.919 1114.6,817.774 1088.97,828.493 1061.32,845.093 1027.35,873.788 1006.16,899.946 968.267,928.422 973.313,919.152 959.472,928.924 1005.99,887.851 1100.14,795.95 1118.12,795.151 1177.44,749.079 1261.24,702.849 1282.49,677.951 1306.69,659.635 1251.25,706.614 1142.4,794.172 1231.33,701.721 1225.95,709.948 1242.49,705.027 1127.93,804.194 1109.63,812.287 1112.88,800.802 1139.59,777.917 1099.89,824.721 1174.47,760.312 1133.89,787.54 1183.58,743.049 1072.27,844.905 955.392,952.517 935.07,959.671 966.673,913.163 949.58,942.825 894.572,992.77 901.645,979.757 909.348,973.221 927.108,954.734 1003.89,880.066 940.717,949.851 1003.4,879.544 948.534,944.072 1059.67,835.173 1005.58,891.847 1030.85,870.827 1161.37,751.191 1106.04,818.779 1100.39,812.686 1034.36,866.513 1078.33,825.199 1131.77,789.988 1086.96,840.083 1129.19,793.117 1123.75,795.392 1143.9,784.498 1196.1,746.061 1216.57,736.521 1266.23,694.452 1359.52,620.622 1233.73,728.34 1151.45,795.547 1124.61,801.537 1084.6,832.187 1027.51,876.44 1015.22,887.198 990.1,913.68 948.278,946.815 904.66,985.189 925.304,957.159 884.699,1002.65 921.982,958.463 893.692,1000.31 910.552,985.185 864.979,1020.56 896.498,984.878 855.018,1028.82 856.577,1022.57 860.161,1013.94 956.428,916.603 969.064,915.174 994.21,887.471 1043.47,843.493 1124.48,777.799 1126.02,793.061 1140.03,778.635 1116.91,798.988 1116.34,798.589 1174.48,749.07 1137.73,790.247 1179.83,750.822 1114.8,812.278 1233.39,701.557 1194.95,750.81 1141.71,787.083 1168.37,757.432 1152.2,784.06 1178.83,738.943 1240.78,686.553 1326.29,624.124 1347.44,639.028 1260.89,713.391 1269.26,686.603 1225.58,726.033 1285.75,673.348 1333.86,644.265 1244.57,726.074 1243.85,701.376 1416.01,556.223 1390.56,609.308 1318.21,671.456 1274.79,698.886 1237.98,728.318 1154.87,791.458 1080.44,850.106 1103.82,811.277 1141.71,768.997 1070.97,840.152 1079.14,829.297 1128.52,781.619 1099.27,805.031 1102.59,808.768 1133.45,791.437 1147.9,761.25 1173.8,753.258 1176.04,757.112 1137.1,797.899 1044.52,875.828 966.426,940.634 933.172,962.606 910.778,980.348 941.726,944.843 880.613,1005.64 859.855,1029.81 788.619,1103.51 769.741,1117.74 779.696,1095.45 794.722,1073.83 788.03,1087.02 832.309,1037.81 865.438,1005.67 895.94,969.663 942.425,929.129 975.399,901.53 934.733,954.356 943.703,946.896 961.286,931.592 993.178,896.75 959.933,923.379 981.023,899.221 1005.67,893.516 1070.02,827.522 1082.27,820.917 1090.11,814.622 1007.56,888.71 935.634,964.925 978.845,918.826 902.191,978.093 931.178,950.444 938.517,935.782 1003.61,886.273 994.705,892.557 985.54,902.61 920.081,962.653 949.918,932.026 1014.93,873.987 1084.57,811.488 1058.64,846.767 1017.24,889.358 1015.03,880.637 1038.66,866.649 951.59,945.197 937.794,948.986 974.005,914.065 953.917,934.018 867.482,1022.46 897.981,991.794 834.819,1054.92 877.964,1015.35 957.145,941.598 971.65,921.833 935.881,946.852 955.91,935.137 946.754,944.389 936.882,941.69 974.417,913.319 975,915.698 968.322,933.909 925.641,967.762 998.176,881.426 927.837,954.4 1000.59,886.761 1017.96,872.56 1044.32,849.162 1133.26,771.027 1050.22,858.53 994.818,897.055 1007.92,882.571 1092.69,802.694 1116.9,793.303 1158.99,765.505 1090.58,820.403 1064.18,835.583 1018.47,873.417 970.361,935.219 981.665,935.429 1025.57,884.62 1036.27,882.351 994.754,910.484 1002.65,902.319 1086.59,828.821 1027.57,875.571 1111.08,805.504 1099.17,812.093 1186.31,735.921 1113.6,803.029 1144.93,775.366 1124.35,785.504 1075.44,826.59 1220.21,693.338 1247.03,686.456 1231.85,712.695 1230.44,720.821 1088.3,845.693 1035.74,877.419 1071.4,826.005 995.985,911.397 1038.41,863.65 1087.22,803.039 1081.94,834.424 1038.2,878.362 1010.76,901.34 1005.16,900.538 1000.93,900.199 990.111,907.75 983.888,908.615 1017.9,871.627 1070,828.093 1144.83,767.661 1228.6,706.037 1333.87,624.385 1350.02,635.484 1259.46,703.483 1225.24,728.149 1139.43,792.7 1039.32,881.325 1062.15,851.18 1048.86,869.4 1061.33,849.139 1009.39,897.643 1021.24,872.224 1075.83,827.068 1103.63,796.97 1076.98,821.151 1041.07,855.43 1091.4,827.581 1044.25,872.209 1080.14,837.601 1104.42,805.019 1116.66,807.833 1095.01,827.162 1154.01,770.241 1264.34,682.722 1216.01,733.1 1231.43,720.946 1217.92,732.037 1099.54,830.964 1124.78,794.8 1132.8,787.379 1159.82,763.107 1174.02,752.583 999.002,907.584 1028.73,866.934 1055.6,840.57 1085.55,830.782 1063.36,855.829 1035.79,874.836 969.428,940.346 937.997,965.523 890.281,1010.8 913.78,969.35 902,983.183 881.639,1008.07 833.464,1059.31 833.62,1051.16 849.162,1028.49 828.207,1051.24 818.776,1065.52 850.484,1024.89 828.935,1054.81 824.509,1054.15 828.642,1049.88 893.25,983.841 956.261,915.164 1008.47,876.042 1083.05,803.997 1073.55,827.234 1098.76,808.658 1041.22,859.394 1042.85,844.949 996.34,903.774 1150.51,752.945 1143,772.789 1249.69,690.926 1334.28,636.362 1456.98,554.009 1631.95,425.175 1612.23,474.556 1549.39,523.612 1509.41,539.802 1427.2,597.958 1370.06,642.998 1349.53,648.317 1339.24,644.916 1311.07,664.555 1341.18,638.549 1307.45,676.62 1272.45,694.964 1323.99,631.595 1355.99,605.85 1279.9,684.384 1278.51,679.697 1247.56,708.212 1207.85,742.001 1185.9,750.39 1117.25,815.46 1080.01,839.112 1057.96,854.06 1006.36,903.858 1057.2,843.038 1058.45,839.602 1042.11,857.261 1054.53,851.972 1034.33,868.813 1012.47,889.111 985.994,920.213 941.204,948.789 916.273,969.847 938.961,942.894 935.224,945.639 916.137,967.629 942.64,931.603 950.989,932.494 917.352,966.341 925.796,952.595 1001.66,867.326 1067.33,823.801 1040.08,859.451 1098.02,803.008 1134.87,775.853 1145.5,788.472 1163.58,777.394 1149.33,771.372 1164.45,770.07 1139.43,789.009 1075.69,836.325 1070.73,843.062 1124.05,790.056 1113.47,812.181 1110.02,807.637 1152.32,783.087 1112.8,813.158 1127.99,796.673 1179.98,742.104 1250.39,707.681 1267.41,694.248 1255.45,701.969 1324.13,651.854 1382.83,594.918 1312.84,660.034 1339.43,647.225 1288.52,688.817 1262.24,706.596 1139.71,811.511 1191.55,735.914 1142.99,780.381 1122.56,803.95 1160.55,762.599 1171.34,748.363 1172.03,745.799 1177.46,739.964 1175.86,743.376 1295.52,647.72 1219.78,722.721 1201.13,739.783 1121.42,819.507 1102.2,815.705 1082.61,831.581 1091.68,823.912 1142.71,773.53 1269.35,669.473 1231.71,710.849 1296.76,659.169 1280.28,682.264 1280.67,685.308 1195.56,761.219 1167.25,766.721 1117.61,815.097 1237.59,694.752 1139.65,784.647 1146.24,780.109 1239.77,694.538 1199.45,728.072 1165.67,771.864 1221.58,739.16 1346.34,627.348 1239.59,713.223 1212.58,733.157 1108.31,812.964 1069.08,852.344 1087.99,842.043 1012.6,902.615 972.624,932.609 903.782,999.241 892.382,1000.71 852.935,1037.36 879.094,998.56 973.146,893.424 951.036,930.488 908.114,980.466 901.667,985.659 930.895,949.879 978.798,897.988 1006.54,877.004 996.211,890.637 984.364,906.563 989.523,900.658 1087.2,797.296 1015.1,880.935 1080.69,819.382 1116.85,790.418 1020.95,881.373 1059.31,847.523 1126.91,766.351 1173.37,748.04 1223.38,706.386 1190.4,751.918 1197.4,726.959 1165.83,757.636 1146.39,765.779 1166,765.197 1232.31,706.924 1258.41,694.721 1242.63,706.718 1282.96,688.991 1337.62,633.304 1455.12,553.772 1393.72,607.902 1511.36,524.103 1562.37,493.29 1561.97,493.904 1532.17,530.178 1420.5,619.634 1477.03,555.394 1426.16,600.05 1431.57,583.685 1407.17,609.865 1311.8,681.245 1236.88,743.788 1222.01,739.216 1195.59,753.158 1239.64,696.068 1225.46,714.633 1188.48,747.998 1226.95,713.834 1225.97,717.678 1191.09,760.598 1235.22,710.866 1286.45,655.577 1216.02,722.227 1134,796.705 1079.75,849.868 1032.22,879.547 1087.71,818.275 1124.65,785.407 1158.45,762.629 1175.7,757.865 1177.05,762.699 1145.53,793.257 1065.62,849.308 981.389,932.186 1028.72,867.882 1004.53,895.754 1005.98,889.057 989.953,910.792 1041.65,852.957 1015.65,870.879 982.995,899.062 946.702,929.821 992.341,887.298 959.716,928.986 1043.48,857.143 1008.36,891.452 964.048,933.253 974.154,908.141 930.931,948.952 943.151,930.588 977.349,891.561 917.273,969.526 914.699,971.935 936.977,944.296 955.234,917.05 946.1,928.452 991.182,908.377 965.88,927.63 994.38,894.82 1123.07,772.647 1094.25,817.488 1057.49,845.743 1020.75,882.37 997.151,889.599 1017.71,876.311 1005.54,890.302 942.721,956.893 827.066,1071.21 799.32,1094.09 782.619,1109.66 769.229,1116.35 735.814,1158.06 742.901,1142.41 721.222,1168.95 733.11,1147.6 710.45,1178.01 721.556,1161.34 731.599,1148.48 742.377,1133.24 753.695,1122.53 755.167,1124.48 779.075,1090.11 852.889,1004.8 867.322,995.704 909.976,955.877 926.708,944.058 906.099,976.902 947.701,932.598 1023.5,861.111 1094.82,796.667 1131.82,771.879 1143.68,775.544 1112.9,815.659 1045.93,870.654 1096.82,809.603 1102.17,812.725 1061.88,848.352 996.089,908.88 946.908,955.795 914.035,984.872 991.188,894.52 1005.95,880.046 977.349,915.415 960.951,928.244 1012.98,880.322 897.1,996.319 861.687,1029.83 875.041,1004.44 985.81,884.777 1015.2,874.738 1029.24,860.294 1027.81,876.043 1029.25,869.277 1089.73,809.274 1077.59,826.259 1163.62,744.975 1268.03,658.266 1223.05,705.975 1216.76,720.206 1269.28,687.114 1271.33,677.512 1391.76,601.373 1484.25,528.377 1404.16,607.508 1333.82,659.418 1329.43,659.367 1247.38,719.422 1252.76,701.222 1256.84,694.718 1279.29,671.39 1256.95,701.356 1316.4,642.244 1302.06,662.549 1344.01,623.344 1419.52,584.932 1344.26,655.989 1343.4,647.843 1248.64,727.464 1264.56,702.113 1252.37,708.577 1238.68,715.447 1260.17,691.878 1328.07,631.454 1236.41,718.608 1286.77,668.516 1189.68,748.373 1162.96,769.715 1186.23,733.937 1157.25,766.797 1098.82,813.662 1054.75,849.045 1059.39,846.524 982.441,913.158 1025.93,864.919 1008.22,889.267 1029.73,867.233 1018.38,880.811 1052.29,848.13 1068.82,838.575 993.534,908.478 1008.65,908.774 907.814,1001.52 917.241,974.869 927.572,958.909 916.032,969.228 854.128,1034.65 846.713,1036.26 819.291,1063.44 859.467,1013.28 845.375,1031.69 855.669,1021.54 909.197,962.824 851.327,1031.83 843.265,1037.98 880.264,997.058 829.122,1056.26 870.32,1001.72 842.583,1042.59 823.468,1064.34 829.825,1052.95 880.464,990.964 901.297,978.524 879.174,1006.4 955.749,935.07 1005.92,883.933 1095.1,802.471 1145.71,765.536 1204.17,715.883 1216.09,706.719 1194.79,739.244 1223.93,718.198 1202.44,732.318 1245.47,685.913 1239.23,699.235 1301.48,680.956 1124.38,837.818 1146.28,787.929 1137.54,791.578 1142.26,781.472 1124.8,796.775 1078.8,824.462 1066.32,845.359 1018.98,885.209 1027.69,870.482 1000.43,900.303 980.221,919.043 945.076,946.094 935.579,954.089 902.919,985.505 933.63,942.468 982.551,897.065 983.617,903.094 1017.46,872.705 1082.36,808.258 1055.06,849.334 1060.01,840.937 1070.07,839.55 1033.23,874.718 1062.15,843.122 1084.95,819.434 1115.99,794.663 1039.06,867.721 1052.07,848.943 1061.8,857.127 1035.86,863.054 1049.04,851.898 1088.53,804.133 1099.37,810.459 1138.36,775.198 1200.44,727.045 1158.12,767.878 1131.81,784.301 1140.3,778.672 1151.1,774.57 1146.06,774.256 1169.69,761.47 1153.13,775.859 1184.41,748.683 1193.21,771.454 1177.54,754.97 1246.28,703.412 1406.72,583.592 1520.17,497.954 1370.36,631.276 1367.18,632.832 1423.68,588.177 1421.41,592.167 1386.5,621.44 1344.92,648.367 1322.96,668.336 1307.59,675.65 1299.96,676.286 1288.03,684.464 1253.34,716.26 1271.51,678.922 1316.39,643.495 1278.84,683.694 1302.78,667.908 1195.68,759.323 1208.37,737.628 1262.85,681.008 1286.15,664.019 1392.4,585.614 1531.34,484.098 1711.53,378.399 1781.27,355.68 1727.46,415.618 1707.37,445.901 1644.62,483.534 1603.58,511.499 1643.52,467.496 1561.47,526.636 1601.96,484.065 1646,442.917 1608.26,475.892 1584.14,497.774 1564.11,513.648 1507.7,558.176 1508.04,544.106 1506.48,537.258 1495,546.862 1460.44,574.288 1422.74,600.287 1387.16,623.383 1321.49,680.655 1277.09,707.536 1247.6,723.925 1184.28,777.67 1129.74,822.838 1088.28,851.833 1124.54,801.561 1079.38,844.446 1058.44,854.813 1011.33,901.625 1000.26,905.385 1052.91,836.666 1078.32,813.349 1119.84,772.707 1088.63,818.727 1132.16,772.109 1132.87,780.678 1056.09,864.767 1055.46,856.991 1102.89,802.6 1052.95,854.752 1067.39,839.824 1042.36,856.7 1002.49,899.992 959.757,941.262 902.076,998.644 865.924,1024.25 851.639,1034.69 870.429,1008.84 874.106,1003.57 930.055,940.596 886.291,995.291 926.835,944.256 992.967,884.549 1030.58,859.878 1036.55,856.09 1066.99,834.032 1034.42,872.512 965.328,939.773 979.477,916.962 1046.53,848.668 1079.42,821.948 1032.57,879.941 1025.74,880.46 957.245,939.694 986.247,900.89 970.468,924.116 906.954,970.714 897.415,979.072 862.324,1015.94 894.397,976.149 935.172,944.714 967.489,920.255 904.825,988.39 921.952,961.206 867.307,1021.1 838.93,1045.75 902.355,969.161 850.544,1023.37 881.56,990.647 892.318,1000.13 928.598,956.266 939.877,939.037 915.695,973.285 911.421,966.317 838.898,1049.46 846.293,1030.81 896.973,982.687 892.387,991.015 876.311,1009.52 935.197,950.032 913.331,970.418 941.433,944.661 946.465,936.926 943.574,937.794 898.833,982.166 828.055,1052.47 839.302,1040.5 854.963,1018.99 888.255,992.327 934.058,948.978 950.383,925.078 991.401,883.711 989.938,899.297 1088.88,799.47 1107.78,812.675 1100.95,817.156 1077.87,840.109 1034.21,869.37 998.767,909.363 987.336,906.63 1051.32,837.722 976.715,924.844 995.127,900.087 1034.47,861.797 1097.11,806.471 1148.73,757.631 1099.05,817.067 1126.04,791.34 1208.9,720.708 1221.85,713.709 1203.69,734.912 1163.92,773.176 1263.24,677.64 1264.89,673.849 1363.25,606.97 1285.47,670.627 1198.42,748.876 1239.47,693.419 1203.68,746.785 1107.19,824.752 1113.86,810.634 1139.83,794.022 1175.9,760.121 1115.15,803.102 1145.21,770.87 1186.06,732.858 1216.45,717.94 1268.99,669.177 1291.29,679.679 1252.68,720.309 1190.15,763.765 1187.52,759.078 1164.76,766.648 1135.55,790.844 1109.26,813.386 1083.22,829.3 1101.92,804.964 1130.46,773.52 1108.16,816.812 1105.88,815.154 1011.28,915.808 969.842,942.995 929.527,979.289 916.736,978.616 888.928,1001.95 869.572,1018.24 880.354,1000.29 876.246,1003.33 870.968,1009.17 857.358,1023.44 858.324,1022.59 844.563,1043.32 819.283,1062.33 855.757,1021.16 883.044,985.884 836.492,1041.18 860.942,1019.34 889.547,989.833 843.958,1039.42 840.355,1041.27 855.266,1022.97 894.297,981.15 862.113,1010.77 883.07,980.251 881.179,996.413 935.477,937.737 993.933,881.445 978.753,914.97 941.634,949.597 930.91,955.248 972.071,919.349 934.642,957.267 935.832,946.094 917.528,957.316 937.723,933.276 905.747,976.248 928.504,964.348 949.353,945.441 1031.58,863.529 1065.78,832.375 981.149,913.549 949.566,938.912 974.563,908.958 1145.63,737.644 1163.32,748.24 1166.23,748.428 1170.15,753.155 1153.78,775.697 1130.09,795.005 1184.4,737.629 1116.65,804.179 1071.29,841.055 1087.95,813.307 1022.32,871.335 976.11,918.543 926.93,959.686 890.408,999.976 907.303,980.252 853.617,1031.71 835.085,1046.21 881.703,987.592 925.228,951.89 955.153,922.762 948.987,931.736 991.409,891.356 971.958,918.947 993.446,899.86 1081.03,809.629 1048.65,838.112 1145.28,769.027 1162.88,764.955 1151.33,779.769 1083.57,852.695 1176.03,744.929 1186.74,746.852 1266.46,668.171 1332.46,625.231 1358.43,629.81 1321.19,661.188 1213.05,754.409 1171.36,777.641 1143.76,794.918 1119.27,805.58 1074.83,833.608 1158.84,754.972 1122.49,804.276 1120.89,809.465 1107.41,812.69 1130.33,781.245 1090.25,824.093 1002.15,902.317 999.058,898.883 1000.28,891.655 1017.85,874.148 995.038,901.086 967.612,920.436 960.85,926.907 912.979,978.972 934.322,954.003 995.761,887.662 1006.77,878.206 1004.68,876.693 1008.26,886.926 1080.01,821.875 1046.4,860.688 1092.15,813.37 1108.07,803.491 1216.42,698.502 1263.23,680.303 1292.36,669.769 1201.21,746.173 1097.04,834.179 1143.39,766.995 1166.43,754.494 1088.3,843.233 1116.77,800.675 1081.8,843.236 975.993,932.767 982.472,916.94 964.367,933.73 956.223,939.645 969.804,918.369 931.989,959.973 926.798,960.867 964.053,912.414 969.108,916.113 960.159,928.774 979.244,910.327 977.783,915.054 979.811,912.861 1001.8,890.385 1020.51,879.222 1012.39,892.623 974.713,934.388 1024.55,872.603 1018.4,879.315 1033.37,873.287 1074.49,834.954 1011.78,869.936 951.092,929.272 890.332,988.42 896.892,978.15 936.531,940.423 934.641,935.434 1031.86,843.874 1050.74,838.312 1111.14,788.123 1028.17,878.12 987.303,910.687 972.443,920.91 980.685,914.537 1041.13,856.383 1012.22,895.996 1103.46,801.237 1188.68,737.064 1048.56,871.394 1026.03,900.804 1007.59,906.296 956.67,947.851 975.607,926.255 939.277,956.809 890.93,1002.24 891.923,1000.31 952.448,924.505 902.874,969.959 944.538,939.338 934.203,956.126 942.251,949.354 924.689,971.591 930.159,954.239 937.035,950.56 989.911,903.059 976.138,921.561 1012.47,876.408 1027.27,886.028 1046.74,869.911 974.341,928.777 928.841,969.786 977.657,910.404 1017.3,882.918 961.185,942.378 965.886,923.241 980.806,908.944 968.98,918.299 962.22,922.855 1035.34,859.864 1029.74,864.757 1070.08,826.377 1033.18,865.559 947.221,947.95 956.653,929.853 892.001,996.167 889.238,995.028 921.345,963.195 913.081,979.576 828.142,1063.08 865.802,1008.81 866.211,1011.88 906.119,968.684 914.23,963.995 882.532,1008.03 890.785,991.987 1010.01,864.602 991.338,898.397 966.779,929.472 987.812,907.141 970.439,933.22 933.944,961.401 990.602,902.886 1095.78,807.477 1188.77,732.035 1202.27,740.094 1329.68,644.77 1193.2,759.464 1222.06,729.439 1242.39,709.765 1165.25,774.138 1180.01,761.033 1136.5,788.274 1188.44,740.967 1230.07,711.797 1180.8,759.335 1132.96,793.945 1156.39,778.957 1111,813.821 1142.08,783.056 1070.62,849.482 1055.81,856.486 1045.11,867.835 1036.98,869.413 1022.16,877.792 1032.83,865.152 1038.51,860.151 1171.23,734.914 1157.01,766.319 1135.42,786.389 1127.15,793.106 1149.06,769.804 1041.5,871.309 1057.19,848.956 1029.29,875.551 1085.77,812.387 1087.95,812.579 1098.77,806.398 1061,836.822 1114.85,794.11 1161.62,744.808 1168.13,755.416 1126.97,798.151 1138.86,782.14 1188.13,752.924 1220.09,717.323 1181.05,757.579 1142.93,790.074 1058.46,860.534 1041.47,863.057 1043.76,852.696 1038.05,864.868 1032.42,868.397 1047.66,856.728 967.292,925.427 1014.21,873.007 1028.81,861.989 1011.81,894.975 1031.92,874.429 1076.35,830.168 1091.53,815.213 1041.71,852.578 1108.45,806.536 1082.35,816.909 1109.43,800.253 1038.88,851.117 991.194,887.645 922.518,950.209 921.629,948.436 920.513,958.803 839.178,1045.73 875.597,1010.78 873.494,1009.29 963.421,910.059 1007.18,877.356 1038.51,862.67 1003.87,888.244 936.963,956.825 1000.17,905.318 988.508,904.111 1107.2,797.302 1109.54,796.271 1040.38,861.908 998.6,900.54 980.811,910.227 992.541,899.634 1005.89,885.714 1107.19,783.501 1179.06,736.426 1220.36,707.336 1305.67,665.399 1300.94,669.525 1309.63,664.908 1306.11,664.988 1351.4,617.846 1362.07,628.669 1249.53,725.16 1162.08,794.057 1162.57,773.635 1234.37,706.12 1285.32,666.789 1288.33,678.505 1214.13,740.315 1159.97,782.547 1120.17,811.045 1091.42,822.251 1069.25,841.578 1046.79,862.321 1064.91,838.017 1135.4,788.447 1075.5,847.001 1050.59,863.774 1116.47,791.356 1100.97,806.487 1087.1,822.196 1098.09,809.65 1126.34,796.584 1039.04,882.629 1039.19,867.682 1034.79,872.244 1032.43,872.855 1009.2,889.397 977.824,913.617 995.591,895.912 957.039,926.049 928.157,957.274 966.22,911.174 989.04,890.839 1062.86,840.02 1077.23,827.003 1128.13,784.759 1101.88,817.191 1212.44,716.67 1186.9,747.891 1194.75,736.776 1119.67,799.447 1110.12,813.713 1072.53,845.842 1010.04,899.341 987.406,917.417 909.768,994.592 887.618,1009.71 899.283,986.086 980.226,890.32 991.672,882.162 1062.75,815.205 1041.9,856.94 1052.88,844.311 1097.62,809 1043.18,869.789 1024.48,882.555 1053.76,847.767 1030.65,874.033 1030.3,870.342 1040.8,863.485 1061.82,840.902 1099.94,806.734 1162.04,744.083 1100.38,804.297 1018.39,879.802 1135.32,787.885 1194.66,722.335 1276.79,654.291 1299.34,656.194 1361.76,606.623 1296.93,676.968 1247,716.274 1309.84,659.824 1270.71,690.746 1305.91,648.615 1281.89,688.557 1216.15,739.36 1188.67,754.351 1200.05,749.006 1178.86,757.079 1142.91,793.608 1056.71,866.326 1022.04,889.126 1053.1,850.349 1039.67,860.572 1026.65,869.951 1033.21,876.644 1010.65,884.442 979.292,915.252 990.314,903.752 1025.44,881.039 1052.08,844.193 1088.1,819.208 1040.37,866.959 1000.34,909.309 1010.95,887.245 960.276,941.617 989.377,904.524 1018.36,871.319 1018.14,880.815 1009.29,889.715 965.878,917.863 953.174,933.679 939.03,944.629 996.954,871.744 1028.9,846.006 1029.95,859.861 1066.36,843.489 1149.32,773.676 1114.11,812.824 1050.86,859.121 1041.71,866.135 994.623,912.303 1003.47,901.143 981.809,914.768 1021.18,866.863 1090.63,798.173 1103.07,796.903 1100.77,804.999 1156.49,758.752 1120.87,798.381 1168.25,760.81 1158.58,768.487 1149.74,775.778 1207.22,726.495 1214.19,719.6 1197.03,739.289 1143.65,781.936 1122.71,802.796 1073.5,844.691 1063.37,849.63 1024.63,889.438 984.599,920.866 994.163,904.671 959.66,941.451 977.738,913.512 972.27,922.121 970.997,923.435 899.577,1001.7 930.884,959.376 940.503,958.24 930.726,972.214 868.537,1024.37 852.99,1029.38 913.434,961.663 863.409,1017.45 797.456,1084.02 801.975,1075.59 853.022,1018.15 823.762,1051.73 873.973,988.83 895.992,983.479 882.077,1002.55 894.576,988.414 923.838,951.896 918.938,959.989 954.791,926.491 967.792,923.863 961.646,928.244 971.537,922.373 1009.75,889.399 989.636,918.477 974.628,932.374 974.73,917.09 987.808,897.124 976.532,901.876 954.741,927.313 976.387,905.298 871.05,1000.75 897.677,979.236 898.243,980.956 902.996,974.621 855.114,1021.54 819.778,1058.65 827.06,1061.03 886.564,983.38 865.136,1008.96 947.01,917.104 980.121,896.714 997.007,893.758 1033.61,857.626 1084.3,810.132 1110.8,804.365 1097.4,813.329 1068.64,844.68 1084.1,822.074 1170.82,745.221 1134.48,779.661 1146.5,777.247 1173.16,754.405 1212.78,737.605 1394.71,571.781 1357.63,625.329 1362.46,617.695 1239.29,721.187 1190,760.589 1235.99,710.036 1212.36,725.923 1228.74,721.388 1077.39,850.403 984.571,935 971.237,934.975 975.229,918.533 1008.94,877.243 1012.26,886.766 1071.64,824.021 1036.43,864.335 970.734,926.801 1029.82,857.687 1026.58,877.842 1051.72,847.781 1088.86,809.426 1082.17,824.833 1008.54,896.876 990.555,906.673 963.856,934.312 1005.61,890.893 953.807,940.264 926.254,969.527 889.24,1009.73 858.487,1034.52 911.511,970.387 982.484,912.035 934.447,964 916.743,976.907 949.587,938.076 941.037,944.815 1002.82,885.125 1003.33,890.593 977.698,908.798 1020.24,860.848 1087.84,810.95 1127.93,790.068 1080.84,827.948 1052.82,849.93 1071.61,841.44 1071.24,846.822 1086.7,820.812 1180.07,726.693 1310.16,626.937 1361.27,610.622 1427.04,561.851 1498.07,526.902 1400.01,619.655 1473.29,555.615 1554.79,479.386 1540.77,512.497 1544.66,515.471 1442.41,598.428 1428.15,588.834 1432.38,578.846 1456.99,565.461 1538.8,494.852 1570.09,480.743 1473.02,567.926 1433.11,593.899 1404.13,611.333 1411.1,591.772 1430.29,578.163 1372.12,626.662 1341.29,646.393 1304.62,676.324 1244.57,727.086 1201.67,754.168 1189.38,757.103 1182.23,756.883 1145.03,785.716 1168.06,751.81 1183.66,736.598 1152.84,771.533 1093.25,828.031 1091.04,823.518 1176.42,741.977 1161.48,756.187 1174.48,749.548 1134.35,784.794 1135.27,783.768 1223.63,708.662 1184.44,756.355 1189.65,755.127 1173.83,762.682 1183.2,752.678 1260.94,681.898 1321.21,647.781 1305.83,667.269 1229.73,729.447 1200.83,742.022 1294.53,658.242 1280.65,684.267 1278.45,668.138 1300.54,658.777 1278,678.326 1175.56,777.048 1136.5,799.509 1204.04,725.299 1201.6,735.171 1281.92,680.789 1270.33,694.401 1245.88,713.427 1198.92,750.863 1100.98,824.206 1103.12,810.983 1164.98,753.717 1163.92,758.437 1213.19,722.459 1202.89,737.005 1132.62,804.685 1061.65,853.262 1060.13,847.538 1049.7,859.354 985.998,917.641 960.81,936.599 976.018,911.753 991.454,897.053 1027.98,858.598 1092.36,802.144 1107.79,794.415 1107.88,806.956 1106.31,811.229 1120.82,794.329 1148.95,768.711 1197.07,728.787 1167.61,762.748 1235.97,705.235 1114.54,812.613 1256.65,667.977 1114.69,807.52 1172.6,764.135 1205.87,722.809 1094.94,813.364 1035.55,871.261 1029.39,873.953 1110.71,818.558 1097.09,817.419 1095.05,824.693 1021.02,882.734 1114.97,785.004 1046.2,860.325 1082.07,821.448 997.048,901.169 965.079,929.656 1007.36,873.606 1086.48,814.572 1134.68,776.416 1139.87,775.306 1138.99,788.053 1177.44,762.021 1126.58,800.586 1171.19,743.47 1055.1,858.858 1034.04,867.444 1044.76,857.738 1019.01,880.218 966.937,928.388 983,913.62 977.755,909.103 1028.34,863.702 1100.91,805.246 1060.54,850.357 1053.55,849.716 990.773,913.013 975.389,926.562 969.822,928.227 1030.37,873.683 1005.77,884.478 1039.72,870.421 1002.42,901.37 1041.54,856.079 1124.7,791.615 1066.13,843.601 1084.2,824.894 1038.66,855.025 1072.01,826.392 1049.68,849.086 1059.36,844.027 988.48,905.623 1038.36,867.932 979.176,915.89 1085.83,811.543 1149.66,760.768 1193.79,736.17 1239,708.557 1247.42,701.443 1238.94,700.062 1161.73,762.209 1210.23,730.414 1173.71,776.27 1186.12,769.995 1083.7,857.598 1066.72,849.647 1049.08,859.134 1001.96,904.668 967.048,934.616 962.777,929.007 971.546,915.999 969.973,909.811 1059.86,836.088 1083.19,819.891 1035.5,866.082 1014.34,884.371 960.933,936.01 929.724,962.782 918.771,967.464 915.76,971.412 944.622,947.242 951.437,952.678 1057.29,832.949 1119.5,792.834 1146.15,782.392 1141.28,787.903 1234.44,720.622 1229.14,721.766 1172.9,770.609 1171.89,767.95 1112.04,812.118 1118.97,799.03 1116.75,805.463 1140.9,780.011 1097.97,817.632 1100.01,813.327 1057.37,858.352 1147.92,759.046 1148.08,773.086 1159.07,760.994 1123.73,789.948 1075.67,837.91 1054.71,848.706 1093.86,805.427 997.745,895.381 955.305,939.47 978.39,902.241 986.116,894.364 1058.65,840.047 1053.2,857.063 970.074,931.419 889.559,1006.58 897.033,988.155 968.467,914.165 1027.35,855.134 1030.93,863.828 999.749,896.269 1015.08,884.499 1085.62,821.614 1206.43,707.711 1150.86,775.71 1140.98,789.528 1171.08,761.362 1217.67,712.682 1177.01,767.091 1030.9,897.785 988.926,927.365 1001.97,896.422 935.091,964.564 985.59,912.804 995.633,910.802 947.056,945.733 921.093,965.667 888.693,984.466 899.437,977.49 918.198,972.289 886.981,1001.54 912.509,967.719 904.809,973.274 876.692,999.805 911.486,959.463 975.172,900.292 922.759,963.352 929.935,951.348 868.561,1009.21 878.264,1004 905.15,976.235 912.009,974.642 971.415,914.375 996.189,893.459 1006.76,869.257 1078.69,812.539 1132.05,777.502 1169.37,745.954 1188.37,726.114 1162.2,748.918 1151.9,781.882 1174.33,756.46 1170.59,750.618 1254.06,699.603 1265.71,699.305 1183.89,766.059 1173.04,768.562 1163.84,764.729 1059.77,867.657 1053.12,857.268 1092.08,809.896 1101.89,801.595 1082.62,827.863 1096.86,810.409 1092.79,811.972 1119.94,793.263 1137.6,774.487 1115.34,805.539 1157.75,757.687 1171.42,760.613 1175.05,757.913 1151.53,783.327 1104.76,820.303 1101.22,820.74 1061.23,856.215 1144.76,758.37 1196.51,716.471 1136.58,787.26 1185.8,735.799 1148.11,779.994 1134.81,790.936 1143.7,780.689 1175.32,751.139 1219.13,712.757 1262.41,679.617 1304.61,649.576 1220.1,731.909 1225.39,729.996 1260.59,690.954 1377.4,604.881 1340.55,643.74 1398.81,595.887 1360.2,626.44 1356.54,617.875 1366.56,605.77 1364.06,615.143 1291.79,668.755 1240.69,708.336 1251.4,694.709 1218.31,728.292 1195.13,752.52 1270.13,686.571 1160.7,784.059 1183.75,757.788 1131.23,790.174 1127.2,795.866 1120.01,805.136 1085.39,840.611 1064.14,851.973 1054.91,850.718 1001.28,906.321 1006.2,892.172 1026.22,874.302 999.747,890.384 1127.25,771.733 1152.68,762.673 1151.4,774.928 1028.94,878.858 1090.58,809.193 1036.09,860.281 1048.58,851.732 1064.32,824.6 1088.77,807.088 1047.67,856.19 1047.99,870.234 1077.55,828.638 1112.83,795.918 1243.37,689.22 1233.89,705.521 1249.72,709.716 1389.78,607.423 1405.88,602.728 1519.07,524.515 1566.47,475.684 1572.47,501.306 1515.91,557.029 1453.39,592.738 1466.75,563.149 1378.57,640.892 1389.48,620.877 1367.93,632.642 1364.61,628.159 1382.17,611.113 1340.9,643.594 1331.27,653.651 1349.47,631.54 1277.08,699.468 1311.73,659.571 1278.93,688.068 1278.32,688.181 1231.24,724.48 1254.89,689.887 1301.44,650.321 1241.46,707.481 1216.54,733.859 1152.95,783.374 1135.8,794.912 1157.33,766.718 1142.43,786.467 1228.07,703.231 1223,711.93 1361.65,596.194 1379.65,604.261 1307.96,666.053 1326.02,649.13 1461.74,531.894 1426.13,592.034 1315.45,682.129 1273.8,700.989 1294.31,667.331 1262.02,698.33 1200.81,751.295 1201.22,740.426 1168.52,770.797 1116.1,809.493 1120.38,801.108 1126.95,793.727 1032.61,873.874 1007.05,895.747 1009.01,887.266 1002.63,890.127 1070.56,813.549 1142.37,773.224 1134.63,785.585 1085.67,831.193 1086.78,833.521 1122.02,787.819 1124.37,793.704 1218.03,720 1265.55,681.841 1359.63,616.063 1350.84,628.717 1285.94,693.813 1195.82,769.581 1204.27,740.121 1136.2,803.326 1152.63,772.795 1139.66,794.131 1251.48,687.329 1234.6,699.872 1211.28,730.336 1135.02,800.327 1146.03,772.662 1064.08,847.789 1043.41,863.454 1080.36,819.416 1002.17,887.948 981.381,911.501 969.221,928.161 1017.77,878.169 1052.52,840.52 1033.57,864.166 1049.44,853.718 1085.29,841.329 1059.64,866.608 1073.85,856.177 1130.93,811.452 1143.95,790.742 1022.78,895.853 1017.87,887.234 1032.86,867.425 1121.89,807.493 1100.2,819.383 1096.37,812.618 1240.38,684.478 1183.37,753.506 1151,782.657 1263.8,674.631 1198.35,738.28 1204.81,729.6 1149.38,785.501 1066.65,847.742 1120.4,794.728 1104.61,809.068 1100.71,810.956 1189.36,742.734 1160.74,773.438 1119.94,803.566 1114.75,799.207 1158.17,759.036 1107.65,808.54 1138.74,782.5 1095.48,818.476 1142.09,779.839 1113.42,798.684 1050.72,846.853 1062.89,841.307 1001.6,893.84 997.666,911.291 1049.64,858.158 1172.49,755.119 1209.96,724.523 1259.7,680.73 1188.65,746.714 1206.17,737.325 1220.33,722.899 1205.49,727.501 1378.85,589.225 1352.01,633.648 1288.18,672.969 1376.83,591.883 1309.53,660.021 1296.94,671.279 1191.3,755.276 1132.23,802.308 1145.69,775.763 1116.23,802.007 1067.66,844.32 1119.06,787.485 1159.38,757.674 1136.63,779.767 1074.55,845.635 1050.43,855.196 1024.21,883.641 1002.11,903.319 1007.51,887.775 955.047,946.405 920.307,967.686 889.995,998.29 936.18,942.015 935.62,945.719 940.213,942.773 944.029,942.587 947.585,938.102 971.612,908.927 996.483,890.824 940.226,947.084 989.979,896.165 1069.22,825.046 1022.8,878.481 1035.89,863.679 1012.36,887.114 922.636,973.262 926.601,964.081 917.688,970.683 964.877,911.765 972.816,893.228 1014.21,869.561 1050.82,848.443 941.048,954.195 887.944,994.663 922.318,954.444 875.011,1012.43 867.951,1021.76 901.132,983.859 932.727,960.552 973.358,909.58 1037.61,856.094 1119.69,775.009 1089.46,821.757 1055.7,848.479 1041.51,857.613 1021.16,877.299 1091.11,815.063 1129.7,789.676 1123.19,806.601 1146.63,784.467 1217.88,727.889 1161.02,771.074 1140.58,782.976 1094.26,826.631 1064.66,845.698 1158.91,753.911 1156.94,777.166 1097.27,835.14 1115.75,804.421 1017.77,888.771 1010.2,889.97 999.129,897.216 927.755,968.571 996.217,899.756 1023.78,878.337 1049.87,857.276 993.492,896.146 1015.03,870.78 1036.97,868.75 993.264,901.269 1070.45,836.193 1074.08,829.218 1121.66,795.944 1157.78,763.168 1125.8,798.407 1101.04,822.218 1204.35,739.563 1232.04,718.085 1146.61,788.575 1119.47,803.063 1149.26,773.353 1197.13,726.781 1198.02,733.435 1136.4,789.455 1137.95,779.418 1171.11,748.347 1046.04,852.8 1021.91,875.571 1010.31,885.827 953.004,932.991 921.946,965.354 883.684,1001.09 934.695,941.171 960.974,922.211 978.368,900.017 1033.7,852.33 1094.85,798.462 1064.11,840.254 1062.53,836.182 1093.51,818.648 1048.46,861.272 985.96,918.835 1013.51,881.772 951.422,947.624 957.661,934.616 942.959,934.547 944.087,938.437 993.44,888.561 1015.5,873.745 1068.61,834.459 1110.03,798.09 1179.43,733.074 1292.55,653.449 1366.45,608.972 1283.56,686.867 1236.96,723.77 1245.27,705.248 1226.42,731.691 1283.95,688.813 1198.58,751.327 1204.51,739.116 1185.89,748.078 1230.74,701.472 1099.37,810.07 1050.79,867.531 1058.9,849.307 1032.48,872.275 1040.18,853.618 1032.19,863.353 1047.42,847.812 1049.52,854.673 936.876,953.639 965.247,919.38 977.08,911.013 950.506,938.671 1011.8,871.134 1045.24,846.023 1062.63,837.804 1084.88,818.561 1083.63,823.376 1002.63,907.198 964.904,922.073 931.358,959.877 913.147,977.139 896.7,986.23 931.647,945.201 968.023,908.777 969.699,911.45 996.449,895.202 1005.1,887.243 1018.66,874.706 993.906,893.438 963.483,915.935 943.21,937.076 864.298,1017.27 895.833,985.524 949.423,932.602 931.612,954.757 968.939,920.947 974.695,913.585 992.637,895.192 982.611,910.754 983.081,904.391 951.78,944.16 948.284,948.177 1053.72,847.373 1088.45,802.206 1149.84,769.164 1168.55,757.004 1114.3,800.242 1032.9,881.097 1054.04,858.946 1036.63,872.03 1050.62,854.366 1055.83,842.542 1000.92,893.768 1028.09,859.725 1012.62,862.434 975.468,887.722 978.289,880.603 981.336,869.456 1010.91,861.289 1049.78,828.168 1058.11,834.318 1111.46,788.646 1105.03,803.243 1166.13,746.729 1117.14,795.867 1138.28,786.483 1091.09,830.936 1044.22,859.779 1103.39,816.664 1087.08,825.492 1062.05,848.443 1093.39,800.235 1133.48,777.876 1092.65,826.787 1044.38,870.966 1012.67,889.848 1014.37,886.491 1029.64,871.092 985.863,917.367 954.648,944.873 1026.77,870.041 1076.3,821.172 1039.65,858.463 1144.29,760.995 1102.61,798.345 1095.62,808.032 1113.17,810.758 1061.76,854.159 1132.96,781.043 1050.66,844.25 1142.28,769.927 1140.62,778.338 1143.18,779.681 1185.65,740.715 1258.08,709.943 1193.92,769.806 1194.34,741.307 1152.46,776.135 1197.06,735.477 1189.05,743.263 1274.61,683.21 1229.47,719.422 1171.94,767.867 1085.42,834.067 1127.77,792.924 1108.57,804.134 1149.5,757.67 1071.04,840.288 1091.69,818.905 1082.94,812.996 1068.32,835.739 1047.49,856.918 1084.17,835.952 1027.98,885.835 1005.99,894.088 975.879,921.197 1026.84,868.948 1028.02,867.475 1048.88,850.509 1052.11,842.714 973.322,920.186 1052.15,839.691 1092.63,796.159 1116.61,784.564 1128.7,788.775 1169.32,756.556 1167.3,756.112 1221.08,721.114 1278.74,671.904 1313.7,636.382 1231.98,708.958 1215.9,722.358 1100.65,813.916 1128.59,785.355 1157.25,771.525 1176.55,754.366 1070.93,839.282 998.828,917.367 984.704,917.955 957.993,946.982 952.173,941.378 974.686,908.228 1001.23,880.594 1012.69,872.431 1038.48,855.098 1077.39,822.625 1084.51,824.592 984.604,920.932 931.139,966.652 895.471,994.083 880.809,1000.97 908.218,974.208 860.653,1019.1 882.111,992.801 909.865,967.483 942.827,938.801 967.966,912.641 990.533,892.415 1011.51,882.107 1039.17,849.692 1004.35,883.246 1051.04,849.753 1086.14,815.544 1073.5,840.492 1137.64,784.518 1063.93,844.74 1089.93,822.706 1205.05,739.965 1211.13,730.922 1134.46,799.96 1127.54,807.728 1060.93,858.927 1157.17,753.833 1022.55,888.911 1067.8,834.049 1164.1,750.416 1184.74,733.245 1217.14,713.782 1247.43,694.272 1235.15,712.512 1314.49,649.38 1295.59,678.753 1166.64,783.554 1157,778.152 1167.6,763.586 1192.49,736.926 1195.96,738.633 1210.59,722.357 1170.17,750.724 1043.06,877.479 1045.23,867.157 1056.32,856.391 973.508,929.184 974.151,919.33 987.578,898.701 1052.57,828.153 1070.79,813.995 1172.34,730.381 1240.81,680.157 1278.29,663.379 1254.73,688.108 1272.97,683.017 1241.9,722.831 1194.49,750.134 1213.65,738.494 1236.25,716.168 1270.05,684.223 1155.86,780.016 1171.65,764.593 1128.51,806.504 1113.84,814.606 1092.61,831.706 1013.48,894.387 1011.69,894.963 970.701,935.146 975.834,919.651 960.084,925.878 969.89,918.323 965.497,918.886 960.685,916.194 983.743,901.572 994.968,897.105 953.381,936.839 930.719,964.052 869.428,1019.29 916.655,961.493 938.994,947.743 971.497,915.781 936.673,957.375 909.99,984.312 896.753,994.448 920.804,962.893 911.595,977.446 929.237,963.266 893.499,997.073 949.559,935.146 924.458,952.129 946.845,933.835 997.984,881.856 981.532,898.561 929.35,951.203 1015.27,879.281 996.797,891.396 1100.15,799.649 1129.34,794.769 1120.62,809.191 1151.79,782.105 1122.01,804.61 1126.53,788.105 1146.96,789.527 1118.15,805.389 1038.41,869.915 1059.4,856.936 1009.91,891.135 1011.88,876.876 908.626,982.772 933.446,940.173 891.561,992.039 909.332,967.194 923.997,960.679 960.398,912.351 979.778,901.9 954.728,932.501 931.144,969.935 893.969,997.592 861.427,1027.98 853.811,1029.64 917.529,950.172 903.364,971.846 911.445,967.838 967.262,919.332 1000.98,887.432 976.349,917.169 969.991,923.506 1089.75,810.633 1095.29,811.864 1093.4,822.402 1113.56,800.519 1120.31,809.357 1058.51,856.302 1060.26,853.214 1065.41,842.576 1109.92,798.704 1135.11,782.544 1209.35,714.358 1247.7,721.335 1118.65,822.775 1143.07,795.22 1176.9,753.279 1184.01,747.597 1231.46,699.399 1342.66,635.15 1410.03,583.706 1327.61,653.199 1263.19,700.818 1290.43,671.411 1188.17,755.634 1220.45,717.113 1172.05,760.883 1164.12,764.595 1183.16,747.718 1259.69,681.295 1375.37,598.546 1354.82,620.889 1251.66,708.546 1161.17,792.561 1100.18,832.756 1106.24,809.021 1073.52,839.956 1024.03,889.582 1013.38,893.016 973.359,927.444 920.901,971.49 912.853,975.07 919.846,969.396 882.918,1006.9 878.388,1003.07 874.936,1004.86 849.065,1038.46 892.527,993.548 977.483,908.029 955.108,931.296 962.374,925.427 1028.14,865.379 976.087,921.502 944.505,947.229 947.705,946.031 900.962,988.676 888.737,1001.54 871.288,1013.91 875.502,1004.19 869.168,1008.17 902.43,976.304 922.782,966.601 904.742,978.399 915.787,963.716 976.791,903.374 1028.59,857.319 1042.94,836.914 1051.79,834.656 1032.7,861.785 1029.56,858.505 1014.22,872.82 1047.65,843.068 1152.88,750.97 1261.58,675.258 1305.56,651.233 1304.64,656.084 1188.49,757.793 1174.62,754.986 1235.19,701.329 1133.98,798.291 1084.03,827.145 1165.82,746.503 1233.98,693.695 1196.25,749.034 1196.01,740.387 1171.91,758.569 1097.52,820.501 1064.7,850.289 980.951,916.095 955.58,937.553 984.817,903.518 941.948,948.067 962.449,929.001 960.5,936.371 924.938,970.859 935.293,951.093 999.302,901.503 1017.71,868.883 1028.03,877.267 1013.04,886.993 991.602,904.883 974.674,920.648 988.035,898.98 923.234,949.685 890.892,980.329 937.269,945.811 975.431,910.067 966.007,910.356 906.834,967.82 947.666,930.117 912.568,969.434 905.62,976.794 883.026,1006.79 837.301,1053.36 809.098,1076.59 845.21,1031.51 882.149,990.332 920.693,960.294 930.546,954.24 893.965,986.452 967.931,909.609 965.463,924.775 983.13,908.135 993.967,902.195 991.282,902.168 891.035,998.908 894.229,995.517 814.137,1069.5 861.701,1011.24 887.754,986.475 936.167,940.247 961.311,917.686 963.285,929.77 918.871,971.873 968.6,922.284 913.217,972.757 961.154,923.318 1006.53,884.687 1061.51,832.061 1068.33,823.176 1041.02,857.473 962.79,925.763 976.735,912.853 975.051,907.831 908.813,963.879 831.263,1030.38 829.381,1039.67 889.913,978.847 956.874,916.146 1043.82,840.131 1113.28,793.082 1102.46,810.373 1085.79,828.559 1055.38,857.354 1099.42,814.244 1106.68,793.08 1060.01,830.918 995.077,879.53 1008.16,882.418 1000.92,894.948 999.029,909.237 977.465,913.219 964.796,936.728 947.097,946.257 965.643,925.92 929.862,952.855 882.619,997.616 922.81,954.31 885.587,984.898 869.105,1000.12 862.405,1011.89 817.866,1061.34 879.515,995.618 818.829,1061.66 833.808,1040.6 867.504,1006.01 941.876,921.607 958.111,923.195 975.441,916.247 974.889,914.392 956.315,932.763 887.465,1000.96 920.049,957.592 905.408,972.101 897.111,985.248 908.584,977.706 876.672,1001.43 890.762,983.72 972.63,895.87 979.181,901.284 968.794,911.016 1001.99,885.032 1012.49,887.537 1147.73,758.44 1115.25,798.548 1043.51,867.159 970.19,940.556 1011.07,893.429 1003.5,891.907 1026.52,867.012 1036.15,859.494 1055.05,846.816 1025.14,884.481 968.661,924.809 943.182,945.93 1004.66,889.536 1060.6,840.124 1097.97,808.957 1106.88,799.282 1001.14,889.506 1014.11,877.669 1098.52,802.387 1109.3,804.915 1222.34,706.005 1186.62,748.347 1120.03,804.499 1254.47,704.005 1191.65,753.961 1142.34,798.143 1056.7,864.962 1006.98,906.153 1040.65,857.111 1064.22,835.541 1098,808.406 1099.18,810.125 1081.83,826.207 1025.8,882.992 1082.72,822.211 1119,786.795 1057.43,847.183 1039.15,869.019 1054.25,855.765 1087.96,804.041 1126.8,785.925 1091.89,807.985 1206.75,730.077 1244.97,696.362 1253.32,693.408 1289.49,660.098 1239.41,732.636 1188.83,769.269 1178.58,765.269 1181.62,759.91 1155.66,779.339 1165.01,760.308 1207.71,727.454 1144,784.515 1163.34,768.193 1095.29,827.273 1047.19,870.902 1021.19,884.785 1064.78,834.444 979.375,921.855 952.152,943.953 975.887,914.659 974.448,916.183 986.212,910.57 994.34,904.541 993.768,904.527 1015.16,880.369 1046.29,853.213 1072.44,831.452 1047.4,867.217 1071.03,841.55 1083.07,819.543 1162.98,772.196 1216.8,731.649 1082.94,837.923 1063.66,847.982 1051.76,849.862 1064.63,844.01 1060.12,852.91 976.448,923.317 918.07,977.457 931.229,952.94 893.271,992.776 884.703,1003.14 867.659,1014.57 854.086,1032.69 850.269,1038.7 930.415,940.843 975.014,905.601 1003.44,884.756 1045.25,849.022 1062.33,832.211 1047.09,846.277 1003.42,886.824 1034.66,856.138 1029.32,869.177 1087.83,813.798 968.761,925.557 1081.32,833.703 1029.08,884.823 1073.52,850.865 1120.47,793.778 1083.89,829.507 1039.35,853.113 1065.79,838.913 1022.39,876.89 1056.58,841.537 1050.42,869.246 1014.69,890.262 931.591,970.205 969.096,920.555 959.144,925.494 989.444,900.751 1064.94,822.553 1179.57,726.231 1244.34,684.286 1171.89,767.338 1235.27,698.797 1186.33,757.906 1159.9,775.267 1188.88,746.598 1338.46,607.931 1281.79,682.785 1351.19,633.963 1317.06,670.778 1326.41,653.235 1276.69,687.413 1299.47,664.816 1285.67,691.532 1297.94,666.174 1281.02,684.373 1305.85,666.074 1337.22,639.376 1312.92,680.694 1218.71,752.165 1176.37,771.156 1215.35,722.688 1196.07,748.198 1131.38,795.8 1126.74,794.258 1203.09,719.247 1211.26,722.736 1224.65,715.538 1179.48,751.913 1149.8,775.755 1271.94,669.81 1379.69,583.619 1479.02,535.36 1539.84,489.276 1502.99,533.768 1441.63,583.956 1331.09,676.623 1292.06,696.991 1282.65,695.633 1283.07,683.556 1258.89,706.445 1234.65,721.116 1224.95,727.824 1153.87,792.069 1171.12,759.314 1148.06,786.883 1158.42,774.983 1173.43,758.952 1148.68,773.248 1097.69,828.328 1032.99,871.394 1009.48,893.727 1000.81,898.407 1011.88,881.66 990.081,904.568 977.912,919.611 979.136,914.465 1046.14,839.751 1058.68,838.711 1054.17,851.512 1051.86,856.445 1018.15,882.677 1015.44,882.933 "/>
<path clip-path="url(#clip920)" d="M212.753 198.898 L574.108 198.898 L574.108 95.2176 L212.753 95.2176  Z" fill="#ffffff" fill-rule="evenodd" fill-opacity="1"/>
<polyline clip-path="url(#clip920)" style="stroke:#000000; stroke-linecap:round; stroke-linejoin:round; stroke-width:4; stroke-opacity:1; fill:none" points="212.753,198.898 574.108,198.898 574.108,95.2176 212.753,95.2176 212.753,198.898 "/>
<polyline clip-path="url(#clip920)" style="stroke:#009af9; stroke-linecap:round; stroke-linejoin:round; stroke-width:4; stroke-opacity:1; fill:none" points="237.35,147.058 384.937,147.058 "/>
<path clip-path="url(#clip920)" d="M420.16 128.366 Q417.058 133.69 415.553 138.898 Q414.048 144.106 414.048 149.453 Q414.048 154.801 415.553 160.055 Q417.081 165.287 420.16 170.588 L416.456 170.588 Q412.984 165.148 411.248 159.893 Q409.535 154.639 409.535 149.453 Q409.535 144.291 411.248 139.06 Q412.96 133.828 416.456 128.366 L420.16 128.366 Z" fill="#000000" fill-rule="nonzero" fill-opacity="1" /><path clip-path="url(#clip920)" d="M426.572 138.412 L446.803 138.412 L446.803 142.301 L430.784 160.935 L446.803 160.935 L446.803 164.338 L425.993 164.338 L425.993 160.449 L442.011 141.815 L426.572 141.815 L426.572 138.412 Z" fill="#000000" fill-rule="nonzero" fill-opacity="1" /><path clip-path="url(#clip920)" d="M454.395 158.458 L459.28 158.458 L459.28 162.439 L455.483 169.847 L452.497 169.847 L454.395 162.439 L454.395 158.458 Z" fill="#000000" fill-rule="nonzero" fill-opacity="1" /><path clip-path="url(#clip920)" d="M479.164 166.745 Q477.358 171.375 475.645 172.787 Q473.932 174.199 471.062 174.199 L467.659 174.199 L467.659 170.634 L470.159 170.634 Q471.918 170.634 472.891 169.8 Q473.863 168.967 475.043 165.865 L475.807 163.921 L465.321 138.412 L469.835 138.412 L477.937 158.689 L486.039 138.412 L490.553 138.412 L479.164 166.745 Z" fill="#000000" fill-rule="nonzero" fill-opacity="1" /><path clip-path="url(#clip920)" d="M497.52 158.458 L502.404 158.458 L502.404 162.439 L498.608 169.847 L495.622 169.847 L497.52 162.439 L497.52 158.458 Z" fill="#000000" fill-rule="nonzero" fill-opacity="1" /><path clip-path="url(#clip920)" d="M533.052 138.412 L523.677 151.027 L533.539 164.338 L528.515 164.338 L520.969 154.152 L513.423 164.338 L508.4 164.338 L518.469 150.773 L509.256 138.412 L514.279 138.412 L521.154 147.648 L528.029 138.412 L533.052 138.412 Z" fill="#000000" fill-rule="nonzero" fill-opacity="1" /><path clip-path="url(#clip920)" d="M538.886 128.366 L542.589 128.366 Q546.062 133.828 547.775 139.06 Q549.511 144.291 549.511 149.453 Q549.511 154.639 547.775 159.893 Q546.062 165.148 542.589 170.588 L538.886 170.588 Q541.964 165.287 543.469 160.055 Q544.997 154.801 544.997 149.453 Q544.997 144.106 543.469 138.898 Q541.964 133.69 538.886 128.366 Z" fill="#000000" fill-rule="nonzero" fill-opacity="1" /></svg>
