<?xml version="1.0" encoding="utf-8"?>
<svg xmlns="http://www.w3.org/2000/svg" xmlns:xlink="http://www.w3.org/1999/xlink" width="600" height="400" viewBox="0 0 2400 1600">
<defs>
  <clipPath id="clip190">
    <rect x="0" y="0" width="2400" height="1600"/>
  </clipPath>
</defs>
<path clip-path="url(#clip190)" d="M0 1600 L2400 1600 L2400 0 L0 0  Z" fill="#ffffff" fill-rule="evenodd" fill-opacity="1"/>
<defs>
  <clipPath id="clip191">
    <rect x="112" y="47" width="2242" height="1440"/>
  </clipPath>
</defs>
<path clip-path="url(#clip191)" d="M-623.213 2650.58 L-623.213 2366.68 L-325.124 2224.73 L191.181 2306.68 L191.181 2590.58 L-106.908 2732.53 L-623.213 2650.58  Z" fill="#ffffff" fill-rule="evenodd" fill-opacity="1"/>
<polyline clip-path="url(#clip191)" style="stroke:#000000; stroke-linecap:round; stroke-linejoin:round; stroke-width:2; stroke-opacity:0.1; fill:none" points="688.606,1209.52 1104.07,849.714 1104.07,130.112 "/>
<polyline clip-path="url(#clip191)" style="stroke:#000000; stroke-linecap:round; stroke-linejoin:round; stroke-width:2; stroke-opacity:0.1; fill:none" points="817.682,1246.78 1233.14,886.975 1233.14,167.373 "/>
<polyline clip-path="url(#clip191)" style="stroke:#000000; stroke-linecap:round; stroke-linejoin:round; stroke-width:2; stroke-opacity:0.1; fill:none" points="946.758,1284.04 1362.22,924.236 1362.22,204.634 "/>
<polyline clip-path="url(#clip191)" style="stroke:#000000; stroke-linecap:round; stroke-linejoin:round; stroke-width:2; stroke-opacity:0.1; fill:none" points="1075.83,1321.3 1491.3,961.497 1491.3,241.896 "/>
<polyline clip-path="url(#clip191)" style="stroke:#000000; stroke-linecap:round; stroke-linejoin:round; stroke-width:2; stroke-opacity:0.1; fill:none" points="1204.91,1358.56 1620.37,998.759 1620.37,279.157 "/>
<polyline clip-path="url(#clip191)" style="stroke:#000000; stroke-linecap:round; stroke-linejoin:round; stroke-width:2; stroke-opacity:0.1; fill:none" points="1333.99,1395.82 1749.45,1036.02 1749.45,316.418 "/>
<polyline clip-path="url(#clip191)" style="stroke:#000000; stroke-linecap:round; stroke-linejoin:round; stroke-width:2; stroke-opacity:0.1; fill:none" points="1425.93,1374.56 706.333,1166.83 706.333,447.228 "/>
<polyline clip-path="url(#clip191)" style="stroke:#000000; stroke-linecap:round; stroke-linejoin:round; stroke-width:2; stroke-opacity:0.1; fill:none" points="1507.89,1303.59 788.287,1095.86 788.287,376.254 "/>
<polyline clip-path="url(#clip191)" style="stroke:#000000; stroke-linecap:round; stroke-linejoin:round; stroke-width:2; stroke-opacity:0.1; fill:none" points="1589.84,1232.61 870.241,1024.88 870.241,305.279 "/>
<polyline clip-path="url(#clip191)" style="stroke:#000000; stroke-linecap:round; stroke-linejoin:round; stroke-width:2; stroke-opacity:0.1; fill:none" points="1671.8,1161.64 952.195,953.907 952.195,234.305 "/>
<polyline clip-path="url(#clip191)" style="stroke:#000000; stroke-linecap:round; stroke-linejoin:round; stroke-width:2; stroke-opacity:0.1; fill:none" points="1753.75,1090.66 1034.15,882.932 1034.15,163.33 "/>
<polyline clip-path="url(#clip191)" style="stroke:#000000; stroke-linecap:round; stroke-linejoin:round; stroke-width:2; stroke-opacity:0.1; fill:none" points="664.934,1117.34 1080.4,757.538 1800,965.27 "/>
<polyline clip-path="url(#clip191)" style="stroke:#000000; stroke-linecap:round; stroke-linejoin:round; stroke-width:2; stroke-opacity:0.1; fill:none" points="664.934,1006.68 1080.4,646.877 1800,854.608 "/>
<polyline clip-path="url(#clip191)" style="stroke:#000000; stroke-linecap:round; stroke-linejoin:round; stroke-width:2; stroke-opacity:0.1; fill:none" points="664.934,896.016 1080.4,536.216 1800,743.947 "/>
<polyline clip-path="url(#clip191)" style="stroke:#000000; stroke-linecap:round; stroke-linejoin:round; stroke-width:2; stroke-opacity:0.1; fill:none" points="664.934,785.355 1080.4,425.554 1800,633.285 "/>
<polyline clip-path="url(#clip191)" style="stroke:#000000; stroke-linecap:round; stroke-linejoin:round; stroke-width:2; stroke-opacity:0.1; fill:none" points="664.934,674.694 1080.4,314.893 1800,522.624 "/>
<polyline clip-path="url(#clip191)" style="stroke:#000000; stroke-linecap:round; stroke-linejoin:round; stroke-width:2; stroke-opacity:0.1; fill:none" points="664.934,564.032 1080.4,204.231 1800,411.962 "/>
<polyline clip-path="url(#clip190)" style="stroke:#000000; stroke-linecap:round; stroke-linejoin:round; stroke-width:4; stroke-opacity:1; fill:none" points="664.934,1202.68 1384.54,1410.41 "/>
<polyline clip-path="url(#clip190)" style="stroke:#000000; stroke-linecap:round; stroke-linejoin:round; stroke-width:4; stroke-opacity:1; fill:none" points="688.606,1209.52 693.591,1205.2 "/>
<polyline clip-path="url(#clip190)" style="stroke:#000000; stroke-linecap:round; stroke-linejoin:round; stroke-width:4; stroke-opacity:1; fill:none" points="817.682,1246.78 822.667,1242.46 "/>
<polyline clip-path="url(#clip190)" style="stroke:#000000; stroke-linecap:round; stroke-linejoin:round; stroke-width:4; stroke-opacity:1; fill:none" points="946.758,1284.04 951.744,1279.72 "/>
<polyline clip-path="url(#clip190)" style="stroke:#000000; stroke-linecap:round; stroke-linejoin:round; stroke-width:4; stroke-opacity:1; fill:none" points="1075.83,1321.3 1080.82,1316.98 "/>
<polyline clip-path="url(#clip190)" style="stroke:#000000; stroke-linecap:round; stroke-linejoin:round; stroke-width:4; stroke-opacity:1; fill:none" points="1204.91,1358.56 1209.9,1354.24 "/>
<polyline clip-path="url(#clip190)" style="stroke:#000000; stroke-linecap:round; stroke-linejoin:round; stroke-width:4; stroke-opacity:1; fill:none" points="1333.99,1395.82 1338.97,1391.5 "/>
<path clip-path="url(#clip190)" d="M627.91 1223.76 Q624.299 1223.76 622.471 1227.32 Q620.665 1230.86 620.665 1237.99 Q620.665 1245.1 622.471 1248.66 Q624.299 1252.21 627.91 1252.21 Q631.545 1252.21 633.35 1248.66 Q635.179 1245.1 635.179 1237.99 Q635.179 1230.86 633.35 1227.32 Q631.545 1223.76 627.91 1223.76 M627.91 1220.05 Q633.721 1220.05 636.776 1224.66 Q639.855 1229.24 639.855 1237.99 Q639.855 1246.72 636.776 1251.33 Q633.721 1255.91 627.91 1255.91 Q622.1 1255.91 619.022 1251.33 Q615.966 1246.72 615.966 1237.99 Q615.966 1229.24 619.022 1224.66 Q622.1 1220.05 627.91 1220.05 Z" fill="#000000" fill-rule="nonzero" fill-opacity="1" /><path clip-path="url(#clip190)" d="M648.072 1249.36 L652.957 1249.36 L652.957 1255.24 L648.072 1255.24 L648.072 1249.36 Z" fill="#000000" fill-rule="nonzero" fill-opacity="1" /><path clip-path="url(#clip190)" d="M663.188 1220.68 L681.544 1220.68 L681.544 1224.61 L667.47 1224.61 L667.47 1233.09 Q668.489 1232.74 669.507 1232.58 Q670.526 1232.39 671.544 1232.39 Q677.331 1232.39 680.711 1235.56 Q684.091 1238.73 684.091 1244.15 Q684.091 1249.73 680.618 1252.83 Q677.146 1255.91 670.827 1255.91 Q668.651 1255.91 666.382 1255.54 Q664.137 1255.17 661.73 1254.43 L661.73 1249.73 Q663.813 1250.86 666.035 1251.42 Q668.257 1251.98 670.734 1251.98 Q674.739 1251.98 677.077 1249.87 Q679.415 1247.76 679.415 1244.15 Q679.415 1240.54 677.077 1238.43 Q674.739 1236.33 670.734 1236.33 Q668.859 1236.33 666.984 1236.74 Q665.132 1237.16 663.188 1238.04 L663.188 1220.68 Z" fill="#000000" fill-rule="nonzero" fill-opacity="1" /><path clip-path="url(#clip190)" d="M746.801 1288.56 L754.44 1288.56 L754.44 1262.2 L746.13 1263.87 L746.13 1259.61 L754.394 1257.94 L759.07 1257.94 L759.07 1288.56 L766.709 1288.56 L766.709 1292.5 L746.801 1292.5 L746.801 1288.56 Z" fill="#000000" fill-rule="nonzero" fill-opacity="1" /><path clip-path="url(#clip190)" d="M776.153 1286.62 L781.037 1286.62 L781.037 1292.5 L776.153 1292.5 L776.153 1286.62 Z" fill="#000000" fill-rule="nonzero" fill-opacity="1" /><path clip-path="url(#clip190)" d="M801.222 1261.02 Q797.611 1261.02 795.783 1264.58 Q793.977 1268.13 793.977 1275.25 Q793.977 1282.36 795.783 1285.93 Q797.611 1289.47 801.222 1289.47 Q804.857 1289.47 806.662 1285.93 Q808.491 1282.36 808.491 1275.25 Q808.491 1268.13 806.662 1264.58 Q804.857 1261.02 801.222 1261.02 M801.222 1257.32 Q807.033 1257.32 810.088 1261.92 Q813.167 1266.5 813.167 1275.25 Q813.167 1283.98 810.088 1288.59 Q807.033 1293.17 801.222 1293.17 Q795.412 1293.17 792.334 1288.59 Q789.278 1283.98 789.278 1275.25 Q789.278 1266.5 792.334 1261.92 Q795.412 1257.32 801.222 1257.32 Z" fill="#000000" fill-rule="nonzero" fill-opacity="1" /><path clip-path="url(#clip190)" d="M876.873 1325.83 L884.512 1325.83 L884.512 1299.46 L876.202 1301.13 L876.202 1296.87 L884.466 1295.2 L889.141 1295.2 L889.141 1325.83 L896.78 1325.83 L896.78 1329.76 L876.873 1329.76 L876.873 1325.83 Z" fill="#000000" fill-rule="nonzero" fill-opacity="1" /><path clip-path="url(#clip190)" d="M906.225 1323.88 L911.109 1323.88 L911.109 1329.76 L906.225 1329.76 L906.225 1323.88 Z" fill="#000000" fill-rule="nonzero" fill-opacity="1" /><path clip-path="url(#clip190)" d="M921.34 1295.2 L939.697 1295.2 L939.697 1299.14 L925.623 1299.14 L925.623 1307.61 Q926.641 1307.26 927.66 1307.1 Q928.678 1306.91 929.697 1306.91 Q935.484 1306.91 938.863 1310.09 Q942.243 1313.26 942.243 1318.67 Q942.243 1324.25 938.771 1327.35 Q935.299 1330.43 928.979 1330.43 Q926.803 1330.43 924.535 1330.06 Q922.289 1329.69 919.882 1328.95 L919.882 1324.25 Q921.965 1325.39 924.188 1325.94 Q926.41 1326.5 928.887 1326.5 Q932.891 1326.5 935.229 1324.39 Q937.567 1322.28 937.567 1318.67 Q937.567 1315.06 935.229 1312.96 Q932.891 1310.85 928.887 1310.85 Q927.012 1310.85 925.137 1311.27 Q923.285 1311.68 921.34 1312.56 L921.34 1295.2 Z" fill="#000000" fill-rule="nonzero" fill-opacity="1" /><path clip-path="url(#clip190)" d="M1008.17 1363.09 L1024.49 1363.09 L1024.49 1367.02 L1002.55 1367.02 L1002.55 1363.09 Q1005.21 1360.33 1009.79 1355.7 Q1014.4 1351.05 1015.58 1349.71 Q1017.82 1347.18 1018.7 1345.45 Q1019.61 1343.69 1019.61 1342 Q1019.61 1339.24 1017.66 1337.51 Q1015.74 1335.77 1012.64 1335.77 Q1010.44 1335.77 1007.99 1336.54 Q1005.56 1337.3 1002.78 1338.85 L1002.78 1334.13 Q1005.6 1332.99 1008.06 1332.42 Q1010.51 1331.84 1012.55 1331.84 Q1017.92 1331.84 1021.11 1334.52 Q1024.31 1337.21 1024.31 1341.7 Q1024.31 1343.83 1023.5 1345.75 Q1022.71 1347.65 1020.6 1350.24 Q1020.02 1350.91 1016.92 1354.13 Q1013.82 1357.32 1008.17 1363.09 Z" fill="#000000" fill-rule="nonzero" fill-opacity="1" /><path clip-path="url(#clip190)" d="M1034.31 1361.14 L1039.19 1361.14 L1039.19 1367.02 L1034.31 1367.02 L1034.31 1361.14 Z" fill="#000000" fill-rule="nonzero" fill-opacity="1" /><path clip-path="url(#clip190)" d="M1059.37 1335.54 Q1055.76 1335.54 1053.94 1339.11 Q1052.13 1342.65 1052.13 1349.78 Q1052.13 1356.88 1053.94 1360.45 Q1055.76 1363.99 1059.37 1363.99 Q1063.01 1363.99 1064.81 1360.45 Q1066.64 1356.88 1066.64 1349.78 Q1066.64 1342.65 1064.81 1339.11 Q1063.01 1335.54 1059.37 1335.54 M1059.37 1331.84 Q1065.19 1331.84 1068.24 1336.44 Q1071.32 1341.03 1071.32 1349.78 Q1071.32 1358.5 1068.24 1363.11 Q1065.19 1367.69 1059.37 1367.69 Q1053.56 1367.69 1050.49 1363.11 Q1047.43 1358.5 1047.43 1349.78 Q1047.43 1341.03 1050.49 1336.44 Q1053.56 1331.84 1059.37 1331.84 Z" fill="#000000" fill-rule="nonzero" fill-opacity="1" /><path clip-path="url(#clip190)" d="M1138.24 1400.35 L1154.56 1400.35 L1154.56 1404.28 L1132.62 1404.28 L1132.62 1400.35 Q1135.28 1397.59 1139.86 1392.96 Q1144.47 1388.31 1145.65 1386.97 Q1147.9 1384.45 1148.78 1382.71 Q1149.68 1380.95 1149.68 1379.26 Q1149.68 1376.51 1147.73 1374.77 Q1145.81 1373.03 1142.71 1373.03 Q1140.51 1373.03 1138.06 1373.8 Q1135.63 1374.56 1132.85 1376.11 L1132.85 1371.39 Q1135.67 1370.26 1138.13 1369.68 Q1140.58 1369.1 1142.62 1369.1 Q1147.99 1369.1 1151.18 1371.78 Q1154.38 1374.47 1154.38 1378.96 Q1154.38 1381.09 1153.57 1383.01 Q1152.78 1384.91 1150.67 1387.5 Q1150.09 1388.17 1146.99 1391.39 Q1143.89 1394.58 1138.24 1400.35 Z" fill="#000000" fill-rule="nonzero" fill-opacity="1" /><path clip-path="url(#clip190)" d="M1164.38 1398.4 L1169.26 1398.4 L1169.26 1404.28 L1164.38 1404.28 L1164.38 1398.4 Z" fill="#000000" fill-rule="nonzero" fill-opacity="1" /><path clip-path="url(#clip190)" d="M1179.49 1369.72 L1197.85 1369.72 L1197.85 1373.66 L1183.78 1373.66 L1183.78 1382.13 Q1184.79 1381.78 1185.81 1381.62 Q1186.83 1381.44 1187.85 1381.44 Q1193.64 1381.44 1197.02 1384.61 Q1200.4 1387.78 1200.4 1393.2 Q1200.4 1398.77 1196.92 1401.88 Q1193.45 1404.95 1187.13 1404.95 Q1184.96 1404.95 1182.69 1404.58 Q1180.44 1404.21 1178.03 1403.47 L1178.03 1398.77 Q1180.12 1399.91 1182.34 1400.46 Q1184.56 1401.02 1187.04 1401.02 Q1191.04 1401.02 1193.38 1398.91 Q1195.72 1396.81 1195.72 1393.2 Q1195.72 1389.58 1193.38 1387.48 Q1191.04 1385.37 1187.04 1385.37 Q1185.16 1385.37 1183.29 1385.79 Q1181.44 1386.2 1179.49 1387.08 L1179.49 1369.72 Z" fill="#000000" fill-rule="nonzero" fill-opacity="1" /><path clip-path="url(#clip190)" d="M1276.46 1422.91 Q1279.82 1423.63 1281.69 1425.9 Q1283.59 1428.16 1283.59 1431.5 Q1283.59 1436.61 1280.07 1439.41 Q1276.56 1442.22 1270.07 1442.22 Q1267.9 1442.22 1265.58 1441.78 Q1263.29 1441.36 1260.84 1440.5 L1260.84 1435.99 Q1262.78 1437.12 1265.1 1437.7 Q1267.41 1438.28 1269.93 1438.28 Q1274.33 1438.28 1276.62 1436.54 Q1278.94 1434.81 1278.94 1431.5 Q1278.94 1428.44 1276.79 1426.73 Q1274.66 1424.99 1270.84 1424.99 L1266.81 1424.99 L1266.81 1421.15 L1271.02 1421.15 Q1274.47 1421.15 1276.3 1419.79 Q1278.13 1418.4 1278.13 1415.8 Q1278.13 1413.14 1276.23 1411.73 Q1274.36 1410.29 1270.84 1410.29 Q1268.92 1410.29 1266.72 1410.71 Q1264.52 1411.13 1261.88 1412.01 L1261.88 1407.84 Q1264.54 1407.1 1266.86 1406.73 Q1269.19 1406.36 1271.25 1406.36 Q1276.58 1406.36 1279.68 1408.79 Q1282.78 1411.2 1282.78 1415.32 Q1282.78 1418.19 1281.14 1420.18 Q1279.5 1422.15 1276.46 1422.91 Z" fill="#000000" fill-rule="nonzero" fill-opacity="1" /><path clip-path="url(#clip190)" d="M1292.46 1435.66 L1297.34 1435.66 L1297.34 1441.54 L1292.46 1441.54 L1292.46 1435.66 Z" fill="#000000" fill-rule="nonzero" fill-opacity="1" /><path clip-path="url(#clip190)" d="M1317.53 1410.06 Q1313.92 1410.06 1312.09 1413.63 Q1310.28 1417.17 1310.28 1424.3 Q1310.28 1431.41 1312.09 1434.97 Q1313.92 1438.51 1317.53 1438.51 Q1321.16 1438.51 1322.97 1434.97 Q1324.8 1431.41 1324.8 1424.3 Q1324.8 1417.17 1322.97 1413.63 Q1321.16 1410.06 1317.53 1410.06 M1317.53 1406.36 Q1323.34 1406.36 1326.39 1410.97 Q1329.47 1415.55 1329.47 1424.3 Q1329.47 1433.03 1326.39 1437.63 Q1323.34 1442.22 1317.53 1442.22 Q1311.72 1442.22 1308.64 1437.63 Q1305.58 1433.03 1305.58 1424.3 Q1305.58 1415.55 1308.64 1410.97 Q1311.72 1406.36 1317.53 1406.36 Z" fill="#000000" fill-rule="nonzero" fill-opacity="1" /><polyline clip-path="url(#clip190)" style="stroke:#000000; stroke-linecap:round; stroke-linejoin:round; stroke-width:4; stroke-opacity:1; fill:none" points="1384.54,1410.41 1800,1050.61 "/>
<polyline clip-path="url(#clip190)" style="stroke:#000000; stroke-linecap:round; stroke-linejoin:round; stroke-width:4; stroke-opacity:1; fill:none" points="1425.93,1374.56 1417.3,1372.07 "/>
<polyline clip-path="url(#clip190)" style="stroke:#000000; stroke-linecap:round; stroke-linejoin:round; stroke-width:4; stroke-opacity:1; fill:none" points="1507.89,1303.59 1499.25,1301.09 "/>
<polyline clip-path="url(#clip190)" style="stroke:#000000; stroke-linecap:round; stroke-linejoin:round; stroke-width:4; stroke-opacity:1; fill:none" points="1589.84,1232.61 1581.21,1230.12 "/>
<polyline clip-path="url(#clip190)" style="stroke:#000000; stroke-linecap:round; stroke-linejoin:round; stroke-width:4; stroke-opacity:1; fill:none" points="1671.8,1161.64 1663.16,1159.15 "/>
<polyline clip-path="url(#clip190)" style="stroke:#000000; stroke-linecap:round; stroke-linejoin:round; stroke-width:4; stroke-opacity:1; fill:none" points="1753.75,1090.66 1745.12,1088.17 "/>
<path clip-path="url(#clip190)" d="M1453.92 1387.36 L1442.11 1405.81 L1453.92 1405.81 L1453.92 1387.36 M1452.69 1383.28 L1458.57 1383.28 L1458.57 1405.81 L1463.5 1405.81 L1463.5 1409.7 L1458.57 1409.7 L1458.57 1417.84 L1453.92 1417.84 L1453.92 1409.7 L1438.32 1409.7 L1438.32 1405.18 L1452.69 1383.28 Z" fill="#000000" fill-rule="nonzero" fill-opacity="1" /><path clip-path="url(#clip190)" d="M1521.73 1312.31 L1540.09 1312.31 L1540.09 1316.24 L1526.01 1316.24 L1526.01 1324.72 Q1527.03 1324.37 1528.05 1324.21 Q1529.07 1324.02 1530.09 1324.02 Q1535.87 1324.02 1539.25 1327.19 Q1542.63 1330.36 1542.63 1335.78 Q1542.63 1341.36 1539.16 1344.46 Q1535.69 1347.54 1529.37 1347.54 Q1527.19 1347.54 1524.92 1347.17 Q1522.68 1346.8 1520.27 1346.06 L1520.27 1341.36 Q1522.35 1342.49 1524.58 1343.05 Q1526.8 1343.61 1529.28 1343.61 Q1533.28 1343.61 1535.62 1341.5 Q1537.96 1339.39 1537.96 1335.78 Q1537.96 1332.17 1535.62 1330.06 Q1533.28 1327.96 1529.28 1327.96 Q1527.4 1327.96 1525.53 1328.37 Q1523.67 1328.79 1521.73 1329.67 L1521.73 1312.31 Z" fill="#000000" fill-rule="nonzero" fill-opacity="1" /><path clip-path="url(#clip190)" d="M1614.56 1256.75 Q1611.41 1256.75 1609.56 1258.9 Q1607.73 1261.06 1607.73 1264.81 Q1607.73 1268.53 1609.56 1270.71 Q1611.41 1272.86 1614.56 1272.86 Q1617.71 1272.86 1619.54 1270.71 Q1621.39 1268.53 1621.39 1264.81 Q1621.39 1261.06 1619.54 1258.9 Q1617.71 1256.75 1614.56 1256.75 M1623.85 1242.1 L1623.85 1246.36 Q1622.09 1245.52 1620.28 1245.08 Q1618.5 1244.64 1616.74 1244.64 Q1612.11 1244.64 1609.66 1247.77 Q1607.23 1250.89 1606.88 1257.21 Q1608.24 1255.2 1610.3 1254.14 Q1612.36 1253.05 1614.84 1253.05 Q1620.05 1253.05 1623.06 1256.22 Q1626.09 1259.37 1626.09 1264.81 Q1626.09 1270.13 1622.94 1273.35 Q1619.79 1276.57 1614.56 1276.57 Q1608.57 1276.57 1605.4 1271.98 Q1602.23 1267.38 1602.23 1258.65 Q1602.23 1250.45 1606.11 1245.59 Q1610 1240.71 1616.55 1240.71 Q1618.31 1240.71 1620.1 1241.06 Q1621.9 1241.4 1623.85 1242.1 Z" fill="#000000" fill-rule="nonzero" fill-opacity="1" /><path clip-path="url(#clip190)" d="M1684.18 1170.36 L1706.4 1170.36 L1706.4 1172.35 L1693.86 1204.92 L1688.97 1204.92 L1700.78 1174.3 L1684.18 1174.3 L1684.18 1170.36 Z" fill="#000000" fill-rule="nonzero" fill-opacity="1" /><path clip-path="url(#clip190)" d="M1777.99 1117.53 Q1774.65 1117.53 1772.73 1119.32 Q1770.83 1121.1 1770.83 1124.22 Q1770.83 1127.35 1772.73 1129.13 Q1774.65 1130.91 1777.99 1130.91 Q1781.32 1130.91 1783.24 1129.13 Q1785.16 1127.33 1785.16 1124.22 Q1785.16 1121.1 1783.24 1119.32 Q1781.34 1117.53 1777.99 1117.53 M1773.31 1115.54 Q1770.3 1114.8 1768.61 1112.74 Q1766.94 1110.68 1766.94 1107.72 Q1766.94 1103.58 1769.88 1101.17 Q1772.85 1098.76 1777.99 1098.76 Q1783.15 1098.76 1786.09 1101.17 Q1789.03 1103.58 1789.03 1107.72 Q1789.03 1110.68 1787.34 1112.74 Q1785.67 1114.8 1782.68 1115.54 Q1786.06 1116.33 1787.94 1118.62 Q1789.84 1120.91 1789.84 1124.22 Q1789.84 1129.25 1786.76 1131.93 Q1783.7 1134.62 1777.99 1134.62 Q1772.27 1134.62 1769.19 1131.93 Q1766.13 1129.25 1766.13 1124.22 Q1766.13 1120.91 1768.03 1118.62 Q1769.93 1116.33 1773.31 1115.54 M1771.6 1108.16 Q1771.6 1110.84 1773.26 1112.35 Q1774.95 1113.85 1777.99 1113.85 Q1780.99 1113.85 1782.68 1112.35 Q1784.4 1110.84 1784.4 1108.16 Q1784.4 1105.47 1782.68 1103.97 Q1780.99 1102.46 1777.99 1102.46 Q1774.95 1102.46 1773.26 1103.97 Q1771.6 1105.47 1771.6 1108.16 Z" fill="#000000" fill-rule="nonzero" fill-opacity="1" /><polyline clip-path="url(#clip190)" style="stroke:#000000; stroke-linecap:round; stroke-linejoin:round; stroke-width:4; stroke-opacity:1; fill:none" points="664.934,1202.68 664.934,483.08 "/>
<polyline clip-path="url(#clip190)" style="stroke:#000000; stroke-linecap:round; stroke-linejoin:round; stroke-width:4; stroke-opacity:1; fill:none" points="664.934,1117.34 669.92,1113.02 "/>
<polyline clip-path="url(#clip190)" style="stroke:#000000; stroke-linecap:round; stroke-linejoin:round; stroke-width:4; stroke-opacity:1; fill:none" points="664.934,1006.68 669.92,1002.36 "/>
<polyline clip-path="url(#clip190)" style="stroke:#000000; stroke-linecap:round; stroke-linejoin:round; stroke-width:4; stroke-opacity:1; fill:none" points="664.934,896.016 669.92,891.699 "/>
<polyline clip-path="url(#clip190)" style="stroke:#000000; stroke-linecap:round; stroke-linejoin:round; stroke-width:4; stroke-opacity:1; fill:none" points="664.934,785.355 669.92,781.037 "/>
<polyline clip-path="url(#clip190)" style="stroke:#000000; stroke-linecap:round; stroke-linejoin:round; stroke-width:4; stroke-opacity:1; fill:none" points="664.934,674.694 669.92,670.376 "/>
<polyline clip-path="url(#clip190)" style="stroke:#000000; stroke-linecap:round; stroke-linejoin:round; stroke-width:4; stroke-opacity:1; fill:none" points="664.934,564.032 669.92,559.714 "/>
<path clip-path="url(#clip190)" d="M626.551 1104.13 L614.746 1122.58 L626.551 1122.58 L626.551 1104.13 M625.324 1100.06 L631.204 1100.06 L631.204 1122.58 L636.134 1122.58 L636.134 1126.47 L631.204 1126.47 L631.204 1134.62 L626.551 1134.62 L626.551 1126.47 L610.949 1126.47 L610.949 1121.96 L625.324 1100.06 Z" fill="#000000" fill-rule="nonzero" fill-opacity="1" /><path clip-path="url(#clip190)" d="M615.232 989.398 L633.588 989.398 L633.588 993.333 L619.514 993.333 L619.514 1001.81 Q620.533 1001.46 621.551 1001.3 Q622.57 1001.11 623.588 1001.11 Q629.375 1001.11 632.755 1004.28 Q636.134 1007.45 636.134 1012.87 Q636.134 1018.45 632.662 1021.55 Q629.19 1024.63 622.871 1024.63 Q620.695 1024.63 618.426 1024.26 Q616.181 1023.89 613.773 1023.15 L613.773 1018.45 Q615.857 1019.58 618.079 1020.14 Q620.301 1020.69 622.778 1020.69 Q626.783 1020.69 629.121 1018.59 Q631.459 1016.48 631.459 1012.87 Q631.459 1009.26 629.121 1007.15 Q626.783 1005.05 622.778 1005.05 Q620.903 1005.05 619.028 1005.46 Q617.176 1005.88 615.232 1006.76 L615.232 989.398 Z" fill="#000000" fill-rule="nonzero" fill-opacity="1" /><path clip-path="url(#clip190)" d="M624.607 894.153 Q621.459 894.153 619.607 896.306 Q617.778 898.459 617.778 902.209 Q617.778 905.935 619.607 908.111 Q621.459 910.264 624.607 910.264 Q627.755 910.264 629.584 908.111 Q631.435 905.935 631.435 902.209 Q631.435 898.459 629.584 896.306 Q627.755 894.153 624.607 894.153 M633.889 879.5 L633.889 883.76 Q632.13 882.926 630.324 882.486 Q628.542 882.047 626.783 882.047 Q622.153 882.047 619.699 885.172 Q617.269 888.297 616.922 894.616 Q618.287 892.602 620.347 891.537 Q622.408 890.449 624.884 890.449 Q630.093 890.449 633.102 893.621 Q636.134 896.769 636.134 902.209 Q636.134 907.533 632.986 910.75 Q629.838 913.968 624.607 913.968 Q618.611 913.968 615.44 909.384 Q612.269 904.778 612.269 896.051 Q612.269 887.857 616.158 882.996 Q620.047 878.111 626.597 878.111 Q628.357 878.111 630.139 878.459 Q631.945 878.806 633.889 879.5 Z" fill="#000000" fill-rule="nonzero" fill-opacity="1" /><path clip-path="url(#clip190)" d="M613.912 768.075 L636.134 768.075 L636.134 770.066 L623.588 802.635 L618.704 802.635 L630.509 772.01 L613.912 772.01 L613.912 768.075 Z" fill="#000000" fill-rule="nonzero" fill-opacity="1" /><path clip-path="url(#clip190)" d="M624.283 675.562 Q620.949 675.562 619.028 677.344 Q617.13 679.126 617.13 682.251 Q617.13 685.376 619.028 687.159 Q620.949 688.941 624.283 688.941 Q627.616 688.941 629.537 687.159 Q631.459 685.353 631.459 682.251 Q631.459 679.126 629.537 677.344 Q627.639 675.562 624.283 675.562 M619.607 673.571 Q616.597 672.83 614.908 670.77 Q613.241 668.71 613.241 665.747 Q613.241 661.603 616.181 659.196 Q619.144 656.789 624.283 656.789 Q629.445 656.789 632.384 659.196 Q635.324 661.603 635.324 665.747 Q635.324 668.71 633.634 670.77 Q631.968 672.83 628.982 673.571 Q632.361 674.358 634.236 676.65 Q636.134 678.941 636.134 682.251 Q636.134 687.274 633.056 689.96 Q630 692.645 624.283 692.645 Q618.565 692.645 615.486 689.96 Q612.431 687.274 612.431 682.251 Q612.431 678.941 614.329 676.65 Q616.227 674.358 619.607 673.571 M617.894 666.187 Q617.894 668.872 619.56 670.376 Q621.25 671.881 624.283 671.881 Q627.292 671.881 628.982 670.376 Q630.695 668.872 630.695 666.187 Q630.695 663.501 628.982 661.997 Q627.292 660.492 624.283 660.492 Q621.25 660.492 619.56 661.997 Q617.894 663.501 617.894 666.187 Z" fill="#000000" fill-rule="nonzero" fill-opacity="1" /><path clip-path="url(#clip190)" d="M614.514 580.594 L614.514 576.335 Q616.273 577.169 618.079 577.608 Q619.885 578.048 621.621 578.048 Q626.25 578.048 628.681 574.946 Q631.134 571.821 631.482 565.479 Q630.139 567.47 628.079 568.534 Q626.019 569.599 623.519 569.599 Q618.334 569.599 615.301 566.474 Q612.292 563.326 612.292 557.886 Q612.292 552.562 615.44 549.345 Q618.588 546.127 623.82 546.127 Q629.815 546.127 632.963 550.733 Q636.134 555.317 636.134 564.067 Q636.134 572.238 632.246 577.122 Q628.38 581.983 621.829 581.983 Q620.07 581.983 618.264 581.636 Q616.459 581.289 614.514 580.594 M623.82 565.942 Q626.968 565.942 628.796 563.789 Q630.648 561.636 630.648 557.886 Q630.648 554.159 628.796 552.007 Q626.968 549.831 623.82 549.831 Q620.672 549.831 618.82 552.007 Q616.991 554.159 616.991 557.886 Q616.991 561.636 618.82 563.789 Q620.672 565.942 623.82 565.942 Z" fill="#000000" fill-rule="nonzero" fill-opacity="1" /><polyline clip-path="url(#clip191)" style="stroke:#009af9; stroke-linecap:round; stroke-linejoin:round; stroke-width:4; stroke-opacity:1; fill:none" points="941.034,943.946 937.403,948.187 934.754,951.27 936.49,948.866 928.135,959.016 929.864,956.49 927.179,959.451 928.549,957.294 933.81,950.289 938.096,944.521 937.27,945.179 916.683,970.356 919.45,965.991 928.977,953.252 938.677,940.681 939.995,938.825 927.939,953.459 921.275,961.094 928.755,950.524 929.129,949.511 917.374,963.302 937.111,937.39 948.097,923.924 925.208,954.267 903.862,978.555 893.346,989.333 907.143,968.695 945.294,922.891 973.393,892.606 959.692,913.125 935.06,943.884 976.168,893.524 1012.31,858.278 1012.55,868.675 964.261,924.351 954.105,931.653 985.635,899.231 925.978,968.842 923.91,958.343 946.257,925.753 988.055,884.724 1000.64,879.703 1029.84,850.576 1156.61,729.585 1139.2,771.083 1154.16,755.824 1191.25,731.258 1162.25,764.453 1247.25,676.563 1146.95,773.578 1130.59,792.177 1099.65,825.717 1227.26,730.112 1277.95,676.069 1199.6,749.211 1109.29,829.185 1117.34,808.426 1069.48,847.456 1117.17,786.872 1059.68,844.626 1035.13,861.922 1061.3,834.105 979.796,921.447 1027.93,876.301 1098.71,821.108 1072.26,838.675 1060.95,835.134 1101.76,807.685 1104.7,810.274 1192.59,748.304 1255.7,682.336 1255.5,682.432 1197.8,727.251 1254.32,667.035 1249.42,697.047 1210.09,743.604 1160.52,778.355 1161.35,767.315 1209.8,722.499 1216.52,740.377 1156.13,787.481 1105.58,823.44 1046.7,863.151 1098.76,801.353 1142.5,759.427 1154.88,751.366 1185.97,736.139 1181.28,733.439 1216.54,712.68 1142.42,778.182 1119.11,807.199 1020.29,888.171 1050.73,845.996 966.959,933.07 978.149,909.788 932.333,952.496 896.929,986.428 864.198,1019.49 900.792,973.053 932.968,950.935 951.069,927.17 872.48,1010.76 884.227,983.916 906.145,974.156 930.794,945.018 987.221,882.237 1001.59,868.589 1054.09,844.829 1061.8,836.358 1165.95,736.662 1133.55,772.482 1124.05,794.346 1108.51,813.679 1069.96,819.424 1116.35,776.691 1127.93,772.861 1143.95,758.03 1196.43,718.144 1147.69,774.18 1167.37,756.834 1046.43,868.557 1050.86,857.547 1060.79,844.718 1071.14,827.092 1069.18,834.325 1017.7,883.256 988.927,904.311 914.126,976.402 896.748,989.575 847.844,1026.63 845.497,1021.93 852.336,1016.02 867.648,998.335 856.024,1011.34 888.348,982.207 890.529,978.933 924.517,945.793 998.009,870.359 962.002,918.204 942.143,944.379 930.513,962.252 994.325,888.826 1025.87,874.433 957.948,925.502 919.141,955.141 874.362,997.456 979.612,890.861 948.13,918.456 875.594,994.069 828.271,1043.11 862.85,990.716 833.492,1022.19 878.376,979.442 937.122,930.89 944.314,941.414 938.744,947.357 921.279,958.191 839.393,1037.99 861.113,1008.12 879.126,984.446 951.001,914.922 969.155,914.844 929.791,950.296 1055.05,832.25 1073.94,818.906 1054.4,857.925 1001.8,901.921 934.202,967.952 854.341,1042.37 857.759,1024.18 813.896,1064.01 845.116,1021.55 823.824,1052.21 824.731,1045.4 898.171,975.14 896.055,978.195 1004.69,869.47 1071.27,805.917 1140.62,751.483 1073.02,824.713 1034.84,870.148 1046.69,856.652 1131.34,770.039 1112.2,803.754 1077.48,837.262 1071.87,832.497 1066.08,829.391 1167.72,762.515 1154.66,768.583 1207.63,714.873 1135.98,781.93 1095.81,821.145 1157.36,754.659 1118.18,783.43 1136.31,775.86 1224.4,686.188 1106.49,787.08 1054.11,851.393 1108.5,787.985 1038.45,839.482 1145.8,758.78 1195.08,726.188 1187.7,730.45 1178.86,747.363 1224.21,700.613 1211.76,717.032 1096.26,802.177 1032.01,862.259 1030.42,863.582 1004.65,887.617 998.177,893.792 992.873,905.609 1010.3,882.66 1055.9,850.425 1083.86,820.116 1111.81,786.089 1023.13,848.802 1007.24,885.18 1049.31,842.175 1185.6,725.529 1164.16,757.156 1189.16,757.281 1250.67,701.853 1274.36,683.721 1284.37,677.066 1159.95,793.938 1159.42,763.818 1152.69,767.814 1142.32,773.193 1078.17,835.629 1000.29,899.763 993.587,901.839 1031.46,855.398 1045.87,842.575 1057.28,841.141 1068.19,840.442 983.868,918.073 872.982,1021.59 876.886,1002.31 897.912,977.452 902.443,973.748 900.497,968.66 1030.61,842.112 1064.68,833.281 1075.98,826.169 1083.92,823.113 1164.3,734.239 1201.04,701.048 1211.2,707.981 1247.91,680.339 1171.36,758.721 1164.86,746.983 1228.39,696.312 1271.05,677.742 1251.53,691.534 1272.64,684.019 1408.83,594.011 1369.95,617.777 1280.36,690.924 1289.5,667.319 1208.09,738.276 1149.38,769.784 1166,749.029 1075.04,841.154 964.628,935.029 1003.35,883.19 1042.73,844.537 1099.32,791.648 1132.81,772.373 1097.66,810.227 999.071,912.759 989.218,910.358 941.082,953.405 932.349,958.618 932.294,950.998 919.705,961.612 919.466,958.919 906.705,964.704 876.762,991.2 883.858,986.019 887.548,984.5 903.693,963.07 938.523,925.613 969.161,910.482 1027.14,861.39 1009.01,880.436 974.564,911.366 853.185,1021.15 842.722,1028.97 791.333,1074.62 814.219,1050.21 800.449,1069.35 823.058,1042.94 834.757,1038.6 813.474,1060.42 783.985,1089.48 788.194,1078.93 755.528,1115.18 758.458,1105.42 791.534,1062.06 877.333,972.057 899.565,972.121 895.936,973.666 968.476,893.693 983.643,885.305 1042.38,823.959 1035.77,845.461 1054.31,840.958 1038.39,862.805 1050.46,837.174 1026.64,866.02 980.298,915.115 974.065,913.737 978.291,892.756 1014.61,875.044 1062.53,822.093 1029.22,861.79 1054.7,841.796 1099.64,802.807 1102.37,812.977 1010.4,872.68 1066.28,825.262 1055.54,839.64 1224.41,686.038 1292.59,648.512 1263.5,682.545 1156.62,764.434 1152.95,774.477 1146.62,769.015 1161.06,755.239 1077.11,827.515 1092.85,809.873 1102.67,809.681 1049.01,856.921 1088.28,802.094 1084.63,814.087 1040.86,859.491 1008.82,886.442 1042.97,843.581 1060.8,833.922 1044.63,852.219 1197.46,710.602 1150.38,773.948 1249.96,680.776 1201.94,728.928 1236.68,694.974 1192.61,740.188 1163.21,756.869 1184.66,745.322 1110.75,809.498 1157.73,762.563 1238.79,694.719 1330.43,616.787 1404.92,575.439 1461.33,538.85 1474.82,538.756 1600.65,438.313 1588.73,468.875 1555.85,506.872 1416.12,627.15 1366.74,649.326 1290.8,698.241 1246.96,724.364 1299.86,668.782 1267.27,691.086 1232.96,713.462 1176.73,764.006 1114.26,816 1044.62,875.609 998.89,909.622 987.143,908.872 974.522,915.954 926.854,965.922 904.465,978.969 869.543,1014.85 875.527,998.242 917.832,951.195 889.298,981.952 841.692,1033.82 826.079,1047.18 823.736,1051.83 800.594,1070.07 817.551,1051.52 825.928,1046.4 825.73,1049.73 833.379,1033.72 865.88,1006.37 920.431,954.86 914.246,954.297 966.157,916.544 941.929,949.469 914.03,970.906 978.365,896.607 1023.09,852.261 1027.95,846.827 1091.03,814.104 1201.73,730.461 1135.04,797.203 1194.75,750.46 1094.23,831.461 1151.21,769.52 1167.31,743.422 1168.92,754.14 1227.11,701.397 1110.23,800.329 1124.33,783.993 1166.8,739.396 1206.34,708.296 1118.39,803.348 1179.08,745.062 1236.11,694.419 1237.52,715.611 1294.88,664.83 1381.65,583.046 1394.51,587.057 1258.09,699.821 1213.01,737.918 1236.91,708.057 1142.85,777.814 1120.3,786.915 1083.11,826.764 1029.16,876.318 958.198,935.628 971.469,914.341 1006.33,878.745 1099.51,788.722 1174.45,717.54 1237.29,684.336 1224.73,708.56 1272.3,672.602 1217.5,730.249 1162.46,765.982 1128.53,792.478 1145.44,772.318 1112.82,806.407 1115.79,795.561 1130.27,773.478 1175.86,760.113 1087.34,839.753 1039.46,883.103 1042.38,864.989 941.402,955.312 949.236,939.754 929.707,951.293 921.72,955.906 971.063,892.92 942.128,942.06 906.404,979.151 909.18,970.671 927.939,953.264 933.397,944.544 935.943,933.978 992.251,885.978 1004.86,877.995 986.573,898.17 924.337,956.501 965.586,923.497 1012.13,871.016 985.407,883.54 1036.46,839.247 1023.6,864.62 1071.64,827.498 1219.81,704.566 1179.38,754.501 1186.06,741.31 1052.41,867.311 1038.88,860.983 1043.63,857.753 972.925,918.676 1029.32,857.737 1078.09,810.969 1145.94,750.523 1167.92,743.126 1179.51,738.049 1128.6,789.996 1063.24,840.824 980.882,921.955 1009.58,880.663 1053.31,837.909 1087.2,809.802 1080.55,829.894 1083.31,822.628 1109.33,796.916 1103.59,794.846 1072.39,823.753 1060.32,826.85 1112.13,781.746 1147.48,767.56 1065.17,854.619 1089.79,805.182 1068.1,834.025 1046.98,854.489 1027.78,857.67 1012.08,873.571 1024.33,867.772 995.556,900.095 1056.39,835.965 1069.15,825.421 981.809,904.316 988.795,902.123 983.363,901.734 1000.6,871.477 999.386,895.882 969.764,914.082 974.151,898.241 989.048,886.843 1060.54,836.094 1012.84,893.866 986.142,916.732 1088.11,810.806 1074.16,815.19 1070.4,820.536 1165.39,758.156 1121.36,797.843 1102.13,800.884 1101.46,813.294 1090.33,814.911 1080.25,822.517 979.207,903.822 982.248,904.118 974.151,915.171 938.638,945.908 938.278,946.378 914.274,963.3 956.687,915.729 1005.87,871.573 944.669,932.891 963.193,914.276 1036.27,852.211 1019.5,878.432 1034.25,868.395 993.504,906.882 1050.79,838.782 1108.17,783.182 1017.32,874.563 982.854,908.845 935.563,941.585 985.722,888.176 1004.32,886.536 989.56,893.858 1098.05,788.402 1084.2,808.283 1007.17,893.085 1022.39,875.212 926.067,954.018 977.223,897.68 1083.37,793.514 1052.36,838.169 1037.26,856.715 1042.57,858.636 1064.2,835.075 1136.31,776.833 1105.96,808.266 1040.22,873.765 1021.02,879.683 1007.22,893.352 987.865,910.505 944.443,949.658 965.787,917.807 1064.26,823.882 1133.36,762.103 1067.21,841.96 1041.85,866.76 1074.76,830.281 1090.07,818.025 1101.46,810.061 1147.17,772.389 1091.68,816.165 1074.94,822.498 1066.58,820.646 1082.81,829.355 1113.62,810.663 1134.34,789.418 1138.58,791.247 1185.63,736.606 1169.47,759.455 1144.15,770.898 989.988,890.908 1043.93,837.857 1078.67,812.701 1087.87,824.45 1024.82,878.38 1093.31,812.8 1279.69,659.383 1292.58,664.032 1254.88,700.457 1197.51,746.508 1181.6,756.389 1071.48,863.168 1064.85,851.014 1003.66,904.751 969.368,929.556 908.547,980.803 945.636,933.861 997.368,884.204 1080.8,813.076 1062.74,838.111 1089.78,803.754 1127.17,775.485 1085.01,819.258 1047.99,853.914 1056.14,847.897 1162.18,746.197 1217.61,702.616 1184.86,744.682 1174.4,768.887 1141.78,793.325 1057.12,863.844 1049.34,859.687 1030.69,859.728 929.901,963.557 939.692,949.067 936.548,938.83 997.416,870.422 1105.58,785.826 1039.49,864.255 1028.9,867.081 1056.62,829.783 1009.96,885.654 982.208,904.915 1047.49,831.402 1035.38,850.683 995.538,894.444 1061.91,829.58 1041.01,857.288 1074.8,815.922 975.306,899.696 911.856,967.822 985.471,892.654 933.491,944.932 966.656,908.156 1026,877.607 1004.05,893.108 960.504,928.422 958.442,931.314 938.149,934.265 922.623,950.426 981.804,889.786 922.789,962.229 912.867,971.41 954.938,915.252 897.77,969.725 982.111,894.31 1041.91,838.641 1070.34,826.185 996.716,882.614 1057.6,835.203 1011,871.56 1058.09,836.459 1079.44,817.898 1140.48,766.497 1319.69,609.748 1286.52,666.983 1290.55,664.353 1338.6,634.406 1360.77,619.852 1296.02,675.77 1253.09,699.299 1159.88,783.385 1240.93,700.442 1145.51,777.315 1153.06,765.453 1010.97,895.97 956.083,944.324 967.528,920.19 1039.86,843.732 1049.59,833.532 1062.69,831.963 1032.63,857.945 1026.33,865.417 995.666,893.276 981.122,910.817 1014.7,870.835 1071.77,834.548 1152.8,749.195 1057.9,839.269 1009.66,886.109 981.592,909.368 1001.71,897.664 987.309,898.976 965.727,916.48 948.794,940.471 949.345,931.076 1076.08,798.071 1175.59,726.456 1192.28,723.633 1194.96,722.438 1211.38,714.871 1142.05,774.438 1215.22,701.092 1227.75,722.826 1211.88,726.032 1076.32,839.456 1006.5,897.427 976.201,917.542 957.313,923.014 941.266,936.345 866.724,1013.27 885.841,986.797 905.815,965.555 845.328,1022.02 889.532,968.33 850.917,1030.21 784.97,1094.27 809.191,1062.82 803.009,1070.05 821.82,1047.77 926.347,932.163 954.355,913.264 967.358,906.315 905.413,968.732 993.796,882.674 1002.78,878.818 959.724,925.615 962.641,919.842 926.676,961.648 854.692,1014.76 878.282,994.068 850.703,1025.79 869.725,1006.55 843.762,1029.49 816.655,1055.23 809.515,1068.28 815.362,1057.14 854.868,1012.93 826.637,1036.01 830.692,1032.04 871.532,994.307 961.366,892.188 1004.45,867.116 962.396,922.665 1034.47,843.646 1108.18,789.761 1113.49,796.332 1156.73,768.079 1103.4,823.78 1031.31,867.14 1001.54,892.809 1034.65,854.835 1102.16,790.343 1143.35,758.972 1195.28,715.378 1267.02,661.881 1352.44,597.396 1247.91,710.502 1169.81,778.658 1096.67,837.927 1032.12,889.097 984.066,922.184 946.101,953.693 1000.04,884.686 916.256,979.215 873.302,1016.83 832.282,1050.62 808.446,1069.15 837.478,1028.11 806.738,1060.79 804.569,1062.54 770.712,1101.26 828.665,1032.56 839.816,1032.64 874.403,993.163 875.366,993.53 793.134,1079.76 839.949,1028.47 864.518,1001.75 850.045,1017.36 885.933,980.849 879.753,987.575 869.895,996.113 910.742,962.006 914.296,952.359 913.5,965.02 929.882,945.221 897.756,978.218 882.488,987.271 857.637,1011.53 905.874,961.326 913.239,955.237 867.435,1008.67 885.524,978.492 847.377,1007.37 838.131,1010.86 912.285,946.576 905.774,963.111 992.37,884.77 1024.26,854.78 1038.17,844.055 967.459,919.967 1013.09,880.203 1001.51,897.756 1008.07,882.639 1095.56,784.988 1196.61,707.287 1206.83,713.788 1234.98,702.579 1255.75,688.788 1366.55,612.725 1395.27,604.524 1316.94,667.55 1337.25,639.814 1350.28,636.091 1403.69,589.19 1363.19,628.716 1342.18,641.387 1286.22,692.034 1254.07,710.551 1182.82,753.783 1201.09,727.666 1163.23,765.375 1133.14,796.813 1261.19,664.524 1189.14,752.551 1214.73,710.361 1144.87,779.237 1077.87,834.861 1085.72,814.607 1114.09,794.573 1167.71,750.767 1174.29,757.999 1225.81,706.393 1261.18,706.96 1230.2,723.009 1243.87,698.966 1203.1,724.795 1149.8,769.083 1042.42,861.028 1030.83,857.989 1020.75,864.968 1009.78,860.752 911.153,956.091 1055.84,805.965 1075.76,801.497 1075.85,806.211 987.476,887.018 1120.94,770.449 1132.15,774.973 1044.6,867.017 994.924,911.263 994.114,900.506 1028.22,863.448 982.9,914.551 980.171,913.488 1013.49,861.767 1032.98,855.614 1077.76,813.265 1047.32,846.434 1117.04,778.703 1032.83,867.035 1022.78,871.669 1037,844.961 966.814,901.411 1049,812.387 1171.86,718.081 1273.87,645.427 1337.65,609.409 1247.56,710.355 1204.04,736.95 1180.73,751.351 1214.5,713.896 1148.56,778.632 1149.14,769.262 1167.54,752.523 1189.81,744.529 1141.77,777.41 1168.88,747.943 1156.33,751.534 1236.98,705.779 1183.81,758.823 1149.5,781.031 1202.8,727.262 1128.22,796.445 1132.39,794.909 1119.62,800.966 1018.47,897.187 1030.11,866.237 1080.26,803.844 1237.64,665.163 1227.79,691.735 1256.74,676.761 1331.18,617.437 1386.23,573.62 1512.03,494.265 1531.25,485.838 1622.91,421.045 1540.35,512.909 1492.74,555.926 1580.49,463.75 1545.06,510.258 1522.37,528.311 1460.85,568.276 1361.87,655.243 1350.23,650.851 1339.38,644.417 1364.72,609.973 1306.94,668.531 1337.21,626.226 1359.32,609.169 1346.43,627.921 1371.62,605.505 1321.31,645.558 1209.66,746.008 1229.11,706.857 1201.27,736.423 1188.82,745.605 1175.91,759.232 1180.14,745.388 1125.2,794.844 1147.2,756.274 1066.77,829.669 952.967,937.615 983.543,904.212 1014.32,863.489 1012.74,866.642 1156.15,745.926 1066.93,843.734 1080.72,823.054 1062.47,848.458 1087.44,814.388 1140.73,776.172 1076.79,835.503 1082.15,838.89 1114.2,795.078 1092.98,814.578 1134.48,796.658 1164.81,754.927 1114.1,802.526 1103.17,811.39 1048.81,851.043 1070.84,828.31 1124.39,790.652 1108.34,803.962 1170.22,740.429 1228.15,694.177 1237.02,700.727 1262.81,685.239 1280.41,667.907 1331.93,612.598 1296.43,667.94 1276.68,679.405 1284.92,680.835 1172.38,776.141 1222.83,708.821 1242.34,695.596 1384.14,590.201 1363.36,618.474 1302.77,678.981 1145.58,811.849 1134.65,796.362 1101.79,815.959 1072.01,836.279 1056.82,844.26 983.091,921.09 937.312,954.155 893.371,992.911 943.811,929.299 985.016,887.368 1040.74,844.342 1082.09,798.256 1096.32,810.353 1061.91,844.876 988.065,916.896 993.078,899.962 1028.46,860.858 1061.67,824.172 1080.44,824.896 1056.8,852.894 1054.15,848.633 1004.22,899.741 1052.72,844.299 1081.39,823.695 1085.68,822.685 1106.3,800.464 1084.85,825.824 1099.94,808.579 1196.15,710.301 1236.67,687.192 1210.04,726.3 1187.27,748.939 1162.27,762.746 1164.94,762.902 1222.68,703.78 1257.76,678.663 1234.52,706.08 1135.84,784.975 1159.8,762.016 1111.08,807.154 1099.17,809.639 1106.23,796.723 1126.12,775.84 1103.18,809.936 1120.55,794.177 1116.48,792.169 1117.58,791.055 1249.31,677.424 1274.67,664.583 1294.48,655.855 1308.64,648.615 1306.73,654.968 1302.28,666.096 1349.13,616.045 1277.04,683.985 1216.76,734.198 1255.54,697.531 1324.09,635.795 1272.94,692.842 1141.49,800.279 1110.78,818.899 1083.07,825.731 1126.14,781.223 1170.16,746.52 1179.29,745.582 1235.93,692.965 1334.48,622.205 1395.24,574.318 1434.97,550.065 1397.3,596.836 1403.54,590.164 1354.56,632.505 1333.4,644.615 1247.91,722.54 1205.6,750.82 1123.69,817.522 1064.22,858.259 1022.81,886.019 1003.11,898.989 971.507,922.599 997.98,885.874 958.416,927.513 1013.89,864.171 987.744,887.403 1002.45,876.398 1063.44,824.349 1114.28,790.243 1261.11,655.926 1291.99,655.433 1328.57,635.373 1446.49,560.478 1368.08,627.157 1476.16,533.274 1487.33,559.648 1449.5,582.198 1517.26,509.217 1558.49,493.403 1477.99,557.429 1429.34,585.616 1396.13,608.137 1295.85,698.015 1205.3,765.049 1124.12,827.116 1135.88,795.809 1098.59,823.665 1100.83,811.42 1121.31,786.829 1110.62,792.428 1086.17,822.659 1121.81,777.783 1171.17,729.013 1121.19,785.56 1175.48,733.875 1178.19,745.23 1024.02,883.088 961.283,939.59 1001.52,881.819 966.814,912.977 994.919,887.05 984.23,896.546 991.096,884.557 953.817,920.316 990.543,896.832 1028.86,860.282 956.941,933.67 911.538,960.475 871.175,1004.11 906.794,977.089 975.763,903.78 1072.52,806.231 1079.51,811.791 1160.94,757.559 1125.69,779.236 1191.6,738.153 1155.41,774.096 1086.92,829.619 1101.45,812.151 1126.51,783.571 1120.34,792.383 1083.46,823.469 1171.75,739.929 1076.49,839 1116.87,790.824 1094.6,800.78 1082.7,805.562 1022.55,869.703 1034.08,878.995 1109.23,796.872 1203.43,724.88 1254.08,679.074 1210.63,725.523 1245.32,720.69 1231.73,722.068 1206.85,736.142 1139.8,777.846 1152.75,765.364 1129.37,783.72 1081.67,832.349 1115.41,803.394 1139.05,784.478 1148.97,769.611 1081.94,823.815 1122.17,777.973 1093.26,794.632 1123.07,790.929 1057.38,853.691 1012.35,889.688 1085.57,817.034 985.194,911.398 993.543,901.941 935.319,951.97 950.009,932.375 922.924,966.512 904.883,979.427 872.811,1006.02 855.979,1020.98 829.536,1040.53 830.285,1040.23 928.299,931.306 1011.9,856.683 1041.73,832.637 1061.48,831.275 1036.11,858.533 1118.39,783.628 1067.34,838.63 1065.33,845.986 1010.52,899.34 1038.93,855.269 1097.57,796.332 1154.26,755.176 1042.5,855.1 993.101,905.337 982.922,899.411 1025.5,855.792 1065.46,822.092 1194.52,719.682 1248.45,683.059 1191.16,748.468 1245.37,694.61 1167.66,766.938 1153.24,772.149 1022.46,890.066 989.914,909.199 969.559,916.318 963.769,919.636 1055.65,842.794 1067.65,829.608 1074.44,821.553 1148.29,750.026 1157.51,750.986 1168.38,743.957 1155.64,762.029 1142.66,777.618 1162.54,765.909 1182.9,748.469 1107.88,815.698 1137.76,771.755 1067.97,851.503 1069.99,838.125 1138.98,770.472 1191.46,751.809 1198.06,737.481 1220.72,717.621 1146.24,766.057 1227.86,692.637 1304.58,632.817 1212.24,727.279 1278.94,648.789 1173.7,734.967 1217.78,711.954 1214.9,708.644 1110.6,817.679 1088.73,819.802 1080.14,823.757 1003.77,897.357 882.582,1007.01 871.96,1010.08 894.626,983.032 948.8,922.278 1002.01,877.61 1050.82,832.772 1138.27,753.732 1167.16,739.837 1160.51,764.088 1189.7,741.108 1272.6,671.017 1293.02,649.511 1338.45,618.039 1206.37,749.639 1200.52,722.007 1150.94,780.919 1139.14,780.259 1206.25,709.506 1215.82,708.708 1215.39,706.765 1131.1,787.701 1081.31,818.856 1051.67,848.018 1005.79,892.683 1048.14,844.289 1071.25,826.157 1097.02,795.643 1156.33,740.837 1186.28,725.939 1188.26,733.839 1141.54,780.485 1190.19,737.299 1112.06,812.562 1025.87,882.677 985.089,912.252 971.254,922.47 1025.92,872.705 995.585,892.56 991.672,897.56 1102.22,810.28 1156.93,765.335 1118.34,800.923 1022.69,883.149 1010.02,885.732 1012.98,871.343 924.542,959.538 911.279,972.334 871.826,996.187 902.106,962.79 878.602,992.885 914.357,950.226 822.391,1052.99 850.473,1012.2 867.081,999.4 862.44,1009.47 919.164,952.343 909.737,956.873 954.717,930.327 963.967,913.074 945.449,947.621 908.571,980.01 882.851,996.229 949.545,928.306 966.326,920.731 1000.18,871.89 974.068,905.186 1043.62,835.957 1162.19,737.688 1101.86,814.242 1057.16,854.534 1076.79,827.578 1116.74,787.331 1004.45,887.856 912.789,965.58 890.489,994.536 881.163,1005.25 816.245,1063.13 859.29,1005.04 870.077,995.297 897.009,974.269 941.596,932.137 991.476,872.364 1087.84,790.449 1137.84,751.008 1095.19,805.484 1035.99,861.31 1075.76,833.584 970.581,933.185 941.449,954.917 909.171,971.254 949.221,923.23 955.588,918.539 957.626,920.376 1038.96,826.74 1052.67,836.461 1079.91,811.694 1084.87,811.392 1135.33,768.139 1159.15,752.78 1247.34,671.326 1360.49,599.035 1391.32,594.203 1419.97,574.907 1415.6,576.48 1336.47,644.981 1256.59,713.328 1274.09,681.777 1194.68,746.859 1108.46,831.627 1178.28,739.687 1237.91,678.633 1211.51,713.208 1221.36,719.746 1267.16,666.02 1206.92,718.093 1226.73,711.44 1260.29,697.166 1179.46,749.001 1201.32,726.639 1096.71,821.862 1123.53,784.88 1140.16,775.709 1218.53,708.667 1091.98,821.683 1029.89,872.445 997.622,893.836 980.253,906.943 877.603,1002.16 910.038,957.49 977.748,891.507 955.643,926.476 918.75,964.414 967.399,908.238 951.194,925.646 843.602,1033.34 772.734,1102.31 781.896,1087.42 808.974,1056.52 726.545,1154.97 782.855,1072.93 828.793,1026.09 842.372,1015.52 914.066,936.52 978.902,881.534 901.373,976.06 937.732,929.6 962.717,906.659 1029.43,849.478 1065.02,830.14 1051.84,847.153 1100.44,807.506 1106.41,796.494 1144.98,784.18 1133.38,791.318 1111.26,813.279 1060.18,852.7 1094.21,814.992 1156.15,744.35 1107,810.682 1061.5,853.945 1018.99,892.434 963.654,943.159 953.542,944.832 938.346,955.007 985.377,894.418 951.588,931.225 997.8,882.252 965.541,915.037 941.992,942.17 922.865,960.291 1044.53,828.704 1078.52,813.005 1084,821.634 1088.69,823.241 1141.96,789.586 1144.94,782.695 1158.2,763.923 1065.03,841.538 1006.88,906.263 998.775,895.794 1070.15,817.181 1062.99,833.622 998.363,906.978 971.492,923.782 955.518,935.16 943.789,942.761 988.769,892.069 943.305,940.748 887.25,993.364 876.8,1008.1 873.802,1005.92 932.217,937.715 945.166,931.871 975.457,909.104 1088.07,798.489 1059.42,838.523 1102.96,820.297 1074.98,832.108 1130.36,782.371 962.551,934.86 1055.96,830.992 1130.14,782.065 1135.58,784.329 1187.56,736.992 1154.48,773.835 1211.23,709.385 1289.38,636.434 1435.24,532.105 1470.1,528.695 1577.23,467.054 1710.36,387.607 1754.6,375.615 1688.82,428.122 1764.19,358.867 1698.05,413.621 1613.82,480.643 1522.1,550.306 1547.56,511.816 1554.34,502.365 1527.56,521.533 1524.08,517.404 1535.83,504.377 1477.15,557.199 1493.51,537.946 1516.03,513.366 1510.64,515.716 1390.05,632.306 1331.09,670.525 1310.27,670.845 1336.17,632.811 1300.09,669.67 1230.2,724.529 1230.87,714.932 1275.28,667.925 1233.96,714.006 1304.92,645.432 1382.98,577.791 1366.31,603.385 1344.44,633.257 1237.19,722.375 1257.49,696.34 1258.84,686.178 1241.36,702.766 1225.84,702.012 1152.58,779.498 1112.93,808.279 1110.23,801.171 1040.55,866.77 1003.37,890.079 995.498,888.25 1018.92,858.737 1064.38,821.273 1048.13,848.809 1050.43,852.529 958.203,941.15 970.973,914.011 977.617,900.954 982.711,896.324 1063.71,826.41 1100.25,793.002 1218.12,696.069 1300.19,636.562 1309.82,647.665 1253.56,707.028 1311.14,652.022 1204.47,747.991 1219.99,721.148 1148.97,796.629 1120.53,817.162 1100.68,824.741 1056.49,853.681 1042.37,856.607 1048.69,852.093 1031.78,855.105 1090.88,798.142 1066.9,828.521 1029.88,867.952 1068.57,839.789 1118.52,784.179 1117.19,785.675 1158.57,762.19 1171.34,751.581 1194.02,728.271 1198.83,732.218 1194.98,737.948 1122.63,799.164 1098.91,808.323 1091.16,818.373 1057.65,843.666 1053.66,842.682 1097.01,799.985 1082.85,808.029 1059.31,836.488 1071.43,827.547 1060.9,839.083 1112.39,791.578 1177.28,739.627 1178.87,743.073 1157.41,779.062 1091.52,840.912 967.976,953.152 885.975,1019.71 888.907,993.6 945.36,928.114 920.222,960.769 938.076,937.669 975.65,902.746 1052.42,827.18 1034.33,856.312 1015.76,875.912 1060.32,847.281 1140.96,768.596 1199.67,726.929 1190.72,731.784 1086.3,829.098 1038.94,863.878 1012.23,889.674 999.939,889.499 1004.51,876.212 967.509,909.443 1014.02,866.497 1049.77,837.12 1101.89,798.574 1058.81,840.827 1021.77,863.224 1088.75,801.14 1115.62,792.944 1073.54,842.474 1047.47,853.866 1023.49,885.366 981.908,917.931 997.02,893.991 1035.93,852.067 1013.99,878.139 1077.58,811.946 1056.18,838.465 1020.54,880.408 1097.83,790.07 1241.95,668.288 1260.58,665.828 1223.06,713.457 1187.41,747.416 1211.66,725.115 1158.93,770.652 1069.07,854.265 1039.01,870.79 1080.55,815.001 1064.97,837.24 1121.14,782.695 1221.9,688.23 1280.21,643.936 1321.13,623.817 1298.45,667.972 1362.8,609.849 1236.83,715.075 1178.64,760.514 1146.24,784.143 1156.56,761.557 1036.21,869.024 1030.79,876.343 1010.16,886.336 1010.87,882.193 1026.51,864.974 1016.01,879.005 1025.74,859.782 1022.75,872.267 1015.46,877.38 1035.41,878.864 964.163,937.476 964.719,919.444 970.022,911.132 967.693,912.998 1106.52,785.705 1180.49,728.025 1119.04,785.896 1173.79,740.793 1254.42,665.849 1297.79,642.953 1322.37,639.882 1276.47,686.516 1327.96,625.009 1227.67,698.653 1170.31,756.245 1159.01,759.327 1148.83,778.643 1213.27,703.749 1169.59,755.473 1015.74,893.679 950.709,955.819 936.909,950.536 1013.43,868.224 1022.23,873.896 1010.08,882.64 972.865,922.611 1061.05,831.97 1042.44,843.541 949.487,946.481 924.219,963.902 1006.12,880.629 958.123,913.459 983.464,899.036 968.423,919.667 1028.77,849.818 1052.54,811.841 1004.41,857.916 976.471,899.874 937.032,938.209 967.561,917.161 1054.9,841.682 974.234,912.103 1038.18,837.072 969.782,904.637 1016.54,860.124 1163.9,734.313 1212.41,704.134 1247.55,670.412 1205.32,730.94 1190.96,748.7 1244.48,702.647 1229.2,710.346 1245.52,692.911 1258.65,669.919 1284.94,661.156 1500.69,492.885 1391.4,597.631 1471.94,546.647 1408.16,594.098 1258.68,715.398 1193.44,754.731 1163.59,768.488 1146.38,779.143 1209.72,710.209 1202.06,717.901 1287.26,658.196 1377.19,587.986 1441.11,545.312 1448.16,540.58 1483.19,536.936 1523.41,519.525 1472.51,548.283 1426.74,579.688 1412.85,588.646 1392.44,607.259 1257.16,720.928 1194.96,769.208 1153.37,789.112 1067.53,860.183 1028.95,887.116 987.543,919.251 980.194,915.423 931.708,958.611 943.953,935.22 1022.52,846.661 1082.86,791.506 1171.43,719.47 1238.69,675.366 1288.76,641.684 1255.73,692.068 1197.31,737.953 1291.9,641.787 1204.09,733.54 1135.37,783.464 1154.7,770.66 1197.71,740.082 1172.16,770.897 1105.17,822.939 1034.52,881.667 953.059,957.17 899.426,996.903 913.259,964.243 935.027,938.321 952.149,922.53 899.51,979.494 920.951,949.13 971.397,896.203 1045.8,826.959 1115.24,776.565 1136.58,764.175 1103.84,801.882 1090.46,824.138 1148.93,780.78 1076.32,851.926 1124.24,793.315 1059.92,852.234 1152.35,780.548 1095.76,815.952 1047.46,866.858 1047.3,853.747 971.707,920.506 941.903,940.52 892.474,983.443 892.945,984.764 876.232,1000.69 868.047,1007.67 925.382,948.59 960.348,913.273 912.421,964.146 1050.34,827.216 1083.42,813.037 1124.79,775.192 1055.32,848.694 1099.69,832.238 1153.15,766.133 1014.61,887.481 985.355,905.89 886.138,1011.36 886.198,992.717 831.277,1049.7 860.148,1007.72 890.693,978.472 926.361,940.33 994.26,880.508 975.511,914.016 1035.95,858.038 1125.84,776.982 1017.45,873.758 968.396,924.508 1020.87,862.799 1054.91,831.621 1236.11,672.463 1291.55,646.232 1321.37,629.879 1271.58,674.125 1345.3,609.657 1312.52,647.148 1184.28,774.647 1127.85,801.01 1163.27,758.158 1134.74,785.569 1183.07,733.611 1150.86,769.19 1183.81,754.639 1249.73,688.43 1347.55,616.366 1432.5,554.814 1305.59,678.615 1281.47,687.419 1238.36,715.938 1215.77,727.464 1136.46,793.064 1153.75,771.555 1110.95,817.583 1110.35,805.226 1065.18,853.086 1030.56,872.257 1033.83,862.224 1063.14,824.043 1082.19,810.24 1248.41,659.54 1299.36,628.825 1389.86,561.466 1380.39,599.673 1314.29,666.356 1366.57,602.454 1426.26,543.107 1438.59,567.303 1368.13,624.248 1224.99,742.229 1160.31,786.343 1217.41,720.227 1185.08,744.791 1109.59,821.443 1156.98,762.226 1208.04,710.375 1219.89,707.636 1244.83,714.981 1224.69,708.834 1212.33,728.254 1227.82,716.056 1257.23,677.441 1254.26,683.175 1237.33,696.885 1131.68,802.042 1197.49,738.821 1087.42,839.551 1044.53,866.152 1065.26,840.893 1080.3,818.327 1126.57,784.782 1258.65,665.397 1285.75,652.117 1279.96,660.786 1268.7,675.453 1318.18,628.299 1352.51,617.445 1276.72,689.519 1265.68,687.079 1180.14,748.688 1208.66,714.656 1131.86,784.292 1127.53,790.369 1192.31,736.774 1172.63,753.18 1208.86,725.003 1267.6,681.471 1169.45,745.466 1181,734.482 1340.75,605.864 1300.94,659.154 1230.22,717.014 1226.7,713.1 1167.71,760.664 1183.6,739.182 1247.57,676.371 1272.28,669.362 1281.88,672.471 1384.68,588.078 1421.65,559.895 1501.81,525.383 1481.77,549.793 1523.03,528.337 1585.55,471.725 1550.38,510.262 1518.93,527.709 1536.31,510.134 1535.78,519.325 1479.58,550.346 1472.7,547.919 1437.74,573.232 1377.75,627.45 1373.79,619.529 1363.22,617.09 1321.9,649.167 1294.58,673.348 1327.17,635.064 1308.86,653.097 1279.54,680.286 1247.78,699.48 1172.27,772.161 1201.31,730.768 1164.66,764 1148.74,783.903 1119.52,789.932 1158.85,746.68 1221.71,689.822 1271.93,660.137 1177.07,764.407 1163.6,771.398 1211.21,719.447 1229.57,700.858 1285.84,656.811 1321.15,636.6 1346.54,621.522 1189.97,770.996 1136.98,797.216 1111.63,810.311 1138.8,784.843 1082.76,827.43 1020.06,886.029 994.597,903.541 979.31,917.055 929.744,963.612 886.884,1001.05 929.306,944.303 878.267,999.324 924.285,931.248 935.256,925.57 934.384,934.163 923.822,955.058 881.446,997.171 823.087,1055.19 801.596,1072.56 769.576,1106.06 806.769,1052.91 890.425,966.375 885.868,983.779 864.418,1003.3 847.985,1017.7 804.907,1066.42 812.38,1056.81 812.547,1052.47 852.654,1010.99 820.407,1046.07 828.681,1034.88 825.939,1036.74 821.026,1046.58 762.493,1108.74 744.503,1123.49 794.189,1061.16 821.117,1041.97 923.456,939.47 960.442,906.012 945.15,922.426 979.545,897.932 1004.7,873.103 962.921,913.264 1064.04,831.055 964.364,935.42 903.221,979.583 935.82,937.527 904.373,976.782 920.088,955.341 971.918,903.994 972.539,905.486 971.108,905.165 871.253,1008.84 866.834,1010.11 855.625,1017.12 789.459,1086.13 782.043,1095.06 809.521,1052.73 792.883,1071.57 800.181,1064.72 836.385,1029.83 848.622,1016.07 782.101,1093.27 817.666,1055.58 846.955,1020.43 842.864,1023.64 844.606,1023.28 881.525,982.45 885.681,975.389 935.715,922.289 944.218,924.759 949.109,929.841 988.06,885.848 1009.23,870.336 964.246,915.263 997.698,882.386 949.206,935.732 825.916,1051.83 786.821,1082.04 815.613,1047.63 808.373,1061.83 811.757,1055.67 785.191,1096.53 776.941,1097.14 734.09,1140.21 704.953,1170.69 697.059,1178.01 723.524,1134.1 774.102,1086.96 831.814,1032.49 848.739,1011.14 928.643,933.632 978.028,895.352 1027.44,849.542 945.907,942.504 1035.46,846.545 1117.91,773.162 1141.57,758.124 1177.96,742.77 1210.01,724.245 1124.03,815.507 1136.04,793.852 1148.56,769.263 1024.05,871.45 1069.31,828.241 1096.06,817.41 1162.52,768.225 1143.23,783.902 1177.6,742.775 1087.98,814.985 1089.79,802.257 1112.96,801.497 1025.25,870.164 1042.08,849.006 1067.66,819.324 1107.6,783.039 1135.51,769.413 1142.53,767.07 1084.61,818.686 1118.21,794.757 1195.25,711.82 1104.79,819.353 1077.33,833.419 1044.09,854.971 1148.67,761.415 1204.83,722.197 1279.75,663.15 1163.9,746.046 1124.69,782.196 1030.42,874.176 1075.93,829.824 1063.3,834.377 1130.58,768.558 1246.89,688.101 1175.09,753.163 1312.88,644.515 1252.25,708.741 1151.41,795.048 1227.96,710.294 1367.39,580.143 1365.93,605.647 1398.81,580.354 1379.55,599.619 1357.58,630.272 1357.16,621.467 1292.72,681.211 1253.11,708.035 1250.6,694.608 1246.48,703.275 1287.48,669.422 1324.52,632.173 1360.47,626.938 1376.98,615.048 1202.44,771.613 1195.44,754.286 1253.46,684.874 1315.63,630.759 1373.1,600.451 1398.88,580.176 1415.79,568.416 1355,623.375 1285.2,680.642 1204.93,745.761 1155.62,779.147 1169.45,747.039 1177.21,740.793 1194.58,727.246 1224.52,712.003 1172.38,757.164 1130.3,785.346 1143.37,761.836 1161.82,757.77 1189.62,716.416 1230.83,724.627 1078.94,850.674 1156.54,760.767 1165.5,757.623 1191.62,739.722 1243.71,695.391 1280.28,666.843 1311.99,669.48 1237.81,713.366 1154.74,769.838 1122.88,796.845 1074.81,840.164 1119.81,793.284 1122.09,791.339 1123.74,775.822 1104.8,812.997 1195.7,713.938 1186.54,719.723 1205.51,717.002 1174.73,742.936 1219.11,717.738 1291.5,649.809 1506.57,477.22 1535.16,486.867 1431.38,583.937 1454.7,551.363 1410.02,599.961 1450.34,557.328 1565.23,474.197 1506.45,538.052 1400.01,618.422 1335.78,663.911 1250.63,730.669 1190.88,769.394 1192.93,753.705 1206.4,728.826 1245.01,680.201 1281.64,656.967 1288.07,666.042 1253.82,696.193 1225.04,722.925 1228.51,718.062 1296.72,653.711 1207.21,750.368 1106.76,838.934 1095.34,824.835 1021.71,895.107 1083.43,829.952 1078.38,840.26 1091.8,826.661 1070.5,839.918 1069.19,836.135 1052.34,848.174 1077.1,836.21 1220.42,693.478 1106.96,792.285 1151.38,762.023 1219.51,707.03 1153.53,748.918 1175.78,761.814 1158.19,758.494 1124.5,789.995 1172.59,733.84 1266.9,673.86 1258.53,692.21 1281.6,655.438 1169.68,749.315 1241.36,694.154 1156.86,770.949 1244.64,686.748 1212.78,740.658 1268.62,676.443 1404.98,583.901 1246.92,708.344 1222.68,728.166 1243.17,704.486 1229.37,704.446 1294.53,657.077 1222.31,719.799 1268.85,671.106 1278.52,680.386 1285.49,675.358 1277.81,679.488 1195.99,736.407 1160.04,773.335 1122.93,796.024 1181.18,736.047 1241.66,693.331 1255.34,687.673 1396.59,567.29 1416.85,560.238 1481.49,530.305 1408.11,606.591 1566.35,470.825 1408.8,607.061 1335.01,660.878 1267.52,708.993 1150.69,804.127 1134.7,800.3 1074.68,846.74 1070.74,838.231 1016.85,890.6 985.677,914.695 1014.19,873.867 1020.51,864.516 1097,791.023 1010.04,884.856 911.88,978.128 928.931,952.524 944.15,934.228 932.155,950.26 976.937,893.358 951.895,926.715 888.629,998.195 921.02,958.922 913.663,961.391 982.569,885.846 1145.65,736.071 1245.45,658.498 1268.5,663.496 1315.41,637.261 1283.63,675.964 1185.59,763.257 1094.73,839.905 1092.61,828.042 1058.71,846.669 1054.45,843.033 1032.73,870.858 1078.5,818.292 1094.49,798.734 1099.42,790.981 1047.51,844.404 1070.88,825.403 1213.67,713.749 1177.01,748.479 1215.35,713.387 1312.56,627.903 1372.33,591.446 1401.43,577.055 1362.83,617.46 1384.89,599.75 1282.68,690.536 1198.95,745.692 1200.83,731.08 1220.93,709.549 1179.97,748.324 1225.02,702.703 1286.06,662.314 1281.36,670.566 1249.17,706.773 1177.8,767.147 1207.98,728.027 1124.41,794.079 1178.03,745.537 1110.3,807.314 1091.18,811.783 1095.01,802.493 1083.06,819.769 1093.83,804.482 1040.59,852.733 1081.95,820.347 1115.79,784.052 1097.57,813.165 1015.31,889.429 1011.23,896.751 1041.65,865.066 964.398,934.839 927.771,959.214 938.002,935.866 980.453,892.533 1079.51,800.387 1061.71,825.659 1103.62,799.812 1070.01,847.302 1000.1,905.116 935.751,961.85 884.096,1011.74 886.35,994.611 866.034,1017 860.283,1016.2 933.608,927.594 817.285,1060.61 851.5,1013.85 881.738,983.297 897.945,980.25 923.711,951.189 931.721,948.501 1011.5,864.787 984.578,902.707 1057.14,832.697 1084.46,807.486 1165.68,759.492 1209.56,720.624 1088.77,827.582 1073.48,838.459 1192.29,739.25 1209.67,715.097 1231.13,707.817 1260.36,684.838 1198.3,733.953 1208.72,729.822 1096.96,833.849 1094.1,831.677 1009.07,907.847 929.855,969.931 885.909,1008.86 844.37,1041.72 836.696,1041.83 811.479,1064.58 798.948,1069.43 800.752,1064.31 855.769,1001 877.74,987.158 884.218,986.047 843.338,1030.91 828.847,1048.75 838.217,1026.39 869.275,1005.32 902.566,962.54 909.236,958.241 917.653,956.371 944.734,931.533 985.902,889.683 1099.44,792.797 1106.77,798.004 1137.31,775.102 1229.96,701.622 1336.19,618.03 1431.61,544.372 1494.63,510.654 1534.57,494.695 1416.39,604.921 1347.42,647.196 1324.7,663.949 1299.68,674.3 1210.12,742.369 1182.34,758.632 1170.86,763.469 1166.73,761.85 1163.41,759.183 1153.71,757.383 1247.28,673.653 1275.31,663.085 1322.45,643.07 1292.76,668.579 1297.15,666.569 1273.76,695.415 1238.16,715.939 1267.08,692.545 1200.14,733.992 1250.05,681.567 1156.8,779.463 1136.99,793.482 1156.81,771.973 1121.97,797.959 1125.43,786.175 1084.74,832.675 1103.94,801.854 1110.85,789.46 1118.52,781.356 1044.86,865.817 1081.85,837.373 1143.93,789.521 1154.11,771.384 1075.82,836.857 1066.3,851.428 1016.77,891.796 972.387,930.16 1010.46,871.855 1070.41,829.894 1124.34,784.301 1123.55,793.628 1016.08,877.68 970.565,915.566 967.285,917.357 943.199,939.966 973.047,905.193 934.99,956.646 853.609,1029.07 909.407,960.097 914.613,959.349 989.642,884.78 1006.18,860.487 970.592,900.272 1040.75,825.303 1097.96,799.203 1133.43,774.07 1063.19,852.354 1082.28,820.825 1052.28,854.513 990.272,908.842 1020.44,870.248 1036.87,850.433 1111.63,781.314 1062.02,841.998 1058.04,847.875 1086.65,815.617 1034.56,866.233 979.331,920.832 1007.29,881.421 949.751,935.117 925.674,963.516 882.127,1000.33 866.481,1013.13 842.891,1036.12 887.69,979.11 963.858,914.096 1023.35,854.697 997.623,889.667 1006.06,888.91 1073.05,828.328 1029.5,856.583 893.689,979.58 828.595,1048.68 870.471,984.958 924.286,949.64 1041.03,829.509 1025.4,867.575 1069.76,823.089 1110.02,802.024 1146.04,770.954 1131.01,784.339 1181.34,743.941 1162.18,764.423 1108.44,805.99 1109.18,796.045 1155.15,758.451 1249.76,671.435 1184.87,749.409 1240.06,717.755 1282.49,674.945 1309.66,645.332 1248.76,701.967 1168.41,758.257 1101.98,824.72 1119.29,800.7 1126.54,780.327 1129.19,781.469 1075.92,810.616 994.085,891.6 1000.42,883.266 1028.39,866.543 1054.96,849.891 1180.59,737.636 1152.22,771.137 1219.6,715.809 1201.21,751.977 1173.72,770.737 1144.14,782.846 1154.23,760.43 1121.94,788.986 1162.76,752.799 1001.18,893.847 1028.45,860.005 1052.11,845.081 1108.81,797.359 1117.09,797.147 1043.62,857.896 1047.07,855.842 1138.08,754.909 1199.07,713.263 1172.83,747.863 1212.57,710.511 1100.44,818.341 1195.22,732.142 1254.85,697.743 1203.99,732.08 1209.47,728.613 1248.47,674.196 1287.98,665.421 1247.44,694.445 1243.9,708.003 1333.82,637.565 1546.45,460.846 1473.56,546.038 1554.22,472.582 1471.93,548.135 1368.82,640.969 1297.22,690.678 1281.66,686.855 1359.49,605.098 1283.58,684.037 1259.93,700.133 1179.3,759.391 1211.09,718.361 1150.54,778.098 1190.21,732.131 1196.92,716.892 1263.75,669.545 1348.32,593.271 1399.92,577.391 1417.51,561.347 1485.03,512.005 1502.96,507.804 1560.67,480.687 1484.13,554.037 1485.6,550.607 1429.25,584.83 1517.64,495.478 1488.1,528.567 1580.85,445.207 1548.68,503.297 1365.7,660.906 1348.27,654.361 1269.88,709.016 1253.31,712.134 1174.92,775.947 1157.21,778.178 1220.37,706.659 1290,644.723 1310.46,632.831 1378.37,593.175 1471.57,518.845 1437.04,573.644 1478.07,538.842 1364.24,629.598 1314.12,662.939 1243.43,717.557 1234.11,717.484 1270.88,675.164 1241.64,701.059 1183.64,752.131 1202.92,732.227 1190.71,742.725 1205.68,724.812 1152.34,773.306 1020.01,895.842 994.284,903.121 967.212,923.765 982.917,900.172 974.702,904.028 920.988,962.126 903.724,968.659 1015.3,857.708 1103.99,775.577 1079.24,824.122 1190.62,712.888 1268.9,666.753 1262.87,682.723 1344.95,613.263 1362.6,599.689 1379.05,597.758 1350.46,631.99 1318.84,640.985 1411.98,562.689 1377.84,598.78 1390.96,589.74 1531.6,480.009 1512.52,523.803 1414.11,599.541 1410.31,595.252 1333.65,660.282 1313.33,666.844 1251.42,716.082 1265.36,689.622 1230.94,716.62 1162.4,782.897 1184.91,750.734 1234.38,702.439 1218.17,717.268 1257.62,686.293 1357.7,613.731 1435.48,555.855 1381.71,616.246 1385.65,603.907 1443.73,558.17 1412.53,581.835 1300.55,680.423 1179.54,779.087 1194.31,745.701 1133.51,792.426 1141.99,768.704 1142.81,766.296 1242.25,672.312 1312.18,616.866 1303.14,644.557 1314.2,635.26 1437.95,542.424 1372.24,612.133 1339.57,644.624 1316.9,650.986 1270.78,697.941 1180.51,770.948 1108.87,831.349 1096.07,825.122 1041.8,870.498 984.942,920.687 994.534,902.081 988.636,903.715 917.952,970.99 945.153,933.06 896.509,984.944 930.121,950.643 879.487,1001.83 882.83,992.507 881.287,985.152 984.282,871.519 991.217,884.516 1112.85,766.174 1074.89,820.526 1038.42,861.327 1008.31,877.629 973.726,910.374 986.549,888.945 1010.09,871.279 1068.67,825.06 1182.57,733.873 1196.7,730.939 1217.57,720.083 1159.4,767.014 1286.29,653.724 1196.99,738.104 1137.71,787.667 1087.59,815.004 979.653,922.148 977.364,924.091 1015.45,867.479 1003.96,885.894 962.878,929.752 951.772,935.309 877.404,993.46 928.185,943.981 1020.69,863.479 998.54,893.106 1087.44,800.347 1153.75,748.496 1116.09,798.443 1081.63,829.215 1069.83,833.26 1054.06,846.942 984.843,904.883 938.618,951.712 991.628,884.16 984.452,900.252 984.162,902.944 978.957,910.034 1025.91,873.172 1023.18,878.347 970.875,907.58 960.935,919.218 1074.06,810.873 1108.78,779.384 1113.53,783.593 1155.35,762.379 1278.32,666.723 1292.13,668.435 1284.41,682.788 1360.19,611.299 1334.21,633.754 1314.79,643.01 1216.97,725.676 1274.32,675.995 1238.29,722.485 1324.71,638.163 1446.23,546.095 1428.17,561.975 1428.99,575.06 1411.85,594.005 1376.58,615.863 1401.89,591.947 1449.78,543.404 1500.74,511.188 1496.41,528.237 1509.41,510.422 1399.41,602.889 1410.36,580.511 1387.29,594.479 1328.08,655.693 1242.59,720.549 1219.24,731.337 1154.38,786.189 1122.22,804.66 1101.97,806.915 1080.01,830.656 1012.57,891.954 965.317,931.156 920.946,969.737 935.9,944.616 889.165,992.733 883.504,993.526 891.271,980.507 869.802,1008.63 852.04,1019.1 862.643,1005.46 819.216,1049.47 782.77,1085.19 759.725,1105.65 782.001,1083.28 838.634,1026.04 861.188,1006.56 972.387,893.604 953.062,927.044 946.319,931.538 980.927,903.607 1107.63,789.913 1142.5,758.892 1137.98,769.757 1141.12,778.202 1212.09,712.747 1083.92,831.686 1121.26,815.776 1081.17,846.951 1147.35,758.147 1070.63,825.921 1092.58,813.724 1161,736.478 1145.72,765.057 1058.65,844.254 1037.39,871.856 1121.24,781.35 1085.57,822.979 934.317,950.626 923.568,954.278 882.199,1002.13 896.929,977.499 911.059,969.355 933.539,939.621 863.916,1004.24 890.467,971.48 836,1024.57 781.553,1082.93 782.019,1089.08 825.912,1045.06 800.126,1070.29 752.256,1118.7 748.812,1116.53 798.517,1058.15 759.828,1107.07 799.403,1060.14 847.275,1018.63 877.194,980.346 910.251,952.945 929.467,936.362 970.6,900.704 995.323,883.207 1016.3,863.913 1133.99,761.523 1164.98,753.35 1121.39,802.973 1133.32,782.977 1075.16,827.87 1066.96,839.218 965.06,932.05 1014.01,869.301 939.091,955.736 912.736,977.502 920.966,963.991 892.743,989.204 905.929,965.409 888.322,989.88 850.845,1029.57 853.689,1019.54 857.435,1009.44 899.391,971.417 888.791,979.483 945.82,920.839 940.103,934.435 948.889,931.817 987.449,899.974 1053.51,838.045 965.624,922.959 949.405,924.909 1037.63,836.592 973.125,910.977 979.771,899.33 964.776,916.545 943.298,932.878 1006.19,881.896 987.832,891.054 1070.74,839.02 1008.57,895.701 1098.36,811.849 1106.52,795.011 1156.17,745.308 1175.68,741.416 1146.75,779.088 1134.2,787.36 1093.82,815.948 1155.33,770.515 1221.5,705.288 1225.11,730.939 1205.45,735.658 1151.94,780.297 1149.62,776.939 1146.64,770.827 1203.58,711.95 1136.89,753.308 1241.35,679.619 1320.1,634.586 1303.77,667.415 1386.48,602.585 1359.5,614.459 1423.54,574.857 1404.67,588.632 1432.16,570.912 1418.93,586.961 1257,727.336 1216.53,745.269 1124.25,816.649 1113.39,809.58 1022.59,890.272 1020.43,878.757 1040.4,857.361 976.902,917.676 955.556,932.207 933.871,953.233 930.57,948.553 944.496,933.024 942.776,943.664 952.546,931.508 1000.74,879.137 926.133,948.236 1034.68,842.285 1036.1,845.126 1036.96,848.995 1016.34,866.766 943.201,934.674 882.359,993.676 835.566,1033.33 963.202,908.763 1042.43,836.042 1036.78,874.6 1066.19,833.481 1027.84,874.384 1022.5,866.659 987.034,905.8 999.71,892.699 1000.38,873.875 1085.73,804.506 1101.32,803.4 1112.54,799.822 1160.03,733.206 1167.32,741.45 1195.08,733.61 1296.09,644.59 1410.79,573.649 1316.91,650.415 1267.54,679.322 1281.15,682.577 1286.25,686.62 1336.06,648.852 1405.95,585.504 1420.88,576.793 1378.08,610.055 1377.96,612.458 1303.86,660.469 1224.07,733.935 1175.26,759.372 1200.22,725.473 1326.75,610.781 1305.36,652.339 1346.83,620.531 1287.68,680.503 1279.72,681.643 1291.49,675.433 1323.5,641.145 1438.61,553.965 1407.37,582.404 1322.61,674.245 1249.22,722.455 1180.94,776.366 1184.17,752.258 1285.92,649.8 1255.94,699.049 1198.1,747.251 1204.5,735.349 1194.88,736.608 1144.73,793.351 1120.76,806.306 1120.17,800.749 1161.81,752.591 1254.8,664.016 1268.46,663.211 1332.56,619.133 1382.49,602.136 1348.37,641.434 1246.07,711.234 1274.3,678.111 1278.54,675.047 1233.17,716.368 1151.34,785.055 1152.38,773.459 1138.24,785.831 1216.98,699.973 1104.28,810.96 1120.69,805.428 1132.09,792.061 1072.03,836.475 1052.18,848.154 978.817,910.8 1016.62,868.058 959.419,928.33 946.251,949.926 915.98,969.915 910.28,968.44 964.934,911.644 919.661,959.227 941.31,932.928 951.824,923.078 906.832,973.884 912.674,966.114 955.811,926.441 991.448,881.603 996.45,900.581 970.956,918.638 977.757,912.035 1047.85,837.702 1135.48,773.105 1187.42,726.568 1266.56,668.78 1257.23,688.938 1297.09,663.854 1346.16,633.744 1228.64,723.602 1114.7,819.226 1032.85,889.382 973.569,926.521 913.982,979.457 900.185,985.188 839.463,1044.61 835.49,1037.61 866.533,1007.55 904.984,969.882 921.761,953.933 968.063,920.581 922.821,964.781 926.955,960.444 946.943,934.546 1051.44,828.477 1173.37,728.135 1236.54,675.696 1289.75,659.559 1228.81,733.815 1255.74,704.503 1329.06,624.59 1331.89,605.467 1466.64,520.356 1510.18,514.366 1447.53,562.035 1319.18,664.803 1254.1,719.333 1234.6,712.435 1214.1,721.7 1246.33,693.423 1234.65,698.655 1254.83,685.103 1299.08,650.521 1250.91,706.443 1222.76,710.973 1181.52,747.556 1212.01,721.169 1149.99,778.33 1123.25,798.534 1210.81,711.078 1251.03,694.61 1173.56,781.045 1163.88,778.227 1160.03,767.924 1092.49,823.368 1072.42,849.49 1116.13,800.707 1116.58,803.05 1024.11,868.392 943.667,952.799 987.799,889.2 957.39,922.231 965.799,912.914 1018.28,861.411 975.978,910.095 930.225,950.129 957.542,919.416 991.702,879.783 "/>
<path clip-path="url(#clip190)" d="M186.863 198.898 L550.897 198.898 L550.897 95.2176 L186.863 95.2176  Z" fill="#ffffff" fill-rule="evenodd" fill-opacity="1"/>
<polyline clip-path="url(#clip190)" style="stroke:#000000; stroke-linecap:round; stroke-linejoin:round; stroke-width:4; stroke-opacity:1; fill:none" points="186.863,198.898 550.897,198.898 550.897,95.2176 186.863,95.2176 186.863,198.898 "/>
<polyline clip-path="url(#clip190)" style="stroke:#009af9; stroke-linecap:round; stroke-linejoin:round; stroke-width:4; stroke-opacity:1; fill:none" points="211.758,147.058 361.13,147.058 "/>
<path clip-path="url(#clip190)" d="M396.651 128.366 Q393.549 133.69 392.044 138.898 Q390.54 144.106 390.54 149.453 Q390.54 154.801 392.044 160.055 Q393.572 165.287 396.651 170.588 L392.947 170.588 Q389.475 165.148 387.739 159.893 Q386.026 154.639 386.026 149.453 Q386.026 144.291 387.739 139.06 Q389.452 133.828 392.947 128.366 L396.651 128.366 Z" fill="#000000" fill-rule="nonzero" fill-opacity="1" /><path clip-path="url(#clip190)" d="M403.063 138.412 L423.294 138.412 L423.294 142.301 L407.276 160.935 L423.294 160.935 L423.294 164.338 L402.484 164.338 L402.484 160.449 L418.502 141.815 L403.063 141.815 L403.063 138.412 Z" fill="#000000" fill-rule="nonzero" fill-opacity="1" /><path clip-path="url(#clip190)" d="M430.887 158.458 L435.771 158.458 L435.771 162.439 L431.975 169.847 L428.988 169.847 L430.887 162.439 L430.887 158.458 Z" fill="#000000" fill-rule="nonzero" fill-opacity="1" /><path clip-path="url(#clip190)" d="M455.655 166.745 Q453.849 171.375 452.136 172.787 Q450.423 174.199 447.553 174.199 L444.15 174.199 L444.15 170.634 L446.65 170.634 Q448.41 170.634 449.382 169.8 Q450.354 168.967 451.535 165.865 L452.298 163.921 L441.812 138.412 L446.326 138.412 L454.428 158.689 L462.53 138.412 L467.044 138.412 L455.655 166.745 Z" fill="#000000" fill-rule="nonzero" fill-opacity="1" /><path clip-path="url(#clip190)" d="M474.011 158.458 L478.896 158.458 L478.896 162.439 L475.099 169.847 L472.113 169.847 L474.011 162.439 L474.011 158.458 Z" fill="#000000" fill-rule="nonzero" fill-opacity="1" /><path clip-path="url(#clip190)" d="M509.544 138.412 L500.169 151.027 L510.03 164.338 L505.007 164.338 L497.46 154.152 L489.914 164.338 L484.891 164.338 L494.96 150.773 L485.747 138.412 L490.77 138.412 L497.645 147.648 L504.52 138.412 L509.544 138.412 Z" fill="#000000" fill-rule="nonzero" fill-opacity="1" /><path clip-path="url(#clip190)" d="M515.377 128.366 L519.081 128.366 Q522.553 133.828 524.266 139.06 Q526.002 144.291 526.002 149.453 Q526.002 154.639 524.266 159.893 Q522.553 165.148 519.081 170.588 L515.377 170.588 Q518.456 165.287 519.96 160.055 Q521.488 154.801 521.488 149.453 Q521.488 144.106 519.96 138.898 Q518.456 133.69 515.377 128.366 Z" fill="#000000" fill-rule="nonzero" fill-opacity="1" /></svg>
