<?xml version="1.0" encoding="utf-8"?>
<svg xmlns="http://www.w3.org/2000/svg" xmlns:xlink="http://www.w3.org/1999/xlink" width="600" height="400" viewBox="0 0 2400 1600">
<defs>
  <clipPath id="clip030">
    <rect x="0" y="0" width="2400" height="1600"/>
  </clipPath>
</defs>
<path clip-path="url(#clip030)" d="M0 1600 L2400 1600 L2400 0 L0 0  Z" fill="#ffffff" fill-rule="evenodd" fill-opacity="1"/>
<defs>
  <clipPath id="clip031">
    <rect x="224" y="47" width="2130" height="1377"/>
  </clipPath>
</defs>
<path clip-path="url(#clip030)" d="M224.098 1423.18 L2352.76 1423.18 L2352.76 47.2441 L224.098 47.2441  Z" fill="#ffffff" fill-rule="evenodd" fill-opacity="1"/>
<polyline clip-path="url(#clip031)" style="stroke:#000000; stroke-linecap:round; stroke-linejoin:round; stroke-width:2; stroke-opacity:0.1; fill:none" points="224.098,1423.18 224.098,47.2441 "/>
<polyline clip-path="url(#clip031)" style="stroke:#000000; stroke-linecap:round; stroke-linejoin:round; stroke-width:2; stroke-opacity:0.1; fill:none" points="649.829,1423.18 649.829,47.2441 "/>
<polyline clip-path="url(#clip031)" style="stroke:#000000; stroke-linecap:round; stroke-linejoin:round; stroke-width:2; stroke-opacity:0.1; fill:none" points="1075.56,1423.18 1075.56,47.2441 "/>
<polyline clip-path="url(#clip031)" style="stroke:#000000; stroke-linecap:round; stroke-linejoin:round; stroke-width:2; stroke-opacity:0.1; fill:none" points="1501.29,1423.18 1501.29,47.2441 "/>
<polyline clip-path="url(#clip031)" style="stroke:#000000; stroke-linecap:round; stroke-linejoin:round; stroke-width:2; stroke-opacity:0.1; fill:none" points="1927.02,1423.18 1927.02,47.2441 "/>
<polyline clip-path="url(#clip031)" style="stroke:#000000; stroke-linecap:round; stroke-linejoin:round; stroke-width:2; stroke-opacity:0.1; fill:none" points="2352.76,1423.18 2352.76,47.2441 "/>
<polyline clip-path="url(#clip031)" style="stroke:#000000; stroke-linecap:round; stroke-linejoin:round; stroke-width:2; stroke-opacity:0.1; fill:none" points="224.098,1311.54 2352.76,1311.54 "/>
<polyline clip-path="url(#clip031)" style="stroke:#000000; stroke-linecap:round; stroke-linejoin:round; stroke-width:2; stroke-opacity:0.1; fill:none" points="224.098,1127.99 2352.76,1127.99 "/>
<polyline clip-path="url(#clip031)" style="stroke:#000000; stroke-linecap:round; stroke-linejoin:round; stroke-width:2; stroke-opacity:0.1; fill:none" points="224.098,944.431 2352.76,944.431 "/>
<polyline clip-path="url(#clip031)" style="stroke:#000000; stroke-linecap:round; stroke-linejoin:round; stroke-width:2; stroke-opacity:0.1; fill:none" points="224.098,760.877 2352.76,760.877 "/>
<polyline clip-path="url(#clip031)" style="stroke:#000000; stroke-linecap:round; stroke-linejoin:round; stroke-width:2; stroke-opacity:0.1; fill:none" points="224.098,577.322 2352.76,577.322 "/>
<polyline clip-path="url(#clip031)" style="stroke:#000000; stroke-linecap:round; stroke-linejoin:round; stroke-width:2; stroke-opacity:0.1; fill:none" points="224.098,393.767 2352.76,393.767 "/>
<polyline clip-path="url(#clip031)" style="stroke:#000000; stroke-linecap:round; stroke-linejoin:round; stroke-width:2; stroke-opacity:0.1; fill:none" points="224.098,210.212 2352.76,210.212 "/>
<polyline clip-path="url(#clip030)" style="stroke:#000000; stroke-linecap:round; stroke-linejoin:round; stroke-width:4; stroke-opacity:1; fill:none" points="224.098,1423.18 2352.76,1423.18 "/>
<polyline clip-path="url(#clip030)" style="stroke:#000000; stroke-linecap:round; stroke-linejoin:round; stroke-width:4; stroke-opacity:1; fill:none" points="224.098,1423.18 224.098,1404.28 "/>
<polyline clip-path="url(#clip030)" style="stroke:#000000; stroke-linecap:round; stroke-linejoin:round; stroke-width:4; stroke-opacity:1; fill:none" points="649.829,1423.18 649.829,1404.28 "/>
<polyline clip-path="url(#clip030)" style="stroke:#000000; stroke-linecap:round; stroke-linejoin:round; stroke-width:4; stroke-opacity:1; fill:none" points="1075.56,1423.18 1075.56,1404.28 "/>
<polyline clip-path="url(#clip030)" style="stroke:#000000; stroke-linecap:round; stroke-linejoin:round; stroke-width:4; stroke-opacity:1; fill:none" points="1501.29,1423.18 1501.29,1404.28 "/>
<polyline clip-path="url(#clip030)" style="stroke:#000000; stroke-linecap:round; stroke-linejoin:round; stroke-width:4; stroke-opacity:1; fill:none" points="1927.02,1423.18 1927.02,1404.28 "/>
<polyline clip-path="url(#clip030)" style="stroke:#000000; stroke-linecap:round; stroke-linejoin:round; stroke-width:4; stroke-opacity:1; fill:none" points="2352.76,1423.18 2352.76,1404.28 "/>
<path clip-path="url(#clip030)" d="M224.098 1454.1 Q220.487 1454.1 218.658 1457.66 Q216.853 1461.2 216.853 1468.33 Q216.853 1475.44 218.658 1479.01 Q220.487 1482.55 224.098 1482.55 Q227.732 1482.55 229.538 1479.01 Q231.366 1475.44 231.366 1468.33 Q231.366 1461.2 229.538 1457.66 Q227.732 1454.1 224.098 1454.1 M224.098 1450.39 Q229.908 1450.39 232.964 1455 Q236.042 1459.58 236.042 1468.33 Q236.042 1477.06 232.964 1481.67 Q229.908 1486.25 224.098 1486.25 Q218.288 1486.25 215.209 1481.67 Q212.153 1477.06 212.153 1468.33 Q212.153 1459.58 215.209 1455 Q218.288 1450.39 224.098 1450.39 Z" fill="#000000" fill-rule="nonzero" fill-opacity="1" /><path clip-path="url(#clip030)" d="M644.482 1481.64 L660.802 1481.64 L660.802 1485.58 L638.857 1485.58 L638.857 1481.64 Q641.519 1478.89 646.103 1474.26 Q650.709 1469.61 651.89 1468.27 Q654.135 1465.74 655.015 1464.01 Q655.917 1462.25 655.917 1460.56 Q655.917 1457.8 653.973 1456.07 Q652.052 1454.33 648.95 1454.33 Q646.751 1454.33 644.297 1455.09 Q641.867 1455.86 639.089 1457.41 L639.089 1452.69 Q641.913 1451.55 644.367 1450.97 Q646.82 1450.39 648.857 1450.39 Q654.228 1450.39 657.422 1453.08 Q660.616 1455.77 660.616 1460.26 Q660.616 1462.39 659.806 1464.31 Q659.019 1466.2 656.913 1468.8 Q656.334 1469.47 653.232 1472.69 Q650.13 1475.88 644.482 1481.64 Z" fill="#000000" fill-rule="nonzero" fill-opacity="1" /><path clip-path="url(#clip030)" d="M1078.57 1455.09 L1066.76 1473.54 L1078.57 1473.54 L1078.57 1455.09 M1077.34 1451.02 L1083.22 1451.02 L1083.22 1473.54 L1088.15 1473.54 L1088.15 1477.43 L1083.22 1477.43 L1083.22 1485.58 L1078.57 1485.58 L1078.57 1477.43 L1062.97 1477.43 L1062.97 1472.92 L1077.34 1451.02 Z" fill="#000000" fill-rule="nonzero" fill-opacity="1" /><path clip-path="url(#clip030)" d="M1501.7 1466.44 Q1498.55 1466.44 1496.7 1468.59 Q1494.87 1470.74 1494.87 1474.49 Q1494.87 1478.22 1496.7 1480.39 Q1498.55 1482.55 1501.7 1482.55 Q1504.85 1482.55 1506.67 1480.39 Q1508.53 1478.22 1508.53 1474.49 Q1508.53 1470.74 1506.67 1468.59 Q1504.85 1466.44 1501.7 1466.44 M1510.98 1451.78 L1510.98 1456.04 Q1509.22 1455.21 1507.42 1454.77 Q1505.63 1454.33 1503.87 1454.33 Q1499.24 1454.33 1496.79 1457.45 Q1494.36 1460.58 1494.01 1466.9 Q1495.38 1464.89 1497.44 1463.82 Q1499.5 1462.73 1501.98 1462.73 Q1507.18 1462.73 1510.19 1465.9 Q1513.23 1469.05 1513.23 1474.49 Q1513.23 1479.82 1510.08 1483.03 Q1506.93 1486.25 1501.7 1486.25 Q1495.7 1486.25 1492.53 1481.67 Q1489.36 1477.06 1489.36 1468.33 Q1489.36 1460.14 1493.25 1455.28 Q1497.14 1450.39 1503.69 1450.39 Q1505.45 1450.39 1507.23 1450.74 Q1509.04 1451.09 1510.98 1451.78 Z" fill="#000000" fill-rule="nonzero" fill-opacity="1" /><path clip-path="url(#clip030)" d="M1927.02 1469.17 Q1923.69 1469.17 1921.77 1470.95 Q1919.87 1472.73 1919.87 1475.86 Q1919.87 1478.98 1921.77 1480.77 Q1923.69 1482.55 1927.02 1482.55 Q1930.36 1482.55 1932.28 1480.77 Q1934.2 1478.96 1934.2 1475.86 Q1934.2 1472.73 1932.28 1470.95 Q1930.38 1469.17 1927.02 1469.17 M1922.35 1467.18 Q1919.34 1466.44 1917.65 1464.38 Q1915.98 1462.32 1915.98 1459.35 Q1915.98 1455.21 1918.92 1452.8 Q1921.89 1450.39 1927.02 1450.39 Q1932.19 1450.39 1935.13 1452.8 Q1938.07 1455.21 1938.07 1459.35 Q1938.07 1462.32 1936.38 1464.38 Q1934.71 1466.44 1931.72 1467.18 Q1935.1 1467.96 1936.98 1470.26 Q1938.88 1472.55 1938.88 1475.86 Q1938.88 1480.88 1935.8 1483.57 Q1932.74 1486.25 1927.02 1486.25 Q1921.31 1486.25 1918.23 1483.57 Q1915.17 1480.88 1915.17 1475.86 Q1915.17 1472.55 1917.07 1470.26 Q1918.97 1467.96 1922.35 1467.18 M1920.64 1459.79 Q1920.64 1462.48 1922.3 1463.98 Q1923.99 1465.49 1927.02 1465.49 Q1930.03 1465.49 1931.72 1463.98 Q1933.44 1462.48 1933.44 1459.79 Q1933.44 1457.11 1931.72 1455.6 Q1930.03 1454.1 1927.02 1454.1 Q1923.99 1454.1 1922.3 1455.6 Q1920.64 1457.11 1920.64 1459.79 Z" fill="#000000" fill-rule="nonzero" fill-opacity="1" /><path clip-path="url(#clip030)" d="M2327.44 1481.64 L2335.08 1481.64 L2335.08 1455.28 L2326.77 1456.95 L2326.77 1452.69 L2335.04 1451.02 L2339.71 1451.02 L2339.71 1481.64 L2347.35 1481.64 L2347.35 1485.58 L2327.44 1485.58 L2327.44 1481.64 Z" fill="#000000" fill-rule="nonzero" fill-opacity="1" /><path clip-path="url(#clip030)" d="M2366.8 1454.1 Q2363.18 1454.1 2361.36 1457.66 Q2359.55 1461.2 2359.55 1468.33 Q2359.55 1475.44 2361.36 1479.01 Q2363.18 1482.55 2366.8 1482.55 Q2370.43 1482.55 2372.23 1479.01 Q2374.06 1475.44 2374.06 1468.33 Q2374.06 1461.2 2372.23 1457.66 Q2370.43 1454.1 2366.8 1454.1 M2366.8 1450.39 Q2372.61 1450.39 2375.66 1455 Q2378.74 1459.58 2378.74 1468.33 Q2378.74 1477.06 2375.66 1481.67 Q2372.61 1486.25 2366.8 1486.25 Q2360.99 1486.25 2357.91 1481.67 Q2354.85 1477.06 2354.85 1468.33 Q2354.85 1459.58 2357.91 1455 Q2360.99 1450.39 2366.8 1450.39 Z" fill="#000000" fill-rule="nonzero" fill-opacity="1" /><path clip-path="url(#clip030)" d="M1287.49 1522.27 L1287.49 1532.4 L1299.55 1532.4 L1299.55 1536.95 L1287.49 1536.95 L1287.49 1556.3 Q1287.49 1560.66 1288.67 1561.9 Q1289.88 1563.14 1293.54 1563.14 L1299.55 1563.14 L1299.55 1568.04 L1293.54 1568.04 Q1286.76 1568.04 1284.18 1565.53 Q1281.6 1562.98 1281.6 1556.3 L1281.6 1536.95 L1277.3 1536.95 L1277.3 1532.4 L1281.6 1532.4 L1281.6 1522.27 L1287.49 1522.27 Z" fill="#000000" fill-rule="nonzero" fill-opacity="1" /><polyline clip-path="url(#clip030)" style="stroke:#000000; stroke-linecap:round; stroke-linejoin:round; stroke-width:4; stroke-opacity:1; fill:none" points="224.098,1423.18 224.098,47.2441 "/>
<polyline clip-path="url(#clip030)" style="stroke:#000000; stroke-linecap:round; stroke-linejoin:round; stroke-width:4; stroke-opacity:1; fill:none" points="224.098,1311.54 242.996,1311.54 "/>
<polyline clip-path="url(#clip030)" style="stroke:#000000; stroke-linecap:round; stroke-linejoin:round; stroke-width:4; stroke-opacity:1; fill:none" points="224.098,1127.99 242.996,1127.99 "/>
<polyline clip-path="url(#clip030)" style="stroke:#000000; stroke-linecap:round; stroke-linejoin:round; stroke-width:4; stroke-opacity:1; fill:none" points="224.098,944.431 242.996,944.431 "/>
<polyline clip-path="url(#clip030)" style="stroke:#000000; stroke-linecap:round; stroke-linejoin:round; stroke-width:4; stroke-opacity:1; fill:none" points="224.098,760.877 242.996,760.877 "/>
<polyline clip-path="url(#clip030)" style="stroke:#000000; stroke-linecap:round; stroke-linejoin:round; stroke-width:4; stroke-opacity:1; fill:none" points="224.098,577.322 242.996,577.322 "/>
<polyline clip-path="url(#clip030)" style="stroke:#000000; stroke-linecap:round; stroke-linejoin:round; stroke-width:4; stroke-opacity:1; fill:none" points="224.098,393.767 242.996,393.767 "/>
<polyline clip-path="url(#clip030)" style="stroke:#000000; stroke-linecap:round; stroke-linejoin:round; stroke-width:4; stroke-opacity:1; fill:none" points="224.098,210.212 242.996,210.212 "/>
<path clip-path="url(#clip030)" d="M51.9875 1311.99 L81.6633 1311.99 L81.6633 1315.93 L51.9875 1315.93 L51.9875 1311.99 Z" fill="#000000" fill-rule="nonzero" fill-opacity="1" /><path clip-path="url(#clip030)" d="M101.756 1297.34 Q98.1447 1297.34 96.316 1300.9 Q94.5104 1304.45 94.5104 1311.58 Q94.5104 1318.68 96.316 1322.25 Q98.1447 1325.79 101.756 1325.79 Q105.39 1325.79 107.196 1322.25 Q109.024 1318.68 109.024 1311.58 Q109.024 1304.45 107.196 1300.9 Q105.39 1297.34 101.756 1297.34 M101.756 1293.64 Q107.566 1293.64 110.621 1298.24 Q113.7 1302.83 113.7 1311.58 Q113.7 1320.3 110.621 1324.91 Q107.566 1329.49 101.756 1329.49 Q95.9456 1329.49 92.8669 1324.91 Q89.8114 1320.3 89.8114 1311.58 Q89.8114 1302.83 92.8669 1298.24 Q95.9456 1293.64 101.756 1293.64 Z" fill="#000000" fill-rule="nonzero" fill-opacity="1" /><path clip-path="url(#clip030)" d="M121.918 1322.94 L126.802 1322.94 L126.802 1328.82 L121.918 1328.82 L121.918 1322.94 Z" fill="#000000" fill-rule="nonzero" fill-opacity="1" /><path clip-path="url(#clip030)" d="M135.806 1294.26 L158.029 1294.26 L158.029 1296.25 L145.482 1328.82 L140.598 1328.82 L152.404 1298.2 L135.806 1298.2 L135.806 1294.26 Z" fill="#000000" fill-rule="nonzero" fill-opacity="1" /><path clip-path="url(#clip030)" d="M167.195 1294.26 L185.552 1294.26 L185.552 1298.2 L171.478 1298.2 L171.478 1306.67 Q172.496 1306.32 173.515 1306.16 Q174.533 1305.97 175.552 1305.97 Q181.339 1305.97 184.718 1309.15 Q188.098 1312.32 188.098 1317.73 Q188.098 1323.31 184.626 1326.41 Q181.153 1329.49 174.834 1329.49 Q172.658 1329.49 170.39 1329.12 Q168.144 1328.75 165.737 1328.01 L165.737 1323.31 Q167.82 1324.45 170.042 1325 Q172.265 1325.56 174.741 1325.56 Q178.746 1325.56 181.084 1323.45 Q183.422 1321.34 183.422 1317.73 Q183.422 1314.12 181.084 1312.02 Q178.746 1309.91 174.741 1309.91 Q172.866 1309.91 170.991 1310.33 Q169.14 1310.74 167.195 1311.62 L167.195 1294.26 Z" fill="#000000" fill-rule="nonzero" fill-opacity="1" /><path clip-path="url(#clip030)" d="M50.9921 1128.44 L80.6679 1128.44 L80.6679 1132.37 L50.9921 1132.37 L50.9921 1128.44 Z" fill="#000000" fill-rule="nonzero" fill-opacity="1" /><path clip-path="url(#clip030)" d="M100.76 1113.78 Q97.1493 1113.78 95.3206 1117.35 Q93.515 1120.89 93.515 1128.02 Q93.515 1135.13 95.3206 1138.69 Q97.1493 1142.23 100.76 1142.23 Q104.395 1142.23 106.2 1138.69 Q108.029 1135.13 108.029 1128.02 Q108.029 1120.89 106.2 1117.35 Q104.395 1113.78 100.76 1113.78 M100.76 1110.08 Q106.571 1110.08 109.626 1114.69 Q112.705 1119.27 112.705 1128.02 Q112.705 1136.75 109.626 1141.35 Q106.571 1145.94 100.76 1145.94 Q94.9502 1145.94 91.8715 1141.35 Q88.816 1136.75 88.816 1128.02 Q88.816 1119.27 91.8715 1114.69 Q94.9502 1110.08 100.76 1110.08 Z" fill="#000000" fill-rule="nonzero" fill-opacity="1" /><path clip-path="url(#clip030)" d="M120.922 1139.39 L125.807 1139.39 L125.807 1145.27 L120.922 1145.27 L120.922 1139.39 Z" fill="#000000" fill-rule="nonzero" fill-opacity="1" /><path clip-path="url(#clip030)" d="M136.038 1110.71 L154.394 1110.71 L154.394 1114.64 L140.32 1114.64 L140.32 1123.11 Q141.339 1122.77 142.357 1122.6 Q143.376 1122.42 144.394 1122.42 Q150.181 1122.42 153.561 1125.59 Q156.941 1128.76 156.941 1134.18 Q156.941 1139.76 153.468 1142.86 Q149.996 1145.94 143.677 1145.94 Q141.501 1145.94 139.232 1145.57 Q136.987 1145.2 134.58 1144.46 L134.58 1139.76 Q136.663 1140.89 138.885 1141.45 Q141.107 1142 143.584 1142 Q147.589 1142 149.927 1139.9 Q152.265 1137.79 152.265 1134.18 Q152.265 1130.57 149.927 1128.46 Q147.589 1126.35 143.584 1126.35 Q141.709 1126.35 139.834 1126.77 Q137.982 1127.19 136.038 1128.07 L136.038 1110.71 Z" fill="#000000" fill-rule="nonzero" fill-opacity="1" /><path clip-path="url(#clip030)" d="M176.153 1113.78 Q172.542 1113.78 170.714 1117.35 Q168.908 1120.89 168.908 1128.02 Q168.908 1135.13 170.714 1138.69 Q172.542 1142.23 176.153 1142.23 Q179.788 1142.23 181.593 1138.69 Q183.422 1135.13 183.422 1128.02 Q183.422 1120.89 181.593 1117.35 Q179.788 1113.78 176.153 1113.78 M176.153 1110.08 Q181.964 1110.08 185.019 1114.69 Q188.098 1119.27 188.098 1128.02 Q188.098 1136.75 185.019 1141.35 Q181.964 1145.94 176.153 1145.94 Q170.343 1145.94 167.265 1141.35 Q164.209 1136.75 164.209 1128.02 Q164.209 1119.27 167.265 1114.69 Q170.343 1110.08 176.153 1110.08 Z" fill="#000000" fill-rule="nonzero" fill-opacity="1" /><path clip-path="url(#clip030)" d="M51.9875 944.883 L81.6633 944.883 L81.6633 948.818 L51.9875 948.818 L51.9875 944.883 Z" fill="#000000" fill-rule="nonzero" fill-opacity="1" /><path clip-path="url(#clip030)" d="M101.756 930.23 Q98.1447 930.23 96.316 933.795 Q94.5104 937.337 94.5104 944.466 Q94.5104 951.573 96.316 955.137 Q98.1447 958.679 101.756 958.679 Q105.39 958.679 107.196 955.137 Q109.024 951.573 109.024 944.466 Q109.024 937.337 107.196 933.795 Q105.39 930.23 101.756 930.23 M101.756 926.526 Q107.566 926.526 110.621 931.133 Q113.7 935.716 113.7 944.466 Q113.7 953.193 110.621 957.799 Q107.566 962.383 101.756 962.383 Q95.9456 962.383 92.8669 957.799 Q89.8114 953.193 89.8114 944.466 Q89.8114 935.716 92.8669 931.133 Q95.9456 926.526 101.756 926.526 Z" fill="#000000" fill-rule="nonzero" fill-opacity="1" /><path clip-path="url(#clip030)" d="M121.918 955.832 L126.802 955.832 L126.802 961.711 L121.918 961.711 L121.918 955.832 Z" fill="#000000" fill-rule="nonzero" fill-opacity="1" /><path clip-path="url(#clip030)" d="M141.015 957.776 L157.334 957.776 L157.334 961.711 L135.39 961.711 L135.39 957.776 Q138.052 955.022 142.635 950.392 Q147.242 945.739 148.422 944.397 Q150.668 941.874 151.547 940.138 Q152.45 938.378 152.45 936.688 Q152.45 933.934 150.505 932.198 Q148.584 930.462 145.482 930.462 Q143.283 930.462 140.83 931.226 Q138.399 931.989 135.621 933.54 L135.621 928.818 Q138.445 927.684 140.899 927.105 Q143.353 926.526 145.39 926.526 Q150.76 926.526 153.955 929.212 Q157.149 931.897 157.149 936.388 Q157.149 938.517 156.339 940.438 Q155.552 942.337 153.445 944.929 Q152.867 945.6 149.765 948.818 Q146.663 952.012 141.015 957.776 Z" fill="#000000" fill-rule="nonzero" fill-opacity="1" /><path clip-path="url(#clip030)" d="M167.195 927.151 L185.552 927.151 L185.552 931.087 L171.478 931.087 L171.478 939.559 Q172.496 939.212 173.515 939.05 Q174.533 938.864 175.552 938.864 Q181.339 938.864 184.718 942.036 Q188.098 945.207 188.098 950.624 Q188.098 956.202 184.626 959.304 Q181.153 962.383 174.834 962.383 Q172.658 962.383 170.39 962.012 Q168.144 961.642 165.737 960.901 L165.737 956.202 Q167.82 957.337 170.042 957.892 Q172.265 958.448 174.741 958.448 Q178.746 958.448 181.084 956.341 Q183.422 954.235 183.422 950.624 Q183.422 947.012 181.084 944.906 Q178.746 942.8 174.741 942.8 Q172.866 942.8 170.991 943.216 Q169.14 943.633 167.195 944.512 L167.195 927.151 Z" fill="#000000" fill-rule="nonzero" fill-opacity="1" /><path clip-path="url(#clip030)" d="M100.76 746.675 Q97.1493 746.675 95.3206 750.24 Q93.515 753.782 93.515 760.911 Q93.515 768.018 95.3206 771.583 Q97.1493 775.124 100.76 775.124 Q104.395 775.124 106.2 771.583 Q108.029 768.018 108.029 760.911 Q108.029 753.782 106.2 750.24 Q104.395 746.675 100.76 746.675 M100.76 742.972 Q106.571 742.972 109.626 747.578 Q112.705 752.161 112.705 760.911 Q112.705 769.638 109.626 774.245 Q106.571 778.828 100.76 778.828 Q94.9502 778.828 91.8715 774.245 Q88.816 769.638 88.816 760.911 Q88.816 752.161 91.8715 747.578 Q94.9502 742.972 100.76 742.972 Z" fill="#000000" fill-rule="nonzero" fill-opacity="1" /><path clip-path="url(#clip030)" d="M120.922 772.277 L125.807 772.277 L125.807 778.157 L120.922 778.157 L120.922 772.277 Z" fill="#000000" fill-rule="nonzero" fill-opacity="1" /><path clip-path="url(#clip030)" d="M145.992 746.675 Q142.381 746.675 140.552 750.24 Q138.746 753.782 138.746 760.911 Q138.746 768.018 140.552 771.583 Q142.381 775.124 145.992 775.124 Q149.626 775.124 151.431 771.583 Q153.26 768.018 153.26 760.911 Q153.26 753.782 151.431 750.24 Q149.626 746.675 145.992 746.675 M145.992 742.972 Q151.802 742.972 154.857 747.578 Q157.936 752.161 157.936 760.911 Q157.936 769.638 154.857 774.245 Q151.802 778.828 145.992 778.828 Q140.181 778.828 137.103 774.245 Q134.047 769.638 134.047 760.911 Q134.047 752.161 137.103 747.578 Q140.181 742.972 145.992 742.972 Z" fill="#000000" fill-rule="nonzero" fill-opacity="1" /><path clip-path="url(#clip030)" d="M176.153 746.675 Q172.542 746.675 170.714 750.24 Q168.908 753.782 168.908 760.911 Q168.908 768.018 170.714 771.583 Q172.542 775.124 176.153 775.124 Q179.788 775.124 181.593 771.583 Q183.422 768.018 183.422 760.911 Q183.422 753.782 181.593 750.24 Q179.788 746.675 176.153 746.675 M176.153 742.972 Q181.964 742.972 185.019 747.578 Q188.098 752.161 188.098 760.911 Q188.098 769.638 185.019 774.245 Q181.964 778.828 176.153 778.828 Q170.343 778.828 167.265 774.245 Q164.209 769.638 164.209 760.911 Q164.209 752.161 167.265 747.578 Q170.343 742.972 176.153 742.972 Z" fill="#000000" fill-rule="nonzero" fill-opacity="1" /><path clip-path="url(#clip030)" d="M101.756 563.121 Q98.1447 563.121 96.316 566.685 Q94.5104 570.227 94.5104 577.357 Q94.5104 584.463 96.316 588.028 Q98.1447 591.569 101.756 591.569 Q105.39 591.569 107.196 588.028 Q109.024 584.463 109.024 577.357 Q109.024 570.227 107.196 566.685 Q105.39 563.121 101.756 563.121 M101.756 559.417 Q107.566 559.417 110.621 564.023 Q113.7 568.607 113.7 577.357 Q113.7 586.083 110.621 590.69 Q107.566 595.273 101.756 595.273 Q95.9456 595.273 92.8669 590.69 Q89.8114 586.083 89.8114 577.357 Q89.8114 568.607 92.8669 564.023 Q95.9456 559.417 101.756 559.417 Z" fill="#000000" fill-rule="nonzero" fill-opacity="1" /><path clip-path="url(#clip030)" d="M121.918 588.722 L126.802 588.722 L126.802 594.602 L121.918 594.602 L121.918 588.722 Z" fill="#000000" fill-rule="nonzero" fill-opacity="1" /><path clip-path="url(#clip030)" d="M141.015 590.667 L157.334 590.667 L157.334 594.602 L135.39 594.602 L135.39 590.667 Q138.052 587.912 142.635 583.282 Q147.242 578.63 148.422 577.287 Q150.668 574.764 151.547 573.028 Q152.45 571.269 152.45 569.579 Q152.45 566.824 150.505 565.088 Q148.584 563.352 145.482 563.352 Q143.283 563.352 140.83 564.116 Q138.399 564.88 135.621 566.431 L135.621 561.709 Q138.445 560.574 140.899 559.996 Q143.353 559.417 145.39 559.417 Q150.76 559.417 153.955 562.102 Q157.149 564.787 157.149 569.278 Q157.149 571.408 156.339 573.329 Q155.552 575.227 153.445 577.82 Q152.867 578.491 149.765 581.708 Q146.663 584.903 141.015 590.667 Z" fill="#000000" fill-rule="nonzero" fill-opacity="1" /><path clip-path="url(#clip030)" d="M167.195 560.042 L185.552 560.042 L185.552 563.977 L171.478 563.977 L171.478 572.449 Q172.496 572.102 173.515 571.94 Q174.533 571.755 175.552 571.755 Q181.339 571.755 184.718 574.926 Q188.098 578.097 188.098 583.514 Q188.098 589.093 184.626 592.194 Q181.153 595.273 174.834 595.273 Q172.658 595.273 170.39 594.903 Q168.144 594.532 165.737 593.792 L165.737 589.093 Q167.82 590.227 170.042 590.782 Q172.265 591.338 174.741 591.338 Q178.746 591.338 181.084 589.232 Q183.422 587.125 183.422 583.514 Q183.422 579.903 181.084 577.796 Q178.746 575.69 174.741 575.69 Q172.866 575.69 170.991 576.107 Q169.14 576.523 167.195 577.403 L167.195 560.042 Z" fill="#000000" fill-rule="nonzero" fill-opacity="1" /><path clip-path="url(#clip030)" d="M100.76 379.566 Q97.1493 379.566 95.3206 383.131 Q93.515 386.672 93.515 393.802 Q93.515 400.908 95.3206 404.473 Q97.1493 408.015 100.76 408.015 Q104.395 408.015 106.2 404.473 Q108.029 400.908 108.029 393.802 Q108.029 386.672 106.2 383.131 Q104.395 379.566 100.76 379.566 M100.76 375.862 Q106.571 375.862 109.626 380.469 Q112.705 385.052 112.705 393.802 Q112.705 402.529 109.626 407.135 Q106.571 411.718 100.76 411.718 Q94.9502 411.718 91.8715 407.135 Q88.816 402.529 88.816 393.802 Q88.816 385.052 91.8715 380.469 Q94.9502 375.862 100.76 375.862 Z" fill="#000000" fill-rule="nonzero" fill-opacity="1" /><path clip-path="url(#clip030)" d="M120.922 405.167 L125.807 405.167 L125.807 411.047 L120.922 411.047 L120.922 405.167 Z" fill="#000000" fill-rule="nonzero" fill-opacity="1" /><path clip-path="url(#clip030)" d="M136.038 376.487 L154.394 376.487 L154.394 380.422 L140.32 380.422 L140.32 388.894 Q141.339 388.547 142.357 388.385 Q143.376 388.2 144.394 388.2 Q150.181 388.2 153.561 391.371 Q156.941 394.543 156.941 399.959 Q156.941 405.538 153.468 408.64 Q149.996 411.718 143.677 411.718 Q141.501 411.718 139.232 411.348 Q136.987 410.978 134.58 410.237 L134.58 405.538 Q136.663 406.672 138.885 407.228 Q141.107 407.783 143.584 407.783 Q147.589 407.783 149.927 405.677 Q152.265 403.57 152.265 399.959 Q152.265 396.348 149.927 394.242 Q147.589 392.135 143.584 392.135 Q141.709 392.135 139.834 392.552 Q137.982 392.968 136.038 393.848 L136.038 376.487 Z" fill="#000000" fill-rule="nonzero" fill-opacity="1" /><path clip-path="url(#clip030)" d="M176.153 379.566 Q172.542 379.566 170.714 383.131 Q168.908 386.672 168.908 393.802 Q168.908 400.908 170.714 404.473 Q172.542 408.015 176.153 408.015 Q179.788 408.015 181.593 404.473 Q183.422 400.908 183.422 393.802 Q183.422 386.672 181.593 383.131 Q179.788 379.566 176.153 379.566 M176.153 375.862 Q181.964 375.862 185.019 380.469 Q188.098 385.052 188.098 393.802 Q188.098 402.529 185.019 407.135 Q181.964 411.718 176.153 411.718 Q170.343 411.718 167.265 407.135 Q164.209 402.529 164.209 393.802 Q164.209 385.052 167.265 380.469 Q170.343 375.862 176.153 375.862 Z" fill="#000000" fill-rule="nonzero" fill-opacity="1" /><path clip-path="url(#clip030)" d="M101.756 196.011 Q98.1447 196.011 96.316 199.576 Q94.5104 203.117 94.5104 210.247 Q94.5104 217.353 96.316 220.918 Q98.1447 224.46 101.756 224.46 Q105.39 224.46 107.196 220.918 Q109.024 217.353 109.024 210.247 Q109.024 203.117 107.196 199.576 Q105.39 196.011 101.756 196.011 M101.756 192.307 Q107.566 192.307 110.621 196.914 Q113.7 201.497 113.7 210.247 Q113.7 218.974 110.621 223.58 Q107.566 228.164 101.756 228.164 Q95.9456 228.164 92.8669 223.58 Q89.8114 218.974 89.8114 210.247 Q89.8114 201.497 92.8669 196.914 Q95.9456 192.307 101.756 192.307 Z" fill="#000000" fill-rule="nonzero" fill-opacity="1" /><path clip-path="url(#clip030)" d="M121.918 221.613 L126.802 221.613 L126.802 227.492 L121.918 227.492 L121.918 221.613 Z" fill="#000000" fill-rule="nonzero" fill-opacity="1" /><path clip-path="url(#clip030)" d="M135.806 192.932 L158.029 192.932 L158.029 194.923 L145.482 227.492 L140.598 227.492 L152.404 196.867 L135.806 196.867 L135.806 192.932 Z" fill="#000000" fill-rule="nonzero" fill-opacity="1" /><path clip-path="url(#clip030)" d="M167.195 192.932 L185.552 192.932 L185.552 196.867 L171.478 196.867 L171.478 205.34 Q172.496 204.992 173.515 204.83 Q174.533 204.645 175.552 204.645 Q181.339 204.645 184.718 207.816 Q188.098 210.988 188.098 216.404 Q188.098 221.983 184.626 225.085 Q181.153 228.164 174.834 228.164 Q172.658 228.164 170.39 227.793 Q168.144 227.423 165.737 226.682 L165.737 221.983 Q167.82 223.117 170.042 223.673 Q172.265 224.228 174.741 224.228 Q178.746 224.228 181.084 222.122 Q183.422 220.015 183.422 216.404 Q183.422 212.793 181.084 210.687 Q178.746 208.58 174.741 208.58 Q172.866 208.58 170.991 208.997 Q169.14 209.414 167.195 210.293 L167.195 192.932 Z" fill="#000000" fill-rule="nonzero" fill-opacity="1" /><polyline clip-path="url(#clip031)" style="stroke:#009af9; stroke-linecap:round; stroke-linejoin:round; stroke-width:4; stroke-opacity:1; fill:none" points="224.098,760.877 226.229,751.932 228.359,743.105 230.49,734.396 232.621,725.802 234.752,717.322 236.883,708.954 239.013,700.697 241.144,692.55 243.275,684.511 245.406,676.578 247.537,668.751 249.667,661.027 251.798,653.406 253.929,645.886 256.06,638.465 258.19,631.143 260.321,623.918 262.452,616.789 264.583,609.754 266.714,602.813 268.844,595.963 270.975,589.205 273.106,582.536 275.237,575.955 277.368,569.462 279.498,563.054 281.629,556.732 283.76,550.493 285.891,544.338 288.022,538.264 290.152,532.27 292.283,526.356 294.414,520.52 296.545,514.762 298.675,509.079 300.806,503.473 302.937,497.94 305.068,492.481 307.199,487.095 309.329,481.779 311.46,476.534 313.591,471.359 315.722,466.252 317.853,461.214 319.983,456.241 322.114,451.335 324.245,446.494 326.376,441.717 328.507,437.004 330.637,432.352 332.768,427.763 334.899,423.234 337.03,418.766 339.16,414.356 341.291,410.006 343.422,405.712 345.553,401.476 347.684,397.296 349.814,393.171 351.945,389.101 354.076,385.085 356.207,381.122 358.338,377.212 360.468,373.353 362.599,369.546 364.73,365.789 366.861,362.082 368.992,358.424 371.122,354.815 373.253,351.253 375.384,347.739 377.515,344.271 379.645,340.85 381.776,337.474 383.907,334.142 386.038,330.855 388.169,327.611 390.299,324.41 392.43,321.252 394.561,318.135 396.692,315.06 398.823,312.026 400.953,309.032 403.084,306.077 405.215,303.162 407.346,300.285 409.477,297.447 411.607,294.646 413.738,291.882 415.869,289.155 418,286.464 420.13,283.809 422.261,281.189 424.392,278.603 426.523,276.603 428.654,275.803 430.784,276.038 432.915,277.153 435.046,279 437.177,281.445 439.308,284.364 441.438,287.645 443.569,291.185 445.7,294.894 447.831,298.691 449.961,302.508 452.092,306.287 454.223,309.98 456.354,313.551 458.485,316.976 460.615,320.24 462.746,323.34 464.877,326.285 467.008,329.092 469.139,331.792 471.269,334.425 473.4,337.043 475.531,339.709 477.662,342.422 479.793,345.101 481.923,347.744 484.054,350.353 486.185,352.926 488.316,355.466 490.446,357.972 492.577,360.444 494.708,362.884 496.839,365.291 498.97,367.667 501.1,370.011 503.231,372.324 505.362,374.607 507.493,376.859 509.624,379.082 511.754,381.275 513.885,383.439 516.016,385.575 518.147,387.682 520.278,389.761 522.408,391.812 524.539,393.837 526.67,395.834 528.801,397.805 530.931,399.75 533.062,401.669 535.193,403.562 537.324,405.431 539.455,407.274 541.585,409.093 543.716,410.888 545.847,412.659 547.978,414.406 550.109,416.131 552.239,417.832 554.37,419.511 556.501,421.167 558.632,422.801 560.763,424.414 562.893,426.006 565.024,427.576 567.155,429.125 569.286,430.654 571.416,432.163 573.547,433.651 575.678,435.12 577.809,436.569 579.94,438 582.07,439.411 584.201,440.803 586.332,442.178 588.463,443.534 590.594,444.872 592.724,446.192 594.855,447.495 596.986,448.781 599.117,450.049 601.247,451.301 603.378,452.536 605.509,453.755 607.64,454.958 609.771,456.145 611.901,457.316 614.032,458.471 616.163,459.611 618.294,460.736 620.425,461.846 622.555,462.942 624.686,464.023 626.817,465.089 628.948,466.142 631.079,467.18 633.209,468.205 635.34,469.216 637.471,470.214 639.602,471.198 641.732,472.17 643.863,473.128 645.994,474.074 648.125,475.007 650.256,476.013 652.386,477.984 654.517,481.023 656.648,484.971 658.779,489.679 660.91,495.007 663.04,500.827 665.171,507.023 667.302,513.487 669.433,520.123 671.564,526.848 673.694,533.585 675.825,540.272 677.956,546.855 680.087,553.293 682.217,559.552 684.348,565.614 686.479,571.467 688.61,577.113 690.741,582.562 692.871,587.838 695.002,592.971 697.133,598.007 699.264,602.999 701.395,608.012 703.525,613.061 705.656,618.047 707.787,622.968 709.918,627.823 712.049,632.614 714.179,637.342 716.31,642.007 718.441,646.61 720.572,651.152 722.702,655.633 724.833,660.056 726.964,664.419 729.095,668.725 731.226,672.974 733.356,677.166 735.487,681.303 737.618,685.385 739.749,689.413 741.88,693.387 744.01,697.309 746.141,701.179 748.272,704.998 750.403,708.766 752.534,712.484 754.664,716.152 756.795,719.772 758.926,723.345 761.057,726.869 763.187,730.347 765.318,733.779 767.449,737.165 769.58,740.506 771.711,743.803 773.841,747.057 775.972,750.267 778.103,753.434 780.234,756.56 782.365,759.644 784.495,762.687 786.626,765.69 788.757,768.653 790.888,771.577 793.018,774.462 795.149,777.309 797.28,780.118 799.411,782.89 801.542,785.625 803.672,788.323 805.803,790.987 807.934,793.614 810.065,796.207 812.196,798.766 814.326,801.29 816.457,803.782 818.588,806.24 820.719,808.665 822.85,811.059 824.98,813.42 827.111,815.751 829.242,818.05 831.373,820.319 833.503,822.558 835.634,824.767 837.765,826.947 839.896,829.098 842.027,831.221 844.157,833.315 846.288,835.382 848.419,837.421 850.55,839.433 852.681,841.418 854.811,843.378 856.942,845.311 859.073,847.218 861.204,849.101 863.335,850.456 865.465,846.145 867.596,838.111 869.727,829.318 871.858,821.252 873.988,813.926 876.119,806.457 878.25,799.059 880.381,791.759 882.512,784.555 884.642,777.447 886.773,770.434 888.904,763.513 891.035,756.684 893.166,749.946 895.296,743.297 897.427,736.736 899.558,730.262 901.689,723.874 903.82,717.571 905.95,711.351 908.081,705.214 910.212,699.158 912.343,693.183 914.473,687.286 916.604,681.468 918.735,675.727 920.866,670.062 922.997,664.472 925.127,658.956 927.258,653.514 929.389,648.143 931.52,642.844 933.651,637.615 935.781,632.455 937.912,627.364 940.043,622.34 942.174,617.383 944.304,612.492 946.435,607.665 948.566,602.902 950.697,598.203 952.828,593.566 954.958,588.99 957.089,584.475 959.22,580.02 961.351,575.624 963.482,571.286 965.612,567.006 967.743,562.782 969.874,558.614 972.005,554.502 974.136,550.444 976.266,546.44 978.397,542.489 980.528,538.591 982.659,534.744 984.789,530.948 986.92,527.202 989.051,523.507 991.182,519.86 993.313,516.261 995.443,512.711 997.574,509.207 999.705,505.75 1001.84,502.338 1003.97,498.972 1006.1,495.651 1008.23,492.373 1010.36,489.139 1012.49,485.948 1014.62,482.799 1016.75,479.692 1018.88,476.626 1021.01,473.601 1023.14,470.616 1025.27,467.67 1027.41,464.764 1029.54,461.896 1031.67,459.066 1033.8,456.273 1035.93,453.518 1038.06,450.799 1040.19,448.116 1042.32,445.469 1044.45,442.856 1046.58,440.279 1048.71,437.735 1050.84,435.226 1052.97,432.749 1055.11,430.306 1057.24,427.895 1059.37,425.515 1061.5,423.168 1063.63,420.851 1065.76,418.565 1067.89,416.31 1070.02,414.084 1072.15,411.888 1074.28,409.721 1076.41,407.997 1078.54,409.452 1080.67,414.085 1082.81,421.322 1084.94,430.64 1087.07,441.562 1089.2,453.658 1091.33,466.546 1093.46,479.892 1095.59,493.41 1097.72,506.86 1099.85,520.05 1101.98,532.836 1104.11,545.122 1106.24,556.859 1108.38,568.044 1110.51,578.725 1112.64,588.994 1114.77,598.994 1116.9,608.912 1119.03,618.984 1121.16,629.129 1123.29,639.141 1125.42,649.019 1127.55,658.767 1129.68,668.385 1131.81,677.876 1133.94,687.241 1136.08,696.481 1138.21,705.6 1140.34,714.597 1142.47,723.475 1144.6,732.236 1146.73,740.88 1148.86,749.41 1150.99,757.827 1153.12,766.132 1155.25,774.327 1157.38,782.414 1159.51,790.393 1161.64,798.266 1163.78,806.035 1165.91,813.701 1168.04,821.265 1170.17,828.729 1172.3,836.094 1174.43,843.361 1176.56,850.532 1178.69,857.608 1180.82,864.59 1182.95,871.479 1185.08,878.277 1187.21,884.985 1189.35,891.604 1191.48,898.135 1193.61,904.579 1195.74,910.939 1197.87,917.214 1200,923.405 1202.13,929.515 1204.26,935.544 1206.39,941.493 1208.52,947.362 1210.65,953.155 1212.78,958.87 1214.91,964.51 1217.05,970.074 1219.18,975.565 1221.31,980.984 1223.44,986.33 1225.57,991.605 1227.7,996.811 1229.83,1001.95 1231.96,1007.02 1234.09,1012.02 1236.22,1016.95 1238.35,1021.82 1240.48,1026.63 1242.61,1031.37 1244.75,1036.05 1246.88,1040.66 1249.01,1045.22 1251.14,1049.71 1253.27,1054.15 1255.4,1058.52 1257.53,1062.84 1259.66,1067.1 1261.79,1071.31 1263.92,1075.46 1266.05,1079.55 1268.18,1083.59 1270.32,1087.58 1272.45,1091.51 1274.58,1095.71 1276.71,1100.7 1278.84,1105.52 1280.97,1109.35 1283.1,1111.66 1285.23,1112.22 1287.36,1111.05 1289.49,1108.48 1291.62,1105.09 1293.75,1101.77 1295.88,1098.83 1298.02,1095.94 1300.15,1093.08 1302.28,1090.27 1304.41,1087.48 1306.54,1084.74 1308.67,1082.03 1310.8,1079.36 1312.93,1076.73 1315.06,1074.12 1317.19,1071.56 1319.32,1069.03 1321.45,1066.53 1323.58,1064.06 1325.72,1061.63 1327.85,1059.23 1329.98,1056.86 1332.11,1054.52 1334.24,1052.21 1336.37,1049.94 1338.5,1047.69 1340.63,1045.47 1342.76,1043.29 1344.89,1041.13 1347.02,1039 1349.15,1036.9 1351.29,1034.83 1353.42,1032.78 1355.55,1030.76 1357.68,1028.77 1359.81,1026.81 1361.94,1024.87 1364.07,1022.95 1366.2,1021.07 1368.33,1019.2 1370.46,1017.36 1372.59,1015.55 1374.72,1013.76 1376.85,1011.99 1378.99,1010.25 1381.12,1008.53 1383.25,1006.83 1385.38,1005.16 1387.51,1003.51 1389.64,1001.88 1391.77,1000.27 1393.9,998.68 1396.03,997.114 1398.16,995.568 1400.29,994.043 1402.42,992.538 1404.55,991.053 1406.69,989.588 1408.82,988.142 1410.95,986.715 1413.08,985.308 1415.21,983.918 1417.34,982.548 1419.47,981.195 1421.6,979.861 1423.73,978.544 1425.86,977.245 1427.99,975.962 1430.12,974.697 1432.26,973.449 1434.39,972.217 1436.52,971.002 1438.65,969.802 1440.78,968.619 1442.91,967.451 1445.04,966.298 1447.17,965.161 1449.3,964.039 1451.43,962.932 1453.56,961.84 1455.69,960.762 1457.82,959.698 1459.96,958.649 1462.09,957.613 1464.22,956.591 1466.35,955.583 1468.48,954.588 1470.61,953.606 1472.74,952.637 1474.87,951.681 1477,950.738 1479.13,949.807 1481.26,948.889 1483.39,947.983 1485.52,947.088 1487.66,946.206 1489.79,945.334 1491.92,944.012 1494.05,941.959 1496.18,939.312 1498.31,936.197 1500.44,932.727 1502.57,929.005 1504.7,925.119 1506.83,921.148 1508.96,917.156 1511.09,913.198 1513.23,909.314 1515.36,905.535 1517.49,901.878 1519.62,898.349 1521.75,894.94 1523.88,891.634 1526.01,888.399 1528.14,885.194 1530.27,881.973 1532.4,878.776 1534.53,875.622 1536.66,872.51 1538.79,869.439 1540.93,866.409 1543.06,863.419 1545.19,860.468 1547.32,857.557 1549.45,854.684 1551.58,851.85 1553.71,849.052 1555.84,846.292 1557.97,843.569 1560.1,840.881 1562.23,838.23 1564.36,835.613 1566.49,833.031 1568.63,830.484 1570.76,827.97 1572.89,825.489 1575.02,823.042 1577.15,820.627 1579.28,818.243 1581.41,815.892 1583.54,813.572 1585.67,811.282 1587.8,809.023 1589.93,806.794 1592.06,804.594 1594.2,802.424 1596.33,800.282 1598.46,798.169 1600.59,796.084 1602.72,794.026 1604.85,791.996 1606.98,789.993 1609.11,788.016 1611.24,786.065 1613.37,784.141 1615.5,782.241 1617.63,780.367 1619.76,778.518 1621.9,776.693 1624.03,774.893 1626.16,773.116 1628.29,771.363 1630.42,769.633 1632.55,767.926 1634.68,766.241 1636.81,764.579 1638.94,762.939 1641.07,761.321 1643.2,759.724 1645.33,758.149 1647.46,756.594 1649.6,755.06 1651.73,753.546 1653.86,752.052 1655.99,750.578 1658.12,749.124 1660.25,747.689 1662.38,746.273 1664.51,744.876 1666.64,743.497 1668.77,742.136 1670.9,740.794 1673.03,739.469 1675.17,738.162 1677.3,736.873 1679.43,735.6 1681.56,734.344 1683.69,733.105 1685.82,731.882 1687.95,730.676 1690.08,729.485 1692.21,728.311 1694.34,727.151 1696.47,726.008 1698.6,724.879 1700.73,723.765 1702.87,722.667 1705,721.582 1707.13,720.512 1709.26,719.457 1711.39,718.415 1713.52,717.985 1715.65,718.873 1717.78,720.599 1719.91,722.76 1722.04,725.051 1724.17,727.268 1726.3,729.307 1728.43,731.16 1730.57,732.923 1732.7,734.743 1734.83,736.559 1736.96,738.351 1739.09,740.119 1741.22,741.863 1743.35,743.585 1745.48,745.284 1747.61,746.96 1749.74,748.614 1751.87,750.246 1754,751.856 1756.14,753.445 1758.27,755.013 1760.4,756.56 1762.53,758.087 1764.66,759.594 1766.79,761.08 1768.92,762.547 1771.05,763.994 1773.18,765.422 1775.31,766.831 1777.44,768.222 1779.57,769.594 1781.7,770.948 1783.84,772.284 1785.97,773.602 1788.1,774.902 1790.23,776.186 1792.36,777.452 1794.49,778.702 1796.62,779.935 1798.75,781.152 1800.88,782.353 1803.01,783.537 1805.14,784.706 1807.27,785.86 1809.4,786.998 1811.54,788.121 1813.67,789.229 1815.8,790.323 1817.93,791.402 1820.06,792.467 1822.19,793.517 1824.32,794.554 1826.45,795.577 1828.58,796.586 1830.71,797.582 1832.84,798.565 1834.97,799.535 1837.11,800.492 1839.24,801.436 1841.37,802.368 1843.5,803.287 1845.63,804.194 1847.76,805.09 1849.89,805.973 1852.02,806.844 1854.15,807.704 1856.28,808.553 1858.41,809.39 1860.54,810.217 1862.67,811.032 1864.81,811.836 1866.94,812.63 1869.07,813.414 1871.2,814.186 1873.33,814.949 1875.46,815.702 1877.59,816.444 1879.72,817.177 1881.85,817.9 1883.98,818.613 1886.11,819.317 1888.24,820.012 1890.37,820.697 1892.51,821.374 1894.64,822.041 1896.77,822.699 1898.9,823.349 1901.03,823.99 1903.16,824.623 1905.29,825.247 1907.42,825.863 1909.55,826.471 1911.68,827.071 1913.81,827.663 1915.94,828.247 1918.07,828.823 1920.21,829.392 1922.34,829.88 1924.47,829.204 1926.6,827.431 1928.73,825.03 1930.86,822.364 1932.99,819.69 1935.12,817.156 1937.25,814.804 1939.38,812.569 1941.51,810.311 1943.64,808.063 1945.78,805.846 1947.91,803.657 1950.04,801.498 1952.17,799.367 1954.3,797.264 1956.43,795.19 1958.56,793.142 1960.69,791.122 1962.82,789.129 1964.95,787.162 1967.08,785.221 1969.21,783.306 1971.34,781.417 1973.48,779.552 1975.61,777.712 1977.74,775.897 1979.87,774.105 1982,772.338 1984.13,770.594 1986.26,768.872 1988.39,767.174 1990.52,765.499 1992.65,763.845 1994.78,762.213 1996.91,760.603 1999.04,759.015 2001.18,757.447 2003.31,755.9 2005.44,754.374 2007.57,752.868 2009.7,751.382 2011.83,749.916 2013.96,748.469 2016.09,747.041 2018.22,745.632 2020.35,744.242 2022.48,742.87 2024.61,741.517 2026.75,740.181 2028.88,738.863 2031.01,737.563 2033.14,736.28 2035.27,735.013 2037.4,733.764 2039.53,732.531 2041.66,731.315 2043.79,730.115 2045.92,728.93 2048.05,727.761 2050.18,726.608 2052.31,725.47 2054.45,724.347 2056.58,723.239 2058.71,722.146 2060.84,721.067 2062.97,720.003 2065.1,718.952 2067.23,717.916 2069.36,716.893 2071.49,715.884 2073.62,714.888 2075.75,713.906 2077.88,712.936 2080.01,711.98 2082.15,711.036 2084.28,710.104 2086.41,709.185 2088.54,708.278 2090.67,707.383 2092.8,706.5 2094.93,705.629 2097.06,704.769 2099.19,703.921 2101.32,703.084 2103.45,702.258 2105.58,701.443 2107.72,700.638 2109.85,699.845 2111.98,699.062 2114.11,698.289 2116.24,697.526 2118.37,696.774 2120.5,696.032 2122.63,695.299 2124.76,694.576 2126.89,693.863 2129.02,693.159 2131.15,692.465 2133.28,691.78 2135.42,691.103 2137.55,690.436 2139.68,689.84 2141.81,689.842 2143.94,690.49 2146.07,691.697 2148.2,693.379 2150.33,695.459 2152.46,697.867 2154.59,700.534 2156.72,703.402 2158.85,706.413 2160.98,709.519 2163.12,712.674 2165.25,715.839 2167.38,718.981 2169.51,722.071 2171.64,725.086 2173.77,728.009 2175.9,730.827 2178.03,733.534 2180.16,736.128 2182.29,738.613 2184.42,741 2186.55,743.302 2188.69,745.54 2190.82,747.741 2192.95,749.934 2195.08,752.157 2197.21,754.406 2199.34,756.626 2201.47,758.817 2203.6,760.978 2205.73,763.111 2207.86,765.216 2209.99,767.292 2212.12,769.342 2214.25,771.364 2216.39,773.359 2218.52,775.328 2220.65,777.27 2222.78,779.187 2224.91,781.079 2227.04,782.945 2229.17,784.787 2231.3,786.604 2233.43,788.397 2235.56,790.167 2237.69,791.913 2239.82,793.636 2241.95,795.336 2244.09,797.013 2246.22,798.668 2248.35,800.302 2250.48,801.913 2252.61,803.503 2254.74,805.072 2256.87,806.621 2259,808.149 2261.13,809.656 2263.26,811.144 2265.39,812.611 2267.52,814.06 2269.66,815.489 2271.79,816.899 2273.92,818.29 2276.05,819.663 2278.18,821.018 2280.31,822.355 2282.44,823.674 2284.57,824.976 2286.7,826.26 2288.83,827.528 2290.96,828.778 2293.09,830.012 2295.22,831.23 2297.36,832.432 2299.49,833.617 2301.62,834.787 2303.75,835.942 2305.88,837.081 2308.01,838.205 2310.14,839.314 2312.27,840.408 2314.4,841.488 2316.53,842.553 2318.66,843.605 2320.79,844.642 2322.92,845.666 2325.06,846.676 2327.19,847.673 2329.32,848.656 2331.45,849.627 2333.58,850.584 2335.71,851.529 2337.84,852.462 2339.97,853.382 2342.1,854.289 2344.23,855.185 2346.36,856.069 2348.49,856.941 2350.63,857.802 2352.76,858.651 "/>
<polyline clip-path="url(#clip031)" style="stroke:#e26f46; stroke-linecap:round; stroke-linejoin:round; stroke-width:4; stroke-opacity:1; fill:none" points="224.098,86.1857 226.229,86.1857 228.359,86.1857 230.49,86.1857 232.621,86.1857 234.752,86.1857 236.883,86.1857 239.013,86.1857 241.144,86.1857 243.275,86.1857 245.406,86.1857 247.537,86.1857 249.667,86.1857 251.798,86.1857 253.929,86.1857 256.06,86.1857 258.19,86.1857 260.321,86.1857 262.452,86.1857 264.583,86.1857 266.714,86.1857 268.844,86.1857 270.975,86.1857 273.106,86.1857 275.237,86.1857 277.368,86.1857 279.498,86.1857 281.629,86.1857 283.76,86.1857 285.891,86.1857 288.022,86.1857 290.152,86.1857 292.283,86.1857 294.414,86.1857 296.545,86.1857 298.675,86.1857 300.806,86.1857 302.937,86.1857 305.068,86.1857 307.199,86.1857 309.329,86.1857 311.46,86.1857 313.591,86.1857 315.722,86.1857 317.853,86.1857 319.983,86.1857 322.114,86.1857 324.245,86.1857 326.376,86.1857 328.507,86.1857 330.637,86.1857 332.768,86.1857 334.899,86.1857 337.03,86.1857 339.16,86.1857 341.291,86.1857 343.422,86.1857 345.553,86.1857 347.684,86.1857 349.814,86.1857 351.945,86.1857 354.076,86.1857 356.207,86.1857 358.338,86.1857 360.468,86.1857 362.599,86.1857 364.73,86.1857 366.861,86.1857 368.992,86.1857 371.122,86.1857 373.253,86.1857 375.384,86.1857 377.515,86.1857 379.645,86.1857 381.776,86.1857 383.907,86.1857 386.038,86.1857 388.169,86.1857 390.299,86.1857 392.43,86.1857 394.561,86.1857 396.692,86.1857 398.823,86.1857 400.953,86.1857 403.084,86.1857 405.215,86.1857 407.346,86.1857 409.477,86.1857 411.607,86.1857 413.738,86.1857 415.869,86.1857 418,86.1857 420.13,86.1857 422.261,86.1857 424.392,86.1857 426.523,86.1857 428.654,86.1857 430.784,86.1857 432.915,86.1857 435.046,86.1857 437.177,544.469 439.308,544.469 441.438,544.469 443.569,544.469 445.7,544.469 447.831,544.469 449.961,544.469 452.092,544.469 454.223,544.469 456.354,544.469 458.485,544.469 460.615,544.469 462.746,544.469 464.877,544.469 467.008,544.469 469.139,544.469 471.269,544.469 473.4,544.469 475.531,544.469 477.662,544.469 479.793,544.469 481.923,544.469 484.054,544.469 486.185,544.469 488.316,544.469 490.446,544.469 492.577,544.469 494.708,544.469 496.839,544.469 498.97,544.469 501.1,544.469 503.231,544.469 505.362,544.469 507.493,544.469 509.624,544.469 511.754,544.469 513.885,544.469 516.016,544.469 518.147,544.469 520.278,544.469 522.408,544.469 524.539,544.469 526.67,544.469 528.801,544.469 530.931,544.469 533.062,544.469 535.193,544.469 537.324,544.469 539.455,544.469 541.585,544.469 543.716,544.469 545.847,544.469 547.978,544.469 550.109,544.469 552.239,544.469 554.37,544.469 556.501,544.469 558.632,544.469 560.763,544.469 562.893,544.469 565.024,544.469 567.155,544.469 569.286,544.469 571.416,544.469 573.547,544.469 575.678,544.469 577.809,544.469 579.94,544.469 582.07,544.469 584.201,544.469 586.332,544.469 588.463,544.469 590.594,544.469 592.724,544.469 594.855,544.469 596.986,544.469 599.117,544.469 601.247,544.469 603.378,544.469 605.509,544.469 607.64,544.469 609.771,544.469 611.901,544.469 614.032,544.469 616.163,544.469 618.294,544.469 620.425,544.469 622.555,544.469 624.686,544.469 626.817,544.469 628.948,544.469 631.079,544.469 633.209,544.469 635.34,544.469 637.471,544.469 639.602,544.469 641.732,544.469 643.863,544.469 645.994,544.469 648.125,544.469 650.256,989.19 652.386,989.19 654.517,989.19 656.648,989.19 658.779,989.19 660.91,989.19 663.04,989.19 665.171,989.19 667.302,989.19 669.433,989.19 671.564,989.19 673.694,989.19 675.825,989.19 677.956,989.19 680.087,989.19 682.217,989.19 684.348,989.19 686.479,989.19 688.61,989.19 690.741,989.19 692.871,989.19 695.002,989.19 697.133,989.19 699.264,989.19 701.395,989.19 703.525,989.19 705.656,989.19 707.787,989.19 709.918,989.19 712.049,989.19 714.179,989.19 716.31,989.19 718.441,989.19 720.572,989.19 722.702,989.19 724.833,989.19 726.964,989.19 729.095,989.19 731.226,989.19 733.356,989.19 735.487,989.19 737.618,989.19 739.749,989.19 741.88,989.19 744.01,989.19 746.141,989.19 748.272,989.19 750.403,989.19 752.534,989.19 754.664,989.19 756.795,989.19 758.926,989.19 761.057,989.19 763.187,989.19 765.318,989.19 767.449,989.19 769.58,989.19 771.711,989.19 773.841,989.19 775.972,989.19 778.103,989.19 780.234,989.19 782.365,989.19 784.495,989.19 786.626,989.19 788.757,989.19 790.888,989.19 793.018,989.19 795.149,989.19 797.28,989.19 799.411,989.19 801.542,989.19 803.672,989.19 805.803,989.19 807.934,989.19 810.065,989.19 812.196,989.19 814.326,989.19 816.457,989.19 818.588,989.19 820.719,989.19 822.85,989.19 824.98,989.19 827.111,989.19 829.242,989.19 831.373,989.19 833.503,989.19 835.634,989.19 837.765,989.19 839.896,989.19 842.027,989.19 844.157,989.19 846.288,989.19 848.419,989.19 850.55,989.19 852.681,989.19 854.811,989.19 856.942,989.19 859.073,989.19 861.204,989.19 863.335,248.44 865.465,248.44 867.596,248.44 869.727,248.44 871.858,248.44 873.988,248.44 876.119,248.44 878.25,248.44 880.381,248.44 882.512,248.44 884.642,248.44 886.773,248.44 888.904,248.44 891.035,248.44 893.166,248.44 895.296,248.44 897.427,248.44 899.558,248.44 901.689,248.44 903.82,248.44 905.95,248.44 908.081,248.44 910.212,248.44 912.343,248.44 914.473,248.44 916.604,248.44 918.735,248.44 920.866,248.44 922.997,248.44 925.127,248.44 927.258,248.44 929.389,248.44 931.52,248.44 933.651,248.44 935.781,248.44 937.912,248.44 940.043,248.44 942.174,248.44 944.304,248.44 946.435,248.44 948.566,248.44 950.697,248.44 952.828,248.44 954.958,248.44 957.089,248.44 959.22,248.44 961.351,248.44 963.482,248.44 965.612,248.44 967.743,248.44 969.874,248.44 972.005,248.44 974.136,248.44 976.266,248.44 978.397,248.44 980.528,248.44 982.659,248.44 984.789,248.44 986.92,248.44 989.051,248.44 991.182,248.44 993.313,248.44 995.443,248.44 997.574,248.44 999.705,248.44 1001.84,248.44 1003.97,248.44 1006.1,248.44 1008.23,248.44 1010.36,248.44 1012.49,248.44 1014.62,248.44 1016.75,248.44 1018.88,248.44 1021.01,248.44 1023.14,248.44 1025.27,248.44 1027.41,248.44 1029.54,248.44 1031.67,248.44 1033.8,248.44 1035.93,248.44 1038.06,248.44 1040.19,248.44 1042.32,248.44 1044.45,248.44 1046.58,248.44 1048.71,248.44 1050.84,248.44 1052.97,248.44 1055.11,248.44 1057.24,248.44 1059.37,248.44 1061.5,248.44 1063.63,248.44 1065.76,248.44 1067.89,248.44 1070.02,248.44 1072.15,248.44 1074.28,248.44 1076.41,1384.24 1078.54,1384.24 1080.67,1384.24 1082.81,1384.24 1084.94,1384.24 1087.07,1384.24 1089.2,1384.24 1091.33,1384.24 1093.46,1384.24 1095.59,1384.24 1097.72,1384.24 1099.85,1384.24 1101.98,1384.24 1104.11,1384.24 1106.24,1384.24 1108.38,1384.24 1110.51,1384.24 1112.64,1384.24 1114.77,1384.24 1116.9,1384.24 1119.03,1384.24 1121.16,1384.24 1123.29,1384.24 1125.42,1384.24 1127.55,1384.24 1129.68,1384.24 1131.81,1384.24 1133.94,1384.24 1136.08,1384.24 1138.21,1384.24 1140.34,1384.24 1142.47,1384.24 1144.6,1384.24 1146.73,1384.24 1148.86,1384.24 1150.99,1384.24 1153.12,1384.24 1155.25,1384.24 1157.38,1384.24 1159.51,1384.24 1161.64,1384.24 1163.78,1384.24 1165.91,1384.24 1168.04,1384.24 1170.17,1384.24 1172.3,1384.24 1174.43,1384.24 1176.56,1384.24 1178.69,1384.24 1180.82,1384.24 1182.95,1384.24 1185.08,1384.24 1187.21,1384.24 1189.35,1384.24 1191.48,1384.24 1193.61,1384.24 1195.74,1384.24 1197.87,1384.24 1200,1384.24 1202.13,1384.24 1204.26,1384.24 1206.39,1384.24 1208.52,1384.24 1210.65,1384.24 1212.78,1384.24 1214.91,1384.24 1217.05,1384.24 1219.18,1384.24 1221.31,1384.24 1223.44,1384.24 1225.57,1384.24 1227.7,1384.24 1229.83,1384.24 1231.96,1384.24 1234.09,1384.24 1236.22,1384.24 1238.35,1384.24 1240.48,1384.24 1242.61,1384.24 1244.75,1384.24 1246.88,1384.24 1249.01,1384.24 1251.14,1384.24 1253.27,1384.24 1255.4,1384.24 1257.53,1384.24 1259.66,1384.24 1261.79,1384.24 1263.92,1384.24 1266.05,1384.24 1268.18,1384.24 1270.32,1384.24 1272.45,1384.24 1274.58,1384.24 1276.71,1384.24 1278.84,1384.24 1280.97,1384.24 1283.1,1384.24 1285.23,1384.24 1287.36,1384.24 1289.49,880.534 1291.62,880.534 1293.75,880.534 1295.88,880.534 1298.02,880.534 1300.15,880.534 1302.28,880.534 1304.41,880.534 1306.54,880.534 1308.67,880.534 1310.8,880.534 1312.93,880.534 1315.06,880.534 1317.19,880.534 1319.32,880.534 1321.45,880.534 1323.58,880.534 1325.72,880.534 1327.85,880.534 1329.98,880.534 1332.11,880.534 1334.24,880.534 1336.37,880.534 1338.5,880.534 1340.63,880.534 1342.76,880.534 1344.89,880.534 1347.02,880.534 1349.15,880.534 1351.29,880.534 1353.42,880.534 1355.55,880.534 1357.68,880.534 1359.81,880.534 1361.94,880.534 1364.07,880.534 1366.2,880.534 1368.33,880.534 1370.46,880.534 1372.59,880.534 1374.72,880.534 1376.85,880.534 1378.99,880.534 1381.12,880.534 1383.25,880.534 1385.38,880.534 1387.51,880.534 1389.64,880.534 1391.77,880.534 1393.9,880.534 1396.03,880.534 1398.16,880.534 1400.29,880.534 1402.42,880.534 1404.55,880.534 1406.69,880.534 1408.82,880.534 1410.95,880.534 1413.08,880.534 1415.21,880.534 1417.34,880.534 1419.47,880.534 1421.6,880.534 1423.73,880.534 1425.86,880.534 1427.99,880.534 1430.12,880.534 1432.26,880.534 1434.39,880.534 1436.52,880.534 1438.65,880.534 1440.78,880.534 1442.91,880.534 1445.04,880.534 1447.17,880.534 1449.3,880.534 1451.43,880.534 1453.56,880.534 1455.69,880.534 1457.82,880.534 1459.96,880.534 1462.09,880.534 1464.22,880.534 1466.35,880.534 1468.48,880.534 1470.61,880.534 1472.74,880.534 1474.87,880.534 1477,880.534 1479.13,880.534 1481.26,880.534 1483.39,880.534 1485.52,880.534 1487.66,880.534 1489.79,880.534 1491.92,880.534 1494.05,880.534 1496.18,880.534 1498.31,880.534 1500.44,880.534 1502.57,640.881 1504.7,640.881 1506.83,640.881 1508.96,640.881 1511.09,640.881 1513.23,640.881 1515.36,640.881 1517.49,640.881 1519.62,640.881 1521.75,640.881 1523.88,640.881 1526.01,640.881 1528.14,640.881 1530.27,640.881 1532.4,640.881 1534.53,640.881 1536.66,640.881 1538.79,640.881 1540.93,640.881 1543.06,640.881 1545.19,640.881 1547.32,640.881 1549.45,640.881 1551.58,640.881 1553.71,640.881 1555.84,640.881 1557.97,640.881 1560.1,640.881 1562.23,640.881 1564.36,640.881 1566.49,640.881 1568.63,640.881 1570.76,640.881 1572.89,640.881 1575.02,640.881 1577.15,640.881 1579.28,640.881 1581.41,640.881 1583.54,640.881 1585.67,640.881 1587.8,640.881 1589.93,640.881 1592.06,640.881 1594.2,640.881 1596.33,640.881 1598.46,640.881 1600.59,640.881 1602.72,640.881 1604.85,640.881 1606.98,640.881 1609.11,640.881 1611.24,640.881 1613.37,640.881 1615.5,640.881 1617.63,640.881 1619.76,640.881 1621.9,640.881 1624.03,640.881 1626.16,640.881 1628.29,640.881 1630.42,640.881 1632.55,640.881 1634.68,640.881 1636.81,640.881 1638.94,640.881 1641.07,640.881 1643.2,640.881 1645.33,640.881 1647.46,640.881 1649.6,640.881 1651.73,640.881 1653.86,640.881 1655.99,640.881 1658.12,640.881 1660.25,640.881 1662.38,640.881 1664.51,640.881 1666.64,640.881 1668.77,640.881 1670.9,640.881 1673.03,640.881 1675.17,640.881 1677.3,640.881 1679.43,640.881 1681.56,640.881 1683.69,640.881 1685.82,640.881 1687.95,640.881 1690.08,640.881 1692.21,640.881 1694.34,640.881 1696.47,640.881 1698.6,640.881 1700.73,640.881 1702.87,640.881 1705,640.881 1707.13,640.881 1709.26,640.881 1711.39,640.881 1713.52,640.881 1715.65,871.711 1717.78,871.711 1719.91,871.711 1722.04,871.711 1724.17,871.711 1726.3,871.711 1728.43,871.711 1730.57,871.711 1732.7,871.711 1734.83,871.711 1736.96,871.711 1739.09,871.711 1741.22,871.711 1743.35,871.711 1745.48,871.711 1747.61,871.711 1749.74,871.711 1751.87,871.711 1754,871.711 1756.14,871.711 1758.27,871.711 1760.4,871.711 1762.53,871.711 1764.66,871.711 1766.79,871.711 1768.92,871.711 1771.05,871.711 1773.18,871.711 1775.31,871.711 1777.44,871.711 1779.57,871.711 1781.7,871.711 1783.84,871.711 1785.97,871.711 1788.1,871.711 1790.23,871.711 1792.36,871.711 1794.49,871.711 1796.62,871.711 1798.75,871.711 1800.88,871.711 1803.01,871.711 1805.14,871.711 1807.27,871.711 1809.4,871.711 1811.54,871.711 1813.67,871.711 1815.8,871.711 1817.93,871.711 1820.06,871.711 1822.19,871.711 1824.32,871.711 1826.45,871.711 1828.58,871.711 1830.71,871.711 1832.84,871.711 1834.97,871.711 1837.11,871.711 1839.24,871.711 1841.37,871.711 1843.5,871.711 1845.63,871.711 1847.76,871.711 1849.89,871.711 1852.02,871.711 1854.15,871.711 1856.28,871.711 1858.41,871.711 1860.54,871.711 1862.67,871.711 1864.81,871.711 1866.94,871.711 1869.07,871.711 1871.2,871.711 1873.33,871.711 1875.46,871.711 1877.59,871.711 1879.72,871.711 1881.85,871.711 1883.98,871.711 1886.11,871.711 1888.24,871.711 1890.37,871.711 1892.51,871.711 1894.64,871.711 1896.77,871.711 1898.9,871.711 1901.03,871.711 1903.16,871.711 1905.29,871.711 1907.42,871.711 1909.55,871.711 1911.68,871.711 1913.81,871.711 1915.94,871.711 1918.07,871.711 1920.21,871.711 1922.34,871.711 1924.47,871.711 1926.6,871.711 1928.73,640.779 1930.86,640.779 1932.99,640.779 1935.12,640.779 1937.25,640.779 1939.38,640.779 1941.51,640.779 1943.64,640.779 1945.78,640.779 1947.91,640.779 1950.04,640.779 1952.17,640.779 1954.3,640.779 1956.43,640.779 1958.56,640.779 1960.69,640.779 1962.82,640.779 1964.95,640.779 1967.08,640.779 1969.21,640.779 1971.34,640.779 1973.48,640.779 1975.61,640.779 1977.74,640.779 1979.87,640.779 1982,640.779 1984.13,640.779 1986.26,640.779 1988.39,640.779 1990.52,640.779 1992.65,640.779 1994.78,640.779 1996.91,640.779 1999.04,640.779 2001.18,640.779 2003.31,640.779 2005.44,640.779 2007.57,640.779 2009.7,640.779 2011.83,640.779 2013.96,640.779 2016.09,640.779 2018.22,640.779 2020.35,640.779 2022.48,640.779 2024.61,640.779 2026.75,640.779 2028.88,640.779 2031.01,640.779 2033.14,640.779 2035.27,640.779 2037.4,640.779 2039.53,640.779 2041.66,640.779 2043.79,640.779 2045.92,640.779 2048.05,640.779 2050.18,640.779 2052.31,640.779 2054.45,640.779 2056.58,640.779 2058.71,640.779 2060.84,640.779 2062.97,640.779 2065.1,640.779 2067.23,640.779 2069.36,640.779 2071.49,640.779 2073.62,640.779 2075.75,640.779 2077.88,640.779 2080.01,640.779 2082.15,640.779 2084.28,640.779 2086.41,640.779 2088.54,640.779 2090.67,640.779 2092.8,640.779 2094.93,640.779 2097.06,640.779 2099.19,640.779 2101.32,640.779 2103.45,640.779 2105.58,640.779 2107.72,640.779 2109.85,640.779 2111.98,640.779 2114.11,640.779 2116.24,640.779 2118.37,640.779 2120.5,640.779 2122.63,640.779 2124.76,640.779 2126.89,640.779 2129.02,640.779 2131.15,640.779 2133.28,640.779 2135.42,640.779 2137.55,640.779 2139.68,640.779 2141.81,921.856 2143.94,921.856 2146.07,921.856 2148.2,921.856 2150.33,921.856 2152.46,921.856 2154.59,921.856 2156.72,921.856 2158.85,921.856 2160.98,921.856 2163.12,921.856 2165.25,921.856 2167.38,921.856 2169.51,921.856 2171.64,921.856 2173.77,921.856 2175.9,921.856 2178.03,921.856 2180.16,921.856 2182.29,921.856 2184.42,921.856 2186.55,921.856 2188.69,921.856 2190.82,921.856 2192.95,921.856 2195.08,921.856 2197.21,921.856 2199.34,921.856 2201.47,921.856 2203.6,921.856 2205.73,921.856 2207.86,921.856 2209.99,921.856 2212.12,921.856 2214.25,921.856 2216.39,921.856 2218.52,921.856 2220.65,921.856 2222.78,921.856 2224.91,921.856 2227.04,921.856 2229.17,921.856 2231.3,921.856 2233.43,921.856 2235.56,921.856 2237.69,921.856 2239.82,921.856 2241.95,921.856 2244.09,921.856 2246.22,921.856 2248.35,921.856 2250.48,921.856 2252.61,921.856 2254.74,921.856 2256.87,921.856 2259,921.856 2261.13,921.856 2263.26,921.856 2265.39,921.856 2267.52,921.856 2269.66,921.856 2271.79,921.856 2273.92,921.856 2276.05,921.856 2278.18,921.856 2280.31,921.856 2282.44,921.856 2284.57,921.856 2286.7,921.856 2288.83,921.856 2290.96,921.856 2293.09,921.856 2295.22,921.856 2297.36,921.856 2299.49,921.856 2301.62,921.856 2303.75,921.856 2305.88,921.856 2308.01,921.856 2310.14,921.856 2312.27,921.856 2314.4,921.856 2316.53,921.856 2318.66,921.856 2320.79,921.856 2322.92,921.856 2325.06,921.856 2327.19,921.856 2329.32,921.856 2331.45,921.856 2333.58,921.856 2335.71,921.856 2337.84,921.856 2339.97,921.856 2342.1,921.856 2344.23,921.856 2346.36,921.856 2348.49,921.856 2350.63,921.856 2352.76,921.856 "/>
<path clip-path="url(#clip030)" d="M2043.8 248.629 L2281.8 248.629 L2281.8 93.1086 L2043.8 93.1086  Z" fill="#ffffff" fill-rule="evenodd" fill-opacity="1"/>
<polyline clip-path="url(#clip030)" style="stroke:#000000; stroke-linecap:round; stroke-linejoin:round; stroke-width:4; stroke-opacity:1; fill:none" points="2043.8,248.629 2281.8,248.629 2281.8,93.1086 2043.8,93.1086 2043.8,248.629 "/>
<polyline clip-path="url(#clip030)" style="stroke:#009af9; stroke-linecap:round; stroke-linejoin:round; stroke-width:4; stroke-opacity:1; fill:none" points="2067.45,144.949 2209.36,144.949 "/>
<path clip-path="url(#clip030)" d="M2257.66 136.303 L2248.29 148.919 L2258.15 162.229 L2253.13 162.229 L2245.58 152.043 L2238.03 162.229 L2233.01 162.229 L2243.08 148.664 L2233.87 136.303 L2238.89 136.303 L2245.76 145.539 L2252.64 136.303 L2257.66 136.303 Z" fill="#000000" fill-rule="nonzero" fill-opacity="1" /><polyline clip-path="url(#clip030)" style="stroke:#e26f46; stroke-linecap:round; stroke-linejoin:round; stroke-width:4; stroke-opacity:1; fill:none" points="2067.45,196.789 2209.36,196.789 "/>
<path clip-path="url(#clip030)" d="M2249.51 178.05 L2249.51 181.592 L2245.44 181.592 Q2243.15 181.592 2242.25 182.518 Q2241.37 183.444 2241.37 185.851 L2241.37 188.143 L2248.38 188.143 L2248.38 191.453 L2241.37 191.453 L2241.37 214.069 L2237.08 214.069 L2237.08 191.453 L2233.01 191.453 L2233.01 188.143 L2237.08 188.143 L2237.08 186.337 Q2237.08 182.009 2239.1 180.041 Q2241.11 178.05 2245.49 178.05 L2249.51 178.05 Z" fill="#000000" fill-rule="nonzero" fill-opacity="1" /></svg>
