<?xml version="1.0" encoding="utf-8"?>
<svg xmlns="http://www.w3.org/2000/svg" xmlns:xlink="http://www.w3.org/1999/xlink" width="600" height="400" viewBox="0 0 2400 1600">
<defs>
  <clipPath id="clip750">
    <rect x="0" y="0" width="2400" height="1600"/>
  </clipPath>
</defs>
<path clip-path="url(#clip750)" d="M0 1600 L2400 1600 L2400 0 L0 0  Z" fill="#ffffff" fill-rule="evenodd" fill-opacity="1"/>
<defs>
  <clipPath id="clip751">
    <rect x="193" y="47" width="2160" height="1377"/>
  </clipPath>
</defs>
<path clip-path="url(#clip750)" d="M193.936 1423.18 L2352.76 1423.18 L2352.76 47.2441 L193.936 47.2441  Z" fill="#ffffff" fill-rule="evenodd" fill-opacity="1"/>
<polyline clip-path="url(#clip751)" style="stroke:#000000; stroke-linecap:round; stroke-linejoin:round; stroke-width:2; stroke-opacity:0.1; fill:none" points="193.936,1423.18 193.936,47.2441 "/>
<polyline clip-path="url(#clip751)" style="stroke:#000000; stroke-linecap:round; stroke-linejoin:round; stroke-width:2; stroke-opacity:0.1; fill:none" points="625.7,1423.18 625.7,47.2441 "/>
<polyline clip-path="url(#clip751)" style="stroke:#000000; stroke-linecap:round; stroke-linejoin:round; stroke-width:2; stroke-opacity:0.1; fill:none" points="1057.46,1423.18 1057.46,47.2441 "/>
<polyline clip-path="url(#clip751)" style="stroke:#000000; stroke-linecap:round; stroke-linejoin:round; stroke-width:2; stroke-opacity:0.1; fill:none" points="1489.23,1423.18 1489.23,47.2441 "/>
<polyline clip-path="url(#clip751)" style="stroke:#000000; stroke-linecap:round; stroke-linejoin:round; stroke-width:2; stroke-opacity:0.1; fill:none" points="1920.99,1423.18 1920.99,47.2441 "/>
<polyline clip-path="url(#clip751)" style="stroke:#000000; stroke-linecap:round; stroke-linejoin:round; stroke-width:2; stroke-opacity:0.1; fill:none" points="2352.76,1423.18 2352.76,47.2441 "/>
<polyline clip-path="url(#clip751)" style="stroke:#000000; stroke-linecap:round; stroke-linejoin:round; stroke-width:2; stroke-opacity:0.1; fill:none" points="193.936,1390.89 2352.76,1390.89 "/>
<polyline clip-path="url(#clip751)" style="stroke:#000000; stroke-linecap:round; stroke-linejoin:round; stroke-width:2; stroke-opacity:0.1; fill:none" points="193.936,1166.71 2352.76,1166.71 "/>
<polyline clip-path="url(#clip751)" style="stroke:#000000; stroke-linecap:round; stroke-linejoin:round; stroke-width:2; stroke-opacity:0.1; fill:none" points="193.936,942.528 2352.76,942.528 "/>
<polyline clip-path="url(#clip751)" style="stroke:#000000; stroke-linecap:round; stroke-linejoin:round; stroke-width:2; stroke-opacity:0.1; fill:none" points="193.936,718.348 2352.76,718.348 "/>
<polyline clip-path="url(#clip751)" style="stroke:#000000; stroke-linecap:round; stroke-linejoin:round; stroke-width:2; stroke-opacity:0.1; fill:none" points="193.936,494.168 2352.76,494.168 "/>
<polyline clip-path="url(#clip751)" style="stroke:#000000; stroke-linecap:round; stroke-linejoin:round; stroke-width:2; stroke-opacity:0.1; fill:none" points="193.936,269.988 2352.76,269.988 "/>
<polyline clip-path="url(#clip750)" style="stroke:#000000; stroke-linecap:round; stroke-linejoin:round; stroke-width:4; stroke-opacity:1; fill:none" points="193.936,1423.18 2352.76,1423.18 "/>
<polyline clip-path="url(#clip750)" style="stroke:#000000; stroke-linecap:round; stroke-linejoin:round; stroke-width:4; stroke-opacity:1; fill:none" points="193.936,1423.18 193.936,1404.28 "/>
<polyline clip-path="url(#clip750)" style="stroke:#000000; stroke-linecap:round; stroke-linejoin:round; stroke-width:4; stroke-opacity:1; fill:none" points="625.7,1423.18 625.7,1404.28 "/>
<polyline clip-path="url(#clip750)" style="stroke:#000000; stroke-linecap:round; stroke-linejoin:round; stroke-width:4; stroke-opacity:1; fill:none" points="1057.46,1423.18 1057.46,1404.28 "/>
<polyline clip-path="url(#clip750)" style="stroke:#000000; stroke-linecap:round; stroke-linejoin:round; stroke-width:4; stroke-opacity:1; fill:none" points="1489.23,1423.18 1489.23,1404.28 "/>
<polyline clip-path="url(#clip750)" style="stroke:#000000; stroke-linecap:round; stroke-linejoin:round; stroke-width:4; stroke-opacity:1; fill:none" points="1920.99,1423.18 1920.99,1404.28 "/>
<polyline clip-path="url(#clip750)" style="stroke:#000000; stroke-linecap:round; stroke-linejoin:round; stroke-width:4; stroke-opacity:1; fill:none" points="2352.76,1423.18 2352.76,1404.28 "/>
<path clip-path="url(#clip750)" d="M193.936 1454.1 Q190.325 1454.1 188.496 1457.66 Q186.691 1461.2 186.691 1468.33 Q186.691 1475.44 188.496 1479.01 Q190.325 1482.55 193.936 1482.55 Q197.57 1482.55 199.376 1479.01 Q201.204 1475.44 201.204 1468.33 Q201.204 1461.2 199.376 1457.66 Q197.57 1454.1 193.936 1454.1 M193.936 1450.39 Q199.746 1450.39 202.802 1455 Q205.88 1459.58 205.88 1468.33 Q205.88 1477.06 202.802 1481.67 Q199.746 1486.25 193.936 1486.25 Q188.126 1486.25 185.047 1481.67 Q181.992 1477.06 181.992 1468.33 Q181.992 1459.58 185.047 1455 Q188.126 1450.39 193.936 1450.39 Z" fill="#000000" fill-rule="nonzero" fill-opacity="1" /><path clip-path="url(#clip750)" d="M620.353 1481.64 L636.672 1481.64 L636.672 1485.58 L614.728 1485.58 L614.728 1481.64 Q617.39 1478.89 621.973 1474.26 Q626.58 1469.61 627.76 1468.27 Q630.006 1465.74 630.885 1464.01 Q631.788 1462.25 631.788 1460.56 Q631.788 1457.8 629.843 1456.07 Q627.922 1454.33 624.82 1454.33 Q622.621 1454.33 620.168 1455.09 Q617.737 1455.86 614.959 1457.41 L614.959 1452.69 Q617.783 1451.55 620.237 1450.97 Q622.691 1450.39 624.728 1450.39 Q630.098 1450.39 633.293 1453.08 Q636.487 1455.77 636.487 1460.26 Q636.487 1462.39 635.677 1464.31 Q634.89 1466.2 632.783 1468.8 Q632.205 1469.47 629.103 1472.69 Q626.001 1475.88 620.353 1481.64 Z" fill="#000000" fill-rule="nonzero" fill-opacity="1" /><path clip-path="url(#clip750)" d="M1060.47 1455.09 L1048.67 1473.54 L1060.47 1473.54 L1060.47 1455.09 M1059.25 1451.02 L1065.13 1451.02 L1065.13 1473.54 L1070.06 1473.54 L1070.06 1477.43 L1065.13 1477.43 L1065.13 1485.58 L1060.47 1485.58 L1060.47 1477.43 L1044.87 1477.43 L1044.87 1472.92 L1059.25 1451.02 Z" fill="#000000" fill-rule="nonzero" fill-opacity="1" /><path clip-path="url(#clip750)" d="M1489.63 1466.44 Q1486.48 1466.44 1484.63 1468.59 Q1482.8 1470.74 1482.8 1474.49 Q1482.8 1478.22 1484.63 1480.39 Q1486.48 1482.55 1489.63 1482.55 Q1492.78 1482.55 1494.61 1480.39 Q1496.46 1478.22 1496.46 1474.49 Q1496.46 1470.74 1494.61 1468.59 Q1492.78 1466.44 1489.63 1466.44 M1498.92 1451.78 L1498.92 1456.04 Q1497.16 1455.21 1495.35 1454.77 Q1493.57 1454.33 1491.81 1454.33 Q1487.18 1454.33 1484.73 1457.45 Q1482.3 1460.58 1481.95 1466.9 Q1483.31 1464.89 1485.37 1463.82 Q1487.43 1462.73 1489.91 1462.73 Q1495.12 1462.73 1498.13 1465.9 Q1501.16 1469.05 1501.16 1474.49 Q1501.16 1479.82 1498.01 1483.03 Q1494.86 1486.25 1489.63 1486.25 Q1483.64 1486.25 1480.47 1481.67 Q1477.3 1477.06 1477.3 1468.33 Q1477.3 1460.14 1481.18 1455.28 Q1485.07 1450.39 1491.62 1450.39 Q1493.38 1450.39 1495.17 1450.74 Q1496.97 1451.09 1498.92 1451.78 Z" fill="#000000" fill-rule="nonzero" fill-opacity="1" /><path clip-path="url(#clip750)" d="M1920.99 1469.17 Q1917.66 1469.17 1915.74 1470.95 Q1913.84 1472.73 1913.84 1475.86 Q1913.84 1478.98 1915.74 1480.77 Q1917.66 1482.55 1920.99 1482.55 Q1924.33 1482.55 1926.25 1480.77 Q1928.17 1478.96 1928.17 1475.86 Q1928.17 1472.73 1926.25 1470.95 Q1924.35 1469.17 1920.99 1469.17 M1916.32 1467.18 Q1913.31 1466.44 1911.62 1464.38 Q1909.95 1462.32 1909.95 1459.35 Q1909.95 1455.21 1912.89 1452.8 Q1915.85 1450.39 1920.99 1450.39 Q1926.15 1450.39 1929.09 1452.8 Q1932.03 1455.21 1932.03 1459.35 Q1932.03 1462.32 1930.34 1464.38 Q1928.68 1466.44 1925.69 1467.18 Q1929.07 1467.96 1930.95 1470.26 Q1932.84 1472.55 1932.84 1475.86 Q1932.84 1480.88 1929.77 1483.57 Q1926.71 1486.25 1920.99 1486.25 Q1915.27 1486.25 1912.2 1483.57 Q1909.14 1480.88 1909.14 1475.86 Q1909.14 1472.55 1911.04 1470.26 Q1912.94 1467.96 1916.32 1467.18 M1914.6 1459.79 Q1914.6 1462.48 1916.27 1463.98 Q1917.96 1465.49 1920.99 1465.49 Q1924 1465.49 1925.69 1463.98 Q1927.4 1462.48 1927.4 1459.79 Q1927.4 1457.11 1925.69 1455.6 Q1924 1454.1 1920.99 1454.1 Q1917.96 1454.1 1916.27 1455.6 Q1914.6 1457.11 1914.6 1459.79 Z" fill="#000000" fill-rule="nonzero" fill-opacity="1" /><path clip-path="url(#clip750)" d="M2327.44 1481.64 L2335.08 1481.64 L2335.08 1455.28 L2326.77 1456.95 L2326.77 1452.69 L2335.04 1451.02 L2339.71 1451.02 L2339.71 1481.64 L2347.35 1481.64 L2347.35 1485.58 L2327.44 1485.58 L2327.44 1481.64 Z" fill="#000000" fill-rule="nonzero" fill-opacity="1" /><path clip-path="url(#clip750)" d="M2366.8 1454.1 Q2363.18 1454.1 2361.36 1457.66 Q2359.55 1461.2 2359.55 1468.33 Q2359.55 1475.44 2361.36 1479.01 Q2363.18 1482.55 2366.8 1482.55 Q2370.43 1482.55 2372.23 1479.01 Q2374.06 1475.44 2374.06 1468.33 Q2374.06 1461.2 2372.23 1457.66 Q2370.43 1454.1 2366.8 1454.1 M2366.8 1450.39 Q2372.61 1450.39 2375.66 1455 Q2378.74 1459.58 2378.74 1468.33 Q2378.74 1477.06 2375.66 1481.67 Q2372.61 1486.25 2366.8 1486.25 Q2360.99 1486.25 2357.91 1481.67 Q2354.85 1477.06 2354.85 1468.33 Q2354.85 1459.58 2357.91 1455 Q2360.99 1450.39 2366.8 1450.39 Z" fill="#000000" fill-rule="nonzero" fill-opacity="1" /><path clip-path="url(#clip750)" d="M1272.41 1522.27 L1272.41 1532.4 L1284.47 1532.4 L1284.47 1536.95 L1272.41 1536.95 L1272.41 1556.3 Q1272.41 1560.66 1273.58 1561.9 Q1274.79 1563.14 1278.45 1563.14 L1284.47 1563.14 L1284.47 1568.04 L1278.45 1568.04 Q1271.67 1568.04 1269.1 1565.53 Q1266.52 1562.98 1266.52 1556.3 L1266.52 1536.95 L1262.22 1536.95 L1262.22 1532.4 L1266.52 1532.4 L1266.52 1522.27 L1272.41 1522.27 Z" fill="#000000" fill-rule="nonzero" fill-opacity="1" /><polyline clip-path="url(#clip750)" style="stroke:#000000; stroke-linecap:round; stroke-linejoin:round; stroke-width:4; stroke-opacity:1; fill:none" points="193.936,1423.18 193.936,47.2441 "/>
<polyline clip-path="url(#clip750)" style="stroke:#000000; stroke-linecap:round; stroke-linejoin:round; stroke-width:4; stroke-opacity:1; fill:none" points="193.936,1390.89 212.834,1390.89 "/>
<polyline clip-path="url(#clip750)" style="stroke:#000000; stroke-linecap:round; stroke-linejoin:round; stroke-width:4; stroke-opacity:1; fill:none" points="193.936,1166.71 212.834,1166.71 "/>
<polyline clip-path="url(#clip750)" style="stroke:#000000; stroke-linecap:round; stroke-linejoin:round; stroke-width:4; stroke-opacity:1; fill:none" points="193.936,942.528 212.834,942.528 "/>
<polyline clip-path="url(#clip750)" style="stroke:#000000; stroke-linecap:round; stroke-linejoin:round; stroke-width:4; stroke-opacity:1; fill:none" points="193.936,718.348 212.834,718.348 "/>
<polyline clip-path="url(#clip750)" style="stroke:#000000; stroke-linecap:round; stroke-linejoin:round; stroke-width:4; stroke-opacity:1; fill:none" points="193.936,494.168 212.834,494.168 "/>
<polyline clip-path="url(#clip750)" style="stroke:#000000; stroke-linecap:round; stroke-linejoin:round; stroke-width:4; stroke-opacity:1; fill:none" points="193.936,269.988 212.834,269.988 "/>
<path clip-path="url(#clip750)" d="M50.9921 1391.34 L80.6679 1391.34 L80.6679 1395.27 L50.9921 1395.27 L50.9921 1391.34 Z" fill="#000000" fill-rule="nonzero" fill-opacity="1" /><path clip-path="url(#clip750)" d="M94.7882 1404.23 L111.108 1404.23 L111.108 1408.17 L89.1632 1408.17 L89.1632 1404.23 Q91.8252 1401.48 96.4085 1396.85 Q101.015 1392.2 102.196 1390.85 Q104.441 1388.33 105.321 1386.59 Q106.223 1384.83 106.223 1383.14 Q106.223 1380.39 104.279 1378.65 Q102.358 1376.92 99.2558 1376.92 Q97.0567 1376.92 94.603 1377.68 Q92.1725 1378.45 89.3947 1380 L89.3947 1375.27 Q92.2188 1374.14 94.6724 1373.56 Q97.1261 1372.98 99.1632 1372.98 Q104.534 1372.98 107.728 1375.67 Q110.922 1378.35 110.922 1382.84 Q110.922 1384.97 110.112 1386.89 Q109.325 1388.79 107.219 1391.39 Q106.64 1392.06 103.538 1395.27 Q100.436 1398.47 94.7882 1404.23 Z" fill="#000000" fill-rule="nonzero" fill-opacity="1" /><path clip-path="url(#clip750)" d="M120.922 1402.29 L125.807 1402.29 L125.807 1408.17 L120.922 1408.17 L120.922 1402.29 Z" fill="#000000" fill-rule="nonzero" fill-opacity="1" /><path clip-path="url(#clip750)" d="M145.992 1376.69 Q142.381 1376.69 140.552 1380.25 Q138.746 1383.79 138.746 1390.92 Q138.746 1398.03 140.552 1401.59 Q142.381 1405.14 145.992 1405.14 Q149.626 1405.14 151.431 1401.59 Q153.26 1398.03 153.26 1390.92 Q153.26 1383.79 151.431 1380.25 Q149.626 1376.69 145.992 1376.69 M145.992 1372.98 Q151.802 1372.98 154.857 1377.59 Q157.936 1382.17 157.936 1390.92 Q157.936 1399.65 154.857 1404.26 Q151.802 1408.84 145.992 1408.84 Q140.181 1408.84 137.103 1404.26 Q134.047 1399.65 134.047 1390.92 Q134.047 1382.17 137.103 1377.59 Q140.181 1372.98 145.992 1372.98 Z" fill="#000000" fill-rule="nonzero" fill-opacity="1" /><path clip-path="url(#clip750)" d="M51.9875 1167.16 L81.6633 1167.16 L81.6633 1171.09 L51.9875 1171.09 L51.9875 1167.16 Z" fill="#000000" fill-rule="nonzero" fill-opacity="1" /><path clip-path="url(#clip750)" d="M92.566 1180.05 L100.205 1180.05 L100.205 1153.69 L91.8947 1155.35 L91.8947 1151.09 L100.159 1149.43 L104.834 1149.43 L104.834 1180.05 L112.473 1180.05 L112.473 1183.99 L92.566 1183.99 L92.566 1180.05 Z" fill="#000000" fill-rule="nonzero" fill-opacity="1" /><path clip-path="url(#clip750)" d="M121.918 1178.11 L126.802 1178.11 L126.802 1183.99 L121.918 1183.99 L121.918 1178.11 Z" fill="#000000" fill-rule="nonzero" fill-opacity="1" /><path clip-path="url(#clip750)" d="M137.033 1149.43 L155.39 1149.43 L155.39 1153.36 L141.316 1153.36 L141.316 1161.83 Q142.334 1161.49 143.353 1161.33 Q144.371 1161.14 145.39 1161.14 Q151.177 1161.14 154.556 1164.31 Q157.936 1167.48 157.936 1172.9 Q157.936 1178.48 154.464 1181.58 Q150.992 1184.66 144.672 1184.66 Q142.496 1184.66 140.228 1184.29 Q137.982 1183.92 135.575 1183.18 L135.575 1178.48 Q137.658 1179.61 139.881 1180.17 Q142.103 1180.72 144.58 1180.72 Q148.584 1180.72 150.922 1178.62 Q153.26 1176.51 153.26 1172.9 Q153.26 1169.29 150.922 1167.18 Q148.584 1165.08 144.58 1165.08 Q142.705 1165.08 140.83 1165.49 Q138.978 1165.91 137.033 1166.79 L137.033 1149.43 Z" fill="#000000" fill-rule="nonzero" fill-opacity="1" /><path clip-path="url(#clip750)" d="M50.9921 942.979 L80.6679 942.979 L80.6679 946.914 L50.9921 946.914 L50.9921 942.979 Z" fill="#000000" fill-rule="nonzero" fill-opacity="1" /><path clip-path="url(#clip750)" d="M91.5706 955.873 L99.2095 955.873 L99.2095 929.507 L90.8993 931.174 L90.8993 926.914 L99.1632 925.248 L103.839 925.248 L103.839 955.873 L111.478 955.873 L111.478 959.808 L91.5706 959.808 L91.5706 955.873 Z" fill="#000000" fill-rule="nonzero" fill-opacity="1" /><path clip-path="url(#clip750)" d="M120.922 953.928 L125.807 953.928 L125.807 959.808 L120.922 959.808 L120.922 953.928 Z" fill="#000000" fill-rule="nonzero" fill-opacity="1" /><path clip-path="url(#clip750)" d="M145.992 928.326 Q142.381 928.326 140.552 931.891 Q138.746 935.433 138.746 942.562 Q138.746 949.669 140.552 953.234 Q142.381 956.775 145.992 956.775 Q149.626 956.775 151.431 953.234 Q153.26 949.669 153.26 942.562 Q153.26 935.433 151.431 931.891 Q149.626 928.326 145.992 928.326 M145.992 924.623 Q151.802 924.623 154.857 929.229 Q157.936 933.812 157.936 942.562 Q157.936 951.289 154.857 955.896 Q151.802 960.479 145.992 960.479 Q140.181 960.479 137.103 955.896 Q134.047 951.289 134.047 942.562 Q134.047 933.812 137.103 929.229 Q140.181 924.623 145.992 924.623 Z" fill="#000000" fill-rule="nonzero" fill-opacity="1" /><path clip-path="url(#clip750)" d="M51.9875 718.799 L81.6633 718.799 L81.6633 722.734 L51.9875 722.734 L51.9875 718.799 Z" fill="#000000" fill-rule="nonzero" fill-opacity="1" /><path clip-path="url(#clip750)" d="M101.756 704.146 Q98.1447 704.146 96.316 707.711 Q94.5104 711.253 94.5104 718.383 Q94.5104 725.489 96.316 729.054 Q98.1447 732.595 101.756 732.595 Q105.39 732.595 107.196 729.054 Q109.024 725.489 109.024 718.383 Q109.024 711.253 107.196 707.711 Q105.39 704.146 101.756 704.146 M101.756 700.443 Q107.566 700.443 110.621 705.049 Q113.7 709.633 113.7 718.383 Q113.7 727.109 110.621 731.716 Q107.566 736.299 101.756 736.299 Q95.9456 736.299 92.8669 731.716 Q89.8114 727.109 89.8114 718.383 Q89.8114 709.633 92.8669 705.049 Q95.9456 700.443 101.756 700.443 Z" fill="#000000" fill-rule="nonzero" fill-opacity="1" /><path clip-path="url(#clip750)" d="M121.918 729.748 L126.802 729.748 L126.802 735.628 L121.918 735.628 L121.918 729.748 Z" fill="#000000" fill-rule="nonzero" fill-opacity="1" /><path clip-path="url(#clip750)" d="M137.033 701.068 L155.39 701.068 L155.39 705.003 L141.316 705.003 L141.316 713.475 Q142.334 713.128 143.353 712.966 Q144.371 712.781 145.39 712.781 Q151.177 712.781 154.556 715.952 Q157.936 719.123 157.936 724.54 Q157.936 730.119 154.464 733.22 Q150.992 736.299 144.672 736.299 Q142.496 736.299 140.228 735.929 Q137.982 735.558 135.575 734.818 L135.575 730.119 Q137.658 731.253 139.881 731.808 Q142.103 732.364 144.58 732.364 Q148.584 732.364 150.922 730.257 Q153.26 728.151 153.26 724.54 Q153.26 720.929 150.922 718.822 Q148.584 716.716 144.58 716.716 Q142.705 716.716 140.83 717.133 Q138.978 717.549 137.033 718.429 L137.033 701.068 Z" fill="#000000" fill-rule="nonzero" fill-opacity="1" /><path clip-path="url(#clip750)" d="M100.76 479.967 Q97.1493 479.967 95.3206 483.531 Q93.515 487.073 93.515 494.203 Q93.515 501.309 95.3206 504.874 Q97.1493 508.415 100.76 508.415 Q104.395 508.415 106.2 504.874 Q108.029 501.309 108.029 494.203 Q108.029 487.073 106.2 483.531 Q104.395 479.967 100.76 479.967 M100.76 476.263 Q106.571 476.263 109.626 480.869 Q112.705 485.453 112.705 494.203 Q112.705 502.929 109.626 507.536 Q106.571 512.119 100.76 512.119 Q94.9502 512.119 91.8715 507.536 Q88.816 502.929 88.816 494.203 Q88.816 485.453 91.8715 480.869 Q94.9502 476.263 100.76 476.263 Z" fill="#000000" fill-rule="nonzero" fill-opacity="1" /><path clip-path="url(#clip750)" d="M120.922 505.568 L125.807 505.568 L125.807 511.448 L120.922 511.448 L120.922 505.568 Z" fill="#000000" fill-rule="nonzero" fill-opacity="1" /><path clip-path="url(#clip750)" d="M145.992 479.967 Q142.381 479.967 140.552 483.531 Q138.746 487.073 138.746 494.203 Q138.746 501.309 140.552 504.874 Q142.381 508.415 145.992 508.415 Q149.626 508.415 151.431 504.874 Q153.26 501.309 153.26 494.203 Q153.26 487.073 151.431 483.531 Q149.626 479.967 145.992 479.967 M145.992 476.263 Q151.802 476.263 154.857 480.869 Q157.936 485.453 157.936 494.203 Q157.936 502.929 154.857 507.536 Q151.802 512.119 145.992 512.119 Q140.181 512.119 137.103 507.536 Q134.047 502.929 134.047 494.203 Q134.047 485.453 137.103 480.869 Q140.181 476.263 145.992 476.263 Z" fill="#000000" fill-rule="nonzero" fill-opacity="1" /><path clip-path="url(#clip750)" d="M101.756 255.787 Q98.1447 255.787 96.316 259.351 Q94.5104 262.893 94.5104 270.023 Q94.5104 277.129 96.316 280.694 Q98.1447 284.236 101.756 284.236 Q105.39 284.236 107.196 280.694 Q109.024 277.129 109.024 270.023 Q109.024 262.893 107.196 259.351 Q105.39 255.787 101.756 255.787 M101.756 252.083 Q107.566 252.083 110.621 256.689 Q113.7 261.273 113.7 270.023 Q113.7 278.75 110.621 283.356 Q107.566 287.939 101.756 287.939 Q95.9456 287.939 92.8669 283.356 Q89.8114 278.75 89.8114 270.023 Q89.8114 261.273 92.8669 256.689 Q95.9456 252.083 101.756 252.083 Z" fill="#000000" fill-rule="nonzero" fill-opacity="1" /><path clip-path="url(#clip750)" d="M121.918 281.388 L126.802 281.388 L126.802 287.268 L121.918 287.268 L121.918 281.388 Z" fill="#000000" fill-rule="nonzero" fill-opacity="1" /><path clip-path="url(#clip750)" d="M137.033 252.708 L155.39 252.708 L155.39 256.643 L141.316 256.643 L141.316 265.115 Q142.334 264.768 143.353 264.606 Q144.371 264.421 145.39 264.421 Q151.177 264.421 154.556 267.592 Q157.936 270.763 157.936 276.18 Q157.936 281.759 154.464 284.861 Q150.992 287.939 144.672 287.939 Q142.496 287.939 140.228 287.569 Q137.982 287.199 135.575 286.458 L135.575 281.759 Q137.658 282.893 139.881 283.449 Q142.103 284.004 144.58 284.004 Q148.584 284.004 150.922 281.898 Q153.26 279.791 153.26 276.18 Q153.26 272.569 150.922 270.463 Q148.584 268.356 144.58 268.356 Q142.705 268.356 140.83 268.773 Q138.978 269.189 137.033 270.069 L137.033 252.708 Z" fill="#000000" fill-rule="nonzero" fill-opacity="1" /><polyline clip-path="url(#clip751)" style="stroke:#009af9; stroke-linecap:round; stroke-linejoin:round; stroke-width:4; stroke-opacity:1; fill:none" points="193.936,494.168 196.097,495.267 198.258,496.351 200.419,497.421 202.58,498.476 204.741,499.518 206.902,500.546 209.063,501.56 211.224,502.561 213.385,503.548 215.546,504.523 217.707,505.484 219.868,506.433 222.029,507.369 224.19,508.293 226.351,509.204 228.512,510.104 230.673,510.991 232.834,511.867 234.995,512.731 237.156,513.584 239.317,514.425 241.478,515.255 243.639,516.074 245.8,516.883 247.961,517.68 250.122,518.467 252.282,519.244 254.443,520.01 256.604,520.767 258.765,521.513 260.926,522.249 263.087,522.975 265.248,523.692 267.409,524.4 269.57,525.097 271.731,525.786 273.892,526.466 276.053,527.136 278.214,527.798 280.375,528.451 282.536,529.095 284.697,529.731 286.858,530.358 289.019,530.977 291.18,531.588 293.341,532.19 295.502,532.785 297.663,533.372 299.824,533.951 301.985,534.522 304.146,535.086 306.307,535.642 308.468,536.191 310.629,536.733 312.79,537.267 314.951,537.795 317.112,538.315 319.273,538.828 321.434,539.335 323.595,539.835 325.756,540.328 327.917,540.815 330.078,541.295 332.239,541.769 334.4,542.237 336.561,542.699 338.722,543.154 340.883,543.603 343.044,544.047 345.205,544.484 347.366,544.916 349.527,545.342 351.688,545.762 353.849,546.177 356.01,546.586 358.171,546.99 360.332,547.388 362.493,547.781 364.653,548.169 366.814,548.552 368.975,548.93 371.136,549.303 373.297,549.67 375.458,550.033 377.619,550.391 379.78,550.745 381.941,551.093 384.102,551.437 386.263,551.777 388.424,552.112 390.585,552.442 392.746,552.769 394.907,553.09 397.068,553.408 399.229,553.721 401.39,554.031 403.551,554.336 405.712,554.637 407.873,554.934 410.034,555.282 412.195,556.18 414.356,557.689 416.517,559.738 418.678,562.258 420.839,565.184 423,568.457 425.161,572.018 427.322,575.815 429.483,579.797 431.644,583.919 433.805,588.139 435.966,592.419 438.127,596.722 440.288,601.019 442.449,605.282 444.61,609.487 446.771,613.615 448.932,617.648 451.093,621.576 453.254,625.388 455.415,629.08 457.576,632.65 459.737,636.101 461.898,639.439 464.059,642.674 466.22,645.818 468.381,648.89 470.542,651.91 472.703,654.903 474.864,657.897 477.024,660.922 479.185,663.934 481.346,666.907 483.507,669.84 485.668,672.734 487.829,675.59 489.99,678.408 492.151,681.189 494.312,683.933 496.473,686.64 498.634,689.312 500.795,691.948 502.956,694.549 505.117,697.116 507.278,699.648 509.439,702.148 511.6,704.614 513.761,707.047 515.922,709.448 518.083,711.818 520.244,714.156 522.405,716.463 524.566,718.74 526.727,720.986 528.888,723.203 531.049,725.39 533.21,727.548 535.371,729.677 537.532,731.779 539.693,733.852 541.854,735.898 544.015,737.916 546.176,739.908 548.337,741.874 550.498,743.813 552.659,745.726 554.82,747.614 556.981,749.477 559.142,751.316 561.303,753.13 563.464,754.919 565.625,756.685 567.786,758.428 569.947,760.148 572.108,761.844 574.269,763.518 576.43,765.17 578.591,766.8 580.752,768.409 582.913,769.996 585.074,771.562 587.235,773.108 589.396,774.633 591.556,776.137 593.717,777.622 595.878,779.087 598.039,780.533 600.2,781.96 602.361,783.367 604.522,784.757 606.683,786.127 608.844,787.48 611.005,788.815 613.166,790.131 615.327,791.431 617.488,792.713 619.649,793.978 621.81,795.227 623.971,796.459 626.132,797.734 628.293,799.727 630.454,802.561 632.615,806.148 634.776,810.409 636.937,815.265 639.098,820.642 641.259,826.469 643.42,832.681 645.581,839.213 647.742,846.007 649.903,853.008 652.064,860.163 654.225,867.424 656.386,874.747 658.547,882.091 660.708,889.419 662.869,896.699 665.03,903.9 667.191,910.997 669.352,917.967 671.513,924.792 673.674,931.458 675.835,937.954 677.996,944.272 680.157,950.409 682.318,956.364 684.479,962.143 686.64,967.752 688.801,973.203 690.962,978.51 693.123,983.694 695.284,988.775 697.445,993.781 699.606,998.741 701.767,1003.69 703.927,1008.66 706.088,1013.64 708.249,1018.55 710.41,1023.4 712.571,1028.19 714.732,1032.91 716.893,1037.56 719.054,1042.16 721.215,1046.7 723.376,1051.17 725.537,1055.59 727.698,1059.94 729.859,1064.24 732.02,1068.49 734.181,1072.67 736.342,1076.8 738.503,1080.88 740.664,1084.9 742.825,1088.87 744.986,1092.79 747.147,1096.65 749.308,1100.46 751.469,1104.23 753.63,1107.94 755.791,1111.6 757.952,1115.22 760.113,1118.78 762.274,1122.3 764.435,1125.77 766.596,1129.2 768.757,1132.58 770.918,1135.92 773.079,1139.21 775.24,1142.46 777.401,1145.66 779.562,1148.83 781.723,1151.95 783.884,1155.03 786.045,1158.07 788.206,1161.07 790.367,1164.02 792.528,1166.94 794.689,1169.83 796.85,1172.67 799.011,1175.47 801.172,1178.24 803.333,1180.97 805.494,1183.67 807.655,1186.33 809.816,1188.95 811.977,1191.54 814.138,1194.09 816.298,1196.61 818.459,1199.1 820.62,1201.56 822.781,1203.98 824.942,1206.37 827.103,1208.73 829.264,1211.05 831.425,1213.35 833.586,1215.62 835.747,1217.85 837.908,1220.06 840.069,1222.23 842.23,1224.12 844.391,1224.01 846.552,1221.79 848.713,1217.72 850.874,1212.02 853.035,1204.92 855.196,1196.61 857.357,1187.3 859.518,1177.17 861.679,1166.38 863.84,1155.09 866.001,1143.44 868.162,1131.56 870.323,1119.58 872.484,1107.59 874.645,1095.7 876.806,1083.97 878.967,1072.47 881.128,1061.27 883.289,1050.4 885.45,1039.89 887.611,1029.75 889.772,1020 891.933,1010.63 894.094,1001.6 896.255,992.892 898.416,984.454 900.577,976.227 902.738,968.138 904.899,960.104 907.06,952.027 909.221,943.814 911.382,935.64 913.543,927.574 915.704,919.615 917.865,911.761 920.026,904.011 922.187,896.365 924.348,888.819 926.509,881.374 928.669,874.027 930.83,866.778 932.991,859.625 935.152,852.567 937.313,845.602 939.474,838.729 941.635,831.948 943.796,825.257 945.957,818.654 948.118,812.138 950.279,805.709 952.44,799.365 954.601,793.105 956.762,786.927 958.923,780.832 961.084,774.817 963.245,768.882 965.406,763.026 967.567,757.247 969.728,751.546 971.889,745.919 974.05,740.368 976.211,734.89 978.372,729.485 980.533,724.152 982.694,718.89 984.855,713.697 987.016,708.574 989.177,703.518 991.338,698.53 993.499,693.608 995.66,688.751 997.821,683.958 999.982,679.23 1002.14,674.564 1004.3,669.96 1006.46,665.417 1008.63,660.934 1010.79,656.511 1012.95,652.146 1015.11,647.839 1017.27,643.59 1019.43,639.396 1021.59,635.259 1023.75,631.175 1025.91,627.147 1028.07,623.171 1030.24,619.248 1032.4,615.377 1034.56,611.557 1036.72,607.788 1038.88,604.068 1041.04,600.398 1043.2,596.776 1045.36,593.203 1047.52,589.677 1049.68,586.198 1051.85,582.764 1054.01,579.378 1056.17,576.987 1058.33,576.269 1060.49,577.006 1062.65,578.995 1064.81,582.042 1066.97,585.969 1069.13,590.61 1071.29,595.813 1073.46,601.438 1075.62,607.359 1077.78,613.463 1079.94,619.648 1082.1,625.827 1084.26,631.927 1086.42,637.886 1088.58,643.655 1090.74,649.201 1092.9,654.5 1095.07,659.544 1097.23,664.337 1099.39,668.895 1101.55,673.25 1103.71,677.445 1105.87,681.535 1108.03,685.59 1110.19,689.693 1112.35,693.915 1114.51,698.12 1116.67,702.27 1118.84,706.364 1121,710.404 1123.16,714.391 1125.32,718.324 1127.48,722.206 1129.64,726.036 1131.8,729.815 1133.96,733.545 1136.12,737.224 1138.28,740.855 1140.45,744.438 1142.61,747.974 1144.77,751.462 1146.93,754.905 1149.09,758.301 1151.25,761.653 1153.41,764.961 1155.57,768.224 1157.73,771.445 1159.89,774.622 1162.06,777.758 1164.22,780.852 1166.38,783.904 1168.54,786.917 1170.7,789.889 1172.86,792.822 1175.02,795.716 1177.18,798.572 1179.34,801.389 1181.5,804.17 1183.67,806.913 1185.83,809.62 1187.99,812.291 1190.15,814.926 1192.31,817.527 1194.47,820.093 1196.63,822.625 1198.79,825.124 1200.95,827.589 1203.11,830.022 1205.28,832.422 1207.44,834.791 1209.6,837.128 1211.76,839.434 1213.92,841.71 1216.08,843.955 1218.24,846.171 1220.4,848.358 1222.56,850.515 1224.72,852.644 1226.88,854.745 1229.05,856.818 1231.21,858.863 1233.37,860.881 1235.53,862.873 1237.69,864.838 1239.85,866.777 1242.01,868.691 1244.17,870.579 1246.33,872.441 1248.49,874.28 1250.66,876.094 1252.82,877.884 1254.98,879.65 1257.14,881.392 1259.3,883.112 1261.46,884.809 1263.62,886.483 1265.78,888.135 1267.94,889.765 1270.1,891.374 1272.27,892.909 1274.43,892.551 1276.59,889.701 1278.75,884.75 1280.91,878.064 1283.07,869.977 1285.23,860.796 1287.39,850.8 1289.55,840.239 1291.71,829.336 1293.88,818.283 1296.04,807.248 1298.2,796.366 1300.36,785.748 1302.52,775.473 1304.68,765.594 1306.84,756.134 1309,747.09 1311.16,738.429 1313.32,730.091 1315.49,721.985 1317.65,713.994 1319.81,705.973 1321.97,697.802 1324.13,689.693 1326.29,681.692 1328.45,673.797 1330.61,666.006 1332.77,658.319 1334.93,650.734 1337.09,643.249 1339.26,635.863 1341.42,628.576 1343.58,621.385 1345.74,614.289 1347.9,607.287 1350.06,600.379 1352.22,593.561 1354.38,586.834 1356.54,580.196 1358.7,573.646 1360.87,567.183 1363.03,560.806 1365.19,554.513 1367.35,548.304 1369.51,542.177 1371.67,536.131 1373.83,530.166 1375.99,524.279 1378.15,518.471 1380.31,512.74 1382.48,507.085 1384.64,501.505 1386.8,495.998 1388.96,490.565 1391.12,485.204 1393.28,479.914 1395.44,474.694 1397.6,469.544 1399.76,464.461 1401.92,459.446 1404.09,454.498 1406.25,449.615 1408.41,444.797 1410.57,440.043 1412.73,435.351 1414.89,430.722 1417.05,426.154 1419.21,421.647 1421.37,417.199 1423.53,412.811 1425.7,408.48 1427.86,404.207 1430.02,399.991 1432.18,395.83 1434.34,391.725 1436.5,387.674 1438.66,383.677 1440.82,379.733 1442.98,375.841 1445.14,372.001 1447.3,368.212 1449.47,364.473 1451.63,360.783 1453.79,357.142 1455.95,353.55 1458.11,350.005 1460.27,346.508 1462.43,343.056 1464.59,339.651 1466.75,336.29 1468.91,332.974 1471.08,329.703 1473.24,326.474 1475.4,323.288 1477.56,320.145 1479.72,317.043 1481.88,313.982 1484.04,310.962 1486.2,307.982 1488.36,305.041 1490.52,302.694 1492.69,302.163 1494.85,303.251 1497.01,305.711 1499.17,309.314 1501.33,313.849 1503.49,319.12 1505.65,324.95 1507.81,331.177 1509.97,337.659 1512.13,344.269 1514.3,350.898 1516.46,357.453 1518.62,363.859 1520.78,370.058 1522.94,376.009 1525.1,381.688 1527.26,387.089 1529.42,392.222 1531.58,397.115 1533.74,401.811 1535.91,406.373 1538.07,410.88 1540.23,415.427 1542.39,420.096 1544.55,424.743 1546.71,429.327 1548.87,433.851 1551.03,438.315 1553.19,442.72 1555.35,447.066 1557.51,451.355 1559.68,455.586 1561.84,459.762 1564,463.883 1566.16,467.948 1568.32,471.96 1570.48,475.919 1572.64,479.825 1574.8,483.679 1576.96,487.483 1579.12,491.236 1581.29,494.939 1583.45,498.593 1585.61,502.199 1587.77,505.756 1589.93,509.267 1592.09,512.731 1594.25,516.149 1596.41,519.522 1598.57,522.85 1600.73,526.134 1602.9,529.375 1605.06,532.572 1607.22,535.727 1609.38,538.84 1611.54,541.912 1613.7,544.943 1615.86,547.934 1618.02,550.885 1620.18,553.797 1622.34,556.671 1624.51,559.506 1626.67,562.304 1628.83,565.065 1630.99,567.789 1633.15,570.477 1635.31,573.13 1637.47,575.747 1639.63,578.33 1641.79,580.878 1643.95,583.393 1646.12,585.874 1648.28,588.323 1650.44,590.739 1652.6,593.122 1654.76,595.475 1656.92,597.796 1659.08,600.086 1661.24,602.346 1663.4,604.576 1665.56,606.776 1667.72,608.948 1669.89,611.09 1672.05,613.204 1674.21,615.29 1676.37,617.348 1678.53,619.38 1680.69,621.384 1682.85,623.361 1685.01,625.313 1687.17,627.238 1689.33,629.138 1691.5,631.013 1693.66,632.863 1695.82,634.688 1697.98,636.489 1700.14,638.237 1702.3,638.254 1704.46,635.95 1706.62,631.826 1708.78,626.334 1710.94,619.871 1713.11,612.783 1715.27,605.366 1717.43,597.863 1719.59,590.466 1721.75,583.314 1723.91,576.496 1726.07,570.047 1728.23,563.954 1730.39,558.149 1732.55,552.513 1734.72,546.877 1736.88,541.103 1739.04,535.38 1741.2,529.733 1743.36,524.16 1745.52,518.661 1747.68,513.235 1749.84,507.881 1752,502.598 1754.16,497.385 1756.33,492.241 1758.49,487.166 1760.65,482.157 1762.81,477.215 1764.97,472.339 1767.13,467.527 1769.29,462.779 1771.45,458.094 1773.61,453.471 1775.77,448.909 1777.93,444.408 1780.1,439.967 1782.26,435.584 1784.42,431.26 1786.58,426.993 1788.74,422.783 1790.9,418.628 1793.06,414.528 1795.22,410.483 1797.38,406.491 1799.54,402.553 1801.71,398.666 1803.87,394.831 1806.03,391.047 1808.19,387.313 1810.35,383.629 1812.51,379.993 1814.67,376.406 1816.83,372.866 1818.99,369.373 1821.15,365.926 1823.32,362.525 1825.48,359.17 1827.64,355.858 1829.8,352.591 1831.96,349.367 1834.12,346.185 1836.28,343.046 1838.44,339.949 1840.6,336.892 1842.76,333.876 1844.93,330.9 1847.09,327.964 1849.25,325.066 1851.41,322.207 1853.57,319.386 1855.73,316.602 1857.89,313.855 1860.05,311.144 1862.21,308.469 1864.37,305.83 1866.54,303.226 1868.7,300.656 1870.86,298.121 1873.02,295.619 1875.18,293.15 1877.34,290.714 1879.5,288.31 1881.66,285.938 1883.82,283.598 1885.98,281.289 1888.15,279.01 1890.31,276.761 1892.47,274.542 1894.63,272.353 1896.79,270.193 1898.95,268.061 1901.11,265.958 1903.27,263.882 1905.43,261.834 1907.59,259.813 1909.75,257.819 1911.92,255.852 1914.08,253.91 1916.24,251.994 1918.4,250.104 1920.56,248.239 1922.72,247.312 1924.88,248.401 1927.04,251.192 1929.2,255.385 1931.36,260.706 1933.53,266.903 1935.69,273.751 1937.85,281.044 1940.01,288.605 1942.17,296.278 1944.33,303.932 1946.49,311.459 1948.65,318.776 1950.81,325.824 1952.97,332.567 1955.14,338.993 1957.3,345.115 1959.46,350.97 1961.62,356.617 1963.78,362.141 1965.94,367.649 1968.1,373.27 1970.26,378.909 1972.42,384.473 1974.58,389.963 1976.75,395.38 1978.91,400.725 1981.07,406 1983.23,411.204 1985.39,416.34 1987.55,421.407 1989.71,426.408 1991.87,431.342 1994.03,436.21 1996.19,441.014 1998.36,445.755 2000.52,450.433 2002.68,455.048 2004.84,459.603 2007,464.097 2009.16,468.531 2011.32,472.907 2013.48,477.225 2015.64,481.485 2017.8,485.689 2019.96,489.837 2022.13,493.93 2024.29,497.969 2026.45,501.954 2028.61,505.886 2030.77,509.767 2032.93,513.595 2035.09,517.373 2037.25,521.101 2039.41,524.779 2041.57,528.409 2043.74,531.991 2045.9,535.525 2048.06,539.012 2050.22,542.453 2052.38,545.848 2054.54,549.199 2056.7,552.505 2058.86,555.767 2061.02,558.986 2063.18,562.162 2065.35,565.296 2067.51,568.389 2069.67,571.44 2071.83,574.452 2073.99,577.423 2076.15,580.355 2078.31,583.248 2080.47,586.102 2082.63,588.919 2084.79,591.698 2086.96,594.441 2089.12,597.147 2091.28,599.818 2093.44,602.452 2095.6,605.052 2097.76,607.618 2099.92,610.149 2102.08,612.647 2104.24,615.112 2106.4,617.544 2108.57,619.944 2110.73,622.312 2112.89,624.649 2115.05,626.955 2117.21,629.23 2119.37,631.475 2121.53,633.69 2123.69,635.876 2125.85,638.033 2128.01,640.161 2130.17,642.261 2132.34,644.333 2134.5,646.378 2136.66,648.331 2138.82,649.753 2140.98,650.628 2143.14,651.03 2145.3,651.028 2147.46,650.686 2149.62,650.064 2151.78,649.218 2153.95,648.197 2156.11,647.049 2158.27,645.813 2160.43,644.528 2162.59,643.224 2164.75,641.93 2166.91,640.667 2169.07,639.455 2171.23,638.307 2173.39,637.231 2175.56,636.232 2177.72,635.309 2179.88,634.457 2182.04,633.667 2184.2,632.924 2186.36,632.209 2188.52,631.499 2190.68,630.765 2192.84,629.982 2195,629.195 2197.17,628.419 2199.33,627.654 2201.49,626.898 2203.65,626.153 2205.81,625.417 2207.97,624.691 2210.13,623.975 2212.29,623.268 2214.45,622.571 2216.61,621.882 2218.78,621.203 2220.94,620.533 2223.1,619.872 2225.26,619.22 2227.42,618.576 2229.58,617.941 2231.74,617.314 2233.9,616.695 2236.06,616.085 2238.22,615.483 2240.38,614.888 2242.55,614.302 2244.71,613.723 2246.87,613.152 2249.03,612.589 2251.19,612.033 2253.35,611.485 2255.51,610.943 2257.67,610.409 2259.83,609.882 2261.99,609.362 2264.16,608.849 2266.32,608.343 2268.48,607.843 2270.64,607.35 2272.8,606.864 2274.96,606.384 2277.12,605.911 2279.28,605.443 2281.44,604.982 2283.6,604.527 2285.77,604.078 2287.93,603.636 2290.09,603.198 2292.25,602.767 2294.41,602.342 2296.57,601.922 2298.73,601.507 2300.89,601.099 2303.05,600.695 2305.21,600.297 2307.38,599.904 2309.54,599.517 2311.7,599.134 2313.86,598.757 2316.02,598.384 2318.18,598.017 2320.34,597.654 2322.5,597.296 2324.66,596.943 2326.82,596.595 2328.99,596.251 2331.15,595.912 2333.31,595.577 2335.47,595.247 2337.63,594.921 2339.79,594.599 2341.95,594.282 2344.11,593.969 2346.27,593.66 2348.43,593.355 2350.59,593.054 2352.76,592.757 "/>
<polyline clip-path="url(#clip751)" style="stroke:#e26f46; stroke-linecap:round; stroke-linejoin:round; stroke-width:4; stroke-opacity:1; fill:none" points="193.936,577.044 196.097,577.044 198.258,577.044 200.419,577.044 202.58,577.044 204.741,577.044 206.902,577.044 209.063,577.044 211.224,577.044 213.385,577.044 215.546,577.044 217.707,577.044 219.868,577.044 222.029,577.044 224.19,577.044 226.351,577.044 228.512,577.044 230.673,577.044 232.834,577.044 234.995,577.044 237.156,577.044 239.317,577.044 241.478,577.044 243.639,577.044 245.8,577.044 247.961,577.044 250.122,577.044 252.282,577.044 254.443,577.044 256.604,577.044 258.765,577.044 260.926,577.044 263.087,577.044 265.248,577.044 267.409,577.044 269.57,577.044 271.731,577.044 273.892,577.044 276.053,577.044 278.214,577.044 280.375,577.044 282.536,577.044 284.697,577.044 286.858,577.044 289.019,577.044 291.18,577.044 293.341,577.044 295.502,577.044 297.663,577.044 299.824,577.044 301.985,577.044 304.146,577.044 306.307,577.044 308.468,577.044 310.629,577.044 312.79,577.044 314.951,577.044 317.112,577.044 319.273,577.044 321.434,577.044 323.595,577.044 325.756,577.044 327.917,577.044 330.078,577.044 332.239,577.044 334.4,577.044 336.561,577.044 338.722,577.044 340.883,577.044 343.044,577.044 345.205,577.044 347.366,577.044 349.527,577.044 351.688,577.044 353.849,577.044 356.01,577.044 358.171,577.044 360.332,577.044 362.493,577.044 364.653,577.044 366.814,577.044 368.975,577.044 371.136,577.044 373.297,577.044 375.458,577.044 377.619,577.044 379.78,577.044 381.941,577.044 384.102,577.044 386.263,577.044 388.424,577.044 390.585,577.044 392.746,577.044 394.907,577.044 397.068,577.044 399.229,577.044 401.39,577.044 403.551,577.044 405.712,577.044 407.873,577.044 410.034,888.144 412.195,888.144 414.356,888.144 416.517,888.144 418.678,888.144 420.839,888.144 423,888.144 425.161,888.144 427.322,888.144 429.483,888.144 431.644,888.144 433.805,888.144 435.966,888.144 438.127,888.144 440.288,888.144 442.449,888.144 444.61,888.144 446.771,888.144 448.932,888.144 451.093,888.144 453.254,888.144 455.415,888.144 457.576,888.144 459.737,888.144 461.898,888.144 464.059,888.144 466.22,888.144 468.381,888.144 470.542,888.144 472.703,888.144 474.864,888.144 477.024,888.144 479.185,888.144 481.346,888.144 483.507,888.144 485.668,888.144 487.829,888.144 489.99,888.144 492.151,888.144 494.312,888.144 496.473,888.144 498.634,888.144 500.795,888.144 502.956,888.144 505.117,888.144 507.278,888.144 509.439,888.144 511.6,888.144 513.761,888.144 515.922,888.144 518.083,888.144 520.244,888.144 522.405,888.144 524.566,888.144 526.727,888.144 528.888,888.144 531.049,888.144 533.21,888.144 535.371,888.144 537.532,888.144 539.693,888.144 541.854,888.144 544.015,888.144 546.176,888.144 548.337,888.144 550.498,888.144 552.659,888.144 554.82,888.144 556.981,888.144 559.142,888.144 561.303,888.144 563.464,888.144 565.625,888.144 567.786,888.144 569.947,888.144 572.108,888.144 574.269,888.144 576.43,888.144 578.591,888.144 580.752,888.144 582.913,888.144 585.074,888.144 587.235,888.144 589.396,888.144 591.556,888.144 593.717,888.144 595.878,888.144 598.039,888.144 600.2,888.144 602.361,888.144 604.522,888.144 606.683,888.144 608.844,888.144 611.005,888.144 613.166,888.144 615.327,888.144 617.488,888.144 619.649,888.144 621.81,888.144 623.971,888.144 626.132,1384.24 628.293,1384.24 630.454,1384.24 632.615,1384.24 634.776,1384.24 636.937,1384.24 639.098,1384.24 641.259,1384.24 643.42,1384.24 645.581,1384.24 647.742,1384.24 649.903,1384.24 652.064,1384.24 654.225,1384.24 656.386,1384.24 658.547,1384.24 660.708,1384.24 662.869,1384.24 665.03,1384.24 667.191,1384.24 669.352,1384.24 671.513,1384.24 673.674,1384.24 675.835,1384.24 677.996,1384.24 680.157,1384.24 682.318,1384.24 684.479,1384.24 686.64,1384.24 688.801,1384.24 690.962,1384.24 693.123,1384.24 695.284,1384.24 697.445,1384.24 699.606,1384.24 701.767,1384.24 703.927,1384.24 706.088,1384.24 708.249,1384.24 710.41,1384.24 712.571,1384.24 714.732,1384.24 716.893,1384.24 719.054,1384.24 721.215,1384.24 723.376,1384.24 725.537,1384.24 727.698,1384.24 729.859,1384.24 732.02,1384.24 734.181,1384.24 736.342,1384.24 738.503,1384.24 740.664,1384.24 742.825,1384.24 744.986,1384.24 747.147,1384.24 749.308,1384.24 751.469,1384.24 753.63,1384.24 755.791,1384.24 757.952,1384.24 760.113,1384.24 762.274,1384.24 764.435,1384.24 766.596,1384.24 768.757,1384.24 770.918,1384.24 773.079,1384.24 775.24,1384.24 777.401,1384.24 779.562,1384.24 781.723,1384.24 783.884,1384.24 786.045,1384.24 788.206,1384.24 790.367,1384.24 792.528,1384.24 794.689,1384.24 796.85,1384.24 799.011,1384.24 801.172,1384.24 803.333,1384.24 805.494,1384.24 807.655,1384.24 809.816,1384.24 811.977,1384.24 814.138,1384.24 816.298,1384.24 818.459,1384.24 820.62,1384.24 822.781,1384.24 824.942,1384.24 827.103,1384.24 829.264,1384.24 831.425,1384.24 833.586,1384.24 835.747,1384.24 837.908,1384.24 840.069,1384.24 842.23,327.244 844.391,327.244 846.552,327.244 848.713,327.244 850.874,327.244 853.035,327.244 855.196,327.244 857.357,327.244 859.518,327.244 861.679,327.244 863.84,327.244 866.001,327.244 868.162,327.244 870.323,327.244 872.484,327.244 874.645,327.244 876.806,327.244 878.967,327.244 881.128,327.244 883.289,327.244 885.45,327.244 887.611,327.244 889.772,327.244 891.933,327.244 894.094,327.244 896.255,327.244 898.416,327.244 900.577,327.244 902.738,327.244 904.899,327.244 907.06,327.244 909.221,327.244 911.382,327.244 913.543,327.244 915.704,327.244 917.865,327.244 920.026,327.244 922.187,327.244 924.348,327.244 926.509,327.244 928.669,327.244 930.83,327.244 932.991,327.244 935.152,327.244 937.313,327.244 939.474,327.244 941.635,327.244 943.796,327.244 945.957,327.244 948.118,327.244 950.279,327.244 952.44,327.244 954.601,327.244 956.762,327.244 958.923,327.244 961.084,327.244 963.245,327.244 965.406,327.244 967.567,327.244 969.728,327.244 971.889,327.244 974.05,327.244 976.211,327.244 978.372,327.244 980.533,327.244 982.694,327.244 984.855,327.244 987.016,327.244 989.177,327.244 991.338,327.244 993.499,327.244 995.66,327.244 997.821,327.244 999.982,327.244 1002.14,327.244 1004.3,327.244 1006.46,327.244 1008.63,327.244 1010.79,327.244 1012.95,327.244 1015.11,327.244 1017.27,327.244 1019.43,327.244 1021.59,327.244 1023.75,327.244 1025.91,327.244 1028.07,327.244 1030.24,327.244 1032.4,327.244 1034.56,327.244 1036.72,327.244 1038.88,327.244 1041.04,327.244 1043.2,327.244 1045.36,327.244 1047.52,327.244 1049.68,327.244 1051.85,327.244 1054.01,327.244 1056.17,327.244 1058.33,1011.1 1060.49,1011.1 1062.65,1011.1 1064.81,1011.1 1066.97,1011.1 1069.13,1011.1 1071.29,1011.1 1073.46,1011.1 1075.62,1011.1 1077.78,1011.1 1079.94,1011.1 1082.1,1011.1 1084.26,1011.1 1086.42,1011.1 1088.58,1011.1 1090.74,1011.1 1092.9,1011.1 1095.07,1011.1 1097.23,1011.1 1099.39,1011.1 1101.55,1011.1 1103.71,1011.1 1105.87,1011.1 1108.03,1011.1 1110.19,1011.1 1112.35,1011.1 1114.51,1011.1 1116.67,1011.1 1118.84,1011.1 1121,1011.1 1123.16,1011.1 1125.32,1011.1 1127.48,1011.1 1129.64,1011.1 1131.8,1011.1 1133.96,1011.1 1136.12,1011.1 1138.28,1011.1 1140.45,1011.1 1142.61,1011.1 1144.77,1011.1 1146.93,1011.1 1149.09,1011.1 1151.25,1011.1 1153.41,1011.1 1155.57,1011.1 1157.73,1011.1 1159.89,1011.1 1162.06,1011.1 1164.22,1011.1 1166.38,1011.1 1168.54,1011.1 1170.7,1011.1 1172.86,1011.1 1175.02,1011.1 1177.18,1011.1 1179.34,1011.1 1181.5,1011.1 1183.67,1011.1 1185.83,1011.1 1187.99,1011.1 1190.15,1011.1 1192.31,1011.1 1194.47,1011.1 1196.63,1011.1 1198.79,1011.1 1200.95,1011.1 1203.11,1011.1 1205.28,1011.1 1207.44,1011.1 1209.6,1011.1 1211.76,1011.1 1213.92,1011.1 1216.08,1011.1 1218.24,1011.1 1220.4,1011.1 1222.56,1011.1 1224.72,1011.1 1226.88,1011.1 1229.05,1011.1 1231.21,1011.1 1233.37,1011.1 1235.53,1011.1 1237.69,1011.1 1239.85,1011.1 1242.01,1011.1 1244.17,1011.1 1246.33,1011.1 1248.49,1011.1 1250.66,1011.1 1252.82,1011.1 1254.98,1011.1 1257.14,1011.1 1259.3,1011.1 1261.46,1011.1 1263.62,1011.1 1265.78,1011.1 1267.94,1011.1 1270.1,1011.1 1272.27,1011.1 1274.43,86.1857 1276.59,86.1857 1278.75,86.1857 1280.91,86.1857 1283.07,86.1857 1285.23,86.1857 1287.39,86.1857 1289.55,86.1857 1291.71,86.1857 1293.88,86.1857 1296.04,86.1857 1298.2,86.1857 1300.36,86.1857 1302.52,86.1857 1304.68,86.1857 1306.84,86.1857 1309,86.1857 1311.16,86.1857 1313.32,86.1857 1315.49,86.1857 1317.65,86.1857 1319.81,86.1857 1321.97,86.1857 1324.13,86.1857 1326.29,86.1857 1328.45,86.1857 1330.61,86.1857 1332.77,86.1857 1334.93,86.1857 1337.09,86.1857 1339.26,86.1857 1341.42,86.1857 1343.58,86.1857 1345.74,86.1857 1347.9,86.1857 1350.06,86.1857 1352.22,86.1857 1354.38,86.1857 1356.54,86.1857 1358.7,86.1857 1360.87,86.1857 1363.03,86.1857 1365.19,86.1857 1367.35,86.1857 1369.51,86.1857 1371.67,86.1857 1373.83,86.1857 1375.99,86.1857 1378.15,86.1857 1380.31,86.1857 1382.48,86.1857 1384.64,86.1857 1386.8,86.1857 1388.96,86.1857 1391.12,86.1857 1393.28,86.1857 1395.44,86.1857 1397.6,86.1857 1399.76,86.1857 1401.92,86.1857 1404.09,86.1857 1406.25,86.1857 1408.41,86.1857 1410.57,86.1857 1412.73,86.1857 1414.89,86.1857 1417.05,86.1857 1419.21,86.1857 1421.37,86.1857 1423.53,86.1857 1425.7,86.1857 1427.86,86.1857 1430.02,86.1857 1432.18,86.1857 1434.34,86.1857 1436.5,86.1857 1438.66,86.1857 1440.82,86.1857 1442.98,86.1857 1445.14,86.1857 1447.3,86.1857 1449.47,86.1857 1451.63,86.1857 1453.79,86.1857 1455.95,86.1857 1458.11,86.1857 1460.27,86.1857 1462.43,86.1857 1464.59,86.1857 1466.75,86.1857 1468.91,86.1857 1471.08,86.1857 1473.24,86.1857 1475.4,86.1857 1477.56,86.1857 1479.72,86.1857 1481.88,86.1857 1484.04,86.1857 1486.2,86.1857 1488.36,86.1857 1490.52,770.545 1492.69,770.545 1494.85,770.545 1497.01,770.545 1499.17,770.545 1501.33,770.545 1503.49,770.545 1505.65,770.545 1507.81,770.545 1509.97,770.545 1512.13,770.545 1514.3,770.545 1516.46,770.545 1518.62,770.545 1520.78,770.545 1522.94,770.545 1525.1,770.545 1527.26,770.545 1529.42,770.545 1531.58,770.545 1533.74,770.545 1535.91,770.545 1538.07,770.545 1540.23,770.545 1542.39,770.545 1544.55,770.545 1546.71,770.545 1548.87,770.545 1551.03,770.545 1553.19,770.545 1555.35,770.545 1557.51,770.545 1559.68,770.545 1561.84,770.545 1564,770.545 1566.16,770.545 1568.32,770.545 1570.48,770.545 1572.64,770.545 1574.8,770.545 1576.96,770.545 1579.12,770.545 1581.29,770.545 1583.45,770.545 1585.61,770.545 1587.77,770.545 1589.93,770.545 1592.09,770.545 1594.25,770.545 1596.41,770.545 1598.57,770.545 1600.73,770.545 1602.9,770.545 1605.06,770.545 1607.22,770.545 1609.38,770.545 1611.54,770.545 1613.7,770.545 1615.86,770.545 1618.02,770.545 1620.18,770.545 1622.34,770.545 1624.51,770.545 1626.67,770.545 1628.83,770.545 1630.99,770.545 1633.15,770.545 1635.31,770.545 1637.47,770.545 1639.63,770.545 1641.79,770.545 1643.95,770.545 1646.12,770.545 1648.28,770.545 1650.44,770.545 1652.6,770.545 1654.76,770.545 1656.92,770.545 1659.08,770.545 1661.24,770.545 1663.4,770.545 1665.56,770.545 1667.72,770.545 1669.89,770.545 1672.05,770.545 1674.21,770.545 1676.37,770.545 1678.53,770.545 1680.69,770.545 1682.85,770.545 1685.01,770.545 1687.17,770.545 1689.33,770.545 1691.5,770.545 1693.66,770.545 1695.82,770.545 1697.98,770.545 1700.14,770.545 1702.3,770.545 1704.46,770.545 1706.62,109.408 1708.78,109.408 1710.94,109.408 1713.11,109.408 1715.27,109.408 1717.43,109.408 1719.59,109.408 1721.75,109.408 1723.91,109.408 1726.07,109.408 1728.23,109.408 1730.39,109.408 1732.55,109.408 1734.72,109.408 1736.88,109.408 1739.04,109.408 1741.2,109.408 1743.36,109.408 1745.52,109.408 1747.68,109.408 1749.84,109.408 1752,109.408 1754.16,109.408 1756.33,109.408 1758.49,109.408 1760.65,109.408 1762.81,109.408 1764.97,109.408 1767.13,109.408 1769.29,109.408 1771.45,109.408 1773.61,109.408 1775.77,109.408 1777.93,109.408 1780.1,109.408 1782.26,109.408 1784.42,109.408 1786.58,109.408 1788.74,109.408 1790.9,109.408 1793.06,109.408 1795.22,109.408 1797.38,109.408 1799.54,109.408 1801.71,109.408 1803.87,109.408 1806.03,109.408 1808.19,109.408 1810.35,109.408 1812.51,109.408 1814.67,109.408 1816.83,109.408 1818.99,109.408 1821.15,109.408 1823.32,109.408 1825.48,109.408 1827.64,109.408 1829.8,109.408 1831.96,109.408 1834.12,109.408 1836.28,109.408 1838.44,109.408 1840.6,109.408 1842.76,109.408 1844.93,109.408 1847.09,109.408 1849.25,109.408 1851.41,109.408 1853.57,109.408 1855.73,109.408 1857.89,109.408 1860.05,109.408 1862.21,109.408 1864.37,109.408 1866.54,109.408 1868.7,109.408 1870.86,109.408 1873.02,109.408 1875.18,109.408 1877.34,109.408 1879.5,109.408 1881.66,109.408 1883.82,109.408 1885.98,109.408 1888.15,109.408 1890.31,109.408 1892.47,109.408 1894.63,109.408 1896.79,109.408 1898.95,109.408 1901.11,109.408 1903.27,109.408 1905.43,109.408 1907.59,109.408 1909.75,109.408 1911.92,109.408 1914.08,109.408 1916.24,109.408 1918.4,109.408 1920.56,109.408 1922.72,798.56 1924.88,798.56 1927.04,798.56 1929.2,798.56 1931.36,798.56 1933.53,798.56 1935.69,798.56 1937.85,798.56 1940.01,798.56 1942.17,798.56 1944.33,798.56 1946.49,798.56 1948.65,798.56 1950.81,798.56 1952.97,798.56 1955.14,798.56 1957.3,798.56 1959.46,798.56 1961.62,798.56 1963.78,798.56 1965.94,798.56 1968.1,798.56 1970.26,798.56 1972.42,798.56 1974.58,798.56 1976.75,798.56 1978.91,798.56 1981.07,798.56 1983.23,798.56 1985.39,798.56 1987.55,798.56 1989.71,798.56 1991.87,798.56 1994.03,798.56 1996.19,798.56 1998.36,798.56 2000.52,798.56 2002.68,798.56 2004.84,798.56 2007,798.56 2009.16,798.56 2011.32,798.56 2013.48,798.56 2015.64,798.56 2017.8,798.56 2019.96,798.56 2022.13,798.56 2024.29,798.56 2026.45,798.56 2028.61,798.56 2030.77,798.56 2032.93,798.56 2035.09,798.56 2037.25,798.56 2039.41,798.56 2041.57,798.56 2043.74,798.56 2045.9,798.56 2048.06,798.56 2050.22,798.56 2052.38,798.56 2054.54,798.56 2056.7,798.56 2058.86,798.56 2061.02,798.56 2063.18,798.56 2065.35,798.56 2067.51,798.56 2069.67,798.56 2071.83,798.56 2073.99,798.56 2076.15,798.56 2078.31,798.56 2080.47,798.56 2082.63,798.56 2084.79,798.56 2086.96,798.56 2089.12,798.56 2091.28,798.56 2093.44,798.56 2095.6,798.56 2097.76,798.56 2099.92,798.56 2102.08,798.56 2104.24,798.56 2106.4,798.56 2108.57,798.56 2110.73,798.56 2112.89,798.56 2115.05,798.56 2117.21,798.56 2119.37,798.56 2121.53,798.56 2123.69,798.56 2125.85,798.56 2128.01,798.56 2130.17,798.56 2132.34,798.56 2134.5,798.56 2136.66,798.56 2138.82,570.664 2140.98,570.664 2143.14,570.664 2145.3,570.664 2147.46,570.664 2149.62,570.664 2151.78,570.664 2153.95,570.664 2156.11,570.664 2158.27,570.664 2160.43,570.664 2162.59,570.664 2164.75,570.664 2166.91,570.664 2169.07,570.664 2171.23,570.664 2173.39,570.664 2175.56,570.664 2177.72,570.664 2179.88,570.664 2182.04,570.664 2184.2,570.664 2186.36,570.664 2188.52,570.664 2190.68,570.664 2192.84,570.664 2195,570.664 2197.17,570.664 2199.33,570.664 2201.49,570.664 2203.65,570.664 2205.81,570.664 2207.97,570.664 2210.13,570.664 2212.29,570.664 2214.45,570.664 2216.61,570.664 2218.78,570.664 2220.94,570.664 2223.1,570.664 2225.26,570.664 2227.42,570.664 2229.58,570.664 2231.74,570.664 2233.9,570.664 2236.06,570.664 2238.22,570.664 2240.38,570.664 2242.55,570.664 2244.71,570.664 2246.87,570.664 2249.03,570.664 2251.19,570.664 2253.35,570.664 2255.51,570.664 2257.67,570.664 2259.83,570.664 2261.99,570.664 2264.16,570.664 2266.32,570.664 2268.48,570.664 2270.64,570.664 2272.8,570.664 2274.96,570.664 2277.12,570.664 2279.28,570.664 2281.44,570.664 2283.6,570.664 2285.77,570.664 2287.93,570.664 2290.09,570.664 2292.25,570.664 2294.41,570.664 2296.57,570.664 2298.73,570.664 2300.89,570.664 2303.05,570.664 2305.21,570.664 2307.38,570.664 2309.54,570.664 2311.7,570.664 2313.86,570.664 2316.02,570.664 2318.18,570.664 2320.34,570.664 2322.5,570.664 2324.66,570.664 2326.82,570.664 2328.99,570.664 2331.15,570.664 2333.31,570.664 2335.47,570.664 2337.63,570.664 2339.79,570.664 2341.95,570.664 2344.11,570.664 2346.27,570.664 2348.43,570.664 2350.59,570.664 2352.76,570.664 "/>
<path clip-path="url(#clip750)" d="M265.897 248.629 L506.917 248.629 L506.917 93.1086 L265.897 93.1086  Z" fill="#ffffff" fill-rule="evenodd" fill-opacity="1"/>
<polyline clip-path="url(#clip750)" style="stroke:#000000; stroke-linecap:round; stroke-linejoin:round; stroke-width:4; stroke-opacity:1; fill:none" points="265.897,248.629 506.917,248.629 506.917,93.1086 265.897,93.1086 265.897,248.629 "/>
<polyline clip-path="url(#clip750)" style="stroke:#009af9; stroke-linecap:round; stroke-linejoin:round; stroke-width:4; stroke-opacity:1; fill:none" points="289.884,144.949 433.805,144.949 "/>
<path clip-path="url(#clip750)" d="M482.444 136.303 L473.069 148.919 L482.931 162.229 L477.907 162.229 L470.361 152.043 L462.815 162.229 L457.792 162.229 L467.861 148.664 L458.648 136.303 L463.671 136.303 L470.546 145.539 L477.421 136.303 L482.444 136.303 Z" fill="#000000" fill-rule="nonzero" fill-opacity="1" /><polyline clip-path="url(#clip750)" style="stroke:#e26f46; stroke-linecap:round; stroke-linejoin:round; stroke-width:4; stroke-opacity:1; fill:none" points="289.884,196.789 433.805,196.789 "/>
<path clip-path="url(#clip750)" d="M474.296 178.05 L474.296 181.592 L470.222 181.592 Q467.931 181.592 467.028 182.518 Q466.148 183.444 466.148 185.851 L466.148 188.143 L473.162 188.143 L473.162 191.453 L466.148 191.453 L466.148 214.069 L461.866 214.069 L461.866 191.453 L457.792 191.453 L457.792 188.143 L461.866 188.143 L461.866 186.337 Q461.866 182.009 463.88 180.041 Q465.894 178.05 470.269 178.05 L474.296 178.05 Z" fill="#000000" fill-rule="nonzero" fill-opacity="1" /></svg>
