<?xml version="1.0" encoding="utf-8"?>
<svg xmlns="http://www.w3.org/2000/svg" xmlns:xlink="http://www.w3.org/1999/xlink" width="600" height="400" viewBox="0 0 2400 1600">
<defs>
  <clipPath id="clip340">
    <rect x="0" y="0" width="2400" height="1600"/>
  </clipPath>
</defs>
<path clip-path="url(#clip340)" d="M0 1600 L2400 1600 L2400 0 L0 0  Z" fill="#ffffff" fill-rule="evenodd" fill-opacity="1"/>
<defs>
  <clipPath id="clip341">
    <rect x="480" y="0" width="1681" height="1600"/>
  </clipPath>
</defs>
<path clip-path="url(#clip340)" d="M147.478 1423.18 L2352.76 1423.18 L2352.76 47.2441 L147.478 47.2441  Z" fill="#ffffff" fill-rule="evenodd" fill-opacity="1"/>
<defs>
  <clipPath id="clip342">
    <rect x="147" y="47" width="2206" height="1377"/>
  </clipPath>
</defs>
<polyline clip-path="url(#clip342)" style="stroke:#000000; stroke-linecap:round; stroke-linejoin:round; stroke-width:2; stroke-opacity:0.1; fill:none" points="147.478,1423.18 147.478,47.2441 "/>
<polyline clip-path="url(#clip342)" style="stroke:#000000; stroke-linecap:round; stroke-linejoin:round; stroke-width:2; stroke-opacity:0.1; fill:none" points="588.534,1423.18 588.534,47.2441 "/>
<polyline clip-path="url(#clip342)" style="stroke:#000000; stroke-linecap:round; stroke-linejoin:round; stroke-width:2; stroke-opacity:0.1; fill:none" points="1029.59,1423.18 1029.59,47.2441 "/>
<polyline clip-path="url(#clip342)" style="stroke:#000000; stroke-linecap:round; stroke-linejoin:round; stroke-width:2; stroke-opacity:0.1; fill:none" points="1470.64,1423.18 1470.64,47.2441 "/>
<polyline clip-path="url(#clip342)" style="stroke:#000000; stroke-linecap:round; stroke-linejoin:round; stroke-width:2; stroke-opacity:0.1; fill:none" points="1911.7,1423.18 1911.7,47.2441 "/>
<polyline clip-path="url(#clip342)" style="stroke:#000000; stroke-linecap:round; stroke-linejoin:round; stroke-width:2; stroke-opacity:0.1; fill:none" points="2352.76,1423.18 2352.76,47.2441 "/>
<polyline clip-path="url(#clip340)" style="stroke:#000000; stroke-linecap:round; stroke-linejoin:round; stroke-width:4; stroke-opacity:1; fill:none" points="147.478,1423.18 2352.76,1423.18 "/>
<polyline clip-path="url(#clip340)" style="stroke:#000000; stroke-linecap:round; stroke-linejoin:round; stroke-width:4; stroke-opacity:1; fill:none" points="147.478,1423.18 147.478,1404.28 "/>
<polyline clip-path="url(#clip340)" style="stroke:#000000; stroke-linecap:round; stroke-linejoin:round; stroke-width:4; stroke-opacity:1; fill:none" points="588.534,1423.18 588.534,1404.28 "/>
<polyline clip-path="url(#clip340)" style="stroke:#000000; stroke-linecap:round; stroke-linejoin:round; stroke-width:4; stroke-opacity:1; fill:none" points="1029.59,1423.18 1029.59,1404.28 "/>
<polyline clip-path="url(#clip340)" style="stroke:#000000; stroke-linecap:round; stroke-linejoin:round; stroke-width:4; stroke-opacity:1; fill:none" points="1470.64,1423.18 1470.64,1404.28 "/>
<polyline clip-path="url(#clip340)" style="stroke:#000000; stroke-linecap:round; stroke-linejoin:round; stroke-width:4; stroke-opacity:1; fill:none" points="1911.7,1423.18 1911.7,1404.28 "/>
<polyline clip-path="url(#clip340)" style="stroke:#000000; stroke-linecap:round; stroke-linejoin:round; stroke-width:4; stroke-opacity:1; fill:none" points="2352.76,1423.18 2352.76,1404.28 "/>
<path clip-path="url(#clip340)" d="M147.478 1454.1 Q143.867 1454.1 142.038 1457.66 Q140.233 1461.2 140.233 1468.33 Q140.233 1475.44 142.038 1479.01 Q143.867 1482.55 147.478 1482.55 Q151.112 1482.55 152.918 1479.01 Q154.746 1475.44 154.746 1468.33 Q154.746 1461.2 152.918 1457.66 Q151.112 1454.1 147.478 1454.1 M147.478 1450.39 Q153.288 1450.39 156.344 1455 Q159.422 1459.58 159.422 1468.33 Q159.422 1477.06 156.344 1481.67 Q153.288 1486.25 147.478 1486.25 Q141.668 1486.25 138.589 1481.67 Q135.534 1477.06 135.534 1468.33 Q135.534 1459.58 138.589 1455 Q141.668 1450.39 147.478 1450.39 Z" fill="#000000" fill-rule="nonzero" fill-opacity="1" /><path clip-path="url(#clip340)" d="M583.186 1481.64 L599.506 1481.64 L599.506 1485.58 L577.561 1485.58 L577.561 1481.64 Q580.223 1478.89 584.807 1474.26 Q589.413 1469.61 590.594 1468.27 Q592.839 1465.74 593.719 1464.01 Q594.621 1462.25 594.621 1460.56 Q594.621 1457.8 592.677 1456.07 Q590.756 1454.33 587.654 1454.33 Q585.455 1454.33 583.001 1455.09 Q580.571 1455.86 577.793 1457.41 L577.793 1452.69 Q580.617 1451.55 583.071 1450.97 Q585.524 1450.39 587.561 1450.39 Q592.932 1450.39 596.126 1453.08 Q599.32 1455.77 599.32 1460.26 Q599.32 1462.39 598.51 1464.31 Q597.723 1466.2 595.617 1468.8 Q595.038 1469.47 591.936 1472.69 Q588.834 1475.88 583.186 1481.64 Z" fill="#000000" fill-rule="nonzero" fill-opacity="1" /><path clip-path="url(#clip340)" d="M1032.6 1455.09 L1020.79 1473.54 L1032.6 1473.54 L1032.6 1455.09 M1031.37 1451.02 L1037.25 1451.02 L1037.25 1473.54 L1042.18 1473.54 L1042.18 1477.43 L1037.25 1477.43 L1037.25 1485.58 L1032.6 1485.58 L1032.6 1477.43 L1017 1477.43 L1017 1472.92 L1031.37 1451.02 Z" fill="#000000" fill-rule="nonzero" fill-opacity="1" /><path clip-path="url(#clip340)" d="M1471.05 1466.44 Q1467.9 1466.44 1466.05 1468.59 Q1464.22 1470.74 1464.22 1474.49 Q1464.22 1478.22 1466.05 1480.39 Q1467.9 1482.55 1471.05 1482.55 Q1474.2 1482.55 1476.03 1480.39 Q1477.88 1478.22 1477.88 1474.49 Q1477.88 1470.74 1476.03 1468.59 Q1474.2 1466.44 1471.05 1466.44 M1480.33 1451.78 L1480.33 1456.04 Q1478.57 1455.21 1476.77 1454.77 Q1474.98 1454.33 1473.23 1454.33 Q1468.6 1454.33 1466.14 1457.45 Q1463.71 1460.58 1463.36 1466.9 Q1464.73 1464.89 1466.79 1463.82 Q1468.85 1462.73 1471.33 1462.73 Q1476.54 1462.73 1479.55 1465.9 Q1482.58 1469.05 1482.58 1474.49 Q1482.58 1479.82 1479.43 1483.03 Q1476.28 1486.25 1471.05 1486.25 Q1465.05 1486.25 1461.88 1481.67 Q1458.71 1477.06 1458.71 1468.33 Q1458.71 1460.14 1462.6 1455.28 Q1466.49 1450.39 1473.04 1450.39 Q1474.8 1450.39 1476.58 1450.74 Q1478.39 1451.09 1480.33 1451.78 Z" fill="#000000" fill-rule="nonzero" fill-opacity="1" /><path clip-path="url(#clip340)" d="M1911.7 1469.17 Q1908.37 1469.17 1906.45 1470.95 Q1904.55 1472.73 1904.55 1475.86 Q1904.55 1478.98 1906.45 1480.77 Q1908.37 1482.55 1911.7 1482.55 Q1915.03 1482.55 1916.95 1480.77 Q1918.88 1478.96 1918.88 1475.86 Q1918.88 1472.73 1916.95 1470.95 Q1915.06 1469.17 1911.7 1469.17 M1907.02 1467.18 Q1904.02 1466.44 1902.33 1464.38 Q1900.66 1462.32 1900.66 1459.35 Q1900.66 1455.21 1903.6 1452.8 Q1906.56 1450.39 1911.7 1450.39 Q1916.86 1450.39 1919.8 1452.8 Q1922.74 1455.21 1922.74 1459.35 Q1922.74 1462.32 1921.05 1464.38 Q1919.39 1466.44 1916.4 1467.18 Q1919.78 1467.96 1921.65 1470.26 Q1923.55 1472.55 1923.55 1475.86 Q1923.55 1480.88 1920.47 1483.57 Q1917.42 1486.25 1911.7 1486.25 Q1905.98 1486.25 1902.9 1483.57 Q1899.85 1480.88 1899.85 1475.86 Q1899.85 1472.55 1901.75 1470.26 Q1903.64 1467.96 1907.02 1467.18 M1905.31 1459.79 Q1905.31 1462.48 1906.98 1463.98 Q1908.67 1465.49 1911.7 1465.49 Q1914.71 1465.49 1916.4 1463.98 Q1918.11 1462.48 1918.11 1459.79 Q1918.11 1457.11 1916.4 1455.6 Q1914.71 1454.1 1911.7 1454.1 Q1908.67 1454.1 1906.98 1455.6 Q1905.31 1457.11 1905.31 1459.79 Z" fill="#000000" fill-rule="nonzero" fill-opacity="1" /><path clip-path="url(#clip340)" d="M2327.44 1481.64 L2335.08 1481.64 L2335.08 1455.28 L2326.77 1456.95 L2326.77 1452.69 L2335.04 1451.02 L2339.71 1451.02 L2339.71 1481.64 L2347.35 1481.64 L2347.35 1485.58 L2327.44 1485.58 L2327.44 1481.64 Z" fill="#000000" fill-rule="nonzero" fill-opacity="1" /><path clip-path="url(#clip340)" d="M2366.8 1454.1 Q2363.18 1454.1 2361.36 1457.66 Q2359.55 1461.2 2359.55 1468.33 Q2359.55 1475.44 2361.36 1479.01 Q2363.18 1482.55 2366.8 1482.55 Q2370.43 1482.55 2372.23 1479.01 Q2374.06 1475.44 2374.06 1468.33 Q2374.06 1461.2 2372.23 1457.66 Q2370.43 1454.1 2366.8 1454.1 M2366.8 1450.39 Q2372.61 1450.39 2375.66 1455 Q2378.74 1459.58 2378.74 1468.33 Q2378.74 1477.06 2375.66 1481.67 Q2372.61 1486.25 2366.8 1486.25 Q2360.99 1486.25 2357.91 1481.67 Q2354.85 1477.06 2354.85 1468.33 Q2354.85 1459.58 2357.91 1455 Q2360.99 1450.39 2366.8 1450.39 Z" fill="#000000" fill-rule="nonzero" fill-opacity="1" /><path clip-path="url(#clip340)" d="M1249.18 1522.27 L1249.18 1532.4 L1261.24 1532.4 L1261.24 1536.95 L1249.18 1536.95 L1249.18 1556.3 Q1249.18 1560.66 1250.36 1561.9 Q1251.57 1563.14 1255.23 1563.14 L1261.24 1563.14 L1261.24 1568.04 L1255.23 1568.04 Q1248.45 1568.04 1245.87 1565.53 Q1243.29 1562.98 1243.29 1556.3 L1243.29 1536.95 L1238.99 1536.95 L1238.99 1532.4 L1243.29 1532.4 L1243.29 1522.27 L1249.18 1522.27 Z" fill="#000000" fill-rule="nonzero" fill-opacity="1" /><polyline clip-path="url(#clip342)" style="stroke:#000000; stroke-linecap:round; stroke-linejoin:round; stroke-width:2; stroke-opacity:0.1; fill:none" points="147.478,1392.94 2352.76,1392.94 "/>
<polyline clip-path="url(#clip342)" style="stroke:#000000; stroke-linecap:round; stroke-linejoin:round; stroke-width:2; stroke-opacity:0.1; fill:none" points="147.478,1027.95 2352.76,1027.95 "/>
<polyline clip-path="url(#clip342)" style="stroke:#000000; stroke-linecap:round; stroke-linejoin:round; stroke-width:2; stroke-opacity:0.1; fill:none" points="147.478,662.967 2352.76,662.967 "/>
<polyline clip-path="url(#clip342)" style="stroke:#000000; stroke-linecap:round; stroke-linejoin:round; stroke-width:2; stroke-opacity:0.1; fill:none" points="147.478,297.983 2352.76,297.983 "/>
<polyline clip-path="url(#clip340)" style="stroke:#000000; stroke-linecap:round; stroke-linejoin:round; stroke-width:4; stroke-opacity:1; fill:none" points="147.478,1423.18 147.478,47.2441 "/>
<polyline clip-path="url(#clip340)" style="stroke:#000000; stroke-linecap:round; stroke-linejoin:round; stroke-width:4; stroke-opacity:1; fill:none" points="147.478,1392.94 166.376,1392.94 "/>
<polyline clip-path="url(#clip340)" style="stroke:#000000; stroke-linecap:round; stroke-linejoin:round; stroke-width:4; stroke-opacity:1; fill:none" points="147.478,1027.95 166.376,1027.95 "/>
<polyline clip-path="url(#clip340)" style="stroke:#000000; stroke-linecap:round; stroke-linejoin:round; stroke-width:4; stroke-opacity:1; fill:none" points="147.478,662.967 166.376,662.967 "/>
<polyline clip-path="url(#clip340)" style="stroke:#000000; stroke-linecap:round; stroke-linejoin:round; stroke-width:4; stroke-opacity:1; fill:none" points="147.478,297.983 166.376,297.983 "/>
<path clip-path="url(#clip340)" d="M51.3625 1393.39 L81.0383 1393.39 L81.0383 1397.32 L51.3625 1397.32 L51.3625 1393.39 Z" fill="#000000" fill-rule="nonzero" fill-opacity="1" /><path clip-path="url(#clip340)" d="M95.1586 1406.28 L111.478 1406.28 L111.478 1410.22 L89.5336 1410.22 L89.5336 1406.28 Q92.1956 1403.53 96.7789 1398.9 Q101.385 1394.24 102.566 1392.9 Q104.811 1390.38 105.691 1388.64 Q106.594 1386.88 106.594 1385.19 Q106.594 1382.44 104.649 1380.7 Q102.728 1378.97 99.6261 1378.97 Q97.4271 1378.97 94.9734 1379.73 Q92.5428 1380.49 89.7651 1382.04 L89.7651 1377.32 Q92.5891 1376.19 95.0428 1375.61 Q97.4965 1375.03 99.5335 1375.03 Q104.904 1375.03 108.098 1377.72 Q111.293 1380.4 111.293 1384.89 Q111.293 1387.02 110.483 1388.94 Q109.696 1390.84 107.589 1393.43 Q107.01 1394.1 103.909 1397.32 Q100.807 1400.52 95.1586 1406.28 Z" fill="#000000" fill-rule="nonzero" fill-opacity="1" /><path clip-path="url(#clip340)" d="M50.9921 1028.4 L80.6679 1028.4 L80.6679 1032.34 L50.9921 1032.34 L50.9921 1028.4 Z" fill="#000000" fill-rule="nonzero" fill-opacity="1" /><path clip-path="url(#clip340)" d="M91.5706 1041.3 L99.2095 1041.3 L99.2095 1014.93 L90.8993 1016.6 L90.8993 1012.34 L99.1632 1010.67 L103.839 1010.67 L103.839 1041.3 L111.478 1041.3 L111.478 1045.23 L91.5706 1045.23 L91.5706 1041.3 Z" fill="#000000" fill-rule="nonzero" fill-opacity="1" /><path clip-path="url(#clip340)" d="M99.5335 648.766 Q95.9224 648.766 94.0937 652.331 Q92.2882 655.873 92.2882 663.002 Q92.2882 670.109 94.0937 673.673 Q95.9224 677.215 99.5335 677.215 Q103.168 677.215 104.973 673.673 Q106.802 670.109 106.802 663.002 Q106.802 655.873 104.973 652.331 Q103.168 648.766 99.5335 648.766 M99.5335 645.062 Q105.344 645.062 108.399 649.669 Q111.478 654.252 111.478 663.002 Q111.478 671.729 108.399 676.335 Q105.344 680.919 99.5335 680.919 Q93.7234 680.919 90.6447 676.335 Q87.5892 671.729 87.5892 663.002 Q87.5892 654.252 90.6447 649.669 Q93.7234 645.062 99.5335 645.062 Z" fill="#000000" fill-rule="nonzero" fill-opacity="1" /><path clip-path="url(#clip340)" d="M91.5706 311.328 L99.2095 311.328 L99.2095 284.963 L90.8993 286.629 L90.8993 282.37 L99.1632 280.703 L103.839 280.703 L103.839 311.328 L111.478 311.328 L111.478 315.263 L91.5706 315.263 L91.5706 311.328 Z" fill="#000000" fill-rule="nonzero" fill-opacity="1" /><polyline clip-path="url(#clip342)" style="stroke:#009af9; stroke-linecap:round; stroke-linejoin:round; stroke-width:4; stroke-opacity:1; fill:none" points="147.478,662.967 149.685,660.118 151.893,657.307 154.1,654.532 156.308,651.795 158.515,649.094 160.723,646.428 162.93,643.798 165.138,641.203 167.345,638.643 169.553,636.116 171.76,633.623 173.968,631.162 176.175,628.735 178.383,626.339 180.59,623.976 182.798,621.643 185.005,619.342 187.213,617.071 189.42,614.83 191.628,612.619 193.835,610.437 196.043,608.284 198.25,606.16 200.458,604.064 202.665,601.996 204.873,599.955 207.08,597.941 209.288,595.954 211.495,593.993 213.702,592.058 215.91,590.149 218.117,588.265 220.325,586.406 222.532,584.572 224.74,582.762 226.947,580.976 229.155,579.214 231.362,577.475 233.57,575.759 235.777,574.066 237.985,572.395 240.192,570.747 242.4,569.12 244.607,567.515 246.815,565.931 249.022,564.369 251.23,562.827 253.437,561.305 255.645,559.804 257.852,558.322 260.06,556.86 262.267,555.418 264.475,553.994 266.682,552.59 268.89,551.204 271.097,549.836 273.305,548.487 275.512,547.155 277.72,545.842 279.927,544.545 282.135,543.266 284.342,542.004 286.549,540.758 288.757,539.529 290.964,538.316 293.172,537.12 295.379,535.939 297.587,534.774 299.794,533.624 302.002,532.489 304.209,531.37 306.417,530.265 308.624,529.176 310.832,528.1 313.039,527.039 315.247,525.992 317.454,524.959 319.662,523.939 321.869,522.933 324.077,521.94 326.284,520.961 328.492,519.994 330.699,519.04 332.907,518.099 335.114,517.171 337.322,516.254 339.529,515.35 341.737,514.458 343.944,513.578 346.152,512.709 348.359,511.852 350.567,511.006 352.774,510.172 354.982,509.348 357.189,508.135 359.397,506.727 361.604,505.822 363.811,505.854 366.019,506.99 368.226,509.134 370.434,511.92 372.641,514.726 374.849,517.323 377.056,519.885 379.264,522.413 381.471,524.908 383.679,527.369 385.886,529.799 388.094,532.195 390.301,534.561 392.509,536.894 394.716,539.197 396.924,541.469 399.131,543.711 401.339,545.924 403.546,548.107 405.754,550.261 407.961,552.387 410.169,554.484 412.376,556.553 414.584,558.596 416.791,560.611 418.999,562.599 421.206,564.561 423.414,566.497 425.621,568.407 427.829,570.292 430.036,572.152 432.244,573.987 434.451,575.798 436.659,577.585 438.866,579.348 441.073,581.088 443.281,582.805 445.488,584.499 447.696,586.171 449.903,587.82 452.111,589.448 454.318,591.054 456.526,592.638 458.733,594.202 460.941,595.745 463.148,597.268 465.356,598.77 467.563,600.252 469.771,601.715 471.978,603.158 474.186,604.583 476.393,605.988 478.601,607.375 480.808,608.743 483.016,610.093 485.223,611.425 487.431,612.74 489.638,614.037 491.846,615.317 494.053,616.58 496.261,617.826 498.468,619.056 500.676,620.27 502.883,621.467 505.091,622.649 507.298,623.814 509.506,624.965 511.713,626.1 513.921,627.22 516.128,628.325 518.335,629.416 520.543,630.492 522.75,631.554 524.958,632.602 527.165,633.636 529.373,634.656 531.58,635.662 533.788,636.656 535.995,637.636 538.203,638.603 540.41,639.557 542.618,640.499 544.825,641.428 547.033,642.345 549.24,643.249 551.448,644.142 553.655,645.023 555.863,645.892 558.07,646.75 560.278,647.596 562.485,648.431 564.693,649.255 566.9,650.068 569.108,650.87 571.315,651.662 573.523,652.443 575.73,653.214 577.938,653.974 580.145,654.725 582.353,655.465 584.56,656.196 586.768,656.917 588.975,656.522 591.182,649.297 593.39,642.316 595.597,635.428 597.805,628.632 600.012,621.925 602.22,615.308 604.427,608.778 606.635,602.335 608.842,595.977 611.05,589.704 613.257,583.513 615.465,577.405 617.672,571.378 619.88,565.43 622.087,559.562 624.295,553.771 626.502,548.057 628.71,542.419 630.917,536.855 633.125,531.366 635.332,525.949 637.54,520.604 639.747,515.33 641.955,510.125 644.162,504.99 646.37,499.923 648.577,494.923 650.785,489.989 652.992,485.121 655.2,480.317 657.407,475.577 659.615,470.9 661.822,466.284 664.03,461.73 666.237,457.237 668.444,452.802 670.652,448.427 672.859,444.11 675.067,439.85 677.274,435.646 679.482,431.498 681.689,427.406 683.897,423.367 686.104,419.382 688.312,415.45 690.519,411.57 692.727,407.741 694.934,403.963 697.142,400.235 699.349,396.557 701.557,392.927 703.764,389.346 705.972,385.812 708.179,382.325 710.387,378.884 712.594,375.488 714.802,372.138 717.009,368.832 719.217,365.57 721.424,362.351 723.632,359.175 725.839,356.041 728.047,352.949 730.254,349.897 732.462,346.886 734.669,343.915 736.877,340.984 739.084,338.091 741.292,335.237 743.499,332.42 745.706,329.641 747.914,326.898 750.121,324.192 752.329,321.522 754.536,318.887 756.744,316.287 758.951,313.722 761.159,311.191 763.366,308.693 765.574,306.228 767.781,303.796 769.989,301.396 772.196,299.028 774.404,296.692 776.611,294.386 778.819,292.111 781.026,289.866 783.234,287.651 785.441,285.466 787.649,283.309 789.856,281.401 792.064,279.976 794.271,278.983 796.479,278.37 798.686,278.093 800.894,278.106 803.101,278.369 805.309,278.841 807.516,279.488 809.724,280.275 811.931,281.172 814.139,282.15 816.346,283.183 818.553,284.248 820.761,285.324 822.968,286.395 825.176,287.444 827.383,288.458 829.591,289.429 831.798,290.348 834.006,291.211 836.213,292.016 838.421,292.763 840.628,293.455 842.836,294.099 845.043,294.701 847.251,295.275 849.458,295.832 851.666,296.39 853.873,296.968 856.081,297.584 858.288,298.211 860.496,298.829 862.703,299.439 864.911,300.041 867.118,300.634 869.326,301.22 871.533,301.799 873.741,302.369 875.948,302.932 878.156,303.488 880.363,304.036 882.571,304.577 884.778,305.111 886.986,305.637 889.193,306.157 891.401,306.67 893.608,307.176 895.815,307.676 898.023,308.168 900.23,308.655 902.438,309.135 904.645,309.609 906.853,310.076 909.06,310.537 911.268,310.992 913.475,311.441 915.683,311.884 917.89,312.321 920.098,312.753 922.305,313.178 924.513,313.598 926.72,314.013 928.928,314.422 931.135,314.825 933.343,315.223 935.55,315.616 937.758,316.003 939.965,316.386 942.173,316.763 944.38,317.135 946.588,317.502 948.795,317.865 951.003,318.222 953.21,318.575 955.418,318.923 957.625,319.266 959.833,319.605 962.04,319.94 964.248,320.269 966.455,320.595 968.663,320.916 970.87,321.233 973.077,321.545 975.285,321.854 977.492,322.158 979.7,322.459 981.907,322.755 984.115,323.047 986.322,323.336 988.53,323.621 990.737,323.901 992.945,324.179 995.152,324.452 997.36,324.722 999.567,324.989 1001.77,325.251 1003.98,325.511 1006.19,325.767 1008.4,326.02 1010.6,326.269 1012.81,326.515 1015.02,326.758 1017.23,326.997 1019.43,327.234 1021.64,327.467 1023.85,327.697 1026.06,328.413 1028.26,330.884 1030.47,334.976 1032.68,340.479 1034.89,347.192 1037.09,354.931 1039.3,363.521 1041.51,372.798 1043.72,382.614 1045.92,392.829 1048.13,403.317 1050.34,413.965 1052.55,424.67 1054.75,435.343 1056.96,445.905 1059.17,456.29 1061.38,466.446 1063.58,476.33 1065.79,485.913 1068,495.177 1070.21,504.117 1072.41,512.74 1074.62,521.064 1076.83,529.12 1079.04,536.951 1081.24,544.613 1083.45,552.171 1085.66,559.705 1087.87,567.306 1090.07,574.946 1092.28,582.485 1094.49,589.925 1096.7,597.265 1098.9,604.509 1101.11,611.656 1103.32,618.709 1105.53,625.668 1107.73,632.535 1109.94,639.311 1112.15,645.997 1114.36,652.594 1116.56,659.104 1118.77,665.527 1120.98,671.866 1123.19,678.12 1125.39,684.292 1127.6,690.382 1129.81,696.391 1132.02,702.32 1134.22,708.171 1136.43,713.945 1138.64,719.641 1140.85,725.262 1143.05,730.809 1145.26,736.282 1147.47,741.682 1149.68,747.011 1151.88,752.269 1154.09,757.457 1156.3,762.577 1158.51,767.629 1160.71,772.613 1162.92,777.532 1165.13,782.385 1167.34,787.174 1169.54,791.899 1171.75,796.562 1173.96,801.163 1176.17,805.703 1178.37,810.182 1180.58,814.603 1182.79,818.965 1185,823.269 1187.2,827.516 1189.41,831.706 1191.62,835.842 1193.83,839.922 1196.03,843.948 1198.24,847.921 1200.45,851.841 1202.66,855.71 1204.86,859.526 1207.07,863.293 1209.28,867.009 1211.49,870.676 1213.69,874.295 1215.9,877.865 1218.11,881.389 1220.32,884.865 1222.52,888.296 1224.73,891.681 1226.94,895.021 1229.15,898.316 1231.35,901.568 1233.56,904.777 1235.77,907.944 1237.98,911.068 1240.18,914.151 1242.39,917.193 1244.6,920.195 1246.81,921.479 1249.01,919.504 1251.22,914.827 1253.43,907.962 1255.64,899.379 1257.84,889.502 1260.05,878.71 1262.26,867.339 1264.47,855.678 1266.67,843.972 1268.88,832.422 1271.09,821.183 1273.3,810.366 1275.5,800.036 1277.71,790.215 1279.92,780.878 1282.13,771.957 1284.33,763.337 1286.54,754.862 1288.75,746.327 1290.96,737.605 1293.16,728.968 1295.37,720.446 1297.58,712.037 1299.79,703.74 1301.99,695.552 1304.2,687.473 1306.41,679.501 1308.62,671.635 1310.82,663.873 1313.03,656.214 1315.24,648.657 1317.45,641.199 1319.65,633.841 1321.86,626.58 1324.07,619.415 1326.28,612.345 1328.48,605.369 1330.69,598.486 1332.9,591.694 1335.11,584.992 1337.31,578.378 1339.52,571.853 1341.73,565.414 1343.94,559.061 1346.14,552.791 1348.35,546.605 1350.56,540.501 1352.76,534.478 1354.97,528.534 1357.18,522.67 1359.39,516.883 1361.59,511.173 1363.8,505.539 1366.01,499.979 1368.22,494.493 1370.42,489.08 1372.63,483.738 1374.84,478.467 1377.05,473.266 1379.25,468.135 1381.46,463.071 1383.67,458.074 1385.88,453.143 1388.08,448.278 1390.29,443.477 1392.5,438.74 1394.71,434.066 1396.91,429.454 1399.12,424.903 1401.33,420.412 1403.54,415.981 1405.74,411.609 1407.95,407.294 1410.16,403.037 1412.37,398.836 1414.57,394.691 1416.78,390.601 1418.99,386.565 1421.2,382.583 1423.4,378.653 1425.61,374.776 1427.82,370.949 1430.03,367.174 1432.23,363.449 1434.44,359.773 1436.65,356.146 1438.86,352.566 1441.06,349.035 1443.27,345.55 1445.48,342.111 1447.69,338.718 1449.89,335.37 1452.1,332.066 1454.31,328.806 1456.52,325.59 1458.72,322.416 1460.93,319.309 1463.14,318.14 1465.35,319.818 1467.55,323.998 1469.76,330.356 1471.97,338.586 1474.18,348.4 1476.38,359.528 1478.59,371.722 1480.8,384.749 1483.01,398.397 1485.21,412.472 1487.42,426.798 1489.63,441.218 1491.84,455.596 1494.04,469.811 1496.25,483.762 1498.46,497.369 1500.67,510.568 1502.87,523.315 1505.08,535.583 1507.29,547.367 1509.5,558.677 1511.7,569.544 1513.91,580.017 1516.12,590.164 1518.33,600.071 1520.53,609.844 1522.74,619.607 1524.95,629.501 1527.16,639.503 1529.36,649.377 1531.57,659.12 1533.78,668.734 1535.99,678.22 1538.19,687.58 1540.4,696.816 1542.61,705.93 1544.82,714.923 1547.02,723.797 1549.23,732.553 1551.44,741.193 1553.65,749.719 1555.85,758.131 1558.06,766.432 1560.27,774.623 1562.48,782.706 1564.68,790.681 1566.89,798.551 1569.1,806.317 1571.31,813.979 1573.51,821.54 1575.72,829 1577.93,836.362 1580.14,843.626 1582.34,850.793 1584.55,857.866 1586.76,864.845 1588.97,871.731 1591.17,878.525 1593.38,885.23 1595.59,891.846 1597.8,898.374 1600,904.815 1602.21,911.171 1604.42,917.443 1606.63,923.631 1608.83,929.738 1611.04,935.763 1613.25,941.709 1615.46,947.576 1617.66,953.365 1619.87,959.077 1622.08,964.714 1624.29,970.276 1626.49,975.764 1628.7,981.179 1630.91,986.523 1633.12,991.796 1635.32,996.999 1637.53,1002.13 1639.74,1007.2 1641.95,1012.2 1644.15,1017.13 1646.36,1022 1648.57,1026.8 1650.78,1031.54 1652.98,1036.22 1655.19,1040.83 1657.4,1045.38 1659.61,1049.87 1661.81,1054.31 1664.02,1058.68 1666.23,1063 1668.44,1067.26 1670.64,1071.46 1672.85,1075.61 1675.06,1079.7 1677.27,1083.74 1679.47,1087.72 1681.68,1091.65 1683.89,1095.53 1686.1,1099.36 1688.3,1103.13 1690.51,1106.86 1692.72,1109.42 1694.93,1110.04 1697.13,1109.01 1699.34,1106.6 1701.55,1103.07 1703.76,1098.63 1705.96,1093.51 1708.17,1087.89 1710.38,1081.94 1712.59,1075.81 1714.79,1069.62 1717,1063.49 1719.21,1057.49 1721.42,1051.71 1723.62,1046.18 1725.83,1040.93 1728.04,1035.97 1730.25,1031.28 1732.45,1026.83 1734.66,1022.57 1736.87,1018.41 1739.07,1014.27 1741.28,1010.03 1743.49,1005.7 1745.7,1001.43 1747.9,997.218 1750.11,993.058 1752.32,988.954 1754.53,984.904 1756.73,980.908 1758.94,976.965 1761.15,973.074 1763.36,969.234 1765.56,965.446 1767.77,961.708 1769.98,958.019 1772.19,954.379 1774.39,950.788 1776.6,947.244 1778.81,943.747 1781.02,940.296 1783.22,936.891 1785.43,933.531 1787.64,930.215 1789.85,926.944 1792.05,923.716 1794.26,920.531 1796.47,917.388 1798.68,914.287 1800.88,911.226 1803.09,908.207 1805.3,905.228 1807.51,902.288 1809.71,899.387 1811.92,896.525 1814.13,893.7 1816.34,890.913 1818.54,888.163 1820.75,885.45 1822.96,882.773 1825.17,880.131 1827.37,877.524 1829.58,874.951 1831.79,872.413 1834,869.909 1836.2,867.437 1838.41,864.999 1840.62,862.593 1842.83,860.218 1845.03,857.875 1847.24,855.563 1849.45,853.282 1851.66,851.031 1853.86,848.81 1856.07,846.618 1858.28,844.455 1860.49,842.321 1862.69,840.215 1864.9,838.137 1867.11,836.087 1869.32,834.064 1871.52,832.067 1873.73,830.097 1875.94,828.154 1878.15,826.236 1880.35,824.343 1882.56,822.476 1884.77,820.633 1886.98,818.815 1889.18,817.021 1891.39,815.25 1893.6,813.503 1895.81,811.78 1898.01,810.079 1900.22,808.4 1902.43,806.744 1904.64,805.052 1906.84,802.674 1909.05,799.513 1911.26,795.667 1913.47,791.232 1915.67,786.296 1917.88,780.942 1920.09,775.248 1922.3,769.287 1924.5,763.124 1926.71,756.821 1928.92,750.435 1931.13,744.014 1933.33,737.604 1935.54,731.243 1937.75,724.966 1939.96,718.8 1942.16,712.768 1944.37,706.887 1946.58,701.169 1948.79,695.619 1950.99,690.238 1953.2,685.02 1955.41,679.957 1957.62,675.03 1959.82,670.219 1962.03,665.497 1964.24,660.831 1966.45,656.183 1968.65,651.509 1970.86,646.849 1973.07,642.25 1975.28,637.713 1977.48,633.235 1979.69,628.817 1981.9,624.457 1984.11,620.156 1986.31,615.911 1988.52,611.722 1990.73,607.59 1992.94,603.511 1995.14,599.487 1997.35,595.517 1999.56,591.599 2001.77,587.732 2003.97,583.918 2006.18,580.153 2008.39,576.439 2010.6,572.773 2012.8,569.157 2015.01,565.588 2017.22,562.066 2019.43,558.591 2021.63,555.163 2023.84,551.779 2026.05,548.441 2028.26,545.147 2030.46,541.896 2032.67,538.689 2034.88,535.524 2037.09,532.402 2039.29,529.32 2041.5,526.28 2043.71,523.28 2045.92,520.32 2048.12,517.399 2050.33,514.516 2052.54,511.672 2054.75,508.866 2056.95,506.097 2059.16,503.365 2061.37,500.669 2063.58,498.008 2065.78,495.383 2067.99,492.793 2070.2,490.237 2072.41,487.715 2074.61,485.226 2076.82,482.77 2079.03,480.347 2081.24,477.956 2083.44,475.597 2085.65,473.269 2087.86,471.018 2090.07,468.873 2092.27,466.812 2094.48,464.815 2096.69,462.864 2098.9,460.94 2101.1,459.03 2103.31,457.117 2105.52,455.19 2107.73,453.236 2109.93,451.246 2112.14,449.211 2114.35,447.123 2116.55,444.976 2118.76,442.767 2120.97,440.491 2123.18,438.147 2125.38,435.735 2127.59,433.256 2129.8,430.711 2132.01,428.106 2134.21,425.444 2136.42,422.734 2138.63,419.982 2140.84,417.198 2143.04,414.393 2145.25,411.579 2147.46,408.77 2149.67,405.981 2151.87,403.228 2154.08,400.53 2156.29,397.904 2158.5,395.359 2160.7,392.852 2162.91,390.379 2165.12,387.938 2167.33,385.53 2169.53,383.153 2171.74,380.809 2173.95,378.495 2176.16,376.212 2178.36,373.959 2180.57,371.736 2182.78,369.543 2184.99,367.378 2187.19,365.243 2189.4,363.135 2191.61,361.056 2193.82,359.004 2196.02,356.979 2198.23,354.982 2200.44,353.01 2202.65,351.065 2204.85,349.146 2207.06,347.252 2209.27,345.383 2211.48,343.539 2213.68,341.719 2215.89,339.923 2218.1,338.15 2220.31,336.402 2222.51,334.676 2224.72,332.973 2226.93,331.293 2229.14,329.635 2231.34,327.998 2233.55,326.384 2235.76,324.791 2237.97,323.219 2240.17,321.668 2242.38,320.138 2244.59,318.628 2246.8,317.138 2249,315.668 2251.21,314.217 2253.42,312.786 2255.63,311.374 2257.83,309.981 2260.04,308.606 2262.25,307.249 2264.46,305.911 2266.66,304.59 2268.87,303.287 2271.08,302.001 2273.29,300.733 2275.49,299.481 2277.7,298.246 2279.91,297.027 2282.12,295.825 2284.32,294.639 2286.53,293.468 2288.74,292.313 2290.95,291.173 2293.15,290.048 2295.36,288.939 2297.57,287.844 2299.78,286.763 2301.98,285.697 2304.19,284.645 2306.4,283.607 2308.61,282.583 2310.81,281.572 2313.02,280.574 2315.23,279.59 2317.44,278.618 2319.64,277.66 2321.85,276.714 2324.06,275.781 2326.27,274.859 2328.47,273.95 2330.68,273.053 2332.89,272.168 2335.1,271.295 2337.3,270.433 2339.51,269.583 2341.72,268.744 2343.93,267.916 2346.13,267.099 2348.34,266.293 2350.55,265.497 2352.76,264.712 "/>
<polyline clip-path="url(#clip342)" style="stroke:#e26f46; stroke-linecap:round; stroke-linejoin:round; stroke-width:4; stroke-opacity:1; fill:none" points="147.478,448.057 149.685,448.057 151.893,448.057 154.1,448.057 156.308,448.057 158.515,448.057 160.723,448.057 162.93,448.057 165.138,448.057 167.345,448.057 169.553,448.057 171.76,448.057 173.968,448.057 176.175,448.057 178.383,448.057 180.59,448.057 182.798,448.057 185.005,448.057 187.213,448.057 189.42,448.057 191.628,448.057 193.835,448.057 196.043,448.057 198.25,448.057 200.458,448.057 202.665,448.057 204.873,448.057 207.08,448.057 209.288,448.057 211.495,448.057 213.702,448.057 215.91,448.057 218.117,448.057 220.325,448.057 222.532,448.057 224.74,448.057 226.947,448.057 229.155,448.057 231.362,448.057 233.57,448.057 235.777,448.057 237.985,448.057 240.192,448.057 242.4,448.057 244.607,448.057 246.815,448.057 249.022,448.057 251.23,448.057 253.437,448.057 255.645,448.057 257.852,448.057 260.06,448.057 262.267,448.057 264.475,448.057 266.682,448.057 268.89,448.057 271.097,448.057 273.305,448.057 275.512,448.057 277.72,448.057 279.927,448.057 282.135,448.057 284.342,448.057 286.549,448.057 288.757,448.057 290.964,448.057 293.172,448.057 295.379,448.057 297.587,448.057 299.794,448.057 302.002,448.057 304.209,448.057 306.417,448.057 308.624,448.057 310.832,448.057 313.039,448.057 315.247,448.057 317.454,448.057 319.662,448.057 321.869,448.057 324.077,448.057 326.284,448.057 328.492,448.057 330.699,448.057 332.907,448.057 335.114,448.057 337.322,448.057 339.529,448.057 341.737,448.057 343.944,448.057 346.152,448.057 348.359,448.057 350.567,448.057 352.774,448.057 354.982,448.057 357.189,448.057 359.397,448.057 361.604,448.057 363.811,448.057 366.019,448.057 368.226,710.582 370.434,710.582 372.641,710.582 374.849,710.582 377.056,710.582 379.264,710.582 381.471,710.582 383.679,710.582 385.886,710.582 388.094,710.582 390.301,710.582 392.509,710.582 394.716,710.582 396.924,710.582 399.131,710.582 401.339,710.582 403.546,710.582 405.754,710.582 407.961,710.582 410.169,710.582 412.376,710.582 414.584,710.582 416.791,710.582 418.999,710.582 421.206,710.582 423.414,710.582 425.621,710.582 427.829,710.582 430.036,710.582 432.244,710.582 434.451,710.582 436.659,710.582 438.866,710.582 441.073,710.582 443.281,710.582 445.488,710.582 447.696,710.582 449.903,710.582 452.111,710.582 454.318,710.582 456.526,710.582 458.733,710.582 460.941,710.582 463.148,710.582 465.356,710.582 467.563,710.582 469.771,710.582 471.978,710.582 474.186,710.582 476.393,710.582 478.601,710.582 480.808,710.582 483.016,710.582 485.223,710.582 487.431,710.582 489.638,710.582 491.846,710.582 494.053,710.582 496.261,710.582 498.468,710.582 500.676,710.582 502.883,710.582 505.091,710.582 507.298,710.582 509.506,710.582 511.713,710.582 513.921,710.582 516.128,710.582 518.335,710.582 520.543,710.582 522.75,710.582 524.958,710.582 527.165,710.582 529.373,710.582 531.58,710.582 533.788,710.582 535.995,710.582 538.203,710.582 540.41,710.582 542.618,710.582 544.825,710.582 547.033,710.582 549.24,710.582 551.448,710.582 553.655,710.582 555.863,710.582 558.07,710.582 560.278,710.582 562.485,710.582 564.693,710.582 566.9,710.582 569.108,710.582 571.315,710.582 573.523,710.582 575.73,710.582 577.938,710.582 580.145,710.582 582.353,710.582 584.56,710.582 586.768,710.582 588.975,122.79 591.182,122.79 593.39,122.79 595.597,122.79 597.805,122.79 600.012,122.79 602.22,122.79 604.427,122.79 606.635,122.79 608.842,122.79 611.05,122.79 613.257,122.79 615.465,122.79 617.672,122.79 619.88,122.79 622.087,122.79 624.295,122.79 626.502,122.79 628.71,122.79 630.917,122.79 633.125,122.79 635.332,122.79 637.54,122.79 639.747,122.79 641.955,122.79 644.162,122.79 646.37,122.79 648.577,122.79 650.785,122.79 652.992,122.79 655.2,122.79 657.407,122.79 659.615,122.79 661.822,122.79 664.03,122.79 666.237,122.79 668.444,122.79 670.652,122.79 672.859,122.79 675.067,122.79 677.274,122.79 679.482,122.79 681.689,122.79 683.897,122.79 686.104,122.79 688.312,122.79 690.519,122.79 692.727,122.79 694.934,122.79 697.142,122.79 699.349,122.79 701.557,122.79 703.764,122.79 705.972,122.79 708.179,122.79 710.387,122.79 712.594,122.79 714.802,122.79 717.009,122.79 719.217,122.79 721.424,122.79 723.632,122.79 725.839,122.79 728.047,122.79 730.254,122.79 732.462,122.79 734.669,122.79 736.877,122.79 739.084,122.79 741.292,122.79 743.499,122.79 745.706,122.79 747.914,122.79 750.121,122.79 752.329,122.79 754.536,122.79 756.744,122.79 758.951,122.79 761.159,122.79 763.366,122.79 765.574,122.79 767.781,122.79 769.989,122.79 772.196,122.79 774.404,122.79 776.611,122.79 778.819,122.79 781.026,122.79 783.234,122.79 785.441,122.79 787.649,122.79 789.856,122.79 792.064,122.79 794.271,122.79 796.479,122.79 798.686,122.79 800.894,122.79 803.101,122.79 805.309,122.79 807.516,122.79 809.724,344.834 811.931,344.834 814.139,344.834 816.346,344.834 818.553,344.834 820.761,344.834 822.968,344.834 825.176,344.834 827.383,344.834 829.591,344.834 831.798,344.834 834.006,344.834 836.213,344.834 838.421,344.834 840.628,344.834 842.836,344.834 845.043,344.834 847.251,344.834 849.458,344.834 851.666,344.834 853.873,344.834 856.081,344.834 858.288,344.834 860.496,344.834 862.703,344.834 864.911,344.834 867.118,344.834 869.326,344.834 871.533,344.834 873.741,344.834 875.948,344.834 878.156,344.834 880.363,344.834 882.571,344.834 884.778,344.834 886.986,344.834 889.193,344.834 891.401,344.834 893.608,344.834 895.815,344.834 898.023,344.834 900.23,344.834 902.438,344.834 904.645,344.834 906.853,344.834 909.06,344.834 911.268,344.834 913.475,344.834 915.683,344.834 917.89,344.834 920.098,344.834 922.305,344.834 924.513,344.834 926.72,344.834 928.928,344.834 931.135,344.834 933.343,344.834 935.55,344.834 937.758,344.834 939.965,344.834 942.173,344.834 944.38,344.834 946.588,344.834 948.795,344.834 951.003,344.834 953.21,344.834 955.418,344.834 957.625,344.834 959.833,344.834 962.04,344.834 964.248,344.834 966.455,344.834 968.663,344.834 970.87,344.834 973.077,344.834 975.285,344.834 977.492,344.834 979.7,344.834 981.907,344.834 984.115,344.834 986.322,344.834 988.53,344.834 990.737,344.834 992.945,344.834 995.152,344.834 997.36,344.834 999.567,344.834 1001.77,344.834 1003.98,344.834 1006.19,344.834 1008.4,344.834 1010.6,344.834 1012.81,344.834 1015.02,344.834 1017.23,344.834 1019.43,344.834 1021.64,344.834 1023.85,344.834 1026.06,344.834 1028.26,344.834 1030.47,1143.61 1032.68,1143.61 1034.89,1143.61 1037.09,1143.61 1039.3,1143.61 1041.51,1143.61 1043.72,1143.61 1045.92,1143.61 1048.13,1143.61 1050.34,1143.61 1052.55,1143.61 1054.75,1143.61 1056.96,1143.61 1059.17,1143.61 1061.38,1143.61 1063.58,1143.61 1065.79,1143.61 1068,1143.61 1070.21,1143.61 1072.41,1143.61 1074.62,1143.61 1076.83,1143.61 1079.04,1143.61 1081.24,1143.61 1083.45,1143.61 1085.66,1143.61 1087.87,1143.61 1090.07,1143.61 1092.28,1143.61 1094.49,1143.61 1096.7,1143.61 1098.9,1143.61 1101.11,1143.61 1103.32,1143.61 1105.53,1143.61 1107.73,1143.61 1109.94,1143.61 1112.15,1143.61 1114.36,1143.61 1116.56,1143.61 1118.77,1143.61 1120.98,1143.61 1123.19,1143.61 1125.39,1143.61 1127.6,1143.61 1129.81,1143.61 1132.02,1143.61 1134.22,1143.61 1136.43,1143.61 1138.64,1143.61 1140.85,1143.61 1143.05,1143.61 1145.26,1143.61 1147.47,1143.61 1149.68,1143.61 1151.88,1143.61 1154.09,1143.61 1156.3,1143.61 1158.51,1143.61 1160.71,1143.61 1162.92,1143.61 1165.13,1143.61 1167.34,1143.61 1169.54,1143.61 1171.75,1143.61 1173.96,1143.61 1176.17,1143.61 1178.37,1143.61 1180.58,1143.61 1182.79,1143.61 1185,1143.61 1187.2,1143.61 1189.41,1143.61 1191.62,1143.61 1193.83,1143.61 1196.03,1143.61 1198.24,1143.61 1200.45,1143.61 1202.66,1143.61 1204.86,1143.61 1207.07,1143.61 1209.28,1143.61 1211.49,1143.61 1213.69,1143.61 1215.9,1143.61 1218.11,1143.61 1220.32,1143.61 1222.52,1143.61 1224.73,1143.61 1226.94,1143.61 1229.15,1143.61 1231.35,1143.61 1233.56,1143.61 1235.77,1143.61 1237.98,1143.61 1240.18,1143.61 1242.39,1143.61 1244.6,1143.61 1246.81,1143.61 1249.01,1143.61 1251.22,86.1857 1253.43,86.1857 1255.64,86.1857 1257.84,86.1857 1260.05,86.1857 1262.26,86.1857 1264.47,86.1857 1266.67,86.1857 1268.88,86.1857 1271.09,86.1857 1273.3,86.1857 1275.5,86.1857 1277.71,86.1857 1279.92,86.1857 1282.13,86.1857 1284.33,86.1857 1286.54,86.1857 1288.75,86.1857 1290.96,86.1857 1293.16,86.1857 1295.37,86.1857 1297.58,86.1857 1299.79,86.1857 1301.99,86.1857 1304.2,86.1857 1306.41,86.1857 1308.62,86.1857 1310.82,86.1857 1313.03,86.1857 1315.24,86.1857 1317.45,86.1857 1319.65,86.1857 1321.86,86.1857 1324.07,86.1857 1326.28,86.1857 1328.48,86.1857 1330.69,86.1857 1332.9,86.1857 1335.11,86.1857 1337.31,86.1857 1339.52,86.1857 1341.73,86.1857 1343.94,86.1857 1346.14,86.1857 1348.35,86.1857 1350.56,86.1857 1352.76,86.1857 1354.97,86.1857 1357.18,86.1857 1359.39,86.1857 1361.59,86.1857 1363.8,86.1857 1366.01,86.1857 1368.22,86.1857 1370.42,86.1857 1372.63,86.1857 1374.84,86.1857 1377.05,86.1857 1379.25,86.1857 1381.46,86.1857 1383.67,86.1857 1385.88,86.1857 1388.08,86.1857 1390.29,86.1857 1392.5,86.1857 1394.71,86.1857 1396.91,86.1857 1399.12,86.1857 1401.33,86.1857 1403.54,86.1857 1405.74,86.1857 1407.95,86.1857 1410.16,86.1857 1412.37,86.1857 1414.57,86.1857 1416.78,86.1857 1418.99,86.1857 1421.2,86.1857 1423.4,86.1857 1425.61,86.1857 1427.82,86.1857 1430.03,86.1857 1432.23,86.1857 1434.44,86.1857 1436.65,86.1857 1438.86,86.1857 1441.06,86.1857 1443.27,86.1857 1445.48,86.1857 1447.69,86.1857 1449.89,86.1857 1452.1,86.1857 1454.31,86.1857 1456.52,86.1857 1458.72,86.1857 1460.93,86.1857 1463.14,86.1857 1465.35,86.1857 1467.55,86.1857 1469.76,86.1857 1471.97,1384.24 1474.18,1384.24 1476.38,1384.24 1478.59,1384.24 1480.8,1384.24 1483.01,1384.24 1485.21,1384.24 1487.42,1384.24 1489.63,1384.24 1491.84,1384.24 1494.04,1384.24 1496.25,1384.24 1498.46,1384.24 1500.67,1384.24 1502.87,1384.24 1505.08,1384.24 1507.29,1384.24 1509.5,1384.24 1511.7,1384.24 1513.91,1384.24 1516.12,1384.24 1518.33,1384.24 1520.53,1384.24 1522.74,1384.24 1524.95,1384.24 1527.16,1384.24 1529.36,1384.24 1531.57,1384.24 1533.78,1384.24 1535.99,1384.24 1538.19,1384.24 1540.4,1384.24 1542.61,1384.24 1544.82,1384.24 1547.02,1384.24 1549.23,1384.24 1551.44,1384.24 1553.65,1384.24 1555.85,1384.24 1558.06,1384.24 1560.27,1384.24 1562.48,1384.24 1564.68,1384.24 1566.89,1384.24 1569.1,1384.24 1571.31,1384.24 1573.51,1384.24 1575.72,1384.24 1577.93,1384.24 1580.14,1384.24 1582.34,1384.24 1584.55,1384.24 1586.76,1384.24 1588.97,1384.24 1591.17,1384.24 1593.38,1384.24 1595.59,1384.24 1597.8,1384.24 1600,1384.24 1602.21,1384.24 1604.42,1384.24 1606.63,1384.24 1608.83,1384.24 1611.04,1384.24 1613.25,1384.24 1615.46,1384.24 1617.66,1384.24 1619.87,1384.24 1622.08,1384.24 1624.29,1384.24 1626.49,1384.24 1628.7,1384.24 1630.91,1384.24 1633.12,1384.24 1635.32,1384.24 1637.53,1384.24 1639.74,1384.24 1641.95,1384.24 1644.15,1384.24 1646.36,1384.24 1648.57,1384.24 1650.78,1384.24 1652.98,1384.24 1655.19,1384.24 1657.4,1384.24 1659.61,1384.24 1661.81,1384.24 1664.02,1384.24 1666.23,1384.24 1668.44,1384.24 1670.64,1384.24 1672.85,1384.24 1675.06,1384.24 1677.27,1384.24 1679.47,1384.24 1681.68,1384.24 1683.89,1384.24 1686.1,1384.24 1688.3,1384.24 1690.51,1384.24 1692.72,683.488 1694.93,683.488 1697.13,683.488 1699.34,683.488 1701.55,683.488 1703.76,683.488 1705.96,683.488 1708.17,683.488 1710.38,683.488 1712.59,683.488 1714.79,683.488 1717,683.488 1719.21,683.488 1721.42,683.488 1723.62,683.488 1725.83,683.488 1728.04,683.488 1730.25,683.488 1732.45,683.488 1734.66,683.488 1736.87,683.488 1739.07,683.488 1741.28,683.488 1743.49,683.488 1745.7,683.488 1747.9,683.488 1750.11,683.488 1752.32,683.488 1754.53,683.488 1756.73,683.488 1758.94,683.488 1761.15,683.488 1763.36,683.488 1765.56,683.488 1767.77,683.488 1769.98,683.488 1772.19,683.488 1774.39,683.488 1776.6,683.488 1778.81,683.488 1781.02,683.488 1783.22,683.488 1785.43,683.488 1787.64,683.488 1789.85,683.488 1792.05,683.488 1794.26,683.488 1796.47,683.488 1798.68,683.488 1800.88,683.488 1803.09,683.488 1805.3,683.488 1807.51,683.488 1809.71,683.488 1811.92,683.488 1814.13,683.488 1816.34,683.488 1818.54,683.488 1820.75,683.488 1822.96,683.488 1825.17,683.488 1827.37,683.488 1829.58,683.488 1831.79,683.488 1834,683.488 1836.2,683.488 1838.41,683.488 1840.62,683.488 1842.83,683.488 1845.03,683.488 1847.24,683.488 1849.45,683.488 1851.66,683.488 1853.86,683.488 1856.07,683.488 1858.28,683.488 1860.49,683.488 1862.69,683.488 1864.9,683.488 1867.11,683.488 1869.32,683.488 1871.52,683.488 1873.73,683.488 1875.94,683.488 1878.15,683.488 1880.35,683.488 1882.56,683.488 1884.77,683.488 1886.98,683.488 1889.18,683.488 1891.39,683.488 1893.6,683.488 1895.81,683.488 1898.01,683.488 1900.22,683.488 1902.43,683.488 1904.64,683.488 1906.84,683.488 1909.05,683.488 1911.26,683.488 1913.47,299.992 1915.67,299.992 1917.88,299.992 1920.09,299.992 1922.3,299.992 1924.5,299.992 1926.71,299.992 1928.92,299.992 1931.13,299.992 1933.33,299.992 1935.54,299.992 1937.75,299.992 1939.96,299.992 1942.16,299.992 1944.37,299.992 1946.58,299.992 1948.79,299.992 1950.99,299.992 1953.2,299.992 1955.41,299.992 1957.62,299.992 1959.82,299.992 1962.03,299.992 1964.24,299.992 1966.45,299.992 1968.65,299.992 1970.86,299.992 1973.07,299.992 1975.28,299.992 1977.48,299.992 1979.69,299.992 1981.9,299.992 1984.11,299.992 1986.31,299.992 1988.52,299.992 1990.73,299.992 1992.94,299.992 1995.14,299.992 1997.35,299.992 1999.56,299.992 2001.77,299.992 2003.97,299.992 2006.18,299.992 2008.39,299.992 2010.6,299.992 2012.8,299.992 2015.01,299.992 2017.22,299.992 2019.43,299.992 2021.63,299.992 2023.84,299.992 2026.05,299.992 2028.26,299.992 2030.46,299.992 2032.67,299.992 2034.88,299.992 2037.09,299.992 2039.29,299.992 2041.5,299.992 2043.71,299.992 2045.92,299.992 2048.12,299.992 2050.33,299.992 2052.54,299.992 2054.75,299.992 2056.95,299.992 2059.16,299.992 2061.37,299.992 2063.58,299.992 2065.78,299.992 2067.99,299.992 2070.2,299.992 2072.41,299.992 2074.61,299.992 2076.82,299.992 2079.03,299.992 2081.24,299.992 2083.44,299.992 2085.65,299.992 2087.86,299.992 2090.07,299.992 2092.27,299.992 2094.48,299.992 2096.69,299.992 2098.9,299.992 2101.1,299.992 2103.31,299.992 2105.52,299.992 2107.73,299.992 2109.93,299.992 2112.14,299.992 2114.35,299.992 2116.55,299.992 2118.76,299.992 2120.97,299.992 2123.18,299.992 2125.38,299.992 2127.59,299.992 2129.8,299.992 2132.01,299.992 2134.21,206.293 2136.42,206.293 2138.63,206.293 2140.84,206.293 2143.04,206.293 2145.25,206.293 2147.46,206.293 2149.67,206.293 2151.87,206.293 2154.08,206.293 2156.29,206.293 2158.5,206.293 2160.7,206.293 2162.91,206.293 2165.12,206.293 2167.33,206.293 2169.53,206.293 2171.74,206.293 2173.95,206.293 2176.16,206.293 2178.36,206.293 2180.57,206.293 2182.78,206.293 2184.99,206.293 2187.19,206.293 2189.4,206.293 2191.61,206.293 2193.82,206.293 2196.02,206.293 2198.23,206.293 2200.44,206.293 2202.65,206.293 2204.85,206.293 2207.06,206.293 2209.27,206.293 2211.48,206.293 2213.68,206.293 2215.89,206.293 2218.1,206.293 2220.31,206.293 2222.51,206.293 2224.72,206.293 2226.93,206.293 2229.14,206.293 2231.34,206.293 2233.55,206.293 2235.76,206.293 2237.97,206.293 2240.17,206.293 2242.38,206.293 2244.59,206.293 2246.8,206.293 2249,206.293 2251.21,206.293 2253.42,206.293 2255.63,206.293 2257.83,206.293 2260.04,206.293 2262.25,206.293 2264.46,206.293 2266.66,206.293 2268.87,206.293 2271.08,206.293 2273.29,206.293 2275.49,206.293 2277.7,206.293 2279.91,206.293 2282.12,206.293 2284.32,206.293 2286.53,206.293 2288.74,206.293 2290.95,206.293 2293.15,206.293 2295.36,206.293 2297.57,206.293 2299.78,206.293 2301.98,206.293 2304.19,206.293 2306.4,206.293 2308.61,206.293 2310.81,206.293 2313.02,206.293 2315.23,206.293 2317.44,206.293 2319.64,206.293 2321.85,206.293 2324.06,206.293 2326.27,206.293 2328.47,206.293 2330.68,206.293 2332.89,206.293 2335.1,206.293 2337.3,206.293 2339.51,206.293 2341.72,206.293 2343.93,206.293 2346.13,206.293 2348.34,206.293 2350.55,206.293 2352.76,206.293 "/>
<path clip-path="url(#clip340)" d="M2033.58 1377.32 L2279.25 1377.32 L2279.25 1221.8 L2033.58 1221.8  Z" fill="#ffffff" fill-rule="evenodd" fill-opacity="1"/>
<polyline clip-path="url(#clip340)" style="stroke:#000000; stroke-linecap:round; stroke-linejoin:round; stroke-width:4; stroke-opacity:1; fill:none" points="2033.58,1377.32 2279.25,1377.32 2279.25,1221.8 2033.58,1221.8 2033.58,1377.32 "/>
<polyline clip-path="url(#clip340)" style="stroke:#009af9; stroke-linecap:round; stroke-linejoin:round; stroke-width:4; stroke-opacity:1; fill:none" points="2058.08,1273.64 2205.1,1273.64 "/>
<path clip-path="url(#clip340)" d="M2254.26 1264.99 L2244.88 1277.61 L2254.74 1290.92 L2249.72 1290.92 L2242.17 1280.73 L2234.63 1290.92 L2229.6 1290.92 L2239.67 1277.35 L2230.46 1264.99 L2235.48 1264.99 L2242.36 1274.23 L2249.23 1264.99 L2254.26 1264.99 Z" fill="#000000" fill-rule="nonzero" fill-opacity="1" /><polyline clip-path="url(#clip340)" style="stroke:#e26f46; stroke-linecap:round; stroke-linejoin:round; stroke-width:4; stroke-opacity:1; fill:none" points="2058.08,1325.48 2205.1,1325.48 "/>
<path clip-path="url(#clip340)" d="M2246.11 1306.74 L2246.11 1310.28 L2242.04 1310.28 Q2239.74 1310.28 2238.84 1311.2 Q2237.96 1312.13 2237.96 1314.54 L2237.96 1316.83 L2244.98 1316.83 L2244.98 1320.14 L2237.96 1320.14 L2237.96 1342.76 L2233.68 1342.76 L2233.68 1320.14 L2229.6 1320.14 L2229.6 1316.83 L2233.68 1316.83 L2233.68 1315.02 Q2233.68 1310.7 2235.69 1308.73 Q2237.71 1306.74 2242.08 1306.74 L2246.11 1306.74 Z" fill="#000000" fill-rule="nonzero" fill-opacity="1" /></svg>
