<?xml version="1.0" encoding="utf-8"?>
<svg xmlns="http://www.w3.org/2000/svg" xmlns:xlink="http://www.w3.org/1999/xlink" width="600" height="400" viewBox="0 0 2400 1600">
<defs>
  <clipPath id="clip270">
    <rect x="0" y="0" width="2400" height="1600"/>
  </clipPath>
</defs>
<path clip-path="url(#clip270)" d="M0 1600 L2400 1600 L2400 0 L0 0  Z" fill="#ffffff" fill-rule="evenodd" fill-opacity="1"/>
<defs>
  <clipPath id="clip271">
    <rect x="480" y="0" width="1681" height="1600"/>
  </clipPath>
</defs>
<defs>
  <clipPath id="clip272">
    <rect x="155" y="47" width="2198" height="1440"/>
  </clipPath>
</defs>
<path clip-path="url(#clip272)" d="M-1269.06 2668.56 L-1269.06 2375.4 L-1125.2 2228.81 L-876.045 2313.44 L-876.045 2606.61 L-1019.9 2753.19 L-1269.06 2668.56  Z" fill="#ffffff" fill-rule="evenodd" fill-opacity="1"/>
<polyline clip-path="url(#clip272)" style="stroke:#000000; stroke-linecap:round; stroke-linejoin:round; stroke-width:2; stroke-opacity:0.1; fill:none" points="782.726,1230.39 1198.19,870.593 1198.19,150.991 "/>
<polyline clip-path="url(#clip272)" style="stroke:#000000; stroke-linecap:round; stroke-linejoin:round; stroke-width:2; stroke-opacity:0.1; fill:none" points="907.306,1266.36 1322.77,906.556 1322.77,186.954 "/>
<polyline clip-path="url(#clip272)" style="stroke:#000000; stroke-linecap:round; stroke-linejoin:round; stroke-width:2; stroke-opacity:0.1; fill:none" points="1031.89,1302.32 1447.35,942.519 1447.35,222.917 "/>
<polyline clip-path="url(#clip272)" style="stroke:#000000; stroke-linecap:round; stroke-linejoin:round; stroke-width:2; stroke-opacity:0.1; fill:none" points="1156.47,1338.28 1571.93,978.482 1571.93,258.881 "/>
<polyline clip-path="url(#clip272)" style="stroke:#000000; stroke-linecap:round; stroke-linejoin:round; stroke-width:2; stroke-opacity:0.1; fill:none" points="1281.05,1374.25 1696.51,1014.45 1696.51,294.844 "/>
<polyline clip-path="url(#clip272)" style="stroke:#000000; stroke-linecap:round; stroke-linejoin:round; stroke-width:2; stroke-opacity:0.1; fill:none" points="1405.63,1410.21 1821.09,1050.41 1821.09,330.807 "/>
<polyline clip-path="url(#clip272)" style="stroke:#000000; stroke-linecap:round; stroke-linejoin:round; stroke-width:2; stroke-opacity:0.1; fill:none" points="1454.86,1368.39 735.256,1160.66 735.256,441.054 "/>
<polyline clip-path="url(#clip272)" style="stroke:#000000; stroke-linecap:round; stroke-linejoin:round; stroke-width:2; stroke-opacity:0.1; fill:none" points="1539.49,1295.1 819.885,1087.36 819.885,367.763 "/>
<polyline clip-path="url(#clip272)" style="stroke:#000000; stroke-linecap:round; stroke-linejoin:round; stroke-width:2; stroke-opacity:0.1; fill:none" points="1624.12,1221.8 904.515,1014.07 904.515,294.471 "/>
<polyline clip-path="url(#clip272)" style="stroke:#000000; stroke-linecap:round; stroke-linejoin:round; stroke-width:2; stroke-opacity:0.1; fill:none" points="1708.75,1148.51 989.144,940.782 989.144,221.18 "/>
<polyline clip-path="url(#clip272)" style="stroke:#000000; stroke-linecap:round; stroke-linejoin:round; stroke-width:2; stroke-opacity:0.1; fill:none" points="1793.38,1075.22 1073.77,867.491 1073.77,147.889 "/>
<polyline clip-path="url(#clip272)" style="stroke:#000000; stroke-linecap:round; stroke-linejoin:round; stroke-width:2; stroke-opacity:0.1; fill:none" points="686.728,1179.1 1102.19,819.299 1821.79,1027.03 "/>
<polyline clip-path="url(#clip272)" style="stroke:#000000; stroke-linecap:round; stroke-linejoin:round; stroke-width:2; stroke-opacity:0.1; fill:none" points="686.728,1029.74 1102.19,669.941 1821.79,877.673 "/>
<polyline clip-path="url(#clip272)" style="stroke:#000000; stroke-linecap:round; stroke-linejoin:round; stroke-width:2; stroke-opacity:0.1; fill:none" points="686.728,880.385 1102.19,520.584 1821.79,728.315 "/>
<polyline clip-path="url(#clip272)" style="stroke:#000000; stroke-linecap:round; stroke-linejoin:round; stroke-width:2; stroke-opacity:0.1; fill:none" points="686.728,731.028 1102.19,371.227 1821.79,578.958 "/>
<polyline clip-path="url(#clip272)" style="stroke:#000000; stroke-linecap:round; stroke-linejoin:round; stroke-width:2; stroke-opacity:0.1; fill:none" points="686.728,581.671 1102.19,221.87 1821.79,429.601 "/>
<polyline clip-path="url(#clip270)" style="stroke:#000000; stroke-linecap:round; stroke-linejoin:round; stroke-width:4; stroke-opacity:1; fill:none" points="686.728,1202.68 1406.33,1410.41 "/>
<polyline clip-path="url(#clip270)" style="stroke:#000000; stroke-linecap:round; stroke-linejoin:round; stroke-width:4; stroke-opacity:1; fill:none" points="782.726,1230.39 787.711,1226.08 "/>
<polyline clip-path="url(#clip270)" style="stroke:#000000; stroke-linecap:round; stroke-linejoin:round; stroke-width:4; stroke-opacity:1; fill:none" points="907.306,1266.36 912.291,1262.04 "/>
<polyline clip-path="url(#clip270)" style="stroke:#000000; stroke-linecap:round; stroke-linejoin:round; stroke-width:4; stroke-opacity:1; fill:none" points="1031.89,1302.32 1036.87,1298 "/>
<polyline clip-path="url(#clip270)" style="stroke:#000000; stroke-linecap:round; stroke-linejoin:round; stroke-width:4; stroke-opacity:1; fill:none" points="1156.47,1338.28 1161.45,1333.97 "/>
<polyline clip-path="url(#clip270)" style="stroke:#000000; stroke-linecap:round; stroke-linejoin:round; stroke-width:4; stroke-opacity:1; fill:none" points="1281.05,1374.25 1286.03,1369.93 "/>
<polyline clip-path="url(#clip270)" style="stroke:#000000; stroke-linecap:round; stroke-linejoin:round; stroke-width:4; stroke-opacity:1; fill:none" points="1405.63,1410.21 1410.61,1405.89 "/>
<path clip-path="url(#clip270)" d="M763.88 1244.46 L752.075 1262.91 L763.88 1262.91 L763.88 1244.46 M762.653 1240.38 L768.533 1240.38 L768.533 1262.91 L773.463 1262.91 L773.463 1266.8 L768.533 1266.8 L768.533 1274.94 L763.88 1274.94 L763.88 1266.8 L748.278 1266.8 L748.278 1262.28 L762.653 1240.38 Z" fill="#000000" fill-rule="nonzero" fill-opacity="1" /><path clip-path="url(#clip270)" d="M877.141 1276.35 L895.497 1276.35 L895.497 1280.28 L881.423 1280.28 L881.423 1288.75 Q882.442 1288.41 883.46 1288.25 Q884.479 1288.06 885.497 1288.06 Q891.284 1288.06 894.664 1291.23 Q898.043 1294.4 898.043 1299.82 Q898.043 1305.4 894.571 1308.5 Q891.099 1311.58 884.78 1311.58 Q882.604 1311.58 880.335 1311.21 Q878.09 1310.84 875.682 1310.1 L875.682 1305.4 Q877.766 1306.53 879.988 1307.09 Q882.21 1307.64 884.687 1307.64 Q888.692 1307.64 891.03 1305.54 Q893.368 1303.43 893.368 1299.82 Q893.368 1296.21 891.03 1294.1 Q888.692 1292 884.687 1292 Q882.812 1292 880.937 1292.41 Q879.085 1292.83 877.141 1293.71 L877.141 1276.35 Z" fill="#000000" fill-rule="nonzero" fill-opacity="1" /><path clip-path="url(#clip270)" d="M1011.1 1327.73 Q1007.95 1327.73 1006.1 1329.88 Q1004.27 1332.03 1004.27 1335.78 Q1004.27 1339.51 1006.1 1341.68 Q1007.95 1343.84 1011.1 1343.84 Q1014.24 1343.84 1016.07 1341.68 Q1017.92 1339.51 1017.92 1335.78 Q1017.92 1332.03 1016.07 1329.88 Q1014.24 1327.73 1011.1 1327.73 M1020.38 1313.07 L1020.38 1317.33 Q1018.62 1316.5 1016.81 1316.06 Q1015.03 1315.62 1013.27 1315.62 Q1008.64 1315.62 1006.19 1318.75 Q1003.76 1321.87 1003.41 1328.19 Q1004.78 1326.18 1006.84 1325.11 Q1008.9 1324.02 1011.37 1324.02 Q1016.58 1324.02 1019.59 1327.19 Q1022.62 1330.34 1022.62 1335.78 Q1022.62 1341.11 1019.48 1344.32 Q1016.33 1347.54 1011.1 1347.54 Q1005.1 1347.54 1001.93 1342.96 Q998.758 1338.35 998.758 1329.62 Q998.758 1321.43 1002.65 1316.57 Q1006.54 1311.69 1013.09 1311.69 Q1014.85 1311.69 1016.63 1312.03 Q1018.43 1312.38 1020.38 1313.07 Z" fill="#000000" fill-rule="nonzero" fill-opacity="1" /><path clip-path="url(#clip270)" d="M1124.98 1348.27 L1147.2 1348.27 L1147.2 1350.26 L1134.66 1382.83 L1129.77 1382.83 L1141.58 1352.21 L1124.98 1352.21 L1124.98 1348.27 Z" fill="#000000" fill-rule="nonzero" fill-opacity="1" /><path clip-path="url(#clip270)" d="M1259.93 1402.38 Q1256.6 1402.38 1254.68 1404.17 Q1252.78 1405.95 1252.78 1409.07 Q1252.78 1412.2 1254.68 1413.98 Q1256.6 1415.76 1259.93 1415.76 Q1263.26 1415.76 1265.19 1413.98 Q1267.11 1412.18 1267.11 1409.07 Q1267.11 1405.95 1265.19 1404.17 Q1263.29 1402.38 1259.93 1402.38 M1255.26 1400.39 Q1252.25 1399.65 1250.56 1397.59 Q1248.89 1395.53 1248.89 1392.57 Q1248.89 1388.43 1251.83 1386.02 Q1254.79 1383.61 1259.93 1383.61 Q1265.09 1383.61 1268.03 1386.02 Q1270.97 1388.43 1270.97 1392.57 Q1270.97 1395.53 1269.28 1397.59 Q1267.62 1399.65 1264.63 1400.39 Q1268.01 1401.18 1269.89 1403.47 Q1271.78 1405.76 1271.78 1409.07 Q1271.78 1414.1 1268.7 1416.78 Q1265.65 1419.47 1259.93 1419.47 Q1254.21 1419.47 1251.14 1416.78 Q1248.08 1414.1 1248.08 1409.07 Q1248.08 1405.76 1249.98 1403.47 Q1251.88 1401.18 1255.26 1400.39 M1253.54 1393.01 Q1253.54 1395.69 1255.21 1397.2 Q1256.9 1398.7 1259.93 1398.7 Q1262.94 1398.7 1264.63 1397.2 Q1266.34 1395.69 1266.34 1393.01 Q1266.34 1390.32 1264.63 1388.82 Q1262.94 1387.32 1259.93 1387.32 Q1256.9 1387.32 1255.21 1388.82 Q1253.54 1390.32 1253.54 1393.01 Z" fill="#000000" fill-rule="nonzero" fill-opacity="1" /><path clip-path="url(#clip270)" d="M1374.74 1454.04 L1374.74 1449.78 Q1376.5 1450.62 1378.31 1451.06 Q1380.11 1451.5 1381.85 1451.5 Q1386.48 1451.5 1388.91 1448.39 Q1391.36 1445.27 1391.71 1438.93 Q1390.37 1440.92 1388.31 1441.98 Q1386.25 1443.05 1383.75 1443.05 Q1378.56 1443.05 1375.53 1439.92 Q1372.52 1436.77 1372.52 1431.33 Q1372.52 1426.01 1375.67 1422.79 Q1378.82 1419.57 1384.05 1419.57 Q1390.04 1419.57 1393.19 1424.18 Q1396.36 1428.76 1396.36 1437.51 Q1396.36 1445.69 1392.47 1450.57 Q1388.61 1455.43 1382.06 1455.43 Q1380.3 1455.43 1378.49 1455.08 Q1376.69 1454.74 1374.74 1454.04 M1384.05 1439.39 Q1387.2 1439.39 1389.03 1437.24 Q1390.88 1435.08 1390.88 1431.33 Q1390.88 1427.61 1389.03 1425.45 Q1387.2 1423.28 1384.05 1423.28 Q1380.9 1423.28 1379.05 1425.45 Q1377.22 1427.61 1377.22 1431.33 Q1377.22 1435.08 1379.05 1437.24 Q1380.9 1439.39 1384.05 1439.39 Z" fill="#000000" fill-rule="nonzero" fill-opacity="1" /><polyline clip-path="url(#clip270)" style="stroke:#000000; stroke-linecap:round; stroke-linejoin:round; stroke-width:4; stroke-opacity:1; fill:none" points="1406.33,1410.41 1821.79,1050.61 "/>
<polyline clip-path="url(#clip270)" style="stroke:#000000; stroke-linecap:round; stroke-linejoin:round; stroke-width:4; stroke-opacity:1; fill:none" points="1454.86,1368.39 1446.22,1365.89 "/>
<polyline clip-path="url(#clip270)" style="stroke:#000000; stroke-linecap:round; stroke-linejoin:round; stroke-width:4; stroke-opacity:1; fill:none" points="1539.49,1295.1 1530.85,1292.6 "/>
<polyline clip-path="url(#clip270)" style="stroke:#000000; stroke-linecap:round; stroke-linejoin:round; stroke-width:4; stroke-opacity:1; fill:none" points="1624.12,1221.8 1615.48,1219.31 "/>
<polyline clip-path="url(#clip270)" style="stroke:#000000; stroke-linecap:round; stroke-linejoin:round; stroke-width:4; stroke-opacity:1; fill:none" points="1708.75,1148.51 1700.11,1146.02 "/>
<polyline clip-path="url(#clip270)" style="stroke:#000000; stroke-linecap:round; stroke-linejoin:round; stroke-width:4; stroke-opacity:1; fill:none" points="1793.38,1075.22 1784.74,1072.73 "/>
<path clip-path="url(#clip270)" d="M1491.01 1375.35 L1479.21 1393.8 L1491.01 1393.8 L1491.01 1375.35 M1489.79 1371.28 L1495.67 1371.28 L1495.67 1393.8 L1500.6 1393.8 L1500.6 1397.69 L1495.67 1397.69 L1495.67 1405.84 L1491.01 1405.84 L1491.01 1397.69 L1475.41 1397.69 L1475.41 1393.18 L1489.79 1371.28 Z" fill="#000000" fill-rule="nonzero" fill-opacity="1" /><path clip-path="url(#clip270)" d="M1561.5 1297.99 L1579.86 1297.99 L1579.86 1301.92 L1565.78 1301.92 L1565.78 1310.4 Q1566.8 1310.05 1567.82 1309.89 Q1568.84 1309.7 1569.86 1309.7 Q1575.64 1309.7 1579.02 1312.87 Q1582.4 1316.04 1582.4 1321.46 Q1582.4 1327.04 1578.93 1330.14 Q1575.46 1333.22 1569.14 1333.22 Q1566.96 1333.22 1564.7 1332.85 Q1562.45 1332.48 1560.04 1331.74 L1560.04 1327.04 Q1562.13 1328.17 1564.35 1328.73 Q1566.57 1329.28 1569.05 1329.28 Q1573.05 1329.28 1575.39 1327.18 Q1577.73 1325.07 1577.73 1321.46 Q1577.73 1317.85 1575.39 1315.74 Q1573.05 1313.64 1569.05 1313.64 Q1567.17 1313.64 1565.3 1314.05 Q1563.45 1314.47 1561.5 1315.35 L1561.5 1297.99 Z" fill="#000000" fill-rule="nonzero" fill-opacity="1" /><path clip-path="url(#clip270)" d="M1657.01 1240.11 Q1653.86 1240.11 1652.01 1242.27 Q1650.18 1244.42 1650.18 1248.17 Q1650.18 1251.9 1652.01 1254.07 Q1653.86 1256.22 1657.01 1256.22 Q1660.16 1256.22 1661.99 1254.07 Q1663.84 1251.9 1663.84 1248.17 Q1663.84 1244.42 1661.99 1242.27 Q1660.16 1240.11 1657.01 1240.11 M1666.29 1225.46 L1666.29 1229.72 Q1664.53 1228.89 1662.73 1228.45 Q1660.94 1228.01 1659.19 1228.01 Q1654.56 1228.01 1652.1 1231.13 Q1649.67 1234.26 1649.32 1240.58 Q1650.69 1238.56 1652.75 1237.5 Q1654.81 1236.41 1657.29 1236.41 Q1662.5 1236.41 1665.5 1239.58 Q1668.54 1242.73 1668.54 1248.17 Q1668.54 1253.49 1665.39 1256.71 Q1662.24 1259.93 1657.01 1259.93 Q1651.01 1259.93 1647.84 1255.34 Q1644.67 1250.74 1644.67 1242.01 Q1644.67 1233.82 1648.56 1228.96 Q1652.45 1224.07 1659 1224.07 Q1660.76 1224.07 1662.54 1224.42 Q1664.35 1224.77 1666.29 1225.46 Z" fill="#000000" fill-rule="nonzero" fill-opacity="1" /><path clip-path="url(#clip270)" d="M1729.3 1151.41 L1751.52 1151.41 L1751.52 1153.4 L1738.98 1185.97 L1734.09 1185.97 L1745.9 1155.34 L1729.3 1155.34 L1729.3 1151.41 Z" fill="#000000" fill-rule="nonzero" fill-opacity="1" /><path clip-path="url(#clip270)" d="M1825.78 1096.26 Q1822.45 1096.26 1820.53 1098.05 Q1818.63 1099.83 1818.63 1102.95 Q1818.63 1106.08 1820.53 1107.86 Q1822.45 1109.64 1825.78 1109.64 Q1829.12 1109.64 1831.04 1107.86 Q1832.96 1106.05 1832.96 1102.95 Q1832.96 1099.83 1831.04 1098.05 Q1829.14 1096.26 1825.78 1096.26 M1821.11 1094.27 Q1818.1 1093.53 1816.41 1091.47 Q1814.74 1089.41 1814.74 1086.45 Q1814.74 1082.3 1817.68 1079.9 Q1820.64 1077.49 1825.78 1077.49 Q1830.94 1077.49 1833.88 1079.9 Q1836.82 1082.3 1836.82 1086.45 Q1836.82 1089.41 1835.13 1091.47 Q1833.47 1093.53 1830.48 1094.27 Q1833.86 1095.06 1835.74 1097.35 Q1837.63 1099.64 1837.63 1102.95 Q1837.63 1107.98 1834.56 1110.66 Q1831.5 1113.35 1825.78 1113.35 Q1820.06 1113.35 1816.99 1110.66 Q1813.93 1107.98 1813.93 1102.95 Q1813.93 1099.64 1815.83 1097.35 Q1817.73 1095.06 1821.11 1094.27 M1819.39 1086.89 Q1819.39 1089.57 1821.06 1091.08 Q1822.75 1092.58 1825.78 1092.58 Q1828.79 1092.58 1830.48 1091.08 Q1832.19 1089.57 1832.19 1086.89 Q1832.19 1084.2 1830.48 1082.7 Q1828.79 1081.19 1825.78 1081.19 Q1822.75 1081.19 1821.06 1082.7 Q1819.39 1084.2 1819.39 1086.89 Z" fill="#000000" fill-rule="nonzero" fill-opacity="1" /><polyline clip-path="url(#clip270)" style="stroke:#000000; stroke-linecap:round; stroke-linejoin:round; stroke-width:4; stroke-opacity:1; fill:none" points="686.728,1202.68 686.728,483.08 "/>
<polyline clip-path="url(#clip270)" style="stroke:#000000; stroke-linecap:round; stroke-linejoin:round; stroke-width:4; stroke-opacity:1; fill:none" points="686.728,1179.1 691.714,1174.78 "/>
<polyline clip-path="url(#clip270)" style="stroke:#000000; stroke-linecap:round; stroke-linejoin:round; stroke-width:4; stroke-opacity:1; fill:none" points="686.728,1029.74 691.714,1025.42 "/>
<polyline clip-path="url(#clip270)" style="stroke:#000000; stroke-linecap:round; stroke-linejoin:round; stroke-width:4; stroke-opacity:1; fill:none" points="686.728,880.385 691.714,876.068 "/>
<polyline clip-path="url(#clip270)" style="stroke:#000000; stroke-linecap:round; stroke-linejoin:round; stroke-width:4; stroke-opacity:1; fill:none" points="686.728,731.028 691.714,726.71 "/>
<polyline clip-path="url(#clip270)" style="stroke:#000000; stroke-linecap:round; stroke-linejoin:round; stroke-width:4; stroke-opacity:1; fill:none" points="686.728,581.671 691.714,577.353 "/>
<path clip-path="url(#clip270)" d="M601.748 1164.9 Q598.137 1164.9 596.308 1168.46 Q594.503 1172 594.503 1179.13 Q594.503 1186.24 596.308 1189.81 Q598.137 1193.35 601.748 1193.35 Q605.382 1193.35 607.188 1189.81 Q609.017 1186.24 609.017 1179.13 Q609.017 1172 607.188 1168.46 Q605.382 1164.9 601.748 1164.9 M601.748 1161.19 Q607.558 1161.19 610.614 1165.8 Q613.692 1170.38 613.692 1179.13 Q613.692 1187.86 610.614 1192.47 Q607.558 1197.05 601.748 1197.05 Q595.938 1197.05 592.859 1192.47 Q589.804 1187.86 589.804 1179.13 Q589.804 1170.38 592.859 1165.8 Q595.938 1161.19 601.748 1161.19 Z" fill="#000000" fill-rule="nonzero" fill-opacity="1" /><path clip-path="url(#clip270)" d="M621.91 1190.5 L626.794 1190.5 L626.794 1196.38 L621.91 1196.38 L621.91 1190.5 Z" fill="#000000" fill-rule="nonzero" fill-opacity="1" /><path clip-path="url(#clip270)" d="M637.026 1161.82 L655.382 1161.82 L655.382 1165.75 L641.308 1165.75 L641.308 1174.23 Q642.327 1173.88 643.345 1173.72 Q644.364 1173.53 645.382 1173.53 Q651.169 1173.53 654.549 1176.7 Q657.928 1179.88 657.928 1185.29 Q657.928 1190.87 654.456 1193.97 Q650.984 1197.05 644.664 1197.05 Q642.489 1197.05 640.22 1196.68 Q637.975 1196.31 635.567 1195.57 L635.567 1190.87 Q637.651 1192 639.873 1192.56 Q642.095 1193.12 644.572 1193.12 Q648.576 1193.12 650.914 1191.01 Q653.252 1188.9 653.252 1185.29 Q653.252 1181.68 650.914 1179.57 Q648.576 1177.47 644.572 1177.47 Q642.697 1177.47 640.822 1177.88 Q638.97 1178.3 637.026 1179.18 L637.026 1161.82 Z" fill="#000000" fill-rule="nonzero" fill-opacity="1" /><path clip-path="url(#clip270)" d="M591.563 1043.09 L599.202 1043.09 L599.202 1016.72 L590.892 1018.39 L590.892 1014.13 L599.155 1012.46 L603.831 1012.46 L603.831 1043.09 L611.47 1043.09 L611.47 1047.02 L591.563 1047.02 L591.563 1043.09 Z" fill="#000000" fill-rule="nonzero" fill-opacity="1" /><path clip-path="url(#clip270)" d="M620.915 1041.14 L625.799 1041.14 L625.799 1047.02 L620.915 1047.02 L620.915 1041.14 Z" fill="#000000" fill-rule="nonzero" fill-opacity="1" /><path clip-path="url(#clip270)" d="M645.984 1015.54 Q642.373 1015.54 640.544 1019.11 Q638.739 1022.65 638.739 1029.78 Q638.739 1036.88 640.544 1040.45 Q642.373 1043.99 645.984 1043.99 Q649.618 1043.99 651.424 1040.45 Q653.252 1036.88 653.252 1029.78 Q653.252 1022.65 651.424 1019.11 Q649.618 1015.54 645.984 1015.54 M645.984 1011.84 Q651.794 1011.84 654.85 1016.44 Q657.928 1021.03 657.928 1029.78 Q657.928 1038.5 654.85 1043.11 Q651.794 1047.69 645.984 1047.69 Q640.174 1047.69 637.095 1043.11 Q634.04 1038.5 634.04 1029.78 Q634.04 1021.03 637.095 1016.44 Q640.174 1011.84 645.984 1011.84 Z" fill="#000000" fill-rule="nonzero" fill-opacity="1" /><path clip-path="url(#clip270)" d="M592.558 893.73 L600.197 893.73 L600.197 867.364 L591.887 869.031 L591.887 864.772 L600.151 863.105 L604.827 863.105 L604.827 893.73 L612.466 893.73 L612.466 897.665 L592.558 897.665 L592.558 893.73 Z" fill="#000000" fill-rule="nonzero" fill-opacity="1" /><path clip-path="url(#clip270)" d="M621.91 891.786 L626.794 891.786 L626.794 897.665 L621.91 897.665 L621.91 891.786 Z" fill="#000000" fill-rule="nonzero" fill-opacity="1" /><path clip-path="url(#clip270)" d="M637.026 863.105 L655.382 863.105 L655.382 867.04 L641.308 867.04 L641.308 875.513 Q642.327 875.165 643.345 875.003 Q644.364 874.818 645.382 874.818 Q651.169 874.818 654.549 877.989 Q657.928 881.161 657.928 886.577 Q657.928 892.156 654.456 895.258 Q650.984 898.337 644.664 898.337 Q642.489 898.337 640.22 897.966 Q637.975 897.596 635.567 896.855 L635.567 892.156 Q637.651 893.29 639.873 893.846 Q642.095 894.401 644.572 894.401 Q648.576 894.401 650.914 892.295 Q653.252 890.188 653.252 886.577 Q653.252 882.966 650.914 880.86 Q648.576 878.753 644.572 878.753 Q642.697 878.753 640.822 879.17 Q638.97 879.587 637.026 880.466 L637.026 863.105 Z" fill="#000000" fill-rule="nonzero" fill-opacity="1" /><path clip-path="url(#clip270)" d="M594.78 744.373 L611.1 744.373 L611.1 748.308 L589.156 748.308 L589.156 744.373 Q591.818 741.618 596.401 736.989 Q601.007 732.336 602.188 730.993 Q604.433 728.47 605.313 726.734 Q606.216 724.975 606.216 723.285 Q606.216 720.53 604.271 718.794 Q602.35 717.058 599.248 717.058 Q597.049 717.058 594.595 717.822 Q592.165 718.586 589.387 720.137 L589.387 715.415 Q592.211 714.28 594.665 713.702 Q597.118 713.123 599.155 713.123 Q604.526 713.123 607.72 715.808 Q610.915 718.493 610.915 722.984 Q610.915 725.114 610.104 727.035 Q609.317 728.933 607.211 731.526 Q606.632 732.197 603.53 735.415 Q600.429 738.609 594.78 744.373 Z" fill="#000000" fill-rule="nonzero" fill-opacity="1" /><path clip-path="url(#clip270)" d="M620.915 742.428 L625.799 742.428 L625.799 748.308 L620.915 748.308 L620.915 742.428 Z" fill="#000000" fill-rule="nonzero" fill-opacity="1" /><path clip-path="url(#clip270)" d="M645.984 716.827 Q642.373 716.827 640.544 720.391 Q638.739 723.933 638.739 731.063 Q638.739 738.169 640.544 741.734 Q642.373 745.276 645.984 745.276 Q649.618 745.276 651.424 741.734 Q653.252 738.169 653.252 731.063 Q653.252 723.933 651.424 720.391 Q649.618 716.827 645.984 716.827 M645.984 713.123 Q651.794 713.123 654.85 717.729 Q657.928 722.313 657.928 731.063 Q657.928 739.79 654.85 744.396 Q651.794 748.979 645.984 748.979 Q640.174 748.979 637.095 744.396 Q634.04 739.79 634.04 731.063 Q634.04 722.313 637.095 717.729 Q640.174 713.123 645.984 713.123 Z" fill="#000000" fill-rule="nonzero" fill-opacity="1" /><path clip-path="url(#clip270)" d="M595.776 595.016 L612.095 595.016 L612.095 598.951 L590.151 598.951 L590.151 595.016 Q592.813 592.261 597.396 587.631 Q602.003 582.979 603.183 581.636 Q605.429 579.113 606.308 577.377 Q607.211 575.618 607.211 573.928 Q607.211 571.173 605.267 569.437 Q603.345 567.701 600.243 567.701 Q598.044 567.701 595.591 568.465 Q593.16 569.229 590.382 570.78 L590.382 566.057 Q593.206 564.923 595.66 564.344 Q598.114 563.766 600.151 563.766 Q605.521 563.766 608.716 566.451 Q611.91 569.136 611.91 573.627 Q611.91 575.756 611.1 577.678 Q610.313 579.576 608.206 582.168 Q607.628 582.84 604.526 586.057 Q601.424 589.252 595.776 595.016 Z" fill="#000000" fill-rule="nonzero" fill-opacity="1" /><path clip-path="url(#clip270)" d="M621.91 593.071 L626.794 593.071 L626.794 598.951 L621.91 598.951 L621.91 593.071 Z" fill="#000000" fill-rule="nonzero" fill-opacity="1" /><path clip-path="url(#clip270)" d="M637.026 564.391 L655.382 564.391 L655.382 568.326 L641.308 568.326 L641.308 576.798 Q642.327 576.451 643.345 576.289 Q644.364 576.104 645.382 576.104 Q651.169 576.104 654.549 579.275 Q657.928 582.446 657.928 587.863 Q657.928 593.442 654.456 596.543 Q650.984 599.622 644.664 599.622 Q642.489 599.622 640.22 599.252 Q637.975 598.881 635.567 598.141 L635.567 593.442 Q637.651 594.576 639.873 595.131 Q642.095 595.687 644.572 595.687 Q648.576 595.687 650.914 593.58 Q653.252 591.474 653.252 587.863 Q653.252 584.252 650.914 582.145 Q648.576 580.039 644.572 580.039 Q642.697 580.039 640.822 580.456 Q638.97 580.872 637.026 581.752 L637.026 564.391 Z" fill="#000000" fill-rule="nonzero" fill-opacity="1" /><polyline clip-path="url(#clip272)" style="stroke:#009af9; stroke-linecap:round; stroke-linejoin:round; stroke-width:4; stroke-opacity:1; fill:none" points="1040.46,978.1 1040.41,978.278 1042.48,977.445 1054,972.218 1050.98,973.723 1040.7,978.658 1054.87,972.287 1048,975.65 1053.91,973.082 1048.68,975.655 1056.6,972.168 1060.83,970.396 1045.92,977.435 1053.04,974.374 1073.33,965.039 1089.72,957.025 1093.51,954.662 1088.15,956.34 1075.65,961.725 1096.85,951.061 1101.96,947.587 1084.78,954.817 1097.46,948.695 1101.14,946.404 1114.25,939.217 1101.82,943.059 1088.16,950.519 1042.22,973.561 1067.88,964.125 1011.11,992.681 1025.04,990.387 949.831,1030.21 989.789,1014.85 975.033,1025.13 1009.21,1006.99 1048.05,987.057 1083.01,967.568 1112.53,943.924 1117.25,933.358 1165.76,895.937 1297.24,809.715 1370.84,747.643 1449.94,691.487 1565.44,598.444 1603.18,545.524 1736.1,420.117 1636.39,487.05 1776.82,374.149 1728.44,401.252 1530.93,548.257 1516.09,579.545 1499.34,603.251 1470.25,635.168 1417.57,674.211 1320.98,744.876 1330.37,755.299 1313.47,771.208 1362.29,742.699 1366.59,744.795 1365.98,748.796 1306.28,782.522 1182.99,859.246 1110.94,915.916 1122.96,918.355 1222.49,863.685 1185.77,867.387 1275.46,816.873 1473.52,684.725 1472.77,668.526 1390.91,710.41 1401,701.59 1358.74,728.762 1284.19,773.843 1269.45,800.518 1273.43,799.216 1320.3,777.333 1337.91,766.817 1360.27,742.191 1350.85,748.227 1337.39,760.857 1315.73,771.729 1362.75,738.581 1256.46,823.657 1144.44,902.446 1115.12,918.749 1052.56,965.738 1109.79,941.604 1126.05,920.01 1162.36,898.971 1190.73,877.704 1198.71,870.706 1176.02,873.687 1106.19,915.985 1252.92,829.676 1282.31,815.806 1233.79,831.708 1245.67,831.179 1279.17,812.287 1091.8,950.288 1108.07,938.928 1161.4,907.927 1170.51,891.752 1143.62,905.439 1264.78,836.292 1183.15,876.367 1115.39,914.038 1236.61,843.22 1244.68,835.713 1282.2,814.663 1311.07,792.168 1354.39,755.46 1403.7,724.606 1374.5,751.402 1437.91,681.248 1294.06,777.058 1337.77,761.034 1303.85,787.407 1301.24,775.074 1411.35,703.01 1435.43,663.835 1615.62,538.716 1610.21,502.537 1721.61,410.044 1633.99,468.165 1665,460.651 1625.97,488.407 1579.31,532.17 1454.68,625.393 1503.66,616.705 1493.41,627.559 1427.41,675.94 1472.7,650.631 1352.64,729.519 1374.09,724.27 1476.43,659.736 1316.58,756.213 1289.18,786.368 1222.53,834.46 1184.21,869.402 1183.24,877.98 1167.93,889.488 1028.42,969.235 1045.35,975.057 1115.56,944.118 1156.13,916.22 1134.46,919.059 1074.57,953.923 970.347,1011.31 952.555,1034.74 919.904,1056.33 989.626,1022.72 992.55,1018.54 957.749,1037.43 1041.36,997.148 1073.17,966.941 1018.61,994.223 1044.49,983.672 1124.51,927.441 1088.42,942.035 1032.04,982.678 1076.97,961.764 1067.58,965.656 1072.32,965.28 1140.19,912.763 1238.06,844.185 1249.74,830.553 1218.63,846.268 1090.1,934.704 1141.35,911.99 1182.36,886.054 1174.06,892.991 1164,902.676 1258.72,846.427 1280.39,808.048 1150.97,885.071 1148.29,883.096 1199.01,862.456 1277.23,811.576 1210.89,849.875 1194.31,873.749 1184.28,881.354 1304.82,800.528 1401.84,722.275 1463.91,657.723 1511.89,622.24 1469.83,640.71 1348.56,728.161 1368.14,722.556 1334.8,755.623 1312.64,763.497 1214.34,825.533 1148.67,875.827 1149.6,886.245 1133.09,908.398 1116.99,922.586 1127.86,919.965 1105.94,931.307 1195.09,880.527 1119.25,926.948 1210.42,868.755 1205.12,870.238 1184.75,865.789 1174.47,879.364 1230.32,845.46 1207.38,860.738 1071.35,940.227 1033.44,983.537 987.832,1012.6 934.672,1040.63 986.428,1023.44 1037.19,991.873 1167.52,914.453 1196.01,887.038 1175.1,885.658 1283.82,817.379 1340.09,763.865 1371.02,734.765 1232.7,827.166 1240.88,811.242 1250.2,827.397 1201.65,856.002 1302.97,791.587 1307.85,786.546 1306.45,777.98 1330.29,760.594 1264.8,817.813 1239.86,826.023 1245.38,824.651 1347.45,754.349 1352.27,723.766 1315.19,762.112 1409.12,707.489 1439.17,679.812 1524.65,606.375 1633.65,517.499 1570.56,541.142 1484.85,606.27 1385.85,678.168 1307.67,748.577 1296.79,767.079 1276.08,793.595 1275.84,805.522 1338.27,766.16 1188.61,853.205 1169.04,876.149 1174.78,880.822 1219.73,860.889 1177.43,877.244 1165.8,881.351 1177.53,876.908 1252.23,838.352 1193.5,882.371 1270.68,816.02 1326.5,779.035 1308.29,783.979 1471.76,673.214 1360.04,729.406 1333.72,749.309 1320.4,768.688 1277.01,787.26 1289.2,797.239 1307.75,786.046 1331.2,763.078 1372.66,736.017 1297.31,785.198 1205.8,846.732 1215.21,846.069 1188.7,864.558 1182.12,880.636 1173.8,891.231 1359.34,764.499 1243.18,824.809 1233.74,836.331 1066.38,944.081 1058.6,961.601 1204.44,885.978 1299.41,808.383 1370.75,748.315 1451.13,675.589 1527.13,623.69 1512.43,616.031 1434.52,666.406 1414.61,679.962 1406.09,698.481 1380.44,707.715 1249.47,806.126 1253.41,815.567 1307.55,790.758 1316.17,780.272 1312.09,788.708 1229.04,839.932 1149.89,893.097 1144.83,907.284 1097.71,939.114 1260.12,843.409 1397.46,747.05 1394.49,727.157 1430.15,695.16 1535.76,608.41 1540.79,594.216 1432.02,670.524 1317.55,754.311 1400.4,717.886 1450.64,670.592 1596.15,557.87 1554.09,570.53 1421.25,671.378 1462.29,643.774 1387.77,698.491 1362.97,729.462 1439.54,685.154 1503.22,633.989 1498.54,639.57 1452.35,662.667 1352.17,742.636 1304.59,773.03 1272.9,802.386 1278.41,808.302 1269.78,814.586 1304.96,781.223 1161.61,874.094 1027.95,965.174 967.213,1012.97 931.951,1041.08 884.787,1079.64 888.056,1079.65 835.999,1109.37 897.163,1081.2 940.289,1055.58 1007.73,1014.85 1103.96,956.645 1016.52,994.693 1061.17,969.909 1120.39,927.351 1122.71,926.714 1129.16,920.199 1109.1,930.703 1065.45,965.731 998.337,1004.33 980.303,1019.34 1083.99,960.02 1097.94,945.165 1114.31,927.2 1052.69,968.717 1013.39,986.744 1158.5,885.499 1153.17,899.63 1116.24,919.438 1135.56,912.355 1142.84,902.968 1191.35,871.449 1049.66,982.779 1027.25,995.853 1122.03,936.023 1121.64,925.952 1076.94,951.861 1166.44,898.365 1199.83,884.263 1217.27,854.479 1220.59,856.98 1257.74,818.951 1172.81,875.606 1085.5,934.085 1033.74,972.912 1064.99,963.14 1029.32,984.365 968.659,1018.06 1095.03,959.021 1022.91,993.998 1035.81,973.77 1072.8,962.315 1188.22,898.075 1039.46,991.748 1022.37,991.586 1049.95,982.015 978.648,1016.74 1078.52,968.485 1011.14,1008.85 1024.21,999.655 1213.79,892.971 1244.65,855.088 1138.97,910.55 1069.88,952.71 1066.75,959.94 1069.7,947.09 1039.95,973.097 1090.57,943.216 1120.14,915.985 1026.9,985.023 1064.93,956.386 1021.62,991.355 1083.98,955.295 973.963,1025.24 937.969,1054.57 918.318,1056.85 954.33,1037.67 938.774,1043 866.403,1087.91 848.093,1099.32 789.288,1137.64 885.966,1091.51 830.405,1122.23 815.376,1129.29 968.847,1053.71 943.205,1050.51 945.123,1050.48 975.987,1030.58 949.586,1039.82 1065.51,982.348 1245.07,872.184 1262.45,837.224 1238.23,843.238 1275.8,813.649 1298.51,789.721 1235.83,830.759 1166.86,886.598 1186.71,882.704 1264.67,833.335 1316.49,791.153 1336.24,766.268 1323.39,767.334 1288.06,788.279 1246.22,808.989 1351.96,740.049 1291.09,784.835 1443.59,676.479 1397.17,694.694 1384.65,723.21 1290.64,796.788 1369.74,748.046 1359.33,744.669 1313.37,775.356 1456.26,645.981 1439.49,667.945 1420.76,673.048 1279.49,781.317 1344.13,754.977 1416.53,713.755 1391.51,714.418 1368.14,730.537 1404.94,692.866 1410.24,699.657 1366.27,711.461 1283.96,781.509 1158.29,866.734 1133.79,895.298 1132.28,903.347 1008.82,982.742 1037.29,977.376 968.029,1018.71 950.083,1037.23 916.334,1056.3 989.112,1023.72 1037.58,1000.54 993.236,1012.16 957.987,1036.89 895.464,1073.73 943.373,1053.86 928.559,1054.9 955.546,1040.26 976.59,1025.98 1083.88,969.87 1193.29,898.136 1242.76,841.574 1370.17,759.003 1274.47,806.47 1359.83,747.347 1382.01,716.377 1384.32,722.126 1314.05,762.251 1158.94,876.175 1065.21,936.253 1122.83,920.434 1107.83,935.284 964.845,1021.94 927.432,1047.35 868.949,1085.27 826.116,1112.93 776.732,1144.12 765.256,1153.25 747.748,1168.47 800.149,1146.09 793.124,1144.55 788.048,1144.84 878.358,1102.23 946.544,1064.47 869.481,1091.69 886.058,1088.13 859.606,1100.39 855.698,1102.21 857.774,1104.07 866.149,1092.95 930.081,1061.74 923.065,1061.37 974.173,1029.25 1085.72,963.035 1166.66,912.93 1085.65,951.982 1035.08,974.983 1059.79,962.36 984.447,1011.84 976.226,1026.36 1109.83,943.776 1219.92,875.636 1192.74,873.501 1230.36,846.815 1206.47,857.369 1270.63,804.646 1221.6,845.801 1303,779.455 1257.19,799.118 1068.4,927.916 1095.53,926.086 1099.95,931.441 1104.98,933.992 1068.66,954.196 936.342,1034.69 890.306,1067.7 948.056,1045.24 1072.82,981.185 1043.43,981.931 984.416,1017.56 1038.92,992.626 1048.38,978.109 1092.33,950.376 1072.91,950.214 1024.34,983.263 1101.9,945.368 1094.33,939.467 1211.84,866.367 1221.84,861.079 1069.17,952.732 1122.22,928.829 1152.98,897.788 1126.92,912.081 1036.45,985.131 1043.09,982.777 1018.71,994.397 1020.66,1002.99 1004.03,1002.88 927.851,1048.21 1012.49,1000.88 972.13,1021.47 959.747,1029.7 866.182,1085.14 912.88,1057.35 918.3,1058.65 906.084,1073.7 988.108,1023.08 1032,990.912 1152.18,918.099 1103.3,935.88 1131.7,920.298 1100.11,931.35 1191.06,886.336 1271.38,829.266 1260.97,831.038 1294.82,803.118 1244.31,800.351 1167.52,869.446 1091.39,931.948 986.242,1003.76 984.975,1016.02 979.259,1014.2 1093.06,956.461 1285.86,826.221 1313.07,793.764 1353.08,750.819 1420.7,707.745 1327.15,767.399 1430.1,690 1347.2,746.062 1276.24,792.002 1185.22,862.998 1098.07,921.802 1078.09,947.168 1137.43,917.176 1156.86,911.647 1091.32,933.597 1112.48,923.165 1189.3,879.171 1190.33,878.326 1146.49,912.91 1094.39,938.63 1046.78,964.978 1026.93,994.789 1092.4,945.844 1093.75,939.134 1158.45,905.782 1208.89,887.075 1134.3,943.359 1018.84,1032.32 1054.12,993.49 1060.04,976.474 1132.13,926.212 1093.23,947.544 1083.3,955.863 968.189,1030.14 937.826,1055.18 912.973,1062.91 1040.96,994.023 1074.35,967.728 1021.81,986.711 1005.32,1007.42 951.78,1039.43 900.43,1078.22 868.394,1091.1 912.779,1063.82 921.622,1059.27 1011.81,997.414 987.509,1020.07 988.298,1021.16 1024.51,1001.52 999.573,1014.53 1023.51,997.557 1111.95,948.287 1102.5,935.488 1026.29,981.382 1088.78,954.278 1160.74,902.913 1166.81,898.203 1259.82,836.702 1346.9,764.062 1317.67,772.308 1391.7,723.333 1446.53,706.975 1538.95,610.121 1603.98,543.879 1728.36,418.429 1698.07,427.618 1481.03,595.805 1463.78,622.104 1399.34,674.669 1324.09,741.737 1341.01,742.966 1308.5,772.176 1293.41,787.477 1328.95,775.158 1347.33,761.003 1266.13,807.048 1312.42,786.269 1217.87,848.288 1245.97,834.963 1253.72,831.053 1303.57,785.797 1264.93,808.693 1481.63,667.476 1461.37,662.467 1472.07,650.21 1450.46,648.107 1429.76,665.103 1368.39,721.5 1255.61,804.686 1122.25,893.991 1024.19,966.439 1064.92,962.431 1051.71,971.595 1039.98,984.081 1027.43,997.116 952.451,1038.99 931.575,1054.16 990.842,1027.53 974.412,1026.85 979.506,1024.33 955.835,1025.21 863.42,1084.03 868.815,1087.24 890.598,1071.99 821.871,1112.98 888.389,1084.68 844.319,1105.35 794.133,1135.98 868.385,1098.52 876.39,1095.33 912.596,1072.76 995.076,1019.52 1003.18,1012.21 1016.48,1002.3 1107,942.832 1176.99,896.922 1149.16,913.324 1107.18,937.921 1069.31,964.177 1080.7,955.652 961.13,1034.79 951.172,1044.08 1030.41,1006.43 1130.58,937.84 1134.85,919.973 1086.8,947.729 956.084,1025.58 941.659,1042.96 946.728,1051.05 866.038,1092 814.133,1127.64 925.678,1070.49 950.414,1047.25 968.311,1035.72 1039.13,991.049 1189.45,904.405 1183.89,899.488 1090.64,942.115 1081.25,955.525 1057.18,977.983 1066.59,961.973 1055.97,964.04 1176.43,887.314 1127.3,915.036 1170.84,891.371 1203.85,854.58 1134.49,909.317 1180.42,882.6 1139.36,904.519 1055.01,964.77 1101.06,939.04 1129.42,911.778 1074.99,956.41 1076.89,959.06 1210.66,877.649 1279.41,825.764 1191.19,865.729 1163.93,879.81 1376.76,749.85 1328.64,765.601 1459.31,677.125 1493.94,633.256 1515.69,607.148 1749.86,446.159 1779.5,383.538 1757.17,378.655 1720.89,403.027 1587.31,508.623 1593.52,511.512 1639.08,488.953 1646.56,485.489 1475.92,605.999 1466.08,635.163 1386.93,692.202 1296.61,762.032 1197.41,837.393 1232.94,829.592 1147.91,886.866 1145.95,896.961 1105.43,929.778 1064.71,959.816 1064.61,963.075 1049.74,976.887 1092.47,959.357 1134.57,933.987 1062.9,970.615 954.619,1036.5 1107.85,961.599 1133.07,930.67 1120.23,931.597 1184.35,890.976 1212.16,868.151 1315.48,797.673 1310.15,789.699 1347.72,761.123 1439.27,690.38 1583.96,582.962 1720.96,451.196 1692.31,444.342 1653.45,476.389 1710.95,420.18 1686.49,431.938 1608.09,486.036 1580.78,527.845 1586.37,533.183 1523.79,583.874 1460.12,633.845 1301.46,751.335 1214.5,821.646 1184.91,854.401 1188.61,862.332 1260.67,828.182 1215.95,856.5 1179.03,880.774 1100.17,930.3 1087.44,942.961 1014.73,989.192 987.808,1012.52 990.754,1017.81 994.862,1020.83 1001.38,1020.34 1048.72,984.24 1035.03,983.645 1133.25,930.604 1083.02,946.636 1068.97,962.295 1148.08,918.001 1127.87,920.068 1075.41,954.999 1130.35,912.275 1070.38,947.671 1215,864.03 1215.63,861.141 1239.57,837.354 1180.14,886.465 1250.84,819.823 1278.76,788.053 1293.9,784.195 1156.05,882.145 1174.94,884.731 1147.6,898.292 1194.92,863.156 1245.23,841.211 1258.76,833.331 1175.92,890.577 1230.3,848.857 1374.2,744.406 1351.06,752.081 1286.98,792.859 1214.68,845.749 1104.47,919.641 1118.39,918.39 1165.15,894.561 1089.21,936.582 1090.94,940.035 1100.47,930.646 1159.37,885.348 1224.18,852.839 1211.31,862.128 1176.87,894.955 1125.64,928.682 1080.82,980.929 1143.49,920.57 1117.95,930.614 1016.89,988.456 923.526,1052.17 906.891,1067.67 993.696,1018.26 1196.71,899.585 1215.95,870.648 1231.47,852.843 1172.65,878.058 1195.78,876.836 1060.5,961.041 1101.93,936.381 1102.88,947.319 960.982,1045.44 879.354,1100.92 925.718,1073.93 980.55,1040.85 957.397,1051.34 1064.12,981.859 1118.38,944.572 1197.42,883.498 1103.65,938.186 1035.89,974.529 1038.52,965.856 1049.46,959.894 1112.46,934.01 1130.59,917.623 967.797,1019.36 954.451,1034.52 908.311,1057.05 1012.18,1002.71 1067.89,978.677 1093.97,949.345 1086.89,947.091 994.483,1003.72 1104.67,937.51 1089.42,950.414 1061.78,955.841 989.404,987.709 920.656,1042.47 986.909,1020.59 1003.53,1011.58 1067.24,971.787 1119.57,935.043 1070.9,956.842 1106.25,939.353 1071,956.484 1183.51,888.98 1313.31,797.987 1215.62,846.084 1165.67,879.89 1110.54,916.15 1113.24,928.262 1097.58,941.553 1217.46,858.009 1245.44,834.7 1241.2,831.756 1271.38,810.419 1269.59,802.919 1237.36,833.091 1362.1,734.03 1338.37,752.261 1326.08,752.154 1366.55,740.235 1439.87,684.637 1314.66,778.611 1240.49,832.077 1220.75,855.069 1158.54,904.45 1231.89,849.143 1347.9,744.04 1194.68,845.275 1179.33,874.596 1100.31,931.605 1100.19,939.455 1086.4,948.24 984.491,1022.62 1045.95,986.015 1053.81,978.557 1017.2,1001.83 1007.84,1005.63 991.739,1019.38 952.78,1045.06 853.895,1098.55 887.774,1080.08 952.048,1047.09 889.117,1087.15 877.461,1093.15 859.165,1103.99 901.16,1081.69 866.061,1103.61 990.43,1030.71 952.419,1043.13 978.733,1026 937.014,1042.09 943.488,1049.33 1062.72,981.282 1089.76,964.113 1165.46,902.355 1159.89,899.265 1251.47,845.357 1228.27,829.952 1156.35,881.689 1058.39,943.817 1085.92,938.56 1033.16,968.909 1098.02,933.876 1048.85,951.194 1047.67,967.279 1056.59,971.649 1067.82,965.052 1132.79,907.222 1111.22,925.79 1130.98,897.613 1130.61,914.547 1127.61,913.522 1097.74,940.052 1126.95,917.71 1161.33,879.446 1134.7,899.081 1112.19,915.759 1156.3,885.117 1119.06,931.782 1050.16,967.636 981.487,1007.63 869.005,1070.65 1002.58,1013.5 1013.74,1004.91 976.141,1027.7 912.89,1067.71 810.264,1125.99 792.234,1135.25 858.362,1106.1 889.442,1088.49 914.009,1070.94 850.166,1106.01 887.593,1091.16 1000.31,1030.57 1030.37,993.024 1067.29,968.667 1058.12,969.697 1172.44,902.786 1216.13,865.478 1203.49,857.703 1126.34,905.552 1055.01,953.878 1052.23,972.299 1167.91,905.585 1224.84,853 1154.45,892.236 1144.13,898.926 1239.82,841.863 1201.57,859.088 1174,883.92 1256.47,823.203 1257.73,816.992 1374.01,748.96 1513.88,622.348 1522.29,586.375 1510.35,590.48 1497.23,615.828 1454.68,646.651 1316.66,748.754 1212.93,828.94 1160.32,872.827 1174.05,876.566 1113.59,920.855 1129.76,913.973 1055.59,968.403 1033.99,986.603 1020.49,993.742 957.925,1026.86 845.368,1096.19 861.041,1097.2 877.375,1090.89 880.777,1092.35 860.459,1104.66 944.413,1056.96 986.157,1033.16 1012.76,1013.73 1033.03,1000.45 1110.2,951.508 1066.94,967.981 1045.23,980.398 1060.81,972.443 1090.99,953.183 1122.34,926.191 1141.22,913.493 1180.89,882.761 1230.52,853.57 1152.22,904.27 1331,777.472 1292.42,796.508 1259.24,808.824 1213.26,842.513 1298.34,791.315 1207.34,865.442 1193.88,865.784 1092.27,927.118 985.012,995.687 962.474,1019.57 931.224,1044.85 980.466,1023.02 915.719,1063.55 961.733,1042.84 974.91,1031.78 886.686,1077.66 896.218,1077.68 787.352,1138.05 793.269,1139.48 806.171,1135.4 832.734,1113.41 861.81,1099.3 870.629,1090.3 929.518,1060.2 1002.09,1019.27 1043.66,986.503 1027.09,987.877 1057.55,977.466 1095.08,952.245 1223.35,869.537 1184.17,881.272 1265.95,828.178 1416.52,709.95 1455.49,652.087 1402.56,691.946 1381.23,709.15 1341.03,736.803 1305.8,769.273 1222.44,831.28 1218.74,847.486 1070.08,940.299 1112.09,928.116 1001.03,995.114 1028.97,984.452 1029.29,997.886 1157.94,915.793 1228.45,862.431 1212.72,851.195 1237.13,840.011 1237.22,836.304 1274.77,811.369 1396.65,714.465 1370.83,728.936 1312.78,768.984 1352.76,745.813 1388.08,698.988 1415.31,687.971 1398.91,702.676 1493.78,638.449 1404.27,698.925 1416.78,696.392 1351.79,753.281 1337.03,756.673 1326.49,777.644 1235.71,834.995 1130.05,899.091 1137.62,912.347 1145.64,903.786 1212.51,865.748 1175.03,877.758 1229.41,833.87 1132.98,892.474 1279.35,804.172 1409.1,723.242 1288.38,804.337 1211.39,848.947 1250.53,809.259 1402.65,686.866 1279.74,783.11 1144.41,882.391 979.566,991.22 966.679,1014.28 1009.78,1002.19 1074.48,962.379 1080.74,953.541 1115.85,939.38 1042.33,976.539 1061.13,964.337 1115.47,934.256 1202.22,868.602 1128.97,909.931 1010.01,991.823 1028.93,989.327 1065.81,972.318 1008,992.258 1032.5,985.261 1110.38,936.479 1012.62,990.966 1133.43,919.995 1212.58,865.022 1184.41,869.863 1239.93,837.731 1151.67,900.586 1029.34,978.604 1078.39,957.071 1025.9,992.908 1156.48,902.132 1264.37,824.435 1228,842.545 1338.01,761.064 1278.44,803.819 1263.65,808.555 1217.18,855.204 1297.26,810.746 1328.17,782.688 1242.02,821.568 1238.84,824.721 1390.73,736.38 1429.84,696.409 1378.09,724.555 1585.78,585.59 1547.39,593.22 1532.62,595.54 1455.66,649.028 1495.38,608.786 1390.93,683.782 1445.52,651.871 1306.85,755.034 1266.53,795.893 1224.95,833.088 1271.09,813.33 1227.72,839.276 1276.62,813.705 1296.84,799.428 1406.18,722.798 1334.97,756.863 1389.08,714.857 1375.61,715.86 1345.35,738.766 1376.75,715.147 1323.33,759.71 1298.51,782.399 1145.56,885.741 1098.17,926.004 1179.62,884.915 1034.09,972.675 1116.72,937.818 1057.1,965.744 1025.17,993.946 1019.93,997.949 969.528,1025.62 1018.51,1001.35 1083.23,965.58 1029.51,991.973 996.962,1013.32 1149.43,919.876 1165.99,896.127 1100.63,931.102 1163.34,902.539 1220.92,862.075 1286.22,815.096 1255.98,819.548 1259.05,831.547 1305.11,801.803 1313.08,774.381 1187.96,865.341 1239.88,843.968 1316.34,786.137 1313.26,781.859 1187.95,868.531 1284.22,807.568 1213.33,847.89 1236.8,820.973 1384.11,698.292 1423.16,677.48 1503.66,627.282 1460.04,651.038 1518.93,617.177 1515.56,618.267 1443.3,664.603 1288.17,775.765 1383.86,723.039 1483.03,658.258 1540.41,608.641 1543.73,583.696 1571.57,555.306 1526.55,586.52 1389.38,690.156 1425.33,684.253 1237.61,814.914 1134.61,889.072 1120.66,913.323 1144.91,908.952 1257.56,851.745 1188.71,881.102 1191.08,875.42 1375.02,764.76 1353.66,760.067 1342.88,755.65 1452.69,686.839 1532.29,615.935 1464.02,649.189 1427.25,678.359 1317,749.037 1164.04,857.348 1143.44,887.393 1064.36,940.644 1020.71,983.67 1045.3,976.415 998.778,1005.46 1071.99,971.123 1115.95,941.131 1086.54,954.343 1113.88,934.092 1132.04,919.395 1168.06,902.084 1195.36,888.492 1121.39,921.587 1101.35,932.863 1149.03,903.813 1046.07,965.473 1041.43,982.322 1107.04,946.304 1006,1014.31 958.236,1045.27 988.172,1025.56 929.048,1059.66 981.574,1030.36 990.751,1027.46 1046.71,976.323 1110.48,950.588 1213.46,872.896 1143.4,897.643 1161.54,894.227 1156.29,885.747 1162.16,889.093 1090.68,931.576 1023.39,975.263 1084.12,951.422 1125.6,931.36 1018.1,993.15 971.816,1024.86 969.687,1020.95 938.187,1042.17 925.823,1044.2 915.984,1062.78 991.505,1009.81 947.555,1036.26 948.218,1043.73 911.477,1057.43 945.146,1045.37 861.125,1102.57 823.34,1124.93 852.325,1111.46 974.766,1041.95 980.566,1036.23 1013.97,1011.1 1102.88,951.393 1068.26,961.501 1009.08,994.984 944.606,1033.96 963.964,1041.4 962.472,1036.18 991.279,1019.74 929.915,1057.95 911.092,1074.79 852.332,1101.85 830.965,1112.33 970.795,1040.21 980.606,1029.32 901.763,1078.55 874.851,1088.29 872.203,1091.4 1018.91,1003.57 956.097,1038.01 1023.12,1004.09 947.372,1045.03 958.884,1043.18 992.043,1021.33 1017.72,1008.75 985.79,1014.82 1010.72,1003.49 1128.85,930.568 1065.28,963.022 1124.78,929.324 1102.01,943.061 1129.99,924.16 1097.94,947.413 1000.07,1017.82 923.945,1054.83 824.666,1116.79 769.717,1149.03 763.964,1159.67 799.663,1141.78 782.411,1149.89 971.526,1053.92 968.175,1042.54 917.755,1063.55 923.274,1060.87 917.991,1065.12 1097.93,965.426 1082.72,967.782 1150.97,920.474 1169.44,900.363 1169.18,888.279 1216.53,843.341 1189.42,867.499 1249.77,820.146 1320.43,774.747 1304.41,779.054 1267.25,794.329 1165.45,879.53 1150.39,892.721 1118.96,920.699 1173.76,897.361 1138.72,920.937 1119.32,926.089 1107.89,932.156 1168.67,890.64 1318.01,799.956 1301.93,792.66 1285.43,798.12 1344.23,751.296 1402.82,702.977 1461.99,650.253 1478.67,621.52 1501.15,599.531 1400.27,685.621 1415.72,687.965 1411.93,695.683 1186.64,850.584 1215.96,842.507 1260.2,823.81 1169.53,876.298 1245.35,836.306 1339.36,764.513 1349.08,753.245 1302.25,787.404 1299.89,795.661 1380.45,739.03 1432.61,707.424 1356.05,755.997 1293.96,806.925 1231.7,844.206 1237.9,829.543 1176.42,880.686 1135.63,918.452 1131.79,927.155 1180.6,903.584 1146.33,903.244 1264.64,841.428 1400.31,733.167 1420.68,705.123 1323.34,763.335 1450.63,681.821 1470.54,655.249 1600.18,560.701 1541.03,563.839 1539.64,569.423 1564.83,561.774 1417.32,669.902 1310.02,748.416 1326.04,751.155 1239.46,806.605 1227.26,834.687 1203.32,856.513 1170.84,880.751 1154.4,896.159 1166.55,892.394 1065.82,947.704 1037.29,976.349 1042.39,974.574 1059.7,970.06 912.176,1058.14 960.467,1036.75 922.653,1062.57 913.227,1065.22 1057.48,984.45 1048.02,976.096 1054.74,965.327 1141.5,915.948 1244.47,843.163 1216.45,848.688 1231.63,843.703 1172.95,888.619 1257.07,823.67 1248.84,828.725 1314.16,777.681 1283.7,794.758 1306.87,771.548 1326.51,758.573 1366.43,731.432 1383.91,711.346 1256.03,807.076 1196.79,852.701 1220.3,847.913 1147.94,891.379 1015.5,974.631 1062.64,964.833 1187.39,898.838 1171.16,901.561 1207.07,871.978 1210.55,865.321 1347.88,780.351 1276.11,810.252 1344.77,762.722 1295.85,797.965 1182.39,867.704 1111.32,917.284 1019.69,979.017 1004.32,1002.46 1078.02,968.379 1141.93,926.909 1114.31,930.51 1001.34,986.247 978.805,1016.87 976.792,1024.63 915.162,1059.78 938.041,1044.45 936.554,1044.2 874.017,1077.61 873.621,1083.56 837.147,1102.21 929.663,1064.2 908.849,1070.04 903.803,1073.56 798.695,1125.68 832.722,1113.97 815.229,1124.91 791.493,1137.05 809.603,1123.78 837.822,1120.18 836.357,1117.84 950.658,1055.7 818.73,1121.83 798.738,1132.55 778.056,1147.13 776.122,1156.57 833.12,1127.01 848.869,1108.73 837.65,1113.06 909.026,1075.12 980.895,1029.68 1038.64,994.047 1157.64,919.697 1091.45,932.815 1035.01,968.813 967.587,1016.27 1018.03,996.049 992.484,1007.44 1100.8,954.015 1085.39,957.032 1154.03,918.481 1237.94,849.267 1281.71,809.485 1319.48,768.103 1289.48,797.374 1381.58,721.794 1501.73,639.931 1405.35,702.382 1425.77,675.19 1319.07,753.924 1397.29,725.845 1404.24,710.942 1523.17,613.228 1542.3,570.713 1660.11,508.833 1669.42,484.979 1624.53,489.779 1501.96,580.914 1560.72,550.341 1435.93,645.961 1422.73,671.129 1501.92,632.218 1453.76,659.269 1381.45,706.101 1284.16,775.843 1292.43,783.36 1269.87,801.29 1237.33,838.965 1226.31,844.654 1146.45,894.777 1230.08,852.474 1175.5,883.178 1101.86,933.926 1096.45,942.069 1118.21,930.457 1044.09,975.041 1000.15,1006.92 1053.24,981.506 1107.59,948.94 1161.43,912.134 1056.65,959.338 1073.15,952.823 1100.36,931.161 1060.37,955.919 1059.92,966.289 1087.05,960.274 1049.58,975.41 1043.38,972.775 959.216,1023.3 990.529,997.215 1068.88,964.468 1150.75,900.512 1188.04,873.396 1241.4,839.968 1192.06,873.582 1169.19,895.052 1221.56,829.612 1313.7,780.844 1288.34,780.641 1291.26,781.382 1361.22,732.852 1274.76,788.695 1167.47,861.299 1231.5,846.084 1210.38,852.162 1201.76,865.463 1215.5,863.583 1223.34,854.348 1105.46,917.235 1100.35,933.785 1051.35,962.163 1067.1,960.161 1111.66,938.55 1156.86,909.894 1139.47,917.519 1187.53,882.781 1108.13,922.861 1170.98,886.53 1168.35,891.617 1104.59,927.317 1088.58,936.534 1100,935.412 1031.86,980.779 1031.68,988.719 1053.18,975.493 1120.22,949.739 1075.55,967.641 1080.71,963.296 1093.13,936.503 1298.79,822.187 1348.7,764.774 1302.51,773.704 1201.02,843.134 1252.52,823.903 1227.63,834.845 1213.1,849.948 1242.82,836.573 1384.65,737.012 1254.83,809.508 1292.59,796.643 1269.94,808.701 1255.34,809.815 1219.38,846.449 1244.55,837.417 1194.29,867.342 1188.88,879.16 1166.39,893.901 1156.74,902.264 1177.68,889.96 1184.12,879.361 1148.09,902.846 1233.24,847.852 1364.49,768.761 1416.92,704.316 1398.41,708.36 1401.5,702.89 1421.84,688.073 1419.66,696.509 1277.69,795.635 1182.56,857.94 1227.1,838.328 1321.61,771.758 1295.45,786.04 1130.32,896.071 1168.48,890.505 1171.51,884.745 1186.75,864.652 1099.63,928.633 1068.01,957.201 1023.56,988.148 1111.05,936.637 1049.29,977.301 1193.92,887.048 1141.4,915.557 1115.79,929.986 1054.67,974.437 1149.57,921.181 1119.25,927.465 1196.17,869.794 1347.75,769.613 1438.91,701.467 1278.99,810.146 1375.33,736.32 1303.24,782.074 1273.43,799.697 1205.08,848.826 1127.22,893.848 1103.62,907.162 1140.8,878.552 1091.28,930.059 1120.69,921.982 1086.35,943.838 1060.03,963.498 1101.77,944.735 1138.03,912.037 1168.41,895.562 1368.18,756.672 1274.88,800.621 1221.96,834.884 1226.27,843.014 1195.39,863.085 1199.35,859.05 1222.45,846.394 1235.89,847.992 1296.29,801.329 1362.91,757.456 1380.53,730.801 1329.25,755.175 1382.87,730.73 1407.06,699.649 1366.24,726.943 1447.25,672.954 1362.58,725.887 1320.75,749.742 1274.27,796 1187.65,856.099 1209.71,852.146 1099.54,920.714 1154.63,900.922 1181.58,888.482 1094.75,935.161 1106.89,930.731 1038.9,978.673 1149.55,907.54 1066.36,942.388 1103.72,932.809 1010.9,996.4 1052.92,971.089 1066.06,975.574 1157.3,908.934 1129.43,928.829 1159.52,896.507 1111.76,920.096 1185.76,890.782 1159.54,906.631 1155.87,902.569 1142.77,910.293 1252.25,837.947 1271.33,811.584 1235.48,820.212 1255.2,810.332 1237.63,830.134 1111.82,910.251 1051.9,943.272 1054.53,961.124 1075.63,952.668 1152.89,909.637 1068.19,964.946 1103.03,926.34 1104.04,931.819 1233.54,837.806 1216.85,835.514 1206.85,844.997 1132.12,900.628 1181.32,883.806 1237.1,851.543 1207.49,853.913 1175.6,878.005 1215.53,853.419 1134.63,910.029 1136.18,914.611 1195.25,886.757 1191.75,885.134 1280.02,826.103 1397.02,724.608 1380.04,729.428 1412.11,706.189 1338.12,752.303 1205.51,850.009 1280.15,815.547 1239.57,840.712 1213.19,857.076 1171.75,884.554 1133.39,919.421 1166.03,907.262 1066.88,963.194 1094.56,938.539 1106.11,928.915 1131.55,926.08 1127.93,931.258 1156.36,920.473 1160.78,921.319 1224.37,875.281 1143.4,915.864 1088.26,953.426 1043.7,982.291 1023.63,1015.94 1032.32,998.203 984.738,1030.81 922.543,1052.3 949.798,1047.38 891.593,1082.19 955.135,1046.16 981.232,1031.47 869.226,1090.71 848.462,1104.23 786.318,1137.02 863.431,1093.55 839.443,1107.68 825.499,1114.93 846.114,1107.16 813.995,1116.67 957.18,1042.39 1060.89,993.357 1104.37,950.832 1128.41,927.978 1069.27,957.894 1226.2,862.289 1185.83,874.732 1163.98,888.531 1118.51,916.929 1049.76,963.445 1114.09,937.557 1056.84,972.66 1086.14,959.564 1173.74,898.346 1137.61,912.342 1095.47,949.278 1075.3,955.862 1115.61,912.387 1178.87,888.855 1249.53,818.694 1281.43,804.784 1253.5,826.797 1223.25,846.483 1267.95,804.982 1142.28,891.998 1220.32,850.632 1181.29,878.898 1191.63,875.515 1198.17,872.015 1372.77,767.755 1293.67,799.323 1286.37,802.898 1359.37,757.979 1410.35,722.363 1359.01,742.742 1211.83,840.758 1267.73,806.854 1233,829.113 1147.58,893.034 1124.41,913.544 1094.49,933.026 1048.32,967.951 1033.81,981.498 1056.15,975.187 1148.31,924.759 1061.32,967.377 1003.85,1000.92 1050.77,979.106 1044.64,972.661 1028.7,993.823 1012.64,993.281 937.395,1038.84 999.892,1004.35 970.862,1006.33 997.931,1005.52 1037.09,980.127 1045.36,979.193 1154.61,899.931 1083.41,952.166 1049.86,976.08 1138.58,921.807 1195.61,881.642 1112.53,937.186 1076.51,932.684 1108.09,929.701 1092.48,941.552 1094.75,948.879 1255.77,836.35 1250.57,836.51 1187.5,863.465 1126.83,914.343 1203.06,863.847 1148.15,904.931 1194.53,877.194 1154.59,885.135 1132.73,903.319 1140.35,906.296 1128.21,913.666 1074.72,942.817 966.903,1021.15 968.857,1026.78 964.259,1039.37 1046.34,994.678 1087,961.108 1092.31,941.81 990.167,1001.19 1028.03,980.758 1084.1,957.276 1020.99,991.797 1032.74,991.54 1053.86,978.299 1141.16,935.695 1157.54,899.03 1214.05,856.829 1156.13,886.404 1098.21,927.731 1183.56,883.885 1157.51,895.9 1166.36,897.074 1222.25,850.871 1288.21,819.203 1235.34,840.283 1274.23,818.232 1452.68,705.488 1451.62,684.061 1486.8,647.42 1392,704.587 1363.63,726.804 1440.71,676.867 1465.11,661.92 1534.75,605.27 1337.65,732.259 1439.99,679.988 1542.64,598.218 1658.87,491.152 1570.57,538.425 1541.51,570.519 1616.27,523.434 1690.33,461.92 1658.2,480.707 1654.14,484.715 1438.31,640.868 1401.66,678.77 1383.82,704.946 1442.82,675.355 1548.73,609.829 1426.96,673.818 1436.18,676.295 1408.5,693.888 1394.53,708.727 1367.62,728.367 1348.52,745.393 1365.44,740.002 1245.49,812.443 1219.13,827.102 1320.24,760.218 1395.23,695.116 1445.1,671.39 1412.63,692.543 1412.83,695.15 1276.24,792.404 1285.21,800.153 1380.77,736.854 1260.61,812.383 1101.95,918.814 1088.27,939.198 1090.79,942.284 1256.29,839.647 1250.47,827.339 1223.76,841.18 1095.33,927.742 1111.23,931.478 1019.07,986.915 1040.41,973.071 1155.83,913.183 1200.37,865.313 1155.75,884.27 1182.55,875.986 1268.51,825.857 1338.41,762.641 1383.53,728.475 1432.29,695.519 1420.75,687.747 1401.29,692.53 1336.81,744.466 1379.91,722.691 1351.96,741.144 1288.69,781.744 1182.03,866.962 1170.91,884.984 1302.01,805.705 1226.3,850.01 1192.1,873.818 1173.74,891.534 1280.42,805.511 1288.72,796.597 1284.26,791.302 1320.71,763.71 1390.75,714.374 1474.68,653.57 1430.06,684.43 1308.36,767.276 1297.07,787.677 1286.33,798.381 1263.31,823.365 1212.22,850.978 1265.46,821.571 1167.43,883.881 1052.11,960.448 1063.96,962.009 1110.45,931.894 1060.55,975.723 1076.35,956.532 1008.23,998.789 999.411,1010.9 1031.87,994.606 1060.08,976.435 1078.16,961.891 1095.47,935.423 1037.59,973.233 1169.26,902.406 1075.92,963.586 1217.64,861.492 1149.57,897.412 1298.77,800.938 1396.12,729.788 1311.55,770.372 1299.04,780.678 1286.05,791.36 1479.46,650.478 1508.48,608.863 1697.59,463.612 1628.8,496.745 1587.62,533.542 1591.97,528.731 1544.78,569.432 1607.65,528.969 1446.27,645.122 1357.26,706.785 1327.42,746.21 1299.27,778.199 1302.5,779.094 1257.55,811.101 1208.5,846.507 1164.46,881.448 1135,900.92 1113.92,921.957 1063.66,953.898 1065.99,962.981 1042.85,976.448 1014.42,992.485 1109.43,948.608 1110.01,939.721 1059.38,962.397 1139.85,916.219 1330.48,801.018 1311.57,779.384 1377.02,732.43 1377.27,730.582 1288.5,785.454 1324.88,778.866 1174.5,884.16 1115.56,921.123 1049.14,969.276 993.966,1008.97 1143.19,923.39 1263.3,846.188 1338.37,779.652 1298.16,805.286 1345.74,779.821 1290.82,808.72 1297.54,791.459 1371.68,736.052 1251.89,821.072 1361.6,746.968 1308.68,780.515 1210.51,847.667 1180.24,875.489 1082.82,940.308 1112.76,922.292 1172.03,872.122 1335.08,763.037 1348.14,749.916 1468.67,656.618 1456.48,648.125 1441.86,646.52 1372.23,707.83 1293.04,769.99 1232.7,815.535 1116.79,903.411 1121.47,913.63 1106.14,929.096 1075.67,948.56 1086.05,949.661 1102.55,938.619 1244.15,858.907 1246.87,847.463 1257.65,829.619 1214.06,846.165 1214.42,853.298 1092.39,935.647 1136.99,923.163 1064.83,964.777 1145.88,930.602 1258.17,841.436 1326.48,790.704 1357.8,754.52 1369.83,739.391 1371.29,732.305 1353.85,739.237 1294.18,776.714 1270.22,801.806 1187.11,863.037 1186.86,873.491 1274.39,824.039 1274.63,798.301 1316.38,772.619 1399.5,719.007 1449.14,684.718 1432.57,681.189 1410.09,689.87 1569.9,563.071 1590.06,537.901 1574.97,544.627 1428.19,650.326 1468.35,640.338 1406.32,686.072 1385.31,705.595 1213.86,827.947 1205.1,845.903 1282.5,817.265 1197.72,863.745 1241.25,851.684 1212.66,865.782 1199.24,870.118 1250.88,840.805 1263.81,809.535 1249.12,821.952 1271.1,810.781 1170.14,872.831 1168.15,879.321 1238.82,838.997 1218.81,844.938 1273.75,803.533 1225.36,831.538 1189.53,863.188 1182.5,868.387 1255.59,824.981 1310.77,791.47 1254.14,829.513 1143.46,910.624 1166.6,896.427 1169.01,895.19 1270.66,825.532 1199.01,859.582 1229.18,847.055 1168.41,883.921 1258.21,829.491 1297.19,792.811 1304.84,786.088 1327.57,763.448 1235.38,818.95 1265.2,809.476 1398.42,720.016 1378.22,720.579 1325.97,752.225 1287.09,795.537 1289.34,801.692 1451,679.604 1371.98,733.713 1343.56,754.102 1192.29,840.983 1132.45,898.985 1139.56,907.867 1156.5,899.215 1168.71,887.713 1259.45,833.685 1268.79,823.071 1470.29,676.015 1614.74,564.543 1637.24,527.206 1704.51,463.689 1579.84,538.904 1597.34,524.3 1641.7,481.319 1626.88,497.801 1524.98,572.911 1484.17,618.909 1554.34,583.827 1482.88,633.056 1382.72,706.37 1338.23,742.467 1305.9,772.819 1312.3,777.357 1288.75,793.235 1147.81,886.637 1214.63,864.829 1199.76,869.514 1248.12,838.435 1190.3,875.181 1347.53,773.074 1326.23,777.579 1420.77,702.192 1452.71,673.553 1422.62,691.335 1484.33,636.337 1444.41,666.837 1326.21,746.642 1353.75,740.78 1288.55,801.921 1289.57,805.668 1334.17,776.723 1319.85,774.811 1193.44,855.763 1143.41,890.403 1096.94,924.268 1097.99,935.863 1065.79,958.197 1084.95,947.79 1189.42,881.365 1255.67,833.398 1389.01,738.097 1315.78,779.523 1219.92,840.385 1161.17,881.277 1134.77,905.346 1124.57,921.711 1101.71,933.124 1078.62,945.25 1009.74,1006.23 1027.42,998.321 1100.08,944.166 1165.38,905.215 1223.53,872.529 1343.39,784.41 1464.47,689.528 1413.58,702.735 1363.8,728.916 1363.15,735.877 1472.94,656.111 1451.98,674.353 1349.86,748.091 1164.55,875.485 1145.05,902.661 1176.19,888.875 1298.69,814.804 1443.92,712.856 1481.52,655.353 1486.57,636.903 1599.18,555.23 1541.29,589.935 1585.31,547.514 1638.64,490.508 1629.04,492.443 1518.65,587.591 1444.68,650.07 1433.59,657.361 1388.41,703.535 1337.61,742.185 1228.04,816.125 1298.26,783.424 1186.76,854.403 1185.54,867.569 1167.46,886.701 1248.3,836.353 1347.46,775.523 1209.12,853.836 1243.33,842.652 1284.92,811.946 1343.54,761.614 1327.55,759.402 1406.94,705.76 1307.53,765.897 1255.85,793.54 1316.64,769.121 1261.97,825.575 1243.24,829.839 1242.09,829.483 1208.16,856.588 1228.73,829.782 1330.04,769.639 1205.28,866.236 1296.26,804.301 1197.31,864.672 1176.42,865.665 1228.5,837.67 1376.86,759.64 1313.77,806.241 1322.77,793.358 1267.14,809.4 1479.96,661.289 1630.36,543.647 1505.49,602.553 1374.54,703.157 1441.76,667.218 1342.04,729.048 1296.82,780.218 1216.91,834.564 1204.34,844.444 1083.29,923.616 1065.08,946.359 1062.22,959.552 1078.31,958.242 1038.51,980.633 1043.26,983.3 1075.48,966.137 1037.29,993.091 994.204,1020.17 1042.49,985.285 1084.93,959.033 1029.65,988.043 1154.68,898.932 1097.22,930.045 1024.37,977.84 1078.19,961.403 1146.55,930.096 1080.96,967.142 1051.3,977.557 1017.02,999.068 1147.66,913.617 1158.92,896.474 1241.98,830.27 1185.58,868.29 1156.21,898.864 1224.88,849.321 1276.23,817.297 1228.71,825.972 1203.48,857.085 1250.66,836.402 1256.06,819.072 1289.73,794.031 1315.42,782.423 1231.23,824.441 1154.25,883.989 1151.92,886.106 1036.8,971.692 1080.87,955.557 1039.82,977.032 1039.33,981.362 1035.73,988.115 1024.37,1000.29 1106.49,951.167 1050.12,974.253 1018.26,998.485 1047.78,981.668 1035.98,995.057 1068.26,956.451 1010.5,990.68 1019.72,994.654 1025.57,992.52 1121.79,938.046 1071.74,958.238 1027.97,977.323 1091.7,950.01 951.308,1041.37 937.581,1041.4 1001.15,1009.42 975.101,1014.64 937.8,1034.18 929.271,1033.65 872.116,1066.27 905.871,1064.04 968.2,1023.44 953.622,1036.35 1067.69,974.187 1141.62,920.957 1171.6,892.237 1127.43,921.733 1149.23,904.722 1285.27,811.957 1146.34,887.321 1166.15,885.314 1197.88,860.167 1255.68,820.826 1230.75,845.508 1239.32,853.251 1395.79,759.481 1309.66,809.538 1288.15,805.041 1339.46,747.992 1311.23,772.715 1514.2,606.076 1451.61,643.72 1542.54,552.118 1544.09,567.037 1344.4,707.936 1391.56,690.053 1354.17,729.442 1242.15,805.868 1231.97,827.884 1191.97,867.21 1153.78,886.27 1092.87,933.298 1067.6,954.083 973.018,1014.21 978.833,1017.44 990.854,1015.44 991.605,1013.73 999.084,1008.43 973.897,1029.22 878.078,1081.28 949.181,1047.46 1006.24,1010.7 958.372,1033.63 1078.7,973.42 1139.36,922.133 1147.55,907.176 1121.14,912.42 1105.31,926.847 970.402,1019.66 1006.69,1005.9 1052.46,982.381 1094.37,953.684 1147.17,908.873 1078.76,944.67 1122.79,931.585 1210.16,873.787 1165.8,894.698 1222.17,852.24 1239.6,846.253 1285.48,809.822 1232.18,836.038 1301.76,784.44 1244.59,812.871 1402.57,701.315 1357.9,728.274 1402.86,697.107 1431.95,684.977 1378.16,717.639 1274.05,790.265 1290.84,780.076 1319.05,772.036 1294.64,782.296 1264.54,815.777 1293.82,805.616 1353.68,761.486 1316.76,773.746 1260.84,808.634 1300.59,764.433 1258.56,811.468 1133.02,898.572 1222.91,842.98 1283.76,800.622 1390.1,722.977 1423.49,683.421 1354.24,733.996 1264.27,813.088 1215.5,850.731 1174.53,880.252 1192.56,873.368 1423.86,712.143 1407.46,712.704 1376.07,735.191 1236.94,836.746 1263.49,818.972 1227.1,835.924 1285.48,805.083 1249.66,830.218 1395.22,731.234 1362.38,745.743 1294.15,789.643 1319.09,774.316 1405.01,711.024 1397.06,693.607 1567.13,551.991 1562.07,522.48 1606.33,506.72 1364.83,682.013 1333.73,723.184 1325.17,743.728 1279.39,783.339 1192.9,844.849 1186.52,860.738 1210.34,856.403 1143.74,900 1100.39,929.37 1059.73,957.251 1046.54,968.374 1070.61,961.063 1167.31,898.586 1197.84,874.566 1181.32,877.015 1191.43,878.705 1121.72,915.267 1092.97,931.374 1137.42,905.999 1164.29,869.424 1139.24,877.775 1112.58,918.232 1012.52,981.656 966.713,1018.23 954.813,1030.86 995.19,1019.93 1028.97,997.13 1015.74,1001.28 1055.78,974.269 1019.84,993.17 1080.04,952.963 1096.2,935.847 1184.25,883.684 1326.87,793.928 1338.51,770.499 1332.07,772.016 1248.73,816.358 1219.12,840.49 1285.96,793.411 1215.41,824.367 1184.09,859.605 1115.94,901.337 979.216,993.201 990.319,1000.96 1027.25,987.176 998.351,1008.58 1036.8,993.213 1051.46,976.309 1081.2,958.116 1074.05,965.032 1058.41,973.958 1037.15,976.005 987.833,1010.13 1036.5,974.122 1130.79,923.437 1113.35,927.612 1203.28,864.096 1253.87,839.629 1328.48,775.891 1318.34,766.267 1326.17,761.904 1231.69,822.556 1271.08,812.416 1150.25,893.17 1172.33,890.071 1152.15,898.071 1098.22,939.612 1064.81,964.32 938.457,1043.55 900.385,1066.66 813.815,1115.2 839.247,1114.8 856.746,1103.23 956.437,1047.15 984.091,1025.76 982.117,1024.19 976.882,1031.02 1019.12,1001.93 1067.01,970.162 966.705,1028.26 961.391,1040.2 919.496,1066.54 908.769,1070.81 931.576,1058.3 1064.62,974.662 1048.71,980.082 1094.01,950.144 1114.59,932.286 1128.34,929.808 1243.12,842.79 1159.61,882.496 1235.67,848.005 1180.35,869.933 1091.45,928.823 943.959,1023.64 973.56,1023.2 927.413,1057.58 995.926,1024.46 1036.47,991.207 1173.74,910.946 1080.35,950.201 1015.39,983.59 978.901,1013.02 970.403,1020.96 1103.13,955.784 984.667,1017.79 1076.28,968.196 1024.15,998.527 1006.57,997.461 942.199,1046 1025.67,1004.56 1141.43,919.877 1154.35,902.741 1178.95,887.696 1155.98,902.255 1212.47,855.721 1198.16,846.848 1150.19,885.398 1240.01,826.393 1216.26,846.519 1203.14,859.044 1073.37,938.394 1137.31,917.135 1251.36,838.028 1207.08,852.514 1286.69,808.48 1186.76,872.269 1153.06,887.784 1297.03,786.837 1337.41,736.137 1455.09,652.585 1595.88,524.458 1563.56,548.213 1498.24,597.3 1554.01,571.395 1492.18,623.688 1461.57,653.767 1475.02,647.345 1395.73,705.035 1409.13,700.814 1539.77,610.695 1541.09,598.709 1664.22,504.88 1721.85,450.955 1694.88,449.549 1689.76,437.368 1552.95,543.467 1382.19,672.139 1337.12,719.49 1290.25,765.645 1249.87,805.901 1292.34,791.793 1413.23,726.503 1459.28,689.708 1407.75,704.264 1426.77,687.574 1458.42,670.349 1322.58,758.657 1300.57,778.7 1295.32,785.24 1381.88,728.46 1225.3,829.225 1207.98,846.14 1167.56,875.913 1086.21,932.731 1024.6,978.756 978.792,1016.41 984.108,1019.19 1006.81,1004.11 953.079,1030.54 994.302,1015.64 1031.09,999.792 1095.34,957.044 1114.11,936.744 1089.13,939.802 1075.79,956.722 1059.5,968.693 1163.87,895.735 1166.98,897.465 1301.88,800.412 1286.39,802.686 1441.66,691.845 1264.95,809.888 1264.07,806.258 1282.63,805.306 1394.98,714.602 1345.66,743.963 1470.56,667.699 1304.53,769.573 1397.33,713.121 1279.58,791.396 1361.64,751.95 1449.86,691.994 1387.95,725.067 1437.15,674.233 1384.07,721.594 1242.9,825.539 1160.6,884.301 1149.8,902.44 1045.1,969.129 1068.44,965.645 1131.8,923.207 1219.08,846.654 1179.16,852.243 1277.2,799.22 1207.53,837.185 1295.92,756.65 1145.72,871.694 1118.27,906.626 1137.59,907.858 1157.64,904.7 1225.75,858.202 1332.08,788.444 1309.97,779.502 1385.84,730.751 1403.97,718.24 1542.62,618.167 1399.18,700.941 1298.62,770.899 1213.46,841.405 1176.42,872.761 1139.2,908.141 1053.4,963.346 1000.81,998.522 971.725,1023 947.716,1044.31 952.701,1044.51 973.541,1031.04 1076.51,972.338 1094.86,951.144 1028.25,991.347 1176.89,906.269 1246.62,855.589 1256.05,832.192 1391.16,740.36 1564.22,598.025 1561.96,571.007 1707.93,459.551 1741.37,412.895 1746.31,397.013 1783.03,361.429 1517.87,547.446 1407.49,640.499 1419.24,658.25 1495.87,623.319 1442.45,659.35 1406.3,692.32 1429.13,686.214 1393.57,704.655 1333.88,755.088 1275.54,795.581 1333.25,765.161 1320.38,775.158 1181.93,862.501 1274.94,817.651 1275.8,814.254 1203.9,852.077 1206.06,860.792 1261.59,824.546 1230.3,838.637 1188.6,862.974 1016.98,978.691 1047.77,973.521 1068.85,968.476 1103.4,944.896 1112.93,931.864 1260.61,847.886 1243.85,832.44 1216.54,851.76 1172.03,870.464 1206.14,864.176 1260.73,826.781 1328.18,777.65 1401.8,720.022 1460.18,670.156 1459.25,670.938 1537.38,615.421 1553.09,583.644 1564.42,579.811 1626.01,522.554 1620.98,504.743 1636.35,479.401 1523.58,564.988 1450.42,630.132 1382.52,692.33 1422.78,685.651 1460.17,661.913 1473.42,653.206 1329,744.463 1201.49,832.313 1106.14,904.214 1042.84,954.373 1055.16,959.816 998.546,998.833 930.916,1039.26 879.129,1073.91 868.324,1088.17 793.555,1130.39 746.386,1158.64 732.659,1169.14 718.853,1177.63 770.26,1160.43 802.213,1139.39 849.153,1111.83 910.379,1081.47 863.098,1103.11 913.022,1080.09 955.848,1052.13 997.786,1024.01 1059.36,984.6 1145.29,921.687 1144.33,908.288 1088.71,940.92 1104.82,939.608 1055.58,961.458 996.442,1001.51 976.46,1022.05 989.686,1014.08 925.315,1051.97 908.817,1068.65 902.637,1073.93 870.183,1086.96 805.975,1121.31 727.518,1165.55 912.291,1087.81 872.328,1109.72 917.527,1080.65 968.508,1041.74 937.19,1052.72 968.701,1029.48 904.586,1065.82 905.014,1069.82 877.566,1081.13 920.579,1065.4 961.594,1038.9 966.595,1027.45 1080.84,964.469 1032.75,990.758 1001.76,1000.82 1012.78,1010.78 1073.46,973.027 1108.13,938.802 1109.4,943.706 1068.2,971.037 1051.71,982.583 955.162,1044.32 967.963,1036.48 931.556,1056.71 863.17,1103.2 888.982,1091.44 854.735,1110.95 896.82,1091.63 1010.9,1020.01 1054.43,983.448 1059.47,976.461 1005.08,998.96 1133.87,930.556 1143.4,918.842 1182.85,885.814 1176.32,886.07 1159.81,888.587 1154.95,886.994 1122.65,899.48 1099.42,932.959 1176.67,894.289 1165.08,887.457 1198.12,872.829 1210.1,864.368 1441.22,717.79 1450.25,689.054 1357.69,731.068 1347.32,746.93 1398.3,710.667 1312.27,779.177 1270.21,800.996 1472.56,678.658 1404.17,711.397 1505.27,657.147 1635.66,538.51 1598.54,537.071 1587.66,541.572 1574.33,545.988 1605.88,515.564 1534.43,570.019 1651.35,508.785 1463.47,622.123 1380.04,695.033 1431.79,680.048 1289.68,773.512 1238.36,821.172 1226.86,838.852 1262.32,822.691 1311.21,792.298 1300.9,790.79 1307.52,787.455 1131.66,906.77 1115.51,922.795 1087.03,944.718 1039.85,974.965 977.23,1012.54 952.827,1036.34 959.981,1033.56 999.928,1012.72 940.242,1045.93 920.341,1058.79 818.368,1109.03 793.16,1131.27 821.688,1122.99 782.281,1145.69 773.355,1150.19 805.761,1138.52 861.775,1108.76 785.853,1144.01 743.516,1170.25 826.76,1125.14 844.213,1115.56 845.814,1114.3 925.69,1069.58 955.285,1051.97 1031.13,1003.81 999.471,1015.84 984.052,1025.38 1058.6,983.57 1030.86,986.106 1010.14,1002.63 1007.09,1005.9 1010.33,1003.6 1079.88,958.559 1093.88,946.97 1061.33,959.549 1040.29,975.499 977.558,1017.58 1068.45,963.98 1069.1,960.954 1064.2,946.745 1134.36,921.025 1202.73,874.213 1243.7,844.686 1205.76,852.832 1225.11,827.105 1405.77,691.087 1470.19,641.47 1387.85,713.251 1415.8,691.547 1497.82,631.87 1573.71,568.61 1568.77,558.259 1440.34,656.437 1352.65,723.061 1323.96,759.113 1315.66,764.868 "/>
<path clip-path="url(#clip270)" d="M228.998 198.898 L588.673 198.898 L588.673 95.2176 L228.998 95.2176  Z" fill="#ffffff" fill-rule="evenodd" fill-opacity="1"/>
<polyline clip-path="url(#clip270)" style="stroke:#000000; stroke-linecap:round; stroke-linejoin:round; stroke-width:4; stroke-opacity:1; fill:none" points="228.998,198.898 588.673,198.898 588.673,95.2176 228.998,95.2176 228.998,198.898 "/>
<polyline clip-path="url(#clip270)" style="stroke:#009af9; stroke-linecap:round; stroke-linejoin:round; stroke-width:4; stroke-opacity:1; fill:none" points="253.409,147.058 399.875,147.058 "/>
<path clip-path="url(#clip270)" d="M434.911 128.366 Q431.809 133.69 430.305 138.898 Q428.8 144.106 428.8 149.453 Q428.8 154.801 430.305 160.055 Q431.832 165.287 434.911 170.588 L431.207 170.588 Q427.735 165.148 425.999 159.893 Q424.286 154.639 424.286 149.453 Q424.286 144.291 425.999 139.06 Q427.712 133.828 431.207 128.366 L434.911 128.366 Z" fill="#000000" fill-rule="nonzero" fill-opacity="1" /><path clip-path="url(#clip270)" d="M464.726 138.412 L455.351 151.027 L465.212 164.338 L460.189 164.338 L452.642 154.152 L445.096 164.338 L440.073 164.338 L450.142 150.773 L440.929 138.412 L445.953 138.412 L452.828 147.648 L459.703 138.412 L464.726 138.412 Z" fill="#000000" fill-rule="nonzero" fill-opacity="1" /><path clip-path="url(#clip270)" d="M472.318 158.458 L477.202 158.458 L477.202 162.439 L473.406 169.847 L470.42 169.847 L472.318 162.439 L472.318 158.458 Z" fill="#000000" fill-rule="nonzero" fill-opacity="1" /><path clip-path="url(#clip270)" d="M497.087 166.745 Q495.281 171.375 493.568 172.787 Q491.855 174.199 488.985 174.199 L485.582 174.199 L485.582 170.634 L488.082 170.634 Q489.841 170.634 490.813 169.8 Q491.786 168.967 492.966 165.865 L493.73 163.921 L483.244 138.412 L487.758 138.412 L495.86 158.689 L503.962 138.412 L508.475 138.412 L497.087 166.745 Z" fill="#000000" fill-rule="nonzero" fill-opacity="1" /><path clip-path="url(#clip270)" d="M515.443 158.458 L520.327 158.458 L520.327 162.439 L516.531 169.847 L513.545 169.847 L515.443 162.439 L515.443 158.458 Z" fill="#000000" fill-rule="nonzero" fill-opacity="1" /><path clip-path="url(#clip270)" d="M527.573 138.412 L547.804 138.412 L547.804 142.301 L531.785 160.935 L547.804 160.935 L547.804 164.338 L526.994 164.338 L526.994 160.449 L543.012 141.815 L527.573 141.815 L527.573 138.412 Z" fill="#000000" fill-rule="nonzero" fill-opacity="1" /><path clip-path="url(#clip270)" d="M553.637 128.366 L557.341 128.366 Q560.813 133.828 562.526 139.06 Q564.262 144.291 564.262 149.453 Q564.262 154.639 562.526 159.893 Q560.813 165.148 557.341 170.588 L553.637 170.588 Q556.716 165.287 558.22 160.055 Q559.748 154.801 559.748 149.453 Q559.748 144.106 558.22 138.898 Q556.716 133.69 553.637 128.366 Z" fill="#000000" fill-rule="nonzero" fill-opacity="1" /></svg>
