<?xml version="1.0" encoding="utf-8"?>
<svg xmlns="http://www.w3.org/2000/svg" xmlns:xlink="http://www.w3.org/1999/xlink" width="600" height="400" viewBox="0 0 2400 1600">
<defs>
  <clipPath id="clip070">
    <rect x="0" y="0" width="2400" height="1600"/>
  </clipPath>
</defs>
<path clip-path="url(#clip070)" d="M0 1600 L2400 1600 L2400 0 L0 0  Z" fill="#ffffff" fill-rule="evenodd" fill-opacity="1"/>
<defs>
  <clipPath id="clip071">
    <rect x="480" y="0" width="1681" height="1600"/>
  </clipPath>
</defs>
<defs>
  <clipPath id="clip072">
    <rect x="155" y="47" width="2198" height="1440"/>
  </clipPath>
</defs>
<path clip-path="url(#clip072)" d="M-1183.19 2627.59 L-1183.19 2341.94 L-1044.86 2199.11 L-805.255 2281.57 L-805.255 2567.23 L-943.589 2710.06 L-1183.19 2627.59  Z" fill="#ffffff" fill-rule="evenodd" fill-opacity="1"/>
<polyline clip-path="url(#clip072)" style="stroke:#000000; stroke-linecap:round; stroke-linejoin:round; stroke-width:2; stroke-opacity:0.1; fill:none" points="789.262,1232.28 1204.72,872.48 1204.72,152.878 "/>
<polyline clip-path="url(#clip072)" style="stroke:#000000; stroke-linecap:round; stroke-linejoin:round; stroke-width:2; stroke-opacity:0.1; fill:none" points="909.062,1266.86 1324.52,907.063 1324.52,187.461 "/>
<polyline clip-path="url(#clip072)" style="stroke:#000000; stroke-linecap:round; stroke-linejoin:round; stroke-width:2; stroke-opacity:0.1; fill:none" points="1028.86,1301.45 1444.32,941.646 1444.32,222.045 "/>
<polyline clip-path="url(#clip072)" style="stroke:#000000; stroke-linecap:round; stroke-linejoin:round; stroke-width:2; stroke-opacity:0.1; fill:none" points="1148.66,1336.03 1564.12,976.23 1564.12,256.628 "/>
<polyline clip-path="url(#clip072)" style="stroke:#000000; stroke-linecap:round; stroke-linejoin:round; stroke-width:2; stroke-opacity:0.1; fill:none" points="1268.46,1370.61 1683.92,1010.81 1683.92,291.211 "/>
<polyline clip-path="url(#clip072)" style="stroke:#000000; stroke-linecap:round; stroke-linejoin:round; stroke-width:2; stroke-opacity:0.1; fill:none" points="1388.26,1405.2 1803.73,1045.4 1803.73,325.795 "/>
<polyline clip-path="url(#clip072)" style="stroke:#000000; stroke-linecap:round; stroke-linejoin:round; stroke-width:2; stroke-opacity:0.1; fill:none" points="1456.7,1366.79 737.101,1159.06 737.101,439.455 "/>
<polyline clip-path="url(#clip072)" style="stroke:#000000; stroke-linecap:round; stroke-linejoin:round; stroke-width:2; stroke-opacity:0.1; fill:none" points="1539.17,1295.37 819.564,1087.64 819.564,368.041 "/>
<polyline clip-path="url(#clip072)" style="stroke:#000000; stroke-linecap:round; stroke-linejoin:round; stroke-width:2; stroke-opacity:0.1; fill:none" points="1621.63,1223.96 902.026,1016.23 902.026,296.627 "/>
<polyline clip-path="url(#clip072)" style="stroke:#000000; stroke-linecap:round; stroke-linejoin:round; stroke-width:2; stroke-opacity:0.1; fill:none" points="1704.09,1152.55 984.488,944.814 984.488,225.212 "/>
<polyline clip-path="url(#clip072)" style="stroke:#000000; stroke-linecap:round; stroke-linejoin:round; stroke-width:2; stroke-opacity:0.1; fill:none" points="1786.55,1081.13 1066.95,873.4 1066.95,153.798 "/>
<polyline clip-path="url(#clip072)" style="stroke:#000000; stroke-linecap:round; stroke-linejoin:round; stroke-width:2; stroke-opacity:0.1; fill:none" points="686.728,1174.28 1102.19,814.479 1821.79,1022.21 "/>
<polyline clip-path="url(#clip072)" style="stroke:#000000; stroke-linecap:round; stroke-linejoin:round; stroke-width:2; stroke-opacity:0.1; fill:none" points="686.728,1023.71 1102.19,663.913 1821.79,871.644 "/>
<polyline clip-path="url(#clip072)" style="stroke:#000000; stroke-linecap:round; stroke-linejoin:round; stroke-width:2; stroke-opacity:0.1; fill:none" points="686.728,873.147 1102.19,513.346 1821.79,721.077 "/>
<polyline clip-path="url(#clip072)" style="stroke:#000000; stroke-linecap:round; stroke-linejoin:round; stroke-width:2; stroke-opacity:0.1; fill:none" points="686.728,722.581 1102.19,362.78 1821.79,570.511 "/>
<polyline clip-path="url(#clip072)" style="stroke:#000000; stroke-linecap:round; stroke-linejoin:round; stroke-width:2; stroke-opacity:0.1; fill:none" points="686.728,572.015 1102.19,212.214 1821.79,419.945 "/>
<polyline clip-path="url(#clip070)" style="stroke:#000000; stroke-linecap:round; stroke-linejoin:round; stroke-width:4; stroke-opacity:1; fill:none" points="686.728,1202.68 1406.33,1410.41 "/>
<polyline clip-path="url(#clip070)" style="stroke:#000000; stroke-linecap:round; stroke-linejoin:round; stroke-width:4; stroke-opacity:1; fill:none" points="789.262,1232.28 794.248,1227.96 "/>
<polyline clip-path="url(#clip070)" style="stroke:#000000; stroke-linecap:round; stroke-linejoin:round; stroke-width:4; stroke-opacity:1; fill:none" points="909.062,1266.86 914.048,1262.55 "/>
<polyline clip-path="url(#clip070)" style="stroke:#000000; stroke-linecap:round; stroke-linejoin:round; stroke-width:4; stroke-opacity:1; fill:none" points="1028.86,1301.45 1033.85,1297.13 "/>
<polyline clip-path="url(#clip070)" style="stroke:#000000; stroke-linecap:round; stroke-linejoin:round; stroke-width:4; stroke-opacity:1; fill:none" points="1148.66,1336.03 1153.65,1331.71 "/>
<polyline clip-path="url(#clip070)" style="stroke:#000000; stroke-linecap:round; stroke-linejoin:round; stroke-width:4; stroke-opacity:1; fill:none" points="1268.46,1370.61 1273.45,1366.3 "/>
<polyline clip-path="url(#clip070)" style="stroke:#000000; stroke-linecap:round; stroke-linejoin:round; stroke-width:4; stroke-opacity:1; fill:none" points="1388.26,1405.2 1393.25,1400.88 "/>
<path clip-path="url(#clip070)" d="M770.306 1246.31 L758.501 1264.76 L770.306 1264.76 L770.306 1246.31 M769.08 1242.23 L774.959 1242.23 L774.959 1264.76 L779.89 1264.76 L779.89 1268.64 L774.959 1268.64 L774.959 1276.79 L770.306 1276.79 L770.306 1268.64 L754.705 1268.64 L754.705 1264.13 L769.08 1242.23 Z" fill="#000000" fill-rule="nonzero" fill-opacity="1" /><path clip-path="url(#clip070)" d="M878.787 1276.82 L897.144 1276.82 L897.144 1280.75 L883.07 1280.75 L883.07 1289.22 Q884.088 1288.88 885.107 1288.71 Q886.125 1288.53 887.144 1288.53 Q892.931 1288.53 896.31 1291.7 Q899.69 1294.87 899.69 1300.29 Q899.69 1305.87 896.218 1308.97 Q892.745 1312.05 886.426 1312.05 Q884.25 1312.05 881.982 1311.68 Q879.736 1311.31 877.329 1310.57 L877.329 1305.87 Q879.412 1307 881.634 1307.56 Q883.857 1308.11 886.333 1308.11 Q890.338 1308.11 892.676 1306.01 Q895.014 1303.9 895.014 1300.29 Q895.014 1296.68 892.676 1294.57 Q890.338 1292.46 886.333 1292.46 Q884.458 1292.46 882.583 1292.88 Q880.732 1293.3 878.787 1294.18 L878.787 1276.82 Z" fill="#000000" fill-rule="nonzero" fill-opacity="1" /><path clip-path="url(#clip070)" d="M1007.96 1326.82 Q1004.81 1326.82 1002.96 1328.97 Q1001.13 1331.12 1001.13 1334.87 Q1001.13 1338.6 1002.96 1340.77 Q1004.81 1342.93 1007.96 1342.93 Q1011.11 1342.93 1012.94 1340.77 Q1014.79 1338.6 1014.79 1334.87 Q1014.79 1331.12 1012.94 1328.97 Q1011.11 1326.82 1007.96 1326.82 M1017.24 1312.16 L1017.24 1316.42 Q1015.49 1315.59 1013.68 1315.15 Q1011.9 1314.71 1010.14 1314.71 Q1005.51 1314.71 1003.05 1317.83 Q1000.62 1320.96 1000.28 1327.28 Q1001.64 1325.27 1003.7 1324.2 Q1005.76 1323.11 1008.24 1323.11 Q1013.45 1323.11 1016.46 1326.28 Q1019.49 1329.43 1019.49 1334.87 Q1019.49 1340.2 1016.34 1343.41 Q1013.19 1346.63 1007.96 1346.63 Q1001.97 1346.63 998.796 1342.05 Q995.624 1337.44 995.624 1328.71 Q995.624 1320.52 999.513 1315.66 Q1003.4 1310.77 1009.95 1310.77 Q1011.71 1310.77 1013.49 1311.12 Q1015.3 1311.47 1017.24 1312.16 Z" fill="#000000" fill-rule="nonzero" fill-opacity="1" /><path clip-path="url(#clip070)" d="M1117.07 1345.98 L1139.29 1345.98 L1139.29 1347.97 L1126.74 1380.54 L1121.86 1380.54 L1133.67 1349.92 L1117.07 1349.92 L1117.07 1345.98 Z" fill="#000000" fill-rule="nonzero" fill-opacity="1" /><path clip-path="url(#clip070)" d="M1247.24 1398.71 Q1243.91 1398.71 1241.98 1400.5 Q1240.09 1402.28 1240.09 1405.4 Q1240.09 1408.53 1241.98 1410.31 Q1243.91 1412.09 1247.24 1412.09 Q1250.57 1412.09 1252.49 1410.31 Q1254.41 1408.51 1254.41 1405.4 Q1254.41 1402.28 1252.49 1400.5 Q1250.59 1398.71 1247.24 1398.71 M1242.56 1396.72 Q1239.55 1395.98 1237.86 1393.92 Q1236.2 1391.86 1236.2 1388.9 Q1236.2 1384.76 1239.14 1382.35 Q1242.1 1379.94 1247.24 1379.94 Q1252.4 1379.94 1255.34 1382.35 Q1258.28 1384.76 1258.28 1388.9 Q1258.28 1391.86 1256.59 1393.92 Q1254.92 1395.98 1251.94 1396.72 Q1255.32 1397.51 1257.19 1399.8 Q1259.09 1402.09 1259.09 1405.4 Q1259.09 1410.43 1256.01 1413.11 Q1252.96 1415.8 1247.24 1415.8 Q1241.52 1415.8 1238.44 1413.11 Q1235.39 1410.43 1235.39 1405.4 Q1235.39 1402.09 1237.28 1399.8 Q1239.18 1397.51 1242.56 1396.72 M1240.85 1389.34 Q1240.85 1392.02 1242.52 1393.53 Q1244.21 1395.03 1247.24 1395.03 Q1250.25 1395.03 1251.94 1393.53 Q1253.65 1392.02 1253.65 1389.34 Q1253.65 1386.65 1251.94 1385.15 Q1250.25 1383.65 1247.24 1383.65 Q1244.21 1383.65 1242.52 1385.15 Q1240.85 1386.65 1240.85 1389.34 Z" fill="#000000" fill-rule="nonzero" fill-opacity="1" /><path clip-path="url(#clip070)" d="M1357.27 1448.99 L1357.27 1444.73 Q1359.03 1445.57 1360.83 1446.01 Q1362.64 1446.45 1364.38 1446.45 Q1369.01 1446.45 1371.44 1443.34 Q1373.89 1440.22 1374.24 1433.88 Q1372.89 1435.87 1370.83 1436.93 Q1368.77 1438 1366.27 1438 Q1361.09 1438 1358.06 1434.87 Q1355.05 1431.72 1355.05 1426.28 Q1355.05 1420.96 1358.2 1417.74 Q1361.34 1414.52 1366.58 1414.52 Q1372.57 1414.52 1375.72 1419.13 Q1378.89 1423.71 1378.89 1432.46 Q1378.89 1440.64 1375 1445.52 Q1371.14 1450.38 1364.58 1450.38 Q1362.83 1450.38 1361.02 1450.03 Q1359.21 1449.69 1357.27 1448.99 M1366.58 1434.34 Q1369.72 1434.34 1371.55 1432.19 Q1373.4 1430.03 1373.4 1426.28 Q1373.4 1422.56 1371.55 1420.4 Q1369.72 1418.23 1366.58 1418.23 Q1363.43 1418.23 1361.58 1420.4 Q1359.75 1422.56 1359.75 1426.28 Q1359.75 1430.03 1361.58 1432.19 Q1363.43 1434.34 1366.58 1434.34 Z" fill="#000000" fill-rule="nonzero" fill-opacity="1" /><polyline clip-path="url(#clip070)" style="stroke:#000000; stroke-linecap:round; stroke-linejoin:round; stroke-width:4; stroke-opacity:1; fill:none" points="1406.33,1410.41 1821.79,1050.61 "/>
<polyline clip-path="url(#clip070)" style="stroke:#000000; stroke-linecap:round; stroke-linejoin:round; stroke-width:4; stroke-opacity:1; fill:none" points="1456.7,1366.79 1448.07,1364.3 "/>
<polyline clip-path="url(#clip070)" style="stroke:#000000; stroke-linecap:round; stroke-linejoin:round; stroke-width:4; stroke-opacity:1; fill:none" points="1539.17,1295.37 1530.53,1292.88 "/>
<polyline clip-path="url(#clip070)" style="stroke:#000000; stroke-linecap:round; stroke-linejoin:round; stroke-width:4; stroke-opacity:1; fill:none" points="1621.63,1223.96 1612.99,1221.47 "/>
<polyline clip-path="url(#clip070)" style="stroke:#000000; stroke-linecap:round; stroke-linejoin:round; stroke-width:4; stroke-opacity:1; fill:none" points="1704.09,1152.55 1695.45,1150.05 "/>
<polyline clip-path="url(#clip070)" style="stroke:#000000; stroke-linecap:round; stroke-linejoin:round; stroke-width:4; stroke-opacity:1; fill:none" points="1786.55,1081.13 1777.92,1078.64 "/>
<path clip-path="url(#clip070)" d="M1492.99 1373.62 L1481.19 1392.07 L1492.99 1392.07 L1492.99 1373.62 M1491.77 1369.55 L1497.65 1369.55 L1497.65 1392.07 L1502.58 1392.07 L1502.58 1395.96 L1497.65 1395.96 L1497.65 1404.11 L1492.99 1404.11 L1492.99 1395.96 L1477.39 1395.96 L1477.39 1391.44 L1491.77 1369.55 Z" fill="#000000" fill-rule="nonzero" fill-opacity="1" /><path clip-path="url(#clip070)" d="M1561.31 1298.13 L1579.67 1298.13 L1579.67 1302.07 L1565.59 1302.07 L1565.59 1310.54 Q1566.61 1310.19 1567.63 1310.03 Q1568.65 1309.84 1569.67 1309.84 Q1575.46 1309.84 1578.83 1313.01 Q1582.21 1316.19 1582.21 1321.6 Q1582.21 1327.18 1578.74 1330.28 Q1575.27 1333.36 1568.95 1333.36 Q1566.77 1333.36 1564.51 1332.99 Q1562.26 1332.62 1559.85 1331.88 L1559.85 1327.18 Q1561.94 1328.32 1564.16 1328.87 Q1566.38 1329.43 1568.86 1329.43 Q1572.86 1329.43 1575.2 1327.32 Q1577.54 1325.21 1577.54 1321.6 Q1577.54 1317.99 1575.2 1315.89 Q1572.86 1313.78 1568.86 1313.78 Q1566.98 1313.78 1565.11 1314.2 Q1563.26 1314.61 1561.31 1315.49 L1561.31 1298.13 Z" fill="#000000" fill-rule="nonzero" fill-opacity="1" /><path clip-path="url(#clip070)" d="M1654.65 1242.13 Q1651.51 1242.13 1649.65 1244.29 Q1647.82 1246.44 1647.82 1250.19 Q1647.82 1253.92 1649.65 1256.09 Q1651.51 1258.24 1654.65 1258.24 Q1657.8 1258.24 1659.63 1256.09 Q1661.48 1253.92 1661.48 1250.19 Q1661.48 1246.44 1659.63 1244.29 Q1657.8 1242.13 1654.65 1242.13 M1663.94 1227.48 L1663.94 1231.74 Q1662.18 1230.91 1660.37 1230.47 Q1658.59 1230.03 1656.83 1230.03 Q1652.2 1230.03 1649.75 1233.15 Q1647.32 1236.28 1646.97 1242.6 Q1648.33 1240.58 1650.39 1239.52 Q1652.45 1238.43 1654.93 1238.43 Q1660.14 1238.43 1663.15 1241.6 Q1666.18 1244.75 1666.18 1250.19 Q1666.18 1255.51 1663.03 1258.73 Q1659.88 1261.95 1654.65 1261.95 Q1648.66 1261.95 1645.49 1257.36 Q1642.32 1252.76 1642.32 1244.03 Q1642.32 1235.84 1646.2 1230.98 Q1650.09 1226.09 1656.64 1226.09 Q1658.4 1226.09 1660.19 1226.44 Q1661.99 1226.79 1663.94 1227.48 Z" fill="#000000" fill-rule="nonzero" fill-opacity="1" /><path clip-path="url(#clip070)" d="M1724.78 1155.3 L1747 1155.3 L1747 1157.29 L1734.45 1189.86 L1729.57 1189.86 L1741.37 1159.24 L1724.78 1159.24 L1724.78 1155.3 Z" fill="#000000" fill-rule="nonzero" fill-opacity="1" /><path clip-path="url(#clip070)" d="M1819.09 1102.04 Q1815.76 1102.04 1813.84 1103.82 Q1811.94 1105.6 1811.94 1108.73 Q1811.94 1111.85 1813.84 1113.63 Q1815.76 1115.41 1819.09 1115.41 Q1822.43 1115.41 1824.35 1113.63 Q1826.27 1111.83 1826.27 1108.73 Q1826.27 1105.6 1824.35 1103.82 Q1822.45 1102.04 1819.09 1102.04 M1814.42 1100.04 Q1811.41 1099.3 1809.72 1097.24 Q1808.05 1095.18 1808.05 1092.22 Q1808.05 1088.08 1810.99 1085.67 Q1813.95 1083.26 1819.09 1083.26 Q1824.25 1083.26 1827.19 1085.67 Q1830.13 1088.08 1830.13 1092.22 Q1830.13 1095.18 1828.44 1097.24 Q1826.78 1099.3 1823.79 1100.04 Q1827.17 1100.83 1829.05 1103.12 Q1830.94 1105.41 1830.94 1108.73 Q1830.94 1113.75 1827.87 1116.43 Q1824.81 1119.12 1819.09 1119.12 Q1813.37 1119.12 1810.3 1116.43 Q1807.24 1113.75 1807.24 1108.73 Q1807.24 1105.41 1809.14 1103.12 Q1811.04 1100.83 1814.42 1100.04 M1812.7 1092.66 Q1812.7 1095.35 1814.37 1096.85 Q1816.06 1098.35 1819.09 1098.35 Q1822.1 1098.35 1823.79 1096.85 Q1825.5 1095.35 1825.5 1092.66 Q1825.5 1089.98 1823.79 1088.47 Q1822.1 1086.97 1819.09 1086.97 Q1816.06 1086.97 1814.37 1088.47 Q1812.7 1089.98 1812.7 1092.66 Z" fill="#000000" fill-rule="nonzero" fill-opacity="1" /><polyline clip-path="url(#clip070)" style="stroke:#000000; stroke-linecap:round; stroke-linejoin:round; stroke-width:4; stroke-opacity:1; fill:none" points="686.728,1202.68 686.728,483.08 "/>
<polyline clip-path="url(#clip070)" style="stroke:#000000; stroke-linecap:round; stroke-linejoin:round; stroke-width:4; stroke-opacity:1; fill:none" points="686.728,1174.28 691.714,1169.96 "/>
<polyline clip-path="url(#clip070)" style="stroke:#000000; stroke-linecap:round; stroke-linejoin:round; stroke-width:4; stroke-opacity:1; fill:none" points="686.728,1023.71 691.714,1019.4 "/>
<polyline clip-path="url(#clip070)" style="stroke:#000000; stroke-linecap:round; stroke-linejoin:round; stroke-width:4; stroke-opacity:1; fill:none" points="686.728,873.147 691.714,868.83 "/>
<polyline clip-path="url(#clip070)" style="stroke:#000000; stroke-linecap:round; stroke-linejoin:round; stroke-width:4; stroke-opacity:1; fill:none" points="686.728,722.581 691.714,718.263 "/>
<polyline clip-path="url(#clip070)" style="stroke:#000000; stroke-linecap:round; stroke-linejoin:round; stroke-width:4; stroke-opacity:1; fill:none" points="686.728,572.015 691.714,567.697 "/>
<path clip-path="url(#clip070)" d="M601.748 1160.08 Q598.137 1160.08 596.308 1163.64 Q594.503 1167.18 594.503 1174.31 Q594.503 1181.42 596.308 1184.99 Q598.137 1188.53 601.748 1188.53 Q605.382 1188.53 607.188 1184.99 Q609.017 1181.42 609.017 1174.31 Q609.017 1167.18 607.188 1163.64 Q605.382 1160.08 601.748 1160.08 M601.748 1156.37 Q607.558 1156.37 610.614 1160.98 Q613.692 1165.56 613.692 1174.31 Q613.692 1183.04 610.614 1187.65 Q607.558 1192.23 601.748 1192.23 Q595.938 1192.23 592.859 1187.65 Q589.804 1183.04 589.804 1174.31 Q589.804 1165.56 592.859 1160.98 Q595.938 1156.37 601.748 1156.37 Z" fill="#000000" fill-rule="nonzero" fill-opacity="1" /><path clip-path="url(#clip070)" d="M621.91 1185.68 L626.794 1185.68 L626.794 1191.56 L621.91 1191.56 L621.91 1185.68 Z" fill="#000000" fill-rule="nonzero" fill-opacity="1" /><path clip-path="url(#clip070)" d="M637.026 1157 L655.382 1157 L655.382 1160.93 L641.308 1160.93 L641.308 1169.41 Q642.327 1169.06 643.345 1168.9 Q644.364 1168.71 645.382 1168.71 Q651.169 1168.71 654.549 1171.88 Q657.928 1175.06 657.928 1180.47 Q657.928 1186.05 654.456 1189.15 Q650.984 1192.23 644.664 1192.23 Q642.489 1192.23 640.22 1191.86 Q637.975 1191.49 635.567 1190.75 L635.567 1186.05 Q637.651 1187.18 639.873 1187.74 Q642.095 1188.3 644.572 1188.3 Q648.576 1188.3 650.914 1186.19 Q653.252 1184.08 653.252 1180.47 Q653.252 1176.86 650.914 1174.75 Q648.576 1172.65 644.572 1172.65 Q642.697 1172.65 640.822 1173.06 Q638.97 1173.48 637.026 1174.36 L637.026 1157 Z" fill="#000000" fill-rule="nonzero" fill-opacity="1" /><path clip-path="url(#clip070)" d="M591.563 1037.06 L599.202 1037.06 L599.202 1010.69 L590.892 1012.36 L590.892 1008.1 L599.155 1006.43 L603.831 1006.43 L603.831 1037.06 L611.47 1037.06 L611.47 1040.99 L591.563 1040.99 L591.563 1037.06 Z" fill="#000000" fill-rule="nonzero" fill-opacity="1" /><path clip-path="url(#clip070)" d="M620.915 1035.11 L625.799 1035.11 L625.799 1040.99 L620.915 1040.99 L620.915 1035.11 Z" fill="#000000" fill-rule="nonzero" fill-opacity="1" /><path clip-path="url(#clip070)" d="M645.984 1009.51 Q642.373 1009.51 640.544 1013.08 Q638.739 1016.62 638.739 1023.75 Q638.739 1030.85 640.544 1034.42 Q642.373 1037.96 645.984 1037.96 Q649.618 1037.96 651.424 1034.42 Q653.252 1030.85 653.252 1023.75 Q653.252 1016.62 651.424 1013.08 Q649.618 1009.51 645.984 1009.51 M645.984 1005.81 Q651.794 1005.81 654.85 1010.41 Q657.928 1015 657.928 1023.75 Q657.928 1032.48 654.85 1037.08 Q651.794 1041.66 645.984 1041.66 Q640.174 1041.66 637.095 1037.08 Q634.04 1032.48 634.04 1023.75 Q634.04 1015 637.095 1010.41 Q640.174 1005.81 645.984 1005.81 Z" fill="#000000" fill-rule="nonzero" fill-opacity="1" /><path clip-path="url(#clip070)" d="M592.558 886.492 L600.197 886.492 L600.197 860.126 L591.887 861.793 L591.887 857.534 L600.151 855.867 L604.827 855.867 L604.827 886.492 L612.466 886.492 L612.466 890.427 L592.558 890.427 L592.558 886.492 Z" fill="#000000" fill-rule="nonzero" fill-opacity="1" /><path clip-path="url(#clip070)" d="M621.91 884.548 L626.794 884.548 L626.794 890.427 L621.91 890.427 L621.91 884.548 Z" fill="#000000" fill-rule="nonzero" fill-opacity="1" /><path clip-path="url(#clip070)" d="M637.026 855.867 L655.382 855.867 L655.382 859.802 L641.308 859.802 L641.308 868.275 Q642.327 867.927 643.345 867.765 Q644.364 867.58 645.382 867.58 Q651.169 867.58 654.549 870.751 Q657.928 873.923 657.928 879.339 Q657.928 884.918 654.456 888.02 Q650.984 891.098 644.664 891.098 Q642.489 891.098 640.22 890.728 Q637.975 890.358 635.567 889.617 L635.567 884.918 Q637.651 886.052 639.873 886.608 Q642.095 887.163 644.572 887.163 Q648.576 887.163 650.914 885.057 Q653.252 882.95 653.252 879.339 Q653.252 875.728 650.914 873.622 Q648.576 871.515 644.572 871.515 Q642.697 871.515 640.822 871.932 Q638.97 872.349 637.026 873.228 L637.026 855.867 Z" fill="#000000" fill-rule="nonzero" fill-opacity="1" /><path clip-path="url(#clip070)" d="M594.78 735.926 L611.1 735.926 L611.1 739.861 L589.156 739.861 L589.156 735.926 Q591.818 733.171 596.401 728.541 Q601.007 723.889 602.188 722.546 Q604.433 720.023 605.313 718.287 Q606.216 716.528 606.216 714.838 Q606.216 712.083 604.271 710.347 Q602.35 708.611 599.248 708.611 Q597.049 708.611 594.595 709.375 Q592.165 710.139 589.387 711.69 L589.387 706.968 Q592.211 705.833 594.665 705.255 Q597.118 704.676 599.155 704.676 Q604.526 704.676 607.72 707.361 Q610.915 710.046 610.915 714.537 Q610.915 716.667 610.104 718.588 Q609.317 720.486 607.211 723.079 Q606.632 723.75 603.53 726.967 Q600.429 730.162 594.78 735.926 Z" fill="#000000" fill-rule="nonzero" fill-opacity="1" /><path clip-path="url(#clip070)" d="M620.915 733.981 L625.799 733.981 L625.799 739.861 L620.915 739.861 L620.915 733.981 Z" fill="#000000" fill-rule="nonzero" fill-opacity="1" /><path clip-path="url(#clip070)" d="M645.984 708.38 Q642.373 708.38 640.544 711.944 Q638.739 715.486 638.739 722.616 Q638.739 729.722 640.544 733.287 Q642.373 736.828 645.984 736.828 Q649.618 736.828 651.424 733.287 Q653.252 729.722 653.252 722.616 Q653.252 715.486 651.424 711.944 Q649.618 708.38 645.984 708.38 M645.984 704.676 Q651.794 704.676 654.85 709.282 Q657.928 713.866 657.928 722.616 Q657.928 731.342 654.85 735.949 Q651.794 740.532 645.984 740.532 Q640.174 740.532 637.095 735.949 Q634.04 731.342 634.04 722.616 Q634.04 713.866 637.095 709.282 Q640.174 704.676 645.984 704.676 Z" fill="#000000" fill-rule="nonzero" fill-opacity="1" /><path clip-path="url(#clip070)" d="M595.776 585.359 L612.095 585.359 L612.095 589.295 L590.151 589.295 L590.151 585.359 Q592.813 582.605 597.396 577.975 Q602.003 573.322 603.183 571.98 Q605.429 569.457 606.308 567.721 Q607.211 565.961 607.211 564.272 Q607.211 561.517 605.267 559.781 Q603.345 558.045 600.243 558.045 Q598.044 558.045 595.591 558.809 Q593.16 559.572 590.382 561.123 L590.382 556.401 Q593.206 555.267 595.66 554.688 Q598.114 554.11 600.151 554.11 Q605.521 554.11 608.716 556.795 Q611.91 559.48 611.91 563.971 Q611.91 566.1 611.1 568.022 Q610.313 569.92 608.206 572.512 Q607.628 573.184 604.526 576.401 Q601.424 579.596 595.776 585.359 Z" fill="#000000" fill-rule="nonzero" fill-opacity="1" /><path clip-path="url(#clip070)" d="M621.91 583.415 L626.794 583.415 L626.794 589.295 L621.91 589.295 L621.91 583.415 Z" fill="#000000" fill-rule="nonzero" fill-opacity="1" /><path clip-path="url(#clip070)" d="M637.026 554.735 L655.382 554.735 L655.382 558.67 L641.308 558.67 L641.308 567.142 Q642.327 566.795 643.345 566.633 Q644.364 566.447 645.382 566.447 Q651.169 566.447 654.549 569.619 Q657.928 572.79 657.928 578.207 Q657.928 583.785 654.456 586.887 Q650.984 589.966 644.664 589.966 Q642.489 589.966 640.22 589.595 Q637.975 589.225 635.567 588.484 L635.567 583.785 Q637.651 584.92 639.873 585.475 Q642.095 586.031 644.572 586.031 Q648.576 586.031 650.914 583.924 Q653.252 581.818 653.252 578.207 Q653.252 574.596 650.914 572.489 Q648.576 570.383 644.572 570.383 Q642.697 570.383 640.822 570.799 Q638.97 571.216 637.026 572.096 L637.026 554.735 Z" fill="#000000" fill-rule="nonzero" fill-opacity="1" /><polyline clip-path="url(#clip072)" style="stroke:#009af9; stroke-linecap:round; stroke-linejoin:round; stroke-width:4; stroke-opacity:1; fill:none" points="1041.9,972.857 1040.64,973.653 1033.36,977.296 1035.3,976.554 1029.72,979.427 1027.66,980.654 1032.7,978.502 1039.54,975.517 1044.89,973.188 1046.4,972.736 1042.79,974.782 1024.8,983.717 1023.9,984.681 1032.71,980.944 1046.43,974.779 1042.58,976.816 1007.13,994.361 1011.32,993.435 984.796,1006.96 984.194,1008.9 937.588,1033.05 932.18,1038.26 932.114,1041.11 958.28,1031.38 1001.97,1011.36 1011.27,1005.92 1008.12,1005.68 984.152,1017.43 960.532,1030.86 968.721,1028.8 942.133,1042.19 1028.42,999.837 958.271,1032.37 935.091,1046.82 933.208,1051.71 924.603,1053.88 926.735,1054.4 962.155,1040.37 937.478,1049.18 1024.48,1009.08 1058.98,981.513 1050.2,980.399 967.15,1024.57 939.79,1033.89 926.131,1053.28 905.609,1067.13 898.08,1073.24 898.624,1073.91 924.869,1058.25 901.55,1065.37 978.96,1029.52 942.265,1046.96 1017.91,1001.5 1055.33,976.552 1112.64,938.681 1128.67,925.355 1081.17,944.196 970.104,1015.09 940.402,1054.12 955.285,1043.62 979.235,1031.17 911.561,1065.75 921.99,1063.85 947.134,1045.68 1046.94,977.798 987.167,1012.47 992.555,1014.07 951.619,1031.17 974.367,1024.07 998.902,1005.17 1050.85,970.316 1207.94,880.358 1358.16,766.516 1429.22,698.101 1353.59,737.919 1339.21,733.388 1505.5,613.385 1523.74,587.494 1472.99,616.585 1379.81,673.821 1501.7,601.835 1523.44,576.029 1573.76,513.131 1434.58,626.364 1464.02,625.01 1367.91,694.188 1339.51,729.357 1290.44,774.015 1185.3,851.548 1183.57,867.753 1182.35,869.34 1212.94,851.853 1322.61,782.984 1404.83,713.109 1446.02,668.783 1360.14,715.883 1322.34,736.993 1304.1,768.177 1369.11,722.685 1390.91,704.06 1392,699.412 1377.65,701.393 1403.81,693.241 1291.58,778.137 1389.2,708.005 1262.52,789.048 1349.42,739.851 1399.69,706.417 1303.13,764.239 1318.61,734.946 1362.11,712.417 1388.72,704.409 1422.48,662.943 1344.68,717.204 1279.84,762.718 1177.27,832.896 1196.93,842.692 1199.81,849.947 1258.55,815.114 1157.65,875.5 1098.05,914.739 1119.83,907.934 1254.13,832.965 1291.66,780.106 1323.91,755.382 1138.78,892.898 1102.15,919.036 1017.08,977.762 1059.57,965.54 1080.86,949.57 1083.29,948.548 1149.12,901.721 1224.84,862.084 1260.99,827.484 1263.48,816.298 1425.21,703.359 1491.24,641.562 1564.36,568.528 1654.71,494.321 1616.46,487.179 1498.98,570.663 1414.86,641.012 1378.44,676.632 1369.07,701.134 1433.66,664.411 1398.88,685.388 1383.12,692.038 1518.85,609.513 1391.59,700.229 1417.29,683.654 1362.21,712.122 1384.89,699.427 1310.9,760.225 1288.66,779.506 1222.04,826.771 1240.36,821.754 1149.91,881.655 1151.75,892.7 1085.83,942.087 1041.69,970.974 1102.21,947.567 1021.05,1002.8 983.346,1035.55 1078.02,965.459 1122.48,922.697 1215.87,858.8 1216.34,859.321 1146.7,905.025 1004.41,1001.28 933.943,1044.25 1057.57,978.944 1066.12,947.541 1071.2,946.574 1061.77,956.437 1048.71,973.898 1226.27,852.547 1284.21,793.702 1324.09,762.351 1425.12,666.458 1383.01,692.957 1320.45,740.611 1414.26,685.412 1490.33,624.092 1498.64,609.827 1363.5,701.909 1221.04,805.747 1183.63,843.22 1134.03,884.878 1148.63,886.56 1166.63,888.023 1076.09,945.325 1069.69,946.702 1109.88,926.812 1168.69,873.702 1139.07,890.929 1136.48,899.384 1034.66,963.44 997.844,997.066 1090.94,944.312 967.4,1018.05 914.076,1049.79 969.008,1020.26 1000.65,999.491 1033.09,993.29 1040.03,991.15 1051.34,971.608 1014.57,991.107 1101.46,930.054 1125.89,911.496 1020.95,991.964 1056.02,973.589 1134.86,921.601 1191.15,877.42 1181.31,867.174 1121.87,915.859 1109.22,926.508 1042.53,974.871 965.231,1010.8 987.687,1004.26 1004.81,1001.12 1063.66,965.38 1244.69,845.988 1338.09,771.808 1342.3,742.91 1283.54,779.549 1182.53,854.714 1200.24,854.128 1199.04,859.518 1228.07,846.221 1386.09,728.384 1319.23,763.801 1355.37,740.687 1423.73,690.961 1455.03,656.876 1426.45,660.412 1343.97,709.3 1321.09,740.21 1298.66,760.459 1331.87,742.57 1352.79,731.888 1340,735.291 1421.52,688.454 1348.84,720.025 1287.84,766.993 1274.73,768.764 1286.21,777.481 1268.64,795.503 1220.88,829.67 1238.36,824.053 1179.75,868.382 1151.3,886.845 1081.89,939.114 1047.47,965.903 1035.53,978.483 1107.97,943.267 1090.43,942.883 1160.2,897.015 1120.52,923.385 1185.14,874.232 1236.32,830.733 1274.99,806.071 1276.14,784.1 1311.33,762.899 1335.8,750.091 1220.16,843.26 1261.3,818.184 1158.53,885.345 1060.53,942.477 1027.2,976.714 963.719,1020.05 932.475,1044 955.553,1034.48 1048.37,985.875 1089.07,960.973 1143.16,921.296 1142.72,911.236 1114.26,921.365 1233.43,853.003 1229.12,826.716 1264.51,807.041 1222.11,833.153 1261.86,805.808 1216.5,838.124 1201.01,841.594 1254.54,790.407 1159.33,859.95 1165.7,868.41 1184.53,878.076 1272.19,817.733 1235.95,827.136 1190.01,852.785 1167.55,869.28 1137.86,899.873 1112.97,919.951 1081.03,945.344 1025.11,989.605 1052.18,979.769 1077.1,961.765 1116.95,933.774 1126.72,918.181 1288.16,818.748 1379.8,730.27 1376.3,723.183 1448.39,666.951 1443.81,660.069 1584.32,546.371 1670.78,463.449 1646.82,467.244 1735.19,388.299 1603.92,482.042 1640.27,465.164 1494.11,576.94 1523.99,569.454 1415.79,654.471 1368.61,698.986 1258.01,780.056 1351.35,736.809 1331.89,746.43 1258.33,805.371 1230.09,830.66 1225.96,839.185 1210.42,849.033 1201.8,853.621 1099.75,910.916 1085.01,939.068 1126.46,922.566 1095.05,939.065 1024.14,977.023 953.96,1027.49 939.042,1041.03 943.838,1042.08 979.024,1023.55 953.897,1036.46 967.846,1031.18 1014.36,1007.03 1034.17,981.865 1171.73,897.596 1220.47,853.97 1338.25,768.427 1318.81,763.304 1319.06,757.607 1280.87,785.806 1400.24,687.92 1364.51,706.022 1361.81,693.633 1394.42,687.858 1363.77,707.28 1407.48,676.489 1454.83,645.661 1470.67,619.054 1480.42,610.127 1419.13,657.83 1415.28,667.873 1487.28,627.378 1419.27,672.973 1364.92,715.552 1320.07,749.145 1277.26,779.735 1221.95,825.807 1234.15,833.94 1238.76,837.961 1259.6,815.372 1257.18,812.272 1299,781.593 1134.57,922.036 1194.06,878.034 1246.15,832.96 1192.16,868.348 1255.86,830.14 1227.82,837.423 1192.7,857.392 1185.65,857.326 1135.56,891.804 1124.48,904.27 1089.75,930.521 1125.6,912.773 1125.2,917.303 1149.29,912.848 1069.6,958.453 933.84,1052.59 886.168,1086.32 891.057,1079.84 791.886,1140.82 806.546,1135.02 817.445,1125.73 822.589,1124.73 891.687,1084.88 890.423,1086.7 812.286,1124.78 777.37,1146.64 824.053,1125.6 835.259,1121.5 916.703,1074.85 1035.96,1003.44 1090.28,959.655 1245.64,853.644 1312.12,787.192 1248.48,814.532 1195.16,847.099 1234.74,830.08 1211.52,847.853 1126.62,910.143 1135.42,905.828 1080.26,944.904 1094.45,941.215 1141.59,915.232 1133.14,907.647 1177.44,876.443 1205.62,865.979 1258.3,812.911 1121.16,894.922 1174.33,872.116 1104.09,919.692 1166.56,882.957 1234.11,833.911 1282.28,800.051 1246.19,816.982 1312.04,772.496 1267.83,797.869 1329.01,755.96 1199.47,852.568 1096.14,923.752 1180.91,868.397 1034.31,972.519 1092.57,944.869 1129.69,917.214 1109.09,928.948 1022.09,977.933 933.057,1035.93 890.632,1065.08 846.729,1099.06 827.83,1114.52 828.175,1122.01 911.225,1081.41 858.944,1101.37 893.841,1084.98 927.211,1068.12 955.935,1049.52 902.259,1079.03 914.111,1072.06 949.372,1053.71 924.929,1061.62 945.472,1047.69 974.6,1026.62 957.778,1036.01 912.339,1066.45 871.019,1089.02 889.941,1079.93 909.746,1075.28 971.415,1032.91 1012.86,1008.75 1029.85,988.723 1105.43,940.468 1248.64,833.245 1225.87,840.607 1059.78,951.224 1120.64,928.912 1068.38,957.445 1054.84,975.112 1042.41,975.763 1021.88,994.758 1079.01,951.36 1149.7,901.402 1195.27,876.012 1239.04,850.618 1318.09,775.941 1259.46,808.377 1216.28,831.55 1413.98,680.648 1467.07,646.088 1457.41,638.38 1442.36,640.468 1383.97,683.054 1424.63,666.53 1388.03,689.416 1475.08,633.558 1550.25,569.604 1571.09,531.287 1479.2,596.837 1395.73,666.205 1425.09,665.692 1438.21,656.944 1482.24,633.185 1447.78,644.188 1391.11,686.631 1334.63,730.019 1280.17,772.676 1230.26,820.071 1188.52,853.593 1267.83,813.072 1178,860.186 1138.81,889.554 1069.14,947.922 1072.61,951.567 1114.17,928.015 1133.06,916.45 1106.37,925.726 1048.05,956.205 1063.92,951.853 1016.29,981.527 1039.88,976.596 1059.56,963.205 979.156,1011.61 949.022,1033.05 994.745,1012.33 966.584,1040.69 985.386,1014.6 953.005,1046.46 949.284,1049.76 866.211,1101.05 850.008,1111.69 904.398,1077.63 867.649,1099.43 867.486,1098 939.574,1056.98 1012.97,1015.87 941.899,1054.04 1071.25,980.987 1025.24,1000.51 1039.21,990.313 1117.92,926.053 1120.46,917.79 1250.37,836.31 1252.69,831.362 1232.64,830.579 1294.52,768.4 1397.22,709.875 1499.96,610.96 1437.31,639.169 1392.83,673.931 1399.3,673.171 1381.84,692.025 1483.64,613.294 1394.42,683.754 1402.45,674.782 1424.92,661.777 1365.05,715.195 1360.56,727.584 1365.9,725.862 1392.74,686.737 1324.17,749.062 1202.55,839.81 1144.41,888.373 1135.39,899.284 1096.58,931.015 1115.5,918.478 1123.06,921.146 1192.95,881.839 1220.8,856.032 1266.29,817.931 1221.72,836.149 1280.84,798.021 1209.16,858.117 1175.49,875.561 1181.45,870.701 1202.83,854.977 1120.78,918.675 1065.69,962.725 1006.02,997.356 960.316,1020.81 996.09,1001.2 929.199,1027.24 912.34,1048.87 994.51,1006.67 1016.9,988.298 1018.27,990.953 1131.69,934.563 1099.41,940.756 1189.74,882.675 1217.12,852.856 1164.68,878.201 1228.32,830.781 1288.13,770.782 1418.98,675.685 1369.68,705.441 1217.85,825.05 1139.77,891.586 1139.48,897.806 1116.12,909.796 1074.21,949.319 1032.11,979.16 1138.22,920.985 1155.05,890.877 1064.47,946.933 1114.75,921.123 1089.34,934.44 1175.75,881.766 1028.95,974.968 1069.88,946.011 1024.8,979.877 1043.11,959.605 1185.83,861.998 1156.35,879.791 1182.24,879.171 1206.17,856.622 1282.51,803.367 1312.42,766.909 1246.44,811.109 1291.64,779.101 1260.25,818.285 1314.84,770.45 1316.03,776.554 1515.84,611.532 1488.07,618.016 1538.16,580.997 1508.76,597.213 1571.77,535.048 1429.13,636.721 1421.35,649.714 1427.95,654.458 1356.43,721.246 1306.55,755.243 1273.41,779.977 1252.11,809.241 1243.51,822.918 1413.5,714.17 1276.82,794.463 1262.71,797.914 1187.33,865.902 1202.23,856.988 1218.42,846.409 1164.09,886.729 1188.6,871.218 1239.17,837.581 1327.01,776.026 1266.45,800.609 1328.07,764.742 1354.12,746.542 1335.97,747.016 1309.95,763.845 1260.86,796.498 1321.83,765.412 1396.78,719.324 1400.91,683.072 1369.65,712.672 1301.42,760.95 1282.42,795.634 1236.08,828.64 1276.07,805.094 1460.35,673.296 1451.21,656.263 1474.34,630.63 1579.36,542.044 1583.09,531.899 1500.77,592.564 1595.31,529.192 1572.95,550.366 1622.11,507.157 1534.99,556.232 1479.39,594.152 1539.09,571.545 1511.79,590.387 1450.93,637.001 1390.41,683.461 1305.08,759.054 1356.71,736.547 1432.98,683.834 1418.4,687.803 1448.32,660.465 1402.9,694.433 1354.09,726.935 1328.83,751.124 1361.83,737.51 1271.88,800.79 1342.07,755.491 1256.76,798.77 1252.36,799.626 1279.07,778.335 1382.44,705.581 1411.18,706.356 1376.81,716.246 1492.67,608.187 1469.96,631.228 1462.38,636.801 1467.18,616.36 1352.68,704.299 1482.73,608.877 1431.68,652.279 1428.34,653.872 1303.4,739.012 1293.06,765.772 1245.22,806.911 1305.25,785.122 1277.77,800.271 1344.7,753.426 1390.1,709.257 1410.8,691.76 1343.08,740.023 1298.78,761.733 1283.23,775.737 1271.69,802.49 1173.08,863.203 1162.88,867.046 1161.99,886.563 1170.36,885.454 1154.2,889.958 1199.73,858.391 1155.21,901.905 1267.66,818.742 1242.77,814.564 1219.24,836.205 1219.02,843.524 1120.89,918.626 1114.62,923.885 1107.08,940.431 1019.02,993.434 1051.82,968.466 1139.62,915.892 983.558,1014.53 1127.73,920.197 1062.69,961.439 1006.28,993.243 1000.27,997.948 1003.89,994.688 946.214,1046.26 961.638,1033.56 988.207,1017.43 993.496,1010.66 974.086,1026.86 953.204,1034.9 1005.18,1008.08 983.757,1014.36 1011.73,1002.78 940.271,1056.84 989.852,1014.13 888.033,1077.77 934.098,1062.56 932.629,1056.75 931.622,1057.5 1034.26,1001.6 980.694,1008.62 925.992,1039.08 891.554,1067.2 833.979,1104.18 923.558,1064.47 982.693,1034.13 944.054,1048.5 942.291,1047.51 944.399,1044.91 911.618,1061.46 915.7,1063.65 929.463,1058 929.353,1060.96 1000.4,1010.07 1049.66,976.351 976.305,1011.16 901.387,1063.98 907.978,1063.86 904.985,1071.29 849.596,1099.99 815.752,1121.05 859.256,1095.1 923.676,1059.54 1017.99,1000.37 969.438,1028.65 966.023,1019.19 949.125,1033.06 921.784,1061.33 954.141,1041.94 1020.52,998.959 1135.67,926.152 1187.22,880.002 1117.41,916.522 1168.89,882.89 1144.51,900.34 1073.97,951.318 1099.63,938.264 1209.64,850.774 1171.25,879.54 1163.67,887.331 1167.99,869.337 1363.23,757.412 1249.77,820.717 1228.93,838.561 1191.27,866.907 1117.54,916.102 1177.74,891.702 1132.67,920.75 1317.34,785.247 1332.94,762.237 1387.32,717.728 1497.94,607.968 1481.64,605.54 1443.1,649.9 1298.59,740.662 1374.3,707.094 1387.54,703.933 1310.29,747.875 1409.4,691.146 1341.44,729.9 1312.19,751.684 1320.86,739.639 1347.05,743.436 1299.07,778.351 1264.26,799.992 1211.23,824.705 1170.67,875.923 1166.93,886.837 1164.58,888.099 1186.99,875.646 1155.43,900.031 1197.21,878.799 1173.87,883.011 1226.13,851.299 1233.19,832.619 1253.2,818.2 1296.66,779.529 1320.71,764.033 1281.07,778.794 1252.68,806.77 1337.54,759.313 1281.95,786.502 1243.19,815.492 1269.41,787.895 1293.96,783.991 1277.08,793.675 1385.56,693.651 1352.28,710.749 1315.29,745.224 1276.78,777.843 1194.58,838.412 1196.9,853.86 1198.98,850.719 1131.88,904.624 1189.28,878.399 1121.68,915.38 1126.46,917.887 1009.41,985.127 984.493,1006.05 984.732,1010.35 1010.48,1001.2 1010.67,1000.15 1074.58,966.869 1180.5,891.073 1171.14,885.859 1207.63,863.456 1231.34,840.392 1224.45,841.558 1267.86,812.245 1164.47,870.445 1262.69,803.173 1244.79,813.588 1266.21,796.284 1283.04,796.543 1381.64,735.43 1370.46,731.412 1422.01,695.572 1214.97,841.885 1237.55,834.799 1128.44,897.732 1079.94,938.218 1117.18,920.604 1121.8,917.125 1275.34,802.969 1272.54,801.696 1348.8,746.181 1362.02,726.973 1422.47,680.367 1437.11,654.848 1356.07,709.819 1355.34,726.683 1362.68,722.021 1274.84,783.708 1290.81,781.485 1260.02,798.008 1167.04,866.917 1170.54,874.165 1113.59,918.78 1128.69,915.607 1186.21,864.118 1137.31,891.83 1096.7,920.686 1040.97,964.064 1147.65,911.597 1238.37,845.72 1283.86,809.547 1305.46,783.996 1315.26,771.26 1198.16,845.378 1256.65,812.977 1213.25,837.088 1194.09,844.995 1309.86,782.977 1295.13,802.186 1273.89,805.12 1255.06,807.313 1235.59,831.523 1118.55,914.615 1163.33,893.512 1095.58,936.749 1072.88,947.755 1120.79,915.073 1176.47,871.976 1196.28,865.298 1133.86,921.397 1195.71,863.488 1141.92,903.202 1057.87,966.992 1040.06,977.575 1148.56,917.79 1079.69,957.172 1011.49,1001.14 888.205,1076.92 840.733,1110.35 924.515,1066.67 980.006,1032.57 929.922,1056.72 912.658,1070.68 849.177,1105.61 853.852,1107.27 869.256,1098.4 887.283,1091.87 932.087,1062.5 893.095,1081.57 882.945,1086.49 960.184,1041.7 979.755,1023.16 1016.57,1001.19 1072.65,966.706 1091.52,947.965 1146,901.728 1079.28,943.197 1111.65,924.316 1091.72,930.201 1077.67,956.864 1072.38,967.304 1174.55,912.856 1141.93,920.802 1101.01,938.458 1052.57,960.869 1013,984.161 1075.5,962.114 1109.36,940.711 1270.82,821.684 1219.84,849.759 1176.65,880.34 1211.36,864.307 1075,960.373 1065.6,960.482 946.542,1040.48 933.207,1056.76 978.615,1024.51 1073.69,960.431 1093.52,935.135 1048.45,969.058 1090.1,943.962 1001.47,995.86 1004.8,979.646 1075.58,943.349 1098.96,925.58 1145.43,894.414 1271.18,817.609 1277.77,788.334 1329.69,736.488 1405.01,698.324 1320.2,745.83 1328.22,708.139 1257.86,773.367 1117.71,880.608 1108.66,906.185 1086.46,929.554 1034.13,966.126 1027.19,982.399 981.116,1011.56 888.593,1065.48 942.142,1048.83 925.766,1058.03 1008.44,1015.89 1075.91,967.955 1026.38,990.045 998.471,1008.67 1005.08,1008.32 1029.2,1002.86 912.886,1068.99 946.116,1051.46 1080.14,972.467 1062.78,962.809 1103.24,936.147 1105.76,929.818 1118.21,921.423 1151.02,903.402 1101.07,932.233 1123.97,910.093 1248.86,810.457 1241.54,818.054 1301,775.564 1224.68,834.324 1263.9,824.722 1242.49,835.002 1330.09,788.855 1347.63,775.361 1199.77,846.982 1097.45,928.633 1158.37,887.029 1060.45,960.151 987.453,1008.27 982.796,1019.79 1013.22,998.515 1102.33,938.202 1152.31,900.67 1208.87,860.125 1233.72,839.456 1247.98,819.097 1283.77,791.755 1376.13,704.546 1246.42,812.455 1236.61,822.095 1112.41,912.328 1024.8,975.184 965.83,1023.89 1022.9,997.205 1084.38,950.248 1023.65,984.543 1107.1,943.358 1081.95,946.123 1017.74,980.5 1026.08,981.142 1102.86,938.381 1048.74,970.705 1061.8,965.99 1063.07,965.167 1038.08,975.015 1065.87,961.014 1160.24,898.421 1159.86,896.673 1157.74,899.595 1080.48,947.173 1118.5,905.487 1017.14,975.313 980.434,995.987 952.331,1026.35 898.791,1070.64 959.306,1043.87 939.407,1034.97 1067.65,970.825 1088.35,949.705 1027.6,985.595 1102.61,941.631 1162.17,897.98 1234.75,846.038 1254.62,809.996 1275.75,799.731 1314.16,775.877 1387.55,720.692 1155.14,872.411 1081.6,927.921 1068.22,944.924 1041.77,963.651 1082.48,941.243 1000.61,983.214 1055.91,948.926 1164.35,884.352 1044.8,962.201 1125.35,914.441 976.651,1004.38 1047.67,951.757 1027.59,966.178 1120.53,902.872 1085.34,950.519 1126.91,923.894 1073.31,970.043 1061.01,982.278 922.514,1077.08 957.505,1053.49 987.459,1027.64 1039.51,983.106 1092.75,936.509 1020.65,991.259 954.189,1039.18 1036.42,988.014 1056.69,977.288 1005.94,1011.12 1036.64,1001.9 1145.4,926.187 1201.1,881.178 1355.14,766.035 1227.96,822.407 1337.5,751.088 1276.77,790.456 1252.98,802.219 1325.22,748.671 1311.17,752.411 1164.07,864.779 1128.07,899.824 1105.69,926.797 1100.71,933.993 1017.28,985.41 1018.58,985.188 1055.84,966.543 1014.82,992.274 1026.08,991.636 1149.85,904.544 1226.39,851.729 1369.76,744.867 1394.49,706.228 1481,633.049 1391.71,686.322 1321.66,754.175 1319.09,757.343 1336.51,746.525 1501.35,616.762 1474.08,635.694 1391.49,685.354 1285.7,767.229 1371.84,718.239 1396.4,696.952 1467.97,649.53 1470.97,632.105 1398.75,684.839 1432.61,651.785 1438.67,658.936 1360.84,705.796 1274.25,775.387 1213.87,827.649 1199.89,848.067 1182.39,871.454 1129.82,902.358 1054.47,953.012 954.909,1016.71 918.783,1052.06 896.686,1065.65 870.616,1087.38 840.568,1106.06 905.625,1076.68 929.8,1062.99 927.023,1064.28 954.571,1047.91 982.437,1029.87 1029.91,999.817 1009.97,999.254 995.664,1008.77 1044.85,981.326 1136.18,925.75 1227.19,864.282 1184.04,875.02 1160.4,891.144 1171.94,879.643 1143.54,890.353 1212.23,852.874 1161.26,891.234 1196.37,878.493 1120.26,916.221 1152.41,895.006 1094.4,914.016 1152.45,884.664 1274.87,803.587 1401.81,702.368 1465.41,642.442 1359.59,706.22 1436.43,671.365 1309.32,764.343 1303.62,765.928 1204.35,840.033 1202.01,845.039 1110.31,922.114 1172.52,889.348 1168.59,888.795 1128.85,918.96 1055.53,965.194 1151.9,891.676 1143.33,896.818 1278.46,817.329 1274.22,808.72 1219.7,827.351 1132.5,888.767 1096.23,922.723 1025.1,976.248 896.908,1058.53 918.618,1058.39 939.894,1049.06 936.2,1042.99 893.475,1067.81 1054.88,984.448 1113.5,936.153 1158.23,908.509 1255.9,834.842 1241.02,830.341 1243.82,826.289 1160.54,877.961 1261.73,826.81 1257.7,820.158 1294.7,790.881 1298.93,775.672 1188.14,852.711 1019.87,966.483 992.937,1001.63 966.195,1022.72 1018.95,998.293 1112.97,945.04 1048.19,966.774 1030.06,981.782 958.388,1024.68 916.225,1052.7 861.076,1091.97 897.066,1079.41 944.596,1056.77 944.458,1050.81 1000.74,1016.1 999.775,1014.03 1043.65,987.807 1163.39,903.12 1098.86,925.148 1103.18,929.573 978.73,1007.36 990.128,1009.41 1058.13,962.246 1036.27,985.118 1109.51,933.889 1162.9,897.865 1104.02,936.607 1060.37,961.301 1049.51,974.961 1040.81,986.76 1013.89,998.792 975.635,1028.62 969.458,1045.33 893.474,1086.19 908.446,1075.68 797.168,1142.63 778.346,1145.64 806.091,1140.63 977.722,1045.48 1010.32,1017.19 1055.75,971.694 1056.64,969.677 1060.53,967.388 1057.87,967.871 1094.79,943.163 1163.1,897.359 1125.36,915.737 1229.49,858.908 1207.07,863.044 1374.24,753.931 1187.03,868.177 1312.02,781.782 1214.52,842.516 1300.78,792.352 1297.69,791.557 1318.51,774.802 1284.63,797.516 1366.91,729.71 1377.65,703.373 1274.11,785.363 1151.78,875.201 1095.28,927.147 1040.24,964.187 1034.79,983.206 1067.9,964.446 1117.69,936.257 1233.29,845.667 1335.09,776.453 1281,794.739 1308.8,776.093 1269.04,804.957 1246.97,827.581 1234.65,827.227 1184.32,851.916 1132.38,890.385 1163.54,875.568 1183.84,863.524 1158.8,892.463 1164.47,890.325 1157.83,892.093 1088.41,929.847 1090.72,933.083 1078.21,945.61 964.487,1013.73 980.34,1012.32 1030.85,989.704 1033.6,979.459 1013.57,988.391 1025.1,982.159 965.306,1026.5 989.477,1016.13 981.477,1022.22 1006.46,1004.73 1081.86,960.272 1133.23,929.43 1150.77,914.122 1072.69,952.46 1046.66,974.917 1067.95,961.215 1150.53,902.811 1160.08,886.552 1181.12,886.241 1221.32,835.868 1198.24,846.609 1245.29,816.033 1258.48,809.956 1255.28,800.225 1278.17,797.506 1220.06,838.657 1227.06,842.511 1073.22,947.501 1146.25,916.615 1168.13,896.762 1177.94,874.788 1125.97,905.37 1158.19,897.413 1048.76,971.667 983.746,1005.99 966.621,1029.37 1079.53,956.459 1038.04,971.868 971.224,1020.14 1028.59,995.932 1022.7,993.164 946.716,1042.26 1011.42,1002.39 1048.9,976.87 1166.91,897.802 1143.03,909.453 1064.8,962.786 938.007,1047.04 989.13,1019.73 978.755,1009.5 993.711,999.553 988.298,1012.4 993.254,1010.14 1142.77,925.41 1234.74,846.971 1256.84,827.868 1286.58,798.233 1288.32,785.251 1181.45,858.968 1266.39,812.785 1207.06,845.068 1267.53,789.72 1186.02,855.233 1228.58,827.715 1234.65,835.685 1225.58,838.234 1160.07,874.665 1211.52,845.53 1187.32,863.835 1293.13,794.348 1369.29,732.15 1376.61,725.715 1397.2,695.952 1307.65,754.452 1221.04,819.258 1158.41,870.053 1182.17,863.089 1106.58,917.454 1046.49,961.559 1167.18,897.474 1183.57,876.666 1223.69,854.262 1226.13,847.438 1212.82,855.186 1224.66,848.301 1220.22,850.189 1176.25,875.572 1076.79,943.4 1006.98,989.091 996.882,1000.71 1114.24,936.958 1117.26,929.274 1161.87,902.105 1141.29,910.254 1120.71,919.031 1174.9,875.349 1271.37,830.746 1172.59,882.791 1234.46,838.969 1479.98,663.781 1377.54,708.645 1374.79,709.367 1364.27,708.453 1300.53,766.589 1139.25,875.429 1169.49,868.082 1222.51,837.593 1206.26,842.008 1159.4,885.395 1243.92,836.695 1207.78,848.743 1251.53,824.72 1298.05,789.128 1364.01,746.126 1395.11,717.452 1429.12,686.733 1435.99,670.966 1414.6,672.55 1403.51,678.962 1307.36,747.697 1290.05,761.912 1326.49,744.393 1313.27,763.285 1252.02,807.375 1269.55,799.942 1215.28,834.612 1219.35,843.656 1334.18,776.341 1232.37,835.996 1338.88,755.131 1434.82,661.452 1434.52,646.349 1535.03,582.426 1577.11,532.661 1538.7,550.622 1574.05,541.347 1789.67,355.68 1610.93,467.051 1564.8,517.564 1616.19,482.729 1625,478.403 1625.25,476.019 1557.72,528.501 1548.85,548.628 1558.2,541.421 1346.59,695.381 1261.44,770.911 1295.88,768.088 1332.83,752.929 1297.58,780.427 1288.61,784.93 1192.75,851.159 1235.46,833.165 1214.8,845.845 1229.91,838.207 1176.89,868.595 1109.57,917.088 1190.12,874.854 1217.61,849.81 1090.87,925.936 1196.23,875.105 1086,934.785 1090.76,946.143 1142.26,916.601 1149.24,904.614 1206.85,868.774 1267.09,818.415 1384.68,741.344 1334.77,758.152 1443.08,678.338 1407.97,690.37 1469.25,643.14 1373.88,687.425 1276.41,766.55 1324.18,747.535 1233.44,808.901 1314.2,763.737 1291.88,779.433 1238.66,814.519 1152,887.95 1245.01,838.55 1181.5,872.181 1132.78,906.329 1064.9,951.923 1078.7,950.453 1020.85,981.78 1044.59,967.821 985.63,1006.14 1058.56,973.085 1090.45,941.148 1116.52,927.27 1070.88,957.916 1159.63,887.894 1163.66,887.638 1075.54,944.13 1156.15,890.032 1049.11,959.03 1078.24,953.03 1088.63,953.506 1156.47,907.04 1136.84,907.531 1249.53,826.073 1238.11,831.137 1238.94,835.126 1278.86,773.897 1203.41,826.192 1067,925.219 1093.99,924.57 1056.05,954.439 1063.75,956.261 1047.06,971.652 1056.74,967.338 1177.77,890.537 1153.74,899.999 1103.02,932.522 1101.85,939.069 1046.73,963.791 1085.98,946.112 1141.86,899.176 1038.22,973.092 1126.05,927.208 1296.19,804.584 1316.07,772.208 1273.79,792.079 1338.32,746.918 1331.17,751.433 1318.61,756.104 1248.04,813.243 1276.66,797.104 1403.38,718.539 1308.4,789.675 1394.7,719.16 1396.93,702.367 1276.63,807.032 1228.26,843.657 1337.85,757.881 1295.39,768.324 1393.12,690.871 1162.84,860.114 1143.36,882.986 1133.89,901.425 1075.6,944.086 1121.84,909.128 1264.45,829.858 1189.88,872.05 1161.94,875.493 1109.89,919.464 1155.71,902.132 1176.55,883.558 1125.72,904.852 1053.04,959.71 1103.36,927.518 1154.41,890.02 1210.09,856.675 1238.89,832.653 1097.35,923.03 1113.4,912.758 1076.87,944.117 977.307,1002.65 910.716,1053.62 943.023,1049.82 923.362,1065.6 958.034,1045.69 993.548,1021.31 996.146,1017.03 1009.58,1017.7 1030.41,987.591 1035.75,985.409 985.137,1010.16 967.667,1015.31 958.391,1026.48 872.283,1082.98 891.541,1078.85 907.863,1072.96 951.574,1044.48 987.995,1021.07 979.136,1035.06 934.336,1053.51 972.511,1036.24 1046.25,982.471 1173.09,905.179 1263.66,833.172 1268,813.978 1261.47,812.199 1340.94,751.313 1309.32,762.314 1239.85,797.63 1300.27,767.075 1240.84,808.842 1151.43,884.595 1221.8,836.883 1317.51,779.3 1228.43,837.783 1128.44,905.165 1136.47,900.393 1155.85,875.992 1143.69,894.663 1136.07,914.733 1159.97,899.994 1223.54,840.349 1278.13,806.914 1174.64,872.728 1240.01,836.06 1276.33,809.631 1145.24,891.786 1261.93,806.176 1370.57,736.819 1339.98,754.263 1434.02,677.148 1497.69,616.434 1549.56,566.351 1583.5,541.594 1772.36,355.684 1720.15,372.69 1627.14,447.669 1585.85,491.404 1606.51,487.307 1547.4,541.655 1528.51,556.766 1471.92,601.142 1488.32,610.57 1519.63,591.257 1553.74,569.339 1571.2,538.272 1520.25,575.5 1576.56,536.584 1549.2,552.288 1466.91,613.796 1441.14,638.883 1439.76,650.112 1434.16,659.368 1419.01,674.885 1421.83,673.882 1431.89,670.341 1397.79,693.556 1491.66,626.824 1405.42,682.632 1359.11,721.029 1386.6,703.58 1243.42,793.682 1298.96,779.009 1208.4,838.205 1224.29,832.55 1160.16,882.062 1101.18,923.531 988.766,1000.37 968.807,1021.07 950.862,1036.2 1006.26,1012.47 1062.18,974.367 1114.56,939.619 1089.4,946.328 1066.37,958.401 1058.14,964.295 1145.21,903.803 1224.2,845.868 1278.5,796.116 1224.55,832.852 1157.93,879.338 1072.84,946.99 1074.06,956.213 1105.24,935.52 1131.56,919.655 1080.1,947.487 1067.22,954.562 985.77,1003.2 1066.87,945.61 1146.03,904.712 1178.8,858.701 1110.48,906.396 1097.49,921.096 1211.44,854.786 1170.7,889.415 1070.47,961.249 1012.32,1011.42 925.099,1050.61 888.732,1076.06 820.917,1120.68 860.837,1105.49 967.997,1043.17 988.949,1019.98 980.803,1019.05 930.369,1054.58 950.587,1051.06 1080.58,967.374 1214.5,868.832 1179.24,879.65 1114.17,913.928 1105.16,922.032 1058.7,952.696 1028.63,980.561 1082.94,944.072 1033.44,961.999 1027.51,990.332 1029.25,993.084 993.505,1011.73 1039.02,985.143 1114.54,930.027 1275.69,825.908 1166.35,887.323 1096.09,932.748 1229.09,847.596 1226.15,845.896 1370.89,737.259 1408.37,698.369 1469.15,628.962 1559.77,570.379 1600.68,518.494 1628.97,495.68 1578.63,507.65 1522.17,557.08 1410.47,643.134 1394.18,672.503 1407.56,677.567 1453.24,647.093 1369.42,705.764 1324.72,749.21 1229.49,811.219 1147.61,872.579 1123.03,900.557 1078.49,931.76 1125.08,912.205 1204.4,865.611 1172.91,880.606 1230.76,848.696 1256.24,814.19 1281.87,794.681 1320.37,760.284 1406.29,703.475 1402.07,701.378 1382.13,702.075 1508.18,612.817 1388.76,691.724 1534.92,576.633 1592.66,524.499 1580.65,530.617 1577.31,530.246 1395.85,664.962 1327.62,726.008 1284.26,772.245 1221.85,823.546 1262.44,806.121 1318.76,776.663 1306.33,777.721 1382.07,722.284 1281.41,785.515 1143.63,885.078 1085.72,933.101 1085.46,943.148 1152.15,913.356 1135.9,909.396 1190.43,879.01 1323.79,783.654 1257.43,805.958 1257.56,804.537 1292.49,786.417 1321.88,771.103 1512.06,617.305 1575.14,561.248 1474.47,614.397 1519.96,588.161 1533.07,554.8 1509.96,574.192 1453.32,621.14 1447.6,630.21 1450.41,643.308 1458.92,642.333 1469.67,635.09 1411.34,683.938 1388.57,700.257 1428.69,683.499 1368.82,716.02 1249.41,796.723 1240.2,815.242 1295.37,780.785 1195.39,851.674 1310.58,784.241 1331.45,769.515 1212.08,841.924 1120.67,902.604 1062.37,944.115 1053.08,966.07 1082.85,955.348 1075.92,955.354 1121.24,925.331 1133.21,905.804 1151.58,896.528 1177.9,878.041 1208.72,854.201 1109.91,927.594 1157.44,882.121 1205.19,848.365 1248.01,816.927 1136.07,896.961 1098.46,930.945 1033.29,987.411 1061.1,968.455 1089.92,949.857 953.911,1036.34 910.236,1062.71 960.33,1038.01 820.49,1122.67 832.328,1118.27 827.863,1119.49 994.826,1025.28 1012.51,1010.34 1035.71,984.044 1131.23,936.611 1159.73,906.803 1223.21,848.652 1163.88,879.29 1163.51,881.596 1330.64,774.66 1270.12,802.848 1207.46,839.699 1132.87,883.539 1121.79,908.518 1097.39,927.919 1074.97,945.606 994.157,997.117 1102.49,945.293 1224.06,873.765 1247.76,844.055 1273.06,817.292 1257.7,822.25 1235.22,835.008 1221.65,842.782 1313.1,786.485 1303.44,778.562 1261.8,798.789 1353.09,743.438 1564.07,577.616 1532.58,577.085 1547.81,563.057 1543.26,550.346 1623.62,488.606 1620.37,465.372 1522.94,549.38 1461.24,597.937 1489.14,594.623 1481.86,609.339 1400.26,676.231 1344.07,721.079 1264.31,787.346 1298.69,777.564 1246.49,817.151 1164.95,868.043 1109.39,914.416 1061.75,950.706 1001.99,994.215 990.067,1008.24 1050.94,980.423 1038.54,984.495 1092.28,951.199 1082.42,947.368 1104.88,929.291 1064.77,951.831 1140,913.725 1031.77,991.913 968.502,1021.83 1027.39,981.24 984.916,1015.21 959.224,1048.01 947.314,1054.12 935.761,1052.01 903.641,1068.38 894.545,1076 870.289,1089.07 970.409,1032.11 918.715,1063.82 942.995,1044.38 992.423,1012.71 1114.55,929.859 1095.88,935.122 1068.96,954.546 1121.14,920.115 1033.85,986.311 967.654,1032.87 1035.82,998.104 1004.64,1007.01 927.064,1053.8 955.262,1039.55 1064.7,978.437 995.181,1015.14 1023.12,985.096 1168.5,889.756 1180.57,878.335 1190.29,874.875 1100.73,946.296 1225.44,845.037 1212.01,849.767 1299.62,790.633 1245.53,821.6 1233.3,836.683 1168.34,868.095 1111.07,923.16 1162.13,901.208 1101.67,933.074 999.96,1004.56 1026.06,992 1011.85,998.862 1017.96,990.778 1078.96,956.146 1113.88,928.264 1107.67,935.397 1072.37,960.205 1136.17,918.58 1184.65,872.293 1084.67,937.559 1200.34,873.539 1175.22,884.757 1218.41,843.651 1301.98,787.016 1204.34,858.134 1212.15,833.486 1228.56,820.941 1164.87,863.007 1131.31,892.813 1149.9,898.959 1084.23,933.679 1003.12,988.075 1065.33,959.465 1062.88,962.849 1035.42,981.757 1074.9,967.167 1043.76,978.723 1098.52,949.664 1161.9,909.431 1136.07,913.006 1193.15,864.853 1236.14,836.318 1214.17,851.63 1022.89,973.067 1208.98,878.916 1312.54,796.951 1278.28,799.262 1307.34,770.97 1387.5,711.443 1433.1,675.737 1478.15,645.104 1409.07,669.156 1318.21,741.434 1359.81,724.191 1410.35,694.515 1367.07,700.939 1305.39,764.32 1321.66,763.833 1377.2,723.066 1293.81,785.473 1152.9,876.086 1158.87,884.11 1186.89,868.844 1195.94,864.661 1270.42,804.919 1228.01,822.017 1254.03,804.83 1263.39,809.794 1283.7,796.526 1237.88,808.527 1303.94,778.731 1274.71,795.044 1365.95,727.785 1356.98,728.056 1334.36,739.68 1435.03,672.258 1440.19,662.585 1401.03,702.171 1419.45,675.212 1439.85,666.43 1355.33,718.852 1358.81,736.76 1300.79,777.095 1192.05,857.588 1219.06,846.086 1181.46,875.435 1313.93,790.86 1185.31,851.478 1103.05,914.726 1168.14,886.43 1273.29,817.554 1191.16,851.375 1174.9,874.667 1111.36,903.782 1068.58,937.919 1121.19,916.383 1054.53,964.014 1023.75,987 1196.44,893.347 1165.04,905.992 1296.89,819.206 1285.68,799.615 1246.9,818.816 1397.11,711.846 1336.22,738.744 1228.62,819.079 1211.54,835.202 1185.8,860.042 1218.91,848.399 1121.19,911.634 1113.5,921.084 1074.68,946.292 1217.07,855.977 1228.66,850.202 1094.6,937.213 1110.71,913.479 1160.82,887.321 1218.86,857.651 1286.65,803.247 1315.92,773.054 1287.23,785.973 1378.22,718.491 1454.4,656.53 1338.89,720.293 1365.82,714.573 1268.32,773.345 1212.6,829.328 1118.88,897.619 1218.84,852.191 1187.71,875.114 1079.06,942.529 1090.36,948.413 1200.88,882.987 1185.38,880.04 1174.75,876.54 1130.92,908.862 1217.25,850.623 1179.11,872.151 1344.84,768.162 1393.31,724.197 1406.27,701.902 1356.6,724.043 1234.15,815.414 1267.94,800.364 1203.2,843.733 1263.32,811.283 1204.17,845.327 1100.63,913.587 1247.81,831.088 1351.53,760.978 1366.32,731.25 1369.04,717.333 1421.51,682.892 1376.08,705.976 1260.79,810.464 1151.13,879.226 1101.56,920.354 1143.67,905.074 1172.26,886.149 1299.75,791.104 1287.29,787.482 1291.32,778.205 1285.22,792.992 1274.2,804.571 1275.04,795.67 1246.96,816.359 1314.9,768.479 1352.03,714.913 1355.82,718.43 1280.01,778.129 1190.21,845.483 1218.43,837.25 1259.08,811.47 1247.35,820.226 1285.35,795.662 1247.27,829.788 1335,761.824 1228.54,830.145 1230.82,832.171 1228.97,827.494 1434.24,663.674 1462.46,637.108 1468.13,626.845 1445.97,643.931 1482.2,611.586 1672.83,470.998 1672,472.042 1521.18,568.338 1530.56,569.796 1503.23,584.844 1491.82,606.882 1398.01,673.869 1314.7,749.615 1321.67,751.829 1451.36,676.018 1467.49,659.144 1603.81,541.391 1520.8,570.421 1452.22,619.193 1321.47,719.712 1294.11,755.967 1226.86,811.521 1255.36,805.238 1232.48,826.812 1153.51,883.736 1133.51,904.832 1124.85,911.986 1118.76,916.925 1273.69,817.542 1376.21,738.157 1315.71,765.555 1333.42,750.384 1263.29,796.201 1265.19,793.607 1172.69,871.287 1232.43,833.785 1139,885.949 1305.79,799.994 1331.88,765.011 1429.08,695.578 1341.05,735.584 1400.14,698.605 1405.64,683.035 1390.19,694.838 1346.68,730.421 1318.96,750.776 1369.09,724.833 1352.24,733.052 1310.18,758.798 1345.22,733.203 1311.81,754.67 1346.32,735.153 1385.95,713.624 1299.08,770.913 1329.67,764.498 1282.31,792.091 1377.03,719.627 1202.31,856.761 1261.52,818.157 1176.06,876.671 1143.79,899.144 1196.71,867.038 1142.08,894.382 1072.07,920.821 1021.77,943.381 1020.44,962.409 936.539,1021.91 894.514,1060.02 898.835,1072.34 920.839,1060.82 841.393,1107.78 914.451,1067.77 989.401,1025.2 1009.25,1011.4 1051,979.943 1128,924.101 1173.54,870.461 1025.26,961.423 1019.94,982.517 1006.32,998.077 927.351,1049.79 830.437,1111.69 835.547,1112.24 842.493,1110.17 933.447,1063.21 850.383,1103.26 928.3,1065.07 933.082,1053.44 864.803,1088.72 883.853,1085.84 891.749,1080.6 922.78,1062.22 992.391,1024.1 1000.79,1011.81 971.483,1028.69 942.288,1044.19 1049.24,967.002 1121.14,926.622 1153.15,893.994 1249.86,835.064 1181.77,870.135 1204.08,864.274 1052.41,968.605 1048.2,975.801 1003.63,1004.04 939.628,1048.54 976.675,1024.77 1016.48,1011.59 1117.29,945.376 1055.63,966.415 991.911,1004.88 954.81,1034.53 922.22,1051.76 957.082,1044.65 962.692,1039.76 907.701,1072.06 950.131,1044.6 922.199,1058.78 976.322,1032 968.208,1032.53 1016.63,1001.61 1021.13,991.451 1180.08,898.888 1146.29,903.479 1144.77,906.573 1199.35,871.439 1165.6,890.02 1224.85,846.189 1187.53,872.232 1196.78,882.085 1245.28,827.814 1296.99,789.897 1190.6,858.62 1239.78,837.564 1228.22,860.976 1334.36,774.135 1309.93,765.639 1320.29,759.217 1213.81,830.346 1220.04,840.005 1191.67,863.592 1155.03,887.879 1033.67,974.246 1052.74,966.149 1095.33,949.32 1051.64,975.797 1143.37,905.3 1097.08,932.078 1181.3,886.244 1118.95,922.766 1177.42,885.92 1152.02,896.856 1084.88,929.075 1147.57,896.881 1036.41,995.671 1106.52,947.626 1205.36,865.293 1311.13,787.371 1234.39,828.041 1269.71,796.67 1147.52,903.854 1152.15,894.608 1138.38,894.362 1138.6,904.672 1096.88,933.838 1087.86,946.228 1010.54,988.725 1191.96,882.173 1149.81,895.693 1156.35,884.655 1096.82,939.022 1148.17,888.134 1130.2,900.768 1081.37,937.11 1057.57,966.531 1022.26,990.861 1123.96,930.401 1182.17,886.481 1139.38,907.888 1168.08,886.52 1241.4,825.418 1284.31,800.423 1440.94,667.613 1425.21,663.854 1302.26,754.635 1301.32,764.881 1392.35,707.117 1353.32,730.697 1328.95,746.495 1390.52,692.462 1357.55,717.965 1367.03,720.28 1397.87,697.698 1373.7,708.294 1326.97,747.728 1217.26,839.083 1171.89,879.738 990.521,1005.79 1012.97,997.069 971.426,1021.94 900.688,1064.06 918.568,1064.46 1010.48,1010.31 1067.05,976.842 1090.33,957.907 967.23,1029.16 1055.56,975.973 1083.38,945.878 1086.08,937.057 984.186,1008.48 1039.41,983.996 1085.18,954.131 1090.13,946.882 1031.95,984.463 1130.08,900.898 1053.28,954.487 953.905,1024.46 1012.67,998.487 945.046,1035.4 909.288,1060.15 952.912,1036.93 926.099,1047.72 864.559,1089.19 963.536,1039.52 1115.86,938.544 1059.47,961.722 1079.85,950.37 1168.87,893.348 1198.29,865.871 1202.47,862.371 1176.38,872.588 1243.82,827.494 1342.54,742.107 1424.25,685.811 1263.73,794.002 1312.16,759.254 1364.53,717.768 1514.82,627.453 1422.67,680.077 1360.84,723.473 1276.79,786.651 1244.1,825.31 1248.77,825.911 1045.72,971.417 971.308,1021.37 948.559,1042.38 955.233,1040.43 951.37,1037.94 968.29,1037.59 993.17,1017.25 1011.99,1006.63 908.197,1071.82 1036.27,1002.93 960.115,1034.96 948.813,1049.19 1066.9,977.816 975.256,1024.76 936.832,1043.77 1039.1,985.574 1104.61,939.156 1223.36,844.045 1339.51,763.576 1375.73,725.581 1348.01,717.363 1258.27,781.223 1270.69,779.469 1119.83,894.493 1103.02,915.816 1044.2,959.969 1017.22,980.859 975.31,1013.62 969.041,1017.96 994.009,1011.09 1053.67,977.136 1111.91,939.388 1182.3,890.941 1179.8,877.619 1217.85,856.498 1207.03,838.039 1229.95,831.708 1259.25,814.6 1344.03,759.176 1285.16,786.865 1268.16,802.741 1336.66,759.488 1430.21,693.39 1475.65,636.072 1430.7,659.297 1453.95,638.899 1231.21,805.903 1223.1,827.243 1196.89,851.662 1231.92,836.435 1232.47,842.412 1284.11,800.239 1382.47,713.581 1435.74,665.177 1502.57,626.021 1380.23,709.496 1405.03,687.823 1494.35,607.417 1407.74,691.661 1454.96,660.874 1431.43,670.237 1482.03,631.645 1323.72,753.082 1276.72,778.201 1102.1,900.679 1122.83,902.575 1090.21,934.735 1099.4,936.33 1219.15,870.143 1220.01,855.033 1182.24,875.214 1094.72,926.012 998.516,990.19 1102.14,943.308 1124.07,927.433 1105.21,930.58 1188.01,876.767 1128.56,902.928 1101.3,928.621 1039.9,964.798 1042.38,974.062 1121.16,926.777 1032.1,978.015 991.077,1003.35 934.492,1048.03 911.517,1061.71 961.487,1033.39 1013.05,1013.4 928.692,1049.33 859.4,1090.82 844.227,1101.25 827.19,1114.92 840.938,1107.47 902.168,1075.76 971.929,1031.04 1084.68,957.404 1097.4,943.722 1029.24,971.976 1043.67,973.617 1069.91,945.395 1022.84,981.918 1052.45,960.66 1129.7,897.643 1143.66,900.887 1139.83,899.338 1151.65,902.046 1030.87,989.2 1164.99,900.56 1270.42,817.091 1288.3,781.303 1366.89,728.504 1280.44,780.545 1247.9,811.01 1161.02,877.956 1111.42,909.072 1122.52,922.976 1010.57,984.728 933.999,1034.35 931.829,1045.07 923.575,1054.91 1064.45,983.675 1056.1,971.931 1064.66,964.42 1188.57,891.456 1110.65,932.228 1185.06,886.776 1127.39,915.462 1125.72,916.745 1019.62,991.78 1060.24,974.004 1097.3,944.519 1261.9,846.364 1278.59,818.979 1373.3,724.857 1282.59,783.432 1303.46,766.524 1362.33,723.253 1368.36,718.104 1391.04,709.395 1278.84,776.669 1172.76,864.846 1192.03,859.701 1185.66,870.304 1179.43,876.082 1148.75,892.418 1012.66,982.906 995.273,1003.15 1008.55,1000.98 981.736,1018.85 1023.17,999.721 1029.91,985.449 985.034,1016.21 1028.78,995.612 1098.33,951.743 1072.13,962.733 984.326,1011.35 953.597,1028.52 957.82,1030.21 928.11,1044.2 917.758,1056.49 865.492,1087.22 838.604,1116.48 889.013,1085.47 894.933,1076.71 912.729,1070.31 983.769,1020.54 1036.57,981.612 1038.07,981.545 1015.66,988.074 1013.54,995.668 1006.13,993.433 961.122,1021.15 1012.21,998.684 1151.44,905.973 1164.19,899.116 1275.65,814.201 1319.83,777.844 1348.98,734.117 1368.58,716.612 1307.34,753.065 1217.56,817.502 1203.79,837.489 1267.43,815.833 1414.88,692.864 1380.12,704.916 1289.14,759.918 1436.06,664.653 1393.88,716.266 1366.47,719.05 1527.07,597.143 1494.9,614.837 1404.68,673.647 1310.4,751.909 1155.9,867.55 1144.14,880.281 1180.01,866.227 1160.04,893.845 1169.75,882.928 1135.4,902.047 1157.48,886.14 1212.31,847.524 1309.52,786.012 1265.31,813.661 1246.92,812.183 1248.21,829.898 1236.13,826.128 1254.23,809.386 1144.62,892.282 1368.85,752.408 1529.08,631.688 1412.1,674.276 1412.37,675.761 1355.94,707.989 1269.77,776.09 1209.56,824.964 1196.89,853.997 1212.75,843.139 1164.63,873.827 1201.48,858.349 1319.46,784.977 1392.35,716.287 1406.01,684.637 1431.02,664.189 1430.27,669.833 1446.83,665.631 1362.55,722.589 1348.31,735.776 1346.01,719.318 1246.12,804.995 1351.24,736.462 1314.71,752.444 1363.18,711.838 1433.82,665.857 1402.38,691.394 1405.11,685.028 1348.56,724.177 1278.67,786.059 1307.99,769.914 1263.01,806.239 1259.09,814.279 1245.89,817.228 1317.72,775.966 1354.86,750.952 1234.55,837.111 1235.84,821.37 1347.56,721.42 1387.76,702.932 1432.7,657.151 1344.47,711.285 1319.66,753.649 1367.54,724.971 1341.18,736.157 1185.41,855.245 1205.83,847.677 1178.5,871.635 1058.02,944.938 990.635,999.17 955.245,1024.3 946.78,1036.88 869.554,1083.47 875.297,1090.17 870.278,1098.21 895.545,1086.63 889.469,1082.02 959.539,1047.41 950.755,1045.76 968.394,1027.73 1024.32,996.759 1095.95,950.205 1128.58,925.362 1155.7,903.287 1192.44,867.924 1200.4,849.345 1216.24,842.178 1242.75,815.131 1213.26,837.47 1299.64,778.843 1380.36,727.611 1305.67,758.42 1309.34,773.061 1336.34,744.729 1140.77,886.276 1298.14,789.264 1375.23,722.477 1374.66,703.315 1344.98,720.17 1296.48,762.749 1345.3,742.594 1306.35,769.893 1219.56,836.782 1177.32,865.823 1230.93,835.915 1144.83,892.847 1154.06,898.168 1149.66,894.771 1075.02,948.027 1061.84,960.082 1069.17,942.86 1216.67,858.473 1272.1,798.904 1263.12,791.245 1334.54,739.843 1239.38,831.229 1182.95,868.636 1181.33,870.127 1202.61,860.585 1326.05,772.132 1361.45,738.552 1374.2,722.451 1475.9,640.573 1414.07,688.383 1352.27,735.444 1314.01,752.136 1299.04,769.376 1402.89,694.927 1287.94,788.548 1203.75,844.758 1212.63,846.311 1158,891.079 1095.85,934.597 1021.85,997.321 1127.39,930.883 1107.01,932.988 1213.54,857.857 1301.54,792.198 1291.7,780.015 1278.5,801.668 1308.02,781.563 1319.05,751.781 1370.94,724.071 1296.66,773.251 1159.17,878.992 1162.59,882.359 1157.45,901.444 1155.76,889.958 1227.42,831.666 1250.81,818.138 1387.53,724.041 1374.96,716.973 1474,647.206 1423.9,655.587 1434.08,654.601 1507.73,591.855 1411.21,669.85 1461,642.085 1441.17,662.151 1300.28,750.769 1324.26,748.352 1229.67,813.146 1207.31,842.955 1134.39,892.933 997.09,988.92 1030.46,981.702 953.046,1027.62 873.503,1078.49 829.703,1106.04 897.45,1082.26 1003.64,1021.87 886.794,1078.48 995.114,1024.1 987.875,1021.89 1050.47,977.458 1089.28,948.635 1107.38,932.663 1079.08,946.259 994.075,996.542 964.171,1011.85 872.585,1078.35 825.2,1109.82 820.635,1123.59 759.77,1155.75 789.396,1144.01 799.159,1139.78 721.215,1177.87 768.162,1160.78 771.535,1157.57 743.685,1170.94 773.232,1158.95 827.4,1124.95 779.259,1152.15 776.958,1151.78 852.713,1114.23 924.983,1066.64 796.356,1132.48 797.164,1136.74 718.853,1175.99 740.518,1172.98 800.155,1146.78 747.607,1169.49 789.496,1151.34 864.005,1108.06 919.348,1071.8 946.321,1053.04 892.95,1076.28 939.408,1047.18 1038.67,993.694 1058.76,976.375 1077.47,959.19 1093.6,937.297 963.355,1021.36 1017.51,1000.31 969.812,1027.4 1040.98,987.597 986.201,1017.16 1022.63,991.967 1041.64,972.663 1092.6,949.185 1311.38,805.927 1171.19,879.843 1198.61,857.034 1175.9,872.777 1259.76,832.891 1336.56,761.472 1341.08,747.076 1335.97,743.351 1165.34,866.949 1147.95,882.567 1140.24,896.539 1111.22,920.992 1165.16,888.897 1197.02,872.014 1364.42,752.379 1282.73,785.956 1252.1,803.888 1297.29,777.23 1322.23,747.53 1295.43,772.56 1235.73,816.83 1189.42,849.477 1331.14,757.561 1238.54,822.643 1054.08,954.217 1024.86,983.053 937.146,1039.5 966.532,1031.78 913.355,1062.24 883.284,1085.45 944.157,1046.24 970.066,1025.75 965.503,1032.59 1010.76,1003.17 1044.81,984.279 1179.69,889.34 1263.13,824.936 1292.43,800.309 1316,767.885 1221.21,833.963 1189.59,861.609 1208.63,854.47 1250.16,827.874 1262.82,827.587 1303.75,785.555 1279.06,797.122 1225.95,827.062 1289.21,787.405 1239.39,815.429 1252.44,801.223 1167.4,869.041 1153.75,882.374 1248.26,823.727 1262.48,814.489 1364.84,744.94 1454.03,671.766 1564.78,569.784 1496.74,598.448 1338.74,699.695 1281.57,756.566 1353.55,724.272 1355.84,725.448 1433.67,668.141 1341.47,734.005 1332.06,740.707 1374.85,721.211 1264,793.092 1378.28,725.077 1498.4,608.614 1568.71,539.695 1596.57,514.394 1551.6,525.975 1388.91,655.402 1247.85,766.069 1230.56,802.887 1167.48,855.113 1139.99,884.36 1074.47,933.517 1133.6,909.923 1195.87,877.486 1172.08,887.257 1330.76,783.751 1270.02,809.172 1237.51,826.732 1240.73,830.628 1258.89,822.332 1216.18,846.311 1162.64,878.553 1160.78,885.535 1191.41,870.577 1245.95,840.641 1314.14,778.244 1385.41,723.827 1361.48,732.197 1292.02,770.796 1360.44,732.142 1326.11,752.606 1294.96,774.798 1274.78,783.163 1145.32,883.28 1243.83,831.738 1231.07,840.683 1189.67,861.776 1220.16,852.144 1214.83,851.256 1219.97,848.513 "/>
<path clip-path="url(#clip070)" d="M228.998 198.898 L588.673 198.898 L588.673 95.2176 L228.998 95.2176  Z" fill="#ffffff" fill-rule="evenodd" fill-opacity="1"/>
<polyline clip-path="url(#clip070)" style="stroke:#000000; stroke-linecap:round; stroke-linejoin:round; stroke-width:4; stroke-opacity:1; fill:none" points="228.998,198.898 588.673,198.898 588.673,95.2176 228.998,95.2176 228.998,198.898 "/>
<polyline clip-path="url(#clip070)" style="stroke:#009af9; stroke-linecap:round; stroke-linejoin:round; stroke-width:4; stroke-opacity:1; fill:none" points="253.409,147.058 399.875,147.058 "/>
<path clip-path="url(#clip070)" d="M434.911 128.366 Q431.809 133.69 430.305 138.898 Q428.8 144.106 428.8 149.453 Q428.8 154.801 430.305 160.055 Q431.832 165.287 434.911 170.588 L431.207 170.588 Q427.735 165.148 425.999 159.893 Q424.286 154.639 424.286 149.453 Q424.286 144.291 425.999 139.06 Q427.712 133.828 431.207 128.366 L434.911 128.366 Z" fill="#000000" fill-rule="nonzero" fill-opacity="1" /><path clip-path="url(#clip070)" d="M464.726 138.412 L455.351 151.027 L465.212 164.338 L460.189 164.338 L452.642 154.152 L445.096 164.338 L440.073 164.338 L450.142 150.773 L440.929 138.412 L445.953 138.412 L452.828 147.648 L459.703 138.412 L464.726 138.412 Z" fill="#000000" fill-rule="nonzero" fill-opacity="1" /><path clip-path="url(#clip070)" d="M472.318 158.458 L477.202 158.458 L477.202 162.439 L473.406 169.847 L470.42 169.847 L472.318 162.439 L472.318 158.458 Z" fill="#000000" fill-rule="nonzero" fill-opacity="1" /><path clip-path="url(#clip070)" d="M497.087 166.745 Q495.281 171.375 493.568 172.787 Q491.855 174.199 488.985 174.199 L485.582 174.199 L485.582 170.634 L488.082 170.634 Q489.841 170.634 490.813 169.8 Q491.786 168.967 492.966 165.865 L493.73 163.921 L483.244 138.412 L487.758 138.412 L495.86 158.689 L503.962 138.412 L508.475 138.412 L497.087 166.745 Z" fill="#000000" fill-rule="nonzero" fill-opacity="1" /><path clip-path="url(#clip070)" d="M515.443 158.458 L520.327 158.458 L520.327 162.439 L516.531 169.847 L513.545 169.847 L515.443 162.439 L515.443 158.458 Z" fill="#000000" fill-rule="nonzero" fill-opacity="1" /><path clip-path="url(#clip070)" d="M527.573 138.412 L547.804 138.412 L547.804 142.301 L531.785 160.935 L547.804 160.935 L547.804 164.338 L526.994 164.338 L526.994 160.449 L543.012 141.815 L527.573 141.815 L527.573 138.412 Z" fill="#000000" fill-rule="nonzero" fill-opacity="1" /><path clip-path="url(#clip070)" d="M553.637 128.366 L557.341 128.366 Q560.813 133.828 562.526 139.06 Q564.262 144.291 564.262 149.453 Q564.262 154.639 562.526 159.893 Q560.813 165.148 557.341 170.588 L553.637 170.588 Q556.716 165.287 558.22 160.055 Q559.748 154.801 559.748 149.453 Q559.748 144.106 558.22 138.898 Q556.716 133.69 553.637 128.366 Z" fill="#000000" fill-rule="nonzero" fill-opacity="1" /></svg>
