<?xml version="1.0" encoding="utf-8"?>
<svg xmlns="http://www.w3.org/2000/svg" xmlns:xlink="http://www.w3.org/1999/xlink" width="600" height="400" viewBox="0 0 2400 1600">
<defs>
  <clipPath id="clip470">
    <rect x="0" y="0" width="2400" height="1600"/>
  </clipPath>
</defs>
<path clip-path="url(#clip470)" d="M0 1600 L2400 1600 L2400 0 L0 0  Z" fill="#ffffff" fill-rule="evenodd" fill-opacity="1"/>
<defs>
  <clipPath id="clip471">
    <rect x="147" y="47" width="2206" height="1377"/>
  </clipPath>
</defs>
<path clip-path="url(#clip470)" d="M147.478 1423.18 L2352.76 1423.18 L2352.76 47.2441 L147.478 47.2441  Z" fill="#ffffff" fill-rule="evenodd" fill-opacity="1"/>
<polyline clip-path="url(#clip471)" style="stroke:#000000; stroke-linecap:round; stroke-linejoin:round; stroke-width:2; stroke-opacity:0.1; fill:none" points="147.478,1423.18 147.478,47.2441 "/>
<polyline clip-path="url(#clip471)" style="stroke:#000000; stroke-linecap:round; stroke-linejoin:round; stroke-width:2; stroke-opacity:0.1; fill:none" points="588.534,1423.18 588.534,47.2441 "/>
<polyline clip-path="url(#clip471)" style="stroke:#000000; stroke-linecap:round; stroke-linejoin:round; stroke-width:2; stroke-opacity:0.1; fill:none" points="1029.59,1423.18 1029.59,47.2441 "/>
<polyline clip-path="url(#clip471)" style="stroke:#000000; stroke-linecap:round; stroke-linejoin:round; stroke-width:2; stroke-opacity:0.1; fill:none" points="1470.64,1423.18 1470.64,47.2441 "/>
<polyline clip-path="url(#clip471)" style="stroke:#000000; stroke-linecap:round; stroke-linejoin:round; stroke-width:2; stroke-opacity:0.1; fill:none" points="1911.7,1423.18 1911.7,47.2441 "/>
<polyline clip-path="url(#clip471)" style="stroke:#000000; stroke-linecap:round; stroke-linejoin:round; stroke-width:2; stroke-opacity:0.1; fill:none" points="2352.76,1423.18 2352.76,47.2441 "/>
<polyline clip-path="url(#clip471)" style="stroke:#000000; stroke-linecap:round; stroke-linejoin:round; stroke-width:2; stroke-opacity:0.1; fill:none" points="147.478,1285.21 2352.76,1285.21 "/>
<polyline clip-path="url(#clip471)" style="stroke:#000000; stroke-linecap:round; stroke-linejoin:round; stroke-width:2; stroke-opacity:0.1; fill:none" points="147.478,950.161 2352.76,950.161 "/>
<polyline clip-path="url(#clip471)" style="stroke:#000000; stroke-linecap:round; stroke-linejoin:round; stroke-width:2; stroke-opacity:0.1; fill:none" points="147.478,615.108 2352.76,615.108 "/>
<polyline clip-path="url(#clip471)" style="stroke:#000000; stroke-linecap:round; stroke-linejoin:round; stroke-width:2; stroke-opacity:0.1; fill:none" points="147.478,280.054 2352.76,280.054 "/>
<polyline clip-path="url(#clip470)" style="stroke:#000000; stroke-linecap:round; stroke-linejoin:round; stroke-width:4; stroke-opacity:1; fill:none" points="147.478,1423.18 2352.76,1423.18 "/>
<polyline clip-path="url(#clip470)" style="stroke:#000000; stroke-linecap:round; stroke-linejoin:round; stroke-width:4; stroke-opacity:1; fill:none" points="147.478,1423.18 147.478,1404.28 "/>
<polyline clip-path="url(#clip470)" style="stroke:#000000; stroke-linecap:round; stroke-linejoin:round; stroke-width:4; stroke-opacity:1; fill:none" points="588.534,1423.18 588.534,1404.28 "/>
<polyline clip-path="url(#clip470)" style="stroke:#000000; stroke-linecap:round; stroke-linejoin:round; stroke-width:4; stroke-opacity:1; fill:none" points="1029.59,1423.18 1029.59,1404.28 "/>
<polyline clip-path="url(#clip470)" style="stroke:#000000; stroke-linecap:round; stroke-linejoin:round; stroke-width:4; stroke-opacity:1; fill:none" points="1470.64,1423.18 1470.64,1404.28 "/>
<polyline clip-path="url(#clip470)" style="stroke:#000000; stroke-linecap:round; stroke-linejoin:round; stroke-width:4; stroke-opacity:1; fill:none" points="1911.7,1423.18 1911.7,1404.28 "/>
<polyline clip-path="url(#clip470)" style="stroke:#000000; stroke-linecap:round; stroke-linejoin:round; stroke-width:4; stroke-opacity:1; fill:none" points="2352.76,1423.18 2352.76,1404.28 "/>
<path clip-path="url(#clip470)" d="M147.478 1454.1 Q143.867 1454.1 142.038 1457.66 Q140.233 1461.2 140.233 1468.33 Q140.233 1475.44 142.038 1479.01 Q143.867 1482.55 147.478 1482.55 Q151.112 1482.55 152.918 1479.01 Q154.746 1475.44 154.746 1468.33 Q154.746 1461.2 152.918 1457.66 Q151.112 1454.1 147.478 1454.1 M147.478 1450.39 Q153.288 1450.39 156.344 1455 Q159.422 1459.58 159.422 1468.33 Q159.422 1477.06 156.344 1481.67 Q153.288 1486.25 147.478 1486.25 Q141.668 1486.25 138.589 1481.67 Q135.534 1477.06 135.534 1468.33 Q135.534 1459.58 138.589 1455 Q141.668 1450.39 147.478 1450.39 Z" fill="#000000" fill-rule="nonzero" fill-opacity="1" /><path clip-path="url(#clip470)" d="M583.186 1481.64 L599.506 1481.64 L599.506 1485.58 L577.561 1485.58 L577.561 1481.64 Q580.223 1478.89 584.807 1474.26 Q589.413 1469.61 590.594 1468.27 Q592.839 1465.74 593.719 1464.01 Q594.621 1462.25 594.621 1460.56 Q594.621 1457.8 592.677 1456.07 Q590.756 1454.33 587.654 1454.33 Q585.455 1454.33 583.001 1455.09 Q580.571 1455.86 577.793 1457.41 L577.793 1452.69 Q580.617 1451.55 583.071 1450.97 Q585.524 1450.39 587.561 1450.39 Q592.932 1450.39 596.126 1453.08 Q599.32 1455.77 599.32 1460.26 Q599.32 1462.39 598.51 1464.31 Q597.723 1466.2 595.617 1468.8 Q595.038 1469.47 591.936 1472.69 Q588.834 1475.88 583.186 1481.64 Z" fill="#000000" fill-rule="nonzero" fill-opacity="1" /><path clip-path="url(#clip470)" d="M1032.6 1455.09 L1020.79 1473.54 L1032.6 1473.54 L1032.6 1455.09 M1031.37 1451.02 L1037.25 1451.02 L1037.25 1473.54 L1042.18 1473.54 L1042.18 1477.43 L1037.25 1477.43 L1037.25 1485.58 L1032.6 1485.58 L1032.6 1477.43 L1017 1477.43 L1017 1472.92 L1031.37 1451.02 Z" fill="#000000" fill-rule="nonzero" fill-opacity="1" /><path clip-path="url(#clip470)" d="M1471.05 1466.44 Q1467.9 1466.44 1466.05 1468.59 Q1464.22 1470.74 1464.22 1474.49 Q1464.22 1478.22 1466.05 1480.39 Q1467.9 1482.55 1471.05 1482.55 Q1474.2 1482.55 1476.03 1480.39 Q1477.88 1478.22 1477.88 1474.49 Q1477.88 1470.74 1476.03 1468.59 Q1474.2 1466.44 1471.05 1466.44 M1480.33 1451.78 L1480.33 1456.04 Q1478.57 1455.21 1476.77 1454.77 Q1474.98 1454.33 1473.23 1454.33 Q1468.6 1454.33 1466.14 1457.45 Q1463.71 1460.58 1463.36 1466.9 Q1464.73 1464.89 1466.79 1463.82 Q1468.85 1462.73 1471.33 1462.73 Q1476.54 1462.73 1479.55 1465.9 Q1482.58 1469.05 1482.58 1474.49 Q1482.58 1479.82 1479.43 1483.03 Q1476.28 1486.25 1471.05 1486.25 Q1465.05 1486.25 1461.88 1481.67 Q1458.71 1477.06 1458.71 1468.33 Q1458.71 1460.14 1462.6 1455.28 Q1466.49 1450.39 1473.04 1450.39 Q1474.8 1450.39 1476.58 1450.74 Q1478.39 1451.09 1480.33 1451.78 Z" fill="#000000" fill-rule="nonzero" fill-opacity="1" /><path clip-path="url(#clip470)" d="M1911.7 1469.17 Q1908.37 1469.17 1906.45 1470.95 Q1904.55 1472.73 1904.55 1475.86 Q1904.55 1478.98 1906.45 1480.77 Q1908.37 1482.55 1911.7 1482.55 Q1915.03 1482.55 1916.95 1480.77 Q1918.88 1478.96 1918.88 1475.86 Q1918.88 1472.73 1916.95 1470.95 Q1915.06 1469.17 1911.7 1469.17 M1907.02 1467.18 Q1904.02 1466.44 1902.33 1464.38 Q1900.66 1462.32 1900.66 1459.35 Q1900.66 1455.21 1903.6 1452.8 Q1906.56 1450.39 1911.7 1450.39 Q1916.86 1450.39 1919.8 1452.8 Q1922.74 1455.21 1922.74 1459.35 Q1922.74 1462.32 1921.05 1464.38 Q1919.39 1466.44 1916.4 1467.18 Q1919.78 1467.96 1921.65 1470.26 Q1923.55 1472.55 1923.55 1475.86 Q1923.55 1480.88 1920.47 1483.57 Q1917.42 1486.25 1911.7 1486.25 Q1905.98 1486.25 1902.9 1483.57 Q1899.85 1480.88 1899.85 1475.86 Q1899.85 1472.55 1901.75 1470.26 Q1903.64 1467.96 1907.02 1467.18 M1905.31 1459.79 Q1905.31 1462.48 1906.98 1463.98 Q1908.67 1465.49 1911.7 1465.49 Q1914.71 1465.49 1916.4 1463.98 Q1918.11 1462.48 1918.11 1459.79 Q1918.11 1457.11 1916.4 1455.6 Q1914.71 1454.1 1911.7 1454.1 Q1908.67 1454.1 1906.98 1455.6 Q1905.31 1457.11 1905.31 1459.79 Z" fill="#000000" fill-rule="nonzero" fill-opacity="1" /><path clip-path="url(#clip470)" d="M2327.44 1481.64 L2335.08 1481.64 L2335.08 1455.28 L2326.77 1456.95 L2326.77 1452.69 L2335.04 1451.02 L2339.71 1451.02 L2339.71 1481.64 L2347.35 1481.64 L2347.35 1485.58 L2327.44 1485.58 L2327.44 1481.64 Z" fill="#000000" fill-rule="nonzero" fill-opacity="1" /><path clip-path="url(#clip470)" d="M2366.8 1454.1 Q2363.18 1454.1 2361.36 1457.66 Q2359.55 1461.2 2359.55 1468.33 Q2359.55 1475.44 2361.36 1479.01 Q2363.18 1482.55 2366.8 1482.55 Q2370.43 1482.55 2372.23 1479.01 Q2374.06 1475.44 2374.06 1468.33 Q2374.06 1461.2 2372.23 1457.66 Q2370.43 1454.1 2366.8 1454.1 M2366.8 1450.39 Q2372.61 1450.39 2375.66 1455 Q2378.74 1459.58 2378.74 1468.33 Q2378.74 1477.06 2375.66 1481.67 Q2372.61 1486.25 2366.8 1486.25 Q2360.99 1486.25 2357.91 1481.67 Q2354.85 1477.06 2354.85 1468.33 Q2354.85 1459.58 2357.91 1455 Q2360.99 1450.39 2366.8 1450.39 Z" fill="#000000" fill-rule="nonzero" fill-opacity="1" /><path clip-path="url(#clip470)" d="M1249.18 1522.27 L1249.18 1532.4 L1261.24 1532.4 L1261.24 1536.95 L1249.18 1536.95 L1249.18 1556.3 Q1249.18 1560.66 1250.36 1561.9 Q1251.57 1563.14 1255.23 1563.14 L1261.24 1563.14 L1261.24 1568.04 L1255.23 1568.04 Q1248.45 1568.04 1245.87 1565.53 Q1243.29 1562.98 1243.29 1556.3 L1243.29 1536.95 L1238.99 1536.95 L1238.99 1532.4 L1243.29 1532.4 L1243.29 1522.27 L1249.18 1522.27 Z" fill="#000000" fill-rule="nonzero" fill-opacity="1" /><polyline clip-path="url(#clip470)" style="stroke:#000000; stroke-linecap:round; stroke-linejoin:round; stroke-width:4; stroke-opacity:1; fill:none" points="147.478,1423.18 147.478,47.2441 "/>
<polyline clip-path="url(#clip470)" style="stroke:#000000; stroke-linecap:round; stroke-linejoin:round; stroke-width:4; stroke-opacity:1; fill:none" points="147.478,1285.21 166.376,1285.21 "/>
<polyline clip-path="url(#clip470)" style="stroke:#000000; stroke-linecap:round; stroke-linejoin:round; stroke-width:4; stroke-opacity:1; fill:none" points="147.478,950.161 166.376,950.161 "/>
<polyline clip-path="url(#clip470)" style="stroke:#000000; stroke-linecap:round; stroke-linejoin:round; stroke-width:4; stroke-opacity:1; fill:none" points="147.478,615.108 166.376,615.108 "/>
<polyline clip-path="url(#clip470)" style="stroke:#000000; stroke-linecap:round; stroke-linejoin:round; stroke-width:4; stroke-opacity:1; fill:none" points="147.478,280.054 166.376,280.054 "/>
<path clip-path="url(#clip470)" d="M51.3625 1285.67 L81.0383 1285.67 L81.0383 1289.6 L51.3625 1289.6 L51.3625 1285.67 Z" fill="#000000" fill-rule="nonzero" fill-opacity="1" /><path clip-path="url(#clip470)" d="M95.1586 1298.56 L111.478 1298.56 L111.478 1302.49 L89.5336 1302.49 L89.5336 1298.56 Q92.1956 1295.8 96.7789 1291.18 Q101.385 1286.52 102.566 1285.18 Q104.811 1282.66 105.691 1280.92 Q106.594 1279.16 106.594 1277.47 Q106.594 1274.72 104.649 1272.98 Q102.728 1271.24 99.6261 1271.24 Q97.4271 1271.24 94.9734 1272.01 Q92.5428 1272.77 89.7651 1274.32 L89.7651 1269.6 Q92.5891 1268.47 95.0428 1267.89 Q97.4965 1267.31 99.5335 1267.31 Q104.904 1267.31 108.098 1269.99 Q111.293 1272.68 111.293 1277.17 Q111.293 1279.3 110.483 1281.22 Q109.696 1283.12 107.589 1285.71 Q107.01 1286.38 103.909 1289.6 Q100.807 1292.8 95.1586 1298.56 Z" fill="#000000" fill-rule="nonzero" fill-opacity="1" /><path clip-path="url(#clip470)" d="M50.9921 950.613 L80.6679 950.613 L80.6679 954.548 L50.9921 954.548 L50.9921 950.613 Z" fill="#000000" fill-rule="nonzero" fill-opacity="1" /><path clip-path="url(#clip470)" d="M91.5706 963.506 L99.2095 963.506 L99.2095 937.14 L90.8993 938.807 L90.8993 934.548 L99.1632 932.881 L103.839 932.881 L103.839 963.506 L111.478 963.506 L111.478 967.441 L91.5706 967.441 L91.5706 963.506 Z" fill="#000000" fill-rule="nonzero" fill-opacity="1" /><path clip-path="url(#clip470)" d="M99.5335 600.906 Q95.9224 600.906 94.0937 604.471 Q92.2882 608.013 92.2882 615.142 Q92.2882 622.249 94.0937 625.814 Q95.9224 629.355 99.5335 629.355 Q103.168 629.355 104.973 625.814 Q106.802 622.249 106.802 615.142 Q106.802 608.013 104.973 604.471 Q103.168 600.906 99.5335 600.906 M99.5335 597.203 Q105.344 597.203 108.399 601.809 Q111.478 606.392 111.478 615.142 Q111.478 623.869 108.399 628.476 Q105.344 633.059 99.5335 633.059 Q93.7234 633.059 90.6447 628.476 Q87.5892 623.869 87.5892 615.142 Q87.5892 606.392 90.6447 601.809 Q93.7234 597.203 99.5335 597.203 Z" fill="#000000" fill-rule="nonzero" fill-opacity="1" /><path clip-path="url(#clip470)" d="M91.5706 293.399 L99.2095 293.399 L99.2095 267.033 L90.8993 268.7 L90.8993 264.441 L99.1632 262.774 L103.839 262.774 L103.839 293.399 L111.478 293.399 L111.478 297.334 L91.5706 297.334 L91.5706 293.399 Z" fill="#000000" fill-rule="nonzero" fill-opacity="1" /><polyline clip-path="url(#clip471)" style="stroke:#009af9; stroke-linecap:round; stroke-linejoin:round; stroke-width:4; stroke-opacity:1; fill:none" points="147.478,615.108 149.685,617.698 151.893,620.255 154.1,622.778 156.308,625.267 158.515,627.723 160.723,630.146 162.93,632.538 165.138,634.898 167.345,637.226 169.553,639.524 171.76,641.791 173.968,644.028 176.175,646.235 178.383,648.413 180.59,650.563 182.798,652.683 185.005,654.776 187.213,656.841 189.42,658.879 191.628,660.889 193.835,662.873 196.043,664.83 198.25,666.762 200.458,668.668 202.665,670.549 204.873,672.405 207.08,674.236 209.288,676.043 211.495,677.826 213.702,679.585 215.91,681.321 218.117,683.034 220.325,684.724 222.532,686.392 224.74,688.038 226.947,689.662 229.155,691.264 231.362,692.845 233.57,694.405 235.777,695.945 237.985,697.464 240.192,698.963 242.4,700.442 244.607,701.902 246.815,703.342 249.022,704.763 251.23,706.165 253.437,707.548 255.645,708.914 257.852,710.261 260.06,711.59 262.267,712.902 264.475,714.196 266.682,715.473 268.89,716.733 271.097,717.977 273.305,719.204 275.512,720.415 277.72,721.609 279.927,722.788 282.135,723.951 284.342,725.099 286.549,726.232 288.757,727.349 290.964,728.452 293.172,729.54 295.379,730.614 297.587,731.673 299.794,732.719 302.002,733.75 304.209,734.768 306.417,735.772 308.624,736.763 310.832,737.741 313.039,738.706 315.247,739.658 317.454,740.598 319.662,741.525 321.869,742.44 324.077,743.343 326.284,744.233 328.492,745.112 330.699,745.979 332.907,746.835 335.114,747.679 337.322,748.513 339.529,749.335 341.737,750.146 343.944,750.947 346.152,751.736 348.359,752.516 350.567,753.285 352.774,754.044 354.982,754.793 357.189,755.531 359.397,756.261 361.604,756.98 363.811,757.257 366.019,756.725 368.226,755.483 370.434,753.626 372.641,751.243 374.849,748.416 377.056,745.224 379.264,741.738 381.471,738.026 383.679,734.147 385.886,730.158 388.094,726.108 390.301,722.041 392.509,717.996 394.716,714.006 396.924,710.098 399.131,706.295 401.339,702.612 403.546,699.06 405.754,695.644 407.961,692.365 410.169,689.215 412.376,686.183 414.584,683.253 416.791,680.4 418.999,677.598 421.206,674.811 423.414,672.001 425.621,669.146 427.829,666.319 430.036,663.529 432.244,660.777 434.451,658.061 436.659,655.381 438.866,652.736 441.073,650.127 443.281,647.552 445.488,645.011 447.696,642.504 449.903,640.03 452.111,637.589 454.318,635.181 456.526,632.804 458.733,630.459 460.941,628.145 463.148,625.861 465.356,623.608 467.563,621.385 469.771,619.191 471.978,617.026 474.186,614.89 476.393,612.782 478.601,610.702 480.808,608.65 483.016,606.625 485.223,604.627 487.431,602.655 489.638,600.709 491.846,598.79 494.053,596.896 496.261,595.027 498.468,593.182 500.676,591.363 502.883,589.567 505.091,587.795 507.298,586.047 509.506,584.321 511.713,582.619 513.921,580.939 516.128,579.282 518.335,577.646 520.543,576.033 522.75,574.44 524.958,572.869 527.165,571.318 529.373,569.788 531.58,568.279 533.788,566.789 535.995,565.319 538.203,563.869 540.41,562.437 542.618,561.025 544.825,559.632 547.033,558.256 549.24,556.9 551.448,555.561 553.655,554.24 555.863,552.936 558.07,551.65 560.278,550.381 562.485,549.128 564.693,547.892 566.9,546.673 569.108,545.47 571.315,544.282 573.523,543.111 575.73,541.955 577.938,540.814 580.145,539.688 582.353,538.578 584.56,537.43 586.768,535.409 588.975,532.373 591.182,528.505 593.39,523.975 595.597,518.935 597.805,513.524 600.012,507.865 602.22,502.066 604.427,496.22 606.635,490.405 608.842,484.684 611.05,479.105 613.257,473.7 615.465,468.487 617.672,463.469 619.88,458.634 622.087,453.953 624.295,449.385 626.502,444.871 628.71,440.339 630.917,435.783 633.125,431.286 635.332,426.849 637.54,422.471 639.747,418.151 641.955,413.889 644.162,409.682 646.37,405.532 648.577,401.437 650.785,397.395 652.992,393.408 655.2,389.473 657.407,385.59 659.615,381.759 661.822,377.979 664.03,374.248 666.237,370.567 668.444,366.935 670.652,363.351 672.859,359.815 675.067,356.326 677.274,352.882 679.482,349.485 681.689,346.132 683.897,342.824 686.104,339.56 688.312,336.34 690.519,333.162 692.727,330.026 694.934,326.932 697.142,323.878 699.349,320.866 701.557,317.893 703.764,314.96 705.972,312.065 708.179,309.209 710.387,306.391 712.594,303.61 714.802,300.866 717.009,298.158 719.217,295.487 721.424,292.85 723.632,290.249 725.839,287.682 728.047,285.149 730.254,282.65 732.462,280.184 734.669,277.75 736.877,275.349 739.084,272.979 741.292,270.641 743.499,268.334 745.706,266.057 747.914,263.811 750.121,261.595 752.329,259.407 754.536,257.249 756.744,255.12 758.951,253.019 761.159,250.945 763.366,248.899 765.574,246.881 767.781,244.889 769.989,242.923 772.196,240.983 774.404,239.07 776.611,237.181 778.819,235.318 781.026,233.479 783.234,231.665 785.441,229.875 787.649,228.108 789.856,226.365 792.064,224.645 794.271,222.943 796.479,220.103 798.686,216.901 800.894,215.182 803.101,216.056 805.309,219.894 807.516,226.331 809.724,234.263 811.931,241.947 814.139,249.21 816.346,256.377 818.553,263.448 820.761,270.426 822.968,277.311 825.176,284.105 827.383,290.809 829.591,297.424 831.798,303.952 834.006,310.393 836.213,316.748 838.421,323.02 840.628,329.208 842.836,335.314 845.043,341.339 847.251,347.284 849.458,353.15 851.666,358.938 853.873,364.65 856.081,370.286 858.288,375.847 860.496,381.335 862.703,386.749 864.911,392.092 867.118,397.364 869.326,402.566 871.533,407.699 873.741,412.765 875.948,417.763 878.156,422.694 880.363,427.561 882.571,432.363 884.778,437.101 886.986,441.776 889.193,446.39 891.401,450.942 893.608,455.434 895.815,459.867 898.023,464.24 900.23,468.556 902.438,472.814 904.645,477.016 906.853,481.163 909.06,485.254 911.268,489.291 913.475,493.274 915.683,497.205 917.89,501.084 920.098,504.911 922.305,508.687 924.513,512.414 926.72,516.09 928.928,519.719 931.135,523.299 933.343,526.831 935.55,530.317 937.758,533.757 939.965,537.151 942.173,540.5 944.38,543.804 946.588,547.065 948.795,550.283 951.003,553.458 953.21,556.59 955.418,559.682 957.625,562.732 959.833,565.742 962.04,568.712 964.248,571.643 966.455,574.535 968.663,577.388 970.87,580.204 973.077,582.982 975.285,585.723 977.492,588.428 979.7,591.097 981.907,593.731 984.115,596.33 986.322,598.894 988.53,601.425 990.737,603.921 992.945,606.385 995.152,608.816 997.36,611.215 999.567,613.582 1001.77,615.917 1003.98,618.222 1006.19,620.496 1008.4,622.74 1010.6,624.954 1012.81,627.139 1015.02,629.295 1017.23,631.422 1019.43,633.521 1021.64,635.592 1023.85,637.636 1026.06,639.653 1028.26,641.643 1030.47,641.591 1032.68,633.819 1034.89,626.623 1037.09,619.458 1039.3,612.388 1041.51,605.412 1043.72,598.528 1045.92,591.735 1048.13,585.033 1050.34,578.419 1052.55,571.893 1054.75,565.453 1056.96,559.099 1059.17,552.829 1061.38,546.643 1063.58,540.538 1065.79,534.514 1068,528.57 1070.21,522.705 1072.41,516.918 1074.62,511.207 1076.83,505.572 1079.04,500.012 1081.24,494.525 1083.45,489.112 1085.66,483.77 1087.87,478.498 1090.07,473.297 1092.28,468.165 1094.49,463.1 1096.7,458.103 1098.9,453.172 1101.11,448.307 1103.32,443.506 1105.53,438.769 1107.73,434.094 1109.94,429.481 1112.15,424.93 1114.36,420.439 1116.56,416.007 1118.77,411.635 1120.98,407.32 1123.19,403.062 1125.39,398.861 1127.6,394.716 1129.81,390.625 1132.02,386.589 1134.22,382.606 1136.43,378.676 1138.64,374.798 1140.85,370.972 1143.05,367.196 1145.26,363.47 1147.47,359.794 1149.68,356.167 1151.88,352.587 1154.09,349.055 1156.3,345.57 1158.51,342.131 1160.71,338.738 1162.92,335.39 1165.13,332.086 1167.34,328.826 1169.54,325.609 1171.75,322.434 1173.96,319.302 1176.17,316.211 1178.37,313.162 1180.58,310.152 1182.79,307.183 1185,304.253 1187.2,301.362 1189.41,298.509 1191.62,295.694 1193.83,292.916 1196.03,290.175 1198.24,287.471 1200.45,284.802 1202.66,282.169 1204.86,279.571 1207.07,277.007 1209.28,274.477 1211.49,271.981 1213.69,269.518 1215.9,267.087 1218.11,264.689 1220.32,262.322 1222.52,259.987 1224.73,257.683 1226.94,255.409 1229.15,253.165 1231.35,250.952 1233.56,248.767 1235.77,246.612 1237.98,244.485 1240.18,242.386 1242.39,240.783 1244.6,241.239 1246.81,243.482 1249.01,247.102 1251.22,251.732 1253.43,257.055 1255.64,262.793 1257.84,268.718 1260.05,274.645 1262.26,280.435 1264.47,285.992 1266.67,291.268 1268.88,296.258 1271.09,301.004 1273.3,305.591 1275.5,310.151 1277.71,314.801 1279.92,319.411 1282.13,323.96 1284.33,328.449 1286.54,332.878 1288.75,337.249 1290.96,341.561 1293.16,345.817 1295.37,350.016 1297.58,354.159 1299.79,358.248 1301.99,362.282 1304.2,366.263 1306.41,370.191 1308.62,374.068 1310.82,377.892 1313.03,381.666 1315.24,385.39 1317.45,389.065 1319.65,392.69 1321.86,396.268 1324.07,399.798 1326.28,403.281 1328.48,406.718 1330.69,410.11 1332.9,413.456 1335.11,416.758 1337.31,420.017 1339.52,423.232 1341.73,426.404 1343.94,429.534 1346.14,432.623 1348.35,435.671 1350.56,438.679 1352.76,441.646 1354.97,444.574 1357.18,447.464 1359.39,450.315 1361.59,453.128 1363.8,455.905 1366.01,458.644 1368.22,461.347 1370.42,464.014 1372.63,466.646 1374.84,469.243 1377.05,471.806 1379.25,474.334 1381.46,476.83 1383.67,479.292 1385.88,481.721 1388.08,484.118 1390.29,486.484 1392.5,488.818 1394.71,491.121 1396.91,493.393 1399.12,495.636 1401.33,497.848 1403.54,500.032 1405.74,502.186 1407.95,504.312 1410.16,506.409 1412.37,508.479 1414.57,510.521 1416.78,512.537 1418.99,514.525 1421.2,516.487 1423.4,518.424 1425.61,520.334 1427.82,522.219 1430.03,524.08 1432.23,525.915 1434.44,527.726 1436.65,529.513 1438.86,531.277 1441.06,533.017 1443.27,534.734 1445.48,536.428 1447.69,538.1 1449.89,539.75 1452.1,541.378 1454.31,542.984 1456.52,544.569 1458.72,546.133 1460.93,547.676 1463.14,549.199 1465.35,550.701 1467.55,552.588 1469.76,556.054 1471.97,560.991 1474.18,567.205 1476.38,574.511 1478.59,582.736 1480.8,591.719 1483.01,601.309 1485.21,611.369 1487.42,621.77 1489.63,632.396 1491.84,643.144 1494.04,653.919 1496.25,664.641 1498.46,675.238 1500.67,685.651 1502.87,695.833 1505.08,705.747 1507.29,715.369 1509.5,724.684 1511.7,733.691 1513.91,742.399 1516.12,750.829 1518.33,759.012 1520.53,766.991 1522.74,774.822 1524.95,782.57 1527.16,790.313 1529.36,798.129 1531.57,805.9 1533.78,813.567 1535.99,821.133 1538.19,828.599 1540.4,835.966 1542.61,843.235 1544.82,850.407 1547.02,857.485 1549.23,864.468 1551.44,871.36 1553.65,878.159 1555.85,884.869 1558.06,891.49 1560.27,898.022 1562.48,904.469 1564.68,910.83 1566.89,917.107 1569.1,923.301 1571.31,929.413 1573.51,935.443 1575.72,941.394 1577.93,947.266 1580.14,953.06 1582.34,958.777 1584.55,964.418 1586.76,969.985 1588.97,975.477 1591.17,980.897 1593.38,986.245 1595.59,991.521 1597.8,996.728 1600,1001.87 1602.21,1006.93 1604.42,1011.94 1606.63,1016.87 1608.83,1021.74 1611.04,1026.55 1613.25,1031.29 1615.46,1035.97 1617.66,1040.59 1619.87,1045.14 1622.08,1049.64 1624.29,1054.07 1626.49,1058.45 1628.7,1062.77 1630.91,1067.03 1633.12,1071.24 1635.32,1075.38 1637.53,1079.48 1639.74,1083.52 1641.95,1087.51 1644.15,1091.44 1646.36,1095.32 1648.57,1099.28 1650.78,1103.4 1652.98,1107.61 1655.19,1111.86 1657.4,1116.09 1659.61,1120.26 1661.81,1124.33 1664.02,1128.26 1666.23,1132 1668.44,1135.54 1670.64,1138.84 1672.85,1141.89 1675.06,1144.66 1677.27,1147.15 1679.47,1149.33 1681.68,1151.22 1683.89,1152.8 1686.1,1154.09 1688.3,1155.09 1690.51,1155.81 1692.72,1156.27 1694.93,1156.49 1697.13,1156.5 1699.34,1156.32 1701.55,1155.99 1703.76,1155.56 1705.96,1155.05 1708.17,1154.52 1710.38,1154.02 1712.59,1153.61 1714.79,1153.34 1717,1153.11 1719.21,1152.89 1721.42,1152.67 1723.62,1152.46 1725.83,1152.25 1728.04,1152.04 1730.25,1151.83 1732.45,1151.63 1734.66,1151.43 1736.87,1151.23 1739.07,1151.03 1741.28,1150.84 1743.49,1150.65 1745.7,1150.46 1747.9,1150.28 1750.11,1150.09 1752.32,1149.91 1754.53,1149.74 1756.73,1149.56 1758.94,1149.39 1761.15,1149.21 1763.36,1149.05 1765.56,1148.88 1767.77,1148.71 1769.98,1148.55 1772.19,1148.39 1774.39,1148.23 1776.6,1148.08 1778.81,1147.92 1781.02,1147.77 1783.22,1147.62 1785.43,1147.47 1787.64,1147.33 1789.85,1147.18 1792.05,1147.04 1794.26,1146.9 1796.47,1146.76 1798.68,1146.63 1800.88,1146.49 1803.09,1146.36 1805.3,1146.23 1807.51,1146.1 1809.71,1145.97 1811.92,1145.84 1814.13,1145.72 1816.34,1145.6 1818.54,1145.48 1820.75,1145.36 1822.96,1145.24 1825.17,1145.12 1827.37,1145.01 1829.58,1144.9 1831.79,1144.78 1834,1144.67 1836.2,1144.56 1838.41,1144.46 1840.62,1144.35 1842.83,1144.25 1845.03,1144.14 1847.24,1144.04 1849.45,1143.94 1851.66,1143.84 1853.86,1143.75 1856.07,1143.65 1858.28,1143.55 1860.49,1143.46 1862.69,1143.37 1864.9,1143.28 1867.11,1143.19 1869.32,1143.1 1871.52,1143.01 1873.73,1142.92 1875.94,1142.84 1878.15,1142.75 1880.35,1142.67 1882.56,1142.59 1884.77,1142.51 1886.98,1142.43 1889.18,1142.35 1891.39,1142.27 1893.6,1142.19 1895.81,1142.12 1898.01,1141.87 1900.22,1140.47 1902.43,1137.92 1904.64,1134.4 1906.84,1130.07 1909.05,1125.09 1911.26,1119.59 1913.47,1113.69 1915.67,1107.52 1917.88,1101.18 1920.09,1094.74 1922.3,1088.3 1924.5,1081.92 1926.71,1075.65 1928.92,1069.54 1931.13,1063.6 1933.33,1057.87 1935.54,1052.34 1937.75,1047.01 1939.96,1041.86 1942.16,1036.86 1944.37,1031.95 1946.58,1027.1 1948.79,1022.23 1950.99,1017.33 1953.2,1012.5 1955.41,1007.72 1957.62,1003.01 1959.82,998.366 1962.03,993.781 1964.24,989.257 1966.45,984.792 1968.65,980.387 1970.86,976.04 1973.07,971.751 1975.28,967.519 1977.48,963.342 1979.69,959.221 1981.9,955.155 1984.11,951.143 1986.31,947.183 1988.52,943.276 1990.73,939.42 1992.94,935.616 1995.14,931.862 1997.35,928.157 1999.56,924.502 2001.77,920.895 2003.97,917.337 2006.18,913.825 2008.39,910.36 2010.6,906.941 2012.8,903.567 2015.01,900.238 2017.22,896.954 2019.43,893.713 2021.63,890.515 2023.84,887.359 2026.05,884.246 2028.26,881.173 2030.46,878.142 2032.67,875.151 2034.88,872.2 2037.09,869.287 2039.29,866.414 2041.5,863.579 2043.71,860.781 2045.92,858.02 2048.12,855.297 2050.33,852.609 2052.54,849.957 2054.75,847.34 2056.95,844.757 2059.16,842.209 2061.37,839.695 2063.58,837.214 2065.78,834.766 2067.99,832.35 2070.2,829.967 2072.41,827.614 2074.61,825.293 2076.82,823.003 2079.03,820.743 2081.24,818.513 2083.44,816.316 2085.65,814.16 2087.86,812.043 2090.07,809.96 2092.27,807.908 2094.48,805.884 2096.69,803.885 2098.9,801.908 2101.1,799.951 2103.31,798.011 2105.52,796.087 2107.73,794.176 2109.93,792.278 2112.14,790.391 2114.35,788.514 2116.55,786.647 2118.76,784.788 2120.97,782.938 2123.18,781.097 2125.38,779.264 2127.59,777.441 2129.8,775.629 2132.01,773.828 2134.21,772.039 2136.42,770.264 2138.63,768.505 2140.84,766.764 2143.04,765.043 2145.25,763.344 2147.46,761.671 2149.67,760.027 2151.87,758.41 2154.08,756.816 2156.29,755.242 2158.5,753.69 2160.7,752.158 2162.91,750.646 2165.12,749.155 2167.33,747.683 2169.53,746.231 2171.74,744.798 2173.95,743.384 2176.16,741.989 2178.36,740.612 2180.57,739.253 2182.78,737.913 2184.99,736.59 2187.19,735.285 2189.4,733.997 2191.61,732.727 2193.82,731.473 2196.02,730.235 2198.23,729.014 2200.44,727.81 2202.65,726.621 2204.85,725.448 2207.06,724.291 2209.27,723.148 2211.48,722.022 2213.68,720.91 2215.89,719.812 2218.1,718.729 2220.31,717.661 2222.51,716.606 2224.72,715.566 2226.93,714.539 2229.14,713.526 2231.34,712.527 2233.55,711.54 2235.76,710.567 2237.97,709.606 2240.17,708.659 2242.38,707.724 2244.59,706.801 2246.8,705.89 2249,704.992 2251.21,704.106 2253.42,703.231 2255.63,702.368 2257.83,701.517 2260.04,700.676 2262.25,699.847 2264.46,699.029 2266.66,698.222 2268.87,697.426 2271.08,696.64 2273.29,695.865 2275.49,695.099 2277.7,694.345 2279.91,693.6 2282.12,692.865 2284.32,692.139 2286.53,691.424 2288.74,690.718 2290.95,690.021 2293.15,689.333 2295.36,688.655 2297.57,687.986 2299.78,687.325 2301.98,686.673 2304.19,686.03 2306.4,685.395 2308.61,684.769 2310.81,684.151 2313.02,683.541 2315.23,682.94 2317.44,682.346 2319.64,681.76 2321.85,681.182 2324.06,680.611 2326.27,680.048 2328.47,679.493 2330.68,678.944 2332.89,678.404 2335.1,677.87 2337.3,677.343 2339.51,676.824 2341.72,676.311 2343.93,675.805 2346.13,675.305 2348.34,674.813 2350.55,674.327 2352.76,673.847 "/>
<polyline clip-path="url(#clip471)" style="stroke:#e26f46; stroke-linecap:round; stroke-linejoin:round; stroke-width:4; stroke-opacity:1; fill:none" points="147.478,810.524 149.685,810.524 151.893,810.524 154.1,810.524 156.308,810.524 158.515,810.524 160.723,810.524 162.93,810.524 165.138,810.524 167.345,810.524 169.553,810.524 171.76,810.524 173.968,810.524 176.175,810.524 178.383,810.524 180.59,810.524 182.798,810.524 185.005,810.524 187.213,810.524 189.42,810.524 191.628,810.524 193.835,810.524 196.043,810.524 198.25,810.524 200.458,810.524 202.665,810.524 204.873,810.524 207.08,810.524 209.288,810.524 211.495,810.524 213.702,810.524 215.91,810.524 218.117,810.524 220.325,810.524 222.532,810.524 224.74,810.524 226.947,810.524 229.155,810.524 231.362,810.524 233.57,810.524 235.777,810.524 237.985,810.524 240.192,810.524 242.4,810.524 244.607,810.524 246.815,810.524 249.022,810.524 251.23,810.524 253.437,810.524 255.645,810.524 257.852,810.524 260.06,810.524 262.267,810.524 264.475,810.524 266.682,810.524 268.89,810.524 271.097,810.524 273.305,810.524 275.512,810.524 277.72,810.524 279.927,810.524 282.135,810.524 284.342,810.524 286.549,810.524 288.757,810.524 290.964,810.524 293.172,810.524 295.379,810.524 297.587,810.524 299.794,810.524 302.002,810.524 304.209,810.524 306.417,810.524 308.624,810.524 310.832,810.524 313.039,810.524 315.247,810.524 317.454,810.524 319.662,810.524 321.869,810.524 324.077,810.524 326.284,810.524 328.492,810.524 330.699,810.524 332.907,810.524 335.114,810.524 337.322,810.524 339.529,810.524 341.737,810.524 343.944,810.524 346.152,810.524 348.359,810.524 350.567,810.524 352.774,810.524 354.982,810.524 357.189,810.524 359.397,810.524 361.604,810.524 363.811,810.524 366.019,810.524 368.226,455.916 370.434,455.916 372.641,455.916 374.849,455.916 377.056,455.916 379.264,455.916 381.471,455.916 383.679,455.916 385.886,455.916 388.094,455.916 390.301,455.916 392.509,455.916 394.716,455.916 396.924,455.916 399.131,455.916 401.339,455.916 403.546,455.916 405.754,455.916 407.961,455.916 410.169,455.916 412.376,455.916 414.584,455.916 416.791,455.916 418.999,455.916 421.206,455.916 423.414,455.916 425.621,455.916 427.829,455.916 430.036,455.916 432.244,455.916 434.451,455.916 436.659,455.916 438.866,455.916 441.073,455.916 443.281,455.916 445.488,455.916 447.696,455.916 449.903,455.916 452.111,455.916 454.318,455.916 456.526,455.916 458.733,455.916 460.941,455.916 463.148,455.916 465.356,455.916 467.563,455.916 469.771,455.916 471.978,455.916 474.186,455.916 476.393,455.916 478.601,455.916 480.808,455.916 483.016,455.916 485.223,455.916 487.431,455.916 489.638,455.916 491.846,455.916 494.053,455.916 496.261,455.916 498.468,455.916 500.676,455.916 502.883,455.916 505.091,455.916 507.298,455.916 509.506,455.916 511.713,455.916 513.921,455.916 516.128,455.916 518.335,455.916 520.543,455.916 522.75,455.916 524.958,455.916 527.165,455.916 529.373,455.916 531.58,455.916 533.788,455.916 535.995,455.916 538.203,455.916 540.41,455.916 542.618,455.916 544.825,455.916 547.033,455.916 549.24,455.916 551.448,455.916 553.655,455.916 555.863,455.916 558.07,455.916 560.278,455.916 562.485,455.916 564.693,455.916 566.9,455.916 569.108,455.916 571.315,455.916 573.523,455.916 575.73,455.916 577.938,455.916 580.145,455.916 582.353,455.916 584.56,455.916 586.768,455.916 588.975,96.6302 591.182,96.6302 593.39,96.6302 595.597,96.6302 597.805,96.6302 600.012,96.6302 602.22,96.6302 604.427,96.6302 606.635,96.6302 608.842,96.6302 611.05,96.6302 613.257,96.6302 615.465,96.6302 617.672,96.6302 619.88,96.6302 622.087,96.6302 624.295,96.6302 626.502,96.6302 628.71,96.6302 630.917,96.6302 633.125,96.6302 635.332,96.6302 637.54,96.6302 639.747,96.6302 641.955,96.6302 644.162,96.6302 646.37,96.6302 648.577,96.6302 650.785,96.6302 652.992,96.6302 655.2,96.6302 657.407,96.6302 659.615,96.6302 661.822,96.6302 664.03,96.6302 666.237,96.6302 668.444,96.6302 670.652,96.6302 672.859,96.6302 675.067,96.6302 677.274,96.6302 679.482,96.6302 681.689,96.6302 683.897,96.6302 686.104,96.6302 688.312,96.6302 690.519,96.6302 692.727,96.6302 694.934,96.6302 697.142,96.6302 699.349,96.6302 701.557,96.6302 703.764,96.6302 705.972,96.6302 708.179,96.6302 710.387,96.6302 712.594,96.6302 714.802,96.6302 717.009,96.6302 719.217,96.6302 721.424,96.6302 723.632,96.6302 725.839,96.6302 728.047,96.6302 730.254,96.6302 732.462,96.6302 734.669,96.6302 736.877,96.6302 739.084,96.6302 741.292,96.6302 743.499,96.6302 745.706,96.6302 747.914,96.6302 750.121,96.6302 752.329,96.6302 754.536,96.6302 756.744,96.6302 758.951,96.6302 761.159,96.6302 763.366,96.6302 765.574,96.6302 767.781,96.6302 769.989,96.6302 772.196,96.6302 774.404,96.6302 776.611,96.6302 778.819,96.6302 781.026,96.6302 783.234,96.6302 785.441,96.6302 787.649,96.6302 789.856,96.6302 792.064,96.6302 794.271,96.6302 796.479,96.6302 798.686,96.6302 800.894,96.6302 803.101,96.6302 805.309,96.6302 807.516,96.6302 809.724,789.752 811.931,789.752 814.139,789.752 816.346,789.752 818.553,789.752 820.761,789.752 822.968,789.752 825.176,789.752 827.383,789.752 829.591,789.752 831.798,789.752 834.006,789.752 836.213,789.752 838.421,789.752 840.628,789.752 842.836,789.752 845.043,789.752 847.251,789.752 849.458,789.752 851.666,789.752 853.873,789.752 856.081,789.752 858.288,789.752 860.496,789.752 862.703,789.752 864.911,789.752 867.118,789.752 869.326,789.752 871.533,789.752 873.741,789.752 875.948,789.752 878.156,789.752 880.363,789.752 882.571,789.752 884.778,789.752 886.986,789.752 889.193,789.752 891.401,789.752 893.608,789.752 895.815,789.752 898.023,789.752 900.23,789.752 902.438,789.752 904.645,789.752 906.853,789.752 909.06,789.752 911.268,789.752 913.475,789.752 915.683,789.752 917.89,789.752 920.098,789.752 922.305,789.752 924.513,789.752 926.72,789.752 928.928,789.752 931.135,789.752 933.343,789.752 935.55,789.752 937.758,789.752 939.965,789.752 942.173,789.752 944.38,789.752 946.588,789.752 948.795,789.752 951.003,789.752 953.21,789.752 955.418,789.752 957.625,789.752 959.833,789.752 962.04,789.752 964.248,789.752 966.455,789.752 968.663,789.752 970.87,789.752 973.077,789.752 975.285,789.752 977.492,789.752 979.7,789.752 981.907,789.752 984.115,789.752 986.322,789.752 988.53,789.752 990.737,789.752 992.945,789.752 995.152,789.752 997.36,789.752 999.567,789.752 1001.77,789.752 1003.98,789.752 1006.19,789.752 1008.4,789.752 1010.6,789.752 1012.81,789.752 1015.02,789.752 1017.23,789.752 1019.43,789.752 1021.64,789.752 1023.85,789.752 1026.06,789.752 1028.26,789.752 1030.47,86.1857 1032.68,86.1857 1034.89,86.1857 1037.09,86.1857 1039.3,86.1857 1041.51,86.1857 1043.72,86.1857 1045.92,86.1857 1048.13,86.1857 1050.34,86.1857 1052.55,86.1857 1054.75,86.1857 1056.96,86.1857 1059.17,86.1857 1061.38,86.1857 1063.58,86.1857 1065.79,86.1857 1068,86.1857 1070.21,86.1857 1072.41,86.1857 1074.62,86.1857 1076.83,86.1857 1079.04,86.1857 1081.24,86.1857 1083.45,86.1857 1085.66,86.1857 1087.87,86.1857 1090.07,86.1857 1092.28,86.1857 1094.49,86.1857 1096.7,86.1857 1098.9,86.1857 1101.11,86.1857 1103.32,86.1857 1105.53,86.1857 1107.73,86.1857 1109.94,86.1857 1112.15,86.1857 1114.36,86.1857 1116.56,86.1857 1118.77,86.1857 1120.98,86.1857 1123.19,86.1857 1125.39,86.1857 1127.6,86.1857 1129.81,86.1857 1132.02,86.1857 1134.22,86.1857 1136.43,86.1857 1138.64,86.1857 1140.85,86.1857 1143.05,86.1857 1145.26,86.1857 1147.47,86.1857 1149.68,86.1857 1151.88,86.1857 1154.09,86.1857 1156.3,86.1857 1158.51,86.1857 1160.71,86.1857 1162.92,86.1857 1165.13,86.1857 1167.34,86.1857 1169.54,86.1857 1171.75,86.1857 1173.96,86.1857 1176.17,86.1857 1178.37,86.1857 1180.58,86.1857 1182.79,86.1857 1185,86.1857 1187.2,86.1857 1189.41,86.1857 1191.62,86.1857 1193.83,86.1857 1196.03,86.1857 1198.24,86.1857 1200.45,86.1857 1202.66,86.1857 1204.86,86.1857 1207.07,86.1857 1209.28,86.1857 1211.49,86.1857 1213.69,86.1857 1215.9,86.1857 1218.11,86.1857 1220.32,86.1857 1222.52,86.1857 1224.73,86.1857 1226.94,86.1857 1229.15,86.1857 1231.35,86.1857 1233.56,86.1857 1235.77,86.1857 1237.98,86.1857 1240.18,86.1857 1242.39,86.1857 1244.6,86.1857 1246.81,86.1857 1249.01,86.1857 1251.22,662.528 1253.43,662.528 1255.64,662.528 1257.84,662.528 1260.05,662.528 1262.26,662.528 1264.47,662.528 1266.67,662.528 1268.88,662.528 1271.09,662.528 1273.3,662.528 1275.5,662.528 1277.71,662.528 1279.92,662.528 1282.13,662.528 1284.33,662.528 1286.54,662.528 1288.75,662.528 1290.96,662.528 1293.16,662.528 1295.37,662.528 1297.58,662.528 1299.79,662.528 1301.99,662.528 1304.2,662.528 1306.41,662.528 1308.62,662.528 1310.82,662.528 1313.03,662.528 1315.24,662.528 1317.45,662.528 1319.65,662.528 1321.86,662.528 1324.07,662.528 1326.28,662.528 1328.48,662.528 1330.69,662.528 1332.9,662.528 1335.11,662.528 1337.31,662.528 1339.52,662.528 1341.73,662.528 1343.94,662.528 1346.14,662.528 1348.35,662.528 1350.56,662.528 1352.76,662.528 1354.97,662.528 1357.18,662.528 1359.39,662.528 1361.59,662.528 1363.8,662.528 1366.01,662.528 1368.22,662.528 1370.42,662.528 1372.63,662.528 1374.84,662.528 1377.05,662.528 1379.25,662.528 1381.46,662.528 1383.67,662.528 1385.88,662.528 1388.08,662.528 1390.29,662.528 1392.5,662.528 1394.71,662.528 1396.91,662.528 1399.12,662.528 1401.33,662.528 1403.54,662.528 1405.74,662.528 1407.95,662.528 1410.16,662.528 1412.37,662.528 1414.57,662.528 1416.78,662.528 1418.99,662.528 1421.2,662.528 1423.4,662.528 1425.61,662.528 1427.82,662.528 1430.03,662.528 1432.23,662.528 1434.44,662.528 1436.65,662.528 1438.86,662.528 1441.06,662.528 1443.27,662.528 1445.48,662.528 1447.69,662.528 1449.89,662.528 1452.1,662.528 1454.31,662.528 1456.52,662.528 1458.72,662.528 1460.93,662.528 1463.14,662.528 1465.35,662.528 1467.55,662.528 1469.76,662.528 1471.97,1384.24 1474.18,1384.24 1476.38,1384.24 1478.59,1384.24 1480.8,1384.24 1483.01,1384.24 1485.21,1384.24 1487.42,1384.24 1489.63,1384.24 1491.84,1384.24 1494.04,1384.24 1496.25,1384.24 1498.46,1384.24 1500.67,1384.24 1502.87,1384.24 1505.08,1384.24 1507.29,1384.24 1509.5,1384.24 1511.7,1384.24 1513.91,1384.24 1516.12,1384.24 1518.33,1384.24 1520.53,1384.24 1522.74,1384.24 1524.95,1384.24 1527.16,1384.24 1529.36,1384.24 1531.57,1384.24 1533.78,1384.24 1535.99,1384.24 1538.19,1384.24 1540.4,1384.24 1542.61,1384.24 1544.82,1384.24 1547.02,1384.24 1549.23,1384.24 1551.44,1384.24 1553.65,1384.24 1555.85,1384.24 1558.06,1384.24 1560.27,1384.24 1562.48,1384.24 1564.68,1384.24 1566.89,1384.24 1569.1,1384.24 1571.31,1384.24 1573.51,1384.24 1575.72,1384.24 1577.93,1384.24 1580.14,1384.24 1582.34,1384.24 1584.55,1384.24 1586.76,1384.24 1588.97,1384.24 1591.17,1384.24 1593.38,1384.24 1595.59,1384.24 1597.8,1384.24 1600,1384.24 1602.21,1384.24 1604.42,1384.24 1606.63,1384.24 1608.83,1384.24 1611.04,1384.24 1613.25,1384.24 1615.46,1384.24 1617.66,1384.24 1619.87,1384.24 1622.08,1384.24 1624.29,1384.24 1626.49,1384.24 1628.7,1384.24 1630.91,1384.24 1633.12,1384.24 1635.32,1384.24 1637.53,1384.24 1639.74,1384.24 1641.95,1384.24 1644.15,1384.24 1646.36,1384.24 1648.57,1384.24 1650.78,1384.24 1652.98,1384.24 1655.19,1384.24 1657.4,1384.24 1659.61,1384.24 1661.81,1384.24 1664.02,1384.24 1666.23,1384.24 1668.44,1384.24 1670.64,1384.24 1672.85,1384.24 1675.06,1384.24 1677.27,1384.24 1679.47,1384.24 1681.68,1384.24 1683.89,1384.24 1686.1,1384.24 1688.3,1384.24 1690.51,1384.24 1692.72,1136.47 1694.93,1136.47 1697.13,1136.47 1699.34,1136.47 1701.55,1136.47 1703.76,1136.47 1705.96,1136.47 1708.17,1136.47 1710.38,1136.47 1712.59,1136.47 1714.79,1136.47 1717,1136.47 1719.21,1136.47 1721.42,1136.47 1723.62,1136.47 1725.83,1136.47 1728.04,1136.47 1730.25,1136.47 1732.45,1136.47 1734.66,1136.47 1736.87,1136.47 1739.07,1136.47 1741.28,1136.47 1743.49,1136.47 1745.7,1136.47 1747.9,1136.47 1750.11,1136.47 1752.32,1136.47 1754.53,1136.47 1756.73,1136.47 1758.94,1136.47 1761.15,1136.47 1763.36,1136.47 1765.56,1136.47 1767.77,1136.47 1769.98,1136.47 1772.19,1136.47 1774.39,1136.47 1776.6,1136.47 1778.81,1136.47 1781.02,1136.47 1783.22,1136.47 1785.43,1136.47 1787.64,1136.47 1789.85,1136.47 1792.05,1136.47 1794.26,1136.47 1796.47,1136.47 1798.68,1136.47 1800.88,1136.47 1803.09,1136.47 1805.3,1136.47 1807.51,1136.47 1809.71,1136.47 1811.92,1136.47 1814.13,1136.47 1816.34,1136.47 1818.54,1136.47 1820.75,1136.47 1822.96,1136.47 1825.17,1136.47 1827.37,1136.47 1829.58,1136.47 1831.79,1136.47 1834,1136.47 1836.2,1136.47 1838.41,1136.47 1840.62,1136.47 1842.83,1136.47 1845.03,1136.47 1847.24,1136.47 1849.45,1136.47 1851.66,1136.47 1853.86,1136.47 1856.07,1136.47 1858.28,1136.47 1860.49,1136.47 1862.69,1136.47 1864.9,1136.47 1867.11,1136.47 1869.32,1136.47 1871.52,1136.47 1873.73,1136.47 1875.94,1136.47 1878.15,1136.47 1880.35,1136.47 1882.56,1136.47 1884.77,1136.47 1886.98,1136.47 1889.18,1136.47 1891.39,1136.47 1893.6,1136.47 1895.81,1136.47 1898.01,1136.47 1900.22,1136.47 1902.43,1136.47 1904.64,1136.47 1906.84,1136.47 1909.05,1136.47 1911.26,1136.47 1913.47,652.52 1915.67,652.52 1917.88,652.52 1920.09,652.52 1922.3,652.52 1924.5,652.52 1926.71,652.52 1928.92,652.52 1931.13,652.52 1933.33,652.52 1935.54,652.52 1937.75,652.52 1939.96,652.52 1942.16,652.52 1944.37,652.52 1946.58,652.52 1948.79,652.52 1950.99,652.52 1953.2,652.52 1955.41,652.52 1957.62,652.52 1959.82,652.52 1962.03,652.52 1964.24,652.52 1966.45,652.52 1968.65,652.52 1970.86,652.52 1973.07,652.52 1975.28,652.52 1977.48,652.52 1979.69,652.52 1981.9,652.52 1984.11,652.52 1986.31,652.52 1988.52,652.52 1990.73,652.52 1992.94,652.52 1995.14,652.52 1997.35,652.52 1999.56,652.52 2001.77,652.52 2003.97,652.52 2006.18,652.52 2008.39,652.52 2010.6,652.52 2012.8,652.52 2015.01,652.52 2017.22,652.52 2019.43,652.52 2021.63,652.52 2023.84,652.52 2026.05,652.52 2028.26,652.52 2030.46,652.52 2032.67,652.52 2034.88,652.52 2037.09,652.52 2039.29,652.52 2041.5,652.52 2043.71,652.52 2045.92,652.52 2048.12,652.52 2050.33,652.52 2052.54,652.52 2054.75,652.52 2056.95,652.52 2059.16,652.52 2061.37,652.52 2063.58,652.52 2065.78,652.52 2067.99,652.52 2070.2,652.52 2072.41,652.52 2074.61,652.52 2076.82,652.52 2079.03,652.52 2081.24,652.52 2083.44,652.52 2085.65,652.52 2087.86,652.52 2090.07,652.52 2092.27,652.52 2094.48,652.52 2096.69,652.52 2098.9,652.52 2101.1,652.52 2103.31,652.52 2105.52,652.52 2107.73,652.52 2109.93,652.52 2112.14,652.52 2114.35,652.52 2116.55,652.52 2118.76,652.52 2120.97,652.52 2123.18,652.52 2125.38,652.52 2127.59,652.52 2129.8,652.52 2132.01,652.52 2134.21,638.147 2136.42,638.147 2138.63,638.147 2140.84,638.147 2143.04,638.147 2145.25,638.147 2147.46,638.147 2149.67,638.147 2151.87,638.147 2154.08,638.147 2156.29,638.147 2158.5,638.147 2160.7,638.147 2162.91,638.147 2165.12,638.147 2167.33,638.147 2169.53,638.147 2171.74,638.147 2173.95,638.147 2176.16,638.147 2178.36,638.147 2180.57,638.147 2182.78,638.147 2184.99,638.147 2187.19,638.147 2189.4,638.147 2191.61,638.147 2193.82,638.147 2196.02,638.147 2198.23,638.147 2200.44,638.147 2202.65,638.147 2204.85,638.147 2207.06,638.147 2209.27,638.147 2211.48,638.147 2213.68,638.147 2215.89,638.147 2218.1,638.147 2220.31,638.147 2222.51,638.147 2224.72,638.147 2226.93,638.147 2229.14,638.147 2231.34,638.147 2233.55,638.147 2235.76,638.147 2237.97,638.147 2240.17,638.147 2242.38,638.147 2244.59,638.147 2246.8,638.147 2249,638.147 2251.21,638.147 2253.42,638.147 2255.63,638.147 2257.83,638.147 2260.04,638.147 2262.25,638.147 2264.46,638.147 2266.66,638.147 2268.87,638.147 2271.08,638.147 2273.29,638.147 2275.49,638.147 2277.7,638.147 2279.91,638.147 2282.12,638.147 2284.32,638.147 2286.53,638.147 2288.74,638.147 2290.95,638.147 2293.15,638.147 2295.36,638.147 2297.57,638.147 2299.78,638.147 2301.98,638.147 2304.19,638.147 2306.4,638.147 2308.61,638.147 2310.81,638.147 2313.02,638.147 2315.23,638.147 2317.44,638.147 2319.64,638.147 2321.85,638.147 2324.06,638.147 2326.27,638.147 2328.47,638.147 2330.68,638.147 2332.89,638.147 2335.1,638.147 2337.3,638.147 2339.51,638.147 2341.72,638.147 2343.93,638.147 2346.13,638.147 2348.34,638.147 2350.55,638.147 2352.76,638.147 "/>
<path clip-path="url(#clip470)" d="M2033.58 248.629 L2279.25 248.629 L2279.25 93.1086 L2033.58 93.1086  Z" fill="#ffffff" fill-rule="evenodd" fill-opacity="1"/>
<polyline clip-path="url(#clip470)" style="stroke:#000000; stroke-linecap:round; stroke-linejoin:round; stroke-width:4; stroke-opacity:1; fill:none" points="2033.58,248.629 2279.25,248.629 2279.25,93.1086 2033.58,93.1086 2033.58,248.629 "/>
<polyline clip-path="url(#clip470)" style="stroke:#009af9; stroke-linecap:round; stroke-linejoin:round; stroke-width:4; stroke-opacity:1; fill:none" points="2058.08,144.949 2205.1,144.949 "/>
<path clip-path="url(#clip470)" d="M2254.26 136.303 L2244.88 148.919 L2254.74 162.229 L2249.72 162.229 L2242.17 152.043 L2234.63 162.229 L2229.6 162.229 L2239.67 148.664 L2230.46 136.303 L2235.48 136.303 L2242.36 145.539 L2249.23 136.303 L2254.26 136.303 Z" fill="#000000" fill-rule="nonzero" fill-opacity="1" /><polyline clip-path="url(#clip470)" style="stroke:#e26f46; stroke-linecap:round; stroke-linejoin:round; stroke-width:4; stroke-opacity:1; fill:none" points="2058.08,196.789 2205.1,196.789 "/>
<path clip-path="url(#clip470)" d="M2246.11 178.05 L2246.11 181.592 L2242.04 181.592 Q2239.74 181.592 2238.84 182.518 Q2237.96 183.444 2237.96 185.851 L2237.96 188.143 L2244.98 188.143 L2244.98 191.453 L2237.96 191.453 L2237.96 214.069 L2233.68 214.069 L2233.68 191.453 L2229.6 191.453 L2229.6 188.143 L2233.68 188.143 L2233.68 186.337 Q2233.68 182.009 2235.69 180.041 Q2237.71 178.05 2242.08 178.05 L2246.11 178.05 Z" fill="#000000" fill-rule="nonzero" fill-opacity="1" /></svg>
