<?xml version="1.0" encoding="utf-8"?>
<svg xmlns="http://www.w3.org/2000/svg" xmlns:xlink="http://www.w3.org/1999/xlink" width="600" height="400" viewBox="0 0 2400 1600">
<defs>
  <clipPath id="clip850">
    <rect x="0" y="0" width="2400" height="1600"/>
  </clipPath>
</defs>
<path clip-path="url(#clip850)" d="M0 1600 L2400 1600 L2400 0 L0 0  Z" fill="#ffffff" fill-rule="evenodd" fill-opacity="1"/>
<defs>
  <clipPath id="clip851">
    <rect x="147" y="47" width="2206" height="1377"/>
  </clipPath>
</defs>
<path clip-path="url(#clip850)" d="M147.478 1423.18 L2352.76 1423.18 L2352.76 47.2441 L147.478 47.2441  Z" fill="#ffffff" fill-rule="evenodd" fill-opacity="1"/>
<polyline clip-path="url(#clip851)" style="stroke:#000000; stroke-linecap:round; stroke-linejoin:round; stroke-width:2; stroke-opacity:0.1; fill:none" points="147.478,1423.18 147.478,47.2441 "/>
<polyline clip-path="url(#clip851)" style="stroke:#000000; stroke-linecap:round; stroke-linejoin:round; stroke-width:2; stroke-opacity:0.1; fill:none" points="588.534,1423.18 588.534,47.2441 "/>
<polyline clip-path="url(#clip851)" style="stroke:#000000; stroke-linecap:round; stroke-linejoin:round; stroke-width:2; stroke-opacity:0.1; fill:none" points="1029.59,1423.18 1029.59,47.2441 "/>
<polyline clip-path="url(#clip851)" style="stroke:#000000; stroke-linecap:round; stroke-linejoin:round; stroke-width:2; stroke-opacity:0.1; fill:none" points="1470.64,1423.18 1470.64,47.2441 "/>
<polyline clip-path="url(#clip851)" style="stroke:#000000; stroke-linecap:round; stroke-linejoin:round; stroke-width:2; stroke-opacity:0.1; fill:none" points="1911.7,1423.18 1911.7,47.2441 "/>
<polyline clip-path="url(#clip851)" style="stroke:#000000; stroke-linecap:round; stroke-linejoin:round; stroke-width:2; stroke-opacity:0.1; fill:none" points="2352.76,1423.18 2352.76,47.2441 "/>
<polyline clip-path="url(#clip851)" style="stroke:#000000; stroke-linecap:round; stroke-linejoin:round; stroke-width:2; stroke-opacity:0.1; fill:none" points="147.478,1354.26 2352.76,1354.26 "/>
<polyline clip-path="url(#clip851)" style="stroke:#000000; stroke-linecap:round; stroke-linejoin:round; stroke-width:2; stroke-opacity:0.1; fill:none" points="147.478,967.943 2352.76,967.943 "/>
<polyline clip-path="url(#clip851)" style="stroke:#000000; stroke-linecap:round; stroke-linejoin:round; stroke-width:2; stroke-opacity:0.1; fill:none" points="147.478,581.628 2352.76,581.628 "/>
<polyline clip-path="url(#clip851)" style="stroke:#000000; stroke-linecap:round; stroke-linejoin:round; stroke-width:2; stroke-opacity:0.1; fill:none" points="147.478,195.312 2352.76,195.312 "/>
<polyline clip-path="url(#clip850)" style="stroke:#000000; stroke-linecap:round; stroke-linejoin:round; stroke-width:4; stroke-opacity:1; fill:none" points="147.478,1423.18 2352.76,1423.18 "/>
<polyline clip-path="url(#clip850)" style="stroke:#000000; stroke-linecap:round; stroke-linejoin:round; stroke-width:4; stroke-opacity:1; fill:none" points="147.478,1423.18 147.478,1404.28 "/>
<polyline clip-path="url(#clip850)" style="stroke:#000000; stroke-linecap:round; stroke-linejoin:round; stroke-width:4; stroke-opacity:1; fill:none" points="588.534,1423.18 588.534,1404.28 "/>
<polyline clip-path="url(#clip850)" style="stroke:#000000; stroke-linecap:round; stroke-linejoin:round; stroke-width:4; stroke-opacity:1; fill:none" points="1029.59,1423.18 1029.59,1404.28 "/>
<polyline clip-path="url(#clip850)" style="stroke:#000000; stroke-linecap:round; stroke-linejoin:round; stroke-width:4; stroke-opacity:1; fill:none" points="1470.64,1423.18 1470.64,1404.28 "/>
<polyline clip-path="url(#clip850)" style="stroke:#000000; stroke-linecap:round; stroke-linejoin:round; stroke-width:4; stroke-opacity:1; fill:none" points="1911.7,1423.18 1911.7,1404.28 "/>
<polyline clip-path="url(#clip850)" style="stroke:#000000; stroke-linecap:round; stroke-linejoin:round; stroke-width:4; stroke-opacity:1; fill:none" points="2352.76,1423.18 2352.76,1404.28 "/>
<path clip-path="url(#clip850)" d="M147.478 1454.1 Q143.867 1454.1 142.038 1457.66 Q140.233 1461.2 140.233 1468.33 Q140.233 1475.44 142.038 1479.01 Q143.867 1482.55 147.478 1482.55 Q151.112 1482.55 152.918 1479.01 Q154.746 1475.44 154.746 1468.33 Q154.746 1461.2 152.918 1457.66 Q151.112 1454.1 147.478 1454.1 M147.478 1450.39 Q153.288 1450.39 156.344 1455 Q159.422 1459.58 159.422 1468.33 Q159.422 1477.06 156.344 1481.67 Q153.288 1486.25 147.478 1486.25 Q141.668 1486.25 138.589 1481.67 Q135.534 1477.06 135.534 1468.33 Q135.534 1459.58 138.589 1455 Q141.668 1450.39 147.478 1450.39 Z" fill="#000000" fill-rule="nonzero" fill-opacity="1" /><path clip-path="url(#clip850)" d="M583.186 1481.64 L599.506 1481.64 L599.506 1485.58 L577.561 1485.58 L577.561 1481.64 Q580.223 1478.89 584.807 1474.26 Q589.413 1469.61 590.594 1468.27 Q592.839 1465.74 593.719 1464.01 Q594.621 1462.25 594.621 1460.56 Q594.621 1457.8 592.677 1456.07 Q590.756 1454.33 587.654 1454.33 Q585.455 1454.33 583.001 1455.09 Q580.571 1455.86 577.793 1457.41 L577.793 1452.69 Q580.617 1451.55 583.071 1450.97 Q585.524 1450.39 587.561 1450.39 Q592.932 1450.39 596.126 1453.08 Q599.32 1455.77 599.32 1460.26 Q599.32 1462.39 598.51 1464.31 Q597.723 1466.2 595.617 1468.8 Q595.038 1469.47 591.936 1472.69 Q588.834 1475.88 583.186 1481.64 Z" fill="#000000" fill-rule="nonzero" fill-opacity="1" /><path clip-path="url(#clip850)" d="M1032.6 1455.09 L1020.79 1473.54 L1032.6 1473.54 L1032.6 1455.09 M1031.37 1451.02 L1037.25 1451.02 L1037.25 1473.54 L1042.18 1473.54 L1042.18 1477.43 L1037.25 1477.43 L1037.25 1485.58 L1032.6 1485.58 L1032.6 1477.43 L1017 1477.43 L1017 1472.92 L1031.37 1451.02 Z" fill="#000000" fill-rule="nonzero" fill-opacity="1" /><path clip-path="url(#clip850)" d="M1471.05 1466.44 Q1467.9 1466.44 1466.05 1468.59 Q1464.22 1470.74 1464.22 1474.49 Q1464.22 1478.22 1466.05 1480.39 Q1467.9 1482.55 1471.05 1482.55 Q1474.2 1482.55 1476.03 1480.39 Q1477.88 1478.22 1477.88 1474.49 Q1477.88 1470.74 1476.03 1468.59 Q1474.2 1466.44 1471.05 1466.44 M1480.33 1451.78 L1480.33 1456.04 Q1478.57 1455.21 1476.77 1454.77 Q1474.98 1454.33 1473.23 1454.33 Q1468.6 1454.33 1466.14 1457.45 Q1463.71 1460.58 1463.36 1466.9 Q1464.73 1464.89 1466.79 1463.82 Q1468.85 1462.73 1471.33 1462.73 Q1476.54 1462.73 1479.55 1465.9 Q1482.58 1469.05 1482.58 1474.49 Q1482.58 1479.82 1479.43 1483.03 Q1476.28 1486.25 1471.05 1486.25 Q1465.05 1486.25 1461.88 1481.67 Q1458.71 1477.06 1458.71 1468.33 Q1458.71 1460.14 1462.6 1455.28 Q1466.49 1450.39 1473.04 1450.39 Q1474.8 1450.39 1476.58 1450.74 Q1478.39 1451.09 1480.33 1451.78 Z" fill="#000000" fill-rule="nonzero" fill-opacity="1" /><path clip-path="url(#clip850)" d="M1911.7 1469.17 Q1908.37 1469.17 1906.45 1470.95 Q1904.55 1472.73 1904.55 1475.86 Q1904.55 1478.98 1906.45 1480.77 Q1908.37 1482.55 1911.7 1482.55 Q1915.03 1482.55 1916.95 1480.77 Q1918.88 1478.96 1918.88 1475.86 Q1918.88 1472.73 1916.95 1470.95 Q1915.06 1469.17 1911.7 1469.17 M1907.02 1467.18 Q1904.02 1466.44 1902.33 1464.38 Q1900.66 1462.32 1900.66 1459.35 Q1900.66 1455.21 1903.6 1452.8 Q1906.56 1450.39 1911.7 1450.39 Q1916.86 1450.39 1919.8 1452.8 Q1922.74 1455.21 1922.74 1459.35 Q1922.74 1462.32 1921.05 1464.38 Q1919.39 1466.44 1916.4 1467.18 Q1919.78 1467.96 1921.65 1470.26 Q1923.55 1472.55 1923.55 1475.86 Q1923.55 1480.88 1920.47 1483.57 Q1917.42 1486.25 1911.7 1486.25 Q1905.98 1486.25 1902.9 1483.57 Q1899.85 1480.88 1899.85 1475.86 Q1899.85 1472.55 1901.75 1470.26 Q1903.64 1467.96 1907.02 1467.18 M1905.31 1459.79 Q1905.31 1462.48 1906.98 1463.98 Q1908.67 1465.49 1911.7 1465.49 Q1914.71 1465.49 1916.4 1463.98 Q1918.11 1462.48 1918.11 1459.79 Q1918.11 1457.11 1916.4 1455.6 Q1914.71 1454.1 1911.7 1454.1 Q1908.67 1454.1 1906.98 1455.6 Q1905.31 1457.11 1905.31 1459.79 Z" fill="#000000" fill-rule="nonzero" fill-opacity="1" /><path clip-path="url(#clip850)" d="M2327.44 1481.64 L2335.08 1481.64 L2335.08 1455.28 L2326.77 1456.95 L2326.77 1452.69 L2335.04 1451.02 L2339.71 1451.02 L2339.71 1481.64 L2347.35 1481.64 L2347.35 1485.58 L2327.44 1485.58 L2327.44 1481.64 Z" fill="#000000" fill-rule="nonzero" fill-opacity="1" /><path clip-path="url(#clip850)" d="M2366.8 1454.1 Q2363.18 1454.1 2361.36 1457.66 Q2359.55 1461.2 2359.55 1468.33 Q2359.55 1475.44 2361.36 1479.01 Q2363.18 1482.55 2366.8 1482.55 Q2370.43 1482.55 2372.23 1479.01 Q2374.06 1475.44 2374.06 1468.33 Q2374.06 1461.2 2372.23 1457.66 Q2370.43 1454.1 2366.8 1454.1 M2366.8 1450.39 Q2372.61 1450.39 2375.66 1455 Q2378.74 1459.58 2378.74 1468.33 Q2378.74 1477.06 2375.66 1481.67 Q2372.61 1486.25 2366.8 1486.25 Q2360.99 1486.25 2357.91 1481.67 Q2354.85 1477.06 2354.85 1468.33 Q2354.85 1459.58 2357.91 1455 Q2360.99 1450.39 2366.8 1450.39 Z" fill="#000000" fill-rule="nonzero" fill-opacity="1" /><path clip-path="url(#clip850)" d="M1249.18 1522.27 L1249.18 1532.4 L1261.24 1532.4 L1261.24 1536.95 L1249.18 1536.95 L1249.18 1556.3 Q1249.18 1560.66 1250.36 1561.9 Q1251.57 1563.14 1255.23 1563.14 L1261.24 1563.14 L1261.24 1568.04 L1255.23 1568.04 Q1248.45 1568.04 1245.87 1565.53 Q1243.29 1562.98 1243.29 1556.3 L1243.29 1536.95 L1238.99 1536.95 L1238.99 1532.4 L1243.29 1532.4 L1243.29 1522.27 L1249.18 1522.27 Z" fill="#000000" fill-rule="nonzero" fill-opacity="1" /><polyline clip-path="url(#clip850)" style="stroke:#000000; stroke-linecap:round; stroke-linejoin:round; stroke-width:4; stroke-opacity:1; fill:none" points="147.478,1423.18 147.478,47.2441 "/>
<polyline clip-path="url(#clip850)" style="stroke:#000000; stroke-linecap:round; stroke-linejoin:round; stroke-width:4; stroke-opacity:1; fill:none" points="147.478,1354.26 166.376,1354.26 "/>
<polyline clip-path="url(#clip850)" style="stroke:#000000; stroke-linecap:round; stroke-linejoin:round; stroke-width:4; stroke-opacity:1; fill:none" points="147.478,967.943 166.376,967.943 "/>
<polyline clip-path="url(#clip850)" style="stroke:#000000; stroke-linecap:round; stroke-linejoin:round; stroke-width:4; stroke-opacity:1; fill:none" points="147.478,581.628 166.376,581.628 "/>
<polyline clip-path="url(#clip850)" style="stroke:#000000; stroke-linecap:round; stroke-linejoin:round; stroke-width:4; stroke-opacity:1; fill:none" points="147.478,195.312 166.376,195.312 "/>
<path clip-path="url(#clip850)" d="M51.3625 1354.71 L81.0383 1354.71 L81.0383 1358.65 L51.3625 1358.65 L51.3625 1354.71 Z" fill="#000000" fill-rule="nonzero" fill-opacity="1" /><path clip-path="url(#clip850)" d="M95.1586 1367.6 L111.478 1367.6 L111.478 1371.54 L89.5336 1371.54 L89.5336 1367.6 Q92.1956 1364.85 96.7789 1360.22 Q101.385 1355.57 102.566 1354.22 Q104.811 1351.7 105.691 1349.96 Q106.594 1348.21 106.594 1346.52 Q106.594 1343.76 104.649 1342.02 Q102.728 1340.29 99.6261 1340.29 Q97.4271 1340.29 94.9734 1341.05 Q92.5428 1341.82 89.7651 1343.37 L89.7651 1338.65 Q92.5891 1337.51 95.0428 1336.93 Q97.4965 1336.35 99.5335 1336.35 Q104.904 1336.35 108.098 1339.04 Q111.293 1341.72 111.293 1346.21 Q111.293 1348.34 110.483 1350.27 Q109.696 1352.16 107.589 1354.76 Q107.01 1355.43 103.909 1358.65 Q100.807 1361.84 95.1586 1367.6 Z" fill="#000000" fill-rule="nonzero" fill-opacity="1" /><path clip-path="url(#clip850)" d="M50.9921 968.395 L80.6679 968.395 L80.6679 972.33 L50.9921 972.33 L50.9921 968.395 Z" fill="#000000" fill-rule="nonzero" fill-opacity="1" /><path clip-path="url(#clip850)" d="M91.5706 981.288 L99.2095 981.288 L99.2095 954.922 L90.8993 956.589 L90.8993 952.33 L99.1632 950.663 L103.839 950.663 L103.839 981.288 L111.478 981.288 L111.478 985.223 L91.5706 985.223 L91.5706 981.288 Z" fill="#000000" fill-rule="nonzero" fill-opacity="1" /><path clip-path="url(#clip850)" d="M99.5335 567.426 Q95.9224 567.426 94.0937 570.991 Q92.2882 574.533 92.2882 581.662 Q92.2882 588.769 94.0937 592.334 Q95.9224 595.875 99.5335 595.875 Q103.168 595.875 104.973 592.334 Q106.802 588.769 106.802 581.662 Q106.802 574.533 104.973 570.991 Q103.168 567.426 99.5335 567.426 M99.5335 563.723 Q105.344 563.723 108.399 568.329 Q111.478 572.913 111.478 581.662 Q111.478 590.389 108.399 594.996 Q105.344 599.579 99.5335 599.579 Q93.7234 599.579 90.6447 594.996 Q87.5892 590.389 87.5892 581.662 Q87.5892 572.913 90.6447 568.329 Q93.7234 563.723 99.5335 563.723 Z" fill="#000000" fill-rule="nonzero" fill-opacity="1" /><path clip-path="url(#clip850)" d="M91.5706 208.657 L99.2095 208.657 L99.2095 182.292 L90.8993 183.958 L90.8993 179.699 L99.1632 178.032 L103.839 178.032 L103.839 208.657 L111.478 208.657 L111.478 212.592 L91.5706 212.592 L91.5706 208.657 Z" fill="#000000" fill-rule="nonzero" fill-opacity="1" /><polyline clip-path="url(#clip851)" style="stroke:#009af9; stroke-linecap:round; stroke-linejoin:round; stroke-width:4; stroke-opacity:1; fill:none" points="147.478,581.628 149.685,592.269 151.893,602.769 154.1,613.129 156.308,623.353 158.515,633.441 160.723,643.395 162.93,653.217 165.138,662.909 167.345,672.472 169.553,681.909 171.76,691.22 173.968,700.408 176.175,709.474 178.383,718.42 180.59,727.248 182.798,735.958 185.005,744.553 187.213,753.034 189.42,761.403 191.628,769.66 193.835,777.808 196.043,785.848 198.25,793.782 200.458,801.61 202.665,809.335 204.873,816.957 207.08,824.478 209.288,831.899 211.495,839.222 213.702,846.448 215.91,853.578 218.117,860.613 220.325,867.555 222.532,874.406 224.74,881.165 226.947,887.835 229.155,894.416 231.362,900.91 233.57,907.318 235.777,913.641 237.985,919.881 240.192,926.037 242.4,932.112 244.607,938.106 246.815,944.021 249.022,949.857 251.23,955.616 253.437,961.299 255.645,966.906 257.852,972.439 260.06,977.899 262.267,983.286 264.475,988.602 266.682,993.847 268.89,999.023 271.097,1004.13 273.305,1009.17 275.512,1014.14 277.72,1019.05 279.927,1023.89 282.135,1028.67 284.342,1033.38 286.549,1038.03 288.757,1042.62 290.964,1047.15 293.172,1051.62 295.379,1056.03 297.587,1060.38 299.794,1064.68 302.002,1068.91 304.209,1073.1 306.417,1077.22 308.624,1081.29 310.832,1085.31 313.039,1089.27 315.247,1093.18 317.454,1097.04 319.662,1100.85 321.869,1104.6 324.077,1108.31 326.284,1111.97 328.492,1115.58 330.699,1119.14 332.907,1122.66 335.114,1126.12 337.322,1129.55 339.529,1132.92 341.737,1136.25 343.944,1139.54 346.152,1142.79 348.359,1145.99 350.567,1149.15 352.774,1152.26 354.982,1155.34 357.189,1158.37 359.397,1161.37 361.604,1164.32 363.811,1167.24 366.019,1170.12 368.226,1172.23 370.434,1171.71 372.641,1168.7 374.849,1163.52 377.056,1156.41 379.264,1147.66 381.471,1137.48 383.679,1126.13 385.886,1113.79 388.094,1100.69 390.301,1086.99 392.509,1072.87 394.716,1058.49 396.924,1043.97 399.131,1029.45 401.339,1015.04 403.546,1000.83 405.754,986.895 407.961,973.31 410.169,960.123 412.376,947.37 414.584,935.071 416.791,923.233 418.999,911.848 421.206,900.893 423.414,890.33 425.621,880.107 427.829,870.155 430.036,860.394 432.244,850.726 434.451,841.039 436.659,831.208 438.866,821.33 441.073,811.583 443.281,801.966 445.488,792.476 447.696,783.112 449.903,773.872 452.111,764.755 454.318,755.759 456.526,746.881 458.733,738.122 460.941,729.479 463.148,720.95 465.356,712.534 467.563,704.23 469.771,696.036 471.978,687.95 474.186,679.971 476.393,672.098 478.601,664.329 480.808,656.664 483.016,649.1 485.223,641.636 487.431,634.271 489.638,627.004 491.846,619.833 494.053,612.757 496.261,605.776 498.468,598.887 500.676,592.089 502.883,585.382 505.091,578.763 507.298,572.233 509.506,565.789 511.713,559.431 513.921,553.157 516.128,546.966 518.335,540.857 520.543,534.83 522.75,528.882 524.958,523.013 527.165,517.223 529.373,511.508 531.58,505.87 533.788,500.306 535.995,494.817 538.203,489.399 540.41,484.054 542.618,478.779 544.825,473.575 547.033,468.439 549.24,463.371 551.448,458.371 553.655,453.425 555.863,448.494 558.07,443.589 560.278,438.726 562.485,433.921 564.693,429.187 566.9,424.537 569.108,419.981 571.315,415.528 573.523,411.184 575.73,406.956 577.938,402.847 580.145,398.859 582.353,394.994 584.56,391.251 586.768,387.627 588.975,384.118 591.182,380.718 593.39,377.42 595.597,374.216 597.805,371.093 600.012,368.042 602.22,365.047 604.427,362.093 606.635,359.163 608.842,356.242 611.05,353.349 613.257,350.494 615.465,347.677 617.672,344.897 619.88,342.154 622.087,339.448 624.295,336.777 626.502,334.142 628.71,331.542 630.917,328.976 633.125,326.445 635.332,323.947 637.54,321.482 639.747,319.049 641.955,316.649 644.162,314.281 646.37,311.944 648.577,309.638 650.785,307.363 652.992,305.118 655.2,302.902 657.407,300.716 659.615,298.559 661.822,296.431 664.03,294.33 666.237,292.257 668.444,290.212 670.652,288.193 672.859,286.202 675.067,284.237 677.274,282.298 679.482,280.384 681.689,278.496 683.897,276.633 686.104,274.795 688.312,272.981 690.519,271.191 692.727,269.425 694.934,267.683 697.142,265.964 699.349,264.267 701.557,262.593 703.764,260.942 705.972,259.312 708.179,257.704 710.387,256.117 712.594,254.552 714.802,253.007 717.009,251.483 719.217,249.979 721.424,248.495 723.632,247.03 725.839,245.586 728.047,244.16 730.254,242.753 732.462,241.365 734.669,239.996 736.877,238.644 739.084,237.311 741.292,235.995 743.499,234.696 745.706,233.415 747.914,232.151 750.121,230.903 752.329,229.672 754.536,228.457 756.744,227.258 758.951,226.075 761.159,224.908 763.366,223.756 765.574,222.613 767.781,221.415 769.989,220.161 772.196,218.868 774.404,217.551 776.611,216.224 778.819,214.9 781.026,213.591 783.234,212.311 785.441,211.069 787.649,209.875 789.856,208.738 792.064,207.668 794.271,206.67 796.479,205.752 798.686,204.92 800.894,204.177 803.101,203.529 805.309,202.977 807.516,202.525 809.724,202.173 811.931,201.923 814.139,201.772 816.346,201.722 818.553,201.768 820.761,201.909 822.968,202.14 825.176,202.457 827.383,202.854 829.591,203.325 831.798,203.862 834.006,204.458 836.213,205.102 838.421,205.786 840.628,206.498 842.836,207.227 845.043,207.96 847.251,208.685 849.458,209.386 851.666,210.049 853.873,210.658 856.081,211.215 858.288,211.762 860.496,212.302 862.703,212.834 864.911,213.36 867.118,213.878 869.326,214.39 871.533,214.895 873.741,215.393 875.948,215.884 878.156,216.369 880.363,216.848 882.571,217.32 884.778,217.786 886.986,218.246 889.193,218.7 891.401,219.148 893.608,219.589 895.815,220.025 898.023,220.455 900.23,220.88 902.438,221.299 904.645,221.712 906.853,222.12 909.06,222.522 911.268,222.919 913.475,223.311 915.683,223.697 917.89,224.079 920.098,224.455 922.305,224.827 924.513,225.193 926.72,225.555 928.928,225.912 931.135,226.264 933.343,226.611 935.55,226.954 937.758,227.293 939.965,227.627 942.173,227.956 944.38,228.281 946.588,228.602 948.795,228.918 951.003,229.231 953.21,229.539 955.418,229.843 957.625,230.143 959.833,230.439 962.04,230.731 964.248,231.019 966.455,231.303 968.663,231.584 970.87,231.861 973.077,232.134 975.285,232.404 977.492,232.67 979.7,232.932 981.907,233.191 984.115,233.447 986.322,233.699 988.53,233.948 990.737,234.193 992.945,234.435 995.152,234.674 997.36,234.91 999.567,235.143 1001.77,235.373 1003.98,235.599 1006.19,235.823 1008.4,236.044 1010.6,236.261 1012.81,236.476 1015.02,236.688 1017.23,236.897 1019.43,237.269 1021.64,238.16 1023.85,239.538 1026.06,241.355 1028.26,243.564 1030.47,246.12 1032.68,248.983 1034.89,252.112 1037.09,255.47 1039.3,259.02 1041.51,262.728 1043.72,266.564 1045.92,270.496 1048.13,274.498 1050.34,278.543 1052.55,282.609 1054.75,286.674 1056.96,290.717 1059.17,294.723 1061.38,298.675 1063.58,302.559 1065.79,306.366 1068,310.085 1070.21,313.709 1072.41,317.233 1074.62,320.655 1076.83,323.972 1079.04,327.186 1081.24,330.3 1083.45,333.319 1085.66,336.25 1087.87,339.102 1090.07,341.887 1092.28,344.618 1094.49,347.309 1096.7,349.98 1098.9,352.647 1101.11,355.335 1103.32,358.029 1105.53,360.687 1107.73,363.311 1109.94,365.899 1112.15,368.453 1114.36,370.974 1116.56,373.461 1118.77,375.915 1120.98,378.336 1123.19,380.725 1125.39,383.083 1127.6,385.409 1129.81,387.705 1132.02,389.97 1134.22,392.205 1136.43,394.41 1138.64,396.587 1140.85,398.734 1143.05,400.853 1145.26,402.943 1147.47,405.007 1149.68,407.042 1151.88,409.051 1154.09,411.033 1156.3,412.989 1158.51,414.919 1160.71,416.823 1162.92,418.703 1165.13,420.557 1167.34,422.386 1169.54,424.192 1171.75,425.973 1173.96,427.731 1176.17,429.465 1178.37,431.177 1180.58,432.866 1182.79,434.532 1185,436.176 1187.2,437.799 1189.41,439.4 1191.62,440.979 1193.83,442.538 1196.03,444.076 1198.24,445.594 1200.45,447.091 1202.66,448.569 1204.86,450.027 1207.07,451.466 1209.28,452.885 1211.49,454.286 1213.69,455.669 1215.9,457.033 1218.11,458.379 1220.32,459.707 1222.52,461.017 1224.73,462.31 1226.94,463.586 1229.15,464.845 1231.35,466.088 1233.56,467.314 1235.77,468.523 1237.98,469.717 1240.18,470.895 1242.39,472.057 1244.6,473.204 1246.81,475.083 1249.01,478.781 1251.22,484.063 1253.43,490.692 1255.64,498.445 1257.84,507.116 1260.05,516.514 1262.26,526.464 1264.47,536.806 1266.67,547.398 1268.88,558.112 1271.09,568.836 1273.3,579.474 1275.5,589.945 1277.71,600.186 1279.92,610.148 1282.13,619.797 1284.33,629.116 1286.54,638.105 1288.75,646.778 1290.96,655.164 1293.16,663.31 1295.37,671.278 1297.58,679.145 1299.79,687.005 1301.99,694.95 1304.2,702.849 1306.41,710.643 1308.62,718.334 1310.82,725.924 1313.03,733.412 1315.24,740.801 1317.45,748.092 1319.65,755.287 1321.86,762.386 1324.07,769.391 1326.28,776.303 1328.48,783.124 1330.69,789.854 1332.9,796.495 1335.11,803.047 1337.31,809.514 1339.52,815.894 1341.73,822.19 1343.94,828.402 1346.14,834.532 1348.35,840.581 1350.56,846.55 1352.76,852.439 1354.97,858.251 1357.18,863.985 1359.39,869.643 1361.59,875.226 1363.8,880.735 1366.01,886.171 1368.22,891.535 1370.42,896.828 1372.63,902.05 1374.84,907.203 1377.05,912.288 1379.25,917.306 1381.46,922.257 1383.67,927.142 1385.88,931.962 1388.08,936.719 1390.29,941.412 1392.5,946.044 1394.71,950.613 1396.91,955.123 1399.12,959.572 1401.33,963.963 1403.54,968.295 1405.74,972.57 1407.95,976.789 1410.16,980.951 1412.37,985.059 1414.57,989.111 1416.78,993.111 1418.99,997.057 1421.2,1000.95 1423.4,1004.79 1425.61,1008.58 1427.82,1012.32 1430.03,1016.02 1432.23,1019.66 1434.44,1023.25 1436.65,1026.8 1438.86,1030.3 1441.06,1033.75 1443.27,1037.16 1445.48,1040.52 1447.69,1043.84 1449.89,1047.11 1452.1,1050.34 1454.31,1053.44 1456.52,1056.34 1458.72,1059.06 1460.93,1061.6 1463.14,1063.99 1465.35,1066.23 1467.55,1068.35 1469.76,1070.35 1471.97,1072.25 1474.18,1074.05 1476.38,1075.77 1478.59,1077.42 1480.8,1079 1483.01,1080.53 1485.21,1082.01 1487.42,1083.45 1489.63,1084.86 1491.84,1086.24 1494.04,1087.6 1496.25,1088.94 1498.46,1090.28 1500.67,1091.6 1502.87,1092.92 1505.08,1094.23 1507.29,1095.54 1509.5,1096.86 1511.7,1098.17 1513.91,1099.48 1516.12,1100.78 1518.33,1102.09 1520.53,1103.39 1522.74,1104.68 1524.95,1105.96 1527.16,1107.23 1529.36,1108.47 1531.57,1109.69 1533.78,1110.88 1535.99,1112.03 1538.19,1113.17 1540.4,1114.29 1542.61,1115.4 1544.82,1116.49 1547.02,1117.57 1549.23,1118.64 1551.44,1119.69 1553.65,1120.72 1555.85,1121.75 1558.06,1122.76 1560.27,1123.75 1562.48,1124.73 1564.68,1125.7 1566.89,1126.66 1569.1,1127.61 1571.31,1128.54 1573.51,1129.46 1575.72,1130.36 1577.93,1131.26 1580.14,1132.15 1582.34,1133.08 1584.55,1134.08 1586.76,1135.12 1588.97,1136.19 1591.17,1137.3 1593.38,1138.42 1595.59,1139.56 1597.8,1140.7 1600,1141.84 1602.21,1142.96 1604.42,1144.07 1606.63,1145.15 1608.83,1146.2 1611.04,1147.22 1613.25,1148.19 1615.46,1149.12 1617.66,1149.99 1619.87,1150.81 1622.08,1151.57 1624.29,1152.26 1626.49,1152.89 1628.7,1153.44 1630.91,1153.92 1633.12,1154.33 1635.32,1154.65 1637.53,1154.9 1639.74,1155.06 1641.95,1155.14 1644.15,1155.14 1646.36,1155.06 1648.57,1154.89 1650.78,1154.64 1652.98,1154.3 1655.19,1153.88 1657.4,1153.38 1659.61,1152.8 1661.81,1152.15 1664.02,1151.42 1666.23,1150.61 1668.44,1149.74 1670.64,1148.8 1672.85,1147.8 1675.06,1146.74 1677.27,1145.62 1679.47,1144.46 1681.68,1143.25 1683.89,1142 1686.1,1140.72 1688.3,1139.41 1690.51,1138.08 1692.72,1136.73 1694.93,1135.38 1697.13,1134.02 1699.34,1132.68 1701.55,1131.34 1703.76,1130.04 1705.96,1128.76 1708.17,1127.53 1710.38,1126.34 1712.59,1125.22 1714.79,1124.16 1717,1123.14 1719.21,1122.13 1721.42,1121.13 1723.62,1120.14 1725.83,1119.17 1728.04,1118.21 1730.25,1117.26 1732.45,1116.33 1734.66,1115.41 1736.87,1114.5 1739.07,1113.6 1741.28,1112.72 1743.49,1111.84 1745.7,1110.98 1747.9,1110.13 1750.11,1109.29 1752.32,1108.46 1754.53,1107.65 1756.73,1106.84 1758.94,1106.04 1761.15,1105.26 1763.36,1104.48 1765.56,1103.72 1767.77,1102.97 1769.98,1102.22 1772.19,1101.49 1774.39,1100.76 1776.6,1100.06 1778.81,1099.39 1781.02,1098.73 1783.22,1098.1 1785.43,1097.48 1787.64,1096.88 1789.85,1096.3 1792.05,1095.73 1794.26,1095.17 1796.47,1094.63 1798.68,1094.09 1800.88,1093.56 1803.09,1093.03 1805.3,1092.51 1807.51,1092 1809.71,1091.48 1811.92,1090.97 1814.13,1090.46 1816.34,1089.95 1818.54,1089.43 1820.75,1088.91 1822.96,1088.39 1825.17,1087.86 1827.37,1087.33 1829.58,1086.79 1831.79,1086.25 1834,1085.7 1836.2,1085.14 1838.41,1084.57 1840.62,1084 1842.83,1083.41 1845.03,1082.81 1847.24,1082.21 1849.45,1081.59 1851.66,1080.97 1853.86,1080.33 1856.07,1079.69 1858.28,1079.03 1860.49,1078.37 1862.69,1077.69 1864.9,1077.01 1867.11,1076.31 1869.32,1075.61 1871.52,1074.89 1873.73,1074.17 1875.94,1073.44 1878.15,1072.7 1880.35,1071.95 1882.56,1071.2 1884.77,1070.44 1886.98,1069.68 1889.18,1068.91 1891.39,1068.14 1893.6,1067.36 1895.81,1066.58 1898.01,1065.81 1900.22,1065.03 1902.43,1064.25 1904.64,1063.48 1906.84,1062.71 1909.05,1061.94 1911.26,1061.18 1913.47,1060.43 1915.67,1059.69 1917.88,1058.96 1920.09,1058.24 1922.3,1057.53 1924.5,1056.84 1926.71,1056.17 1928.92,1055.51 1931.13,1054.88 1933.33,1054.26 1935.54,1053.65 1937.75,1053.05 1939.96,1052.45 1942.16,1051.87 1944.37,1051.29 1946.58,1050.72 1948.79,1050.15 1950.99,1049.6 1953.2,1049.05 1955.41,1048.51 1957.62,1047.97 1959.82,1047.45 1962.03,1046.93 1964.24,1046.41 1966.45,1045.91 1968.65,1045.41 1970.86,1044.92 1973.07,1044.43 1975.28,1043.95 1977.48,1043.48 1979.69,1043.01 1981.9,1042.55 1984.11,1042.09 1986.31,1041.64 1988.52,1041.2 1990.73,1040.76 1992.94,1040.33 1995.14,1039.91 1997.35,1039.49 1999.56,1039.07 2001.77,1038.67 2003.97,1038.26 2006.18,1037.86 2008.39,1037.47 2010.6,1037.08 2012.8,1036.7 2015.01,1036.32 2017.22,1035.95 2019.43,1035.58 2021.63,1035.22 2023.84,1034.86 2026.05,1034.51 2028.26,1034.16 2030.46,1033.82 2032.67,1033.48 2034.88,1033.15 2037.09,1032.82 2039.29,1032.5 2041.5,1032.18 2043.71,1031.87 2045.92,1031.56 2048.12,1031.25 2050.33,1030.95 2052.54,1030.66 2054.75,1030.36 2056.95,1030.07 2059.16,1029.79 2061.37,1029.51 2063.58,1029.23 2065.78,1028.95 2067.99,1028.68 2070.2,1028.41 2072.41,1028.15 2074.61,1027.89 2076.82,1027.63 2079.03,1027.37 2081.24,1027.12 2083.44,1026.87 2085.65,1026.62 2087.86,1026.38 2090.07,1026.13 2092.27,1025.89 2094.48,1025.66 2096.69,1025.42 2098.9,1025.19 2101.1,1024.96 2103.31,1024.73 2105.52,1024.51 2107.73,1024.28 2109.93,1024.06 2112.14,1023.84 2114.35,1023.62 2116.55,1023.41 2118.76,1023.19 2120.97,1022.98 2123.18,1022.77 2125.38,1022.57 2127.59,1022.36 2129.8,1022.16 2132.01,1021.95 2134.21,1021.75 2136.42,1021.55 2138.63,1021.36 2140.84,1021.16 2143.04,1020.97 2145.25,1020.78 2147.46,1020.59 2149.67,1020.4 2151.87,1020.21 2154.08,1020.03 2156.29,1019.85 2158.5,1019.67 2160.7,1019.49 2162.91,1019.31 2165.12,1019.14 2167.33,1018.97 2169.53,1018.79 2171.74,1018.63 2173.95,1018.46 2176.16,1018.29 2178.36,1018.13 2180.57,1017.97 2182.78,1017.81 2184.99,1017.66 2187.19,1017.5 2189.4,1017.35 2191.61,1017.2 2193.82,1017.06 2196.02,1016.91 2198.23,1016.77 2200.44,1016.63 2202.65,1016.49 2204.85,1016.36 2207.06,1016.22 2209.27,1016.09 2211.48,1015.96 2213.68,1015.83 2215.89,1015.7 2218.1,1015.57 2220.31,1015.45 2222.51,1015.33 2224.72,1015.21 2226.93,1015.09 2229.14,1014.97 2231.34,1014.85 2233.55,1014.74 2235.76,1014.62 2237.97,1014.51 2240.17,1014.4 2242.38,1014.29 2244.59,1014.19 2246.8,1014.08 2249,1013.97 2251.21,1013.87 2253.42,1013.77 2255.63,1013.67 2257.83,1013.57 2260.04,1013.47 2262.25,1013.38 2264.46,1013.28 2266.66,1013.19 2268.87,1013.09 2271.08,1013 2273.29,1012.91 2275.49,1012.82 2277.7,1012.74 2279.91,1012.65 2282.12,1012.56 2284.32,1012.48 2286.53,1012.4 2288.74,1012.32 2290.95,1012.23 2293.15,1012.15 2295.36,1012.08 2297.57,1012 2299.78,1011.92 2301.98,1011.85 2304.19,1011.77 2306.4,1011.7 2308.61,1011.63 2310.81,1011.55 2313.02,1011.48 2315.23,1011.41 2317.44,1011.34 2319.64,1011.28 2321.85,1011.21 2324.06,1011.14 2326.27,1011.08 2328.47,1011.01 2330.68,1010.95 2332.89,1010.89 2335.1,1010.83 2337.3,1010.76 2339.51,1010.7 2341.72,1010.64 2343.93,1010.59 2346.13,1010.53 2348.34,1010.47 2350.55,1010.41 2352.76,1010.36 "/>
<polyline clip-path="url(#clip851)" style="stroke:#e26f46; stroke-linecap:round; stroke-linejoin:round; stroke-width:4; stroke-opacity:1; fill:none" points="147.478,1384.24 149.685,1384.24 151.893,1384.24 154.1,1384.24 156.308,1384.24 158.515,1384.24 160.723,1384.24 162.93,1384.24 165.138,1384.24 167.345,1384.24 169.553,1384.24 171.76,1384.24 173.968,1384.24 176.175,1384.24 178.383,1384.24 180.59,1384.24 182.798,1384.24 185.005,1384.24 187.213,1384.24 189.42,1384.24 191.628,1384.24 193.835,1384.24 196.043,1384.24 198.25,1384.24 200.458,1384.24 202.665,1384.24 204.873,1384.24 207.08,1384.24 209.288,1384.24 211.495,1384.24 213.702,1384.24 215.91,1384.24 218.117,1384.24 220.325,1384.24 222.532,1384.24 224.74,1384.24 226.947,1384.24 229.155,1384.24 231.362,1384.24 233.57,1384.24 235.777,1384.24 237.985,1384.24 240.192,1384.24 242.4,1384.24 244.607,1384.24 246.815,1384.24 249.022,1384.24 251.23,1384.24 253.437,1384.24 255.645,1384.24 257.852,1384.24 260.06,1384.24 262.267,1384.24 264.475,1384.24 266.682,1384.24 268.89,1384.24 271.097,1384.24 273.305,1384.24 275.512,1384.24 277.72,1384.24 279.927,1384.24 282.135,1384.24 284.342,1384.24 286.549,1384.24 288.757,1384.24 290.964,1384.24 293.172,1384.24 295.379,1384.24 297.587,1384.24 299.794,1384.24 302.002,1384.24 304.209,1384.24 306.417,1384.24 308.624,1384.24 310.832,1384.24 313.039,1384.24 315.247,1384.24 317.454,1384.24 319.662,1384.24 321.869,1384.24 324.077,1384.24 326.284,1384.24 328.492,1384.24 330.699,1384.24 332.907,1384.24 335.114,1384.24 337.322,1384.24 339.529,1384.24 341.737,1384.24 343.944,1384.24 346.152,1384.24 348.359,1384.24 350.567,1384.24 352.774,1384.24 354.982,1384.24 357.189,1384.24 359.397,1384.24 361.604,1384.24 363.811,1384.24 366.019,1384.24 368.226,86.1857 370.434,86.1857 372.641,86.1857 374.849,86.1857 377.056,86.1857 379.264,86.1857 381.471,86.1857 383.679,86.1857 385.886,86.1857 388.094,86.1857 390.301,86.1857 392.509,86.1857 394.716,86.1857 396.924,86.1857 399.131,86.1857 401.339,86.1857 403.546,86.1857 405.754,86.1857 407.961,86.1857 410.169,86.1857 412.376,86.1857 414.584,86.1857 416.791,86.1857 418.999,86.1857 421.206,86.1857 423.414,86.1857 425.621,86.1857 427.829,86.1857 430.036,86.1857 432.244,86.1857 434.451,86.1857 436.659,86.1857 438.866,86.1857 441.073,86.1857 443.281,86.1857 445.488,86.1857 447.696,86.1857 449.903,86.1857 452.111,86.1857 454.318,86.1857 456.526,86.1857 458.733,86.1857 460.941,86.1857 463.148,86.1857 465.356,86.1857 467.563,86.1857 469.771,86.1857 471.978,86.1857 474.186,86.1857 476.393,86.1857 478.601,86.1857 480.808,86.1857 483.016,86.1857 485.223,86.1857 487.431,86.1857 489.638,86.1857 491.846,86.1857 494.053,86.1857 496.261,86.1857 498.468,86.1857 500.676,86.1857 502.883,86.1857 505.091,86.1857 507.298,86.1857 509.506,86.1857 511.713,86.1857 513.921,86.1857 516.128,86.1857 518.335,86.1857 520.543,86.1857 522.75,86.1857 524.958,86.1857 527.165,86.1857 529.373,86.1857 531.58,86.1857 533.788,86.1857 535.995,86.1857 538.203,86.1857 540.41,86.1857 542.618,86.1857 544.825,86.1857 547.033,86.1857 549.24,86.1857 551.448,86.1857 553.655,86.1857 555.863,86.1857 558.07,86.1857 560.278,86.1857 562.485,86.1857 564.693,86.1857 566.9,86.1857 569.108,86.1857 571.315,86.1857 573.523,86.1857 575.73,86.1857 577.938,86.1857 580.145,86.1857 582.353,86.1857 584.56,86.1857 586.768,86.1857 588.975,138.021 591.182,138.021 593.39,138.021 595.597,138.021 597.805,138.021 600.012,138.021 602.22,138.021 604.427,138.021 606.635,138.021 608.842,138.021 611.05,138.021 613.257,138.021 615.465,138.021 617.672,138.021 619.88,138.021 622.087,138.021 624.295,138.021 626.502,138.021 628.71,138.021 630.917,138.021 633.125,138.021 635.332,138.021 637.54,138.021 639.747,138.021 641.955,138.021 644.162,138.021 646.37,138.021 648.577,138.021 650.785,138.021 652.992,138.021 655.2,138.021 657.407,138.021 659.615,138.021 661.822,138.021 664.03,138.021 666.237,138.021 668.444,138.021 670.652,138.021 672.859,138.021 675.067,138.021 677.274,138.021 679.482,138.021 681.689,138.021 683.897,138.021 686.104,138.021 688.312,138.021 690.519,138.021 692.727,138.021 694.934,138.021 697.142,138.021 699.349,138.021 701.557,138.021 703.764,138.021 705.972,138.021 708.179,138.021 710.387,138.021 712.594,138.021 714.802,138.021 717.009,138.021 719.217,138.021 721.424,138.021 723.632,138.021 725.839,138.021 728.047,138.021 730.254,138.021 732.462,138.021 734.669,138.021 736.877,138.021 739.084,138.021 741.292,138.021 743.499,138.021 745.706,138.021 747.914,138.021 750.121,138.021 752.329,138.021 754.536,138.021 756.744,138.021 758.951,138.021 761.159,138.021 763.366,138.021 765.574,138.021 767.781,138.021 769.989,138.021 772.196,138.021 774.404,138.021 776.611,138.021 778.819,138.021 781.026,138.021 783.234,138.021 785.441,138.021 787.649,138.021 789.856,138.021 792.064,138.021 794.271,138.021 796.479,138.021 798.686,138.021 800.894,138.021 803.101,138.021 805.309,138.021 807.516,138.021 809.724,252.469 811.931,252.469 814.139,252.469 816.346,252.469 818.553,252.469 820.761,252.469 822.968,252.469 825.176,252.469 827.383,252.469 829.591,252.469 831.798,252.469 834.006,252.469 836.213,252.469 838.421,252.469 840.628,252.469 842.836,252.469 845.043,252.469 847.251,252.469 849.458,252.469 851.666,252.469 853.873,252.469 856.081,252.469 858.288,252.469 860.496,252.469 862.703,252.469 864.911,252.469 867.118,252.469 869.326,252.469 871.533,252.469 873.741,252.469 875.948,252.469 878.156,252.469 880.363,252.469 882.571,252.469 884.778,252.469 886.986,252.469 889.193,252.469 891.401,252.469 893.608,252.469 895.815,252.469 898.023,252.469 900.23,252.469 902.438,252.469 904.645,252.469 906.853,252.469 909.06,252.469 911.268,252.469 913.475,252.469 915.683,252.469 917.89,252.469 920.098,252.469 922.305,252.469 924.513,252.469 926.72,252.469 928.928,252.469 931.135,252.469 933.343,252.469 935.55,252.469 937.758,252.469 939.965,252.469 942.173,252.469 944.38,252.469 946.588,252.469 948.795,252.469 951.003,252.469 953.21,252.469 955.418,252.469 957.625,252.469 959.833,252.469 962.04,252.469 964.248,252.469 966.455,252.469 968.663,252.469 970.87,252.469 973.077,252.469 975.285,252.469 977.492,252.469 979.7,252.469 981.907,252.469 984.115,252.469 986.322,252.469 988.53,252.469 990.737,252.469 992.945,252.469 995.152,252.469 997.36,252.469 999.567,252.469 1001.77,252.469 1003.98,252.469 1006.19,252.469 1008.4,252.469 1010.6,252.469 1012.81,252.469 1015.02,252.469 1017.23,252.469 1019.43,252.469 1021.64,252.469 1023.85,252.469 1026.06,252.469 1028.26,252.469 1030.47,558.552 1032.68,558.552 1034.89,558.552 1037.09,558.552 1039.3,558.552 1041.51,558.552 1043.72,558.552 1045.92,558.552 1048.13,558.552 1050.34,558.552 1052.55,558.552 1054.75,558.552 1056.96,558.552 1059.17,558.552 1061.38,558.552 1063.58,558.552 1065.79,558.552 1068,558.552 1070.21,558.552 1072.41,558.552 1074.62,558.552 1076.83,558.552 1079.04,558.552 1081.24,558.552 1083.45,558.552 1085.66,558.552 1087.87,558.552 1090.07,558.552 1092.28,558.552 1094.49,558.552 1096.7,558.552 1098.9,558.552 1101.11,558.552 1103.32,558.552 1105.53,558.552 1107.73,558.552 1109.94,558.552 1112.15,558.552 1114.36,558.552 1116.56,558.552 1118.77,558.552 1120.98,558.552 1123.19,558.552 1125.39,558.552 1127.6,558.552 1129.81,558.552 1132.02,558.552 1134.22,558.552 1136.43,558.552 1138.64,558.552 1140.85,558.552 1143.05,558.552 1145.26,558.552 1147.47,558.552 1149.68,558.552 1151.88,558.552 1154.09,558.552 1156.3,558.552 1158.51,558.552 1160.71,558.552 1162.92,558.552 1165.13,558.552 1167.34,558.552 1169.54,558.552 1171.75,558.552 1173.96,558.552 1176.17,558.552 1178.37,558.552 1180.58,558.552 1182.79,558.552 1185,558.552 1187.2,558.552 1189.41,558.552 1191.62,558.552 1193.83,558.552 1196.03,558.552 1198.24,558.552 1200.45,558.552 1202.66,558.552 1204.86,558.552 1207.07,558.552 1209.28,558.552 1211.49,558.552 1213.69,558.552 1215.9,558.552 1218.11,558.552 1220.32,558.552 1222.52,558.552 1224.73,558.552 1226.94,558.552 1229.15,558.552 1231.35,558.552 1233.56,558.552 1235.77,558.552 1237.98,558.552 1240.18,558.552 1242.39,558.552 1244.6,558.552 1246.81,558.552 1249.01,558.552 1251.22,1290.75 1253.43,1290.75 1255.64,1290.75 1257.84,1290.75 1260.05,1290.75 1262.26,1290.75 1264.47,1290.75 1266.67,1290.75 1268.88,1290.75 1271.09,1290.75 1273.3,1290.75 1275.5,1290.75 1277.71,1290.75 1279.92,1290.75 1282.13,1290.75 1284.33,1290.75 1286.54,1290.75 1288.75,1290.75 1290.96,1290.75 1293.16,1290.75 1295.37,1290.75 1297.58,1290.75 1299.79,1290.75 1301.99,1290.75 1304.2,1290.75 1306.41,1290.75 1308.62,1290.75 1310.82,1290.75 1313.03,1290.75 1315.24,1290.75 1317.45,1290.75 1319.65,1290.75 1321.86,1290.75 1324.07,1290.75 1326.28,1290.75 1328.48,1290.75 1330.69,1290.75 1332.9,1290.75 1335.11,1290.75 1337.31,1290.75 1339.52,1290.75 1341.73,1290.75 1343.94,1290.75 1346.14,1290.75 1348.35,1290.75 1350.56,1290.75 1352.76,1290.75 1354.97,1290.75 1357.18,1290.75 1359.39,1290.75 1361.59,1290.75 1363.8,1290.75 1366.01,1290.75 1368.22,1290.75 1370.42,1290.75 1372.63,1290.75 1374.84,1290.75 1377.05,1290.75 1379.25,1290.75 1381.46,1290.75 1383.67,1290.75 1385.88,1290.75 1388.08,1290.75 1390.29,1290.75 1392.5,1290.75 1394.71,1290.75 1396.91,1290.75 1399.12,1290.75 1401.33,1290.75 1403.54,1290.75 1405.74,1290.75 1407.95,1290.75 1410.16,1290.75 1412.37,1290.75 1414.57,1290.75 1416.78,1290.75 1418.99,1290.75 1421.2,1290.75 1423.4,1290.75 1425.61,1290.75 1427.82,1290.75 1430.03,1290.75 1432.23,1290.75 1434.44,1290.75 1436.65,1290.75 1438.86,1290.75 1441.06,1290.75 1443.27,1290.75 1445.48,1290.75 1447.69,1290.75 1449.89,1290.75 1452.1,1290.75 1454.31,1290.75 1456.52,1290.75 1458.72,1290.75 1460.93,1290.75 1463.14,1290.75 1465.35,1290.75 1467.55,1290.75 1469.76,1290.75 1471.97,1197.88 1474.18,1197.88 1476.38,1197.88 1478.59,1197.88 1480.8,1197.88 1483.01,1197.88 1485.21,1197.88 1487.42,1197.88 1489.63,1197.88 1491.84,1197.88 1494.04,1197.88 1496.25,1197.88 1498.46,1197.88 1500.67,1197.88 1502.87,1197.88 1505.08,1197.88 1507.29,1197.88 1509.5,1197.88 1511.7,1197.88 1513.91,1197.88 1516.12,1197.88 1518.33,1197.88 1520.53,1197.88 1522.74,1197.88 1524.95,1197.88 1527.16,1197.88 1529.36,1197.88 1531.57,1197.88 1533.78,1197.88 1535.99,1197.88 1538.19,1197.88 1540.4,1197.88 1542.61,1197.88 1544.82,1197.88 1547.02,1197.88 1549.23,1197.88 1551.44,1197.88 1553.65,1197.88 1555.85,1197.88 1558.06,1197.88 1560.27,1197.88 1562.48,1197.88 1564.68,1197.88 1566.89,1197.88 1569.1,1197.88 1571.31,1197.88 1573.51,1197.88 1575.72,1197.88 1577.93,1197.88 1580.14,1197.88 1582.34,1197.88 1584.55,1197.88 1586.76,1197.88 1588.97,1197.88 1591.17,1197.88 1593.38,1197.88 1595.59,1197.88 1597.8,1197.88 1600,1197.88 1602.21,1197.88 1604.42,1197.88 1606.63,1197.88 1608.83,1197.88 1611.04,1197.88 1613.25,1197.88 1615.46,1197.88 1617.66,1197.88 1619.87,1197.88 1622.08,1197.88 1624.29,1197.88 1626.49,1197.88 1628.7,1197.88 1630.91,1197.88 1633.12,1197.88 1635.32,1197.88 1637.53,1197.88 1639.74,1197.88 1641.95,1197.88 1644.15,1197.88 1646.36,1197.88 1648.57,1197.88 1650.78,1197.88 1652.98,1197.88 1655.19,1197.88 1657.4,1197.88 1659.61,1197.88 1661.81,1197.88 1664.02,1197.88 1666.23,1197.88 1668.44,1197.88 1670.64,1197.88 1672.85,1197.88 1675.06,1197.88 1677.27,1197.88 1679.47,1197.88 1681.68,1197.88 1683.89,1197.88 1686.1,1197.88 1688.3,1197.88 1690.51,1197.88 1692.72,1046.82 1694.93,1046.82 1697.13,1046.82 1699.34,1046.82 1701.55,1046.82 1703.76,1046.82 1705.96,1046.82 1708.17,1046.82 1710.38,1046.82 1712.59,1046.82 1714.79,1046.82 1717,1046.82 1719.21,1046.82 1721.42,1046.82 1723.62,1046.82 1725.83,1046.82 1728.04,1046.82 1730.25,1046.82 1732.45,1046.82 1734.66,1046.82 1736.87,1046.82 1739.07,1046.82 1741.28,1046.82 1743.49,1046.82 1745.7,1046.82 1747.9,1046.82 1750.11,1046.82 1752.32,1046.82 1754.53,1046.82 1756.73,1046.82 1758.94,1046.82 1761.15,1046.82 1763.36,1046.82 1765.56,1046.82 1767.77,1046.82 1769.98,1046.82 1772.19,1046.82 1774.39,1046.82 1776.6,1046.82 1778.81,1046.82 1781.02,1046.82 1783.22,1046.82 1785.43,1046.82 1787.64,1046.82 1789.85,1046.82 1792.05,1046.82 1794.26,1046.82 1796.47,1046.82 1798.68,1046.82 1800.88,1046.82 1803.09,1046.82 1805.3,1046.82 1807.51,1046.82 1809.71,1046.82 1811.92,1046.82 1814.13,1046.82 1816.34,1046.82 1818.54,1046.82 1820.75,1046.82 1822.96,1046.82 1825.17,1046.82 1827.37,1046.82 1829.58,1046.82 1831.79,1046.82 1834,1046.82 1836.2,1046.82 1838.41,1046.82 1840.62,1046.82 1842.83,1046.82 1845.03,1046.82 1847.24,1046.82 1849.45,1046.82 1851.66,1046.82 1853.86,1046.82 1856.07,1046.82 1858.28,1046.82 1860.49,1046.82 1862.69,1046.82 1864.9,1046.82 1867.11,1046.82 1869.32,1046.82 1871.52,1046.82 1873.73,1046.82 1875.94,1046.82 1878.15,1046.82 1880.35,1046.82 1882.56,1046.82 1884.77,1046.82 1886.98,1046.82 1889.18,1046.82 1891.39,1046.82 1893.6,1046.82 1895.81,1046.82 1898.01,1046.82 1900.22,1046.82 1902.43,1046.82 1904.64,1046.82 1906.84,1046.82 1909.05,1046.82 1911.26,1046.82 1913.47,1008.24 1915.67,1008.24 1917.88,1008.24 1920.09,1008.24 1922.3,1008.24 1924.5,1008.24 1926.71,1008.24 1928.92,1008.24 1931.13,1008.24 1933.33,1008.24 1935.54,1008.24 1937.75,1008.24 1939.96,1008.24 1942.16,1008.24 1944.37,1008.24 1946.58,1008.24 1948.79,1008.24 1950.99,1008.24 1953.2,1008.24 1955.41,1008.24 1957.62,1008.24 1959.82,1008.24 1962.03,1008.24 1964.24,1008.24 1966.45,1008.24 1968.65,1008.24 1970.86,1008.24 1973.07,1008.24 1975.28,1008.24 1977.48,1008.24 1979.69,1008.24 1981.9,1008.24 1984.11,1008.24 1986.31,1008.24 1988.52,1008.24 1990.73,1008.24 1992.94,1008.24 1995.14,1008.24 1997.35,1008.24 1999.56,1008.24 2001.77,1008.24 2003.97,1008.24 2006.18,1008.24 2008.39,1008.24 2010.6,1008.24 2012.8,1008.24 2015.01,1008.24 2017.22,1008.24 2019.43,1008.24 2021.63,1008.24 2023.84,1008.24 2026.05,1008.24 2028.26,1008.24 2030.46,1008.24 2032.67,1008.24 2034.88,1008.24 2037.09,1008.24 2039.29,1008.24 2041.5,1008.24 2043.71,1008.24 2045.92,1008.24 2048.12,1008.24 2050.33,1008.24 2052.54,1008.24 2054.75,1008.24 2056.95,1008.24 2059.16,1008.24 2061.37,1008.24 2063.58,1008.24 2065.78,1008.24 2067.99,1008.24 2070.2,1008.24 2072.41,1008.24 2074.61,1008.24 2076.82,1008.24 2079.03,1008.24 2081.24,1008.24 2083.44,1008.24 2085.65,1008.24 2087.86,1008.24 2090.07,1008.24 2092.27,1008.24 2094.48,1008.24 2096.69,1008.24 2098.9,1008.24 2101.1,1008.24 2103.31,1008.24 2105.52,1008.24 2107.73,1008.24 2109.93,1008.24 2112.14,1008.24 2114.35,1008.24 2116.55,1008.24 2118.76,1008.24 2120.97,1008.24 2123.18,1008.24 2125.38,1008.24 2127.59,1008.24 2129.8,1008.24 2132.01,1008.24 2134.21,1006.2 2136.42,1006.2 2138.63,1006.2 2140.84,1006.2 2143.04,1006.2 2145.25,1006.2 2147.46,1006.2 2149.67,1006.2 2151.87,1006.2 2154.08,1006.2 2156.29,1006.2 2158.5,1006.2 2160.7,1006.2 2162.91,1006.2 2165.12,1006.2 2167.33,1006.2 2169.53,1006.2 2171.74,1006.2 2173.95,1006.2 2176.16,1006.2 2178.36,1006.2 2180.57,1006.2 2182.78,1006.2 2184.99,1006.2 2187.19,1006.2 2189.4,1006.2 2191.61,1006.2 2193.82,1006.2 2196.02,1006.2 2198.23,1006.2 2200.44,1006.2 2202.65,1006.2 2204.85,1006.2 2207.06,1006.2 2209.27,1006.2 2211.48,1006.2 2213.68,1006.2 2215.89,1006.2 2218.1,1006.2 2220.31,1006.2 2222.51,1006.2 2224.72,1006.2 2226.93,1006.2 2229.14,1006.2 2231.34,1006.2 2233.55,1006.2 2235.76,1006.2 2237.97,1006.2 2240.17,1006.2 2242.38,1006.2 2244.59,1006.2 2246.8,1006.2 2249,1006.2 2251.21,1006.2 2253.42,1006.2 2255.63,1006.2 2257.83,1006.2 2260.04,1006.2 2262.25,1006.2 2264.46,1006.2 2266.66,1006.2 2268.87,1006.2 2271.08,1006.2 2273.29,1006.2 2275.49,1006.2 2277.7,1006.2 2279.91,1006.2 2282.12,1006.2 2284.32,1006.2 2286.53,1006.2 2288.74,1006.2 2290.95,1006.2 2293.15,1006.2 2295.36,1006.2 2297.57,1006.2 2299.78,1006.2 2301.98,1006.2 2304.19,1006.2 2306.4,1006.2 2308.61,1006.2 2310.81,1006.2 2313.02,1006.2 2315.23,1006.2 2317.44,1006.2 2319.64,1006.2 2321.85,1006.2 2324.06,1006.2 2326.27,1006.2 2328.47,1006.2 2330.68,1006.2 2332.89,1006.2 2335.1,1006.2 2337.3,1006.2 2339.51,1006.2 2341.72,1006.2 2343.93,1006.2 2346.13,1006.2 2348.34,1006.2 2350.55,1006.2 2352.76,1006.2 "/>
<path clip-path="url(#clip850)" d="M2033.58 248.629 L2279.25 248.629 L2279.25 93.1086 L2033.58 93.1086  Z" fill="#ffffff" fill-rule="evenodd" fill-opacity="1"/>
<polyline clip-path="url(#clip850)" style="stroke:#000000; stroke-linecap:round; stroke-linejoin:round; stroke-width:4; stroke-opacity:1; fill:none" points="2033.58,248.629 2279.25,248.629 2279.25,93.1086 2033.58,93.1086 2033.58,248.629 "/>
<polyline clip-path="url(#clip850)" style="stroke:#009af9; stroke-linecap:round; stroke-linejoin:round; stroke-width:4; stroke-opacity:1; fill:none" points="2058.08,144.949 2205.1,144.949 "/>
<path clip-path="url(#clip850)" d="M2254.26 136.303 L2244.88 148.919 L2254.74 162.229 L2249.72 162.229 L2242.17 152.043 L2234.63 162.229 L2229.6 162.229 L2239.67 148.664 L2230.46 136.303 L2235.48 136.303 L2242.36 145.539 L2249.23 136.303 L2254.26 136.303 Z" fill="#000000" fill-rule="nonzero" fill-opacity="1" /><polyline clip-path="url(#clip850)" style="stroke:#e26f46; stroke-linecap:round; stroke-linejoin:round; stroke-width:4; stroke-opacity:1; fill:none" points="2058.08,196.789 2205.1,196.789 "/>
<path clip-path="url(#clip850)" d="M2246.11 178.05 L2246.11 181.592 L2242.04 181.592 Q2239.74 181.592 2238.84 182.518 Q2237.96 183.444 2237.96 185.851 L2237.96 188.143 L2244.98 188.143 L2244.98 191.453 L2237.96 191.453 L2237.96 214.069 L2233.68 214.069 L2233.68 191.453 L2229.6 191.453 L2229.6 188.143 L2233.68 188.143 L2233.68 186.337 Q2233.68 182.009 2235.69 180.041 Q2237.71 178.05 2242.08 178.05 L2246.11 178.05 Z" fill="#000000" fill-rule="nonzero" fill-opacity="1" /></svg>
