<?xml version="1.0" encoding="utf-8"?>
<svg xmlns="http://www.w3.org/2000/svg" xmlns:xlink="http://www.w3.org/1999/xlink" width="600" height="400" viewBox="0 0 2400 1600">
<defs>
  <clipPath id="clip800">
    <rect x="0" y="0" width="2400" height="1600"/>
  </clipPath>
</defs>
<path clip-path="url(#clip800)" d="M0 1600 L2400 1600 L2400 0 L0 0  Z" fill="#ffffff" fill-rule="evenodd" fill-opacity="1"/>
<defs>
  <clipPath id="clip801">
    <rect x="192" y="47" width="2161" height="1377"/>
  </clipPath>
</defs>
<path clip-path="url(#clip800)" d="M192.941 1423.18 L2352.76 1423.18 L2352.76 47.2441 L192.941 47.2441  Z" fill="#ffffff" fill-rule="evenodd" fill-opacity="1"/>
<polyline clip-path="url(#clip801)" style="stroke:#000000; stroke-linecap:round; stroke-linejoin:round; stroke-width:2; stroke-opacity:0.1; fill:none" points="192.941,1423.18 192.941,47.2441 "/>
<polyline clip-path="url(#clip801)" style="stroke:#000000; stroke-linecap:round; stroke-linejoin:round; stroke-width:2; stroke-opacity:0.1; fill:none" points="624.904,1423.18 624.904,47.2441 "/>
<polyline clip-path="url(#clip801)" style="stroke:#000000; stroke-linecap:round; stroke-linejoin:round; stroke-width:2; stroke-opacity:0.1; fill:none" points="1056.87,1423.18 1056.87,47.2441 "/>
<polyline clip-path="url(#clip801)" style="stroke:#000000; stroke-linecap:round; stroke-linejoin:round; stroke-width:2; stroke-opacity:0.1; fill:none" points="1488.83,1423.18 1488.83,47.2441 "/>
<polyline clip-path="url(#clip801)" style="stroke:#000000; stroke-linecap:round; stroke-linejoin:round; stroke-width:2; stroke-opacity:0.1; fill:none" points="1920.79,1423.18 1920.79,47.2441 "/>
<polyline clip-path="url(#clip801)" style="stroke:#000000; stroke-linecap:round; stroke-linejoin:round; stroke-width:2; stroke-opacity:0.1; fill:none" points="2352.76,1423.18 2352.76,47.2441 "/>
<polyline clip-path="url(#clip801)" style="stroke:#000000; stroke-linecap:round; stroke-linejoin:round; stroke-width:2; stroke-opacity:0.1; fill:none" points="192.941,1334.73 2352.76,1334.73 "/>
<polyline clip-path="url(#clip801)" style="stroke:#000000; stroke-linecap:round; stroke-linejoin:round; stroke-width:2; stroke-opacity:0.1; fill:none" points="192.941,1061.55 2352.76,1061.55 "/>
<polyline clip-path="url(#clip801)" style="stroke:#000000; stroke-linecap:round; stroke-linejoin:round; stroke-width:2; stroke-opacity:0.1; fill:none" points="192.941,788.375 2352.76,788.375 "/>
<polyline clip-path="url(#clip801)" style="stroke:#000000; stroke-linecap:round; stroke-linejoin:round; stroke-width:2; stroke-opacity:0.1; fill:none" points="192.941,515.199 2352.76,515.199 "/>
<polyline clip-path="url(#clip801)" style="stroke:#000000; stroke-linecap:round; stroke-linejoin:round; stroke-width:2; stroke-opacity:0.1; fill:none" points="192.941,242.024 2352.76,242.024 "/>
<polyline clip-path="url(#clip800)" style="stroke:#000000; stroke-linecap:round; stroke-linejoin:round; stroke-width:4; stroke-opacity:1; fill:none" points="192.941,1423.18 2352.76,1423.18 "/>
<polyline clip-path="url(#clip800)" style="stroke:#000000; stroke-linecap:round; stroke-linejoin:round; stroke-width:4; stroke-opacity:1; fill:none" points="192.941,1423.18 192.941,1404.28 "/>
<polyline clip-path="url(#clip800)" style="stroke:#000000; stroke-linecap:round; stroke-linejoin:round; stroke-width:4; stroke-opacity:1; fill:none" points="624.904,1423.18 624.904,1404.28 "/>
<polyline clip-path="url(#clip800)" style="stroke:#000000; stroke-linecap:round; stroke-linejoin:round; stroke-width:4; stroke-opacity:1; fill:none" points="1056.87,1423.18 1056.87,1404.28 "/>
<polyline clip-path="url(#clip800)" style="stroke:#000000; stroke-linecap:round; stroke-linejoin:round; stroke-width:4; stroke-opacity:1; fill:none" points="1488.83,1423.18 1488.83,1404.28 "/>
<polyline clip-path="url(#clip800)" style="stroke:#000000; stroke-linecap:round; stroke-linejoin:round; stroke-width:4; stroke-opacity:1; fill:none" points="1920.79,1423.18 1920.79,1404.28 "/>
<polyline clip-path="url(#clip800)" style="stroke:#000000; stroke-linecap:round; stroke-linejoin:round; stroke-width:4; stroke-opacity:1; fill:none" points="2352.76,1423.18 2352.76,1404.28 "/>
<path clip-path="url(#clip800)" d="M192.941 1454.1 Q189.33 1454.1 187.501 1457.66 Q185.695 1461.2 185.695 1468.33 Q185.695 1475.44 187.501 1479.01 Q189.33 1482.55 192.941 1482.55 Q196.575 1482.55 198.38 1479.01 Q200.209 1475.44 200.209 1468.33 Q200.209 1461.2 198.38 1457.66 Q196.575 1454.1 192.941 1454.1 M192.941 1450.39 Q198.751 1450.39 201.806 1455 Q204.885 1459.58 204.885 1468.33 Q204.885 1477.06 201.806 1481.67 Q198.751 1486.25 192.941 1486.25 Q187.13 1486.25 184.052 1481.67 Q180.996 1477.06 180.996 1468.33 Q180.996 1459.58 184.052 1455 Q187.13 1450.39 192.941 1450.39 Z" fill="#000000" fill-rule="nonzero" fill-opacity="1" /><path clip-path="url(#clip800)" d="M619.556 1481.64 L635.876 1481.64 L635.876 1485.58 L613.932 1485.58 L613.932 1481.64 Q616.594 1478.89 621.177 1474.26 Q625.783 1469.61 626.964 1468.27 Q629.209 1465.74 630.089 1464.01 Q630.992 1462.25 630.992 1460.56 Q630.992 1457.8 629.047 1456.07 Q627.126 1454.33 624.024 1454.33 Q621.825 1454.33 619.371 1455.09 Q616.941 1455.86 614.163 1457.41 L614.163 1452.69 Q616.987 1451.55 619.441 1450.97 Q621.894 1450.39 623.931 1450.39 Q629.302 1450.39 632.496 1453.08 Q635.691 1455.77 635.691 1460.26 Q635.691 1462.39 634.88 1464.31 Q634.093 1466.2 631.987 1468.8 Q631.408 1469.47 628.306 1472.69 Q625.205 1475.88 619.556 1481.64 Z" fill="#000000" fill-rule="nonzero" fill-opacity="1" /><path clip-path="url(#clip800)" d="M1059.88 1455.09 L1048.07 1473.54 L1059.88 1473.54 L1059.88 1455.09 M1058.65 1451.02 L1064.53 1451.02 L1064.53 1473.54 L1069.46 1473.54 L1069.46 1477.43 L1064.53 1477.43 L1064.53 1485.58 L1059.88 1485.58 L1059.88 1477.43 L1044.27 1477.43 L1044.27 1472.92 L1058.65 1451.02 Z" fill="#000000" fill-rule="nonzero" fill-opacity="1" /><path clip-path="url(#clip800)" d="M1489.23 1466.44 Q1486.09 1466.44 1484.23 1468.59 Q1482.41 1470.74 1482.41 1474.49 Q1482.41 1478.22 1484.23 1480.39 Q1486.09 1482.55 1489.23 1482.55 Q1492.38 1482.55 1494.21 1480.39 Q1496.06 1478.22 1496.06 1474.49 Q1496.06 1470.74 1494.21 1468.59 Q1492.38 1466.44 1489.23 1466.44 M1498.52 1451.78 L1498.52 1456.04 Q1496.76 1455.21 1494.95 1454.77 Q1493.17 1454.33 1491.41 1454.33 Q1486.78 1454.33 1484.33 1457.45 Q1481.9 1460.58 1481.55 1466.9 Q1482.92 1464.89 1484.98 1463.82 Q1487.04 1462.73 1489.51 1462.73 Q1494.72 1462.73 1497.73 1465.9 Q1500.76 1469.05 1500.76 1474.49 Q1500.76 1479.82 1497.61 1483.03 Q1494.47 1486.25 1489.23 1486.25 Q1483.24 1486.25 1480.07 1481.67 Q1476.9 1477.06 1476.9 1468.33 Q1476.9 1460.14 1480.79 1455.28 Q1484.67 1450.39 1491.23 1450.39 Q1492.98 1450.39 1494.77 1450.74 Q1496.57 1451.09 1498.52 1451.78 Z" fill="#000000" fill-rule="nonzero" fill-opacity="1" /><path clip-path="url(#clip800)" d="M1920.79 1469.17 Q1917.46 1469.17 1915.54 1470.95 Q1913.64 1472.73 1913.64 1475.86 Q1913.64 1478.98 1915.54 1480.77 Q1917.46 1482.55 1920.79 1482.55 Q1924.13 1482.55 1926.05 1480.77 Q1927.97 1478.96 1927.97 1475.86 Q1927.97 1472.73 1926.05 1470.95 Q1924.15 1469.17 1920.79 1469.17 M1916.12 1467.18 Q1913.11 1466.44 1911.42 1464.38 Q1909.75 1462.32 1909.75 1459.35 Q1909.75 1455.21 1912.69 1452.8 Q1915.65 1450.39 1920.79 1450.39 Q1925.95 1450.39 1928.89 1452.8 Q1931.83 1455.21 1931.83 1459.35 Q1931.83 1462.32 1930.14 1464.38 Q1928.48 1466.44 1925.49 1467.18 Q1928.87 1467.96 1930.75 1470.26 Q1932.64 1472.55 1932.64 1475.86 Q1932.64 1480.88 1929.57 1483.57 Q1926.51 1486.25 1920.79 1486.25 Q1915.08 1486.25 1912 1483.57 Q1908.94 1480.88 1908.94 1475.86 Q1908.94 1472.55 1910.84 1470.26 Q1912.74 1467.96 1916.12 1467.18 M1914.4 1459.79 Q1914.4 1462.48 1916.07 1463.98 Q1917.76 1465.49 1920.79 1465.49 Q1923.8 1465.49 1925.49 1463.98 Q1927.2 1462.48 1927.2 1459.79 Q1927.2 1457.11 1925.49 1455.6 Q1923.8 1454.1 1920.79 1454.1 Q1917.76 1454.1 1916.07 1455.6 Q1914.4 1457.11 1914.4 1459.79 Z" fill="#000000" fill-rule="nonzero" fill-opacity="1" /><path clip-path="url(#clip800)" d="M2327.44 1481.64 L2335.08 1481.64 L2335.08 1455.28 L2326.77 1456.95 L2326.77 1452.69 L2335.04 1451.02 L2339.71 1451.02 L2339.71 1481.64 L2347.35 1481.64 L2347.35 1485.58 L2327.44 1485.58 L2327.44 1481.64 Z" fill="#000000" fill-rule="nonzero" fill-opacity="1" /><path clip-path="url(#clip800)" d="M2366.8 1454.1 Q2363.18 1454.1 2361.36 1457.66 Q2359.55 1461.2 2359.55 1468.33 Q2359.55 1475.44 2361.36 1479.01 Q2363.18 1482.55 2366.8 1482.55 Q2370.43 1482.55 2372.23 1479.01 Q2374.06 1475.44 2374.06 1468.33 Q2374.06 1461.2 2372.23 1457.66 Q2370.43 1454.1 2366.8 1454.1 M2366.8 1450.39 Q2372.61 1450.39 2375.66 1455 Q2378.74 1459.58 2378.74 1468.33 Q2378.74 1477.06 2375.66 1481.67 Q2372.61 1486.25 2366.8 1486.25 Q2360.99 1486.25 2357.91 1481.67 Q2354.85 1477.06 2354.85 1468.33 Q2354.85 1459.58 2357.91 1455 Q2360.99 1450.39 2366.8 1450.39 Z" fill="#000000" fill-rule="nonzero" fill-opacity="1" /><path clip-path="url(#clip800)" d="M1271.91 1522.27 L1271.91 1532.4 L1283.97 1532.4 L1283.97 1536.95 L1271.91 1536.95 L1271.91 1556.3 Q1271.91 1560.66 1273.09 1561.9 Q1274.3 1563.14 1277.96 1563.14 L1283.97 1563.14 L1283.97 1568.04 L1277.96 1568.04 Q1271.18 1568.04 1268.6 1565.53 Q1266.02 1562.98 1266.02 1556.3 L1266.02 1536.95 L1261.72 1536.95 L1261.72 1532.4 L1266.02 1532.4 L1266.02 1522.27 L1271.91 1522.27 Z" fill="#000000" fill-rule="nonzero" fill-opacity="1" /><polyline clip-path="url(#clip800)" style="stroke:#000000; stroke-linecap:round; stroke-linejoin:round; stroke-width:4; stroke-opacity:1; fill:none" points="192.941,1423.18 192.941,47.2441 "/>
<polyline clip-path="url(#clip800)" style="stroke:#000000; stroke-linecap:round; stroke-linejoin:round; stroke-width:4; stroke-opacity:1; fill:none" points="192.941,1334.73 211.838,1334.73 "/>
<polyline clip-path="url(#clip800)" style="stroke:#000000; stroke-linecap:round; stroke-linejoin:round; stroke-width:4; stroke-opacity:1; fill:none" points="192.941,1061.55 211.838,1061.55 "/>
<polyline clip-path="url(#clip800)" style="stroke:#000000; stroke-linecap:round; stroke-linejoin:round; stroke-width:4; stroke-opacity:1; fill:none" points="192.941,788.375 211.838,788.375 "/>
<polyline clip-path="url(#clip800)" style="stroke:#000000; stroke-linecap:round; stroke-linejoin:round; stroke-width:4; stroke-opacity:1; fill:none" points="192.941,515.199 211.838,515.199 "/>
<polyline clip-path="url(#clip800)" style="stroke:#000000; stroke-linecap:round; stroke-linejoin:round; stroke-width:4; stroke-opacity:1; fill:none" points="192.941,242.024 211.838,242.024 "/>
<path clip-path="url(#clip800)" d="M50.9921 1335.18 L80.6679 1335.18 L80.6679 1339.11 L50.9921 1339.11 L50.9921 1335.18 Z" fill="#000000" fill-rule="nonzero" fill-opacity="1" /><path clip-path="url(#clip800)" d="M100.76 1320.52 Q97.1493 1320.52 95.3206 1324.09 Q93.515 1327.63 93.515 1334.76 Q93.515 1341.87 95.3206 1345.43 Q97.1493 1348.97 100.76 1348.97 Q104.395 1348.97 106.2 1345.43 Q108.029 1341.87 108.029 1334.76 Q108.029 1327.63 106.2 1324.09 Q104.395 1320.52 100.76 1320.52 M100.76 1316.82 Q106.571 1316.82 109.626 1321.43 Q112.705 1326.01 112.705 1334.76 Q112.705 1343.49 109.626 1348.09 Q106.571 1352.68 100.76 1352.68 Q94.9502 1352.68 91.8715 1348.09 Q88.816 1343.49 88.816 1334.76 Q88.816 1326.01 91.8715 1321.43 Q94.9502 1316.82 100.76 1316.82 Z" fill="#000000" fill-rule="nonzero" fill-opacity="1" /><path clip-path="url(#clip800)" d="M120.922 1346.13 L125.807 1346.13 L125.807 1352.01 L120.922 1352.01 L120.922 1346.13 Z" fill="#000000" fill-rule="nonzero" fill-opacity="1" /><path clip-path="url(#clip800)" d="M136.038 1317.45 L154.394 1317.45 L154.394 1321.38 L140.32 1321.38 L140.32 1329.85 Q141.339 1329.51 142.357 1329.34 Q143.376 1329.16 144.394 1329.16 Q150.181 1329.16 153.561 1332.33 Q156.941 1335.5 156.941 1340.92 Q156.941 1346.5 153.468 1349.6 Q149.996 1352.68 143.677 1352.68 Q141.501 1352.68 139.232 1352.31 Q136.987 1351.94 134.58 1351.2 L134.58 1346.5 Q136.663 1347.63 138.885 1348.19 Q141.107 1348.74 143.584 1348.74 Q147.589 1348.74 149.927 1346.64 Q152.265 1344.53 152.265 1340.92 Q152.265 1337.31 149.927 1335.2 Q147.589 1333.09 143.584 1333.09 Q141.709 1333.09 139.834 1333.51 Q137.982 1333.93 136.038 1334.81 L136.038 1317.45 Z" fill="#000000" fill-rule="nonzero" fill-opacity="1" /><path clip-path="url(#clip800)" d="M99.765 1047.35 Q96.1539 1047.35 94.3252 1050.91 Q92.5197 1054.46 92.5197 1061.58 Q92.5197 1068.69 94.3252 1072.26 Q96.1539 1075.8 99.765 1075.8 Q103.399 1075.8 105.205 1072.26 Q107.033 1068.69 107.033 1061.58 Q107.033 1054.46 105.205 1050.91 Q103.399 1047.35 99.765 1047.35 M99.765 1043.65 Q105.575 1043.65 108.631 1048.25 Q111.709 1052.83 111.709 1061.58 Q111.709 1070.31 108.631 1074.92 Q105.575 1079.5 99.765 1079.5 Q93.9549 1079.5 90.8762 1074.92 Q87.8206 1070.31 87.8206 1061.58 Q87.8206 1052.83 90.8762 1048.25 Q93.9549 1043.65 99.765 1043.65 Z" fill="#000000" fill-rule="nonzero" fill-opacity="1" /><path clip-path="url(#clip800)" d="M119.927 1072.95 L124.811 1072.95 L124.811 1078.83 L119.927 1078.83 L119.927 1072.95 Z" fill="#000000" fill-rule="nonzero" fill-opacity="1" /><path clip-path="url(#clip800)" d="M144.996 1047.35 Q141.385 1047.35 139.556 1050.91 Q137.751 1054.46 137.751 1061.58 Q137.751 1068.69 139.556 1072.26 Q141.385 1075.8 144.996 1075.8 Q148.63 1075.8 150.436 1072.26 Q152.265 1068.69 152.265 1061.58 Q152.265 1054.46 150.436 1050.91 Q148.63 1047.35 144.996 1047.35 M144.996 1043.65 Q150.806 1043.65 153.862 1048.25 Q156.941 1052.83 156.941 1061.58 Q156.941 1070.31 153.862 1074.92 Q150.806 1079.5 144.996 1079.5 Q139.186 1079.5 136.107 1074.92 Q133.052 1070.31 133.052 1061.58 Q133.052 1052.83 136.107 1048.25 Q139.186 1043.65 144.996 1043.65 Z" fill="#000000" fill-rule="nonzero" fill-opacity="1" /><path clip-path="url(#clip800)" d="M100.76 774.173 Q97.1493 774.173 95.3206 777.738 Q93.515 781.28 93.515 788.41 Q93.515 795.516 95.3206 799.081 Q97.1493 802.622 100.76 802.622 Q104.395 802.622 106.2 799.081 Q108.029 795.516 108.029 788.41 Q108.029 781.28 106.2 777.738 Q104.395 774.173 100.76 774.173 M100.76 770.47 Q106.571 770.47 109.626 775.076 Q112.705 779.66 112.705 788.41 Q112.705 797.136 109.626 801.743 Q106.571 806.326 100.76 806.326 Q94.9502 806.326 91.8715 801.743 Q88.816 797.136 88.816 788.41 Q88.816 779.66 91.8715 775.076 Q94.9502 770.47 100.76 770.47 Z" fill="#000000" fill-rule="nonzero" fill-opacity="1" /><path clip-path="url(#clip800)" d="M120.922 799.775 L125.807 799.775 L125.807 805.655 L120.922 805.655 L120.922 799.775 Z" fill="#000000" fill-rule="nonzero" fill-opacity="1" /><path clip-path="url(#clip800)" d="M136.038 771.095 L154.394 771.095 L154.394 775.03 L140.32 775.03 L140.32 783.502 Q141.339 783.155 142.357 782.993 Q143.376 782.808 144.394 782.808 Q150.181 782.808 153.561 785.979 Q156.941 789.15 156.941 794.567 Q156.941 800.146 153.468 803.247 Q149.996 806.326 143.677 806.326 Q141.501 806.326 139.232 805.956 Q136.987 805.585 134.58 804.845 L134.58 800.146 Q136.663 801.28 138.885 801.835 Q141.107 802.391 143.584 802.391 Q147.589 802.391 149.927 800.284 Q152.265 798.178 152.265 794.567 Q152.265 790.956 149.927 788.849 Q147.589 786.743 143.584 786.743 Q141.709 786.743 139.834 787.16 Q137.982 787.576 136.038 788.456 L136.038 771.095 Z" fill="#000000" fill-rule="nonzero" fill-opacity="1" /><path clip-path="url(#clip800)" d="M90.5752 528.544 L98.2141 528.544 L98.2141 502.179 L89.904 503.845 L89.904 499.586 L98.1678 497.919 L102.844 497.919 L102.844 528.544 L110.483 528.544 L110.483 532.479 L90.5752 532.479 L90.5752 528.544 Z" fill="#000000" fill-rule="nonzero" fill-opacity="1" /><path clip-path="url(#clip800)" d="M119.927 526.6 L124.811 526.6 L124.811 532.479 L119.927 532.479 L119.927 526.6 Z" fill="#000000" fill-rule="nonzero" fill-opacity="1" /><path clip-path="url(#clip800)" d="M144.996 500.998 Q141.385 500.998 139.556 504.563 Q137.751 508.105 137.751 515.234 Q137.751 522.341 139.556 525.905 Q141.385 529.447 144.996 529.447 Q148.63 529.447 150.436 525.905 Q152.265 522.341 152.265 515.234 Q152.265 508.105 150.436 504.563 Q148.63 500.998 144.996 500.998 M144.996 497.294 Q150.806 497.294 153.862 501.901 Q156.941 506.484 156.941 515.234 Q156.941 523.961 153.862 528.567 Q150.806 533.151 144.996 533.151 Q139.186 533.151 136.107 528.567 Q133.052 523.961 133.052 515.234 Q133.052 506.484 136.107 501.901 Q139.186 497.294 144.996 497.294 Z" fill="#000000" fill-rule="nonzero" fill-opacity="1" /><path clip-path="url(#clip800)" d="M91.5706 255.369 L99.2095 255.369 L99.2095 229.003 L90.8993 230.67 L90.8993 226.411 L99.1632 224.744 L103.839 224.744 L103.839 255.369 L111.478 255.369 L111.478 259.304 L91.5706 259.304 L91.5706 255.369 Z" fill="#000000" fill-rule="nonzero" fill-opacity="1" /><path clip-path="url(#clip800)" d="M120.922 253.424 L125.807 253.424 L125.807 259.304 L120.922 259.304 L120.922 253.424 Z" fill="#000000" fill-rule="nonzero" fill-opacity="1" /><path clip-path="url(#clip800)" d="M136.038 224.744 L154.394 224.744 L154.394 228.679 L140.32 228.679 L140.32 237.151 Q141.339 236.804 142.357 236.642 Q143.376 236.457 144.394 236.457 Q150.181 236.457 153.561 239.628 Q156.941 242.799 156.941 248.216 Q156.941 253.795 153.468 256.897 Q149.996 259.975 143.677 259.975 Q141.501 259.975 139.232 259.605 Q136.987 259.235 134.58 258.494 L134.58 253.795 Q136.663 254.929 138.885 255.485 Q141.107 256.04 143.584 256.04 Q147.589 256.04 149.927 253.934 Q152.265 251.827 152.265 248.216 Q152.265 244.605 149.927 242.499 Q147.589 240.392 143.584 240.392 Q141.709 240.392 139.834 240.809 Q137.982 241.225 136.038 242.105 L136.038 224.744 Z" fill="#000000" fill-rule="nonzero" fill-opacity="1" /><polyline clip-path="url(#clip801)" style="stroke:#009af9; stroke-linecap:round; stroke-linejoin:round; stroke-width:4; stroke-opacity:1; fill:none" points="192.941,1061.55 195.103,1065.83 197.265,1070.05 199.427,1074.22 201.589,1078.33 203.751,1082.38 205.912,1086.38 208.074,1090.33 210.236,1094.23 212.398,1098.07 214.56,1101.87 216.722,1105.61 218.884,1109.31 221.046,1112.95 223.208,1116.55 225.37,1120.1 227.532,1123.6 229.694,1127.05 231.856,1130.46 234.018,1133.83 236.18,1137.15 238.342,1140.42 240.504,1143.66 242.666,1146.85 244.828,1149.99 246.99,1153.1 249.152,1156.16 251.314,1159.19 253.476,1162.17 255.638,1165.12 257.8,1168.02 259.962,1170.89 262.124,1173.72 264.286,1176.51 266.448,1179.26 268.61,1181.98 270.772,1184.66 272.934,1187.31 275.096,1189.92 277.258,1192.49 279.42,1195.04 281.582,1197.54 283.744,1200.02 285.906,1202.46 288.068,1204.87 290.23,1207.25 292.392,1209.6 294.554,1211.91 296.716,1214.2 298.878,1216.45 301.039,1218.68 303.201,1220.87 305.363,1223.04 307.525,1225.17 309.687,1227.28 311.849,1229.36 314.011,1231.42 316.173,1233.44 318.335,1235.44 320.497,1237.41 322.659,1239.36 324.821,1241.28 326.983,1243.18 329.145,1245.05 331.307,1246.89 333.469,1248.71 335.631,1250.51 337.793,1252.28 339.955,1254.03 342.117,1255.76 344.279,1257.46 346.441,1259.14 348.603,1260.8 350.765,1262.44 352.927,1264.05 355.089,1265.65 357.251,1267.22 359.413,1268.77 361.575,1270.3 363.737,1271.81 365.899,1273.3 368.061,1274.77 370.223,1276.22 372.385,1277.66 374.547,1279.07 376.709,1280.46 378.871,1281.84 381.033,1283.2 383.195,1284.54 385.357,1285.86 387.519,1287.16 389.681,1288.45 391.843,1289.72 394.005,1290.97 396.166,1292.21 398.328,1293.43 400.49,1294.63 402.652,1295.82 404.814,1296.99 406.976,1298.15 409.138,1299.26 411.3,1298.18 413.462,1293.89 415.624,1286.86 417.786,1277.5 419.948,1266.2 422.11,1253.32 424.272,1239.2 426.434,1224.16 428.596,1208.45 430.758,1192.34 432.92,1176.04 435.082,1159.75 437.244,1143.63 439.406,1127.81 441.568,1112.4 443.73,1097.48 445.892,1083.09 448.054,1069.26 450.216,1055.99 452.378,1043.22 454.54,1030.9 456.702,1018.94 458.864,1007.21 461.026,995.563 463.188,983.815 465.35,971.929 467.512,960.186 469.674,948.598 471.836,937.164 473.998,925.882 476.16,914.749 478.322,903.764 480.484,892.925 482.646,882.229 484.808,871.675 486.97,861.261 489.132,850.985 491.293,840.845 493.455,830.84 495.617,820.967 497.779,811.226 499.941,801.613 502.103,792.128 504.265,782.768 506.427,773.532 508.589,764.419 510.751,755.427 512.913,746.554 515.075,737.798 517.237,729.159 519.399,720.634 521.561,712.222 523.723,703.922 525.885,695.732 528.047,687.651 530.209,679.677 532.371,671.808 534.533,664.044 536.695,656.383 538.857,648.824 541.019,641.364 543.181,634.004 545.343,626.741 547.505,619.575 549.667,612.504 551.829,605.526 553.991,598.641 556.153,591.847 558.315,585.143 560.477,578.528 562.639,572 564.801,565.56 566.963,559.204 569.125,552.933 571.287,546.745 573.449,540.638 575.611,534.613 577.773,528.668 579.935,522.801 582.097,517.013 584.259,511.301 586.42,505.665 588.582,500.103 590.744,494.615 592.906,489.201 595.068,483.857 597.23,478.585 599.392,473.383 601.554,468.249 603.716,463.184 605.878,458.186 608.04,453.254 610.202,448.387 612.364,443.585 614.526,438.847 616.688,434.287 618.85,431.672 621.012,431.382 623.174,433.15 625.336,436.724 627.498,441.864 629.66,448.345 631.822,455.955 633.984,464.496 636.146,473.784 638.308,483.65 640.47,493.937 642.632,504.502 644.794,515.218 646.956,525.969 649.118,536.655 651.28,547.188 653.442,557.496 655.604,567.519 657.766,577.211 659.928,586.541 662.09,595.492 664.252,604.058 666.414,612.251 668.576,620.093 670.738,627.623 672.9,634.892 675.062,641.964 677.224,648.92 679.386,655.852 681.547,662.866 683.709,670.042 685.871,677.172 688.033,684.207 690.195,691.148 692.357,697.998 694.519,704.757 696.681,711.426 698.843,718.007 701.005,724.501 703.167,730.908 705.329,737.231 707.491,743.469 709.653,749.625 711.815,755.7 713.977,761.694 716.139,767.608 718.301,773.444 720.463,779.203 722.625,784.885 724.787,790.493 726.949,796.026 729.111,801.486 731.273,806.874 733.435,812.19 735.597,817.436 737.759,822.612 739.921,827.72 742.083,832.76 744.245,837.733 746.407,842.64 748.569,847.482 750.731,852.259 752.893,856.974 755.055,861.625 757.217,866.215 759.379,870.744 761.541,875.213 763.703,879.622 765.865,883.973 768.027,888.266 770.189,892.502 772.351,896.681 774.513,900.806 776.674,904.875 778.836,908.89 780.998,912.853 783.16,916.762 785.322,920.62 787.484,924.427 789.646,928.183 791.808,931.889 793.97,935.546 796.132,939.155 798.294,942.716 800.456,946.23 802.618,949.697 804.78,953.118 806.942,956.494 809.104,959.826 811.266,963.113 813.428,966.357 815.59,969.558 817.752,972.716 819.914,975.833 822.076,978.908 824.238,981.943 826.4,984.937 828.562,987.892 830.724,990.807 832.886,993.684 835.048,996.523 837.21,999.324 839.372,1002.09 841.534,1004.79 843.696,1007.09 845.858,1008.93 848.02,1010.38 850.182,1011.48 852.344,1012.29 854.506,1012.85 856.668,1013.2 858.83,1013.38 860.992,1013.44 863.154,1013.4 865.316,1013.29 867.478,1013.14 869.64,1012.97 871.801,1012.8 873.963,1012.66 876.125,1012.54 878.287,1012.47 880.449,1012.44 882.611,1012.46 884.773,1012.53 886.935,1012.64 889.097,1012.8 891.259,1012.98 893.421,1013.17 895.583,1013.37 897.745,1013.53 899.907,1013.65 902.069,1013.75 904.231,1013.85 906.393,1013.94 908.555,1014.03 910.717,1014.13 912.879,1014.22 915.041,1014.31 917.203,1014.39 919.365,1014.48 921.527,1014.57 923.689,1014.65 925.851,1014.73 928.013,1014.82 930.175,1014.9 932.337,1014.98 934.499,1015.06 936.661,1015.14 938.823,1015.21 940.985,1015.29 943.147,1015.36 945.309,1015.44 947.471,1015.51 949.633,1015.58 951.795,1015.65 953.957,1015.73 956.119,1015.79 958.281,1015.86 960.443,1015.93 962.605,1016 964.767,1016.06 966.928,1016.13 969.09,1016.19 971.252,1016.25 973.414,1016.32 975.576,1016.38 977.738,1016.44 979.9,1016.5 982.062,1016.56 984.224,1016.62 986.386,1016.67 988.548,1016.73 990.71,1016.79 992.872,1016.84 995.034,1016.9 997.196,1016.95 999.358,1017 1001.52,1017.06 1003.68,1017.11 1005.84,1017.16 1008.01,1017.21 1010.17,1017.26 1012.33,1017.31 1014.49,1017.35 1016.65,1017.4 1018.82,1017.45 1020.98,1017.5 1023.14,1017.54 1025.3,1017.59 1027.46,1017.63 1029.63,1017.68 1031.79,1017.72 1033.95,1017.76 1036.11,1017.8 1038.27,1017.85 1040.44,1017.89 1042.6,1017.93 1044.76,1017.97 1046.92,1018.01 1049.08,1018.05 1051.25,1018.08 1053.41,1017.29 1055.57,1014.79 1057.73,1010.86 1059.89,1005.75 1062.06,999.679 1064.22,992.877 1066.38,985.529 1068.54,977.811 1070.7,969.874 1072.87,961.85 1075.03,953.854 1077.19,945.976 1079.35,938.29 1081.51,930.849 1083.68,923.684 1085.84,916.808 1088,910.213 1090.16,903.872 1092.32,897.737 1094.49,891.739 1096.65,885.792 1098.81,879.787 1100.97,873.739 1103.13,867.771 1105.3,861.881 1107.46,856.07 1109.62,850.336 1111.78,844.678 1113.94,839.095 1116.1,833.585 1118.27,828.149 1120.43,822.785 1122.59,817.493 1124.75,812.27 1126.91,807.116 1129.08,802.031 1131.24,797.013 1133.4,792.061 1135.56,787.175 1137.72,782.354 1139.89,777.597 1142.05,772.903 1144.21,768.271 1146.37,763.701 1148.53,759.191 1150.7,754.741 1152.86,750.35 1155.02,746.018 1157.18,741.743 1159.34,737.524 1161.51,733.362 1163.67,729.255 1165.83,725.202 1167.99,721.203 1170.15,717.257 1172.32,713.364 1174.48,709.522 1176.64,705.731 1178.8,701.99 1180.96,698.299 1183.13,694.657 1185.29,691.063 1187.45,687.516 1189.61,684.017 1191.77,680.564 1193.94,677.157 1196.1,673.795 1198.26,670.477 1200.42,667.204 1202.58,663.974 1204.75,660.786 1206.91,657.641 1209.07,654.538 1211.23,651.475 1213.39,648.453 1215.56,645.472 1217.72,642.53 1219.88,639.627 1222.04,636.762 1224.2,633.935 1226.37,631.146 1228.53,628.394 1230.69,625.679 1232.85,622.999 1235.01,620.355 1237.18,617.746 1239.34,615.171 1241.5,612.631 1243.66,610.125 1245.82,607.651 1247.99,605.211 1250.15,602.802 1252.31,600.426 1254.47,598.081 1256.63,595.767 1258.8,593.484 1260.96,591.232 1263.12,589.355 1265.28,588.442 1267.44,588.411 1269.61,589.169 1271.77,590.629 1273.93,592.707 1276.09,595.326 1278.25,598.408 1280.42,601.885 1282.58,605.69 1284.74,609.759 1286.9,614.037 1289.06,618.469 1291.23,623.006 1293.39,627.603 1295.55,632.22 1297.71,636.819 1299.87,641.369 1302.03,645.842 1304.2,650.213 1306.36,654.465 1308.52,658.582 1310.68,662.552 1312.84,666.369 1315.01,670.032 1317.17,673.542 1319.33,676.905 1321.49,680.131 1323.65,683.236 1325.82,686.239 1327.98,689.163 1330.14,692.036 1332.3,694.888 1334.46,697.758 1336.63,700.684 1338.79,703.645 1340.95,706.567 1343.11,709.45 1345.27,712.295 1347.44,715.103 1349.6,717.873 1351.76,720.606 1353.92,723.303 1356.08,725.964 1358.25,728.591 1360.41,731.182 1362.57,733.739 1364.73,736.262 1366.89,738.751 1369.06,741.208 1371.22,743.632 1373.38,746.023 1375.54,748.384 1377.7,750.712 1379.87,753.01 1382.03,755.278 1384.19,757.515 1386.35,759.723 1388.51,761.901 1390.68,764.051 1392.84,766.172 1395,768.265 1397.16,770.33 1399.32,772.368 1401.49,774.379 1403.65,776.363 1405.81,778.321 1407.97,780.253 1410.13,782.159 1412.3,784.04 1414.46,785.896 1416.62,787.728 1418.78,789.535 1420.94,791.318 1423.11,793.078 1425.27,794.814 1427.43,796.527 1429.59,798.218 1431.75,799.886 1433.92,801.532 1436.08,803.156 1438.24,804.759 1440.4,806.34 1442.56,807.901 1444.73,809.44 1446.89,810.96 1449.05,812.459 1451.21,813.938 1453.37,815.398 1455.54,816.838 1457.7,818.26 1459.86,819.662 1462.02,821.046 1464.18,822.411 1466.35,823.759 1468.51,825.088 1470.67,826.4 1472.83,827.694 1474.99,828.972 1477.16,830.232 1479.32,831.476 1481.48,832.703 1483.64,833.914 1485.8,835.109 1487.97,836.269 1490.13,836.974 1492.29,837.092 1494.45,836.683 1496.61,835.804 1498.77,834.509 1500.94,832.851 1503.1,830.877 1505.26,828.635 1507.42,826.169 1509.58,823.517 1511.75,820.72 1513.91,817.811 1516.07,814.824 1518.23,811.788 1520.39,808.73 1522.56,805.675 1524.72,802.645 1526.88,799.658 1529.04,796.73 1531.2,793.875 1533.37,791.103 1535.53,788.423 1537.69,785.84 1539.85,783.356 1542.01,780.971 1544.18,778.681 1546.34,776.482 1548.5,774.365 1550.66,772.318 1552.82,770.328 1554.99,768.379 1557.15,766.449 1559.31,764.519 1561.47,762.562 1563.63,760.57 1565.8,758.599 1567.96,756.655 1570.12,754.736 1572.28,752.842 1574.44,750.974 1576.61,749.13 1578.77,747.311 1580.93,745.516 1583.09,743.745 1585.25,741.997 1587.42,740.273 1589.58,738.571 1591.74,736.892 1593.9,735.235 1596.06,733.6 1598.23,731.987 1600.39,730.395 1602.55,728.824 1604.71,727.274 1606.87,725.745 1609.04,724.235 1611.2,722.746 1613.36,721.277 1615.52,719.827 1617.68,718.396 1619.85,716.984 1622.01,715.59 1624.17,714.216 1626.33,712.859 1628.49,711.521 1630.66,710.2 1632.82,708.897 1634.98,707.611 1637.14,706.342 1639.3,705.09 1641.47,703.855 1643.63,702.636 1645.79,701.433 1647.95,700.246 1650.11,699.075 1652.28,697.92 1654.44,696.78 1656.6,695.655 1658.76,694.545 1660.92,693.45 1663.09,692.369 1665.25,691.302 1667.41,690.25 1669.57,689.212 1671.73,688.187 1673.9,687.176 1676.06,686.179 1678.22,685.195 1680.38,684.223 1682.54,683.265 1684.7,682.319 1686.87,681.386 1689.03,680.465 1691.19,679.556 1693.35,678.66 1695.51,677.775 1697.68,676.902 1699.84,676.133 1702,675.741 1704.16,675.71 1706.32,676.005 1708.49,676.593 1710.65,677.443 1712.81,678.524 1714.97,679.807 1717.13,681.266 1719.3,682.875 1721.46,684.608 1723.62,686.444 1725.78,688.361 1727.94,690.339 1730.11,692.359 1732.27,694.405 1734.43,696.461 1736.59,698.513 1738.75,700.549 1740.92,702.556 1743.08,704.527 1745.24,706.452 1747.4,708.325 1749.56,710.14 1751.73,711.895 1753.89,713.586 1756.05,715.213 1758.21,716.776 1760.37,718.278 1762.54,719.723 1764.7,721.115 1766.86,722.46 1769.02,723.768 1771.18,725.047 1773.35,726.308 1775.51,727.564 1777.67,728.829 1779.83,730.118 1781.99,731.414 1784.16,732.692 1786.32,733.954 1788.48,735.199 1790.64,736.427 1792.8,737.639 1794.97,738.835 1797.13,740.016 1799.29,741.18 1801.45,742.329 1803.61,743.463 1805.78,744.582 1807.94,745.686 1810.1,746.775 1812.26,747.85 1814.42,748.911 1816.59,749.957 1818.75,750.99 1820.91,752.009 1823.07,753.014 1825.23,754.007 1827.4,754.986 1829.56,755.952 1831.72,756.905 1833.88,757.845 1836.04,758.774 1838.21,759.689 1840.37,760.593 1842.53,761.485 1844.69,762.365 1846.85,763.233 1849.02,764.09 1851.18,764.935 1853.34,765.769 1855.5,766.593 1857.66,767.405 1859.83,768.206 1861.99,768.997 1864.15,769.777 1866.31,770.547 1868.47,771.307 1870.63,772.057 1872.8,772.796 1874.96,773.526 1877.12,774.247 1879.28,774.957 1881.44,775.658 1883.61,776.35 1885.77,777.033 1887.93,777.707 1890.09,778.372 1892.25,779.027 1894.42,779.675 1896.58,780.313 1898.74,780.944 1900.9,781.565 1903.06,782.179 1905.23,782.784 1907.39,783.382 1909.55,783.971 1911.71,784.553 1913.87,785.127 1916.04,785.694 1918.2,786.298 1920.36,787.338 1922.52,788.861 1924.68,790.816 1926.85,793.153 1929.01,795.826 1931.17,798.791 1933.33,802.005 1935.49,805.429 1937.66,809.025 1939.82,812.759 1941.98,816.598 1944.14,820.511 1946.3,824.472 1948.47,828.454 1950.63,832.435 1952.79,836.393 1954.95,840.311 1957.11,844.173 1959.28,847.964 1961.44,851.675 1963.6,855.295 1965.76,858.818 1967.92,862.241 1970.09,865.562 1972.25,868.781 1974.41,871.902 1976.57,874.929 1978.73,877.871 1980.9,880.737 1983.06,883.541 1985.22,886.297 1987.38,889.022 1989.54,891.736 1991.71,894.462 1993.87,897.201 1996.03,899.908 1998.19,902.579 2000.35,905.214 2002.52,907.815 2004.68,910.381 2006.84,912.913 2009,915.411 2011.16,917.876 2013.33,920.309 2015.49,922.709 2017.65,925.078 2019.81,927.415 2021.97,929.721 2024.14,931.996 2026.3,934.242 2028.46,936.457 2030.62,938.644 2032.78,940.801 2034.95,942.93 2037.11,945.03 2039.27,947.103 2041.43,949.148 2043.59,951.166 2045.76,953.157 2047.92,955.122 2050.08,957.061 2052.24,958.974 2054.4,960.861 2056.57,962.724 2058.73,964.562 2060.89,966.376 2063.05,968.165 2065.21,969.931 2067.37,971.673 2069.54,973.393 2071.7,975.089 2073.86,976.763 2076.02,978.415 2078.18,980.045 2080.35,981.653 2082.51,983.241 2084.67,984.807 2086.83,986.352 2088.99,987.876 2091.16,989.381 2093.32,990.866 2095.48,992.33 2097.64,993.776 2099.8,995.202 2101.97,996.61 2104.13,997.998 2106.29,999.369 2108.45,1000.72 2110.61,1002.06 2112.78,1003.37 2114.94,1004.67 2117.1,1005.95 2119.26,1007.22 2121.42,1008.47 2123.59,1009.7 2125.75,1010.91 2127.91,1012.11 2130.07,1013.29 2132.23,1014.46 2134.4,1015.61 2136.56,1016.75 2138.72,1015.9 2140.88,1011.95 2143.04,1006.31 2145.21,1000.06 2147.37,993.899 2149.53,988.202 2151.69,982.968 2153.85,977.847 2156.02,972.622 2158.18,967.466 2160.34,962.378 2162.5,957.357 2164.66,952.404 2166.83,947.515 2168.99,942.692 2171.15,937.933 2173.31,933.236 2175.47,928.602 2177.64,924.029 2179.8,919.517 2181.96,915.065 2184.12,910.672 2186.28,906.337 2188.45,902.06 2190.61,897.839 2192.77,893.674 2194.93,889.565 2197.09,885.51 2199.26,881.509 2201.42,877.561 2203.58,873.665 2205.74,869.82 2207.9,866.027 2210.07,862.284 2212.23,858.591 2214.39,854.946 2216.55,851.35 2218.71,847.802 2220.88,844.301 2223.04,840.846 2225.2,837.436 2227.36,834.072 2229.52,830.753 2231.69,827.478 2233.85,824.246 2236.01,821.057 2238.17,817.91 2240.33,814.805 2242.5,811.741 2244.66,808.718 2246.82,805.735 2248.98,802.791 2251.14,799.887 2253.3,797.021 2255.47,794.192 2257.63,791.402 2259.79,788.648 2261.95,785.931 2264.11,783.25 2266.28,780.605 2268.44,777.994 2270.6,775.418 2272.76,772.876 2274.92,770.368 2277.09,767.893 2279.25,765.451 2281.41,763.042 2283.57,760.664 2285.73,758.318 2287.9,756.003 2290.06,753.718 2292.22,751.464 2294.38,749.24 2296.54,747.046 2298.71,744.88 2300.87,742.743 2303.03,740.635 2305.19,738.554 2307.35,736.501 2309.52,734.476 2311.68,732.477 2313.84,730.505 2316,728.559 2318.16,726.638 2320.33,724.743 2322.49,722.874 2324.65,721.029 2326.81,719.208 2328.97,717.412 2331.14,715.639 2333.3,713.89 2335.46,712.164 2337.62,710.461 2339.78,708.781 2341.95,707.122 2344.11,705.486 2346.27,703.872 2348.43,702.278 2350.59,700.706 2352.76,699.155 "/>
<polyline clip-path="url(#clip801)" style="stroke:#e26f46; stroke-linecap:round; stroke-linejoin:round; stroke-width:4; stroke-opacity:1; fill:none" points="192.941,1384.24 195.103,1384.24 197.265,1384.24 199.427,1384.24 201.589,1384.24 203.751,1384.24 205.912,1384.24 208.074,1384.24 210.236,1384.24 212.398,1384.24 214.56,1384.24 216.722,1384.24 218.884,1384.24 221.046,1384.24 223.208,1384.24 225.37,1384.24 227.532,1384.24 229.694,1384.24 231.856,1384.24 234.018,1384.24 236.18,1384.24 238.342,1384.24 240.504,1384.24 242.666,1384.24 244.828,1384.24 246.99,1384.24 249.152,1384.24 251.314,1384.24 253.476,1384.24 255.638,1384.24 257.8,1384.24 259.962,1384.24 262.124,1384.24 264.286,1384.24 266.448,1384.24 268.61,1384.24 270.772,1384.24 272.934,1384.24 275.096,1384.24 277.258,1384.24 279.42,1384.24 281.582,1384.24 283.744,1384.24 285.906,1384.24 288.068,1384.24 290.23,1384.24 292.392,1384.24 294.554,1384.24 296.716,1384.24 298.878,1384.24 301.039,1384.24 303.201,1384.24 305.363,1384.24 307.525,1384.24 309.687,1384.24 311.849,1384.24 314.011,1384.24 316.173,1384.24 318.335,1384.24 320.497,1384.24 322.659,1384.24 324.821,1384.24 326.983,1384.24 329.145,1384.24 331.307,1384.24 333.469,1384.24 335.631,1384.24 337.793,1384.24 339.955,1384.24 342.117,1384.24 344.279,1384.24 346.441,1384.24 348.603,1384.24 350.765,1384.24 352.927,1384.24 355.089,1384.24 357.251,1384.24 359.413,1384.24 361.575,1384.24 363.737,1384.24 365.899,1384.24 368.061,1384.24 370.223,1384.24 372.385,1384.24 374.547,1384.24 376.709,1384.24 378.871,1384.24 381.033,1384.24 383.195,1384.24 385.357,1384.24 387.519,1384.24 389.681,1384.24 391.843,1384.24 394.005,1384.24 396.166,1384.24 398.328,1384.24 400.49,1384.24 402.652,1384.24 404.814,1384.24 406.976,1384.24 409.138,86.1857 411.3,86.1857 413.462,86.1857 415.624,86.1857 417.786,86.1857 419.948,86.1857 422.11,86.1857 424.272,86.1857 426.434,86.1857 428.596,86.1857 430.758,86.1857 432.92,86.1857 435.082,86.1857 437.244,86.1857 439.406,86.1857 441.568,86.1857 443.73,86.1857 445.892,86.1857 448.054,86.1857 450.216,86.1857 452.378,86.1857 454.54,86.1857 456.702,86.1857 458.864,86.1857 461.026,86.1857 463.188,86.1857 465.35,86.1857 467.512,86.1857 469.674,86.1857 471.836,86.1857 473.998,86.1857 476.16,86.1857 478.322,86.1857 480.484,86.1857 482.646,86.1857 484.808,86.1857 486.97,86.1857 489.132,86.1857 491.293,86.1857 493.455,86.1857 495.617,86.1857 497.779,86.1857 499.941,86.1857 502.103,86.1857 504.265,86.1857 506.427,86.1857 508.589,86.1857 510.751,86.1857 512.913,86.1857 515.075,86.1857 517.237,86.1857 519.399,86.1857 521.561,86.1857 523.723,86.1857 525.885,86.1857 528.047,86.1857 530.209,86.1857 532.371,86.1857 534.533,86.1857 536.695,86.1857 538.857,86.1857 541.019,86.1857 543.181,86.1857 545.343,86.1857 547.505,86.1857 549.667,86.1857 551.829,86.1857 553.991,86.1857 556.153,86.1857 558.315,86.1857 560.477,86.1857 562.639,86.1857 564.801,86.1857 566.963,86.1857 569.125,86.1857 571.287,86.1857 573.449,86.1857 575.611,86.1857 577.773,86.1857 579.935,86.1857 582.097,86.1857 584.259,86.1857 586.42,86.1857 588.582,86.1857 590.744,86.1857 592.906,86.1857 595.068,86.1857 597.23,86.1857 599.392,86.1857 601.554,86.1857 603.716,86.1857 605.878,86.1857 608.04,86.1857 610.202,86.1857 612.364,86.1857 614.526,86.1857 616.688,86.1857 618.85,86.1857 621.012,86.1857 623.174,86.1857 625.336,1207.79 627.498,1207.79 629.66,1207.79 631.822,1207.79 633.984,1207.79 636.146,1207.79 638.308,1207.79 640.47,1207.79 642.632,1207.79 644.794,1207.79 646.956,1207.79 649.118,1207.79 651.28,1207.79 653.442,1207.79 655.604,1207.79 657.766,1207.79 659.928,1207.79 662.09,1207.79 664.252,1207.79 666.414,1207.79 668.576,1207.79 670.738,1207.79 672.9,1207.79 675.062,1207.79 677.224,1207.79 679.386,1207.79 681.547,1207.79 683.709,1207.79 685.871,1207.79 688.033,1207.79 690.195,1207.79 692.357,1207.79 694.519,1207.79 696.681,1207.79 698.843,1207.79 701.005,1207.79 703.167,1207.79 705.329,1207.79 707.491,1207.79 709.653,1207.79 711.815,1207.79 713.977,1207.79 716.139,1207.79 718.301,1207.79 720.463,1207.79 722.625,1207.79 724.787,1207.79 726.949,1207.79 729.111,1207.79 731.273,1207.79 733.435,1207.79 735.597,1207.79 737.759,1207.79 739.921,1207.79 742.083,1207.79 744.245,1207.79 746.407,1207.79 748.569,1207.79 750.731,1207.79 752.893,1207.79 755.055,1207.79 757.217,1207.79 759.379,1207.79 761.541,1207.79 763.703,1207.79 765.865,1207.79 768.027,1207.79 770.189,1207.79 772.351,1207.79 774.513,1207.79 776.674,1207.79 778.836,1207.79 780.998,1207.79 783.16,1207.79 785.322,1207.79 787.484,1207.79 789.646,1207.79 791.808,1207.79 793.97,1207.79 796.132,1207.79 798.294,1207.79 800.456,1207.79 802.618,1207.79 804.78,1207.79 806.942,1207.79 809.104,1207.79 811.266,1207.79 813.428,1207.79 815.59,1207.79 817.752,1207.79 819.914,1207.79 822.076,1207.79 824.238,1207.79 826.4,1207.79 828.562,1207.79 830.724,1207.79 832.886,1207.79 835.048,1207.79 837.21,1207.79 839.372,1207.79 841.534,1020.95 843.696,1020.95 845.858,1020.95 848.02,1020.95 850.182,1020.95 852.344,1020.95 854.506,1020.95 856.668,1020.95 858.83,1020.95 860.992,1020.95 863.154,1020.95 865.316,1020.95 867.478,1020.95 869.64,1020.95 871.801,1020.95 873.963,1020.95 876.125,1020.95 878.287,1020.95 880.449,1020.95 882.611,1020.95 884.773,1020.95 886.935,1020.95 889.097,1020.95 891.259,1020.95 893.421,1020.95 895.583,1020.95 897.745,1020.95 899.907,1020.95 902.069,1020.95 904.231,1020.95 906.393,1020.95 908.555,1020.95 910.717,1020.95 912.879,1020.95 915.041,1020.95 917.203,1020.95 919.365,1020.95 921.527,1020.95 923.689,1020.95 925.851,1020.95 928.013,1020.95 930.175,1020.95 932.337,1020.95 934.499,1020.95 936.661,1020.95 938.823,1020.95 940.985,1020.95 943.147,1020.95 945.309,1020.95 947.471,1020.95 949.633,1020.95 951.795,1020.95 953.957,1020.95 956.119,1020.95 958.281,1020.95 960.443,1020.95 962.605,1020.95 964.767,1020.95 966.928,1020.95 969.09,1020.95 971.252,1020.95 973.414,1020.95 975.576,1020.95 977.738,1020.95 979.9,1020.95 982.062,1020.95 984.224,1020.95 986.386,1020.95 988.548,1020.95 990.71,1020.95 992.872,1020.95 995.034,1020.95 997.196,1020.95 999.358,1020.95 1001.52,1020.95 1003.68,1020.95 1005.84,1020.95 1008.01,1020.95 1010.17,1020.95 1012.33,1020.95 1014.49,1020.95 1016.65,1020.95 1018.82,1020.95 1020.98,1020.95 1023.14,1020.95 1025.3,1020.95 1027.46,1020.95 1029.63,1020.95 1031.79,1020.95 1033.95,1020.95 1036.11,1020.95 1038.27,1020.95 1040.44,1020.95 1042.6,1020.95 1044.76,1020.95 1046.92,1020.95 1049.08,1020.95 1051.25,1020.95 1053.41,1020.95 1055.57,1020.95 1057.73,423.564 1059.89,423.564 1062.06,423.564 1064.22,423.564 1066.38,423.564 1068.54,423.564 1070.7,423.564 1072.87,423.564 1075.03,423.564 1077.19,423.564 1079.35,423.564 1081.51,423.564 1083.68,423.564 1085.84,423.564 1088,423.564 1090.16,423.564 1092.32,423.564 1094.49,423.564 1096.65,423.564 1098.81,423.564 1100.97,423.564 1103.13,423.564 1105.3,423.564 1107.46,423.564 1109.62,423.564 1111.78,423.564 1113.94,423.564 1116.1,423.564 1118.27,423.564 1120.43,423.564 1122.59,423.564 1124.75,423.564 1126.91,423.564 1129.08,423.564 1131.24,423.564 1133.4,423.564 1135.56,423.564 1137.72,423.564 1139.89,423.564 1142.05,423.564 1144.21,423.564 1146.37,423.564 1148.53,423.564 1150.7,423.564 1152.86,423.564 1155.02,423.564 1157.18,423.564 1159.34,423.564 1161.51,423.564 1163.67,423.564 1165.83,423.564 1167.99,423.564 1170.15,423.564 1172.32,423.564 1174.48,423.564 1176.64,423.564 1178.8,423.564 1180.96,423.564 1183.13,423.564 1185.29,423.564 1187.45,423.564 1189.61,423.564 1191.77,423.564 1193.94,423.564 1196.1,423.564 1198.26,423.564 1200.42,423.564 1202.58,423.564 1204.75,423.564 1206.91,423.564 1209.07,423.564 1211.23,423.564 1213.39,423.564 1215.56,423.564 1217.72,423.564 1219.88,423.564 1222.04,423.564 1224.2,423.564 1226.37,423.564 1228.53,423.564 1230.69,423.564 1232.85,423.564 1235.01,423.564 1237.18,423.564 1239.34,423.564 1241.5,423.564 1243.66,423.564 1245.82,423.564 1247.99,423.564 1250.15,423.564 1252.31,423.564 1254.47,423.564 1256.63,423.564 1258.8,423.564 1260.96,423.564 1263.12,423.564 1265.28,423.564 1267.44,423.564 1269.61,423.564 1271.77,423.564 1273.93,924.037 1276.09,924.037 1278.25,924.037 1280.42,924.037 1282.58,924.037 1284.74,924.037 1286.9,924.037 1289.06,924.037 1291.23,924.037 1293.39,924.037 1295.55,924.037 1297.71,924.037 1299.87,924.037 1302.03,924.037 1304.2,924.037 1306.36,924.037 1308.52,924.037 1310.68,924.037 1312.84,924.037 1315.01,924.037 1317.17,924.037 1319.33,924.037 1321.49,924.037 1323.65,924.037 1325.82,924.037 1327.98,924.037 1330.14,924.037 1332.3,924.037 1334.46,924.037 1336.63,924.037 1338.79,924.037 1340.95,924.037 1343.11,924.037 1345.27,924.037 1347.44,924.037 1349.6,924.037 1351.76,924.037 1353.92,924.037 1356.08,924.037 1358.25,924.037 1360.41,924.037 1362.57,924.037 1364.73,924.037 1366.89,924.037 1369.06,924.037 1371.22,924.037 1373.38,924.037 1375.54,924.037 1377.7,924.037 1379.87,924.037 1382.03,924.037 1384.19,924.037 1386.35,924.037 1388.51,924.037 1390.68,924.037 1392.84,924.037 1395,924.037 1397.16,924.037 1399.32,924.037 1401.49,924.037 1403.65,924.037 1405.81,924.037 1407.97,924.037 1410.13,924.037 1412.3,924.037 1414.46,924.037 1416.62,924.037 1418.78,924.037 1420.94,924.037 1423.11,924.037 1425.27,924.037 1427.43,924.037 1429.59,924.037 1431.75,924.037 1433.92,924.037 1436.08,924.037 1438.24,924.037 1440.4,924.037 1442.56,924.037 1444.73,924.037 1446.89,924.037 1449.05,924.037 1451.21,924.037 1453.37,924.037 1455.54,924.037 1457.7,924.037 1459.86,924.037 1462.02,924.037 1464.18,924.037 1466.35,924.037 1468.51,924.037 1470.67,924.037 1472.83,924.037 1474.99,924.037 1477.16,924.037 1479.32,924.037 1481.48,924.037 1483.64,924.037 1485.8,924.037 1487.97,924.037 1490.13,611.919 1492.29,611.919 1494.45,611.919 1496.61,611.919 1498.77,611.919 1500.94,611.919 1503.1,611.919 1505.26,611.919 1507.42,611.919 1509.58,611.919 1511.75,611.919 1513.91,611.919 1516.07,611.919 1518.23,611.919 1520.39,611.919 1522.56,611.919 1524.72,611.919 1526.88,611.919 1529.04,611.919 1531.2,611.919 1533.37,611.919 1535.53,611.919 1537.69,611.919 1539.85,611.919 1542.01,611.919 1544.18,611.919 1546.34,611.919 1548.5,611.919 1550.66,611.919 1552.82,611.919 1554.99,611.919 1557.15,611.919 1559.31,611.919 1561.47,611.919 1563.63,611.919 1565.8,611.919 1567.96,611.919 1570.12,611.919 1572.28,611.919 1574.44,611.919 1576.61,611.919 1578.77,611.919 1580.93,611.919 1583.09,611.919 1585.25,611.919 1587.42,611.919 1589.58,611.919 1591.74,611.919 1593.9,611.919 1596.06,611.919 1598.23,611.919 1600.39,611.919 1602.55,611.919 1604.71,611.919 1606.87,611.919 1609.04,611.919 1611.2,611.919 1613.36,611.919 1615.52,611.919 1617.68,611.919 1619.85,611.919 1622.01,611.919 1624.17,611.919 1626.33,611.919 1628.49,611.919 1630.66,611.919 1632.82,611.919 1634.98,611.919 1637.14,611.919 1639.3,611.919 1641.47,611.919 1643.63,611.919 1645.79,611.919 1647.95,611.919 1650.11,611.919 1652.28,611.919 1654.44,611.919 1656.6,611.919 1658.76,611.919 1660.92,611.919 1663.09,611.919 1665.25,611.919 1667.41,611.919 1669.57,611.919 1671.73,611.919 1673.9,611.919 1676.06,611.919 1678.22,611.919 1680.38,611.919 1682.54,611.919 1684.7,611.919 1686.87,611.919 1689.03,611.919 1691.19,611.919 1693.35,611.919 1695.51,611.919 1697.68,611.919 1699.84,611.919 1702,611.919 1704.16,611.919 1706.32,827.85 1708.49,827.85 1710.65,827.85 1712.81,827.85 1714.97,827.85 1717.13,827.85 1719.3,827.85 1721.46,827.85 1723.62,827.85 1725.78,827.85 1727.94,827.85 1730.11,827.85 1732.27,827.85 1734.43,827.85 1736.59,827.85 1738.75,827.85 1740.92,827.85 1743.08,827.85 1745.24,827.85 1747.4,827.85 1749.56,827.85 1751.73,827.85 1753.89,827.85 1756.05,827.85 1758.21,827.85 1760.37,827.85 1762.54,827.85 1764.7,827.85 1766.86,827.85 1769.02,827.85 1771.18,827.85 1773.35,827.85 1775.51,827.85 1777.67,827.85 1779.83,827.85 1781.99,827.85 1784.16,827.85 1786.32,827.85 1788.48,827.85 1790.64,827.85 1792.8,827.85 1794.97,827.85 1797.13,827.85 1799.29,827.85 1801.45,827.85 1803.61,827.85 1805.78,827.85 1807.94,827.85 1810.1,827.85 1812.26,827.85 1814.42,827.85 1816.59,827.85 1818.75,827.85 1820.91,827.85 1823.07,827.85 1825.23,827.85 1827.4,827.85 1829.56,827.85 1831.72,827.85 1833.88,827.85 1836.04,827.85 1838.21,827.85 1840.37,827.85 1842.53,827.85 1844.69,827.85 1846.85,827.85 1849.02,827.85 1851.18,827.85 1853.34,827.85 1855.5,827.85 1857.66,827.85 1859.83,827.85 1861.99,827.85 1864.15,827.85 1866.31,827.85 1868.47,827.85 1870.63,827.85 1872.8,827.85 1874.96,827.85 1877.12,827.85 1879.28,827.85 1881.44,827.85 1883.61,827.85 1885.77,827.85 1887.93,827.85 1890.09,827.85 1892.25,827.85 1894.42,827.85 1896.58,827.85 1898.74,827.85 1900.9,827.85 1903.06,827.85 1905.23,827.85 1907.39,827.85 1909.55,827.85 1911.71,827.85 1913.87,827.85 1916.04,827.85 1918.2,827.85 1920.36,827.85 1922.52,1101.36 1924.68,1101.36 1926.85,1101.36 1929.01,1101.36 1931.17,1101.36 1933.33,1101.36 1935.49,1101.36 1937.66,1101.36 1939.82,1101.36 1941.98,1101.36 1944.14,1101.36 1946.3,1101.36 1948.47,1101.36 1950.63,1101.36 1952.79,1101.36 1954.95,1101.36 1957.11,1101.36 1959.28,1101.36 1961.44,1101.36 1963.6,1101.36 1965.76,1101.36 1967.92,1101.36 1970.09,1101.36 1972.25,1101.36 1974.41,1101.36 1976.57,1101.36 1978.73,1101.36 1980.9,1101.36 1983.06,1101.36 1985.22,1101.36 1987.38,1101.36 1989.54,1101.36 1991.71,1101.36 1993.87,1101.36 1996.03,1101.36 1998.19,1101.36 2000.35,1101.36 2002.52,1101.36 2004.68,1101.36 2006.84,1101.36 2009,1101.36 2011.16,1101.36 2013.33,1101.36 2015.49,1101.36 2017.65,1101.36 2019.81,1101.36 2021.97,1101.36 2024.14,1101.36 2026.3,1101.36 2028.46,1101.36 2030.62,1101.36 2032.78,1101.36 2034.95,1101.36 2037.11,1101.36 2039.27,1101.36 2041.43,1101.36 2043.59,1101.36 2045.76,1101.36 2047.92,1101.36 2050.08,1101.36 2052.24,1101.36 2054.4,1101.36 2056.57,1101.36 2058.73,1101.36 2060.89,1101.36 2063.05,1101.36 2065.21,1101.36 2067.37,1101.36 2069.54,1101.36 2071.7,1101.36 2073.86,1101.36 2076.02,1101.36 2078.18,1101.36 2080.35,1101.36 2082.51,1101.36 2084.67,1101.36 2086.83,1101.36 2088.99,1101.36 2091.16,1101.36 2093.32,1101.36 2095.48,1101.36 2097.64,1101.36 2099.8,1101.36 2101.97,1101.36 2104.13,1101.36 2106.29,1101.36 2108.45,1101.36 2110.61,1101.36 2112.78,1101.36 2114.94,1101.36 2117.1,1101.36 2119.26,1101.36 2121.42,1101.36 2123.59,1101.36 2125.75,1101.36 2127.91,1101.36 2130.07,1101.36 2132.23,1101.36 2134.4,1101.36 2136.56,1101.36 2138.72,583.708 2140.88,583.708 2143.04,583.708 2145.21,583.708 2147.37,583.708 2149.53,583.708 2151.69,583.708 2153.85,583.708 2156.02,583.708 2158.18,583.708 2160.34,583.708 2162.5,583.708 2164.66,583.708 2166.83,583.708 2168.99,583.708 2171.15,583.708 2173.31,583.708 2175.47,583.708 2177.64,583.708 2179.8,583.708 2181.96,583.708 2184.12,583.708 2186.28,583.708 2188.45,583.708 2190.61,583.708 2192.77,583.708 2194.93,583.708 2197.09,583.708 2199.26,583.708 2201.42,583.708 2203.58,583.708 2205.74,583.708 2207.9,583.708 2210.07,583.708 2212.23,583.708 2214.39,583.708 2216.55,583.708 2218.71,583.708 2220.88,583.708 2223.04,583.708 2225.2,583.708 2227.36,583.708 2229.52,583.708 2231.69,583.708 2233.85,583.708 2236.01,583.708 2238.17,583.708 2240.33,583.708 2242.5,583.708 2244.66,583.708 2246.82,583.708 2248.98,583.708 2251.14,583.708 2253.3,583.708 2255.47,583.708 2257.63,583.708 2259.79,583.708 2261.95,583.708 2264.11,583.708 2266.28,583.708 2268.44,583.708 2270.6,583.708 2272.76,583.708 2274.92,583.708 2277.09,583.708 2279.25,583.708 2281.41,583.708 2283.57,583.708 2285.73,583.708 2287.9,583.708 2290.06,583.708 2292.22,583.708 2294.38,583.708 2296.54,583.708 2298.71,583.708 2300.87,583.708 2303.03,583.708 2305.19,583.708 2307.35,583.708 2309.52,583.708 2311.68,583.708 2313.84,583.708 2316,583.708 2318.16,583.708 2320.33,583.708 2322.49,583.708 2324.65,583.708 2326.81,583.708 2328.97,583.708 2331.14,583.708 2333.3,583.708 2335.46,583.708 2337.62,583.708 2339.78,583.708 2341.95,583.708 2344.11,583.708 2346.27,583.708 2348.43,583.708 2350.59,583.708 2352.76,583.708 "/>
<path clip-path="url(#clip800)" d="M2039.64 248.629 L2280.76 248.629 L2280.76 93.1086 L2039.64 93.1086  Z" fill="#ffffff" fill-rule="evenodd" fill-opacity="1"/>
<polyline clip-path="url(#clip800)" style="stroke:#000000; stroke-linecap:round; stroke-linejoin:round; stroke-width:4; stroke-opacity:1; fill:none" points="2039.64,248.629 2280.76,248.629 2280.76,93.1086 2039.64,93.1086 2039.64,248.629 "/>
<polyline clip-path="url(#clip800)" style="stroke:#009af9; stroke-linecap:round; stroke-linejoin:round; stroke-width:4; stroke-opacity:1; fill:none" points="2063.64,144.949 2207.63,144.949 "/>
<path clip-path="url(#clip800)" d="M2256.28 136.303 L2246.9 148.919 L2256.76 162.229 L2251.74 162.229 L2244.19 152.043 L2236.65 162.229 L2231.63 162.229 L2241.69 148.664 L2232.48 136.303 L2237.5 136.303 L2244.38 145.539 L2251.25 136.303 L2256.28 136.303 Z" fill="#000000" fill-rule="nonzero" fill-opacity="1" /><polyline clip-path="url(#clip800)" style="stroke:#e26f46; stroke-linecap:round; stroke-linejoin:round; stroke-width:4; stroke-opacity:1; fill:none" points="2063.64,196.789 2207.63,196.789 "/>
<path clip-path="url(#clip800)" d="M2248.13 178.05 L2248.13 181.592 L2244.06 181.592 Q2241.76 181.592 2240.86 182.518 Q2239.98 183.444 2239.98 185.851 L2239.98 188.143 L2247 188.143 L2247 191.453 L2239.98 191.453 L2239.98 214.069 L2235.7 214.069 L2235.7 191.453 L2231.63 191.453 L2231.63 188.143 L2235.7 188.143 L2235.7 186.337 Q2235.7 182.009 2237.71 180.041 Q2239.73 178.05 2244.1 178.05 L2248.13 178.05 Z" fill="#000000" fill-rule="nonzero" fill-opacity="1" /></svg>
