<?xml version="1.0" encoding="utf-8"?>
<svg xmlns="http://www.w3.org/2000/svg" xmlns:xlink="http://www.w3.org/1999/xlink" width="600" height="400" viewBox="0 0 2400 1600">
<defs>
  <clipPath id="clip980">
    <rect x="0" y="0" width="2400" height="1600"/>
  </clipPath>
</defs>
<path clip-path="url(#clip980)" d="M0 1600 L2400 1600 L2400 0 L0 0  Z" fill="#ffffff" fill-rule="evenodd" fill-opacity="1"/>
<defs>
  <clipPath id="clip981">
    <rect x="480" y="0" width="1681" height="1600"/>
  </clipPath>
</defs>
<defs>
  <clipPath id="clip982">
    <rect x="155" y="47" width="2198" height="1440"/>
  </clipPath>
</defs>
<path clip-path="url(#clip982)" d="M-871.495 2391.71 L-871.495 2145.01 L-754.291 2021.66 L-551.288 2092.88 L-551.288 2339.58 L-668.492 2462.93 L-871.495 2391.71  Z" fill="#ffffff" fill-rule="evenodd" fill-opacity="1"/>
<polyline clip-path="url(#clip982)" style="stroke:#000000; stroke-linecap:round; stroke-linejoin:round; stroke-width:2; stroke-opacity:0.1; fill:none" points="707.205,1208.59 1122.67,848.792 1122.67,129.19 "/>
<polyline clip-path="url(#clip982)" style="stroke:#000000; stroke-linecap:round; stroke-linejoin:round; stroke-width:2; stroke-opacity:0.1; fill:none" points="808.706,1237.89 1224.17,878.093 1224.17,158.491 "/>
<polyline clip-path="url(#clip982)" style="stroke:#000000; stroke-linecap:round; stroke-linejoin:round; stroke-width:2; stroke-opacity:0.1; fill:none" points="910.208,1267.19 1325.67,907.394 1325.67,187.792 "/>
<polyline clip-path="url(#clip982)" style="stroke:#000000; stroke-linecap:round; stroke-linejoin:round; stroke-width:2; stroke-opacity:0.1; fill:none" points="1011.71,1296.5 1427.17,936.695 1427.17,217.093 "/>
<polyline clip-path="url(#clip982)" style="stroke:#000000; stroke-linecap:round; stroke-linejoin:round; stroke-width:2; stroke-opacity:0.1; fill:none" points="1113.21,1325.8 1528.67,965.996 1528.67,246.394 "/>
<polyline clip-path="url(#clip982)" style="stroke:#000000; stroke-linecap:round; stroke-linejoin:round; stroke-width:2; stroke-opacity:0.1; fill:none" points="1214.71,1355.1 1630.17,995.297 1630.17,275.695 "/>
<polyline clip-path="url(#clip982)" style="stroke:#000000; stroke-linecap:round; stroke-linejoin:round; stroke-width:2; stroke-opacity:0.1; fill:none" points="1316.21,1384.4 1731.68,1024.6 1731.68,304.996 "/>
<polyline clip-path="url(#clip982)" style="stroke:#000000; stroke-linecap:round; stroke-linejoin:round; stroke-width:2; stroke-opacity:0.1; fill:none" points="1473,1352.67 753.4,1144.94 753.4,425.34 "/>
<polyline clip-path="url(#clip982)" style="stroke:#000000; stroke-linecap:round; stroke-linejoin:round; stroke-width:2; stroke-opacity:0.1; fill:none" points="1544.22,1291 824.617,1083.27 824.617,363.665 "/>
<polyline clip-path="url(#clip982)" style="stroke:#000000; stroke-linecap:round; stroke-linejoin:round; stroke-width:2; stroke-opacity:0.1; fill:none" points="1615.44,1229.32 895.833,1021.59 895.833,301.99 "/>
<polyline clip-path="url(#clip982)" style="stroke:#000000; stroke-linecap:round; stroke-linejoin:round; stroke-width:2; stroke-opacity:0.1; fill:none" points="1686.65,1167.65 967.05,959.916 967.05,240.314 "/>
<polyline clip-path="url(#clip982)" style="stroke:#000000; stroke-linecap:round; stroke-linejoin:round; stroke-width:2; stroke-opacity:0.1; fill:none" points="1757.87,1105.97 1038.27,898.241 1038.27,178.639 "/>
<polyline clip-path="url(#clip982)" style="stroke:#000000; stroke-linecap:round; stroke-linejoin:round; stroke-width:2; stroke-opacity:0.1; fill:none" points="686.728,1150.25 1102.19,790.448 1821.79,998.18 "/>
<polyline clip-path="url(#clip982)" style="stroke:#000000; stroke-linecap:round; stroke-linejoin:round; stroke-width:2; stroke-opacity:0.1; fill:none" points="686.728,1031.89 1102.19,672.086 1821.79,879.817 "/>
<polyline clip-path="url(#clip982)" style="stroke:#000000; stroke-linecap:round; stroke-linejoin:round; stroke-width:2; stroke-opacity:0.1; fill:none" points="686.728,913.524 1102.19,553.723 1821.79,761.454 "/>
<polyline clip-path="url(#clip982)" style="stroke:#000000; stroke-linecap:round; stroke-linejoin:round; stroke-width:2; stroke-opacity:0.1; fill:none" points="686.728,795.162 1102.19,435.361 1821.79,643.092 "/>
<polyline clip-path="url(#clip982)" style="stroke:#000000; stroke-linecap:round; stroke-linejoin:round; stroke-width:2; stroke-opacity:0.1; fill:none" points="686.728,676.799 1102.19,316.998 1821.79,524.729 "/>
<polyline clip-path="url(#clip982)" style="stroke:#000000; stroke-linecap:round; stroke-linejoin:round; stroke-width:2; stroke-opacity:0.1; fill:none" points="686.728,558.436 1102.19,198.635 1821.79,406.367 "/>
<polyline clip-path="url(#clip980)" style="stroke:#000000; stroke-linecap:round; stroke-linejoin:round; stroke-width:4; stroke-opacity:1; fill:none" points="686.728,1202.68 1406.33,1410.41 "/>
<polyline clip-path="url(#clip980)" style="stroke:#000000; stroke-linecap:round; stroke-linejoin:round; stroke-width:4; stroke-opacity:1; fill:none" points="707.205,1208.59 712.19,1204.28 "/>
<polyline clip-path="url(#clip980)" style="stroke:#000000; stroke-linecap:round; stroke-linejoin:round; stroke-width:4; stroke-opacity:1; fill:none" points="808.706,1237.89 813.692,1233.58 "/>
<polyline clip-path="url(#clip980)" style="stroke:#000000; stroke-linecap:round; stroke-linejoin:round; stroke-width:4; stroke-opacity:1; fill:none" points="910.208,1267.19 915.193,1262.88 "/>
<polyline clip-path="url(#clip980)" style="stroke:#000000; stroke-linecap:round; stroke-linejoin:round; stroke-width:4; stroke-opacity:1; fill:none" points="1011.71,1296.5 1016.69,1292.18 "/>
<polyline clip-path="url(#clip980)" style="stroke:#000000; stroke-linecap:round; stroke-linejoin:round; stroke-width:4; stroke-opacity:1; fill:none" points="1113.21,1325.8 1118.2,1321.48 "/>
<polyline clip-path="url(#clip980)" style="stroke:#000000; stroke-linecap:round; stroke-linejoin:round; stroke-width:4; stroke-opacity:1; fill:none" points="1214.71,1355.1 1219.7,1350.78 "/>
<polyline clip-path="url(#clip980)" style="stroke:#000000; stroke-linecap:round; stroke-linejoin:round; stroke-width:4; stroke-opacity:1; fill:none" points="1316.21,1384.4 1321.2,1380.08 "/>
<path clip-path="url(#clip980)" d="M690.541 1234.41 Q693.898 1235.13 695.773 1237.4 Q697.671 1239.67 697.671 1243 Q697.671 1248.12 694.152 1250.92 Q690.634 1253.72 684.152 1253.72 Q681.976 1253.72 679.662 1253.28 Q677.37 1252.86 674.916 1252.01 L674.916 1247.49 Q676.861 1248.63 679.176 1249.21 Q681.49 1249.79 684.013 1249.79 Q688.412 1249.79 690.703 1248.05 Q693.018 1246.31 693.018 1243 Q693.018 1239.95 690.865 1238.23 Q688.736 1236.5 684.916 1236.5 L680.888 1236.5 L680.888 1232.66 L685.101 1232.66 Q688.55 1232.66 690.379 1231.29 Q692.208 1229.9 692.208 1227.31 Q692.208 1224.65 690.31 1223.23 Q688.435 1221.8 684.916 1221.8 Q682.995 1221.8 680.796 1222.22 Q678.597 1222.63 675.958 1223.51 L675.958 1219.35 Q678.62 1218.6 680.935 1218.23 Q683.273 1217.86 685.333 1217.86 Q690.657 1217.86 693.759 1220.29 Q696.861 1222.7 696.861 1226.82 Q696.861 1229.69 695.217 1231.68 Q693.574 1233.65 690.541 1234.41 Z" fill="#000000" fill-rule="nonzero" fill-opacity="1" /><path clip-path="url(#clip980)" d="M789.589 1251.86 L777.784 1270.31 L789.589 1270.31 L789.589 1251.86 M788.362 1247.79 L794.242 1247.79 L794.242 1270.31 L799.172 1270.31 L799.172 1274.2 L794.242 1274.2 L794.242 1282.35 L789.589 1282.35 L789.589 1274.2 L773.987 1274.2 L773.987 1269.69 L788.362 1247.79 Z" fill="#000000" fill-rule="nonzero" fill-opacity="1" /><path clip-path="url(#clip980)" d="M879.771 1277.09 L898.128 1277.09 L898.128 1281.03 L884.054 1281.03 L884.054 1289.5 Q885.072 1289.15 886.091 1288.99 Q887.109 1288.8 888.128 1288.8 Q893.915 1288.8 897.294 1291.98 Q900.674 1295.15 900.674 1300.56 Q900.674 1306.14 897.202 1309.24 Q893.729 1312.32 887.41 1312.32 Q885.234 1312.32 882.966 1311.95 Q880.72 1311.58 878.313 1310.84 L878.313 1306.14 Q880.396 1307.28 882.618 1307.83 Q884.841 1308.39 887.317 1308.39 Q891.322 1308.39 893.66 1306.28 Q895.998 1304.17 895.998 1300.56 Q895.998 1296.95 893.66 1294.85 Q891.322 1292.74 887.317 1292.74 Q885.442 1292.74 883.567 1293.16 Q881.716 1293.57 879.771 1294.45 L879.771 1277.09 Z" fill="#000000" fill-rule="nonzero" fill-opacity="1" /><path clip-path="url(#clip980)" d="M990.648 1321.81 Q987.5 1321.81 985.648 1323.96 Q983.819 1326.11 983.819 1329.86 Q983.819 1333.59 985.648 1335.77 Q987.5 1337.92 990.648 1337.92 Q993.796 1337.92 995.624 1335.77 Q997.476 1333.59 997.476 1329.86 Q997.476 1326.11 995.624 1323.96 Q993.796 1321.81 990.648 1321.81 M999.93 1307.16 L999.93 1311.42 Q998.171 1310.58 996.365 1310.14 Q994.583 1309.7 992.824 1309.7 Q988.194 1309.7 985.74 1312.83 Q983.31 1315.95 982.963 1322.27 Q984.328 1320.26 986.388 1319.19 Q988.449 1318.1 990.925 1318.1 Q996.134 1318.1 999.143 1321.28 Q1002.18 1324.42 1002.18 1329.86 Q1002.18 1335.19 999.027 1338.41 Q995.879 1341.62 990.648 1341.62 Q984.652 1341.62 981.481 1337.04 Q978.31 1332.43 978.31 1323.71 Q978.31 1315.51 982.199 1310.65 Q986.088 1305.77 992.638 1305.77 Q994.398 1305.77 996.18 1306.11 Q997.986 1306.46 999.93 1307.16 Z" fill="#000000" fill-rule="nonzero" fill-opacity="1" /><path clip-path="url(#clip980)" d="M1081.45 1335.69 L1103.68 1335.69 L1103.68 1337.68 L1091.13 1370.25 L1086.25 1370.25 L1098.05 1339.63 L1081.45 1339.63 L1081.45 1335.69 Z" fill="#000000" fill-rule="nonzero" fill-opacity="1" /><path clip-path="url(#clip980)" d="M1193.33 1383.14 Q1189.99 1383.14 1188.07 1384.92 Q1186.17 1386.71 1186.17 1389.83 Q1186.17 1392.96 1188.07 1394.74 Q1189.99 1396.52 1193.33 1396.52 Q1196.66 1396.52 1198.58 1394.74 Q1200.5 1392.93 1200.5 1389.83 Q1200.5 1386.71 1198.58 1384.92 Q1196.68 1383.14 1193.33 1383.14 M1188.65 1381.15 Q1185.64 1380.41 1183.95 1378.35 Q1182.29 1376.29 1182.29 1373.33 Q1182.29 1369.18 1185.22 1366.78 Q1188.19 1364.37 1193.33 1364.37 Q1198.49 1364.37 1201.43 1366.78 Q1204.37 1369.18 1204.37 1373.33 Q1204.37 1376.29 1202.68 1378.35 Q1201.01 1380.41 1198.03 1381.15 Q1201.41 1381.94 1203.28 1384.23 Q1205.18 1386.52 1205.18 1389.83 Q1205.18 1394.85 1202.1 1397.54 Q1199.04 1400.23 1193.33 1400.23 Q1187.61 1400.23 1184.53 1397.54 Q1181.47 1394.85 1181.47 1389.83 Q1181.47 1386.52 1183.37 1384.23 Q1185.27 1381.94 1188.65 1381.15 M1186.94 1373.77 Q1186.94 1376.45 1188.6 1377.96 Q1190.29 1379.46 1193.33 1379.46 Q1196.34 1379.46 1198.03 1377.96 Q1199.74 1376.45 1199.74 1373.77 Q1199.74 1371.08 1198.03 1369.58 Q1196.34 1368.07 1193.33 1368.07 Q1190.29 1368.07 1188.6 1369.58 Q1186.94 1371.08 1186.94 1373.77 Z" fill="#000000" fill-rule="nonzero" fill-opacity="1" /><path clip-path="url(#clip980)" d="M1285.06 1428.14 L1285.06 1423.88 Q1286.82 1424.71 1288.62 1425.15 Q1290.43 1425.59 1292.17 1425.59 Q1296.8 1425.59 1299.23 1422.49 Q1301.68 1419.36 1302.03 1413.02 Q1300.68 1415.01 1298.62 1416.08 Q1296.56 1417.14 1294.06 1417.14 Q1288.88 1417.14 1285.85 1414.02 Q1282.84 1410.87 1282.84 1405.43 Q1282.84 1400.1 1285.99 1396.89 Q1289.13 1393.67 1294.37 1393.67 Q1300.36 1393.67 1303.51 1398.28 Q1306.68 1402.86 1306.68 1411.61 Q1306.68 1419.78 1302.79 1424.67 Q1298.93 1429.53 1292.37 1429.53 Q1290.62 1429.53 1288.81 1429.18 Q1287 1428.83 1285.06 1428.14 M1294.37 1413.48 Q1297.51 1413.48 1299.34 1411.33 Q1301.19 1409.18 1301.19 1405.43 Q1301.19 1401.7 1299.34 1399.55 Q1297.51 1397.37 1294.37 1397.37 Q1291.22 1397.37 1289.37 1399.55 Q1287.54 1401.7 1287.54 1405.43 Q1287.54 1409.18 1289.37 1411.33 Q1291.22 1413.48 1294.37 1413.48 Z" fill="#000000" fill-rule="nonzero" fill-opacity="1" /><polyline clip-path="url(#clip980)" style="stroke:#000000; stroke-linecap:round; stroke-linejoin:round; stroke-width:4; stroke-opacity:1; fill:none" points="1406.33,1410.41 1821.79,1050.61 "/>
<polyline clip-path="url(#clip980)" style="stroke:#000000; stroke-linecap:round; stroke-linejoin:round; stroke-width:4; stroke-opacity:1; fill:none" points="1473,1352.67 1464.37,1350.18 "/>
<polyline clip-path="url(#clip980)" style="stroke:#000000; stroke-linecap:round; stroke-linejoin:round; stroke-width:4; stroke-opacity:1; fill:none" points="1544.22,1291 1535.58,1288.51 "/>
<polyline clip-path="url(#clip980)" style="stroke:#000000; stroke-linecap:round; stroke-linejoin:round; stroke-width:4; stroke-opacity:1; fill:none" points="1615.44,1229.32 1606.8,1226.83 "/>
<polyline clip-path="url(#clip980)" style="stroke:#000000; stroke-linecap:round; stroke-linejoin:round; stroke-width:4; stroke-opacity:1; fill:none" points="1686.65,1167.65 1678.02,1165.15 "/>
<polyline clip-path="url(#clip980)" style="stroke:#000000; stroke-linecap:round; stroke-linejoin:round; stroke-width:4; stroke-opacity:1; fill:none" points="1757.87,1105.97 1749.23,1103.48 "/>
<path clip-path="url(#clip980)" d="M1509.48 1359.31 L1497.68 1377.75 L1509.48 1377.75 L1509.48 1359.31 M1508.26 1355.23 L1514.14 1355.23 L1514.14 1377.75 L1519.07 1377.75 L1519.07 1381.64 L1514.14 1381.64 L1514.14 1389.79 L1509.48 1389.79 L1509.48 1381.64 L1493.88 1381.64 L1493.88 1377.13 L1508.26 1355.23 Z" fill="#000000" fill-rule="nonzero" fill-opacity="1" /><path clip-path="url(#clip980)" d="M1566.56 1293.56 L1584.91 1293.56 L1584.91 1297.49 L1570.84 1297.49 L1570.84 1305.96 Q1571.86 1305.62 1572.87 1305.45 Q1573.89 1305.27 1574.91 1305.27 Q1580.7 1305.27 1584.08 1308.44 Q1587.46 1311.61 1587.46 1317.03 Q1587.46 1322.61 1583.99 1325.71 Q1580.51 1328.79 1574.19 1328.79 Q1572.02 1328.79 1569.75 1328.42 Q1567.5 1328.05 1565.1 1327.31 L1565.1 1322.61 Q1567.18 1323.74 1569.4 1324.3 Q1571.62 1324.85 1574.1 1324.85 Q1578.11 1324.85 1580.44 1322.75 Q1582.78 1320.64 1582.78 1317.03 Q1582.78 1313.42 1580.44 1311.31 Q1578.11 1309.2 1574.1 1309.2 Q1572.23 1309.2 1570.35 1309.62 Q1568.5 1310.04 1566.56 1310.92 L1566.56 1293.56 Z" fill="#000000" fill-rule="nonzero" fill-opacity="1" /><path clip-path="url(#clip980)" d="M1648.65 1247.3 Q1645.5 1247.3 1643.65 1249.45 Q1641.82 1251.6 1641.82 1255.35 Q1641.82 1259.08 1643.65 1261.26 Q1645.5 1263.41 1648.65 1263.41 Q1651.8 1263.41 1653.63 1261.26 Q1655.48 1259.08 1655.48 1255.35 Q1655.48 1251.6 1653.63 1249.45 Q1651.8 1247.3 1648.65 1247.3 M1657.93 1232.64 L1657.93 1236.9 Q1656.17 1236.07 1654.37 1235.63 Q1652.59 1235.19 1650.83 1235.19 Q1646.2 1235.19 1643.74 1238.32 Q1641.31 1241.44 1640.97 1247.76 Q1642.33 1245.75 1644.39 1244.68 Q1646.45 1243.59 1648.93 1243.59 Q1654.14 1243.59 1657.15 1246.76 Q1660.18 1249.91 1660.18 1255.35 Q1660.18 1260.68 1657.03 1263.89 Q1653.88 1267.11 1648.65 1267.11 Q1642.66 1267.11 1639.48 1262.53 Q1636.31 1257.92 1636.31 1249.2 Q1636.31 1241 1640.2 1236.14 Q1644.09 1231.26 1650.64 1231.26 Q1652.4 1231.26 1654.18 1231.6 Q1655.99 1231.95 1657.93 1232.64 Z" fill="#000000" fill-rule="nonzero" fill-opacity="1" /><path clip-path="url(#clip980)" d="M1707.53 1170.21 L1729.75 1170.21 L1729.75 1172.2 L1717.21 1204.77 L1712.32 1204.77 L1724.13 1174.14 L1707.53 1174.14 L1707.53 1170.21 Z" fill="#000000" fill-rule="nonzero" fill-opacity="1" /><path clip-path="url(#clip980)" d="M1790.6 1126.68 Q1787.26 1126.68 1785.34 1128.46 Q1783.45 1130.24 1783.45 1133.37 Q1783.45 1136.49 1785.34 1138.28 Q1787.26 1140.06 1790.6 1140.06 Q1793.93 1140.06 1795.85 1138.28 Q1797.77 1136.47 1797.77 1133.37 Q1797.77 1130.24 1795.85 1128.46 Q1793.95 1126.68 1790.6 1126.68 M1785.92 1124.69 Q1782.91 1123.95 1781.22 1121.89 Q1779.56 1119.83 1779.56 1116.86 Q1779.56 1112.72 1782.5 1110.31 Q1785.46 1107.91 1790.6 1107.91 Q1795.76 1107.91 1798.7 1110.31 Q1801.64 1112.72 1801.64 1116.86 Q1801.64 1119.83 1799.95 1121.89 Q1798.28 1123.95 1795.3 1124.69 Q1798.68 1125.47 1800.55 1127.77 Q1802.45 1130.06 1802.45 1133.37 Q1802.45 1138.39 1799.37 1141.08 Q1796.32 1143.76 1790.6 1143.76 Q1784.88 1143.76 1781.8 1141.08 Q1778.75 1138.39 1778.75 1133.37 Q1778.75 1130.06 1780.64 1127.77 Q1782.54 1125.47 1785.92 1124.69 M1784.21 1117.3 Q1784.21 1119.99 1785.88 1121.49 Q1787.57 1123 1790.6 1123 Q1793.61 1123 1795.3 1121.49 Q1797.01 1119.99 1797.01 1117.3 Q1797.01 1114.62 1795.3 1113.11 Q1793.61 1111.61 1790.6 1111.61 Q1787.57 1111.61 1785.88 1113.11 Q1784.21 1114.62 1784.21 1117.3 Z" fill="#000000" fill-rule="nonzero" fill-opacity="1" /><polyline clip-path="url(#clip980)" style="stroke:#000000; stroke-linecap:round; stroke-linejoin:round; stroke-width:4; stroke-opacity:1; fill:none" points="686.728,1202.68 686.728,483.08 "/>
<polyline clip-path="url(#clip980)" style="stroke:#000000; stroke-linecap:round; stroke-linejoin:round; stroke-width:4; stroke-opacity:1; fill:none" points="686.728,1150.25 691.714,1145.93 "/>
<polyline clip-path="url(#clip980)" style="stroke:#000000; stroke-linecap:round; stroke-linejoin:round; stroke-width:4; stroke-opacity:1; fill:none" points="686.728,1031.89 691.714,1027.57 "/>
<polyline clip-path="url(#clip980)" style="stroke:#000000; stroke-linecap:round; stroke-linejoin:round; stroke-width:4; stroke-opacity:1; fill:none" points="686.728,913.524 691.714,909.207 "/>
<polyline clip-path="url(#clip980)" style="stroke:#000000; stroke-linecap:round; stroke-linejoin:round; stroke-width:4; stroke-opacity:1; fill:none" points="686.728,795.162 691.714,790.844 "/>
<polyline clip-path="url(#clip980)" style="stroke:#000000; stroke-linecap:round; stroke-linejoin:round; stroke-width:4; stroke-opacity:1; fill:none" points="686.728,676.799 691.714,672.481 "/>
<polyline clip-path="url(#clip980)" style="stroke:#000000; stroke-linecap:round; stroke-linejoin:round; stroke-width:4; stroke-opacity:1; fill:none" points="686.728,558.436 691.714,554.119 "/>
<path clip-path="url(#clip980)" d="M601.748 1136.05 Q598.137 1136.05 596.308 1139.61 Q594.503 1143.15 594.503 1150.28 Q594.503 1157.39 596.308 1160.96 Q598.137 1164.5 601.748 1164.5 Q605.382 1164.5 607.188 1160.96 Q609.017 1157.39 609.017 1150.28 Q609.017 1143.15 607.188 1139.61 Q605.382 1136.05 601.748 1136.05 M601.748 1132.34 Q607.558 1132.34 610.614 1136.95 Q613.692 1141.53 613.692 1150.28 Q613.692 1159.01 610.614 1163.62 Q607.558 1168.2 601.748 1168.2 Q595.938 1168.2 592.859 1163.62 Q589.804 1159.01 589.804 1150.28 Q589.804 1141.53 592.859 1136.95 Q595.938 1132.34 601.748 1132.34 Z" fill="#000000" fill-rule="nonzero" fill-opacity="1" /><path clip-path="url(#clip980)" d="M621.91 1161.65 L626.794 1161.65 L626.794 1167.53 L621.91 1167.53 L621.91 1161.65 Z" fill="#000000" fill-rule="nonzero" fill-opacity="1" /><path clip-path="url(#clip980)" d="M637.026 1132.97 L655.382 1132.97 L655.382 1136.9 L641.308 1136.9 L641.308 1145.38 Q642.327 1145.03 643.345 1144.87 Q644.364 1144.68 645.382 1144.68 Q651.169 1144.68 654.549 1147.85 Q657.928 1151.02 657.928 1156.44 Q657.928 1162.02 654.456 1165.12 Q650.984 1168.2 644.664 1168.2 Q642.489 1168.2 640.22 1167.83 Q637.975 1167.46 635.567 1166.72 L635.567 1162.02 Q637.651 1163.15 639.873 1163.71 Q642.095 1164.27 644.572 1164.27 Q648.576 1164.27 650.914 1162.16 Q653.252 1160.05 653.252 1156.44 Q653.252 1152.83 650.914 1150.72 Q648.576 1148.62 644.572 1148.62 Q642.697 1148.62 640.822 1149.03 Q638.97 1149.45 637.026 1150.33 L637.026 1132.97 Z" fill="#000000" fill-rule="nonzero" fill-opacity="1" /><path clip-path="url(#clip980)" d="M591.563 1045.23 L599.202 1045.23 L599.202 1018.87 L590.892 1020.53 L590.892 1016.27 L599.155 1014.61 L603.831 1014.61 L603.831 1045.23 L611.47 1045.23 L611.47 1049.17 L591.563 1049.17 L591.563 1045.23 Z" fill="#000000" fill-rule="nonzero" fill-opacity="1" /><path clip-path="url(#clip980)" d="M620.915 1043.29 L625.799 1043.29 L625.799 1049.17 L620.915 1049.17 L620.915 1043.29 Z" fill="#000000" fill-rule="nonzero" fill-opacity="1" /><path clip-path="url(#clip980)" d="M645.984 1017.69 Q642.373 1017.69 640.544 1021.25 Q638.739 1024.79 638.739 1031.92 Q638.739 1039.03 640.544 1042.59 Q642.373 1046.13 645.984 1046.13 Q649.618 1046.13 651.424 1042.59 Q653.252 1039.03 653.252 1031.92 Q653.252 1024.79 651.424 1021.25 Q649.618 1017.69 645.984 1017.69 M645.984 1013.98 Q651.794 1013.98 654.85 1018.59 Q657.928 1023.17 657.928 1031.92 Q657.928 1040.65 654.85 1045.25 Q651.794 1049.84 645.984 1049.84 Q640.174 1049.84 637.095 1045.25 Q634.04 1040.65 634.04 1031.92 Q634.04 1023.17 637.095 1018.59 Q640.174 1013.98 645.984 1013.98 Z" fill="#000000" fill-rule="nonzero" fill-opacity="1" /><path clip-path="url(#clip980)" d="M592.558 926.869 L600.197 926.869 L600.197 900.503 L591.887 902.17 L591.887 897.911 L600.151 896.244 L604.827 896.244 L604.827 926.869 L612.466 926.869 L612.466 930.804 L592.558 930.804 L592.558 926.869 Z" fill="#000000" fill-rule="nonzero" fill-opacity="1" /><path clip-path="url(#clip980)" d="M621.91 924.925 L626.794 924.925 L626.794 930.804 L621.91 930.804 L621.91 924.925 Z" fill="#000000" fill-rule="nonzero" fill-opacity="1" /><path clip-path="url(#clip980)" d="M637.026 896.244 L655.382 896.244 L655.382 900.179 L641.308 900.179 L641.308 908.652 Q642.327 908.304 643.345 908.142 Q644.364 907.957 645.382 907.957 Q651.169 907.957 654.549 911.128 Q657.928 914.3 657.928 919.716 Q657.928 925.295 654.456 928.397 Q650.984 931.475 644.664 931.475 Q642.489 931.475 640.22 931.105 Q637.975 930.735 635.567 929.994 L635.567 925.295 Q637.651 926.429 639.873 926.985 Q642.095 927.54 644.572 927.54 Q648.576 927.54 650.914 925.434 Q653.252 923.327 653.252 919.716 Q653.252 916.105 650.914 913.999 Q648.576 911.892 644.572 911.892 Q642.697 911.892 640.822 912.309 Q638.97 912.726 637.026 913.605 L637.026 896.244 Z" fill="#000000" fill-rule="nonzero" fill-opacity="1" /><path clip-path="url(#clip980)" d="M594.78 808.506 L611.1 808.506 L611.1 812.442 L589.156 812.442 L589.156 808.506 Q591.818 805.752 596.401 801.122 Q601.007 796.469 602.188 795.127 Q604.433 792.604 605.313 790.868 Q606.216 789.108 606.216 787.419 Q606.216 784.664 604.271 782.928 Q602.35 781.192 599.248 781.192 Q597.049 781.192 594.595 781.956 Q592.165 782.719 589.387 784.27 L589.387 779.548 Q592.211 778.414 594.665 777.835 Q597.118 777.257 599.155 777.257 Q604.526 777.257 607.72 779.942 Q610.915 782.627 610.915 787.118 Q610.915 789.247 610.104 791.169 Q609.317 793.067 607.211 795.659 Q606.632 796.331 603.53 799.548 Q600.429 802.743 594.78 808.506 Z" fill="#000000" fill-rule="nonzero" fill-opacity="1" /><path clip-path="url(#clip980)" d="M620.915 806.562 L625.799 806.562 L625.799 812.442 L620.915 812.442 L620.915 806.562 Z" fill="#000000" fill-rule="nonzero" fill-opacity="1" /><path clip-path="url(#clip980)" d="M645.984 780.96 Q642.373 780.96 640.544 784.525 Q638.739 788.067 638.739 795.196 Q638.739 802.303 640.544 805.868 Q642.373 809.409 645.984 809.409 Q649.618 809.409 651.424 805.868 Q653.252 802.303 653.252 795.196 Q653.252 788.067 651.424 784.525 Q649.618 780.96 645.984 780.96 M645.984 777.257 Q651.794 777.257 654.85 781.863 Q657.928 786.446 657.928 795.196 Q657.928 803.923 654.85 808.53 Q651.794 813.113 645.984 813.113 Q640.174 813.113 637.095 808.53 Q634.04 803.923 634.04 795.196 Q634.04 786.446 637.095 781.863 Q640.174 777.257 645.984 777.257 Z" fill="#000000" fill-rule="nonzero" fill-opacity="1" /><path clip-path="url(#clip980)" d="M595.776 690.144 L612.095 690.144 L612.095 694.079 L590.151 694.079 L590.151 690.144 Q592.813 687.389 597.396 682.76 Q602.003 678.107 603.183 676.764 Q605.429 674.241 606.308 672.505 Q607.211 670.746 607.211 669.056 Q607.211 666.301 605.267 664.565 Q603.345 662.829 600.243 662.829 Q598.044 662.829 595.591 663.593 Q593.16 664.357 590.382 665.908 L590.382 661.186 Q593.206 660.051 595.66 659.473 Q598.114 658.894 600.151 658.894 Q605.521 658.894 608.716 661.579 Q611.91 664.264 611.91 668.755 Q611.91 670.885 611.1 672.806 Q610.313 674.704 608.206 677.297 Q607.628 677.968 604.526 681.185 Q601.424 684.38 595.776 690.144 Z" fill="#000000" fill-rule="nonzero" fill-opacity="1" /><path clip-path="url(#clip980)" d="M621.91 688.199 L626.794 688.199 L626.794 694.079 L621.91 694.079 L621.91 688.199 Z" fill="#000000" fill-rule="nonzero" fill-opacity="1" /><path clip-path="url(#clip980)" d="M637.026 659.519 L655.382 659.519 L655.382 663.454 L641.308 663.454 L641.308 671.926 Q642.327 671.579 643.345 671.417 Q644.364 671.232 645.382 671.232 Q651.169 671.232 654.549 674.403 Q657.928 677.574 657.928 682.991 Q657.928 688.57 654.456 691.672 Q650.984 694.75 644.664 694.75 Q642.489 694.75 640.22 694.38 Q637.975 694.009 635.567 693.269 L635.567 688.57 Q637.651 689.704 639.873 690.26 Q642.095 690.815 644.572 690.815 Q648.576 690.815 650.914 688.709 Q653.252 686.602 653.252 682.991 Q653.252 679.38 650.914 677.273 Q648.576 675.167 644.572 675.167 Q642.697 675.167 640.822 675.584 Q638.97 676 637.026 676.88 L637.026 659.519 Z" fill="#000000" fill-rule="nonzero" fill-opacity="1" /><path clip-path="url(#clip980)" d="M604.919 557.082 Q608.276 557.8 610.151 560.068 Q612.049 562.337 612.049 565.67 Q612.049 570.786 608.53 573.587 Q605.012 576.388 598.53 576.388 Q596.355 576.388 594.04 575.948 Q591.748 575.531 589.294 574.675 L589.294 570.161 Q591.239 571.295 593.554 571.874 Q595.868 572.452 598.392 572.452 Q602.79 572.452 605.081 570.716 Q607.396 568.98 607.396 565.67 Q607.396 562.615 605.243 560.902 Q603.114 559.165 599.294 559.165 L595.267 559.165 L595.267 555.323 L599.48 555.323 Q602.929 555.323 604.757 553.957 Q606.586 552.568 606.586 549.976 Q606.586 547.314 604.688 545.902 Q602.813 544.466 599.294 544.466 Q597.373 544.466 595.174 544.883 Q592.975 545.3 590.336 546.179 L590.336 542.013 Q592.998 541.272 595.313 540.902 Q597.651 540.531 599.711 540.531 Q605.035 540.531 608.137 542.962 Q611.239 545.369 611.239 549.49 Q611.239 552.36 609.595 554.351 Q607.952 556.318 604.919 557.082 Z" fill="#000000" fill-rule="nonzero" fill-opacity="1" /><path clip-path="url(#clip980)" d="M620.915 569.837 L625.799 569.837 L625.799 575.716 L620.915 575.716 L620.915 569.837 Z" fill="#000000" fill-rule="nonzero" fill-opacity="1" /><path clip-path="url(#clip980)" d="M645.984 544.235 Q642.373 544.235 640.544 547.8 Q638.739 551.341 638.739 558.471 Q638.739 565.577 640.544 569.142 Q642.373 572.684 645.984 572.684 Q649.618 572.684 651.424 569.142 Q653.252 565.577 653.252 558.471 Q653.252 551.341 651.424 547.8 Q649.618 544.235 645.984 544.235 M645.984 540.531 Q651.794 540.531 654.85 545.138 Q657.928 549.721 657.928 558.471 Q657.928 567.198 654.85 571.804 Q651.794 576.388 645.984 576.388 Q640.174 576.388 637.095 571.804 Q634.04 567.198 634.04 558.471 Q634.04 549.721 637.095 545.138 Q640.174 540.531 645.984 540.531 Z" fill="#000000" fill-rule="nonzero" fill-opacity="1" /><polyline clip-path="url(#clip982)" style="stroke:#009af9; stroke-linecap:round; stroke-linejoin:round; stroke-width:4; stroke-opacity:1; fill:none" points="1048.1,976.985 1045.35,978.402 1051.58,975.638 1048.52,977.146 1050.33,976.421 1048.59,977.36 1049.22,977.207 1042.29,980.563 1047.89,978.157 1044.45,979.881 1056.5,974.523 1053.8,975.876 1064.93,970.88 1063.11,971.734 1058.97,973.748 1046.29,979.733 1050.8,978.004 1038.14,984.207 1031.21,988.162 1024.54,991.955 1005.66,1001.96 1017.62,997.576 1010.02,1002.01 1044.68,986.683 1058.71,979.412 1079.99,968.332 1101.17,956.367 1165.41,920.264 1111.73,940.834 1123.88,933.126 1121.58,933.057 1160.59,908.417 1150.82,909.822 1142.52,911.671 1149.8,911.329 1177.73,892.655 1159.87,901.483 1194.92,881.113 1278.99,824.811 1359.73,767.767 1348.82,757.4 1377.2,735.692 1366.72,742.526 1386.72,721.458 1362.38,731.667 1376.41,717.215 1393.47,715.606 1381.4,723.019 1361.96,739.626 1351.76,749.317 1378.98,728.163 1284.69,807.082 1409.5,728.13 1407.22,718.964 1406.47,713.282 1302.19,778.594 1236.42,831.07 1213.66,850.661 1153.31,893.055 1151.85,907.512 1067.15,959.802 1074.65,960.917 1059.41,976.292 992.142,1015.19 958.489,1030.76 1066.3,974.833 1072.98,966.398 1092.29,952.178 1154.03,919.143 1177.45,896.445 1336.69,791.698 1507.77,661.395 1620.19,558.799 1526.4,598.092 1488.05,616.932 1466.13,643.669 1485.03,634.203 1369.12,717.235 1414.9,697.993 1376.01,721.48 1442.33,687.049 1480.79,648.731 1582.46,574.353 1503.79,617.289 1578.86,568.289 1594.75,525.442 1543.15,566.844 1592.88,544.159 1627.27,517.874 1614.36,520.033 1446.87,638.966 1466.31,642.943 1438.45,667.694 1304.89,761.511 1349.93,749.556 1272.9,801.687 1194.67,855.432 1216.92,854.222 1186.46,878.324 1204.12,872.812 1148.36,903.621 1183.09,888.321 1103.02,933.507 1094.75,945.848 1131.28,927.064 1121.63,935.383 1161.21,901.159 1145.56,907.511 1143.51,913.363 1143.19,909.449 1270.82,832.485 1320.75,795.864 1301.95,792.199 1283.53,803.435 1251.73,821.449 1214.41,848.004 1144.29,899.199 1071.24,945.365 1079.99,953.017 1108.34,942.026 1070.36,963.544 1079.73,963.79 1127.13,933.185 1207.36,878.272 1232.66,855.346 1198,863.389 1179.35,872.01 1133.87,902.151 1075.69,944.413 1011.51,990.615 1098.66,952.98 1112.76,944.225 1125.95,928.349 1116.09,939.02 1091.93,948.062 1101.92,942.513 1067.58,958.729 1065.43,967.904 1119.51,937.447 1148.65,916.449 1190.86,891.148 1185.72,873.237 1118.64,920.559 1149.96,902.387 1065.09,957.196 1095.6,946.452 1124.15,931.583 1198.05,883.625 1163.2,897.133 1186.12,876.812 1170.42,878.32 1128.2,920.59 1060.87,963.365 1061.93,967.08 1091.09,951.675 1027.4,993.935 1104.54,951.936 1055.72,970.226 1058.64,970.449 998.707,1006.66 997.385,1014.32 961.797,1029.74 948.611,1044.36 957.667,1043.56 1071.28,973.362 1068.1,962.412 1077.83,956.393 1108.93,931.62 1186.16,886.482 1139.26,913.476 1079.18,960.011 1214.65,862.756 1235.44,850.491 1212.55,859.651 1233.56,840.834 1291.57,794.263 1293.51,798.21 1326.39,771.184 1410.69,713.152 1363.62,752.593 1424.25,713.368 1393.66,725.663 1428.05,669.975 1412.97,697.874 1349.77,743.636 1299.04,786.513 1285.25,797.33 1341.53,767.277 1330.79,774.214 1413.41,707.016 1400.04,707.746 1376.22,710.266 1436.95,682.837 1302.36,786.968 1250.94,819.335 1211.36,846.29 1186.38,879.144 1166.21,894.895 1185.16,886.368 1217.45,865.044 1255.76,828.59 1314.44,790.919 1354.54,765.886 1406.5,716.041 1454.65,673.487 1475.6,652.887 1463.36,660.846 1472.73,656.332 1485.05,651.416 1460.37,657.291 1382.06,717.393 1355.43,742.008 1269.19,797.464 1223.79,838.672 1269.79,819.741 1229.2,838.823 1170.5,881.551 1155.45,894.226 1073.62,947.63 1000.26,995.661 979.926,1014.71 1002.94,1008.8 999.207,1014.6 904.775,1064.77 924.348,1057.77 896.927,1074.06 954.355,1047.55 982.055,1027.8 1055.76,986.213 1060.97,974.09 1037.84,990.854 986.739,1019.5 1038.7,997.658 1034.21,994.355 1053.77,985.337 1142.77,926.319 1062.97,967.54 1147.67,920.999 1131.82,924.13 1113.98,932.076 1127.57,924.62 1108.55,941.357 1118.46,933.785 1090.01,946.843 1060.45,961.941 1027.13,978.163 1099.99,947.657 1070.85,979.064 1097.09,950.02 1037.67,980.945 1060.07,974.65 1071.03,958.073 996.476,1003.35 1057.08,972.663 1022.4,1003.92 1042.98,992.749 980.753,1035.02 1065.75,976.235 1112.25,946.694 1052.03,975.084 1112.81,934.195 1086.48,948.246 1085.44,948.741 1122.13,926.202 1071.56,974.468 1202.12,891.862 1213.02,859.824 1145.73,905.106 1220.72,855.398 1249.14,828.722 1272.73,815.788 1165.14,887.826 1218.35,859.227 1220.31,852.768 1231.34,844.819 1294.28,800.013 1310.01,784.125 1330.25,775.017 1254.47,815.213 1235.74,826.863 1269.67,814.514 1364.04,749.394 1283.77,808.525 1372.68,722.553 1334.46,761.62 1335.71,763.569 1317.33,785.688 1221.02,843.844 1224.3,846.734 1159.13,896.038 1168.05,892.322 1136.09,907.882 1144.85,908.977 1061.43,967.963 1120.12,936.597 1160.26,907.216 1069.2,957.175 1031.13,981.241 1064.62,970.745 1158.65,914.329 1237.53,856.873 1254.63,831.808 1299.88,800.204 1315.43,777.909 1281.27,796.254 1223.31,835.007 1264.84,817.355 1205.83,854.185 1292.35,806.965 1353.21,757.578 1422.61,707.927 1453.77,673.046 1368.2,725.039 1413.93,699.759 1446.14,659.161 1477.28,642.41 1430.7,682.848 1334.35,748.073 1325.23,771.902 1288.5,798.303 1191.42,862.142 1112.62,914.189 1163.68,897.829 1163.59,895.649 1114.9,929.625 1201.93,882.786 1187.14,884.387 1295.23,830.191 1373.48,767.372 1359.2,764.619 1371.58,753.253 1389.1,734.288 1315.39,772.912 1322.87,774.073 1315.27,776.779 1300.1,781.08 1393.4,717.564 1333.88,753.885 1354.3,751.026 1350.42,752.458 1348.19,748.59 1413.42,718.438 1421.18,704.722 1467.93,654.026 1327.68,754.973 1315.09,769.776 1354.68,745.14 1447.52,673.899 1553.94,595.94 1582.1,554.41 1563.16,563.014 1437.15,655.369 1243.05,790.65 1191.14,841.451 1208.75,847.101 1166.35,881.173 1169.22,887.892 1166.98,893.541 1044.09,966.075 1042.45,976.961 1094.71,955.446 1075.25,964.768 1078.45,963.015 1046.31,981.451 987.66,1011.92 997.902,1011.34 1002.51,1014.06 1040.51,992.655 1019.55,1000.47 1038.34,991.649 1072.62,974.653 1108.46,953.147 1164.56,920.499 1241.04,860.447 1251.22,847.795 1255.39,828 1215.82,864.162 1228.47,838.061 1231.99,839.876 1398.96,734.142 1330.17,763.448 1417.03,705.486 1497.55,631.882 1500.47,627.289 1416.4,676.678 1411.21,684.571 1344.51,744.743 1298.61,779.404 1250.32,816.216 1211.13,847.99 1168.26,882.582 1159.46,889.802 1136.11,910.934 1114.44,929.128 1082.06,948.667 1018.56,984.735 1097.23,948.753 1061.27,968.503 1139.44,917.683 1134.4,920.23 1126.44,928.05 1081.28,953.045 1143.66,917.388 1112.86,933.796 1169.9,883.475 1246.64,843.618 1244.65,857.393 1185.41,895.988 1155.31,909.954 1244.15,852.341 1347.94,768.7 1411.31,712.78 1358.32,736.541 1340.13,746.447 1273.58,802.062 1316.82,780.598 1277.39,811.118 1244.35,836.188 1219.76,854.649 1367.55,750.796 1442.76,677.939 1591.83,568.302 1574.27,562.461 1479.03,630.663 1391.86,698.572 1387.96,710.579 1365.34,741.151 1238.2,827.378 1232.02,840.275 1214.16,857.372 1169.33,882.003 1188.72,874.669 1235.89,846.299 1163.72,890.45 1263.33,824.115 1196.12,864.741 1204.43,865.118 1203.63,858.366 1238.47,834.833 1244.73,827.11 1222.87,857.745 1222.91,848.642 1169.95,887.477 1192.95,876.931 1197.4,875.353 1116.29,921.632 1125.03,920.046 1061.13,962.023 1115.57,929.232 1179.49,884.65 1207.28,861.826 1223.46,844.084 1212.19,849.819 1214.58,852.34 1200.01,876.817 1169.43,882.34 1264.17,820.313 1253.05,827.602 1096.04,940.129 1101.97,944.332 1022.77,988.658 996.991,1004.78 1013.97,999.899 1026.66,995.881 938.448,1047.2 993.665,1025.23 1000.7,1013.17 1028.01,997.698 1154.42,915.632 1297.33,813.826 1230.69,850.741 1183,871.846 1103.38,921.037 1092.8,941.394 1132.47,923.333 1160.37,903.429 1157.11,894.887 1283.11,816.089 1259.18,818.591 1252.43,826.845 1261.67,827.317 1311.19,795.976 1408.93,712.266 1399.49,723.625 1356.09,749.909 1384.22,730.059 1327.76,770.347 1414.73,705.864 1293.53,780.792 1242.01,827.23 1258.36,825.104 1216.84,855.614 1184.55,885.383 1193.31,877.803 1197.13,873.107 1229.33,853.643 1268.26,833.521 1346.68,778.12 1309.5,780.49 1357.35,753.504 1187.22,873.257 1203.09,866.936 1214.71,866.855 1166.06,890.946 1168.61,891.078 1145.64,911.079 1154.08,906.48 1164.09,904.073 1178.16,893.546 1291.9,810.394 1299.71,800.56 1309.91,787.386 1358.17,759.984 1376.4,722.196 1246.63,810.876 1237.1,833.001 1228.97,842.53 1259.78,823.462 1391.96,742.975 1495.34,664.026 1451.77,674.05 1394.04,712.09 1449.23,676.228 1511.46,622.2 1435.64,671.937 1389.01,704.485 1471.4,651.697 1445.59,659.706 1363.37,717.138 1238.39,809.483 1199.85,846.111 1233.3,840.874 1230.17,850.579 1263.5,830.59 1235.74,841.134 1204.12,867.996 1195.59,875.277 1139.38,904.275 1123.83,917.619 1114.32,924.514 1086.57,945.677 1098.6,939.975 1111.03,936.972 1119.63,930.385 1088.58,953.955 1200.04,900.297 1249.47,851.479 1300.09,811.49 1269.45,819.256 1268.59,815.947 1320.82,787.533 1229.06,843.4 1207.6,855.964 1260.57,826.198 1240.07,842.422 1283.99,809.188 1312.19,786.916 1220.26,846.771 1187.82,871.926 1116.41,921.314 1156.37,898.148 1215.99,852.91 1122.28,913.253 1205.72,871.858 1121.32,924.468 1037.33,985.943 1033.72,990.105 1072.8,966.843 1062.15,964.824 1095.03,942.658 1110.4,934.89 1080.98,958.236 1018.7,996.864 1096.28,953.757 1083.62,956.459 1168.51,892.211 1259.74,832.559 1227.72,858.432 1207.57,869.513 1216.97,863.67 1246.52,832.69 1301.27,786.742 1215.21,853.022 1235.52,841.101 1063.91,958.097 1006.11,993.553 1009.88,1000.07 976.827,1018.86 950.63,1037.59 926.382,1052.23 961.836,1042.5 923.515,1055.53 994.862,1019.4 999.872,1015.04 1008.49,1011.35 1078.81,974.011 1150.19,920.513 1168.58,896.469 1082.57,944.393 1100.31,944.18 1144.96,918.772 1165.82,901.534 1109.57,930.625 1124.66,929.043 1180.54,891.784 1155.78,903.172 1222.75,864.565 1247.16,860.217 1273.67,821.851 1276.06,807.388 1244.2,827.815 1228.16,838.054 1216.26,852.242 1149.86,899.176 1116.24,919.602 1131.05,917.221 1168.52,890.874 1166.03,894.676 1182.7,884.504 1235.49,854.88 1131.75,915.848 1124.34,907.354 1188.04,861.767 1104.62,919.158 1033.01,974.846 1040.33,981.722 1189.86,890.853 1110.85,927.961 1141.15,909.212 1247.7,840 1295.23,795.29 1321.28,772.736 1298.76,787.717 1313.19,779.071 1319.81,782.881 1262.48,811.562 1198.12,861.987 1109.21,922.288 1085.09,944.418 1094.43,937.826 1086.24,944.536 1068.51,962.069 1007.26,997.014 1001.55,1002.97 998.288,1010.44 1086.94,950.613 1015.38,996.883 959.651,1033.77 979.229,1023.72 1007.6,1014.68 1007.05,1020.99 1036.71,1000.3 998.618,1014.13 964.292,1036.87 922.677,1061.36 981.715,1025.67 933.248,1055 943.674,1048.46 933.201,1056.77 898.728,1075.58 1007.5,1018.92 1038.82,989.722 1111.41,945.929 1047.57,982.921 964.81,1033.1 975.672,1025.63 1077.89,959.963 1070.87,956.332 1102.85,944.959 1058.36,974.485 1044.22,980.262 1124.08,921.142 1170.39,893.243 1125.24,920.072 1141.39,909.959 1059.36,972.931 1011.79,1000.6 1021.06,994.179 1073.96,953.571 1128.03,921.429 1190.76,885.132 1152.39,900.441 1190.05,866.04 1169.2,861.442 1108.63,915.459 1071.62,947.5 1037.18,975.168 1077.47,958.936 1161.88,904.727 1207.31,875.9 1143.95,907.763 1149.99,903.169 1207.12,872.387 1164.36,887.159 1129.59,918.514 1167.33,897.677 1200.78,872.595 1274.03,823.447 1155.8,895.586 1197.06,880.131 1226.45,852.962 1126.49,910.289 1141.81,908.572 1222.86,868.75 1232.9,851.059 1196.15,865.169 1148.7,901.192 1123.12,916.827 1101.48,936.413 1050.7,966.81 1079.27,961.609 1057.69,971.66 991.883,1011.1 1002.23,1010.67 1003.98,1007.99 1005.55,1009.53 1050.43,989.359 1016.98,1009.15 1106.46,952.486 1174.14,906.171 1197.14,887.17 1194.45,881.913 1151.93,904.66 1180.79,891.37 1188.97,882.809 1156.31,912.711 1206.52,874.303 1131.49,923.122 1088.1,953.425 1055.45,962.115 1129.55,918.213 1069.45,962.491 1019.62,1002.63 1024.57,998.299 1050.8,984.414 1078.08,958.959 1085.85,954.89 993.666,1014.18 1060.28,981.905 1078.95,953.171 1163.69,901.856 1190.47,886.77 1198.43,886.073 1172.25,896.937 1149.66,910.594 1149.26,912.348 1243.53,841.705 1268.8,821.129 1375.41,755.384 1300.16,815.805 1270.04,826.685 1427.35,700.383 1369.26,730.631 1296.22,791.258 1304.91,784.573 1338.59,754.428 1326.84,764.399 1280.11,798.393 1241.98,832.948 1299.28,798.29 1455.74,690.098 1332.75,766.793 1143.41,894.037 1062.23,952.12 1009.46,991.053 999.49,1006.14 993.411,1014.57 992,1018.67 910.146,1062.07 921.91,1060.81 929.211,1054.75 929.906,1054.72 1012.89,1015.86 1065.78,973.634 1102.22,949.861 1127.82,924.36 1106.79,931.044 1022.91,983.519 1048.73,979.951 1053.58,983.581 1066.33,970.7 1167.92,897.878 1085.29,946.468 1146.63,917.08 1218.63,869.266 1250.24,843.602 1263.57,830.686 1260.13,830.029 1314.54,783.285 1270.3,808.916 1250.14,827.081 1269.99,814.777 1243.91,832.022 1306.39,792.935 1268.58,825.895 1290.75,800.044 1369.5,736.776 1325.28,772.602 1499.64,633.057 1518.15,615.318 1486.76,635.849 1405.51,695.141 1471.22,654.348 1503.03,623.79 1459.04,653.622 1367.64,726.582 1359.3,737.149 1395.89,724.145 1327.47,763.007 1347.45,757.154 1299.71,788.872 1283.54,804.145 1343.11,763.394 1272.43,807.084 1334.14,779.076 1395.48,713.464 1481.4,648.646 1404.3,702.491 1485.63,648.598 1377.79,705.522 1350.2,736.779 1291.81,788.418 1337.98,764.715 1306.32,783.758 1319.25,769.429 1270.91,811.48 1267.17,813.33 1231.31,837.863 1214,853.71 1166.55,887.652 1144.63,902.673 1133.53,916.128 1098.91,936.231 1027.81,984.6 1060.13,974.754 1082.11,964.527 1132.21,930.226 1202.51,883.307 1093.59,937.678 1057.41,966.676 1022.67,988.544 1017.78,994.214 937.635,1042.47 925.577,1053.53 936.18,1048.81 932.313,1052.54 998.261,1020.05 1066.55,974.347 1054.18,975.968 1039.65,982.013 965.203,1025.41 1007.66,1006.68 992.161,1015.13 998.951,1017.58 1015.18,1003.74 1006.22,1007.77 994.663,1026.33 993.888,1023.18 1039.45,993.841 971.064,1026.79 995.416,1009.75 991.834,1009.31 1088.67,959.885 1099.4,945.556 1098.57,941.765 1071.82,958.552 1139.67,922.464 1153.27,892.543 1108.86,920.815 1122.83,903.79 1153.88,889.106 1075.33,948.347 998.342,1000.99 1008.16,1003.24 1002.22,1012.8 1044.89,985.359 1067.43,966.227 981.634,1017.9 947.64,1044.16 914.927,1057.78 1020.51,1002.06 1069.43,969.801 1025.96,990.977 1090.76,958.714 1070.32,967.679 1070.59,967.163 1073.19,962.77 1107.38,940.459 1069.55,958.974 998.836,1007.04 1044.73,987.761 1100.87,951.997 1149.29,904.579 1126.54,921.855 1138.24,899.708 1091.69,934.623 1109.15,928.333 1321.23,792.968 1277.95,807.769 1285.54,800.315 1288.95,797 1333.25,773.548 1360.58,756.668 1477.15,660.742 1385.03,709.2 1305.63,772.159 1348.19,751.339 1303.89,779.474 1343.38,758.164 1294.1,789.017 1332.86,776.526 1322.56,775.78 1452.95,699.23 1513.61,645.218 1369.64,723.558 1342.23,755.604 1340.01,758.007 1408.09,713.057 1435.58,685.847 1521.68,614.075 1511.61,612.715 1486.94,632.801 1546.07,595.919 1456.69,657.294 1331.52,745.043 1302.34,779.123 1363.13,752.057 1389.77,724.461 1384.96,716.569 1487.32,655.757 1407.9,710.685 1452.67,678.291 1441.13,673.944 1355.53,735.859 1294.73,779.066 1226.53,835.288 1220.44,851.417 1203.52,870.204 1191.75,876.474 1284.1,817.153 1236.13,846.82 1224.18,857.713 1148.1,904.494 1087.52,947.562 1080.6,963.181 1144.75,923.747 1174.11,903.345 1218.8,869.505 1111.75,929.692 1139.07,922.792 1185.15,894.226 1248.57,849.043 1113.6,930.303 1143.87,906.754 1078.3,954.4 1032.9,979.601 958.412,1029.39 958.958,1034 1045.41,993.24 1007.55,1008.74 944.226,1043.28 954.101,1035.25 954.944,1041.69 973.464,1037.16 1042.51,1001.34 998.522,1018.7 972.914,1032.58 969.224,1034.48 971.567,1030.91 989.051,1014.6 1001.88,1010.32 1064.7,980.784 1111.16,936.46 1170.35,901.67 1185.24,887.287 1160.29,898.231 1105.04,931.067 1171.42,879.263 1240.91,840.253 1196.96,864.457 1277.78,825.197 1238.31,851.822 1202.68,859.267 1357.08,759.866 1372.18,735.88 1234.06,827.461 1206.56,859.478 1167.23,893.711 1211.72,865.856 1255.89,838.81 1320.08,790.598 1250.12,828.229 1295.76,800.701 1484.71,670.649 1577.44,589.53 1465.58,653.523 1351.54,731.947 1339.69,746.449 1322.76,754.12 1204.01,843.52 1194.3,858.938 1162.6,886.162 1208.31,866.332 1179.35,880.183 1153.2,897.296 1214.2,868.436 1116.55,921.572 1045.54,966.245 981.919,1007.76 953.814,1029.81 967.477,1028.44 920.141,1055.72 916.767,1062.68 922.098,1062.02 943.078,1051.31 937.326,1053.45 956.244,1040.62 961.503,1038.94 1004.83,1014.41 1057.56,976.579 1010.84,996.888 989.563,1012.56 972.651,1029.54 973.068,1030.55 893.993,1072.28 887.214,1079.56 977.175,1028.22 965.124,1036.91 935.244,1049.67 948.583,1044.5 889.716,1080.28 868.467,1090.5 883.308,1084.75 880.193,1083.73 879.245,1089.7 875.403,1090.79 816.962,1119.18 884.878,1089.42 902.26,1076.51 903.529,1076.57 985.209,1034.23 1081.02,976.711 1155.3,926.754 1159.96,908.309 1232.97,861.924 1295.82,815.65 1328.67,778.811 1314.31,782.369 1478.55,672.795 1456,659.986 1466.67,651.261 1515.84,616.49 1569.31,567.231 1576.81,550.45 1592.6,535.434 1647.17,502.621 1550.7,560.941 1471.65,621.341 1516.37,605.912 1462.08,648.111 1483.33,637.831 1496.21,624.365 1507.42,622.524 1464.31,651.114 1406.89,695.251 1411.96,700.622 1358.89,740.352 1368.66,740.403 1325.97,766.831 1304.81,787 1329.54,771.151 1397.79,730.416 1449.9,689.432 1410.66,702.07 1355.97,744.451 1305.66,779.317 1213.14,844.58 1196.94,866.285 1266.02,830.335 1233.74,847.593 1199.01,872.077 1139.92,906.221 1110.86,938.464 1119.01,934.393 1143.86,919.044 1115.43,926.892 1120.47,931.311 1205.17,880.03 1139.36,917.157 1233.91,858.422 1330.02,781.842 1368.58,746.353 1366.25,736.048 1472.96,659.497 1513.54,615.046 1527.58,598.544 1717.1,449.995 1624.81,514.914 1562.01,557.74 1461.94,631.73 1397.47,687.297 1429.2,677.827 1352.1,735.048 1307.66,772.23 1275.41,801.982 1336.79,772.786 1263.98,816.464 1290.23,803.772 1320.04,780.479 1245.97,831.45 1233,840.308 1224.26,850.504 1242.1,839.339 1295.52,810.186 1258.57,834.818 1228.28,853.958 1190.43,868.756 1121.72,924.099 1007.27,989.845 994.254,1006.55 960.608,1029.24 1007.94,1009.22 1000.44,1012.82 1065.74,979.559 1110.04,943.596 1157.69,909.305 1187.93,885.803 1152.98,907.544 1008.55,1002.21 1071.43,976.516 1095.4,961.202 1079.65,969.995 1131.2,932.509 1137.05,921.395 1183.21,890.382 1128.98,922.779 1083.3,951.97 1008.22,1002.68 969.003,1028.91 1017.27,998.146 1072.16,965.153 1045.45,976.72 1031.02,992.537 1052.88,980.633 1113.06,929.259 1103.12,933.583 1146.64,901.7 1111.52,923.122 1065.07,946.809 1048.41,973.306 1065.85,966.286 1039.32,975.942 1145.97,921.314 1135.19,927.404 1126.42,928.931 1068.86,956.047 1069.18,954.855 1093.84,953.035 1194.48,884.118 1200.68,876.582 1139.53,909.536 1078.1,939.763 1015.26,972.342 997.069,997.107 1087.28,957.991 1191.35,890.156 1198.11,882.065 1219.88,859.606 1206.02,862.331 1181.5,881.392 1217.38,871.819 1315.4,806.121 1213.82,860.805 1228.11,858.17 1253.34,828.54 1251.2,822.966 1344.24,775.566 1333.68,762.203 1268.11,810.019 1220.24,835.819 1273,804.076 1219.63,845.037 1227.74,845.172 1226.44,851.366 1211.89,862.523 1273.9,811.151 1202.6,857.201 1261.5,829.622 1244.96,844.572 1317.82,779.635 1396.05,718.507 1301.15,778.992 1396.52,716.852 1348.3,748.883 1376.29,721.317 1435.58,675.641 1318.5,759.224 1387.02,728.403 1300.03,786.71 1224.18,846.298 1281.68,820.464 1300.39,804.003 1277.38,814.334 1270.91,812.499 1252.11,822.917 1247.28,822.911 1164.84,886.004 1161.8,895.221 1155.43,903.688 1094.73,945.381 990.891,1010.47 1006.11,1004.88 1060.26,976.324 1073.26,967.822 1141.02,922.357 1142.68,918.306 1169.3,893.213 1247.93,844.454 1330,779.753 1251.34,822.832 1356.69,760.819 1371.28,745.537 1303.32,789.885 1365.64,748.842 1267.53,807.952 1195.05,867.909 1143.65,903.614 1143.84,909.512 1291.05,816.353 1368.58,748.38 1346.39,751.809 1310.3,778.303 1377.58,736.042 1164.76,886.44 1153.54,902.347 1139.22,909.932 1138.21,914.496 1120.7,919.113 1152.71,908.869 1179.37,890.71 1179.69,889.474 1275.43,829.963 1333.68,781.476 1408.85,715.838 1309.84,767.752 1254.25,808.381 1263.7,815.627 1327.78,776.905 1303.48,789.6 1319.11,787.653 1288.64,803.032 1174.18,880.484 1131.93,909.289 1109.99,930.017 1128.51,915.626 1132.08,917.737 1109.45,938.649 1164.26,906.923 1290.29,823.958 1210.33,862.669 1201.21,869.986 1151.85,897.767 1167.78,898.347 1215.27,868.748 1262.49,833.611 1310.88,787.055 1355.17,754.966 1317.84,776.33 1320.93,778.987 1334.59,761.942 1290.62,789.724 1257.19,826.075 1289.6,800.912 1291.67,794.653 1274.39,806.067 1206.2,856.637 1191.93,873.395 1183.28,880.105 1115.05,930.244 1139.01,917.813 1246.17,854.178 1269.82,828.306 1248.49,836.299 1220.01,856.771 1230.56,848.646 1254.65,841.71 1281.07,801.032 1206.35,851.513 1284.89,817.592 1198.78,873.372 1122.15,927.849 1135.43,916.303 1130.89,914.799 1069.17,961.152 1001.69,1001.42 1054.6,980.254 1019.52,1002.1 1017.75,1000.22 1015.2,998.787 1011.36,996.506 1064.53,967.955 1009.93,1003.52 990.11,1001.71 992.251,1010.02 1020.25,1002.16 1023.56,1003.79 1035.63,988.685 1217.91,875.954 1204.77,868.795 1338.83,793.968 1292.34,806.015 1298.7,801.052 1369.42,748.65 1337.1,759.958 1428.42,698.002 1376,721.095 1385.27,714.083 1390.95,709.37 1319.96,767.842 1275.63,801.257 1194.01,865.092 1266.8,832.431 1185.63,876.512 1110.04,920.38 1054.54,962.955 1026.78,987.479 1027.97,994.398 1024.75,999.914 1056.87,978.802 1105.87,954.159 1102.11,947.405 1154.4,907.036 1192.93,886.41 1272.56,827.819 1219.52,852.843 1199.14,871.813 1117.65,927.571 1124.32,923.88 1161.33,906.956 1266.54,840.151 1226.37,854.882 1153.83,900.883 1115.94,922.248 1228.21,867.077 1192,884.571 1180.81,886.565 1128.06,924.428 1059.39,969.098 1009.02,1002.13 1177.79,906.256 1255.16,846.738 1245.92,843.265 1171.92,885.625 1168.1,881.007 1172.7,889.986 1197.63,877.376 1171.65,876.682 1202.5,869.976 1225.04,847.438 1100.47,929.55 1118.28,931.07 1156.38,908.983 1142.27,919.642 1085.94,953.815 1206.36,875.924 1298.83,805.232 1424.74,715.635 1265.94,809.455 1254.08,826.02 1269.54,820.33 1140.01,911.615 1205.74,874.468 1251.81,834.497 1159.77,889.933 1172.81,887.693 1136.61,907.515 1166.29,891.043 1155.97,906.588 1170.23,899.208 1190.37,889.433 1251.5,845.356 1167.52,889.697 1225.17,857.506 1263.44,832.309 1350.77,775.345 1299.54,796.572 1438.36,706.236 1566.13,614.358 1535.66,609.804 1504.44,621.306 1496.97,618.086 1357.71,713.673 1349.83,729.839 1311.99,765.779 1285.71,794.257 1260.11,814.882 1229.89,840.836 1181.83,876.109 1169.02,891.393 1113.56,926.389 1083.81,954.166 1075.35,961.019 1078.62,956.91 1115.91,937.402 1162.28,903.453 1256.31,845.399 1220.58,859.92 1125.19,928.125 1078.12,954.951 1013.1,991.11 1027.01,992.385 961.854,1030.34 1000.35,1018.15 1065.45,975.795 1141.03,924.425 1138.3,924.948 1096.6,929.384 1120.95,920.07 1129.83,915.359 1067.72,949.006 1195.8,871.997 1192.3,872.347 1241.98,853.404 1260.83,849.708 1306.28,799.266 1210.87,851.518 1183.02,877.163 1176.14,884.1 1209.97,867.103 1241.03,838.628 1174.28,881.716 1161.61,894.966 1202.78,869.353 1220.54,857.822 1169.28,883.37 1069.06,952.466 1109.57,935.835 1131.54,924.039 1086.99,950.627 1067.07,963.369 994.551,1005.29 1016.38,998.344 1020.16,998.257 984.151,1019.25 992.223,1009.96 964.539,1027.04 1075.51,968.929 1056.04,975 1031.86,988.599 1000.66,1000.22 1038.64,985.759 1101.8,952.805 1097.73,946.882 1085.8,953.082 1143.2,912.165 1126.84,924.843 1092.61,959.066 1103.03,945.408 1037.8,981.668 1018.98,997.114 1008.2,1012.87 996.62,1019.72 1043.1,987.518 966.268,1036.42 950.769,1046.66 962.699,1043.36 910.849,1072 876.778,1085.15 887.086,1084.21 906.355,1073.72 934.717,1057.01 997.001,1020.42 921.721,1058.39 895.765,1073.53 924.721,1058.94 905.995,1073.64 840.895,1110.62 855.407,1102.1 817.519,1123.96 869.331,1093.43 866.304,1098.31 831.751,1112.85 793.269,1136.52 811.751,1128.87 781.662,1141.65 767.423,1151.24 757.901,1156.78 768.681,1155.3 718.853,1178.01 732.699,1170.18 741.638,1166.35 740.456,1165.44 738.952,1165.56 733.024,1168.78 772.408,1151.68 800.886,1133.79 787.971,1139.99 796.032,1136.19 770.274,1149.31 781.435,1144.25 857.36,1105.62 860.631,1100.45 828.314,1113.78 831.348,1112.94 830.883,1114.54 846.11,1107.98 859.509,1104.46 843.312,1107.13 877.515,1090.56 933.195,1063.11 1015.36,1017.94 986.987,1021.96 964.595,1030.8 912.138,1059.57 965.16,1034.21 991.88,1027.2 994.35,1021.46 994.962,1018.15 1009.42,1010.92 971.447,1028.67 955.437,1041.27 1061.06,983.363 1088.06,963.701 1080.69,962.379 1024.7,990.944 1033.73,982.468 1158.98,903.176 1237.6,846.326 1257.58,835.527 1213.44,851.711 1233.73,842.381 1279.03,814.524 1267.96,814.684 1198.02,867.365 1168.08,878.33 1229.56,846.787 1287.14,814.249 1267.98,824.418 1331.19,756.63 1378.74,729.402 1308.67,775.33 1279.42,799.98 1278.03,808.806 1253.88,818.983 1232.35,845.605 1284.85,810.112 1191.32,869.026 1179.62,882.654 1181.85,883.635 1155.51,901.794 1106.8,936.303 1112.58,931.743 1137.76,923.425 1124.56,930.397 1056.13,973.092 1133.21,928.074 1227.6,856.026 1150.81,891.264 1111.77,925.929 1128.68,923.54 1046.22,973.317 1051.09,974.193 1070.77,968.257 1093.77,940.229 1113.46,932.079 1206.14,876.349 1266.76,838.731 1291.44,797.015 1389.54,724.152 1420.05,701.222 1484.13,656.598 1314.15,768.393 1234.21,831.084 1130.27,905.296 1052.49,955.785 1018.81,980.873 1015.98,997.978 1022.3,995.65 1027.15,996.73 1023.33,996.849 1040.74,981.643 1054.44,981.739 1042.49,989.178 1077.57,960.964 1138.56,922.358 1265.33,835.588 1363.54,763.323 1390.37,727.428 1339.31,751.252 1349.77,752.986 1319.93,767.065 1301,787.552 1253.42,819.48 1238.65,832.9 1262.08,823.913 1224.59,848.349 1250.46,823.529 1157.24,889.956 1186.96,885.361 1253.6,836.469 1256.45,830.588 1299.07,804.419 1268.83,823.118 1209.96,855.822 1200.51,857.041 1131.91,908.331 1031.72,976.503 1031.81,985.116 1054.5,980.59 1140.4,923.363 1222.59,863.677 1316.12,799.587 1244.13,840.158 1107.92,925.311 1082.61,946.038 1056.83,969.26 1028.78,991.133 1020.57,1002.23 1021.3,995.601 1044.52,976.598 1094.95,941.165 1129.36,933.121 1114.92,940.815 1091.29,950.048 1117.69,950.075 1119.64,950.286 1176.51,898.822 1210.21,867.517 1110.57,933.348 1027,983.09 1071.45,958.449 1080.37,953.827 1083.12,959.182 1092.24,950.698 1054.26,983.589 1022.99,995.917 1142.49,921.751 1167.26,898.192 1252.71,843.272 1256.74,833.605 1283.63,809.156 1284.72,820.386 1137.65,924.757 1038.95,994.19 1122.84,927.786 1079.47,962.31 1106.77,950.609 1163.42,907.023 1125.56,929.962 1138.96,923.313 1090.19,952.173 1077.82,953.535 1230.82,859.971 1350.34,763.614 1360.67,746.23 1305.92,777.078 1192.64,868.674 1285.93,815.265 1375.3,756.518 1412.92,716.519 1355.01,742.695 1327.15,762.871 1219.51,833.262 1198.51,859.082 1184.41,875.216 1205.2,868.543 1143.89,904.667 1148.79,909.7 1226.33,861.72 1318.26,794.392 1369.4,749.157 1197.61,854.474 1195.82,871.363 1160.82,899.888 1110.93,930.397 1081.21,952.57 1050.78,967.804 1140.02,924.567 1180.47,894.928 1235.45,849.544 1172.46,882.21 1194.87,874.948 1313.09,797.244 1377.34,750.443 1294.22,795.836 1222.79,831.671 1136.1,900.855 1111.15,923.893 1135.58,917.085 1112.57,930.09 1087.74,945.738 1021.94,988.128 1018.82,996.766 1023.8,997.66 1100.4,954.989 1208.53,883.443 1229.91,860.079 1261.9,832.319 1238.09,840.27 1258.51,826.646 1313.49,790.777 1312.73,782.38 1319.49,770.291 1298.19,788.915 1271.34,811.504 1166.31,882.326 1194.46,868.472 1219.17,853.218 1260,840.918 1195.26,878.984 1323.56,799.905 1254.66,830.693 1230.27,837.028 1184.57,872.152 1153.82,892.457 1249.36,842.534 1211.22,864.879 1289.22,811.046 1292.23,799.825 1234.69,829.517 1243.89,836.756 1204.18,860.823 1184.2,880.15 1184.89,882.716 1130.83,908.545 1027.56,981.463 1027.63,986.396 1027.54,989.971 1088.53,961.419 1057.94,973.299 1118.52,943.519 1143.07,925.995 1181.74,897.346 1159.19,903.438 1187.85,885.807 1190.75,880.556 1079.16,950.081 1182.27,893.713 1173.36,889.262 1221.42,858.574 1194.76,873.644 1226.13,853.063 1269.14,819.607 1199.9,870.564 1336.13,780.436 1433.97,699.2 1353.61,750.056 1313.9,790.229 1128.5,912.562 1080.39,945.509 1093.04,948.833 1138.46,922.112 1125.48,926.097 1122.17,931.278 1025.64,996.051 1027.64,993.869 1036.53,995.5 1040.41,992.219 1062.46,976.671 1053.88,973.318 1005.49,1009.2 1073.21,971.519 1047.66,987.568 1171.46,902.87 1299.24,813.672 1215.2,861.854 1194.46,868.165 1086.68,944.954 1155.93,908.593 1085.03,952.829 1063.75,962.971 1011.42,999.116 1018.99,996.425 1076.41,967.67 1186.14,900.446 1295.09,823.391 1317.76,797.909 1313.19,784.055 1157.66,879.68 1099.59,920.971 1033.46,965.645 1044.7,974.051 1079.53,961.589 1087.61,956.232 1082.14,964.428 1133,921.747 1206.51,876.971 1250.49,842.9 1162.49,888.044 1169.94,892.637 1187.03,871.997 1158.27,897.828 1149.27,892.994 1370.36,750.668 1343.97,744.526 1294.28,783.722 1359.49,747.638 1452.42,674.458 1462.12,667.364 1571.93,561.474 1717.01,447.736 1728.87,430.519 1637.13,490.704 1639.69,491.473 1541.69,564.258 1501.93,602.485 1452.34,648.573 1457.69,652.769 1401.88,695.004 1365.99,728.328 1401.34,714.112 1379.29,729.67 1380.2,731.891 1391.09,727.549 1377.39,740.661 1371.99,739.699 1332.5,766.052 1261.52,811.501 1229.29,839.42 1203.32,856.369 1282.88,817.344 1416.38,720.772 1337.68,761.916 1232.62,830.742 1252.49,828.606 1224.87,846.795 1234.16,844.932 1243.15,840.763 1168.1,892.006 1183.46,882.377 1133.99,910.014 1129.11,915.441 1208.04,880.992 1166.3,899.44 1157.42,901.446 1154.56,911.958 1084.49,963.047 1123.26,921.325 1096.91,935.803 1092.88,948.41 1066.58,964.568 1023.43,989.525 1044.55,978.097 1086.47,949.444 1066.7,957.534 990.855,1011.75 1008.88,1003.34 1013.5,1005.1 1102.74,950.58 1091.63,949.99 1096.13,949.918 1052.52,978.123 1010.17,1004.74 1009.05,1007.88 1055.31,989.399 1032.8,987.551 1028.84,987.959 1063.81,966.179 1113.32,938.359 1166.22,902.624 1284.51,830.832 1367.08,754.513 1441.85,694 1486.97,653.263 1467.21,651.842 1362.94,725.524 1385.45,725.778 1422.97,705.524 1383.57,729.011 1279.11,803.198 1255.42,824.653 1174.55,881.653 1145.82,903.315 1102.86,937.414 1076.41,959.05 1086.87,957.57 1022.6,995.408 1037.45,988.747 1029.72,989.954 1040.97,978.684 1137.96,917.839 1327.13,797.846 1422.36,719.736 1387.69,725.716 1335.63,763.032 1353.6,763.284 1374.28,743.649 1555.1,594.596 1524.03,610.66 1572.34,568.446 1675.83,483.951 1789.67,383.217 1776.15,378.77 1732.78,395.22 1756.44,383.001 1625.52,476.713 1612.69,501.5 1591.09,522.908 1554.54,555.42 1508.29,595.264 1504.46,609.67 1540.07,591.79 1441.36,656.459 1465.1,651.783 1489.53,645.583 1416.54,689 1435.55,680.983 1481.27,655.462 1462,665.54 1477.24,650.581 1439.66,676.748 1386.88,711.595 1296.48,776.732 1295.68,787.174 1289.12,799.385 1273.47,814.766 1292.12,807.233 1270.02,817.789 1312.52,801.022 1292.75,804.327 1346.04,768.317 1278.31,815.025 1275.03,820.378 1244.9,835.849 1297.34,795.426 1323.57,769.815 1318.58,776.427 1307.09,795.14 1389.57,732.35 1298.78,788.242 1330.67,771.077 1410.2,698.23 1318.12,773.663 1251.02,822.873 1239.99,838.029 1277.41,808.874 1151.85,894.812 1124.67,917.617 1157.64,903.253 1205.79,876.026 1193.58,864.998 1174.87,884.144 1129.02,922.377 1169.17,904.101 1246.98,850.427 1174.95,887.22 1101.36,929.696 1067.08,955.379 1117.54,928.134 1057.72,967.427 937.59,1031.64 895.073,1062.97 899.128,1067.02 898.511,1072.69 883.352,1081.42 917.525,1069.16 928.61,1063.32 877.088,1084.77 900.184,1076.08 901.618,1072.95 980.208,1030.87 957.518,1038.93 917.282,1062.99 958.235,1037.42 964.358,1040.34 1031.06,1000.29 950.44,1044.18 924.35,1064.43 896.772,1078.96 888.887,1075.67 900.671,1077.11 965.59,1035.49 918.263,1059.51 999.144,1018.53 1094.55,959.874 1104.84,949.515 1121,933.574 1227.44,860.681 1211.02,860.255 1222.01,862.796 1242.3,839.267 1196.99,871.337 1124.61,911.545 1105.8,929.853 1167.51,903.987 1188.16,884.287 1269.73,831.701 1272.78,824.485 1361.66,760.958 1287.68,804.388 1306.72,786.992 1254.83,817.613 1211.44,842.987 1205.86,856.563 1109.28,922.731 1011.55,992.553 949.876,1029.36 898.867,1062.91 879.275,1079.91 890.277,1081.06 891.548,1081.22 856.768,1103.43 822.49,1118.5 847.436,1108.18 917.016,1073.64 976.831,1032.78 997.686,1013.79 1014.66,1007.99 1039.27,996.567 1008.96,1011.4 978.846,1021.86 1068.1,974.566 1112.35,947.306 1111.92,935.739 1113.74,934.893 1141.9,917.364 1051.21,972.548 1065.67,968.164 1116.12,917.877 1113.73,925.14 1120.9,917.21 1053.13,958.331 968.815,1019.35 947.327,1038.08 918.867,1052.49 915.548,1062.07 946.998,1043.62 945.221,1046.81 951.177,1049.47 852.278,1099.5 855.613,1103.1 851.105,1102.95 870.426,1093.62 857.498,1100.74 869.043,1095.78 877.639,1087.22 871.124,1096.8 839.325,1107.82 857.197,1098.59 799.722,1130.56 845.411,1113.53 897.004,1084.6 893.889,1080 867.488,1095.51 848.206,1103.63 860.165,1100.14 924.627,1068.35 874.468,1091.52 895.945,1077.64 923.782,1064.11 951.736,1047.16 982.786,1029.88 1046.65,981.904 1030.74,990.524 1147.74,918.347 1192.03,889.534 1212.87,862.585 1211.44,859.007 1184.94,875.609 1268.72,818.497 1285.44,806.122 1392.29,732.067 1395.44,718.551 1370.09,733.19 1349.18,750.989 1256.12,815.491 1350.73,761.318 1388.24,725.034 1431.52,696.798 1448.9,672.832 1468.39,643.324 1325.37,743.655 1282.31,783.382 1196.18,846.432 1235,837.718 1114.07,915.105 1128.51,919.115 1148.82,910.744 1147.72,909.376 1208.06,880.018 1208.28,877.863 1210.82,869.054 1211.28,864.538 1139.91,904.54 1027.78,980.926 1012.91,997.064 1026.25,994.565 1070.43,972.262 1119.83,942.061 1062.73,970.751 1088.9,950.814 1184.98,898.48 1143.17,915.832 1199.78,881.196 1163.18,899.599 1117.32,919.912 1112.49,923.063 1171.23,878.686 1282.3,814.625 1315.56,785.877 1282.64,795.489 1218.34,843.71 1194.5,867.03 1187.65,877.23 1067.82,966.691 1045.13,983.907 1027.25,992.796 1044.7,990.363 1057.38,979.433 973.464,1027.25 932.221,1054.43 968.96,1036.48 969.08,1036.77 1010.59,1012.72 996.89,1016.51 1017.52,1002.98 1013.65,998.245 1079.4,961.088 1159.69,909.461 1045.09,973.968 1190.56,886.019 1297.57,814.975 1394.15,738.057 1356.01,752.183 1412.01,714.629 1387.37,724.083 1320,773.772 1391.26,721.66 1414.21,682.128 1391.83,706.924 1225.68,822.414 1274.03,811.231 1243.75,836.592 1251.66,830.785 1297.34,805.137 1329.6,773.228 1392.94,724.811 1380.56,735.577 1515.88,622.756 1385.91,713.318 1363.39,730.575 1386.33,717.566 1352.39,740.67 1201.75,845.546 1242.24,831.906 1234.78,836.163 1203.59,863.122 1169.35,887.741 1169.03,892.368 1196.09,874.041 1134.05,910.559 1193.9,878.917 1207.32,875.47 1272.79,826.907 1391.98,750.633 1355.81,762.992 1369.75,751.614 1441.62,695.564 1441.16,678.061 1511.69,623.302 1541.72,591.135 1536.37,599.423 1511.25,614.111 1482.33,639.74 1556.98,580.982 1468.45,631.815 1461.56,646.805 1495.11,636.375 1484.93,643.532 1452.68,670.255 1508.57,629.101 1555.1,588.162 1559.67,580.558 1548.93,584.071 1460.68,647.501 1495.5,634.039 1447.21,668.896 1474.42,652.164 1476.38,654.461 1448.83,673.626 1514.25,621.024 1509.11,618.357 1443.91,662.581 1428.34,689.039 1456.03,674.303 1407.34,702.551 1325.23,760.886 1266.79,799.618 1256.67,819.136 1282.24,808.437 1227.9,838.495 1264.81,824.538 1299.29,804.695 1231.21,845.558 1211.4,856.656 1217.75,849.967 1268.13,825.126 1290.55,805.376 1210.28,856.455 1326.27,779.72 1367.72,744.526 1445.46,660.343 1427.73,679.223 1336.19,739.8 1427.62,678.604 1381.27,724.895 1308.77,773.218 1358.61,743.772 1220.02,836.25 1251.18,830.269 1201.89,864.507 1193.49,877.309 1071.3,958.67 1047.11,977.831 1095.18,955.029 1199.48,893.638 1221.1,871.471 1279.96,821.287 1280.8,818.26 1311.26,791.902 1282.03,804.099 1240.34,837.014 1301.02,799.012 1272.11,818.204 1239.59,839.828 1129.37,916.12 1098.22,939.641 1098.93,937.295 1130.63,920.165 1260.58,825.347 1240.33,835.621 1213.96,856.023 1188.96,877.337 1201.77,877.858 1308.42,785.506 1281.55,791.832 1210.61,839.321 1270.9,815.455 1317.74,789.769 1393.1,733.717 1427.81,692.545 1374.51,726.213 1357.29,739.404 1282.24,789.627 1230.72,833.936 1149.64,892.573 1171.45,889.252 1218.63,864.349 1193.46,880.324 1181.71,885.093 1219.82,861.196 1275.52,812.204 1277.42,814.568 1234.89,838.007 1248.7,831.693 1230.69,846.751 1306.69,797.753 1261.13,832.11 1236.73,851.245 1194.66,868.107 1258.25,822.425 1283.12,800.983 1279.27,774.986 1420,680.513 1426.19,691.795 1374.23,727.809 1412.34,709.451 1265.66,811.991 1242.79,839.198 1299.5,799.889 1337.04,765.929 1342.64,757.907 1283.36,804.986 1280.6,807.031 1170.58,890.393 1140.56,912.509 1223.18,864.612 1140.63,912.151 1159.9,901.648 1188.08,875.006 1212.29,855.075 1236.76,840.904 1173.69,885.73 1184.48,883.35 1203.19,873.482 1219.89,865.671 1112.76,926.937 1152.87,907.95 1177.54,900.13 1239.3,847.327 1199.95,869.773 1215.57,861.403 1336.63,779.507 1383.82,743.79 1294.66,788.717 1275.95,802.878 1340.52,771.739 1406.2,718.75 1314.18,772.89 1287.4,788.606 1336.78,762.153 1323.05,776.225 1266.02,810.094 1306.3,792.53 1322.68,773.508 1247.36,815.384 1215.74,837.826 1355.26,755.923 1325.01,775.592 1270.13,820.64 1292.3,805.735 1313.61,788.706 1297.97,796.676 1370.87,741.412 1445.5,685.682 1361.7,737.664 1439.96,669.015 1397.63,692.55 1335.57,741.476 1248.01,806.734 1286.17,796.242 1339.6,765.45 1452.14,690.323 1386.57,736.708 1343.42,756.495 1252.64,817.593 1294.21,798.596 1253.78,816.395 1134.27,899.634 1152.9,898.907 1177.91,888.176 1123.24,924.767 1094.93,944.165 1073.83,953.52 1119.12,936.541 1104.49,933.603 1095.28,938.794 1077.46,952.141 1019.63,994.979 1030.02,990.076 1005.03,1003.34 998.049,1013.14 991.192,1018.6 951.618,1042.29 1029.15,995.545 1016.85,1003.58 1144.73,930.042 1136.34,928.379 1117.27,933.185 1040.15,975.557 1083.22,954.196 1098.95,938.223 1092.36,951.244 1154.39,906.363 1084.82,945.391 1085.68,949.199 1056.86,969.393 1116.12,937.121 1102.57,952.616 1081.03,940.081 1133.36,918.992 1172.32,901.69 1104.09,924.455 1176.04,890.252 1196.49,881.911 1236.02,851.309 1227.99,852.659 1287.3,815.883 1371.62,742.589 1401.17,714.846 1429.22,691.665 1520.29,621.438 1586.83,556.702 1574.36,552.793 1670.9,476.69 1627.12,505.539 1595.19,526.204 1537.67,576.743 1564.49,566.917 1518.3,592.658 1418.56,670.62 1352.1,726.594 1354.45,739.766 1305.61,772.29 1363.04,750.77 1415,712.628 1406.33,716.355 1419.69,709.082 1363.47,739.677 1259.25,809.582 1297.36,793.116 1274.69,814.725 1271.95,819.413 1263.28,824.892 1400.88,744.705 1336.76,771.423 1289.44,792.17 1212.61,843.823 1281.31,809.908 1319.46,788.57 1277.37,809.371 1251.74,825.694 1305.34,798.909 1331.93,773.562 1380.12,735.304 1303.22,779.542 1205.25,856.695 1161.56,890.644 1188.73,874.794 1178.33,886.991 1219.09,865.51 1256.29,834.863 1178.36,878.065 1248.6,840.883 1234.83,846.729 1155.53,892.339 1167.97,892.061 1200.15,871.596 1227.93,860.437 1167.14,893.143 1081.68,956.231 1185.36,899.221 1190.24,889.649 1160.92,903.185 1166.27,894.682 1169.23,896.299 1173.76,893.961 1158.02,907.74 1218.06,852.523 1188.37,868.73 1106.55,922.916 1062.5,952.679 1049.39,967.931 1134.87,928.275 1274.24,845.377 1283.08,828.831 1325.26,792.798 1302.19,798.876 1309.96,788.332 1302.42,795.903 1437.99,707.151 1408.44,717.101 1302.05,778.178 1241.98,822.361 1225.34,838.123 1207.97,852.203 1163.47,883.216 1130.23,911.214 1106.73,933.122 1148.57,916.814 1135.82,922.097 1088.25,952.777 1086.02,958.265 1102.5,949.16 1189.15,889.719 1208.8,868.875 1269.24,828.74 1289.44,812.537 1344.38,760.538 1423.29,693.143 1386.43,714.941 1341.97,741.205 1302.03,784.991 1412.67,717.991 1382.88,737.078 1269.76,809.199 1294.71,788.36 1298.23,799.476 1402.83,730.101 1393.72,730.903 1512.27,643.127 1535.32,619.003 1481.61,626.211 1429.53,671.396 1345.03,736.238 1295.39,782.058 1353.16,750.822 1384.08,734.384 1394.58,724.744 1371.12,729.402 1230.76,828.464 1309.87,791.5 1279.36,814.436 1278.78,813.447 1291.82,801.994 1216.13,851.334 1185.44,874.931 1196.42,872.74 1229.33,860.733 1159.76,898.737 1217.69,862.479 1230.84,850.888 1130.68,916.902 1077.34,940.693 1130.66,921.011 1123.4,928.879 1135.82,924.617 1181.21,890.064 1184.39,886.504 1236.8,844.998 1274.85,817.425 1404.91,729.988 1450.35,674.392 1397.56,702.865 1488.28,639.709 1507.86,608.584 1513.99,604.108 1454.09,649.575 1346.69,732.922 1334.14,753.816 1280.88,799.14 1295.06,794.063 1318.72,784.76 1349.52,756.864 1371.64,737.102 1434.45,697.947 1477.19,658.104 1458.45,658.741 1353.56,727.909 1324.36,756.77 1387.92,731.183 1293.7,789.108 1254.27,819.355 1156.59,885.84 1205.63,865.662 1215.88,863.323 1303.28,809.954 1362.02,761.681 1400.18,720.596 1424.87,684.606 1513.05,622.296 1467.43,653.294 1412.39,693.012 1369.97,723.582 1451.1,668.401 1410.36,699.502 1345.93,741.676 1317.35,773.251 1207.67,845.427 1236.27,843.465 1137.1,904.738 1197.26,879.661 1177.16,884.103 1171.8,895.577 1168.75,899.118 1109.96,936.359 1188.99,887.682 1249.26,846.112 1328.39,792.104 1196,868.687 1144.16,909.658 1143.51,912.036 1142.03,913.837 1210.3,867.538 1145.25,903.746 1093.86,942.398 1109.09,939.095 1091.07,949.71 1073.6,956.348 1067.83,966.072 1049.91,977.074 1062.39,969.904 1113.04,940.237 1024.05,988.82 1035.44,988.477 1044.08,982.02 1093.22,953.748 1056.68,969.943 1082.63,948.747 1104.2,924.621 1195.71,867.172 1145.7,902.244 1157.76,908.287 1020.92,993.199 1041.28,986.697 1081.1,962.266 1088.18,962.61 1234.09,867.121 1295.13,816.775 1222.3,847.566 1154.41,897.75 1094.85,943.963 1172.67,903.2 1175.7,887.804 1306.54,802.344 1275.3,803.254 1137.36,894.799 1099.86,931.435 1178.33,891.256 1200.78,874.872 1188.5,879.499 1180.28,885.511 1177.65,890.775 1231.23,861.855 1301.08,804.793 1366.93,756.123 1441.47,688.682 1413.65,688.206 1330.85,750.495 1276.02,801.789 1229.98,834.668 1285.92,811.443 1290.98,800.579 1350.85,761.884 1254.68,833.669 1362.16,759.144 1290.57,787.539 1195.29,865.221 1164.18,890.453 1108.11,927.403 1113.11,933.144 1118.03,931.164 1167.01,904.709 1194.69,884.911 1311.65,803.265 1285.43,802.411 1388.15,735.178 1460.91,681.352 1504.87,642.294 1547.52,591.342 1456.57,648.8 1425.18,671.501 1430.22,675.278 1396.92,702.375 1339.64,744.46 1351.11,744.118 1345.24,752.482 1262.96,813.166 1229.99,842.256 1171.99,883.932 1145.3,905.07 1188.02,889.355 1165.92,899.6 1148.26,921.03 1167.44,904.828 1148.84,910.292 1102.56,939.126 991.746,1010.43 1094.25,962.354 1251.54,866.767 1227.77,866.639 1189.58,880.232 1199.38,874.637 1132.39,910.946 1130.26,916.49 1203.39,879.769 1228.57,853.853 1221.52,852.249 1157.53,891.35 1146.77,903.409 1156.43,902.05 1148.96,904.668 1104.82,934.047 1122.38,927.622 1222.88,863.872 1236.04,848.38 1235.59,848.123 1192.66,863.839 1147.29,897.601 1098.43,926.662 1119.92,927.156 1185.2,892.472 1168.62,898.597 1170.39,897.436 1189.21,885.368 1289.66,810.771 1362.53,755.911 1489.43,649.709 1399.65,697.353 1372.04,723.627 1394.54,709.683 1292.83,772.599 1188.91,852.242 1183.4,866.212 1178.89,878.371 1194.17,874.428 1256.02,841.164 1267.51,826.874 1270.04,827.563 1302.97,801.875 1315.52,784.948 1263.08,815.952 1322.16,778.48 1237.19,839.587 1209.45,865.298 1261.97,833.223 1233.24,848.03 1193.13,873.708 1251.18,841.741 1242.66,836.773 1259.32,830.399 1211.1,859.89 1230.19,844.357 1244.35,829.612 1182.97,873.579 1218.52,851.647 1332.55,777.249 1342.65,766.037 1422.14,701.757 1364.28,731.978 1332.91,749.938 1271.85,804.67 1328.89,772.549 1279.51,796.071 1270.85,810.172 1264.89,813.805 1189.43,862.039 1206.72,855.935 1209.74,862.563 1174.11,886.12 1118.82,924.252 1164.62,901.464 1101.23,940.761 1088.09,949.15 1132.85,926.934 1195.33,885.471 1209.58,873.67 1188.82,879.049 1135.3,907.017 1147.94,910.045 1120.77,925.236 1143.29,914.663 1112.32,935.817 1058.4,966.552 1093.6,950.015 1110.07,944.679 1091.21,961.825 1116.82,931.151 1129.07,924.619 1120.11,929.324 1123.48,922.844 1109.39,920.318 1087.48,949.82 1188.45,881.336 1163.36,887.7 1176.78,877.134 1106.16,935.897 1096.22,944.432 1117.04,929.515 1169.54,899.576 1144.41,901.585 1223.06,858.652 1088.65,941.213 1139.85,922.434 1258.5,836.223 1262.59,822.394 1282.68,812.204 1188.6,867.841 1193.85,858.779 1151.87,891.141 1190.42,881.3 1201.63,877.396 1305.22,811.462 1267.63,821.838 1252.01,825.657 1279.96,807.972 1250.62,828.477 1243.9,833.07 1334.31,775.44 1403.67,724.134 1444,686.042 1398.39,710.106 1461.98,644.295 1539.99,594.056 1593.85,557.886 1456.68,647.749 1432.36,670.777 1425.9,678.399 1329.57,753.541 1353.49,749.896 1381.07,735.771 1329.46,774.862 1299.06,793.981 1282.51,805.885 1274.93,816.145 1327.7,773.655 1399.05,724.129 1287.12,797.208 1247.71,829.307 1289.69,803.796 1166.26,887.96 1255.68,844.462 1284.86,817.797 1321.8,788.729 1395.47,730.59 1392.05,724.596 1428.91,702.571 1441.9,673.632 1368.38,724.601 1242.17,818.245 1223.22,843.361 1259.96,826.996 1253.19,826.257 1289.66,803.286 1238.33,836.193 1142.16,899.543 1147.03,904.422 1184.77,889.883 1122.7,927.158 1144.73,908.515 1176.12,892.283 1215.15,865.628 1199.41,871.356 1173.01,892.448 1106.63,932.774 1077.22,961.556 1060.58,969.358 938.108,1044.28 974.063,1028.18 1041.02,987.795 1111.72,944.052 1104.09,945.377 1182.87,884.416 1223.02,856.985 1249.98,839.303 1204.17,864.798 1225.37,838.603 1228.55,846.041 1139.48,913.54 1149.11,901.689 1109.09,924.064 1046.83,962.55 1018.3,987.803 998.596,1001.41 1042.55,989.871 1025.87,999.295 979.5,1017.6 1057.79,980.196 1104.85,942.172 1117.9,936.456 1049.93,987.523 973.427,1026.86 1020.88,1001.3 1112.76,946.154 1034.47,984.988 1042.46,985.182 1082.07,956.568 1116.11,945.397 1205.09,879.913 1198.57,868.415 1144.12,903.661 1171.88,891.212 1259.31,838.338 1229.69,850.179 1264.16,826.123 1135.88,908.868 1155.3,896.671 1157.21,894.483 1137.09,902.285 1030.83,974.599 978.519,1009.87 929.119,1047.18 967.677,1035.71 902.714,1068.41 870.3,1088.07 892.101,1081.98 834.847,1114.74 897.258,1083.95 883.489,1088.43 965.068,1041.52 962.063,1038.75 1026.65,1002.58 989.784,1018.92 1098.95,965.194 1114.54,944.447 1209.12,879.746 1245.34,850.238 1394.34,739.373 1450.29,678.824 1486.41,646.904 1419.14,680.566 1377.91,708.396 1426.01,676.19 1537.33,588.938 1506.11,600.953 1509.72,593.735 1398.54,682.297 1424.4,679.199 1400.87,702.295 1383.71,712.575 1324.53,759.401 1340.03,761.082 1312.97,778.47 1229.27,829.922 1270.33,814.355 1203.46,858.254 1200.86,870.543 1191.81,874.976 1151.97,904.25 1249.76,854.19 1219.54,860.828 1272.47,824.566 1251.69,828.013 1406.68,733.225 1358.79,746.493 1386.24,731.647 1357.85,739.821 1338.38,754.828 1330.28,762.897 1330.57,762.135 1381.21,739.559 1413.23,708.372 1468.38,654.684 1429.91,678.703 1266.02,795.491 1235.58,828.97 1156.81,884.889 1149.63,896.374 1178.38,887.245 1167.9,893.865 1258.88,840.782 1226.17,849.771 1160.13,890.135 1112.35,930.546 1087.82,953.507 1060.94,968.788 1086.22,955.461 1044.76,981.623 1093.34,958.989 1073.29,973.767 1096.35,958.851 1136.97,925.615 1176.4,900.341 1183.42,889.41 1111.78,936.278 "/>
<path clip-path="url(#clip980)" d="M228.998 198.898 L588.673 198.898 L588.673 95.2176 L228.998 95.2176  Z" fill="#ffffff" fill-rule="evenodd" fill-opacity="1"/>
<polyline clip-path="url(#clip980)" style="stroke:#000000; stroke-linecap:round; stroke-linejoin:round; stroke-width:4; stroke-opacity:1; fill:none" points="228.998,198.898 588.673,198.898 588.673,95.2176 228.998,95.2176 228.998,198.898 "/>
<polyline clip-path="url(#clip980)" style="stroke:#009af9; stroke-linecap:round; stroke-linejoin:round; stroke-width:4; stroke-opacity:1; fill:none" points="253.409,147.058 399.875,147.058 "/>
<path clip-path="url(#clip980)" d="M434.911 128.366 Q431.809 133.69 430.305 138.898 Q428.8 144.106 428.8 149.453 Q428.8 154.801 430.305 160.055 Q431.832 165.287 434.911 170.588 L431.207 170.588 Q427.735 165.148 425.999 159.893 Q424.286 154.639 424.286 149.453 Q424.286 144.291 425.999 139.06 Q427.712 133.828 431.207 128.366 L434.911 128.366 Z" fill="#000000" fill-rule="nonzero" fill-opacity="1" /><path clip-path="url(#clip980)" d="M464.726 138.412 L455.351 151.027 L465.212 164.338 L460.189 164.338 L452.642 154.152 L445.096 164.338 L440.073 164.338 L450.142 150.773 L440.929 138.412 L445.953 138.412 L452.828 147.648 L459.703 138.412 L464.726 138.412 Z" fill="#000000" fill-rule="nonzero" fill-opacity="1" /><path clip-path="url(#clip980)" d="M472.318 158.458 L477.202 158.458 L477.202 162.439 L473.406 169.847 L470.42 169.847 L472.318 162.439 L472.318 158.458 Z" fill="#000000" fill-rule="nonzero" fill-opacity="1" /><path clip-path="url(#clip980)" d="M497.087 166.745 Q495.281 171.375 493.568 172.787 Q491.855 174.199 488.985 174.199 L485.582 174.199 L485.582 170.634 L488.082 170.634 Q489.841 170.634 490.813 169.8 Q491.786 168.967 492.966 165.865 L493.73 163.921 L483.244 138.412 L487.758 138.412 L495.86 158.689 L503.962 138.412 L508.475 138.412 L497.087 166.745 Z" fill="#000000" fill-rule="nonzero" fill-opacity="1" /><path clip-path="url(#clip980)" d="M515.443 158.458 L520.327 158.458 L520.327 162.439 L516.531 169.847 L513.545 169.847 L515.443 162.439 L515.443 158.458 Z" fill="#000000" fill-rule="nonzero" fill-opacity="1" /><path clip-path="url(#clip980)" d="M527.573 138.412 L547.804 138.412 L547.804 142.301 L531.785 160.935 L547.804 160.935 L547.804 164.338 L526.994 164.338 L526.994 160.449 L543.012 141.815 L527.573 141.815 L527.573 138.412 Z" fill="#000000" fill-rule="nonzero" fill-opacity="1" /><path clip-path="url(#clip980)" d="M553.637 128.366 L557.341 128.366 Q560.813 133.828 562.526 139.06 Q564.262 144.291 564.262 149.453 Q564.262 154.639 562.526 159.893 Q560.813 165.148 557.341 170.588 L553.637 170.588 Q556.716 165.287 558.22 160.055 Q559.748 154.801 559.748 149.453 Q559.748 144.106 558.22 138.898 Q556.716 133.69 553.637 128.366 Z" fill="#000000" fill-rule="nonzero" fill-opacity="1" /></svg>
