<?xml version="1.0" encoding="utf-8"?>
<svg xmlns="http://www.w3.org/2000/svg" xmlns:xlink="http://www.w3.org/1999/xlink" width="600" height="400" viewBox="0 0 2400 1600">
<defs>
  <clipPath id="clip940">
    <rect x="0" y="0" width="2400" height="1600"/>
  </clipPath>
</defs>
<path clip-path="url(#clip940)" d="M0 1600 L2400 1600 L2400 0 L0 0  Z" fill="#ffffff" fill-rule="evenodd" fill-opacity="1"/>
<defs>
  <clipPath id="clip941">
    <rect x="193" y="47" width="2160" height="1377"/>
  </clipPath>
</defs>
<path clip-path="url(#clip940)" d="M193.936 1423.18 L2352.76 1423.18 L2352.76 47.2441 L193.936 47.2441  Z" fill="#ffffff" fill-rule="evenodd" fill-opacity="1"/>
<polyline clip-path="url(#clip941)" style="stroke:#000000; stroke-linecap:round; stroke-linejoin:round; stroke-width:2; stroke-opacity:0.1; fill:none" points="193.936,1423.18 193.936,47.2441 "/>
<polyline clip-path="url(#clip941)" style="stroke:#000000; stroke-linecap:round; stroke-linejoin:round; stroke-width:2; stroke-opacity:0.1; fill:none" points="625.7,1423.18 625.7,47.2441 "/>
<polyline clip-path="url(#clip941)" style="stroke:#000000; stroke-linecap:round; stroke-linejoin:round; stroke-width:2; stroke-opacity:0.1; fill:none" points="1057.46,1423.18 1057.46,47.2441 "/>
<polyline clip-path="url(#clip941)" style="stroke:#000000; stroke-linecap:round; stroke-linejoin:round; stroke-width:2; stroke-opacity:0.1; fill:none" points="1489.23,1423.18 1489.23,47.2441 "/>
<polyline clip-path="url(#clip941)" style="stroke:#000000; stroke-linecap:round; stroke-linejoin:round; stroke-width:2; stroke-opacity:0.1; fill:none" points="1920.99,1423.18 1920.99,47.2441 "/>
<polyline clip-path="url(#clip941)" style="stroke:#000000; stroke-linecap:round; stroke-linejoin:round; stroke-width:2; stroke-opacity:0.1; fill:none" points="2352.76,1423.18 2352.76,47.2441 "/>
<polyline clip-path="url(#clip941)" style="stroke:#000000; stroke-linecap:round; stroke-linejoin:round; stroke-width:2; stroke-opacity:0.1; fill:none" points="193.936,1205.5 2352.76,1205.5 "/>
<polyline clip-path="url(#clip941)" style="stroke:#000000; stroke-linecap:round; stroke-linejoin:round; stroke-width:2; stroke-opacity:0.1; fill:none" points="193.936,938.797 2352.76,938.797 "/>
<polyline clip-path="url(#clip941)" style="stroke:#000000; stroke-linecap:round; stroke-linejoin:round; stroke-width:2; stroke-opacity:0.1; fill:none" points="193.936,672.091 2352.76,672.091 "/>
<polyline clip-path="url(#clip941)" style="stroke:#000000; stroke-linecap:round; stroke-linejoin:round; stroke-width:2; stroke-opacity:0.1; fill:none" points="193.936,405.385 2352.76,405.385 "/>
<polyline clip-path="url(#clip941)" style="stroke:#000000; stroke-linecap:round; stroke-linejoin:round; stroke-width:2; stroke-opacity:0.1; fill:none" points="193.936,138.68 2352.76,138.68 "/>
<polyline clip-path="url(#clip940)" style="stroke:#000000; stroke-linecap:round; stroke-linejoin:round; stroke-width:4; stroke-opacity:1; fill:none" points="193.936,1423.18 2352.76,1423.18 "/>
<polyline clip-path="url(#clip940)" style="stroke:#000000; stroke-linecap:round; stroke-linejoin:round; stroke-width:4; stroke-opacity:1; fill:none" points="193.936,1423.18 193.936,1404.28 "/>
<polyline clip-path="url(#clip940)" style="stroke:#000000; stroke-linecap:round; stroke-linejoin:round; stroke-width:4; stroke-opacity:1; fill:none" points="625.7,1423.18 625.7,1404.28 "/>
<polyline clip-path="url(#clip940)" style="stroke:#000000; stroke-linecap:round; stroke-linejoin:round; stroke-width:4; stroke-opacity:1; fill:none" points="1057.46,1423.18 1057.46,1404.28 "/>
<polyline clip-path="url(#clip940)" style="stroke:#000000; stroke-linecap:round; stroke-linejoin:round; stroke-width:4; stroke-opacity:1; fill:none" points="1489.23,1423.18 1489.23,1404.28 "/>
<polyline clip-path="url(#clip940)" style="stroke:#000000; stroke-linecap:round; stroke-linejoin:round; stroke-width:4; stroke-opacity:1; fill:none" points="1920.99,1423.18 1920.99,1404.28 "/>
<polyline clip-path="url(#clip940)" style="stroke:#000000; stroke-linecap:round; stroke-linejoin:round; stroke-width:4; stroke-opacity:1; fill:none" points="2352.76,1423.18 2352.76,1404.28 "/>
<path clip-path="url(#clip940)" d="M193.936 1454.1 Q190.325 1454.1 188.496 1457.66 Q186.691 1461.2 186.691 1468.33 Q186.691 1475.44 188.496 1479.01 Q190.325 1482.55 193.936 1482.55 Q197.57 1482.55 199.376 1479.01 Q201.204 1475.44 201.204 1468.33 Q201.204 1461.2 199.376 1457.66 Q197.57 1454.1 193.936 1454.1 M193.936 1450.39 Q199.746 1450.39 202.802 1455 Q205.88 1459.58 205.88 1468.33 Q205.88 1477.06 202.802 1481.67 Q199.746 1486.25 193.936 1486.25 Q188.126 1486.25 185.047 1481.67 Q181.992 1477.06 181.992 1468.33 Q181.992 1459.58 185.047 1455 Q188.126 1450.39 193.936 1450.39 Z" fill="#000000" fill-rule="nonzero" fill-opacity="1" /><path clip-path="url(#clip940)" d="M620.353 1481.64 L636.672 1481.64 L636.672 1485.58 L614.728 1485.58 L614.728 1481.64 Q617.39 1478.89 621.973 1474.26 Q626.58 1469.61 627.76 1468.27 Q630.006 1465.74 630.885 1464.01 Q631.788 1462.25 631.788 1460.56 Q631.788 1457.8 629.843 1456.07 Q627.922 1454.33 624.82 1454.33 Q622.621 1454.33 620.168 1455.09 Q617.737 1455.86 614.959 1457.41 L614.959 1452.69 Q617.783 1451.55 620.237 1450.97 Q622.691 1450.39 624.728 1450.39 Q630.098 1450.39 633.293 1453.08 Q636.487 1455.77 636.487 1460.26 Q636.487 1462.39 635.677 1464.31 Q634.89 1466.2 632.783 1468.8 Q632.205 1469.47 629.103 1472.69 Q626.001 1475.88 620.353 1481.64 Z" fill="#000000" fill-rule="nonzero" fill-opacity="1" /><path clip-path="url(#clip940)" d="M1060.47 1455.09 L1048.67 1473.54 L1060.47 1473.54 L1060.47 1455.09 M1059.25 1451.02 L1065.13 1451.02 L1065.13 1473.54 L1070.06 1473.54 L1070.06 1477.43 L1065.13 1477.43 L1065.13 1485.58 L1060.47 1485.58 L1060.47 1477.43 L1044.87 1477.43 L1044.87 1472.92 L1059.25 1451.02 Z" fill="#000000" fill-rule="nonzero" fill-opacity="1" /><path clip-path="url(#clip940)" d="M1489.63 1466.44 Q1486.48 1466.44 1484.63 1468.59 Q1482.8 1470.74 1482.8 1474.49 Q1482.8 1478.22 1484.63 1480.39 Q1486.48 1482.55 1489.63 1482.55 Q1492.78 1482.55 1494.61 1480.39 Q1496.46 1478.22 1496.46 1474.49 Q1496.46 1470.74 1494.61 1468.59 Q1492.78 1466.44 1489.63 1466.44 M1498.92 1451.78 L1498.92 1456.04 Q1497.16 1455.21 1495.35 1454.77 Q1493.57 1454.33 1491.81 1454.33 Q1487.18 1454.33 1484.73 1457.45 Q1482.3 1460.58 1481.95 1466.9 Q1483.31 1464.89 1485.37 1463.82 Q1487.43 1462.73 1489.91 1462.73 Q1495.12 1462.73 1498.13 1465.9 Q1501.16 1469.05 1501.16 1474.49 Q1501.16 1479.82 1498.01 1483.03 Q1494.86 1486.25 1489.63 1486.25 Q1483.64 1486.25 1480.47 1481.67 Q1477.3 1477.06 1477.3 1468.33 Q1477.3 1460.14 1481.18 1455.28 Q1485.07 1450.39 1491.62 1450.39 Q1493.38 1450.39 1495.17 1450.74 Q1496.97 1451.09 1498.92 1451.78 Z" fill="#000000" fill-rule="nonzero" fill-opacity="1" /><path clip-path="url(#clip940)" d="M1920.99 1469.17 Q1917.66 1469.17 1915.74 1470.95 Q1913.84 1472.73 1913.84 1475.86 Q1913.84 1478.98 1915.74 1480.77 Q1917.66 1482.55 1920.99 1482.55 Q1924.33 1482.55 1926.25 1480.77 Q1928.17 1478.96 1928.17 1475.86 Q1928.17 1472.73 1926.25 1470.95 Q1924.35 1469.17 1920.99 1469.17 M1916.32 1467.18 Q1913.31 1466.44 1911.62 1464.38 Q1909.95 1462.32 1909.95 1459.35 Q1909.95 1455.21 1912.89 1452.8 Q1915.85 1450.39 1920.99 1450.39 Q1926.15 1450.39 1929.09 1452.8 Q1932.03 1455.21 1932.03 1459.35 Q1932.03 1462.32 1930.34 1464.38 Q1928.68 1466.44 1925.69 1467.18 Q1929.07 1467.96 1930.95 1470.26 Q1932.84 1472.55 1932.84 1475.86 Q1932.84 1480.88 1929.77 1483.57 Q1926.71 1486.25 1920.99 1486.25 Q1915.27 1486.25 1912.2 1483.57 Q1909.14 1480.88 1909.14 1475.86 Q1909.14 1472.55 1911.04 1470.26 Q1912.94 1467.96 1916.32 1467.18 M1914.6 1459.79 Q1914.6 1462.48 1916.27 1463.98 Q1917.96 1465.49 1920.99 1465.49 Q1924 1465.49 1925.69 1463.98 Q1927.4 1462.48 1927.4 1459.79 Q1927.4 1457.11 1925.69 1455.6 Q1924 1454.1 1920.99 1454.1 Q1917.96 1454.1 1916.27 1455.6 Q1914.6 1457.11 1914.6 1459.79 Z" fill="#000000" fill-rule="nonzero" fill-opacity="1" /><path clip-path="url(#clip940)" d="M2327.44 1481.64 L2335.08 1481.64 L2335.08 1455.28 L2326.77 1456.95 L2326.77 1452.69 L2335.04 1451.02 L2339.71 1451.02 L2339.71 1481.64 L2347.35 1481.64 L2347.35 1485.58 L2327.44 1485.58 L2327.44 1481.64 Z" fill="#000000" fill-rule="nonzero" fill-opacity="1" /><path clip-path="url(#clip940)" d="M2366.8 1454.1 Q2363.18 1454.1 2361.36 1457.66 Q2359.55 1461.2 2359.55 1468.33 Q2359.55 1475.44 2361.36 1479.01 Q2363.18 1482.55 2366.8 1482.55 Q2370.43 1482.55 2372.23 1479.01 Q2374.06 1475.44 2374.06 1468.33 Q2374.06 1461.2 2372.23 1457.66 Q2370.43 1454.1 2366.8 1454.1 M2366.8 1450.39 Q2372.61 1450.39 2375.66 1455 Q2378.74 1459.58 2378.74 1468.33 Q2378.74 1477.06 2375.66 1481.67 Q2372.61 1486.25 2366.8 1486.25 Q2360.99 1486.25 2357.91 1481.67 Q2354.85 1477.06 2354.85 1468.33 Q2354.85 1459.58 2357.91 1455 Q2360.99 1450.39 2366.8 1450.39 Z" fill="#000000" fill-rule="nonzero" fill-opacity="1" /><path clip-path="url(#clip940)" d="M1272.41 1522.27 L1272.41 1532.4 L1284.47 1532.4 L1284.47 1536.95 L1272.41 1536.95 L1272.41 1556.3 Q1272.41 1560.66 1273.58 1561.9 Q1274.79 1563.14 1278.45 1563.14 L1284.47 1563.14 L1284.47 1568.04 L1278.45 1568.04 Q1271.67 1568.04 1269.1 1565.53 Q1266.52 1562.98 1266.52 1556.3 L1266.52 1536.95 L1262.22 1536.95 L1262.22 1532.4 L1266.52 1532.4 L1266.52 1522.27 L1272.41 1522.27 Z" fill="#000000" fill-rule="nonzero" fill-opacity="1" /><polyline clip-path="url(#clip940)" style="stroke:#000000; stroke-linecap:round; stroke-linejoin:round; stroke-width:4; stroke-opacity:1; fill:none" points="193.936,1423.18 193.936,47.2441 "/>
<polyline clip-path="url(#clip940)" style="stroke:#000000; stroke-linecap:round; stroke-linejoin:round; stroke-width:4; stroke-opacity:1; fill:none" points="193.936,1205.5 212.834,1205.5 "/>
<polyline clip-path="url(#clip940)" style="stroke:#000000; stroke-linecap:round; stroke-linejoin:round; stroke-width:4; stroke-opacity:1; fill:none" points="193.936,938.797 212.834,938.797 "/>
<polyline clip-path="url(#clip940)" style="stroke:#000000; stroke-linecap:round; stroke-linejoin:round; stroke-width:4; stroke-opacity:1; fill:none" points="193.936,672.091 212.834,672.091 "/>
<polyline clip-path="url(#clip940)" style="stroke:#000000; stroke-linecap:round; stroke-linejoin:round; stroke-width:4; stroke-opacity:1; fill:none" points="193.936,405.385 212.834,405.385 "/>
<polyline clip-path="url(#clip940)" style="stroke:#000000; stroke-linecap:round; stroke-linejoin:round; stroke-width:4; stroke-opacity:1; fill:none" points="193.936,138.68 212.834,138.68 "/>
<path clip-path="url(#clip940)" d="M51.9875 1205.95 L81.6633 1205.95 L81.6633 1209.89 L51.9875 1209.89 L51.9875 1205.95 Z" fill="#000000" fill-rule="nonzero" fill-opacity="1" /><path clip-path="url(#clip940)" d="M92.566 1218.85 L100.205 1218.85 L100.205 1192.48 L91.8947 1194.15 L91.8947 1189.89 L100.159 1188.22 L104.834 1188.22 L104.834 1218.85 L112.473 1218.85 L112.473 1222.78 L92.566 1222.78 L92.566 1218.85 Z" fill="#000000" fill-rule="nonzero" fill-opacity="1" /><path clip-path="url(#clip940)" d="M121.918 1216.9 L126.802 1216.9 L126.802 1222.78 L121.918 1222.78 L121.918 1216.9 Z" fill="#000000" fill-rule="nonzero" fill-opacity="1" /><path clip-path="url(#clip940)" d="M137.033 1188.22 L155.39 1188.22 L155.39 1192.16 L141.316 1192.16 L141.316 1200.63 Q142.334 1200.28 143.353 1200.12 Q144.371 1199.94 145.39 1199.94 Q151.177 1199.94 154.556 1203.11 Q157.936 1206.28 157.936 1211.69 Q157.936 1217.27 154.464 1220.37 Q150.992 1223.45 144.672 1223.45 Q142.496 1223.45 140.228 1223.08 Q137.982 1222.71 135.575 1221.97 L135.575 1217.27 Q137.658 1218.41 139.881 1218.96 Q142.103 1219.52 144.58 1219.52 Q148.584 1219.52 150.922 1217.41 Q153.26 1215.31 153.26 1211.69 Q153.26 1208.08 150.922 1205.98 Q148.584 1203.87 144.58 1203.87 Q142.705 1203.87 140.83 1204.29 Q138.978 1204.7 137.033 1205.58 L137.033 1188.22 Z" fill="#000000" fill-rule="nonzero" fill-opacity="1" /><path clip-path="url(#clip940)" d="M50.9921 939.248 L80.6679 939.248 L80.6679 943.183 L50.9921 943.183 L50.9921 939.248 Z" fill="#000000" fill-rule="nonzero" fill-opacity="1" /><path clip-path="url(#clip940)" d="M91.5706 952.141 L99.2095 952.141 L99.2095 925.776 L90.8993 927.442 L90.8993 923.183 L99.1632 921.517 L103.839 921.517 L103.839 952.141 L111.478 952.141 L111.478 956.077 L91.5706 956.077 L91.5706 952.141 Z" fill="#000000" fill-rule="nonzero" fill-opacity="1" /><path clip-path="url(#clip940)" d="M120.922 950.197 L125.807 950.197 L125.807 956.077 L120.922 956.077 L120.922 950.197 Z" fill="#000000" fill-rule="nonzero" fill-opacity="1" /><path clip-path="url(#clip940)" d="M145.992 924.595 Q142.381 924.595 140.552 928.16 Q138.746 931.702 138.746 938.831 Q138.746 945.938 140.552 949.503 Q142.381 953.044 145.992 953.044 Q149.626 953.044 151.431 949.503 Q153.26 945.938 153.26 938.831 Q153.26 931.702 151.431 928.16 Q149.626 924.595 145.992 924.595 M145.992 920.892 Q151.802 920.892 154.857 925.498 Q157.936 930.081 157.936 938.831 Q157.936 947.558 154.857 952.165 Q151.802 956.748 145.992 956.748 Q140.181 956.748 137.103 952.165 Q134.047 947.558 134.047 938.831 Q134.047 930.081 137.103 925.498 Q140.181 920.892 145.992 920.892 Z" fill="#000000" fill-rule="nonzero" fill-opacity="1" /><path clip-path="url(#clip940)" d="M51.9875 672.542 L81.6633 672.542 L81.6633 676.477 L51.9875 676.477 L51.9875 672.542 Z" fill="#000000" fill-rule="nonzero" fill-opacity="1" /><path clip-path="url(#clip940)" d="M101.756 657.89 Q98.1447 657.89 96.316 661.454 Q94.5104 664.996 94.5104 672.126 Q94.5104 679.232 96.316 682.797 Q98.1447 686.339 101.756 686.339 Q105.39 686.339 107.196 682.797 Q109.024 679.232 109.024 672.126 Q109.024 664.996 107.196 661.454 Q105.39 657.89 101.756 657.89 M101.756 654.186 Q107.566 654.186 110.621 658.792 Q113.7 663.376 113.7 672.126 Q113.7 680.852 110.621 685.459 Q107.566 690.042 101.756 690.042 Q95.9456 690.042 92.8669 685.459 Q89.8114 680.852 89.8114 672.126 Q89.8114 663.376 92.8669 658.792 Q95.9456 654.186 101.756 654.186 Z" fill="#000000" fill-rule="nonzero" fill-opacity="1" /><path clip-path="url(#clip940)" d="M121.918 683.491 L126.802 683.491 L126.802 689.371 L121.918 689.371 L121.918 683.491 Z" fill="#000000" fill-rule="nonzero" fill-opacity="1" /><path clip-path="url(#clip940)" d="M137.033 654.811 L155.39 654.811 L155.39 658.746 L141.316 658.746 L141.316 667.218 Q142.334 666.871 143.353 666.709 Q144.371 666.524 145.39 666.524 Q151.177 666.524 154.556 669.695 Q157.936 672.866 157.936 678.283 Q157.936 683.862 154.464 686.964 Q150.992 690.042 144.672 690.042 Q142.496 690.042 140.228 689.672 Q137.982 689.301 135.575 688.561 L135.575 683.862 Q137.658 684.996 139.881 685.551 Q142.103 686.107 144.58 686.107 Q148.584 686.107 150.922 684.001 Q153.26 681.894 153.26 678.283 Q153.26 674.672 150.922 672.565 Q148.584 670.459 144.58 670.459 Q142.705 670.459 140.83 670.876 Q138.978 671.292 137.033 672.172 L137.033 654.811 Z" fill="#000000" fill-rule="nonzero" fill-opacity="1" /><path clip-path="url(#clip940)" d="M100.76 391.184 Q97.1493 391.184 95.3206 394.749 Q93.515 398.29 93.515 405.42 Q93.515 412.526 95.3206 416.091 Q97.1493 419.633 100.76 419.633 Q104.395 419.633 106.2 416.091 Q108.029 412.526 108.029 405.42 Q108.029 398.29 106.2 394.749 Q104.395 391.184 100.76 391.184 M100.76 387.48 Q106.571 387.48 109.626 392.087 Q112.705 396.67 112.705 405.42 Q112.705 414.147 109.626 418.753 Q106.571 423.337 100.76 423.337 Q94.9502 423.337 91.8715 418.753 Q88.816 414.147 88.816 405.42 Q88.816 396.67 91.8715 392.087 Q94.9502 387.48 100.76 387.48 Z" fill="#000000" fill-rule="nonzero" fill-opacity="1" /><path clip-path="url(#clip940)" d="M120.922 416.786 L125.807 416.786 L125.807 422.665 L120.922 422.665 L120.922 416.786 Z" fill="#000000" fill-rule="nonzero" fill-opacity="1" /><path clip-path="url(#clip940)" d="M145.992 391.184 Q142.381 391.184 140.552 394.749 Q138.746 398.29 138.746 405.42 Q138.746 412.526 140.552 416.091 Q142.381 419.633 145.992 419.633 Q149.626 419.633 151.431 416.091 Q153.26 412.526 153.26 405.42 Q153.26 398.29 151.431 394.749 Q149.626 391.184 145.992 391.184 M145.992 387.48 Q151.802 387.48 154.857 392.087 Q157.936 396.67 157.936 405.42 Q157.936 414.147 154.857 418.753 Q151.802 423.337 145.992 423.337 Q140.181 423.337 137.103 418.753 Q134.047 414.147 134.047 405.42 Q134.047 396.67 137.103 392.087 Q140.181 387.48 145.992 387.48 Z" fill="#000000" fill-rule="nonzero" fill-opacity="1" /><path clip-path="url(#clip940)" d="M101.756 124.478 Q98.1447 124.478 96.316 128.043 Q94.5104 131.585 94.5104 138.714 Q94.5104 145.821 96.316 149.386 Q98.1447 152.927 101.756 152.927 Q105.39 152.927 107.196 149.386 Q109.024 145.821 109.024 138.714 Q109.024 131.585 107.196 128.043 Q105.39 124.478 101.756 124.478 M101.756 120.775 Q107.566 120.775 110.621 125.381 Q113.7 129.964 113.7 138.714 Q113.7 147.441 110.621 152.048 Q107.566 156.631 101.756 156.631 Q95.9456 156.631 92.8669 152.048 Q89.8114 147.441 89.8114 138.714 Q89.8114 129.964 92.8669 125.381 Q95.9456 120.775 101.756 120.775 Z" fill="#000000" fill-rule="nonzero" fill-opacity="1" /><path clip-path="url(#clip940)" d="M121.918 150.08 L126.802 150.08 L126.802 155.96 L121.918 155.96 L121.918 150.08 Z" fill="#000000" fill-rule="nonzero" fill-opacity="1" /><path clip-path="url(#clip940)" d="M137.033 121.4 L155.39 121.4 L155.39 125.335 L141.316 125.335 L141.316 133.807 Q142.334 133.46 143.353 133.298 Q144.371 133.112 145.39 133.112 Q151.177 133.112 154.556 136.284 Q157.936 139.455 157.936 144.872 Q157.936 150.45 154.464 153.552 Q150.992 156.631 144.672 156.631 Q142.496 156.631 140.228 156.261 Q137.982 155.89 135.575 155.149 L135.575 150.45 Q137.658 151.585 139.881 152.14 Q142.103 152.696 144.58 152.696 Q148.584 152.696 150.922 150.589 Q153.26 148.483 153.26 144.872 Q153.26 141.261 150.922 139.154 Q148.584 137.048 144.58 137.048 Q142.705 137.048 140.83 137.464 Q138.978 137.881 137.033 138.761 L137.033 121.4 Z" fill="#000000" fill-rule="nonzero" fill-opacity="1" /><polyline clip-path="url(#clip941)" style="stroke:#009af9; stroke-linecap:round; stroke-linejoin:round; stroke-width:4; stroke-opacity:1; fill:none" points="193.936,405.385 196.097,407.746 198.258,410.075 200.419,412.373 202.58,414.641 204.741,416.879 206.902,419.087 209.063,421.266 211.224,423.416 213.385,425.537 215.546,427.631 217.707,429.696 219.868,431.734 222.029,433.746 224.19,435.73 226.351,437.688 228.512,439.62 230.673,441.527 232.834,443.408 234.995,445.265 237.156,447.097 239.317,448.904 241.478,450.688 243.639,452.447 245.8,454.184 247.961,455.898 250.122,457.588 252.282,459.257 254.443,460.903 256.604,462.527 258.765,464.13 260.926,465.712 263.087,467.273 265.248,468.813 267.409,470.332 269.57,471.832 271.731,473.311 273.892,474.771 276.053,476.212 278.214,477.633 280.375,479.036 282.536,480.42 284.697,481.786 286.858,483.133 289.019,484.463 291.18,485.775 293.341,487.07 295.502,488.347 297.663,489.608 299.824,490.852 301.985,492.079 304.146,493.29 306.307,494.485 308.468,495.664 310.629,496.828 312.79,497.976 314.951,499.109 317.112,500.227 319.273,501.33 321.434,502.419 323.595,503.493 325.756,504.552 327.917,505.598 330.078,506.63 332.239,507.648 334.4,508.653 336.561,509.644 338.722,510.623 340.883,511.588 343.044,512.54 345.205,513.48 347.366,514.408 349.527,515.323 351.688,516.226 353.849,517.117 356.01,517.996 358.171,518.863 360.332,519.719 362.493,520.564 364.653,521.397 366.814,522.22 368.975,523.031 371.136,523.832 373.297,524.622 375.458,525.402 377.619,526.171 379.78,526.922 381.941,527.545 384.102,528.054 386.263,528.508 388.424,528.963 390.585,529.463 392.746,530.048 394.907,530.749 397.068,531.593 399.229,532.597 401.39,533.772 403.551,535.123 405.712,536.645 407.873,538.331 410.034,540.161 412.195,542.113 414.356,544.156 416.517,546.25 418.678,548.352 420.839,550.409 423,552.366 425.161,554.267 427.322,556.143 429.483,557.994 431.644,559.821 433.805,561.623 435.966,563.402 438.127,565.156 440.288,566.888 442.449,568.597 444.61,570.283 446.771,571.946 448.932,573.588 451.093,575.208 453.254,576.806 455.415,578.383 457.576,579.94 459.737,581.476 461.898,582.991 464.059,584.487 466.22,585.962 468.381,587.418 470.542,588.855 472.703,590.272 474.864,591.671 477.024,593.051 479.185,594.413 481.346,595.757 483.507,597.083 485.668,598.391 487.829,599.682 489.99,600.956 492.151,602.213 494.312,603.453 496.473,604.677 498.634,605.884 500.795,607.076 502.956,608.252 505.117,609.412 507.278,610.556 509.439,611.686 511.6,612.8 513.761,613.9 515.922,614.985 518.083,616.056 520.244,617.112 522.405,618.155 524.566,619.184 526.727,620.199 528.888,621.201 531.049,622.189 533.21,623.164 535.371,624.127 537.532,625.076 539.693,626.014 541.854,626.938 544.015,627.851 546.176,628.751 548.337,629.64 550.498,630.516 552.659,631.381 554.82,632.235 556.981,633.077 559.142,633.908 561.303,634.728 563.464,635.538 565.625,636.336 567.786,637.124 569.947,637.901 572.108,638.669 574.269,639.426 576.43,640.172 578.591,640.909 580.752,641.637 582.913,642.354 585.074,643.062 587.235,643.761 589.396,644.45 591.556,645.131 593.717,645.802 595.878,646.464 598.039,647.118 600.2,647.763 602.361,648.399 604.522,649.027 606.683,649.647 608.844,650.258 611.005,650.861 613.166,651.457 615.327,652.044 617.488,652.624 619.649,653.234 621.81,655.145 623.971,658.778 626.132,663.879 628.293,670.209 630.454,677.548 632.615,685.691 634.776,694.452 636.937,703.66 639.098,713.162 641.259,722.824 643.42,732.525 645.581,742.164 647.742,751.657 649.903,760.936 652.064,769.95 654.225,778.665 656.386,787.066 658.547,795.152 660.708,802.941 662.869,810.467 665.03,817.782 667.191,824.956 669.352,832.073 671.513,839.235 673.674,846.457 675.835,853.587 677.996,860.622 680.157,867.564 682.318,874.414 684.479,881.173 686.64,887.843 688.801,894.424 690.962,900.918 693.123,907.326 695.284,913.649 697.445,919.888 699.606,926.044 701.767,932.119 703.927,938.113 706.088,944.028 708.249,949.864 710.41,955.624 712.571,961.306 714.732,966.914 716.893,972.447 719.054,977.907 721.215,983.295 723.376,988.611 725.537,993.857 727.698,999.033 729.859,1004.14 732.02,1009.18 734.181,1014.15 736.342,1019.06 738.503,1023.9 740.664,1028.68 742.825,1033.39 744.986,1038.04 747.147,1042.63 749.308,1047.16 751.469,1051.63 753.63,1056.04 755.791,1060.39 757.952,1064.68 760.113,1068.92 762.274,1073.1 764.435,1077.23 766.596,1081.3 768.757,1085.31 770.918,1089.27 773.079,1093.19 775.24,1097.04 777.401,1100.85 779.562,1104.61 781.723,1108.32 783.884,1111.97 786.045,1115.58 788.206,1119.14 790.367,1122.66 792.528,1126.13 794.689,1129.55 796.85,1132.93 799.011,1136.26 801.172,1139.55 803.333,1142.79 805.494,1145.99 807.655,1149.15 809.816,1152.27 811.977,1155.34 814.138,1158.38 816.298,1161.37 818.459,1164.33 820.62,1167.24 822.781,1170.12 824.942,1172.96 827.103,1175.76 829.264,1178.52 831.425,1181.25 833.586,1183.94 835.747,1186.6 837.908,1189.22 840.069,1191.8 842.23,1194.26 844.391,1195.1 846.552,1194.01 848.713,1191.19 850.874,1186.84 853.035,1181.13 855.196,1174.24 857.357,1166.34 859.518,1157.58 861.679,1148.11 863.84,1138.06 866.001,1127.57 868.162,1116.76 870.323,1105.72 872.484,1094.56 874.645,1083.37 876.806,1072.22 878.967,1061.2 881.128,1050.35 883.289,1039.74 885.45,1029.4 887.611,1019.36 889.772,1009.65 891.933,1000.28 894.094,991.258 896.255,982.574 898.416,974.214 900.577,966.153 902.738,958.358 904.899,950.784 907.06,943.378 909.221,936.078 911.382,928.812 913.543,921.497 915.704,914.059 917.865,906.654 920.026,899.348 922.187,892.138 924.348,885.024 926.509,878.004 928.669,871.077 930.83,864.242 932.991,857.498 935.152,850.843 937.313,844.277 939.474,837.797 941.635,831.403 943.796,825.095 945.957,818.869 948.118,812.727 950.279,806.665 952.44,800.684 954.601,794.783 956.762,788.959 958.923,783.212 961.084,777.541 963.245,771.945 965.406,766.423 967.567,760.975 969.728,755.598 971.889,750.293 974.05,745.058 976.211,739.893 978.372,734.796 980.533,729.767 982.694,724.804 984.855,719.907 987.016,715.076 989.177,710.309 991.338,705.604 993.499,700.963 995.66,696.383 997.821,691.864 999.982,687.405 1002.14,683.006 1004.3,678.664 1006.46,674.381 1008.63,670.154 1010.79,665.984 1012.95,661.869 1015.11,657.808 1017.27,653.802 1019.43,649.849 1021.59,645.948 1023.75,642.099 1025.91,638.301 1028.07,634.553 1030.24,630.855 1032.4,627.206 1034.56,623.606 1036.72,620.053 1038.88,616.547 1041.04,613.087 1043.2,609.674 1045.36,606.305 1047.52,602.981 1049.68,599.701 1051.85,596.464 1054.01,593.271 1056.17,590.257 1058.33,588.492 1060.49,588.065 1062.65,588.812 1064.81,590.582 1066.97,593.229 1069.13,596.619 1071.29,600.625 1073.46,605.13 1075.62,610.025 1077.78,615.211 1079.94,620.598 1082.1,626.103 1084.26,631.653 1086.42,637.185 1088.58,642.644 1090.74,647.984 1092.9,653.168 1095.07,658.167 1097.23,662.962 1099.39,667.543 1101.55,671.908 1103.71,676.065 1105.87,680.031 1108.03,683.829 1110.19,687.496 1112.35,691.073 1114.51,694.614 1116.67,698.178 1118.84,701.836 1121,705.527 1123.16,709.169 1125.32,712.762 1127.48,716.308 1129.64,719.807 1131.8,723.26 1133.96,726.666 1136.12,730.028 1138.28,733.345 1140.45,736.618 1142.61,739.848 1144.77,743.034 1146.93,746.179 1149.09,749.282 1151.25,752.343 1153.41,755.364 1155.57,758.346 1157.73,761.287 1159.89,764.19 1162.06,767.054 1164.22,769.88 1166.38,772.668 1168.54,775.42 1170.7,778.135 1172.86,780.815 1175.02,783.458 1177.18,786.067 1179.34,788.641 1181.5,791.181 1183.67,793.688 1185.83,796.161 1187.99,798.601 1190.15,801.009 1192.31,803.385 1194.47,805.73 1196.63,808.043 1198.79,810.326 1200.95,812.578 1203.11,814.801 1205.28,816.994 1207.44,819.158 1209.6,821.293 1211.76,823.4 1213.92,825.479 1216.08,827.53 1218.24,829.554 1220.4,831.552 1222.56,833.523 1224.72,835.467 1226.88,837.386 1229.05,839.28 1231.21,841.148 1233.37,842.992 1235.53,844.811 1237.69,846.606 1239.85,848.378 1242.01,850.126 1244.17,851.851 1246.33,853.577 1248.49,855.311 1250.66,857.044 1252.82,858.771 1254.98,860.485 1257.14,862.182 1259.3,863.855 1261.46,865.501 1263.62,867.114 1265.78,868.691 1267.94,870.227 1270.1,871.721 1272.27,873.169 1274.43,874.568 1276.59,875.917 1278.75,877.214 1280.91,878.458 1283.07,879.648 1285.23,880.784 1287.39,881.866 1289.55,882.893 1291.71,883.868 1293.88,884.791 1296.04,885.664 1298.2,886.489 1300.36,887.268 1302.52,888.004 1304.68,888.701 1306.84,889.362 1309,889.99 1311.16,890.591 1313.32,891.17 1315.49,891.731 1317.65,892.28 1319.81,892.824 1321.97,893.368 1324.13,893.92 1326.29,894.485 1328.45,895.048 1330.61,895.604 1332.77,896.153 1334.93,896.694 1337.09,897.228 1339.26,897.755 1341.42,898.275 1343.58,898.788 1345.74,899.294 1347.9,899.794 1350.06,900.287 1352.22,900.773 1354.38,901.253 1356.54,901.727 1358.7,902.194 1360.87,902.655 1363.03,903.11 1365.19,903.559 1367.35,904.002 1369.51,904.439 1371.67,904.871 1373.83,905.296 1375.99,905.716 1378.15,906.131 1380.31,906.54 1382.48,906.943 1384.64,907.341 1386.8,907.74 1388.96,908.178 1391.12,908.662 1393.28,909.183 1395.44,909.737 1397.6,910.316 1399.76,910.917 1401.92,911.532 1404.09,912.158 1406.25,912.788 1408.41,913.418 1410.57,914.044 1412.73,914.661 1414.89,915.264 1417.05,915.85 1419.21,916.415 1421.37,916.954 1423.53,917.465 1425.7,917.944 1427.86,918.388 1430.02,918.795 1432.18,919.161 1434.34,919.484 1436.5,919.761 1438.66,919.991 1440.82,920.171 1442.98,920.301 1445.14,920.377 1447.3,920.4 1449.47,920.367 1451.63,920.278 1453.79,920.132 1455.95,919.928 1458.11,919.666 1460.27,919.347 1462.43,918.969 1464.59,918.533 1466.75,918.04 1468.91,917.489 1471.08,916.883 1473.24,916.221 1475.4,915.506 1477.56,914.738 1479.72,913.918 1481.88,913.05 1484.04,912.134 1486.2,911.173 1488.36,910.169 1490.52,909.125 1492.69,908.043 1494.85,906.926 1497.01,905.778 1499.17,904.602 1501.33,903.401 1503.49,902.179 1505.65,900.94 1507.81,899.688 1509.97,898.427 1512.13,897.162 1514.3,895.898 1516.46,894.638 1518.62,893.389 1520.78,892.156 1522.94,890.944 1525.1,889.758 1527.26,888.605 1529.42,887.491 1531.58,886.422 1533.74,885.404 1535.91,884.435 1538.07,883.484 1540.23,882.545 1542.39,881.619 1544.55,880.705 1546.71,879.804 1548.87,878.914 1551.03,878.036 1553.19,877.169 1555.35,876.315 1557.51,875.471 1559.68,874.639 1561.84,873.817 1564,873.007 1566.16,872.207 1568.32,871.418 1570.48,870.64 1572.64,869.871 1574.8,869.113 1576.96,868.365 1579.12,867.627 1581.29,866.899 1583.45,866.18 1585.61,865.471 1587.77,864.771 1589.93,864.081 1592.09,863.399 1594.25,862.727 1596.41,862.064 1598.57,861.409 1600.73,860.763 1602.9,860.126 1605.06,859.497 1607.22,858.877 1609.38,858.264 1611.54,857.66 1613.7,857.064 1615.86,856.475 1618.02,855.895 1620.18,855.322 1622.34,854.757 1624.51,854.199 1626.67,853.649 1628.83,853.105 1630.99,852.57 1633.15,852.041 1635.31,851.519 1637.47,851.004 1639.63,850.496 1641.79,849.995 1643.95,849.501 1646.12,849.013 1648.28,848.531 1650.44,848.056 1652.6,847.587 1654.76,847.124 1656.92,846.668 1659.08,846.217 1661.24,845.773 1663.4,845.334 1665.56,844.902 1667.72,844.475 1669.89,844.053 1672.05,843.638 1674.21,843.227 1676.37,842.822 1678.53,842.423 1680.69,842.029 1682.85,841.64 1685.01,841.256 1687.17,840.877 1689.33,840.504 1691.5,840.135 1693.66,839.771 1695.82,839.412 1697.98,839.058 1700.14,838.583 1702.3,836.761 1704.46,833.432 1706.62,828.785 1708.78,822.994 1710.94,816.227 1713.11,808.639 1715.27,800.376 1717.43,791.573 1719.59,782.355 1721.75,772.837 1723.91,763.125 1726.07,753.312 1728.23,743.484 1730.39,733.714 1732.55,724.066 1734.72,714.594 1736.88,705.341 1739.04,696.341 1741.2,687.616 1743.36,679.18 1745.52,671.035 1747.68,663.174 1749.84,655.578 1752,648.219 1754.16,641.061 1756.33,634.053 1758.49,627.137 1760.65,620.244 1762.81,613.296 1764.97,606.309 1767.13,599.413 1769.29,592.609 1771.45,585.895 1773.61,579.27 1775.77,572.732 1777.93,566.282 1780.1,559.917 1782.26,553.636 1784.42,547.438 1786.58,541.323 1788.74,535.289 1790.9,529.335 1793.06,523.459 1795.22,517.662 1797.38,511.941 1799.54,506.296 1801.71,500.726 1803.87,495.23 1806.03,489.806 1808.19,484.455 1810.35,479.174 1812.51,473.963 1814.67,468.822 1816.83,463.748 1818.99,458.742 1821.15,453.803 1823.32,448.929 1825.48,444.119 1827.64,439.374 1829.8,434.691 1831.96,430.071 1834.12,425.512 1836.28,421.013 1838.44,416.574 1840.6,412.194 1842.76,407.872 1844.93,403.607 1847.09,399.399 1849.25,395.247 1851.41,391.15 1853.57,387.107 1855.73,383.118 1857.89,379.181 1860.05,375.297 1862.21,371.464 1864.37,367.682 1866.54,363.95 1868.7,360.268 1870.86,356.634 1873.02,353.049 1875.18,349.511 1877.34,346.02 1879.5,342.575 1881.66,339.175 1883.82,335.821 1885.98,332.512 1888.15,329.246 1890.31,326.023 1892.47,322.844 1894.63,319.706 1896.79,316.61 1898.95,313.555 1901.11,310.541 1903.27,307.566 1905.43,304.631 1907.59,301.735 1909.75,298.877 1911.92,296.057 1914.08,293.275 1916.24,290.529 1918.4,287.82 1920.56,287.249 1922.72,300.63 1924.88,313.802 1927.04,326.8 1929.2,339.626 1931.36,352.282 1933.53,364.77 1935.69,377.092 1937.85,389.251 1940.01,401.249 1942.17,413.087 1944.33,424.769 1946.49,436.296 1948.65,447.67 1950.81,458.893 1952.97,469.968 1955.14,480.895 1957.3,491.678 1959.46,502.318 1961.62,512.817 1963.78,523.176 1965.94,533.398 1968.1,543.485 1970.26,553.438 1972.42,563.259 1974.58,572.95 1976.75,582.512 1978.91,591.947 1981.07,601.258 1983.23,610.445 1985.39,619.51 1987.55,628.455 1989.71,637.281 1991.87,645.991 1994.03,654.585 1996.19,663.065 1998.36,671.432 2000.52,679.689 2002.68,687.836 2004.84,695.875 2007,703.808 2009.16,711.635 2011.32,719.359 2013.48,726.98 2015.64,734.5 2017.8,741.921 2019.96,749.243 2022.13,756.468 2024.29,763.597 2026.45,770.631 2028.61,777.573 2030.77,784.422 2032.93,791.181 2035.09,797.85 2037.25,804.43 2039.41,810.923 2041.57,817.331 2043.74,823.653 2045.9,829.891 2048.06,836.047 2050.22,842.121 2052.38,848.115 2054.54,854.029 2056.7,859.865 2058.86,865.624 2061.02,871.306 2063.18,876.912 2065.35,882.445 2067.51,887.904 2069.67,893.29 2071.83,898.606 2073.99,903.85 2076.15,909.025 2078.31,914.132 2080.47,919.171 2082.63,924.143 2084.79,929.049 2086.96,933.89 2089.12,938.667 2091.28,943.38 2093.44,948.031 2095.6,952.621 2097.76,957.149 2099.92,961.618 2102.08,966.027 2104.24,970.378 2106.4,974.671 2108.57,978.908 2110.73,983.088 2112.89,987.212 2115.05,991.282 2117.21,995.298 2119.37,999.261 2121.53,1003.17 2123.69,1007.62 2125.85,1013.13 2128.01,1018.59 2130.17,1023.1 2132.34,1025.99 2134.5,1026.84 2136.66,1025.49 2138.82,1022.02 2140.98,1016.76 2143.14,1010.27 2145.3,1003.39 2147.46,997.09 2149.62,991.123 2151.78,985.235 2153.95,979.425 2156.11,973.692 2158.27,968.035 2160.43,962.453 2162.59,956.945 2164.75,951.51 2166.91,946.147 2169.07,940.855 2171.23,935.633 2173.39,930.48 2175.56,925.396 2177.72,920.379 2179.88,915.429 2182.04,910.544 2184.2,905.725 2186.36,900.969 2188.52,896.276 2190.68,891.645 2192.84,887.076 2195,882.568 2197.17,878.119 2199.33,873.73 2201.49,869.398 2203.65,865.124 2205.81,860.907 2207.97,856.746 2210.13,852.639 2212.29,848.588 2214.45,844.59 2216.61,840.645 2218.78,836.752 2220.94,832.911 2223.1,829.12 2225.26,825.38 2227.42,821.69 2229.58,818.048 2231.74,814.455 2233.9,810.909 2236.06,807.411 2238.22,803.958 2240.38,800.552 2242.55,797.19 2244.71,793.873 2246.87,790.6 2249.03,787.371 2251.19,784.184 2253.35,781.04 2255.51,777.937 2257.67,774.875 2259.83,771.854 2261.99,768.873 2264.16,765.932 2266.32,763.03 2268.48,760.166 2270.64,757.34 2272.8,754.551 2274.96,751.8 2277.12,749.085 2279.28,746.406 2281.44,743.762 2283.6,741.154 2285.77,738.58 2287.93,736.04 2290.09,733.534 2292.25,731.062 2294.41,728.621 2296.57,726.214 2298.73,723.838 2300.89,721.494 2303.05,719.18 2305.21,716.898 2307.38,714.645 2309.54,712.423 2311.7,710.23 2313.86,708.066 2316.02,705.931 2318.18,703.824 2320.34,701.745 2322.5,699.693 2324.66,697.669 2326.82,695.672 2328.99,693.701 2331.15,691.756 2333.31,689.837 2335.47,687.944 2337.63,686.075 2339.79,684.232 2341.95,682.413 2344.11,680.617 2346.27,678.846 2348.43,677.098 2350.59,675.374 2352.76,673.672 "/>
<polyline clip-path="url(#clip941)" style="stroke:#e26f46; stroke-linecap:round; stroke-linejoin:round; stroke-width:4; stroke-opacity:1; fill:none" points="193.936,583.428 196.097,583.428 198.258,583.428 200.419,583.428 202.58,583.428 204.741,583.428 206.902,583.428 209.063,583.428 211.224,583.428 213.385,583.428 215.546,583.428 217.707,583.428 219.868,583.428 222.029,583.428 224.19,583.428 226.351,583.428 228.512,583.428 230.673,583.428 232.834,583.428 234.995,583.428 237.156,583.428 239.317,583.428 241.478,583.428 243.639,583.428 245.8,583.428 247.961,583.428 250.122,583.428 252.282,583.428 254.443,583.428 256.604,583.428 258.765,583.428 260.926,583.428 263.087,583.428 265.248,583.428 267.409,583.428 269.57,583.428 271.731,583.428 273.892,583.428 276.053,583.428 278.214,583.428 280.375,583.428 282.536,583.428 284.697,583.428 286.858,583.428 289.019,583.428 291.18,583.428 293.341,583.428 295.502,583.428 297.663,583.428 299.824,583.428 301.985,583.428 304.146,583.428 306.307,583.428 308.468,583.428 310.629,583.428 312.79,583.428 314.951,583.428 317.112,583.428 319.273,583.428 321.434,583.428 323.595,583.428 325.756,583.428 327.917,583.428 330.078,583.428 332.239,583.428 334.4,583.428 336.561,583.428 338.722,583.428 340.883,583.428 343.044,583.428 345.205,583.428 347.366,583.428 349.527,583.428 351.688,583.428 353.849,583.428 356.01,583.428 358.171,583.428 360.332,583.428 362.493,583.428 364.653,583.428 366.814,583.428 368.975,583.428 371.136,583.428 373.297,583.428 375.458,583.428 377.619,583.428 379.78,583.428 381.941,583.428 384.102,583.428 386.263,583.428 388.424,583.428 390.585,583.428 392.746,583.428 394.907,583.428 397.068,583.428 399.229,583.428 401.39,583.428 403.551,583.428 405.712,583.428 407.873,583.428 410.034,695.762 412.195,695.762 414.356,695.762 416.517,695.762 418.678,695.762 420.839,695.762 423,695.762 425.161,695.762 427.322,695.762 429.483,695.762 431.644,695.762 433.805,695.762 435.966,695.762 438.127,695.762 440.288,695.762 442.449,695.762 444.61,695.762 446.771,695.762 448.932,695.762 451.093,695.762 453.254,695.762 455.415,695.762 457.576,695.762 459.737,695.762 461.898,695.762 464.059,695.762 466.22,695.762 468.381,695.762 470.542,695.762 472.703,695.762 474.864,695.762 477.024,695.762 479.185,695.762 481.346,695.762 483.507,695.762 485.668,695.762 487.829,695.762 489.99,695.762 492.151,695.762 494.312,695.762 496.473,695.762 498.634,695.762 500.795,695.762 502.956,695.762 505.117,695.762 507.278,695.762 509.439,695.762 511.6,695.762 513.761,695.762 515.922,695.762 518.083,695.762 520.244,695.762 522.405,695.762 524.566,695.762 526.727,695.762 528.888,695.762 531.049,695.762 533.21,695.762 535.371,695.762 537.532,695.762 539.693,695.762 541.854,695.762 544.015,695.762 546.176,695.762 548.337,695.762 550.498,695.762 552.659,695.762 554.82,695.762 556.981,695.762 559.142,695.762 561.303,695.762 563.464,695.762 565.625,695.762 567.786,695.762 569.947,695.762 572.108,695.762 574.269,695.762 576.43,695.762 578.591,695.762 580.752,695.762 582.913,695.762 585.074,695.762 587.235,695.762 589.396,695.762 591.556,695.762 593.717,695.762 595.878,695.762 598.039,695.762 600.2,695.762 602.361,695.762 604.522,695.762 606.683,695.762 608.844,695.762 611.005,695.762 613.166,695.762 615.327,695.762 617.488,695.762 619.649,695.762 621.81,695.762 623.971,695.762 626.132,1384.24 628.293,1384.24 630.454,1384.24 632.615,1384.24 634.776,1384.24 636.937,1384.24 639.098,1384.24 641.259,1384.24 643.42,1384.24 645.581,1384.24 647.742,1384.24 649.903,1384.24 652.064,1384.24 654.225,1384.24 656.386,1384.24 658.547,1384.24 660.708,1384.24 662.869,1384.24 665.03,1384.24 667.191,1384.24 669.352,1384.24 671.513,1384.24 673.674,1384.24 675.835,1384.24 677.996,1384.24 680.157,1384.24 682.318,1384.24 684.479,1384.24 686.64,1384.24 688.801,1384.24 690.962,1384.24 693.123,1384.24 695.284,1384.24 697.445,1384.24 699.606,1384.24 701.767,1384.24 703.927,1384.24 706.088,1384.24 708.249,1384.24 710.41,1384.24 712.571,1384.24 714.732,1384.24 716.893,1384.24 719.054,1384.24 721.215,1384.24 723.376,1384.24 725.537,1384.24 727.698,1384.24 729.859,1384.24 732.02,1384.24 734.181,1384.24 736.342,1384.24 738.503,1384.24 740.664,1384.24 742.825,1384.24 744.986,1384.24 747.147,1384.24 749.308,1384.24 751.469,1384.24 753.63,1384.24 755.791,1384.24 757.952,1384.24 760.113,1384.24 762.274,1384.24 764.435,1384.24 766.596,1384.24 768.757,1384.24 770.918,1384.24 773.079,1384.24 775.24,1384.24 777.401,1384.24 779.562,1384.24 781.723,1384.24 783.884,1384.24 786.045,1384.24 788.206,1384.24 790.367,1384.24 792.528,1384.24 794.689,1384.24 796.85,1384.24 799.011,1384.24 801.172,1384.24 803.333,1384.24 805.494,1384.24 807.655,1384.24 809.816,1384.24 811.977,1384.24 814.138,1384.24 816.298,1384.24 818.459,1384.24 820.62,1384.24 822.781,1384.24 824.942,1384.24 827.103,1384.24 829.264,1384.24 831.425,1384.24 833.586,1384.24 835.747,1384.24 837.908,1384.24 840.069,1384.24 842.23,355.547 844.391,355.547 846.552,355.547 848.713,355.547 850.874,355.547 853.035,355.547 855.196,355.547 857.357,355.547 859.518,355.547 861.679,355.547 863.84,355.547 866.001,355.547 868.162,355.547 870.323,355.547 872.484,355.547 874.645,355.547 876.806,355.547 878.967,355.547 881.128,355.547 883.289,355.547 885.45,355.547 887.611,355.547 889.772,355.547 891.933,355.547 894.094,355.547 896.255,355.547 898.416,355.547 900.577,355.547 902.738,355.547 904.899,355.547 907.06,355.547 909.221,355.547 911.382,355.547 913.543,355.547 915.704,355.547 917.865,355.547 920.026,355.547 922.187,355.547 924.348,355.547 926.509,355.547 928.669,355.547 930.83,355.547 932.991,355.547 935.152,355.547 937.313,355.547 939.474,355.547 941.635,355.547 943.796,355.547 945.957,355.547 948.118,355.547 950.279,355.547 952.44,355.547 954.601,355.547 956.762,355.547 958.923,355.547 961.084,355.547 963.245,355.547 965.406,355.547 967.567,355.547 969.728,355.547 971.889,355.547 974.05,355.547 976.211,355.547 978.372,355.547 980.533,355.547 982.694,355.547 984.855,355.547 987.016,355.547 989.177,355.547 991.338,355.547 993.499,355.547 995.66,355.547 997.821,355.547 999.982,355.547 1002.14,355.547 1004.3,355.547 1006.46,355.547 1008.63,355.547 1010.79,355.547 1012.95,355.547 1015.11,355.547 1017.27,355.547 1019.43,355.547 1021.59,355.547 1023.75,355.547 1025.91,355.547 1028.07,355.547 1030.24,355.547 1032.4,355.547 1034.56,355.547 1036.72,355.547 1038.88,355.547 1041.04,355.547 1043.2,355.547 1045.36,355.547 1047.52,355.547 1049.68,355.547 1051.85,355.547 1054.01,355.547 1056.17,355.547 1058.33,980.216 1060.49,980.216 1062.65,980.216 1064.81,980.216 1066.97,980.216 1069.13,980.216 1071.29,980.216 1073.46,980.216 1075.62,980.216 1077.78,980.216 1079.94,980.216 1082.1,980.216 1084.26,980.216 1086.42,980.216 1088.58,980.216 1090.74,980.216 1092.9,980.216 1095.07,980.216 1097.23,980.216 1099.39,980.216 1101.55,980.216 1103.71,980.216 1105.87,980.216 1108.03,980.216 1110.19,980.216 1112.35,980.216 1114.51,980.216 1116.67,980.216 1118.84,980.216 1121,980.216 1123.16,980.216 1125.32,980.216 1127.48,980.216 1129.64,980.216 1131.8,980.216 1133.96,980.216 1136.12,980.216 1138.28,980.216 1140.45,980.216 1142.61,980.216 1144.77,980.216 1146.93,980.216 1149.09,980.216 1151.25,980.216 1153.41,980.216 1155.57,980.216 1157.73,980.216 1159.89,980.216 1162.06,980.216 1164.22,980.216 1166.38,980.216 1168.54,980.216 1170.7,980.216 1172.86,980.216 1175.02,980.216 1177.18,980.216 1179.34,980.216 1181.5,980.216 1183.67,980.216 1185.83,980.216 1187.99,980.216 1190.15,980.216 1192.31,980.216 1194.47,980.216 1196.63,980.216 1198.79,980.216 1200.95,980.216 1203.11,980.216 1205.28,980.216 1207.44,980.216 1209.6,980.216 1211.76,980.216 1213.92,980.216 1216.08,980.216 1218.24,980.216 1220.4,980.216 1222.56,980.216 1224.72,980.216 1226.88,980.216 1229.05,980.216 1231.21,980.216 1233.37,980.216 1235.53,980.216 1237.69,980.216 1239.85,980.216 1242.01,980.216 1244.17,980.216 1246.33,980.216 1248.49,980.216 1250.66,980.216 1252.82,980.216 1254.98,980.216 1257.14,980.216 1259.3,980.216 1261.46,980.216 1263.62,980.216 1265.78,980.216 1267.94,980.216 1270.1,980.216 1272.27,980.216 1274.43,936.975 1276.59,936.975 1278.75,936.975 1280.91,936.975 1283.07,936.975 1285.23,936.975 1287.39,936.975 1289.55,936.975 1291.71,936.975 1293.88,936.975 1296.04,936.975 1298.2,936.975 1300.36,936.975 1302.52,936.975 1304.68,936.975 1306.84,936.975 1309,936.975 1311.16,936.975 1313.32,936.975 1315.49,936.975 1317.65,936.975 1319.81,936.975 1321.97,936.975 1324.13,936.975 1326.29,936.975 1328.45,936.975 1330.61,936.975 1332.77,936.975 1334.93,936.975 1337.09,936.975 1339.26,936.975 1341.42,936.975 1343.58,936.975 1345.74,936.975 1347.9,936.975 1350.06,936.975 1352.22,936.975 1354.38,936.975 1356.54,936.975 1358.7,936.975 1360.87,936.975 1363.03,936.975 1365.19,936.975 1367.35,936.975 1369.51,936.975 1371.67,936.975 1373.83,936.975 1375.99,936.975 1378.15,936.975 1380.31,936.975 1382.48,936.975 1384.64,936.975 1386.8,936.975 1388.96,936.975 1391.12,936.975 1393.28,936.975 1395.44,936.975 1397.6,936.975 1399.76,936.975 1401.92,936.975 1404.09,936.975 1406.25,936.975 1408.41,936.975 1410.57,936.975 1412.73,936.975 1414.89,936.975 1417.05,936.975 1419.21,936.975 1421.37,936.975 1423.53,936.975 1425.7,936.975 1427.86,936.975 1430.02,936.975 1432.18,936.975 1434.34,936.975 1436.5,936.975 1438.66,936.975 1440.82,936.975 1442.98,936.975 1445.14,936.975 1447.3,936.975 1449.47,936.975 1451.63,936.975 1453.79,936.975 1455.95,936.975 1458.11,936.975 1460.27,936.975 1462.43,936.975 1464.59,936.975 1466.75,936.975 1468.91,936.975 1471.08,936.975 1473.24,936.975 1475.4,936.975 1477.56,936.975 1479.72,936.975 1481.88,936.975 1484.04,936.975 1486.2,936.975 1488.36,936.975 1490.52,812.691 1492.69,812.691 1494.85,812.691 1497.01,812.691 1499.17,812.691 1501.33,812.691 1503.49,812.691 1505.65,812.691 1507.81,812.691 1509.97,812.691 1512.13,812.691 1514.3,812.691 1516.46,812.691 1518.62,812.691 1520.78,812.691 1522.94,812.691 1525.1,812.691 1527.26,812.691 1529.42,812.691 1531.58,812.691 1533.74,812.691 1535.91,812.691 1538.07,812.691 1540.23,812.691 1542.39,812.691 1544.55,812.691 1546.71,812.691 1548.87,812.691 1551.03,812.691 1553.19,812.691 1555.35,812.691 1557.51,812.691 1559.68,812.691 1561.84,812.691 1564,812.691 1566.16,812.691 1568.32,812.691 1570.48,812.691 1572.64,812.691 1574.8,812.691 1576.96,812.691 1579.12,812.691 1581.29,812.691 1583.45,812.691 1585.61,812.691 1587.77,812.691 1589.93,812.691 1592.09,812.691 1594.25,812.691 1596.41,812.691 1598.57,812.691 1600.73,812.691 1602.9,812.691 1605.06,812.691 1607.22,812.691 1609.38,812.691 1611.54,812.691 1613.7,812.691 1615.86,812.691 1618.02,812.691 1620.18,812.691 1622.34,812.691 1624.51,812.691 1626.67,812.691 1628.83,812.691 1630.99,812.691 1633.15,812.691 1635.31,812.691 1637.47,812.691 1639.63,812.691 1641.79,812.691 1643.95,812.691 1646.12,812.691 1648.28,812.691 1650.44,812.691 1652.6,812.691 1654.76,812.691 1656.92,812.691 1659.08,812.691 1661.24,812.691 1663.4,812.691 1665.56,812.691 1667.72,812.691 1669.89,812.691 1672.05,812.691 1674.21,812.691 1676.37,812.691 1678.53,812.691 1680.69,812.691 1682.85,812.691 1685.01,812.691 1687.17,812.691 1689.33,812.691 1691.5,812.691 1693.66,812.691 1695.82,812.691 1697.98,812.691 1700.14,812.691 1702.3,812.691 1704.46,812.691 1706.62,86.1857 1708.78,86.1857 1710.94,86.1857 1713.11,86.1857 1715.27,86.1857 1717.43,86.1857 1719.59,86.1857 1721.75,86.1857 1723.91,86.1857 1726.07,86.1857 1728.23,86.1857 1730.39,86.1857 1732.55,86.1857 1734.72,86.1857 1736.88,86.1857 1739.04,86.1857 1741.2,86.1857 1743.36,86.1857 1745.52,86.1857 1747.68,86.1857 1749.84,86.1857 1752,86.1857 1754.16,86.1857 1756.33,86.1857 1758.49,86.1857 1760.65,86.1857 1762.81,86.1857 1764.97,86.1857 1767.13,86.1857 1769.29,86.1857 1771.45,86.1857 1773.61,86.1857 1775.77,86.1857 1777.93,86.1857 1780.1,86.1857 1782.26,86.1857 1784.42,86.1857 1786.58,86.1857 1788.74,86.1857 1790.9,86.1857 1793.06,86.1857 1795.22,86.1857 1797.38,86.1857 1799.54,86.1857 1801.71,86.1857 1803.87,86.1857 1806.03,86.1857 1808.19,86.1857 1810.35,86.1857 1812.51,86.1857 1814.67,86.1857 1816.83,86.1857 1818.99,86.1857 1821.15,86.1857 1823.32,86.1857 1825.48,86.1857 1827.64,86.1857 1829.8,86.1857 1831.96,86.1857 1834.12,86.1857 1836.28,86.1857 1838.44,86.1857 1840.6,86.1857 1842.76,86.1857 1844.93,86.1857 1847.09,86.1857 1849.25,86.1857 1851.41,86.1857 1853.57,86.1857 1855.73,86.1857 1857.89,86.1857 1860.05,86.1857 1862.21,86.1857 1864.37,86.1857 1866.54,86.1857 1868.7,86.1857 1870.86,86.1857 1873.02,86.1857 1875.18,86.1857 1877.34,86.1857 1879.5,86.1857 1881.66,86.1857 1883.82,86.1857 1885.98,86.1857 1888.15,86.1857 1890.31,86.1857 1892.47,86.1857 1894.63,86.1857 1896.79,86.1857 1898.95,86.1857 1901.11,86.1857 1903.27,86.1857 1905.43,86.1857 1907.59,86.1857 1909.75,86.1857 1911.92,86.1857 1914.08,86.1857 1916.24,86.1857 1918.4,86.1857 1920.56,86.1857 1922.72,1294.2 1924.88,1294.2 1927.04,1294.2 1929.2,1294.2 1931.36,1294.2 1933.53,1294.2 1935.69,1294.2 1937.85,1294.2 1940.01,1294.2 1942.17,1294.2 1944.33,1294.2 1946.49,1294.2 1948.65,1294.2 1950.81,1294.2 1952.97,1294.2 1955.14,1294.2 1957.3,1294.2 1959.46,1294.2 1961.62,1294.2 1963.78,1294.2 1965.94,1294.2 1968.1,1294.2 1970.26,1294.2 1972.42,1294.2 1974.58,1294.2 1976.75,1294.2 1978.91,1294.2 1981.07,1294.2 1983.23,1294.2 1985.39,1294.2 1987.55,1294.2 1989.71,1294.2 1991.87,1294.2 1994.03,1294.2 1996.19,1294.2 1998.36,1294.2 2000.52,1294.2 2002.68,1294.2 2004.84,1294.2 2007,1294.2 2009.16,1294.2 2011.32,1294.2 2013.48,1294.2 2015.64,1294.2 2017.8,1294.2 2019.96,1294.2 2022.13,1294.2 2024.29,1294.2 2026.45,1294.2 2028.61,1294.2 2030.77,1294.2 2032.93,1294.2 2035.09,1294.2 2037.25,1294.2 2039.41,1294.2 2041.57,1294.2 2043.74,1294.2 2045.9,1294.2 2048.06,1294.2 2050.22,1294.2 2052.38,1294.2 2054.54,1294.2 2056.7,1294.2 2058.86,1294.2 2061.02,1294.2 2063.18,1294.2 2065.35,1294.2 2067.51,1294.2 2069.67,1294.2 2071.83,1294.2 2073.99,1294.2 2076.15,1294.2 2078.31,1294.2 2080.47,1294.2 2082.63,1294.2 2084.79,1294.2 2086.96,1294.2 2089.12,1294.2 2091.28,1294.2 2093.44,1294.2 2095.6,1294.2 2097.76,1294.2 2099.92,1294.2 2102.08,1294.2 2104.24,1294.2 2106.4,1294.2 2108.57,1294.2 2110.73,1294.2 2112.89,1294.2 2115.05,1294.2 2117.21,1294.2 2119.37,1294.2 2121.53,1294.2 2123.69,1294.2 2125.85,1294.2 2128.01,1294.2 2130.17,1294.2 2132.34,1294.2 2134.5,1294.2 2136.66,1294.2 2138.82,547.015 2140.98,547.015 2143.14,547.015 2145.3,547.015 2147.46,547.015 2149.62,547.015 2151.78,547.015 2153.95,547.015 2156.11,547.015 2158.27,547.015 2160.43,547.015 2162.59,547.015 2164.75,547.015 2166.91,547.015 2169.07,547.015 2171.23,547.015 2173.39,547.015 2175.56,547.015 2177.72,547.015 2179.88,547.015 2182.04,547.015 2184.2,547.015 2186.36,547.015 2188.52,547.015 2190.68,547.015 2192.84,547.015 2195,547.015 2197.17,547.015 2199.33,547.015 2201.49,547.015 2203.65,547.015 2205.81,547.015 2207.97,547.015 2210.13,547.015 2212.29,547.015 2214.45,547.015 2216.61,547.015 2218.78,547.015 2220.94,547.015 2223.1,547.015 2225.26,547.015 2227.42,547.015 2229.58,547.015 2231.74,547.015 2233.9,547.015 2236.06,547.015 2238.22,547.015 2240.38,547.015 2242.55,547.015 2244.71,547.015 2246.87,547.015 2249.03,547.015 2251.19,547.015 2253.35,547.015 2255.51,547.015 2257.67,547.015 2259.83,547.015 2261.99,547.015 2264.16,547.015 2266.32,547.015 2268.48,547.015 2270.64,547.015 2272.8,547.015 2274.96,547.015 2277.12,547.015 2279.28,547.015 2281.44,547.015 2283.6,547.015 2285.77,547.015 2287.93,547.015 2290.09,547.015 2292.25,547.015 2294.41,547.015 2296.57,547.015 2298.73,547.015 2300.89,547.015 2303.05,547.015 2305.21,547.015 2307.38,547.015 2309.54,547.015 2311.7,547.015 2313.86,547.015 2316.02,547.015 2318.18,547.015 2320.34,547.015 2322.5,547.015 2324.66,547.015 2326.82,547.015 2328.99,547.015 2331.15,547.015 2333.31,547.015 2335.47,547.015 2337.63,547.015 2339.79,547.015 2341.95,547.015 2344.11,547.015 2346.27,547.015 2348.43,547.015 2350.59,547.015 2352.76,547.015 "/>
<path clip-path="url(#clip940)" d="M265.897 248.629 L506.917 248.629 L506.917 93.1086 L265.897 93.1086  Z" fill="#ffffff" fill-rule="evenodd" fill-opacity="1"/>
<polyline clip-path="url(#clip940)" style="stroke:#000000; stroke-linecap:round; stroke-linejoin:round; stroke-width:4; stroke-opacity:1; fill:none" points="265.897,248.629 506.917,248.629 506.917,93.1086 265.897,93.1086 265.897,248.629 "/>
<polyline clip-path="url(#clip940)" style="stroke:#009af9; stroke-linecap:round; stroke-linejoin:round; stroke-width:4; stroke-opacity:1; fill:none" points="289.884,144.949 433.805,144.949 "/>
<path clip-path="url(#clip940)" d="M482.444 136.303 L473.069 148.919 L482.931 162.229 L477.907 162.229 L470.361 152.043 L462.815 162.229 L457.792 162.229 L467.861 148.664 L458.648 136.303 L463.671 136.303 L470.546 145.539 L477.421 136.303 L482.444 136.303 Z" fill="#000000" fill-rule="nonzero" fill-opacity="1" /><polyline clip-path="url(#clip940)" style="stroke:#e26f46; stroke-linecap:round; stroke-linejoin:round; stroke-width:4; stroke-opacity:1; fill:none" points="289.884,196.789 433.805,196.789 "/>
<path clip-path="url(#clip940)" d="M474.296 178.05 L474.296 181.592 L470.222 181.592 Q467.931 181.592 467.028 182.518 Q466.148 183.444 466.148 185.851 L466.148 188.143 L473.162 188.143 L473.162 191.453 L466.148 191.453 L466.148 214.069 L461.866 214.069 L461.866 191.453 L457.792 191.453 L457.792 188.143 L461.866 188.143 L461.866 186.337 Q461.866 182.009 463.88 180.041 Q465.894 178.05 470.269 178.05 L474.296 178.05 Z" fill="#000000" fill-rule="nonzero" fill-opacity="1" /></svg>
