<?xml version="1.0" encoding="utf-8"?>
<svg xmlns="http://www.w3.org/2000/svg" xmlns:xlink="http://www.w3.org/1999/xlink" width="600" height="400" viewBox="0 0 2400 1600">
<defs>
  <clipPath id="clip200">
    <rect x="0" y="0" width="2400" height="1600"/>
  </clipPath>
</defs>
<path clip-path="url(#clip200)" d="M0 1600 L2400 1600 L2400 0 L0 0  Z" fill="#ffffff" fill-rule="evenodd" fill-opacity="1"/>
<defs>
  <clipPath id="clip201">
    <rect x="112" y="47" width="2242" height="1440"/>
  </clipPath>
</defs>
<path clip-path="url(#clip201)" d="M-611.507 2443.1 L-611.507 2181.25 L-278.304 2050.32 L298.821 2125.91 L298.821 2387.77 L-34.3822 2518.69 L-611.507 2443.1  Z" fill="#ffffff" fill-rule="evenodd" fill-opacity="1"/>
<polyline clip-path="url(#clip201)" style="stroke:#000000; stroke-linecap:round; stroke-linejoin:round; stroke-width:2; stroke-opacity:0.1; fill:none" points="722.976,1219.44 1138.44,859.636 1138.44,140.034 "/>
<polyline clip-path="url(#clip201)" style="stroke:#000000; stroke-linecap:round; stroke-linejoin:round; stroke-width:2; stroke-opacity:0.1; fill:none" points="867.257,1261.09 1282.72,901.286 1282.72,181.684 "/>
<polyline clip-path="url(#clip201)" style="stroke:#000000; stroke-linecap:round; stroke-linejoin:round; stroke-width:2; stroke-opacity:0.1; fill:none" points="1011.54,1302.74 1427,942.937 1427,223.335 "/>
<polyline clip-path="url(#clip201)" style="stroke:#000000; stroke-linecap:round; stroke-linejoin:round; stroke-width:2; stroke-opacity:0.1; fill:none" points="1155.82,1344.39 1571.28,984.587 1571.28,264.985 "/>
<polyline clip-path="url(#clip201)" style="stroke:#000000; stroke-linecap:round; stroke-linejoin:round; stroke-width:2; stroke-opacity:0.1; fill:none" points="1300.1,1386.04 1715.56,1026.24 1715.56,306.636 "/>
<polyline clip-path="url(#clip201)" style="stroke:#000000; stroke-linecap:round; stroke-linejoin:round; stroke-width:2; stroke-opacity:0.1; fill:none" points="1456.52,1348.08 736.913,1140.35 736.913,420.744 "/>
<polyline clip-path="url(#clip201)" style="stroke:#000000; stroke-linecap:round; stroke-linejoin:round; stroke-width:2; stroke-opacity:0.1; fill:none" points="1532.11,1282.61 812.503,1074.88 812.503,355.282 "/>
<polyline clip-path="url(#clip201)" style="stroke:#000000; stroke-linecap:round; stroke-linejoin:round; stroke-width:2; stroke-opacity:0.1; fill:none" points="1607.69,1217.15 888.093,1009.42 888.093,289.819 "/>
<polyline clip-path="url(#clip201)" style="stroke:#000000; stroke-linecap:round; stroke-linejoin:round; stroke-width:2; stroke-opacity:0.1; fill:none" points="1683.28,1151.69 963.683,943.958 963.683,224.356 "/>
<polyline clip-path="url(#clip201)" style="stroke:#000000; stroke-linecap:round; stroke-linejoin:round; stroke-width:2; stroke-opacity:0.1; fill:none" points="1758.87,1086.23 1039.27,878.496 1039.27,158.894 "/>
<polyline clip-path="url(#clip201)" style="stroke:#000000; stroke-linecap:round; stroke-linejoin:round; stroke-width:2; stroke-opacity:0.1; fill:none" points="664.934,1179.73 1080.4,819.929 1800,1027.66 "/>
<polyline clip-path="url(#clip201)" style="stroke:#000000; stroke-linecap:round; stroke-linejoin:round; stroke-width:2; stroke-opacity:0.1; fill:none" points="664.934,1064.06 1080.4,704.26 1800,911.991 "/>
<polyline clip-path="url(#clip201)" style="stroke:#000000; stroke-linecap:round; stroke-linejoin:round; stroke-width:2; stroke-opacity:0.1; fill:none" points="664.934,948.391 1080.4,588.59 1800,796.322 "/>
<polyline clip-path="url(#clip201)" style="stroke:#000000; stroke-linecap:round; stroke-linejoin:round; stroke-width:2; stroke-opacity:0.1; fill:none" points="664.934,832.722 1080.4,472.921 1800,680.653 "/>
<polyline clip-path="url(#clip201)" style="stroke:#000000; stroke-linecap:round; stroke-linejoin:round; stroke-width:2; stroke-opacity:0.1; fill:none" points="664.934,717.053 1080.4,357.252 1800,564.984 "/>
<polyline clip-path="url(#clip201)" style="stroke:#000000; stroke-linecap:round; stroke-linejoin:round; stroke-width:2; stroke-opacity:0.1; fill:none" points="664.934,601.384 1080.4,241.583 1800,449.315 "/>
<polyline clip-path="url(#clip201)" style="stroke:#000000; stroke-linecap:round; stroke-linejoin:round; stroke-width:2; stroke-opacity:0.1; fill:none" points="664.934,485.715 1080.4,125.914 1800,333.645 "/>
<polyline clip-path="url(#clip200)" style="stroke:#000000; stroke-linecap:round; stroke-linejoin:round; stroke-width:4; stroke-opacity:1; fill:none" points="664.934,1202.68 1384.54,1410.41 "/>
<polyline clip-path="url(#clip200)" style="stroke:#000000; stroke-linecap:round; stroke-linejoin:round; stroke-width:4; stroke-opacity:1; fill:none" points="722.976,1219.44 727.961,1215.12 "/>
<polyline clip-path="url(#clip200)" style="stroke:#000000; stroke-linecap:round; stroke-linejoin:round; stroke-width:4; stroke-opacity:1; fill:none" points="867.257,1261.09 872.243,1256.77 "/>
<polyline clip-path="url(#clip200)" style="stroke:#000000; stroke-linecap:round; stroke-linejoin:round; stroke-width:4; stroke-opacity:1; fill:none" points="1011.54,1302.74 1016.52,1298.42 "/>
<polyline clip-path="url(#clip200)" style="stroke:#000000; stroke-linecap:round; stroke-linejoin:round; stroke-width:4; stroke-opacity:1; fill:none" points="1155.82,1344.39 1160.81,1340.07 "/>
<polyline clip-path="url(#clip200)" style="stroke:#000000; stroke-linecap:round; stroke-linejoin:round; stroke-width:4; stroke-opacity:1; fill:none" points="1300.1,1386.04 1305.09,1381.72 "/>
<path clip-path="url(#clip200)" d="M663.055 1233.79 Q659.444 1233.79 657.615 1237.36 Q655.81 1240.9 655.81 1248.03 Q655.81 1255.13 657.615 1258.7 Q659.444 1262.24 663.055 1262.24 Q666.689 1262.24 668.495 1258.7 Q670.324 1255.13 670.324 1248.03 Q670.324 1240.9 668.495 1237.36 Q666.689 1233.79 663.055 1233.79 M663.055 1230.09 Q668.865 1230.09 671.921 1234.69 Q675 1239.28 675 1248.03 Q675 1256.75 671.921 1261.36 Q668.865 1265.94 663.055 1265.94 Q657.245 1265.94 654.166 1261.36 Q651.111 1256.75 651.111 1248.03 Q651.111 1239.28 654.166 1234.69 Q657.245 1230.09 663.055 1230.09 Z" fill="#000000" fill-rule="nonzero" fill-opacity="1" /><path clip-path="url(#clip200)" d="M683.217 1259.39 L688.101 1259.39 L688.101 1265.27 L683.217 1265.27 L683.217 1259.39 Z" fill="#000000" fill-rule="nonzero" fill-opacity="1" /><path clip-path="url(#clip200)" d="M698.333 1230.71 L716.689 1230.71 L716.689 1234.65 L702.615 1234.65 L702.615 1243.12 Q703.634 1242.77 704.652 1242.61 Q705.671 1242.43 706.689 1242.43 Q712.476 1242.43 715.856 1245.6 Q719.235 1248.77 719.235 1254.19 Q719.235 1259.76 715.763 1262.87 Q712.291 1265.94 705.972 1265.94 Q703.796 1265.94 701.527 1265.57 Q699.282 1265.2 696.875 1264.46 L696.875 1259.76 Q698.958 1260.9 701.18 1261.45 Q703.402 1262.01 705.879 1262.01 Q709.884 1262.01 712.222 1259.9 Q714.56 1257.8 714.56 1254.19 Q714.56 1250.57 712.222 1248.47 Q709.884 1246.36 705.879 1246.36 Q704.004 1246.36 702.129 1246.78 Q700.277 1247.19 698.333 1248.07 L698.333 1230.71 Z" fill="#000000" fill-rule="nonzero" fill-opacity="1" /><path clip-path="url(#clip200)" d="M797.151 1302.99 L804.79 1302.99 L804.79 1276.62 L796.48 1278.29 L796.48 1274.03 L804.744 1272.36 L809.42 1272.36 L809.42 1302.99 L817.059 1302.99 L817.059 1306.92 L797.151 1306.92 L797.151 1302.99 Z" fill="#000000" fill-rule="nonzero" fill-opacity="1" /><path clip-path="url(#clip200)" d="M826.503 1301.04 L831.387 1301.04 L831.387 1306.92 L826.503 1306.92 L826.503 1301.04 Z" fill="#000000" fill-rule="nonzero" fill-opacity="1" /><path clip-path="url(#clip200)" d="M851.572 1275.44 Q847.961 1275.44 846.133 1279.01 Q844.327 1282.55 844.327 1289.68 Q844.327 1296.78 846.133 1300.35 Q847.961 1303.89 851.572 1303.89 Q855.207 1303.89 857.012 1300.35 Q858.841 1296.78 858.841 1289.68 Q858.841 1282.55 857.012 1279.01 Q855.207 1275.44 851.572 1275.44 M851.572 1271.74 Q857.383 1271.74 860.438 1276.34 Q863.517 1280.93 863.517 1289.68 Q863.517 1298.4 860.438 1303.01 Q857.383 1307.59 851.572 1307.59 Q845.762 1307.59 842.684 1303.01 Q839.628 1298.4 839.628 1289.68 Q839.628 1280.93 842.684 1276.34 Q845.762 1271.74 851.572 1271.74 Z" fill="#000000" fill-rule="nonzero" fill-opacity="1" /><path clip-path="url(#clip200)" d="M942.428 1344.64 L950.067 1344.64 L950.067 1318.27 L941.757 1319.94 L941.757 1315.68 L950.021 1314.01 L954.697 1314.01 L954.697 1344.64 L962.335 1344.64 L962.335 1348.57 L942.428 1348.57 L942.428 1344.64 Z" fill="#000000" fill-rule="nonzero" fill-opacity="1" /><path clip-path="url(#clip200)" d="M971.78 1342.69 L976.664 1342.69 L976.664 1348.57 L971.78 1348.57 L971.78 1342.69 Z" fill="#000000" fill-rule="nonzero" fill-opacity="1" /><path clip-path="url(#clip200)" d="M986.895 1314.01 L1005.25 1314.01 L1005.25 1317.95 L991.178 1317.95 L991.178 1326.42 Q992.196 1326.07 993.215 1325.91 Q994.233 1325.73 995.252 1325.73 Q1001.04 1325.73 1004.42 1328.9 Q1007.8 1332.07 1007.8 1337.49 Q1007.8 1343.06 1004.33 1346.17 Q1000.85 1349.25 994.534 1349.25 Q992.358 1349.25 990.09 1348.87 Q987.845 1348.5 985.437 1347.76 L985.437 1343.06 Q987.52 1344.2 989.743 1344.75 Q991.965 1345.31 994.442 1345.31 Q998.446 1345.31 1000.78 1343.2 Q1003.12 1341.1 1003.12 1337.49 Q1003.12 1333.87 1000.78 1331.77 Q998.446 1329.66 994.442 1329.66 Q992.567 1329.66 990.692 1330.08 Q988.84 1330.5 986.895 1331.37 L986.895 1314.01 Z" fill="#000000" fill-rule="nonzero" fill-opacity="1" /><path clip-path="url(#clip200)" d="M1088.93 1386.29 L1105.25 1386.29 L1105.25 1390.22 L1083.31 1390.22 L1083.31 1386.29 Q1085.97 1383.53 1090.55 1378.9 Q1095.16 1374.25 1096.34 1372.91 Q1098.58 1370.39 1099.46 1368.65 Q1100.37 1366.89 1100.37 1365.2 Q1100.37 1362.45 1098.42 1360.71 Q1096.5 1358.97 1093.4 1358.97 Q1091.2 1358.97 1088.75 1359.74 Q1086.32 1360.5 1083.54 1362.05 L1083.54 1357.33 Q1086.36 1356.2 1088.82 1355.62 Q1091.27 1355.04 1093.31 1355.04 Q1098.68 1355.04 1101.87 1357.72 Q1105.07 1360.41 1105.07 1364.9 Q1105.07 1367.03 1104.26 1368.95 Q1103.47 1370.85 1101.36 1373.44 Q1100.78 1374.11 1097.68 1377.33 Q1094.58 1380.53 1088.93 1386.29 Z" fill="#000000" fill-rule="nonzero" fill-opacity="1" /><path clip-path="url(#clip200)" d="M1115.07 1384.34 L1119.95 1384.34 L1119.95 1390.22 L1115.07 1390.22 L1115.07 1384.34 Z" fill="#000000" fill-rule="nonzero" fill-opacity="1" /><path clip-path="url(#clip200)" d="M1140.14 1358.74 Q1136.52 1358.74 1134.7 1362.31 Q1132.89 1365.85 1132.89 1372.98 Q1132.89 1380.09 1134.7 1383.65 Q1136.52 1387.19 1140.14 1387.19 Q1143.77 1387.19 1145.57 1383.65 Q1147.4 1380.09 1147.4 1372.98 Q1147.4 1365.85 1145.57 1362.31 Q1143.77 1358.74 1140.14 1358.74 M1140.14 1355.04 Q1145.95 1355.04 1149 1359.65 Q1152.08 1364.23 1152.08 1372.98 Q1152.08 1381.71 1149 1386.31 Q1145.95 1390.9 1140.14 1390.9 Q1134.32 1390.9 1131.25 1386.31 Q1128.19 1381.71 1128.19 1372.98 Q1128.19 1364.23 1131.25 1359.65 Q1134.32 1355.04 1140.14 1355.04 Z" fill="#000000" fill-rule="nonzero" fill-opacity="1" /><path clip-path="url(#clip200)" d="M1234.21 1427.94 L1250.53 1427.94 L1250.53 1431.87 L1228.58 1431.87 L1228.58 1427.94 Q1231.25 1425.18 1235.83 1420.56 Q1240.44 1415.9 1241.62 1414.56 Q1243.86 1412.04 1244.74 1410.3 Q1245.64 1408.54 1245.64 1406.85 Q1245.64 1404.1 1243.7 1402.36 Q1241.78 1400.62 1238.68 1400.62 Q1236.48 1400.62 1234.02 1401.39 Q1231.59 1402.15 1228.81 1403.7 L1228.81 1398.98 Q1231.64 1397.85 1234.09 1397.27 Q1236.55 1396.69 1238.58 1396.69 Q1243.95 1396.69 1247.15 1399.37 Q1250.34 1402.06 1250.34 1406.55 Q1250.34 1408.68 1249.53 1410.6 Q1248.75 1412.5 1246.64 1415.09 Q1246.06 1415.76 1242.96 1418.98 Q1239.86 1422.18 1234.21 1427.94 Z" fill="#000000" fill-rule="nonzero" fill-opacity="1" /><path clip-path="url(#clip200)" d="M1260.34 1426 L1265.23 1426 L1265.23 1431.87 L1260.34 1431.87 L1260.34 1426 Z" fill="#000000" fill-rule="nonzero" fill-opacity="1" /><path clip-path="url(#clip200)" d="M1275.46 1397.31 L1293.81 1397.31 L1293.81 1401.25 L1279.74 1401.25 L1279.74 1409.72 Q1280.76 1409.37 1281.78 1409.21 Q1282.8 1409.03 1283.81 1409.03 Q1289.6 1409.03 1292.98 1412.2 Q1296.36 1415.37 1296.36 1420.79 Q1296.36 1426.37 1292.89 1429.47 Q1289.42 1432.55 1283.1 1432.55 Q1280.92 1432.55 1278.65 1432.18 Q1276.41 1431.81 1274 1431.06 L1274 1426.37 Q1276.08 1427.5 1278.31 1428.06 Q1280.53 1428.61 1283 1428.61 Q1287.01 1428.61 1289.35 1426.5 Q1291.68 1424.4 1291.68 1420.79 Q1291.68 1417.18 1289.35 1415.07 Q1287.01 1412.96 1283 1412.96 Q1281.13 1412.96 1279.25 1413.38 Q1277.4 1413.8 1275.46 1414.68 L1275.46 1397.31 Z" fill="#000000" fill-rule="nonzero" fill-opacity="1" /><polyline clip-path="url(#clip200)" style="stroke:#000000; stroke-linecap:round; stroke-linejoin:round; stroke-width:4; stroke-opacity:1; fill:none" points="1384.54,1410.41 1800,1050.61 "/>
<polyline clip-path="url(#clip200)" style="stroke:#000000; stroke-linecap:round; stroke-linejoin:round; stroke-width:4; stroke-opacity:1; fill:none" points="1456.52,1348.08 1447.88,1345.58 "/>
<polyline clip-path="url(#clip200)" style="stroke:#000000; stroke-linecap:round; stroke-linejoin:round; stroke-width:4; stroke-opacity:1; fill:none" points="1532.11,1282.61 1523.47,1280.12 "/>
<polyline clip-path="url(#clip200)" style="stroke:#000000; stroke-linecap:round; stroke-linejoin:round; stroke-width:4; stroke-opacity:1; fill:none" points="1607.69,1217.15 1599.06,1214.66 "/>
<polyline clip-path="url(#clip200)" style="stroke:#000000; stroke-linecap:round; stroke-linejoin:round; stroke-width:4; stroke-opacity:1; fill:none" points="1683.28,1151.69 1674.65,1149.2 "/>
<polyline clip-path="url(#clip200)" style="stroke:#000000; stroke-linecap:round; stroke-linejoin:round; stroke-width:4; stroke-opacity:1; fill:none" points="1758.87,1086.23 1750.24,1083.73 "/>
<path clip-path="url(#clip200)" d="M1482.65 1361.68 L1470.84 1380.13 L1482.65 1380.13 L1482.65 1361.68 M1481.42 1357.6 L1487.3 1357.6 L1487.3 1380.13 L1492.23 1380.13 L1492.23 1384.01 L1487.3 1384.01 L1487.3 1392.16 L1482.65 1392.16 L1482.65 1384.01 L1467.05 1384.01 L1467.05 1379.5 L1481.42 1357.6 Z" fill="#000000" fill-rule="nonzero" fill-opacity="1" /><path clip-path="url(#clip200)" d="M1544.1 1292.14 L1562.45 1292.14 L1562.45 1296.07 L1548.38 1296.07 L1548.38 1304.55 Q1549.4 1304.2 1550.42 1304.04 Q1551.43 1303.85 1552.45 1303.85 Q1558.24 1303.85 1561.62 1307.02 Q1565 1310.2 1565 1315.61 Q1565 1321.19 1561.53 1324.29 Q1558.05 1327.37 1551.73 1327.37 Q1549.56 1327.37 1547.29 1327 Q1545.04 1326.63 1542.64 1325.89 L1542.64 1321.19 Q1544.72 1322.32 1546.94 1322.88 Q1549.17 1323.44 1551.64 1323.44 Q1555.65 1323.44 1557.98 1321.33 Q1560.32 1319.22 1560.32 1315.61 Q1560.32 1312 1557.98 1309.89 Q1555.65 1307.79 1551.64 1307.79 Q1549.77 1307.79 1547.89 1308.2 Q1546.04 1308.62 1544.1 1309.5 L1544.1 1292.14 Z" fill="#000000" fill-rule="nonzero" fill-opacity="1" /><path clip-path="url(#clip200)" d="M1630.57 1242.09 Q1627.42 1242.09 1625.57 1244.25 Q1623.74 1246.4 1623.74 1250.15 Q1623.74 1253.88 1625.57 1256.05 Q1627.42 1258.2 1630.57 1258.2 Q1633.71 1258.2 1635.54 1256.05 Q1637.39 1253.88 1637.39 1250.15 Q1637.39 1246.4 1635.54 1244.25 Q1633.71 1242.09 1630.57 1242.09 M1639.85 1227.44 L1639.85 1231.7 Q1638.09 1230.87 1636.28 1230.43 Q1634.5 1229.99 1632.74 1229.99 Q1628.11 1229.99 1625.66 1233.11 Q1623.23 1236.24 1622.88 1242.56 Q1624.25 1240.54 1626.31 1239.48 Q1628.37 1238.39 1630.84 1238.39 Q1636.05 1238.39 1639.06 1241.56 Q1642.09 1244.71 1642.09 1250.15 Q1642.09 1255.47 1638.94 1258.69 Q1635.8 1261.91 1630.57 1261.91 Q1624.57 1261.91 1621.4 1257.33 Q1618.23 1252.72 1618.23 1243.99 Q1618.23 1235.8 1622.12 1230.94 Q1626.01 1226.05 1632.56 1226.05 Q1634.32 1226.05 1636.1 1226.4 Q1637.9 1226.75 1639.85 1227.44 Z" fill="#000000" fill-rule="nonzero" fill-opacity="1" /><path clip-path="url(#clip200)" d="M1693.82 1161.21 L1716.04 1161.21 L1716.04 1163.21 L1703.49 1195.77 L1698.61 1195.77 L1710.41 1165.15 L1693.82 1165.15 L1693.82 1161.21 Z" fill="#000000" fill-rule="nonzero" fill-opacity="1" /><path clip-path="url(#clip200)" d="M1781.26 1113.9 Q1777.93 1113.9 1776 1115.68 Q1774.11 1117.46 1774.11 1120.59 Q1774.11 1123.71 1776 1125.5 Q1777.93 1127.28 1781.26 1127.28 Q1784.59 1127.28 1786.51 1125.5 Q1788.43 1123.69 1788.43 1120.59 Q1788.43 1117.46 1786.51 1115.68 Q1784.62 1113.9 1781.26 1113.9 M1776.58 1111.91 Q1773.57 1111.17 1771.88 1109.11 Q1770.22 1107.05 1770.22 1104.09 Q1770.22 1099.94 1773.16 1097.53 Q1776.12 1095.13 1781.26 1095.13 Q1786.42 1095.13 1789.36 1097.53 Q1792.3 1099.94 1792.3 1104.09 Q1792.3 1107.05 1790.61 1109.11 Q1788.94 1111.17 1785.96 1111.91 Q1789.34 1112.7 1791.21 1114.99 Q1793.11 1117.28 1793.11 1120.59 Q1793.11 1125.61 1790.03 1128.3 Q1786.98 1130.98 1781.26 1130.98 Q1775.54 1130.98 1772.46 1128.3 Q1769.41 1125.61 1769.41 1120.59 Q1769.41 1117.28 1771.3 1114.99 Q1773.2 1112.7 1776.58 1111.91 M1774.87 1104.52 Q1774.87 1107.21 1776.54 1108.71 Q1778.23 1110.22 1781.26 1110.22 Q1784.27 1110.22 1785.96 1108.71 Q1787.67 1107.21 1787.67 1104.52 Q1787.67 1101.84 1785.96 1100.34 Q1784.27 1098.83 1781.26 1098.83 Q1778.23 1098.83 1776.54 1100.34 Q1774.87 1101.84 1774.87 1104.52 Z" fill="#000000" fill-rule="nonzero" fill-opacity="1" /><polyline clip-path="url(#clip200)" style="stroke:#000000; stroke-linecap:round; stroke-linejoin:round; stroke-width:4; stroke-opacity:1; fill:none" points="664.934,1202.68 664.934,483.08 "/>
<polyline clip-path="url(#clip200)" style="stroke:#000000; stroke-linecap:round; stroke-linejoin:round; stroke-width:4; stroke-opacity:1; fill:none" points="664.934,1179.73 669.92,1175.41 "/>
<polyline clip-path="url(#clip200)" style="stroke:#000000; stroke-linecap:round; stroke-linejoin:round; stroke-width:4; stroke-opacity:1; fill:none" points="664.934,1064.06 669.92,1059.74 "/>
<polyline clip-path="url(#clip200)" style="stroke:#000000; stroke-linecap:round; stroke-linejoin:round; stroke-width:4; stroke-opacity:1; fill:none" points="664.934,948.391 669.92,944.074 "/>
<polyline clip-path="url(#clip200)" style="stroke:#000000; stroke-linecap:round; stroke-linejoin:round; stroke-width:4; stroke-opacity:1; fill:none" points="664.934,832.722 669.92,828.405 "/>
<polyline clip-path="url(#clip200)" style="stroke:#000000; stroke-linecap:round; stroke-linejoin:round; stroke-width:4; stroke-opacity:1; fill:none" points="664.934,717.053 669.92,712.736 "/>
<polyline clip-path="url(#clip200)" style="stroke:#000000; stroke-linecap:round; stroke-linejoin:round; stroke-width:4; stroke-opacity:1; fill:none" points="664.934,601.384 669.92,597.067 "/>
<polyline clip-path="url(#clip200)" style="stroke:#000000; stroke-linecap:round; stroke-linejoin:round; stroke-width:4; stroke-opacity:1; fill:none" points="664.934,485.715 669.92,481.398 "/>
<path clip-path="url(#clip200)" d="M629.005 1178.38 Q632.361 1179.09 634.236 1181.36 Q636.134 1183.63 636.134 1186.96 Q636.134 1192.08 632.616 1194.88 Q629.097 1197.68 622.616 1197.68 Q620.44 1197.68 618.125 1197.24 Q615.834 1196.82 613.38 1195.97 L613.38 1191.45 Q615.324 1192.59 617.639 1193.17 Q619.954 1193.75 622.477 1193.75 Q626.875 1193.75 629.167 1192.01 Q631.482 1190.27 631.482 1186.96 Q631.482 1183.91 629.329 1182.19 Q627.199 1180.46 623.38 1180.46 L619.352 1180.46 L619.352 1176.62 L623.565 1176.62 Q627.014 1176.62 628.843 1175.25 Q630.671 1173.86 630.671 1171.27 Q630.671 1168.61 628.773 1167.19 Q626.898 1165.76 623.38 1165.76 Q621.459 1165.76 619.26 1166.18 Q617.06 1166.59 614.422 1167.47 L614.422 1163.31 Q617.084 1162.57 619.398 1162.19 Q621.736 1161.82 623.797 1161.82 Q629.121 1161.82 632.222 1164.26 Q635.324 1166.66 635.324 1170.78 Q635.324 1173.65 633.681 1175.64 Q632.037 1177.61 629.005 1178.38 Z" fill="#000000" fill-rule="nonzero" fill-opacity="1" /><path clip-path="url(#clip200)" d="M626.551 1050.85 L614.746 1069.3 L626.551 1069.3 L626.551 1050.85 M625.324 1046.78 L631.204 1046.78 L631.204 1069.3 L636.134 1069.3 L636.134 1073.19 L631.204 1073.19 L631.204 1081.34 L626.551 1081.34 L626.551 1073.19 L610.949 1073.19 L610.949 1068.68 L625.324 1046.78 Z" fill="#000000" fill-rule="nonzero" fill-opacity="1" /><path clip-path="url(#clip200)" d="M615.232 931.111 L633.588 931.111 L633.588 935.047 L619.514 935.047 L619.514 943.519 Q620.533 943.172 621.551 943.01 Q622.57 942.824 623.588 942.824 Q629.375 942.824 632.755 945.996 Q636.134 949.167 636.134 954.584 Q636.134 960.162 632.662 963.264 Q629.19 966.343 622.871 966.343 Q620.695 966.343 618.426 965.972 Q616.181 965.602 613.773 964.861 L613.773 960.162 Q615.857 961.296 618.079 961.852 Q620.301 962.408 622.778 962.408 Q626.783 962.408 629.121 960.301 Q631.459 958.195 631.459 954.584 Q631.459 950.972 629.121 948.866 Q626.783 946.76 622.778 946.76 Q620.903 946.76 619.028 947.176 Q617.176 947.593 615.232 948.472 L615.232 931.111 Z" fill="#000000" fill-rule="nonzero" fill-opacity="1" /><path clip-path="url(#clip200)" d="M624.607 830.859 Q621.459 830.859 619.607 833.012 Q617.778 835.165 617.778 838.914 Q617.778 842.641 619.607 844.817 Q621.459 846.97 624.607 846.97 Q627.755 846.97 629.584 844.817 Q631.435 842.641 631.435 838.914 Q631.435 835.165 629.584 833.012 Q627.755 830.859 624.607 830.859 M633.889 816.206 L633.889 820.466 Q632.13 819.632 630.324 819.192 Q628.542 818.753 626.783 818.753 Q622.153 818.753 619.699 821.878 Q617.269 825.003 616.922 831.322 Q618.287 829.308 620.347 828.243 Q622.408 827.155 624.884 827.155 Q630.093 827.155 633.102 830.327 Q636.134 833.475 636.134 838.914 Q636.134 844.239 632.986 847.456 Q629.838 850.674 624.607 850.674 Q618.611 850.674 615.44 846.09 Q612.269 841.484 612.269 832.757 Q612.269 824.563 616.158 819.702 Q620.047 814.817 626.597 814.817 Q628.357 814.817 630.139 815.165 Q631.945 815.512 633.889 816.206 Z" fill="#000000" fill-rule="nonzero" fill-opacity="1" /><path clip-path="url(#clip200)" d="M613.912 699.773 L636.134 699.773 L636.134 701.764 L623.588 734.333 L618.704 734.333 L630.509 703.709 L613.912 703.709 L613.912 699.773 Z" fill="#000000" fill-rule="nonzero" fill-opacity="1" /><path clip-path="url(#clip200)" d="M624.283 602.252 Q620.949 602.252 619.028 604.035 Q617.13 605.817 617.13 608.942 Q617.13 612.067 619.028 613.85 Q620.949 615.632 624.283 615.632 Q627.616 615.632 629.537 613.85 Q631.459 612.044 631.459 608.942 Q631.459 605.817 629.537 604.035 Q627.639 602.252 624.283 602.252 M619.607 600.262 Q616.597 599.521 614.908 597.461 Q613.241 595.401 613.241 592.438 Q613.241 588.294 616.181 585.887 Q619.144 583.479 624.283 583.479 Q629.445 583.479 632.384 585.887 Q635.324 588.294 635.324 592.438 Q635.324 595.401 633.634 597.461 Q631.968 599.521 628.982 600.262 Q632.361 601.049 634.236 603.34 Q636.134 605.632 636.134 608.942 Q636.134 613.965 633.056 616.65 Q630 619.336 624.283 619.336 Q618.565 619.336 615.486 616.65 Q612.431 613.965 612.431 608.942 Q612.431 605.632 614.329 603.34 Q616.227 601.049 619.607 600.262 M617.894 592.877 Q617.894 595.563 619.56 597.067 Q621.25 598.572 624.283 598.572 Q627.292 598.572 628.982 597.067 Q630.695 595.563 630.695 592.877 Q630.695 590.192 628.982 588.688 Q627.292 587.183 624.283 587.183 Q621.25 587.183 619.56 588.688 Q617.894 590.192 617.894 592.877 Z" fill="#000000" fill-rule="nonzero" fill-opacity="1" /><path clip-path="url(#clip200)" d="M614.514 502.278 L614.514 498.018 Q616.273 498.852 618.079 499.292 Q619.885 499.731 621.621 499.731 Q626.25 499.731 628.681 496.63 Q631.134 493.505 631.482 487.162 Q630.139 489.153 628.079 490.218 Q626.019 491.282 623.519 491.282 Q618.334 491.282 615.301 488.157 Q612.292 485.009 612.292 479.569 Q612.292 474.245 615.44 471.028 Q618.588 467.81 623.82 467.81 Q629.815 467.81 632.963 472.417 Q636.134 477 636.134 485.75 Q636.134 493.921 632.246 498.805 Q628.38 503.667 621.829 503.667 Q620.07 503.667 618.264 503.319 Q616.459 502.972 614.514 502.278 M623.82 487.625 Q626.968 487.625 628.796 485.472 Q630.648 483.319 630.648 479.569 Q630.648 475.843 628.796 473.69 Q626.968 471.514 623.82 471.514 Q620.672 471.514 618.82 473.69 Q616.991 475.843 616.991 479.569 Q616.991 483.319 618.82 485.472 Q620.672 487.625 623.82 487.625 Z" fill="#000000" fill-rule="nonzero" fill-opacity="1" /><polyline clip-path="url(#clip201)" style="stroke:#009af9; stroke-linecap:round; stroke-linejoin:round; stroke-width:4; stroke-opacity:1; fill:none" points="1014.83,878.999 1018.99,873.564 1012.69,881.181 1008.96,885.55 1007.37,887.162 1007.73,886.348 1011.54,881.259 1022.87,866.938 1023.82,865.613 1019.81,870.349 1025.26,863.337 1023.1,865.868 1020.82,868.31 1028.26,858.769 1018.22,870.891 1008.24,882.616 996.233,896.506 1005.42,883.678 1000.5,888.648 1035.29,845.354 1021.3,863.189 1016.31,869.994 1029.91,853.18 1024.66,860.448 1026.02,858.561 1027.19,858.31 1045.96,839.706 1007.34,886.692 968.993,927.305 920.146,976.761 923.922,964.087 887.447,1000.63 884.309,995.244 901.995,969.4 921.817,944.478 933.014,936.606 913.084,962.25 915.395,956.153 928.66,950.872 877.594,1004.63 875.686,998.111 837.522,1043.34 851.572,1015.76 838.77,1023.36 856.107,1003.95 842.095,1023.05 825.202,1045.26 888.959,969.937 875.511,989.423 859.697,1006.91 933.659,927.076 883.552,989.92 907.533,958.808 875.738,988.983 868.23,1005 863.319,1012.78 812.252,1063.66 802.312,1070.2 868.983,993.648 931.172,934.001 927.759,939.352 960.845,917.316 962.766,907.919 1050.51,820.315 1085.08,797.358 1134.22,763.078 1006.8,896.879 1073.46,824.139 1148.29,752.61 1124.61,771.809 1128.93,782.515 1136.13,771.291 1010.79,885.88 1037.83,852.021 1035.76,855.677 1015.65,866.815 1054.62,838.737 1017.28,873.522 1087.61,813.776 1075.03,814.905 1155.95,733.246 1242.32,690.79 1296.29,644.236 1313.07,649.987 1390.9,595.954 1276.28,687.62 1311.49,649.442 1275.63,686.957 1245.47,714.303 1322.43,645.727 1254.1,701.283 1145.38,786.554 1117.43,803.473 1043.5,862.276 1061.67,827.461 1041.92,836.654 1046.32,833.442 926.81,946.853 910.086,963.393 863.089,1006.91 891.984,966.64 928.176,928.538 989.806,885.036 1000.2,876.255 1040.43,829.439 1050.01,832.365 1027.77,872.886 1073.46,826.089 1054.55,860.938 1026.65,869.018 1112.68,793.45 1085.23,820.72 1039.57,841.716 1016.9,870.086 1025.71,857.011 1008.11,873.919 1059.46,827.532 1077.26,813.647 1119.04,787.827 1068.65,833.197 1036.55,857.884 1058.84,825.983 1183.26,718.744 1144,760.227 1078.77,818.298 1054.17,835.184 1223.52,692.464 1254.21,690.54 1451.56,529.71 1334.31,646.36 1382.54,609.742 1355.54,617.548 1226.96,729.524 1076.84,859.092 989.673,926.402 1033.62,861.553 1042.45,848.429 1014.03,881.754 985.185,910.087 962.099,920.31 977.325,899.385 939.821,942.941 1052.02,817.713 1007.83,876.867 1027.54,856.555 1003.6,886.262 1026.96,861.81 1097.45,799.074 1067.61,836.067 1006.75,902.379 1053.53,854.672 1004.58,904.271 914.226,982.235 931.102,946.213 896.704,994.027 867.666,1009.35 883.459,992.177 893.458,992.064 923.833,952.596 914.464,961.927 951.363,918.071 906.539,970.897 912.57,961.761 837.804,1042.43 849.734,1020.84 838.999,1036.78 873.219,988.975 889.85,974.65 884.255,979.835 935.31,929.153 919.411,953.428 955.544,918.185 1097.95,773.649 1182.21,714.852 1210.46,721.178 1152.23,779.804 1196.85,728.263 1239.31,698.117 1242.53,701.102 1204.81,735.098 1235.92,714.24 1253.92,696.369 1231.06,717.581 1245.71,727.85 1183.72,760.249 1194.19,737.712 1249.85,678.396 1287.89,650.994 1346.75,606.038 1431.29,553.075 1517.42,491.298 1556.75,478.587 1523.91,527.773 1493.49,557.655 1524.84,517.027 1596.13,463.698 1514.72,547.995 1451.82,588.129 1441.17,579.785 1489.92,525.342 1428.02,583.48 1345.26,651.014 1276.66,692.893 1298.77,660.944 1334.21,623.59 1328.97,637.333 1324.97,643.236 1288.87,669.357 1227.29,718.039 1209.73,731.296 1150.72,775.895 1164.75,756.367 1082.84,840.487 981.883,923.7 952.238,939.787 1013.55,860.971 1085.44,791.298 1063.32,826.9 1024.88,869.382 928.66,961.301 972.453,899.408 990.229,885.221 1023.22,861.995 960.325,923.961 1037.18,832.881 1021.68,863.467 1087,800.263 1061.38,838.26 1014.96,871.211 1041.56,841.27 1050.31,827.698 1012.39,877.516 959.149,923.555 952.796,925.254 980.25,888.584 958.171,909.093 1026.08,850.074 1054.27,830.615 984.07,894.577 1092.18,792.465 1165.46,727.105 1177.4,738.463 1282.84,650.873 1280.85,649.55 1223.2,707.924 1198.13,746.089 1139.16,797.325 1184.2,759.9 1178.99,759.291 1088.43,817.091 1148.05,760.575 1117.8,794.814 1121.59,783.496 1132.82,780.226 1072.75,818.684 1121.65,792.964 1218.05,706.937 1150.06,751.83 1334.68,597.199 1351.76,611.216 1410.27,565.457 1304.27,664.377 1204.19,743.321 1255.14,692.208 1250.09,700.96 1213.98,726.268 1194.39,744.07 1122.95,800.626 1120.42,790.548 1026.69,879.813 1061.71,834.165 1128.69,767.555 1196.61,708.657 1237.76,681.001 1172.37,760.552 1237.13,687.761 1160.39,763.951 1276.57,665.5 1239.31,706.749 1246.18,698.343 1241.14,707.009 1167.64,771.212 1204.35,717.655 1197.13,734.068 1125.15,800.446 1106.04,809.148 1065.99,835.807 1139.52,771.424 1101.32,815.584 1099.92,808.719 1176.51,726.121 1171.77,753.069 1181.35,735.395 1158.59,750.893 1174.22,745.482 1201.57,715.192 1193.2,721.856 1268.28,674.985 1212.75,730.809 1112.78,821.456 1137.66,780.777 1191.18,725.15 1175.03,748.391 1223.01,710.254 1298.8,649.825 1342.23,630.658 1448.24,541.378 1376.65,620.322 1346.62,651.816 1272,690.894 1202.51,749.579 1253.06,691.135 1370.54,596.286 1381.14,601.825 1305.45,658.951 1312.1,656.759 1313.1,641.912 1311.39,659.589 1365.46,613.104 1292.25,677.118 1309.88,652.216 1255.11,697.857 1192.48,738.711 1188.04,743.444 1205.31,726.624 1161.32,767.214 1092.69,822.494 1102.32,800.846 1091.65,808.334 1072.72,834.312 1082.17,827.54 1098.31,800.116 1103.64,794.26 1237.81,676.269 1307.01,632.744 1326.85,631.374 1480,516.257 1383.04,631.502 1277.67,699.041 1294.44,675.222 1390.6,583.004 1417.7,575.549 1403.16,597.219 1320.12,669.232 1367.38,620.335 1366.49,626.023 1354.66,623.219 1260.54,706.001 1184.05,766.696 1191.7,755.18 1093.81,831.858 1130.94,781.597 1161.08,749.818 1210.87,704.195 1197.35,728.152 1214.9,710.67 1272.32,655.759 1248.57,694.695 1170.64,766.105 1105.85,814.034 1072.55,843.606 1119.2,791.518 1147.79,760.829 1198.89,717.254 1211.41,717.635 1193.46,736.581 1178.55,742.049 1178.54,747.289 1218.65,714.929 1162.15,769.235 1137.31,785.779 1177.9,740.977 1294.2,644.99 1252.09,694.08 1186.39,757.375 1222.25,712.762 1195.78,742.168 1187.38,739.069 1255.42,669.528 1295.67,643.727 1251.97,690.888 1277.41,669.811 1296.93,652.167 1325.02,629.268 1349.42,615.766 1277.67,684.085 1228.21,726.17 1218.52,727.595 1284.19,677.46 1261.32,702.882 1180.94,762.26 1313.84,624.435 1416.34,548.448 1411.92,592.678 1451.14,565.548 1383.86,622.116 1410.67,590.097 1456.64,543.849 1348.75,637.147 1236.11,719.965 1210.8,733.294 1188.38,749.166 1199.35,728.123 1152.04,768.752 1087.8,827.442 1130.68,769.836 1078.38,832.776 963.329,931.953 923.243,967.194 917.385,964.856 937.908,942.432 956.504,922.43 947.936,926.587 954.725,921.059 902.559,977.731 928.726,938.936 861.577,1007.35 863.865,1007.87 923.596,944.128 973.837,903.207 1060.42,822.27 1056.33,828.577 1002.54,882.303 962.836,923.864 1024.82,864.191 1162.76,744.245 1113.08,793.981 1263.38,676.799 1247.62,699.508 1315.25,638.431 1221.33,728.59 1370.41,585.392 1413.12,564.054 1308.94,661.526 1267.88,695.936 1297.67,662.305 1161.05,759.139 1111.52,806.614 1187.42,727.513 1107.83,796.854 1124.36,771.156 1125.86,777.606 1195.17,735.875 1213.14,719.126 1262.34,677.207 1183.3,752.817 1179.11,750.932 1056.12,851.627 1009.9,896.171 1025.88,861.941 1032.17,854.879 1101.15,786.796 1211.56,691.282 1167.63,759.699 1189.6,737.098 1243.66,694.994 1207.54,733.014 1165.1,768.184 1174.82,750.28 1216.28,704.704 1165.26,765.036 1179.3,746.897 1176.3,750.574 1220.27,703.588 1158.93,761.423 1144.24,777.166 1102.49,828.641 1102.03,812.712 1099.3,810.204 1089.34,818.354 1103.68,803.458 1088.37,814.061 1071.23,825.676 1136.75,768.525 1173.85,749.861 1170.07,746.425 1040.86,861.96 996.207,913.186 1023.42,871.204 944.53,940.778 972.695,909.615 1066.11,810.67 1031.14,851.41 970.435,911.564 950.185,924.906 924.331,952.147 935.63,944.595 1037.84,838.725 1126.61,767.036 1226.18,681.029 1266.63,668.164 1244.34,697.136 1237.8,712.69 1315.85,637.039 1377.21,585.576 1195.97,753.219 1128.67,790.271 1040.73,876.347 1044.15,865.099 1067.91,834.553 1139.58,750.725 1103.99,800.223 1112.45,786.548 1165.99,746.578 1190.47,720.74 1229.16,697.303 1217.28,712.728 1259.24,686.556 1270.49,673.829 1290.63,661.267 1327.85,629.101 1366.02,612.439 1352.61,627.809 1295.3,669.558 1299.38,660.002 1319.77,632.761 1424.11,555.505 1442.07,543.888 1536.09,481.385 1533.25,498.768 1475.37,569.715 1371.56,643.605 1350.78,640.379 1328.46,646.313 1246.53,712.921 1219.06,732.297 1116.02,815.975 1132.14,782.207 1169.53,745.597 1229.34,693.769 1267.97,670.188 1252.9,685.322 1239.52,702.258 1171.78,764.013 1126.11,796.854 1146.18,775.731 1076.05,836.536 981.004,931.065 1003.62,890.382 1030.11,855.797 958.726,929.601 963.26,913.75 929.442,951.568 951.145,929.448 995.761,882.281 1041.76,844.865 997.119,885.617 1136.9,756.908 1215.07,696.406 1201.57,723.674 1079.72,842.819 1048.03,863.284 1020.56,890.853 1013.95,894.036 996.276,895.088 973.007,915.247 952.159,921.848 958.729,912.356 1015.62,860.382 1016.16,863.786 1061.15,816.714 1055.55,842.329 1112.71,787.664 1145.55,763.707 1082.7,823.452 1063.54,842.385 1062.4,833.288 1065.5,826.359 1048.69,841.217 1040.17,827.583 1027.91,867.173 975.935,901.552 1022.56,864.984 990.066,892.369 1041.13,842.163 1026.38,871.622 1038.35,853.807 1113.25,788.434 1193.63,734.927 1264.26,678.692 1377.09,586.633 1386.05,594.445 1465.08,565.217 1439.48,571.074 1486.11,573.573 1381.98,641.377 1326.25,671.765 1286.32,697.681 1285.88,689.071 1280.24,683.335 1395.56,571.417 1405.62,576.043 1405.62,574.015 1414.65,586.515 1581.38,451.714 1534.84,506.749 1591.71,472.662 1625.65,444.744 1738.99,377.156 1610.67,478.646 1546.15,526.866 1400.69,637.998 1420.93,594.267 1398.66,615.283 1349.39,650.74 1286.41,695.711 1295.58,676.912 1277.9,684.972 1240.42,713.015 1261.57,683.93 1253.05,697.894 1211.04,725.394 1172.15,753.855 1196.22,732.543 1224.87,712.099 1224.82,717.448 1155.55,774.94 1145.41,777.193 1044.24,873.93 1072.39,830.642 1046.87,855.559 986.038,907.912 990.042,894.125 975.401,908.751 968.872,905.385 993.385,879.71 1008.22,870.49 1000.42,884.967 1043.26,848.332 1023.4,860.81 975.517,915.295 978.609,917.263 1068.69,843.882 1028.9,877.377 1123.21,777.665 1172.57,747.914 1175.4,742.885 1227.83,708.357 1203.91,725.773 1293.31,643.356 1276.97,656.817 1237.15,698.991 1174.88,752.643 1090.13,806.075 1120.66,782.576 1009.38,891.935 1069.67,820.563 1062.02,829.797 1080.09,813.837 1081.65,825.326 1109.31,808.779 1109.8,805.315 1113,818.553 1114.9,797.475 1064.56,826.31 1071.51,816.407 1055.46,836.147 1005.14,890.312 957.889,922.079 928.12,953.216 951.348,935.974 1053.05,846.674 1097.98,811.744 1043.15,859.099 1024.69,873.182 1105.53,807.346 1046.82,864.602 1152.35,762.28 1186.25,732.954 1046.85,838.908 1117.37,781.425 1037.9,842.991 921.664,936.313 931.634,943.68 955.636,913.172 1068.05,815.65 1072.02,822.877 1105.91,791.495 1092.69,820.688 1108.62,801.738 1112.41,812.727 1153.44,786.824 1027.32,898.401 974.585,929.403 938.188,954.617 1018.92,862.05 1016.04,866.298 1188.53,701.488 1232.61,688.345 1203.69,731.738 1072.96,850.608 1020.19,884.869 980.374,917.484 1017.35,866.417 1044.63,839.407 974.257,913.863 938.364,934.777 1046.36,826.197 1029.02,856.627 949.631,939.108 927.518,961.921 977.894,897.081 1086.36,789.541 1120.73,778.127 1179.88,740.878 1176.14,756.638 1154.68,764.354 1229.72,699.594 1218.07,709.037 1215.09,718.067 1137.8,767.516 1127.31,785.422 1130.66,791.787 1140.44,781.25 1152.38,756.333 1223.23,718.887 1172.83,766.142 1166.83,750.941 1022.3,890.447 933.654,960.774 940.675,937.148 936.533,934.64 931.8,944.331 925.088,949.492 879.276,998.145 931.974,941.827 958.553,910.71 934.22,950.462 889.828,993.302 965.34,903.854 1021.51,853.003 1059.13,824.015 1116.34,769.886 1126.64,774.529 1275.58,642.108 1321.18,619.937 1264.32,692.367 1185.05,761.063 1111.09,815.393 1147.87,777.167 1165.94,752.472 1209.97,719.422 1248.21,695.372 1259.39,687.322 1369.25,624.383 1325.94,658.426 1435.28,576.871 1411.22,609.534 1328.66,677.685 1271.47,700.542 1322.06,638.929 1331.37,639.058 1305.16,655.897 1255.56,705.784 1210.89,739.08 1197.71,740.124 1236.21,700.773 1195.61,726.65 1229.15,705.049 1315.98,622.701 1317.34,640.039 1357.92,607.673 1278.7,682.9 1366.5,607.339 1357.82,615.373 1219.36,731.086 1151.55,784.725 1129.18,800.028 1118.47,804.349 1007.49,893.101 996.537,903.144 1045.66,847.219 1100.43,795.095 1059.58,837.078 1048.86,839.205 1097.92,808.635 1063.42,840.166 1163.16,752.463 1203.51,725.377 1342.47,598.124 1349.23,623.089 1300.76,672.323 1184.33,771.152 1206.06,734.411 1306.71,631.885 1455.45,505.847 1477.83,520.746 1450.14,561.771 1395.89,616.12 1333.83,673.918 1319.33,669.146 1280.54,688.214 1246.35,711.77 1277.32,679.043 1296.24,663.466 1373.62,603.983 1270.69,691.776 1202.08,742.278 1087.07,848.696 1067.86,842.073 1010.85,892.193 1022.66,872.737 1044.66,846.794 1028.78,866.304 1039.35,846.007 1042.13,842.541 1042.39,838.986 1161.64,735.523 1236.85,689.485 1369.94,586.064 1514.27,493.35 1420.28,586.713 1412.65,587.667 1415.59,595.328 1462.98,554.263 1387.68,614.29 1289.14,682.272 1237.2,721.487 1215.97,728.672 1166.03,766.877 1042.22,868.698 1040.38,857.261 1077.51,815.86 1019.78,876.216 1074.24,822.744 1111.41,797.119 1152.26,748.293 1155.56,757.871 1167.85,734.277 1109.83,797.785 1230.2,683.721 1290.2,648.054 1272.08,680.653 1328.4,625.965 1341.15,623.696 1413.99,582.254 1437.79,569.312 1407.59,588.232 1359.63,621.619 1388.38,602.442 1365.02,630.656 1422.19,575.847 1418.8,573.686 1384.58,605.758 1381.38,624.977 1296.88,683.244 1328.26,648.635 1389.48,610.96 1290.66,674.115 1249.75,716.671 1236.93,706.729 1298.3,643.797 1398.59,567.628 1475.22,516.095 1458.89,547.786 1434.72,571.756 1480.88,540.276 1495.35,519.935 1498.48,530.256 1537.53,499.513 1445.58,583.907 1493.98,538.447 1508.72,523.809 1499.43,521.292 1477.68,548.573 1466.83,573.805 1424.92,597.496 1386.53,613.969 1277.4,706.487 1216.98,743.821 1224.32,717.253 1295.16,642.389 1258.01,684.66 1251.94,692.84 1231.9,712.857 1251.5,702.346 1339.36,624.355 1286.12,666.402 1300.32,659.838 1083.06,842.994 1087.25,825.231 1146.14,764.032 1150.94,768.438 1236.52,709.443 1238.21,704.967 1182.04,755.505 1171.95,757.278 1154.54,780.337 1088.88,827.665 1091.57,818.011 1044.08,865.969 1053.36,844.178 1058.23,834.017 1069.61,821.733 1039.14,862.009 1009.8,882.371 1027.23,857.267 1011.24,869.909 968.033,921.806 1009.64,870.271 1058.91,827.206 1083.93,796.767 1151.69,749.928 1221.62,702.431 1184.43,748.328 1185.46,749.25 1264.4,691.517 1162.99,787.037 1097.46,835.329 1060.43,856.309 1079.18,825.588 1064.73,836.258 1074.41,830.483 1071.39,826.88 1140.63,763.455 1113.15,793.144 1136.36,773.738 1204.99,719.659 1194.68,745.23 1233.98,714.751 1307.39,661.686 1258.76,702.215 1210.96,744.102 1224.48,711.016 1348.4,618.239 1158.48,762.216 1236.6,690.48 1346.02,629.87 1303.05,667.461 1158.46,791.53 1157.99,768.343 1143.96,780.78 1105.26,820.426 1093.89,823.496 1040.9,861.866 1009.99,887.715 1039.31,855.089 1052.95,839.485 1075.48,816.711 1097.29,795.501 1146.23,765.738 1281.96,641.815 1173.24,735.299 1239.07,687.843 1129.28,802.058 1142.52,777.032 1043.7,865.034 1066.21,835.666 1028.7,868.336 1010.81,872.696 1130.87,750.798 1079.93,824.702 1136.52,769.535 1171.68,745.632 1170.27,749.02 1230.84,701.348 1249.5,679.148 1210.17,727.631 1224.28,731.05 1194.16,732.151 1154.36,776.778 1090.24,836.876 1068.83,847.321 1114.26,789.33 1113.76,796.108 1108.03,797.669 1128.3,786.907 1024.56,885.388 1047.46,845.667 993.037,895.248 991.283,885.729 925.453,955.105 934.745,951.916 901.166,986.715 940.352,938.251 1030.81,856.658 1107.88,793.152 1194.1,734.353 1194.9,732.437 1147.97,782.106 1171.85,756.091 1169.02,759.346 1197.26,741.273 1107.81,805.61 1100.65,813.579 1043.77,864.719 980.688,920.746 1012.52,876.186 1048.88,843.458 1010.18,879.189 983.764,895.602 1019.16,856.086 1023.62,874.259 1074.59,826.584 1104.36,793.873 1150.54,745.979 1200.55,729.244 1242.44,700.421 1440.24,532.777 1360.19,634.834 1267.83,709.158 1341.06,624.792 1303.17,648.19 1375.06,600.187 1428.1,559.509 1399.71,595.97 1534.08,511.1 1696.69,403.804 1715.59,417.656 1712.74,418.829 1564.71,527.666 1552.05,519.665 1441.34,603.721 1422.56,599.815 1389.1,617.95 1304.88,681.565 1271.96,695.997 1189.69,767.135 1090.87,851.339 1121.49,799.277 1140.72,769.897 1175.48,739.651 1158.37,759.854 1091.79,829.085 1009.83,901.971 961.809,938.284 945.338,946.532 931.15,952.14 932.615,945.624 937.612,931.5 975.518,885.592 996.697,870.043 990.188,882.431 981.619,898.759 961.126,920.67 924.55,947.909 901.831,970.4 976.123,894.425 1043.58,824.198 1103.38,780.981 1176.57,720.337 1188.95,727.836 1229.5,698.271 1141.13,771.908 1264.01,663.643 1280.53,667.566 1323.47,634.773 1373.07,616.64 1479.27,534.171 1498.36,544.041 1420.91,586.54 1322.05,666.758 1365.16,603.85 1367.83,618.005 1322.7,650.532 1313.42,652.777 1311.79,664.863 1276.96,709.113 1237.15,721.555 1248.23,706.531 1225.69,718.971 1187.58,743.099 1133.63,794.288 1050.69,852.249 1053.59,841.103 1027.58,862.599 1014.16,877.106 1006.5,890.842 989.365,903.126 1104.15,796.993 1234.66,680.874 1243.43,695.932 1181.42,750.922 1236.43,693.466 1249.52,689.372 1269.42,671.861 1279.61,664.915 1284.3,662.769 1190.53,728.384 1183.29,735.516 1168.98,760.025 1250.83,686.727 1280,671.306 1113.15,797.987 1024.57,882.927 1001.46,892.072 968.599,915.019 991.665,886.817 976.483,903.335 932.998,943.706 981.369,887.711 1000.45,878.301 985.739,895.939 953.818,932.176 1082.74,798.45 1133.71,764.133 1099.51,808.02 1091.03,818.89 1022.71,880.443 1011.31,870.049 1026.5,860.666 1026.84,878.681 993.36,896.978 1006.91,878.515 1066.02,830.127 1008.29,889.31 1100.38,806.866 1119.1,780.021 1101.68,796.731 1127.1,791.327 1176.17,741.712 1220.77,701.379 1237.06,694.841 1411.51,549.699 1419.73,572.425 1394.12,622.234 1367.69,626.408 1404.25,590.563 1424.66,558.534 1475.5,526.597 1464.27,564.335 1373.83,620.006 1317.6,663.472 1397.23,585.61 1430.39,566.177 1450.2,564.699 1416.31,584.727 1293.64,693.826 1253.33,713.579 1199.53,752.406 1166.2,766.671 1163.52,761.305 1203.24,713.557 1191.61,730.952 1205.51,735.544 1095.64,816.689 1057.96,846.554 1066.74,828.401 1036.8,855.64 982.079,899.862 1067.01,812.838 1007.22,889.217 989.03,903.933 970.661,924.122 884.633,992.884 897.84,973.946 919.129,955.689 931.989,937.384 938.356,932.632 958.819,911.319 939.187,926.531 912.514,952.313 970.257,891.161 1010.64,869.932 1056.33,820.918 1116.77,776.546 1069.95,830.41 1144.15,758.626 1110.99,800.106 1119.69,809.287 1147.41,782.851 1201.46,736.112 1173.82,757.066 1212.66,718.101 1258.36,682.875 1288.2,666.565 1257.96,695.635 1219.67,712.165 1242.9,707.232 1290.76,665.832 1322.83,625.41 1467.89,522.338 1325.79,640.802 1241.78,689.375 1205.05,728.022 1221.25,722.574 1215.13,736.842 1229.36,720.946 1249.78,703.356 1340.74,641.804 1173.47,778.54 1090.44,839.099 1071.09,836.6 1105.42,792.381 1230.18,668.746 1260.63,663.673 1241.12,700.609 1247.95,706.632 1235.8,703.719 1322.12,627.998 1353.08,628.829 1406.54,574.55 1451.92,540.481 1454.86,544.427 1342.6,652.483 1336.76,653.175 1415.39,573.498 1393.51,598.075 1471.73,527.27 1561.8,483.871 1508.62,516.653 1521.53,521.586 1448.82,575.161 1450.63,565.083 1354.19,663.676 1350.51,635.836 1346.9,630.566 1419.14,565.61 1367.77,619.095 1271.36,694.907 1256.7,693.172 1230.25,710.927 1208.2,729.46 1202.02,726.844 1260.53,676.715 1147.75,780.863 1099.71,817.829 1068.65,845.941 1090.67,808.586 1129.19,772.196 1163.85,743.192 1013.98,873.994 1037.17,850.903 1109.98,803.062 1093.29,818.502 1190.8,721.849 1245.3,671.739 1239.35,695.102 1113.93,806.514 1115.24,803.212 1184.79,736.118 1160.2,754.165 1141.17,794.78 1178.17,746.142 1253.65,699.332 1221.88,725.601 1176.5,775.257 1098.39,829.093 1061.67,854.761 1053.77,852.638 1034.03,858.441 1017.31,878.509 1028.49,863.056 1129.32,770.154 1190.22,719.293 1174.13,749.542 1169.59,753.926 1216.31,707.06 1275.19,661.335 1230.3,715.246 1074.15,862.766 1037.63,872.281 973.517,930.538 1011.99,869.953 1052.64,829.303 1104.88,769.988 1136.04,762.213 1148.52,755.342 1105.62,796.694 1008.46,886.162 998.554,892.147 892.33,989.968 900.737,973.289 911.17,954.3 963.232,899.858 1017.14,857.074 1024.28,859.382 1021.34,866.256 1068.11,817.925 1021.85,860.938 1049.63,841.643 1019.27,871.427 1011.55,883.113 1016.94,872.17 996.588,888.772 952.116,921.761 943.322,923.884 985.992,878.008 981.877,887.224 1051.68,829.692 1116.01,775.503 1107.52,791.997 1172.04,742.054 1289.64,649.129 1327.2,622.602 1319.71,654.661 1373.07,635.757 1377.08,631.439 1284.37,703.393 1294.9,675.487 1285.26,670.024 1250.13,691.221 1365.96,610.306 1378.48,601.394 1367.72,639.681 1441.86,583.753 1292.24,692.047 1241.73,724.324 1216.4,730.283 1158.13,778.078 1096.09,832.861 1034.17,876.929 1046.45,854.729 1051.07,834.032 1064.2,816.408 1127.19,761.567 1126.04,776.929 1135.09,774.454 1083.67,829.261 1094.14,809.938 1110.72,791.308 1088.05,822.798 1074.36,817.353 1079.32,814.969 1139.01,766.32 1277.9,634.559 1327.97,624.203 1260.11,701.224 1204.26,745.493 1222.25,716.686 1302.3,651.77 1267.31,688.934 1289.11,658.086 1281.17,675.944 1353.91,615.771 1176.92,762.188 1049.41,871.341 1119.46,790.887 1158.66,778.257 1172.33,758.28 1121.69,797.418 1144.84,767.14 1074.57,839.575 1011.87,884.417 1006.51,886.603 985.73,905.367 978.441,906.332 963.065,923.254 952.67,930.128 962.9,913.714 959.41,920.047 942.191,934.974 973.676,897.078 1016.2,863.049 1014.08,864.704 1053.59,834.476 1039.63,851.233 1022.55,854.142 950.679,924.81 953.613,927.565 843.037,1032.98 896.973,966.589 891.211,983.288 835.448,1037.21 859.88,1017.01 886.614,979.667 896.667,968.979 873.445,997.817 933.541,937.192 893.86,984.682 844.195,1023.94 869.872,993.492 847.501,1029.73 860.813,1010.25 890.238,976.208 918.126,941.112 884.955,987.091 849.1,1024.76 825.093,1049.5 854.79,1016.61 922.821,937.756 946.201,920.516 954.879,927.277 961.867,918.873 962.712,908.52 958.048,923.56 982.058,887.179 1019.89,861.675 1035.07,847.29 1148.44,747.275 1310.05,606.602 1371.87,583.927 1364.13,604.853 1414.61,573.665 1471.98,539.859 1497.68,514.646 1489.25,528.364 1471.77,554.158 1476.86,548.346 1385.3,609.29 1361.94,631.701 1303.69,679.871 1245.54,707.791 1271.71,679.636 1222.91,721.311 1184.15,758.291 1183.12,753.587 1107.17,809.334 1123.73,781.675 1046.6,858.122 1041.58,861.922 1049.59,855.512 1013.24,885.778 1009.47,880.705 960.76,924.808 957.446,928.522 970.027,923.967 994.514,890.157 1033.41,859.484 1027.84,865.192 987.194,904.545 962.098,918.634 999.825,886.322 1079.42,815.357 1115.57,784.321 1189.55,737.674 1249.36,693.015 1347.2,626.003 1483.53,530.178 1731.3,358.826 1750.8,385.125 1595.94,507.597 1518.06,562.165 1359.7,681.424 1374.56,638.204 1311.61,680.699 1325.11,654.338 1274.47,693.058 1228.02,733.454 1261.58,691.888 1295.85,656.355 1364.09,600.36 1267.1,691.905 1236.32,709.451 1250.2,694.502 1212.52,736.519 1076.77,849.454 1027.55,889.701 1009.75,893.517 1012.33,880.229 997.903,888.845 1078.16,810.943 1091.42,804.418 1162.83,745.278 1147.74,768.705 1159.95,752.188 1200.67,716.111 1203.46,732.444 1283.55,646.442 1385.36,575.368 1429.82,553.515 1452.74,547.245 1530.65,497.954 1575.17,475.576 1652.75,416.555 1735.25,367.489 1667.42,445.753 1621.53,476.546 1529.64,540.56 1491.07,559.343 1573.31,475.255 1454.47,574.106 1523.26,503.467 1424.33,595.904 1286.17,710.338 1268.37,704.814 1273.47,686.896 1285.94,673.278 1263.2,691.466 1243.77,706.11 1298.9,642.618 1379.75,583.325 1325.19,638.366 1296.51,660.896 1325.48,633.842 1267.75,673.133 1293.7,665.112 1314.9,642.933 1300.36,653.12 1313.81,668.323 1313.54,662.98 1274.51,688.745 1282.7,697.205 1302.17,694.789 1340.49,646.153 1343.62,652.737 1279.83,685.278 1282.28,664.033 1216.65,729.316 1187.59,762.996 1149.52,794.505 1217.78,706.47 1240.41,693.532 1215.75,712.923 1334.93,641.873 1318.57,653.559 1308.3,655.057 1239.72,707.617 1254.73,688.808 1274.57,663.158 1194.59,730.622 1060.13,827.998 1058.07,831.182 1044,848.455 977.304,900.253 1019.18,854.514 1071.9,812.518 1110.38,784.406 1136.8,765.861 1156.92,755.679 1167.37,745.272 1174.51,753.276 1175.53,733.473 1261.63,662.051 1170.91,737.151 1141.02,764.111 1198.97,753.21 1225.29,715.687 1209.85,727.18 1220.87,716.073 1200.61,732.542 1193.98,747.308 1231.08,719.176 1262.73,700.419 1185.55,745.326 1223.63,712.187 1303.53,639.783 1423.84,547.159 1495.82,519.52 1374.72,628.159 1360.07,634.699 1439.31,564.196 1410.1,592.964 1433.34,573.516 1461.91,552.449 1398.32,606.003 1431.57,574.821 1476.55,558.298 1474.91,544.752 1484.68,529.806 1407.28,583.083 1422.59,570.114 1392.57,599.312 1409.19,589.52 1376.49,601.622 1356.2,632.676 1359.61,637.813 1375.98,609.093 1432.83,566.084 1375.56,617.695 1335.74,647.11 1394.98,590.713 1313.02,664.689 1385.22,599.207 1294.59,670.508 1315.23,641.329 1303.25,652.865 1362.4,605.373 1226.92,715.512 1168.77,773.432 1036.31,884.577 1020.62,886.043 1032.7,865.751 1023.9,872.733 1014.47,874.109 1036.6,844.532 1046,841.268 1029.5,867.643 1022.64,873.493 992.164,893.466 978.098,908.64 1063.66,822.541 1046.95,851.126 1063.27,835.98 1025.06,868.403 1097.03,805.447 1056.14,840.754 1074.22,831.072 1069.76,833.205 1145.97,763.753 1343.61,588.154 1399.91,570.074 1366.74,619.821 1452.16,557.78 1435.77,571.015 1462.29,553.397 1338.94,637.821 1308.51,663.381 1185.7,771.66 1152.13,790.065 1142.38,780.04 1179.28,738.09 1245.05,686.251 1262.78,677.272 1197.71,745.768 1190.2,747.44 1257.22,687.125 1232.24,712.12 1248.17,692.674 1331.16,622.925 1421.48,561.202 1487.28,535.42 1399.23,602.592 1266.71,708.651 1284.9,683.996 1216.66,727.894 1237.83,707.848 1179.8,750.614 1204.1,719.384 1147.29,783.85 1086.12,836.918 1136.31,773.415 1123.56,783.461 1104.34,806.225 1120.63,785.158 1160.75,748.761 1209.71,713.812 1254.64,680.221 1273.1,675.044 1329.49,638.086 1278.62,684.91 1179.82,762.438 1158.1,769.795 1253.51,673.023 1263.52,679.241 1187.38,752.161 1274.97,672.026 1418.58,573.722 1478.08,540.868 1436.54,583.863 1351.97,638.379 1355.13,634.867 1398.33,591.033 1385.45,591.095 1415.32,584.97 1424.05,565.588 1327.11,656.13 1372.88,616.633 1332.35,651.064 1240.09,728.084 1239.87,716.235 1243.35,695.141 1205.86,724.275 1146.33,762.632 1175.14,736.253 1149.98,769.388 1150.54,763.713 1123.63,782.459 1087.17,801.479 1072.16,824.502 1022.18,843.836 1026.68,841.523 956.365,916.522 941.874,943.923 895.997,979.804 925.461,947.414 959.345,918.656 976.864,911.331 873.514,1006.46 820.79,1059.96 844.224,1026.92 858.918,1007.99 848.62,1022.42 865.2,992.566 954.963,908.71 1016.17,864.315 1073.09,815.416 1015.98,883.763 1052.52,848.813 943.524,940.319 974.663,899.716 1016.83,854.497 1045.54,825.826 973.831,907.543 1006.89,877.392 1052.97,843.846 1131.66,771.439 1137.15,768.252 1170.98,759.117 1242.3,705.673 1106.24,794.146 1075.9,831.031 1007.51,882.901 1014.33,871.133 1047.14,838.024 992.092,889.677 979.003,903.695 1152.09,729.835 1155.45,747.192 1126.87,786.338 1178.05,740.995 1182.02,743.644 1179.23,744.926 1169.41,729.841 1132.83,783.504 1158.57,764.598 1087.91,816.669 1084.36,819.746 1105.84,795.94 1095.53,808.428 1037.85,864.185 947.558,932.44 919.519,958.081 831.632,1051.38 871.366,992.934 871.969,994.899 928.094,935.537 933.966,937.596 921.634,956.777 925.539,948.275 992.254,877.876 974.113,903.265 996.698,870.997 1012.1,858.761 1003.95,879.309 971.13,910.559 886.937,994.551 886.347,994.016 875.168,991.707 898.303,965.417 958.522,899.734 993.474,874.33 982.55,902.717 1039.19,841.507 1136.89,757.97 1096.05,807.263 1072.77,822.08 1186.43,709.548 1172.39,736.414 1234.98,680.955 1307.71,637.244 1366.2,603.122 1400.68,595.573 1414.26,595.648 1391.53,621.879 1339.95,651.316 1471.43,543.107 1429.31,585.687 1347.56,646.509 1342.64,649.111 1340.96,642.142 1330.54,632.426 1331.99,624.565 1323.55,648.328 1368.85,609.396 1337.17,655.437 1317.83,669.086 1250.88,706.488 1180.06,751.564 1199.64,739.657 1228.91,703.198 1110.25,812.697 1137.07,779.074 1198.84,728.642 1178.81,746.381 1203.92,712.566 1272.42,663.64 1278.07,668.891 1306.41,640.964 1197.33,731.016 1187.81,741.555 1098.74,819.643 1070.4,840.67 1096.22,808.897 1197.09,713.814 1267.28,673.276 1339.68,619.252 1346.39,618.347 1315.35,646.909 1322.18,640.856 1236.44,688.857 1227.62,712.887 1286.24,651.931 1320.75,624.182 1302.3,645.036 1271.39,665.716 1214.38,699.272 1128.79,782.093 1181.15,737.648 1208.53,710.079 1043.9,822.448 1128.18,767.18 1104.39,797.618 1169.12,730.333 1154.79,761.405 1180.47,738.958 1195.79,715.92 1253.74,698.799 1220.89,730.689 1223.95,715.666 1227.07,713.424 1238.63,699.868 1246.84,692.325 1207.17,731.953 1187.53,742.397 1135.99,793.207 1080.13,838.558 1037.94,871.886 1029.51,868.282 1036.91,853.783 1014.57,871.807 1033.63,842.542 1051.35,822.28 1032.41,857.185 1060.88,837.237 1140.56,779.356 1148.48,769.593 1204.28,724.452 1209.58,719.109 1178.65,755.1 1226.9,711.703 1283.25,688.127 1260.07,707.239 1224.31,731.986 1243.71,699.941 1374.9,598.397 1433.99,565.232 1463.25,547.418 1280.7,696.835 1315.03,659.766 1260.06,691.944 1204.56,731.709 1234.86,698.866 1352.14,594.25 1353.52,626.692 1457.77,545.762 1498.79,503.28 1471.37,544.818 1379.92,628.675 1284.28,697.51 1291.55,673.526 1257.9,695.287 1213.26,730.368 1249.32,686.889 1209.92,719.619 1289.92,649.773 1260.76,685.529 1314.66,643.805 1391.49,603.565 1363.74,627.95 1329.87,641.164 1310.36,651.454 1209.79,708.662 1203.84,715.183 1234.96,698.251 1191.38,745.151 1181.83,756.314 1205.92,727.877 1255.65,709.618 1384.08,588.35 1304.08,657.639 1244.82,703.101 1220.76,732.697 1229.9,703.07 1260.72,674.449 1362.55,594.118 1295,660.42 1333.74,627.961 1175.24,747.278 1329.76,603.603 1350.59,607.379 1386.58,602.302 1435.12,581.864 1275.76,697.123 1234.39,723.23 1257.94,689.67 1222.94,719.671 1241.24,702.157 1186.67,744.768 1228.08,701.567 1162.73,746.969 1192.7,718.515 1177.18,731.63 1257.9,669.99 1235.22,706.052 1230.17,708.974 1252.68,697.089 1326.13,621.705 1269.12,683.239 1298.07,654.762 1358.47,605.406 1370.69,604.56 1357.21,631.155 1425.22,585.773 1429.6,561.214 1452.71,565.774 1448.96,571.2 1419.22,586.139 1372.79,634.902 1231.16,745.112 1214.48,741.196 1110.36,837.807 1123.13,799.453 1079.14,833.333 1111.17,794.596 1140.19,760.888 1147.62,757.878 1201.81,722.059 1232.39,690.094 1275.42,657.649 1266.15,683.389 1267.16,681.585 1204.96,738.256 1237.6,699.726 1165.06,771.721 1183.18,733.404 1211.99,708.849 1202.31,732.026 1122.86,806.458 1089.6,824.967 1146.41,764.852 1201.35,716.617 1127.26,789.836 1238.71,694.458 1307.37,630.029 1310.8,642.104 1383.22,582.4 1285.7,687.565 1174.79,787.754 1108.89,828.856 1116.7,803.635 1087.6,827.573 1100.1,809.028 1098.09,808.725 1116.94,786.403 1077.21,827.734 1115.86,789.181 1177.16,741.125 1206.6,706.699 1325.9,625.719 1302.08,656.31 1301.89,661.579 1297.61,667.961 1223.58,725.452 1221.58,717.77 1174.54,764.67 1175.19,747.086 1239.88,687.481 1289.89,654.132 1280.94,676.813 1199.59,750.811 1153,778.005 1104.68,820.689 1156.18,759.114 1037.92,871.1 1100.64,794.528 1131.14,776.873 1187.99,720.58 1209.9,713.389 1165.17,760.366 1162.61,759.065 1120.74,799.077 1103.39,808.764 1094.14,813.214 1038.25,867.729 961.357,938.256 966.586,920.862 955.722,920.69 1023.39,850.094 1001.62,870.042 926.918,945.899 991.764,892.371 980.761,907.291 976.179,909.018 908.697,980.537 845.141,1044.13 827.769,1053.03 807.631,1068.5 877.759,977.631 942.297,918.312 915.021,953.771 983.379,885.419 1026.4,845.557 1099.5,776.486 1110.26,792.654 1108.79,803.473 1123.08,789.801 1157.38,754.505 1122.51,783.498 1135.3,788.6 1217.82,710.521 1402.56,558.723 1367.68,601.744 1307.1,658.528 1252.1,705.28 1260.07,682.218 1256.64,690.158 1362.5,636.309 1298.71,675.711 1299.99,663.44 1172.83,767.444 1179.24,749.048 1255.39,680.934 1197.78,733.632 1086.52,835.924 1099.16,817.916 1106.47,803.756 1162.11,749.059 1074.08,814.222 1062.82,835.249 1167.23,730.16 1212.57,699.985 1291.09,644.926 1185.05,743.681 1186.78,737.035 1107.03,804.127 1137.78,773.029 1178.04,747.254 1106.67,807.538 1078.18,814.111 1119.31,774.94 1153.8,779.754 1199.82,730.055 1202.08,725.307 1216.81,704.039 1209.84,709.648 1168.05,763.258 1170.89,744.476 1137.43,775.349 1106.09,818.181 1131.32,778.228 1138.48,782.381 1097.95,814.043 1087.43,827.465 1185.25,731.779 1127.68,775.099 1073.02,812.875 1052.94,849.248 959.461,934.799 958.862,927.173 894.811,1000.61 873.581,1013.37 1011.25,850.726 977.542,893.118 932.974,947.633 942.309,936.55 905.52,967.033 898.698,971.331 826.522,1046.83 940.785,911.054 966.492,901.061 958.44,933.472 896.285,987.274 859.435,1017.57 809.827,1066.77 820.151,1048.74 758.494,1115.35 812.1,1048.59 852.334,1003.57 893.583,964.83 974.136,879.343 978.649,897.771 1024.35,853.149 1022.25,865.436 973.518,911.084 1023.23,853.137 1058.89,823.317 1083.64,802.061 1044.9,849.057 1040.45,842.634 1088.47,830.205 1177.08,733.154 1301.25,646.3 1328.61,630.586 1333.36,628.799 1259.46,703.595 1210.29,738.001 1198.21,742.808 1210.51,725.119 1154.56,764.717 1179.32,745.058 1177.65,758.391 1067.95,857.141 1050.86,857.345 1058.41,833.437 1062.23,831.435 1082.75,812.552 1088.1,811.289 1082.41,806.818 1044.38,857.615 1031.32,854.008 1032.53,849.345 981.104,884.436 853.313,1017.21 903.183,953.691 920.896,939.88 981.36,884.625 1008.64,866.131 1054.45,826.031 1079.84,806.411 1095.84,791.098 1075.73,812.485 984.954,882.562 909.114,961.229 988.916,901.141 940.789,939.195 894.671,990.869 871.225,999.398 893.524,978.658 928.559,959.904 933.752,941.421 960.892,916.526 948.928,930.19 981.496,887.09 1076.12,810.2 1059.05,833.191 1015.07,879.298 953.83,937.751 983.763,891.296 1108,778.508 1111.88,789.508 1156.66,754.834 1238.57,683.23 1187.1,748.674 1192.89,739.102 1291.27,645.557 1317.65,629.455 1215.69,712.873 1227.51,700.113 1303.23,661.79 1292.86,667.949 1345.16,617.254 1278.34,690.014 1246.75,701.297 1269.86,682.27 1270.71,685.436 1311.74,644.74 1401.73,562.546 1380.1,604.691 1425.22,584.536 1456.45,567.193 1427.41,589.829 1448.13,570.439 1376.79,627.592 1391.47,598.884 1380.32,607.722 1415.66,558.449 1250.46,699.698 1270.52,674.911 1222.06,722.578 1178.12,765.384 1134.94,798.006 1150.14,778.19 1037.72,869.201 1007.59,879.657 990.437,899.156 932.988,957.297 968.592,913.037 1011.86,860.716 1020.45,863.511 1055.81,824.188 1171.93,708.881 1150.2,757.973 1288.73,637.535 1233.38,708.09 1173.72,763.84 1265.42,674.669 1301.3,647.135 1315.71,656.053 1278.03,682.783 1184.54,741.499 1201.5,729.973 1160.25,773.16 1282.29,674.408 1198.95,747.616 1113.55,812.243 1031.63,881.467 1030.85,872.404 1077.15,815.974 999.248,899.558 969.75,909.26 1038.95,826.79 969.485,913.922 992.074,890.927 991.365,891.198 954.621,922.915 958.252,920.616 917.852,957.367 1003.05,867.677 989.936,897.7 1052.97,831.584 1065.92,828.927 1036.35,853.905 1022.38,871.144 1006.15,899.551 1047.98,846.364 1080.39,825.617 1208.51,709.042 1215.61,715.448 1242.58,693.06 1194.18,732.54 1179.6,736.247 1276.44,675.827 1284.57,669.298 1258.64,695.611 1275.83,690.504 1215.6,739.598 1148.9,777.87 1093.42,822.162 973.05,923.218 991.582,892.855 1059.47,835.135 979.227,910.523 994.489,902.408 945.483,935.973 889.176,985.988 863.517,1011.81 871.507,1000.53 843.996,1018.03 849.635,1016.76 914.598,946.647 895.079,972.856 853.805,1017.19 882.109,985.679 929.09,933.016 844.192,1028.06 804.716,1070.23 778.075,1094.53 768.613,1102.32 750.035,1118.73 746.49,1123.35 730.329,1137.55 789.074,1071.28 804.374,1053.22 780.817,1087.98 769.985,1102.9 739.382,1130.79 726.462,1147.28 697.059,1178.01 726.225,1136.14 726.821,1147.36 719.19,1158.33 778.871,1086.88 795.459,1068 808.642,1063.67 822.394,1043.39 810.757,1058.97 854.778,1000.84 945.95,917.1 1005.69,849.018 1084.63,786.474 1092.22,798.807 1120.38,783.644 1170.66,740.997 1124.34,785.899 1109.32,792.706 1114.71,784.469 1054.15,829.495 1010.76,863.95 1076.74,812.963 1063.47,832.525 1124.55,776.691 1090.27,798.366 1173.49,752.85 1168.07,758.378 1128.97,786.474 1141.46,776.439 1147.25,756.42 1158.72,753.667 1203.94,718.778 1187.14,740.945 1183.05,746.08 1093.99,796.214 1078.41,817.209 1043.48,855.556 1026.44,870.064 1063.46,821.181 1007.47,883.715 1047.63,837.401 999.815,876.768 1172.7,719.874 1107.45,803.112 1151.89,756.648 1162.31,756.052 1100.53,820.927 1075.45,832.701 1076.01,828.999 1126.42,780.027 1155.33,759.11 1178.35,734.78 1184.72,744.313 1103.93,818.738 1050.94,857.815 1083.98,811.888 1106.83,789.017 1170.35,732.629 1216.74,704.195 1287.82,653.747 1314.5,641.27 1273.31,673.728 1272.91,671.255 1230.2,713.22 1242.59,699.759 1213.62,759.11 1142.35,802.287 1090.2,832.023 1048.95,858.243 1035.07,865.302 1043.45,845.578 1018.49,873.226 1009.54,881.566 1042.43,843.593 1072.32,806.875 1058,820.824 1131.25,756.772 1115.06,790.547 1184.38,733.079 1225.46,714.646 1286.1,657.517 1116.02,800.742 1025.18,863.686 1107.95,785.393 993.059,891.916 1019.74,866.228 1084.41,810.2 1005.28,888.406 1036.22,870.142 1066.92,812.799 1042.42,858.432 1068.26,827.177 1063.9,840.936 1007.68,887.163 975.384,921.482 965.54,928.829 979.798,903.814 1012.52,860.429 1047.07,844.296 1094.2,794.342 1174.64,729.546 1070.34,820.348 1101.29,808.799 1091.84,817.324 1118.89,784.044 1063.39,832.246 995.902,886.161 932.898,949.348 891.916,980.773 948.589,931.664 972.348,898.161 922.859,955.249 866.472,1011.84 873.712,1001.99 940.506,925.283 926.689,950.381 922.478,955.35 944.097,933.424 1023.34,852.281 1039.91,864.711 1035.74,866.306 1015.19,876.801 1108.23,791.159 1123.12,784.34 1135.8,773.07 1146.75,756.653 1113.66,798.015 1182.64,752.615 1288.55,642.532 1300.67,661.723 1345.74,630.994 1360.01,621.319 1386.66,597.756 1493.73,499.824 1459.67,556.846 1311.62,665.113 1248.37,715.748 1179.68,764.704 1145.92,785.035 1096.97,819.23 1063.77,837.396 1094.54,807.481 1136.77,768.235 1086.54,817.313 1123.97,777.495 1072.98,819.264 1198.1,731.056 1274.79,679.594 1336.67,631.181 1283.66,682.198 1384.72,593.506 1191.79,751.653 1127.04,797.367 1087.21,827.137 987.501,932.036 958.675,941.405 931.88,951.034 938.695,932.309 1044.6,817.105 1088.55,802.534 1150.75,746.336 1240.26,678.156 1269.65,671.379 1238.78,712.484 1207.89,736.146 1257.25,697.898 1309.5,647.138 1322.79,658.813 1322.66,635.962 1382.98,589.699 1369.5,609.121 1324.29,637.672 1380.77,603.062 1322.08,653.384 1312.08,665.435 1213.63,754.205 1249.98,700.261 1243.4,693.657 1207.51,718.664 1175.23,764.684 1111.97,807.384 1040.77,863.14 1026.31,867.992 995.074,887.085 1023.17,847.805 1033.73,848.114 1036.85,847.823 1039.94,846.528 1133.78,780.225 1169.55,749.626 1183.97,753.467 1203.32,729.264 1205.74,738.265 1232.39,703.52 1267.13,671.149 1199.13,728.619 1239.29,703.434 1102.47,805.807 1048.1,856.118 995.53,904.79 1037.61,851.402 1050.14,849.057 1142.87,767.448 1118.53,796.011 983.152,911.993 935.14,951.828 931.528,948.741 926.66,956.201 932.862,948.014 932.802,954.156 941.959,939.471 884.993,987.608 924.726,948.314 969.054,906.645 976.433,895.939 935.643,933.115 879.859,997 871.649,1003.96 821.422,1051.11 870.632,996.015 969.504,890.836 1049.13,826.904 1051.01,837.549 989.934,891.222 1064.03,831.205 1061.31,822.105 976.783,900.693 987.222,893.626 1010.5,874.792 988.422,887.445 1003.84,881.74 978.661,904.093 971.707,906.668 986.46,893.217 999.927,882.184 1108.8,785.375 1151.06,753.784 1128.04,789.104 1129.46,770.625 1172.74,746.167 1229.35,697.76 1359.6,583.589 1529.89,460.766 1578.67,465.885 1457.44,579.59 1492.04,545.571 1440.78,577.894 1374.88,635.621 1355.69,622.683 1363.78,619.105 1363.17,615.647 1400.34,590.821 1302.9,679.453 1255.72,711.826 1206.58,744.59 1177.88,757.284 1163.19,773.17 1226.47,700.025 1166.21,765.135 1074.41,835.314 1052.72,844.571 1048.31,846.577 1058.66,838.145 1122.92,771.458 1016.51,872.605 980.098,902.239 927.271,953.042 1006.52,869.321 1021.01,858.188 1046.07,838.253 1038.76,851.45 1057.4,852.372 1120.24,781.558 1067.66,839.495 1082.66,836.975 1062.48,838.091 1017.98,872.953 1010.25,859.343 1011.74,878.639 1070.64,814.305 1024.09,879.117 929.234,964.184 867.861,1017.31 924.215,947.525 893.237,976.461 945.039,919.761 845.293,1034.66 807.256,1070.29 792.057,1081.67 849.491,1001.37 829.865,1030.14 835.502,1032.18 902.239,951.896 927.911,933.074 964.163,895.727 1028.4,832.341 1108.87,778.524 1126.73,780.172 1016.45,891.493 1030.13,857.782 966.431,918.926 993.913,892.062 1033.81,845.293 1109.83,782.263 1061.13,843.231 1035.28,862.697 1041.45,845.465 1143.7,736.921 1173.86,735.108 1180.33,731.831 1177.28,747.761 1168.94,749.941 1296.47,638.656 1305.67,646.558 1350.42,614.366 1305.2,662.747 1149.11,787.029 1117.27,802.372 1066.66,841.406 1067.45,833.372 971.751,934.397 1028.98,855.665 972.032,917.835 877.783,1005.3 904.57,963.943 915.206,963.397 941.023,935.007 968.019,900.127 951.232,922.482 905.466,972.589 878.743,996.782 921.53,952.942 877.386,994.994 874.038,990.149 919.826,943.65 881.28,989.778 919.206,945.024 986.378,887.438 1005.58,871.94 1128.68,753.668 1264.16,643.682 1406.77,548.097 1527.36,477.315 1581,453.983 1549.47,513.925 1525.52,542.849 1529.48,528.793 1509.81,548.001 1452.83,584.069 1462.65,564.492 1367.97,640.677 1424.89,581.138 1378.09,610.356 1339.47,643.886 1387.54,596.464 1408.74,589.013 1424.39,568.335 1370.95,621.121 1369.16,606.7 1487.74,517.421 1711.25,361.895 1579.68,501.01 1615.33,462.544 1618.48,461.273 1618.27,451.485 1553.33,506.033 1545.6,510.202 1491.4,555.191 1433.78,593.994 1347.49,656.123 1271.52,711.065 1209.4,752.761 1153.82,789.042 1130.51,798.708 1113.47,804.168 1138.79,768.598 1133.93,769.709 1155.85,750.924 1042.98,861.526 1038.36,857.076 1138.91,744.548 1183.7,727.663 1164.13,754.305 1132,780.596 1119.13,791.984 1124.21,787.9 1129.71,788.488 1103.22,808.866 1050.89,847.925 1054.09,835.251 1046.24,834.597 1006.74,875.341 1020.34,852.23 1066.77,830.282 1059.02,828.231 1046.84,852.664 1072.14,820.024 1106.67,787.163 1101.1,805.573 1158.4,760.895 1118.72,806.12 1082.46,847.531 1138.29,785.163 992.026,911.097 933.932,962.78 911.989,968.81 889.781,996.902 911.35,968.277 883.761,984.625 811.869,1065.45 848.832,1018.77 798.794,1069.37 799.016,1064.09 801.323,1062.53 806.791,1056.66 858.407,996.884 855.244,1010.71 838.092,1032.54 779.802,1097.71 798.792,1076.88 819.004,1047.7 840.942,1025.94 869.513,995.973 897.592,960.206 877.551,990.856 845.588,1028.08 814.061,1057.05 852.265,1008.26 877.973,987.968 888.781,977.431 915.335,946.867 950.857,914.348 1002.74,868.641 993.33,880.556 987.653,886.991 988.557,891.328 997.331,882.019 965.163,910.323 933.126,944.133 977.169,886.924 1034.86,845.851 1068.83,823.429 1018.06,875 1032.06,854.938 1044.94,857.356 1057.75,852.239 997.395,909.814 1062.71,851.666 1024.71,873.04 1092.85,804.59 1051.05,847.449 1138.31,775.811 1210.66,728.764 1196.23,735.624 1266.85,675.175 1239.78,702.313 1238.87,704.914 1403.48,581.392 1250.37,707.315 1278.32,663.328 1293.66,669.155 1384.26,598.403 1557.57,486.872 1437.64,572.564 1327.91,657.632 1352.83,643.042 1291.85,672.206 1257.03,693.315 1261.03,694.517 1401.32,567.868 1465.98,535.302 1507.5,509.252 1487.82,540.961 1573.74,481.014 1502.79,540.785 1502.72,548.718 1425.29,596.98 1354.66,654.101 1285.96,699.667 1210.87,750.832 1258.57,687.632 1230.48,711.283 1196.02,735.995 1254.99,669.74 1343.31,602.481 1341.13,617.419 1342.88,621.23 1186.12,759.453 1181.09,749.927 1185.35,750.03 1110.26,812.285 1093.44,820.784 1088.97,819.467 1136.5,768.667 1184,710.128 1147.67,765.581 1105.15,808.764 1104.9,804.883 1090.88,816.871 1083.88,821.175 1106.57,795.13 1214.87,696.165 1232.29,692.128 1287.46,643.333 1341.9,612.545 1361.82,612.669 1368.55,611.105 1367.62,612.715 1373.01,624.097 1296.91,669.984 1246.95,705.821 1242.24,707.386 1235.8,704.135 1105.22,822.726 1112.79,812.189 1144.76,783.864 1153.93,757.661 1244.04,680.056 1177.04,750.003 1202.25,737.456 1237.18,703.877 1336.3,611.104 1337.57,618.626 1347.99,629.296 1346.5,640.696 1193.89,755.491 1228.06,704.587 1352.9,585.71 1256.99,691.451 1255.26,684.324 1226.55,707.93 1212.94,713.862 1085.34,821.804 1091.53,816.995 1129.66,781.654 1068.87,824.087 958.087,933.401 906.655,979.444 927.907,950.166 903.797,975.219 925.468,944.464 1005.22,879.016 1075.96,802.421 1120.41,778.314 1141.16,771.647 1158.05,774.22 1205.29,723.973 1339.95,620.647 1404.52,575.541 1366.35,625.757 1267.36,701.675 1270.42,687.725 1284.54,666.128 1287.16,678.717 1232.97,710.268 1268.57,663.287 1330.55,612.519 1419.45,556.864 1370.49,623.678 1317.76,655.52 1223.9,735.526 1214.95,732.12 1190.38,749.477 1260.37,669.709 1148.97,765.707 1173.16,748.209 1172.43,751.55 1143.71,756.78 1086.41,814.816 1107.77,798.564 1141.58,765.613 "/>
<path clip-path="url(#clip200)" d="M186.863 198.898 L550.897 198.898 L550.897 95.2176 L186.863 95.2176  Z" fill="#ffffff" fill-rule="evenodd" fill-opacity="1"/>
<polyline clip-path="url(#clip200)" style="stroke:#000000; stroke-linecap:round; stroke-linejoin:round; stroke-width:4; stroke-opacity:1; fill:none" points="186.863,198.898 550.897,198.898 550.897,95.2176 186.863,95.2176 186.863,198.898 "/>
<polyline clip-path="url(#clip200)" style="stroke:#009af9; stroke-linecap:round; stroke-linejoin:round; stroke-width:4; stroke-opacity:1; fill:none" points="211.758,147.058 361.13,147.058 "/>
<path clip-path="url(#clip200)" d="M396.651 128.366 Q393.549 133.69 392.044 138.898 Q390.54 144.106 390.54 149.453 Q390.54 154.801 392.044 160.055 Q393.572 165.287 396.651 170.588 L392.947 170.588 Q389.475 165.148 387.739 159.893 Q386.026 154.639 386.026 149.453 Q386.026 144.291 387.739 139.06 Q389.452 133.828 392.947 128.366 L396.651 128.366 Z" fill="#000000" fill-rule="nonzero" fill-opacity="1" /><path clip-path="url(#clip200)" d="M403.063 138.412 L423.294 138.412 L423.294 142.301 L407.276 160.935 L423.294 160.935 L423.294 164.338 L402.484 164.338 L402.484 160.449 L418.502 141.815 L403.063 141.815 L403.063 138.412 Z" fill="#000000" fill-rule="nonzero" fill-opacity="1" /><path clip-path="url(#clip200)" d="M430.887 158.458 L435.771 158.458 L435.771 162.439 L431.975 169.847 L428.988 169.847 L430.887 162.439 L430.887 158.458 Z" fill="#000000" fill-rule="nonzero" fill-opacity="1" /><path clip-path="url(#clip200)" d="M455.655 166.745 Q453.849 171.375 452.136 172.787 Q450.423 174.199 447.553 174.199 L444.15 174.199 L444.15 170.634 L446.65 170.634 Q448.41 170.634 449.382 169.8 Q450.354 168.967 451.535 165.865 L452.298 163.921 L441.812 138.412 L446.326 138.412 L454.428 158.689 L462.53 138.412 L467.044 138.412 L455.655 166.745 Z" fill="#000000" fill-rule="nonzero" fill-opacity="1" /><path clip-path="url(#clip200)" d="M474.011 158.458 L478.896 158.458 L478.896 162.439 L475.099 169.847 L472.113 169.847 L474.011 162.439 L474.011 158.458 Z" fill="#000000" fill-rule="nonzero" fill-opacity="1" /><path clip-path="url(#clip200)" d="M509.544 138.412 L500.169 151.027 L510.03 164.338 L505.007 164.338 L497.46 154.152 L489.914 164.338 L484.891 164.338 L494.96 150.773 L485.747 138.412 L490.77 138.412 L497.645 147.648 L504.52 138.412 L509.544 138.412 Z" fill="#000000" fill-rule="nonzero" fill-opacity="1" /><path clip-path="url(#clip200)" d="M515.377 128.366 L519.081 128.366 Q522.553 133.828 524.266 139.06 Q526.002 144.291 526.002 149.453 Q526.002 154.639 524.266 159.893 Q522.553 165.148 519.081 170.588 L515.377 170.588 Q518.456 165.287 519.96 160.055 Q521.488 154.801 521.488 149.453 Q521.488 144.106 519.96 138.898 Q518.456 133.69 515.377 128.366 Z" fill="#000000" fill-rule="nonzero" fill-opacity="1" /></svg>
