<?xml version="1.0" encoding="utf-8"?>
<svg xmlns="http://www.w3.org/2000/svg" xmlns:xlink="http://www.w3.org/1999/xlink" width="600" height="400" viewBox="0 0 2400 1600">
<defs>
  <clipPath id="clip790">
    <rect x="0" y="0" width="2400" height="1600"/>
  </clipPath>
</defs>
<path clip-path="url(#clip790)" d="M0 1600 L2400 1600 L2400 0 L0 0  Z" fill="#ffffff" fill-rule="evenodd" fill-opacity="1"/>
<defs>
  <clipPath id="clip791">
    <rect x="480" y="0" width="1681" height="1600"/>
  </clipPath>
</defs>
<path clip-path="url(#clip790)" d="M194.422 1423.18 L2352.76 1423.18 L2352.76 47.2441 L194.422 47.2441  Z" fill="#ffffff" fill-rule="evenodd" fill-opacity="1"/>
<defs>
  <clipPath id="clip792">
    <rect x="194" y="47" width="2159" height="1377"/>
  </clipPath>
</defs>
<polyline clip-path="url(#clip792)" style="stroke:#000000; stroke-linecap:round; stroke-linejoin:round; stroke-width:2; stroke-opacity:0.1; fill:none" points="194.422,1423.18 194.422,47.2441 "/>
<polyline clip-path="url(#clip792)" style="stroke:#000000; stroke-linecap:round; stroke-linejoin:round; stroke-width:2; stroke-opacity:0.1; fill:none" points="626.089,1423.18 626.089,47.2441 "/>
<polyline clip-path="url(#clip792)" style="stroke:#000000; stroke-linecap:round; stroke-linejoin:round; stroke-width:2; stroke-opacity:0.1; fill:none" points="1057.76,1423.18 1057.76,47.2441 "/>
<polyline clip-path="url(#clip792)" style="stroke:#000000; stroke-linecap:round; stroke-linejoin:round; stroke-width:2; stroke-opacity:0.1; fill:none" points="1489.42,1423.18 1489.42,47.2441 "/>
<polyline clip-path="url(#clip792)" style="stroke:#000000; stroke-linecap:round; stroke-linejoin:round; stroke-width:2; stroke-opacity:0.1; fill:none" points="1921.09,1423.18 1921.09,47.2441 "/>
<polyline clip-path="url(#clip792)" style="stroke:#000000; stroke-linecap:round; stroke-linejoin:round; stroke-width:2; stroke-opacity:0.1; fill:none" points="2352.76,1423.18 2352.76,47.2441 "/>
<polyline clip-path="url(#clip792)" style="stroke:#000000; stroke-linecap:round; stroke-linejoin:round; stroke-width:2; stroke-opacity:0.1; fill:none" points="194.422,1286.48 2352.76,1286.48 "/>
<polyline clip-path="url(#clip792)" style="stroke:#000000; stroke-linecap:round; stroke-linejoin:round; stroke-width:2; stroke-opacity:0.1; fill:none" points="194.422,1107.57 2352.76,1107.57 "/>
<polyline clip-path="url(#clip792)" style="stroke:#000000; stroke-linecap:round; stroke-linejoin:round; stroke-width:2; stroke-opacity:0.1; fill:none" points="194.422,928.664 2352.76,928.664 "/>
<polyline clip-path="url(#clip792)" style="stroke:#000000; stroke-linecap:round; stroke-linejoin:round; stroke-width:2; stroke-opacity:0.1; fill:none" points="194.422,749.754 2352.76,749.754 "/>
<polyline clip-path="url(#clip792)" style="stroke:#000000; stroke-linecap:round; stroke-linejoin:round; stroke-width:2; stroke-opacity:0.1; fill:none" points="194.422,570.844 2352.76,570.844 "/>
<polyline clip-path="url(#clip792)" style="stroke:#000000; stroke-linecap:round; stroke-linejoin:round; stroke-width:2; stroke-opacity:0.1; fill:none" points="194.422,391.934 2352.76,391.934 "/>
<polyline clip-path="url(#clip792)" style="stroke:#000000; stroke-linecap:round; stroke-linejoin:round; stroke-width:2; stroke-opacity:0.1; fill:none" points="194.422,213.024 2352.76,213.024 "/>
<polyline clip-path="url(#clip790)" style="stroke:#000000; stroke-linecap:round; stroke-linejoin:round; stroke-width:4; stroke-opacity:1; fill:none" points="194.422,1423.18 2352.76,1423.18 "/>
<polyline clip-path="url(#clip790)" style="stroke:#000000; stroke-linecap:round; stroke-linejoin:round; stroke-width:4; stroke-opacity:1; fill:none" points="194.422,1423.18 194.422,1404.28 "/>
<polyline clip-path="url(#clip790)" style="stroke:#000000; stroke-linecap:round; stroke-linejoin:round; stroke-width:4; stroke-opacity:1; fill:none" points="626.089,1423.18 626.089,1404.28 "/>
<polyline clip-path="url(#clip790)" style="stroke:#000000; stroke-linecap:round; stroke-linejoin:round; stroke-width:4; stroke-opacity:1; fill:none" points="1057.76,1423.18 1057.76,1404.28 "/>
<polyline clip-path="url(#clip790)" style="stroke:#000000; stroke-linecap:round; stroke-linejoin:round; stroke-width:4; stroke-opacity:1; fill:none" points="1489.42,1423.18 1489.42,1404.28 "/>
<polyline clip-path="url(#clip790)" style="stroke:#000000; stroke-linecap:round; stroke-linejoin:round; stroke-width:4; stroke-opacity:1; fill:none" points="1921.09,1423.18 1921.09,1404.28 "/>
<polyline clip-path="url(#clip790)" style="stroke:#000000; stroke-linecap:round; stroke-linejoin:round; stroke-width:4; stroke-opacity:1; fill:none" points="2352.76,1423.18 2352.76,1404.28 "/>
<path clip-path="url(#clip790)" d="M194.422 1454.1 Q190.811 1454.1 188.982 1457.66 Q187.177 1461.2 187.177 1468.33 Q187.177 1475.44 188.982 1479.01 Q190.811 1482.55 194.422 1482.55 Q198.056 1482.55 199.862 1479.01 Q201.691 1475.44 201.691 1468.33 Q201.691 1461.2 199.862 1457.66 Q198.056 1454.1 194.422 1454.1 M194.422 1450.39 Q200.232 1450.39 203.288 1455 Q206.366 1459.58 206.366 1468.33 Q206.366 1477.06 203.288 1481.67 Q200.232 1486.25 194.422 1486.25 Q188.612 1486.25 185.533 1481.67 Q182.478 1477.06 182.478 1468.33 Q182.478 1459.58 185.533 1455 Q188.612 1450.39 194.422 1450.39 Z" fill="#000000" fill-rule="nonzero" fill-opacity="1" /><path clip-path="url(#clip790)" d="M620.742 1481.64 L637.061 1481.64 L637.061 1485.58 L615.117 1485.58 L615.117 1481.64 Q617.779 1478.89 622.362 1474.26 Q626.968 1469.61 628.149 1468.27 Q630.394 1465.74 631.274 1464.01 Q632.177 1462.25 632.177 1460.56 Q632.177 1457.8 630.232 1456.07 Q628.311 1454.33 625.209 1454.33 Q623.01 1454.33 620.556 1455.09 Q618.126 1455.86 615.348 1457.41 L615.348 1452.69 Q618.172 1451.55 620.626 1450.97 Q623.08 1450.39 625.117 1450.39 Q630.487 1450.39 633.681 1453.08 Q636.876 1455.77 636.876 1460.26 Q636.876 1462.39 636.066 1464.31 Q635.279 1466.2 633.172 1468.8 Q632.593 1469.47 629.492 1472.69 Q626.39 1475.88 620.742 1481.64 Z" fill="#000000" fill-rule="nonzero" fill-opacity="1" /><path clip-path="url(#clip790)" d="M1060.76 1455.09 L1048.96 1473.54 L1060.76 1473.54 L1060.76 1455.09 M1059.54 1451.02 L1065.42 1451.02 L1065.42 1473.54 L1070.35 1473.54 L1070.35 1477.43 L1065.42 1477.43 L1065.42 1485.58 L1060.76 1485.58 L1060.76 1477.43 L1045.16 1477.43 L1045.16 1472.92 L1059.54 1451.02 Z" fill="#000000" fill-rule="nonzero" fill-opacity="1" /><path clip-path="url(#clip790)" d="M1489.83 1466.44 Q1486.68 1466.44 1484.83 1468.59 Q1483 1470.74 1483 1474.49 Q1483 1478.22 1484.83 1480.39 Q1486.68 1482.55 1489.83 1482.55 Q1492.98 1482.55 1494.8 1480.39 Q1496.66 1478.22 1496.66 1474.49 Q1496.66 1470.74 1494.8 1468.59 Q1492.98 1466.44 1489.83 1466.44 M1499.11 1451.78 L1499.11 1456.04 Q1497.35 1455.21 1495.55 1454.77 Q1493.76 1454.33 1492 1454.33 Q1487.37 1454.33 1484.92 1457.45 Q1482.49 1460.58 1482.14 1466.9 Q1483.51 1464.89 1485.57 1463.82 Q1487.63 1462.73 1490.11 1462.73 Q1495.31 1462.73 1498.32 1465.9 Q1501.36 1469.05 1501.36 1474.49 Q1501.36 1479.82 1498.21 1483.03 Q1495.06 1486.25 1489.83 1486.25 Q1483.83 1486.25 1480.66 1481.67 Q1477.49 1477.06 1477.49 1468.33 Q1477.49 1460.14 1481.38 1455.28 Q1485.27 1450.39 1491.82 1450.39 Q1493.58 1450.39 1495.36 1450.74 Q1497.17 1451.09 1499.11 1451.78 Z" fill="#000000" fill-rule="nonzero" fill-opacity="1" /><path clip-path="url(#clip790)" d="M1921.09 1469.17 Q1917.76 1469.17 1915.83 1470.95 Q1913.94 1472.73 1913.94 1475.86 Q1913.94 1478.98 1915.83 1480.77 Q1917.76 1482.55 1921.09 1482.55 Q1924.42 1482.55 1926.34 1480.77 Q1928.27 1478.96 1928.27 1475.86 Q1928.27 1472.73 1926.34 1470.95 Q1924.45 1469.17 1921.09 1469.17 M1916.41 1467.18 Q1913.4 1466.44 1911.71 1464.38 Q1910.05 1462.32 1910.05 1459.35 Q1910.05 1455.21 1912.99 1452.8 Q1915.95 1450.39 1921.09 1450.39 Q1926.25 1450.39 1929.19 1452.8 Q1932.13 1455.21 1932.13 1459.35 Q1932.13 1462.32 1930.44 1464.38 Q1928.77 1466.44 1925.79 1467.18 Q1929.17 1467.96 1931.04 1470.26 Q1932.94 1472.55 1932.94 1475.86 Q1932.94 1480.88 1929.86 1483.57 Q1926.81 1486.25 1921.09 1486.25 Q1915.37 1486.25 1912.29 1483.57 Q1909.24 1480.88 1909.24 1475.86 Q1909.24 1472.55 1911.14 1470.26 Q1913.03 1467.96 1916.41 1467.18 M1914.7 1459.79 Q1914.7 1462.48 1916.37 1463.98 Q1918.06 1465.49 1921.09 1465.49 Q1924.1 1465.49 1925.79 1463.98 Q1927.5 1462.48 1927.5 1459.79 Q1927.5 1457.11 1925.79 1455.6 Q1924.1 1454.1 1921.09 1454.1 Q1918.06 1454.1 1916.37 1455.6 Q1914.7 1457.11 1914.7 1459.79 Z" fill="#000000" fill-rule="nonzero" fill-opacity="1" /><path clip-path="url(#clip790)" d="M2327.44 1481.64 L2335.08 1481.64 L2335.08 1455.28 L2326.77 1456.95 L2326.77 1452.69 L2335.04 1451.02 L2339.71 1451.02 L2339.71 1481.64 L2347.35 1481.64 L2347.35 1485.58 L2327.44 1485.58 L2327.44 1481.64 Z" fill="#000000" fill-rule="nonzero" fill-opacity="1" /><path clip-path="url(#clip790)" d="M2366.8 1454.1 Q2363.18 1454.1 2361.36 1457.66 Q2359.55 1461.2 2359.55 1468.33 Q2359.55 1475.44 2361.36 1479.01 Q2363.18 1482.55 2366.8 1482.55 Q2370.43 1482.55 2372.23 1479.01 Q2374.06 1475.44 2374.06 1468.33 Q2374.06 1461.2 2372.23 1457.66 Q2370.43 1454.1 2366.8 1454.1 M2366.8 1450.39 Q2372.61 1450.39 2375.66 1455 Q2378.74 1459.58 2378.74 1468.33 Q2378.74 1477.06 2375.66 1481.67 Q2372.61 1486.25 2366.8 1486.25 Q2360.99 1486.25 2357.91 1481.67 Q2354.85 1477.06 2354.85 1468.33 Q2354.85 1459.58 2357.91 1455 Q2360.99 1450.39 2366.8 1450.39 Z" fill="#000000" fill-rule="nonzero" fill-opacity="1" /><path clip-path="url(#clip790)" d="M1272.65 1522.27 L1272.65 1532.4 L1284.71 1532.4 L1284.71 1536.95 L1272.65 1536.95 L1272.65 1556.3 Q1272.65 1560.66 1273.83 1561.9 Q1275.04 1563.14 1278.7 1563.14 L1284.71 1563.14 L1284.71 1568.04 L1278.7 1568.04 Q1271.92 1568.04 1269.34 1565.53 Q1266.76 1562.98 1266.76 1556.3 L1266.76 1536.95 L1262.46 1536.95 L1262.46 1532.4 L1266.76 1532.4 L1266.76 1522.27 L1272.65 1522.27 Z" fill="#000000" fill-rule="nonzero" fill-opacity="1" /><polyline clip-path="url(#clip790)" style="stroke:#000000; stroke-linecap:round; stroke-linejoin:round; stroke-width:4; stroke-opacity:1; fill:none" points="194.422,1423.18 194.422,47.2441 "/>
<polyline clip-path="url(#clip790)" style="stroke:#000000; stroke-linecap:round; stroke-linejoin:round; stroke-width:4; stroke-opacity:1; fill:none" points="194.422,1286.48 213.32,1286.48 "/>
<polyline clip-path="url(#clip790)" style="stroke:#000000; stroke-linecap:round; stroke-linejoin:round; stroke-width:4; stroke-opacity:1; fill:none" points="194.422,1107.57 213.32,1107.57 "/>
<polyline clip-path="url(#clip790)" style="stroke:#000000; stroke-linecap:round; stroke-linejoin:round; stroke-width:4; stroke-opacity:1; fill:none" points="194.422,928.664 213.32,928.664 "/>
<polyline clip-path="url(#clip790)" style="stroke:#000000; stroke-linecap:round; stroke-linejoin:round; stroke-width:4; stroke-opacity:1; fill:none" points="194.422,749.754 213.32,749.754 "/>
<polyline clip-path="url(#clip790)" style="stroke:#000000; stroke-linecap:round; stroke-linejoin:round; stroke-width:4; stroke-opacity:1; fill:none" points="194.422,570.844 213.32,570.844 "/>
<polyline clip-path="url(#clip790)" style="stroke:#000000; stroke-linecap:round; stroke-linejoin:round; stroke-width:4; stroke-opacity:1; fill:none" points="194.422,391.934 213.32,391.934 "/>
<polyline clip-path="url(#clip790)" style="stroke:#000000; stroke-linecap:round; stroke-linejoin:round; stroke-width:4; stroke-opacity:1; fill:none" points="194.422,213.024 213.32,213.024 "/>
<path clip-path="url(#clip790)" d="M51.4782 1286.94 L81.154 1286.94 L81.154 1290.87 L51.4782 1290.87 L51.4782 1286.94 Z" fill="#000000" fill-rule="nonzero" fill-opacity="1" /><path clip-path="url(#clip790)" d="M92.0567 1299.83 L99.6956 1299.83 L99.6956 1273.46 L91.3854 1275.13 L91.3854 1270.87 L99.6493 1269.2 L104.325 1269.2 L104.325 1299.83 L111.964 1299.83 L111.964 1303.76 L92.0567 1303.76 L92.0567 1299.83 Z" fill="#000000" fill-rule="nonzero" fill-opacity="1" /><path clip-path="url(#clip790)" d="M121.408 1297.88 L126.293 1297.88 L126.293 1303.76 L121.408 1303.76 L121.408 1297.88 Z" fill="#000000" fill-rule="nonzero" fill-opacity="1" /><path clip-path="url(#clip790)" d="M146.478 1272.28 Q142.867 1272.28 141.038 1275.85 Q139.232 1279.39 139.232 1286.52 Q139.232 1293.62 141.038 1297.19 Q142.867 1300.73 146.478 1300.73 Q150.112 1300.73 151.918 1297.19 Q153.746 1293.62 153.746 1286.52 Q153.746 1279.39 151.918 1275.85 Q150.112 1272.28 146.478 1272.28 M146.478 1268.58 Q152.288 1268.58 155.343 1273.19 Q158.422 1277.77 158.422 1286.52 Q158.422 1295.25 155.343 1299.85 Q152.288 1304.44 146.478 1304.44 Q140.668 1304.44 137.589 1299.85 Q134.533 1295.25 134.533 1286.52 Q134.533 1277.77 137.589 1273.19 Q140.668 1268.58 146.478 1268.58 Z" fill="#000000" fill-rule="nonzero" fill-opacity="1" /><path clip-path="url(#clip790)" d="M51.5708 1108.03 L81.2466 1108.03 L81.2466 1111.96 L51.5708 1111.96 L51.5708 1108.03 Z" fill="#000000" fill-rule="nonzero" fill-opacity="1" /><path clip-path="url(#clip790)" d="M101.339 1093.37 Q97.728 1093.37 95.8993 1096.94 Q94.0937 1100.48 94.0937 1107.61 Q94.0937 1114.72 95.8993 1118.28 Q97.728 1121.82 101.339 1121.82 Q104.973 1121.82 106.779 1118.28 Q108.608 1114.72 108.608 1107.61 Q108.608 1100.48 106.779 1096.94 Q104.973 1093.37 101.339 1093.37 M101.339 1089.67 Q107.149 1089.67 110.205 1094.28 Q113.283 1098.86 113.283 1107.61 Q113.283 1116.34 110.205 1120.94 Q107.149 1125.53 101.339 1125.53 Q95.5289 1125.53 92.4502 1120.94 Q89.3947 1116.34 89.3947 1107.61 Q89.3947 1098.86 92.4502 1094.28 Q95.5289 1089.67 101.339 1089.67 Z" fill="#000000" fill-rule="nonzero" fill-opacity="1" /><path clip-path="url(#clip790)" d="M121.501 1118.97 L126.385 1118.97 L126.385 1124.85 L121.501 1124.85 L121.501 1118.97 Z" fill="#000000" fill-rule="nonzero" fill-opacity="1" /><path clip-path="url(#clip790)" d="M146.57 1108.44 Q143.237 1108.44 141.316 1110.22 Q139.418 1112.01 139.418 1115.13 Q139.418 1118.26 141.316 1120.04 Q143.237 1121.82 146.57 1121.82 Q149.904 1121.82 151.825 1120.04 Q153.746 1118.23 153.746 1115.13 Q153.746 1112.01 151.825 1110.22 Q149.927 1108.44 146.57 1108.44 M141.894 1106.45 Q138.885 1105.71 137.195 1103.65 Q135.529 1101.59 135.529 1098.63 Q135.529 1094.48 138.469 1092.08 Q141.431 1089.67 146.57 1089.67 Q151.732 1089.67 154.672 1092.08 Q157.612 1094.48 157.612 1098.63 Q157.612 1101.59 155.922 1103.65 Q154.255 1105.71 151.269 1106.45 Q154.649 1107.24 156.524 1109.53 Q158.422 1111.82 158.422 1115.13 Q158.422 1120.15 155.343 1122.84 Q152.288 1125.53 146.57 1125.53 Q140.853 1125.53 137.774 1122.84 Q134.719 1120.15 134.719 1115.13 Q134.719 1111.82 136.617 1109.53 Q138.515 1107.24 141.894 1106.45 M140.181 1099.07 Q140.181 1101.75 141.848 1103.26 Q143.538 1104.76 146.57 1104.76 Q149.58 1104.76 151.269 1103.26 Q152.982 1101.75 152.982 1099.07 Q152.982 1096.38 151.269 1094.88 Q149.58 1093.37 146.57 1093.37 Q143.538 1093.37 141.848 1094.88 Q140.181 1096.38 140.181 1099.07 Z" fill="#000000" fill-rule="nonzero" fill-opacity="1" /><path clip-path="url(#clip790)" d="M51.3162 929.115 L80.992 929.115 L80.992 933.05 L51.3162 933.05 L51.3162 929.115 Z" fill="#000000" fill-rule="nonzero" fill-opacity="1" /><path clip-path="url(#clip790)" d="M101.084 914.463 Q97.4734 914.463 95.6447 918.027 Q93.8391 921.569 93.8391 928.699 Q93.8391 935.805 95.6447 939.37 Q97.4734 942.911 101.084 942.911 Q104.719 942.911 106.524 939.37 Q108.353 935.805 108.353 928.699 Q108.353 921.569 106.524 918.027 Q104.719 914.463 101.084 914.463 M101.084 910.759 Q106.895 910.759 109.95 915.365 Q113.029 919.949 113.029 928.699 Q113.029 937.425 109.95 942.032 Q106.895 946.615 101.084 946.615 Q95.2743 946.615 92.1956 942.032 Q89.1401 937.425 89.1401 928.699 Q89.1401 919.949 92.1956 915.365 Q95.2743 910.759 101.084 910.759 Z" fill="#000000" fill-rule="nonzero" fill-opacity="1" /><path clip-path="url(#clip790)" d="M121.246 940.064 L126.131 940.064 L126.131 945.944 L121.246 945.944 L121.246 940.064 Z" fill="#000000" fill-rule="nonzero" fill-opacity="1" /><path clip-path="url(#clip790)" d="M146.894 926.8 Q143.746 926.8 141.894 928.953 Q140.066 931.106 140.066 934.856 Q140.066 938.583 141.894 940.759 Q143.746 942.911 146.894 942.911 Q150.043 942.911 151.871 940.759 Q153.723 938.583 153.723 934.856 Q153.723 931.106 151.871 928.953 Q150.043 926.8 146.894 926.8 M156.177 912.148 L156.177 916.407 Q154.417 915.574 152.612 915.134 Q150.83 914.694 149.07 914.694 Q144.441 914.694 141.987 917.819 Q139.556 920.944 139.209 927.263 Q140.575 925.25 142.635 924.185 Q144.695 923.097 147.172 923.097 Q152.38 923.097 155.39 926.268 Q158.422 929.416 158.422 934.856 Q158.422 940.18 155.274 943.398 Q152.126 946.615 146.894 946.615 Q140.899 946.615 137.728 942.032 Q134.556 937.425 134.556 928.699 Q134.556 920.504 138.445 915.643 Q142.334 910.759 148.885 910.759 Q150.644 910.759 152.427 911.106 Q154.232 911.453 156.177 912.148 Z" fill="#000000" fill-rule="nonzero" fill-opacity="1" /><path clip-path="url(#clip790)" d="M50.9921 750.205 L80.6679 750.205 L80.6679 754.14 L50.9921 754.14 L50.9921 750.205 Z" fill="#000000" fill-rule="nonzero" fill-opacity="1" /><path clip-path="url(#clip790)" d="M100.76 735.553 Q97.1493 735.553 95.3206 739.117 Q93.515 742.659 93.515 749.789 Q93.515 756.895 95.3206 760.46 Q97.1493 764.002 100.76 764.002 Q104.395 764.002 106.2 760.46 Q108.029 756.895 108.029 749.789 Q108.029 742.659 106.2 739.117 Q104.395 735.553 100.76 735.553 M100.76 731.849 Q106.571 731.849 109.626 736.455 Q112.705 741.039 112.705 749.789 Q112.705 758.515 109.626 763.122 Q106.571 767.705 100.76 767.705 Q94.9502 767.705 91.8715 763.122 Q88.816 758.515 88.816 749.789 Q88.816 741.039 91.8715 736.455 Q94.9502 731.849 100.76 731.849 Z" fill="#000000" fill-rule="nonzero" fill-opacity="1" /><path clip-path="url(#clip790)" d="M120.922 761.154 L125.807 761.154 L125.807 767.034 L120.922 767.034 L120.922 761.154 Z" fill="#000000" fill-rule="nonzero" fill-opacity="1" /><path clip-path="url(#clip790)" d="M148.839 736.548 L137.033 754.997 L148.839 754.997 L148.839 736.548 M147.612 732.474 L153.492 732.474 L153.492 754.997 L158.422 754.997 L158.422 758.886 L153.492 758.886 L153.492 767.034 L148.839 767.034 L148.839 758.886 L133.237 758.886 L133.237 754.372 L147.612 732.474 Z" fill="#000000" fill-rule="nonzero" fill-opacity="1" /><path clip-path="url(#clip790)" d="M53.0754 571.295 L82.7512 571.295 L82.7512 575.231 L53.0754 575.231 L53.0754 571.295 Z" fill="#000000" fill-rule="nonzero" fill-opacity="1" /><path clip-path="url(#clip790)" d="M102.844 556.643 Q99.2326 556.643 97.4039 560.207 Q95.5984 563.749 95.5984 570.879 Q95.5984 577.985 97.4039 581.55 Q99.2326 585.092 102.844 585.092 Q106.478 585.092 108.283 581.55 Q110.112 577.985 110.112 570.879 Q110.112 563.749 108.283 560.207 Q106.478 556.643 102.844 556.643 M102.844 552.939 Q108.654 552.939 111.709 557.545 Q114.788 562.129 114.788 570.879 Q114.788 579.605 111.709 584.212 Q108.654 588.795 102.844 588.795 Q97.0335 588.795 93.9549 584.212 Q90.8993 579.605 90.8993 570.879 Q90.8993 562.129 93.9549 557.545 Q97.0335 552.939 102.844 552.939 Z" fill="#000000" fill-rule="nonzero" fill-opacity="1" /><path clip-path="url(#clip790)" d="M123.006 582.244 L127.89 582.244 L127.89 588.124 L123.006 588.124 L123.006 582.244 Z" fill="#000000" fill-rule="nonzero" fill-opacity="1" /><path clip-path="url(#clip790)" d="M142.103 584.189 L158.422 584.189 L158.422 588.124 L136.478 588.124 L136.478 584.189 Q139.14 581.434 143.723 576.805 Q148.33 572.152 149.51 570.809 Q151.755 568.286 152.635 566.55 Q153.538 564.791 153.538 563.101 Q153.538 560.346 151.593 558.61 Q149.672 556.874 146.57 556.874 Q144.371 556.874 141.918 557.638 Q139.487 558.402 136.709 559.953 L136.709 555.231 Q139.533 554.096 141.987 553.518 Q144.441 552.939 146.478 552.939 Q151.848 552.939 155.042 555.624 Q158.237 558.309 158.237 562.8 Q158.237 564.93 157.427 566.851 Q156.64 568.749 154.533 571.342 Q153.955 572.013 150.853 575.231 Q147.751 578.425 142.103 584.189 Z" fill="#000000" fill-rule="nonzero" fill-opacity="1" /><path clip-path="url(#clip790)" d="M101.246 377.733 Q97.6354 377.733 95.8067 381.297 Q94.0012 384.839 94.0012 391.969 Q94.0012 399.075 95.8067 402.64 Q97.6354 406.182 101.246 406.182 Q104.881 406.182 106.686 402.64 Q108.515 399.075 108.515 391.969 Q108.515 384.839 106.686 381.297 Q104.881 377.733 101.246 377.733 M101.246 374.029 Q107.057 374.029 110.112 378.635 Q113.191 383.219 113.191 391.969 Q113.191 400.696 110.112 405.302 Q107.057 409.885 101.246 409.885 Q95.4363 409.885 92.3576 405.302 Q89.3021 400.696 89.3021 391.969 Q89.3021 383.219 92.3576 378.635 Q95.4363 374.029 101.246 374.029 Z" fill="#000000" fill-rule="nonzero" fill-opacity="1" /><path clip-path="url(#clip790)" d="M121.408 403.334 L126.293 403.334 L126.293 409.214 L121.408 409.214 L121.408 403.334 Z" fill="#000000" fill-rule="nonzero" fill-opacity="1" /><path clip-path="url(#clip790)" d="M146.478 377.733 Q142.867 377.733 141.038 381.297 Q139.232 384.839 139.232 391.969 Q139.232 399.075 141.038 402.64 Q142.867 406.182 146.478 406.182 Q150.112 406.182 151.918 402.64 Q153.746 399.075 153.746 391.969 Q153.746 384.839 151.918 381.297 Q150.112 377.733 146.478 377.733 M146.478 374.029 Q152.288 374.029 155.343 378.635 Q158.422 383.219 158.422 391.969 Q158.422 400.696 155.343 405.302 Q152.288 409.885 146.478 409.885 Q140.668 409.885 137.589 405.302 Q134.533 400.696 134.533 391.969 Q134.533 383.219 137.589 378.635 Q140.668 374.029 146.478 374.029 Z" fill="#000000" fill-rule="nonzero" fill-opacity="1" /><path clip-path="url(#clip790)" d="M102.844 198.823 Q99.2326 198.823 97.4039 202.388 Q95.5984 205.929 95.5984 213.059 Q95.5984 220.165 97.4039 223.73 Q99.2326 227.272 102.844 227.272 Q106.478 227.272 108.283 223.73 Q110.112 220.165 110.112 213.059 Q110.112 205.929 108.283 202.388 Q106.478 198.823 102.844 198.823 M102.844 195.119 Q108.654 195.119 111.709 199.725 Q114.788 204.309 114.788 213.059 Q114.788 221.786 111.709 226.392 Q108.654 230.975 102.844 230.975 Q97.0335 230.975 93.9549 226.392 Q90.8993 221.786 90.8993 213.059 Q90.8993 204.309 93.9549 199.725 Q97.0335 195.119 102.844 195.119 Z" fill="#000000" fill-rule="nonzero" fill-opacity="1" /><path clip-path="url(#clip790)" d="M123.006 224.424 L127.89 224.424 L127.89 230.304 L123.006 230.304 L123.006 224.424 Z" fill="#000000" fill-rule="nonzero" fill-opacity="1" /><path clip-path="url(#clip790)" d="M142.103 226.369 L158.422 226.369 L158.422 230.304 L136.478 230.304 L136.478 226.369 Q139.14 223.614 143.723 218.985 Q148.33 214.332 149.51 212.989 Q151.755 210.466 152.635 208.73 Q153.538 206.971 153.538 205.281 Q153.538 202.526 151.593 200.79 Q149.672 199.054 146.57 199.054 Q144.371 199.054 141.918 199.818 Q139.487 200.582 136.709 202.133 L136.709 197.411 Q139.533 196.276 141.987 195.698 Q144.441 195.119 146.478 195.119 Q151.848 195.119 155.042 197.804 Q158.237 200.489 158.237 204.98 Q158.237 207.11 157.427 209.031 Q156.64 210.929 154.533 213.522 Q153.955 214.193 150.853 217.411 Q147.751 220.605 142.103 226.369 Z" fill="#000000" fill-rule="nonzero" fill-opacity="1" /><polyline clip-path="url(#clip792)" style="stroke:#009af9; stroke-linecap:round; stroke-linejoin:round; stroke-width:4; stroke-opacity:1; fill:none" points="194.422,391.934 196.583,401.128 198.743,410.199 200.904,419.151 203.064,427.984 205.225,436.699 207.385,445.299 209.546,453.785 211.706,462.159 213.867,470.422 216.027,478.575 218.188,486.62 220.348,494.558 222.509,502.391 224.669,510.12 226.83,517.747 228.99,525.272 231.151,532.698 233.311,540.025 235.471,547.256 237.632,554.39 239.792,561.43 241.953,568.376 244.113,575.231 246.274,581.994 248.434,588.668 250.595,595.253 252.755,601.751 254.916,608.163 257.076,614.49 259.237,620.733 261.397,626.893 263.558,632.972 265.718,638.97 267.879,644.888 270.039,650.728 272.2,656.49 274.36,662.177 276.521,667.787 278.681,673.324 280.842,678.787 283.002,684.177 285.163,689.496 287.323,694.745 289.484,699.924 291.644,705.034 293.805,710.077 295.965,715.052 298.126,719.962 300.286,724.807 302.447,729.587 304.607,734.304 306.768,738.958 308.928,743.551 311.089,748.083 313.249,752.555 315.41,756.967 317.57,761.321 319.731,765.618 321.891,769.857 324.052,774.04 326.212,778.168 328.373,782.241 330.533,786.26 332.694,790.226 334.854,794.139 337.015,798 339.175,801.81 341.336,805.569 343.496,809.279 345.657,812.94 347.817,816.551 349.978,820.115 352.138,823.632 354.299,827.102 356.459,830.526 358.62,833.905 360.78,837.239 362.941,840.529 365.101,843.775 367.262,846.978 369.422,850.138 371.583,853.257 373.743,856.334 375.904,859.371 378.064,862.367 380.225,865.324 382.385,868.241 384.546,871.12 386.706,873.961 388.867,876.764 391.027,879.529 393.188,882.258 395.348,884.951 397.509,887.608 399.669,890.23 401.83,892.818 403.99,895.188 406.151,894.201 408.311,889.516 410.472,882.079 412.632,872.721 414.793,862.151 416.953,850.959 419.114,839.62 421.274,828.485 423.435,817.789 425.595,807.647 427.755,798.057 429.916,788.896 432.076,779.922 434.237,770.818 436.397,761.742 438.558,752.785 440.718,743.947 442.879,735.227 445.039,726.622 447.2,718.131 449.36,709.752 451.521,701.485 453.681,693.327 455.842,685.277 458.002,677.334 460.163,669.496 462.323,661.762 464.484,654.131 466.644,646.601 468.805,639.171 470.965,631.839 473.126,624.605 475.286,617.466 477.447,610.423 479.607,603.472 481.768,596.614 483.928,589.847 486.089,583.17 488.249,576.581 490.41,570.079 492.57,563.664 494.731,557.334 496.891,551.088 499.052,544.924 501.212,538.843 503.373,532.842 505.533,526.92 507.694,521.077 509.854,515.311 512.015,509.622 514.175,504.008 516.336,498.469 518.496,493.003 520.657,487.609 522.817,482.287 524.978,477.035 527.138,471.853 529.299,466.74 531.459,461.695 533.62,456.716 535.78,451.804 537.941,446.956 540.101,442.173 542.262,437.453 544.422,432.796 546.583,428.201 548.743,423.667 550.904,419.192 553.064,414.777 555.225,410.421 557.385,406.122 559.546,401.881 561.706,397.695 563.867,393.565 566.027,389.49 568.188,385.469 570.348,381.501 572.509,377.586 574.669,373.722 576.83,369.91 578.99,366.148 581.151,362.437 583.311,358.774 585.472,355.16 587.632,351.594 589.793,348.075 591.953,344.603 594.114,341.177 596.274,337.796 598.435,334.461 600.595,331.169 602.756,327.921 604.916,324.716 607.077,321.554 609.237,318.433 611.398,315.354 613.558,312.316 615.718,309.318 617.879,306.359 620.039,303.44 622.2,300.56 624.36,297.718 626.521,301.355 628.681,315.73 630.842,329.896 633.002,343.875 635.163,357.668 637.323,371.278 639.484,384.708 641.644,397.96 643.805,411.036 645.965,423.938 648.126,436.67 650.286,449.233 652.447,461.629 654.607,473.861 656.768,485.931 658.928,497.841 661.089,509.593 663.249,521.189 665.41,532.631 667.57,543.922 669.731,555.063 671.891,566.056 674.052,576.903 676.212,587.607 678.373,598.169 680.533,608.59 682.694,618.874 684.854,629.021 687.015,639.034 689.175,648.914 691.336,658.663 693.496,668.282 695.657,677.774 697.817,687.141 699.978,696.383 702.138,705.503 704.299,714.501 706.459,723.381 708.62,732.142 710.78,740.788 712.941,749.319 715.101,757.737 717.262,766.043 719.422,774.239 721.583,782.326 723.743,790.306 725.904,798.18 728.064,805.95 730.225,813.617 732.385,821.183 734.546,828.648 736.706,836.014 738.867,843.282 741.027,850.454 743.188,857.531 745.348,864.514 747.509,871.405 749.669,878.204 751.83,884.913 753.99,891.533 756.151,898.066 758.311,904.511 760.472,910.872 762.632,917.147 764.793,923.34 766.953,929.451 769.114,935.48 771.274,941.43 773.435,947.3 775.595,953.093 777.756,958.809 779.916,964.45 782.077,970.015 784.237,975.507 786.398,980.926 788.558,986.273 790.719,991.549 792.879,996.755 795.04,1001.89 797.2,1006.96 799.361,1011.96 801.521,1016.9 803.681,1021.77 805.842,1026.58 808.002,1031.32 810.163,1036 812.323,1040.61 814.484,1045.17 816.644,1049.66 818.805,1054.1 820.965,1058.48 823.126,1062.8 825.286,1067.06 827.447,1072.26 829.607,1079.1 831.768,1084.9 833.928,1087.7 836.089,1086.4 838.249,1080.78 840.41,1071.5 842.57,1060.06 844.731,1048.85 846.891,1038.45 849.052,1028.2 851.212,1018.08 853.373,1008.09 855.533,998.235 857.694,988.511 859.854,978.916 862.015,969.448 864.175,960.106 866.336,950.888 868.496,941.792 870.657,932.816 872.817,923.96 874.978,915.221 877.138,906.598 879.299,898.089 881.459,889.693 883.62,881.409 885.78,873.234 887.941,865.168 890.101,857.209 892.262,849.355 894.422,841.606 896.583,833.959 898.743,826.414 900.904,818.968 903.064,811.622 905.225,804.372 907.385,797.219 909.546,790.161 911.706,783.196 913.867,776.323 916.027,769.542 918.188,762.85 920.348,756.248 922.509,749.732 924.669,743.303 926.83,736.959 928.99,730.7 931.151,724.523 933.311,718.428 935.472,712.414 937.632,706.48 939.793,700.625 941.953,694.847 944.114,689.146 946.274,683.52 948.435,677.969 950.595,672.492 952.756,667.087 954.916,661.754 957.077,656.491 959.237,651.299 961.398,646.175 963.558,641.119 965.719,636.13 967.879,631.207 970.04,626.35 972.2,621.557 974.361,616.827 976.521,612.16 978.682,607.555 980.842,603.011 983.003,598.527 985.163,594.103 987.324,589.737 989.484,585.429 991.645,581.178 993.805,576.984 995.965,572.845 998.126,568.761 1000.29,564.731 1002.45,560.755 1004.61,556.831 1006.77,552.96 1008.93,549.14 1011.09,545.37 1013.25,541.651 1015.41,537.981 1017.57,534.36 1019.73,530.786 1021.89,527.26 1024.05,523.781 1026.21,520.348 1028.37,516.961 1030.53,513.618 1032.69,510.32 1034.85,507.065 1037.01,503.853 1039.18,500.685 1041.34,497.558 1043.5,494.472 1045.66,491.428 1047.82,488.423 1049.98,485.491 1052.14,483.588 1054.3,483.031 1056.46,483.655 1058.62,485.303 1060.78,487.829 1062.94,491.095 1065.1,494.972 1067.26,499.341 1069.42,504.093 1071.58,509.127 1073.74,514.352 1075.9,519.685 1078.06,525.055 1080.22,530.398 1082.39,535.66 1084.55,540.797 1086.71,545.772 1088.87,550.561 1091.03,555.145 1093.19,559.518 1095.35,563.682 1097.51,567.646 1099.67,571.433 1101.83,575.072 1103.99,578.601 1106.15,582.069 1108.31,585.533 1110.47,589.061 1112.63,592.672 1114.79,596.245 1116.95,599.771 1119.11,603.25 1121.27,606.682 1123.43,610.069 1125.6,613.412 1127.76,616.709 1129.92,619.964 1132.08,623.175 1134.24,626.343 1136.4,629.47 1138.56,632.555 1140.72,635.599 1142.88,638.602 1145.04,641.566 1147.2,644.491 1149.36,647.377 1151.52,650.224 1153.68,653.034 1155.84,655.807 1158,658.543 1160.16,661.243 1162.32,663.907 1164.48,666.536 1166.64,669.13 1168.81,671.69 1170.97,674.216 1173.13,676.708 1175.29,679.168 1177.45,681.595 1179.61,683.989 1181.77,686.352 1183.93,688.683 1186.09,690.984 1188.25,693.254 1190.41,695.493 1192.57,697.703 1194.73,699.884 1196.89,702.036 1199.05,704.159 1201.21,706.254 1203.37,708.321 1205.53,710.36 1207.69,712.373 1209.85,714.358 1212.01,716.317 1214.18,718.251 1216.34,720.158 1218.5,722.041 1220.66,723.898 1222.82,725.73 1224.98,727.539 1227.14,729.323 1229.3,731.083 1231.46,732.821 1233.62,734.535 1235.78,736.226 1237.94,737.896 1240.1,739.543 1242.26,741.168 1244.42,742.771 1246.58,744.354 1248.74,745.915 1250.9,747.456 1253.06,748.977 1255.22,750.477 1257.39,751.958 1259.55,753.241 1261.71,753.68 1263.87,753.329 1266.03,752.308 1268.19,750.727 1270.35,748.692 1272.51,746.296 1274.67,743.625 1276.83,740.758 1278.99,737.764 1281.15,734.704 1283.31,731.631 1285.47,728.587 1287.63,725.61 1289.79,722.726 1291.95,719.954 1294.11,717.303 1296.27,714.776 1298.43,712.366 1300.6,710.058 1302.76,707.827 1304.92,705.643 1307.08,703.463 1309.24,701.241 1311.4,699.01 1313.56,696.809 1315.72,694.637 1317.88,692.493 1320.04,690.379 1322.2,688.292 1324.36,686.233 1326.52,684.201 1328.68,682.196 1330.84,680.218 1333,678.266 1335.16,676.34 1337.32,674.439 1339.48,672.564 1341.64,670.713 1343.81,668.887 1345.97,667.085 1348.13,665.307 1350.29,663.552 1352.45,661.821 1354.61,660.112 1356.77,658.426 1358.93,656.763 1361.09,655.121 1363.25,653.501 1365.41,651.903 1367.57,650.325 1369.73,648.769 1371.89,647.233 1374.05,645.718 1376.21,644.223 1378.37,642.748 1380.53,641.292 1382.69,639.856 1384.85,638.438 1387.01,637.04 1389.18,635.66 1391.34,634.299 1393.5,632.956 1395.66,631.63 1397.82,630.322 1399.98,629.032 1402.14,627.759 1404.3,626.502 1406.46,625.263 1408.62,624.039 1410.78,622.833 1412.94,621.642 1415.1,620.467 1417.26,619.307 1419.42,618.163 1421.58,617.034 1423.74,615.921 1425.9,614.822 1428.06,613.737 1430.22,612.667 1432.39,611.611 1434.55,610.569 1436.71,609.541 1438.87,608.526 1441.03,607.525 1443.19,606.537 1445.35,605.562 1447.51,604.6 1449.67,603.651 1451.83,602.714 1453.99,601.79 1456.15,600.878 1458.31,599.977 1460.47,599.089 1462.63,598.213 1464.79,597.348 1466.95,596.495 1469.11,595.653 1471.27,594.822 1473.43,594.002 1475.6,593.193 1477.76,592.395 1479.92,591.607 1482.08,590.879 1484.24,591.347 1486.4,593.229 1488.56,596.206 1490.72,599.995 1492.88,604.346 1495.04,609.045 1497.2,613.911 1499.36,618.798 1501.52,623.596 1503.68,628.226 1505.84,632.648 1508,636.853 1510.16,640.867 1512.32,644.752 1514.48,648.604 1516.64,652.512 1518.81,656.387 1520.97,660.21 1523.13,663.983 1525.29,667.706 1527.45,671.379 1529.61,675.004 1531.77,678.58 1533.93,682.109 1536.09,685.592 1538.25,689.028 1540.41,692.419 1542.57,695.765 1544.73,699.066 1546.89,702.324 1549.05,705.539 1551.21,708.711 1553.37,711.84 1555.53,714.929 1557.69,717.976 1559.85,720.983 1562.01,723.95 1564.18,726.877 1566.34,729.766 1568.5,732.617 1570.66,735.429 1572.82,738.205 1574.98,740.943 1577.14,743.645 1579.3,746.312 1581.46,748.942 1583.62,751.539 1585.78,754.1 1587.94,756.628 1590.1,759.122 1592.26,761.583 1594.42,764.012 1596.58,766.408 1598.74,768.772 1600.9,771.106 1603.06,773.408 1605.22,775.68 1607.39,777.922 1609.55,780.134 1611.71,782.316 1613.87,784.47 1616.03,786.595 1618.19,788.693 1620.35,790.762 1622.51,792.804 1624.67,794.818 1626.83,796.807 1628.99,798.768 1631.15,800.704 1633.31,802.614 1635.47,804.499 1637.63,806.358 1639.79,808.193 1641.95,810.004 1644.11,811.791 1646.27,813.554 1648.43,815.293 1650.6,817.01 1652.76,818.703 1654.92,820.375 1657.08,822.024 1659.24,823.651 1661.4,825.257 1663.56,826.841 1665.72,828.405 1667.88,829.948 1670.04,831.47 1672.2,832.972 1674.36,834.455 1676.52,835.959 1678.68,837.5 1680.84,839.073 1683,840.674 1685.16,842.299 1687.32,843.945 1689.48,845.607 1691.64,847.282 1693.81,848.967 1695.97,850.658 1698.13,852.353 1700.29,854.048 1702.45,855.741 1704.61,857.43 1706.77,859.111 1708.93,860.782 1711.09,862.442 1713.25,864.088 1715.41,865.719 1717.57,867.333 1719.73,868.929 1721.89,870.505 1724.05,872.059 1726.21,873.592 1728.37,875.102 1730.53,876.589 1732.69,878.051 1734.85,879.489 1737.02,880.903 1739.18,882.291 1741.34,883.655 1743.5,884.995 1745.66,886.311 1747.82,887.604 1749.98,888.874 1752.14,890.122 1754.3,891.349 1756.46,892.557 1758.62,893.747 1760.78,894.92 1762.94,896.079 1765.1,897.224 1767.26,898.358 1769.42,899.483 1771.58,900.601 1773.74,901.706 1775.9,902.796 1778.06,903.871 1780.22,904.933 1782.39,905.98 1784.55,907.013 1786.71,908.033 1788.87,909.039 1791.03,910.032 1793.19,911.012 1795.35,911.978 1797.51,912.932 1799.67,913.873 1801.83,914.802 1803.99,915.718 1806.15,916.623 1808.31,917.515 1810.47,918.395 1812.63,919.264 1814.79,920.121 1816.95,920.967 1819.11,921.802 1821.27,922.626 1823.43,923.438 1825.6,924.24 1827.76,925.031 1829.92,925.812 1832.08,926.583 1834.24,927.343 1836.4,928.093 1838.56,928.833 1840.72,929.564 1842.88,930.284 1845.04,930.996 1847.2,931.697 1849.36,932.39 1851.52,933.073 1853.68,933.747 1855.84,934.413 1858,935.069 1860.16,935.717 1862.32,936.356 1864.48,936.987 1866.64,937.609 1868.81,938.223 1870.97,938.829 1873.13,939.427 1875.29,940.017 1877.45,940.599 1879.61,941.173 1881.77,941.74 1883.93,942.299 1886.09,942.851 1888.25,943.396 1890.41,943.933 1892.57,944.463 1894.73,944.986 1896.89,945.502 1899.05,946.012 1901.21,946.514 1903.37,947.01 1905.53,947.5 1907.69,947.982 1909.85,948.459 1912.02,948.929 1914.18,949.393 1916.34,949.7 1918.5,948.992 1920.66,947.227 1922.82,944.513 1924.98,940.952 1927.14,936.643 1929.3,931.679 1931.46,926.148 1933.62,920.133 1935.78,913.715 1937.94,906.966 1940.1,899.956 1942.26,892.751 1944.42,885.408 1946.58,877.984 1948.74,870.529 1950.9,863.087 1953.06,855.7 1955.22,848.403 1957.39,841.228 1959.55,834.2 1961.71,827.341 1963.87,820.668 1966.03,814.192 1968.19,807.921 1970.35,801.857 1972.51,795.997 1974.67,790.335 1976.83,784.857 1978.99,779.548 1981.15,774.385 1983.31,769.342 1985.47,764.389 1987.63,759.488 1989.79,754.599 1991.95,749.677 1994.11,744.704 1996.27,739.784 1998.43,734.929 2000.6,730.139 2002.76,725.412 2004.92,720.748 2007.08,716.146 2009.24,711.604 2011.4,707.123 2013.56,702.702 2015.72,698.339 2017.88,694.033 2020.04,689.785 2022.2,685.593 2024.36,681.457 2026.52,677.376 2028.68,673.349 2030.84,669.375 2033,665.453 2035.16,661.584 2037.32,657.766 2039.48,653.999 2041.64,650.282 2043.81,646.613 2045.97,642.994 2048.13,639.422 2050.29,635.898 2052.45,632.421 2054.61,628.99 2056.77,625.604 2058.93,622.263 2061.09,618.966 2063.25,615.713 2065.41,612.504 2067.57,609.336 2069.73,606.211 2071.89,603.128 2074.05,600.085 2076.21,597.082 2078.37,594.119 2080.53,591.196 2082.69,588.311 2084.85,585.465 2087.02,582.656 2089.18,579.884 2091.34,577.15 2093.5,574.451 2095.66,571.788 2097.82,569.161 2099.98,566.568 2102.14,564.01 2104.3,561.486 2106.46,558.995 2108.62,556.537 2110.78,554.112 2112.94,551.719 2115.1,549.358 2117.26,547.028 2119.42,544.729 2121.58,542.46 2123.74,540.221 2125.9,538.012 2128.06,535.807 2130.22,533.024 2132.39,529.543 2134.55,525.515 2136.71,521.078 2138.87,516.353 2141.03,511.446 2143.19,506.449 2145.35,501.438 2147.51,496.474 2149.67,491.603 2151.83,486.857 2153.99,482.251 2156.15,477.787 2158.31,473.451 2160.47,469.213 2162.63,465.029 2164.79,460.846 2166.95,456.697 2169.11,452.603 2171.27,448.563 2173.43,444.577 2175.6,440.643 2177.76,436.762 2179.92,432.932 2182.08,429.153 2184.24,425.423 2186.4,421.744 2188.56,418.113 2190.72,414.53 2192.88,410.995 2195.04,407.506 2197.2,404.064 2199.36,400.668 2201.52,397.316 2203.68,394.009 2205.84,390.746 2208,387.526 2210.16,384.349 2212.32,381.214 2214.48,378.121 2216.64,375.068 2218.81,372.056 2220.97,369.084 2223.13,366.152 2225.29,363.258 2227.45,360.403 2229.61,357.585 2231.77,354.805 2233.93,352.062 2236.09,349.355 2238.25,346.684 2240.41,344.048 2242.57,341.448 2244.73,338.881 2246.89,336.349 2249.05,333.85 2251.21,331.385 2253.37,328.952 2255.53,326.551 2257.69,324.183 2259.85,321.845 2262.02,319.539 2264.18,317.263 2266.34,315.018 2268.5,312.802 2270.66,310.615 2272.82,308.458 2274.98,306.329 2277.14,304.228 2279.3,302.156 2281.46,300.11 2283.62,298.092 2285.78,296.101 2287.94,294.136 2290.1,292.197 2292.26,290.283 2294.42,288.395 2296.58,286.532 2298.74,284.694 2300.9,282.88 2303.06,281.091 2305.23,279.325 2307.39,277.582 2309.55,275.862 2311.71,274.166 2313.87,272.491 2316.03,270.839 2318.19,269.209 2320.35,267.601 2322.51,266.014 2324.67,264.447 2326.83,262.902 2328.99,261.377 2331.15,259.873 2333.31,258.388 2335.47,256.923 2337.63,255.477 2339.79,254.051 2341.95,252.643 2344.11,251.254 2346.27,249.884 2348.43,248.532 2350.6,247.197 2352.76,245.881 "/>
<polyline clip-path="url(#clip792)" style="stroke:#e26f46; stroke-linecap:round; stroke-linejoin:round; stroke-width:4; stroke-opacity:1; fill:none" points="194.422,1085.37 196.583,1085.37 198.743,1085.37 200.904,1085.37 203.064,1085.37 205.225,1085.37 207.385,1085.37 209.546,1085.37 211.706,1085.37 213.867,1085.37 216.027,1085.37 218.188,1085.37 220.348,1085.37 222.509,1085.37 224.669,1085.37 226.83,1085.37 228.99,1085.37 231.151,1085.37 233.311,1085.37 235.471,1085.37 237.632,1085.37 239.792,1085.37 241.953,1085.37 244.113,1085.37 246.274,1085.37 248.434,1085.37 250.595,1085.37 252.755,1085.37 254.916,1085.37 257.076,1085.37 259.237,1085.37 261.397,1085.37 263.558,1085.37 265.718,1085.37 267.879,1085.37 270.039,1085.37 272.2,1085.37 274.36,1085.37 276.521,1085.37 278.681,1085.37 280.842,1085.37 283.002,1085.37 285.163,1085.37 287.323,1085.37 289.484,1085.37 291.644,1085.37 293.805,1085.37 295.965,1085.37 298.126,1085.37 300.286,1085.37 302.447,1085.37 304.607,1085.37 306.768,1085.37 308.928,1085.37 311.089,1085.37 313.249,1085.37 315.41,1085.37 317.57,1085.37 319.731,1085.37 321.891,1085.37 324.052,1085.37 326.212,1085.37 328.373,1085.37 330.533,1085.37 332.694,1085.37 334.854,1085.37 337.015,1085.37 339.175,1085.37 341.336,1085.37 343.496,1085.37 345.657,1085.37 347.817,1085.37 349.978,1085.37 352.138,1085.37 354.299,1085.37 356.459,1085.37 358.62,1085.37 360.78,1085.37 362.941,1085.37 365.101,1085.37 367.262,1085.37 369.422,1085.37 371.583,1085.37 373.743,1085.37 375.904,1085.37 378.064,1085.37 380.225,1085.37 382.385,1085.37 384.546,1085.37 386.706,1085.37 388.867,1085.37 391.027,1085.37 393.188,1085.37 395.348,1085.37 397.509,1085.37 399.669,1085.37 401.83,1085.37 403.99,1085.37 406.151,1085.37 408.311,1085.37 410.472,86.1857 412.632,86.1857 414.793,86.1857 416.953,86.1857 419.114,86.1857 421.274,86.1857 423.435,86.1857 425.595,86.1857 427.755,86.1857 429.916,86.1857 432.076,86.1857 434.237,86.1857 436.397,86.1857 438.558,86.1857 440.718,86.1857 442.879,86.1857 445.039,86.1857 447.2,86.1857 449.36,86.1857 451.521,86.1857 453.681,86.1857 455.842,86.1857 458.002,86.1857 460.163,86.1857 462.323,86.1857 464.484,86.1857 466.644,86.1857 468.805,86.1857 470.965,86.1857 473.126,86.1857 475.286,86.1857 477.447,86.1857 479.607,86.1857 481.768,86.1857 483.928,86.1857 486.089,86.1857 488.249,86.1857 490.41,86.1857 492.57,86.1857 494.731,86.1857 496.891,86.1857 499.052,86.1857 501.212,86.1857 503.373,86.1857 505.533,86.1857 507.694,86.1857 509.854,86.1857 512.015,86.1857 514.175,86.1857 516.336,86.1857 518.496,86.1857 520.657,86.1857 522.817,86.1857 524.978,86.1857 527.138,86.1857 529.299,86.1857 531.459,86.1857 533.62,86.1857 535.78,86.1857 537.941,86.1857 540.101,86.1857 542.262,86.1857 544.422,86.1857 546.583,86.1857 548.743,86.1857 550.904,86.1857 553.064,86.1857 555.225,86.1857 557.385,86.1857 559.546,86.1857 561.706,86.1857 563.867,86.1857 566.027,86.1857 568.188,86.1857 570.348,86.1857 572.509,86.1857 574.669,86.1857 576.83,86.1857 578.99,86.1857 581.151,86.1857 583.311,86.1857 585.472,86.1857 587.632,86.1857 589.793,86.1857 591.953,86.1857 594.114,86.1857 596.274,86.1857 598.435,86.1857 600.595,86.1857 602.756,86.1857 604.916,86.1857 607.077,86.1857 609.237,86.1857 611.398,86.1857 613.558,86.1857 615.718,86.1857 617.879,86.1857 620.039,86.1857 622.2,86.1857 624.36,86.1857 626.521,1384.24 628.681,1384.24 630.842,1384.24 633.002,1384.24 635.163,1384.24 637.323,1384.24 639.484,1384.24 641.644,1384.24 643.805,1384.24 645.965,1384.24 648.126,1384.24 650.286,1384.24 652.447,1384.24 654.607,1384.24 656.768,1384.24 658.928,1384.24 661.089,1384.24 663.249,1384.24 665.41,1384.24 667.57,1384.24 669.731,1384.24 671.891,1384.24 674.052,1384.24 676.212,1384.24 678.373,1384.24 680.533,1384.24 682.694,1384.24 684.854,1384.24 687.015,1384.24 689.175,1384.24 691.336,1384.24 693.496,1384.24 695.657,1384.24 697.817,1384.24 699.978,1384.24 702.138,1384.24 704.299,1384.24 706.459,1384.24 708.62,1384.24 710.78,1384.24 712.941,1384.24 715.101,1384.24 717.262,1384.24 719.422,1384.24 721.583,1384.24 723.743,1384.24 725.904,1384.24 728.064,1384.24 730.225,1384.24 732.385,1384.24 734.546,1384.24 736.706,1384.24 738.867,1384.24 741.027,1384.24 743.188,1384.24 745.348,1384.24 747.509,1384.24 749.669,1384.24 751.83,1384.24 753.99,1384.24 756.151,1384.24 758.311,1384.24 760.472,1384.24 762.632,1384.24 764.793,1384.24 766.953,1384.24 769.114,1384.24 771.274,1384.24 773.435,1384.24 775.595,1384.24 777.756,1384.24 779.916,1384.24 782.077,1384.24 784.237,1384.24 786.398,1384.24 788.558,1384.24 790.719,1384.24 792.879,1384.24 795.04,1384.24 797.2,1384.24 799.361,1384.24 801.521,1384.24 803.681,1384.24 805.842,1384.24 808.002,1384.24 810.163,1384.24 812.323,1384.24 814.484,1384.24 816.644,1384.24 818.805,1384.24 820.965,1384.24 823.126,1384.24 825.286,1384.24 827.447,1384.24 829.607,1384.24 831.768,1384.24 833.928,1384.24 836.089,1384.24 838.249,1384.24 840.41,1384.24 842.57,264.824 844.731,264.824 846.891,264.824 849.052,264.824 851.212,264.824 853.373,264.824 855.533,264.824 857.694,264.824 859.854,264.824 862.015,264.824 864.175,264.824 866.336,264.824 868.496,264.824 870.657,264.824 872.817,264.824 874.978,264.824 877.138,264.824 879.299,264.824 881.459,264.824 883.62,264.824 885.78,264.824 887.941,264.824 890.101,264.824 892.262,264.824 894.422,264.824 896.583,264.824 898.743,264.824 900.904,264.824 903.064,264.824 905.225,264.824 907.385,264.824 909.546,264.824 911.706,264.824 913.867,264.824 916.027,264.824 918.188,264.824 920.348,264.824 922.509,264.824 924.669,264.824 926.83,264.824 928.99,264.824 931.151,264.824 933.311,264.824 935.472,264.824 937.632,264.824 939.793,264.824 941.953,264.824 944.114,264.824 946.274,264.824 948.435,264.824 950.595,264.824 952.756,264.824 954.916,264.824 957.077,264.824 959.237,264.824 961.398,264.824 963.558,264.824 965.719,264.824 967.879,264.824 970.04,264.824 972.2,264.824 974.361,264.824 976.521,264.824 978.682,264.824 980.842,264.824 983.003,264.824 985.163,264.824 987.324,264.824 989.484,264.824 991.645,264.824 993.805,264.824 995.965,264.824 998.126,264.824 1000.29,264.824 1002.45,264.824 1004.61,264.824 1006.77,264.824 1008.93,264.824 1011.09,264.824 1013.25,264.824 1015.41,264.824 1017.57,264.824 1019.73,264.824 1021.89,264.824 1024.05,264.824 1026.21,264.824 1028.37,264.824 1030.53,264.824 1032.69,264.824 1034.85,264.824 1037.01,264.824 1039.18,264.824 1041.34,264.824 1043.5,264.824 1045.66,264.824 1047.82,264.824 1049.98,264.824 1052.14,264.824 1054.3,264.824 1056.46,264.824 1058.62,862.16 1060.78,862.16 1062.94,862.16 1065.1,862.16 1067.26,862.16 1069.42,862.16 1071.58,862.16 1073.74,862.16 1075.9,862.16 1078.06,862.16 1080.22,862.16 1082.39,862.16 1084.55,862.16 1086.71,862.16 1088.87,862.16 1091.03,862.16 1093.19,862.16 1095.35,862.16 1097.51,862.16 1099.67,862.16 1101.83,862.16 1103.99,862.16 1106.15,862.16 1108.31,862.16 1110.47,862.16 1112.63,862.16 1114.79,862.16 1116.95,862.16 1119.11,862.16 1121.27,862.16 1123.43,862.16 1125.6,862.16 1127.76,862.16 1129.92,862.16 1132.08,862.16 1134.24,862.16 1136.4,862.16 1138.56,862.16 1140.72,862.16 1142.88,862.16 1145.04,862.16 1147.2,862.16 1149.36,862.16 1151.52,862.16 1153.68,862.16 1155.84,862.16 1158,862.16 1160.16,862.16 1162.32,862.16 1164.48,862.16 1166.64,862.16 1168.81,862.16 1170.97,862.16 1173.13,862.16 1175.29,862.16 1177.45,862.16 1179.61,862.16 1181.77,862.16 1183.93,862.16 1186.09,862.16 1188.25,862.16 1190.41,862.16 1192.57,862.16 1194.73,862.16 1196.89,862.16 1199.05,862.16 1201.21,862.16 1203.37,862.16 1205.53,862.16 1207.69,862.16 1209.85,862.16 1212.01,862.16 1214.18,862.16 1216.34,862.16 1218.5,862.16 1220.66,862.16 1222.82,862.16 1224.98,862.16 1227.14,862.16 1229.3,862.16 1231.46,862.16 1233.62,862.16 1235.78,862.16 1237.94,862.16 1240.1,862.16 1242.26,862.16 1244.42,862.16 1246.58,862.16 1248.74,862.16 1250.9,862.16 1253.06,862.16 1255.22,862.16 1257.39,862.16 1259.55,862.16 1261.71,862.16 1263.87,862.16 1266.03,862.16 1268.19,862.16 1270.35,862.16 1272.51,862.16 1274.67,532.983 1276.83,532.983 1278.99,532.983 1281.15,532.983 1283.31,532.983 1285.47,532.983 1287.63,532.983 1289.79,532.983 1291.95,532.983 1294.11,532.983 1296.27,532.983 1298.43,532.983 1300.6,532.983 1302.76,532.983 1304.92,532.983 1307.08,532.983 1309.24,532.983 1311.4,532.983 1313.56,532.983 1315.72,532.983 1317.88,532.983 1320.04,532.983 1322.2,532.983 1324.36,532.983 1326.52,532.983 1328.68,532.983 1330.84,532.983 1333,532.983 1335.16,532.983 1337.32,532.983 1339.48,532.983 1341.64,532.983 1343.81,532.983 1345.97,532.983 1348.13,532.983 1350.29,532.983 1352.45,532.983 1354.61,532.983 1356.77,532.983 1358.93,532.983 1361.09,532.983 1363.25,532.983 1365.41,532.983 1367.57,532.983 1369.73,532.983 1371.89,532.983 1374.05,532.983 1376.21,532.983 1378.37,532.983 1380.53,532.983 1382.69,532.983 1384.85,532.983 1387.01,532.983 1389.18,532.983 1391.34,532.983 1393.5,532.983 1395.66,532.983 1397.82,532.983 1399.98,532.983 1402.14,532.983 1404.3,532.983 1406.46,532.983 1408.62,532.983 1410.78,532.983 1412.94,532.983 1415.1,532.983 1417.26,532.983 1419.42,532.983 1421.58,532.983 1423.74,532.983 1425.9,532.983 1428.06,532.983 1430.22,532.983 1432.39,532.983 1434.55,532.983 1436.71,532.983 1438.87,532.983 1441.03,532.983 1443.19,532.983 1445.35,532.983 1447.51,532.983 1449.67,532.983 1451.83,532.983 1453.99,532.983 1456.15,532.983 1458.31,532.983 1460.47,532.983 1462.63,532.983 1464.79,532.983 1466.95,532.983 1469.11,532.983 1471.27,532.983 1473.43,532.983 1475.6,532.983 1477.76,532.983 1479.92,532.983 1482.08,532.983 1484.24,532.983 1486.4,532.983 1488.56,532.983 1490.72,944.767 1492.88,944.767 1495.04,944.767 1497.2,944.767 1499.36,944.767 1501.52,944.767 1503.68,944.767 1505.84,944.767 1508,944.767 1510.16,944.767 1512.32,944.767 1514.48,944.767 1516.64,944.767 1518.81,944.767 1520.97,944.767 1523.13,944.767 1525.29,944.767 1527.45,944.767 1529.61,944.767 1531.77,944.767 1533.93,944.767 1536.09,944.767 1538.25,944.767 1540.41,944.767 1542.57,944.767 1544.73,944.767 1546.89,944.767 1549.05,944.767 1551.21,944.767 1553.37,944.767 1555.53,944.767 1557.69,944.767 1559.85,944.767 1562.01,944.767 1564.18,944.767 1566.34,944.767 1568.5,944.767 1570.66,944.767 1572.82,944.767 1574.98,944.767 1577.14,944.767 1579.3,944.767 1581.46,944.767 1583.62,944.767 1585.78,944.767 1587.94,944.767 1590.1,944.767 1592.26,944.767 1594.42,944.767 1596.58,944.767 1598.74,944.767 1600.9,944.767 1603.06,944.767 1605.22,944.767 1607.39,944.767 1609.55,944.767 1611.71,944.767 1613.87,944.767 1616.03,944.767 1618.19,944.767 1620.35,944.767 1622.51,944.767 1624.67,944.767 1626.83,944.767 1628.99,944.767 1631.15,944.767 1633.31,944.767 1635.47,944.767 1637.63,944.767 1639.79,944.767 1641.95,944.767 1644.11,944.767 1646.27,944.767 1648.43,944.767 1650.6,944.767 1652.76,944.767 1654.92,944.767 1657.08,944.767 1659.24,944.767 1661.4,944.767 1663.56,944.767 1665.72,944.767 1667.88,944.767 1670.04,944.767 1672.2,944.767 1674.36,944.767 1676.52,944.767 1678.68,944.767 1680.84,944.767 1683,944.767 1685.16,944.767 1687.32,944.767 1689.48,944.767 1691.64,944.767 1693.81,944.767 1695.97,944.767 1698.13,944.767 1700.29,944.767 1702.45,944.767 1704.61,944.767 1706.77,983.924 1708.93,983.924 1711.09,983.924 1713.25,983.924 1715.41,983.924 1717.57,983.924 1719.73,983.924 1721.89,983.924 1724.05,983.924 1726.21,983.924 1728.37,983.924 1730.53,983.924 1732.69,983.924 1734.85,983.924 1737.02,983.924 1739.18,983.924 1741.34,983.924 1743.5,983.924 1745.66,983.924 1747.82,983.924 1749.98,983.924 1752.14,983.924 1754.3,983.924 1756.46,983.924 1758.62,983.924 1760.78,983.924 1762.94,983.924 1765.1,983.924 1767.26,983.924 1769.42,983.924 1771.58,983.924 1773.74,983.924 1775.9,983.924 1778.06,983.924 1780.22,983.924 1782.39,983.924 1784.55,983.924 1786.71,983.924 1788.87,983.924 1791.03,983.924 1793.19,983.924 1795.35,983.924 1797.51,983.924 1799.67,983.924 1801.83,983.924 1803.99,983.924 1806.15,983.924 1808.31,983.924 1810.47,983.924 1812.63,983.924 1814.79,983.924 1816.95,983.924 1819.11,983.924 1821.27,983.924 1823.43,983.924 1825.6,983.924 1827.76,983.924 1829.92,983.924 1832.08,983.924 1834.24,983.924 1836.4,983.924 1838.56,983.924 1840.72,983.924 1842.88,983.924 1845.04,983.924 1847.2,983.924 1849.36,983.924 1851.52,983.924 1853.68,983.924 1855.84,983.924 1858,983.924 1860.16,983.924 1862.32,983.924 1864.48,983.924 1866.64,983.924 1868.81,983.924 1870.97,983.924 1873.13,983.924 1875.29,983.924 1877.45,983.924 1879.61,983.924 1881.77,983.924 1883.93,983.924 1886.09,983.924 1888.25,983.924 1890.41,983.924 1892.57,983.924 1894.73,983.924 1896.89,983.924 1899.05,983.924 1901.21,983.924 1903.37,983.924 1905.53,983.924 1907.69,983.924 1909.85,983.924 1912.02,983.924 1914.18,983.924 1916.34,983.924 1918.5,983.924 1920.66,983.924 1922.82,373.613 1924.98,373.613 1927.14,373.613 1929.3,373.613 1931.46,373.613 1933.62,373.613 1935.78,373.613 1937.94,373.613 1940.1,373.613 1942.26,373.613 1944.42,373.613 1946.58,373.613 1948.74,373.613 1950.9,373.613 1953.06,373.613 1955.22,373.613 1957.39,373.613 1959.55,373.613 1961.71,373.613 1963.87,373.613 1966.03,373.613 1968.19,373.613 1970.35,373.613 1972.51,373.613 1974.67,373.613 1976.83,373.613 1978.99,373.613 1981.15,373.613 1983.31,373.613 1985.47,373.613 1987.63,373.613 1989.79,373.613 1991.95,373.613 1994.11,373.613 1996.27,373.613 1998.43,373.613 2000.6,373.613 2002.76,373.613 2004.92,373.613 2007.08,373.613 2009.24,373.613 2011.4,373.613 2013.56,373.613 2015.72,373.613 2017.88,373.613 2020.04,373.613 2022.2,373.613 2024.36,373.613 2026.52,373.613 2028.68,373.613 2030.84,373.613 2033,373.613 2035.16,373.613 2037.32,373.613 2039.48,373.613 2041.64,373.613 2043.81,373.613 2045.97,373.613 2048.13,373.613 2050.29,373.613 2052.45,373.613 2054.61,373.613 2056.77,373.613 2058.93,373.613 2061.09,373.613 2063.25,373.613 2065.41,373.613 2067.57,373.613 2069.73,373.613 2071.89,373.613 2074.05,373.613 2076.21,373.613 2078.37,373.613 2080.53,373.613 2082.69,373.613 2084.85,373.613 2087.02,373.613 2089.18,373.613 2091.34,373.613 2093.5,373.613 2095.66,373.613 2097.82,373.613 2099.98,373.613 2102.14,373.613 2104.3,373.613 2106.46,373.613 2108.62,373.613 2110.78,373.613 2112.94,373.613 2115.1,373.613 2117.26,373.613 2119.42,373.613 2121.58,373.613 2123.74,373.613 2125.9,373.613 2128.06,373.613 2130.22,373.613 2132.39,373.613 2134.55,373.613 2136.71,373.613 2138.87,147.885 2141.03,147.885 2143.19,147.885 2145.35,147.885 2147.51,147.885 2149.67,147.885 2151.83,147.885 2153.99,147.885 2156.15,147.885 2158.31,147.885 2160.47,147.885 2162.63,147.885 2164.79,147.885 2166.95,147.885 2169.11,147.885 2171.27,147.885 2173.43,147.885 2175.6,147.885 2177.76,147.885 2179.92,147.885 2182.08,147.885 2184.24,147.885 2186.4,147.885 2188.56,147.885 2190.72,147.885 2192.88,147.885 2195.04,147.885 2197.2,147.885 2199.36,147.885 2201.52,147.885 2203.68,147.885 2205.84,147.885 2208,147.885 2210.16,147.885 2212.32,147.885 2214.48,147.885 2216.64,147.885 2218.81,147.885 2220.97,147.885 2223.13,147.885 2225.29,147.885 2227.45,147.885 2229.61,147.885 2231.77,147.885 2233.93,147.885 2236.09,147.885 2238.25,147.885 2240.41,147.885 2242.57,147.885 2244.73,147.885 2246.89,147.885 2249.05,147.885 2251.21,147.885 2253.37,147.885 2255.53,147.885 2257.69,147.885 2259.85,147.885 2262.02,147.885 2264.18,147.885 2266.34,147.885 2268.5,147.885 2270.66,147.885 2272.82,147.885 2274.98,147.885 2277.14,147.885 2279.3,147.885 2281.46,147.885 2283.62,147.885 2285.78,147.885 2287.94,147.885 2290.1,147.885 2292.26,147.885 2294.42,147.885 2296.58,147.885 2298.74,147.885 2300.9,147.885 2303.06,147.885 2305.23,147.885 2307.39,147.885 2309.55,147.885 2311.71,147.885 2313.87,147.885 2316.03,147.885 2318.19,147.885 2320.35,147.885 2322.51,147.885 2324.67,147.885 2326.83,147.885 2328.99,147.885 2331.15,147.885 2333.31,147.885 2335.47,147.885 2337.63,147.885 2339.79,147.885 2341.95,147.885 2344.11,147.885 2346.27,147.885 2348.43,147.885 2350.6,147.885 2352.76,147.885 "/>
<path clip-path="url(#clip790)" d="M2039.84 1377.32 L2280.81 1377.32 L2280.81 1221.8 L2039.84 1221.8  Z" fill="#ffffff" fill-rule="evenodd" fill-opacity="1"/>
<polyline clip-path="url(#clip790)" style="stroke:#000000; stroke-linecap:round; stroke-linejoin:round; stroke-width:4; stroke-opacity:1; fill:none" points="2039.84,1377.32 2280.81,1377.32 2280.81,1221.8 2039.84,1221.8 2039.84,1377.32 "/>
<polyline clip-path="url(#clip790)" style="stroke:#009af9; stroke-linecap:round; stroke-linejoin:round; stroke-width:4; stroke-opacity:1; fill:none" points="2063.82,1273.64 2207.71,1273.64 "/>
<path clip-path="url(#clip790)" d="M2256.34 1264.99 L2246.97 1277.61 L2256.83 1290.92 L2251.81 1290.92 L2244.26 1280.73 L2236.71 1290.92 L2231.69 1290.92 L2241.76 1277.35 L2232.55 1264.99 L2237.57 1264.99 L2244.45 1274.23 L2251.32 1264.99 L2256.34 1264.99 Z" fill="#000000" fill-rule="nonzero" fill-opacity="1" /><polyline clip-path="url(#clip790)" style="stroke:#e26f46; stroke-linecap:round; stroke-linejoin:round; stroke-width:4; stroke-opacity:1; fill:none" points="2063.82,1325.48 2207.71,1325.48 "/>
<path clip-path="url(#clip790)" d="M2248.2 1306.74 L2248.2 1310.28 L2244.12 1310.28 Q2241.83 1310.28 2240.93 1311.2 Q2240.05 1312.13 2240.05 1314.54 L2240.05 1316.83 L2247.06 1316.83 L2247.06 1320.14 L2240.05 1320.14 L2240.05 1342.76 L2235.77 1342.76 L2235.77 1320.14 L2231.69 1320.14 L2231.69 1316.83 L2235.77 1316.83 L2235.77 1315.02 Q2235.77 1310.7 2237.78 1308.73 Q2239.79 1306.74 2244.17 1306.74 L2248.2 1306.74 Z" fill="#000000" fill-rule="nonzero" fill-opacity="1" /></svg>
