<?xml version="1.0" encoding="utf-8"?>
<svg xmlns="http://www.w3.org/2000/svg" xmlns:xlink="http://www.w3.org/1999/xlink" width="600" height="400" viewBox="0 0 2400 1600">
<defs>
  <clipPath id="clip520">
    <rect x="0" y="0" width="2400" height="1600"/>
  </clipPath>
</defs>
<path clip-path="url(#clip520)" d="M0 1600 L2400 1600 L2400 0 L0 0  Z" fill="#ffffff" fill-rule="evenodd" fill-opacity="1"/>
<defs>
  <clipPath id="clip521">
    <rect x="193" y="47" width="2160" height="1377"/>
  </clipPath>
</defs>
<path clip-path="url(#clip520)" d="M193.936 1423.18 L2352.76 1423.18 L2352.76 47.2441 L193.936 47.2441  Z" fill="#ffffff" fill-rule="evenodd" fill-opacity="1"/>
<polyline clip-path="url(#clip521)" style="stroke:#000000; stroke-linecap:round; stroke-linejoin:round; stroke-width:2; stroke-opacity:0.1; fill:none" points="193.936,1423.18 193.936,47.2441 "/>
<polyline clip-path="url(#clip521)" style="stroke:#000000; stroke-linecap:round; stroke-linejoin:round; stroke-width:2; stroke-opacity:0.1; fill:none" points="625.7,1423.18 625.7,47.2441 "/>
<polyline clip-path="url(#clip521)" style="stroke:#000000; stroke-linecap:round; stroke-linejoin:round; stroke-width:2; stroke-opacity:0.1; fill:none" points="1057.46,1423.18 1057.46,47.2441 "/>
<polyline clip-path="url(#clip521)" style="stroke:#000000; stroke-linecap:round; stroke-linejoin:round; stroke-width:2; stroke-opacity:0.1; fill:none" points="1489.23,1423.18 1489.23,47.2441 "/>
<polyline clip-path="url(#clip521)" style="stroke:#000000; stroke-linecap:round; stroke-linejoin:round; stroke-width:2; stroke-opacity:0.1; fill:none" points="1920.99,1423.18 1920.99,47.2441 "/>
<polyline clip-path="url(#clip521)" style="stroke:#000000; stroke-linecap:round; stroke-linejoin:round; stroke-width:2; stroke-opacity:0.1; fill:none" points="2352.76,1423.18 2352.76,47.2441 "/>
<polyline clip-path="url(#clip521)" style="stroke:#000000; stroke-linecap:round; stroke-linejoin:round; stroke-width:2; stroke-opacity:0.1; fill:none" points="193.936,1197.18 2352.76,1197.18 "/>
<polyline clip-path="url(#clip521)" style="stroke:#000000; stroke-linecap:round; stroke-linejoin:round; stroke-width:2; stroke-opacity:0.1; fill:none" points="193.936,957.648 2352.76,957.648 "/>
<polyline clip-path="url(#clip521)" style="stroke:#000000; stroke-linecap:round; stroke-linejoin:round; stroke-width:2; stroke-opacity:0.1; fill:none" points="193.936,718.117 2352.76,718.117 "/>
<polyline clip-path="url(#clip521)" style="stroke:#000000; stroke-linecap:round; stroke-linejoin:round; stroke-width:2; stroke-opacity:0.1; fill:none" points="193.936,478.587 2352.76,478.587 "/>
<polyline clip-path="url(#clip521)" style="stroke:#000000; stroke-linecap:round; stroke-linejoin:round; stroke-width:2; stroke-opacity:0.1; fill:none" points="193.936,239.056 2352.76,239.056 "/>
<polyline clip-path="url(#clip520)" style="stroke:#000000; stroke-linecap:round; stroke-linejoin:round; stroke-width:4; stroke-opacity:1; fill:none" points="193.936,1423.18 2352.76,1423.18 "/>
<polyline clip-path="url(#clip520)" style="stroke:#000000; stroke-linecap:round; stroke-linejoin:round; stroke-width:4; stroke-opacity:1; fill:none" points="193.936,1423.18 193.936,1404.28 "/>
<polyline clip-path="url(#clip520)" style="stroke:#000000; stroke-linecap:round; stroke-linejoin:round; stroke-width:4; stroke-opacity:1; fill:none" points="625.7,1423.18 625.7,1404.28 "/>
<polyline clip-path="url(#clip520)" style="stroke:#000000; stroke-linecap:round; stroke-linejoin:round; stroke-width:4; stroke-opacity:1; fill:none" points="1057.46,1423.18 1057.46,1404.28 "/>
<polyline clip-path="url(#clip520)" style="stroke:#000000; stroke-linecap:round; stroke-linejoin:round; stroke-width:4; stroke-opacity:1; fill:none" points="1489.23,1423.18 1489.23,1404.28 "/>
<polyline clip-path="url(#clip520)" style="stroke:#000000; stroke-linecap:round; stroke-linejoin:round; stroke-width:4; stroke-opacity:1; fill:none" points="1920.99,1423.18 1920.99,1404.28 "/>
<polyline clip-path="url(#clip520)" style="stroke:#000000; stroke-linecap:round; stroke-linejoin:round; stroke-width:4; stroke-opacity:1; fill:none" points="2352.76,1423.18 2352.76,1404.28 "/>
<path clip-path="url(#clip520)" d="M193.936 1454.1 Q190.325 1454.1 188.496 1457.66 Q186.691 1461.2 186.691 1468.33 Q186.691 1475.44 188.496 1479.01 Q190.325 1482.55 193.936 1482.55 Q197.57 1482.55 199.376 1479.01 Q201.204 1475.44 201.204 1468.33 Q201.204 1461.2 199.376 1457.66 Q197.57 1454.1 193.936 1454.1 M193.936 1450.39 Q199.746 1450.39 202.802 1455 Q205.88 1459.58 205.88 1468.33 Q205.88 1477.06 202.802 1481.67 Q199.746 1486.25 193.936 1486.25 Q188.126 1486.25 185.047 1481.67 Q181.992 1477.06 181.992 1468.33 Q181.992 1459.58 185.047 1455 Q188.126 1450.39 193.936 1450.39 Z" fill="#000000" fill-rule="nonzero" fill-opacity="1" /><path clip-path="url(#clip520)" d="M620.353 1481.64 L636.672 1481.64 L636.672 1485.58 L614.728 1485.58 L614.728 1481.64 Q617.39 1478.89 621.973 1474.26 Q626.58 1469.61 627.76 1468.27 Q630.006 1465.74 630.885 1464.01 Q631.788 1462.25 631.788 1460.56 Q631.788 1457.8 629.843 1456.07 Q627.922 1454.33 624.82 1454.33 Q622.621 1454.33 620.168 1455.09 Q617.737 1455.86 614.959 1457.41 L614.959 1452.69 Q617.783 1451.55 620.237 1450.97 Q622.691 1450.39 624.728 1450.39 Q630.098 1450.39 633.293 1453.08 Q636.487 1455.77 636.487 1460.26 Q636.487 1462.39 635.677 1464.31 Q634.89 1466.2 632.783 1468.8 Q632.205 1469.47 629.103 1472.69 Q626.001 1475.88 620.353 1481.64 Z" fill="#000000" fill-rule="nonzero" fill-opacity="1" /><path clip-path="url(#clip520)" d="M1060.47 1455.09 L1048.67 1473.54 L1060.47 1473.54 L1060.47 1455.09 M1059.25 1451.02 L1065.13 1451.02 L1065.13 1473.54 L1070.06 1473.54 L1070.06 1477.43 L1065.13 1477.43 L1065.13 1485.58 L1060.47 1485.58 L1060.47 1477.43 L1044.87 1477.43 L1044.87 1472.92 L1059.25 1451.02 Z" fill="#000000" fill-rule="nonzero" fill-opacity="1" /><path clip-path="url(#clip520)" d="M1489.63 1466.44 Q1486.48 1466.44 1484.63 1468.59 Q1482.8 1470.74 1482.8 1474.49 Q1482.8 1478.22 1484.63 1480.39 Q1486.48 1482.55 1489.63 1482.55 Q1492.78 1482.55 1494.61 1480.39 Q1496.46 1478.22 1496.46 1474.49 Q1496.46 1470.74 1494.61 1468.59 Q1492.78 1466.44 1489.63 1466.44 M1498.92 1451.78 L1498.92 1456.04 Q1497.16 1455.21 1495.35 1454.77 Q1493.57 1454.33 1491.81 1454.33 Q1487.18 1454.33 1484.73 1457.45 Q1482.3 1460.58 1481.95 1466.9 Q1483.31 1464.89 1485.37 1463.82 Q1487.43 1462.73 1489.91 1462.73 Q1495.12 1462.73 1498.13 1465.9 Q1501.16 1469.05 1501.16 1474.49 Q1501.16 1479.82 1498.01 1483.03 Q1494.86 1486.25 1489.63 1486.25 Q1483.64 1486.25 1480.47 1481.67 Q1477.3 1477.06 1477.3 1468.33 Q1477.3 1460.14 1481.18 1455.28 Q1485.07 1450.39 1491.62 1450.39 Q1493.38 1450.39 1495.17 1450.74 Q1496.97 1451.09 1498.92 1451.78 Z" fill="#000000" fill-rule="nonzero" fill-opacity="1" /><path clip-path="url(#clip520)" d="M1920.99 1469.17 Q1917.66 1469.17 1915.74 1470.95 Q1913.84 1472.73 1913.84 1475.86 Q1913.84 1478.98 1915.74 1480.77 Q1917.66 1482.55 1920.99 1482.55 Q1924.33 1482.55 1926.25 1480.77 Q1928.17 1478.96 1928.17 1475.86 Q1928.17 1472.73 1926.25 1470.95 Q1924.35 1469.17 1920.99 1469.17 M1916.32 1467.18 Q1913.31 1466.44 1911.62 1464.38 Q1909.95 1462.32 1909.95 1459.35 Q1909.95 1455.21 1912.89 1452.8 Q1915.85 1450.39 1920.99 1450.39 Q1926.15 1450.39 1929.09 1452.8 Q1932.03 1455.21 1932.03 1459.35 Q1932.03 1462.32 1930.34 1464.38 Q1928.68 1466.44 1925.69 1467.18 Q1929.07 1467.96 1930.95 1470.26 Q1932.84 1472.55 1932.84 1475.86 Q1932.84 1480.88 1929.77 1483.57 Q1926.71 1486.25 1920.99 1486.25 Q1915.27 1486.25 1912.2 1483.57 Q1909.14 1480.88 1909.14 1475.86 Q1909.14 1472.55 1911.04 1470.26 Q1912.94 1467.96 1916.32 1467.18 M1914.6 1459.79 Q1914.6 1462.48 1916.27 1463.98 Q1917.96 1465.49 1920.99 1465.49 Q1924 1465.49 1925.69 1463.98 Q1927.4 1462.48 1927.4 1459.79 Q1927.4 1457.11 1925.69 1455.6 Q1924 1454.1 1920.99 1454.1 Q1917.96 1454.1 1916.27 1455.6 Q1914.6 1457.11 1914.6 1459.79 Z" fill="#000000" fill-rule="nonzero" fill-opacity="1" /><path clip-path="url(#clip520)" d="M2327.44 1481.64 L2335.08 1481.64 L2335.08 1455.28 L2326.77 1456.95 L2326.77 1452.69 L2335.04 1451.02 L2339.71 1451.02 L2339.71 1481.64 L2347.35 1481.64 L2347.35 1485.58 L2327.44 1485.58 L2327.44 1481.64 Z" fill="#000000" fill-rule="nonzero" fill-opacity="1" /><path clip-path="url(#clip520)" d="M2366.8 1454.1 Q2363.18 1454.1 2361.36 1457.66 Q2359.55 1461.2 2359.55 1468.33 Q2359.55 1475.44 2361.36 1479.01 Q2363.18 1482.55 2366.8 1482.55 Q2370.43 1482.55 2372.23 1479.01 Q2374.06 1475.44 2374.06 1468.33 Q2374.06 1461.2 2372.23 1457.66 Q2370.43 1454.1 2366.8 1454.1 M2366.8 1450.39 Q2372.61 1450.39 2375.66 1455 Q2378.74 1459.58 2378.74 1468.33 Q2378.74 1477.06 2375.66 1481.67 Q2372.61 1486.25 2366.8 1486.25 Q2360.99 1486.25 2357.91 1481.67 Q2354.85 1477.06 2354.85 1468.33 Q2354.85 1459.58 2357.91 1455 Q2360.99 1450.39 2366.8 1450.39 Z" fill="#000000" fill-rule="nonzero" fill-opacity="1" /><path clip-path="url(#clip520)" d="M1272.41 1522.27 L1272.41 1532.4 L1284.47 1532.4 L1284.47 1536.95 L1272.41 1536.95 L1272.41 1556.3 Q1272.41 1560.66 1273.58 1561.9 Q1274.79 1563.14 1278.45 1563.14 L1284.47 1563.14 L1284.47 1568.04 L1278.45 1568.04 Q1271.67 1568.04 1269.1 1565.53 Q1266.52 1562.98 1266.52 1556.3 L1266.52 1536.95 L1262.22 1536.95 L1262.22 1532.4 L1266.52 1532.4 L1266.52 1522.27 L1272.41 1522.27 Z" fill="#000000" fill-rule="nonzero" fill-opacity="1" /><polyline clip-path="url(#clip520)" style="stroke:#000000; stroke-linecap:round; stroke-linejoin:round; stroke-width:4; stroke-opacity:1; fill:none" points="193.936,1423.18 193.936,47.2441 "/>
<polyline clip-path="url(#clip520)" style="stroke:#000000; stroke-linecap:round; stroke-linejoin:round; stroke-width:4; stroke-opacity:1; fill:none" points="193.936,1197.18 212.834,1197.18 "/>
<polyline clip-path="url(#clip520)" style="stroke:#000000; stroke-linecap:round; stroke-linejoin:round; stroke-width:4; stroke-opacity:1; fill:none" points="193.936,957.648 212.834,957.648 "/>
<polyline clip-path="url(#clip520)" style="stroke:#000000; stroke-linecap:round; stroke-linejoin:round; stroke-width:4; stroke-opacity:1; fill:none" points="193.936,718.117 212.834,718.117 "/>
<polyline clip-path="url(#clip520)" style="stroke:#000000; stroke-linecap:round; stroke-linejoin:round; stroke-width:4; stroke-opacity:1; fill:none" points="193.936,478.587 212.834,478.587 "/>
<polyline clip-path="url(#clip520)" style="stroke:#000000; stroke-linecap:round; stroke-linejoin:round; stroke-width:4; stroke-opacity:1; fill:none" points="193.936,239.056 212.834,239.056 "/>
<path clip-path="url(#clip520)" d="M50.9921 1197.63 L80.6679 1197.63 L80.6679 1201.57 L50.9921 1201.57 L50.9921 1197.63 Z" fill="#000000" fill-rule="nonzero" fill-opacity="1" /><path clip-path="url(#clip520)" d="M91.5706 1210.52 L99.2095 1210.52 L99.2095 1184.16 L90.8993 1185.82 L90.8993 1181.57 L99.1632 1179.9 L103.839 1179.9 L103.839 1210.52 L111.478 1210.52 L111.478 1214.46 L91.5706 1214.46 L91.5706 1210.52 Z" fill="#000000" fill-rule="nonzero" fill-opacity="1" /><path clip-path="url(#clip520)" d="M120.922 1208.58 L125.807 1208.58 L125.807 1214.46 L120.922 1214.46 L120.922 1208.58 Z" fill="#000000" fill-rule="nonzero" fill-opacity="1" /><path clip-path="url(#clip520)" d="M145.992 1182.98 Q142.381 1182.98 140.552 1186.54 Q138.746 1190.08 138.746 1197.21 Q138.746 1204.32 140.552 1207.88 Q142.381 1211.43 145.992 1211.43 Q149.626 1211.43 151.431 1207.88 Q153.26 1204.32 153.26 1197.21 Q153.26 1190.08 151.431 1186.54 Q149.626 1182.98 145.992 1182.98 M145.992 1179.27 Q151.802 1179.27 154.857 1183.88 Q157.936 1188.46 157.936 1197.21 Q157.936 1205.94 154.857 1210.55 Q151.802 1215.13 145.992 1215.13 Q140.181 1215.13 137.103 1210.55 Q134.047 1205.94 134.047 1197.21 Q134.047 1188.46 137.103 1183.88 Q140.181 1179.27 145.992 1179.27 Z" fill="#000000" fill-rule="nonzero" fill-opacity="1" /><path clip-path="url(#clip520)" d="M51.9875 958.099 L81.6633 958.099 L81.6633 962.035 L51.9875 962.035 L51.9875 958.099 Z" fill="#000000" fill-rule="nonzero" fill-opacity="1" /><path clip-path="url(#clip520)" d="M101.756 943.447 Q98.1447 943.447 96.316 947.012 Q94.5104 950.553 94.5104 957.683 Q94.5104 964.789 96.316 968.354 Q98.1447 971.896 101.756 971.896 Q105.39 971.896 107.196 968.354 Q109.024 964.789 109.024 957.683 Q109.024 950.553 107.196 947.012 Q105.39 943.447 101.756 943.447 M101.756 939.743 Q107.566 939.743 110.621 944.35 Q113.7 948.933 113.7 957.683 Q113.7 966.41 110.621 971.016 Q107.566 975.599 101.756 975.599 Q95.9456 975.599 92.8669 971.016 Q89.8114 966.41 89.8114 957.683 Q89.8114 948.933 92.8669 944.35 Q95.9456 939.743 101.756 939.743 Z" fill="#000000" fill-rule="nonzero" fill-opacity="1" /><path clip-path="url(#clip520)" d="M121.918 969.049 L126.802 969.049 L126.802 974.928 L121.918 974.928 L121.918 969.049 Z" fill="#000000" fill-rule="nonzero" fill-opacity="1" /><path clip-path="url(#clip520)" d="M137.033 940.368 L155.39 940.368 L155.39 944.303 L141.316 944.303 L141.316 952.775 Q142.334 952.428 143.353 952.266 Q144.371 952.081 145.39 952.081 Q151.177 952.081 154.556 955.252 Q157.936 958.424 157.936 963.84 Q157.936 969.419 154.464 972.521 Q150.992 975.599 144.672 975.599 Q142.496 975.599 140.228 975.229 Q137.982 974.859 135.575 974.118 L135.575 969.419 Q137.658 970.553 139.881 971.109 Q142.103 971.664 144.58 971.664 Q148.584 971.664 150.922 969.558 Q153.26 967.451 153.26 963.84 Q153.26 960.229 150.922 958.123 Q148.584 956.016 144.58 956.016 Q142.705 956.016 140.83 956.433 Q138.978 956.849 137.033 957.729 L137.033 940.368 Z" fill="#000000" fill-rule="nonzero" fill-opacity="1" /><path clip-path="url(#clip520)" d="M100.76 703.916 Q97.1493 703.916 95.3206 707.481 Q93.515 711.023 93.515 718.152 Q93.515 725.259 95.3206 728.823 Q97.1493 732.365 100.76 732.365 Q104.395 732.365 106.2 728.823 Q108.029 725.259 108.029 718.152 Q108.029 711.023 106.2 707.481 Q104.395 703.916 100.76 703.916 M100.76 700.212 Q106.571 700.212 109.626 704.819 Q112.705 709.402 112.705 718.152 Q112.705 726.879 109.626 731.485 Q106.571 736.069 100.76 736.069 Q94.9502 736.069 91.8715 731.485 Q88.816 726.879 88.816 718.152 Q88.816 709.402 91.8715 704.819 Q94.9502 700.212 100.76 700.212 Z" fill="#000000" fill-rule="nonzero" fill-opacity="1" /><path clip-path="url(#clip520)" d="M120.922 729.518 L125.807 729.518 L125.807 735.397 L120.922 735.397 L120.922 729.518 Z" fill="#000000" fill-rule="nonzero" fill-opacity="1" /><path clip-path="url(#clip520)" d="M145.992 703.916 Q142.381 703.916 140.552 707.481 Q138.746 711.023 138.746 718.152 Q138.746 725.259 140.552 728.823 Q142.381 732.365 145.992 732.365 Q149.626 732.365 151.431 728.823 Q153.26 725.259 153.26 718.152 Q153.26 711.023 151.431 707.481 Q149.626 703.916 145.992 703.916 M145.992 700.212 Q151.802 700.212 154.857 704.819 Q157.936 709.402 157.936 718.152 Q157.936 726.879 154.857 731.485 Q151.802 736.069 145.992 736.069 Q140.181 736.069 137.103 731.485 Q134.047 726.879 134.047 718.152 Q134.047 709.402 137.103 704.819 Q140.181 700.212 145.992 700.212 Z" fill="#000000" fill-rule="nonzero" fill-opacity="1" /><path clip-path="url(#clip520)" d="M101.756 464.385 Q98.1447 464.385 96.316 467.95 Q94.5104 471.492 94.5104 478.621 Q94.5104 485.728 96.316 489.293 Q98.1447 492.834 101.756 492.834 Q105.39 492.834 107.196 489.293 Q109.024 485.728 109.024 478.621 Q109.024 471.492 107.196 467.95 Q105.39 464.385 101.756 464.385 M101.756 460.682 Q107.566 460.682 110.621 465.288 Q113.7 469.871 113.7 478.621 Q113.7 487.348 110.621 491.955 Q107.566 496.538 101.756 496.538 Q95.9456 496.538 92.8669 491.955 Q89.8114 487.348 89.8114 478.621 Q89.8114 469.871 92.8669 465.288 Q95.9456 460.682 101.756 460.682 Z" fill="#000000" fill-rule="nonzero" fill-opacity="1" /><path clip-path="url(#clip520)" d="M121.918 489.987 L126.802 489.987 L126.802 495.867 L121.918 495.867 L121.918 489.987 Z" fill="#000000" fill-rule="nonzero" fill-opacity="1" /><path clip-path="url(#clip520)" d="M137.033 461.307 L155.39 461.307 L155.39 465.242 L141.316 465.242 L141.316 473.714 Q142.334 473.367 143.353 473.205 Q144.371 473.02 145.39 473.02 Q151.177 473.02 154.556 476.191 Q157.936 479.362 157.936 484.779 Q157.936 490.357 154.464 493.459 Q150.992 496.538 144.672 496.538 Q142.496 496.538 140.228 496.168 Q137.982 495.797 135.575 495.057 L135.575 490.357 Q137.658 491.492 139.881 492.047 Q142.103 492.603 144.58 492.603 Q148.584 492.603 150.922 490.496 Q153.26 488.39 153.26 484.779 Q153.26 481.168 150.922 479.061 Q148.584 476.955 144.58 476.955 Q142.705 476.955 140.83 477.371 Q138.978 477.788 137.033 478.668 L137.033 461.307 Z" fill="#000000" fill-rule="nonzero" fill-opacity="1" /><path clip-path="url(#clip520)" d="M91.5706 252.401 L99.2095 252.401 L99.2095 226.035 L90.8993 227.702 L90.8993 223.443 L99.1632 221.776 L103.839 221.776 L103.839 252.401 L111.478 252.401 L111.478 256.336 L91.5706 256.336 L91.5706 252.401 Z" fill="#000000" fill-rule="nonzero" fill-opacity="1" /><path clip-path="url(#clip520)" d="M120.922 250.456 L125.807 250.456 L125.807 256.336 L120.922 256.336 L120.922 250.456 Z" fill="#000000" fill-rule="nonzero" fill-opacity="1" /><path clip-path="url(#clip520)" d="M145.992 224.855 Q142.381 224.855 140.552 228.419 Q138.746 231.961 138.746 239.091 Q138.746 246.197 140.552 249.762 Q142.381 253.304 145.992 253.304 Q149.626 253.304 151.431 249.762 Q153.26 246.197 153.26 239.091 Q153.26 231.961 151.431 228.419 Q149.626 224.855 145.992 224.855 M145.992 221.151 Q151.802 221.151 154.857 225.757 Q157.936 230.341 157.936 239.091 Q157.936 247.818 154.857 252.424 Q151.802 257.007 145.992 257.007 Q140.181 257.007 137.103 252.424 Q134.047 247.818 134.047 239.091 Q134.047 230.341 137.103 225.757 Q140.181 221.151 145.992 221.151 Z" fill="#000000" fill-rule="nonzero" fill-opacity="1" /><polyline clip-path="url(#clip521)" style="stroke:#009af9; stroke-linecap:round; stroke-linejoin:round; stroke-width:4; stroke-opacity:1; fill:none" points="193.936,718.117 196.097,726.949 198.258,735.663 200.419,744.262 202.58,752.747 204.741,761.119 206.902,769.38 209.063,777.532 211.224,785.576 213.385,793.513 215.546,801.345 217.707,809.073 219.868,816.698 222.029,824.223 224.19,831.648 226.351,838.974 228.512,846.203 230.673,853.336 232.834,860.375 234.995,867.32 237.156,874.174 239.317,880.936 241.478,887.609 243.639,894.193 245.8,900.69 247.961,907.101 250.122,913.427 252.282,919.669 254.443,925.828 256.604,931.906 258.765,937.903 260.926,943.82 263.087,949.659 265.248,955.421 267.409,961.106 269.57,966.716 271.731,972.252 273.892,977.714 276.053,983.104 278.214,988.422 280.375,993.67 282.536,998.848 284.697,1003.96 286.858,1009 289.019,1013.97 291.18,1018.88 293.341,1023.73 295.502,1028.51 297.663,1033.22 299.824,1037.88 301.985,1042.47 304.146,1047 306.307,1051.47 308.468,1055.88 310.629,1060.24 312.79,1064.53 314.951,1068.77 317.112,1072.95 319.273,1077.08 321.434,1081.15 323.595,1085.17 325.756,1089.14 327.917,1093.05 330.078,1096.91 332.239,1100.72 334.4,1104.48 336.561,1108.19 338.722,1111.85 340.883,1115.46 343.044,1119.02 345.205,1122.54 347.366,1126.01 349.527,1129.43 351.688,1132.81 353.849,1136.14 356.01,1139.43 358.171,1142.68 360.332,1145.88 362.493,1149.04 364.653,1152.16 366.814,1155.23 368.975,1158.27 371.136,1161.27 373.297,1164.22 375.458,1167.14 377.619,1170.02 379.78,1172.86 381.941,1175.66 384.102,1178.43 386.263,1181.15 388.424,1183.85 390.585,1186.5 392.746,1189.13 394.907,1191.71 397.068,1194.81 399.229,1199.4 401.39,1203.2 403.551,1204.42 405.712,1202.13 407.873,1196.26 410.034,1187.59 412.195,1177.79 414.356,1168.76 416.517,1160 418.678,1151.36 420.839,1142.83 423,1134.41 425.161,1126.1 427.322,1117.91 429.483,1109.82 431.644,1101.84 433.805,1093.97 435.966,1086.2 438.127,1078.53 440.288,1070.96 442.449,1063.5 444.61,1056.13 446.771,1048.87 448.932,1041.69 451.093,1034.62 453.254,1027.64 455.415,1020.74 457.576,1013.95 459.737,1007.24 461.898,1000.62 464.059,994.086 466.22,987.641 468.381,981.281 470.542,975.006 472.703,968.813 474.864,962.703 477.024,956.674 479.185,950.724 481.346,944.854 483.507,939.061 485.668,933.345 487.829,927.705 489.99,922.14 492.151,916.648 494.312,911.229 496.473,905.882 498.634,900.606 500.795,895.4 502.956,890.263 505.117,885.194 507.278,880.193 509.439,875.257 511.6,870.387 513.761,865.582 515.922,860.84 518.083,856.161 520.244,851.545 522.405,846.989 524.566,842.494 526.727,838.058 528.888,833.682 531.049,829.363 533.21,825.102 535.371,820.897 537.532,816.747 539.693,812.653 541.854,808.613 544.015,804.626 546.176,800.693 548.337,796.811 550.498,792.981 552.659,789.202 554.82,785.473 556.981,781.793 559.142,778.162 561.303,774.579 563.464,771.044 565.625,767.556 567.786,764.113 569.947,760.717 572.108,757.366 574.269,754.059 576.43,750.796 578.591,747.576 580.752,744.399 582.913,741.264 585.074,738.171 587.235,735.118 589.396,732.107 591.556,729.135 593.717,726.202 595.878,723.308 598.039,720.453 600.2,717.635 602.361,714.855 604.522,712.112 606.683,709.405 608.844,706.734 611.005,704.098 613.166,701.497 615.327,698.931 617.488,696.399 619.649,693.9 621.81,691.435 623.971,689.002 626.132,685.787 628.293,680.573 630.454,673.928 632.615,666.376 634.776,658.35 636.937,650.192 639.098,642.151 641.259,634.388 643.42,626.971 645.581,619.877 647.742,612.992 649.903,606.112 652.064,599.219 654.225,592.417 656.386,585.706 658.547,579.083 660.708,572.548 662.869,566.1 665.03,559.737 667.191,553.459 669.352,547.263 671.513,541.15 673.674,535.118 675.835,529.166 677.996,523.293 680.157,517.498 682.318,511.779 684.479,506.137 686.64,500.569 688.801,495.075 690.962,489.654 693.123,484.305 695.284,479.027 697.445,473.819 699.606,468.68 701.767,463.609 703.927,458.605 706.088,453.667 708.249,448.795 710.41,443.988 712.571,439.244 714.732,434.563 716.893,429.945 719.054,425.387 721.215,420.89 723.376,416.452 725.537,412.074 727.698,407.753 729.859,403.49 732.02,399.283 734.181,395.132 736.342,391.036 738.503,386.994 740.664,383.006 742.825,379.071 744.986,375.187 747.147,371.356 749.308,367.575 751.469,363.845 753.63,360.163 755.791,356.531 757.952,352.947 760.113,349.41 762.274,345.92 764.435,342.477 766.596,339.079 768.757,335.726 770.918,332.418 773.079,329.153 775.24,325.932 777.401,322.753 779.562,319.617 781.723,316.522 783.884,313.468 786.045,310.455 788.206,307.481 790.367,304.547 792.528,301.652 794.689,298.795 796.85,295.977 799.011,293.195 801.172,290.451 803.333,287.743 805.494,285.07 807.655,282.434 809.816,279.832 811.977,277.264 814.138,274.731 816.298,272.231 818.459,269.765 820.62,267.331 822.781,264.929 824.942,262.56 827.103,260.221 829.264,257.914 831.425,255.637 833.586,253.391 835.747,251.174 837.908,249.024 840.069,247.547 842.23,246.891 844.391,246.978 846.552,247.732 848.713,249.081 850.874,250.957 853.035,253.295 855.196,256.033 857.357,259.113 859.518,262.479 861.679,266.08 863.84,269.868 866.001,273.797 868.162,277.827 870.323,281.918 872.484,286.036 874.645,290.15 876.806,294.232 878.967,298.256 881.128,302.201 883.289,306.05 885.45,309.788 887.611,313.404 889.772,316.889 891.933,320.239 894.094,323.454 896.255,326.535 898.416,329.487 900.577,332.321 902.738,335.048 904.899,337.684 907.06,340.247 909.221,342.762 911.382,345.252 913.543,347.748 915.704,350.282 917.865,352.871 920.026,355.437 922.187,357.97 924.348,360.469 926.509,362.935 928.669,365.369 930.83,367.77 932.991,370.139 935.152,372.477 937.313,374.784 939.474,377.06 941.635,379.306 943.796,381.522 945.957,383.709 948.118,385.867 950.279,387.996 952.44,390.098 954.601,392.171 956.762,394.217 958.923,396.235 961.084,398.227 963.245,400.192 965.406,402.132 967.567,404.046 969.728,405.934 971.889,407.797 974.05,409.636 976.211,411.45 978.372,413.24 980.533,415.006 982.694,416.749 984.855,418.469 987.016,420.166 989.177,421.841 991.338,423.493 993.499,425.124 995.66,426.733 997.821,428.32 999.982,429.887 1002.14,431.432 1004.3,432.957 1006.46,434.462 1008.63,435.948 1010.79,437.413 1012.95,438.859 1015.11,440.286 1017.27,441.693 1019.43,443.083 1021.59,444.453 1023.75,445.806 1025.91,447.141 1028.07,448.458 1030.24,449.757 1032.4,451.039 1034.56,452.305 1036.72,453.553 1038.88,454.785 1041.04,456.001 1043.2,457.2 1045.36,458.384 1047.52,459.551 1049.68,460.704 1051.85,461.841 1054.01,462.963 1056.17,464.07 1058.33,465.236 1060.49,466.817 1062.65,468.818 1064.81,471.186 1066.97,473.876 1069.13,476.84 1071.29,480.038 1073.46,483.429 1075.62,486.976 1077.78,490.643 1079.94,494.398 1082.1,498.213 1084.26,502.059 1086.42,505.913 1088.58,509.753 1090.74,513.558 1092.9,517.313 1095.07,521.004 1097.23,524.619 1099.39,528.148 1101.55,531.587 1103.71,534.93 1105.87,538.177 1108.03,541.33 1110.19,544.391 1112.35,547.369 1114.51,550.271 1116.67,553.111 1118.84,555.902 1121,558.661 1123.16,561.407 1125.32,564.164 1127.48,566.918 1129.64,569.635 1131.8,572.317 1133.96,574.963 1136.12,577.573 1138.28,580.149 1140.45,582.691 1142.61,585.2 1144.77,587.675 1146.93,590.117 1149.09,592.527 1151.25,594.905 1153.41,597.251 1155.57,599.566 1157.73,601.851 1159.89,604.105 1162.06,606.329 1164.22,608.524 1166.38,610.69 1168.54,612.827 1170.7,614.936 1172.86,617.017 1175.02,619.07 1177.18,621.097 1179.34,623.096 1181.5,625.069 1183.67,627.016 1185.83,628.937 1187.99,630.832 1190.15,632.703 1192.31,634.548 1194.47,636.369 1196.63,638.166 1198.79,639.939 1200.95,641.688 1203.11,643.415 1205.28,645.118 1207.44,646.798 1209.6,648.457 1211.76,650.093 1213.92,651.708 1216.08,653.301 1218.24,654.873 1220.4,656.424 1222.56,657.954 1224.72,659.465 1226.88,660.955 1229.05,662.425 1231.21,663.876 1233.37,665.308 1235.53,666.72 1237.69,668.114 1239.85,669.49 1242.01,670.847 1244.17,672.186 1246.33,673.508 1248.49,674.812 1250.66,676.099 1252.82,677.368 1254.98,678.621 1257.14,679.858 1259.3,681.078 1261.46,682.282 1263.62,683.469 1265.78,684.642 1267.94,685.783 1270.1,686.58 1272.27,686.965 1274.43,687.007 1276.59,686.769 1278.75,686.309 1280.91,685.68 1283.07,684.929 1285.23,684.098 1287.39,683.222 1289.55,682.332 1291.71,681.454 1293.88,680.607 1296.04,679.805 1298.2,679.058 1300.36,678.369 1302.52,677.735 1304.68,677.15 1306.84,676.599 1309,676.066 1311.16,675.525 1313.32,674.952 1315.49,674.372 1317.65,673.8 1319.81,673.235 1321.97,672.678 1324.13,672.128 1326.29,671.586 1328.45,671.051 1330.61,670.523 1332.77,670.002 1334.93,669.487 1337.09,668.98 1339.26,668.479 1341.42,667.985 1343.58,667.498 1345.74,667.017 1347.9,666.542 1350.06,666.073 1352.22,665.611 1354.38,665.155 1356.54,664.705 1358.7,664.261 1360.87,663.823 1363.03,663.391 1365.19,662.964 1367.35,662.543 1369.51,662.128 1371.67,661.718 1373.83,661.314 1375.99,660.915 1378.15,660.521 1380.31,660.132 1382.48,659.749 1384.64,659.371 1386.8,658.998 1388.96,658.629 1391.12,658.266 1393.28,657.907 1395.44,657.553 1397.6,657.204 1399.76,656.86 1401.92,656.52 1404.09,656.184 1406.25,655.853 1408.41,655.527 1410.57,655.204 1412.73,654.886 1414.89,654.573 1417.05,654.263 1419.21,653.957 1421.37,653.656 1423.53,653.358 1425.7,653.065 1427.86,652.775 1430.02,652.489 1432.18,652.207 1434.34,651.929 1436.5,651.654 1438.66,651.383 1440.82,651.116 1442.98,650.852 1445.14,650.592 1447.3,650.335 1449.47,650.081 1451.63,649.831 1453.79,649.585 1455.95,649.341 1458.11,649.101 1460.27,648.864 1462.43,648.63 1464.59,648.399 1466.75,648.171 1468.91,647.946 1471.08,647.724 1473.24,647.506 1475.4,647.29 1477.56,647.077 1479.72,646.866 1481.88,646.659 1484.04,646.454 1486.2,646.252 1488.36,645.973 1490.52,644.944 1492.69,643.098 1494.85,640.535 1497.01,637.351 1499.17,633.633 1501.33,629.467 1503.49,624.93 1505.65,620.095 1507.81,615.03 1509.97,609.798 1512.13,604.454 1514.3,599.051 1516.46,593.634 1518.62,588.244 1520.78,582.916 1522.94,577.679 1525.1,572.559 1527.26,567.573 1529.42,562.737 1531.58,558.056 1533.74,553.535 1535.91,549.17 1538.07,544.954 1540.23,540.873 1542.39,536.907 1544.55,533.033 1546.71,529.221 1548.87,525.435 1551.03,521.635 1553.19,517.793 1555.35,513.987 1557.51,510.231 1559.68,506.526 1561.84,502.869 1564,499.261 1566.16,495.701 1568.32,492.187 1570.48,488.721 1572.64,485.3 1574.8,481.925 1576.96,478.595 1579.12,475.308 1581.29,472.066 1583.45,468.866 1585.61,465.709 1587.77,462.593 1589.93,459.519 1592.09,456.486 1594.25,453.492 1596.41,450.538 1598.57,447.624 1600.73,444.747 1602.9,441.909 1605.06,439.109 1607.22,436.345 1609.38,433.619 1611.54,430.928 1613.7,428.273 1615.86,425.653 1618.02,423.068 1620.18,420.518 1622.34,418.001 1624.51,415.518 1626.67,413.068 1628.83,410.65 1630.99,408.264 1633.15,405.91 1635.31,403.587 1637.47,401.296 1639.63,399.034 1641.79,396.803 1643.95,394.601 1646.12,392.429 1648.28,390.285 1650.44,388.17 1652.6,386.083 1654.76,384.024 1656.92,381.992 1659.08,379.987 1661.24,378.008 1663.4,376.056 1665.56,374.129 1667.72,372.229 1669.89,370.353 1672.05,368.502 1674.21,366.676 1676.37,364.874 1678.53,363.096 1680.69,361.341 1682.85,359.609 1685.01,357.901 1687.17,356.215 1689.33,354.551 1691.5,352.909 1693.66,351.289 1695.82,349.691 1697.98,348.113 1700.14,346.636 1702.3,346.367 1704.46,347.523 1706.62,349.926 1708.78,353.408 1710.94,357.812 1713.11,362.991 1715.27,368.807 1717.43,375.133 1719.59,381.85 1721.75,388.852 1723.91,396.04 1726.07,403.326 1728.23,410.633 1730.39,417.891 1732.55,425.044 1734.72,432.044 1736.88,438.85 1739.04,445.437 1741.2,451.784 1743.36,457.884 1745.52,463.737 1747.68,469.356 1749.84,474.762 1752,479.986 1754.16,485.068 1756.33,490.061 1758.49,495.025 1760.65,500.031 1762.81,505.124 1764.97,510.172 1767.13,515.153 1769.29,520.067 1771.45,524.917 1773.61,529.702 1775.77,534.424 1777.93,539.084 1780.1,543.681 1782.26,548.218 1784.42,552.694 1786.58,557.111 1788.74,561.47 1790.9,565.771 1793.06,570.014 1795.22,574.202 1797.38,578.334 1799.54,582.412 1801.71,586.435 1803.87,590.405 1806.03,594.323 1808.19,598.188 1810.35,602.003 1812.51,605.766 1814.67,609.48 1816.83,613.145 1818.99,616.761 1821.15,620.329 1823.32,623.849 1825.48,627.323 1827.64,630.751 1829.8,634.133 1831.96,637.47 1834.12,640.763 1836.28,644.013 1838.44,647.219 1840.6,650.383 1842.76,653.504 1844.93,656.585 1847.09,659.624 1849.25,662.623 1851.41,665.583 1853.57,668.503 1855.73,671.384 1857.89,674.227 1860.05,677.033 1862.21,679.801 1864.37,682.533 1866.54,685.228 1868.7,687.888 1870.86,690.513 1873.02,693.103 1875.18,695.658 1877.34,698.18 1879.5,700.668 1881.66,703.123 1883.82,705.546 1885.98,707.937 1888.15,710.296 1890.31,712.623 1892.47,714.92 1894.63,717.186 1896.79,719.423 1898.95,721.629 1901.11,723.807 1903.27,725.955 1905.43,728.075 1907.59,730.167 1909.75,732.231 1911.92,734.254 1914.08,735.364 1916.24,735.174 1918.4,733.853 1920.56,731.558 1922.72,728.44 1924.88,724.636 1927.04,720.277 1929.2,715.48 1931.36,710.354 1933.53,704.999 1935.69,699.502 1937.85,693.944 1940.01,688.392 1942.17,682.906 1944.33,677.535 1946.49,672.316 1948.65,667.28 1950.81,662.444 1952.97,657.818 1955.14,653.4 1957.3,649.179 1959.46,645.135 1961.62,641.235 1963.78,637.438 1965.94,633.694 1968.1,629.941 1970.26,626.109 1972.42,622.25 1974.58,618.444 1976.75,614.687 1978.91,610.98 1981.07,607.323 1983.23,603.714 1985.39,600.153 1987.55,596.639 1989.71,593.171 1991.87,589.75 1994.03,586.374 1996.19,583.043 1998.36,579.756 2000.52,576.512 2002.68,573.312 2004.84,570.153 2007,567.037 2009.16,563.962 2011.32,560.928 2013.48,557.933 2015.64,554.979 2017.8,552.063 2019.96,549.187 2022.13,546.348 2024.29,543.547 2026.45,540.783 2028.61,538.056 2030.77,535.365 2032.93,532.71 2035.09,530.09 2037.25,527.505 2039.41,524.954 2041.57,522.437 2043.74,519.953 2045.9,517.502 2048.06,515.084 2050.22,512.698 2052.38,510.344 2054.54,508.021 2056.7,505.729 2058.86,503.467 2061.02,501.235 2063.18,499.033 2065.35,496.86 2067.51,494.716 2069.67,492.6 2071.83,490.512 2073.99,488.452 2076.15,486.419 2078.31,484.413 2080.47,482.434 2082.63,480.481 2084.79,478.554 2086.96,476.652 2089.12,474.776 2091.28,472.924 2093.44,471.097 2095.6,469.335 2097.76,467.665 2099.92,466.066 2102.08,464.522 2104.24,463.017 2106.4,461.536 2108.57,460.065 2110.73,458.592 2112.89,457.104 2115.05,455.593 2117.21,454.049 2119.37,452.463 2121.53,450.83 2123.69,449.144 2125.85,447.401 2128.01,445.597 2130.17,443.73 2132.34,441.801 2134.5,439.809 2136.66,437.755 2138.82,435.644 2140.98,433.478 2143.14,431.263 2145.3,429.005 2147.46,426.712 2149.62,424.392 2151.78,422.056 2153.95,419.714 2156.11,417.378 2158.27,415.063 2160.43,412.783 2162.59,410.553 2164.75,408.391 2166.91,406.291 2169.07,404.22 2171.23,402.176 2173.39,400.16 2175.56,398.17 2177.72,396.207 2179.88,394.27 2182.04,392.358 2184.2,390.472 2186.36,388.611 2188.52,386.774 2190.68,384.962 2192.84,383.174 2195,381.409 2197.17,379.668 2199.33,377.95 2201.49,376.255 2203.65,374.582 2205.81,372.932 2207.97,371.303 2210.13,369.696 2212.29,368.11 2214.45,366.545 2216.61,365.001 2218.78,363.478 2220.94,361.974 2223.1,360.49 2225.26,359.026 2227.42,357.581 2229.58,356.155 2231.74,354.748 2233.9,353.36 2236.06,351.99 2238.22,350.638 2240.38,349.304 2242.55,347.988 2244.71,346.689 2246.87,345.408 2249.03,344.143 2251.19,342.895 2253.35,341.664 2255.51,340.449 2257.67,339.251 2259.83,338.068 2261.99,336.901 2264.16,335.75 2266.32,334.614 2268.48,333.493 2270.64,332.387 2272.8,331.295 2274.96,330.219 2277.12,329.156 2279.28,328.108 2281.44,327.074 2283.6,326.054 2285.77,325.047 2287.93,324.053 2290.09,323.073 2292.25,322.106 2294.41,321.152 2296.57,320.21 2298.73,319.281 2300.89,318.364 2303.05,317.46 2305.21,316.567 2307.38,315.686 2309.54,314.817 2311.7,313.96 2313.86,313.114 2316.02,312.279 2318.18,311.455 2320.34,310.642 2322.5,309.84 2324.66,309.048 2326.82,308.267 2328.99,307.496 2331.15,306.735 2333.31,305.984 2335.47,305.244 2337.63,304.512 2339.79,303.791 2341.95,303.079 2344.11,302.376 2346.27,301.683 2348.43,300.999 2350.59,300.324 2352.76,299.658 "/>
<polyline clip-path="url(#clip521)" style="stroke:#e26f46; stroke-linecap:round; stroke-linejoin:round; stroke-width:4; stroke-opacity:1; fill:none" points="193.936,1384.24 196.097,1384.24 198.258,1384.24 200.419,1384.24 202.58,1384.24 204.741,1384.24 206.902,1384.24 209.063,1384.24 211.224,1384.24 213.385,1384.24 215.546,1384.24 217.707,1384.24 219.868,1384.24 222.029,1384.24 224.19,1384.24 226.351,1384.24 228.512,1384.24 230.673,1384.24 232.834,1384.24 234.995,1384.24 237.156,1384.24 239.317,1384.24 241.478,1384.24 243.639,1384.24 245.8,1384.24 247.961,1384.24 250.122,1384.24 252.282,1384.24 254.443,1384.24 256.604,1384.24 258.765,1384.24 260.926,1384.24 263.087,1384.24 265.248,1384.24 267.409,1384.24 269.57,1384.24 271.731,1384.24 273.892,1384.24 276.053,1384.24 278.214,1384.24 280.375,1384.24 282.536,1384.24 284.697,1384.24 286.858,1384.24 289.019,1384.24 291.18,1384.24 293.341,1384.24 295.502,1384.24 297.663,1384.24 299.824,1384.24 301.985,1384.24 304.146,1384.24 306.307,1384.24 308.468,1384.24 310.629,1384.24 312.79,1384.24 314.951,1384.24 317.112,1384.24 319.273,1384.24 321.434,1384.24 323.595,1384.24 325.756,1384.24 327.917,1384.24 330.078,1384.24 332.239,1384.24 334.4,1384.24 336.561,1384.24 338.722,1384.24 340.883,1384.24 343.044,1384.24 345.205,1384.24 347.366,1384.24 349.527,1384.24 351.688,1384.24 353.849,1384.24 356.01,1384.24 358.171,1384.24 360.332,1384.24 362.493,1384.24 364.653,1384.24 366.814,1384.24 368.975,1384.24 371.136,1384.24 373.297,1384.24 375.458,1384.24 377.619,1384.24 379.78,1384.24 381.941,1384.24 384.102,1384.24 386.263,1384.24 388.424,1384.24 390.585,1384.24 392.746,1384.24 394.907,1384.24 397.068,1384.24 399.229,1384.24 401.39,1384.24 403.551,1384.24 405.712,1384.24 407.873,1384.24 410.034,507.935 412.195,507.935 414.356,507.935 416.517,507.935 418.678,507.935 420.839,507.935 423,507.935 425.161,507.935 427.322,507.935 429.483,507.935 431.644,507.935 433.805,507.935 435.966,507.935 438.127,507.935 440.288,507.935 442.449,507.935 444.61,507.935 446.771,507.935 448.932,507.935 451.093,507.935 453.254,507.935 455.415,507.935 457.576,507.935 459.737,507.935 461.898,507.935 464.059,507.935 466.22,507.935 468.381,507.935 470.542,507.935 472.703,507.935 474.864,507.935 477.024,507.935 479.185,507.935 481.346,507.935 483.507,507.935 485.668,507.935 487.829,507.935 489.99,507.935 492.151,507.935 494.312,507.935 496.473,507.935 498.634,507.935 500.795,507.935 502.956,507.935 505.117,507.935 507.278,507.935 509.439,507.935 511.6,507.935 513.761,507.935 515.922,507.935 518.083,507.935 520.244,507.935 522.405,507.935 524.566,507.935 526.727,507.935 528.888,507.935 531.049,507.935 533.21,507.935 535.371,507.935 537.532,507.935 539.693,507.935 541.854,507.935 544.015,507.935 546.176,507.935 548.337,507.935 550.498,507.935 552.659,507.935 554.82,507.935 556.981,507.935 559.142,507.935 561.303,507.935 563.464,507.935 565.625,507.935 567.786,507.935 569.947,507.935 572.108,507.935 574.269,507.935 576.43,507.935 578.591,507.935 580.752,507.935 582.913,507.935 585.074,507.935 587.235,507.935 589.396,507.935 591.556,507.935 593.717,507.935 595.878,507.935 598.039,507.935 600.2,507.935 602.361,507.935 604.522,507.935 606.683,507.935 608.844,507.935 611.005,507.935 613.166,507.935 615.327,507.935 617.488,507.935 619.649,507.935 621.81,507.935 623.971,507.935 626.132,86.1857 628.293,86.1857 630.454,86.1857 632.615,86.1857 634.776,86.1857 636.937,86.1857 639.098,86.1857 641.259,86.1857 643.42,86.1857 645.581,86.1857 647.742,86.1857 649.903,86.1857 652.064,86.1857 654.225,86.1857 656.386,86.1857 658.547,86.1857 660.708,86.1857 662.869,86.1857 665.03,86.1857 667.191,86.1857 669.352,86.1857 671.513,86.1857 673.674,86.1857 675.835,86.1857 677.996,86.1857 680.157,86.1857 682.318,86.1857 684.479,86.1857 686.64,86.1857 688.801,86.1857 690.962,86.1857 693.123,86.1857 695.284,86.1857 697.445,86.1857 699.606,86.1857 701.767,86.1857 703.927,86.1857 706.088,86.1857 708.249,86.1857 710.41,86.1857 712.571,86.1857 714.732,86.1857 716.893,86.1857 719.054,86.1857 721.215,86.1857 723.376,86.1857 725.537,86.1857 727.698,86.1857 729.859,86.1857 732.02,86.1857 734.181,86.1857 736.342,86.1857 738.503,86.1857 740.664,86.1857 742.825,86.1857 744.986,86.1857 747.147,86.1857 749.308,86.1857 751.469,86.1857 753.63,86.1857 755.791,86.1857 757.952,86.1857 760.113,86.1857 762.274,86.1857 764.435,86.1857 766.596,86.1857 768.757,86.1857 770.918,86.1857 773.079,86.1857 775.24,86.1857 777.401,86.1857 779.562,86.1857 781.723,86.1857 783.884,86.1857 786.045,86.1857 788.206,86.1857 790.367,86.1857 792.528,86.1857 794.689,86.1857 796.85,86.1857 799.011,86.1857 801.172,86.1857 803.333,86.1857 805.494,86.1857 807.655,86.1857 809.816,86.1857 811.977,86.1857 814.138,86.1857 816.298,86.1857 818.459,86.1857 820.62,86.1857 822.781,86.1857 824.942,86.1857 827.103,86.1857 829.264,86.1857 831.425,86.1857 833.586,86.1857 835.747,86.1857 837.908,86.1857 840.069,86.1857 842.23,546.473 844.391,546.473 846.552,546.473 848.713,546.473 850.874,546.473 853.035,546.473 855.196,546.473 857.357,546.473 859.518,546.473 861.679,546.473 863.84,546.473 866.001,546.473 868.162,546.473 870.323,546.473 872.484,546.473 874.645,546.473 876.806,546.473 878.967,546.473 881.128,546.473 883.289,546.473 885.45,546.473 887.611,546.473 889.772,546.473 891.933,546.473 894.094,546.473 896.255,546.473 898.416,546.473 900.577,546.473 902.738,546.473 904.899,546.473 907.06,546.473 909.221,546.473 911.382,546.473 913.543,546.473 915.704,546.473 917.865,546.473 920.026,546.473 922.187,546.473 924.348,546.473 926.509,546.473 928.669,546.473 930.83,546.473 932.991,546.473 935.152,546.473 937.313,546.473 939.474,546.473 941.635,546.473 943.796,546.473 945.957,546.473 948.118,546.473 950.279,546.473 952.44,546.473 954.601,546.473 956.762,546.473 958.923,546.473 961.084,546.473 963.245,546.473 965.406,546.473 967.567,546.473 969.728,546.473 971.889,546.473 974.05,546.473 976.211,546.473 978.372,546.473 980.533,546.473 982.694,546.473 984.855,546.473 987.016,546.473 989.177,546.473 991.338,546.473 993.499,546.473 995.66,546.473 997.821,546.473 999.982,546.473 1002.14,546.473 1004.3,546.473 1006.46,546.473 1008.63,546.473 1010.79,546.473 1012.95,546.473 1015.11,546.473 1017.27,546.473 1019.43,546.473 1021.59,546.473 1023.75,546.473 1025.91,546.473 1028.07,546.473 1030.24,546.473 1032.4,546.473 1034.56,546.473 1036.72,546.473 1038.88,546.473 1041.04,546.473 1043.2,546.473 1045.36,546.473 1047.52,546.473 1049.68,546.473 1051.85,546.473 1054.01,546.473 1056.17,546.473 1058.33,771.88 1060.49,771.88 1062.65,771.88 1064.81,771.88 1066.97,771.88 1069.13,771.88 1071.29,771.88 1073.46,771.88 1075.62,771.88 1077.78,771.88 1079.94,771.88 1082.1,771.88 1084.26,771.88 1086.42,771.88 1088.58,771.88 1090.74,771.88 1092.9,771.88 1095.07,771.88 1097.23,771.88 1099.39,771.88 1101.55,771.88 1103.71,771.88 1105.87,771.88 1108.03,771.88 1110.19,771.88 1112.35,771.88 1114.51,771.88 1116.67,771.88 1118.84,771.88 1121,771.88 1123.16,771.88 1125.32,771.88 1127.48,771.88 1129.64,771.88 1131.8,771.88 1133.96,771.88 1136.12,771.88 1138.28,771.88 1140.45,771.88 1142.61,771.88 1144.77,771.88 1146.93,771.88 1149.09,771.88 1151.25,771.88 1153.41,771.88 1155.57,771.88 1157.73,771.88 1159.89,771.88 1162.06,771.88 1164.22,771.88 1166.38,771.88 1168.54,771.88 1170.7,771.88 1172.86,771.88 1175.02,771.88 1177.18,771.88 1179.34,771.88 1181.5,771.88 1183.67,771.88 1185.83,771.88 1187.99,771.88 1190.15,771.88 1192.31,771.88 1194.47,771.88 1196.63,771.88 1198.79,771.88 1200.95,771.88 1203.11,771.88 1205.28,771.88 1207.44,771.88 1209.6,771.88 1211.76,771.88 1213.92,771.88 1216.08,771.88 1218.24,771.88 1220.4,771.88 1222.56,771.88 1224.72,771.88 1226.88,771.88 1229.05,771.88 1231.21,771.88 1233.37,771.88 1235.53,771.88 1237.69,771.88 1239.85,771.88 1242.01,771.88 1244.17,771.88 1246.33,771.88 1248.49,771.88 1250.66,771.88 1252.82,771.88 1254.98,771.88 1257.14,771.88 1259.3,771.88 1261.46,771.88 1263.62,771.88 1265.78,771.88 1267.94,771.88 1270.1,771.88 1272.27,771.88 1274.43,631.216 1276.59,631.216 1278.75,631.216 1280.91,631.216 1283.07,631.216 1285.23,631.216 1287.39,631.216 1289.55,631.216 1291.71,631.216 1293.88,631.216 1296.04,631.216 1298.2,631.216 1300.36,631.216 1302.52,631.216 1304.68,631.216 1306.84,631.216 1309,631.216 1311.16,631.216 1313.32,631.216 1315.49,631.216 1317.65,631.216 1319.81,631.216 1321.97,631.216 1324.13,631.216 1326.29,631.216 1328.45,631.216 1330.61,631.216 1332.77,631.216 1334.93,631.216 1337.09,631.216 1339.26,631.216 1341.42,631.216 1343.58,631.216 1345.74,631.216 1347.9,631.216 1350.06,631.216 1352.22,631.216 1354.38,631.216 1356.54,631.216 1358.7,631.216 1360.87,631.216 1363.03,631.216 1365.19,631.216 1367.35,631.216 1369.51,631.216 1371.67,631.216 1373.83,631.216 1375.99,631.216 1378.15,631.216 1380.31,631.216 1382.48,631.216 1384.64,631.216 1386.8,631.216 1388.96,631.216 1391.12,631.216 1393.28,631.216 1395.44,631.216 1397.6,631.216 1399.76,631.216 1401.92,631.216 1404.09,631.216 1406.25,631.216 1408.41,631.216 1410.57,631.216 1412.73,631.216 1414.89,631.216 1417.05,631.216 1419.21,631.216 1421.37,631.216 1423.53,631.216 1425.7,631.216 1427.86,631.216 1430.02,631.216 1432.18,631.216 1434.34,631.216 1436.5,631.216 1438.66,631.216 1440.82,631.216 1442.98,631.216 1445.14,631.216 1447.3,631.216 1449.47,631.216 1451.63,631.216 1453.79,631.216 1455.95,631.216 1458.11,631.216 1460.27,631.216 1462.43,631.216 1464.59,631.216 1466.75,631.216 1468.91,631.216 1471.08,631.216 1473.24,631.216 1475.4,631.216 1477.56,631.216 1479.72,631.216 1481.88,631.216 1484.04,631.216 1486.2,631.216 1488.36,631.216 1490.52,230.721 1492.69,230.721 1494.85,230.721 1497.01,230.721 1499.17,230.721 1501.33,230.721 1503.49,230.721 1505.65,230.721 1507.81,230.721 1509.97,230.721 1512.13,230.721 1514.3,230.721 1516.46,230.721 1518.62,230.721 1520.78,230.721 1522.94,230.721 1525.1,230.721 1527.26,230.721 1529.42,230.721 1531.58,230.721 1533.74,230.721 1535.91,230.721 1538.07,230.721 1540.23,230.721 1542.39,230.721 1544.55,230.721 1546.71,230.721 1548.87,230.721 1551.03,230.721 1553.19,230.721 1555.35,230.721 1557.51,230.721 1559.68,230.721 1561.84,230.721 1564,230.721 1566.16,230.721 1568.32,230.721 1570.48,230.721 1572.64,230.721 1574.8,230.721 1576.96,230.721 1579.12,230.721 1581.29,230.721 1583.45,230.721 1585.61,230.721 1587.77,230.721 1589.93,230.721 1592.09,230.721 1594.25,230.721 1596.41,230.721 1598.57,230.721 1600.73,230.721 1602.9,230.721 1605.06,230.721 1607.22,230.721 1609.38,230.721 1611.54,230.721 1613.7,230.721 1615.86,230.721 1618.02,230.721 1620.18,230.721 1622.34,230.721 1624.51,230.721 1626.67,230.721 1628.83,230.721 1630.99,230.721 1633.15,230.721 1635.31,230.721 1637.47,230.721 1639.63,230.721 1641.79,230.721 1643.95,230.721 1646.12,230.721 1648.28,230.721 1650.44,230.721 1652.6,230.721 1654.76,230.721 1656.92,230.721 1659.08,230.721 1661.24,230.721 1663.4,230.721 1665.56,230.721 1667.72,230.721 1669.89,230.721 1672.05,230.721 1674.21,230.721 1676.37,230.721 1678.53,230.721 1680.69,230.721 1682.85,230.721 1685.01,230.721 1687.17,230.721 1689.33,230.721 1691.5,230.721 1693.66,230.721 1695.82,230.721 1697.98,230.721 1700.14,230.721 1702.3,230.721 1704.46,230.721 1706.62,885.859 1708.78,885.859 1710.94,885.859 1713.11,885.859 1715.27,885.859 1717.43,885.859 1719.59,885.859 1721.75,885.859 1723.91,885.859 1726.07,885.859 1728.23,885.859 1730.39,885.859 1732.55,885.859 1734.72,885.859 1736.88,885.859 1739.04,885.859 1741.2,885.859 1743.36,885.859 1745.52,885.859 1747.68,885.859 1749.84,885.859 1752,885.859 1754.16,885.859 1756.33,885.859 1758.49,885.859 1760.65,885.859 1762.81,885.859 1764.97,885.859 1767.13,885.859 1769.29,885.859 1771.45,885.859 1773.61,885.859 1775.77,885.859 1777.93,885.859 1780.1,885.859 1782.26,885.859 1784.42,885.859 1786.58,885.859 1788.74,885.859 1790.9,885.859 1793.06,885.859 1795.22,885.859 1797.38,885.859 1799.54,885.859 1801.71,885.859 1803.87,885.859 1806.03,885.859 1808.19,885.859 1810.35,885.859 1812.51,885.859 1814.67,885.859 1816.83,885.859 1818.99,885.859 1821.15,885.859 1823.32,885.859 1825.48,885.859 1827.64,885.859 1829.8,885.859 1831.96,885.859 1834.12,885.859 1836.28,885.859 1838.44,885.859 1840.6,885.859 1842.76,885.859 1844.93,885.859 1847.09,885.859 1849.25,885.859 1851.41,885.859 1853.57,885.859 1855.73,885.859 1857.89,885.859 1860.05,885.859 1862.21,885.859 1864.37,885.859 1866.54,885.859 1868.7,885.859 1870.86,885.859 1873.02,885.859 1875.18,885.859 1877.34,885.859 1879.5,885.859 1881.66,885.859 1883.82,885.859 1885.98,885.859 1888.15,885.859 1890.31,885.859 1892.47,885.859 1894.63,885.859 1896.79,885.859 1898.95,885.859 1901.11,885.859 1903.27,885.859 1905.43,885.859 1907.59,885.859 1909.75,885.859 1911.92,885.859 1914.08,885.859 1916.24,885.859 1918.4,885.859 1920.56,885.859 1922.72,335.109 1924.88,335.109 1927.04,335.109 1929.2,335.109 1931.36,335.109 1933.53,335.109 1935.69,335.109 1937.85,335.109 1940.01,335.109 1942.17,335.109 1944.33,335.109 1946.49,335.109 1948.65,335.109 1950.81,335.109 1952.97,335.109 1955.14,335.109 1957.3,335.109 1959.46,335.109 1961.62,335.109 1963.78,335.109 1965.94,335.109 1968.1,335.109 1970.26,335.109 1972.42,335.109 1974.58,335.109 1976.75,335.109 1978.91,335.109 1981.07,335.109 1983.23,335.109 1985.39,335.109 1987.55,335.109 1989.71,335.109 1991.87,335.109 1994.03,335.109 1996.19,335.109 1998.36,335.109 2000.52,335.109 2002.68,335.109 2004.84,335.109 2007,335.109 2009.16,335.109 2011.32,335.109 2013.48,335.109 2015.64,335.109 2017.8,335.109 2019.96,335.109 2022.13,335.109 2024.29,335.109 2026.45,335.109 2028.61,335.109 2030.77,335.109 2032.93,335.109 2035.09,335.109 2037.25,335.109 2039.41,335.109 2041.57,335.109 2043.74,335.109 2045.9,335.109 2048.06,335.109 2050.22,335.109 2052.38,335.109 2054.54,335.109 2056.7,335.109 2058.86,335.109 2061.02,335.109 2063.18,335.109 2065.35,335.109 2067.51,335.109 2069.67,335.109 2071.83,335.109 2073.99,335.109 2076.15,335.109 2078.31,335.109 2080.47,335.109 2082.63,335.109 2084.79,335.109 2086.96,335.109 2089.12,335.109 2091.28,335.109 2093.44,335.109 2095.6,335.109 2097.76,335.109 2099.92,335.109 2102.08,335.109 2104.24,335.109 2106.4,335.109 2108.57,335.109 2110.73,335.109 2112.89,335.109 2115.05,335.109 2117.21,335.109 2119.37,335.109 2121.53,335.109 2123.69,335.109 2125.85,335.109 2128.01,335.109 2130.17,335.109 2132.34,335.109 2134.5,335.109 2136.66,335.109 2138.82,250.086 2140.98,250.086 2143.14,250.086 2145.3,250.086 2147.46,250.086 2149.62,250.086 2151.78,250.086 2153.95,250.086 2156.11,250.086 2158.27,250.086 2160.43,250.086 2162.59,250.086 2164.75,250.086 2166.91,250.086 2169.07,250.086 2171.23,250.086 2173.39,250.086 2175.56,250.086 2177.72,250.086 2179.88,250.086 2182.04,250.086 2184.2,250.086 2186.36,250.086 2188.52,250.086 2190.68,250.086 2192.84,250.086 2195,250.086 2197.17,250.086 2199.33,250.086 2201.49,250.086 2203.65,250.086 2205.81,250.086 2207.97,250.086 2210.13,250.086 2212.29,250.086 2214.45,250.086 2216.61,250.086 2218.78,250.086 2220.94,250.086 2223.1,250.086 2225.26,250.086 2227.42,250.086 2229.58,250.086 2231.74,250.086 2233.9,250.086 2236.06,250.086 2238.22,250.086 2240.38,250.086 2242.55,250.086 2244.71,250.086 2246.87,250.086 2249.03,250.086 2251.19,250.086 2253.35,250.086 2255.51,250.086 2257.67,250.086 2259.83,250.086 2261.99,250.086 2264.16,250.086 2266.32,250.086 2268.48,250.086 2270.64,250.086 2272.8,250.086 2274.96,250.086 2277.12,250.086 2279.28,250.086 2281.44,250.086 2283.6,250.086 2285.77,250.086 2287.93,250.086 2290.09,250.086 2292.25,250.086 2294.41,250.086 2296.57,250.086 2298.73,250.086 2300.89,250.086 2303.05,250.086 2305.21,250.086 2307.38,250.086 2309.54,250.086 2311.7,250.086 2313.86,250.086 2316.02,250.086 2318.18,250.086 2320.34,250.086 2322.5,250.086 2324.66,250.086 2326.82,250.086 2328.99,250.086 2331.15,250.086 2333.31,250.086 2335.47,250.086 2337.63,250.086 2339.79,250.086 2341.95,250.086 2344.11,250.086 2346.27,250.086 2348.43,250.086 2350.59,250.086 2352.76,250.086 "/>
<path clip-path="url(#clip520)" d="M2039.77 1377.32 L2280.8 1377.32 L2280.8 1221.8 L2039.77 1221.8  Z" fill="#ffffff" fill-rule="evenodd" fill-opacity="1"/>
<polyline clip-path="url(#clip520)" style="stroke:#000000; stroke-linecap:round; stroke-linejoin:round; stroke-width:4; stroke-opacity:1; fill:none" points="2039.77,1377.32 2280.8,1377.32 2280.8,1221.8 2039.77,1221.8 2039.77,1377.32 "/>
<polyline clip-path="url(#clip520)" style="stroke:#009af9; stroke-linecap:round; stroke-linejoin:round; stroke-width:4; stroke-opacity:1; fill:none" points="2063.76,1273.64 2207.68,1273.64 "/>
<path clip-path="url(#clip520)" d="M2256.32 1264.99 L2246.95 1277.61 L2256.81 1290.92 L2251.79 1290.92 L2244.24 1280.73 L2236.69 1290.92 L2231.67 1290.92 L2241.74 1277.35 L2232.53 1264.99 L2237.55 1264.99 L2244.42 1274.23 L2251.3 1264.99 L2256.32 1264.99 Z" fill="#000000" fill-rule="nonzero" fill-opacity="1" /><polyline clip-path="url(#clip520)" style="stroke:#e26f46; stroke-linecap:round; stroke-linejoin:round; stroke-width:4; stroke-opacity:1; fill:none" points="2063.76,1325.48 2207.68,1325.48 "/>
<path clip-path="url(#clip520)" d="M2248.17 1306.74 L2248.17 1310.28 L2244.1 1310.28 Q2241.81 1310.28 2240.91 1311.2 Q2240.03 1312.13 2240.03 1314.54 L2240.03 1316.83 L2247.04 1316.83 L2247.04 1320.14 L2240.03 1320.14 L2240.03 1342.76 L2235.74 1342.76 L2235.74 1320.14 L2231.67 1320.14 L2231.67 1316.83 L2235.74 1316.83 L2235.74 1315.02 Q2235.74 1310.7 2237.76 1308.73 Q2239.77 1306.74 2244.15 1306.74 L2248.17 1306.74 Z" fill="#000000" fill-rule="nonzero" fill-opacity="1" /></svg>
