<?xml version="1.0" encoding="utf-8"?>
<svg xmlns="http://www.w3.org/2000/svg" xmlns:xlink="http://www.w3.org/1999/xlink" width="600" height="400" viewBox="0 0 2400 1600">
<defs>
  <clipPath id="clip200">
    <rect x="0" y="0" width="2400" height="1600"/>
  </clipPath>
</defs>
<path clip-path="url(#clip200)" d="M0 1600 L2400 1600 L2400 0 L0 0  Z" fill="#ffffff" fill-rule="evenodd" fill-opacity="1"/>
<defs>
  <clipPath id="clip201">
    <rect x="480" y="0" width="1681" height="1600"/>
  </clipPath>
</defs>
<path clip-path="url(#clip200)" d="M193.936 1423.18 L2352.76 1423.18 L2352.76 47.2441 L193.936 47.2441  Z" fill="#ffffff" fill-rule="evenodd" fill-opacity="1"/>
<defs>
  <clipPath id="clip202">
    <rect x="193" y="47" width="2160" height="1377"/>
  </clipPath>
</defs>
<polyline clip-path="url(#clip202)" style="stroke:#000000; stroke-linecap:round; stroke-linejoin:round; stroke-width:2; stroke-opacity:0.1; fill:none" points="193.936,1423.18 193.936,47.2441 "/>
<polyline clip-path="url(#clip202)" style="stroke:#000000; stroke-linecap:round; stroke-linejoin:round; stroke-width:2; stroke-opacity:0.1; fill:none" points="625.7,1423.18 625.7,47.2441 "/>
<polyline clip-path="url(#clip202)" style="stroke:#000000; stroke-linecap:round; stroke-linejoin:round; stroke-width:2; stroke-opacity:0.1; fill:none" points="1057.46,1423.18 1057.46,47.2441 "/>
<polyline clip-path="url(#clip202)" style="stroke:#000000; stroke-linecap:round; stroke-linejoin:round; stroke-width:2; stroke-opacity:0.1; fill:none" points="1489.23,1423.18 1489.23,47.2441 "/>
<polyline clip-path="url(#clip202)" style="stroke:#000000; stroke-linecap:round; stroke-linejoin:round; stroke-width:2; stroke-opacity:0.1; fill:none" points="1920.99,1423.18 1920.99,47.2441 "/>
<polyline clip-path="url(#clip202)" style="stroke:#000000; stroke-linecap:round; stroke-linejoin:round; stroke-width:2; stroke-opacity:0.1; fill:none" points="2352.76,1423.18 2352.76,47.2441 "/>
<polyline clip-path="url(#clip202)" style="stroke:#000000; stroke-linecap:round; stroke-linejoin:round; stroke-width:2; stroke-opacity:0.1; fill:none" points="193.936,1391.3 2352.76,1391.3 "/>
<polyline clip-path="url(#clip202)" style="stroke:#000000; stroke-linecap:round; stroke-linejoin:round; stroke-width:2; stroke-opacity:0.1; fill:none" points="193.936,1158.86 2352.76,1158.86 "/>
<polyline clip-path="url(#clip202)" style="stroke:#000000; stroke-linecap:round; stroke-linejoin:round; stroke-width:2; stroke-opacity:0.1; fill:none" points="193.936,926.409 2352.76,926.409 "/>
<polyline clip-path="url(#clip202)" style="stroke:#000000; stroke-linecap:round; stroke-linejoin:round; stroke-width:2; stroke-opacity:0.1; fill:none" points="193.936,693.963 2352.76,693.963 "/>
<polyline clip-path="url(#clip202)" style="stroke:#000000; stroke-linecap:round; stroke-linejoin:round; stroke-width:2; stroke-opacity:0.1; fill:none" points="193.936,461.516 2352.76,461.516 "/>
<polyline clip-path="url(#clip202)" style="stroke:#000000; stroke-linecap:round; stroke-linejoin:round; stroke-width:2; stroke-opacity:0.1; fill:none" points="193.936,229.07 2352.76,229.07 "/>
<polyline clip-path="url(#clip200)" style="stroke:#000000; stroke-linecap:round; stroke-linejoin:round; stroke-width:4; stroke-opacity:1; fill:none" points="193.936,1423.18 2352.76,1423.18 "/>
<polyline clip-path="url(#clip200)" style="stroke:#000000; stroke-linecap:round; stroke-linejoin:round; stroke-width:4; stroke-opacity:1; fill:none" points="193.936,1423.18 193.936,1404.28 "/>
<polyline clip-path="url(#clip200)" style="stroke:#000000; stroke-linecap:round; stroke-linejoin:round; stroke-width:4; stroke-opacity:1; fill:none" points="625.7,1423.18 625.7,1404.28 "/>
<polyline clip-path="url(#clip200)" style="stroke:#000000; stroke-linecap:round; stroke-linejoin:round; stroke-width:4; stroke-opacity:1; fill:none" points="1057.46,1423.18 1057.46,1404.28 "/>
<polyline clip-path="url(#clip200)" style="stroke:#000000; stroke-linecap:round; stroke-linejoin:round; stroke-width:4; stroke-opacity:1; fill:none" points="1489.23,1423.18 1489.23,1404.28 "/>
<polyline clip-path="url(#clip200)" style="stroke:#000000; stroke-linecap:round; stroke-linejoin:round; stroke-width:4; stroke-opacity:1; fill:none" points="1920.99,1423.18 1920.99,1404.28 "/>
<polyline clip-path="url(#clip200)" style="stroke:#000000; stroke-linecap:round; stroke-linejoin:round; stroke-width:4; stroke-opacity:1; fill:none" points="2352.76,1423.18 2352.76,1404.28 "/>
<path clip-path="url(#clip200)" d="M193.936 1454.1 Q190.325 1454.1 188.496 1457.66 Q186.691 1461.2 186.691 1468.33 Q186.691 1475.44 188.496 1479.01 Q190.325 1482.55 193.936 1482.55 Q197.57 1482.55 199.376 1479.01 Q201.204 1475.44 201.204 1468.33 Q201.204 1461.2 199.376 1457.66 Q197.57 1454.1 193.936 1454.1 M193.936 1450.39 Q199.746 1450.39 202.802 1455 Q205.88 1459.58 205.88 1468.33 Q205.88 1477.06 202.802 1481.67 Q199.746 1486.25 193.936 1486.25 Q188.126 1486.25 185.047 1481.67 Q181.992 1477.06 181.992 1468.33 Q181.992 1459.58 185.047 1455 Q188.126 1450.39 193.936 1450.39 Z" fill="#000000" fill-rule="nonzero" fill-opacity="1" /><path clip-path="url(#clip200)" d="M620.353 1481.64 L636.672 1481.64 L636.672 1485.58 L614.728 1485.58 L614.728 1481.64 Q617.39 1478.89 621.973 1474.26 Q626.58 1469.61 627.76 1468.27 Q630.006 1465.74 630.885 1464.01 Q631.788 1462.25 631.788 1460.56 Q631.788 1457.8 629.843 1456.07 Q627.922 1454.33 624.82 1454.33 Q622.621 1454.33 620.168 1455.09 Q617.737 1455.86 614.959 1457.41 L614.959 1452.69 Q617.783 1451.55 620.237 1450.97 Q622.691 1450.39 624.728 1450.39 Q630.098 1450.39 633.293 1453.08 Q636.487 1455.77 636.487 1460.26 Q636.487 1462.39 635.677 1464.31 Q634.89 1466.2 632.783 1468.8 Q632.205 1469.47 629.103 1472.69 Q626.001 1475.88 620.353 1481.64 Z" fill="#000000" fill-rule="nonzero" fill-opacity="1" /><path clip-path="url(#clip200)" d="M1060.47 1455.09 L1048.67 1473.54 L1060.47 1473.54 L1060.47 1455.09 M1059.25 1451.02 L1065.13 1451.02 L1065.13 1473.54 L1070.06 1473.54 L1070.06 1477.43 L1065.13 1477.43 L1065.13 1485.58 L1060.47 1485.58 L1060.47 1477.43 L1044.87 1477.43 L1044.87 1472.92 L1059.25 1451.02 Z" fill="#000000" fill-rule="nonzero" fill-opacity="1" /><path clip-path="url(#clip200)" d="M1489.63 1466.44 Q1486.48 1466.44 1484.63 1468.59 Q1482.8 1470.74 1482.8 1474.49 Q1482.8 1478.22 1484.63 1480.39 Q1486.48 1482.55 1489.63 1482.55 Q1492.78 1482.55 1494.61 1480.39 Q1496.46 1478.22 1496.46 1474.49 Q1496.46 1470.74 1494.61 1468.59 Q1492.78 1466.44 1489.63 1466.44 M1498.92 1451.78 L1498.92 1456.04 Q1497.16 1455.21 1495.35 1454.77 Q1493.57 1454.33 1491.81 1454.33 Q1487.18 1454.33 1484.73 1457.45 Q1482.3 1460.58 1481.95 1466.9 Q1483.31 1464.89 1485.37 1463.82 Q1487.43 1462.73 1489.91 1462.73 Q1495.12 1462.73 1498.13 1465.9 Q1501.16 1469.05 1501.16 1474.49 Q1501.16 1479.82 1498.01 1483.03 Q1494.86 1486.25 1489.63 1486.25 Q1483.64 1486.25 1480.47 1481.67 Q1477.3 1477.06 1477.3 1468.33 Q1477.3 1460.14 1481.18 1455.28 Q1485.07 1450.39 1491.62 1450.39 Q1493.38 1450.39 1495.17 1450.74 Q1496.97 1451.09 1498.92 1451.78 Z" fill="#000000" fill-rule="nonzero" fill-opacity="1" /><path clip-path="url(#clip200)" d="M1920.99 1469.17 Q1917.66 1469.17 1915.74 1470.95 Q1913.84 1472.73 1913.84 1475.86 Q1913.84 1478.98 1915.74 1480.77 Q1917.66 1482.55 1920.99 1482.55 Q1924.33 1482.55 1926.25 1480.77 Q1928.17 1478.96 1928.17 1475.86 Q1928.17 1472.73 1926.25 1470.95 Q1924.35 1469.17 1920.99 1469.17 M1916.32 1467.18 Q1913.31 1466.44 1911.62 1464.38 Q1909.95 1462.32 1909.95 1459.35 Q1909.95 1455.21 1912.89 1452.8 Q1915.85 1450.39 1920.99 1450.39 Q1926.15 1450.39 1929.09 1452.8 Q1932.03 1455.21 1932.03 1459.35 Q1932.03 1462.32 1930.34 1464.38 Q1928.68 1466.44 1925.69 1467.18 Q1929.07 1467.96 1930.95 1470.26 Q1932.84 1472.55 1932.84 1475.86 Q1932.84 1480.88 1929.77 1483.57 Q1926.71 1486.25 1920.99 1486.25 Q1915.27 1486.25 1912.2 1483.57 Q1909.14 1480.88 1909.14 1475.86 Q1909.14 1472.55 1911.04 1470.26 Q1912.94 1467.96 1916.32 1467.18 M1914.6 1459.79 Q1914.6 1462.48 1916.27 1463.98 Q1917.96 1465.49 1920.99 1465.49 Q1924 1465.49 1925.69 1463.98 Q1927.4 1462.48 1927.4 1459.79 Q1927.4 1457.11 1925.69 1455.6 Q1924 1454.1 1920.99 1454.1 Q1917.96 1454.1 1916.27 1455.6 Q1914.6 1457.11 1914.6 1459.79 Z" fill="#000000" fill-rule="nonzero" fill-opacity="1" /><path clip-path="url(#clip200)" d="M2327.44 1481.64 L2335.08 1481.64 L2335.08 1455.28 L2326.77 1456.95 L2326.77 1452.69 L2335.04 1451.02 L2339.71 1451.02 L2339.71 1481.64 L2347.35 1481.64 L2347.35 1485.58 L2327.44 1485.58 L2327.44 1481.64 Z" fill="#000000" fill-rule="nonzero" fill-opacity="1" /><path clip-path="url(#clip200)" d="M2366.8 1454.1 Q2363.18 1454.1 2361.36 1457.66 Q2359.55 1461.2 2359.55 1468.33 Q2359.55 1475.44 2361.36 1479.01 Q2363.18 1482.55 2366.8 1482.55 Q2370.43 1482.55 2372.23 1479.01 Q2374.06 1475.44 2374.06 1468.33 Q2374.06 1461.2 2372.23 1457.66 Q2370.43 1454.1 2366.8 1454.1 M2366.8 1450.39 Q2372.61 1450.39 2375.66 1455 Q2378.74 1459.58 2378.74 1468.33 Q2378.74 1477.06 2375.66 1481.67 Q2372.61 1486.25 2366.8 1486.25 Q2360.99 1486.25 2357.91 1481.67 Q2354.85 1477.06 2354.85 1468.33 Q2354.85 1459.58 2357.91 1455 Q2360.99 1450.39 2366.8 1450.39 Z" fill="#000000" fill-rule="nonzero" fill-opacity="1" /><path clip-path="url(#clip200)" d="M1272.41 1522.27 L1272.41 1532.4 L1284.47 1532.4 L1284.47 1536.95 L1272.41 1536.95 L1272.41 1556.3 Q1272.41 1560.66 1273.58 1561.9 Q1274.79 1563.14 1278.45 1563.14 L1284.47 1563.14 L1284.47 1568.04 L1278.45 1568.04 Q1271.67 1568.04 1269.1 1565.53 Q1266.52 1562.98 1266.52 1556.3 L1266.52 1536.95 L1262.22 1536.95 L1262.22 1532.4 L1266.52 1532.4 L1266.52 1522.27 L1272.41 1522.27 Z" fill="#000000" fill-rule="nonzero" fill-opacity="1" /><polyline clip-path="url(#clip200)" style="stroke:#000000; stroke-linecap:round; stroke-linejoin:round; stroke-width:4; stroke-opacity:1; fill:none" points="193.936,1423.18 193.936,47.2441 "/>
<polyline clip-path="url(#clip200)" style="stroke:#000000; stroke-linecap:round; stroke-linejoin:round; stroke-width:4; stroke-opacity:1; fill:none" points="193.936,1391.3 212.834,1391.3 "/>
<polyline clip-path="url(#clip200)" style="stroke:#000000; stroke-linecap:round; stroke-linejoin:round; stroke-width:4; stroke-opacity:1; fill:none" points="193.936,1158.86 212.834,1158.86 "/>
<polyline clip-path="url(#clip200)" style="stroke:#000000; stroke-linecap:round; stroke-linejoin:round; stroke-width:4; stroke-opacity:1; fill:none" points="193.936,926.409 212.834,926.409 "/>
<polyline clip-path="url(#clip200)" style="stroke:#000000; stroke-linecap:round; stroke-linejoin:round; stroke-width:4; stroke-opacity:1; fill:none" points="193.936,693.963 212.834,693.963 "/>
<polyline clip-path="url(#clip200)" style="stroke:#000000; stroke-linecap:round; stroke-linejoin:round; stroke-width:4; stroke-opacity:1; fill:none" points="193.936,461.516 212.834,461.516 "/>
<polyline clip-path="url(#clip200)" style="stroke:#000000; stroke-linecap:round; stroke-linejoin:round; stroke-width:4; stroke-opacity:1; fill:none" points="193.936,229.07 212.834,229.07 "/>
<path clip-path="url(#clip200)" d="M50.9921 1391.75 L80.6679 1391.75 L80.6679 1395.69 L50.9921 1395.69 L50.9921 1391.75 Z" fill="#000000" fill-rule="nonzero" fill-opacity="1" /><path clip-path="url(#clip200)" d="M94.7882 1404.65 L111.108 1404.65 L111.108 1408.58 L89.1632 1408.58 L89.1632 1404.65 Q91.8252 1401.89 96.4085 1397.26 Q101.015 1392.61 102.196 1391.27 Q104.441 1388.74 105.321 1387.01 Q106.223 1385.25 106.223 1383.56 Q106.223 1380.8 104.279 1379.07 Q102.358 1377.33 99.2558 1377.33 Q97.0567 1377.33 94.603 1378.1 Q92.1725 1378.86 89.3947 1380.41 L89.3947 1375.69 Q92.2188 1374.55 94.6724 1373.98 Q97.1261 1373.4 99.1632 1373.4 Q104.534 1373.4 107.728 1376.08 Q110.922 1378.77 110.922 1383.26 Q110.922 1385.39 110.112 1387.31 Q109.325 1389.21 107.219 1391.8 Q106.64 1392.47 103.538 1395.69 Q100.436 1398.88 94.7882 1404.65 Z" fill="#000000" fill-rule="nonzero" fill-opacity="1" /><path clip-path="url(#clip200)" d="M120.922 1402.7 L125.807 1402.7 L125.807 1408.58 L120.922 1408.58 L120.922 1402.7 Z" fill="#000000" fill-rule="nonzero" fill-opacity="1" /><path clip-path="url(#clip200)" d="M145.992 1377.1 Q142.381 1377.1 140.552 1380.66 Q138.746 1384.21 138.746 1391.34 Q138.746 1398.44 140.552 1402.01 Q142.381 1405.55 145.992 1405.55 Q149.626 1405.55 151.431 1402.01 Q153.26 1398.44 153.26 1391.34 Q153.26 1384.21 151.431 1380.66 Q149.626 1377.1 145.992 1377.1 M145.992 1373.4 Q151.802 1373.4 154.857 1378 Q157.936 1382.59 157.936 1391.34 Q157.936 1400.06 154.857 1404.67 Q151.802 1409.25 145.992 1409.25 Q140.181 1409.25 137.103 1404.67 Q134.047 1400.06 134.047 1391.34 Q134.047 1382.59 137.103 1378 Q140.181 1373.4 145.992 1373.4 Z" fill="#000000" fill-rule="nonzero" fill-opacity="1" /><path clip-path="url(#clip200)" d="M51.9875 1159.31 L81.6633 1159.31 L81.6633 1163.24 L51.9875 1163.24 L51.9875 1159.31 Z" fill="#000000" fill-rule="nonzero" fill-opacity="1" /><path clip-path="url(#clip200)" d="M92.566 1172.2 L100.205 1172.2 L100.205 1145.83 L91.8947 1147.5 L91.8947 1143.24 L100.159 1141.58 L104.834 1141.58 L104.834 1172.2 L112.473 1172.2 L112.473 1176.14 L92.566 1176.14 L92.566 1172.2 Z" fill="#000000" fill-rule="nonzero" fill-opacity="1" /><path clip-path="url(#clip200)" d="M121.918 1170.26 L126.802 1170.26 L126.802 1176.14 L121.918 1176.14 L121.918 1170.26 Z" fill="#000000" fill-rule="nonzero" fill-opacity="1" /><path clip-path="url(#clip200)" d="M137.033 1141.58 L155.39 1141.58 L155.39 1145.51 L141.316 1145.51 L141.316 1153.98 Q142.334 1153.64 143.353 1153.47 Q144.371 1153.29 145.39 1153.29 Q151.177 1153.29 154.556 1156.46 Q157.936 1159.63 157.936 1165.05 Q157.936 1170.63 154.464 1173.73 Q150.992 1176.81 144.672 1176.81 Q142.496 1176.81 140.228 1176.44 Q137.982 1176.07 135.575 1175.32 L135.575 1170.63 Q137.658 1171.76 139.881 1172.32 Q142.103 1172.87 144.58 1172.87 Q148.584 1172.87 150.922 1170.76 Q153.26 1168.66 153.26 1165.05 Q153.26 1161.44 150.922 1159.33 Q148.584 1157.22 144.58 1157.22 Q142.705 1157.22 140.83 1157.64 Q138.978 1158.06 137.033 1158.94 L137.033 1141.58 Z" fill="#000000" fill-rule="nonzero" fill-opacity="1" /><path clip-path="url(#clip200)" d="M50.9921 926.86 L80.6679 926.86 L80.6679 930.795 L50.9921 930.795 L50.9921 926.86 Z" fill="#000000" fill-rule="nonzero" fill-opacity="1" /><path clip-path="url(#clip200)" d="M91.5706 939.754 L99.2095 939.754 L99.2095 913.388 L90.8993 915.055 L90.8993 910.795 L99.1632 909.129 L103.839 909.129 L103.839 939.754 L111.478 939.754 L111.478 943.689 L91.5706 943.689 L91.5706 939.754 Z" fill="#000000" fill-rule="nonzero" fill-opacity="1" /><path clip-path="url(#clip200)" d="M120.922 937.809 L125.807 937.809 L125.807 943.689 L120.922 943.689 L120.922 937.809 Z" fill="#000000" fill-rule="nonzero" fill-opacity="1" /><path clip-path="url(#clip200)" d="M145.992 912.208 Q142.381 912.208 140.552 915.772 Q138.746 919.314 138.746 926.444 Q138.746 933.55 140.552 937.115 Q142.381 940.656 145.992 940.656 Q149.626 940.656 151.431 937.115 Q153.26 933.55 153.26 926.444 Q153.26 919.314 151.431 915.772 Q149.626 912.208 145.992 912.208 M145.992 908.504 Q151.802 908.504 154.857 913.11 Q157.936 917.694 157.936 926.444 Q157.936 935.17 154.857 939.777 Q151.802 944.36 145.992 944.36 Q140.181 944.36 137.103 939.777 Q134.047 935.17 134.047 926.444 Q134.047 917.694 137.103 913.11 Q140.181 908.504 145.992 908.504 Z" fill="#000000" fill-rule="nonzero" fill-opacity="1" /><path clip-path="url(#clip200)" d="M51.9875 694.414 L81.6633 694.414 L81.6633 698.349 L51.9875 698.349 L51.9875 694.414 Z" fill="#000000" fill-rule="nonzero" fill-opacity="1" /><path clip-path="url(#clip200)" d="M101.756 679.761 Q98.1447 679.761 96.316 683.326 Q94.5104 686.868 94.5104 693.997 Q94.5104 701.104 96.316 704.668 Q98.1447 708.21 101.756 708.21 Q105.39 708.21 107.196 704.668 Q109.024 701.104 109.024 693.997 Q109.024 686.868 107.196 683.326 Q105.39 679.761 101.756 679.761 M101.756 676.058 Q107.566 676.058 110.621 680.664 Q113.7 685.247 113.7 693.997 Q113.7 702.724 110.621 707.331 Q107.566 711.914 101.756 711.914 Q95.9456 711.914 92.8669 707.331 Q89.8114 702.724 89.8114 693.997 Q89.8114 685.247 92.8669 680.664 Q95.9456 676.058 101.756 676.058 Z" fill="#000000" fill-rule="nonzero" fill-opacity="1" /><path clip-path="url(#clip200)" d="M121.918 705.363 L126.802 705.363 L126.802 711.243 L121.918 711.243 L121.918 705.363 Z" fill="#000000" fill-rule="nonzero" fill-opacity="1" /><path clip-path="url(#clip200)" d="M137.033 676.683 L155.39 676.683 L155.39 680.618 L141.316 680.618 L141.316 689.09 Q142.334 688.743 143.353 688.581 Q144.371 688.395 145.39 688.395 Q151.177 688.395 154.556 691.567 Q157.936 694.738 157.936 700.155 Q157.936 705.733 154.464 708.835 Q150.992 711.914 144.672 711.914 Q142.496 711.914 140.228 711.543 Q137.982 711.173 135.575 710.432 L135.575 705.733 Q137.658 706.868 139.881 707.423 Q142.103 707.979 144.58 707.979 Q148.584 707.979 150.922 705.872 Q153.26 703.766 153.26 700.155 Q153.26 696.544 150.922 694.437 Q148.584 692.331 144.58 692.331 Q142.705 692.331 140.83 692.747 Q138.978 693.164 137.033 694.044 L137.033 676.683 Z" fill="#000000" fill-rule="nonzero" fill-opacity="1" /><path clip-path="url(#clip200)" d="M100.76 447.315 Q97.1493 447.315 95.3206 450.88 Q93.515 454.421 93.515 461.551 Q93.515 468.657 95.3206 472.222 Q97.1493 475.764 100.76 475.764 Q104.395 475.764 106.2 472.222 Q108.029 468.657 108.029 461.551 Q108.029 454.421 106.2 450.88 Q104.395 447.315 100.76 447.315 M100.76 443.611 Q106.571 443.611 109.626 448.218 Q112.705 452.801 112.705 461.551 Q112.705 470.278 109.626 474.884 Q106.571 479.468 100.76 479.468 Q94.9502 479.468 91.8715 474.884 Q88.816 470.278 88.816 461.551 Q88.816 452.801 91.8715 448.218 Q94.9502 443.611 100.76 443.611 Z" fill="#000000" fill-rule="nonzero" fill-opacity="1" /><path clip-path="url(#clip200)" d="M120.922 472.917 L125.807 472.917 L125.807 478.796 L120.922 478.796 L120.922 472.917 Z" fill="#000000" fill-rule="nonzero" fill-opacity="1" /><path clip-path="url(#clip200)" d="M145.992 447.315 Q142.381 447.315 140.552 450.88 Q138.746 454.421 138.746 461.551 Q138.746 468.657 140.552 472.222 Q142.381 475.764 145.992 475.764 Q149.626 475.764 151.431 472.222 Q153.26 468.657 153.26 461.551 Q153.26 454.421 151.431 450.88 Q149.626 447.315 145.992 447.315 M145.992 443.611 Q151.802 443.611 154.857 448.218 Q157.936 452.801 157.936 461.551 Q157.936 470.278 154.857 474.884 Q151.802 479.468 145.992 479.468 Q140.181 479.468 137.103 474.884 Q134.047 470.278 134.047 461.551 Q134.047 452.801 137.103 448.218 Q140.181 443.611 145.992 443.611 Z" fill="#000000" fill-rule="nonzero" fill-opacity="1" /><path clip-path="url(#clip200)" d="M101.756 214.869 Q98.1447 214.869 96.316 218.433 Q94.5104 221.975 94.5104 229.105 Q94.5104 236.211 96.316 239.776 Q98.1447 243.318 101.756 243.318 Q105.39 243.318 107.196 239.776 Q109.024 236.211 109.024 229.105 Q109.024 221.975 107.196 218.433 Q105.39 214.869 101.756 214.869 M101.756 211.165 Q107.566 211.165 110.621 215.771 Q113.7 220.355 113.7 229.105 Q113.7 237.831 110.621 242.438 Q107.566 247.021 101.756 247.021 Q95.9456 247.021 92.8669 242.438 Q89.8114 237.831 89.8114 229.105 Q89.8114 220.355 92.8669 215.771 Q95.9456 211.165 101.756 211.165 Z" fill="#000000" fill-rule="nonzero" fill-opacity="1" /><path clip-path="url(#clip200)" d="M121.918 240.47 L126.802 240.47 L126.802 246.35 L121.918 246.35 L121.918 240.47 Z" fill="#000000" fill-rule="nonzero" fill-opacity="1" /><path clip-path="url(#clip200)" d="M137.033 211.79 L155.39 211.79 L155.39 215.725 L141.316 215.725 L141.316 224.197 Q142.334 223.85 143.353 223.688 Q144.371 223.503 145.39 223.503 Q151.177 223.503 154.556 226.674 Q157.936 229.845 157.936 235.262 Q157.936 240.841 154.464 243.943 Q150.992 247.021 144.672 247.021 Q142.496 247.021 140.228 246.651 Q137.982 246.28 135.575 245.54 L135.575 240.841 Q137.658 241.975 139.881 242.531 Q142.103 243.086 144.58 243.086 Q148.584 243.086 150.922 240.98 Q153.26 238.873 153.26 235.262 Q153.26 231.651 150.922 229.544 Q148.584 227.438 144.58 227.438 Q142.705 227.438 140.83 227.855 Q138.978 228.271 137.033 229.151 L137.033 211.79 Z" fill="#000000" fill-rule="nonzero" fill-opacity="1" /><polyline clip-path="url(#clip202)" style="stroke:#009af9; stroke-linecap:round; stroke-linejoin:round; stroke-width:4; stroke-opacity:1; fill:none" points="193.936,461.516 196.097,461.565 198.258,461.614 200.419,461.662 202.58,461.709 204.741,461.756 206.902,461.802 209.063,461.848 211.224,461.892 213.385,461.937 215.546,461.98 217.707,462.024 219.868,462.066 222.029,462.108 224.19,462.149 226.351,462.19 228.512,462.231 230.673,462.27 232.834,462.31 234.995,462.348 237.156,462.387 239.317,462.424 241.478,462.462 243.639,462.498 245.8,462.534 247.961,462.57 250.122,462.606 252.282,462.64 254.443,462.675 256.604,462.709 258.765,462.742 260.926,462.775 263.087,462.808 265.248,462.84 267.409,462.871 269.57,462.903 271.731,462.934 273.892,462.964 276.053,462.994 278.214,463.024 280.375,463.053 282.536,463.082 284.697,463.11 286.858,463.139 289.019,463.166 291.18,463.194 293.341,463.221 295.502,463.247 297.663,463.274 299.824,463.3 301.985,463.325 304.146,463.351 306.307,463.375 308.468,463.4 310.629,463.424 312.79,463.448 314.951,463.472 317.112,463.495 319.273,463.518 321.434,463.541 323.595,463.563 325.756,463.586 327.917,463.607 330.078,463.629 332.239,463.65 334.4,463.671 336.561,463.692 338.722,463.712 340.883,463.732 343.044,463.752 345.205,463.772 347.366,463.791 349.527,463.81 351.688,463.829 353.849,463.848 356.01,463.866 358.171,463.884 360.332,463.902 362.493,463.92 364.653,463.937 366.814,463.954 368.975,463.971 371.136,463.988 373.297,464.004 375.458,464.021 377.619,464.037 379.78,464.052 381.941,464.068 384.102,464.084 386.263,464.099 388.424,464.114 390.585,464.129 392.746,464.143 394.907,464.158 397.068,464.172 399.229,464.186 401.39,464.2 403.551,464.213 405.712,464.227 407.873,464.24 410.034,464.585 412.195,467.328 414.356,472.473 416.517,479.615 418.678,488.381 420.839,498.428 423,509.446 425.161,521.154 427.322,533.302 429.483,545.671 431.644,558.075 433.805,570.357 435.966,582.389 438.127,594.078 440.288,605.36 442.449,616.201 444.61,626.599 446.771,636.582 448.932,646.211 451.093,655.576 453.254,664.798 455.415,674.029 457.576,683.397 459.737,692.689 461.898,701.858 464.059,710.905 466.22,719.832 468.381,728.64 470.542,737.332 472.703,745.909 474.864,754.372 477.024,762.723 479.185,770.963 481.346,779.094 483.507,787.117 485.668,795.034 487.829,802.846 489.99,810.554 492.151,818.161 494.312,825.666 496.473,833.072 498.634,840.38 500.795,847.591 502.956,854.706 505.117,861.727 507.278,868.655 509.439,875.49 511.6,882.235 513.761,888.891 515.922,895.458 518.083,901.938 520.244,908.332 522.405,914.642 524.566,920.867 526.727,927.01 528.888,933.072 531.049,939.053 533.21,944.955 535.371,950.779 537.532,956.525 539.693,962.196 541.854,967.791 544.015,973.312 546.176,978.76 548.337,984.135 550.498,989.44 552.659,994.674 554.82,999.839 556.981,1004.94 559.142,1009.96 561.303,1014.93 563.464,1019.82 565.625,1024.65 567.786,1029.42 569.947,1034.13 572.108,1038.77 574.269,1043.35 576.43,1047.87 578.591,1052.33 580.752,1056.73 582.913,1061.07 585.074,1065.35 587.235,1069.58 589.396,1073.75 591.556,1077.87 593.717,1081.93 595.878,1085.94 598.039,1089.89 600.2,1093.8 602.361,1097.65 604.522,1101.45 606.683,1105.2 608.844,1108.9 611.005,1112.55 613.166,1116.15 615.327,1119.7 617.488,1121.63 619.649,1120.88 621.81,1117.77 623.971,1112.55 626.132,1105.51 628.293,1096.89 630.454,1086.93 632.615,1075.85 634.776,1063.86 636.937,1051.15 639.098,1037.89 641.259,1024.26 643.42,1010.41 645.581,996.454 647.742,982.526 649.903,968.728 652.064,955.15 654.225,941.867 656.386,928.94 658.547,916.415 660.708,904.323 662.869,892.682 665.03,881.494 667.191,870.746 669.352,860.411 671.513,850.447 673.674,840.798 675.835,831.393 677.996,822.145 680.157,812.955 682.318,803.708 684.479,794.29 686.64,784.902 688.801,775.638 690.962,766.498 693.123,757.478 695.284,748.578 697.445,739.796 699.606,731.13 701.767,722.58 703.927,714.142 706.088,705.817 708.249,697.602 710.41,689.496 712.571,681.497 714.732,673.604 716.893,665.816 719.054,658.132 721.215,650.549 723.376,643.066 725.537,635.683 727.698,628.397 729.859,621.208 732.02,614.114 734.181,607.113 736.342,600.206 738.503,593.39 740.664,586.664 742.825,580.028 744.986,573.479 747.147,567.018 749.308,560.642 751.469,554.351 753.63,548.143 755.791,542.018 757.952,535.974 760.113,530.01 762.274,524.126 764.435,518.32 766.596,512.591 768.757,506.938 770.918,501.359 773.079,495.856 775.24,490.425 777.401,485.066 779.562,479.778 781.723,474.561 783.884,469.413 786.045,464.333 788.206,459.32 790.367,454.374 792.528,449.493 794.689,444.678 796.85,439.925 799.011,435.236 801.172,430.609 803.333,426.044 805.494,421.539 807.655,417.093 809.816,412.706 811.977,408.377 814.138,404.106 816.298,399.891 818.459,395.732 820.62,391.628 822.781,387.578 824.942,383.583 827.103,379.64 829.264,375.749 831.425,371.91 833.586,368.122 835.747,364.384 837.908,360.696 840.069,357.137 842.23,355.975 844.391,357.405 846.552,360.441 848.713,364.294 850.874,368.368 853.035,372.264 855.196,375.777 857.357,378.895 859.518,381.805 861.679,384.837 863.84,387.903 866.001,390.928 868.162,393.913 870.323,396.858 872.484,399.764 874.645,402.632 876.806,405.462 878.967,408.254 881.128,411.009 883.289,413.728 885.45,416.41 887.611,419.057 889.772,421.669 891.933,424.246 894.094,426.789 896.255,429.299 898.416,431.775 900.577,434.218 902.738,436.629 904.899,439.008 907.06,441.355 909.221,443.671 911.382,445.957 913.543,448.212 915.704,450.437 917.865,452.633 920.026,454.8 922.187,456.938 924.348,459.048 926.509,461.129 928.669,463.183 930.83,465.21 932.991,467.21 935.152,469.184 937.313,471.131 939.474,473.053 941.635,474.949 943.796,476.819 945.957,478.665 948.118,480.487 950.279,482.285 952.44,484.058 954.601,485.808 956.762,487.535 958.923,489.239 961.084,490.921 963.245,492.58 965.406,494.217 967.567,495.832 969.728,497.426 971.889,498.999 974.05,500.551 976.211,502.082 978.372,503.594 980.533,505.085 982.694,506.556 984.855,508.008 987.016,509.441 989.177,510.854 991.338,512.249 993.499,513.625 995.66,514.984 997.821,516.324 999.982,517.646 1002.14,518.951 1004.3,520.238 1006.46,521.509 1008.63,522.762 1010.79,523.999 1012.95,525.22 1015.11,526.424 1017.27,527.612 1019.43,528.785 1021.59,529.942 1023.75,531.084 1025.91,532.211 1028.07,533.322 1030.24,534.419 1032.4,535.501 1034.56,536.57 1036.72,537.623 1038.88,538.663 1041.04,539.689 1043.2,540.702 1045.36,541.701 1047.52,542.687 1049.68,543.66 1051.85,544.829 1054.01,546.965 1056.17,549.988 1058.33,553.737 1060.49,558.063 1062.65,562.833 1064.81,567.924 1066.97,573.228 1069.13,578.651 1071.29,584.11 1073.46,589.535 1075.62,594.872 1077.78,600.078 1079.94,605.122 1082.1,609.989 1084.26,614.675 1086.42,619.191 1088.58,623.559 1090.74,627.816 1092.9,632.01 1095.07,636.205 1097.23,640.439 1099.39,644.627 1101.55,648.759 1103.71,652.837 1105.87,656.86 1108.03,660.831 1110.19,664.748 1112.35,668.614 1114.51,672.428 1116.67,676.192 1118.84,679.906 1121,683.571 1123.16,687.187 1125.32,690.755 1127.48,694.276 1129.64,697.751 1131.8,701.179 1133.96,704.562 1136.12,707.9 1138.28,711.194 1140.45,714.444 1142.61,717.651 1144.77,720.815 1146.93,723.938 1149.09,727.019 1151.25,730.059 1153.41,733.058 1155.57,736.018 1157.73,738.939 1159.89,741.821 1162.06,744.665 1164.22,747.471 1166.38,750.239 1168.54,752.971 1170.7,755.667 1172.86,758.327 1175.02,760.952 1177.18,763.542 1179.34,766.098 1181.5,768.62 1183.67,771.108 1185.83,773.563 1187.99,775.986 1190.15,778.377 1192.31,780.736 1194.47,783.064 1196.63,785.361 1198.79,787.627 1200.95,789.864 1203.11,792.071 1205.28,794.249 1207.44,796.397 1209.6,798.518 1211.76,800.61 1213.92,802.674 1216.08,804.711 1218.24,806.721 1220.4,808.705 1222.56,810.662 1224.72,812.593 1226.88,814.498 1229.05,816.379 1231.21,818.234 1233.37,820.065 1235.53,821.871 1237.69,823.654 1239.85,825.412 1242.01,827.148 1244.17,828.86 1246.33,830.55 1248.49,832.218 1250.66,833.863 1252.82,835.486 1254.98,837.088 1257.14,838.669 1259.3,840.229 1261.46,842.051 1263.62,845.064 1265.78,847.733 1267.94,848.7 1270.1,847.203 1272.27,843.067 1274.43,836.711 1276.59,829.146 1278.75,821.884 1280.91,815.007 1283.07,808.221 1285.23,801.525 1287.39,794.918 1289.55,788.399 1291.71,781.966 1293.88,775.618 1296.04,769.354 1298.2,763.173 1300.36,757.075 1302.52,751.057 1304.68,745.119 1306.84,739.259 1309,733.478 1311.16,727.773 1313.32,722.143 1315.49,716.589 1317.65,711.108 1319.81,705.7 1321.97,700.363 1324.13,695.097 1326.29,689.901 1328.45,684.774 1330.61,679.715 1332.77,674.723 1334.93,669.798 1337.09,664.937 1339.26,660.141 1341.42,655.409 1343.58,650.739 1345.74,646.131 1347.9,641.584 1350.06,637.098 1352.22,632.671 1354.38,628.303 1356.54,623.992 1358.7,619.739 1360.87,615.542 1363.03,611.4 1365.19,607.314 1367.35,603.282 1369.51,599.303 1371.67,595.377 1373.83,591.503 1375.99,587.68 1378.15,583.909 1380.31,580.187 1382.48,576.514 1384.64,572.89 1386.8,569.315 1388.96,565.786 1391.12,562.305 1393.28,558.869 1395.44,555.479 1397.6,552.134 1399.76,548.834 1401.92,545.577 1404.09,542.363 1406.25,539.192 1408.41,536.063 1410.57,532.976 1412.73,529.929 1414.89,526.923 1417.05,523.956 1419.21,521.029 1421.37,518.141 1423.53,515.291 1425.7,512.478 1427.86,509.703 1430.02,506.965 1432.18,504.263 1434.34,501.597 1436.5,498.967 1438.66,496.371 1440.82,493.81 1442.98,491.282 1445.14,488.788 1447.3,486.328 1449.47,483.9 1451.63,481.504 1453.79,479.14 1455.95,476.807 1458.11,474.505 1460.27,472.234 1462.43,469.993 1464.59,467.781 1466.75,465.599 1468.91,463.446 1471.08,461.321 1473.24,459.224 1475.4,457.156 1477.56,455.114 1479.72,453.1 1481.88,451.112 1484.04,449.151 1486.2,447.216 1488.36,445.306 1490.52,445.25 1492.69,446.698 1494.85,447.845 1497.01,449.008 1499.17,450.155 1501.33,451.288 1503.49,452.405 1505.65,453.508 1507.81,454.596 1509.97,455.669 1512.13,456.729 1514.3,457.774 1516.46,458.805 1518.62,459.823 1520.78,460.827 1522.94,461.818 1525.1,462.796 1527.26,463.761 1529.42,464.713 1531.58,465.652 1533.74,466.579 1535.91,467.494 1538.07,468.396 1540.23,469.287 1542.39,470.166 1544.55,471.033 1546.71,471.889 1548.87,472.733 1551.03,473.566 1553.19,474.388 1555.35,475.199 1557.51,475.999 1559.68,476.789 1561.84,477.569 1564,478.338 1566.16,479.096 1568.32,479.845 1570.48,480.584 1572.64,481.313 1574.8,482.032 1576.96,482.742 1579.12,483.442 1581.29,484.133 1583.45,484.815 1585.61,485.488 1587.77,486.152 1589.93,486.807 1592.09,487.454 1594.25,488.092 1596.41,488.721 1598.57,489.342 1600.73,489.955 1602.9,490.56 1605.06,491.157 1607.22,491.746 1609.38,492.327 1611.54,492.9 1613.7,493.466 1615.86,494.024 1618.02,494.575 1620.18,495.118 1622.34,495.654 1624.51,496.184 1626.67,496.706 1628.83,497.221 1630.99,497.729 1633.15,498.231 1635.31,498.726 1637.47,499.215 1639.63,499.697 1641.79,500.172 1643.95,500.641 1646.12,501.105 1648.28,501.561 1650.44,502.012 1652.6,502.457 1654.76,502.896 1656.92,503.329 1659.08,503.757 1661.24,504.179 1663.4,504.595 1665.56,505.005 1667.72,505.411 1669.89,505.81 1672.05,506.205 1674.21,506.594 1676.37,506.978 1678.53,507.358 1680.69,507.732 1682.85,508.101 1685.01,508.465 1687.17,508.824 1689.33,509.179 1691.5,509.529 1693.66,509.874 1695.82,510.215 1697.98,510.551 1700.14,510.897 1702.3,512.53 1704.46,516.034 1706.62,521.085 1708.78,527.384 1710.94,534.658 1713.11,542.66 1715.27,551.17 1717.43,559.993 1719.59,568.959 1721.75,577.925 1723.91,586.774 1726.07,595.413 1728.23,603.779 1730.39,611.83 1732.55,619.553 1734.72,626.96 1736.88,634.089 1739.04,641.004 1741.2,647.794 1743.36,654.575 1745.52,661.453 1747.68,668.281 1749.84,675.019 1752,681.667 1754.16,688.227 1756.33,694.701 1758.49,701.088 1760.65,707.391 1762.81,713.61 1764.97,719.746 1767.13,725.802 1769.29,731.777 1771.45,737.673 1773.61,743.491 1775.77,749.232 1777.93,754.896 1780.1,760.486 1782.26,766.002 1784.42,771.444 1786.58,776.814 1788.74,782.113 1790.9,787.342 1793.06,792.501 1795.22,797.592 1797.38,802.615 1799.54,807.572 1801.71,812.463 1803.87,817.289 1806.03,822.051 1808.19,826.749 1810.35,831.386 1812.51,835.961 1814.67,840.475 1816.83,844.929 1818.99,849.325 1821.15,853.662 1823.32,857.942 1825.48,862.164 1827.64,866.331 1829.8,870.443 1831.96,874.5 1834.12,878.504 1836.28,882.454 1838.44,886.352 1840.6,890.198 1842.76,893.994 1844.93,897.739 1847.09,901.435 1849.25,905.081 1851.41,908.679 1853.57,912.23 1855.73,915.733 1857.89,919.19 1860.05,922.601 1862.21,925.967 1864.37,929.289 1866.54,932.566 1868.7,935.8 1870.86,938.99 1873.02,942.139 1875.18,945.246 1877.34,948.311 1879.5,951.336 1881.66,954.321 1883.82,957.266 1885.98,960.173 1888.15,963.04 1890.31,965.87 1892.47,968.662 1894.63,971.417 1896.79,974.136 1898.95,976.818 1901.11,979.465 1903.27,982.067 1905.43,984.465 1907.59,986.62 1909.75,988.549 1911.92,990.271 1914.08,991.802 1916.24,993.16 1918.4,994.359 1920.56,995.415 1922.72,996.343 1924.88,997.156 1927.04,997.867 1929.2,998.489 1931.36,999.033 1933.53,999.51 1935.69,999.931 1937.85,1000.31 1940.01,1000.64 1942.17,1000.95 1944.33,1001.24 1946.49,1001.51 1948.65,1001.77 1950.81,1002.03 1952.97,1002.3 1955.14,1002.57 1957.3,1002.85 1959.46,1003.15 1961.62,1003.46 1963.78,1003.79 1965.94,1004.13 1968.1,1004.5 1970.26,1004.88 1972.42,1005.28 1974.58,1005.7 1976.75,1006.13 1978.91,1006.57 1981.07,1007.02 1983.23,1007.47 1985.39,1007.91 1987.55,1008.35 1989.71,1008.77 1991.87,1009.17 1994.03,1009.54 1996.19,1009.88 1998.36,1010.22 2000.52,1010.55 2002.68,1010.88 2004.84,1011.2 2007,1011.52 2009.16,1011.83 2011.32,1012.14 2013.48,1012.45 2015.64,1012.75 2017.8,1013.05 2019.96,1013.35 2022.13,1013.64 2024.29,1013.92 2026.45,1014.21 2028.61,1014.49 2030.77,1014.76 2032.93,1015.04 2035.09,1015.3 2037.25,1015.57 2039.41,1015.83 2041.57,1016.09 2043.74,1016.34 2045.9,1016.59 2048.06,1016.84 2050.22,1017.09 2052.38,1017.33 2054.54,1017.57 2056.7,1017.8 2058.86,1018.03 2061.02,1018.26 2063.18,1018.49 2065.35,1018.71 2067.51,1018.93 2069.67,1019.15 2071.83,1019.36 2073.99,1019.57 2076.15,1019.78 2078.31,1019.98 2080.47,1020.19 2082.63,1020.39 2084.79,1020.59 2086.96,1020.78 2089.12,1020.97 2091.28,1021.16 2093.44,1021.35 2095.6,1021.53 2097.76,1021.72 2099.92,1021.9 2102.08,1022.07 2104.24,1022.25 2106.4,1022.42 2108.57,1022.59 2110.73,1022.76 2112.89,1022.93 2115.05,1023.09 2117.21,1023.25 2119.37,1023.41 2121.53,1023.57 2123.69,1023.72 2125.85,1023.88 2128.01,1024.03 2130.17,1024.18 2132.34,1024.33 2134.5,1024.47 2136.66,1024.25 2138.82,1022.85 2140.98,1020.35 2143.14,1016.88 2145.3,1012.55 2147.46,1007.47 2149.62,1001.75 2151.78,995.483 2153.95,988.76 2156.11,981.668 2158.27,974.288 2160.43,966.694 2162.59,958.954 2164.75,951.131 2166.91,943.281 2169.07,935.457 2171.23,927.703 2173.39,920.057 2175.56,912.554 2177.72,905.221 2179.88,898.08 2182.04,891.147 2184.2,884.43 2186.36,877.935 2188.52,871.66 2190.68,865.597 2192.84,859.733 2195,854.048 2197.17,848.517 2199.33,843.109 2201.49,837.787 2203.65,832.508 2205.81,827.224 2207.97,821.881 2210.13,816.542 2212.29,811.274 2214.45,806.076 2216.61,800.946 2218.78,795.884 2220.94,790.89 2223.1,785.962 2225.26,781.099 2227.42,776.301 2229.58,771.566 2231.74,766.894 2233.9,762.284 2236.06,757.735 2238.22,753.246 2240.38,748.817 2242.55,744.446 2244.71,740.134 2246.87,735.878 2249.03,731.679 2251.19,727.535 2253.35,723.446 2255.51,719.411 2257.67,715.43 2259.83,711.501 2261.99,707.625 2264.16,703.8 2266.32,700.026 2268.48,696.302 2270.64,692.627 2272.8,689.001 2274.96,685.423 2277.12,681.893 2279.28,678.409 2281.44,674.972 2283.6,671.581 2285.77,668.235 2287.93,664.933 2290.09,661.675 2292.25,658.46 2294.41,655.288 2296.57,652.158 2298.73,649.069 2300.89,646.022 2303.05,643.015 2305.21,640.048 2307.38,637.12 2309.54,634.231 2311.7,631.38 2313.86,628.567 2316.02,625.792 2318.18,623.053 2320.34,620.351 2322.5,617.684 2324.66,615.052 2326.82,612.456 2328.99,609.894 2331.15,607.365 2333.31,604.871 2335.47,602.409 2337.63,599.979 2339.79,597.582 2341.95,595.217 2344.11,592.883 2346.27,590.58 2348.43,588.307 2350.59,586.065 2352.76,583.852 "/>
<polyline clip-path="url(#clip202)" style="stroke:#e26f46; stroke-linecap:round; stroke-linejoin:round; stroke-width:4; stroke-opacity:1; fill:none" points="193.936,465.231 196.097,465.231 198.258,465.231 200.419,465.231 202.58,465.231 204.741,465.231 206.902,465.231 209.063,465.231 211.224,465.231 213.385,465.231 215.546,465.231 217.707,465.231 219.868,465.231 222.029,465.231 224.19,465.231 226.351,465.231 228.512,465.231 230.673,465.231 232.834,465.231 234.995,465.231 237.156,465.231 239.317,465.231 241.478,465.231 243.639,465.231 245.8,465.231 247.961,465.231 250.122,465.231 252.282,465.231 254.443,465.231 256.604,465.231 258.765,465.231 260.926,465.231 263.087,465.231 265.248,465.231 267.409,465.231 269.57,465.231 271.731,465.231 273.892,465.231 276.053,465.231 278.214,465.231 280.375,465.231 282.536,465.231 284.697,465.231 286.858,465.231 289.019,465.231 291.18,465.231 293.341,465.231 295.502,465.231 297.663,465.231 299.824,465.231 301.985,465.231 304.146,465.231 306.307,465.231 308.468,465.231 310.629,465.231 312.79,465.231 314.951,465.231 317.112,465.231 319.273,465.231 321.434,465.231 323.595,465.231 325.756,465.231 327.917,465.231 330.078,465.231 332.239,465.231 334.4,465.231 336.561,465.231 338.722,465.231 340.883,465.231 343.044,465.231 345.205,465.231 347.366,465.231 349.527,465.231 351.688,465.231 353.849,465.231 356.01,465.231 358.171,465.231 360.332,465.231 362.493,465.231 364.653,465.231 366.814,465.231 368.975,465.231 371.136,465.231 373.297,465.231 375.458,465.231 377.619,465.231 379.78,465.231 381.941,465.231 384.102,465.231 386.263,465.231 388.424,465.231 390.585,465.231 392.746,465.231 394.907,465.231 397.068,465.231 399.229,465.231 401.39,465.231 403.551,465.231 405.712,465.231 407.873,465.231 410.034,1384.24 412.195,1384.24 414.356,1384.24 416.517,1384.24 418.678,1384.24 420.839,1384.24 423,1384.24 425.161,1384.24 427.322,1384.24 429.483,1384.24 431.644,1384.24 433.805,1384.24 435.966,1384.24 438.127,1384.24 440.288,1384.24 442.449,1384.24 444.61,1384.24 446.771,1384.24 448.932,1384.24 451.093,1384.24 453.254,1384.24 455.415,1384.24 457.576,1384.24 459.737,1384.24 461.898,1384.24 464.059,1384.24 466.22,1384.24 468.381,1384.24 470.542,1384.24 472.703,1384.24 474.864,1384.24 477.024,1384.24 479.185,1384.24 481.346,1384.24 483.507,1384.24 485.668,1384.24 487.829,1384.24 489.99,1384.24 492.151,1384.24 494.312,1384.24 496.473,1384.24 498.634,1384.24 500.795,1384.24 502.956,1384.24 505.117,1384.24 507.278,1384.24 509.439,1384.24 511.6,1384.24 513.761,1384.24 515.922,1384.24 518.083,1384.24 520.244,1384.24 522.405,1384.24 524.566,1384.24 526.727,1384.24 528.888,1384.24 531.049,1384.24 533.21,1384.24 535.371,1384.24 537.532,1384.24 539.693,1384.24 541.854,1384.24 544.015,1384.24 546.176,1384.24 548.337,1384.24 550.498,1384.24 552.659,1384.24 554.82,1384.24 556.981,1384.24 559.142,1384.24 561.303,1384.24 563.464,1384.24 565.625,1384.24 567.786,1384.24 569.947,1384.24 572.108,1384.24 574.269,1384.24 576.43,1384.24 578.591,1384.24 580.752,1384.24 582.913,1384.24 585.074,1384.24 587.235,1384.24 589.396,1384.24 591.556,1384.24 593.717,1384.24 595.878,1384.24 598.039,1384.24 600.2,1384.24 602.361,1384.24 604.522,1384.24 606.683,1384.24 608.844,1384.24 611.005,1384.24 613.166,1384.24 615.327,1384.24 617.488,1384.24 619.649,1384.24 621.81,1384.24 623.971,1384.24 626.132,86.1857 628.293,86.1857 630.454,86.1857 632.615,86.1857 634.776,86.1857 636.937,86.1857 639.098,86.1857 641.259,86.1857 643.42,86.1857 645.581,86.1857 647.742,86.1857 649.903,86.1857 652.064,86.1857 654.225,86.1857 656.386,86.1857 658.547,86.1857 660.708,86.1857 662.869,86.1857 665.03,86.1857 667.191,86.1857 669.352,86.1857 671.513,86.1857 673.674,86.1857 675.835,86.1857 677.996,86.1857 680.157,86.1857 682.318,86.1857 684.479,86.1857 686.64,86.1857 688.801,86.1857 690.962,86.1857 693.123,86.1857 695.284,86.1857 697.445,86.1857 699.606,86.1857 701.767,86.1857 703.927,86.1857 706.088,86.1857 708.249,86.1857 710.41,86.1857 712.571,86.1857 714.732,86.1857 716.893,86.1857 719.054,86.1857 721.215,86.1857 723.376,86.1857 725.537,86.1857 727.698,86.1857 729.859,86.1857 732.02,86.1857 734.181,86.1857 736.342,86.1857 738.503,86.1857 740.664,86.1857 742.825,86.1857 744.986,86.1857 747.147,86.1857 749.308,86.1857 751.469,86.1857 753.63,86.1857 755.791,86.1857 757.952,86.1857 760.113,86.1857 762.274,86.1857 764.435,86.1857 766.596,86.1857 768.757,86.1857 770.918,86.1857 773.079,86.1857 775.24,86.1857 777.401,86.1857 779.562,86.1857 781.723,86.1857 783.884,86.1857 786.045,86.1857 788.206,86.1857 790.367,86.1857 792.528,86.1857 794.689,86.1857 796.85,86.1857 799.011,86.1857 801.172,86.1857 803.333,86.1857 805.494,86.1857 807.655,86.1857 809.816,86.1857 811.977,86.1857 814.138,86.1857 816.298,86.1857 818.459,86.1857 820.62,86.1857 822.781,86.1857 824.942,86.1857 827.103,86.1857 829.264,86.1857 831.425,86.1857 833.586,86.1857 835.747,86.1857 837.908,86.1857 840.069,86.1857 842.23,616.061 844.391,616.061 846.552,616.061 848.713,616.061 850.874,616.061 853.035,616.061 855.196,616.061 857.357,616.061 859.518,616.061 861.679,616.061 863.84,616.061 866.001,616.061 868.162,616.061 870.323,616.061 872.484,616.061 874.645,616.061 876.806,616.061 878.967,616.061 881.128,616.061 883.289,616.061 885.45,616.061 887.611,616.061 889.772,616.061 891.933,616.061 894.094,616.061 896.255,616.061 898.416,616.061 900.577,616.061 902.738,616.061 904.899,616.061 907.06,616.061 909.221,616.061 911.382,616.061 913.543,616.061 915.704,616.061 917.865,616.061 920.026,616.061 922.187,616.061 924.348,616.061 926.509,616.061 928.669,616.061 930.83,616.061 932.991,616.061 935.152,616.061 937.313,616.061 939.474,616.061 941.635,616.061 943.796,616.061 945.957,616.061 948.118,616.061 950.279,616.061 952.44,616.061 954.601,616.061 956.762,616.061 958.923,616.061 961.084,616.061 963.245,616.061 965.406,616.061 967.567,616.061 969.728,616.061 971.889,616.061 974.05,616.061 976.211,616.061 978.372,616.061 980.533,616.061 982.694,616.061 984.855,616.061 987.016,616.061 989.177,616.061 991.338,616.061 993.499,616.061 995.66,616.061 997.821,616.061 999.982,616.061 1002.14,616.061 1004.3,616.061 1006.46,616.061 1008.63,616.061 1010.79,616.061 1012.95,616.061 1015.11,616.061 1017.27,616.061 1019.43,616.061 1021.59,616.061 1023.75,616.061 1025.91,616.061 1028.07,616.061 1030.24,616.061 1032.4,616.061 1034.56,616.061 1036.72,616.061 1038.88,616.061 1041.04,616.061 1043.2,616.061 1045.36,616.061 1047.52,616.061 1049.68,616.061 1051.85,616.061 1054.01,616.061 1056.17,616.061 1058.33,956.319 1060.49,956.319 1062.65,956.319 1064.81,956.319 1066.97,956.319 1069.13,956.319 1071.29,956.319 1073.46,956.319 1075.62,956.319 1077.78,956.319 1079.94,956.319 1082.1,956.319 1084.26,956.319 1086.42,956.319 1088.58,956.319 1090.74,956.319 1092.9,956.319 1095.07,956.319 1097.23,956.319 1099.39,956.319 1101.55,956.319 1103.71,956.319 1105.87,956.319 1108.03,956.319 1110.19,956.319 1112.35,956.319 1114.51,956.319 1116.67,956.319 1118.84,956.319 1121,956.319 1123.16,956.319 1125.32,956.319 1127.48,956.319 1129.64,956.319 1131.8,956.319 1133.96,956.319 1136.12,956.319 1138.28,956.319 1140.45,956.319 1142.61,956.319 1144.77,956.319 1146.93,956.319 1149.09,956.319 1151.25,956.319 1153.41,956.319 1155.57,956.319 1157.73,956.319 1159.89,956.319 1162.06,956.319 1164.22,956.319 1166.38,956.319 1168.54,956.319 1170.7,956.319 1172.86,956.319 1175.02,956.319 1177.18,956.319 1179.34,956.319 1181.5,956.319 1183.67,956.319 1185.83,956.319 1187.99,956.319 1190.15,956.319 1192.31,956.319 1194.47,956.319 1196.63,956.319 1198.79,956.319 1200.95,956.319 1203.11,956.319 1205.28,956.319 1207.44,956.319 1209.6,956.319 1211.76,956.319 1213.92,956.319 1216.08,956.319 1218.24,956.319 1220.4,956.319 1222.56,956.319 1224.72,956.319 1226.88,956.319 1229.05,956.319 1231.21,956.319 1233.37,956.319 1235.53,956.319 1237.69,956.319 1239.85,956.319 1242.01,956.319 1244.17,956.319 1246.33,956.319 1248.49,956.319 1250.66,956.319 1252.82,956.319 1254.98,956.319 1257.14,956.319 1259.3,956.319 1261.46,956.319 1263.62,956.319 1265.78,956.319 1267.94,956.319 1270.1,956.319 1272.27,956.319 1274.43,303.181 1276.59,303.181 1278.75,303.181 1280.91,303.181 1283.07,303.181 1285.23,303.181 1287.39,303.181 1289.55,303.181 1291.71,303.181 1293.88,303.181 1296.04,303.181 1298.2,303.181 1300.36,303.181 1302.52,303.181 1304.68,303.181 1306.84,303.181 1309,303.181 1311.16,303.181 1313.32,303.181 1315.49,303.181 1317.65,303.181 1319.81,303.181 1321.97,303.181 1324.13,303.181 1326.29,303.181 1328.45,303.181 1330.61,303.181 1332.77,303.181 1334.93,303.181 1337.09,303.181 1339.26,303.181 1341.42,303.181 1343.58,303.181 1345.74,303.181 1347.9,303.181 1350.06,303.181 1352.22,303.181 1354.38,303.181 1356.54,303.181 1358.7,303.181 1360.87,303.181 1363.03,303.181 1365.19,303.181 1367.35,303.181 1369.51,303.181 1371.67,303.181 1373.83,303.181 1375.99,303.181 1378.15,303.181 1380.31,303.181 1382.48,303.181 1384.64,303.181 1386.8,303.181 1388.96,303.181 1391.12,303.181 1393.28,303.181 1395.44,303.181 1397.6,303.181 1399.76,303.181 1401.92,303.181 1404.09,303.181 1406.25,303.181 1408.41,303.181 1410.57,303.181 1412.73,303.181 1414.89,303.181 1417.05,303.181 1419.21,303.181 1421.37,303.181 1423.53,303.181 1425.7,303.181 1427.86,303.181 1430.02,303.181 1432.18,303.181 1434.34,303.181 1436.5,303.181 1438.66,303.181 1440.82,303.181 1442.98,303.181 1445.14,303.181 1447.3,303.181 1449.47,303.181 1451.63,303.181 1453.79,303.181 1455.95,303.181 1458.11,303.181 1460.27,303.181 1462.43,303.181 1464.59,303.181 1466.75,303.181 1468.91,303.181 1471.08,303.181 1473.24,303.181 1475.4,303.181 1477.56,303.181 1479.72,303.181 1481.88,303.181 1484.04,303.181 1486.2,303.181 1488.36,303.181 1490.52,535.569 1492.69,535.569 1494.85,535.569 1497.01,535.569 1499.17,535.569 1501.33,535.569 1503.49,535.569 1505.65,535.569 1507.81,535.569 1509.97,535.569 1512.13,535.569 1514.3,535.569 1516.46,535.569 1518.62,535.569 1520.78,535.569 1522.94,535.569 1525.1,535.569 1527.26,535.569 1529.42,535.569 1531.58,535.569 1533.74,535.569 1535.91,535.569 1538.07,535.569 1540.23,535.569 1542.39,535.569 1544.55,535.569 1546.71,535.569 1548.87,535.569 1551.03,535.569 1553.19,535.569 1555.35,535.569 1557.51,535.569 1559.68,535.569 1561.84,535.569 1564,535.569 1566.16,535.569 1568.32,535.569 1570.48,535.569 1572.64,535.569 1574.8,535.569 1576.96,535.569 1579.12,535.569 1581.29,535.569 1583.45,535.569 1585.61,535.569 1587.77,535.569 1589.93,535.569 1592.09,535.569 1594.25,535.569 1596.41,535.569 1598.57,535.569 1600.73,535.569 1602.9,535.569 1605.06,535.569 1607.22,535.569 1609.38,535.569 1611.54,535.569 1613.7,535.569 1615.86,535.569 1618.02,535.569 1620.18,535.569 1622.34,535.569 1624.51,535.569 1626.67,535.569 1628.83,535.569 1630.99,535.569 1633.15,535.569 1635.31,535.569 1637.47,535.569 1639.63,535.569 1641.79,535.569 1643.95,535.569 1646.12,535.569 1648.28,535.569 1650.44,535.569 1652.6,535.569 1654.76,535.569 1656.92,535.569 1659.08,535.569 1661.24,535.569 1663.4,535.569 1665.56,535.569 1667.72,535.569 1669.89,535.569 1672.05,535.569 1674.21,535.569 1676.37,535.569 1678.53,535.569 1680.69,535.569 1682.85,535.569 1685.01,535.569 1687.17,535.569 1689.33,535.569 1691.5,535.569 1693.66,535.569 1695.82,535.569 1697.98,535.569 1700.14,535.569 1702.3,535.569 1704.46,535.569 1706.62,1176.47 1708.78,1176.47 1710.94,1176.47 1713.11,1176.47 1715.27,1176.47 1717.43,1176.47 1719.59,1176.47 1721.75,1176.47 1723.91,1176.47 1726.07,1176.47 1728.23,1176.47 1730.39,1176.47 1732.55,1176.47 1734.72,1176.47 1736.88,1176.47 1739.04,1176.47 1741.2,1176.47 1743.36,1176.47 1745.52,1176.47 1747.68,1176.47 1749.84,1176.47 1752,1176.47 1754.16,1176.47 1756.33,1176.47 1758.49,1176.47 1760.65,1176.47 1762.81,1176.47 1764.97,1176.47 1767.13,1176.47 1769.29,1176.47 1771.45,1176.47 1773.61,1176.47 1775.77,1176.47 1777.93,1176.47 1780.1,1176.47 1782.26,1176.47 1784.42,1176.47 1786.58,1176.47 1788.74,1176.47 1790.9,1176.47 1793.06,1176.47 1795.22,1176.47 1797.38,1176.47 1799.54,1176.47 1801.71,1176.47 1803.87,1176.47 1806.03,1176.47 1808.19,1176.47 1810.35,1176.47 1812.51,1176.47 1814.67,1176.47 1816.83,1176.47 1818.99,1176.47 1821.15,1176.47 1823.32,1176.47 1825.48,1176.47 1827.64,1176.47 1829.8,1176.47 1831.96,1176.47 1834.12,1176.47 1836.28,1176.47 1838.44,1176.47 1840.6,1176.47 1842.76,1176.47 1844.93,1176.47 1847.09,1176.47 1849.25,1176.47 1851.41,1176.47 1853.57,1176.47 1855.73,1176.47 1857.89,1176.47 1860.05,1176.47 1862.21,1176.47 1864.37,1176.47 1866.54,1176.47 1868.7,1176.47 1870.86,1176.47 1873.02,1176.47 1875.18,1176.47 1877.34,1176.47 1879.5,1176.47 1881.66,1176.47 1883.82,1176.47 1885.98,1176.47 1888.15,1176.47 1890.31,1176.47 1892.47,1176.47 1894.63,1176.47 1896.79,1176.47 1898.95,1176.47 1901.11,1176.47 1903.27,1176.47 1905.43,1176.47 1907.59,1176.47 1909.75,1176.47 1911.92,1176.47 1914.08,1176.47 1916.24,1176.47 1918.4,1176.47 1920.56,1176.47 1922.72,1035.28 1924.88,1035.28 1927.04,1035.28 1929.2,1035.28 1931.36,1035.28 1933.53,1035.28 1935.69,1035.28 1937.85,1035.28 1940.01,1035.28 1942.17,1035.28 1944.33,1035.28 1946.49,1035.28 1948.65,1035.28 1950.81,1035.28 1952.97,1035.28 1955.14,1035.28 1957.3,1035.28 1959.46,1035.28 1961.62,1035.28 1963.78,1035.28 1965.94,1035.28 1968.1,1035.28 1970.26,1035.28 1972.42,1035.28 1974.58,1035.28 1976.75,1035.28 1978.91,1035.28 1981.07,1035.28 1983.23,1035.28 1985.39,1035.28 1987.55,1035.28 1989.71,1035.28 1991.87,1035.28 1994.03,1035.28 1996.19,1035.28 1998.36,1035.28 2000.52,1035.28 2002.68,1035.28 2004.84,1035.28 2007,1035.28 2009.16,1035.28 2011.32,1035.28 2013.48,1035.28 2015.64,1035.28 2017.8,1035.28 2019.96,1035.28 2022.13,1035.28 2024.29,1035.28 2026.45,1035.28 2028.61,1035.28 2030.77,1035.28 2032.93,1035.28 2035.09,1035.28 2037.25,1035.28 2039.41,1035.28 2041.57,1035.28 2043.74,1035.28 2045.9,1035.28 2048.06,1035.28 2050.22,1035.28 2052.38,1035.28 2054.54,1035.28 2056.7,1035.28 2058.86,1035.28 2061.02,1035.28 2063.18,1035.28 2065.35,1035.28 2067.51,1035.28 2069.67,1035.28 2071.83,1035.28 2073.99,1035.28 2076.15,1035.28 2078.31,1035.28 2080.47,1035.28 2082.63,1035.28 2084.79,1035.28 2086.96,1035.28 2089.12,1035.28 2091.28,1035.28 2093.44,1035.28 2095.6,1035.28 2097.76,1035.28 2099.92,1035.28 2102.08,1035.28 2104.24,1035.28 2106.4,1035.28 2108.57,1035.28 2110.73,1035.28 2112.89,1035.28 2115.05,1035.28 2117.21,1035.28 2119.37,1035.28 2121.53,1035.28 2123.69,1035.28 2125.85,1035.28 2128.01,1035.28 2130.17,1035.28 2132.34,1035.28 2134.5,1035.28 2136.66,1035.28 2138.82,419.174 2140.98,419.174 2143.14,419.174 2145.3,419.174 2147.46,419.174 2149.62,419.174 2151.78,419.174 2153.95,419.174 2156.11,419.174 2158.27,419.174 2160.43,419.174 2162.59,419.174 2164.75,419.174 2166.91,419.174 2169.07,419.174 2171.23,419.174 2173.39,419.174 2175.56,419.174 2177.72,419.174 2179.88,419.174 2182.04,419.174 2184.2,419.174 2186.36,419.174 2188.52,419.174 2190.68,419.174 2192.84,419.174 2195,419.174 2197.17,419.174 2199.33,419.174 2201.49,419.174 2203.65,419.174 2205.81,419.174 2207.97,419.174 2210.13,419.174 2212.29,419.174 2214.45,419.174 2216.61,419.174 2218.78,419.174 2220.94,419.174 2223.1,419.174 2225.26,419.174 2227.42,419.174 2229.58,419.174 2231.74,419.174 2233.9,419.174 2236.06,419.174 2238.22,419.174 2240.38,419.174 2242.55,419.174 2244.71,419.174 2246.87,419.174 2249.03,419.174 2251.19,419.174 2253.35,419.174 2255.51,419.174 2257.67,419.174 2259.83,419.174 2261.99,419.174 2264.16,419.174 2266.32,419.174 2268.48,419.174 2270.64,419.174 2272.8,419.174 2274.96,419.174 2277.12,419.174 2279.28,419.174 2281.44,419.174 2283.6,419.174 2285.77,419.174 2287.93,419.174 2290.09,419.174 2292.25,419.174 2294.41,419.174 2296.57,419.174 2298.73,419.174 2300.89,419.174 2303.05,419.174 2305.21,419.174 2307.38,419.174 2309.54,419.174 2311.7,419.174 2313.86,419.174 2316.02,419.174 2318.18,419.174 2320.34,419.174 2322.5,419.174 2324.66,419.174 2326.82,419.174 2328.99,419.174 2331.15,419.174 2333.31,419.174 2335.47,419.174 2337.63,419.174 2339.79,419.174 2341.95,419.174 2344.11,419.174 2346.27,419.174 2348.43,419.174 2350.59,419.174 2352.76,419.174 "/>
<path clip-path="url(#clip200)" d="M2039.77 248.629 L2280.8 248.629 L2280.8 93.1086 L2039.77 93.1086  Z" fill="#ffffff" fill-rule="evenodd" fill-opacity="1"/>
<polyline clip-path="url(#clip200)" style="stroke:#000000; stroke-linecap:round; stroke-linejoin:round; stroke-width:4; stroke-opacity:1; fill:none" points="2039.77,248.629 2280.8,248.629 2280.8,93.1086 2039.77,93.1086 2039.77,248.629 "/>
<polyline clip-path="url(#clip200)" style="stroke:#009af9; stroke-linecap:round; stroke-linejoin:round; stroke-width:4; stroke-opacity:1; fill:none" points="2063.76,144.949 2207.68,144.949 "/>
<path clip-path="url(#clip200)" d="M2256.32 136.303 L2246.95 148.919 L2256.81 162.229 L2251.79 162.229 L2244.24 152.043 L2236.69 162.229 L2231.67 162.229 L2241.74 148.664 L2232.53 136.303 L2237.55 136.303 L2244.42 145.539 L2251.3 136.303 L2256.32 136.303 Z" fill="#000000" fill-rule="nonzero" fill-opacity="1" /><polyline clip-path="url(#clip200)" style="stroke:#e26f46; stroke-linecap:round; stroke-linejoin:round; stroke-width:4; stroke-opacity:1; fill:none" points="2063.76,196.789 2207.68,196.789 "/>
<path clip-path="url(#clip200)" d="M2248.17 178.05 L2248.17 181.592 L2244.1 181.592 Q2241.81 181.592 2240.91 182.518 Q2240.03 183.444 2240.03 185.851 L2240.03 188.143 L2247.04 188.143 L2247.04 191.453 L2240.03 191.453 L2240.03 214.069 L2235.74 214.069 L2235.74 191.453 L2231.67 191.453 L2231.67 188.143 L2235.74 188.143 L2235.74 186.337 Q2235.74 182.009 2237.76 180.041 Q2239.77 178.05 2244.15 178.05 L2248.17 178.05 Z" fill="#000000" fill-rule="nonzero" fill-opacity="1" /></svg>
