<?xml version="1.0" encoding="utf-8"?>
<svg xmlns="http://www.w3.org/2000/svg" xmlns:xlink="http://www.w3.org/1999/xlink" width="600" height="400" viewBox="0 0 2400 1600">
<defs>
  <clipPath id="clip410">
    <rect x="0" y="0" width="2400" height="1600"/>
  </clipPath>
</defs>
<path clip-path="url(#clip410)" d="M0 1600 L2400 1600 L2400 0 L0 0  Z" fill="#ffffff" fill-rule="evenodd" fill-opacity="1"/>
<defs>
  <clipPath id="clip411">
    <rect x="480" y="0" width="1681" height="1600"/>
  </clipPath>
</defs>
<path clip-path="url(#clip410)" d="M193.936 1423.18 L2352.76 1423.18 L2352.76 47.2441 L193.936 47.2441  Z" fill="#ffffff" fill-rule="evenodd" fill-opacity="1"/>
<defs>
  <clipPath id="clip412">
    <rect x="193" y="47" width="2160" height="1377"/>
  </clipPath>
</defs>
<polyline clip-path="url(#clip412)" style="stroke:#000000; stroke-linecap:round; stroke-linejoin:round; stroke-width:2; stroke-opacity:0.1; fill:none" points="193.936,1423.18 193.936,47.2441 "/>
<polyline clip-path="url(#clip412)" style="stroke:#000000; stroke-linecap:round; stroke-linejoin:round; stroke-width:2; stroke-opacity:0.1; fill:none" points="625.7,1423.18 625.7,47.2441 "/>
<polyline clip-path="url(#clip412)" style="stroke:#000000; stroke-linecap:round; stroke-linejoin:round; stroke-width:2; stroke-opacity:0.1; fill:none" points="1057.46,1423.18 1057.46,47.2441 "/>
<polyline clip-path="url(#clip412)" style="stroke:#000000; stroke-linecap:round; stroke-linejoin:round; stroke-width:2; stroke-opacity:0.1; fill:none" points="1489.23,1423.18 1489.23,47.2441 "/>
<polyline clip-path="url(#clip412)" style="stroke:#000000; stroke-linecap:round; stroke-linejoin:round; stroke-width:2; stroke-opacity:0.1; fill:none" points="1920.99,1423.18 1920.99,47.2441 "/>
<polyline clip-path="url(#clip412)" style="stroke:#000000; stroke-linecap:round; stroke-linejoin:round; stroke-width:2; stroke-opacity:0.1; fill:none" points="2352.76,1423.18 2352.76,47.2441 "/>
<polyline clip-path="url(#clip410)" style="stroke:#000000; stroke-linecap:round; stroke-linejoin:round; stroke-width:4; stroke-opacity:1; fill:none" points="193.936,1423.18 2352.76,1423.18 "/>
<polyline clip-path="url(#clip410)" style="stroke:#000000; stroke-linecap:round; stroke-linejoin:round; stroke-width:4; stroke-opacity:1; fill:none" points="193.936,1423.18 193.936,1404.28 "/>
<polyline clip-path="url(#clip410)" style="stroke:#000000; stroke-linecap:round; stroke-linejoin:round; stroke-width:4; stroke-opacity:1; fill:none" points="625.7,1423.18 625.7,1404.28 "/>
<polyline clip-path="url(#clip410)" style="stroke:#000000; stroke-linecap:round; stroke-linejoin:round; stroke-width:4; stroke-opacity:1; fill:none" points="1057.46,1423.18 1057.46,1404.28 "/>
<polyline clip-path="url(#clip410)" style="stroke:#000000; stroke-linecap:round; stroke-linejoin:round; stroke-width:4; stroke-opacity:1; fill:none" points="1489.23,1423.18 1489.23,1404.28 "/>
<polyline clip-path="url(#clip410)" style="stroke:#000000; stroke-linecap:round; stroke-linejoin:round; stroke-width:4; stroke-opacity:1; fill:none" points="1920.99,1423.18 1920.99,1404.28 "/>
<polyline clip-path="url(#clip410)" style="stroke:#000000; stroke-linecap:round; stroke-linejoin:round; stroke-width:4; stroke-opacity:1; fill:none" points="2352.76,1423.18 2352.76,1404.28 "/>
<path clip-path="url(#clip410)" d="M193.936 1454.1 Q190.325 1454.1 188.496 1457.66 Q186.691 1461.2 186.691 1468.33 Q186.691 1475.44 188.496 1479.01 Q190.325 1482.55 193.936 1482.55 Q197.57 1482.55 199.376 1479.01 Q201.204 1475.44 201.204 1468.33 Q201.204 1461.2 199.376 1457.66 Q197.57 1454.1 193.936 1454.1 M193.936 1450.39 Q199.746 1450.39 202.802 1455 Q205.88 1459.58 205.88 1468.33 Q205.88 1477.06 202.802 1481.67 Q199.746 1486.25 193.936 1486.25 Q188.126 1486.25 185.047 1481.67 Q181.992 1477.06 181.992 1468.33 Q181.992 1459.58 185.047 1455 Q188.126 1450.39 193.936 1450.39 Z" fill="#000000" fill-rule="nonzero" fill-opacity="1" /><path clip-path="url(#clip410)" d="M620.353 1481.64 L636.672 1481.64 L636.672 1485.58 L614.728 1485.58 L614.728 1481.64 Q617.39 1478.89 621.973 1474.26 Q626.58 1469.61 627.76 1468.27 Q630.006 1465.74 630.885 1464.01 Q631.788 1462.25 631.788 1460.56 Q631.788 1457.8 629.843 1456.07 Q627.922 1454.33 624.82 1454.33 Q622.621 1454.33 620.168 1455.09 Q617.737 1455.86 614.959 1457.41 L614.959 1452.69 Q617.783 1451.55 620.237 1450.97 Q622.691 1450.39 624.728 1450.39 Q630.098 1450.39 633.293 1453.08 Q636.487 1455.77 636.487 1460.26 Q636.487 1462.39 635.677 1464.31 Q634.89 1466.2 632.783 1468.8 Q632.205 1469.47 629.103 1472.69 Q626.001 1475.88 620.353 1481.64 Z" fill="#000000" fill-rule="nonzero" fill-opacity="1" /><path clip-path="url(#clip410)" d="M1060.47 1455.09 L1048.67 1473.54 L1060.47 1473.54 L1060.47 1455.09 M1059.25 1451.02 L1065.13 1451.02 L1065.13 1473.54 L1070.06 1473.54 L1070.06 1477.43 L1065.13 1477.43 L1065.13 1485.58 L1060.47 1485.58 L1060.47 1477.43 L1044.87 1477.43 L1044.87 1472.92 L1059.25 1451.02 Z" fill="#000000" fill-rule="nonzero" fill-opacity="1" /><path clip-path="url(#clip410)" d="M1489.63 1466.44 Q1486.48 1466.44 1484.63 1468.59 Q1482.8 1470.74 1482.8 1474.49 Q1482.8 1478.22 1484.63 1480.39 Q1486.48 1482.55 1489.63 1482.55 Q1492.78 1482.55 1494.61 1480.39 Q1496.46 1478.22 1496.46 1474.49 Q1496.46 1470.74 1494.61 1468.59 Q1492.78 1466.44 1489.63 1466.44 M1498.92 1451.78 L1498.92 1456.04 Q1497.16 1455.21 1495.35 1454.77 Q1493.57 1454.33 1491.81 1454.33 Q1487.18 1454.33 1484.73 1457.45 Q1482.3 1460.58 1481.95 1466.9 Q1483.31 1464.89 1485.37 1463.82 Q1487.43 1462.73 1489.91 1462.73 Q1495.12 1462.73 1498.13 1465.9 Q1501.16 1469.05 1501.16 1474.49 Q1501.16 1479.82 1498.01 1483.03 Q1494.86 1486.25 1489.63 1486.25 Q1483.64 1486.25 1480.47 1481.67 Q1477.3 1477.06 1477.3 1468.33 Q1477.3 1460.14 1481.18 1455.28 Q1485.07 1450.39 1491.62 1450.39 Q1493.38 1450.39 1495.17 1450.74 Q1496.97 1451.09 1498.92 1451.78 Z" fill="#000000" fill-rule="nonzero" fill-opacity="1" /><path clip-path="url(#clip410)" d="M1920.99 1469.17 Q1917.66 1469.17 1915.74 1470.95 Q1913.84 1472.73 1913.84 1475.86 Q1913.84 1478.98 1915.74 1480.77 Q1917.66 1482.55 1920.99 1482.55 Q1924.33 1482.55 1926.25 1480.77 Q1928.17 1478.96 1928.17 1475.86 Q1928.17 1472.73 1926.25 1470.95 Q1924.35 1469.17 1920.99 1469.17 M1916.32 1467.18 Q1913.31 1466.44 1911.62 1464.38 Q1909.95 1462.32 1909.95 1459.35 Q1909.95 1455.21 1912.89 1452.8 Q1915.85 1450.39 1920.99 1450.39 Q1926.15 1450.39 1929.09 1452.8 Q1932.03 1455.21 1932.03 1459.35 Q1932.03 1462.32 1930.34 1464.38 Q1928.68 1466.44 1925.69 1467.18 Q1929.07 1467.96 1930.95 1470.26 Q1932.84 1472.55 1932.84 1475.86 Q1932.84 1480.88 1929.77 1483.57 Q1926.71 1486.25 1920.99 1486.25 Q1915.27 1486.25 1912.2 1483.57 Q1909.14 1480.88 1909.14 1475.86 Q1909.14 1472.55 1911.04 1470.26 Q1912.94 1467.96 1916.32 1467.18 M1914.6 1459.79 Q1914.6 1462.48 1916.27 1463.98 Q1917.96 1465.49 1920.99 1465.49 Q1924 1465.49 1925.69 1463.98 Q1927.4 1462.48 1927.4 1459.79 Q1927.4 1457.11 1925.69 1455.6 Q1924 1454.1 1920.99 1454.1 Q1917.96 1454.1 1916.27 1455.6 Q1914.6 1457.11 1914.6 1459.79 Z" fill="#000000" fill-rule="nonzero" fill-opacity="1" /><path clip-path="url(#clip410)" d="M2327.44 1481.64 L2335.08 1481.64 L2335.08 1455.28 L2326.77 1456.95 L2326.77 1452.69 L2335.04 1451.02 L2339.71 1451.02 L2339.71 1481.64 L2347.35 1481.64 L2347.35 1485.58 L2327.44 1485.58 L2327.44 1481.64 Z" fill="#000000" fill-rule="nonzero" fill-opacity="1" /><path clip-path="url(#clip410)" d="M2366.8 1454.1 Q2363.18 1454.1 2361.36 1457.66 Q2359.55 1461.2 2359.55 1468.33 Q2359.55 1475.44 2361.36 1479.01 Q2363.18 1482.55 2366.8 1482.55 Q2370.43 1482.55 2372.23 1479.01 Q2374.06 1475.44 2374.06 1468.33 Q2374.06 1461.2 2372.23 1457.66 Q2370.43 1454.1 2366.8 1454.1 M2366.8 1450.39 Q2372.61 1450.39 2375.66 1455 Q2378.74 1459.58 2378.74 1468.33 Q2378.74 1477.06 2375.66 1481.67 Q2372.61 1486.25 2366.8 1486.25 Q2360.99 1486.25 2357.91 1481.67 Q2354.85 1477.06 2354.85 1468.33 Q2354.85 1459.58 2357.91 1455 Q2360.99 1450.39 2366.8 1450.39 Z" fill="#000000" fill-rule="nonzero" fill-opacity="1" /><path clip-path="url(#clip410)" d="M1272.41 1522.27 L1272.41 1532.4 L1284.47 1532.4 L1284.47 1536.95 L1272.41 1536.95 L1272.41 1556.3 Q1272.41 1560.66 1273.58 1561.9 Q1274.79 1563.14 1278.45 1563.14 L1284.47 1563.14 L1284.47 1568.04 L1278.45 1568.04 Q1271.67 1568.04 1269.1 1565.53 Q1266.52 1562.98 1266.52 1556.3 L1266.52 1536.95 L1262.22 1536.95 L1262.22 1532.4 L1266.52 1532.4 L1266.52 1522.27 L1272.41 1522.27 Z" fill="#000000" fill-rule="nonzero" fill-opacity="1" /><polyline clip-path="url(#clip412)" style="stroke:#000000; stroke-linecap:round; stroke-linejoin:round; stroke-width:2; stroke-opacity:0.1; fill:none" points="193.936,1313.26 2352.76,1313.26 "/>
<polyline clip-path="url(#clip412)" style="stroke:#000000; stroke-linecap:round; stroke-linejoin:round; stroke-width:2; stroke-opacity:0.1; fill:none" points="193.936,1056.66 2352.76,1056.66 "/>
<polyline clip-path="url(#clip412)" style="stroke:#000000; stroke-linecap:round; stroke-linejoin:round; stroke-width:2; stroke-opacity:0.1; fill:none" points="193.936,800.057 2352.76,800.057 "/>
<polyline clip-path="url(#clip412)" style="stroke:#000000; stroke-linecap:round; stroke-linejoin:round; stroke-width:2; stroke-opacity:0.1; fill:none" points="193.936,543.456 2352.76,543.456 "/>
<polyline clip-path="url(#clip412)" style="stroke:#000000; stroke-linecap:round; stroke-linejoin:round; stroke-width:2; stroke-opacity:0.1; fill:none" points="193.936,286.855 2352.76,286.855 "/>
<polyline clip-path="url(#clip410)" style="stroke:#000000; stroke-linecap:round; stroke-linejoin:round; stroke-width:4; stroke-opacity:1; fill:none" points="193.936,1423.18 193.936,47.2441 "/>
<polyline clip-path="url(#clip410)" style="stroke:#000000; stroke-linecap:round; stroke-linejoin:round; stroke-width:4; stroke-opacity:1; fill:none" points="193.936,1313.26 212.834,1313.26 "/>
<polyline clip-path="url(#clip410)" style="stroke:#000000; stroke-linecap:round; stroke-linejoin:round; stroke-width:4; stroke-opacity:1; fill:none" points="193.936,1056.66 212.834,1056.66 "/>
<polyline clip-path="url(#clip410)" style="stroke:#000000; stroke-linecap:round; stroke-linejoin:round; stroke-width:4; stroke-opacity:1; fill:none" points="193.936,800.057 212.834,800.057 "/>
<polyline clip-path="url(#clip410)" style="stroke:#000000; stroke-linecap:round; stroke-linejoin:round; stroke-width:4; stroke-opacity:1; fill:none" points="193.936,543.456 212.834,543.456 "/>
<polyline clip-path="url(#clip410)" style="stroke:#000000; stroke-linecap:round; stroke-linejoin:round; stroke-width:4; stroke-opacity:1; fill:none" points="193.936,286.855 212.834,286.855 "/>
<path clip-path="url(#clip410)" d="M50.9921 1313.71 L80.6679 1313.71 L80.6679 1317.65 L50.9921 1317.65 L50.9921 1313.71 Z" fill="#000000" fill-rule="nonzero" fill-opacity="1" /><path clip-path="url(#clip410)" d="M91.5706 1326.6 L99.2095 1326.6 L99.2095 1300.24 L90.8993 1301.9 L90.8993 1297.65 L99.1632 1295.98 L103.839 1295.98 L103.839 1326.6 L111.478 1326.6 L111.478 1330.54 L91.5706 1330.54 L91.5706 1326.6 Z" fill="#000000" fill-rule="nonzero" fill-opacity="1" /><path clip-path="url(#clip410)" d="M120.922 1324.66 L125.807 1324.66 L125.807 1330.54 L120.922 1330.54 L120.922 1324.66 Z" fill="#000000" fill-rule="nonzero" fill-opacity="1" /><path clip-path="url(#clip410)" d="M145.992 1299.06 Q142.381 1299.06 140.552 1302.62 Q138.746 1306.16 138.746 1313.29 Q138.746 1320.4 140.552 1323.96 Q142.381 1327.51 145.992 1327.51 Q149.626 1327.51 151.431 1323.96 Q153.26 1320.4 153.26 1313.29 Q153.26 1306.16 151.431 1302.62 Q149.626 1299.06 145.992 1299.06 M145.992 1295.35 Q151.802 1295.35 154.857 1299.96 Q157.936 1304.54 157.936 1313.29 Q157.936 1322.02 154.857 1326.63 Q151.802 1331.21 145.992 1331.21 Q140.181 1331.21 137.103 1326.63 Q134.047 1322.02 134.047 1313.29 Q134.047 1304.54 137.103 1299.96 Q140.181 1295.35 145.992 1295.35 Z" fill="#000000" fill-rule="nonzero" fill-opacity="1" /><path clip-path="url(#clip410)" d="M51.9875 1057.11 L81.6633 1057.11 L81.6633 1061.04 L51.9875 1061.04 L51.9875 1057.11 Z" fill="#000000" fill-rule="nonzero" fill-opacity="1" /><path clip-path="url(#clip410)" d="M101.756 1042.46 Q98.1447 1042.46 96.316 1046.02 Q94.5104 1049.56 94.5104 1056.69 Q94.5104 1063.8 96.316 1067.36 Q98.1447 1070.91 101.756 1070.91 Q105.39 1070.91 107.196 1067.36 Q109.024 1063.8 109.024 1056.69 Q109.024 1049.56 107.196 1046.02 Q105.39 1042.46 101.756 1042.46 M101.756 1038.75 Q107.566 1038.75 110.621 1043.36 Q113.7 1047.94 113.7 1056.69 Q113.7 1065.42 110.621 1070.03 Q107.566 1074.61 101.756 1074.61 Q95.9456 1074.61 92.8669 1070.03 Q89.8114 1065.42 89.8114 1056.69 Q89.8114 1047.94 92.8669 1043.36 Q95.9456 1038.75 101.756 1038.75 Z" fill="#000000" fill-rule="nonzero" fill-opacity="1" /><path clip-path="url(#clip410)" d="M121.918 1068.06 L126.802 1068.06 L126.802 1073.94 L121.918 1073.94 L121.918 1068.06 Z" fill="#000000" fill-rule="nonzero" fill-opacity="1" /><path clip-path="url(#clip410)" d="M137.033 1039.38 L155.39 1039.38 L155.39 1043.31 L141.316 1043.31 L141.316 1051.79 Q142.334 1051.44 143.353 1051.28 Q144.371 1051.09 145.39 1051.09 Q151.177 1051.09 154.556 1054.26 Q157.936 1057.43 157.936 1062.85 Q157.936 1068.43 154.464 1071.53 Q150.992 1074.61 144.672 1074.61 Q142.496 1074.61 140.228 1074.24 Q137.982 1073.87 135.575 1073.13 L135.575 1068.43 Q137.658 1069.56 139.881 1070.12 Q142.103 1070.67 144.58 1070.67 Q148.584 1070.67 150.922 1068.57 Q153.26 1066.46 153.26 1062.85 Q153.26 1059.24 150.922 1057.13 Q148.584 1055.03 144.58 1055.03 Q142.705 1055.03 140.83 1055.44 Q138.978 1055.86 137.033 1056.74 L137.033 1039.38 Z" fill="#000000" fill-rule="nonzero" fill-opacity="1" /><path clip-path="url(#clip410)" d="M100.76 785.856 Q97.1493 785.856 95.3206 789.42 Q93.515 792.962 93.515 800.092 Q93.515 807.198 95.3206 810.763 Q97.1493 814.304 100.76 814.304 Q104.395 814.304 106.2 810.763 Q108.029 807.198 108.029 800.092 Q108.029 792.962 106.2 789.42 Q104.395 785.856 100.76 785.856 M100.76 782.152 Q106.571 782.152 109.626 786.758 Q112.705 791.342 112.705 800.092 Q112.705 808.818 109.626 813.425 Q106.571 818.008 100.76 818.008 Q94.9502 818.008 91.8715 813.425 Q88.816 808.818 88.816 800.092 Q88.816 791.342 91.8715 786.758 Q94.9502 782.152 100.76 782.152 Z" fill="#000000" fill-rule="nonzero" fill-opacity="1" /><path clip-path="url(#clip410)" d="M120.922 811.457 L125.807 811.457 L125.807 817.337 L120.922 817.337 L120.922 811.457 Z" fill="#000000" fill-rule="nonzero" fill-opacity="1" /><path clip-path="url(#clip410)" d="M145.992 785.856 Q142.381 785.856 140.552 789.42 Q138.746 792.962 138.746 800.092 Q138.746 807.198 140.552 810.763 Q142.381 814.304 145.992 814.304 Q149.626 814.304 151.431 810.763 Q153.26 807.198 153.26 800.092 Q153.26 792.962 151.431 789.42 Q149.626 785.856 145.992 785.856 M145.992 782.152 Q151.802 782.152 154.857 786.758 Q157.936 791.342 157.936 800.092 Q157.936 808.818 154.857 813.425 Q151.802 818.008 145.992 818.008 Q140.181 818.008 137.103 813.425 Q134.047 808.818 134.047 800.092 Q134.047 791.342 137.103 786.758 Q140.181 782.152 145.992 782.152 Z" fill="#000000" fill-rule="nonzero" fill-opacity="1" /><path clip-path="url(#clip410)" d="M101.756 529.255 Q98.1447 529.255 96.316 532.819 Q94.5104 536.361 94.5104 543.491 Q94.5104 550.597 96.316 554.162 Q98.1447 557.703 101.756 557.703 Q105.39 557.703 107.196 554.162 Q109.024 550.597 109.024 543.491 Q109.024 536.361 107.196 532.819 Q105.39 529.255 101.756 529.255 M101.756 525.551 Q107.566 525.551 110.621 530.157 Q113.7 534.741 113.7 543.491 Q113.7 552.217 110.621 556.824 Q107.566 561.407 101.756 561.407 Q95.9456 561.407 92.8669 556.824 Q89.8114 552.217 89.8114 543.491 Q89.8114 534.741 92.8669 530.157 Q95.9456 525.551 101.756 525.551 Z" fill="#000000" fill-rule="nonzero" fill-opacity="1" /><path clip-path="url(#clip410)" d="M121.918 554.856 L126.802 554.856 L126.802 560.736 L121.918 560.736 L121.918 554.856 Z" fill="#000000" fill-rule="nonzero" fill-opacity="1" /><path clip-path="url(#clip410)" d="M137.033 526.176 L155.39 526.176 L155.39 530.111 L141.316 530.111 L141.316 538.583 Q142.334 538.236 143.353 538.074 Q144.371 537.889 145.39 537.889 Q151.177 537.889 154.556 541.06 Q157.936 544.231 157.936 549.648 Q157.936 555.227 154.464 558.328 Q150.992 561.407 144.672 561.407 Q142.496 561.407 140.228 561.037 Q137.982 560.666 135.575 559.926 L135.575 555.227 Q137.658 556.361 139.881 556.916 Q142.103 557.472 144.58 557.472 Q148.584 557.472 150.922 555.365 Q153.26 553.259 153.26 549.648 Q153.26 546.037 150.922 543.93 Q148.584 541.824 144.58 541.824 Q142.705 541.824 140.83 542.241 Q138.978 542.657 137.033 543.537 L137.033 526.176 Z" fill="#000000" fill-rule="nonzero" fill-opacity="1" /><path clip-path="url(#clip410)" d="M91.5706 300.2 L99.2095 300.2 L99.2095 273.834 L90.8993 275.501 L90.8993 271.241 L99.1632 269.575 L103.839 269.575 L103.839 300.2 L111.478 300.2 L111.478 304.135 L91.5706 304.135 L91.5706 300.2 Z" fill="#000000" fill-rule="nonzero" fill-opacity="1" /><path clip-path="url(#clip410)" d="M120.922 298.255 L125.807 298.255 L125.807 304.135 L120.922 304.135 L120.922 298.255 Z" fill="#000000" fill-rule="nonzero" fill-opacity="1" /><path clip-path="url(#clip410)" d="M145.992 272.654 Q142.381 272.654 140.552 276.218 Q138.746 279.76 138.746 286.89 Q138.746 293.996 140.552 297.561 Q142.381 301.102 145.992 301.102 Q149.626 301.102 151.431 297.561 Q153.26 293.996 153.26 286.89 Q153.26 279.76 151.431 276.218 Q149.626 272.654 145.992 272.654 M145.992 268.95 Q151.802 268.95 154.857 273.556 Q157.936 278.14 157.936 286.89 Q157.936 295.616 154.857 300.223 Q151.802 304.806 145.992 304.806 Q140.181 304.806 137.103 300.223 Q134.047 295.616 134.047 286.89 Q134.047 278.14 137.103 273.556 Q140.181 268.95 145.992 268.95 Z" fill="#000000" fill-rule="nonzero" fill-opacity="1" /><polyline clip-path="url(#clip412)" style="stroke:#009af9; stroke-linecap:round; stroke-linejoin:round; stroke-width:4; stroke-opacity:1; fill:none" points="193.936,800.057 196.097,805.171 198.258,810.191 200.419,815.083 202.58,819.911 204.741,824.734 206.902,829.611 209.063,834.492 211.224,839.086 213.385,843.553 215.546,847.92 217.707,852.212 219.868,856.453 222.029,860.668 224.19,864.884 226.351,869.125 228.512,873.415 230.673,877.782 232.834,882.248 234.995,886.533 237.156,890.436 239.317,894.227 241.478,897.923 243.639,901.537 245.8,905.084 247.961,908.578 250.122,912.034 252.282,915.468 254.443,918.892 256.604,922.322 258.765,925.773 260.926,929.258 263.087,932.793 265.248,936.392 267.409,940.07 269.57,943.84 271.731,947.358 273.892,950.469 276.053,953.489 278.214,956.429 280.375,959.296 282.536,962.1 284.697,964.849 286.858,967.552 289.019,970.218 291.18,972.856 293.341,975.475 295.502,978.083 297.663,980.689 299.824,983.302 301.985,985.93 304.146,988.583 306.307,991.27 308.468,993.999 310.629,996.778 312.79,999.618 314.951,1002.53 317.112,1005.51 319.273,1008.12 321.434,1010.43 323.595,1012.68 325.756,1014.87 327.917,1017 330.078,1019.08 332.239,1021.11 334.4,1023.1 336.561,1025.05 338.722,1026.98 340.883,1028.87 343.044,1030.74 345.205,1032.6 347.366,1034.45 349.527,1036.29 351.688,1038.12 353.849,1039.96 356.01,1041.81 358.171,1043.68 360.332,1045.56 362.493,1047.46 364.653,1049.39 366.814,1051.36 368.975,1053.36 371.136,1055.41 373.297,1057.51 375.458,1059.66 377.619,1061.86 379.78,1063.64 381.941,1065.23 384.102,1066.77 386.263,1068.29 388.424,1069.77 390.585,1071.24 392.746,1072.7 394.907,1074.16 397.068,1075.62 399.229,1077.1 401.39,1078.59 403.551,1080.12 405.712,1081.68 407.873,1083.04 410.034,1083.43 412.195,1082.88 414.356,1081.43 416.517,1079.14 418.678,1076.04 420.839,1072.18 423,1067.6 425.161,1062.36 427.322,1056.5 429.483,1050.06 431.644,1043.09 433.805,1035.64 435.966,1027.75 438.127,1019.46 440.288,1010.83 442.449,1001.89 444.61,992.704 446.771,983.304 448.932,973.74 451.093,964.057 453.254,954.301 455.415,944.518 457.576,934.753 459.737,925.053 461.898,915.463 464.059,906.029 466.22,896.796 468.381,889.446 470.542,883.251 472.703,877.223 474.864,871.332 477.024,865.549 479.185,859.843 481.346,854.187 483.507,848.551 485.668,842.904 487.829,837.218 489.99,831.464 492.151,825.611 494.312,819.631 496.473,813.495 498.634,808.203 500.795,803.085 502.956,798.111 505.117,793.273 507.278,788.562 509.439,783.968 511.6,779.483 513.761,775.097 515.922,770.802 518.083,766.588 520.244,762.446 522.405,758.368 524.566,754.343 526.727,750.364 528.888,746.421 531.049,742.505 533.21,738.607 535.371,734.718 537.532,730.829 539.693,726.931 541.854,723.014 544.015,719.071 546.176,715.09 548.337,711.065 550.498,706.985 552.659,702.842 554.82,698.626 556.981,694.329 559.142,689.941 561.303,685.453 563.464,680.857 565.625,676.143 567.786,671.302 569.947,667.269 572.108,663.958 574.269,660.736 576.43,657.588 578.591,654.496 580.752,651.445 582.913,648.418 585.074,645.4 587.235,642.374 589.396,639.324 591.556,636.235 593.717,633.089 595.878,629.871 598.039,626.702 600.2,623.904 602.361,621.184 604.522,618.525 606.683,615.913 608.844,613.332 611.005,610.766 613.166,608.201 615.327,605.621 617.488,603.01 619.649,600.354 621.81,597.638 623.971,595.146 626.132,593.802 628.293,593.526 630.454,594.245 632.615,595.882 634.776,598.364 636.937,601.615 639.098,605.561 641.259,610.127 643.42,615.238 645.581,620.819 647.742,626.795 649.903,633.092 652.064,639.635 654.225,646.349 656.386,653.159 658.547,659.991 660.708,666.769 662.869,673.419 665.03,679.865 667.191,686.034 669.352,691.09 671.513,695.457 673.674,699.716 675.835,703.895 677.996,708.023 680.157,712.128 682.318,716.239 684.479,720.383 686.64,724.59 688.801,728.888 690.962,733.053 693.123,736.886 695.284,740.609 697.445,744.228 699.606,747.751 701.767,751.184 703.927,754.533 706.088,757.806 708.249,761.01 710.41,764.15 712.571,767.234 714.732,770.268 716.893,773.26 719.054,776.215 721.215,779.141 723.376,782.045 725.537,784.933 727.698,787.811 729.859,790.688 732.02,793.568 734.181,796.46 736.342,799.37 738.503,802.304 740.664,805.27 742.825,808.273 744.986,811.322 747.147,814.422 749.308,817.58 751.469,820.804 753.63,824.099 755.791,827.473 757.952,830.932 760.113,834.483 762.274,837.734 764.435,840.205 766.596,842.603 768.757,844.936 770.918,847.21 773.079,849.432 775.24,851.608 777.401,853.745 779.562,855.85 781.723,857.93 783.884,859.99 786.045,862.038 788.206,864.081 790.367,866.125 792.528,868.177 794.689,870.242 796.85,872.329 799.011,874.444 801.172,876.593 803.333,878.783 805.494,881.021 807.655,883.313 809.816,885.666 811.977,887.727 814.138,889.519 816.298,891.242 818.459,892.901 820.62,894.499 822.781,896.04 824.942,897.528 827.103,898.968 829.264,900.362 831.425,901.716 833.586,903.033 835.747,904.316 837.908,905.571 840.069,906.8 842.23,908.008 844.391,909.199 846.552,910.377 848.713,911.545 850.874,912.708 853.035,913.869 855.196,915.033 857.357,916.203 859.518,917.383 861.679,918.578 863.84,919.79 866.001,921.026 868.162,922.287 870.323,923.578 872.484,924.903 874.645,926.266 876.806,927.672 878.967,929.122 881.128,930.623 883.289,932.178 885.45,933.79 887.611,935.463 889.772,936.641 891.933,937.527 894.094,938.388 896.255,939.226 898.416,940.043 900.577,940.841 902.738,941.624 904.899,942.393 907.06,943.15 909.221,943.899 911.382,944.641 913.543,945.379 915.704,946.115 917.865,946.852 920.026,947.591 922.187,948.335 924.348,949.087 926.509,949.849 928.669,950.623 930.83,951.411 932.991,952.217 935.152,953.041 937.313,953.888 939.474,954.675 941.635,955.332 943.796,955.971 945.957,956.593 948.118,957.199 950.279,957.789 952.44,958.363 954.601,958.923 956.762,959.47 958.923,960.003 961.084,960.523 963.245,961.031 965.406,961.528 967.567,962.014 969.728,962.49 971.889,962.957 974.05,963.415 976.211,963.864 978.372,964.306 980.533,964.741 982.694,965.169 984.855,965.592 987.016,966.01 989.177,966.423 991.338,966.832 993.499,967.239 995.66,967.642 997.821,968.044 999.982,968.444 1002.14,968.844 1004.3,969.244 1006.46,969.644 1008.63,970.046 1010.79,970.449 1012.95,970.855 1015.11,971.264 1017.27,971.677 1019.43,972.094 1021.59,972.517 1023.75,972.944 1025.91,973.379 1028.07,973.82 1030.24,974.268 1032.4,974.725 1034.56,975.19 1036.72,975.665 1038.88,976.15 1041.04,976.646 1043.2,977.153 1045.36,977.672 1047.52,978.204 1049.68,978.748 1051.85,979.307 1054.01,979.88 1056.17,980.445 1058.33,980.272 1060.49,979.262 1062.65,977.453 1064.81,974.881 1066.97,971.584 1069.13,967.597 1071.29,962.959 1073.46,957.706 1075.62,951.874 1077.78,945.502 1079.94,938.625 1082.1,931.281 1084.26,923.507 1086.42,915.339 1088.58,906.815 1090.74,897.972 1092.9,888.846 1095.07,879.474 1097.23,869.894 1099.39,860.142 1101.55,850.255 1103.71,840.271 1105.87,830.225 1108.03,820.156 1110.19,810.099 1112.35,800.092 1114.51,790.173 1116.67,780.377 1118.84,770.741 1121,763.739 1123.16,757.336 1125.32,751.112 1127.48,745.047 1129.64,739.12 1131.8,733.312 1133.96,727.602 1136.12,721.97 1138.28,716.396 1140.45,710.861 1142.61,705.342 1144.77,699.822 1146.93,694.279 1149.09,688.693 1151.25,683.045 1153.41,677.313 1155.57,671.478 1157.73,665.52 1159.89,659.419 1162.06,653.154 1164.22,647.846 1166.38,642.925 1168.54,638.142 1170.7,633.489 1172.86,628.96 1175.02,624.549 1177.18,620.249 1179.34,616.053 1181.5,611.956 1183.67,607.951 1185.83,604.03 1187.99,600.189 1190.15,596.419 1192.31,592.715 1194.47,589.07 1196.63,585.478 1198.79,581.932 1200.95,578.425 1203.11,574.951 1205.28,571.505 1207.44,568.078 1209.6,564.665 1211.76,561.258 1213.92,557.853 1216.08,554.441 1218.24,551.017 1220.4,547.574 1222.56,544.106 1224.72,540.606 1226.88,537.067 1229.05,533.483 1231.21,529.848 1233.37,526.154 1235.53,522.397 1237.69,518.568 1239.85,514.662 1242.01,510.671 1244.17,506.591 1246.33,502.413 1248.49,498.131 1250.66,493.74 1252.82,489.232 1254.98,485.31 1257.14,482.485 1259.3,479.714 1261.46,476.965 1263.62,474.205 1265.78,471.4 1267.94,468.807 1270.1,466.884 1272.27,465.582 1274.43,464.872 1276.59,464.721 1278.75,465.1 1280.91,465.977 1283.07,467.321 1285.23,469.102 1287.39,471.288 1289.55,473.848 1291.71,476.753 1293.88,479.97 1296.04,483.469 1298.2,487.218 1300.36,491.188 1302.52,495.347 1304.68,499.664 1306.84,504.109 1309,508.65 1311.16,513.256 1313.32,517.897 1315.49,522.541 1317.65,527.158 1319.81,531.717 1321.97,536.187 1324.13,540.537 1326.29,544.735 1328.45,548.551 1330.61,551.243 1332.77,553.858 1334.93,556.406 1337.09,558.9 1339.26,561.351 1341.42,563.771 1343.58,566.17 1345.74,568.562 1347.9,570.957 1350.06,573.367 1352.22,575.804 1354.38,578.28 1356.54,580.805 1358.7,583.392 1360.87,585.855 1363.03,588.054 1365.19,590.192 1367.35,592.27 1369.51,594.293 1371.67,596.262 1373.83,598.181 1375.99,600.053 1378.15,601.881 1380.31,603.666 1382.48,605.413 1384.64,607.124 1386.8,608.801 1388.96,610.448 1391.12,612.068 1393.28,613.663 1395.44,615.236 1397.6,616.79 1399.76,618.329 1401.92,619.853 1404.09,621.368 1406.25,622.875 1408.41,624.377 1410.57,625.877 1412.73,627.378 1414.89,628.883 1417.05,630.395 1419.21,631.916 1421.37,633.45 1423.53,634.998 1425.7,636.565 1427.86,638.152 1430.02,639.763 1432.18,641.401 1434.34,643.068 1436.5,644.768 1438.66,646.502 1440.82,648.274 1442.98,650.088 1445.14,651.944 1447.3,653.848 1449.47,655.8 1451.63,657.805 1453.79,659.355 1455.95,660.589 1458.11,661.798 1460.27,662.994 1462.43,664.187 1464.59,665.391 1466.75,666.615 1468.91,667.814 1471.08,668.942 1473.24,670.05 1475.4,671.151 1477.56,672.261 1479.72,673.392 1481.88,674.456 1484.04,675.506 1486.2,676.572 1488.36,678.166 1490.52,680.571 1492.69,683.703 1494.85,687.484 1497.01,691.83 1499.17,696.66 1501.33,701.894 1503.49,707.45 1505.65,713.247 1507.81,719.203 1509.97,725.237 1512.13,731.268 1514.3,737.214 1516.46,742.994 1518.62,748.002 1520.78,752.538 1522.94,756.985 1525.1,761.388 1527.26,765.794 1529.42,770.246 1531.58,774.789 1533.74,779.058 1535.91,783.165 1538.07,787.156 1540.23,791.039 1542.39,794.824 1544.55,798.519 1546.71,802.135 1548.87,805.68 1551.03,809.163 1553.19,812.594 1555.35,815.981 1557.51,819.335 1559.68,822.664 1561.84,825.977 1564,829.284 1566.16,832.594 1568.32,835.915 1570.48,839.258 1572.64,842.631 1574.8,846.044 1576.96,849.506 1579.12,853.025 1581.29,856.612 1583.45,860.275 1585.61,864.024 1587.77,867.867 1589.93,871.815 1592.09,875.063 1594.25,877.934 1596.41,880.724 1598.57,883.44 1600.73,886.091 1602.9,888.686 1605.06,891.233 1607.22,893.74 1609.38,896.216 1611.54,898.668 1613.7,901.106 1615.86,903.537 1618.02,905.971 1620.18,908.415 1622.34,910.877 1624.51,913.367 1626.67,915.892 1628.83,918.461 1630.99,921.082 1633.15,923.764 1635.31,926.514 1637.47,929.156 1639.63,931.34 1641.79,933.462 1643.95,935.529 1646.12,937.552 1648.28,939.537 1650.44,941.495 1652.6,943.434 1654.76,945.363 1656.92,947.29 1659.08,949.224 1661.24,951.174 1663.4,953.148 1665.56,955.156 1667.72,957.207 1669.89,959.308 1672.05,961.3 1674.21,963.059 1676.37,964.772 1678.53,966.446 1680.69,968.091 1682.85,969.716 1685.01,971.331 1687.17,972.945 1689.33,974.567 1691.5,976.206 1693.66,977.873 1695.82,979.575 1697.98,981.266 1700.14,981.744 1702.3,980.682 1704.46,978.171 1706.62,974.304 1708.78,969.171 1710.94,962.865 1713.11,955.477 1715.27,947.099 1717.43,937.823 1719.59,927.741 1721.75,916.943 1723.91,905.523 1726.07,893.571 1728.23,881.18 1730.39,868.441 1732.55,855.445 1734.72,842.285 1736.88,829.053 1739.04,815.839 1741.2,802.736 1743.36,789.836 1745.52,777.229 1747.68,765.151 1749.84,756.241 1752,747.584 1754.16,739.129 1756.33,730.825 1758.49,722.619 1760.65,714.461 1762.81,706.299 1764.97,698.083 1767.13,689.76 1769.29,681.279 1771.45,672.59 1773.61,664.716 1775.77,657.218 1777.93,649.932 1780.1,642.846 1782.26,635.945 1784.42,629.215 1786.58,622.642 1788.74,616.212 1790.9,609.91 1793.06,603.723 1795.22,597.637 1797.38,591.637 1799.54,585.71 1801.71,579.841 1803.87,574.017 1806.03,568.222 1808.19,562.443 1810.35,556.667 1812.51,550.878 1814.67,545.063 1816.83,539.208 1818.99,533.298 1821.15,527.32 1823.32,521.259 1825.48,515.101 1827.64,508.833 1829.8,502.44 1831.96,495.907 1834.12,489.222 1836.28,482.37 1838.44,475.336 1840.6,468.663 1842.76,463.659 1844.93,458.801 1847.09,454.078 1849.25,449.48 1851.41,444.995 1853.57,440.611 1855.73,436.317 1857.89,432.102 1860.05,427.955 1862.21,423.865 1864.37,419.819 1866.54,415.807 1868.7,411.818 1870.86,407.84 1873.02,403.862 1875.18,399.873 1877.34,395.861 1879.5,391.815 1881.66,387.723 1883.82,383.576 1885.98,379.36 1888.15,375.066 1890.31,370.681 1892.47,366.194 1894.63,361.595 1896.79,356.871 1898.95,353.006 1901.11,349.811 1903.27,346.928 1905.43,344.341 1907.59,342.032 1909.75,339.984 1911.92,338.18 1914.08,336.603 1916.24,335.236 1918.4,334.062 1920.56,333.063 1922.72,332.223 1924.88,331.525 1927.04,330.951 1929.2,330.485 1931.36,330.109 1933.53,329.807 1935.69,329.561 1937.85,329.354 1940.01,329.17 1942.17,328.99 1944.33,328.799 1946.49,328.578 1948.65,328.311 1950.81,327.982 1952.97,327.572 1955.14,327.064 1957.3,326.443 1959.46,325.689 1961.62,324.788 1963.78,323.721 1965.94,322.471 1968.1,321.021 1970.26,319.355 1972.42,317.455 1974.58,315.304 1976.75,312.885 1978.91,310.181 1981.07,307.175 1983.23,305.414 1985.39,304.652 1987.55,303.911 1989.71,303.19 1991.87,302.487 1994.03,301.799 1996.19,301.125 1998.36,300.462 2000.52,299.808 2002.68,299.161 2004.84,298.519 2007,297.88 2009.16,297.242 2011.32,296.602 2013.48,295.958 2015.64,295.309 2017.8,294.652 2019.96,293.984 2022.13,293.305 2024.29,292.612 2026.45,291.902 2028.61,291.174 2030.77,290.491 2032.93,289.919 2035.09,289.363 2037.25,288.822 2039.41,288.295 2041.57,287.782 2043.74,287.283 2045.9,286.796 2048.06,286.321 2050.22,285.857 2052.38,285.404 2054.54,284.96 2056.7,284.526 2058.86,284.101 2061.02,283.683 2063.18,283.272 2065.35,282.868 2067.51,282.47 2069.67,282.077 2071.83,281.689 2073.99,281.305 2076.15,280.924 2078.31,280.546 2080.47,280.169 2082.63,279.794 2084.79,279.419 2086.96,279.045 2089.12,278.67 2091.28,278.293 2093.44,277.914 2095.6,277.533 2097.76,277.148 2099.92,276.759 2102.08,276.366 2104.24,275.967 2106.4,275.563 2108.57,275.151 2110.73,274.733 2112.89,274.306 2115.05,273.871 2117.21,273.426 2119.37,272.971 2121.53,272.506 2123.69,272.03 2125.85,271.541 2128.01,271.04 2130.17,270.526 2132.34,270.297 2134.5,271.214 2136.66,273.259 2138.82,276.388 2140.98,280.555 2143.14,285.715 2145.3,291.823 2147.46,298.833 2149.62,306.7 2151.78,315.38 2153.95,324.826 2156.11,334.994 2158.27,345.838 2160.43,357.314 2162.59,369.375 2164.75,381.977 2166.91,395.075 2169.07,408.623 2171.23,422.576 2173.39,436.889 2175.56,451.517 2177.72,466.414 2179.88,481.536 2182.04,496.837 2184.2,512.271 2186.36,527.794 2188.52,543.36 2190.68,558.925 2192.84,574.443 2195,589.868 2197.17,605.156 2199.33,620.261 2201.49,632.549 2203.65,642.33 2205.81,651.833 2207.97,661.09 2210.13,670.133 2212.29,678.998 2214.45,687.715 2216.61,696.318 2218.78,704.84 2220.94,713.315 2223.1,721.774 2225.26,730.252 2227.42,738.781 2229.58,747.393 2231.74,756.123 2233.9,765.002 2236.06,774.065 2238.22,783.343 2240.38,792.87 2242.55,800.892 2244.71,808.461 2246.87,815.817 2249.03,822.973 2251.19,829.938 2253.35,836.723 2255.51,843.339 2257.67,849.796 2259.83,856.106 2261.99,862.279 2264.16,868.326 2266.32,874.257 2268.48,880.084 2270.64,885.816 2272.8,891.465 2274.96,897.041 2277.12,902.556 2279.28,908.019 2281.44,913.442 2283.6,918.835 2285.77,924.208 2287.93,929.574 2290.09,934.942 2292.25,940.323 2294.41,945.727 2296.57,951.166 2298.73,956.651 2300.89,962.191 2303.05,967.798 2305.21,973.482 2307.38,979.255 2309.54,985.126 2311.7,991.107 2313.86,997.208 2316.02,1003.44 2318.18,1009.81 2320.34,1016.34 2322.5,1023.03 2324.66,1029.89 2326.82,1036.94 2328.99,1042.21 2331.15,1046.64 2333.31,1050.97 2335.47,1055.21 2337.63,1059.38 2339.79,1063.52 2341.95,1067.64 2344.11,1071.78 2346.27,1075.95 2348.43,1080.18 2350.59,1084.5 2352.76,1088.93 "/>
<polyline clip-path="url(#clip412)" style="stroke:#e26f46; stroke-linecap:round; stroke-linejoin:round; stroke-width:4; stroke-opacity:1; fill:none" points="193.936,1186.17 196.097,1186.17 198.258,1186.17 200.419,1186.17 202.58,1186.17 204.741,1186.17 206.902,1186.17 209.063,1186.17 211.224,1186.17 213.385,1186.17 215.546,1186.17 217.707,1186.17 219.868,1186.17 222.029,1186.17 224.19,1186.17 226.351,1186.17 228.512,1186.17 230.673,1186.17 232.834,1186.17 234.995,1186.17 237.156,1186.17 239.317,1186.17 241.478,1186.17 243.639,1186.17 245.8,1186.17 247.961,1186.17 250.122,1186.17 252.282,1186.17 254.443,1186.17 256.604,1186.17 258.765,1186.17 260.926,1186.17 263.087,1186.17 265.248,1186.17 267.409,1186.17 269.57,1186.17 271.731,1186.17 273.892,1186.17 276.053,1186.17 278.214,1186.17 280.375,1186.17 282.536,1186.17 284.697,1186.17 286.858,1186.17 289.019,1186.17 291.18,1186.17 293.341,1186.17 295.502,1186.17 297.663,1186.17 299.824,1186.17 301.985,1186.17 304.146,1186.17 306.307,1186.17 308.468,1186.17 310.629,1186.17 312.79,1186.17 314.951,1186.17 317.112,1186.17 319.273,1186.17 321.434,1186.17 323.595,1186.17 325.756,1186.17 327.917,1186.17 330.078,1186.17 332.239,1186.17 334.4,1186.17 336.561,1186.17 338.722,1186.17 340.883,1186.17 343.044,1186.17 345.205,1186.17 347.366,1186.17 349.527,1186.17 351.688,1186.17 353.849,1186.17 356.01,1186.17 358.171,1186.17 360.332,1186.17 362.493,1186.17 364.653,1186.17 366.814,1186.17 368.975,1186.17 371.136,1186.17 373.297,1186.17 375.458,1186.17 377.619,1186.17 379.78,1186.17 381.941,1186.17 384.102,1186.17 386.263,1186.17 388.424,1186.17 390.585,1186.17 392.746,1186.17 394.907,1186.17 397.068,1186.17 399.229,1186.17 401.39,1186.17 403.551,1186.17 405.712,1186.17 407.873,1186.17 410.034,412.639 412.195,412.639 414.356,412.639 416.517,412.639 418.678,412.639 420.839,412.639 423,412.639 425.161,412.639 427.322,412.639 429.483,412.639 431.644,412.639 433.805,412.639 435.966,412.639 438.127,412.639 440.288,412.639 442.449,412.639 444.61,412.639 446.771,412.639 448.932,412.639 451.093,412.639 453.254,412.639 455.415,412.639 457.576,412.639 459.737,412.639 461.898,412.639 464.059,412.639 466.22,412.639 468.381,412.639 470.542,412.639 472.703,412.639 474.864,412.639 477.024,412.639 479.185,412.639 481.346,412.639 483.507,412.639 485.668,412.639 487.829,412.639 489.99,412.639 492.151,412.639 494.312,412.639 496.473,412.639 498.634,412.639 500.795,412.639 502.956,412.639 505.117,412.639 507.278,412.639 509.439,412.639 511.6,412.639 513.761,412.639 515.922,412.639 518.083,412.639 520.244,412.639 522.405,412.639 524.566,412.639 526.727,412.639 528.888,412.639 531.049,412.639 533.21,412.639 535.371,412.639 537.532,412.639 539.693,412.639 541.854,412.639 544.015,412.639 546.176,412.639 548.337,412.639 550.498,412.639 552.659,412.639 554.82,412.639 556.981,412.639 559.142,412.639 561.303,412.639 563.464,412.639 565.625,412.639 567.786,412.639 569.947,412.639 572.108,412.639 574.269,412.639 576.43,412.639 578.591,412.639 580.752,412.639 582.913,412.639 585.074,412.639 587.235,412.639 589.396,412.639 591.556,412.639 593.717,412.639 595.878,412.639 598.039,412.639 600.2,412.639 602.361,412.639 604.522,412.639 606.683,412.639 608.844,412.639 611.005,412.639 613.166,412.639 615.327,412.639 617.488,412.639 619.649,412.639 621.81,412.639 623.971,412.639 626.132,1026.89 628.293,1026.89 630.454,1026.89 632.615,1026.89 634.776,1026.89 636.937,1026.89 639.098,1026.89 641.259,1026.89 643.42,1026.89 645.581,1026.89 647.742,1026.89 649.903,1026.89 652.064,1026.89 654.225,1026.89 656.386,1026.89 658.547,1026.89 660.708,1026.89 662.869,1026.89 665.03,1026.89 667.191,1026.89 669.352,1026.89 671.513,1026.89 673.674,1026.89 675.835,1026.89 677.996,1026.89 680.157,1026.89 682.318,1026.89 684.479,1026.89 686.64,1026.89 688.801,1026.89 690.962,1026.89 693.123,1026.89 695.284,1026.89 697.445,1026.89 699.606,1026.89 701.767,1026.89 703.927,1026.89 706.088,1026.89 708.249,1026.89 710.41,1026.89 712.571,1026.89 714.732,1026.89 716.893,1026.89 719.054,1026.89 721.215,1026.89 723.376,1026.89 725.537,1026.89 727.698,1026.89 729.859,1026.89 732.02,1026.89 734.181,1026.89 736.342,1026.89 738.503,1026.89 740.664,1026.89 742.825,1026.89 744.986,1026.89 747.147,1026.89 749.308,1026.89 751.469,1026.89 753.63,1026.89 755.791,1026.89 757.952,1026.89 760.113,1026.89 762.274,1026.89 764.435,1026.89 766.596,1026.89 768.757,1026.89 770.918,1026.89 773.079,1026.89 775.24,1026.89 777.401,1026.89 779.562,1026.89 781.723,1026.89 783.884,1026.89 786.045,1026.89 788.206,1026.89 790.367,1026.89 792.528,1026.89 794.689,1026.89 796.85,1026.89 799.011,1026.89 801.172,1026.89 803.333,1026.89 805.494,1026.89 807.655,1026.89 809.816,1026.89 811.977,1026.89 814.138,1026.89 816.298,1026.89 818.459,1026.89 820.62,1026.89 822.781,1026.89 824.942,1026.89 827.103,1026.89 829.264,1026.89 831.425,1026.89 833.586,1026.89 835.747,1026.89 837.908,1026.89 840.069,1026.89 842.23,1004.86 844.391,1004.86 846.552,1004.86 848.713,1004.86 850.874,1004.86 853.035,1004.86 855.196,1004.86 857.357,1004.86 859.518,1004.86 861.679,1004.86 863.84,1004.86 866.001,1004.86 868.162,1004.86 870.323,1004.86 872.484,1004.86 874.645,1004.86 876.806,1004.86 878.967,1004.86 881.128,1004.86 883.289,1004.86 885.45,1004.86 887.611,1004.86 889.772,1004.86 891.933,1004.86 894.094,1004.86 896.255,1004.86 898.416,1004.86 900.577,1004.86 902.738,1004.86 904.899,1004.86 907.06,1004.86 909.221,1004.86 911.382,1004.86 913.543,1004.86 915.704,1004.86 917.865,1004.86 920.026,1004.86 922.187,1004.86 924.348,1004.86 926.509,1004.86 928.669,1004.86 930.83,1004.86 932.991,1004.86 935.152,1004.86 937.313,1004.86 939.474,1004.86 941.635,1004.86 943.796,1004.86 945.957,1004.86 948.118,1004.86 950.279,1004.86 952.44,1004.86 954.601,1004.86 956.762,1004.86 958.923,1004.86 961.084,1004.86 963.245,1004.86 965.406,1004.86 967.567,1004.86 969.728,1004.86 971.889,1004.86 974.05,1004.86 976.211,1004.86 978.372,1004.86 980.533,1004.86 982.694,1004.86 984.855,1004.86 987.016,1004.86 989.177,1004.86 991.338,1004.86 993.499,1004.86 995.66,1004.86 997.821,1004.86 999.982,1004.86 1002.14,1004.86 1004.3,1004.86 1006.46,1004.86 1008.63,1004.86 1010.79,1004.86 1012.95,1004.86 1015.11,1004.86 1017.27,1004.86 1019.43,1004.86 1021.59,1004.86 1023.75,1004.86 1025.91,1004.86 1028.07,1004.86 1030.24,1004.86 1032.4,1004.86 1034.56,1004.86 1036.72,1004.86 1038.88,1004.86 1041.04,1004.86 1043.2,1004.86 1045.36,1004.86 1047.52,1004.86 1049.68,1004.86 1051.85,1004.86 1054.01,1004.86 1056.17,1004.86 1058.33,269.092 1060.49,269.092 1062.65,269.092 1064.81,269.092 1066.97,269.092 1069.13,269.092 1071.29,269.092 1073.46,269.092 1075.62,269.092 1077.78,269.092 1079.94,269.092 1082.1,269.092 1084.26,269.092 1086.42,269.092 1088.58,269.092 1090.74,269.092 1092.9,269.092 1095.07,269.092 1097.23,269.092 1099.39,269.092 1101.55,269.092 1103.71,269.092 1105.87,269.092 1108.03,269.092 1110.19,269.092 1112.35,269.092 1114.51,269.092 1116.67,269.092 1118.84,269.092 1121,269.092 1123.16,269.092 1125.32,269.092 1127.48,269.092 1129.64,269.092 1131.8,269.092 1133.96,269.092 1136.12,269.092 1138.28,269.092 1140.45,269.092 1142.61,269.092 1144.77,269.092 1146.93,269.092 1149.09,269.092 1151.25,269.092 1153.41,269.092 1155.57,269.092 1157.73,269.092 1159.89,269.092 1162.06,269.092 1164.22,269.092 1166.38,269.092 1168.54,269.092 1170.7,269.092 1172.86,269.092 1175.02,269.092 1177.18,269.092 1179.34,269.092 1181.5,269.092 1183.67,269.092 1185.83,269.092 1187.99,269.092 1190.15,269.092 1192.31,269.092 1194.47,269.092 1196.63,269.092 1198.79,269.092 1200.95,269.092 1203.11,269.092 1205.28,269.092 1207.44,269.092 1209.6,269.092 1211.76,269.092 1213.92,269.092 1216.08,269.092 1218.24,269.092 1220.4,269.092 1222.56,269.092 1224.72,269.092 1226.88,269.092 1229.05,269.092 1231.21,269.092 1233.37,269.092 1235.53,269.092 1237.69,269.092 1239.85,269.092 1242.01,269.092 1244.17,269.092 1246.33,269.092 1248.49,269.092 1250.66,269.092 1252.82,269.092 1254.98,269.092 1257.14,269.092 1259.3,269.092 1261.46,269.092 1263.62,269.092 1265.78,269.092 1267.94,269.092 1270.1,269.092 1272.27,269.092 1274.43,754.178 1276.59,754.178 1278.75,754.178 1280.91,754.178 1283.07,754.178 1285.23,754.178 1287.39,754.178 1289.55,754.178 1291.71,754.178 1293.88,754.178 1296.04,754.178 1298.2,754.178 1300.36,754.178 1302.52,754.178 1304.68,754.178 1306.84,754.178 1309,754.178 1311.16,754.178 1313.32,754.178 1315.49,754.178 1317.65,754.178 1319.81,754.178 1321.97,754.178 1324.13,754.178 1326.29,754.178 1328.45,754.178 1330.61,754.178 1332.77,754.178 1334.93,754.178 1337.09,754.178 1339.26,754.178 1341.42,754.178 1343.58,754.178 1345.74,754.178 1347.9,754.178 1350.06,754.178 1352.22,754.178 1354.38,754.178 1356.54,754.178 1358.7,754.178 1360.87,754.178 1363.03,754.178 1365.19,754.178 1367.35,754.178 1369.51,754.178 1371.67,754.178 1373.83,754.178 1375.99,754.178 1378.15,754.178 1380.31,754.178 1382.48,754.178 1384.64,754.178 1386.8,754.178 1388.96,754.178 1391.12,754.178 1393.28,754.178 1395.44,754.178 1397.6,754.178 1399.76,754.178 1401.92,754.178 1404.09,754.178 1406.25,754.178 1408.41,754.178 1410.57,754.178 1412.73,754.178 1414.89,754.178 1417.05,754.178 1419.21,754.178 1421.37,754.178 1423.53,754.178 1425.7,754.178 1427.86,754.178 1430.02,754.178 1432.18,754.178 1434.34,754.178 1436.5,754.178 1438.66,754.178 1440.82,754.178 1442.98,754.178 1445.14,754.178 1447.3,754.178 1449.47,754.178 1451.63,754.178 1453.79,754.178 1455.95,754.178 1458.11,754.178 1460.27,754.178 1462.43,754.178 1464.59,754.178 1466.75,754.178 1468.91,754.178 1471.08,754.178 1473.24,754.178 1475.4,754.178 1477.56,754.178 1479.72,754.178 1481.88,754.178 1484.04,754.178 1486.2,754.178 1488.36,754.178 1490.52,1096.33 1492.69,1096.33 1494.85,1096.33 1497.01,1096.33 1499.17,1096.33 1501.33,1096.33 1503.49,1096.33 1505.65,1096.33 1507.81,1096.33 1509.97,1096.33 1512.13,1096.33 1514.3,1096.33 1516.46,1096.33 1518.62,1096.33 1520.78,1096.33 1522.94,1096.33 1525.1,1096.33 1527.26,1096.33 1529.42,1096.33 1531.58,1096.33 1533.74,1096.33 1535.91,1096.33 1538.07,1096.33 1540.23,1096.33 1542.39,1096.33 1544.55,1096.33 1546.71,1096.33 1548.87,1096.33 1551.03,1096.33 1553.19,1096.33 1555.35,1096.33 1557.51,1096.33 1559.68,1096.33 1561.84,1096.33 1564,1096.33 1566.16,1096.33 1568.32,1096.33 1570.48,1096.33 1572.64,1096.33 1574.8,1096.33 1576.96,1096.33 1579.12,1096.33 1581.29,1096.33 1583.45,1096.33 1585.61,1096.33 1587.77,1096.33 1589.93,1096.33 1592.09,1096.33 1594.25,1096.33 1596.41,1096.33 1598.57,1096.33 1600.73,1096.33 1602.9,1096.33 1605.06,1096.33 1607.22,1096.33 1609.38,1096.33 1611.54,1096.33 1613.7,1096.33 1615.86,1096.33 1618.02,1096.33 1620.18,1096.33 1622.34,1096.33 1624.51,1096.33 1626.67,1096.33 1628.83,1096.33 1630.99,1096.33 1633.15,1096.33 1635.31,1096.33 1637.47,1096.33 1639.63,1096.33 1641.79,1096.33 1643.95,1096.33 1646.12,1096.33 1648.28,1096.33 1650.44,1096.33 1652.6,1096.33 1654.76,1096.33 1656.92,1096.33 1659.08,1096.33 1661.24,1096.33 1663.4,1096.33 1665.56,1096.33 1667.72,1096.33 1669.89,1096.33 1672.05,1096.33 1674.21,1096.33 1676.37,1096.33 1678.53,1096.33 1680.69,1096.33 1682.85,1096.33 1685.01,1096.33 1687.17,1096.33 1689.33,1096.33 1691.5,1096.33 1693.66,1096.33 1695.82,1096.33 1697.98,1096.33 1700.14,1096.33 1702.3,1096.33 1704.46,1096.33 1706.62,86.1857 1708.78,86.1857 1710.94,86.1857 1713.11,86.1857 1715.27,86.1857 1717.43,86.1857 1719.59,86.1857 1721.75,86.1857 1723.91,86.1857 1726.07,86.1857 1728.23,86.1857 1730.39,86.1857 1732.55,86.1857 1734.72,86.1857 1736.88,86.1857 1739.04,86.1857 1741.2,86.1857 1743.36,86.1857 1745.52,86.1857 1747.68,86.1857 1749.84,86.1857 1752,86.1857 1754.16,86.1857 1756.33,86.1857 1758.49,86.1857 1760.65,86.1857 1762.81,86.1857 1764.97,86.1857 1767.13,86.1857 1769.29,86.1857 1771.45,86.1857 1773.61,86.1857 1775.77,86.1857 1777.93,86.1857 1780.1,86.1857 1782.26,86.1857 1784.42,86.1857 1786.58,86.1857 1788.74,86.1857 1790.9,86.1857 1793.06,86.1857 1795.22,86.1857 1797.38,86.1857 1799.54,86.1857 1801.71,86.1857 1803.87,86.1857 1806.03,86.1857 1808.19,86.1857 1810.35,86.1857 1812.51,86.1857 1814.67,86.1857 1816.83,86.1857 1818.99,86.1857 1821.15,86.1857 1823.32,86.1857 1825.48,86.1857 1827.64,86.1857 1829.8,86.1857 1831.96,86.1857 1834.12,86.1857 1836.28,86.1857 1838.44,86.1857 1840.6,86.1857 1842.76,86.1857 1844.93,86.1857 1847.09,86.1857 1849.25,86.1857 1851.41,86.1857 1853.57,86.1857 1855.73,86.1857 1857.89,86.1857 1860.05,86.1857 1862.21,86.1857 1864.37,86.1857 1866.54,86.1857 1868.7,86.1857 1870.86,86.1857 1873.02,86.1857 1875.18,86.1857 1877.34,86.1857 1879.5,86.1857 1881.66,86.1857 1883.82,86.1857 1885.98,86.1857 1888.15,86.1857 1890.31,86.1857 1892.47,86.1857 1894.63,86.1857 1896.79,86.1857 1898.95,86.1857 1901.11,86.1857 1903.27,86.1857 1905.43,86.1857 1907.59,86.1857 1909.75,86.1857 1911.92,86.1857 1914.08,86.1857 1916.24,86.1857 1918.4,86.1857 1920.56,86.1857 1922.72,246.769 1924.88,246.769 1927.04,246.769 1929.2,246.769 1931.36,246.769 1933.53,246.769 1935.69,246.769 1937.85,246.769 1940.01,246.769 1942.17,246.769 1944.33,246.769 1946.49,246.769 1948.65,246.769 1950.81,246.769 1952.97,246.769 1955.14,246.769 1957.3,246.769 1959.46,246.769 1961.62,246.769 1963.78,246.769 1965.94,246.769 1968.1,246.769 1970.26,246.769 1972.42,246.769 1974.58,246.769 1976.75,246.769 1978.91,246.769 1981.07,246.769 1983.23,246.769 1985.39,246.769 1987.55,246.769 1989.71,246.769 1991.87,246.769 1994.03,246.769 1996.19,246.769 1998.36,246.769 2000.52,246.769 2002.68,246.769 2004.84,246.769 2007,246.769 2009.16,246.769 2011.32,246.769 2013.48,246.769 2015.64,246.769 2017.8,246.769 2019.96,246.769 2022.13,246.769 2024.29,246.769 2026.45,246.769 2028.61,246.769 2030.77,246.769 2032.93,246.769 2035.09,246.769 2037.25,246.769 2039.41,246.769 2041.57,246.769 2043.74,246.769 2045.9,246.769 2048.06,246.769 2050.22,246.769 2052.38,246.769 2054.54,246.769 2056.7,246.769 2058.86,246.769 2061.02,246.769 2063.18,246.769 2065.35,246.769 2067.51,246.769 2069.67,246.769 2071.83,246.769 2073.99,246.769 2076.15,246.769 2078.31,246.769 2080.47,246.769 2082.63,246.769 2084.79,246.769 2086.96,246.769 2089.12,246.769 2091.28,246.769 2093.44,246.769 2095.6,246.769 2097.76,246.769 2099.92,246.769 2102.08,246.769 2104.24,246.769 2106.4,246.769 2108.57,246.769 2110.73,246.769 2112.89,246.769 2115.05,246.769 2117.21,246.769 2119.37,246.769 2121.53,246.769 2123.69,246.769 2125.85,246.769 2128.01,246.769 2130.17,246.769 2132.34,246.769 2134.5,246.769 2136.66,246.769 2138.82,1384.24 2140.98,1384.24 2143.14,1384.24 2145.3,1384.24 2147.46,1384.24 2149.62,1384.24 2151.78,1384.24 2153.95,1384.24 2156.11,1384.24 2158.27,1384.24 2160.43,1384.24 2162.59,1384.24 2164.75,1384.24 2166.91,1384.24 2169.07,1384.24 2171.23,1384.24 2173.39,1384.24 2175.56,1384.24 2177.72,1384.24 2179.88,1384.24 2182.04,1384.24 2184.2,1384.24 2186.36,1384.24 2188.52,1384.24 2190.68,1384.24 2192.84,1384.24 2195,1384.24 2197.17,1384.24 2199.33,1384.24 2201.49,1384.24 2203.65,1384.24 2205.81,1384.24 2207.97,1384.24 2210.13,1384.24 2212.29,1384.24 2214.45,1384.24 2216.61,1384.24 2218.78,1384.24 2220.94,1384.24 2223.1,1384.24 2225.26,1384.24 2227.42,1384.24 2229.58,1384.24 2231.74,1384.24 2233.9,1384.24 2236.06,1384.24 2238.22,1384.24 2240.38,1384.24 2242.55,1384.24 2244.71,1384.24 2246.87,1384.24 2249.03,1384.24 2251.19,1384.24 2253.35,1384.24 2255.51,1384.24 2257.67,1384.24 2259.83,1384.24 2261.99,1384.24 2264.16,1384.24 2266.32,1384.24 2268.48,1384.24 2270.64,1384.24 2272.8,1384.24 2274.96,1384.24 2277.12,1384.24 2279.28,1384.24 2281.44,1384.24 2283.6,1384.24 2285.77,1384.24 2287.93,1384.24 2290.09,1384.24 2292.25,1384.24 2294.41,1384.24 2296.57,1384.24 2298.73,1384.24 2300.89,1384.24 2303.05,1384.24 2305.21,1384.24 2307.38,1384.24 2309.54,1384.24 2311.7,1384.24 2313.86,1384.24 2316.02,1384.24 2318.18,1384.24 2320.34,1384.24 2322.5,1384.24 2324.66,1384.24 2326.82,1384.24 2328.99,1384.24 2331.15,1384.24 2333.31,1384.24 2335.47,1384.24 2337.63,1384.24 2339.79,1384.24 2341.95,1384.24 2344.11,1384.24 2346.27,1384.24 2348.43,1384.24 2350.59,1384.24 2352.76,1384.24 "/>
<path clip-path="url(#clip410)" d="M265.897 248.629 L506.917 248.629 L506.917 93.1086 L265.897 93.1086  Z" fill="#ffffff" fill-rule="evenodd" fill-opacity="1"/>
<polyline clip-path="url(#clip410)" style="stroke:#000000; stroke-linecap:round; stroke-linejoin:round; stroke-width:4; stroke-opacity:1; fill:none" points="265.897,248.629 506.917,248.629 506.917,93.1086 265.897,93.1086 265.897,248.629 "/>
<polyline clip-path="url(#clip410)" style="stroke:#009af9; stroke-linecap:round; stroke-linejoin:round; stroke-width:4; stroke-opacity:1; fill:none" points="289.884,144.949 433.805,144.949 "/>
<path clip-path="url(#clip410)" d="M482.444 136.303 L473.069 148.919 L482.931 162.229 L477.907 162.229 L470.361 152.043 L462.815 162.229 L457.792 162.229 L467.861 148.664 L458.648 136.303 L463.671 136.303 L470.546 145.539 L477.421 136.303 L482.444 136.303 Z" fill="#000000" fill-rule="nonzero" fill-opacity="1" /><polyline clip-path="url(#clip410)" style="stroke:#e26f46; stroke-linecap:round; stroke-linejoin:round; stroke-width:4; stroke-opacity:1; fill:none" points="289.884,196.789 433.805,196.789 "/>
<path clip-path="url(#clip410)" d="M474.296 178.05 L474.296 181.592 L470.222 181.592 Q467.931 181.592 467.028 182.518 Q466.148 183.444 466.148 185.851 L466.148 188.143 L473.162 188.143 L473.162 191.453 L466.148 191.453 L466.148 214.069 L461.866 214.069 L461.866 191.453 L457.792 191.453 L457.792 188.143 L461.866 188.143 L461.866 186.337 Q461.866 182.009 463.88 180.041 Q465.894 178.05 470.269 178.05 L474.296 178.05 Z" fill="#000000" fill-rule="nonzero" fill-opacity="1" /></svg>
