<?xml version="1.0" encoding="utf-8"?>
<svg xmlns="http://www.w3.org/2000/svg" xmlns:xlink="http://www.w3.org/1999/xlink" width="600" height="400" viewBox="0 0 2400 1600">
<defs>
  <clipPath id="clip520">
    <rect x="0" y="0" width="2400" height="1600"/>
  </clipPath>
</defs>
<path clip-path="url(#clip520)" d="M0 1600 L2400 1600 L2400 0 L0 0  Z" fill="#ffffff" fill-rule="evenodd" fill-opacity="1"/>
<defs>
  <clipPath id="clip521">
    <rect x="480" y="0" width="1681" height="1600"/>
  </clipPath>
</defs>
<path clip-path="url(#clip520)" d="M193.936 1423.18 L2352.76 1423.18 L2352.76 47.2441 L193.936 47.2441  Z" fill="#ffffff" fill-rule="evenodd" fill-opacity="1"/>
<defs>
  <clipPath id="clip522">
    <rect x="193" y="47" width="2160" height="1377"/>
  </clipPath>
</defs>
<polyline clip-path="url(#clip522)" style="stroke:#000000; stroke-linecap:round; stroke-linejoin:round; stroke-width:2; stroke-opacity:0.1; fill:none" points="193.936,1423.18 193.936,47.2441 "/>
<polyline clip-path="url(#clip522)" style="stroke:#000000; stroke-linecap:round; stroke-linejoin:round; stroke-width:2; stroke-opacity:0.1; fill:none" points="625.7,1423.18 625.7,47.2441 "/>
<polyline clip-path="url(#clip522)" style="stroke:#000000; stroke-linecap:round; stroke-linejoin:round; stroke-width:2; stroke-opacity:0.1; fill:none" points="1057.46,1423.18 1057.46,47.2441 "/>
<polyline clip-path="url(#clip522)" style="stroke:#000000; stroke-linecap:round; stroke-linejoin:round; stroke-width:2; stroke-opacity:0.1; fill:none" points="1489.23,1423.18 1489.23,47.2441 "/>
<polyline clip-path="url(#clip522)" style="stroke:#000000; stroke-linecap:round; stroke-linejoin:round; stroke-width:2; stroke-opacity:0.1; fill:none" points="1920.99,1423.18 1920.99,47.2441 "/>
<polyline clip-path="url(#clip522)" style="stroke:#000000; stroke-linecap:round; stroke-linejoin:round; stroke-width:2; stroke-opacity:0.1; fill:none" points="2352.76,1423.18 2352.76,47.2441 "/>
<polyline clip-path="url(#clip520)" style="stroke:#000000; stroke-linecap:round; stroke-linejoin:round; stroke-width:4; stroke-opacity:1; fill:none" points="193.936,1423.18 2352.76,1423.18 "/>
<polyline clip-path="url(#clip520)" style="stroke:#000000; stroke-linecap:round; stroke-linejoin:round; stroke-width:4; stroke-opacity:1; fill:none" points="193.936,1423.18 193.936,1404.28 "/>
<polyline clip-path="url(#clip520)" style="stroke:#000000; stroke-linecap:round; stroke-linejoin:round; stroke-width:4; stroke-opacity:1; fill:none" points="625.7,1423.18 625.7,1404.28 "/>
<polyline clip-path="url(#clip520)" style="stroke:#000000; stroke-linecap:round; stroke-linejoin:round; stroke-width:4; stroke-opacity:1; fill:none" points="1057.46,1423.18 1057.46,1404.28 "/>
<polyline clip-path="url(#clip520)" style="stroke:#000000; stroke-linecap:round; stroke-linejoin:round; stroke-width:4; stroke-opacity:1; fill:none" points="1489.23,1423.18 1489.23,1404.28 "/>
<polyline clip-path="url(#clip520)" style="stroke:#000000; stroke-linecap:round; stroke-linejoin:round; stroke-width:4; stroke-opacity:1; fill:none" points="1920.99,1423.18 1920.99,1404.28 "/>
<polyline clip-path="url(#clip520)" style="stroke:#000000; stroke-linecap:round; stroke-linejoin:round; stroke-width:4; stroke-opacity:1; fill:none" points="2352.76,1423.18 2352.76,1404.28 "/>
<path clip-path="url(#clip520)" d="M193.936 1454.1 Q190.325 1454.1 188.496 1457.66 Q186.691 1461.2 186.691 1468.33 Q186.691 1475.44 188.496 1479.01 Q190.325 1482.55 193.936 1482.55 Q197.57 1482.55 199.376 1479.01 Q201.204 1475.44 201.204 1468.33 Q201.204 1461.2 199.376 1457.66 Q197.57 1454.1 193.936 1454.1 M193.936 1450.39 Q199.746 1450.39 202.802 1455 Q205.88 1459.58 205.88 1468.33 Q205.88 1477.06 202.802 1481.67 Q199.746 1486.25 193.936 1486.25 Q188.126 1486.25 185.047 1481.67 Q181.992 1477.06 181.992 1468.33 Q181.992 1459.58 185.047 1455 Q188.126 1450.39 193.936 1450.39 Z" fill="#000000" fill-rule="nonzero" fill-opacity="1" /><path clip-path="url(#clip520)" d="M620.353 1481.64 L636.672 1481.64 L636.672 1485.58 L614.728 1485.58 L614.728 1481.64 Q617.39 1478.89 621.973 1474.26 Q626.58 1469.61 627.76 1468.27 Q630.006 1465.74 630.885 1464.01 Q631.788 1462.25 631.788 1460.56 Q631.788 1457.8 629.843 1456.07 Q627.922 1454.33 624.82 1454.33 Q622.621 1454.33 620.168 1455.09 Q617.737 1455.86 614.959 1457.41 L614.959 1452.69 Q617.783 1451.55 620.237 1450.97 Q622.691 1450.39 624.728 1450.39 Q630.098 1450.39 633.293 1453.08 Q636.487 1455.77 636.487 1460.26 Q636.487 1462.39 635.677 1464.31 Q634.89 1466.2 632.783 1468.8 Q632.205 1469.47 629.103 1472.69 Q626.001 1475.88 620.353 1481.64 Z" fill="#000000" fill-rule="nonzero" fill-opacity="1" /><path clip-path="url(#clip520)" d="M1060.47 1455.09 L1048.67 1473.54 L1060.47 1473.54 L1060.47 1455.09 M1059.25 1451.02 L1065.13 1451.02 L1065.13 1473.54 L1070.06 1473.54 L1070.06 1477.43 L1065.13 1477.43 L1065.13 1485.58 L1060.47 1485.58 L1060.47 1477.43 L1044.87 1477.43 L1044.87 1472.92 L1059.25 1451.02 Z" fill="#000000" fill-rule="nonzero" fill-opacity="1" /><path clip-path="url(#clip520)" d="M1489.63 1466.44 Q1486.48 1466.44 1484.63 1468.59 Q1482.8 1470.74 1482.8 1474.49 Q1482.8 1478.22 1484.63 1480.39 Q1486.48 1482.55 1489.63 1482.55 Q1492.78 1482.55 1494.61 1480.39 Q1496.46 1478.22 1496.46 1474.49 Q1496.46 1470.74 1494.61 1468.59 Q1492.78 1466.44 1489.63 1466.44 M1498.92 1451.78 L1498.92 1456.04 Q1497.16 1455.21 1495.35 1454.77 Q1493.57 1454.33 1491.81 1454.33 Q1487.18 1454.33 1484.73 1457.45 Q1482.3 1460.58 1481.95 1466.9 Q1483.31 1464.89 1485.37 1463.82 Q1487.43 1462.73 1489.91 1462.73 Q1495.12 1462.73 1498.13 1465.9 Q1501.16 1469.05 1501.16 1474.49 Q1501.16 1479.82 1498.01 1483.03 Q1494.86 1486.25 1489.63 1486.25 Q1483.64 1486.25 1480.47 1481.67 Q1477.3 1477.06 1477.3 1468.33 Q1477.3 1460.14 1481.18 1455.28 Q1485.07 1450.39 1491.62 1450.39 Q1493.38 1450.39 1495.17 1450.74 Q1496.97 1451.09 1498.92 1451.78 Z" fill="#000000" fill-rule="nonzero" fill-opacity="1" /><path clip-path="url(#clip520)" d="M1920.99 1469.17 Q1917.66 1469.17 1915.74 1470.95 Q1913.84 1472.73 1913.84 1475.86 Q1913.84 1478.98 1915.74 1480.77 Q1917.66 1482.55 1920.99 1482.55 Q1924.33 1482.55 1926.25 1480.77 Q1928.17 1478.96 1928.17 1475.86 Q1928.17 1472.73 1926.25 1470.95 Q1924.35 1469.17 1920.99 1469.17 M1916.32 1467.18 Q1913.31 1466.44 1911.62 1464.38 Q1909.95 1462.32 1909.95 1459.35 Q1909.95 1455.21 1912.89 1452.8 Q1915.85 1450.39 1920.99 1450.39 Q1926.15 1450.39 1929.09 1452.8 Q1932.03 1455.21 1932.03 1459.35 Q1932.03 1462.32 1930.34 1464.38 Q1928.68 1466.44 1925.69 1467.18 Q1929.07 1467.96 1930.95 1470.26 Q1932.84 1472.55 1932.84 1475.86 Q1932.84 1480.88 1929.77 1483.57 Q1926.71 1486.25 1920.99 1486.25 Q1915.27 1486.25 1912.2 1483.57 Q1909.14 1480.88 1909.14 1475.86 Q1909.14 1472.55 1911.04 1470.26 Q1912.94 1467.96 1916.32 1467.18 M1914.6 1459.79 Q1914.6 1462.48 1916.27 1463.98 Q1917.96 1465.49 1920.99 1465.49 Q1924 1465.49 1925.69 1463.98 Q1927.4 1462.48 1927.4 1459.79 Q1927.4 1457.11 1925.69 1455.6 Q1924 1454.1 1920.99 1454.1 Q1917.96 1454.1 1916.27 1455.6 Q1914.6 1457.11 1914.6 1459.79 Z" fill="#000000" fill-rule="nonzero" fill-opacity="1" /><path clip-path="url(#clip520)" d="M2327.44 1481.64 L2335.08 1481.64 L2335.08 1455.28 L2326.77 1456.95 L2326.77 1452.69 L2335.04 1451.02 L2339.71 1451.02 L2339.71 1481.64 L2347.35 1481.64 L2347.35 1485.58 L2327.44 1485.58 L2327.44 1481.64 Z" fill="#000000" fill-rule="nonzero" fill-opacity="1" /><path clip-path="url(#clip520)" d="M2366.8 1454.1 Q2363.18 1454.1 2361.36 1457.66 Q2359.55 1461.2 2359.55 1468.33 Q2359.55 1475.44 2361.36 1479.01 Q2363.18 1482.55 2366.8 1482.55 Q2370.43 1482.55 2372.23 1479.01 Q2374.06 1475.44 2374.06 1468.33 Q2374.06 1461.2 2372.23 1457.66 Q2370.43 1454.1 2366.8 1454.1 M2366.8 1450.39 Q2372.61 1450.39 2375.66 1455 Q2378.74 1459.58 2378.74 1468.33 Q2378.74 1477.06 2375.66 1481.67 Q2372.61 1486.25 2366.8 1486.25 Q2360.99 1486.25 2357.91 1481.67 Q2354.85 1477.06 2354.85 1468.33 Q2354.85 1459.58 2357.91 1455 Q2360.99 1450.39 2366.8 1450.39 Z" fill="#000000" fill-rule="nonzero" fill-opacity="1" /><path clip-path="url(#clip520)" d="M1272.41 1522.27 L1272.41 1532.4 L1284.47 1532.4 L1284.47 1536.95 L1272.41 1536.95 L1272.41 1556.3 Q1272.41 1560.66 1273.58 1561.9 Q1274.79 1563.14 1278.45 1563.14 L1284.47 1563.14 L1284.47 1568.04 L1278.45 1568.04 Q1271.67 1568.04 1269.1 1565.53 Q1266.52 1562.98 1266.52 1556.3 L1266.52 1536.95 L1262.22 1536.95 L1262.22 1532.4 L1266.52 1532.4 L1266.52 1522.27 L1272.41 1522.27 Z" fill="#000000" fill-rule="nonzero" fill-opacity="1" /><polyline clip-path="url(#clip522)" style="stroke:#000000; stroke-linecap:round; stroke-linejoin:round; stroke-width:2; stroke-opacity:0.1; fill:none" points="193.936,1300.21 2352.76,1300.21 "/>
<polyline clip-path="url(#clip522)" style="stroke:#000000; stroke-linecap:round; stroke-linejoin:round; stroke-width:2; stroke-opacity:0.1; fill:none" points="193.936,1076.04 2352.76,1076.04 "/>
<polyline clip-path="url(#clip522)" style="stroke:#000000; stroke-linecap:round; stroke-linejoin:round; stroke-width:2; stroke-opacity:0.1; fill:none" points="193.936,851.881 2352.76,851.881 "/>
<polyline clip-path="url(#clip522)" style="stroke:#000000; stroke-linecap:round; stroke-linejoin:round; stroke-width:2; stroke-opacity:0.1; fill:none" points="193.936,627.717 2352.76,627.717 "/>
<polyline clip-path="url(#clip522)" style="stroke:#000000; stroke-linecap:round; stroke-linejoin:round; stroke-width:2; stroke-opacity:0.1; fill:none" points="193.936,403.553 2352.76,403.553 "/>
<polyline clip-path="url(#clip522)" style="stroke:#000000; stroke-linecap:round; stroke-linejoin:round; stroke-width:2; stroke-opacity:0.1; fill:none" points="193.936,179.389 2352.76,179.389 "/>
<polyline clip-path="url(#clip520)" style="stroke:#000000; stroke-linecap:round; stroke-linejoin:round; stroke-width:4; stroke-opacity:1; fill:none" points="193.936,1423.18 193.936,47.2441 "/>
<polyline clip-path="url(#clip520)" style="stroke:#000000; stroke-linecap:round; stroke-linejoin:round; stroke-width:4; stroke-opacity:1; fill:none" points="193.936,1300.21 212.834,1300.21 "/>
<polyline clip-path="url(#clip520)" style="stroke:#000000; stroke-linecap:round; stroke-linejoin:round; stroke-width:4; stroke-opacity:1; fill:none" points="193.936,1076.04 212.834,1076.04 "/>
<polyline clip-path="url(#clip520)" style="stroke:#000000; stroke-linecap:round; stroke-linejoin:round; stroke-width:4; stroke-opacity:1; fill:none" points="193.936,851.881 212.834,851.881 "/>
<polyline clip-path="url(#clip520)" style="stroke:#000000; stroke-linecap:round; stroke-linejoin:round; stroke-width:4; stroke-opacity:1; fill:none" points="193.936,627.717 212.834,627.717 "/>
<polyline clip-path="url(#clip520)" style="stroke:#000000; stroke-linecap:round; stroke-linejoin:round; stroke-width:4; stroke-opacity:1; fill:none" points="193.936,403.553 212.834,403.553 "/>
<polyline clip-path="url(#clip520)" style="stroke:#000000; stroke-linecap:round; stroke-linejoin:round; stroke-width:4; stroke-opacity:1; fill:none" points="193.936,179.389 212.834,179.389 "/>
<path clip-path="url(#clip520)" d="M51.9875 1300.66 L81.6633 1300.66 L81.6633 1304.6 L51.9875 1304.6 L51.9875 1300.66 Z" fill="#000000" fill-rule="nonzero" fill-opacity="1" /><path clip-path="url(#clip520)" d="M92.566 1313.55 L100.205 1313.55 L100.205 1287.19 L91.8947 1288.85 L91.8947 1284.6 L100.159 1282.93 L104.834 1282.93 L104.834 1313.55 L112.473 1313.55 L112.473 1317.49 L92.566 1317.49 L92.566 1313.55 Z" fill="#000000" fill-rule="nonzero" fill-opacity="1" /><path clip-path="url(#clip520)" d="M121.918 1311.61 L126.802 1311.61 L126.802 1317.49 L121.918 1317.49 L121.918 1311.61 Z" fill="#000000" fill-rule="nonzero" fill-opacity="1" /><path clip-path="url(#clip520)" d="M137.033 1282.93 L155.39 1282.93 L155.39 1286.86 L141.316 1286.86 L141.316 1295.34 Q142.334 1294.99 143.353 1294.83 Q144.371 1294.64 145.39 1294.64 Q151.177 1294.64 154.556 1297.81 Q157.936 1300.98 157.936 1306.4 Q157.936 1311.98 154.464 1315.08 Q150.992 1318.16 144.672 1318.16 Q142.496 1318.16 140.228 1317.79 Q137.982 1317.42 135.575 1316.68 L135.575 1311.98 Q137.658 1313.11 139.881 1313.67 Q142.103 1314.22 144.58 1314.22 Q148.584 1314.22 150.922 1312.12 Q153.26 1310.01 153.26 1306.4 Q153.26 1302.79 150.922 1300.68 Q148.584 1298.58 144.58 1298.58 Q142.705 1298.58 140.83 1298.99 Q138.978 1299.41 137.033 1300.29 L137.033 1282.93 Z" fill="#000000" fill-rule="nonzero" fill-opacity="1" /><path clip-path="url(#clip520)" d="M50.9921 1076.5 L80.6679 1076.5 L80.6679 1080.43 L50.9921 1080.43 L50.9921 1076.5 Z" fill="#000000" fill-rule="nonzero" fill-opacity="1" /><path clip-path="url(#clip520)" d="M91.5706 1089.39 L99.2095 1089.39 L99.2095 1063.02 L90.8993 1064.69 L90.8993 1060.43 L99.1632 1058.76 L103.839 1058.76 L103.839 1089.39 L111.478 1089.39 L111.478 1093.32 L91.5706 1093.32 L91.5706 1089.39 Z" fill="#000000" fill-rule="nonzero" fill-opacity="1" /><path clip-path="url(#clip520)" d="M120.922 1087.45 L125.807 1087.45 L125.807 1093.32 L120.922 1093.32 L120.922 1087.45 Z" fill="#000000" fill-rule="nonzero" fill-opacity="1" /><path clip-path="url(#clip520)" d="M145.992 1061.84 Q142.381 1061.84 140.552 1065.41 Q138.746 1068.95 138.746 1076.08 Q138.746 1083.19 140.552 1086.75 Q142.381 1090.29 145.992 1090.29 Q149.626 1090.29 151.431 1086.75 Q153.26 1083.19 153.26 1076.08 Q153.26 1068.95 151.431 1065.41 Q149.626 1061.84 145.992 1061.84 M145.992 1058.14 Q151.802 1058.14 154.857 1062.75 Q157.936 1067.33 157.936 1076.08 Q157.936 1084.81 154.857 1089.41 Q151.802 1094 145.992 1094 Q140.181 1094 137.103 1089.41 Q134.047 1084.81 134.047 1076.08 Q134.047 1067.33 137.103 1062.75 Q140.181 1058.14 145.992 1058.14 Z" fill="#000000" fill-rule="nonzero" fill-opacity="1" /><path clip-path="url(#clip520)" d="M51.9875 852.332 L81.6633 852.332 L81.6633 856.268 L51.9875 856.268 L51.9875 852.332 Z" fill="#000000" fill-rule="nonzero" fill-opacity="1" /><path clip-path="url(#clip520)" d="M101.756 837.68 Q98.1447 837.68 96.316 841.245 Q94.5104 844.786 94.5104 851.916 Q94.5104 859.022 96.316 862.587 Q98.1447 866.129 101.756 866.129 Q105.39 866.129 107.196 862.587 Q109.024 859.022 109.024 851.916 Q109.024 844.786 107.196 841.245 Q105.39 837.68 101.756 837.68 M101.756 833.976 Q107.566 833.976 110.621 838.582 Q113.7 843.166 113.7 851.916 Q113.7 860.643 110.621 865.249 Q107.566 869.832 101.756 869.832 Q95.9456 869.832 92.8669 865.249 Q89.8114 860.643 89.8114 851.916 Q89.8114 843.166 92.8669 838.582 Q95.9456 833.976 101.756 833.976 Z" fill="#000000" fill-rule="nonzero" fill-opacity="1" /><path clip-path="url(#clip520)" d="M121.918 863.281 L126.802 863.281 L126.802 869.161 L121.918 869.161 L121.918 863.281 Z" fill="#000000" fill-rule="nonzero" fill-opacity="1" /><path clip-path="url(#clip520)" d="M137.033 834.601 L155.39 834.601 L155.39 838.536 L141.316 838.536 L141.316 847.008 Q142.334 846.661 143.353 846.499 Q144.371 846.314 145.39 846.314 Q151.177 846.314 154.556 849.485 Q157.936 852.656 157.936 858.073 Q157.936 863.652 154.464 866.754 Q150.992 869.832 144.672 869.832 Q142.496 869.832 140.228 869.462 Q137.982 869.092 135.575 868.351 L135.575 863.652 Q137.658 864.786 139.881 865.342 Q142.103 865.897 144.58 865.897 Q148.584 865.897 150.922 863.791 Q153.26 861.684 153.26 858.073 Q153.26 854.462 150.922 852.356 Q148.584 850.249 144.58 850.249 Q142.705 850.249 140.83 850.666 Q138.978 851.082 137.033 851.962 L137.033 834.601 Z" fill="#000000" fill-rule="nonzero" fill-opacity="1" /><path clip-path="url(#clip520)" d="M100.76 613.516 Q97.1493 613.516 95.3206 617.081 Q93.515 620.622 93.515 627.752 Q93.515 634.858 95.3206 638.423 Q97.1493 641.965 100.76 641.965 Q104.395 641.965 106.2 638.423 Q108.029 634.858 108.029 627.752 Q108.029 620.622 106.2 617.081 Q104.395 613.516 100.76 613.516 M100.76 609.812 Q106.571 609.812 109.626 614.419 Q112.705 619.002 112.705 627.752 Q112.705 636.479 109.626 641.085 Q106.571 645.668 100.76 645.668 Q94.9502 645.668 91.8715 641.085 Q88.816 636.479 88.816 627.752 Q88.816 619.002 91.8715 614.419 Q94.9502 609.812 100.76 609.812 Z" fill="#000000" fill-rule="nonzero" fill-opacity="1" /><path clip-path="url(#clip520)" d="M120.922 639.118 L125.807 639.118 L125.807 644.997 L120.922 644.997 L120.922 639.118 Z" fill="#000000" fill-rule="nonzero" fill-opacity="1" /><path clip-path="url(#clip520)" d="M145.992 613.516 Q142.381 613.516 140.552 617.081 Q138.746 620.622 138.746 627.752 Q138.746 634.858 140.552 638.423 Q142.381 641.965 145.992 641.965 Q149.626 641.965 151.431 638.423 Q153.26 634.858 153.26 627.752 Q153.26 620.622 151.431 617.081 Q149.626 613.516 145.992 613.516 M145.992 609.812 Q151.802 609.812 154.857 614.419 Q157.936 619.002 157.936 627.752 Q157.936 636.479 154.857 641.085 Q151.802 645.668 145.992 645.668 Q140.181 645.668 137.103 641.085 Q134.047 636.479 134.047 627.752 Q134.047 619.002 137.103 614.419 Q140.181 609.812 145.992 609.812 Z" fill="#000000" fill-rule="nonzero" fill-opacity="1" /><path clip-path="url(#clip520)" d="M101.756 389.352 Q98.1447 389.352 96.316 392.917 Q94.5104 396.458 94.5104 403.588 Q94.5104 410.694 96.316 414.259 Q98.1447 417.801 101.756 417.801 Q105.39 417.801 107.196 414.259 Q109.024 410.694 109.024 403.588 Q109.024 396.458 107.196 392.917 Q105.39 389.352 101.756 389.352 M101.756 385.648 Q107.566 385.648 110.621 390.255 Q113.7 394.838 113.7 403.588 Q113.7 412.315 110.621 416.921 Q107.566 421.505 101.756 421.505 Q95.9456 421.505 92.8669 416.921 Q89.8114 412.315 89.8114 403.588 Q89.8114 394.838 92.8669 390.255 Q95.9456 385.648 101.756 385.648 Z" fill="#000000" fill-rule="nonzero" fill-opacity="1" /><path clip-path="url(#clip520)" d="M121.918 414.954 L126.802 414.954 L126.802 420.833 L121.918 420.833 L121.918 414.954 Z" fill="#000000" fill-rule="nonzero" fill-opacity="1" /><path clip-path="url(#clip520)" d="M137.033 386.273 L155.39 386.273 L155.39 390.208 L141.316 390.208 L141.316 398.681 Q142.334 398.333 143.353 398.171 Q144.371 397.986 145.39 397.986 Q151.177 397.986 154.556 401.157 Q157.936 404.329 157.936 409.745 Q157.936 415.324 154.464 418.426 Q150.992 421.505 144.672 421.505 Q142.496 421.505 140.228 421.134 Q137.982 420.764 135.575 420.023 L135.575 415.324 Q137.658 416.458 139.881 417.014 Q142.103 417.569 144.58 417.569 Q148.584 417.569 150.922 415.463 Q153.26 413.356 153.26 409.745 Q153.26 406.134 150.922 404.028 Q148.584 401.921 144.58 401.921 Q142.705 401.921 140.83 402.338 Q138.978 402.755 137.033 403.634 L137.033 386.273 Z" fill="#000000" fill-rule="nonzero" fill-opacity="1" /><path clip-path="url(#clip520)" d="M91.5706 192.734 L99.2095 192.734 L99.2095 166.369 L90.8993 168.035 L90.8993 163.776 L99.1632 162.109 L103.839 162.109 L103.839 192.734 L111.478 192.734 L111.478 196.669 L91.5706 196.669 L91.5706 192.734 Z" fill="#000000" fill-rule="nonzero" fill-opacity="1" /><path clip-path="url(#clip520)" d="M120.922 190.79 L125.807 190.79 L125.807 196.669 L120.922 196.669 L120.922 190.79 Z" fill="#000000" fill-rule="nonzero" fill-opacity="1" /><path clip-path="url(#clip520)" d="M145.992 165.188 Q142.381 165.188 140.552 168.753 Q138.746 172.295 138.746 179.424 Q138.746 186.531 140.552 190.095 Q142.381 193.637 145.992 193.637 Q149.626 193.637 151.431 190.095 Q153.26 186.531 153.26 179.424 Q153.26 172.295 151.431 168.753 Q149.626 165.188 145.992 165.188 M145.992 161.484 Q151.802 161.484 154.857 166.091 Q157.936 170.674 157.936 179.424 Q157.936 188.151 154.857 192.757 Q151.802 197.341 145.992 197.341 Q140.181 197.341 137.103 192.757 Q134.047 188.151 134.047 179.424 Q134.047 170.674 137.103 166.091 Q140.181 161.484 145.992 161.484 Z" fill="#000000" fill-rule="nonzero" fill-opacity="1" /><polyline clip-path="url(#clip522)" style="stroke:#009af9; stroke-linecap:round; stroke-linejoin:round; stroke-width:4; stroke-opacity:1; fill:none" points="193.936,627.717 196.097,620.573 198.258,613.561 200.419,606.728 202.58,599.983 204.741,593.244 206.902,586.428 209.063,579.618 211.224,573.204 213.385,566.965 215.546,560.865 217.707,554.871 219.868,548.945 222.029,543.053 224.19,537.16 226.351,531.231 228.512,525.23 230.673,519.122 232.834,512.871 234.995,506.926 237.156,501.48 239.317,496.188 241.478,491.029 243.639,485.983 245.8,481.029 247.961,476.147 250.122,471.317 252.282,466.518 254.443,461.73 256.604,456.933 258.765,452.105 260.926,447.228 263.087,442.28 265.248,437.24 267.409,432.089 269.57,426.807 271.731,421.964 273.892,417.625 276.053,413.411 278.214,409.309 280.375,405.307 282.536,401.393 284.697,397.554 286.858,393.778 289.019,390.053 291.18,386.366 293.341,382.705 295.502,379.058 297.663,375.412 299.824,371.756 301.985,368.076 304.146,364.36 306.307,360.597 308.468,356.773 310.629,352.877 312.79,348.896 314.951,344.817 317.112,340.629 319.273,337.09 321.434,333.863 323.595,330.728 325.756,327.679 327.917,324.708 330.078,321.808 332.239,318.973 334.4,316.194 336.561,313.467 338.722,310.782 340.883,308.134 343.044,305.515 345.205,302.919 347.366,300.338 349.527,297.765 351.688,295.193 353.849,292.616 356.01,290.026 358.171,287.417 360.332,284.78 362.493,282.111 364.653,279.4 366.814,276.642 368.975,273.829 371.136,270.954 373.297,268.011 375.458,264.992 377.619,261.89 379.78,259.541 381.941,257.324 384.102,255.153 386.263,253.013 388.424,250.886 390.585,248.757 392.746,246.608 394.907,244.423 397.068,242.191 399.229,240.658 401.39,240.055 403.551,240.3 405.712,241.306 407.873,242.991 410.034,245.269 412.195,248.056 414.356,251.268 416.517,254.821 418.678,258.629 420.839,262.609 423,266.677 425.161,270.747 427.322,274.736 429.483,278.56 431.644,282.133 433.805,285.371 435.966,288.191 438.127,290.507 440.288,292.236 442.449,293.292 444.61,293.592 446.771,293.052 448.932,291.622 451.093,293.775 453.254,295.867 455.415,297.912 457.576,299.923 459.737,301.914 461.898,303.897 464.059,305.887 466.22,307.897 468.381,309.94 470.542,312.03 472.703,314.004 474.864,315.849 477.024,317.643 479.185,319.388 481.346,321.087 483.507,322.741 485.668,324.352 487.829,325.924 489.99,327.458 492.151,328.956 494.312,330.421 496.473,331.854 498.634,333.259 500.795,334.636 502.956,335.989 505.117,337.32 507.278,338.63 509.439,339.922 511.6,341.198 513.761,342.46 515.922,343.711 518.083,344.953 520.244,346.187 522.405,347.417 524.566,348.643 526.727,349.87 528.888,351.098 531.049,352.329 533.21,353.567 535.371,354.813 537.532,356.07 539.693,357.339 541.854,358.623 544.015,359.924 546.176,361.244 548.337,362.586 550.498,363.951 552.659,365.342 554.82,366.761 556.981,368.21 559.142,369.692 561.303,371.208 563.464,372.761 565.625,374.353 567.786,375.986 569.947,377.662 572.108,378.958 574.269,379.954 576.43,380.922 578.591,381.864 580.752,382.782 582.913,383.678 585.074,384.555 587.235,385.415 589.396,386.262 591.556,387.096 593.717,387.921 595.878,388.739 598.039,389.553 600.2,390.364 602.361,391.176 604.522,391.99 606.683,392.81 608.844,393.637 611.005,394.474 613.166,395.323 615.327,396.187 617.488,397.068 619.649,397.969 621.81,398.892 623.971,399.839 626.132,400.682 628.293,401.256 630.454,401.666 632.615,401.918 634.776,402.015 636.937,401.966 639.098,401.774 641.259,401.445 643.42,400.986 645.581,400.4 647.742,399.695 649.903,398.875 652.064,397.946 654.225,396.914 656.386,395.784 658.547,394.561 660.708,393.251 662.869,391.86 665.03,390.393 667.191,388.855 669.352,387.253 671.513,385.591 673.674,383.876 675.835,382.112 677.996,380.306 680.157,378.462 682.318,376.587 684.479,374.685 686.64,372.763 688.801,370.825 690.962,368.878 693.123,366.927 695.284,364.978 697.445,363.035 699.606,361.105 701.767,359.193 703.927,357.304 706.088,355.444 708.249,353.619 710.41,352.419 712.571,351.353 714.732,350.317 716.893,349.307 719.054,348.32 721.215,347.353 723.376,346.402 725.537,345.463 727.698,344.534 729.859,343.611 732.02,342.69 734.181,341.769 736.342,340.843 738.503,339.909 740.664,338.965 742.825,338.005 744.986,337.029 747.147,336.03 749.308,335.007 751.469,333.97 753.63,333.13 755.791,332.314 757.952,331.522 760.113,330.75 762.274,330 764.435,329.268 766.596,328.555 768.757,327.858 770.918,327.177 773.079,326.51 775.24,325.857 777.401,325.216 779.562,324.585 781.723,323.965 783.884,323.353 786.045,322.748 788.206,322.149 790.367,321.556 792.528,320.966 794.689,320.379 796.85,319.793 799.011,319.208 801.172,318.621 803.333,318.032 805.494,317.44 807.655,316.844 809.816,316.242 811.977,315.632 814.138,315.015 816.298,314.389 818.459,313.752 820.62,313.103 822.781,312.442 824.942,311.766 827.103,311.076 829.264,310.369 831.425,309.644 833.586,308.901 835.747,308.137 837.908,307.736 840.069,308.293 842.23,309.733 844.391,312.016 846.552,315.102 848.713,318.951 850.874,323.526 853.035,328.785 855.196,334.69 857.357,341.201 859.518,348.279 861.679,355.884 863.84,363.977 866.001,372.518 868.162,381.469 870.323,390.789 872.484,400.439 874.645,410.38 876.806,420.572 878.967,430.976 881.128,441.552 883.289,452.261 885.45,463.064 887.611,473.921 889.772,484.792 891.933,495.639 894.094,506.422 896.255,517.1 898.416,527.636 900.577,537.803 902.738,544.844 904.899,551.675 907.06,558.322 909.221,564.808 911.382,571.158 913.543,577.394 915.704,583.542 917.865,589.625 920.026,595.668 922.187,601.694 924.348,607.727 926.509,613.791 928.669,619.911 930.83,626.109 932.991,632.412 935.152,638.841 937.313,645.422 939.474,652.179 941.635,657.953 943.796,663.356 945.957,668.607 948.118,673.714 950.279,678.685 952.44,683.529 954.601,688.254 956.762,692.869 958.923,697.381 961.084,701.8 963.245,706.134 965.406,710.392 967.567,714.58 969.728,718.71 971.889,722.787 974.05,726.822 976.211,730.822 978.372,734.796 980.533,738.752 982.694,742.699 984.855,746.645 987.016,750.598 989.177,754.568 991.338,758.562 993.499,762.589 995.66,766.657 997.821,770.774 999.982,774.95 1002.14,779.193 1004.3,783.51 1006.46,787.911 1008.63,792.403 1010.79,796.996 1012.95,801.697 1015.11,806.516 1017.27,811.46 1019.43,816.538 1021.59,820.226 1023.75,823.521 1025.91,826.741 1028.07,829.907 1030.24,833.044 1032.4,836.173 1034.56,839.318 1036.72,842.5 1038.88,845.743 1041.04,849.017 1043.2,852.337 1045.36,856.088 1047.52,860.236 1049.68,864.745 1051.85,869.58 1054.01,874.706 1056.17,880.086 1058.33,885.687 1060.49,891.473 1062.65,897.408 1064.81,903.458 1066.97,909.586 1069.13,915.759 1071.29,921.939 1073.46,928.094 1075.62,934.186 1077.78,940.181 1079.94,946.043 1082.1,951.738 1084.26,957.23 1086.42,962.483 1088.58,967.463 1090.74,972.134 1092.9,976.462 1095.07,980.41 1097.23,983.943 1099.39,987.027 1101.55,991.454 1103.71,995.783 1105.87,1000.01 1108.03,1004.15 1110.19,1008.24 1112.35,1012.29 1114.51,1016.33 1116.67,1020.39 1118.84,1024.49 1121,1028.65 1123.16,1032.9 1125.32,1037.21 1127.48,1041.01 1129.64,1044.7 1131.8,1048.29 1133.96,1051.79 1136.12,1055.19 1138.28,1058.5 1140.45,1061.73 1142.61,1064.88 1144.77,1067.95 1146.93,1070.96 1149.09,1073.91 1151.25,1076.79 1153.41,1079.62 1155.57,1082.4 1157.73,1085.13 1159.89,1087.82 1162.06,1090.47 1164.22,1093.1 1166.38,1095.69 1168.54,1098.27 1170.7,1100.82 1172.86,1103.37 1175.02,1105.9 1177.18,1108.43 1179.34,1110.97 1181.5,1113.5 1183.67,1116.05 1185.83,1118.62 1187.99,1121.2 1190.15,1123.81 1192.31,1126.45 1194.47,1129.12 1196.63,1131.83 1198.79,1134.58 1200.95,1137.38 1203.11,1140.24 1205.28,1143.15 1207.44,1146.12 1209.6,1149.16 1211.76,1152.27 1213.92,1155.46 1216.08,1158.73 1218.24,1162.08 1220.4,1165.52 1222.56,1167.59 1224.72,1169.21 1226.88,1170.49 1229.05,1171.46 1231.21,1172.15 1233.37,1172.58 1235.53,1172.78 1237.69,1172.78 1239.85,1172.59 1242.01,1172.25 1244.17,1171.79 1246.33,1171.22 1248.49,1170.59 1250.66,1169.9 1252.82,1169.19 1254.98,1168.48 1257.14,1167.81 1259.3,1167.19 1261.46,1166.65 1263.62,1166.22 1265.78,1165.93 1267.94,1165.8 1270.1,1165.85 1272.27,1166.12 1274.43,1166.63 1276.59,1167.4 1278.75,1168.46 1280.91,1169.84 1283.07,1171.57 1285.23,1170.69 1287.39,1168.79 1289.55,1166.94 1291.71,1165.15 1293.88,1163.39 1296.04,1161.67 1298.2,1159.97 1300.36,1158.3 1302.52,1156.65 1304.68,1155 1306.84,1153.36 1309,1151.72 1311.16,1150.06 1313.32,1148.4 1315.49,1146.71 1317.65,1144.99 1319.81,1143.24 1321.97,1141.45 1324.13,1139.61 1326.29,1137.91 1328.45,1136.42 1330.61,1134.97 1332.77,1133.57 1334.93,1132.19 1337.09,1130.86 1339.26,1129.55 1341.42,1128.28 1343.58,1127.05 1345.74,1125.84 1347.9,1124.66 1350.06,1123.51 1352.22,1122.39 1354.38,1121.29 1356.54,1120.21 1358.7,1119.16 1360.87,1118.13 1363.03,1117.12 1365.19,1116.13 1367.35,1115.16 1369.51,1114.2 1371.67,1113.26 1373.83,1112.33 1375.99,1111.41 1378.15,1110.51 1380.31,1109.62 1382.48,1108.73 1384.64,1107.85 1386.8,1106.98 1388.96,1106.12 1391.12,1105.26 1393.28,1104.4 1395.44,1103.54 1397.6,1102.68 1399.76,1101.82 1401.92,1100.96 1404.09,1100.1 1406.25,1099.23 1408.41,1098.35 1410.57,1097.47 1412.73,1096.57 1414.89,1095.67 1417.05,1094.76 1419.21,1093.83 1421.37,1092.89 1423.53,1091.93 1425.7,1090.96 1427.86,1089.97 1430.02,1088.96 1432.18,1087.93 1434.34,1086.88 1436.5,1085.81 1438.66,1084.72 1440.82,1083.59 1442.98,1082.45 1445.14,1081.27 1447.3,1080.06 1449.47,1078.83 1451.63,1077.56 1453.79,1076.26 1455.95,1075.46 1458.11,1075.4 1460.27,1075.84 1462.43,1076.72 1464.59,1077.97 1466.75,1079.54 1468.91,1081.37 1471.08,1083.41 1473.24,1085.58 1475.4,1087.83 1477.56,1090.1 1479.72,1092.34 1481.88,1094.48 1484.04,1096.46 1486.2,1098.23 1488.36,1099.72 1490.52,1100.88 1492.69,1101.64 1494.85,1101.95 1497.01,1101.75 1499.17,1104.15 1501.33,1107.79 1503.49,1111.33 1505.65,1114.79 1507.81,1118.18 1509.97,1121.53 1512.13,1124.84 1514.3,1128.15 1516.46,1131.46 1518.62,1134.79 1520.78,1138.15 1522.94,1141.57 1525.1,1145.07 1527.26,1148.65 1529.42,1151.89 1531.58,1154.92 1533.74,1157.86 1535.91,1160.72 1538.07,1163.51 1540.23,1166.23 1542.39,1168.87 1544.55,1171.45 1546.71,1173.96 1548.87,1176.42 1551.03,1178.82 1553.19,1181.17 1555.35,1183.47 1557.51,1185.72 1559.68,1187.93 1561.84,1190.1 1564,1192.23 1566.16,1194.33 1568.32,1196.4 1570.48,1198.44 1572.64,1200.46 1574.8,1202.46 1576.96,1204.44 1579.12,1206.41 1581.29,1208.37 1583.45,1210.33 1585.61,1212.28 1587.77,1214.23 1589.93,1216.18 1592.09,1218.14 1594.25,1220.11 1596.41,1222.09 1598.57,1224.09 1600.73,1226.11 1602.9,1228.15 1605.06,1230.22 1607.22,1232.32 1609.38,1234.45 1611.54,1236.62 1613.7,1238.82 1615.86,1241.07 1618.02,1243.37 1620.18,1245.72 1622.34,1248.11 1624.51,1250.57 1626.67,1253.08 1628.83,1255.66 1630.99,1258.3 1633.15,1261.01 1635.31,1263.43 1637.47,1265.01 1639.63,1266.54 1641.79,1268.03 1643.95,1269.49 1646.12,1270.92 1648.28,1272.32 1650.44,1273.71 1652.6,1275.08 1654.76,1276.45 1656.92,1277.82 1659.08,1279.19 1661.24,1280.57 1663.4,1281.97 1665.56,1283.39 1667.72,1284.84 1669.89,1286.31 1672.05,1287.83 1674.21,1289.23 1676.37,1290.46 1678.53,1291.66 1680.69,1292.84 1682.85,1293.99 1685.01,1295.12 1687.17,1296.24 1689.33,1297.36 1691.5,1298.47 1693.66,1299.58 1695.82,1300.71 1697.98,1301.85 1700.14,1303.02 1702.3,1304.2 1704.46,1305.42 1706.62,1305.69 1708.78,1304.44 1710.94,1301.75 1713.11,1297.68 1715.27,1292.31 1717.43,1285.7 1719.59,1277.91 1721.75,1269.02 1723.91,1259.08 1726.07,1248.18 1728.23,1236.38 1730.39,1223.74 1732.55,1210.33 1734.72,1196.23 1736.88,1181.49 1739.04,1166.18 1741.2,1150.38 1743.36,1134.15 1745.52,1117.55 1747.68,1100.67 1749.84,1083.55 1752,1066.28 1754.16,1048.91 1756.33,1031.52 1758.49,1014.17 1760.65,996.934 1762.81,979.876 1764.97,963.064 1767.13,946.806 1769.29,935.513 1771.45,924.55 1773.61,913.866 1775.77,903.41 1777.93,893.132 1780.1,882.981 1782.26,872.905 1784.42,862.855 1786.58,852.78 1788.74,842.628 1790.9,832.349 1793.06,821.893 1795.22,811.208 1797.38,800.243 1799.54,790.727 1801.71,781.598 1803.87,772.727 1806.03,764.098 1808.19,755.698 1810.35,747.512 1812.51,739.526 1814.67,731.726 1816.83,724.097 1818.99,716.625 1821.15,709.296 1823.32,702.095 1825.48,695.009 1827.64,688.022 1829.8,681.122 1831.96,674.293 1834.12,667.521 1836.28,660.791 1838.44,654.091 1840.6,647.404 1842.76,640.718 1844.93,634.018 1847.09,627.289 1849.25,620.517 1851.41,613.688 1853.57,606.787 1855.73,599.801 1857.89,592.716 1860.05,585.516 1862.21,578.187 1864.37,570.716 1866.54,563.087 1868.7,555.288 1870.86,547.302 1873.02,539.117 1875.18,530.718 1877.34,522.09 1879.5,516.165 1881.66,510.606 1883.82,505.2 1885.98,499.928 1888.15,494.77 1890.31,489.708 1892.47,484.723 1894.63,479.795 1896.79,474.906 1898.95,470.036 1901.11,465.167 1903.27,460.279 1905.43,455.354 1907.59,450.372 1909.75,445.314 1911.92,440.162 1914.08,434.896 1916.24,429.497 1918.4,424.337 1920.56,420.388 1922.72,417.115 1924.88,414.483 1927.04,412.46 1929.2,411.013 1931.36,410.107 1933.53,409.709 1935.69,409.786 1937.85,410.304 1940.01,411.23 1942.17,412.53 1944.33,414.171 1946.49,416.12 1948.65,418.342 1950.81,420.805 1952.97,423.475 1955.14,426.318 1957.3,429.302 1959.46,432.392 1961.62,435.555 1963.78,438.758 1965.94,441.967 1968.1,445.149 1970.26,448.27 1972.42,451.297 1974.58,454.196 1976.75,456.934 1978.91,459.478 1981.07,461.583 1983.23,463.055 1985.39,464.485 1987.55,465.879 1989.71,467.241 1991.87,468.578 1994.03,469.895 1996.19,471.199 1998.36,472.494 2000.52,473.787 2002.68,475.082 2004.84,476.387 2007,477.707 2009.16,479.046 2011.32,480.412 2013.48,481.809 2015.64,483.244 2017.8,484.451 2019.96,485.616 2022.13,486.75 2024.29,487.852 2026.45,488.926 2028.61,489.972 2030.77,490.991 2032.93,491.985 2035.09,492.955 2037.25,493.902 2039.41,494.828 2041.57,495.734 2043.74,496.622 2045.9,497.493 2048.06,498.347 2050.22,499.187 2052.38,500.014 2054.54,500.829 2056.7,501.634 2058.86,502.429 2061.02,503.216 2063.18,503.997 2065.35,504.773 2067.51,505.544 2069.67,506.314 2071.83,507.082 2073.99,507.85 2076.15,508.619 2078.31,509.392 2080.47,510.168 2082.63,510.95 2084.79,511.739 2086.96,512.536 2089.12,513.342 2091.28,514.16 2093.44,514.989 2095.6,515.832 2097.76,516.689 2099.92,517.563 2102.08,518.455 2104.24,519.365 2106.4,520.295 2108.57,521.247 2110.73,522.221 2112.89,523.22 2115.05,524.244 2117.21,525.295 2119.37,526.313 2121.53,527.17 2123.69,528.31 2125.85,529.668 2128.01,531.178 2130.17,532.773 2132.34,534.389 2134.5,535.959 2136.66,537.416 2138.82,538.695 2140.98,539.731 2143.14,540.79 2145.3,542.916 2147.46,544.991 2149.62,547.031 2151.78,549.055 2153.95,551.083 2156.11,553.131 2158.27,555.219 2160.43,557.239 2162.59,559.14 2164.75,560.987 2166.91,562.783 2169.07,564.531 2171.23,566.235 2173.39,567.897 2175.56,569.52 2177.72,571.108 2179.88,572.664 2182.04,574.191 2184.2,575.693 2186.36,577.172 2188.52,578.632 2190.68,580.075 2192.84,581.506 2195,582.927 2197.17,584.341 2199.33,585.752 2201.49,587.162 2203.65,588.576 2205.81,589.995 2207.97,591.424 2210.13,592.865 2212.29,594.322 2214.45,595.797 2216.61,597.295 2218.78,598.818 2220.94,600.369 2223.1,601.951 2225.26,603.569 2227.42,605.224 2229.58,606.92 2231.74,608.66 2233.9,610.448 2236.06,611.73 2238.22,612.915 2240.38,614.066 2242.55,615.186 2244.71,616.279 2246.87,617.346 2249.03,618.391 2251.19,619.417 2253.35,620.426 2255.51,621.422 2257.67,622.406 2259.83,623.383 2261.99,624.355 2264.16,625.324 2266.32,626.294 2268.48,627.267 2270.64,628.247 2272.8,629.236 2274.96,630.237 2277.12,631.252 2279.28,632.285 2281.44,633.339 2283.6,634.416 2285.77,635.519 2287.93,636.652 2290.09,637.704 2292.25,638.56 2294.41,639.392 2296.57,640.2 2298.73,640.987 2300.89,641.754 2303.05,642.503 2305.21,643.236 2307.38,643.955 2309.54,644.66 2311.7,645.355 2313.86,646.04 2316.02,646.718 2318.18,647.389 2320.34,648.057 2322.5,648.722 2324.66,649.387 2326.82,650.052 2328.99,650.72 2331.15,651.393 2333.31,652.072 2335.47,652.759 2337.63,653.455 2339.79,654.163 2341.95,654.884 2344.11,655.62 2346.27,656.372 2348.43,657.143 2350.59,657.933 2352.76,658.746 "/>
<polyline clip-path="url(#clip522)" style="stroke:#e26f46; stroke-linecap:round; stroke-linejoin:round; stroke-width:4; stroke-opacity:1; fill:none" points="193.936,88.3732 196.097,88.3732 198.258,88.3732 200.419,88.3732 202.58,88.3732 204.741,88.3732 206.902,88.3732 209.063,88.3732 211.224,88.3732 213.385,88.3732 215.546,88.3732 217.707,88.3732 219.868,88.3732 222.029,88.3732 224.19,88.3732 226.351,88.3732 228.512,88.3732 230.673,88.3732 232.834,88.3732 234.995,88.3732 237.156,88.3732 239.317,88.3732 241.478,88.3732 243.639,88.3732 245.8,88.3732 247.961,88.3732 250.122,88.3732 252.282,88.3732 254.443,88.3732 256.604,88.3732 258.765,88.3732 260.926,88.3732 263.087,88.3732 265.248,88.3732 267.409,88.3732 269.57,88.3732 271.731,88.3732 273.892,88.3732 276.053,88.3732 278.214,88.3732 280.375,88.3732 282.536,88.3732 284.697,88.3732 286.858,88.3732 289.019,88.3732 291.18,88.3732 293.341,88.3732 295.502,88.3732 297.663,88.3732 299.824,88.3732 301.985,88.3732 304.146,88.3732 306.307,88.3732 308.468,88.3732 310.629,88.3732 312.79,88.3732 314.951,88.3732 317.112,88.3732 319.273,88.3732 321.434,88.3732 323.595,88.3732 325.756,88.3732 327.917,88.3732 330.078,88.3732 332.239,88.3732 334.4,88.3732 336.561,88.3732 338.722,88.3732 340.883,88.3732 343.044,88.3732 345.205,88.3732 347.366,88.3732 349.527,88.3732 351.688,88.3732 353.849,88.3732 356.01,88.3732 358.171,88.3732 360.332,88.3732 362.493,88.3732 364.653,88.3732 366.814,88.3732 368.975,88.3732 371.136,88.3732 373.297,88.3732 375.458,88.3732 377.619,88.3732 379.78,88.3732 381.941,88.3732 384.102,88.3732 386.263,88.3732 388.424,88.3732 390.585,88.3732 392.746,88.3732 394.907,88.3732 397.068,88.3732 399.229,88.3732 401.39,88.3732 403.551,88.3732 405.712,88.3732 407.873,88.3732 410.034,455.583 412.195,455.583 414.356,455.583 416.517,455.583 418.678,455.583 420.839,455.583 423,455.583 425.161,455.583 427.322,455.583 429.483,455.583 431.644,455.583 433.805,455.583 435.966,455.583 438.127,455.583 440.288,455.583 442.449,455.583 444.61,455.583 446.771,455.583 448.932,455.583 451.093,455.583 453.254,455.583 455.415,455.583 457.576,455.583 459.737,455.583 461.898,455.583 464.059,455.583 466.22,455.583 468.381,455.583 470.542,455.583 472.703,455.583 474.864,455.583 477.024,455.583 479.185,455.583 481.346,455.583 483.507,455.583 485.668,455.583 487.829,455.583 489.99,455.583 492.151,455.583 494.312,455.583 496.473,455.583 498.634,455.583 500.795,455.583 502.956,455.583 505.117,455.583 507.278,455.583 509.439,455.583 511.6,455.583 513.761,455.583 515.922,455.583 518.083,455.583 520.244,455.583 522.405,455.583 524.566,455.583 526.727,455.583 528.888,455.583 531.049,455.583 533.21,455.583 535.371,455.583 537.532,455.583 539.693,455.583 541.854,455.583 544.015,455.583 546.176,455.583 548.337,455.583 550.498,455.583 552.659,455.583 554.82,455.583 556.981,455.583 559.142,455.583 561.303,455.583 563.464,455.583 565.625,455.583 567.786,455.583 569.947,455.583 572.108,455.583 574.269,455.583 576.43,455.583 578.591,455.583 580.752,455.583 582.913,455.583 585.074,455.583 587.235,455.583 589.396,455.583 591.556,455.583 593.717,455.583 595.878,455.583 598.039,455.583 600.2,455.583 602.361,455.583 604.522,455.583 606.683,455.583 608.844,455.583 611.005,455.583 613.166,455.583 615.327,455.583 617.488,455.583 619.649,455.583 621.81,455.583 623.971,455.583 626.132,270.075 628.293,270.075 630.454,270.075 632.615,270.075 634.776,270.075 636.937,270.075 639.098,270.075 641.259,270.075 643.42,270.075 645.581,270.075 647.742,270.075 649.903,270.075 652.064,270.075 654.225,270.075 656.386,270.075 658.547,270.075 660.708,270.075 662.869,270.075 665.03,270.075 667.191,270.075 669.352,270.075 671.513,270.075 673.674,270.075 675.835,270.075 677.996,270.075 680.157,270.075 682.318,270.075 684.479,270.075 686.64,270.075 688.801,270.075 690.962,270.075 693.123,270.075 695.284,270.075 697.445,270.075 699.606,270.075 701.767,270.075 703.927,270.075 706.088,270.075 708.249,270.075 710.41,270.075 712.571,270.075 714.732,270.075 716.893,270.075 719.054,270.075 721.215,270.075 723.376,270.075 725.537,270.075 727.698,270.075 729.859,270.075 732.02,270.075 734.181,270.075 736.342,270.075 738.503,270.075 740.664,270.075 742.825,270.075 744.986,270.075 747.147,270.075 749.308,270.075 751.469,270.075 753.63,270.075 755.791,270.075 757.952,270.075 760.113,270.075 762.274,270.075 764.435,270.075 766.596,270.075 768.757,270.075 770.918,270.075 773.079,270.075 775.24,270.075 777.401,270.075 779.562,270.075 781.723,270.075 783.884,270.075 786.045,270.075 788.206,270.075 790.367,270.075 792.528,270.075 794.689,270.075 796.85,270.075 799.011,270.075 801.172,270.075 803.333,270.075 805.494,270.075 807.655,270.075 809.816,270.075 811.977,270.075 814.138,270.075 816.298,270.075 818.459,270.075 820.62,270.075 822.781,270.075 824.942,270.075 827.103,270.075 829.264,270.075 831.425,270.075 833.586,270.075 835.747,270.075 837.908,270.075 840.069,270.075 842.23,1074.35 844.391,1074.35 846.552,1074.35 848.713,1074.35 850.874,1074.35 853.035,1074.35 855.196,1074.35 857.357,1074.35 859.518,1074.35 861.679,1074.35 863.84,1074.35 866.001,1074.35 868.162,1074.35 870.323,1074.35 872.484,1074.35 874.645,1074.35 876.806,1074.35 878.967,1074.35 881.128,1074.35 883.289,1074.35 885.45,1074.35 887.611,1074.35 889.772,1074.35 891.933,1074.35 894.094,1074.35 896.255,1074.35 898.416,1074.35 900.577,1074.35 902.738,1074.35 904.899,1074.35 907.06,1074.35 909.221,1074.35 911.382,1074.35 913.543,1074.35 915.704,1074.35 917.865,1074.35 920.026,1074.35 922.187,1074.35 924.348,1074.35 926.509,1074.35 928.669,1074.35 930.83,1074.35 932.991,1074.35 935.152,1074.35 937.313,1074.35 939.474,1074.35 941.635,1074.35 943.796,1074.35 945.957,1074.35 948.118,1074.35 950.279,1074.35 952.44,1074.35 954.601,1074.35 956.762,1074.35 958.923,1074.35 961.084,1074.35 963.245,1074.35 965.406,1074.35 967.567,1074.35 969.728,1074.35 971.889,1074.35 974.05,1074.35 976.211,1074.35 978.372,1074.35 980.533,1074.35 982.694,1074.35 984.855,1074.35 987.016,1074.35 989.177,1074.35 991.338,1074.35 993.499,1074.35 995.66,1074.35 997.821,1074.35 999.982,1074.35 1002.14,1074.35 1004.3,1074.35 1006.46,1074.35 1008.63,1074.35 1010.79,1074.35 1012.95,1074.35 1015.11,1074.35 1017.27,1074.35 1019.43,1074.35 1021.59,1074.35 1023.75,1074.35 1025.91,1074.35 1028.07,1074.35 1030.24,1074.35 1032.4,1074.35 1034.56,1074.35 1036.72,1074.35 1038.88,1074.35 1041.04,1074.35 1043.2,1074.35 1045.36,1074.35 1047.52,1074.35 1049.68,1074.35 1051.85,1074.35 1054.01,1074.35 1056.17,1074.35 1058.33,1326.31 1060.49,1326.31 1062.65,1326.31 1064.81,1326.31 1066.97,1326.31 1069.13,1326.31 1071.29,1326.31 1073.46,1326.31 1075.62,1326.31 1077.78,1326.31 1079.94,1326.31 1082.1,1326.31 1084.26,1326.31 1086.42,1326.31 1088.58,1326.31 1090.74,1326.31 1092.9,1326.31 1095.07,1326.31 1097.23,1326.31 1099.39,1326.31 1101.55,1326.31 1103.71,1326.31 1105.87,1326.31 1108.03,1326.31 1110.19,1326.31 1112.35,1326.31 1114.51,1326.31 1116.67,1326.31 1118.84,1326.31 1121,1326.31 1123.16,1326.31 1125.32,1326.31 1127.48,1326.31 1129.64,1326.31 1131.8,1326.31 1133.96,1326.31 1136.12,1326.31 1138.28,1326.31 1140.45,1326.31 1142.61,1326.31 1144.77,1326.31 1146.93,1326.31 1149.09,1326.31 1151.25,1326.31 1153.41,1326.31 1155.57,1326.31 1157.73,1326.31 1159.89,1326.31 1162.06,1326.31 1164.22,1326.31 1166.38,1326.31 1168.54,1326.31 1170.7,1326.31 1172.86,1326.31 1175.02,1326.31 1177.18,1326.31 1179.34,1326.31 1181.5,1326.31 1183.67,1326.31 1185.83,1326.31 1187.99,1326.31 1190.15,1326.31 1192.31,1326.31 1194.47,1326.31 1196.63,1326.31 1198.79,1326.31 1200.95,1326.31 1203.11,1326.31 1205.28,1326.31 1207.44,1326.31 1209.6,1326.31 1211.76,1326.31 1213.92,1326.31 1216.08,1326.31 1218.24,1326.31 1220.4,1326.31 1222.56,1326.31 1224.72,1326.31 1226.88,1326.31 1229.05,1326.31 1231.21,1326.31 1233.37,1326.31 1235.53,1326.31 1237.69,1326.31 1239.85,1326.31 1242.01,1326.31 1244.17,1326.31 1246.33,1326.31 1248.49,1326.31 1250.66,1326.31 1252.82,1326.31 1254.98,1326.31 1257.14,1326.31 1259.3,1326.31 1261.46,1326.31 1263.62,1326.31 1265.78,1326.31 1267.94,1326.31 1270.1,1326.31 1272.27,1326.31 1274.43,1024.36 1276.59,1024.36 1278.75,1024.36 1280.91,1024.36 1283.07,1024.36 1285.23,1024.36 1287.39,1024.36 1289.55,1024.36 1291.71,1024.36 1293.88,1024.36 1296.04,1024.36 1298.2,1024.36 1300.36,1024.36 1302.52,1024.36 1304.68,1024.36 1306.84,1024.36 1309,1024.36 1311.16,1024.36 1313.32,1024.36 1315.49,1024.36 1317.65,1024.36 1319.81,1024.36 1321.97,1024.36 1324.13,1024.36 1326.29,1024.36 1328.45,1024.36 1330.61,1024.36 1332.77,1024.36 1334.93,1024.36 1337.09,1024.36 1339.26,1024.36 1341.42,1024.36 1343.58,1024.36 1345.74,1024.36 1347.9,1024.36 1350.06,1024.36 1352.22,1024.36 1354.38,1024.36 1356.54,1024.36 1358.7,1024.36 1360.87,1024.36 1363.03,1024.36 1365.19,1024.36 1367.35,1024.36 1369.51,1024.36 1371.67,1024.36 1373.83,1024.36 1375.99,1024.36 1378.15,1024.36 1380.31,1024.36 1382.48,1024.36 1384.64,1024.36 1386.8,1024.36 1388.96,1024.36 1391.12,1024.36 1393.28,1024.36 1395.44,1024.36 1397.6,1024.36 1399.76,1024.36 1401.92,1024.36 1404.09,1024.36 1406.25,1024.36 1408.41,1024.36 1410.57,1024.36 1412.73,1024.36 1414.89,1024.36 1417.05,1024.36 1419.21,1024.36 1421.37,1024.36 1423.53,1024.36 1425.7,1024.36 1427.86,1024.36 1430.02,1024.36 1432.18,1024.36 1434.34,1024.36 1436.5,1024.36 1438.66,1024.36 1440.82,1024.36 1442.98,1024.36 1445.14,1024.36 1447.3,1024.36 1449.47,1024.36 1451.63,1024.36 1453.79,1024.36 1455.95,1024.36 1458.11,1024.36 1460.27,1024.36 1462.43,1024.36 1464.59,1024.36 1466.75,1024.36 1468.91,1024.36 1471.08,1024.36 1473.24,1024.36 1475.4,1024.36 1477.56,1024.36 1479.72,1024.36 1481.88,1024.36 1484.04,1024.36 1486.2,1024.36 1488.36,1024.36 1490.52,1384.24 1492.69,1384.24 1494.85,1384.24 1497.01,1384.24 1499.17,1384.24 1501.33,1384.24 1503.49,1384.24 1505.65,1384.24 1507.81,1384.24 1509.97,1384.24 1512.13,1384.24 1514.3,1384.24 1516.46,1384.24 1518.62,1384.24 1520.78,1384.24 1522.94,1384.24 1525.1,1384.24 1527.26,1384.24 1529.42,1384.24 1531.58,1384.24 1533.74,1384.24 1535.91,1384.24 1538.07,1384.24 1540.23,1384.24 1542.39,1384.24 1544.55,1384.24 1546.71,1384.24 1548.87,1384.24 1551.03,1384.24 1553.19,1384.24 1555.35,1384.24 1557.51,1384.24 1559.68,1384.24 1561.84,1384.24 1564,1384.24 1566.16,1384.24 1568.32,1384.24 1570.48,1384.24 1572.64,1384.24 1574.8,1384.24 1576.96,1384.24 1579.12,1384.24 1581.29,1384.24 1583.45,1384.24 1585.61,1384.24 1587.77,1384.24 1589.93,1384.24 1592.09,1384.24 1594.25,1384.24 1596.41,1384.24 1598.57,1384.24 1600.73,1384.24 1602.9,1384.24 1605.06,1384.24 1607.22,1384.24 1609.38,1384.24 1611.54,1384.24 1613.7,1384.24 1615.86,1384.24 1618.02,1384.24 1620.18,1384.24 1622.34,1384.24 1624.51,1384.24 1626.67,1384.24 1628.83,1384.24 1630.99,1384.24 1633.15,1384.24 1635.31,1384.24 1637.47,1384.24 1639.63,1384.24 1641.79,1384.24 1643.95,1384.24 1646.12,1384.24 1648.28,1384.24 1650.44,1384.24 1652.6,1384.24 1654.76,1384.24 1656.92,1384.24 1659.08,1384.24 1661.24,1384.24 1663.4,1384.24 1665.56,1384.24 1667.72,1384.24 1669.89,1384.24 1672.05,1384.24 1674.21,1384.24 1676.37,1384.24 1678.53,1384.24 1680.69,1384.24 1682.85,1384.24 1685.01,1384.24 1687.17,1384.24 1689.33,1384.24 1691.5,1384.24 1693.66,1384.24 1695.82,1384.24 1697.98,1384.24 1700.14,1384.24 1702.3,1384.24 1704.46,1384.24 1706.62,86.1857 1708.78,86.1857 1710.94,86.1857 1713.11,86.1857 1715.27,86.1857 1717.43,86.1857 1719.59,86.1857 1721.75,86.1857 1723.91,86.1857 1726.07,86.1857 1728.23,86.1857 1730.39,86.1857 1732.55,86.1857 1734.72,86.1857 1736.88,86.1857 1739.04,86.1857 1741.2,86.1857 1743.36,86.1857 1745.52,86.1857 1747.68,86.1857 1749.84,86.1857 1752,86.1857 1754.16,86.1857 1756.33,86.1857 1758.49,86.1857 1760.65,86.1857 1762.81,86.1857 1764.97,86.1857 1767.13,86.1857 1769.29,86.1857 1771.45,86.1857 1773.61,86.1857 1775.77,86.1857 1777.93,86.1857 1780.1,86.1857 1782.26,86.1857 1784.42,86.1857 1786.58,86.1857 1788.74,86.1857 1790.9,86.1857 1793.06,86.1857 1795.22,86.1857 1797.38,86.1857 1799.54,86.1857 1801.71,86.1857 1803.87,86.1857 1806.03,86.1857 1808.19,86.1857 1810.35,86.1857 1812.51,86.1857 1814.67,86.1857 1816.83,86.1857 1818.99,86.1857 1821.15,86.1857 1823.32,86.1857 1825.48,86.1857 1827.64,86.1857 1829.8,86.1857 1831.96,86.1857 1834.12,86.1857 1836.28,86.1857 1838.44,86.1857 1840.6,86.1857 1842.76,86.1857 1844.93,86.1857 1847.09,86.1857 1849.25,86.1857 1851.41,86.1857 1853.57,86.1857 1855.73,86.1857 1857.89,86.1857 1860.05,86.1857 1862.21,86.1857 1864.37,86.1857 1866.54,86.1857 1868.7,86.1857 1870.86,86.1857 1873.02,86.1857 1875.18,86.1857 1877.34,86.1857 1879.5,86.1857 1881.66,86.1857 1883.82,86.1857 1885.98,86.1857 1888.15,86.1857 1890.31,86.1857 1892.47,86.1857 1894.63,86.1857 1896.79,86.1857 1898.95,86.1857 1901.11,86.1857 1903.27,86.1857 1905.43,86.1857 1907.59,86.1857 1909.75,86.1857 1911.92,86.1857 1914.08,86.1857 1916.24,86.1857 1918.4,86.1857 1920.56,86.1857 1922.72,574.275 1924.88,574.275 1927.04,574.275 1929.2,574.275 1931.36,574.275 1933.53,574.275 1935.69,574.275 1937.85,574.275 1940.01,574.275 1942.17,574.275 1944.33,574.275 1946.49,574.275 1948.65,574.275 1950.81,574.275 1952.97,574.275 1955.14,574.275 1957.3,574.275 1959.46,574.275 1961.62,574.275 1963.78,574.275 1965.94,574.275 1968.1,574.275 1970.26,574.275 1972.42,574.275 1974.58,574.275 1976.75,574.275 1978.91,574.275 1981.07,574.275 1983.23,574.275 1985.39,574.275 1987.55,574.275 1989.71,574.275 1991.87,574.275 1994.03,574.275 1996.19,574.275 1998.36,574.275 2000.52,574.275 2002.68,574.275 2004.84,574.275 2007,574.275 2009.16,574.275 2011.32,574.275 2013.48,574.275 2015.64,574.275 2017.8,574.275 2019.96,574.275 2022.13,574.275 2024.29,574.275 2026.45,574.275 2028.61,574.275 2030.77,574.275 2032.93,574.275 2035.09,574.275 2037.25,574.275 2039.41,574.275 2041.57,574.275 2043.74,574.275 2045.9,574.275 2048.06,574.275 2050.22,574.275 2052.38,574.275 2054.54,574.275 2056.7,574.275 2058.86,574.275 2061.02,574.275 2063.18,574.275 2065.35,574.275 2067.51,574.275 2069.67,574.275 2071.83,574.275 2073.99,574.275 2076.15,574.275 2078.31,574.275 2080.47,574.275 2082.63,574.275 2084.79,574.275 2086.96,574.275 2089.12,574.275 2091.28,574.275 2093.44,574.275 2095.6,574.275 2097.76,574.275 2099.92,574.275 2102.08,574.275 2104.24,574.275 2106.4,574.275 2108.57,574.275 2110.73,574.275 2112.89,574.275 2115.05,574.275 2117.21,574.275 2119.37,574.275 2121.53,574.275 2123.69,574.275 2125.85,574.275 2128.01,574.275 2130.17,574.275 2132.34,574.275 2134.5,574.275 2136.66,574.275 2138.82,703.263 2140.98,703.263 2143.14,703.263 2145.3,703.263 2147.46,703.263 2149.62,703.263 2151.78,703.263 2153.95,703.263 2156.11,703.263 2158.27,703.263 2160.43,703.263 2162.59,703.263 2164.75,703.263 2166.91,703.263 2169.07,703.263 2171.23,703.263 2173.39,703.263 2175.56,703.263 2177.72,703.263 2179.88,703.263 2182.04,703.263 2184.2,703.263 2186.36,703.263 2188.52,703.263 2190.68,703.263 2192.84,703.263 2195,703.263 2197.17,703.263 2199.33,703.263 2201.49,703.263 2203.65,703.263 2205.81,703.263 2207.97,703.263 2210.13,703.263 2212.29,703.263 2214.45,703.263 2216.61,703.263 2218.78,703.263 2220.94,703.263 2223.1,703.263 2225.26,703.263 2227.42,703.263 2229.58,703.263 2231.74,703.263 2233.9,703.263 2236.06,703.263 2238.22,703.263 2240.38,703.263 2242.55,703.263 2244.71,703.263 2246.87,703.263 2249.03,703.263 2251.19,703.263 2253.35,703.263 2255.51,703.263 2257.67,703.263 2259.83,703.263 2261.99,703.263 2264.16,703.263 2266.32,703.263 2268.48,703.263 2270.64,703.263 2272.8,703.263 2274.96,703.263 2277.12,703.263 2279.28,703.263 2281.44,703.263 2283.6,703.263 2285.77,703.263 2287.93,703.263 2290.09,703.263 2292.25,703.263 2294.41,703.263 2296.57,703.263 2298.73,703.263 2300.89,703.263 2303.05,703.263 2305.21,703.263 2307.38,703.263 2309.54,703.263 2311.7,703.263 2313.86,703.263 2316.02,703.263 2318.18,703.263 2320.34,703.263 2322.5,703.263 2324.66,703.263 2326.82,703.263 2328.99,703.263 2331.15,703.263 2333.31,703.263 2335.47,703.263 2337.63,703.263 2339.79,703.263 2341.95,703.263 2344.11,703.263 2346.27,703.263 2348.43,703.263 2350.59,703.263 2352.76,703.263 "/>
<path clip-path="url(#clip520)" d="M2039.77 1377.32 L2280.8 1377.32 L2280.8 1221.8 L2039.77 1221.8  Z" fill="#ffffff" fill-rule="evenodd" fill-opacity="1"/>
<polyline clip-path="url(#clip520)" style="stroke:#000000; stroke-linecap:round; stroke-linejoin:round; stroke-width:4; stroke-opacity:1; fill:none" points="2039.77,1377.32 2280.8,1377.32 2280.8,1221.8 2039.77,1221.8 2039.77,1377.32 "/>
<polyline clip-path="url(#clip520)" style="stroke:#009af9; stroke-linecap:round; stroke-linejoin:round; stroke-width:4; stroke-opacity:1; fill:none" points="2063.76,1273.64 2207.68,1273.64 "/>
<path clip-path="url(#clip520)" d="M2256.32 1264.99 L2246.95 1277.61 L2256.81 1290.92 L2251.79 1290.92 L2244.24 1280.73 L2236.69 1290.92 L2231.67 1290.92 L2241.74 1277.35 L2232.53 1264.99 L2237.55 1264.99 L2244.42 1274.23 L2251.3 1264.99 L2256.32 1264.99 Z" fill="#000000" fill-rule="nonzero" fill-opacity="1" /><polyline clip-path="url(#clip520)" style="stroke:#e26f46; stroke-linecap:round; stroke-linejoin:round; stroke-width:4; stroke-opacity:1; fill:none" points="2063.76,1325.48 2207.68,1325.48 "/>
<path clip-path="url(#clip520)" d="M2248.17 1306.74 L2248.17 1310.28 L2244.1 1310.28 Q2241.81 1310.28 2240.91 1311.2 Q2240.03 1312.13 2240.03 1314.54 L2240.03 1316.83 L2247.04 1316.83 L2247.04 1320.14 L2240.03 1320.14 L2240.03 1342.76 L2235.74 1342.76 L2235.74 1320.14 L2231.67 1320.14 L2231.67 1316.83 L2235.74 1316.83 L2235.74 1315.02 Q2235.74 1310.7 2237.76 1308.73 Q2239.77 1306.74 2244.15 1306.74 L2248.17 1306.74 Z" fill="#000000" fill-rule="nonzero" fill-opacity="1" /></svg>
