<?xml version="1.0" encoding="utf-8"?>
<svg xmlns="http://www.w3.org/2000/svg" xmlns:xlink="http://www.w3.org/1999/xlink" width="600" height="400" viewBox="0 0 2400 1600">
<defs>
  <clipPath id="clip370">
    <rect x="0" y="0" width="2400" height="1600"/>
  </clipPath>
</defs>
<path clip-path="url(#clip370)" d="M0 1600 L2400 1600 L2400 0 L0 0  Z" fill="#ffffff" fill-rule="evenodd" fill-opacity="1"/>
<defs>
  <clipPath id="clip371">
    <rect x="147" y="47" width="2206" height="1377"/>
  </clipPath>
</defs>
<path clip-path="url(#clip370)" d="M147.478 1423.18 L2352.76 1423.18 L2352.76 47.2441 L147.478 47.2441  Z" fill="#ffffff" fill-rule="evenodd" fill-opacity="1"/>
<polyline clip-path="url(#clip371)" style="stroke:#000000; stroke-linecap:round; stroke-linejoin:round; stroke-width:2; stroke-opacity:0.1; fill:none" points="147.478,1423.18 147.478,47.2441 "/>
<polyline clip-path="url(#clip371)" style="stroke:#000000; stroke-linecap:round; stroke-linejoin:round; stroke-width:2; stroke-opacity:0.1; fill:none" points="588.534,1423.18 588.534,47.2441 "/>
<polyline clip-path="url(#clip371)" style="stroke:#000000; stroke-linecap:round; stroke-linejoin:round; stroke-width:2; stroke-opacity:0.1; fill:none" points="1029.59,1423.18 1029.59,47.2441 "/>
<polyline clip-path="url(#clip371)" style="stroke:#000000; stroke-linecap:round; stroke-linejoin:round; stroke-width:2; stroke-opacity:0.1; fill:none" points="1470.64,1423.18 1470.64,47.2441 "/>
<polyline clip-path="url(#clip371)" style="stroke:#000000; stroke-linecap:round; stroke-linejoin:round; stroke-width:2; stroke-opacity:0.1; fill:none" points="1911.7,1423.18 1911.7,47.2441 "/>
<polyline clip-path="url(#clip371)" style="stroke:#000000; stroke-linecap:round; stroke-linejoin:round; stroke-width:2; stroke-opacity:0.1; fill:none" points="2352.76,1423.18 2352.76,47.2441 "/>
<polyline clip-path="url(#clip371)" style="stroke:#000000; stroke-linecap:round; stroke-linejoin:round; stroke-width:2; stroke-opacity:0.1; fill:none" points="147.478,1222.55 2352.76,1222.55 "/>
<polyline clip-path="url(#clip371)" style="stroke:#000000; stroke-linecap:round; stroke-linejoin:round; stroke-width:2; stroke-opacity:0.1; fill:none" points="147.478,858.634 2352.76,858.634 "/>
<polyline clip-path="url(#clip371)" style="stroke:#000000; stroke-linecap:round; stroke-linejoin:round; stroke-width:2; stroke-opacity:0.1; fill:none" points="147.478,494.717 2352.76,494.717 "/>
<polyline clip-path="url(#clip371)" style="stroke:#000000; stroke-linecap:round; stroke-linejoin:round; stroke-width:2; stroke-opacity:0.1; fill:none" points="147.478,130.8 2352.76,130.8 "/>
<polyline clip-path="url(#clip370)" style="stroke:#000000; stroke-linecap:round; stroke-linejoin:round; stroke-width:4; stroke-opacity:1; fill:none" points="147.478,1423.18 2352.76,1423.18 "/>
<polyline clip-path="url(#clip370)" style="stroke:#000000; stroke-linecap:round; stroke-linejoin:round; stroke-width:4; stroke-opacity:1; fill:none" points="147.478,1423.18 147.478,1404.28 "/>
<polyline clip-path="url(#clip370)" style="stroke:#000000; stroke-linecap:round; stroke-linejoin:round; stroke-width:4; stroke-opacity:1; fill:none" points="588.534,1423.18 588.534,1404.28 "/>
<polyline clip-path="url(#clip370)" style="stroke:#000000; stroke-linecap:round; stroke-linejoin:round; stroke-width:4; stroke-opacity:1; fill:none" points="1029.59,1423.18 1029.59,1404.28 "/>
<polyline clip-path="url(#clip370)" style="stroke:#000000; stroke-linecap:round; stroke-linejoin:round; stroke-width:4; stroke-opacity:1; fill:none" points="1470.64,1423.18 1470.64,1404.28 "/>
<polyline clip-path="url(#clip370)" style="stroke:#000000; stroke-linecap:round; stroke-linejoin:round; stroke-width:4; stroke-opacity:1; fill:none" points="1911.7,1423.18 1911.7,1404.28 "/>
<polyline clip-path="url(#clip370)" style="stroke:#000000; stroke-linecap:round; stroke-linejoin:round; stroke-width:4; stroke-opacity:1; fill:none" points="2352.76,1423.18 2352.76,1404.28 "/>
<path clip-path="url(#clip370)" d="M147.478 1454.1 Q143.867 1454.1 142.038 1457.66 Q140.233 1461.2 140.233 1468.33 Q140.233 1475.44 142.038 1479.01 Q143.867 1482.55 147.478 1482.55 Q151.112 1482.55 152.918 1479.01 Q154.746 1475.44 154.746 1468.33 Q154.746 1461.2 152.918 1457.66 Q151.112 1454.1 147.478 1454.1 M147.478 1450.39 Q153.288 1450.39 156.344 1455 Q159.422 1459.58 159.422 1468.33 Q159.422 1477.06 156.344 1481.67 Q153.288 1486.25 147.478 1486.25 Q141.668 1486.25 138.589 1481.67 Q135.534 1477.06 135.534 1468.33 Q135.534 1459.58 138.589 1455 Q141.668 1450.39 147.478 1450.39 Z" fill="#000000" fill-rule="nonzero" fill-opacity="1" /><path clip-path="url(#clip370)" d="M583.186 1481.64 L599.506 1481.64 L599.506 1485.58 L577.561 1485.58 L577.561 1481.64 Q580.223 1478.89 584.807 1474.26 Q589.413 1469.61 590.594 1468.27 Q592.839 1465.74 593.719 1464.01 Q594.621 1462.25 594.621 1460.56 Q594.621 1457.8 592.677 1456.07 Q590.756 1454.33 587.654 1454.33 Q585.455 1454.33 583.001 1455.09 Q580.571 1455.86 577.793 1457.41 L577.793 1452.69 Q580.617 1451.55 583.071 1450.97 Q585.524 1450.39 587.561 1450.39 Q592.932 1450.39 596.126 1453.08 Q599.32 1455.77 599.32 1460.26 Q599.32 1462.39 598.51 1464.31 Q597.723 1466.2 595.617 1468.8 Q595.038 1469.47 591.936 1472.69 Q588.834 1475.88 583.186 1481.64 Z" fill="#000000" fill-rule="nonzero" fill-opacity="1" /><path clip-path="url(#clip370)" d="M1032.6 1455.09 L1020.79 1473.54 L1032.6 1473.54 L1032.6 1455.09 M1031.37 1451.02 L1037.25 1451.02 L1037.25 1473.54 L1042.18 1473.54 L1042.18 1477.43 L1037.25 1477.43 L1037.25 1485.58 L1032.6 1485.58 L1032.6 1477.43 L1017 1477.43 L1017 1472.92 L1031.37 1451.02 Z" fill="#000000" fill-rule="nonzero" fill-opacity="1" /><path clip-path="url(#clip370)" d="M1471.05 1466.44 Q1467.9 1466.44 1466.05 1468.59 Q1464.22 1470.74 1464.22 1474.49 Q1464.22 1478.22 1466.05 1480.39 Q1467.9 1482.55 1471.05 1482.55 Q1474.2 1482.55 1476.03 1480.39 Q1477.88 1478.22 1477.88 1474.49 Q1477.88 1470.74 1476.03 1468.59 Q1474.2 1466.44 1471.05 1466.44 M1480.33 1451.78 L1480.33 1456.04 Q1478.57 1455.21 1476.77 1454.77 Q1474.98 1454.33 1473.23 1454.33 Q1468.6 1454.33 1466.14 1457.45 Q1463.71 1460.58 1463.36 1466.9 Q1464.73 1464.89 1466.79 1463.82 Q1468.85 1462.73 1471.33 1462.73 Q1476.54 1462.73 1479.55 1465.9 Q1482.58 1469.05 1482.58 1474.49 Q1482.58 1479.82 1479.43 1483.03 Q1476.28 1486.25 1471.05 1486.25 Q1465.05 1486.25 1461.88 1481.67 Q1458.71 1477.06 1458.71 1468.33 Q1458.71 1460.14 1462.6 1455.28 Q1466.49 1450.39 1473.04 1450.39 Q1474.8 1450.39 1476.58 1450.74 Q1478.39 1451.09 1480.33 1451.78 Z" fill="#000000" fill-rule="nonzero" fill-opacity="1" /><path clip-path="url(#clip370)" d="M1911.7 1469.17 Q1908.37 1469.17 1906.45 1470.95 Q1904.55 1472.73 1904.55 1475.86 Q1904.55 1478.98 1906.45 1480.77 Q1908.37 1482.55 1911.7 1482.55 Q1915.03 1482.55 1916.95 1480.77 Q1918.88 1478.96 1918.88 1475.86 Q1918.88 1472.73 1916.95 1470.95 Q1915.06 1469.17 1911.7 1469.17 M1907.02 1467.18 Q1904.02 1466.44 1902.33 1464.38 Q1900.66 1462.32 1900.66 1459.35 Q1900.66 1455.21 1903.6 1452.8 Q1906.56 1450.39 1911.7 1450.39 Q1916.86 1450.39 1919.8 1452.8 Q1922.74 1455.21 1922.74 1459.35 Q1922.74 1462.32 1921.05 1464.38 Q1919.39 1466.44 1916.4 1467.18 Q1919.78 1467.96 1921.65 1470.26 Q1923.55 1472.55 1923.55 1475.86 Q1923.55 1480.88 1920.47 1483.57 Q1917.42 1486.25 1911.7 1486.25 Q1905.98 1486.25 1902.9 1483.57 Q1899.85 1480.88 1899.85 1475.86 Q1899.85 1472.55 1901.75 1470.26 Q1903.64 1467.96 1907.02 1467.18 M1905.31 1459.79 Q1905.31 1462.48 1906.98 1463.98 Q1908.67 1465.49 1911.7 1465.49 Q1914.71 1465.49 1916.4 1463.98 Q1918.11 1462.48 1918.11 1459.79 Q1918.11 1457.11 1916.4 1455.6 Q1914.71 1454.1 1911.7 1454.1 Q1908.67 1454.1 1906.98 1455.6 Q1905.31 1457.11 1905.31 1459.79 Z" fill="#000000" fill-rule="nonzero" fill-opacity="1" /><path clip-path="url(#clip370)" d="M2327.44 1481.64 L2335.08 1481.64 L2335.08 1455.28 L2326.77 1456.95 L2326.77 1452.69 L2335.04 1451.02 L2339.71 1451.02 L2339.71 1481.64 L2347.35 1481.64 L2347.35 1485.58 L2327.44 1485.58 L2327.44 1481.64 Z" fill="#000000" fill-rule="nonzero" fill-opacity="1" /><path clip-path="url(#clip370)" d="M2366.8 1454.1 Q2363.18 1454.1 2361.36 1457.66 Q2359.55 1461.2 2359.55 1468.33 Q2359.55 1475.44 2361.36 1479.01 Q2363.18 1482.55 2366.8 1482.55 Q2370.43 1482.55 2372.23 1479.01 Q2374.06 1475.44 2374.06 1468.33 Q2374.06 1461.2 2372.23 1457.66 Q2370.43 1454.1 2366.8 1454.1 M2366.8 1450.39 Q2372.61 1450.39 2375.66 1455 Q2378.74 1459.58 2378.74 1468.33 Q2378.74 1477.06 2375.66 1481.67 Q2372.61 1486.25 2366.8 1486.25 Q2360.99 1486.25 2357.91 1481.67 Q2354.85 1477.06 2354.85 1468.33 Q2354.85 1459.58 2357.91 1455 Q2360.99 1450.39 2366.8 1450.39 Z" fill="#000000" fill-rule="nonzero" fill-opacity="1" /><path clip-path="url(#clip370)" d="M1249.18 1522.27 L1249.18 1532.4 L1261.24 1532.4 L1261.24 1536.95 L1249.18 1536.95 L1249.18 1556.3 Q1249.18 1560.66 1250.36 1561.9 Q1251.57 1563.14 1255.23 1563.14 L1261.24 1563.14 L1261.24 1568.04 L1255.23 1568.04 Q1248.45 1568.04 1245.87 1565.53 Q1243.29 1562.98 1243.29 1556.3 L1243.29 1536.95 L1238.99 1536.95 L1238.99 1532.4 L1243.29 1532.4 L1243.29 1522.27 L1249.18 1522.27 Z" fill="#000000" fill-rule="nonzero" fill-opacity="1" /><polyline clip-path="url(#clip370)" style="stroke:#000000; stroke-linecap:round; stroke-linejoin:round; stroke-width:4; stroke-opacity:1; fill:none" points="147.478,1423.18 147.478,47.2441 "/>
<polyline clip-path="url(#clip370)" style="stroke:#000000; stroke-linecap:round; stroke-linejoin:round; stroke-width:4; stroke-opacity:1; fill:none" points="147.478,1222.55 166.376,1222.55 "/>
<polyline clip-path="url(#clip370)" style="stroke:#000000; stroke-linecap:round; stroke-linejoin:round; stroke-width:4; stroke-opacity:1; fill:none" points="147.478,858.634 166.376,858.634 "/>
<polyline clip-path="url(#clip370)" style="stroke:#000000; stroke-linecap:round; stroke-linejoin:round; stroke-width:4; stroke-opacity:1; fill:none" points="147.478,494.717 166.376,494.717 "/>
<polyline clip-path="url(#clip370)" style="stroke:#000000; stroke-linecap:round; stroke-linejoin:round; stroke-width:4; stroke-opacity:1; fill:none" points="147.478,130.8 166.376,130.8 "/>
<path clip-path="url(#clip370)" d="M50.9921 1223 L80.6679 1223 L80.6679 1226.94 L50.9921 1226.94 L50.9921 1223 Z" fill="#000000" fill-rule="nonzero" fill-opacity="1" /><path clip-path="url(#clip370)" d="M91.5706 1235.9 L99.2095 1235.9 L99.2095 1209.53 L90.8993 1211.2 L90.8993 1206.94 L99.1632 1205.27 L103.839 1205.27 L103.839 1235.9 L111.478 1235.9 L111.478 1239.83 L91.5706 1239.83 L91.5706 1235.9 Z" fill="#000000" fill-rule="nonzero" fill-opacity="1" /><path clip-path="url(#clip370)" d="M99.5335 844.433 Q95.9224 844.433 94.0937 847.998 Q92.2882 851.54 92.2882 858.669 Q92.2882 865.776 94.0937 869.34 Q95.9224 872.882 99.5335 872.882 Q103.168 872.882 104.973 869.34 Q106.802 865.776 106.802 858.669 Q106.802 851.54 104.973 847.998 Q103.168 844.433 99.5335 844.433 M99.5335 840.729 Q105.344 840.729 108.399 845.336 Q111.478 849.919 111.478 858.669 Q111.478 867.396 108.399 872.002 Q105.344 876.586 99.5335 876.586 Q93.7234 876.586 90.6447 872.002 Q87.5892 867.396 87.5892 858.669 Q87.5892 849.919 90.6447 845.336 Q93.7234 840.729 99.5335 840.729 Z" fill="#000000" fill-rule="nonzero" fill-opacity="1" /><path clip-path="url(#clip370)" d="M91.5706 508.062 L99.2095 508.062 L99.2095 481.696 L90.8993 483.363 L90.8993 479.104 L99.1632 477.437 L103.839 477.437 L103.839 508.062 L111.478 508.062 L111.478 511.997 L91.5706 511.997 L91.5706 508.062 Z" fill="#000000" fill-rule="nonzero" fill-opacity="1" /><path clip-path="url(#clip370)" d="M95.1586 144.145 L111.478 144.145 L111.478 148.08 L89.5336 148.08 L89.5336 144.145 Q92.1956 141.39 96.7789 136.76 Q101.385 132.108 102.566 130.765 Q104.811 128.242 105.691 126.506 Q106.594 124.746 106.594 123.057 Q106.594 120.302 104.649 118.566 Q102.728 116.83 99.6261 116.83 Q97.4271 116.83 94.9734 117.594 Q92.5428 118.358 89.7651 119.909 L89.7651 115.186 Q92.5891 114.052 95.0428 113.473 Q97.4965 112.895 99.5335 112.895 Q104.904 112.895 108.098 115.58 Q111.293 118.265 111.293 122.756 Q111.293 124.885 110.483 126.807 Q109.696 128.705 107.589 131.297 Q107.01 131.969 103.909 135.186 Q100.807 138.381 95.1586 144.145 Z" fill="#000000" fill-rule="nonzero" fill-opacity="1" /><polyline clip-path="url(#clip371)" style="stroke:#009af9; stroke-linecap:round; stroke-linejoin:round; stroke-width:4; stroke-opacity:1; fill:none" points="147.478,858.634 149.685,855.584 151.893,852.573 154.1,849.603 156.308,846.672 158.515,843.78 160.723,840.926 162.93,838.111 165.138,835.332 167.345,832.59 169.553,829.885 171.76,827.215 173.968,824.581 176.175,821.982 178.383,819.417 180.59,816.887 182.798,814.389 185.005,811.925 187.213,809.494 189.42,807.095 191.628,804.727 193.835,802.391 196.043,800.086 198.25,797.812 200.458,795.568 202.665,793.353 204.873,791.168 207.08,789.012 209.288,786.884 211.495,784.785 213.702,782.713 215.91,780.669 218.117,778.652 220.325,776.662 222.532,774.698 224.74,772.76 226.947,770.848 229.155,768.961 231.362,767.099 233.57,765.262 235.777,763.449 237.985,761.661 240.192,759.896 242.4,758.154 244.607,756.436 246.815,754.74 249.022,753.067 251.23,751.415 253.437,749.786 255.645,748.179 257.852,746.593 260.06,745.027 262.267,743.483 264.475,741.959 266.682,740.455 268.89,738.971 271.097,737.507 273.305,736.062 275.512,734.637 277.72,733.23 279.927,731.842 282.135,730.472 284.342,729.121 286.549,727.787 288.757,726.471 290.964,725.173 293.172,723.891 295.379,722.627 297.587,721.38 299.794,720.149 302.002,718.934 304.209,717.736 306.417,716.553 308.624,715.386 310.832,714.234 313.039,713.098 315.247,711.977 317.454,710.871 319.662,709.779 321.869,708.702 324.077,707.639 326.284,706.59 328.492,705.556 330.699,704.534 332.907,703.527 335.114,702.533 337.322,701.552 339.529,700.583 341.737,699.628 343.944,698.686 346.152,697.756 348.359,696.838 350.567,695.932 352.774,695.039 354.982,694.157 357.189,693.287 359.397,692.428 361.604,691.286 363.811,687.887 366.019,682.449 368.226,675.601 370.434,667.879 372.641,659.721 374.849,651.469 377.056,643.373 379.264,635.584 381.471,628.16 383.679,621.062 385.886,614.158 388.094,607.231 390.301,600.323 392.509,593.507 394.716,586.781 396.924,580.144 399.131,573.595 401.339,567.133 403.546,560.756 405.754,554.464 407.961,548.256 410.169,542.129 412.376,536.084 414.584,530.119 416.791,524.233 418.999,518.426 421.206,512.695 423.414,507.04 425.621,501.46 427.829,495.955 430.036,490.522 432.244,485.161 434.451,479.872 436.659,474.652 438.866,469.502 441.073,464.42 443.281,459.406 445.488,454.458 447.696,449.575 449.903,444.758 452.111,440.004 454.318,435.313 456.526,430.685 458.733,426.117 460.941,421.611 463.148,417.163 465.356,412.775 467.563,408.446 469.771,404.173 471.978,399.957 474.186,395.797 476.393,391.692 478.601,387.642 480.808,383.645 483.016,379.701 485.223,375.81 487.431,371.97 489.638,368.181 491.846,364.442 494.053,360.753 496.261,357.113 498.468,353.521 500.676,349.976 502.883,346.479 505.091,343.028 507.298,339.623 509.506,336.263 511.713,332.948 513.921,329.676 516.128,326.448 518.335,323.263 520.543,320.119 522.75,317.018 524.958,313.958 527.165,310.938 529.373,307.958 531.58,305.018 533.788,302.116 535.995,299.254 538.203,296.429 540.41,293.641 542.618,290.891 544.825,288.177 547.033,285.499 549.24,282.856 551.448,280.249 553.655,277.676 555.863,275.137 558.07,272.632 560.278,270.16 562.485,267.721 564.693,265.314 566.9,262.939 569.108,260.596 571.315,258.284 573.523,256.002 575.73,253.751 577.938,251.529 580.145,249.337 582.353,247.174 584.56,245.802 586.768,245.821 588.975,247.082 591.182,249.444 593.39,252.773 595.597,256.941 597.805,261.829 600.012,267.323 602.22,273.318 604.427,279.715 606.635,286.423 608.842,293.356 611.05,300.438 613.257,307.598 615.465,314.774 617.672,321.909 619.88,328.955 622.087,335.87 624.295,342.619 626.502,349.174 628.71,355.516 630.917,361.632 633.125,367.514 635.332,373.164 637.54,378.591 639.747,383.809 641.955,388.841 644.162,393.717 646.37,398.472 648.577,403.151 650.785,407.805 652.992,412.491 655.2,417.267 657.407,422.032 659.615,426.733 661.822,431.373 664.03,435.95 666.237,440.467 668.444,444.925 670.652,449.323 672.859,453.663 675.067,457.945 677.274,462.17 679.482,466.34 681.689,470.454 683.897,474.513 686.104,478.519 688.312,482.472 690.519,486.372 692.727,490.221 694.934,494.018 697.142,497.766 699.349,501.464 701.557,505.113 703.764,508.714 705.972,512.267 708.179,515.773 710.387,519.233 712.594,522.647 714.802,526.015 717.009,529.339 719.217,532.619 721.424,535.855 723.632,539.049 725.839,542.199 728.047,545.308 730.254,548.376 732.462,551.403 734.669,554.39 736.877,557.337 739.084,560.245 741.292,563.114 743.499,565.945 745.706,568.739 747.914,571.495 750.121,574.215 752.329,576.898 754.536,579.546 756.744,582.159 758.951,584.737 761.159,587.281 763.366,589.791 765.574,592.268 767.781,594.712 769.989,597.123 772.196,599.503 774.404,601.85 776.611,604.167 778.819,606.453 781.026,608.709 783.234,610.935 785.441,613.132 787.649,615.299 789.856,617.438 792.064,619.549 794.271,621.631 796.479,623.686 798.686,625.714 800.894,627.608 803.101,628.867 805.309,629.486 807.516,629.529 809.724,629.059 811.931,628.137 814.139,626.819 816.346,625.157 818.553,623.204 820.761,621.006 822.968,618.608 825.176,616.051 827.383,613.374 829.591,610.611 831.798,607.796 834.006,604.958 836.213,602.122 838.421,599.313 840.628,596.55 842.836,593.85 845.043,591.228 847.251,588.694 849.458,586.258 851.666,583.923 853.873,581.692 856.081,579.564 858.288,577.534 860.496,575.596 862.703,573.739 864.911,571.951 867.118,570.215 869.326,568.512 871.533,566.819 873.741,565.112 875.948,563.361 878.156,561.582 880.363,559.825 882.571,558.091 884.778,556.381 886.986,554.693 889.193,553.028 891.401,551.384 893.608,549.763 895.815,548.163 898.023,546.584 900.23,545.026 902.438,543.489 904.645,541.972 906.853,540.475 909.06,538.998 911.268,537.541 913.475,536.103 915.683,534.684 917.89,533.284 920.098,531.902 922.305,530.539 924.513,529.194 926.72,527.866 928.928,526.556 931.135,525.264 933.343,523.989 935.55,522.73 937.758,521.489 939.965,520.263 942.173,519.054 944.38,517.861 946.588,516.684 948.795,515.522 951.003,514.376 953.21,513.244 955.418,512.128 957.625,511.027 959.833,509.94 962.04,508.868 964.248,507.81 966.455,506.766 968.663,505.736 970.87,504.72 973.077,503.717 975.285,502.727 977.492,501.751 979.7,500.787 981.907,499.836 984.115,498.898 986.322,497.973 988.53,497.059 990.737,496.158 992.945,495.269 995.152,494.392 997.36,493.526 999.567,492.672 1001.77,491.829 1003.98,490.997 1006.19,490.176 1008.4,489.366 1010.6,488.567 1012.81,487.778 1015.02,487 1017.23,486.232 1019.43,485.475 1021.64,484.727 1023.85,483.989 1026.06,483.261 1028.26,482.543 1030.47,482.028 1032.68,482.326 1034.89,483.406 1037.09,485.182 1039.3,487.577 1041.51,490.515 1043.72,493.925 1045.92,497.738 1048.13,501.892 1050.34,506.326 1052.55,510.985 1054.75,515.816 1056.96,520.772 1059.17,525.808 1061.38,530.884 1063.58,535.963 1065.79,541.013 1068,546.006 1070.21,550.916 1072.41,555.723 1074.62,560.409 1076.83,564.961 1079.04,569.371 1081.24,573.633 1083.45,577.746 1085.66,581.711 1087.87,585.535 1090.07,589.23 1092.28,592.807 1094.49,596.287 1096.7,599.69 1098.9,603.042 1101.11,606.374 1103.32,609.718 1105.53,613.11 1107.73,616.496 1109.94,619.837 1112.15,623.134 1114.36,626.387 1116.56,629.597 1118.77,632.764 1120.98,635.889 1123.19,638.973 1125.39,642.016 1127.6,645.019 1129.81,647.982 1132.02,650.905 1134.22,653.79 1136.43,656.637 1138.64,659.445 1140.85,662.217 1143.05,664.952 1145.26,667.65 1147.47,670.313 1149.68,672.941 1151.88,675.533 1154.09,678.091 1156.3,680.616 1158.51,683.107 1160.71,685.565 1162.92,687.99 1165.13,690.383 1167.34,692.745 1169.54,695.075 1171.75,697.374 1173.96,699.643 1176.17,701.882 1178.37,704.091 1180.58,706.271 1182.79,708.422 1185,710.544 1187.2,712.638 1189.41,714.704 1191.62,716.743 1193.83,718.755 1196.03,720.74 1198.24,722.699 1200.45,724.632 1202.66,726.539 1204.86,728.421 1207.07,730.278 1209.28,732.11 1211.49,733.918 1213.69,735.703 1215.9,737.463 1218.11,739.2 1220.32,740.914 1222.52,742.606 1224.73,744.275 1226.94,745.922 1229.15,747.547 1231.35,749.15 1233.56,750.732 1235.77,752.294 1237.98,753.834 1240.18,755.354 1242.39,756.854 1244.6,758.335 1246.81,759.795 1249.01,761.353 1251.22,763.964 1253.43,767.707 1255.64,772.428 1257.84,777.978 1260.05,784.222 1262.26,791.033 1264.47,798.291 1266.67,805.888 1268.88,813.726 1271.09,821.714 1273.3,829.772 1275.5,837.83 1277.71,845.825 1279.92,853.707 1282.13,861.432 1284.33,868.968 1286.54,876.291 1288.75,883.386 1290.96,890.249 1293.16,896.884 1295.37,903.306 1297.58,909.538 1299.79,915.614 1301.99,921.575 1304.2,927.473 1306.41,933.371 1308.62,939.319 1310.82,945.218 1313.03,951.039 1315.24,956.782 1317.45,962.449 1319.65,968.041 1321.86,973.559 1324.07,979.004 1326.28,984.377 1328.48,989.678 1330.69,994.909 1332.9,1000.07 1335.11,1005.16 1337.31,1010.19 1339.52,1015.15 1341.73,1020.04 1343.94,1024.87 1346.14,1029.64 1348.35,1034.34 1350.56,1038.98 1352.76,1043.55 1354.97,1048.07 1357.18,1052.53 1359.39,1056.93 1361.59,1061.27 1363.8,1065.55 1366.01,1069.77 1368.22,1073.94 1370.42,1078.06 1372.63,1082.12 1374.84,1086.12 1377.05,1090.07 1379.25,1093.97 1381.46,1097.82 1383.67,1101.62 1385.88,1105.37 1388.08,1109.06 1390.29,1112.71 1392.5,1116.31 1394.71,1119.86 1396.91,1123.37 1399.12,1126.83 1401.33,1130.24 1403.54,1133.61 1405.74,1136.93 1407.95,1140.21 1410.16,1143.44 1412.37,1146.64 1414.57,1149.79 1416.78,1152.9 1418.99,1156 1421.2,1159.08 1423.4,1162.14 1425.61,1165.16 1427.82,1168.13 1430.03,1171.07 1432.23,1173.95 1434.44,1176.78 1436.65,1179.55 1438.86,1182.26 1441.06,1184.91 1443.27,1187.48 1445.48,1190 1447.69,1192.44 1449.89,1194.82 1452.1,1197.13 1454.31,1199.38 1456.52,1201.56 1458.72,1203.68 1460.93,1205.74 1463.14,1207.75 1465.35,1209.7 1467.55,1211.61 1469.76,1213.49 1471.97,1215.32 1474.18,1217.13 1476.38,1218.92 1478.59,1220.7 1480.8,1222.47 1483.01,1224.22 1485.21,1225.94 1487.42,1227.65 1489.63,1229.33 1491.84,1230.98 1494.04,1232.62 1496.25,1234.23 1498.46,1235.83 1500.67,1237.4 1502.87,1238.95 1505.08,1240.48 1507.29,1241.99 1509.5,1243.48 1511.7,1244.95 1513.91,1246.4 1516.12,1247.83 1518.33,1249.24 1520.53,1250.64 1522.74,1252.01 1524.95,1253.37 1527.16,1254.71 1529.36,1256.03 1531.57,1257.33 1533.78,1258.62 1535.99,1259.89 1538.19,1261.14 1540.4,1262.38 1542.61,1263.6 1544.82,1264.8 1547.02,1265.99 1549.23,1267.16 1551.44,1268.32 1553.65,1269.46 1555.85,1270.58 1558.06,1271.7 1560.27,1272.79 1562.48,1273.87 1564.68,1274.94 1566.89,1275.99 1569.1,1277.03 1571.31,1278.06 1573.51,1279.07 1575.72,1280.07 1577.93,1281.06 1580.14,1282.03 1582.34,1282.99 1584.55,1283.93 1586.76,1284.87 1588.97,1285.79 1591.17,1286.7 1593.38,1287.59 1595.59,1288.48 1597.8,1289.35 1600,1290.21 1602.21,1291.06 1604.42,1291.9 1606.63,1292.73 1608.83,1293.55 1611.04,1294.35 1613.25,1295.15 1615.46,1295.93 1617.66,1296.71 1619.87,1297.47 1622.08,1298.22 1624.29,1298.97 1626.49,1299.7 1628.7,1300.43 1630.91,1301.14 1633.12,1301.85 1635.32,1302.54 1637.53,1303.23 1639.74,1303.91 1641.95,1304.58 1644.15,1305.24 1646.36,1305.89 1648.57,1306.53 1650.78,1307.16 1652.98,1307.81 1655.19,1308.7 1657.4,1309.81 1659.61,1311.05 1661.81,1312.34 1664.02,1313.58 1666.23,1314.72 1668.44,1315.68 1670.64,1316.42 1672.85,1316.9 1675.06,1317.06 1677.27,1316.9 1679.47,1316.38 1681.68,1315.5 1683.89,1314.26 1686.1,1312.66 1688.3,1310.71 1690.51,1308.44 1692.72,1305.88 1694.93,1303.08 1697.13,1300.07 1699.34,1296.92 1701.55,1293.69 1703.76,1290.46 1705.96,1287.31 1708.17,1284.33 1710.38,1281.53 1712.59,1278.77 1714.79,1276.05 1717,1273.36 1719.21,1270.71 1721.42,1268.1 1723.62,1265.52 1725.83,1262.97 1728.04,1260.46 1730.25,1257.98 1732.45,1255.53 1734.66,1253.12 1736.87,1250.74 1739.07,1248.39 1741.28,1246.07 1743.49,1243.78 1745.7,1241.52 1747.9,1239.29 1750.11,1237.09 1752.32,1234.92 1754.53,1232.78 1756.73,1230.67 1758.94,1228.59 1761.15,1226.53 1763.36,1224.5 1765.56,1222.49 1767.77,1220.52 1769.98,1218.57 1772.19,1216.64 1774.39,1214.74 1776.6,1212.87 1778.81,1211.02 1781.02,1209.2 1783.22,1207.4 1785.43,1205.62 1787.64,1203.87 1789.85,1202.14 1792.05,1200.43 1794.26,1198.75 1796.47,1197.09 1798.68,1195.45 1800.88,1193.83 1803.09,1192.23 1805.3,1190.66 1807.51,1189.11 1809.71,1187.57 1811.92,1186.06 1814.13,1184.57 1816.34,1183.1 1818.54,1181.64 1820.75,1180.21 1822.96,1178.79 1825.17,1177.4 1827.37,1176.02 1829.58,1174.66 1831.79,1173.32 1834,1172 1836.2,1170.69 1838.41,1169.4 1840.62,1168.13 1842.83,1166.88 1845.03,1165.64 1847.24,1164.42 1849.45,1163.21 1851.66,1162.02 1853.86,1160.85 1856.07,1159.69 1858.28,1158.55 1860.49,1157.42 1862.69,1156.31 1864.9,1155.28 1867.11,1154.43 1869.32,1153.72 1871.52,1153.08 1873.73,1152.46 1875.94,1151.81 1878.15,1151.1 1880.35,1150.28 1882.56,1149.32 1884.77,1148.2 1886.98,1146.9 1889.18,1145.41 1891.39,1143.7 1893.6,1141.79 1895.81,1139.67 1898.01,1137.35 1900.22,1134.83 1902.43,1132.15 1904.64,1129.31 1906.84,1126.36 1909.05,1123.31 1911.26,1120.22 1913.47,1117.12 1915.67,1114.06 1917.88,1111.11 1920.09,1108.29 1922.3,1105.54 1924.5,1102.82 1926.71,1100.14 1928.92,1097.49 1931.13,1094.88 1933.33,1092.3 1935.54,1089.75 1937.75,1087.25 1939.96,1084.77 1942.16,1082.33 1944.37,1079.91 1946.58,1077.53 1948.79,1075.19 1950.99,1072.87 1953.2,1070.58 1955.41,1068.33 1957.62,1066.1 1959.82,1063.91 1962.03,1061.74 1964.24,1059.6 1966.45,1057.49 1968.65,1055.41 1970.86,1053.35 1973.07,1051.33 1975.28,1049.33 1977.48,1047.35 1979.69,1045.4 1981.9,1043.48 1984.11,1041.58 1986.31,1039.71 1988.52,1037.87 1990.73,1036.04 1992.94,1034.25 1995.14,1032.47 1997.35,1030.72 1999.56,1028.99 2001.77,1027.29 2003.97,1025.61 2006.18,1023.95 2008.39,1022.31 2010.6,1020.7 2012.8,1019.1 2015.01,1017.53 2017.22,1015.98 2019.43,1014.45 2021.63,1012.94 2023.84,1011.44 2026.05,1009.97 2028.26,1008.52 2030.46,1007.09 2032.67,1005.68 2034.88,1004.28 2037.09,1002.91 2039.29,1001.55 2041.5,1000.21 2043.71,998.887 2045.92,997.583 2048.12,996.296 2050.33,995.026 2052.54,993.772 2054.75,992.536 2056.95,991.315 2059.16,990.111 2061.37,988.923 2063.58,987.75 2065.78,986.593 2067.99,985.451 2070.2,984.316 2072.41,983.166 2074.61,982.008 2076.82,980.847 2079.03,979.69 2081.24,978.544 2083.44,977.413 2085.65,976.303 2087.86,975.218 2090.07,974.162 2092.27,973.14 2094.48,972.154 2096.69,971.207 2098.9,970.301 2101.1,969.439 2103.31,968.622 2105.52,967.851 2107.73,967.126 2109.93,966.448 2112.14,965.817 2114.35,965.231 2116.55,964.689 2118.76,964.191 2120.97,963.733 2123.18,963.314 2125.38,962.93 2127.59,962.578 2129.8,962.254 2132.01,961.954 2134.21,961.672 2136.42,961.405 2138.63,961.146 2140.84,960.89 2143.04,960.629 2145.25,960.356 2147.46,960.07 2149.67,959.785 2151.87,959.504 2154.08,959.226 2156.29,958.952 2158.5,958.682 2160.7,958.415 2162.91,958.152 2165.12,957.892 2167.33,957.636 2169.53,957.383 2171.74,957.134 2173.95,956.888 2176.16,956.645 2178.36,956.405 2180.57,956.168 2182.78,955.935 2184.99,955.705 2187.19,955.478 2189.4,955.253 2191.61,955.032 2193.82,954.814 2196.02,954.598 2198.23,954.386 2200.44,954.176 2202.65,953.969 2204.85,953.765 2207.06,953.564 2209.27,953.365 2211.48,953.168 2213.68,952.975 2215.89,952.784 2218.1,952.595 2220.31,952.409 2222.51,952.225 2224.72,952.044 2226.93,951.865 2229.14,951.688 2231.34,951.514 2233.55,951.342 2235.76,951.173 2237.97,951.005 2240.17,950.84 2242.38,950.677 2244.59,950.516 2246.8,950.358 2249,950.201 2251.21,950.047 2253.42,949.894 2255.63,949.744 2257.83,949.596 2260.04,949.449 2262.25,949.305 2264.46,949.163 2266.66,949.022 2268.87,948.883 2271.08,948.747 2273.29,948.612 2275.49,948.478 2277.7,948.347 2279.91,948.217 2282.12,948.09 2284.32,947.963 2286.53,947.839 2288.74,947.716 2290.95,947.595 2293.15,947.475 2295.36,947.357 2297.57,947.241 2299.78,947.126 2301.98,947.013 2304.19,946.901 2306.4,946.791 2308.61,946.682 2310.81,946.574 2313.02,946.468 2315.23,946.364 2317.44,946.261 2319.64,946.159 2321.85,946.058 2324.06,945.959 2326.27,945.861 2328.47,945.765 2330.68,945.67 2332.89,945.576 2335.1,945.483 2337.3,945.391 2339.51,945.301 2341.72,945.212 2343.93,945.124 2346.13,945.037 2348.34,944.951 2350.55,944.866 2352.76,944.783 "/>
<polyline clip-path="url(#clip371)" style="stroke:#e26f46; stroke-linecap:round; stroke-linejoin:round; stroke-width:4; stroke-opacity:1; fill:none" points="147.478,628.534 149.685,628.534 151.893,628.534 154.1,628.534 156.308,628.534 158.515,628.534 160.723,628.534 162.93,628.534 165.138,628.534 167.345,628.534 169.553,628.534 171.76,628.534 173.968,628.534 176.175,628.534 178.383,628.534 180.59,628.534 182.798,628.534 185.005,628.534 187.213,628.534 189.42,628.534 191.628,628.534 193.835,628.534 196.043,628.534 198.25,628.534 200.458,628.534 202.665,628.534 204.873,628.534 207.08,628.534 209.288,628.534 211.495,628.534 213.702,628.534 215.91,628.534 218.117,628.534 220.325,628.534 222.532,628.534 224.74,628.534 226.947,628.534 229.155,628.534 231.362,628.534 233.57,628.534 235.777,628.534 237.985,628.534 240.192,628.534 242.4,628.534 244.607,628.534 246.815,628.534 249.022,628.534 251.23,628.534 253.437,628.534 255.645,628.534 257.852,628.534 260.06,628.534 262.267,628.534 264.475,628.534 266.682,628.534 268.89,628.534 271.097,628.534 273.305,628.534 275.512,628.534 277.72,628.534 279.927,628.534 282.135,628.534 284.342,628.534 286.549,628.534 288.757,628.534 290.964,628.534 293.172,628.534 295.379,628.534 297.587,628.534 299.794,628.534 302.002,628.534 304.209,628.534 306.417,628.534 308.624,628.534 310.832,628.534 313.039,628.534 315.247,628.534 317.454,628.534 319.662,628.534 321.869,628.534 324.077,628.534 326.284,628.534 328.492,628.534 330.699,628.534 332.907,628.534 335.114,628.534 337.322,628.534 339.529,628.534 341.737,628.534 343.944,628.534 346.152,628.534 348.359,628.534 350.567,628.534 352.774,628.534 354.982,628.534 357.189,628.534 359.397,628.534 361.604,628.534 363.811,628.534 366.019,628.534 368.226,86.1857 370.434,86.1857 372.641,86.1857 374.849,86.1857 377.056,86.1857 379.264,86.1857 381.471,86.1857 383.679,86.1857 385.886,86.1857 388.094,86.1857 390.301,86.1857 392.509,86.1857 394.716,86.1857 396.924,86.1857 399.131,86.1857 401.339,86.1857 403.546,86.1857 405.754,86.1857 407.961,86.1857 410.169,86.1857 412.376,86.1857 414.584,86.1857 416.791,86.1857 418.999,86.1857 421.206,86.1857 423.414,86.1857 425.621,86.1857 427.829,86.1857 430.036,86.1857 432.244,86.1857 434.451,86.1857 436.659,86.1857 438.866,86.1857 441.073,86.1857 443.281,86.1857 445.488,86.1857 447.696,86.1857 449.903,86.1857 452.111,86.1857 454.318,86.1857 456.526,86.1857 458.733,86.1857 460.941,86.1857 463.148,86.1857 465.356,86.1857 467.563,86.1857 469.771,86.1857 471.978,86.1857 474.186,86.1857 476.393,86.1857 478.601,86.1857 480.808,86.1857 483.016,86.1857 485.223,86.1857 487.431,86.1857 489.638,86.1857 491.846,86.1857 494.053,86.1857 496.261,86.1857 498.468,86.1857 500.676,86.1857 502.883,86.1857 505.091,86.1857 507.298,86.1857 509.506,86.1857 511.713,86.1857 513.921,86.1857 516.128,86.1857 518.335,86.1857 520.543,86.1857 522.75,86.1857 524.958,86.1857 527.165,86.1857 529.373,86.1857 531.58,86.1857 533.788,86.1857 535.995,86.1857 538.203,86.1857 540.41,86.1857 542.618,86.1857 544.825,86.1857 547.033,86.1857 549.24,86.1857 551.448,86.1857 553.655,86.1857 555.863,86.1857 558.07,86.1857 560.278,86.1857 562.485,86.1857 564.693,86.1857 566.9,86.1857 569.108,86.1857 571.315,86.1857 573.523,86.1857 575.73,86.1857 577.938,86.1857 580.145,86.1857 582.353,86.1857 584.56,86.1857 586.768,86.1857 588.975,776.656 591.182,776.656 593.39,776.656 595.597,776.656 597.805,776.656 600.012,776.656 602.22,776.656 604.427,776.656 606.635,776.656 608.842,776.656 611.05,776.656 613.257,776.656 615.465,776.656 617.672,776.656 619.88,776.656 622.087,776.656 624.295,776.656 626.502,776.656 628.71,776.656 630.917,776.656 633.125,776.656 635.332,776.656 637.54,776.656 639.747,776.656 641.955,776.656 644.162,776.656 646.37,776.656 648.577,776.656 650.785,776.656 652.992,776.656 655.2,776.656 657.407,776.656 659.615,776.656 661.822,776.656 664.03,776.656 666.237,776.656 668.444,776.656 670.652,776.656 672.859,776.656 675.067,776.656 677.274,776.656 679.482,776.656 681.689,776.656 683.897,776.656 686.104,776.656 688.312,776.656 690.519,776.656 692.727,776.656 694.934,776.656 697.142,776.656 699.349,776.656 701.557,776.656 703.764,776.656 705.972,776.656 708.179,776.656 710.387,776.656 712.594,776.656 714.802,776.656 717.009,776.656 719.217,776.656 721.424,776.656 723.632,776.656 725.839,776.656 728.047,776.656 730.254,776.656 732.462,776.656 734.669,776.656 736.877,776.656 739.084,776.656 741.292,776.656 743.499,776.656 745.706,776.656 747.914,776.656 750.121,776.656 752.329,776.656 754.536,776.656 756.744,776.656 758.951,776.656 761.159,776.656 763.366,776.656 765.574,776.656 767.781,776.656 769.989,776.656 772.196,776.656 774.404,776.656 776.611,776.656 778.819,776.656 781.026,776.656 783.234,776.656 785.441,776.656 787.649,776.656 789.856,776.656 792.064,776.656 794.271,776.656 796.479,776.656 798.686,776.656 800.894,776.656 803.101,776.656 805.309,776.656 807.516,776.656 809.724,429.076 811.931,429.076 814.139,429.076 816.346,429.076 818.553,429.076 820.761,429.076 822.968,429.076 825.176,429.076 827.383,429.076 829.591,429.076 831.798,429.076 834.006,429.076 836.213,429.076 838.421,429.076 840.628,429.076 842.836,429.076 845.043,429.076 847.251,429.076 849.458,429.076 851.666,429.076 853.873,429.076 856.081,429.076 858.288,429.076 860.496,429.076 862.703,429.076 864.911,429.076 867.118,429.076 869.326,429.076 871.533,429.076 873.741,429.076 875.948,429.076 878.156,429.076 880.363,429.076 882.571,429.076 884.778,429.076 886.986,429.076 889.193,429.076 891.401,429.076 893.608,429.076 895.815,429.076 898.023,429.076 900.23,429.076 902.438,429.076 904.645,429.076 906.853,429.076 909.06,429.076 911.268,429.076 913.475,429.076 915.683,429.076 917.89,429.076 920.098,429.076 922.305,429.076 924.513,429.076 926.72,429.076 928.928,429.076 931.135,429.076 933.343,429.076 935.55,429.076 937.758,429.076 939.965,429.076 942.173,429.076 944.38,429.076 946.588,429.076 948.795,429.076 951.003,429.076 953.21,429.076 955.418,429.076 957.625,429.076 959.833,429.076 962.04,429.076 964.248,429.076 966.455,429.076 968.663,429.076 970.87,429.076 973.077,429.076 975.285,429.076 977.492,429.076 979.7,429.076 981.907,429.076 984.115,429.076 986.322,429.076 988.53,429.076 990.737,429.076 992.945,429.076 995.152,429.076 997.36,429.076 999.567,429.076 1001.77,429.076 1003.98,429.076 1006.19,429.076 1008.4,429.076 1010.6,429.076 1012.81,429.076 1015.02,429.076 1017.23,429.076 1019.43,429.076 1021.64,429.076 1023.85,429.076 1026.06,429.076 1028.26,429.076 1030.47,868.494 1032.68,868.494 1034.89,868.494 1037.09,868.494 1039.3,868.494 1041.51,868.494 1043.72,868.494 1045.92,868.494 1048.13,868.494 1050.34,868.494 1052.55,868.494 1054.75,868.494 1056.96,868.494 1059.17,868.494 1061.38,868.494 1063.58,868.494 1065.79,868.494 1068,868.494 1070.21,868.494 1072.41,868.494 1074.62,868.494 1076.83,868.494 1079.04,868.494 1081.24,868.494 1083.45,868.494 1085.66,868.494 1087.87,868.494 1090.07,868.494 1092.28,868.494 1094.49,868.494 1096.7,868.494 1098.9,868.494 1101.11,868.494 1103.32,868.494 1105.53,868.494 1107.73,868.494 1109.94,868.494 1112.15,868.494 1114.36,868.494 1116.56,868.494 1118.77,868.494 1120.98,868.494 1123.19,868.494 1125.39,868.494 1127.6,868.494 1129.81,868.494 1132.02,868.494 1134.22,868.494 1136.43,868.494 1138.64,868.494 1140.85,868.494 1143.05,868.494 1145.26,868.494 1147.47,868.494 1149.68,868.494 1151.88,868.494 1154.09,868.494 1156.3,868.494 1158.51,868.494 1160.71,868.494 1162.92,868.494 1165.13,868.494 1167.34,868.494 1169.54,868.494 1171.75,868.494 1173.96,868.494 1176.17,868.494 1178.37,868.494 1180.58,868.494 1182.79,868.494 1185,868.494 1187.2,868.494 1189.41,868.494 1191.62,868.494 1193.83,868.494 1196.03,868.494 1198.24,868.494 1200.45,868.494 1202.66,868.494 1204.86,868.494 1207.07,868.494 1209.28,868.494 1211.49,868.494 1213.69,868.494 1215.9,868.494 1218.11,868.494 1220.32,868.494 1222.52,868.494 1224.73,868.494 1226.94,868.494 1229.15,868.494 1231.35,868.494 1233.56,868.494 1235.77,868.494 1237.98,868.494 1240.18,868.494 1242.39,868.494 1244.6,868.494 1246.81,868.494 1249.01,868.494 1251.22,1384.24 1253.43,1384.24 1255.64,1384.24 1257.84,1384.24 1260.05,1384.24 1262.26,1384.24 1264.47,1384.24 1266.67,1384.24 1268.88,1384.24 1271.09,1384.24 1273.3,1384.24 1275.5,1384.24 1277.71,1384.24 1279.92,1384.24 1282.13,1384.24 1284.33,1384.24 1286.54,1384.24 1288.75,1384.24 1290.96,1384.24 1293.16,1384.24 1295.37,1384.24 1297.58,1384.24 1299.79,1384.24 1301.99,1384.24 1304.2,1384.24 1306.41,1384.24 1308.62,1384.24 1310.82,1384.24 1313.03,1384.24 1315.24,1384.24 1317.45,1384.24 1319.65,1384.24 1321.86,1384.24 1324.07,1384.24 1326.28,1384.24 1328.48,1384.24 1330.69,1384.24 1332.9,1384.24 1335.11,1384.24 1337.31,1384.24 1339.52,1384.24 1341.73,1384.24 1343.94,1384.24 1346.14,1384.24 1348.35,1384.24 1350.56,1384.24 1352.76,1384.24 1354.97,1384.24 1357.18,1384.24 1359.39,1384.24 1361.59,1384.24 1363.8,1384.24 1366.01,1384.24 1368.22,1384.24 1370.42,1384.24 1372.63,1384.24 1374.84,1384.24 1377.05,1384.24 1379.25,1384.24 1381.46,1384.24 1383.67,1384.24 1385.88,1384.24 1388.08,1384.24 1390.29,1384.24 1392.5,1384.24 1394.71,1384.24 1396.91,1384.24 1399.12,1384.24 1401.33,1384.24 1403.54,1384.24 1405.74,1384.24 1407.95,1384.24 1410.16,1384.24 1412.37,1384.24 1414.57,1384.24 1416.78,1384.24 1418.99,1384.24 1421.2,1384.24 1423.4,1384.24 1425.61,1384.24 1427.82,1384.24 1430.03,1384.24 1432.23,1384.24 1434.44,1384.24 1436.65,1384.24 1438.86,1384.24 1441.06,1384.24 1443.27,1384.24 1445.48,1384.24 1447.69,1384.24 1449.89,1384.24 1452.1,1384.24 1454.31,1384.24 1456.52,1384.24 1458.72,1384.24 1460.93,1384.24 1463.14,1384.24 1465.35,1384.24 1467.55,1384.24 1469.76,1384.24 1471.97,1354.36 1474.18,1354.36 1476.38,1354.36 1478.59,1354.36 1480.8,1354.36 1483.01,1354.36 1485.21,1354.36 1487.42,1354.36 1489.63,1354.36 1491.84,1354.36 1494.04,1354.36 1496.25,1354.36 1498.46,1354.36 1500.67,1354.36 1502.87,1354.36 1505.08,1354.36 1507.29,1354.36 1509.5,1354.36 1511.7,1354.36 1513.91,1354.36 1516.12,1354.36 1518.33,1354.36 1520.53,1354.36 1522.74,1354.36 1524.95,1354.36 1527.16,1354.36 1529.36,1354.36 1531.57,1354.36 1533.78,1354.36 1535.99,1354.36 1538.19,1354.36 1540.4,1354.36 1542.61,1354.36 1544.82,1354.36 1547.02,1354.36 1549.23,1354.36 1551.44,1354.36 1553.65,1354.36 1555.85,1354.36 1558.06,1354.36 1560.27,1354.36 1562.48,1354.36 1564.68,1354.36 1566.89,1354.36 1569.1,1354.36 1571.31,1354.36 1573.51,1354.36 1575.72,1354.36 1577.93,1354.36 1580.14,1354.36 1582.34,1354.36 1584.55,1354.36 1586.76,1354.36 1588.97,1354.36 1591.17,1354.36 1593.38,1354.36 1595.59,1354.36 1597.8,1354.36 1600,1354.36 1602.21,1354.36 1604.42,1354.36 1606.63,1354.36 1608.83,1354.36 1611.04,1354.36 1613.25,1354.36 1615.46,1354.36 1617.66,1354.36 1619.87,1354.36 1622.08,1354.36 1624.29,1354.36 1626.49,1354.36 1628.7,1354.36 1630.91,1354.36 1633.12,1354.36 1635.32,1354.36 1637.53,1354.36 1639.74,1354.36 1641.95,1354.36 1644.15,1354.36 1646.36,1354.36 1648.57,1354.36 1650.78,1354.36 1652.98,1354.36 1655.19,1354.36 1657.4,1354.36 1659.61,1354.36 1661.81,1354.36 1664.02,1354.36 1666.23,1354.36 1668.44,1354.36 1670.64,1354.36 1672.85,1354.36 1675.06,1354.36 1677.27,1354.36 1679.47,1354.36 1681.68,1354.36 1683.89,1354.36 1686.1,1354.36 1688.3,1354.36 1690.51,1354.36 1692.72,1073.46 1694.93,1073.46 1697.13,1073.46 1699.34,1073.46 1701.55,1073.46 1703.76,1073.46 1705.96,1073.46 1708.17,1073.46 1710.38,1073.46 1712.59,1073.46 1714.79,1073.46 1717,1073.46 1719.21,1073.46 1721.42,1073.46 1723.62,1073.46 1725.83,1073.46 1728.04,1073.46 1730.25,1073.46 1732.45,1073.46 1734.66,1073.46 1736.87,1073.46 1739.07,1073.46 1741.28,1073.46 1743.49,1073.46 1745.7,1073.46 1747.9,1073.46 1750.11,1073.46 1752.32,1073.46 1754.53,1073.46 1756.73,1073.46 1758.94,1073.46 1761.15,1073.46 1763.36,1073.46 1765.56,1073.46 1767.77,1073.46 1769.98,1073.46 1772.19,1073.46 1774.39,1073.46 1776.6,1073.46 1778.81,1073.46 1781.02,1073.46 1783.22,1073.46 1785.43,1073.46 1787.64,1073.46 1789.85,1073.46 1792.05,1073.46 1794.26,1073.46 1796.47,1073.46 1798.68,1073.46 1800.88,1073.46 1803.09,1073.46 1805.3,1073.46 1807.51,1073.46 1809.71,1073.46 1811.92,1073.46 1814.13,1073.46 1816.34,1073.46 1818.54,1073.46 1820.75,1073.46 1822.96,1073.46 1825.17,1073.46 1827.37,1073.46 1829.58,1073.46 1831.79,1073.46 1834,1073.46 1836.2,1073.46 1838.41,1073.46 1840.62,1073.46 1842.83,1073.46 1845.03,1073.46 1847.24,1073.46 1849.45,1073.46 1851.66,1073.46 1853.86,1073.46 1856.07,1073.46 1858.28,1073.46 1860.49,1073.46 1862.69,1073.46 1864.9,1073.46 1867.11,1073.46 1869.32,1073.46 1871.52,1073.46 1873.73,1073.46 1875.94,1073.46 1878.15,1073.46 1880.35,1073.46 1882.56,1073.46 1884.77,1073.46 1886.98,1073.46 1889.18,1073.46 1891.39,1073.46 1893.6,1073.46 1895.81,1073.46 1898.01,1073.46 1900.22,1073.46 1902.43,1073.46 1904.64,1073.46 1906.84,1073.46 1909.05,1073.46 1911.26,1073.46 1913.47,900.462 1915.67,900.462 1917.88,900.462 1920.09,900.462 1922.3,900.462 1924.5,900.462 1926.71,900.462 1928.92,900.462 1931.13,900.462 1933.33,900.462 1935.54,900.462 1937.75,900.462 1939.96,900.462 1942.16,900.462 1944.37,900.462 1946.58,900.462 1948.79,900.462 1950.99,900.462 1953.2,900.462 1955.41,900.462 1957.62,900.462 1959.82,900.462 1962.03,900.462 1964.24,900.462 1966.45,900.462 1968.65,900.462 1970.86,900.462 1973.07,900.462 1975.28,900.462 1977.48,900.462 1979.69,900.462 1981.9,900.462 1984.11,900.462 1986.31,900.462 1988.52,900.462 1990.73,900.462 1992.94,900.462 1995.14,900.462 1997.35,900.462 1999.56,900.462 2001.77,900.462 2003.97,900.462 2006.18,900.462 2008.39,900.462 2010.6,900.462 2012.8,900.462 2015.01,900.462 2017.22,900.462 2019.43,900.462 2021.63,900.462 2023.84,900.462 2026.05,900.462 2028.26,900.462 2030.46,900.462 2032.67,900.462 2034.88,900.462 2037.09,900.462 2039.29,900.462 2041.5,900.462 2043.71,900.462 2045.92,900.462 2048.12,900.462 2050.33,900.462 2052.54,900.462 2054.75,900.462 2056.95,900.462 2059.16,900.462 2061.37,900.462 2063.58,900.462 2065.78,900.462 2067.99,900.462 2070.2,900.462 2072.41,900.462 2074.61,900.462 2076.82,900.462 2079.03,900.462 2081.24,900.462 2083.44,900.462 2085.65,900.462 2087.86,900.462 2090.07,900.462 2092.27,900.462 2094.48,900.462 2096.69,900.462 2098.9,900.462 2101.1,900.462 2103.31,900.462 2105.52,900.462 2107.73,900.462 2109.93,900.462 2112.14,900.462 2114.35,900.462 2116.55,900.462 2118.76,900.462 2120.97,900.462 2123.18,900.462 2125.38,900.462 2127.59,900.462 2129.8,900.462 2132.01,900.462 2134.21,938.567 2136.42,938.567 2138.63,938.567 2140.84,938.567 2143.04,938.567 2145.25,938.567 2147.46,938.567 2149.67,938.567 2151.87,938.567 2154.08,938.567 2156.29,938.567 2158.5,938.567 2160.7,938.567 2162.91,938.567 2165.12,938.567 2167.33,938.567 2169.53,938.567 2171.74,938.567 2173.95,938.567 2176.16,938.567 2178.36,938.567 2180.57,938.567 2182.78,938.567 2184.99,938.567 2187.19,938.567 2189.4,938.567 2191.61,938.567 2193.82,938.567 2196.02,938.567 2198.23,938.567 2200.44,938.567 2202.65,938.567 2204.85,938.567 2207.06,938.567 2209.27,938.567 2211.48,938.567 2213.68,938.567 2215.89,938.567 2218.1,938.567 2220.31,938.567 2222.51,938.567 2224.72,938.567 2226.93,938.567 2229.14,938.567 2231.34,938.567 2233.55,938.567 2235.76,938.567 2237.97,938.567 2240.17,938.567 2242.38,938.567 2244.59,938.567 2246.8,938.567 2249,938.567 2251.21,938.567 2253.42,938.567 2255.63,938.567 2257.83,938.567 2260.04,938.567 2262.25,938.567 2264.46,938.567 2266.66,938.567 2268.87,938.567 2271.08,938.567 2273.29,938.567 2275.49,938.567 2277.7,938.567 2279.91,938.567 2282.12,938.567 2284.32,938.567 2286.53,938.567 2288.74,938.567 2290.95,938.567 2293.15,938.567 2295.36,938.567 2297.57,938.567 2299.78,938.567 2301.98,938.567 2304.19,938.567 2306.4,938.567 2308.61,938.567 2310.81,938.567 2313.02,938.567 2315.23,938.567 2317.44,938.567 2319.64,938.567 2321.85,938.567 2324.06,938.567 2326.27,938.567 2328.47,938.567 2330.68,938.567 2332.89,938.567 2335.1,938.567 2337.3,938.567 2339.51,938.567 2341.72,938.567 2343.93,938.567 2346.13,938.567 2348.34,938.567 2350.55,938.567 2352.76,938.567 "/>
<path clip-path="url(#clip370)" d="M2033.58 248.629 L2279.25 248.629 L2279.25 93.1086 L2033.58 93.1086  Z" fill="#ffffff" fill-rule="evenodd" fill-opacity="1"/>
<polyline clip-path="url(#clip370)" style="stroke:#000000; stroke-linecap:round; stroke-linejoin:round; stroke-width:4; stroke-opacity:1; fill:none" points="2033.58,248.629 2279.25,248.629 2279.25,93.1086 2033.58,93.1086 2033.58,248.629 "/>
<polyline clip-path="url(#clip370)" style="stroke:#009af9; stroke-linecap:round; stroke-linejoin:round; stroke-width:4; stroke-opacity:1; fill:none" points="2058.08,144.949 2205.1,144.949 "/>
<path clip-path="url(#clip370)" d="M2254.26 136.303 L2244.88 148.919 L2254.74 162.229 L2249.72 162.229 L2242.17 152.043 L2234.63 162.229 L2229.6 162.229 L2239.67 148.664 L2230.46 136.303 L2235.48 136.303 L2242.36 145.539 L2249.23 136.303 L2254.26 136.303 Z" fill="#000000" fill-rule="nonzero" fill-opacity="1" /><polyline clip-path="url(#clip370)" style="stroke:#e26f46; stroke-linecap:round; stroke-linejoin:round; stroke-width:4; stroke-opacity:1; fill:none" points="2058.08,196.789 2205.1,196.789 "/>
<path clip-path="url(#clip370)" d="M2246.11 178.05 L2246.11 181.592 L2242.04 181.592 Q2239.74 181.592 2238.84 182.518 Q2237.96 183.444 2237.96 185.851 L2237.96 188.143 L2244.98 188.143 L2244.98 191.453 L2237.96 191.453 L2237.96 214.069 L2233.68 214.069 L2233.68 191.453 L2229.6 191.453 L2229.6 188.143 L2233.68 188.143 L2233.68 186.337 Q2233.68 182.009 2235.69 180.041 Q2237.71 178.05 2242.08 178.05 L2246.11 178.05 Z" fill="#000000" fill-rule="nonzero" fill-opacity="1" /></svg>
