<?xml version="1.0" encoding="utf-8"?>
<svg xmlns="http://www.w3.org/2000/svg" xmlns:xlink="http://www.w3.org/1999/xlink" width="600" height="400" viewBox="0 0 2400 1600">
<defs>
  <clipPath id="clip730">
    <rect x="0" y="0" width="2400" height="1600"/>
  </clipPath>
</defs>
<path clip-path="url(#clip730)" d="M0 1600 L2400 1600 L2400 0 L0 0  Z" fill="#ffffff" fill-rule="evenodd" fill-opacity="1"/>
<defs>
  <clipPath id="clip731">
    <rect x="193" y="47" width="2160" height="1377"/>
  </clipPath>
</defs>
<path clip-path="url(#clip730)" d="M193.936 1423.18 L2352.76 1423.18 L2352.76 47.2441 L193.936 47.2441  Z" fill="#ffffff" fill-rule="evenodd" fill-opacity="1"/>
<polyline clip-path="url(#clip731)" style="stroke:#000000; stroke-linecap:round; stroke-linejoin:round; stroke-width:2; stroke-opacity:0.1; fill:none" points="193.936,1423.18 193.936,47.2441 "/>
<polyline clip-path="url(#clip731)" style="stroke:#000000; stroke-linecap:round; stroke-linejoin:round; stroke-width:2; stroke-opacity:0.1; fill:none" points="625.7,1423.18 625.7,47.2441 "/>
<polyline clip-path="url(#clip731)" style="stroke:#000000; stroke-linecap:round; stroke-linejoin:round; stroke-width:2; stroke-opacity:0.1; fill:none" points="1057.46,1423.18 1057.46,47.2441 "/>
<polyline clip-path="url(#clip731)" style="stroke:#000000; stroke-linecap:round; stroke-linejoin:round; stroke-width:2; stroke-opacity:0.1; fill:none" points="1489.23,1423.18 1489.23,47.2441 "/>
<polyline clip-path="url(#clip731)" style="stroke:#000000; stroke-linecap:round; stroke-linejoin:round; stroke-width:2; stroke-opacity:0.1; fill:none" points="1920.99,1423.18 1920.99,47.2441 "/>
<polyline clip-path="url(#clip731)" style="stroke:#000000; stroke-linecap:round; stroke-linejoin:round; stroke-width:2; stroke-opacity:0.1; fill:none" points="2352.76,1423.18 2352.76,47.2441 "/>
<polyline clip-path="url(#clip731)" style="stroke:#000000; stroke-linecap:round; stroke-linejoin:round; stroke-width:2; stroke-opacity:0.1; fill:none" points="193.936,1274.9 2352.76,1274.9 "/>
<polyline clip-path="url(#clip731)" style="stroke:#000000; stroke-linecap:round; stroke-linejoin:round; stroke-width:2; stroke-opacity:0.1; fill:none" points="193.936,1040.11 2352.76,1040.11 "/>
<polyline clip-path="url(#clip731)" style="stroke:#000000; stroke-linecap:round; stroke-linejoin:round; stroke-width:2; stroke-opacity:0.1; fill:none" points="193.936,805.309 2352.76,805.309 "/>
<polyline clip-path="url(#clip731)" style="stroke:#000000; stroke-linecap:round; stroke-linejoin:round; stroke-width:2; stroke-opacity:0.1; fill:none" points="193.936,570.513 2352.76,570.513 "/>
<polyline clip-path="url(#clip731)" style="stroke:#000000; stroke-linecap:round; stroke-linejoin:round; stroke-width:2; stroke-opacity:0.1; fill:none" points="193.936,335.717 2352.76,335.717 "/>
<polyline clip-path="url(#clip731)" style="stroke:#000000; stroke-linecap:round; stroke-linejoin:round; stroke-width:2; stroke-opacity:0.1; fill:none" points="193.936,100.921 2352.76,100.921 "/>
<polyline clip-path="url(#clip730)" style="stroke:#000000; stroke-linecap:round; stroke-linejoin:round; stroke-width:4; stroke-opacity:1; fill:none" points="193.936,1423.18 2352.76,1423.18 "/>
<polyline clip-path="url(#clip730)" style="stroke:#000000; stroke-linecap:round; stroke-linejoin:round; stroke-width:4; stroke-opacity:1; fill:none" points="193.936,1423.18 193.936,1404.28 "/>
<polyline clip-path="url(#clip730)" style="stroke:#000000; stroke-linecap:round; stroke-linejoin:round; stroke-width:4; stroke-opacity:1; fill:none" points="625.7,1423.18 625.7,1404.28 "/>
<polyline clip-path="url(#clip730)" style="stroke:#000000; stroke-linecap:round; stroke-linejoin:round; stroke-width:4; stroke-opacity:1; fill:none" points="1057.46,1423.18 1057.46,1404.28 "/>
<polyline clip-path="url(#clip730)" style="stroke:#000000; stroke-linecap:round; stroke-linejoin:round; stroke-width:4; stroke-opacity:1; fill:none" points="1489.23,1423.18 1489.23,1404.28 "/>
<polyline clip-path="url(#clip730)" style="stroke:#000000; stroke-linecap:round; stroke-linejoin:round; stroke-width:4; stroke-opacity:1; fill:none" points="1920.99,1423.18 1920.99,1404.28 "/>
<polyline clip-path="url(#clip730)" style="stroke:#000000; stroke-linecap:round; stroke-linejoin:round; stroke-width:4; stroke-opacity:1; fill:none" points="2352.76,1423.18 2352.76,1404.28 "/>
<path clip-path="url(#clip730)" d="M193.936 1454.1 Q190.325 1454.1 188.496 1457.66 Q186.691 1461.2 186.691 1468.33 Q186.691 1475.44 188.496 1479.01 Q190.325 1482.55 193.936 1482.55 Q197.57 1482.55 199.376 1479.01 Q201.204 1475.44 201.204 1468.33 Q201.204 1461.2 199.376 1457.66 Q197.57 1454.1 193.936 1454.1 M193.936 1450.39 Q199.746 1450.39 202.802 1455 Q205.88 1459.58 205.88 1468.33 Q205.88 1477.06 202.802 1481.67 Q199.746 1486.25 193.936 1486.25 Q188.126 1486.25 185.047 1481.67 Q181.992 1477.06 181.992 1468.33 Q181.992 1459.58 185.047 1455 Q188.126 1450.39 193.936 1450.39 Z" fill="#000000" fill-rule="nonzero" fill-opacity="1" /><path clip-path="url(#clip730)" d="M620.353 1481.64 L636.672 1481.64 L636.672 1485.58 L614.728 1485.58 L614.728 1481.64 Q617.39 1478.89 621.973 1474.26 Q626.58 1469.61 627.76 1468.27 Q630.006 1465.74 630.885 1464.01 Q631.788 1462.25 631.788 1460.56 Q631.788 1457.8 629.843 1456.07 Q627.922 1454.33 624.82 1454.33 Q622.621 1454.33 620.168 1455.09 Q617.737 1455.86 614.959 1457.41 L614.959 1452.69 Q617.783 1451.55 620.237 1450.97 Q622.691 1450.39 624.728 1450.39 Q630.098 1450.39 633.293 1453.08 Q636.487 1455.77 636.487 1460.26 Q636.487 1462.39 635.677 1464.31 Q634.89 1466.2 632.783 1468.8 Q632.205 1469.47 629.103 1472.69 Q626.001 1475.88 620.353 1481.64 Z" fill="#000000" fill-rule="nonzero" fill-opacity="1" /><path clip-path="url(#clip730)" d="M1060.47 1455.09 L1048.67 1473.54 L1060.47 1473.54 L1060.47 1455.09 M1059.25 1451.02 L1065.13 1451.02 L1065.13 1473.54 L1070.06 1473.54 L1070.06 1477.43 L1065.13 1477.43 L1065.13 1485.58 L1060.47 1485.58 L1060.47 1477.43 L1044.87 1477.43 L1044.87 1472.92 L1059.25 1451.02 Z" fill="#000000" fill-rule="nonzero" fill-opacity="1" /><path clip-path="url(#clip730)" d="M1489.63 1466.44 Q1486.48 1466.44 1484.63 1468.59 Q1482.8 1470.74 1482.8 1474.49 Q1482.8 1478.22 1484.63 1480.39 Q1486.48 1482.55 1489.63 1482.55 Q1492.78 1482.55 1494.61 1480.39 Q1496.46 1478.22 1496.46 1474.49 Q1496.46 1470.74 1494.61 1468.59 Q1492.78 1466.44 1489.63 1466.44 M1498.92 1451.78 L1498.92 1456.04 Q1497.16 1455.21 1495.35 1454.77 Q1493.57 1454.33 1491.81 1454.33 Q1487.18 1454.33 1484.73 1457.45 Q1482.3 1460.58 1481.95 1466.9 Q1483.31 1464.89 1485.37 1463.82 Q1487.43 1462.73 1489.91 1462.73 Q1495.12 1462.73 1498.13 1465.9 Q1501.16 1469.05 1501.16 1474.49 Q1501.16 1479.82 1498.01 1483.03 Q1494.86 1486.25 1489.63 1486.25 Q1483.64 1486.25 1480.47 1481.67 Q1477.3 1477.06 1477.3 1468.33 Q1477.3 1460.14 1481.18 1455.28 Q1485.07 1450.39 1491.62 1450.39 Q1493.38 1450.39 1495.17 1450.74 Q1496.97 1451.09 1498.92 1451.78 Z" fill="#000000" fill-rule="nonzero" fill-opacity="1" /><path clip-path="url(#clip730)" d="M1920.99 1469.17 Q1917.66 1469.17 1915.74 1470.95 Q1913.84 1472.73 1913.84 1475.86 Q1913.84 1478.98 1915.74 1480.77 Q1917.66 1482.55 1920.99 1482.55 Q1924.33 1482.55 1926.25 1480.77 Q1928.17 1478.96 1928.17 1475.86 Q1928.17 1472.73 1926.25 1470.95 Q1924.35 1469.17 1920.99 1469.17 M1916.32 1467.18 Q1913.31 1466.44 1911.62 1464.38 Q1909.95 1462.32 1909.95 1459.35 Q1909.95 1455.21 1912.89 1452.8 Q1915.85 1450.39 1920.99 1450.39 Q1926.15 1450.39 1929.09 1452.8 Q1932.03 1455.21 1932.03 1459.35 Q1932.03 1462.32 1930.34 1464.38 Q1928.68 1466.44 1925.69 1467.18 Q1929.07 1467.96 1930.95 1470.26 Q1932.84 1472.55 1932.84 1475.86 Q1932.84 1480.88 1929.77 1483.57 Q1926.71 1486.25 1920.99 1486.25 Q1915.27 1486.25 1912.2 1483.57 Q1909.14 1480.88 1909.14 1475.86 Q1909.14 1472.55 1911.04 1470.26 Q1912.94 1467.96 1916.32 1467.18 M1914.6 1459.79 Q1914.6 1462.48 1916.27 1463.98 Q1917.96 1465.49 1920.99 1465.49 Q1924 1465.49 1925.69 1463.98 Q1927.4 1462.48 1927.4 1459.79 Q1927.4 1457.11 1925.69 1455.6 Q1924 1454.1 1920.99 1454.1 Q1917.96 1454.1 1916.27 1455.6 Q1914.6 1457.11 1914.6 1459.79 Z" fill="#000000" fill-rule="nonzero" fill-opacity="1" /><path clip-path="url(#clip730)" d="M2327.44 1481.64 L2335.08 1481.64 L2335.08 1455.28 L2326.77 1456.95 L2326.77 1452.69 L2335.04 1451.02 L2339.71 1451.02 L2339.71 1481.64 L2347.35 1481.64 L2347.35 1485.58 L2327.44 1485.58 L2327.44 1481.64 Z" fill="#000000" fill-rule="nonzero" fill-opacity="1" /><path clip-path="url(#clip730)" d="M2366.8 1454.1 Q2363.18 1454.1 2361.36 1457.66 Q2359.55 1461.2 2359.55 1468.33 Q2359.55 1475.44 2361.36 1479.01 Q2363.18 1482.55 2366.8 1482.55 Q2370.43 1482.55 2372.23 1479.01 Q2374.06 1475.44 2374.06 1468.33 Q2374.06 1461.2 2372.23 1457.66 Q2370.43 1454.1 2366.8 1454.1 M2366.8 1450.39 Q2372.61 1450.39 2375.66 1455 Q2378.74 1459.58 2378.74 1468.33 Q2378.74 1477.06 2375.66 1481.67 Q2372.61 1486.25 2366.8 1486.25 Q2360.99 1486.25 2357.91 1481.67 Q2354.85 1477.06 2354.85 1468.33 Q2354.85 1459.58 2357.91 1455 Q2360.99 1450.39 2366.8 1450.39 Z" fill="#000000" fill-rule="nonzero" fill-opacity="1" /><path clip-path="url(#clip730)" d="M1272.41 1522.27 L1272.41 1532.4 L1284.47 1532.4 L1284.47 1536.95 L1272.41 1536.95 L1272.41 1556.3 Q1272.41 1560.66 1273.58 1561.9 Q1274.79 1563.14 1278.45 1563.14 L1284.47 1563.14 L1284.47 1568.04 L1278.45 1568.04 Q1271.67 1568.04 1269.1 1565.53 Q1266.52 1562.98 1266.52 1556.3 L1266.52 1536.95 L1262.22 1536.95 L1262.22 1532.4 L1266.52 1532.4 L1266.52 1522.27 L1272.41 1522.27 Z" fill="#000000" fill-rule="nonzero" fill-opacity="1" /><polyline clip-path="url(#clip730)" style="stroke:#000000; stroke-linecap:round; stroke-linejoin:round; stroke-width:4; stroke-opacity:1; fill:none" points="193.936,1423.18 193.936,47.2441 "/>
<polyline clip-path="url(#clip730)" style="stroke:#000000; stroke-linecap:round; stroke-linejoin:round; stroke-width:4; stroke-opacity:1; fill:none" points="193.936,1274.9 212.834,1274.9 "/>
<polyline clip-path="url(#clip730)" style="stroke:#000000; stroke-linecap:round; stroke-linejoin:round; stroke-width:4; stroke-opacity:1; fill:none" points="193.936,1040.11 212.834,1040.11 "/>
<polyline clip-path="url(#clip730)" style="stroke:#000000; stroke-linecap:round; stroke-linejoin:round; stroke-width:4; stroke-opacity:1; fill:none" points="193.936,805.309 212.834,805.309 "/>
<polyline clip-path="url(#clip730)" style="stroke:#000000; stroke-linecap:round; stroke-linejoin:round; stroke-width:4; stroke-opacity:1; fill:none" points="193.936,570.513 212.834,570.513 "/>
<polyline clip-path="url(#clip730)" style="stroke:#000000; stroke-linecap:round; stroke-linejoin:round; stroke-width:4; stroke-opacity:1; fill:none" points="193.936,335.717 212.834,335.717 "/>
<polyline clip-path="url(#clip730)" style="stroke:#000000; stroke-linecap:round; stroke-linejoin:round; stroke-width:4; stroke-opacity:1; fill:none" points="193.936,100.921 212.834,100.921 "/>
<path clip-path="url(#clip730)" d="M50.9921 1275.35 L80.6679 1275.35 L80.6679 1279.29 L50.9921 1279.29 L50.9921 1275.35 Z" fill="#000000" fill-rule="nonzero" fill-opacity="1" /><path clip-path="url(#clip730)" d="M94.7882 1288.25 L111.108 1288.25 L111.108 1292.18 L89.1632 1292.18 L89.1632 1288.25 Q91.8252 1285.49 96.4085 1280.86 Q101.015 1276.21 102.196 1274.87 Q104.441 1272.34 105.321 1270.61 Q106.223 1268.85 106.223 1267.16 Q106.223 1264.4 104.279 1262.67 Q102.358 1260.93 99.2558 1260.93 Q97.0567 1260.93 94.603 1261.7 Q92.1725 1262.46 89.3947 1264.01 L89.3947 1259.29 Q92.2188 1258.15 94.6724 1257.58 Q97.1261 1257 99.1632 1257 Q104.534 1257 107.728 1259.68 Q110.922 1262.37 110.922 1266.86 Q110.922 1268.99 110.112 1270.91 Q109.325 1272.81 107.219 1275.4 Q106.64 1276.07 103.538 1279.29 Q100.436 1282.48 94.7882 1288.25 Z" fill="#000000" fill-rule="nonzero" fill-opacity="1" /><path clip-path="url(#clip730)" d="M120.922 1286.3 L125.807 1286.3 L125.807 1292.18 L120.922 1292.18 L120.922 1286.3 Z" fill="#000000" fill-rule="nonzero" fill-opacity="1" /><path clip-path="url(#clip730)" d="M145.992 1260.7 Q142.381 1260.7 140.552 1264.27 Q138.746 1267.81 138.746 1274.94 Q138.746 1282.04 140.552 1285.61 Q142.381 1289.15 145.992 1289.15 Q149.626 1289.15 151.431 1285.61 Q153.26 1282.04 153.26 1274.94 Q153.26 1267.81 151.431 1264.27 Q149.626 1260.7 145.992 1260.7 M145.992 1257 Q151.802 1257 154.857 1261.6 Q157.936 1266.19 157.936 1274.94 Q157.936 1283.66 154.857 1288.27 Q151.802 1292.85 145.992 1292.85 Q140.181 1292.85 137.103 1288.27 Q134.047 1283.66 134.047 1274.94 Q134.047 1266.19 137.103 1261.6 Q140.181 1257 145.992 1257 Z" fill="#000000" fill-rule="nonzero" fill-opacity="1" /><path clip-path="url(#clip730)" d="M51.9875 1040.56 L81.6633 1040.56 L81.6633 1044.49 L51.9875 1044.49 L51.9875 1040.56 Z" fill="#000000" fill-rule="nonzero" fill-opacity="1" /><path clip-path="url(#clip730)" d="M92.566 1053.45 L100.205 1053.45 L100.205 1027.08 L91.8947 1028.75 L91.8947 1024.49 L100.159 1022.83 L104.834 1022.83 L104.834 1053.45 L112.473 1053.45 L112.473 1057.39 L92.566 1057.39 L92.566 1053.45 Z" fill="#000000" fill-rule="nonzero" fill-opacity="1" /><path clip-path="url(#clip730)" d="M121.918 1051.51 L126.802 1051.51 L126.802 1057.39 L121.918 1057.39 L121.918 1051.51 Z" fill="#000000" fill-rule="nonzero" fill-opacity="1" /><path clip-path="url(#clip730)" d="M137.033 1022.83 L155.39 1022.83 L155.39 1026.76 L141.316 1026.76 L141.316 1035.23 Q142.334 1034.89 143.353 1034.72 Q144.371 1034.54 145.39 1034.54 Q151.177 1034.54 154.556 1037.71 Q157.936 1040.88 157.936 1046.3 Q157.936 1051.88 154.464 1054.98 Q150.992 1058.06 144.672 1058.06 Q142.496 1058.06 140.228 1057.69 Q137.982 1057.32 135.575 1056.58 L135.575 1051.88 Q137.658 1053.01 139.881 1053.57 Q142.103 1054.12 144.58 1054.12 Q148.584 1054.12 150.922 1052.02 Q153.26 1049.91 153.26 1046.3 Q153.26 1042.69 150.922 1040.58 Q148.584 1038.47 144.58 1038.47 Q142.705 1038.47 140.83 1038.89 Q138.978 1039.31 137.033 1040.19 L137.033 1022.83 Z" fill="#000000" fill-rule="nonzero" fill-opacity="1" /><path clip-path="url(#clip730)" d="M50.9921 805.761 L80.6679 805.761 L80.6679 809.696 L50.9921 809.696 L50.9921 805.761 Z" fill="#000000" fill-rule="nonzero" fill-opacity="1" /><path clip-path="url(#clip730)" d="M91.5706 818.654 L99.2095 818.654 L99.2095 792.288 L90.8993 793.955 L90.8993 789.696 L99.1632 788.029 L103.839 788.029 L103.839 818.654 L111.478 818.654 L111.478 822.589 L91.5706 822.589 L91.5706 818.654 Z" fill="#000000" fill-rule="nonzero" fill-opacity="1" /><path clip-path="url(#clip730)" d="M120.922 816.71 L125.807 816.71 L125.807 822.589 L120.922 822.589 L120.922 816.71 Z" fill="#000000" fill-rule="nonzero" fill-opacity="1" /><path clip-path="url(#clip730)" d="M145.992 791.108 Q142.381 791.108 140.552 794.673 Q138.746 798.214 138.746 805.344 Q138.746 812.45 140.552 816.015 Q142.381 819.557 145.992 819.557 Q149.626 819.557 151.431 816.015 Q153.26 812.45 153.26 805.344 Q153.26 798.214 151.431 794.673 Q149.626 791.108 145.992 791.108 M145.992 787.404 Q151.802 787.404 154.857 792.011 Q157.936 796.594 157.936 805.344 Q157.936 814.071 154.857 818.677 Q151.802 823.261 145.992 823.261 Q140.181 823.261 137.103 818.677 Q134.047 814.071 134.047 805.344 Q134.047 796.594 137.103 792.011 Q140.181 787.404 145.992 787.404 Z" fill="#000000" fill-rule="nonzero" fill-opacity="1" /><path clip-path="url(#clip730)" d="M51.9875 570.964 L81.6633 570.964 L81.6633 574.9 L51.9875 574.9 L51.9875 570.964 Z" fill="#000000" fill-rule="nonzero" fill-opacity="1" /><path clip-path="url(#clip730)" d="M101.756 556.312 Q98.1447 556.312 96.316 559.876 Q94.5104 563.418 94.5104 570.548 Q94.5104 577.654 96.316 581.219 Q98.1447 584.761 101.756 584.761 Q105.39 584.761 107.196 581.219 Q109.024 577.654 109.024 570.548 Q109.024 563.418 107.196 559.876 Q105.39 556.312 101.756 556.312 M101.756 552.608 Q107.566 552.608 110.621 557.214 Q113.7 561.798 113.7 570.548 Q113.7 579.275 110.621 583.881 Q107.566 588.464 101.756 588.464 Q95.9456 588.464 92.8669 583.881 Q89.8114 579.275 89.8114 570.548 Q89.8114 561.798 92.8669 557.214 Q95.9456 552.608 101.756 552.608 Z" fill="#000000" fill-rule="nonzero" fill-opacity="1" /><path clip-path="url(#clip730)" d="M121.918 581.913 L126.802 581.913 L126.802 587.793 L121.918 587.793 L121.918 581.913 Z" fill="#000000" fill-rule="nonzero" fill-opacity="1" /><path clip-path="url(#clip730)" d="M137.033 553.233 L155.39 553.233 L155.39 557.168 L141.316 557.168 L141.316 565.64 Q142.334 565.293 143.353 565.131 Q144.371 564.946 145.39 564.946 Q151.177 564.946 154.556 568.117 Q157.936 571.288 157.936 576.705 Q157.936 582.284 154.464 585.386 Q150.992 588.464 144.672 588.464 Q142.496 588.464 140.228 588.094 Q137.982 587.724 135.575 586.983 L135.575 582.284 Q137.658 583.418 139.881 583.974 Q142.103 584.529 144.58 584.529 Q148.584 584.529 150.922 582.423 Q153.26 580.316 153.26 576.705 Q153.26 573.094 150.922 570.988 Q148.584 568.881 144.58 568.881 Q142.705 568.881 140.83 569.298 Q138.978 569.714 137.033 570.594 L137.033 553.233 Z" fill="#000000" fill-rule="nonzero" fill-opacity="1" /><path clip-path="url(#clip730)" d="M100.76 321.515 Q97.1493 321.515 95.3206 325.08 Q93.515 328.622 93.515 335.751 Q93.515 342.858 95.3206 346.423 Q97.1493 349.964 100.76 349.964 Q104.395 349.964 106.2 346.423 Q108.029 342.858 108.029 335.751 Q108.029 328.622 106.2 325.08 Q104.395 321.515 100.76 321.515 M100.76 317.812 Q106.571 317.812 109.626 322.418 Q112.705 327.002 112.705 335.751 Q112.705 344.478 109.626 349.085 Q106.571 353.668 100.76 353.668 Q94.9502 353.668 91.8715 349.085 Q88.816 344.478 88.816 335.751 Q88.816 327.002 91.8715 322.418 Q94.9502 317.812 100.76 317.812 Z" fill="#000000" fill-rule="nonzero" fill-opacity="1" /><path clip-path="url(#clip730)" d="M120.922 347.117 L125.807 347.117 L125.807 352.997 L120.922 352.997 L120.922 347.117 Z" fill="#000000" fill-rule="nonzero" fill-opacity="1" /><path clip-path="url(#clip730)" d="M145.992 321.515 Q142.381 321.515 140.552 325.08 Q138.746 328.622 138.746 335.751 Q138.746 342.858 140.552 346.423 Q142.381 349.964 145.992 349.964 Q149.626 349.964 151.431 346.423 Q153.26 342.858 153.26 335.751 Q153.26 328.622 151.431 325.08 Q149.626 321.515 145.992 321.515 M145.992 317.812 Q151.802 317.812 154.857 322.418 Q157.936 327.002 157.936 335.751 Q157.936 344.478 154.857 349.085 Q151.802 353.668 145.992 353.668 Q140.181 353.668 137.103 349.085 Q134.047 344.478 134.047 335.751 Q134.047 327.002 137.103 322.418 Q140.181 317.812 145.992 317.812 Z" fill="#000000" fill-rule="nonzero" fill-opacity="1" /><path clip-path="url(#clip730)" d="M101.756 86.7192 Q98.1447 86.7192 96.316 90.284 Q94.5104 93.8256 94.5104 100.955 Q94.5104 108.062 96.316 111.626 Q98.1447 115.168 101.756 115.168 Q105.39 115.168 107.196 111.626 Q109.024 108.062 109.024 100.955 Q109.024 93.8256 107.196 90.284 Q105.39 86.7192 101.756 86.7192 M101.756 83.0155 Q107.566 83.0155 110.621 87.622 Q113.7 92.2053 113.7 100.955 Q113.7 109.682 110.621 114.288 Q107.566 118.872 101.756 118.872 Q95.9456 118.872 92.8669 114.288 Q89.8114 109.682 89.8114 100.955 Q89.8114 92.2053 92.8669 87.622 Q95.9456 83.0155 101.756 83.0155 Z" fill="#000000" fill-rule="nonzero" fill-opacity="1" /><path clip-path="url(#clip730)" d="M121.918 112.321 L126.802 112.321 L126.802 118.201 L121.918 118.201 L121.918 112.321 Z" fill="#000000" fill-rule="nonzero" fill-opacity="1" /><path clip-path="url(#clip730)" d="M137.033 83.6405 L155.39 83.6405 L155.39 87.5757 L141.316 87.5757 L141.316 96.0479 Q142.334 95.7006 143.353 95.5386 Q144.371 95.3534 145.39 95.3534 Q151.177 95.3534 154.556 98.5247 Q157.936 101.696 157.936 107.113 Q157.936 112.691 154.464 115.793 Q150.992 118.872 144.672 118.872 Q142.496 118.872 140.228 118.501 Q137.982 118.131 135.575 117.39 L135.575 112.691 Q137.658 113.826 139.881 114.381 Q142.103 114.937 144.58 114.937 Q148.584 114.937 150.922 112.83 Q153.26 110.724 153.26 107.113 Q153.26 103.502 150.922 101.395 Q148.584 99.2886 144.58 99.2886 Q142.705 99.2886 140.83 99.7052 Q138.978 100.122 137.033 101.002 L137.033 83.6405 Z" fill="#000000" fill-rule="nonzero" fill-opacity="1" /><polyline clip-path="url(#clip731)" style="stroke:#009af9; stroke-linecap:round; stroke-linejoin:round; stroke-width:4; stroke-opacity:1; fill:none" points="193.936,335.717 196.097,332.824 198.258,329.97 200.419,327.153 202.58,324.374 204.741,321.632 206.902,318.926 209.063,316.256 211.224,313.621 213.385,311.021 215.546,308.456 217.707,305.925 219.868,303.427 222.029,300.963 224.19,298.531 226.351,296.131 228.512,293.763 230.673,291.427 232.834,289.121 234.995,286.846 237.156,284.602 239.317,282.387 241.478,280.201 243.639,278.044 245.8,275.916 247.961,273.817 250.122,271.745 252.282,269.7 254.443,267.683 256.604,265.692 258.765,263.728 260.926,261.789 263.087,259.877 265.248,257.99 267.409,256.128 269.57,254.29 271.731,252.477 273.892,250.688 276.053,248.923 278.214,247.181 280.375,245.462 282.536,243.766 284.697,242.092 286.858,240.441 289.019,238.811 291.18,237.203 293.341,235.617 295.502,234.051 297.663,232.506 299.824,230.982 301.985,229.478 304.146,227.994 306.307,226.529 308.468,225.084 310.629,223.658 312.79,222.251 314.951,220.863 317.112,219.493 319.273,218.141 321.434,216.807 323.595,215.491 325.756,214.193 327.917,212.911 330.078,211.646 332.239,210.399 334.4,209.167 336.561,207.953 338.722,206.754 340.883,205.571 343.044,204.404 345.205,203.252 347.366,202.116 349.527,200.994 351.688,199.888 353.849,198.796 356.01,197.719 358.171,196.655 360.332,195.606 362.493,194.571 364.653,193.55 366.814,192.542 368.975,191.548 371.136,190.567 373.297,189.598 375.458,188.643 377.619,187.7 379.78,186.759 381.941,185.772 384.102,184.744 386.263,183.691 388.424,182.628 390.585,181.568 392.746,180.523 394.907,179.504 397.068,178.521 399.229,177.584 401.39,176.701 403.551,175.878 405.712,175.124 407.873,174.441 410.034,173.836 412.195,173.31 414.356,172.866 416.517,172.506 418.678,172.23 420.839,172.036 423,171.924 425.161,171.889 427.322,171.93 429.483,172.04 431.644,172.214 433.805,172.445 435.966,172.726 438.127,173.048 440.288,173.401 442.449,173.773 444.61,174.155 446.771,174.532 448.932,174.89 451.093,175.216 453.254,175.499 455.415,175.769 457.576,176.035 459.737,176.298 461.898,176.558 464.059,176.814 466.22,177.066 468.381,177.316 470.542,177.561 472.703,177.804 474.864,178.044 477.024,178.28 479.185,178.513 481.346,178.743 483.507,178.97 485.668,179.194 487.829,179.415 489.99,179.633 492.151,179.849 494.312,180.061 496.473,180.271 498.634,180.477 500.795,180.681 502.956,180.883 505.117,181.081 507.278,181.277 509.439,181.471 511.6,181.662 513.761,181.85 515.922,182.036 518.083,182.219 520.244,182.4 522.405,182.579 524.566,182.755 526.727,182.929 528.888,183.1 531.049,183.27 533.21,183.437 535.371,183.601 537.532,183.764 539.693,183.925 541.854,184.083 544.015,184.239 546.176,184.393 548.337,184.545 550.498,184.695 552.659,184.844 554.82,184.99 556.981,185.134 559.142,185.276 561.303,185.417 563.464,185.555 565.625,185.692 567.786,185.827 569.947,185.96 572.108,186.091 574.269,186.221 576.43,186.349 578.591,186.475 580.752,186.6 582.913,186.722 585.074,186.844 587.235,186.963 589.396,187.081 591.556,187.198 593.717,187.313 595.878,187.426 598.039,187.538 600.2,187.648 602.361,187.757 604.522,187.865 606.683,187.971 608.844,188.076 611.005,188.179 613.166,188.281 615.327,188.382 617.488,188.481 619.649,188.579 621.81,188.675 623.971,188.865 626.132,189.544 628.293,190.705 630.454,192.294 632.615,194.261 634.776,196.558 636.937,199.136 639.098,201.955 641.259,204.971 643.42,208.148 645.581,211.45 647.742,214.844 649.903,218.3 652.064,221.79 654.225,225.289 656.386,228.775 658.547,232.227 660.708,235.63 662.869,238.967 665.03,242.229 667.191,245.404 669.352,248.488 671.513,251.475 673.674,254.365 675.835,257.158 677.996,259.859 680.157,262.475 682.318,265.014 684.479,267.488 686.64,269.912 688.801,272.303 690.962,274.681 693.123,277.067 695.284,279.479 697.445,281.869 699.606,284.228 701.767,286.556 703.927,288.853 706.088,291.119 708.249,293.355 710.41,295.562 712.571,297.739 714.732,299.888 716.893,302.008 719.054,304.1 721.215,306.164 723.376,308.201 725.537,310.211 727.698,312.194 729.859,314.151 732.02,316.082 734.181,317.987 736.342,319.868 738.503,321.723 740.664,323.554 742.825,325.36 744.986,327.143 747.147,328.902 749.308,330.637 751.469,332.35 753.63,334.039 755.791,335.707 757.952,337.352 760.113,338.976 762.274,340.577 764.435,342.158 766.596,343.718 768.757,345.257 770.918,346.775 773.079,348.273 775.24,349.752 777.401,351.211 779.562,352.65 781.723,354.07 783.884,355.472 786.045,356.855 788.206,358.22 790.367,359.566 792.528,360.895 794.689,362.206 796.85,363.499 799.011,364.776 801.172,366.036 803.333,367.279 805.494,368.505 807.655,369.715 809.816,370.91 811.977,372.088 814.138,373.251 816.298,374.398 818.459,375.53 820.62,376.648 822.781,377.75 824.942,378.838 827.103,379.911 829.264,380.97 831.425,382.015 833.586,383.046 835.747,384.064 837.908,385.068 840.069,386.124 842.23,388.375 844.391,391.981 846.552,396.631 848.713,402.045 850.874,407.979 853.035,414.222 855.196,420.596 857.357,426.957 859.518,433.196 861.679,439.236 863.84,445.035 866.001,450.583 868.162,455.905 870.323,461.059 872.484,466.138 874.645,471.262 876.806,476.384 878.967,481.439 881.128,486.426 883.289,491.347 885.45,496.203 887.611,500.995 889.772,505.723 891.933,510.388 894.094,514.992 896.255,519.534 898.416,524.017 900.577,528.44 902.738,532.804 904.899,537.11 907.06,541.36 909.221,545.553 911.382,549.69 913.543,553.773 915.704,557.801 917.865,561.776 920.026,565.698 922.187,569.568 924.348,573.387 926.509,577.155 928.669,580.873 930.83,584.542 932.991,588.162 935.152,591.735 937.313,595.26 939.474,598.738 941.635,602.17 943.796,605.556 945.957,608.898 948.118,612.195 950.279,615.449 952.44,618.659 954.601,621.827 956.762,624.953 958.923,628.038 961.084,631.081 963.245,634.085 965.406,637.048 967.567,639.972 969.728,642.858 971.889,645.705 974.05,648.515 976.211,651.287 978.372,654.022 980.533,656.722 982.694,659.385 984.855,662.013 987.016,664.606 989.177,667.165 991.338,669.69 993.499,672.181 995.66,674.64 997.821,677.066 999.982,679.459 1002.14,681.821 1004.3,684.152 1006.46,686.451 1008.63,688.721 1010.79,690.96 1012.95,693.169 1015.11,695.349 1017.27,697.501 1019.43,699.623 1021.59,701.718 1023.75,703.785 1025.91,705.824 1028.07,707.836 1030.24,709.822 1032.4,711.782 1034.56,713.715 1036.72,715.623 1038.88,717.505 1041.04,719.363 1043.2,721.781 1045.36,724.888 1047.52,727.63 1049.68,729.227 1051.85,729.19 1054.01,727.317 1056.17,723.693 1058.33,718.691 1060.49,712.973 1062.65,707.476 1064.81,702.355 1066.97,697.302 1069.13,692.316 1071.29,687.396 1073.46,682.541 1075.62,677.751 1077.78,673.024 1079.94,668.36 1082.1,663.757 1084.26,659.216 1086.42,654.734 1088.58,650.312 1090.74,645.949 1092.9,641.644 1095.07,637.396 1097.23,633.204 1099.39,629.067 1101.55,624.986 1103.71,620.959 1105.87,616.985 1108.03,613.064 1110.19,609.195 1112.35,605.377 1114.51,601.609 1116.67,597.892 1118.84,594.224 1121,590.605 1123.16,587.034 1125.32,583.51 1127.48,580.032 1129.64,576.601 1131.8,573.215 1133.96,569.874 1136.12,566.578 1138.28,563.325 1140.45,560.115 1142.61,556.948 1144.77,553.823 1146.93,550.739 1149.09,547.696 1151.25,544.693 1153.41,541.73 1155.57,538.807 1157.73,535.922 1159.89,533.075 1162.06,530.267 1164.22,527.495 1166.38,524.76 1168.54,522.062 1170.7,519.399 1172.86,516.772 1175.02,514.179 1177.18,511.621 1179.34,509.097 1181.5,506.606 1183.67,504.148 1185.83,501.723 1187.99,499.33 1190.15,496.968 1192.31,494.638 1194.47,492.339 1196.63,490.071 1198.79,487.832 1200.95,485.623 1203.11,483.443 1205.28,481.293 1207.44,479.17 1209.6,477.076 1211.76,475.01 1213.92,472.971 1216.08,470.959 1218.24,468.974 1220.4,467.015 1222.56,465.082 1224.72,463.175 1226.88,461.293 1229.05,459.436 1231.21,457.603 1233.37,455.795 1235.53,454.011 1237.69,452.251 1239.85,450.513 1242.01,448.799 1244.17,447.108 1246.33,445.439 1248.49,443.792 1250.66,442.167 1252.82,440.563 1254.98,438.981 1257.14,437.42 1259.3,435.892 1261.46,434.623 1263.62,433.475 1265.78,432.207 1267.94,430.642 1270.1,428.672 1272.27,426.255 1274.43,423.415 1276.59,420.242 1278.75,416.896 1280.91,413.6 1283.07,410.453 1285.23,407.348 1287.39,404.284 1289.55,401.261 1291.71,398.278 1293.88,395.334 1296.04,392.43 1298.2,389.564 1300.36,386.736 1302.52,383.945 1304.68,381.192 1306.84,378.475 1309,375.794 1311.16,373.148 1313.32,370.538 1315.49,367.962 1317.65,365.421 1319.81,362.913 1321.97,360.438 1324.13,357.997 1326.29,355.587 1328.45,353.21 1330.61,350.864 1332.77,348.549 1334.93,346.265 1337.09,344.011 1339.26,341.787 1341.42,339.592 1343.58,337.427 1345.74,335.29 1347.9,333.182 1350.06,331.101 1352.22,329.048 1354.38,327.023 1356.54,325.024 1358.7,323.052 1360.87,321.106 1363.03,319.185 1365.19,317.29 1367.35,315.421 1369.51,313.576 1371.67,311.755 1373.83,309.959 1375.99,308.186 1378.15,306.437 1380.31,304.711 1382.48,303.008 1384.64,301.328 1386.8,299.67 1388.96,298.034 1391.12,296.419 1393.28,294.826 1395.44,293.254 1397.6,291.703 1399.76,290.172 1401.92,288.662 1404.09,287.172 1406.25,285.701 1408.41,284.25 1410.57,282.819 1412.73,281.406 1414.89,280.012 1417.05,278.636 1419.21,277.279 1421.37,275.94 1423.53,274.618 1425.7,273.314 1427.86,272.027 1430.02,270.758 1432.18,269.505 1434.34,268.269 1436.5,267.049 1438.66,265.845 1440.82,264.658 1442.98,263.486 1445.14,262.329 1447.3,261.188 1449.47,260.062 1451.63,258.951 1453.79,257.855 1455.95,256.773 1458.11,255.706 1460.27,254.653 1462.43,253.613 1464.59,252.588 1466.75,251.576 1468.91,250.577 1471.08,249.592 1473.24,248.62 1475.4,247.66 1477.56,246.714 1479.72,245.78 1481.88,244.858 1484.04,243.949 1486.2,243.051 1488.36,242.171 1490.52,241.655 1492.69,241.673 1494.85,242.159 1497.01,243.054 1499.17,244.301 1501.33,245.847 1503.49,247.642 1505.65,249.64 1507.81,251.797 1509.97,254.074 1512.13,256.435 1514.3,258.847 1516.46,261.281 1518.62,263.712 1520.78,266.118 1522.94,268.478 1525.1,270.778 1527.26,273.007 1529.42,275.154 1531.58,277.217 1533.74,279.192 1535.91,281.082 1538.07,282.891 1540.23,284.63 1542.39,286.309 1544.55,287.945 1546.71,289.556 1548.87,291.166 1551.03,292.799 1553.19,294.461 1555.35,296.103 1557.51,297.724 1559.68,299.323 1561.84,300.901 1564,302.457 1566.16,303.994 1568.32,305.51 1570.48,307.005 1572.64,308.481 1574.8,309.938 1576.96,311.375 1579.12,312.793 1581.29,314.192 1583.45,315.573 1585.61,316.935 1587.77,318.279 1589.93,319.606 1592.09,320.915 1594.25,322.206 1596.41,323.481 1598.57,324.739 1600.73,325.979 1602.9,327.204 1605.06,328.412 1607.22,329.604 1609.38,330.781 1611.54,331.941 1613.7,333.087 1615.86,334.217 1618.02,335.332 1620.18,336.432 1622.34,337.518 1624.51,338.59 1626.67,339.647 1628.83,340.69 1630.99,341.719 1633.15,342.735 1635.31,343.737 1637.47,344.726 1639.63,345.701 1641.79,346.664 1643.95,347.614 1646.12,348.552 1648.28,349.477 1650.44,350.39 1652.6,351.29 1654.76,352.179 1656.92,353.056 1659.08,353.921 1661.24,354.775 1663.4,355.618 1665.56,356.449 1667.72,357.27 1669.89,358.079 1672.05,358.878 1674.21,359.666 1676.37,360.444 1678.53,361.211 1680.69,361.969 1682.85,362.716 1685.01,363.453 1687.17,364.181 1689.33,364.899 1691.5,365.607 1693.66,366.306 1695.82,366.996 1697.98,367.676 1700.14,368.486 1702.3,369.985 1704.46,372.157 1706.62,374.917 1708.78,378.186 1710.94,381.889 1713.11,385.956 1715.27,390.321 1717.43,394.923 1719.59,399.706 1721.75,404.618 1723.91,409.61 1726.07,414.641 1728.23,419.673 1730.39,424.671 1732.55,429.606 1734.72,434.455 1736.88,439.197 1739.04,443.817 1741.2,448.304 1743.36,452.652 1745.52,456.86 1747.68,460.93 1749.84,464.87 1752,468.693 1754.16,472.415 1756.33,476.058 1758.49,479.647 1760.65,483.213 1762.81,486.792 1764.97,490.397 1767.13,493.961 1769.29,497.479 1771.45,500.949 1773.61,504.374 1775.77,507.753 1777.93,511.088 1780.1,514.378 1782.26,517.625 1784.42,520.829 1786.58,523.99 1788.74,527.109 1790.9,530.187 1793.06,533.224 1795.22,536.221 1797.38,539.178 1799.54,542.096 1801.71,544.975 1803.87,547.817 1806.03,550.62 1808.19,553.387 1810.35,556.117 1812.51,558.811 1814.67,561.469 1816.83,564.091 1818.99,566.679 1821.15,569.233 1823.32,571.753 1825.48,574.239 1827.64,576.693 1829.8,579.114 1831.96,581.502 1834.12,583.859 1836.28,586.185 1838.44,588.479 1840.6,590.744 1842.76,592.978 1844.93,595.182 1847.09,597.358 1849.25,599.504 1851.41,601.622 1853.57,603.712 1855.73,605.774 1857.89,607.808 1860.05,609.816 1862.21,611.797 1864.37,613.752 1866.54,615.681 1868.7,617.584 1870.86,619.462 1873.02,621.315 1875.18,623.144 1877.34,624.948 1879.5,626.728 1881.66,628.485 1883.82,630.219 1885.98,631.93 1888.15,633.618 1890.31,635.283 1892.47,636.927 1894.63,638.549 1896.79,640.149 1898.95,641.729 1901.11,643.287 1903.27,644.825 1905.43,646.342 1907.59,647.839 1909.75,649.402 1911.92,652.316 1914.08,654.588 1916.24,654.104 1918.4,650.1 1920.56,643.164 1922.72,635.237 1924.88,627.955 1927.04,620.772 1929.2,613.684 1931.36,606.691 1933.53,599.79 1935.69,592.98 1937.85,586.261 1940.01,579.631 1942.17,573.089 1944.33,566.633 1946.49,560.263 1948.65,553.978 1950.81,547.776 1952.97,541.656 1955.14,535.618 1957.3,529.659 1959.46,523.78 1961.62,517.978 1963.78,512.253 1965.94,506.605 1968.1,501.031 1970.26,495.531 1972.42,490.104 1974.58,484.749 1976.75,479.465 1978.91,474.251 1981.07,469.106 1983.23,464.029 1985.39,459.019 1987.55,454.076 1989.71,449.199 1991.87,444.386 1994.03,439.637 1996.19,434.951 1998.36,430.327 2000.52,425.764 2002.68,421.262 2004.84,416.82 2007,412.436 2009.16,408.111 2011.32,403.843 2013.48,399.631 2015.64,395.475 2017.8,391.375 2019.96,387.329 2022.13,383.336 2024.29,379.397 2026.45,375.509 2028.61,371.673 2030.77,367.888 2032.93,364.154 2035.09,360.468 2037.25,356.832 2039.41,353.244 2041.57,349.703 2043.74,346.209 2045.9,342.762 2048.06,339.36 2050.22,336.003 2052.38,332.691 2054.54,329.423 2056.7,326.198 2058.86,323.016 2061.02,319.876 2063.18,316.778 2065.35,313.72 2067.51,310.704 2069.67,307.727 2071.83,304.79 2073.99,301.892 2076.15,299.032 2078.31,296.21 2080.47,293.426 2082.63,290.678 2084.79,287.967 2086.96,285.292 2089.12,282.652 2091.28,280.048 2093.44,277.477 2095.6,274.941 2097.76,272.439 2099.92,269.969 2102.08,267.533 2104.24,265.128 2106.4,262.756 2108.57,260.415 2110.73,258.105 2112.89,255.826 2115.05,253.577 2117.21,251.357 2119.37,249.168 2121.53,247.007 2123.69,244.875 2125.85,242.771 2128.01,240.695 2130.17,238.646 2132.34,236.625 2134.5,234.63 2136.66,234.14 2138.82,236.899 2140.98,242.48 2143.14,250.467 2145.3,260.472 2147.46,272.134 2149.62,285.121 2151.78,299.127 2153.95,313.873 2156.11,329.107 2158.27,344.607 2160.43,360.176 2162.59,375.643 2164.75,390.868 2166.91,405.736 2169.07,420.16 2171.23,434.079 2173.39,447.461 2175.56,460.301 2177.72,472.621 2179.88,484.47 2182.04,495.925 2184.2,507.089 2186.36,518.095 2188.52,529.101 2190.68,540.284 2192.84,551.474 2195,562.514 2197.17,573.409 2199.33,584.159 2201.49,594.766 2203.65,605.233 2205.81,615.561 2207.97,625.752 2210.13,635.808 2212.29,645.731 2214.45,655.522 2216.61,665.183 2218.78,674.717 2220.94,684.123 2223.1,693.406 2225.26,702.565 2227.42,711.603 2229.58,720.521 2231.74,729.321 2233.9,738.004 2236.06,746.573 2238.22,755.027 2240.38,763.37 2242.55,771.602 2244.71,779.725 2246.87,787.74 2249.03,795.649 2251.19,803.453 2253.35,811.153 2255.51,818.751 2257.67,826.249 2259.83,833.647 2261.99,840.946 2264.16,848.149 2266.32,855.256 2268.48,862.269 2270.64,869.189 2272.8,876.017 2274.96,882.755 2277.12,889.403 2279.28,895.963 2281.44,902.436 2283.6,908.823 2285.77,915.126 2287.93,921.345 2290.09,927.482 2292.25,933.537 2294.41,939.512 2296.57,945.408 2298.73,951.226 2300.89,956.967 2303.05,962.631 2305.21,968.221 2307.38,973.737 2309.54,979.179 2311.7,984.549 2313.86,989.849 2316.02,995.077 2318.18,1000.24 2320.34,1005.33 2322.5,1010.35 2324.66,1015.31 2326.82,1020.2 2328.99,1025.03 2331.15,1029.79 2333.31,1034.49 2335.47,1039.12 2337.63,1043.7 2339.79,1048.22 2341.95,1052.67 2344.11,1057.07 2346.27,1061.4 2348.43,1065.68 2350.59,1069.91 2352.76,1074.07 "/>
<polyline clip-path="url(#clip731)" style="stroke:#e26f46; stroke-linecap:round; stroke-linejoin:round; stroke-width:4; stroke-opacity:1; fill:none" points="193.936,117.534 196.097,117.534 198.258,117.534 200.419,117.534 202.58,117.534 204.741,117.534 206.902,117.534 209.063,117.534 211.224,117.534 213.385,117.534 215.546,117.534 217.707,117.534 219.868,117.534 222.029,117.534 224.19,117.534 226.351,117.534 228.512,117.534 230.673,117.534 232.834,117.534 234.995,117.534 237.156,117.534 239.317,117.534 241.478,117.534 243.639,117.534 245.8,117.534 247.961,117.534 250.122,117.534 252.282,117.534 254.443,117.534 256.604,117.534 258.765,117.534 260.926,117.534 263.087,117.534 265.248,117.534 267.409,117.534 269.57,117.534 271.731,117.534 273.892,117.534 276.053,117.534 278.214,117.534 280.375,117.534 282.536,117.534 284.697,117.534 286.858,117.534 289.019,117.534 291.18,117.534 293.341,117.534 295.502,117.534 297.663,117.534 299.824,117.534 301.985,117.534 304.146,117.534 306.307,117.534 308.468,117.534 310.629,117.534 312.79,117.534 314.951,117.534 317.112,117.534 319.273,117.534 321.434,117.534 323.595,117.534 325.756,117.534 327.917,117.534 330.078,117.534 332.239,117.534 334.4,117.534 336.561,117.534 338.722,117.534 340.883,117.534 343.044,117.534 345.205,117.534 347.366,117.534 349.527,117.534 351.688,117.534 353.849,117.534 356.01,117.534 358.171,117.534 360.332,117.534 362.493,117.534 364.653,117.534 366.814,117.534 368.975,117.534 371.136,117.534 373.297,117.534 375.458,117.534 377.619,117.534 379.78,117.534 381.941,117.534 384.102,117.534 386.263,117.534 388.424,117.534 390.585,117.534 392.746,117.534 394.907,117.534 397.068,117.534 399.229,117.534 401.39,117.534 403.551,117.534 405.712,117.534 407.873,117.534 410.034,195.867 412.195,195.867 414.356,195.867 416.517,195.867 418.678,195.867 420.839,195.867 423,195.867 425.161,195.867 427.322,195.867 429.483,195.867 431.644,195.867 433.805,195.867 435.966,195.867 438.127,195.867 440.288,195.867 442.449,195.867 444.61,195.867 446.771,195.867 448.932,195.867 451.093,195.867 453.254,195.867 455.415,195.867 457.576,195.867 459.737,195.867 461.898,195.867 464.059,195.867 466.22,195.867 468.381,195.867 470.542,195.867 472.703,195.867 474.864,195.867 477.024,195.867 479.185,195.867 481.346,195.867 483.507,195.867 485.668,195.867 487.829,195.867 489.99,195.867 492.151,195.867 494.312,195.867 496.473,195.867 498.634,195.867 500.795,195.867 502.956,195.867 505.117,195.867 507.278,195.867 509.439,195.867 511.6,195.867 513.761,195.867 515.922,195.867 518.083,195.867 520.244,195.867 522.405,195.867 524.566,195.867 526.727,195.867 528.888,195.867 531.049,195.867 533.21,195.867 535.371,195.867 537.532,195.867 539.693,195.867 541.854,195.867 544.015,195.867 546.176,195.867 548.337,195.867 550.498,195.867 552.659,195.867 554.82,195.867 556.981,195.867 559.142,195.867 561.303,195.867 563.464,195.867 565.625,195.867 567.786,195.867 569.947,195.867 572.108,195.867 574.269,195.867 576.43,195.867 578.591,195.867 580.752,195.867 582.913,195.867 585.074,195.867 587.235,195.867 589.396,195.867 591.556,195.867 593.717,195.867 595.878,195.867 598.039,195.867 600.2,195.867 602.361,195.867 604.522,195.867 606.683,195.867 608.844,195.867 611.005,195.867 613.166,195.867 615.327,195.867 617.488,195.867 619.649,195.867 621.81,195.867 623.971,195.867 626.132,459.794 628.293,459.794 630.454,459.794 632.615,459.794 634.776,459.794 636.937,459.794 639.098,459.794 641.259,459.794 643.42,459.794 645.581,459.794 647.742,459.794 649.903,459.794 652.064,459.794 654.225,459.794 656.386,459.794 658.547,459.794 660.708,459.794 662.869,459.794 665.03,459.794 667.191,459.794 669.352,459.794 671.513,459.794 673.674,459.794 675.835,459.794 677.996,459.794 680.157,459.794 682.318,459.794 684.479,459.794 686.64,459.794 688.801,459.794 690.962,459.794 693.123,459.794 695.284,459.794 697.445,459.794 699.606,459.794 701.767,459.794 703.927,459.794 706.088,459.794 708.249,459.794 710.41,459.794 712.571,459.794 714.732,459.794 716.893,459.794 719.054,459.794 721.215,459.794 723.376,459.794 725.537,459.794 727.698,459.794 729.859,459.794 732.02,459.794 734.181,459.794 736.342,459.794 738.503,459.794 740.664,459.794 742.825,459.794 744.986,459.794 747.147,459.794 749.308,459.794 751.469,459.794 753.63,459.794 755.791,459.794 757.952,459.794 760.113,459.794 762.274,459.794 764.435,459.794 766.596,459.794 768.757,459.794 770.918,459.794 773.079,459.794 775.24,459.794 777.401,459.794 779.562,459.794 781.723,459.794 783.884,459.794 786.045,459.794 788.206,459.794 790.367,459.794 792.528,459.794 794.689,459.794 796.85,459.794 799.011,459.794 801.172,459.794 803.333,459.794 805.494,459.794 807.655,459.794 809.816,459.794 811.977,459.794 814.138,459.794 816.298,459.794 818.459,459.794 820.62,459.794 822.781,459.794 824.942,459.794 827.103,459.794 829.264,459.794 831.425,459.794 833.586,459.794 835.747,459.794 837.908,459.794 840.069,459.794 842.23,857.61 844.391,857.61 846.552,857.61 848.713,857.61 850.874,857.61 853.035,857.61 855.196,857.61 857.357,857.61 859.518,857.61 861.679,857.61 863.84,857.61 866.001,857.61 868.162,857.61 870.323,857.61 872.484,857.61 874.645,857.61 876.806,857.61 878.967,857.61 881.128,857.61 883.289,857.61 885.45,857.61 887.611,857.61 889.772,857.61 891.933,857.61 894.094,857.61 896.255,857.61 898.416,857.61 900.577,857.61 902.738,857.61 904.899,857.61 907.06,857.61 909.221,857.61 911.382,857.61 913.543,857.61 915.704,857.61 917.865,857.61 920.026,857.61 922.187,857.61 924.348,857.61 926.509,857.61 928.669,857.61 930.83,857.61 932.991,857.61 935.152,857.61 937.313,857.61 939.474,857.61 941.635,857.61 943.796,857.61 945.957,857.61 948.118,857.61 950.279,857.61 952.44,857.61 954.601,857.61 956.762,857.61 958.923,857.61 961.084,857.61 963.245,857.61 965.406,857.61 967.567,857.61 969.728,857.61 971.889,857.61 974.05,857.61 976.211,857.61 978.372,857.61 980.533,857.61 982.694,857.61 984.855,857.61 987.016,857.61 989.177,857.61 991.338,857.61 993.499,857.61 995.66,857.61 997.821,857.61 999.982,857.61 1002.14,857.61 1004.3,857.61 1006.46,857.61 1008.63,857.61 1010.79,857.61 1012.95,857.61 1015.11,857.61 1017.27,857.61 1019.43,857.61 1021.59,857.61 1023.75,857.61 1025.91,857.61 1028.07,857.61 1030.24,857.61 1032.4,857.61 1034.56,857.61 1036.72,857.61 1038.88,857.61 1041.04,857.61 1043.2,857.61 1045.36,857.61 1047.52,857.61 1049.68,857.61 1051.85,857.61 1054.01,857.61 1056.17,857.61 1058.33,321.222 1060.49,321.222 1062.65,321.222 1064.81,321.222 1066.97,321.222 1069.13,321.222 1071.29,321.222 1073.46,321.222 1075.62,321.222 1077.78,321.222 1079.94,321.222 1082.1,321.222 1084.26,321.222 1086.42,321.222 1088.58,321.222 1090.74,321.222 1092.9,321.222 1095.07,321.222 1097.23,321.222 1099.39,321.222 1101.55,321.222 1103.71,321.222 1105.87,321.222 1108.03,321.222 1110.19,321.222 1112.35,321.222 1114.51,321.222 1116.67,321.222 1118.84,321.222 1121,321.222 1123.16,321.222 1125.32,321.222 1127.48,321.222 1129.64,321.222 1131.8,321.222 1133.96,321.222 1136.12,321.222 1138.28,321.222 1140.45,321.222 1142.61,321.222 1144.77,321.222 1146.93,321.222 1149.09,321.222 1151.25,321.222 1153.41,321.222 1155.57,321.222 1157.73,321.222 1159.89,321.222 1162.06,321.222 1164.22,321.222 1166.38,321.222 1168.54,321.222 1170.7,321.222 1172.86,321.222 1175.02,321.222 1177.18,321.222 1179.34,321.222 1181.5,321.222 1183.67,321.222 1185.83,321.222 1187.99,321.222 1190.15,321.222 1192.31,321.222 1194.47,321.222 1196.63,321.222 1198.79,321.222 1200.95,321.222 1203.11,321.222 1205.28,321.222 1207.44,321.222 1209.6,321.222 1211.76,321.222 1213.92,321.222 1216.08,321.222 1218.24,321.222 1220.4,321.222 1222.56,321.222 1224.72,321.222 1226.88,321.222 1229.05,321.222 1231.21,321.222 1233.37,321.222 1235.53,321.222 1237.69,321.222 1239.85,321.222 1242.01,321.222 1244.17,321.222 1246.33,321.222 1248.49,321.222 1250.66,321.222 1252.82,321.222 1254.98,321.222 1257.14,321.222 1259.3,321.222 1261.46,321.222 1263.62,321.222 1265.78,321.222 1267.94,321.222 1270.1,321.222 1272.27,321.222 1274.43,176.261 1276.59,176.261 1278.75,176.261 1280.91,176.261 1283.07,176.261 1285.23,176.261 1287.39,176.261 1289.55,176.261 1291.71,176.261 1293.88,176.261 1296.04,176.261 1298.2,176.261 1300.36,176.261 1302.52,176.261 1304.68,176.261 1306.84,176.261 1309,176.261 1311.16,176.261 1313.32,176.261 1315.49,176.261 1317.65,176.261 1319.81,176.261 1321.97,176.261 1324.13,176.261 1326.29,176.261 1328.45,176.261 1330.61,176.261 1332.77,176.261 1334.93,176.261 1337.09,176.261 1339.26,176.261 1341.42,176.261 1343.58,176.261 1345.74,176.261 1347.9,176.261 1350.06,176.261 1352.22,176.261 1354.38,176.261 1356.54,176.261 1358.7,176.261 1360.87,176.261 1363.03,176.261 1365.19,176.261 1367.35,176.261 1369.51,176.261 1371.67,176.261 1373.83,176.261 1375.99,176.261 1378.15,176.261 1380.31,176.261 1382.48,176.261 1384.64,176.261 1386.8,176.261 1388.96,176.261 1391.12,176.261 1393.28,176.261 1395.44,176.261 1397.6,176.261 1399.76,176.261 1401.92,176.261 1404.09,176.261 1406.25,176.261 1408.41,176.261 1410.57,176.261 1412.73,176.261 1414.89,176.261 1417.05,176.261 1419.21,176.261 1421.37,176.261 1423.53,176.261 1425.7,176.261 1427.86,176.261 1430.02,176.261 1432.18,176.261 1434.34,176.261 1436.5,176.261 1438.66,176.261 1440.82,176.261 1442.98,176.261 1445.14,176.261 1447.3,176.261 1449.47,176.261 1451.63,176.261 1453.79,176.261 1455.95,176.261 1458.11,176.261 1460.27,176.261 1462.43,176.261 1464.59,176.261 1466.75,176.261 1468.91,176.261 1471.08,176.261 1473.24,176.261 1475.4,176.261 1477.56,176.261 1479.72,176.261 1481.88,176.261 1484.04,176.261 1486.2,176.261 1488.36,176.261 1490.52,418.329 1492.69,418.329 1494.85,418.329 1497.01,418.329 1499.17,418.329 1501.33,418.329 1503.49,418.329 1505.65,418.329 1507.81,418.329 1509.97,418.329 1512.13,418.329 1514.3,418.329 1516.46,418.329 1518.62,418.329 1520.78,418.329 1522.94,418.329 1525.1,418.329 1527.26,418.329 1529.42,418.329 1531.58,418.329 1533.74,418.329 1535.91,418.329 1538.07,418.329 1540.23,418.329 1542.39,418.329 1544.55,418.329 1546.71,418.329 1548.87,418.329 1551.03,418.329 1553.19,418.329 1555.35,418.329 1557.51,418.329 1559.68,418.329 1561.84,418.329 1564,418.329 1566.16,418.329 1568.32,418.329 1570.48,418.329 1572.64,418.329 1574.8,418.329 1576.96,418.329 1579.12,418.329 1581.29,418.329 1583.45,418.329 1585.61,418.329 1587.77,418.329 1589.93,418.329 1592.09,418.329 1594.25,418.329 1596.41,418.329 1598.57,418.329 1600.73,418.329 1602.9,418.329 1605.06,418.329 1607.22,418.329 1609.38,418.329 1611.54,418.329 1613.7,418.329 1615.86,418.329 1618.02,418.329 1620.18,418.329 1622.34,418.329 1624.51,418.329 1626.67,418.329 1628.83,418.329 1630.99,418.329 1633.15,418.329 1635.31,418.329 1637.47,418.329 1639.63,418.329 1641.79,418.329 1643.95,418.329 1646.12,418.329 1648.28,418.329 1650.44,418.329 1652.6,418.329 1654.76,418.329 1656.92,418.329 1659.08,418.329 1661.24,418.329 1663.4,418.329 1665.56,418.329 1667.72,418.329 1669.89,418.329 1672.05,418.329 1674.21,418.329 1676.37,418.329 1678.53,418.329 1680.69,418.329 1682.85,418.329 1685.01,418.329 1687.17,418.329 1689.33,418.329 1691.5,418.329 1693.66,418.329 1695.82,418.329 1697.98,418.329 1700.14,418.329 1702.3,418.329 1704.46,418.329 1706.62,759.263 1708.78,759.263 1710.94,759.263 1713.11,759.263 1715.27,759.263 1717.43,759.263 1719.59,759.263 1721.75,759.263 1723.91,759.263 1726.07,759.263 1728.23,759.263 1730.39,759.263 1732.55,759.263 1734.72,759.263 1736.88,759.263 1739.04,759.263 1741.2,759.263 1743.36,759.263 1745.52,759.263 1747.68,759.263 1749.84,759.263 1752,759.263 1754.16,759.263 1756.33,759.263 1758.49,759.263 1760.65,759.263 1762.81,759.263 1764.97,759.263 1767.13,759.263 1769.29,759.263 1771.45,759.263 1773.61,759.263 1775.77,759.263 1777.93,759.263 1780.1,759.263 1782.26,759.263 1784.42,759.263 1786.58,759.263 1788.74,759.263 1790.9,759.263 1793.06,759.263 1795.22,759.263 1797.38,759.263 1799.54,759.263 1801.71,759.263 1803.87,759.263 1806.03,759.263 1808.19,759.263 1810.35,759.263 1812.51,759.263 1814.67,759.263 1816.83,759.263 1818.99,759.263 1821.15,759.263 1823.32,759.263 1825.48,759.263 1827.64,759.263 1829.8,759.263 1831.96,759.263 1834.12,759.263 1836.28,759.263 1838.44,759.263 1840.6,759.263 1842.76,759.263 1844.93,759.263 1847.09,759.263 1849.25,759.263 1851.41,759.263 1853.57,759.263 1855.73,759.263 1857.89,759.263 1860.05,759.263 1862.21,759.263 1864.37,759.263 1866.54,759.263 1868.7,759.263 1870.86,759.263 1873.02,759.263 1875.18,759.263 1877.34,759.263 1879.5,759.263 1881.66,759.263 1883.82,759.263 1885.98,759.263 1888.15,759.263 1890.31,759.263 1892.47,759.263 1894.63,759.263 1896.79,759.263 1898.95,759.263 1901.11,759.263 1903.27,759.263 1905.43,759.263 1907.59,759.263 1909.75,759.263 1911.92,759.263 1914.08,759.263 1916.24,759.263 1918.4,759.263 1920.56,759.263 1922.72,86.1857 1924.88,86.1857 1927.04,86.1857 1929.2,86.1857 1931.36,86.1857 1933.53,86.1857 1935.69,86.1857 1937.85,86.1857 1940.01,86.1857 1942.17,86.1857 1944.33,86.1857 1946.49,86.1857 1948.65,86.1857 1950.81,86.1857 1952.97,86.1857 1955.14,86.1857 1957.3,86.1857 1959.46,86.1857 1961.62,86.1857 1963.78,86.1857 1965.94,86.1857 1968.1,86.1857 1970.26,86.1857 1972.42,86.1857 1974.58,86.1857 1976.75,86.1857 1978.91,86.1857 1981.07,86.1857 1983.23,86.1857 1985.39,86.1857 1987.55,86.1857 1989.71,86.1857 1991.87,86.1857 1994.03,86.1857 1996.19,86.1857 1998.36,86.1857 2000.52,86.1857 2002.68,86.1857 2004.84,86.1857 2007,86.1857 2009.16,86.1857 2011.32,86.1857 2013.48,86.1857 2015.64,86.1857 2017.8,86.1857 2019.96,86.1857 2022.13,86.1857 2024.29,86.1857 2026.45,86.1857 2028.61,86.1857 2030.77,86.1857 2032.93,86.1857 2035.09,86.1857 2037.25,86.1857 2039.41,86.1857 2041.57,86.1857 2043.74,86.1857 2045.9,86.1857 2048.06,86.1857 2050.22,86.1857 2052.38,86.1857 2054.54,86.1857 2056.7,86.1857 2058.86,86.1857 2061.02,86.1857 2063.18,86.1857 2065.35,86.1857 2067.51,86.1857 2069.67,86.1857 2071.83,86.1857 2073.99,86.1857 2076.15,86.1857 2078.31,86.1857 2080.47,86.1857 2082.63,86.1857 2084.79,86.1857 2086.96,86.1857 2089.12,86.1857 2091.28,86.1857 2093.44,86.1857 2095.6,86.1857 2097.76,86.1857 2099.92,86.1857 2102.08,86.1857 2104.24,86.1857 2106.4,86.1857 2108.57,86.1857 2110.73,86.1857 2112.89,86.1857 2115.05,86.1857 2117.21,86.1857 2119.37,86.1857 2121.53,86.1857 2123.69,86.1857 2125.85,86.1857 2128.01,86.1857 2130.17,86.1857 2132.34,86.1857 2134.5,86.1857 2136.66,86.1857 2138.82,1384.24 2140.98,1384.24 2143.14,1384.24 2145.3,1384.24 2147.46,1384.24 2149.62,1384.24 2151.78,1384.24 2153.95,1384.24 2156.11,1384.24 2158.27,1384.24 2160.43,1384.24 2162.59,1384.24 2164.75,1384.24 2166.91,1384.24 2169.07,1384.24 2171.23,1384.24 2173.39,1384.24 2175.56,1384.24 2177.72,1384.24 2179.88,1384.24 2182.04,1384.24 2184.2,1384.24 2186.36,1384.24 2188.52,1384.24 2190.68,1384.24 2192.84,1384.24 2195,1384.24 2197.17,1384.24 2199.33,1384.24 2201.49,1384.24 2203.65,1384.24 2205.81,1384.24 2207.97,1384.24 2210.13,1384.24 2212.29,1384.24 2214.45,1384.24 2216.61,1384.24 2218.78,1384.24 2220.94,1384.24 2223.1,1384.24 2225.26,1384.24 2227.42,1384.24 2229.58,1384.24 2231.74,1384.24 2233.9,1384.24 2236.06,1384.24 2238.22,1384.24 2240.38,1384.24 2242.55,1384.24 2244.71,1384.24 2246.87,1384.24 2249.03,1384.24 2251.19,1384.24 2253.35,1384.24 2255.51,1384.24 2257.67,1384.24 2259.83,1384.24 2261.99,1384.24 2264.16,1384.24 2266.32,1384.24 2268.48,1384.24 2270.64,1384.24 2272.8,1384.24 2274.96,1384.24 2277.12,1384.24 2279.28,1384.24 2281.44,1384.24 2283.6,1384.24 2285.77,1384.24 2287.93,1384.24 2290.09,1384.24 2292.25,1384.24 2294.41,1384.24 2296.57,1384.24 2298.73,1384.24 2300.89,1384.24 2303.05,1384.24 2305.21,1384.24 2307.38,1384.24 2309.54,1384.24 2311.7,1384.24 2313.86,1384.24 2316.02,1384.24 2318.18,1384.24 2320.34,1384.24 2322.5,1384.24 2324.66,1384.24 2326.82,1384.24 2328.99,1384.24 2331.15,1384.24 2333.31,1384.24 2335.47,1384.24 2337.63,1384.24 2339.79,1384.24 2341.95,1384.24 2344.11,1384.24 2346.27,1384.24 2348.43,1384.24 2350.59,1384.24 2352.76,1384.24 "/>
<path clip-path="url(#clip730)" d="M265.897 1377.32 L506.917 1377.32 L506.917 1221.8 L265.897 1221.8  Z" fill="#ffffff" fill-rule="evenodd" fill-opacity="1"/>
<polyline clip-path="url(#clip730)" style="stroke:#000000; stroke-linecap:round; stroke-linejoin:round; stroke-width:4; stroke-opacity:1; fill:none" points="265.897,1377.32 506.917,1377.32 506.917,1221.8 265.897,1221.8 265.897,1377.32 "/>
<polyline clip-path="url(#clip730)" style="stroke:#009af9; stroke-linecap:round; stroke-linejoin:round; stroke-width:4; stroke-opacity:1; fill:none" points="289.884,1273.64 433.805,1273.64 "/>
<path clip-path="url(#clip730)" d="M482.444 1264.99 L473.069 1277.61 L482.931 1290.92 L477.907 1290.92 L470.361 1280.73 L462.815 1290.92 L457.792 1290.92 L467.861 1277.35 L458.648 1264.99 L463.671 1264.99 L470.546 1274.23 L477.421 1264.99 L482.444 1264.99 Z" fill="#000000" fill-rule="nonzero" fill-opacity="1" /><polyline clip-path="url(#clip730)" style="stroke:#e26f46; stroke-linecap:round; stroke-linejoin:round; stroke-width:4; stroke-opacity:1; fill:none" points="289.884,1325.48 433.805,1325.48 "/>
<path clip-path="url(#clip730)" d="M474.296 1306.74 L474.296 1310.28 L470.222 1310.28 Q467.931 1310.28 467.028 1311.2 Q466.148 1312.13 466.148 1314.54 L466.148 1316.83 L473.162 1316.83 L473.162 1320.14 L466.148 1320.14 L466.148 1342.76 L461.866 1342.76 L461.866 1320.14 L457.792 1320.14 L457.792 1316.83 L461.866 1316.83 L461.866 1315.02 Q461.866 1310.7 463.88 1308.73 Q465.894 1306.74 470.269 1306.74 L474.296 1306.74 Z" fill="#000000" fill-rule="nonzero" fill-opacity="1" /></svg>
