<?xml version="1.0" encoding="utf-8"?>
<svg xmlns="http://www.w3.org/2000/svg" xmlns:xlink="http://www.w3.org/1999/xlink" width="600" height="400" viewBox="0 0 2400 1600">
<defs>
  <clipPath id="clip520">
    <rect x="0" y="0" width="2400" height="1600"/>
  </clipPath>
</defs>
<path clip-path="url(#clip520)" d="M0 1600 L2400 1600 L2400 0 L0 0  Z" fill="#ffffff" fill-rule="evenodd" fill-opacity="1"/>
<defs>
  <clipPath id="clip521">
    <rect x="112" y="47" width="2242" height="1440"/>
  </clipPath>
</defs>
<path clip-path="url(#clip521)" d="M-432.546 2240.44 L-432.546 2004.69 L-152.602 1886.81 L332.276 1954.87 L332.276 2190.62 L52.3315 2308.5 L-432.546 2240.44  Z" fill="#ffffff" fill-rule="evenodd" fill-opacity="1"/>
<polyline clip-path="url(#clip521)" style="stroke:#000000; stroke-linecap:round; stroke-linejoin:round; stroke-width:2; stroke-opacity:0.1; fill:none" points="734.024,1222.63 1149.49,862.825 1149.49,143.224 "/>
<polyline clip-path="url(#clip521)" style="stroke:#000000; stroke-linecap:round; stroke-linejoin:round; stroke-width:2; stroke-opacity:0.1; fill:none" points="855.244,1257.62 1270.71,897.818 1270.71,178.217 "/>
<polyline clip-path="url(#clip521)" style="stroke:#000000; stroke-linecap:round; stroke-linejoin:round; stroke-width:2; stroke-opacity:0.1; fill:none" points="976.463,1292.61 1391.93,932.811 1391.93,213.21 "/>
<polyline clip-path="url(#clip521)" style="stroke:#000000; stroke-linecap:round; stroke-linejoin:round; stroke-width:2; stroke-opacity:0.1; fill:none" points="1097.68,1327.61 1513.14,967.804 1513.14,248.203 "/>
<polyline clip-path="url(#clip521)" style="stroke:#000000; stroke-linecap:round; stroke-linejoin:round; stroke-width:2; stroke-opacity:0.1; fill:none" points="1218.9,1362.6 1634.36,1002.8 1634.36,283.196 "/>
<polyline clip-path="url(#clip521)" style="stroke:#000000; stroke-linecap:round; stroke-linejoin:round; stroke-width:2; stroke-opacity:0.1; fill:none" points="1340.12,1397.59 1755.58,1037.79 1755.58,318.189 "/>
<polyline clip-path="url(#clip521)" style="stroke:#000000; stroke-linecap:round; stroke-linejoin:round; stroke-width:2; stroke-opacity:0.1; fill:none" points="1412.26,1386.4 692.661,1178.67 692.661,459.068 "/>
<polyline clip-path="url(#clip521)" style="stroke:#000000; stroke-linecap:round; stroke-linejoin:round; stroke-width:2; stroke-opacity:0.1; fill:none" points="1480.32,1327.46 760.717,1119.73 760.717,400.13 "/>
<polyline clip-path="url(#clip521)" style="stroke:#000000; stroke-linecap:round; stroke-linejoin:round; stroke-width:2; stroke-opacity:0.1; fill:none" points="1548.37,1268.53 828.772,1060.79 828.772,341.192 "/>
<polyline clip-path="url(#clip521)" style="stroke:#000000; stroke-linecap:round; stroke-linejoin:round; stroke-width:2; stroke-opacity:0.1; fill:none" points="1616.43,1209.59 896.828,1001.86 896.828,282.254 "/>
<polyline clip-path="url(#clip521)" style="stroke:#000000; stroke-linecap:round; stroke-linejoin:round; stroke-width:2; stroke-opacity:0.1; fill:none" points="1684.49,1150.65 964.883,942.918 964.883,223.316 "/>
<polyline clip-path="url(#clip521)" style="stroke:#000000; stroke-linecap:round; stroke-linejoin:round; stroke-width:2; stroke-opacity:0.1; fill:none" points="1752.54,1091.71 1032.94,883.981 1032.94,164.379 "/>
<polyline clip-path="url(#clip521)" style="stroke:#000000; stroke-linecap:round; stroke-linejoin:round; stroke-width:2; stroke-opacity:0.1; fill:none" points="664.934,1141.57 1080.4,781.766 1800,989.498 "/>
<polyline clip-path="url(#clip521)" style="stroke:#000000; stroke-linecap:round; stroke-linejoin:round; stroke-width:2; stroke-opacity:0.1; fill:none" points="664.934,1042.89 1080.4,683.084 1800,890.815 "/>
<polyline clip-path="url(#clip521)" style="stroke:#000000; stroke-linecap:round; stroke-linejoin:round; stroke-width:2; stroke-opacity:0.1; fill:none" points="664.934,944.203 1080.4,584.402 1800,792.133 "/>
<polyline clip-path="url(#clip521)" style="stroke:#000000; stroke-linecap:round; stroke-linejoin:round; stroke-width:2; stroke-opacity:0.1; fill:none" points="664.934,845.521 1080.4,485.72 1800,693.451 "/>
<polyline clip-path="url(#clip521)" style="stroke:#000000; stroke-linecap:round; stroke-linejoin:round; stroke-width:2; stroke-opacity:0.1; fill:none" points="664.934,746.838 1080.4,387.037 1800,594.769 "/>
<polyline clip-path="url(#clip521)" style="stroke:#000000; stroke-linecap:round; stroke-linejoin:round; stroke-width:2; stroke-opacity:0.1; fill:none" points="664.934,648.156 1080.4,288.355 1800,496.086 "/>
<polyline clip-path="url(#clip521)" style="stroke:#000000; stroke-linecap:round; stroke-linejoin:round; stroke-width:2; stroke-opacity:0.1; fill:none" points="664.934,549.474 1080.4,189.673 1800,397.404 "/>
<polyline clip-path="url(#clip520)" style="stroke:#000000; stroke-linecap:round; stroke-linejoin:round; stroke-width:4; stroke-opacity:1; fill:none" points="664.934,1202.68 1384.54,1410.41 "/>
<polyline clip-path="url(#clip520)" style="stroke:#000000; stroke-linecap:round; stroke-linejoin:round; stroke-width:4; stroke-opacity:1; fill:none" points="734.024,1222.63 739.01,1218.31 "/>
<polyline clip-path="url(#clip520)" style="stroke:#000000; stroke-linecap:round; stroke-linejoin:round; stroke-width:4; stroke-opacity:1; fill:none" points="855.244,1257.62 860.229,1253.3 "/>
<polyline clip-path="url(#clip520)" style="stroke:#000000; stroke-linecap:round; stroke-linejoin:round; stroke-width:4; stroke-opacity:1; fill:none" points="976.463,1292.61 981.448,1288.29 "/>
<polyline clip-path="url(#clip520)" style="stroke:#000000; stroke-linecap:round; stroke-linejoin:round; stroke-width:4; stroke-opacity:1; fill:none" points="1097.68,1327.61 1102.67,1323.29 "/>
<polyline clip-path="url(#clip520)" style="stroke:#000000; stroke-linecap:round; stroke-linejoin:round; stroke-width:4; stroke-opacity:1; fill:none" points="1218.9,1362.6 1223.89,1358.28 "/>
<polyline clip-path="url(#clip520)" style="stroke:#000000; stroke-linecap:round; stroke-linejoin:round; stroke-width:4; stroke-opacity:1; fill:none" points="1340.12,1397.59 1345.11,1393.27 "/>
<path clip-path="url(#clip520)" d="M673.841 1236.95 Q670.23 1236.95 668.401 1240.51 Q666.596 1244.05 666.596 1251.18 Q666.596 1258.29 668.401 1261.85 Q670.23 1265.39 673.841 1265.39 Q677.475 1265.39 679.281 1261.85 Q681.109 1258.29 681.109 1251.18 Q681.109 1244.05 679.281 1240.51 Q677.475 1236.95 673.841 1236.95 M673.841 1233.24 Q679.651 1233.24 682.707 1237.85 Q685.785 1242.43 685.785 1251.18 Q685.785 1259.91 682.707 1264.51 Q679.651 1269.1 673.841 1269.1 Q668.031 1269.1 664.952 1264.51 Q661.897 1259.91 661.897 1251.18 Q661.897 1242.43 664.952 1237.85 Q668.031 1233.24 673.841 1233.24 Z" fill="#000000" fill-rule="nonzero" fill-opacity="1" /><path clip-path="url(#clip520)" d="M694.003 1262.55 L698.887 1262.55 L698.887 1268.43 L694.003 1268.43 L694.003 1262.55 Z" fill="#000000" fill-rule="nonzero" fill-opacity="1" /><path clip-path="url(#clip520)" d="M709.119 1233.87 L727.475 1233.87 L727.475 1237.8 L713.401 1237.8 L713.401 1246.27 Q714.419 1245.93 715.438 1245.76 Q716.457 1245.58 717.475 1245.58 Q723.262 1245.58 726.642 1248.75 Q730.021 1251.92 730.021 1257.34 Q730.021 1262.92 726.549 1266.02 Q723.077 1269.1 716.757 1269.1 Q714.582 1269.1 712.313 1268.73 Q710.068 1268.36 707.66 1267.62 L707.66 1262.92 Q709.744 1264.05 711.966 1264.61 Q714.188 1265.16 716.665 1265.16 Q720.669 1265.16 723.007 1263.06 Q725.345 1260.95 725.345 1257.34 Q725.345 1253.73 723.007 1251.62 Q720.669 1249.51 716.665 1249.51 Q714.79 1249.51 712.915 1249.93 Q711.063 1250.35 709.119 1251.23 L709.119 1233.87 Z" fill="#000000" fill-rule="nonzero" fill-opacity="1" /><path clip-path="url(#clip520)" d="M784.875 1299.48 L792.514 1299.48 L792.514 1273.12 L784.204 1274.79 L784.204 1270.53 L792.468 1268.86 L797.144 1268.86 L797.144 1299.48 L804.782 1299.48 L804.782 1303.42 L784.875 1303.42 L784.875 1299.48 Z" fill="#000000" fill-rule="nonzero" fill-opacity="1" /><path clip-path="url(#clip520)" d="M814.227 1297.54 L819.111 1297.54 L819.111 1303.42 L814.227 1303.42 L814.227 1297.54 Z" fill="#000000" fill-rule="nonzero" fill-opacity="1" /><path clip-path="url(#clip520)" d="M839.296 1271.94 Q835.685 1271.94 833.856 1275.5 Q832.051 1279.04 832.051 1286.17 Q832.051 1293.28 833.856 1296.85 Q835.685 1300.39 839.296 1300.39 Q842.93 1300.39 844.736 1296.85 Q846.565 1293.28 846.565 1286.17 Q846.565 1279.04 844.736 1275.5 Q842.93 1271.94 839.296 1271.94 M839.296 1268.23 Q845.106 1268.23 848.162 1272.84 Q851.241 1277.42 851.241 1286.17 Q851.241 1294.9 848.162 1299.51 Q845.106 1304.09 839.296 1304.09 Q833.486 1304.09 830.407 1299.51 Q827.352 1294.9 827.352 1286.17 Q827.352 1277.42 830.407 1272.84 Q833.486 1268.23 839.296 1268.23 Z" fill="#000000" fill-rule="nonzero" fill-opacity="1" /><path clip-path="url(#clip520)" d="M907.09 1334.48 L914.729 1334.48 L914.729 1308.11 L906.419 1309.78 L906.419 1305.52 L914.682 1303.85 L919.358 1303.85 L919.358 1334.48 L926.997 1334.48 L926.997 1338.41 L907.09 1338.41 L907.09 1334.48 Z" fill="#000000" fill-rule="nonzero" fill-opacity="1" /><path clip-path="url(#clip520)" d="M936.442 1332.53 L941.326 1332.53 L941.326 1338.41 L936.442 1338.41 L936.442 1332.53 Z" fill="#000000" fill-rule="nonzero" fill-opacity="1" /><path clip-path="url(#clip520)" d="M951.557 1303.85 L969.914 1303.85 L969.914 1307.79 L955.84 1307.79 L955.84 1316.26 Q956.858 1315.91 957.877 1315.75 Q958.895 1315.57 959.914 1315.57 Q965.701 1315.57 969.08 1318.74 Q972.46 1321.91 972.46 1327.32 Q972.46 1332.9 968.988 1336.01 Q965.516 1339.08 959.196 1339.08 Q957.02 1339.08 954.752 1338.71 Q952.506 1338.34 950.099 1337.6 L950.099 1332.9 Q952.182 1334.04 954.404 1334.59 Q956.627 1335.15 959.104 1335.15 Q963.108 1335.15 965.446 1333.04 Q967.784 1330.94 967.784 1327.32 Q967.784 1323.71 965.446 1321.61 Q963.108 1319.5 959.104 1319.5 Q957.229 1319.5 955.354 1319.92 Q953.502 1320.33 951.557 1321.21 L951.557 1303.85 Z" fill="#000000" fill-rule="nonzero" fill-opacity="1" /><path clip-path="url(#clip520)" d="M1030.53 1369.47 L1046.85 1369.47 L1046.85 1373.41 L1024.91 1373.41 L1024.91 1369.47 Q1027.57 1366.72 1032.15 1362.09 Q1036.76 1357.43 1037.94 1356.09 Q1040.18 1353.57 1041.06 1351.83 Q1041.97 1350.07 1041.97 1348.38 Q1041.97 1345.63 1040.02 1343.89 Q1038.1 1342.16 1035 1342.16 Q1032.8 1342.16 1030.35 1342.92 Q1027.92 1343.68 1025.14 1345.23 L1025.14 1340.51 Q1027.96 1339.38 1030.42 1338.8 Q1032.87 1338.22 1034.91 1338.22 Q1040.28 1338.22 1043.47 1340.91 Q1046.67 1343.59 1046.67 1348.08 Q1046.67 1350.21 1045.86 1352.13 Q1045.07 1354.03 1042.96 1356.62 Q1042.38 1357.29 1039.28 1360.51 Q1036.18 1363.71 1030.53 1369.47 Z" fill="#000000" fill-rule="nonzero" fill-opacity="1" /><path clip-path="url(#clip520)" d="M1056.67 1367.53 L1061.55 1367.53 L1061.55 1373.41 L1056.67 1373.41 L1056.67 1367.53 Z" fill="#000000" fill-rule="nonzero" fill-opacity="1" /><path clip-path="url(#clip520)" d="M1081.73 1341.92 Q1078.12 1341.92 1076.3 1345.49 Q1074.49 1349.03 1074.49 1356.16 Q1074.49 1363.27 1076.3 1366.83 Q1078.12 1370.37 1081.73 1370.37 Q1085.37 1370.37 1087.17 1366.83 Q1089 1363.27 1089 1356.16 Q1089 1349.03 1087.17 1345.49 Q1085.37 1341.92 1081.73 1341.92 M1081.73 1338.22 Q1087.55 1338.22 1090.6 1342.83 Q1093.68 1347.41 1093.68 1356.16 Q1093.68 1364.89 1090.6 1369.49 Q1087.55 1374.08 1081.73 1374.08 Q1075.92 1374.08 1072.85 1369.49 Q1069.79 1364.89 1069.79 1356.16 Q1069.79 1347.41 1072.85 1342.83 Q1075.92 1338.22 1081.73 1338.22 Z" fill="#000000" fill-rule="nonzero" fill-opacity="1" /><path clip-path="url(#clip520)" d="M1152.75 1404.46 L1169.07 1404.46 L1169.07 1408.4 L1147.12 1408.4 L1147.12 1404.46 Q1149.78 1401.71 1154.37 1397.08 Q1158.97 1392.43 1160.15 1391.08 Q1162.4 1388.56 1163.28 1386.82 Q1164.18 1385.07 1164.18 1383.38 Q1164.18 1380.62 1162.24 1378.89 Q1160.32 1377.15 1157.21 1377.15 Q1155.01 1377.15 1152.56 1377.91 Q1150.13 1378.68 1147.35 1380.23 L1147.35 1375.51 Q1150.18 1374.37 1152.63 1373.79 Q1155.08 1373.21 1157.12 1373.21 Q1162.49 1373.21 1165.69 1375.9 Q1168.88 1378.58 1168.88 1383.07 Q1168.88 1385.2 1168.07 1387.13 Q1167.28 1389.02 1165.18 1391.62 Q1164.6 1392.29 1161.5 1395.51 Q1158.39 1398.7 1152.75 1404.46 Z" fill="#000000" fill-rule="nonzero" fill-opacity="1" /><path clip-path="url(#clip520)" d="M1178.88 1402.52 L1183.76 1402.52 L1183.76 1408.4 L1178.88 1408.4 L1178.88 1402.52 Z" fill="#000000" fill-rule="nonzero" fill-opacity="1" /><path clip-path="url(#clip520)" d="M1194 1373.84 L1212.35 1373.84 L1212.35 1377.77 L1198.28 1377.77 L1198.28 1386.25 Q1199.3 1385.9 1200.32 1385.74 Q1201.33 1385.55 1202.35 1385.55 Q1208.14 1385.55 1211.52 1388.72 Q1214.9 1391.89 1214.9 1397.31 Q1214.9 1402.89 1211.43 1405.99 Q1207.95 1409.07 1201.63 1409.07 Q1199.46 1409.07 1197.19 1408.7 Q1194.94 1408.33 1192.54 1407.59 L1192.54 1402.89 Q1194.62 1404.02 1196.84 1404.58 Q1199.07 1405.13 1201.54 1405.13 Q1205.55 1405.13 1207.88 1403.03 Q1210.22 1400.92 1210.22 1397.31 Q1210.22 1393.7 1207.88 1391.59 Q1205.55 1389.49 1201.54 1389.49 Q1199.67 1389.49 1197.79 1389.9 Q1195.94 1390.32 1194 1391.2 L1194 1373.84 Z" fill="#000000" fill-rule="nonzero" fill-opacity="1" /><path clip-path="url(#clip520)" d="M1283.11 1424.76 Q1286.47 1425.48 1288.34 1427.74 Q1290.24 1430.01 1290.24 1433.35 Q1290.24 1438.46 1286.72 1441.26 Q1283.2 1444.06 1276.72 1444.06 Q1274.54 1444.06 1272.23 1443.62 Q1269.94 1443.21 1267.48 1442.35 L1267.48 1437.84 Q1269.43 1438.97 1271.74 1439.55 Q1274.06 1440.13 1276.58 1440.13 Q1280.98 1440.13 1283.27 1438.39 Q1285.59 1436.66 1285.59 1433.35 Q1285.59 1430.29 1283.43 1428.58 Q1281.3 1426.84 1277.48 1426.84 L1273.46 1426.84 L1273.46 1423 L1277.67 1423 Q1281.12 1423 1282.95 1421.63 Q1284.78 1420.24 1284.78 1417.65 Q1284.78 1414.99 1282.88 1413.58 Q1281 1412.14 1277.48 1412.14 Q1275.56 1412.14 1273.36 1412.56 Q1271.16 1412.98 1268.53 1413.85 L1268.53 1409.69 Q1271.19 1408.95 1273.5 1408.58 Q1275.84 1408.21 1277.9 1408.21 Q1283.22 1408.21 1286.33 1410.64 Q1289.43 1413.04 1289.43 1417.17 Q1289.43 1420.04 1287.78 1422.03 Q1286.14 1423.99 1283.11 1424.76 Z" fill="#000000" fill-rule="nonzero" fill-opacity="1" /><path clip-path="url(#clip520)" d="M1299.1 1437.51 L1303.99 1437.51 L1303.99 1443.39 L1299.1 1443.39 L1299.1 1437.51 Z" fill="#000000" fill-rule="nonzero" fill-opacity="1" /><path clip-path="url(#clip520)" d="M1324.17 1411.91 Q1320.56 1411.91 1318.73 1415.48 Q1316.93 1419.02 1316.93 1426.15 Q1316.93 1433.25 1318.73 1436.82 Q1320.56 1440.36 1324.17 1440.36 Q1327.81 1440.36 1329.61 1436.82 Q1331.44 1433.25 1331.44 1426.15 Q1331.44 1419.02 1329.61 1415.48 Q1327.81 1411.91 1324.17 1411.91 M1324.17 1408.21 Q1329.98 1408.21 1333.04 1412.81 Q1336.12 1417.4 1336.12 1426.15 Q1336.12 1434.87 1333.04 1439.48 Q1329.98 1444.06 1324.17 1444.06 Q1318.36 1444.06 1315.28 1439.48 Q1312.23 1434.87 1312.23 1426.15 Q1312.23 1417.4 1315.28 1412.81 Q1318.36 1408.21 1324.17 1408.21 Z" fill="#000000" fill-rule="nonzero" fill-opacity="1" /><polyline clip-path="url(#clip520)" style="stroke:#000000; stroke-linecap:round; stroke-linejoin:round; stroke-width:4; stroke-opacity:1; fill:none" points="1384.54,1410.41 1800,1050.61 "/>
<polyline clip-path="url(#clip520)" style="stroke:#000000; stroke-linecap:round; stroke-linejoin:round; stroke-width:4; stroke-opacity:1; fill:none" points="1412.26,1386.4 1403.63,1383.91 "/>
<polyline clip-path="url(#clip520)" style="stroke:#000000; stroke-linecap:round; stroke-linejoin:round; stroke-width:4; stroke-opacity:1; fill:none" points="1480.32,1327.46 1471.68,1324.97 "/>
<polyline clip-path="url(#clip520)" style="stroke:#000000; stroke-linecap:round; stroke-linejoin:round; stroke-width:4; stroke-opacity:1; fill:none" points="1548.37,1268.53 1539.74,1266.03 "/>
<polyline clip-path="url(#clip520)" style="stroke:#000000; stroke-linecap:round; stroke-linejoin:round; stroke-width:4; stroke-opacity:1; fill:none" points="1616.43,1209.59 1607.79,1207.09 "/>
<polyline clip-path="url(#clip520)" style="stroke:#000000; stroke-linecap:round; stroke-linejoin:round; stroke-width:4; stroke-opacity:1; fill:none" points="1684.49,1150.65 1675.85,1148.16 "/>
<polyline clip-path="url(#clip520)" style="stroke:#000000; stroke-linecap:round; stroke-linejoin:round; stroke-width:4; stroke-opacity:1; fill:none" points="1752.54,1091.71 1743.91,1089.22 "/>
<path clip-path="url(#clip520)" d="M1439.06 1411.59 Q1442.42 1412.31 1444.3 1414.58 Q1446.19 1416.84 1446.19 1420.18 Q1446.19 1425.29 1442.68 1428.09 Q1439.16 1430.9 1432.68 1430.9 Q1430.5 1430.9 1428.18 1430.46 Q1425.89 1430.04 1423.44 1429.18 L1423.44 1424.67 Q1425.38 1425.8 1427.7 1426.38 Q1430.01 1426.96 1432.54 1426.96 Q1436.93 1426.96 1439.23 1425.22 Q1441.54 1423.49 1441.54 1420.18 Q1441.54 1417.12 1439.39 1415.41 Q1437.26 1413.67 1433.44 1413.67 L1429.41 1413.67 L1429.41 1409.83 L1433.62 1409.83 Q1437.07 1409.83 1438.9 1408.46 Q1440.73 1407.08 1440.73 1404.48 Q1440.73 1401.82 1438.83 1400.41 Q1436.96 1398.97 1433.44 1398.97 Q1431.52 1398.97 1429.32 1399.39 Q1427.12 1399.81 1424.48 1400.69 L1424.48 1396.52 Q1427.14 1395.78 1429.46 1395.41 Q1431.8 1395.04 1433.86 1395.04 Q1439.18 1395.04 1442.28 1397.47 Q1445.38 1399.88 1445.38 1404 Q1445.38 1406.87 1443.74 1408.86 Q1442.1 1410.83 1439.06 1411.59 Z" fill="#000000" fill-rule="nonzero" fill-opacity="1" /><path clip-path="url(#clip520)" d="M1507.1 1340.8 L1495.29 1359.25 L1507.1 1359.25 L1507.1 1340.8 M1505.87 1336.73 L1511.75 1336.73 L1511.75 1359.25 L1516.68 1359.25 L1516.68 1363.14 L1511.75 1363.14 L1511.75 1371.29 L1507.1 1371.29 L1507.1 1363.14 L1491.49 1363.14 L1491.49 1358.62 L1505.87 1336.73 Z" fill="#000000" fill-rule="nonzero" fill-opacity="1" /><path clip-path="url(#clip520)" d="M1561.01 1277.79 L1579.37 1277.79 L1579.37 1281.72 L1565.29 1281.72 L1565.29 1290.2 Q1566.31 1289.85 1567.33 1289.69 Q1568.35 1289.5 1569.37 1289.5 Q1575.15 1289.5 1578.53 1292.67 Q1581.91 1295.84 1581.91 1301.26 Q1581.91 1306.84 1578.44 1309.94 Q1574.97 1313.02 1568.65 1313.02 Q1566.47 1313.02 1564.2 1312.65 Q1561.96 1312.28 1559.55 1311.54 L1559.55 1306.84 Q1561.63 1307.97 1563.86 1308.53 Q1566.08 1309.08 1568.56 1309.08 Q1572.56 1309.08 1574.9 1306.98 Q1577.24 1304.87 1577.24 1301.26 Q1577.24 1297.65 1574.9 1295.54 Q1572.56 1293.44 1568.56 1293.44 Q1566.68 1293.44 1564.81 1293.85 Q1562.95 1294.27 1561.01 1295.15 L1561.01 1277.79 Z" fill="#000000" fill-rule="nonzero" fill-opacity="1" /><path clip-path="url(#clip520)" d="M1639.94 1234.27 Q1636.8 1234.27 1634.94 1236.42 Q1633.12 1238.57 1633.12 1242.32 Q1633.12 1246.05 1634.94 1248.23 Q1636.8 1250.38 1639.94 1250.38 Q1643.09 1250.38 1644.92 1248.23 Q1646.77 1246.05 1646.77 1242.32 Q1646.77 1238.57 1644.92 1236.42 Q1643.09 1234.27 1639.94 1234.27 M1649.23 1219.61 L1649.23 1223.87 Q1647.47 1223.04 1645.66 1222.6 Q1643.88 1222.16 1642.12 1222.16 Q1637.49 1222.16 1635.04 1225.29 Q1632.61 1228.41 1632.26 1234.73 Q1633.62 1232.72 1635.68 1231.65 Q1637.74 1230.56 1640.22 1230.56 Q1645.43 1230.56 1648.44 1233.73 Q1651.47 1236.88 1651.47 1242.32 Q1651.47 1247.65 1648.32 1250.86 Q1645.18 1254.08 1639.94 1254.08 Q1633.95 1254.08 1630.78 1249.5 Q1627.61 1244.89 1627.61 1236.17 Q1627.61 1227.97 1631.49 1223.11 Q1635.38 1218.23 1641.93 1218.23 Q1643.69 1218.23 1645.48 1218.57 Q1647.28 1218.92 1649.23 1219.61 Z" fill="#000000" fill-rule="nonzero" fill-opacity="1" /><path clip-path="url(#clip520)" d="M1695.66 1159.91 L1717.88 1159.91 L1717.88 1161.9 L1705.34 1194.47 L1700.45 1194.47 L1712.26 1163.85 L1695.66 1163.85 L1695.66 1159.91 Z" fill="#000000" fill-rule="nonzero" fill-opacity="1" /><path clip-path="url(#clip520)" d="M1775.57 1119.12 Q1772.24 1119.12 1770.31 1120.91 Q1768.42 1122.69 1768.42 1125.81 Q1768.42 1128.94 1770.31 1130.72 Q1772.24 1132.5 1775.57 1132.5 Q1778.9 1132.5 1780.82 1130.72 Q1782.74 1128.91 1782.74 1125.81 Q1782.74 1122.69 1780.82 1120.91 Q1778.93 1119.12 1775.57 1119.12 M1770.89 1117.13 Q1767.88 1116.39 1766.19 1114.33 Q1764.53 1112.27 1764.53 1109.31 Q1764.53 1105.16 1767.47 1102.76 Q1770.43 1100.35 1775.57 1100.35 Q1780.73 1100.35 1783.67 1102.76 Q1786.61 1105.16 1786.61 1109.31 Q1786.61 1112.27 1784.92 1114.33 Q1783.25 1116.39 1780.27 1117.13 Q1783.65 1117.92 1785.52 1120.21 Q1787.42 1122.5 1787.42 1125.81 Q1787.42 1130.84 1784.34 1133.52 Q1781.29 1136.21 1775.57 1136.21 Q1769.85 1136.21 1766.77 1133.52 Q1763.72 1130.84 1763.72 1125.81 Q1763.72 1122.5 1765.62 1120.21 Q1767.51 1117.92 1770.89 1117.13 M1769.18 1109.75 Q1769.18 1112.43 1770.85 1113.94 Q1772.54 1115.44 1775.57 1115.44 Q1778.58 1115.44 1780.27 1113.94 Q1781.98 1112.43 1781.98 1109.75 Q1781.98 1107.06 1780.27 1105.56 Q1778.58 1104.05 1775.57 1104.05 Q1772.54 1104.05 1770.85 1105.56 Q1769.18 1107.06 1769.18 1109.75 Z" fill="#000000" fill-rule="nonzero" fill-opacity="1" /><polyline clip-path="url(#clip520)" style="stroke:#000000; stroke-linecap:round; stroke-linejoin:round; stroke-width:4; stroke-opacity:1; fill:none" points="664.934,1202.68 664.934,483.08 "/>
<polyline clip-path="url(#clip520)" style="stroke:#000000; stroke-linecap:round; stroke-linejoin:round; stroke-width:4; stroke-opacity:1; fill:none" points="664.934,1141.57 669.92,1137.25 "/>
<polyline clip-path="url(#clip520)" style="stroke:#000000; stroke-linecap:round; stroke-linejoin:round; stroke-width:4; stroke-opacity:1; fill:none" points="664.934,1042.89 669.92,1038.57 "/>
<polyline clip-path="url(#clip520)" style="stroke:#000000; stroke-linecap:round; stroke-linejoin:round; stroke-width:4; stroke-opacity:1; fill:none" points="664.934,944.203 669.92,939.885 "/>
<polyline clip-path="url(#clip520)" style="stroke:#000000; stroke-linecap:round; stroke-linejoin:round; stroke-width:4; stroke-opacity:1; fill:none" points="664.934,845.521 669.92,841.203 "/>
<polyline clip-path="url(#clip520)" style="stroke:#000000; stroke-linecap:round; stroke-linejoin:round; stroke-width:4; stroke-opacity:1; fill:none" points="664.934,746.838 669.92,742.521 "/>
<polyline clip-path="url(#clip520)" style="stroke:#000000; stroke-linecap:round; stroke-linejoin:round; stroke-width:4; stroke-opacity:1; fill:none" points="664.934,648.156 669.92,643.839 "/>
<polyline clip-path="url(#clip520)" style="stroke:#000000; stroke-linecap:round; stroke-linejoin:round; stroke-width:4; stroke-opacity:1; fill:none" points="664.934,549.474 669.92,545.156 "/>
<path clip-path="url(#clip520)" d="M629.005 1140.21 Q632.361 1140.93 634.236 1143.2 Q636.134 1145.47 636.134 1148.8 Q636.134 1153.92 632.616 1156.72 Q629.097 1159.52 622.616 1159.52 Q620.44 1159.52 618.125 1159.08 Q615.834 1158.66 613.38 1157.81 L613.38 1153.29 Q615.324 1154.43 617.639 1155 Q619.954 1155.58 622.477 1155.58 Q626.875 1155.58 629.167 1153.85 Q631.482 1152.11 631.482 1148.8 Q631.482 1145.75 629.329 1144.03 Q627.199 1142.3 623.38 1142.3 L619.352 1142.3 L619.352 1138.45 L623.565 1138.45 Q627.014 1138.45 628.843 1137.09 Q630.671 1135.7 630.671 1133.11 Q630.671 1130.44 628.773 1129.03 Q626.898 1127.6 623.38 1127.6 Q621.459 1127.6 619.26 1128.01 Q617.06 1128.43 614.422 1129.31 L614.422 1125.14 Q617.084 1124.4 619.398 1124.03 Q621.736 1123.66 623.797 1123.66 Q629.121 1123.66 632.222 1126.09 Q635.324 1128.5 635.324 1132.62 Q635.324 1135.49 633.681 1137.48 Q632.037 1139.45 629.005 1140.21 Z" fill="#000000" fill-rule="nonzero" fill-opacity="1" /><path clip-path="url(#clip520)" d="M626.551 1029.68 L614.746 1048.13 L626.551 1048.13 L626.551 1029.68 M625.324 1025.61 L631.204 1025.61 L631.204 1048.13 L636.134 1048.13 L636.134 1052.02 L631.204 1052.02 L631.204 1060.17 L626.551 1060.17 L626.551 1052.02 L610.949 1052.02 L610.949 1047.5 L625.324 1025.61 Z" fill="#000000" fill-rule="nonzero" fill-opacity="1" /><path clip-path="url(#clip520)" d="M615.232 926.923 L633.588 926.923 L633.588 930.858 L619.514 930.858 L619.514 939.33 Q620.533 938.983 621.551 938.821 Q622.57 938.636 623.588 938.636 Q629.375 938.636 632.755 941.807 Q636.134 944.978 636.134 950.395 Q636.134 955.974 632.662 959.075 Q629.19 962.154 622.871 962.154 Q620.695 962.154 618.426 961.784 Q616.181 961.413 613.773 960.673 L613.773 955.974 Q615.857 957.108 618.079 957.663 Q620.301 958.219 622.778 958.219 Q626.783 958.219 629.121 956.113 Q631.459 954.006 631.459 950.395 Q631.459 946.784 629.121 944.677 Q626.783 942.571 622.778 942.571 Q620.903 942.571 619.028 942.988 Q617.176 943.404 615.232 944.284 L615.232 926.923 Z" fill="#000000" fill-rule="nonzero" fill-opacity="1" /><path clip-path="url(#clip520)" d="M624.607 843.657 Q621.459 843.657 619.607 845.81 Q617.778 847.963 617.778 851.713 Q617.778 855.44 619.607 857.615 Q621.459 859.768 624.607 859.768 Q627.755 859.768 629.584 857.615 Q631.435 855.44 631.435 851.713 Q631.435 847.963 629.584 845.81 Q627.755 843.657 624.607 843.657 M633.889 829.005 L633.889 833.264 Q632.13 832.43 630.324 831.991 Q628.542 831.551 626.783 831.551 Q622.153 831.551 619.699 834.676 Q617.269 837.801 616.922 844.12 Q618.287 842.106 620.347 841.041 Q622.408 839.954 624.884 839.954 Q630.093 839.954 633.102 843.125 Q636.134 846.273 636.134 851.713 Q636.134 857.037 632.986 860.254 Q629.838 863.472 624.607 863.472 Q618.611 863.472 615.44 858.889 Q612.269 854.282 612.269 845.555 Q612.269 837.361 616.158 832.5 Q620.047 827.616 626.597 827.616 Q628.357 827.616 630.139 827.963 Q631.945 828.31 633.889 829.005 Z" fill="#000000" fill-rule="nonzero" fill-opacity="1" /><path clip-path="url(#clip520)" d="M613.912 729.558 L636.134 729.558 L636.134 731.549 L623.588 764.118 L618.704 764.118 L630.509 733.494 L613.912 733.494 L613.912 729.558 Z" fill="#000000" fill-rule="nonzero" fill-opacity="1" /><path clip-path="url(#clip520)" d="M624.283 649.024 Q620.949 649.024 619.028 650.807 Q617.13 652.589 617.13 655.714 Q617.13 658.839 619.028 660.621 Q620.949 662.404 624.283 662.404 Q627.616 662.404 629.537 660.621 Q631.459 658.816 631.459 655.714 Q631.459 652.589 629.537 650.807 Q627.639 649.024 624.283 649.024 M619.607 647.033 Q616.597 646.293 614.908 644.233 Q613.241 642.172 613.241 639.209 Q613.241 635.066 616.181 632.659 Q619.144 630.251 624.283 630.251 Q629.445 630.251 632.384 632.659 Q635.324 635.066 635.324 639.209 Q635.324 642.172 633.634 644.233 Q631.968 646.293 628.982 647.033 Q632.361 647.82 634.236 650.112 Q636.134 652.404 636.134 655.714 Q636.134 660.737 633.056 663.422 Q630 666.107 624.283 666.107 Q618.565 666.107 615.486 663.422 Q612.431 660.737 612.431 655.714 Q612.431 652.404 614.329 650.112 Q616.227 647.82 619.607 647.033 M617.894 639.649 Q617.894 642.334 619.56 643.839 Q621.25 645.344 624.283 645.344 Q627.292 645.344 628.982 643.839 Q630.695 642.334 630.695 639.649 Q630.695 636.964 628.982 635.459 Q627.292 633.955 624.283 633.955 Q621.25 633.955 619.56 635.459 Q617.894 636.964 617.894 639.649 Z" fill="#000000" fill-rule="nonzero" fill-opacity="1" /><path clip-path="url(#clip520)" d="M614.514 566.036 L614.514 561.777 Q616.273 562.61 618.079 563.05 Q619.885 563.49 621.621 563.49 Q626.25 563.49 628.681 560.388 Q631.134 557.263 631.482 550.921 Q630.139 552.911 628.079 553.976 Q626.019 555.041 623.519 555.041 Q618.334 555.041 615.301 551.916 Q612.292 548.768 612.292 543.328 Q612.292 538.004 615.44 534.786 Q618.588 531.569 623.82 531.569 Q629.815 531.569 632.963 536.175 Q636.134 540.759 636.134 549.509 Q636.134 557.68 632.246 562.564 Q628.38 567.425 621.829 567.425 Q620.07 567.425 618.264 567.078 Q616.459 566.731 614.514 566.036 M623.82 551.384 Q626.968 551.384 628.796 549.231 Q630.648 547.078 630.648 543.328 Q630.648 539.601 628.796 537.448 Q626.968 535.273 623.82 535.273 Q620.672 535.273 618.82 537.448 Q616.991 539.601 616.991 543.328 Q616.991 547.078 618.82 549.231 Q620.672 551.384 623.82 551.384 Z" fill="#000000" fill-rule="nonzero" fill-opacity="1" /><polyline clip-path="url(#clip521)" style="stroke:#009af9; stroke-linecap:round; stroke-linejoin:round; stroke-width:4; stroke-opacity:1; fill:none" points="1019.08,857.253 1023.84,851.187 1024.71,849.961 1025.84,848.403 1024.89,849.387 1026.32,847.432 1029.54,843.317 1026.92,846.426 1023.38,850.588 1026.75,846.175 1031.35,840.394 1044.14,824.701 1052.31,814.985 1058.42,808.097 1062.54,804.053 1058.54,809.799 1053.16,817.313 1039.65,834.041 1048.44,823.377 1050.02,821.647 1090.67,773.633 1102.14,763.597 1113.3,754.92 1114.33,758.064 1097.33,782.122 1100.85,779.049 1119.1,761.509 1096.83,791.171 1143.26,741.486 1170.28,716.105 1203.68,690.104 1199.29,703.031 1270.42,634.248 1275.41,648.376 1255.4,676.742 1289.47,640.936 1278.97,657.14 1194.57,732.673 1139.82,778.733 1133.76,781.453 1120.29,780.809 1081.76,814.424 1085.18,797.014 1067.48,812.658 997.909,879.145 1052.4,814.637 1064.19,804.066 1065.38,807.764 1112.62,764.987 1169.91,720.945 1224.65,665.537 1286.37,642.69 1261.68,669.428 1259.58,669.802 1267.75,666.936 1266.08,668.888 1288.79,657.434 1302.34,641.829 1331.02,618.703 1288.46,653.146 1233.04,687.296 1163.78,743.85 1128.29,763.717 1124.94,764.422 1152.92,731.209 1156.52,729.073 1115.78,757.314 1063.69,827.263 1007.53,866.797 1015.56,852.621 1033.36,839.81 1005.28,873.732 1036.73,838.483 1028.58,840.651 980.458,885.164 1144.81,722.146 1268.93,626.71 1291.28,638.175 1410.86,537.655 1407.37,570.197 1442.87,547.632 1435.49,561.305 1429.77,579.036 1442.3,554.305 1390.09,599.176 1310.93,659.741 1343.87,622.707 1404.3,570.288 1423.21,558.123 1386.69,593.726 1373.5,599.253 1270.58,683.61 1267.79,674.454 1262.98,669.472 1182.06,740.255 1131.02,779.497 1080.05,821.615 1073.45,813.216 1062.26,821.381 1007.73,874.164 995.617,880.762 964.023,901.65 1014.11,842.523 979.223,887.746 1013.73,849.472 1054.64,805.581 1076.25,781.772 1157.57,722.723 1173.62,718.292 1251.42,657.546 1296.97,635.108 1252.16,683.751 1259.01,675.075 1257.01,672.09 1351.7,593.562 1370.19,594.882 1364.41,600.052 1337.42,620.675 1322.38,620.865 1259.63,668.973 1282.22,638.053 1195.72,704.926 1166.98,741.43 1191.3,723.05 1274.71,643.335 1314,603.062 1408.31,542.477 1439.83,545.55 1600.72,439.891 1717.6,394.985 1733.09,398.587 1643.33,466.96 1511.9,560.865 1475.65,574.597 1448.88,579.138 1458.47,558.028 1433.77,574.071 1383.97,609.953 1327.18,652.411 1328.69,637.116 1337.37,621.379 1328.27,625.726 1308.86,637.971 1312.2,631.122 1307.18,635.95 1337.65,603.376 1344.3,608.419 1329.5,625.797 1301.57,646.17 1419.94,547.484 1431.73,540.22 1476.27,517.216 1500.93,499.72 1585.82,446.882 1585.9,470.155 1560.23,486.728 1588.25,462.993 1577.25,481.329 1600.16,463.819 1472.64,561.179 1447.49,565.075 1432.01,570.949 1441.58,547.507 1380.48,601.72 1343.9,630.13 1319.49,646.023 1272.62,676.836 1270.02,665.559 1164.22,764.372 1161.25,751.174 1154.97,751.429 1137.4,763.515 1102.2,796.306 1047.24,842.441 1040.75,839.7 987.284,890.385 971.336,901.946 915.875,954.736 923.543,936.887 957.912,892.91 1047.56,804.775 1049.07,812.11 1087.33,782.564 1076.55,808.251 1087.27,795.531 1058.11,824.023 1081.08,796.351 1146.51,746.054 1150.41,748.462 1129.87,767.79 1115.79,776.926 1018.26,856.185 991.088,884.456 982.787,891.147 1036.41,831.924 1070.26,803.925 1080.76,806.768 1057.37,827.889 1031.85,855.061 1018.55,865.331 1008.28,861.985 989.37,888.098 1014.81,860.084 964.045,910.691 1023.59,839.571 1070.47,791.355 1102.62,766.063 1127.77,762.616 1175.87,711.567 1193.34,714.941 1201.5,708.268 1278.3,655.548 1209.99,719.254 1148.26,760.183 1135.15,770.472 1086.52,815.197 1046.58,844.342 1013.06,870.998 1029.5,842.773 1048.21,825.929 1090.16,788.347 1019.64,857.942 1055.8,817.4 1064.13,810.637 1024.32,849.81 984.265,887.828 1004.31,864.893 1006.31,861.359 1075.57,803.88 1013.41,870.344 1028.65,847.701 992.38,881.489 1073.55,807.298 967.362,898.495 967.104,893.528 999.404,859.831 1080.31,789.998 1044.7,832.005 1037.76,845.935 1109.79,774.987 1039.92,833.246 1111.96,768.662 1216.85,679.44 1170.83,718.147 1110.56,778.971 1118.23,766.472 1087.64,791.514 1136.79,760.245 1183.21,717.959 1242.2,658.609 1338.52,605.66 1252.4,681.738 1203.45,718.651 1163.39,740.064 1125.42,786.643 1125.8,776.657 1077.34,813.098 1088.42,792.554 1127.84,758.16 1173.3,735.329 1180.27,725.474 1231.54,685.027 1162.34,753.959 1160.59,748.902 1160.31,752.132 1081.76,824.719 1077.95,819.819 1052.79,839.207 1044.2,838.783 1023.74,853.781 988.47,890.194 1014.77,856.024 1074.89,797.127 1104.16,776.163 1197.03,688.344 1184.58,713.519 1192.03,707.36 1197.1,713.335 1244.69,669.357 1240.46,669.531 1134.47,760.71 1126.44,775.208 1068.62,823.696 1065.95,822.07 1067.12,813.986 1053.59,827.145 1054.9,822.262 1054.25,820.377 1089.53,788.068 1185.62,710.958 1176.33,727.068 1250.74,673.746 1237.69,686.971 1180.74,736.015 1126.87,778.611 1129.39,770.32 1136.1,770.625 1160.71,738.004 1114.4,780.653 1208.8,706.646 1263.46,664.705 1166.27,738.812 1135.69,767.049 1167.68,731.843 1265.37,655.859 1335.36,596.273 1392.98,567.41 1375.92,592.461 1396.56,572.523 1436.35,557.815 1380.61,609.108 1345.66,627.983 1310.76,653.157 1267.88,679.36 1273.84,661.63 1350.26,592.885 1260.31,676.057 1262.98,670.404 1193.84,727.719 1157.7,758.758 1164.58,742.176 1229.9,676.845 1216.27,701.473 1207.53,703.293 1244.65,674.46 1213.8,712.785 1261.63,683.173 1228.28,695.587 1267.48,662.77 1284.94,653.672 1254.36,682.678 1339.82,626.87 1319.1,630.925 1283.15,660.154 1275.83,662.766 1168.85,744.516 1163.24,732.896 1165.02,723.796 1252.45,672.851 1287.58,655.177 1271.76,674.585 1207.31,721.6 1249.8,678.501 1246.25,679.275 1226.76,699.428 1265.3,667.537 1227.82,682.335 1204.97,705.117 1252.58,658.478 1306.27,629.69 1297.17,651.282 1208.3,724.55 1304.43,621.284 1305.84,633.2 1301.82,641.414 1329.97,619.598 1422.79,543.845 1398.48,563.686 1483.53,502.056 1511.61,488.412 1555.83,468.048 1543.75,493.219 1536.47,498.095 1510.87,518.444 1549.01,489.277 1417.34,594.949 1400.08,597.112 1329.14,648.204 1312.21,650.712 1238.78,706.459 1204.34,726.29 1200.46,720.996 1237.26,674.6 1344.17,581.277 1346.79,599.887 1347.15,609.269 1412.7,555.121 1490.87,509.224 1562.92,458.046 1559.96,478.567 1567.62,471.447 1448.12,571.9 1426.09,577.229 1298.45,675.618 1279.84,679.849 1199.26,742.694 1191.87,735.866 1145.58,771.788 1115.52,789.885 1085.52,812.931 1075.85,811.007 1043.7,838.472 1037.49,840.787 1076.12,801.316 1075.58,798.895 1075.49,800.097 1102.09,778.026 1104.57,775.207 1047.31,839.929 1058.72,816.814 1088.53,798.859 1039.83,841.595 1068.92,805.982 1020.4,846.907 1020.79,859.974 992.543,868.099 1098.31,769.471 1113.93,764.538 1217.7,687.918 1230.56,687.492 1166.38,745.106 1204.22,718.974 1212.54,712.666 1164.52,747.235 1159.72,745.654 1087.69,805.076 1136.16,757.239 1110.02,782.553 1151.61,738.045 1151.23,744.364 1087.05,787.122 1072.87,802.057 1099.58,789.042 1044.87,848.673 1021.08,851.031 1021.95,852.633 1068.53,806.516 1032.57,838.07 1067,808.585 1082.99,792.595 1033.15,845.742 1075.8,808.416 1052.07,825.331 995.611,872.451 999.028,870.042 1001.43,871.098 1041.3,817.806 1080.79,786.113 1063.49,808.045 1135.39,745.768 1177.99,718.759 1296.89,615.138 1399.43,553.816 1479.83,506.379 1465.24,525.763 1346.01,632.527 1305.11,648.108 1249.5,689.629 1272.34,658.849 1319.62,618.38 1360.74,589.335 1343.88,611.394 1299.57,654.575 1243.63,684.166 1120.14,789.866 1095.41,796.146 1027.48,858.625 1047.17,824.594 993.122,881.801 961.865,914.728 970.759,901.425 986.11,881.353 927.301,938.469 871.721,989.564 864.011,992.596 871.876,983.568 917.402,923.764 873.419,985.416 909.716,946.788 873.635,989.59 859.727,992.973 835.64,1022.93 804.421,1059.31 846.32,1003.43 845.783,1007.41 897.108,944.132 918.13,935.236 872.798,991.169 855.516,1000.64 808.175,1052.61 804.254,1048.01 816.678,1034.11 856.011,989.665 874.636,973.121 873.338,977.495 850.114,1008.45 864.125,986.135 863.006,987.681 894.121,954.235 881.977,967.509 907.591,946.055 919.551,938.294 919.257,934.728 940.607,922.878 986.909,869.917 1007.82,856.647 1065.34,795.4 1159.2,723.497 1221.57,681.307 1299.78,618.139 1377.67,572.601 1357.18,607.569 1412.43,569.327 1438.67,554.819 1304.69,651.606 1226.62,713.926 1249.32,676.883 1231.81,687.576 1229.3,690.624 1239.64,690.217 1231.84,700.344 1107,805.183 1107.06,787.509 1034.12,854.112 972.652,901.02 997.115,865.047 931.536,935.264 940.801,916.83 949.456,904.588 1008.12,848.454 1009.64,856.236 1035.54,838.103 1041,839.359 1050.34,827.705 1020.96,851.078 1026.13,838.951 961.293,887.767 1033.67,813.821 1081.05,777.718 1099.37,786.536 1136.76,752.514 1068.9,813.895 1144.81,738.073 1082.85,795.073 1016.65,861.956 1101.23,797.226 1044.61,839.257 974.285,890.985 988.127,868.449 1014.3,851.106 989.414,873.209 1006,857.692 1031.63,832.25 1011.62,861.417 1031.8,842.278 1055.67,813.949 1136.81,753.621 1170.35,728.173 1193.26,710.794 1273.43,638.643 1301.82,626.272 1311.74,631.818 1250.17,688.745 1163.57,750.044 1119.18,780.369 1067.28,822.825 1026.54,857.766 961.097,908.595 858.683,1014.38 843.825,1023.33 877.777,975.054 904.271,944.817 931.617,917.811 966.819,889.03 1003.92,859.658 991.701,868.047 953.909,907.698 911.975,950.07 904.789,958.423 870.643,990.726 869.303,982.397 852.875,1003.5 836.861,1022.43 881.752,960.018 938.144,908.925 946.244,907.173 962.202,901.091 997.021,863.441 1069.8,796.571 1158.96,717.047 1109.9,778.94 1161.02,726.181 1104.76,781.308 1148.75,751.679 1142.98,753.935 1171.35,723.659 1245.02,662.139 1291.64,628.325 1245.29,681.261 1248.08,673.755 1298.19,646.522 1293.03,648.673 1264.76,672.652 1305.87,623.494 1254.84,680.196 1422.43,554.611 1437.25,565.326 1421.73,592.564 1338.59,644.105 1362.96,600.982 1383.23,585.014 1443.66,530.615 1436.6,548.8 1396.63,594.322 1341.91,625.215 1202.08,740.565 1174.52,744.526 1106,800.636 1138.38,754.528 1185.77,703.65 1191.71,706.055 1176.06,731.307 1165.03,748.945 1158.83,748.918 1201.7,703.946 1133.18,767.978 1005.54,889.074 1023.68,853.524 1024.01,843.342 1005.06,861.022 960.221,905.948 1000.48,859.132 1024.71,841.005 942.172,928.433 933.749,932.81 945.142,914.898 962.121,889.269 961.529,900.671 1002.28,853.497 988.011,875.488 1038.59,830.541 1054.09,817.234 1073.19,792.23 1045.36,833.605 1072.87,807.171 1071.57,808.605 1051.35,829.942 1047.48,837.175 1081.31,808.578 1008.71,856.35 1078.57,799.979 1068.31,816.423 1049.94,832.506 1002.79,880.02 1083.7,800.066 1103.36,793.737 1028.57,841.105 1055.06,829.69 1008.71,879.614 1014.48,876.557 1018.92,868.865 1092.34,810.779 1061.13,817.405 981.014,882.804 1090.65,787.917 1152.55,731.412 1147.24,735.376 1186.07,713.725 1289.69,636.173 1281.27,654.454 1177.79,742.626 1252.85,659.855 1151.02,742.87 1159.77,738.759 1269.86,658.017 1283.2,646.293 1254.31,681.119 1296.59,640.04 1273.45,656.363 1230.52,694.569 1131.19,765.828 1132.59,761.276 1151.67,740.446 1209.1,693.003 1216.12,689.972 1306.08,612.386 1370.68,571.197 1367.35,581.823 1376.25,581.398 1294.95,651.483 1277.65,666.661 1207.66,722.669 1150.31,764.066 1191.06,711.736 1234.2,672.891 1189.72,717.049 1170.33,739.502 1144.71,758.388 1208.31,697.228 1276.22,645.745 1270.55,659.304 1261.14,672.401 1252.42,673.778 1250.3,684.319 1161.17,762.147 1138.39,773.457 1016.97,879.162 1018.62,861.034 1023.57,846.501 968.861,902.87 961.311,904.567 924.403,938.377 956.849,907.171 948.464,917.655 954.693,903.053 1075.67,785.498 1042.02,829.2 1073.89,809.454 1021.05,868.452 1038.44,832.282 1030.94,846.502 1038.03,838.062 1095.91,777.191 1155.94,732.813 1158.52,753.723 1166.13,737.92 1194.83,699.366 1122.3,771.038 1142.46,753.173 1059.83,835.345 1105.74,799.835 1181.51,722.713 1145.1,773.207 1188.88,730.391 1281.32,643.333 1212.48,698.348 1247.1,683.586 1189.93,708.902 1201.31,711.36 1171.45,728.599 1163.22,751.371 1133.89,769.692 1177.8,719.622 1283.14,643.63 1382.82,560.193 1371.93,588.196 1417.38,563.773 1310.18,653.198 1317.22,634.324 1318.16,633.159 1230.95,703.076 1278.34,645.024 1206.87,707.917 1176.76,738.578 1168.31,736.11 1163.72,738.803 1135.25,765.562 1044.19,846.856 1042.26,839.987 1117.12,761.684 1181.69,699.064 1155.92,736.339 1204.3,687.285 1274.02,636.689 1276.27,645.925 1265.16,666.424 1205.86,706.767 1230.78,682.049 1196.89,728.301 1192.85,722.323 1150.9,750.309 1202.49,700.758 1233.15,668.239 1150.28,740.537 1224.5,687.406 1197.89,727.823 1142.25,758.436 1132.23,764.475 1107.38,787.965 999.785,883.497 985.532,889.343 959.975,917.337 1007.08,859.007 984.932,885.231 937.788,936.684 901.216,962.977 899.263,961.473 943.072,905.259 955.696,901.051 996.607,858.392 985.73,883.959 974.693,894.428 1003.25,865.704 1054.27,808.289 1013.95,851.205 1023.16,839.626 1042.32,835.407 1060.35,824.259 1034.99,850.069 1153.56,734.633 1165.87,729.158 1214.83,685.833 1286.96,643.065 1213.34,722.564 1169.03,742.656 1155.84,746.117 1146.69,758.876 1163.53,736.332 1148.6,751.534 1105.42,790.19 1132.81,759.805 1203.27,694.442 1206.56,697.91 1216.23,693.553 1256.43,657.756 1248.94,680.842 1235.82,694.054 1221.3,707.09 1118.06,792.067 1089.95,807.079 1114.28,771.064 1112.7,772.966 1177.73,705.502 1209.1,687.712 1149.76,757.916 1175.28,730.477 1179.2,727.832 1192.56,721.692 1151.9,758.956 1079.74,825.908 1046.65,845.652 1059.6,820.924 1048.51,831.167 1025.32,851.62 1102.6,771.404 1148.87,739.299 1160.68,733.58 1230.22,673.464 1246.22,670.604 1357.07,599.912 1297.05,650.233 1290.77,651.007 1255.8,676.477 1259.03,665.099 1299.18,643.657 1182.76,744.953 1229.84,698.565 1238.18,674.09 1219.79,694.185 1246.07,664.652 1194.73,713.266 1088.81,804.243 1136.15,755.291 1107.35,789.883 1100.3,784.663 1104.84,782.29 1129.2,759.34 1142.78,751.899 1169.66,730.002 1145.54,757.342 1083.1,816.3 1115.96,778.779 1146.65,743.081 1155.69,735.424 1155.39,761.176 1160.16,753.754 1103.68,804.63 1141.14,755.751 1129.57,768.276 1170.84,734.918 1159.85,743.521 1144.67,761.802 1209.21,703.65 1246.69,666.832 1203.47,714.119 1274.14,649.934 1326.86,608.911 1320.48,626.186 1208.16,732.241 1180.08,738.762 1140.85,768.077 1176.66,724.263 1151.75,752.134 1100.64,801.907 1155.66,738.762 1175.08,719.797 1174.43,731.429 1177.17,728.632 1227.96,683.149 1234.27,678.454 1275.21,643.462 1276.16,653.103 1347.24,592.639 1375.54,578.667 1463.23,515.041 1524.44,478.927 1528.47,485.965 1484,530.832 1489.27,511.175 1438.71,559.546 1348.95,631.255 1362.84,607.14 1312.09,647.506 1258.12,685.646 1317.44,621.376 1254.77,681.338 1242.15,683.448 1271.43,651.94 1280.67,648.95 1362.94,569.176 1424.21,552.658 1470.23,517.56 1421.64,587.209 1465.23,531.705 1407.51,580.325 1449.18,549.866 1386.3,609.928 1368.32,611.211 1358.29,614.288 1374.31,587.155 1255.66,684.574 1229.04,704.457 1141.89,777.355 1120.97,786.011 1109.06,791.511 1074.41,815.193 1061.22,823.891 1027.12,851.544 992.16,884.408 999.149,867.629 1053.83,809.691 951.569,924.88 950.525,912.49 976.634,890.813 1019.97,839.196 1045.5,818.67 1114.08,753.44 1213.87,667.243 1255.55,658.002 1213.57,694.53 1265.18,659.068 1301.3,635.238 1250.09,682.354 1229.96,700.891 1200.84,723.307 1258.78,666.292 1393.33,545.874 1464.35,520.728 1478.63,519.509 1310.02,663.531 1244.82,709.146 1224.78,715.531 1237.14,695.596 1151.29,774.609 1089.68,822.757 987.203,914.064 944.964,943.159 903.801,976.23 926.175,936.109 950.718,903.516 930.316,926.538 913.381,947.693 970.594,880.724 973.686,886.162 985.598,870.056 1007.99,846.047 1040.83,820.73 1117.18,752.452 1213.31,672.59 1222.4,685.388 1216.6,698.259 1156.58,756.87 1067.2,822.906 1086.35,799.678 1150.57,732.14 1132.69,756.071 1162.86,720.923 1217.66,677.203 1184.42,721.286 1216.93,691.894 1237.09,674.285 1231.4,689.794 1226.17,703.599 1318.54,611.525 1308.81,641.097 1384.88,572.006 1364.81,604.327 1352.96,617.041 1250.84,700.001 1230.08,704.86 1207.84,719.265 1175.15,746.021 1070.78,827.91 1033.97,855.715 1040.43,836.642 1012.71,858.72 988.038,883.768 1020.22,846.152 1010.73,861.793 1044.17,836.019 1025.29,847.961 1048.09,822.851 1000.6,873.649 1008.2,871.238 1077.74,800.492 1000.55,872.293 1013.65,859.627 1078.19,814.727 1054.39,824.252 1053.94,841.832 1021.92,867.312 968.666,905.822 956.255,906.258 944.565,926.547 958.952,901.63 926.974,933.105 925.46,929.757 905.025,956.355 913.464,939.06 925.311,928.087 933.997,918.002 1006.37,853.842 993.816,880.222 989.501,873.923 979.827,881.501 961.272,896.517 994.642,876.64 995.603,876.251 989.74,870.725 976.534,887.122 978.329,879.589 1031.57,839.518 1101.21,774.819 1141.83,765.515 1253.34,652.729 1230.28,685.816 1220.46,701.717 1173.67,752.628 1106.07,795.875 1040.46,854.165 1076.46,813.331 1070.55,812.511 1048.65,833.079 1010.73,871.874 1060.16,806.506 1023.66,852.027 1017.98,853.659 1028.02,835.746 1101.42,774.031 1065.94,808.509 1057.32,817.202 1067.09,809.365 1087.58,799.992 1004.82,867.34 991.443,871.234 1078.93,799 1146.08,738.007 1130,764.568 1134.24,756.876 1151.94,749.668 1117.38,775.281 1107.61,784.373 1096.85,780.009 1115.16,771.168 1103.64,786.994 1077.96,800.689 1057.31,824.152 1038.98,839.854 1112.57,797.036 1065.75,821.529 1065.63,824.5 1085.28,802.185 1228.52,683.676 1220.85,692.612 1184.22,741.545 1165.03,742.723 1194.42,715.027 1183.72,720.205 1268.17,638.901 1303.43,622.511 1322.41,619.995 1317.79,630.676 1260.32,679.358 1156.82,756.807 1141.51,763.017 1158.51,736.878 1067.35,825.622 1085.48,797.718 1050.25,826.245 999.081,874.612 1056.73,821.931 1111.48,782.829 1161.6,744.441 1226.62,695.042 1236.97,684.093 1281.86,659.435 1231.82,710.385 1294.53,651.848 1275.38,658.827 1191.39,717.84 1166.28,747 1146.59,760.861 1137.79,755.557 1133.7,755.921 1156.68,738.012 1095.42,808.882 1089.73,797.371 1091.85,800.813 1089.85,797.965 1144.27,743.737 1171.41,719.419 1160.4,743.83 1092.11,803.96 1060.47,816.455 1049.35,826.558 1128.07,763.196 1128.54,757.138 1104.07,793.287 1086.21,802.958 1092.05,799.069 1052.16,836.618 1111.23,774.425 1014.15,860.375 1097.17,769.686 1140.5,733.175 1146.49,738.688 1175.1,720.887 1169.4,721.734 1172.97,740.765 1125.91,776.842 1168.68,722.607 1188.32,713.941 1194.32,713.423 1262.13,666.473 1302.97,631.2 1400.98,563.385 1402.65,568.629 1370.95,608.617 1395.18,572.358 1382.62,591.43 1385.28,594.195 1402.18,569.238 1407.59,565.344 1497.79,502.268 1550.58,477.037 1414.19,587.687 1445.09,545.882 1502.34,497.219 1354.12,619.089 1437.34,530.088 1523.41,477.962 1615.86,414.904 1639.16,415.077 1660.87,417.417 1708.27,393.593 1713.2,397.662 1715.65,397.318 1704.99,408.549 1735.4,383.807 1697.47,415.909 1602.55,482.85 1567.74,496.011 1566.69,489.269 1542.87,501.275 1551.87,487.277 1508.93,523.653 1495.25,529.545 1459.95,551.596 1429.12,570.735 1425.73,568.043 1419.57,565.095 1383.18,598.544 1288.82,675.279 1236.5,712.909 1238.41,696.565 1176.99,749.526 1228.85,685.401 1223.37,690.835 1304.11,614.762 1305.42,622.608 1307.96,633.414 1289.07,646.5 1290.06,650.325 1186.49,739.516 1170.41,746.002 1127.78,782.954 1133.51,769.694 1132.46,765.854 1181.81,714.801 1263.47,650.319 1308.03,617.447 1406.38,545.025 1406.04,565.004 1349.11,609.686 1205.73,734.157 1151.19,768.887 1121.93,783.561 1078.32,818.055 968.435,919.188 957.621,916.386 975.849,886.533 982.769,878.569 946.112,918.898 993.107,866.2 988.168,880.534 1030.12,835.77 1027.34,858.189 1023.8,856.883 1043.81,834.394 1060.52,812.906 1092.51,794.923 1045.41,828.377 1100.25,769.392 1125.78,754.775 1172.55,722.267 1168.72,727.222 1136.37,761.608 1141.78,744.995 1216.54,703.598 1233.59,685.174 1169.8,731.992 1169.39,744.827 1154.4,754.387 1106.33,804.458 1120.81,771.834 1096.32,797.339 1090.35,797.884 1085.31,794.267 1034.91,843.102 923.948,938.068 938.103,923.218 959.604,896.531 1003.91,862.607 1071.91,785.555 1144.47,721.51 1157.06,729.9 1076.54,817.106 1082.65,806.058 1126.45,759.814 1144.24,742.809 1126.99,771.087 1166.25,741.414 1202.96,709.512 1114.23,785.525 1021.18,865.961 1090.85,782.547 1122.46,755.174 1136.18,755.475 1078.94,818.455 1039.72,852.536 1059.04,821.418 1074.74,793.922 1017.96,858.584 1031.32,842.271 1028.68,848.798 996.451,877.005 996.571,882.567 983.958,887.518 920.201,940.121 1014.27,847.133 1020.83,837.714 1094.77,782.996 1180.74,708.569 1260.79,645.857 1212,702.183 1212.86,706.258 1175.57,742.267 1193.61,716.903 1185.6,739.143 1234.63,695.402 1302.55,652.977 1270.08,688.206 1344.35,633.012 1311.24,650.199 1328.73,626.406 1238.15,689.771 1253.21,665.049 1183.17,736.261 1152.74,751.812 1122.47,770.166 1213.31,688.655 1226.96,681.628 1356,592.004 1432.4,537.877 1413.88,569.489 1522.69,482.94 1525.95,484.93 1585.21,443.378 1421.06,586.699 1475.58,530.228 1511.77,504.151 1461.38,555.887 1427.83,574.653 1466.24,535.631 1503.34,515.795 1477.07,533.817 1443.01,550.959 1429.56,558.365 1441.72,542.439 1566.26,441.106 1474.83,535.097 1461.2,549.904 1480.8,527.595 1525.05,494.802 1466.66,543.884 1472.76,534.486 1494.73,530.991 1555.08,468.846 1456.46,555.504 1391.61,596.749 1332.26,640.774 1304.18,652.188 1244.31,698.852 1250.44,680.385 1223.63,702.648 1184.73,729.871 1170.19,740.405 1144.3,763.536 1131.94,768.584 1118.34,777.351 1127.97,756.082 1045.74,835.257 1030.83,846.552 1031.32,841.696 1011.81,867.872 1093.55,792.502 1082.02,796.856 1035.11,839.715 1023.49,837.997 1037.05,843.565 930.327,939.349 909.353,948.83 872.134,988.633 869.935,993.708 837.078,1020.78 812.159,1048.27 776.171,1084.24 766.614,1094.44 750.172,1112.98 805.547,1037.61 783.748,1069.86 799.701,1047.42 805.694,1042.89 847.694,993.314 857.992,982.572 880.629,967.78 869.994,984.828 888.263,959.027 908.102,940.105 914.666,942.777 937.215,920.784 1021.77,830.589 1005.85,854.357 947.586,914.051 913.441,944.577 895.348,959.019 928.22,928.276 895.973,960.748 881.186,972.498 895.579,954.09 977.117,863.18 976.692,874.938 946.292,911.783 949.265,913.625 910.631,951.9 900.56,956.685 918.85,940.054 882.692,975.97 865.729,997.939 894.333,958.348 956.526,885.593 972.775,878.854 985.673,874.902 1047.96,810.066 1054.9,807.298 1038.78,823.137 1074.87,799.988 1001.13,876.968 994.843,878.514 1010.87,859.54 952.912,912.001 1012.73,856.937 1069.43,807.359 1051.31,823.914 1049.82,825.278 1072.74,813.762 1021.14,860.527 972.465,912.977 948.258,922.33 939.17,930.298 924.64,936.317 901.845,953.343 922,932.65 929.771,932.175 934.253,930.3 909.361,952.968 880.086,984.511 866.186,993.828 912.26,939.77 893.221,963.744 842.608,1018.45 904.906,943.862 950.074,903.217 952.368,906.709 967.317,893.78 1011.66,853.584 1048.26,817.134 1041.94,832.58 1060.06,822.513 1127.71,758.031 1058.86,824.445 992.825,891.829 951.505,917.481 1043.38,825.149 1104.16,764.281 1084.1,791.387 1091.67,780.935 1059.79,799.835 974.222,891.074 1062.8,818.638 1116.62,770.705 1185.1,701.073 1218.56,677.923 1283.85,644.767 1126.93,775.292 1125.68,766.962 1136.75,770.889 1035.9,849.797 1041.63,840.804 1069.05,812.162 1021.62,857.847 978.91,890.638 993.568,870.456 1026.12,841.795 1044.42,829.191 1031.1,847.833 1048.72,838.693 1012.08,868.449 1001.06,870.731 1018.47,845.022 1110.21,756.948 1175.46,715.515 1178.43,702.82 1125.57,750.095 1189.53,708.666 1192.05,711.268 1149.07,744.542 1156.7,736.919 1159.59,733.949 1214.08,703.937 1253.52,668.448 1269.94,661.634 1457.1,518.839 1498.89,505.765 1397.05,590.522 1289.2,672.887 1284,660.186 1247.36,693.536 1246.07,681.824 1263.17,659.722 1250.33,682.091 1193.5,725.482 1200,716.793 1246.64,674.657 1247.99,676.966 1275.66,662.977 1242.58,695.856 1191.82,735.161 1221.12,708.744 1202.78,709.383 1262.13,655.026 1259.96,664.322 1275.68,665.029 1378.8,587.53 1456.99,529.262 1467.82,537.772 1520.81,508.882 1445.62,567.031 1469.91,551.914 1464.92,542.519 1321.86,657.483 1264.18,697.567 1252.54,686.689 1204.59,721.739 1168.62,751.534 1181.28,727.27 1168.81,737.101 1117.42,780.129 1130.39,758.698 1082.15,806.147 1073.92,808.654 1051.8,826.245 1028.2,837.425 1091.4,784.361 1126.35,755.679 1179.73,710.799 1164.07,732.464 1165.36,726.668 1081.9,818.056 1098.86,798.076 1053.23,828.454 1124.01,766.703 1144.25,741.181 1111.65,781.167 1092.62,797.502 1035,849.018 1065.15,807.709 1101.83,772.195 1079.23,792.423 1101.59,784.042 1199.6,711.196 1178.27,736.99 1070.2,824.518 1090.58,803.785 1152.45,731.537 1073.51,816.423 1113.29,778.925 1015.24,861.339 955.613,915.558 959.812,911.194 984.01,883.388 1067.8,799.958 1049.8,821.26 1007.37,856.827 1054.37,821.522 1006.2,881.541 1003.76,871.453 1017.93,848.925 1051.16,807.115 1101.07,767.866 1070.29,815.109 1102.65,774.991 1115.68,786.6 1134.08,770.024 1114.41,784.032 1123.83,776.691 1131.16,769.559 1194.75,712.662 1286.29,640.43 1245.8,690.428 1273.45,658.825 1248.16,678.676 1234.07,686.558 1271.91,660.016 1286.31,644.635 1273.21,640.095 1158.62,736.524 1156.05,733.869 1144.82,724.606 1158.31,740.297 1170.11,733.815 1192.29,732.271 1258.52,672.994 1183.03,729.122 1167.2,734.237 1164.53,735.996 1093.03,797.515 1214.75,674.933 1284.64,644.161 1319.37,619.365 1301.46,643.34 1210.89,724.492 1198.55,719.103 1172.41,732.554 1225.43,678.567 1256.11,656.115 1262.22,660.046 1295.67,645.483 1296.77,635.063 1276.48,660.291 1122.89,791.611 1068.14,827.697 1028.95,853.628 1068.78,803.749 1032.94,838.264 1056.89,815.902 1028.23,843.147 1149.8,721.336 1198.65,689.598 1194.11,704.556 1223.31,688.7 1192.09,720.953 1137.45,758.202 1141.95,752.926 1133.45,768.631 1082.33,816.837 1106.39,785.649 1154.26,738.446 1167.07,721.741 1079.4,795.636 1046.5,832.644 1124.26,754.701 1104.13,781.371 1188.95,721.309 1279.13,645.904 1206.31,718.101 1138.19,781.66 1154.95,756.641 1131.45,778.674 1204.26,709.456 1243.03,685.252 1230.02,715.63 1405.69,579.671 1316.47,646.111 1405.69,556.951 1364.03,588.468 1313.24,634.958 1206.18,716.257 1297.86,642.065 1293.71,647.362 1302.81,648.44 1211,716.806 1173.09,743.149 1141.57,759.502 1005.61,895.031 1058.5,817.988 1037.72,836.04 1093.32,780.004 1100,768.285 1023.25,842.194 1032.59,826.089 1031.79,833.635 1065.81,817.11 1121.02,782.183 1189.12,718.901 1095.36,803.938 1097.63,791.66 1129.48,767.952 1208.97,722.346 1179.13,740.927 1213.27,713.935 1242.06,686.913 1264.28,666.341 1316.79,640.912 1267.95,671.258 1212.83,697.52 1203.36,714.43 1263.67,648.04 1375.21,566.902 1324.91,626.856 1263.51,671.021 1223.03,706.477 1076.59,831.338 1078.63,814.275 1089.18,795.117 1128.13,753.005 1146.24,739.398 1153.37,745.255 1119.85,774.385 1087.14,816.784 1028.49,851.279 1024.85,851.857 1039.63,837.221 1103.28,768.811 1112.37,766.929 1074.04,808.085 1030.3,851.321 1029.29,839.609 1037.04,833.782 1026.02,848.488 1064.25,801.674 1142.89,732.957 1140.89,750.868 1163.24,738.268 1161.48,753.468 1200.78,703.171 1194.78,719.737 1229.94,682.541 1303.77,633.472 1343.25,599.141 1406.72,552.201 1399.59,557.879 1323.57,628.323 1310.83,645.42 1403.77,557.433 1365.09,582.409 1310.1,640.78 1240.47,693.049 1272.29,665.607 1344.22,596.737 1211.33,712.082 1256.92,668.083 1267.03,658.653 1251.29,681.37 1265.48,655.104 1332.92,612.843 1291.89,657.226 1366.07,593.25 1248.27,676.642 1274.69,656.849 1270.16,667.77 1269.86,661.427 1217.13,706.229 1177.06,736.89 1157.29,747.674 1202.77,707.468 1211.96,718.427 1243.18,688.585 1278.16,636.633 1298.64,638.741 1338.35,609.301 1315.34,636.421 1337.21,611.786 1255.12,682.314 1178.63,745.102 1128.13,772.239 1141.75,757.703 1192.89,719.485 1205.12,709.991 1175.13,729.717 1166.58,736.388 1143.29,753.742 1170.9,726.001 1161.24,741.498 1196.44,709.222 1168.44,741.044 1306.44,612.538 1388.03,575.347 1481.19,507.58 1430.67,556.658 1453.17,542.285 1381.12,607.407 1308.95,656.186 1180.63,759.306 1166.13,755.534 1145.59,761.089 1123.28,776.117 1132.66,765.523 1114.86,783.326 1075.13,812.339 1120.65,758.891 1169.19,718.362 1218.61,681.322 1268.87,640.668 1362.83,566.471 1325.41,624.255 1373.34,585.394 1428.11,547.648 1438.28,553.652 1340.14,634.358 1310.33,656.26 1343.18,621.008 1306.98,650.235 1277.1,666.321 1210.33,708.82 1213.94,698.791 1124.54,782.84 1127.84,771.39 1183.72,714.128 1259.45,652.99 1247.5,666.36 1141.42,764.916 1176.73,728.082 1175.92,727.556 1133.66,768.101 1094.86,798.821 1074,811.511 1035.83,852.277 1035.64,844.196 1004.66,872.463 944.51,928.227 918.718,944.373 919.338,942.569 909.818,946.824 922.617,934.463 920.258,938.018 987.974,862.693 1022.56,829.871 1053.86,812.379 1016.13,855.027 953.093,918.702 990.179,880.502 1060.64,802.385 1126.14,754.98 1096.62,789.438 1181.03,709.29 1287.19,623.963 1319.54,615.664 1340.18,606.365 1261.93,684.813 1239.7,703.664 1161.84,756.863 1170.41,737.97 1246.52,667.098 1288.15,641.542 1256.59,673.029 1106.93,798.696 1114.81,780.959 1095.29,793.721 1128.12,757.566 1178.51,710.022 1145.03,743.821 1155.41,734.97 1224.63,677.391 1243.31,668.846 1214.57,698.985 1249.03,666.957 1281.48,649.507 1259.75,680.037 1251.15,680.776 1216.92,705.874 1268.34,656.446 1300.3,637.468 1273.85,657.451 1290.84,644.211 1363.99,599.539 1301.7,652.533 1229.47,700.422 1182.77,741.699 1180.06,722.666 1171.45,724.188 1225.2,694.888 1206.83,706.342 1271.55,657.411 1247.79,682.763 1284.22,644.895 1232.37,685.784 1305.56,637.465 1437.89,537.864 1466.13,534.842 1402.69,578.565 1345.45,630.889 1369.72,605.667 1470.68,519.549 1383.94,589.394 1511.78,491.391 1468.24,535.619 1427.51,569.29 1423.87,564.652 1354,633.56 1324.52,646.114 1245.68,701.13 1247.19,682.976 1246.06,677.435 1190.63,729.68 1153.87,746.646 1169.62,725.302 1169.65,733.861 1195.05,713.984 1266.63,648.742 1282,653.399 1285.62,662.02 1351.55,619.655 1435.1,538.332 1380.21,590.396 1329.8,620.266 1289.62,655.786 1312.71,636.845 1269.64,671.316 1332.78,612.731 1352.35,616.25 1377.2,582.73 1357.66,615.123 1270.15,672.23 1256.64,678.23 1231.77,695.44 1225.83,696.362 1168.42,749.241 1216,690.882 1191.63,719.927 1191.07,716.704 1145.13,759.81 1021.31,872.625 1045.6,834.085 1063.9,809.605 1154.81,729.949 1101.38,783.457 1085.86,800.805 1174.28,719.032 1186.11,721.224 1211.55,701.402 1250.4,678.958 1364.3,594.966 1357.42,603.286 1333.56,627.729 1212.83,719.104 1141.31,779.568 1126,775.654 1115.14,776.989 1094.14,800.188 1120.48,765.259 1132.56,765.436 1177.37,733.61 1155.41,743.655 1097.57,801.752 1178.49,704.129 1157.17,730.728 1157.07,729.636 1218.88,694.804 1182.78,725.976 1177.78,728.397 1279.5,645.604 1329.59,602.595 1322.48,618.301 1304.12,655.707 1307.1,639.288 1305.81,628.801 1317.45,627.411 1344.65,609.786 1342.55,618.328 1255.2,681.306 1178.87,744.521 1076.81,829.261 1057.73,829.838 1062.85,819.628 1078.19,795.8 1093.81,789.143 1085.27,801.898 1011.59,864.834 1009.54,861.14 1010.78,858.022 1093.49,770.255 1123.43,755.851 1100.51,786.088 1072.82,818.762 1036.29,853.63 1016.68,866.771 983.304,885.091 994.686,866.392 1000.42,864.115 1018.23,844.054 1017.94,849.436 1010.29,864.31 999.656,861.868 984.731,870.889 1004.78,856.811 1049.21,829.329 1024.08,860.682 965.479,911.59 1013.04,852.744 1092.78,777.537 1079.57,797.652 1096.35,791.406 1136.34,751.605 1099.95,781.533 999.895,867.629 1003.11,863.334 1001.04,858.353 999.418,868.379 988.797,873.299 1067.52,804.733 1021.59,846.84 958.989,905.922 991.073,866.75 995.318,882.692 1011.42,858.501 1104.49,777.688 1201.57,684.502 1270.68,632.633 1239.82,684.043 1142.65,771.449 1208.34,699.108 1268.8,647.014 1275.02,649.921 1261.42,662.652 1235.26,693.692 1311.7,613.417 1360.68,581.353 1321.84,627.569 1344.76,608.592 1262.53,685.028 1219.62,713.181 1191.51,733.549 1214.59,706.291 1242.68,683.064 1241.05,684.743 1257.57,665.69 1219.9,703.831 1160.38,745.853 1155.72,739.365 1054.23,831.163 1092.86,789.275 1027.24,846.064 1056.21,817.326 1025.89,853.77 995.102,875.77 991.45,876.974 995.436,867.694 966.872,899.033 972.198,890.813 999.951,864.876 1016.53,846.942 995.252,870.54 1057.07,808.005 1065.89,810.569 1030.73,851.071 1020.7,856.12 1055.19,825.909 1020.19,860.718 1052.65,828.191 1087.97,782.625 1124.69,757.084 1072.51,798.05 1078.2,813.085 1024.14,854.112 1050.67,842.941 1191.63,697.09 1067.45,790.902 1059.53,825.948 1027.55,849.471 1050.37,837.932 1002.78,874.942 983.748,891.889 950.941,918.896 1028.86,839.625 1029.03,850.544 1091.24,787.467 1142.16,748.133 1246.86,647.727 1329.26,604.336 1327.18,627.201 1349.91,618.372 1217.49,710.973 1235.34,689.977 1256.42,666.216 1340.05,587.351 1273.27,648.207 1219.61,693.304 1202.22,706.264 1200.03,703.935 1220.12,688.876 1243.13,696.34 1174.65,734.777 1245.83,671.572 1345.56,596.186 1266.16,679.147 1222.33,703.353 1282.9,647.055 1254.56,676.97 1234.72,685.403 1172.14,743.481 1136.29,765.76 1127.84,773.538 1138.85,755.653 1162.21,731.234 1113.78,773.993 1079.71,804.052 1002.03,879.285 972.33,892.614 1022.5,833.184 998.958,865.88 1011.38,859.735 1010.1,866.567 945.919,932.34 891.306,975.223 868.44,991.695 884.685,972.295 886.612,968.111 851.011,1008.63 827.032,1032.47 782.907,1081.38 820.263,1031.07 809.858,1046.93 826.601,1023.98 831.531,1019.08 869.876,977.673 902.314,942.042 904.168,946.496 957.01,890.885 981.427,870.611 961.299,898.221 923.894,940.622 939.585,917.88 1024.87,823.79 978.88,882.447 910.332,962.58 885.906,979.376 907.603,944.959 906.437,948.121 953.432,903.037 1002.68,855.927 972.206,888.729 976.552,886.371 998.326,868.739 1077,794.732 1144.59,731.933 1203.68,695.602 1203.39,693.535 1296.77,638.363 1221.77,707.791 1165.45,753.142 1144.94,767.686 1135.31,775.46 1112.78,786.398 1110.18,784.31 1146.14,740.361 1100.78,784.451 1136.64,748.986 1211.07,683.802 1269.95,641.686 1253.76,661.548 1276.62,651.709 1352.51,601.138 1305.86,647.787 1217.41,723.245 1208.48,716.522 1235.24,681.024 1080.42,821.466 1050.04,841.698 1041.44,836.239 1044.19,830.624 1002.18,877.242 987.965,891.245 982.752,887.136 991.162,880.29 1008.31,866.47 968.294,905.205 971.588,889.774 1074.47,802.767 1060.21,817.035 1057.47,811.283 1111.1,771.511 1064.01,819.847 961.827,922.336 1000.44,871.496 1051.34,816.233 1057.5,815.099 1088.06,782.817 1120.39,756.696 1049.77,821.58 988.941,880.155 998.379,880.491 1022.98,853.604 1092.47,800.133 1030.8,865.385 1019.36,865.467 953.346,926.416 909.938,957.347 961.337,890.599 968.373,885.136 973.968,882.858 929.37,933.47 951.445,907.395 847.326,1022.7 856.848,997.26 845.834,1007.56 891.781,961.006 920.655,924.657 913.347,938.36 951.136,910.223 944.353,919.502 970.234,887.224 981.975,885.629 972.06,889.641 1049.59,811.582 1067.36,802.705 1056.05,815.982 1128.63,749.58 1134.73,756.996 1156.27,742.328 1183.9,715.052 1249.61,670.371 1261.2,662.163 1441.37,521.165 1472.77,512.406 1475.62,522.754 1467.97,536.442 1519.48,488.572 1411.54,578.384 1354.08,616.619 1296.62,660.874 1347.27,603.536 1272.03,676.056 1177.73,756.699 1173.72,746.154 1162.46,744.813 1133.48,763.197 1133.94,760.297 1152.15,736.852 1151.7,740.136 1177.59,726.076 1166.14,731.983 1086.4,795.653 1043.32,837.879 967.984,906.342 952.701,916.381 919.099,950.191 905.666,962.69 883.874,983.359 876.435,989.237 938.669,914.162 940.006,920.067 950.835,922.038 933.784,932.008 981.491,880.555 955.762,902.301 988.807,881.04 1047.14,823.819 1004.56,865.881 1000.99,860.462 991.933,874 1026.65,849.456 979.167,892.389 924.783,944.706 1005.97,861.343 962.665,899.651 910.449,953.418 927.889,937.532 899.218,958.606 936.081,918.921 936.521,922.465 970.776,893.064 918.435,942.307 929.536,919.962 894.953,962.796 959.508,890.124 984.014,872.552 973.509,882.12 997.488,870.686 1018.46,841.224 947.984,913.991 920.014,936.846 949.737,907.405 928.59,936.874 904.139,967.593 866.495,992.82 834.19,1025.62 826.824,1033.57 862.965,993.807 916.395,926.623 878.422,976.72 841.622,1017.27 879.07,968.488 928.261,909.581 882.661,966.698 911.327,935.452 910.169,939.633 964.222,878.82 938.628,911.806 968.274,886.745 983.044,874.33 943.102,918.146 906.159,960.428 853.815,1013.54 819.531,1043.89 840.215,1012.06 865.75,983.668 872.342,981.335 899.488,956.401 862.141,995.381 908.256,945.781 912.466,943.577 875.696,987.069 946.399,915.144 969.163,893.264 1034.35,837.605 1094.93,778.161 1122.47,759.805 1013.93,860.634 1055.53,825.893 1131.47,751.198 1129.3,765.459 1109.98,776.524 1085.3,788.242 1142.2,763.34 1119.19,778.908 1036.87,851.089 1059.75,818.062 1102.44,773.977 1075.04,809.697 1029.97,848.063 983.732,887.851 964.623,898.581 916.901,950.017 926.788,933.004 1008.5,849.868 1037.8,836.331 1014.36,856.621 1023.26,857.928 1051.35,826.197 1079.69,800.816 1081.77,806.353 1063.34,810.781 1077.65,803.371 997.428,875.737 943.924,923.748 1018.13,852.968 1097.99,766.8 1089.91,797.615 1137.18,750.079 1070.82,806.02 948.783,927.758 950.346,905.394 924.785,929.011 890.995,956.134 860.362,997.601 861.391,996.494 827.145,1037.79 811.597,1047.33 828.132,1024.08 896.727,948.717 937.625,913.126 915.743,939.82 925.683,926.637 967.5,886.741 934.042,933.471 891.554,980.406 853,1009.59 832.654,1029.03 756.066,1115.6 703.239,1179.8 707.881,1162.54 704.627,1163.62 710.414,1153.38 710.049,1154.67 732.433,1121.97 736.934,1119.7 757.617,1095.54 757.166,1095.52 778.973,1072.41 828.55,1016.25 836.546,1012.22 809.086,1049.57 844.423,1005.82 876.983,970.412 900.178,946.047 923.678,929.204 939.838,916.805 949.978,907.485 961.28,899.503 1008.85,851.785 1091.05,772.549 1065.17,811.536 1088.02,790.441 1111.79,767.047 1094.94,794.653 1134.79,769.923 1118.26,780.296 1119.49,774.736 1034.82,857.023 1033.95,848.86 1067.53,801.221 1094.05,785.708 1098.51,782.299 1132.02,756.041 1146.55,730.364 1137.5,744.208 1123.27,770.878 1119.65,776.238 1174.64,717.08 1120.38,745.791 1169.4,715.986 1134.7,751.497 1163.89,734.963 1152.16,742.669 1067.39,818.494 1086.53,792.171 1116.24,771.08 1073.91,816.087 1102.04,780.018 1070.17,808.7 1080.43,806.307 1085.44,783.104 1000.59,871.279 947.586,931.922 867.686,1006.99 883.253,971.837 859.704,997.729 893.305,954.084 888.539,962.536 859.513,997.627 878.276,971.378 888.001,965.698 903.958,949.137 962.713,884.92 1062.39,789.747 1154.04,719.059 1121.7,760.517 1066.77,819.784 1078.04,807.67 1001.52,875.561 1003.46,871.251 967.054,902.572 1002.24,858.017 1064.67,792.382 1090.01,775.216 1137.03,739.036 1197.4,690.369 1330.83,591.972 1420.56,537.549 1439.39,542.214 1503.15,497.968 1699.04,378.302 1711.34,392.873 1570.8,502.596 1563.87,491.361 1478.16,555.413 1533.06,496.434 1504.43,519.06 1472.66,543.208 1428.85,578.591 1512.97,498.678 1486.41,521.066 1540.68,474.318 1441.59,573.072 1480.12,528.607 1410.51,585.036 1470.08,523.272 1437.22,563.789 1425.14,571.003 1430.36,554.274 1372.65,609.856 1357.56,618.805 1399.26,569.014 1363.75,605.794 1371.81,588.628 1334.57,622.27 1350.44,606.342 1322.47,631.163 1295.06,657.641 1253.57,678.196 1296.8,630.705 1306.6,625.675 1355.28,593.975 1337.05,623.996 1433.46,552.372 1457.39,533.803 1425,572.927 1493.11,517.244 1469.62,541.236 1448.78,555.776 1421.98,576.842 1363.97,610.873 1267.29,693.989 1193.22,742.055 1200.16,718.136 1173.23,739.149 1093.03,810.884 1122.07,764.72 1138.39,746.969 1156.39,739.499 1150.27,748.951 1132.28,761.528 1108.48,784.771 1097.74,793.562 1109.59,775.476 1091.36,794.802 1046.58,834.24 1082.46,795.106 1121.61,758.832 1149.67,751.918 1201.23,701.284 1221.1,689.29 1194.99,712.526 1227.97,693.714 1238.56,682.535 1239.34,684.332 1185.02,734.057 1153.1,743.553 1134.78,760.98 1167.18,733.487 1142.36,758.386 1146.71,748.959 1196.17,699.705 1096.49,791.662 1145.82,749.961 1216.05,673.666 1148.43,753.759 1172.81,735.093 1068.15,823.459 1061.01,820.056 1047.15,838.905 1084.82,797.744 1033.1,845.315 1096.1,776.719 1092.95,782.659 1159.98,738.512 1183.11,723.509 1197.73,707.158 1140.05,756.229 1082.75,810.238 1108.26,782.865 1091.41,788.098 1067.44,809.819 1066.88,809.07 1052.29,822.954 1011.88,858.183 1044.72,824.064 1098.14,778.305 1135.66,750.944 1282.01,624.009 1327.51,616.829 1236.34,702.022 1199.1,723.811 1218.29,688.4 1123.43,779.891 1132.94,762.743 1108.69,774.147 1090.09,791.86 1078.6,808.431 1003.42,862.729 996.264,874.419 914.066,951.191 924.048,941.384 933.282,923.043 887.213,976.833 880.114,977.857 844.156,1014.18 838.023,1016.47 873.373,978.535 861.706,995.723 909.508,940.708 911.868,938.586 922.749,930.132 994.89,862.044 1006.2,860.308 1028.2,837.518 1062.16,815.249 1069.33,823.469 1056.04,837.137 1060.48,831.237 1013.59,866.87 1039.12,835.828 1000.53,873.108 1171.96,692.815 1225.67,669.359 1264.75,652.158 1262.88,663.367 1225.05,700.083 1196.06,727.622 1159.76,750.537 1219.13,695.303 1229.12,685.912 1289.04,643.272 1242.6,694.195 1182.32,735.332 1152.48,755.869 1174.42,726.815 1150.27,755.61 1150.88,756.934 1200.45,716.892 1134,770.415 1169.48,732.844 1166.65,740.928 1160.32,742.822 1128.01,771.303 1177.74,722.834 1176.12,729.252 1130.41,781.446 1068.19,832.433 1082.43,808.205 1073.72,812.64 1017.76,862.474 1021.54,855.986 970.674,900.636 1024,834.787 1019.01,843.055 994.657,876.037 993.274,874.245 1046.01,819.321 1070.92,794.428 999.547,875.47 1020.85,854.929 1043.96,825.857 1030.8,847.852 1052.84,818.378 1055.9,816.607 1036.92,843.446 1080.78,808.679 1043.07,844.197 1096.96,787.077 1201.55,705.977 1236.19,684.945 1219.05,695.209 1355.87,590.859 1428.15,547.727 1350.87,626.726 1291.3,657.612 1196.16,744.486 1175.94,738.316 1158.36,753.309 1194.97,710.992 1158.96,750.683 1160.98,741.801 1081.61,812.138 1026.96,860.566 1014.08,862.7 1027.55,843.282 1016.38,853.198 1058.02,810.616 1081.8,787.95 1116.93,763.913 1145.67,749.514 1211.61,690.931 1165.24,740.601 1146.72,761.189 1169.03,755.695 1100.99,799.585 1063.56,828.999 1047.03,840.327 1129.6,752.268 1139.08,742.69 1110.36,787.119 1119.76,765.013 1170.7,721.853 1073.03,814.814 1044.89,836.477 1093.15,784.729 1075.22,806.197 1102.5,771.849 1135.6,757.49 1129.1,780.499 1102.47,802.176 1088.69,800.869 1127.47,759.893 1035.43,843.946 991.87,881.54 933.182,947.953 954.767,913.36 930.373,923.777 932.151,923.564 902.207,954.895 955.498,901.475 1024.14,844.239 1021.44,843.281 983.063,895.847 940.264,930.284 884.346,979.116 877.158,980.308 858.364,995.521 845.574,1010.96 823.476,1041.28 876.88,971.596 888.188,961.016 875.298,983.28 918.093,932.901 963.446,883.302 989.163,866.742 1023.51,839.679 1051.18,814.785 1099.11,780.394 1042.05,836.778 1008.19,862.637 1109.24,770.961 1064.51,820.947 1051.59,834.376 1011.96,869.594 1048.76,836.385 1053.34,824.079 1111.8,770.529 1165.63,721.176 1266.83,648.601 1259.31,668.868 1221.88,710.864 1287.4,644.255 1166.48,752.484 1101.17,805.504 1152.81,745.809 1245.42,658.604 1230.03,692.551 1265.74,652.168 1290.68,638.94 1216.35,708.012 1301.18,628.932 1372.01,585.521 1246.54,704.232 1223.61,710.495 1183.01,731.17 1216.94,696.796 1299.38,618.575 1310.44,619.432 1339.41,606.016 1278.62,666.703 1278.33,671.886 1321.07,616.855 1348.29,606.449 1398.32,563.213 1485.08,511.674 1520.1,481.863 1380.3,587.999 1336.39,626.367 1318.34,645.518 1285.92,665.422 1211.49,719.28 1165.59,757.853 1101.33,804.832 1028.09,864.326 992.495,883.016 978.327,894.444 964.691,903.056 962.864,905.206 996.514,865.905 997.077,864.189 1008.21,853.616 1044.08,821.982 1128.54,747.08 1197.99,691.023 1240.95,669.006 1290.71,639.619 1303.48,629.408 1240.8,687.678 1269.77,658.031 1180.52,717.824 1200.08,702.919 1165.42,742.344 1155.79,738.905 1148.05,740.06 1082.28,808.13 1062.86,824.852 1097.28,778.5 1153.38,739.196 1186.04,711.6 1154.41,754.328 1226.28,685.879 1151.61,754.288 1199.3,717.138 1131.8,759.736 1072.07,810.124 1055.88,817.476 1007.61,866.046 953.92,909.487 984.829,878.143 1089.07,784.381 1101.72,773.634 1140,741.113 1089.31,787.942 1103.22,792.402 1153.53,742.295 1131.53,762.112 1202.19,711.398 1164,748.798 1183.53,724.53 1173.39,733.843 1116.39,773.326 1113.65,776.101 1109.94,778.675 1095.28,792.14 1070.72,814.312 1009.77,871.571 997.137,878.188 966.618,902.87 991.334,870.684 937.7,925.572 968.557,886.353 1009.66,855.134 978.04,891.305 1063.49,804.426 1113.43,757.952 1155.14,722.22 1225.34,683.643 1223.24,688.333 1245.4,672.979 1296.54,637.451 1244.63,682.186 1164.25,752.893 1167.94,744.572 1091.2,806.036 1059.81,825.755 1067.5,820.079 1133.76,749.331 1186.61,711.731 1190.75,716.622 1136.48,770.234 1070.29,824.083 1043.9,840.065 1020.79,859.688 1049.84,823.817 1098.81,774.233 1156.43,729.75 1227.66,668.076 1202.26,712.145 1157.19,757.399 1181.75,724.016 1182.81,731.916 1220.94,692.461 1196.52,722.897 1294.65,650.893 1220.74,715.469 1192.95,719.104 1192.34,712.299 1318.26,599.483 1276.59,644.15 1271.89,659.068 1321.22,617.112 1273.4,647.37 1279.11,643.886 1291.44,635.568 1420.21,540.818 1460.8,523.103 1364.95,606.311 1324.65,626.782 1329.81,628.456 1403.7,582.65 1393.81,599.421 1349.97,618.708 1368.94,595.492 1317.25,632.281 1245.85,699.307 1329.24,620.715 1236.88,700.261 1254.93,667.548 1191.23,724.258 1143.2,767.608 1130.05,775.567 1101.73,795.775 1113.41,777.98 1044.28,848.305 1010.22,869.805 934.812,936.84 914.058,951.378 892.947,970.818 882.036,976.367 907.388,944.24 885.955,961.059 835.304,1017.64 821.831,1027.27 849.012,995.73 871.435,974.434 851.847,1001.47 906.952,937.826 985.528,862.346 1005.15,860.189 1047.45,819.312 1041.73,826.425 1086.06,792.329 1151.76,735.059 1081.26,808.088 1039.22,847.055 1009.67,865.358 954.807,917.339 904.246,956.535 914.994,939.622 1008.49,843.684 938.864,924.46 898.468,968.537 946.494,918.713 966.905,887.939 952.341,910.348 973.87,885.872 1055.82,812.106 1085.5,790.714 1075.15,804.207 1097.93,780.874 1146.42,749.423 1191.67,706.645 1232.22,672.496 1144.62,763.079 1196.36,708.442 1224.29,688.572 1193.25,717.587 1190.03,728.492 1206.64,712.285 1193.79,729.88 1284.35,651.832 1343.69,600.202 1339.8,618.022 1407.31,556.275 1363.93,606.73 1392.92,580.344 1301.42,652.104 1302.55,644.379 1192.12,729 1248.87,662.304 "/>
<path clip-path="url(#clip520)" d="M186.863 198.898 L550.897 198.898 L550.897 95.2176 L186.863 95.2176  Z" fill="#ffffff" fill-rule="evenodd" fill-opacity="1"/>
<polyline clip-path="url(#clip520)" style="stroke:#000000; stroke-linecap:round; stroke-linejoin:round; stroke-width:4; stroke-opacity:1; fill:none" points="186.863,198.898 550.897,198.898 550.897,95.2176 186.863,95.2176 186.863,198.898 "/>
<polyline clip-path="url(#clip520)" style="stroke:#009af9; stroke-linecap:round; stroke-linejoin:round; stroke-width:4; stroke-opacity:1; fill:none" points="211.758,147.058 361.13,147.058 "/>
<path clip-path="url(#clip520)" d="M396.651 128.366 Q393.549 133.69 392.044 138.898 Q390.54 144.106 390.54 149.453 Q390.54 154.801 392.044 160.055 Q393.572 165.287 396.651 170.588 L392.947 170.588 Q389.475 165.148 387.739 159.893 Q386.026 154.639 386.026 149.453 Q386.026 144.291 387.739 139.06 Q389.452 133.828 392.947 128.366 L396.651 128.366 Z" fill="#000000" fill-rule="nonzero" fill-opacity="1" /><path clip-path="url(#clip520)" d="M403.063 138.412 L423.294 138.412 L423.294 142.301 L407.276 160.935 L423.294 160.935 L423.294 164.338 L402.484 164.338 L402.484 160.449 L418.502 141.815 L403.063 141.815 L403.063 138.412 Z" fill="#000000" fill-rule="nonzero" fill-opacity="1" /><path clip-path="url(#clip520)" d="M430.887 158.458 L435.771 158.458 L435.771 162.439 L431.975 169.847 L428.988 169.847 L430.887 162.439 L430.887 158.458 Z" fill="#000000" fill-rule="nonzero" fill-opacity="1" /><path clip-path="url(#clip520)" d="M455.655 166.745 Q453.849 171.375 452.136 172.787 Q450.423 174.199 447.553 174.199 L444.15 174.199 L444.15 170.634 L446.65 170.634 Q448.41 170.634 449.382 169.8 Q450.354 168.967 451.535 165.865 L452.298 163.921 L441.812 138.412 L446.326 138.412 L454.428 158.689 L462.53 138.412 L467.044 138.412 L455.655 166.745 Z" fill="#000000" fill-rule="nonzero" fill-opacity="1" /><path clip-path="url(#clip520)" d="M474.011 158.458 L478.896 158.458 L478.896 162.439 L475.099 169.847 L472.113 169.847 L474.011 162.439 L474.011 158.458 Z" fill="#000000" fill-rule="nonzero" fill-opacity="1" /><path clip-path="url(#clip520)" d="M509.544 138.412 L500.169 151.027 L510.03 164.338 L505.007 164.338 L497.46 154.152 L489.914 164.338 L484.891 164.338 L494.96 150.773 L485.747 138.412 L490.77 138.412 L497.645 147.648 L504.52 138.412 L509.544 138.412 Z" fill="#000000" fill-rule="nonzero" fill-opacity="1" /><path clip-path="url(#clip520)" d="M515.377 128.366 L519.081 128.366 Q522.553 133.828 524.266 139.06 Q526.002 144.291 526.002 149.453 Q526.002 154.639 524.266 159.893 Q522.553 165.148 519.081 170.588 L515.377 170.588 Q518.456 165.287 519.96 160.055 Q521.488 154.801 521.488 149.453 Q521.488 144.106 519.96 138.898 Q518.456 133.69 515.377 128.366 Z" fill="#000000" fill-rule="nonzero" fill-opacity="1" /></svg>
