<?xml version="1.0" encoding="utf-8"?>
<svg xmlns="http://www.w3.org/2000/svg" xmlns:xlink="http://www.w3.org/1999/xlink" width="600" height="400" viewBox="0 0 2400 1600">
<defs>
  <clipPath id="clip570">
    <rect x="0" y="0" width="2400" height="1600"/>
  </clipPath>
</defs>
<path clip-path="url(#clip570)" d="M0 1600 L2400 1600 L2400 0 L0 0  Z" fill="#ffffff" fill-rule="evenodd" fill-opacity="1"/>
<defs>
  <clipPath id="clip571">
    <rect x="480" y="0" width="1681" height="1600"/>
  </clipPath>
</defs>
<path clip-path="url(#clip570)" d="M193.936 1423.18 L2352.76 1423.18 L2352.76 47.2441 L193.936 47.2441  Z" fill="#ffffff" fill-rule="evenodd" fill-opacity="1"/>
<defs>
  <clipPath id="clip572">
    <rect x="193" y="47" width="2160" height="1377"/>
  </clipPath>
</defs>
<polyline clip-path="url(#clip572)" style="stroke:#000000; stroke-linecap:round; stroke-linejoin:round; stroke-width:2; stroke-opacity:0.1; fill:none" points="193.936,1423.18 193.936,47.2441 "/>
<polyline clip-path="url(#clip572)" style="stroke:#000000; stroke-linecap:round; stroke-linejoin:round; stroke-width:2; stroke-opacity:0.1; fill:none" points="625.7,1423.18 625.7,47.2441 "/>
<polyline clip-path="url(#clip572)" style="stroke:#000000; stroke-linecap:round; stroke-linejoin:round; stroke-width:2; stroke-opacity:0.1; fill:none" points="1057.46,1423.18 1057.46,47.2441 "/>
<polyline clip-path="url(#clip572)" style="stroke:#000000; stroke-linecap:round; stroke-linejoin:round; stroke-width:2; stroke-opacity:0.1; fill:none" points="1489.23,1423.18 1489.23,47.2441 "/>
<polyline clip-path="url(#clip572)" style="stroke:#000000; stroke-linecap:round; stroke-linejoin:round; stroke-width:2; stroke-opacity:0.1; fill:none" points="1920.99,1423.18 1920.99,47.2441 "/>
<polyline clip-path="url(#clip572)" style="stroke:#000000; stroke-linecap:round; stroke-linejoin:round; stroke-width:2; stroke-opacity:0.1; fill:none" points="2352.76,1423.18 2352.76,47.2441 "/>
<polyline clip-path="url(#clip570)" style="stroke:#000000; stroke-linecap:round; stroke-linejoin:round; stroke-width:4; stroke-opacity:1; fill:none" points="193.936,1423.18 2352.76,1423.18 "/>
<polyline clip-path="url(#clip570)" style="stroke:#000000; stroke-linecap:round; stroke-linejoin:round; stroke-width:4; stroke-opacity:1; fill:none" points="193.936,1423.18 193.936,1404.28 "/>
<polyline clip-path="url(#clip570)" style="stroke:#000000; stroke-linecap:round; stroke-linejoin:round; stroke-width:4; stroke-opacity:1; fill:none" points="625.7,1423.18 625.7,1404.28 "/>
<polyline clip-path="url(#clip570)" style="stroke:#000000; stroke-linecap:round; stroke-linejoin:round; stroke-width:4; stroke-opacity:1; fill:none" points="1057.46,1423.18 1057.46,1404.28 "/>
<polyline clip-path="url(#clip570)" style="stroke:#000000; stroke-linecap:round; stroke-linejoin:round; stroke-width:4; stroke-opacity:1; fill:none" points="1489.23,1423.18 1489.23,1404.28 "/>
<polyline clip-path="url(#clip570)" style="stroke:#000000; stroke-linecap:round; stroke-linejoin:round; stroke-width:4; stroke-opacity:1; fill:none" points="1920.99,1423.18 1920.99,1404.28 "/>
<polyline clip-path="url(#clip570)" style="stroke:#000000; stroke-linecap:round; stroke-linejoin:round; stroke-width:4; stroke-opacity:1; fill:none" points="2352.76,1423.18 2352.76,1404.28 "/>
<path clip-path="url(#clip570)" d="M193.936 1454.1 Q190.325 1454.1 188.496 1457.66 Q186.691 1461.2 186.691 1468.33 Q186.691 1475.44 188.496 1479.01 Q190.325 1482.55 193.936 1482.55 Q197.57 1482.55 199.376 1479.01 Q201.204 1475.44 201.204 1468.33 Q201.204 1461.2 199.376 1457.66 Q197.57 1454.1 193.936 1454.1 M193.936 1450.39 Q199.746 1450.39 202.802 1455 Q205.88 1459.58 205.88 1468.33 Q205.88 1477.06 202.802 1481.67 Q199.746 1486.25 193.936 1486.25 Q188.126 1486.25 185.047 1481.67 Q181.992 1477.06 181.992 1468.33 Q181.992 1459.58 185.047 1455 Q188.126 1450.39 193.936 1450.39 Z" fill="#000000" fill-rule="nonzero" fill-opacity="1" /><path clip-path="url(#clip570)" d="M620.353 1481.64 L636.672 1481.64 L636.672 1485.58 L614.728 1485.58 L614.728 1481.64 Q617.39 1478.89 621.973 1474.26 Q626.58 1469.61 627.76 1468.27 Q630.006 1465.74 630.885 1464.01 Q631.788 1462.25 631.788 1460.56 Q631.788 1457.8 629.843 1456.07 Q627.922 1454.33 624.82 1454.33 Q622.621 1454.33 620.168 1455.09 Q617.737 1455.86 614.959 1457.41 L614.959 1452.69 Q617.783 1451.55 620.237 1450.97 Q622.691 1450.39 624.728 1450.39 Q630.098 1450.39 633.293 1453.08 Q636.487 1455.77 636.487 1460.26 Q636.487 1462.39 635.677 1464.31 Q634.89 1466.2 632.783 1468.8 Q632.205 1469.47 629.103 1472.69 Q626.001 1475.88 620.353 1481.64 Z" fill="#000000" fill-rule="nonzero" fill-opacity="1" /><path clip-path="url(#clip570)" d="M1060.47 1455.09 L1048.67 1473.54 L1060.47 1473.54 L1060.47 1455.09 M1059.25 1451.02 L1065.13 1451.02 L1065.13 1473.54 L1070.06 1473.54 L1070.06 1477.43 L1065.13 1477.43 L1065.13 1485.58 L1060.47 1485.58 L1060.47 1477.43 L1044.87 1477.43 L1044.87 1472.92 L1059.25 1451.02 Z" fill="#000000" fill-rule="nonzero" fill-opacity="1" /><path clip-path="url(#clip570)" d="M1489.63 1466.44 Q1486.48 1466.44 1484.63 1468.59 Q1482.8 1470.74 1482.8 1474.49 Q1482.8 1478.22 1484.63 1480.39 Q1486.48 1482.55 1489.63 1482.55 Q1492.78 1482.55 1494.61 1480.39 Q1496.46 1478.22 1496.46 1474.49 Q1496.46 1470.74 1494.61 1468.59 Q1492.78 1466.44 1489.63 1466.44 M1498.92 1451.78 L1498.92 1456.04 Q1497.16 1455.21 1495.35 1454.77 Q1493.57 1454.33 1491.81 1454.33 Q1487.18 1454.33 1484.73 1457.45 Q1482.3 1460.58 1481.95 1466.9 Q1483.31 1464.89 1485.37 1463.82 Q1487.43 1462.73 1489.91 1462.73 Q1495.12 1462.73 1498.13 1465.9 Q1501.16 1469.05 1501.16 1474.49 Q1501.16 1479.82 1498.01 1483.03 Q1494.86 1486.25 1489.63 1486.25 Q1483.64 1486.25 1480.47 1481.67 Q1477.3 1477.06 1477.3 1468.33 Q1477.3 1460.14 1481.18 1455.28 Q1485.07 1450.39 1491.62 1450.39 Q1493.38 1450.39 1495.17 1450.74 Q1496.97 1451.09 1498.92 1451.78 Z" fill="#000000" fill-rule="nonzero" fill-opacity="1" /><path clip-path="url(#clip570)" d="M1920.99 1469.17 Q1917.66 1469.17 1915.74 1470.95 Q1913.84 1472.73 1913.84 1475.86 Q1913.84 1478.98 1915.74 1480.77 Q1917.66 1482.55 1920.99 1482.55 Q1924.33 1482.55 1926.25 1480.77 Q1928.17 1478.96 1928.17 1475.86 Q1928.17 1472.73 1926.25 1470.95 Q1924.35 1469.17 1920.99 1469.17 M1916.32 1467.18 Q1913.31 1466.44 1911.62 1464.38 Q1909.95 1462.32 1909.95 1459.35 Q1909.95 1455.21 1912.89 1452.8 Q1915.85 1450.39 1920.99 1450.39 Q1926.15 1450.39 1929.09 1452.8 Q1932.03 1455.21 1932.03 1459.35 Q1932.03 1462.32 1930.34 1464.38 Q1928.68 1466.44 1925.69 1467.18 Q1929.07 1467.96 1930.95 1470.26 Q1932.84 1472.55 1932.84 1475.86 Q1932.84 1480.88 1929.77 1483.57 Q1926.71 1486.25 1920.99 1486.25 Q1915.27 1486.25 1912.2 1483.57 Q1909.14 1480.88 1909.14 1475.86 Q1909.14 1472.55 1911.04 1470.26 Q1912.94 1467.96 1916.32 1467.18 M1914.6 1459.79 Q1914.6 1462.48 1916.27 1463.98 Q1917.96 1465.49 1920.99 1465.49 Q1924 1465.49 1925.69 1463.98 Q1927.4 1462.48 1927.4 1459.79 Q1927.4 1457.11 1925.69 1455.6 Q1924 1454.1 1920.99 1454.1 Q1917.96 1454.1 1916.27 1455.6 Q1914.6 1457.11 1914.6 1459.79 Z" fill="#000000" fill-rule="nonzero" fill-opacity="1" /><path clip-path="url(#clip570)" d="M2327.44 1481.64 L2335.08 1481.64 L2335.08 1455.28 L2326.77 1456.95 L2326.77 1452.69 L2335.04 1451.02 L2339.71 1451.02 L2339.71 1481.64 L2347.35 1481.64 L2347.35 1485.58 L2327.44 1485.58 L2327.44 1481.64 Z" fill="#000000" fill-rule="nonzero" fill-opacity="1" /><path clip-path="url(#clip570)" d="M2366.8 1454.1 Q2363.18 1454.1 2361.36 1457.66 Q2359.55 1461.2 2359.55 1468.33 Q2359.55 1475.44 2361.36 1479.01 Q2363.18 1482.55 2366.8 1482.55 Q2370.43 1482.55 2372.23 1479.01 Q2374.06 1475.44 2374.06 1468.33 Q2374.06 1461.2 2372.23 1457.66 Q2370.43 1454.1 2366.8 1454.1 M2366.8 1450.39 Q2372.61 1450.39 2375.66 1455 Q2378.74 1459.58 2378.74 1468.33 Q2378.74 1477.06 2375.66 1481.67 Q2372.61 1486.25 2366.8 1486.25 Q2360.99 1486.25 2357.91 1481.67 Q2354.85 1477.06 2354.85 1468.33 Q2354.85 1459.58 2357.91 1455 Q2360.99 1450.39 2366.8 1450.39 Z" fill="#000000" fill-rule="nonzero" fill-opacity="1" /><path clip-path="url(#clip570)" d="M1272.41 1522.27 L1272.41 1532.4 L1284.47 1532.4 L1284.47 1536.95 L1272.41 1536.95 L1272.41 1556.3 Q1272.41 1560.66 1273.58 1561.9 Q1274.79 1563.14 1278.45 1563.14 L1284.47 1563.14 L1284.47 1568.04 L1278.45 1568.04 Q1271.67 1568.04 1269.1 1565.53 Q1266.52 1562.98 1266.52 1556.3 L1266.52 1536.95 L1262.22 1536.95 L1262.22 1532.4 L1266.52 1532.4 L1266.52 1522.27 L1272.41 1522.27 Z" fill="#000000" fill-rule="nonzero" fill-opacity="1" /><polyline clip-path="url(#clip572)" style="stroke:#000000; stroke-linecap:round; stroke-linejoin:round; stroke-width:2; stroke-opacity:0.1; fill:none" points="193.936,1386.94 2352.76,1386.94 "/>
<polyline clip-path="url(#clip572)" style="stroke:#000000; stroke-linecap:round; stroke-linejoin:round; stroke-width:2; stroke-opacity:0.1; fill:none" points="193.936,1031.51 2352.76,1031.51 "/>
<polyline clip-path="url(#clip572)" style="stroke:#000000; stroke-linecap:round; stroke-linejoin:round; stroke-width:2; stroke-opacity:0.1; fill:none" points="193.936,676.075 2352.76,676.075 "/>
<polyline clip-path="url(#clip572)" style="stroke:#000000; stroke-linecap:round; stroke-linejoin:round; stroke-width:2; stroke-opacity:0.1; fill:none" points="193.936,320.645 2352.76,320.645 "/>
<polyline clip-path="url(#clip570)" style="stroke:#000000; stroke-linecap:round; stroke-linejoin:round; stroke-width:4; stroke-opacity:1; fill:none" points="193.936,1423.18 193.936,47.2441 "/>
<polyline clip-path="url(#clip570)" style="stroke:#000000; stroke-linecap:round; stroke-linejoin:round; stroke-width:4; stroke-opacity:1; fill:none" points="193.936,1386.94 212.834,1386.94 "/>
<polyline clip-path="url(#clip570)" style="stroke:#000000; stroke-linecap:round; stroke-linejoin:round; stroke-width:4; stroke-opacity:1; fill:none" points="193.936,1031.51 212.834,1031.51 "/>
<polyline clip-path="url(#clip570)" style="stroke:#000000; stroke-linecap:round; stroke-linejoin:round; stroke-width:4; stroke-opacity:1; fill:none" points="193.936,676.075 212.834,676.075 "/>
<polyline clip-path="url(#clip570)" style="stroke:#000000; stroke-linecap:round; stroke-linejoin:round; stroke-width:4; stroke-opacity:1; fill:none" points="193.936,320.645 212.834,320.645 "/>
<path clip-path="url(#clip570)" d="M51.9875 1387.39 L81.6633 1387.39 L81.6633 1391.32 L51.9875 1391.32 L51.9875 1387.39 Z" fill="#000000" fill-rule="nonzero" fill-opacity="1" /><path clip-path="url(#clip570)" d="M92.566 1400.28 L100.205 1400.28 L100.205 1373.92 L91.8947 1375.58 L91.8947 1371.32 L100.159 1369.66 L104.834 1369.66 L104.834 1400.28 L112.473 1400.28 L112.473 1404.22 L92.566 1404.22 L92.566 1400.28 Z" fill="#000000" fill-rule="nonzero" fill-opacity="1" /><path clip-path="url(#clip570)" d="M121.918 1398.34 L126.802 1398.34 L126.802 1404.22 L121.918 1404.22 L121.918 1398.34 Z" fill="#000000" fill-rule="nonzero" fill-opacity="1" /><path clip-path="url(#clip570)" d="M137.033 1369.66 L155.39 1369.66 L155.39 1373.59 L141.316 1373.59 L141.316 1382.06 Q142.334 1381.72 143.353 1381.55 Q144.371 1381.37 145.39 1381.37 Q151.177 1381.37 154.556 1384.54 Q157.936 1387.71 157.936 1393.13 Q157.936 1398.71 154.464 1401.81 Q150.992 1404.89 144.672 1404.89 Q142.496 1404.89 140.228 1404.52 Q137.982 1404.15 135.575 1403.41 L135.575 1398.71 Q137.658 1399.84 139.881 1400.4 Q142.103 1400.95 144.58 1400.95 Q148.584 1400.95 150.922 1398.85 Q153.26 1396.74 153.26 1393.13 Q153.26 1389.52 150.922 1387.41 Q148.584 1385.3 144.58 1385.3 Q142.705 1385.3 140.83 1385.72 Q138.978 1386.14 137.033 1387.02 L137.033 1369.66 Z" fill="#000000" fill-rule="nonzero" fill-opacity="1" /><path clip-path="url(#clip570)" d="M50.9921 1031.96 L80.6679 1031.96 L80.6679 1035.89 L50.9921 1035.89 L50.9921 1031.96 Z" fill="#000000" fill-rule="nonzero" fill-opacity="1" /><path clip-path="url(#clip570)" d="M91.5706 1044.85 L99.2095 1044.85 L99.2095 1018.48 L90.8993 1020.15 L90.8993 1015.89 L99.1632 1014.23 L103.839 1014.23 L103.839 1044.85 L111.478 1044.85 L111.478 1048.79 L91.5706 1048.79 L91.5706 1044.85 Z" fill="#000000" fill-rule="nonzero" fill-opacity="1" /><path clip-path="url(#clip570)" d="M120.922 1042.91 L125.807 1042.91 L125.807 1048.79 L120.922 1048.79 L120.922 1042.91 Z" fill="#000000" fill-rule="nonzero" fill-opacity="1" /><path clip-path="url(#clip570)" d="M145.992 1017.3 Q142.381 1017.3 140.552 1020.87 Q138.746 1024.41 138.746 1031.54 Q138.746 1038.65 140.552 1042.21 Q142.381 1045.75 145.992 1045.75 Q149.626 1045.75 151.431 1042.21 Q153.26 1038.65 153.26 1031.54 Q153.26 1024.41 151.431 1020.87 Q149.626 1017.3 145.992 1017.3 M145.992 1013.6 Q151.802 1013.6 154.857 1018.21 Q157.936 1022.79 157.936 1031.54 Q157.936 1040.27 154.857 1044.87 Q151.802 1049.46 145.992 1049.46 Q140.181 1049.46 137.103 1044.87 Q134.047 1040.27 134.047 1031.54 Q134.047 1022.79 137.103 1018.21 Q140.181 1013.6 145.992 1013.6 Z" fill="#000000" fill-rule="nonzero" fill-opacity="1" /><path clip-path="url(#clip570)" d="M51.9875 676.527 L81.6633 676.527 L81.6633 680.462 L51.9875 680.462 L51.9875 676.527 Z" fill="#000000" fill-rule="nonzero" fill-opacity="1" /><path clip-path="url(#clip570)" d="M101.756 661.874 Q98.1447 661.874 96.316 665.439 Q94.5104 668.98 94.5104 676.11 Q94.5104 683.216 96.316 686.781 Q98.1447 690.323 101.756 690.323 Q105.39 690.323 107.196 686.781 Q109.024 683.216 109.024 676.11 Q109.024 668.98 107.196 665.439 Q105.39 661.874 101.756 661.874 M101.756 658.17 Q107.566 658.17 110.621 662.777 Q113.7 667.36 113.7 676.11 Q113.7 684.837 110.621 689.443 Q107.566 694.026 101.756 694.026 Q95.9456 694.026 92.8669 689.443 Q89.8114 684.837 89.8114 676.11 Q89.8114 667.36 92.8669 662.777 Q95.9456 658.17 101.756 658.17 Z" fill="#000000" fill-rule="nonzero" fill-opacity="1" /><path clip-path="url(#clip570)" d="M121.918 687.476 L126.802 687.476 L126.802 693.355 L121.918 693.355 L121.918 687.476 Z" fill="#000000" fill-rule="nonzero" fill-opacity="1" /><path clip-path="url(#clip570)" d="M137.033 658.795 L155.39 658.795 L155.39 662.73 L141.316 662.73 L141.316 671.203 Q142.334 670.855 143.353 670.693 Q144.371 670.508 145.39 670.508 Q151.177 670.508 154.556 673.679 Q157.936 676.851 157.936 682.267 Q157.936 687.846 154.464 690.948 Q150.992 694.026 144.672 694.026 Q142.496 694.026 140.228 693.656 Q137.982 693.286 135.575 692.545 L135.575 687.846 Q137.658 688.98 139.881 689.536 Q142.103 690.091 144.58 690.091 Q148.584 690.091 150.922 687.985 Q153.26 685.878 153.26 682.267 Q153.26 678.656 150.922 676.55 Q148.584 674.443 144.58 674.443 Q142.705 674.443 140.83 674.86 Q138.978 675.277 137.033 676.156 L137.033 658.795 Z" fill="#000000" fill-rule="nonzero" fill-opacity="1" /><path clip-path="url(#clip570)" d="M100.76 306.443 Q97.1493 306.443 95.3206 310.008 Q93.515 313.55 93.515 320.679 Q93.515 327.786 95.3206 331.351 Q97.1493 334.892 100.76 334.892 Q104.395 334.892 106.2 331.351 Q108.029 327.786 108.029 320.679 Q108.029 313.55 106.2 310.008 Q104.395 306.443 100.76 306.443 M100.76 302.74 Q106.571 302.74 109.626 307.346 Q112.705 311.93 112.705 320.679 Q112.705 329.406 109.626 334.013 Q106.571 338.596 100.76 338.596 Q94.9502 338.596 91.8715 334.013 Q88.816 329.406 88.816 320.679 Q88.816 311.93 91.8715 307.346 Q94.9502 302.74 100.76 302.74 Z" fill="#000000" fill-rule="nonzero" fill-opacity="1" /><path clip-path="url(#clip570)" d="M120.922 332.045 L125.807 332.045 L125.807 337.925 L120.922 337.925 L120.922 332.045 Z" fill="#000000" fill-rule="nonzero" fill-opacity="1" /><path clip-path="url(#clip570)" d="M145.992 306.443 Q142.381 306.443 140.552 310.008 Q138.746 313.55 138.746 320.679 Q138.746 327.786 140.552 331.351 Q142.381 334.892 145.992 334.892 Q149.626 334.892 151.431 331.351 Q153.26 327.786 153.26 320.679 Q153.26 313.55 151.431 310.008 Q149.626 306.443 145.992 306.443 M145.992 302.74 Q151.802 302.74 154.857 307.346 Q157.936 311.93 157.936 320.679 Q157.936 329.406 154.857 334.013 Q151.802 338.596 145.992 338.596 Q140.181 338.596 137.103 334.013 Q134.047 329.406 134.047 320.679 Q134.047 311.93 137.103 307.346 Q140.181 302.74 145.992 302.74 Z" fill="#000000" fill-rule="nonzero" fill-opacity="1" /><polyline clip-path="url(#clip572)" style="stroke:#009af9; stroke-linecap:round; stroke-linejoin:round; stroke-width:4; stroke-opacity:1; fill:none" points="193.936,320.645 196.097,328.789 198.258,336.826 200.419,344.756 202.58,352.581 204.741,360.303 206.902,367.921 209.063,375.439 211.224,382.858 213.385,390.177 215.546,397.4 217.707,404.527 219.868,411.56 222.029,418.499 224.19,425.346 226.351,432.103 228.512,438.77 230.673,445.349 232.834,451.84 234.995,458.245 237.156,464.566 239.317,470.802 241.478,476.956 243.639,483.028 245.8,489.02 247.961,494.933 250.122,500.766 252.282,506.523 254.443,512.203 256.604,517.808 258.765,523.339 260.926,528.796 263.087,534.181 265.248,539.495 267.409,544.738 269.57,549.912 271.731,555.017 273.892,560.054 276.053,565.025 278.214,569.93 280.375,574.769 282.536,579.545 284.697,584.257 286.858,588.907 289.019,593.495 291.18,598.022 293.341,602.489 295.502,606.897 297.663,611.247 299.824,615.539 301.985,619.773 304.146,623.952 306.307,628.076 308.468,632.144 310.629,636.159 312.79,640.121 314.951,644.03 317.112,647.887 319.273,651.693 321.434,655.449 323.595,659.155 325.756,662.812 327.917,666.42 330.078,669.98 332.239,673.494 334.4,676.96 336.561,680.381 338.722,683.756 340.883,687.087 343.044,690.373 345.205,693.616 347.366,696.816 349.527,699.973 351.688,703.089 353.849,706.163 356.01,709.196 358.171,712.189 360.332,715.143 362.493,718.057 364.653,720.933 366.814,723.771 368.975,726.571 371.136,729.334 373.297,732.06 375.458,734.75 377.619,737.404 379.78,739.999 381.941,742.496 384.102,744.91 386.263,747.258 388.424,749.554 390.585,751.812 392.746,754.045 394.907,756.264 397.068,758.479 399.229,760.702 401.39,762.939 403.551,765.199 405.712,767.489 407.873,769.813 410.034,772.176 412.195,774.582 414.356,777.033 416.517,779.531 418.678,782.076 420.839,784.667 423,787.302 425.161,789.98 427.322,792.697 429.483,795.446 431.644,798.224 433.805,801.023 435.966,803.836 438.127,806.653 440.288,809.464 442.449,812.26 444.61,815.028 446.771,817.754 448.932,820.426 451.093,823.028 453.254,825.563 455.415,828.064 457.576,830.531 459.737,832.965 461.898,835.367 464.059,837.738 466.22,840.076 468.381,842.384 470.542,844.662 472.703,846.909 474.864,849.126 477.024,851.314 479.185,853.473 481.346,855.603 483.507,857.705 485.668,859.779 487.829,861.825 489.99,863.845 492.151,865.838 494.312,867.804 496.473,869.744 498.634,871.659 500.795,873.548 502.956,875.412 505.117,877.252 507.278,879.067 509.439,880.859 511.6,882.627 513.761,884.371 515.922,886.092 518.083,887.791 520.244,889.467 522.405,891.121 524.566,892.753 526.727,894.363 528.888,895.952 531.049,897.52 533.21,899.067 535.371,900.594 537.532,902.1 539.693,903.586 541.854,905.052 544.015,906.499 546.176,907.927 548.337,909.335 550.498,910.725 552.659,912.096 554.82,913.449 556.981,914.784 559.142,916.101 561.303,917.401 563.464,918.684 565.625,919.949 567.786,921.197 569.947,922.429 572.108,923.645 574.269,924.844 576.43,926.027 578.591,927.195 580.752,928.347 582.913,929.484 585.074,930.606 587.235,931.712 589.396,932.805 591.556,933.882 593.717,934.946 595.878,935.995 598.039,937.031 600.2,938.052 602.361,939.061 604.522,940.056 606.683,941.037 608.844,942.006 611.005,942.962 613.166,943.906 615.327,944.837 617.488,945.756 619.649,946.598 621.81,947.108 623.971,947.284 626.132,947.154 628.293,946.744 630.454,946.079 632.615,945.184 634.776,944.082 636.937,942.795 639.098,941.345 641.259,939.752 643.42,938.037 645.581,936.216 647.742,934.309 649.903,932.331 652.064,930.297 654.225,928.224 656.386,926.123 658.547,924.008 660.708,921.89 662.869,919.78 665.03,917.687 667.191,915.621 669.352,913.589 671.513,911.597 673.674,909.651 675.835,907.757 677.996,905.917 680.157,904.134 682.318,902.411 684.479,900.748 686.64,899.145 688.801,897.601 690.962,896.113 693.123,894.679 695.284,893.294 697.445,891.953 699.606,890.651 701.767,889.379 703.927,888.131 706.088,886.896 708.249,885.666 710.41,884.428 712.571,883.172 714.732,881.904 716.893,880.653 719.054,879.418 721.215,878.2 723.376,876.997 725.537,875.811 727.698,874.64 729.859,873.485 732.02,872.345 734.181,871.221 736.342,870.111 738.503,869.016 740.664,867.935 742.825,866.869 744.986,865.817 747.147,864.779 749.308,863.755 751.469,862.744 753.63,861.747 755.791,860.763 757.952,859.792 760.113,858.834 762.274,857.888 764.435,856.955 766.596,856.035 768.757,855.126 770.918,854.23 773.079,853.345 775.24,852.473 777.401,851.611 779.562,850.763 781.723,849.946 783.884,849.163 786.045,848.413 788.206,847.692 790.367,846.997 792.528,846.326 794.689,845.675 796.85,845.042 799.011,844.425 801.172,843.822 803.333,843.229 805.494,842.644 807.655,842.067 809.816,841.493 811.977,840.922 814.138,840.352 816.298,839.78 818.459,839.205 820.62,838.625 822.781,838.039 824.942,837.446 827.103,836.843 829.264,836.23 831.425,835.605 833.586,834.968 835.747,834.317 837.908,833.652 840.069,832.971 842.23,832.274 844.391,831.56 846.552,830.829 848.713,830.079 850.874,829.311 853.035,828.525 855.196,827.72 857.357,826.895 859.518,826.052 861.679,825.19 863.84,824.308 866.001,823.408 868.162,822.489 870.323,821.553 872.484,820.599 874.645,819.627 876.806,818.64 878.967,817.637 881.128,816.619 883.289,815.587 885.45,814.542 887.611,813.486 889.772,812.419 891.933,811.342 894.094,810.258 896.255,809.167 898.416,808.071 900.577,806.971 902.738,805.87 904.899,804.769 907.06,803.67 909.221,802.575 911.382,801.486 913.543,800.405 915.704,799.334 917.865,798.277 920.026,797.234 922.187,796.209 924.348,795.204 926.509,794.222 928.669,793.265 930.83,792.337 932.991,791.441 935.152,790.568 937.313,789.708 939.474,788.858 941.635,788.02 943.796,787.193 945.957,786.377 948.118,785.572 950.279,784.778 952.44,783.994 954.601,783.22 956.762,782.457 958.923,781.704 961.084,780.961 963.245,780.227 965.406,779.504 967.567,778.79 969.728,778.085 971.889,777.39 974.05,776.704 976.211,776.028 978.372,775.36 980.533,774.701 982.694,774.051 984.855,773.409 987.016,772.776 989.177,772.152 991.338,771.535 993.499,770.927 995.66,770.327 997.821,769.735 999.982,769.151 1002.14,768.574 1004.3,768.005 1006.46,767.444 1008.63,766.89 1010.79,766.343 1012.95,765.804 1015.11,765.272 1017.27,764.746 1019.43,764.228 1021.59,763.717 1023.75,763.212 1025.91,762.723 1028.07,762.341 1030.24,762.074 1032.4,761.898 1034.56,761.792 1036.72,761.733 1038.88,761.701 1041.04,761.678 1043.2,761.647 1045.36,761.59 1047.52,761.493 1049.68,761.341 1051.85,761.121 1054.01,760.823 1056.17,760.435 1058.33,759.949 1060.49,759.356 1062.65,758.65 1064.81,757.824 1066.97,756.875 1069.13,755.8 1071.29,754.595 1073.46,753.261 1075.62,751.798 1077.78,750.208 1079.94,748.493 1082.1,746.657 1084.26,744.705 1086.42,742.645 1088.58,740.482 1090.74,738.227 1092.9,735.89 1095.07,733.481 1097.23,731.012 1099.39,728.499 1101.55,725.954 1103.71,723.395 1105.87,720.838 1108.03,718.303 1110.19,715.807 1112.35,713.374 1114.51,711.023 1116.67,708.779 1118.84,706.618 1121,704.485 1123.16,702.381 1125.32,700.304 1127.48,698.255 1129.64,696.233 1131.8,694.238 1133.96,692.27 1136.12,690.327 1138.28,688.411 1140.45,686.519 1142.61,684.653 1144.77,682.812 1146.93,680.995 1149.09,679.202 1151.25,677.433 1153.41,675.687 1155.57,673.964 1157.73,672.265 1159.89,670.588 1162.06,668.933 1164.22,667.3 1166.38,665.688 1168.54,664.098 1170.7,662.529 1172.86,660.981 1175.02,659.453 1177.18,657.946 1179.34,656.458 1181.5,654.99 1183.67,653.542 1185.83,652.112 1187.99,650.702 1190.15,649.31 1192.31,647.937 1194.47,646.582 1196.63,645.245 1198.79,643.926 1200.95,642.624 1203.11,641.34 1205.28,640.072 1207.44,638.822 1209.6,637.588 1211.76,636.37 1213.92,635.169 1216.08,633.983 1218.24,632.814 1220.4,631.659 1222.56,630.521 1224.72,629.397 1226.88,628.288 1229.05,627.194 1231.21,626.115 1233.37,625.05 1235.53,623.999 1237.69,622.962 1239.85,621.938 1242.01,620.929 1244.17,619.933 1246.33,618.949 1248.49,617.979 1250.66,617.022 1252.82,616.078 1254.98,615.146 1257.14,614.226 1259.3,613.319 1261.46,612.423 1263.62,611.539 1265.78,610.667 1267.94,609.807 1270.1,608.958 1272.27,608.12 1274.43,607.43 1276.59,607.275 1278.75,607.631 1280.91,608.448 1283.07,609.674 1285.23,611.264 1287.39,613.172 1289.55,615.357 1291.71,617.778 1293.88,620.397 1296.04,623.179 1298.2,626.091 1300.36,629.101 1302.52,632.182 1304.68,635.305 1306.84,638.449 1309,641.59 1311.16,644.71 1313.32,647.791 1315.49,650.818 1317.65,653.779 1319.81,656.663 1321.97,659.463 1324.13,662.173 1326.29,664.789 1328.45,667.31 1330.61,669.737 1332.77,672.075 1334.93,674.328 1337.09,676.505 1339.26,678.616 1341.42,680.674 1343.58,682.693 1345.74,684.691 1347.9,686.688 1350.06,688.705 1352.22,690.753 1354.38,692.782 1356.54,694.784 1358.7,696.759 1360.87,698.708 1363.03,700.631 1365.19,702.529 1367.35,704.401 1369.51,706.249 1371.67,708.072 1373.83,709.871 1375.99,711.646 1378.15,713.397 1380.31,715.126 1382.48,716.831 1384.64,718.514 1386.8,720.174 1388.96,721.813 1391.12,723.43 1393.28,725.025 1395.44,726.599 1397.6,728.153 1399.76,729.685 1401.92,731.198 1404.09,732.69 1406.25,734.163 1408.41,735.616 1410.57,737.049 1412.73,738.464 1414.89,739.86 1417.05,741.238 1419.21,742.597 1421.37,743.939 1423.53,745.262 1425.7,746.568 1427.86,747.857 1430.02,749.128 1432.18,750.383 1434.34,751.621 1436.5,752.843 1438.66,754.048 1440.82,755.238 1442.98,756.411 1445.14,757.569 1447.3,758.712 1449.47,759.839 1451.63,760.952 1453.79,762.05 1455.95,763.133 1458.11,764.202 1460.27,765.257 1462.43,766.297 1464.59,767.324 1466.75,768.338 1468.91,769.337 1471.08,770.324 1473.24,771.298 1475.4,772.258 1477.56,773.206 1479.72,774.142 1481.88,775.065 1484.04,775.975 1486.2,776.737 1488.36,776.839 1490.52,776.293 1492.69,775.165 1494.85,773.518 1497.01,771.412 1499.17,768.906 1501.33,766.053 1503.49,762.905 1505.65,759.511 1507.81,755.914 1509.97,752.159 1512.13,748.285 1514.3,744.327 1516.46,740.32 1518.62,736.293 1520.78,732.275 1522.94,728.289 1525.1,724.357 1527.26,720.498 1529.42,716.727 1531.58,713.056 1533.74,709.495 1535.91,706.05 1538.07,702.726 1540.23,699.522 1542.39,696.435 1544.55,693.461 1546.71,690.591 1548.87,687.813 1551.03,685.113 1553.19,682.474 1555.35,679.874 1557.51,677.291 1559.68,674.698 1561.84,672.066 1564,669.427 1566.16,666.823 1568.32,664.253 1570.48,661.718 1572.64,659.216 1574.8,656.747 1576.96,654.311 1579.12,651.907 1581.29,649.535 1583.45,647.194 1585.61,644.885 1587.77,642.606 1589.93,640.358 1592.09,638.139 1594.25,635.95 1596.41,633.789 1598.57,631.657 1600.73,629.554 1602.9,627.478 1605.06,625.43 1607.22,623.41 1609.38,621.415 1611.54,619.448 1613.7,617.506 1615.86,615.59 1618.02,613.7 1620.18,611.834 1622.34,609.993 1624.51,608.177 1626.67,606.385 1628.83,604.616 1630.99,602.871 1633.15,601.149 1635.31,599.45 1637.47,597.773 1639.63,596.119 1641.79,594.487 1643.95,592.876 1646.12,591.287 1648.28,589.719 1650.44,588.171 1652.6,586.645 1654.76,585.138 1656.92,583.651 1659.08,582.184 1661.24,580.737 1663.4,579.309 1665.56,577.9 1667.72,576.509 1669.89,575.137 1672.05,573.783 1674.21,572.447 1676.37,571.128 1678.53,569.828 1680.69,568.544 1682.85,567.277 1685.01,566.028 1687.17,564.794 1689.33,563.577 1691.5,562.376 1693.66,561.192 1695.82,560.022 1697.98,558.869 1700.14,558.302 1702.3,560.097 1704.46,564.062 1706.62,569.863 1708.78,577.185 1710.94,585.739 1713.11,595.259 1715.27,605.503 1717.43,616.253 1719.59,627.313 1721.75,638.512 1723.91,649.702 1726.07,660.758 1728.23,671.579 1730.39,682.088 1732.55,692.231 1734.72,701.978 1736.88,711.322 1739.04,720.28 1741.2,728.893 1743.36,737.224 1745.52,745.362 1747.68,753.416 1749.84,761.522 1752,769.754 1754.16,777.901 1756.33,785.94 1758.49,793.872 1760.65,801.699 1762.81,809.423 1764.97,817.044 1767.13,824.563 1769.29,831.984 1771.45,839.305 1773.61,846.53 1775.77,853.659 1777.93,860.693 1780.1,867.635 1782.26,874.484 1784.42,881.242 1786.58,887.911 1788.74,894.492 1790.9,900.985 1793.06,907.393 1795.22,913.715 1797.38,919.954 1799.54,926.11 1801.71,932.184 1803.87,938.178 1806.03,944.092 1808.19,949.928 1810.35,955.687 1812.51,961.368 1814.67,966.975 1816.83,972.507 1818.99,977.966 1821.15,983.352 1823.32,988.667 1825.48,993.911 1827.64,999.086 1829.8,1004.19 1831.96,1009.23 1834.12,1014.2 1836.28,1019.11 1838.44,1023.95 1840.6,1028.72 1842.76,1033.44 1844.93,1038.09 1847.09,1042.68 1849.25,1047.2 1851.41,1051.67 1853.57,1056.08 1855.73,1060.43 1857.89,1064.73 1860.05,1068.96 1862.21,1073.14 1864.37,1077.27 1866.54,1081.34 1868.7,1085.35 1870.86,1089.31 1873.02,1093.22 1875.18,1097.08 1877.34,1100.89 1879.5,1104.65 1881.66,1108.35 1883.82,1112.01 1885.98,1115.62 1888.15,1119.18 1890.31,1122.7 1892.47,1126.16 1894.63,1129.58 1896.79,1132.96 1898.95,1136.29 1901.11,1139.58 1903.27,1142.82 1905.43,1146.02 1907.59,1149.18 1909.75,1152.3 1911.92,1155.37 1914.08,1158.4 1916.24,1159.89 1918.4,1158.8 1920.56,1155.4 1922.72,1149.96 1924.88,1142.73 1927.04,1133.94 1929.2,1123.81 1931.36,1112.56 1933.53,1100.39 1935.69,1087.48 1937.85,1073.99 1940.01,1060.09 1942.17,1045.92 1944.33,1031.62 1946.49,1017.29 1948.65,1003.04 1950.81,988.975 1952.97,975.16 1955.14,961.662 1957.3,948.535 1959.46,935.817 1961.62,923.533 1963.78,911.695 1965.94,900.302 1968.1,889.34 1970.26,878.782 1972.42,868.586 1974.58,858.699 1976.75,849.054 1978.91,839.571 1981.07,830.156 1983.23,820.702 1985.39,811.094 1987.55,801.483 1989.71,792 1991.87,782.642 1994.03,773.409 1996.19,764.297 1998.36,755.307 2000.52,746.436 2002.68,737.682 2004.84,729.045 2007,720.522 2009.16,712.112 2011.32,703.813 2013.48,695.625 2015.64,687.545 2017.8,679.572 2019.96,671.705 2022.13,663.942 2024.29,656.282 2026.45,648.723 2028.61,641.264 2030.77,633.903 2032.93,626.64 2035.09,619.474 2037.25,612.402 2039.41,605.424 2041.57,598.539 2043.74,591.745 2045.9,585.041 2048.06,578.426 2050.22,571.899 2052.38,565.458 2054.54,559.103 2056.7,552.833 2058.86,546.645 2061.02,540.54 2063.18,534.516 2065.35,528.572 2067.51,522.707 2069.67,516.92 2071.83,511.21 2073.99,505.575 2076.15,500.016 2078.31,494.53 2080.47,489.117 2082.63,483.776 2084.79,478.506 2086.96,473.305 2089.12,468.174 2091.28,463.111 2093.44,458.114 2095.6,453.184 2097.76,448.32 2099.92,443.52 2102.08,438.783 2104.24,434.109 2106.4,429.497 2108.57,424.946 2110.73,420.455 2112.89,416.024 2115.05,411.651 2117.21,407.336 2119.37,403.079 2121.53,398.877 2123.69,394.732 2125.85,390.641 2128.01,386.604 2130.17,382.621 2132.34,378.691 2134.5,374.813 2136.66,372.454 2138.82,380.689 2140.98,388.726 2143.14,396.656 2145.3,404.482 2147.46,412.203 2149.62,419.822 2151.78,427.34 2153.95,434.759 2156.11,442.079 2158.27,449.302 2160.43,456.429 2162.59,463.462 2164.75,470.402 2166.91,477.249 2169.07,484.006 2171.23,490.673 2173.39,497.252 2175.56,503.743 2177.72,510.149 2179.88,516.47 2182.04,522.706 2184.2,528.86 2186.36,534.933 2188.52,540.925 2190.68,546.837 2192.84,552.672 2195,558.428 2197.17,564.109 2199.33,569.714 2201.49,575.245 2203.65,580.702 2205.81,586.088 2207.97,591.401 2210.13,596.645 2212.29,601.819 2214.45,606.924 2216.61,611.961 2218.78,616.932 2220.94,621.837 2223.1,626.677 2225.26,631.453 2227.42,636.165 2229.58,640.815 2231.74,645.403 2233.9,649.93 2236.06,654.398 2238.22,658.806 2240.38,663.155 2242.55,667.447 2244.71,671.682 2246.87,675.861 2249.03,679.985 2251.19,684.054 2253.35,688.069 2255.51,692.031 2257.67,695.94 2259.83,699.797 2261.99,703.604 2264.16,707.359 2266.32,711.065 2268.48,714.722 2270.64,718.331 2272.8,721.891 2274.96,725.405 2277.12,728.871 2279.28,732.292 2281.44,735.667 2283.6,738.998 2285.77,742.284 2287.93,745.527 2290.09,748.727 2292.25,751.885 2294.41,755 2296.57,758.075 2298.73,761.108 2300.89,764.101 2303.05,767.055 2305.21,769.97 2307.38,772.845 2309.54,775.683 2311.7,778.483 2313.86,781.246 2316.02,783.973 2318.18,786.663 2320.34,789.317 2322.5,791.937 2324.66,794.521 2326.82,797.072 2328.99,799.588 2331.15,802.072 2333.31,804.522 2335.47,806.94 2337.63,809.325 2339.79,811.679 2341.95,814.002 2344.11,816.294 2346.27,818.556 2348.43,820.788 2350.59,822.99 2352.76,825.163 "/>
<polyline clip-path="url(#clip572)" style="stroke:#e26f46; stroke-linecap:round; stroke-linejoin:round; stroke-width:4; stroke-opacity:1; fill:none" points="193.936,934.966 196.097,934.966 198.258,934.966 200.419,934.966 202.58,934.966 204.741,934.966 206.902,934.966 209.063,934.966 211.224,934.966 213.385,934.966 215.546,934.966 217.707,934.966 219.868,934.966 222.029,934.966 224.19,934.966 226.351,934.966 228.512,934.966 230.673,934.966 232.834,934.966 234.995,934.966 237.156,934.966 239.317,934.966 241.478,934.966 243.639,934.966 245.8,934.966 247.961,934.966 250.122,934.966 252.282,934.966 254.443,934.966 256.604,934.966 258.765,934.966 260.926,934.966 263.087,934.966 265.248,934.966 267.409,934.966 269.57,934.966 271.731,934.966 273.892,934.966 276.053,934.966 278.214,934.966 280.375,934.966 282.536,934.966 284.697,934.966 286.858,934.966 289.019,934.966 291.18,934.966 293.341,934.966 295.502,934.966 297.663,934.966 299.824,934.966 301.985,934.966 304.146,934.966 306.307,934.966 308.468,934.966 310.629,934.966 312.79,934.966 314.951,934.966 317.112,934.966 319.273,934.966 321.434,934.966 323.595,934.966 325.756,934.966 327.917,934.966 330.078,934.966 332.239,934.966 334.4,934.966 336.561,934.966 338.722,934.966 340.883,934.966 343.044,934.966 345.205,934.966 347.366,934.966 349.527,934.966 351.688,934.966 353.849,934.966 356.01,934.966 358.171,934.966 360.332,934.966 362.493,934.966 364.653,934.966 366.814,934.966 368.975,934.966 371.136,934.966 373.297,934.966 375.458,934.966 377.619,934.966 379.78,934.966 381.941,934.966 384.102,934.966 386.263,934.966 388.424,934.966 390.585,934.966 392.746,934.966 394.907,934.966 397.068,934.966 399.229,934.966 401.39,934.966 403.551,934.966 405.712,934.966 407.873,934.966 410.034,1014.15 412.195,1014.15 414.356,1014.15 416.517,1014.15 418.678,1014.15 420.839,1014.15 423,1014.15 425.161,1014.15 427.322,1014.15 429.483,1014.15 431.644,1014.15 433.805,1014.15 435.966,1014.15 438.127,1014.15 440.288,1014.15 442.449,1014.15 444.61,1014.15 446.771,1014.15 448.932,1014.15 451.093,1014.15 453.254,1014.15 455.415,1014.15 457.576,1014.15 459.737,1014.15 461.898,1014.15 464.059,1014.15 466.22,1014.15 468.381,1014.15 470.542,1014.15 472.703,1014.15 474.864,1014.15 477.024,1014.15 479.185,1014.15 481.346,1014.15 483.507,1014.15 485.668,1014.15 487.829,1014.15 489.99,1014.15 492.151,1014.15 494.312,1014.15 496.473,1014.15 498.634,1014.15 500.795,1014.15 502.956,1014.15 505.117,1014.15 507.278,1014.15 509.439,1014.15 511.6,1014.15 513.761,1014.15 515.922,1014.15 518.083,1014.15 520.244,1014.15 522.405,1014.15 524.566,1014.15 526.727,1014.15 528.888,1014.15 531.049,1014.15 533.21,1014.15 535.371,1014.15 537.532,1014.15 539.693,1014.15 541.854,1014.15 544.015,1014.15 546.176,1014.15 548.337,1014.15 550.498,1014.15 552.659,1014.15 554.82,1014.15 556.981,1014.15 559.142,1014.15 561.303,1014.15 563.464,1014.15 565.625,1014.15 567.786,1014.15 569.947,1014.15 572.108,1014.15 574.269,1014.15 576.43,1014.15 578.591,1014.15 580.752,1014.15 582.913,1014.15 585.074,1014.15 587.235,1014.15 589.396,1014.15 591.556,1014.15 593.717,1014.15 595.878,1014.15 598.039,1014.15 600.2,1014.15 602.361,1014.15 604.522,1014.15 606.683,1014.15 608.844,1014.15 611.005,1014.15 613.166,1014.15 615.327,1014.15 617.488,1014.15 619.649,1014.15 621.81,1014.15 623.971,1014.15 626.132,787.518 628.293,787.518 630.454,787.518 632.615,787.518 634.776,787.518 636.937,787.518 639.098,787.518 641.259,787.518 643.42,787.518 645.581,787.518 647.742,787.518 649.903,787.518 652.064,787.518 654.225,787.518 656.386,787.518 658.547,787.518 660.708,787.518 662.869,787.518 665.03,787.518 667.191,787.518 669.352,787.518 671.513,787.518 673.674,787.518 675.835,787.518 677.996,787.518 680.157,787.518 682.318,787.518 684.479,787.518 686.64,787.518 688.801,787.518 690.962,787.518 693.123,787.518 695.284,787.518 697.445,787.518 699.606,787.518 701.767,787.518 703.927,787.518 706.088,787.518 708.249,787.518 710.41,787.518 712.571,787.518 714.732,787.518 716.893,787.518 719.054,787.518 721.215,787.518 723.376,787.518 725.537,787.518 727.698,787.518 729.859,787.518 732.02,787.518 734.181,787.518 736.342,787.518 738.503,787.518 740.664,787.518 742.825,787.518 744.986,787.518 747.147,787.518 749.308,787.518 751.469,787.518 753.63,787.518 755.791,787.518 757.952,787.518 760.113,787.518 762.274,787.518 764.435,787.518 766.596,787.518 768.757,787.518 770.918,787.518 773.079,787.518 775.24,787.518 777.401,787.518 779.562,787.518 781.723,787.518 783.884,787.518 786.045,787.518 788.206,787.518 790.367,787.518 792.528,787.518 794.689,787.518 796.85,787.518 799.011,787.518 801.172,787.518 803.333,787.518 805.494,787.518 807.655,787.518 809.816,787.518 811.977,787.518 814.138,787.518 816.298,787.518 818.459,787.518 820.62,787.518 822.781,787.518 824.942,787.518 827.103,787.518 829.264,787.518 831.425,787.518 833.586,787.518 835.747,787.518 837.908,787.518 840.069,787.518 842.23,725.657 844.391,725.657 846.552,725.657 848.713,725.657 850.874,725.657 853.035,725.657 855.196,725.657 857.357,725.657 859.518,725.657 861.679,725.657 863.84,725.657 866.001,725.657 868.162,725.657 870.323,725.657 872.484,725.657 874.645,725.657 876.806,725.657 878.967,725.657 881.128,725.657 883.289,725.657 885.45,725.657 887.611,725.657 889.772,725.657 891.933,725.657 894.094,725.657 896.255,725.657 898.416,725.657 900.577,725.657 902.738,725.657 904.899,725.657 907.06,725.657 909.221,725.657 911.382,725.657 913.543,725.657 915.704,725.657 917.865,725.657 920.026,725.657 922.187,725.657 924.348,725.657 926.509,725.657 928.669,725.657 930.83,725.657 932.991,725.657 935.152,725.657 937.313,725.657 939.474,725.657 941.635,725.657 943.796,725.657 945.957,725.657 948.118,725.657 950.279,725.657 952.44,725.657 954.601,725.657 956.762,725.657 958.923,725.657 961.084,725.657 963.245,725.657 965.406,725.657 967.567,725.657 969.728,725.657 971.889,725.657 974.05,725.657 976.211,725.657 978.372,725.657 980.533,725.657 982.694,725.657 984.855,725.657 987.016,725.657 989.177,725.657 991.338,725.657 993.499,725.657 995.66,725.657 997.821,725.657 999.982,725.657 1002.14,725.657 1004.3,725.657 1006.46,725.657 1008.63,725.657 1010.79,725.657 1012.95,725.657 1015.11,725.657 1017.27,725.657 1019.43,725.657 1021.59,725.657 1023.75,725.657 1025.91,725.657 1028.07,725.657 1030.24,725.657 1032.4,725.657 1034.56,725.657 1036.72,725.657 1038.88,725.657 1041.04,725.657 1043.2,725.657 1045.36,725.657 1047.52,725.657 1049.68,725.657 1051.85,725.657 1054.01,725.657 1056.17,725.657 1058.33,545.76 1060.49,545.76 1062.65,545.76 1064.81,545.76 1066.97,545.76 1069.13,545.76 1071.29,545.76 1073.46,545.76 1075.62,545.76 1077.78,545.76 1079.94,545.76 1082.1,545.76 1084.26,545.76 1086.42,545.76 1088.58,545.76 1090.74,545.76 1092.9,545.76 1095.07,545.76 1097.23,545.76 1099.39,545.76 1101.55,545.76 1103.71,545.76 1105.87,545.76 1108.03,545.76 1110.19,545.76 1112.35,545.76 1114.51,545.76 1116.67,545.76 1118.84,545.76 1121,545.76 1123.16,545.76 1125.32,545.76 1127.48,545.76 1129.64,545.76 1131.8,545.76 1133.96,545.76 1136.12,545.76 1138.28,545.76 1140.45,545.76 1142.61,545.76 1144.77,545.76 1146.93,545.76 1149.09,545.76 1151.25,545.76 1153.41,545.76 1155.57,545.76 1157.73,545.76 1159.89,545.76 1162.06,545.76 1164.22,545.76 1166.38,545.76 1168.54,545.76 1170.7,545.76 1172.86,545.76 1175.02,545.76 1177.18,545.76 1179.34,545.76 1181.5,545.76 1183.67,545.76 1185.83,545.76 1187.99,545.76 1190.15,545.76 1192.31,545.76 1194.47,545.76 1196.63,545.76 1198.79,545.76 1200.95,545.76 1203.11,545.76 1205.28,545.76 1207.44,545.76 1209.6,545.76 1211.76,545.76 1213.92,545.76 1216.08,545.76 1218.24,545.76 1220.4,545.76 1222.56,545.76 1224.72,545.76 1226.88,545.76 1229.05,545.76 1231.21,545.76 1233.37,545.76 1235.53,545.76 1237.69,545.76 1239.85,545.76 1242.01,545.76 1244.17,545.76 1246.33,545.76 1248.49,545.76 1250.66,545.76 1252.82,545.76 1254.98,545.76 1257.14,545.76 1259.3,545.76 1261.46,545.76 1263.62,545.76 1265.78,545.76 1267.94,545.76 1270.1,545.76 1272.27,545.76 1274.43,843.76 1276.59,843.76 1278.75,843.76 1280.91,843.76 1283.07,843.76 1285.23,843.76 1287.39,843.76 1289.55,843.76 1291.71,843.76 1293.88,843.76 1296.04,843.76 1298.2,843.76 1300.36,843.76 1302.52,843.76 1304.68,843.76 1306.84,843.76 1309,843.76 1311.16,843.76 1313.32,843.76 1315.49,843.76 1317.65,843.76 1319.81,843.76 1321.97,843.76 1324.13,843.76 1326.29,843.76 1328.45,843.76 1330.61,843.76 1332.77,843.76 1334.93,843.76 1337.09,843.76 1339.26,843.76 1341.42,843.76 1343.58,843.76 1345.74,843.76 1347.9,843.76 1350.06,843.76 1352.22,843.76 1354.38,843.76 1356.54,843.76 1358.7,843.76 1360.87,843.76 1363.03,843.76 1365.19,843.76 1367.35,843.76 1369.51,843.76 1371.67,843.76 1373.83,843.76 1375.99,843.76 1378.15,843.76 1380.31,843.76 1382.48,843.76 1384.64,843.76 1386.8,843.76 1388.96,843.76 1391.12,843.76 1393.28,843.76 1395.44,843.76 1397.6,843.76 1399.76,843.76 1401.92,843.76 1404.09,843.76 1406.25,843.76 1408.41,843.76 1410.57,843.76 1412.73,843.76 1414.89,843.76 1417.05,843.76 1419.21,843.76 1421.37,843.76 1423.53,843.76 1425.7,843.76 1427.86,843.76 1430.02,843.76 1432.18,843.76 1434.34,843.76 1436.5,843.76 1438.66,843.76 1440.82,843.76 1442.98,843.76 1445.14,843.76 1447.3,843.76 1449.47,843.76 1451.63,843.76 1453.79,843.76 1455.95,843.76 1458.11,843.76 1460.27,843.76 1462.43,843.76 1464.59,843.76 1466.75,843.76 1468.91,843.76 1471.08,843.76 1473.24,843.76 1475.4,843.76 1477.56,843.76 1479.72,843.76 1481.88,843.76 1484.04,843.76 1486.2,843.76 1488.36,843.76 1490.52,473.003 1492.69,473.003 1494.85,473.003 1497.01,473.003 1499.17,473.003 1501.33,473.003 1503.49,473.003 1505.65,473.003 1507.81,473.003 1509.97,473.003 1512.13,473.003 1514.3,473.003 1516.46,473.003 1518.62,473.003 1520.78,473.003 1522.94,473.003 1525.1,473.003 1527.26,473.003 1529.42,473.003 1531.58,473.003 1533.74,473.003 1535.91,473.003 1538.07,473.003 1540.23,473.003 1542.39,473.003 1544.55,473.003 1546.71,473.003 1548.87,473.003 1551.03,473.003 1553.19,473.003 1555.35,473.003 1557.51,473.003 1559.68,473.003 1561.84,473.003 1564,473.003 1566.16,473.003 1568.32,473.003 1570.48,473.003 1572.64,473.003 1574.8,473.003 1576.96,473.003 1579.12,473.003 1581.29,473.003 1583.45,473.003 1585.61,473.003 1587.77,473.003 1589.93,473.003 1592.09,473.003 1594.25,473.003 1596.41,473.003 1598.57,473.003 1600.73,473.003 1602.9,473.003 1605.06,473.003 1607.22,473.003 1609.38,473.003 1611.54,473.003 1613.7,473.003 1615.86,473.003 1618.02,473.003 1620.18,473.003 1622.34,473.003 1624.51,473.003 1626.67,473.003 1628.83,473.003 1630.99,473.003 1633.15,473.003 1635.31,473.003 1637.47,473.003 1639.63,473.003 1641.79,473.003 1643.95,473.003 1646.12,473.003 1648.28,473.003 1650.44,473.003 1652.6,473.003 1654.76,473.003 1656.92,473.003 1659.08,473.003 1661.24,473.003 1663.4,473.003 1665.56,473.003 1667.72,473.003 1669.89,473.003 1672.05,473.003 1674.21,473.003 1676.37,473.003 1678.53,473.003 1680.69,473.003 1682.85,473.003 1685.01,473.003 1687.17,473.003 1689.33,473.003 1691.5,473.003 1693.66,473.003 1695.82,473.003 1697.98,473.003 1700.14,473.003 1702.3,473.003 1704.46,473.003 1706.62,1384.24 1708.78,1384.24 1710.94,1384.24 1713.11,1384.24 1715.27,1384.24 1717.43,1384.24 1719.59,1384.24 1721.75,1384.24 1723.91,1384.24 1726.07,1384.24 1728.23,1384.24 1730.39,1384.24 1732.55,1384.24 1734.72,1384.24 1736.88,1384.24 1739.04,1384.24 1741.2,1384.24 1743.36,1384.24 1745.52,1384.24 1747.68,1384.24 1749.84,1384.24 1752,1384.24 1754.16,1384.24 1756.33,1384.24 1758.49,1384.24 1760.65,1384.24 1762.81,1384.24 1764.97,1384.24 1767.13,1384.24 1769.29,1384.24 1771.45,1384.24 1773.61,1384.24 1775.77,1384.24 1777.93,1384.24 1780.1,1384.24 1782.26,1384.24 1784.42,1384.24 1786.58,1384.24 1788.74,1384.24 1790.9,1384.24 1793.06,1384.24 1795.22,1384.24 1797.38,1384.24 1799.54,1384.24 1801.71,1384.24 1803.87,1384.24 1806.03,1384.24 1808.19,1384.24 1810.35,1384.24 1812.51,1384.24 1814.67,1384.24 1816.83,1384.24 1818.99,1384.24 1821.15,1384.24 1823.32,1384.24 1825.48,1384.24 1827.64,1384.24 1829.8,1384.24 1831.96,1384.24 1834.12,1384.24 1836.28,1384.24 1838.44,1384.24 1840.6,1384.24 1842.76,1384.24 1844.93,1384.24 1847.09,1384.24 1849.25,1384.24 1851.41,1384.24 1853.57,1384.24 1855.73,1384.24 1857.89,1384.24 1860.05,1384.24 1862.21,1384.24 1864.37,1384.24 1866.54,1384.24 1868.7,1384.24 1870.86,1384.24 1873.02,1384.24 1875.18,1384.24 1877.34,1384.24 1879.5,1384.24 1881.66,1384.24 1883.82,1384.24 1885.98,1384.24 1888.15,1384.24 1890.31,1384.24 1892.47,1384.24 1894.63,1384.24 1896.79,1384.24 1898.95,1384.24 1901.11,1384.24 1903.27,1384.24 1905.43,1384.24 1907.59,1384.24 1909.75,1384.24 1911.92,1384.24 1914.08,1384.24 1916.24,1384.24 1918.4,1384.24 1920.56,1384.24 1922.72,86.1857 1924.88,86.1857 1927.04,86.1857 1929.2,86.1857 1931.36,86.1857 1933.53,86.1857 1935.69,86.1857 1937.85,86.1857 1940.01,86.1857 1942.17,86.1857 1944.33,86.1857 1946.49,86.1857 1948.65,86.1857 1950.81,86.1857 1952.97,86.1857 1955.14,86.1857 1957.3,86.1857 1959.46,86.1857 1961.62,86.1857 1963.78,86.1857 1965.94,86.1857 1968.1,86.1857 1970.26,86.1857 1972.42,86.1857 1974.58,86.1857 1976.75,86.1857 1978.91,86.1857 1981.07,86.1857 1983.23,86.1857 1985.39,86.1857 1987.55,86.1857 1989.71,86.1857 1991.87,86.1857 1994.03,86.1857 1996.19,86.1857 1998.36,86.1857 2000.52,86.1857 2002.68,86.1857 2004.84,86.1857 2007,86.1857 2009.16,86.1857 2011.32,86.1857 2013.48,86.1857 2015.64,86.1857 2017.8,86.1857 2019.96,86.1857 2022.13,86.1857 2024.29,86.1857 2026.45,86.1857 2028.61,86.1857 2030.77,86.1857 2032.93,86.1857 2035.09,86.1857 2037.25,86.1857 2039.41,86.1857 2041.57,86.1857 2043.74,86.1857 2045.9,86.1857 2048.06,86.1857 2050.22,86.1857 2052.38,86.1857 2054.54,86.1857 2056.7,86.1857 2058.86,86.1857 2061.02,86.1857 2063.18,86.1857 2065.35,86.1857 2067.51,86.1857 2069.67,86.1857 2071.83,86.1857 2073.99,86.1857 2076.15,86.1857 2078.31,86.1857 2080.47,86.1857 2082.63,86.1857 2084.79,86.1857 2086.96,86.1857 2089.12,86.1857 2091.28,86.1857 2093.44,86.1857 2095.6,86.1857 2097.76,86.1857 2099.92,86.1857 2102.08,86.1857 2104.24,86.1857 2106.4,86.1857 2108.57,86.1857 2110.73,86.1857 2112.89,86.1857 2115.05,86.1857 2117.21,86.1857 2119.37,86.1857 2121.53,86.1857 2123.69,86.1857 2125.85,86.1857 2128.01,86.1857 2130.17,86.1857 2132.34,86.1857 2134.5,86.1857 2136.66,86.1857 2138.82,986.886 2140.98,986.886 2143.14,986.886 2145.3,986.886 2147.46,986.886 2149.62,986.886 2151.78,986.886 2153.95,986.886 2156.11,986.886 2158.27,986.886 2160.43,986.886 2162.59,986.886 2164.75,986.886 2166.91,986.886 2169.07,986.886 2171.23,986.886 2173.39,986.886 2175.56,986.886 2177.72,986.886 2179.88,986.886 2182.04,986.886 2184.2,986.886 2186.36,986.886 2188.52,986.886 2190.68,986.886 2192.84,986.886 2195,986.886 2197.17,986.886 2199.33,986.886 2201.49,986.886 2203.65,986.886 2205.81,986.886 2207.97,986.886 2210.13,986.886 2212.29,986.886 2214.45,986.886 2216.61,986.886 2218.78,986.886 2220.94,986.886 2223.1,986.886 2225.26,986.886 2227.42,986.886 2229.58,986.886 2231.74,986.886 2233.9,986.886 2236.06,986.886 2238.22,986.886 2240.38,986.886 2242.55,986.886 2244.71,986.886 2246.87,986.886 2249.03,986.886 2251.19,986.886 2253.35,986.886 2255.51,986.886 2257.67,986.886 2259.83,986.886 2261.99,986.886 2264.16,986.886 2266.32,986.886 2268.48,986.886 2270.64,986.886 2272.8,986.886 2274.96,986.886 2277.12,986.886 2279.28,986.886 2281.44,986.886 2283.6,986.886 2285.77,986.886 2287.93,986.886 2290.09,986.886 2292.25,986.886 2294.41,986.886 2296.57,986.886 2298.73,986.886 2300.89,986.886 2303.05,986.886 2305.21,986.886 2307.38,986.886 2309.54,986.886 2311.7,986.886 2313.86,986.886 2316.02,986.886 2318.18,986.886 2320.34,986.886 2322.5,986.886 2324.66,986.886 2326.82,986.886 2328.99,986.886 2331.15,986.886 2333.31,986.886 2335.47,986.886 2337.63,986.886 2339.79,986.886 2341.95,986.886 2344.11,986.886 2346.27,986.886 2348.43,986.886 2350.59,986.886 2352.76,986.886 "/>
<path clip-path="url(#clip570)" d="M265.897 1377.32 L506.917 1377.32 L506.917 1221.8 L265.897 1221.8  Z" fill="#ffffff" fill-rule="evenodd" fill-opacity="1"/>
<polyline clip-path="url(#clip570)" style="stroke:#000000; stroke-linecap:round; stroke-linejoin:round; stroke-width:4; stroke-opacity:1; fill:none" points="265.897,1377.32 506.917,1377.32 506.917,1221.8 265.897,1221.8 265.897,1377.32 "/>
<polyline clip-path="url(#clip570)" style="stroke:#009af9; stroke-linecap:round; stroke-linejoin:round; stroke-width:4; stroke-opacity:1; fill:none" points="289.884,1273.64 433.805,1273.64 "/>
<path clip-path="url(#clip570)" d="M482.444 1264.99 L473.069 1277.61 L482.931 1290.92 L477.907 1290.92 L470.361 1280.73 L462.815 1290.92 L457.792 1290.92 L467.861 1277.35 L458.648 1264.99 L463.671 1264.99 L470.546 1274.23 L477.421 1264.99 L482.444 1264.99 Z" fill="#000000" fill-rule="nonzero" fill-opacity="1" /><polyline clip-path="url(#clip570)" style="stroke:#e26f46; stroke-linecap:round; stroke-linejoin:round; stroke-width:4; stroke-opacity:1; fill:none" points="289.884,1325.48 433.805,1325.48 "/>
<path clip-path="url(#clip570)" d="M474.296 1306.74 L474.296 1310.28 L470.222 1310.28 Q467.931 1310.28 467.028 1311.2 Q466.148 1312.13 466.148 1314.54 L466.148 1316.83 L473.162 1316.83 L473.162 1320.14 L466.148 1320.14 L466.148 1342.76 L461.866 1342.76 L461.866 1320.14 L457.792 1320.14 L457.792 1316.83 L461.866 1316.83 L461.866 1315.02 Q461.866 1310.7 463.88 1308.73 Q465.894 1306.74 470.269 1306.74 L474.296 1306.74 Z" fill="#000000" fill-rule="nonzero" fill-opacity="1" /></svg>
