<?xml version="1.0" encoding="utf-8"?>
<svg xmlns="http://www.w3.org/2000/svg" xmlns:xlink="http://www.w3.org/1999/xlink" width="600" height="400" viewBox="0 0 2400 1600">
<defs>
  <clipPath id="clip810">
    <rect x="0" y="0" width="2400" height="1600"/>
  </clipPath>
</defs>
<path clip-path="url(#clip810)" d="M0 1600 L2400 1600 L2400 0 L0 0  Z" fill="#ffffff" fill-rule="evenodd" fill-opacity="1"/>
<defs>
  <clipPath id="clip811">
    <rect x="112" y="47" width="2242" height="1440"/>
  </clipPath>
</defs>
<path clip-path="url(#clip811)" d="M-675.047 2600.36 L-675.047 2318.12 L-344.527 2177.01 L227.95 2258.48 L227.95 2540.71 L-102.57 2681.83 L-675.047 2600.36  Z" fill="#ffffff" fill-rule="evenodd" fill-opacity="1"/>
<polyline clip-path="url(#clip811)" style="stroke:#000000; stroke-linecap:round; stroke-linejoin:round; stroke-width:2; stroke-opacity:0.1; fill:none" points="700.229,1212.87 1115.69,853.07 1115.69,133.468 "/>
<polyline clip-path="url(#clip811)" style="stroke:#000000; stroke-linecap:round; stroke-linejoin:round; stroke-width:2; stroke-opacity:0.1; fill:none" points="843.349,1254.19 1258.81,894.385 1258.81,174.783 "/>
<polyline clip-path="url(#clip811)" style="stroke:#000000; stroke-linecap:round; stroke-linejoin:round; stroke-width:2; stroke-opacity:0.1; fill:none" points="986.468,1295.5 1401.93,935.7 1401.93,216.098 "/>
<polyline clip-path="url(#clip811)" style="stroke:#000000; stroke-linecap:round; stroke-linejoin:round; stroke-width:2; stroke-opacity:0.1; fill:none" points="1129.59,1336.82 1545.05,977.015 1545.05,257.413 "/>
<polyline clip-path="url(#clip811)" style="stroke:#000000; stroke-linecap:round; stroke-linejoin:round; stroke-width:2; stroke-opacity:0.1; fill:none" points="1272.71,1378.13 1688.17,1018.33 1688.17,298.728 "/>
<polyline clip-path="url(#clip811)" style="stroke:#000000; stroke-linecap:round; stroke-linejoin:round; stroke-width:2; stroke-opacity:0.1; fill:none" points="1438.22,1363.92 718.615,1156.19 718.615,436.591 "/>
<polyline clip-path="url(#clip811)" style="stroke:#000000; stroke-linecap:round; stroke-linejoin:round; stroke-width:2; stroke-opacity:0.1; fill:none" points="1519.69,1293.37 800.089,1085.63 800.089,366.033 "/>
<polyline clip-path="url(#clip811)" style="stroke:#000000; stroke-linecap:round; stroke-linejoin:round; stroke-width:2; stroke-opacity:0.1; fill:none" points="1601.16,1222.81 881.562,1015.08 881.562,295.475 "/>
<polyline clip-path="url(#clip811)" style="stroke:#000000; stroke-linecap:round; stroke-linejoin:round; stroke-width:2; stroke-opacity:0.1; fill:none" points="1682.64,1152.25 963.035,944.519 963.035,224.917 "/>
<polyline clip-path="url(#clip811)" style="stroke:#000000; stroke-linecap:round; stroke-linejoin:round; stroke-width:2; stroke-opacity:0.1; fill:none" points="1764.11,1081.69 1044.51,873.961 1044.51,154.359 "/>
<polyline clip-path="url(#clip811)" style="stroke:#000000; stroke-linecap:round; stroke-linejoin:round; stroke-width:2; stroke-opacity:0.1; fill:none" points="664.934,1098.27 1080.4,738.465 1800,946.196 "/>
<polyline clip-path="url(#clip811)" style="stroke:#000000; stroke-linecap:round; stroke-linejoin:round; stroke-width:2; stroke-opacity:0.1; fill:none" points="664.934,983.02 1080.4,623.219 1800,830.951 "/>
<polyline clip-path="url(#clip811)" style="stroke:#000000; stroke-linecap:round; stroke-linejoin:round; stroke-width:2; stroke-opacity:0.1; fill:none" points="664.934,867.775 1080.4,507.974 1800,715.705 "/>
<polyline clip-path="url(#clip811)" style="stroke:#000000; stroke-linecap:round; stroke-linejoin:round; stroke-width:2; stroke-opacity:0.1; fill:none" points="664.934,752.529 1080.4,392.729 1800,600.46 "/>
<polyline clip-path="url(#clip811)" style="stroke:#000000; stroke-linecap:round; stroke-linejoin:round; stroke-width:2; stroke-opacity:0.1; fill:none" points="664.934,637.284 1080.4,277.483 1800,485.214 "/>
<polyline clip-path="url(#clip811)" style="stroke:#000000; stroke-linecap:round; stroke-linejoin:round; stroke-width:2; stroke-opacity:0.1; fill:none" points="664.934,522.039 1080.4,162.238 1800,369.969 "/>
<polyline clip-path="url(#clip810)" style="stroke:#000000; stroke-linecap:round; stroke-linejoin:round; stroke-width:4; stroke-opacity:1; fill:none" points="664.934,1202.68 1384.54,1410.41 "/>
<polyline clip-path="url(#clip810)" style="stroke:#000000; stroke-linecap:round; stroke-linejoin:round; stroke-width:4; stroke-opacity:1; fill:none" points="700.229,1212.87 705.215,1208.55 "/>
<polyline clip-path="url(#clip810)" style="stroke:#000000; stroke-linecap:round; stroke-linejoin:round; stroke-width:4; stroke-opacity:1; fill:none" points="843.349,1254.19 848.334,1249.87 "/>
<polyline clip-path="url(#clip810)" style="stroke:#000000; stroke-linecap:round; stroke-linejoin:round; stroke-width:4; stroke-opacity:1; fill:none" points="986.468,1295.5 991.453,1291.18 "/>
<polyline clip-path="url(#clip810)" style="stroke:#000000; stroke-linecap:round; stroke-linejoin:round; stroke-width:4; stroke-opacity:1; fill:none" points="1129.59,1336.82 1134.57,1332.5 "/>
<polyline clip-path="url(#clip810)" style="stroke:#000000; stroke-linecap:round; stroke-linejoin:round; stroke-width:4; stroke-opacity:1; fill:none" points="1272.71,1378.13 1277.69,1373.81 "/>
<path clip-path="url(#clip810)" d="M639.991 1227.18 Q636.38 1227.18 634.552 1230.75 Q632.746 1234.29 632.746 1241.42 Q632.746 1248.52 634.552 1252.09 Q636.38 1255.63 639.991 1255.63 Q643.626 1255.63 645.431 1252.09 Q647.26 1248.52 647.26 1241.42 Q647.26 1234.29 645.431 1230.75 Q643.626 1227.18 639.991 1227.18 M639.991 1223.48 Q645.801 1223.48 648.857 1228.08 Q651.936 1232.67 651.936 1241.42 Q651.936 1250.14 648.857 1254.75 Q645.801 1259.33 639.991 1259.33 Q634.181 1259.33 631.102 1254.75 Q628.047 1250.14 628.047 1241.42 Q628.047 1232.67 631.102 1228.08 Q634.181 1223.48 639.991 1223.48 Z" fill="#000000" fill-rule="nonzero" fill-opacity="1" /><path clip-path="url(#clip810)" d="M660.153 1252.78 L665.037 1252.78 L665.037 1258.66 L660.153 1258.66 L660.153 1252.78 Z" fill="#000000" fill-rule="nonzero" fill-opacity="1" /><path clip-path="url(#clip810)" d="M675.269 1224.1 L693.625 1224.1 L693.625 1228.04 L679.551 1228.04 L679.551 1236.51 Q680.57 1236.16 681.588 1236 Q682.607 1235.82 683.625 1235.82 Q689.412 1235.82 692.792 1238.99 Q696.172 1242.16 696.172 1247.58 Q696.172 1253.15 692.699 1256.26 Q689.227 1259.33 682.908 1259.33 Q680.732 1259.33 678.463 1258.96 Q676.218 1258.59 673.811 1257.85 L673.811 1253.15 Q675.894 1254.29 678.116 1254.84 Q680.338 1255.4 682.815 1255.4 Q686.82 1255.4 689.158 1253.29 Q691.496 1251.19 691.496 1247.58 Q691.496 1243.96 689.158 1241.86 Q686.82 1239.75 682.815 1239.75 Q680.94 1239.75 679.065 1240.17 Q677.213 1240.58 675.269 1241.46 L675.269 1224.1 Z" fill="#000000" fill-rule="nonzero" fill-opacity="1" /><path clip-path="url(#clip810)" d="M772.925 1296.04 L780.564 1296.04 L780.564 1269.68 L772.254 1271.34 L772.254 1267.08 L780.518 1265.42 L785.194 1265.42 L785.194 1296.04 L792.833 1296.04 L792.833 1299.98 L772.925 1299.98 L772.925 1296.04 Z" fill="#000000" fill-rule="nonzero" fill-opacity="1" /><path clip-path="url(#clip810)" d="M802.277 1294.1 L807.161 1294.1 L807.161 1299.98 L802.277 1299.98 L802.277 1294.1 Z" fill="#000000" fill-rule="nonzero" fill-opacity="1" /><path clip-path="url(#clip810)" d="M827.346 1268.5 Q823.735 1268.5 821.907 1272.06 Q820.101 1275.6 820.101 1282.73 Q820.101 1289.84 821.907 1293.4 Q823.735 1296.95 827.346 1296.95 Q830.981 1296.95 832.786 1293.4 Q834.615 1289.84 834.615 1282.73 Q834.615 1275.6 832.786 1272.06 Q830.981 1268.5 827.346 1268.5 M827.346 1264.79 Q833.157 1264.79 836.212 1269.4 Q839.291 1273.98 839.291 1282.73 Q839.291 1291.46 836.212 1296.07 Q833.157 1300.65 827.346 1300.65 Q821.536 1300.65 818.458 1296.07 Q815.402 1291.46 815.402 1282.73 Q815.402 1273.98 818.458 1269.4 Q821.536 1264.79 827.346 1264.79 Z" fill="#000000" fill-rule="nonzero" fill-opacity="1" /><path clip-path="url(#clip810)" d="M917.04 1337.36 L924.679 1337.36 L924.679 1310.99 L916.369 1312.66 L916.369 1308.4 L924.633 1306.73 L929.308 1306.73 L929.308 1337.36 L936.947 1337.36 L936.947 1341.29 L917.04 1341.29 L917.04 1337.36 Z" fill="#000000" fill-rule="nonzero" fill-opacity="1" /><path clip-path="url(#clip810)" d="M946.392 1335.41 L951.276 1335.41 L951.276 1341.29 L946.392 1341.29 L946.392 1335.41 Z" fill="#000000" fill-rule="nonzero" fill-opacity="1" /><path clip-path="url(#clip810)" d="M961.507 1306.73 L979.864 1306.73 L979.864 1310.67 L965.79 1310.67 L965.79 1319.14 Q966.808 1318.79 967.827 1318.63 Q968.845 1318.45 969.864 1318.45 Q975.651 1318.45 979.03 1321.62 Q982.41 1324.79 982.41 1330.21 Q982.41 1335.78 978.938 1338.89 Q975.466 1341.96 969.146 1341.96 Q966.97 1341.96 964.702 1341.59 Q962.456 1341.22 960.049 1340.48 L960.049 1335.78 Q962.132 1336.92 964.355 1337.47 Q966.577 1338.03 969.054 1338.03 Q973.058 1338.03 975.396 1335.92 Q977.734 1333.82 977.734 1330.21 Q977.734 1326.59 975.396 1324.49 Q973.058 1322.38 969.054 1322.38 Q967.179 1322.38 965.304 1322.8 Q963.452 1323.21 961.507 1324.09 L961.507 1306.73 Z" fill="#000000" fill-rule="nonzero" fill-opacity="1" /><path clip-path="url(#clip810)" d="M1062.38 1378.67 L1078.7 1378.67 L1078.7 1382.61 L1056.76 1382.61 L1056.76 1378.67 Q1059.42 1375.92 1064 1371.29 Q1068.61 1366.64 1069.79 1365.29 Q1072.03 1362.77 1072.91 1361.03 Q1073.82 1359.27 1073.82 1357.59 Q1073.82 1354.83 1071.87 1353.09 Q1069.95 1351.36 1066.85 1351.36 Q1064.65 1351.36 1062.2 1352.12 Q1059.77 1352.89 1056.99 1354.44 L1056.99 1349.71 Q1059.81 1348.58 1062.27 1348 Q1064.72 1347.42 1066.76 1347.42 Q1072.13 1347.42 1075.32 1350.11 Q1078.52 1352.79 1078.52 1357.28 Q1078.52 1359.41 1077.71 1361.34 Q1076.92 1363.23 1074.81 1365.83 Q1074.23 1366.5 1071.13 1369.71 Q1068.03 1372.91 1062.38 1378.67 Z" fill="#000000" fill-rule="nonzero" fill-opacity="1" /><path clip-path="url(#clip810)" d="M1088.52 1376.73 L1093.4 1376.73 L1093.4 1382.61 L1088.52 1382.61 L1088.52 1376.73 Z" fill="#000000" fill-rule="nonzero" fill-opacity="1" /><path clip-path="url(#clip810)" d="M1113.58 1351.13 Q1109.97 1351.13 1108.15 1354.69 Q1106.34 1358.23 1106.34 1365.36 Q1106.34 1372.47 1108.15 1376.03 Q1109.97 1379.58 1113.58 1379.58 Q1117.22 1379.58 1119.02 1376.03 Q1120.85 1372.47 1120.85 1365.36 Q1120.85 1358.23 1119.02 1354.69 Q1117.22 1351.13 1113.58 1351.13 M1113.58 1347.42 Q1119.4 1347.42 1122.45 1352.03 Q1125.53 1356.61 1125.53 1365.36 Q1125.53 1374.09 1122.45 1378.7 Q1119.4 1383.28 1113.58 1383.28 Q1107.77 1383.28 1104.7 1378.7 Q1101.64 1374.09 1101.64 1365.36 Q1101.64 1356.61 1104.7 1352.03 Q1107.77 1347.42 1113.58 1347.42 Z" fill="#000000" fill-rule="nonzero" fill-opacity="1" /><path clip-path="url(#clip810)" d="M1206.5 1419.99 L1222.82 1419.99 L1222.82 1423.92 L1200.87 1423.92 L1200.87 1419.99 Q1203.53 1417.23 1208.12 1412.6 Q1212.72 1407.95 1213.9 1406.61 Q1216.15 1404.09 1217.03 1402.35 Q1217.93 1400.59 1217.93 1398.9 Q1217.93 1396.15 1215.99 1394.41 Q1214.07 1392.67 1210.96 1392.67 Q1208.76 1392.67 1206.31 1393.44 Q1203.88 1394.2 1201.1 1395.75 L1201.1 1391.03 Q1203.93 1389.9 1206.38 1389.32 Q1208.83 1388.74 1210.87 1388.74 Q1216.24 1388.74 1219.44 1391.42 Q1222.63 1394.11 1222.63 1398.6 Q1222.63 1400.73 1221.82 1402.65 Q1221.03 1404.55 1218.93 1407.14 Q1218.35 1407.81 1215.25 1411.03 Q1212.14 1414.22 1206.5 1419.99 Z" fill="#000000" fill-rule="nonzero" fill-opacity="1" /><path clip-path="url(#clip810)" d="M1232.63 1418.04 L1237.51 1418.04 L1237.51 1423.92 L1232.63 1423.92 L1232.63 1418.04 Z" fill="#000000" fill-rule="nonzero" fill-opacity="1" /><path clip-path="url(#clip810)" d="M1247.75 1389.36 L1266.1 1389.36 L1266.1 1393.3 L1252.03 1393.3 L1252.03 1401.77 Q1253.05 1401.42 1254.07 1401.26 Q1255.08 1401.08 1256.1 1401.08 Q1261.89 1401.08 1265.27 1404.25 Q1268.65 1407.42 1268.65 1412.84 Q1268.65 1418.41 1265.18 1421.52 Q1261.7 1424.59 1255.38 1424.59 Q1253.21 1424.59 1250.94 1424.22 Q1248.69 1423.85 1246.29 1423.11 L1246.29 1418.41 Q1248.37 1419.55 1250.59 1420.1 Q1252.82 1420.66 1255.29 1420.66 Q1259.3 1420.66 1261.63 1418.55 Q1263.97 1416.45 1263.97 1412.84 Q1263.97 1409.22 1261.63 1407.12 Q1259.3 1405.01 1255.29 1405.01 Q1253.42 1405.01 1251.54 1405.43 Q1249.69 1405.84 1247.75 1406.72 L1247.75 1389.36 Z" fill="#000000" fill-rule="nonzero" fill-opacity="1" /><polyline clip-path="url(#clip810)" style="stroke:#000000; stroke-linecap:round; stroke-linejoin:round; stroke-width:4; stroke-opacity:1; fill:none" points="1384.54,1410.41 1800,1050.61 "/>
<polyline clip-path="url(#clip810)" style="stroke:#000000; stroke-linecap:round; stroke-linejoin:round; stroke-width:4; stroke-opacity:1; fill:none" points="1438.22,1363.92 1429.58,1361.43 "/>
<polyline clip-path="url(#clip810)" style="stroke:#000000; stroke-linecap:round; stroke-linejoin:round; stroke-width:4; stroke-opacity:1; fill:none" points="1519.69,1293.37 1511.06,1290.87 "/>
<polyline clip-path="url(#clip810)" style="stroke:#000000; stroke-linecap:round; stroke-linejoin:round; stroke-width:4; stroke-opacity:1; fill:none" points="1601.16,1222.81 1592.53,1220.32 "/>
<polyline clip-path="url(#clip810)" style="stroke:#000000; stroke-linecap:round; stroke-linejoin:round; stroke-width:4; stroke-opacity:1; fill:none" points="1682.64,1152.25 1674,1149.76 "/>
<polyline clip-path="url(#clip810)" style="stroke:#000000; stroke-linecap:round; stroke-linejoin:round; stroke-width:4; stroke-opacity:1; fill:none" points="1764.11,1081.69 1755.48,1079.2 "/>
<path clip-path="url(#clip810)" d="M1465.13 1377.2 L1453.32 1395.65 L1465.13 1395.65 L1465.13 1377.2 M1463.9 1373.13 L1469.78 1373.13 L1469.78 1395.65 L1474.71 1395.65 L1474.71 1399.54 L1469.78 1399.54 L1469.78 1407.69 L1465.13 1407.69 L1465.13 1399.54 L1449.53 1399.54 L1449.53 1395.03 L1463.9 1373.13 Z" fill="#000000" fill-rule="nonzero" fill-opacity="1" /><path clip-path="url(#clip810)" d="M1532.46 1302.57 L1550.81 1302.57 L1550.81 1306.51 L1536.74 1306.51 L1536.74 1314.98 Q1537.76 1314.63 1538.78 1314.47 Q1539.8 1314.29 1540.81 1314.29 Q1546.6 1314.29 1549.98 1317.46 Q1553.36 1320.63 1553.36 1326.04 Q1553.36 1331.62 1549.89 1334.73 Q1546.42 1337.8 1540.1 1337.8 Q1537.92 1337.8 1535.65 1337.43 Q1533.41 1337.06 1531 1336.32 L1531 1331.62 Q1533.08 1332.76 1535.3 1333.31 Q1537.53 1333.87 1540 1333.87 Q1544.01 1333.87 1546.35 1331.76 Q1548.68 1329.66 1548.68 1326.04 Q1548.68 1322.43 1546.35 1320.33 Q1544.01 1318.22 1540 1318.22 Q1538.13 1318.22 1536.25 1318.64 Q1534.4 1319.05 1532.46 1319.93 L1532.46 1302.57 Z" fill="#000000" fill-rule="nonzero" fill-opacity="1" /><path clip-path="url(#clip810)" d="M1624.81 1247.43 Q1621.66 1247.43 1619.81 1249.58 Q1617.98 1251.74 1617.98 1255.49 Q1617.98 1259.21 1619.81 1261.39 Q1621.66 1263.54 1624.81 1263.54 Q1627.96 1263.54 1629.79 1261.39 Q1631.64 1259.21 1631.64 1255.49 Q1631.64 1251.74 1629.79 1249.58 Q1627.96 1247.43 1624.81 1247.43 M1634.09 1232.78 L1634.09 1237.04 Q1632.33 1236.2 1630.53 1235.76 Q1628.75 1235.33 1626.99 1235.33 Q1622.36 1235.33 1619.9 1238.45 Q1617.47 1241.58 1617.13 1247.89 Q1618.49 1245.88 1620.55 1244.82 Q1622.61 1243.73 1625.09 1243.73 Q1630.3 1243.73 1633.31 1246.9 Q1636.34 1250.05 1636.34 1255.49 Q1636.34 1260.81 1633.19 1264.03 Q1630.04 1267.25 1624.81 1267.25 Q1618.81 1267.25 1615.64 1262.66 Q1612.47 1258.06 1612.47 1249.33 Q1612.47 1241.14 1616.36 1236.27 Q1620.25 1231.39 1626.8 1231.39 Q1628.56 1231.39 1630.34 1231.74 Q1632.15 1232.08 1634.09 1232.78 Z" fill="#000000" fill-rule="nonzero" fill-opacity="1" /><path clip-path="url(#clip810)" d="M1693.95 1161.46 L1716.17 1161.46 L1716.17 1163.45 L1703.62 1196.02 L1698.74 1196.02 L1710.54 1165.39 L1693.95 1165.39 L1693.95 1161.46 Z" fill="#000000" fill-rule="nonzero" fill-opacity="1" /><path clip-path="url(#clip810)" d="M1787.27 1109.05 Q1783.94 1109.05 1782.02 1110.83 Q1780.12 1112.61 1780.12 1115.74 Q1780.12 1118.86 1782.02 1120.64 Q1783.94 1122.43 1787.27 1122.43 Q1790.6 1122.43 1792.53 1120.64 Q1794.45 1118.84 1794.45 1115.74 Q1794.45 1112.61 1792.53 1110.83 Q1790.63 1109.05 1787.27 1109.05 M1782.59 1107.06 Q1779.59 1106.32 1777.9 1104.26 Q1776.23 1102.2 1776.23 1099.23 Q1776.23 1095.09 1779.17 1092.68 Q1782.13 1090.27 1787.27 1090.27 Q1792.43 1090.27 1795.37 1092.68 Q1798.31 1095.09 1798.31 1099.23 Q1798.31 1102.2 1796.62 1104.26 Q1794.96 1106.32 1791.97 1107.06 Q1795.35 1107.84 1797.22 1110.14 Q1799.12 1112.43 1799.12 1115.74 Q1799.12 1120.76 1796.04 1123.45 Q1792.99 1126.13 1787.27 1126.13 Q1781.55 1126.13 1778.47 1123.45 Q1775.42 1120.76 1775.42 1115.74 Q1775.42 1112.43 1777.32 1110.14 Q1779.22 1107.84 1782.59 1107.06 M1780.88 1099.67 Q1780.88 1102.36 1782.55 1103.86 Q1784.24 1105.37 1787.27 1105.37 Q1790.28 1105.37 1791.97 1103.86 Q1793.68 1102.36 1793.68 1099.67 Q1793.68 1096.99 1791.97 1095.48 Q1790.28 1093.98 1787.27 1093.98 Q1784.24 1093.98 1782.55 1095.48 Q1780.88 1096.99 1780.88 1099.67 Z" fill="#000000" fill-rule="nonzero" fill-opacity="1" /><polyline clip-path="url(#clip810)" style="stroke:#000000; stroke-linecap:round; stroke-linejoin:round; stroke-width:4; stroke-opacity:1; fill:none" points="664.934,1202.68 664.934,483.08 "/>
<polyline clip-path="url(#clip810)" style="stroke:#000000; stroke-linecap:round; stroke-linejoin:round; stroke-width:4; stroke-opacity:1; fill:none" points="664.934,1098.27 669.92,1093.95 "/>
<polyline clip-path="url(#clip810)" style="stroke:#000000; stroke-linecap:round; stroke-linejoin:round; stroke-width:4; stroke-opacity:1; fill:none" points="664.934,983.02 669.92,978.703 "/>
<polyline clip-path="url(#clip810)" style="stroke:#000000; stroke-linecap:round; stroke-linejoin:round; stroke-width:4; stroke-opacity:1; fill:none" points="664.934,867.775 669.92,863.457 "/>
<polyline clip-path="url(#clip810)" style="stroke:#000000; stroke-linecap:round; stroke-linejoin:round; stroke-width:4; stroke-opacity:1; fill:none" points="664.934,752.529 669.92,748.212 "/>
<polyline clip-path="url(#clip810)" style="stroke:#000000; stroke-linecap:round; stroke-linejoin:round; stroke-width:4; stroke-opacity:1; fill:none" points="664.934,637.284 669.92,632.966 "/>
<polyline clip-path="url(#clip810)" style="stroke:#000000; stroke-linecap:round; stroke-linejoin:round; stroke-width:4; stroke-opacity:1; fill:none" points="664.934,522.039 669.92,517.721 "/>
<path clip-path="url(#clip810)" d="M626.551 1085.06 L614.746 1103.51 L626.551 1103.51 L626.551 1085.06 M625.324 1080.99 L631.204 1080.99 L631.204 1103.51 L636.134 1103.51 L636.134 1107.4 L631.204 1107.4 L631.204 1115.55 L626.551 1115.55 L626.551 1107.4 L610.949 1107.4 L610.949 1102.88 L625.324 1080.99 Z" fill="#000000" fill-rule="nonzero" fill-opacity="1" /><path clip-path="url(#clip810)" d="M615.232 965.74 L633.588 965.74 L633.588 969.676 L619.514 969.676 L619.514 978.148 Q620.533 977.801 621.551 977.639 Q622.57 977.453 623.588 977.453 Q629.375 977.453 632.755 980.625 Q636.134 983.796 636.134 989.213 Q636.134 994.791 632.662 997.893 Q629.19 1000.97 622.871 1000.97 Q620.695 1000.97 618.426 1000.6 Q616.181 1000.23 613.773 999.49 L613.773 994.791 Q615.857 995.925 618.079 996.481 Q620.301 997.037 622.778 997.037 Q626.783 997.037 629.121 994.93 Q631.459 992.824 631.459 989.213 Q631.459 985.601 629.121 983.495 Q626.783 981.388 622.778 981.388 Q620.903 981.388 619.028 981.805 Q617.176 982.222 615.232 983.101 L615.232 965.74 Z" fill="#000000" fill-rule="nonzero" fill-opacity="1" /><path clip-path="url(#clip810)" d="M624.607 865.912 Q621.459 865.912 619.607 868.064 Q617.778 870.217 617.778 873.967 Q617.778 877.694 619.607 879.87 Q621.459 882.023 624.607 882.023 Q627.755 882.023 629.584 879.87 Q631.435 877.694 631.435 873.967 Q631.435 870.217 629.584 868.064 Q627.755 865.912 624.607 865.912 M633.889 851.259 L633.889 855.518 Q632.13 854.685 630.324 854.245 Q628.542 853.805 626.783 853.805 Q622.153 853.805 619.699 856.93 Q617.269 860.055 616.922 866.374 Q618.287 864.361 620.347 863.296 Q622.408 862.208 624.884 862.208 Q630.093 862.208 633.102 865.379 Q636.134 868.527 636.134 873.967 Q636.134 879.291 632.986 882.509 Q629.838 885.726 624.607 885.726 Q618.611 885.726 615.44 881.143 Q612.269 876.536 612.269 867.81 Q612.269 859.615 616.158 854.754 Q620.047 849.87 626.597 849.87 Q628.357 849.87 630.139 850.217 Q631.945 850.564 633.889 851.259 Z" fill="#000000" fill-rule="nonzero" fill-opacity="1" /><path clip-path="url(#clip810)" d="M613.912 735.249 L636.134 735.249 L636.134 737.24 L623.588 769.809 L618.704 769.809 L630.509 739.185 L613.912 739.185 L613.912 735.249 Z" fill="#000000" fill-rule="nonzero" fill-opacity="1" /><path clip-path="url(#clip810)" d="M624.283 638.152 Q620.949 638.152 619.028 639.934 Q617.13 641.717 617.13 644.842 Q617.13 647.967 619.028 649.749 Q620.949 651.532 624.283 651.532 Q627.616 651.532 629.537 649.749 Q631.459 647.944 631.459 644.842 Q631.459 641.717 629.537 639.934 Q627.639 638.152 624.283 638.152 M619.607 636.161 Q616.597 635.421 614.908 633.36 Q613.241 631.3 613.241 628.337 Q613.241 624.194 616.181 621.786 Q619.144 619.379 624.283 619.379 Q629.445 619.379 632.384 621.786 Q635.324 624.194 635.324 628.337 Q635.324 631.3 633.634 633.36 Q631.968 635.421 628.982 636.161 Q632.361 636.948 634.236 639.24 Q636.134 641.532 636.134 644.842 Q636.134 649.865 633.056 652.55 Q630 655.235 624.283 655.235 Q618.565 655.235 615.486 652.55 Q612.431 649.865 612.431 644.842 Q612.431 641.532 614.329 639.24 Q616.227 636.948 619.607 636.161 M617.894 628.777 Q617.894 631.462 619.56 632.967 Q621.25 634.472 624.283 634.472 Q627.292 634.472 628.982 632.967 Q630.695 631.462 630.695 628.777 Q630.695 626.092 628.982 624.587 Q627.292 623.083 624.283 623.083 Q621.25 623.083 619.56 624.587 Q617.894 626.092 617.894 628.777 Z" fill="#000000" fill-rule="nonzero" fill-opacity="1" /><path clip-path="url(#clip810)" d="M614.514 538.601 L614.514 534.342 Q616.273 535.175 618.079 535.615 Q619.885 536.055 621.621 536.055 Q626.25 536.055 628.681 532.953 Q631.134 529.828 631.482 523.485 Q630.139 525.476 628.079 526.541 Q626.019 527.606 623.519 527.606 Q618.334 527.606 615.301 524.481 Q612.292 521.333 612.292 515.893 Q612.292 510.569 615.44 507.351 Q618.588 504.134 623.82 504.134 Q629.815 504.134 632.963 508.74 Q636.134 513.323 636.134 522.073 Q636.134 530.245 632.246 535.129 Q628.38 539.99 621.829 539.99 Q620.07 539.99 618.264 539.643 Q616.459 539.295 614.514 538.601 M623.82 523.948 Q626.968 523.948 628.796 521.795 Q630.648 519.643 630.648 515.893 Q630.648 512.166 628.796 510.013 Q626.968 507.837 623.82 507.837 Q620.672 507.837 618.82 510.013 Q616.991 512.166 616.991 515.893 Q616.991 519.643 618.82 521.795 Q620.672 523.948 623.82 523.948 Z" fill="#000000" fill-rule="nonzero" fill-opacity="1" /><polyline clip-path="url(#clip811)" style="stroke:#009af9; stroke-linecap:round; stroke-linejoin:round; stroke-width:4; stroke-opacity:1; fill:none" points="978.503,917.477 982.17,912.714 987.674,905.828 981.726,912.919 982.868,911.312 993.091,898.644 991.002,901.064 977.299,917.537 988.328,903.751 987.924,904.02 998.715,890.694 995.095,895.122 986.976,904.902 986.136,905.485 989.771,900.902 1000.94,887.268 986.527,904.842 976.983,915.896 964.607,929.694 943.418,953.329 943.34,950.848 922.981,972.613 936.169,954.105 952.127,932.177 942.8,942.671 964.001,914.919 959.081,922.979 952.812,930.204 982.957,897.035 999.307,879.765 1009.26,870.795 979.424,912.864 954.843,939.341 888.373,1008.11 894.156,989.316 942.746,929.689 872.529,1023.4 880.771,997.998 901.519,971.243 962.978,902.642 979.521,893.874 961.676,920.4 985.82,898.414 1045.82,848.289 1034.31,868.227 1063.79,839.784 1184.07,753.492 1163.97,775.295 1186.67,758.354 1214.59,728.217 1146.56,791.087 1190.97,740.938 1185.06,748.481 1066.16,852.986 1078.31,831.072 1004.43,898.02 956.555,937.456 951.175,941.104 909.434,978.328 942.011,930.893 1048.73,828.591 1157.37,747.581 1061.37,853.409 1122.13,779.743 1095.92,807.775 1117.3,792.185 1093.83,808.723 1154.97,765.098 1200.77,732.69 1269.66,676.234 1323.8,647.663 1227.93,740.353 1242.29,710.414 1193.39,747.935 1100.72,817.751 1127.36,783.641 990.133,913.546 1009.73,890.356 999.572,898.806 950.663,937.984 994.408,889.899 972.168,909.847 1058.43,824.357 1106.07,785.255 1120.99,784.075 1138.02,782.133 1128.63,811.459 1207.65,753.658 1276.55,684.986 1176.07,739.029 1090.99,828.858 1096.93,832.358 1085.29,836.647 970.195,942.98 1027.65,862.959 1021.33,868.927 1076.33,820.291 1050.69,846.643 1062.03,829.309 1054.88,849.03 972.349,918.414 1069.44,818.559 1080.12,817.915 1094.16,833.31 1117.26,812.589 1189.9,750.029 1213.74,720.513 1184.09,743.204 1171.74,766.442 1194.4,744.708 1125.48,804.515 1063.25,856.601 1115.97,793.991 1225.5,694.707 1310.56,631.737 1260.21,694.469 1262.01,690.243 1216.12,729.734 1329.53,621.785 1278.15,690.715 1195.36,753.14 1196.9,755.98 1228.93,714.412 1176.74,766.284 1060.93,867.67 1116.85,800.31 1076.85,838.011 1153.32,763.639 1238.87,696.164 1248.93,698.354 1415.56,576.923 1462.79,553.803 1404.54,609.704 1476.13,548.483 1444.04,573.413 1421.56,603.328 1444.75,574.468 1471.93,559.463 1389.32,631.254 1414.09,598.441 1494.65,529.093 1372.92,655.211 1324.86,675.957 1337.64,656.188 1227.11,739.412 1167.9,776.087 1163.82,765.171 1155.65,774.007 1127.87,794.522 1004.96,915.984 971.922,923.792 951.823,939.59 936.707,950.447 961.324,922.684 988.871,894.363 879.073,1007.69 893.487,978.438 859.153,1010.71 806.875,1069.03 824.151,1051.87 839.945,1034.15 925.795,953.226 931.968,948.076 958.119,933.581 966.2,931.11 867.298,1019.31 889.19,983.145 890.532,986.427 901.993,970.99 943.876,927.26 1015.91,869.358 1029.41,868.405 1046.71,847.088 1000.28,897.427 1060.18,834.065 1150.68,770.289 1171.67,743.204 1166.01,752.639 1118.19,805.29 1085.43,830.113 1164.05,758.308 1054.01,858.049 1126.68,778.997 1171.39,770.642 1218.38,706.887 1360.99,608.509 1403.16,598.18 1426.03,578.917 1389.37,610.932 1301.02,691.111 1306.72,653.637 1450.59,540.722 1558.68,479.737 1484.86,555.849 1540.58,527.936 1413.28,632.719 1364.29,661.62 1347.01,649.453 1370.19,624.266 1417.12,584.397 1329.93,666.629 1290.81,691.238 1301.19,673.462 1332.78,640.505 1170.45,777.875 1154,781.253 1224.26,710.862 1286.27,659.142 1279.03,684.013 1197.15,766.538 1103.2,829.939 1063.21,857.254 1033.23,877.095 1109.56,796.077 1192.37,721.192 1136.98,784.163 1187.54,743.433 1293.87,666.645 1318.63,653.747 1197.5,762.844 1191.74,745.654 1117.35,816.739 1109.41,809.793 1086.36,832.452 1089.88,816.953 1043.15,864.342 1029.01,875.209 909.978,976.262 901.868,984.957 869.031,1012.48 857.241,1023.42 869.804,1002.62 858.815,1019.51 865.167,1008.65 954.493,912.749 949.781,933.02 960.937,925.296 940.933,945.971 972.557,905.336 959.159,917.038 965.687,929.362 929.57,959.724 902.119,980.089 958.336,926.418 1006.01,864.756 1126.21,762.535 1174.94,743.662 1195.09,736.62 1196.14,726.196 1224.53,713.545 1187.63,759.633 1245.51,701.649 1293.16,675.793 1213.37,754.21 1244,708.718 1207.19,743.919 1199.15,750.176 1245.71,707.699 1237.21,711.256 1336.96,639.989 1282.52,687.358 1176.06,778.45 1140.88,791.885 1151.57,771.354 1185.96,731.481 1098.43,815.832 1092.43,816.15 1080.28,831.489 1082.72,821.056 989.204,905.554 891.441,982.419 908.46,966.684 873.175,1007.1 961.538,917.274 961.83,917.266 978.198,906.423 1018.24,872.951 1006.03,886.796 971.42,929.058 921.438,966.822 843.356,1037.68 860.574,1013.75 932.15,944.796 1009.07,865.643 1050.32,840.069 1085.37,807.348 1079.76,825.797 1070.98,837.362 1002.27,903.794 898.137,993.425 905.802,973.79 928.026,950.83 928.264,944.801 921.589,952.183 979.037,905.196 1019.3,873.278 1000.44,890.782 935.363,935.414 988.299,887.007 989.023,894.822 1009.12,879.411 1027.94,856.291 1073.43,814.414 1018.05,870.849 1039.11,848.285 1079.52,830.443 1182.75,744.97 1221.45,728.376 1148.64,789.483 1308.74,667.433 1335.64,637.02 1424.9,584.857 1453.58,567.549 1553.47,509.049 1408.34,646.571 1332.55,684.502 1368.88,634.949 1405.5,591.969 1297.01,685.017 1318.15,657.227 1315.79,657.35 1174.34,777.577 1206.41,730.319 1190.27,734.859 1248.64,689.83 1248.89,709.383 1294.77,678.195 1315.98,649.943 1334.88,654.314 1244.43,718.22 1304.85,660.7 1417.52,566.459 1500.67,505.751 1585.15,454.437 1505.47,539.087 1516.35,538.736 1535.24,509.909 1493.28,552.387 1463.72,569.266 1424.6,611.09 1357.66,653.84 1321.37,675.324 1308.94,670.743 1249.56,715.152 1266.27,702.248 1317.49,649.846 1254.11,709.932 1209.47,736.115 1206.29,736.828 1120.45,807.302 1155.94,755.555 1094.21,826.751 1127.97,792 1034.36,883.671 1067.24,842.577 1077.63,834.555 1096.03,818.417 1047.57,862.916 1143.22,776.013 1047.79,877.435 1071.19,839.949 1011.6,904.948 995.855,914.739 1051.42,842.193 1055.77,833.232 1128.21,779.768 1211.08,712.414 1350.26,604.623 1315.73,643.001 1326.58,637.951 1272.79,688.721 1061.67,861.629 1101.24,810.123 1079.1,831.55 990.121,915.777 1053.52,839.944 1058,843.064 1134.92,766.45 1120,806.396 1198.77,730.29 1114.75,805.58 1116.47,802.088 1081.57,830.971 1090.32,812.957 1141.36,773.522 1152.18,777.706 1183.92,751.255 1393.32,582.592 1326.61,656.204 1312.56,676.717 1317.85,662.265 1317.15,671.165 1263.82,718.199 1251.05,707.57 1297.29,675.625 1272.23,694.975 1314.19,648.929 1245.11,708.721 1353.2,608.179 1353.46,616.095 1246.01,707.426 1171.62,785.591 1197.24,751.776 1205.39,740.855 1118.72,827.373 1205.39,740.782 1044.54,870.825 1114.05,789.302 1079.3,829.956 1064.86,853.283 1160.3,756.359 1127.81,799.506 1176.26,754.044 1063.71,836.158 1133.61,770.182 1147.23,770.412 1221.87,706.303 1211.48,717.011 1094.1,815.656 1013.64,891.415 1005.79,902.165 1018.25,881.928 963.953,922.719 897.236,982.107 969.61,918.677 943.017,928.599 899.076,966.573 894.457,957.426 948.388,926.349 928.542,956.286 923.082,961.484 914.586,980.769 874.463,1017.81 950.5,918.777 1020.97,852.846 1121.68,773.105 1250.78,685.772 1269.95,687.455 1268.29,690.486 1281.11,681.216 1270.22,690.948 1198.63,746.059 1120.48,813.189 1154.83,790.564 1078.38,830.927 1119.72,789.198 1180.73,737.274 1152.16,772.475 1157.92,774.674 1139,783.493 1066.43,842.116 1076.35,830.292 1099.54,808.508 1154.32,755.712 1256.85,656.37 1402.2,565.046 1528.26,476.496 1482.66,545.738 1504.56,542.46 1404.04,621.208 1434.42,588.263 1381.16,629.106 1436.2,573.896 1354.06,659.368 1362.1,647.191 1217.74,759.546 1215.8,747.309 1220.41,725.8 1186.26,755.235 1173.4,765.745 1123.62,804.18 1156.94,755.664 1084.97,830.564 1024.89,875.227 1039.45,864.43 1049.61,855.573 1141.89,764.844 1214.73,703.884 1172.68,754.396 1213.5,714.364 1188.25,744.388 1258.05,683.172 1211.11,736.73 1257.24,710.542 1331.31,628.423 1370.54,601.532 1380.16,631.058 1329.22,671.692 1343.69,644.449 1382.6,616.296 1433.12,573.161 1483.17,553.876 1472.49,569.681 1463.15,572.948 1404.31,615.004 1286.12,706.617 1207.94,756.567 1246.91,710.313 1248.2,714.625 1330.11,647.724 1257.44,720.057 1195.12,755.748 1175.58,773.286 1217.36,728.335 1282.56,682.076 1306.42,668.741 1286.94,678.627 1225.01,722.69 1326.28,619.608 1317.64,656.304 1330.39,654.424 1372.43,636.251 1413.14,601.02 1373.62,633.533 1383.64,617.298 1465.09,559.441 1413.8,600.478 1423.06,592.761 1351.81,652.254 1265.46,713.818 1228.41,738.567 1276.93,683.692 1281.59,681.429 1225.97,729.098 1236.73,711.831 1234.83,726.839 1210.77,740.552 1138.66,789.931 1139.6,782.754 1110.14,808.479 1054.03,854.253 1099.91,809.11 1065.84,832.951 1143.61,764.737 1176.68,734.154 1210.79,720.144 1236.71,716.464 1286.87,670.345 1235.26,712.596 1258.18,698.93 1188.33,749.691 1057.91,856.467 1063.1,849.1 985.465,909.328 972.412,913.517 985.686,894.943 1008.13,881.959 1019.03,874.636 1067.14,822.096 1113.23,786.52 1078.48,826.926 1188.3,740.31 1126.38,808.369 1160.05,774.776 1155.85,768.54 1045.09,868.077 998.891,904.115 1028.96,859.298 984.834,895.601 905.511,974.484 908.581,973.625 1004.53,872.119 932.552,942.738 947.404,923.931 901.621,983.91 894.715,980.243 894.317,973.654 780.97,1081.35 822.028,1052.74 926.694,931.295 1010.47,866.456 1013.85,872.56 1058.42,832.653 1039.64,862.568 938.199,949.446 917.123,962.537 893.393,986.102 921.794,961.075 966.954,913.576 943.186,944.235 951.23,929.15 1001.77,875.878 1065.6,828.524 1127.99,769.218 1082.45,818.866 998.687,899.096 1012.37,885.113 971.965,910.115 1043.82,871.209 994.404,903.54 1109.45,794.718 1166.65,746.458 1084.39,831.891 1084.24,814.154 1056.37,846.467 996.698,890.712 1021.38,876.089 948.926,922.295 836.367,1036.65 798.396,1079.6 876.872,997.465 856.241,1017.83 911.508,964.276 999.43,872.742 1034.38,852.042 1099.04,812.29 1257.06,671.915 1286.95,668.624 1297.17,682.284 1275.93,705.732 1238.2,725.649 1169.08,782.977 1215.67,721.261 1335.16,617.289 1342.1,639.384 1308.02,678.521 1233.67,738.273 1147,797.878 1042.54,887.869 1066.16,852.452 1110.06,798.759 1075.39,843.181 1101.73,818.397 1124.55,794.043 1049.87,865.347 1024.4,889.572 979.976,912.094 952.915,931.554 1050.89,820.373 1149.8,749.983 1200.35,716.05 1251.48,678.149 1301.1,649.194 1362.64,602.728 1348.64,624.469 1324.63,663.484 1291.78,681.18 1369.23,623.185 1334.15,643.821 1299.53,664.664 1327.27,639.708 1188.37,747.42 1258.23,696.038 1222.15,720.801 1232.59,717.732 1199.36,744.137 1395.6,566.544 1348.59,617.877 1392.12,604.679 1242.34,730.265 1188.93,764.739 1202.39,749.17 1166.65,786.531 1203.94,745.626 1111.92,817.503 1131.28,777.242 1167,754.109 1257.45,695.147 1334.41,634.271 1408.12,581.823 1352.78,620.708 1487.04,525.763 1350.61,656.688 1420.91,586.738 1514.37,512.983 1471.78,552.776 1454.07,586.293 1510.77,542.751 1480.71,570.285 1414.67,610.302 1327.11,675.542 1287.43,696.443 1308.47,670.803 1267.57,712.776 1199.86,762.273 1153.15,792.671 1122.13,810.841 1161.81,765.332 1182.28,742.36 1110.28,803.81 1110.39,800.484 1126.67,776.185 1132.15,787.622 1160.93,752.7 1182.4,747.819 1208.81,728.767 1230.79,708.961 1204.88,737.877 1281.2,672.399 1306.97,654.966 1214.52,744.507 1161.49,786.339 1138.45,790.677 1148.02,774.432 1076.98,841.166 1195.09,723.26 1224.85,708.782 1125.17,809.718 1118.57,804.175 1036.39,879.924 980.339,919.391 980.131,908.45 971.165,923.345 931.325,953.832 1015.95,864.691 1075.28,815.922 1052.34,844.761 1067.62,832.856 1087.81,824.272 1069.02,826.508 1064.84,836.745 1099.41,805.628 1075.53,835.849 1078.85,832.332 992.07,901.392 1084.97,814.557 1014.1,874.8 1014.76,910.325 901.666,1005.14 910.554,979.415 843.869,1038.05 793.11,1088.89 757.902,1122.89 811.521,1049.83 844.669,1018.05 860.748,1003.25 851.883,1018.11 898.087,964.435 904.36,974.12 963.611,914.966 896.362,989.784 931.75,951.979 967.193,908.89 1058.94,821.03 1148.09,749.469 1107.6,804.062 1170.26,755.214 1169.17,758.442 1127.19,803.532 1099.85,813.569 1056.06,868.76 1118.43,810.861 1110.57,806.083 1004.23,876.784 1024.97,867.86 1074.66,821.672 1155.96,751.523 1149.75,782.304 1032.22,875.14 1052.52,842.117 1102.46,792.812 1153.15,764.215 1125.2,795.513 1125.19,803.949 1160.17,751.662 1060.46,841.897 1113.51,805.865 1116.05,794.554 1119.5,797.351 1123.71,802.203 1115.68,814.28 1125.2,807.517 1112.24,821.765 1077.58,845.382 1006.09,904.139 1017.34,893.77 1071.97,832.69 1015.8,882.565 952.798,938.191 978.221,910.726 1042.52,855.558 1155.13,752.095 1190.38,737.805 1274.74,679.47 1090.93,814.916 1061.35,840.09 999.581,899.461 1087,821.502 1172.79,747.207 1192.26,741.747 1283.21,662.58 1197.75,722.533 1197.05,714.916 1181.25,719.437 1292.38,653.741 1402.48,579.136 1223.87,723.902 1235.22,718.271 1439.68,574.78 1484.54,539.388 1432.96,578.974 1441.74,579.726 1296.98,700.572 1294.07,692.741 1220.75,741.791 1203.76,750.963 1180.42,759.1 1123.42,806.755 1154.3,767.384 1253.11,681.696 1292.6,664.717 1241.23,724.327 1192.78,756.649 1198.2,735.717 1107.74,812.611 1146.65,771.649 1146.95,781.322 1209.22,706.4 1086.11,805.947 1067.86,858.177 1092.42,818.608 1050.69,860.061 960.648,940.04 939.17,945.09 918.605,957.982 939.425,940.489 985.036,893.583 1035.05,846.334 1024.96,866.702 1089.31,813.068 1048.2,857.33 975.626,921.632 1060.88,838.543 1022.35,887.753 939.599,957.905 826.962,1059.73 842.566,1031.14 848.8,1024.62 860.54,1007.09 927.252,947.181 919.28,958.921 945.812,937.096 982.85,902.492 1049.14,839.535 1066,835.33 1082.17,828.496 1203.84,721.63 1137.69,787.322 1111.98,810.061 1112.41,803.158 1149.7,762.244 1237.17,710.812 1192.18,757.315 1053.07,883.289 1022.71,892.505 1033.38,867.109 1054.42,843.137 1012.58,886.268 964.445,933.933 884.324,1011.89 873.43,1004.89 861.714,1014.54 813.548,1069.1 805.804,1065.97 838.053,1028.37 859.421,997.751 873.87,993.281 946.957,926.272 965.551,916.713 1001.28,882.908 967.51,910.991 968.027,911.561 1043.12,839.397 1072.32,835.642 1086.32,821.783 1106.29,804.444 1168.41,755.279 1140.53,786.497 1124.73,806.855 1168.9,771.038 1222.7,709.494 1263.64,697.019 1185.52,770.585 1145.23,790.307 1072.93,856.962 1114.43,802.852 1138.86,774.591 1108.99,814.034 1185.02,732.9 1129.04,790.574 1109.81,814.603 976.874,922.72 996.144,896.546 1015.04,877.388 1041.86,848.81 1079.01,823.54 1136.69,767.978 1129.74,792.434 1058.89,861.663 1140.07,771.205 1135.55,783.317 1068.1,844.419 1124.08,784.024 1166.29,745.724 1158.82,759.944 1070.03,844.376 1021.25,888.699 1034.63,881.372 993.143,913.057 956.671,937.207 965.912,919.813 978.975,903.497 1027.64,862.559 992.021,904.523 928.375,965.944 916.727,961.22 965.385,916.09 994.507,889.497 937.774,943.392 938.39,945.065 967.417,910.455 1072.77,822.333 1049.52,856.941 938.262,962.759 935.369,953.896 949.963,945.066 966.256,940.907 1019.91,884.774 1068.96,842.42 1044.66,871.762 1009.39,895.18 973.894,929.915 1026.53,882.384 997.526,912.906 1022.14,878.505 952.545,918.275 869.32,990.572 803.794,1041.21 814.15,1048.3 808.805,1052.94 801.072,1059 809.378,1041.35 805.687,1057.39 791.519,1078.18 820.927,1047.42 829.081,1038.16 839.843,1033.95 833.215,1036.79 839.343,1033.66 841.318,1034.9 856.397,1013.25 858.228,1008.49 860.223,1002.58 924.715,951.927 905.142,973.885 933.076,938.163 1015.46,871.629 1016.62,873.587 1026.92,860.949 1016.4,870.653 1039.24,852.403 1071.63,831.586 1116.63,799.563 1189.69,737.785 1178.08,749.073 1103.64,818.996 1224.76,715.196 1205.27,731.139 1210.16,753.6 1242.08,718.848 1168.48,783.479 1219.35,728.793 1210.01,734.363 1221.19,728.828 1209.61,724.644 1228.96,710.229 1129.34,782.928 1092.44,822.479 1120.07,811.415 1105.27,820.479 1055.56,864.208 1088.87,828.665 1188.2,730.973 1243.4,687.129 1176.24,760.592 1153.54,784.315 1106.84,825.513 1143.59,780.546 1181.14,753.699 1197.89,750.927 1214.09,736.996 1271.32,671.591 1256.41,703.241 1294.93,669.338 1246.3,707.747 1341.06,630.914 1342.04,628.567 1272.47,703.032 1252.67,685.238 1275.04,668.751 1224.38,729.432 1198.5,740.994 1123.94,802.537 1054.8,853.932 1079.37,824.831 1111.88,796.994 1150.4,761.599 1038.19,845.899 939.638,942.687 994.733,885.5 981.572,896.51 1008.35,873.69 866.649,1000.75 807.41,1064.14 804.604,1068.01 786.23,1087.66 819.141,1053.24 834.573,1038.6 834.455,1028.22 909.293,963.511 939.022,936.141 958.706,915.682 964.751,913.192 961.758,920.116 917.084,954.974 1014.96,872.069 974.702,920.288 1012.5,882.612 1055.23,845.85 1125.73,804.245 1078.92,847.643 1153.45,778.815 1201.99,733.91 1135.84,794.629 1319.72,630.734 1413.96,564.816 1480.37,547.461 1659.03,417.463 1744.27,394.74 1705.22,446.575 1648.99,482.392 1660.79,456.551 1526.49,561.447 1447.1,613.512 1378.97,652.359 1349.41,664.171 1330.55,667.361 1227.5,752.664 1202.88,763.348 1111.71,835.539 1127.16,802.909 1135.54,786.67 1076.26,844.051 1116.66,791.475 1123.62,778.487 1130.24,783.425 1193.11,735.399 1241.38,694.841 1247.08,713.151 1181.33,762.452 1178.63,768.325 1100.78,825.25 1098.04,816.788 1066.27,846.77 1011.51,888.558 953.615,950.867 936.749,959.274 933.69,950.331 920.084,960.459 927.703,955.463 910.37,967.39 947.487,928.548 950.925,928.928 907.79,975.38 934.117,949.106 1041.73,845.39 1161.35,739.461 1160.67,742.768 1187.05,736.667 1220.72,713.165 1228.3,701.211 1386.65,594.029 1340.37,651.331 1309.49,681.176 1440.68,570.551 1415.57,609.947 1376.42,624.855 1291.08,695.184 1176.62,782.188 1175.83,766.355 1220.96,715.98 1273.24,688.996 1234.06,724.204 1235.67,711.215 1275.09,685.229 1181.13,757.546 1206.66,738.431 1232.62,715.092 1115.71,823.803 1150.49,772.541 1130.98,801.272 1078.73,852.192 1050.64,866.909 1116.98,791.749 1126.43,792.87 1203,727.068 1145.92,781.282 1062.57,861.354 1040.45,868.162 1022.07,886.111 1010.48,890.444 994.14,906.368 1077.35,820.015 1067.98,836.103 1116.5,798.955 1082.66,832.158 1092.31,825.143 1121.24,797.407 1058.04,858.131 1080.26,844.561 1097.97,812.264 1078.74,845.849 1147.46,797.1 1197.2,738.669 1062.41,824.892 978.502,918.634 974.712,910.467 1014.18,867.537 1028.43,870.495 1027.41,870.958 1093.06,800.302 1041.31,855.22 1079.09,822.407 1106.92,790.845 1133.87,771.471 1253.13,678.112 1231.52,713.559 1233.77,725.425 1325.28,633.809 1341.18,639.319 1385.69,613.355 1432.61,596.317 1448.21,582.455 1541.51,530.575 1475.03,573.972 1505.94,538.659 1547.94,497.195 1456.13,584.865 1328.69,681.151 1311.06,694.227 1278.45,705.121 1282.98,686.695 1335.47,632.508 1269.24,706.754 1248.59,707.248 1267.55,685.973 1140.26,801.922 1185.5,745.117 1209.14,735.728 1185.18,751.805 1246.62,693.739 1300.04,664.002 1279.73,688.8 1207.72,741.898 1259.82,687.383 1323.05,642.869 1385.13,598.315 1411.81,589.996 1483.63,534.49 1530.47,487.154 1510.35,537.411 1411.37,617.28 1415.55,608.343 1363.93,646.432 1305.98,693.303 1216.86,754.119 1223.92,731.199 1245.44,705.041 1174.14,786.025 1151.87,787.26 1064.05,863.729 1013.93,900.035 967.442,936.751 1007.68,880.525 960.906,929.769 922.475,968.207 908.545,975.929 943.88,928.251 998.106,893.255 951.023,938.527 998.846,878.624 1057.99,833.544 1021.23,882.213 1013.84,884.305 1032.79,858.823 1034.66,878.271 985.266,926.262 903.866,992.428 906.371,977.369 906.467,973.656 945.588,925.943 1008.27,860.684 1031.91,859.279 1042.18,851.605 1055.54,842.318 1077.6,825.865 1056.64,857.079 976.192,924.054 938.663,953.135 1001.82,887.368 1078.6,821.039 1091.15,808.021 1160.74,760.757 1207.07,733.518 1151.01,788.804 1291.58,660.812 1316.45,645.452 1230.08,728.902 1187.95,756.914 1153.88,794.884 1176.66,763.864 1121.2,815.663 1063.42,852.411 1082.74,826.729 1113.84,798.938 1136.3,784.086 1090.09,823.635 1188.04,747.378 1285.99,666.179 1316.23,666.976 1167.95,777.944 1207.01,731.849 1335.83,620.37 1384.3,591.276 1482.46,530.739 1519.92,509.171 1489.95,551.376 1419.3,610.691 1311.61,691.108 1186.01,788.901 1154.56,800.493 1101.64,839.33 1122.79,802.496 1114.31,805.045 1127.31,791.81 1174.92,759.746 1121.81,816.118 1111.79,811.898 1071.17,844.485 1098.93,818.683 1065.46,849.362 1153.18,751.174 1147.35,771.464 1061.28,857.133 1039.35,879.203 1075.38,828.289 1072.27,840.296 1105.21,813.277 1177.7,762.261 1137.18,800.878 1158.17,778.493 1171.25,755.026 1087.68,824.594 1224.53,695.451 1069.36,841.295 958.709,941.798 1014.07,872.664 1065.99,832.745 1066.92,839.793 1068.26,843.215 1045.08,863.701 1103.13,806.842 999.353,905.387 1048.22,856.932 1076.29,839.895 998.119,899.669 1022.51,866.461 1077.47,832.107 1079.36,852.957 1190.05,716.88 1259.14,677.377 1289.42,663.028 1164.12,788.818 1208.37,739.019 1205.95,740.015 1208.06,753.729 1119.83,823.529 1123.06,797.265 1140.09,793.016 1112.31,817.719 1124.73,815.337 1127.1,791.963 1047.26,873.658 948.122,955.963 869.335,1032.18 850.252,1036.01 849.467,1029.52 841.886,1038.48 824.294,1051.2 799.957,1074.72 835.189,1035.62 889.615,975.997 892.283,982.512 885.072,997.359 837.64,1046.72 952.162,910.288 1028.77,844.62 1077.47,805.978 1069.58,829.908 1055.81,850.419 991.504,916.046 982.818,918.475 995.256,904.858 1094.98,796.113 1156.54,743.062 1148.69,771.482 1134.81,785.816 1090.25,832.247 1012.33,903.684 984.97,918.956 985.075,912.187 899.773,989.731 869.942,1010.15 898.082,972.525 915.71,950.546 963.047,913.255 1035.47,850.35 1025.16,874.075 997.33,903.676 1026.22,871.362 1053.3,834.607 1158.92,745.618 1184.7,742.962 1127.76,797.455 1159.94,795.912 1091.16,844.162 1068.41,851.969 1054.4,852.616 960.497,942.34 952.983,941.733 1024.11,857.336 1089.04,807.86 1053.69,850.697 1115.85,794.184 1117.98,796.699 1164.09,761.54 1126.84,794.255 1151.7,767.835 1236.95,726.213 1148.14,798.475 1105.02,819.794 1045.55,863.998 1087.41,820.874 1062.91,839.902 1112.08,805.446 1061.34,860.05 1028.76,872.684 1012.66,890.986 1053.83,837.549 1032.16,863.59 1051.38,840.307 1037.95,867.579 995.541,909.928 1012.9,889.019 1014.3,888.431 1041.5,855.66 1012.26,897.959 964.464,935.838 885.374,1003.23 897.483,983.217 893.845,983.657 899.922,969.553 904.919,969.547 921.582,945.983 992.899,883.668 972.506,905.639 1015.85,869.89 992.169,895.406 954.87,929.367 1008.94,883.963 1100.76,800.983 1178.5,751.637 1144.21,779.758 990.793,917.772 1052.05,841.488 1157.94,738.968 1101.26,809.533 1104.2,807.582 1133.6,782.824 1228.77,692.53 1192.82,742.704 1288.73,664.054 1268.18,685.271 1245.06,706.491 1143.17,784.557 1178.94,752.27 1062.34,857.45 1029.14,881.198 1045.37,851.465 1022.14,879.943 987.046,896.677 1004.82,880.131 1079.92,816.424 1092.16,811.699 1084.18,818.913 1159.88,744.533 1151.86,776.017 1198.39,727.48 1155.41,778.006 1119.33,805.748 1151.83,788.992 1080.08,847.179 1061.9,856.172 985.372,916.824 944.965,951.235 937.947,945.058 992.295,896.624 955.731,937.208 952.867,932.006 1040.96,857.976 1128.61,780.375 1264.28,665.134 1191.96,747.739 1128.31,813.98 1087.9,826.326 1100.35,808.725 1082.54,832.874 1079.71,834.385 1085.18,820.676 1134.24,790.856 1105.24,817.888 1073.03,843.723 1034.48,879.09 1026.42,877.156 997.355,901.814 929.6,974.733 972.501,915.246 971.243,911.549 900.666,981.132 845.817,1044.84 854.27,1019.95 902.737,980.993 967.545,928.988 1060.72,844.924 1152.3,774.471 1255.99,698.316 1316.82,649.551 1364.12,628.291 1392.34,614.698 1350.07,652.023 1289.37,689.717 1258.54,721.373 1177.29,788.773 1159.37,782.944 1194.22,743.633 1135.69,806.949 1140.98,787.552 1139.79,788.159 1170.29,771.185 1075.27,844.071 1075.83,840.701 1124.72,786.859 1071.11,837.482 1087.16,831.658 1141.38,780.63 1215.81,728.96 1120.92,810.08 1101.73,816.05 1140.95,786.402 1057.06,847.751 1079.78,824.357 1036.78,860.946 1060.71,829.411 1056.36,842.896 1166.02,744.915 1127.17,787.634 964.676,927.616 990.643,900.936 967.94,919.699 974.834,917.577 1078.03,814.168 1090.83,820.234 1114.35,802.056 1108.51,814.943 1096.28,815.636 1226.24,724.957 1126.62,801.131 1172.18,761.908 1122.03,796.259 1121.64,775.742 1045.76,853.77 1067.8,838.505 1072.97,830.166 1193.79,743.727 1157.95,776.097 1329.17,633.076 1358.54,624.394 1333.59,655.691 1189.88,767.914 1100.4,839.529 1117.4,809.432 1157.25,775.776 1185.11,749.703 1192.84,747.102 1205.61,723.051 1256.82,671.631 1357.66,618.412 1286.78,684.577 1250.46,714.176 1205.13,740.385 1259.84,696.864 1116.82,822.98 1092.51,828.599 1096.45,815.876 1161.69,766.657 1138.03,788.762 1132.15,791.04 1153.57,786.711 1147.39,795.339 1086.83,834.931 1053.62,864.244 1057.59,850.838 1061.5,847.434 1127.85,778.691 1253.27,668.787 1297.49,648.876 1254.8,705.26 1305.34,659.421 1305.15,668.841 1198.74,764.618 1255.12,704.064 1107.92,823.426 1090.37,833.364 1105.2,805.747 1137.39,771.02 1156.22,761.806 1139.17,786.376 1163.92,762.717 1173.69,757.548 1187.46,745.67 1200.92,724.224 1109.81,796.94 1250.08,675.684 1371.82,600.82 1418.84,574.436 1407.26,603.001 1450.84,576.237 1358.61,657.241 1303.86,681.831 1342.11,653.39 1263.97,714.848 1290.12,675.378 1321.89,650.759 1361.22,607.796 1325.61,665.204 1391.82,601.738 1297.67,695.602 1292.92,688.377 1313.63,666.573 1190.38,776.789 1092.86,845.715 1071.53,852.383 1014.83,904.782 1004.07,901.68 1054.78,845.118 1138.63,765.605 1147.77,764.472 1112.83,808.569 1201.58,730.382 1253.69,702.689 1311.56,644.321 1385.6,616.645 1418.27,588.34 1490.5,535.759 1380.88,641.091 1394.22,626.212 1438.09,573.255 1309.52,687.89 1282.47,700.552 1205.86,761.081 1142.75,803.163 1178.41,758.999 1214.19,729.438 1126.89,804.173 1105.38,818.734 1056.03,868.258 1075.48,839.815 1081.07,827.05 1159.61,772.374 1204.38,728.732 1245.62,688.677 1380.73,601.615 1420.09,568.209 1536.93,490.3 1603.77,460.428 1615.38,471.504 1600.66,497.424 1566.4,533.472 1506.53,567.116 1497.89,557.42 1412.11,625.956 1409.85,613.442 1359.5,656.928 1408.77,603.471 1410.16,605.439 1312.57,684.954 1300.95,679.02 1227.1,739.987 1117.51,833.334 1113.44,818.452 1138.34,783.47 1138.12,781.768 1174.28,751.268 1255.24,674.227 1223.26,714.893 1281.64,685.454 1313.42,670.054 1180.4,761.783 1270.72,681.873 1216.23,733.854 1286.28,675.68 1459.04,556.634 1366.34,638.472 1354.73,647.308 1400.66,608.579 1388.14,621.249 1327.41,677.604 1220.15,752.722 1153.88,796.853 1185.53,752.627 1170.09,762.324 1199.96,741.11 1196.64,751.076 1166.45,773.959 1183.85,752.944 1087.59,849.463 1032.11,881.431 1036.2,867.283 1080.2,825.375 1076.71,832.819 1034.89,873.818 1053.61,844.386 890.199,997.582 945.679,937.425 967.24,914.864 1016.93,874.089 1059.38,839.33 1121.25,791.51 1124.7,791.294 1126.19,793.579 1077.46,821.463 1151.27,760.647 1165.02,774.368 1242.01,734.363 1189.29,776.55 1269.6,705.913 1159.37,776.12 1168.89,767.492 1159.48,768.843 1222.5,719.479 1230.16,733.897 1150.36,797.258 1115.71,822.491 1100.88,819.473 1133.89,785.185 1123.73,788.467 1072.7,828.507 945.475,947.21 987.681,903.755 944.319,930.866 1050.34,829.811 1067.57,833.633 1082.5,820.576 1173.77,748.44 1227.43,708.737 1188.3,759.765 1138.54,791.993 1135.21,785.7 1114.52,803.952 1102.09,826.701 1028.23,877.389 971.72,937.709 881.386,1018.58 854.863,1036.74 814.984,1068.63 854.138,1014.4 854.27,1012.98 898.106,966.972 971.764,892.645 1003.69,869.079 975.492,910.289 1041.81,840.421 1137.73,752.606 1124.73,782.693 1105.83,814.664 1050.02,874.226 1068.99,844.982 1156.28,773.563 1080.7,844.913 1176.17,745.633 1139.18,785.587 1217.17,722.227 1225.48,723.048 1321.38,635.724 1258.67,691.912 1172.23,767.434 1141.35,785.525 1195.33,723.658 1230.55,725.393 1243.04,709.544 1285.13,679.279 1296.58,674.277 1293.42,668.865 1293.81,696.3 1220.55,759.872 1165.55,786.418 1088.21,844.927 1069.66,846.216 1137.84,782.037 1068.04,843.075 1095.47,800.66 1248.55,684.328 1155.89,782.788 1204.99,742.068 1178.77,757.369 1129.45,809.335 1110.59,816.085 1140.37,779.332 1103.9,818.286 1234.14,686.767 1299.23,641.728 1338.58,626.915 1368.4,611.539 1368.12,626.52 1351.12,640.46 1281.78,707.219 1172.44,781.619 1164.56,778.723 1192.63,742.778 1171.74,767.724 1203.36,735.788 1165.69,764.525 1150.47,776.633 1107.2,820.038 1117.74,797.253 1172.83,749.959 1172.25,768.133 1082.74,838.124 1060.29,857.851 1055.58,853.895 1112.11,809.965 1098.72,814.035 1134.31,780.703 1158.75,758.242 1265.16,703.589 1203.58,751.653 1165.14,768.386 1143.44,789.424 1069.43,845.44 1134.94,776.929 1158.77,760.688 1136.66,791.171 1112.14,813.311 1082.3,846.519 1094,822.945 1054.4,860.029 1084.71,832.718 1190.47,721.913 1293.55,639.321 1259.91,690.881 1439.53,556.77 1354.11,635.997 1442.05,562.487 1496.02,536.883 1402.84,622.729 1273.55,716.713 1234.11,737.473 1298.42,666.44 1397.89,586.936 1436.71,570.242 1349.61,652.74 1439.94,576.924 1438.18,584.53 1550.48,501.076 1547.49,523.138 1474.72,572.515 1479.4,562.413 1388.98,627.989 1378.93,622.687 1371.86,619.298 1333.26,646.845 1346.1,635.587 1391.39,592.37 1443.04,553.821 1466.56,564.938 1491.09,538.036 1433.67,591.861 1473.63,561.442 1441.56,576.274 1280.71,722.869 1242.4,743.414 1275.98,687.657 1344.9,625.361 1299.36,671.877 1302.79,656.711 1279.53,699.179 1404.67,575.973 1398.76,598.76 1345.92,653.04 1338.89,653.715 1316.45,669.528 1303.45,670.22 1301.94,675.34 1286.93,680.176 1254.41,709.054 1319.62,664.765 1220.65,725.626 1281.89,671.811 1281.12,686.614 1234.07,730.329 1329.9,628.205 1193.11,750.08 1163.14,779.795 1130.46,811.623 1106.39,819.523 1157.72,780.681 1192.64,743.58 1017.83,885.488 1023.5,874.191 1062.49,834.987 1101.41,798.681 1056.81,845.899 1156.28,760.332 1149.54,780.169 1081.99,845.069 977.829,936.096 936.05,971.783 889.013,1008.24 878.331,1006.31 880.705,1000.34 899.246,966.88 925.864,941.27 937.378,939.697 914.657,967.153 923.239,945.288 982.553,889.038 991.138,896.193 1053.67,843.768 1042.13,859.15 1041.64,868.656 1096.76,803.069 1135.91,780.471 1160.16,755.541 1235.78,693.4 1357.58,604.204 1276.82,691.525 1305.51,664.206 1240.94,725.68 1266.52,694.335 1137.33,793.828 1130.15,798.253 1104.43,825.282 1015.88,900.185 987.645,910.496 1022.73,870.912 1070.96,829.587 1031.87,877.702 959.518,945.665 950.003,948.532 922.584,969.119 886.84,1000.81 950.108,925.364 963.445,923.547 941.272,946.51 868.642,1025.81 855.118,1025.58 802.351,1081.9 753.547,1123.88 792.276,1075.93 802.338,1060.54 779.535,1089.24 760.728,1110.95 835.199,1020.92 789.494,1085.68 794.139,1073.09 791.109,1072.33 753.724,1120.07 812.207,1045.33 907.114,954.311 958.846,908.464 1026.09,843.763 989.096,901.33 1068.69,826.923 1027.21,865.369 1008.97,890.37 1057.12,841.972 1123.35,799.281 1213.42,709.822 1205.77,728.44 1140.82,796.884 985.233,925.944 1006.16,897.836 978.667,923.232 937.705,962.264 911.882,978.354 883.097,1005.75 941.602,929.173 919.697,955.259 947.763,922.592 961.577,918.966 935.913,942.484 1040.02,836.141 1047.21,851.582 1130.91,769.765 1156.03,762.298 1222,708.737 1182.72,748.958 1133.84,798.271 1211.15,724.576 1149.21,785.761 1195.61,748.882 1211.28,729.032 1075.59,845.924 1001.56,910.238 1006.78,892.055 1029.88,864.706 1082.85,818.178 1039.96,870.01 1063.67,834.447 1068.51,835.328 1103.67,802.327 1195.53,732.654 1227.49,712.839 1169.81,762.427 1167.78,779.505 1162.82,771.007 1126.44,798.31 1139.53,790.762 1127.63,795.47 1090.59,820.819 1100.51,814.252 986.352,900.456 979.743,908.848 971.293,921.693 939.14,934.632 916.44,966.095 915.894,968.572 961.955,914.412 992.16,890.791 865.774,1007.59 897.924,979.497 874.044,996.49 881.416,1000.51 823.116,1046.87 773.081,1099.31 718.75,1151.59 765.028,1096.95 753.213,1107.61 799.829,1058.57 819.287,1045 784.358,1085.99 751.088,1122.99 763.404,1103.14 759.536,1110.89 766.32,1100.77 785.123,1080.55 754.856,1114.39 715.098,1156.81 740.439,1129.68 754.155,1115.7 792.228,1068.41 848.649,1008.33 801.424,1063.68 801.402,1066.24 767.823,1103.44 787.605,1080.28 830.463,1030.25 839.813,1026.43 830.953,1042.07 832.846,1038.04 888.046,968.519 859.182,1006.45 828.207,1040.08 869.321,1001.61 806.927,1075.63 778.273,1094.65 745.573,1133.83 732.316,1148.76 777.079,1084.69 811.655,1054.88 867.561,1003.48 788.239,1089.82 782.293,1088.64 793.969,1076.66 800.144,1063.55 807.991,1057.62 779.896,1090.87 784.726,1085.02 819.733,1049.35 812.114,1057.79 812.48,1049.74 745.676,1134.7 698.593,1178.45 700.127,1172.44 720.193,1147.75 745.668,1118.76 812.317,1044.89 862.973,998.074 935.196,934.114 954.767,917.117 1054.73,816.97 1100.52,791.752 1084.47,822.669 1140.83,766.588 1162.43,756.61 1174.4,757.034 1168.72,771.819 1157.55,788.081 1104.49,831.517 1159.1,764.954 1132.77,797.669 1057.44,853.638 1041.04,869.92 947.72,950.7 919.989,972.541 926.383,959.614 931.009,951.232 955.083,920.711 965.977,911.874 961.314,915.83 988.799,883.412 1059.37,818.403 1090.6,796.343 1059.05,846.373 1096.62,819.042 1108.01,803.684 1122.57,792.948 1093.96,820.944 1302.6,633.714 1264.35,685.464 1155.32,790.735 1203.88,731.209 1270.14,676.495 1245.34,713.173 1161.78,782.704 1107.17,821.283 1162.95,757.299 1172.76,758.59 1152.61,784.785 1114.37,813.794 1088.82,834.437 1107.63,811.157 1065.49,849.603 1085.67,832.234 1084.71,821.488 982.669,917.696 984.15,899.749 989.166,895.504 976.112,912.398 963.86,919.277 1007.38,894.215 1101.69,815.526 1111.24,798.713 997.764,911.655 1165.45,745.667 1173.82,747.975 1252.94,691.385 1326.3,643.768 1273.3,679.77 1211.69,721.848 1256.45,701.106 1327.87,639.476 1375.82,610.86 1283.58,679.863 1278.82,692.06 1451.23,533.15 1395.13,592.712 1308.78,655.323 1205.52,742.151 1143.34,789.655 1094.64,813.614 1103.82,811.658 1088.14,826.219 1036.45,878.222 1050.75,853.605 1055.73,829.582 962.597,913.495 1075.22,820.63 1114.8,798.254 1162.9,767.752 1248.77,703.694 1337.02,648.803 1296.84,672.554 1262.56,695.389 1109.13,817.817 1022.37,897.995 1050.98,855.34 1046.07,852.207 976.854,912.985 1004.97,889.058 1036.5,867.299 987.621,915.057 1082.83,824.088 1121.38,769.471 1039.33,843.998 1132.17,770.298 1144.84,756.436 1191.28,752.762 1185.25,757.746 1241.29,708.44 1227.54,715.687 1229.19,697.203 1087.85,826.313 1168,769.078 1160.53,773.743 1135.84,763.909 1042.28,865.59 1030.56,874.057 1073.07,832.494 1126.95,786.033 1147.14,770.377 1103.47,814.226 1068.9,837.406 1065.8,845.333 1121.95,800.362 1075.3,830.751 1231.68,687.881 1252.36,707.526 1347.65,644.029 1422.13,601.461 1359.8,652.087 1305.08,672.118 1351.12,623.823 1279.18,684.75 1329.14,644.1 1317.02,659.506 1233.38,730.145 1107.97,838.151 1053.11,870.882 1096.82,812.219 1072.04,836.429 1113.83,797.038 1021.92,880.258 995.524,906.534 915.164,977.669 888.086,997.514 873.577,1005.53 880.456,989.852 853.601,1013.82 843.61,1036.69 857.358,1027.6 914.998,959.082 914.179,954.76 909.931,959.277 949.996,919.465 969.571,908.352 995.296,905.186 990.967,919.848 1067.74,826.62 1133.05,768.613 1227.74,693.658 1215.57,718.157 1187.75,746.506 1117.98,816.099 1046.25,871.506 1089.74,821.047 1023.08,881.09 1016.54,886.627 1119.87,785.068 1066.27,846.469 1128.95,780.665 1171.45,755.485 1163.51,773.467 1160.06,775.405 1228.12,723.517 1211.58,739.51 1129.81,814.404 1150.65,784.088 1132.39,800.668 1155.83,772.738 1216.81,714.322 1235.84,697.951 1234.57,709.923 1272.57,679.689 1237.28,717.438 1206.08,737.233 1305.95,661.545 1303.96,655.969 1283.56,684.39 1364.16,615.14 1238.21,731.602 1127.64,818.231 1139.92,780.133 1228.69,695.742 1174.44,756.922 1107.92,813.431 1073.42,841.628 1100.62,831.966 1141.59,789.527 1272.79,677.331 1323.67,653.673 1353.87,626.065 1365.84,622.999 1476.07,555.519 1374.77,640.059 1312.72,687.233 1173.71,797.219 1195.65,758.123 1202.42,742.787 1268.6,686.086 1308.91,651.553 1343.89,616.699 1273.03,681.947 1152.32,776.533 1201.03,727.305 1181.82,741.32 1216.14,715.896 1326.33,621.951 1405.02,598.796 1404.05,606.051 1389.48,628.654 1279.19,719.106 1279.23,692.881 1266.9,699.052 1255.39,703.755 1253.95,698.871 1320.16,639.249 1443.22,580.768 1371.49,637.049 1375.33,630.055 1344.2,651.587 1294.5,702.648 1243.28,724.539 1128.62,816.968 1082.34,849.667 1080.81,829.609 1097.09,816.881 1129.12,778.396 1059.02,850.926 1056.59,850.195 1064.3,848.892 1006.56,895.298 987.655,903.219 973.025,915.284 977.016,911.126 972.568,924.647 1009.13,877.734 1054.63,846.595 1070.84,820.803 1094.01,813.341 1290.6,630.266 1377.1,588.514 1344.75,638.181 1326.15,660.644 1369.5,627.468 1285.31,700.984 1238.82,732.735 1198.13,762.421 1260.44,700.263 1273.26,698.818 1288.67,696.378 1231.75,716.176 1211.09,740.448 1193.48,746.041 1236.18,712.118 1227.3,718.318 1129.15,807.746 1209.25,716.872 1209.04,735.948 1231.2,711.035 1237.93,711.018 1161.99,778.768 1181.18,755.1 1138.72,781.458 1197.5,732.409 1220.19,727.56 1250.28,698.707 1314.08,649.253 1281.21,679.175 1273.82,697.392 1138.62,815.491 1090.91,855.99 1128.05,805.954 1151.47,798.227 1091.43,832.254 1160.27,754.372 1261.15,661.268 1214.85,723.322 1269.7,678.813 1289.05,681.435 1287.73,682.542 1225.1,734.207 1274.81,683.129 1262.32,716.241 1203.29,753.974 1184.83,758.585 1201.55,737.073 1181.68,759.399 1152.48,778.408 1172.27,756.948 1194.77,737.23 1101.66,818.463 1126.52,789.93 1059.38,853.632 1053.87,854.491 973.165,923.067 990.102,900.056 1097.62,787.398 1153.82,745.191 1221.28,696.039 1266.76,670.605 1290.46,660.83 1256.08,699.298 1140.03,802.888 1215.61,726.645 1190.46,744.59 1119.75,806.994 1048.29,857.321 1014.08,890.884 1026.03,869.503 981.898,924.031 1003.59,881.155 980.651,901.701 953.378,928.036 946.252,932.111 1010.22,871.375 928.06,954.417 957.385,936.316 887.437,989.552 914.922,964.747 904.254,967.822 1028.61,845.034 1022.92,864.266 1100.27,797.213 1093,810.034 1049.82,856.511 1059.34,851.267 989.834,906.297 957.982,925.844 979.852,899.757 1021.84,848.836 1009.16,864.28 1024.09,843.75 1108.32,774.791 1183.98,722.956 1210.11,734.634 1189.18,763.424 1202.89,750.768 1177.68,761.292 1073.23,861.596 993.397,915.127 984.678,920.203 940.917,957.831 939.419,955.962 925.094,962.394 959.874,922.83 930.351,956.387 941.895,935.086 938.528,941.763 966.426,916.284 981.464,909.058 939.792,949.769 1019.81,862.104 1085.43,797.98 1125.93,784.897 1163.57,758.394 1064.57,855.744 1054.89,856.17 1145.05,774.236 1130.61,790.324 1073.14,840.607 1143.28,771.397 1262.57,692.222 1309.89,664.208 1281.48,692.55 1348.07,622.987 1276.21,695.468 1255.81,710.241 1241.56,716.706 1213.45,711.02 1103.62,821.912 1170.98,764.251 1214.7,712.29 1173.14,743.215 1170.35,747.903 1127.66,774.219 1154.82,766.072 1160.17,764.426 1208.82,720.22 1267.36,670.864 1230.09,686.629 1157.05,737.991 1126.67,753.016 1117.44,796.367 1205.82,726.593 1281.58,683.891 1170.46,760.59 1233.74,721.08 1150.53,788.644 1213.58,739.352 1076.62,841.365 1078.3,828.312 1050.84,845.067 1049.15,854.465 1104.57,801.882 1114.03,774.05 1090.45,814.975 1316.55,611.837 1246.34,697.312 1313.21,659.818 1342.05,650.877 1190.33,766.716 1078.97,849.064 1025.49,892.189 1024.63,883.935 1087.41,811.315 966.112,923.078 937.067,946.832 918.39,961.188 966.896,909.286 1041.65,868.173 1049.22,858.076 1053.16,848.785 1065.56,850.339 1011.04,890.426 990.076,909.357 1046.18,855.761 1021.15,885.668 1044.11,844.765 1129.06,782.441 1138.37,773.208 1206.19,722.327 1147.01,789.279 1227.53,713.26 1304.16,674.177 1292.29,681.493 1238.85,719.465 1275.96,678.044 1084.31,838.602 1146.33,774.841 1137.6,780.247 1140.01,797.889 1102.46,828.684 1087.96,831.842 1082.35,825.431 1108.71,794.477 1235.77,716.544 1292.64,667.589 1252.02,711.21 1366.8,597.734 1344,647.558 1347.08,642.189 1372.43,619.311 1330.4,657.877 1346.68,646.907 1308.08,674.57 1423.79,577.403 1411.22,592.916 1298.22,680.628 1237.98,728.54 1136.01,808.518 1098.35,827.925 1002.56,908.864 1039.92,864.34 1045.52,853.416 1109.72,785.88 1121.09,792.973 1135.61,785.351 1227.94,699.672 1060.83,870.699 1055.6,855.742 991.029,918.194 1023.4,880.359 1040.38,861.128 951.03,951.21 915.286,976.896 949.832,931.015 955.131,924.199 961.042,918.667 909.579,982.243 918.013,968.269 935.617,952.443 960.261,925.916 904.997,985.239 957.996,932.181 989.529,915.605 1135.16,776.516 1097.85,811.891 1057.4,854.511 987.381,925.649 977.012,905.217 1056.55,830.579 1023.85,860.319 1052.01,845.725 1133.19,774.206 1161.83,745.232 1129.34,800.966 1175.37,769.599 1268.21,680.521 1266.83,697.885 1329.41,665.486 1309.32,681.085 1386.29,636.344 1257.26,730.517 1220.71,744.257 1269,679.898 1213.25,735.009 1223.75,733.251 1251.23,700.743 1312.28,664.027 1274.43,677.416 1202.77,736.033 1200.87,742.541 1193.91,753.738 1239.72,728.325 1176.06,759.399 1103.43,814.94 1070.64,846.276 1058.27,864.149 990.807,912.113 1054.52,840.637 1072.4,821.193 1020.3,877.443 1073.05,836.483 1102.18,800.708 1078.82,829.862 1042.37,854.343 1121.77,801.171 1021.48,888.865 1040.94,862.514 1070.27,835.724 1031.12,869.987 977.967,901.338 1002.42,887.525 1058.92,848.036 1027.53,865.167 1094.44,808.607 1088.82,825.336 1145.27,779.456 1018.2,871.114 1011.23,873.289 1120.24,783.216 1081.52,831.683 1159.6,762.193 1087.6,835.864 1043.44,872.224 1018.34,887.746 1076.62,816.777 1082.84,834.522 1104.52,807.337 1201.87,728.778 1179.2,755.289 1219.47,715.93 1201.5,746.196 1251.32,703.223 1258.17,691.492 1214.86,735.94 1125.12,808.727 1094.13,835.202 1134,788.773 1132.04,793.859 1230.91,701.342 1234.26,714.438 1268.48,687.334 1277.08,689.958 1277.57,689.912 1357.16,631.125 1260.94,714.292 1231.16,736.194 1272.04,689.658 1224.91,724.198 1164.12,781.564 1158.75,798.732 1038.85,898.255 1011.51,908.784 1027.17,875.342 1067.31,834.892 1062.54,843.171 1080.49,824.408 1035.28,868.555 982.926,915.379 1008.63,886.326 997.785,893.95 1019.45,855.142 911.927,975.272 935.355,946.046 879.395,990.894 953.022,924.379 1011.4,892.356 956.127,934.984 982.67,902.849 988.963,908.088 1051.06,838.047 1016.48,883.312 1044.87,858.267 1047.37,857.046 986.452,914.498 1100.21,800.944 1047.27,831.705 1074.58,805.904 1115.26,793.65 1143.19,767.297 1070.11,824.18 970.587,914.3 1006.1,872.17 1073.53,812.672 1065.8,833.035 1080.58,824.613 1080.18,816.726 1070.59,819.299 1130.15,800.626 1095.79,831.629 969.81,943.526 1000.98,895.453 1005.27,894.149 955.645,934.087 946.018,939.045 922.587,966.741 935.303,948.279 990.974,903.458 1008.78,903.941 1041.5,859.752 1114.13,795.691 1000.74,904.713 1021.62,875.448 1079.94,820.104 1046.44,864.51 1114.03,813.116 1132.64,796.29 1064.86,847.787 997.608,906.652 984.133,910.859 972.911,907.432 1075.91,829.995 1023.42,891.563 1053.13,851.435 1091.62,818.668 1192.54,728.183 1082.42,829.11 1014.58,883.801 1013.2,882.635 971.826,934.058 937.785,951.862 905.355,979.831 835.956,1039.94 838.021,1031.81 850,1013.7 901.987,967.123 1054.26,817.438 1054.34,830.657 1073.3,817.41 1048.61,851.854 1039.9,864.991 1065.67,838.32 1021.37,884.157 1007.12,882.47 1040.98,859.418 1004.19,901.389 1002.67,910.855 1043.67,879.586 1040.29,876.587 1080.98,843.728 1161.8,790.326 1028,898.799 1010.07,903.241 929.935,963.328 910.286,976.329 947.34,936.572 897.966,978.219 935.617,933.147 920.316,961.291 999.473,880.929 1016.76,871.408 1025.91,852.04 980.646,909.299 987.743,893.815 1009.81,876.34 947.129,946.937 1060.58,839.33 1113.28,794.628 1174.56,742.614 1252.04,689.398 1173.89,772.279 1264.36,685.496 1217.26,720.821 1136.25,785.716 1049.89,871.779 971.67,943.393 1005.53,890.734 941.117,942.212 906.663,992.74 887.015,1014.57 839.333,1052.68 814.203,1073.11 773.094,1104 825.098,1041.52 846.93,1016.45 814.982,1057.19 866.356,990.633 891.508,980.892 943.703,932.688 1037.2,839.298 1123.79,758.33 1190.42,729.305 1119.82,813.229 1165.31,765.832 1115.13,807.764 1093.81,820.271 1098.41,822.815 1027.13,882.764 1107.89,796.833 1149.24,775.23 1161.39,773.405 1246.61,687.573 1291.37,669.503 1323.13,637.852 1303.09,656.687 1280.97,683.462 1523.91,485.648 1526.5,513.362 1560.4,506.796 1451.86,587.397 1382.97,627.729 1299.89,687.136 1310.72,666.319 1427.48,568.982 1363.79,645.614 1318.08,673.437 1381.8,612.914 1474.99,549.048 1558.39,489.462 1539.73,531.384 1594.11,479.818 1602.95,471.413 1763.21,354.333 1742.99,400.022 1588.91,525.472 1597.76,500.788 1463.58,601.968 1433.7,609.33 1335.58,687.708 1381.86,622.178 1403.6,598.474 1403.86,602.282 1321.42,677.631 1274.69,706.465 1173.91,789.691 1148.49,798.891 1157.23,773.181 1185.5,743.812 1151.35,769.817 1188.4,741.603 1126.96,798.131 1072.15,844.155 1022.01,885.507 988.79,910.257 1003.75,885.326 1022.45,864.774 999.78,887.759 982.48,906.221 1100.05,792.984 1122.5,784.58 1071.03,837.931 1073.63,828.863 1111.76,803.438 1151.3,787.012 1157.65,778.462 1136.07,787.701 1087.37,828.516 992.157,912.129 981.94,903.898 1027.92,860.716 1008.04,888.974 997.934,895.572 1060.12,847.18 1158.41,754.639 1273.47,662.5 1261.58,679.423 "/>
<path clip-path="url(#clip810)" d="M186.863 198.898 L550.897 198.898 L550.897 95.2176 L186.863 95.2176  Z" fill="#ffffff" fill-rule="evenodd" fill-opacity="1"/>
<polyline clip-path="url(#clip810)" style="stroke:#000000; stroke-linecap:round; stroke-linejoin:round; stroke-width:4; stroke-opacity:1; fill:none" points="186.863,198.898 550.897,198.898 550.897,95.2176 186.863,95.2176 186.863,198.898 "/>
<polyline clip-path="url(#clip810)" style="stroke:#009af9; stroke-linecap:round; stroke-linejoin:round; stroke-width:4; stroke-opacity:1; fill:none" points="211.758,147.058 361.13,147.058 "/>
<path clip-path="url(#clip810)" d="M396.651 128.366 Q393.549 133.69 392.044 138.898 Q390.54 144.106 390.54 149.453 Q390.54 154.801 392.044 160.055 Q393.572 165.287 396.651 170.588 L392.947 170.588 Q389.475 165.148 387.739 159.893 Q386.026 154.639 386.026 149.453 Q386.026 144.291 387.739 139.06 Q389.452 133.828 392.947 128.366 L396.651 128.366 Z" fill="#000000" fill-rule="nonzero" fill-opacity="1" /><path clip-path="url(#clip810)" d="M403.063 138.412 L423.294 138.412 L423.294 142.301 L407.276 160.935 L423.294 160.935 L423.294 164.338 L402.484 164.338 L402.484 160.449 L418.502 141.815 L403.063 141.815 L403.063 138.412 Z" fill="#000000" fill-rule="nonzero" fill-opacity="1" /><path clip-path="url(#clip810)" d="M430.887 158.458 L435.771 158.458 L435.771 162.439 L431.975 169.847 L428.988 169.847 L430.887 162.439 L430.887 158.458 Z" fill="#000000" fill-rule="nonzero" fill-opacity="1" /><path clip-path="url(#clip810)" d="M455.655 166.745 Q453.849 171.375 452.136 172.787 Q450.423 174.199 447.553 174.199 L444.15 174.199 L444.15 170.634 L446.65 170.634 Q448.41 170.634 449.382 169.8 Q450.354 168.967 451.535 165.865 L452.298 163.921 L441.812 138.412 L446.326 138.412 L454.428 158.689 L462.53 138.412 L467.044 138.412 L455.655 166.745 Z" fill="#000000" fill-rule="nonzero" fill-opacity="1" /><path clip-path="url(#clip810)" d="M474.011 158.458 L478.896 158.458 L478.896 162.439 L475.099 169.847 L472.113 169.847 L474.011 162.439 L474.011 158.458 Z" fill="#000000" fill-rule="nonzero" fill-opacity="1" /><path clip-path="url(#clip810)" d="M509.544 138.412 L500.169 151.027 L510.03 164.338 L505.007 164.338 L497.46 154.152 L489.914 164.338 L484.891 164.338 L494.96 150.773 L485.747 138.412 L490.77 138.412 L497.645 147.648 L504.52 138.412 L509.544 138.412 Z" fill="#000000" fill-rule="nonzero" fill-opacity="1" /><path clip-path="url(#clip810)" d="M515.377 128.366 L519.081 128.366 Q522.553 133.828 524.266 139.06 Q526.002 144.291 526.002 149.453 Q526.002 154.639 524.266 159.893 Q522.553 165.148 519.081 170.588 L515.377 170.588 Q518.456 165.287 519.96 160.055 Q521.488 154.801 521.488 149.453 Q521.488 144.106 519.96 138.898 Q518.456 133.69 515.377 128.366 Z" fill="#000000" fill-rule="nonzero" fill-opacity="1" /></svg>
