<?xml version="1.0" encoding="utf-8"?>
<svg xmlns="http://www.w3.org/2000/svg" xmlns:xlink="http://www.w3.org/1999/xlink" width="600" height="400" viewBox="0 0 2400 1600">
<defs>
  <clipPath id="clip110">
    <rect x="0" y="0" width="2400" height="1600"/>
  </clipPath>
</defs>
<path clip-path="url(#clip110)" d="M0 1600 L2400 1600 L2400 0 L0 0  Z" fill="#ffffff" fill-rule="evenodd" fill-opacity="1"/>
<defs>
  <clipPath id="clip111">
    <rect x="193" y="47" width="2160" height="1377"/>
  </clipPath>
</defs>
<path clip-path="url(#clip110)" d="M193.936 1423.18 L2352.76 1423.18 L2352.76 47.2441 L193.936 47.2441  Z" fill="#ffffff" fill-rule="evenodd" fill-opacity="1"/>
<polyline clip-path="url(#clip111)" style="stroke:#000000; stroke-linecap:round; stroke-linejoin:round; stroke-width:2; stroke-opacity:0.1; fill:none" points="193.936,1423.18 193.936,47.2441 "/>
<polyline clip-path="url(#clip111)" style="stroke:#000000; stroke-linecap:round; stroke-linejoin:round; stroke-width:2; stroke-opacity:0.1; fill:none" points="625.7,1423.18 625.7,47.2441 "/>
<polyline clip-path="url(#clip111)" style="stroke:#000000; stroke-linecap:round; stroke-linejoin:round; stroke-width:2; stroke-opacity:0.1; fill:none" points="1057.46,1423.18 1057.46,47.2441 "/>
<polyline clip-path="url(#clip111)" style="stroke:#000000; stroke-linecap:round; stroke-linejoin:round; stroke-width:2; stroke-opacity:0.1; fill:none" points="1489.23,1423.18 1489.23,47.2441 "/>
<polyline clip-path="url(#clip111)" style="stroke:#000000; stroke-linecap:round; stroke-linejoin:round; stroke-width:2; stroke-opacity:0.1; fill:none" points="1920.99,1423.18 1920.99,47.2441 "/>
<polyline clip-path="url(#clip111)" style="stroke:#000000; stroke-linecap:round; stroke-linejoin:round; stroke-width:2; stroke-opacity:0.1; fill:none" points="2352.76,1423.18 2352.76,47.2441 "/>
<polyline clip-path="url(#clip111)" style="stroke:#000000; stroke-linecap:round; stroke-linejoin:round; stroke-width:2; stroke-opacity:0.1; fill:none" points="193.936,1340.09 2352.76,1340.09 "/>
<polyline clip-path="url(#clip111)" style="stroke:#000000; stroke-linecap:round; stroke-linejoin:round; stroke-width:2; stroke-opacity:0.1; fill:none" points="193.936,1013.28 2352.76,1013.28 "/>
<polyline clip-path="url(#clip111)" style="stroke:#000000; stroke-linecap:round; stroke-linejoin:round; stroke-width:2; stroke-opacity:0.1; fill:none" points="193.936,686.474 2352.76,686.474 "/>
<polyline clip-path="url(#clip111)" style="stroke:#000000; stroke-linecap:round; stroke-linejoin:round; stroke-width:2; stroke-opacity:0.1; fill:none" points="193.936,359.668 2352.76,359.668 "/>
<polyline clip-path="url(#clip110)" style="stroke:#000000; stroke-linecap:round; stroke-linejoin:round; stroke-width:4; stroke-opacity:1; fill:none" points="193.936,1423.18 2352.76,1423.18 "/>
<polyline clip-path="url(#clip110)" style="stroke:#000000; stroke-linecap:round; stroke-linejoin:round; stroke-width:4; stroke-opacity:1; fill:none" points="193.936,1423.18 193.936,1404.28 "/>
<polyline clip-path="url(#clip110)" style="stroke:#000000; stroke-linecap:round; stroke-linejoin:round; stroke-width:4; stroke-opacity:1; fill:none" points="625.7,1423.18 625.7,1404.28 "/>
<polyline clip-path="url(#clip110)" style="stroke:#000000; stroke-linecap:round; stroke-linejoin:round; stroke-width:4; stroke-opacity:1; fill:none" points="1057.46,1423.18 1057.46,1404.28 "/>
<polyline clip-path="url(#clip110)" style="stroke:#000000; stroke-linecap:round; stroke-linejoin:round; stroke-width:4; stroke-opacity:1; fill:none" points="1489.23,1423.18 1489.23,1404.28 "/>
<polyline clip-path="url(#clip110)" style="stroke:#000000; stroke-linecap:round; stroke-linejoin:round; stroke-width:4; stroke-opacity:1; fill:none" points="1920.99,1423.18 1920.99,1404.28 "/>
<polyline clip-path="url(#clip110)" style="stroke:#000000; stroke-linecap:round; stroke-linejoin:round; stroke-width:4; stroke-opacity:1; fill:none" points="2352.76,1423.18 2352.76,1404.28 "/>
<path clip-path="url(#clip110)" d="M193.936 1454.1 Q190.325 1454.1 188.496 1457.66 Q186.691 1461.2 186.691 1468.33 Q186.691 1475.44 188.496 1479.01 Q190.325 1482.55 193.936 1482.55 Q197.57 1482.55 199.376 1479.01 Q201.204 1475.44 201.204 1468.33 Q201.204 1461.2 199.376 1457.66 Q197.57 1454.1 193.936 1454.1 M193.936 1450.39 Q199.746 1450.39 202.802 1455 Q205.88 1459.58 205.88 1468.33 Q205.88 1477.06 202.802 1481.67 Q199.746 1486.25 193.936 1486.25 Q188.126 1486.25 185.047 1481.67 Q181.992 1477.06 181.992 1468.33 Q181.992 1459.58 185.047 1455 Q188.126 1450.39 193.936 1450.39 Z" fill="#000000" fill-rule="nonzero" fill-opacity="1" /><path clip-path="url(#clip110)" d="M620.353 1481.64 L636.672 1481.64 L636.672 1485.58 L614.728 1485.58 L614.728 1481.64 Q617.39 1478.89 621.973 1474.26 Q626.58 1469.61 627.76 1468.27 Q630.006 1465.74 630.885 1464.01 Q631.788 1462.25 631.788 1460.56 Q631.788 1457.8 629.843 1456.07 Q627.922 1454.33 624.82 1454.33 Q622.621 1454.33 620.168 1455.09 Q617.737 1455.86 614.959 1457.41 L614.959 1452.69 Q617.783 1451.55 620.237 1450.97 Q622.691 1450.39 624.728 1450.39 Q630.098 1450.39 633.293 1453.08 Q636.487 1455.77 636.487 1460.26 Q636.487 1462.39 635.677 1464.31 Q634.89 1466.2 632.783 1468.8 Q632.205 1469.47 629.103 1472.69 Q626.001 1475.88 620.353 1481.64 Z" fill="#000000" fill-rule="nonzero" fill-opacity="1" /><path clip-path="url(#clip110)" d="M1060.47 1455.09 L1048.67 1473.54 L1060.47 1473.54 L1060.47 1455.09 M1059.25 1451.02 L1065.13 1451.02 L1065.13 1473.54 L1070.06 1473.54 L1070.06 1477.43 L1065.13 1477.43 L1065.13 1485.58 L1060.47 1485.58 L1060.47 1477.43 L1044.87 1477.43 L1044.87 1472.92 L1059.25 1451.02 Z" fill="#000000" fill-rule="nonzero" fill-opacity="1" /><path clip-path="url(#clip110)" d="M1489.63 1466.44 Q1486.48 1466.44 1484.63 1468.59 Q1482.8 1470.74 1482.8 1474.49 Q1482.8 1478.22 1484.63 1480.39 Q1486.48 1482.55 1489.63 1482.55 Q1492.78 1482.55 1494.61 1480.39 Q1496.46 1478.22 1496.46 1474.49 Q1496.46 1470.74 1494.61 1468.59 Q1492.78 1466.44 1489.63 1466.44 M1498.92 1451.78 L1498.92 1456.04 Q1497.16 1455.21 1495.35 1454.77 Q1493.57 1454.33 1491.81 1454.33 Q1487.18 1454.33 1484.73 1457.45 Q1482.3 1460.58 1481.95 1466.9 Q1483.31 1464.89 1485.37 1463.82 Q1487.43 1462.73 1489.91 1462.73 Q1495.12 1462.73 1498.13 1465.9 Q1501.16 1469.05 1501.16 1474.49 Q1501.16 1479.82 1498.01 1483.03 Q1494.86 1486.25 1489.63 1486.25 Q1483.64 1486.25 1480.47 1481.67 Q1477.3 1477.06 1477.3 1468.33 Q1477.3 1460.14 1481.18 1455.28 Q1485.07 1450.39 1491.62 1450.39 Q1493.38 1450.39 1495.17 1450.74 Q1496.97 1451.09 1498.92 1451.78 Z" fill="#000000" fill-rule="nonzero" fill-opacity="1" /><path clip-path="url(#clip110)" d="M1920.99 1469.17 Q1917.66 1469.17 1915.74 1470.95 Q1913.84 1472.73 1913.84 1475.86 Q1913.84 1478.98 1915.74 1480.77 Q1917.66 1482.55 1920.99 1482.55 Q1924.33 1482.55 1926.25 1480.77 Q1928.17 1478.96 1928.17 1475.86 Q1928.17 1472.73 1926.25 1470.95 Q1924.35 1469.17 1920.99 1469.17 M1916.32 1467.18 Q1913.31 1466.44 1911.62 1464.38 Q1909.95 1462.32 1909.95 1459.35 Q1909.95 1455.21 1912.89 1452.8 Q1915.85 1450.39 1920.99 1450.39 Q1926.15 1450.39 1929.09 1452.8 Q1932.03 1455.21 1932.03 1459.35 Q1932.03 1462.32 1930.34 1464.38 Q1928.68 1466.44 1925.69 1467.18 Q1929.07 1467.96 1930.95 1470.26 Q1932.84 1472.55 1932.84 1475.86 Q1932.84 1480.88 1929.77 1483.57 Q1926.71 1486.25 1920.99 1486.25 Q1915.27 1486.25 1912.2 1483.57 Q1909.14 1480.88 1909.14 1475.86 Q1909.14 1472.55 1911.04 1470.26 Q1912.94 1467.96 1916.32 1467.18 M1914.6 1459.79 Q1914.6 1462.48 1916.27 1463.98 Q1917.96 1465.49 1920.99 1465.49 Q1924 1465.49 1925.69 1463.98 Q1927.4 1462.48 1927.4 1459.79 Q1927.4 1457.11 1925.69 1455.6 Q1924 1454.1 1920.99 1454.1 Q1917.96 1454.1 1916.27 1455.6 Q1914.6 1457.11 1914.6 1459.79 Z" fill="#000000" fill-rule="nonzero" fill-opacity="1" /><path clip-path="url(#clip110)" d="M2327.44 1481.64 L2335.08 1481.64 L2335.08 1455.28 L2326.77 1456.95 L2326.77 1452.69 L2335.04 1451.02 L2339.71 1451.02 L2339.71 1481.64 L2347.35 1481.64 L2347.35 1485.58 L2327.44 1485.58 L2327.44 1481.64 Z" fill="#000000" fill-rule="nonzero" fill-opacity="1" /><path clip-path="url(#clip110)" d="M2366.8 1454.1 Q2363.18 1454.1 2361.36 1457.66 Q2359.55 1461.2 2359.55 1468.33 Q2359.55 1475.44 2361.36 1479.01 Q2363.18 1482.55 2366.8 1482.55 Q2370.43 1482.55 2372.23 1479.01 Q2374.06 1475.44 2374.06 1468.33 Q2374.06 1461.2 2372.23 1457.66 Q2370.43 1454.1 2366.8 1454.1 M2366.8 1450.39 Q2372.61 1450.39 2375.66 1455 Q2378.74 1459.58 2378.74 1468.33 Q2378.74 1477.06 2375.66 1481.67 Q2372.61 1486.25 2366.8 1486.25 Q2360.99 1486.25 2357.91 1481.67 Q2354.85 1477.06 2354.85 1468.33 Q2354.85 1459.58 2357.91 1455 Q2360.99 1450.39 2366.8 1450.39 Z" fill="#000000" fill-rule="nonzero" fill-opacity="1" /><path clip-path="url(#clip110)" d="M1272.41 1522.27 L1272.41 1532.4 L1284.47 1532.4 L1284.47 1536.95 L1272.41 1536.95 L1272.41 1556.3 Q1272.41 1560.66 1273.58 1561.9 Q1274.79 1563.14 1278.45 1563.14 L1284.47 1563.14 L1284.47 1568.04 L1278.45 1568.04 Q1271.67 1568.04 1269.1 1565.53 Q1266.52 1562.98 1266.52 1556.3 L1266.52 1536.95 L1262.22 1536.95 L1262.22 1532.4 L1266.52 1532.4 L1266.52 1522.27 L1272.41 1522.27 Z" fill="#000000" fill-rule="nonzero" fill-opacity="1" /><polyline clip-path="url(#clip110)" style="stroke:#000000; stroke-linecap:round; stroke-linejoin:round; stroke-width:4; stroke-opacity:1; fill:none" points="193.936,1423.18 193.936,47.2441 "/>
<polyline clip-path="url(#clip110)" style="stroke:#000000; stroke-linecap:round; stroke-linejoin:round; stroke-width:4; stroke-opacity:1; fill:none" points="193.936,1340.09 212.834,1340.09 "/>
<polyline clip-path="url(#clip110)" style="stroke:#000000; stroke-linecap:round; stroke-linejoin:round; stroke-width:4; stroke-opacity:1; fill:none" points="193.936,1013.28 212.834,1013.28 "/>
<polyline clip-path="url(#clip110)" style="stroke:#000000; stroke-linecap:round; stroke-linejoin:round; stroke-width:4; stroke-opacity:1; fill:none" points="193.936,686.474 212.834,686.474 "/>
<polyline clip-path="url(#clip110)" style="stroke:#000000; stroke-linecap:round; stroke-linejoin:round; stroke-width:4; stroke-opacity:1; fill:none" points="193.936,359.668 212.834,359.668 "/>
<path clip-path="url(#clip110)" d="M50.9921 1340.54 L80.6679 1340.54 L80.6679 1344.47 L50.9921 1344.47 L50.9921 1340.54 Z" fill="#000000" fill-rule="nonzero" fill-opacity="1" /><path clip-path="url(#clip110)" d="M91.5706 1353.43 L99.2095 1353.43 L99.2095 1327.07 L90.8993 1328.73 L90.8993 1324.47 L99.1632 1322.81 L103.839 1322.81 L103.839 1353.43 L111.478 1353.43 L111.478 1357.37 L91.5706 1357.37 L91.5706 1353.43 Z" fill="#000000" fill-rule="nonzero" fill-opacity="1" /><path clip-path="url(#clip110)" d="M120.922 1351.49 L125.807 1351.49 L125.807 1357.37 L120.922 1357.37 L120.922 1351.49 Z" fill="#000000" fill-rule="nonzero" fill-opacity="1" /><path clip-path="url(#clip110)" d="M145.992 1325.89 Q142.381 1325.89 140.552 1329.45 Q138.746 1332.99 138.746 1340.12 Q138.746 1347.23 140.552 1350.79 Q142.381 1354.33 145.992 1354.33 Q149.626 1354.33 151.431 1350.79 Q153.26 1347.23 153.26 1340.12 Q153.26 1332.99 151.431 1329.45 Q149.626 1325.89 145.992 1325.89 M145.992 1322.18 Q151.802 1322.18 154.857 1326.79 Q157.936 1331.37 157.936 1340.12 Q157.936 1348.85 154.857 1353.45 Q151.802 1358.04 145.992 1358.04 Q140.181 1358.04 137.103 1353.45 Q134.047 1348.85 134.047 1340.12 Q134.047 1331.37 137.103 1326.79 Q140.181 1322.18 145.992 1322.18 Z" fill="#000000" fill-rule="nonzero" fill-opacity="1" /><path clip-path="url(#clip110)" d="M51.9875 1013.73 L81.6633 1013.73 L81.6633 1017.67 L51.9875 1017.67 L51.9875 1013.73 Z" fill="#000000" fill-rule="nonzero" fill-opacity="1" /><path clip-path="url(#clip110)" d="M101.756 999.079 Q98.1447 999.079 96.316 1002.64 Q94.5104 1006.19 94.5104 1013.32 Q94.5104 1020.42 96.316 1023.99 Q98.1447 1027.53 101.756 1027.53 Q105.39 1027.53 107.196 1023.99 Q109.024 1020.42 109.024 1013.32 Q109.024 1006.19 107.196 1002.64 Q105.39 999.079 101.756 999.079 M101.756 995.375 Q107.566 995.375 110.621 999.982 Q113.7 1004.57 113.7 1013.32 Q113.7 1022.04 110.621 1026.65 Q107.566 1031.23 101.756 1031.23 Q95.9456 1031.23 92.8669 1026.65 Q89.8114 1022.04 89.8114 1013.32 Q89.8114 1004.57 92.8669 999.982 Q95.9456 995.375 101.756 995.375 Z" fill="#000000" fill-rule="nonzero" fill-opacity="1" /><path clip-path="url(#clip110)" d="M121.918 1024.68 L126.802 1024.68 L126.802 1030.56 L121.918 1030.56 L121.918 1024.68 Z" fill="#000000" fill-rule="nonzero" fill-opacity="1" /><path clip-path="url(#clip110)" d="M137.033 996 L155.39 996 L155.39 999.936 L141.316 999.936 L141.316 1008.41 Q142.334 1008.06 143.353 1007.9 Q144.371 1007.71 145.39 1007.71 Q151.177 1007.71 154.556 1010.88 Q157.936 1014.06 157.936 1019.47 Q157.936 1025.05 154.464 1028.15 Q150.992 1031.23 144.672 1031.23 Q142.496 1031.23 140.228 1030.86 Q137.982 1030.49 135.575 1029.75 L135.575 1025.05 Q137.658 1026.19 139.881 1026.74 Q142.103 1027.3 144.58 1027.3 Q148.584 1027.3 150.922 1025.19 Q153.26 1023.08 153.26 1019.47 Q153.26 1015.86 150.922 1013.75 Q148.584 1011.65 144.58 1011.65 Q142.705 1011.65 140.83 1012.07 Q138.978 1012.48 137.033 1013.36 L137.033 996 Z" fill="#000000" fill-rule="nonzero" fill-opacity="1" /><path clip-path="url(#clip110)" d="M100.76 672.273 Q97.1493 672.273 95.3206 675.838 Q93.515 679.379 93.515 686.509 Q93.515 693.616 95.3206 697.18 Q97.1493 700.722 100.76 700.722 Q104.395 700.722 106.2 697.18 Q108.029 693.616 108.029 686.509 Q108.029 679.379 106.2 675.838 Q104.395 672.273 100.76 672.273 M100.76 668.569 Q106.571 668.569 109.626 673.176 Q112.705 677.759 112.705 686.509 Q112.705 695.236 109.626 699.842 Q106.571 704.426 100.76 704.426 Q94.9502 704.426 91.8715 699.842 Q88.816 695.236 88.816 686.509 Q88.816 677.759 91.8715 673.176 Q94.9502 668.569 100.76 668.569 Z" fill="#000000" fill-rule="nonzero" fill-opacity="1" /><path clip-path="url(#clip110)" d="M120.922 697.875 L125.807 697.875 L125.807 703.754 L120.922 703.754 L120.922 697.875 Z" fill="#000000" fill-rule="nonzero" fill-opacity="1" /><path clip-path="url(#clip110)" d="M145.992 672.273 Q142.381 672.273 140.552 675.838 Q138.746 679.379 138.746 686.509 Q138.746 693.616 140.552 697.18 Q142.381 700.722 145.992 700.722 Q149.626 700.722 151.431 697.18 Q153.26 693.616 153.26 686.509 Q153.26 679.379 151.431 675.838 Q149.626 672.273 145.992 672.273 M145.992 668.569 Q151.802 668.569 154.857 673.176 Q157.936 677.759 157.936 686.509 Q157.936 695.236 154.857 699.842 Q151.802 704.426 145.992 704.426 Q140.181 704.426 137.103 699.842 Q134.047 695.236 134.047 686.509 Q134.047 677.759 137.103 673.176 Q140.181 668.569 145.992 668.569 Z" fill="#000000" fill-rule="nonzero" fill-opacity="1" /><path clip-path="url(#clip110)" d="M101.756 345.467 Q98.1447 345.467 96.316 349.032 Q94.5104 352.573 94.5104 359.703 Q94.5104 366.809 96.316 370.374 Q98.1447 373.916 101.756 373.916 Q105.39 373.916 107.196 370.374 Q109.024 366.809 109.024 359.703 Q109.024 352.573 107.196 349.032 Q105.39 345.467 101.756 345.467 M101.756 341.763 Q107.566 341.763 110.621 346.37 Q113.7 350.953 113.7 359.703 Q113.7 368.43 110.621 373.036 Q107.566 377.62 101.756 377.62 Q95.9456 377.62 92.8669 373.036 Q89.8114 368.43 89.8114 359.703 Q89.8114 350.953 92.8669 346.37 Q95.9456 341.763 101.756 341.763 Z" fill="#000000" fill-rule="nonzero" fill-opacity="1" /><path clip-path="url(#clip110)" d="M121.918 371.069 L126.802 371.069 L126.802 376.948 L121.918 376.948 L121.918 371.069 Z" fill="#000000" fill-rule="nonzero" fill-opacity="1" /><path clip-path="url(#clip110)" d="M137.033 342.388 L155.39 342.388 L155.39 346.323 L141.316 346.323 L141.316 354.796 Q142.334 354.448 143.353 354.286 Q144.371 354.101 145.39 354.101 Q151.177 354.101 154.556 357.272 Q157.936 360.444 157.936 365.86 Q157.936 371.439 154.464 374.541 Q150.992 377.62 144.672 377.62 Q142.496 377.62 140.228 377.249 Q137.982 376.879 135.575 376.138 L135.575 371.439 Q137.658 372.573 139.881 373.129 Q142.103 373.684 144.58 373.684 Q148.584 373.684 150.922 371.578 Q153.26 369.471 153.26 365.86 Q153.26 362.249 150.922 360.143 Q148.584 358.036 144.58 358.036 Q142.705 358.036 140.83 358.453 Q138.978 358.87 137.033 359.749 L137.033 342.388 Z" fill="#000000" fill-rule="nonzero" fill-opacity="1" /><polyline clip-path="url(#clip111)" style="stroke:#009af9; stroke-linecap:round; stroke-linejoin:round; stroke-width:4; stroke-opacity:1; fill:none" points="193.936,686.474 196.097,694.852 198.258,703.118 200.419,711.275 202.58,719.323 204.741,727.265 206.902,735.102 209.063,742.834 211.224,750.464 213.385,757.993 215.546,765.422 217.707,772.753 219.868,779.987 222.029,787.124 224.19,794.167 226.351,801.117 228.512,807.974 230.673,814.741 232.834,821.417 234.995,828.006 237.156,834.507 239.317,840.921 241.478,847.251 243.639,853.497 245.8,859.66 247.961,865.741 250.122,871.742 252.282,877.663 254.443,883.505 256.604,889.27 258.765,894.959 260.926,900.572 263.087,906.111 265.248,911.577 267.409,916.97 269.57,922.291 271.731,927.542 273.892,932.723 276.053,937.836 278.214,942.881 280.375,947.858 282.536,952.77 284.697,957.617 286.858,962.4 289.019,967.119 291.18,971.775 293.341,976.37 295.502,980.904 297.663,985.378 299.824,989.792 301.985,994.148 304.146,998.447 306.307,1002.69 308.468,1006.87 310.629,1011 312.79,1015.08 314.951,1019.1 317.112,1023.07 319.273,1026.98 321.434,1030.84 323.595,1034.65 325.756,1038.42 327.917,1042.13 330.078,1045.79 332.239,1049.4 334.4,1052.97 336.561,1056.49 338.722,1059.96 340.883,1063.38 343.044,1066.76 345.205,1070.1 347.366,1073.39 349.527,1076.64 351.688,1079.84 353.849,1083.01 356.01,1086.13 358.171,1089.2 360.332,1092.24 362.493,1095.24 364.653,1098.2 366.814,1101.12 368.975,1104 371.136,1106.84 373.297,1109.64 375.458,1112.41 377.619,1115.14 379.78,1117.83 381.941,1120.49 384.102,1123.12 386.263,1125.7 388.424,1128.26 390.585,1130.78 392.746,1133.26 394.907,1135.72 397.068,1138.14 399.229,1140.53 401.39,1142.89 403.551,1145.21 405.712,1147.51 407.873,1148.83 410.034,1147.72 412.195,1144.45 414.356,1139.29 416.517,1132.51 418.678,1124.35 420.839,1115.04 423,1104.79 425.161,1093.82 427.322,1082.28 429.483,1070.37 431.644,1058.21 433.805,1045.96 435.966,1033.72 438.127,1021.61 440.288,1009.7 442.449,998.075 444.61,986.786 446.771,975.873 448.932,965.361 451.093,955.257 453.254,945.554 455.415,936.228 457.576,927.24 459.737,918.535 461.898,910.041 464.059,901.672 466.22,893.325 468.381,884.881 470.542,876.332 472.703,867.888 474.864,859.555 477.024,851.333 479.185,843.22 481.346,835.215 483.507,827.315 485.668,819.521 487.829,811.83 489.99,804.24 492.151,796.752 494.312,789.362 496.473,782.071 498.634,774.876 500.795,767.777 502.956,760.771 505.117,753.859 507.278,747.038 509.439,740.307 511.6,733.666 513.761,727.112 515.922,720.646 518.083,714.265 520.244,707.968 522.405,701.755 524.566,695.625 526.727,689.576 528.888,683.607 531.049,677.717 533.21,671.906 535.371,666.171 537.532,660.513 539.693,654.93 541.854,649.421 544.015,643.985 546.176,638.621 548.337,633.329 550.498,628.106 552.659,622.953 554.82,617.868 556.981,612.851 559.142,607.9 561.303,603.015 563.464,598.194 565.625,593.438 567.786,588.744 569.947,584.113 572.108,579.543 574.269,575.034 576.43,570.584 578.591,566.194 580.752,561.861 582.913,557.586 585.074,553.368 587.235,549.3 589.396,545.436 591.556,541.718 593.717,538.092 595.878,534.512 598.039,530.935 600.2,527.324 602.361,523.647 604.522,519.875 606.683,515.988 608.844,511.968 611.005,507.803 613.166,503.485 615.327,499.013 617.488,494.391 619.649,489.625 621.81,484.73 623.971,479.723 626.132,474.629 628.293,469.475 630.454,464.294 632.615,459.126 634.776,454.014 636.937,449.006 639.098,444.154 641.259,439.408 643.42,434.725 645.581,430.104 647.742,425.545 649.903,421.045 652.064,416.606 654.225,412.225 656.386,407.903 658.547,403.637 660.708,399.428 662.869,395.276 665.03,391.178 667.191,387.134 669.352,383.144 671.513,379.207 673.674,375.322 675.835,371.489 677.996,367.706 680.157,363.974 682.318,360.29 684.479,356.656 686.64,353.069 688.801,349.53 690.962,346.038 693.123,342.592 695.284,339.191 697.445,335.836 699.606,332.525 701.767,329.259 703.927,326.035 706.088,322.854 708.249,319.716 710.41,316.619 712.571,313.563 714.732,310.548 716.893,307.573 719.054,304.638 721.215,301.741 723.376,298.883 725.537,296.063 727.698,293.281 729.859,290.535 732.02,287.826 734.181,285.153 736.342,282.516 738.503,279.913 740.664,277.346 742.825,274.812 744.986,272.312 747.147,269.845 749.308,267.41 751.469,265.009 753.63,262.638 755.791,260.3 757.952,257.992 760.113,255.715 762.274,253.468 764.435,251.251 766.596,249.063 768.757,246.904 770.918,244.774 773.079,242.672 775.24,240.597 777.401,238.551 779.562,236.531 781.723,234.537 783.884,232.571 786.045,230.63 788.206,228.715 790.367,226.825 792.528,224.96 794.689,223.121 796.85,221.305 799.011,219.514 801.172,217.746 803.333,216.002 805.494,214.281 807.655,212.582 809.816,210.907 811.977,209.253 814.138,207.621 816.298,206.011 818.459,204.423 820.62,202.855 822.781,201.308 824.942,199.782 827.103,198.276 829.264,196.79 831.425,195.324 833.586,193.877 835.747,192.449 837.908,191.04 840.069,189.65 842.23,188.528 844.391,188.9 846.552,190.753 848.713,193.889 850.874,198.123 853.035,203.28 855.196,209.198 857.357,215.726 859.518,222.727 861.679,230.073 863.84,237.65 866.001,245.355 868.162,253.097 870.323,260.797 872.484,268.388 874.645,275.814 876.806,283.033 878.967,290.012 881.128,296.732 883.289,303.186 885.45,309.377 887.611,315.321 889.772,321.046 891.933,326.592 894.094,332.011 896.255,337.366 898.416,342.733 900.577,348.194 902.738,353.652 904.899,359.038 907.06,364.352 909.221,369.596 911.382,374.771 913.543,379.876 915.704,384.914 917.865,389.886 920.026,394.791 922.187,399.631 924.348,404.408 926.509,409.121 928.669,413.771 930.83,418.36 932.991,422.888 935.152,427.355 937.313,431.764 939.474,436.115 941.635,440.408 943.796,444.644 945.957,448.823 948.118,452.948 950.279,457.018 952.44,461.033 954.601,464.996 956.762,468.906 958.923,472.764 961.084,476.571 963.245,480.327 965.406,484.034 967.567,487.691 969.728,491.3 971.889,494.86 974.05,498.374 976.211,501.841 978.372,505.262 980.533,508.637 982.694,511.968 984.855,515.255 987.016,518.498 989.177,521.698 991.338,524.855 993.499,527.971 995.66,531.045 997.821,534.079 999.982,537.072 1002.14,540.026 1004.3,542.94 1006.46,545.816 1008.63,548.654 1010.79,551.455 1012.95,554.218 1015.11,556.944 1017.27,559.635 1019.43,562.29 1021.59,564.909 1023.75,567.494 1025.91,570.045 1028.07,572.562 1030.24,575.045 1032.4,577.496 1034.56,579.914 1036.72,582.3 1038.88,584.654 1041.04,586.978 1043.2,589.27 1045.36,591.532 1047.52,593.764 1049.68,595.966 1051.85,598.139 1054.01,600.284 1056.17,602.466 1058.33,608.308 1060.49,617.79 1062.65,628.636 1064.81,639.391 1066.97,649.422 1069.13,658.918 1071.29,668.509 1073.46,677.998 1075.62,687.362 1077.78,696.601 1079.94,705.717 1082.1,714.713 1084.26,723.59 1086.42,732.349 1088.58,740.992 1090.74,749.52 1092.9,757.935 1095.07,766.238 1097.23,774.432 1099.39,782.517 1101.55,790.494 1103.71,798.366 1105.87,806.134 1108.03,813.798 1110.19,821.361 1112.35,828.824 1114.51,836.187 1116.67,843.453 1118.84,850.623 1121,857.698 1123.16,864.679 1125.32,871.567 1127.48,878.364 1129.64,885.071 1131.8,891.689 1133.96,898.219 1136.12,904.663 1138.28,911.021 1140.45,917.295 1142.61,923.486 1144.77,929.594 1146.93,935.622 1149.09,941.57 1151.25,947.439 1153.41,953.23 1155.57,958.944 1157.73,964.583 1159.89,970.146 1162.06,975.637 1164.22,981.054 1166.38,986.399 1168.54,991.674 1170.7,996.879 1172.86,1002.01 1175.02,1007.08 1177.18,1012.08 1179.34,1017.02 1181.5,1021.88 1183.67,1026.69 1185.83,1031.43 1187.99,1036.11 1190.15,1040.72 1192.31,1045.28 1194.47,1049.77 1196.63,1054.2 1198.79,1058.58 1200.95,1062.9 1203.11,1067.16 1205.28,1071.36 1207.44,1075.51 1209.6,1079.6 1211.76,1083.64 1213.92,1087.63 1216.08,1091.56 1218.24,1095.44 1220.4,1099.27 1222.56,1103.05 1224.72,1106.78 1226.88,1110.45 1229.05,1114.08 1231.21,1117.67 1233.37,1121.2 1235.53,1124.69 1237.69,1128.13 1239.85,1131.52 1242.01,1134.87 1244.17,1138.18 1246.33,1141.44 1248.49,1144.66 1250.66,1147.98 1252.82,1151.7 1254.98,1155.63 1257.14,1159.56 1259.3,1163.33 1261.46,1166.78 1263.62,1169.8 1265.78,1172.28 1267.94,1174.17 1270.1,1175.42 1272.27,1176.01 1274.43,1175.96 1276.59,1175.29 1278.75,1174.07 1280.91,1172.39 1283.07,1170.36 1285.23,1168.12 1287.39,1165.83 1289.55,1163.7 1291.71,1161.84 1293.88,1160.02 1296.04,1158.23 1298.2,1156.46 1300.36,1154.71 1302.52,1152.99 1304.68,1151.29 1306.84,1149.62 1309,1147.96 1311.16,1146.33 1313.32,1144.72 1315.49,1143.13 1317.65,1141.56 1319.81,1140.01 1321.97,1138.49 1324.13,1136.98 1326.29,1135.49 1328.45,1134.03 1330.61,1132.58 1332.77,1131.15 1334.93,1129.74 1337.09,1128.35 1339.26,1126.98 1341.42,1125.62 1343.58,1124.28 1345.74,1122.97 1347.9,1121.66 1350.06,1120.38 1352.22,1119.11 1354.38,1117.86 1356.54,1116.63 1358.7,1115.41 1360.87,1114.21 1363.03,1113.03 1365.19,1111.86 1367.35,1110.71 1369.51,1109.57 1371.67,1108.45 1373.83,1107.34 1375.99,1106.24 1378.15,1105.16 1380.31,1104.1 1382.48,1103.05 1384.64,1102.01 1386.8,1100.99 1388.96,1099.98 1391.12,1098.98 1393.28,1098 1395.44,1097.03 1397.6,1096.08 1399.76,1095.13 1401.92,1094.2 1404.09,1093.28 1406.25,1092.37 1408.41,1091.48 1410.57,1090.59 1412.73,1089.72 1414.89,1088.86 1417.05,1088.01 1419.21,1087.18 1421.37,1086.35 1423.53,1085.53 1425.7,1084.73 1427.86,1083.94 1430.02,1083.15 1432.18,1082.38 1434.34,1081.62 1436.5,1080.86 1438.66,1080.12 1440.82,1079.39 1442.98,1078.66 1445.14,1077.95 1447.3,1077.25 1449.47,1076.55 1451.63,1075.88 1453.79,1075.27 1455.95,1074.75 1458.11,1074.27 1460.27,1073.85 1462.43,1073.46 1464.59,1073.09 1466.75,1072.74 1468.91,1072.38 1471.08,1072.02 1473.24,1071.65 1475.4,1071.25 1477.56,1070.82 1479.72,1070.35 1481.88,1069.84 1484.04,1069.28 1486.2,1068.66 1488.36,1067.99 1490.52,1067.25 1492.69,1066.45 1494.85,1065.57 1497.01,1064.63 1499.17,1063.62 1501.33,1062.53 1503.49,1061.37 1505.65,1060.14 1507.81,1058.84 1509.97,1057.47 1512.13,1056.04 1514.3,1054.54 1516.46,1052.99 1518.62,1051.38 1520.78,1049.72 1522.94,1048.02 1525.1,1046.28 1527.26,1044.51 1529.42,1042.72 1531.58,1040.92 1533.74,1039.11 1535.91,1037.3 1538.07,1035.5 1540.23,1033.73 1542.39,1032 1544.55,1030.31 1546.71,1028.69 1548.87,1027.13 1551.03,1025.6 1553.19,1024.1 1555.35,1022.61 1557.51,1021.15 1559.68,1019.7 1561.84,1018.28 1564,1016.87 1566.16,1015.48 1568.32,1014.11 1570.48,1012.76 1572.64,1011.43 1574.8,1010.11 1576.96,1008.81 1579.12,1007.53 1581.29,1006.26 1583.45,1005.02 1585.61,1003.78 1587.77,1002.57 1589.93,1001.37 1592.09,1000.19 1594.25,999.019 1596.41,997.867 1598.57,996.73 1600.73,995.608 1602.9,994.501 1605.06,993.409 1607.22,992.331 1609.38,991.268 1611.54,990.219 1613.7,989.183 1615.86,988.162 1618.02,987.154 1620.18,986.159 1622.34,985.178 1624.51,984.209 1626.67,983.253 1628.83,982.31 1630.99,981.38 1633.15,980.462 1635.31,979.556 1637.47,978.662 1639.63,977.78 1641.79,976.909 1643.95,976.051 1646.12,975.203 1648.28,974.367 1650.44,973.542 1652.6,972.727 1654.76,971.924 1656.92,971.131 1659.08,970.341 1661.24,969.475 1663.4,968.535 1665.56,967.544 1667.72,966.524 1669.89,965.495 1672.05,964.476 1674.21,963.485 1676.37,962.538 1678.53,961.648 1680.69,960.83 1682.85,960.094 1685.01,959.45 1687.17,958.908 1689.33,958.473 1691.5,958.153 1693.66,957.95 1695.82,957.868 1697.98,957.908 1700.14,958.069 1702.3,958.35 1704.46,958.747 1706.62,959.256 1708.78,959.87 1710.94,960.582 1713.11,961.383 1715.27,962.261 1717.43,963.206 1719.59,964.203 1721.75,965.237 1723.91,966.291 1726.07,967.348 1728.23,968.389 1730.39,969.391 1732.55,970.333 1734.72,971.204 1736.88,972.055 1739.04,972.894 1741.2,973.723 1743.36,974.54 1745.52,975.347 1747.68,976.142 1749.84,976.928 1752,977.703 1754.16,978.467 1756.33,979.222 1758.49,979.966 1760.65,980.701 1762.81,981.426 1764.97,982.141 1767.13,982.847 1769.29,983.543 1771.45,984.23 1773.61,984.908 1775.77,985.577 1777.93,986.238 1780.1,986.889 1782.26,987.532 1784.42,988.167 1786.58,988.793 1788.74,989.411 1790.9,990.021 1793.06,990.623 1795.22,991.217 1797.38,991.802 1799.54,992.381 1801.71,992.951 1803.87,993.514 1806.03,994.07 1808.19,994.618 1810.35,995.159 1812.51,995.692 1814.67,996.219 1816.83,996.738 1818.99,997.251 1821.15,997.757 1823.32,998.256 1825.48,998.748 1827.64,999.234 1829.8,999.713 1831.96,1000.19 1834.12,1000.65 1836.28,1001.11 1838.44,1001.57 1840.6,1002.02 1842.76,1002.46 1844.93,1002.89 1847.09,1003.32 1849.25,1003.75 1851.41,1004.17 1853.57,1004.58 1855.73,1004.99 1857.89,1005.39 1860.05,1005.79 1862.21,1006.18 1864.37,1006.57 1866.54,1006.95 1868.7,1007.33 1870.86,1007.7 1873.02,1008.06 1875.18,1008.42 1877.34,1008.78 1879.5,1009.13 1881.66,1009.48 1883.82,1009.82 1885.98,1010.16 1888.15,1010.5 1890.31,1010.83 1892.47,1011.15 1894.63,1011.47 1896.79,1011.79 1898.95,1012.1 1901.11,1012.41 1903.27,1012.71 1905.43,1013.01 1907.59,1013.32 1909.75,1013.72 1911.92,1014.22 1914.08,1014.82 1916.24,1015.5 1918.4,1016.25 1920.56,1017.07 1922.72,1017.95 1924.88,1018.88 1927.04,1019.86 1929.2,1020.88 1931.36,1021.93 1933.53,1023.01 1935.69,1024.1 1937.85,1025.22 1940.01,1026.34 1942.17,1027.47 1944.33,1028.61 1946.49,1029.74 1948.65,1030.86 1950.81,1031.98 1952.97,1033.08 1955.14,1034.17 1957.3,1035.24 1959.46,1036.29 1961.62,1037.32 1963.78,1038.33 1965.94,1039.32 1968.1,1040.28 1970.26,1041.21 1972.42,1042.12 1974.58,1043.01 1976.75,1043.88 1978.91,1044.72 1981.07,1045.54 1983.23,1046.34 1985.39,1047.12 1987.55,1047.88 1989.71,1048.64 1991.87,1049.38 1994.03,1050.12 1996.19,1050.85 1998.36,1051.58 2000.52,1052.31 2002.68,1053.04 2004.84,1053.76 2007,1054.46 2009.16,1055.16 2011.32,1055.85 2013.48,1056.53 2015.64,1057.2 2017.8,1057.86 2019.96,1058.51 2022.13,1059.16 2024.29,1059.79 2026.45,1060.42 2028.61,1061.04 2030.77,1061.65 2032.93,1062.25 2035.09,1062.84 2037.25,1063.43 2039.41,1064.01 2041.57,1064.58 2043.74,1065.14 2045.9,1065.7 2048.06,1066.25 2050.22,1066.79 2052.38,1067.32 2054.54,1067.85 2056.7,1068.37 2058.86,1068.88 2061.02,1069.39 2063.18,1069.89 2065.35,1070.38 2067.51,1070.87 2069.67,1071.35 2071.83,1071.82 2073.99,1072.29 2076.15,1072.75 2078.31,1073.21 2080.47,1073.66 2082.63,1074.1 2084.79,1074.54 2086.96,1074.97 2089.12,1075.39 2091.28,1075.81 2093.44,1076.23 2095.6,1076.64 2097.76,1077.04 2099.92,1077.44 2102.08,1077.83 2104.24,1078.22 2106.4,1078.6 2108.57,1078.98 2110.73,1079.35 2112.89,1079.72 2115.05,1080.08 2117.21,1080.44 2119.37,1080.79 2121.53,1081.14 2123.69,1081.49 2125.85,1081.83 2128.01,1082.16 2130.17,1082.49 2132.34,1082.82 2134.5,1083.04 2136.66,1082.33 2138.82,1080.59 2140.98,1077.92 2143.14,1074.43 2145.3,1070.23 2147.46,1065.4 2149.62,1060.03 2151.78,1054.2 2153.95,1048 2156.11,1041.5 2158.27,1034.77 2160.43,1027.87 2162.59,1020.86 2164.75,1013.79 2166.91,1006.71 2169.07,999.671 2171.23,992.702 2173.39,985.838 2175.56,979.11 2177.72,972.539 2179.88,966.144 2182.04,959.937 2184.2,953.927 2186.36,948.118 2188.52,942.505 2190.68,937.083 2192.84,931.84 2195,926.757 2197.17,921.813 2199.33,916.98 2201.49,912.226 2203.65,907.513 2205.81,902.799 2207.97,898.036 2210.13,893.258 2212.29,888.543 2214.45,883.891 2216.61,879.3 2218.78,874.77 2220.94,870.3 2223.1,865.89 2225.26,861.537 2227.42,857.243 2229.58,853.006 2231.74,848.824 2233.9,844.698 2236.06,840.627 2238.22,836.61 2240.38,832.646 2242.55,828.735 2244.71,824.875 2246.87,821.067 2249.03,817.309 2251.19,813.6 2253.35,809.941 2255.51,806.33 2257.67,802.767 2259.83,799.251 2261.99,795.782 2264.16,792.358 2266.32,788.98 2268.48,785.647 2270.64,782.359 2272.8,779.114 2274.96,775.911 2277.12,772.752 2279.28,769.634 2281.44,766.558 2283.6,763.523 2285.77,760.528 2287.93,757.573 2290.09,754.657 2292.25,751.78 2294.41,748.94 2296.57,746.139 2298.73,743.375 2300.89,740.648 2303.05,737.956 2305.21,735.301 2307.38,732.681 2309.54,730.095 2311.7,727.544 2313.86,725.026 2316.02,722.542 2318.18,720.091 2320.34,717.673 2322.5,715.286 2324.66,712.931 2326.82,710.607 2328.99,708.314 2331.15,706.051 2333.31,703.819 2335.47,701.615 2337.63,699.441 2339.79,697.296 2341.95,695.179 2344.11,693.09 2346.27,691.029 2348.43,688.995 2350.59,686.989 2352.76,685.008 "/>
<polyline clip-path="url(#clip111)" style="stroke:#e26f46; stroke-linecap:round; stroke-linejoin:round; stroke-width:4; stroke-opacity:1; fill:none" points="193.936,1318.35 196.097,1318.35 198.258,1318.35 200.419,1318.35 202.58,1318.35 204.741,1318.35 206.902,1318.35 209.063,1318.35 211.224,1318.35 213.385,1318.35 215.546,1318.35 217.707,1318.35 219.868,1318.35 222.029,1318.35 224.19,1318.35 226.351,1318.35 228.512,1318.35 230.673,1318.35 232.834,1318.35 234.995,1318.35 237.156,1318.35 239.317,1318.35 241.478,1318.35 243.639,1318.35 245.8,1318.35 247.961,1318.35 250.122,1318.35 252.282,1318.35 254.443,1318.35 256.604,1318.35 258.765,1318.35 260.926,1318.35 263.087,1318.35 265.248,1318.35 267.409,1318.35 269.57,1318.35 271.731,1318.35 273.892,1318.35 276.053,1318.35 278.214,1318.35 280.375,1318.35 282.536,1318.35 284.697,1318.35 286.858,1318.35 289.019,1318.35 291.18,1318.35 293.341,1318.35 295.502,1318.35 297.663,1318.35 299.824,1318.35 301.985,1318.35 304.146,1318.35 306.307,1318.35 308.468,1318.35 310.629,1318.35 312.79,1318.35 314.951,1318.35 317.112,1318.35 319.273,1318.35 321.434,1318.35 323.595,1318.35 325.756,1318.35 327.917,1318.35 330.078,1318.35 332.239,1318.35 334.4,1318.35 336.561,1318.35 338.722,1318.35 340.883,1318.35 343.044,1318.35 345.205,1318.35 347.366,1318.35 349.527,1318.35 351.688,1318.35 353.849,1318.35 356.01,1318.35 358.171,1318.35 360.332,1318.35 362.493,1318.35 364.653,1318.35 366.814,1318.35 368.975,1318.35 371.136,1318.35 373.297,1318.35 375.458,1318.35 377.619,1318.35 379.78,1318.35 381.941,1318.35 384.102,1318.35 386.263,1318.35 388.424,1318.35 390.585,1318.35 392.746,1318.35 394.907,1318.35 397.068,1318.35 399.229,1318.35 401.39,1318.35 403.551,1318.35 405.712,1318.35 407.873,1318.35 410.034,239.398 412.195,239.398 414.356,239.398 416.517,239.398 418.678,239.398 420.839,239.398 423,239.398 425.161,239.398 427.322,239.398 429.483,239.398 431.644,239.398 433.805,239.398 435.966,239.398 438.127,239.398 440.288,239.398 442.449,239.398 444.61,239.398 446.771,239.398 448.932,239.398 451.093,239.398 453.254,239.398 455.415,239.398 457.576,239.398 459.737,239.398 461.898,239.398 464.059,239.398 466.22,239.398 468.381,239.398 470.542,239.398 472.703,239.398 474.864,239.398 477.024,239.398 479.185,239.398 481.346,239.398 483.507,239.398 485.668,239.398 487.829,239.398 489.99,239.398 492.151,239.398 494.312,239.398 496.473,239.398 498.634,239.398 500.795,239.398 502.956,239.398 505.117,239.398 507.278,239.398 509.439,239.398 511.6,239.398 513.761,239.398 515.922,239.398 518.083,239.398 520.244,239.398 522.405,239.398 524.566,239.398 526.727,239.398 528.888,239.398 531.049,239.398 533.21,239.398 535.371,239.398 537.532,239.398 539.693,239.398 541.854,239.398 544.015,239.398 546.176,239.398 548.337,239.398 550.498,239.398 552.659,239.398 554.82,239.398 556.981,239.398 559.142,239.398 561.303,239.398 563.464,239.398 565.625,239.398 567.786,239.398 569.947,239.398 572.108,239.398 574.269,239.398 576.43,239.398 578.591,239.398 580.752,239.398 582.913,239.398 585.074,239.398 587.235,239.398 589.396,239.398 591.556,239.398 593.717,239.398 595.878,239.398 598.039,239.398 600.2,239.398 602.361,239.398 604.522,239.398 606.683,239.398 608.844,239.398 611.005,239.398 613.166,239.398 615.327,239.398 617.488,239.398 619.649,239.398 621.81,239.398 623.971,239.398 626.132,86.1857 628.293,86.1857 630.454,86.1857 632.615,86.1857 634.776,86.1857 636.937,86.1857 639.098,86.1857 641.259,86.1857 643.42,86.1857 645.581,86.1857 647.742,86.1857 649.903,86.1857 652.064,86.1857 654.225,86.1857 656.386,86.1857 658.547,86.1857 660.708,86.1857 662.869,86.1857 665.03,86.1857 667.191,86.1857 669.352,86.1857 671.513,86.1857 673.674,86.1857 675.835,86.1857 677.996,86.1857 680.157,86.1857 682.318,86.1857 684.479,86.1857 686.64,86.1857 688.801,86.1857 690.962,86.1857 693.123,86.1857 695.284,86.1857 697.445,86.1857 699.606,86.1857 701.767,86.1857 703.927,86.1857 706.088,86.1857 708.249,86.1857 710.41,86.1857 712.571,86.1857 714.732,86.1857 716.893,86.1857 719.054,86.1857 721.215,86.1857 723.376,86.1857 725.537,86.1857 727.698,86.1857 729.859,86.1857 732.02,86.1857 734.181,86.1857 736.342,86.1857 738.503,86.1857 740.664,86.1857 742.825,86.1857 744.986,86.1857 747.147,86.1857 749.308,86.1857 751.469,86.1857 753.63,86.1857 755.791,86.1857 757.952,86.1857 760.113,86.1857 762.274,86.1857 764.435,86.1857 766.596,86.1857 768.757,86.1857 770.918,86.1857 773.079,86.1857 775.24,86.1857 777.401,86.1857 779.562,86.1857 781.723,86.1857 783.884,86.1857 786.045,86.1857 788.206,86.1857 790.367,86.1857 792.528,86.1857 794.689,86.1857 796.85,86.1857 799.011,86.1857 801.172,86.1857 803.333,86.1857 805.494,86.1857 807.655,86.1857 809.816,86.1857 811.977,86.1857 814.138,86.1857 816.298,86.1857 818.459,86.1857 820.62,86.1857 822.781,86.1857 824.942,86.1857 827.103,86.1857 829.264,86.1857 831.425,86.1857 833.586,86.1857 835.747,86.1857 837.908,86.1857 840.069,86.1857 842.23,759.881 844.391,759.881 846.552,759.881 848.713,759.881 850.874,759.881 853.035,759.881 855.196,759.881 857.357,759.881 859.518,759.881 861.679,759.881 863.84,759.881 866.001,759.881 868.162,759.881 870.323,759.881 872.484,759.881 874.645,759.881 876.806,759.881 878.967,759.881 881.128,759.881 883.289,759.881 885.45,759.881 887.611,759.881 889.772,759.881 891.933,759.881 894.094,759.881 896.255,759.881 898.416,759.881 900.577,759.881 902.738,759.881 904.899,759.881 907.06,759.881 909.221,759.881 911.382,759.881 913.543,759.881 915.704,759.881 917.865,759.881 920.026,759.881 922.187,759.881 924.348,759.881 926.509,759.881 928.669,759.881 930.83,759.881 932.991,759.881 935.152,759.881 937.313,759.881 939.474,759.881 941.635,759.881 943.796,759.881 945.957,759.881 948.118,759.881 950.279,759.881 952.44,759.881 954.601,759.881 956.762,759.881 958.923,759.881 961.084,759.881 963.245,759.881 965.406,759.881 967.567,759.881 969.728,759.881 971.889,759.881 974.05,759.881 976.211,759.881 978.372,759.881 980.533,759.881 982.694,759.881 984.855,759.881 987.016,759.881 989.177,759.881 991.338,759.881 993.499,759.881 995.66,759.881 997.821,759.881 999.982,759.881 1002.14,759.881 1004.3,759.881 1006.46,759.881 1008.63,759.881 1010.79,759.881 1012.95,759.881 1015.11,759.881 1017.27,759.881 1019.43,759.881 1021.59,759.881 1023.75,759.881 1025.91,759.881 1028.07,759.881 1030.24,759.881 1032.4,759.881 1034.56,759.881 1036.72,759.881 1038.88,759.881 1041.04,759.881 1043.2,759.881 1045.36,759.881 1047.52,759.881 1049.68,759.881 1051.85,759.881 1054.01,759.881 1056.17,759.881 1058.33,1384.24 1060.49,1384.24 1062.65,1384.24 1064.81,1384.24 1066.97,1384.24 1069.13,1384.24 1071.29,1384.24 1073.46,1384.24 1075.62,1384.24 1077.78,1384.24 1079.94,1384.24 1082.1,1384.24 1084.26,1384.24 1086.42,1384.24 1088.58,1384.24 1090.74,1384.24 1092.9,1384.24 1095.07,1384.24 1097.23,1384.24 1099.39,1384.24 1101.55,1384.24 1103.71,1384.24 1105.87,1384.24 1108.03,1384.24 1110.19,1384.24 1112.35,1384.24 1114.51,1384.24 1116.67,1384.24 1118.84,1384.24 1121,1384.24 1123.16,1384.24 1125.32,1384.24 1127.48,1384.24 1129.64,1384.24 1131.8,1384.24 1133.96,1384.24 1136.12,1384.24 1138.28,1384.24 1140.45,1384.24 1142.61,1384.24 1144.77,1384.24 1146.93,1384.24 1149.09,1384.24 1151.25,1384.24 1153.41,1384.24 1155.57,1384.24 1157.73,1384.24 1159.89,1384.24 1162.06,1384.24 1164.22,1384.24 1166.38,1384.24 1168.54,1384.24 1170.7,1384.24 1172.86,1384.24 1175.02,1384.24 1177.18,1384.24 1179.34,1384.24 1181.5,1384.24 1183.67,1384.24 1185.83,1384.24 1187.99,1384.24 1190.15,1384.24 1192.31,1384.24 1194.47,1384.24 1196.63,1384.24 1198.79,1384.24 1200.95,1384.24 1203.11,1384.24 1205.28,1384.24 1207.44,1384.24 1209.6,1384.24 1211.76,1384.24 1213.92,1384.24 1216.08,1384.24 1218.24,1384.24 1220.4,1384.24 1222.56,1384.24 1224.72,1384.24 1226.88,1384.24 1229.05,1384.24 1231.21,1384.24 1233.37,1384.24 1235.53,1384.24 1237.69,1384.24 1239.85,1384.24 1242.01,1384.24 1244.17,1384.24 1246.33,1384.24 1248.49,1384.24 1250.66,1384.24 1252.82,1384.24 1254.98,1384.24 1257.14,1384.24 1259.3,1384.24 1261.46,1384.24 1263.62,1384.24 1265.78,1384.24 1267.94,1384.24 1270.1,1384.24 1272.27,1384.24 1274.43,1024.84 1276.59,1024.84 1278.75,1024.84 1280.91,1024.84 1283.07,1024.84 1285.23,1024.84 1287.39,1024.84 1289.55,1024.84 1291.71,1024.84 1293.88,1024.84 1296.04,1024.84 1298.2,1024.84 1300.36,1024.84 1302.52,1024.84 1304.68,1024.84 1306.84,1024.84 1309,1024.84 1311.16,1024.84 1313.32,1024.84 1315.49,1024.84 1317.65,1024.84 1319.81,1024.84 1321.97,1024.84 1324.13,1024.84 1326.29,1024.84 1328.45,1024.84 1330.61,1024.84 1332.77,1024.84 1334.93,1024.84 1337.09,1024.84 1339.26,1024.84 1341.42,1024.84 1343.58,1024.84 1345.74,1024.84 1347.9,1024.84 1350.06,1024.84 1352.22,1024.84 1354.38,1024.84 1356.54,1024.84 1358.7,1024.84 1360.87,1024.84 1363.03,1024.84 1365.19,1024.84 1367.35,1024.84 1369.51,1024.84 1371.67,1024.84 1373.83,1024.84 1375.99,1024.84 1378.15,1024.84 1380.31,1024.84 1382.48,1024.84 1384.64,1024.84 1386.8,1024.84 1388.96,1024.84 1391.12,1024.84 1393.28,1024.84 1395.44,1024.84 1397.6,1024.84 1399.76,1024.84 1401.92,1024.84 1404.09,1024.84 1406.25,1024.84 1408.41,1024.84 1410.57,1024.84 1412.73,1024.84 1414.89,1024.84 1417.05,1024.84 1419.21,1024.84 1421.37,1024.84 1423.53,1024.84 1425.7,1024.84 1427.86,1024.84 1430.02,1024.84 1432.18,1024.84 1434.34,1024.84 1436.5,1024.84 1438.66,1024.84 1440.82,1024.84 1442.98,1024.84 1445.14,1024.84 1447.3,1024.84 1449.47,1024.84 1451.63,1024.84 1453.79,1024.84 1455.95,1024.84 1458.11,1024.84 1460.27,1024.84 1462.43,1024.84 1464.59,1024.84 1466.75,1024.84 1468.91,1024.84 1471.08,1024.84 1473.24,1024.84 1475.4,1024.84 1477.56,1024.84 1479.72,1024.84 1481.88,1024.84 1484.04,1024.84 1486.2,1024.84 1488.36,1024.84 1490.52,912.127 1492.69,912.127 1494.85,912.127 1497.01,912.127 1499.17,912.127 1501.33,912.127 1503.49,912.127 1505.65,912.127 1507.81,912.127 1509.97,912.127 1512.13,912.127 1514.3,912.127 1516.46,912.127 1518.62,912.127 1520.78,912.127 1522.94,912.127 1525.1,912.127 1527.26,912.127 1529.42,912.127 1531.58,912.127 1533.74,912.127 1535.91,912.127 1538.07,912.127 1540.23,912.127 1542.39,912.127 1544.55,912.127 1546.71,912.127 1548.87,912.127 1551.03,912.127 1553.19,912.127 1555.35,912.127 1557.51,912.127 1559.68,912.127 1561.84,912.127 1564,912.127 1566.16,912.127 1568.32,912.127 1570.48,912.127 1572.64,912.127 1574.8,912.127 1576.96,912.127 1579.12,912.127 1581.29,912.127 1583.45,912.127 1585.61,912.127 1587.77,912.127 1589.93,912.127 1592.09,912.127 1594.25,912.127 1596.41,912.127 1598.57,912.127 1600.73,912.127 1602.9,912.127 1605.06,912.127 1607.22,912.127 1609.38,912.127 1611.54,912.127 1613.7,912.127 1615.86,912.127 1618.02,912.127 1620.18,912.127 1622.34,912.127 1624.51,912.127 1626.67,912.127 1628.83,912.127 1630.99,912.127 1633.15,912.127 1635.31,912.127 1637.47,912.127 1639.63,912.127 1641.79,912.127 1643.95,912.127 1646.12,912.127 1648.28,912.127 1650.44,912.127 1652.6,912.127 1654.76,912.127 1656.92,912.127 1659.08,912.127 1661.24,912.127 1663.4,912.127 1665.56,912.127 1667.72,912.127 1669.89,912.127 1672.05,912.127 1674.21,912.127 1676.37,912.127 1678.53,912.127 1680.69,912.127 1682.85,912.127 1685.01,912.127 1687.17,912.127 1689.33,912.127 1691.5,912.127 1693.66,912.127 1695.82,912.127 1697.98,912.127 1700.14,912.127 1702.3,912.127 1704.46,912.127 1706.62,1035.37 1708.78,1035.37 1710.94,1035.37 1713.11,1035.37 1715.27,1035.37 1717.43,1035.37 1719.59,1035.37 1721.75,1035.37 1723.91,1035.37 1726.07,1035.37 1728.23,1035.37 1730.39,1035.37 1732.55,1035.37 1734.72,1035.37 1736.88,1035.37 1739.04,1035.37 1741.2,1035.37 1743.36,1035.37 1745.52,1035.37 1747.68,1035.37 1749.84,1035.37 1752,1035.37 1754.16,1035.37 1756.33,1035.37 1758.49,1035.37 1760.65,1035.37 1762.81,1035.37 1764.97,1035.37 1767.13,1035.37 1769.29,1035.37 1771.45,1035.37 1773.61,1035.37 1775.77,1035.37 1777.93,1035.37 1780.1,1035.37 1782.26,1035.37 1784.42,1035.37 1786.58,1035.37 1788.74,1035.37 1790.9,1035.37 1793.06,1035.37 1795.22,1035.37 1797.38,1035.37 1799.54,1035.37 1801.71,1035.37 1803.87,1035.37 1806.03,1035.37 1808.19,1035.37 1810.35,1035.37 1812.51,1035.37 1814.67,1035.37 1816.83,1035.37 1818.99,1035.37 1821.15,1035.37 1823.32,1035.37 1825.48,1035.37 1827.64,1035.37 1829.8,1035.37 1831.96,1035.37 1834.12,1035.37 1836.28,1035.37 1838.44,1035.37 1840.6,1035.37 1842.76,1035.37 1844.93,1035.37 1847.09,1035.37 1849.25,1035.37 1851.41,1035.37 1853.57,1035.37 1855.73,1035.37 1857.89,1035.37 1860.05,1035.37 1862.21,1035.37 1864.37,1035.37 1866.54,1035.37 1868.7,1035.37 1870.86,1035.37 1873.02,1035.37 1875.18,1035.37 1877.34,1035.37 1879.5,1035.37 1881.66,1035.37 1883.82,1035.37 1885.98,1035.37 1888.15,1035.37 1890.31,1035.37 1892.47,1035.37 1894.63,1035.37 1896.79,1035.37 1898.95,1035.37 1901.11,1035.37 1903.27,1035.37 1905.43,1035.37 1907.59,1035.37 1909.75,1035.37 1911.92,1035.37 1914.08,1035.37 1916.24,1035.37 1918.4,1035.37 1920.56,1035.37 1922.72,1107.08 1924.88,1107.08 1927.04,1107.08 1929.2,1107.08 1931.36,1107.08 1933.53,1107.08 1935.69,1107.08 1937.85,1107.08 1940.01,1107.08 1942.17,1107.08 1944.33,1107.08 1946.49,1107.08 1948.65,1107.08 1950.81,1107.08 1952.97,1107.08 1955.14,1107.08 1957.3,1107.08 1959.46,1107.08 1961.62,1107.08 1963.78,1107.08 1965.94,1107.08 1968.1,1107.08 1970.26,1107.08 1972.42,1107.08 1974.58,1107.08 1976.75,1107.08 1978.91,1107.08 1981.07,1107.08 1983.23,1107.08 1985.39,1107.08 1987.55,1107.08 1989.71,1107.08 1991.87,1107.08 1994.03,1107.08 1996.19,1107.08 1998.36,1107.08 2000.52,1107.08 2002.68,1107.08 2004.84,1107.08 2007,1107.08 2009.16,1107.08 2011.32,1107.08 2013.48,1107.08 2015.64,1107.08 2017.8,1107.08 2019.96,1107.08 2022.13,1107.08 2024.29,1107.08 2026.45,1107.08 2028.61,1107.08 2030.77,1107.08 2032.93,1107.08 2035.09,1107.08 2037.25,1107.08 2039.41,1107.08 2041.57,1107.08 2043.74,1107.08 2045.9,1107.08 2048.06,1107.08 2050.22,1107.08 2052.38,1107.08 2054.54,1107.08 2056.7,1107.08 2058.86,1107.08 2061.02,1107.08 2063.18,1107.08 2065.35,1107.08 2067.51,1107.08 2069.67,1107.08 2071.83,1107.08 2073.99,1107.08 2076.15,1107.08 2078.31,1107.08 2080.47,1107.08 2082.63,1107.08 2084.79,1107.08 2086.96,1107.08 2089.12,1107.08 2091.28,1107.08 2093.44,1107.08 2095.6,1107.08 2097.76,1107.08 2099.92,1107.08 2102.08,1107.08 2104.24,1107.08 2106.4,1107.08 2108.57,1107.08 2110.73,1107.08 2112.89,1107.08 2115.05,1107.08 2117.21,1107.08 2119.37,1107.08 2121.53,1107.08 2123.69,1107.08 2125.85,1107.08 2128.01,1107.08 2130.17,1107.08 2132.34,1107.08 2134.5,1107.08 2136.66,1107.08 2138.82,537.627 2140.98,537.627 2143.14,537.627 2145.3,537.627 2147.46,537.627 2149.62,537.627 2151.78,537.627 2153.95,537.627 2156.11,537.627 2158.27,537.627 2160.43,537.627 2162.59,537.627 2164.75,537.627 2166.91,537.627 2169.07,537.627 2171.23,537.627 2173.39,537.627 2175.56,537.627 2177.72,537.627 2179.88,537.627 2182.04,537.627 2184.2,537.627 2186.36,537.627 2188.52,537.627 2190.68,537.627 2192.84,537.627 2195,537.627 2197.17,537.627 2199.33,537.627 2201.49,537.627 2203.65,537.627 2205.81,537.627 2207.97,537.627 2210.13,537.627 2212.29,537.627 2214.45,537.627 2216.61,537.627 2218.78,537.627 2220.94,537.627 2223.1,537.627 2225.26,537.627 2227.42,537.627 2229.58,537.627 2231.74,537.627 2233.9,537.627 2236.06,537.627 2238.22,537.627 2240.38,537.627 2242.55,537.627 2244.71,537.627 2246.87,537.627 2249.03,537.627 2251.19,537.627 2253.35,537.627 2255.51,537.627 2257.67,537.627 2259.83,537.627 2261.99,537.627 2264.16,537.627 2266.32,537.627 2268.48,537.627 2270.64,537.627 2272.8,537.627 2274.96,537.627 2277.12,537.627 2279.28,537.627 2281.44,537.627 2283.6,537.627 2285.77,537.627 2287.93,537.627 2290.09,537.627 2292.25,537.627 2294.41,537.627 2296.57,537.627 2298.73,537.627 2300.89,537.627 2303.05,537.627 2305.21,537.627 2307.38,537.627 2309.54,537.627 2311.7,537.627 2313.86,537.627 2316.02,537.627 2318.18,537.627 2320.34,537.627 2322.5,537.627 2324.66,537.627 2326.82,537.627 2328.99,537.627 2331.15,537.627 2333.31,537.627 2335.47,537.627 2337.63,537.627 2339.79,537.627 2341.95,537.627 2344.11,537.627 2346.27,537.627 2348.43,537.627 2350.59,537.627 2352.76,537.627 "/>
<path clip-path="url(#clip110)" d="M2039.77 248.629 L2280.8 248.629 L2280.8 93.1086 L2039.77 93.1086  Z" fill="#ffffff" fill-rule="evenodd" fill-opacity="1"/>
<polyline clip-path="url(#clip110)" style="stroke:#000000; stroke-linecap:round; stroke-linejoin:round; stroke-width:4; stroke-opacity:1; fill:none" points="2039.77,248.629 2280.8,248.629 2280.8,93.1086 2039.77,93.1086 2039.77,248.629 "/>
<polyline clip-path="url(#clip110)" style="stroke:#009af9; stroke-linecap:round; stroke-linejoin:round; stroke-width:4; stroke-opacity:1; fill:none" points="2063.76,144.949 2207.68,144.949 "/>
<path clip-path="url(#clip110)" d="M2256.32 136.303 L2246.95 148.919 L2256.81 162.229 L2251.79 162.229 L2244.24 152.043 L2236.69 162.229 L2231.67 162.229 L2241.74 148.664 L2232.53 136.303 L2237.55 136.303 L2244.42 145.539 L2251.3 136.303 L2256.32 136.303 Z" fill="#000000" fill-rule="nonzero" fill-opacity="1" /><polyline clip-path="url(#clip110)" style="stroke:#e26f46; stroke-linecap:round; stroke-linejoin:round; stroke-width:4; stroke-opacity:1; fill:none" points="2063.76,196.789 2207.68,196.789 "/>
<path clip-path="url(#clip110)" d="M2248.17 178.05 L2248.17 181.592 L2244.1 181.592 Q2241.81 181.592 2240.91 182.518 Q2240.03 183.444 2240.03 185.851 L2240.03 188.143 L2247.04 188.143 L2247.04 191.453 L2240.03 191.453 L2240.03 214.069 L2235.74 214.069 L2235.74 191.453 L2231.67 191.453 L2231.67 188.143 L2235.74 188.143 L2235.74 186.337 Q2235.74 182.009 2237.76 180.041 Q2239.77 178.05 2244.15 178.05 L2248.17 178.05 Z" fill="#000000" fill-rule="nonzero" fill-opacity="1" /></svg>
