<?xml version="1.0" encoding="utf-8"?>
<svg xmlns="http://www.w3.org/2000/svg" xmlns:xlink="http://www.w3.org/1999/xlink" width="600" height="400" viewBox="0 0 2400 1600">
<defs>
  <clipPath id="clip750">
    <rect x="0" y="0" width="2400" height="1600"/>
  </clipPath>
</defs>
<path clip-path="url(#clip750)" d="M0 1600 L2400 1600 L2400 0 L0 0  Z" fill="#ffffff" fill-rule="evenodd" fill-opacity="1"/>
<defs>
  <clipPath id="clip751">
    <rect x="480" y="0" width="1681" height="1600"/>
  </clipPath>
</defs>
<path clip-path="url(#clip750)" d="M193.936 1423.18 L2352.76 1423.18 L2352.76 47.2441 L193.936 47.2441  Z" fill="#ffffff" fill-rule="evenodd" fill-opacity="1"/>
<defs>
  <clipPath id="clip752">
    <rect x="193" y="47" width="2160" height="1377"/>
  </clipPath>
</defs>
<polyline clip-path="url(#clip752)" style="stroke:#000000; stroke-linecap:round; stroke-linejoin:round; stroke-width:2; stroke-opacity:0.1; fill:none" points="193.936,1423.18 193.936,47.2441 "/>
<polyline clip-path="url(#clip752)" style="stroke:#000000; stroke-linecap:round; stroke-linejoin:round; stroke-width:2; stroke-opacity:0.1; fill:none" points="625.7,1423.18 625.7,47.2441 "/>
<polyline clip-path="url(#clip752)" style="stroke:#000000; stroke-linecap:round; stroke-linejoin:round; stroke-width:2; stroke-opacity:0.1; fill:none" points="1057.46,1423.18 1057.46,47.2441 "/>
<polyline clip-path="url(#clip752)" style="stroke:#000000; stroke-linecap:round; stroke-linejoin:round; stroke-width:2; stroke-opacity:0.1; fill:none" points="1489.23,1423.18 1489.23,47.2441 "/>
<polyline clip-path="url(#clip752)" style="stroke:#000000; stroke-linecap:round; stroke-linejoin:round; stroke-width:2; stroke-opacity:0.1; fill:none" points="1920.99,1423.18 1920.99,47.2441 "/>
<polyline clip-path="url(#clip752)" style="stroke:#000000; stroke-linecap:round; stroke-linejoin:round; stroke-width:2; stroke-opacity:0.1; fill:none" points="2352.76,1423.18 2352.76,47.2441 "/>
<polyline clip-path="url(#clip752)" style="stroke:#000000; stroke-linecap:round; stroke-linejoin:round; stroke-width:2; stroke-opacity:0.1; fill:none" points="193.936,1400.46 2352.76,1400.46 "/>
<polyline clip-path="url(#clip752)" style="stroke:#000000; stroke-linecap:round; stroke-linejoin:round; stroke-width:2; stroke-opacity:0.1; fill:none" points="193.936,1160.64 2352.76,1160.64 "/>
<polyline clip-path="url(#clip752)" style="stroke:#000000; stroke-linecap:round; stroke-linejoin:round; stroke-width:2; stroke-opacity:0.1; fill:none" points="193.936,920.815 2352.76,920.815 "/>
<polyline clip-path="url(#clip752)" style="stroke:#000000; stroke-linecap:round; stroke-linejoin:round; stroke-width:2; stroke-opacity:0.1; fill:none" points="193.936,680.995 2352.76,680.995 "/>
<polyline clip-path="url(#clip752)" style="stroke:#000000; stroke-linecap:round; stroke-linejoin:round; stroke-width:2; stroke-opacity:0.1; fill:none" points="193.936,441.175 2352.76,441.175 "/>
<polyline clip-path="url(#clip752)" style="stroke:#000000; stroke-linecap:round; stroke-linejoin:round; stroke-width:2; stroke-opacity:0.1; fill:none" points="193.936,201.354 2352.76,201.354 "/>
<polyline clip-path="url(#clip750)" style="stroke:#000000; stroke-linecap:round; stroke-linejoin:round; stroke-width:4; stroke-opacity:1; fill:none" points="193.936,1423.18 2352.76,1423.18 "/>
<polyline clip-path="url(#clip750)" style="stroke:#000000; stroke-linecap:round; stroke-linejoin:round; stroke-width:4; stroke-opacity:1; fill:none" points="193.936,1423.18 193.936,1404.28 "/>
<polyline clip-path="url(#clip750)" style="stroke:#000000; stroke-linecap:round; stroke-linejoin:round; stroke-width:4; stroke-opacity:1; fill:none" points="625.7,1423.18 625.7,1404.28 "/>
<polyline clip-path="url(#clip750)" style="stroke:#000000; stroke-linecap:round; stroke-linejoin:round; stroke-width:4; stroke-opacity:1; fill:none" points="1057.46,1423.18 1057.46,1404.28 "/>
<polyline clip-path="url(#clip750)" style="stroke:#000000; stroke-linecap:round; stroke-linejoin:round; stroke-width:4; stroke-opacity:1; fill:none" points="1489.23,1423.18 1489.23,1404.28 "/>
<polyline clip-path="url(#clip750)" style="stroke:#000000; stroke-linecap:round; stroke-linejoin:round; stroke-width:4; stroke-opacity:1; fill:none" points="1920.99,1423.18 1920.99,1404.28 "/>
<polyline clip-path="url(#clip750)" style="stroke:#000000; stroke-linecap:round; stroke-linejoin:round; stroke-width:4; stroke-opacity:1; fill:none" points="2352.76,1423.18 2352.76,1404.28 "/>
<path clip-path="url(#clip750)" d="M193.936 1454.1 Q190.325 1454.1 188.496 1457.66 Q186.691 1461.2 186.691 1468.33 Q186.691 1475.44 188.496 1479.01 Q190.325 1482.55 193.936 1482.55 Q197.57 1482.55 199.376 1479.01 Q201.204 1475.44 201.204 1468.33 Q201.204 1461.2 199.376 1457.66 Q197.57 1454.1 193.936 1454.1 M193.936 1450.39 Q199.746 1450.39 202.802 1455 Q205.88 1459.58 205.88 1468.33 Q205.88 1477.06 202.802 1481.67 Q199.746 1486.25 193.936 1486.25 Q188.126 1486.25 185.047 1481.67 Q181.992 1477.06 181.992 1468.33 Q181.992 1459.58 185.047 1455 Q188.126 1450.39 193.936 1450.39 Z" fill="#000000" fill-rule="nonzero" fill-opacity="1" /><path clip-path="url(#clip750)" d="M620.353 1481.64 L636.672 1481.64 L636.672 1485.58 L614.728 1485.58 L614.728 1481.64 Q617.39 1478.89 621.973 1474.26 Q626.58 1469.61 627.76 1468.27 Q630.006 1465.74 630.885 1464.01 Q631.788 1462.25 631.788 1460.56 Q631.788 1457.8 629.843 1456.07 Q627.922 1454.33 624.82 1454.33 Q622.621 1454.33 620.168 1455.09 Q617.737 1455.86 614.959 1457.41 L614.959 1452.69 Q617.783 1451.55 620.237 1450.97 Q622.691 1450.39 624.728 1450.39 Q630.098 1450.39 633.293 1453.08 Q636.487 1455.77 636.487 1460.26 Q636.487 1462.39 635.677 1464.31 Q634.89 1466.2 632.783 1468.8 Q632.205 1469.47 629.103 1472.69 Q626.001 1475.88 620.353 1481.64 Z" fill="#000000" fill-rule="nonzero" fill-opacity="1" /><path clip-path="url(#clip750)" d="M1060.47 1455.09 L1048.67 1473.54 L1060.47 1473.54 L1060.47 1455.09 M1059.25 1451.02 L1065.13 1451.02 L1065.13 1473.54 L1070.06 1473.54 L1070.06 1477.43 L1065.13 1477.43 L1065.13 1485.58 L1060.47 1485.58 L1060.47 1477.43 L1044.87 1477.43 L1044.87 1472.92 L1059.25 1451.02 Z" fill="#000000" fill-rule="nonzero" fill-opacity="1" /><path clip-path="url(#clip750)" d="M1489.63 1466.44 Q1486.48 1466.44 1484.63 1468.59 Q1482.8 1470.74 1482.8 1474.49 Q1482.8 1478.22 1484.63 1480.39 Q1486.48 1482.55 1489.63 1482.55 Q1492.78 1482.55 1494.61 1480.39 Q1496.46 1478.22 1496.46 1474.49 Q1496.46 1470.74 1494.61 1468.59 Q1492.78 1466.44 1489.63 1466.44 M1498.92 1451.78 L1498.92 1456.04 Q1497.16 1455.21 1495.35 1454.77 Q1493.57 1454.33 1491.81 1454.33 Q1487.18 1454.33 1484.73 1457.45 Q1482.3 1460.58 1481.95 1466.9 Q1483.31 1464.89 1485.37 1463.82 Q1487.43 1462.73 1489.91 1462.73 Q1495.12 1462.73 1498.13 1465.9 Q1501.16 1469.05 1501.16 1474.49 Q1501.16 1479.82 1498.01 1483.03 Q1494.86 1486.25 1489.63 1486.25 Q1483.64 1486.25 1480.47 1481.67 Q1477.3 1477.06 1477.3 1468.33 Q1477.3 1460.14 1481.18 1455.28 Q1485.07 1450.39 1491.62 1450.39 Q1493.38 1450.39 1495.17 1450.74 Q1496.97 1451.09 1498.92 1451.78 Z" fill="#000000" fill-rule="nonzero" fill-opacity="1" /><path clip-path="url(#clip750)" d="M1920.99 1469.17 Q1917.66 1469.17 1915.74 1470.95 Q1913.84 1472.73 1913.84 1475.86 Q1913.84 1478.98 1915.74 1480.77 Q1917.66 1482.55 1920.99 1482.55 Q1924.33 1482.55 1926.25 1480.77 Q1928.17 1478.96 1928.17 1475.86 Q1928.17 1472.73 1926.25 1470.95 Q1924.35 1469.17 1920.99 1469.17 M1916.32 1467.18 Q1913.31 1466.44 1911.62 1464.38 Q1909.95 1462.32 1909.95 1459.35 Q1909.95 1455.21 1912.89 1452.8 Q1915.85 1450.39 1920.99 1450.39 Q1926.15 1450.39 1929.09 1452.8 Q1932.03 1455.21 1932.03 1459.35 Q1932.03 1462.32 1930.34 1464.38 Q1928.68 1466.44 1925.69 1467.18 Q1929.07 1467.96 1930.95 1470.26 Q1932.84 1472.55 1932.84 1475.86 Q1932.84 1480.88 1929.77 1483.57 Q1926.71 1486.25 1920.99 1486.25 Q1915.27 1486.25 1912.2 1483.57 Q1909.14 1480.88 1909.14 1475.86 Q1909.14 1472.55 1911.04 1470.26 Q1912.94 1467.96 1916.32 1467.18 M1914.6 1459.79 Q1914.6 1462.48 1916.27 1463.98 Q1917.96 1465.49 1920.99 1465.49 Q1924 1465.49 1925.69 1463.98 Q1927.4 1462.48 1927.4 1459.79 Q1927.4 1457.11 1925.69 1455.6 Q1924 1454.1 1920.99 1454.1 Q1917.96 1454.1 1916.27 1455.6 Q1914.6 1457.11 1914.6 1459.79 Z" fill="#000000" fill-rule="nonzero" fill-opacity="1" /><path clip-path="url(#clip750)" d="M2327.44 1481.64 L2335.08 1481.64 L2335.08 1455.28 L2326.77 1456.95 L2326.77 1452.69 L2335.04 1451.02 L2339.71 1451.02 L2339.71 1481.64 L2347.35 1481.64 L2347.35 1485.58 L2327.44 1485.58 L2327.44 1481.64 Z" fill="#000000" fill-rule="nonzero" fill-opacity="1" /><path clip-path="url(#clip750)" d="M2366.8 1454.1 Q2363.18 1454.1 2361.36 1457.66 Q2359.55 1461.2 2359.55 1468.33 Q2359.55 1475.44 2361.36 1479.01 Q2363.18 1482.55 2366.8 1482.55 Q2370.43 1482.55 2372.23 1479.01 Q2374.06 1475.44 2374.06 1468.33 Q2374.06 1461.2 2372.23 1457.66 Q2370.43 1454.1 2366.8 1454.1 M2366.8 1450.39 Q2372.61 1450.39 2375.66 1455 Q2378.74 1459.58 2378.74 1468.33 Q2378.74 1477.06 2375.66 1481.67 Q2372.61 1486.25 2366.8 1486.25 Q2360.99 1486.25 2357.91 1481.67 Q2354.85 1477.06 2354.85 1468.33 Q2354.85 1459.58 2357.91 1455 Q2360.99 1450.39 2366.8 1450.39 Z" fill="#000000" fill-rule="nonzero" fill-opacity="1" /><path clip-path="url(#clip750)" d="M1272.41 1522.27 L1272.41 1532.4 L1284.47 1532.4 L1284.47 1536.95 L1272.41 1536.95 L1272.41 1556.3 Q1272.41 1560.66 1273.58 1561.9 Q1274.79 1563.14 1278.45 1563.14 L1284.47 1563.14 L1284.47 1568.04 L1278.45 1568.04 Q1271.67 1568.04 1269.1 1565.53 Q1266.52 1562.98 1266.52 1556.3 L1266.52 1536.95 L1262.22 1536.95 L1262.22 1532.4 L1266.52 1532.4 L1266.52 1522.27 L1272.41 1522.27 Z" fill="#000000" fill-rule="nonzero" fill-opacity="1" /><polyline clip-path="url(#clip750)" style="stroke:#000000; stroke-linecap:round; stroke-linejoin:round; stroke-width:4; stroke-opacity:1; fill:none" points="193.936,1423.18 193.936,47.2441 "/>
<polyline clip-path="url(#clip750)" style="stroke:#000000; stroke-linecap:round; stroke-linejoin:round; stroke-width:4; stroke-opacity:1; fill:none" points="193.936,1400.46 212.834,1400.46 "/>
<polyline clip-path="url(#clip750)" style="stroke:#000000; stroke-linecap:round; stroke-linejoin:round; stroke-width:4; stroke-opacity:1; fill:none" points="193.936,1160.64 212.834,1160.64 "/>
<polyline clip-path="url(#clip750)" style="stroke:#000000; stroke-linecap:round; stroke-linejoin:round; stroke-width:4; stroke-opacity:1; fill:none" points="193.936,920.815 212.834,920.815 "/>
<polyline clip-path="url(#clip750)" style="stroke:#000000; stroke-linecap:round; stroke-linejoin:round; stroke-width:4; stroke-opacity:1; fill:none" points="193.936,680.995 212.834,680.995 "/>
<polyline clip-path="url(#clip750)" style="stroke:#000000; stroke-linecap:round; stroke-linejoin:round; stroke-width:4; stroke-opacity:1; fill:none" points="193.936,441.175 212.834,441.175 "/>
<polyline clip-path="url(#clip750)" style="stroke:#000000; stroke-linecap:round; stroke-linejoin:round; stroke-width:4; stroke-opacity:1; fill:none" points="193.936,201.354 212.834,201.354 "/>
<path clip-path="url(#clip750)" d="M51.9875 1400.91 L81.6633 1400.91 L81.6633 1404.84 L51.9875 1404.84 L51.9875 1400.91 Z" fill="#000000" fill-rule="nonzero" fill-opacity="1" /><path clip-path="url(#clip750)" d="M92.566 1413.8 L100.205 1413.8 L100.205 1387.43 L91.8947 1389.1 L91.8947 1384.84 L100.159 1383.18 L104.834 1383.18 L104.834 1413.8 L112.473 1413.8 L112.473 1417.74 L92.566 1417.74 L92.566 1413.8 Z" fill="#000000" fill-rule="nonzero" fill-opacity="1" /><path clip-path="url(#clip750)" d="M121.918 1411.86 L126.802 1411.86 L126.802 1417.74 L121.918 1417.74 L121.918 1411.86 Z" fill="#000000" fill-rule="nonzero" fill-opacity="1" /><path clip-path="url(#clip750)" d="M137.033 1383.18 L155.39 1383.18 L155.39 1387.11 L141.316 1387.11 L141.316 1395.58 Q142.334 1395.24 143.353 1395.07 Q144.371 1394.89 145.39 1394.89 Q151.177 1394.89 154.556 1398.06 Q157.936 1401.23 157.936 1406.65 Q157.936 1412.23 154.464 1415.33 Q150.992 1418.41 144.672 1418.41 Q142.496 1418.41 140.228 1418.04 Q137.982 1417.67 135.575 1416.92 L135.575 1412.23 Q137.658 1413.36 139.881 1413.92 Q142.103 1414.47 144.58 1414.47 Q148.584 1414.47 150.922 1412.36 Q153.26 1410.26 153.26 1406.65 Q153.26 1403.04 150.922 1400.93 Q148.584 1398.82 144.58 1398.82 Q142.705 1398.82 140.83 1399.24 Q138.978 1399.66 137.033 1400.54 L137.033 1383.18 Z" fill="#000000" fill-rule="nonzero" fill-opacity="1" /><path clip-path="url(#clip750)" d="M50.9921 1161.09 L80.6679 1161.09 L80.6679 1165.02 L50.9921 1165.02 L50.9921 1161.09 Z" fill="#000000" fill-rule="nonzero" fill-opacity="1" /><path clip-path="url(#clip750)" d="M91.5706 1173.98 L99.2095 1173.98 L99.2095 1147.61 L90.8993 1149.28 L90.8993 1145.02 L99.1632 1143.36 L103.839 1143.36 L103.839 1173.98 L111.478 1173.98 L111.478 1177.92 L91.5706 1177.92 L91.5706 1173.98 Z" fill="#000000" fill-rule="nonzero" fill-opacity="1" /><path clip-path="url(#clip750)" d="M120.922 1172.04 L125.807 1172.04 L125.807 1177.92 L120.922 1177.92 L120.922 1172.04 Z" fill="#000000" fill-rule="nonzero" fill-opacity="1" /><path clip-path="url(#clip750)" d="M145.992 1146.43 Q142.381 1146.43 140.552 1150 Q138.746 1153.54 138.746 1160.67 Q138.746 1167.78 140.552 1171.34 Q142.381 1174.88 145.992 1174.88 Q149.626 1174.88 151.431 1171.34 Q153.26 1167.78 153.26 1160.67 Q153.26 1153.54 151.431 1150 Q149.626 1146.43 145.992 1146.43 M145.992 1142.73 Q151.802 1142.73 154.857 1147.34 Q157.936 1151.92 157.936 1160.67 Q157.936 1169.4 154.857 1174 Q151.802 1178.59 145.992 1178.59 Q140.181 1178.59 137.103 1174 Q134.047 1169.4 134.047 1160.67 Q134.047 1151.92 137.103 1147.34 Q140.181 1142.73 145.992 1142.73 Z" fill="#000000" fill-rule="nonzero" fill-opacity="1" /><path clip-path="url(#clip750)" d="M51.9875 921.266 L81.6633 921.266 L81.6633 925.201 L51.9875 925.201 L51.9875 921.266 Z" fill="#000000" fill-rule="nonzero" fill-opacity="1" /><path clip-path="url(#clip750)" d="M101.756 906.614 Q98.1447 906.614 96.316 910.178 Q94.5104 913.72 94.5104 920.85 Q94.5104 927.956 96.316 931.521 Q98.1447 935.062 101.756 935.062 Q105.39 935.062 107.196 931.521 Q109.024 927.956 109.024 920.85 Q109.024 913.72 107.196 910.178 Q105.39 906.614 101.756 906.614 M101.756 902.91 Q107.566 902.91 110.621 907.516 Q113.7 912.1 113.7 920.85 Q113.7 929.576 110.621 934.183 Q107.566 938.766 101.756 938.766 Q95.9456 938.766 92.8669 934.183 Q89.8114 929.576 89.8114 920.85 Q89.8114 912.1 92.8669 907.516 Q95.9456 902.91 101.756 902.91 Z" fill="#000000" fill-rule="nonzero" fill-opacity="1" /><path clip-path="url(#clip750)" d="M121.918 932.215 L126.802 932.215 L126.802 938.095 L121.918 938.095 L121.918 932.215 Z" fill="#000000" fill-rule="nonzero" fill-opacity="1" /><path clip-path="url(#clip750)" d="M137.033 903.535 L155.39 903.535 L155.39 907.47 L141.316 907.47 L141.316 915.942 Q142.334 915.595 143.353 915.433 Q144.371 915.248 145.39 915.248 Q151.177 915.248 154.556 918.419 Q157.936 921.59 157.936 927.007 Q157.936 932.586 154.464 935.687 Q150.992 938.766 144.672 938.766 Q142.496 938.766 140.228 938.396 Q137.982 938.025 135.575 937.285 L135.575 932.586 Q137.658 933.72 139.881 934.275 Q142.103 934.831 144.58 934.831 Q148.584 934.831 150.922 932.725 Q153.26 930.618 153.26 927.007 Q153.26 923.396 150.922 921.289 Q148.584 919.183 144.58 919.183 Q142.705 919.183 140.83 919.6 Q138.978 920.016 137.033 920.896 L137.033 903.535 Z" fill="#000000" fill-rule="nonzero" fill-opacity="1" /><path clip-path="url(#clip750)" d="M100.76 666.793 Q97.1493 666.793 95.3206 670.358 Q93.515 673.9 93.515 681.029 Q93.515 688.136 95.3206 691.701 Q97.1493 695.242 100.76 695.242 Q104.395 695.242 106.2 691.701 Q108.029 688.136 108.029 681.029 Q108.029 673.9 106.2 670.358 Q104.395 666.793 100.76 666.793 M100.76 663.09 Q106.571 663.09 109.626 667.696 Q112.705 672.28 112.705 681.029 Q112.705 689.756 109.626 694.363 Q106.571 698.946 100.76 698.946 Q94.9502 698.946 91.8715 694.363 Q88.816 689.756 88.816 681.029 Q88.816 672.28 91.8715 667.696 Q94.9502 663.09 100.76 663.09 Z" fill="#000000" fill-rule="nonzero" fill-opacity="1" /><path clip-path="url(#clip750)" d="M120.922 692.395 L125.807 692.395 L125.807 698.275 L120.922 698.275 L120.922 692.395 Z" fill="#000000" fill-rule="nonzero" fill-opacity="1" /><path clip-path="url(#clip750)" d="M145.992 666.793 Q142.381 666.793 140.552 670.358 Q138.746 673.9 138.746 681.029 Q138.746 688.136 140.552 691.701 Q142.381 695.242 145.992 695.242 Q149.626 695.242 151.431 691.701 Q153.26 688.136 153.26 681.029 Q153.26 673.9 151.431 670.358 Q149.626 666.793 145.992 666.793 M145.992 663.09 Q151.802 663.09 154.857 667.696 Q157.936 672.28 157.936 681.029 Q157.936 689.756 154.857 694.363 Q151.802 698.946 145.992 698.946 Q140.181 698.946 137.103 694.363 Q134.047 689.756 134.047 681.029 Q134.047 672.28 137.103 667.696 Q140.181 663.09 145.992 663.09 Z" fill="#000000" fill-rule="nonzero" fill-opacity="1" /><path clip-path="url(#clip750)" d="M101.756 426.973 Q98.1447 426.973 96.316 430.538 Q94.5104 434.08 94.5104 441.209 Q94.5104 448.316 96.316 451.881 Q98.1447 455.422 101.756 455.422 Q105.39 455.422 107.196 451.881 Q109.024 448.316 109.024 441.209 Q109.024 434.08 107.196 430.538 Q105.39 426.973 101.756 426.973 M101.756 423.27 Q107.566 423.27 110.621 427.876 Q113.7 432.459 113.7 441.209 Q113.7 449.936 110.621 454.543 Q107.566 459.126 101.756 459.126 Q95.9456 459.126 92.8669 454.543 Q89.8114 449.936 89.8114 441.209 Q89.8114 432.459 92.8669 427.876 Q95.9456 423.27 101.756 423.27 Z" fill="#000000" fill-rule="nonzero" fill-opacity="1" /><path clip-path="url(#clip750)" d="M121.918 452.575 L126.802 452.575 L126.802 458.455 L121.918 458.455 L121.918 452.575 Z" fill="#000000" fill-rule="nonzero" fill-opacity="1" /><path clip-path="url(#clip750)" d="M137.033 423.895 L155.39 423.895 L155.39 427.83 L141.316 427.83 L141.316 436.302 Q142.334 435.955 143.353 435.793 Q144.371 435.607 145.39 435.607 Q151.177 435.607 154.556 438.779 Q157.936 441.95 157.936 447.367 Q157.936 452.945 154.464 456.047 Q150.992 459.126 144.672 459.126 Q142.496 459.126 140.228 458.756 Q137.982 458.385 135.575 457.644 L135.575 452.945 Q137.658 454.08 139.881 454.635 Q142.103 455.191 144.58 455.191 Q148.584 455.191 150.922 453.084 Q153.26 450.978 153.26 447.367 Q153.26 443.756 150.922 441.649 Q148.584 439.543 144.58 439.543 Q142.705 439.543 140.83 439.959 Q138.978 440.376 137.033 441.256 L137.033 423.895 Z" fill="#000000" fill-rule="nonzero" fill-opacity="1" /><path clip-path="url(#clip750)" d="M91.5706 214.699 L99.2095 214.699 L99.2095 188.334 L90.8993 190 L90.8993 185.741 L99.1632 184.074 L103.839 184.074 L103.839 214.699 L111.478 214.699 L111.478 218.634 L91.5706 218.634 L91.5706 214.699 Z" fill="#000000" fill-rule="nonzero" fill-opacity="1" /><path clip-path="url(#clip750)" d="M120.922 212.755 L125.807 212.755 L125.807 218.634 L120.922 218.634 L120.922 212.755 Z" fill="#000000" fill-rule="nonzero" fill-opacity="1" /><path clip-path="url(#clip750)" d="M145.992 187.153 Q142.381 187.153 140.552 190.718 Q138.746 194.26 138.746 201.389 Q138.746 208.496 140.552 212.06 Q142.381 215.602 145.992 215.602 Q149.626 215.602 151.431 212.06 Q153.26 208.496 153.26 201.389 Q153.26 194.26 151.431 190.718 Q149.626 187.153 145.992 187.153 M145.992 183.449 Q151.802 183.449 154.857 188.056 Q157.936 192.639 157.936 201.389 Q157.936 210.116 154.857 214.722 Q151.802 219.306 145.992 219.306 Q140.181 219.306 137.103 214.722 Q134.047 210.116 134.047 201.389 Q134.047 192.639 137.103 188.056 Q140.181 183.449 145.992 183.449 Z" fill="#000000" fill-rule="nonzero" fill-opacity="1" /><polyline clip-path="url(#clip752)" style="stroke:#009af9; stroke-linecap:round; stroke-linejoin:round; stroke-width:4; stroke-opacity:1; fill:none" points="193.936,680.995 196.097,685.459 198.258,689.865 200.419,694.211 202.58,698.501 204.741,702.733 206.902,706.91 209.063,711.03 211.224,715.097 213.385,719.109 215.546,723.068 217.707,726.975 219.868,730.83 222.029,734.634 224.19,738.387 226.351,742.091 228.512,745.745 230.673,749.351 232.834,752.91 234.995,756.421 237.156,759.885 239.317,763.304 241.478,766.677 243.639,770.006 245.8,773.29 247.961,776.531 250.122,779.729 252.282,782.884 254.443,785.998 256.604,789.07 258.765,792.102 260.926,795.093 263.087,798.045 265.248,800.958 267.409,803.832 269.57,806.668 271.731,809.466 273.892,812.227 276.053,814.952 278.214,817.641 280.375,820.293 282.536,822.911 284.697,825.494 286.858,828.043 289.019,830.558 291.18,833.039 293.341,835.488 295.502,837.904 297.663,840.289 299.824,842.641 301.985,844.963 304.146,847.253 306.307,849.513 308.468,851.744 310.629,853.944 312.79,856.116 314.951,858.259 317.112,860.373 319.273,862.459 321.434,864.518 323.595,866.549 325.756,868.554 327.917,870.532 330.078,872.483 332.239,874.409 334.4,876.31 336.561,878.185 338.722,880.035 340.883,881.86 343.044,883.662 345.205,885.439 347.366,887.193 349.527,888.924 351.688,890.632 353.849,892.317 356.01,893.98 358.171,895.62 360.332,897.239 362.493,898.837 364.653,900.413 366.814,901.969 368.975,903.504 371.136,905.018 373.297,906.512 375.458,907.987 377.619,909.442 379.78,910.878 381.941,912.295 384.102,913.693 386.263,915.072 388.424,916.433 390.585,917.776 392.746,919.101 394.907,920.409 397.068,921.699 399.229,922.973 401.39,924.229 403.551,925.469 405.712,928.084 407.873,928.51 410.034,921.428 412.195,910.461 414.356,900.094 416.517,889.864 418.678,879.769 420.839,869.808 423,859.98 425.161,850.281 427.322,840.712 429.483,831.269 431.644,821.951 433.805,812.757 435.966,803.685 438.127,794.733 440.288,785.9 442.449,777.183 444.61,768.583 446.771,760.096 448.932,751.722 451.093,743.459 453.254,735.306 455.415,727.26 457.576,719.321 459.737,711.488 461.898,703.758 464.059,696.131 466.22,688.605 468.381,681.179 470.542,673.851 472.703,666.62 474.864,659.486 477.024,652.445 479.185,645.499 481.346,638.644 483.507,631.88 485.668,625.206 487.829,618.62 489.99,612.122 492.151,605.71 494.312,599.382 496.473,593.139 498.634,586.978 500.795,580.9 502.956,574.901 505.117,568.982 507.278,563.142 509.439,557.379 511.6,551.693 513.761,546.082 515.922,540.545 518.083,535.082 520.244,529.691 522.405,524.372 524.566,519.123 526.727,513.944 528.888,508.833 531.049,503.79 533.21,498.814 535.371,493.904 537.532,489.059 539.693,484.279 541.854,479.561 544.015,474.906 546.176,470.313 548.337,465.781 550.498,461.309 552.659,456.896 554.82,452.542 556.981,448.245 559.142,444.006 561.303,439.822 563.464,435.694 565.625,431.621 567.786,427.602 569.947,423.636 572.108,419.723 574.269,415.862 576.43,412.052 578.591,408.292 580.752,404.582 582.913,400.922 585.074,397.31 587.235,393.746 589.396,390.229 591.556,386.758 593.717,383.334 595.878,379.955 598.039,376.621 600.2,373.331 602.361,370.085 604.522,366.881 606.683,363.72 608.844,360.601 611.005,357.524 613.166,354.487 615.327,351.491 617.488,348.534 619.649,345.616 621.81,342.996 623.971,342.831 626.132,345.329 628.293,350.159 630.454,357.011 632.615,365.592 634.776,375.629 636.937,386.864 639.098,399.06 641.259,411.998 643.42,425.476 645.581,439.31 647.742,453.337 649.903,467.409 652.064,481.399 654.225,495.196 656.386,508.708 658.547,521.862 660.708,534.602 662.869,546.892 665.03,558.713 667.191,570.064 669.352,580.962 671.513,591.445 673.674,601.565 675.835,611.397 677.996,621.029 680.157,630.572 682.318,640.152 684.479,649.903 686.64,659.639 688.801,669.246 690.962,678.725 693.123,688.079 695.284,697.309 697.445,706.416 699.606,715.403 701.767,724.27 703.927,733.02 706.088,741.654 708.249,750.173 710.41,758.58 712.571,766.875 714.732,775.06 716.893,783.136 719.054,791.106 721.215,798.97 723.376,806.73 725.537,814.387 727.698,821.942 729.859,829.398 732.02,836.754 734.181,844.013 736.342,851.175 738.503,858.243 740.664,865.216 742.825,872.097 744.986,878.887 747.147,885.587 749.308,892.198 751.469,898.721 753.63,905.158 755.791,911.51 757.952,917.777 760.113,923.961 762.274,930.063 764.435,936.084 766.596,942.026 768.757,947.888 770.918,953.673 773.079,959.382 775.24,965.014 777.401,970.572 779.562,976.057 781.723,981.468 783.884,986.808 786.045,992.077 788.206,997.277 790.367,1002.41 792.528,1007.47 794.689,1012.46 796.85,1017.39 799.011,1022.26 801.172,1027.06 803.333,1031.79 805.494,1036.46 807.655,1041.08 809.816,1045.62 811.977,1050.11 814.138,1054.54 816.298,1058.92 818.459,1063.43 820.62,1068.19 822.781,1073.07 824.942,1077.95 827.103,1082.72 829.264,1087.29 831.425,1091.59 833.586,1095.54 835.747,1099.09 837.908,1102.2 840.069,1104.85 842.23,1107.01 844.391,1108.7 846.552,1109.91 848.713,1110.68 850.874,1111.05 853.035,1111.05 855.196,1110.77 857.357,1110.27 859.518,1109.65 861.679,1109.01 863.84,1108.47 866.001,1108.12 868.162,1107.82 870.323,1107.53 872.484,1107.24 874.645,1106.95 876.806,1106.67 878.967,1106.39 881.128,1106.11 883.289,1105.84 885.45,1105.57 887.611,1105.31 889.772,1105.05 891.933,1104.79 894.094,1104.54 896.255,1104.29 898.416,1104.04 900.577,1103.79 902.738,1103.55 904.899,1103.31 907.06,1103.08 909.221,1102.85 911.382,1102.62 913.543,1102.39 915.704,1102.17 917.865,1101.95 920.026,1101.73 922.187,1101.52 924.348,1101.31 926.509,1101.1 928.669,1100.9 930.83,1100.69 932.991,1100.49 935.152,1100.3 937.313,1100.1 939.474,1099.91 941.635,1099.72 943.796,1099.53 945.957,1099.35 948.118,1099.17 950.279,1098.99 952.44,1098.81 954.601,1098.63 956.762,1098.46 958.923,1098.29 961.084,1098.12 963.245,1097.96 965.406,1097.79 967.567,1097.63 969.728,1097.47 971.889,1097.32 974.05,1097.16 976.211,1097.01 978.372,1096.86 980.533,1096.71 982.694,1096.56 984.855,1096.42 987.016,1096.27 989.177,1096.13 991.338,1095.99 993.499,1095.86 995.66,1095.72 997.821,1095.59 999.982,1095.46 1002.14,1095.33 1004.3,1095.2 1006.46,1095.07 1008.63,1094.95 1010.79,1094.82 1012.95,1094.7 1015.11,1094.58 1017.27,1094.46 1019.43,1094.34 1021.59,1094.23 1023.75,1094.11 1025.91,1094.04 1028.07,1094.03 1030.24,1094.07 1032.4,1094.15 1034.56,1094.25 1036.72,1094.36 1038.88,1094.49 1041.04,1094.62 1043.2,1094.73 1045.36,1094.83 1047.52,1094.91 1049.68,1094.95 1051.85,1094.96 1054.01,1094.93 1056.17,1094.85 1058.33,1094.72 1060.49,1094.53 1062.65,1094.29 1064.81,1093.99 1066.97,1093.62 1069.13,1093.19 1071.29,1092.69 1073.46,1092.12 1075.62,1091.49 1077.78,1090.79 1079.94,1090.03 1082.1,1089.21 1084.26,1088.32 1086.42,1087.37 1088.58,1086.37 1090.74,1085.32 1092.9,1084.22 1095.07,1083.08 1097.23,1081.9 1099.39,1080.69 1101.55,1079.45 1103.71,1078.2 1105.87,1076.94 1108.03,1075.67 1110.19,1074.41 1112.35,1073.17 1114.51,1071.95 1116.67,1070.77 1118.84,1069.64 1121,1068.56 1123.16,1067.51 1125.32,1066.47 1127.48,1065.45 1129.64,1064.44 1131.8,1063.45 1133.96,1062.46 1136.12,1061.49 1138.28,1060.54 1140.45,1059.59 1142.61,1058.66 1144.77,1057.75 1146.93,1056.84 1149.09,1055.94 1151.25,1055.06 1153.41,1054.19 1155.57,1053.33 1157.73,1052.48 1159.89,1051.65 1162.06,1050.82 1164.22,1050.01 1166.38,1049.2 1168.54,1048.41 1170.7,1047.63 1172.86,1046.85 1175.02,1046.09 1177.18,1045.34 1179.34,1044.6 1181.5,1043.87 1183.67,1043.14 1185.83,1042.43 1187.99,1041.73 1190.15,1041.03 1192.31,1040.35 1194.47,1039.67 1196.63,1039.01 1198.79,1038.35 1200.95,1037.7 1203.11,1037.06 1205.28,1036.43 1207.44,1035.8 1209.6,1035.19 1211.76,1034.58 1213.92,1033.98 1216.08,1033.39 1218.24,1032.8 1220.4,1032.23 1222.56,1031.66 1224.72,1031.1 1226.88,1030.55 1229.05,1030.02 1231.21,1029.6 1233.37,1029.28 1235.53,1029.03 1237.69,1028.83 1239.85,1028.67 1242.01,1028.51 1244.17,1028.35 1246.33,1028.17 1248.49,1027.95 1250.66,1027.67 1252.82,1027.34 1254.98,1026.92 1257.14,1026.42 1259.3,1025.83 1261.46,1025.14 1263.62,1024.34 1265.78,1023.42 1267.94,1022.4 1270.1,1021.26 1272.27,1020 1274.43,1018.62 1276.59,1017.13 1278.75,1015.54 1280.91,1013.83 1283.07,1012.03 1285.23,1010.14 1287.39,1008.17 1289.55,1006.13 1291.71,1004.03 1293.88,1001.88 1296.04,999.706 1298.2,997.513 1300.36,995.322 1302.52,993.151 1304.68,991.02 1306.84,988.952 1309,986.967 1311.16,985.071 1313.32,983.206 1315.49,981.366 1317.65,979.55 1319.81,977.758 1321.97,975.99 1324.13,974.245 1326.29,972.524 1328.45,970.825 1330.61,969.149 1332.77,967.495 1334.93,965.863 1337.09,964.253 1339.26,962.664 1341.42,961.096 1343.58,959.549 1345.74,958.022 1347.9,956.516 1350.06,955.029 1352.22,953.562 1354.38,952.114 1356.54,950.686 1358.7,949.276 1360.87,947.885 1363.03,946.513 1365.19,945.158 1367.35,943.822 1369.51,942.503 1371.67,941.202 1373.83,939.918 1375.99,938.651 1378.15,937.401 1380.31,936.168 1382.48,934.951 1384.64,933.75 1386.8,932.565 1388.96,931.396 1391.12,930.242 1393.28,929.104 1395.44,927.981 1397.6,926.873 1399.76,925.779 1401.92,924.7 1404.09,923.636 1406.25,922.585 1408.41,921.549 1410.57,920.527 1412.73,919.518 1414.89,918.522 1417.05,917.54 1419.21,916.57 1421.37,915.614 1423.53,914.67 1425.7,913.739 1427.86,912.82 1430.02,911.914 1432.18,911.019 1434.34,910.136 1436.5,909.265 1438.66,908.406 1440.82,907.558 1442.98,906.721 1445.14,905.895 1447.3,905.08 1449.47,904.276 1451.63,903.482 1453.79,902.699 1455.95,901.926 1458.11,901.164 1460.27,900.411 1462.43,899.669 1464.59,898.936 1466.75,898.213 1468.91,897.499 1471.08,896.795 1473.24,896.101 1475.4,895.415 1477.56,894.813 1479.72,894.857 1481.88,894.953 1484.04,894.412 1486.2,892.795 1488.36,889.91 1490.52,885.812 1492.69,880.804 1494.85,875.437 1497.01,870.378 1499.17,865.469 1501.33,860.625 1503.49,855.845 1505.65,851.128 1507.81,846.474 1509.97,841.882 1512.13,837.35 1514.3,832.879 1516.46,828.466 1518.62,824.113 1520.78,819.817 1522.94,815.578 1525.1,811.395 1527.26,807.268 1529.42,803.195 1531.58,799.177 1533.74,795.212 1535.91,791.299 1538.07,787.438 1540.23,783.629 1542.39,779.869 1544.55,776.16 1546.71,772.5 1548.87,768.889 1551.03,765.325 1553.19,761.809 1555.35,758.339 1557.51,754.915 1559.68,751.537 1561.84,748.203 1564,744.914 1566.16,741.668 1568.32,738.465 1570.48,735.305 1572.64,732.186 1574.8,729.109 1576.96,726.073 1579.12,723.077 1581.29,720.12 1583.45,717.203 1585.61,714.325 1587.77,711.484 1589.93,708.682 1592.09,705.916 1594.25,703.187 1596.41,700.495 1598.57,697.838 1600.73,695.216 1602.9,692.629 1605.06,690.077 1607.22,687.558 1609.38,685.073 1611.54,682.62 1613.7,680.2 1615.86,677.812 1618.02,675.456 1620.18,673.131 1622.34,670.837 1624.51,668.573 1626.67,666.339 1628.83,664.135 1630.99,661.96 1633.15,659.814 1635.31,657.696 1637.47,655.607 1639.63,653.545 1641.79,651.511 1643.95,649.503 1646.12,647.522 1648.28,645.568 1650.44,643.639 1652.6,641.736 1654.76,639.858 1656.92,638.005 1659.08,636.177 1661.24,634.372 1663.4,632.592 1665.56,630.836 1667.72,629.102 1669.89,627.392 1672.05,625.704 1674.21,624.039 1676.37,622.396 1678.53,620.774 1680.69,619.174 1682.85,617.595 1685.01,616.037 1687.17,614.5 1689.33,612.983 1691.5,611.487 1693.66,610.01 1695.82,608.553 1697.98,607.115 1700.14,605.696 1702.3,604.296 1704.46,602.914 1706.62,601.301 1708.78,599.229 1710.94,596.76 1713.11,593.948 1715.27,590.847 1717.43,587.506 1719.59,583.973 1721.75,580.289 1723.91,576.494 1726.07,572.624 1728.23,568.712 1730.39,564.787 1732.55,560.876 1734.72,556.999 1736.88,553.178 1739.04,549.427 1741.2,545.759 1743.36,542.183 1745.52,538.704 1747.68,535.324 1749.84,532.043 1752,528.856 1754.16,525.755 1756.33,522.728 1758.49,519.761 1760.65,516.836 1762.81,513.931 1764.97,511.021 1767.13,508.111 1769.29,505.239 1771.45,502.405 1773.61,499.609 1775.77,496.85 1777.93,494.127 1780.1,491.441 1782.26,488.79 1784.42,486.174 1786.58,483.593 1788.74,481.047 1790.9,478.534 1793.06,476.054 1795.22,473.607 1797.38,471.193 1799.54,468.81 1801.71,466.46 1803.87,464.14 1806.03,461.851 1808.19,459.592 1810.35,457.363 1812.51,455.164 1814.67,452.994 1816.83,450.852 1818.99,448.74 1821.15,446.655 1823.32,444.597 1825.48,442.567 1827.64,440.564 1829.8,438.588 1831.96,436.638 1834.12,434.714 1836.28,432.815 1838.44,430.941 1840.6,429.093 1842.76,427.268 1844.93,425.469 1847.09,423.692 1849.25,421.94 1851.41,420.211 1853.57,418.505 1855.73,416.821 1857.89,415.16 1860.05,413.52 1862.21,411.903 1864.37,410.307 1866.54,408.732 1868.7,407.178 1870.86,405.644 1873.02,404.131 1875.18,402.638 1877.34,401.165 1879.5,399.711 1881.66,398.276 1883.82,396.861 1885.98,395.464 1888.15,394.202 1890.31,393.153 1892.47,392.246 1894.63,391.418 1896.79,390.609 1898.95,389.766 1901.11,388.843 1903.27,387.8 1905.43,386.6 1907.59,385.216 1909.75,383.623 1911.92,381.806 1914.08,379.752 1916.24,377.456 1918.4,374.92 1920.56,372.149 1922.72,369.157 1924.88,365.961 1927.04,362.586 1929.2,359.062 1931.36,355.425 1933.53,351.718 1935.69,347.989 1937.85,344.291 1940.01,340.685 1942.17,337.236 1944.33,333.907 1946.49,330.623 1948.65,327.382 1950.81,324.184 1952.97,321.029 1955.14,317.915 1957.3,314.843 1959.46,311.812 1961.62,308.82 1963.78,305.869 1965.94,302.956 1968.1,300.082 1970.26,297.246 1972.42,294.448 1974.58,291.687 1976.75,288.962 1978.91,286.274 1981.07,283.621 1983.23,281.003 1985.39,278.42 1987.55,275.87 1989.71,273.355 1991.87,270.873 1994.03,268.423 1996.19,266.006 1998.36,263.621 2000.52,261.268 2002.68,258.946 2004.84,256.655 2007,254.394 2009.16,252.163 2011.32,249.962 2013.48,247.79 2015.64,245.647 2017.8,243.532 2019.96,241.446 2022.13,239.387 2024.29,237.355 2026.45,235.351 2028.61,233.373 2030.77,231.422 2032.93,229.497 2035.09,227.597 2037.25,225.722 2039.41,223.873 2041.57,222.048 2043.74,220.247 2045.9,218.47 2048.06,216.717 2050.22,214.987 2052.38,213.28 2054.54,211.595 2056.7,209.933 2058.86,208.294 2061.02,206.675 2063.18,205.079 2065.35,203.503 2067.51,201.948 2069.67,200.414 2071.83,198.9 2073.99,197.407 2076.15,195.933 2078.31,194.478 2080.47,193.043 2082.63,191.626 2084.79,190.228 2086.96,188.849 2089.12,187.478 2091.28,185.94 2093.44,184.221 2095.6,182.388 2097.76,180.5 2099.92,178.615 2102.08,176.783 2104.24,175.049 2106.4,173.455 2108.57,172.036 2110.73,170.824 2112.89,169.845 2115.05,169.12 2117.21,168.665 2119.37,168.492 2121.53,168.608 2123.69,169.014 2125.85,169.706 2128.01,170.676 2130.17,171.911 2132.34,173.393 2134.5,175.099 2136.66,177.001 2138.82,179.065 2140.98,181.254 2143.14,183.526 2145.3,185.832 2147.46,188.12 2149.62,190.332 2151.78,192.406 2153.95,194.333 2156.11,196.227 2158.27,198.095 2160.43,199.939 2162.59,201.759 2164.75,203.554 2166.91,205.326 2169.07,207.074 2171.23,208.799 2173.39,210.501 2175.56,212.18 2177.72,213.838 2179.88,215.473 2182.04,217.087 2184.2,218.679 2186.36,220.25 2188.52,221.8 2190.68,223.33 2192.84,224.839 2195,226.329 2197.17,227.798 2199.33,229.249 2201.49,230.68 2203.65,232.092 2205.81,233.486 2207.97,234.862 2210.13,236.219 2212.29,237.558 2214.45,238.88 2216.61,240.184 2218.78,241.471 2220.94,242.741 2223.1,243.994 2225.26,245.231 2227.42,246.451 2229.58,247.655 2231.74,248.843 2233.9,250.015 2236.06,251.171 2238.22,252.312 2240.38,253.438 2242.55,254.549 2244.71,255.645 2246.87,256.726 2249.03,257.793 2251.19,258.846 2253.35,259.885 2255.51,260.91 2257.67,261.921 2259.83,262.919 2261.99,263.903 2264.16,264.874 2266.32,265.833 2268.48,266.778 2270.64,267.711 2272.8,268.631 2274.96,269.54 2277.12,270.436 2279.28,271.32 2281.44,272.192 2283.6,273.053 2285.77,273.903 2287.93,274.741 2290.09,275.568 2292.25,276.383 2294.41,277.189 2296.57,277.983 2298.73,278.767 2300.89,279.541 2303.05,280.304 2305.21,281.057 2307.38,281.8 2309.54,282.534 2311.7,283.258 2313.86,283.972 2316.02,284.677 2318.18,285.373 2320.34,286.059 2322.5,286.737 2324.66,287.405 2326.82,288.065 2328.99,288.716 2331.15,289.359 2333.31,289.993 2335.47,290.618 2337.63,291.236 2339.79,291.845 2341.95,292.446 2344.11,293.039 2346.27,293.624 2348.43,294.202 2350.59,294.771 2352.76,295.334 "/>
<polyline clip-path="url(#clip752)" style="stroke:#e26f46; stroke-linecap:round; stroke-linejoin:round; stroke-width:4; stroke-opacity:1; fill:none" points="193.936,1017.74 196.097,1017.74 198.258,1017.74 200.419,1017.74 202.58,1017.74 204.741,1017.74 206.902,1017.74 209.063,1017.74 211.224,1017.74 213.385,1017.74 215.546,1017.74 217.707,1017.74 219.868,1017.74 222.029,1017.74 224.19,1017.74 226.351,1017.74 228.512,1017.74 230.673,1017.74 232.834,1017.74 234.995,1017.74 237.156,1017.74 239.317,1017.74 241.478,1017.74 243.639,1017.74 245.8,1017.74 247.961,1017.74 250.122,1017.74 252.282,1017.74 254.443,1017.74 256.604,1017.74 258.765,1017.74 260.926,1017.74 263.087,1017.74 265.248,1017.74 267.409,1017.74 269.57,1017.74 271.731,1017.74 273.892,1017.74 276.053,1017.74 278.214,1017.74 280.375,1017.74 282.536,1017.74 284.697,1017.74 286.858,1017.74 289.019,1017.74 291.18,1017.74 293.341,1017.74 295.502,1017.74 297.663,1017.74 299.824,1017.74 301.985,1017.74 304.146,1017.74 306.307,1017.74 308.468,1017.74 310.629,1017.74 312.79,1017.74 314.951,1017.74 317.112,1017.74 319.273,1017.74 321.434,1017.74 323.595,1017.74 325.756,1017.74 327.917,1017.74 330.078,1017.74 332.239,1017.74 334.4,1017.74 336.561,1017.74 338.722,1017.74 340.883,1017.74 343.044,1017.74 345.205,1017.74 347.366,1017.74 349.527,1017.74 351.688,1017.74 353.849,1017.74 356.01,1017.74 358.171,1017.74 360.332,1017.74 362.493,1017.74 364.653,1017.74 366.814,1017.74 368.975,1017.74 371.136,1017.74 373.297,1017.74 375.458,1017.74 377.619,1017.74 379.78,1017.74 381.941,1017.74 384.102,1017.74 386.263,1017.74 388.424,1017.74 390.585,1017.74 392.746,1017.74 394.907,1017.74 397.068,1017.74 399.229,1017.74 401.39,1017.74 403.551,1017.74 405.712,1017.74 407.873,1017.74 410.034,128.472 412.195,128.472 414.356,128.472 416.517,128.472 418.678,128.472 420.839,128.472 423,128.472 425.161,128.472 427.322,128.472 429.483,128.472 431.644,128.472 433.805,128.472 435.966,128.472 438.127,128.472 440.288,128.472 442.449,128.472 444.61,128.472 446.771,128.472 448.932,128.472 451.093,128.472 453.254,128.472 455.415,128.472 457.576,128.472 459.737,128.472 461.898,128.472 464.059,128.472 466.22,128.472 468.381,128.472 470.542,128.472 472.703,128.472 474.864,128.472 477.024,128.472 479.185,128.472 481.346,128.472 483.507,128.472 485.668,128.472 487.829,128.472 489.99,128.472 492.151,128.472 494.312,128.472 496.473,128.472 498.634,128.472 500.795,128.472 502.956,128.472 505.117,128.472 507.278,128.472 509.439,128.472 511.6,128.472 513.761,128.472 515.922,128.472 518.083,128.472 520.244,128.472 522.405,128.472 524.566,128.472 526.727,128.472 528.888,128.472 531.049,128.472 533.21,128.472 535.371,128.472 537.532,128.472 539.693,128.472 541.854,128.472 544.015,128.472 546.176,128.472 548.337,128.472 550.498,128.472 552.659,128.472 554.82,128.472 556.981,128.472 559.142,128.472 561.303,128.472 563.464,128.472 565.625,128.472 567.786,128.472 569.947,128.472 572.108,128.472 574.269,128.472 576.43,128.472 578.591,128.472 580.752,128.472 582.913,128.472 585.074,128.472 587.235,128.472 589.396,128.472 591.556,128.472 593.717,128.472 595.878,128.472 598.039,128.472 600.2,128.472 602.361,128.472 604.522,128.472 606.683,128.472 608.844,128.472 611.005,128.472 613.166,128.472 615.327,128.472 617.488,128.472 619.649,128.472 621.81,128.472 623.971,128.472 626.132,1384.24 628.293,1384.24 630.454,1384.24 632.615,1384.24 634.776,1384.24 636.937,1384.24 639.098,1384.24 641.259,1384.24 643.42,1384.24 645.581,1384.24 647.742,1384.24 649.903,1384.24 652.064,1384.24 654.225,1384.24 656.386,1384.24 658.547,1384.24 660.708,1384.24 662.869,1384.24 665.03,1384.24 667.191,1384.24 669.352,1384.24 671.513,1384.24 673.674,1384.24 675.835,1384.24 677.996,1384.24 680.157,1384.24 682.318,1384.24 684.479,1384.24 686.64,1384.24 688.801,1384.24 690.962,1384.24 693.123,1384.24 695.284,1384.24 697.445,1384.24 699.606,1384.24 701.767,1384.24 703.927,1384.24 706.088,1384.24 708.249,1384.24 710.41,1384.24 712.571,1384.24 714.732,1384.24 716.893,1384.24 719.054,1384.24 721.215,1384.24 723.376,1384.24 725.537,1384.24 727.698,1384.24 729.859,1384.24 732.02,1384.24 734.181,1384.24 736.342,1384.24 738.503,1384.24 740.664,1384.24 742.825,1384.24 744.986,1384.24 747.147,1384.24 749.308,1384.24 751.469,1384.24 753.63,1384.24 755.791,1384.24 757.952,1384.24 760.113,1384.24 762.274,1384.24 764.435,1384.24 766.596,1384.24 768.757,1384.24 770.918,1384.24 773.079,1384.24 775.24,1384.24 777.401,1384.24 779.562,1384.24 781.723,1384.24 783.884,1384.24 786.045,1384.24 788.206,1384.24 790.367,1384.24 792.528,1384.24 794.689,1384.24 796.85,1384.24 799.011,1384.24 801.172,1384.24 803.333,1384.24 805.494,1384.24 807.655,1384.24 809.816,1384.24 811.977,1384.24 814.138,1384.24 816.298,1384.24 818.459,1384.24 820.62,1384.24 822.781,1384.24 824.942,1384.24 827.103,1384.24 829.264,1384.24 831.425,1384.24 833.586,1384.24 835.747,1384.24 837.908,1384.24 840.069,1384.24 842.23,1085.62 844.391,1085.62 846.552,1085.62 848.713,1085.62 850.874,1085.62 853.035,1085.62 855.196,1085.62 857.357,1085.62 859.518,1085.62 861.679,1085.62 863.84,1085.62 866.001,1085.62 868.162,1085.62 870.323,1085.62 872.484,1085.62 874.645,1085.62 876.806,1085.62 878.967,1085.62 881.128,1085.62 883.289,1085.62 885.45,1085.62 887.611,1085.62 889.772,1085.62 891.933,1085.62 894.094,1085.62 896.255,1085.62 898.416,1085.62 900.577,1085.62 902.738,1085.62 904.899,1085.62 907.06,1085.62 909.221,1085.62 911.382,1085.62 913.543,1085.62 915.704,1085.62 917.865,1085.62 920.026,1085.62 922.187,1085.62 924.348,1085.62 926.509,1085.62 928.669,1085.62 930.83,1085.62 932.991,1085.62 935.152,1085.62 937.313,1085.62 939.474,1085.62 941.635,1085.62 943.796,1085.62 945.957,1085.62 948.118,1085.62 950.279,1085.62 952.44,1085.62 954.601,1085.62 956.762,1085.62 958.923,1085.62 961.084,1085.62 963.245,1085.62 965.406,1085.62 967.567,1085.62 969.728,1085.62 971.889,1085.62 974.05,1085.62 976.211,1085.62 978.372,1085.62 980.533,1085.62 982.694,1085.62 984.855,1085.62 987.016,1085.62 989.177,1085.62 991.338,1085.62 993.499,1085.62 995.66,1085.62 997.821,1085.62 999.982,1085.62 1002.14,1085.62 1004.3,1085.62 1006.46,1085.62 1008.63,1085.62 1010.79,1085.62 1012.95,1085.62 1015.11,1085.62 1017.27,1085.62 1019.43,1085.62 1021.59,1085.62 1023.75,1085.62 1025.91,1085.62 1028.07,1085.62 1030.24,1085.62 1032.4,1085.62 1034.56,1085.62 1036.72,1085.62 1038.88,1085.62 1041.04,1085.62 1043.2,1085.62 1045.36,1085.62 1047.52,1085.62 1049.68,1085.62 1051.85,1085.62 1054.01,1085.62 1056.17,1085.62 1058.33,989.372 1060.49,989.372 1062.65,989.372 1064.81,989.372 1066.97,989.372 1069.13,989.372 1071.29,989.372 1073.46,989.372 1075.62,989.372 1077.78,989.372 1079.94,989.372 1082.1,989.372 1084.26,989.372 1086.42,989.372 1088.58,989.372 1090.74,989.372 1092.9,989.372 1095.07,989.372 1097.23,989.372 1099.39,989.372 1101.55,989.372 1103.71,989.372 1105.87,989.372 1108.03,989.372 1110.19,989.372 1112.35,989.372 1114.51,989.372 1116.67,989.372 1118.84,989.372 1121,989.372 1123.16,989.372 1125.32,989.372 1127.48,989.372 1129.64,989.372 1131.8,989.372 1133.96,989.372 1136.12,989.372 1138.28,989.372 1140.45,989.372 1142.61,989.372 1144.77,989.372 1146.93,989.372 1149.09,989.372 1151.25,989.372 1153.41,989.372 1155.57,989.372 1157.73,989.372 1159.89,989.372 1162.06,989.372 1164.22,989.372 1166.38,989.372 1168.54,989.372 1170.7,989.372 1172.86,989.372 1175.02,989.372 1177.18,989.372 1179.34,989.372 1181.5,989.372 1183.67,989.372 1185.83,989.372 1187.99,989.372 1190.15,989.372 1192.31,989.372 1194.47,989.372 1196.63,989.372 1198.79,989.372 1200.95,989.372 1203.11,989.372 1205.28,989.372 1207.44,989.372 1209.6,989.372 1211.76,989.372 1213.92,989.372 1216.08,989.372 1218.24,989.372 1220.4,989.372 1222.56,989.372 1224.72,989.372 1226.88,989.372 1229.05,989.372 1231.21,989.372 1233.37,989.372 1235.53,989.372 1237.69,989.372 1239.85,989.372 1242.01,989.372 1244.17,989.372 1246.33,989.372 1248.49,989.372 1250.66,989.372 1252.82,989.372 1254.98,989.372 1257.14,989.372 1259.3,989.372 1261.46,989.372 1263.62,989.372 1265.78,989.372 1267.94,989.372 1270.1,989.372 1272.27,989.372 1274.43,844.4 1276.59,844.4 1278.75,844.4 1280.91,844.4 1283.07,844.4 1285.23,844.4 1287.39,844.4 1289.55,844.4 1291.71,844.4 1293.88,844.4 1296.04,844.4 1298.2,844.4 1300.36,844.4 1302.52,844.4 1304.68,844.4 1306.84,844.4 1309,844.4 1311.16,844.4 1313.32,844.4 1315.49,844.4 1317.65,844.4 1319.81,844.4 1321.97,844.4 1324.13,844.4 1326.29,844.4 1328.45,844.4 1330.61,844.4 1332.77,844.4 1334.93,844.4 1337.09,844.4 1339.26,844.4 1341.42,844.4 1343.58,844.4 1345.74,844.4 1347.9,844.4 1350.06,844.4 1352.22,844.4 1354.38,844.4 1356.54,844.4 1358.7,844.4 1360.87,844.4 1363.03,844.4 1365.19,844.4 1367.35,844.4 1369.51,844.4 1371.67,844.4 1373.83,844.4 1375.99,844.4 1378.15,844.4 1380.31,844.4 1382.48,844.4 1384.64,844.4 1386.8,844.4 1388.96,844.4 1391.12,844.4 1393.28,844.4 1395.44,844.4 1397.6,844.4 1399.76,844.4 1401.92,844.4 1404.09,844.4 1406.25,844.4 1408.41,844.4 1410.57,844.4 1412.73,844.4 1414.89,844.4 1417.05,844.4 1419.21,844.4 1421.37,844.4 1423.53,844.4 1425.7,844.4 1427.86,844.4 1430.02,844.4 1432.18,844.4 1434.34,844.4 1436.5,844.4 1438.66,844.4 1440.82,844.4 1442.98,844.4 1445.14,844.4 1447.3,844.4 1449.47,844.4 1451.63,844.4 1453.79,844.4 1455.95,844.4 1458.11,844.4 1460.27,844.4 1462.43,844.4 1464.59,844.4 1466.75,844.4 1468.91,844.4 1471.08,844.4 1473.24,844.4 1475.4,844.4 1477.56,844.4 1479.72,844.4 1481.88,844.4 1484.04,844.4 1486.2,844.4 1488.36,844.4 1490.52,500.093 1492.69,500.093 1494.85,500.093 1497.01,500.093 1499.17,500.093 1501.33,500.093 1503.49,500.093 1505.65,500.093 1507.81,500.093 1509.97,500.093 1512.13,500.093 1514.3,500.093 1516.46,500.093 1518.62,500.093 1520.78,500.093 1522.94,500.093 1525.1,500.093 1527.26,500.093 1529.42,500.093 1531.58,500.093 1533.74,500.093 1535.91,500.093 1538.07,500.093 1540.23,500.093 1542.39,500.093 1544.55,500.093 1546.71,500.093 1548.87,500.093 1551.03,500.093 1553.19,500.093 1555.35,500.093 1557.51,500.093 1559.68,500.093 1561.84,500.093 1564,500.093 1566.16,500.093 1568.32,500.093 1570.48,500.093 1572.64,500.093 1574.8,500.093 1576.96,500.093 1579.12,500.093 1581.29,500.093 1583.45,500.093 1585.61,500.093 1587.77,500.093 1589.93,500.093 1592.09,500.093 1594.25,500.093 1596.41,500.093 1598.57,500.093 1600.73,500.093 1602.9,500.093 1605.06,500.093 1607.22,500.093 1609.38,500.093 1611.54,500.093 1613.7,500.093 1615.86,500.093 1618.02,500.093 1620.18,500.093 1622.34,500.093 1624.51,500.093 1626.67,500.093 1628.83,500.093 1630.99,500.093 1633.15,500.093 1635.31,500.093 1637.47,500.093 1639.63,500.093 1641.79,500.093 1643.95,500.093 1646.12,500.093 1648.28,500.093 1650.44,500.093 1652.6,500.093 1654.76,500.093 1656.92,500.093 1659.08,500.093 1661.24,500.093 1663.4,500.093 1665.56,500.093 1667.72,500.093 1669.89,500.093 1672.05,500.093 1674.21,500.093 1676.37,500.093 1678.53,500.093 1680.69,500.093 1682.85,500.093 1685.01,500.093 1687.17,500.093 1689.33,500.093 1691.5,500.093 1693.66,500.093 1695.82,500.093 1697.98,500.093 1700.14,500.093 1702.3,500.093 1704.46,500.093 1706.62,291.5 1708.78,291.5 1710.94,291.5 1713.11,291.5 1715.27,291.5 1717.43,291.5 1719.59,291.5 1721.75,291.5 1723.91,291.5 1726.07,291.5 1728.23,291.5 1730.39,291.5 1732.55,291.5 1734.72,291.5 1736.88,291.5 1739.04,291.5 1741.2,291.5 1743.36,291.5 1745.52,291.5 1747.68,291.5 1749.84,291.5 1752,291.5 1754.16,291.5 1756.33,291.5 1758.49,291.5 1760.65,291.5 1762.81,291.5 1764.97,291.5 1767.13,291.5 1769.29,291.5 1771.45,291.5 1773.61,291.5 1775.77,291.5 1777.93,291.5 1780.1,291.5 1782.26,291.5 1784.42,291.5 1786.58,291.5 1788.74,291.5 1790.9,291.5 1793.06,291.5 1795.22,291.5 1797.38,291.5 1799.54,291.5 1801.71,291.5 1803.87,291.5 1806.03,291.5 1808.19,291.5 1810.35,291.5 1812.51,291.5 1814.67,291.5 1816.83,291.5 1818.99,291.5 1821.15,291.5 1823.32,291.5 1825.48,291.5 1827.64,291.5 1829.8,291.5 1831.96,291.5 1834.12,291.5 1836.28,291.5 1838.44,291.5 1840.6,291.5 1842.76,291.5 1844.93,291.5 1847.09,291.5 1849.25,291.5 1851.41,291.5 1853.57,291.5 1855.73,291.5 1857.89,291.5 1860.05,291.5 1862.21,291.5 1864.37,291.5 1866.54,291.5 1868.7,291.5 1870.86,291.5 1873.02,291.5 1875.18,291.5 1877.34,291.5 1879.5,291.5 1881.66,291.5 1883.82,291.5 1885.98,291.5 1888.15,291.5 1890.31,291.5 1892.47,291.5 1894.63,291.5 1896.79,291.5 1898.95,291.5 1901.11,291.5 1903.27,291.5 1905.43,291.5 1907.59,291.5 1909.75,291.5 1911.92,291.5 1914.08,291.5 1916.24,291.5 1918.4,291.5 1920.56,291.5 1922.72,86.1857 1924.88,86.1857 1927.04,86.1857 1929.2,86.1857 1931.36,86.1857 1933.53,86.1857 1935.69,86.1857 1937.85,86.1857 1940.01,86.1857 1942.17,86.1857 1944.33,86.1857 1946.49,86.1857 1948.65,86.1857 1950.81,86.1857 1952.97,86.1857 1955.14,86.1857 1957.3,86.1857 1959.46,86.1857 1961.62,86.1857 1963.78,86.1857 1965.94,86.1857 1968.1,86.1857 1970.26,86.1857 1972.42,86.1857 1974.58,86.1857 1976.75,86.1857 1978.91,86.1857 1981.07,86.1857 1983.23,86.1857 1985.39,86.1857 1987.55,86.1857 1989.71,86.1857 1991.87,86.1857 1994.03,86.1857 1996.19,86.1857 1998.36,86.1857 2000.52,86.1857 2002.68,86.1857 2004.84,86.1857 2007,86.1857 2009.16,86.1857 2011.32,86.1857 2013.48,86.1857 2015.64,86.1857 2017.8,86.1857 2019.96,86.1857 2022.13,86.1857 2024.29,86.1857 2026.45,86.1857 2028.61,86.1857 2030.77,86.1857 2032.93,86.1857 2035.09,86.1857 2037.25,86.1857 2039.41,86.1857 2041.57,86.1857 2043.74,86.1857 2045.9,86.1857 2048.06,86.1857 2050.22,86.1857 2052.38,86.1857 2054.54,86.1857 2056.7,86.1857 2058.86,86.1857 2061.02,86.1857 2063.18,86.1857 2065.35,86.1857 2067.51,86.1857 2069.67,86.1857 2071.83,86.1857 2073.99,86.1857 2076.15,86.1857 2078.31,86.1857 2080.47,86.1857 2082.63,86.1857 2084.79,86.1857 2086.96,86.1857 2089.12,86.1857 2091.28,86.1857 2093.44,86.1857 2095.6,86.1857 2097.76,86.1857 2099.92,86.1857 2102.08,86.1857 2104.24,86.1857 2106.4,86.1857 2108.57,86.1857 2110.73,86.1857 2112.89,86.1857 2115.05,86.1857 2117.21,86.1857 2119.37,86.1857 2121.53,86.1857 2123.69,86.1857 2125.85,86.1857 2128.01,86.1857 2130.17,86.1857 2132.34,86.1857 2134.5,86.1857 2136.66,86.1857 2138.82,337.179 2140.98,337.179 2143.14,337.179 2145.3,337.179 2147.46,337.179 2149.62,337.179 2151.78,337.179 2153.95,337.179 2156.11,337.179 2158.27,337.179 2160.43,337.179 2162.59,337.179 2164.75,337.179 2166.91,337.179 2169.07,337.179 2171.23,337.179 2173.39,337.179 2175.56,337.179 2177.72,337.179 2179.88,337.179 2182.04,337.179 2184.2,337.179 2186.36,337.179 2188.52,337.179 2190.68,337.179 2192.84,337.179 2195,337.179 2197.17,337.179 2199.33,337.179 2201.49,337.179 2203.65,337.179 2205.81,337.179 2207.97,337.179 2210.13,337.179 2212.29,337.179 2214.45,337.179 2216.61,337.179 2218.78,337.179 2220.94,337.179 2223.1,337.179 2225.26,337.179 2227.42,337.179 2229.58,337.179 2231.74,337.179 2233.9,337.179 2236.06,337.179 2238.22,337.179 2240.38,337.179 2242.55,337.179 2244.71,337.179 2246.87,337.179 2249.03,337.179 2251.19,337.179 2253.35,337.179 2255.51,337.179 2257.67,337.179 2259.83,337.179 2261.99,337.179 2264.16,337.179 2266.32,337.179 2268.48,337.179 2270.64,337.179 2272.8,337.179 2274.96,337.179 2277.12,337.179 2279.28,337.179 2281.44,337.179 2283.6,337.179 2285.77,337.179 2287.93,337.179 2290.09,337.179 2292.25,337.179 2294.41,337.179 2296.57,337.179 2298.73,337.179 2300.89,337.179 2303.05,337.179 2305.21,337.179 2307.38,337.179 2309.54,337.179 2311.7,337.179 2313.86,337.179 2316.02,337.179 2318.18,337.179 2320.34,337.179 2322.5,337.179 2324.66,337.179 2326.82,337.179 2328.99,337.179 2331.15,337.179 2333.31,337.179 2335.47,337.179 2337.63,337.179 2339.79,337.179 2341.95,337.179 2344.11,337.179 2346.27,337.179 2348.43,337.179 2350.59,337.179 2352.76,337.179 "/>
<path clip-path="url(#clip750)" d="M2039.77 1377.32 L2280.8 1377.32 L2280.8 1221.8 L2039.77 1221.8  Z" fill="#ffffff" fill-rule="evenodd" fill-opacity="1"/>
<polyline clip-path="url(#clip750)" style="stroke:#000000; stroke-linecap:round; stroke-linejoin:round; stroke-width:4; stroke-opacity:1; fill:none" points="2039.77,1377.32 2280.8,1377.32 2280.8,1221.8 2039.77,1221.8 2039.77,1377.32 "/>
<polyline clip-path="url(#clip750)" style="stroke:#009af9; stroke-linecap:round; stroke-linejoin:round; stroke-width:4; stroke-opacity:1; fill:none" points="2063.76,1273.64 2207.68,1273.64 "/>
<path clip-path="url(#clip750)" d="M2256.32 1264.99 L2246.95 1277.61 L2256.81 1290.92 L2251.79 1290.92 L2244.24 1280.73 L2236.69 1290.92 L2231.67 1290.92 L2241.74 1277.35 L2232.53 1264.99 L2237.55 1264.99 L2244.42 1274.23 L2251.3 1264.99 L2256.32 1264.99 Z" fill="#000000" fill-rule="nonzero" fill-opacity="1" /><polyline clip-path="url(#clip750)" style="stroke:#e26f46; stroke-linecap:round; stroke-linejoin:round; stroke-width:4; stroke-opacity:1; fill:none" points="2063.76,1325.48 2207.68,1325.48 "/>
<path clip-path="url(#clip750)" d="M2248.17 1306.74 L2248.17 1310.28 L2244.1 1310.28 Q2241.81 1310.28 2240.91 1311.2 Q2240.03 1312.13 2240.03 1314.54 L2240.03 1316.83 L2247.04 1316.83 L2247.04 1320.14 L2240.03 1320.14 L2240.03 1342.76 L2235.74 1342.76 L2235.74 1320.14 L2231.67 1320.14 L2231.67 1316.83 L2235.74 1316.83 L2235.74 1315.02 Q2235.74 1310.7 2237.76 1308.73 Q2239.77 1306.74 2244.15 1306.74 L2248.17 1306.74 Z" fill="#000000" fill-rule="nonzero" fill-opacity="1" /></svg>
