<?xml version="1.0" encoding="utf-8"?>
<svg xmlns="http://www.w3.org/2000/svg" xmlns:xlink="http://www.w3.org/1999/xlink" width="600" height="400" viewBox="0 0 2400 1600">
<defs>
  <clipPath id="clip990">
    <rect x="0" y="0" width="2400" height="1600"/>
  </clipPath>
</defs>
<path clip-path="url(#clip990)" d="M0 1600 L2400 1600 L2400 0 L0 0  Z" fill="#ffffff" fill-rule="evenodd" fill-opacity="1"/>
<defs>
  <clipPath id="clip991">
    <rect x="192" y="47" width="2161" height="1377"/>
  </clipPath>
</defs>
<path clip-path="url(#clip990)" d="M192.941 1423.18 L2352.76 1423.18 L2352.76 47.2441 L192.941 47.2441  Z" fill="#ffffff" fill-rule="evenodd" fill-opacity="1"/>
<polyline clip-path="url(#clip991)" style="stroke:#000000; stroke-linecap:round; stroke-linejoin:round; stroke-width:2; stroke-opacity:0.1; fill:none" points="192.941,1423.18 192.941,47.2441 "/>
<polyline clip-path="url(#clip991)" style="stroke:#000000; stroke-linecap:round; stroke-linejoin:round; stroke-width:2; stroke-opacity:0.1; fill:none" points="624.904,1423.18 624.904,47.2441 "/>
<polyline clip-path="url(#clip991)" style="stroke:#000000; stroke-linecap:round; stroke-linejoin:round; stroke-width:2; stroke-opacity:0.1; fill:none" points="1056.87,1423.18 1056.87,47.2441 "/>
<polyline clip-path="url(#clip991)" style="stroke:#000000; stroke-linecap:round; stroke-linejoin:round; stroke-width:2; stroke-opacity:0.1; fill:none" points="1488.83,1423.18 1488.83,47.2441 "/>
<polyline clip-path="url(#clip991)" style="stroke:#000000; stroke-linecap:round; stroke-linejoin:round; stroke-width:2; stroke-opacity:0.1; fill:none" points="1920.79,1423.18 1920.79,47.2441 "/>
<polyline clip-path="url(#clip991)" style="stroke:#000000; stroke-linecap:round; stroke-linejoin:round; stroke-width:2; stroke-opacity:0.1; fill:none" points="2352.76,1423.18 2352.76,47.2441 "/>
<polyline clip-path="url(#clip991)" style="stroke:#000000; stroke-linecap:round; stroke-linejoin:round; stroke-width:2; stroke-opacity:0.1; fill:none" points="192.941,1417 2352.76,1417 "/>
<polyline clip-path="url(#clip991)" style="stroke:#000000; stroke-linecap:round; stroke-linejoin:round; stroke-width:2; stroke-opacity:0.1; fill:none" points="192.941,1058.13 2352.76,1058.13 "/>
<polyline clip-path="url(#clip991)" style="stroke:#000000; stroke-linecap:round; stroke-linejoin:round; stroke-width:2; stroke-opacity:0.1; fill:none" points="192.941,699.268 2352.76,699.268 "/>
<polyline clip-path="url(#clip991)" style="stroke:#000000; stroke-linecap:round; stroke-linejoin:round; stroke-width:2; stroke-opacity:0.1; fill:none" points="192.941,340.404 2352.76,340.404 "/>
<polyline clip-path="url(#clip990)" style="stroke:#000000; stroke-linecap:round; stroke-linejoin:round; stroke-width:4; stroke-opacity:1; fill:none" points="192.941,1423.18 2352.76,1423.18 "/>
<polyline clip-path="url(#clip990)" style="stroke:#000000; stroke-linecap:round; stroke-linejoin:round; stroke-width:4; stroke-opacity:1; fill:none" points="192.941,1423.18 192.941,1404.28 "/>
<polyline clip-path="url(#clip990)" style="stroke:#000000; stroke-linecap:round; stroke-linejoin:round; stroke-width:4; stroke-opacity:1; fill:none" points="624.904,1423.18 624.904,1404.28 "/>
<polyline clip-path="url(#clip990)" style="stroke:#000000; stroke-linecap:round; stroke-linejoin:round; stroke-width:4; stroke-opacity:1; fill:none" points="1056.87,1423.18 1056.87,1404.28 "/>
<polyline clip-path="url(#clip990)" style="stroke:#000000; stroke-linecap:round; stroke-linejoin:round; stroke-width:4; stroke-opacity:1; fill:none" points="1488.83,1423.18 1488.83,1404.28 "/>
<polyline clip-path="url(#clip990)" style="stroke:#000000; stroke-linecap:round; stroke-linejoin:round; stroke-width:4; stroke-opacity:1; fill:none" points="1920.79,1423.18 1920.79,1404.28 "/>
<polyline clip-path="url(#clip990)" style="stroke:#000000; stroke-linecap:round; stroke-linejoin:round; stroke-width:4; stroke-opacity:1; fill:none" points="2352.76,1423.18 2352.76,1404.28 "/>
<path clip-path="url(#clip990)" d="M192.941 1454.1 Q189.33 1454.1 187.501 1457.66 Q185.695 1461.2 185.695 1468.33 Q185.695 1475.44 187.501 1479.01 Q189.33 1482.55 192.941 1482.55 Q196.575 1482.55 198.38 1479.01 Q200.209 1475.44 200.209 1468.33 Q200.209 1461.2 198.38 1457.66 Q196.575 1454.1 192.941 1454.1 M192.941 1450.39 Q198.751 1450.39 201.806 1455 Q204.885 1459.58 204.885 1468.33 Q204.885 1477.06 201.806 1481.67 Q198.751 1486.25 192.941 1486.25 Q187.13 1486.25 184.052 1481.67 Q180.996 1477.06 180.996 1468.33 Q180.996 1459.58 184.052 1455 Q187.13 1450.39 192.941 1450.39 Z" fill="#000000" fill-rule="nonzero" fill-opacity="1" /><path clip-path="url(#clip990)" d="M619.556 1481.64 L635.876 1481.64 L635.876 1485.58 L613.932 1485.58 L613.932 1481.64 Q616.594 1478.89 621.177 1474.26 Q625.783 1469.61 626.964 1468.27 Q629.209 1465.74 630.089 1464.01 Q630.992 1462.25 630.992 1460.56 Q630.992 1457.8 629.047 1456.07 Q627.126 1454.33 624.024 1454.33 Q621.825 1454.33 619.371 1455.09 Q616.941 1455.86 614.163 1457.41 L614.163 1452.69 Q616.987 1451.55 619.441 1450.97 Q621.894 1450.39 623.931 1450.39 Q629.302 1450.39 632.496 1453.08 Q635.691 1455.77 635.691 1460.26 Q635.691 1462.39 634.88 1464.31 Q634.093 1466.2 631.987 1468.8 Q631.408 1469.47 628.306 1472.69 Q625.205 1475.88 619.556 1481.64 Z" fill="#000000" fill-rule="nonzero" fill-opacity="1" /><path clip-path="url(#clip990)" d="M1059.88 1455.09 L1048.07 1473.54 L1059.88 1473.54 L1059.88 1455.09 M1058.65 1451.02 L1064.53 1451.02 L1064.53 1473.54 L1069.46 1473.54 L1069.46 1477.43 L1064.53 1477.43 L1064.53 1485.58 L1059.88 1485.58 L1059.88 1477.43 L1044.27 1477.43 L1044.27 1472.92 L1058.65 1451.02 Z" fill="#000000" fill-rule="nonzero" fill-opacity="1" /><path clip-path="url(#clip990)" d="M1489.23 1466.44 Q1486.09 1466.44 1484.23 1468.59 Q1482.41 1470.74 1482.41 1474.49 Q1482.41 1478.22 1484.23 1480.39 Q1486.09 1482.55 1489.23 1482.55 Q1492.38 1482.55 1494.21 1480.39 Q1496.06 1478.22 1496.06 1474.49 Q1496.06 1470.74 1494.21 1468.59 Q1492.38 1466.44 1489.23 1466.44 M1498.52 1451.78 L1498.52 1456.04 Q1496.76 1455.21 1494.95 1454.77 Q1493.17 1454.33 1491.41 1454.33 Q1486.78 1454.33 1484.33 1457.45 Q1481.9 1460.58 1481.55 1466.9 Q1482.92 1464.89 1484.98 1463.82 Q1487.04 1462.73 1489.51 1462.73 Q1494.72 1462.73 1497.73 1465.9 Q1500.76 1469.05 1500.76 1474.49 Q1500.76 1479.82 1497.61 1483.03 Q1494.47 1486.25 1489.23 1486.25 Q1483.24 1486.25 1480.07 1481.67 Q1476.9 1477.06 1476.9 1468.33 Q1476.9 1460.14 1480.79 1455.28 Q1484.67 1450.39 1491.23 1450.39 Q1492.98 1450.39 1494.77 1450.74 Q1496.57 1451.09 1498.52 1451.78 Z" fill="#000000" fill-rule="nonzero" fill-opacity="1" /><path clip-path="url(#clip990)" d="M1920.79 1469.17 Q1917.46 1469.17 1915.54 1470.95 Q1913.64 1472.73 1913.64 1475.86 Q1913.64 1478.98 1915.54 1480.77 Q1917.46 1482.55 1920.79 1482.55 Q1924.13 1482.55 1926.05 1480.77 Q1927.97 1478.96 1927.97 1475.86 Q1927.97 1472.73 1926.05 1470.95 Q1924.15 1469.17 1920.79 1469.17 M1916.12 1467.18 Q1913.11 1466.44 1911.42 1464.38 Q1909.75 1462.32 1909.75 1459.35 Q1909.75 1455.21 1912.69 1452.8 Q1915.65 1450.39 1920.79 1450.39 Q1925.95 1450.39 1928.89 1452.8 Q1931.83 1455.21 1931.83 1459.35 Q1931.83 1462.32 1930.14 1464.38 Q1928.48 1466.44 1925.49 1467.18 Q1928.87 1467.96 1930.75 1470.26 Q1932.64 1472.55 1932.64 1475.86 Q1932.64 1480.88 1929.57 1483.57 Q1926.51 1486.25 1920.79 1486.25 Q1915.08 1486.25 1912 1483.57 Q1908.94 1480.88 1908.94 1475.86 Q1908.94 1472.55 1910.84 1470.26 Q1912.74 1467.96 1916.12 1467.18 M1914.4 1459.79 Q1914.4 1462.48 1916.07 1463.98 Q1917.76 1465.49 1920.79 1465.49 Q1923.8 1465.49 1925.49 1463.98 Q1927.2 1462.48 1927.2 1459.79 Q1927.2 1457.11 1925.49 1455.6 Q1923.8 1454.1 1920.79 1454.1 Q1917.76 1454.1 1916.07 1455.6 Q1914.4 1457.11 1914.4 1459.79 Z" fill="#000000" fill-rule="nonzero" fill-opacity="1" /><path clip-path="url(#clip990)" d="M2327.44 1481.64 L2335.08 1481.64 L2335.08 1455.28 L2326.77 1456.95 L2326.77 1452.69 L2335.04 1451.02 L2339.71 1451.02 L2339.71 1481.64 L2347.35 1481.64 L2347.35 1485.58 L2327.44 1485.58 L2327.44 1481.64 Z" fill="#000000" fill-rule="nonzero" fill-opacity="1" /><path clip-path="url(#clip990)" d="M2366.8 1454.1 Q2363.18 1454.1 2361.36 1457.66 Q2359.55 1461.2 2359.55 1468.33 Q2359.55 1475.44 2361.36 1479.01 Q2363.18 1482.55 2366.8 1482.55 Q2370.43 1482.55 2372.23 1479.01 Q2374.06 1475.44 2374.06 1468.33 Q2374.06 1461.2 2372.23 1457.66 Q2370.43 1454.1 2366.8 1454.1 M2366.8 1450.39 Q2372.61 1450.39 2375.66 1455 Q2378.74 1459.58 2378.74 1468.33 Q2378.74 1477.06 2375.66 1481.67 Q2372.61 1486.25 2366.8 1486.25 Q2360.99 1486.25 2357.91 1481.67 Q2354.85 1477.06 2354.85 1468.33 Q2354.85 1459.58 2357.91 1455 Q2360.99 1450.39 2366.8 1450.39 Z" fill="#000000" fill-rule="nonzero" fill-opacity="1" /><path clip-path="url(#clip990)" d="M1271.91 1522.27 L1271.91 1532.4 L1283.97 1532.4 L1283.97 1536.95 L1271.91 1536.95 L1271.91 1556.3 Q1271.91 1560.66 1273.09 1561.9 Q1274.3 1563.14 1277.96 1563.14 L1283.97 1563.14 L1283.97 1568.04 L1277.96 1568.04 Q1271.18 1568.04 1268.6 1565.53 Q1266.02 1562.98 1266.02 1556.3 L1266.02 1536.95 L1261.72 1536.95 L1261.72 1532.4 L1266.02 1532.4 L1266.02 1522.27 L1271.91 1522.27 Z" fill="#000000" fill-rule="nonzero" fill-opacity="1" /><polyline clip-path="url(#clip990)" style="stroke:#000000; stroke-linecap:round; stroke-linejoin:round; stroke-width:4; stroke-opacity:1; fill:none" points="192.941,1423.18 192.941,47.2441 "/>
<polyline clip-path="url(#clip990)" style="stroke:#000000; stroke-linecap:round; stroke-linejoin:round; stroke-width:4; stroke-opacity:1; fill:none" points="192.941,1417 211.838,1417 "/>
<polyline clip-path="url(#clip990)" style="stroke:#000000; stroke-linecap:round; stroke-linejoin:round; stroke-width:4; stroke-opacity:1; fill:none" points="192.941,1058.13 211.838,1058.13 "/>
<polyline clip-path="url(#clip990)" style="stroke:#000000; stroke-linecap:round; stroke-linejoin:round; stroke-width:4; stroke-opacity:1; fill:none" points="192.941,699.268 211.838,699.268 "/>
<polyline clip-path="url(#clip990)" style="stroke:#000000; stroke-linecap:round; stroke-linejoin:round; stroke-width:4; stroke-opacity:1; fill:none" points="192.941,340.404 211.838,340.404 "/>
<path clip-path="url(#clip990)" d="M50.9921 1417.45 L80.6679 1417.45 L80.6679 1421.38 L50.9921 1421.38 L50.9921 1417.45 Z" fill="#000000" fill-rule="nonzero" fill-opacity="1" /><path clip-path="url(#clip990)" d="M100.76 1402.79 Q97.1493 1402.79 95.3206 1406.36 Q93.515 1409.9 93.515 1417.03 Q93.515 1424.14 95.3206 1427.7 Q97.1493 1431.24 100.76 1431.24 Q104.395 1431.24 106.2 1427.7 Q108.029 1424.14 108.029 1417.03 Q108.029 1409.9 106.2 1406.36 Q104.395 1402.79 100.76 1402.79 M100.76 1399.09 Q106.571 1399.09 109.626 1403.7 Q112.705 1408.28 112.705 1417.03 Q112.705 1425.76 109.626 1430.36 Q106.571 1434.95 100.76 1434.95 Q94.9502 1434.95 91.8715 1430.36 Q88.816 1425.76 88.816 1417.03 Q88.816 1408.28 91.8715 1403.7 Q94.9502 1399.09 100.76 1399.09 Z" fill="#000000" fill-rule="nonzero" fill-opacity="1" /><path clip-path="url(#clip990)" d="M120.922 1428.4 L125.807 1428.4 L125.807 1434.28 L120.922 1434.28 L120.922 1428.4 Z" fill="#000000" fill-rule="nonzero" fill-opacity="1" /><path clip-path="url(#clip990)" d="M136.038 1399.72 L154.394 1399.72 L154.394 1403.65 L140.32 1403.65 L140.32 1412.12 Q141.339 1411.78 142.357 1411.61 Q143.376 1411.43 144.394 1411.43 Q150.181 1411.43 153.561 1414.6 Q156.941 1417.77 156.941 1423.19 Q156.941 1428.77 153.468 1431.87 Q149.996 1434.95 143.677 1434.95 Q141.501 1434.95 139.232 1434.58 Q136.987 1434.21 134.58 1433.47 L134.58 1428.77 Q136.663 1429.9 138.885 1430.46 Q141.107 1431.01 143.584 1431.01 Q147.589 1431.01 149.927 1428.91 Q152.265 1426.8 152.265 1423.19 Q152.265 1419.58 149.927 1417.47 Q147.589 1415.36 143.584 1415.36 Q141.709 1415.36 139.834 1415.78 Q137.982 1416.2 136.038 1417.08 L136.038 1399.72 Z" fill="#000000" fill-rule="nonzero" fill-opacity="1" /><path clip-path="url(#clip990)" d="M99.765 1043.93 Q96.1539 1043.93 94.3252 1047.5 Q92.5197 1051.04 92.5197 1058.17 Q92.5197 1065.27 94.3252 1068.84 Q96.1539 1072.38 99.765 1072.38 Q103.399 1072.38 105.205 1068.84 Q107.033 1065.27 107.033 1058.17 Q107.033 1051.04 105.205 1047.5 Q103.399 1043.93 99.765 1043.93 M99.765 1040.23 Q105.575 1040.23 108.631 1044.83 Q111.709 1049.42 111.709 1058.17 Q111.709 1066.89 108.631 1071.5 Q105.575 1076.08 99.765 1076.08 Q93.9549 1076.08 90.8762 1071.5 Q87.8206 1066.89 87.8206 1058.17 Q87.8206 1049.42 90.8762 1044.83 Q93.9549 1040.23 99.765 1040.23 Z" fill="#000000" fill-rule="nonzero" fill-opacity="1" /><path clip-path="url(#clip990)" d="M119.927 1069.53 L124.811 1069.53 L124.811 1075.41 L119.927 1075.41 L119.927 1069.53 Z" fill="#000000" fill-rule="nonzero" fill-opacity="1" /><path clip-path="url(#clip990)" d="M144.996 1043.93 Q141.385 1043.93 139.556 1047.5 Q137.751 1051.04 137.751 1058.17 Q137.751 1065.27 139.556 1068.84 Q141.385 1072.38 144.996 1072.38 Q148.63 1072.38 150.436 1068.84 Q152.265 1065.27 152.265 1058.17 Q152.265 1051.04 150.436 1047.5 Q148.63 1043.93 144.996 1043.93 M144.996 1040.23 Q150.806 1040.23 153.862 1044.83 Q156.941 1049.42 156.941 1058.17 Q156.941 1066.89 153.862 1071.5 Q150.806 1076.08 144.996 1076.08 Q139.186 1076.08 136.107 1071.5 Q133.052 1066.89 133.052 1058.17 Q133.052 1049.42 136.107 1044.83 Q139.186 1040.23 144.996 1040.23 Z" fill="#000000" fill-rule="nonzero" fill-opacity="1" /><path clip-path="url(#clip990)" d="M100.76 685.067 Q97.1493 685.067 95.3206 688.631 Q93.515 692.173 93.515 699.303 Q93.515 706.409 95.3206 709.974 Q97.1493 713.516 100.76 713.516 Q104.395 713.516 106.2 709.974 Q108.029 706.409 108.029 699.303 Q108.029 692.173 106.2 688.631 Q104.395 685.067 100.76 685.067 M100.76 681.363 Q106.571 681.363 109.626 685.969 Q112.705 690.553 112.705 699.303 Q112.705 708.03 109.626 712.636 Q106.571 717.219 100.76 717.219 Q94.9502 717.219 91.8715 712.636 Q88.816 708.03 88.816 699.303 Q88.816 690.553 91.8715 685.969 Q94.9502 681.363 100.76 681.363 Z" fill="#000000" fill-rule="nonzero" fill-opacity="1" /><path clip-path="url(#clip990)" d="M120.922 710.668 L125.807 710.668 L125.807 716.548 L120.922 716.548 L120.922 710.668 Z" fill="#000000" fill-rule="nonzero" fill-opacity="1" /><path clip-path="url(#clip990)" d="M136.038 681.988 L154.394 681.988 L154.394 685.923 L140.32 685.923 L140.32 694.395 Q141.339 694.048 142.357 693.886 Q143.376 693.701 144.394 693.701 Q150.181 693.701 153.561 696.872 Q156.941 700.043 156.941 705.46 Q156.941 711.039 153.468 714.141 Q149.996 717.219 143.677 717.219 Q141.501 717.219 139.232 716.849 Q136.987 716.479 134.58 715.738 L134.58 711.039 Q136.663 712.173 138.885 712.729 Q141.107 713.284 143.584 713.284 Q147.589 713.284 149.927 711.178 Q152.265 709.071 152.265 705.46 Q152.265 701.849 149.927 699.743 Q147.589 697.636 143.584 697.636 Q141.709 697.636 139.834 698.053 Q137.982 698.469 136.038 699.349 L136.038 681.988 Z" fill="#000000" fill-rule="nonzero" fill-opacity="1" /><path clip-path="url(#clip990)" d="M90.5752 353.749 L98.2141 353.749 L98.2141 327.383 L89.904 329.05 L89.904 324.791 L98.1678 323.124 L102.844 323.124 L102.844 353.749 L110.483 353.749 L110.483 357.684 L90.5752 357.684 L90.5752 353.749 Z" fill="#000000" fill-rule="nonzero" fill-opacity="1" /><path clip-path="url(#clip990)" d="M119.927 351.805 L124.811 351.805 L124.811 357.684 L119.927 357.684 L119.927 351.805 Z" fill="#000000" fill-rule="nonzero" fill-opacity="1" /><path clip-path="url(#clip990)" d="M144.996 326.203 Q141.385 326.203 139.556 329.768 Q137.751 333.309 137.751 340.439 Q137.751 347.545 139.556 351.11 Q141.385 354.652 144.996 354.652 Q148.63 354.652 150.436 351.11 Q152.265 347.545 152.265 340.439 Q152.265 333.309 150.436 329.768 Q148.63 326.203 144.996 326.203 M144.996 322.499 Q150.806 322.499 153.862 327.106 Q156.941 331.689 156.941 340.439 Q156.941 349.166 153.862 353.772 Q150.806 358.355 144.996 358.355 Q139.186 358.355 136.107 353.772 Q133.052 349.166 133.052 340.439 Q133.052 331.689 136.107 327.106 Q139.186 322.499 144.996 322.499 Z" fill="#000000" fill-rule="nonzero" fill-opacity="1" /><polyline clip-path="url(#clip991)" style="stroke:#009af9; stroke-linecap:round; stroke-linejoin:round; stroke-width:4; stroke-opacity:1; fill:none" points="192.941,1058.13 195.103,1059.46 197.265,1060.76 199.427,1062.05 201.589,1063.32 203.751,1064.58 205.912,1065.81 208.074,1067.04 210.236,1068.24 212.398,1069.43 214.56,1070.6 216.722,1071.76 218.884,1072.9 221.046,1074.03 223.208,1075.14 225.37,1076.24 227.532,1077.33 229.694,1078.39 231.856,1079.45 234.018,1080.49 236.18,1081.52 238.342,1082.53 240.504,1083.53 242.666,1084.52 244.828,1085.49 246.99,1086.45 249.152,1087.4 251.314,1088.33 253.476,1089.26 255.638,1090.17 257.8,1091.07 259.962,1091.95 262.124,1092.83 264.286,1093.69 266.448,1094.54 268.61,1095.38 270.772,1096.21 272.934,1097.03 275.096,1097.84 277.258,1098.64 279.42,1099.42 281.582,1100.2 283.744,1100.96 285.906,1101.72 288.068,1102.47 290.23,1103.2 292.392,1103.93 294.554,1104.64 296.716,1105.35 298.878,1106.05 301.039,1106.73 303.201,1107.41 305.363,1108.08 307.525,1108.75 309.687,1109.4 311.849,1110.04 314.011,1110.68 316.173,1111.3 318.335,1111.92 320.497,1112.53 322.659,1113.13 324.821,1113.73 326.983,1114.31 329.145,1114.89 331.307,1115.46 333.469,1116.03 335.631,1116.58 337.793,1117.13 339.955,1117.67 342.117,1118.21 344.279,1118.73 346.441,1119.25 348.603,1119.77 350.765,1120.27 352.927,1120.77 355.089,1121.26 357.251,1121.75 359.413,1122.23 361.575,1122.7 363.737,1123.17 365.899,1123.63 368.061,1124.09 370.223,1124.54 372.385,1124.98 374.547,1125.42 376.709,1125.85 378.871,1126.27 381.033,1126.69 383.195,1127.11 385.357,1127.52 387.519,1127.92 389.681,1128.32 391.843,1128.71 394.005,1129.1 396.166,1129.48 398.328,1129.86 400.49,1130.23 402.652,1130.6 404.814,1130.96 406.976,1131.46 409.138,1132.4 411.3,1133.73 413.462,1135.41 415.624,1137.4 417.786,1139.66 419.948,1142.15 422.11,1144.84 424.272,1147.68 426.434,1150.66 428.596,1153.73 430.758,1156.88 432.92,1160.08 435.082,1163.3 437.244,1166.52 439.406,1169.73 441.568,1172.91 443.73,1176.04 445.892,1179.12 448.054,1182.12 450.216,1185.06 452.378,1187.91 454.54,1190.68 456.702,1193.36 458.864,1195.96 461.026,1198.47 463.188,1200.91 465.35,1203.28 467.512,1205.59 469.674,1207.86 471.836,1210.09 473.998,1212.3 476.16,1214.51 478.322,1216.74 480.484,1218.96 482.646,1221.15 484.808,1223.31 486.97,1225.45 489.132,1227.55 491.293,1229.63 493.455,1231.68 495.617,1233.7 497.779,1235.7 499.941,1237.67 502.103,1239.61 504.265,1241.53 506.427,1243.42 508.589,1245.29 510.751,1247.13 512.913,1248.95 515.075,1250.74 517.237,1252.51 519.399,1254.26 521.561,1255.98 523.723,1257.68 525.885,1259.36 528.047,1261.02 530.209,1262.65 532.371,1264.26 534.533,1265.85 536.695,1267.42 538.857,1268.97 541.019,1270.5 543.181,1272.01 545.343,1273.5 547.505,1274.97 549.667,1276.41 551.829,1277.84 553.991,1279.25 556.153,1280.65 558.315,1282.02 560.477,1283.38 562.639,1284.71 564.801,1286.03 566.963,1287.33 569.125,1288.62 571.287,1289.89 573.449,1291.14 575.611,1292.37 577.773,1293.59 579.935,1294.79 582.097,1295.98 584.259,1297.15 586.42,1298.3 588.582,1299.44 590.744,1300.56 592.906,1301.67 595.068,1302.77 597.23,1303.85 599.392,1304.91 601.554,1305.96 603.716,1307 605.878,1308.02 608.04,1309.03 610.202,1310.03 612.364,1311.02 614.526,1312.05 616.688,1313.89 618.85,1315.78 621.012,1316.76 623.174,1316.22 625.336,1313.95 627.498,1310.08 629.66,1305.13 631.822,1299.99 633.984,1295.29 636.146,1290.65 638.308,1286.07 640.47,1281.55 642.632,1277.09 644.794,1272.7 646.956,1268.36 649.118,1264.07 651.28,1259.85 653.442,1255.68 655.604,1251.56 657.766,1247.5 659.928,1243.5 662.09,1239.54 664.252,1235.64 666.414,1231.79 668.576,1228 670.738,1224.25 672.9,1220.55 675.062,1216.9 677.224,1213.3 679.386,1209.75 681.547,1206.25 683.709,1202.79 685.871,1199.37 688.033,1196.01 690.195,1192.68 692.357,1189.4 694.519,1186.17 696.681,1182.98 698.843,1179.83 701.005,1176.72 703.167,1173.65 705.329,1170.62 707.491,1167.64 709.653,1164.69 711.815,1161.78 713.977,1158.91 716.139,1156.08 718.301,1153.29 720.463,1150.53 722.625,1147.81 724.787,1145.12 726.949,1142.48 729.111,1139.86 731.273,1137.28 733.435,1134.74 735.597,1132.23 737.759,1129.75 739.921,1127.31 742.083,1124.89 744.245,1122.51 746.407,1120.16 748.569,1117.85 750.731,1115.56 752.893,1113.3 755.055,1111.08 757.217,1108.88 759.379,1106.71 761.541,1104.57 763.703,1102.46 765.865,1100.38 768.027,1098.32 770.189,1096.29 772.351,1094.29 774.513,1092.32 776.674,1090.37 778.836,1088.45 780.998,1086.55 783.16,1084.68 785.322,1082.83 787.484,1081.01 789.646,1079.21 791.808,1077.43 793.97,1075.68 796.132,1073.96 798.294,1072.25 800.456,1070.57 802.618,1068.91 804.78,1067.27 806.942,1065.65 809.104,1064.06 811.266,1062.48 813.428,1060.93 815.59,1059.4 817.752,1057.89 819.914,1056.4 822.076,1054.92 824.238,1053.47 826.4,1052.04 828.562,1050.62 830.724,1049.23 832.886,1047.85 835.048,1046.49 837.21,1045.15 839.372,1043.44 841.534,1041.01 843.696,1038.06 845.858,1034.75 848.02,1031.21 850.182,1027.58 852.344,1023.94 854.506,1020.36 856.668,1016.89 858.83,1013.55 860.992,1010.34 863.154,1007.23 865.316,1004.18 867.478,1001.12 869.64,998.077 871.801,995.07 873.963,992.104 876.125,989.176 878.287,986.288 880.449,983.438 882.611,980.626 884.773,977.85 886.935,975.112 889.097,972.41 891.259,969.744 893.421,967.113 895.583,964.517 897.745,961.955 899.907,959.428 902.069,956.934 904.231,954.473 906.393,952.044 908.555,949.648 910.717,947.284 912.879,944.951 915.041,942.649 917.203,940.377 919.365,938.136 921.527,935.924 923.689,933.742 925.851,931.589 928.013,929.464 930.175,927.367 932.337,925.298 934.499,923.257 936.661,921.242 938.823,919.254 940.985,917.293 943.147,915.358 945.309,913.448 947.471,911.563 949.633,909.704 951.795,907.869 953.957,906.059 956.119,904.272 958.281,902.509 960.443,900.77 962.605,899.054 964.767,897.36 966.928,895.689 969.09,894.04 971.252,892.413 973.414,890.807 975.576,889.223 977.738,887.66 979.9,886.117 982.062,884.595 984.224,883.093 986.386,881.612 988.548,880.149 990.71,878.706 992.872,877.282 995.034,875.878 997.196,874.491 999.358,873.123 1001.52,871.791 1003.68,870.527 1005.84,869.323 1008.01,868.166 1010.17,867.046 1012.33,865.952 1014.49,864.876 1016.65,863.808 1018.82,862.739 1020.98,861.664 1023.14,860.574 1025.3,859.464 1027.46,858.328 1029.63,857.161 1031.79,855.96 1033.95,854.72 1036.11,853.439 1038.27,852.115 1040.44,850.746 1042.6,849.332 1044.76,847.872 1046.92,846.366 1049.08,844.817 1051.25,843.226 1053.41,841.595 1055.57,839.927 1057.73,838.227 1059.89,836.5 1062.06,834.749 1064.22,832.981 1066.38,831.204 1068.54,829.423 1070.7,827.646 1072.87,825.883 1075.03,824.142 1077.19,822.434 1079.35,820.769 1081.51,819.157 1083.68,817.588 1085.84,816.039 1088,814.51 1090.16,813.002 1092.32,811.514 1094.49,810.046 1096.65,808.597 1098.81,807.167 1100.97,805.757 1103.13,804.365 1105.3,802.991 1107.46,801.636 1109.62,800.298 1111.78,798.979 1113.94,797.676 1116.1,796.392 1118.27,795.124 1120.43,793.873 1122.59,792.638 1124.75,791.42 1126.91,790.218 1129.08,789.032 1131.24,787.862 1133.4,786.707 1135.56,785.567 1137.72,784.442 1139.89,783.332 1142.05,782.237 1144.21,781.157 1146.37,780.09 1148.53,779.038 1150.7,777.999 1152.86,776.975 1155.02,775.964 1157.18,774.966 1159.34,773.982 1161.51,773.01 1163.67,772.052 1165.83,771.106 1167.99,770.173 1170.15,769.253 1172.32,768.344 1174.48,767.448 1176.64,766.564 1178.8,765.691 1180.96,764.83 1183.13,763.981 1185.29,763.143 1187.45,762.316 1189.61,761.5 1191.77,760.695 1193.94,759.9 1196.1,759.116 1198.26,758.343 1200.42,757.58 1202.58,756.827 1204.75,756.084 1206.91,755.351 1209.07,754.628 1211.23,753.914 1213.39,753.21 1215.56,752.515 1217.72,751.829 1219.88,751.153 1222.04,750.485 1224.2,749.827 1226.37,749.177 1228.53,748.535 1230.69,747.902 1232.85,747.278 1235.01,746.661 1237.18,746.053 1239.34,745.453 1241.5,744.861 1243.66,744.276 1245.82,743.7 1247.99,743.13 1250.15,742.578 1252.31,742.167 1254.47,741.922 1256.63,741.828 1258.8,741.87 1260.96,742.036 1263.12,742.311 1265.28,742.683 1267.44,743.141 1269.61,743.673 1271.77,744.267 1273.93,744.915 1276.09,745.607 1278.25,746.333 1280.42,747.086 1282.58,747.857 1284.74,748.64 1286.9,749.428 1289.06,750.216 1291.23,750.997 1293.39,751.768 1295.55,752.525 1297.71,753.263 1299.87,753.981 1302.03,754.676 1304.2,755.346 1306.36,755.99 1308.52,756.609 1310.68,757.202 1312.84,757.77 1315.01,758.315 1317.17,758.838 1319.33,759.343 1321.49,759.832 1323.65,760.31 1325.82,760.781 1327.98,761.25 1330.14,761.722 1332.3,762.205 1334.46,762.699 1336.63,763.188 1338.79,763.671 1340.95,764.147 1343.11,764.617 1345.27,765.08 1347.44,765.538 1349.6,765.989 1351.76,766.435 1353.92,766.874 1356.08,767.308 1358.25,767.736 1360.41,768.158 1362.57,768.574 1364.73,768.986 1366.89,769.391 1369.06,769.792 1371.22,770.186 1373.38,770.576 1375.54,770.961 1377.7,771.34 1379.87,771.715 1382.03,772.084 1384.19,772.449 1386.35,772.808 1388.51,773.163 1390.68,773.514 1392.84,773.859 1395,774.2 1397.16,774.537 1399.32,774.869 1401.49,775.197 1403.65,775.52 1405.81,775.839 1407.97,776.154 1410.13,776.464 1412.3,776.771 1414.46,777.073 1416.62,777.372 1418.78,777.666 1420.94,777.957 1423.11,778.244 1425.27,778.527 1427.43,778.806 1429.59,779.081 1431.75,779.353 1433.92,779.621 1436.08,779.886 1438.24,780.147 1440.4,780.405 1442.56,780.659 1444.73,780.91 1446.89,781.27 1449.05,781.841 1451.21,782.534 1453.37,783.271 1455.54,783.98 1457.7,784.597 1459.86,785.068 1462.02,785.347 1464.18,785.397 1466.35,785.188 1468.51,784.702 1470.67,783.926 1472.83,782.856 1474.99,781.499 1477.16,779.867 1479.32,777.984 1481.48,775.881 1483.64,773.597 1485.8,771.18 1487.97,768.687 1490.13,766.183 1492.29,763.742 1494.45,761.446 1496.61,759.259 1498.77,757.102 1500.94,754.972 1503.1,752.871 1505.26,750.798 1507.42,748.753 1509.58,746.734 1511.75,744.743 1513.91,742.777 1516.07,740.838 1518.23,738.925 1520.39,737.036 1522.56,735.173 1524.72,733.334 1526.88,731.52 1529.04,729.73 1531.2,727.963 1533.37,726.22 1535.53,724.5 1537.69,722.802 1539.85,721.128 1542.01,719.475 1544.18,717.845 1546.34,716.236 1548.5,714.648 1550.66,713.082 1552.82,711.536 1554.99,710.011 1557.15,708.506 1559.31,707.021 1561.47,705.556 1563.63,704.11 1565.8,702.683 1567.96,701.276 1570.12,699.887 1572.28,698.517 1574.44,697.164 1576.61,695.83 1578.77,694.514 1580.93,693.214 1583.09,691.933 1585.25,690.668 1587.42,689.42 1589.58,688.188 1591.74,686.973 1593.9,685.774 1596.06,684.591 1598.23,683.423 1600.39,682.271 1602.55,681.134 1604.71,680.012 1606.87,678.905 1609.04,677.813 1611.2,676.735 1613.36,675.672 1615.52,674.622 1617.68,673.586 1619.85,672.565 1622.01,671.556 1624.17,670.561 1626.33,669.579 1628.49,668.61 1630.66,667.654 1632.82,666.711 1634.98,665.78 1637.14,664.862 1639.3,663.956 1641.47,663.061 1643.63,662.179 1645.79,661.308 1647.95,660.449 1650.11,659.601 1652.28,658.765 1654.44,657.94 1656.6,657.125 1658.76,656.322 1660.92,655.529 1663.09,654.746 1665.25,653.974 1667.41,653.212 1669.57,652.46 1671.73,651.719 1673.9,650.987 1676.06,650.264 1678.22,649.552 1680.38,648.849 1682.54,648.155 1684.7,647.47 1686.87,646.794 1689.03,646.128 1691.19,645.613 1693.35,645.888 1695.51,646.927 1697.68,648.619 1699.84,650.86 1702,653.555 1704.16,656.613 1706.32,659.954 1708.49,663.502 1710.65,667.192 1712.81,670.963 1714.97,674.764 1717.13,678.55 1719.3,682.282 1721.46,685.932 1723.62,689.477 1725.78,692.9 1727.94,696.196 1730.11,699.362 1732.27,702.406 1734.43,705.342 1736.59,708.192 1738.75,710.984 1740.92,713.756 1743.08,716.55 1745.24,719.368 1747.4,722.149 1749.56,724.893 1751.73,727.601 1753.89,730.273 1756.05,732.91 1758.21,735.511 1760.37,738.078 1762.54,740.612 1764.7,743.111 1766.86,745.577 1769.02,748.011 1771.18,750.412 1773.35,752.782 1775.51,755.12 1777.67,757.428 1779.83,759.704 1781.99,761.951 1784.16,764.168 1786.32,766.356 1788.48,768.515 1790.64,770.645 1792.8,772.747 1794.97,774.821 1797.13,776.867 1799.29,778.887 1801.45,780.879 1803.61,782.845 1805.78,784.785 1807.94,786.7 1810.1,788.588 1812.26,790.452 1814.42,792.291 1816.59,794.105 1818.75,795.896 1820.91,797.662 1823.07,799.405 1825.23,801.125 1827.4,802.822 1829.56,804.497 1831.72,806.149 1833.88,807.779 1836.04,809.388 1838.21,810.975 1840.37,812.542 1842.53,814.087 1844.69,815.612 1846.85,817.117 1849.02,818.601 1851.18,820.066 1853.34,821.512 1855.5,822.938 1857.66,824.346 1859.83,825.735 1861.99,827.106 1864.15,828.458 1866.31,829.792 1868.47,831.109 1870.63,832.409 1872.8,833.691 1874.96,834.957 1877.12,836.205 1879.28,837.437 1881.44,838.653 1883.61,839.853 1885.77,841.037 1887.93,842.205 1890.09,843.357 1892.25,844.495 1894.42,845.617 1896.58,846.724 1898.74,847.817 1900.9,848.895 1903.06,849.959 1905.23,851.009 1907.39,852.044 1909.55,853.067 1911.71,854.075 1913.87,855.07 1916.04,855.799 1918.2,854.955 1920.36,852.513 1922.52,848.653 1924.68,843.547 1926.85,837.356 1929.01,830.233 1931.17,822.323 1933.33,813.762 1935.49,804.675 1937.66,795.18 1939.82,785.385 1941.98,775.39 1944.14,765.285 1946.3,755.153 1948.47,745.065 1950.63,735.085 1952.79,725.267 1954.95,715.659 1957.11,706.295 1959.28,697.205 1961.44,688.406 1963.6,679.909 1965.76,671.715 1967.92,663.815 1970.09,656.193 1972.25,648.822 1974.41,641.668 1976.57,634.687 1978.73,627.825 1980.9,621.022 1983.06,614.206 1985.22,607.299 1987.38,600.39 1989.54,593.572 1991.71,586.846 1993.87,580.208 1996.03,573.658 1998.19,567.195 2000.35,560.818 2002.52,554.525 2004.68,548.316 2006.84,542.189 2009,536.143 2011.16,530.178 2013.33,524.291 2015.49,518.483 2017.65,512.751 2019.81,507.096 2021.97,501.515 2024.14,496.008 2026.3,490.573 2028.46,485.211 2030.62,479.919 2032.78,474.698 2034.95,469.546 2037.11,464.462 2039.27,459.446 2041.43,454.496 2043.59,449.612 2045.76,444.793 2047.92,440.038 2050.08,435.346 2052.24,430.716 2054.4,426.148 2056.57,421.64 2058.73,417.193 2060.89,412.804 2063.05,408.474 2065.21,404.201 2067.37,399.985 2069.54,395.825 2071.7,391.721 2073.86,387.67 2076.02,383.674 2078.18,379.731 2080.35,375.84 2082.51,372 2084.67,368.212 2086.83,364.474 2088.99,360.785 2091.16,357.145 2093.32,353.554 2095.48,350.01 2097.64,346.513 2099.8,343.062 2101.97,339.657 2104.13,336.297 2106.29,332.982 2108.45,329.71 2110.61,326.482 2112.78,323.296 2114.94,320.153 2117.1,316.755 2119.26,312.516 2121.42,307.915 2123.59,303.425 2125.75,299.442 2127.91,296.287 2130.07,294.204 2132.23,293.364 2134.4,293.858 2136.56,295.706 2138.72,298.85 2140.88,303.157 2143.04,308.417 2145.21,314.347 2147.37,320.586 2149.53,326.699 2151.69,332.261 2153.85,337.621 2156.02,342.911 2158.18,348.13 2160.34,353.28 2162.5,358.362 2164.66,363.377 2166.83,368.325 2168.99,373.207 2171.15,378.025 2173.31,382.779 2175.47,387.47 2177.64,392.099 2179.8,396.667 2181.96,401.174 2184.12,405.621 2186.28,410.01 2188.45,414.341 2190.61,418.614 2192.77,422.831 2194.93,426.992 2197.09,431.097 2199.26,435.148 2201.42,439.146 2203.58,443.09 2205.74,446.982 2207.9,450.822 2210.07,454.611 2212.23,458.35 2214.39,462.039 2216.55,465.68 2218.71,469.272 2220.88,472.816 2223.04,476.313 2225.2,479.763 2227.36,483.168 2229.52,486.527 2231.69,489.842 2233.85,493.113 2236.01,496.341 2238.17,499.525 2240.33,502.668 2242.5,505.768 2244.66,508.828 2246.82,511.847 2248.98,514.826 2251.14,517.765 2253.3,520.666 2255.47,523.528 2257.63,526.352 2259.79,529.139 2261.95,531.888 2264.11,534.602 2266.28,537.28 2268.44,539.922 2270.6,542.529 2272.76,545.102 2274.92,547.641 2277.09,550.146 2279.25,552.618 2281.41,555.057 2283.57,557.464 2285.73,559.839 2287.9,562.182 2290.06,564.495 2292.22,566.777 2294.38,569.028 2296.54,571.25 2298.71,573.442 2300.87,575.605 2303.03,577.739 2305.19,579.845 2307.35,581.923 2309.52,583.974 2311.68,585.997 2313.84,587.994 2316,589.964 2318.16,591.908 2320.33,593.826 2322.49,595.719 2324.65,597.586 2326.81,599.429 2328.97,601.248 2331.14,603.042 2333.3,604.812 2335.46,606.56 2337.62,608.283 2339.78,609.985 2341.95,611.663 2344.11,613.319 2346.27,614.954 2348.43,616.566 2350.59,618.158 2352.76,619.728 "/>
<polyline clip-path="url(#clip991)" style="stroke:#e26f46; stroke-linecap:round; stroke-linejoin:round; stroke-width:4; stroke-opacity:1; fill:none" points="192.941,1157.95 195.103,1157.95 197.265,1157.95 199.427,1157.95 201.589,1157.95 203.751,1157.95 205.912,1157.95 208.074,1157.95 210.236,1157.95 212.398,1157.95 214.56,1157.95 216.722,1157.95 218.884,1157.95 221.046,1157.95 223.208,1157.95 225.37,1157.95 227.532,1157.95 229.694,1157.95 231.856,1157.95 234.018,1157.95 236.18,1157.95 238.342,1157.95 240.504,1157.95 242.666,1157.95 244.828,1157.95 246.99,1157.95 249.152,1157.95 251.314,1157.95 253.476,1157.95 255.638,1157.95 257.8,1157.95 259.962,1157.95 262.124,1157.95 264.286,1157.95 266.448,1157.95 268.61,1157.95 270.772,1157.95 272.934,1157.95 275.096,1157.95 277.258,1157.95 279.42,1157.95 281.582,1157.95 283.744,1157.95 285.906,1157.95 288.068,1157.95 290.23,1157.95 292.392,1157.95 294.554,1157.95 296.716,1157.95 298.878,1157.95 301.039,1157.95 303.201,1157.95 305.363,1157.95 307.525,1157.95 309.687,1157.95 311.849,1157.95 314.011,1157.95 316.173,1157.95 318.335,1157.95 320.497,1157.95 322.659,1157.95 324.821,1157.95 326.983,1157.95 329.145,1157.95 331.307,1157.95 333.469,1157.95 335.631,1157.95 337.793,1157.95 339.955,1157.95 342.117,1157.95 344.279,1157.95 346.441,1157.95 348.603,1157.95 350.765,1157.95 352.927,1157.95 355.089,1157.95 357.251,1157.95 359.413,1157.95 361.575,1157.95 363.737,1157.95 365.899,1157.95 368.061,1157.95 370.223,1157.95 372.385,1157.95 374.547,1157.95 376.709,1157.95 378.871,1157.95 381.033,1157.95 383.195,1157.95 385.357,1157.95 387.519,1157.95 389.681,1157.95 391.843,1157.95 394.005,1157.95 396.166,1157.95 398.328,1157.95 400.49,1157.95 402.652,1157.95 404.814,1157.95 406.976,1157.95 409.138,1384.24 411.3,1384.24 413.462,1384.24 415.624,1384.24 417.786,1384.24 419.948,1384.24 422.11,1384.24 424.272,1384.24 426.434,1384.24 428.596,1384.24 430.758,1384.24 432.92,1384.24 435.082,1384.24 437.244,1384.24 439.406,1384.24 441.568,1384.24 443.73,1384.24 445.892,1384.24 448.054,1384.24 450.216,1384.24 452.378,1384.24 454.54,1384.24 456.702,1384.24 458.864,1384.24 461.026,1384.24 463.188,1384.24 465.35,1384.24 467.512,1384.24 469.674,1384.24 471.836,1384.24 473.998,1384.24 476.16,1384.24 478.322,1384.24 480.484,1384.24 482.646,1384.24 484.808,1384.24 486.97,1384.24 489.132,1384.24 491.293,1384.24 493.455,1384.24 495.617,1384.24 497.779,1384.24 499.941,1384.24 502.103,1384.24 504.265,1384.24 506.427,1384.24 508.589,1384.24 510.751,1384.24 512.913,1384.24 515.075,1384.24 517.237,1384.24 519.399,1384.24 521.561,1384.24 523.723,1384.24 525.885,1384.24 528.047,1384.24 530.209,1384.24 532.371,1384.24 534.533,1384.24 536.695,1384.24 538.857,1384.24 541.019,1384.24 543.181,1384.24 545.343,1384.24 547.505,1384.24 549.667,1384.24 551.829,1384.24 553.991,1384.24 556.153,1384.24 558.315,1384.24 560.477,1384.24 562.639,1384.24 564.801,1384.24 566.963,1384.24 569.125,1384.24 571.287,1384.24 573.449,1384.24 575.611,1384.24 577.773,1384.24 579.935,1384.24 582.097,1384.24 584.259,1384.24 586.42,1384.24 588.582,1384.24 590.744,1384.24 592.906,1384.24 595.068,1384.24 597.23,1384.24 599.392,1384.24 601.554,1384.24 603.716,1384.24 605.878,1384.24 608.04,1384.24 610.202,1384.24 612.364,1384.24 614.526,1384.24 616.688,1384.24 618.85,1384.24 621.012,1384.24 623.174,1384.24 625.336,945.35 627.498,945.35 629.66,945.35 631.822,945.35 633.984,945.35 636.146,945.35 638.308,945.35 640.47,945.35 642.632,945.35 644.794,945.35 646.956,945.35 649.118,945.35 651.28,945.35 653.442,945.35 655.604,945.35 657.766,945.35 659.928,945.35 662.09,945.35 664.252,945.35 666.414,945.35 668.576,945.35 670.738,945.35 672.9,945.35 675.062,945.35 677.224,945.35 679.386,945.35 681.547,945.35 683.709,945.35 685.871,945.35 688.033,945.35 690.195,945.35 692.357,945.35 694.519,945.35 696.681,945.35 698.843,945.35 701.005,945.35 703.167,945.35 705.329,945.35 707.491,945.35 709.653,945.35 711.815,945.35 713.977,945.35 716.139,945.35 718.301,945.35 720.463,945.35 722.625,945.35 724.787,945.35 726.949,945.35 729.111,945.35 731.273,945.35 733.435,945.35 735.597,945.35 737.759,945.35 739.921,945.35 742.083,945.35 744.245,945.35 746.407,945.35 748.569,945.35 750.731,945.35 752.893,945.35 755.055,945.35 757.217,945.35 759.379,945.35 761.541,945.35 763.703,945.35 765.865,945.35 768.027,945.35 770.189,945.35 772.351,945.35 774.513,945.35 776.674,945.35 778.836,945.35 780.998,945.35 783.16,945.35 785.322,945.35 787.484,945.35 789.646,945.35 791.808,945.35 793.97,945.35 796.132,945.35 798.294,945.35 800.456,945.35 802.618,945.35 804.78,945.35 806.942,945.35 809.104,945.35 811.266,945.35 813.428,945.35 815.59,945.35 817.752,945.35 819.914,945.35 822.076,945.35 824.238,945.35 826.4,945.35 828.562,945.35 830.724,945.35 832.886,945.35 835.048,945.35 837.21,945.35 839.372,945.35 841.534,771.314 843.696,771.314 845.858,771.314 848.02,771.314 850.182,771.314 852.344,771.314 854.506,771.314 856.668,771.314 858.83,771.314 860.992,771.314 863.154,771.314 865.316,771.314 867.478,771.314 869.64,771.314 871.801,771.314 873.963,771.314 876.125,771.314 878.287,771.314 880.449,771.314 882.611,771.314 884.773,771.314 886.935,771.314 889.097,771.314 891.259,771.314 893.421,771.314 895.583,771.314 897.745,771.314 899.907,771.314 902.069,771.314 904.231,771.314 906.393,771.314 908.555,771.314 910.717,771.314 912.879,771.314 915.041,771.314 917.203,771.314 919.365,771.314 921.527,771.314 923.689,771.314 925.851,771.314 928.013,771.314 930.175,771.314 932.337,771.314 934.499,771.314 936.661,771.314 938.823,771.314 940.985,771.314 943.147,771.314 945.309,771.314 947.471,771.314 949.633,771.314 951.795,771.314 953.957,771.314 956.119,771.314 958.281,771.314 960.443,771.314 962.605,771.314 964.767,771.314 966.928,771.314 969.09,771.314 971.252,771.314 973.414,771.314 975.576,771.314 977.738,771.314 979.9,771.314 982.062,771.314 984.224,771.314 986.386,771.314 988.548,771.314 990.71,771.314 992.872,771.314 995.034,771.314 997.196,771.314 999.358,771.314 1001.52,771.314 1003.68,771.314 1005.84,771.314 1008.01,771.314 1010.17,771.314 1012.33,771.314 1014.49,771.314 1016.65,771.314 1018.82,771.314 1020.98,771.314 1023.14,771.314 1025.3,771.314 1027.46,771.314 1029.63,771.314 1031.79,771.314 1033.95,771.314 1036.11,771.314 1038.27,771.314 1040.44,771.314 1042.6,771.314 1044.76,771.314 1046.92,771.314 1049.08,771.314 1051.25,771.314 1053.41,771.314 1055.57,771.314 1057.73,700.762 1059.89,700.762 1062.06,700.762 1064.22,700.762 1066.38,700.762 1068.54,700.762 1070.7,700.762 1072.87,700.762 1075.03,700.762 1077.19,700.762 1079.35,700.762 1081.51,700.762 1083.68,700.762 1085.84,700.762 1088,700.762 1090.16,700.762 1092.32,700.762 1094.49,700.762 1096.65,700.762 1098.81,700.762 1100.97,700.762 1103.13,700.762 1105.3,700.762 1107.46,700.762 1109.62,700.762 1111.78,700.762 1113.94,700.762 1116.1,700.762 1118.27,700.762 1120.43,700.762 1122.59,700.762 1124.75,700.762 1126.91,700.762 1129.08,700.762 1131.24,700.762 1133.4,700.762 1135.56,700.762 1137.72,700.762 1139.89,700.762 1142.05,700.762 1144.21,700.762 1146.37,700.762 1148.53,700.762 1150.7,700.762 1152.86,700.762 1155.02,700.762 1157.18,700.762 1159.34,700.762 1161.51,700.762 1163.67,700.762 1165.83,700.762 1167.99,700.762 1170.15,700.762 1172.32,700.762 1174.48,700.762 1176.64,700.762 1178.8,700.762 1180.96,700.762 1183.13,700.762 1185.29,700.762 1187.45,700.762 1189.61,700.762 1191.77,700.762 1193.94,700.762 1196.1,700.762 1198.26,700.762 1200.42,700.762 1202.58,700.762 1204.75,700.762 1206.91,700.762 1209.07,700.762 1211.23,700.762 1213.39,700.762 1215.56,700.762 1217.72,700.762 1219.88,700.762 1222.04,700.762 1224.2,700.762 1226.37,700.762 1228.53,700.762 1230.69,700.762 1232.85,700.762 1235.01,700.762 1237.18,700.762 1239.34,700.762 1241.5,700.762 1243.66,700.762 1245.82,700.762 1247.99,700.762 1250.15,700.762 1252.31,700.762 1254.47,700.762 1256.63,700.762 1258.8,700.762 1260.96,700.762 1263.12,700.762 1265.28,700.762 1267.44,700.762 1269.61,700.762 1271.77,700.762 1273.93,799.583 1276.09,799.583 1278.25,799.583 1280.42,799.583 1282.58,799.583 1284.74,799.583 1286.9,799.583 1289.06,799.583 1291.23,799.583 1293.39,799.583 1295.55,799.583 1297.71,799.583 1299.87,799.583 1302.03,799.583 1304.2,799.583 1306.36,799.583 1308.52,799.583 1310.68,799.583 1312.84,799.583 1315.01,799.583 1317.17,799.583 1319.33,799.583 1321.49,799.583 1323.65,799.583 1325.82,799.583 1327.98,799.583 1330.14,799.583 1332.3,799.583 1334.46,799.583 1336.63,799.583 1338.79,799.583 1340.95,799.583 1343.11,799.583 1345.27,799.583 1347.44,799.583 1349.6,799.583 1351.76,799.583 1353.92,799.583 1356.08,799.583 1358.25,799.583 1360.41,799.583 1362.57,799.583 1364.73,799.583 1366.89,799.583 1369.06,799.583 1371.22,799.583 1373.38,799.583 1375.54,799.583 1377.7,799.583 1379.87,799.583 1382.03,799.583 1384.19,799.583 1386.35,799.583 1388.51,799.583 1390.68,799.583 1392.84,799.583 1395,799.583 1397.16,799.583 1399.32,799.583 1401.49,799.583 1403.65,799.583 1405.81,799.583 1407.97,799.583 1410.13,799.583 1412.3,799.583 1414.46,799.583 1416.62,799.583 1418.78,799.583 1420.94,799.583 1423.11,799.583 1425.27,799.583 1427.43,799.583 1429.59,799.583 1431.75,799.583 1433.92,799.583 1436.08,799.583 1438.24,799.583 1440.4,799.583 1442.56,799.583 1444.73,799.583 1446.89,799.583 1449.05,799.583 1451.21,799.583 1453.37,799.583 1455.54,799.583 1457.7,799.583 1459.86,799.583 1462.02,799.583 1464.18,799.583 1466.35,799.583 1468.51,799.583 1470.67,799.583 1472.83,799.583 1474.99,799.583 1477.16,799.583 1479.32,799.583 1481.48,799.583 1483.64,799.583 1485.8,799.583 1487.97,799.583 1490.13,596.508 1492.29,596.508 1494.45,596.508 1496.61,596.508 1498.77,596.508 1500.94,596.508 1503.1,596.508 1505.26,596.508 1507.42,596.508 1509.58,596.508 1511.75,596.508 1513.91,596.508 1516.07,596.508 1518.23,596.508 1520.39,596.508 1522.56,596.508 1524.72,596.508 1526.88,596.508 1529.04,596.508 1531.2,596.508 1533.37,596.508 1535.53,596.508 1537.69,596.508 1539.85,596.508 1542.01,596.508 1544.18,596.508 1546.34,596.508 1548.5,596.508 1550.66,596.508 1552.82,596.508 1554.99,596.508 1557.15,596.508 1559.31,596.508 1561.47,596.508 1563.63,596.508 1565.8,596.508 1567.96,596.508 1570.12,596.508 1572.28,596.508 1574.44,596.508 1576.61,596.508 1578.77,596.508 1580.93,596.508 1583.09,596.508 1585.25,596.508 1587.42,596.508 1589.58,596.508 1591.74,596.508 1593.9,596.508 1596.06,596.508 1598.23,596.508 1600.39,596.508 1602.55,596.508 1604.71,596.508 1606.87,596.508 1609.04,596.508 1611.2,596.508 1613.36,596.508 1615.52,596.508 1617.68,596.508 1619.85,596.508 1622.01,596.508 1624.17,596.508 1626.33,596.508 1628.49,596.508 1630.66,596.508 1632.82,596.508 1634.98,596.508 1637.14,596.508 1639.3,596.508 1641.47,596.508 1643.63,596.508 1645.79,596.508 1647.95,596.508 1650.11,596.508 1652.28,596.508 1654.44,596.508 1656.6,596.508 1658.76,596.508 1660.92,596.508 1663.09,596.508 1665.25,596.508 1667.41,596.508 1669.57,596.508 1671.73,596.508 1673.9,596.508 1676.06,596.508 1678.22,596.508 1680.38,596.508 1682.54,596.508 1684.7,596.508 1686.87,596.508 1689.03,596.508 1691.19,596.508 1693.35,596.508 1695.51,596.508 1697.68,596.508 1699.84,596.508 1702,596.508 1704.16,596.508 1706.32,929.14 1708.49,929.14 1710.65,929.14 1712.81,929.14 1714.97,929.14 1717.13,929.14 1719.3,929.14 1721.46,929.14 1723.62,929.14 1725.78,929.14 1727.94,929.14 1730.11,929.14 1732.27,929.14 1734.43,929.14 1736.59,929.14 1738.75,929.14 1740.92,929.14 1743.08,929.14 1745.24,929.14 1747.4,929.14 1749.56,929.14 1751.73,929.14 1753.89,929.14 1756.05,929.14 1758.21,929.14 1760.37,929.14 1762.54,929.14 1764.7,929.14 1766.86,929.14 1769.02,929.14 1771.18,929.14 1773.35,929.14 1775.51,929.14 1777.67,929.14 1779.83,929.14 1781.99,929.14 1784.16,929.14 1786.32,929.14 1788.48,929.14 1790.64,929.14 1792.8,929.14 1794.97,929.14 1797.13,929.14 1799.29,929.14 1801.45,929.14 1803.61,929.14 1805.78,929.14 1807.94,929.14 1810.1,929.14 1812.26,929.14 1814.42,929.14 1816.59,929.14 1818.75,929.14 1820.91,929.14 1823.07,929.14 1825.23,929.14 1827.4,929.14 1829.56,929.14 1831.72,929.14 1833.88,929.14 1836.04,929.14 1838.21,929.14 1840.37,929.14 1842.53,929.14 1844.69,929.14 1846.85,929.14 1849.02,929.14 1851.18,929.14 1853.34,929.14 1855.5,929.14 1857.66,929.14 1859.83,929.14 1861.99,929.14 1864.15,929.14 1866.31,929.14 1868.47,929.14 1870.63,929.14 1872.8,929.14 1874.96,929.14 1877.12,929.14 1879.28,929.14 1881.44,929.14 1883.61,929.14 1885.77,929.14 1887.93,929.14 1890.09,929.14 1892.25,929.14 1894.42,929.14 1896.58,929.14 1898.74,929.14 1900.9,929.14 1903.06,929.14 1905.23,929.14 1907.39,929.14 1909.55,929.14 1911.71,929.14 1913.87,929.14 1916.04,929.14 1918.2,929.14 1920.36,929.14 1922.52,86.1857 1924.68,86.1857 1926.85,86.1857 1929.01,86.1857 1931.17,86.1857 1933.33,86.1857 1935.49,86.1857 1937.66,86.1857 1939.82,86.1857 1941.98,86.1857 1944.14,86.1857 1946.3,86.1857 1948.47,86.1857 1950.63,86.1857 1952.79,86.1857 1954.95,86.1857 1957.11,86.1857 1959.28,86.1857 1961.44,86.1857 1963.6,86.1857 1965.76,86.1857 1967.92,86.1857 1970.09,86.1857 1972.25,86.1857 1974.41,86.1857 1976.57,86.1857 1978.73,86.1857 1980.9,86.1857 1983.06,86.1857 1985.22,86.1857 1987.38,86.1857 1989.54,86.1857 1991.71,86.1857 1993.87,86.1857 1996.03,86.1857 1998.19,86.1857 2000.35,86.1857 2002.52,86.1857 2004.68,86.1857 2006.84,86.1857 2009,86.1857 2011.16,86.1857 2013.33,86.1857 2015.49,86.1857 2017.65,86.1857 2019.81,86.1857 2021.97,86.1857 2024.14,86.1857 2026.3,86.1857 2028.46,86.1857 2030.62,86.1857 2032.78,86.1857 2034.95,86.1857 2037.11,86.1857 2039.27,86.1857 2041.43,86.1857 2043.59,86.1857 2045.76,86.1857 2047.92,86.1857 2050.08,86.1857 2052.24,86.1857 2054.4,86.1857 2056.57,86.1857 2058.73,86.1857 2060.89,86.1857 2063.05,86.1857 2065.21,86.1857 2067.37,86.1857 2069.54,86.1857 2071.7,86.1857 2073.86,86.1857 2076.02,86.1857 2078.18,86.1857 2080.35,86.1857 2082.51,86.1857 2084.67,86.1857 2086.83,86.1857 2088.99,86.1857 2091.16,86.1857 2093.32,86.1857 2095.48,86.1857 2097.64,86.1857 2099.8,86.1857 2101.97,86.1857 2104.13,86.1857 2106.29,86.1857 2108.45,86.1857 2110.61,86.1857 2112.78,86.1857 2114.94,86.1857 2117.1,86.1857 2119.26,86.1857 2121.42,86.1857 2123.59,86.1857 2125.75,86.1857 2127.91,86.1857 2130.07,86.1857 2132.23,86.1857 2134.4,86.1857 2136.56,86.1857 2138.72,736.592 2140.88,736.592 2143.04,736.592 2145.21,736.592 2147.37,736.592 2149.53,736.592 2151.69,736.592 2153.85,736.592 2156.02,736.592 2158.18,736.592 2160.34,736.592 2162.5,736.592 2164.66,736.592 2166.83,736.592 2168.99,736.592 2171.15,736.592 2173.31,736.592 2175.47,736.592 2177.64,736.592 2179.8,736.592 2181.96,736.592 2184.12,736.592 2186.28,736.592 2188.45,736.592 2190.61,736.592 2192.77,736.592 2194.93,736.592 2197.09,736.592 2199.26,736.592 2201.42,736.592 2203.58,736.592 2205.74,736.592 2207.9,736.592 2210.07,736.592 2212.23,736.592 2214.39,736.592 2216.55,736.592 2218.71,736.592 2220.88,736.592 2223.04,736.592 2225.2,736.592 2227.36,736.592 2229.52,736.592 2231.69,736.592 2233.85,736.592 2236.01,736.592 2238.17,736.592 2240.33,736.592 2242.5,736.592 2244.66,736.592 2246.82,736.592 2248.98,736.592 2251.14,736.592 2253.3,736.592 2255.47,736.592 2257.63,736.592 2259.79,736.592 2261.95,736.592 2264.11,736.592 2266.28,736.592 2268.44,736.592 2270.6,736.592 2272.76,736.592 2274.92,736.592 2277.09,736.592 2279.25,736.592 2281.41,736.592 2283.57,736.592 2285.73,736.592 2287.9,736.592 2290.06,736.592 2292.22,736.592 2294.38,736.592 2296.54,736.592 2298.71,736.592 2300.87,736.592 2303.03,736.592 2305.19,736.592 2307.35,736.592 2309.52,736.592 2311.68,736.592 2313.84,736.592 2316,736.592 2318.16,736.592 2320.33,736.592 2322.49,736.592 2324.65,736.592 2326.81,736.592 2328.97,736.592 2331.14,736.592 2333.3,736.592 2335.46,736.592 2337.62,736.592 2339.78,736.592 2341.95,736.592 2344.11,736.592 2346.27,736.592 2348.43,736.592 2350.59,736.592 2352.76,736.592 "/>
<path clip-path="url(#clip990)" d="M264.934 248.629 L506.055 248.629 L506.055 93.1086 L264.934 93.1086  Z" fill="#ffffff" fill-rule="evenodd" fill-opacity="1"/>
<polyline clip-path="url(#clip990)" style="stroke:#000000; stroke-linecap:round; stroke-linejoin:round; stroke-width:4; stroke-opacity:1; fill:none" points="264.934,248.629 506.055,248.629 506.055,93.1086 264.934,93.1086 264.934,248.629 "/>
<polyline clip-path="url(#clip990)" style="stroke:#009af9; stroke-linecap:round; stroke-linejoin:round; stroke-width:4; stroke-opacity:1; fill:none" points="288.932,144.949 432.92,144.949 "/>
<path clip-path="url(#clip990)" d="M481.571 136.303 L472.196 148.919 L482.057 162.229 L477.034 162.229 L469.487 152.043 L461.941 162.229 L456.918 162.229 L466.987 148.664 L457.775 136.303 L462.798 136.303 L469.673 145.539 L476.548 136.303 L481.571 136.303 Z" fill="#000000" fill-rule="nonzero" fill-opacity="1" /><polyline clip-path="url(#clip990)" style="stroke:#e26f46; stroke-linecap:round; stroke-linejoin:round; stroke-width:4; stroke-opacity:1; fill:none" points="288.932,196.789 432.92,196.789 "/>
<path clip-path="url(#clip990)" d="M473.423 178.05 L473.423 181.592 L469.349 181.592 Q467.057 181.592 466.154 182.518 Q465.274 183.444 465.274 185.851 L465.274 188.143 L472.288 188.143 L472.288 191.453 L465.274 191.453 L465.274 214.069 L460.992 214.069 L460.992 191.453 L456.918 191.453 L456.918 188.143 L460.992 188.143 L460.992 186.337 Q460.992 182.009 463.006 180.041 Q465.02 178.05 469.395 178.05 L473.423 178.05 Z" fill="#000000" fill-rule="nonzero" fill-opacity="1" /></svg>
