<?xml version="1.0" encoding="utf-8"?>
<svg xmlns="http://www.w3.org/2000/svg" xmlns:xlink="http://www.w3.org/1999/xlink" width="600" height="400" viewBox="0 0 2400 1600">
<defs>
  <clipPath id="clip510">
    <rect x="0" y="0" width="2400" height="1600"/>
  </clipPath>
</defs>
<path clip-path="url(#clip510)" d="M0 1600 L2400 1600 L2400 0 L0 0  Z" fill="#ffffff" fill-rule="evenodd" fill-opacity="1"/>
<defs>
  <clipPath id="clip511">
    <rect x="480" y="0" width="1681" height="1600"/>
  </clipPath>
</defs>
<path clip-path="url(#clip510)" d="M147.478 1423.18 L2352.76 1423.18 L2352.76 47.2441 L147.478 47.2441  Z" fill="#ffffff" fill-rule="evenodd" fill-opacity="1"/>
<defs>
  <clipPath id="clip512">
    <rect x="147" y="47" width="2206" height="1377"/>
  </clipPath>
</defs>
<polyline clip-path="url(#clip512)" style="stroke:#000000; stroke-linecap:round; stroke-linejoin:round; stroke-width:2; stroke-opacity:0.1; fill:none" points="147.478,1423.18 147.478,47.2441 "/>
<polyline clip-path="url(#clip512)" style="stroke:#000000; stroke-linecap:round; stroke-linejoin:round; stroke-width:2; stroke-opacity:0.1; fill:none" points="588.534,1423.18 588.534,47.2441 "/>
<polyline clip-path="url(#clip512)" style="stroke:#000000; stroke-linecap:round; stroke-linejoin:round; stroke-width:2; stroke-opacity:0.1; fill:none" points="1029.59,1423.18 1029.59,47.2441 "/>
<polyline clip-path="url(#clip512)" style="stroke:#000000; stroke-linecap:round; stroke-linejoin:round; stroke-width:2; stroke-opacity:0.1; fill:none" points="1470.64,1423.18 1470.64,47.2441 "/>
<polyline clip-path="url(#clip512)" style="stroke:#000000; stroke-linecap:round; stroke-linejoin:round; stroke-width:2; stroke-opacity:0.1; fill:none" points="1911.7,1423.18 1911.7,47.2441 "/>
<polyline clip-path="url(#clip512)" style="stroke:#000000; stroke-linecap:round; stroke-linejoin:round; stroke-width:2; stroke-opacity:0.1; fill:none" points="2352.76,1423.18 2352.76,47.2441 "/>
<polyline clip-path="url(#clip512)" style="stroke:#000000; stroke-linecap:round; stroke-linejoin:round; stroke-width:2; stroke-opacity:0.1; fill:none" points="147.478,1161.09 2352.76,1161.09 "/>
<polyline clip-path="url(#clip512)" style="stroke:#000000; stroke-linecap:round; stroke-linejoin:round; stroke-width:2; stroke-opacity:0.1; fill:none" points="147.478,842.429 2352.76,842.429 "/>
<polyline clip-path="url(#clip512)" style="stroke:#000000; stroke-linecap:round; stroke-linejoin:round; stroke-width:2; stroke-opacity:0.1; fill:none" points="147.478,523.763 2352.76,523.763 "/>
<polyline clip-path="url(#clip512)" style="stroke:#000000; stroke-linecap:round; stroke-linejoin:round; stroke-width:2; stroke-opacity:0.1; fill:none" points="147.478,205.098 2352.76,205.098 "/>
<polyline clip-path="url(#clip510)" style="stroke:#000000; stroke-linecap:round; stroke-linejoin:round; stroke-width:4; stroke-opacity:1; fill:none" points="147.478,1423.18 2352.76,1423.18 "/>
<polyline clip-path="url(#clip510)" style="stroke:#000000; stroke-linecap:round; stroke-linejoin:round; stroke-width:4; stroke-opacity:1; fill:none" points="147.478,1423.18 147.478,1404.28 "/>
<polyline clip-path="url(#clip510)" style="stroke:#000000; stroke-linecap:round; stroke-linejoin:round; stroke-width:4; stroke-opacity:1; fill:none" points="588.534,1423.18 588.534,1404.28 "/>
<polyline clip-path="url(#clip510)" style="stroke:#000000; stroke-linecap:round; stroke-linejoin:round; stroke-width:4; stroke-opacity:1; fill:none" points="1029.59,1423.18 1029.59,1404.28 "/>
<polyline clip-path="url(#clip510)" style="stroke:#000000; stroke-linecap:round; stroke-linejoin:round; stroke-width:4; stroke-opacity:1; fill:none" points="1470.64,1423.18 1470.64,1404.28 "/>
<polyline clip-path="url(#clip510)" style="stroke:#000000; stroke-linecap:round; stroke-linejoin:round; stroke-width:4; stroke-opacity:1; fill:none" points="1911.7,1423.18 1911.7,1404.28 "/>
<polyline clip-path="url(#clip510)" style="stroke:#000000; stroke-linecap:round; stroke-linejoin:round; stroke-width:4; stroke-opacity:1; fill:none" points="2352.76,1423.18 2352.76,1404.28 "/>
<path clip-path="url(#clip510)" d="M147.478 1454.1 Q143.867 1454.1 142.038 1457.66 Q140.233 1461.2 140.233 1468.33 Q140.233 1475.44 142.038 1479.01 Q143.867 1482.55 147.478 1482.55 Q151.112 1482.55 152.918 1479.01 Q154.746 1475.44 154.746 1468.33 Q154.746 1461.2 152.918 1457.66 Q151.112 1454.1 147.478 1454.1 M147.478 1450.39 Q153.288 1450.39 156.344 1455 Q159.422 1459.58 159.422 1468.33 Q159.422 1477.06 156.344 1481.67 Q153.288 1486.25 147.478 1486.25 Q141.668 1486.25 138.589 1481.67 Q135.534 1477.06 135.534 1468.33 Q135.534 1459.58 138.589 1455 Q141.668 1450.39 147.478 1450.39 Z" fill="#000000" fill-rule="nonzero" fill-opacity="1" /><path clip-path="url(#clip510)" d="M583.186 1481.64 L599.506 1481.64 L599.506 1485.58 L577.561 1485.58 L577.561 1481.64 Q580.223 1478.89 584.807 1474.26 Q589.413 1469.61 590.594 1468.27 Q592.839 1465.74 593.719 1464.01 Q594.621 1462.25 594.621 1460.56 Q594.621 1457.8 592.677 1456.07 Q590.756 1454.33 587.654 1454.33 Q585.455 1454.33 583.001 1455.09 Q580.571 1455.86 577.793 1457.41 L577.793 1452.69 Q580.617 1451.55 583.071 1450.97 Q585.524 1450.39 587.561 1450.39 Q592.932 1450.39 596.126 1453.08 Q599.32 1455.77 599.32 1460.26 Q599.32 1462.39 598.51 1464.31 Q597.723 1466.2 595.617 1468.8 Q595.038 1469.47 591.936 1472.69 Q588.834 1475.88 583.186 1481.64 Z" fill="#000000" fill-rule="nonzero" fill-opacity="1" /><path clip-path="url(#clip510)" d="M1032.6 1455.09 L1020.79 1473.54 L1032.6 1473.54 L1032.6 1455.09 M1031.37 1451.02 L1037.25 1451.02 L1037.25 1473.54 L1042.18 1473.54 L1042.18 1477.43 L1037.25 1477.43 L1037.25 1485.58 L1032.6 1485.58 L1032.6 1477.43 L1017 1477.43 L1017 1472.92 L1031.37 1451.02 Z" fill="#000000" fill-rule="nonzero" fill-opacity="1" /><path clip-path="url(#clip510)" d="M1471.05 1466.44 Q1467.9 1466.44 1466.05 1468.59 Q1464.22 1470.74 1464.22 1474.49 Q1464.22 1478.22 1466.05 1480.39 Q1467.9 1482.55 1471.05 1482.55 Q1474.2 1482.55 1476.03 1480.39 Q1477.88 1478.22 1477.88 1474.49 Q1477.88 1470.74 1476.03 1468.59 Q1474.2 1466.44 1471.05 1466.44 M1480.33 1451.78 L1480.33 1456.04 Q1478.57 1455.21 1476.77 1454.77 Q1474.98 1454.33 1473.23 1454.33 Q1468.6 1454.33 1466.14 1457.45 Q1463.71 1460.58 1463.36 1466.9 Q1464.73 1464.89 1466.79 1463.82 Q1468.85 1462.73 1471.33 1462.73 Q1476.54 1462.73 1479.55 1465.9 Q1482.58 1469.05 1482.58 1474.49 Q1482.58 1479.82 1479.43 1483.03 Q1476.28 1486.25 1471.05 1486.25 Q1465.05 1486.25 1461.88 1481.67 Q1458.71 1477.06 1458.71 1468.33 Q1458.71 1460.14 1462.6 1455.28 Q1466.49 1450.39 1473.04 1450.39 Q1474.8 1450.39 1476.58 1450.74 Q1478.39 1451.09 1480.33 1451.78 Z" fill="#000000" fill-rule="nonzero" fill-opacity="1" /><path clip-path="url(#clip510)" d="M1911.7 1469.17 Q1908.37 1469.17 1906.45 1470.95 Q1904.55 1472.73 1904.55 1475.86 Q1904.55 1478.98 1906.45 1480.77 Q1908.37 1482.55 1911.7 1482.55 Q1915.03 1482.55 1916.95 1480.77 Q1918.88 1478.96 1918.88 1475.86 Q1918.88 1472.73 1916.95 1470.95 Q1915.06 1469.17 1911.7 1469.17 M1907.02 1467.18 Q1904.02 1466.44 1902.33 1464.38 Q1900.66 1462.32 1900.66 1459.35 Q1900.66 1455.21 1903.6 1452.8 Q1906.56 1450.39 1911.7 1450.39 Q1916.86 1450.39 1919.8 1452.8 Q1922.74 1455.21 1922.74 1459.35 Q1922.74 1462.32 1921.05 1464.38 Q1919.39 1466.44 1916.4 1467.18 Q1919.78 1467.96 1921.65 1470.26 Q1923.55 1472.55 1923.55 1475.86 Q1923.55 1480.88 1920.47 1483.57 Q1917.42 1486.25 1911.7 1486.25 Q1905.98 1486.25 1902.9 1483.57 Q1899.85 1480.88 1899.85 1475.86 Q1899.85 1472.55 1901.75 1470.26 Q1903.64 1467.96 1907.02 1467.18 M1905.31 1459.79 Q1905.31 1462.48 1906.98 1463.98 Q1908.67 1465.49 1911.7 1465.49 Q1914.71 1465.49 1916.4 1463.98 Q1918.11 1462.48 1918.11 1459.79 Q1918.11 1457.11 1916.4 1455.6 Q1914.71 1454.1 1911.7 1454.1 Q1908.67 1454.1 1906.98 1455.6 Q1905.31 1457.11 1905.31 1459.79 Z" fill="#000000" fill-rule="nonzero" fill-opacity="1" /><path clip-path="url(#clip510)" d="M2327.44 1481.64 L2335.08 1481.64 L2335.08 1455.28 L2326.77 1456.95 L2326.77 1452.69 L2335.04 1451.02 L2339.71 1451.02 L2339.71 1481.64 L2347.35 1481.64 L2347.35 1485.58 L2327.44 1485.58 L2327.44 1481.64 Z" fill="#000000" fill-rule="nonzero" fill-opacity="1" /><path clip-path="url(#clip510)" d="M2366.8 1454.1 Q2363.18 1454.1 2361.36 1457.66 Q2359.55 1461.2 2359.55 1468.33 Q2359.55 1475.44 2361.36 1479.01 Q2363.18 1482.55 2366.8 1482.55 Q2370.43 1482.55 2372.23 1479.01 Q2374.06 1475.44 2374.06 1468.33 Q2374.06 1461.2 2372.23 1457.66 Q2370.43 1454.1 2366.8 1454.1 M2366.8 1450.39 Q2372.61 1450.39 2375.66 1455 Q2378.74 1459.58 2378.74 1468.33 Q2378.74 1477.06 2375.66 1481.67 Q2372.61 1486.25 2366.8 1486.25 Q2360.99 1486.25 2357.91 1481.67 Q2354.85 1477.06 2354.85 1468.33 Q2354.85 1459.58 2357.91 1455 Q2360.99 1450.39 2366.8 1450.39 Z" fill="#000000" fill-rule="nonzero" fill-opacity="1" /><path clip-path="url(#clip510)" d="M1249.18 1522.27 L1249.18 1532.4 L1261.24 1532.4 L1261.24 1536.95 L1249.18 1536.95 L1249.18 1556.3 Q1249.18 1560.66 1250.36 1561.9 Q1251.57 1563.14 1255.23 1563.14 L1261.24 1563.14 L1261.24 1568.04 L1255.23 1568.04 Q1248.45 1568.04 1245.87 1565.53 Q1243.29 1562.98 1243.29 1556.3 L1243.29 1536.95 L1238.99 1536.95 L1238.99 1532.4 L1243.29 1532.4 L1243.29 1522.27 L1249.18 1522.27 Z" fill="#000000" fill-rule="nonzero" fill-opacity="1" /><polyline clip-path="url(#clip510)" style="stroke:#000000; stroke-linecap:round; stroke-linejoin:round; stroke-width:4; stroke-opacity:1; fill:none" points="147.478,1423.18 147.478,47.2441 "/>
<polyline clip-path="url(#clip510)" style="stroke:#000000; stroke-linecap:round; stroke-linejoin:round; stroke-width:4; stroke-opacity:1; fill:none" points="147.478,1161.09 166.376,1161.09 "/>
<polyline clip-path="url(#clip510)" style="stroke:#000000; stroke-linecap:round; stroke-linejoin:round; stroke-width:4; stroke-opacity:1; fill:none" points="147.478,842.429 166.376,842.429 "/>
<polyline clip-path="url(#clip510)" style="stroke:#000000; stroke-linecap:round; stroke-linejoin:round; stroke-width:4; stroke-opacity:1; fill:none" points="147.478,523.763 166.376,523.763 "/>
<polyline clip-path="url(#clip510)" style="stroke:#000000; stroke-linecap:round; stroke-linejoin:round; stroke-width:4; stroke-opacity:1; fill:none" points="147.478,205.098 166.376,205.098 "/>
<path clip-path="url(#clip510)" d="M50.9921 1161.55 L80.6679 1161.55 L80.6679 1165.48 L50.9921 1165.48 L50.9921 1161.55 Z" fill="#000000" fill-rule="nonzero" fill-opacity="1" /><path clip-path="url(#clip510)" d="M91.5706 1174.44 L99.2095 1174.44 L99.2095 1148.07 L90.8993 1149.74 L90.8993 1145.48 L99.1632 1143.81 L103.839 1143.81 L103.839 1174.44 L111.478 1174.44 L111.478 1178.37 L91.5706 1178.37 L91.5706 1174.44 Z" fill="#000000" fill-rule="nonzero" fill-opacity="1" /><path clip-path="url(#clip510)" d="M99.5335 828.227 Q95.9224 828.227 94.0937 831.792 Q92.2882 835.334 92.2882 842.463 Q92.2882 849.57 94.0937 853.135 Q95.9224 856.676 99.5335 856.676 Q103.168 856.676 104.973 853.135 Q106.802 849.57 106.802 842.463 Q106.802 835.334 104.973 831.792 Q103.168 828.227 99.5335 828.227 M99.5335 824.524 Q105.344 824.524 108.399 829.13 Q111.478 833.713 111.478 842.463 Q111.478 851.19 108.399 855.797 Q105.344 860.38 99.5335 860.38 Q93.7234 860.38 90.6447 855.797 Q87.5892 851.19 87.5892 842.463 Q87.5892 833.713 90.6447 829.13 Q93.7234 824.524 99.5335 824.524 Z" fill="#000000" fill-rule="nonzero" fill-opacity="1" /><path clip-path="url(#clip510)" d="M91.5706 537.108 L99.2095 537.108 L99.2095 510.743 L90.8993 512.409 L90.8993 508.15 L99.1632 506.483 L103.839 506.483 L103.839 537.108 L111.478 537.108 L111.478 541.043 L91.5706 541.043 L91.5706 537.108 Z" fill="#000000" fill-rule="nonzero" fill-opacity="1" /><path clip-path="url(#clip510)" d="M95.1586 218.443 L111.478 218.443 L111.478 222.378 L89.5336 222.378 L89.5336 218.443 Q92.1956 215.688 96.7789 211.059 Q101.385 206.406 102.566 205.063 Q104.811 202.54 105.691 200.804 Q106.594 199.045 106.594 197.355 Q106.594 194.6 104.649 192.864 Q102.728 191.128 99.6261 191.128 Q97.4271 191.128 94.9734 191.892 Q92.5428 192.656 89.7651 194.207 L89.7651 189.485 Q92.5891 188.35 95.0428 187.772 Q97.4965 187.193 99.5335 187.193 Q104.904 187.193 108.098 189.878 Q111.293 192.563 111.293 197.054 Q111.293 199.184 110.483 201.105 Q109.696 203.003 107.589 205.596 Q107.01 206.267 103.909 209.484 Q100.807 212.679 95.1586 218.443 Z" fill="#000000" fill-rule="nonzero" fill-opacity="1" /><polyline clip-path="url(#clip512)" style="stroke:#009af9; stroke-linecap:round; stroke-linejoin:round; stroke-width:4; stroke-opacity:1; fill:none" points="147.478,842.429 149.685,835.315 151.893,828.295 154.1,821.368 156.308,814.534 158.515,807.789 160.723,801.135 162.93,794.568 165.138,788.089 167.345,781.695 169.553,775.386 171.76,769.161 173.968,763.019 176.175,756.957 178.383,750.977 180.59,745.075 182.798,739.252 185.005,733.506 187.213,727.836 189.42,722.241 191.628,716.721 193.835,711.273 196.043,705.898 198.25,700.594 200.458,695.361 202.665,690.197 204.873,685.101 207.08,680.073 209.288,675.111 211.495,670.216 213.702,665.385 215.91,660.618 218.117,655.915 220.325,651.273 222.532,646.694 224.74,642.175 226.947,637.716 229.155,633.316 231.362,628.974 233.57,624.69 235.777,620.463 237.985,616.292 240.192,612.176 242.4,608.115 244.607,604.107 246.815,600.153 249.022,596.251 251.23,592.401 253.437,588.602 255.645,584.853 257.852,581.154 260.06,577.504 262.267,573.902 264.475,570.349 266.682,566.842 268.89,563.382 271.097,559.967 273.305,556.598 275.512,553.274 277.72,549.993 279.927,546.756 282.135,543.562 284.342,540.411 286.549,537.301 288.757,534.232 290.964,531.204 293.172,528.216 295.379,525.268 297.587,522.359 299.794,519.489 302.002,516.656 304.209,513.861 306.417,511.103 308.624,508.382 310.832,505.697 313.039,503.047 315.247,500.433 317.454,497.853 319.662,495.308 321.869,492.796 324.077,490.317 326.284,487.872 328.492,485.459 330.699,483.077 332.907,480.728 335.114,478.409 337.322,476.121 339.529,473.864 341.737,471.636 343.944,469.438 346.152,467.269 348.359,465.129 350.567,463.017 352.774,460.934 354.982,458.996 357.189,458.309 359.397,458.947 361.604,460.677 363.811,463.289 366.019,466.589 368.226,470.404 370.434,474.578 372.641,478.975 374.849,483.48 377.056,487.992 379.264,492.434 381.471,496.745 383.679,500.883 385.886,504.827 388.094,508.574 390.301,512.138 392.509,515.555 394.716,518.877 396.924,522.179 399.131,525.545 401.339,528.917 403.546,532.245 405.754,535.528 407.961,538.768 410.169,541.965 412.376,545.119 414.584,548.232 416.791,551.304 418.999,554.334 421.206,557.325 423.414,560.276 425.621,563.188 427.829,566.062 430.036,568.897 432.244,571.695 434.451,574.456 436.659,577.18 438.866,579.868 441.073,582.52 443.281,585.137 445.488,587.72 447.696,590.268 449.903,592.782 452.111,595.263 454.318,597.711 456.526,600.127 458.733,602.51 460.941,604.862 463.148,607.183 465.356,609.473 467.563,611.732 469.771,613.961 471.978,616.161 474.186,618.332 476.393,620.474 478.601,622.587 480.808,624.673 483.016,626.73 485.223,628.761 487.431,630.764 489.638,632.741 491.846,634.692 494.053,636.617 496.261,638.517 498.468,640.391 500.676,642.241 502.883,644.066 505.091,645.866 507.298,647.643 509.506,649.397 511.713,651.127 513.921,652.835 516.128,654.519 518.335,656.182 520.543,657.822 522.75,659.441 524.958,661.038 527.165,662.614 529.373,664.169 531.58,665.703 533.788,667.217 535.995,668.711 538.203,670.185 540.41,671.64 542.618,673.075 544.825,674.492 547.033,675.889 549.24,677.268 551.448,678.629 553.655,679.971 555.863,681.296 558.07,682.603 560.278,683.893 562.485,685.166 564.693,686.422 566.9,687.662 569.108,688.884 571.315,690.091 573.523,691.282 575.73,692.457 577.938,693.616 580.145,694.76 582.353,695.846 584.56,695.77 586.768,694.25 588.975,691.547 591.182,687.898 593.39,683.52 595.597,678.607 597.805,673.331 600.012,667.844 602.22,662.275 604.427,656.73 606.635,651.296 608.842,646.036 611.05,640.993 613.257,636.186 615.465,631.613 617.672,627.253 619.88,623.059 622.087,618.965 624.295,614.882 626.502,610.712 628.71,606.548 630.917,602.439 633.125,598.384 635.332,594.383 637.54,590.436 639.747,586.54 641.955,582.697 644.162,578.904 646.37,575.161 648.577,571.468 650.785,567.824 652.992,564.229 655.2,560.681 657.407,557.179 659.615,553.725 661.822,550.316 664.03,546.952 666.237,543.633 668.444,540.358 670.652,537.126 672.859,533.937 675.067,530.791 677.274,527.686 679.482,524.622 681.689,521.6 683.897,518.617 686.104,515.674 688.312,512.77 690.519,509.904 692.727,507.076 694.934,504.286 697.142,501.533 699.349,498.817 701.557,496.136 703.764,493.491 705.972,490.881 708.179,488.306 710.387,485.765 712.594,483.257 714.802,480.783 717.009,478.342 719.217,475.933 721.424,473.555 723.632,471.21 725.839,468.895 728.047,466.611 730.254,464.357 732.462,462.134 734.669,459.939 736.877,457.774 739.084,455.637 741.292,453.529 743.499,451.449 745.706,449.396 747.914,447.37 750.121,445.372 752.329,443.399 754.536,441.453 756.744,439.533 758.951,437.639 761.159,435.769 763.366,433.924 765.574,432.104 767.781,430.308 769.989,428.535 772.196,426.786 774.404,425.061 776.611,423.358 778.819,421.678 781.026,420.02 783.234,418.384 785.441,416.77 787.649,415.177 789.856,413.605 792.064,412.054 794.271,410.523 796.479,408.878 798.686,406.055 800.894,403.075 803.101,401.164 805.309,401.142 807.516,403.425 809.724,408.024 811.931,414.545 814.139,422.19 816.346,429.757 818.553,436.757 820.761,443.665 822.968,450.481 825.176,457.207 827.383,463.844 829.591,470.392 831.798,476.854 834.006,483.231 836.213,489.522 838.421,495.731 840.628,501.857 842.836,507.902 845.043,513.867 847.251,519.752 849.458,525.56 851.666,531.29 853.873,536.945 856.081,542.524 858.288,548.03 860.496,553.462 862.703,558.823 864.911,564.112 867.118,569.331 869.326,574.481 871.533,579.563 873.741,584.577 875.948,589.525 878.156,594.407 880.363,599.224 882.571,603.978 884.778,608.668 886.986,613.297 889.193,617.864 891.401,622.37 893.608,626.817 895.815,631.205 898.023,635.535 900.23,639.807 902.438,644.023 904.645,648.183 906.853,652.287 909.06,656.338 911.268,660.334 913.475,664.278 915.683,668.169 917.89,672.009 920.098,675.798 922.305,679.536 924.513,683.225 926.72,686.865 928.928,690.457 931.135,694.001 933.343,697.498 935.55,700.949 937.758,704.354 939.965,707.714 942.173,711.03 944.38,714.301 946.588,717.529 948.795,720.714 951.003,723.857 953.21,726.959 955.418,730.019 957.625,733.038 959.833,736.018 962.04,738.958 964.248,741.859 966.455,744.722 968.663,747.547 970.87,750.334 973.077,753.084 975.285,755.798 977.492,758.476 979.7,761.119 981.907,763.726 984.115,766.299 986.322,768.837 988.53,771.342 990.737,773.814 992.945,776.253 995.152,778.66 997.36,781.035 999.567,783.378 1001.77,785.69 1003.98,787.972 1006.19,790.223 1008.4,792.445 1010.6,794.637 1012.81,796.8 1015.02,798.934 1017.23,801.04 1019.43,803.118 1021.64,805.169 1023.85,807.237 1026.06,810.056 1028.26,813.754 1030.47,818.173 1032.68,823.169 1034.89,828.61 1037.09,834.376 1039.3,840.359 1041.51,846.466 1043.72,852.615 1045.92,858.736 1048.13,864.773 1050.34,870.683 1052.55,876.433 1054.75,882.005 1056.96,887.393 1059.17,892.603 1061.38,897.655 1063.58,902.581 1065.79,907.424 1068,912.243 1070.21,917.09 1072.41,921.897 1074.62,926.64 1076.83,931.32 1079.04,935.938 1081.24,940.494 1083.45,944.99 1085.66,949.427 1087.87,953.805 1090.07,958.125 1092.28,962.387 1094.49,966.593 1096.7,970.744 1098.9,974.839 1101.11,978.88 1103.32,982.867 1105.53,986.802 1107.73,990.685 1109.94,994.516 1112.15,998.296 1114.36,1002.03 1116.56,1005.71 1118.77,1009.34 1120.98,1012.92 1123.19,1016.46 1125.39,1019.95 1127.6,1023.39 1129.81,1026.79 1132.02,1030.14 1134.22,1033.45 1136.43,1036.71 1138.64,1039.93 1140.85,1043.11 1143.05,1046.24 1145.26,1049.34 1147.47,1052.39 1149.68,1055.4 1151.88,1058.38 1154.09,1061.31 1156.3,1064.2 1158.51,1067.06 1160.71,1069.88 1162.92,1072.66 1165.13,1075.4 1167.34,1078.11 1169.54,1080.78 1171.75,1083.42 1173.96,1086.02 1176.17,1088.59 1178.37,1091.12 1180.58,1093.62 1182.79,1096.09 1185,1098.52 1187.2,1100.92 1189.41,1103.29 1191.62,1105.63 1193.83,1107.93 1196.03,1110.21 1198.24,1112.46 1200.45,1114.67 1202.66,1116.86 1204.86,1119.02 1207.07,1121.15 1209.28,1123.25 1211.49,1125.32 1213.69,1127.37 1215.9,1129.39 1218.11,1131.38 1220.32,1133.34 1222.52,1135.28 1224.73,1137.2 1226.94,1139.08 1229.15,1140.95 1231.35,1142.79 1233.56,1144.6 1235.77,1146.39 1237.98,1148.16 1240.18,1149.9 1242.39,1151.62 1244.6,1153.32 1246.81,1154.99 1249.01,1156.5 1251.22,1156.5 1253.43,1154.81 1255.64,1151.66 1257.84,1147.25 1260.05,1141.77 1262.26,1135.41 1264.47,1128.32 1266.67,1120.66 1268.88,1112.58 1271.09,1104.2 1273.3,1095.63 1275.5,1086.99 1277.71,1078.36 1279.92,1069.82 1282.13,1061.43 1284.33,1053.26 1286.54,1045.33 1288.75,1037.68 1290.96,1030.32 1293.16,1023.26 1295.37,1016.48 1297.58,1009.97 1299.79,1003.68 1301.99,997.58 1304.2,991.597 1306.41,985.663 1308.62,979.691 1310.82,973.612 1313.03,967.574 1315.24,961.616 1317.45,955.737 1319.65,949.936 1321.86,944.211 1324.07,938.563 1326.28,932.989 1328.48,927.49 1330.69,922.063 1332.9,916.708 1335.11,911.425 1337.31,906.211 1339.52,901.066 1341.73,895.99 1343.94,890.981 1346.14,886.038 1348.35,881.161 1350.56,876.348 1352.76,871.599 1354.97,866.913 1357.18,862.289 1359.39,857.727 1361.59,853.225 1363.8,848.782 1366.01,844.399 1368.22,840.074 1370.42,835.806 1372.63,831.595 1374.84,827.44 1377.05,823.339 1379.25,819.294 1381.46,815.302 1383.67,811.362 1385.88,807.476 1388.08,803.64 1390.29,799.856 1392.5,796.121 1394.71,792.437 1396.91,788.801 1399.12,785.213 1401.33,781.673 1403.54,778.18 1405.74,774.733 1407.95,771.331 1410.16,767.975 1412.37,764.663 1414.57,761.396 1416.78,758.171 1418.99,754.989 1421.2,751.85 1423.4,748.751 1425.61,745.695 1427.82,742.678 1430.03,739.702 1432.23,736.765 1434.44,733.867 1436.65,731.007 1438.86,728.185 1441.06,725.401 1443.27,722.654 1445.48,719.943 1447.69,717.268 1449.89,714.628 1452.1,712.024 1454.31,709.454 1456.52,706.918 1458.72,704.415 1460.93,701.946 1463.14,699.51 1465.35,696.996 1467.55,693.037 1469.76,687.559 1471.97,680.962 1474.18,673.592 1476.38,665.748 1478.59,657.679 1480.8,649.584 1483.01,641.615 1485.21,633.871 1487.42,626.404 1489.63,619.216 1491.84,612.259 1494.04,605.437 1496.25,598.61 1498.46,591.816 1500.67,585.112 1502.87,578.497 1505.08,571.97 1507.29,565.53 1509.5,559.175 1511.7,552.904 1513.91,546.716 1516.12,540.61 1518.33,534.585 1520.53,528.64 1522.74,522.773 1524.95,516.985 1527.16,511.273 1529.36,505.637 1531.57,500.076 1533.78,494.588 1535.99,489.174 1538.19,483.831 1540.4,478.559 1542.61,473.357 1544.82,468.224 1547.02,463.159 1549.23,458.161 1551.44,453.229 1553.65,448.363 1555.85,443.562 1558.06,438.824 1560.27,434.149 1562.48,429.536 1564.68,424.984 1566.89,420.492 1569.1,416.06 1571.31,411.687 1573.51,407.371 1575.72,403.113 1577.93,398.911 1580.14,394.765 1582.34,390.674 1584.55,386.637 1586.76,382.654 1588.97,378.723 1591.17,374.844 1593.38,371.017 1595.59,367.241 1597.8,363.515 1600,359.838 1602.21,356.21 1604.42,352.63 1606.63,349.097 1608.83,345.611 1611.04,342.172 1613.25,338.778 1615.46,335.429 1617.66,332.125 1619.87,328.864 1622.08,325.647 1624.29,322.472 1626.49,319.34 1628.7,316.248 1630.91,313.198 1633.12,310.189 1635.32,307.219 1637.53,304.288 1639.74,301.397 1641.95,298.544 1644.15,295.728 1646.36,292.95 1648.57,290.209 1650.78,287.504 1652.98,284.835 1655.19,282.201 1657.4,279.602 1659.61,277.038 1661.81,274.508 1664.02,272.011 1666.23,269.547 1668.44,267.116 1670.64,264.717 1672.85,262.35 1675.06,260.015 1677.27,257.71 1679.47,255.367 1681.68,251.06 1683.89,246.695 1686.1,245.077 1688.3,247.773 1690.51,255.106 1692.72,266.159 1694.93,278.773 1697.13,290.424 1699.34,301.774 1701.55,312.973 1703.76,324.025 1705.96,334.929 1708.17,345.69 1710.38,356.307 1712.59,366.784 1714.79,377.122 1717,387.323 1719.21,397.388 1721.42,407.321 1723.62,417.121 1725.83,426.791 1728.04,436.334 1730.25,445.749 1732.45,455.04 1734.66,464.208 1736.87,473.254 1739.07,482.18 1741.28,490.987 1743.49,499.678 1745.7,508.254 1747.9,516.716 1750.11,525.066 1752.32,533.305 1754.53,541.435 1756.73,549.457 1758.94,557.373 1761.15,565.183 1763.36,572.891 1765.56,580.496 1767.77,588 1769.98,595.405 1772.19,602.712 1774.39,609.922 1776.6,617.036 1778.81,624.056 1781.02,630.983 1783.22,637.818 1785.43,644.562 1787.64,651.217 1789.85,657.784 1792.05,664.264 1794.26,670.657 1796.47,676.966 1798.68,683.192 1800.88,689.334 1803.09,695.396 1805.3,701.377 1807.51,707.278 1809.71,713.102 1811.92,718.848 1814.13,724.518 1816.34,730.113 1818.54,735.634 1820.75,741.081 1822.96,746.457 1825.17,751.761 1827.37,756.995 1829.58,762.159 1831.79,767.255 1834,772.284 1836.2,777.245 1838.41,782.141 1840.62,786.973 1842.83,791.739 1845.03,796.443 1847.24,801.085 1849.45,805.664 1851.66,810.183 1853.86,814.642 1856.07,819.042 1858.28,823.384 1860.49,827.668 1862.69,831.895 1864.9,836.066 1867.11,840.182 1869.32,844.244 1871.52,848.251 1873.73,852.205 1875.94,856.107 1878.15,859.957 1880.35,863.756 1882.56,867.505 1884.77,871.204 1886.98,874.855 1889.18,878.456 1891.39,882.009 1893.6,885.513 1895.81,888.968 1898.01,892.378 1900.22,895.741 1902.43,899.061 1904.64,902.336 1906.84,905.569 1909.05,908.761 1911.26,911.911 1913.47,915.022 1915.67,918.093 1917.88,921.126 1920.09,924.121 1922.3,927.079 1924.5,930 1926.71,932.885 1928.92,935.734 1931.13,938.548 1933.33,941.328 1935.54,944.072 1937.75,946.783 1939.96,949.459 1942.16,952.102 1944.37,954.711 1946.58,957.286 1948.79,959.828 1950.99,962.336 1953.2,964.811 1955.41,967.252 1957.62,969.66 1959.82,972.036 1962.03,974.38 1964.24,976.693 1966.45,978.975 1968.65,981.227 1970.86,983.449 1973.07,985.642 1975.28,987.806 1977.48,989.941 1979.69,992.048 1981.9,994.126 1984.11,996.178 1986.31,998.201 1988.52,1000.2 1990.73,1002.17 1992.94,1004.11 1995.14,1006.03 1997.35,1007.93 1999.56,1009.79 2001.77,1011.64 2003.97,1013.46 2006.18,1015.25 2008.39,1017.02 2010.6,1018.77 2012.8,1020.49 2015.01,1022.19 2017.22,1023.87 2019.43,1025.53 2021.63,1027.16 2023.84,1028.78 2026.05,1030.37 2028.26,1031.94 2030.46,1033.49 2032.67,1035.02 2034.88,1036.53 2037.09,1038.02 2039.29,1039.49 2041.5,1040.94 2043.71,1042.37 2045.92,1043.78 2048.12,1045.17 2050.33,1046.55 2052.54,1047.9 2054.75,1049.24 2056.95,1050.56 2059.16,1051.86 2061.37,1053.15 2063.58,1054.42 2065.78,1055.67 2067.99,1056.91 2070.2,1058.13 2072.41,1059.33 2074.61,1060.51 2076.82,1061.69 2079.03,1062.84 2081.24,1063.98 2083.44,1065.11 2085.65,1066.22 2087.86,1067.31 2090.07,1068.39 2092.27,1069.46 2094.48,1070.51 2096.69,1071.55 2098.9,1072.57 2101.1,1073.58 2103.31,1074.58 2105.52,1075.57 2107.73,1076.54 2109.93,1077.49 2112.14,1078.44 2114.35,1079.37 2116.55,1080.29 2118.76,1081.2 2120.97,1082.1 2123.18,1082.98 2125.38,1083.86 2127.59,1084.72 2129.8,1085.57 2132.01,1086.42 2134.21,1087.54 2136.42,1089.02 2138.63,1090.85 2140.84,1092.97 2143.04,1095.36 2145.25,1097.99 2147.46,1100.83 2149.67,1103.85 2151.87,1107.03 2154.08,1110.34 2156.29,1113.76 2158.5,1117.26 2160.7,1120.83 2162.91,1124.44 2165.12,1128.08 2167.33,1131.73 2169.53,1135.38 2171.74,1139.01 2173.95,1142.61 2176.16,1146.16 2178.36,1149.67 2180.57,1153.11 2182.78,1156.48 2184.99,1159.78 2187.19,1163.01 2189.4,1166.15 2191.61,1169.2 2193.82,1172.18 2196.02,1175.07 2198.23,1177.88 2200.44,1180.61 2202.65,1183.27 2204.85,1185.87 2207.06,1188.41 2209.27,1190.9 2211.48,1193.35 2213.68,1195.78 2215.89,1198.19 2218.1,1200.61 2220.31,1203.04 2222.51,1205.44 2224.72,1207.81 2226.93,1210.15 2229.14,1212.46 2231.34,1214.73 2233.55,1216.98 2235.76,1219.2 2237.97,1221.39 2240.17,1223.55 2242.38,1225.68 2244.59,1227.78 2246.8,1229.85 2249,1231.9 2251.21,1233.92 2253.42,1235.91 2255.63,1237.88 2257.83,1239.82 2260.04,1241.73 2262.25,1243.62 2264.46,1245.49 2266.66,1247.33 2268.87,1249.14 2271.08,1250.93 2273.29,1252.7 2275.49,1254.44 2277.7,1256.16 2279.91,1257.86 2282.12,1259.54 2284.32,1261.19 2286.53,1262.82 2288.74,1264.43 2290.95,1266.02 2293.15,1267.59 2295.36,1269.14 2297.57,1270.66 2299.78,1272.17 2301.98,1273.65 2304.19,1275.12 2306.4,1276.57 2308.61,1277.99 2310.81,1279.4 2313.02,1280.79 2315.23,1282.16 2317.44,1283.52 2319.64,1284.85 2321.85,1286.17 2324.06,1287.47 2326.27,1288.75 2328.47,1290.02 2330.68,1291.27 2332.89,1292.5 2335.1,1293.72 2337.3,1294.92 2339.51,1296.1 2341.72,1297.27 2343.93,1298.42 2346.13,1299.56 2348.34,1300.68 2350.55,1301.79 2352.76,1302.88 "/>
<polyline clip-path="url(#clip512)" style="stroke:#e26f46; stroke-linecap:round; stroke-linejoin:round; stroke-width:4; stroke-opacity:1; fill:none" points="147.478,305.848 149.685,305.848 151.893,305.848 154.1,305.848 156.308,305.848 158.515,305.848 160.723,305.848 162.93,305.848 165.138,305.848 167.345,305.848 169.553,305.848 171.76,305.848 173.968,305.848 176.175,305.848 178.383,305.848 180.59,305.848 182.798,305.848 185.005,305.848 187.213,305.848 189.42,305.848 191.628,305.848 193.835,305.848 196.043,305.848 198.25,305.848 200.458,305.848 202.665,305.848 204.873,305.848 207.08,305.848 209.288,305.848 211.495,305.848 213.702,305.848 215.91,305.848 218.117,305.848 220.325,305.848 222.532,305.848 224.74,305.848 226.947,305.848 229.155,305.848 231.362,305.848 233.57,305.848 235.777,305.848 237.985,305.848 240.192,305.848 242.4,305.848 244.607,305.848 246.815,305.848 249.022,305.848 251.23,305.848 253.437,305.848 255.645,305.848 257.852,305.848 260.06,305.848 262.267,305.848 264.475,305.848 266.682,305.848 268.89,305.848 271.097,305.848 273.305,305.848 275.512,305.848 277.72,305.848 279.927,305.848 282.135,305.848 284.342,305.848 286.549,305.848 288.757,305.848 290.964,305.848 293.172,305.848 295.379,305.848 297.587,305.848 299.794,305.848 302.002,305.848 304.209,305.848 306.417,305.848 308.624,305.848 310.832,305.848 313.039,305.848 315.247,305.848 317.454,305.848 319.662,305.848 321.869,305.848 324.077,305.848 326.284,305.848 328.492,305.848 330.699,305.848 332.907,305.848 335.114,305.848 337.322,305.848 339.529,305.848 341.737,305.848 343.944,305.848 346.152,305.848 348.359,305.848 350.567,305.848 352.774,305.848 354.982,305.848 357.189,305.848 359.397,305.848 361.604,305.848 363.811,305.848 366.019,305.848 368.226,779.902 370.434,779.902 372.641,779.902 374.849,779.902 377.056,779.902 379.264,779.902 381.471,779.902 383.679,779.902 385.886,779.902 388.094,779.902 390.301,779.902 392.509,779.902 394.716,779.902 396.924,779.902 399.131,779.902 401.339,779.902 403.546,779.902 405.754,779.902 407.961,779.902 410.169,779.902 412.376,779.902 414.584,779.902 416.791,779.902 418.999,779.902 421.206,779.902 423.414,779.902 425.621,779.902 427.829,779.902 430.036,779.902 432.244,779.902 434.451,779.902 436.659,779.902 438.866,779.902 441.073,779.902 443.281,779.902 445.488,779.902 447.696,779.902 449.903,779.902 452.111,779.902 454.318,779.902 456.526,779.902 458.733,779.902 460.941,779.902 463.148,779.902 465.356,779.902 467.563,779.902 469.771,779.902 471.978,779.902 474.186,779.902 476.393,779.902 478.601,779.902 480.808,779.902 483.016,779.902 485.223,779.902 487.431,779.902 489.638,779.902 491.846,779.902 494.053,779.902 496.261,779.902 498.468,779.902 500.676,779.902 502.883,779.902 505.091,779.902 507.298,779.902 509.506,779.902 511.713,779.902 513.921,779.902 516.128,779.902 518.335,779.902 520.543,779.902 522.75,779.902 524.958,779.902 527.165,779.902 529.373,779.902 531.58,779.902 533.788,779.902 535.995,779.902 538.203,779.902 540.41,779.902 542.618,779.902 544.825,779.902 547.033,779.902 549.24,779.902 551.448,779.902 553.655,779.902 555.863,779.902 558.07,779.902 560.278,779.902 562.485,779.902 564.693,779.902 566.9,779.902 569.108,779.902 571.315,779.902 573.523,779.902 575.73,779.902 577.938,779.902 580.145,779.902 582.353,779.902 584.56,779.902 586.768,779.902 588.975,296.622 591.182,296.622 593.39,296.622 595.597,296.622 597.805,296.622 600.012,296.622 602.22,296.622 604.427,296.622 606.635,296.622 608.842,296.622 611.05,296.622 613.257,296.622 615.465,296.622 617.672,296.622 619.88,296.622 622.087,296.622 624.295,296.622 626.502,296.622 628.71,296.622 630.917,296.622 633.125,296.622 635.332,296.622 637.54,296.622 639.747,296.622 641.955,296.622 644.162,296.622 646.37,296.622 648.577,296.622 650.785,296.622 652.992,296.622 655.2,296.622 657.407,296.622 659.615,296.622 661.822,296.622 664.03,296.622 666.237,296.622 668.444,296.622 670.652,296.622 672.859,296.622 675.067,296.622 677.274,296.622 679.482,296.622 681.689,296.622 683.897,296.622 686.104,296.622 688.312,296.622 690.519,296.622 692.727,296.622 694.934,296.622 697.142,296.622 699.349,296.622 701.557,296.622 703.764,296.622 705.972,296.622 708.179,296.622 710.387,296.622 712.594,296.622 714.802,296.622 717.009,296.622 719.217,296.622 721.424,296.622 723.632,296.622 725.839,296.622 728.047,296.622 730.254,296.622 732.462,296.622 734.669,296.622 736.877,296.622 739.084,296.622 741.292,296.622 743.499,296.622 745.706,296.622 747.914,296.622 750.121,296.622 752.329,296.622 754.536,296.622 756.744,296.622 758.951,296.622 761.159,296.622 763.366,296.622 765.574,296.622 767.781,296.622 769.989,296.622 772.196,296.622 774.404,296.622 776.611,296.622 778.819,296.622 781.026,296.622 783.234,296.622 785.441,296.622 787.649,296.622 789.856,296.622 792.064,296.622 794.271,296.622 796.479,296.622 798.686,296.622 800.894,296.622 803.101,296.622 805.309,296.622 807.516,296.622 809.724,957.781 811.931,957.781 814.139,957.781 816.346,957.781 818.553,957.781 820.761,957.781 822.968,957.781 825.176,957.781 827.383,957.781 829.591,957.781 831.798,957.781 834.006,957.781 836.213,957.781 838.421,957.781 840.628,957.781 842.836,957.781 845.043,957.781 847.251,957.781 849.458,957.781 851.666,957.781 853.873,957.781 856.081,957.781 858.288,957.781 860.496,957.781 862.703,957.781 864.911,957.781 867.118,957.781 869.326,957.781 871.533,957.781 873.741,957.781 875.948,957.781 878.156,957.781 880.363,957.781 882.571,957.781 884.778,957.781 886.986,957.781 889.193,957.781 891.401,957.781 893.608,957.781 895.815,957.781 898.023,957.781 900.23,957.781 902.438,957.781 904.645,957.781 906.853,957.781 909.06,957.781 911.268,957.781 913.475,957.781 915.683,957.781 917.89,957.781 920.098,957.781 922.305,957.781 924.513,957.781 926.72,957.781 928.928,957.781 931.135,957.781 933.343,957.781 935.55,957.781 937.758,957.781 939.965,957.781 942.173,957.781 944.38,957.781 946.588,957.781 948.795,957.781 951.003,957.781 953.21,957.781 955.418,957.781 957.625,957.781 959.833,957.781 962.04,957.781 964.248,957.781 966.455,957.781 968.663,957.781 970.87,957.781 973.077,957.781 975.285,957.781 977.492,957.781 979.7,957.781 981.907,957.781 984.115,957.781 986.322,957.781 988.53,957.781 990.737,957.781 992.945,957.781 995.152,957.781 997.36,957.781 999.567,957.781 1001.77,957.781 1003.98,957.781 1006.19,957.781 1008.4,957.781 1010.6,957.781 1012.81,957.781 1015.02,957.781 1017.23,957.781 1019.43,957.781 1021.64,957.781 1023.85,957.781 1026.06,957.781 1028.26,957.781 1030.47,1279.63 1032.68,1279.63 1034.89,1279.63 1037.09,1279.63 1039.3,1279.63 1041.51,1279.63 1043.72,1279.63 1045.92,1279.63 1048.13,1279.63 1050.34,1279.63 1052.55,1279.63 1054.75,1279.63 1056.96,1279.63 1059.17,1279.63 1061.38,1279.63 1063.58,1279.63 1065.79,1279.63 1068,1279.63 1070.21,1279.63 1072.41,1279.63 1074.62,1279.63 1076.83,1279.63 1079.04,1279.63 1081.24,1279.63 1083.45,1279.63 1085.66,1279.63 1087.87,1279.63 1090.07,1279.63 1092.28,1279.63 1094.49,1279.63 1096.7,1279.63 1098.9,1279.63 1101.11,1279.63 1103.32,1279.63 1105.53,1279.63 1107.73,1279.63 1109.94,1279.63 1112.15,1279.63 1114.36,1279.63 1116.56,1279.63 1118.77,1279.63 1120.98,1279.63 1123.19,1279.63 1125.39,1279.63 1127.6,1279.63 1129.81,1279.63 1132.02,1279.63 1134.22,1279.63 1136.43,1279.63 1138.64,1279.63 1140.85,1279.63 1143.05,1279.63 1145.26,1279.63 1147.47,1279.63 1149.68,1279.63 1151.88,1279.63 1154.09,1279.63 1156.3,1279.63 1158.51,1279.63 1160.71,1279.63 1162.92,1279.63 1165.13,1279.63 1167.34,1279.63 1169.54,1279.63 1171.75,1279.63 1173.96,1279.63 1176.17,1279.63 1178.37,1279.63 1180.58,1279.63 1182.79,1279.63 1185,1279.63 1187.2,1279.63 1189.41,1279.63 1191.62,1279.63 1193.83,1279.63 1196.03,1279.63 1198.24,1279.63 1200.45,1279.63 1202.66,1279.63 1204.86,1279.63 1207.07,1279.63 1209.28,1279.63 1211.49,1279.63 1213.69,1279.63 1215.9,1279.63 1218.11,1279.63 1220.32,1279.63 1222.52,1279.63 1224.73,1279.63 1226.94,1279.63 1229.15,1279.63 1231.35,1279.63 1233.56,1279.63 1235.77,1279.63 1237.98,1279.63 1240.18,1279.63 1242.39,1279.63 1244.6,1279.63 1246.81,1279.63 1249.01,1279.63 1251.22,518.177 1253.43,518.177 1255.64,518.177 1257.84,518.177 1260.05,518.177 1262.26,518.177 1264.47,518.177 1266.67,518.177 1268.88,518.177 1271.09,518.177 1273.3,518.177 1275.5,518.177 1277.71,518.177 1279.92,518.177 1282.13,518.177 1284.33,518.177 1286.54,518.177 1288.75,518.177 1290.96,518.177 1293.16,518.177 1295.37,518.177 1297.58,518.177 1299.79,518.177 1301.99,518.177 1304.2,518.177 1306.41,518.177 1308.62,518.177 1310.82,518.177 1313.03,518.177 1315.24,518.177 1317.45,518.177 1319.65,518.177 1321.86,518.177 1324.07,518.177 1326.28,518.177 1328.48,518.177 1330.69,518.177 1332.9,518.177 1335.11,518.177 1337.31,518.177 1339.52,518.177 1341.73,518.177 1343.94,518.177 1346.14,518.177 1348.35,518.177 1350.56,518.177 1352.76,518.177 1354.97,518.177 1357.18,518.177 1359.39,518.177 1361.59,518.177 1363.8,518.177 1366.01,518.177 1368.22,518.177 1370.42,518.177 1372.63,518.177 1374.84,518.177 1377.05,518.177 1379.25,518.177 1381.46,518.177 1383.67,518.177 1385.88,518.177 1388.08,518.177 1390.29,518.177 1392.5,518.177 1394.71,518.177 1396.91,518.177 1399.12,518.177 1401.33,518.177 1403.54,518.177 1405.74,518.177 1407.95,518.177 1410.16,518.177 1412.37,518.177 1414.57,518.177 1416.78,518.177 1418.99,518.177 1421.2,518.177 1423.4,518.177 1425.61,518.177 1427.82,518.177 1430.03,518.177 1432.23,518.177 1434.44,518.177 1436.65,518.177 1438.86,518.177 1441.06,518.177 1443.27,518.177 1445.48,518.177 1447.69,518.177 1449.89,518.177 1452.1,518.177 1454.31,518.177 1456.52,518.177 1458.72,518.177 1460.93,518.177 1463.14,518.177 1465.35,518.177 1467.55,518.177 1469.76,518.177 1471.97,86.1857 1474.18,86.1857 1476.38,86.1857 1478.59,86.1857 1480.8,86.1857 1483.01,86.1857 1485.21,86.1857 1487.42,86.1857 1489.63,86.1857 1491.84,86.1857 1494.04,86.1857 1496.25,86.1857 1498.46,86.1857 1500.67,86.1857 1502.87,86.1857 1505.08,86.1857 1507.29,86.1857 1509.5,86.1857 1511.7,86.1857 1513.91,86.1857 1516.12,86.1857 1518.33,86.1857 1520.53,86.1857 1522.74,86.1857 1524.95,86.1857 1527.16,86.1857 1529.36,86.1857 1531.57,86.1857 1533.78,86.1857 1535.99,86.1857 1538.19,86.1857 1540.4,86.1857 1542.61,86.1857 1544.82,86.1857 1547.02,86.1857 1549.23,86.1857 1551.44,86.1857 1553.65,86.1857 1555.85,86.1857 1558.06,86.1857 1560.27,86.1857 1562.48,86.1857 1564.68,86.1857 1566.89,86.1857 1569.1,86.1857 1571.31,86.1857 1573.51,86.1857 1575.72,86.1857 1577.93,86.1857 1580.14,86.1857 1582.34,86.1857 1584.55,86.1857 1586.76,86.1857 1588.97,86.1857 1591.17,86.1857 1593.38,86.1857 1595.59,86.1857 1597.8,86.1857 1600,86.1857 1602.21,86.1857 1604.42,86.1857 1606.63,86.1857 1608.83,86.1857 1611.04,86.1857 1613.25,86.1857 1615.46,86.1857 1617.66,86.1857 1619.87,86.1857 1622.08,86.1857 1624.29,86.1857 1626.49,86.1857 1628.7,86.1857 1630.91,86.1857 1633.12,86.1857 1635.32,86.1857 1637.53,86.1857 1639.74,86.1857 1641.95,86.1857 1644.15,86.1857 1646.36,86.1857 1648.57,86.1857 1650.78,86.1857 1652.98,86.1857 1655.19,86.1857 1657.4,86.1857 1659.61,86.1857 1661.81,86.1857 1664.02,86.1857 1666.23,86.1857 1668.44,86.1857 1670.64,86.1857 1672.85,86.1857 1675.06,86.1857 1677.27,86.1857 1679.47,86.1857 1681.68,86.1857 1683.89,86.1857 1686.1,86.1857 1688.3,86.1857 1690.51,86.1857 1692.72,1146.52 1694.93,1146.52 1697.13,1146.52 1699.34,1146.52 1701.55,1146.52 1703.76,1146.52 1705.96,1146.52 1708.17,1146.52 1710.38,1146.52 1712.59,1146.52 1714.79,1146.52 1717,1146.52 1719.21,1146.52 1721.42,1146.52 1723.62,1146.52 1725.83,1146.52 1728.04,1146.52 1730.25,1146.52 1732.45,1146.52 1734.66,1146.52 1736.87,1146.52 1739.07,1146.52 1741.28,1146.52 1743.49,1146.52 1745.7,1146.52 1747.9,1146.52 1750.11,1146.52 1752.32,1146.52 1754.53,1146.52 1756.73,1146.52 1758.94,1146.52 1761.15,1146.52 1763.36,1146.52 1765.56,1146.52 1767.77,1146.52 1769.98,1146.52 1772.19,1146.52 1774.39,1146.52 1776.6,1146.52 1778.81,1146.52 1781.02,1146.52 1783.22,1146.52 1785.43,1146.52 1787.64,1146.52 1789.85,1146.52 1792.05,1146.52 1794.26,1146.52 1796.47,1146.52 1798.68,1146.52 1800.88,1146.52 1803.09,1146.52 1805.3,1146.52 1807.51,1146.52 1809.71,1146.52 1811.92,1146.52 1814.13,1146.52 1816.34,1146.52 1818.54,1146.52 1820.75,1146.52 1822.96,1146.52 1825.17,1146.52 1827.37,1146.52 1829.58,1146.52 1831.79,1146.52 1834,1146.52 1836.2,1146.52 1838.41,1146.52 1840.62,1146.52 1842.83,1146.52 1845.03,1146.52 1847.24,1146.52 1849.45,1146.52 1851.66,1146.52 1853.86,1146.52 1856.07,1146.52 1858.28,1146.52 1860.49,1146.52 1862.69,1146.52 1864.9,1146.52 1867.11,1146.52 1869.32,1146.52 1871.52,1146.52 1873.73,1146.52 1875.94,1146.52 1878.15,1146.52 1880.35,1146.52 1882.56,1146.52 1884.77,1146.52 1886.98,1146.52 1889.18,1146.52 1891.39,1146.52 1893.6,1146.52 1895.81,1146.52 1898.01,1146.52 1900.22,1146.52 1902.43,1146.52 1904.64,1146.52 1906.84,1146.52 1909.05,1146.52 1911.26,1146.52 1913.47,1148.83 1915.67,1148.83 1917.88,1148.83 1920.09,1148.83 1922.3,1148.83 1924.5,1148.83 1926.71,1148.83 1928.92,1148.83 1931.13,1148.83 1933.33,1148.83 1935.54,1148.83 1937.75,1148.83 1939.96,1148.83 1942.16,1148.83 1944.37,1148.83 1946.58,1148.83 1948.79,1148.83 1950.99,1148.83 1953.2,1148.83 1955.41,1148.83 1957.62,1148.83 1959.82,1148.83 1962.03,1148.83 1964.24,1148.83 1966.45,1148.83 1968.65,1148.83 1970.86,1148.83 1973.07,1148.83 1975.28,1148.83 1977.48,1148.83 1979.69,1148.83 1981.9,1148.83 1984.11,1148.83 1986.31,1148.83 1988.52,1148.83 1990.73,1148.83 1992.94,1148.83 1995.14,1148.83 1997.35,1148.83 1999.56,1148.83 2001.77,1148.83 2003.97,1148.83 2006.18,1148.83 2008.39,1148.83 2010.6,1148.83 2012.8,1148.83 2015.01,1148.83 2017.22,1148.83 2019.43,1148.83 2021.63,1148.83 2023.84,1148.83 2026.05,1148.83 2028.26,1148.83 2030.46,1148.83 2032.67,1148.83 2034.88,1148.83 2037.09,1148.83 2039.29,1148.83 2041.5,1148.83 2043.71,1148.83 2045.92,1148.83 2048.12,1148.83 2050.33,1148.83 2052.54,1148.83 2054.75,1148.83 2056.95,1148.83 2059.16,1148.83 2061.37,1148.83 2063.58,1148.83 2065.78,1148.83 2067.99,1148.83 2070.2,1148.83 2072.41,1148.83 2074.61,1148.83 2076.82,1148.83 2079.03,1148.83 2081.24,1148.83 2083.44,1148.83 2085.65,1148.83 2087.86,1148.83 2090.07,1148.83 2092.27,1148.83 2094.48,1148.83 2096.69,1148.83 2098.9,1148.83 2101.1,1148.83 2103.31,1148.83 2105.52,1148.83 2107.73,1148.83 2109.93,1148.83 2112.14,1148.83 2114.35,1148.83 2116.55,1148.83 2118.76,1148.83 2120.97,1148.83 2123.18,1148.83 2125.38,1148.83 2127.59,1148.83 2129.8,1148.83 2132.01,1148.83 2134.21,1384.24 2136.42,1384.24 2138.63,1384.24 2140.84,1384.24 2143.04,1384.24 2145.25,1384.24 2147.46,1384.24 2149.67,1384.24 2151.87,1384.24 2154.08,1384.24 2156.29,1384.24 2158.5,1384.24 2160.7,1384.24 2162.91,1384.24 2165.12,1384.24 2167.33,1384.24 2169.53,1384.24 2171.74,1384.24 2173.95,1384.24 2176.16,1384.24 2178.36,1384.24 2180.57,1384.24 2182.78,1384.24 2184.99,1384.24 2187.19,1384.24 2189.4,1384.24 2191.61,1384.24 2193.82,1384.24 2196.02,1384.24 2198.23,1384.24 2200.44,1384.24 2202.65,1384.24 2204.85,1384.24 2207.06,1384.24 2209.27,1384.24 2211.48,1384.24 2213.68,1384.24 2215.89,1384.24 2218.1,1384.24 2220.31,1384.24 2222.51,1384.24 2224.72,1384.24 2226.93,1384.24 2229.14,1384.24 2231.34,1384.24 2233.55,1384.24 2235.76,1384.24 2237.97,1384.24 2240.17,1384.24 2242.38,1384.24 2244.59,1384.24 2246.8,1384.24 2249,1384.24 2251.21,1384.24 2253.42,1384.24 2255.63,1384.24 2257.83,1384.24 2260.04,1384.24 2262.25,1384.24 2264.46,1384.24 2266.66,1384.24 2268.87,1384.24 2271.08,1384.24 2273.29,1384.24 2275.49,1384.24 2277.7,1384.24 2279.91,1384.24 2282.12,1384.24 2284.32,1384.24 2286.53,1384.24 2288.74,1384.24 2290.95,1384.24 2293.15,1384.24 2295.36,1384.24 2297.57,1384.24 2299.78,1384.24 2301.98,1384.24 2304.19,1384.24 2306.4,1384.24 2308.61,1384.24 2310.81,1384.24 2313.02,1384.24 2315.23,1384.24 2317.44,1384.24 2319.64,1384.24 2321.85,1384.24 2324.06,1384.24 2326.27,1384.24 2328.47,1384.24 2330.68,1384.24 2332.89,1384.24 2335.1,1384.24 2337.3,1384.24 2339.51,1384.24 2341.72,1384.24 2343.93,1384.24 2346.13,1384.24 2348.34,1384.24 2350.55,1384.24 2352.76,1384.24 "/>
<path clip-path="url(#clip510)" d="M2033.58 248.629 L2279.25 248.629 L2279.25 93.1086 L2033.58 93.1086  Z" fill="#ffffff" fill-rule="evenodd" fill-opacity="1"/>
<polyline clip-path="url(#clip510)" style="stroke:#000000; stroke-linecap:round; stroke-linejoin:round; stroke-width:4; stroke-opacity:1; fill:none" points="2033.58,248.629 2279.25,248.629 2279.25,93.1086 2033.58,93.1086 2033.58,248.629 "/>
<polyline clip-path="url(#clip510)" style="stroke:#009af9; stroke-linecap:round; stroke-linejoin:round; stroke-width:4; stroke-opacity:1; fill:none" points="2058.08,144.949 2205.1,144.949 "/>
<path clip-path="url(#clip510)" d="M2254.26 136.303 L2244.88 148.919 L2254.74 162.229 L2249.72 162.229 L2242.17 152.043 L2234.63 162.229 L2229.6 162.229 L2239.67 148.664 L2230.46 136.303 L2235.48 136.303 L2242.36 145.539 L2249.23 136.303 L2254.26 136.303 Z" fill="#000000" fill-rule="nonzero" fill-opacity="1" /><polyline clip-path="url(#clip510)" style="stroke:#e26f46; stroke-linecap:round; stroke-linejoin:round; stroke-width:4; stroke-opacity:1; fill:none" points="2058.08,196.789 2205.1,196.789 "/>
<path clip-path="url(#clip510)" d="M2246.11 178.05 L2246.11 181.592 L2242.04 181.592 Q2239.74 181.592 2238.84 182.518 Q2237.96 183.444 2237.96 185.851 L2237.96 188.143 L2244.98 188.143 L2244.98 191.453 L2237.96 191.453 L2237.96 214.069 L2233.68 214.069 L2233.68 191.453 L2229.6 191.453 L2229.6 188.143 L2233.68 188.143 L2233.68 186.337 Q2233.68 182.009 2235.69 180.041 Q2237.71 178.05 2242.08 178.05 L2246.11 178.05 Z" fill="#000000" fill-rule="nonzero" fill-opacity="1" /></svg>
