<?xml version="1.0" encoding="utf-8"?>
<svg xmlns="http://www.w3.org/2000/svg" xmlns:xlink="http://www.w3.org/1999/xlink" width="600" height="400" viewBox="0 0 2400 1600">
<defs>
  <clipPath id="clip850">
    <rect x="0" y="0" width="2400" height="1600"/>
  </clipPath>
</defs>
<path clip-path="url(#clip850)" d="M0 1600 L2400 1600 L2400 0 L0 0  Z" fill="#ffffff" fill-rule="evenodd" fill-opacity="1"/>
<defs>
  <clipPath id="clip851">
    <rect x="193" y="47" width="2160" height="1377"/>
  </clipPath>
</defs>
<path clip-path="url(#clip850)" d="M193.936 1423.18 L2352.76 1423.18 L2352.76 47.2441 L193.936 47.2441  Z" fill="#ffffff" fill-rule="evenodd" fill-opacity="1"/>
<polyline clip-path="url(#clip851)" style="stroke:#000000; stroke-linecap:round; stroke-linejoin:round; stroke-width:2; stroke-opacity:0.1; fill:none" points="193.936,1423.18 193.936,47.2441 "/>
<polyline clip-path="url(#clip851)" style="stroke:#000000; stroke-linecap:round; stroke-linejoin:round; stroke-width:2; stroke-opacity:0.1; fill:none" points="625.7,1423.18 625.7,47.2441 "/>
<polyline clip-path="url(#clip851)" style="stroke:#000000; stroke-linecap:round; stroke-linejoin:round; stroke-width:2; stroke-opacity:0.1; fill:none" points="1057.46,1423.18 1057.46,47.2441 "/>
<polyline clip-path="url(#clip851)" style="stroke:#000000; stroke-linecap:round; stroke-linejoin:round; stroke-width:2; stroke-opacity:0.1; fill:none" points="1489.23,1423.18 1489.23,47.2441 "/>
<polyline clip-path="url(#clip851)" style="stroke:#000000; stroke-linecap:round; stroke-linejoin:round; stroke-width:2; stroke-opacity:0.1; fill:none" points="1920.99,1423.18 1920.99,47.2441 "/>
<polyline clip-path="url(#clip851)" style="stroke:#000000; stroke-linecap:round; stroke-linejoin:round; stroke-width:2; stroke-opacity:0.1; fill:none" points="2352.76,1423.18 2352.76,47.2441 "/>
<polyline clip-path="url(#clip851)" style="stroke:#000000; stroke-linecap:round; stroke-linejoin:round; stroke-width:2; stroke-opacity:0.1; fill:none" points="193.936,1248.5 2352.76,1248.5 "/>
<polyline clip-path="url(#clip851)" style="stroke:#000000; stroke-linecap:round; stroke-linejoin:round; stroke-width:2; stroke-opacity:0.1; fill:none" points="193.936,1014.46 2352.76,1014.46 "/>
<polyline clip-path="url(#clip851)" style="stroke:#000000; stroke-linecap:round; stroke-linejoin:round; stroke-width:2; stroke-opacity:0.1; fill:none" points="193.936,780.409 2352.76,780.409 "/>
<polyline clip-path="url(#clip851)" style="stroke:#000000; stroke-linecap:round; stroke-linejoin:round; stroke-width:2; stroke-opacity:0.1; fill:none" points="193.936,546.363 2352.76,546.363 "/>
<polyline clip-path="url(#clip851)" style="stroke:#000000; stroke-linecap:round; stroke-linejoin:round; stroke-width:2; stroke-opacity:0.1; fill:none" points="193.936,312.317 2352.76,312.317 "/>
<polyline clip-path="url(#clip851)" style="stroke:#000000; stroke-linecap:round; stroke-linejoin:round; stroke-width:2; stroke-opacity:0.1; fill:none" points="193.936,78.2704 2352.76,78.2704 "/>
<polyline clip-path="url(#clip850)" style="stroke:#000000; stroke-linecap:round; stroke-linejoin:round; stroke-width:4; stroke-opacity:1; fill:none" points="193.936,1423.18 2352.76,1423.18 "/>
<polyline clip-path="url(#clip850)" style="stroke:#000000; stroke-linecap:round; stroke-linejoin:round; stroke-width:4; stroke-opacity:1; fill:none" points="193.936,1423.18 193.936,1404.28 "/>
<polyline clip-path="url(#clip850)" style="stroke:#000000; stroke-linecap:round; stroke-linejoin:round; stroke-width:4; stroke-opacity:1; fill:none" points="625.7,1423.18 625.7,1404.28 "/>
<polyline clip-path="url(#clip850)" style="stroke:#000000; stroke-linecap:round; stroke-linejoin:round; stroke-width:4; stroke-opacity:1; fill:none" points="1057.46,1423.18 1057.46,1404.28 "/>
<polyline clip-path="url(#clip850)" style="stroke:#000000; stroke-linecap:round; stroke-linejoin:round; stroke-width:4; stroke-opacity:1; fill:none" points="1489.23,1423.18 1489.23,1404.28 "/>
<polyline clip-path="url(#clip850)" style="stroke:#000000; stroke-linecap:round; stroke-linejoin:round; stroke-width:4; stroke-opacity:1; fill:none" points="1920.99,1423.18 1920.99,1404.28 "/>
<polyline clip-path="url(#clip850)" style="stroke:#000000; stroke-linecap:round; stroke-linejoin:round; stroke-width:4; stroke-opacity:1; fill:none" points="2352.76,1423.18 2352.76,1404.28 "/>
<path clip-path="url(#clip850)" d="M193.936 1454.1 Q190.325 1454.1 188.496 1457.66 Q186.691 1461.2 186.691 1468.33 Q186.691 1475.44 188.496 1479.01 Q190.325 1482.55 193.936 1482.55 Q197.57 1482.55 199.376 1479.01 Q201.204 1475.44 201.204 1468.33 Q201.204 1461.2 199.376 1457.66 Q197.57 1454.1 193.936 1454.1 M193.936 1450.39 Q199.746 1450.39 202.802 1455 Q205.88 1459.58 205.88 1468.33 Q205.88 1477.06 202.802 1481.67 Q199.746 1486.25 193.936 1486.25 Q188.126 1486.25 185.047 1481.67 Q181.992 1477.06 181.992 1468.33 Q181.992 1459.58 185.047 1455 Q188.126 1450.39 193.936 1450.39 Z" fill="#000000" fill-rule="nonzero" fill-opacity="1" /><path clip-path="url(#clip850)" d="M620.353 1481.64 L636.672 1481.64 L636.672 1485.58 L614.728 1485.58 L614.728 1481.64 Q617.39 1478.89 621.973 1474.26 Q626.58 1469.61 627.76 1468.27 Q630.006 1465.74 630.885 1464.01 Q631.788 1462.25 631.788 1460.56 Q631.788 1457.8 629.843 1456.07 Q627.922 1454.33 624.82 1454.33 Q622.621 1454.33 620.168 1455.09 Q617.737 1455.86 614.959 1457.41 L614.959 1452.69 Q617.783 1451.55 620.237 1450.97 Q622.691 1450.39 624.728 1450.39 Q630.098 1450.39 633.293 1453.08 Q636.487 1455.77 636.487 1460.26 Q636.487 1462.39 635.677 1464.31 Q634.89 1466.2 632.783 1468.8 Q632.205 1469.47 629.103 1472.69 Q626.001 1475.88 620.353 1481.64 Z" fill="#000000" fill-rule="nonzero" fill-opacity="1" /><path clip-path="url(#clip850)" d="M1060.47 1455.09 L1048.67 1473.54 L1060.47 1473.54 L1060.47 1455.09 M1059.25 1451.02 L1065.13 1451.02 L1065.13 1473.54 L1070.06 1473.54 L1070.06 1477.43 L1065.13 1477.43 L1065.13 1485.58 L1060.47 1485.58 L1060.47 1477.43 L1044.87 1477.43 L1044.87 1472.92 L1059.25 1451.02 Z" fill="#000000" fill-rule="nonzero" fill-opacity="1" /><path clip-path="url(#clip850)" d="M1489.63 1466.44 Q1486.48 1466.44 1484.63 1468.59 Q1482.8 1470.74 1482.8 1474.49 Q1482.8 1478.22 1484.63 1480.39 Q1486.48 1482.55 1489.63 1482.55 Q1492.78 1482.55 1494.61 1480.39 Q1496.46 1478.22 1496.46 1474.49 Q1496.46 1470.74 1494.61 1468.59 Q1492.78 1466.44 1489.63 1466.44 M1498.92 1451.78 L1498.92 1456.04 Q1497.16 1455.21 1495.35 1454.77 Q1493.57 1454.33 1491.81 1454.33 Q1487.18 1454.33 1484.73 1457.45 Q1482.3 1460.58 1481.95 1466.9 Q1483.31 1464.89 1485.37 1463.82 Q1487.43 1462.73 1489.91 1462.73 Q1495.12 1462.73 1498.13 1465.9 Q1501.16 1469.05 1501.16 1474.49 Q1501.16 1479.82 1498.01 1483.03 Q1494.86 1486.25 1489.63 1486.25 Q1483.64 1486.25 1480.47 1481.67 Q1477.3 1477.06 1477.3 1468.33 Q1477.3 1460.14 1481.18 1455.28 Q1485.07 1450.39 1491.62 1450.39 Q1493.38 1450.39 1495.17 1450.74 Q1496.97 1451.09 1498.92 1451.78 Z" fill="#000000" fill-rule="nonzero" fill-opacity="1" /><path clip-path="url(#clip850)" d="M1920.99 1469.17 Q1917.66 1469.17 1915.74 1470.95 Q1913.84 1472.73 1913.84 1475.86 Q1913.84 1478.98 1915.74 1480.77 Q1917.66 1482.55 1920.99 1482.55 Q1924.33 1482.55 1926.25 1480.77 Q1928.17 1478.96 1928.17 1475.86 Q1928.17 1472.73 1926.25 1470.95 Q1924.35 1469.17 1920.99 1469.17 M1916.32 1467.18 Q1913.31 1466.44 1911.62 1464.38 Q1909.95 1462.32 1909.95 1459.35 Q1909.95 1455.21 1912.89 1452.8 Q1915.85 1450.39 1920.99 1450.39 Q1926.15 1450.39 1929.09 1452.8 Q1932.03 1455.21 1932.03 1459.35 Q1932.03 1462.32 1930.34 1464.38 Q1928.68 1466.44 1925.69 1467.18 Q1929.07 1467.96 1930.95 1470.26 Q1932.84 1472.55 1932.84 1475.86 Q1932.84 1480.88 1929.77 1483.57 Q1926.71 1486.25 1920.99 1486.25 Q1915.27 1486.25 1912.2 1483.57 Q1909.14 1480.88 1909.14 1475.86 Q1909.14 1472.55 1911.04 1470.26 Q1912.94 1467.96 1916.32 1467.18 M1914.6 1459.79 Q1914.6 1462.48 1916.27 1463.98 Q1917.96 1465.49 1920.99 1465.49 Q1924 1465.49 1925.69 1463.98 Q1927.4 1462.48 1927.4 1459.79 Q1927.4 1457.11 1925.69 1455.6 Q1924 1454.1 1920.99 1454.1 Q1917.96 1454.1 1916.27 1455.6 Q1914.6 1457.11 1914.6 1459.79 Z" fill="#000000" fill-rule="nonzero" fill-opacity="1" /><path clip-path="url(#clip850)" d="M2327.44 1481.64 L2335.08 1481.64 L2335.08 1455.28 L2326.77 1456.95 L2326.77 1452.69 L2335.04 1451.02 L2339.71 1451.02 L2339.71 1481.64 L2347.35 1481.64 L2347.35 1485.58 L2327.44 1485.58 L2327.44 1481.64 Z" fill="#000000" fill-rule="nonzero" fill-opacity="1" /><path clip-path="url(#clip850)" d="M2366.8 1454.1 Q2363.18 1454.1 2361.36 1457.66 Q2359.55 1461.2 2359.55 1468.33 Q2359.55 1475.44 2361.36 1479.01 Q2363.18 1482.55 2366.8 1482.55 Q2370.43 1482.55 2372.23 1479.01 Q2374.06 1475.44 2374.06 1468.33 Q2374.06 1461.2 2372.23 1457.66 Q2370.43 1454.1 2366.8 1454.1 M2366.8 1450.39 Q2372.61 1450.39 2375.66 1455 Q2378.74 1459.58 2378.74 1468.33 Q2378.74 1477.06 2375.66 1481.67 Q2372.61 1486.25 2366.8 1486.25 Q2360.99 1486.25 2357.91 1481.67 Q2354.85 1477.06 2354.85 1468.33 Q2354.85 1459.58 2357.91 1455 Q2360.99 1450.39 2366.8 1450.39 Z" fill="#000000" fill-rule="nonzero" fill-opacity="1" /><path clip-path="url(#clip850)" d="M1272.41 1522.27 L1272.41 1532.4 L1284.47 1532.4 L1284.47 1536.95 L1272.41 1536.95 L1272.41 1556.3 Q1272.41 1560.66 1273.58 1561.9 Q1274.79 1563.14 1278.45 1563.14 L1284.47 1563.14 L1284.47 1568.04 L1278.45 1568.04 Q1271.67 1568.04 1269.1 1565.53 Q1266.52 1562.98 1266.52 1556.3 L1266.52 1536.95 L1262.22 1536.95 L1262.22 1532.4 L1266.52 1532.4 L1266.52 1522.27 L1272.41 1522.27 Z" fill="#000000" fill-rule="nonzero" fill-opacity="1" /><polyline clip-path="url(#clip850)" style="stroke:#000000; stroke-linecap:round; stroke-linejoin:round; stroke-width:4; stroke-opacity:1; fill:none" points="193.936,1423.18 193.936,47.2441 "/>
<polyline clip-path="url(#clip850)" style="stroke:#000000; stroke-linecap:round; stroke-linejoin:round; stroke-width:4; stroke-opacity:1; fill:none" points="193.936,1248.5 212.834,1248.5 "/>
<polyline clip-path="url(#clip850)" style="stroke:#000000; stroke-linecap:round; stroke-linejoin:round; stroke-width:4; stroke-opacity:1; fill:none" points="193.936,1014.46 212.834,1014.46 "/>
<polyline clip-path="url(#clip850)" style="stroke:#000000; stroke-linecap:round; stroke-linejoin:round; stroke-width:4; stroke-opacity:1; fill:none" points="193.936,780.409 212.834,780.409 "/>
<polyline clip-path="url(#clip850)" style="stroke:#000000; stroke-linecap:round; stroke-linejoin:round; stroke-width:4; stroke-opacity:1; fill:none" points="193.936,546.363 212.834,546.363 "/>
<polyline clip-path="url(#clip850)" style="stroke:#000000; stroke-linecap:round; stroke-linejoin:round; stroke-width:4; stroke-opacity:1; fill:none" points="193.936,312.317 212.834,312.317 "/>
<polyline clip-path="url(#clip850)" style="stroke:#000000; stroke-linecap:round; stroke-linejoin:round; stroke-width:4; stroke-opacity:1; fill:none" points="193.936,78.2704 212.834,78.2704 "/>
<path clip-path="url(#clip850)" d="M51.9875 1248.95 L81.6633 1248.95 L81.6633 1252.89 L51.9875 1252.89 L51.9875 1248.95 Z" fill="#000000" fill-rule="nonzero" fill-opacity="1" /><path clip-path="url(#clip850)" d="M92.566 1261.85 L100.205 1261.85 L100.205 1235.48 L91.8947 1237.15 L91.8947 1232.89 L100.159 1231.22 L104.834 1231.22 L104.834 1261.85 L112.473 1261.85 L112.473 1265.78 L92.566 1265.78 L92.566 1261.85 Z" fill="#000000" fill-rule="nonzero" fill-opacity="1" /><path clip-path="url(#clip850)" d="M121.918 1259.9 L126.802 1259.9 L126.802 1265.78 L121.918 1265.78 L121.918 1259.9 Z" fill="#000000" fill-rule="nonzero" fill-opacity="1" /><path clip-path="url(#clip850)" d="M137.033 1231.22 L155.39 1231.22 L155.39 1235.16 L141.316 1235.16 L141.316 1243.63 Q142.334 1243.28 143.353 1243.12 Q144.371 1242.93 145.39 1242.93 Q151.177 1242.93 154.556 1246.11 Q157.936 1249.28 157.936 1254.69 Q157.936 1260.27 154.464 1263.37 Q150.992 1266.45 144.672 1266.45 Q142.496 1266.45 140.228 1266.08 Q137.982 1265.71 135.575 1264.97 L135.575 1260.27 Q137.658 1261.41 139.881 1261.96 Q142.103 1262.52 144.58 1262.52 Q148.584 1262.52 150.922 1260.41 Q153.26 1258.3 153.26 1254.69 Q153.26 1251.08 150.922 1248.98 Q148.584 1246.87 144.58 1246.87 Q142.705 1246.87 140.83 1247.29 Q138.978 1247.7 137.033 1248.58 L137.033 1231.22 Z" fill="#000000" fill-rule="nonzero" fill-opacity="1" /><path clip-path="url(#clip850)" d="M50.9921 1014.91 L80.6679 1014.91 L80.6679 1018.84 L50.9921 1018.84 L50.9921 1014.91 Z" fill="#000000" fill-rule="nonzero" fill-opacity="1" /><path clip-path="url(#clip850)" d="M91.5706 1027.8 L99.2095 1027.8 L99.2095 1001.43 L90.8993 1003.1 L90.8993 998.842 L99.1632 997.175 L103.839 997.175 L103.839 1027.8 L111.478 1027.8 L111.478 1031.74 L91.5706 1031.74 L91.5706 1027.8 Z" fill="#000000" fill-rule="nonzero" fill-opacity="1" /><path clip-path="url(#clip850)" d="M120.922 1025.86 L125.807 1025.86 L125.807 1031.74 L120.922 1031.74 L120.922 1025.86 Z" fill="#000000" fill-rule="nonzero" fill-opacity="1" /><path clip-path="url(#clip850)" d="M145.992 1000.25 Q142.381 1000.25 140.552 1003.82 Q138.746 1007.36 138.746 1014.49 Q138.746 1021.6 140.552 1025.16 Q142.381 1028.7 145.992 1028.7 Q149.626 1028.7 151.431 1025.16 Q153.26 1021.6 153.26 1014.49 Q153.26 1007.36 151.431 1003.82 Q149.626 1000.25 145.992 1000.25 M145.992 996.55 Q151.802 996.55 154.857 1001.16 Q157.936 1005.74 157.936 1014.49 Q157.936 1023.22 154.857 1027.82 Q151.802 1032.41 145.992 1032.41 Q140.181 1032.41 137.103 1027.82 Q134.047 1023.22 134.047 1014.49 Q134.047 1005.74 137.103 1001.16 Q140.181 996.55 145.992 996.55 Z" fill="#000000" fill-rule="nonzero" fill-opacity="1" /><path clip-path="url(#clip850)" d="M51.9875 780.86 L81.6633 780.86 L81.6633 784.796 L51.9875 784.796 L51.9875 780.86 Z" fill="#000000" fill-rule="nonzero" fill-opacity="1" /><path clip-path="url(#clip850)" d="M101.756 766.208 Q98.1447 766.208 96.316 769.772 Q94.5104 773.314 94.5104 780.444 Q94.5104 787.55 96.316 791.115 Q98.1447 794.657 101.756 794.657 Q105.39 794.657 107.196 791.115 Q109.024 787.55 109.024 780.444 Q109.024 773.314 107.196 769.772 Q105.39 766.208 101.756 766.208 M101.756 762.504 Q107.566 762.504 110.621 767.11 Q113.7 771.694 113.7 780.444 Q113.7 789.171 110.621 793.777 Q107.566 798.36 101.756 798.36 Q95.9456 798.36 92.8669 793.777 Q89.8114 789.171 89.8114 780.444 Q89.8114 771.694 92.8669 767.11 Q95.9456 762.504 101.756 762.504 Z" fill="#000000" fill-rule="nonzero" fill-opacity="1" /><path clip-path="url(#clip850)" d="M121.918 791.809 L126.802 791.809 L126.802 797.689 L121.918 797.689 L121.918 791.809 Z" fill="#000000" fill-rule="nonzero" fill-opacity="1" /><path clip-path="url(#clip850)" d="M137.033 763.129 L155.39 763.129 L155.39 767.064 L141.316 767.064 L141.316 775.536 Q142.334 775.189 143.353 775.027 Q144.371 774.842 145.39 774.842 Q151.177 774.842 154.556 778.013 Q157.936 781.184 157.936 786.601 Q157.936 792.18 154.464 795.282 Q150.992 798.36 144.672 798.36 Q142.496 798.36 140.228 797.99 Q137.982 797.62 135.575 796.879 L135.575 792.18 Q137.658 793.314 139.881 793.87 Q142.103 794.425 144.58 794.425 Q148.584 794.425 150.922 792.319 Q153.26 790.212 153.26 786.601 Q153.26 782.99 150.922 780.884 Q148.584 778.777 144.58 778.777 Q142.705 778.777 140.83 779.194 Q138.978 779.61 137.033 780.49 L137.033 763.129 Z" fill="#000000" fill-rule="nonzero" fill-opacity="1" /><path clip-path="url(#clip850)" d="M100.76 532.161 Q97.1493 532.161 95.3206 535.726 Q93.515 539.268 93.515 546.398 Q93.515 553.504 95.3206 557.069 Q97.1493 560.61 100.76 560.61 Q104.395 560.61 106.2 557.069 Q108.029 553.504 108.029 546.398 Q108.029 539.268 106.2 535.726 Q104.395 532.161 100.76 532.161 M100.76 528.458 Q106.571 528.458 109.626 533.064 Q112.705 537.648 112.705 546.398 Q112.705 555.124 109.626 559.731 Q106.571 564.314 100.76 564.314 Q94.9502 564.314 91.8715 559.731 Q88.816 555.124 88.816 546.398 Q88.816 537.648 91.8715 533.064 Q94.9502 528.458 100.76 528.458 Z" fill="#000000" fill-rule="nonzero" fill-opacity="1" /><path clip-path="url(#clip850)" d="M120.922 557.763 L125.807 557.763 L125.807 563.643 L120.922 563.643 L120.922 557.763 Z" fill="#000000" fill-rule="nonzero" fill-opacity="1" /><path clip-path="url(#clip850)" d="M145.992 532.161 Q142.381 532.161 140.552 535.726 Q138.746 539.268 138.746 546.398 Q138.746 553.504 140.552 557.069 Q142.381 560.61 145.992 560.61 Q149.626 560.61 151.431 557.069 Q153.26 553.504 153.26 546.398 Q153.26 539.268 151.431 535.726 Q149.626 532.161 145.992 532.161 M145.992 528.458 Q151.802 528.458 154.857 533.064 Q157.936 537.648 157.936 546.398 Q157.936 555.124 154.857 559.731 Q151.802 564.314 145.992 564.314 Q140.181 564.314 137.103 559.731 Q134.047 555.124 134.047 546.398 Q134.047 537.648 137.103 533.064 Q140.181 528.458 145.992 528.458 Z" fill="#000000" fill-rule="nonzero" fill-opacity="1" /><path clip-path="url(#clip850)" d="M101.756 298.115 Q98.1447 298.115 96.316 301.68 Q94.5104 305.222 94.5104 312.351 Q94.5104 319.458 96.316 323.023 Q98.1447 326.564 101.756 326.564 Q105.39 326.564 107.196 323.023 Q109.024 319.458 109.024 312.351 Q109.024 305.222 107.196 301.68 Q105.39 298.115 101.756 298.115 M101.756 294.412 Q107.566 294.412 110.621 299.018 Q113.7 303.601 113.7 312.351 Q113.7 321.078 110.621 325.685 Q107.566 330.268 101.756 330.268 Q95.9456 330.268 92.8669 325.685 Q89.8114 321.078 89.8114 312.351 Q89.8114 303.601 92.8669 299.018 Q95.9456 294.412 101.756 294.412 Z" fill="#000000" fill-rule="nonzero" fill-opacity="1" /><path clip-path="url(#clip850)" d="M121.918 323.717 L126.802 323.717 L126.802 329.597 L121.918 329.597 L121.918 323.717 Z" fill="#000000" fill-rule="nonzero" fill-opacity="1" /><path clip-path="url(#clip850)" d="M137.033 295.037 L155.39 295.037 L155.39 298.972 L141.316 298.972 L141.316 307.444 Q142.334 307.097 143.353 306.935 Q144.371 306.75 145.39 306.75 Q151.177 306.75 154.556 309.921 Q157.936 313.092 157.936 318.509 Q157.936 324.087 154.464 327.189 Q150.992 330.268 144.672 330.268 Q142.496 330.268 140.228 329.898 Q137.982 329.527 135.575 328.786 L135.575 324.087 Q137.658 325.222 139.881 325.777 Q142.103 326.333 144.58 326.333 Q148.584 326.333 150.922 324.226 Q153.26 322.12 153.26 318.509 Q153.26 314.898 150.922 312.791 Q148.584 310.685 144.58 310.685 Q142.705 310.685 140.83 311.101 Q138.978 311.518 137.033 312.398 L137.033 295.037 Z" fill="#000000" fill-rule="nonzero" fill-opacity="1" /><path clip-path="url(#clip850)" d="M91.5706 91.6152 L99.2095 91.6152 L99.2095 65.2496 L90.8993 66.9163 L90.8993 62.6571 L99.1632 60.9904 L103.839 60.9904 L103.839 91.6152 L111.478 91.6152 L111.478 95.5504 L91.5706 95.5504 L91.5706 91.6152 Z" fill="#000000" fill-rule="nonzero" fill-opacity="1" /><path clip-path="url(#clip850)" d="M120.922 89.6708 L125.807 89.6708 L125.807 95.5504 L120.922 95.5504 L120.922 89.6708 Z" fill="#000000" fill-rule="nonzero" fill-opacity="1" /><path clip-path="url(#clip850)" d="M145.992 64.0691 Q142.381 64.0691 140.552 67.6339 Q138.746 71.1755 138.746 78.3051 Q138.746 85.4116 140.552 88.9764 Q142.381 92.518 145.992 92.518 Q149.626 92.518 151.431 88.9764 Q153.26 85.4116 153.26 78.3051 Q153.26 71.1755 151.431 67.6339 Q149.626 64.0691 145.992 64.0691 M145.992 60.3654 Q151.802 60.3654 154.857 64.9719 Q157.936 69.5552 157.936 78.3051 Q157.936 87.0319 154.857 91.6384 Q151.802 96.2217 145.992 96.2217 Q140.181 96.2217 137.103 91.6384 Q134.047 87.0319 134.047 78.3051 Q134.047 69.5552 137.103 64.9719 Q140.181 60.3654 145.992 60.3654 Z" fill="#000000" fill-rule="nonzero" fill-opacity="1" /><polyline clip-path="url(#clip851)" style="stroke:#009af9; stroke-linecap:round; stroke-linejoin:round; stroke-width:4; stroke-opacity:1; fill:none" points="193.936,546.363 196.097,557.423 198.258,568.336 200.419,579.105 202.58,589.731 204.741,600.216 206.902,610.562 209.063,620.771 211.224,630.844 213.385,640.784 215.546,650.592 217.707,660.27 219.868,669.82 222.029,679.243 224.19,688.542 226.351,697.717 228.512,706.77 230.673,715.703 232.834,724.518 234.995,733.216 237.156,741.799 239.317,750.268 241.478,758.624 243.639,766.87 245.8,775.007 247.961,783.035 250.122,790.958 252.282,798.775 254.443,806.488 256.604,814.099 258.765,821.61 260.926,829.021 263.087,836.333 265.248,843.549 267.409,850.668 269.57,857.694 271.731,864.626 273.892,871.467 276.053,878.217 278.214,884.877 280.375,891.449 282.536,897.934 284.697,904.333 286.858,910.647 289.019,916.877 291.18,923.025 293.341,929.091 295.502,935.077 297.663,940.983 299.824,946.811 301.985,952.562 304.146,958.237 306.307,963.836 308.468,969.361 310.629,974.813 312.79,980.193 314.951,985.501 317.112,990.739 319.273,995.907 321.434,1001.01 323.595,1006.04 325.756,1011.01 327.917,1015.91 330.078,1020.74 332.239,1025.51 334.4,1030.22 336.561,1034.86 338.722,1039.45 340.883,1043.97 343.044,1048.43 345.205,1052.84 347.366,1057.18 349.527,1061.47 351.688,1065.7 353.849,1069.87 356.01,1073.99 358.171,1078.06 360.332,1082.07 362.493,1086.03 364.653,1089.93 366.814,1093.78 368.975,1097.59 371.136,1101.34 373.297,1105.04 375.458,1108.69 377.619,1112.3 379.78,1115.85 381.941,1119.36 384.102,1122.83 386.263,1126.24 388.424,1129.62 390.585,1132.94 392.746,1136.23 394.907,1139.47 397.068,1142.66 399.229,1145.16 401.39,1145.75 403.551,1144.71 405.712,1142.32 407.873,1138.84 410.034,1134.5 412.195,1129.52 414.356,1124.1 416.517,1118.39 418.678,1112.54 420.839,1106.69 423,1100.92 425.161,1095.32 427.322,1089.94 429.483,1084.81 431.644,1079.94 433.805,1075.31 435.966,1070.9 438.127,1066.63 440.288,1062.43 442.449,1058.19 444.61,1053.86 446.771,1049.59 448.932,1045.36 451.093,1041.2 453.254,1037.09 455.415,1033.03 457.576,1029.03 459.737,1025.08 461.898,1021.19 464.059,1017.34 466.22,1013.55 468.381,1009.8 470.542,1006.11 472.703,1002.46 474.864,998.865 477.024,995.315 479.185,991.812 481.346,988.356 483.507,984.946 485.668,981.581 487.829,978.261 489.99,974.984 492.151,971.751 494.312,968.561 496.473,965.414 498.634,962.308 500.795,959.244 502.956,956.22 505.117,953.236 507.278,950.292 509.439,947.387 511.6,944.521 513.761,941.692 515.922,938.901 518.083,936.148 520.244,933.43 522.405,930.749 524.566,928.104 526.727,925.493 528.888,922.917 531.049,920.375 533.21,917.867 535.371,915.393 537.532,912.951 539.693,910.541 541.854,908.163 544.015,905.817 546.176,903.502 548.337,901.217 550.498,898.963 552.659,896.738 554.82,894.543 556.981,892.377 559.142,890.24 561.303,888.131 563.464,886.05 565.625,883.996 567.786,881.97 569.947,879.971 572.108,877.998 574.269,876.051 576.43,874.13 578.591,872.235 580.752,870.365 582.913,868.519 585.074,866.698 587.235,864.901 589.396,863.128 591.556,861.379 593.717,859.653 595.878,857.949 598.039,856.269 600.2,854.61 602.361,852.974 604.522,851.359 606.683,849.765 608.844,848.193 611.005,846.642 613.166,845.111 615.327,843.6 617.488,842.11 619.649,840.639 621.81,839.188 623.971,837.755 626.132,836.298 628.293,834.776 630.454,833.196 632.615,831.563 634.776,829.884 636.937,828.163 639.098,826.407 641.259,824.62 643.42,822.807 645.581,820.973 647.742,819.123 649.903,817.26 652.064,815.389 654.225,813.514 656.386,811.639 658.547,809.766 660.708,807.899 662.869,806.041 665.03,804.196 667.191,802.364 669.352,800.55 671.513,798.755 673.674,796.982 675.835,795.231 677.996,793.504 680.157,791.804 682.318,790.13 684.479,788.485 686.64,786.868 688.801,785.28 690.962,783.722 693.123,782.193 695.284,780.694 697.445,779.224 699.606,777.783 701.767,776.369 703.927,774.983 706.088,773.622 708.249,772.286 710.41,770.972 712.571,769.68 714.732,768.407 716.893,767.15 719.054,765.908 721.215,764.678 723.376,763.456 725.537,762.242 727.698,761.041 729.859,759.856 732.02,758.687 734.181,757.534 736.342,756.396 738.503,755.273 740.664,754.165 742.825,753.071 744.986,751.992 747.147,750.927 749.308,749.877 751.469,748.84 753.63,747.817 755.791,746.808 757.952,745.812 760.113,744.83 762.274,743.86 764.435,742.903 766.596,741.959 768.757,741.027 770.918,740.108 773.079,739.201 775.24,738.306 777.401,737.423 779.562,736.551 781.723,735.691 783.884,734.843 786.045,734.005 788.206,733.179 790.367,732.364 792.528,731.56 794.689,730.766 796.85,729.983 799.011,729.21 801.172,728.447 803.333,727.695 805.494,726.952 807.655,726.219 809.816,725.496 811.977,724.783 814.138,724.079 816.298,723.385 818.459,722.699 820.62,722.023 822.781,721.356 824.942,720.697 827.103,720.047 829.264,719.406 831.425,718.774 833.586,718.149 835.747,718.174 837.908,719.719 840.069,722.617 842.23,726.704 844.391,731.822 846.552,737.821 848.713,744.564 850.874,751.919 853.035,759.766 855.196,767.99 857.357,776.491 859.518,785.171 861.679,793.947 863.84,802.742 866.001,811.489 868.162,820.128 870.323,828.611 872.484,836.896 874.645,844.953 876.806,852.759 878.967,860.301 881.128,867.573 883.289,874.581 885.45,881.337 887.611,887.865 889.772,894.196 891.933,900.37 894.094,906.437 896.255,912.454 898.416,918.491 900.577,924.612 902.738,930.705 904.899,936.718 907.06,942.652 909.221,948.506 911.382,954.283 913.543,959.983 915.704,965.608 917.865,971.158 920.026,976.635 922.187,982.039 924.348,987.371 926.509,992.633 928.669,997.825 930.83,1002.95 932.991,1008 935.152,1012.99 937.313,1017.91 939.474,1022.77 941.635,1027.56 943.796,1032.29 945.957,1036.96 948.118,1041.57 950.279,1046.11 952.44,1050.59 954.601,1055.02 956.762,1059.38 958.923,1063.69 961.084,1067.94 963.245,1072.14 965.406,1076.27 967.567,1080.36 969.728,1084.39 971.889,1088.36 974.05,1092.29 976.211,1096.16 978.372,1099.98 980.533,1103.74 982.694,1107.46 984.855,1111.13 987.016,1114.75 989.177,1118.33 991.338,1121.85 993.499,1125.33 995.66,1128.76 997.821,1132.15 999.982,1135.49 1002.14,1138.79 1004.3,1142.04 1006.46,1145.25 1008.63,1148.42 1010.79,1151.54 1012.95,1154.63 1015.11,1157.67 1017.27,1160.67 1019.43,1163.64 1021.59,1166.56 1023.75,1169.45 1025.91,1172.29 1028.07,1175.1 1030.24,1177.88 1032.4,1180.61 1034.56,1183.31 1036.72,1185.98 1038.88,1188.61 1041.04,1191.2 1043.2,1193.76 1045.36,1196.28 1047.52,1198.78 1049.68,1201.23 1051.85,1203.62 1054.01,1202.99 1056.17,1198.22 1058.33,1190.11 1060.49,1179.41 1062.65,1166.78 1064.81,1152.83 1066.97,1138.05 1069.13,1122.89 1071.29,1107.72 1073.46,1092.81 1075.62,1078.38 1077.78,1064.57 1079.94,1051.44 1082.1,1038.96 1084.26,1027.05 1086.42,1015.53 1088.58,1004.17 1090.74,992.639 1092.9,981.006 1095.07,969.526 1097.23,958.199 1099.39,947.022 1101.55,935.993 1103.71,925.11 1105.87,914.371 1108.03,903.775 1110.19,893.32 1112.35,883.003 1114.51,872.822 1116.67,862.777 1118.84,852.864 1121,843.083 1123.16,833.432 1125.32,823.908 1127.48,814.511 1129.64,805.238 1131.8,796.089 1133.96,787.061 1136.12,778.152 1138.28,769.362 1140.45,760.688 1142.61,752.13 1144.77,743.685 1146.93,735.352 1149.09,727.129 1151.25,719.016 1153.41,711.01 1155.57,703.111 1157.73,695.316 1159.89,687.624 1162.06,680.035 1164.22,672.546 1166.38,665.156 1168.54,657.864 1170.7,650.669 1172.86,643.57 1175.02,636.564 1177.18,629.651 1179.34,622.83 1181.5,616.099 1183.67,609.458 1185.83,602.904 1187.99,596.437 1190.15,590.056 1192.31,583.76 1194.47,577.547 1196.63,571.417 1198.79,565.367 1200.95,559.398 1203.11,553.508 1205.28,547.697 1207.44,541.962 1209.6,536.303 1211.76,530.72 1213.92,525.21 1216.08,519.773 1218.24,514.409 1220.4,509.116 1222.56,503.892 1224.72,498.739 1226.88,493.653 1229.05,488.635 1231.21,483.683 1233.37,478.797 1235.53,473.976 1237.69,469.209 1239.85,464.458 1242.01,459.732 1244.17,455.041 1246.33,450.399 1248.49,445.816 1250.66,441.301 1252.82,436.864 1254.98,432.512 1257.14,428.251 1259.3,424.088 1261.46,420.027 1263.62,416.072 1265.78,412.224 1267.94,408.488 1270.1,404.861 1272.27,401.346 1274.43,397.939 1276.59,394.639 1278.75,391.443 1280.91,388.345 1283.07,385.342 1285.23,382.425 1287.39,379.589 1289.55,376.825 1291.71,374.123 1293.88,371.472 1296.04,368.863 1298.2,366.282 1300.36,363.716 1302.52,361.154 1304.68,358.619 1306.84,356.118 1309,353.65 1311.16,351.214 1313.32,348.811 1315.49,346.44 1317.65,344.1 1319.81,341.792 1321.97,339.513 1324.13,337.266 1326.29,335.048 1328.45,332.859 1330.61,330.699 1332.77,328.568 1334.93,326.465 1337.09,324.391 1339.26,322.343 1341.42,320.323 1343.58,318.329 1345.74,316.362 1347.9,314.421 1350.06,312.506 1352.22,310.616 1354.38,308.751 1356.54,306.91 1358.7,305.094 1360.87,303.302 1363.03,301.534 1365.19,299.789 1367.35,298.067 1369.51,296.368 1371.67,294.692 1373.83,293.038 1375.99,291.405 1378.15,289.795 1380.31,288.206 1382.48,286.638 1384.64,285.09 1386.8,283.564 1388.96,282.057 1391.12,280.571 1393.28,279.105 1395.44,277.658 1397.6,276.23 1399.76,274.821 1401.92,273.431 1404.09,272.059 1406.25,270.706 1408.41,269.371 1410.57,268.053 1412.73,266.753 1414.89,265.47 1417.05,264.204 1419.21,262.955 1421.37,261.723 1423.53,260.507 1425.7,259.307 1427.86,258.123 1430.02,256.954 1432.18,255.802 1434.34,254.664 1436.5,253.541 1438.66,252.434 1440.82,251.341 1442.98,250.262 1445.14,249.198 1447.3,248.148 1449.47,247.111 1451.63,246.089 1453.79,245.079 1455.95,244.005 1458.11,242.627 1460.27,241.078 1462.43,239.506 1464.59,238.042 1466.75,236.796 1468.91,235.856 1471.08,235.292 1473.24,235.151 1475.4,235.463 1477.56,236.236 1479.72,237.458 1481.88,239.096 1484.04,241.097 1486.2,243.389 1488.36,245.879 1490.52,248.454 1492.69,250.979 1494.85,253.309 1497.01,255.53 1499.17,257.721 1501.33,259.884 1503.49,262.017 1505.65,264.123 1507.81,266.2 1509.97,268.25 1512.13,270.272 1514.3,272.268 1516.46,274.238 1518.62,276.181 1520.78,278.099 1522.94,279.991 1525.1,281.858 1527.26,283.7 1529.42,285.518 1531.58,287.312 1533.74,289.083 1535.91,290.83 1538.07,292.553 1540.23,294.254 1542.39,295.933 1544.55,297.589 1546.71,299.223 1548.87,300.835 1551.03,302.426 1553.19,303.996 1555.35,305.545 1557.51,307.074 1559.68,308.582 1561.84,310.07 1564,311.539 1566.16,312.987 1568.32,314.417 1570.48,315.828 1572.64,317.219 1574.8,318.593 1576.96,319.948 1579.12,321.285 1581.29,322.604 1583.45,323.906 1585.61,325.19 1587.77,326.458 1589.93,327.709 1592.09,328.943 1594.25,330.16 1596.41,331.362 1598.57,332.547 1600.73,333.717 1602.9,334.871 1605.06,336.011 1607.22,337.135 1609.38,338.244 1611.54,339.338 1613.7,340.418 1615.86,341.484 1618.02,342.535 1620.18,343.573 1622.34,344.597 1624.51,345.607 1626.67,346.604 1628.83,347.588 1630.99,348.559 1633.15,349.517 1635.31,350.462 1637.47,351.395 1639.63,352.315 1641.79,353.224 1643.95,354.12 1646.12,355.004 1648.28,355.877 1650.44,356.738 1652.6,357.587 1654.76,358.425 1656.92,359.252 1659.08,360.069 1661.24,360.874 1663.4,361.669 1665.56,362.453 1667.72,363.226 1669.89,363.99 1672.05,364.743 1674.21,365.486 1676.37,366.22 1678.53,366.944 1680.69,367.658 1682.85,368.363 1685.01,369.058 1687.17,369.744 1689.33,370.421 1691.5,371.089 1693.66,371.748 1695.82,372.399 1697.98,373.052 1700.14,374.125 1702.3,375.775 1704.46,377.935 1706.62,380.54 1708.78,383.527 1710.94,386.838 1713.11,390.421 1715.27,394.223 1717.43,398.197 1719.59,402.3 1721.75,406.491 1723.91,410.735 1726.07,414.998 1728.23,419.25 1730.39,423.467 1732.55,427.626 1734.72,431.708 1736.88,435.698 1739.04,439.584 1741.2,443.36 1743.36,447.02 1745.52,450.564 1747.68,453.994 1749.84,457.317 1752,460.543 1754.16,463.686 1756.33,466.762 1758.49,469.792 1760.65,472.801 1762.81,475.817 1764.97,478.856 1767.13,481.865 1769.29,484.833 1771.45,487.763 1773.61,490.653 1775.77,493.506 1777.93,496.32 1780.1,499.097 1782.26,501.837 1784.42,504.541 1786.58,507.21 1788.74,509.842 1790.9,512.44 1793.06,515.003 1795.22,517.533 1797.38,520.029 1799.54,522.492 1801.71,524.922 1803.87,527.32 1806.03,529.686 1808.19,532.021 1810.35,534.324 1812.51,536.598 1814.67,538.841 1816.83,541.055 1818.99,543.239 1821.15,545.394 1823.32,547.521 1825.48,549.62 1827.64,551.69 1829.8,553.734 1831.96,555.75 1834.12,557.739 1836.28,559.702 1838.44,561.639 1840.6,563.55 1842.76,565.436 1844.93,567.297 1847.09,569.133 1849.25,570.944 1851.41,572.732 1853.57,574.496 1855.73,576.236 1857.89,577.954 1860.05,579.648 1862.21,581.321 1864.37,582.971 1866.54,584.599 1868.7,586.205 1870.86,587.79 1873.02,589.355 1875.18,590.898 1877.34,592.421 1879.5,593.924 1881.66,595.407 1883.82,596.87 1885.98,598.314 1888.15,599.739 1890.31,601.145 1892.47,602.532 1894.63,603.901 1896.79,605.252 1898.95,606.585 1901.11,607.9 1903.27,609.198 1905.43,610.479 1907.59,611.742 1909.75,612.989 1911.92,614.219 1914.08,615.433 1916.24,616.631 1918.4,617.222 1920.56,616.223 1922.72,613.831 1924.88,610.254 1927.04,605.686 1929.2,600.308 1931.36,594.287 1933.53,587.773 1935.69,580.907 1937.85,573.812 1940.01,566.598 1942.17,559.362 1944.33,552.186 1946.49,545.137 1948.65,538.271 1950.81,531.628 1952.97,525.233 1955.14,519.098 1957.3,513.222 1959.46,507.588 1961.62,502.167 1963.78,496.914 1965.94,491.772 1968.1,486.668 1970.26,481.516 1972.42,476.285 1974.58,471.113 1976.75,466.009 1978.91,460.974 1981.07,456.005 1983.23,451.102 1985.39,446.263 1987.55,441.49 1989.71,436.779 1991.87,432.131 1994.03,427.544 1996.19,423.019 1998.36,418.553 2000.52,414.146 2002.68,409.798 2004.84,405.508 2007,401.274 2009.16,397.097 2011.32,392.975 2013.48,388.907 2015.64,384.894 2017.8,380.934 2019.96,377.026 2022.13,373.17 2024.29,369.365 2026.45,365.61 2028.61,361.905 2030.77,358.25 2032.93,354.643 2035.09,351.083 2037.25,347.571 2039.41,344.106 2041.57,340.686 2043.74,337.312 2045.9,333.983 2048.06,330.697 2050.22,327.456 2052.38,324.257 2054.54,321.101 2056.7,317.986 2058.86,314.913 2061.02,311.881 2063.18,308.889 2065.35,305.936 2067.51,303.023 2069.67,300.148 2071.83,297.311 2073.99,294.512 2076.15,291.75 2078.31,289.025 2080.47,286.336 2082.63,283.682 2084.79,281.064 2086.96,278.48 2089.12,275.931 2091.28,273.415 2093.44,270.933 2095.6,268.483 2097.76,266.066 2099.92,263.681 2102.08,261.328 2104.24,259.006 2106.4,256.715 2108.57,254.454 2110.73,252.223 2112.89,250.022 2115.05,247.85 2117.21,245.706 2119.37,243.591 2121.53,241.505 2123.69,239.445 2125.85,237.413 2128.01,235.409 2130.17,233.579 2132.34,234.187 2134.5,237.69 2136.66,243.706 2138.82,251.879 2140.98,261.874 2143.14,273.377 2145.3,286.099 2147.46,299.772 2149.62,314.151 2151.78,329.012 2153.95,344.156 2156.11,359.405 2158.27,374.603 2160.43,389.618 2162.59,404.339 2164.75,418.677 2166.91,432.568 2169.07,445.969 2171.23,458.858 2173.39,471.237 2175.56,483.132 2177.72,494.588 2179.88,505.676 2182.04,516.486 2184.2,527.133 2186.36,537.753 2188.52,548.506 2190.68,559.348 2192.84,570.048 2195,580.605 2197.17,591.023 2199.33,601.303 2201.49,611.446 2203.65,621.455 2205.81,631.331 2207.97,641.076 2210.13,650.692 2212.29,660.18 2214.45,669.543 2216.61,678.781 2218.78,687.897 2220.94,696.893 2223.1,705.769 2225.26,714.527 2227.42,723.17 2229.58,731.698 2231.74,740.112 2233.9,748.416 2236.06,756.609 2238.22,764.694 2240.38,772.671 2242.55,780.543 2244.71,788.31 2246.87,795.974 2249.03,803.537 2251.19,810.999 2253.35,818.362 2255.51,825.628 2257.67,832.797 2259.83,839.871 2261.99,846.851 2264.16,853.738 2266.32,860.535 2268.48,867.241 2270.64,873.858 2272.8,880.387 2274.96,886.83 2277.12,893.187 2279.28,899.46 2281.44,905.65 2283.6,911.758 2285.77,917.785 2287.93,923.732 2290.09,929.601 2292.25,935.391 2294.41,941.105 2296.57,946.743 2298.73,952.307 2300.89,957.796 2303.05,963.213 2305.21,968.558 2307.38,973.833 2309.54,979.037 2311.7,984.172 2313.86,989.239 2316.02,994.24 2318.18,999.173 2320.34,1004.04 2322.5,1008.85 2324.66,1013.59 2326.82,1018.26 2328.99,1022.88 2331.15,1027.43 2333.31,1031.93 2335.47,1036.36 2337.63,1040.73 2339.79,1045.05 2341.95,1049.31 2344.11,1053.52 2346.27,1057.66 2348.43,1061.76 2350.59,1065.79 2352.76,1069.78 "/>
<polyline clip-path="url(#clip851)" style="stroke:#e26f46; stroke-linecap:round; stroke-linejoin:round; stroke-width:4; stroke-opacity:1; fill:none" points="193.936,1380.58 196.097,1380.58 198.258,1380.58 200.419,1380.58 202.58,1380.58 204.741,1380.58 206.902,1380.58 209.063,1380.58 211.224,1380.58 213.385,1380.58 215.546,1380.58 217.707,1380.58 219.868,1380.58 222.029,1380.58 224.19,1380.58 226.351,1380.58 228.512,1380.58 230.673,1380.58 232.834,1380.58 234.995,1380.58 237.156,1380.58 239.317,1380.58 241.478,1380.58 243.639,1380.58 245.8,1380.58 247.961,1380.58 250.122,1380.58 252.282,1380.58 254.443,1380.58 256.604,1380.58 258.765,1380.58 260.926,1380.58 263.087,1380.58 265.248,1380.58 267.409,1380.58 269.57,1380.58 271.731,1380.58 273.892,1380.58 276.053,1380.58 278.214,1380.58 280.375,1380.58 282.536,1380.58 284.697,1380.58 286.858,1380.58 289.019,1380.58 291.18,1380.58 293.341,1380.58 295.502,1380.58 297.663,1380.58 299.824,1380.58 301.985,1380.58 304.146,1380.58 306.307,1380.58 308.468,1380.58 310.629,1380.58 312.79,1380.58 314.951,1380.58 317.112,1380.58 319.273,1380.58 321.434,1380.58 323.595,1380.58 325.756,1380.58 327.917,1380.58 330.078,1380.58 332.239,1380.58 334.4,1380.58 336.561,1380.58 338.722,1380.58 340.883,1380.58 343.044,1380.58 345.205,1380.58 347.366,1380.58 349.527,1380.58 351.688,1380.58 353.849,1380.58 356.01,1380.58 358.171,1380.58 360.332,1380.58 362.493,1380.58 364.653,1380.58 366.814,1380.58 368.975,1380.58 371.136,1380.58 373.297,1380.58 375.458,1380.58 377.619,1380.58 379.78,1380.58 381.941,1380.58 384.102,1380.58 386.263,1380.58 388.424,1380.58 390.585,1380.58 392.746,1380.58 394.907,1380.58 397.068,1380.58 399.229,1380.58 401.39,1380.58 403.551,1380.58 405.712,1380.58 407.873,1380.58 410.034,731.171 412.195,731.171 414.356,731.171 416.517,731.171 418.678,731.171 420.839,731.171 423,731.171 425.161,731.171 427.322,731.171 429.483,731.171 431.644,731.171 433.805,731.171 435.966,731.171 438.127,731.171 440.288,731.171 442.449,731.171 444.61,731.171 446.771,731.171 448.932,731.171 451.093,731.171 453.254,731.171 455.415,731.171 457.576,731.171 459.737,731.171 461.898,731.171 464.059,731.171 466.22,731.171 468.381,731.171 470.542,731.171 472.703,731.171 474.864,731.171 477.024,731.171 479.185,731.171 481.346,731.171 483.507,731.171 485.668,731.171 487.829,731.171 489.99,731.171 492.151,731.171 494.312,731.171 496.473,731.171 498.634,731.171 500.795,731.171 502.956,731.171 505.117,731.171 507.278,731.171 509.439,731.171 511.6,731.171 513.761,731.171 515.922,731.171 518.083,731.171 520.244,731.171 522.405,731.171 524.566,731.171 526.727,731.171 528.888,731.171 531.049,731.171 533.21,731.171 535.371,731.171 537.532,731.171 539.693,731.171 541.854,731.171 544.015,731.171 546.176,731.171 548.337,731.171 550.498,731.171 552.659,731.171 554.82,731.171 556.981,731.171 559.142,731.171 561.303,731.171 563.464,731.171 565.625,731.171 567.786,731.171 569.947,731.171 572.108,731.171 574.269,731.171 576.43,731.171 578.591,731.171 580.752,731.171 582.913,731.171 585.074,731.171 587.235,731.171 589.396,731.171 591.556,731.171 593.717,731.171 595.878,731.171 598.039,731.171 600.2,731.171 602.361,731.171 604.522,731.171 606.683,731.171 608.844,731.171 611.005,731.171 613.166,731.171 615.327,731.171 617.488,731.171 619.649,731.171 621.81,731.171 623.971,731.171 626.132,671.689 628.293,671.689 630.454,671.689 632.615,671.689 634.776,671.689 636.937,671.689 639.098,671.689 641.259,671.689 643.42,671.689 645.581,671.689 647.742,671.689 649.903,671.689 652.064,671.689 654.225,671.689 656.386,671.689 658.547,671.689 660.708,671.689 662.869,671.689 665.03,671.689 667.191,671.689 669.352,671.689 671.513,671.689 673.674,671.689 675.835,671.689 677.996,671.689 680.157,671.689 682.318,671.689 684.479,671.689 686.64,671.689 688.801,671.689 690.962,671.689 693.123,671.689 695.284,671.689 697.445,671.689 699.606,671.689 701.767,671.689 703.927,671.689 706.088,671.689 708.249,671.689 710.41,671.689 712.571,671.689 714.732,671.689 716.893,671.689 719.054,671.689 721.215,671.689 723.376,671.689 725.537,671.689 727.698,671.689 729.859,671.689 732.02,671.689 734.181,671.689 736.342,671.689 738.503,671.689 740.664,671.689 742.825,671.689 744.986,671.689 747.147,671.689 749.308,671.689 751.469,671.689 753.63,671.689 755.791,671.689 757.952,671.689 760.113,671.689 762.274,671.689 764.435,671.689 766.596,671.689 768.757,671.689 770.918,671.689 773.079,671.689 775.24,671.689 777.401,671.689 779.562,671.689 781.723,671.689 783.884,671.689 786.045,671.689 788.206,671.689 790.367,671.689 792.528,671.689 794.689,671.689 796.85,671.689 799.011,671.689 801.172,671.689 803.333,671.689 805.494,671.689 807.655,671.689 809.816,671.689 811.977,671.689 814.138,671.689 816.298,671.689 818.459,671.689 820.62,671.689 822.781,671.689 824.942,671.689 827.103,671.689 829.264,671.689 831.425,671.689 833.586,671.689 835.747,671.689 837.908,671.689 840.069,671.689 842.23,1384.24 844.391,1384.24 846.552,1384.24 848.713,1384.24 850.874,1384.24 853.035,1384.24 855.196,1384.24 857.357,1384.24 859.518,1384.24 861.679,1384.24 863.84,1384.24 866.001,1384.24 868.162,1384.24 870.323,1384.24 872.484,1384.24 874.645,1384.24 876.806,1384.24 878.967,1384.24 881.128,1384.24 883.289,1384.24 885.45,1384.24 887.611,1384.24 889.772,1384.24 891.933,1384.24 894.094,1384.24 896.255,1384.24 898.416,1384.24 900.577,1384.24 902.738,1384.24 904.899,1384.24 907.06,1384.24 909.221,1384.24 911.382,1384.24 913.543,1384.24 915.704,1384.24 917.865,1384.24 920.026,1384.24 922.187,1384.24 924.348,1384.24 926.509,1384.24 928.669,1384.24 930.83,1384.24 932.991,1384.24 935.152,1384.24 937.313,1384.24 939.474,1384.24 941.635,1384.24 943.796,1384.24 945.957,1384.24 948.118,1384.24 950.279,1384.24 952.44,1384.24 954.601,1384.24 956.762,1384.24 958.923,1384.24 961.084,1384.24 963.245,1384.24 965.406,1384.24 967.567,1384.24 969.728,1384.24 971.889,1384.24 974.05,1384.24 976.211,1384.24 978.372,1384.24 980.533,1384.24 982.694,1384.24 984.855,1384.24 987.016,1384.24 989.177,1384.24 991.338,1384.24 993.499,1384.24 995.66,1384.24 997.821,1384.24 999.982,1384.24 1002.14,1384.24 1004.3,1384.24 1006.46,1384.24 1008.63,1384.24 1010.79,1384.24 1012.95,1384.24 1015.11,1384.24 1017.27,1384.24 1019.43,1384.24 1021.59,1384.24 1023.75,1384.24 1025.91,1384.24 1028.07,1384.24 1030.24,1384.24 1032.4,1384.24 1034.56,1384.24 1036.72,1384.24 1038.88,1384.24 1041.04,1384.24 1043.2,1384.24 1045.36,1384.24 1047.52,1384.24 1049.68,1384.24 1051.85,1384.24 1054.01,1384.24 1056.17,1384.24 1058.33,115.149 1060.49,115.149 1062.65,115.149 1064.81,115.149 1066.97,115.149 1069.13,115.149 1071.29,115.149 1073.46,115.149 1075.62,115.149 1077.78,115.149 1079.94,115.149 1082.1,115.149 1084.26,115.149 1086.42,115.149 1088.58,115.149 1090.74,115.149 1092.9,115.149 1095.07,115.149 1097.23,115.149 1099.39,115.149 1101.55,115.149 1103.71,115.149 1105.87,115.149 1108.03,115.149 1110.19,115.149 1112.35,115.149 1114.51,115.149 1116.67,115.149 1118.84,115.149 1121,115.149 1123.16,115.149 1125.32,115.149 1127.48,115.149 1129.64,115.149 1131.8,115.149 1133.96,115.149 1136.12,115.149 1138.28,115.149 1140.45,115.149 1142.61,115.149 1144.77,115.149 1146.93,115.149 1149.09,115.149 1151.25,115.149 1153.41,115.149 1155.57,115.149 1157.73,115.149 1159.89,115.149 1162.06,115.149 1164.22,115.149 1166.38,115.149 1168.54,115.149 1170.7,115.149 1172.86,115.149 1175.02,115.149 1177.18,115.149 1179.34,115.149 1181.5,115.149 1183.67,115.149 1185.83,115.149 1187.99,115.149 1190.15,115.149 1192.31,115.149 1194.47,115.149 1196.63,115.149 1198.79,115.149 1200.95,115.149 1203.11,115.149 1205.28,115.149 1207.44,115.149 1209.6,115.149 1211.76,115.149 1213.92,115.149 1216.08,115.149 1218.24,115.149 1220.4,115.149 1222.56,115.149 1224.72,115.149 1226.88,115.149 1229.05,115.149 1231.21,115.149 1233.37,115.149 1235.53,115.149 1237.69,115.149 1239.85,115.149 1242.01,115.149 1244.17,115.149 1246.33,115.149 1248.49,115.149 1250.66,115.149 1252.82,115.149 1254.98,115.149 1257.14,115.149 1259.3,115.149 1261.46,115.149 1263.62,115.149 1265.78,115.149 1267.94,115.149 1270.1,115.149 1272.27,115.149 1274.43,169.964 1276.59,169.964 1278.75,169.964 1280.91,169.964 1283.07,169.964 1285.23,169.964 1287.39,169.964 1289.55,169.964 1291.71,169.964 1293.88,169.964 1296.04,169.964 1298.2,169.964 1300.36,169.964 1302.52,169.964 1304.68,169.964 1306.84,169.964 1309,169.964 1311.16,169.964 1313.32,169.964 1315.49,169.964 1317.65,169.964 1319.81,169.964 1321.97,169.964 1324.13,169.964 1326.29,169.964 1328.45,169.964 1330.61,169.964 1332.77,169.964 1334.93,169.964 1337.09,169.964 1339.26,169.964 1341.42,169.964 1343.58,169.964 1345.74,169.964 1347.9,169.964 1350.06,169.964 1352.22,169.964 1354.38,169.964 1356.54,169.964 1358.7,169.964 1360.87,169.964 1363.03,169.964 1365.19,169.964 1367.35,169.964 1369.51,169.964 1371.67,169.964 1373.83,169.964 1375.99,169.964 1378.15,169.964 1380.31,169.964 1382.48,169.964 1384.64,169.964 1386.8,169.964 1388.96,169.964 1391.12,169.964 1393.28,169.964 1395.44,169.964 1397.6,169.964 1399.76,169.964 1401.92,169.964 1404.09,169.964 1406.25,169.964 1408.41,169.964 1410.57,169.964 1412.73,169.964 1414.89,169.964 1417.05,169.964 1419.21,169.964 1421.37,169.964 1423.53,169.964 1425.7,169.964 1427.86,169.964 1430.02,169.964 1432.18,169.964 1434.34,169.964 1436.5,169.964 1438.66,169.964 1440.82,169.964 1442.98,169.964 1445.14,169.964 1447.3,169.964 1449.47,169.964 1451.63,169.964 1453.79,169.964 1455.95,169.964 1458.11,169.964 1460.27,169.964 1462.43,169.964 1464.59,169.964 1466.75,169.964 1468.91,169.964 1471.08,169.964 1473.24,169.964 1475.4,169.964 1477.56,169.964 1479.72,169.964 1481.88,169.964 1484.04,169.964 1486.2,169.964 1488.36,169.964 1490.52,420.813 1492.69,420.813 1494.85,420.813 1497.01,420.813 1499.17,420.813 1501.33,420.813 1503.49,420.813 1505.65,420.813 1507.81,420.813 1509.97,420.813 1512.13,420.813 1514.3,420.813 1516.46,420.813 1518.62,420.813 1520.78,420.813 1522.94,420.813 1525.1,420.813 1527.26,420.813 1529.42,420.813 1531.58,420.813 1533.74,420.813 1535.91,420.813 1538.07,420.813 1540.23,420.813 1542.39,420.813 1544.55,420.813 1546.71,420.813 1548.87,420.813 1551.03,420.813 1553.19,420.813 1555.35,420.813 1557.51,420.813 1559.68,420.813 1561.84,420.813 1564,420.813 1566.16,420.813 1568.32,420.813 1570.48,420.813 1572.64,420.813 1574.8,420.813 1576.96,420.813 1579.12,420.813 1581.29,420.813 1583.45,420.813 1585.61,420.813 1587.77,420.813 1589.93,420.813 1592.09,420.813 1594.25,420.813 1596.41,420.813 1598.57,420.813 1600.73,420.813 1602.9,420.813 1605.06,420.813 1607.22,420.813 1609.38,420.813 1611.54,420.813 1613.7,420.813 1615.86,420.813 1618.02,420.813 1620.18,420.813 1622.34,420.813 1624.51,420.813 1626.67,420.813 1628.83,420.813 1630.99,420.813 1633.15,420.813 1635.31,420.813 1637.47,420.813 1639.63,420.813 1641.79,420.813 1643.95,420.813 1646.12,420.813 1648.28,420.813 1650.44,420.813 1652.6,420.813 1654.76,420.813 1656.92,420.813 1659.08,420.813 1661.24,420.813 1663.4,420.813 1665.56,420.813 1667.72,420.813 1669.89,420.813 1672.05,420.813 1674.21,420.813 1676.37,420.813 1678.53,420.813 1680.69,420.813 1682.85,420.813 1685.01,420.813 1687.17,420.813 1689.33,420.813 1691.5,420.813 1693.66,420.813 1695.82,420.813 1697.98,420.813 1700.14,420.813 1702.3,420.813 1704.46,420.813 1706.62,705.787 1708.78,705.787 1710.94,705.787 1713.11,705.787 1715.27,705.787 1717.43,705.787 1719.59,705.787 1721.75,705.787 1723.91,705.787 1726.07,705.787 1728.23,705.787 1730.39,705.787 1732.55,705.787 1734.72,705.787 1736.88,705.787 1739.04,705.787 1741.2,705.787 1743.36,705.787 1745.52,705.787 1747.68,705.787 1749.84,705.787 1752,705.787 1754.16,705.787 1756.33,705.787 1758.49,705.787 1760.65,705.787 1762.81,705.787 1764.97,705.787 1767.13,705.787 1769.29,705.787 1771.45,705.787 1773.61,705.787 1775.77,705.787 1777.93,705.787 1780.1,705.787 1782.26,705.787 1784.42,705.787 1786.58,705.787 1788.74,705.787 1790.9,705.787 1793.06,705.787 1795.22,705.787 1797.38,705.787 1799.54,705.787 1801.71,705.787 1803.87,705.787 1806.03,705.787 1808.19,705.787 1810.35,705.787 1812.51,705.787 1814.67,705.787 1816.83,705.787 1818.99,705.787 1821.15,705.787 1823.32,705.787 1825.48,705.787 1827.64,705.787 1829.8,705.787 1831.96,705.787 1834.12,705.787 1836.28,705.787 1838.44,705.787 1840.6,705.787 1842.76,705.787 1844.93,705.787 1847.09,705.787 1849.25,705.787 1851.41,705.787 1853.57,705.787 1855.73,705.787 1857.89,705.787 1860.05,705.787 1862.21,705.787 1864.37,705.787 1866.54,705.787 1868.7,705.787 1870.86,705.787 1873.02,705.787 1875.18,705.787 1877.34,705.787 1879.5,705.787 1881.66,705.787 1883.82,705.787 1885.98,705.787 1888.15,705.787 1890.31,705.787 1892.47,705.787 1894.63,705.787 1896.79,705.787 1898.95,705.787 1901.11,705.787 1903.27,705.787 1905.43,705.787 1907.59,705.787 1909.75,705.787 1911.92,705.787 1914.08,705.787 1916.24,705.787 1918.4,705.787 1920.56,705.787 1922.72,86.1857 1924.88,86.1857 1927.04,86.1857 1929.2,86.1857 1931.36,86.1857 1933.53,86.1857 1935.69,86.1857 1937.85,86.1857 1940.01,86.1857 1942.17,86.1857 1944.33,86.1857 1946.49,86.1857 1948.65,86.1857 1950.81,86.1857 1952.97,86.1857 1955.14,86.1857 1957.3,86.1857 1959.46,86.1857 1961.62,86.1857 1963.78,86.1857 1965.94,86.1857 1968.1,86.1857 1970.26,86.1857 1972.42,86.1857 1974.58,86.1857 1976.75,86.1857 1978.91,86.1857 1981.07,86.1857 1983.23,86.1857 1985.39,86.1857 1987.55,86.1857 1989.71,86.1857 1991.87,86.1857 1994.03,86.1857 1996.19,86.1857 1998.36,86.1857 2000.52,86.1857 2002.68,86.1857 2004.84,86.1857 2007,86.1857 2009.16,86.1857 2011.32,86.1857 2013.48,86.1857 2015.64,86.1857 2017.8,86.1857 2019.96,86.1857 2022.13,86.1857 2024.29,86.1857 2026.45,86.1857 2028.61,86.1857 2030.77,86.1857 2032.93,86.1857 2035.09,86.1857 2037.25,86.1857 2039.41,86.1857 2041.57,86.1857 2043.74,86.1857 2045.9,86.1857 2048.06,86.1857 2050.22,86.1857 2052.38,86.1857 2054.54,86.1857 2056.7,86.1857 2058.86,86.1857 2061.02,86.1857 2063.18,86.1857 2065.35,86.1857 2067.51,86.1857 2069.67,86.1857 2071.83,86.1857 2073.99,86.1857 2076.15,86.1857 2078.31,86.1857 2080.47,86.1857 2082.63,86.1857 2084.79,86.1857 2086.96,86.1857 2089.12,86.1857 2091.28,86.1857 2093.44,86.1857 2095.6,86.1857 2097.76,86.1857 2099.92,86.1857 2102.08,86.1857 2104.24,86.1857 2106.4,86.1857 2108.57,86.1857 2110.73,86.1857 2112.89,86.1857 2115.05,86.1857 2117.21,86.1857 2119.37,86.1857 2121.53,86.1857 2123.69,86.1857 2125.85,86.1857 2128.01,86.1857 2130.17,86.1857 2132.34,86.1857 2134.5,86.1857 2136.66,86.1857 2138.82,1366.37 2140.98,1366.37 2143.14,1366.37 2145.3,1366.37 2147.46,1366.37 2149.62,1366.37 2151.78,1366.37 2153.95,1366.37 2156.11,1366.37 2158.27,1366.37 2160.43,1366.37 2162.59,1366.37 2164.75,1366.37 2166.91,1366.37 2169.07,1366.37 2171.23,1366.37 2173.39,1366.37 2175.56,1366.37 2177.72,1366.37 2179.88,1366.37 2182.04,1366.37 2184.2,1366.37 2186.36,1366.37 2188.52,1366.37 2190.68,1366.37 2192.84,1366.37 2195,1366.37 2197.17,1366.37 2199.33,1366.37 2201.49,1366.37 2203.65,1366.37 2205.81,1366.37 2207.97,1366.37 2210.13,1366.37 2212.29,1366.37 2214.45,1366.37 2216.61,1366.37 2218.78,1366.37 2220.94,1366.37 2223.1,1366.37 2225.26,1366.37 2227.42,1366.37 2229.58,1366.37 2231.74,1366.37 2233.9,1366.37 2236.06,1366.37 2238.22,1366.37 2240.38,1366.37 2242.55,1366.37 2244.71,1366.37 2246.87,1366.37 2249.03,1366.37 2251.19,1366.37 2253.35,1366.37 2255.51,1366.37 2257.67,1366.37 2259.83,1366.37 2261.99,1366.37 2264.16,1366.37 2266.32,1366.37 2268.48,1366.37 2270.64,1366.37 2272.8,1366.37 2274.96,1366.37 2277.12,1366.37 2279.28,1366.37 2281.44,1366.37 2283.6,1366.37 2285.77,1366.37 2287.93,1366.37 2290.09,1366.37 2292.25,1366.37 2294.41,1366.37 2296.57,1366.37 2298.73,1366.37 2300.89,1366.37 2303.05,1366.37 2305.21,1366.37 2307.38,1366.37 2309.54,1366.37 2311.7,1366.37 2313.86,1366.37 2316.02,1366.37 2318.18,1366.37 2320.34,1366.37 2322.5,1366.37 2324.66,1366.37 2326.82,1366.37 2328.99,1366.37 2331.15,1366.37 2333.31,1366.37 2335.47,1366.37 2337.63,1366.37 2339.79,1366.37 2341.95,1366.37 2344.11,1366.37 2346.27,1366.37 2348.43,1366.37 2350.59,1366.37 2352.76,1366.37 "/>
<path clip-path="url(#clip850)" d="M265.897 248.629 L506.917 248.629 L506.917 93.1086 L265.897 93.1086  Z" fill="#ffffff" fill-rule="evenodd" fill-opacity="1"/>
<polyline clip-path="url(#clip850)" style="stroke:#000000; stroke-linecap:round; stroke-linejoin:round; stroke-width:4; stroke-opacity:1; fill:none" points="265.897,248.629 506.917,248.629 506.917,93.1086 265.897,93.1086 265.897,248.629 "/>
<polyline clip-path="url(#clip850)" style="stroke:#009af9; stroke-linecap:round; stroke-linejoin:round; stroke-width:4; stroke-opacity:1; fill:none" points="289.884,144.949 433.805,144.949 "/>
<path clip-path="url(#clip850)" d="M482.444 136.303 L473.069 148.919 L482.931 162.229 L477.907 162.229 L470.361 152.043 L462.815 162.229 L457.792 162.229 L467.861 148.664 L458.648 136.303 L463.671 136.303 L470.546 145.539 L477.421 136.303 L482.444 136.303 Z" fill="#000000" fill-rule="nonzero" fill-opacity="1" /><polyline clip-path="url(#clip850)" style="stroke:#e26f46; stroke-linecap:round; stroke-linejoin:round; stroke-width:4; stroke-opacity:1; fill:none" points="289.884,196.789 433.805,196.789 "/>
<path clip-path="url(#clip850)" d="M474.296 178.05 L474.296 181.592 L470.222 181.592 Q467.931 181.592 467.028 182.518 Q466.148 183.444 466.148 185.851 L466.148 188.143 L473.162 188.143 L473.162 191.453 L466.148 191.453 L466.148 214.069 L461.866 214.069 L461.866 191.453 L457.792 191.453 L457.792 188.143 L461.866 188.143 L461.866 186.337 Q461.866 182.009 463.88 180.041 Q465.894 178.05 470.269 178.05 L474.296 178.05 Z" fill="#000000" fill-rule="nonzero" fill-opacity="1" /></svg>
