<?xml version="1.0" encoding="utf-8"?>
<svg xmlns="http://www.w3.org/2000/svg" xmlns:xlink="http://www.w3.org/1999/xlink" width="600" height="400" viewBox="0 0 2400 1600">
<defs>
  <clipPath id="clip690">
    <rect x="0" y="0" width="2400" height="1600"/>
  </clipPath>
</defs>
<path clip-path="url(#clip690)" d="M0 1600 L2400 1600 L2400 0 L0 0  Z" fill="#ffffff" fill-rule="evenodd" fill-opacity="1"/>
<defs>
  <clipPath id="clip691">
    <rect x="480" y="0" width="1681" height="1600"/>
  </clipPath>
</defs>
<path clip-path="url(#clip690)" d="M193.936 1423.18 L2352.76 1423.18 L2352.76 47.2441 L193.936 47.2441  Z" fill="#ffffff" fill-rule="evenodd" fill-opacity="1"/>
<defs>
  <clipPath id="clip692">
    <rect x="193" y="47" width="2160" height="1377"/>
  </clipPath>
</defs>
<polyline clip-path="url(#clip692)" style="stroke:#000000; stroke-linecap:round; stroke-linejoin:round; stroke-width:2; stroke-opacity:0.1; fill:none" points="193.936,1423.18 193.936,47.2441 "/>
<polyline clip-path="url(#clip692)" style="stroke:#000000; stroke-linecap:round; stroke-linejoin:round; stroke-width:2; stroke-opacity:0.1; fill:none" points="625.7,1423.18 625.7,47.2441 "/>
<polyline clip-path="url(#clip692)" style="stroke:#000000; stroke-linecap:round; stroke-linejoin:round; stroke-width:2; stroke-opacity:0.1; fill:none" points="1057.46,1423.18 1057.46,47.2441 "/>
<polyline clip-path="url(#clip692)" style="stroke:#000000; stroke-linecap:round; stroke-linejoin:round; stroke-width:2; stroke-opacity:0.1; fill:none" points="1489.23,1423.18 1489.23,47.2441 "/>
<polyline clip-path="url(#clip692)" style="stroke:#000000; stroke-linecap:round; stroke-linejoin:round; stroke-width:2; stroke-opacity:0.1; fill:none" points="1920.99,1423.18 1920.99,47.2441 "/>
<polyline clip-path="url(#clip692)" style="stroke:#000000; stroke-linecap:round; stroke-linejoin:round; stroke-width:2; stroke-opacity:0.1; fill:none" points="2352.76,1423.18 2352.76,47.2441 "/>
<polyline clip-path="url(#clip692)" style="stroke:#000000; stroke-linecap:round; stroke-linejoin:round; stroke-width:2; stroke-opacity:0.1; fill:none" points="193.936,1390.21 2352.76,1390.21 "/>
<polyline clip-path="url(#clip692)" style="stroke:#000000; stroke-linecap:round; stroke-linejoin:round; stroke-width:2; stroke-opacity:0.1; fill:none" points="193.936,1142.73 2352.76,1142.73 "/>
<polyline clip-path="url(#clip692)" style="stroke:#000000; stroke-linecap:round; stroke-linejoin:round; stroke-width:2; stroke-opacity:0.1; fill:none" points="193.936,895.25 2352.76,895.25 "/>
<polyline clip-path="url(#clip692)" style="stroke:#000000; stroke-linecap:round; stroke-linejoin:round; stroke-width:2; stroke-opacity:0.1; fill:none" points="193.936,647.767 2352.76,647.767 "/>
<polyline clip-path="url(#clip692)" style="stroke:#000000; stroke-linecap:round; stroke-linejoin:round; stroke-width:2; stroke-opacity:0.1; fill:none" points="193.936,400.285 2352.76,400.285 "/>
<polyline clip-path="url(#clip692)" style="stroke:#000000; stroke-linecap:round; stroke-linejoin:round; stroke-width:2; stroke-opacity:0.1; fill:none" points="193.936,152.803 2352.76,152.803 "/>
<polyline clip-path="url(#clip690)" style="stroke:#000000; stroke-linecap:round; stroke-linejoin:round; stroke-width:4; stroke-opacity:1; fill:none" points="193.936,1423.18 2352.76,1423.18 "/>
<polyline clip-path="url(#clip690)" style="stroke:#000000; stroke-linecap:round; stroke-linejoin:round; stroke-width:4; stroke-opacity:1; fill:none" points="193.936,1423.18 193.936,1404.28 "/>
<polyline clip-path="url(#clip690)" style="stroke:#000000; stroke-linecap:round; stroke-linejoin:round; stroke-width:4; stroke-opacity:1; fill:none" points="625.7,1423.18 625.7,1404.28 "/>
<polyline clip-path="url(#clip690)" style="stroke:#000000; stroke-linecap:round; stroke-linejoin:round; stroke-width:4; stroke-opacity:1; fill:none" points="1057.46,1423.18 1057.46,1404.28 "/>
<polyline clip-path="url(#clip690)" style="stroke:#000000; stroke-linecap:round; stroke-linejoin:round; stroke-width:4; stroke-opacity:1; fill:none" points="1489.23,1423.18 1489.23,1404.28 "/>
<polyline clip-path="url(#clip690)" style="stroke:#000000; stroke-linecap:round; stroke-linejoin:round; stroke-width:4; stroke-opacity:1; fill:none" points="1920.99,1423.18 1920.99,1404.28 "/>
<polyline clip-path="url(#clip690)" style="stroke:#000000; stroke-linecap:round; stroke-linejoin:round; stroke-width:4; stroke-opacity:1; fill:none" points="2352.76,1423.18 2352.76,1404.28 "/>
<path clip-path="url(#clip690)" d="M193.936 1454.1 Q190.325 1454.1 188.496 1457.66 Q186.691 1461.2 186.691 1468.33 Q186.691 1475.44 188.496 1479.01 Q190.325 1482.55 193.936 1482.55 Q197.57 1482.55 199.376 1479.01 Q201.204 1475.44 201.204 1468.33 Q201.204 1461.2 199.376 1457.66 Q197.57 1454.1 193.936 1454.1 M193.936 1450.39 Q199.746 1450.39 202.802 1455 Q205.88 1459.58 205.88 1468.33 Q205.88 1477.06 202.802 1481.67 Q199.746 1486.25 193.936 1486.25 Q188.126 1486.25 185.047 1481.67 Q181.992 1477.06 181.992 1468.33 Q181.992 1459.58 185.047 1455 Q188.126 1450.39 193.936 1450.39 Z" fill="#000000" fill-rule="nonzero" fill-opacity="1" /><path clip-path="url(#clip690)" d="M620.353 1481.64 L636.672 1481.64 L636.672 1485.58 L614.728 1485.58 L614.728 1481.64 Q617.39 1478.89 621.973 1474.26 Q626.58 1469.61 627.76 1468.27 Q630.006 1465.74 630.885 1464.01 Q631.788 1462.25 631.788 1460.56 Q631.788 1457.8 629.843 1456.07 Q627.922 1454.33 624.82 1454.33 Q622.621 1454.33 620.168 1455.09 Q617.737 1455.86 614.959 1457.41 L614.959 1452.69 Q617.783 1451.55 620.237 1450.97 Q622.691 1450.39 624.728 1450.39 Q630.098 1450.39 633.293 1453.08 Q636.487 1455.77 636.487 1460.26 Q636.487 1462.39 635.677 1464.31 Q634.89 1466.2 632.783 1468.8 Q632.205 1469.47 629.103 1472.69 Q626.001 1475.88 620.353 1481.64 Z" fill="#000000" fill-rule="nonzero" fill-opacity="1" /><path clip-path="url(#clip690)" d="M1060.47 1455.09 L1048.67 1473.54 L1060.47 1473.54 L1060.47 1455.09 M1059.25 1451.02 L1065.13 1451.02 L1065.13 1473.54 L1070.06 1473.54 L1070.06 1477.43 L1065.13 1477.43 L1065.13 1485.58 L1060.47 1485.58 L1060.47 1477.43 L1044.87 1477.43 L1044.87 1472.92 L1059.25 1451.02 Z" fill="#000000" fill-rule="nonzero" fill-opacity="1" /><path clip-path="url(#clip690)" d="M1489.63 1466.44 Q1486.48 1466.44 1484.63 1468.59 Q1482.8 1470.74 1482.8 1474.49 Q1482.8 1478.22 1484.63 1480.39 Q1486.48 1482.55 1489.63 1482.55 Q1492.78 1482.55 1494.61 1480.39 Q1496.46 1478.22 1496.46 1474.49 Q1496.46 1470.74 1494.61 1468.59 Q1492.78 1466.44 1489.63 1466.44 M1498.92 1451.78 L1498.92 1456.04 Q1497.16 1455.21 1495.35 1454.77 Q1493.57 1454.33 1491.81 1454.33 Q1487.18 1454.33 1484.73 1457.45 Q1482.3 1460.58 1481.95 1466.9 Q1483.31 1464.89 1485.37 1463.82 Q1487.43 1462.73 1489.91 1462.73 Q1495.12 1462.73 1498.13 1465.9 Q1501.16 1469.05 1501.16 1474.49 Q1501.16 1479.82 1498.01 1483.03 Q1494.86 1486.25 1489.63 1486.25 Q1483.64 1486.25 1480.47 1481.67 Q1477.3 1477.06 1477.3 1468.33 Q1477.3 1460.14 1481.18 1455.28 Q1485.07 1450.39 1491.62 1450.39 Q1493.38 1450.39 1495.17 1450.74 Q1496.97 1451.09 1498.92 1451.78 Z" fill="#000000" fill-rule="nonzero" fill-opacity="1" /><path clip-path="url(#clip690)" d="M1920.99 1469.17 Q1917.66 1469.17 1915.74 1470.95 Q1913.84 1472.73 1913.84 1475.86 Q1913.84 1478.98 1915.74 1480.77 Q1917.66 1482.55 1920.99 1482.55 Q1924.33 1482.55 1926.25 1480.77 Q1928.17 1478.96 1928.17 1475.86 Q1928.17 1472.73 1926.25 1470.95 Q1924.35 1469.17 1920.99 1469.17 M1916.32 1467.18 Q1913.31 1466.44 1911.62 1464.38 Q1909.95 1462.32 1909.95 1459.35 Q1909.95 1455.21 1912.89 1452.8 Q1915.85 1450.39 1920.99 1450.39 Q1926.15 1450.39 1929.09 1452.8 Q1932.03 1455.21 1932.03 1459.35 Q1932.03 1462.32 1930.34 1464.38 Q1928.68 1466.44 1925.69 1467.18 Q1929.07 1467.96 1930.95 1470.26 Q1932.84 1472.55 1932.84 1475.86 Q1932.84 1480.88 1929.77 1483.57 Q1926.71 1486.25 1920.99 1486.25 Q1915.27 1486.25 1912.2 1483.57 Q1909.14 1480.88 1909.14 1475.86 Q1909.14 1472.55 1911.04 1470.26 Q1912.94 1467.96 1916.32 1467.18 M1914.6 1459.79 Q1914.6 1462.48 1916.27 1463.98 Q1917.96 1465.49 1920.99 1465.49 Q1924 1465.49 1925.69 1463.98 Q1927.4 1462.48 1927.4 1459.79 Q1927.4 1457.11 1925.69 1455.6 Q1924 1454.1 1920.99 1454.1 Q1917.96 1454.1 1916.27 1455.6 Q1914.6 1457.11 1914.6 1459.79 Z" fill="#000000" fill-rule="nonzero" fill-opacity="1" /><path clip-path="url(#clip690)" d="M2327.44 1481.64 L2335.08 1481.64 L2335.08 1455.28 L2326.77 1456.95 L2326.77 1452.69 L2335.04 1451.02 L2339.71 1451.02 L2339.71 1481.64 L2347.35 1481.64 L2347.35 1485.58 L2327.44 1485.58 L2327.44 1481.64 Z" fill="#000000" fill-rule="nonzero" fill-opacity="1" /><path clip-path="url(#clip690)" d="M2366.8 1454.1 Q2363.18 1454.1 2361.36 1457.66 Q2359.55 1461.2 2359.55 1468.33 Q2359.55 1475.44 2361.36 1479.01 Q2363.18 1482.55 2366.8 1482.55 Q2370.43 1482.55 2372.23 1479.01 Q2374.06 1475.44 2374.06 1468.33 Q2374.06 1461.2 2372.23 1457.66 Q2370.43 1454.1 2366.8 1454.1 M2366.8 1450.39 Q2372.61 1450.39 2375.66 1455 Q2378.74 1459.58 2378.74 1468.33 Q2378.74 1477.06 2375.66 1481.67 Q2372.61 1486.25 2366.8 1486.25 Q2360.99 1486.25 2357.91 1481.67 Q2354.85 1477.06 2354.85 1468.33 Q2354.85 1459.58 2357.91 1455 Q2360.99 1450.39 2366.8 1450.39 Z" fill="#000000" fill-rule="nonzero" fill-opacity="1" /><path clip-path="url(#clip690)" d="M1272.41 1522.27 L1272.41 1532.4 L1284.47 1532.4 L1284.47 1536.95 L1272.41 1536.95 L1272.41 1556.3 Q1272.41 1560.66 1273.58 1561.9 Q1274.79 1563.14 1278.45 1563.14 L1284.47 1563.14 L1284.47 1568.04 L1278.45 1568.04 Q1271.67 1568.04 1269.1 1565.53 Q1266.52 1562.98 1266.52 1556.3 L1266.52 1536.95 L1262.22 1536.95 L1262.22 1532.4 L1266.52 1532.4 L1266.52 1522.27 L1272.41 1522.27 Z" fill="#000000" fill-rule="nonzero" fill-opacity="1" /><polyline clip-path="url(#clip690)" style="stroke:#000000; stroke-linecap:round; stroke-linejoin:round; stroke-width:4; stroke-opacity:1; fill:none" points="193.936,1423.18 193.936,47.2441 "/>
<polyline clip-path="url(#clip690)" style="stroke:#000000; stroke-linecap:round; stroke-linejoin:round; stroke-width:4; stroke-opacity:1; fill:none" points="193.936,1390.21 212.834,1390.21 "/>
<polyline clip-path="url(#clip690)" style="stroke:#000000; stroke-linecap:round; stroke-linejoin:round; stroke-width:4; stroke-opacity:1; fill:none" points="193.936,1142.73 212.834,1142.73 "/>
<polyline clip-path="url(#clip690)" style="stroke:#000000; stroke-linecap:round; stroke-linejoin:round; stroke-width:4; stroke-opacity:1; fill:none" points="193.936,895.25 212.834,895.25 "/>
<polyline clip-path="url(#clip690)" style="stroke:#000000; stroke-linecap:round; stroke-linejoin:round; stroke-width:4; stroke-opacity:1; fill:none" points="193.936,647.767 212.834,647.767 "/>
<polyline clip-path="url(#clip690)" style="stroke:#000000; stroke-linecap:round; stroke-linejoin:round; stroke-width:4; stroke-opacity:1; fill:none" points="193.936,400.285 212.834,400.285 "/>
<polyline clip-path="url(#clip690)" style="stroke:#000000; stroke-linecap:round; stroke-linejoin:round; stroke-width:4; stroke-opacity:1; fill:none" points="193.936,152.803 212.834,152.803 "/>
<path clip-path="url(#clip690)" d="M50.9921 1390.67 L80.6679 1390.67 L80.6679 1394.6 L50.9921 1394.6 L50.9921 1390.67 Z" fill="#000000" fill-rule="nonzero" fill-opacity="1" /><path clip-path="url(#clip690)" d="M91.5706 1403.56 L99.2095 1403.56 L99.2095 1377.19 L90.8993 1378.86 L90.8993 1374.6 L99.1632 1372.93 L103.839 1372.93 L103.839 1403.56 L111.478 1403.56 L111.478 1407.49 L91.5706 1407.49 L91.5706 1403.56 Z" fill="#000000" fill-rule="nonzero" fill-opacity="1" /><path clip-path="url(#clip690)" d="M120.922 1401.62 L125.807 1401.62 L125.807 1407.49 L120.922 1407.49 L120.922 1401.62 Z" fill="#000000" fill-rule="nonzero" fill-opacity="1" /><path clip-path="url(#clip690)" d="M145.992 1376.01 Q142.381 1376.01 140.552 1379.58 Q138.746 1383.12 138.746 1390.25 Q138.746 1397.36 140.552 1400.92 Q142.381 1404.46 145.992 1404.46 Q149.626 1404.46 151.431 1400.92 Q153.26 1397.36 153.26 1390.25 Q153.26 1383.12 151.431 1379.58 Q149.626 1376.01 145.992 1376.01 M145.992 1372.31 Q151.802 1372.31 154.857 1376.92 Q157.936 1381.5 157.936 1390.25 Q157.936 1398.98 154.857 1403.58 Q151.802 1408.17 145.992 1408.17 Q140.181 1408.17 137.103 1403.58 Q134.047 1398.98 134.047 1390.25 Q134.047 1381.5 137.103 1376.92 Q140.181 1372.31 145.992 1372.31 Z" fill="#000000" fill-rule="nonzero" fill-opacity="1" /><path clip-path="url(#clip690)" d="M51.9875 1143.18 L81.6633 1143.18 L81.6633 1147.12 L51.9875 1147.12 L51.9875 1143.18 Z" fill="#000000" fill-rule="nonzero" fill-opacity="1" /><path clip-path="url(#clip690)" d="M101.756 1128.53 Q98.1447 1128.53 96.316 1132.1 Q94.5104 1135.64 94.5104 1142.77 Q94.5104 1149.87 96.316 1153.44 Q98.1447 1156.98 101.756 1156.98 Q105.39 1156.98 107.196 1153.44 Q109.024 1149.87 109.024 1142.77 Q109.024 1135.64 107.196 1132.1 Q105.39 1128.53 101.756 1128.53 M101.756 1124.83 Q107.566 1124.83 110.621 1129.43 Q113.7 1134.02 113.7 1142.77 Q113.7 1151.49 110.621 1156.1 Q107.566 1160.68 101.756 1160.68 Q95.9456 1160.68 92.8669 1156.1 Q89.8114 1151.49 89.8114 1142.77 Q89.8114 1134.02 92.8669 1129.43 Q95.9456 1124.83 101.756 1124.83 Z" fill="#000000" fill-rule="nonzero" fill-opacity="1" /><path clip-path="url(#clip690)" d="M121.918 1154.13 L126.802 1154.13 L126.802 1160.01 L121.918 1160.01 L121.918 1154.13 Z" fill="#000000" fill-rule="nonzero" fill-opacity="1" /><path clip-path="url(#clip690)" d="M137.033 1125.45 L155.39 1125.45 L155.39 1129.39 L141.316 1129.39 L141.316 1137.86 Q142.334 1137.51 143.353 1137.35 Q144.371 1137.17 145.39 1137.17 Q151.177 1137.17 154.556 1140.34 Q157.936 1143.51 157.936 1148.92 Q157.936 1154.5 154.464 1157.6 Q150.992 1160.68 144.672 1160.68 Q142.496 1160.68 140.228 1160.31 Q137.982 1159.94 135.575 1159.2 L135.575 1154.5 Q137.658 1155.64 139.881 1156.19 Q142.103 1156.75 144.58 1156.75 Q148.584 1156.75 150.922 1154.64 Q153.26 1152.54 153.26 1148.92 Q153.26 1145.31 150.922 1143.21 Q148.584 1141.1 144.58 1141.1 Q142.705 1141.1 140.83 1141.52 Q138.978 1141.93 137.033 1142.81 L137.033 1125.45 Z" fill="#000000" fill-rule="nonzero" fill-opacity="1" /><path clip-path="url(#clip690)" d="M100.76 881.049 Q97.1493 881.049 95.3206 884.613 Q93.515 888.155 93.515 895.285 Q93.515 902.391 95.3206 905.956 Q97.1493 909.497 100.76 909.497 Q104.395 909.497 106.2 905.956 Q108.029 902.391 108.029 895.285 Q108.029 888.155 106.2 884.613 Q104.395 881.049 100.76 881.049 M100.76 877.345 Q106.571 877.345 109.626 881.951 Q112.705 886.535 112.705 895.285 Q112.705 904.011 109.626 908.618 Q106.571 913.201 100.76 913.201 Q94.9502 913.201 91.8715 908.618 Q88.816 904.011 88.816 895.285 Q88.816 886.535 91.8715 881.951 Q94.9502 877.345 100.76 877.345 Z" fill="#000000" fill-rule="nonzero" fill-opacity="1" /><path clip-path="url(#clip690)" d="M120.922 906.65 L125.807 906.65 L125.807 912.53 L120.922 912.53 L120.922 906.65 Z" fill="#000000" fill-rule="nonzero" fill-opacity="1" /><path clip-path="url(#clip690)" d="M145.992 881.049 Q142.381 881.049 140.552 884.613 Q138.746 888.155 138.746 895.285 Q138.746 902.391 140.552 905.956 Q142.381 909.497 145.992 909.497 Q149.626 909.497 151.431 905.956 Q153.26 902.391 153.26 895.285 Q153.26 888.155 151.431 884.613 Q149.626 881.049 145.992 881.049 M145.992 877.345 Q151.802 877.345 154.857 881.951 Q157.936 886.535 157.936 895.285 Q157.936 904.011 154.857 908.618 Q151.802 913.201 145.992 913.201 Q140.181 913.201 137.103 908.618 Q134.047 904.011 134.047 895.285 Q134.047 886.535 137.103 881.951 Q140.181 877.345 145.992 877.345 Z" fill="#000000" fill-rule="nonzero" fill-opacity="1" /><path clip-path="url(#clip690)" d="M101.756 633.566 Q98.1447 633.566 96.316 637.131 Q94.5104 640.673 94.5104 647.802 Q94.5104 654.909 96.316 658.473 Q98.1447 662.015 101.756 662.015 Q105.39 662.015 107.196 658.473 Q109.024 654.909 109.024 647.802 Q109.024 640.673 107.196 637.131 Q105.39 633.566 101.756 633.566 M101.756 629.862 Q107.566 629.862 110.621 634.469 Q113.7 639.052 113.7 647.802 Q113.7 656.529 110.621 661.135 Q107.566 665.719 101.756 665.719 Q95.9456 665.719 92.8669 661.135 Q89.8114 656.529 89.8114 647.802 Q89.8114 639.052 92.8669 634.469 Q95.9456 629.862 101.756 629.862 Z" fill="#000000" fill-rule="nonzero" fill-opacity="1" /><path clip-path="url(#clip690)" d="M121.918 659.168 L126.802 659.168 L126.802 665.047 L121.918 665.047 L121.918 659.168 Z" fill="#000000" fill-rule="nonzero" fill-opacity="1" /><path clip-path="url(#clip690)" d="M137.033 630.487 L155.39 630.487 L155.39 634.423 L141.316 634.423 L141.316 642.895 Q142.334 642.548 143.353 642.386 Q144.371 642.2 145.39 642.2 Q151.177 642.2 154.556 645.372 Q157.936 648.543 157.936 653.96 Q157.936 659.538 154.464 662.64 Q150.992 665.719 144.672 665.719 Q142.496 665.719 140.228 665.348 Q137.982 664.978 135.575 664.237 L135.575 659.538 Q137.658 660.672 139.881 661.228 Q142.103 661.784 144.58 661.784 Q148.584 661.784 150.922 659.677 Q153.26 657.571 153.26 653.96 Q153.26 650.348 150.922 648.242 Q148.584 646.136 144.58 646.136 Q142.705 646.136 140.83 646.552 Q138.978 646.969 137.033 647.848 L137.033 630.487 Z" fill="#000000" fill-rule="nonzero" fill-opacity="1" /><path clip-path="url(#clip690)" d="M91.5706 413.63 L99.2095 413.63 L99.2095 387.264 L90.8993 388.931 L90.8993 384.672 L99.1632 383.005 L103.839 383.005 L103.839 413.63 L111.478 413.63 L111.478 417.565 L91.5706 417.565 L91.5706 413.63 Z" fill="#000000" fill-rule="nonzero" fill-opacity="1" /><path clip-path="url(#clip690)" d="M120.922 411.685 L125.807 411.685 L125.807 417.565 L120.922 417.565 L120.922 411.685 Z" fill="#000000" fill-rule="nonzero" fill-opacity="1" /><path clip-path="url(#clip690)" d="M145.992 386.084 Q142.381 386.084 140.552 389.649 Q138.746 393.19 138.746 400.32 Q138.746 407.426 140.552 410.991 Q142.381 414.533 145.992 414.533 Q149.626 414.533 151.431 410.991 Q153.26 407.426 153.26 400.32 Q153.26 393.19 151.431 389.649 Q149.626 386.084 145.992 386.084 M145.992 382.38 Q151.802 382.38 154.857 386.987 Q157.936 391.57 157.936 400.32 Q157.936 409.047 154.857 413.653 Q151.802 418.236 145.992 418.236 Q140.181 418.236 137.103 413.653 Q134.047 409.047 134.047 400.32 Q134.047 391.57 137.103 386.987 Q140.181 382.38 145.992 382.38 Z" fill="#000000" fill-rule="nonzero" fill-opacity="1" /><path clip-path="url(#clip690)" d="M92.566 166.148 L100.205 166.148 L100.205 139.782 L91.8947 141.449 L91.8947 137.189 L100.159 135.523 L104.834 135.523 L104.834 166.148 L112.473 166.148 L112.473 170.083 L92.566 170.083 L92.566 166.148 Z" fill="#000000" fill-rule="nonzero" fill-opacity="1" /><path clip-path="url(#clip690)" d="M121.918 164.203 L126.802 164.203 L126.802 170.083 L121.918 170.083 L121.918 164.203 Z" fill="#000000" fill-rule="nonzero" fill-opacity="1" /><path clip-path="url(#clip690)" d="M137.033 135.523 L155.39 135.523 L155.39 139.458 L141.316 139.458 L141.316 147.93 Q142.334 147.583 143.353 147.421 Q144.371 147.236 145.39 147.236 Q151.177 147.236 154.556 150.407 Q157.936 153.578 157.936 158.995 Q157.936 164.573 154.464 167.675 Q150.992 170.754 144.672 170.754 Q142.496 170.754 140.228 170.384 Q137.982 170.013 135.575 169.273 L135.575 164.573 Q137.658 165.708 139.881 166.263 Q142.103 166.819 144.58 166.819 Q148.584 166.819 150.922 164.712 Q153.26 162.606 153.26 158.995 Q153.26 155.384 150.922 153.277 Q148.584 151.171 144.58 151.171 Q142.705 151.171 140.83 151.587 Q138.978 152.004 137.033 152.884 L137.033 135.523 Z" fill="#000000" fill-rule="nonzero" fill-opacity="1" /><polyline clip-path="url(#clip692)" style="stroke:#009af9; stroke-linecap:round; stroke-linejoin:round; stroke-width:4; stroke-opacity:1; fill:none" points="193.936,895.25 196.097,888.342 198.258,881.525 200.419,874.799 202.58,868.162 204.741,861.613 206.902,855.151 209.063,848.775 211.224,842.483 213.385,836.275 215.546,830.148 217.707,824.103 219.868,818.139 222.029,812.253 224.19,806.445 226.351,800.715 228.512,795.06 230.673,789.48 232.834,783.974 234.995,778.542 237.156,773.181 239.317,767.891 241.478,762.672 243.639,757.521 245.8,752.439 247.961,747.425 250.122,742.476 252.282,737.594 254.443,732.776 256.604,728.022 258.765,723.331 260.926,718.702 263.087,714.135 265.248,709.628 267.409,705.181 269.57,700.793 271.731,696.463 273.892,692.191 276.053,687.975 278.214,683.815 280.375,679.71 282.536,675.659 284.697,671.663 286.858,667.719 289.019,663.827 291.18,659.987 293.341,656.199 295.502,652.46 297.663,648.771 299.824,645.131 301.985,641.539 304.146,637.994 306.307,634.497 308.468,631.046 310.629,627.641 312.79,624.281 314.951,620.965 317.112,617.694 319.273,614.465 321.434,611.28 323.595,608.137 325.756,605.035 327.917,601.975 330.078,598.955 332.239,595.975 334.4,593.035 336.561,590.133 338.722,587.27 340.883,584.446 343.044,581.658 345.205,578.908 347.366,576.194 349.527,573.516 351.688,570.873 353.849,568.266 356.01,565.693 358.171,563.154 360.332,560.649 362.493,558.177 364.653,555.738 366.814,553.332 368.975,550.957 371.136,548.613 373.297,546.301 375.458,544.019 377.619,541.768 379.78,539.546 381.941,537.354 384.102,535.191 386.263,533.057 388.424,530.951 390.585,528.872 392.746,526.822 394.907,524.798 397.068,522.802 399.229,520.832 401.39,518.888 403.551,516.969 405.712,515.077 407.873,513.209 410.034,511.757 412.195,511.447 414.356,512.179 416.517,513.829 418.678,516.284 420.839,519.434 423,523.178 425.161,527.419 427.322,532.068 429.483,537.042 431.644,542.262 433.805,547.659 435.966,553.168 438.127,558.73 440.288,564.294 442.449,569.813 444.61,575.249 446.771,580.569 448.932,585.745 451.093,590.757 453.254,595.591 455.415,600.239 457.576,604.699 459.737,608.975 461.898,613.08 464.059,617.029 466.22,620.847 468.381,624.564 470.542,628.214 472.703,631.841 474.864,635.494 477.024,639.221 479.185,642.943 481.346,646.617 483.507,650.241 485.668,653.817 487.829,657.346 489.99,660.828 492.151,664.264 494.312,667.655 496.473,671 498.634,674.302 500.795,677.559 502.956,680.773 505.117,683.945 507.278,687.074 509.439,690.162 511.6,693.209 513.761,696.216 515.922,699.184 518.083,702.111 520.244,705.001 522.405,707.851 524.566,710.664 526.727,713.44 528.888,716.179 531.049,718.882 533.21,721.549 535.371,724.18 537.532,726.776 539.693,729.338 541.854,731.866 544.015,734.361 546.176,736.822 548.337,739.25 550.498,741.647 552.659,744.011 554.82,746.344 556.981,748.646 559.142,750.918 561.303,753.159 563.464,755.371 565.625,757.553 567.786,759.706 569.947,761.831 572.108,763.928 574.269,765.996 576.43,768.038 578.591,770.052 580.752,772.039 582.913,774.001 585.074,775.936 587.235,777.845 589.396,779.73 591.556,781.589 593.717,783.424 595.878,785.234 598.039,787.021 600.2,788.784 602.361,790.523 604.522,792.24 606.683,793.933 608.844,795.605 611.005,797.254 613.166,798.881 615.327,800.487 617.488,802.071 619.649,803.635 621.81,805.177 623.971,806.699 626.132,807.984 628.293,807.844 630.454,806.262 632.615,803.424 634.776,799.507 636.937,794.676 639.098,789.083 641.259,782.872 643.42,776.175 645.581,769.114 647.742,761.798 649.903,754.329 652.064,746.795 654.225,739.274 656.386,731.833 658.547,724.53 660.708,717.409 662.869,710.505 665.03,703.844 667.191,697.437 669.352,691.288 671.513,685.388 673.674,679.718 675.835,674.248 677.996,668.938 680.157,663.735 682.318,658.577 684.479,653.392 686.64,648.111 688.801,642.857 690.962,637.673 693.123,632.557 695.284,627.51 697.445,622.529 699.606,617.614 701.767,612.765 703.927,607.979 706.088,603.257 708.249,598.598 710.41,594.001 712.571,589.464 714.732,584.988 716.893,580.571 719.054,576.212 721.215,571.911 723.376,567.667 725.537,563.479 727.698,559.347 729.859,555.269 732.02,551.246 734.181,547.276 736.342,543.358 738.503,539.493 740.664,535.678 742.825,531.915 744.986,528.201 747.147,524.537 749.308,520.921 751.469,517.353 753.63,513.833 755.791,510.359 757.952,506.932 760.113,503.55 762.274,500.213 764.435,496.92 766.596,493.671 768.757,490.465 770.918,487.301 773.079,484.18 775.24,481.099 777.401,478.06 779.562,475.061 781.723,472.102 783.884,469.182 786.045,466.301 788.206,463.458 790.367,460.652 792.528,457.884 794.689,455.152 796.85,452.457 799.011,449.797 801.172,447.172 803.333,444.582 805.494,442.027 807.655,439.505 809.816,437.017 811.977,434.562 814.138,432.139 816.298,429.749 818.459,427.39 820.62,425.062 822.781,422.765 824.942,420.499 827.103,418.145 829.264,415.152 831.425,411.847 833.586,408.637 835.747,405.861 837.908,403.782 840.069,402.595 842.23,402.421 844.391,403.31 846.552,405.242 848.713,408.123 850.874,411.787 853.035,416 855.196,420.452 857.357,424.763 859.518,428.67 861.679,432.492 863.84,436.264 866.001,439.986 868.162,443.658 870.323,447.282 872.484,450.857 874.645,454.386 876.806,457.867 878.967,461.303 881.128,464.693 883.289,468.038 885.45,471.339 887.611,474.596 889.772,477.809 891.933,480.981 894.094,484.11 896.255,487.197 898.416,490.244 900.577,493.25 902.738,496.216 904.899,499.143 907.06,502.031 909.221,504.881 911.382,507.693 913.543,510.468 915.704,513.206 917.865,515.907 920.026,518.573 922.187,521.203 924.348,523.798 926.509,526.359 928.669,528.886 930.83,531.38 932.991,533.84 935.152,536.268 937.313,538.663 939.474,541.027 941.635,543.36 943.796,545.662 945.957,547.933 948.118,550.174 950.279,552.385 952.44,554.567 954.601,556.72 956.762,558.845 958.923,560.942 961.084,563.011 963.245,565.052 965.406,567.066 967.567,569.054 969.728,571.015 971.889,572.95 974.05,574.86 976.211,576.744 978.372,578.603 980.533,580.438 982.694,582.248 984.855,584.034 987.016,585.797 989.177,587.536 991.338,589.252 993.499,590.946 995.66,592.616 997.821,594.265 999.982,595.892 1002.14,597.497 1004.3,599.081 1006.46,600.644 1008.63,602.187 1010.79,603.709 1012.95,605.21 1015.11,606.692 1017.27,608.154 1019.43,609.597 1021.59,611.021 1023.75,612.425 1025.91,613.811 1028.07,615.179 1030.24,616.529 1032.4,617.861 1034.56,619.175 1036.72,620.471 1038.88,621.751 1041.04,623.013 1043.2,624.259 1045.36,625.488 1047.52,626.701 1049.68,627.898 1051.85,629.333 1054.01,633.575 1056.17,640.5 1058.33,649.227 1060.49,659.018 1062.65,669.279 1064.81,679.561 1066.97,689.559 1069.13,699.112 1071.29,708.203 1073.46,716.959 1075.62,725.651 1077.78,734.382 1079.94,742.998 1082.1,751.5 1084.26,759.888 1086.42,768.166 1088.58,776.334 1090.74,784.394 1092.9,792.347 1095.07,800.194 1097.23,807.937 1099.39,815.578 1101.55,823.118 1103.71,830.557 1105.87,837.898 1108.03,845.141 1110.19,852.289 1112.35,859.341 1114.51,866.3 1116.67,873.167 1118.84,879.943 1121,886.629 1123.16,893.226 1125.32,899.736 1127.48,906.159 1129.64,912.497 1131.8,918.752 1133.96,924.923 1136.12,931.012 1138.28,937.021 1140.45,942.95 1142.61,948.801 1144.77,954.574 1146.93,960.27 1149.09,965.891 1151.25,971.438 1153.41,976.911 1155.57,982.311 1157.73,987.64 1159.89,992.898 1162.06,998.087 1164.22,1003.21 1166.38,1008.26 1168.54,1013.24 1170.7,1018.16 1172.86,1023.01 1175.02,1027.8 1177.18,1032.53 1179.34,1037.19 1181.5,1041.79 1183.67,1046.33 1185.83,1050.81 1187.99,1055.23 1190.15,1059.6 1192.31,1063.9 1194.47,1068.15 1196.63,1072.34 1198.79,1076.47 1200.95,1080.55 1203.11,1084.58 1205.28,1088.55 1207.44,1092.47 1209.6,1096.34 1211.76,1100.16 1213.92,1103.93 1216.08,1107.64 1218.24,1111.31 1220.4,1114.93 1222.56,1118.5 1224.72,1122.02 1226.88,1125.5 1229.05,1128.93 1231.21,1132.31 1233.37,1135.65 1235.53,1138.95 1237.69,1142.2 1239.85,1145.41 1242.01,1148.58 1244.17,1151.7 1246.33,1154.78 1248.49,1157.82 1250.66,1160.83 1252.82,1163.79 1254.98,1166.71 1257.14,1169.59 1259.3,1172.44 1261.46,1175.25 1263.62,1177.98 1265.78,1180.6 1267.94,1183.09 1270.1,1185.49 1272.27,1187.78 1274.43,1189.99 1276.59,1192.12 1278.75,1194.18 1280.91,1196.16 1283.07,1198.09 1285.23,1199.96 1287.39,1201.79 1289.55,1203.57 1291.71,1205.32 1293.88,1207.03 1296.04,1208.71 1298.2,1210.36 1300.36,1211.99 1302.52,1213.6 1304.68,1215.2 1306.84,1216.78 1309,1218.35 1311.16,1219.9 1313.32,1221.44 1315.49,1222.97 1317.65,1224.5 1319.81,1226.01 1321.97,1227.5 1324.13,1228.99 1326.29,1230.46 1328.45,1231.91 1330.61,1233.35 1332.77,1234.76 1334.93,1236.15 1337.09,1237.52 1339.26,1238.86 1341.42,1240.18 1343.58,1241.48 1345.74,1242.77 1347.9,1244.04 1350.06,1245.29 1352.22,1246.53 1354.38,1247.75 1356.54,1248.95 1358.7,1250.14 1360.87,1251.31 1363.03,1252.47 1365.19,1253.61 1367.35,1254.74 1369.51,1255.85 1371.67,1256.95 1373.83,1258.03 1375.99,1259.1 1378.15,1260.15 1380.31,1261.19 1382.48,1262.21 1384.64,1263.23 1386.8,1264.23 1388.96,1265.21 1391.12,1266.18 1393.28,1267.14 1395.44,1268.09 1397.6,1269.02 1399.76,1269.95 1401.92,1270.86 1404.09,1271.75 1406.25,1272.64 1408.41,1273.51 1410.57,1274.38 1412.73,1275.23 1414.89,1276.07 1417.05,1276.9 1419.21,1277.71 1421.37,1278.52 1423.53,1279.32 1425.7,1280.1 1427.86,1280.88 1430.02,1281.64 1432.18,1282.4 1434.34,1283.14 1436.5,1283.88 1438.66,1284.6 1440.82,1285.32 1442.98,1286.02 1445.14,1286.72 1447.3,1287.41 1449.47,1288.08 1451.63,1288.75 1453.79,1289.41 1455.95,1290.06 1458.11,1290.71 1460.27,1291.34 1462.43,1291.97 1464.59,1292.59 1466.75,1293.2 1468.91,1293.8 1471.08,1294.39 1473.24,1294.98 1475.4,1295.55 1477.56,1296.12 1479.72,1296.69 1481.88,1297.24 1484.04,1297.79 1486.2,1298.33 1488.36,1298.74 1490.52,1298.79 1492.69,1298.51 1494.85,1297.93 1497.01,1297.08 1499.17,1295.98 1501.33,1294.67 1503.49,1293.17 1505.65,1291.5 1507.81,1289.69 1509.97,1287.75 1512.13,1285.72 1514.3,1283.61 1516.46,1281.44 1518.62,1279.22 1520.78,1276.97 1522.94,1274.7 1525.1,1272.44 1527.26,1270.19 1529.42,1267.96 1531.58,1265.76 1533.74,1263.6 1535.91,1261.48 1538.07,1259.42 1540.23,1257.42 1542.39,1255.48 1544.55,1253.6 1546.71,1251.78 1548.87,1250.03 1551.03,1248.34 1553.19,1246.71 1555.35,1245.13 1557.51,1243.61 1559.68,1242.12 1561.84,1240.68 1564,1239.25 1566.16,1237.85 1568.32,1236.44 1570.48,1235.03 1572.64,1233.6 1574.8,1232.17 1576.96,1230.76 1579.12,1229.37 1581.29,1228 1583.45,1226.64 1585.61,1225.31 1587.77,1223.99 1589.93,1222.69 1592.09,1221.4 1594.25,1220.14 1596.41,1218.89 1598.57,1217.65 1600.73,1216.43 1602.9,1215.23 1605.06,1214.05 1607.22,1212.88 1609.38,1211.73 1611.54,1210.59 1613.7,1209.46 1615.86,1208.35 1618.02,1207.26 1620.18,1206.18 1622.34,1205.12 1624.51,1204.07 1626.67,1203.05 1628.83,1202.06 1630.99,1201.09 1633.15,1200.16 1635.31,1199.24 1637.47,1198.35 1639.63,1197.47 1641.79,1196.62 1643.95,1195.77 1646.12,1194.94 1648.28,1194.11 1650.44,1193.3 1652.6,1192.49 1654.76,1191.69 1656.92,1190.89 1659.08,1190.09 1661.24,1189.29 1663.4,1188.5 1665.56,1187.7 1667.72,1186.89 1669.89,1186.09 1672.05,1185.27 1674.21,1184.46 1676.37,1183.63 1678.53,1182.8 1680.69,1181.96 1682.85,1181.11 1685.01,1180.25 1687.17,1179.39 1689.33,1178.51 1691.5,1177.62 1693.66,1176.73 1695.82,1175.82 1697.98,1174.91 1700.14,1173.98 1702.3,1173.05 1704.46,1172.11 1706.62,1171.16 1708.78,1170.2 1710.94,1169.23 1713.11,1168.26 1715.27,1167.28 1717.43,1166.3 1719.59,1165.31 1721.75,1164.32 1723.91,1163.33 1726.07,1162.34 1728.23,1161.35 1730.39,1160.36 1732.55,1159.38 1734.72,1158.4 1736.88,1157.43 1739.04,1156.47 1741.2,1155.52 1743.36,1154.58 1745.52,1153.65 1747.68,1152.75 1749.84,1151.86 1752,1150.99 1754.16,1150.15 1756.33,1149.33 1758.49,1148.52 1760.65,1147.72 1762.81,1146.93 1764.97,1146.15 1767.13,1145.38 1769.29,1144.63 1771.45,1143.88 1773.61,1143.14 1775.77,1142.42 1777.93,1141.7 1780.1,1140.99 1782.26,1140.29 1784.42,1139.6 1786.58,1138.92 1788.74,1138.25 1790.9,1137.59 1793.06,1136.93 1795.22,1136.29 1797.38,1135.65 1799.54,1135.02 1801.71,1134.4 1803.87,1133.79 1806.03,1133.19 1808.19,1132.59 1810.35,1132 1812.51,1131.42 1814.67,1130.85 1816.83,1130.29 1818.99,1129.73 1821.15,1129.18 1823.32,1128.64 1825.48,1128.1 1827.64,1127.58 1829.8,1127.05 1831.96,1126.54 1834.12,1126.03 1836.28,1125.53 1838.44,1125.04 1840.6,1124.55 1842.76,1124.07 1844.93,1123.6 1847.09,1123.13 1849.25,1122.66 1851.41,1122.21 1853.57,1121.76 1855.73,1121.31 1857.89,1120.88 1860.05,1120.44 1862.21,1120.02 1864.37,1119.6 1866.54,1119.18 1868.7,1118.77 1870.86,1118.37 1873.02,1117.97 1875.18,1117.57 1877.34,1117.19 1879.5,1116.8 1881.66,1116.42 1883.82,1116.05 1885.98,1115.68 1888.15,1115.32 1890.31,1114.96 1892.47,1114.61 1894.63,1114.26 1896.79,1113.91 1898.95,1113.57 1901.11,1113.24 1903.27,1112.91 1905.43,1112.58 1907.59,1112.26 1909.75,1111.94 1911.92,1111.63 1914.08,1111.32 1916.24,1111.01 1918.4,1110.63 1920.56,1108.38 1922.72,1103.75 1924.88,1097.09 1927.04,1088.69 1929.2,1078.85 1931.36,1067.83 1933.53,1055.89 1935.69,1043.26 1937.85,1030.13 1940.01,1016.7 1942.17,1003.13 1944.33,989.56 1946.49,976.12 1948.65,962.912 1950.81,950.017 1952.97,937.497 1955.14,925.391 1957.3,913.721 1959.46,902.485 1961.62,891.662 1963.78,881.208 1965.94,871.062 1968.1,861.14 1970.26,851.335 1972.42,841.524 1974.58,831.585 1976.75,821.703 1978.91,811.951 1981.07,802.329 1983.23,792.834 1985.39,783.465 1987.55,774.221 1989.71,765.099 1991.87,756.098 1994.03,747.216 1996.19,738.452 1998.36,729.804 2000.52,721.271 2002.68,712.851 2004.84,704.543 2007,696.345 2009.16,688.255 2011.32,680.273 2013.48,672.397 2015.64,664.625 2017.8,656.956 2019.96,649.388 2022.13,641.921 2024.29,634.553 2026.45,627.282 2028.61,620.107 2030.77,613.028 2032.93,606.043 2035.09,599.15 2037.25,592.349 2039.41,585.637 2041.57,579.015 2043.74,572.481 2045.9,566.034 2048.06,559.672 2050.22,553.394 2052.38,547.2 2054.54,541.088 2056.7,535.057 2058.86,529.106 2061.02,523.234 2063.18,517.44 2065.35,511.723 2067.51,506.082 2069.67,500.515 2071.83,495.022 2073.99,489.602 2076.15,484.254 2078.31,478.977 2080.47,473.77 2082.63,468.632 2084.79,463.561 2086.96,458.558 2089.12,453.622 2091.28,448.75 2093.44,443.943 2095.6,439.2 2097.76,434.52 2099.92,429.902 2102.08,425.345 2104.24,420.848 2106.4,416.411 2108.57,412.033 2110.73,407.713 2112.89,403.45 2115.05,399.244 2117.21,395.093 2119.37,390.998 2121.53,386.957 2123.69,382.969 2125.85,379.034 2128.01,375.152 2130.17,371.321 2132.34,367.54 2134.5,363.962 2136.66,362.626 2138.82,363.914 2140.98,367.512 2143.14,373.121 2145.3,380.461 2147.46,389.267 2149.62,399.293 2151.78,410.309 2153.95,422.101 2156.11,434.474 2158.27,447.248 2160.43,460.263 2162.59,473.372 2164.75,486.449 2166.91,499.383 2169.07,512.08 2171.23,524.462 2173.39,536.471 2175.56,548.065 2177.72,559.216 2179.88,569.917 2182.04,580.177 2184.2,590.02 2186.36,599.489 2188.52,608.644 2190.68,617.561 2192.84,626.335 2195,635.075 2197.17,643.909 2199.33,652.904 2201.49,661.812 2203.65,670.603 2205.81,679.276 2207.97,687.835 2210.13,696.281 2212.29,704.614 2214.45,712.837 2216.61,720.951 2218.78,728.957 2220.94,736.857 2223.1,744.653 2225.26,752.345 2227.42,759.935 2229.58,767.424 2231.74,774.814 2233.9,782.107 2236.06,789.303 2238.22,796.403 2240.38,803.41 2242.55,810.324 2244.71,817.146 2246.87,823.877 2249.03,830.52 2251.19,837.074 2253.35,843.541 2255.51,849.923 2257.67,856.219 2259.83,862.433 2261.99,868.563 2264.16,874.613 2266.32,880.582 2268.48,886.472 2270.64,892.283 2272.8,898.018 2274.96,903.676 2277.12,909.26 2279.28,914.769 2281.44,920.205 2283.6,925.57 2285.77,930.862 2287.93,936.085 2290.09,941.239 2292.25,946.324 2294.41,951.342 2296.57,956.293 2298.73,961.179 2300.89,966 2303.05,970.757 2305.21,975.451 2307.38,980.083 2309.54,984.653 2311.7,989.163 2313.86,993.614 2316.02,998.005 2318.18,1002.34 2320.34,1006.61 2322.5,1010.83 2324.66,1015 2326.82,1019.1 2328.99,1023.16 2331.15,1027.16 2333.31,1031.1 2335.47,1035 2337.63,1038.84 2339.79,1042.63 2341.95,1046.37 2344.11,1050.07 2346.27,1053.71 2348.43,1057.3 2350.59,1060.85 2352.76,1064.35 "/>
<polyline clip-path="url(#clip692)" style="stroke:#e26f46; stroke-linecap:round; stroke-linejoin:round; stroke-width:4; stroke-opacity:1; fill:none" points="193.936,374.202 196.097,374.202 198.258,374.202 200.419,374.202 202.58,374.202 204.741,374.202 206.902,374.202 209.063,374.202 211.224,374.202 213.385,374.202 215.546,374.202 217.707,374.202 219.868,374.202 222.029,374.202 224.19,374.202 226.351,374.202 228.512,374.202 230.673,374.202 232.834,374.202 234.995,374.202 237.156,374.202 239.317,374.202 241.478,374.202 243.639,374.202 245.8,374.202 247.961,374.202 250.122,374.202 252.282,374.202 254.443,374.202 256.604,374.202 258.765,374.202 260.926,374.202 263.087,374.202 265.248,374.202 267.409,374.202 269.57,374.202 271.731,374.202 273.892,374.202 276.053,374.202 278.214,374.202 280.375,374.202 282.536,374.202 284.697,374.202 286.858,374.202 289.019,374.202 291.18,374.202 293.341,374.202 295.502,374.202 297.663,374.202 299.824,374.202 301.985,374.202 304.146,374.202 306.307,374.202 308.468,374.202 310.629,374.202 312.79,374.202 314.951,374.202 317.112,374.202 319.273,374.202 321.434,374.202 323.595,374.202 325.756,374.202 327.917,374.202 330.078,374.202 332.239,374.202 334.4,374.202 336.561,374.202 338.722,374.202 340.883,374.202 343.044,374.202 345.205,374.202 347.366,374.202 349.527,374.202 351.688,374.202 353.849,374.202 356.01,374.202 358.171,374.202 360.332,374.202 362.493,374.202 364.653,374.202 366.814,374.202 368.975,374.202 371.136,374.202 373.297,374.202 375.458,374.202 377.619,374.202 379.78,374.202 381.941,374.202 384.102,374.202 386.263,374.202 388.424,374.202 390.585,374.202 392.746,374.202 394.907,374.202 397.068,374.202 399.229,374.202 401.39,374.202 403.551,374.202 405.712,374.202 407.873,374.202 410.034,919.992 412.195,919.992 414.356,919.992 416.517,919.992 418.678,919.992 420.839,919.992 423,919.992 425.161,919.992 427.322,919.992 429.483,919.992 431.644,919.992 433.805,919.992 435.966,919.992 438.127,919.992 440.288,919.992 442.449,919.992 444.61,919.992 446.771,919.992 448.932,919.992 451.093,919.992 453.254,919.992 455.415,919.992 457.576,919.992 459.737,919.992 461.898,919.992 464.059,919.992 466.22,919.992 468.381,919.992 470.542,919.992 472.703,919.992 474.864,919.992 477.024,919.992 479.185,919.992 481.346,919.992 483.507,919.992 485.668,919.992 487.829,919.992 489.99,919.992 492.151,919.992 494.312,919.992 496.473,919.992 498.634,919.992 500.795,919.992 502.956,919.992 505.117,919.992 507.278,919.992 509.439,919.992 511.6,919.992 513.761,919.992 515.922,919.992 518.083,919.992 520.244,919.992 522.405,919.992 524.566,919.992 526.727,919.992 528.888,919.992 531.049,919.992 533.21,919.992 535.371,919.992 537.532,919.992 539.693,919.992 541.854,919.992 544.015,919.992 546.176,919.992 548.337,919.992 550.498,919.992 552.659,919.992 554.82,919.992 556.981,919.992 559.142,919.992 561.303,919.992 563.464,919.992 565.625,919.992 567.786,919.992 569.947,919.992 572.108,919.992 574.269,919.992 576.43,919.992 578.591,919.992 580.752,919.992 582.913,919.992 585.074,919.992 587.235,919.992 589.396,919.992 591.556,919.992 593.717,919.992 595.878,919.992 598.039,919.992 600.2,919.992 602.361,919.992 604.522,919.992 606.683,919.992 608.844,919.992 611.005,919.992 613.166,919.992 615.327,919.992 617.488,919.992 619.649,919.992 621.81,919.992 623.971,919.992 626.132,251.829 628.293,251.829 630.454,251.829 632.615,251.829 634.776,251.829 636.937,251.829 639.098,251.829 641.259,251.829 643.42,251.829 645.581,251.829 647.742,251.829 649.903,251.829 652.064,251.829 654.225,251.829 656.386,251.829 658.547,251.829 660.708,251.829 662.869,251.829 665.03,251.829 667.191,251.829 669.352,251.829 671.513,251.829 673.674,251.829 675.835,251.829 677.996,251.829 680.157,251.829 682.318,251.829 684.479,251.829 686.64,251.829 688.801,251.829 690.962,251.829 693.123,251.829 695.284,251.829 697.445,251.829 699.606,251.829 701.767,251.829 703.927,251.829 706.088,251.829 708.249,251.829 710.41,251.829 712.571,251.829 714.732,251.829 716.893,251.829 719.054,251.829 721.215,251.829 723.376,251.829 725.537,251.829 727.698,251.829 729.859,251.829 732.02,251.829 734.181,251.829 736.342,251.829 738.503,251.829 740.664,251.829 742.825,251.829 744.986,251.829 747.147,251.829 749.308,251.829 751.469,251.829 753.63,251.829 755.791,251.829 757.952,251.829 760.113,251.829 762.274,251.829 764.435,251.829 766.596,251.829 768.757,251.829 770.918,251.829 773.079,251.829 775.24,251.829 777.401,251.829 779.562,251.829 781.723,251.829 783.884,251.829 786.045,251.829 788.206,251.829 790.367,251.829 792.528,251.829 794.689,251.829 796.85,251.829 799.011,251.829 801.172,251.829 803.333,251.829 805.494,251.829 807.655,251.829 809.816,251.829 811.977,251.829 814.138,251.829 816.298,251.829 818.459,251.829 820.62,251.829 822.781,251.829 824.942,251.829 827.103,251.829 829.264,251.829 831.425,251.829 833.586,251.829 835.747,251.829 837.908,251.829 840.069,251.829 842.23,716.977 844.391,716.977 846.552,716.977 848.713,716.977 850.874,716.977 853.035,716.977 855.196,716.977 857.357,716.977 859.518,716.977 861.679,716.977 863.84,716.977 866.001,716.977 868.162,716.977 870.323,716.977 872.484,716.977 874.645,716.977 876.806,716.977 878.967,716.977 881.128,716.977 883.289,716.977 885.45,716.977 887.611,716.977 889.772,716.977 891.933,716.977 894.094,716.977 896.255,716.977 898.416,716.977 900.577,716.977 902.738,716.977 904.899,716.977 907.06,716.977 909.221,716.977 911.382,716.977 913.543,716.977 915.704,716.977 917.865,716.977 920.026,716.977 922.187,716.977 924.348,716.977 926.509,716.977 928.669,716.977 930.83,716.977 932.991,716.977 935.152,716.977 937.313,716.977 939.474,716.977 941.635,716.977 943.796,716.977 945.957,716.977 948.118,716.977 950.279,716.977 952.44,716.977 954.601,716.977 956.762,716.977 958.923,716.977 961.084,716.977 963.245,716.977 965.406,716.977 967.567,716.977 969.728,716.977 971.889,716.977 974.05,716.977 976.211,716.977 978.372,716.977 980.533,716.977 982.694,716.977 984.855,716.977 987.016,716.977 989.177,716.977 991.338,716.977 993.499,716.977 995.66,716.977 997.821,716.977 999.982,716.977 1002.14,716.977 1004.3,716.977 1006.46,716.977 1008.63,716.977 1010.79,716.977 1012.95,716.977 1015.11,716.977 1017.27,716.977 1019.43,716.977 1021.59,716.977 1023.75,716.977 1025.91,716.977 1028.07,716.977 1030.24,716.977 1032.4,716.977 1034.56,716.977 1036.72,716.977 1038.88,716.977 1041.04,716.977 1043.2,716.977 1045.36,716.977 1047.52,716.977 1049.68,716.977 1051.85,716.977 1054.01,716.977 1056.17,716.977 1058.33,1384.24 1060.49,1384.24 1062.65,1384.24 1064.81,1384.24 1066.97,1384.24 1069.13,1384.24 1071.29,1384.24 1073.46,1384.24 1075.62,1384.24 1077.78,1384.24 1079.94,1384.24 1082.1,1384.24 1084.26,1384.24 1086.42,1384.24 1088.58,1384.24 1090.74,1384.24 1092.9,1384.24 1095.07,1384.24 1097.23,1384.24 1099.39,1384.24 1101.55,1384.24 1103.71,1384.24 1105.87,1384.24 1108.03,1384.24 1110.19,1384.24 1112.35,1384.24 1114.51,1384.24 1116.67,1384.24 1118.84,1384.24 1121,1384.24 1123.16,1384.24 1125.32,1384.24 1127.48,1384.24 1129.64,1384.24 1131.8,1384.24 1133.96,1384.24 1136.12,1384.24 1138.28,1384.24 1140.45,1384.24 1142.61,1384.24 1144.77,1384.24 1146.93,1384.24 1149.09,1384.24 1151.25,1384.24 1153.41,1384.24 1155.57,1384.24 1157.73,1384.24 1159.89,1384.24 1162.06,1384.24 1164.22,1384.24 1166.38,1384.24 1168.54,1384.24 1170.7,1384.24 1172.86,1384.24 1175.02,1384.24 1177.18,1384.24 1179.34,1384.24 1181.5,1384.24 1183.67,1384.24 1185.83,1384.24 1187.99,1384.24 1190.15,1384.24 1192.31,1384.24 1194.47,1384.24 1196.63,1384.24 1198.79,1384.24 1200.95,1384.24 1203.11,1384.24 1205.28,1384.24 1207.44,1384.24 1209.6,1384.24 1211.76,1384.24 1213.92,1384.24 1216.08,1384.24 1218.24,1384.24 1220.4,1384.24 1222.56,1384.24 1224.72,1384.24 1226.88,1384.24 1229.05,1384.24 1231.21,1384.24 1233.37,1384.24 1235.53,1384.24 1237.69,1384.24 1239.85,1384.24 1242.01,1384.24 1244.17,1384.24 1246.33,1384.24 1248.49,1384.24 1250.66,1384.24 1252.82,1384.24 1254.98,1384.24 1257.14,1384.24 1259.3,1384.24 1261.46,1384.24 1263.62,1384.24 1265.78,1384.24 1267.94,1384.24 1270.1,1384.24 1272.27,1384.24 1274.43,1338.56 1276.59,1338.56 1278.75,1338.56 1280.91,1338.56 1283.07,1338.56 1285.23,1338.56 1287.39,1338.56 1289.55,1338.56 1291.71,1338.56 1293.88,1338.56 1296.04,1338.56 1298.2,1338.56 1300.36,1338.56 1302.52,1338.56 1304.68,1338.56 1306.84,1338.56 1309,1338.56 1311.16,1338.56 1313.32,1338.56 1315.49,1338.56 1317.65,1338.56 1319.81,1338.56 1321.97,1338.56 1324.13,1338.56 1326.29,1338.56 1328.45,1338.56 1330.61,1338.56 1332.77,1338.56 1334.93,1338.56 1337.09,1338.56 1339.26,1338.56 1341.42,1338.56 1343.58,1338.56 1345.74,1338.56 1347.9,1338.56 1350.06,1338.56 1352.22,1338.56 1354.38,1338.56 1356.54,1338.56 1358.7,1338.56 1360.87,1338.56 1363.03,1338.56 1365.19,1338.56 1367.35,1338.56 1369.51,1338.56 1371.67,1338.56 1373.83,1338.56 1375.99,1338.56 1378.15,1338.56 1380.31,1338.56 1382.48,1338.56 1384.64,1338.56 1386.8,1338.56 1388.96,1338.56 1391.12,1338.56 1393.28,1338.56 1395.44,1338.56 1397.6,1338.56 1399.76,1338.56 1401.92,1338.56 1404.09,1338.56 1406.25,1338.56 1408.41,1338.56 1410.57,1338.56 1412.73,1338.56 1414.89,1338.56 1417.05,1338.56 1419.21,1338.56 1421.37,1338.56 1423.53,1338.56 1425.7,1338.56 1427.86,1338.56 1430.02,1338.56 1432.18,1338.56 1434.34,1338.56 1436.5,1338.56 1438.66,1338.56 1440.82,1338.56 1442.98,1338.56 1445.14,1338.56 1447.3,1338.56 1449.47,1338.56 1451.63,1338.56 1453.79,1338.56 1455.95,1338.56 1458.11,1338.56 1460.27,1338.56 1462.43,1338.56 1464.59,1338.56 1466.75,1338.56 1468.91,1338.56 1471.08,1338.56 1473.24,1338.56 1475.4,1338.56 1477.56,1338.56 1479.72,1338.56 1481.88,1338.56 1484.04,1338.56 1486.2,1338.56 1488.36,1338.56 1490.52,1125.85 1492.69,1125.85 1494.85,1125.85 1497.01,1125.85 1499.17,1125.85 1501.33,1125.85 1503.49,1125.85 1505.65,1125.85 1507.81,1125.85 1509.97,1125.85 1512.13,1125.85 1514.3,1125.85 1516.46,1125.85 1518.62,1125.85 1520.78,1125.85 1522.94,1125.85 1525.1,1125.85 1527.26,1125.85 1529.42,1125.85 1531.58,1125.85 1533.74,1125.85 1535.91,1125.85 1538.07,1125.85 1540.23,1125.85 1542.39,1125.85 1544.55,1125.85 1546.71,1125.85 1548.87,1125.85 1551.03,1125.85 1553.19,1125.85 1555.35,1125.85 1557.51,1125.85 1559.68,1125.85 1561.84,1125.85 1564,1125.85 1566.16,1125.85 1568.32,1125.85 1570.48,1125.85 1572.64,1125.85 1574.8,1125.85 1576.96,1125.85 1579.12,1125.85 1581.29,1125.85 1583.45,1125.85 1585.61,1125.85 1587.77,1125.85 1589.93,1125.85 1592.09,1125.85 1594.25,1125.85 1596.41,1125.85 1598.57,1125.85 1600.73,1125.85 1602.9,1125.85 1605.06,1125.85 1607.22,1125.85 1609.38,1125.85 1611.54,1125.85 1613.7,1125.85 1615.86,1125.85 1618.02,1125.85 1620.18,1125.85 1622.34,1125.85 1624.51,1125.85 1626.67,1125.85 1628.83,1125.85 1630.99,1125.85 1633.15,1125.85 1635.31,1125.85 1637.47,1125.85 1639.63,1125.85 1641.79,1125.85 1643.95,1125.85 1646.12,1125.85 1648.28,1125.85 1650.44,1125.85 1652.6,1125.85 1654.76,1125.85 1656.92,1125.85 1659.08,1125.85 1661.24,1125.85 1663.4,1125.85 1665.56,1125.85 1667.72,1125.85 1669.89,1125.85 1672.05,1125.85 1674.21,1125.85 1676.37,1125.85 1678.53,1125.85 1680.69,1125.85 1682.85,1125.85 1685.01,1125.85 1687.17,1125.85 1689.33,1125.85 1691.5,1125.85 1693.66,1125.85 1695.82,1125.85 1697.98,1125.85 1700.14,1125.85 1702.3,1125.85 1704.46,1125.85 1706.62,1088.27 1708.78,1088.27 1710.94,1088.27 1713.11,1088.27 1715.27,1088.27 1717.43,1088.27 1719.59,1088.27 1721.75,1088.27 1723.91,1088.27 1726.07,1088.27 1728.23,1088.27 1730.39,1088.27 1732.55,1088.27 1734.72,1088.27 1736.88,1088.27 1739.04,1088.27 1741.2,1088.27 1743.36,1088.27 1745.52,1088.27 1747.68,1088.27 1749.84,1088.27 1752,1088.27 1754.16,1088.27 1756.33,1088.27 1758.49,1088.27 1760.65,1088.27 1762.81,1088.27 1764.97,1088.27 1767.13,1088.27 1769.29,1088.27 1771.45,1088.27 1773.61,1088.27 1775.77,1088.27 1777.93,1088.27 1780.1,1088.27 1782.26,1088.27 1784.42,1088.27 1786.58,1088.27 1788.74,1088.27 1790.9,1088.27 1793.06,1088.27 1795.22,1088.27 1797.38,1088.27 1799.54,1088.27 1801.71,1088.27 1803.87,1088.27 1806.03,1088.27 1808.19,1088.27 1810.35,1088.27 1812.51,1088.27 1814.67,1088.27 1816.83,1088.27 1818.99,1088.27 1821.15,1088.27 1823.32,1088.27 1825.48,1088.27 1827.64,1088.27 1829.8,1088.27 1831.96,1088.27 1834.12,1088.27 1836.28,1088.27 1838.44,1088.27 1840.6,1088.27 1842.76,1088.27 1844.93,1088.27 1847.09,1088.27 1849.25,1088.27 1851.41,1088.27 1853.57,1088.27 1855.73,1088.27 1857.89,1088.27 1860.05,1088.27 1862.21,1088.27 1864.37,1088.27 1866.54,1088.27 1868.7,1088.27 1870.86,1088.27 1873.02,1088.27 1875.18,1088.27 1877.34,1088.27 1879.5,1088.27 1881.66,1088.27 1883.82,1088.27 1885.98,1088.27 1888.15,1088.27 1890.31,1088.27 1892.47,1088.27 1894.63,1088.27 1896.79,1088.27 1898.95,1088.27 1901.11,1088.27 1903.27,1088.27 1905.43,1088.27 1907.59,1088.27 1909.75,1088.27 1911.92,1088.27 1914.08,1088.27 1916.24,1088.27 1918.4,1088.27 1920.56,1088.27 1922.72,86.1857 1924.88,86.1857 1927.04,86.1857 1929.2,86.1857 1931.36,86.1857 1933.53,86.1857 1935.69,86.1857 1937.85,86.1857 1940.01,86.1857 1942.17,86.1857 1944.33,86.1857 1946.49,86.1857 1948.65,86.1857 1950.81,86.1857 1952.97,86.1857 1955.14,86.1857 1957.3,86.1857 1959.46,86.1857 1961.62,86.1857 1963.78,86.1857 1965.94,86.1857 1968.1,86.1857 1970.26,86.1857 1972.42,86.1857 1974.58,86.1857 1976.75,86.1857 1978.91,86.1857 1981.07,86.1857 1983.23,86.1857 1985.39,86.1857 1987.55,86.1857 1989.71,86.1857 1991.87,86.1857 1994.03,86.1857 1996.19,86.1857 1998.36,86.1857 2000.52,86.1857 2002.68,86.1857 2004.84,86.1857 2007,86.1857 2009.16,86.1857 2011.32,86.1857 2013.48,86.1857 2015.64,86.1857 2017.8,86.1857 2019.96,86.1857 2022.13,86.1857 2024.29,86.1857 2026.45,86.1857 2028.61,86.1857 2030.77,86.1857 2032.93,86.1857 2035.09,86.1857 2037.25,86.1857 2039.41,86.1857 2041.57,86.1857 2043.74,86.1857 2045.9,86.1857 2048.06,86.1857 2050.22,86.1857 2052.38,86.1857 2054.54,86.1857 2056.7,86.1857 2058.86,86.1857 2061.02,86.1857 2063.18,86.1857 2065.35,86.1857 2067.51,86.1857 2069.67,86.1857 2071.83,86.1857 2073.99,86.1857 2076.15,86.1857 2078.31,86.1857 2080.47,86.1857 2082.63,86.1857 2084.79,86.1857 2086.96,86.1857 2089.12,86.1857 2091.28,86.1857 2093.44,86.1857 2095.6,86.1857 2097.76,86.1857 2099.92,86.1857 2102.08,86.1857 2104.24,86.1857 2106.4,86.1857 2108.57,86.1857 2110.73,86.1857 2112.89,86.1857 2115.05,86.1857 2117.21,86.1857 2119.37,86.1857 2121.53,86.1857 2123.69,86.1857 2125.85,86.1857 2128.01,86.1857 2130.17,86.1857 2132.34,86.1857 2134.5,86.1857 2136.66,86.1857 2138.82,1324.83 2140.98,1324.83 2143.14,1324.83 2145.3,1324.83 2147.46,1324.83 2149.62,1324.83 2151.78,1324.83 2153.95,1324.83 2156.11,1324.83 2158.27,1324.83 2160.43,1324.83 2162.59,1324.83 2164.75,1324.83 2166.91,1324.83 2169.07,1324.83 2171.23,1324.83 2173.39,1324.83 2175.56,1324.83 2177.72,1324.83 2179.88,1324.83 2182.04,1324.83 2184.2,1324.83 2186.36,1324.83 2188.52,1324.83 2190.68,1324.83 2192.84,1324.83 2195,1324.83 2197.17,1324.83 2199.33,1324.83 2201.49,1324.83 2203.65,1324.83 2205.81,1324.83 2207.97,1324.83 2210.13,1324.83 2212.29,1324.83 2214.45,1324.83 2216.61,1324.83 2218.78,1324.83 2220.94,1324.83 2223.1,1324.83 2225.26,1324.83 2227.42,1324.83 2229.58,1324.83 2231.74,1324.83 2233.9,1324.83 2236.06,1324.83 2238.22,1324.83 2240.38,1324.83 2242.55,1324.83 2244.71,1324.83 2246.87,1324.83 2249.03,1324.83 2251.19,1324.83 2253.35,1324.83 2255.51,1324.83 2257.67,1324.83 2259.83,1324.83 2261.99,1324.83 2264.16,1324.83 2266.32,1324.83 2268.48,1324.83 2270.64,1324.83 2272.8,1324.83 2274.96,1324.83 2277.12,1324.83 2279.28,1324.83 2281.44,1324.83 2283.6,1324.83 2285.77,1324.83 2287.93,1324.83 2290.09,1324.83 2292.25,1324.83 2294.41,1324.83 2296.57,1324.83 2298.73,1324.83 2300.89,1324.83 2303.05,1324.83 2305.21,1324.83 2307.38,1324.83 2309.54,1324.83 2311.7,1324.83 2313.86,1324.83 2316.02,1324.83 2318.18,1324.83 2320.34,1324.83 2322.5,1324.83 2324.66,1324.83 2326.82,1324.83 2328.99,1324.83 2331.15,1324.83 2333.31,1324.83 2335.47,1324.83 2337.63,1324.83 2339.79,1324.83 2341.95,1324.83 2344.11,1324.83 2346.27,1324.83 2348.43,1324.83 2350.59,1324.83 2352.76,1324.83 "/>
<path clip-path="url(#clip690)" d="M265.897 1377.32 L506.917 1377.32 L506.917 1221.8 L265.897 1221.8  Z" fill="#ffffff" fill-rule="evenodd" fill-opacity="1"/>
<polyline clip-path="url(#clip690)" style="stroke:#000000; stroke-linecap:round; stroke-linejoin:round; stroke-width:4; stroke-opacity:1; fill:none" points="265.897,1377.32 506.917,1377.32 506.917,1221.8 265.897,1221.8 265.897,1377.32 "/>
<polyline clip-path="url(#clip690)" style="stroke:#009af9; stroke-linecap:round; stroke-linejoin:round; stroke-width:4; stroke-opacity:1; fill:none" points="289.884,1273.64 433.805,1273.64 "/>
<path clip-path="url(#clip690)" d="M482.444 1264.99 L473.069 1277.61 L482.931 1290.92 L477.907 1290.92 L470.361 1280.73 L462.815 1290.92 L457.792 1290.92 L467.861 1277.35 L458.648 1264.99 L463.671 1264.99 L470.546 1274.23 L477.421 1264.99 L482.444 1264.99 Z" fill="#000000" fill-rule="nonzero" fill-opacity="1" /><polyline clip-path="url(#clip690)" style="stroke:#e26f46; stroke-linecap:round; stroke-linejoin:round; stroke-width:4; stroke-opacity:1; fill:none" points="289.884,1325.48 433.805,1325.48 "/>
<path clip-path="url(#clip690)" d="M474.296 1306.74 L474.296 1310.28 L470.222 1310.28 Q467.931 1310.28 467.028 1311.2 Q466.148 1312.13 466.148 1314.54 L466.148 1316.83 L473.162 1316.83 L473.162 1320.14 L466.148 1320.14 L466.148 1342.76 L461.866 1342.76 L461.866 1320.14 L457.792 1320.14 L457.792 1316.83 L461.866 1316.83 L461.866 1315.02 Q461.866 1310.7 463.88 1308.73 Q465.894 1306.74 470.269 1306.74 L474.296 1306.74 Z" fill="#000000" fill-rule="nonzero" fill-opacity="1" /></svg>
