<?xml version="1.0" encoding="utf-8"?>
<svg xmlns="http://www.w3.org/2000/svg" xmlns:xlink="http://www.w3.org/1999/xlink" width="600" height="400" viewBox="0 0 2400 1600">
<defs>
  <clipPath id="clip350">
    <rect x="0" y="0" width="2400" height="1600"/>
  </clipPath>
</defs>
<path clip-path="url(#clip350)" d="M0 1600 L2400 1600 L2400 0 L0 0  Z" fill="#ffffff" fill-rule="evenodd" fill-opacity="1"/>
<defs>
  <clipPath id="clip351">
    <rect x="480" y="0" width="1681" height="1600"/>
  </clipPath>
</defs>
<path clip-path="url(#clip350)" d="M193.936 1423.18 L2352.76 1423.18 L2352.76 47.2441 L193.936 47.2441  Z" fill="#ffffff" fill-rule="evenodd" fill-opacity="1"/>
<defs>
  <clipPath id="clip352">
    <rect x="193" y="47" width="2160" height="1377"/>
  </clipPath>
</defs>
<polyline clip-path="url(#clip352)" style="stroke:#000000; stroke-linecap:round; stroke-linejoin:round; stroke-width:2; stroke-opacity:0.1; fill:none" points="193.936,1423.18 193.936,47.2441 "/>
<polyline clip-path="url(#clip352)" style="stroke:#000000; stroke-linecap:round; stroke-linejoin:round; stroke-width:2; stroke-opacity:0.1; fill:none" points="625.7,1423.18 625.7,47.2441 "/>
<polyline clip-path="url(#clip352)" style="stroke:#000000; stroke-linecap:round; stroke-linejoin:round; stroke-width:2; stroke-opacity:0.1; fill:none" points="1057.46,1423.18 1057.46,47.2441 "/>
<polyline clip-path="url(#clip352)" style="stroke:#000000; stroke-linecap:round; stroke-linejoin:round; stroke-width:2; stroke-opacity:0.1; fill:none" points="1489.23,1423.18 1489.23,47.2441 "/>
<polyline clip-path="url(#clip352)" style="stroke:#000000; stroke-linecap:round; stroke-linejoin:round; stroke-width:2; stroke-opacity:0.1; fill:none" points="1920.99,1423.18 1920.99,47.2441 "/>
<polyline clip-path="url(#clip352)" style="stroke:#000000; stroke-linecap:round; stroke-linejoin:round; stroke-width:2; stroke-opacity:0.1; fill:none" points="2352.76,1423.18 2352.76,47.2441 "/>
<polyline clip-path="url(#clip352)" style="stroke:#000000; stroke-linecap:round; stroke-linejoin:round; stroke-width:2; stroke-opacity:0.1; fill:none" points="193.936,1421.31 2352.76,1421.31 "/>
<polyline clip-path="url(#clip352)" style="stroke:#000000; stroke-linecap:round; stroke-linejoin:round; stroke-width:2; stroke-opacity:0.1; fill:none" points="193.936,1185.16 2352.76,1185.16 "/>
<polyline clip-path="url(#clip352)" style="stroke:#000000; stroke-linecap:round; stroke-linejoin:round; stroke-width:2; stroke-opacity:0.1; fill:none" points="193.936,949.006 2352.76,949.006 "/>
<polyline clip-path="url(#clip352)" style="stroke:#000000; stroke-linecap:round; stroke-linejoin:round; stroke-width:2; stroke-opacity:0.1; fill:none" points="193.936,712.852 2352.76,712.852 "/>
<polyline clip-path="url(#clip352)" style="stroke:#000000; stroke-linecap:round; stroke-linejoin:round; stroke-width:2; stroke-opacity:0.1; fill:none" points="193.936,476.698 2352.76,476.698 "/>
<polyline clip-path="url(#clip352)" style="stroke:#000000; stroke-linecap:round; stroke-linejoin:round; stroke-width:2; stroke-opacity:0.1; fill:none" points="193.936,240.544 2352.76,240.544 "/>
<polyline clip-path="url(#clip350)" style="stroke:#000000; stroke-linecap:round; stroke-linejoin:round; stroke-width:4; stroke-opacity:1; fill:none" points="193.936,1423.18 2352.76,1423.18 "/>
<polyline clip-path="url(#clip350)" style="stroke:#000000; stroke-linecap:round; stroke-linejoin:round; stroke-width:4; stroke-opacity:1; fill:none" points="193.936,1423.18 193.936,1404.28 "/>
<polyline clip-path="url(#clip350)" style="stroke:#000000; stroke-linecap:round; stroke-linejoin:round; stroke-width:4; stroke-opacity:1; fill:none" points="625.7,1423.18 625.7,1404.28 "/>
<polyline clip-path="url(#clip350)" style="stroke:#000000; stroke-linecap:round; stroke-linejoin:round; stroke-width:4; stroke-opacity:1; fill:none" points="1057.46,1423.18 1057.46,1404.28 "/>
<polyline clip-path="url(#clip350)" style="stroke:#000000; stroke-linecap:round; stroke-linejoin:round; stroke-width:4; stroke-opacity:1; fill:none" points="1489.23,1423.18 1489.23,1404.28 "/>
<polyline clip-path="url(#clip350)" style="stroke:#000000; stroke-linecap:round; stroke-linejoin:round; stroke-width:4; stroke-opacity:1; fill:none" points="1920.99,1423.18 1920.99,1404.28 "/>
<polyline clip-path="url(#clip350)" style="stroke:#000000; stroke-linecap:round; stroke-linejoin:round; stroke-width:4; stroke-opacity:1; fill:none" points="2352.76,1423.18 2352.76,1404.28 "/>
<path clip-path="url(#clip350)" d="M193.936 1454.1 Q190.325 1454.1 188.496 1457.66 Q186.691 1461.2 186.691 1468.33 Q186.691 1475.44 188.496 1479.01 Q190.325 1482.55 193.936 1482.55 Q197.57 1482.55 199.376 1479.01 Q201.204 1475.44 201.204 1468.33 Q201.204 1461.2 199.376 1457.66 Q197.57 1454.1 193.936 1454.1 M193.936 1450.39 Q199.746 1450.39 202.802 1455 Q205.88 1459.58 205.88 1468.33 Q205.88 1477.06 202.802 1481.67 Q199.746 1486.25 193.936 1486.25 Q188.126 1486.25 185.047 1481.67 Q181.992 1477.06 181.992 1468.33 Q181.992 1459.58 185.047 1455 Q188.126 1450.39 193.936 1450.39 Z" fill="#000000" fill-rule="nonzero" fill-opacity="1" /><path clip-path="url(#clip350)" d="M620.353 1481.64 L636.672 1481.64 L636.672 1485.58 L614.728 1485.58 L614.728 1481.64 Q617.39 1478.89 621.973 1474.26 Q626.58 1469.61 627.76 1468.27 Q630.006 1465.74 630.885 1464.01 Q631.788 1462.25 631.788 1460.56 Q631.788 1457.8 629.843 1456.07 Q627.922 1454.33 624.82 1454.33 Q622.621 1454.33 620.168 1455.09 Q617.737 1455.86 614.959 1457.41 L614.959 1452.69 Q617.783 1451.55 620.237 1450.97 Q622.691 1450.39 624.728 1450.39 Q630.098 1450.39 633.293 1453.08 Q636.487 1455.77 636.487 1460.26 Q636.487 1462.39 635.677 1464.31 Q634.89 1466.2 632.783 1468.8 Q632.205 1469.47 629.103 1472.69 Q626.001 1475.88 620.353 1481.64 Z" fill="#000000" fill-rule="nonzero" fill-opacity="1" /><path clip-path="url(#clip350)" d="M1060.47 1455.09 L1048.67 1473.54 L1060.47 1473.54 L1060.47 1455.09 M1059.25 1451.02 L1065.13 1451.02 L1065.13 1473.54 L1070.06 1473.54 L1070.06 1477.43 L1065.13 1477.43 L1065.13 1485.58 L1060.47 1485.58 L1060.47 1477.43 L1044.87 1477.43 L1044.87 1472.92 L1059.25 1451.02 Z" fill="#000000" fill-rule="nonzero" fill-opacity="1" /><path clip-path="url(#clip350)" d="M1489.63 1466.44 Q1486.48 1466.44 1484.63 1468.59 Q1482.8 1470.74 1482.8 1474.49 Q1482.8 1478.22 1484.63 1480.39 Q1486.48 1482.55 1489.63 1482.55 Q1492.78 1482.55 1494.61 1480.39 Q1496.46 1478.22 1496.46 1474.49 Q1496.46 1470.74 1494.61 1468.59 Q1492.78 1466.44 1489.63 1466.44 M1498.92 1451.78 L1498.92 1456.04 Q1497.16 1455.21 1495.35 1454.77 Q1493.57 1454.33 1491.81 1454.33 Q1487.18 1454.33 1484.73 1457.45 Q1482.3 1460.58 1481.95 1466.9 Q1483.31 1464.89 1485.37 1463.82 Q1487.43 1462.73 1489.91 1462.73 Q1495.12 1462.73 1498.13 1465.9 Q1501.16 1469.05 1501.16 1474.49 Q1501.16 1479.82 1498.01 1483.03 Q1494.86 1486.25 1489.63 1486.25 Q1483.64 1486.25 1480.47 1481.67 Q1477.3 1477.06 1477.3 1468.33 Q1477.3 1460.14 1481.18 1455.28 Q1485.07 1450.39 1491.62 1450.39 Q1493.38 1450.39 1495.17 1450.74 Q1496.97 1451.09 1498.92 1451.78 Z" fill="#000000" fill-rule="nonzero" fill-opacity="1" /><path clip-path="url(#clip350)" d="M1920.99 1469.17 Q1917.66 1469.17 1915.74 1470.95 Q1913.84 1472.73 1913.84 1475.86 Q1913.84 1478.98 1915.74 1480.77 Q1917.66 1482.55 1920.99 1482.55 Q1924.33 1482.55 1926.25 1480.77 Q1928.17 1478.96 1928.17 1475.86 Q1928.17 1472.73 1926.25 1470.95 Q1924.35 1469.17 1920.99 1469.17 M1916.32 1467.18 Q1913.31 1466.44 1911.62 1464.38 Q1909.95 1462.32 1909.95 1459.35 Q1909.95 1455.21 1912.89 1452.8 Q1915.85 1450.39 1920.99 1450.39 Q1926.15 1450.39 1929.09 1452.8 Q1932.03 1455.21 1932.03 1459.35 Q1932.03 1462.32 1930.34 1464.38 Q1928.68 1466.44 1925.69 1467.18 Q1929.07 1467.96 1930.95 1470.26 Q1932.84 1472.55 1932.84 1475.86 Q1932.84 1480.88 1929.77 1483.57 Q1926.71 1486.25 1920.99 1486.25 Q1915.27 1486.25 1912.2 1483.57 Q1909.14 1480.88 1909.14 1475.86 Q1909.14 1472.55 1911.04 1470.26 Q1912.94 1467.96 1916.32 1467.18 M1914.6 1459.79 Q1914.6 1462.48 1916.27 1463.98 Q1917.96 1465.49 1920.99 1465.49 Q1924 1465.49 1925.69 1463.98 Q1927.4 1462.48 1927.4 1459.79 Q1927.4 1457.11 1925.69 1455.6 Q1924 1454.1 1920.99 1454.1 Q1917.96 1454.1 1916.27 1455.6 Q1914.6 1457.11 1914.6 1459.79 Z" fill="#000000" fill-rule="nonzero" fill-opacity="1" /><path clip-path="url(#clip350)" d="M2327.44 1481.64 L2335.08 1481.64 L2335.08 1455.28 L2326.77 1456.95 L2326.77 1452.69 L2335.04 1451.02 L2339.71 1451.02 L2339.71 1481.64 L2347.35 1481.64 L2347.35 1485.58 L2327.44 1485.58 L2327.44 1481.64 Z" fill="#000000" fill-rule="nonzero" fill-opacity="1" /><path clip-path="url(#clip350)" d="M2366.8 1454.1 Q2363.18 1454.1 2361.36 1457.66 Q2359.55 1461.2 2359.55 1468.33 Q2359.55 1475.44 2361.36 1479.01 Q2363.18 1482.55 2366.8 1482.55 Q2370.43 1482.55 2372.23 1479.01 Q2374.06 1475.44 2374.06 1468.33 Q2374.06 1461.2 2372.23 1457.66 Q2370.43 1454.1 2366.8 1454.1 M2366.8 1450.39 Q2372.61 1450.39 2375.66 1455 Q2378.74 1459.58 2378.74 1468.33 Q2378.74 1477.06 2375.66 1481.67 Q2372.61 1486.25 2366.8 1486.25 Q2360.99 1486.25 2357.91 1481.67 Q2354.85 1477.06 2354.85 1468.33 Q2354.85 1459.58 2357.91 1455 Q2360.99 1450.39 2366.8 1450.39 Z" fill="#000000" fill-rule="nonzero" fill-opacity="1" /><path clip-path="url(#clip350)" d="M1272.41 1522.27 L1272.41 1532.4 L1284.47 1532.4 L1284.47 1536.95 L1272.41 1536.95 L1272.41 1556.3 Q1272.41 1560.66 1273.58 1561.9 Q1274.79 1563.14 1278.45 1563.14 L1284.47 1563.14 L1284.47 1568.04 L1278.45 1568.04 Q1271.67 1568.04 1269.1 1565.53 Q1266.52 1562.98 1266.52 1556.3 L1266.52 1536.95 L1262.22 1536.95 L1262.22 1532.4 L1266.52 1532.4 L1266.52 1522.27 L1272.41 1522.27 Z" fill="#000000" fill-rule="nonzero" fill-opacity="1" /><polyline clip-path="url(#clip350)" style="stroke:#000000; stroke-linecap:round; stroke-linejoin:round; stroke-width:4; stroke-opacity:1; fill:none" points="193.936,1423.18 193.936,47.2441 "/>
<polyline clip-path="url(#clip350)" style="stroke:#000000; stroke-linecap:round; stroke-linejoin:round; stroke-width:4; stroke-opacity:1; fill:none" points="193.936,1421.31 212.834,1421.31 "/>
<polyline clip-path="url(#clip350)" style="stroke:#000000; stroke-linecap:round; stroke-linejoin:round; stroke-width:4; stroke-opacity:1; fill:none" points="193.936,1185.16 212.834,1185.16 "/>
<polyline clip-path="url(#clip350)" style="stroke:#000000; stroke-linecap:round; stroke-linejoin:round; stroke-width:4; stroke-opacity:1; fill:none" points="193.936,949.006 212.834,949.006 "/>
<polyline clip-path="url(#clip350)" style="stroke:#000000; stroke-linecap:round; stroke-linejoin:round; stroke-width:4; stroke-opacity:1; fill:none" points="193.936,712.852 212.834,712.852 "/>
<polyline clip-path="url(#clip350)" style="stroke:#000000; stroke-linecap:round; stroke-linejoin:round; stroke-width:4; stroke-opacity:1; fill:none" points="193.936,476.698 212.834,476.698 "/>
<polyline clip-path="url(#clip350)" style="stroke:#000000; stroke-linecap:round; stroke-linejoin:round; stroke-width:4; stroke-opacity:1; fill:none" points="193.936,240.544 212.834,240.544 "/>
<path clip-path="url(#clip350)" d="M51.9875 1421.77 L81.6633 1421.77 L81.6633 1425.7 L51.9875 1425.7 L51.9875 1421.77 Z" fill="#000000" fill-rule="nonzero" fill-opacity="1" /><path clip-path="url(#clip350)" d="M95.7836 1434.66 L112.103 1434.66 L112.103 1438.59 L90.1586 1438.59 L90.1586 1434.66 Q92.8206 1431.9 97.4039 1427.27 Q102.01 1422.62 103.191 1421.28 Q105.436 1418.76 106.316 1417.02 Q107.219 1415.26 107.219 1413.57 Q107.219 1410.82 105.274 1409.08 Q103.353 1407.34 100.251 1407.34 Q98.0521 1407.34 95.5984 1408.11 Q93.1678 1408.87 90.3901 1410.42 L90.3901 1405.7 Q93.2141 1404.57 95.6678 1403.99 Q98.1215 1403.41 100.159 1403.41 Q105.529 1403.41 108.723 1406.09 Q111.918 1408.78 111.918 1413.27 Q111.918 1415.4 111.108 1417.32 Q110.321 1419.22 108.214 1421.81 Q107.635 1422.48 104.534 1425.7 Q101.432 1428.89 95.7836 1434.66 Z" fill="#000000" fill-rule="nonzero" fill-opacity="1" /><path clip-path="url(#clip350)" d="M121.918 1432.71 L126.802 1432.71 L126.802 1438.59 L121.918 1438.59 L121.918 1432.71 Z" fill="#000000" fill-rule="nonzero" fill-opacity="1" /><path clip-path="url(#clip350)" d="M137.033 1404.03 L155.39 1404.03 L155.39 1407.97 L141.316 1407.97 L141.316 1416.44 Q142.334 1416.09 143.353 1415.93 Q144.371 1415.75 145.39 1415.75 Q151.177 1415.75 154.556 1418.92 Q157.936 1422.09 157.936 1427.51 Q157.936 1433.08 154.464 1436.19 Q150.992 1439.27 144.672 1439.27 Q142.496 1439.27 140.228 1438.89 Q137.982 1438.52 135.575 1437.78 L135.575 1433.08 Q137.658 1434.22 139.881 1434.77 Q142.103 1435.33 144.58 1435.33 Q148.584 1435.33 150.922 1433.22 Q153.26 1431.12 153.26 1427.51 Q153.26 1423.89 150.922 1421.79 Q148.584 1419.68 144.58 1419.68 Q142.705 1419.68 140.83 1420.1 Q138.978 1420.52 137.033 1421.39 L137.033 1404.03 Z" fill="#000000" fill-rule="nonzero" fill-opacity="1" /><path clip-path="url(#clip350)" d="M50.9921 1185.61 L80.6679 1185.61 L80.6679 1189.55 L50.9921 1189.55 L50.9921 1185.61 Z" fill="#000000" fill-rule="nonzero" fill-opacity="1" /><path clip-path="url(#clip350)" d="M94.7882 1198.5 L111.108 1198.5 L111.108 1202.44 L89.1632 1202.44 L89.1632 1198.5 Q91.8252 1195.75 96.4085 1191.12 Q101.015 1186.47 102.196 1185.13 Q104.441 1182.6 105.321 1180.87 Q106.223 1179.11 106.223 1177.42 Q106.223 1174.66 104.279 1172.93 Q102.358 1171.19 99.2558 1171.19 Q97.0567 1171.19 94.603 1171.95 Q92.1725 1172.72 89.3947 1174.27 L89.3947 1169.55 Q92.2188 1168.41 94.6724 1167.83 Q97.1261 1167.25 99.1632 1167.25 Q104.534 1167.25 107.728 1169.94 Q110.922 1172.63 110.922 1177.12 Q110.922 1179.25 110.112 1181.17 Q109.325 1183.06 107.219 1185.66 Q106.64 1186.33 103.538 1189.55 Q100.436 1192.74 94.7882 1198.5 Z" fill="#000000" fill-rule="nonzero" fill-opacity="1" /><path clip-path="url(#clip350)" d="M120.922 1196.56 L125.807 1196.56 L125.807 1202.44 L120.922 1202.44 L120.922 1196.56 Z" fill="#000000" fill-rule="nonzero" fill-opacity="1" /><path clip-path="url(#clip350)" d="M145.992 1170.96 Q142.381 1170.96 140.552 1174.52 Q138.746 1178.06 138.746 1185.19 Q138.746 1192.3 140.552 1195.87 Q142.381 1199.41 145.992 1199.41 Q149.626 1199.41 151.431 1195.87 Q153.26 1192.3 153.26 1185.19 Q153.26 1178.06 151.431 1174.52 Q149.626 1170.96 145.992 1170.96 M145.992 1167.25 Q151.802 1167.25 154.857 1171.86 Q157.936 1176.44 157.936 1185.19 Q157.936 1193.92 154.857 1198.53 Q151.802 1203.11 145.992 1203.11 Q140.181 1203.11 137.103 1198.53 Q134.047 1193.92 134.047 1185.19 Q134.047 1176.44 137.103 1171.86 Q140.181 1167.25 145.992 1167.25 Z" fill="#000000" fill-rule="nonzero" fill-opacity="1" /><path clip-path="url(#clip350)" d="M51.9875 949.457 L81.6633 949.457 L81.6633 953.392 L51.9875 953.392 L51.9875 949.457 Z" fill="#000000" fill-rule="nonzero" fill-opacity="1" /><path clip-path="url(#clip350)" d="M92.566 962.351 L100.205 962.351 L100.205 935.985 L91.8947 937.652 L91.8947 933.392 L100.159 931.726 L104.834 931.726 L104.834 962.351 L112.473 962.351 L112.473 966.286 L92.566 966.286 L92.566 962.351 Z" fill="#000000" fill-rule="nonzero" fill-opacity="1" /><path clip-path="url(#clip350)" d="M121.918 960.406 L126.802 960.406 L126.802 966.286 L121.918 966.286 L121.918 960.406 Z" fill="#000000" fill-rule="nonzero" fill-opacity="1" /><path clip-path="url(#clip350)" d="M137.033 931.726 L155.39 931.726 L155.39 935.661 L141.316 935.661 L141.316 944.133 Q142.334 943.786 143.353 943.624 Q144.371 943.439 145.39 943.439 Q151.177 943.439 154.556 946.61 Q157.936 949.781 157.936 955.198 Q157.936 960.777 154.464 963.878 Q150.992 966.957 144.672 966.957 Q142.496 966.957 140.228 966.587 Q137.982 966.216 135.575 965.476 L135.575 960.777 Q137.658 961.911 139.881 962.466 Q142.103 963.022 144.58 963.022 Q148.584 963.022 150.922 960.915 Q153.26 958.809 153.26 955.198 Q153.26 951.587 150.922 949.48 Q148.584 947.374 144.58 947.374 Q142.705 947.374 140.83 947.791 Q138.978 948.207 137.033 949.087 L137.033 931.726 Z" fill="#000000" fill-rule="nonzero" fill-opacity="1" /><path clip-path="url(#clip350)" d="M50.9921 713.303 L80.6679 713.303 L80.6679 717.238 L50.9921 717.238 L50.9921 713.303 Z" fill="#000000" fill-rule="nonzero" fill-opacity="1" /><path clip-path="url(#clip350)" d="M91.5706 726.197 L99.2095 726.197 L99.2095 699.831 L90.8993 701.498 L90.8993 697.238 L99.1632 695.572 L103.839 695.572 L103.839 726.197 L111.478 726.197 L111.478 730.132 L91.5706 730.132 L91.5706 726.197 Z" fill="#000000" fill-rule="nonzero" fill-opacity="1" /><path clip-path="url(#clip350)" d="M120.922 724.252 L125.807 724.252 L125.807 730.132 L120.922 730.132 L120.922 724.252 Z" fill="#000000" fill-rule="nonzero" fill-opacity="1" /><path clip-path="url(#clip350)" d="M145.992 698.651 Q142.381 698.651 140.552 702.215 Q138.746 705.757 138.746 712.887 Q138.746 719.993 140.552 723.558 Q142.381 727.099 145.992 727.099 Q149.626 727.099 151.431 723.558 Q153.26 719.993 153.26 712.887 Q153.26 705.757 151.431 702.215 Q149.626 698.651 145.992 698.651 M145.992 694.947 Q151.802 694.947 154.857 699.553 Q157.936 704.137 157.936 712.887 Q157.936 721.613 154.857 726.22 Q151.802 730.803 145.992 730.803 Q140.181 730.803 137.103 726.22 Q134.047 721.613 134.047 712.887 Q134.047 704.137 137.103 699.553 Q140.181 694.947 145.992 694.947 Z" fill="#000000" fill-rule="nonzero" fill-opacity="1" /><path clip-path="url(#clip350)" d="M51.9875 477.149 L81.6633 477.149 L81.6633 481.084 L51.9875 481.084 L51.9875 477.149 Z" fill="#000000" fill-rule="nonzero" fill-opacity="1" /><path clip-path="url(#clip350)" d="M101.756 462.497 Q98.1447 462.497 96.316 466.061 Q94.5104 469.603 94.5104 476.733 Q94.5104 483.839 96.316 487.404 Q98.1447 490.945 101.756 490.945 Q105.39 490.945 107.196 487.404 Q109.024 483.839 109.024 476.733 Q109.024 469.603 107.196 466.061 Q105.39 462.497 101.756 462.497 M101.756 458.793 Q107.566 458.793 110.621 463.399 Q113.7 467.983 113.7 476.733 Q113.7 485.459 110.621 490.066 Q107.566 494.649 101.756 494.649 Q95.9456 494.649 92.8669 490.066 Q89.8114 485.459 89.8114 476.733 Q89.8114 467.983 92.8669 463.399 Q95.9456 458.793 101.756 458.793 Z" fill="#000000" fill-rule="nonzero" fill-opacity="1" /><path clip-path="url(#clip350)" d="M121.918 488.098 L126.802 488.098 L126.802 493.978 L121.918 493.978 L121.918 488.098 Z" fill="#000000" fill-rule="nonzero" fill-opacity="1" /><path clip-path="url(#clip350)" d="M137.033 459.418 L155.39 459.418 L155.39 463.353 L141.316 463.353 L141.316 471.825 Q142.334 471.478 143.353 471.316 Q144.371 471.131 145.39 471.131 Q151.177 471.131 154.556 474.302 Q157.936 477.473 157.936 482.89 Q157.936 488.469 154.464 491.57 Q150.992 494.649 144.672 494.649 Q142.496 494.649 140.228 494.279 Q137.982 493.908 135.575 493.168 L135.575 488.469 Q137.658 489.603 139.881 490.158 Q142.103 490.714 144.58 490.714 Q148.584 490.714 150.922 488.608 Q153.26 486.501 153.26 482.89 Q153.26 479.279 150.922 477.172 Q148.584 475.066 144.58 475.066 Q142.705 475.066 140.83 475.483 Q138.978 475.899 137.033 476.779 L137.033 459.418 Z" fill="#000000" fill-rule="nonzero" fill-opacity="1" /><path clip-path="url(#clip350)" d="M100.76 226.343 Q97.1493 226.343 95.3206 229.907 Q93.515 233.449 93.515 240.579 Q93.515 247.685 95.3206 251.25 Q97.1493 254.791 100.76 254.791 Q104.395 254.791 106.2 251.25 Q108.029 247.685 108.029 240.579 Q108.029 233.449 106.2 229.907 Q104.395 226.343 100.76 226.343 M100.76 222.639 Q106.571 222.639 109.626 227.245 Q112.705 231.829 112.705 240.579 Q112.705 249.305 109.626 253.912 Q106.571 258.495 100.76 258.495 Q94.9502 258.495 91.8715 253.912 Q88.816 249.305 88.816 240.579 Q88.816 231.829 91.8715 227.245 Q94.9502 222.639 100.76 222.639 Z" fill="#000000" fill-rule="nonzero" fill-opacity="1" /><path clip-path="url(#clip350)" d="M120.922 251.944 L125.807 251.944 L125.807 257.824 L120.922 257.824 L120.922 251.944 Z" fill="#000000" fill-rule="nonzero" fill-opacity="1" /><path clip-path="url(#clip350)" d="M145.992 226.343 Q142.381 226.343 140.552 229.907 Q138.746 233.449 138.746 240.579 Q138.746 247.685 140.552 251.25 Q142.381 254.791 145.992 254.791 Q149.626 254.791 151.431 251.25 Q153.26 247.685 153.26 240.579 Q153.26 233.449 151.431 229.907 Q149.626 226.343 145.992 226.343 M145.992 222.639 Q151.802 222.639 154.857 227.245 Q157.936 231.829 157.936 240.579 Q157.936 249.305 154.857 253.912 Q151.802 258.495 145.992 258.495 Q140.181 258.495 137.103 253.912 Q134.047 249.305 134.047 240.579 Q134.047 231.829 137.103 227.245 Q140.181 222.639 145.992 222.639 Z" fill="#000000" fill-rule="nonzero" fill-opacity="1" /><polyline clip-path="url(#clip352)" style="stroke:#009af9; stroke-linecap:round; stroke-linejoin:round; stroke-width:4; stroke-opacity:1; fill:none" points="193.936,240.544 196.097,241.728 198.258,242.897 200.419,244.05 202.58,245.188 204.741,246.31 206.902,247.418 209.063,248.511 211.224,249.59 213.385,250.654 215.546,251.705 217.707,252.741 219.868,253.764 222.029,254.773 224.19,255.768 226.351,256.751 228.512,257.72 230.673,258.677 232.834,259.621 234.995,260.552 237.156,261.471 239.317,262.378 241.478,263.273 243.639,264.156 245.8,265.027 247.961,265.887 250.122,266.735 252.282,267.572 254.443,268.398 256.604,269.213 258.765,270.017 260.926,270.811 263.087,271.594 265.248,272.366 267.409,273.129 269.57,273.881 271.731,274.623 273.892,275.356 276.053,276.079 278.214,276.792 280.375,277.495 282.536,278.19 284.697,278.875 286.858,279.551 289.019,280.218 291.18,280.877 293.341,281.526 295.502,282.167 297.663,282.8 299.824,283.424 301.985,284.039 304.146,284.647 306.307,285.247 308.468,285.838 310.629,286.422 312.79,286.998 314.951,287.566 317.112,288.127 319.273,288.681 321.434,289.227 323.595,289.766 325.756,290.297 327.917,290.822 330.078,291.34 332.239,291.851 334.4,292.355 336.561,292.852 338.722,293.343 340.883,293.827 343.044,294.305 345.205,294.777 347.366,295.242 349.527,295.701 351.688,296.154 353.849,296.601 356.01,297.042 358.171,297.477 360.332,297.907 362.493,298.331 364.653,298.749 366.814,299.161 368.975,299.569 371.136,299.97 373.297,300.367 375.458,300.758 377.619,301.144 379.78,301.525 381.941,301.901 384.102,302.271 386.263,302.637 388.424,302.998 390.585,303.355 392.746,303.706 394.907,304.053 397.068,304.395 399.229,304.733 401.39,305.066 403.551,305.395 405.712,305.72 407.873,306.212 410.034,307.685 412.195,310.138 414.356,313.451 416.517,317.512 418.678,322.212 420.839,327.454 423,333.141 425.161,339.187 427.322,345.511 429.483,352.039 431.644,358.701 433.805,365.436 435.966,372.189 438.127,378.91 440.288,385.557 442.449,392.094 444.61,398.49 446.771,404.723 448.932,410.775 451.093,416.636 453.254,422.301 455.415,427.772 457.576,433.059 459.737,438.176 461.898,443.143 464.059,447.991 466.22,452.751 468.381,457.465 470.542,462.18 472.703,466.946 474.864,471.697 477.024,476.386 479.185,481.012 481.346,485.577 483.507,490.081 485.668,494.525 487.829,498.911 489.99,503.239 492.151,507.509 494.312,511.722 496.473,515.88 498.634,519.982 500.795,524.031 502.956,528.025 505.117,531.967 507.278,535.856 509.439,539.694 511.6,543.481 513.761,547.219 515.922,550.906 518.083,554.545 520.244,558.135 522.405,561.678 524.566,565.174 526.727,568.623 528.888,572.027 531.049,575.386 533.21,578.7 535.371,581.969 537.532,585.196 539.693,588.38 541.854,591.521 544.015,594.621 546.176,597.679 548.337,600.697 550.498,603.675 552.659,606.613 554.82,609.513 556.981,612.373 559.142,615.196 561.303,617.982 563.464,620.73 565.625,623.442 567.786,626.118 569.947,628.759 572.108,631.364 574.269,633.935 576.43,636.472 578.591,638.975 580.752,641.446 582.913,643.883 585.074,646.288 587.235,648.662 589.396,651.004 591.556,653.314 593.717,655.595 595.878,657.845 598.039,660.065 600.2,662.256 602.361,664.418 604.522,666.551 606.683,668.656 608.844,670.733 611.005,672.783 613.166,674.805 615.327,676.801 617.488,678.77 619.649,680.712 621.81,682.63 623.971,684.521 626.132,685.879 628.293,686.008 630.454,685.032 632.615,683.077 634.776,680.264 636.937,676.706 639.098,672.511 641.259,667.778 643.42,662.603 645.581,657.072 647.742,651.268 649.903,645.265 652.064,639.133 654.225,632.933 656.386,626.721 658.547,620.547 660.708,614.453 662.869,608.477 665.03,602.648 667.191,596.99 669.352,591.52 671.513,586.249 673.674,581.182 675.835,576.318 677.996,571.646 680.157,567.154 682.318,562.819 684.479,558.614 686.64,554.506 688.801,550.453 690.962,546.409 693.123,542.321 695.284,538.161 697.445,534.038 699.606,529.97 701.767,525.956 703.927,521.995 706.088,518.087 708.249,514.23 710.41,510.424 712.571,506.67 714.732,502.964 716.893,499.308 719.054,495.701 721.215,492.141 723.376,488.628 725.537,485.162 727.698,481.742 729.859,478.367 732.02,475.037 734.181,471.751 736.342,468.508 738.503,465.308 740.664,462.151 742.825,459.035 744.986,455.961 747.147,452.927 749.308,449.934 751.469,446.981 753.63,444.066 755.791,441.191 757.952,438.353 760.113,435.553 762.274,432.791 764.435,430.065 766.596,427.375 768.757,424.721 770.918,422.103 773.079,419.519 775.24,416.969 777.401,414.453 779.562,411.971 781.723,409.522 783.884,407.105 786.045,404.72 788.206,402.367 790.367,400.045 792.528,397.754 794.689,395.493 796.85,393.262 799.011,391.061 801.172,388.889 803.333,386.746 805.494,384.631 807.655,382.544 809.816,380.485 811.977,378.453 814.138,376.448 816.298,374.469 818.459,372.517 820.62,370.59 822.781,368.713 824.942,367.078 827.103,365.573 829.264,364.032 831.425,362.326 833.586,360.357 835.747,358.066 837.908,355.429 840.069,352.455 842.23,349.19 844.391,345.716 846.552,342.149 848.713,338.641 850.874,335.288 853.035,331.985 855.196,328.726 857.357,325.511 859.518,322.338 861.679,319.207 863.84,316.117 866.001,313.069 868.162,310.061 870.323,307.093 872.484,304.164 874.645,301.274 876.806,298.422 878.967,295.608 881.128,292.831 883.289,290.091 885.45,287.388 887.611,284.72 889.772,282.088 891.933,279.491 894.094,276.928 896.255,274.399 898.416,271.903 900.577,269.441 902.738,267.012 904.899,264.614 907.06,262.249 909.221,259.914 911.382,257.611 913.543,255.339 915.704,253.096 917.865,250.883 920.026,248.7 922.187,246.545 924.348,244.419 926.509,242.322 928.669,240.252 930.83,238.209 932.991,236.194 935.152,234.205 937.313,232.243 939.474,230.306 941.635,228.396 943.796,226.51 945.957,224.65 948.118,222.814 950.279,221.002 952.44,219.215 954.601,217.451 956.762,215.711 958.923,213.994 961.084,212.299 963.245,210.627 965.406,208.977 967.567,207.349 969.728,205.743 971.889,204.158 974.05,202.594 976.211,201.051 978.372,199.528 980.533,198.025 982.694,196.542 984.855,195.079 987.016,193.635 989.177,192.211 991.338,190.805 993.499,189.418 995.66,188.05 997.821,186.699 999.982,185.366 1002.14,184.051 1004.3,182.754 1006.46,181.474 1008.63,180.21 1010.79,178.964 1012.95,177.734 1015.11,176.52 1017.27,175.322 1019.43,174.14 1021.59,172.974 1023.75,171.824 1025.91,170.688 1028.07,169.568 1030.24,168.463 1032.4,167.372 1034.56,166.295 1036.72,165.233 1038.88,164.185 1041.04,163.151 1043.2,162.131 1045.36,161.124 1047.52,160.13 1049.68,159.15 1051.85,158.183 1054.01,157.228 1056.17,156.286 1058.33,155.745 1060.49,158.461 1062.65,164.533 1064.81,173.416 1066.97,184.605 1069.13,197.634 1071.29,212.077 1073.46,227.552 1075.62,243.713 1077.78,260.256 1079.94,276.92 1082.1,293.482 1084.26,309.759 1086.42,325.61 1088.58,340.933 1090.74,355.668 1092.9,369.796 1095.07,383.335 1097.23,396.346 1099.39,408.932 1101.55,421.233 1103.71,433.431 1105.87,445.75 1108.03,458.189 1110.19,470.466 1112.35,482.581 1114.51,494.535 1116.67,506.331 1118.84,517.97 1121,529.455 1123.16,540.788 1125.32,551.971 1127.48,563.005 1129.64,573.893 1131.8,584.637 1133.96,595.238 1136.12,605.699 1138.28,616.021 1140.45,626.207 1142.61,636.258 1144.77,646.175 1146.93,655.961 1149.09,665.617 1151.25,675.145 1153.41,684.546 1155.57,693.823 1157.73,702.977 1159.89,712.009 1162.06,720.921 1164.22,729.715 1166.38,738.393 1168.54,746.955 1170.7,755.404 1172.86,763.741 1175.02,771.967 1177.18,780.084 1179.34,788.094 1181.5,795.997 1183.67,803.795 1185.83,811.49 1187.99,819.083 1190.15,826.576 1192.31,833.969 1194.47,841.264 1196.63,848.463 1198.79,855.566 1200.95,862.575 1203.11,869.491 1205.28,876.316 1207.44,883.05 1209.6,889.695 1211.76,896.252 1213.92,902.721 1216.08,909.105 1218.24,915.405 1220.4,921.621 1222.56,927.754 1224.72,933.806 1226.88,939.778 1229.05,945.671 1231.21,951.485 1233.37,957.223 1235.53,962.884 1237.69,968.47 1239.85,973.982 1242.01,979.422 1244.17,984.789 1246.33,990.084 1248.49,995.31 1250.66,1000.47 1252.82,1005.55 1254.98,1010.57 1257.14,1015.53 1259.3,1020.42 1261.46,1025.24 1263.62,1029.8 1265.78,1033.47 1267.94,1036.26 1270.1,1038.25 1272.27,1039.53 1274.43,1040.18 1276.59,1040.25 1278.75,1039.83 1280.91,1038.97 1283.07,1037.74 1285.23,1036.19 1287.39,1034.38 1289.55,1032.36 1291.71,1030.17 1293.88,1027.86 1296.04,1025.47 1298.2,1023.03 1300.36,1020.58 1302.52,1018.15 1304.68,1015.75 1306.84,1013.42 1309,1011.17 1311.16,1009.02 1313.32,1006.97 1315.49,1005.04 1317.65,1003.23 1319.81,1001.55 1321.97,999.979 1324.13,998.523 1326.29,997.17 1328.45,995.906 1330.61,994.715 1332.77,993.576 1334.93,992.465 1337.09,991.355 1339.26,990.215 1341.42,989.01 1343.58,987.733 1345.74,986.464 1347.9,985.213 1350.06,983.978 1352.22,982.759 1354.38,981.556 1356.54,980.37 1358.7,979.199 1360.87,978.044 1363.03,976.904 1365.19,975.779 1367.35,974.669 1369.51,973.574 1371.67,972.493 1373.83,971.427 1375.99,970.375 1378.15,969.337 1380.31,968.312 1382.48,967.301 1384.64,966.304 1386.8,965.319 1388.96,964.348 1391.12,963.39 1393.28,962.444 1395.44,961.511 1397.6,960.59 1399.76,959.682 1401.92,958.785 1404.09,957.901 1406.25,957.028 1408.41,956.166 1410.57,955.317 1412.73,954.478 1414.89,953.65 1417.05,952.834 1419.21,952.028 1421.37,951.233 1423.53,950.449 1425.7,949.675 1427.86,948.911 1430.02,948.157 1432.18,947.413 1434.34,946.68 1436.5,945.956 1438.66,945.241 1440.82,944.536 1442.98,943.84 1445.14,943.154 1447.3,942.476 1449.47,941.808 1451.63,941.149 1453.79,940.498 1455.95,939.856 1458.11,939.222 1460.27,938.597 1462.43,937.98 1464.59,937.371 1466.75,936.77 1468.91,936.178 1471.08,935.593 1473.24,935.016 1475.4,934.446 1477.56,933.884 1479.72,933.33 1481.88,932.783 1484.04,932.243 1486.2,931.71 1488.36,930.844 1490.52,928.541 1492.69,924.86 1494.85,919.958 1497.01,913.983 1499.17,907.075 1501.33,899.367 1503.49,890.986 1505.65,882.047 1507.81,872.662 1509.97,862.932 1512.13,852.952 1514.3,842.808 1516.46,832.58 1518.62,822.338 1520.78,812.148 1522.94,802.064 1525.1,792.135 1527.26,782.401 1529.42,772.896 1531.58,763.645 1533.74,754.665 1535.91,745.966 1538.07,737.55 1540.23,729.411 1542.39,721.537 1544.55,713.906 1546.71,706.489 1548.87,699.251 1551.03,692.147 1553.19,685.126 1555.35,678.127 1557.51,671.085 1559.68,663.996 1561.84,656.993 1564,650.084 1566.16,643.266 1568.32,636.539 1570.48,629.901 1572.64,623.35 1574.8,616.887 1576.96,610.509 1579.12,604.216 1581.29,598.007 1583.45,591.879 1585.61,585.833 1587.77,579.867 1589.93,573.98 1592.09,568.172 1594.25,562.44 1596.41,556.783 1598.57,551.202 1600.73,545.694 1602.9,540.26 1605.06,534.897 1607.22,529.606 1609.38,524.384 1611.54,519.232 1613.7,514.148 1615.86,509.132 1618.02,504.182 1620.18,499.298 1622.34,494.479 1624.51,489.724 1626.67,485.032 1628.83,480.402 1630.99,475.834 1633.15,471.326 1635.31,466.878 1637.47,462.49 1639.63,458.159 1641.79,453.886 1643.95,449.67 1646.12,445.51 1648.28,441.405 1650.44,437.355 1652.6,433.358 1654.76,429.414 1656.92,425.523 1659.08,421.683 1661.24,417.894 1663.4,414.155 1665.56,410.466 1667.72,406.826 1669.89,403.234 1672.05,399.689 1674.21,396.191 1676.37,392.74 1678.53,389.335 1680.69,385.974 1682.85,382.658 1685.01,379.386 1687.17,376.157 1689.33,372.971 1691.5,369.827 1693.66,366.725 1695.82,363.664 1697.98,360.686 1700.14,358.21 1702.3,356.279 1704.46,354.82 1706.62,353.763 1708.78,353.045 1710.94,352.606 1713.11,352.391 1715.27,352.352 1717.43,352.442 1719.59,352.621 1721.75,352.855 1723.91,353.112 1726.07,353.365 1728.23,353.594 1730.39,353.783 1732.55,353.918 1734.72,353.994 1736.88,354.008 1739.04,353.963 1741.2,353.865 1743.36,353.727 1745.52,353.565 1747.68,353.402 1749.84,353.262 1752,353.177 1754.16,353.122 1756.33,353.068 1758.49,353.014 1760.65,352.96 1762.81,352.908 1764.97,352.856 1767.13,352.805 1769.29,352.755 1771.45,352.705 1773.61,352.656 1775.77,352.608 1777.93,352.56 1780.1,352.513 1782.26,352.466 1784.42,352.42 1786.58,352.375 1788.74,352.33 1790.9,352.286 1793.06,352.243 1795.22,352.2 1797.38,352.158 1799.54,352.116 1801.71,352.074 1803.87,352.034 1806.03,351.994 1808.19,351.954 1810.35,351.915 1812.51,351.876 1814.67,351.838 1816.83,351.801 1818.99,351.763 1821.15,351.727 1823.32,351.691 1825.48,351.655 1827.64,351.62 1829.8,351.585 1831.96,351.551 1834.12,351.517 1836.28,351.484 1838.44,351.451 1840.6,351.419 1842.76,351.387 1844.93,351.355 1847.09,351.324 1849.25,351.293 1851.41,351.263 1853.57,351.233 1855.73,351.203 1857.89,351.174 1860.05,351.145 1862.21,351.117 1864.37,351.089 1866.54,351.061 1868.7,351.034 1870.86,351.007 1873.02,350.981 1875.18,350.955 1877.34,350.929 1879.5,350.903 1881.66,350.878 1883.82,350.853 1885.98,350.829 1888.15,350.805 1890.31,350.781 1892.47,350.757 1894.63,350.734 1896.79,350.711 1898.95,350.689 1901.11,350.666 1903.27,350.644 1905.43,350.623 1907.59,350.601 1909.75,350.58 1911.92,350.559 1914.08,350.539 1916.24,350.518 1918.4,350.852 1920.56,352.427 1922.72,355.151 1924.88,358.884 1927.04,363.491 1929.2,368.847 1931.36,374.834 1933.53,381.342 1935.69,388.266 1937.85,395.512 1940.01,402.993 1942.17,410.627 1944.33,418.342 1946.49,426.074 1948.65,433.765 1950.81,441.365 1952.97,448.832 1955.14,456.131 1957.3,463.236 1959.46,470.128 1961.62,476.793 1963.78,483.23 1965.94,489.44 1968.1,495.435 1970.26,501.234 1972.42,506.863 1974.58,512.355 1976.75,517.753 1978.91,523.106 1981.07,528.47 1983.23,533.9 1985.39,539.302 1987.55,544.633 1989.71,549.893 1991.87,555.083 1994.03,560.204 1996.19,565.258 1998.36,570.244 2000.52,575.165 2002.68,580.02 2004.84,584.81 2007,589.538 2009.16,594.202 2011.32,598.805 2013.48,603.347 2015.64,607.828 2017.8,612.25 2019.96,616.614 2022.13,620.919 2024.29,625.168 2026.45,629.36 2028.61,633.497 2030.77,637.58 2032.93,641.608 2035.09,645.583 2037.25,649.506 2039.41,653.376 2041.57,657.195 2043.74,660.964 2045.9,664.683 2048.06,668.352 2050.22,671.972 2052.38,675.545 2054.54,679.07 2056.7,682.548 2058.86,685.98 2061.02,689.366 2063.18,692.708 2065.35,696.005 2067.51,699.258 2069.67,702.468 2071.83,705.635 2073.99,708.76 2076.15,711.844 2078.31,714.887 2080.47,717.889 2082.63,720.851 2084.79,723.774 2086.96,726.659 2089.12,729.505 2091.28,732.313 2093.44,735.084 2095.6,737.818 2097.76,740.516 2099.92,743.178 2102.08,745.805 2104.24,748.397 2106.4,750.954 2108.57,753.478 2110.73,755.969 2112.89,758.426 2115.05,760.851 2117.21,763.244 2119.37,765.605 2121.53,767.935 2123.69,770.234 2125.85,772.505 2128.01,774.813 2130.17,777.185 2132.34,779.612 2134.5,782.087 2136.66,784.6 2138.82,787.146 2140.98,789.716 2143.14,792.304 2145.3,794.903 2147.46,797.508 2149.62,800.112 2151.78,802.711 2153.95,805.299 2156.11,807.873 2158.27,810.428 2160.43,812.959 2162.59,815.465 2164.75,817.941 2166.91,820.385 2169.07,822.795 2171.23,825.169 2173.39,827.506 2175.56,829.804 2177.72,832.062 2179.88,834.28 2182.04,836.458 2184.2,838.597 2186.36,840.697 2188.52,842.759 2190.68,844.785 2192.84,846.776 2195,848.735 2197.17,850.665 2199.33,852.567 2201.49,854.447 2203.65,856.307 2205.81,858.151 2207.97,859.98 2210.13,861.786 2212.29,863.567 2214.45,865.325 2216.61,867.06 2218.78,868.772 2220.94,870.461 2223.1,872.127 2225.26,873.772 2227.42,875.395 2229.58,876.996 2231.74,878.576 2233.9,880.135 2236.06,881.673 2238.22,883.191 2240.38,884.689 2242.55,886.166 2244.71,887.625 2246.87,889.064 2249.03,890.483 2251.19,891.884 2253.35,893.267 2255.51,894.631 2257.67,895.977 2259.83,897.305 2261.99,898.615 2264.16,899.908 2266.32,901.184 2268.48,902.444 2270.64,903.686 2272.8,904.912 2274.96,906.122 2277.12,907.315 2279.28,908.493 2281.44,909.655 2283.6,910.802 2285.77,911.934 2287.93,913.05 2290.09,914.152 2292.25,915.24 2294.41,916.312 2296.57,917.371 2298.73,918.416 2300.89,919.446 2303.05,920.463 2305.21,921.467 2307.38,922.457 2309.54,923.434 2311.7,924.399 2313.86,925.35 2316.02,926.289 2318.18,927.215 2320.34,928.129 2322.5,929.031 2324.66,929.921 2326.82,930.799 2328.99,931.666 2331.15,932.521 2333.31,933.364 2335.47,934.197 2337.63,935.018 2339.79,935.829 2341.95,936.629 2344.11,937.418 2346.27,938.197 2348.43,938.965 2350.59,939.723 2352.76,940.472 "/>
<polyline clip-path="url(#clip352)" style="stroke:#e26f46; stroke-linecap:round; stroke-linejoin:round; stroke-width:4; stroke-opacity:1; fill:none" points="193.936,329.871 196.097,329.871 198.258,329.871 200.419,329.871 202.58,329.871 204.741,329.871 206.902,329.871 209.063,329.871 211.224,329.871 213.385,329.871 215.546,329.871 217.707,329.871 219.868,329.871 222.029,329.871 224.19,329.871 226.351,329.871 228.512,329.871 230.673,329.871 232.834,329.871 234.995,329.871 237.156,329.871 239.317,329.871 241.478,329.871 243.639,329.871 245.8,329.871 247.961,329.871 250.122,329.871 252.282,329.871 254.443,329.871 256.604,329.871 258.765,329.871 260.926,329.871 263.087,329.871 265.248,329.871 267.409,329.871 269.57,329.871 271.731,329.871 273.892,329.871 276.053,329.871 278.214,329.871 280.375,329.871 282.536,329.871 284.697,329.871 286.858,329.871 289.019,329.871 291.18,329.871 293.341,329.871 295.502,329.871 297.663,329.871 299.824,329.871 301.985,329.871 304.146,329.871 306.307,329.871 308.468,329.871 310.629,329.871 312.79,329.871 314.951,329.871 317.112,329.871 319.273,329.871 321.434,329.871 323.595,329.871 325.756,329.871 327.917,329.871 330.078,329.871 332.239,329.871 334.4,329.871 336.561,329.871 338.722,329.871 340.883,329.871 343.044,329.871 345.205,329.871 347.366,329.871 349.527,329.871 351.688,329.871 353.849,329.871 356.01,329.871 358.171,329.871 360.332,329.871 362.493,329.871 364.653,329.871 366.814,329.871 368.975,329.871 371.136,329.871 373.297,329.871 375.458,329.871 377.619,329.871 379.78,329.871 381.941,329.871 384.102,329.871 386.263,329.871 388.424,329.871 390.585,329.871 392.746,329.871 394.907,329.871 397.068,329.871 399.229,329.871 401.39,329.871 403.551,329.871 405.712,329.871 407.873,329.871 410.034,825.317 412.195,825.317 414.356,825.317 416.517,825.317 418.678,825.317 420.839,825.317 423,825.317 425.161,825.317 427.322,825.317 429.483,825.317 431.644,825.317 433.805,825.317 435.966,825.317 438.127,825.317 440.288,825.317 442.449,825.317 444.61,825.317 446.771,825.317 448.932,825.317 451.093,825.317 453.254,825.317 455.415,825.317 457.576,825.317 459.737,825.317 461.898,825.317 464.059,825.317 466.22,825.317 468.381,825.317 470.542,825.317 472.703,825.317 474.864,825.317 477.024,825.317 479.185,825.317 481.346,825.317 483.507,825.317 485.668,825.317 487.829,825.317 489.99,825.317 492.151,825.317 494.312,825.317 496.473,825.317 498.634,825.317 500.795,825.317 502.956,825.317 505.117,825.317 507.278,825.317 509.439,825.317 511.6,825.317 513.761,825.317 515.922,825.317 518.083,825.317 520.244,825.317 522.405,825.317 524.566,825.317 526.727,825.317 528.888,825.317 531.049,825.317 533.21,825.317 535.371,825.317 537.532,825.317 539.693,825.317 541.854,825.317 544.015,825.317 546.176,825.317 548.337,825.317 550.498,825.317 552.659,825.317 554.82,825.317 556.981,825.317 559.142,825.317 561.303,825.317 563.464,825.317 565.625,825.317 567.786,825.317 569.947,825.317 572.108,825.317 574.269,825.317 576.43,825.317 578.591,825.317 580.752,825.317 582.913,825.317 585.074,825.317 587.235,825.317 589.396,825.317 591.556,825.317 593.717,825.317 595.878,825.317 598.039,825.317 600.2,825.317 602.361,825.317 604.522,825.317 606.683,825.317 608.844,825.317 611.005,825.317 613.166,825.317 615.327,825.317 617.488,825.317 619.649,825.317 621.81,825.317 623.971,825.317 626.132,227.2 628.293,227.2 630.454,227.2 632.615,227.2 634.776,227.2 636.937,227.2 639.098,227.2 641.259,227.2 643.42,227.2 645.581,227.2 647.742,227.2 649.903,227.2 652.064,227.2 654.225,227.2 656.386,227.2 658.547,227.2 660.708,227.2 662.869,227.2 665.03,227.2 667.191,227.2 669.352,227.2 671.513,227.2 673.674,227.2 675.835,227.2 677.996,227.2 680.157,227.2 682.318,227.2 684.479,227.2 686.64,227.2 688.801,227.2 690.962,227.2 693.123,227.2 695.284,227.2 697.445,227.2 699.606,227.2 701.767,227.2 703.927,227.2 706.088,227.2 708.249,227.2 710.41,227.2 712.571,227.2 714.732,227.2 716.893,227.2 719.054,227.2 721.215,227.2 723.376,227.2 725.537,227.2 727.698,227.2 729.859,227.2 732.02,227.2 734.181,227.2 736.342,227.2 738.503,227.2 740.664,227.2 742.825,227.2 744.986,227.2 747.147,227.2 749.308,227.2 751.469,227.2 753.63,227.2 755.791,227.2 757.952,227.2 760.113,227.2 762.274,227.2 764.435,227.2 766.596,227.2 768.757,227.2 770.918,227.2 773.079,227.2 775.24,227.2 777.401,227.2 779.562,227.2 781.723,227.2 783.884,227.2 786.045,227.2 788.206,227.2 790.367,227.2 792.528,227.2 794.689,227.2 796.85,227.2 799.011,227.2 801.172,227.2 803.333,227.2 805.494,227.2 807.655,227.2 809.816,227.2 811.977,227.2 814.138,227.2 816.298,227.2 818.459,227.2 820.62,227.2 822.781,227.2 824.942,227.2 827.103,227.2 829.264,227.2 831.425,227.2 833.586,227.2 835.747,227.2 837.908,227.2 840.069,227.2 842.23,86.1857 844.391,86.1857 846.552,86.1857 848.713,86.1857 850.874,86.1857 853.035,86.1857 855.196,86.1857 857.357,86.1857 859.518,86.1857 861.679,86.1857 863.84,86.1857 866.001,86.1857 868.162,86.1857 870.323,86.1857 872.484,86.1857 874.645,86.1857 876.806,86.1857 878.967,86.1857 881.128,86.1857 883.289,86.1857 885.45,86.1857 887.611,86.1857 889.772,86.1857 891.933,86.1857 894.094,86.1857 896.255,86.1857 898.416,86.1857 900.577,86.1857 902.738,86.1857 904.899,86.1857 907.06,86.1857 909.221,86.1857 911.382,86.1857 913.543,86.1857 915.704,86.1857 917.865,86.1857 920.026,86.1857 922.187,86.1857 924.348,86.1857 926.509,86.1857 928.669,86.1857 930.83,86.1857 932.991,86.1857 935.152,86.1857 937.313,86.1857 939.474,86.1857 941.635,86.1857 943.796,86.1857 945.957,86.1857 948.118,86.1857 950.279,86.1857 952.44,86.1857 954.601,86.1857 956.762,86.1857 958.923,86.1857 961.084,86.1857 963.245,86.1857 965.406,86.1857 967.567,86.1857 969.728,86.1857 971.889,86.1857 974.05,86.1857 976.211,86.1857 978.372,86.1857 980.533,86.1857 982.694,86.1857 984.855,86.1857 987.016,86.1857 989.177,86.1857 991.338,86.1857 993.499,86.1857 995.66,86.1857 997.821,86.1857 999.982,86.1857 1002.14,86.1857 1004.3,86.1857 1006.46,86.1857 1008.63,86.1857 1010.79,86.1857 1012.95,86.1857 1015.11,86.1857 1017.27,86.1857 1019.43,86.1857 1021.59,86.1857 1023.75,86.1857 1025.91,86.1857 1028.07,86.1857 1030.24,86.1857 1032.4,86.1857 1034.56,86.1857 1036.72,86.1857 1038.88,86.1857 1041.04,86.1857 1043.2,86.1857 1045.36,86.1857 1047.52,86.1857 1049.68,86.1857 1051.85,86.1857 1054.01,86.1857 1056.17,86.1857 1058.33,1384.24 1060.49,1384.24 1062.65,1384.24 1064.81,1384.24 1066.97,1384.24 1069.13,1384.24 1071.29,1384.24 1073.46,1384.24 1075.62,1384.24 1077.78,1384.24 1079.94,1384.24 1082.1,1384.24 1084.26,1384.24 1086.42,1384.24 1088.58,1384.24 1090.74,1384.24 1092.9,1384.24 1095.07,1384.24 1097.23,1384.24 1099.39,1384.24 1101.55,1384.24 1103.71,1384.24 1105.87,1384.24 1108.03,1384.24 1110.19,1384.24 1112.35,1384.24 1114.51,1384.24 1116.67,1384.24 1118.84,1384.24 1121,1384.24 1123.16,1384.24 1125.32,1384.24 1127.48,1384.24 1129.64,1384.24 1131.8,1384.24 1133.96,1384.24 1136.12,1384.24 1138.28,1384.24 1140.45,1384.24 1142.61,1384.24 1144.77,1384.24 1146.93,1384.24 1149.09,1384.24 1151.25,1384.24 1153.41,1384.24 1155.57,1384.24 1157.73,1384.24 1159.89,1384.24 1162.06,1384.24 1164.22,1384.24 1166.38,1384.24 1168.54,1384.24 1170.7,1384.24 1172.86,1384.24 1175.02,1384.24 1177.18,1384.24 1179.34,1384.24 1181.5,1384.24 1183.67,1384.24 1185.83,1384.24 1187.99,1384.24 1190.15,1384.24 1192.31,1384.24 1194.47,1384.24 1196.63,1384.24 1198.79,1384.24 1200.95,1384.24 1203.11,1384.24 1205.28,1384.24 1207.44,1384.24 1209.6,1384.24 1211.76,1384.24 1213.92,1384.24 1216.08,1384.24 1218.24,1384.24 1220.4,1384.24 1222.56,1384.24 1224.72,1384.24 1226.88,1384.24 1229.05,1384.24 1231.21,1384.24 1233.37,1384.24 1235.53,1384.24 1237.69,1384.24 1239.85,1384.24 1242.01,1384.24 1244.17,1384.24 1246.33,1384.24 1248.49,1384.24 1250.66,1384.24 1252.82,1384.24 1254.98,1384.24 1257.14,1384.24 1259.3,1384.24 1261.46,1384.24 1263.62,1384.24 1265.78,1384.24 1267.94,1384.24 1270.1,1384.24 1272.27,1384.24 1274.43,892.063 1276.59,892.063 1278.75,892.063 1280.91,892.063 1283.07,892.063 1285.23,892.063 1287.39,892.063 1289.55,892.063 1291.71,892.063 1293.88,892.063 1296.04,892.063 1298.2,892.063 1300.36,892.063 1302.52,892.063 1304.68,892.063 1306.84,892.063 1309,892.063 1311.16,892.063 1313.32,892.063 1315.49,892.063 1317.65,892.063 1319.81,892.063 1321.97,892.063 1324.13,892.063 1326.29,892.063 1328.45,892.063 1330.61,892.063 1332.77,892.063 1334.93,892.063 1337.09,892.063 1339.26,892.063 1341.42,892.063 1343.58,892.063 1345.74,892.063 1347.9,892.063 1350.06,892.063 1352.22,892.063 1354.38,892.063 1356.54,892.063 1358.7,892.063 1360.87,892.063 1363.03,892.063 1365.19,892.063 1367.35,892.063 1369.51,892.063 1371.67,892.063 1373.83,892.063 1375.99,892.063 1378.15,892.063 1380.31,892.063 1382.48,892.063 1384.64,892.063 1386.8,892.063 1388.96,892.063 1391.12,892.063 1393.28,892.063 1395.44,892.063 1397.6,892.063 1399.76,892.063 1401.92,892.063 1404.09,892.063 1406.25,892.063 1408.41,892.063 1410.57,892.063 1412.73,892.063 1414.89,892.063 1417.05,892.063 1419.21,892.063 1421.37,892.063 1423.53,892.063 1425.7,892.063 1427.86,892.063 1430.02,892.063 1432.18,892.063 1434.34,892.063 1436.5,892.063 1438.66,892.063 1440.82,892.063 1442.98,892.063 1445.14,892.063 1447.3,892.063 1449.47,892.063 1451.63,892.063 1453.79,892.063 1455.95,892.063 1458.11,892.063 1460.27,892.063 1462.43,892.063 1464.59,892.063 1466.75,892.063 1468.91,892.063 1471.08,892.063 1473.24,892.063 1475.4,892.063 1477.56,892.063 1479.72,892.063 1481.88,892.063 1484.04,892.063 1486.2,892.063 1488.36,892.063 1490.52,135.845 1492.69,135.845 1494.85,135.845 1497.01,135.845 1499.17,135.845 1501.33,135.845 1503.49,135.845 1505.65,135.845 1507.81,135.845 1509.97,135.845 1512.13,135.845 1514.3,135.845 1516.46,135.845 1518.62,135.845 1520.78,135.845 1522.94,135.845 1525.1,135.845 1527.26,135.845 1529.42,135.845 1531.58,135.845 1533.74,135.845 1535.91,135.845 1538.07,135.845 1540.23,135.845 1542.39,135.845 1544.55,135.845 1546.71,135.845 1548.87,135.845 1551.03,135.845 1553.19,135.845 1555.35,135.845 1557.51,135.845 1559.68,135.845 1561.84,135.845 1564,135.845 1566.16,135.845 1568.32,135.845 1570.48,135.845 1572.64,135.845 1574.8,135.845 1576.96,135.845 1579.12,135.845 1581.29,135.845 1583.45,135.845 1585.61,135.845 1587.77,135.845 1589.93,135.845 1592.09,135.845 1594.25,135.845 1596.41,135.845 1598.57,135.845 1600.73,135.845 1602.9,135.845 1605.06,135.845 1607.22,135.845 1609.38,135.845 1611.54,135.845 1613.7,135.845 1615.86,135.845 1618.02,135.845 1620.18,135.845 1622.34,135.845 1624.51,135.845 1626.67,135.845 1628.83,135.845 1630.99,135.845 1633.15,135.845 1635.31,135.845 1637.47,135.845 1639.63,135.845 1641.79,135.845 1643.95,135.845 1646.12,135.845 1648.28,135.845 1650.44,135.845 1652.6,135.845 1654.76,135.845 1656.92,135.845 1659.08,135.845 1661.24,135.845 1663.4,135.845 1665.56,135.845 1667.72,135.845 1669.89,135.845 1672.05,135.845 1674.21,135.845 1676.37,135.845 1678.53,135.845 1680.69,135.845 1682.85,135.845 1685.01,135.845 1687.17,135.845 1689.33,135.845 1691.5,135.845 1693.66,135.845 1695.82,135.845 1697.98,135.845 1700.14,135.845 1702.3,135.845 1704.46,135.845 1706.62,349.005 1708.78,349.005 1710.94,349.005 1713.11,349.005 1715.27,349.005 1717.43,349.005 1719.59,349.005 1721.75,349.005 1723.91,349.005 1726.07,349.005 1728.23,349.005 1730.39,349.005 1732.55,349.005 1734.72,349.005 1736.88,349.005 1739.04,349.005 1741.2,349.005 1743.36,349.005 1745.52,349.005 1747.68,349.005 1749.84,349.005 1752,349.005 1754.16,349.005 1756.33,349.005 1758.49,349.005 1760.65,349.005 1762.81,349.005 1764.97,349.005 1767.13,349.005 1769.29,349.005 1771.45,349.005 1773.61,349.005 1775.77,349.005 1777.93,349.005 1780.1,349.005 1782.26,349.005 1784.42,349.005 1786.58,349.005 1788.74,349.005 1790.9,349.005 1793.06,349.005 1795.22,349.005 1797.38,349.005 1799.54,349.005 1801.71,349.005 1803.87,349.005 1806.03,349.005 1808.19,349.005 1810.35,349.005 1812.51,349.005 1814.67,349.005 1816.83,349.005 1818.99,349.005 1821.15,349.005 1823.32,349.005 1825.48,349.005 1827.64,349.005 1829.8,349.005 1831.96,349.005 1834.12,349.005 1836.28,349.005 1838.44,349.005 1840.6,349.005 1842.76,349.005 1844.93,349.005 1847.09,349.005 1849.25,349.005 1851.41,349.005 1853.57,349.005 1855.73,349.005 1857.89,349.005 1860.05,349.005 1862.21,349.005 1864.37,349.005 1866.54,349.005 1868.7,349.005 1870.86,349.005 1873.02,349.005 1875.18,349.005 1877.34,349.005 1879.5,349.005 1881.66,349.005 1883.82,349.005 1885.98,349.005 1888.15,349.005 1890.31,349.005 1892.47,349.005 1894.63,349.005 1896.79,349.005 1898.95,349.005 1901.11,349.005 1903.27,349.005 1905.43,349.005 1907.59,349.005 1909.75,349.005 1911.92,349.005 1914.08,349.005 1916.24,349.005 1918.4,349.005 1920.56,349.005 1922.72,941.369 1924.88,941.369 1927.04,941.369 1929.2,941.369 1931.36,941.369 1933.53,941.369 1935.69,941.369 1937.85,941.369 1940.01,941.369 1942.17,941.369 1944.33,941.369 1946.49,941.369 1948.65,941.369 1950.81,941.369 1952.97,941.369 1955.14,941.369 1957.3,941.369 1959.46,941.369 1961.62,941.369 1963.78,941.369 1965.94,941.369 1968.1,941.369 1970.26,941.369 1972.42,941.369 1974.58,941.369 1976.75,941.369 1978.91,941.369 1981.07,941.369 1983.23,941.369 1985.39,941.369 1987.55,941.369 1989.71,941.369 1991.87,941.369 1994.03,941.369 1996.19,941.369 1998.36,941.369 2000.52,941.369 2002.68,941.369 2004.84,941.369 2007,941.369 2009.16,941.369 2011.32,941.369 2013.48,941.369 2015.64,941.369 2017.8,941.369 2019.96,941.369 2022.13,941.369 2024.29,941.369 2026.45,941.369 2028.61,941.369 2030.77,941.369 2032.93,941.369 2035.09,941.369 2037.25,941.369 2039.41,941.369 2041.57,941.369 2043.74,941.369 2045.9,941.369 2048.06,941.369 2050.22,941.369 2052.38,941.369 2054.54,941.369 2056.7,941.369 2058.86,941.369 2061.02,941.369 2063.18,941.369 2065.35,941.369 2067.51,941.369 2069.67,941.369 2071.83,941.369 2073.99,941.369 2076.15,941.369 2078.31,941.369 2080.47,941.369 2082.63,941.369 2084.79,941.369 2086.96,941.369 2089.12,941.369 2091.28,941.369 2093.44,941.369 2095.6,941.369 2097.76,941.369 2099.92,941.369 2102.08,941.369 2104.24,941.369 2106.4,941.369 2108.57,941.369 2110.73,941.369 2112.89,941.369 2115.05,941.369 2117.21,941.369 2119.37,941.369 2121.53,941.369 2123.69,941.369 2125.85,941.369 2128.01,941.369 2130.17,941.369 2132.34,941.369 2134.5,941.369 2136.66,941.369 2138.82,996.158 2140.98,996.158 2143.14,996.158 2145.3,996.158 2147.46,996.158 2149.62,996.158 2151.78,996.158 2153.95,996.158 2156.11,996.158 2158.27,996.158 2160.43,996.158 2162.59,996.158 2164.75,996.158 2166.91,996.158 2169.07,996.158 2171.23,996.158 2173.39,996.158 2175.56,996.158 2177.72,996.158 2179.88,996.158 2182.04,996.158 2184.2,996.158 2186.36,996.158 2188.52,996.158 2190.68,996.158 2192.84,996.158 2195,996.158 2197.17,996.158 2199.33,996.158 2201.49,996.158 2203.65,996.158 2205.81,996.158 2207.97,996.158 2210.13,996.158 2212.29,996.158 2214.45,996.158 2216.61,996.158 2218.78,996.158 2220.94,996.158 2223.1,996.158 2225.26,996.158 2227.42,996.158 2229.58,996.158 2231.74,996.158 2233.9,996.158 2236.06,996.158 2238.22,996.158 2240.38,996.158 2242.55,996.158 2244.71,996.158 2246.87,996.158 2249.03,996.158 2251.19,996.158 2253.35,996.158 2255.51,996.158 2257.67,996.158 2259.83,996.158 2261.99,996.158 2264.16,996.158 2266.32,996.158 2268.48,996.158 2270.64,996.158 2272.8,996.158 2274.96,996.158 2277.12,996.158 2279.28,996.158 2281.44,996.158 2283.6,996.158 2285.77,996.158 2287.93,996.158 2290.09,996.158 2292.25,996.158 2294.41,996.158 2296.57,996.158 2298.73,996.158 2300.89,996.158 2303.05,996.158 2305.21,996.158 2307.38,996.158 2309.54,996.158 2311.7,996.158 2313.86,996.158 2316.02,996.158 2318.18,996.158 2320.34,996.158 2322.5,996.158 2324.66,996.158 2326.82,996.158 2328.99,996.158 2331.15,996.158 2333.31,996.158 2335.47,996.158 2337.63,996.158 2339.79,996.158 2341.95,996.158 2344.11,996.158 2346.27,996.158 2348.43,996.158 2350.59,996.158 2352.76,996.158 "/>
<path clip-path="url(#clip350)" d="M2039.77 1377.32 L2280.8 1377.32 L2280.8 1221.8 L2039.77 1221.8  Z" fill="#ffffff" fill-rule="evenodd" fill-opacity="1"/>
<polyline clip-path="url(#clip350)" style="stroke:#000000; stroke-linecap:round; stroke-linejoin:round; stroke-width:4; stroke-opacity:1; fill:none" points="2039.77,1377.32 2280.8,1377.32 2280.8,1221.8 2039.77,1221.8 2039.77,1377.32 "/>
<polyline clip-path="url(#clip350)" style="stroke:#009af9; stroke-linecap:round; stroke-linejoin:round; stroke-width:4; stroke-opacity:1; fill:none" points="2063.76,1273.64 2207.68,1273.64 "/>
<path clip-path="url(#clip350)" d="M2256.32 1264.99 L2246.95 1277.61 L2256.81 1290.92 L2251.79 1290.92 L2244.24 1280.73 L2236.69 1290.92 L2231.67 1290.92 L2241.74 1277.35 L2232.53 1264.99 L2237.55 1264.99 L2244.42 1274.23 L2251.3 1264.99 L2256.32 1264.99 Z" fill="#000000" fill-rule="nonzero" fill-opacity="1" /><polyline clip-path="url(#clip350)" style="stroke:#e26f46; stroke-linecap:round; stroke-linejoin:round; stroke-width:4; stroke-opacity:1; fill:none" points="2063.76,1325.48 2207.68,1325.48 "/>
<path clip-path="url(#clip350)" d="M2248.17 1306.74 L2248.17 1310.28 L2244.1 1310.28 Q2241.81 1310.28 2240.91 1311.2 Q2240.03 1312.13 2240.03 1314.54 L2240.03 1316.83 L2247.04 1316.83 L2247.04 1320.14 L2240.03 1320.14 L2240.03 1342.76 L2235.74 1342.76 L2235.74 1320.14 L2231.67 1320.14 L2231.67 1316.83 L2235.74 1316.83 L2235.74 1315.02 Q2235.74 1310.7 2237.76 1308.73 Q2239.77 1306.74 2244.15 1306.74 L2248.17 1306.74 Z" fill="#000000" fill-rule="nonzero" fill-opacity="1" /></svg>
