<?xml version="1.0" encoding="utf-8"?>
<svg xmlns="http://www.w3.org/2000/svg" xmlns:xlink="http://www.w3.org/1999/xlink" width="600" height="400" viewBox="0 0 2400 1600">
<defs>
  <clipPath id="clip950">
    <rect x="0" y="0" width="2400" height="1600"/>
  </clipPath>
</defs>
<path clip-path="url(#clip950)" d="M0 1600 L2400 1600 L2400 0 L0 0  Z" fill="#ffffff" fill-rule="evenodd" fill-opacity="1"/>
<defs>
  <clipPath id="clip951">
    <rect x="480" y="0" width="1681" height="1600"/>
  </clipPath>
</defs>
<defs>
  <clipPath id="clip952">
    <rect x="112" y="47" width="2242" height="1440"/>
  </clipPath>
</defs>
<path clip-path="url(#clip952)" d="M-548.123 2341.91 L-548.123 2083.77 L-214.846 1954.7 L362.407 2029.22 L362.407 2287.36 L29.13 2416.43 L-548.123 2341.91  Z" fill="#ffffff" fill-rule="evenodd" fill-opacity="1"/>
<polyline clip-path="url(#clip952)" style="stroke:#000000; stroke-linecap:round; stroke-linejoin:round; stroke-width:2; stroke-opacity:0.1; fill:none" points="743.397,1225.33 1158.86,865.531 1158.86,145.929 "/>
<polyline clip-path="url(#clip952)" style="stroke:#000000; stroke-linecap:round; stroke-linejoin:round; stroke-width:2; stroke-opacity:0.1; fill:none" points="887.71,1266.99 1303.17,907.191 1303.17,187.589 "/>
<polyline clip-path="url(#clip952)" style="stroke:#000000; stroke-linecap:round; stroke-linejoin:round; stroke-width:2; stroke-opacity:0.1; fill:none" points="1032.02,1308.65 1447.49,948.85 1447.49,229.249 "/>
<polyline clip-path="url(#clip952)" style="stroke:#000000; stroke-linecap:round; stroke-linejoin:round; stroke-width:2; stroke-opacity:0.1; fill:none" points="1176.34,1350.31 1591.8,990.51 1591.8,270.908 "/>
<polyline clip-path="url(#clip952)" style="stroke:#000000; stroke-linecap:round; stroke-linejoin:round; stroke-width:2; stroke-opacity:0.1; fill:none" points="1320.65,1391.97 1736.11,1032.17 1736.11,312.568 "/>
<polyline clip-path="url(#clip952)" style="stroke:#000000; stroke-linecap:round; stroke-linejoin:round; stroke-width:2; stroke-opacity:0.1; fill:none" points="1406.28,1391.58 686.676,1183.85 686.676,464.251 "/>
<polyline clip-path="url(#clip952)" style="stroke:#000000; stroke-linecap:round; stroke-linejoin:round; stroke-width:2; stroke-opacity:0.1; fill:none" points="1480.8,1327.05 761.196,1119.32 761.196,399.715 "/>
<polyline clip-path="url(#clip952)" style="stroke:#000000; stroke-linecap:round; stroke-linejoin:round; stroke-width:2; stroke-opacity:0.1; fill:none" points="1555.32,1262.51 835.716,1054.78 835.716,335.179 "/>
<polyline clip-path="url(#clip952)" style="stroke:#000000; stroke-linecap:round; stroke-linejoin:round; stroke-width:2; stroke-opacity:0.1; fill:none" points="1629.84,1197.98 910.235,990.245 910.235,270.643 "/>
<polyline clip-path="url(#clip952)" style="stroke:#000000; stroke-linecap:round; stroke-linejoin:round; stroke-width:2; stroke-opacity:0.1; fill:none" points="1704.36,1133.44 984.755,925.709 984.755,206.107 "/>
<polyline clip-path="url(#clip952)" style="stroke:#000000; stroke-linecap:round; stroke-linejoin:round; stroke-width:2; stroke-opacity:0.1; fill:none" points="1778.88,1068.9 1059.28,861.173 1059.28,141.571 "/>
<polyline clip-path="url(#clip952)" style="stroke:#000000; stroke-linecap:round; stroke-linejoin:round; stroke-width:2; stroke-opacity:0.1; fill:none" points="664.934,1143.59 1080.4,783.785 1800,991.516 "/>
<polyline clip-path="url(#clip952)" style="stroke:#000000; stroke-linecap:round; stroke-linejoin:round; stroke-width:2; stroke-opacity:0.1; fill:none" points="664.934,1032.47 1080.4,672.67 1800,880.402 "/>
<polyline clip-path="url(#clip952)" style="stroke:#000000; stroke-linecap:round; stroke-linejoin:round; stroke-width:2; stroke-opacity:0.1; fill:none" points="664.934,921.356 1080.4,561.555 1800,769.287 "/>
<polyline clip-path="url(#clip952)" style="stroke:#000000; stroke-linecap:round; stroke-linejoin:round; stroke-width:2; stroke-opacity:0.1; fill:none" points="664.934,810.242 1080.4,450.441 1800,658.172 "/>
<polyline clip-path="url(#clip952)" style="stroke:#000000; stroke-linecap:round; stroke-linejoin:round; stroke-width:2; stroke-opacity:0.1; fill:none" points="664.934,699.127 1080.4,339.326 1800,547.057 "/>
<polyline clip-path="url(#clip952)" style="stroke:#000000; stroke-linecap:round; stroke-linejoin:round; stroke-width:2; stroke-opacity:0.1; fill:none" points="664.934,588.012 1080.4,228.211 1800,435.942 "/>
<polyline clip-path="url(#clip950)" style="stroke:#000000; stroke-linecap:round; stroke-linejoin:round; stroke-width:4; stroke-opacity:1; fill:none" points="664.934,1202.68 1384.54,1410.41 "/>
<polyline clip-path="url(#clip950)" style="stroke:#000000; stroke-linecap:round; stroke-linejoin:round; stroke-width:4; stroke-opacity:1; fill:none" points="743.397,1225.33 748.383,1221.01 "/>
<polyline clip-path="url(#clip950)" style="stroke:#000000; stroke-linecap:round; stroke-linejoin:round; stroke-width:4; stroke-opacity:1; fill:none" points="887.71,1266.99 892.696,1262.67 "/>
<polyline clip-path="url(#clip950)" style="stroke:#000000; stroke-linecap:round; stroke-linejoin:round; stroke-width:4; stroke-opacity:1; fill:none" points="1032.02,1308.65 1037.01,1304.33 "/>
<polyline clip-path="url(#clip950)" style="stroke:#000000; stroke-linecap:round; stroke-linejoin:round; stroke-width:4; stroke-opacity:1; fill:none" points="1176.34,1350.31 1181.32,1345.99 "/>
<polyline clip-path="url(#clip950)" style="stroke:#000000; stroke-linecap:round; stroke-linejoin:round; stroke-width:4; stroke-opacity:1; fill:none" points="1320.65,1391.97 1325.64,1387.65 "/>
<path clip-path="url(#clip950)" d="M683.53 1239.69 Q679.918 1239.69 678.09 1243.26 Q676.284 1246.8 676.284 1253.93 Q676.284 1261.04 678.09 1264.6 Q679.918 1268.14 683.53 1268.14 Q687.164 1268.14 688.969 1264.6 Q690.798 1261.04 690.798 1253.93 Q690.798 1246.8 688.969 1243.26 Q687.164 1239.69 683.53 1239.69 M683.53 1235.99 Q689.34 1235.99 692.395 1240.6 Q695.474 1245.18 695.474 1253.93 Q695.474 1262.66 692.395 1267.26 Q689.34 1271.85 683.53 1271.85 Q677.719 1271.85 674.641 1267.26 Q671.585 1262.66 671.585 1253.93 Q671.585 1245.18 674.641 1240.6 Q677.719 1235.99 683.53 1235.99 Z" fill="#000000" fill-rule="nonzero" fill-opacity="1" /><path clip-path="url(#clip950)" d="M703.691 1265.3 L708.576 1265.3 L708.576 1271.18 L703.691 1271.18 L703.691 1265.3 Z" fill="#000000" fill-rule="nonzero" fill-opacity="1" /><path clip-path="url(#clip950)" d="M718.807 1236.62 L737.163 1236.62 L737.163 1240.55 L723.089 1240.55 L723.089 1249.02 Q724.108 1248.68 725.127 1248.51 Q726.145 1248.33 727.164 1248.33 Q732.951 1248.33 736.33 1251.5 Q739.71 1254.67 739.71 1260.09 Q739.71 1265.67 736.238 1268.77 Q732.765 1271.85 726.446 1271.85 Q724.27 1271.85 722.002 1271.48 Q719.756 1271.11 717.349 1270.36 L717.349 1265.67 Q719.432 1266.8 721.654 1267.36 Q723.877 1267.91 726.353 1267.91 Q730.358 1267.91 732.696 1265.8 Q735.034 1263.7 735.034 1260.09 Q735.034 1256.48 732.696 1254.37 Q730.358 1252.26 726.353 1252.26 Q724.478 1252.26 722.603 1252.68 Q720.752 1253.1 718.807 1253.98 L718.807 1236.62 Z" fill="#000000" fill-rule="nonzero" fill-opacity="1" /><path clip-path="url(#clip950)" d="M817.658 1308.9 L825.297 1308.9 L825.297 1282.53 L816.986 1284.2 L816.986 1279.94 L825.25 1278.27 L829.926 1278.27 L829.926 1308.9 L837.565 1308.9 L837.565 1312.83 L817.658 1312.83 L817.658 1308.9 Z" fill="#000000" fill-rule="nonzero" fill-opacity="1" /><path clip-path="url(#clip950)" d="M847.009 1306.96 L851.894 1306.96 L851.894 1312.83 L847.009 1312.83 L847.009 1306.96 Z" fill="#000000" fill-rule="nonzero" fill-opacity="1" /><path clip-path="url(#clip950)" d="M872.079 1281.35 Q868.468 1281.35 866.639 1284.92 Q864.833 1288.46 864.833 1295.59 Q864.833 1302.7 866.639 1306.26 Q868.468 1309.8 872.079 1309.8 Q875.713 1309.8 877.519 1306.26 Q879.347 1302.7 879.347 1295.59 Q879.347 1288.46 877.519 1284.92 Q875.713 1281.35 872.079 1281.35 M872.079 1277.65 Q877.889 1277.65 880.944 1282.26 Q884.023 1286.84 884.023 1295.59 Q884.023 1304.32 880.944 1308.92 Q877.889 1313.51 872.079 1313.51 Q866.269 1313.51 863.19 1308.92 Q860.134 1304.32 860.134 1295.59 Q860.134 1286.84 863.19 1282.26 Q866.269 1277.65 872.079 1277.65 Z" fill="#000000" fill-rule="nonzero" fill-opacity="1" /><path clip-path="url(#clip950)" d="M962.966 1350.56 L970.605 1350.56 L970.605 1324.19 L962.295 1325.86 L962.295 1321.6 L970.559 1319.93 L975.235 1319.93 L975.235 1350.56 L982.874 1350.56 L982.874 1354.49 L962.966 1354.49 L962.966 1350.56 Z" fill="#000000" fill-rule="nonzero" fill-opacity="1" /><path clip-path="url(#clip950)" d="M992.318 1348.61 L997.202 1348.61 L997.202 1354.49 L992.318 1354.49 L992.318 1348.61 Z" fill="#000000" fill-rule="nonzero" fill-opacity="1" /><path clip-path="url(#clip950)" d="M1007.43 1319.93 L1025.79 1319.93 L1025.79 1323.87 L1011.72 1323.87 L1011.72 1332.34 Q1012.73 1331.99 1013.75 1331.83 Q1014.77 1331.65 1015.79 1331.65 Q1021.58 1331.65 1024.96 1334.82 Q1028.34 1337.99 1028.34 1343.41 Q1028.34 1348.99 1024.86 1352.09 Q1021.39 1355.17 1015.07 1355.17 Q1012.9 1355.17 1010.63 1354.8 Q1008.38 1354.42 1005.98 1353.68 L1005.98 1348.99 Q1008.06 1350.12 1010.28 1350.67 Q1012.5 1351.23 1014.98 1351.23 Q1018.98 1351.23 1021.32 1349.12 Q1023.66 1347.02 1023.66 1343.41 Q1023.66 1339.8 1021.32 1337.69 Q1018.98 1335.58 1014.98 1335.58 Q1013.11 1335.58 1011.23 1336 Q1009.38 1336.42 1007.43 1337.3 L1007.43 1319.93 Z" fill="#000000" fill-rule="nonzero" fill-opacity="1" /><path clip-path="url(#clip950)" d="M1109.5 1392.22 L1125.82 1392.22 L1125.82 1396.15 L1103.88 1396.15 L1103.88 1392.22 Q1106.54 1389.46 1111.12 1384.83 Q1115.73 1380.18 1116.91 1378.84 Q1119.15 1376.32 1120.03 1374.58 Q1120.94 1372.82 1120.94 1371.13 Q1120.94 1368.38 1118.99 1366.64 Q1117.07 1364.9 1113.97 1364.9 Q1111.77 1364.9 1109.32 1365.67 Q1106.89 1366.43 1104.11 1367.98 L1104.11 1363.26 Q1106.93 1362.13 1109.39 1361.55 Q1111.84 1360.97 1113.88 1360.97 Q1119.25 1360.97 1122.44 1363.65 Q1125.64 1366.34 1125.64 1370.83 Q1125.64 1372.96 1124.83 1374.88 Q1124.04 1376.78 1121.93 1379.37 Q1121.35 1380.04 1118.25 1383.26 Q1115.15 1386.46 1109.5 1392.22 Z" fill="#000000" fill-rule="nonzero" fill-opacity="1" /><path clip-path="url(#clip950)" d="M1135.64 1390.27 L1140.52 1390.27 L1140.52 1396.15 L1135.64 1396.15 L1135.64 1390.27 Z" fill="#000000" fill-rule="nonzero" fill-opacity="1" /><path clip-path="url(#clip950)" d="M1160.71 1364.67 Q1157.09 1364.67 1155.27 1368.24 Q1153.46 1371.78 1153.46 1378.91 Q1153.46 1386.02 1155.27 1389.58 Q1157.09 1393.12 1160.71 1393.12 Q1164.34 1393.12 1166.15 1389.58 Q1167.97 1386.02 1167.97 1378.91 Q1167.97 1371.78 1166.15 1368.24 Q1164.34 1364.67 1160.71 1364.67 M1160.71 1360.97 Q1166.52 1360.97 1169.57 1365.58 Q1172.65 1370.16 1172.65 1378.91 Q1172.65 1387.64 1169.57 1392.24 Q1166.52 1396.83 1160.71 1396.83 Q1154.9 1396.83 1151.82 1392.24 Q1148.76 1387.64 1148.76 1378.91 Q1148.76 1370.16 1151.82 1365.58 Q1154.9 1360.97 1160.71 1360.97 Z" fill="#000000" fill-rule="nonzero" fill-opacity="1" /><path clip-path="url(#clip950)" d="M1254.81 1433.88 L1271.13 1433.88 L1271.13 1437.81 L1249.19 1437.81 L1249.19 1433.88 Q1251.85 1431.12 1256.43 1426.49 Q1261.04 1421.84 1262.22 1420.5 Q1264.46 1417.98 1265.34 1416.24 Q1266.25 1414.48 1266.25 1412.79 Q1266.25 1410.04 1264.3 1408.3 Q1262.38 1406.56 1259.28 1406.56 Q1257.08 1406.56 1254.63 1407.33 Q1252.19 1408.09 1249.42 1409.64 L1249.42 1404.92 Q1252.24 1403.79 1254.69 1403.21 Q1257.15 1402.63 1259.19 1402.63 Q1264.56 1402.63 1267.75 1405.31 Q1270.94 1408 1270.94 1412.49 Q1270.94 1414.62 1270.13 1416.54 Q1269.35 1418.44 1267.24 1421.03 Q1266.66 1421.7 1263.56 1424.92 Q1260.46 1428.11 1254.81 1433.88 Z" fill="#000000" fill-rule="nonzero" fill-opacity="1" /><path clip-path="url(#clip950)" d="M1280.94 1431.93 L1285.83 1431.93 L1285.83 1437.81 L1280.94 1437.81 L1280.94 1431.93 Z" fill="#000000" fill-rule="nonzero" fill-opacity="1" /><path clip-path="url(#clip950)" d="M1296.06 1403.25 L1314.42 1403.25 L1314.42 1407.19 L1300.34 1407.19 L1300.34 1415.66 Q1301.36 1415.31 1302.38 1415.15 Q1303.4 1414.97 1304.42 1414.97 Q1310.2 1414.97 1313.58 1418.14 Q1316.96 1421.31 1316.96 1426.73 Q1316.96 1432.3 1313.49 1435.41 Q1310.02 1438.48 1303.7 1438.48 Q1301.52 1438.48 1299.25 1438.11 Q1297.01 1437.74 1294.6 1437 L1294.6 1432.3 Q1296.69 1433.44 1298.91 1433.99 Q1301.13 1434.55 1303.61 1434.55 Q1307.61 1434.55 1309.95 1432.44 Q1312.29 1430.34 1312.29 1426.73 Q1312.29 1423.11 1309.95 1421.01 Q1307.61 1418.9 1303.61 1418.9 Q1301.73 1418.9 1299.86 1419.32 Q1298 1419.74 1296.06 1420.61 L1296.06 1403.25 Z" fill="#000000" fill-rule="nonzero" fill-opacity="1" /><polyline clip-path="url(#clip950)" style="stroke:#000000; stroke-linecap:round; stroke-linejoin:round; stroke-width:4; stroke-opacity:1; fill:none" points="1384.54,1410.41 1800,1050.61 "/>
<polyline clip-path="url(#clip950)" style="stroke:#000000; stroke-linecap:round; stroke-linejoin:round; stroke-width:4; stroke-opacity:1; fill:none" points="1406.28,1391.58 1397.64,1389.09 "/>
<polyline clip-path="url(#clip950)" style="stroke:#000000; stroke-linecap:round; stroke-linejoin:round; stroke-width:4; stroke-opacity:1; fill:none" points="1480.8,1327.05 1472.16,1324.56 "/>
<polyline clip-path="url(#clip950)" style="stroke:#000000; stroke-linecap:round; stroke-linejoin:round; stroke-width:4; stroke-opacity:1; fill:none" points="1555.32,1262.51 1546.68,1260.02 "/>
<polyline clip-path="url(#clip950)" style="stroke:#000000; stroke-linecap:round; stroke-linejoin:round; stroke-width:4; stroke-opacity:1; fill:none" points="1629.84,1197.98 1621.2,1195.48 "/>
<polyline clip-path="url(#clip950)" style="stroke:#000000; stroke-linecap:round; stroke-linejoin:round; stroke-width:4; stroke-opacity:1; fill:none" points="1704.36,1133.44 1695.72,1130.95 "/>
<polyline clip-path="url(#clip950)" style="stroke:#000000; stroke-linecap:round; stroke-linejoin:round; stroke-width:4; stroke-opacity:1; fill:none" points="1778.88,1068.9 1770.24,1066.41 "/>
<path clip-path="url(#clip950)" d="M1432.3 1417.09 Q1435.66 1417.8 1437.54 1420.07 Q1439.43 1422.34 1439.43 1425.67 Q1439.43 1430.79 1435.91 1433.59 Q1432.4 1436.39 1425.91 1436.39 Q1423.74 1436.39 1421.42 1435.95 Q1419.13 1435.54 1416.68 1434.68 L1416.68 1430.17 Q1418.62 1431.3 1420.94 1431.88 Q1423.25 1432.46 1425.78 1432.46 Q1430.17 1432.46 1432.47 1430.72 Q1434.78 1428.98 1434.78 1425.67 Q1434.78 1422.62 1432.63 1420.91 Q1430.5 1419.17 1426.68 1419.17 L1422.65 1419.17 L1422.65 1415.33 L1426.86 1415.33 Q1430.31 1415.33 1432.14 1413.96 Q1433.97 1412.57 1433.97 1409.98 Q1433.97 1407.32 1432.07 1405.91 Q1430.2 1404.47 1426.68 1404.47 Q1424.76 1404.47 1422.56 1404.89 Q1420.36 1405.3 1417.72 1406.18 L1417.72 1402.02 Q1420.38 1401.28 1422.7 1400.91 Q1425.04 1400.54 1427.1 1400.54 Q1432.42 1400.54 1435.52 1402.97 Q1438.62 1405.37 1438.62 1409.49 Q1438.62 1412.36 1436.98 1414.35 Q1435.34 1416.32 1432.3 1417.09 Z" fill="#000000" fill-rule="nonzero" fill-opacity="1" /><path clip-path="url(#clip950)" d="M1506.8 1340.7 L1494.99 1359.15 L1506.8 1359.15 L1506.8 1340.7 M1505.57 1336.62 L1511.45 1336.62 L1511.45 1359.15 L1516.38 1359.15 L1516.38 1363.04 L1511.45 1363.04 L1511.45 1371.18 L1506.8 1371.18 L1506.8 1363.04 L1491.2 1363.04 L1491.2 1358.52 L1505.57 1336.62 Z" fill="#000000" fill-rule="nonzero" fill-opacity="1" /><path clip-path="url(#clip950)" d="M1567.18 1272.09 L1585.53 1272.09 L1585.53 1276.02 L1571.46 1276.02 L1571.46 1284.5 Q1572.48 1284.15 1573.5 1283.99 Q1574.51 1283.8 1575.53 1283.8 Q1581.32 1283.8 1584.7 1286.97 Q1588.08 1290.14 1588.08 1295.56 Q1588.08 1301.14 1584.61 1304.24 Q1581.14 1307.32 1574.82 1307.32 Q1572.64 1307.32 1570.37 1306.95 Q1568.13 1306.58 1565.72 1305.84 L1565.72 1301.14 Q1567.8 1302.27 1570.02 1302.83 Q1572.25 1303.38 1574.72 1303.38 Q1578.73 1303.38 1581.07 1301.28 Q1583.4 1299.17 1583.4 1295.56 Q1583.4 1291.95 1581.07 1289.84 Q1578.73 1287.74 1574.72 1287.74 Q1572.85 1287.74 1570.97 1288.15 Q1569.12 1288.57 1567.18 1289.45 L1567.18 1272.09 Z" fill="#000000" fill-rule="nonzero" fill-opacity="1" /><path clip-path="url(#clip950)" d="M1652.58 1222.97 Q1649.43 1222.97 1647.58 1225.12 Q1645.75 1227.27 1645.75 1231.02 Q1645.75 1234.75 1647.58 1236.93 Q1649.43 1239.08 1652.58 1239.08 Q1655.72 1239.08 1657.55 1236.93 Q1659.4 1234.75 1659.4 1231.02 Q1659.4 1227.27 1657.55 1225.12 Q1655.72 1222.97 1652.58 1222.97 M1661.86 1208.32 L1661.86 1212.58 Q1660.1 1211.74 1658.29 1211.3 Q1656.51 1210.86 1654.75 1210.86 Q1650.12 1210.86 1647.67 1213.99 Q1645.24 1217.11 1644.89 1223.43 Q1646.26 1221.42 1648.32 1220.35 Q1650.38 1219.27 1652.85 1219.27 Q1658.06 1219.27 1661.07 1222.44 Q1664.1 1225.58 1664.1 1231.02 Q1664.1 1236.35 1660.96 1239.57 Q1657.81 1242.78 1652.58 1242.78 Q1646.58 1242.78 1643.41 1238.2 Q1640.24 1233.59 1640.24 1224.87 Q1640.24 1216.67 1644.13 1211.81 Q1648.02 1206.93 1654.57 1206.93 Q1656.33 1206.93 1658.11 1207.27 Q1659.91 1207.62 1661.86 1208.32 Z" fill="#000000" fill-rule="nonzero" fill-opacity="1" /><path clip-path="url(#clip950)" d="M1714.76 1143.02 L1736.98 1143.02 L1736.98 1145.01 L1724.43 1177.58 L1719.55 1177.58 L1731.36 1146.95 L1714.76 1146.95 L1714.76 1143.02 Z" fill="#000000" fill-rule="nonzero" fill-opacity="1" /><path clip-path="url(#clip950)" d="M1801.13 1096.63 Q1797.8 1096.63 1795.88 1098.41 Q1793.98 1100.19 1793.98 1103.32 Q1793.98 1106.44 1795.88 1108.23 Q1797.8 1110.01 1801.13 1110.01 Q1804.46 1110.01 1806.38 1108.23 Q1808.31 1106.42 1808.31 1103.32 Q1808.31 1100.19 1806.38 1098.41 Q1804.49 1096.63 1801.13 1096.63 M1796.45 1094.64 Q1793.44 1093.9 1791.75 1091.84 Q1790.09 1089.78 1790.09 1086.81 Q1790.09 1082.67 1793.03 1080.26 Q1795.99 1077.86 1801.13 1077.86 Q1806.29 1077.86 1809.23 1080.26 Q1812.17 1082.67 1812.17 1086.81 Q1812.17 1089.78 1810.48 1091.84 Q1808.81 1093.9 1805.83 1094.64 Q1809.21 1095.42 1811.08 1097.72 Q1812.98 1100.01 1812.98 1103.32 Q1812.98 1108.34 1809.9 1111.03 Q1806.85 1113.71 1801.13 1113.71 Q1795.41 1113.71 1792.33 1111.03 Q1789.28 1108.34 1789.28 1103.32 Q1789.28 1100.01 1791.18 1097.72 Q1793.07 1095.42 1796.45 1094.64 M1794.74 1087.25 Q1794.74 1089.94 1796.41 1091.44 Q1798.1 1092.95 1801.13 1092.95 Q1804.14 1092.95 1805.83 1091.44 Q1807.54 1089.94 1807.54 1087.25 Q1807.54 1084.57 1805.83 1083.06 Q1804.14 1081.56 1801.13 1081.56 Q1798.1 1081.56 1796.41 1083.06 Q1794.74 1084.57 1794.74 1087.25 Z" fill="#000000" fill-rule="nonzero" fill-opacity="1" /><polyline clip-path="url(#clip950)" style="stroke:#000000; stroke-linecap:round; stroke-linejoin:round; stroke-width:4; stroke-opacity:1; fill:none" points="664.934,1202.68 664.934,483.08 "/>
<polyline clip-path="url(#clip950)" style="stroke:#000000; stroke-linecap:round; stroke-linejoin:round; stroke-width:4; stroke-opacity:1; fill:none" points="664.934,1143.59 669.92,1139.27 "/>
<polyline clip-path="url(#clip950)" style="stroke:#000000; stroke-linecap:round; stroke-linejoin:round; stroke-width:4; stroke-opacity:1; fill:none" points="664.934,1032.47 669.92,1028.15 "/>
<polyline clip-path="url(#clip950)" style="stroke:#000000; stroke-linecap:round; stroke-linejoin:round; stroke-width:4; stroke-opacity:1; fill:none" points="664.934,921.356 669.92,917.039 "/>
<polyline clip-path="url(#clip950)" style="stroke:#000000; stroke-linecap:round; stroke-linejoin:round; stroke-width:4; stroke-opacity:1; fill:none" points="664.934,810.242 669.92,805.924 "/>
<polyline clip-path="url(#clip950)" style="stroke:#000000; stroke-linecap:round; stroke-linejoin:round; stroke-width:4; stroke-opacity:1; fill:none" points="664.934,699.127 669.92,694.809 "/>
<polyline clip-path="url(#clip950)" style="stroke:#000000; stroke-linecap:round; stroke-linejoin:round; stroke-width:4; stroke-opacity:1; fill:none" points="664.934,588.012 669.92,583.694 "/>
<path clip-path="url(#clip950)" d="M629.005 1142.23 Q632.361 1142.95 634.236 1145.22 Q636.134 1147.49 636.134 1150.82 Q636.134 1155.94 632.616 1158.74 Q629.097 1161.54 622.616 1161.54 Q620.44 1161.54 618.125 1161.1 Q615.834 1160.68 613.38 1159.82 L613.38 1155.31 Q615.324 1156.44 617.639 1157.02 Q619.954 1157.6 622.477 1157.6 Q626.875 1157.6 629.167 1155.87 Q631.482 1154.13 631.482 1150.82 Q631.482 1147.76 629.329 1146.05 Q627.199 1144.32 623.38 1144.32 L619.352 1144.32 L619.352 1140.47 L623.565 1140.47 Q627.014 1140.47 628.843 1139.11 Q630.671 1137.72 630.671 1135.13 Q630.671 1132.46 628.773 1131.05 Q626.898 1129.62 623.38 1129.62 Q621.459 1129.62 619.26 1130.03 Q617.06 1130.45 614.422 1131.33 L614.422 1127.16 Q617.084 1126.42 619.398 1126.05 Q621.736 1125.68 623.797 1125.68 Q629.121 1125.68 632.222 1128.11 Q635.324 1130.52 635.324 1134.64 Q635.324 1137.51 633.681 1139.5 Q632.037 1141.47 629.005 1142.23 Z" fill="#000000" fill-rule="nonzero" fill-opacity="1" /><path clip-path="url(#clip950)" d="M626.551 1019.27 L614.746 1037.71 L626.551 1037.71 L626.551 1019.27 M625.324 1015.19 L631.204 1015.19 L631.204 1037.71 L636.134 1037.71 L636.134 1041.6 L631.204 1041.6 L631.204 1049.75 L626.551 1049.75 L626.551 1041.6 L610.949 1041.6 L610.949 1037.09 L625.324 1015.19 Z" fill="#000000" fill-rule="nonzero" fill-opacity="1" /><path clip-path="url(#clip950)" d="M615.232 904.076 L633.588 904.076 L633.588 908.012 L619.514 908.012 L619.514 916.484 Q620.533 916.137 621.551 915.975 Q622.57 915.789 623.588 915.789 Q629.375 915.789 632.755 918.961 Q636.134 922.132 636.134 927.549 Q636.134 933.127 632.662 936.229 Q629.19 939.308 622.871 939.308 Q620.695 939.308 618.426 938.937 Q616.181 938.567 613.773 937.826 L613.773 933.127 Q615.857 934.261 618.079 934.817 Q620.301 935.373 622.778 935.373 Q626.783 935.373 629.121 933.266 Q631.459 931.16 631.459 927.549 Q631.459 923.937 629.121 921.831 Q626.783 919.724 622.778 919.724 Q620.903 919.724 619.028 920.141 Q617.176 920.558 615.232 921.437 L615.232 904.076 Z" fill="#000000" fill-rule="nonzero" fill-opacity="1" /><path clip-path="url(#clip950)" d="M624.607 808.378 Q621.459 808.378 619.607 810.531 Q617.778 812.684 617.778 816.434 Q617.778 820.16 619.607 822.336 Q621.459 824.489 624.607 824.489 Q627.755 824.489 629.584 822.336 Q631.435 820.16 631.435 816.434 Q631.435 812.684 629.584 810.531 Q627.755 808.378 624.607 808.378 M633.889 793.725 L633.889 797.985 Q632.13 797.151 630.324 796.712 Q628.542 796.272 626.783 796.272 Q622.153 796.272 619.699 799.397 Q617.269 802.522 616.922 808.841 Q618.287 806.827 620.347 805.762 Q622.408 804.674 624.884 804.674 Q630.093 804.674 633.102 807.846 Q636.134 810.994 636.134 816.434 Q636.134 821.758 632.986 824.975 Q629.838 828.193 624.607 828.193 Q618.611 828.193 615.44 823.61 Q612.269 819.003 612.269 810.276 Q612.269 802.082 616.158 797.221 Q620.047 792.337 626.597 792.337 Q628.357 792.337 630.139 792.684 Q631.945 793.031 633.889 793.725 Z" fill="#000000" fill-rule="nonzero" fill-opacity="1" /><path clip-path="url(#clip950)" d="M613.912 681.847 L636.134 681.847 L636.134 683.837 L623.588 716.407 L618.704 716.407 L630.509 685.782 L613.912 685.782 L613.912 681.847 Z" fill="#000000" fill-rule="nonzero" fill-opacity="1" /><path clip-path="url(#clip950)" d="M624.283 588.88 Q620.949 588.88 619.028 590.662 Q617.13 592.445 617.13 595.57 Q617.13 598.695 619.028 600.477 Q620.949 602.259 624.283 602.259 Q627.616 602.259 629.537 600.477 Q631.459 598.671 631.459 595.57 Q631.459 592.445 629.537 590.662 Q627.639 588.88 624.283 588.88 M619.607 586.889 Q616.597 586.148 614.908 584.088 Q613.241 582.028 613.241 579.065 Q613.241 574.922 616.181 572.514 Q619.144 570.107 624.283 570.107 Q629.445 570.107 632.384 572.514 Q635.324 574.922 635.324 579.065 Q635.324 582.028 633.634 584.088 Q631.968 586.148 628.982 586.889 Q632.361 587.676 634.236 589.968 Q636.134 592.259 636.134 595.57 Q636.134 600.593 633.056 603.278 Q630 605.963 624.283 605.963 Q618.565 605.963 615.486 603.278 Q612.431 600.593 612.431 595.57 Q612.431 592.259 614.329 589.968 Q616.227 587.676 619.607 586.889 M617.894 579.505 Q617.894 582.19 619.56 583.695 Q621.25 585.199 624.283 585.199 Q627.292 585.199 628.982 583.695 Q630.695 582.19 630.695 579.505 Q630.695 576.82 628.982 575.315 Q627.292 573.81 624.283 573.81 Q621.25 573.81 619.56 575.315 Q617.894 576.82 617.894 579.505 Z" fill="#000000" fill-rule="nonzero" fill-opacity="1" /><polyline clip-path="url(#clip952)" style="stroke:#009af9; stroke-linecap:round; stroke-linejoin:round; stroke-width:4; stroke-opacity:1; fill:none" points="1058.49,837.765 1061.77,833.541 1055.77,840.552 1053.01,843.598 1055.6,840.205 1060.59,833.885 1070.28,821.997 1071.29,820.669 1078.78,811.618 1081.68,808.161 1078.77,811.777 1073.45,818.16 1066.34,826.551 1084.92,803.961 1093.98,793.588 1082.84,807.504 1077.89,813.548 1084.38,805.643 1073.34,819.327 1067.86,824.872 1086.33,802.865 1099.01,788.725 1134.53,749.823 1146.75,741.073 1143.38,751.169 1134.64,764.076 1120.55,781.465 1140.22,758.693 1093.57,815.135 1069.28,836.493 1052.82,845.888 1097.8,794.234 1068.31,830.863 1104.47,791.907 1096,803.249 1097.48,794.542 1099.6,790.94 1098.06,795.141 1082.36,811.037 1042.61,833.491 1072.83,814.258 1049.99,837.902 1012.16,873.9 1005.53,872.865 1118.85,775.641 1134.61,771.754 1146.67,777.841 1181.92,744.749 1154.32,752.822 1161.34,755.644 1225.57,690.95 1127.61,790.215 1096.86,802.865 1135.77,764.663 1176.11,732.196 1188.4,725.614 1227.79,710.089 1218.91,715.396 1271.91,660.864 1138.18,770.716 1105.31,801.341 1203.6,698.6 1117.37,766.74 1027.74,840.419 1146.65,743.146 1202.36,714.589 1206.38,724.008 1198.99,716.702 1145.83,770.032 1206.67,719.61 1218.12,718.476 1255.23,688.557 1231.88,692.029 1271.41,666.357 1130.81,785.172 1124.6,788.774 1062.62,843.234 1135.24,778.607 1082.82,834.929 1095.86,822.657 1080.11,828.777 1029.61,880.178 1071.89,846.416 1042.74,852.383 939.145,944.559 854.723,1024.17 815.221,1055.7 783.372,1084.77 763.941,1103.72 789.325,1072.68 832.551,1024.64 848.895,1005.94 854.252,1004.49 846.757,1008.98 844.875,1016.12 888.693,970.501 872.969,985.427 946.187,909.739 890.817,978.988 891.852,969.673 940.018,913.335 1008.34,854.657 1031.72,841.581 1103.13,774.537 1074.49,813.262 1019.5,872.444 1025.26,864.334 983.878,908.188 1034.48,844.702 1151.19,736.341 1174.24,735.475 1168.66,734.964 1127,771.363 1268.62,659.144 1296.73,653.392 1307.02,655.351 1269.3,676.394 1279.73,658.769 1314.75,640.417 1278.47,675.235 1299.61,656.612 1235.62,710.446 1247.03,690.87 1191.44,737.992 1157.17,756.67 1124.1,800.466 1063.46,848.707 1069.03,835.11 1073.89,820.7 1044.69,842.029 1098.54,796.38 1129.13,768.321 1118.09,761.345 1095.37,764.042 1094.77,781.832 1086.71,798.257 1047.96,835.88 1030.47,861.695 1089.11,806.975 1058.41,836.867 1009.5,887.207 1079.04,819.109 1133.76,766.334 1051.27,843.058 1054.8,851.253 1137.65,750.871 1174.01,718.02 1134.22,756.253 1214.8,712.951 1240.36,698 1312.33,639.493 1326.32,631.658 1361.94,591.162 1284.9,647.143 1403.93,569.479 1389.65,608.251 1415.34,582.593 1351.8,634.549 1340.07,637.109 1320.43,644.463 1389.39,594.712 1435.74,565.677 1502.63,516.95 1494.63,512.966 1538.24,494.648 1373.34,626.25 1241.7,726.967 1230.9,716.808 1155.87,780.163 1119.19,802.612 1100.31,810.224 1090.36,804.686 1098.53,792.64 1043.53,851.365 1030.89,861.245 1018.14,870.601 936.422,945.585 912.212,959.108 968.138,899.006 1065.18,804.776 1158.31,732.847 1095.94,813.247 1132.39,774.703 1052.68,843.335 1152.7,740.882 1254.72,671.036 1248.99,681.703 1213.01,710.234 1208.02,705.003 1191.59,739.197 1230.54,705.151 1276.88,660.544 1141.86,784.558 1161.92,752.347 1169.73,755.554 1131.07,774.627 1024.55,870.847 1033.96,852.988 1068.7,823.925 1033.74,866.086 1077.34,834.905 1097.85,808.722 1098.54,805.124 1020.11,882.542 1085.3,820.375 1108.9,782.085 1106.02,772.682 1159.36,741.094 1254.46,680.801 1334.2,612.677 1300.73,659.294 1410.45,585.169 1400.63,598.164 1324.37,656.365 1427.28,553.062 1440.45,560.506 1357.04,628.779 1470.33,534.249 1497.42,510.116 1433.04,585.564 1384.64,601.646 1350.37,628.441 1338.93,632.51 1267.96,691.968 1191.34,748.688 1268.32,662.391 1420.92,543.328 1383.57,594.646 1336.96,640.807 1299.97,672.47 1235.62,718.819 1168.67,769.397 1123.94,803.811 1040.37,868.353 1011.36,883.516 1059.18,823.677 1061.81,823.668 1056.51,833.844 1215.76,682.938 1146.48,766.589 1153.32,763.293 1157,761.211 1197.94,709.832 1179.43,730.917 1180.86,732.796 1164.57,733.053 1122.65,764.451 1149.8,739.781 1127.57,774.227 1141.3,769.594 1209.35,712.008 1204,717.082 1233.63,726.168 1223.27,723.024 1256.22,678.66 1298.39,652.935 1276.66,662.933 1166.96,736.983 1272.41,653.516 1375.42,581.3 1408.33,581.916 1385.4,593.306 1343.84,606.842 1462.87,538.686 1499.95,516.83 1564.21,493.665 1501.54,544.653 1476.57,535.614 1487.75,535.59 1524.08,506.753 1555.93,490.936 1440.79,580.514 1391.13,622.246 1346.54,635.387 1333.03,637.964 1372.77,599.467 1382.84,609.837 1330.32,653.007 1276.84,688.222 1273.21,678.317 1218.78,716.688 1342.19,608.889 1272.78,685.4 1334.46,625.924 1267.16,680.132 1249.84,696.174 1299.35,647.845 1319.55,651.675 1202.5,737.743 1184.53,749.546 1142.42,778.628 1094.35,818.697 1233.25,675.447 1419.27,536.421 1472.17,523.865 1516.7,504.929 1418.18,591.014 1426.67,581.407 1332.42,645.677 1315.54,650.16 1333.82,624.288 1360.99,588.785 1465.77,528.406 1319.37,665.542 1337.91,632.379 1276.66,684.204 1352.39,623.34 1317.36,656.278 1315.66,656.177 1342.71,609.193 1333.49,633.021 1281.85,678.021 1268.24,682.795 1259,700.041 1195.65,760.679 1151.38,795.578 1143.38,776.33 1182.82,726.034 1208.8,720.127 1218.03,709.28 1227.73,701.074 1230.62,697.463 1188.75,735.486 1240.5,709.754 1339.68,613.856 1227.28,695.795 1261.13,677.303 1326.1,618.656 1284.91,672.115 1258.77,692.873 1228.58,704.535 1256.06,680.029 1182.09,735.64 1201.3,723.129 1207.91,712.453 1276.2,658.698 1246.86,694.41 1255.52,690.164 1302.61,653.261 1311.33,630.752 1389.79,586.077 1428.09,578.441 1457.22,544.33 1336.73,641.934 1271.5,674.477 1220.09,711.654 1280.03,653.397 1318.36,650.104 1192.79,759.233 1147.08,786.249 1084.55,838.109 1100.29,803.803 1085.23,810.66 1078.44,818.184 1049.98,843.377 1083.05,802.78 1035.29,861.682 1057.3,835.411 1114.89,779.805 1070.2,825.866 1068.32,828.657 1195.5,716.988 1312.76,631.249 1226.87,715.456 1207.52,730.558 1246.51,697.533 1379.71,600.096 1437.71,558.52 1420.04,565.638 1404.34,586.129 1497.45,525.11 1487.3,536.592 1458.16,558.173 1428.39,580.056 1337.38,643.758 1329.66,646.709 1247.99,715.416 1249.36,694.449 1175.2,756.411 1128.17,794.522 1188.56,716.996 1189.04,734.367 1096.51,809.591 1081.85,820.161 1097.79,797.898 1136.39,770.38 1019.95,869.721 1026.15,854.227 993.796,882.382 964.42,903.078 985.854,879.763 911.935,972.529 898.548,962.139 943.011,915.992 962.485,910.404 951.965,922.551 932.431,934.323 1012.22,844.318 1083.23,790.686 1035.42,846.83 1046.47,838.19 1063.29,810.707 1109.77,768.702 1174.75,716.267 1238.34,680.027 1269.38,669.1 1313.1,629.159 1384.53,593.795 1456.14,544.514 1625.98,432.39 1576.77,489.936 1535.03,523.161 1596.05,470.329 1542.5,518.02 1471.16,569.178 1396.08,624.923 1358.92,645.668 1282.02,698.59 1299.71,665.451 1274.12,680.199 1293.67,656.932 1250.07,688.584 1170.29,761.979 1208.43,716.594 1250,686.111 1291.65,644.603 1321.27,639.109 1340.56,622.293 1239.26,692.326 1239.47,696.179 1221.65,717.2 1333.92,612.782 1441.89,541.73 1459.02,544.58 1416.25,592.635 1471.9,547.909 1529.97,498.472 1474.82,560.305 1498.21,544.749 1500.06,527.448 1499.31,538.143 1411.88,600.823 1465.83,550 1383.87,627.327 1458.56,541.527 1360.31,626.302 1275.72,691.445 1275.27,678.857 1282.45,664.224 1294.98,660.39 1346.68,617.386 1358.23,609.53 1367.58,596.744 1420.67,563.728 1531.5,497.223 1621.47,426.986 1560.17,488.711 1530.62,510.945 1393.97,610.359 1399.48,595.48 1453.33,542.909 1315.18,664.057 1261.77,695.561 1185.36,751.968 1191.26,739.978 1141.61,781.298 1140.59,775.3 1145.08,764.724 1232.35,680.698 1369.36,567.52 1475.24,521.764 1563.39,470.567 1447.51,571.979 1341.45,648.087 1316.54,656.272 1256.8,701.692 1209.59,738.16 1201.62,726.072 1266.85,665.021 1298.21,640.804 1363.52,602.761 1349,613.486 1297.84,661.768 1296.3,661.234 1181.19,736.085 1198.58,719.378 1211.04,701.6 1323.8,601.858 1371.87,585.422 1427.46,552.834 1464.77,531.031 1377.35,611.753 1431.56,568.251 1535.48,489.841 1540.88,492.612 1429.53,587.647 1418.37,587.851 1438.12,563.081 1412.04,592.412 1480.23,534.906 1432.83,563.929 1521.49,499.396 1529.8,511.951 1538.2,497.169 1492.06,537.125 1528.52,508.788 1508.36,533.533 1369.23,634.85 1380.08,610.063 1385.94,597.449 1377.49,600.148 1368.75,612.057 1331.28,635.137 1366.44,599.72 1372.63,602.065 1425.94,565.167 1365.22,615.049 1285.78,673.062 1189.92,748.106 1085.88,830.644 1072.03,833.522 1056.94,841.054 1074.86,818.335 1110.08,780.301 1154.84,753.331 1033.89,863.014 997.433,887.593 990.352,890.323 1057.05,820.164 1073.84,810.519 1008.2,878.624 1055.02,830.965 1101.36,794.309 1128.27,774.906 1141.46,781.381 1145.1,765.932 1150.48,778.86 1195.14,744.183 1219.66,694.473 1236,702.02 1351.52,605.016 1348.19,609.511 1356.92,622.602 1271.8,688.32 1236.98,735.608 1169.04,777.195 1161.89,764.084 1115.01,800.973 1048.01,864.481 1036,861.371 1040.36,844.312 1077.88,795.958 1198.84,705.91 1204.24,717.296 1155.22,768.352 1208.77,717.091 1194.12,742.35 1304.02,636.09 1417.16,561.549 1478.29,523.277 1458.13,538.491 1369.77,623.478 1460.51,552.888 1428.56,606.214 1324.6,669.435 1354.23,624.645 1379.84,596.42 1342.62,632.813 1292.56,680.49 1331.7,622.679 1218.1,722.806 1249.55,677.25 1248.99,675.028 1293.22,639.558 1333.58,622.712 1321.7,640.535 1277.28,676.443 1276.17,664.708 1402.11,562.279 1322.07,639.218 1269.34,688.91 1268.77,684.204 1275.83,683.052 1281.47,710.96 1256.45,704.658 1147.35,795.075 1134.56,783.799 1096.6,814.548 1091.66,812.584 1095.54,803.859 1037.64,845.505 1049.29,835.997 1143.14,738.356 1170.89,728.866 1162.54,746.861 1095.22,813.865 1133.56,768.842 1181.87,734.12 1245.83,667.698 1316.08,617.251 1273.63,666.933 1256.39,681.92 1415.68,544.745 1516.99,479.119 1522.32,495.554 1517.77,515.837 1564.27,480.892 1599.95,459.261 1620.74,440.301 1578.64,491.088 1610.16,462.21 1621.38,456.434 1634.08,448.18 1640.89,439.828 1506.23,546.324 1501.12,549.474 1533.59,514.843 1436.53,591.81 1398.88,609.358 1388.68,601.416 1324,649.38 1384.26,581.082 1322.27,642.813 1263.32,689.43 1325.83,631.334 1401.92,568.742 1385.13,592.43 1346.65,621.351 1407.98,571.566 1412.21,581.382 1373.54,607.342 1367.17,614.083 1358.25,622.144 1369.18,610.636 1193.8,744.174 1172.83,748.806 1158.11,753.452 1148.45,766.531 1102.85,798.648 1107.11,794.188 1137.19,773.906 1126.17,787.396 1083.82,821.52 1038.83,860.449 1020.32,872.541 1034.03,847.406 1071.07,815.821 1116.4,781.809 1094.49,806.458 1079.48,821.971 1108.67,810.843 1076.81,835.333 1063.25,844.062 1054.21,849.18 1083.21,831.725 1039.78,846.2 1066.06,820.588 1063.32,837.392 1116.27,781.407 1105.27,797.061 1209.21,694.059 1200.02,715.158 1183.56,733.825 1206.35,704.56 1265.47,695.418 1252.17,699.814 1247.65,707.846 1209.04,723.8 1212.21,718.152 1269.76,659.983 1389.3,560.184 1378.34,587.097 1506.14,479.314 1614.83,417.317 1592.65,460.47 1642.57,431.222 1545,517.687 1588.3,475.964 1570.5,492.979 1474.32,567.377 1421.71,601.383 1391.64,615.401 1315.39,670.487 1323.57,650.327 1283.94,684.885 1253.52,708.56 1288.08,662.134 1304.54,655.663 1223.76,717.144 1227.78,700.17 1203.49,730.359 1115.02,809.8 1080.74,835.106 1107.29,798.037 1075.22,820.409 1036.07,860.14 1030.5,851.092 967.548,916.698 943.135,942.328 934.73,943.764 909.125,968.035 963.33,910.133 974.009,907.281 1032.67,842.139 1110.76,780.531 1140.89,748.625 1188.33,711.521 1164.76,752.327 1143.44,775.281 1184.38,733.495 1086.61,823.286 1037.1,867.233 1009.45,882.867 1017.81,858.26 1042.94,839.599 1133.24,756.268 1135.38,769.665 1232.06,675.58 1272.92,668.609 1306.07,656.114 1153.77,782.185 1115.05,803.608 1091.68,816.746 1074.11,827.141 1045.58,849.463 1047.77,847.363 1092.53,811.578 1123.13,775.696 1110.62,787.653 1197.72,733.611 1280.59,663.823 1231.78,717.99 1166.92,761.244 1190.45,735.88 1153.88,771.115 1078.29,828.921 1075.8,823.006 1111.92,783.037 1125.37,772.149 1064.57,826.183 1013.72,869.199 974.602,897.196 944.245,939.245 899.525,966.524 907.577,954.101 868.127,995.278 911.52,944.279 946.09,908.586 1026.32,831.796 1043.85,824.848 1016.34,867.673 1013.82,863.753 994.012,887.54 1024.97,864.826 1082.72,814.941 1029.46,865.286 1067.53,818.504 1058.43,831.162 1104.36,783.965 1105.72,781.296 1130.78,784.145 1149.92,770.203 1074.9,827.256 1092.31,801.493 1133.46,773.571 1249.58,657.042 1294.88,653.809 1292.56,651.844 1371.14,596.713 1472.1,522.431 1400.58,600.337 1310.85,661.949 1235.37,728.972 1177.78,766.493 1214.81,714.999 1187.59,744.094 1157.15,766.856 1135.06,783.918 1172.03,738.347 1192.31,725.092 1180.84,737.448 1147.91,759.733 1103.57,806.647 1143.6,752.881 1179.46,737.796 1166.75,756.948 1225.67,707.797 1169.77,765.462 1227.62,706.974 1102.86,816.325 1068.78,838.345 1036.72,862.069 1057.25,829.592 1043.02,850.213 1093.38,796.219 1029.37,855.742 1005.57,870.373 1043.77,824.122 1147.39,740.8 1112.6,776.84 1097.11,798.969 1116.88,775.084 1053.66,835.175 1036.52,860.419 1078.44,804.321 971.206,888.299 1097.26,770.334 1044.4,830.41 1132.34,745.834 1103.52,794.842 1113.96,771.291 1064.34,818.339 1075.02,812.77 1083.04,792.13 1048.98,828.483 1020.93,871.599 979.946,899.242 1039.71,841.944 921.099,942.93 968.966,896.703 924.748,940.644 957.417,906.215 970.672,894.372 876.539,989.594 867.978,1003.49 914.582,947.13 986.174,872.714 995.144,881.592 981.937,898.76 915.456,958.602 915.191,958.569 988.872,869.806 1011.72,865.123 1060.71,814.338 1070.07,822.534 1031.85,858.937 1072.27,811.166 1139.89,749.453 1259.44,666.77 1306.06,641.201 1452.56,528.415 1469.61,533.405 1381.22,610.891 1346.68,634.357 1290.79,676.06 1262.8,688.525 1241.75,706.097 1313.6,630.331 1358.92,591.293 1310.43,638.954 1198.66,736.515 1113.48,805.184 1118.08,785.77 1139.73,765.492 1258.85,679.925 1245.49,693.556 1219.17,722.735 1208.13,713.44 1068.85,851.15 1077.94,828.358 1057.76,841.752 1005.38,892.095 983.463,904.967 956.78,916.835 984.091,891.338 942.839,930.982 927.731,944.518 957.905,901.691 1042.9,821.94 1084.62,792.553 1115.85,781.795 1063.77,831.29 1067.73,826.476 1027.47,857.285 1021.74,866.67 1071.58,811.064 1158.22,741.382 1214.64,698.824 1174.91,745.325 1172.91,755.58 1111.76,798.268 1067.23,820.051 1100.14,781.829 1034.38,850.544 996.439,880.655 1104.02,781.496 1168.83,728.247 1219.46,689.717 1294.44,643.923 1358.8,600.381 1460.35,524.325 1429.19,593.822 1303.54,676.235 1193.73,757.076 1185.95,741.88 1245.39,677.792 1243.53,669.406 1268.96,670.116 1350.34,616.159 1225.83,736.203 1224.43,717.346 1147.29,775.54 1150.91,762.067 1219.11,699.603 1242.1,682.617 1248.28,684.63 1196.8,710.524 1243.37,676.726 1277.22,653.726 1284.41,661.848 1204.66,733.77 1159.31,764.847 1092.64,802.811 1040.96,855.021 1089.4,797.719 1182.25,714.095 1260.77,668.881 1262.33,667.767 1248.42,682.676 1220,722.841 1240.13,704.562 1200.21,722.989 1213.4,712.755 1259.19,674.132 1273.66,669.59 1317.72,634.107 1243.68,701.754 1186.08,745.235 1112.01,804.036 1102.88,799.646 1077.3,822.744 1063.53,837.772 1064.58,824.863 1064.07,831.527 1061.4,823.953 1116.12,783.455 1159.23,749.679 1042.31,854.467 974.483,910.339 1007.03,872 993.137,900.82 1078.12,812.229 1065.19,822.241 1001,884.296 1097.66,805.978 1159.24,744.918 1120.08,788.014 1064.48,816.496 1053.5,835.882 981.823,905.596 1027.65,857.539 1003.31,869.044 1064.05,803.722 1174.58,706.446 1165.96,744.18 1178.42,733.09 1294.7,628.196 1325.93,617.231 1346.23,616.639 1343.73,623.238 1427.97,557.216 1363.37,612.131 1289.34,661.049 1285.15,665.143 1257.78,697.917 1194.38,739.317 1247.72,683.801 1209.63,733.664 1111.47,816.1 1108.59,802.507 1068.24,838.721 1010.74,883.807 1042.06,840.731 1095.75,788.18 1118.15,773.081 1110.79,784.757 1153.2,756.2 1154.5,769.663 1134.95,783.617 1205.24,715.496 1194,743.359 1275.74,654.751 1321.19,609.506 1260.33,682.009 1215.23,714.079 1220.28,704.948 1261.53,678.181 1274.16,666.7 1168.13,743.329 1247.31,665.447 1265.65,657.842 1149.91,768.607 1119.05,789.738 1084.79,819.394 1127.84,772.501 1076.62,819.502 1141.73,750.328 1110.51,780.944 1065.39,830.062 1076.97,833.79 1145.64,754.252 1128.87,784.984 1019.77,881.975 1001.83,886.276 932.197,961.393 938.451,935.834 968.148,901.377 1012.9,854.334 1038.5,838.303 978.232,899.723 1044.8,830.808 1034.56,832.159 1064.04,808.515 1062.54,814.867 970.616,898.945 1009.52,864.57 1137.52,753.005 1196.53,708.525 1153.04,759.602 1202.23,725.349 1116.98,796.418 1109.47,796.588 1098.1,801.098 1151.32,778.973 1129.66,787.707 1151.72,763.133 1200.52,716.698 1328.24,630.997 1318.29,658.129 1189.95,751.85 1104.27,810.223 1078.2,827.046 1048.6,847.907 1086.89,805.065 990.612,897.662 980.026,899.251 1021.4,849.542 982.491,888.447 926.741,954.318 880.596,1002.17 970.886,890.304 976.957,895.499 975.898,897.631 1021.81,863.742 1029.55,866.728 1007.68,883.106 970.806,914.381 1004.84,865.799 1060.13,814.937 1053.97,824.806 1142.43,749.006 1155.05,744.767 1203.91,719.392 1150.73,763.518 1168.31,761.652 1239.73,696.463 1185.51,747.559 1226.79,696.754 1135.43,755.391 1142.68,765.113 1140.75,766.845 1232.8,674.604 1233.31,696.912 1218.38,710.73 1159.9,759.364 1205.68,708.311 1262.26,662.318 1193.3,732.86 1140.02,780.184 1170.75,744.066 1136.35,783.128 1202.87,709.889 1263.67,669.204 1269.44,665.388 1327.98,616.722 1233.61,718.211 1208.47,729.909 1240.61,693.175 1190.87,740.235 1175.79,745.76 1220.87,693.909 1224.71,696.212 1264.36,663.436 1241.57,695.414 1292.46,650.949 1281.29,670.477 1265.6,679.6 1262.37,688.906 1309.98,668.761 1339.06,628.177 1305.6,659.015 1334.59,631.775 1302.25,667.124 1354.77,648.73 1241.82,736.487 1323.46,641.038 1392.37,586.853 1275.29,694.06 1294.27,653.621 1276.22,670.29 1188.43,750.181 1264.77,690.289 1278.6,710.312 1211.64,756.628 1200.95,752.705 1179.77,741.808 1148.52,770.275 1121.49,782.634 1067.96,834.466 992.058,904.862 980.724,907.322 955.927,926.002 950.077,927.229 913.73,960.668 893.24,979.503 825.405,1046.92 831.781,1031.49 852.292,1002.14 861.692,996.456 864.02,996.334 868.492,997.019 836.086,1033.5 842.825,1022.94 839.592,1024.51 929.176,922.107 975.387,880.606 971.532,898.032 921.967,951.585 911.728,955.505 865.056,1009.09 865.337,1001.65 917.645,940.712 896.524,969.244 944.382,917.821 981.108,888.017 1019.96,856.452 1051.23,829.054 1042.85,838.912 1110.09,770.842 1186.89,715.981 1204.42,707.477 1208.11,711.305 1175.39,743.25 1161.19,749.829 1166.07,760.97 1121.8,804.051 1069.83,842.497 1046.21,852.984 1164.06,726.534 1313.11,613.529 1324.25,614.887 1366.74,589.28 1362.57,605.037 1350.42,624.588 1324.35,641.926 1182.02,765.159 1309.05,640.373 1421.38,561.21 1407.77,592.385 1385.56,583.999 1450.75,549.563 1634.03,432.653 1636.09,452.437 1760.65,353.595 1599.3,474.415 1592.25,480.913 1584.23,481.256 1527.25,524.09 1432.35,596.762 1373.09,631.867 1274.75,708.813 1296.07,661.931 1293.14,659.286 1310.5,634.87 1292.8,649.257 1358.51,597.239 1348.69,602.391 1294.69,663.852 1446.73,527.158 1528.47,503.785 1556.49,506.1 1435.91,595.227 1410.88,606.357 1412.69,590.495 1493.08,523.977 1489.47,536.222 1409.59,604.951 1303.46,677.916 1250.27,712.957 1215.99,732.531 1228.39,704.34 1194.29,730.431 1179.79,738.383 1202.58,731.068 1248.89,687.922 1291.95,668.364 1267.06,687.676 1195.5,741.017 1214.06,716.726 1179.41,746.243 1123.11,787.372 1144.68,768.498 1166.84,758.103 1213.34,707.555 1259.4,673.391 1241.58,696.994 1361.41,588.514 1500.86,483.958 1491.03,518.754 1469.31,548.349 1508,526.492 1493.26,530.287 1505.59,511.811 1422.18,592.521 1340.87,655.26 1359.67,625.929 1255.51,710.634 1244.59,704.62 1226.02,709.491 1218.68,708.876 1227.22,692.694 1193.18,735.515 1242.7,700.466 1195.19,730.038 1248.32,686.366 1216.21,720.35 1139.68,771.865 1110.37,801.498 1076.35,824.033 1049.34,849.783 1025.53,871.147 1009.42,876.034 982.24,897.655 990.984,880.045 1013.08,862.589 1007.42,874.073 1023.15,845.612 1056.3,821.225 1025.62,859.738 989.372,893.516 1013.19,861.434 1141.06,744.754 1173.85,727.46 1144.81,759.539 1036.65,857.089 1091.51,798.728 1250.8,655.383 1228.62,686.442 1234.49,693.006 1175.81,760.023 1106.13,810.609 1154.77,758.691 1138.16,774.064 1180.55,732.677 1095.35,822.394 1035.42,861.01 997.353,892.324 955.689,928.143 993.291,882.683 999.839,870.38 998.103,868.415 982.282,891.395 1017.43,851.156 1066.66,805.213 1002.42,884.294 996.655,881.799 912.562,963.308 923.905,951.759 1003.64,867.885 1049.11,826.465 1123.94,767.608 1092.24,806.012 1062.09,840.81 1117.89,778.601 1053.09,839.736 988.404,883.695 1039.65,843.238 1066.66,809.296 1066.53,812.489 1021.7,851.858 1115.21,772.228 1084.94,811.669 1043.39,851.672 1050.9,837.872 994.221,899.085 1056.24,840.011 1062.68,818.779 1035.79,847.9 950.24,921.237 996.923,883.228 964.777,903.193 908.707,963.082 958.089,910.96 991.51,884.505 1006.95,886.308 983.634,909.29 1045.88,837.721 1071.88,816.553 1078.63,817.176 1116.3,787.555 1232.85,670.429 1234.3,695.423 1206.07,731.585 1192.1,755.632 1163.2,763.466 1162.89,751.289 1162.04,754.211 1101.14,796.865 1123.52,772.227 1087,810.499 1084.41,804.562 1064.48,836.427 1059.88,835.369 1092.04,806.243 1085.64,806.907 1076.84,815.163 1095.46,800.493 1260.16,657.474 1292.52,653.022 1286.77,667.124 1241.98,702.806 1241.82,706.449 1253.56,681.755 1321.61,635.075 1332.69,631.492 1363.84,611.868 1275.67,679.138 1243.16,699.168 1247.21,696.983 1305.62,649.524 1155.64,779.458 1211.97,714.057 1109.06,795.79 1069.8,829.255 1052.13,836.526 1053.64,836.101 1122.72,760.553 1118.25,791.504 1158.54,746.912 1148.92,749.07 1172.69,734.934 1194.42,719.421 1165.96,755.925 1288.07,642.107 1162.94,758.772 1111.5,792.373 1159.05,745.95 1133.52,775.747 1166.17,742.854 1147.73,763.237 1141.22,769.483 1292.81,639.353 1343.71,601.349 1284.99,670.966 1121.05,805.025 1197.55,720.322 1118.53,789.351 1188.44,715.599 1211.05,699.065 1190.45,729.784 1241.48,685.715 1197.6,728.147 1314.75,633.725 1364.35,602.18 1248.9,718.002 1213.88,734.133 1188.05,753.532 1183.12,749.16 1175.27,748.333 1166.9,754.982 1170.89,734.144 1218.91,690.559 1207.87,716.019 1300.59,633.901 1511.44,472.825 1596.58,441.251 1613.99,460.132 1486.31,562.942 1375.48,638.152 1485.25,523.866 1489.9,534.824 1500.04,528.807 1543.89,500.098 1517.47,522.21 1465.84,556.616 1542.41,498.201 1424.84,597.559 1375.96,612.162 1311.64,668.371 1290.32,671.136 1300.3,655.111 1319.03,640.498 1245.27,708.171 1242.14,704.437 1252.53,688.814 1188.86,752.666 1221.49,715.7 1295.27,645.217 1322.78,628.876 1156.03,769.18 1124.68,791.5 1132.75,777.109 1137.2,761.819 1086.65,814.591 1122.61,770.385 1143.29,772.876 1159.7,747.29 1236.61,693.2 1264.85,665.286 1184.1,734.371 1248.83,699.279 1201.67,732.73 1148.21,781.388 1252.73,679.412 1196.6,726.502 1172.66,755.817 1089.95,829.801 1040.98,862.852 1018.62,872.671 1074.97,807.182 1041.74,844.722 1023.56,862.107 1016.88,867.47 1015.8,861.041 1019.54,861.29 1008.94,865.654 1018.88,870.988 1030.47,858.276 1121.99,771.534 1159.77,753.51 1308.18,634.717 1252.11,695.714 1236.67,702.515 1165.05,762.473 1227.49,694.457 1126.98,779.719 1206.69,704.625 1246.38,690.661 1216.26,715.758 1263.27,669.102 1168.94,747.543 1165.63,747.637 1109.28,797.19 1068.12,822.628 1027.71,858.177 1084.46,800.051 1073.47,826.011 1119.11,783.765 1144.91,764.376 1227.64,687.32 1162.38,738.584 1041.64,821.559 997.214,869.471 962.856,887.877 1008.34,847.808 1000.42,866.98 1057.54,823.006 1097.74,787.473 1024.53,857.206 1062.42,825.674 1090.23,799.239 1080.51,807.386 1139.01,763.417 1159.18,748.936 1239.39,669.598 1390.5,562.95 1418.36,565.698 1268.35,685.012 1185.76,755.089 1182.09,750.148 1167.03,754.34 1148.36,763.706 1328.74,614.748 1427.65,552.632 1414.91,573.802 1587.9,446.686 1599.08,469.995 1566.3,503.388 1573.33,495.21 1584.54,470.505 1672.12,422.57 1736.11,382.029 1746.79,383.007 1663.51,453.695 1571.76,509.94 1591.52,489.446 1636.38,449.921 1701.47,406.952 1613.51,483.524 1635.89,454.209 1624,465.017 1567.85,502.868 1563.58,500.624 1532.41,523.626 1483.26,557.683 1473.92,555.465 1383.11,625.969 1439.74,556.461 1400.04,591.125 1409.36,580.525 1367.4,620.729 1281.44,691.27 1265.75,693.041 1311.1,644.434 1323.11,627.089 1338.8,614.131 1395.76,566.836 1356.95,604.344 1384.39,585.698 1371.49,607.95 1234.44,712.473 1190.53,741.766 1184.64,738.979 1227.68,697.628 1162.05,761.496 1097.11,812.016 1050.37,851.685 1085.65,802.529 1150.64,754.545 1151.39,755.588 1101.29,812.217 1148.95,747.684 1209,697.72 1214.9,716.061 1231.08,709.016 1346.95,612.118 1450.86,530.737 1406.09,585.636 1364.27,616.357 1244.01,708.323 1233.33,710.539 1180.69,746.259 1195.34,727.303 1142.17,775.422 1184.85,727.593 1176.27,728.935 1135.24,765.125 1065.53,834.569 1182.91,731.746 1197.4,724.287 1251.73,673.093 1266.15,669.816 1217.18,720.722 1159.28,756.318 1085.02,827.724 1127.93,785.035 1171.16,750.41 1131.12,794.528 1064.7,831.469 1011.47,885.359 1035.97,854.149 1028.81,853.128 1027.48,858.713 1046.33,843.359 1076.5,811.742 1098.19,788.41 1186.29,729.504 1151.77,762.198 1134.03,771.098 1202.7,720.011 1124.39,792.602 1187.18,729.129 1310.98,628.195 1365.46,605.945 1382.92,600.45 1407.58,591.969 1456.25,539.399 1451.09,543.818 1464.07,545.454 1443.76,573.211 1348,643.42 1252.61,709.85 1190.49,751.132 1193.24,745.667 1207.54,708.359 1226.9,685.599 1255.36,669.815 1172.95,756.908 1184.4,735.373 1160.22,760.586 1149.65,767.853 1174.61,742.487 1237.46,674.116 1231.16,691.339 1259.95,665.167 1211.32,713.565 1135.02,794.158 1152.48,761.289 1180.07,732.007 1191.42,722.856 1146.47,771.407 1185.71,729.488 1265.2,671.643 1347.27,597.556 1361.04,607.121 1385.19,592.525 1427.49,563.248 1388.8,600.65 1339.22,638.682 1257.82,719.172 1258.87,687.891 1333.07,620.436 1248.89,692.032 1279.75,666.76 1283.32,668.773 1159.05,776.124 1141.06,785.013 1123.58,793.783 1052.93,859.691 1053.06,838.703 1070.91,815.201 1187.78,718.306 1168.22,742.657 1141.47,775.796 1159.08,756.727 1287.21,645.355 1258.32,682.083 1229.68,709.088 1177.49,754.907 1182.52,741.102 1182.14,738.62 1116.74,799.573 1089.75,821.463 1102.16,806.21 981.242,920.234 969.621,921.605 930.241,959.033 903.104,979.205 898.595,979.426 895.159,976.832 878.619,988.887 884.134,979.791 854.692,1014.13 867.505,993.387 896.383,967.292 915.102,958.152 904.365,968.021 919.412,950.875 1016.88,848.689 1092.84,777.553 1147.5,739.152 1233.19,675.034 1264.3,665.752 1307.82,627.963 1272.53,666.962 1292.52,660.399 1146.41,780.459 1198.33,732.28 1209.41,729.251 1102.33,805.537 1164.58,740.466 1243.48,672.177 1262.64,667.198 1294.54,647.901 1304.15,645.397 1199.01,743.726 1135.97,794.057 1101.02,809.69 1157.03,744.087 1241.27,672.033 1258.19,664.644 1276.16,662.063 1242.06,697.631 1248.47,698.824 1201.01,737.155 1297.5,639.475 1178.98,750.755 1144.36,777.837 1149.74,767.561 1117.56,797.77 1061.07,845.891 1016.54,873.967 1067.13,809.328 1080.08,807.714 1027.5,860.957 1049.09,841.477 1085.13,799.634 1069.31,821.025 1149.75,729.421 1200.56,709.505 1113.1,789.014 1147.16,749.578 1185.48,729.858 1193.46,717.477 1228.25,689.548 1239.32,685.387 1226.56,703.303 1233.12,708.11 1270.32,668.327 1247.62,682.874 1196.06,734.169 1192.8,729.98 1208.54,711.958 1247.85,678.974 1177.07,751.687 1161.85,767.891 1195.72,727.174 1185.68,736.08 1029.54,878.601 1024.7,867.706 998.483,889.915 1025.89,852.36 1030.98,849.864 1046,841.955 1038.09,854.912 1007.89,881.688 994.934,889.679 872.796,999.373 918.563,942.781 862.959,1004.84 815.722,1055.22 772.682,1101.52 750.36,1123.26 757.234,1108.69 720.813,1148.91 711.947,1158.96 697.059,1178.01 725.532,1135.96 710.695,1155.51 725.787,1138.48 742.848,1119.49 718.781,1146.6 709.03,1159.02 718.628,1149.41 739.632,1118.9 748.215,1110.71 762.794,1096.67 756.73,1109.84 786.733,1073.76 794.223,1067.39 799.515,1058.05 822.305,1031.95 824.926,1032.06 812.715,1049.5 795.99,1070.51 760.928,1111.52 767.948,1096.41 765.238,1092.71 794.127,1055.7 818.585,1032.02 822.841,1030.75 842.481,1008.75 859.099,999.715 880.562,975.167 909.627,950.964 877.503,986.715 885.177,972.901 917.881,939.538 907.557,945.609 916.97,943.708 886.156,980.154 880.952,979.12 882.878,975.945 919.414,938.015 916.35,948.19 934.794,927.227 953.432,921.751 931.528,948.465 944.778,930.126 923.363,944.007 1047.21,825.053 1085.49,801.207 1148.52,752.19 1156.96,757.28 1179.88,735.926 1295.23,645.646 1265.99,686.546 1275.23,680.599 1302.81,647.868 1229.64,716.406 1223.39,726.381 1265.4,691.649 1242.87,713.68 1220.88,727.386 1373.74,593.577 1156.29,763.558 1119.97,789.647 1127.38,769.447 1080.64,809.844 1119.06,798.923 1131.91,796.238 1146.13,781.192 1281.56,683.491 1375.82,583.166 1501.76,515.897 1509.44,517.784 1590.9,457.85 1543.63,519.275 1449,587.712 1446.25,575.612 1420.12,603.914 1405.74,597.858 1410.82,578.825 1436.12,559.44 1472.89,543.096 1457.99,553.573 1422.16,581.482 1512.38,499.486 1506.4,517.434 1516.6,507.949 1486.73,538.505 1442.63,573.113 1400.36,610.606 1311.03,675.762 1338.85,631.796 1436.7,553.17 1443.77,565.553 1471.86,558.92 1439.97,576.268 1459.88,550.588 1449.36,567.524 1463.54,552.703 1454.61,556.8 1444.09,572.093 1346.73,641.874 1342.75,639.359 1234.11,715.967 1233.29,709.361 1342.15,609.132 1361.03,591.856 1408.67,570.317 1322.57,655.6 1358.53,608.841 1483.5,494.525 1381.64,580.271 1372.15,605.694 1285.97,673.788 1264,681.043 1253.46,690.884 1156.76,774.805 1161.29,763.373 1176.18,748.81 1180.06,749.12 1191.13,739.577 1231.67,733.188 1282.53,670.375 1326.04,626.345 1303.21,649.984 1265.95,671.885 1193.14,738.685 1213.18,694.739 1185.75,727.512 1219.27,701.226 1225.37,715.708 1233.63,710.163 1217.73,712.881 1209.34,725.774 1204.33,725.448 1191.77,736.738 1162.27,755.457 1188.79,734.547 1197.96,726.472 1236.3,690.103 1173.87,750.922 1141.44,780.637 1195.52,720.125 1263.57,667.095 1295.77,642.931 1308.98,648.57 1276.4,677.174 1215.8,726.362 1152.6,777.108 1184.61,727.933 1174.05,738.68 1200.44,718.502 1226.22,695.952 1167.86,753.737 1137.58,780.932 1084.1,831.105 1079.56,820.776 1035.52,853.315 1062.49,831.166 1134.54,756.437 1061.1,839.469 1115.36,780.85 1065.71,824.904 1086.54,806.16 1161.92,757.669 1200.68,728.268 1167.31,749.482 1170.96,733.463 1334.23,603.535 1398.17,571.193 1382.11,591.304 1370.95,596.771 1398.26,585.262 1242.66,707.172 1303.56,654.455 1363.38,606.326 1370.71,614.27 1285.64,659.125 1239.73,700.566 1136.07,780.594 1138.83,779.198 1198.62,717.019 1205.67,712.365 1213.63,700.789 1217.96,703.471 1203.2,719.464 1153.2,778.352 1109.57,808.168 1088.92,815.475 1114.01,786.101 1065.72,833.982 1046.19,847.774 1019.39,864.001 1056.82,827.022 1093.41,788.256 1149.74,731.607 1222.77,687.719 1143.97,760.844 1120.84,784.034 1158.49,749.998 1172.1,727.584 1150.83,748.716 1084.34,813.238 1092.37,804.636 1081.75,821.205 1084.41,803.193 1036.86,851.267 964.476,923.359 1009.11,869.137 1122.34,752.178 1118.48,775.861 1139.25,765.966 1155.08,752.179 1251.72,696.757 1253.5,686.733 1273.64,652.106 1315.57,635.122 1288.23,657.204 1224.8,721.099 1249.74,681.344 1221.72,717.126 1276.38,669.596 1255.17,693.988 1236.35,708.037 1262.9,688.584 1178.83,764.693 1207.77,722.987 1233.11,698.082 1209.13,724.627 1116.95,801.806 1116.71,788.34 1129.51,771.501 1206.61,698.749 1217.19,700.806 1205.72,722.685 1200.86,732.559 1252,680.349 1286.68,660.448 1324.63,623.001 1277.15,675.957 1313.56,644.52 1267.25,686.01 1108.74,814.783 1078.63,832.354 1071.35,832.531 1131.23,769.243 1165.98,741.837 1278.98,640.002 1314.95,627.141 1373.61,585.268 1426.23,570.847 1447.8,553.826 1502.57,515.279 1432.35,576.144 1316.31,669.228 1312.27,653.354 1359.37,607.84 1391.13,589.421 1317.19,649.62 1297.31,660.071 1315.06,654.285 1252.33,712.352 1247.8,711.332 1225.93,725.873 1168.18,763.883 1183.11,735.151 1100.14,800.576 1075.97,816.907 955.592,925.885 921.264,954.139 1007,866.63 1031.94,840.499 1002.35,869.664 1033.79,845.236 1085.54,804.524 1045.21,832.875 1029.61,860.74 1009.95,868.163 1039.83,838.333 1020.9,870.97 1040.13,835.731 1027.56,843.303 992.01,883.35 972.781,910.497 943.405,939.742 1066.67,829.53 1120.12,781.71 1134.01,766.835 1183.79,728.274 1344.82,606.837 1378.49,587.706 1353.63,624.777 1235.68,715.66 1238.05,690.561 1165.23,758.047 1218.84,713.725 1184.16,758.782 1089.67,837.115 1057.82,846.504 1024.83,871.947 1067.39,813.882 1015.11,865.199 1046.83,832.198 1018.41,867.422 1043.48,839.63 984.793,892.285 1017.57,863.355 969.151,896.977 959.959,912.233 1046.75,832.819 1105.33,779.576 1105.61,776.803 1200.83,707.334 1224.12,692.261 1162.87,747.577 1117.08,799.747 1107.35,801.816 1080.89,818.839 1078.9,809.016 1082.29,808.72 1037.22,845.716 960.127,906.015 943.408,920.966 905.834,955.48 917.302,946.101 966.806,912.511 953.168,929.432 928.148,952.339 1005.37,870.041 980.568,911.817 944.713,929.169 993.584,877.541 1091.72,778.501 1049.84,831.261 1104.5,778.388 1054.3,839.468 990.951,904.006 983.452,894.869 1039.79,839.822 1051.52,825.269 1089.16,794.642 1065.37,825.767 1155.26,743.666 1193.6,718.308 1255.91,664.226 1290.89,670.031 1298.38,664.45 1178.65,747.601 1181.82,737.764 1246.55,689.438 1265.65,673.16 1232.88,702.39 1175.27,758.088 1102.74,818.687 1122.32,797.087 1137.11,775.954 1106.64,808.342 1141.51,774.192 1122.36,780.235 1093.16,816.558 1101.25,791.88 1035.68,859.239 1014.32,868.954 1043.47,834.264 1010.1,867.853 1036.2,845.057 1042.06,847.579 1050.12,823.192 1133.01,765.353 1104.47,800.084 1115.74,786.874 1042.06,871.849 1077.34,813.178 1200.45,705.789 1156.34,760.973 1181.05,730.201 1245.59,688.953 1135.86,792.39 1209.56,712.617 1156.84,760.534 1214.46,706.686 1133.81,778.778 1067.13,851.003 1101.37,814.14 1146.05,780.684 1129.29,777.279 1211.29,717.712 1147.51,778.565 1142.12,792.142 1147.57,750.223 1110.01,795.86 1132.4,768.738 1121.01,782.759 1081.9,820.108 1156.29,743.367 1268.2,671.666 1337.55,622.528 1284.62,669.246 1283.76,664.419 1241.34,701.098 1247.75,700.151 1176.71,752.718 1150.56,761.316 1115.71,791.987 1140.66,777.222 1092.75,814.639 1136.35,783.595 1185.26,747.683 1190.28,740.595 1102.79,807.69 1058.86,834.114 1037.63,849.779 973.294,905.24 987.188,899.568 1027.57,849.265 1114.34,775.073 1193.83,725.726 1361.5,602.329 1297.04,663.839 1352.31,610.138 1360.98,633.269 1419.53,568.048 1357.97,618.969 1339.4,638.644 1297.5,666.822 1253.57,704.341 1258.18,681.157 1200.8,727.301 1198.83,730.648 1215.91,718.549 1171.19,759.999 1237.25,712.937 1174.77,758.909 1175.93,742.697 1133.7,778.381 1101.03,810.758 986.456,905.966 998.719,885.278 968.284,910.389 974.516,901.583 1043.18,835.32 1132.92,756.175 1079.35,819.075 1151.29,755.186 1177.33,719.843 1234.39,688.023 1279.67,650.002 1294.15,653.616 1319.45,634.326 1299.06,668.246 1264.66,691.746 1289.71,669.593 1243.76,691.617 1305.05,644.222 1285.42,659.856 1315.9,628.437 1215.87,720.07 1152.45,781.102 1157.61,750.483 1132.89,760.891 1136.4,755.914 1093.06,787.031 1081.59,798.142 1039.6,845.742 985.018,896.975 1026.35,846.992 1050.44,834.08 1129.25,756.384 1096.66,791.644 1120.4,771.04 1221.23,698.333 1239.87,689.798 1342.15,624.869 1373.33,597.055 1298.69,662.138 1212.16,715.992 1178.29,747.8 1265.23,668.249 1260.06,688.526 1215.61,713.436 1273.93,659.984 1199.33,743.239 1242.73,701.635 1439.36,558.214 1466.45,535.852 1365.93,637.869 1378.43,610.454 1364.13,618.591 1329.22,643.283 1242.87,711.183 1184.46,756.055 1132.36,790.137 1127.13,780.651 1121.94,786.642 1165.33,743.754 1127.19,779.092 1154.29,768.502 1236.76,693.478 1214.49,717.025 1182.91,748.833 1245.81,711.433 1263.09,677.426 1356.52,603.59 1325.09,641.897 1291.77,676.931 1139.09,800.32 1128.44,794.629 1137.38,775.066 1091.03,814.293 1195.14,717.001 1161.89,749.072 1101.4,803.333 1124.93,782.608 1127.56,775.476 1139.43,781.609 1150.32,758.132 1140.17,771.444 1117.44,792.869 1006.13,878.066 1039.08,839.872 1010.6,867.864 997.401,872.195 948.753,924.197 979.471,894.82 986.903,894.234 930.689,941.089 961.168,902.57 1023.81,841.275 978.464,894.234 1041.34,830.321 1099.48,794.336 1153.99,743.371 1274.55,645.257 1225.88,712.357 1167.62,758.161 1176.28,739.722 1238.68,688.194 1211.96,726.232 1133.31,802.976 1048.79,861.612 1006.17,898.046 997.06,894.138 1024.06,852.635 1012.93,869.836 1013.97,872.545 1022.61,862.196 1128.52,761.559 1122.4,778.799 1013.99,874.739 985.613,895.475 990.321,882.237 1004.4,875.904 969.189,902.13 1070.98,798.664 1030.21,849.351 1048.56,830.014 1098.35,784.132 1081.36,803.365 1158.48,735.223 1161.82,752.687 1135.18,780.925 1101.14,799.155 1072.03,817.836 1084.73,814.948 1121.19,776.521 1043.85,833.763 1114.44,772.074 1092.38,807.408 1082.71,806.921 1184.06,719.641 1261.4,655.59 1311.33,627.127 1307.74,633.12 1445.74,548.149 1438.65,577.352 1329.77,658.8 1415.39,569.846 1448.65,552.444 1507.07,513.73 1353.35,632.612 1274.84,689.883 1145.15,797.568 1103.95,823.187 1131.12,780.098 1122.64,784.463 1121.26,770.169 1075.75,821.839 1084.81,798.851 1102.12,788.015 1125.8,772.914 1098.27,808.766 1043.12,844.328 1030.29,860.254 1054.93,829.076 1070.47,818.487 1025.05,859.837 941.179,934.622 927.98,946.519 986.103,887.855 1003.42,869.569 984.258,888.683 961.897,918.893 904.732,967.247 896.076,968.416 923.467,935.519 1016.21,850.28 1060.75,813.109 1103.79,780.573 1072.08,824.365 1080.26,816.914 1087.47,806.257 1094.24,806.177 1059.85,825.694 1113.25,779.085 1093.78,800.056 1235.87,686.104 1258.68,670.175 1258.49,678.7 1204.53,715.779 1216.77,718.118 1309.86,647.117 1280.79,671.705 1327.95,634.224 1308.05,638.589 1237.91,717.09 1151.37,783.015 1129.92,781.634 1104.33,801.262 1096.08,810.956 1057.26,846.788 1047.09,855.534 1013.53,873.338 989.342,885.786 970.41,909.081 1000.4,872.6 1052.98,840.529 1015.62,867.922 992.789,885.873 1054.1,818.922 1070.37,810.42 1060.13,820.115 933.929,942.243 949.287,924.408 938.522,928.5 909.023,957.116 906.312,951.666 957.216,911.432 971.576,898.894 990.5,884.053 945.295,925.874 935.876,939.11 932.137,936.166 1041.82,821.589 1048.5,826.684 1051.58,830.329 1045.71,855.09 1042.84,853.373 1043.71,846.805 1049.88,840.02 1044.61,851.578 1085.04,810.788 1033.86,850.117 1087.36,820.642 1168.35,751.23 1266.19,670.095 1222.92,683.826 1221.39,691.462 1290.62,643.124 1244.67,675.639 1315.31,658.739 1258.63,702.419 1327.17,640.048 1361.25,629.086 1391.53,594.023 1302.91,660.642 1317.08,647.073 1290,673.787 1384.11,589.309 1365.31,610.207 1253.88,680.794 1136.89,789.455 1155.25,763.874 1129.66,777.744 1185.58,721.622 1116.28,772.478 1217.8,679.576 1352.38,583.58 1293.24,654.962 1381.27,590.175 1550.37,484.055 1617,431.661 1536.8,517.375 1544.9,500.271 1638.71,435.302 1623.98,468.985 1676.63,418.996 1546.64,533.164 1492.75,558.718 1390.09,630.075 1406.32,595.342 1383.14,617.349 1281.92,698.383 1232.78,724.508 1191.85,755.909 1206.58,722.019 1185.3,739.166 1223.05,700.564 1237.88,693.004 1256.49,683.811 1253.79,684.749 1336.29,608.08 1390.43,574.693 1446.61,545.852 1510.98,512.108 1574.57,482.691 1437.34,583.238 1541.11,495.32 1498.47,533.566 1442.04,580.3 1546.63,491.567 1548.5,494.078 1393.73,621.146 1432.47,566.468 1402.99,590.976 1446.79,549.154 1395.12,602.916 1321.98,653.922 1286.05,674.343 1240.69,709.509 1326.69,629.974 1278.76,681.735 1256.38,698.897 1152,778.278 1086.58,826.912 1101.39,794.228 1020.79,862.601 1038.31,840.824 1088.08,790.863 1061.44,820.395 997.012,882.016 996.071,888.673 1018.28,853.054 1171.53,705.055 1284.08,621.685 1304.69,632.066 1275.95,666.093 1206.29,732.645 1236.2,698.888 1160.21,760.779 1110.49,803.075 1131.77,781.283 1181.41,728.722 1160.61,756.734 1155.56,763.333 1105.42,806.094 1076.55,817.811 1084.17,817.726 1147.85,752.486 1137.22,769.665 1168.11,753.716 1164.24,748.126 1171.26,742.967 1313.47,629.941 1491.71,495.429 1589.25,451.088 1505.17,524.121 1406.51,611.958 1418.77,596.353 1338.39,670.673 1288.79,684.403 1304.97,653.704 1285.55,668.382 1302.45,650.479 1356.82,607.089 1245.08,693.996 1251.56,692.111 1324.69,618.337 1322.9,616.863 1241.32,704.138 1237.62,697.789 1081.56,821.561 1050.84,848.205 1023.46,863.237 1061.83,820.64 1029.75,855.291 1035.56,849.327 1051.35,829.478 1140.43,749.486 1178.7,724.371 1146.04,747.796 1113.95,782.388 1183.53,730.814 1269.29,672.279 1270.43,669.781 1340.72,603.65 1350.18,612.411 1387.42,583.219 1380.66,598.319 1402.33,580.035 1374.82,611.889 1280.32,678.506 1287.42,665.384 1396.22,580.981 1511.77,492.611 1479.88,534.871 1400.56,606.455 1384.45,606.773 1489.28,547.485 1420.4,601.032 1379.8,617.736 1334.5,647.707 1275.96,691.677 1154.5,788.248 1103.33,820.196 1117.38,784.859 1092.5,807.353 1061.6,832.769 1053.25,835.785 1113.01,775.877 1275.8,641.442 1269.41,670.378 1324.95,631.903 1239.49,710.997 1301.8,652.338 1319.94,647.486 1326.13,651.218 1314.37,660.08 1217.66,722.265 1309.38,638.061 1344.71,612.108 1387.28,587.42 1360,617.984 1209.13,731.219 1196.16,734.255 1246.02,672.066 1208.06,723.67 1228.17,713.42 1212.99,717.282 1249.56,685.862 1272.11,659.239 1398.92,565.322 1363.74,608.711 1317.93,650.463 1333.46,626.951 1216.05,720.479 1214.17,716.84 1214.1,708.282 1254.24,687.643 1323.96,626.159 1297.55,654.458 1325.32,648.72 1305.47,654.918 1271.05,668.794 1238.3,701.477 1138.46,784.572 1150.24,759.762 1120.4,790.815 1080.39,824.875 1111.02,790.726 1029.8,863.499 1044.41,836.86 1098.52,795.766 1163.09,741.872 1171.31,741.874 1115.81,791.702 1196.54,717.245 1132.25,772.353 1034.11,846.93 1031.9,854.013 1013.01,869.246 1065.06,818.871 1069.27,814.812 1097.26,797.465 1072.32,820.19 1093.02,791.016 1045.84,824.638 1159.52,733.012 1131.86,778.734 1193,719.922 1209.02,712.442 1364.64,586.216 1431.75,560.056 1375.27,611.104 1485.26,527.383 1401.49,608.219 1352.38,629.94 1248.1,700.985 1238.72,709.964 1075.21,853.802 1073.52,840.649 1121.49,777.385 1152.78,748.071 1182.35,725.458 1179.63,739.01 1167.19,747.219 1175.08,734.741 1195.79,724.928 1288.19,644.283 1335.31,630.606 1357.8,618.769 1388.64,598.902 1362.18,614.625 1286.26,666.305 1376.06,597.76 1308.17,655.544 1339.65,626.22 1306.09,666.64 1388.86,605.279 1380.98,648.865 1391.99,609.961 1364.84,619.736 1361.3,626.444 1434.16,537.918 1382.76,602.365 1312.63,657.838 1310.59,656.952 1226.9,718.553 1233.36,711.735 1269.99,667.012 1223.09,729.585 1155.96,793.57 1128.89,787.717 1164.97,747.392 1135.25,776.137 1193.84,710.819 1123.81,777.874 1116.62,782.287 1116.81,768.648 1113.44,792.352 1122.44,770.846 1126.74,778.568 1199.07,710.323 1245.35,679.747 1280.81,678.684 1288.82,673.974 1268.44,676.445 1229.32,713.728 1177.33,762.869 1181.83,743.959 1121.36,788.627 1095.15,811.386 1091.86,800.878 1055.62,830.163 998.952,878.154 998.397,892.343 989.925,896.502 938.105,946.688 858.074,1022.62 882.533,989.225 934.299,924.243 951.75,914.683 946.717,925.46 897.342,972.583 918.94,951.847 956.814,907.745 967.775,905.229 945.02,933.5 1012.12,868.341 964.213,910.528 1026.45,848.616 1089.54,795.97 1199.95,701.809 1206.83,716.051 1152.24,767.142 1121.76,803.072 1122.39,792.736 1110.14,788.445 1110.67,788.546 1005.63,873.337 950.464,930.554 990.767,872.614 1054.04,823.719 979.785,901.349 999.301,883.341 989.834,888.485 1053.53,816.422 1128.14,758.2 1241.68,665.831 1262.64,663.345 1314.16,634.606 1341.11,623.462 1419.34,561.858 1328.65,647.637 1324.17,649.733 1421.41,566.152 1538.83,483.588 1443.91,549.625 1497.18,523.473 1384.37,603.164 1295.14,675.459 1296.47,658.072 1227.02,723.36 1245.42,697.888 1289.57,665.866 1286.53,661.321 1295.38,660.367 1433.89,570.519 1490.21,530.765 1496.05,518.52 1457.01,551.015 1394.67,613.539 1447.21,567.878 1406.36,584.412 1379.27,608.391 "/>
<path clip-path="url(#clip950)" d="M186.863 198.898 L550.897 198.898 L550.897 95.2176 L186.863 95.2176  Z" fill="#ffffff" fill-rule="evenodd" fill-opacity="1"/>
<polyline clip-path="url(#clip950)" style="stroke:#000000; stroke-linecap:round; stroke-linejoin:round; stroke-width:4; stroke-opacity:1; fill:none" points="186.863,198.898 550.897,198.898 550.897,95.2176 186.863,95.2176 186.863,198.898 "/>
<polyline clip-path="url(#clip950)" style="stroke:#009af9; stroke-linecap:round; stroke-linejoin:round; stroke-width:4; stroke-opacity:1; fill:none" points="211.758,147.058 361.13,147.058 "/>
<path clip-path="url(#clip950)" d="M396.651 128.366 Q393.549 133.69 392.044 138.898 Q390.54 144.106 390.54 149.453 Q390.54 154.801 392.044 160.055 Q393.572 165.287 396.651 170.588 L392.947 170.588 Q389.475 165.148 387.739 159.893 Q386.026 154.639 386.026 149.453 Q386.026 144.291 387.739 139.06 Q389.452 133.828 392.947 128.366 L396.651 128.366 Z" fill="#000000" fill-rule="nonzero" fill-opacity="1" /><path clip-path="url(#clip950)" d="M403.063 138.412 L423.294 138.412 L423.294 142.301 L407.276 160.935 L423.294 160.935 L423.294 164.338 L402.484 164.338 L402.484 160.449 L418.502 141.815 L403.063 141.815 L403.063 138.412 Z" fill="#000000" fill-rule="nonzero" fill-opacity="1" /><path clip-path="url(#clip950)" d="M430.887 158.458 L435.771 158.458 L435.771 162.439 L431.975 169.847 L428.988 169.847 L430.887 162.439 L430.887 158.458 Z" fill="#000000" fill-rule="nonzero" fill-opacity="1" /><path clip-path="url(#clip950)" d="M455.655 166.745 Q453.849 171.375 452.136 172.787 Q450.423 174.199 447.553 174.199 L444.15 174.199 L444.15 170.634 L446.65 170.634 Q448.41 170.634 449.382 169.8 Q450.354 168.967 451.535 165.865 L452.298 163.921 L441.812 138.412 L446.326 138.412 L454.428 158.689 L462.53 138.412 L467.044 138.412 L455.655 166.745 Z" fill="#000000" fill-rule="nonzero" fill-opacity="1" /><path clip-path="url(#clip950)" d="M474.011 158.458 L478.896 158.458 L478.896 162.439 L475.099 169.847 L472.113 169.847 L474.011 162.439 L474.011 158.458 Z" fill="#000000" fill-rule="nonzero" fill-opacity="1" /><path clip-path="url(#clip950)" d="M509.544 138.412 L500.169 151.027 L510.03 164.338 L505.007 164.338 L497.46 154.152 L489.914 164.338 L484.891 164.338 L494.96 150.773 L485.747 138.412 L490.77 138.412 L497.645 147.648 L504.52 138.412 L509.544 138.412 Z" fill="#000000" fill-rule="nonzero" fill-opacity="1" /><path clip-path="url(#clip950)" d="M515.377 128.366 L519.081 128.366 Q522.553 133.828 524.266 139.06 Q526.002 144.291 526.002 149.453 Q526.002 154.639 524.266 159.893 Q522.553 165.148 519.081 170.588 L515.377 170.588 Q518.456 165.287 519.96 160.055 Q521.488 154.801 521.488 149.453 Q521.488 144.106 519.96 138.898 Q518.456 133.69 515.377 128.366 Z" fill="#000000" fill-rule="nonzero" fill-opacity="1" /></svg>
