<?xml version="1.0" encoding="utf-8"?>
<svg xmlns="http://www.w3.org/2000/svg" xmlns:xlink="http://www.w3.org/1999/xlink" width="600" height="400" viewBox="0 0 2400 1600">
<defs>
  <clipPath id="clip600">
    <rect x="0" y="0" width="2400" height="1600"/>
  </clipPath>
</defs>
<path clip-path="url(#clip600)" d="M0 1600 L2400 1600 L2400 0 L0 0  Z" fill="#ffffff" fill-rule="evenodd" fill-opacity="1"/>
<defs>
  <clipPath id="clip601">
    <rect x="480" y="0" width="1681" height="1600"/>
  </clipPath>
</defs>
<path clip-path="url(#clip600)" d="M147.478 1423.18 L2352.76 1423.18 L2352.76 47.2441 L147.478 47.2441  Z" fill="#ffffff" fill-rule="evenodd" fill-opacity="1"/>
<defs>
  <clipPath id="clip602">
    <rect x="147" y="47" width="2206" height="1377"/>
  </clipPath>
</defs>
<polyline clip-path="url(#clip602)" style="stroke:#000000; stroke-linecap:round; stroke-linejoin:round; stroke-width:2; stroke-opacity:0.1; fill:none" points="147.478,1423.18 147.478,47.2441 "/>
<polyline clip-path="url(#clip602)" style="stroke:#000000; stroke-linecap:round; stroke-linejoin:round; stroke-width:2; stroke-opacity:0.1; fill:none" points="588.534,1423.18 588.534,47.2441 "/>
<polyline clip-path="url(#clip602)" style="stroke:#000000; stroke-linecap:round; stroke-linejoin:round; stroke-width:2; stroke-opacity:0.1; fill:none" points="1029.59,1423.18 1029.59,47.2441 "/>
<polyline clip-path="url(#clip602)" style="stroke:#000000; stroke-linecap:round; stroke-linejoin:round; stroke-width:2; stroke-opacity:0.1; fill:none" points="1470.64,1423.18 1470.64,47.2441 "/>
<polyline clip-path="url(#clip602)" style="stroke:#000000; stroke-linecap:round; stroke-linejoin:round; stroke-width:2; stroke-opacity:0.1; fill:none" points="1911.7,1423.18 1911.7,47.2441 "/>
<polyline clip-path="url(#clip602)" style="stroke:#000000; stroke-linecap:round; stroke-linejoin:round; stroke-width:2; stroke-opacity:0.1; fill:none" points="2352.76,1423.18 2352.76,47.2441 "/>
<polyline clip-path="url(#clip602)" style="stroke:#000000; stroke-linecap:round; stroke-linejoin:round; stroke-width:2; stroke-opacity:0.1; fill:none" points="147.478,1193.77 2352.76,1193.77 "/>
<polyline clip-path="url(#clip602)" style="stroke:#000000; stroke-linecap:round; stroke-linejoin:round; stroke-width:2; stroke-opacity:0.1; fill:none" points="147.478,825.992 2352.76,825.992 "/>
<polyline clip-path="url(#clip602)" style="stroke:#000000; stroke-linecap:round; stroke-linejoin:round; stroke-width:2; stroke-opacity:0.1; fill:none" points="147.478,458.21 2352.76,458.21 "/>
<polyline clip-path="url(#clip602)" style="stroke:#000000; stroke-linecap:round; stroke-linejoin:round; stroke-width:2; stroke-opacity:0.1; fill:none" points="147.478,90.4276 2352.76,90.4276 "/>
<polyline clip-path="url(#clip600)" style="stroke:#000000; stroke-linecap:round; stroke-linejoin:round; stroke-width:4; stroke-opacity:1; fill:none" points="147.478,1423.18 2352.76,1423.18 "/>
<polyline clip-path="url(#clip600)" style="stroke:#000000; stroke-linecap:round; stroke-linejoin:round; stroke-width:4; stroke-opacity:1; fill:none" points="147.478,1423.18 147.478,1404.28 "/>
<polyline clip-path="url(#clip600)" style="stroke:#000000; stroke-linecap:round; stroke-linejoin:round; stroke-width:4; stroke-opacity:1; fill:none" points="588.534,1423.18 588.534,1404.28 "/>
<polyline clip-path="url(#clip600)" style="stroke:#000000; stroke-linecap:round; stroke-linejoin:round; stroke-width:4; stroke-opacity:1; fill:none" points="1029.59,1423.18 1029.59,1404.28 "/>
<polyline clip-path="url(#clip600)" style="stroke:#000000; stroke-linecap:round; stroke-linejoin:round; stroke-width:4; stroke-opacity:1; fill:none" points="1470.64,1423.18 1470.64,1404.28 "/>
<polyline clip-path="url(#clip600)" style="stroke:#000000; stroke-linecap:round; stroke-linejoin:round; stroke-width:4; stroke-opacity:1; fill:none" points="1911.7,1423.18 1911.7,1404.28 "/>
<polyline clip-path="url(#clip600)" style="stroke:#000000; stroke-linecap:round; stroke-linejoin:round; stroke-width:4; stroke-opacity:1; fill:none" points="2352.76,1423.18 2352.76,1404.28 "/>
<path clip-path="url(#clip600)" d="M147.478 1454.1 Q143.867 1454.1 142.038 1457.66 Q140.233 1461.2 140.233 1468.33 Q140.233 1475.44 142.038 1479.01 Q143.867 1482.55 147.478 1482.55 Q151.112 1482.55 152.918 1479.01 Q154.746 1475.44 154.746 1468.33 Q154.746 1461.2 152.918 1457.66 Q151.112 1454.1 147.478 1454.1 M147.478 1450.39 Q153.288 1450.39 156.344 1455 Q159.422 1459.58 159.422 1468.33 Q159.422 1477.06 156.344 1481.67 Q153.288 1486.25 147.478 1486.25 Q141.668 1486.25 138.589 1481.67 Q135.534 1477.06 135.534 1468.33 Q135.534 1459.58 138.589 1455 Q141.668 1450.39 147.478 1450.39 Z" fill="#000000" fill-rule="nonzero" fill-opacity="1" /><path clip-path="url(#clip600)" d="M583.186 1481.64 L599.506 1481.64 L599.506 1485.58 L577.561 1485.58 L577.561 1481.64 Q580.223 1478.89 584.807 1474.26 Q589.413 1469.61 590.594 1468.27 Q592.839 1465.74 593.719 1464.01 Q594.621 1462.25 594.621 1460.56 Q594.621 1457.8 592.677 1456.07 Q590.756 1454.33 587.654 1454.33 Q585.455 1454.33 583.001 1455.09 Q580.571 1455.86 577.793 1457.41 L577.793 1452.69 Q580.617 1451.55 583.071 1450.97 Q585.524 1450.39 587.561 1450.39 Q592.932 1450.39 596.126 1453.08 Q599.32 1455.77 599.32 1460.26 Q599.32 1462.39 598.51 1464.31 Q597.723 1466.2 595.617 1468.8 Q595.038 1469.47 591.936 1472.69 Q588.834 1475.88 583.186 1481.64 Z" fill="#000000" fill-rule="nonzero" fill-opacity="1" /><path clip-path="url(#clip600)" d="M1032.6 1455.09 L1020.79 1473.54 L1032.6 1473.54 L1032.6 1455.09 M1031.37 1451.02 L1037.25 1451.02 L1037.25 1473.54 L1042.18 1473.54 L1042.18 1477.43 L1037.25 1477.43 L1037.25 1485.58 L1032.6 1485.58 L1032.6 1477.43 L1017 1477.43 L1017 1472.92 L1031.37 1451.02 Z" fill="#000000" fill-rule="nonzero" fill-opacity="1" /><path clip-path="url(#clip600)" d="M1471.05 1466.44 Q1467.9 1466.44 1466.05 1468.59 Q1464.22 1470.74 1464.22 1474.49 Q1464.22 1478.22 1466.05 1480.39 Q1467.9 1482.55 1471.05 1482.55 Q1474.2 1482.55 1476.03 1480.39 Q1477.88 1478.22 1477.88 1474.49 Q1477.88 1470.74 1476.03 1468.59 Q1474.2 1466.44 1471.05 1466.44 M1480.33 1451.78 L1480.33 1456.04 Q1478.57 1455.21 1476.77 1454.77 Q1474.98 1454.33 1473.23 1454.33 Q1468.6 1454.33 1466.14 1457.45 Q1463.71 1460.58 1463.36 1466.9 Q1464.73 1464.89 1466.79 1463.82 Q1468.85 1462.73 1471.33 1462.73 Q1476.54 1462.73 1479.55 1465.9 Q1482.58 1469.05 1482.58 1474.49 Q1482.58 1479.82 1479.43 1483.03 Q1476.28 1486.25 1471.05 1486.25 Q1465.05 1486.25 1461.88 1481.67 Q1458.71 1477.06 1458.71 1468.33 Q1458.71 1460.14 1462.6 1455.28 Q1466.49 1450.39 1473.04 1450.39 Q1474.8 1450.39 1476.58 1450.74 Q1478.39 1451.09 1480.33 1451.78 Z" fill="#000000" fill-rule="nonzero" fill-opacity="1" /><path clip-path="url(#clip600)" d="M1911.7 1469.17 Q1908.37 1469.17 1906.45 1470.95 Q1904.55 1472.73 1904.55 1475.86 Q1904.55 1478.98 1906.45 1480.77 Q1908.37 1482.55 1911.7 1482.55 Q1915.03 1482.55 1916.95 1480.77 Q1918.88 1478.96 1918.88 1475.86 Q1918.88 1472.73 1916.95 1470.95 Q1915.06 1469.17 1911.7 1469.17 M1907.02 1467.18 Q1904.02 1466.44 1902.33 1464.38 Q1900.66 1462.32 1900.66 1459.35 Q1900.66 1455.21 1903.6 1452.8 Q1906.56 1450.39 1911.7 1450.39 Q1916.86 1450.39 1919.8 1452.8 Q1922.74 1455.21 1922.74 1459.35 Q1922.74 1462.32 1921.05 1464.38 Q1919.39 1466.44 1916.4 1467.18 Q1919.78 1467.96 1921.65 1470.26 Q1923.55 1472.55 1923.55 1475.86 Q1923.55 1480.88 1920.47 1483.57 Q1917.42 1486.25 1911.7 1486.25 Q1905.98 1486.25 1902.9 1483.57 Q1899.85 1480.88 1899.85 1475.86 Q1899.85 1472.55 1901.75 1470.26 Q1903.64 1467.96 1907.02 1467.18 M1905.31 1459.79 Q1905.31 1462.48 1906.98 1463.98 Q1908.67 1465.49 1911.7 1465.49 Q1914.71 1465.49 1916.4 1463.98 Q1918.11 1462.48 1918.11 1459.79 Q1918.11 1457.11 1916.4 1455.6 Q1914.71 1454.1 1911.7 1454.1 Q1908.67 1454.1 1906.98 1455.6 Q1905.31 1457.11 1905.31 1459.79 Z" fill="#000000" fill-rule="nonzero" fill-opacity="1" /><path clip-path="url(#clip600)" d="M2327.44 1481.64 L2335.08 1481.64 L2335.08 1455.28 L2326.77 1456.95 L2326.77 1452.69 L2335.04 1451.02 L2339.71 1451.02 L2339.71 1481.64 L2347.35 1481.64 L2347.35 1485.58 L2327.44 1485.58 L2327.44 1481.64 Z" fill="#000000" fill-rule="nonzero" fill-opacity="1" /><path clip-path="url(#clip600)" d="M2366.8 1454.1 Q2363.18 1454.1 2361.36 1457.66 Q2359.55 1461.2 2359.55 1468.33 Q2359.55 1475.44 2361.36 1479.01 Q2363.18 1482.55 2366.8 1482.55 Q2370.43 1482.55 2372.23 1479.01 Q2374.06 1475.44 2374.06 1468.33 Q2374.06 1461.2 2372.23 1457.66 Q2370.43 1454.1 2366.8 1454.1 M2366.8 1450.39 Q2372.61 1450.39 2375.66 1455 Q2378.74 1459.58 2378.74 1468.33 Q2378.74 1477.06 2375.66 1481.67 Q2372.61 1486.25 2366.8 1486.25 Q2360.99 1486.25 2357.91 1481.67 Q2354.85 1477.06 2354.85 1468.33 Q2354.85 1459.58 2357.91 1455 Q2360.99 1450.39 2366.8 1450.39 Z" fill="#000000" fill-rule="nonzero" fill-opacity="1" /><path clip-path="url(#clip600)" d="M1249.18 1522.27 L1249.18 1532.4 L1261.24 1532.4 L1261.24 1536.95 L1249.18 1536.95 L1249.18 1556.3 Q1249.18 1560.66 1250.36 1561.9 Q1251.57 1563.14 1255.23 1563.14 L1261.24 1563.14 L1261.24 1568.04 L1255.23 1568.04 Q1248.45 1568.04 1245.87 1565.53 Q1243.29 1562.98 1243.29 1556.3 L1243.29 1536.95 L1238.99 1536.95 L1238.99 1532.4 L1243.29 1532.4 L1243.29 1522.27 L1249.18 1522.27 Z" fill="#000000" fill-rule="nonzero" fill-opacity="1" /><polyline clip-path="url(#clip600)" style="stroke:#000000; stroke-linecap:round; stroke-linejoin:round; stroke-width:4; stroke-opacity:1; fill:none" points="147.478,1423.18 147.478,47.2441 "/>
<polyline clip-path="url(#clip600)" style="stroke:#000000; stroke-linecap:round; stroke-linejoin:round; stroke-width:4; stroke-opacity:1; fill:none" points="147.478,1193.77 166.376,1193.77 "/>
<polyline clip-path="url(#clip600)" style="stroke:#000000; stroke-linecap:round; stroke-linejoin:round; stroke-width:4; stroke-opacity:1; fill:none" points="147.478,825.992 166.376,825.992 "/>
<polyline clip-path="url(#clip600)" style="stroke:#000000; stroke-linecap:round; stroke-linejoin:round; stroke-width:4; stroke-opacity:1; fill:none" points="147.478,458.21 166.376,458.21 "/>
<polyline clip-path="url(#clip600)" style="stroke:#000000; stroke-linecap:round; stroke-linejoin:round; stroke-width:4; stroke-opacity:1; fill:none" points="147.478,90.4276 166.376,90.4276 "/>
<path clip-path="url(#clip600)" d="M50.9921 1194.23 L80.6679 1194.23 L80.6679 1198.16 L50.9921 1198.16 L50.9921 1194.23 Z" fill="#000000" fill-rule="nonzero" fill-opacity="1" /><path clip-path="url(#clip600)" d="M91.5706 1207.12 L99.2095 1207.12 L99.2095 1180.75 L90.8993 1182.42 L90.8993 1178.16 L99.1632 1176.49 L103.839 1176.49 L103.839 1207.12 L111.478 1207.12 L111.478 1211.05 L91.5706 1211.05 L91.5706 1207.12 Z" fill="#000000" fill-rule="nonzero" fill-opacity="1" /><path clip-path="url(#clip600)" d="M99.5335 811.791 Q95.9224 811.791 94.0937 815.356 Q92.2882 818.898 92.2882 826.027 Q92.2882 833.134 94.0937 836.698 Q95.9224 840.24 99.5335 840.24 Q103.168 840.24 104.973 836.698 Q106.802 833.134 106.802 826.027 Q106.802 818.898 104.973 815.356 Q103.168 811.791 99.5335 811.791 M99.5335 808.087 Q105.344 808.087 108.399 812.694 Q111.478 817.277 111.478 826.027 Q111.478 834.754 108.399 839.36 Q105.344 843.944 99.5335 843.944 Q93.7234 843.944 90.6447 839.36 Q87.5892 834.754 87.5892 826.027 Q87.5892 817.277 90.6447 812.694 Q93.7234 808.087 99.5335 808.087 Z" fill="#000000" fill-rule="nonzero" fill-opacity="1" /><path clip-path="url(#clip600)" d="M91.5706 471.555 L99.2095 471.555 L99.2095 445.189 L90.8993 446.856 L90.8993 442.597 L99.1632 440.93 L103.839 440.93 L103.839 471.555 L111.478 471.555 L111.478 475.49 L91.5706 475.49 L91.5706 471.555 Z" fill="#000000" fill-rule="nonzero" fill-opacity="1" /><path clip-path="url(#clip600)" d="M95.1586 103.772 L111.478 103.772 L111.478 107.708 L89.5336 107.708 L89.5336 103.772 Q92.1956 101.018 96.7789 96.3883 Q101.385 91.7355 102.566 90.3929 Q104.811 87.8698 105.691 86.1337 Q106.594 84.3744 106.594 82.6846 Q106.594 79.93 104.649 78.1939 Q102.728 76.4578 99.6261 76.4578 Q97.4271 76.4578 94.9734 77.2217 Q92.5428 77.9856 89.7651 79.5365 L89.7651 74.8143 Q92.5891 73.6801 95.0428 73.1013 Q97.4965 72.5226 99.5335 72.5226 Q104.904 72.5226 108.098 75.2078 Q111.293 77.893 111.293 82.3837 Q111.293 84.5133 110.483 86.4346 Q109.696 88.3327 107.589 90.9253 Q107.01 91.5966 103.909 94.8142 Q100.807 98.0086 95.1586 103.772 Z" fill="#000000" fill-rule="nonzero" fill-opacity="1" /><polyline clip-path="url(#clip602)" style="stroke:#009af9; stroke-linecap:round; stroke-linejoin:round; stroke-width:4; stroke-opacity:1; fill:none" points="147.478,825.992 149.685,830.815 151.893,835.574 154.1,840.27 156.308,844.903 158.515,849.475 160.723,853.986 162.93,858.438 165.138,862.83 167.345,867.165 169.553,871.442 171.76,875.662 173.968,879.826 176.175,883.935 178.383,887.989 180.59,891.99 182.798,895.938 185.005,899.833 187.213,903.677 189.42,907.47 191.628,911.212 193.835,914.905 196.043,918.549 198.25,922.144 200.458,925.692 202.665,929.193 204.873,932.648 207.08,936.056 209.288,939.42 211.495,942.739 213.702,946.014 215.91,949.245 218.117,952.434 220.325,955.58 222.532,958.685 224.74,961.748 226.947,964.771 229.155,967.754 231.362,970.697 233.57,973.601 235.777,976.467 237.985,979.295 240.192,982.085 242.4,984.838 244.607,987.555 246.815,990.235 249.022,992.881 251.23,995.491 253.437,998.066 255.645,1000.61 257.852,1003.12 260.06,1005.59 262.267,1008.03 264.475,1010.44 266.682,1012.82 268.89,1015.16 271.097,1017.48 273.305,1019.76 275.512,1022.02 277.72,1024.24 279.927,1026.43 282.135,1028.6 284.342,1030.74 286.549,1032.84 288.757,1034.92 290.964,1036.98 293.172,1039 295.379,1041 297.587,1042.97 299.794,1044.92 302.002,1046.84 304.209,1048.73 306.417,1050.6 308.624,1052.45 310.832,1054.27 313.039,1056.06 315.247,1057.84 317.454,1059.59 319.662,1061.31 321.869,1063.01 324.077,1064.69 326.284,1066.35 328.492,1067.99 330.699,1069.6 332.907,1071.2 335.114,1072.77 337.322,1074.32 339.529,1075.85 341.737,1077.36 343.944,1078.85 346.152,1080.32 348.359,1081.77 350.567,1083.2 352.774,1084.61 354.982,1086.01 357.189,1087.38 359.397,1088.74 361.604,1090.08 363.811,1091.4 366.019,1092.71 368.226,1093.96 370.434,1094.37 372.641,1093.66 374.849,1091.97 377.056,1089.4 379.264,1086.07 381.471,1082.09 383.679,1077.55 385.886,1072.55 388.094,1067.17 390.301,1061.5 392.509,1055.61 394.716,1049.57 396.924,1043.44 399.131,1037.27 401.339,1031.13 403.546,1025.05 405.754,1019.06 407.961,1013.21 410.169,1007.51 412.376,1001.99 414.584,996.656 416.791,991.516 418.999,986.571 421.206,981.816 423.414,977.239 425.621,972.821 427.829,968.54 430.036,964.363 432.244,960.256 434.451,956.174 436.659,952.071 438.866,947.896 441.073,943.737 443.281,939.632 445.488,935.582 447.696,931.586 449.903,927.642 452.111,923.751 454.318,919.912 456.526,916.123 458.733,912.385 460.941,908.696 463.148,905.056 465.356,901.464 467.563,897.92 469.771,894.423 471.978,890.972 474.186,887.567 476.393,884.207 478.601,880.891 480.808,877.62 483.016,874.391 485.223,871.206 487.431,868.063 489.638,864.961 491.846,861.901 494.053,858.881 496.261,855.901 498.468,852.961 500.676,850.06 502.883,847.197 505.091,844.372 507.298,841.585 509.506,838.835 511.713,836.121 513.921,833.444 516.128,830.802 518.335,828.195 520.543,825.622 522.75,823.084 524.958,820.579 527.165,818.108 529.373,815.669 531.58,813.263 533.788,810.888 535.995,808.545 538.203,806.233 540.41,803.952 542.618,801.701 544.825,799.48 547.033,797.288 549.24,795.125 551.448,792.991 553.655,790.885 555.863,788.807 558.07,786.757 560.278,784.734 562.485,782.737 564.693,780.767 566.9,778.823 569.108,776.905 571.315,775.013 573.523,773.145 575.73,771.302 577.938,769.484 580.145,767.69 582.353,765.919 584.56,764.172 586.768,762.448 588.975,760.829 591.182,760.716 593.39,762.413 595.597,765.667 597.805,770.241 600.012,775.912 602.22,782.476 604.427,789.744 606.635,797.543 608.842,805.715 611.05,814.121 613.257,822.636 615.465,831.152 617.672,839.576 619.88,847.833 622.087,855.863 624.295,863.622 626.502,871.083 628.71,878.234 630.917,885.08 633.125,891.642 635.332,897.958 637.54,904.08 639.747,910.079 641.955,916.039 644.162,922.062 646.37,928.179 648.577,934.226 650.785,940.192 652.992,946.079 655.2,951.888 657.407,957.62 659.615,963.277 661.822,968.858 664.03,974.365 666.237,979.799 668.444,985.161 670.652,990.452 672.859,995.673 675.067,1000.82 677.274,1005.91 679.482,1010.92 681.689,1015.87 683.897,1020.76 686.104,1025.58 688.312,1030.33 690.519,1035.02 692.727,1039.65 694.934,1044.22 697.142,1048.73 699.349,1053.18 701.557,1057.57 703.764,1061.9 705.972,1066.17 708.179,1070.39 710.387,1074.55 712.594,1078.66 714.802,1082.71 717.009,1086.71 719.217,1090.65 721.424,1094.54 723.632,1098.38 725.839,1102.17 728.047,1105.91 730.254,1109.6 732.462,1113.24 734.669,1116.84 736.877,1120.38 739.084,1123.88 741.292,1127.33 743.499,1130.74 745.706,1134.1 747.914,1137.41 750.121,1140.69 752.329,1143.92 754.536,1147.1 756.744,1150.25 758.951,1153.36 761.159,1156.48 763.366,1159.6 765.574,1162.7 767.781,1165.78 769.989,1168.82 772.196,1171.81 774.404,1174.75 776.611,1177.63 778.819,1180.44 781.026,1183.17 783.234,1185.81 785.441,1188.38 787.649,1190.85 789.856,1193.24 792.064,1195.53 794.271,1197.73 796.479,1199.84 798.686,1201.86 800.894,1203.79 803.101,1205.63 805.309,1207.4 807.516,1209.09 809.724,1210.71 811.931,1212.26 814.139,1213.77 816.346,1215.23 818.553,1216.65 820.761,1218.05 822.968,1219.43 825.176,1220.82 827.383,1222.22 829.591,1223.61 831.798,1224.98 834.006,1226.33 836.213,1227.67 838.421,1228.99 840.628,1230.29 842.836,1231.57 845.043,1232.84 847.251,1234.09 849.458,1235.32 851.666,1236.54 853.873,1237.74 856.081,1238.92 858.288,1240.09 860.496,1241.24 862.703,1242.38 864.911,1243.5 867.118,1244.61 869.326,1245.71 871.533,1246.78 873.741,1247.85 875.948,1248.9 878.156,1249.94 880.363,1250.96 882.571,1251.97 884.778,1252.96 886.986,1253.95 889.193,1254.92 891.401,1255.87 893.608,1256.82 895.815,1257.75 898.023,1258.67 900.23,1259.58 902.438,1260.47 904.645,1261.36 906.853,1262.23 909.06,1263.09 911.268,1263.94 913.475,1264.78 915.683,1265.6 917.89,1266.42 920.098,1267.22 922.305,1268.02 924.513,1268.8 926.72,1269.57 928.928,1270.34 931.135,1271.09 933.343,1271.83 935.55,1272.56 937.758,1273.29 939.965,1274 942.173,1274.7 944.38,1275.4 946.588,1276.08 948.795,1276.76 951.003,1277.42 953.21,1278.08 955.418,1278.73 957.625,1279.37 959.833,1280 962.04,1280.63 964.248,1281.24 966.455,1281.85 968.663,1282.45 970.87,1283.04 973.077,1283.62 975.285,1284.2 977.492,1284.77 979.7,1285.33 981.907,1285.88 984.115,1286.43 986.322,1286.96 988.53,1287.5 990.737,1288.02 992.945,1288.54 995.152,1289.05 997.36,1289.55 999.567,1290.05 1001.77,1290.54 1003.98,1291.02 1006.19,1291.5 1008.4,1291.97 1010.6,1292.44 1012.81,1292.9 1015.02,1293.35 1017.23,1293.8 1019.43,1294.24 1021.64,1294.66 1023.85,1294.16 1026.06,1292.36 1028.26,1289.39 1030.47,1285.4 1032.68,1280.53 1034.89,1274.89 1037.09,1268.6 1039.3,1261.77 1041.51,1254.5 1043.72,1246.9 1045.92,1239.04 1048.13,1231.01 1050.34,1222.89 1052.55,1214.73 1054.75,1206.6 1056.96,1198.55 1059.17,1190.63 1061.38,1182.87 1063.58,1175.3 1065.79,1167.94 1068,1160.82 1070.21,1153.94 1072.41,1147.29 1074.62,1140.88 1076.83,1134.7 1079.04,1128.71 1081.24,1122.9 1083.45,1117.22 1085.66,1111.64 1087.87,1106.11 1090.07,1100.57 1092.28,1094.95 1094.49,1089.35 1096.7,1083.82 1098.9,1078.37 1101.11,1072.98 1103.32,1067.67 1105.53,1062.43 1107.73,1057.26 1109.94,1052.16 1112.15,1047.12 1114.36,1042.15 1116.56,1037.25 1118.77,1032.41 1120.98,1027.64 1123.19,1022.93 1125.39,1018.28 1127.6,1013.69 1129.81,1009.17 1132.02,1004.7 1134.22,1000.29 1136.43,995.946 1138.64,991.656 1140.85,987.422 1143.05,983.244 1145.26,979.122 1147.47,975.054 1149.68,971.04 1151.88,967.08 1154.09,963.172 1156.3,959.316 1158.51,955.511 1160.71,951.757 1162.92,948.052 1165.13,944.397 1167.34,940.79 1169.54,937.231 1171.75,933.72 1173.96,930.255 1176.17,926.836 1178.37,923.462 1180.58,920.133 1182.79,916.848 1185,913.607 1187.2,910.409 1189.41,907.253 1191.62,904.14 1193.83,901.067 1196.03,898.035 1198.24,895.043 1200.45,892.091 1202.66,889.178 1204.86,886.304 1207.07,883.468 1209.28,880.669 1211.49,877.907 1213.69,875.182 1215.9,872.493 1218.11,869.836 1220.32,867.2 1222.52,864.59 1224.73,862.009 1226.94,859.458 1229.15,856.942 1231.35,854.463 1233.56,852.021 1235.77,849.621 1237.98,847.262 1240.18,844.946 1242.39,842.675 1244.6,840.448 1246.81,838.267 1249.01,836.13 1251.22,834.039 1253.43,831.993 1255.64,829.99 1257.84,828.03 1260.05,826.111 1262.26,824.233 1264.47,822.391 1266.67,820.586 1268.88,818.813 1271.09,817.071 1273.3,815.356 1275.5,813.664 1277.71,811.993 1279.92,810.338 1282.13,808.698 1284.33,807.079 1286.54,805.481 1288.75,803.904 1290.96,802.349 1293.16,800.814 1295.37,799.299 1297.58,797.805 1299.79,796.33 1301.99,794.875 1304.2,793.439 1306.41,792.022 1308.62,790.624 1310.82,789.245 1313.03,787.884 1315.24,786.541 1317.45,785.215 1319.65,783.907 1321.86,782.617 1324.07,781.344 1326.28,780.087 1328.48,778.847 1330.69,777.624 1332.9,776.417 1335.11,775.226 1337.31,774.05 1339.52,772.89 1341.73,771.746 1343.94,770.616 1346.14,769.502 1348.35,768.402 1350.56,767.317 1352.76,766.247 1354.97,765.19 1357.18,764.148 1359.39,763.119 1361.59,762.104 1363.8,761.103 1366.01,760.115 1368.22,759.14 1370.42,758.177 1372.63,757.228 1374.84,756.291 1377.05,755.367 1379.25,754.455 1381.46,753.555 1383.67,752.667 1385.88,751.791 1388.08,750.927 1390.29,750.074 1392.5,749.232 1394.71,748.401 1396.91,747.582 1399.12,746.773 1401.33,745.975 1403.54,745.188 1405.74,744.411 1407.95,743.644 1410.16,742.888 1412.37,742.141 1414.57,741.405 1416.78,740.678 1418.99,739.96 1421.2,739.253 1423.4,738.554 1425.61,737.865 1427.82,737.185 1430.03,736.514 1432.23,735.852 1434.44,735.199 1436.65,734.554 1438.86,733.918 1441.06,733.29 1443.27,732.671 1445.48,732.06 1447.69,731.457 1449.89,730.862 1452.1,730.275 1454.31,729.695 1456.52,729.124 1458.72,728.559 1460.93,728.003 1463.14,727.454 1465.35,727.181 1467.55,727.852 1469.76,729.39 1471.97,731.68 1474.18,734.614 1476.38,738.092 1478.59,742.018 1480.8,746.307 1483.01,750.876 1485.21,755.653 1487.42,760.569 1489.63,765.565 1491.84,770.586 1494.04,775.584 1496.25,780.521 1498.46,785.362 1500.67,790.08 1502.87,794.654 1505.08,799.072 1507.29,803.327 1509.5,807.418 1511.7,811.351 1513.91,815.141 1516.12,818.808 1518.33,822.377 1520.53,825.884 1522.74,829.367 1524.95,832.874 1527.16,836.432 1529.36,839.956 1531.57,843.433 1533.78,846.864 1535.99,850.249 1538.19,853.59 1540.4,856.886 1542.61,860.139 1544.82,863.348 1547.02,866.515 1549.23,869.64 1551.44,872.723 1553.65,875.766 1555.85,878.768 1558.06,881.731 1560.27,884.654 1562.48,887.539 1564.68,890.385 1566.89,893.194 1569.1,895.965 1571.31,898.7 1573.51,901.398 1575.72,904.06 1577.93,906.688 1580.14,909.28 1582.34,911.838 1584.55,914.362 1586.76,916.853 1588.97,919.31 1591.17,921.735 1593.38,924.128 1595.59,926.489 1597.8,928.819 1600,931.117 1602.21,933.386 1604.42,935.624 1606.63,937.832 1608.83,940.012 1611.04,942.162 1613.25,944.284 1615.46,946.378 1617.66,948.444 1619.87,950.482 1622.08,952.494 1624.29,954.479 1626.49,956.437 1628.7,958.37 1630.91,960.277 1633.12,962.159 1635.32,964.016 1637.53,965.848 1639.74,967.656 1641.95,969.44 1644.15,971.2 1646.36,972.937 1648.57,974.651 1650.78,976.343 1652.98,978.011 1655.19,979.658 1657.4,981.283 1659.61,982.886 1661.81,984.468 1664.02,986.029 1666.23,987.57 1668.44,989.09 1670.64,990.59 1672.85,992.069 1675.06,993.53 1677.27,994.971 1679.47,996.393 1681.68,997.796 1683.89,999.18 1686.1,1000.55 1688.3,1001.89 1690.51,1003.22 1692.72,1002.65 1694.93,996.034 1697.13,985.448 1699.34,972.849 1701.55,959.7 1703.76,946.963 1705.96,935.103 1708.17,924.088 1710.38,913.387 1712.59,902.44 1714.79,891.619 1717,880.94 1719.21,870.403 1721.42,860.006 1723.62,849.747 1725.83,839.623 1728.04,829.634 1730.25,819.777 1732.45,810.051 1734.66,800.454 1736.87,790.985 1739.07,781.64 1741.28,772.42 1743.49,763.322 1745.7,754.344 1747.9,745.486 1750.11,736.745 1752.32,728.12 1754.53,719.609 1756.73,711.211 1758.94,702.925 1761.15,694.748 1763.36,686.68 1765.56,678.719 1767.77,670.863 1769.98,663.111 1772.19,655.462 1774.39,647.915 1776.6,640.467 1778.81,633.119 1781.02,625.867 1783.22,618.712 1785.43,611.652 1787.64,604.685 1789.85,597.811 1792.05,591.028 1794.26,584.335 1796.47,577.73 1798.68,571.213 1800.88,564.783 1803.09,558.438 1805.3,552.177 1807.51,545.998 1809.71,539.902 1811.92,533.887 1814.13,527.951 1816.34,522.094 1818.54,516.315 1820.75,510.612 1822.96,504.985 1825.17,499.432 1827.37,493.953 1829.58,488.547 1831.79,483.212 1834,477.948 1836.2,472.754 1838.41,467.629 1840.62,462.572 1842.83,457.582 1845.03,452.658 1847.24,447.799 1849.45,443.005 1851.66,438.274 1853.86,433.606 1856.07,429 1858.28,424.456 1860.49,419.971 1862.69,415.546 1864.9,411.179 1867.11,406.871 1869.32,402.619 1871.52,398.424 1873.73,394.284 1875.94,390.199 1878.15,386.169 1880.35,382.192 1882.56,378.267 1884.77,374.395 1886.98,370.574 1889.18,366.803 1891.39,363.083 1893.6,359.412 1895.81,355.789 1898.01,352.215 1900.22,348.402 1902.43,343.067 1904.64,338.194 1906.84,335.625 1909.05,336.358 1911.26,340.544 1913.47,347.49 1915.67,355.654 1917.88,363.138 1920.09,370.364 1922.3,377.494 1924.5,384.529 1926.71,391.471 1928.92,398.322 1931.13,405.081 1933.33,411.751 1935.54,418.333 1937.75,424.827 1939.96,431.235 1942.16,437.558 1944.37,443.797 1946.58,449.954 1948.79,456.029 1950.99,462.023 1953.2,467.938 1955.41,473.774 1957.62,479.533 1959.82,485.216 1962.03,490.823 1964.24,496.356 1966.45,501.815 1968.65,507.202 1970.86,512.518 1973.07,517.763 1975.28,522.939 1977.48,528.046 1979.69,533.085 1981.9,538.058 1984.11,542.965 1986.31,547.806 1988.52,552.584 1990.73,557.298 1992.94,561.95 1995.14,566.54 1997.35,571.069 1999.56,575.538 2001.77,579.948 2003.97,584.299 2006.18,588.593 2008.39,592.83 2010.6,597.01 2012.8,601.135 2015.01,605.206 2017.22,609.222 2019.43,613.185 2021.63,617.096 2023.84,620.955 2026.05,624.762 2028.26,628.52 2030.46,632.227 2032.67,635.885 2034.88,639.495 2037.09,643.057 2039.29,646.571 2041.5,650.039 2043.71,653.461 2045.92,656.838 2048.12,660.17 2050.33,663.458 2052.54,666.702 2054.75,669.903 2056.95,673.062 2059.16,676.179 2061.37,679.255 2063.58,682.29 2065.78,685.285 2067.99,688.24 2070.2,691.155 2072.41,694.032 2074.61,696.871 2076.82,699.672 2079.03,702.437 2081.24,705.164 2083.44,707.855 2085.65,710.511 2087.86,713.131 2090.07,715.716 2092.27,718.268 2094.48,720.785 2096.69,723.269 2098.9,725.72 2101.1,728.139 2103.31,730.525 2105.52,732.88 2107.73,735.204 2109.93,737.496 2112.14,739.759 2114.35,741.991 2116.55,744.194 2118.76,746.368 2120.97,748.513 2123.18,750.614 2125.38,752.392 2127.59,753.782 2129.8,754.83 2132.01,755.576 2134.21,756.061 2136.42,756.323 2138.63,756.397 2140.84,756.316 2143.04,756.109 2145.25,755.805 2147.46,755.428 2149.67,755.002 2151.87,754.547 2154.08,754.081 2156.29,753.62 2158.5,753.176 2160.7,752.76 2162.91,752.381 2165.12,752.044 2167.33,751.752 2169.53,751.506 2171.74,751.305 2173.95,751.145 2176.16,751.018 2178.36,750.916 2180.57,750.827 2182.78,750.738 2184.99,750.633 2187.19,750.492 2189.4,750.327 2191.61,750.164 2193.82,750.003 2196.02,749.845 2198.23,749.688 2200.44,749.534 2202.65,749.382 2204.85,749.231 2207.06,749.083 2209.27,748.937 2211.48,748.792 2213.68,748.65 2215.89,748.509 2218.1,748.371 2220.31,748.234 2222.51,748.099 2224.72,747.965 2226.93,747.834 2229.14,747.704 2231.34,747.576 2233.55,747.45 2235.76,747.325 2237.97,747.202 2240.17,747.081 2242.38,746.961 2244.59,746.843 2246.8,746.726 2249,746.611 2251.21,746.497 2253.42,746.385 2255.63,746.274 2257.83,746.165 2260.04,746.058 2262.25,745.951 2264.46,745.846 2266.66,745.743 2268.87,745.641 2271.08,745.54 2273.29,745.441 2275.49,745.343 2277.7,745.246 2279.91,745.15 2282.12,745.056 2284.32,744.963 2286.53,744.872 2288.74,744.781 2290.95,744.692 2293.15,744.604 2295.36,744.517 2297.57,744.431 2299.78,744.346 2301.98,744.263 2304.19,744.18 2306.4,744.099 2308.61,744.019 2310.81,743.94 2313.02,743.862 2315.23,743.785 2317.44,743.709 2319.64,743.634 2321.85,743.56 2324.06,743.486 2326.27,743.414 2328.47,743.343 2330.68,743.273 2332.89,743.204 2335.1,743.136 2337.3,743.068 2339.51,743.002 2341.72,742.936 2343.93,742.871 2346.13,742.807 2348.34,742.744 2350.55,742.682 2352.76,742.62 "/>
<polyline clip-path="url(#clip602)" style="stroke:#e26f46; stroke-linecap:round; stroke-linejoin:round; stroke-width:4; stroke-opacity:1; fill:none" points="147.478,1189.75 149.685,1189.75 151.893,1189.75 154.1,1189.75 156.308,1189.75 158.515,1189.75 160.723,1189.75 162.93,1189.75 165.138,1189.75 167.345,1189.75 169.553,1189.75 171.76,1189.75 173.968,1189.75 176.175,1189.75 178.383,1189.75 180.59,1189.75 182.798,1189.75 185.005,1189.75 187.213,1189.75 189.42,1189.75 191.628,1189.75 193.835,1189.75 196.043,1189.75 198.25,1189.75 200.458,1189.75 202.665,1189.75 204.873,1189.75 207.08,1189.75 209.288,1189.75 211.495,1189.75 213.702,1189.75 215.91,1189.75 218.117,1189.75 220.325,1189.75 222.532,1189.75 224.74,1189.75 226.947,1189.75 229.155,1189.75 231.362,1189.75 233.57,1189.75 235.777,1189.75 237.985,1189.75 240.192,1189.75 242.4,1189.75 244.607,1189.75 246.815,1189.75 249.022,1189.75 251.23,1189.75 253.437,1189.75 255.645,1189.75 257.852,1189.75 260.06,1189.75 262.267,1189.75 264.475,1189.75 266.682,1189.75 268.89,1189.75 271.097,1189.75 273.305,1189.75 275.512,1189.75 277.72,1189.75 279.927,1189.75 282.135,1189.75 284.342,1189.75 286.549,1189.75 288.757,1189.75 290.964,1189.75 293.172,1189.75 295.379,1189.75 297.587,1189.75 299.794,1189.75 302.002,1189.75 304.209,1189.75 306.417,1189.75 308.624,1189.75 310.832,1189.75 313.039,1189.75 315.247,1189.75 317.454,1189.75 319.662,1189.75 321.869,1189.75 324.077,1189.75 326.284,1189.75 328.492,1189.75 330.699,1189.75 332.907,1189.75 335.114,1189.75 337.322,1189.75 339.529,1189.75 341.737,1189.75 343.944,1189.75 346.152,1189.75 348.359,1189.75 350.567,1189.75 352.774,1189.75 354.982,1189.75 357.189,1189.75 359.397,1189.75 361.604,1189.75 363.811,1189.75 366.019,1189.75 368.226,634.149 370.434,634.149 372.641,634.149 374.849,634.149 377.056,634.149 379.264,634.149 381.471,634.149 383.679,634.149 385.886,634.149 388.094,634.149 390.301,634.149 392.509,634.149 394.716,634.149 396.924,634.149 399.131,634.149 401.339,634.149 403.546,634.149 405.754,634.149 407.961,634.149 410.169,634.149 412.376,634.149 414.584,634.149 416.791,634.149 418.999,634.149 421.206,634.149 423.414,634.149 425.621,634.149 427.829,634.149 430.036,634.149 432.244,634.149 434.451,634.149 436.659,634.149 438.866,634.149 441.073,634.149 443.281,634.149 445.488,634.149 447.696,634.149 449.903,634.149 452.111,634.149 454.318,634.149 456.526,634.149 458.733,634.149 460.941,634.149 463.148,634.149 465.356,634.149 467.563,634.149 469.771,634.149 471.978,634.149 474.186,634.149 476.393,634.149 478.601,634.149 480.808,634.149 483.016,634.149 485.223,634.149 487.431,634.149 489.638,634.149 491.846,634.149 494.053,634.149 496.261,634.149 498.468,634.149 500.676,634.149 502.883,634.149 505.091,634.149 507.298,634.149 509.506,634.149 511.713,634.149 513.921,634.149 516.128,634.149 518.335,634.149 520.543,634.149 522.75,634.149 524.958,634.149 527.165,634.149 529.373,634.149 531.58,634.149 533.788,634.149 535.995,634.149 538.203,634.149 540.41,634.149 542.618,634.149 544.825,634.149 547.033,634.149 549.24,634.149 551.448,634.149 553.655,634.149 555.863,634.149 558.07,634.149 560.278,634.149 562.485,634.149 564.693,634.149 566.9,634.149 569.108,634.149 571.315,634.149 573.523,634.149 575.73,634.149 577.938,634.149 580.145,634.149 582.353,634.149 584.56,634.149 586.768,634.149 588.975,1384.24 591.182,1384.24 593.39,1384.24 595.597,1384.24 597.805,1384.24 600.012,1384.24 602.22,1384.24 604.427,1384.24 606.635,1384.24 608.842,1384.24 611.05,1384.24 613.257,1384.24 615.465,1384.24 617.672,1384.24 619.88,1384.24 622.087,1384.24 624.295,1384.24 626.502,1384.24 628.71,1384.24 630.917,1384.24 633.125,1384.24 635.332,1384.24 637.54,1384.24 639.747,1384.24 641.955,1384.24 644.162,1384.24 646.37,1384.24 648.577,1384.24 650.785,1384.24 652.992,1384.24 655.2,1384.24 657.407,1384.24 659.615,1384.24 661.822,1384.24 664.03,1384.24 666.237,1384.24 668.444,1384.24 670.652,1384.24 672.859,1384.24 675.067,1384.24 677.274,1384.24 679.482,1384.24 681.689,1384.24 683.897,1384.24 686.104,1384.24 688.312,1384.24 690.519,1384.24 692.727,1384.24 694.934,1384.24 697.142,1384.24 699.349,1384.24 701.557,1384.24 703.764,1384.24 705.972,1384.24 708.179,1384.24 710.387,1384.24 712.594,1384.24 714.802,1384.24 717.009,1384.24 719.217,1384.24 721.424,1384.24 723.632,1384.24 725.839,1384.24 728.047,1384.24 730.254,1384.24 732.462,1384.24 734.669,1384.24 736.877,1384.24 739.084,1384.24 741.292,1384.24 743.499,1384.24 745.706,1384.24 747.914,1384.24 750.121,1384.24 752.329,1384.24 754.536,1384.24 756.744,1384.24 758.951,1384.24 761.159,1384.24 763.366,1384.24 765.574,1384.24 767.781,1384.24 769.989,1384.24 772.196,1384.24 774.404,1384.24 776.611,1384.24 778.819,1384.24 781.026,1384.24 783.234,1384.24 785.441,1384.24 787.649,1384.24 789.856,1384.24 792.064,1384.24 794.271,1384.24 796.479,1384.24 798.686,1384.24 800.894,1384.24 803.101,1384.24 805.309,1384.24 807.516,1384.24 809.724,1327.08 811.931,1327.08 814.139,1327.08 816.346,1327.08 818.553,1327.08 820.761,1327.08 822.968,1327.08 825.176,1327.08 827.383,1327.08 829.591,1327.08 831.798,1327.08 834.006,1327.08 836.213,1327.08 838.421,1327.08 840.628,1327.08 842.836,1327.08 845.043,1327.08 847.251,1327.08 849.458,1327.08 851.666,1327.08 853.873,1327.08 856.081,1327.08 858.288,1327.08 860.496,1327.08 862.703,1327.08 864.911,1327.08 867.118,1327.08 869.326,1327.08 871.533,1327.08 873.741,1327.08 875.948,1327.08 878.156,1327.08 880.363,1327.08 882.571,1327.08 884.778,1327.08 886.986,1327.08 889.193,1327.08 891.401,1327.08 893.608,1327.08 895.815,1327.08 898.023,1327.08 900.23,1327.08 902.438,1327.08 904.645,1327.08 906.853,1327.08 909.06,1327.08 911.268,1327.08 913.475,1327.08 915.683,1327.08 917.89,1327.08 920.098,1327.08 922.305,1327.08 924.513,1327.08 926.72,1327.08 928.928,1327.08 931.135,1327.08 933.343,1327.08 935.55,1327.08 937.758,1327.08 939.965,1327.08 942.173,1327.08 944.38,1327.08 946.588,1327.08 948.795,1327.08 951.003,1327.08 953.21,1327.08 955.418,1327.08 957.625,1327.08 959.833,1327.08 962.04,1327.08 964.248,1327.08 966.455,1327.08 968.663,1327.08 970.87,1327.08 973.077,1327.08 975.285,1327.08 977.492,1327.08 979.7,1327.08 981.907,1327.08 984.115,1327.08 986.322,1327.08 988.53,1327.08 990.737,1327.08 992.945,1327.08 995.152,1327.08 997.36,1327.08 999.567,1327.08 1001.77,1327.08 1003.98,1327.08 1006.19,1327.08 1008.4,1327.08 1010.6,1327.08 1012.81,1327.08 1015.02,1327.08 1017.23,1327.08 1019.43,1327.08 1021.64,1327.08 1023.85,1327.08 1026.06,1327.08 1028.26,1327.08 1030.47,672.351 1032.68,672.351 1034.89,672.351 1037.09,672.351 1039.3,672.351 1041.51,672.351 1043.72,672.351 1045.92,672.351 1048.13,672.351 1050.34,672.351 1052.55,672.351 1054.75,672.351 1056.96,672.351 1059.17,672.351 1061.38,672.351 1063.58,672.351 1065.79,672.351 1068,672.351 1070.21,672.351 1072.41,672.351 1074.62,672.351 1076.83,672.351 1079.04,672.351 1081.24,672.351 1083.45,672.351 1085.66,672.351 1087.87,672.351 1090.07,672.351 1092.28,672.351 1094.49,672.351 1096.7,672.351 1098.9,672.351 1101.11,672.351 1103.32,672.351 1105.53,672.351 1107.73,672.351 1109.94,672.351 1112.15,672.351 1114.36,672.351 1116.56,672.351 1118.77,672.351 1120.98,672.351 1123.19,672.351 1125.39,672.351 1127.6,672.351 1129.81,672.351 1132.02,672.351 1134.22,672.351 1136.43,672.351 1138.64,672.351 1140.85,672.351 1143.05,672.351 1145.26,672.351 1147.47,672.351 1149.68,672.351 1151.88,672.351 1154.09,672.351 1156.3,672.351 1158.51,672.351 1160.71,672.351 1162.92,672.351 1165.13,672.351 1167.34,672.351 1169.54,672.351 1171.75,672.351 1173.96,672.351 1176.17,672.351 1178.37,672.351 1180.58,672.351 1182.79,672.351 1185,672.351 1187.2,672.351 1189.41,672.351 1191.62,672.351 1193.83,672.351 1196.03,672.351 1198.24,672.351 1200.45,672.351 1202.66,672.351 1204.86,672.351 1207.07,672.351 1209.28,672.351 1211.49,672.351 1213.69,672.351 1215.9,672.351 1218.11,672.351 1220.32,672.351 1222.52,672.351 1224.73,672.351 1226.94,672.351 1229.15,672.351 1231.35,672.351 1233.56,672.351 1235.77,672.351 1237.98,672.351 1240.18,672.351 1242.39,672.351 1244.6,672.351 1246.81,672.351 1249.01,672.351 1251.22,686.575 1253.43,686.575 1255.64,686.575 1257.84,686.575 1260.05,686.575 1262.26,686.575 1264.47,686.575 1266.67,686.575 1268.88,686.575 1271.09,686.575 1273.3,686.575 1275.5,686.575 1277.71,686.575 1279.92,686.575 1282.13,686.575 1284.33,686.575 1286.54,686.575 1288.75,686.575 1290.96,686.575 1293.16,686.575 1295.37,686.575 1297.58,686.575 1299.79,686.575 1301.99,686.575 1304.2,686.575 1306.41,686.575 1308.62,686.575 1310.82,686.575 1313.03,686.575 1315.24,686.575 1317.45,686.575 1319.65,686.575 1321.86,686.575 1324.07,686.575 1326.28,686.575 1328.48,686.575 1330.69,686.575 1332.9,686.575 1335.11,686.575 1337.31,686.575 1339.52,686.575 1341.73,686.575 1343.94,686.575 1346.14,686.575 1348.35,686.575 1350.56,686.575 1352.76,686.575 1354.97,686.575 1357.18,686.575 1359.39,686.575 1361.59,686.575 1363.8,686.575 1366.01,686.575 1368.22,686.575 1370.42,686.575 1372.63,686.575 1374.84,686.575 1377.05,686.575 1379.25,686.575 1381.46,686.575 1383.67,686.575 1385.88,686.575 1388.08,686.575 1390.29,686.575 1392.5,686.575 1394.71,686.575 1396.91,686.575 1399.12,686.575 1401.33,686.575 1403.54,686.575 1405.74,686.575 1407.95,686.575 1410.16,686.575 1412.37,686.575 1414.57,686.575 1416.78,686.575 1418.99,686.575 1421.2,686.575 1423.4,686.575 1425.61,686.575 1427.82,686.575 1430.03,686.575 1432.23,686.575 1434.44,686.575 1436.65,686.575 1438.86,686.575 1441.06,686.575 1443.27,686.575 1445.48,686.575 1447.69,686.575 1449.89,686.575 1452.1,686.575 1454.31,686.575 1456.52,686.575 1458.72,686.575 1460.93,686.575 1463.14,686.575 1465.35,686.575 1467.55,686.575 1469.76,686.575 1471.97,1102.21 1474.18,1102.21 1476.38,1102.21 1478.59,1102.21 1480.8,1102.21 1483.01,1102.21 1485.21,1102.21 1487.42,1102.21 1489.63,1102.21 1491.84,1102.21 1494.04,1102.21 1496.25,1102.21 1498.46,1102.21 1500.67,1102.21 1502.87,1102.21 1505.08,1102.21 1507.29,1102.21 1509.5,1102.21 1511.7,1102.21 1513.91,1102.21 1516.12,1102.21 1518.33,1102.21 1520.53,1102.21 1522.74,1102.21 1524.95,1102.21 1527.16,1102.21 1529.36,1102.21 1531.57,1102.21 1533.78,1102.21 1535.99,1102.21 1538.19,1102.21 1540.4,1102.21 1542.61,1102.21 1544.82,1102.21 1547.02,1102.21 1549.23,1102.21 1551.44,1102.21 1553.65,1102.21 1555.85,1102.21 1558.06,1102.21 1560.27,1102.21 1562.48,1102.21 1564.68,1102.21 1566.89,1102.21 1569.1,1102.21 1571.31,1102.21 1573.51,1102.21 1575.72,1102.21 1577.93,1102.21 1580.14,1102.21 1582.34,1102.21 1584.55,1102.21 1586.76,1102.21 1588.97,1102.21 1591.17,1102.21 1593.38,1102.21 1595.59,1102.21 1597.8,1102.21 1600,1102.21 1602.21,1102.21 1604.42,1102.21 1606.63,1102.21 1608.83,1102.21 1611.04,1102.21 1613.25,1102.21 1615.46,1102.21 1617.66,1102.21 1619.87,1102.21 1622.08,1102.21 1624.29,1102.21 1626.49,1102.21 1628.7,1102.21 1630.91,1102.21 1633.12,1102.21 1635.32,1102.21 1637.53,1102.21 1639.74,1102.21 1641.95,1102.21 1644.15,1102.21 1646.36,1102.21 1648.57,1102.21 1650.78,1102.21 1652.98,1102.21 1655.19,1102.21 1657.4,1102.21 1659.61,1102.21 1661.81,1102.21 1664.02,1102.21 1666.23,1102.21 1668.44,1102.21 1670.64,1102.21 1672.85,1102.21 1675.06,1102.21 1677.27,1102.21 1679.47,1102.21 1681.68,1102.21 1683.89,1102.21 1686.1,1102.21 1688.3,1102.21 1690.51,1102.21 1692.72,86.1857 1694.93,86.1857 1697.13,86.1857 1699.34,86.1857 1701.55,86.1857 1703.76,86.1857 1705.96,86.1857 1708.17,86.1857 1710.38,86.1857 1712.59,86.1857 1714.79,86.1857 1717,86.1857 1719.21,86.1857 1721.42,86.1857 1723.62,86.1857 1725.83,86.1857 1728.04,86.1857 1730.25,86.1857 1732.45,86.1857 1734.66,86.1857 1736.87,86.1857 1739.07,86.1857 1741.28,86.1857 1743.49,86.1857 1745.7,86.1857 1747.9,86.1857 1750.11,86.1857 1752.32,86.1857 1754.53,86.1857 1756.73,86.1857 1758.94,86.1857 1761.15,86.1857 1763.36,86.1857 1765.56,86.1857 1767.77,86.1857 1769.98,86.1857 1772.19,86.1857 1774.39,86.1857 1776.6,86.1857 1778.81,86.1857 1781.02,86.1857 1783.22,86.1857 1785.43,86.1857 1787.64,86.1857 1789.85,86.1857 1792.05,86.1857 1794.26,86.1857 1796.47,86.1857 1798.68,86.1857 1800.88,86.1857 1803.09,86.1857 1805.3,86.1857 1807.51,86.1857 1809.71,86.1857 1811.92,86.1857 1814.13,86.1857 1816.34,86.1857 1818.54,86.1857 1820.75,86.1857 1822.96,86.1857 1825.17,86.1857 1827.37,86.1857 1829.58,86.1857 1831.79,86.1857 1834,86.1857 1836.2,86.1857 1838.41,86.1857 1840.62,86.1857 1842.83,86.1857 1845.03,86.1857 1847.24,86.1857 1849.45,86.1857 1851.66,86.1857 1853.86,86.1857 1856.07,86.1857 1858.28,86.1857 1860.49,86.1857 1862.69,86.1857 1864.9,86.1857 1867.11,86.1857 1869.32,86.1857 1871.52,86.1857 1873.73,86.1857 1875.94,86.1857 1878.15,86.1857 1880.35,86.1857 1882.56,86.1857 1884.77,86.1857 1886.98,86.1857 1889.18,86.1857 1891.39,86.1857 1893.6,86.1857 1895.81,86.1857 1898.01,86.1857 1900.22,86.1857 1902.43,86.1857 1904.64,86.1857 1906.84,86.1857 1909.05,86.1857 1911.26,86.1857 1913.47,908.153 1915.67,908.153 1917.88,908.153 1920.09,908.153 1922.3,908.153 1924.5,908.153 1926.71,908.153 1928.92,908.153 1931.13,908.153 1933.33,908.153 1935.54,908.153 1937.75,908.153 1939.96,908.153 1942.16,908.153 1944.37,908.153 1946.58,908.153 1948.79,908.153 1950.99,908.153 1953.2,908.153 1955.41,908.153 1957.62,908.153 1959.82,908.153 1962.03,908.153 1964.24,908.153 1966.45,908.153 1968.65,908.153 1970.86,908.153 1973.07,908.153 1975.28,908.153 1977.48,908.153 1979.69,908.153 1981.9,908.153 1984.11,908.153 1986.31,908.153 1988.52,908.153 1990.73,908.153 1992.94,908.153 1995.14,908.153 1997.35,908.153 1999.56,908.153 2001.77,908.153 2003.97,908.153 2006.18,908.153 2008.39,908.153 2010.6,908.153 2012.8,908.153 2015.01,908.153 2017.22,908.153 2019.43,908.153 2021.63,908.153 2023.84,908.153 2026.05,908.153 2028.26,908.153 2030.46,908.153 2032.67,908.153 2034.88,908.153 2037.09,908.153 2039.29,908.153 2041.5,908.153 2043.71,908.153 2045.92,908.153 2048.12,908.153 2050.33,908.153 2052.54,908.153 2054.75,908.153 2056.95,908.153 2059.16,908.153 2061.37,908.153 2063.58,908.153 2065.78,908.153 2067.99,908.153 2070.2,908.153 2072.41,908.153 2074.61,908.153 2076.82,908.153 2079.03,908.153 2081.24,908.153 2083.44,908.153 2085.65,908.153 2087.86,908.153 2090.07,908.153 2092.27,908.153 2094.48,908.153 2096.69,908.153 2098.9,908.153 2101.1,908.153 2103.31,908.153 2105.52,908.153 2107.73,908.153 2109.93,908.153 2112.14,908.153 2114.35,908.153 2116.55,908.153 2118.76,908.153 2120.97,908.153 2123.18,908.153 2125.38,908.153 2127.59,908.153 2129.8,908.153 2132.01,908.153 2134.21,738.046 2136.42,738.046 2138.63,738.046 2140.84,738.046 2143.04,738.046 2145.25,738.046 2147.46,738.046 2149.67,738.046 2151.87,738.046 2154.08,738.046 2156.29,738.046 2158.5,738.046 2160.7,738.046 2162.91,738.046 2165.12,738.046 2167.33,738.046 2169.53,738.046 2171.74,738.046 2173.95,738.046 2176.16,738.046 2178.36,738.046 2180.57,738.046 2182.78,738.046 2184.99,738.046 2187.19,738.046 2189.4,738.046 2191.61,738.046 2193.82,738.046 2196.02,738.046 2198.23,738.046 2200.44,738.046 2202.65,738.046 2204.85,738.046 2207.06,738.046 2209.27,738.046 2211.48,738.046 2213.68,738.046 2215.89,738.046 2218.1,738.046 2220.31,738.046 2222.51,738.046 2224.72,738.046 2226.93,738.046 2229.14,738.046 2231.34,738.046 2233.55,738.046 2235.76,738.046 2237.97,738.046 2240.17,738.046 2242.38,738.046 2244.59,738.046 2246.8,738.046 2249,738.046 2251.21,738.046 2253.42,738.046 2255.63,738.046 2257.83,738.046 2260.04,738.046 2262.25,738.046 2264.46,738.046 2266.66,738.046 2268.87,738.046 2271.08,738.046 2273.29,738.046 2275.49,738.046 2277.7,738.046 2279.91,738.046 2282.12,738.046 2284.32,738.046 2286.53,738.046 2288.74,738.046 2290.95,738.046 2293.15,738.046 2295.36,738.046 2297.57,738.046 2299.78,738.046 2301.98,738.046 2304.19,738.046 2306.4,738.046 2308.61,738.046 2310.81,738.046 2313.02,738.046 2315.23,738.046 2317.44,738.046 2319.64,738.046 2321.85,738.046 2324.06,738.046 2326.27,738.046 2328.47,738.046 2330.68,738.046 2332.89,738.046 2335.1,738.046 2337.3,738.046 2339.51,738.046 2341.72,738.046 2343.93,738.046 2346.13,738.046 2348.34,738.046 2350.55,738.046 2352.76,738.046 "/>
<path clip-path="url(#clip600)" d="M220.987 248.629 L466.654 248.629 L466.654 93.1086 L220.987 93.1086  Z" fill="#ffffff" fill-rule="evenodd" fill-opacity="1"/>
<polyline clip-path="url(#clip600)" style="stroke:#000000; stroke-linecap:round; stroke-linejoin:round; stroke-width:4; stroke-opacity:1; fill:none" points="220.987,248.629 466.654,248.629 466.654,93.1086 220.987,93.1086 220.987,248.629 "/>
<polyline clip-path="url(#clip600)" style="stroke:#009af9; stroke-linecap:round; stroke-linejoin:round; stroke-width:4; stroke-opacity:1; fill:none" points="245.49,144.949 392.509,144.949 "/>
<path clip-path="url(#clip600)" d="M441.665 136.303 L432.29 148.919 L442.151 162.229 L437.128 162.229 L429.581 152.043 L422.035 162.229 L417.012 162.229 L427.081 148.664 L417.868 136.303 L422.891 136.303 L429.766 145.539 L436.641 136.303 L441.665 136.303 Z" fill="#000000" fill-rule="nonzero" fill-opacity="1" /><polyline clip-path="url(#clip600)" style="stroke:#e26f46; stroke-linecap:round; stroke-linejoin:round; stroke-width:4; stroke-opacity:1; fill:none" points="245.49,196.789 392.509,196.789 "/>
<path clip-path="url(#clip600)" d="M433.516 178.05 L433.516 181.592 L429.442 181.592 Q427.151 181.592 426.248 182.518 Q425.368 183.444 425.368 185.851 L425.368 188.143 L432.382 188.143 L432.382 191.453 L425.368 191.453 L425.368 214.069 L421.086 214.069 L421.086 191.453 L417.012 191.453 L417.012 188.143 L421.086 188.143 L421.086 186.337 Q421.086 182.009 423.1 180.041 Q425.114 178.05 429.489 178.05 L433.516 178.05 Z" fill="#000000" fill-rule="nonzero" fill-opacity="1" /></svg>
