<?xml version="1.0" encoding="utf-8"?>
<svg xmlns="http://www.w3.org/2000/svg" xmlns:xlink="http://www.w3.org/1999/xlink" width="600" height="400" viewBox="0 0 2400 1600">
<defs>
  <clipPath id="clip900">
    <rect x="0" y="0" width="2400" height="1600"/>
  </clipPath>
</defs>
<path clip-path="url(#clip900)" d="M0 1600 L2400 1600 L2400 0 L0 0  Z" fill="#ffffff" fill-rule="evenodd" fill-opacity="1"/>
<defs>
  <clipPath id="clip901">
    <rect x="480" y="0" width="1681" height="1600"/>
  </clipPath>
</defs>
<defs>
  <clipPath id="clip902">
    <rect x="155" y="47" width="2198" height="1440"/>
  </clipPath>
</defs>
<path clip-path="url(#clip902)" d="M-760.735 2350.68 L-760.735 2114.8 L-656.451 1996.85 L-475.826 2064.95 L-475.826 2300.84 L-580.11 2418.78 L-760.735 2350.68  Z" fill="#ffffff" fill-rule="evenodd" fill-opacity="1"/>
<polyline clip-path="url(#clip902)" style="stroke:#000000; stroke-linecap:round; stroke-linejoin:round; stroke-width:2; stroke-opacity:0.1; fill:none" points="794.447,1233.78 1209.91,873.977 1209.91,154.375 "/>
<polyline clip-path="url(#clip902)" style="stroke:#000000; stroke-linecap:round; stroke-linejoin:round; stroke-width:2; stroke-opacity:0.1; fill:none" points="975.072,1285.92 1390.53,926.118 1390.53,206.517 "/>
<polyline clip-path="url(#clip902)" style="stroke:#000000; stroke-linecap:round; stroke-linejoin:round; stroke-width:2; stroke-opacity:0.1; fill:none" points="1155.7,1338.06 1571.16,978.26 1571.16,258.658 "/>
<polyline clip-path="url(#clip902)" style="stroke:#000000; stroke-linecap:round; stroke-linejoin:round; stroke-width:2; stroke-opacity:0.1; fill:none" points="1336.32,1390.2 1751.78,1030.4 1751.78,310.8 "/>
<polyline clip-path="url(#clip902)" style="stroke:#000000; stroke-linecap:round; stroke-linejoin:round; stroke-width:2; stroke-opacity:0.1; fill:none" points="1470.47,1354.87 750.867,1147.14 750.867,427.534 "/>
<polyline clip-path="url(#clip902)" style="stroke:#000000; stroke-linecap:round; stroke-linejoin:round; stroke-width:2; stroke-opacity:0.1; fill:none" points="1538.56,1295.9 818.962,1088.16 818.962,368.562 "/>
<polyline clip-path="url(#clip902)" style="stroke:#000000; stroke-linecap:round; stroke-linejoin:round; stroke-width:2; stroke-opacity:0.1; fill:none" points="1606.66,1236.92 887.057,1029.19 887.057,309.59 "/>
<polyline clip-path="url(#clip902)" style="stroke:#000000; stroke-linecap:round; stroke-linejoin:round; stroke-width:2; stroke-opacity:0.1; fill:none" points="1674.75,1177.95 955.152,970.22 955.152,250.618 "/>
<polyline clip-path="url(#clip902)" style="stroke:#000000; stroke-linecap:round; stroke-linejoin:round; stroke-width:2; stroke-opacity:0.1; fill:none" points="1742.85,1118.98 1023.25,911.248 1023.25,191.646 "/>
<polyline clip-path="url(#clip902)" style="stroke:#000000; stroke-linecap:round; stroke-linejoin:round; stroke-width:2; stroke-opacity:0.1; fill:none" points="1810.94,1060.01 1091.34,852.276 1091.34,132.674 "/>
<polyline clip-path="url(#clip902)" style="stroke:#000000; stroke-linecap:round; stroke-linejoin:round; stroke-width:2; stroke-opacity:0.1; fill:none" points="686.728,1160.81 1102.19,801.007 1821.79,1008.74 "/>
<polyline clip-path="url(#clip902)" style="stroke:#000000; stroke-linecap:round; stroke-linejoin:round; stroke-width:2; stroke-opacity:0.1; fill:none" points="686.728,1057.07 1102.19,697.264 1821.79,904.996 "/>
<polyline clip-path="url(#clip902)" style="stroke:#000000; stroke-linecap:round; stroke-linejoin:round; stroke-width:2; stroke-opacity:0.1; fill:none" points="686.728,953.323 1102.19,593.522 1821.79,801.253 "/>
<polyline clip-path="url(#clip902)" style="stroke:#000000; stroke-linecap:round; stroke-linejoin:round; stroke-width:2; stroke-opacity:0.1; fill:none" points="686.728,849.58 1102.19,489.779 1821.79,697.511 "/>
<polyline clip-path="url(#clip902)" style="stroke:#000000; stroke-linecap:round; stroke-linejoin:round; stroke-width:2; stroke-opacity:0.1; fill:none" points="686.728,745.838 1102.19,386.037 1821.79,593.768 "/>
<polyline clip-path="url(#clip902)" style="stroke:#000000; stroke-linecap:round; stroke-linejoin:round; stroke-width:2; stroke-opacity:0.1; fill:none" points="686.728,642.095 1102.19,282.294 1821.79,490.026 "/>
<polyline clip-path="url(#clip902)" style="stroke:#000000; stroke-linecap:round; stroke-linejoin:round; stroke-width:2; stroke-opacity:0.1; fill:none" points="686.728,538.353 1102.19,178.552 1821.79,386.283 "/>
<polyline clip-path="url(#clip900)" style="stroke:#000000; stroke-linecap:round; stroke-linejoin:round; stroke-width:4; stroke-opacity:1; fill:none" points="686.728,1202.68 1406.33,1410.41 "/>
<polyline clip-path="url(#clip900)" style="stroke:#000000; stroke-linecap:round; stroke-linejoin:round; stroke-width:4; stroke-opacity:1; fill:none" points="794.447,1233.78 799.433,1229.46 "/>
<polyline clip-path="url(#clip900)" style="stroke:#000000; stroke-linecap:round; stroke-linejoin:round; stroke-width:4; stroke-opacity:1; fill:none" points="975.072,1285.92 980.057,1281.6 "/>
<polyline clip-path="url(#clip900)" style="stroke:#000000; stroke-linecap:round; stroke-linejoin:round; stroke-width:4; stroke-opacity:1; fill:none" points="1155.7,1338.06 1160.68,1333.74 "/>
<polyline clip-path="url(#clip900)" style="stroke:#000000; stroke-linecap:round; stroke-linejoin:round; stroke-width:4; stroke-opacity:1; fill:none" points="1336.32,1390.2 1341.31,1385.89 "/>
<path clip-path="url(#clip900)" d="M774.704 1247.52 L762.899 1265.97 L774.704 1265.97 L774.704 1247.52 M773.477 1243.45 L779.357 1243.45 L779.357 1265.97 L784.288 1265.97 L784.288 1269.86 L779.357 1269.86 L779.357 1278.01 L774.704 1278.01 L774.704 1269.86 L759.102 1269.86 L759.102 1265.34 L773.477 1243.45 Z" fill="#000000" fill-rule="nonzero" fill-opacity="1" /><path clip-path="url(#clip900)" d="M953.385 1311 Q950.236 1311 948.385 1313.16 Q946.556 1315.31 946.556 1319.06 Q946.556 1322.79 948.385 1324.96 Q950.236 1327.12 953.385 1327.12 Q956.533 1327.12 958.361 1324.96 Q960.213 1322.79 960.213 1319.06 Q960.213 1315.31 958.361 1313.16 Q956.533 1311 953.385 1311 M962.667 1296.35 L962.667 1300.61 Q960.908 1299.78 959.102 1299.34 Q957.32 1298.9 955.56 1298.9 Q950.931 1298.9 948.477 1302.02 Q946.047 1305.15 945.699 1311.47 Q947.065 1309.45 949.125 1308.39 Q951.185 1307.3 953.662 1307.3 Q958.871 1307.3 961.88 1310.47 Q964.912 1313.62 964.912 1319.06 Q964.912 1324.38 961.764 1327.6 Q958.616 1330.82 953.385 1330.82 Q947.389 1330.82 944.218 1326.24 Q941.047 1321.63 941.047 1312.9 Q941.047 1304.71 944.935 1299.85 Q948.824 1294.96 955.375 1294.96 Q957.135 1294.96 958.917 1295.31 Q960.722 1295.66 962.667 1296.35 Z" fill="#000000" fill-rule="nonzero" fill-opacity="1" /><path clip-path="url(#clip900)" d="M1133.69 1365.88 Q1130.35 1365.88 1128.43 1367.66 Q1126.53 1369.44 1126.53 1372.57 Q1126.53 1375.69 1128.43 1377.48 Q1130.35 1379.26 1133.69 1379.26 Q1137.02 1379.26 1138.94 1377.48 Q1140.86 1375.67 1140.86 1372.57 Q1140.86 1369.44 1138.94 1367.66 Q1137.04 1365.88 1133.69 1365.88 M1129.01 1363.89 Q1126 1363.15 1124.31 1361.09 Q1122.64 1359.03 1122.64 1356.06 Q1122.64 1351.92 1125.58 1349.51 Q1128.55 1347.1 1133.69 1347.1 Q1138.85 1347.1 1141.79 1349.51 Q1144.73 1351.92 1144.73 1356.06 Q1144.73 1359.03 1143.04 1361.09 Q1141.37 1363.15 1138.38 1363.89 Q1141.76 1364.67 1143.64 1366.97 Q1145.54 1369.26 1145.54 1372.57 Q1145.54 1377.59 1142.46 1380.28 Q1139.4 1382.96 1133.69 1382.96 Q1127.97 1382.96 1124.89 1380.28 Q1121.83 1377.59 1121.83 1372.57 Q1121.83 1369.26 1123.73 1366.97 Q1125.63 1364.67 1129.01 1363.89 M1127.3 1356.5 Q1127.3 1359.19 1128.96 1360.69 Q1130.65 1362.2 1133.69 1362.2 Q1136.69 1362.2 1138.38 1360.69 Q1140.1 1359.19 1140.1 1356.5 Q1140.1 1353.82 1138.38 1352.31 Q1136.69 1350.81 1133.69 1350.81 Q1130.65 1350.81 1128.96 1352.31 Q1127.3 1353.82 1127.3 1356.5 Z" fill="#000000" fill-rule="nonzero" fill-opacity="1" /><path clip-path="url(#clip900)" d="M1274.87 1430.5 L1282.5 1430.5 L1282.5 1404.13 L1274.19 1405.8 L1274.19 1401.54 L1282.46 1399.87 L1287.13 1399.87 L1287.13 1430.5 L1294.77 1430.5 L1294.77 1434.43 L1274.87 1434.43 L1274.87 1430.5 Z" fill="#000000" fill-rule="nonzero" fill-opacity="1" /><path clip-path="url(#clip900)" d="M1314.22 1402.95 Q1310.61 1402.95 1308.78 1406.52 Q1306.97 1410.06 1306.97 1417.19 Q1306.97 1424.29 1308.78 1427.86 Q1310.61 1431.4 1314.22 1431.4 Q1317.85 1431.4 1319.66 1427.86 Q1321.49 1424.29 1321.49 1417.19 Q1321.49 1410.06 1319.66 1406.52 Q1317.85 1402.95 1314.22 1402.95 M1314.22 1399.25 Q1320.03 1399.25 1323.08 1403.85 Q1326.16 1408.44 1326.16 1417.19 Q1326.16 1425.91 1323.08 1430.52 Q1320.03 1435.1 1314.22 1435.1 Q1308.41 1435.1 1305.33 1430.52 Q1302.27 1425.91 1302.27 1417.19 Q1302.27 1408.44 1305.33 1403.85 Q1308.41 1399.25 1314.22 1399.25 Z" fill="#000000" fill-rule="nonzero" fill-opacity="1" /><polyline clip-path="url(#clip900)" style="stroke:#000000; stroke-linecap:round; stroke-linejoin:round; stroke-width:4; stroke-opacity:1; fill:none" points="1406.33,1410.41 1821.79,1050.61 "/>
<polyline clip-path="url(#clip900)" style="stroke:#000000; stroke-linecap:round; stroke-linejoin:round; stroke-width:4; stroke-opacity:1; fill:none" points="1470.47,1354.87 1461.83,1352.37 "/>
<polyline clip-path="url(#clip900)" style="stroke:#000000; stroke-linecap:round; stroke-linejoin:round; stroke-width:4; stroke-opacity:1; fill:none" points="1538.56,1295.9 1529.93,1293.4 "/>
<polyline clip-path="url(#clip900)" style="stroke:#000000; stroke-linecap:round; stroke-linejoin:round; stroke-width:4; stroke-opacity:1; fill:none" points="1606.66,1236.92 1598.02,1234.43 "/>
<polyline clip-path="url(#clip900)" style="stroke:#000000; stroke-linecap:round; stroke-linejoin:round; stroke-width:4; stroke-opacity:1; fill:none" points="1674.75,1177.95 1666.12,1175.46 "/>
<polyline clip-path="url(#clip900)" style="stroke:#000000; stroke-linecap:round; stroke-linejoin:round; stroke-width:4; stroke-opacity:1; fill:none" points="1742.85,1118.98 1734.21,1116.49 "/>
<polyline clip-path="url(#clip900)" style="stroke:#000000; stroke-linecap:round; stroke-linejoin:round; stroke-width:4; stroke-opacity:1; fill:none" points="1810.94,1060.01 1802.31,1057.51 "/>
<path clip-path="url(#clip900)" d="M1507.65 1360.74 L1495.84 1379.19 L1507.65 1379.19 L1507.65 1360.74 M1506.42 1356.66 L1512.3 1356.66 L1512.3 1379.19 L1517.23 1379.19 L1517.23 1383.08 L1512.3 1383.08 L1512.3 1391.22 L1507.65 1391.22 L1507.65 1383.08 L1492.04 1383.08 L1492.04 1378.56 L1506.42 1356.66 Z" fill="#000000" fill-rule="nonzero" fill-opacity="1" /><path clip-path="url(#clip900)" d="M1561.6 1297.69 L1579.95 1297.69 L1579.95 1301.63 L1565.88 1301.63 L1565.88 1310.1 Q1566.9 1309.75 1567.92 1309.59 Q1568.94 1309.4 1569.95 1309.4 Q1575.74 1309.4 1579.12 1312.58 Q1582.5 1315.75 1582.5 1321.16 Q1582.5 1326.74 1579.03 1329.84 Q1575.56 1332.92 1569.24 1332.92 Q1567.06 1332.92 1564.79 1332.55 Q1562.55 1332.18 1560.14 1331.44 L1560.14 1326.74 Q1562.22 1327.88 1564.45 1328.43 Q1566.67 1328.99 1569.14 1328.99 Q1573.15 1328.99 1575.49 1326.88 Q1577.83 1324.78 1577.83 1321.16 Q1577.83 1317.55 1575.49 1315.45 Q1573.15 1313.34 1569.14 1313.34 Q1567.27 1313.34 1565.39 1313.76 Q1563.54 1314.17 1561.6 1315.05 L1561.6 1297.69 Z" fill="#000000" fill-rule="nonzero" fill-opacity="1" /><path clip-path="url(#clip900)" d="M1640.57 1254.14 Q1637.42 1254.14 1635.57 1256.29 Q1633.74 1258.44 1633.74 1262.19 Q1633.74 1265.92 1635.57 1268.09 Q1637.42 1270.25 1640.57 1270.25 Q1643.72 1270.25 1645.55 1268.09 Q1647.4 1265.92 1647.4 1262.19 Q1647.4 1258.44 1645.55 1256.29 Q1643.72 1254.14 1640.57 1254.14 M1649.86 1239.48 L1649.86 1243.74 Q1648.1 1242.91 1646.29 1242.47 Q1644.51 1242.03 1642.75 1242.03 Q1638.12 1242.03 1635.67 1245.16 Q1633.23 1248.28 1632.89 1254.6 Q1634.25 1252.59 1636.31 1251.52 Q1638.37 1250.43 1640.85 1250.43 Q1646.06 1250.43 1649.07 1253.6 Q1652.1 1256.75 1652.1 1262.19 Q1652.1 1267.52 1648.95 1270.73 Q1645.8 1273.95 1640.57 1273.95 Q1634.58 1273.95 1631.41 1269.37 Q1628.23 1264.76 1628.23 1256.03 Q1628.23 1247.84 1632.12 1242.98 Q1636.01 1238.09 1642.56 1238.09 Q1644.32 1238.09 1646.11 1238.44 Q1647.91 1238.79 1649.86 1239.48 Z" fill="#000000" fill-rule="nonzero" fill-opacity="1" /><path clip-path="url(#clip900)" d="M1696.33 1179.75 L1718.55 1179.75 L1718.55 1181.74 L1706.01 1214.31 L1701.12 1214.31 L1712.93 1183.68 L1696.33 1183.68 L1696.33 1179.75 Z" fill="#000000" fill-rule="nonzero" fill-opacity="1" /><path clip-path="url(#clip900)" d="M1776.28 1138.92 Q1772.94 1138.92 1771.02 1140.71 Q1769.12 1142.49 1769.12 1145.61 Q1769.12 1148.74 1771.02 1150.52 Q1772.94 1152.3 1776.28 1152.3 Q1779.61 1152.3 1781.53 1150.52 Q1783.45 1148.72 1783.45 1145.61 Q1783.45 1142.49 1781.53 1140.71 Q1779.63 1138.92 1776.28 1138.92 M1771.6 1136.93 Q1768.59 1136.19 1766.9 1134.13 Q1765.24 1132.07 1765.24 1129.11 Q1765.24 1124.97 1768.17 1122.56 Q1771.14 1120.15 1776.28 1120.15 Q1781.44 1120.15 1784.38 1122.56 Q1787.32 1124.97 1787.32 1129.11 Q1787.32 1132.07 1785.63 1134.13 Q1783.96 1136.19 1780.98 1136.93 Q1784.36 1137.72 1786.23 1140.01 Q1788.13 1142.3 1788.13 1145.61 Q1788.13 1150.64 1785.05 1153.32 Q1781.99 1156.01 1776.28 1156.01 Q1770.56 1156.01 1767.48 1153.32 Q1764.42 1150.64 1764.42 1145.61 Q1764.42 1142.3 1766.32 1140.01 Q1768.22 1137.72 1771.6 1136.93 M1769.89 1129.55 Q1769.89 1132.23 1771.55 1133.74 Q1773.24 1135.24 1776.28 1135.24 Q1779.29 1135.24 1780.98 1133.74 Q1782.69 1132.23 1782.69 1129.55 Q1782.69 1126.86 1780.98 1125.36 Q1779.29 1123.85 1776.28 1123.85 Q1773.24 1123.85 1771.55 1125.36 Q1769.89 1126.86 1769.89 1129.55 Z" fill="#000000" fill-rule="nonzero" fill-opacity="1" /><path clip-path="url(#clip900)" d="M1834.74 1095.65 L1834.74 1091.39 Q1836.5 1092.22 1838.31 1092.66 Q1840.11 1093.1 1841.85 1093.1 Q1846.48 1093.1 1848.91 1090 Q1851.36 1086.87 1851.71 1080.53 Q1850.37 1082.52 1848.31 1083.59 Q1846.25 1084.65 1843.75 1084.65 Q1838.56 1084.65 1835.53 1081.53 Q1832.52 1078.38 1832.52 1072.94 Q1832.52 1067.61 1835.67 1064.4 Q1838.82 1061.18 1844.05 1061.18 Q1850.04 1061.18 1853.19 1065.79 Q1856.36 1070.37 1856.36 1079.12 Q1856.36 1087.29 1852.47 1092.17 Q1848.61 1097.04 1842.06 1097.04 Q1840.3 1097.04 1838.49 1096.69 Q1836.69 1096.34 1834.74 1095.65 M1844.05 1080.99 Q1847.2 1080.99 1849.02 1078.84 Q1850.88 1076.69 1850.88 1072.94 Q1850.88 1069.21 1849.02 1067.06 Q1847.2 1064.88 1844.05 1064.88 Q1840.9 1064.88 1839.05 1067.06 Q1837.22 1069.21 1837.22 1072.94 Q1837.22 1076.69 1839.05 1078.84 Q1840.9 1080.99 1844.05 1080.99 Z" fill="#000000" fill-rule="nonzero" fill-opacity="1" /><polyline clip-path="url(#clip900)" style="stroke:#000000; stroke-linecap:round; stroke-linejoin:round; stroke-width:4; stroke-opacity:1; fill:none" points="686.728,1202.68 686.728,483.08 "/>
<polyline clip-path="url(#clip900)" style="stroke:#000000; stroke-linecap:round; stroke-linejoin:round; stroke-width:4; stroke-opacity:1; fill:none" points="686.728,1160.81 691.714,1156.49 "/>
<polyline clip-path="url(#clip900)" style="stroke:#000000; stroke-linecap:round; stroke-linejoin:round; stroke-width:4; stroke-opacity:1; fill:none" points="686.728,1057.07 691.714,1052.75 "/>
<polyline clip-path="url(#clip900)" style="stroke:#000000; stroke-linecap:round; stroke-linejoin:round; stroke-width:4; stroke-opacity:1; fill:none" points="686.728,953.323 691.714,949.005 "/>
<polyline clip-path="url(#clip900)" style="stroke:#000000; stroke-linecap:round; stroke-linejoin:round; stroke-width:4; stroke-opacity:1; fill:none" points="686.728,849.58 691.714,845.263 "/>
<polyline clip-path="url(#clip900)" style="stroke:#000000; stroke-linecap:round; stroke-linejoin:round; stroke-width:4; stroke-opacity:1; fill:none" points="686.728,745.838 691.714,741.52 "/>
<polyline clip-path="url(#clip900)" style="stroke:#000000; stroke-linecap:round; stroke-linejoin:round; stroke-width:4; stroke-opacity:1; fill:none" points="686.728,642.095 691.714,637.778 "/>
<polyline clip-path="url(#clip900)" style="stroke:#000000; stroke-linecap:round; stroke-linejoin:round; stroke-width:4; stroke-opacity:1; fill:none" points="686.728,538.353 691.714,534.035 "/>
<path clip-path="url(#clip900)" d="M601.748 1146.61 Q598.137 1146.61 596.308 1150.17 Q594.503 1153.71 594.503 1160.84 Q594.503 1167.95 596.308 1171.51 Q598.137 1175.06 601.748 1175.06 Q605.382 1175.06 607.188 1171.51 Q609.017 1167.95 609.017 1160.84 Q609.017 1153.71 607.188 1150.17 Q605.382 1146.61 601.748 1146.61 M601.748 1142.9 Q607.558 1142.9 610.614 1147.51 Q613.692 1152.09 613.692 1160.84 Q613.692 1169.57 610.614 1174.18 Q607.558 1178.76 601.748 1178.76 Q595.938 1178.76 592.859 1174.18 Q589.804 1169.57 589.804 1160.84 Q589.804 1152.09 592.859 1147.51 Q595.938 1142.9 601.748 1142.9 Z" fill="#000000" fill-rule="nonzero" fill-opacity="1" /><path clip-path="url(#clip900)" d="M621.91 1172.21 L626.794 1172.21 L626.794 1178.09 L621.91 1178.09 L621.91 1172.21 Z" fill="#000000" fill-rule="nonzero" fill-opacity="1" /><path clip-path="url(#clip900)" d="M637.026 1143.53 L655.382 1143.53 L655.382 1147.46 L641.308 1147.46 L641.308 1155.94 Q642.327 1155.59 643.345 1155.43 Q644.364 1155.24 645.382 1155.24 Q651.169 1155.24 654.549 1158.41 Q657.928 1161.58 657.928 1167 Q657.928 1172.58 654.456 1175.68 Q650.984 1178.76 644.664 1178.76 Q642.489 1178.76 640.22 1178.39 Q637.975 1178.02 635.567 1177.28 L635.567 1172.58 Q637.651 1173.71 639.873 1174.27 Q642.095 1174.82 644.572 1174.82 Q648.576 1174.82 650.914 1172.72 Q653.252 1170.61 653.252 1167 Q653.252 1163.39 650.914 1161.28 Q648.576 1159.18 644.572 1159.18 Q642.697 1159.18 640.822 1159.59 Q638.97 1160.01 637.026 1160.89 L637.026 1143.53 Z" fill="#000000" fill-rule="nonzero" fill-opacity="1" /><path clip-path="url(#clip900)" d="M591.563 1070.41 L599.202 1070.41 L599.202 1044.04 L590.892 1045.71 L590.892 1041.45 L599.155 1039.79 L603.831 1039.79 L603.831 1070.41 L611.47 1070.41 L611.47 1074.35 L591.563 1074.35 L591.563 1070.41 Z" fill="#000000" fill-rule="nonzero" fill-opacity="1" /><path clip-path="url(#clip900)" d="M620.915 1068.47 L625.799 1068.47 L625.799 1074.35 L620.915 1074.35 L620.915 1068.47 Z" fill="#000000" fill-rule="nonzero" fill-opacity="1" /><path clip-path="url(#clip900)" d="M645.984 1042.86 Q642.373 1042.86 640.544 1046.43 Q638.739 1049.97 638.739 1057.1 Q638.739 1064.21 640.544 1067.77 Q642.373 1071.31 645.984 1071.31 Q649.618 1071.31 651.424 1067.77 Q653.252 1064.21 653.252 1057.1 Q653.252 1049.97 651.424 1046.43 Q649.618 1042.86 645.984 1042.86 M645.984 1039.16 Q651.794 1039.16 654.85 1043.77 Q657.928 1048.35 657.928 1057.1 Q657.928 1065.83 654.85 1070.43 Q651.794 1075.02 645.984 1075.02 Q640.174 1075.02 637.095 1070.43 Q634.04 1065.83 634.04 1057.1 Q634.04 1048.35 637.095 1043.77 Q640.174 1039.16 645.984 1039.16 Z" fill="#000000" fill-rule="nonzero" fill-opacity="1" /><path clip-path="url(#clip900)" d="M592.558 966.668 L600.197 966.668 L600.197 940.302 L591.887 941.969 L591.887 937.709 L600.151 936.043 L604.827 936.043 L604.827 966.668 L612.466 966.668 L612.466 970.603 L592.558 970.603 L592.558 966.668 Z" fill="#000000" fill-rule="nonzero" fill-opacity="1" /><path clip-path="url(#clip900)" d="M621.91 964.723 L626.794 964.723 L626.794 970.603 L621.91 970.603 L621.91 964.723 Z" fill="#000000" fill-rule="nonzero" fill-opacity="1" /><path clip-path="url(#clip900)" d="M637.026 936.043 L655.382 936.043 L655.382 939.978 L641.308 939.978 L641.308 948.45 Q642.327 948.103 643.345 947.941 Q644.364 947.756 645.382 947.756 Q651.169 947.756 654.549 950.927 Q657.928 954.098 657.928 959.515 Q657.928 965.094 654.456 968.195 Q650.984 971.274 644.664 971.274 Q642.489 971.274 640.22 970.904 Q637.975 970.533 635.567 969.793 L635.567 965.094 Q637.651 966.228 639.873 966.783 Q642.095 967.339 644.572 967.339 Q648.576 967.339 650.914 965.232 Q653.252 963.126 653.252 959.515 Q653.252 955.904 650.914 953.797 Q648.576 951.691 644.572 951.691 Q642.697 951.691 640.822 952.108 Q638.97 952.524 637.026 953.404 L637.026 936.043 Z" fill="#000000" fill-rule="nonzero" fill-opacity="1" /><path clip-path="url(#clip900)" d="M594.78 862.925 L611.1 862.925 L611.1 866.86 L589.156 866.86 L589.156 862.925 Q591.818 860.171 596.401 855.541 Q601.007 850.888 602.188 849.546 Q604.433 847.023 605.313 845.286 Q606.216 843.527 606.216 841.837 Q606.216 839.083 604.271 837.347 Q602.35 835.611 599.248 835.611 Q597.049 835.611 594.595 836.374 Q592.165 837.138 589.387 838.689 L589.387 833.967 Q592.211 832.833 594.665 832.254 Q597.118 831.675 599.155 831.675 Q604.526 831.675 607.72 834.361 Q610.915 837.046 610.915 841.536 Q610.915 843.666 610.104 845.587 Q609.317 847.485 607.211 850.078 Q606.632 850.749 603.53 853.967 Q600.429 857.161 594.78 862.925 Z" fill="#000000" fill-rule="nonzero" fill-opacity="1" /><path clip-path="url(#clip900)" d="M620.915 860.981 L625.799 860.981 L625.799 866.86 L620.915 866.86 L620.915 860.981 Z" fill="#000000" fill-rule="nonzero" fill-opacity="1" /><path clip-path="url(#clip900)" d="M645.984 835.379 Q642.373 835.379 640.544 838.944 Q638.739 842.485 638.739 849.615 Q638.739 856.722 640.544 860.286 Q642.373 863.828 645.984 863.828 Q649.618 863.828 651.424 860.286 Q653.252 856.722 653.252 849.615 Q653.252 842.485 651.424 838.944 Q649.618 835.379 645.984 835.379 M645.984 831.675 Q651.794 831.675 654.85 836.282 Q657.928 840.865 657.928 849.615 Q657.928 858.342 654.85 862.948 Q651.794 867.532 645.984 867.532 Q640.174 867.532 637.095 862.948 Q634.04 858.342 634.04 849.615 Q634.04 840.865 637.095 836.282 Q640.174 831.675 645.984 831.675 Z" fill="#000000" fill-rule="nonzero" fill-opacity="1" /><path clip-path="url(#clip900)" d="M595.776 759.183 L612.095 759.183 L612.095 763.118 L590.151 763.118 L590.151 759.183 Q592.813 756.428 597.396 751.799 Q602.003 747.146 603.183 745.803 Q605.429 743.28 606.308 741.544 Q607.211 739.785 607.211 738.095 Q607.211 735.34 605.267 733.604 Q603.345 731.868 600.243 731.868 Q598.044 731.868 595.591 732.632 Q593.16 733.396 590.382 734.947 L590.382 730.225 Q593.206 729.09 595.66 728.512 Q598.114 727.933 600.151 727.933 Q605.521 727.933 608.716 730.618 Q611.91 733.303 611.91 737.794 Q611.91 739.924 611.1 741.845 Q610.313 743.743 608.206 746.336 Q607.628 747.007 604.526 750.224 Q601.424 753.419 595.776 759.183 Z" fill="#000000" fill-rule="nonzero" fill-opacity="1" /><path clip-path="url(#clip900)" d="M621.91 757.238 L626.794 757.238 L626.794 763.118 L621.91 763.118 L621.91 757.238 Z" fill="#000000" fill-rule="nonzero" fill-opacity="1" /><path clip-path="url(#clip900)" d="M637.026 728.558 L655.382 728.558 L655.382 732.493 L641.308 732.493 L641.308 740.965 Q642.327 740.618 643.345 740.456 Q644.364 740.271 645.382 740.271 Q651.169 740.271 654.549 743.442 Q657.928 746.613 657.928 752.03 Q657.928 757.609 654.456 760.711 Q650.984 763.789 644.664 763.789 Q642.489 763.789 640.22 763.419 Q637.975 763.048 635.567 762.308 L635.567 757.609 Q637.651 758.743 639.873 759.298 Q642.095 759.854 644.572 759.854 Q648.576 759.854 650.914 757.748 Q653.252 755.641 653.252 752.03 Q653.252 748.419 650.914 746.312 Q648.576 744.206 644.572 744.206 Q642.697 744.206 640.822 744.623 Q638.97 745.039 637.026 745.919 L637.026 728.558 Z" fill="#000000" fill-rule="nonzero" fill-opacity="1" /><path clip-path="url(#clip900)" d="M604.919 640.741 Q608.276 641.459 610.151 643.727 Q612.049 645.996 612.049 649.329 Q612.049 654.445 608.53 657.246 Q605.012 660.047 598.53 660.047 Q596.355 660.047 594.04 659.607 Q591.748 659.19 589.294 658.334 L589.294 653.82 Q591.239 654.954 593.554 655.533 Q595.868 656.112 598.392 656.112 Q602.79 656.112 605.081 654.375 Q607.396 652.639 607.396 649.329 Q607.396 646.274 605.243 644.561 Q603.114 642.825 599.294 642.825 L595.267 642.825 L595.267 638.982 L599.48 638.982 Q602.929 638.982 604.757 637.616 Q606.586 636.227 606.586 633.635 Q606.586 630.973 604.688 629.561 Q602.813 628.126 599.294 628.126 Q597.373 628.126 595.174 628.542 Q592.975 628.959 590.336 629.839 L590.336 625.672 Q592.998 624.931 595.313 624.561 Q597.651 624.19 599.711 624.19 Q605.035 624.19 608.137 626.621 Q611.239 629.028 611.239 633.149 Q611.239 636.019 609.595 638.01 Q607.952 639.977 604.919 640.741 Z" fill="#000000" fill-rule="nonzero" fill-opacity="1" /><path clip-path="url(#clip900)" d="M620.915 653.496 L625.799 653.496 L625.799 659.375 L620.915 659.375 L620.915 653.496 Z" fill="#000000" fill-rule="nonzero" fill-opacity="1" /><path clip-path="url(#clip900)" d="M645.984 627.894 Q642.373 627.894 640.544 631.459 Q638.739 635.001 638.739 642.13 Q638.739 649.237 640.544 652.801 Q642.373 656.343 645.984 656.343 Q649.618 656.343 651.424 652.801 Q653.252 649.237 653.252 642.13 Q653.252 635.001 651.424 631.459 Q649.618 627.894 645.984 627.894 M645.984 624.19 Q651.794 624.19 654.85 628.797 Q657.928 633.38 657.928 642.13 Q657.928 650.857 654.85 655.463 Q651.794 660.047 645.984 660.047 Q640.174 660.047 637.095 655.463 Q634.04 650.857 634.04 642.13 Q634.04 633.38 637.095 628.797 Q640.174 624.19 645.984 624.19 Z" fill="#000000" fill-rule="nonzero" fill-opacity="1" /><path clip-path="url(#clip900)" d="M605.915 536.999 Q609.271 537.716 611.146 539.985 Q613.044 542.253 613.044 545.587 Q613.044 550.702 609.526 553.503 Q606.007 556.304 599.526 556.304 Q597.35 556.304 595.035 555.864 Q592.743 555.448 590.29 554.591 L590.29 550.077 Q592.234 551.212 594.549 551.79 Q596.864 552.369 599.387 552.369 Q603.785 552.369 606.077 550.633 Q608.392 548.897 608.392 545.587 Q608.392 542.531 606.239 540.818 Q604.109 539.082 600.29 539.082 L596.262 539.082 L596.262 535.24 L600.475 535.24 Q603.924 535.24 605.753 533.874 Q607.581 532.485 607.581 529.892 Q607.581 527.23 605.683 525.818 Q603.808 524.383 600.29 524.383 Q598.368 524.383 596.169 524.8 Q593.97 525.216 591.331 526.096 L591.331 521.929 Q593.993 521.189 596.308 520.818 Q598.646 520.448 600.706 520.448 Q606.03 520.448 609.132 522.879 Q612.234 525.286 612.234 529.406 Q612.234 532.277 610.591 534.267 Q608.947 536.235 605.915 536.999 Z" fill="#000000" fill-rule="nonzero" fill-opacity="1" /><path clip-path="url(#clip900)" d="M621.91 549.753 L626.794 549.753 L626.794 555.633 L621.91 555.633 L621.91 549.753 Z" fill="#000000" fill-rule="nonzero" fill-opacity="1" /><path clip-path="url(#clip900)" d="M637.026 521.073 L655.382 521.073 L655.382 525.008 L641.308 525.008 L641.308 533.48 Q642.327 533.133 643.345 532.971 Q644.364 532.786 645.382 532.786 Q651.169 532.786 654.549 535.957 Q657.928 539.128 657.928 544.545 Q657.928 550.124 654.456 553.226 Q650.984 556.304 644.664 556.304 Q642.489 556.304 640.22 555.934 Q637.975 555.564 635.567 554.823 L635.567 550.124 Q637.651 551.258 639.873 551.814 Q642.095 552.369 644.572 552.369 Q648.576 552.369 650.914 550.263 Q653.252 548.156 653.252 544.545 Q653.252 540.934 650.914 538.828 Q648.576 536.721 644.572 536.721 Q642.697 536.721 640.822 537.138 Q638.97 537.554 637.026 538.434 L637.026 521.073 Z" fill="#000000" fill-rule="nonzero" fill-opacity="1" /><polyline clip-path="url(#clip902)" style="stroke:#009af9; stroke-linecap:round; stroke-linejoin:round; stroke-width:4; stroke-opacity:1; fill:none" points="1016.99,999.714 1013.46,1001.5 1020.93,998.076 1016.65,1000.18 1020.6,998.431 1020.98,998.342 1021.79,998.083 1018.96,999.52 1012.28,1002.83 1018.64,1000.04 1021.11,999.021 1031.31,994.36 1030.84,994.65 1024.82,997.537 1021.59,999.138 1017.86,1001.09 1013.13,1003.56 1002.72,1008.95 991.936,1014.65 992.109,1015.25 968.042,1027.42 957.523,1033.79 948.1,1039.96 944.32,1043.46 971.206,1032.44 956.212,1039.98 977.876,1030.95 963.658,1037.1 942.445,1048.89 917.624,1062.32 926.412,1060.22 900.26,1073.36 905.554,1074.32 871.165,1093.68 834.508,1113.21 839.763,1112.31 832.576,1117.36 830.778,1118.8 859.508,1103.56 872.001,1098.49 877.055,1096.64 855.639,1104.79 912.308,1076.03 962.45,1046.34 949.59,1049.86 906.307,1072.17 928.596,1063.1 1002.33,1020.87 997.915,1019.62 1092.5,964.185 1099.48,951.306 1083.81,958.946 1151.15,916.678 1112.89,937.789 1203.92,879.733 1209.94,861.651 1202.39,857.458 1206.17,856.842 1201.08,860.6 1239.79,829.441 1169.91,884.112 1148.93,900.458 1200.34,867.32 1198.74,871.349 1182.04,872.973 1180.72,884.961 1244.52,837.95 1233.18,840.851 1178.01,888.769 1293.54,816.855 1139.32,920.73 1066.05,964.503 1114.19,926.615 1113.93,930.957 1227.34,841.716 1222.31,838.495 1135.13,909.265 1130.95,912.633 1118.76,919.558 1129.78,918.985 1225.97,854.873 1156.12,893.609 1183.62,879.919 1140.55,918.131 1177.35,893.188 1077.18,952.804 1076.85,957.185 1128.17,924.907 1083.7,952.227 1157.92,906.357 1133.37,926.475 1206.45,872.32 1250.45,835.78 1152.36,895.654 1078.45,945.345 1064.12,961.798 1159.86,913.364 1164.32,897.169 1177.49,887.252 1095.23,935.435 1149.55,907.474 1131.94,915.855 1209.26,869.66 1198.14,875.185 1131.71,914.853 1210.34,869.549 1264.3,829.731 1234.98,843.576 1226.23,850.653 1245.73,834.203 1277.75,814.054 1271.99,819.984 1359.14,745.674 1347.81,744.079 1215.1,842.105 1123.61,910.451 1097.96,933.104 1097.6,943.096 1108.95,940.846 1152.77,912.459 1174.84,896.226 1179.19,876.088 1219.8,852.566 1177.39,885.495 1173.63,886.331 1108.88,927.551 1184.56,891.309 1086.68,946.034 1067.73,960.281 1064.13,965.785 1053.01,972.696 1040.41,983.114 1068.14,969.788 1140.78,924.629 1169.97,896.2 1147.46,908.909 1143.87,911.093 1132.92,917.148 1072.17,957.012 1008.1,994.756 985.882,1013.82 919.308,1054.33 932.942,1053.62 944.88,1049.97 933.608,1058.32 921.972,1062.89 998.088,1019.15 957.655,1037.42 877.214,1084.18 881.549,1087.15 944.808,1056.35 941.499,1051.77 987.139,1025.41 1050.33,983 1048.19,985.003 1097.08,954.796 1061.71,965.649 1156.55,906.577 1082.9,944.013 1062.88,958.953 1038.09,981.412 1028.47,994.986 1013.42,997.024 1022.26,992.32 1113.52,939.271 1262.93,847.363 1107.45,943.482 1155.63,897.775 1206.56,873.602 1152.96,911.006 1110.77,935.077 1179.75,877.929 1261.24,828.149 1224.94,850.513 1155.35,894.853 1194.7,872.52 1209.86,858.536 1172.32,891.545 1222.12,861.826 1217.25,859.002 1288.86,809.942 1224.58,842.239 1112.53,912.374 1115.71,926.945 1075.29,952.896 1155.55,910.252 1132.09,919.855 1092.93,945.826 1236.53,866.011 1154.59,905.919 1120.87,922.545 1015.26,996.707 1017.72,997.899 1027.19,996.052 1067.73,974.072 1117.23,947.305 1126.02,934.493 1146.64,917.47 1104.13,938.662 1090.69,946.767 1085.29,952.545 1098.91,944.193 1115.48,935.904 1088.07,949.021 1175.38,904.808 1195.04,889.488 1209.7,868.092 1200.52,864.278 1113.24,922.544 1156.35,894.846 1105.12,927.218 1032.41,977.489 1092.18,952.242 1069.29,961.263 1101.49,949.87 1146.82,921.158 1260.48,844.089 1179.7,888.139 1148.47,901.701 1162.99,891.548 1132.02,923.302 1131.15,924.9 1059.24,963.922 1094.57,951.148 1087.97,951.195 1069.53,960.972 1127.76,924.735 1091.82,946.165 1066.9,960.443 1055.29,974.048 1076.77,961.242 995.188,1010.92 1079.33,967.262 1086.38,962.302 1091.54,950.692 1113.86,939.203 1086.26,950.929 1017.4,999.953 1026.47,996.254 1097.8,955.989 1124.58,933.432 1093.13,945.837 1174.43,898.064 1125.64,921.977 1004.9,1009.86 983.912,1023.06 961.745,1036.45 875.91,1087.59 919.824,1071.88 969.076,1036.72 1025.19,1003.72 1067.03,975.626 1093.28,954.29 1193.73,892.476 1155.59,903.343 1214.46,864.629 1237.02,846.439 1342.85,767.122 1307.76,780.384 1327.07,771.196 1326.37,763.433 1241,835.69 1242.55,839.886 1257.31,831.465 1251.17,827.987 1195.07,869.012 1180,874.429 1103.63,927.594 1121.45,922.363 1142.27,915.982 1119.62,934.029 1175.87,894.735 1146.92,907.567 1093.42,934.349 1105.86,935.078 1089.19,945.226 1036.25,978.638 984.116,1013.77 947.504,1037.72 961.289,1034.17 967.778,1035.43 1002.6,1012.72 885.857,1074.56 932.822,1060.26 893.767,1080.09 907.651,1068.37 947.927,1050.92 958.326,1043.99 888.369,1081.37 906.62,1069.54 896.447,1080.98 879.241,1088.25 897.136,1078.97 924.598,1063.71 1019.02,1017.06 1079.09,971.677 1056.15,983.821 1070.35,970.959 1037.92,987.362 1033.22,990.737 942.617,1041.21 882.745,1076.78 842.406,1105.65 897.299,1081.36 827.867,1116.99 854.017,1109.43 943.779,1058.28 986.769,1031.22 963.592,1036.23 926.461,1056.6 850.094,1100.08 920.604,1067.03 928.042,1064.31 906.824,1068.18 861.163,1095.28 869.976,1096.32 842.159,1111.01 796.287,1136.07 835.667,1116.14 904.369,1079.41 931.512,1061.58 931.1,1057.07 961.623,1040.14 947.009,1043.1 1037.91,999.403 1081.39,973.963 1208.63,886.655 1282.56,831.353 1300.07,802.841 1338.34,766.595 1288.82,789.284 1269.65,810.184 1284.03,798.169 1222.8,843.922 1241.22,842.963 1221.04,854.37 1275.48,815.484 1274.53,814.099 1141.11,898.863 1209.75,853.917 1216.87,850.302 1233.38,844.66 1207.73,850.056 1196.33,858.638 1114.09,919.446 1098.58,938.246 1068.07,965.161 1119.31,929.816 1141.59,920.065 1232.06,856.398 1151.41,898.759 1200.13,870.722 1192.56,880.512 1227.3,858.374 1192.85,873.26 1239.9,848.815 1389.95,740.01 1432.3,695.753 1472.89,655.094 1457.75,659.831 1521.58,606.81 1437.16,652.346 1357.42,717.825 1320.25,755.263 1375.44,725.755 1372.38,733.822 1306.72,774.642 1251.99,816.364 1220.52,843.493 1234.43,843.339 1196.96,869.506 1187.57,878.97 1179.97,881.332 1136.66,910.809 1073.51,951.314 1060.5,966.989 1040.99,978.903 1054.09,976.926 1112.6,948.82 1018.62,995.628 963.197,1030.49 992.684,1018.4 1003.4,1014.1 1014.25,1008.86 1045.04,993.404 1179.92,911.05 1174.86,899.673 1116.6,928.141 1084.15,951.53 1050.1,977.504 1017.51,994.247 949.62,1039.2 928.328,1057.15 936.135,1054.61 934.975,1059.5 977.564,1034.8 1071.29,978.02 1069.26,967.913 1163.89,908.111 1181.27,892.987 1162.55,901.797 1238.56,842.692 1136.87,906.729 1042.92,970.487 982.446,1014.23 977.559,1024.71 1017.28,1004.65 1114.22,949.772 1101.67,945.956 1067.22,960.031 1092.41,948.874 1151.71,911.519 1143.74,912.907 1117.96,924.5 1120.93,919.226 1126.95,923.029 1046.61,975.245 1061.64,970.85 1053.26,976.069 1174.66,899.128 1176.5,891.172 1148.96,908.605 983.1,1011.83 993.862,1013.17 1032.09,996.477 1026.51,998.118 1046.26,984.916 1029.65,988.233 1034.39,990.014 1096.14,945.117 1168.71,905.852 1177.07,892.847 1127.93,916.023 1181.13,887.542 1048.73,969.628 1054.88,971.04 1013.07,1001.06 1012.73,1005.15 1020.43,1002.02 1055.43,974.897 1020.86,999.087 1068.83,972.215 1177.08,894.713 1149.29,899.967 1080.24,941.502 1058.55,963.328 1158.01,915.326 1227.25,864.619 1221.69,859.667 1277.28,821.529 1270.29,819.266 1209.46,853.896 1214.39,855.19 1273.02,813.559 1236.56,839.668 1143.28,900.424 1067.71,956.067 1029.79,985.345 1015.2,996.72 994.408,1015.69 1040.37,993.638 1021.82,999.12 1060.99,977.63 1027.35,996.649 1006.14,1008.32 1054.3,977.284 1060.87,971.498 1042.44,977.843 992.924,1010.4 949.948,1048.42 970.484,1039.26 1040.04,995.618 1039.56,990.014 1116.54,946.635 1146.91,914.303 1034.53,979.296 1023.88,988.759 1039.66,984.333 960.928,1033.3 962.88,1034.61 967.667,1035.92 968.76,1032.02 969.386,1036.42 927.945,1062.28 982.589,1026.9 956.551,1046.37 1037.82,997.212 1095.7,954.861 1059.94,968.403 1040.31,979.381 1058.83,974.118 1121.78,937.53 1131.46,921.839 1085.07,952.547 1081.72,959.286 1097.09,944.797 1076.67,952.217 1065.84,962.428 1014,1000.22 976.385,1024.51 1035.4,987.371 1033.09,992.477 989.531,1028.41 979.332,1027.43 976.649,1027.2 995.072,1022.63 1055.59,979.913 1071.88,967.457 1112.21,941.004 1111.48,947.708 1170.88,895.354 1154.81,901.521 1126.6,919.462 1091.02,941.625 1036.64,978.037 1026.1,986.008 1049.76,974.536 1037.99,982.423 1123.26,921.854 1151,903.327 1208.28,868.919 1145.48,903.058 1183.3,881.182 1195.94,857.392 1206.23,861.766 1239.31,839.742 1203.83,860.485 1218.88,852.595 1171.48,894.361 1155.35,902.425 1152.27,901.559 1195.24,884.015 1220.44,860.603 1211.45,859.829 1254.27,825.109 1360.45,753.467 1233.46,837.763 1187.64,863.191 1121.12,909.656 1141.36,907.838 1145.38,914.38 1164.09,906.469 1248.02,849.494 1179.18,883.804 1160.62,894.438 1215.02,861.067 1208.44,865.655 1152.56,904.721 1127.59,925.985 1331.64,795.006 1312.93,784.075 1308.62,776.137 1267.9,809.241 1276.01,802.085 1248.04,825.758 1203.46,854.606 1161.84,888.924 1059.56,958.12 1126.24,926.717 1261.78,849.666 1254.59,842.05 1258.85,828.436 1283.67,805.692 1254.04,813.021 1220.09,850.458 1170.77,883.37 1140.54,910.184 1138.72,913.538 1153.32,901.046 1185.88,885.346 1318.9,797.636 1330.08,781.521 1333.47,768.993 1310.14,780.545 1201.99,850.503 1200,861.445 1198.11,863.612 1166.89,889.3 1171.33,887.4 1199.3,871.445 1180.28,894.913 1205.54,873.243 1143.06,908.864 1249.49,845.285 1248.3,837.021 1209.1,857.595 1189.95,867.703 1232.96,843.549 1353.77,767.197 1437.63,689.714 1454.86,661.637 1390.85,696.947 1359.93,728.633 1277.47,793.692 1224.08,835.921 1282.49,807.604 1290.85,799.428 1213.19,846.267 1085.12,933.08 1096.98,937.26 1048.5,969.826 1029.79,987.128 997.402,1008.01 997.654,1013.33 1027.79,998.394 1004.81,1009.15 1013.84,1003.89 1066.26,974.092 1070.81,972.336 988.261,1021.15 1033.79,993.271 992.829,1019.27 1030.76,996.19 1054.41,978.715 1085.39,967.07 1091.42,955.898 1146.35,929.751 1160.98,908.505 1079.71,951.396 1088.28,947.258 1105.94,938.054 1081.47,954.411 1126.58,920.804 1002.97,1004.92 1065.77,975.761 1103.07,954.05 1052.91,981.057 1072.16,973.524 1017.52,997.635 1009.35,1003.82 1005.18,1003.44 1042.87,982.165 1013.79,1000.41 984.858,1016.93 1133.95,927.745 1233.27,864.694 1348.62,775.086 1336.21,762.319 1368.17,734.824 1362.69,737.162 1384.74,725.594 1292.71,786.546 1373.79,745.761 1387.85,731.084 1341.82,755.642 1404.47,712.389 1308.5,786.685 1340.77,762.515 1289.6,786.454 1259.91,820.333 1254.64,827.47 1252.73,832.306 1218.3,853.966 1152.5,897.719 1166.5,893.132 1104.56,932.848 1027.87,988.082 1047.25,984.257 1045.13,985.082 1024.34,994.749 1126.38,933.707 1160.92,910.474 1193.2,879.745 1174.81,889.866 1309.46,790.879 1341.37,761.624 1282.92,796.168 1271.24,804.857 1297.38,796.568 1240.87,831.016 1257.28,824.854 1174.65,882.748 1215.44,859.765 1245.27,831.511 1270.95,813.034 1258.98,822.638 1226.4,846.79 1270.86,812.646 1376.54,746.281 1405.17,719.586 1333.35,766.556 1331.74,774.454 1179.47,868.661 1236.93,834.399 1260.67,822.373 1177.12,877.81 1162.35,896.032 1109.65,933.031 1065.28,961.148 1020.24,990.171 1026.77,994.135 1024.89,1001.5 1094.63,961.478 1095.71,952.878 1010.15,1010.88 1009.22,1004.55 1021.12,1000.29 1038.45,988.525 1020.54,994.446 1007.43,1008.96 1022.84,1002.86 1030.2,992.243 1025.7,994.269 1074.54,964.449 1086.34,950.36 1078.53,950.361 1054.75,978.25 960.26,1036.31 924.461,1062.12 895.385,1076.06 911.837,1068.97 967.402,1036.87 987.976,1015.47 1047.69,979.155 1069.94,968.754 1202.11,880.267 1241.29,842.244 1165.97,887.226 1138.89,913.013 972.33,1015.32 925.409,1050.55 919.016,1061.57 892.91,1077.62 919.696,1067.41 887.048,1083.99 852.161,1102.29 811.93,1123.47 867.481,1101.03 890.331,1088.17 882.876,1089.77 861.498,1096.12 850.931,1104.71 914.723,1071.35 969.321,1041.1 1010.77,1010.09 1000.31,1014.88 1090.96,956.872 1080.89,956.164 1051.7,974.66 1096.7,951.096 1047.37,984.211 1024.77,1003.03 1042.37,980.62 982.934,1017.7 965.53,1031.52 972.789,1036.27 978.928,1029.22 920.291,1056.78 1002.54,1015.76 978.496,1025.21 947.707,1040.11 963.585,1036.46 1020.24,1013.86 995.9,1014.59 1013.43,1006.65 1069.23,977.555 1082.43,959.727 1043.01,984.711 1041.88,980.832 999.93,1009.58 1041.72,979.327 1065.93,965.51 1158.63,902.584 1147.18,905.85 1088.39,949.201 1095.78,943.09 1155.17,905.558 1090.11,943.077 1066.01,957.947 1127.1,917.539 1096.78,945.072 1041.98,973.4 998.923,1003.1 1028.25,995.629 978.904,1023.15 949.763,1036.09 890.411,1078.85 939,1056.39 895.063,1078.07 885.565,1083.64 851.152,1104.22 944.235,1061.44 882.991,1090.55 878.587,1088.27 924.408,1068.06 921.846,1066.18 1003.86,1017.83 1027.57,996.548 981.066,1019.16 964.574,1033.51 1031.7,996.307 1013.15,1011.51 1017.76,1009.81 1077.89,968.527 1056.45,976.388 961.42,1038.1 995.877,1020.19 1021.43,1003.8 1050.91,988.055 1111.64,946.07 1114.98,946.697 1087.27,946.031 1086.5,950.14 1068.54,965.033 1092.21,954.247 978.664,1021.27 910.464,1066.02 909.247,1068.2 924.81,1056.3 943.632,1051.24 942.417,1056.04 961.337,1041.27 942.506,1053.79 1033.5,995.902 1145.12,924.161 1240.98,853.823 1197.03,873.091 1154.52,897.724 1135.52,919.835 1070.89,962.162 1040.11,984.363 1074.64,967.387 1119.15,934.77 1175.74,902.01 1083.32,951.462 1078.37,963.001 1028.91,982.646 1082.18,965.75 1089.1,959.146 1062.34,972.899 1036.3,984.918 998.863,1016.12 998.125,1018.94 1001.43,1011.7 1095.33,961.605 1042.27,998.927 1025.82,995.974 989.995,1022.12 1016.17,1009.12 1059.56,967.956 1127.39,929.893 1183.29,892.673 1152.08,908.837 1167,900.133 1193.04,870.885 1161.64,892.227 1161.4,882.473 1221.53,851.37 1256.03,807.262 1294.75,787.751 1181.37,875.467 1154.04,895.367 1176.76,889.656 1144.61,910.679 1194,884.004 1218.42,865.108 1200.98,872.098 1186.78,879.325 1125.15,917.638 1116.53,932.89 1125.76,927.983 1154.31,906.136 1178.1,889.79 1153.96,905.214 1142.9,913.695 1232.57,858.221 1191.79,873.45 1207.69,861.601 1213.68,853.721 1183.01,879.802 1170.4,892.961 1163.15,898.079 1331.81,785.67 1423.42,710.835 1386.09,724.969 1320.4,766.668 1310.36,767.379 1186.07,856.467 1164.32,878.646 1186.68,873.99 1188.34,872.264 1158.46,895.343 1079.02,946.18 1073.75,956.868 1023.85,989.655 959.458,1033.25 940.97,1049.87 889.008,1078.92 879.995,1085.4 917.375,1071.06 1006.93,1018.04 949.423,1046.85 988.328,1022.68 1009.21,1012.6 930.957,1054.01 902.727,1074.04 835.428,1112.06 873.97,1096.4 919.455,1074.5 926.618,1066.05 952.531,1046.17 960.378,1040.97 1084.12,964.893 1094.76,952.09 1163.04,908.981 1117.08,927.076 1099.93,938.896 1116.19,927.709 1088.95,952.457 1128.18,930.124 1161.54,902.766 1147.8,903.983 1188.97,876.281 1201.72,849.396 1117.38,918.74 1082.94,946.653 1113.95,937.17 1021.14,988.869 920.093,1054.84 918.955,1060.36 957.699,1043.95 947.997,1048.06 975.644,1035.97 953.104,1046.81 910.892,1064.25 1023.67,1011.05 1055.67,983.941 1139.78,932.638 1190.91,891.862 1184.29,889.631 1218.86,872.365 1155.3,909.497 1049.44,970.043 1109.73,935.776 1105.86,942.3 1189.09,872.581 1182.12,882.593 1124.3,921.365 1083.56,950.685 1096.83,949.208 1004.69,1003.05 937.097,1051.5 950.713,1045.8 939.192,1053.15 898.273,1075.1 888.491,1087.47 942.27,1058.04 988.886,1029.01 1055.97,984.396 1071.26,965.469 1082.99,960.857 1069.78,963.712 1085.66,952.444 1107.69,941.449 1233.98,863.961 1218.36,849.933 1216.32,857.05 1178.42,876.288 1148.75,906.424 1182.37,886.922 1194.08,879.009 1165.39,898.354 1134.85,916.751 1078.99,951.456 1129.14,924.659 1179.07,886.636 1145.23,906.191 1084.83,942.879 1113.33,932.824 1164.95,902.257 1159.64,903.841 1195.36,885.64 1243.27,850.357 1226.7,850.752 1191.38,870.505 1158.28,891.656 1248.87,844.915 1243.36,841.687 1329.08,787.677 1317.13,782.233 1422.81,713.842 1431.92,696.465 1469.49,659.791 1457.19,655.838 1479.54,636.411 1404.86,684.858 1421.78,681.041 1418.89,691.274 1464.6,656.323 1406.14,692.267 1363.05,721.079 1228.04,817.424 1269.76,805.987 1272.08,809.039 1298.59,796.464 1277.12,806.726 1297.85,797.748 1369.63,751.657 1419.32,711.756 1405.29,721.591 1395.72,709.532 1369.74,723.26 1279.49,792.644 1268.5,812.385 1276.45,811.033 1232.95,841.141 1225.12,855.941 1255.01,841.137 1211.3,861.518 1168.57,894.022 1192.4,879.141 1175.22,889.386 1222.01,855.451 1219.27,852.385 1198.73,863.342 1175.85,886.962 1098.15,936.927 1122.74,923.155 1031.63,979.753 1067.49,968.43 1116.26,943.569 1133.81,924.322 1193.57,886.209 1183.05,888.032 1163.83,893.818 1221.19,863.722 1212.67,873.92 1198.21,874.89 1186.68,879.619 1198.1,869.214 1264.4,828.618 1251.67,830.647 1353.3,759.139 1424.15,684.099 1457.96,658.493 1473.35,646.064 1480.93,638.439 1442.74,656.182 1388.78,703.295 1380.16,710.324 1357.73,736.419 1371.54,734.898 1425.32,690.926 1389.13,714.705 1370.65,724.626 1305.09,778.145 1294.93,793.374 1266.68,814.407 1276.25,809.356 1210.4,855.251 1181.3,879.313 1111.07,925.997 1161.25,903.102 1117.52,929.706 1020.82,989.031 966.182,1026.82 912.408,1059.27 892.9,1076.07 876.447,1087.27 942.999,1059.22 973.329,1041.04 1025.51,1006.88 1000.18,1014.64 988.946,1016.37 1017.39,1001 1057.71,979.204 996.568,1016.46 1112.9,937.235 1206.14,876.702 1196.27,875.477 1172.35,892.003 1293.4,812.107 1334.8,771.265 1293.94,792.278 1272.68,804.577 1226.9,841.242 1180.84,871.698 1186.07,874.574 1191.41,874.552 1138.13,906.539 1065.99,958.52 1013.84,996.234 1053.49,979.447 983.428,1015.73 999.216,1010.82 1024.6,1001.74 1027.16,994.363 1078.93,964.442 1067.43,969.302 1146.22,917.99 1160.42,908.601 1087.9,953.538 1056.8,962.171 1049.71,965.873 1058.21,968.153 1072.6,966.019 1081.47,959.637 1023.55,984.768 1073.02,963.774 1138.85,910.089 1167.67,895.813 1264.55,815.939 1344.39,759.99 1342.59,753.199 1306.2,767.149 1370.86,729.524 1428.63,694.858 1408.58,708.95 1456.22,659.668 1357.9,729.72 1340.37,746.295 1385.26,713.717 1381.09,709.991 1337.62,747.396 1291.47,784.044 1228.84,832.232 1132.82,901.086 1178.26,885.492 1149.22,903.202 1135.1,914.711 1047.18,971.988 1107.91,942.857 1114.9,938.369 1046.24,978.906 988.932,1013.47 1004.89,1011.05 977.973,1028.28 984.485,1024.69 999.498,1017.04 1015.12,1005.4 1028.22,997.82 1041.9,985.002 1021.21,992.115 1088.44,956.742 1063.29,962.765 1055.57,965.87 1136.86,914.617 1113.64,929.888 1037.96,987.166 1086.75,955.692 1061.53,970.569 1061.95,974.739 1138.07,927.814 1158.04,911.125 1183.36,892.354 1251.69,838.756 1234.21,842.037 1161.78,895.243 1098.6,947.999 1102.09,943.632 1080.96,953.589 1108.71,926.924 1071.43,959.996 1130.4,920.354 1051.75,969.087 1088.83,961.368 979.615,1018.32 981.429,1020.18 1008.18,1006.64 1062.25,967.34 1132,926.999 1227.93,866.16 1156.64,895.144 1110.67,929.649 1222.52,862.841 1159.59,892.173 1162.87,889.777 1289.49,795.272 1274.92,803.237 1384.7,736.991 1505.67,647.37 1480.29,641.938 1387.97,696.257 1412.77,689.089 1415.69,689.564 1367.45,722.892 1370.86,719.434 1361.27,742.207 1375.27,735.375 1384.98,728.613 1310.25,775.939 1320.15,776.032 1319.92,779.077 1315.16,779.144 1295.05,794.626 1222.89,840.393 1199.21,860.358 1210.23,853.864 1153.26,892.255 1150.17,900.055 1137.56,914.388 1109.6,933.827 1131.98,928.082 1143.66,915.314 1212.77,876.723 1215.66,878.318 1254.1,852.607 1257.93,837.754 1196.15,868.933 1112.1,923.802 1062.81,966.006 1033.98,988.192 1112.51,945.443 1197,881.236 1128.37,917.554 1231.08,858.952 1169.81,886.217 1225.07,855.653 1163.95,895.534 1147.92,903.595 1080.3,955.479 1049.77,975.969 1083.75,960.504 1072.85,964.008 1073.39,965.489 1110.87,939.556 1100.29,943.605 1048.2,976.279 1100.22,949.849 1052.83,975.885 1112.87,943.537 1115.56,940.278 1120.87,925.026 1065.1,960.213 1051.08,972.969 1073.25,962.603 1055.96,976.568 1097.98,944.438 1073.11,963.406 957.302,1029.73 975.748,1032.16 1076.28,975.471 1084.96,959.132 1200.29,892.44 1256.04,835.411 1317.24,791.254 1245.26,825.513 1181.81,868.077 1152.43,894.048 1137.67,906.898 1135.46,910.947 1127.32,919.951 1180.93,885.35 1101.24,939.647 1181.64,894.028 1253.79,837.312 1309.13,797.612 1331.56,774.147 1298.25,784.527 1281.55,797.693 1307.71,781.433 1234.47,840.919 1228.6,843.372 1186.97,877.891 1158.59,898.994 1177.33,889.911 1268.1,815.113 1259.36,814.965 1214.48,843.858 1186.55,868.22 1267.24,823.119 1186.58,873.091 1161.2,893.462 1141.92,909.868 1108.61,933.289 1099.32,943.929 1113.36,925.277 1111.07,935.658 1088.88,946.918 1093.02,938.799 1202.62,864.209 1194.29,872.641 1084.7,953.225 1099.32,946.198 1172.43,898.442 1171.41,896.527 1150.47,902.809 1178.16,884.266 1161.11,898.923 1179.87,886.355 1239.17,850.295 1169.01,893.076 1143.88,904.341 1183.44,875.543 1141.01,906.384 1146.04,903.506 1055.72,965.099 1082.45,956.954 1022.65,990.991 1036.89,989.222 1020.02,1001.15 1076.98,967.854 1006.31,1008.64 1030.65,995.889 965.718,1032.52 895.035,1078.9 881.232,1089.07 923.997,1071.97 972.002,1039.31 1057.38,987.376 1075.23,966.904 1072.14,964.815 1077.05,962.893 1182.48,900.608 1156.97,905.881 1108.53,934.344 1141.81,907.163 1154.29,901.687 1179.34,887.361 1257.69,833.706 1218.14,854.277 1245.09,837.125 1310.05,791.45 1332.03,770.605 1306.07,778.917 1363.62,748.19 1306.95,777.491 1346.92,746.91 1377.24,736.388 1347.97,755.322 1330.94,769.874 1254.28,819.963 1247.22,833.804 1261.96,827.195 1236.43,844.527 1227.11,850.141 1089.81,944.699 1088.58,950.238 1121.53,929.894 1074.56,960.801 1044.23,975.311 995.641,1011.66 1014.63,1004.55 1070.76,976.19 1181.73,909.8 1198.7,887.699 1195.62,881.214 1193.3,876.742 1218.65,858.733 1243.98,842.011 1177.55,878.795 1130.79,909.461 1127.34,918.562 1074.86,949.631 1005.57,1001.32 961.857,1028.45 998.146,1013.73 989.209,1022.36 1020.16,1006.26 1005.68,1010.47 1065.52,972.238 1043.31,981.246 1000.17,1007.25 1058.65,979.036 1087.07,963.422 989.864,1019.62 981.833,1018.4 944.61,1044.3 996.92,1018.04 1003.57,1006.91 1010.37,1006.6 996.425,1015.11 1006.87,1008.72 1020.79,1004.85 973.67,1035.34 1049.34,995.136 1033.28,997.81 1074.61,971.815 1149.66,915.903 1250.41,836.437 1307.79,792.838 1384.46,737.047 1365.27,732.702 1292.48,775.419 1228.39,824.049 1246.51,826.4 1351.51,764.647 1397.47,728.87 1394.28,719.368 1399.41,711.231 1285.11,797.321 1244.44,825.868 1197.66,858.772 1202.37,861.654 1215.2,851.65 1186.74,871.806 1205.98,862.581 1289.93,805.459 1367.36,750.696 1403.99,712.622 1312.45,775.447 1246.9,823.844 1210.06,854.19 1227.27,850.054 1224.83,848.048 1277.39,809.723 1227.03,838.483 1217.74,848.865 1207.13,857.426 1100.01,931.317 1124.17,925.822 1132.77,916.791 1162.3,907.687 1216.23,868.165 1165.32,894.85 1178.27,888.782 1174.06,895.262 1235.02,835.365 1208.43,854.873 1169.8,882.074 1155.9,902.035 1085.5,948.852 1108.77,934.584 1028.45,983.451 1036.38,987.137 1024.59,997.533 1026.44,996.24 1047.82,978.832 1068.36,964.922 1122.54,940.351 1118.04,938.068 1119.58,936.204 1081.63,956.695 974.162,1027.57 985.862,1024.47 984.075,1021.29 1051.34,986.169 1028.42,999.383 1040.71,989.118 1041.67,979.451 1000.25,1004.03 971.373,1026.34 1065.12,976.307 1032.11,995.348 1015.15,1003.86 1070.06,974.886 1155.33,913.029 1227.08,858.317 1154.54,897.51 1203.78,869.227 1264.63,824.18 1249.19,828.75 1192.77,867.256 1157.95,893.843 1107.7,933.966 1040.15,979.9 978.555,1020.17 918.15,1056.09 935.913,1055.22 873.868,1085.44 969.403,1039.17 990.672,1031.36 999.008,1019.63 974.547,1032.08 972.325,1038.04 994.554,1021.82 976.235,1031.2 965.762,1033.06 902.139,1068.78 1019.77,1013.71 1055.15,979.4 1069.17,969.116 1077.35,961.537 1024.93,993.589 935.903,1047.1 966.615,1040.07 947.453,1048.61 963.169,1037.82 1050.62,987.115 1041.7,989.011 1057.58,975.804 1036.77,983.483 984.245,1015.6 1008.73,1008.6 956.231,1044.67 979.441,1026.7 1045.32,986.323 1094.16,948.726 1075.42,962.714 1126.45,931.323 1145.8,920.483 1114.29,941.186 1153.33,893.215 1184.31,875.539 1156.3,886.498 1164.62,889.976 1183.77,880.652 1133.69,918.412 1189.1,890.074 1178.9,887.966 1187.12,881.686 1239.34,850.551 1263.28,832.368 1227.71,844.483 1176.32,876.587 1114.99,921.265 1116.66,926.095 1077.28,950.449 1075.25,958.709 1067.41,964.351 1143.76,919.906 1173.7,898.699 1255.62,843.785 1262.15,830.802 1336.74,776.078 1318.84,778.524 1375.82,734.76 1342.19,750.517 1240.47,827.997 1272.5,816.717 1203.89,864.009 1081.54,945.32 1012.11,993.155 1029.87,992.505 1021.79,996.106 988.902,1022.06 923.765,1055.43 952.785,1042.93 990.766,1021.39 1066.69,978.719 1118.61,946.229 1063.89,968.701 1120.35,935.225 1099.29,936.272 1026.62,980.563 1104.36,942.126 1032.32,983.793 1103.61,947.338 1153.5,902.442 1151.98,906.022 1144.66,908.774 1178.06,895.305 1326.86,786.714 1258.21,818.656 1323.27,778.835 1207.27,850.219 1178.7,873.024 1168.57,891.844 1174.12,890.23 1134.05,912.524 1198.3,875.341 1190.9,879.632 1093.69,943.121 1103.91,940.072 1154.86,908.939 1129.97,919.882 1145.48,922.773 1198.77,881.669 1218.36,857.308 1181.48,877.029 1229.66,843.014 1231.46,838.905 1185.35,868.517 1130.17,912.502 1124.97,922.98 1090.01,945.207 1100.91,942.253 1125.54,917.197 1167.37,902.884 1074.82,955.697 1094.7,949.09 1044.84,978.304 1013.97,998.892 982.723,1014.89 924.476,1054.37 930.807,1053.69 947.443,1044.79 943.736,1049.96 941.896,1054.29 962.722,1042.79 914.069,1068.47 925.104,1060.04 972.225,1036.81 948.439,1052.2 935.116,1051.1 904.605,1069.82 920.255,1063.28 980.334,1033.61 1028.54,994.515 1038.05,990.481 1057.79,975.82 1054.08,978.921 1068.19,964.129 1056.01,966.578 1073.45,967.084 1124.83,936.394 1040.2,989.454 1010.43,1003.91 991.755,1012.77 969.172,1018.88 909.213,1062.79 940.445,1052.41 917.108,1067.85 967.517,1044.12 921.792,1066.72 910.111,1072.46 900.251,1076.6 923.094,1064.73 856.278,1099.15 913.529,1072.86 944.802,1045.8 986.549,1027.44 973.776,1027.96 1002.01,1014.59 1047.71,980.201 964.325,1024.27 969.261,1025.33 923.813,1054.65 889.634,1080.42 955.802,1050.39 961.042,1049.31 979.667,1031.08 1006.77,1011.78 1081.56,969.444 1061.92,975.707 1038.72,988.486 1072.54,958.453 1096.31,940.744 1101.67,938.115 1221.98,856.534 1222.06,852.881 1284.43,807.252 1268.76,814.179 1209.55,855.918 1291.39,799.376 1271.08,809.148 1289.58,789.917 1292.19,799.075 1288.58,794.966 1249.43,818.718 1186.47,862.516 1117.88,919.45 1070.17,954.324 1055.62,969.298 1032.72,988.736 990.822,1013.81 966.469,1032.21 1010.98,1013.5 933.902,1051.58 884.939,1079.12 899.553,1073.51 931.587,1060.22 985.737,1027.65 1011.1,1006.04 1007.42,1003.49 987.253,1022.93 978.019,1033.74 977.02,1029.64 880.956,1083.22 972.978,1037.16 951.609,1045.56 993.255,1019.74 1034.82,994.217 1056.84,973.953 1023,996.223 1077.09,963.357 1140.89,922.282 1204.12,879.981 1230.23,837.911 1247.51,822.842 1290.36,792.962 1149.83,894.886 1167.82,889.853 1189.6,881.625 1234.89,853.629 1166.82,884.824 1106.38,933.967 1146.49,916.66 1182.14,886.538 1146.52,910.566 1148.6,912.819 1239.74,846.546 1273.1,827.651 1314.07,790.497 1329.72,775.51 1328.77,772.557 1373.01,735.406 1395.22,718.745 1368.21,727.474 1468.89,662.348 1476.47,647.826 1463.97,653.501 1410.56,689.211 1520.8,618.41 1617.33,529.358 1723.93,433.585 1735.35,407.302 1789.67,355.68 1669.61,436.321 1599.1,493.32 1556.46,537.722 1484.1,597.685 1420.73,652.917 1367.93,700.678 1385.27,703.218 1351.5,732.379 1325.24,756.547 1302.63,775.534 1317.61,773.168 1421.9,712.973 1439.4,699.818 1394.14,722.952 1351.44,750.572 1355.55,754.022 1317.4,776.283 1319.23,777.994 1251.19,823.259 1218.11,848.194 1212.82,855.448 1125.87,909.34 1134.2,912.999 1173.07,894.879 1141.95,910.573 1067.48,954.3 1104.71,940.481 1053.33,971.6 1064.28,968.858 1089.75,955.419 1042.12,982.407 1022.94,1000.66 1059.84,981.076 1039.38,987.794 1066.42,971.931 1070.28,965.428 1095.02,944.983 1047.65,973.502 1008.89,1006.54 1046.33,987.679 1105.48,947.849 1100.88,950.095 1032.56,988.286 1086.63,953.897 1088.47,950.466 1059.35,972.3 991.801,1012.44 1003.9,1013.58 1075.7,972.804 1153.9,919.012 1265.83,839.955 1276.99,818.28 1284.74,808.672 1271.17,819.499 1274.3,808.638 1314.84,784.197 1288.39,804.391 1227.81,837.731 1158.62,890.468 1083,945.635 1117.35,929.462 1045.57,976.282 970.265,1022.72 941.173,1046.28 945.86,1047.52 966.954,1038.49 971.273,1029.81 961.79,1036.08 1053.35,980.757 1082.36,960.407 1074.62,959.936 1157.57,914.17 1244.67,852.824 1160.3,904.543 1105.57,939.564 1150.47,912.923 1089.93,956.966 1049.43,971.682 1041.83,982.089 1151.4,910.424 1213.53,861.289 1252.3,839.421 1219.33,858.988 1203.54,867.393 1215.91,862.483 1228.86,848.987 1234.73,817.536 1218,821.385 1246.73,815.032 1248.69,822.902 1148.89,901.43 1087.52,937.609 1018.2,989.939 955.207,1031.22 990.239,1020.18 1019.34,1006.69 1047.09,988.103 1093.26,957.471 1069.68,965.688 1147.73,922.93 1168.8,899.118 1198.76,880.947 1162.81,905.086 1126.53,933.138 1190.52,886.825 1218.17,860.287 1236.42,843.884 1242.03,827.903 1289.92,797.132 1283.4,784.074 1246.56,822.349 1267.57,821.009 1265.67,814.853 1243.46,830.548 1125.53,911.546 1169.19,894.204 1191.19,880.668 1099.39,938.106 1119.43,927.113 1157.92,898.436 1168.45,895.866 1217.63,864.304 1176.57,886.255 1179.35,882.537 1188.65,871.49 1153.34,898.283 1216.59,860.55 1143.16,903.573 1093.9,930.849 1101.55,935.11 1128.53,923.874 1094.83,951 1091.91,949.502 1135.08,921.412 1180.44,885.449 1284.66,808.96 1277.47,806.452 1208.62,856.985 1151.55,899.701 1071.52,949.03 1119.34,926.404 1071.2,964.325 1039.62,981.264 1063.94,968.347 1136.72,927.433 1083.85,959.076 1045.19,994.332 1014.47,1014.88 978.623,1044.52 1005.04,1028.69 912.477,1074.97 1009.99,1013.43 926.352,1059.79 950.726,1045.59 998.657,1015.12 988.701,1022.4 998.294,1020.92 979.632,1026 1048.6,987.624 1073.56,961.742 1013.76,1000.4 1074.86,961.47 1074.44,961.908 1009.73,1003.71 1063.12,969.156 1158.61,902.221 1108.72,938.892 1128.91,920.81 1117.79,932.575 1119.24,942.974 1164.45,916.403 1179.56,884.028 1128.34,918.196 1081.03,955.673 1143.56,918.501 1146.97,910.834 1068.16,961.548 1069.46,970.501 1067.74,965.405 1097.12,951.581 1043.28,981.203 1047.57,981.903 1038.56,988.764 990.804,1008.63 1065.16,958.998 1086.08,951.534 955.32,1043.17 955.701,1043.11 921.416,1064.28 884.529,1088.37 981.575,1041.53 969.426,1039.29 934.298,1058.19 1045.45,999.798 1086.77,964.928 1140.05,927.961 1178.65,893.898 1217.42,867.431 1258.51,824.738 1365.71,759.622 1445.53,681.616 1433.99,675.257 1312.23,750.717 1261.95,797.464 1217.32,836.362 1308.31,790.347 1316.93,785.203 1267.13,810.946 1227.42,835.418 1266.87,822.191 1284.07,809.385 1289.82,798.481 1248.97,825.575 1223.12,841.532 1345.93,760.719 1409.22,710.23 1243.23,818.217 1163.87,876.41 1064.47,946.235 1002.31,990.508 981.977,1012.11 970.731,1025.95 994.648,1018.97 969.497,1032.4 1022.4,1007.51 1017.75,1005.73 1026.34,994.936 1015.42,1001.41 982.555,1023.24 1031.04,998.293 996.942,1012 995.73,1013.89 1066.38,980.59 986.733,1024.49 1080.57,963.083 1112.4,937.336 1145.81,918.836 1127.97,916.647 1041.52,974.617 1092.43,948.609 1056.99,972.07 1076.54,960.604 1082.87,956.46 1142.49,918.975 1297.53,818.006 1187.84,889.235 1148.02,915.902 1115.79,932.513 1077.56,964.632 1068.55,969.848 1102.64,942.235 1068.49,960.553 1084.48,948.696 1084.15,950.319 1191.9,871.364 1126.51,909.11 1106.9,926.092 1186.45,883.055 1147.81,903.269 1121.09,925.014 1027.67,986.242 977.126,1020.57 1027.09,995.026 1025.21,996.722 1033.78,987.985 1018.66,994.001 1089.61,958.305 1138.7,930.091 1185.06,887.147 1130.93,919.727 1144.73,912.551 1146.11,907.882 1129.31,924.878 1096.06,944.622 1035.35,981.949 1146.86,911.168 1166.96,890.159 1242.27,841.233 1254.11,818.07 1252.68,828.806 1279.87,805.93 1327.33,758.775 1223.74,839.046 1216.89,852.176 1322.81,791.975 1390.52,733.734 1436.24,688.061 1404.74,704.942 1255.97,811.463 1200.86,855.735 1164.86,885.95 1149.16,903.233 1221,860.184 1222.79,851.658 1199.64,871.906 1164.65,889.78 1146.55,904.343 1155.61,905.213 1156.56,904.647 1320.98,791.852 1321.96,780.49 1310.2,779.979 1323.33,767.807 1321.56,769.813 1238.2,819.885 1202.43,855.256 1262.88,824.848 1217.98,851.867 1234.09,846.15 1241.5,839.552 1302.8,794.442 1278.62,806.294 1191.65,863.175 1197.57,864.132 1110.12,930.159 1053.45,968.215 993.269,1009.09 988.943,1017.98 980.989,1025.03 923.434,1059.79 904.432,1070.64 986.91,1032.03 962.468,1041.98 978.586,1032.04 1042.83,992.012 1121.98,937.482 1106.92,937.589 1056.15,970.705 1021.87,992.731 1179.42,905.196 1177.89,897.014 1097.35,938.856 1007.05,997.702 979.054,1023.46 948.214,1041.76 934.915,1050.08 965.761,1035.36 982.624,1023.36 1008.52,1012.31 1081.82,965.821 1039.26,982.273 1052.24,976.92 1131.08,923.344 1148.45,912.749 1174.24,895.692 1167.3,898.505 1309.26,801.352 1307.38,798.631 1405.19,713.501 1376.2,715.424 1320,766.943 1290.07,795.486 1281.9,802.144 1287.66,803.025 1256.43,817.705 1262.19,815.39 1325.41,763.951 1293.44,800.435 1313.55,765.143 1214.24,837.917 1162.64,881.376 1120.62,914.288 1112.8,926.107 1103.15,934.06 1102.82,942.03 1116.85,934.005 1019.48,988.366 1016.43,993.099 977.041,1020.71 1027.84,996.703 1018.36,1003.32 980.389,1025.25 983.816,1023.05 967.735,1032.09 945.194,1044.27 892.113,1080.66 912.741,1069.53 881.329,1088.77 800.136,1132.77 799.377,1139.4 815.251,1130.82 863.249,1105.14 929.762,1064.55 972.781,1037.63 989.429,1021.3 1013.47,1005.43 1075.95,968.595 1112.43,938.808 1138.54,921.685 1175.35,890.123 1190.49,871.78 1235,832.717 1239.14,818.74 1154.74,879.793 1106.77,923.63 1126.08,920.875 1055.82,966.124 1083.19,957.945 1092.66,945.003 1137.79,916.452 1238.64,854.224 1278.34,818.577 1223.01,851.004 1298.32,793.032 1310.87,769.509 1306.16,769.2 1344.27,737.251 1370.81,726.254 1418.81,693.952 1402.45,702.516 1318.74,770.802 1335.1,761.7 1400.86,722.374 1494.76,638.004 1506.77,623.206 1412.81,691.443 1356.14,735.452 1313.31,769.588 1246.84,815.932 1236.94,831.494 1261.28,823.771 1259.47,827.969 1198.35,859.862 1225.2,847.759 1218.42,858.907 1172.07,882.035 1229.03,855.606 1215.91,859.829 1233.52,846.884 1159.76,896.45 1055.61,962.804 1010.55,997.343 1003.91,1009.73 1036.12,990.123 1064.68,976.355 1089.74,944.885 1141.13,914.891 1070.92,959.259 1132.25,920.389 1146.85,913.396 1239.27,839.485 1239.89,834.984 1228.32,840.514 1253.78,822.958 1258.54,820.131 1306.84,790.207 1186.95,875.4 1154.48,902.123 1130.28,917.034 1130.58,920.652 1132.42,924.556 1107.87,943.736 1124.87,938.705 1134.78,927.256 1217.23,878.558 1145.05,924.638 1098.93,951.748 1130.63,932.138 1193.28,875.05 1242.97,839.876 1205.34,866.638 1177.37,887.993 1337,770.697 1462.98,680.125 1559.05,582.992 1451.45,651.019 1465.13,641.025 1353.56,716.356 1361.92,725.594 1270.79,792.011 1236.01,825.147 1208.86,852.585 1116.25,914.207 1085.92,940.207 1064.25,961.539 1031.24,985.129 979.729,1015.43 968.331,1029.33 1028.69,1002.71 1030.51,998.497 1034.04,997.94 1113.46,951.223 1104.48,952.793 1236.16,873.179 1211.54,870.874 1167.87,886.753 1193.95,876.301 1136.28,908.545 1086.17,948.262 1077.63,956.278 1066.15,963.552 1049.65,974.576 1105.67,943.597 1116.6,935.689 1093.62,949.052 1094.64,941.885 1088.79,950.654 1043.71,979.772 1051.14,980.926 985.726,1021.34 997.82,1020.15 1027.42,998.984 1035.62,992.158 962.123,1035.06 955.807,1038.34 920.216,1070.92 904.732,1074.44 1008.64,1015.13 1099.47,956.467 1164.08,910.276 1233.48,853.977 1229.29,840.586 1251.65,829.168 1172.98,880.079 1170.98,885.199 1208.45,867.728 1218.46,842.07 1194.3,859.776 1306.66,783.016 1242.71,821.777 1161.7,880.907 1098.17,930.843 1069.01,957.605 1068.18,962.179 1029.52,986.267 997.441,1010.9 1004.5,1009.73 1001.45,1013.75 1051.89,985.305 1068.74,970.861 1040.13,987.119 942.104,1050.61 1049.54,984.673 1121.54,939.134 1152.45,911.249 1179,887.937 1154.79,896.889 1097.53,938.427 1060.82,967.08 1072.71,958.564 1037.56,983.418 1050.46,976.809 1027.09,985.339 1160.88,904.078 1165.54,894.522 1173.5,891.021 1080.41,948.441 1105.89,936.574 1105.2,942.906 1100.38,940.351 1050.13,976.928 1224.78,867.292 1314.14,798.503 1359.37,752.904 1411.42,701.498 1308.09,777.314 1265.21,803.357 1299.46,782.891 1377.97,738.624 1339.67,759.221 1227.35,843.205 1172.58,880.814 1134,914.112 1019.29,985.848 965.231,1025.16 944.634,1041.69 1028.29,1004.55 1093.13,961.375 1104.06,945.953 1091.63,948.575 1140.51,923.695 1158.5,899.37 1155.05,903.229 1140.34,914.104 1198.38,881.601 1127.85,920.778 1113.1,930.12 1109.06,920.888 1148.34,907.198 1158.74,897.899 1263.42,839.933 1214.94,865.754 1354.4,763.506 1329.07,762.236 1414.6,700.606 1365.7,730.024 1330.83,755.626 1291.23,784.494 1273.35,812.613 1246.55,833.971 1277.33,816.431 1249.54,824.652 1247.31,833.849 1203.76,870.14 1087.58,944.359 1069.66,963.626 1061.95,969.302 1083.32,954.489 1154.66,905.673 1171.93,895.258 1147.13,904.512 1202.33,872.374 1095.6,944.09 1132.99,925.858 1078.47,954.868 1044.53,972.198 1050.35,979.056 1045.1,977.402 1043.32,982.386 1002.65,1003.68 1090.67,954.178 1056.11,974.407 1149.44,911.895 1184.85,893.166 1138.33,933.308 1100.78,949.372 1096.41,950.978 1064.42,971.463 1104.91,937.407 1109.88,934.839 1063.94,964.696 1078.92,955.735 1039.51,983.565 1056.15,967.256 1032.78,984.76 1060.62,969.803 1152.66,907.383 1128.98,924.834 1187.96,891.042 1172.18,897.114 1221.35,855.569 1199.23,875.551 1196.31,866.055 1177.13,892.129 1206.69,861.82 1243.18,837.33 1209.51,852.961 1267.48,822.485 1226.69,848.777 1229.15,842.452 1153.36,901.724 1125.51,921.169 1127.63,913.716 1063.88,964.299 1141.47,919.326 1128.36,922.325 1144.97,910.416 1046.65,973.961 1040.61,981.011 1015.49,998.893 1085.51,958.33 1092.67,952.873 1055.96,978.711 1114.79,941.909 1042.94,975.545 951.622,1036.58 902.767,1074.06 933.986,1060.36 915.624,1072.85 908.297,1076.4 883.74,1090.26 879.755,1085.35 890.965,1083.03 930.233,1057.26 943.99,1052.67 954.019,1043.95 966.884,1038.07 966.708,1036.51 994.981,1025.87 954.848,1043.38 953.969,1047.43 936.313,1058.71 1052.99,989.443 990.521,1026.17 999.42,1016.48 1005,1015.29 898.873,1076.55 864.85,1097.33 840.895,1112.32 822.76,1121.98 833.909,1122.5 889.651,1092.78 915.357,1073.77 962.416,1050.26 1043.91,992.455 1042.68,989.483 1000.21,1011.03 1046.44,986.074 1092.77,958.85 1085.08,955.657 1071.56,958.68 1060.89,972.643 1062.75,971.652 1108.26,936.318 1131.33,929.519 1275.2,835.755 1261.23,826.906 1159.68,887.636 1148.84,900.981 1116.7,920.122 1141.18,914.758 1230.92,863.454 1166.6,892.002 1199.63,870.558 1213.83,859.038 1154.69,896.856 1138.35,911.49 1106.26,934.523 1117.23,927.975 1050.43,972.442 965.934,1027.53 921.753,1055.76 938.468,1054.04 1005.06,1019.23 952.397,1043.18 1020.56,1002.92 1081.06,963.387 1128.15,927.294 1066.78,967.994 1149.42,916.047 1207.51,872.083 1256.26,844.302 1317.33,785.72 1281.66,802.239 1236.8,831.733 1318.11,779.808 1352.23,750.047 1316.38,773.589 1309.62,774.785 1277.85,796.059 1296.29,786.333 1290.57,799.022 1250.1,822.287 1234.94,840.461 1182.94,881.581 1107.66,932.296 1087.8,945.654 1058,961.262 1026.69,991.033 1110.56,944.935 1073.48,961.567 1017.21,999.797 968.748,1031.31 925.888,1056.41 961.693,1043.78 1060.56,977.669 1008.13,1006.91 1052.75,975.865 1045.68,982.488 1139.4,927.89 1146.76,917.857 1098,941.798 1026.89,985.44 1084.88,945.763 1154.07,908.097 1104.32,940.68 1104.89,932.199 1089.86,941.816 1111.56,941.393 1146.74,924.688 1252.9,849.754 1285.02,819.537 1312.82,798.911 1290.67,797.869 1245.89,828.312 1160.84,888.538 1173.36,883.641 1100.33,930.069 1150.02,913.601 1183.49,885.907 1224.54,856.086 1193.83,879.277 1294.2,802.976 1329.91,777.649 1275.36,811.398 1137.42,906.557 1136.89,913.705 1082.6,949.58 1096.66,945.519 1054.27,974.414 1032.13,989.194 1008.91,1008.71 1087.99,963.488 1117.35,937.961 1056.89,972.888 1021.76,994.257 1008.49,1004.26 1046.75,987.541 1008.29,1007.25 1010.35,1008.57 1001.6,1001.42 1051.57,978.104 1030.76,976.851 1046.47,969.74 1040.91,983.825 1088.64,957.824 1120.57,931.943 1045.67,972.521 1146.22,915.556 1064.29,966.154 1159.85,909.873 1157.98,905.014 1079.97,948.861 1179.16,894.207 1184.97,889.342 1088.71,957.776 1010.23,1002.73 1041.01,985.124 1072.99,966.653 1035.6,994.342 991.539,1031.71 943.245,1063.95 959.28,1056.37 1055.5,995.983 1041.68,993.219 1126.55,946.258 1191.73,896.882 1122.81,927.283 1164.6,901.195 1115.54,927.805 1149.81,909.601 1153.98,897.268 1147.77,897.471 1026.04,981.135 952.711,1026.77 990.592,1016.89 933.258,1048.23 936.867,1052.29 990.444,1026.88 953.091,1041.81 984.488,1028 983.111,1023.55 938.58,1049.62 957.076,1046.55 993.937,1023.79 973.252,1031.87 977.811,1026 985.141,1023.03 1031.36,991.327 1146.77,922.998 1148.36,913.836 1078.51,950.034 1149.51,912.516 1125.57,925.126 1058.48,973.147 1008.47,1005.01 969.054,1032 959.984,1041.84 996.671,1014.38 944.203,1047.09 897.989,1074.66 967.494,1040.29 935.154,1056.57 953.628,1047.15 991.872,1024.82 933.103,1059.31 947.687,1050.19 909.359,1071.46 905.693,1077.57 920.364,1072.03 952.424,1048.29 947.338,1048.81 881.729,1088.38 852.331,1107.3 880.353,1091.45 979.401,1032.09 976.098,1029.79 1000.65,1020.12 1053.2,979.329 1046.78,983.962 1015.23,1001.66 1043.81,984.709 1171.07,898.767 1151.56,910.578 1155.13,905.852 1114.43,926.661 1010.5,997.467 966.579,1027.32 1004.28,1014.69 958.98,1036.99 896.216,1077.66 836.097,1113.28 792.248,1135.56 749.355,1161.05 718.853,1178.01 751.746,1165.01 787.449,1149.77 735.892,1170.91 766.638,1158.42 748.954,1164.39 746.53,1167.52 762.806,1160.37 758.556,1161.45 799.642,1143.44 832.761,1125.47 871.284,1102.62 892.789,1084.49 960.556,1047.81 1009.4,1014.99 1018.26,1005.07 972.305,1027.11 981.609,1025.38 990.46,1022.77 1006.87,1015.12 999.086,1012.77 996.577,1012.16 1016.78,1001.51 990.534,1018.94 1090.49,962.41 1148.93,920.599 1128.1,930.73 1065.04,966.173 1121.61,926.302 1184.48,889.434 1225.33,855.094 1300.65,800.213 1363.24,738.957 1345.49,742.871 1319.41,771.47 1343.19,748.503 1303.75,782.635 1299.31,790.39 1437.97,705.311 1448.37,668.505 1371.49,719.007 1304.08,767.955 1218.99,833.01 1184.68,868.246 1156.33,894.366 1141.53,911.054 1178.77,892.431 1287.83,823.2 1374.18,758.863 1361.05,754.099 1332.44,763.363 1423.63,700.137 1320.4,769.128 1235.98,832.046 1287.97,804.166 1380.37,739.023 1297.99,785.699 1284.62,802.198 1312.13,789.012 1253.66,824.558 1259.99,833.816 1343.12,770.189 1470.66,662.024 1505.78,618.836 1465.41,636.117 1455.45,651.075 1303.02,758.512 1248.88,805.973 1304.22,785.114 1255.72,816.52 1341.86,769.596 1358.83,753.441 1314.68,776.45 1234.57,835.564 1230.76,843.484 1231.44,845.368 1254.24,830.374 1342.45,764.697 1268.79,814.318 1303.07,799.454 1355.51,755.13 1330.87,762.632 1433.09,700.396 1363.5,744.131 1253.22,822.642 1339.45,776.475 1354.39,758.279 1339.48,770.129 1269.46,820.328 1251.92,831.682 1275.33,816.237 1189.91,881.074 1142.56,909.37 1087.31,952.075 1121.43,932.888 1136.39,920.369 1209.54,873.887 1172.85,887.817 1082.45,941.958 1118.99,916.861 1141.43,900.63 1266.21,820.823 1283.65,805.889 1349.48,758.938 1422.51,698.92 1374.59,724.278 1395.69,710.613 1339.35,753.98 1315.16,761.489 1295.38,785.02 1341.22,757.814 1377.21,734.859 1309.36,776.326 1343.37,756.947 1339.09,753.769 1293.79,790.144 1238.31,831.199 1197.59,861.909 1232.94,841.876 1142.04,896.777 1120.51,919.741 1100.29,936.956 1179.14,896.588 1178.74,896.302 1283.24,831.53 1219.25,865.19 1222.59,860.936 1222.44,859.553 1192.75,878.177 1148.15,906.418 1200.17,873.281 1155.69,902.887 1209.74,858.36 1085.93,942.343 1098.35,938.805 1182.15,890.079 1210.01,864.136 1154.4,904.997 1016.39,1002.65 1016.32,1004.59 1090.96,962.222 1131.42,934.157 1170.8,895.556 1214.19,874.148 1303.52,804.84 1271.26,814.997 1264.94,822.037 1181.13,871.761 1128.93,907.493 1105.1,928.97 1103.11,934.084 1116.3,931.814 1092.46,943.309 1063.09,964.13 1041.34,981.43 1104.66,946.835 1106.64,941.034 1041.02,976.97 1104.92,946.735 1113.5,934.731 1158.51,904.572 1169.02,892.569 1107.81,932.05 1101.7,926.493 1095.12,937.138 1063.85,953.021 1100.57,935.261 1130.25,912.542 1118.28,925.96 1151.95,902.312 1126.26,911.047 1037.28,977.393 1015.76,996.428 1013.52,1001.09 966.789,1031.39 997.852,1019.57 1030.87,998.034 1022.05,1001.73 1025.15,998.454 1117,941.102 1124.13,932.693 1225.39,872.179 1192.47,869.917 1210.36,857.397 1293.06,809.704 1274.43,811.004 1262.54,820.214 1280.13,808.652 1172.14,880.62 1163.92,889.165 1158.61,894.918 1068.45,957.759 1031.15,981.911 1057.25,976.323 1095.9,956.908 1132.86,921.683 1107.22,937.747 1087.63,948.075 1151.32,911.734 1099.29,941.485 1051.2,971.024 982.271,1015.08 990.101,1014.91 1053.32,985.951 1013.67,1008.85 975.057,1031.87 1011.41,1013.12 1065.09,974.13 1066.63,968.435 1072.7,967.914 1075.3,968.82 1018.69,998.922 962.314,1040.29 947.56,1049.48 1005.89,1008.41 999.973,1012.05 986.077,1016.63 1034.14,993.294 1012.69,1003.76 975.241,1028.02 1060.63,974.184 1090.39,951.441 1065.08,967.15 1043.3,979.897 1135.52,929.953 1150.26,923.472 1180.74,887.382 1136.17,909.75 1108.55,931.874 1068.12,970.414 1065.78,970.483 1084.37,957.807 1142.81,922.068 1225.95,860.642 1234.78,846.404 1287.77,803.82 1322.58,772.943 1434.41,692.172 1427.72,686.511 1341.71,735.068 1298.02,771.799 1203.1,840.049 1183.76,867.029 1192.58,873.683 1178.88,883.388 1216.46,865.144 1252.01,840.053 1375.11,753.56 1353.04,750.072 1366.39,736.342 "/>
<path clip-path="url(#clip900)" d="M228.998 198.898 L588.673 198.898 L588.673 95.2176 L228.998 95.2176  Z" fill="#ffffff" fill-rule="evenodd" fill-opacity="1"/>
<polyline clip-path="url(#clip900)" style="stroke:#000000; stroke-linecap:round; stroke-linejoin:round; stroke-width:4; stroke-opacity:1; fill:none" points="228.998,198.898 588.673,198.898 588.673,95.2176 228.998,95.2176 228.998,198.898 "/>
<polyline clip-path="url(#clip900)" style="stroke:#009af9; stroke-linecap:round; stroke-linejoin:round; stroke-width:4; stroke-opacity:1; fill:none" points="253.409,147.058 399.875,147.058 "/>
<path clip-path="url(#clip900)" d="M434.911 128.366 Q431.809 133.69 430.305 138.898 Q428.8 144.106 428.8 149.453 Q428.8 154.801 430.305 160.055 Q431.832 165.287 434.911 170.588 L431.207 170.588 Q427.735 165.148 425.999 159.893 Q424.286 154.639 424.286 149.453 Q424.286 144.291 425.999 139.06 Q427.712 133.828 431.207 128.366 L434.911 128.366 Z" fill="#000000" fill-rule="nonzero" fill-opacity="1" /><path clip-path="url(#clip900)" d="M464.726 138.412 L455.351 151.027 L465.212 164.338 L460.189 164.338 L452.642 154.152 L445.096 164.338 L440.073 164.338 L450.142 150.773 L440.929 138.412 L445.953 138.412 L452.828 147.648 L459.703 138.412 L464.726 138.412 Z" fill="#000000" fill-rule="nonzero" fill-opacity="1" /><path clip-path="url(#clip900)" d="M472.318 158.458 L477.202 158.458 L477.202 162.439 L473.406 169.847 L470.42 169.847 L472.318 162.439 L472.318 158.458 Z" fill="#000000" fill-rule="nonzero" fill-opacity="1" /><path clip-path="url(#clip900)" d="M497.087 166.745 Q495.281 171.375 493.568 172.787 Q491.855 174.199 488.985 174.199 L485.582 174.199 L485.582 170.634 L488.082 170.634 Q489.841 170.634 490.813 169.8 Q491.786 168.967 492.966 165.865 L493.73 163.921 L483.244 138.412 L487.758 138.412 L495.86 158.689 L503.962 138.412 L508.475 138.412 L497.087 166.745 Z" fill="#000000" fill-rule="nonzero" fill-opacity="1" /><path clip-path="url(#clip900)" d="M515.443 158.458 L520.327 158.458 L520.327 162.439 L516.531 169.847 L513.545 169.847 L515.443 162.439 L515.443 158.458 Z" fill="#000000" fill-rule="nonzero" fill-opacity="1" /><path clip-path="url(#clip900)" d="M527.573 138.412 L547.804 138.412 L547.804 142.301 L531.785 160.935 L547.804 160.935 L547.804 164.338 L526.994 164.338 L526.994 160.449 L543.012 141.815 L527.573 141.815 L527.573 138.412 Z" fill="#000000" fill-rule="nonzero" fill-opacity="1" /><path clip-path="url(#clip900)" d="M553.637 128.366 L557.341 128.366 Q560.813 133.828 562.526 139.06 Q564.262 144.291 564.262 149.453 Q564.262 154.639 562.526 159.893 Q560.813 165.148 557.341 170.588 L553.637 170.588 Q556.716 165.287 558.22 160.055 Q559.748 154.801 559.748 149.453 Q559.748 144.106 558.22 138.898 Q556.716 133.69 553.637 128.366 Z" fill="#000000" fill-rule="nonzero" fill-opacity="1" /></svg>
